EXTRACT: control_change channel=0 control=101 value=0 time=0
EXTRACT: control_change channel=0 control=100 value=0 time=0
EXTRACT: control_change channel=0 control=6 value=12 time=0
EXTRACT: control_change channel=0 control=38 value=0 time=0
EXTRACT: control_change channel=1 control=101 value=0 time=0
EXTRACT: control_change channel=1 control=100 value=0 time=0
EXTRACT: control_change channel=1 control=6 value=12 time=0
EXTRACT: control_change channel=1 control=38 value=0 time=0
EXTRACT: control_change channel=2 control=101 value=0 time=0
EXTRACT: control_change channel=2 control=100 value=0 time=0
EXTRACT: control_change channel=2 control=6 value=12 time=0
EXTRACT: control_change channel=2 control=38 value=0 time=0
EXTRACT: control_change channel=3 control=101 value=0 time=0
EXTRACT: control_change channel=3 control=100 value=0 time=0
EXTRACT: control_change channel=3 control=6 value=12 time=0
EXTRACT: control_change channel=3 control=38 value=0 time=0
EXTRACT: control_change channel=4 control=101 value=0 time=0
EXTRACT: control_change channel=4 control=100 value=0 time=0
EXTRACT: control_change channel=4 control=6 value=12 time=0
EXTRACT: control_change channel=4 control=38 value=0 time=0
EXTRACT: control_change channel=5 control=101 value=0 time=0
EXTRACT: control_change channel=5 control=100 value=0 time=0
EXTRACT: control_change channel=5 control=6 value=12 time=0
EXTRACT: control_change channel=5 control=38 value=0 time=0
EXTRACT: control_change channel=6 control=101 value=0 time=0
EXTRACT: control_change channel=6 control=100 value=0 time=0
EXTRACT: control_change channel=6 control=6 value=12 time=0
EXTRACT: control_change channel=6 control=38 value=0 time=0
EXTRACT: control_change channel=7 control=101 value=0 time=0
EXTRACT: control_change channel=7 control=100 value=0 time=0
EXTRACT: control_change channel=7 control=6 value=12 time=0
EXTRACT: control_change channel=7 control=38 value=0 time=0
EXTRACT: control_change channel=8 control=101 value=0 time=0
EXTRACT: control_change channel=8 control=100 value=0 time=0
EXTRACT: control_change channel=8 control=6 value=12 time=0
EXTRACT: control_change channel=8 control=38 value=0 time=0
EXTRACT: control_change channel=9 control=101 value=0 time=0
EXTRACT: control_change channel=9 control=100 value=0 time=0
EXTRACT: control_change channel=9 control=6 value=12 time=0
EXTRACT: control_change channel=9 control=38 value=0 time=0
EXTRACT: control_change channel=10 control=101 value=0 time=0
EXTRACT: control_change channel=10 control=100 value=0 time=0
EXTRACT: control_change channel=10 control=6 value=12 time=0
EXTRACT: control_change channel=10 control=38 value=0 time=0
EXTRACT: control_change channel=11 control=101 value=0 time=0
EXTRACT: control_change channel=11 control=100 value=0 time=0
EXTRACT: control_change channel=11 control=6 value=12 time=0
EXTRACT: control_change channel=11 control=38 value=0 time=0
EXTRACT: control_change channel=12 control=101 value=0 time=0
EXTRACT: control_change channel=12 control=100 value=0 time=0
EXTRACT: control_change channel=12 control=6 value=12 time=0
EXTRACT: control_change channel=12 control=38 value=0 time=0
EXTRACT: control_change channel=13 control=101 value=0 time=0
EXTRACT: control_change channel=13 control=100 value=0 time=0
EXTRACT: control_change channel=13 control=6 value=12 time=0
EXTRACT: control_change channel=13 control=38 value=0 time=0
EXTRACT: control_change channel=14 control=101 value=0 time=0
EXTRACT: control_change channel=14 control=100 value=0 time=0
EXTRACT: control_change channel=14 control=6 value=12 time=0
EXTRACT: control_change channel=14 control=38 value=0 time=0
EXTRACT: control_change channel=15 control=101 value=0 time=0
EXTRACT: control_change channel=15 control=100 value=0 time=0
EXTRACT: control_change channel=15 control=6 value=12 time=0
EXTRACT: control_change channel=15 control=38 value=0 time=0
EXTRACT: pitchwheel channel=0 pitch=0 time=0
EXTRACT: control_change channel=0 control=7 value=95 time=0
EXTRACT: control_change channel=0 control=10 value=63 time=0
EXTRACT: control_change channel=0 control=93 value=0 time=0
EXTRACT: control_change channel=0 control=91 value=0 time=0
EXTRACT: control_change channel=0 control=95 value=0 time=0
EXTRACT: control_change channel=0 control=92 value=0 time=0
EXTRACT: control_change channel=0 control=11 value=127 time=0
EXTRACT: program_change channel=0 program=24 time=0
EXTRACT: control_change channel=1 control=7 value=95 time=0
EXTRACT: control_change channel=1 control=10 value=63 time=0
EXTRACT: control_change channel=1 control=93 value=0 time=0
EXTRACT: control_change channel=1 control=91 value=0 time=0
EXTRACT: control_change channel=1 control=95 value=0 time=0
EXTRACT: control_change channel=1 control=92 value=0 time=0
EXTRACT: control_change channel=1 control=11 value=127 time=0
EXTRACT: program_change channel=1 program=24 time=0
EXTRACT: note_on channel=0 note=69 velocity=95 time=0
EXTRACT: note_on channel=0 note=65 velocity=95 time=0
EXTRACT: note_on channel=0 note=62 velocity=95 time=0
EXTRACT: note_on channel=0 note=57 velocity=95 time=0
EXTRACT: note_on channel=0 note=50 velocity=95 time=0
EXTRACT: note_on channel=0 note=45 velocity=95 time=0
EXTRACT: pitchwheel channel=2 pitch=0 time=0
EXTRACT: control_change channel=2 control=7 value=103 time=0
EXTRACT: control_change channel=2 control=10 value=63 time=0
EXTRACT: control_change channel=2 control=93 value=0 time=0
EXTRACT: control_change channel=2 control=91 value=0 time=0
EXTRACT: control_change channel=2 control=95 value=0 time=0
EXTRACT: control_change channel=2 control=92 value=0 time=0
EXTRACT: control_change channel=2 control=11 value=127 time=0
EXTRACT: program_change channel=2 program=25 time=0
EXTRACT: control_change channel=3 control=7 value=103 time=0
EXTRACT: control_change channel=3 control=10 value=63 time=0
EXTRACT: control_change channel=3 control=93 value=0 time=0
EXTRACT: control_change channel=3 control=91 value=0 time=0
EXTRACT: control_change channel=3 control=95 value=0 time=0
EXTRACT: control_change channel=3 control=92 value=0 time=0
EXTRACT: control_change channel=3 control=11 value=127 time=0
EXTRACT: program_change channel=3 program=25 time=0
EXTRACT: pitchwheel channel=6 pitch=0 time=0
EXTRACT: control_change channel=6 control=7 value=111 time=0
EXTRACT: control_change channel=6 control=10 value=63 time=0
EXTRACT: control_change channel=6 control=93 value=0 time=0
EXTRACT: control_change channel=6 control=91 value=0 time=0
EXTRACT: control_change channel=6 control=95 value=0 time=0
EXTRACT: control_change channel=6 control=92 value=0 time=0
EXTRACT: control_change channel=6 control=11 value=127 time=0
EXTRACT: program_change channel=6 program=25 time=0
EXTRACT: control_change channel=7 control=7 value=111 time=0
EXTRACT: control_change channel=7 control=10 value=63 time=0
EXTRACT: control_change channel=7 control=93 value=0 time=0
EXTRACT: control_change channel=7 control=91 value=0 time=0
EXTRACT: control_change channel=7 control=95 value=0 time=0
EXTRACT: control_change channel=7 control=92 value=0 time=0
EXTRACT: control_change channel=7 control=11 value=127 time=0
EXTRACT: program_change channel=7 program=25 time=0
EXTRACT: note_on channel=6 note=57 velocity=95 time=0
EXTRACT: pitchwheel channel=11 pitch=0 time=0
EXTRACT: control_change channel=11 control=7 value=127 time=0
EXTRACT: control_change channel=11 control=10 value=63 time=0
EXTRACT: control_change channel=11 control=93 value=0 time=0
EXTRACT: control_change channel=11 control=91 value=0 time=0
EXTRACT: control_change channel=11 control=95 value=0 time=0
EXTRACT: control_change channel=11 control=92 value=0 time=0
EXTRACT: control_change channel=11 control=11 value=127 time=0
EXTRACT: program_change channel=11 program=27 time=0
EXTRACT: control_change channel=12 control=7 value=127 time=0
EXTRACT: control_change channel=12 control=10 value=63 time=0
EXTRACT: control_change channel=12 control=93 value=0 time=0
EXTRACT: control_change channel=12 control=91 value=0 time=0
EXTRACT: control_change channel=12 control=95 value=0 time=0
EXTRACT: control_change channel=12 control=92 value=0 time=0
EXTRACT: control_change channel=12 control=11 value=127 time=0
EXTRACT: program_change channel=12 program=27 time=0
EXTRACT: note_on channel=6 note=62 velocity=95 time=0.006666666666666666
EXTRACT: note_on channel=6 note=65 velocity=95 time=0.006666666666666666
EXTRACT: note_on channel=6 note=69 velocity=95 time=0.006666666666666666
EXTRACT: note_off channel=0 note=69 velocity=95 time=0.37999999999999995
EXTRACT: note_off channel=0 note=65 velocity=95 time=0
EXTRACT: note_off channel=0 note=62 velocity=95 time=0
EXTRACT: note_off channel=0 note=57 velocity=95 time=0
EXTRACT: note_off channel=0 note=50 velocity=95 time=0
EXTRACT: note_off channel=0 note=45 velocity=95 time=0
EXTRACT: note_on channel=0 note=69 velocity=95 time=0
EXTRACT: note_on channel=0 note=65 velocity=95 time=0
EXTRACT: note_on channel=0 note=62 velocity=95 time=0
EXTRACT: note_on channel=0 note=57 velocity=95 time=0
EXTRACT: note_on channel=0 note=50 velocity=95 time=0
EXTRACT: note_on channel=0 note=45 velocity=95 time=0
EXTRACT: note_off channel=0 note=69 velocity=95 time=0.39999999999999997
EXTRACT: note_off channel=0 note=65 velocity=95 time=0
EXTRACT: note_off channel=0 note=62 velocity=95 time=0
EXTRACT: note_off channel=0 note=57 velocity=95 time=0
EXTRACT: note_off channel=0 note=50 velocity=95 time=0
EXTRACT: note_off channel=0 note=45 velocity=95 time=0
EXTRACT: note_on channel=0 note=69 velocity=95 time=0
EXTRACT: note_on channel=0 note=65 velocity=95 time=0
EXTRACT: note_on channel=0 note=62 velocity=95 time=0
EXTRACT: note_on channel=0 note=57 velocity=95 time=0
EXTRACT: note_on channel=0 note=50 velocity=95 time=0
EXTRACT: note_on channel=0 note=45 velocity=95 time=0
EXTRACT: note_off channel=0 note=69 velocity=95 time=0.39999999999999997
EXTRACT: note_off channel=0 note=65 velocity=95 time=0
EXTRACT: note_off channel=0 note=62 velocity=95 time=0
EXTRACT: note_off channel=0 note=57 velocity=95 time=0
EXTRACT: note_off channel=0 note=50 velocity=95 time=0
EXTRACT: note_off channel=0 note=45 velocity=95 time=0
EXTRACT: note_on channel=0 note=69 velocity=95 time=0
EXTRACT: note_on channel=0 note=65 velocity=95 time=0
EXTRACT: note_on channel=0 note=62 velocity=95 time=0
EXTRACT: note_on channel=0 note=57 velocity=95 time=0
EXTRACT: note_on channel=0 note=50 velocity=95 time=0
EXTRACT: note_on channel=0 note=45 velocity=95 time=0
EXTRACT: note_off channel=0 note=69 velocity=95 time=0.39999999999999997
EXTRACT: note_off channel=0 note=65 velocity=95 time=0
EXTRACT: note_off channel=0 note=62 velocity=95 time=0
EXTRACT: note_off channel=0 note=57 velocity=95 time=0
EXTRACT: note_off channel=0 note=50 velocity=95 time=0
EXTRACT: note_off channel=0 note=45 velocity=95 time=0
EXTRACT: note_on channel=0 note=69 velocity=95 time=0
EXTRACT: note_on channel=0 note=65 velocity=95 time=0
EXTRACT: note_on channel=0 note=62 velocity=95 time=0
EXTRACT: note_on channel=0 note=57 velocity=95 time=0
EXTRACT: note_on channel=0 note=50 velocity=95 time=0
EXTRACT: note_on channel=0 note=45 velocity=95 time=0
EXTRACT: note_off channel=0 note=69 velocity=95 time=0.39999999999999997
EXTRACT: note_off channel=0 note=65 velocity=95 time=0
EXTRACT: note_off channel=0 note=62 velocity=95 time=0
EXTRACT: note_off channel=0 note=57 velocity=95 time=0
EXTRACT: note_off channel=0 note=50 velocity=95 time=0
EXTRACT: note_off channel=0 note=45 velocity=95 time=0
EXTRACT: note_on channel=0 note=69 velocity=95 time=0
EXTRACT: note_on channel=0 note=65 velocity=95 time=0
EXTRACT: note_on channel=0 note=62 velocity=95 time=0
EXTRACT: note_on channel=0 note=57 velocity=95 time=0
EXTRACT: note_on channel=0 note=50 velocity=95 time=0
EXTRACT: note_on channel=0 note=45 velocity=95 time=0
EXTRACT: note_off channel=0 note=69 velocity=95 time=0.39999999999999997
EXTRACT: note_off channel=0 note=65 velocity=95 time=0
EXTRACT: note_off channel=0 note=62 velocity=95 time=0
EXTRACT: note_off channel=0 note=57 velocity=95 time=0
EXTRACT: note_off channel=0 note=50 velocity=95 time=0
EXTRACT: note_off channel=0 note=45 velocity=95 time=0
EXTRACT: note_on channel=0 note=69 velocity=95 time=0
EXTRACT: note_on channel=0 note=65 velocity=95 time=0
EXTRACT: note_on channel=0 note=62 velocity=95 time=0
EXTRACT: note_on channel=0 note=57 velocity=95 time=0
EXTRACT: note_on channel=0 note=50 velocity=95 time=0
EXTRACT: note_on channel=0 note=45 velocity=95 time=0
EXTRACT: note_off channel=0 note=69 velocity=95 time=0.39999999999999997
EXTRACT: note_off channel=0 note=65 velocity=95 time=0
EXTRACT: note_off channel=0 note=62 velocity=95 time=0
EXTRACT: note_off channel=0 note=57 velocity=95 time=0
EXTRACT: note_off channel=0 note=50 velocity=95 time=0
EXTRACT: note_off channel=0 note=45 velocity=95 time=0
EXTRACT: note_on channel=0 note=69 velocity=95 time=0
EXTRACT: note_on channel=0 note=65 velocity=95 time=0
EXTRACT: note_on channel=0 note=62 velocity=95 time=0
EXTRACT: note_on channel=0 note=57 velocity=95 time=0
EXTRACT: note_on channel=0 note=50 velocity=95 time=0
EXTRACT: note_on channel=0 note=45 velocity=95 time=0
EXTRACT: note_off channel=0 note=69 velocity=95 time=0.39999999999999997
EXTRACT: note_off channel=0 note=65 velocity=95 time=0
EXTRACT: note_off channel=0 note=62 velocity=95 time=0
EXTRACT: note_off channel=0 note=57 velocity=95 time=0
EXTRACT: note_off channel=0 note=50 velocity=95 time=0
EXTRACT: note_off channel=0 note=45 velocity=95 time=0
EXTRACT: note_on channel=0 note=70 velocity=95 time=0
EXTRACT: note_on channel=0 note=65 velocity=95 time=0
EXTRACT: note_on channel=0 note=62 velocity=95 time=0
EXTRACT: note_on channel=0 note=58 velocity=95 time=0
EXTRACT: note_on channel=0 note=53 velocity=95 time=0
EXTRACT: note_on channel=0 note=46 velocity=95 time=0
EXTRACT: note_off channel=6 note=69 velocity=95 time=0
EXTRACT: note_off channel=6 note=65 velocity=95 time=0
EXTRACT: note_off channel=6 note=62 velocity=95 time=0
EXTRACT: note_off channel=6 note=57 velocity=95 time=0
EXTRACT: note_on channel=6 note=58 velocity=95 time=0
EXTRACT: note_on channel=6 note=62 velocity=95 time=0.006666666666666666
EXTRACT: note_on channel=6 note=65 velocity=95 time=0.006666666666666666
EXTRACT: note_on channel=6 note=70 velocity=95 time=0.006666666666666666
EXTRACT: note_off channel=0 note=70 velocity=95 time=0.37999999999999995
EXTRACT: note_off channel=0 note=65 velocity=95 time=0
EXTRACT: note_off channel=0 note=62 velocity=95 time=0
EXTRACT: note_off channel=0 note=58 velocity=95 time=0
EXTRACT: note_off channel=0 note=53 velocity=95 time=0
EXTRACT: note_off channel=0 note=46 velocity=95 time=0
EXTRACT: note_on channel=0 note=70 velocity=95 time=0
EXTRACT: note_on channel=0 note=65 velocity=95 time=0
EXTRACT: note_on channel=0 note=62 velocity=95 time=0
EXTRACT: note_on channel=0 note=58 velocity=95 time=0
EXTRACT: note_on channel=0 note=53 velocity=95 time=0
EXTRACT: note_on channel=0 note=46 velocity=95 time=0
EXTRACT: note_off channel=0 note=70 velocity=95 time=0.39999999999999997
EXTRACT: note_off channel=0 note=65 velocity=95 time=0
EXTRACT: note_off channel=0 note=62 velocity=95 time=0
EXTRACT: note_off channel=0 note=58 velocity=95 time=0
EXTRACT: note_off channel=0 note=53 velocity=95 time=0
EXTRACT: note_off channel=0 note=46 velocity=95 time=0
EXTRACT: note_on channel=0 note=70 velocity=95 time=0
EXTRACT: note_on channel=0 note=65 velocity=95 time=0
EXTRACT: note_on channel=0 note=62 velocity=95 time=0
EXTRACT: note_on channel=0 note=58 velocity=95 time=0
EXTRACT: note_on channel=0 note=53 velocity=95 time=0
EXTRACT: note_on channel=0 note=46 velocity=95 time=0
EXTRACT: note_off channel=0 note=70 velocity=95 time=0.39999999999999997
EXTRACT: note_off channel=0 note=65 velocity=95 time=0
EXTRACT: note_off channel=0 note=62 velocity=95 time=0
EXTRACT: note_off channel=0 note=58 velocity=95 time=0
EXTRACT: note_off channel=0 note=53 velocity=95 time=0
EXTRACT: note_off channel=0 note=46 velocity=95 time=0
EXTRACT: note_on channel=0 note=70 velocity=95 time=0
EXTRACT: note_on channel=0 note=65 velocity=95 time=0
EXTRACT: note_on channel=0 note=62 velocity=95 time=0
EXTRACT: note_on channel=0 note=58 velocity=95 time=0
EXTRACT: note_on channel=0 note=53 velocity=95 time=0
EXTRACT: note_on channel=0 note=46 velocity=95 time=0
EXTRACT: note_off channel=0 note=70 velocity=95 time=0.39999999999999997
EXTRACT: note_off channel=0 note=65 velocity=95 time=0
EXTRACT: note_off channel=0 note=62 velocity=95 time=0
EXTRACT: note_off channel=0 note=58 velocity=95 time=0
EXTRACT: note_off channel=0 note=53 velocity=95 time=0
EXTRACT: note_off channel=0 note=46 velocity=95 time=0
EXTRACT: note_on channel=0 note=70 velocity=95 time=0
EXTRACT: note_on channel=0 note=65 velocity=95 time=0
EXTRACT: note_on channel=0 note=62 velocity=95 time=0
EXTRACT: note_on channel=0 note=58 velocity=95 time=0
EXTRACT: note_on channel=0 note=53 velocity=95 time=0
EXTRACT: note_on channel=0 note=46 velocity=95 time=0
EXTRACT: note_off channel=6 note=70 velocity=95 time=0
EXTRACT: note_off channel=6 note=65 velocity=95 time=0
EXTRACT: note_off channel=6 note=62 velocity=95 time=0
EXTRACT: note_off channel=6 note=58 velocity=95 time=0
EXTRACT: note_off channel=0 note=70 velocity=95 time=0.39999999999999997
EXTRACT: note_off channel=0 note=65 velocity=95 time=0
EXTRACT: note_off channel=0 note=62 velocity=95 time=0
EXTRACT: note_off channel=0 note=58 velocity=95 time=0
EXTRACT: note_off channel=0 note=53 velocity=95 time=0
EXTRACT: note_off channel=0 note=46 velocity=95 time=0
EXTRACT: note_on channel=0 note=70 velocity=95 time=0
EXTRACT: note_on channel=0 note=65 velocity=95 time=0
EXTRACT: note_on channel=0 note=62 velocity=95 time=0
EXTRACT: note_on channel=0 note=58 velocity=95 time=0
EXTRACT: note_on channel=0 note=53 velocity=95 time=0
EXTRACT: note_on channel=0 note=46 velocity=95 time=0
EXTRACT: note_off channel=0 note=70 velocity=95 time=0.39999999999999997
EXTRACT: note_off channel=0 note=65 velocity=95 time=0
EXTRACT: note_off channel=0 note=62 velocity=95 time=0
EXTRACT: note_off channel=0 note=58 velocity=95 time=0
EXTRACT: note_off channel=0 note=53 velocity=95 time=0
EXTRACT: note_off channel=0 note=46 velocity=95 time=0
EXTRACT: note_on channel=0 note=70 velocity=95 time=0
EXTRACT: note_on channel=0 note=65 velocity=95 time=0
EXTRACT: note_on channel=0 note=62 velocity=95 time=0
EXTRACT: note_on channel=0 note=58 velocity=95 time=0
EXTRACT: note_on channel=0 note=53 velocity=95 time=0
EXTRACT: note_on channel=0 note=46 velocity=95 time=0
EXTRACT: note_on channel=6 note=70 velocity=95 time=0
EXTRACT: note_off channel=0 note=70 velocity=95 time=0.39999999999999997
EXTRACT: note_off channel=0 note=65 velocity=95 time=0
EXTRACT: note_off channel=0 note=62 velocity=95 time=0
EXTRACT: note_off channel=0 note=58 velocity=95 time=0
EXTRACT: note_off channel=0 note=53 velocity=95 time=0
EXTRACT: note_off channel=0 note=46 velocity=95 time=0
EXTRACT: note_on channel=0 note=70 velocity=95 time=0
EXTRACT: note_on channel=0 note=65 velocity=95 time=0
EXTRACT: note_on channel=0 note=62 velocity=95 time=0
EXTRACT: note_on channel=0 note=58 velocity=95 time=0
EXTRACT: note_on channel=0 note=53 velocity=95 time=0
EXTRACT: note_on channel=0 note=46 velocity=95 time=0
EXTRACT: note_off channel=6 note=70 velocity=95 time=0
EXTRACT: note_on channel=6 note=72 velocity=95 time=0
EXTRACT: note_off channel=0 note=70 velocity=95 time=0.39999999999999997
EXTRACT: note_off channel=0 note=65 velocity=95 time=0
EXTRACT: note_off channel=0 note=62 velocity=95 time=0
EXTRACT: note_off channel=0 note=58 velocity=95 time=0
EXTRACT: note_off channel=0 note=53 velocity=95 time=0
EXTRACT: note_off channel=0 note=46 velocity=95 time=0
EXTRACT: note_on channel=0 note=69 velocity=95 time=0
EXTRACT: note_on channel=0 note=65 velocity=95 time=0
EXTRACT: note_on channel=0 note=60 velocity=95 time=0
EXTRACT: note_on channel=0 note=53 velocity=95 time=0
EXTRACT: note_on channel=0 note=48 velocity=95 time=0
EXTRACT: note_off channel=6 note=72 velocity=95 time=0
EXTRACT: note_on channel=6 note=53 velocity=95 time=0
EXTRACT: note_on channel=6 note=57 velocity=95 time=0.006666666666666666
EXTRACT: note_on channel=6 note=60 velocity=95 time=0.006666666666666666
EXTRACT: note_on channel=6 note=65 velocity=95 time=0.006666666666666666
EXTRACT: note_off channel=0 note=69 velocity=95 time=0.37999999999999995
EXTRACT: note_off channel=0 note=65 velocity=95 time=0
EXTRACT: note_off channel=0 note=60 velocity=95 time=0
EXTRACT: note_off channel=0 note=53 velocity=95 time=0
EXTRACT: note_off channel=0 note=48 velocity=95 time=0
EXTRACT: note_on channel=0 note=69 velocity=95 time=0
EXTRACT: note_on channel=0 note=65 velocity=95 time=0
EXTRACT: note_on channel=0 note=60 velocity=95 time=0
EXTRACT: note_on channel=0 note=53 velocity=95 time=0
EXTRACT: note_on channel=0 note=48 velocity=95 time=0
EXTRACT: note_off channel=0 note=69 velocity=95 time=0.39999999999999997
EXTRACT: note_off channel=0 note=65 velocity=95 time=0
EXTRACT: note_off channel=0 note=60 velocity=95 time=0
EXTRACT: note_off channel=0 note=53 velocity=95 time=0
EXTRACT: note_off channel=0 note=48 velocity=95 time=0
EXTRACT: note_on channel=0 note=69 velocity=95 time=0
EXTRACT: note_on channel=0 note=65 velocity=95 time=0
EXTRACT: note_on channel=0 note=60 velocity=95 time=0
EXTRACT: note_on channel=0 note=53 velocity=95 time=0
EXTRACT: note_on channel=0 note=48 velocity=95 time=0
EXTRACT: note_off channel=0 note=69 velocity=95 time=0.39999999999999997
EXTRACT: note_off channel=0 note=65 velocity=95 time=0
EXTRACT: note_off channel=0 note=60 velocity=95 time=0
EXTRACT: note_off channel=0 note=53 velocity=95 time=0
EXTRACT: note_off channel=0 note=48 velocity=95 time=0
EXTRACT: note_on channel=0 note=69 velocity=95 time=0
EXTRACT: note_on channel=0 note=65 velocity=95 time=0
EXTRACT: note_on channel=0 note=60 velocity=95 time=0
EXTRACT: note_on channel=0 note=53 velocity=95 time=0
EXTRACT: note_on channel=0 note=48 velocity=95 time=0
EXTRACT: note_off channel=0 note=69 velocity=95 time=0.39999999999999997
EXTRACT: note_off channel=0 note=65 velocity=95 time=0
EXTRACT: note_off channel=0 note=60 velocity=95 time=0
EXTRACT: note_off channel=0 note=53 velocity=95 time=0
EXTRACT: note_off channel=0 note=48 velocity=95 time=0
EXTRACT: note_on channel=0 note=69 velocity=95 time=0
EXTRACT: note_on channel=0 note=65 velocity=95 time=0
EXTRACT: note_on channel=0 note=60 velocity=95 time=0
EXTRACT: note_on channel=0 note=53 velocity=95 time=0
EXTRACT: note_on channel=0 note=48 velocity=95 time=0
EXTRACT: note_off channel=0 note=69 velocity=95 time=0.39999999999999997
EXTRACT: note_off channel=0 note=65 velocity=95 time=0
EXTRACT: note_off channel=0 note=60 velocity=95 time=0
EXTRACT: note_off channel=0 note=53 velocity=95 time=0
EXTRACT: note_off channel=0 note=48 velocity=95 time=0
EXTRACT: note_on channel=0 note=69 velocity=95 time=0
EXTRACT: note_on channel=0 note=65 velocity=95 time=0
EXTRACT: note_on channel=0 note=60 velocity=95 time=0
EXTRACT: note_on channel=0 note=53 velocity=95 time=0
EXTRACT: note_on channel=0 note=48 velocity=95 time=0
EXTRACT: note_off channel=0 note=69 velocity=95 time=0.39999999999999997
EXTRACT: note_off channel=0 note=65 velocity=95 time=0
EXTRACT: note_off channel=0 note=60 velocity=95 time=0
EXTRACT: note_off channel=0 note=53 velocity=95 time=0
EXTRACT: note_off channel=0 note=48 velocity=95 time=0
EXTRACT: note_on channel=0 note=69 velocity=95 time=0
EXTRACT: note_on channel=0 note=65 velocity=95 time=0
EXTRACT: note_on channel=0 note=60 velocity=95 time=0
EXTRACT: note_on channel=0 note=53 velocity=95 time=0
EXTRACT: note_on channel=0 note=48 velocity=95 time=0
EXTRACT: note_off channel=0 note=69 velocity=95 time=0.39999999999999997
EXTRACT: note_off channel=0 note=65 velocity=95 time=0
EXTRACT: note_off channel=0 note=60 velocity=95 time=0
EXTRACT: note_off channel=0 note=53 velocity=95 time=0
EXTRACT: note_off channel=0 note=48 velocity=95 time=0
EXTRACT: note_on channel=0 note=69 velocity=95 time=0
EXTRACT: note_on channel=0 note=65 velocity=95 time=0
EXTRACT: note_on channel=0 note=60 velocity=95 time=0
EXTRACT: note_on channel=0 note=53 velocity=95 time=0
EXTRACT: note_on channel=0 note=48 velocity=95 time=0
EXTRACT: note_off channel=0 note=69 velocity=95 time=0.39999999999999997
EXTRACT: note_off channel=0 note=65 velocity=95 time=0
EXTRACT: note_off channel=0 note=60 velocity=95 time=0
EXTRACT: note_off channel=0 note=53 velocity=95 time=0
EXTRACT: note_off channel=0 note=48 velocity=95 time=0
EXTRACT: note_on channel=0 note=67 velocity=95 time=0
EXTRACT: note_on channel=0 note=65 velocity=95 time=0
EXTRACT: note_on channel=0 note=60 velocity=95 time=0
EXTRACT: note_on channel=0 note=53 velocity=95 time=0
EXTRACT: note_on channel=0 note=48 velocity=95 time=0
EXTRACT: note_off channel=6 note=65 velocity=95 time=0
EXTRACT: note_off channel=6 note=60 velocity=95 time=0
EXTRACT: note_off channel=6 note=57 velocity=95 time=0
EXTRACT: note_off channel=6 note=53 velocity=95 time=0
EXTRACT: note_on channel=6 note=53 velocity=95 time=0
EXTRACT: note_on channel=6 note=55 velocity=95 time=0.006666666666666666
EXTRACT: note_on channel=6 note=60 velocity=95 time=0.006666666666666666
EXTRACT: note_on channel=6 note=65 velocity=95 time=0.006666666666666666
EXTRACT: note_off channel=0 note=67 velocity=95 time=0.37999999999999995
EXTRACT: note_off channel=0 note=65 velocity=95 time=0
EXTRACT: note_off channel=0 note=60 velocity=95 time=0
EXTRACT: note_off channel=0 note=53 velocity=95 time=0
EXTRACT: note_off channel=0 note=48 velocity=95 time=0
EXTRACT: note_on channel=0 note=67 velocity=95 time=0
EXTRACT: note_on channel=0 note=65 velocity=95 time=0
EXTRACT: note_on channel=0 note=60 velocity=95 time=0
EXTRACT: note_on channel=0 note=53 velocity=95 time=0
EXTRACT: note_on channel=0 note=48 velocity=95 time=0
EXTRACT: note_off channel=0 note=67 velocity=95 time=0.39999999999999997
EXTRACT: note_off channel=0 note=65 velocity=95 time=0
EXTRACT: note_off channel=0 note=60 velocity=95 time=0
EXTRACT: note_off channel=0 note=53 velocity=95 time=0
EXTRACT: note_off channel=0 note=48 velocity=95 time=0
EXTRACT: note_on channel=0 note=67 velocity=95 time=0
EXTRACT: note_on channel=0 note=65 velocity=95 time=0
EXTRACT: note_on channel=0 note=60 velocity=95 time=0
EXTRACT: note_on channel=0 note=53 velocity=95 time=0
EXTRACT: note_on channel=0 note=48 velocity=95 time=0
EXTRACT: note_off channel=0 note=67 velocity=95 time=0.39999999999999997
EXTRACT: note_off channel=0 note=65 velocity=95 time=0
EXTRACT: note_off channel=0 note=60 velocity=95 time=0
EXTRACT: note_off channel=0 note=53 velocity=95 time=0
EXTRACT: note_off channel=0 note=48 velocity=95 time=0
EXTRACT: note_on channel=0 note=67 velocity=95 time=0
EXTRACT: note_on channel=0 note=65 velocity=95 time=0
EXTRACT: note_on channel=0 note=60 velocity=95 time=0
EXTRACT: note_on channel=0 note=53 velocity=95 time=0
EXTRACT: note_on channel=0 note=48 velocity=95 time=0
EXTRACT: note_off channel=0 note=67 velocity=95 time=0.39999999999999997
EXTRACT: note_off channel=0 note=65 velocity=95 time=0
EXTRACT: note_off channel=0 note=60 velocity=95 time=0
EXTRACT: note_off channel=0 note=53 velocity=95 time=0
EXTRACT: note_off channel=0 note=48 velocity=95 time=0
EXTRACT: note_on channel=0 note=67 velocity=95 time=0
EXTRACT: note_on channel=0 note=65 velocity=95 time=0
EXTRACT: note_on channel=0 note=60 velocity=95 time=0
EXTRACT: note_on channel=0 note=53 velocity=95 time=0
EXTRACT: note_on channel=0 note=48 velocity=95 time=0
EXTRACT: note_off channel=0 note=67 velocity=95 time=0.39999999999999997
EXTRACT: note_off channel=0 note=65 velocity=95 time=0
EXTRACT: note_off channel=0 note=60 velocity=95 time=0
EXTRACT: note_off channel=0 note=53 velocity=95 time=0
EXTRACT: note_off channel=0 note=48 velocity=95 time=0
EXTRACT: note_on channel=0 note=67 velocity=95 time=0
EXTRACT: note_on channel=0 note=65 velocity=95 time=0
EXTRACT: note_on channel=0 note=60 velocity=95 time=0
EXTRACT: note_on channel=0 note=53 velocity=95 time=0
EXTRACT: note_on channel=0 note=48 velocity=95 time=0
EXTRACT: note_off channel=0 note=67 velocity=95 time=0.39999999999999997
EXTRACT: note_off channel=0 note=65 velocity=95 time=0
EXTRACT: note_off channel=0 note=60 velocity=95 time=0
EXTRACT: note_off channel=0 note=53 velocity=95 time=0
EXTRACT: note_off channel=0 note=48 velocity=95 time=0
EXTRACT: note_on channel=0 note=67 velocity=95 time=0
EXTRACT: note_on channel=0 note=65 velocity=95 time=0
EXTRACT: note_on channel=0 note=60 velocity=95 time=0
EXTRACT: note_on channel=0 note=53 velocity=95 time=0
EXTRACT: note_on channel=0 note=48 velocity=95 time=0
EXTRACT: note_off channel=0 note=67 velocity=95 time=0.39999999999999997
EXTRACT: note_off channel=0 note=65 velocity=95 time=0
EXTRACT: note_off channel=0 note=60 velocity=95 time=0
EXTRACT: note_off channel=0 note=53 velocity=95 time=0
EXTRACT: note_off channel=0 note=48 velocity=95 time=0
EXTRACT: note_on channel=0 note=67 velocity=95 time=0
EXTRACT: note_on channel=0 note=65 velocity=95 time=0
EXTRACT: note_on channel=0 note=60 velocity=95 time=0
EXTRACT: note_on channel=0 note=53 velocity=95 time=0
EXTRACT: note_on channel=0 note=48 velocity=95 time=0
EXTRACT: note_off channel=0 note=67 velocity=95 time=0.39999999999999997
EXTRACT: note_off channel=0 note=65 velocity=95 time=0
EXTRACT: note_off channel=0 note=60 velocity=95 time=0
EXTRACT: note_off channel=0 note=53 velocity=95 time=0
EXTRACT: note_off channel=0 note=48 velocity=95 time=0
EXTRACT: note_on channel=0 note=69 velocity=95 time=0
EXTRACT: note_on channel=0 note=65 velocity=95 time=0
EXTRACT: note_on channel=0 note=62 velocity=95 time=0
EXTRACT: note_on channel=0 note=57 velocity=95 time=0
EXTRACT: note_on channel=0 note=50 velocity=95 time=0
EXTRACT: note_on channel=0 note=45 velocity=95 time=0
EXTRACT: note_off channel=6 note=65 velocity=95 time=0
EXTRACT: note_off channel=6 note=60 velocity=95 time=0
EXTRACT: note_off channel=6 note=55 velocity=95 time=0
EXTRACT: note_off channel=6 note=53 velocity=95 time=0
EXTRACT: note_on channel=6 note=57 velocity=95 time=0
EXTRACT: note_on channel=6 note=62 velocity=95 time=0.006666666666666666
EXTRACT: note_on channel=6 note=65 velocity=95 time=0.006666666666666666
EXTRACT: note_on channel=6 note=69 velocity=95 time=0.006666666666666666
EXTRACT: note_off channel=0 note=69 velocity=95 time=0.37999999999999995
EXTRACT: note_off channel=0 note=65 velocity=95 time=0
EXTRACT: note_off channel=0 note=62 velocity=95 time=0
EXTRACT: note_off channel=0 note=57 velocity=95 time=0
EXTRACT: note_off channel=0 note=50 velocity=95 time=0
EXTRACT: note_off channel=0 note=45 velocity=95 time=0
EXTRACT: note_on channel=0 note=69 velocity=95 time=0
EXTRACT: note_on channel=0 note=65 velocity=95 time=0
EXTRACT: note_on channel=0 note=62 velocity=95 time=0
EXTRACT: note_on channel=0 note=57 velocity=95 time=0
EXTRACT: note_on channel=0 note=50 velocity=95 time=0
EXTRACT: note_on channel=0 note=45 velocity=95 time=0
EXTRACT: note_off channel=0 note=69 velocity=95 time=0.39999999999999997
EXTRACT: note_off channel=0 note=65 velocity=95 time=0
EXTRACT: note_off channel=0 note=62 velocity=95 time=0
EXTRACT: note_off channel=0 note=57 velocity=95 time=0
EXTRACT: note_off channel=0 note=50 velocity=95 time=0
EXTRACT: note_off channel=0 note=45 velocity=95 time=0
EXTRACT: note_on channel=0 note=69 velocity=95 time=0
EXTRACT: note_on channel=0 note=65 velocity=95 time=0
EXTRACT: note_on channel=0 note=62 velocity=95 time=0
EXTRACT: note_on channel=0 note=57 velocity=95 time=0
EXTRACT: note_on channel=0 note=50 velocity=95 time=0
EXTRACT: note_on channel=0 note=45 velocity=95 time=0
EXTRACT: note_off channel=0 note=69 velocity=95 time=0.39999999999999997
EXTRACT: note_off channel=0 note=65 velocity=95 time=0
EXTRACT: note_off channel=0 note=62 velocity=95 time=0
EXTRACT: note_off channel=0 note=57 velocity=95 time=0
EXTRACT: note_off channel=0 note=50 velocity=95 time=0
EXTRACT: note_off channel=0 note=45 velocity=95 time=0
EXTRACT: note_on channel=0 note=69 velocity=95 time=0
EXTRACT: note_on channel=0 note=65 velocity=95 time=0
EXTRACT: note_on channel=0 note=62 velocity=95 time=0
EXTRACT: note_on channel=0 note=57 velocity=95 time=0
EXTRACT: note_on channel=0 note=50 velocity=95 time=0
EXTRACT: note_on channel=0 note=45 velocity=95 time=0
EXTRACT: note_off channel=0 note=69 velocity=95 time=0.39999999999999997
EXTRACT: note_off channel=0 note=65 velocity=95 time=0
EXTRACT: note_off channel=0 note=62 velocity=95 time=0
EXTRACT: note_off channel=0 note=57 velocity=95 time=0
EXTRACT: note_off channel=0 note=50 velocity=95 time=0
EXTRACT: note_off channel=0 note=45 velocity=95 time=0
EXTRACT: note_on channel=0 note=69 velocity=95 time=0
EXTRACT: note_on channel=0 note=65 velocity=95 time=0
EXTRACT: note_on channel=0 note=62 velocity=95 time=0
EXTRACT: note_on channel=0 note=57 velocity=95 time=0
EXTRACT: note_on channel=0 note=50 velocity=95 time=0
EXTRACT: note_on channel=0 note=45 velocity=95 time=0
EXTRACT: note_off channel=0 note=69 velocity=95 time=0.39999999999999997
EXTRACT: note_off channel=0 note=65 velocity=95 time=0
EXTRACT: note_off channel=0 note=62 velocity=95 time=0
EXTRACT: note_off channel=0 note=57 velocity=95 time=0
EXTRACT: note_off channel=0 note=50 velocity=95 time=0
EXTRACT: note_off channel=0 note=45 velocity=95 time=0
EXTRACT: note_on channel=0 note=69 velocity=95 time=0
EXTRACT: note_on channel=0 note=65 velocity=95 time=0
EXTRACT: note_on channel=0 note=62 velocity=95 time=0
EXTRACT: note_on channel=0 note=57 velocity=95 time=0
EXTRACT: note_on channel=0 note=50 velocity=95 time=0
EXTRACT: note_on channel=0 note=45 velocity=95 time=0
EXTRACT: note_off channel=0 note=69 velocity=95 time=0.39999999999999997
EXTRACT: note_off channel=0 note=65 velocity=95 time=0
EXTRACT: note_off channel=0 note=62 velocity=95 time=0
EXTRACT: note_off channel=0 note=57 velocity=95 time=0
EXTRACT: note_off channel=0 note=50 velocity=95 time=0
EXTRACT: note_off channel=0 note=45 velocity=95 time=0
EXTRACT: note_on channel=0 note=69 velocity=95 time=0
EXTRACT: note_on channel=0 note=65 velocity=95 time=0
EXTRACT: note_on channel=0 note=62 velocity=95 time=0
EXTRACT: note_on channel=0 note=57 velocity=95 time=0
EXTRACT: note_on channel=0 note=50 velocity=95 time=0
EXTRACT: note_on channel=0 note=45 velocity=95 time=0
EXTRACT: note_off channel=0 note=69 velocity=95 time=0.39999999999999997
EXTRACT: note_off channel=0 note=65 velocity=95 time=0
EXTRACT: note_off channel=0 note=62 velocity=95 time=0
EXTRACT: note_off channel=0 note=57 velocity=95 time=0
EXTRACT: note_off channel=0 note=50 velocity=95 time=0
EXTRACT: note_off channel=0 note=45 velocity=95 time=0
EXTRACT: note_on channel=0 note=69 velocity=95 time=0
EXTRACT: note_on channel=0 note=65 velocity=95 time=0
EXTRACT: note_on channel=0 note=62 velocity=95 time=0
EXTRACT: note_on channel=0 note=57 velocity=95 time=0
EXTRACT: note_on channel=0 note=50 velocity=95 time=0
EXTRACT: note_on channel=0 note=45 velocity=95 time=0
EXTRACT: note_off channel=0 note=69 velocity=95 time=0.39999999999999997
EXTRACT: note_off channel=0 note=65 velocity=95 time=0
EXTRACT: note_off channel=0 note=62 velocity=95 time=0
EXTRACT: note_off channel=0 note=57 velocity=95 time=0
EXTRACT: note_off channel=0 note=50 velocity=95 time=0
EXTRACT: note_off channel=0 note=45 velocity=95 time=0
EXTRACT: note_on channel=0 note=70 velocity=95 time=0
EXTRACT: note_on channel=0 note=65 velocity=95 time=0
EXTRACT: note_on channel=0 note=62 velocity=95 time=0
EXTRACT: note_on channel=0 note=58 velocity=95 time=0
EXTRACT: note_on channel=0 note=53 velocity=95 time=0
EXTRACT: note_on channel=0 note=46 velocity=95 time=0
EXTRACT: note_off channel=6 note=69 velocity=95 time=0
EXTRACT: note_off channel=6 note=65 velocity=95 time=0
EXTRACT: note_off channel=6 note=62 velocity=95 time=0
EXTRACT: note_off channel=6 note=57 velocity=95 time=0
EXTRACT: note_on channel=6 note=58 velocity=95 time=0
EXTRACT: note_on channel=6 note=62 velocity=95 time=0.006666666666666666
EXTRACT: note_on channel=6 note=65 velocity=95 time=0.006666666666666666
EXTRACT: note_on channel=6 note=70 velocity=95 time=0.006666666666666666
EXTRACT: note_off channel=0 note=70 velocity=95 time=0.37999999999999995
EXTRACT: note_off channel=0 note=65 velocity=95 time=0
EXTRACT: note_off channel=0 note=62 velocity=95 time=0
EXTRACT: note_off channel=0 note=58 velocity=95 time=0
EXTRACT: note_off channel=0 note=53 velocity=95 time=0
EXTRACT: note_off channel=0 note=46 velocity=95 time=0
EXTRACT: note_on channel=0 note=70 velocity=95 time=0
EXTRACT: note_on channel=0 note=65 velocity=95 time=0
EXTRACT: note_on channel=0 note=62 velocity=95 time=0
EXTRACT: note_on channel=0 note=58 velocity=95 time=0
EXTRACT: note_on channel=0 note=53 velocity=95 time=0
EXTRACT: note_on channel=0 note=46 velocity=95 time=0
EXTRACT: note_off channel=0 note=70 velocity=95 time=0.39999999999999997
EXTRACT: note_off channel=0 note=65 velocity=95 time=0
EXTRACT: note_off channel=0 note=62 velocity=95 time=0
EXTRACT: note_off channel=0 note=58 velocity=95 time=0
EXTRACT: note_off channel=0 note=53 velocity=95 time=0
EXTRACT: note_off channel=0 note=46 velocity=95 time=0
EXTRACT: note_on channel=0 note=70 velocity=95 time=0
EXTRACT: note_on channel=0 note=65 velocity=95 time=0
EXTRACT: note_on channel=0 note=62 velocity=95 time=0
EXTRACT: note_on channel=0 note=58 velocity=95 time=0
EXTRACT: note_on channel=0 note=53 velocity=95 time=0
EXTRACT: note_on channel=0 note=46 velocity=95 time=0
EXTRACT: note_off channel=0 note=70 velocity=95 time=0.39999999999999997
EXTRACT: note_off channel=0 note=65 velocity=95 time=0
EXTRACT: note_off channel=0 note=62 velocity=95 time=0
EXTRACT: note_off channel=0 note=58 velocity=95 time=0
EXTRACT: note_off channel=0 note=53 velocity=95 time=0
EXTRACT: note_off channel=0 note=46 velocity=95 time=0
EXTRACT: note_on channel=0 note=70 velocity=95 time=0
EXTRACT: note_on channel=0 note=65 velocity=95 time=0
EXTRACT: note_on channel=0 note=62 velocity=95 time=0
EXTRACT: note_on channel=0 note=58 velocity=95 time=0
EXTRACT: note_on channel=0 note=53 velocity=95 time=0
EXTRACT: note_on channel=0 note=46 velocity=95 time=0
EXTRACT: note_off channel=0 note=70 velocity=95 time=0.39999999999999997
EXTRACT: note_off channel=0 note=65 velocity=95 time=0
EXTRACT: note_off channel=0 note=62 velocity=95 time=0
EXTRACT: note_off channel=0 note=58 velocity=95 time=0
EXTRACT: note_off channel=0 note=53 velocity=95 time=0
EXTRACT: note_off channel=0 note=46 velocity=95 time=0
EXTRACT: note_on channel=0 note=70 velocity=95 time=0
EXTRACT: note_on channel=0 note=65 velocity=95 time=0
EXTRACT: note_on channel=0 note=62 velocity=95 time=0
EXTRACT: note_on channel=0 note=58 velocity=95 time=0
EXTRACT: note_on channel=0 note=53 velocity=95 time=0
EXTRACT: note_on channel=0 note=46 velocity=95 time=0
EXTRACT: note_off channel=6 note=70 velocity=95 time=0
EXTRACT: note_off channel=6 note=65 velocity=95 time=0
EXTRACT: note_off channel=6 note=62 velocity=95 time=0
EXTRACT: note_off channel=6 note=58 velocity=95 time=0
EXTRACT: note_off channel=0 note=70 velocity=95 time=0.39999999999999997
EXTRACT: note_off channel=0 note=65 velocity=95 time=0
EXTRACT: note_off channel=0 note=62 velocity=95 time=0
EXTRACT: note_off channel=0 note=58 velocity=95 time=0
EXTRACT: note_off channel=0 note=53 velocity=95 time=0
EXTRACT: note_off channel=0 note=46 velocity=95 time=0
EXTRACT: note_on channel=0 note=70 velocity=95 time=0
EXTRACT: note_on channel=0 note=65 velocity=95 time=0
EXTRACT: note_on channel=0 note=62 velocity=95 time=0
EXTRACT: note_on channel=0 note=58 velocity=95 time=0
EXTRACT: note_on channel=0 note=53 velocity=95 time=0
EXTRACT: note_on channel=0 note=46 velocity=95 time=0
EXTRACT: note_off channel=0 note=70 velocity=95 time=0.39999999999999997
EXTRACT: note_off channel=0 note=65 velocity=95 time=0
EXTRACT: note_off channel=0 note=62 velocity=95 time=0
EXTRACT: note_off channel=0 note=58 velocity=95 time=0
EXTRACT: note_off channel=0 note=53 velocity=95 time=0
EXTRACT: note_off channel=0 note=46 velocity=95 time=0
EXTRACT: note_on channel=0 note=70 velocity=95 time=0
EXTRACT: note_on channel=0 note=65 velocity=95 time=0
EXTRACT: note_on channel=0 note=62 velocity=95 time=0
EXTRACT: note_on channel=0 note=58 velocity=95 time=0
EXTRACT: note_on channel=0 note=53 velocity=95 time=0
EXTRACT: note_on channel=0 note=46 velocity=95 time=0
EXTRACT: note_on channel=6 note=70 velocity=95 time=0
EXTRACT: note_off channel=0 note=70 velocity=95 time=0.39999999999999997
EXTRACT: note_off channel=0 note=65 velocity=95 time=0
EXTRACT: note_off channel=0 note=62 velocity=95 time=0
EXTRACT: note_off channel=0 note=58 velocity=95 time=0
EXTRACT: note_off channel=0 note=53 velocity=95 time=0
EXTRACT: note_off channel=0 note=46 velocity=95 time=0
EXTRACT: note_on channel=0 note=70 velocity=95 time=0
EXTRACT: note_on channel=0 note=65 velocity=95 time=0
EXTRACT: note_on channel=0 note=62 velocity=95 time=0
EXTRACT: note_on channel=0 note=58 velocity=95 time=0
EXTRACT: note_on channel=0 note=53 velocity=95 time=0
EXTRACT: note_on channel=0 note=46 velocity=95 time=0
EXTRACT: note_off channel=6 note=70 velocity=95 time=0
EXTRACT: note_on channel=6 note=72 velocity=95 time=0
EXTRACT: note_off channel=0 note=70 velocity=95 time=0.39999999999999997
EXTRACT: note_off channel=0 note=65 velocity=95 time=0
EXTRACT: note_off channel=0 note=62 velocity=95 time=0
EXTRACT: note_off channel=0 note=58 velocity=95 time=0
EXTRACT: note_off channel=0 note=53 velocity=95 time=0
EXTRACT: note_off channel=0 note=46 velocity=95 time=0
EXTRACT: note_on channel=0 note=69 velocity=95 time=0
EXTRACT: note_on channel=0 note=65 velocity=95 time=0
EXTRACT: note_on channel=0 note=60 velocity=95 time=0
EXTRACT: note_on channel=0 note=53 velocity=95 time=0
EXTRACT: note_on channel=0 note=48 velocity=95 time=0
EXTRACT: note_off channel=6 note=72 velocity=95 time=0
EXTRACT: note_on channel=6 note=53 velocity=95 time=0
EXTRACT: note_on channel=6 note=57 velocity=95 time=0.006666666666666666
EXTRACT: note_on channel=6 note=60 velocity=95 time=0.006666666666666666
EXTRACT: note_on channel=6 note=65 velocity=95 time=0.006666666666666666
EXTRACT: note_off channel=0 note=69 velocity=95 time=0.37999999999999995
EXTRACT: note_off channel=0 note=65 velocity=95 time=0
EXTRACT: note_off channel=0 note=60 velocity=95 time=0
EXTRACT: note_off channel=0 note=53 velocity=95 time=0
EXTRACT: note_off channel=0 note=48 velocity=95 time=0
EXTRACT: note_on channel=0 note=69 velocity=95 time=0
EXTRACT: note_on channel=0 note=65 velocity=95 time=0
EXTRACT: note_on channel=0 note=60 velocity=95 time=0
EXTRACT: note_on channel=0 note=53 velocity=95 time=0
EXTRACT: note_on channel=0 note=48 velocity=95 time=0
EXTRACT: note_off channel=0 note=69 velocity=95 time=0.39999999999999997
EXTRACT: note_off channel=0 note=65 velocity=95 time=0
EXTRACT: note_off channel=0 note=60 velocity=95 time=0
EXTRACT: note_off channel=0 note=53 velocity=95 time=0
EXTRACT: note_off channel=0 note=48 velocity=95 time=0
EXTRACT: note_on channel=0 note=69 velocity=95 time=0
EXTRACT: note_on channel=0 note=65 velocity=95 time=0
EXTRACT: note_on channel=0 note=60 velocity=95 time=0
EXTRACT: note_on channel=0 note=53 velocity=95 time=0
EXTRACT: note_on channel=0 note=48 velocity=95 time=0
EXTRACT: note_off channel=0 note=69 velocity=95 time=0.39999999999999997
EXTRACT: note_off channel=0 note=65 velocity=95 time=0
EXTRACT: note_off channel=0 note=60 velocity=95 time=0
EXTRACT: note_off channel=0 note=53 velocity=95 time=0
EXTRACT: note_off channel=0 note=48 velocity=95 time=0
EXTRACT: note_on channel=0 note=69 velocity=95 time=0
EXTRACT: note_on channel=0 note=65 velocity=95 time=0
EXTRACT: note_on channel=0 note=60 velocity=95 time=0
EXTRACT: note_on channel=0 note=53 velocity=95 time=0
EXTRACT: note_on channel=0 note=48 velocity=95 time=0
EXTRACT: note_off channel=0 note=69 velocity=95 time=0.39999999999999997
EXTRACT: note_off channel=0 note=65 velocity=95 time=0
EXTRACT: note_off channel=0 note=60 velocity=95 time=0
EXTRACT: note_off channel=0 note=53 velocity=95 time=0
EXTRACT: note_off channel=0 note=48 velocity=95 time=0
EXTRACT: note_on channel=0 note=69 velocity=95 time=0
EXTRACT: note_on channel=0 note=65 velocity=95 time=0
EXTRACT: note_on channel=0 note=60 velocity=95 time=0
EXTRACT: note_on channel=0 note=53 velocity=95 time=0
EXTRACT: note_on channel=0 note=48 velocity=95 time=0
EXTRACT: note_off channel=0 note=69 velocity=95 time=0.39999999999999997
EXTRACT: note_off channel=0 note=65 velocity=95 time=0
EXTRACT: note_off channel=0 note=60 velocity=95 time=0
EXTRACT: note_off channel=0 note=53 velocity=95 time=0
EXTRACT: note_off channel=0 note=48 velocity=95 time=0
EXTRACT: note_on channel=0 note=69 velocity=95 time=0
EXTRACT: note_on channel=0 note=65 velocity=95 time=0
EXTRACT: note_on channel=0 note=60 velocity=95 time=0
EXTRACT: note_on channel=0 note=53 velocity=95 time=0
EXTRACT: note_on channel=0 note=48 velocity=95 time=0
EXTRACT: note_off channel=0 note=69 velocity=95 time=0.39999999999999997
EXTRACT: note_off channel=0 note=65 velocity=95 time=0
EXTRACT: note_off channel=0 note=60 velocity=95 time=0
EXTRACT: note_off channel=0 note=53 velocity=95 time=0
EXTRACT: note_off channel=0 note=48 velocity=95 time=0
EXTRACT: note_on channel=0 note=69 velocity=95 time=0
EXTRACT: note_on channel=0 note=65 velocity=95 time=0
EXTRACT: note_on channel=0 note=60 velocity=95 time=0
EXTRACT: note_on channel=0 note=53 velocity=95 time=0
EXTRACT: note_on channel=0 note=48 velocity=95 time=0
EXTRACT: note_off channel=0 note=69 velocity=95 time=0.39999999999999997
EXTRACT: note_off channel=0 note=65 velocity=95 time=0
EXTRACT: note_off channel=0 note=60 velocity=95 time=0
EXTRACT: note_off channel=0 note=53 velocity=95 time=0
EXTRACT: note_off channel=0 note=48 velocity=95 time=0
EXTRACT: note_on channel=0 note=69 velocity=95 time=0
EXTRACT: note_on channel=0 note=65 velocity=95 time=0
EXTRACT: note_on channel=0 note=60 velocity=95 time=0
EXTRACT: note_on channel=0 note=53 velocity=95 time=0
EXTRACT: note_on channel=0 note=48 velocity=95 time=0
EXTRACT: note_off channel=0 note=69 velocity=95 time=0.39999999999999997
EXTRACT: note_off channel=0 note=65 velocity=95 time=0
EXTRACT: note_off channel=0 note=60 velocity=95 time=0
EXTRACT: note_off channel=0 note=53 velocity=95 time=0
EXTRACT: note_off channel=0 note=48 velocity=95 time=0
EXTRACT: note_on channel=0 note=67 velocity=95 time=0
EXTRACT: note_on channel=0 note=65 velocity=95 time=0
EXTRACT: note_on channel=0 note=60 velocity=95 time=0
EXTRACT: note_on channel=0 note=53 velocity=95 time=0
EXTRACT: note_on channel=0 note=48 velocity=95 time=0
EXTRACT: note_off channel=6 note=65 velocity=95 time=0
EXTRACT: note_off channel=6 note=60 velocity=95 time=0
EXTRACT: note_off channel=6 note=57 velocity=95 time=0
EXTRACT: note_off channel=6 note=53 velocity=95 time=0
EXTRACT: note_on channel=6 note=53 velocity=95 time=0
EXTRACT: note_on channel=6 note=55 velocity=95 time=0.006666666666666666
EXTRACT: note_on channel=6 note=60 velocity=95 time=0.006666666666666666
EXTRACT: note_on channel=6 note=65 velocity=95 time=0.006666666666666666
EXTRACT: note_off channel=0 note=67 velocity=95 time=0.37999999999999995
EXTRACT: note_off channel=0 note=65 velocity=95 time=0
EXTRACT: note_off channel=0 note=60 velocity=95 time=0
EXTRACT: note_off channel=0 note=53 velocity=95 time=0
EXTRACT: note_off channel=0 note=48 velocity=95 time=0
EXTRACT: note_on channel=0 note=67 velocity=95 time=0
EXTRACT: note_on channel=0 note=65 velocity=95 time=0
EXTRACT: note_on channel=0 note=60 velocity=95 time=0
EXTRACT: note_on channel=0 note=53 velocity=95 time=0
EXTRACT: note_on channel=0 note=48 velocity=95 time=0
EXTRACT: note_off channel=0 note=67 velocity=95 time=0.39999999999999997
EXTRACT: note_off channel=0 note=65 velocity=95 time=0
EXTRACT: note_off channel=0 note=60 velocity=95 time=0
EXTRACT: note_off channel=0 note=53 velocity=95 time=0
EXTRACT: note_off channel=0 note=48 velocity=95 time=0
EXTRACT: note_on channel=0 note=67 velocity=95 time=0
EXTRACT: note_on channel=0 note=65 velocity=95 time=0
EXTRACT: note_on channel=0 note=60 velocity=95 time=0
EXTRACT: note_on channel=0 note=53 velocity=95 time=0
EXTRACT: note_on channel=0 note=48 velocity=95 time=0
EXTRACT: note_off channel=0 note=67 velocity=95 time=0.39999999999999997
EXTRACT: note_off channel=0 note=65 velocity=95 time=0
EXTRACT: note_off channel=0 note=60 velocity=95 time=0
EXTRACT: note_off channel=0 note=53 velocity=95 time=0
EXTRACT: note_off channel=0 note=48 velocity=95 time=0
EXTRACT: note_on channel=0 note=67 velocity=95 time=0
EXTRACT: note_on channel=0 note=65 velocity=95 time=0
EXTRACT: note_on channel=0 note=60 velocity=95 time=0
EXTRACT: note_on channel=0 note=53 velocity=95 time=0
EXTRACT: note_on channel=0 note=48 velocity=95 time=0
EXTRACT: note_off channel=0 note=67 velocity=95 time=0.39999999999999997
EXTRACT: note_off channel=0 note=65 velocity=95 time=0
EXTRACT: note_off channel=0 note=60 velocity=95 time=0
EXTRACT: note_off channel=0 note=53 velocity=95 time=0
EXTRACT: note_off channel=0 note=48 velocity=95 time=0
EXTRACT: note_on channel=0 note=67 velocity=95 time=0
EXTRACT: note_on channel=0 note=65 velocity=95 time=0
EXTRACT: note_on channel=0 note=60 velocity=95 time=0
EXTRACT: note_on channel=0 note=53 velocity=95 time=0
EXTRACT: note_on channel=0 note=48 velocity=95 time=0
EXTRACT: note_off channel=0 note=67 velocity=95 time=0.39999999999999997
EXTRACT: note_off channel=0 note=65 velocity=95 time=0
EXTRACT: note_off channel=0 note=60 velocity=95 time=0
EXTRACT: note_off channel=0 note=53 velocity=95 time=0
EXTRACT: note_off channel=0 note=48 velocity=95 time=0
EXTRACT: note_on channel=0 note=67 velocity=95 time=0
EXTRACT: note_on channel=0 note=65 velocity=95 time=0
EXTRACT: note_on channel=0 note=60 velocity=95 time=0
EXTRACT: note_on channel=0 note=53 velocity=95 time=0
EXTRACT: note_on channel=0 note=48 velocity=95 time=0
EXTRACT: note_off channel=0 note=67 velocity=95 time=0.39999999999999997
EXTRACT: note_off channel=0 note=65 velocity=95 time=0
EXTRACT: note_off channel=0 note=60 velocity=95 time=0
EXTRACT: note_off channel=0 note=53 velocity=95 time=0
EXTRACT: note_off channel=0 note=48 velocity=95 time=0
EXTRACT: note_on channel=0 note=67 velocity=95 time=0
EXTRACT: note_on channel=0 note=65 velocity=95 time=0
EXTRACT: note_on channel=0 note=60 velocity=95 time=0
EXTRACT: note_on channel=0 note=53 velocity=95 time=0
EXTRACT: note_on channel=0 note=48 velocity=95 time=0
EXTRACT: note_off channel=0 note=67 velocity=95 time=0.39999999999999997
EXTRACT: note_off channel=0 note=65 velocity=95 time=0
EXTRACT: note_off channel=0 note=60 velocity=95 time=0
EXTRACT: note_off channel=0 note=53 velocity=95 time=0
EXTRACT: note_off channel=0 note=48 velocity=95 time=0
EXTRACT: note_on channel=0 note=67 velocity=95 time=0
EXTRACT: note_on channel=0 note=65 velocity=95 time=0
EXTRACT: note_on channel=0 note=60 velocity=95 time=0
EXTRACT: note_on channel=0 note=53 velocity=95 time=0
EXTRACT: note_on channel=0 note=48 velocity=95 time=0
EXTRACT: note_off channel=0 note=67 velocity=95 time=0.39999999999999997
EXTRACT: note_off channel=0 note=65 velocity=95 time=0
EXTRACT: note_off channel=0 note=60 velocity=95 time=0
EXTRACT: note_off channel=0 note=53 velocity=95 time=0
EXTRACT: note_off channel=0 note=48 velocity=95 time=0
EXTRACT: note_on channel=0 note=69 velocity=95 time=0
EXTRACT: note_on channel=0 note=65 velocity=95 time=0
EXTRACT: note_on channel=0 note=62 velocity=95 time=0
EXTRACT: note_on channel=0 note=57 velocity=95 time=0
EXTRACT: note_on channel=0 note=50 velocity=95 time=0
EXTRACT: note_on channel=0 note=45 velocity=95 time=0
EXTRACT: note_off channel=6 note=65 velocity=95 time=0
EXTRACT: note_off channel=6 note=60 velocity=95 time=0
EXTRACT: note_off channel=6 note=55 velocity=95 time=0
EXTRACT: note_off channel=6 note=53 velocity=95 time=0
EXTRACT: note_on channel=6 note=57 velocity=95 time=0
EXTRACT: note_on channel=6 note=62 velocity=95 time=0.006666666666666666
EXTRACT: note_on channel=6 note=65 velocity=95 time=0.006666666666666666
EXTRACT: note_on channel=6 note=69 velocity=95 time=0.006666666666666666
EXTRACT: note_off channel=0 note=69 velocity=95 time=0.37999999999999995
EXTRACT: note_off channel=0 note=65 velocity=95 time=0
EXTRACT: note_off channel=0 note=62 velocity=95 time=0
EXTRACT: note_off channel=0 note=57 velocity=95 time=0
EXTRACT: note_off channel=0 note=50 velocity=95 time=0
EXTRACT: note_off channel=0 note=45 velocity=95 time=0
EXTRACT: note_on channel=0 note=69 velocity=95 time=0
EXTRACT: note_on channel=0 note=65 velocity=95 time=0
EXTRACT: note_on channel=0 note=62 velocity=95 time=0
EXTRACT: note_on channel=0 note=57 velocity=95 time=0
EXTRACT: note_on channel=0 note=50 velocity=95 time=0
EXTRACT: note_on channel=0 note=45 velocity=95 time=0
EXTRACT: note_off channel=0 note=69 velocity=95 time=0.39999999999999997
EXTRACT: note_off channel=0 note=65 velocity=95 time=0
EXTRACT: note_off channel=0 note=62 velocity=95 time=0
EXTRACT: note_off channel=0 note=57 velocity=95 time=0
EXTRACT: note_off channel=0 note=50 velocity=95 time=0
EXTRACT: note_off channel=0 note=45 velocity=95 time=0
EXTRACT: note_on channel=0 note=69 velocity=95 time=0
EXTRACT: note_on channel=0 note=65 velocity=95 time=0
EXTRACT: note_on channel=0 note=62 velocity=95 time=0
EXTRACT: note_on channel=0 note=57 velocity=95 time=0
EXTRACT: note_on channel=0 note=50 velocity=95 time=0
EXTRACT: note_on channel=0 note=45 velocity=95 time=0
EXTRACT: note_off channel=0 note=69 velocity=95 time=0.39999999999999997
EXTRACT: note_off channel=0 note=65 velocity=95 time=0
EXTRACT: note_off channel=0 note=62 velocity=95 time=0
EXTRACT: note_off channel=0 note=57 velocity=95 time=0
EXTRACT: note_off channel=0 note=50 velocity=95 time=0
EXTRACT: note_off channel=0 note=45 velocity=95 time=0
EXTRACT: note_on channel=0 note=69 velocity=95 time=0
EXTRACT: note_on channel=0 note=65 velocity=95 time=0
EXTRACT: note_on channel=0 note=62 velocity=95 time=0
EXTRACT: note_on channel=0 note=57 velocity=95 time=0
EXTRACT: note_on channel=0 note=50 velocity=95 time=0
EXTRACT: note_on channel=0 note=45 velocity=95 time=0
EXTRACT: note_off channel=0 note=69 velocity=95 time=0.39999999999999997
EXTRACT: note_off channel=0 note=65 velocity=95 time=0
EXTRACT: note_off channel=0 note=62 velocity=95 time=0
EXTRACT: note_off channel=0 note=57 velocity=95 time=0
EXTRACT: note_off channel=0 note=50 velocity=95 time=0
EXTRACT: note_off channel=0 note=45 velocity=95 time=0
EXTRACT: note_on channel=0 note=69 velocity=95 time=0
EXTRACT: note_on channel=0 note=65 velocity=95 time=0
EXTRACT: note_on channel=0 note=62 velocity=95 time=0
EXTRACT: note_on channel=0 note=57 velocity=95 time=0
EXTRACT: note_on channel=0 note=50 velocity=95 time=0
EXTRACT: note_on channel=0 note=45 velocity=95 time=0
EXTRACT: note_on channel=11 note=53 velocity=95 time=0
EXTRACT: note_off channel=0 note=69 velocity=95 time=0.39999999999999997
EXTRACT: note_off channel=0 note=65 velocity=95 time=0
EXTRACT: note_off channel=0 note=62 velocity=95 time=0
EXTRACT: note_off channel=0 note=57 velocity=95 time=0
EXTRACT: note_off channel=0 note=50 velocity=95 time=0
EXTRACT: note_off channel=0 note=45 velocity=95 time=0
EXTRACT: note_on channel=0 note=69 velocity=95 time=0
EXTRACT: note_on channel=0 note=65 velocity=95 time=0
EXTRACT: note_on channel=0 note=62 velocity=95 time=0
EXTRACT: note_on channel=0 note=57 velocity=95 time=0
EXTRACT: note_on channel=0 note=50 velocity=95 time=0
EXTRACT: note_on channel=0 note=45 velocity=95 time=0
EXTRACT: note_off channel=11 note=53 velocity=95 time=0
EXTRACT: note_on channel=11 note=55 velocity=95 time=0
EXTRACT: note_off channel=0 note=69 velocity=95 time=0.39999999999999997
EXTRACT: note_off channel=0 note=65 velocity=95 time=0
EXTRACT: note_off channel=0 note=62 velocity=95 time=0
EXTRACT: note_off channel=0 note=57 velocity=95 time=0
EXTRACT: note_off channel=0 note=50 velocity=95 time=0
EXTRACT: note_off channel=0 note=45 velocity=95 time=0
EXTRACT: note_on channel=0 note=69 velocity=95 time=0
EXTRACT: note_on channel=0 note=65 velocity=95 time=0
EXTRACT: note_on channel=0 note=62 velocity=95 time=0
EXTRACT: note_on channel=0 note=57 velocity=95 time=0
EXTRACT: note_on channel=0 note=50 velocity=95 time=0
EXTRACT: note_on channel=0 note=45 velocity=95 time=0
EXTRACT: note_off channel=11 note=55 velocity=95 time=0
EXTRACT: note_on channel=11 note=53 velocity=95 time=0
EXTRACT: note_off channel=0 note=69 velocity=95 time=0.39999999999999997
EXTRACT: note_off channel=0 note=65 velocity=95 time=0
EXTRACT: note_off channel=0 note=62 velocity=95 time=0
EXTRACT: note_off channel=0 note=57 velocity=95 time=0
EXTRACT: note_off channel=0 note=50 velocity=95 time=0
EXTRACT: note_off channel=0 note=45 velocity=95 time=0
EXTRACT: note_on channel=0 note=69 velocity=95 time=0
EXTRACT: note_on channel=0 note=65 velocity=95 time=0
EXTRACT: note_on channel=0 note=62 velocity=95 time=0
EXTRACT: note_on channel=0 note=57 velocity=95 time=0
EXTRACT: note_on channel=0 note=50 velocity=95 time=0
EXTRACT: note_on channel=0 note=45 velocity=95 time=0
EXTRACT: note_off channel=11 note=53 velocity=95 time=0
EXTRACT: note_on channel=11 note=60 velocity=95 time=0
EXTRACT: note_off channel=0 note=69 velocity=95 time=0.39999999999999997
EXTRACT: note_off channel=0 note=65 velocity=95 time=0
EXTRACT: note_off channel=0 note=62 velocity=95 time=0
EXTRACT: note_off channel=0 note=57 velocity=95 time=0
EXTRACT: note_off channel=0 note=50 velocity=95 time=0
EXTRACT: note_off channel=0 note=45 velocity=95 time=0
EXTRACT: note_on channel=0 note=70 velocity=95 time=0
EXTRACT: note_on channel=0 note=65 velocity=95 time=0
EXTRACT: note_on channel=0 note=62 velocity=95 time=0
EXTRACT: note_on channel=0 note=58 velocity=95 time=0
EXTRACT: note_on channel=0 note=53 velocity=95 time=0
EXTRACT: note_on channel=0 note=46 velocity=95 time=0
EXTRACT: note_off channel=6 note=69 velocity=95 time=0
EXTRACT: note_off channel=6 note=65 velocity=95 time=0
EXTRACT: note_off channel=6 note=62 velocity=95 time=0
EXTRACT: note_off channel=6 note=57 velocity=95 time=0
EXTRACT: note_on channel=6 note=58 velocity=95 time=0
EXTRACT: note_on channel=6 note=62 velocity=95 time=0.006666666666666666
EXTRACT: note_on channel=6 note=65 velocity=95 time=0.006666666666666666
EXTRACT: note_on channel=6 note=70 velocity=95 time=0.006666666666666666
EXTRACT: note_off channel=0 note=70 velocity=95 time=0.37999999999999995
EXTRACT: note_off channel=0 note=65 velocity=95 time=0
EXTRACT: note_off channel=0 note=62 velocity=95 time=0
EXTRACT: note_off channel=0 note=58 velocity=95 time=0
EXTRACT: note_off channel=0 note=53 velocity=95 time=0
EXTRACT: note_off channel=0 note=46 velocity=95 time=0
EXTRACT: note_on channel=0 note=70 velocity=95 time=0
EXTRACT: note_on channel=0 note=65 velocity=95 time=0
EXTRACT: note_on channel=0 note=62 velocity=95 time=0
EXTRACT: note_on channel=0 note=58 velocity=95 time=0
EXTRACT: note_on channel=0 note=53 velocity=95 time=0
EXTRACT: note_on channel=0 note=46 velocity=95 time=0
EXTRACT: note_off channel=11 note=60 velocity=95 time=0
EXTRACT: note_on channel=11 note=57 velocity=95 time=0
EXTRACT: note_off channel=0 note=70 velocity=95 time=0.39999999999999997
EXTRACT: note_off channel=0 note=65 velocity=95 time=0
EXTRACT: note_off channel=0 note=62 velocity=95 time=0
EXTRACT: note_off channel=0 note=58 velocity=95 time=0
EXTRACT: note_off channel=0 note=53 velocity=95 time=0
EXTRACT: note_off channel=0 note=46 velocity=95 time=0
EXTRACT: note_on channel=0 note=70 velocity=95 time=0
EXTRACT: note_on channel=0 note=65 velocity=95 time=0
EXTRACT: note_on channel=0 note=62 velocity=95 time=0
EXTRACT: note_on channel=0 note=58 velocity=95 time=0
EXTRACT: note_on channel=0 note=53 velocity=95 time=0
EXTRACT: note_on channel=0 note=46 velocity=95 time=0
EXTRACT: note_off channel=0 note=70 velocity=95 time=0.39999999999999997
EXTRACT: note_off channel=0 note=65 velocity=95 time=0
EXTRACT: note_off channel=0 note=62 velocity=95 time=0
EXTRACT: note_off channel=0 note=58 velocity=95 time=0
EXTRACT: note_off channel=0 note=53 velocity=95 time=0
EXTRACT: note_off channel=0 note=46 velocity=95 time=0
EXTRACT: note_on channel=0 note=70 velocity=95 time=0
EXTRACT: note_on channel=0 note=65 velocity=95 time=0
EXTRACT: note_on channel=0 note=62 velocity=95 time=0
EXTRACT: note_on channel=0 note=58 velocity=95 time=0
EXTRACT: note_on channel=0 note=53 velocity=95 time=0
EXTRACT: note_on channel=0 note=46 velocity=95 time=0
EXTRACT: note_off channel=0 note=70 velocity=95 time=0.39999999999999997
EXTRACT: note_off channel=0 note=65 velocity=95 time=0
EXTRACT: note_off channel=0 note=62 velocity=95 time=0
EXTRACT: note_off channel=0 note=58 velocity=95 time=0
EXTRACT: note_off channel=0 note=53 velocity=95 time=0
EXTRACT: note_off channel=0 note=46 velocity=95 time=0
EXTRACT: note_on channel=0 note=70 velocity=95 time=0
EXTRACT: note_on channel=0 note=65 velocity=95 time=0
EXTRACT: note_on channel=0 note=62 velocity=95 time=0
EXTRACT: note_on channel=0 note=58 velocity=95 time=0
EXTRACT: note_on channel=0 note=53 velocity=95 time=0
EXTRACT: note_on channel=0 note=46 velocity=95 time=0
EXTRACT: note_off channel=6 note=70 velocity=95 time=0
EXTRACT: note_off channel=6 note=65 velocity=95 time=0
EXTRACT: note_off channel=6 note=62 velocity=95 time=0
EXTRACT: note_off channel=6 note=58 velocity=95 time=0
EXTRACT: note_off channel=11 note=57 velocity=95 time=0
EXTRACT: note_on channel=11 note=53 velocity=95 time=0
EXTRACT: note_off channel=0 note=70 velocity=95 time=0.39999999999999997
EXTRACT: note_off channel=0 note=65 velocity=95 time=0
EXTRACT: note_off channel=0 note=62 velocity=95 time=0
EXTRACT: note_off channel=0 note=58 velocity=95 time=0
EXTRACT: note_off channel=0 note=53 velocity=95 time=0
EXTRACT: note_off channel=0 note=46 velocity=95 time=0
EXTRACT: note_on channel=0 note=70 velocity=95 time=0
EXTRACT: note_on channel=0 note=65 velocity=95 time=0
EXTRACT: note_on channel=0 note=62 velocity=95 time=0
EXTRACT: note_on channel=0 note=58 velocity=95 time=0
EXTRACT: note_on channel=0 note=53 velocity=95 time=0
EXTRACT: note_on channel=0 note=46 velocity=95 time=0
EXTRACT: note_off channel=11 note=53 velocity=95 time=0
EXTRACT: note_on channel=11 note=55 velocity=95 time=0
EXTRACT: note_off channel=0 note=70 velocity=95 time=0.39999999999999997
EXTRACT: note_off channel=0 note=65 velocity=95 time=0
EXTRACT: note_off channel=0 note=62 velocity=95 time=0
EXTRACT: note_off channel=0 note=58 velocity=95 time=0
EXTRACT: note_off channel=0 note=53 velocity=95 time=0
EXTRACT: note_off channel=0 note=46 velocity=95 time=0
EXTRACT: note_on channel=0 note=70 velocity=95 time=0
EXTRACT: note_on channel=0 note=65 velocity=95 time=0
EXTRACT: note_on channel=0 note=62 velocity=95 time=0
EXTRACT: note_on channel=0 note=58 velocity=95 time=0
EXTRACT: note_on channel=0 note=53 velocity=95 time=0
EXTRACT: note_on channel=0 note=46 velocity=95 time=0
EXTRACT: note_on channel=6 note=70 velocity=95 time=0
EXTRACT: note_off channel=11 note=55 velocity=95 time=0
EXTRACT: note_on channel=11 note=53 velocity=95 time=0
EXTRACT: note_off channel=0 note=70 velocity=95 time=0.39999999999999997
EXTRACT: note_off channel=0 note=65 velocity=95 time=0
EXTRACT: note_off channel=0 note=62 velocity=95 time=0
EXTRACT: note_off channel=0 note=58 velocity=95 time=0
EXTRACT: note_off channel=0 note=53 velocity=95 time=0
EXTRACT: note_off channel=0 note=46 velocity=95 time=0
EXTRACT: note_on channel=0 note=70 velocity=95 time=0
EXTRACT: note_on channel=0 note=65 velocity=95 time=0
EXTRACT: note_on channel=0 note=62 velocity=95 time=0
EXTRACT: note_on channel=0 note=58 velocity=95 time=0
EXTRACT: note_on channel=0 note=53 velocity=95 time=0
EXTRACT: note_on channel=0 note=46 velocity=95 time=0
EXTRACT: note_off channel=6 note=70 velocity=95 time=0
EXTRACT: note_on channel=6 note=72 velocity=95 time=0
EXTRACT: note_off channel=11 note=53 velocity=95 time=0
EXTRACT: note_on channel=11 note=60 velocity=95 time=0
EXTRACT: note_off channel=0 note=70 velocity=95 time=0.39999999999999997
EXTRACT: note_off channel=0 note=65 velocity=95 time=0
EXTRACT: note_off channel=0 note=62 velocity=95 time=0
EXTRACT: note_off channel=0 note=58 velocity=95 time=0
EXTRACT: note_off channel=0 note=53 velocity=95 time=0
EXTRACT: note_off channel=0 note=46 velocity=95 time=0
EXTRACT: note_on channel=0 note=69 velocity=95 time=0
EXTRACT: note_on channel=0 note=65 velocity=95 time=0
EXTRACT: note_on channel=0 note=60 velocity=95 time=0
EXTRACT: note_on channel=0 note=53 velocity=95 time=0
EXTRACT: note_on channel=0 note=48 velocity=95 time=0
EXTRACT: note_off channel=6 note=72 velocity=95 time=0
EXTRACT: note_on channel=6 note=53 velocity=95 time=0
EXTRACT: note_on channel=6 note=57 velocity=95 time=0.006666666666666666
EXTRACT: note_on channel=6 note=60 velocity=95 time=0.006666666666666666
EXTRACT: note_on channel=6 note=65 velocity=95 time=0.006666666666666666
EXTRACT: note_off channel=0 note=69 velocity=95 time=0.37999999999999995
EXTRACT: note_off channel=0 note=65 velocity=95 time=0
EXTRACT: note_off channel=0 note=60 velocity=95 time=0
EXTRACT: note_off channel=0 note=53 velocity=95 time=0
EXTRACT: note_off channel=0 note=48 velocity=95 time=0
EXTRACT: note_on channel=0 note=69 velocity=95 time=0
EXTRACT: note_on channel=0 note=65 velocity=95 time=0
EXTRACT: note_on channel=0 note=60 velocity=95 time=0
EXTRACT: note_on channel=0 note=53 velocity=95 time=0
EXTRACT: note_on channel=0 note=48 velocity=95 time=0
EXTRACT: note_off channel=11 note=60 velocity=95 time=0
EXTRACT: note_on channel=11 note=57 velocity=95 time=0
EXTRACT: note_off channel=0 note=69 velocity=95 time=0.39999999999999997
EXTRACT: note_off channel=0 note=65 velocity=95 time=0
EXTRACT: note_off channel=0 note=60 velocity=95 time=0
EXTRACT: note_off channel=0 note=53 velocity=95 time=0
EXTRACT: note_off channel=0 note=48 velocity=95 time=0
EXTRACT: note_on channel=0 note=69 velocity=95 time=0
EXTRACT: note_on channel=0 note=65 velocity=95 time=0
EXTRACT: note_on channel=0 note=60 velocity=95 time=0
EXTRACT: note_on channel=0 note=53 velocity=95 time=0
EXTRACT: note_on channel=0 note=48 velocity=95 time=0
EXTRACT: note_off channel=11 note=57 velocity=95 time=0
EXTRACT: note_off channel=0 note=69 velocity=95 time=0.39999999999999997
EXTRACT: note_off channel=0 note=65 velocity=95 time=0
EXTRACT: note_off channel=0 note=60 velocity=95 time=0
EXTRACT: note_off channel=0 note=53 velocity=95 time=0
EXTRACT: note_off channel=0 note=48 velocity=95 time=0
EXTRACT: note_on channel=0 note=69 velocity=95 time=0
EXTRACT: note_on channel=0 note=65 velocity=95 time=0
EXTRACT: note_on channel=0 note=60 velocity=95 time=0
EXTRACT: note_on channel=0 note=53 velocity=95 time=0
EXTRACT: note_on channel=0 note=48 velocity=95 time=0
EXTRACT: note_on channel=11 note=53 velocity=95 time=0.19999999999999998
EXTRACT: note_off channel=0 note=69 velocity=95 time=0.19999999999999998
EXTRACT: note_off channel=0 note=65 velocity=95 time=0
EXTRACT: note_off channel=0 note=60 velocity=95 time=0
EXTRACT: note_off channel=0 note=53 velocity=95 time=0
EXTRACT: note_off channel=0 note=48 velocity=95 time=0
EXTRACT: note_on channel=0 note=69 velocity=95 time=0
EXTRACT: note_on channel=0 note=65 velocity=95 time=0
EXTRACT: note_on channel=0 note=60 velocity=95 time=0
EXTRACT: note_on channel=0 note=53 velocity=95 time=0
EXTRACT: note_on channel=0 note=48 velocity=95 time=0
EXTRACT: note_off channel=11 note=53 velocity=95 time=0
EXTRACT: note_on channel=11 note=53 velocity=95 time=0
EXTRACT: note_off channel=0 note=69 velocity=95 time=0.39999999999999997
EXTRACT: note_off channel=0 note=65 velocity=95 time=0
EXTRACT: note_off channel=0 note=60 velocity=95 time=0
EXTRACT: note_off channel=0 note=53 velocity=95 time=0
EXTRACT: note_off channel=0 note=48 velocity=95 time=0
EXTRACT: note_on channel=0 note=69 velocity=95 time=0
EXTRACT: note_on channel=0 note=65 velocity=95 time=0
EXTRACT: note_on channel=0 note=60 velocity=95 time=0
EXTRACT: note_on channel=0 note=53 velocity=95 time=0
EXTRACT: note_on channel=0 note=48 velocity=95 time=0
EXTRACT: note_off channel=11 note=53 velocity=95 time=0
EXTRACT: note_on channel=11 note=55 velocity=95 time=0
EXTRACT: note_off channel=0 note=69 velocity=95 time=0.39999999999999997
EXTRACT: note_off channel=0 note=65 velocity=95 time=0
EXTRACT: note_off channel=0 note=60 velocity=95 time=0
EXTRACT: note_off channel=0 note=53 velocity=95 time=0
EXTRACT: note_off channel=0 note=48 velocity=95 time=0
EXTRACT: note_on channel=0 note=69 velocity=95 time=0
EXTRACT: note_on channel=0 note=65 velocity=95 time=0
EXTRACT: note_on channel=0 note=60 velocity=95 time=0
EXTRACT: note_on channel=0 note=53 velocity=95 time=0
EXTRACT: note_on channel=0 note=48 velocity=95 time=0
EXTRACT: note_off channel=11 note=55 velocity=95 time=0
EXTRACT: note_on channel=11 note=53 velocity=95 time=0
EXTRACT: note_off channel=0 note=69 velocity=95 time=0.39999999999999997
EXTRACT: note_off channel=0 note=65 velocity=95 time=0
EXTRACT: note_off channel=0 note=60 velocity=95 time=0
EXTRACT: note_off channel=0 note=53 velocity=95 time=0
EXTRACT: note_off channel=0 note=48 velocity=95 time=0
EXTRACT: note_on channel=0 note=69 velocity=95 time=0
EXTRACT: note_on channel=0 note=65 velocity=95 time=0
EXTRACT: note_on channel=0 note=60 velocity=95 time=0
EXTRACT: note_on channel=0 note=53 velocity=95 time=0
EXTRACT: note_on channel=0 note=48 velocity=95 time=0
EXTRACT: note_off channel=11 note=53 velocity=95 time=0
EXTRACT: note_on channel=11 note=57 velocity=95 time=0
EXTRACT: note_off channel=0 note=69 velocity=95 time=0.39999999999999997
EXTRACT: note_off channel=0 note=65 velocity=95 time=0
EXTRACT: note_off channel=0 note=60 velocity=95 time=0
EXTRACT: note_off channel=0 note=53 velocity=95 time=0
EXTRACT: note_off channel=0 note=48 velocity=95 time=0
EXTRACT: note_on channel=0 note=67 velocity=95 time=0
EXTRACT: note_on channel=0 note=65 velocity=95 time=0
EXTRACT: note_on channel=0 note=60 velocity=95 time=0
EXTRACT: note_on channel=0 note=53 velocity=95 time=0
EXTRACT: note_on channel=0 note=48 velocity=95 time=0
EXTRACT: note_off channel=6 note=65 velocity=95 time=0
EXTRACT: note_off channel=6 note=60 velocity=95 time=0
EXTRACT: note_off channel=6 note=57 velocity=95 time=0
EXTRACT: note_off channel=6 note=53 velocity=95 time=0
EXTRACT: note_on channel=6 note=53 velocity=95 time=0
EXTRACT: note_on channel=6 note=55 velocity=95 time=0.006666666666666666
EXTRACT: note_on channel=6 note=60 velocity=95 time=0.006666666666666666
EXTRACT: note_on channel=6 note=65 velocity=95 time=0.006666666666666666
EXTRACT: note_off channel=0 note=67 velocity=95 time=0.37999999999999995
EXTRACT: note_off channel=0 note=65 velocity=95 time=0
EXTRACT: note_off channel=0 note=60 velocity=95 time=0
EXTRACT: note_off channel=0 note=53 velocity=95 time=0
EXTRACT: note_off channel=0 note=48 velocity=95 time=0
EXTRACT: note_on channel=0 note=67 velocity=95 time=0
EXTRACT: note_on channel=0 note=65 velocity=95 time=0
EXTRACT: note_on channel=0 note=60 velocity=95 time=0
EXTRACT: note_on channel=0 note=53 velocity=95 time=0
EXTRACT: note_on channel=0 note=48 velocity=95 time=0
EXTRACT: note_off channel=11 note=57 velocity=95 time=0
EXTRACT: note_on channel=11 note=57 velocity=95 time=0
EXTRACT: note_off channel=0 note=67 velocity=95 time=0.39999999999999997
EXTRACT: note_off channel=0 note=65 velocity=95 time=0
EXTRACT: note_off channel=0 note=60 velocity=95 time=0
EXTRACT: note_off channel=0 note=53 velocity=95 time=0
EXTRACT: note_off channel=0 note=48 velocity=95 time=0
EXTRACT: note_on channel=0 note=67 velocity=95 time=0
EXTRACT: note_on channel=0 note=65 velocity=95 time=0
EXTRACT: note_on channel=0 note=60 velocity=95 time=0
EXTRACT: note_on channel=0 note=53 velocity=95 time=0
EXTRACT: note_on channel=0 note=48 velocity=95 time=0
EXTRACT: note_off channel=0 note=67 velocity=95 time=0.39999999999999997
EXTRACT: note_off channel=0 note=65 velocity=95 time=0
EXTRACT: note_off channel=0 note=60 velocity=95 time=0
EXTRACT: note_off channel=0 note=53 velocity=95 time=0
EXTRACT: note_off channel=0 note=48 velocity=95 time=0
EXTRACT: note_on channel=0 note=67 velocity=95 time=0
EXTRACT: note_on channel=0 note=65 velocity=95 time=0
EXTRACT: note_on channel=0 note=60 velocity=95 time=0
EXTRACT: note_on channel=0 note=53 velocity=95 time=0
EXTRACT: note_on channel=0 note=48 velocity=95 time=0
EXTRACT: note_off channel=11 note=57 velocity=95 time=0
EXTRACT: note_on channel=11 note=57 velocity=95 time=0
EXTRACT: note_off channel=0 note=67 velocity=95 time=0.39999999999999997
EXTRACT: note_off channel=0 note=65 velocity=95 time=0
EXTRACT: note_off channel=0 note=60 velocity=95 time=0
EXTRACT: note_off channel=0 note=53 velocity=95 time=0
EXTRACT: note_off channel=0 note=48 velocity=95 time=0
EXTRACT: note_on channel=0 note=67 velocity=95 time=0
EXTRACT: note_on channel=0 note=65 velocity=95 time=0
EXTRACT: note_on channel=0 note=60 velocity=95 time=0
EXTRACT: note_on channel=0 note=53 velocity=95 time=0
EXTRACT: note_on channel=0 note=48 velocity=95 time=0
EXTRACT: note_off channel=0 note=67 velocity=95 time=0.39999999999999997
EXTRACT: note_off channel=0 note=65 velocity=95 time=0
EXTRACT: note_off channel=0 note=60 velocity=95 time=0
EXTRACT: note_off channel=0 note=53 velocity=95 time=0
EXTRACT: note_off channel=0 note=48 velocity=95 time=0
EXTRACT: note_on channel=0 note=67 velocity=95 time=0
EXTRACT: note_on channel=0 note=65 velocity=95 time=0
EXTRACT: note_on channel=0 note=60 velocity=95 time=0
EXTRACT: note_on channel=0 note=53 velocity=95 time=0
EXTRACT: note_on channel=0 note=48 velocity=95 time=0
EXTRACT: note_off channel=0 note=67 velocity=95 time=0.39999999999999997
EXTRACT: note_off channel=0 note=65 velocity=95 time=0
EXTRACT: note_off channel=0 note=60 velocity=95 time=0
EXTRACT: note_off channel=0 note=53 velocity=95 time=0
EXTRACT: note_off channel=0 note=48 velocity=95 time=0
EXTRACT: note_on channel=0 note=67 velocity=95 time=0
EXTRACT: note_on channel=0 note=65 velocity=95 time=0
EXTRACT: note_on channel=0 note=60 velocity=95 time=0
EXTRACT: note_on channel=0 note=53 velocity=95 time=0
EXTRACT: note_on channel=0 note=48 velocity=95 time=0
EXTRACT: note_off channel=11 note=57 velocity=95 time=0
EXTRACT: note_on channel=11 note=55 velocity=95 time=0
EXTRACT: note_off channel=0 note=67 velocity=95 time=0.39999999999999997
EXTRACT: note_off channel=0 note=65 velocity=95 time=0
EXTRACT: note_off channel=0 note=60 velocity=95 time=0
EXTRACT: note_off channel=0 note=53 velocity=95 time=0
EXTRACT: note_off channel=0 note=48 velocity=95 time=0
EXTRACT: note_on channel=0 note=67 velocity=95 time=0
EXTRACT: note_on channel=0 note=65 velocity=95 time=0
EXTRACT: note_on channel=0 note=60 velocity=95 time=0
EXTRACT: note_on channel=0 note=53 velocity=95 time=0
EXTRACT: note_on channel=0 note=48 velocity=95 time=0
EXTRACT: note_off channel=11 note=55 velocity=95 time=0
EXTRACT: note_on channel=11 note=53 velocity=95 time=0
EXTRACT: note_off channel=0 note=67 velocity=95 time=0.39999999999999997
EXTRACT: note_off channel=0 note=65 velocity=95 time=0
EXTRACT: note_off channel=0 note=60 velocity=95 time=0
EXTRACT: note_off channel=0 note=53 velocity=95 time=0
EXTRACT: note_off channel=0 note=48 velocity=95 time=0
EXTRACT: note_on channel=0 note=69 velocity=95 time=0
EXTRACT: note_on channel=0 note=65 velocity=95 time=0
EXTRACT: note_on channel=0 note=62 velocity=95 time=0
EXTRACT: note_on channel=0 note=57 velocity=95 time=0
EXTRACT: note_on channel=0 note=50 velocity=95 time=0
EXTRACT: note_on channel=0 note=45 velocity=95 time=0
EXTRACT: note_off channel=6 note=65 velocity=95 time=0
EXTRACT: note_off channel=6 note=60 velocity=95 time=0
EXTRACT: note_off channel=6 note=55 velocity=95 time=0
EXTRACT: note_off channel=6 note=53 velocity=95 time=0
EXTRACT: note_on channel=6 note=57 velocity=95 time=0
EXTRACT: note_off channel=11 note=53 velocity=95 time=0
EXTRACT: note_on channel=6 note=62 velocity=95 time=0.006666666666666666
EXTRACT: note_on channel=6 note=65 velocity=95 time=0.006666666666666666
EXTRACT: note_on channel=6 note=69 velocity=95 time=0.006666666666666666
EXTRACT: note_off channel=0 note=69 velocity=95 time=0.37999999999999995
EXTRACT: note_off channel=0 note=65 velocity=95 time=0
EXTRACT: note_off channel=0 note=62 velocity=95 time=0
EXTRACT: note_off channel=0 note=57 velocity=95 time=0
EXTRACT: note_off channel=0 note=50 velocity=95 time=0
EXTRACT: note_off channel=0 note=45 velocity=95 time=0
EXTRACT: note_on channel=0 note=69 velocity=95 time=0
EXTRACT: note_on channel=0 note=65 velocity=95 time=0
EXTRACT: note_on channel=0 note=62 velocity=95 time=0
EXTRACT: note_on channel=0 note=57 velocity=95 time=0
EXTRACT: note_on channel=0 note=50 velocity=95 time=0
EXTRACT: note_on channel=0 note=45 velocity=95 time=0
EXTRACT: note_off channel=0 note=69 velocity=95 time=0.39999999999999997
EXTRACT: note_off channel=0 note=65 velocity=95 time=0
EXTRACT: note_off channel=0 note=62 velocity=95 time=0
EXTRACT: note_off channel=0 note=57 velocity=95 time=0
EXTRACT: note_off channel=0 note=50 velocity=95 time=0
EXTRACT: note_off channel=0 note=45 velocity=95 time=0
EXTRACT: note_on channel=0 note=69 velocity=95 time=0
EXTRACT: note_on channel=0 note=65 velocity=95 time=0
EXTRACT: note_on channel=0 note=62 velocity=95 time=0
EXTRACT: note_on channel=0 note=57 velocity=95 time=0
EXTRACT: note_on channel=0 note=50 velocity=95 time=0
EXTRACT: note_on channel=0 note=45 velocity=95 time=0
EXTRACT: note_off channel=0 note=69 velocity=95 time=0.39999999999999997
EXTRACT: note_off channel=0 note=65 velocity=95 time=0
EXTRACT: note_off channel=0 note=62 velocity=95 time=0
EXTRACT: note_off channel=0 note=57 velocity=95 time=0
EXTRACT: note_off channel=0 note=50 velocity=95 time=0
EXTRACT: note_off channel=0 note=45 velocity=95 time=0
EXTRACT: note_on channel=0 note=69 velocity=95 time=0
EXTRACT: note_on channel=0 note=65 velocity=95 time=0
EXTRACT: note_on channel=0 note=62 velocity=95 time=0
EXTRACT: note_on channel=0 note=57 velocity=95 time=0
EXTRACT: note_on channel=0 note=50 velocity=95 time=0
EXTRACT: note_on channel=0 note=45 velocity=95 time=0
EXTRACT: note_off channel=0 note=69 velocity=95 time=0.39999999999999997
EXTRACT: note_off channel=0 note=65 velocity=95 time=0
EXTRACT: note_off channel=0 note=62 velocity=95 time=0
EXTRACT: note_off channel=0 note=57 velocity=95 time=0
EXTRACT: note_off channel=0 note=50 velocity=95 time=0
EXTRACT: note_off channel=0 note=45 velocity=95 time=0
EXTRACT: note_on channel=0 note=69 velocity=95 time=0
EXTRACT: note_on channel=0 note=65 velocity=95 time=0
EXTRACT: note_on channel=0 note=62 velocity=95 time=0
EXTRACT: note_on channel=0 note=57 velocity=95 time=0
EXTRACT: note_on channel=0 note=50 velocity=95 time=0
EXTRACT: note_on channel=0 note=45 velocity=95 time=0
EXTRACT: note_on channel=11 note=53 velocity=95 time=0
EXTRACT: note_off channel=0 note=69 velocity=95 time=0.39999999999999997
EXTRACT: note_off channel=0 note=65 velocity=95 time=0
EXTRACT: note_off channel=0 note=62 velocity=95 time=0
EXTRACT: note_off channel=0 note=57 velocity=95 time=0
EXTRACT: note_off channel=0 note=50 velocity=95 time=0
EXTRACT: note_off channel=0 note=45 velocity=95 time=0
EXTRACT: note_on channel=0 note=69 velocity=95 time=0
EXTRACT: note_on channel=0 note=65 velocity=95 time=0
EXTRACT: note_on channel=0 note=62 velocity=95 time=0
EXTRACT: note_on channel=0 note=57 velocity=95 time=0
EXTRACT: note_on channel=0 note=50 velocity=95 time=0
EXTRACT: note_on channel=0 note=45 velocity=95 time=0
EXTRACT: note_off channel=11 note=53 velocity=95 time=0
EXTRACT: note_on channel=11 note=55 velocity=95 time=0
EXTRACT: note_off channel=0 note=69 velocity=95 time=0.39999999999999997
EXTRACT: note_off channel=0 note=65 velocity=95 time=0
EXTRACT: note_off channel=0 note=62 velocity=95 time=0
EXTRACT: note_off channel=0 note=57 velocity=95 time=0
EXTRACT: note_off channel=0 note=50 velocity=95 time=0
EXTRACT: note_off channel=0 note=45 velocity=95 time=0
EXTRACT: note_on channel=0 note=69 velocity=95 time=0
EXTRACT: note_on channel=0 note=65 velocity=95 time=0
EXTRACT: note_on channel=0 note=62 velocity=95 time=0
EXTRACT: note_on channel=0 note=57 velocity=95 time=0
EXTRACT: note_on channel=0 note=50 velocity=95 time=0
EXTRACT: note_on channel=0 note=45 velocity=95 time=0
EXTRACT: note_off channel=11 note=55 velocity=95 time=0
EXTRACT: note_on channel=11 note=53 velocity=95 time=0
EXTRACT: note_off channel=0 note=69 velocity=95 time=0.39999999999999997
EXTRACT: note_off channel=0 note=65 velocity=95 time=0
EXTRACT: note_off channel=0 note=62 velocity=95 time=0
EXTRACT: note_off channel=0 note=57 velocity=95 time=0
EXTRACT: note_off channel=0 note=50 velocity=95 time=0
EXTRACT: note_off channel=0 note=45 velocity=95 time=0
EXTRACT: note_on channel=0 note=69 velocity=95 time=0
EXTRACT: note_on channel=0 note=65 velocity=95 time=0
EXTRACT: note_on channel=0 note=62 velocity=95 time=0
EXTRACT: note_on channel=0 note=57 velocity=95 time=0
EXTRACT: note_on channel=0 note=50 velocity=95 time=0
EXTRACT: note_on channel=0 note=45 velocity=95 time=0
EXTRACT: note_off channel=11 note=53 velocity=95 time=0
EXTRACT: note_on channel=11 note=60 velocity=95 time=0
EXTRACT: note_off channel=0 note=69 velocity=95 time=0.39999999999999997
EXTRACT: note_off channel=0 note=65 velocity=95 time=0
EXTRACT: note_off channel=0 note=62 velocity=95 time=0
EXTRACT: note_off channel=0 note=57 velocity=95 time=0
EXTRACT: note_off channel=0 note=50 velocity=95 time=0
EXTRACT: note_off channel=0 note=45 velocity=95 time=0
EXTRACT: note_on channel=0 note=70 velocity=95 time=0
EXTRACT: note_on channel=0 note=65 velocity=95 time=0
EXTRACT: note_on channel=0 note=62 velocity=95 time=0
EXTRACT: note_on channel=0 note=58 velocity=95 time=0
EXTRACT: note_on channel=0 note=53 velocity=95 time=0
EXTRACT: note_on channel=0 note=46 velocity=95 time=0
EXTRACT: note_off channel=6 note=69 velocity=95 time=0
EXTRACT: note_off channel=6 note=65 velocity=95 time=0
EXTRACT: note_off channel=6 note=62 velocity=95 time=0
EXTRACT: note_off channel=6 note=57 velocity=95 time=0
EXTRACT: note_on channel=6 note=58 velocity=95 time=0
EXTRACT: note_on channel=6 note=62 velocity=95 time=0.006666666666666666
EXTRACT: note_on channel=6 note=65 velocity=95 time=0.006666666666666666
EXTRACT: note_on channel=6 note=70 velocity=95 time=0.006666666666666666
EXTRACT: note_off channel=0 note=70 velocity=95 time=0.37999999999999995
EXTRACT: note_off channel=0 note=65 velocity=95 time=0
EXTRACT: note_off channel=0 note=62 velocity=95 time=0
EXTRACT: note_off channel=0 note=58 velocity=95 time=0
EXTRACT: note_off channel=0 note=53 velocity=95 time=0
EXTRACT: note_off channel=0 note=46 velocity=95 time=0
EXTRACT: note_on channel=0 note=70 velocity=95 time=0
EXTRACT: note_on channel=0 note=65 velocity=95 time=0
EXTRACT: note_on channel=0 note=62 velocity=95 time=0
EXTRACT: note_on channel=0 note=58 velocity=95 time=0
EXTRACT: note_on channel=0 note=53 velocity=95 time=0
EXTRACT: note_on channel=0 note=46 velocity=95 time=0
EXTRACT: note_off channel=11 note=60 velocity=95 time=0
EXTRACT: note_on channel=11 note=57 velocity=95 time=0
EXTRACT: note_off channel=0 note=70 velocity=95 time=0.39999999999999997
EXTRACT: note_off channel=0 note=65 velocity=95 time=0
EXTRACT: note_off channel=0 note=62 velocity=95 time=0
EXTRACT: note_off channel=0 note=58 velocity=95 time=0
EXTRACT: note_off channel=0 note=53 velocity=95 time=0
EXTRACT: note_off channel=0 note=46 velocity=95 time=0
EXTRACT: note_on channel=0 note=70 velocity=95 time=0
EXTRACT: note_on channel=0 note=65 velocity=95 time=0
EXTRACT: note_on channel=0 note=62 velocity=95 time=0
EXTRACT: note_on channel=0 note=58 velocity=95 time=0
EXTRACT: note_on channel=0 note=53 velocity=95 time=0
EXTRACT: note_on channel=0 note=46 velocity=95 time=0
EXTRACT: note_off channel=0 note=70 velocity=95 time=0.39999999999999997
EXTRACT: note_off channel=0 note=65 velocity=95 time=0
EXTRACT: note_off channel=0 note=62 velocity=95 time=0
EXTRACT: note_off channel=0 note=58 velocity=95 time=0
EXTRACT: note_off channel=0 note=53 velocity=95 time=0
EXTRACT: note_off channel=0 note=46 velocity=95 time=0
EXTRACT: note_on channel=0 note=70 velocity=95 time=0
EXTRACT: note_on channel=0 note=65 velocity=95 time=0
EXTRACT: note_on channel=0 note=62 velocity=95 time=0
EXTRACT: note_on channel=0 note=58 velocity=95 time=0
EXTRACT: note_on channel=0 note=53 velocity=95 time=0
EXTRACT: note_on channel=0 note=46 velocity=95 time=0
EXTRACT: note_off channel=0 note=70 velocity=95 time=0.39999999999999997
EXTRACT: note_off channel=0 note=65 velocity=95 time=0
EXTRACT: note_off channel=0 note=62 velocity=95 time=0
EXTRACT: note_off channel=0 note=58 velocity=95 time=0
EXTRACT: note_off channel=0 note=53 velocity=95 time=0
EXTRACT: note_off channel=0 note=46 velocity=95 time=0
EXTRACT: note_on channel=0 note=70 velocity=95 time=0
EXTRACT: note_on channel=0 note=65 velocity=95 time=0
EXTRACT: note_on channel=0 note=62 velocity=95 time=0
EXTRACT: note_on channel=0 note=58 velocity=95 time=0
EXTRACT: note_on channel=0 note=53 velocity=95 time=0
EXTRACT: note_on channel=0 note=46 velocity=95 time=0
EXTRACT: note_off channel=6 note=70 velocity=95 time=0
EXTRACT: note_off channel=6 note=65 velocity=95 time=0
EXTRACT: note_off channel=6 note=62 velocity=95 time=0
EXTRACT: note_off channel=6 note=58 velocity=95 time=0
EXTRACT: note_off channel=11 note=57 velocity=95 time=0
EXTRACT: note_on channel=11 note=53 velocity=95 time=0
EXTRACT: note_off channel=0 note=70 velocity=95 time=0.39999999999999997
EXTRACT: note_off channel=0 note=65 velocity=95 time=0
EXTRACT: note_off channel=0 note=62 velocity=95 time=0
EXTRACT: note_off channel=0 note=58 velocity=95 time=0
EXTRACT: note_off channel=0 note=53 velocity=95 time=0
EXTRACT: note_off channel=0 note=46 velocity=95 time=0
EXTRACT: note_on channel=0 note=70 velocity=95 time=0
EXTRACT: note_on channel=0 note=65 velocity=95 time=0
EXTRACT: note_on channel=0 note=62 velocity=95 time=0
EXTRACT: note_on channel=0 note=58 velocity=95 time=0
EXTRACT: note_on channel=0 note=53 velocity=95 time=0
EXTRACT: note_on channel=0 note=46 velocity=95 time=0
EXTRACT: note_off channel=11 note=53 velocity=95 time=0
EXTRACT: note_on channel=11 note=55 velocity=95 time=0
EXTRACT: note_off channel=0 note=70 velocity=95 time=0.39999999999999997
EXTRACT: note_off channel=0 note=65 velocity=95 time=0
EXTRACT: note_off channel=0 note=62 velocity=95 time=0
EXTRACT: note_off channel=0 note=58 velocity=95 time=0
EXTRACT: note_off channel=0 note=53 velocity=95 time=0
EXTRACT: note_off channel=0 note=46 velocity=95 time=0
EXTRACT: note_on channel=0 note=70 velocity=95 time=0
EXTRACT: note_on channel=0 note=65 velocity=95 time=0
EXTRACT: note_on channel=0 note=62 velocity=95 time=0
EXTRACT: note_on channel=0 note=58 velocity=95 time=0
EXTRACT: note_on channel=0 note=53 velocity=95 time=0
EXTRACT: note_on channel=0 note=46 velocity=95 time=0
EXTRACT: note_on channel=6 note=70 velocity=95 time=0
EXTRACT: note_off channel=11 note=55 velocity=95 time=0
EXTRACT: note_on channel=11 note=53 velocity=95 time=0
EXTRACT: note_off channel=0 note=70 velocity=95 time=0.39999999999999997
EXTRACT: note_off channel=0 note=65 velocity=95 time=0
EXTRACT: note_off channel=0 note=62 velocity=95 time=0
EXTRACT: note_off channel=0 note=58 velocity=95 time=0
EXTRACT: note_off channel=0 note=53 velocity=95 time=0
EXTRACT: note_off channel=0 note=46 velocity=95 time=0
EXTRACT: note_on channel=0 note=70 velocity=95 time=0
EXTRACT: note_on channel=0 note=65 velocity=95 time=0
EXTRACT: note_on channel=0 note=62 velocity=95 time=0
EXTRACT: note_on channel=0 note=58 velocity=95 time=0
EXTRACT: note_on channel=0 note=53 velocity=95 time=0
EXTRACT: note_on channel=0 note=46 velocity=95 time=0
EXTRACT: note_off channel=6 note=70 velocity=95 time=0
EXTRACT: note_on channel=6 note=72 velocity=95 time=0
EXTRACT: note_off channel=11 note=53 velocity=95 time=0
EXTRACT: note_on channel=11 note=60 velocity=95 time=0
EXTRACT: note_off channel=0 note=70 velocity=95 time=0.39999999999999997
EXTRACT: note_off channel=0 note=65 velocity=95 time=0
EXTRACT: note_off channel=0 note=62 velocity=95 time=0
EXTRACT: note_off channel=0 note=58 velocity=95 time=0
EXTRACT: note_off channel=0 note=53 velocity=95 time=0
EXTRACT: note_off channel=0 note=46 velocity=95 time=0
EXTRACT: note_on channel=0 note=69 velocity=95 time=0
EXTRACT: note_on channel=0 note=65 velocity=95 time=0
EXTRACT: note_on channel=0 note=60 velocity=95 time=0
EXTRACT: note_on channel=0 note=53 velocity=95 time=0
EXTRACT: note_on channel=0 note=48 velocity=95 time=0
EXTRACT: note_off channel=6 note=72 velocity=95 time=0
EXTRACT: note_on channel=6 note=53 velocity=95 time=0
EXTRACT: note_on channel=6 note=57 velocity=95 time=0.006666666666666666
EXTRACT: note_on channel=6 note=60 velocity=95 time=0.006666666666666666
EXTRACT: note_on channel=6 note=65 velocity=95 time=0.006666666666666666
EXTRACT: note_off channel=0 note=69 velocity=95 time=0.37999999999999995
EXTRACT: note_off channel=0 note=65 velocity=95 time=0
EXTRACT: note_off channel=0 note=60 velocity=95 time=0
EXTRACT: note_off channel=0 note=53 velocity=95 time=0
EXTRACT: note_off channel=0 note=48 velocity=95 time=0
EXTRACT: note_on channel=0 note=69 velocity=95 time=0
EXTRACT: note_on channel=0 note=65 velocity=95 time=0
EXTRACT: note_on channel=0 note=60 velocity=95 time=0
EXTRACT: note_on channel=0 note=53 velocity=95 time=0
EXTRACT: note_on channel=0 note=48 velocity=95 time=0
EXTRACT: note_off channel=11 note=60 velocity=95 time=0
EXTRACT: note_on channel=11 note=57 velocity=95 time=0
EXTRACT: note_off channel=0 note=69 velocity=95 time=0.39999999999999997
EXTRACT: note_off channel=0 note=65 velocity=95 time=0
EXTRACT: note_off channel=0 note=60 velocity=95 time=0
EXTRACT: note_off channel=0 note=53 velocity=95 time=0
EXTRACT: note_off channel=0 note=48 velocity=95 time=0
EXTRACT: note_on channel=0 note=69 velocity=95 time=0
EXTRACT: note_on channel=0 note=65 velocity=95 time=0
EXTRACT: note_on channel=0 note=60 velocity=95 time=0
EXTRACT: note_on channel=0 note=53 velocity=95 time=0
EXTRACT: note_on channel=0 note=48 velocity=95 time=0
EXTRACT: note_off channel=11 note=57 velocity=95 time=0
EXTRACT: note_off channel=0 note=69 velocity=95 time=0.39999999999999997
EXTRACT: note_off channel=0 note=65 velocity=95 time=0
EXTRACT: note_off channel=0 note=60 velocity=95 time=0
EXTRACT: note_off channel=0 note=53 velocity=95 time=0
EXTRACT: note_off channel=0 note=48 velocity=95 time=0
EXTRACT: note_on channel=0 note=69 velocity=95 time=0
EXTRACT: note_on channel=0 note=65 velocity=95 time=0
EXTRACT: note_on channel=0 note=60 velocity=95 time=0
EXTRACT: note_on channel=0 note=53 velocity=95 time=0
EXTRACT: note_on channel=0 note=48 velocity=95 time=0
EXTRACT: note_on channel=11 note=53 velocity=95 time=0.19999999999999998
EXTRACT: note_off channel=0 note=69 velocity=95 time=0.19999999999999998
EXTRACT: note_off channel=0 note=65 velocity=95 time=0
EXTRACT: note_off channel=0 note=60 velocity=95 time=0
EXTRACT: note_off channel=0 note=53 velocity=95 time=0
EXTRACT: note_off channel=0 note=48 velocity=95 time=0
EXTRACT: note_on channel=0 note=69 velocity=95 time=0
EXTRACT: note_on channel=0 note=65 velocity=95 time=0
EXTRACT: note_on channel=0 note=60 velocity=95 time=0
EXTRACT: note_on channel=0 note=53 velocity=95 time=0
EXTRACT: note_on channel=0 note=48 velocity=95 time=0
EXTRACT: note_off channel=11 note=53 velocity=95 time=0
EXTRACT: note_on channel=11 note=53 velocity=95 time=0
EXTRACT: note_off channel=0 note=69 velocity=95 time=0.39999999999999997
EXTRACT: note_off channel=0 note=65 velocity=95 time=0
EXTRACT: note_off channel=0 note=60 velocity=95 time=0
EXTRACT: note_off channel=0 note=53 velocity=95 time=0
EXTRACT: note_off channel=0 note=48 velocity=95 time=0
EXTRACT: note_on channel=0 note=69 velocity=95 time=0
EXTRACT: note_on channel=0 note=65 velocity=95 time=0
EXTRACT: note_on channel=0 note=60 velocity=95 time=0
EXTRACT: note_on channel=0 note=53 velocity=95 time=0
EXTRACT: note_on channel=0 note=48 velocity=95 time=0
EXTRACT: note_off channel=11 note=53 velocity=95 time=0
EXTRACT: note_on channel=11 note=55 velocity=95 time=0
EXTRACT: note_off channel=0 note=69 velocity=95 time=0.39999999999999997
EXTRACT: note_off channel=0 note=65 velocity=95 time=0
EXTRACT: note_off channel=0 note=60 velocity=95 time=0
EXTRACT: note_off channel=0 note=53 velocity=95 time=0
EXTRACT: note_off channel=0 note=48 velocity=95 time=0
EXTRACT: note_on channel=0 note=69 velocity=95 time=0
EXTRACT: note_on channel=0 note=65 velocity=95 time=0
EXTRACT: note_on channel=0 note=60 velocity=95 time=0
EXTRACT: note_on channel=0 note=53 velocity=95 time=0
EXTRACT: note_on channel=0 note=48 velocity=95 time=0
EXTRACT: note_off channel=11 note=55 velocity=95 time=0
EXTRACT: note_on channel=11 note=53 velocity=95 time=0
EXTRACT: note_off channel=0 note=69 velocity=95 time=0.39999999999999997
EXTRACT: note_off channel=0 note=65 velocity=95 time=0
EXTRACT: note_off channel=0 note=60 velocity=95 time=0
EXTRACT: note_off channel=0 note=53 velocity=95 time=0
EXTRACT: note_off channel=0 note=48 velocity=95 time=0
EXTRACT: note_on channel=0 note=69 velocity=95 time=0
EXTRACT: note_on channel=0 note=65 velocity=95 time=0
EXTRACT: note_on channel=0 note=60 velocity=95 time=0
EXTRACT: note_on channel=0 note=53 velocity=95 time=0
EXTRACT: note_on channel=0 note=48 velocity=95 time=0
EXTRACT: note_off channel=11 note=53 velocity=95 time=0
EXTRACT: note_on channel=11 note=57 velocity=95 time=0
EXTRACT: note_off channel=0 note=69 velocity=95 time=0.39999999999999997
EXTRACT: note_off channel=0 note=65 velocity=95 time=0
EXTRACT: note_off channel=0 note=60 velocity=95 time=0
EXTRACT: note_off channel=0 note=53 velocity=95 time=0
EXTRACT: note_off channel=0 note=48 velocity=95 time=0
EXTRACT: note_on channel=0 note=67 velocity=95 time=0
EXTRACT: note_on channel=0 note=65 velocity=95 time=0
EXTRACT: note_on channel=0 note=60 velocity=95 time=0
EXTRACT: note_on channel=0 note=53 velocity=95 time=0
EXTRACT: note_on channel=0 note=48 velocity=95 time=0
EXTRACT: note_off channel=6 note=65 velocity=95 time=0
EXTRACT: note_off channel=6 note=60 velocity=95 time=0
EXTRACT: note_off channel=6 note=57 velocity=95 time=0
EXTRACT: note_off channel=6 note=53 velocity=95 time=0
EXTRACT: note_on channel=6 note=53 velocity=95 time=0
EXTRACT: note_on channel=6 note=55 velocity=95 time=0.006666666666666666
EXTRACT: note_on channel=6 note=60 velocity=95 time=0.006666666666666666
EXTRACT: note_on channel=6 note=65 velocity=95 time=0.006666666666666666
EXTRACT: note_off channel=0 note=67 velocity=95 time=0.37999999999999995
EXTRACT: note_off channel=0 note=65 velocity=95 time=0
EXTRACT: note_off channel=0 note=60 velocity=95 time=0
EXTRACT: note_off channel=0 note=53 velocity=95 time=0
EXTRACT: note_off channel=0 note=48 velocity=95 time=0
EXTRACT: note_on channel=0 note=67 velocity=95 time=0
EXTRACT: note_on channel=0 note=65 velocity=95 time=0
EXTRACT: note_on channel=0 note=60 velocity=95 time=0
EXTRACT: note_on channel=0 note=53 velocity=95 time=0
EXTRACT: note_on channel=0 note=48 velocity=95 time=0
EXTRACT: note_off channel=11 note=57 velocity=95 time=0
EXTRACT: note_on channel=11 note=57 velocity=95 time=0
EXTRACT: note_off channel=0 note=67 velocity=95 time=0.39999999999999997
EXTRACT: note_off channel=0 note=65 velocity=95 time=0
EXTRACT: note_off channel=0 note=60 velocity=95 time=0
EXTRACT: note_off channel=0 note=53 velocity=95 time=0
EXTRACT: note_off channel=0 note=48 velocity=95 time=0
EXTRACT: note_on channel=0 note=67 velocity=95 time=0
EXTRACT: note_on channel=0 note=65 velocity=95 time=0
EXTRACT: note_on channel=0 note=60 velocity=95 time=0
EXTRACT: note_on channel=0 note=53 velocity=95 time=0
EXTRACT: note_on channel=0 note=48 velocity=95 time=0
EXTRACT: note_off channel=0 note=67 velocity=95 time=0.39999999999999997
EXTRACT: note_off channel=0 note=65 velocity=95 time=0
EXTRACT: note_off channel=0 note=60 velocity=95 time=0
EXTRACT: note_off channel=0 note=53 velocity=95 time=0
EXTRACT: note_off channel=0 note=48 velocity=95 time=0
EXTRACT: note_on channel=0 note=67 velocity=95 time=0
EXTRACT: note_on channel=0 note=65 velocity=95 time=0
EXTRACT: note_on channel=0 note=60 velocity=95 time=0
EXTRACT: note_on channel=0 note=53 velocity=95 time=0
EXTRACT: note_on channel=0 note=48 velocity=95 time=0
EXTRACT: note_off channel=11 note=57 velocity=95 time=0
EXTRACT: note_on channel=11 note=57 velocity=95 time=0
EXTRACT: note_off channel=0 note=67 velocity=95 time=0.39999999999999997
EXTRACT: note_off channel=0 note=65 velocity=95 time=0
EXTRACT: note_off channel=0 note=60 velocity=95 time=0
EXTRACT: note_off channel=0 note=53 velocity=95 time=0
EXTRACT: note_off channel=0 note=48 velocity=95 time=0
EXTRACT: note_on channel=0 note=67 velocity=95 time=0
EXTRACT: note_on channel=0 note=65 velocity=95 time=0
EXTRACT: note_on channel=0 note=60 velocity=95 time=0
EXTRACT: note_on channel=0 note=53 velocity=95 time=0
EXTRACT: note_on channel=0 note=48 velocity=95 time=0
EXTRACT: note_off channel=0 note=67 velocity=95 time=0.39999999999999997
EXTRACT: note_off channel=0 note=65 velocity=95 time=0
EXTRACT: note_off channel=0 note=60 velocity=95 time=0
EXTRACT: note_off channel=0 note=53 velocity=95 time=0
EXTRACT: note_off channel=0 note=48 velocity=95 time=0
EXTRACT: note_on channel=0 note=67 velocity=95 time=0
EXTRACT: note_on channel=0 note=65 velocity=95 time=0
EXTRACT: note_on channel=0 note=60 velocity=95 time=0
EXTRACT: note_on channel=0 note=53 velocity=95 time=0
EXTRACT: note_on channel=0 note=48 velocity=95 time=0
EXTRACT: note_off channel=0 note=67 velocity=95 time=0.39999999999999997
EXTRACT: note_off channel=0 note=65 velocity=95 time=0
EXTRACT: note_off channel=0 note=60 velocity=95 time=0
EXTRACT: note_off channel=0 note=53 velocity=95 time=0
EXTRACT: note_off channel=0 note=48 velocity=95 time=0
EXTRACT: note_on channel=0 note=67 velocity=95 time=0
EXTRACT: note_on channel=0 note=65 velocity=95 time=0
EXTRACT: note_on channel=0 note=60 velocity=95 time=0
EXTRACT: note_on channel=0 note=53 velocity=95 time=0
EXTRACT: note_on channel=0 note=48 velocity=95 time=0
EXTRACT: note_off channel=11 note=57 velocity=95 time=0
EXTRACT: note_on channel=11 note=55 velocity=95 time=0
EXTRACT: note_off channel=0 note=67 velocity=95 time=0.39999999999999997
EXTRACT: note_off channel=0 note=65 velocity=95 time=0
EXTRACT: note_off channel=0 note=60 velocity=95 time=0
EXTRACT: note_off channel=0 note=53 velocity=95 time=0
EXTRACT: note_off channel=0 note=48 velocity=95 time=0
EXTRACT: note_on channel=0 note=67 velocity=95 time=0
EXTRACT: note_on channel=0 note=65 velocity=95 time=0
EXTRACT: note_on channel=0 note=60 velocity=95 time=0
EXTRACT: note_on channel=0 note=53 velocity=95 time=0
EXTRACT: note_on channel=0 note=48 velocity=95 time=0
EXTRACT: note_off channel=11 note=55 velocity=95 time=0
EXTRACT: note_on channel=11 note=53 velocity=95 time=0
EXTRACT: note_off channel=0 note=67 velocity=95 time=0.39999999999999997
EXTRACT: note_off channel=0 note=65 velocity=95 time=0
EXTRACT: note_off channel=0 note=60 velocity=95 time=0
EXTRACT: note_off channel=0 note=53 velocity=95 time=0
EXTRACT: note_off channel=0 note=48 velocity=95 time=0
EXTRACT: note_on channel=0 note=69 velocity=95 time=0
EXTRACT: note_on channel=0 note=65 velocity=95 time=0
EXTRACT: note_on channel=0 note=62 velocity=95 time=0
EXTRACT: note_on channel=0 note=57 velocity=95 time=0
EXTRACT: note_on channel=0 note=50 velocity=95 time=0
EXTRACT: note_on channel=0 note=45 velocity=95 time=0
EXTRACT: note_off channel=6 note=65 velocity=95 time=0
EXTRACT: note_off channel=6 note=60 velocity=95 time=0
EXTRACT: note_off channel=6 note=55 velocity=95 time=0
EXTRACT: note_off channel=6 note=53 velocity=95 time=0
EXTRACT: note_on channel=6 note=57 velocity=95 time=0
EXTRACT: note_off channel=11 note=53 velocity=95 time=0
EXTRACT: note_on channel=6 note=62 velocity=95 time=0.006666666666666666
EXTRACT: note_on channel=6 note=65 velocity=95 time=0.006666666666666666
EXTRACT: note_on channel=6 note=69 velocity=95 time=0.006666666666666666
EXTRACT: note_off channel=0 note=69 velocity=95 time=0.37999999999999995
EXTRACT: note_off channel=0 note=65 velocity=95 time=0
EXTRACT: note_off channel=0 note=62 velocity=95 time=0
EXTRACT: note_off channel=0 note=57 velocity=95 time=0
EXTRACT: note_off channel=0 note=50 velocity=95 time=0
EXTRACT: note_off channel=0 note=45 velocity=95 time=0
EXTRACT: note_on channel=0 note=69 velocity=95 time=0
EXTRACT: note_on channel=0 note=65 velocity=95 time=0
EXTRACT: note_on channel=0 note=62 velocity=95 time=0
EXTRACT: note_on channel=0 note=57 velocity=95 time=0
EXTRACT: note_on channel=0 note=50 velocity=95 time=0
EXTRACT: note_on channel=0 note=45 velocity=95 time=0
EXTRACT: note_off channel=0 note=69 velocity=95 time=0.39999999999999997
EXTRACT: note_off channel=0 note=65 velocity=95 time=0
EXTRACT: note_off channel=0 note=62 velocity=95 time=0
EXTRACT: note_off channel=0 note=57 velocity=95 time=0
EXTRACT: note_off channel=0 note=50 velocity=95 time=0
EXTRACT: note_off channel=0 note=45 velocity=95 time=0
EXTRACT: note_on channel=0 note=69 velocity=95 time=0
EXTRACT: note_on channel=0 note=65 velocity=95 time=0
EXTRACT: note_on channel=0 note=62 velocity=95 time=0
EXTRACT: note_on channel=0 note=57 velocity=95 time=0
EXTRACT: note_on channel=0 note=50 velocity=95 time=0
EXTRACT: note_on channel=0 note=45 velocity=95 time=0
EXTRACT: note_off channel=0 note=69 velocity=95 time=0.39999999999999997
EXTRACT: note_off channel=0 note=65 velocity=95 time=0
EXTRACT: note_off channel=0 note=62 velocity=95 time=0
EXTRACT: note_off channel=0 note=57 velocity=95 time=0
EXTRACT: note_off channel=0 note=50 velocity=95 time=0
EXTRACT: note_off channel=0 note=45 velocity=95 time=0
EXTRACT: note_on channel=0 note=69 velocity=95 time=0
EXTRACT: note_on channel=0 note=65 velocity=95 time=0
EXTRACT: note_on channel=0 note=62 velocity=95 time=0
EXTRACT: note_on channel=0 note=57 velocity=95 time=0
EXTRACT: note_on channel=0 note=50 velocity=95 time=0
EXTRACT: note_on channel=0 note=45 velocity=95 time=0
EXTRACT: note_off channel=0 note=69 velocity=95 time=0.39999999999999997
EXTRACT: note_off channel=0 note=65 velocity=95 time=0
EXTRACT: note_off channel=0 note=62 velocity=95 time=0
EXTRACT: note_off channel=0 note=57 velocity=95 time=0
EXTRACT: note_off channel=0 note=50 velocity=95 time=0
EXTRACT: note_off channel=0 note=45 velocity=95 time=0
EXTRACT: note_on channel=0 note=69 velocity=95 time=0
EXTRACT: note_on channel=0 note=65 velocity=95 time=0
EXTRACT: note_on channel=0 note=62 velocity=95 time=0
EXTRACT: note_on channel=0 note=57 velocity=95 time=0
EXTRACT: note_on channel=0 note=50 velocity=95 time=0
EXTRACT: note_on channel=0 note=45 velocity=95 time=0
EXTRACT: note_on channel=11 note=53 velocity=95 time=0
EXTRACT: note_off channel=0 note=69 velocity=95 time=0.39999999999999997
EXTRACT: note_off channel=0 note=65 velocity=95 time=0
EXTRACT: note_off channel=0 note=62 velocity=95 time=0
EXTRACT: note_off channel=0 note=57 velocity=95 time=0
EXTRACT: note_off channel=0 note=50 velocity=95 time=0
EXTRACT: note_off channel=0 note=45 velocity=95 time=0
EXTRACT: note_on channel=0 note=69 velocity=95 time=0
EXTRACT: note_on channel=0 note=65 velocity=95 time=0
EXTRACT: note_on channel=0 note=62 velocity=95 time=0
EXTRACT: note_on channel=0 note=57 velocity=95 time=0
EXTRACT: note_on channel=0 note=50 velocity=95 time=0
EXTRACT: note_on channel=0 note=45 velocity=95 time=0
EXTRACT: note_off channel=11 note=53 velocity=95 time=0
EXTRACT: note_on channel=11 note=55 velocity=95 time=0
EXTRACT: note_off channel=0 note=69 velocity=95 time=0.39999999999999997
EXTRACT: note_off channel=0 note=65 velocity=95 time=0
EXTRACT: note_off channel=0 note=62 velocity=95 time=0
EXTRACT: note_off channel=0 note=57 velocity=95 time=0
EXTRACT: note_off channel=0 note=50 velocity=95 time=0
EXTRACT: note_off channel=0 note=45 velocity=95 time=0
EXTRACT: note_on channel=0 note=69 velocity=95 time=0
EXTRACT: note_on channel=0 note=65 velocity=95 time=0
EXTRACT: note_on channel=0 note=62 velocity=95 time=0
EXTRACT: note_on channel=0 note=57 velocity=95 time=0
EXTRACT: note_on channel=0 note=50 velocity=95 time=0
EXTRACT: note_on channel=0 note=45 velocity=95 time=0
EXTRACT: note_off channel=11 note=55 velocity=95 time=0
EXTRACT: note_on channel=11 note=53 velocity=95 time=0
EXTRACT: note_off channel=0 note=69 velocity=95 time=0.39999999999999997
EXTRACT: note_off channel=0 note=65 velocity=95 time=0
EXTRACT: note_off channel=0 note=62 velocity=95 time=0
EXTRACT: note_off channel=0 note=57 velocity=95 time=0
EXTRACT: note_off channel=0 note=50 velocity=95 time=0
EXTRACT: note_off channel=0 note=45 velocity=95 time=0
EXTRACT: note_on channel=0 note=69 velocity=95 time=0
EXTRACT: note_on channel=0 note=65 velocity=95 time=0
EXTRACT: note_on channel=0 note=62 velocity=95 time=0
EXTRACT: note_on channel=0 note=57 velocity=95 time=0
EXTRACT: note_on channel=0 note=50 velocity=95 time=0
EXTRACT: note_on channel=0 note=45 velocity=95 time=0
EXTRACT: note_off channel=11 note=53 velocity=95 time=0
EXTRACT: note_on channel=11 note=60 velocity=95 time=0
EXTRACT: note_off channel=0 note=69 velocity=95 time=0.39999999999999997
EXTRACT: note_off channel=0 note=65 velocity=95 time=0
EXTRACT: note_off channel=0 note=62 velocity=95 time=0
EXTRACT: note_off channel=0 note=57 velocity=95 time=0
EXTRACT: note_off channel=0 note=50 velocity=95 time=0
EXTRACT: note_off channel=0 note=45 velocity=95 time=0
EXTRACT: note_on channel=0 note=70 velocity=95 time=0
EXTRACT: note_on channel=0 note=65 velocity=95 time=0
EXTRACT: note_on channel=0 note=62 velocity=95 time=0
EXTRACT: note_on channel=0 note=58 velocity=95 time=0
EXTRACT: note_on channel=0 note=53 velocity=95 time=0
EXTRACT: note_on channel=0 note=46 velocity=95 time=0
EXTRACT: note_off channel=6 note=69 velocity=95 time=0
EXTRACT: note_off channel=6 note=65 velocity=95 time=0
EXTRACT: note_off channel=6 note=62 velocity=95 time=0
EXTRACT: note_off channel=6 note=57 velocity=95 time=0
EXTRACT: note_on channel=6 note=58 velocity=95 time=0
EXTRACT: note_on channel=6 note=62 velocity=95 time=0.006666666666666666
EXTRACT: note_on channel=6 note=65 velocity=95 time=0.006666666666666666
EXTRACT: note_on channel=6 note=70 velocity=95 time=0.006666666666666666
EXTRACT: note_off channel=0 note=70 velocity=95 time=0.37999999999999995
EXTRACT: note_off channel=0 note=65 velocity=95 time=0
EXTRACT: note_off channel=0 note=62 velocity=95 time=0
EXTRACT: note_off channel=0 note=58 velocity=95 time=0
EXTRACT: note_off channel=0 note=53 velocity=95 time=0
EXTRACT: note_off channel=0 note=46 velocity=95 time=0
EXTRACT: note_on channel=0 note=70 velocity=95 time=0
EXTRACT: note_on channel=0 note=65 velocity=95 time=0
EXTRACT: note_on channel=0 note=62 velocity=95 time=0
EXTRACT: note_on channel=0 note=58 velocity=95 time=0
EXTRACT: note_on channel=0 note=53 velocity=95 time=0
EXTRACT: note_on channel=0 note=46 velocity=95 time=0
EXTRACT: note_off channel=11 note=60 velocity=95 time=0
EXTRACT: note_on channel=11 note=57 velocity=95 time=0
EXTRACT: note_off channel=0 note=70 velocity=95 time=0.39999999999999997
EXTRACT: note_off channel=0 note=65 velocity=95 time=0
EXTRACT: note_off channel=0 note=62 velocity=95 time=0
EXTRACT: note_off channel=0 note=58 velocity=95 time=0
EXTRACT: note_off channel=0 note=53 velocity=95 time=0
EXTRACT: note_off channel=0 note=46 velocity=95 time=0
EXTRACT: note_on channel=0 note=70 velocity=95 time=0
EXTRACT: note_on channel=0 note=65 velocity=95 time=0
EXTRACT: note_on channel=0 note=62 velocity=95 time=0
EXTRACT: note_on channel=0 note=58 velocity=95 time=0
EXTRACT: note_on channel=0 note=53 velocity=95 time=0
EXTRACT: note_on channel=0 note=46 velocity=95 time=0
EXTRACT: note_off channel=0 note=70 velocity=95 time=0.39999999999999997
EXTRACT: note_off channel=0 note=65 velocity=95 time=0
EXTRACT: note_off channel=0 note=62 velocity=95 time=0
EXTRACT: note_off channel=0 note=58 velocity=95 time=0
EXTRACT: note_off channel=0 note=53 velocity=95 time=0
EXTRACT: note_off channel=0 note=46 velocity=95 time=0
EXTRACT: note_on channel=0 note=70 velocity=95 time=0
EXTRACT: note_on channel=0 note=65 velocity=95 time=0
EXTRACT: note_on channel=0 note=62 velocity=95 time=0
EXTRACT: note_on channel=0 note=58 velocity=95 time=0
EXTRACT: note_on channel=0 note=53 velocity=95 time=0
EXTRACT: note_on channel=0 note=46 velocity=95 time=0
EXTRACT: note_off channel=0 note=70 velocity=95 time=0.39999999999999997
EXTRACT: note_off channel=0 note=65 velocity=95 time=0
EXTRACT: note_off channel=0 note=62 velocity=95 time=0
EXTRACT: note_off channel=0 note=58 velocity=95 time=0
EXTRACT: note_off channel=0 note=53 velocity=95 time=0
EXTRACT: note_off channel=0 note=46 velocity=95 time=0
EXTRACT: note_on channel=0 note=70 velocity=95 time=0
EXTRACT: note_on channel=0 note=65 velocity=95 time=0
EXTRACT: note_on channel=0 note=62 velocity=95 time=0
EXTRACT: note_on channel=0 note=58 velocity=95 time=0
EXTRACT: note_on channel=0 note=53 velocity=95 time=0
EXTRACT: note_on channel=0 note=46 velocity=95 time=0
EXTRACT: note_off channel=6 note=70 velocity=95 time=0
EXTRACT: note_off channel=6 note=65 velocity=95 time=0
EXTRACT: note_off channel=6 note=62 velocity=95 time=0
EXTRACT: note_off channel=6 note=58 velocity=95 time=0
EXTRACT: note_off channel=11 note=57 velocity=95 time=0
EXTRACT: note_on channel=11 note=53 velocity=95 time=0
EXTRACT: note_off channel=0 note=70 velocity=95 time=0.39999999999999997
EXTRACT: note_off channel=0 note=65 velocity=95 time=0
EXTRACT: note_off channel=0 note=62 velocity=95 time=0
EXTRACT: note_off channel=0 note=58 velocity=95 time=0
EXTRACT: note_off channel=0 note=53 velocity=95 time=0
EXTRACT: note_off channel=0 note=46 velocity=95 time=0
EXTRACT: note_on channel=0 note=70 velocity=95 time=0
EXTRACT: note_on channel=0 note=65 velocity=95 time=0
EXTRACT: note_on channel=0 note=62 velocity=95 time=0
EXTRACT: note_on channel=0 note=58 velocity=95 time=0
EXTRACT: note_on channel=0 note=53 velocity=95 time=0
EXTRACT: note_on channel=0 note=46 velocity=95 time=0
EXTRACT: note_off channel=11 note=53 velocity=95 time=0
EXTRACT: note_on channel=11 note=55 velocity=95 time=0
EXTRACT: note_off channel=0 note=70 velocity=95 time=0.39999999999999997
EXTRACT: note_off channel=0 note=65 velocity=95 time=0
EXTRACT: note_off channel=0 note=62 velocity=95 time=0
EXTRACT: note_off channel=0 note=58 velocity=95 time=0
EXTRACT: note_off channel=0 note=53 velocity=95 time=0
EXTRACT: note_off channel=0 note=46 velocity=95 time=0
EXTRACT: note_on channel=0 note=70 velocity=95 time=0
EXTRACT: note_on channel=0 note=65 velocity=95 time=0
EXTRACT: note_on channel=0 note=62 velocity=95 time=0
EXTRACT: note_on channel=0 note=58 velocity=95 time=0
EXTRACT: note_on channel=0 note=53 velocity=95 time=0
EXTRACT: note_on channel=0 note=46 velocity=95 time=0
EXTRACT: note_on channel=6 note=70 velocity=95 time=0
EXTRACT: note_off channel=11 note=55 velocity=95 time=0
EXTRACT: note_on channel=11 note=53 velocity=95 time=0
EXTRACT: note_off channel=0 note=70 velocity=95 time=0.39999999999999997
EXTRACT: note_off channel=0 note=65 velocity=95 time=0
EXTRACT: note_off channel=0 note=62 velocity=95 time=0
EXTRACT: note_off channel=0 note=58 velocity=95 time=0
EXTRACT: note_off channel=0 note=53 velocity=95 time=0
EXTRACT: note_off channel=0 note=46 velocity=95 time=0
EXTRACT: note_on channel=0 note=70 velocity=95 time=0
EXTRACT: note_on channel=0 note=65 velocity=95 time=0
EXTRACT: note_on channel=0 note=62 velocity=95 time=0
EXTRACT: note_on channel=0 note=58 velocity=95 time=0
EXTRACT: note_on channel=0 note=53 velocity=95 time=0
EXTRACT: note_on channel=0 note=46 velocity=95 time=0
EXTRACT: note_off channel=6 note=70 velocity=95 time=0
EXTRACT: note_on channel=6 note=72 velocity=95 time=0
EXTRACT: note_off channel=11 note=53 velocity=95 time=0
EXTRACT: note_on channel=11 note=60 velocity=95 time=0
EXTRACT: note_off channel=0 note=70 velocity=95 time=0.39999999999999997
EXTRACT: note_off channel=0 note=65 velocity=95 time=0
EXTRACT: note_off channel=0 note=62 velocity=95 time=0
EXTRACT: note_off channel=0 note=58 velocity=95 time=0
EXTRACT: note_off channel=0 note=53 velocity=95 time=0
EXTRACT: note_off channel=0 note=46 velocity=95 time=0
EXTRACT: note_on channel=0 note=69 velocity=95 time=0
EXTRACT: note_on channel=0 note=65 velocity=95 time=0
EXTRACT: note_on channel=0 note=60 velocity=95 time=0
EXTRACT: note_on channel=0 note=53 velocity=95 time=0
EXTRACT: note_on channel=0 note=48 velocity=95 time=0
EXTRACT: note_off channel=6 note=72 velocity=95 time=0
EXTRACT: note_on channel=6 note=53 velocity=95 time=0
EXTRACT: note_on channel=6 note=57 velocity=95 time=0.006666666666666666
EXTRACT: note_on channel=6 note=60 velocity=95 time=0.006666666666666666
EXTRACT: note_on channel=6 note=65 velocity=95 time=0.006666666666666666
EXTRACT: note_off channel=0 note=69 velocity=95 time=0.37999999999999995
EXTRACT: note_off channel=0 note=65 velocity=95 time=0
EXTRACT: note_off channel=0 note=60 velocity=95 time=0
EXTRACT: note_off channel=0 note=53 velocity=95 time=0
EXTRACT: note_off channel=0 note=48 velocity=95 time=0
EXTRACT: note_on channel=0 note=69 velocity=95 time=0
EXTRACT: note_on channel=0 note=65 velocity=95 time=0
EXTRACT: note_on channel=0 note=60 velocity=95 time=0
EXTRACT: note_on channel=0 note=53 velocity=95 time=0
EXTRACT: note_on channel=0 note=48 velocity=95 time=0
EXTRACT: note_off channel=11 note=60 velocity=95 time=0
EXTRACT: note_on channel=11 note=57 velocity=95 time=0
EXTRACT: note_off channel=0 note=69 velocity=95 time=0.39999999999999997
EXTRACT: note_off channel=0 note=65 velocity=95 time=0
EXTRACT: note_off channel=0 note=60 velocity=95 time=0
EXTRACT: note_off channel=0 note=53 velocity=95 time=0
EXTRACT: note_off channel=0 note=48 velocity=95 time=0
EXTRACT: note_on channel=0 note=69 velocity=95 time=0
EXTRACT: note_on channel=0 note=65 velocity=95 time=0
EXTRACT: note_on channel=0 note=60 velocity=95 time=0
EXTRACT: note_on channel=0 note=53 velocity=95 time=0
EXTRACT: note_on channel=0 note=48 velocity=95 time=0
EXTRACT: note_off channel=11 note=57 velocity=95 time=0
EXTRACT: note_off channel=0 note=69 velocity=95 time=0.39999999999999997
EXTRACT: note_off channel=0 note=65 velocity=95 time=0
EXTRACT: note_off channel=0 note=60 velocity=95 time=0
EXTRACT: note_off channel=0 note=53 velocity=95 time=0
EXTRACT: note_off channel=0 note=48 velocity=95 time=0
EXTRACT: note_on channel=0 note=69 velocity=95 time=0
EXTRACT: note_on channel=0 note=65 velocity=95 time=0
EXTRACT: note_on channel=0 note=60 velocity=95 time=0
EXTRACT: note_on channel=0 note=53 velocity=95 time=0
EXTRACT: note_on channel=0 note=48 velocity=95 time=0
EXTRACT: note_on channel=11 note=53 velocity=95 time=0.19999999999999998
EXTRACT: note_off channel=0 note=69 velocity=95 time=0.19999999999999998
EXTRACT: note_off channel=0 note=65 velocity=95 time=0
EXTRACT: note_off channel=0 note=60 velocity=95 time=0
EXTRACT: note_off channel=0 note=53 velocity=95 time=0
EXTRACT: note_off channel=0 note=48 velocity=95 time=0
EXTRACT: note_on channel=0 note=69 velocity=95 time=0
EXTRACT: note_on channel=0 note=65 velocity=95 time=0
EXTRACT: note_on channel=0 note=60 velocity=95 time=0
EXTRACT: note_on channel=0 note=53 velocity=95 time=0
EXTRACT: note_on channel=0 note=48 velocity=95 time=0
EXTRACT: note_off channel=11 note=53 velocity=95 time=0
EXTRACT: note_on channel=11 note=53 velocity=95 time=0
EXTRACT: note_off channel=0 note=69 velocity=95 time=0.39999999999999997
EXTRACT: note_off channel=0 note=65 velocity=95 time=0
EXTRACT: note_off channel=0 note=60 velocity=95 time=0
EXTRACT: note_off channel=0 note=53 velocity=95 time=0
EXTRACT: note_off channel=0 note=48 velocity=95 time=0
EXTRACT: note_on channel=0 note=69 velocity=95 time=0
EXTRACT: note_on channel=0 note=65 velocity=95 time=0
EXTRACT: note_on channel=0 note=60 velocity=95 time=0
EXTRACT: note_on channel=0 note=53 velocity=95 time=0
EXTRACT: note_on channel=0 note=48 velocity=95 time=0
EXTRACT: note_off channel=11 note=53 velocity=95 time=0
EXTRACT: note_on channel=11 note=55 velocity=95 time=0
EXTRACT: note_off channel=0 note=69 velocity=95 time=0.39999999999999997
EXTRACT: note_off channel=0 note=65 velocity=95 time=0
EXTRACT: note_off channel=0 note=60 velocity=95 time=0
EXTRACT: note_off channel=0 note=53 velocity=95 time=0
EXTRACT: note_off channel=0 note=48 velocity=95 time=0
EXTRACT: note_on channel=0 note=69 velocity=95 time=0
EXTRACT: note_on channel=0 note=65 velocity=95 time=0
EXTRACT: note_on channel=0 note=60 velocity=95 time=0
EXTRACT: note_on channel=0 note=53 velocity=95 time=0
EXTRACT: note_on channel=0 note=48 velocity=95 time=0
EXTRACT: note_off channel=11 note=55 velocity=95 time=0
EXTRACT: note_on channel=11 note=53 velocity=95 time=0
EXTRACT: note_off channel=0 note=69 velocity=95 time=0.39999999999999997
EXTRACT: note_off channel=0 note=65 velocity=95 time=0
EXTRACT: note_off channel=0 note=60 velocity=95 time=0
EXTRACT: note_off channel=0 note=53 velocity=95 time=0
EXTRACT: note_off channel=0 note=48 velocity=95 time=0
EXTRACT: note_on channel=0 note=69 velocity=95 time=0
EXTRACT: note_on channel=0 note=65 velocity=95 time=0
EXTRACT: note_on channel=0 note=60 velocity=95 time=0
EXTRACT: note_on channel=0 note=53 velocity=95 time=0
EXTRACT: note_on channel=0 note=48 velocity=95 time=0
EXTRACT: note_off channel=11 note=53 velocity=95 time=0
EXTRACT: note_on channel=11 note=57 velocity=95 time=0
EXTRACT: note_off channel=0 note=69 velocity=95 time=0.39999999999999997
EXTRACT: note_off channel=0 note=65 velocity=95 time=0
EXTRACT: note_off channel=0 note=60 velocity=95 time=0
EXTRACT: note_off channel=0 note=53 velocity=95 time=0
EXTRACT: note_off channel=0 note=48 velocity=95 time=0
EXTRACT: note_on channel=0 note=67 velocity=95 time=0
EXTRACT: note_on channel=0 note=65 velocity=95 time=0
EXTRACT: note_on channel=0 note=60 velocity=95 time=0
EXTRACT: note_on channel=0 note=53 velocity=95 time=0
EXTRACT: note_on channel=0 note=48 velocity=95 time=0
EXTRACT: note_off channel=6 note=65 velocity=95 time=0
EXTRACT: note_off channel=6 note=60 velocity=95 time=0
EXTRACT: note_off channel=6 note=57 velocity=95 time=0
EXTRACT: note_off channel=6 note=53 velocity=95 time=0
EXTRACT: note_on channel=6 note=53 velocity=95 time=0
EXTRACT: note_on channel=6 note=55 velocity=95 time=0.006666666666666666
EXTRACT: note_on channel=6 note=60 velocity=95 time=0.006666666666666666
EXTRACT: note_on channel=6 note=65 velocity=95 time=0.006666666666666666
EXTRACT: note_off channel=0 note=67 velocity=95 time=0.37999999999999995
EXTRACT: note_off channel=0 note=65 velocity=95 time=0
EXTRACT: note_off channel=0 note=60 velocity=95 time=0
EXTRACT: note_off channel=0 note=53 velocity=95 time=0
EXTRACT: note_off channel=0 note=48 velocity=95 time=0
EXTRACT: note_on channel=0 note=67 velocity=95 time=0
EXTRACT: note_on channel=0 note=65 velocity=95 time=0
EXTRACT: note_on channel=0 note=60 velocity=95 time=0
EXTRACT: note_on channel=0 note=53 velocity=95 time=0
EXTRACT: note_on channel=0 note=48 velocity=95 time=0
EXTRACT: note_off channel=11 note=57 velocity=95 time=0
EXTRACT: note_on channel=11 note=57 velocity=95 time=0
EXTRACT: note_off channel=0 note=67 velocity=95 time=0.39999999999999997
EXTRACT: note_off channel=0 note=65 velocity=95 time=0
EXTRACT: note_off channel=0 note=60 velocity=95 time=0
EXTRACT: note_off channel=0 note=53 velocity=95 time=0
EXTRACT: note_off channel=0 note=48 velocity=95 time=0
EXTRACT: note_on channel=0 note=67 velocity=95 time=0
EXTRACT: note_on channel=0 note=65 velocity=95 time=0
EXTRACT: note_on channel=0 note=60 velocity=95 time=0
EXTRACT: note_on channel=0 note=53 velocity=95 time=0
EXTRACT: note_on channel=0 note=48 velocity=95 time=0
EXTRACT: note_off channel=0 note=67 velocity=95 time=0.39999999999999997
EXTRACT: note_off channel=0 note=65 velocity=95 time=0
EXTRACT: note_off channel=0 note=60 velocity=95 time=0
EXTRACT: note_off channel=0 note=53 velocity=95 time=0
EXTRACT: note_off channel=0 note=48 velocity=95 time=0
EXTRACT: note_on channel=0 note=67 velocity=95 time=0
EXTRACT: note_on channel=0 note=65 velocity=95 time=0
EXTRACT: note_on channel=0 note=60 velocity=95 time=0
EXTRACT: note_on channel=0 note=53 velocity=95 time=0
EXTRACT: note_on channel=0 note=48 velocity=95 time=0
EXTRACT: note_off channel=11 note=57 velocity=95 time=0
EXTRACT: note_on channel=11 note=57 velocity=95 time=0
EXTRACT: note_off channel=0 note=67 velocity=95 time=0.39999999999999997
EXTRACT: note_off channel=0 note=65 velocity=95 time=0
EXTRACT: note_off channel=0 note=60 velocity=95 time=0
EXTRACT: note_off channel=0 note=53 velocity=95 time=0
EXTRACT: note_off channel=0 note=48 velocity=95 time=0
EXTRACT: note_on channel=0 note=67 velocity=95 time=0
EXTRACT: note_on channel=0 note=65 velocity=95 time=0
EXTRACT: note_on channel=0 note=60 velocity=95 time=0
EXTRACT: note_on channel=0 note=53 velocity=95 time=0
EXTRACT: note_on channel=0 note=48 velocity=95 time=0
EXTRACT: note_off channel=0 note=67 velocity=95 time=0.39999999999999997
EXTRACT: note_off channel=0 note=65 velocity=95 time=0
EXTRACT: note_off channel=0 note=60 velocity=95 time=0
EXTRACT: note_off channel=0 note=53 velocity=95 time=0
EXTRACT: note_off channel=0 note=48 velocity=95 time=0
EXTRACT: note_on channel=0 note=67 velocity=95 time=0
EXTRACT: note_on channel=0 note=65 velocity=95 time=0
EXTRACT: note_on channel=0 note=60 velocity=95 time=0
EXTRACT: note_on channel=0 note=53 velocity=95 time=0
EXTRACT: note_on channel=0 note=48 velocity=95 time=0
EXTRACT: note_off channel=0 note=67 velocity=95 time=0.39999999999999997
EXTRACT: note_off channel=0 note=65 velocity=95 time=0
EXTRACT: note_off channel=0 note=60 velocity=95 time=0
EXTRACT: note_off channel=0 note=53 velocity=95 time=0
EXTRACT: note_off channel=0 note=48 velocity=95 time=0
EXTRACT: note_on channel=0 note=67 velocity=95 time=0
EXTRACT: note_on channel=0 note=65 velocity=95 time=0
EXTRACT: note_on channel=0 note=60 velocity=95 time=0
EXTRACT: note_on channel=0 note=53 velocity=95 time=0
EXTRACT: note_on channel=0 note=48 velocity=95 time=0
EXTRACT: note_off channel=11 note=57 velocity=95 time=0
EXTRACT: note_on channel=11 note=55 velocity=95 time=0
EXTRACT: note_off channel=0 note=67 velocity=95 time=0.39999999999999997
EXTRACT: note_off channel=0 note=65 velocity=95 time=0
EXTRACT: note_off channel=0 note=60 velocity=95 time=0
EXTRACT: note_off channel=0 note=53 velocity=95 time=0
EXTRACT: note_off channel=0 note=48 velocity=95 time=0
EXTRACT: note_on channel=0 note=67 velocity=95 time=0
EXTRACT: note_on channel=0 note=65 velocity=95 time=0
EXTRACT: note_on channel=0 note=60 velocity=95 time=0
EXTRACT: note_on channel=0 note=53 velocity=95 time=0
EXTRACT: note_on channel=0 note=48 velocity=95 time=0
EXTRACT: note_off channel=11 note=55 velocity=95 time=0
EXTRACT: note_on channel=11 note=53 velocity=95 time=0
EXTRACT: note_off channel=0 note=67 velocity=95 time=0.39999999999999997
EXTRACT: note_off channel=0 note=65 velocity=95 time=0
EXTRACT: note_off channel=0 note=60 velocity=95 time=0
EXTRACT: note_off channel=0 note=53 velocity=95 time=0
EXTRACT: note_off channel=0 note=48 velocity=95 time=0
EXTRACT: note_on channel=0 note=69 velocity=95 time=0
EXTRACT: note_on channel=0 note=65 velocity=95 time=0
EXTRACT: note_on channel=0 note=62 velocity=95 time=0
EXTRACT: note_on channel=0 note=57 velocity=95 time=0
EXTRACT: note_on channel=0 note=50 velocity=95 time=0
EXTRACT: note_on channel=0 note=45 velocity=95 time=0
EXTRACT: note_off channel=6 note=65 velocity=95 time=0
EXTRACT: note_off channel=6 note=60 velocity=95 time=0
EXTRACT: note_off channel=6 note=55 velocity=95 time=0
EXTRACT: note_off channel=6 note=53 velocity=95 time=0
EXTRACT: note_on channel=6 note=57 velocity=95 time=0
EXTRACT: note_off channel=11 note=53 velocity=95 time=0
EXTRACT: note_on channel=6 note=62 velocity=95 time=0.006666666666666666
EXTRACT: note_on channel=6 note=65 velocity=95 time=0.006666666666666666
EXTRACT: note_on channel=6 note=69 velocity=95 time=0.006666666666666666
EXTRACT: note_off channel=0 note=69 velocity=95 time=0.37999999999999995
EXTRACT: note_off channel=0 note=65 velocity=95 time=0
EXTRACT: note_off channel=0 note=62 velocity=95 time=0
EXTRACT: note_off channel=0 note=57 velocity=95 time=0
EXTRACT: note_off channel=0 note=50 velocity=95 time=0
EXTRACT: note_off channel=0 note=45 velocity=95 time=0
EXTRACT: note_on channel=0 note=69 velocity=95 time=0
EXTRACT: note_on channel=0 note=65 velocity=95 time=0
EXTRACT: note_on channel=0 note=62 velocity=95 time=0
EXTRACT: note_on channel=0 note=57 velocity=95 time=0
EXTRACT: note_on channel=0 note=50 velocity=95 time=0
EXTRACT: note_on channel=0 note=45 velocity=95 time=0
EXTRACT: note_off channel=0 note=69 velocity=95 time=0.39999999999999997
EXTRACT: note_off channel=0 note=65 velocity=95 time=0
EXTRACT: note_off channel=0 note=62 velocity=95 time=0
EXTRACT: note_off channel=0 note=57 velocity=95 time=0
EXTRACT: note_off channel=0 note=50 velocity=95 time=0
EXTRACT: note_off channel=0 note=45 velocity=95 time=0
EXTRACT: note_on channel=0 note=69 velocity=95 time=0
EXTRACT: note_on channel=0 note=65 velocity=95 time=0
EXTRACT: note_on channel=0 note=62 velocity=95 time=0
EXTRACT: note_on channel=0 note=57 velocity=95 time=0
EXTRACT: note_on channel=0 note=50 velocity=95 time=0
EXTRACT: note_on channel=0 note=45 velocity=95 time=0
EXTRACT: note_off channel=0 note=69 velocity=95 time=0.39999999999999997
EXTRACT: note_off channel=0 note=65 velocity=95 time=0
EXTRACT: note_off channel=0 note=62 velocity=95 time=0
EXTRACT: note_off channel=0 note=57 velocity=95 time=0
EXTRACT: note_off channel=0 note=50 velocity=95 time=0
EXTRACT: note_off channel=0 note=45 velocity=95 time=0
EXTRACT: note_on channel=0 note=69 velocity=95 time=0
EXTRACT: note_on channel=0 note=65 velocity=95 time=0
EXTRACT: note_on channel=0 note=62 velocity=95 time=0
EXTRACT: note_on channel=0 note=57 velocity=95 time=0
EXTRACT: note_on channel=0 note=50 velocity=95 time=0
EXTRACT: note_on channel=0 note=45 velocity=95 time=0
EXTRACT: note_off channel=0 note=69 velocity=95 time=0.39999999999999997
EXTRACT: note_off channel=0 note=65 velocity=95 time=0
EXTRACT: note_off channel=0 note=62 velocity=95 time=0
EXTRACT: note_off channel=0 note=57 velocity=95 time=0
EXTRACT: note_off channel=0 note=50 velocity=95 time=0
EXTRACT: note_off channel=0 note=45 velocity=95 time=0
EXTRACT: note_on channel=0 note=69 velocity=95 time=0
EXTRACT: note_on channel=0 note=65 velocity=95 time=0
EXTRACT: note_on channel=0 note=62 velocity=95 time=0
EXTRACT: note_on channel=0 note=57 velocity=95 time=0
EXTRACT: note_on channel=0 note=50 velocity=95 time=0
EXTRACT: note_on channel=0 note=45 velocity=95 time=0
EXTRACT: note_on channel=11 note=53 velocity=95 time=0
EXTRACT: note_off channel=0 note=69 velocity=95 time=0.39999999999999997
EXTRACT: note_off channel=0 note=65 velocity=95 time=0
EXTRACT: note_off channel=0 note=62 velocity=95 time=0
EXTRACT: note_off channel=0 note=57 velocity=95 time=0
EXTRACT: note_off channel=0 note=50 velocity=95 time=0
EXTRACT: note_off channel=0 note=45 velocity=95 time=0
EXTRACT: note_on channel=0 note=69 velocity=95 time=0
EXTRACT: note_on channel=0 note=65 velocity=95 time=0
EXTRACT: note_on channel=0 note=62 velocity=95 time=0
EXTRACT: note_on channel=0 note=57 velocity=95 time=0
EXTRACT: note_on channel=0 note=50 velocity=95 time=0
EXTRACT: note_on channel=0 note=45 velocity=95 time=0
EXTRACT: note_off channel=11 note=53 velocity=95 time=0
EXTRACT: note_on channel=11 note=55 velocity=95 time=0
EXTRACT: note_off channel=0 note=69 velocity=95 time=0.39999999999999997
EXTRACT: note_off channel=0 note=65 velocity=95 time=0
EXTRACT: note_off channel=0 note=62 velocity=95 time=0
EXTRACT: note_off channel=0 note=57 velocity=95 time=0
EXTRACT: note_off channel=0 note=50 velocity=95 time=0
EXTRACT: note_off channel=0 note=45 velocity=95 time=0
EXTRACT: note_on channel=0 note=69 velocity=95 time=0
EXTRACT: note_on channel=0 note=65 velocity=95 time=0
EXTRACT: note_on channel=0 note=62 velocity=95 time=0
EXTRACT: note_on channel=0 note=57 velocity=95 time=0
EXTRACT: note_on channel=0 note=50 velocity=95 time=0
EXTRACT: note_on channel=0 note=45 velocity=95 time=0
EXTRACT: note_off channel=11 note=55 velocity=95 time=0
EXTRACT: note_on channel=11 note=53 velocity=95 time=0
EXTRACT: note_off channel=0 note=69 velocity=95 time=0.39999999999999997
EXTRACT: note_off channel=0 note=65 velocity=95 time=0
EXTRACT: note_off channel=0 note=62 velocity=95 time=0
EXTRACT: note_off channel=0 note=57 velocity=95 time=0
EXTRACT: note_off channel=0 note=50 velocity=95 time=0
EXTRACT: note_off channel=0 note=45 velocity=95 time=0
EXTRACT: note_on channel=0 note=69 velocity=95 time=0
EXTRACT: note_on channel=0 note=65 velocity=95 time=0
EXTRACT: note_on channel=0 note=62 velocity=95 time=0
EXTRACT: note_on channel=0 note=57 velocity=95 time=0
EXTRACT: note_on channel=0 note=50 velocity=95 time=0
EXTRACT: note_on channel=0 note=45 velocity=95 time=0
EXTRACT: note_off channel=11 note=53 velocity=95 time=0
EXTRACT: note_on channel=11 note=60 velocity=95 time=0
EXTRACT: note_off channel=0 note=69 velocity=95 time=0.39999999999999997
EXTRACT: note_off channel=0 note=65 velocity=95 time=0
EXTRACT: note_off channel=0 note=62 velocity=95 time=0
EXTRACT: note_off channel=0 note=57 velocity=95 time=0
EXTRACT: note_off channel=0 note=50 velocity=95 time=0
EXTRACT: note_off channel=0 note=45 velocity=95 time=0
EXTRACT: note_on channel=0 note=70 velocity=95 time=0
EXTRACT: note_on channel=0 note=65 velocity=95 time=0
EXTRACT: note_on channel=0 note=62 velocity=95 time=0
EXTRACT: note_on channel=0 note=58 velocity=95 time=0
EXTRACT: note_on channel=0 note=53 velocity=95 time=0
EXTRACT: note_on channel=0 note=46 velocity=95 time=0
EXTRACT: note_off channel=6 note=69 velocity=95 time=0
EXTRACT: note_off channel=6 note=65 velocity=95 time=0
EXTRACT: note_off channel=6 note=62 velocity=95 time=0
EXTRACT: note_off channel=6 note=57 velocity=95 time=0
EXTRACT: note_on channel=6 note=58 velocity=95 time=0
EXTRACT: note_on channel=6 note=62 velocity=95 time=0.006666666666666666
EXTRACT: note_on channel=6 note=65 velocity=95 time=0.006666666666666666
EXTRACT: note_on channel=6 note=70 velocity=95 time=0.006666666666666666
EXTRACT: note_off channel=0 note=70 velocity=95 time=0.37999999999999995
EXTRACT: note_off channel=0 note=65 velocity=95 time=0
EXTRACT: note_off channel=0 note=62 velocity=95 time=0
EXTRACT: note_off channel=0 note=58 velocity=95 time=0
EXTRACT: note_off channel=0 note=53 velocity=95 time=0
EXTRACT: note_off channel=0 note=46 velocity=95 time=0
EXTRACT: note_on channel=0 note=70 velocity=95 time=0
EXTRACT: note_on channel=0 note=65 velocity=95 time=0
EXTRACT: note_on channel=0 note=62 velocity=95 time=0
EXTRACT: note_on channel=0 note=58 velocity=95 time=0
EXTRACT: note_on channel=0 note=53 velocity=95 time=0
EXTRACT: note_on channel=0 note=46 velocity=95 time=0
EXTRACT: note_off channel=11 note=60 velocity=95 time=0
EXTRACT: note_on channel=11 note=57 velocity=95 time=0
EXTRACT: note_off channel=0 note=70 velocity=95 time=0.39999999999999997
EXTRACT: note_off channel=0 note=65 velocity=95 time=0
EXTRACT: note_off channel=0 note=62 velocity=95 time=0
EXTRACT: note_off channel=0 note=58 velocity=95 time=0
EXTRACT: note_off channel=0 note=53 velocity=95 time=0
EXTRACT: note_off channel=0 note=46 velocity=95 time=0
EXTRACT: note_on channel=0 note=70 velocity=95 time=0
EXTRACT: note_on channel=0 note=65 velocity=95 time=0
EXTRACT: note_on channel=0 note=62 velocity=95 time=0
EXTRACT: note_on channel=0 note=58 velocity=95 time=0
EXTRACT: note_on channel=0 note=53 velocity=95 time=0
EXTRACT: note_on channel=0 note=46 velocity=95 time=0
EXTRACT: note_off channel=0 note=70 velocity=95 time=0.39999999999999997
EXTRACT: note_off channel=0 note=65 velocity=95 time=0
EXTRACT: note_off channel=0 note=62 velocity=95 time=0
EXTRACT: note_off channel=0 note=58 velocity=95 time=0
EXTRACT: note_off channel=0 note=53 velocity=95 time=0
EXTRACT: note_off channel=0 note=46 velocity=95 time=0
EXTRACT: note_on channel=0 note=70 velocity=95 time=0
EXTRACT: note_on channel=0 note=65 velocity=95 time=0
EXTRACT: note_on channel=0 note=62 velocity=95 time=0
EXTRACT: note_on channel=0 note=58 velocity=95 time=0
EXTRACT: note_on channel=0 note=53 velocity=95 time=0
EXTRACT: note_on channel=0 note=46 velocity=95 time=0
EXTRACT: note_off channel=0 note=70 velocity=95 time=0.39999999999999997
EXTRACT: note_off channel=0 note=65 velocity=95 time=0
EXTRACT: note_off channel=0 note=62 velocity=95 time=0
EXTRACT: note_off channel=0 note=58 velocity=95 time=0
EXTRACT: note_off channel=0 note=53 velocity=95 time=0
EXTRACT: note_off channel=0 note=46 velocity=95 time=0
EXTRACT: note_on channel=0 note=70 velocity=95 time=0
EXTRACT: note_on channel=0 note=65 velocity=95 time=0
EXTRACT: note_on channel=0 note=62 velocity=95 time=0
EXTRACT: note_on channel=0 note=58 velocity=95 time=0
EXTRACT: note_on channel=0 note=53 velocity=95 time=0
EXTRACT: note_on channel=0 note=46 velocity=95 time=0
EXTRACT: note_off channel=6 note=70 velocity=95 time=0
EXTRACT: note_off channel=6 note=65 velocity=95 time=0
EXTRACT: note_off channel=6 note=62 velocity=95 time=0
EXTRACT: note_off channel=6 note=58 velocity=95 time=0
EXTRACT: note_off channel=11 note=57 velocity=95 time=0
EXTRACT: note_on channel=11 note=53 velocity=95 time=0
EXTRACT: note_off channel=0 note=70 velocity=95 time=0.39999999999999997
EXTRACT: note_off channel=0 note=65 velocity=95 time=0
EXTRACT: note_off channel=0 note=62 velocity=95 time=0
EXTRACT: note_off channel=0 note=58 velocity=95 time=0
EXTRACT: note_off channel=0 note=53 velocity=95 time=0
EXTRACT: note_off channel=0 note=46 velocity=95 time=0
EXTRACT: note_on channel=0 note=70 velocity=95 time=0
EXTRACT: note_on channel=0 note=65 velocity=95 time=0
EXTRACT: note_on channel=0 note=62 velocity=95 time=0
EXTRACT: note_on channel=0 note=58 velocity=95 time=0
EXTRACT: note_on channel=0 note=53 velocity=95 time=0
EXTRACT: note_on channel=0 note=46 velocity=95 time=0
EXTRACT: note_off channel=11 note=53 velocity=95 time=0
EXTRACT: note_on channel=11 note=55 velocity=95 time=0
EXTRACT: note_off channel=0 note=70 velocity=95 time=0.39999999999999997
EXTRACT: note_off channel=0 note=65 velocity=95 time=0
EXTRACT: note_off channel=0 note=62 velocity=95 time=0
EXTRACT: note_off channel=0 note=58 velocity=95 time=0
EXTRACT: note_off channel=0 note=53 velocity=95 time=0
EXTRACT: note_off channel=0 note=46 velocity=95 time=0
EXTRACT: note_on channel=0 note=70 velocity=95 time=0
EXTRACT: note_on channel=0 note=65 velocity=95 time=0
EXTRACT: note_on channel=0 note=62 velocity=95 time=0
EXTRACT: note_on channel=0 note=58 velocity=95 time=0
EXTRACT: note_on channel=0 note=53 velocity=95 time=0
EXTRACT: note_on channel=0 note=46 velocity=95 time=0
EXTRACT: note_on channel=6 note=70 velocity=95 time=0
EXTRACT: note_off channel=11 note=55 velocity=95 time=0
EXTRACT: note_on channel=11 note=53 velocity=95 time=0
EXTRACT: note_off channel=0 note=70 velocity=95 time=0.39999999999999997
EXTRACT: note_off channel=0 note=65 velocity=95 time=0
EXTRACT: note_off channel=0 note=62 velocity=95 time=0
EXTRACT: note_off channel=0 note=58 velocity=95 time=0
EXTRACT: note_off channel=0 note=53 velocity=95 time=0
EXTRACT: note_off channel=0 note=46 velocity=95 time=0
EXTRACT: note_on channel=0 note=70 velocity=95 time=0
EXTRACT: note_on channel=0 note=65 velocity=95 time=0
EXTRACT: note_on channel=0 note=62 velocity=95 time=0
EXTRACT: note_on channel=0 note=58 velocity=95 time=0
EXTRACT: note_on channel=0 note=53 velocity=95 time=0
EXTRACT: note_on channel=0 note=46 velocity=95 time=0
EXTRACT: note_off channel=6 note=70 velocity=95 time=0
EXTRACT: note_on channel=6 note=72 velocity=95 time=0
EXTRACT: note_off channel=11 note=53 velocity=95 time=0
EXTRACT: note_on channel=11 note=60 velocity=95 time=0
EXTRACT: note_off channel=0 note=70 velocity=95 time=0.39999999999999997
EXTRACT: note_off channel=0 note=65 velocity=95 time=0
EXTRACT: note_off channel=0 note=62 velocity=95 time=0
EXTRACT: note_off channel=0 note=58 velocity=95 time=0
EXTRACT: note_off channel=0 note=53 velocity=95 time=0
EXTRACT: note_off channel=0 note=46 velocity=95 time=0
EXTRACT: note_on channel=0 note=69 velocity=95 time=0
EXTRACT: note_on channel=0 note=65 velocity=95 time=0
EXTRACT: note_on channel=0 note=60 velocity=95 time=0
EXTRACT: note_on channel=0 note=53 velocity=95 time=0
EXTRACT: note_on channel=0 note=48 velocity=95 time=0
EXTRACT: note_off channel=6 note=72 velocity=95 time=0
EXTRACT: note_on channel=6 note=53 velocity=95 time=0
EXTRACT: note_on channel=6 note=57 velocity=95 time=0.006666666666666666
EXTRACT: note_on channel=6 note=60 velocity=95 time=0.006666666666666666
EXTRACT: note_on channel=6 note=65 velocity=95 time=0.006666666666666666
EXTRACT: note_off channel=0 note=69 velocity=95 time=0.37999999999999995
EXTRACT: note_off channel=0 note=65 velocity=95 time=0
EXTRACT: note_off channel=0 note=60 velocity=95 time=0
EXTRACT: note_off channel=0 note=53 velocity=95 time=0
EXTRACT: note_off channel=0 note=48 velocity=95 time=0
EXTRACT: note_on channel=0 note=69 velocity=95 time=0
EXTRACT: note_on channel=0 note=65 velocity=95 time=0
EXTRACT: note_on channel=0 note=60 velocity=95 time=0
EXTRACT: note_on channel=0 note=53 velocity=95 time=0
EXTRACT: note_on channel=0 note=48 velocity=95 time=0
EXTRACT: note_off channel=11 note=60 velocity=95 time=0
EXTRACT: note_on channel=11 note=57 velocity=95 time=0
EXTRACT: note_off channel=0 note=69 velocity=95 time=0.39999999999999997
EXTRACT: note_off channel=0 note=65 velocity=95 time=0
EXTRACT: note_off channel=0 note=60 velocity=95 time=0
EXTRACT: note_off channel=0 note=53 velocity=95 time=0
EXTRACT: note_off channel=0 note=48 velocity=95 time=0
EXTRACT: note_on channel=0 note=69 velocity=95 time=0
EXTRACT: note_on channel=0 note=65 velocity=95 time=0
EXTRACT: note_on channel=0 note=60 velocity=95 time=0
EXTRACT: note_on channel=0 note=53 velocity=95 time=0
EXTRACT: note_on channel=0 note=48 velocity=95 time=0
EXTRACT: note_off channel=11 note=57 velocity=95 time=0
EXTRACT: note_off channel=0 note=69 velocity=95 time=0.39999999999999997
EXTRACT: note_off channel=0 note=65 velocity=95 time=0
EXTRACT: note_off channel=0 note=60 velocity=95 time=0
EXTRACT: note_off channel=0 note=53 velocity=95 time=0
EXTRACT: note_off channel=0 note=48 velocity=95 time=0
EXTRACT: note_on channel=0 note=69 velocity=95 time=0
EXTRACT: note_on channel=0 note=65 velocity=95 time=0
EXTRACT: note_on channel=0 note=60 velocity=95 time=0
EXTRACT: note_on channel=0 note=53 velocity=95 time=0
EXTRACT: note_on channel=0 note=48 velocity=95 time=0
EXTRACT: note_on channel=11 note=53 velocity=95 time=0.19999999999999998
EXTRACT: note_off channel=0 note=69 velocity=95 time=0.19999999999999998
EXTRACT: note_off channel=0 note=65 velocity=95 time=0
EXTRACT: note_off channel=0 note=60 velocity=95 time=0
EXTRACT: note_off channel=0 note=53 velocity=95 time=0
EXTRACT: note_off channel=0 note=48 velocity=95 time=0
EXTRACT: note_on channel=0 note=69 velocity=95 time=0
EXTRACT: note_on channel=0 note=65 velocity=95 time=0
EXTRACT: note_on channel=0 note=60 velocity=95 time=0
EXTRACT: note_on channel=0 note=53 velocity=95 time=0
EXTRACT: note_on channel=0 note=48 velocity=95 time=0
EXTRACT: note_off channel=11 note=53 velocity=95 time=0
EXTRACT: note_on channel=11 note=53 velocity=95 time=0
EXTRACT: note_off channel=0 note=69 velocity=95 time=0.39999999999999997
EXTRACT: note_off channel=0 note=65 velocity=95 time=0
EXTRACT: note_off channel=0 note=60 velocity=95 time=0
EXTRACT: note_off channel=0 note=53 velocity=95 time=0
EXTRACT: note_off channel=0 note=48 velocity=95 time=0
EXTRACT: note_on channel=0 note=69 velocity=95 time=0
EXTRACT: note_on channel=0 note=65 velocity=95 time=0
EXTRACT: note_on channel=0 note=60 velocity=95 time=0
EXTRACT: note_on channel=0 note=53 velocity=95 time=0
EXTRACT: note_on channel=0 note=48 velocity=95 time=0
EXTRACT: note_off channel=11 note=53 velocity=95 time=0
EXTRACT: note_on channel=11 note=55 velocity=95 time=0
EXTRACT: note_off channel=0 note=69 velocity=95 time=0.39999999999999997
EXTRACT: note_off channel=0 note=65 velocity=95 time=0
EXTRACT: note_off channel=0 note=60 velocity=95 time=0
EXTRACT: note_off channel=0 note=53 velocity=95 time=0
EXTRACT: note_off channel=0 note=48 velocity=95 time=0
EXTRACT: note_on channel=0 note=69 velocity=95 time=0
EXTRACT: note_on channel=0 note=65 velocity=95 time=0
EXTRACT: note_on channel=0 note=60 velocity=95 time=0
EXTRACT: note_on channel=0 note=53 velocity=95 time=0
EXTRACT: note_on channel=0 note=48 velocity=95 time=0
EXTRACT: note_off channel=11 note=55 velocity=95 time=0
EXTRACT: note_on channel=11 note=53 velocity=95 time=0
EXTRACT: note_off channel=0 note=69 velocity=95 time=0.39999999999999997
EXTRACT: note_off channel=0 note=65 velocity=95 time=0
EXTRACT: note_off channel=0 note=60 velocity=95 time=0
EXTRACT: note_off channel=0 note=53 velocity=95 time=0
EXTRACT: note_off channel=0 note=48 velocity=95 time=0
EXTRACT: note_on channel=0 note=69 velocity=95 time=0
EXTRACT: note_on channel=0 note=65 velocity=95 time=0
EXTRACT: note_on channel=0 note=60 velocity=95 time=0
EXTRACT: note_on channel=0 note=53 velocity=95 time=0
EXTRACT: note_on channel=0 note=48 velocity=95 time=0
EXTRACT: note_off channel=11 note=53 velocity=95 time=0
EXTRACT: note_on channel=11 note=57 velocity=95 time=0
EXTRACT: note_off channel=0 note=69 velocity=95 time=0.39999999999999997
EXTRACT: note_off channel=0 note=65 velocity=95 time=0
EXTRACT: note_off channel=0 note=60 velocity=95 time=0
EXTRACT: note_off channel=0 note=53 velocity=95 time=0
EXTRACT: note_off channel=0 note=48 velocity=95 time=0
EXTRACT: note_on channel=0 note=67 velocity=95 time=0
EXTRACT: note_on channel=0 note=65 velocity=95 time=0
EXTRACT: note_on channel=0 note=60 velocity=95 time=0
EXTRACT: note_on channel=0 note=53 velocity=95 time=0
EXTRACT: note_on channel=0 note=48 velocity=95 time=0
EXTRACT: note_off channel=6 note=65 velocity=95 time=0
EXTRACT: note_off channel=6 note=60 velocity=95 time=0
EXTRACT: note_off channel=6 note=57 velocity=95 time=0
EXTRACT: note_off channel=6 note=53 velocity=95 time=0
EXTRACT: note_on channel=6 note=53 velocity=95 time=0
EXTRACT: note_on channel=6 note=55 velocity=95 time=0.006666666666666666
EXTRACT: note_on channel=6 note=60 velocity=95 time=0.006666666666666666
EXTRACT: note_on channel=6 note=65 velocity=95 time=0.006666666666666666
EXTRACT: note_off channel=0 note=67 velocity=95 time=0.37999999999999995
EXTRACT: note_off channel=0 note=65 velocity=95 time=0
EXTRACT: note_off channel=0 note=60 velocity=95 time=0
EXTRACT: note_off channel=0 note=53 velocity=95 time=0
EXTRACT: note_off channel=0 note=48 velocity=95 time=0
EXTRACT: note_on channel=0 note=67 velocity=95 time=0
EXTRACT: note_on channel=0 note=65 velocity=95 time=0
EXTRACT: note_on channel=0 note=60 velocity=95 time=0
EXTRACT: note_on channel=0 note=53 velocity=95 time=0
EXTRACT: note_on channel=0 note=48 velocity=95 time=0
EXTRACT: note_off channel=11 note=57 velocity=95 time=0
EXTRACT: note_on channel=11 note=57 velocity=95 time=0
EXTRACT: note_off channel=0 note=67 velocity=95 time=0.39999999999999997
EXTRACT: note_off channel=0 note=65 velocity=95 time=0
EXTRACT: note_off channel=0 note=60 velocity=95 time=0
EXTRACT: note_off channel=0 note=53 velocity=95 time=0
EXTRACT: note_off channel=0 note=48 velocity=95 time=0
EXTRACT: note_on channel=0 note=67 velocity=95 time=0
EXTRACT: note_on channel=0 note=65 velocity=95 time=0
EXTRACT: note_on channel=0 note=60 velocity=95 time=0
EXTRACT: note_on channel=0 note=53 velocity=95 time=0
EXTRACT: note_on channel=0 note=48 velocity=95 time=0
EXTRACT: note_off channel=0 note=67 velocity=95 time=0.39999999999999997
EXTRACT: note_off channel=0 note=65 velocity=95 time=0
EXTRACT: note_off channel=0 note=60 velocity=95 time=0
EXTRACT: note_off channel=0 note=53 velocity=95 time=0
EXTRACT: note_off channel=0 note=48 velocity=95 time=0
EXTRACT: note_on channel=0 note=67 velocity=95 time=0
EXTRACT: note_on channel=0 note=65 velocity=95 time=0
EXTRACT: note_on channel=0 note=60 velocity=95 time=0
EXTRACT: note_on channel=0 note=53 velocity=95 time=0
EXTRACT: note_on channel=0 note=48 velocity=95 time=0
EXTRACT: note_off channel=11 note=57 velocity=95 time=0
EXTRACT: note_on channel=11 note=57 velocity=95 time=0
EXTRACT: note_off channel=0 note=67 velocity=95 time=0.39999999999999997
EXTRACT: note_off channel=0 note=65 velocity=95 time=0
EXTRACT: note_off channel=0 note=60 velocity=95 time=0
EXTRACT: note_off channel=0 note=53 velocity=95 time=0
EXTRACT: note_off channel=0 note=48 velocity=95 time=0
EXTRACT: note_on channel=0 note=67 velocity=95 time=0
EXTRACT: note_on channel=0 note=65 velocity=95 time=0
EXTRACT: note_on channel=0 note=60 velocity=95 time=0
EXTRACT: note_on channel=0 note=53 velocity=95 time=0
EXTRACT: note_on channel=0 note=48 velocity=95 time=0
EXTRACT: note_off channel=0 note=67 velocity=95 time=0.39999999999999997
EXTRACT: note_off channel=0 note=65 velocity=95 time=0
EXTRACT: note_off channel=0 note=60 velocity=95 time=0
EXTRACT: note_off channel=0 note=53 velocity=95 time=0
EXTRACT: note_off channel=0 note=48 velocity=95 time=0
EXTRACT: note_on channel=0 note=67 velocity=95 time=0
EXTRACT: note_on channel=0 note=65 velocity=95 time=0
EXTRACT: note_on channel=0 note=60 velocity=95 time=0
EXTRACT: note_on channel=0 note=53 velocity=95 time=0
EXTRACT: note_on channel=0 note=48 velocity=95 time=0
EXTRACT: note_off channel=0 note=67 velocity=95 time=0.39999999999999997
EXTRACT: note_off channel=0 note=65 velocity=95 time=0
EXTRACT: note_off channel=0 note=60 velocity=95 time=0
EXTRACT: note_off channel=0 note=53 velocity=95 time=0
EXTRACT: note_off channel=0 note=48 velocity=95 time=0
EXTRACT: note_on channel=0 note=67 velocity=95 time=0
EXTRACT: note_on channel=0 note=65 velocity=95 time=0
EXTRACT: note_on channel=0 note=60 velocity=95 time=0
EXTRACT: note_on channel=0 note=53 velocity=95 time=0
EXTRACT: note_on channel=0 note=48 velocity=95 time=0
EXTRACT: note_off channel=11 note=57 velocity=95 time=0
EXTRACT: note_on channel=11 note=55 velocity=95 time=0
EXTRACT: note_off channel=0 note=67 velocity=95 time=0.39999999999999997
EXTRACT: note_off channel=0 note=65 velocity=95 time=0
EXTRACT: note_off channel=0 note=60 velocity=95 time=0
EXTRACT: note_off channel=0 note=53 velocity=95 time=0
EXTRACT: note_off channel=0 note=48 velocity=95 time=0
EXTRACT: note_on channel=0 note=67 velocity=95 time=0
EXTRACT: note_on channel=0 note=65 velocity=95 time=0
EXTRACT: note_on channel=0 note=60 velocity=95 time=0
EXTRACT: note_on channel=0 note=53 velocity=95 time=0
EXTRACT: note_on channel=0 note=48 velocity=95 time=0
EXTRACT: note_off channel=11 note=55 velocity=95 time=0
EXTRACT: note_on channel=11 note=53 velocity=95 time=0
EXTRACT: note_off channel=0 note=67 velocity=95 time=0.39999999999999997
EXTRACT: note_off channel=0 note=65 velocity=95 time=0
EXTRACT: note_off channel=0 note=60 velocity=95 time=0
EXTRACT: note_off channel=0 note=53 velocity=95 time=0
EXTRACT: note_off channel=0 note=48 velocity=95 time=0
EXTRACT: note_on channel=0 note=70 velocity=95 time=0
EXTRACT: note_on channel=0 note=65 velocity=95 time=0
EXTRACT: note_on channel=0 note=62 velocity=95 time=0
EXTRACT: note_on channel=0 note=58 velocity=95 time=0
EXTRACT: note_on channel=0 note=53 velocity=95 time=0
EXTRACT: note_on channel=0 note=46 velocity=95 time=0
EXTRACT: note_off channel=6 note=65 velocity=95 time=0
EXTRACT: note_off channel=6 note=60 velocity=95 time=0
EXTRACT: note_off channel=6 note=55 velocity=95 time=0
EXTRACT: note_off channel=6 note=53 velocity=95 time=0
EXTRACT: note_on channel=6 note=58 velocity=95 time=0
EXTRACT: note_on channel=6 note=62 velocity=95 time=0.006666666666666666
EXTRACT: note_on channel=6 note=65 velocity=95 time=0.006666666666666666
EXTRACT: note_on channel=6 note=70 velocity=95 time=0.006666666666666666
EXTRACT: note_off channel=0 note=70 velocity=95 time=0.37999999999999995
EXTRACT: note_off channel=0 note=65 velocity=95 time=0
EXTRACT: note_off channel=0 note=62 velocity=95 time=0
EXTRACT: note_off channel=0 note=58 velocity=95 time=0
EXTRACT: note_off channel=0 note=53 velocity=95 time=0
EXTRACT: note_off channel=0 note=46 velocity=95 time=0
EXTRACT: note_on channel=0 note=70 velocity=95 time=0
EXTRACT: note_on channel=0 note=65 velocity=95 time=0
EXTRACT: note_on channel=0 note=62 velocity=95 time=0
EXTRACT: note_on channel=0 note=58 velocity=95 time=0
EXTRACT: note_on channel=0 note=53 velocity=95 time=0
EXTRACT: note_on channel=0 note=46 velocity=95 time=0
EXTRACT: note_off channel=0 note=70 velocity=95 time=0.39999999999999997
EXTRACT: note_off channel=0 note=65 velocity=95 time=0
EXTRACT: note_off channel=0 note=62 velocity=95 time=0
EXTRACT: note_off channel=0 note=58 velocity=95 time=0
EXTRACT: note_off channel=0 note=53 velocity=95 time=0
EXTRACT: note_off channel=0 note=46 velocity=95 time=0
EXTRACT: note_on channel=0 note=70 velocity=95 time=0
EXTRACT: note_on channel=0 note=65 velocity=95 time=0
EXTRACT: note_on channel=0 note=62 velocity=95 time=0
EXTRACT: note_on channel=0 note=58 velocity=95 time=0
EXTRACT: note_on channel=0 note=53 velocity=95 time=0
EXTRACT: note_on channel=0 note=46 velocity=95 time=0
EXTRACT: note_off channel=11 note=53 velocity=95 time=0
EXTRACT: note_off channel=0 note=70 velocity=95 time=0.39999999999999997
EXTRACT: note_off channel=0 note=65 velocity=95 time=0
EXTRACT: note_off channel=0 note=62 velocity=95 time=0
EXTRACT: note_off channel=0 note=58 velocity=95 time=0
EXTRACT: note_off channel=0 note=53 velocity=95 time=0
EXTRACT: note_off channel=0 note=46 velocity=95 time=0
EXTRACT: note_on channel=0 note=70 velocity=95 time=0
EXTRACT: note_on channel=0 note=65 velocity=95 time=0
EXTRACT: note_on channel=0 note=62 velocity=95 time=0
EXTRACT: note_on channel=0 note=58 velocity=95 time=0
EXTRACT: note_on channel=0 note=53 velocity=95 time=0
EXTRACT: note_on channel=0 note=46 velocity=95 time=0
EXTRACT: note_on channel=11 note=65 velocity=95 time=0
EXTRACT: note_off channel=0 note=70 velocity=95 time=0.39999999999999997
EXTRACT: note_off channel=0 note=65 velocity=95 time=0
EXTRACT: note_off channel=0 note=62 velocity=95 time=0
EXTRACT: note_off channel=0 note=58 velocity=95 time=0
EXTRACT: note_off channel=0 note=53 velocity=95 time=0
EXTRACT: note_off channel=0 note=46 velocity=95 time=0
EXTRACT: note_on channel=0 note=70 velocity=95 time=0
EXTRACT: note_on channel=0 note=65 velocity=95 time=0
EXTRACT: note_on channel=0 note=62 velocity=95 time=0
EXTRACT: note_on channel=0 note=58 velocity=95 time=0
EXTRACT: note_on channel=0 note=53 velocity=95 time=0
EXTRACT: note_on channel=0 note=46 velocity=95 time=0
EXTRACT: note_off channel=0 note=70 velocity=95 time=0.39999999999999997
EXTRACT: note_off channel=0 note=65 velocity=95 time=0
EXTRACT: note_off channel=0 note=62 velocity=95 time=0
EXTRACT: note_off channel=0 note=58 velocity=95 time=0
EXTRACT: note_off channel=0 note=53 velocity=95 time=0
EXTRACT: note_off channel=0 note=46 velocity=95 time=0
EXTRACT: note_on channel=0 note=70 velocity=95 time=0
EXTRACT: note_on channel=0 note=65 velocity=95 time=0
EXTRACT: note_on channel=0 note=62 velocity=95 time=0
EXTRACT: note_on channel=0 note=58 velocity=95 time=0
EXTRACT: note_on channel=0 note=53 velocity=95 time=0
EXTRACT: note_on channel=0 note=46 velocity=95 time=0
EXTRACT: note_off channel=11 note=65 velocity=95 time=0
EXTRACT: note_on channel=11 note=62 velocity=95 time=0
EXTRACT: note_off channel=0 note=70 velocity=95 time=0.39999999999999997
EXTRACT: note_off channel=0 note=65 velocity=95 time=0
EXTRACT: note_off channel=0 note=62 velocity=95 time=0
EXTRACT: note_off channel=0 note=58 velocity=95 time=0
EXTRACT: note_off channel=0 note=53 velocity=95 time=0
EXTRACT: note_off channel=0 note=46 velocity=95 time=0
EXTRACT: note_on channel=0 note=70 velocity=95 time=0
EXTRACT: note_on channel=0 note=65 velocity=95 time=0
EXTRACT: note_on channel=0 note=62 velocity=95 time=0
EXTRACT: note_on channel=0 note=58 velocity=95 time=0
EXTRACT: note_on channel=0 note=53 velocity=95 time=0
EXTRACT: note_on channel=0 note=46 velocity=95 time=0
EXTRACT: note_off channel=11 note=62 velocity=95 time=0
EXTRACT: note_on channel=11 note=60 velocity=95 time=0
EXTRACT: note_off channel=0 note=70 velocity=95 time=0.39999999999999997
EXTRACT: note_off channel=0 note=65 velocity=95 time=0
EXTRACT: note_off channel=0 note=62 velocity=95 time=0
EXTRACT: note_off channel=0 note=58 velocity=95 time=0
EXTRACT: note_off channel=0 note=53 velocity=95 time=0
EXTRACT: note_off channel=0 note=46 velocity=95 time=0
EXTRACT: note_on channel=0 note=70 velocity=95 time=0
EXTRACT: note_on channel=0 note=65 velocity=95 time=0
EXTRACT: note_on channel=0 note=62 velocity=95 time=0
EXTRACT: note_on channel=0 note=58 velocity=95 time=0
EXTRACT: note_on channel=0 note=53 velocity=95 time=0
EXTRACT: note_on channel=0 note=46 velocity=95 time=0
EXTRACT: note_off channel=11 note=60 velocity=95 time=0
EXTRACT: note_on channel=11 note=65 velocity=95 time=0
EXTRACT: note_off channel=0 note=70 velocity=95 time=0.39999999999999997
EXTRACT: note_off channel=0 note=65 velocity=95 time=0
EXTRACT: note_off channel=0 note=62 velocity=95 time=0
EXTRACT: note_off channel=0 note=58 velocity=95 time=0
EXTRACT: note_off channel=0 note=53 velocity=95 time=0
EXTRACT: note_off channel=0 note=46 velocity=95 time=0
EXTRACT: note_on channel=0 note=70 velocity=95 time=0
EXTRACT: note_on channel=0 note=65 velocity=95 time=0
EXTRACT: note_on channel=0 note=62 velocity=95 time=0
EXTRACT: note_on channel=0 note=58 velocity=95 time=0
EXTRACT: note_on channel=0 note=53 velocity=95 time=0
EXTRACT: note_on channel=0 note=46 velocity=95 time=0
EXTRACT: note_off channel=6 note=70 velocity=95 time=0
EXTRACT: note_off channel=6 note=65 velocity=95 time=0
EXTRACT: note_off channel=6 note=62 velocity=95 time=0
EXTRACT: note_off channel=6 note=58 velocity=95 time=0
EXTRACT: note_on channel=6 note=58 velocity=95 time=0
EXTRACT: note_on channel=6 note=62 velocity=95 time=0.006666666666666666
EXTRACT: note_on channel=6 note=65 velocity=95 time=0.006666666666666666
EXTRACT: note_on channel=6 note=70 velocity=95 time=0.006666666666666666
EXTRACT: note_off channel=0 note=70 velocity=95 time=0.37999999999999995
EXTRACT: note_off channel=0 note=65 velocity=95 time=0
EXTRACT: note_off channel=0 note=62 velocity=95 time=0
EXTRACT: note_off channel=0 note=58 velocity=95 time=0
EXTRACT: note_off channel=0 note=53 velocity=95 time=0
EXTRACT: note_off channel=0 note=46 velocity=95 time=0
EXTRACT: note_on channel=0 note=70 velocity=95 time=0
EXTRACT: note_on channel=0 note=65 velocity=95 time=0
EXTRACT: note_on channel=0 note=62 velocity=95 time=0
EXTRACT: note_on channel=0 note=58 velocity=95 time=0
EXTRACT: note_on channel=0 note=53 velocity=95 time=0
EXTRACT: note_on channel=0 note=46 velocity=95 time=0
EXTRACT: note_off channel=11 note=65 velocity=95 time=0
EXTRACT: note_on channel=11 note=62 velocity=95 time=0
EXTRACT: note_off channel=0 note=70 velocity=95 time=0.39999999999999997
EXTRACT: note_off channel=0 note=65 velocity=95 time=0
EXTRACT: note_off channel=0 note=62 velocity=95 time=0
EXTRACT: note_off channel=0 note=58 velocity=95 time=0
EXTRACT: note_off channel=0 note=53 velocity=95 time=0
EXTRACT: note_off channel=0 note=46 velocity=95 time=0
EXTRACT: note_on channel=0 note=70 velocity=95 time=0
EXTRACT: note_on channel=0 note=65 velocity=95 time=0
EXTRACT: note_on channel=0 note=62 velocity=95 time=0
EXTRACT: note_on channel=0 note=58 velocity=95 time=0
EXTRACT: note_on channel=0 note=53 velocity=95 time=0
EXTRACT: note_on channel=0 note=46 velocity=95 time=0
EXTRACT: note_off channel=11 note=62 velocity=95 time=0
EXTRACT: note_on channel=11 note=60 velocity=95 time=0
EXTRACT: note_off channel=0 note=70 velocity=95 time=0.39999999999999997
EXTRACT: note_off channel=0 note=65 velocity=95 time=0
EXTRACT: note_off channel=0 note=62 velocity=95 time=0
EXTRACT: note_off channel=0 note=58 velocity=95 time=0
EXTRACT: note_off channel=0 note=53 velocity=95 time=0
EXTRACT: note_off channel=0 note=46 velocity=95 time=0
EXTRACT: note_on channel=0 note=70 velocity=95 time=0
EXTRACT: note_on channel=0 note=65 velocity=95 time=0
EXTRACT: note_on channel=0 note=62 velocity=95 time=0
EXTRACT: note_on channel=0 note=58 velocity=95 time=0
EXTRACT: note_on channel=0 note=53 velocity=95 time=0
EXTRACT: note_on channel=0 note=46 velocity=95 time=0
EXTRACT: note_off channel=11 note=60 velocity=95 time=0
EXTRACT: note_on channel=11 note=65 velocity=95 time=0
EXTRACT: note_off channel=0 note=70 velocity=95 time=0.39999999999999997
EXTRACT: note_off channel=0 note=65 velocity=95 time=0
EXTRACT: note_off channel=0 note=62 velocity=95 time=0
EXTRACT: note_off channel=0 note=58 velocity=95 time=0
EXTRACT: note_off channel=0 note=53 velocity=95 time=0
EXTRACT: note_off channel=0 note=46 velocity=95 time=0
EXTRACT: note_on channel=0 note=70 velocity=95 time=0
EXTRACT: note_on channel=0 note=65 velocity=95 time=0
EXTRACT: note_on channel=0 note=62 velocity=95 time=0
EXTRACT: note_on channel=0 note=58 velocity=95 time=0
EXTRACT: note_on channel=0 note=53 velocity=95 time=0
EXTRACT: note_on channel=0 note=46 velocity=95 time=0
EXTRACT: note_off channel=6 note=70 velocity=95 time=0
EXTRACT: note_off channel=6 note=65 velocity=95 time=0
EXTRACT: note_off channel=6 note=62 velocity=95 time=0
EXTRACT: note_off channel=6 note=58 velocity=95 time=0
EXTRACT: note_off channel=0 note=70 velocity=95 time=0.39999999999999997
EXTRACT: note_off channel=0 note=65 velocity=95 time=0
EXTRACT: note_off channel=0 note=62 velocity=95 time=0
EXTRACT: note_off channel=0 note=58 velocity=95 time=0
EXTRACT: note_off channel=0 note=53 velocity=95 time=0
EXTRACT: note_off channel=0 note=46 velocity=95 time=0
EXTRACT: note_on channel=0 note=70 velocity=95 time=0
EXTRACT: note_on channel=0 note=65 velocity=95 time=0
EXTRACT: note_on channel=0 note=62 velocity=95 time=0
EXTRACT: note_on channel=0 note=58 velocity=95 time=0
EXTRACT: note_on channel=0 note=53 velocity=95 time=0
EXTRACT: note_on channel=0 note=46 velocity=95 time=0
EXTRACT: note_off channel=11 note=65 velocity=95 time=0
EXTRACT: note_on channel=11 note=62 velocity=95 time=0
EXTRACT: note_off channel=11 note=62 velocity=95 time=0.19999999999999998
EXTRACT: note_on channel=11 note=60 velocity=95 time=0
EXTRACT: note_off channel=0 note=70 velocity=95 time=0.19999999999999998
EXTRACT: note_off channel=0 note=65 velocity=95 time=0
EXTRACT: note_off channel=0 note=62 velocity=95 time=0
EXTRACT: note_off channel=0 note=58 velocity=95 time=0
EXTRACT: note_off channel=0 note=53 velocity=95 time=0
EXTRACT: note_off channel=0 note=46 velocity=95 time=0
EXTRACT: note_on channel=0 note=70 velocity=95 time=0
EXTRACT: note_on channel=0 note=65 velocity=95 time=0
EXTRACT: note_on channel=0 note=62 velocity=95 time=0
EXTRACT: note_on channel=0 note=58 velocity=95 time=0
EXTRACT: note_on channel=0 note=53 velocity=95 time=0
EXTRACT: note_on channel=0 note=46 velocity=95 time=0
EXTRACT: note_on channel=6 note=70 velocity=95 time=0
EXTRACT: note_off channel=0 note=70 velocity=95 time=0.39999999999999997
EXTRACT: note_off channel=0 note=65 velocity=95 time=0
EXTRACT: note_off channel=0 note=62 velocity=95 time=0
EXTRACT: note_off channel=0 note=58 velocity=95 time=0
EXTRACT: note_off channel=0 note=53 velocity=95 time=0
EXTRACT: note_off channel=0 note=46 velocity=95 time=0
EXTRACT: note_on channel=0 note=70 velocity=95 time=0
EXTRACT: note_on channel=0 note=65 velocity=95 time=0
EXTRACT: note_on channel=0 note=62 velocity=95 time=0
EXTRACT: note_on channel=0 note=58 velocity=95 time=0
EXTRACT: note_on channel=0 note=53 velocity=95 time=0
EXTRACT: note_on channel=0 note=46 velocity=95 time=0
EXTRACT: note_off channel=6 note=70 velocity=95 time=0
EXTRACT: note_on channel=6 note=72 velocity=95 time=0
EXTRACT: note_off channel=0 note=70 velocity=95 time=0.39999999999999997
EXTRACT: note_off channel=0 note=65 velocity=95 time=0
EXTRACT: note_off channel=0 note=62 velocity=95 time=0
EXTRACT: note_off channel=0 note=58 velocity=95 time=0
EXTRACT: note_off channel=0 note=53 velocity=95 time=0
EXTRACT: note_off channel=0 note=46 velocity=95 time=0
EXTRACT: note_on channel=0 note=69 velocity=95 time=0
EXTRACT: note_on channel=0 note=65 velocity=95 time=0
EXTRACT: note_on channel=0 note=60 velocity=95 time=0
EXTRACT: note_on channel=0 note=53 velocity=95 time=0
EXTRACT: note_on channel=0 note=48 velocity=95 time=0
EXTRACT: note_off channel=6 note=72 velocity=95 time=0
EXTRACT: note_on channel=6 note=53 velocity=95 time=0
EXTRACT: note_off channel=11 note=60 velocity=95 time=0
EXTRACT: note_on channel=6 note=57 velocity=95 time=0.006666666666666666
EXTRACT: note_on channel=6 note=60 velocity=95 time=0.006666666666666666
EXTRACT: note_on channel=6 note=65 velocity=95 time=0.006666666666666666
EXTRACT: note_off channel=0 note=69 velocity=95 time=0.37999999999999995
EXTRACT: note_off channel=0 note=65 velocity=95 time=0
EXTRACT: note_off channel=0 note=60 velocity=95 time=0
EXTRACT: note_off channel=0 note=53 velocity=95 time=0
EXTRACT: note_off channel=0 note=48 velocity=95 time=0
EXTRACT: note_on channel=0 note=69 velocity=95 time=0
EXTRACT: note_on channel=0 note=65 velocity=95 time=0
EXTRACT: note_on channel=0 note=60 velocity=95 time=0
EXTRACT: note_on channel=0 note=53 velocity=95 time=0
EXTRACT: note_on channel=0 note=48 velocity=95 time=0
EXTRACT: note_off channel=0 note=69 velocity=95 time=0.39999999999999997
EXTRACT: note_off channel=0 note=65 velocity=95 time=0
EXTRACT: note_off channel=0 note=60 velocity=95 time=0
EXTRACT: note_off channel=0 note=53 velocity=95 time=0
EXTRACT: note_off channel=0 note=48 velocity=95 time=0
EXTRACT: note_on channel=0 note=69 velocity=95 time=0
EXTRACT: note_on channel=0 note=65 velocity=95 time=0
EXTRACT: note_on channel=0 note=60 velocity=95 time=0
EXTRACT: note_on channel=0 note=53 velocity=95 time=0
EXTRACT: note_on channel=0 note=48 velocity=95 time=0
EXTRACT: note_off channel=0 note=69 velocity=95 time=0.39999999999999997
EXTRACT: note_off channel=0 note=65 velocity=95 time=0
EXTRACT: note_off channel=0 note=60 velocity=95 time=0
EXTRACT: note_off channel=0 note=53 velocity=95 time=0
EXTRACT: note_off channel=0 note=48 velocity=95 time=0
EXTRACT: note_on channel=0 note=69 velocity=95 time=0
EXTRACT: note_on channel=0 note=65 velocity=95 time=0
EXTRACT: note_on channel=0 note=60 velocity=95 time=0
EXTRACT: note_on channel=0 note=53 velocity=95 time=0
EXTRACT: note_on channel=0 note=48 velocity=95 time=0
EXTRACT: note_on channel=11 note=57 velocity=95 time=0
EXTRACT: note_off channel=0 note=69 velocity=95 time=0.39999999999999997
EXTRACT: note_off channel=0 note=65 velocity=95 time=0
EXTRACT: note_off channel=0 note=60 velocity=95 time=0
EXTRACT: note_off channel=0 note=53 velocity=95 time=0
EXTRACT: note_off channel=0 note=48 velocity=95 time=0
EXTRACT: note_on channel=0 note=69 velocity=95 time=0
EXTRACT: note_on channel=0 note=65 velocity=95 time=0
EXTRACT: note_on channel=0 note=60 velocity=95 time=0
EXTRACT: note_on channel=0 note=53 velocity=95 time=0
EXTRACT: note_on channel=0 note=48 velocity=95 time=0
EXTRACT: note_off channel=0 note=69 velocity=95 time=0.39999999999999997
EXTRACT: note_off channel=0 note=65 velocity=95 time=0
EXTRACT: note_off channel=0 note=60 velocity=95 time=0
EXTRACT: note_off channel=0 note=53 velocity=95 time=0
EXTRACT: note_off channel=0 note=48 velocity=95 time=0
EXTRACT: note_on channel=0 note=69 velocity=95 time=0
EXTRACT: note_on channel=0 note=65 velocity=95 time=0
EXTRACT: note_on channel=0 note=60 velocity=95 time=0
EXTRACT: note_on channel=0 note=53 velocity=95 time=0
EXTRACT: note_on channel=0 note=48 velocity=95 time=0
EXTRACT: note_off channel=11 note=57 velocity=95 time=0
EXTRACT: note_on channel=11 note=60 velocity=95 time=0
EXTRACT: note_off channel=0 note=69 velocity=95 time=0.39999999999999997
EXTRACT: note_off channel=0 note=65 velocity=95 time=0
EXTRACT: note_off channel=0 note=60 velocity=95 time=0
EXTRACT: note_off channel=0 note=53 velocity=95 time=0
EXTRACT: note_off channel=0 note=48 velocity=95 time=0
EXTRACT: note_on channel=0 note=69 velocity=95 time=0
EXTRACT: note_on channel=0 note=65 velocity=95 time=0
EXTRACT: note_on channel=0 note=60 velocity=95 time=0
EXTRACT: note_on channel=0 note=53 velocity=95 time=0
EXTRACT: note_on channel=0 note=48 velocity=95 time=0
EXTRACT: note_off channel=11 note=60 velocity=95 time=0
EXTRACT: note_on channel=11 note=57 velocity=95 time=0
EXTRACT: note_off channel=0 note=69 velocity=95 time=0.39999999999999997
EXTRACT: note_off channel=0 note=65 velocity=95 time=0
EXTRACT: note_off channel=0 note=60 velocity=95 time=0
EXTRACT: note_off channel=0 note=53 velocity=95 time=0
EXTRACT: note_off channel=0 note=48 velocity=95 time=0
EXTRACT: note_on channel=0 note=69 velocity=95 time=0
EXTRACT: note_on channel=0 note=65 velocity=95 time=0
EXTRACT: note_on channel=0 note=60 velocity=95 time=0
EXTRACT: note_on channel=0 note=53 velocity=95 time=0
EXTRACT: note_on channel=0 note=48 velocity=95 time=0
EXTRACT: note_off channel=11 note=57 velocity=95 time=0
EXTRACT: note_on channel=11 note=62 velocity=95 time=0
EXTRACT: note_off channel=0 note=69 velocity=95 time=0.39999999999999997
EXTRACT: note_off channel=0 note=65 velocity=95 time=0
EXTRACT: note_off channel=0 note=60 velocity=95 time=0
EXTRACT: note_off channel=0 note=53 velocity=95 time=0
EXTRACT: note_off channel=0 note=48 velocity=95 time=0
EXTRACT: note_on channel=0 note=67 velocity=95 time=0
EXTRACT: note_on channel=0 note=65 velocity=95 time=0
EXTRACT: note_on channel=0 note=60 velocity=95 time=0
EXTRACT: note_on channel=0 note=53 velocity=95 time=0
EXTRACT: note_on channel=0 note=48 velocity=95 time=0
EXTRACT: note_off channel=6 note=65 velocity=95 time=0
EXTRACT: note_off channel=6 note=60 velocity=95 time=0
EXTRACT: note_off channel=6 note=57 velocity=95 time=0
EXTRACT: note_off channel=6 note=53 velocity=95 time=0
EXTRACT: note_on channel=6 note=53 velocity=95 time=0
EXTRACT: note_off channel=11 note=62 velocity=95 time=0
EXTRACT: note_on channel=11 note=62 velocity=70 time=0
EXTRACT: note_on channel=6 note=55 velocity=95 time=0.006666666666666666
EXTRACT: note_on channel=6 note=60 velocity=95 time=0.006666666666666666
EXTRACT: note_on channel=6 note=65 velocity=95 time=0.006666666666666666
EXTRACT: note_off channel=0 note=67 velocity=95 time=0.37999999999999995
EXTRACT: note_off channel=0 note=65 velocity=95 time=0
EXTRACT: note_off channel=0 note=60 velocity=95 time=0
EXTRACT: note_off channel=0 note=53 velocity=95 time=0
EXTRACT: note_off channel=0 note=48 velocity=95 time=0
EXTRACT: note_on channel=0 note=67 velocity=95 time=0
EXTRACT: note_on channel=0 note=65 velocity=95 time=0
EXTRACT: note_on channel=0 note=60 velocity=95 time=0
EXTRACT: note_on channel=0 note=53 velocity=95 time=0
EXTRACT: note_on channel=0 note=48 velocity=95 time=0
EXTRACT: note_off channel=11 note=62 velocity=70 time=0
EXTRACT: note_on channel=11 note=57 velocity=95 time=0
EXTRACT: note_off channel=0 note=67 velocity=95 time=0.39999999999999997
EXTRACT: note_off channel=0 note=65 velocity=95 time=0
EXTRACT: note_off channel=0 note=60 velocity=95 time=0
EXTRACT: note_off channel=0 note=53 velocity=95 time=0
EXTRACT: note_off channel=0 note=48 velocity=95 time=0
EXTRACT: note_on channel=0 note=67 velocity=95 time=0
EXTRACT: note_on channel=0 note=65 velocity=95 time=0
EXTRACT: note_on channel=0 note=60 velocity=95 time=0
EXTRACT: note_on channel=0 note=53 velocity=95 time=0
EXTRACT: note_on channel=0 note=48 velocity=95 time=0
EXTRACT: note_off channel=11 note=57 velocity=95 time=0
EXTRACT: note_on channel=11 note=57 velocity=95 time=0
EXTRACT: note_off channel=0 note=67 velocity=95 time=0.39999999999999997
EXTRACT: note_off channel=0 note=65 velocity=95 time=0
EXTRACT: note_off channel=0 note=60 velocity=95 time=0
EXTRACT: note_off channel=0 note=53 velocity=95 time=0
EXTRACT: note_off channel=0 note=48 velocity=95 time=0
EXTRACT: note_on channel=0 note=67 velocity=95 time=0
EXTRACT: note_on channel=0 note=65 velocity=95 time=0
EXTRACT: note_on channel=0 note=60 velocity=95 time=0
EXTRACT: note_on channel=0 note=53 velocity=95 time=0
EXTRACT: note_on channel=0 note=48 velocity=95 time=0
EXTRACT: note_off channel=11 note=57 velocity=95 time=0
EXTRACT: note_on channel=11 note=57 velocity=95 time=0
EXTRACT: note_off channel=0 note=67 velocity=95 time=0.39999999999999997
EXTRACT: note_off channel=0 note=65 velocity=95 time=0
EXTRACT: note_off channel=0 note=60 velocity=95 time=0
EXTRACT: note_off channel=0 note=53 velocity=95 time=0
EXTRACT: note_off channel=0 note=48 velocity=95 time=0
EXTRACT: note_on channel=0 note=67 velocity=95 time=0
EXTRACT: note_on channel=0 note=65 velocity=95 time=0
EXTRACT: note_on channel=0 note=60 velocity=95 time=0
EXTRACT: note_on channel=0 note=53 velocity=95 time=0
EXTRACT: note_on channel=0 note=48 velocity=95 time=0
EXTRACT: note_off channel=11 note=57 velocity=95 time=0
EXTRACT: note_on channel=11 note=57 velocity=95 time=0
EXTRACT: note_off channel=0 note=67 velocity=95 time=0.39999999999999997
EXTRACT: note_off channel=0 note=65 velocity=95 time=0
EXTRACT: note_off channel=0 note=60 velocity=95 time=0
EXTRACT: note_off channel=0 note=53 velocity=95 time=0
EXTRACT: note_off channel=0 note=48 velocity=95 time=0
EXTRACT: note_on channel=0 note=67 velocity=95 time=0
EXTRACT: note_on channel=0 note=65 velocity=95 time=0
EXTRACT: note_on channel=0 note=60 velocity=95 time=0
EXTRACT: note_on channel=0 note=53 velocity=95 time=0
EXTRACT: note_on channel=0 note=48 velocity=95 time=0
EXTRACT: note_off channel=0 note=67 velocity=95 time=0.39999999999999997
EXTRACT: note_off channel=0 note=65 velocity=95 time=0
EXTRACT: note_off channel=0 note=60 velocity=95 time=0
EXTRACT: note_off channel=0 note=53 velocity=95 time=0
EXTRACT: note_off channel=0 note=48 velocity=95 time=0
EXTRACT: note_on channel=0 note=67 velocity=95 time=0
EXTRACT: note_on channel=0 note=65 velocity=95 time=0
EXTRACT: note_on channel=0 note=60 velocity=95 time=0
EXTRACT: note_on channel=0 note=53 velocity=95 time=0
EXTRACT: note_on channel=0 note=48 velocity=95 time=0
EXTRACT: note_off channel=11 note=57 velocity=95 time=0
EXTRACT: note_on channel=11 note=55 velocity=95 time=0
EXTRACT: note_off channel=0 note=67 velocity=95 time=0.39999999999999997
EXTRACT: note_off channel=0 note=65 velocity=95 time=0
EXTRACT: note_off channel=0 note=60 velocity=95 time=0
EXTRACT: note_off channel=0 note=53 velocity=95 time=0
EXTRACT: note_off channel=0 note=48 velocity=95 time=0
EXTRACT: note_on channel=0 note=67 velocity=95 time=0
EXTRACT: note_on channel=0 note=65 velocity=95 time=0
EXTRACT: note_on channel=0 note=60 velocity=95 time=0
EXTRACT: note_on channel=0 note=53 velocity=95 time=0
EXTRACT: note_on channel=0 note=48 velocity=95 time=0
EXTRACT: note_off channel=11 note=55 velocity=95 time=0
EXTRACT: note_on channel=11 note=53 velocity=95 time=0
EXTRACT: note_off channel=0 note=67 velocity=95 time=0.39999999999999997
EXTRACT: note_off channel=0 note=65 velocity=95 time=0
EXTRACT: note_off channel=0 note=60 velocity=95 time=0
EXTRACT: note_off channel=0 note=53 velocity=95 time=0
EXTRACT: note_off channel=0 note=48 velocity=95 time=0
EXTRACT: note_on channel=0 note=70 velocity=95 time=0
EXTRACT: note_on channel=0 note=65 velocity=95 time=0
EXTRACT: note_on channel=0 note=62 velocity=95 time=0
EXTRACT: note_on channel=0 note=58 velocity=95 time=0
EXTRACT: note_on channel=0 note=53 velocity=95 time=0
EXTRACT: note_on channel=0 note=46 velocity=95 time=0
EXTRACT: note_off channel=6 note=65 velocity=95 time=0
EXTRACT: note_off channel=6 note=60 velocity=95 time=0
EXTRACT: note_off channel=6 note=55 velocity=95 time=0
EXTRACT: note_off channel=6 note=53 velocity=95 time=0
EXTRACT: note_on channel=6 note=58 velocity=95 time=0
EXTRACT: note_on channel=6 note=62 velocity=95 time=0.006666666666666666
EXTRACT: note_on channel=6 note=65 velocity=95 time=0.006666666666666666
EXTRACT: note_on channel=6 note=70 velocity=95 time=0.006666666666666666
EXTRACT: note_off channel=0 note=70 velocity=95 time=0.37999999999999995
EXTRACT: note_off channel=0 note=65 velocity=95 time=0
EXTRACT: note_off channel=0 note=62 velocity=95 time=0
EXTRACT: note_off channel=0 note=58 velocity=95 time=0
EXTRACT: note_off channel=0 note=53 velocity=95 time=0
EXTRACT: note_off channel=0 note=46 velocity=95 time=0
EXTRACT: note_on channel=0 note=70 velocity=95 time=0
EXTRACT: note_on channel=0 note=65 velocity=95 time=0
EXTRACT: note_on channel=0 note=62 velocity=95 time=0
EXTRACT: note_on channel=0 note=58 velocity=95 time=0
EXTRACT: note_on channel=0 note=53 velocity=95 time=0
EXTRACT: note_on channel=0 note=46 velocity=95 time=0
EXTRACT: note_off channel=0 note=70 velocity=95 time=0.39999999999999997
EXTRACT: note_off channel=0 note=65 velocity=95 time=0
EXTRACT: note_off channel=0 note=62 velocity=95 time=0
EXTRACT: note_off channel=0 note=58 velocity=95 time=0
EXTRACT: note_off channel=0 note=53 velocity=95 time=0
EXTRACT: note_off channel=0 note=46 velocity=95 time=0
EXTRACT: note_on channel=0 note=70 velocity=95 time=0
EXTRACT: note_on channel=0 note=65 velocity=95 time=0
EXTRACT: note_on channel=0 note=62 velocity=95 time=0
EXTRACT: note_on channel=0 note=58 velocity=95 time=0
EXTRACT: note_on channel=0 note=53 velocity=95 time=0
EXTRACT: note_on channel=0 note=46 velocity=95 time=0
EXTRACT: note_off channel=11 note=53 velocity=95 time=0
EXTRACT: note_off channel=0 note=70 velocity=95 time=0.39999999999999997
EXTRACT: note_off channel=0 note=65 velocity=95 time=0
EXTRACT: note_off channel=0 note=62 velocity=95 time=0
EXTRACT: note_off channel=0 note=58 velocity=95 time=0
EXTRACT: note_off channel=0 note=53 velocity=95 time=0
EXTRACT: note_off channel=0 note=46 velocity=95 time=0
EXTRACT: note_on channel=0 note=70 velocity=95 time=0
EXTRACT: note_on channel=0 note=65 velocity=95 time=0
EXTRACT: note_on channel=0 note=62 velocity=95 time=0
EXTRACT: note_on channel=0 note=58 velocity=95 time=0
EXTRACT: note_on channel=0 note=53 velocity=95 time=0
EXTRACT: note_on channel=0 note=46 velocity=95 time=0
EXTRACT: note_on channel=11 note=65 velocity=95 time=0
EXTRACT: note_off channel=0 note=70 velocity=95 time=0.39999999999999997
EXTRACT: note_off channel=0 note=65 velocity=95 time=0
EXTRACT: note_off channel=0 note=62 velocity=95 time=0
EXTRACT: note_off channel=0 note=58 velocity=95 time=0
EXTRACT: note_off channel=0 note=53 velocity=95 time=0
EXTRACT: note_off channel=0 note=46 velocity=95 time=0
EXTRACT: note_on channel=0 note=70 velocity=95 time=0
EXTRACT: note_on channel=0 note=65 velocity=95 time=0
EXTRACT: note_on channel=0 note=62 velocity=95 time=0
EXTRACT: note_on channel=0 note=58 velocity=95 time=0
EXTRACT: note_on channel=0 note=53 velocity=95 time=0
EXTRACT: note_on channel=0 note=46 velocity=95 time=0
EXTRACT: note_off channel=0 note=70 velocity=95 time=0.39999999999999997
EXTRACT: note_off channel=0 note=65 velocity=95 time=0
EXTRACT: note_off channel=0 note=62 velocity=95 time=0
EXTRACT: note_off channel=0 note=58 velocity=95 time=0
EXTRACT: note_off channel=0 note=53 velocity=95 time=0
EXTRACT: note_off channel=0 note=46 velocity=95 time=0
EXTRACT: note_on channel=0 note=70 velocity=95 time=0
EXTRACT: note_on channel=0 note=65 velocity=95 time=0
EXTRACT: note_on channel=0 note=62 velocity=95 time=0
EXTRACT: note_on channel=0 note=58 velocity=95 time=0
EXTRACT: note_on channel=0 note=53 velocity=95 time=0
EXTRACT: note_on channel=0 note=46 velocity=95 time=0
EXTRACT: note_off channel=11 note=65 velocity=95 time=0
EXTRACT: note_on channel=11 note=62 velocity=95 time=0
EXTRACT: note_off channel=0 note=70 velocity=95 time=0.39999999999999997
EXTRACT: note_off channel=0 note=65 velocity=95 time=0
EXTRACT: note_off channel=0 note=62 velocity=95 time=0
EXTRACT: note_off channel=0 note=58 velocity=95 time=0
EXTRACT: note_off channel=0 note=53 velocity=95 time=0
EXTRACT: note_off channel=0 note=46 velocity=95 time=0
EXTRACT: note_on channel=0 note=70 velocity=95 time=0
EXTRACT: note_on channel=0 note=65 velocity=95 time=0
EXTRACT: note_on channel=0 note=62 velocity=95 time=0
EXTRACT: note_on channel=0 note=58 velocity=95 time=0
EXTRACT: note_on channel=0 note=53 velocity=95 time=0
EXTRACT: note_on channel=0 note=46 velocity=95 time=0
EXTRACT: note_off channel=11 note=62 velocity=95 time=0
EXTRACT: note_on channel=11 note=60 velocity=95 time=0
EXTRACT: note_off channel=0 note=70 velocity=95 time=0.39999999999999997
EXTRACT: note_off channel=0 note=65 velocity=95 time=0
EXTRACT: note_off channel=0 note=62 velocity=95 time=0
EXTRACT: note_off channel=0 note=58 velocity=95 time=0
EXTRACT: note_off channel=0 note=53 velocity=95 time=0
EXTRACT: note_off channel=0 note=46 velocity=95 time=0
EXTRACT: note_on channel=0 note=70 velocity=95 time=0
EXTRACT: note_on channel=0 note=65 velocity=95 time=0
EXTRACT: note_on channel=0 note=62 velocity=95 time=0
EXTRACT: note_on channel=0 note=58 velocity=95 time=0
EXTRACT: note_on channel=0 note=53 velocity=95 time=0
EXTRACT: note_on channel=0 note=46 velocity=95 time=0
EXTRACT: note_off channel=11 note=60 velocity=95 time=0
EXTRACT: note_on channel=11 note=65 velocity=95 time=0
EXTRACT: note_off channel=0 note=70 velocity=95 time=0.39999999999999997
EXTRACT: note_off channel=0 note=65 velocity=95 time=0
EXTRACT: note_off channel=0 note=62 velocity=95 time=0
EXTRACT: note_off channel=0 note=58 velocity=95 time=0
EXTRACT: note_off channel=0 note=53 velocity=95 time=0
EXTRACT: note_off channel=0 note=46 velocity=95 time=0
EXTRACT: note_on channel=0 note=70 velocity=95 time=0
EXTRACT: note_on channel=0 note=65 velocity=95 time=0
EXTRACT: note_on channel=0 note=62 velocity=95 time=0
EXTRACT: note_on channel=0 note=58 velocity=95 time=0
EXTRACT: note_on channel=0 note=53 velocity=95 time=0
EXTRACT: note_on channel=0 note=46 velocity=95 time=0
EXTRACT: note_off channel=6 note=70 velocity=95 time=0
EXTRACT: note_off channel=6 note=65 velocity=95 time=0
EXTRACT: note_off channel=6 note=62 velocity=95 time=0
EXTRACT: note_off channel=6 note=58 velocity=95 time=0
EXTRACT: note_on channel=6 note=58 velocity=95 time=0
EXTRACT: note_on channel=6 note=62 velocity=95 time=0.006666666666666666
EXTRACT: note_on channel=6 note=65 velocity=95 time=0.006666666666666666
EXTRACT: note_on channel=6 note=70 velocity=95 time=0.006666666666666666
EXTRACT: note_off channel=0 note=70 velocity=95 time=0.37999999999999995
EXTRACT: note_off channel=0 note=65 velocity=95 time=0
EXTRACT: note_off channel=0 note=62 velocity=95 time=0
EXTRACT: note_off channel=0 note=58 velocity=95 time=0
EXTRACT: note_off channel=0 note=53 velocity=95 time=0
EXTRACT: note_off channel=0 note=46 velocity=95 time=0
EXTRACT: note_on channel=0 note=70 velocity=95 time=0
EXTRACT: note_on channel=0 note=65 velocity=95 time=0
EXTRACT: note_on channel=0 note=62 velocity=95 time=0
EXTRACT: note_on channel=0 note=58 velocity=95 time=0
EXTRACT: note_on channel=0 note=53 velocity=95 time=0
EXTRACT: note_on channel=0 note=46 velocity=95 time=0
EXTRACT: note_off channel=11 note=65 velocity=95 time=0
EXTRACT: note_on channel=11 note=62 velocity=95 time=0
EXTRACT: note_off channel=0 note=70 velocity=95 time=0.39999999999999997
EXTRACT: note_off channel=0 note=65 velocity=95 time=0
EXTRACT: note_off channel=0 note=62 velocity=95 time=0
EXTRACT: note_off channel=0 note=58 velocity=95 time=0
EXTRACT: note_off channel=0 note=53 velocity=95 time=0
EXTRACT: note_off channel=0 note=46 velocity=95 time=0
EXTRACT: note_on channel=0 note=70 velocity=95 time=0
EXTRACT: note_on channel=0 note=65 velocity=95 time=0
EXTRACT: note_on channel=0 note=62 velocity=95 time=0
EXTRACT: note_on channel=0 note=58 velocity=95 time=0
EXTRACT: note_on channel=0 note=53 velocity=95 time=0
EXTRACT: note_on channel=0 note=46 velocity=95 time=0
EXTRACT: note_off channel=11 note=62 velocity=95 time=0
EXTRACT: note_on channel=11 note=60 velocity=95 time=0
EXTRACT: note_off channel=0 note=70 velocity=95 time=0.39999999999999997
EXTRACT: note_off channel=0 note=65 velocity=95 time=0
EXTRACT: note_off channel=0 note=62 velocity=95 time=0
EXTRACT: note_off channel=0 note=58 velocity=95 time=0
EXTRACT: note_off channel=0 note=53 velocity=95 time=0
EXTRACT: note_off channel=0 note=46 velocity=95 time=0
EXTRACT: note_on channel=0 note=70 velocity=95 time=0
EXTRACT: note_on channel=0 note=65 velocity=95 time=0
EXTRACT: note_on channel=0 note=62 velocity=95 time=0
EXTRACT: note_on channel=0 note=58 velocity=95 time=0
EXTRACT: note_on channel=0 note=53 velocity=95 time=0
EXTRACT: note_on channel=0 note=46 velocity=95 time=0
EXTRACT: note_off channel=11 note=60 velocity=95 time=0
EXTRACT: note_on channel=11 note=65 velocity=95 time=0
EXTRACT: note_off channel=0 note=70 velocity=95 time=0.39999999999999997
EXTRACT: note_off channel=0 note=65 velocity=95 time=0
EXTRACT: note_off channel=0 note=62 velocity=95 time=0
EXTRACT: note_off channel=0 note=58 velocity=95 time=0
EXTRACT: note_off channel=0 note=53 velocity=95 time=0
EXTRACT: note_off channel=0 note=46 velocity=95 time=0
EXTRACT: note_on channel=0 note=70 velocity=95 time=0
EXTRACT: note_on channel=0 note=65 velocity=95 time=0
EXTRACT: note_on channel=0 note=62 velocity=95 time=0
EXTRACT: note_on channel=0 note=58 velocity=95 time=0
EXTRACT: note_on channel=0 note=53 velocity=95 time=0
EXTRACT: note_on channel=0 note=46 velocity=95 time=0
EXTRACT: note_off channel=6 note=70 velocity=95 time=0
EXTRACT: note_off channel=6 note=65 velocity=95 time=0
EXTRACT: note_off channel=6 note=62 velocity=95 time=0
EXTRACT: note_off channel=6 note=58 velocity=95 time=0
EXTRACT: note_off channel=0 note=70 velocity=95 time=0.39999999999999997
EXTRACT: note_off channel=0 note=65 velocity=95 time=0
EXTRACT: note_off channel=0 note=62 velocity=95 time=0
EXTRACT: note_off channel=0 note=58 velocity=95 time=0
EXTRACT: note_off channel=0 note=53 velocity=95 time=0
EXTRACT: note_off channel=0 note=46 velocity=95 time=0
EXTRACT: note_on channel=0 note=70 velocity=95 time=0
EXTRACT: note_on channel=0 note=65 velocity=95 time=0
EXTRACT: note_on channel=0 note=62 velocity=95 time=0
EXTRACT: note_on channel=0 note=58 velocity=95 time=0
EXTRACT: note_on channel=0 note=53 velocity=95 time=0
EXTRACT: note_on channel=0 note=46 velocity=95 time=0
EXTRACT: note_off channel=11 note=65 velocity=95 time=0
EXTRACT: note_on channel=11 note=62 velocity=95 time=0
EXTRACT: note_off channel=11 note=62 velocity=95 time=0.19999999999999998
EXTRACT: note_on channel=11 note=60 velocity=95 time=0
EXTRACT: note_off channel=0 note=70 velocity=95 time=0.19999999999999998
EXTRACT: note_off channel=0 note=65 velocity=95 time=0
EXTRACT: note_off channel=0 note=62 velocity=95 time=0
EXTRACT: note_off channel=0 note=58 velocity=95 time=0
EXTRACT: note_off channel=0 note=53 velocity=95 time=0
EXTRACT: note_off channel=0 note=46 velocity=95 time=0
EXTRACT: note_on channel=0 note=70 velocity=95 time=0
EXTRACT: note_on channel=0 note=65 velocity=95 time=0
EXTRACT: note_on channel=0 note=62 velocity=95 time=0
EXTRACT: note_on channel=0 note=58 velocity=95 time=0
EXTRACT: note_on channel=0 note=53 velocity=95 time=0
EXTRACT: note_on channel=0 note=46 velocity=95 time=0
EXTRACT: note_on channel=6 note=70 velocity=95 time=0
EXTRACT: note_off channel=0 note=70 velocity=95 time=0.39999999999999997
EXTRACT: note_off channel=0 note=65 velocity=95 time=0
EXTRACT: note_off channel=0 note=62 velocity=95 time=0
EXTRACT: note_off channel=0 note=58 velocity=95 time=0
EXTRACT: note_off channel=0 note=53 velocity=95 time=0
EXTRACT: note_off channel=0 note=46 velocity=95 time=0
EXTRACT: note_on channel=0 note=70 velocity=95 time=0
EXTRACT: note_on channel=0 note=65 velocity=95 time=0
EXTRACT: note_on channel=0 note=62 velocity=95 time=0
EXTRACT: note_on channel=0 note=58 velocity=95 time=0
EXTRACT: note_on channel=0 note=53 velocity=95 time=0
EXTRACT: note_on channel=0 note=46 velocity=95 time=0
EXTRACT: note_off channel=6 note=70 velocity=95 time=0
EXTRACT: note_on channel=6 note=72 velocity=95 time=0
EXTRACT: note_off channel=0 note=70 velocity=95 time=0.39999999999999997
EXTRACT: note_off channel=0 note=65 velocity=95 time=0
EXTRACT: note_off channel=0 note=62 velocity=95 time=0
EXTRACT: note_off channel=0 note=58 velocity=95 time=0
EXTRACT: note_off channel=0 note=53 velocity=95 time=0
EXTRACT: note_off channel=0 note=46 velocity=95 time=0
EXTRACT: note_on channel=0 note=69 velocity=95 time=0
EXTRACT: note_on channel=0 note=65 velocity=95 time=0
EXTRACT: note_on channel=0 note=60 velocity=95 time=0
EXTRACT: note_on channel=0 note=53 velocity=95 time=0
EXTRACT: note_on channel=0 note=48 velocity=95 time=0
EXTRACT: note_off channel=6 note=72 velocity=95 time=0
EXTRACT: note_on channel=6 note=53 velocity=95 time=0
EXTRACT: note_off channel=11 note=60 velocity=95 time=0
EXTRACT: note_on channel=6 note=57 velocity=95 time=0.006666666666666666
EXTRACT: note_on channel=6 note=60 velocity=95 time=0.006666666666666666
EXTRACT: note_on channel=6 note=65 velocity=95 time=0.006666666666666666
EXTRACT: note_off channel=0 note=69 velocity=95 time=0.37999999999999995
EXTRACT: note_off channel=0 note=65 velocity=95 time=0
EXTRACT: note_off channel=0 note=60 velocity=95 time=0
EXTRACT: note_off channel=0 note=53 velocity=95 time=0
EXTRACT: note_off channel=0 note=48 velocity=95 time=0
EXTRACT: note_on channel=0 note=69 velocity=95 time=0
EXTRACT: note_on channel=0 note=65 velocity=95 time=0
EXTRACT: note_on channel=0 note=60 velocity=95 time=0
EXTRACT: note_on channel=0 note=53 velocity=95 time=0
EXTRACT: note_on channel=0 note=48 velocity=95 time=0
EXTRACT: note_off channel=0 note=69 velocity=95 time=0.39999999999999997
EXTRACT: note_off channel=0 note=65 velocity=95 time=0
EXTRACT: note_off channel=0 note=60 velocity=95 time=0
EXTRACT: note_off channel=0 note=53 velocity=95 time=0
EXTRACT: note_off channel=0 note=48 velocity=95 time=0
EXTRACT: note_on channel=0 note=69 velocity=95 time=0
EXTRACT: note_on channel=0 note=65 velocity=95 time=0
EXTRACT: note_on channel=0 note=60 velocity=95 time=0
EXTRACT: note_on channel=0 note=53 velocity=95 time=0
EXTRACT: note_on channel=0 note=48 velocity=95 time=0
EXTRACT: note_off channel=0 note=69 velocity=95 time=0.39999999999999997
EXTRACT: note_off channel=0 note=65 velocity=95 time=0
EXTRACT: note_off channel=0 note=60 velocity=95 time=0
EXTRACT: note_off channel=0 note=53 velocity=95 time=0
EXTRACT: note_off channel=0 note=48 velocity=95 time=0
EXTRACT: note_on channel=0 note=69 velocity=95 time=0
EXTRACT: note_on channel=0 note=65 velocity=95 time=0
EXTRACT: note_on channel=0 note=60 velocity=95 time=0
EXTRACT: note_on channel=0 note=53 velocity=95 time=0
EXTRACT: note_on channel=0 note=48 velocity=95 time=0
EXTRACT: note_on channel=11 note=57 velocity=95 time=0
EXTRACT: note_off channel=0 note=69 velocity=95 time=0.39999999999999997
EXTRACT: note_off channel=0 note=65 velocity=95 time=0
EXTRACT: note_off channel=0 note=60 velocity=95 time=0
EXTRACT: note_off channel=0 note=53 velocity=95 time=0
EXTRACT: note_off channel=0 note=48 velocity=95 time=0
EXTRACT: note_on channel=0 note=69 velocity=95 time=0
EXTRACT: note_on channel=0 note=65 velocity=95 time=0
EXTRACT: note_on channel=0 note=60 velocity=95 time=0
EXTRACT: note_on channel=0 note=53 velocity=95 time=0
EXTRACT: note_on channel=0 note=48 velocity=95 time=0
EXTRACT: note_off channel=0 note=69 velocity=95 time=0.39999999999999997
EXTRACT: note_off channel=0 note=65 velocity=95 time=0
EXTRACT: note_off channel=0 note=60 velocity=95 time=0
EXTRACT: note_off channel=0 note=53 velocity=95 time=0
EXTRACT: note_off channel=0 note=48 velocity=95 time=0
EXTRACT: note_on channel=0 note=69 velocity=95 time=0
EXTRACT: note_on channel=0 note=65 velocity=95 time=0
EXTRACT: note_on channel=0 note=60 velocity=95 time=0
EXTRACT: note_on channel=0 note=53 velocity=95 time=0
EXTRACT: note_on channel=0 note=48 velocity=95 time=0
EXTRACT: note_off channel=11 note=57 velocity=95 time=0
EXTRACT: note_on channel=11 note=60 velocity=95 time=0
EXTRACT: note_off channel=0 note=69 velocity=95 time=0.39999999999999997
EXTRACT: note_off channel=0 note=65 velocity=95 time=0
EXTRACT: note_off channel=0 note=60 velocity=95 time=0
EXTRACT: note_off channel=0 note=53 velocity=95 time=0
EXTRACT: note_off channel=0 note=48 velocity=95 time=0
EXTRACT: note_on channel=0 note=69 velocity=95 time=0
EXTRACT: note_on channel=0 note=65 velocity=95 time=0
EXTRACT: note_on channel=0 note=60 velocity=95 time=0
EXTRACT: note_on channel=0 note=53 velocity=95 time=0
EXTRACT: note_on channel=0 note=48 velocity=95 time=0
EXTRACT: note_off channel=11 note=60 velocity=95 time=0
EXTRACT: note_on channel=11 note=60 velocity=95 time=0
EXTRACT: note_off channel=0 note=69 velocity=95 time=0.39999999999999997
EXTRACT: note_off channel=0 note=65 velocity=95 time=0
EXTRACT: note_off channel=0 note=60 velocity=95 time=0
EXTRACT: note_off channel=0 note=53 velocity=95 time=0
EXTRACT: note_off channel=0 note=48 velocity=95 time=0
EXTRACT: note_on channel=0 note=69 velocity=95 time=0
EXTRACT: note_on channel=0 note=65 velocity=95 time=0
EXTRACT: note_on channel=0 note=60 velocity=95 time=0
EXTRACT: note_on channel=0 note=53 velocity=95 time=0
EXTRACT: note_on channel=0 note=48 velocity=95 time=0
EXTRACT: note_off channel=11 note=60 velocity=95 time=0
EXTRACT: note_on channel=11 note=57 velocity=95 time=0
EXTRACT: note_off channel=0 note=69 velocity=95 time=0.39999999999999997
EXTRACT: note_off channel=0 note=65 velocity=95 time=0
EXTRACT: note_off channel=0 note=60 velocity=95 time=0
EXTRACT: note_off channel=0 note=53 velocity=95 time=0
EXTRACT: note_off channel=0 note=48 velocity=95 time=0
EXTRACT: note_on channel=0 note=67 velocity=95 time=0
EXTRACT: note_on channel=0 note=65 velocity=95 time=0
EXTRACT: note_on channel=0 note=60 velocity=95 time=0
EXTRACT: note_on channel=0 note=53 velocity=95 time=0
EXTRACT: note_on channel=0 note=48 velocity=95 time=0
EXTRACT: note_off channel=6 note=65 velocity=95 time=0
EXTRACT: note_off channel=6 note=60 velocity=95 time=0
EXTRACT: note_off channel=6 note=57 velocity=95 time=0
EXTRACT: note_off channel=6 note=53 velocity=95 time=0
EXTRACT: note_on channel=6 note=53 velocity=95 time=0
EXTRACT: note_off channel=11 note=57 velocity=95 time=0
EXTRACT: note_on channel=11 note=60 velocity=95 time=0
EXTRACT: note_on channel=6 note=55 velocity=95 time=0.006666666666666666
EXTRACT: note_on channel=6 note=60 velocity=95 time=0.006666666666666666
EXTRACT: note_on channel=6 note=65 velocity=95 time=0.006666666666666666
EXTRACT: note_off channel=11 note=60 velocity=95 time=0.18
EXTRACT: note_on channel=11 note=57 velocity=95 time=0
EXTRACT: note_off channel=0 note=67 velocity=95 time=0.19999999999999998
EXTRACT: note_off channel=0 note=65 velocity=95 time=0
EXTRACT: note_off channel=0 note=60 velocity=95 time=0
EXTRACT: note_off channel=0 note=53 velocity=95 time=0
EXTRACT: note_off channel=0 note=48 velocity=95 time=0
EXTRACT: note_on channel=0 note=67 velocity=95 time=0
EXTRACT: note_on channel=0 note=65 velocity=95 time=0
EXTRACT: note_on channel=0 note=60 velocity=95 time=0
EXTRACT: note_on channel=0 note=53 velocity=95 time=0
EXTRACT: note_on channel=0 note=48 velocity=95 time=0
EXTRACT: note_off channel=0 note=67 velocity=95 time=0.39999999999999997
EXTRACT: note_off channel=0 note=65 velocity=95 time=0
EXTRACT: note_off channel=0 note=60 velocity=95 time=0
EXTRACT: note_off channel=0 note=53 velocity=95 time=0
EXTRACT: note_off channel=0 note=48 velocity=95 time=0
EXTRACT: note_on channel=0 note=67 velocity=95 time=0
EXTRACT: note_on channel=0 note=65 velocity=95 time=0
EXTRACT: note_on channel=0 note=60 velocity=95 time=0
EXTRACT: note_on channel=0 note=53 velocity=95 time=0
EXTRACT: note_on channel=0 note=48 velocity=95 time=0
EXTRACT: note_off channel=11 note=57 velocity=95 time=0
EXTRACT: note_on channel=11 note=57 velocity=95 time=0
EXTRACT: note_off channel=0 note=67 velocity=95 time=0.39999999999999997
EXTRACT: note_off channel=0 note=65 velocity=95 time=0
EXTRACT: note_off channel=0 note=60 velocity=95 time=0
EXTRACT: note_off channel=0 note=53 velocity=95 time=0
EXTRACT: note_off channel=0 note=48 velocity=95 time=0
EXTRACT: note_on channel=0 note=67 velocity=95 time=0
EXTRACT: note_on channel=0 note=65 velocity=95 time=0
EXTRACT: note_on channel=0 note=60 velocity=95 time=0
EXTRACT: note_on channel=0 note=53 velocity=95 time=0
EXTRACT: note_on channel=0 note=48 velocity=95 time=0
EXTRACT: note_off channel=11 note=57 velocity=95 time=0
EXTRACT: note_on channel=11 note=57 velocity=95 time=0
EXTRACT: note_off channel=0 note=67 velocity=95 time=0.39999999999999997
EXTRACT: note_off channel=0 note=65 velocity=95 time=0
EXTRACT: note_off channel=0 note=60 velocity=95 time=0
EXTRACT: note_off channel=0 note=53 velocity=95 time=0
EXTRACT: note_off channel=0 note=48 velocity=95 time=0
EXTRACT: note_on channel=0 note=67 velocity=95 time=0
EXTRACT: note_on channel=0 note=65 velocity=95 time=0
EXTRACT: note_on channel=0 note=60 velocity=95 time=0
EXTRACT: note_on channel=0 note=53 velocity=95 time=0
EXTRACT: note_on channel=0 note=48 velocity=95 time=0
EXTRACT: note_off channel=11 note=57 velocity=95 time=0
EXTRACT: note_on channel=11 note=57 velocity=95 time=0
EXTRACT: note_off channel=0 note=67 velocity=95 time=0.39999999999999997
EXTRACT: note_off channel=0 note=65 velocity=95 time=0
EXTRACT: note_off channel=0 note=60 velocity=95 time=0
EXTRACT: note_off channel=0 note=53 velocity=95 time=0
EXTRACT: note_off channel=0 note=48 velocity=95 time=0
EXTRACT: note_on channel=0 note=67 velocity=95 time=0
EXTRACT: note_on channel=0 note=65 velocity=95 time=0
EXTRACT: note_on channel=0 note=60 velocity=95 time=0
EXTRACT: note_on channel=0 note=53 velocity=95 time=0
EXTRACT: note_on channel=0 note=48 velocity=95 time=0
EXTRACT: note_off channel=11 note=57 velocity=95 time=0
EXTRACT: note_on channel=11 note=57 velocity=95 time=0
EXTRACT: note_off channel=0 note=67 velocity=95 time=0.39999999999999997
EXTRACT: note_off channel=0 note=65 velocity=95 time=0
EXTRACT: note_off channel=0 note=60 velocity=95 time=0
EXTRACT: note_off channel=0 note=53 velocity=95 time=0
EXTRACT: note_off channel=0 note=48 velocity=95 time=0
EXTRACT: note_on channel=0 note=67 velocity=95 time=0
EXTRACT: note_on channel=0 note=65 velocity=95 time=0
EXTRACT: note_on channel=0 note=60 velocity=95 time=0
EXTRACT: note_on channel=0 note=53 velocity=95 time=0
EXTRACT: note_on channel=0 note=48 velocity=95 time=0
EXTRACT: note_off channel=11 note=57 velocity=95 time=0
EXTRACT: note_on channel=11 note=55 velocity=95 time=0
EXTRACT: note_off channel=0 note=67 velocity=95 time=0.39999999999999997
EXTRACT: note_off channel=0 note=65 velocity=95 time=0
EXTRACT: note_off channel=0 note=60 velocity=95 time=0
EXTRACT: note_off channel=0 note=53 velocity=95 time=0
EXTRACT: note_off channel=0 note=48 velocity=95 time=0
EXTRACT: note_on channel=0 note=67 velocity=95 time=0
EXTRACT: note_on channel=0 note=65 velocity=95 time=0
EXTRACT: note_on channel=0 note=60 velocity=95 time=0
EXTRACT: note_on channel=0 note=53 velocity=95 time=0
EXTRACT: note_on channel=0 note=48 velocity=95 time=0
EXTRACT: note_off channel=11 note=55 velocity=95 time=0
EXTRACT: note_on channel=11 note=53 velocity=95 time=0
EXTRACT: note_off channel=0 note=67 velocity=95 time=0.39999999999999997
EXTRACT: note_off channel=0 note=65 velocity=95 time=0
EXTRACT: note_off channel=0 note=60 velocity=95 time=0
EXTRACT: note_off channel=0 note=53 velocity=95 time=0
EXTRACT: note_off channel=0 note=48 velocity=95 time=0
EXTRACT: note_on channel=0 note=72 velocity=95 time=0
EXTRACT: note_on channel=0 note=67 velocity=95 time=0
EXTRACT: note_on channel=0 note=64 velocity=95 time=0
EXTRACT: note_on channel=0 note=60 velocity=95 time=0
EXTRACT: note_on channel=0 note=55 velocity=95 time=0
EXTRACT: note_on channel=0 note=48 velocity=95 time=0
EXTRACT: note_off channel=6 note=65 velocity=95 time=0
EXTRACT: note_off channel=6 note=60 velocity=95 time=0
EXTRACT: note_off channel=6 note=55 velocity=95 time=0
EXTRACT: note_off channel=6 note=53 velocity=95 time=0
EXTRACT: note_on channel=6 note=64 velocity=95 time=0
EXTRACT: note_on channel=6 note=60 velocity=95 time=0
EXTRACT: note_on channel=6 note=55 velocity=95 time=0
EXTRACT: note_on channel=6 note=52 velocity=95 time=0
EXTRACT: note_on channel=6 note=48 velocity=95 time=0
EXTRACT: note_off channel=11 note=53 velocity=95 time=0
EXTRACT: note_on channel=11 note=52 velocity=95 time=0
EXTRACT: note_off channel=0 note=72 velocity=95 time=0.39999999999999997
EXTRACT: note_off channel=0 note=67 velocity=95 time=0
EXTRACT: note_off channel=0 note=64 velocity=95 time=0
EXTRACT: note_off channel=0 note=60 velocity=95 time=0
EXTRACT: note_off channel=0 note=55 velocity=95 time=0
EXTRACT: note_off channel=0 note=48 velocity=95 time=0
EXTRACT: note_on channel=0 note=72 velocity=95 time=0
EXTRACT: note_on channel=0 note=67 velocity=95 time=0
EXTRACT: note_on channel=0 note=64 velocity=95 time=0
EXTRACT: note_on channel=0 note=60 velocity=95 time=0
EXTRACT: note_on channel=0 note=55 velocity=95 time=0
EXTRACT: note_on channel=0 note=48 velocity=95 time=0
EXTRACT: note_off channel=0 note=72 velocity=95 time=0.39999999999999997
EXTRACT: note_off channel=0 note=67 velocity=95 time=0
EXTRACT: note_off channel=0 note=64 velocity=95 time=0
EXTRACT: note_off channel=0 note=60 velocity=95 time=0
EXTRACT: note_off channel=0 note=55 velocity=95 time=0
EXTRACT: note_off channel=0 note=48 velocity=95 time=0
EXTRACT: note_on channel=0 note=72 velocity=95 time=0
EXTRACT: note_on channel=0 note=67 velocity=95 time=0
EXTRACT: note_on channel=0 note=64 velocity=95 time=0
EXTRACT: note_on channel=0 note=60 velocity=95 time=0
EXTRACT: note_on channel=0 note=55 velocity=95 time=0
EXTRACT: note_on channel=0 note=48 velocity=95 time=0
EXTRACT: note_off channel=11 note=52 velocity=95 time=0
EXTRACT: note_off channel=0 note=72 velocity=95 time=0.39999999999999997
EXTRACT: note_off channel=0 note=67 velocity=95 time=0
EXTRACT: note_off channel=0 note=64 velocity=95 time=0
EXTRACT: note_off channel=0 note=60 velocity=95 time=0
EXTRACT: note_off channel=0 note=55 velocity=95 time=0
EXTRACT: note_off channel=0 note=48 velocity=95 time=0
EXTRACT: note_on channel=0 note=72 velocity=95 time=0
EXTRACT: note_on channel=0 note=67 velocity=95 time=0
EXTRACT: note_on channel=0 note=64 velocity=95 time=0
EXTRACT: note_on channel=0 note=60 velocity=95 time=0
EXTRACT: note_on channel=0 note=55 velocity=95 time=0
EXTRACT: note_on channel=0 note=48 velocity=95 time=0
EXTRACT: note_off channel=0 note=72 velocity=95 time=0.39999999999999997
EXTRACT: note_off channel=0 note=67 velocity=95 time=0
EXTRACT: note_off channel=0 note=64 velocity=95 time=0
EXTRACT: note_off channel=0 note=60 velocity=95 time=0
EXTRACT: note_off channel=0 note=55 velocity=95 time=0
EXTRACT: note_off channel=0 note=48 velocity=95 time=0
EXTRACT: note_on channel=0 note=72 velocity=95 time=0
EXTRACT: note_on channel=0 note=67 velocity=95 time=0
EXTRACT: note_on channel=0 note=64 velocity=95 time=0
EXTRACT: note_on channel=0 note=60 velocity=95 time=0
EXTRACT: note_on channel=0 note=55 velocity=95 time=0
EXTRACT: note_on channel=0 note=48 velocity=95 time=0
EXTRACT: note_off channel=0 note=72 velocity=95 time=0.39999999999999997
EXTRACT: note_off channel=0 note=67 velocity=95 time=0
EXTRACT: note_off channel=0 note=64 velocity=95 time=0
EXTRACT: note_off channel=0 note=60 velocity=95 time=0
EXTRACT: note_off channel=0 note=55 velocity=95 time=0
EXTRACT: note_off channel=0 note=48 velocity=95 time=0
EXTRACT: note_on channel=0 note=72 velocity=95 time=0
EXTRACT: note_on channel=0 note=67 velocity=95 time=0
EXTRACT: note_on channel=0 note=64 velocity=95 time=0
EXTRACT: note_on channel=0 note=60 velocity=95 time=0
EXTRACT: note_on channel=0 note=55 velocity=95 time=0
EXTRACT: note_on channel=0 note=48 velocity=95 time=0
EXTRACT: note_off channel=0 note=72 velocity=95 time=0.39999999999999997
EXTRACT: note_off channel=0 note=67 velocity=95 time=0
EXTRACT: note_off channel=0 note=64 velocity=95 time=0
EXTRACT: note_off channel=0 note=60 velocity=95 time=0
EXTRACT: note_off channel=0 note=55 velocity=95 time=0
EXTRACT: note_off channel=0 note=48 velocity=95 time=0
EXTRACT: note_on channel=0 note=72 velocity=95 time=0
EXTRACT: note_on channel=0 note=67 velocity=95 time=0
EXTRACT: note_on channel=0 note=64 velocity=95 time=0
EXTRACT: note_on channel=0 note=60 velocity=95 time=0
EXTRACT: note_on channel=0 note=55 velocity=95 time=0
EXTRACT: note_on channel=0 note=48 velocity=95 time=0
EXTRACT: note_off channel=0 note=72 velocity=95 time=0.39999999999999997
EXTRACT: note_off channel=0 note=67 velocity=95 time=0
EXTRACT: note_off channel=0 note=64 velocity=95 time=0
EXTRACT: note_off channel=0 note=60 velocity=95 time=0
EXTRACT: note_off channel=0 note=55 velocity=95 time=0
EXTRACT: note_off channel=0 note=48 velocity=95 time=0
EXTRACT: note_on channel=0 note=72 velocity=95 time=0
EXTRACT: note_on channel=0 note=67 velocity=95 time=0
EXTRACT: note_on channel=0 note=64 velocity=95 time=0
EXTRACT: note_on channel=0 note=60 velocity=95 time=0
EXTRACT: note_on channel=0 note=55 velocity=95 time=0
EXTRACT: note_on channel=0 note=48 velocity=95 time=0
EXTRACT: note_off channel=0 note=72 velocity=95 time=0.39999999999999997
EXTRACT: note_off channel=0 note=67 velocity=95 time=0
EXTRACT: note_off channel=0 note=64 velocity=95 time=0
EXTRACT: note_off channel=0 note=60 velocity=95 time=0
EXTRACT: note_off channel=0 note=55 velocity=95 time=0
EXTRACT: note_off channel=0 note=48 velocity=95 time=0
EXTRACT: note_on channel=0 note=72 velocity=95 time=0
EXTRACT: note_on channel=0 note=67 velocity=95 time=0
EXTRACT: note_on channel=0 note=64 velocity=95 time=0
EXTRACT: note_on channel=0 note=60 velocity=95 time=0
EXTRACT: note_on channel=0 note=55 velocity=95 time=0
EXTRACT: note_on channel=0 note=48 velocity=95 time=0
EXTRACT: note_on channel=2 note=67 velocity=127 time=0
EXTRACT: note_on channel=2 note=64 velocity=95 time=0
EXTRACT: note_on channel=2 note=60 velocity=95 time=0
EXTRACT: note_on channel=2 note=55 velocity=95 time=0
EXTRACT: note_on channel=2 note=48 velocity=95 time=0
EXTRACT: note_off channel=6 note=64 velocity=95 time=0
EXTRACT: note_off channel=6 note=60 velocity=95 time=0
EXTRACT: note_off channel=6 note=55 velocity=95 time=0
EXTRACT: note_off channel=6 note=52 velocity=95 time=0
EXTRACT: note_off channel=6 note=48 velocity=95 time=0
EXTRACT: note_on channel=6 note=48 velocity=95 time=0
EXTRACT: note_on channel=6 note=52 velocity=95 time=0.012499999999999999
EXTRACT: note_on channel=6 note=55 velocity=95 time=0.012499999999999999
EXTRACT: note_on channel=6 note=60 velocity=95 time=0.012499999999999999
EXTRACT: note_on channel=6 note=64 velocity=95 time=0.012499999999999999
EXTRACT: note_off channel=0 note=72 velocity=95 time=0.35
EXTRACT: note_off channel=0 note=67 velocity=95 time=0
EXTRACT: note_off channel=0 note=64 velocity=95 time=0
EXTRACT: note_off channel=0 note=60 velocity=95 time=0
EXTRACT: note_off channel=0 note=55 velocity=95 time=0
EXTRACT: note_off channel=0 note=48 velocity=95 time=0
EXTRACT: note_on channel=0 note=72 velocity=95 time=0
EXTRACT: note_on channel=0 note=67 velocity=95 time=0
EXTRACT: note_on channel=0 note=64 velocity=95 time=0
EXTRACT: note_on channel=0 note=60 velocity=95 time=0
EXTRACT: note_on channel=0 note=55 velocity=95 time=0
EXTRACT: note_on channel=0 note=48 velocity=95 time=0
EXTRACT: note_on channel=11 note=57 velocity=95 time=0
EXTRACT: note_off channel=0 note=72 velocity=95 time=0.39999999999999997
EXTRACT: note_off channel=0 note=67 velocity=95 time=0
EXTRACT: note_off channel=0 note=64 velocity=95 time=0
EXTRACT: note_off channel=0 note=60 velocity=95 time=0
EXTRACT: note_off channel=0 note=55 velocity=95 time=0
EXTRACT: note_off channel=0 note=48 velocity=95 time=0
EXTRACT: note_on channel=0 note=72 velocity=95 time=0
EXTRACT: note_on channel=0 note=67 velocity=95 time=0
EXTRACT: note_on channel=0 note=64 velocity=95 time=0
EXTRACT: note_on channel=0 note=60 velocity=95 time=0
EXTRACT: note_on channel=0 note=55 velocity=95 time=0
EXTRACT: note_on channel=0 note=48 velocity=95 time=0
EXTRACT: note_off channel=11 note=57 velocity=95 time=0
EXTRACT: note_on channel=11 note=58 velocity=95 time=0
EXTRACT: note_off channel=0 note=72 velocity=95 time=0.39999999999999997
EXTRACT: note_off channel=0 note=67 velocity=95 time=0
EXTRACT: note_off channel=0 note=64 velocity=95 time=0
EXTRACT: note_off channel=0 note=60 velocity=95 time=0
EXTRACT: note_off channel=0 note=55 velocity=95 time=0
EXTRACT: note_off channel=0 note=48 velocity=95 time=0
EXTRACT: note_on channel=0 note=72 velocity=95 time=0
EXTRACT: note_on channel=0 note=67 velocity=95 time=0
EXTRACT: note_on channel=0 note=64 velocity=95 time=0
EXTRACT: note_on channel=0 note=60 velocity=95 time=0
EXTRACT: note_on channel=0 note=55 velocity=95 time=0
EXTRACT: note_on channel=0 note=48 velocity=95 time=0
EXTRACT: note_off channel=11 note=58 velocity=95 time=0
EXTRACT: note_on channel=11 note=53 velocity=95 time=0
EXTRACT: note_off channel=0 note=72 velocity=95 time=0.39999999999999997
EXTRACT: note_off channel=0 note=67 velocity=95 time=0
EXTRACT: note_off channel=0 note=64 velocity=95 time=0
EXTRACT: note_off channel=0 note=60 velocity=95 time=0
EXTRACT: note_off channel=0 note=55 velocity=95 time=0
EXTRACT: note_off channel=0 note=48 velocity=95 time=0
EXTRACT: note_on channel=0 note=72 velocity=95 time=0
EXTRACT: note_on channel=0 note=67 velocity=95 time=0
EXTRACT: note_on channel=0 note=64 velocity=95 time=0
EXTRACT: note_on channel=0 note=60 velocity=95 time=0
EXTRACT: note_on channel=0 note=55 velocity=95 time=0
EXTRACT: note_on channel=0 note=48 velocity=95 time=0
EXTRACT: note_off channel=11 note=53 velocity=95 time=0
EXTRACT: note_on channel=11 note=58 velocity=95 time=0
EXTRACT: note_off channel=0 note=72 velocity=95 time=0.39999999999999997
EXTRACT: note_off channel=0 note=67 velocity=95 time=0
EXTRACT: note_off channel=0 note=64 velocity=95 time=0
EXTRACT: note_off channel=0 note=60 velocity=95 time=0
EXTRACT: note_off channel=0 note=55 velocity=95 time=0
EXTRACT: note_off channel=0 note=48 velocity=95 time=0
EXTRACT: note_on channel=0 note=72 velocity=95 time=0
EXTRACT: note_on channel=0 note=67 velocity=95 time=0
EXTRACT: note_on channel=0 note=64 velocity=95 time=0
EXTRACT: note_on channel=0 note=60 velocity=95 time=0
EXTRACT: note_on channel=0 note=55 velocity=95 time=0
EXTRACT: note_on channel=0 note=48 velocity=95 time=0
EXTRACT: note_off channel=11 note=58 velocity=95 time=0
EXTRACT: note_on channel=11 note=58 velocity=95 time=0
EXTRACT: note_off channel=0 note=72 velocity=95 time=0.39999999999999997
EXTRACT: note_off channel=0 note=67 velocity=95 time=0
EXTRACT: note_off channel=0 note=64 velocity=95 time=0
EXTRACT: note_off channel=0 note=60 velocity=95 time=0
EXTRACT: note_off channel=0 note=55 velocity=95 time=0
EXTRACT: note_off channel=0 note=48 velocity=95 time=0
EXTRACT: note_on channel=0 note=72 velocity=95 time=0
EXTRACT: note_on channel=0 note=67 velocity=95 time=0
EXTRACT: note_on channel=0 note=64 velocity=95 time=0
EXTRACT: note_on channel=0 note=60 velocity=95 time=0
EXTRACT: note_on channel=0 note=55 velocity=95 time=0
EXTRACT: note_on channel=0 note=48 velocity=95 time=0
EXTRACT: note_off channel=11 note=58 velocity=95 time=0
EXTRACT: note_on channel=11 note=58 velocity=95 time=0
EXTRACT: note_off channel=0 note=72 velocity=95 time=0.39999999999999997
EXTRACT: note_off channel=0 note=67 velocity=95 time=0
EXTRACT: note_off channel=0 note=64 velocity=95 time=0
EXTRACT: note_off channel=0 note=60 velocity=95 time=0
EXTRACT: note_off channel=0 note=55 velocity=95 time=0
EXTRACT: note_off channel=0 note=48 velocity=95 time=0
EXTRACT: note_on channel=0 note=72 velocity=95 time=0
EXTRACT: note_on channel=0 note=67 velocity=95 time=0
EXTRACT: note_on channel=0 note=64 velocity=95 time=0
EXTRACT: note_on channel=0 note=60 velocity=95 time=0
EXTRACT: note_on channel=0 note=55 velocity=95 time=0
EXTRACT: note_on channel=0 note=48 velocity=95 time=0
EXTRACT: note_off channel=11 note=58 velocity=95 time=0
EXTRACT: note_on channel=11 note=58 velocity=95 time=0
EXTRACT: note_off channel=0 note=72 velocity=95 time=0.39999999999999997
EXTRACT: note_off channel=0 note=67 velocity=95 time=0
EXTRACT: note_off channel=0 note=64 velocity=95 time=0
EXTRACT: note_off channel=0 note=60 velocity=95 time=0
EXTRACT: note_off channel=0 note=55 velocity=95 time=0
EXTRACT: note_off channel=0 note=48 velocity=95 time=0
EXTRACT: note_on channel=0 note=69 velocity=95 time=0
EXTRACT: note_on channel=0 note=65 velocity=95 time=0
EXTRACT: note_on channel=0 note=60 velocity=95 time=0
EXTRACT: note_on channel=0 note=53 velocity=95 time=0
EXTRACT: note_on channel=0 note=48 velocity=95 time=0
EXTRACT: note_off channel=2 note=67 velocity=127 time=0
EXTRACT: note_off channel=2 note=64 velocity=95 time=0
EXTRACT: note_off channel=2 note=60 velocity=95 time=0
EXTRACT: note_off channel=2 note=55 velocity=95 time=0
EXTRACT: note_off channel=2 note=48 velocity=95 time=0
EXTRACT: note_on channel=2 note=69 velocity=95 time=0
EXTRACT: note_on channel=2 note=65 velocity=95 time=0
EXTRACT: note_on channel=2 note=60 velocity=95 time=0
EXTRACT: note_on channel=2 note=53 velocity=95 time=0
EXTRACT: note_on channel=2 note=48 velocity=95 time=0
EXTRACT: note_off channel=6 note=64 velocity=95 time=0
EXTRACT: note_off channel=6 note=60 velocity=95 time=0
EXTRACT: note_off channel=6 note=55 velocity=95 time=0
EXTRACT: note_off channel=6 note=52 velocity=95 time=0
EXTRACT: note_off channel=6 note=48 velocity=95 time=0
EXTRACT: note_on channel=6 note=65 velocity=95 time=0
EXTRACT: note_on channel=6 note=60 velocity=95 time=0
EXTRACT: note_on channel=6 note=57 velocity=95 time=0
EXTRACT: note_on channel=6 note=53 velocity=95 time=0
EXTRACT: note_off channel=11 note=58 velocity=95 time=0.19999999999999998
EXTRACT: note_on channel=11 note=57 velocity=95 time=0
EXTRACT: note_off channel=0 note=69 velocity=95 time=0.19999999999999998
EXTRACT: note_off channel=0 note=65 velocity=95 time=0
EXTRACT: note_off channel=0 note=60 velocity=95 time=0
EXTRACT: note_off channel=0 note=53 velocity=95 time=0
EXTRACT: note_off channel=0 note=48 velocity=95 time=0
EXTRACT: note_on channel=0 note=69 velocity=95 time=0
EXTRACT: note_on channel=0 note=65 velocity=95 time=0
EXTRACT: note_on channel=0 note=60 velocity=95 time=0
EXTRACT: note_on channel=0 note=53 velocity=95 time=0
EXTRACT: note_on channel=0 note=48 velocity=95 time=0
EXTRACT: note_off channel=2 note=69 velocity=95 time=0
EXTRACT: note_off channel=2 note=65 velocity=95 time=0
EXTRACT: note_off channel=2 note=60 velocity=95 time=0
EXTRACT: note_off channel=2 note=53 velocity=95 time=0
EXTRACT: note_off channel=2 note=48 velocity=95 time=0
EXTRACT: note_on channel=2 note=69 velocity=95 time=0
EXTRACT: note_on channel=2 note=65 velocity=95 time=0
EXTRACT: note_on channel=2 note=60 velocity=95 time=0
EXTRACT: note_on channel=2 note=53 velocity=95 time=0
EXTRACT: note_on channel=2 note=48 velocity=95 time=0
EXTRACT: note_off channel=11 note=57 velocity=95 time=0
EXTRACT: note_on channel=11 note=53 velocity=95 time=0
EXTRACT: note_off channel=0 note=69 velocity=95 time=0.39999999999999997
EXTRACT: note_off channel=0 note=65 velocity=95 time=0
EXTRACT: note_off channel=0 note=60 velocity=95 time=0
EXTRACT: note_off channel=0 note=53 velocity=95 time=0
EXTRACT: note_off channel=0 note=48 velocity=95 time=0
EXTRACT: note_on channel=0 note=69 velocity=95 time=0
EXTRACT: note_on channel=0 note=65 velocity=95 time=0
EXTRACT: note_on channel=0 note=60 velocity=95 time=0
EXTRACT: note_on channel=0 note=53 velocity=95 time=0
EXTRACT: note_on channel=0 note=48 velocity=95 time=0
EXTRACT: note_off channel=2 note=69 velocity=95 time=0
EXTRACT: note_off channel=2 note=65 velocity=95 time=0
EXTRACT: note_off channel=2 note=60 velocity=95 time=0
EXTRACT: note_off channel=2 note=53 velocity=95 time=0
EXTRACT: note_off channel=2 note=48 velocity=95 time=0
EXTRACT: note_on channel=2 note=69 velocity=95 time=0
EXTRACT: note_on channel=2 note=65 velocity=95 time=0
EXTRACT: note_on channel=2 note=60 velocity=95 time=0
EXTRACT: note_on channel=2 note=53 velocity=95 time=0
EXTRACT: note_on channel=2 note=48 velocity=95 time=0
EXTRACT: note_off channel=0 note=69 velocity=95 time=0.39999999999999997
EXTRACT: note_off channel=0 note=65 velocity=95 time=0
EXTRACT: note_off channel=0 note=60 velocity=95 time=0
EXTRACT: note_off channel=0 note=53 velocity=95 time=0
EXTRACT: note_off channel=0 note=48 velocity=95 time=0
EXTRACT: note_on channel=0 note=69 velocity=95 time=0
EXTRACT: note_on channel=0 note=65 velocity=95 time=0
EXTRACT: note_on channel=0 note=60 velocity=95 time=0
EXTRACT: note_on channel=0 note=53 velocity=95 time=0
EXTRACT: note_on channel=0 note=48 velocity=95 time=0
EXTRACT: note_off channel=2 note=69 velocity=95 time=0
EXTRACT: note_off channel=2 note=65 velocity=95 time=0
EXTRACT: note_off channel=2 note=60 velocity=95 time=0
EXTRACT: note_off channel=2 note=53 velocity=95 time=0
EXTRACT: note_off channel=2 note=48 velocity=95 time=0
EXTRACT: note_on channel=2 note=69 velocity=95 time=0
EXTRACT: note_on channel=2 note=65 velocity=95 time=0
EXTRACT: note_on channel=2 note=60 velocity=95 time=0
EXTRACT: note_on channel=2 note=53 velocity=95 time=0
EXTRACT: note_on channel=2 note=48 velocity=95 time=0
EXTRACT: note_off channel=0 note=69 velocity=95 time=0.39999999999999997
EXTRACT: note_off channel=0 note=65 velocity=95 time=0
EXTRACT: note_off channel=0 note=60 velocity=95 time=0
EXTRACT: note_off channel=0 note=53 velocity=95 time=0
EXTRACT: note_off channel=0 note=48 velocity=95 time=0
EXTRACT: note_on channel=0 note=69 velocity=95 time=0
EXTRACT: note_on channel=0 note=65 velocity=95 time=0
EXTRACT: note_on channel=0 note=60 velocity=95 time=0
EXTRACT: note_on channel=0 note=53 velocity=95 time=0
EXTRACT: note_on channel=0 note=48 velocity=95 time=0
EXTRACT: note_off channel=2 note=69 velocity=95 time=0
EXTRACT: note_off channel=2 note=65 velocity=95 time=0
EXTRACT: note_off channel=2 note=60 velocity=95 time=0
EXTRACT: note_off channel=2 note=53 velocity=95 time=0
EXTRACT: note_off channel=2 note=48 velocity=95 time=0
EXTRACT: note_on channel=2 note=69 velocity=95 time=0
EXTRACT: note_on channel=2 note=65 velocity=95 time=0
EXTRACT: note_on channel=2 note=60 velocity=95 time=0
EXTRACT: note_on channel=2 note=53 velocity=95 time=0
EXTRACT: note_on channel=2 note=48 velocity=95 time=0
EXTRACT: note_off channel=11 note=53 velocity=95 time=0
EXTRACT: note_off channel=0 note=69 velocity=95 time=0.39999999999999997
EXTRACT: note_off channel=0 note=65 velocity=95 time=0
EXTRACT: note_off channel=0 note=60 velocity=95 time=0
EXTRACT: note_off channel=0 note=53 velocity=95 time=0
EXTRACT: note_off channel=0 note=48 velocity=95 time=0
EXTRACT: note_on channel=0 note=69 velocity=95 time=0
EXTRACT: note_on channel=0 note=65 velocity=95 time=0
EXTRACT: note_on channel=0 note=60 velocity=95 time=0
EXTRACT: note_on channel=0 note=53 velocity=95 time=0
EXTRACT: note_on channel=0 note=48 velocity=95 time=0
EXTRACT: note_off channel=2 note=69 velocity=95 time=0
EXTRACT: note_off channel=2 note=65 velocity=95 time=0
EXTRACT: note_off channel=2 note=60 velocity=95 time=0
EXTRACT: note_off channel=2 note=53 velocity=95 time=0
EXTRACT: note_off channel=2 note=48 velocity=95 time=0
EXTRACT: note_on channel=2 note=69 velocity=95 time=0
EXTRACT: note_on channel=2 note=65 velocity=95 time=0
EXTRACT: note_on channel=2 note=60 velocity=95 time=0
EXTRACT: note_on channel=2 note=53 velocity=95 time=0
EXTRACT: note_on channel=2 note=48 velocity=95 time=0
EXTRACT: note_off channel=0 note=69 velocity=95 time=0.39999999999999997
EXTRACT: note_off channel=0 note=65 velocity=95 time=0
EXTRACT: note_off channel=0 note=60 velocity=95 time=0
EXTRACT: note_off channel=0 note=53 velocity=95 time=0
EXTRACT: note_off channel=0 note=48 velocity=95 time=0
EXTRACT: note_on channel=0 note=69 velocity=95 time=0
EXTRACT: note_on channel=0 note=65 velocity=95 time=0
EXTRACT: note_on channel=0 note=60 velocity=95 time=0
EXTRACT: note_on channel=0 note=53 velocity=95 time=0
EXTRACT: note_on channel=0 note=48 velocity=95 time=0
EXTRACT: note_off channel=2 note=69 velocity=95 time=0
EXTRACT: note_off channel=2 note=65 velocity=95 time=0
EXTRACT: note_off channel=2 note=60 velocity=95 time=0
EXTRACT: note_off channel=2 note=53 velocity=95 time=0
EXTRACT: note_off channel=2 note=48 velocity=95 time=0
EXTRACT: note_on channel=2 note=69 velocity=95 time=0
EXTRACT: note_on channel=2 note=65 velocity=95 time=0
EXTRACT: note_on channel=2 note=60 velocity=95 time=0
EXTRACT: note_on channel=2 note=53 velocity=95 time=0
EXTRACT: note_on channel=2 note=48 velocity=95 time=0
EXTRACT: note_off channel=0 note=69 velocity=95 time=0.39999999999999997
EXTRACT: note_off channel=0 note=65 velocity=95 time=0
EXTRACT: note_off channel=0 note=60 velocity=95 time=0
EXTRACT: note_off channel=0 note=53 velocity=95 time=0
EXTRACT: note_off channel=0 note=48 velocity=95 time=0
EXTRACT: note_on channel=0 note=69 velocity=95 time=0
EXTRACT: note_on channel=0 note=65 velocity=95 time=0
EXTRACT: note_on channel=0 note=60 velocity=95 time=0
EXTRACT: note_on channel=0 note=53 velocity=95 time=0
EXTRACT: note_on channel=0 note=48 velocity=95 time=0
EXTRACT: note_off channel=2 note=69 velocity=95 time=0
EXTRACT: note_off channel=2 note=65 velocity=95 time=0
EXTRACT: note_off channel=2 note=60 velocity=95 time=0
EXTRACT: note_off channel=2 note=53 velocity=95 time=0
EXTRACT: note_off channel=2 note=48 velocity=95 time=0
EXTRACT: note_on channel=2 note=69 velocity=95 time=0
EXTRACT: note_on channel=2 note=65 velocity=95 time=0
EXTRACT: note_on channel=2 note=60 velocity=95 time=0
EXTRACT: note_on channel=2 note=53 velocity=95 time=0
EXTRACT: note_on channel=2 note=48 velocity=95 time=0
EXTRACT: note_off channel=0 note=69 velocity=95 time=0.39999999999999997
EXTRACT: note_off channel=0 note=65 velocity=95 time=0
EXTRACT: note_off channel=0 note=60 velocity=95 time=0
EXTRACT: note_off channel=0 note=53 velocity=95 time=0
EXTRACT: note_off channel=0 note=48 velocity=95 time=0
EXTRACT: note_on channel=0 note=70 velocity=95 time=0
EXTRACT: note_on channel=0 note=65 velocity=95 time=0
EXTRACT: note_on channel=0 note=62 velocity=95 time=0
EXTRACT: note_on channel=0 note=58 velocity=95 time=0
EXTRACT: note_on channel=0 note=53 velocity=95 time=0
EXTRACT: note_on channel=0 note=46 velocity=95 time=0
EXTRACT: note_off channel=2 note=69 velocity=95 time=0
EXTRACT: note_off channel=2 note=65 velocity=95 time=0
EXTRACT: note_off channel=2 note=60 velocity=95 time=0
EXTRACT: note_off channel=2 note=53 velocity=95 time=0
EXTRACT: note_off channel=2 note=48 velocity=95 time=0
EXTRACT: note_on channel=2 note=70 velocity=95 time=0
EXTRACT: note_on channel=2 note=65 velocity=95 time=0
EXTRACT: note_on channel=2 note=62 velocity=95 time=0
EXTRACT: note_on channel=2 note=58 velocity=95 time=0
EXTRACT: note_on channel=2 note=53 velocity=95 time=0
EXTRACT: note_on channel=2 note=46 velocity=95 time=0
EXTRACT: note_off channel=6 note=65 velocity=95 time=0
EXTRACT: note_off channel=6 note=60 velocity=95 time=0
EXTRACT: note_off channel=6 note=57 velocity=95 time=0
EXTRACT: note_off channel=6 note=53 velocity=95 time=0
EXTRACT: note_on channel=6 note=70 velocity=95 time=0
EXTRACT: note_on channel=6 note=65 velocity=95 time=0
EXTRACT: note_on channel=6 note=62 velocity=95 time=0
EXTRACT: note_on channel=6 note=58 velocity=95 time=0
EXTRACT: note_off channel=0 note=70 velocity=95 time=0.39999999999999997
EXTRACT: note_off channel=0 note=65 velocity=95 time=0
EXTRACT: note_off channel=0 note=62 velocity=95 time=0
EXTRACT: note_off channel=0 note=58 velocity=95 time=0
EXTRACT: note_off channel=0 note=53 velocity=95 time=0
EXTRACT: note_off channel=0 note=46 velocity=95 time=0
EXTRACT: note_on channel=0 note=70 velocity=95 time=0
EXTRACT: note_on channel=0 note=65 velocity=95 time=0
EXTRACT: note_on channel=0 note=62 velocity=95 time=0
EXTRACT: note_on channel=0 note=58 velocity=95 time=0
EXTRACT: note_on channel=0 note=53 velocity=95 time=0
EXTRACT: note_on channel=0 note=46 velocity=95 time=0
EXTRACT: note_off channel=2 note=70 velocity=95 time=0
EXTRACT: note_off channel=2 note=65 velocity=95 time=0
EXTRACT: note_off channel=2 note=62 velocity=95 time=0
EXTRACT: note_off channel=2 note=58 velocity=95 time=0
EXTRACT: note_off channel=2 note=53 velocity=95 time=0
EXTRACT: note_off channel=2 note=46 velocity=95 time=0
EXTRACT: note_on channel=2 note=70 velocity=95 time=0
EXTRACT: note_on channel=2 note=65 velocity=95 time=0
EXTRACT: note_on channel=2 note=62 velocity=95 time=0
EXTRACT: note_on channel=2 note=58 velocity=95 time=0
EXTRACT: note_on channel=2 note=53 velocity=95 time=0
EXTRACT: note_on channel=2 note=46 velocity=95 time=0
EXTRACT: note_off channel=0 note=70 velocity=95 time=0.39999999999999997
EXTRACT: note_off channel=0 note=65 velocity=95 time=0
EXTRACT: note_off channel=0 note=62 velocity=95 time=0
EXTRACT: note_off channel=0 note=58 velocity=95 time=0
EXTRACT: note_off channel=0 note=53 velocity=95 time=0
EXTRACT: note_off channel=0 note=46 velocity=95 time=0
EXTRACT: note_on channel=0 note=70 velocity=95 time=0
EXTRACT: note_on channel=0 note=65 velocity=95 time=0
EXTRACT: note_on channel=0 note=62 velocity=95 time=0
EXTRACT: note_on channel=0 note=58 velocity=95 time=0
EXTRACT: note_on channel=0 note=53 velocity=95 time=0
EXTRACT: note_on channel=0 note=46 velocity=95 time=0
EXTRACT: note_off channel=2 note=70 velocity=95 time=0
EXTRACT: note_off channel=2 note=65 velocity=95 time=0
EXTRACT: note_off channel=2 note=62 velocity=95 time=0
EXTRACT: note_off channel=2 note=58 velocity=95 time=0
EXTRACT: note_off channel=2 note=53 velocity=95 time=0
EXTRACT: note_off channel=2 note=46 velocity=95 time=0
EXTRACT: note_on channel=2 note=70 velocity=95 time=0
EXTRACT: note_on channel=2 note=65 velocity=95 time=0
EXTRACT: note_on channel=2 note=62 velocity=95 time=0
EXTRACT: note_on channel=2 note=58 velocity=95 time=0
EXTRACT: note_on channel=2 note=53 velocity=95 time=0
EXTRACT: note_on channel=2 note=46 velocity=95 time=0
EXTRACT: note_off channel=0 note=70 velocity=95 time=0.39999999999999997
EXTRACT: note_off channel=0 note=65 velocity=95 time=0
EXTRACT: note_off channel=0 note=62 velocity=95 time=0
EXTRACT: note_off channel=0 note=58 velocity=95 time=0
EXTRACT: note_off channel=0 note=53 velocity=95 time=0
EXTRACT: note_off channel=0 note=46 velocity=95 time=0
EXTRACT: note_on channel=0 note=70 velocity=95 time=0
EXTRACT: note_on channel=0 note=65 velocity=95 time=0
EXTRACT: note_on channel=0 note=62 velocity=95 time=0
EXTRACT: note_on channel=0 note=58 velocity=95 time=0
EXTRACT: note_on channel=0 note=53 velocity=95 time=0
EXTRACT: note_on channel=0 note=46 velocity=95 time=0
EXTRACT: note_off channel=2 note=70 velocity=95 time=0
EXTRACT: note_off channel=2 note=65 velocity=95 time=0
EXTRACT: note_off channel=2 note=62 velocity=95 time=0
EXTRACT: note_off channel=2 note=58 velocity=95 time=0
EXTRACT: note_off channel=2 note=53 velocity=95 time=0
EXTRACT: note_off channel=2 note=46 velocity=95 time=0
EXTRACT: note_on channel=2 note=70 velocity=95 time=0
EXTRACT: note_on channel=2 note=65 velocity=95 time=0
EXTRACT: note_on channel=2 note=62 velocity=95 time=0
EXTRACT: note_on channel=2 note=58 velocity=95 time=0
EXTRACT: note_on channel=2 note=53 velocity=95 time=0
EXTRACT: note_on channel=2 note=46 velocity=95 time=0
EXTRACT: note_off channel=0 note=70 velocity=95 time=0.39999999999999997
EXTRACT: note_off channel=0 note=65 velocity=95 time=0
EXTRACT: note_off channel=0 note=62 velocity=95 time=0
EXTRACT: note_off channel=0 note=58 velocity=95 time=0
EXTRACT: note_off channel=0 note=53 velocity=95 time=0
EXTRACT: note_off channel=0 note=46 velocity=95 time=0
EXTRACT: note_on channel=0 note=70 velocity=95 time=0
EXTRACT: note_on channel=0 note=65 velocity=95 time=0
EXTRACT: note_on channel=0 note=62 velocity=95 time=0
EXTRACT: note_on channel=0 note=58 velocity=95 time=0
EXTRACT: note_on channel=0 note=53 velocity=95 time=0
EXTRACT: note_on channel=0 note=46 velocity=95 time=0
EXTRACT: note_off channel=2 note=70 velocity=95 time=0
EXTRACT: note_off channel=2 note=65 velocity=95 time=0
EXTRACT: note_off channel=2 note=62 velocity=95 time=0
EXTRACT: note_off channel=2 note=58 velocity=95 time=0
EXTRACT: note_off channel=2 note=53 velocity=95 time=0
EXTRACT: note_off channel=2 note=46 velocity=95 time=0
EXTRACT: note_on channel=2 note=70 velocity=95 time=0
EXTRACT: note_on channel=2 note=65 velocity=95 time=0
EXTRACT: note_on channel=2 note=62 velocity=95 time=0
EXTRACT: note_on channel=2 note=58 velocity=95 time=0
EXTRACT: note_on channel=2 note=53 velocity=95 time=0
EXTRACT: note_on channel=2 note=46 velocity=95 time=0
EXTRACT: note_off channel=0 note=70 velocity=95 time=0.39999999999999997
EXTRACT: note_off channel=0 note=65 velocity=95 time=0
EXTRACT: note_off channel=0 note=62 velocity=95 time=0
EXTRACT: note_off channel=0 note=58 velocity=95 time=0
EXTRACT: note_off channel=0 note=53 velocity=95 time=0
EXTRACT: note_off channel=0 note=46 velocity=95 time=0
EXTRACT: note_on channel=0 note=70 velocity=95 time=0
EXTRACT: note_on channel=0 note=65 velocity=95 time=0
EXTRACT: note_on channel=0 note=62 velocity=95 time=0
EXTRACT: note_on channel=0 note=58 velocity=95 time=0
EXTRACT: note_on channel=0 note=53 velocity=95 time=0
EXTRACT: note_on channel=0 note=46 velocity=95 time=0
EXTRACT: note_off channel=2 note=70 velocity=95 time=0
EXTRACT: note_off channel=2 note=65 velocity=95 time=0
EXTRACT: note_off channel=2 note=62 velocity=95 time=0
EXTRACT: note_off channel=2 note=58 velocity=95 time=0
EXTRACT: note_off channel=2 note=53 velocity=95 time=0
EXTRACT: note_off channel=2 note=46 velocity=95 time=0
EXTRACT: note_on channel=2 note=70 velocity=95 time=0
EXTRACT: note_on channel=2 note=65 velocity=95 time=0
EXTRACT: note_on channel=2 note=62 velocity=95 time=0
EXTRACT: note_on channel=2 note=58 velocity=95 time=0
EXTRACT: note_on channel=2 note=53 velocity=95 time=0
EXTRACT: note_on channel=2 note=46 velocity=95 time=0
EXTRACT: note_off channel=0 note=70 velocity=95 time=0.39999999999999997
EXTRACT: note_off channel=0 note=65 velocity=95 time=0
EXTRACT: note_off channel=0 note=62 velocity=95 time=0
EXTRACT: note_off channel=0 note=58 velocity=95 time=0
EXTRACT: note_off channel=0 note=53 velocity=95 time=0
EXTRACT: note_off channel=0 note=46 velocity=95 time=0
EXTRACT: note_on channel=0 note=70 velocity=95 time=0
EXTRACT: note_on channel=0 note=65 velocity=95 time=0
EXTRACT: note_on channel=0 note=62 velocity=95 time=0
EXTRACT: note_on channel=0 note=58 velocity=95 time=0
EXTRACT: note_on channel=0 note=53 velocity=95 time=0
EXTRACT: note_on channel=0 note=46 velocity=95 time=0
EXTRACT: note_off channel=2 note=70 velocity=95 time=0
EXTRACT: note_off channel=2 note=65 velocity=95 time=0
EXTRACT: note_off channel=2 note=62 velocity=95 time=0
EXTRACT: note_off channel=2 note=58 velocity=95 time=0
EXTRACT: note_off channel=2 note=53 velocity=95 time=0
EXTRACT: note_off channel=2 note=46 velocity=95 time=0
EXTRACT: note_on channel=2 note=70 velocity=95 time=0
EXTRACT: note_on channel=2 note=65 velocity=95 time=0
EXTRACT: note_on channel=2 note=62 velocity=95 time=0
EXTRACT: note_on channel=2 note=58 velocity=95 time=0
EXTRACT: note_on channel=2 note=53 velocity=95 time=0
EXTRACT: note_on channel=2 note=46 velocity=95 time=0
EXTRACT: note_off channel=0 note=70 velocity=95 time=0.39999999999999997
EXTRACT: note_off channel=0 note=65 velocity=95 time=0
EXTRACT: note_off channel=0 note=62 velocity=95 time=0
EXTRACT: note_off channel=0 note=58 velocity=95 time=0
EXTRACT: note_off channel=0 note=53 velocity=95 time=0
EXTRACT: note_off channel=0 note=46 velocity=95 time=0
EXTRACT: note_on channel=0 note=70 velocity=95 time=0
EXTRACT: note_on channel=0 note=65 velocity=95 time=0
EXTRACT: note_on channel=0 note=62 velocity=95 time=0
EXTRACT: note_on channel=0 note=58 velocity=95 time=0
EXTRACT: note_on channel=0 note=53 velocity=95 time=0
EXTRACT: note_on channel=0 note=46 velocity=95 time=0
EXTRACT: note_off channel=2 note=70 velocity=95 time=0
EXTRACT: note_off channel=2 note=65 velocity=95 time=0
EXTRACT: note_off channel=2 note=62 velocity=95 time=0
EXTRACT: note_off channel=2 note=58 velocity=95 time=0
EXTRACT: note_off channel=2 note=53 velocity=95 time=0
EXTRACT: note_off channel=2 note=46 velocity=95 time=0
EXTRACT: note_on channel=2 note=70 velocity=95 time=0
EXTRACT: note_on channel=2 note=65 velocity=95 time=0
EXTRACT: note_on channel=2 note=62 velocity=95 time=0
EXTRACT: note_on channel=2 note=58 velocity=95 time=0
EXTRACT: note_on channel=2 note=53 velocity=95 time=0
EXTRACT: note_on channel=2 note=46 velocity=95 time=0
EXTRACT: note_off channel=0 note=70 velocity=95 time=0.39999999999999997
EXTRACT: note_off channel=0 note=65 velocity=95 time=0
EXTRACT: note_off channel=0 note=62 velocity=95 time=0
EXTRACT: note_off channel=0 note=58 velocity=95 time=0
EXTRACT: note_off channel=0 note=53 velocity=95 time=0
EXTRACT: note_off channel=0 note=46 velocity=95 time=0
EXTRACT: note_on channel=0 note=69 velocity=95 time=0
EXTRACT: note_on channel=0 note=65 velocity=95 time=0
EXTRACT: note_on channel=0 note=60 velocity=95 time=0
EXTRACT: note_on channel=0 note=53 velocity=95 time=0
EXTRACT: note_on channel=0 note=48 velocity=95 time=0
EXTRACT: note_off channel=2 note=70 velocity=95 time=0
EXTRACT: note_off channel=2 note=65 velocity=95 time=0
EXTRACT: note_off channel=2 note=62 velocity=95 time=0
EXTRACT: note_off channel=2 note=58 velocity=95 time=0
EXTRACT: note_off channel=2 note=53 velocity=95 time=0
EXTRACT: note_off channel=2 note=46 velocity=95 time=0
EXTRACT: note_on channel=2 note=69 velocity=95 time=0
EXTRACT: note_on channel=2 note=65 velocity=95 time=0
EXTRACT: note_on channel=2 note=60 velocity=95 time=0
EXTRACT: note_on channel=2 note=53 velocity=95 time=0
EXTRACT: note_on channel=2 note=48 velocity=95 time=0
EXTRACT: note_off channel=6 note=70 velocity=95 time=0
EXTRACT: note_off channel=6 note=65 velocity=95 time=0
EXTRACT: note_off channel=6 note=62 velocity=95 time=0
EXTRACT: note_off channel=6 note=58 velocity=95 time=0
EXTRACT: note_on channel=6 note=65 velocity=95 time=0
EXTRACT: note_on channel=6 note=60 velocity=95 time=0
EXTRACT: note_on channel=6 note=57 velocity=95 time=0
EXTRACT: note_on channel=6 note=53 velocity=95 time=0
EXTRACT: note_off channel=0 note=69 velocity=95 time=0.39999999999999997
EXTRACT: note_off channel=0 note=65 velocity=95 time=0
EXTRACT: note_off channel=0 note=60 velocity=95 time=0
EXTRACT: note_off channel=0 note=53 velocity=95 time=0
EXTRACT: note_off channel=0 note=48 velocity=95 time=0
EXTRACT: note_on channel=0 note=69 velocity=95 time=0
EXTRACT: note_on channel=0 note=65 velocity=95 time=0
EXTRACT: note_on channel=0 note=60 velocity=95 time=0
EXTRACT: note_on channel=0 note=53 velocity=95 time=0
EXTRACT: note_on channel=0 note=48 velocity=95 time=0
EXTRACT: note_off channel=2 note=69 velocity=95 time=0
EXTRACT: note_off channel=2 note=65 velocity=95 time=0
EXTRACT: note_off channel=2 note=60 velocity=95 time=0
EXTRACT: note_off channel=2 note=53 velocity=95 time=0
EXTRACT: note_off channel=2 note=48 velocity=95 time=0
EXTRACT: note_on channel=2 note=69 velocity=95 time=0
EXTRACT: note_on channel=2 note=65 velocity=95 time=0
EXTRACT: note_on channel=2 note=60 velocity=95 time=0
EXTRACT: note_on channel=2 note=53 velocity=95 time=0
EXTRACT: note_on channel=2 note=48 velocity=95 time=0
EXTRACT: note_off channel=0 note=69 velocity=95 time=0.39999999999999997
EXTRACT: note_off channel=0 note=65 velocity=95 time=0
EXTRACT: note_off channel=0 note=60 velocity=95 time=0
EXTRACT: note_off channel=0 note=53 velocity=95 time=0
EXTRACT: note_off channel=0 note=48 velocity=95 time=0
EXTRACT: note_on channel=0 note=69 velocity=95 time=0
EXTRACT: note_on channel=0 note=65 velocity=95 time=0
EXTRACT: note_on channel=0 note=60 velocity=95 time=0
EXTRACT: note_on channel=0 note=53 velocity=95 time=0
EXTRACT: note_on channel=0 note=48 velocity=95 time=0
EXTRACT: note_off channel=2 note=69 velocity=95 time=0
EXTRACT: note_off channel=2 note=65 velocity=95 time=0
EXTRACT: note_off channel=2 note=60 velocity=95 time=0
EXTRACT: note_off channel=2 note=53 velocity=95 time=0
EXTRACT: note_off channel=2 note=48 velocity=95 time=0
EXTRACT: note_on channel=2 note=69 velocity=95 time=0
EXTRACT: note_on channel=2 note=65 velocity=95 time=0
EXTRACT: note_on channel=2 note=60 velocity=95 time=0
EXTRACT: note_on channel=2 note=53 velocity=95 time=0
EXTRACT: note_on channel=2 note=48 velocity=95 time=0
EXTRACT: note_off channel=0 note=69 velocity=95 time=0.39999999999999997
EXTRACT: note_off channel=0 note=65 velocity=95 time=0
EXTRACT: note_off channel=0 note=60 velocity=95 time=0
EXTRACT: note_off channel=0 note=53 velocity=95 time=0
EXTRACT: note_off channel=0 note=48 velocity=95 time=0
EXTRACT: note_on channel=0 note=69 velocity=95 time=0
EXTRACT: note_on channel=0 note=65 velocity=95 time=0
EXTRACT: note_on channel=0 note=60 velocity=95 time=0
EXTRACT: note_on channel=0 note=53 velocity=95 time=0
EXTRACT: note_on channel=0 note=48 velocity=95 time=0
EXTRACT: note_off channel=2 note=69 velocity=95 time=0
EXTRACT: note_off channel=2 note=65 velocity=95 time=0
EXTRACT: note_off channel=2 note=60 velocity=95 time=0
EXTRACT: note_off channel=2 note=53 velocity=95 time=0
EXTRACT: note_off channel=2 note=48 velocity=95 time=0
EXTRACT: note_on channel=2 note=69 velocity=95 time=0
EXTRACT: note_on channel=2 note=65 velocity=95 time=0
EXTRACT: note_on channel=2 note=60 velocity=95 time=0
EXTRACT: note_on channel=2 note=53 velocity=95 time=0
EXTRACT: note_on channel=2 note=48 velocity=95 time=0
EXTRACT: note_off channel=0 note=69 velocity=95 time=0.39999999999999997
EXTRACT: note_off channel=0 note=65 velocity=95 time=0
EXTRACT: note_off channel=0 note=60 velocity=95 time=0
EXTRACT: note_off channel=0 note=53 velocity=95 time=0
EXTRACT: note_off channel=0 note=48 velocity=95 time=0
EXTRACT: note_on channel=0 note=69 velocity=95 time=0
EXTRACT: note_on channel=0 note=65 velocity=95 time=0
EXTRACT: note_on channel=0 note=60 velocity=95 time=0
EXTRACT: note_on channel=0 note=53 velocity=95 time=0
EXTRACT: note_on channel=0 note=48 velocity=95 time=0
EXTRACT: note_off channel=2 note=69 velocity=95 time=0
EXTRACT: note_off channel=2 note=65 velocity=95 time=0
EXTRACT: note_off channel=2 note=60 velocity=95 time=0
EXTRACT: note_off channel=2 note=53 velocity=95 time=0
EXTRACT: note_off channel=2 note=48 velocity=95 time=0
EXTRACT: note_on channel=2 note=69 velocity=95 time=0
EXTRACT: note_on channel=2 note=65 velocity=95 time=0
EXTRACT: note_on channel=2 note=60 velocity=95 time=0
EXTRACT: note_on channel=2 note=53 velocity=95 time=0
EXTRACT: note_on channel=2 note=48 velocity=95 time=0
EXTRACT: note_off channel=0 note=69 velocity=95 time=0.39999999999999997
EXTRACT: note_off channel=0 note=65 velocity=95 time=0
EXTRACT: note_off channel=0 note=60 velocity=95 time=0
EXTRACT: note_off channel=0 note=53 velocity=95 time=0
EXTRACT: note_off channel=0 note=48 velocity=95 time=0
EXTRACT: note_on channel=0 note=69 velocity=95 time=0
EXTRACT: note_on channel=0 note=65 velocity=95 time=0
EXTRACT: note_on channel=0 note=60 velocity=95 time=0
EXTRACT: note_on channel=0 note=53 velocity=95 time=0
EXTRACT: note_on channel=0 note=48 velocity=95 time=0
EXTRACT: note_off channel=2 note=69 velocity=95 time=0
EXTRACT: note_off channel=2 note=65 velocity=95 time=0
EXTRACT: note_off channel=2 note=60 velocity=95 time=0
EXTRACT: note_off channel=2 note=53 velocity=95 time=0
EXTRACT: note_off channel=2 note=48 velocity=95 time=0
EXTRACT: note_on channel=2 note=69 velocity=95 time=0
EXTRACT: note_on channel=2 note=65 velocity=95 time=0
EXTRACT: note_on channel=2 note=60 velocity=95 time=0
EXTRACT: note_on channel=2 note=53 velocity=95 time=0
EXTRACT: note_on channel=2 note=48 velocity=95 time=0
EXTRACT: note_off channel=0 note=69 velocity=95 time=0.39999999999999997
EXTRACT: note_off channel=0 note=65 velocity=95 time=0
EXTRACT: note_off channel=0 note=60 velocity=95 time=0
EXTRACT: note_off channel=0 note=53 velocity=95 time=0
EXTRACT: note_off channel=0 note=48 velocity=95 time=0
EXTRACT: note_on channel=0 note=69 velocity=95 time=0
EXTRACT: note_on channel=0 note=65 velocity=95 time=0
EXTRACT: note_on channel=0 note=60 velocity=95 time=0
EXTRACT: note_on channel=0 note=53 velocity=95 time=0
EXTRACT: note_on channel=0 note=48 velocity=95 time=0
EXTRACT: note_off channel=2 note=69 velocity=95 time=0
EXTRACT: note_off channel=2 note=65 velocity=95 time=0
EXTRACT: note_off channel=2 note=60 velocity=95 time=0
EXTRACT: note_off channel=2 note=53 velocity=95 time=0
EXTRACT: note_off channel=2 note=48 velocity=95 time=0
EXTRACT: note_on channel=2 note=69 velocity=95 time=0
EXTRACT: note_on channel=2 note=65 velocity=95 time=0
EXTRACT: note_on channel=2 note=60 velocity=95 time=0
EXTRACT: note_on channel=2 note=53 velocity=95 time=0
EXTRACT: note_on channel=2 note=48 velocity=95 time=0
EXTRACT: note_off channel=0 note=69 velocity=95 time=0.39999999999999997
EXTRACT: note_off channel=0 note=65 velocity=95 time=0
EXTRACT: note_off channel=0 note=60 velocity=95 time=0
EXTRACT: note_off channel=0 note=53 velocity=95 time=0
EXTRACT: note_off channel=0 note=48 velocity=95 time=0
EXTRACT: note_on channel=0 note=69 velocity=95 time=0
EXTRACT: note_on channel=0 note=65 velocity=95 time=0
EXTRACT: note_on channel=0 note=60 velocity=95 time=0
EXTRACT: note_on channel=0 note=53 velocity=95 time=0
EXTRACT: note_on channel=0 note=48 velocity=95 time=0
EXTRACT: note_off channel=2 note=69 velocity=95 time=0
EXTRACT: note_off channel=2 note=65 velocity=95 time=0
EXTRACT: note_off channel=2 note=60 velocity=95 time=0
EXTRACT: note_off channel=2 note=53 velocity=95 time=0
EXTRACT: note_off channel=2 note=48 velocity=95 time=0
EXTRACT: note_on channel=2 note=69 velocity=95 time=0
EXTRACT: note_on channel=2 note=65 velocity=95 time=0
EXTRACT: note_on channel=2 note=60 velocity=95 time=0
EXTRACT: note_on channel=2 note=53 velocity=95 time=0
EXTRACT: note_on channel=2 note=48 velocity=95 time=0
EXTRACT: note_off channel=0 note=69 velocity=95 time=0.39999999999999997
EXTRACT: note_off channel=0 note=65 velocity=95 time=0
EXTRACT: note_off channel=0 note=60 velocity=95 time=0
EXTRACT: note_off channel=0 note=53 velocity=95 time=0
EXTRACT: note_off channel=0 note=48 velocity=95 time=0
EXTRACT: note_on channel=0 note=69 velocity=95 time=0
EXTRACT: note_on channel=0 note=65 velocity=95 time=0
EXTRACT: note_on channel=0 note=60 velocity=95 time=0
EXTRACT: note_on channel=0 note=53 velocity=95 time=0
EXTRACT: note_on channel=0 note=48 velocity=95 time=0
EXTRACT: note_off channel=2 note=69 velocity=95 time=0
EXTRACT: note_off channel=2 note=65 velocity=95 time=0
EXTRACT: note_off channel=2 note=60 velocity=95 time=0
EXTRACT: note_off channel=2 note=53 velocity=95 time=0
EXTRACT: note_off channel=2 note=48 velocity=95 time=0
EXTRACT: note_on channel=2 note=69 velocity=95 time=0
EXTRACT: note_on channel=2 note=65 velocity=95 time=0
EXTRACT: note_on channel=2 note=60 velocity=95 time=0
EXTRACT: note_on channel=2 note=53 velocity=95 time=0
EXTRACT: note_on channel=2 note=48 velocity=95 time=0
EXTRACT: note_off channel=6 note=65 velocity=95 time=0
EXTRACT: note_off channel=6 note=60 velocity=95 time=0
EXTRACT: note_off channel=6 note=57 velocity=95 time=0
EXTRACT: note_off channel=6 note=53 velocity=95 time=0
EXTRACT: note_on channel=6 note=65 velocity=95 time=0
EXTRACT: note_on channel=6 note=60 velocity=95 time=0
EXTRACT: note_on channel=6 note=57 velocity=95 time=0
EXTRACT: note_on channel=6 note=53 velocity=95 time=0
EXTRACT: note_off channel=0 note=69 velocity=95 time=0.39999999999999997
EXTRACT: note_off channel=0 note=65 velocity=95 time=0
EXTRACT: note_off channel=0 note=60 velocity=95 time=0
EXTRACT: note_off channel=0 note=53 velocity=95 time=0
EXTRACT: note_off channel=0 note=48 velocity=95 time=0
EXTRACT: note_on channel=0 note=69 velocity=95 time=0
EXTRACT: note_on channel=0 note=65 velocity=95 time=0
EXTRACT: note_on channel=0 note=60 velocity=95 time=0
EXTRACT: note_on channel=0 note=53 velocity=95 time=0
EXTRACT: note_on channel=0 note=48 velocity=95 time=0
EXTRACT: note_off channel=2 note=69 velocity=95 time=0
EXTRACT: note_off channel=2 note=65 velocity=95 time=0
EXTRACT: note_off channel=2 note=60 velocity=95 time=0
EXTRACT: note_off channel=2 note=53 velocity=95 time=0
EXTRACT: note_off channel=2 note=48 velocity=95 time=0
EXTRACT: note_on channel=2 note=69 velocity=95 time=0
EXTRACT: note_on channel=2 note=65 velocity=95 time=0
EXTRACT: note_on channel=2 note=60 velocity=95 time=0
EXTRACT: note_on channel=2 note=53 velocity=95 time=0
EXTRACT: note_on channel=2 note=48 velocity=95 time=0
EXTRACT: note_off channel=0 note=69 velocity=95 time=0.39999999999999997
EXTRACT: note_off channel=0 note=65 velocity=95 time=0
EXTRACT: note_off channel=0 note=60 velocity=95 time=0
EXTRACT: note_off channel=0 note=53 velocity=95 time=0
EXTRACT: note_off channel=0 note=48 velocity=95 time=0
EXTRACT: note_on channel=0 note=69 velocity=95 time=0
EXTRACT: note_on channel=0 note=65 velocity=95 time=0
EXTRACT: note_on channel=0 note=60 velocity=95 time=0
EXTRACT: note_on channel=0 note=53 velocity=95 time=0
EXTRACT: note_on channel=0 note=48 velocity=95 time=0
EXTRACT: note_off channel=2 note=69 velocity=95 time=0
EXTRACT: note_off channel=2 note=65 velocity=95 time=0
EXTRACT: note_off channel=2 note=60 velocity=95 time=0
EXTRACT: note_off channel=2 note=53 velocity=95 time=0
EXTRACT: note_off channel=2 note=48 velocity=95 time=0
EXTRACT: note_on channel=2 note=69 velocity=95 time=0
EXTRACT: note_on channel=2 note=65 velocity=95 time=0
EXTRACT: note_on channel=2 note=60 velocity=95 time=0
EXTRACT: note_on channel=2 note=53 velocity=95 time=0
EXTRACT: note_on channel=2 note=48 velocity=95 time=0
EXTRACT: note_off channel=0 note=69 velocity=95 time=0.39999999999999997
EXTRACT: note_off channel=0 note=65 velocity=95 time=0
EXTRACT: note_off channel=0 note=60 velocity=95 time=0
EXTRACT: note_off channel=0 note=53 velocity=95 time=0
EXTRACT: note_off channel=0 note=48 velocity=95 time=0
EXTRACT: note_on channel=0 note=69 velocity=95 time=0
EXTRACT: note_on channel=0 note=65 velocity=95 time=0
EXTRACT: note_on channel=0 note=60 velocity=95 time=0
EXTRACT: note_on channel=0 note=53 velocity=95 time=0
EXTRACT: note_on channel=0 note=48 velocity=95 time=0
EXTRACT: note_off channel=2 note=69 velocity=95 time=0
EXTRACT: note_off channel=2 note=65 velocity=95 time=0
EXTRACT: note_off channel=2 note=60 velocity=95 time=0
EXTRACT: note_off channel=2 note=53 velocity=95 time=0
EXTRACT: note_off channel=2 note=48 velocity=95 time=0
EXTRACT: note_on channel=2 note=69 velocity=95 time=0
EXTRACT: note_on channel=2 note=65 velocity=95 time=0
EXTRACT: note_on channel=2 note=60 velocity=95 time=0
EXTRACT: note_on channel=2 note=53 velocity=95 time=0
EXTRACT: note_on channel=2 note=48 velocity=95 time=0
EXTRACT: note_off channel=0 note=69 velocity=95 time=0.39999999999999997
EXTRACT: note_off channel=0 note=65 velocity=95 time=0
EXTRACT: note_off channel=0 note=60 velocity=95 time=0
EXTRACT: note_off channel=0 note=53 velocity=95 time=0
EXTRACT: note_off channel=0 note=48 velocity=95 time=0
EXTRACT: note_on channel=0 note=69 velocity=95 time=0
EXTRACT: note_on channel=0 note=65 velocity=95 time=0
EXTRACT: note_on channel=0 note=60 velocity=95 time=0
EXTRACT: note_on channel=0 note=53 velocity=95 time=0
EXTRACT: note_on channel=0 note=48 velocity=95 time=0
EXTRACT: note_off channel=2 note=69 velocity=95 time=0
EXTRACT: note_off channel=2 note=65 velocity=95 time=0
EXTRACT: note_off channel=2 note=60 velocity=95 time=0
EXTRACT: note_off channel=2 note=53 velocity=95 time=0
EXTRACT: note_off channel=2 note=48 velocity=95 time=0
EXTRACT: note_on channel=2 note=69 velocity=95 time=0
EXTRACT: note_on channel=2 note=65 velocity=95 time=0
EXTRACT: note_on channel=2 note=60 velocity=95 time=0
EXTRACT: note_on channel=2 note=53 velocity=95 time=0
EXTRACT: note_on channel=2 note=48 velocity=95 time=0
EXTRACT: note_off channel=0 note=69 velocity=95 time=0.39999999999999997
EXTRACT: note_off channel=0 note=65 velocity=95 time=0
EXTRACT: note_off channel=0 note=60 velocity=95 time=0
EXTRACT: note_off channel=0 note=53 velocity=95 time=0
EXTRACT: note_off channel=0 note=48 velocity=95 time=0
EXTRACT: note_on channel=0 note=69 velocity=95 time=0
EXTRACT: note_on channel=0 note=65 velocity=95 time=0
EXTRACT: note_on channel=0 note=60 velocity=95 time=0
EXTRACT: note_on channel=0 note=53 velocity=95 time=0
EXTRACT: note_on channel=0 note=48 velocity=95 time=0
EXTRACT: note_off channel=2 note=69 velocity=95 time=0
EXTRACT: note_off channel=2 note=65 velocity=95 time=0
EXTRACT: note_off channel=2 note=60 velocity=95 time=0
EXTRACT: note_off channel=2 note=53 velocity=95 time=0
EXTRACT: note_off channel=2 note=48 velocity=95 time=0
EXTRACT: note_on channel=2 note=69 velocity=95 time=0
EXTRACT: note_on channel=2 note=65 velocity=95 time=0
EXTRACT: note_on channel=2 note=60 velocity=95 time=0
EXTRACT: note_on channel=2 note=53 velocity=95 time=0
EXTRACT: note_on channel=2 note=48 velocity=95 time=0
EXTRACT: note_off channel=0 note=69 velocity=95 time=0.39999999999999997
EXTRACT: note_off channel=0 note=65 velocity=95 time=0
EXTRACT: note_off channel=0 note=60 velocity=95 time=0
EXTRACT: note_off channel=0 note=53 velocity=95 time=0
EXTRACT: note_off channel=0 note=48 velocity=95 time=0
EXTRACT: note_on channel=0 note=69 velocity=95 time=0
EXTRACT: note_on channel=0 note=65 velocity=95 time=0
EXTRACT: note_on channel=0 note=60 velocity=95 time=0
EXTRACT: note_on channel=0 note=53 velocity=95 time=0
EXTRACT: note_on channel=0 note=48 velocity=95 time=0
EXTRACT: note_off channel=2 note=69 velocity=95 time=0
EXTRACT: note_off channel=2 note=65 velocity=95 time=0
EXTRACT: note_off channel=2 note=60 velocity=95 time=0
EXTRACT: note_off channel=2 note=53 velocity=95 time=0
EXTRACT: note_off channel=2 note=48 velocity=95 time=0
EXTRACT: note_on channel=2 note=69 velocity=95 time=0
EXTRACT: note_on channel=2 note=65 velocity=95 time=0
EXTRACT: note_on channel=2 note=60 velocity=95 time=0
EXTRACT: note_on channel=2 note=53 velocity=95 time=0
EXTRACT: note_on channel=2 note=48 velocity=95 time=0
EXTRACT: note_off channel=0 note=69 velocity=95 time=0.39999999999999997
EXTRACT: note_off channel=0 note=65 velocity=95 time=0
EXTRACT: note_off channel=0 note=60 velocity=95 time=0
EXTRACT: note_off channel=0 note=53 velocity=95 time=0
EXTRACT: note_off channel=0 note=48 velocity=95 time=0
EXTRACT: note_on channel=0 note=69 velocity=95 time=0
EXTRACT: note_on channel=0 note=65 velocity=95 time=0
EXTRACT: note_on channel=0 note=60 velocity=95 time=0
EXTRACT: note_on channel=0 note=53 velocity=95 time=0
EXTRACT: note_on channel=0 note=48 velocity=95 time=0
EXTRACT: note_off channel=2 note=69 velocity=95 time=0
EXTRACT: note_off channel=2 note=65 velocity=95 time=0
EXTRACT: note_off channel=2 note=60 velocity=95 time=0
EXTRACT: note_off channel=2 note=53 velocity=95 time=0
EXTRACT: note_off channel=2 note=48 velocity=95 time=0
EXTRACT: note_on channel=2 note=69 velocity=95 time=0
EXTRACT: note_on channel=2 note=65 velocity=95 time=0
EXTRACT: note_on channel=2 note=60 velocity=95 time=0
EXTRACT: note_on channel=2 note=53 velocity=95 time=0
EXTRACT: note_on channel=2 note=48 velocity=95 time=0
EXTRACT: note_off channel=0 note=69 velocity=95 time=0.39999999999999997
EXTRACT: note_off channel=0 note=65 velocity=95 time=0
EXTRACT: note_off channel=0 note=60 velocity=95 time=0
EXTRACT: note_off channel=0 note=53 velocity=95 time=0
EXTRACT: note_off channel=0 note=48 velocity=95 time=0
EXTRACT: note_on channel=0 note=69 velocity=95 time=0
EXTRACT: note_on channel=0 note=65 velocity=95 time=0
EXTRACT: note_on channel=0 note=62 velocity=95 time=0
EXTRACT: note_on channel=0 note=57 velocity=95 time=0
EXTRACT: note_on channel=0 note=50 velocity=95 time=0
EXTRACT: note_on channel=0 note=45 velocity=95 time=0
EXTRACT: note_off channel=2 note=69 velocity=95 time=0
EXTRACT: note_off channel=2 note=65 velocity=95 time=0
EXTRACT: note_off channel=2 note=60 velocity=95 time=0
EXTRACT: note_off channel=2 note=53 velocity=95 time=0
EXTRACT: note_off channel=2 note=48 velocity=95 time=0
EXTRACT: note_on channel=2 note=69 velocity=95 time=0
EXTRACT: note_on channel=2 note=65 velocity=95 time=0
EXTRACT: note_on channel=2 note=62 velocity=95 time=0
EXTRACT: note_on channel=2 note=57 velocity=95 time=0
EXTRACT: note_on channel=2 note=50 velocity=95 time=0
EXTRACT: note_on channel=2 note=45 velocity=95 time=0
EXTRACT: note_off channel=6 note=65 velocity=95 time=0
EXTRACT: note_off channel=6 note=60 velocity=95 time=0
EXTRACT: note_off channel=6 note=57 velocity=95 time=0
EXTRACT: note_off channel=6 note=53 velocity=95 time=0
EXTRACT: note_on channel=6 note=69 velocity=95 time=0
EXTRACT: note_on channel=6 note=65 velocity=95 time=0
EXTRACT: note_on channel=6 note=62 velocity=95 time=0
EXTRACT: note_on channel=6 note=57 velocity=95 time=0
EXTRACT: note_off channel=0 note=69 velocity=95 time=0.39999999999999997
EXTRACT: note_off channel=0 note=65 velocity=95 time=0
EXTRACT: note_off channel=0 note=62 velocity=95 time=0
EXTRACT: note_off channel=0 note=57 velocity=95 time=0
EXTRACT: note_off channel=0 note=50 velocity=95 time=0
EXTRACT: note_off channel=0 note=45 velocity=95 time=0
EXTRACT: note_on channel=0 note=69 velocity=95 time=0
EXTRACT: note_on channel=0 note=65 velocity=95 time=0
EXTRACT: note_on channel=0 note=62 velocity=95 time=0
EXTRACT: note_on channel=0 note=57 velocity=95 time=0
EXTRACT: note_on channel=0 note=50 velocity=95 time=0
EXTRACT: note_on channel=0 note=45 velocity=95 time=0
EXTRACT: note_off channel=2 note=69 velocity=95 time=0
EXTRACT: note_off channel=2 note=65 velocity=95 time=0
EXTRACT: note_off channel=2 note=62 velocity=95 time=0
EXTRACT: note_off channel=2 note=57 velocity=95 time=0
EXTRACT: note_off channel=2 note=50 velocity=95 time=0
EXTRACT: note_off channel=2 note=45 velocity=95 time=0
EXTRACT: note_on channel=2 note=69 velocity=95 time=0
EXTRACT: note_on channel=2 note=65 velocity=95 time=0
EXTRACT: note_on channel=2 note=62 velocity=95 time=0
EXTRACT: note_on channel=2 note=57 velocity=95 time=0
EXTRACT: note_on channel=2 note=50 velocity=95 time=0
EXTRACT: note_on channel=2 note=45 velocity=95 time=0
EXTRACT: note_off channel=0 note=69 velocity=95 time=0.39999999999999997
EXTRACT: note_off channel=0 note=65 velocity=95 time=0
EXTRACT: note_off channel=0 note=62 velocity=95 time=0
EXTRACT: note_off channel=0 note=57 velocity=95 time=0
EXTRACT: note_off channel=0 note=50 velocity=95 time=0
EXTRACT: note_off channel=0 note=45 velocity=95 time=0
EXTRACT: note_on channel=0 note=69 velocity=95 time=0
EXTRACT: note_on channel=0 note=65 velocity=95 time=0
EXTRACT: note_on channel=0 note=62 velocity=95 time=0
EXTRACT: note_on channel=0 note=57 velocity=95 time=0
EXTRACT: note_on channel=0 note=50 velocity=95 time=0
EXTRACT: note_on channel=0 note=45 velocity=95 time=0
EXTRACT: note_off channel=2 note=69 velocity=95 time=0
EXTRACT: note_off channel=2 note=65 velocity=95 time=0
EXTRACT: note_off channel=2 note=62 velocity=95 time=0
EXTRACT: note_off channel=2 note=57 velocity=95 time=0
EXTRACT: note_off channel=2 note=50 velocity=95 time=0
EXTRACT: note_off channel=2 note=45 velocity=95 time=0
EXTRACT: note_on channel=2 note=69 velocity=95 time=0
EXTRACT: note_on channel=2 note=65 velocity=95 time=0
EXTRACT: note_on channel=2 note=62 velocity=95 time=0
EXTRACT: note_on channel=2 note=57 velocity=95 time=0
EXTRACT: note_on channel=2 note=50 velocity=95 time=0
EXTRACT: note_on channel=2 note=45 velocity=95 time=0
EXTRACT: note_off channel=0 note=69 velocity=95 time=0.39999999999999997
EXTRACT: note_off channel=0 note=65 velocity=95 time=0
EXTRACT: note_off channel=0 note=62 velocity=95 time=0
EXTRACT: note_off channel=0 note=57 velocity=95 time=0
EXTRACT: note_off channel=0 note=50 velocity=95 time=0
EXTRACT: note_off channel=0 note=45 velocity=95 time=0
EXTRACT: note_on channel=0 note=69 velocity=95 time=0
EXTRACT: note_on channel=0 note=65 velocity=95 time=0
EXTRACT: note_on channel=0 note=62 velocity=95 time=0
EXTRACT: note_on channel=0 note=57 velocity=95 time=0
EXTRACT: note_on channel=0 note=50 velocity=95 time=0
EXTRACT: note_on channel=0 note=45 velocity=95 time=0
EXTRACT: note_off channel=2 note=69 velocity=95 time=0
EXTRACT: note_off channel=2 note=65 velocity=95 time=0
EXTRACT: note_off channel=2 note=62 velocity=95 time=0
EXTRACT: note_off channel=2 note=57 velocity=95 time=0
EXTRACT: note_off channel=2 note=50 velocity=95 time=0
EXTRACT: note_off channel=2 note=45 velocity=95 time=0
EXTRACT: note_on channel=2 note=69 velocity=95 time=0
EXTRACT: note_on channel=2 note=65 velocity=95 time=0
EXTRACT: note_on channel=2 note=62 velocity=95 time=0
EXTRACT: note_on channel=2 note=57 velocity=95 time=0
EXTRACT: note_on channel=2 note=50 velocity=95 time=0
EXTRACT: note_on channel=2 note=45 velocity=95 time=0
EXTRACT: note_off channel=0 note=69 velocity=95 time=0.39999999999999997
EXTRACT: note_off channel=0 note=65 velocity=95 time=0
EXTRACT: note_off channel=0 note=62 velocity=95 time=0
EXTRACT: note_off channel=0 note=57 velocity=95 time=0
EXTRACT: note_off channel=0 note=50 velocity=95 time=0
EXTRACT: note_off channel=0 note=45 velocity=95 time=0
EXTRACT: note_on channel=0 note=69 velocity=95 time=0
EXTRACT: note_on channel=0 note=65 velocity=95 time=0
EXTRACT: note_on channel=0 note=62 velocity=95 time=0
EXTRACT: note_on channel=0 note=57 velocity=95 time=0
EXTRACT: note_on channel=0 note=50 velocity=95 time=0
EXTRACT: note_on channel=0 note=45 velocity=95 time=0
EXTRACT: note_off channel=2 note=69 velocity=95 time=0
EXTRACT: note_off channel=2 note=65 velocity=95 time=0
EXTRACT: note_off channel=2 note=62 velocity=95 time=0
EXTRACT: note_off channel=2 note=57 velocity=95 time=0
EXTRACT: note_off channel=2 note=50 velocity=95 time=0
EXTRACT: note_off channel=2 note=45 velocity=95 time=0
EXTRACT: note_on channel=2 note=69 velocity=95 time=0
EXTRACT: note_on channel=2 note=65 velocity=95 time=0
EXTRACT: note_on channel=2 note=62 velocity=95 time=0
EXTRACT: note_on channel=2 note=57 velocity=95 time=0
EXTRACT: note_on channel=2 note=50 velocity=95 time=0
EXTRACT: note_on channel=2 note=45 velocity=95 time=0
EXTRACT: note_off channel=0 note=69 velocity=95 time=0.39999999999999997
EXTRACT: note_off channel=0 note=65 velocity=95 time=0
EXTRACT: note_off channel=0 note=62 velocity=95 time=0
EXTRACT: note_off channel=0 note=57 velocity=95 time=0
EXTRACT: note_off channel=0 note=50 velocity=95 time=0
EXTRACT: note_off channel=0 note=45 velocity=95 time=0
EXTRACT: note_on channel=0 note=69 velocity=95 time=0
EXTRACT: note_on channel=0 note=65 velocity=95 time=0
EXTRACT: note_on channel=0 note=62 velocity=95 time=0
EXTRACT: note_on channel=0 note=57 velocity=95 time=0
EXTRACT: note_on channel=0 note=50 velocity=95 time=0
EXTRACT: note_on channel=0 note=45 velocity=95 time=0
EXTRACT: note_off channel=2 note=69 velocity=95 time=0
EXTRACT: note_off channel=2 note=65 velocity=95 time=0
EXTRACT: note_off channel=2 note=62 velocity=95 time=0
EXTRACT: note_off channel=2 note=57 velocity=95 time=0
EXTRACT: note_off channel=2 note=50 velocity=95 time=0
EXTRACT: note_off channel=2 note=45 velocity=95 time=0
EXTRACT: note_on channel=2 note=69 velocity=95 time=0
EXTRACT: note_on channel=2 note=65 velocity=95 time=0
EXTRACT: note_on channel=2 note=62 velocity=95 time=0
EXTRACT: note_on channel=2 note=57 velocity=95 time=0
EXTRACT: note_on channel=2 note=50 velocity=95 time=0
EXTRACT: note_on channel=2 note=45 velocity=95 time=0
EXTRACT: note_off channel=0 note=69 velocity=95 time=0.39999999999999997
EXTRACT: note_off channel=0 note=65 velocity=95 time=0
EXTRACT: note_off channel=0 note=62 velocity=95 time=0
EXTRACT: note_off channel=0 note=57 velocity=95 time=0
EXTRACT: note_off channel=0 note=50 velocity=95 time=0
EXTRACT: note_off channel=0 note=45 velocity=95 time=0
EXTRACT: note_on channel=0 note=69 velocity=95 time=0
EXTRACT: note_on channel=0 note=65 velocity=95 time=0
EXTRACT: note_on channel=0 note=62 velocity=95 time=0
EXTRACT: note_on channel=0 note=57 velocity=95 time=0
EXTRACT: note_on channel=0 note=50 velocity=95 time=0
EXTRACT: note_on channel=0 note=45 velocity=95 time=0
EXTRACT: note_off channel=2 note=69 velocity=95 time=0
EXTRACT: note_off channel=2 note=65 velocity=95 time=0
EXTRACT: note_off channel=2 note=62 velocity=95 time=0
EXTRACT: note_off channel=2 note=57 velocity=95 time=0
EXTRACT: note_off channel=2 note=50 velocity=95 time=0
EXTRACT: note_off channel=2 note=45 velocity=95 time=0
EXTRACT: note_on channel=2 note=69 velocity=95 time=0
EXTRACT: note_on channel=2 note=65 velocity=95 time=0
EXTRACT: note_on channel=2 note=62 velocity=95 time=0
EXTRACT: note_on channel=2 note=57 velocity=95 time=0
EXTRACT: note_on channel=2 note=50 velocity=95 time=0
EXTRACT: note_on channel=2 note=45 velocity=95 time=0
EXTRACT: note_off channel=0 note=69 velocity=95 time=0.39999999999999997
EXTRACT: note_off channel=0 note=65 velocity=95 time=0
EXTRACT: note_off channel=0 note=62 velocity=95 time=0
EXTRACT: note_off channel=0 note=57 velocity=95 time=0
EXTRACT: note_off channel=0 note=50 velocity=95 time=0
EXTRACT: note_off channel=0 note=45 velocity=95 time=0
EXTRACT: note_on channel=0 note=69 velocity=95 time=0
EXTRACT: note_on channel=0 note=65 velocity=95 time=0
EXTRACT: note_on channel=0 note=62 velocity=95 time=0
EXTRACT: note_on channel=0 note=57 velocity=95 time=0
EXTRACT: note_on channel=0 note=50 velocity=95 time=0
EXTRACT: note_on channel=0 note=45 velocity=95 time=0
EXTRACT: note_off channel=2 note=69 velocity=95 time=0
EXTRACT: note_off channel=2 note=65 velocity=95 time=0
EXTRACT: note_off channel=2 note=62 velocity=95 time=0
EXTRACT: note_off channel=2 note=57 velocity=95 time=0
EXTRACT: note_off channel=2 note=50 velocity=95 time=0
EXTRACT: note_off channel=2 note=45 velocity=95 time=0
EXTRACT: note_on channel=2 note=69 velocity=95 time=0
EXTRACT: note_on channel=2 note=65 velocity=95 time=0
EXTRACT: note_on channel=2 note=62 velocity=95 time=0
EXTRACT: note_on channel=2 note=57 velocity=95 time=0
EXTRACT: note_on channel=2 note=50 velocity=95 time=0
EXTRACT: note_on channel=2 note=45 velocity=95 time=0
EXTRACT: note_off channel=0 note=69 velocity=95 time=0.39999999999999997
EXTRACT: note_off channel=0 note=65 velocity=95 time=0
EXTRACT: note_off channel=0 note=62 velocity=95 time=0
EXTRACT: note_off channel=0 note=57 velocity=95 time=0
EXTRACT: note_off channel=0 note=50 velocity=95 time=0
EXTRACT: note_off channel=0 note=45 velocity=95 time=0
EXTRACT: note_on channel=0 note=70 velocity=95 time=0
EXTRACT: note_on channel=0 note=65 velocity=95 time=0
EXTRACT: note_on channel=0 note=62 velocity=95 time=0
EXTRACT: note_on channel=0 note=58 velocity=95 time=0
EXTRACT: note_on channel=0 note=53 velocity=95 time=0
EXTRACT: note_on channel=0 note=46 velocity=95 time=0
EXTRACT: note_off channel=2 note=69 velocity=95 time=0
EXTRACT: note_off channel=2 note=65 velocity=95 time=0
EXTRACT: note_off channel=2 note=62 velocity=95 time=0
EXTRACT: note_off channel=2 note=57 velocity=95 time=0
EXTRACT: note_off channel=2 note=50 velocity=95 time=0
EXTRACT: note_off channel=2 note=45 velocity=95 time=0
EXTRACT: note_on channel=2 note=70 velocity=95 time=0
EXTRACT: note_on channel=2 note=65 velocity=95 time=0
EXTRACT: note_on channel=2 note=62 velocity=95 time=0
EXTRACT: note_on channel=2 note=58 velocity=95 time=0
EXTRACT: note_on channel=2 note=53 velocity=95 time=0
EXTRACT: note_on channel=2 note=46 velocity=95 time=0
EXTRACT: note_off channel=6 note=69 velocity=95 time=0
EXTRACT: note_off channel=6 note=65 velocity=95 time=0
EXTRACT: note_off channel=6 note=62 velocity=95 time=0
EXTRACT: note_off channel=6 note=57 velocity=95 time=0
EXTRACT: note_on channel=6 note=70 velocity=95 time=0
EXTRACT: note_on channel=6 note=65 velocity=95 time=0
EXTRACT: note_on channel=6 note=62 velocity=95 time=0
EXTRACT: note_on channel=6 note=58 velocity=95 time=0
EXTRACT: note_off channel=0 note=70 velocity=95 time=0.39999999999999997
EXTRACT: note_off channel=0 note=65 velocity=95 time=0
EXTRACT: note_off channel=0 note=62 velocity=95 time=0
EXTRACT: note_off channel=0 note=58 velocity=95 time=0
EXTRACT: note_off channel=0 note=53 velocity=95 time=0
EXTRACT: note_off channel=0 note=46 velocity=95 time=0
EXTRACT: note_on channel=0 note=70 velocity=95 time=0
EXTRACT: note_on channel=0 note=65 velocity=95 time=0
EXTRACT: note_on channel=0 note=62 velocity=95 time=0
EXTRACT: note_on channel=0 note=58 velocity=95 time=0
EXTRACT: note_on channel=0 note=53 velocity=95 time=0
EXTRACT: note_on channel=0 note=46 velocity=95 time=0
EXTRACT: note_off channel=2 note=70 velocity=95 time=0
EXTRACT: note_off channel=2 note=65 velocity=95 time=0
EXTRACT: note_off channel=2 note=62 velocity=95 time=0
EXTRACT: note_off channel=2 note=58 velocity=95 time=0
EXTRACT: note_off channel=2 note=53 velocity=95 time=0
EXTRACT: note_off channel=2 note=46 velocity=95 time=0
EXTRACT: note_on channel=2 note=70 velocity=95 time=0
EXTRACT: note_on channel=2 note=65 velocity=95 time=0
EXTRACT: note_on channel=2 note=62 velocity=95 time=0
EXTRACT: note_on channel=2 note=58 velocity=95 time=0
EXTRACT: note_on channel=2 note=53 velocity=95 time=0
EXTRACT: note_on channel=2 note=46 velocity=95 time=0
EXTRACT: note_off channel=0 note=70 velocity=95 time=0.39999999999999997
EXTRACT: note_off channel=0 note=65 velocity=95 time=0
EXTRACT: note_off channel=0 note=62 velocity=95 time=0
EXTRACT: note_off channel=0 note=58 velocity=95 time=0
EXTRACT: note_off channel=0 note=53 velocity=95 time=0
EXTRACT: note_off channel=0 note=46 velocity=95 time=0
EXTRACT: note_on channel=0 note=70 velocity=95 time=0
EXTRACT: note_on channel=0 note=65 velocity=95 time=0
EXTRACT: note_on channel=0 note=62 velocity=95 time=0
EXTRACT: note_on channel=0 note=58 velocity=95 time=0
EXTRACT: note_on channel=0 note=53 velocity=95 time=0
EXTRACT: note_on channel=0 note=46 velocity=95 time=0
EXTRACT: note_off channel=2 note=70 velocity=95 time=0
EXTRACT: note_off channel=2 note=65 velocity=95 time=0
EXTRACT: note_off channel=2 note=62 velocity=95 time=0
EXTRACT: note_off channel=2 note=58 velocity=95 time=0
EXTRACT: note_off channel=2 note=53 velocity=95 time=0
EXTRACT: note_off channel=2 note=46 velocity=95 time=0
EXTRACT: note_on channel=2 note=70 velocity=95 time=0
EXTRACT: note_on channel=2 note=65 velocity=95 time=0
EXTRACT: note_on channel=2 note=62 velocity=95 time=0
EXTRACT: note_on channel=2 note=58 velocity=95 time=0
EXTRACT: note_on channel=2 note=53 velocity=95 time=0
EXTRACT: note_on channel=2 note=46 velocity=95 time=0
EXTRACT: note_off channel=0 note=70 velocity=95 time=0.39999999999999997
EXTRACT: note_off channel=0 note=65 velocity=95 time=0
EXTRACT: note_off channel=0 note=62 velocity=95 time=0
EXTRACT: note_off channel=0 note=58 velocity=95 time=0
EXTRACT: note_off channel=0 note=53 velocity=95 time=0
EXTRACT: note_off channel=0 note=46 velocity=95 time=0
EXTRACT: note_on channel=0 note=70 velocity=95 time=0
EXTRACT: note_on channel=0 note=65 velocity=95 time=0
EXTRACT: note_on channel=0 note=62 velocity=95 time=0
EXTRACT: note_on channel=0 note=58 velocity=95 time=0
EXTRACT: note_on channel=0 note=53 velocity=95 time=0
EXTRACT: note_on channel=0 note=46 velocity=95 time=0
EXTRACT: note_off channel=2 note=70 velocity=95 time=0
EXTRACT: note_off channel=2 note=65 velocity=95 time=0
EXTRACT: note_off channel=2 note=62 velocity=95 time=0
EXTRACT: note_off channel=2 note=58 velocity=95 time=0
EXTRACT: note_off channel=2 note=53 velocity=95 time=0
EXTRACT: note_off channel=2 note=46 velocity=95 time=0
EXTRACT: note_on channel=2 note=70 velocity=95 time=0
EXTRACT: note_on channel=2 note=65 velocity=95 time=0
EXTRACT: note_on channel=2 note=62 velocity=95 time=0
EXTRACT: note_on channel=2 note=58 velocity=95 time=0
EXTRACT: note_on channel=2 note=53 velocity=95 time=0
EXTRACT: note_on channel=2 note=46 velocity=95 time=0
EXTRACT: note_off channel=0 note=70 velocity=95 time=0.39999999999999997
EXTRACT: note_off channel=0 note=65 velocity=95 time=0
EXTRACT: note_off channel=0 note=62 velocity=95 time=0
EXTRACT: note_off channel=0 note=58 velocity=95 time=0
EXTRACT: note_off channel=0 note=53 velocity=95 time=0
EXTRACT: note_off channel=0 note=46 velocity=95 time=0
EXTRACT: note_on channel=0 note=70 velocity=95 time=0
EXTRACT: note_on channel=0 note=65 velocity=95 time=0
EXTRACT: note_on channel=0 note=62 velocity=95 time=0
EXTRACT: note_on channel=0 note=58 velocity=95 time=0
EXTRACT: note_on channel=0 note=53 velocity=95 time=0
EXTRACT: note_on channel=0 note=46 velocity=95 time=0
EXTRACT: note_off channel=2 note=70 velocity=95 time=0
EXTRACT: note_off channel=2 note=65 velocity=95 time=0
EXTRACT: note_off channel=2 note=62 velocity=95 time=0
EXTRACT: note_off channel=2 note=58 velocity=95 time=0
EXTRACT: note_off channel=2 note=53 velocity=95 time=0
EXTRACT: note_off channel=2 note=46 velocity=95 time=0
EXTRACT: note_on channel=2 note=70 velocity=95 time=0
EXTRACT: note_on channel=2 note=65 velocity=95 time=0
EXTRACT: note_on channel=2 note=62 velocity=95 time=0
EXTRACT: note_on channel=2 note=58 velocity=95 time=0
EXTRACT: note_on channel=2 note=53 velocity=95 time=0
EXTRACT: note_on channel=2 note=46 velocity=95 time=0
EXTRACT: note_off channel=0 note=70 velocity=95 time=0.39999999999999997
EXTRACT: note_off channel=0 note=65 velocity=95 time=0
EXTRACT: note_off channel=0 note=62 velocity=95 time=0
EXTRACT: note_off channel=0 note=58 velocity=95 time=0
EXTRACT: note_off channel=0 note=53 velocity=95 time=0
EXTRACT: note_off channel=0 note=46 velocity=95 time=0
EXTRACT: note_on channel=0 note=70 velocity=95 time=0
EXTRACT: note_on channel=0 note=65 velocity=95 time=0
EXTRACT: note_on channel=0 note=62 velocity=95 time=0
EXTRACT: note_on channel=0 note=58 velocity=95 time=0
EXTRACT: note_on channel=0 note=53 velocity=95 time=0
EXTRACT: note_on channel=0 note=46 velocity=95 time=0
EXTRACT: note_off channel=2 note=70 velocity=95 time=0
EXTRACT: note_off channel=2 note=65 velocity=95 time=0
EXTRACT: note_off channel=2 note=62 velocity=95 time=0
EXTRACT: note_off channel=2 note=58 velocity=95 time=0
EXTRACT: note_off channel=2 note=53 velocity=95 time=0
EXTRACT: note_off channel=2 note=46 velocity=95 time=0
EXTRACT: note_on channel=2 note=70 velocity=95 time=0
EXTRACT: note_on channel=2 note=65 velocity=95 time=0
EXTRACT: note_on channel=2 note=62 velocity=95 time=0
EXTRACT: note_on channel=2 note=58 velocity=95 time=0
EXTRACT: note_on channel=2 note=53 velocity=95 time=0
EXTRACT: note_on channel=2 note=46 velocity=95 time=0
EXTRACT: note_off channel=0 note=70 velocity=95 time=0.39999999999999997
EXTRACT: note_off channel=0 note=65 velocity=95 time=0
EXTRACT: note_off channel=0 note=62 velocity=95 time=0
EXTRACT: note_off channel=0 note=58 velocity=95 time=0
EXTRACT: note_off channel=0 note=53 velocity=95 time=0
EXTRACT: note_off channel=0 note=46 velocity=95 time=0
EXTRACT: note_on channel=0 note=70 velocity=95 time=0
EXTRACT: note_on channel=0 note=65 velocity=95 time=0
EXTRACT: note_on channel=0 note=62 velocity=95 time=0
EXTRACT: note_on channel=0 note=58 velocity=95 time=0
EXTRACT: note_on channel=0 note=53 velocity=95 time=0
EXTRACT: note_on channel=0 note=46 velocity=95 time=0
EXTRACT: note_off channel=2 note=70 velocity=95 time=0
EXTRACT: note_off channel=2 note=65 velocity=95 time=0
EXTRACT: note_off channel=2 note=62 velocity=95 time=0
EXTRACT: note_off channel=2 note=58 velocity=95 time=0
EXTRACT: note_off channel=2 note=53 velocity=95 time=0
EXTRACT: note_off channel=2 note=46 velocity=95 time=0
EXTRACT: note_on channel=2 note=70 velocity=111 time=0
EXTRACT: note_off channel=0 note=70 velocity=95 time=0.39999999999999997
EXTRACT: note_off channel=0 note=65 velocity=95 time=0
EXTRACT: note_off channel=0 note=62 velocity=95 time=0
EXTRACT: note_off channel=0 note=58 velocity=95 time=0
EXTRACT: note_off channel=0 note=53 velocity=95 time=0
EXTRACT: note_off channel=0 note=46 velocity=95 time=0
EXTRACT: note_on channel=0 note=70 velocity=95 time=0
EXTRACT: note_on channel=0 note=65 velocity=95 time=0
EXTRACT: note_on channel=0 note=62 velocity=95 time=0
EXTRACT: note_on channel=0 note=58 velocity=95 time=0
EXTRACT: note_on channel=0 note=53 velocity=95 time=0
EXTRACT: note_on channel=0 note=46 velocity=95 time=0
EXTRACT: note_off channel=2 note=70 velocity=111 time=0
EXTRACT: note_on channel=2 note=72 velocity=111 time=0
EXTRACT: note_off channel=0 note=70 velocity=95 time=0.39999999999999997
EXTRACT: note_off channel=0 note=65 velocity=95 time=0
EXTRACT: note_off channel=0 note=62 velocity=95 time=0
EXTRACT: note_off channel=0 note=58 velocity=95 time=0
EXTRACT: note_off channel=0 note=53 velocity=95 time=0
EXTRACT: note_off channel=0 note=46 velocity=95 time=0
EXTRACT: note_on channel=0 note=69 velocity=95 time=0
EXTRACT: note_on channel=0 note=65 velocity=95 time=0
EXTRACT: note_on channel=0 note=60 velocity=95 time=0
EXTRACT: note_on channel=0 note=53 velocity=95 time=0
EXTRACT: note_on channel=0 note=48 velocity=95 time=0
EXTRACT: note_off channel=2 note=72 velocity=111 time=0
EXTRACT: note_on channel=2 note=69 velocity=95 time=0
EXTRACT: note_on channel=2 note=65 velocity=95 time=0
EXTRACT: note_on channel=2 note=60 velocity=95 time=0
EXTRACT: note_on channel=2 note=53 velocity=95 time=0
EXTRACT: note_on channel=2 note=48 velocity=95 time=0
EXTRACT: note_off channel=6 note=70 velocity=95 time=0
EXTRACT: note_off channel=6 note=65 velocity=95 time=0
EXTRACT: note_off channel=6 note=62 velocity=95 time=0
EXTRACT: note_off channel=6 note=58 velocity=95 time=0
EXTRACT: note_on channel=6 note=65 velocity=95 time=0
EXTRACT: note_on channel=6 note=60 velocity=95 time=0
EXTRACT: note_on channel=6 note=57 velocity=95 time=0
EXTRACT: note_on channel=6 note=53 velocity=95 time=0
EXTRACT: note_off channel=0 note=69 velocity=95 time=0.39999999999999997
EXTRACT: note_off channel=0 note=65 velocity=95 time=0
EXTRACT: note_off channel=0 note=60 velocity=95 time=0
EXTRACT: note_off channel=0 note=53 velocity=95 time=0
EXTRACT: note_off channel=0 note=48 velocity=95 time=0
EXTRACT: note_on channel=0 note=69 velocity=95 time=0
EXTRACT: note_on channel=0 note=65 velocity=95 time=0
EXTRACT: note_on channel=0 note=60 velocity=95 time=0
EXTRACT: note_on channel=0 note=53 velocity=95 time=0
EXTRACT: note_on channel=0 note=48 velocity=95 time=0
EXTRACT: note_off channel=2 note=69 velocity=95 time=0
EXTRACT: note_off channel=2 note=65 velocity=95 time=0
EXTRACT: note_off channel=2 note=60 velocity=95 time=0
EXTRACT: note_off channel=2 note=53 velocity=95 time=0
EXTRACT: note_off channel=2 note=48 velocity=95 time=0
EXTRACT: note_on channel=2 note=69 velocity=95 time=0
EXTRACT: note_on channel=2 note=65 velocity=95 time=0
EXTRACT: note_on channel=2 note=60 velocity=95 time=0
EXTRACT: note_on channel=2 note=53 velocity=95 time=0
EXTRACT: note_on channel=2 note=48 velocity=95 time=0
EXTRACT: note_off channel=0 note=69 velocity=95 time=0.39999999999999997
EXTRACT: note_off channel=0 note=65 velocity=95 time=0
EXTRACT: note_off channel=0 note=60 velocity=95 time=0
EXTRACT: note_off channel=0 note=53 velocity=95 time=0
EXTRACT: note_off channel=0 note=48 velocity=95 time=0
EXTRACT: note_on channel=0 note=69 velocity=95 time=0
EXTRACT: note_on channel=0 note=65 velocity=95 time=0
EXTRACT: note_on channel=0 note=60 velocity=95 time=0
EXTRACT: note_on channel=0 note=53 velocity=95 time=0
EXTRACT: note_on channel=0 note=48 velocity=95 time=0
EXTRACT: note_off channel=2 note=69 velocity=95 time=0
EXTRACT: note_off channel=2 note=65 velocity=95 time=0
EXTRACT: note_off channel=2 note=60 velocity=95 time=0
EXTRACT: note_off channel=2 note=53 velocity=95 time=0
EXTRACT: note_off channel=2 note=48 velocity=95 time=0
EXTRACT: note_on channel=2 note=69 velocity=95 time=0
EXTRACT: note_on channel=2 note=65 velocity=95 time=0
EXTRACT: note_on channel=2 note=60 velocity=95 time=0
EXTRACT: note_on channel=2 note=53 velocity=95 time=0
EXTRACT: note_on channel=2 note=48 velocity=95 time=0
EXTRACT: note_off channel=0 note=69 velocity=95 time=0.39999999999999997
EXTRACT: note_off channel=0 note=65 velocity=95 time=0
EXTRACT: note_off channel=0 note=60 velocity=95 time=0
EXTRACT: note_off channel=0 note=53 velocity=95 time=0
EXTRACT: note_off channel=0 note=48 velocity=95 time=0
EXTRACT: note_on channel=0 note=69 velocity=95 time=0
EXTRACT: note_on channel=0 note=65 velocity=95 time=0
EXTRACT: note_on channel=0 note=60 velocity=95 time=0
EXTRACT: note_on channel=0 note=53 velocity=95 time=0
EXTRACT: note_on channel=0 note=48 velocity=95 time=0
EXTRACT: note_off channel=2 note=69 velocity=95 time=0
EXTRACT: note_off channel=2 note=65 velocity=95 time=0
EXTRACT: note_off channel=2 note=60 velocity=95 time=0
EXTRACT: note_off channel=2 note=53 velocity=95 time=0
EXTRACT: note_off channel=2 note=48 velocity=95 time=0
EXTRACT: note_on channel=2 note=69 velocity=95 time=0
EXTRACT: note_on channel=2 note=65 velocity=95 time=0
EXTRACT: note_on channel=2 note=60 velocity=95 time=0
EXTRACT: note_on channel=2 note=53 velocity=95 time=0
EXTRACT: note_on channel=2 note=48 velocity=95 time=0
EXTRACT: note_off channel=0 note=69 velocity=95 time=0.39999999999999997
EXTRACT: note_off channel=0 note=65 velocity=95 time=0
EXTRACT: note_off channel=0 note=60 velocity=95 time=0
EXTRACT: note_off channel=0 note=53 velocity=95 time=0
EXTRACT: note_off channel=0 note=48 velocity=95 time=0
EXTRACT: note_on channel=0 note=69 velocity=95 time=0
EXTRACT: note_on channel=0 note=65 velocity=95 time=0
EXTRACT: note_on channel=0 note=60 velocity=95 time=0
EXTRACT: note_on channel=0 note=53 velocity=95 time=0
EXTRACT: note_on channel=0 note=48 velocity=95 time=0
EXTRACT: note_off channel=2 note=69 velocity=95 time=0
EXTRACT: note_off channel=2 note=65 velocity=95 time=0
EXTRACT: note_off channel=2 note=60 velocity=95 time=0
EXTRACT: note_off channel=2 note=53 velocity=95 time=0
EXTRACT: note_off channel=2 note=48 velocity=95 time=0
EXTRACT: note_on channel=2 note=69 velocity=95 time=0
EXTRACT: note_on channel=2 note=65 velocity=95 time=0
EXTRACT: note_on channel=2 note=60 velocity=95 time=0
EXTRACT: note_on channel=2 note=53 velocity=95 time=0
EXTRACT: note_on channel=2 note=48 velocity=95 time=0
EXTRACT: note_off channel=0 note=69 velocity=95 time=0.39999999999999997
EXTRACT: note_off channel=0 note=65 velocity=95 time=0
EXTRACT: note_off channel=0 note=60 velocity=95 time=0
EXTRACT: note_off channel=0 note=53 velocity=95 time=0
EXTRACT: note_off channel=0 note=48 velocity=95 time=0
EXTRACT: note_on channel=0 note=69 velocity=95 time=0
EXTRACT: note_on channel=0 note=65 velocity=95 time=0
EXTRACT: note_on channel=0 note=60 velocity=95 time=0
EXTRACT: note_on channel=0 note=53 velocity=95 time=0
EXTRACT: note_on channel=0 note=48 velocity=95 time=0
EXTRACT: note_off channel=2 note=69 velocity=95 time=0
EXTRACT: note_off channel=2 note=65 velocity=95 time=0
EXTRACT: note_off channel=2 note=60 velocity=95 time=0
EXTRACT: note_off channel=2 note=53 velocity=95 time=0
EXTRACT: note_off channel=2 note=48 velocity=95 time=0
EXTRACT: note_on channel=2 note=69 velocity=95 time=0
EXTRACT: note_on channel=2 note=65 velocity=95 time=0
EXTRACT: note_on channel=2 note=60 velocity=95 time=0
EXTRACT: note_on channel=2 note=53 velocity=95 time=0
EXTRACT: note_on channel=2 note=48 velocity=95 time=0
EXTRACT: note_off channel=0 note=69 velocity=95 time=0.39999999999999997
EXTRACT: note_off channel=0 note=65 velocity=95 time=0
EXTRACT: note_off channel=0 note=60 velocity=95 time=0
EXTRACT: note_off channel=0 note=53 velocity=95 time=0
EXTRACT: note_off channel=0 note=48 velocity=95 time=0
EXTRACT: note_on channel=0 note=69 velocity=95 time=0
EXTRACT: note_on channel=0 note=65 velocity=95 time=0
EXTRACT: note_on channel=0 note=60 velocity=95 time=0
EXTRACT: note_on channel=0 note=53 velocity=95 time=0
EXTRACT: note_on channel=0 note=48 velocity=95 time=0
EXTRACT: note_off channel=2 note=69 velocity=95 time=0
EXTRACT: note_off channel=2 note=65 velocity=95 time=0
EXTRACT: note_off channel=2 note=60 velocity=95 time=0
EXTRACT: note_off channel=2 note=53 velocity=95 time=0
EXTRACT: note_off channel=2 note=48 velocity=95 time=0
EXTRACT: note_on channel=2 note=69 velocity=95 time=0
EXTRACT: note_on channel=2 note=65 velocity=95 time=0
EXTRACT: note_on channel=2 note=60 velocity=95 time=0
EXTRACT: note_on channel=2 note=53 velocity=95 time=0
EXTRACT: note_on channel=2 note=48 velocity=95 time=0
EXTRACT: note_off channel=0 note=69 velocity=95 time=0.39999999999999997
EXTRACT: note_off channel=0 note=65 velocity=95 time=0
EXTRACT: note_off channel=0 note=60 velocity=95 time=0
EXTRACT: note_off channel=0 note=53 velocity=95 time=0
EXTRACT: note_off channel=0 note=48 velocity=95 time=0
EXTRACT: note_on channel=0 note=69 velocity=95 time=0
EXTRACT: note_on channel=0 note=65 velocity=95 time=0
EXTRACT: note_on channel=0 note=60 velocity=95 time=0
EXTRACT: note_on channel=0 note=53 velocity=95 time=0
EXTRACT: note_on channel=0 note=48 velocity=95 time=0
EXTRACT: note_off channel=2 note=69 velocity=95 time=0
EXTRACT: note_off channel=2 note=65 velocity=95 time=0
EXTRACT: note_off channel=2 note=60 velocity=95 time=0
EXTRACT: note_off channel=2 note=53 velocity=95 time=0
EXTRACT: note_off channel=2 note=48 velocity=95 time=0
EXTRACT: note_on channel=2 note=69 velocity=95 time=0
EXTRACT: note_on channel=2 note=65 velocity=95 time=0
EXTRACT: note_on channel=2 note=60 velocity=95 time=0
EXTRACT: note_on channel=2 note=53 velocity=95 time=0
EXTRACT: note_on channel=2 note=48 velocity=95 time=0
EXTRACT: note_off channel=0 note=69 velocity=95 time=0.39999999999999997
EXTRACT: note_off channel=0 note=65 velocity=95 time=0
EXTRACT: note_off channel=0 note=60 velocity=95 time=0
EXTRACT: note_off channel=0 note=53 velocity=95 time=0
EXTRACT: note_off channel=0 note=48 velocity=95 time=0
EXTRACT: note_on channel=0 note=67 velocity=95 time=0
EXTRACT: note_on channel=0 note=65 velocity=95 time=0
EXTRACT: note_on channel=0 note=60 velocity=95 time=0
EXTRACT: note_on channel=0 note=53 velocity=95 time=0
EXTRACT: note_on channel=0 note=48 velocity=95 time=0
EXTRACT: note_off channel=2 note=69 velocity=95 time=0
EXTRACT: note_off channel=2 note=65 velocity=95 time=0
EXTRACT: note_off channel=2 note=60 velocity=95 time=0
EXTRACT: note_off channel=2 note=53 velocity=95 time=0
EXTRACT: note_off channel=2 note=48 velocity=95 time=0
EXTRACT: note_on channel=2 note=67 velocity=95 time=0
EXTRACT: note_on channel=2 note=65 velocity=95 time=0
EXTRACT: note_on channel=2 note=60 velocity=95 time=0
EXTRACT: note_on channel=2 note=53 velocity=95 time=0
EXTRACT: note_on channel=2 note=48 velocity=95 time=0
EXTRACT: note_off channel=6 note=65 velocity=95 time=0
EXTRACT: note_off channel=6 note=60 velocity=95 time=0
EXTRACT: note_off channel=6 note=57 velocity=95 time=0
EXTRACT: note_off channel=6 note=53 velocity=95 time=0
EXTRACT: note_on channel=6 note=65 velocity=95 time=0
EXTRACT: note_on channel=6 note=60 velocity=95 time=0
EXTRACT: note_on channel=6 note=55 velocity=95 time=0
EXTRACT: note_on channel=6 note=53 velocity=95 time=0
EXTRACT: note_off channel=0 note=67 velocity=95 time=0.39999999999999997
EXTRACT: note_off channel=0 note=65 velocity=95 time=0
EXTRACT: note_off channel=0 note=60 velocity=95 time=0
EXTRACT: note_off channel=0 note=53 velocity=95 time=0
EXTRACT: note_off channel=0 note=48 velocity=95 time=0
EXTRACT: note_on channel=0 note=67 velocity=95 time=0
EXTRACT: note_on channel=0 note=65 velocity=95 time=0
EXTRACT: note_on channel=0 note=60 velocity=95 time=0
EXTRACT: note_on channel=0 note=53 velocity=95 time=0
EXTRACT: note_on channel=0 note=48 velocity=95 time=0
EXTRACT: note_off channel=2 note=67 velocity=95 time=0
EXTRACT: note_off channel=2 note=65 velocity=95 time=0
EXTRACT: note_off channel=2 note=60 velocity=95 time=0
EXTRACT: note_off channel=2 note=53 velocity=95 time=0
EXTRACT: note_off channel=2 note=48 velocity=95 time=0
EXTRACT: note_on channel=2 note=67 velocity=95 time=0
EXTRACT: note_on channel=2 note=65 velocity=95 time=0
EXTRACT: note_on channel=2 note=60 velocity=95 time=0
EXTRACT: note_on channel=2 note=53 velocity=95 time=0
EXTRACT: note_on channel=2 note=48 velocity=95 time=0
EXTRACT: note_off channel=0 note=67 velocity=95 time=0.39999999999999997
EXTRACT: note_off channel=0 note=65 velocity=95 time=0
EXTRACT: note_off channel=0 note=60 velocity=95 time=0
EXTRACT: note_off channel=0 note=53 velocity=95 time=0
EXTRACT: note_off channel=0 note=48 velocity=95 time=0
EXTRACT: note_on channel=0 note=67 velocity=95 time=0
EXTRACT: note_on channel=0 note=65 velocity=95 time=0
EXTRACT: note_on channel=0 note=60 velocity=95 time=0
EXTRACT: note_on channel=0 note=53 velocity=95 time=0
EXTRACT: note_on channel=0 note=48 velocity=95 time=0
EXTRACT: note_off channel=2 note=67 velocity=95 time=0
EXTRACT: note_off channel=2 note=65 velocity=95 time=0
EXTRACT: note_off channel=2 note=60 velocity=95 time=0
EXTRACT: note_off channel=2 note=53 velocity=95 time=0
EXTRACT: note_off channel=2 note=48 velocity=95 time=0
EXTRACT: note_on channel=2 note=67 velocity=95 time=0
EXTRACT: note_on channel=2 note=65 velocity=95 time=0
EXTRACT: note_on channel=2 note=60 velocity=95 time=0
EXTRACT: note_on channel=2 note=53 velocity=95 time=0
EXTRACT: note_on channel=2 note=48 velocity=95 time=0
EXTRACT: note_off channel=0 note=67 velocity=95 time=0.39999999999999997
EXTRACT: note_off channel=0 note=65 velocity=95 time=0
EXTRACT: note_off channel=0 note=60 velocity=95 time=0
EXTRACT: note_off channel=0 note=53 velocity=95 time=0
EXTRACT: note_off channel=0 note=48 velocity=95 time=0
EXTRACT: note_on channel=0 note=67 velocity=95 time=0
EXTRACT: note_on channel=0 note=65 velocity=95 time=0
EXTRACT: note_on channel=0 note=60 velocity=95 time=0
EXTRACT: note_on channel=0 note=53 velocity=95 time=0
EXTRACT: note_on channel=0 note=48 velocity=95 time=0
EXTRACT: note_off channel=2 note=67 velocity=95 time=0
EXTRACT: note_off channel=2 note=65 velocity=95 time=0
EXTRACT: note_off channel=2 note=60 velocity=95 time=0
EXTRACT: note_off channel=2 note=53 velocity=95 time=0
EXTRACT: note_off channel=2 note=48 velocity=95 time=0
EXTRACT: note_on channel=2 note=67 velocity=95 time=0
EXTRACT: note_on channel=2 note=65 velocity=95 time=0
EXTRACT: note_on channel=2 note=60 velocity=95 time=0
EXTRACT: note_on channel=2 note=53 velocity=95 time=0
EXTRACT: note_on channel=2 note=48 velocity=95 time=0
EXTRACT: note_off channel=0 note=67 velocity=95 time=0.39999999999999997
EXTRACT: note_off channel=0 note=65 velocity=95 time=0
EXTRACT: note_off channel=0 note=60 velocity=95 time=0
EXTRACT: note_off channel=0 note=53 velocity=95 time=0
EXTRACT: note_off channel=0 note=48 velocity=95 time=0
EXTRACT: note_on channel=0 note=67 velocity=95 time=0
EXTRACT: note_on channel=0 note=65 velocity=95 time=0
EXTRACT: note_on channel=0 note=60 velocity=95 time=0
EXTRACT: note_on channel=0 note=53 velocity=95 time=0
EXTRACT: note_on channel=0 note=48 velocity=95 time=0
EXTRACT: note_off channel=2 note=67 velocity=95 time=0
EXTRACT: note_off channel=2 note=65 velocity=95 time=0
EXTRACT: note_off channel=2 note=60 velocity=95 time=0
EXTRACT: note_off channel=2 note=53 velocity=95 time=0
EXTRACT: note_off channel=2 note=48 velocity=95 time=0
EXTRACT: note_on channel=2 note=67 velocity=95 time=0
EXTRACT: note_on channel=2 note=65 velocity=95 time=0
EXTRACT: note_on channel=2 note=60 velocity=95 time=0
EXTRACT: note_on channel=2 note=53 velocity=95 time=0
EXTRACT: note_on channel=2 note=48 velocity=95 time=0
EXTRACT: note_off channel=0 note=67 velocity=95 time=0.39999999999999997
EXTRACT: note_off channel=0 note=65 velocity=95 time=0
EXTRACT: note_off channel=0 note=60 velocity=95 time=0
EXTRACT: note_off channel=0 note=53 velocity=95 time=0
EXTRACT: note_off channel=0 note=48 velocity=95 time=0
EXTRACT: note_on channel=0 note=67 velocity=95 time=0
EXTRACT: note_on channel=0 note=65 velocity=95 time=0
EXTRACT: note_on channel=0 note=60 velocity=95 time=0
EXTRACT: note_on channel=0 note=53 velocity=95 time=0
EXTRACT: note_on channel=0 note=48 velocity=95 time=0
EXTRACT: note_off channel=2 note=67 velocity=95 time=0
EXTRACT: note_off channel=2 note=65 velocity=95 time=0
EXTRACT: note_off channel=2 note=60 velocity=95 time=0
EXTRACT: note_off channel=2 note=53 velocity=95 time=0
EXTRACT: note_off channel=2 note=48 velocity=95 time=0
EXTRACT: note_on channel=2 note=67 velocity=95 time=0
EXTRACT: note_on channel=2 note=65 velocity=95 time=0
EXTRACT: note_on channel=2 note=60 velocity=95 time=0
EXTRACT: note_on channel=2 note=53 velocity=95 time=0
EXTRACT: note_on channel=2 note=48 velocity=95 time=0
EXTRACT: note_off channel=0 note=67 velocity=95 time=0.39999999999999997
EXTRACT: note_off channel=0 note=65 velocity=95 time=0
EXTRACT: note_off channel=0 note=60 velocity=95 time=0
EXTRACT: note_off channel=0 note=53 velocity=95 time=0
EXTRACT: note_off channel=0 note=48 velocity=95 time=0
EXTRACT: note_on channel=0 note=67 velocity=95 time=0
EXTRACT: note_on channel=0 note=65 velocity=95 time=0
EXTRACT: note_on channel=0 note=60 velocity=95 time=0
EXTRACT: note_on channel=0 note=53 velocity=95 time=0
EXTRACT: note_on channel=0 note=48 velocity=95 time=0
EXTRACT: note_off channel=2 note=67 velocity=95 time=0
EXTRACT: note_off channel=2 note=65 velocity=95 time=0
EXTRACT: note_off channel=2 note=60 velocity=95 time=0
EXTRACT: note_off channel=2 note=53 velocity=95 time=0
EXTRACT: note_off channel=2 note=48 velocity=95 time=0
EXTRACT: note_on channel=2 note=67 velocity=95 time=0
EXTRACT: note_on channel=2 note=65 velocity=95 time=0
EXTRACT: note_on channel=2 note=60 velocity=95 time=0
EXTRACT: note_on channel=2 note=53 velocity=95 time=0
EXTRACT: note_on channel=2 note=48 velocity=95 time=0
EXTRACT: note_off channel=0 note=67 velocity=95 time=0.39999999999999997
EXTRACT: note_off channel=0 note=65 velocity=95 time=0
EXTRACT: note_off channel=0 note=60 velocity=95 time=0
EXTRACT: note_off channel=0 note=53 velocity=95 time=0
EXTRACT: note_off channel=0 note=48 velocity=95 time=0
EXTRACT: note_on channel=0 note=67 velocity=95 time=0
EXTRACT: note_on channel=0 note=65 velocity=95 time=0
EXTRACT: note_on channel=0 note=60 velocity=95 time=0
EXTRACT: note_on channel=0 note=53 velocity=95 time=0
EXTRACT: note_on channel=0 note=48 velocity=95 time=0
EXTRACT: note_off channel=2 note=67 velocity=95 time=0
EXTRACT: note_off channel=2 note=65 velocity=95 time=0
EXTRACT: note_off channel=2 note=60 velocity=95 time=0
EXTRACT: note_off channel=2 note=53 velocity=95 time=0
EXTRACT: note_off channel=2 note=48 velocity=95 time=0
EXTRACT: note_on channel=2 note=67 velocity=95 time=0
EXTRACT: note_on channel=2 note=65 velocity=95 time=0
EXTRACT: note_on channel=2 note=60 velocity=95 time=0
EXTRACT: note_on channel=2 note=53 velocity=95 time=0
EXTRACT: note_on channel=2 note=48 velocity=95 time=0
EXTRACT: note_off channel=0 note=67 velocity=95 time=0.39999999999999997
EXTRACT: note_off channel=0 note=65 velocity=95 time=0
EXTRACT: note_off channel=0 note=60 velocity=95 time=0
EXTRACT: note_off channel=0 note=53 velocity=95 time=0
EXTRACT: note_off channel=0 note=48 velocity=95 time=0
EXTRACT: note_on channel=0 note=69 velocity=95 time=0
EXTRACT: note_on channel=0 note=65 velocity=95 time=0
EXTRACT: note_on channel=0 note=62 velocity=95 time=0
EXTRACT: note_on channel=0 note=57 velocity=95 time=0
EXTRACT: note_on channel=0 note=50 velocity=95 time=0
EXTRACT: note_on channel=0 note=45 velocity=95 time=0
EXTRACT: note_off channel=2 note=67 velocity=95 time=0
EXTRACT: note_off channel=2 note=65 velocity=95 time=0
EXTRACT: note_off channel=2 note=60 velocity=95 time=0
EXTRACT: note_off channel=2 note=53 velocity=95 time=0
EXTRACT: note_off channel=2 note=48 velocity=95 time=0
EXTRACT: note_on channel=2 note=69 velocity=95 time=0
EXTRACT: note_on channel=2 note=65 velocity=95 time=0
EXTRACT: note_on channel=2 note=62 velocity=95 time=0
EXTRACT: note_on channel=2 note=57 velocity=95 time=0
EXTRACT: note_on channel=2 note=50 velocity=95 time=0
EXTRACT: note_on channel=2 note=45 velocity=95 time=0
EXTRACT: note_off channel=6 note=65 velocity=95 time=0
EXTRACT: note_off channel=6 note=60 velocity=95 time=0
EXTRACT: note_off channel=6 note=55 velocity=95 time=0
EXTRACT: note_off channel=6 note=53 velocity=95 time=0
EXTRACT: note_on channel=6 note=50 velocity=95 time=0
EXTRACT: note_off channel=0 note=69 velocity=95 time=0.39999999999999997
EXTRACT: note_off channel=0 note=65 velocity=95 time=0
EXTRACT: note_off channel=0 note=62 velocity=95 time=0
EXTRACT: note_off channel=0 note=57 velocity=95 time=0
EXTRACT: note_off channel=0 note=50 velocity=95 time=0
EXTRACT: note_off channel=0 note=45 velocity=95 time=0
EXTRACT: note_on channel=0 note=69 velocity=95 time=0
EXTRACT: note_on channel=0 note=65 velocity=95 time=0
EXTRACT: note_on channel=0 note=62 velocity=95 time=0
EXTRACT: note_on channel=0 note=57 velocity=95 time=0
EXTRACT: note_on channel=0 note=50 velocity=95 time=0
EXTRACT: note_on channel=0 note=45 velocity=95 time=0
EXTRACT: note_off channel=2 note=69 velocity=95 time=0
EXTRACT: note_off channel=2 note=65 velocity=95 time=0
EXTRACT: note_off channel=2 note=62 velocity=95 time=0
EXTRACT: note_off channel=2 note=57 velocity=95 time=0
EXTRACT: note_off channel=2 note=50 velocity=95 time=0
EXTRACT: note_off channel=2 note=45 velocity=95 time=0
EXTRACT: note_on channel=2 note=69 velocity=95 time=0
EXTRACT: note_on channel=2 note=65 velocity=95 time=0
EXTRACT: note_on channel=2 note=62 velocity=95 time=0
EXTRACT: note_on channel=2 note=57 velocity=95 time=0
EXTRACT: note_on channel=2 note=50 velocity=95 time=0
EXTRACT: note_on channel=2 note=45 velocity=95 time=0
EXTRACT: note_off channel=0 note=69 velocity=95 time=0.39999999999999997
EXTRACT: note_off channel=0 note=65 velocity=95 time=0
EXTRACT: note_off channel=0 note=62 velocity=95 time=0
EXTRACT: note_off channel=0 note=57 velocity=95 time=0
EXTRACT: note_off channel=0 note=50 velocity=95 time=0
EXTRACT: note_off channel=0 note=45 velocity=95 time=0
EXTRACT: note_on channel=0 note=69 velocity=95 time=0
EXTRACT: note_on channel=0 note=65 velocity=95 time=0
EXTRACT: note_on channel=0 note=62 velocity=95 time=0
EXTRACT: note_on channel=0 note=57 velocity=95 time=0
EXTRACT: note_on channel=0 note=50 velocity=95 time=0
EXTRACT: note_on channel=0 note=45 velocity=95 time=0
EXTRACT: note_off channel=2 note=69 velocity=95 time=0
EXTRACT: note_off channel=2 note=65 velocity=95 time=0
EXTRACT: note_off channel=2 note=62 velocity=95 time=0
EXTRACT: note_off channel=2 note=57 velocity=95 time=0
EXTRACT: note_off channel=2 note=50 velocity=95 time=0
EXTRACT: note_off channel=2 note=45 velocity=95 time=0
EXTRACT: note_on channel=2 note=69 velocity=95 time=0
EXTRACT: note_on channel=2 note=65 velocity=95 time=0
EXTRACT: note_on channel=2 note=62 velocity=95 time=0
EXTRACT: note_on channel=2 note=57 velocity=95 time=0
EXTRACT: note_on channel=2 note=50 velocity=95 time=0
EXTRACT: note_on channel=2 note=45 velocity=95 time=0
EXTRACT: note_off channel=0 note=69 velocity=95 time=0.39999999999999997
EXTRACT: note_off channel=0 note=65 velocity=95 time=0
EXTRACT: note_off channel=0 note=62 velocity=95 time=0
EXTRACT: note_off channel=0 note=57 velocity=95 time=0
EXTRACT: note_off channel=0 note=50 velocity=95 time=0
EXTRACT: note_off channel=0 note=45 velocity=95 time=0
EXTRACT: note_on channel=0 note=69 velocity=95 time=0
EXTRACT: note_on channel=0 note=65 velocity=95 time=0
EXTRACT: note_on channel=0 note=62 velocity=95 time=0
EXTRACT: note_on channel=0 note=57 velocity=95 time=0
EXTRACT: note_on channel=0 note=50 velocity=95 time=0
EXTRACT: note_on channel=0 note=45 velocity=95 time=0
EXTRACT: note_off channel=2 note=69 velocity=95 time=0
EXTRACT: note_off channel=2 note=65 velocity=95 time=0
EXTRACT: note_off channel=2 note=62 velocity=95 time=0
EXTRACT: note_off channel=2 note=57 velocity=95 time=0
EXTRACT: note_off channel=2 note=50 velocity=95 time=0
EXTRACT: note_off channel=2 note=45 velocity=95 time=0
EXTRACT: note_on channel=2 note=69 velocity=95 time=0
EXTRACT: note_on channel=2 note=65 velocity=95 time=0
EXTRACT: note_on channel=2 note=62 velocity=95 time=0
EXTRACT: note_on channel=2 note=57 velocity=95 time=0
EXTRACT: note_on channel=2 note=50 velocity=95 time=0
EXTRACT: note_on channel=2 note=45 velocity=95 time=0
EXTRACT: note_off channel=0 note=69 velocity=95 time=0.39999999999999997
EXTRACT: note_off channel=0 note=65 velocity=95 time=0
EXTRACT: note_off channel=0 note=62 velocity=95 time=0
EXTRACT: note_off channel=0 note=57 velocity=95 time=0
EXTRACT: note_off channel=0 note=50 velocity=95 time=0
EXTRACT: note_off channel=0 note=45 velocity=95 time=0
EXTRACT: note_on channel=0 note=69 velocity=95 time=0
EXTRACT: note_on channel=0 note=65 velocity=95 time=0
EXTRACT: note_on channel=0 note=62 velocity=95 time=0
EXTRACT: note_on channel=0 note=57 velocity=95 time=0
EXTRACT: note_on channel=0 note=50 velocity=95 time=0
EXTRACT: note_on channel=0 note=45 velocity=95 time=0
EXTRACT: note_off channel=2 note=69 velocity=95 time=0
EXTRACT: note_off channel=2 note=65 velocity=95 time=0
EXTRACT: note_off channel=2 note=62 velocity=95 time=0
EXTRACT: note_off channel=2 note=57 velocity=95 time=0
EXTRACT: note_off channel=2 note=50 velocity=95 time=0
EXTRACT: note_off channel=2 note=45 velocity=95 time=0
EXTRACT: note_on channel=2 note=69 velocity=95 time=0
EXTRACT: note_on channel=2 note=65 velocity=95 time=0
EXTRACT: note_on channel=2 note=62 velocity=95 time=0
EXTRACT: note_on channel=2 note=57 velocity=95 time=0
EXTRACT: note_on channel=2 note=50 velocity=95 time=0
EXTRACT: note_on channel=2 note=45 velocity=95 time=0
EXTRACT: note_off channel=6 note=50 velocity=95 time=0
EXTRACT: note_on channel=6 note=50 velocity=95 time=0
EXTRACT: note_on channel=11 note=53 velocity=95 time=0
EXTRACT: note_off channel=0 note=69 velocity=95 time=0.39999999999999997
EXTRACT: note_off channel=0 note=65 velocity=95 time=0
EXTRACT: note_off channel=0 note=62 velocity=95 time=0
EXTRACT: note_off channel=0 note=57 velocity=95 time=0
EXTRACT: note_off channel=0 note=50 velocity=95 time=0
EXTRACT: note_off channel=0 note=45 velocity=95 time=0
EXTRACT: note_on channel=0 note=69 velocity=95 time=0
EXTRACT: note_on channel=0 note=65 velocity=95 time=0
EXTRACT: note_on channel=0 note=62 velocity=95 time=0
EXTRACT: note_on channel=0 note=57 velocity=95 time=0
EXTRACT: note_on channel=0 note=50 velocity=95 time=0
EXTRACT: note_on channel=0 note=45 velocity=95 time=0
EXTRACT: note_off channel=2 note=69 velocity=95 time=0
EXTRACT: note_off channel=2 note=65 velocity=95 time=0
EXTRACT: note_off channel=2 note=62 velocity=95 time=0
EXTRACT: note_off channel=2 note=57 velocity=95 time=0
EXTRACT: note_off channel=2 note=50 velocity=95 time=0
EXTRACT: note_off channel=2 note=45 velocity=95 time=0
EXTRACT: note_on channel=2 note=69 velocity=95 time=0
EXTRACT: note_on channel=2 note=65 velocity=95 time=0
EXTRACT: note_on channel=2 note=62 velocity=95 time=0
EXTRACT: note_on channel=2 note=57 velocity=95 time=0
EXTRACT: note_on channel=2 note=50 velocity=95 time=0
EXTRACT: note_on channel=2 note=45 velocity=95 time=0
EXTRACT: note_off channel=11 note=53 velocity=95 time=0
EXTRACT: note_on channel=11 note=55 velocity=95 time=0
EXTRACT: note_off channel=0 note=69 velocity=95 time=0.39999999999999997
EXTRACT: note_off channel=0 note=65 velocity=95 time=0
EXTRACT: note_off channel=0 note=62 velocity=95 time=0
EXTRACT: note_off channel=0 note=57 velocity=95 time=0
EXTRACT: note_off channel=0 note=50 velocity=95 time=0
EXTRACT: note_off channel=0 note=45 velocity=95 time=0
EXTRACT: note_on channel=0 note=69 velocity=95 time=0
EXTRACT: note_on channel=0 note=65 velocity=95 time=0
EXTRACT: note_on channel=0 note=62 velocity=95 time=0
EXTRACT: note_on channel=0 note=57 velocity=95 time=0
EXTRACT: note_on channel=0 note=50 velocity=95 time=0
EXTRACT: note_on channel=0 note=45 velocity=95 time=0
EXTRACT: note_off channel=2 note=69 velocity=95 time=0
EXTRACT: note_off channel=2 note=65 velocity=95 time=0
EXTRACT: note_off channel=2 note=62 velocity=95 time=0
EXTRACT: note_off channel=2 note=57 velocity=95 time=0
EXTRACT: note_off channel=2 note=50 velocity=95 time=0
EXTRACT: note_off channel=2 note=45 velocity=95 time=0
EXTRACT: note_on channel=2 note=69 velocity=95 time=0
EXTRACT: note_on channel=2 note=65 velocity=95 time=0
EXTRACT: note_on channel=2 note=62 velocity=95 time=0
EXTRACT: note_on channel=2 note=57 velocity=95 time=0
EXTRACT: note_on channel=2 note=50 velocity=95 time=0
EXTRACT: note_on channel=2 note=45 velocity=95 time=0
EXTRACT: note_off channel=11 note=55 velocity=95 time=0
EXTRACT: note_on channel=11 note=53 velocity=95 time=0
EXTRACT: note_off channel=0 note=69 velocity=95 time=0.39999999999999997
EXTRACT: note_off channel=0 note=65 velocity=95 time=0
EXTRACT: note_off channel=0 note=62 velocity=95 time=0
EXTRACT: note_off channel=0 note=57 velocity=95 time=0
EXTRACT: note_off channel=0 note=50 velocity=95 time=0
EXTRACT: note_off channel=0 note=45 velocity=95 time=0
EXTRACT: note_on channel=0 note=69 velocity=95 time=0
EXTRACT: note_on channel=0 note=65 velocity=95 time=0
EXTRACT: note_on channel=0 note=62 velocity=95 time=0
EXTRACT: note_on channel=0 note=57 velocity=95 time=0
EXTRACT: note_on channel=0 note=50 velocity=95 time=0
EXTRACT: note_on channel=0 note=45 velocity=95 time=0
EXTRACT: note_off channel=2 note=69 velocity=95 time=0
EXTRACT: note_off channel=2 note=65 velocity=95 time=0
EXTRACT: note_off channel=2 note=62 velocity=95 time=0
EXTRACT: note_off channel=2 note=57 velocity=95 time=0
EXTRACT: note_off channel=2 note=50 velocity=95 time=0
EXTRACT: note_off channel=2 note=45 velocity=95 time=0
EXTRACT: note_on channel=2 note=69 velocity=95 time=0
EXTRACT: note_on channel=2 note=65 velocity=95 time=0
EXTRACT: note_on channel=2 note=62 velocity=95 time=0
EXTRACT: note_on channel=2 note=57 velocity=95 time=0
EXTRACT: note_on channel=2 note=50 velocity=95 time=0
EXTRACT: note_on channel=2 note=45 velocity=95 time=0
EXTRACT: note_off channel=11 note=53 velocity=95 time=0
EXTRACT: note_on channel=11 note=60 velocity=95 time=0
EXTRACT: note_off channel=0 note=69 velocity=95 time=0.39999999999999997
EXTRACT: note_off channel=0 note=65 velocity=95 time=0
EXTRACT: note_off channel=0 note=62 velocity=95 time=0
EXTRACT: note_off channel=0 note=57 velocity=95 time=0
EXTRACT: note_off channel=0 note=50 velocity=95 time=0
EXTRACT: note_off channel=0 note=45 velocity=95 time=0
EXTRACT: note_on channel=0 note=70 velocity=95 time=0
EXTRACT: note_on channel=0 note=65 velocity=95 time=0
EXTRACT: note_on channel=0 note=62 velocity=95 time=0
EXTRACT: note_on channel=0 note=58 velocity=95 time=0
EXTRACT: note_on channel=0 note=53 velocity=95 time=0
EXTRACT: note_on channel=0 note=46 velocity=95 time=0
EXTRACT: note_off channel=2 note=69 velocity=95 time=0
EXTRACT: note_off channel=2 note=65 velocity=95 time=0
EXTRACT: note_off channel=2 note=62 velocity=95 time=0
EXTRACT: note_off channel=2 note=57 velocity=95 time=0
EXTRACT: note_off channel=2 note=50 velocity=95 time=0
EXTRACT: note_off channel=2 note=45 velocity=95 time=0
EXTRACT: note_on channel=2 note=70 velocity=95 time=0
EXTRACT: note_on channel=2 note=65 velocity=95 time=0
EXTRACT: note_on channel=2 note=62 velocity=95 time=0
EXTRACT: note_on channel=2 note=58 velocity=95 time=0
EXTRACT: note_on channel=2 note=53 velocity=95 time=0
EXTRACT: note_on channel=2 note=46 velocity=95 time=0
EXTRACT: note_off channel=6 note=50 velocity=95 time=0
EXTRACT: note_on channel=6 note=46 velocity=95 time=0
EXTRACT: note_off channel=0 note=70 velocity=95 time=0.39999999999999997
EXTRACT: note_off channel=0 note=65 velocity=95 time=0
EXTRACT: note_off channel=0 note=62 velocity=95 time=0
EXTRACT: note_off channel=0 note=58 velocity=95 time=0
EXTRACT: note_off channel=0 note=53 velocity=95 time=0
EXTRACT: note_off channel=0 note=46 velocity=95 time=0
EXTRACT: note_on channel=0 note=70 velocity=95 time=0
EXTRACT: note_on channel=0 note=65 velocity=95 time=0
EXTRACT: note_on channel=0 note=62 velocity=95 time=0
EXTRACT: note_on channel=0 note=58 velocity=95 time=0
EXTRACT: note_on channel=0 note=53 velocity=95 time=0
EXTRACT: note_on channel=0 note=46 velocity=95 time=0
EXTRACT: note_off channel=2 note=70 velocity=95 time=0
EXTRACT: note_off channel=2 note=65 velocity=95 time=0
EXTRACT: note_off channel=2 note=62 velocity=95 time=0
EXTRACT: note_off channel=2 note=58 velocity=95 time=0
EXTRACT: note_off channel=2 note=53 velocity=95 time=0
EXTRACT: note_off channel=2 note=46 velocity=95 time=0
EXTRACT: note_on channel=2 note=70 velocity=95 time=0
EXTRACT: note_on channel=2 note=65 velocity=95 time=0
EXTRACT: note_on channel=2 note=62 velocity=95 time=0
EXTRACT: note_on channel=2 note=58 velocity=95 time=0
EXTRACT: note_on channel=2 note=53 velocity=95 time=0
EXTRACT: note_on channel=2 note=46 velocity=95 time=0
EXTRACT: note_off channel=11 note=60 velocity=95 time=0
EXTRACT: note_on channel=11 note=57 velocity=95 time=0
EXTRACT: note_off channel=0 note=70 velocity=95 time=0.39999999999999997
EXTRACT: note_off channel=0 note=65 velocity=95 time=0
EXTRACT: note_off channel=0 note=62 velocity=95 time=0
EXTRACT: note_off channel=0 note=58 velocity=95 time=0
EXTRACT: note_off channel=0 note=53 velocity=95 time=0
EXTRACT: note_off channel=0 note=46 velocity=95 time=0
EXTRACT: note_on channel=0 note=70 velocity=95 time=0
EXTRACT: note_on channel=0 note=65 velocity=95 time=0
EXTRACT: note_on channel=0 note=62 velocity=95 time=0
EXTRACT: note_on channel=0 note=58 velocity=95 time=0
EXTRACT: note_on channel=0 note=53 velocity=95 time=0
EXTRACT: note_on channel=0 note=46 velocity=95 time=0
EXTRACT: note_off channel=2 note=70 velocity=95 time=0
EXTRACT: note_off channel=2 note=65 velocity=95 time=0
EXTRACT: note_off channel=2 note=62 velocity=95 time=0
EXTRACT: note_off channel=2 note=58 velocity=95 time=0
EXTRACT: note_off channel=2 note=53 velocity=95 time=0
EXTRACT: note_off channel=2 note=46 velocity=95 time=0
EXTRACT: note_on channel=2 note=70 velocity=95 time=0
EXTRACT: note_on channel=2 note=65 velocity=95 time=0
EXTRACT: note_on channel=2 note=62 velocity=95 time=0
EXTRACT: note_on channel=2 note=58 velocity=95 time=0
EXTRACT: note_on channel=2 note=53 velocity=95 time=0
EXTRACT: note_on channel=2 note=46 velocity=95 time=0
EXTRACT: note_off channel=0 note=70 velocity=95 time=0.39999999999999997
EXTRACT: note_off channel=0 note=65 velocity=95 time=0
EXTRACT: note_off channel=0 note=62 velocity=95 time=0
EXTRACT: note_off channel=0 note=58 velocity=95 time=0
EXTRACT: note_off channel=0 note=53 velocity=95 time=0
EXTRACT: note_off channel=0 note=46 velocity=95 time=0
EXTRACT: note_on channel=0 note=70 velocity=95 time=0
EXTRACT: note_on channel=0 note=65 velocity=95 time=0
EXTRACT: note_on channel=0 note=62 velocity=95 time=0
EXTRACT: note_on channel=0 note=58 velocity=95 time=0
EXTRACT: note_on channel=0 note=53 velocity=95 time=0
EXTRACT: note_on channel=0 note=46 velocity=95 time=0
EXTRACT: note_off channel=2 note=70 velocity=95 time=0
EXTRACT: note_off channel=2 note=65 velocity=95 time=0
EXTRACT: note_off channel=2 note=62 velocity=95 time=0
EXTRACT: note_off channel=2 note=58 velocity=95 time=0
EXTRACT: note_off channel=2 note=53 velocity=95 time=0
EXTRACT: note_off channel=2 note=46 velocity=95 time=0
EXTRACT: note_on channel=2 note=70 velocity=95 time=0
EXTRACT: note_on channel=2 note=65 velocity=95 time=0
EXTRACT: note_on channel=2 note=62 velocity=95 time=0
EXTRACT: note_on channel=2 note=58 velocity=95 time=0
EXTRACT: note_on channel=2 note=53 velocity=95 time=0
EXTRACT: note_on channel=2 note=46 velocity=95 time=0
EXTRACT: note_off channel=0 note=70 velocity=95 time=0.39999999999999997
EXTRACT: note_off channel=0 note=65 velocity=95 time=0
EXTRACT: note_off channel=0 note=62 velocity=95 time=0
EXTRACT: note_off channel=0 note=58 velocity=95 time=0
EXTRACT: note_off channel=0 note=53 velocity=95 time=0
EXTRACT: note_off channel=0 note=46 velocity=95 time=0
EXTRACT: note_on channel=0 note=70 velocity=95 time=0
EXTRACT: note_on channel=0 note=65 velocity=95 time=0
EXTRACT: note_on channel=0 note=62 velocity=95 time=0
EXTRACT: note_on channel=0 note=58 velocity=95 time=0
EXTRACT: note_on channel=0 note=53 velocity=95 time=0
EXTRACT: note_on channel=0 note=46 velocity=95 time=0
EXTRACT: note_off channel=2 note=70 velocity=95 time=0
EXTRACT: note_off channel=2 note=65 velocity=95 time=0
EXTRACT: note_off channel=2 note=62 velocity=95 time=0
EXTRACT: note_off channel=2 note=58 velocity=95 time=0
EXTRACT: note_off channel=2 note=53 velocity=95 time=0
EXTRACT: note_off channel=2 note=46 velocity=95 time=0
EXTRACT: note_on channel=2 note=70 velocity=95 time=0
EXTRACT: note_on channel=2 note=65 velocity=95 time=0
EXTRACT: note_on channel=2 note=62 velocity=95 time=0
EXTRACT: note_on channel=2 note=58 velocity=95 time=0
EXTRACT: note_on channel=2 note=53 velocity=95 time=0
EXTRACT: note_on channel=2 note=46 velocity=95 time=0
EXTRACT: note_off channel=6 note=46 velocity=95 time=0
EXTRACT: note_on channel=6 note=46 velocity=95 time=0
EXTRACT: note_off channel=11 note=57 velocity=95 time=0
EXTRACT: note_on channel=11 note=53 velocity=95 time=0
EXTRACT: note_off channel=0 note=70 velocity=95 time=0.39999999999999997
EXTRACT: note_off channel=0 note=65 velocity=95 time=0
EXTRACT: note_off channel=0 note=62 velocity=95 time=0
EXTRACT: note_off channel=0 note=58 velocity=95 time=0
EXTRACT: note_off channel=0 note=53 velocity=95 time=0
EXTRACT: note_off channel=0 note=46 velocity=95 time=0
EXTRACT: note_on channel=0 note=70 velocity=95 time=0
EXTRACT: note_on channel=0 note=65 velocity=95 time=0
EXTRACT: note_on channel=0 note=62 velocity=95 time=0
EXTRACT: note_on channel=0 note=58 velocity=95 time=0
EXTRACT: note_on channel=0 note=53 velocity=95 time=0
EXTRACT: note_on channel=0 note=46 velocity=95 time=0
EXTRACT: note_off channel=2 note=70 velocity=95 time=0
EXTRACT: note_off channel=2 note=65 velocity=95 time=0
EXTRACT: note_off channel=2 note=62 velocity=95 time=0
EXTRACT: note_off channel=2 note=58 velocity=95 time=0
EXTRACT: note_off channel=2 note=53 velocity=95 time=0
EXTRACT: note_off channel=2 note=46 velocity=95 time=0
EXTRACT: note_on channel=2 note=70 velocity=95 time=0
EXTRACT: note_on channel=2 note=65 velocity=95 time=0
EXTRACT: note_on channel=2 note=62 velocity=95 time=0
EXTRACT: note_on channel=2 note=58 velocity=95 time=0
EXTRACT: note_on channel=2 note=53 velocity=95 time=0
EXTRACT: note_on channel=2 note=46 velocity=95 time=0
EXTRACT: note_off channel=11 note=53 velocity=95 time=0
EXTRACT: note_on channel=11 note=55 velocity=95 time=0
EXTRACT: note_off channel=0 note=70 velocity=95 time=0.39999999999999997
EXTRACT: note_off channel=0 note=65 velocity=95 time=0
EXTRACT: note_off channel=0 note=62 velocity=95 time=0
EXTRACT: note_off channel=0 note=58 velocity=95 time=0
EXTRACT: note_off channel=0 note=53 velocity=95 time=0
EXTRACT: note_off channel=0 note=46 velocity=95 time=0
EXTRACT: note_on channel=0 note=70 velocity=95 time=0
EXTRACT: note_on channel=0 note=65 velocity=95 time=0
EXTRACT: note_on channel=0 note=62 velocity=95 time=0
EXTRACT: note_on channel=0 note=58 velocity=95 time=0
EXTRACT: note_on channel=0 note=53 velocity=95 time=0
EXTRACT: note_on channel=0 note=46 velocity=95 time=0
EXTRACT: note_off channel=2 note=70 velocity=95 time=0
EXTRACT: note_off channel=2 note=65 velocity=95 time=0
EXTRACT: note_off channel=2 note=62 velocity=95 time=0
EXTRACT: note_off channel=2 note=58 velocity=95 time=0
EXTRACT: note_off channel=2 note=53 velocity=95 time=0
EXTRACT: note_off channel=2 note=46 velocity=95 time=0
EXTRACT: note_on channel=2 note=70 velocity=111 time=0
EXTRACT: note_off channel=11 note=55 velocity=95 time=0
EXTRACT: note_on channel=11 note=53 velocity=95 time=0
EXTRACT: note_off channel=0 note=70 velocity=95 time=0.39999999999999997
EXTRACT: note_off channel=0 note=65 velocity=95 time=0
EXTRACT: note_off channel=0 note=62 velocity=95 time=0
EXTRACT: note_off channel=0 note=58 velocity=95 time=0
EXTRACT: note_off channel=0 note=53 velocity=95 time=0
EXTRACT: note_off channel=0 note=46 velocity=95 time=0
EXTRACT: note_on channel=0 note=70 velocity=95 time=0
EXTRACT: note_on channel=0 note=65 velocity=95 time=0
EXTRACT: note_on channel=0 note=62 velocity=95 time=0
EXTRACT: note_on channel=0 note=58 velocity=95 time=0
EXTRACT: note_on channel=0 note=53 velocity=95 time=0
EXTRACT: note_on channel=0 note=46 velocity=95 time=0
EXTRACT: note_off channel=2 note=70 velocity=111 time=0
EXTRACT: note_on channel=2 note=72 velocity=111 time=0
EXTRACT: note_off channel=11 note=53 velocity=95 time=0
EXTRACT: note_on channel=11 note=60 velocity=95 time=0
EXTRACT: note_off channel=0 note=70 velocity=95 time=0.39999999999999997
EXTRACT: note_off channel=0 note=65 velocity=95 time=0
EXTRACT: note_off channel=0 note=62 velocity=95 time=0
EXTRACT: note_off channel=0 note=58 velocity=95 time=0
EXTRACT: note_off channel=0 note=53 velocity=95 time=0
EXTRACT: note_off channel=0 note=46 velocity=95 time=0
EXTRACT: note_on channel=0 note=69 velocity=95 time=0
EXTRACT: note_on channel=0 note=65 velocity=95 time=0
EXTRACT: note_on channel=0 note=60 velocity=95 time=0
EXTRACT: note_on channel=0 note=53 velocity=95 time=0
EXTRACT: note_on channel=0 note=48 velocity=95 time=0
EXTRACT: note_off channel=2 note=72 velocity=111 time=0
EXTRACT: note_on channel=2 note=69 velocity=95 time=0
EXTRACT: note_on channel=2 note=65 velocity=95 time=0
EXTRACT: note_on channel=2 note=60 velocity=95 time=0
EXTRACT: note_on channel=2 note=53 velocity=95 time=0
EXTRACT: note_on channel=2 note=48 velocity=95 time=0
EXTRACT: note_off channel=6 note=46 velocity=95 time=0
EXTRACT: note_on channel=6 note=41 velocity=95 time=0
EXTRACT: note_off channel=0 note=69 velocity=95 time=0.39999999999999997
EXTRACT: note_off channel=0 note=65 velocity=95 time=0
EXTRACT: note_off channel=0 note=60 velocity=95 time=0
EXTRACT: note_off channel=0 note=53 velocity=95 time=0
EXTRACT: note_off channel=0 note=48 velocity=95 time=0
EXTRACT: note_on channel=0 note=69 velocity=95 time=0
EXTRACT: note_on channel=0 note=65 velocity=95 time=0
EXTRACT: note_on channel=0 note=60 velocity=95 time=0
EXTRACT: note_on channel=0 note=53 velocity=95 time=0
EXTRACT: note_on channel=0 note=48 velocity=95 time=0
EXTRACT: note_off channel=2 note=69 velocity=95 time=0
EXTRACT: note_off channel=2 note=65 velocity=95 time=0
EXTRACT: note_off channel=2 note=60 velocity=95 time=0
EXTRACT: note_off channel=2 note=53 velocity=95 time=0
EXTRACT: note_off channel=2 note=48 velocity=95 time=0
EXTRACT: note_on channel=2 note=69 velocity=95 time=0
EXTRACT: note_on channel=2 note=65 velocity=95 time=0
EXTRACT: note_on channel=2 note=60 velocity=95 time=0
EXTRACT: note_on channel=2 note=53 velocity=95 time=0
EXTRACT: note_on channel=2 note=48 velocity=95 time=0
EXTRACT: note_off channel=11 note=60 velocity=95 time=0
EXTRACT: note_on channel=11 note=57 velocity=95 time=0
EXTRACT: note_off channel=0 note=69 velocity=95 time=0.39999999999999997
EXTRACT: note_off channel=0 note=65 velocity=95 time=0
EXTRACT: note_off channel=0 note=60 velocity=95 time=0
EXTRACT: note_off channel=0 note=53 velocity=95 time=0
EXTRACT: note_off channel=0 note=48 velocity=95 time=0
EXTRACT: note_on channel=0 note=69 velocity=95 time=0
EXTRACT: note_on channel=0 note=65 velocity=95 time=0
EXTRACT: note_on channel=0 note=60 velocity=95 time=0
EXTRACT: note_on channel=0 note=53 velocity=95 time=0
EXTRACT: note_on channel=0 note=48 velocity=95 time=0
EXTRACT: note_off channel=2 note=69 velocity=95 time=0
EXTRACT: note_off channel=2 note=65 velocity=95 time=0
EXTRACT: note_off channel=2 note=60 velocity=95 time=0
EXTRACT: note_off channel=2 note=53 velocity=95 time=0
EXTRACT: note_off channel=2 note=48 velocity=95 time=0
EXTRACT: note_on channel=2 note=69 velocity=95 time=0
EXTRACT: note_on channel=2 note=65 velocity=95 time=0
EXTRACT: note_on channel=2 note=60 velocity=95 time=0
EXTRACT: note_on channel=2 note=53 velocity=95 time=0
EXTRACT: note_on channel=2 note=48 velocity=95 time=0
EXTRACT: note_off channel=11 note=57 velocity=95 time=0
EXTRACT: note_off channel=0 note=69 velocity=95 time=0.39999999999999997
EXTRACT: note_off channel=0 note=65 velocity=95 time=0
EXTRACT: note_off channel=0 note=60 velocity=95 time=0
EXTRACT: note_off channel=0 note=53 velocity=95 time=0
EXTRACT: note_off channel=0 note=48 velocity=95 time=0
EXTRACT: note_on channel=0 note=69 velocity=95 time=0
EXTRACT: note_on channel=0 note=65 velocity=95 time=0
EXTRACT: note_on channel=0 note=60 velocity=95 time=0
EXTRACT: note_on channel=0 note=53 velocity=95 time=0
EXTRACT: note_on channel=0 note=48 velocity=95 time=0
EXTRACT: note_off channel=2 note=69 velocity=95 time=0
EXTRACT: note_off channel=2 note=65 velocity=95 time=0
EXTRACT: note_off channel=2 note=60 velocity=95 time=0
EXTRACT: note_off channel=2 note=53 velocity=95 time=0
EXTRACT: note_off channel=2 note=48 velocity=95 time=0
EXTRACT: note_on channel=2 note=69 velocity=95 time=0
EXTRACT: note_on channel=2 note=65 velocity=95 time=0
EXTRACT: note_on channel=2 note=60 velocity=95 time=0
EXTRACT: note_on channel=2 note=53 velocity=95 time=0
EXTRACT: note_on channel=2 note=48 velocity=95 time=0
EXTRACT: note_on channel=11 note=53 velocity=95 time=0.19999999999999998
EXTRACT: note_off channel=0 note=69 velocity=95 time=0.19999999999999998
EXTRACT: note_off channel=0 note=65 velocity=95 time=0
EXTRACT: note_off channel=0 note=60 velocity=95 time=0
EXTRACT: note_off channel=0 note=53 velocity=95 time=0
EXTRACT: note_off channel=0 note=48 velocity=95 time=0
EXTRACT: note_on channel=0 note=69 velocity=95 time=0
EXTRACT: note_on channel=0 note=65 velocity=95 time=0
EXTRACT: note_on channel=0 note=60 velocity=95 time=0
EXTRACT: note_on channel=0 note=53 velocity=95 time=0
EXTRACT: note_on channel=0 note=48 velocity=95 time=0
EXTRACT: note_off channel=2 note=69 velocity=95 time=0
EXTRACT: note_off channel=2 note=65 velocity=95 time=0
EXTRACT: note_off channel=2 note=60 velocity=95 time=0
EXTRACT: note_off channel=2 note=53 velocity=95 time=0
EXTRACT: note_off channel=2 note=48 velocity=95 time=0
EXTRACT: note_on channel=2 note=69 velocity=95 time=0
EXTRACT: note_on channel=2 note=65 velocity=95 time=0
EXTRACT: note_on channel=2 note=60 velocity=95 time=0
EXTRACT: note_on channel=2 note=53 velocity=95 time=0
EXTRACT: note_on channel=2 note=48 velocity=95 time=0
EXTRACT: note_off channel=6 note=41 velocity=95 time=0
EXTRACT: note_on channel=6 note=41 velocity=95 time=0
EXTRACT: note_off channel=11 note=53 velocity=95 time=0
EXTRACT: note_on channel=11 note=53 velocity=95 time=0
EXTRACT: note_off channel=0 note=69 velocity=95 time=0.39999999999999997
EXTRACT: note_off channel=0 note=65 velocity=95 time=0
EXTRACT: note_off channel=0 note=60 velocity=95 time=0
EXTRACT: note_off channel=0 note=53 velocity=95 time=0
EXTRACT: note_off channel=0 note=48 velocity=95 time=0
EXTRACT: note_on channel=0 note=69 velocity=95 time=0
EXTRACT: note_on channel=0 note=65 velocity=95 time=0
EXTRACT: note_on channel=0 note=60 velocity=95 time=0
EXTRACT: note_on channel=0 note=53 velocity=95 time=0
EXTRACT: note_on channel=0 note=48 velocity=95 time=0
EXTRACT: note_off channel=2 note=69 velocity=95 time=0
EXTRACT: note_off channel=2 note=65 velocity=95 time=0
EXTRACT: note_off channel=2 note=60 velocity=95 time=0
EXTRACT: note_off channel=2 note=53 velocity=95 time=0
EXTRACT: note_off channel=2 note=48 velocity=95 time=0
EXTRACT: note_on channel=2 note=69 velocity=95 time=0
EXTRACT: note_on channel=2 note=65 velocity=95 time=0
EXTRACT: note_on channel=2 note=60 velocity=95 time=0
EXTRACT: note_on channel=2 note=53 velocity=95 time=0
EXTRACT: note_on channel=2 note=48 velocity=95 time=0
EXTRACT: note_off channel=11 note=53 velocity=95 time=0
EXTRACT: note_on channel=11 note=55 velocity=95 time=0
EXTRACT: note_off channel=0 note=69 velocity=95 time=0.39999999999999997
EXTRACT: note_off channel=0 note=65 velocity=95 time=0
EXTRACT: note_off channel=0 note=60 velocity=95 time=0
EXTRACT: note_off channel=0 note=53 velocity=95 time=0
EXTRACT: note_off channel=0 note=48 velocity=95 time=0
EXTRACT: note_on channel=0 note=69 velocity=95 time=0
EXTRACT: note_on channel=0 note=65 velocity=95 time=0
EXTRACT: note_on channel=0 note=60 velocity=95 time=0
EXTRACT: note_on channel=0 note=53 velocity=95 time=0
EXTRACT: note_on channel=0 note=48 velocity=95 time=0
EXTRACT: note_off channel=2 note=69 velocity=95 time=0
EXTRACT: note_off channel=2 note=65 velocity=95 time=0
EXTRACT: note_off channel=2 note=60 velocity=95 time=0
EXTRACT: note_off channel=2 note=53 velocity=95 time=0
EXTRACT: note_off channel=2 note=48 velocity=95 time=0
EXTRACT: note_on channel=2 note=69 velocity=95 time=0
EXTRACT: note_on channel=2 note=65 velocity=95 time=0
EXTRACT: note_on channel=2 note=60 velocity=95 time=0
EXTRACT: note_on channel=2 note=53 velocity=95 time=0
EXTRACT: note_on channel=2 note=48 velocity=95 time=0
EXTRACT: note_off channel=11 note=55 velocity=95 time=0
EXTRACT: note_on channel=11 note=53 velocity=95 time=0
EXTRACT: note_off channel=0 note=69 velocity=95 time=0.39999999999999997
EXTRACT: note_off channel=0 note=65 velocity=95 time=0
EXTRACT: note_off channel=0 note=60 velocity=95 time=0
EXTRACT: note_off channel=0 note=53 velocity=95 time=0
EXTRACT: note_off channel=0 note=48 velocity=95 time=0
EXTRACT: note_on channel=0 note=69 velocity=95 time=0
EXTRACT: note_on channel=0 note=65 velocity=95 time=0
EXTRACT: note_on channel=0 note=60 velocity=95 time=0
EXTRACT: note_on channel=0 note=53 velocity=95 time=0
EXTRACT: note_on channel=0 note=48 velocity=95 time=0
EXTRACT: note_off channel=2 note=69 velocity=95 time=0
EXTRACT: note_off channel=2 note=65 velocity=95 time=0
EXTRACT: note_off channel=2 note=60 velocity=95 time=0
EXTRACT: note_off channel=2 note=53 velocity=95 time=0
EXTRACT: note_off channel=2 note=48 velocity=95 time=0
EXTRACT: note_on channel=2 note=69 velocity=95 time=0
EXTRACT: note_on channel=2 note=65 velocity=95 time=0
EXTRACT: note_on channel=2 note=60 velocity=95 time=0
EXTRACT: note_on channel=2 note=53 velocity=95 time=0
EXTRACT: note_on channel=2 note=48 velocity=95 time=0
EXTRACT: note_off channel=11 note=53 velocity=95 time=0
EXTRACT: note_on channel=11 note=57 velocity=95 time=0
EXTRACT: note_off channel=0 note=69 velocity=95 time=0.39999999999999997
EXTRACT: note_off channel=0 note=65 velocity=95 time=0
EXTRACT: note_off channel=0 note=60 velocity=95 time=0
EXTRACT: note_off channel=0 note=53 velocity=95 time=0
EXTRACT: note_off channel=0 note=48 velocity=95 time=0
EXTRACT: note_on channel=0 note=67 velocity=95 time=0
EXTRACT: note_on channel=0 note=65 velocity=95 time=0
EXTRACT: note_on channel=0 note=60 velocity=95 time=0
EXTRACT: note_on channel=0 note=53 velocity=95 time=0
EXTRACT: note_on channel=0 note=48 velocity=95 time=0
EXTRACT: note_off channel=2 note=69 velocity=95 time=0
EXTRACT: note_off channel=2 note=65 velocity=95 time=0
EXTRACT: note_off channel=2 note=60 velocity=95 time=0
EXTRACT: note_off channel=2 note=53 velocity=95 time=0
EXTRACT: note_off channel=2 note=48 velocity=95 time=0
EXTRACT: note_on channel=2 note=67 velocity=95 time=0
EXTRACT: note_on channel=2 note=65 velocity=95 time=0
EXTRACT: note_on channel=2 note=60 velocity=95 time=0
EXTRACT: note_on channel=2 note=53 velocity=95 time=0
EXTRACT: note_on channel=2 note=48 velocity=95 time=0
EXTRACT: note_off channel=6 note=41 velocity=95 time=0
EXTRACT: note_on channel=6 note=41 velocity=95 time=0
EXTRACT: note_off channel=0 note=67 velocity=95 time=0.39999999999999997
EXTRACT: note_off channel=0 note=65 velocity=95 time=0
EXTRACT: note_off channel=0 note=60 velocity=95 time=0
EXTRACT: note_off channel=0 note=53 velocity=95 time=0
EXTRACT: note_off channel=0 note=48 velocity=95 time=0
EXTRACT: note_on channel=0 note=67 velocity=95 time=0
EXTRACT: note_on channel=0 note=65 velocity=95 time=0
EXTRACT: note_on channel=0 note=60 velocity=95 time=0
EXTRACT: note_on channel=0 note=53 velocity=95 time=0
EXTRACT: note_on channel=0 note=48 velocity=95 time=0
EXTRACT: note_off channel=2 note=67 velocity=95 time=0
EXTRACT: note_off channel=2 note=65 velocity=95 time=0
EXTRACT: note_off channel=2 note=60 velocity=95 time=0
EXTRACT: note_off channel=2 note=53 velocity=95 time=0
EXTRACT: note_off channel=2 note=48 velocity=95 time=0
EXTRACT: note_on channel=2 note=67 velocity=95 time=0
EXTRACT: note_on channel=2 note=65 velocity=95 time=0
EXTRACT: note_on channel=2 note=60 velocity=95 time=0
EXTRACT: note_on channel=2 note=53 velocity=95 time=0
EXTRACT: note_on channel=2 note=48 velocity=95 time=0
EXTRACT: note_off channel=11 note=57 velocity=95 time=0
EXTRACT: note_on channel=11 note=57 velocity=95 time=0
EXTRACT: note_off channel=0 note=67 velocity=95 time=0.39999999999999997
EXTRACT: note_off channel=0 note=65 velocity=95 time=0
EXTRACT: note_off channel=0 note=60 velocity=95 time=0
EXTRACT: note_off channel=0 note=53 velocity=95 time=0
EXTRACT: note_off channel=0 note=48 velocity=95 time=0
EXTRACT: note_on channel=0 note=67 velocity=95 time=0
EXTRACT: note_on channel=0 note=65 velocity=95 time=0
EXTRACT: note_on channel=0 note=60 velocity=95 time=0
EXTRACT: note_on channel=0 note=53 velocity=95 time=0
EXTRACT: note_on channel=0 note=48 velocity=95 time=0
EXTRACT: note_off channel=2 note=67 velocity=95 time=0
EXTRACT: note_off channel=2 note=65 velocity=95 time=0
EXTRACT: note_off channel=2 note=60 velocity=95 time=0
EXTRACT: note_off channel=2 note=53 velocity=95 time=0
EXTRACT: note_off channel=2 note=48 velocity=95 time=0
EXTRACT: note_on channel=2 note=67 velocity=95 time=0
EXTRACT: note_on channel=2 note=65 velocity=95 time=0
EXTRACT: note_on channel=2 note=60 velocity=95 time=0
EXTRACT: note_on channel=2 note=53 velocity=95 time=0
EXTRACT: note_on channel=2 note=48 velocity=95 time=0
EXTRACT: note_off channel=0 note=67 velocity=95 time=0.39999999999999997
EXTRACT: note_off channel=0 note=65 velocity=95 time=0
EXTRACT: note_off channel=0 note=60 velocity=95 time=0
EXTRACT: note_off channel=0 note=53 velocity=95 time=0
EXTRACT: note_off channel=0 note=48 velocity=95 time=0
EXTRACT: note_on channel=0 note=67 velocity=95 time=0
EXTRACT: note_on channel=0 note=65 velocity=95 time=0
EXTRACT: note_on channel=0 note=60 velocity=95 time=0
EXTRACT: note_on channel=0 note=53 velocity=95 time=0
EXTRACT: note_on channel=0 note=48 velocity=95 time=0
EXTRACT: note_off channel=2 note=67 velocity=95 time=0
EXTRACT: note_off channel=2 note=65 velocity=95 time=0
EXTRACT: note_off channel=2 note=60 velocity=95 time=0
EXTRACT: note_off channel=2 note=53 velocity=95 time=0
EXTRACT: note_off channel=2 note=48 velocity=95 time=0
EXTRACT: note_on channel=2 note=67 velocity=95 time=0
EXTRACT: note_on channel=2 note=65 velocity=95 time=0
EXTRACT: note_on channel=2 note=60 velocity=95 time=0
EXTRACT: note_on channel=2 note=53 velocity=95 time=0
EXTRACT: note_on channel=2 note=48 velocity=95 time=0
EXTRACT: note_off channel=11 note=57 velocity=95 time=0
EXTRACT: note_on channel=11 note=57 velocity=95 time=0
EXTRACT: note_off channel=0 note=67 velocity=95 time=0.39999999999999997
EXTRACT: note_off channel=0 note=65 velocity=95 time=0
EXTRACT: note_off channel=0 note=60 velocity=95 time=0
EXTRACT: note_off channel=0 note=53 velocity=95 time=0
EXTRACT: note_off channel=0 note=48 velocity=95 time=0
EXTRACT: note_on channel=0 note=67 velocity=95 time=0
EXTRACT: note_on channel=0 note=65 velocity=95 time=0
EXTRACT: note_on channel=0 note=60 velocity=95 time=0
EXTRACT: note_on channel=0 note=53 velocity=95 time=0
EXTRACT: note_on channel=0 note=48 velocity=95 time=0
EXTRACT: note_off channel=2 note=67 velocity=95 time=0
EXTRACT: note_off channel=2 note=65 velocity=95 time=0
EXTRACT: note_off channel=2 note=60 velocity=95 time=0
EXTRACT: note_off channel=2 note=53 velocity=95 time=0
EXTRACT: note_off channel=2 note=48 velocity=95 time=0
EXTRACT: note_on channel=2 note=67 velocity=95 time=0
EXTRACT: note_on channel=2 note=65 velocity=95 time=0
EXTRACT: note_on channel=2 note=60 velocity=95 time=0
EXTRACT: note_on channel=2 note=53 velocity=95 time=0
EXTRACT: note_on channel=2 note=48 velocity=95 time=0
EXTRACT: note_off channel=6 note=41 velocity=95 time=0
EXTRACT: note_on channel=6 note=41 velocity=95 time=0
EXTRACT: note_off channel=0 note=67 velocity=95 time=0.39999999999999997
EXTRACT: note_off channel=0 note=65 velocity=95 time=0
EXTRACT: note_off channel=0 note=60 velocity=95 time=0
EXTRACT: note_off channel=0 note=53 velocity=95 time=0
EXTRACT: note_off channel=0 note=48 velocity=95 time=0
EXTRACT: note_on channel=0 note=67 velocity=95 time=0
EXTRACT: note_on channel=0 note=65 velocity=95 time=0
EXTRACT: note_on channel=0 note=60 velocity=95 time=0
EXTRACT: note_on channel=0 note=53 velocity=95 time=0
EXTRACT: note_on channel=0 note=48 velocity=95 time=0
EXTRACT: note_off channel=2 note=67 velocity=95 time=0
EXTRACT: note_off channel=2 note=65 velocity=95 time=0
EXTRACT: note_off channel=2 note=60 velocity=95 time=0
EXTRACT: note_off channel=2 note=53 velocity=95 time=0
EXTRACT: note_off channel=2 note=48 velocity=95 time=0
EXTRACT: note_on channel=2 note=67 velocity=95 time=0
EXTRACT: note_on channel=2 note=65 velocity=95 time=0
EXTRACT: note_on channel=2 note=60 velocity=95 time=0
EXTRACT: note_on channel=2 note=53 velocity=95 time=0
EXTRACT: note_on channel=2 note=48 velocity=95 time=0
EXTRACT: note_off channel=0 note=67 velocity=95 time=0.39999999999999997
EXTRACT: note_off channel=0 note=65 velocity=95 time=0
EXTRACT: note_off channel=0 note=60 velocity=95 time=0
EXTRACT: note_off channel=0 note=53 velocity=95 time=0
EXTRACT: note_off channel=0 note=48 velocity=95 time=0
EXTRACT: note_on channel=0 note=67 velocity=95 time=0
EXTRACT: note_on channel=0 note=65 velocity=95 time=0
EXTRACT: note_on channel=0 note=60 velocity=95 time=0
EXTRACT: note_on channel=0 note=53 velocity=95 time=0
EXTRACT: note_on channel=0 note=48 velocity=95 time=0
EXTRACT: note_off channel=2 note=67 velocity=95 time=0
EXTRACT: note_off channel=2 note=65 velocity=95 time=0
EXTRACT: note_off channel=2 note=60 velocity=95 time=0
EXTRACT: note_off channel=2 note=53 velocity=95 time=0
EXTRACT: note_off channel=2 note=48 velocity=95 time=0
EXTRACT: note_on channel=2 note=67 velocity=95 time=0
EXTRACT: note_on channel=2 note=65 velocity=95 time=0
EXTRACT: note_on channel=2 note=60 velocity=95 time=0
EXTRACT: note_on channel=2 note=53 velocity=95 time=0
EXTRACT: note_on channel=2 note=48 velocity=95 time=0
EXTRACT: note_off channel=11 note=57 velocity=95 time=0
EXTRACT: note_on channel=11 note=55 velocity=95 time=0
EXTRACT: note_off channel=0 note=67 velocity=95 time=0.39999999999999997
EXTRACT: note_off channel=0 note=65 velocity=95 time=0
EXTRACT: note_off channel=0 note=60 velocity=95 time=0
EXTRACT: note_off channel=0 note=53 velocity=95 time=0
EXTRACT: note_off channel=0 note=48 velocity=95 time=0
EXTRACT: note_on channel=0 note=67 velocity=95 time=0
EXTRACT: note_on channel=0 note=65 velocity=95 time=0
EXTRACT: note_on channel=0 note=60 velocity=95 time=0
EXTRACT: note_on channel=0 note=53 velocity=95 time=0
EXTRACT: note_on channel=0 note=48 velocity=95 time=0
EXTRACT: note_off channel=2 note=67 velocity=95 time=0
EXTRACT: note_off channel=2 note=65 velocity=95 time=0
EXTRACT: note_off channel=2 note=60 velocity=95 time=0
EXTRACT: note_off channel=2 note=53 velocity=95 time=0
EXTRACT: note_off channel=2 note=48 velocity=95 time=0
EXTRACT: note_on channel=2 note=67 velocity=95 time=0
EXTRACT: note_on channel=2 note=65 velocity=95 time=0
EXTRACT: note_on channel=2 note=60 velocity=95 time=0
EXTRACT: note_on channel=2 note=53 velocity=95 time=0
EXTRACT: note_on channel=2 note=48 velocity=95 time=0
EXTRACT: note_off channel=11 note=55 velocity=95 time=0
EXTRACT: note_on channel=11 note=53 velocity=95 time=0
EXTRACT: note_off channel=0 note=67 velocity=95 time=0.39999999999999997
EXTRACT: note_off channel=0 note=65 velocity=95 time=0
EXTRACT: note_off channel=0 note=60 velocity=95 time=0
EXTRACT: note_off channel=0 note=53 velocity=95 time=0
EXTRACT: note_off channel=0 note=48 velocity=95 time=0
EXTRACT: note_on channel=0 note=69 velocity=95 time=0
EXTRACT: note_on channel=0 note=65 velocity=95 time=0
EXTRACT: note_on channel=0 note=62 velocity=95 time=0
EXTRACT: note_on channel=0 note=57 velocity=95 time=0
EXTRACT: note_on channel=0 note=50 velocity=95 time=0
EXTRACT: note_on channel=0 note=45 velocity=95 time=0
EXTRACT: note_off channel=2 note=67 velocity=95 time=0
EXTRACT: note_off channel=2 note=65 velocity=95 time=0
EXTRACT: note_off channel=2 note=60 velocity=95 time=0
EXTRACT: note_off channel=2 note=53 velocity=95 time=0
EXTRACT: note_off channel=2 note=48 velocity=95 time=0
EXTRACT: note_on channel=2 note=69 velocity=95 time=0
EXTRACT: note_on channel=2 note=65 velocity=95 time=0
EXTRACT: note_on channel=2 note=62 velocity=95 time=0
EXTRACT: note_on channel=2 note=57 velocity=95 time=0
EXTRACT: note_on channel=2 note=50 velocity=95 time=0
EXTRACT: note_on channel=2 note=45 velocity=95 time=0
EXTRACT: note_off channel=6 note=41 velocity=95 time=0
EXTRACT: note_on channel=6 note=50 velocity=95 time=0
EXTRACT: note_off channel=11 note=53 velocity=95 time=0
EXTRACT: note_off channel=0 note=69 velocity=95 time=0.39999999999999997
EXTRACT: note_off channel=0 note=65 velocity=95 time=0
EXTRACT: note_off channel=0 note=62 velocity=95 time=0
EXTRACT: note_off channel=0 note=57 velocity=95 time=0
EXTRACT: note_off channel=0 note=50 velocity=95 time=0
EXTRACT: note_off channel=0 note=45 velocity=95 time=0
EXTRACT: note_on channel=0 note=69 velocity=95 time=0
EXTRACT: note_on channel=0 note=65 velocity=95 time=0
EXTRACT: note_on channel=0 note=62 velocity=95 time=0
EXTRACT: note_on channel=0 note=57 velocity=95 time=0
EXTRACT: note_on channel=0 note=50 velocity=95 time=0
EXTRACT: note_on channel=0 note=45 velocity=95 time=0
EXTRACT: note_off channel=2 note=69 velocity=95 time=0
EXTRACT: note_off channel=2 note=65 velocity=95 time=0
EXTRACT: note_off channel=2 note=62 velocity=95 time=0
EXTRACT: note_off channel=2 note=57 velocity=95 time=0
EXTRACT: note_off channel=2 note=50 velocity=95 time=0
EXTRACT: note_off channel=2 note=45 velocity=95 time=0
EXTRACT: note_on channel=2 note=69 velocity=95 time=0
EXTRACT: note_on channel=2 note=65 velocity=95 time=0
EXTRACT: note_on channel=2 note=62 velocity=95 time=0
EXTRACT: note_on channel=2 note=57 velocity=95 time=0
EXTRACT: note_on channel=2 note=50 velocity=95 time=0
EXTRACT: note_on channel=2 note=45 velocity=95 time=0
EXTRACT: note_off channel=0 note=69 velocity=95 time=0.39999999999999997
EXTRACT: note_off channel=0 note=65 velocity=95 time=0
EXTRACT: note_off channel=0 note=62 velocity=95 time=0
EXTRACT: note_off channel=0 note=57 velocity=95 time=0
EXTRACT: note_off channel=0 note=50 velocity=95 time=0
EXTRACT: note_off channel=0 note=45 velocity=95 time=0
EXTRACT: note_on channel=0 note=69 velocity=95 time=0
EXTRACT: note_on channel=0 note=65 velocity=95 time=0
EXTRACT: note_on channel=0 note=62 velocity=95 time=0
EXTRACT: note_on channel=0 note=57 velocity=95 time=0
EXTRACT: note_on channel=0 note=50 velocity=95 time=0
EXTRACT: note_on channel=0 note=45 velocity=95 time=0
EXTRACT: note_off channel=2 note=69 velocity=95 time=0
EXTRACT: note_off channel=2 note=65 velocity=95 time=0
EXTRACT: note_off channel=2 note=62 velocity=95 time=0
EXTRACT: note_off channel=2 note=57 velocity=95 time=0
EXTRACT: note_off channel=2 note=50 velocity=95 time=0
EXTRACT: note_off channel=2 note=45 velocity=95 time=0
EXTRACT: note_on channel=2 note=69 velocity=95 time=0
EXTRACT: note_on channel=2 note=65 velocity=95 time=0
EXTRACT: note_on channel=2 note=62 velocity=95 time=0
EXTRACT: note_on channel=2 note=57 velocity=95 time=0
EXTRACT: note_on channel=2 note=50 velocity=95 time=0
EXTRACT: note_on channel=2 note=45 velocity=95 time=0
EXTRACT: note_off channel=0 note=69 velocity=95 time=0.39999999999999997
EXTRACT: note_off channel=0 note=65 velocity=95 time=0
EXTRACT: note_off channel=0 note=62 velocity=95 time=0
EXTRACT: note_off channel=0 note=57 velocity=95 time=0
EXTRACT: note_off channel=0 note=50 velocity=95 time=0
EXTRACT: note_off channel=0 note=45 velocity=95 time=0
EXTRACT: note_on channel=0 note=69 velocity=95 time=0
EXTRACT: note_on channel=0 note=65 velocity=95 time=0
EXTRACT: note_on channel=0 note=62 velocity=95 time=0
EXTRACT: note_on channel=0 note=57 velocity=95 time=0
EXTRACT: note_on channel=0 note=50 velocity=95 time=0
EXTRACT: note_on channel=0 note=45 velocity=95 time=0
EXTRACT: note_off channel=2 note=69 velocity=95 time=0
EXTRACT: note_off channel=2 note=65 velocity=95 time=0
EXTRACT: note_off channel=2 note=62 velocity=95 time=0
EXTRACT: note_off channel=2 note=57 velocity=95 time=0
EXTRACT: note_off channel=2 note=50 velocity=95 time=0
EXTRACT: note_off channel=2 note=45 velocity=95 time=0
EXTRACT: note_on channel=2 note=69 velocity=95 time=0
EXTRACT: note_on channel=2 note=65 velocity=95 time=0
EXTRACT: note_on channel=2 note=62 velocity=95 time=0
EXTRACT: note_on channel=2 note=57 velocity=95 time=0
EXTRACT: note_on channel=2 note=50 velocity=95 time=0
EXTRACT: note_on channel=2 note=45 velocity=95 time=0
EXTRACT: note_off channel=0 note=69 velocity=95 time=0.39999999999999997
EXTRACT: note_off channel=0 note=65 velocity=95 time=0
EXTRACT: note_off channel=0 note=62 velocity=95 time=0
EXTRACT: note_off channel=0 note=57 velocity=95 time=0
EXTRACT: note_off channel=0 note=50 velocity=95 time=0
EXTRACT: note_off channel=0 note=45 velocity=95 time=0
EXTRACT: note_on channel=0 note=69 velocity=95 time=0
EXTRACT: note_on channel=0 note=65 velocity=95 time=0
EXTRACT: note_on channel=0 note=62 velocity=95 time=0
EXTRACT: note_on channel=0 note=57 velocity=95 time=0
EXTRACT: note_on channel=0 note=50 velocity=95 time=0
EXTRACT: note_on channel=0 note=45 velocity=95 time=0
EXTRACT: note_off channel=2 note=69 velocity=95 time=0
EXTRACT: note_off channel=2 note=65 velocity=95 time=0
EXTRACT: note_off channel=2 note=62 velocity=95 time=0
EXTRACT: note_off channel=2 note=57 velocity=95 time=0
EXTRACT: note_off channel=2 note=50 velocity=95 time=0
EXTRACT: note_off channel=2 note=45 velocity=95 time=0
EXTRACT: note_on channel=2 note=69 velocity=95 time=0
EXTRACT: note_on channel=2 note=65 velocity=95 time=0
EXTRACT: note_on channel=2 note=62 velocity=95 time=0
EXTRACT: note_on channel=2 note=57 velocity=95 time=0
EXTRACT: note_on channel=2 note=50 velocity=95 time=0
EXTRACT: note_on channel=2 note=45 velocity=95 time=0
EXTRACT: note_off channel=6 note=50 velocity=95 time=0
EXTRACT: note_on channel=6 note=50 velocity=95 time=0
EXTRACT: note_on channel=11 note=53 velocity=95 time=0
EXTRACT: note_off channel=0 note=69 velocity=95 time=0.39999999999999997
EXTRACT: note_off channel=0 note=65 velocity=95 time=0
EXTRACT: note_off channel=0 note=62 velocity=95 time=0
EXTRACT: note_off channel=0 note=57 velocity=95 time=0
EXTRACT: note_off channel=0 note=50 velocity=95 time=0
EXTRACT: note_off channel=0 note=45 velocity=95 time=0
EXTRACT: note_on channel=0 note=69 velocity=95 time=0
EXTRACT: note_on channel=0 note=65 velocity=95 time=0
EXTRACT: note_on channel=0 note=62 velocity=95 time=0
EXTRACT: note_on channel=0 note=57 velocity=95 time=0
EXTRACT: note_on channel=0 note=50 velocity=95 time=0
EXTRACT: note_on channel=0 note=45 velocity=95 time=0
EXTRACT: note_off channel=2 note=69 velocity=95 time=0
EXTRACT: note_off channel=2 note=65 velocity=95 time=0
EXTRACT: note_off channel=2 note=62 velocity=95 time=0
EXTRACT: note_off channel=2 note=57 velocity=95 time=0
EXTRACT: note_off channel=2 note=50 velocity=95 time=0
EXTRACT: note_off channel=2 note=45 velocity=95 time=0
EXTRACT: note_on channel=2 note=69 velocity=95 time=0
EXTRACT: note_on channel=2 note=65 velocity=95 time=0
EXTRACT: note_on channel=2 note=62 velocity=95 time=0
EXTRACT: note_on channel=2 note=57 velocity=95 time=0
EXTRACT: note_on channel=2 note=50 velocity=95 time=0
EXTRACT: note_on channel=2 note=45 velocity=95 time=0
EXTRACT: note_off channel=11 note=53 velocity=95 time=0
EXTRACT: note_on channel=11 note=55 velocity=95 time=0
EXTRACT: note_off channel=0 note=69 velocity=95 time=0.39999999999999997
EXTRACT: note_off channel=0 note=65 velocity=95 time=0
EXTRACT: note_off channel=0 note=62 velocity=95 time=0
EXTRACT: note_off channel=0 note=57 velocity=95 time=0
EXTRACT: note_off channel=0 note=50 velocity=95 time=0
EXTRACT: note_off channel=0 note=45 velocity=95 time=0
EXTRACT: note_on channel=0 note=69 velocity=95 time=0
EXTRACT: note_on channel=0 note=65 velocity=95 time=0
EXTRACT: note_on channel=0 note=62 velocity=95 time=0
EXTRACT: note_on channel=0 note=57 velocity=95 time=0
EXTRACT: note_on channel=0 note=50 velocity=95 time=0
EXTRACT: note_on channel=0 note=45 velocity=95 time=0
EXTRACT: note_off channel=2 note=69 velocity=95 time=0
EXTRACT: note_off channel=2 note=65 velocity=95 time=0
EXTRACT: note_off channel=2 note=62 velocity=95 time=0
EXTRACT: note_off channel=2 note=57 velocity=95 time=0
EXTRACT: note_off channel=2 note=50 velocity=95 time=0
EXTRACT: note_off channel=2 note=45 velocity=95 time=0
EXTRACT: note_on channel=2 note=69 velocity=95 time=0
EXTRACT: note_on channel=2 note=65 velocity=95 time=0
EXTRACT: note_on channel=2 note=62 velocity=95 time=0
EXTRACT: note_on channel=2 note=57 velocity=95 time=0
EXTRACT: note_on channel=2 note=50 velocity=95 time=0
EXTRACT: note_on channel=2 note=45 velocity=95 time=0
EXTRACT: note_off channel=11 note=55 velocity=95 time=0
EXTRACT: note_on channel=11 note=53 velocity=95 time=0
EXTRACT: note_off channel=0 note=69 velocity=95 time=0.39999999999999997
EXTRACT: note_off channel=0 note=65 velocity=95 time=0
EXTRACT: note_off channel=0 note=62 velocity=95 time=0
EXTRACT: note_off channel=0 note=57 velocity=95 time=0
EXTRACT: note_off channel=0 note=50 velocity=95 time=0
EXTRACT: note_off channel=0 note=45 velocity=95 time=0
EXTRACT: note_on channel=0 note=69 velocity=95 time=0
EXTRACT: note_on channel=0 note=65 velocity=95 time=0
EXTRACT: note_on channel=0 note=62 velocity=95 time=0
EXTRACT: note_on channel=0 note=57 velocity=95 time=0
EXTRACT: note_on channel=0 note=50 velocity=95 time=0
EXTRACT: note_on channel=0 note=45 velocity=95 time=0
EXTRACT: note_off channel=2 note=69 velocity=95 time=0
EXTRACT: note_off channel=2 note=65 velocity=95 time=0
EXTRACT: note_off channel=2 note=62 velocity=95 time=0
EXTRACT: note_off channel=2 note=57 velocity=95 time=0
EXTRACT: note_off channel=2 note=50 velocity=95 time=0
EXTRACT: note_off channel=2 note=45 velocity=95 time=0
EXTRACT: note_on channel=2 note=69 velocity=95 time=0
EXTRACT: note_on channel=2 note=65 velocity=95 time=0
EXTRACT: note_on channel=2 note=62 velocity=95 time=0
EXTRACT: note_on channel=2 note=57 velocity=95 time=0
EXTRACT: note_on channel=2 note=50 velocity=95 time=0
EXTRACT: note_on channel=2 note=45 velocity=95 time=0
EXTRACT: note_off channel=11 note=53 velocity=95 time=0
EXTRACT: note_on channel=11 note=60 velocity=95 time=0
EXTRACT: note_off channel=0 note=69 velocity=95 time=0.39999999999999997
EXTRACT: note_off channel=0 note=65 velocity=95 time=0
EXTRACT: note_off channel=0 note=62 velocity=95 time=0
EXTRACT: note_off channel=0 note=57 velocity=95 time=0
EXTRACT: note_off channel=0 note=50 velocity=95 time=0
EXTRACT: note_off channel=0 note=45 velocity=95 time=0
EXTRACT: note_on channel=0 note=70 velocity=95 time=0
EXTRACT: note_on channel=0 note=65 velocity=95 time=0
EXTRACT: note_on channel=0 note=62 velocity=95 time=0
EXTRACT: note_on channel=0 note=58 velocity=95 time=0
EXTRACT: note_on channel=0 note=53 velocity=95 time=0
EXTRACT: note_on channel=0 note=46 velocity=95 time=0
EXTRACT: note_off channel=2 note=69 velocity=95 time=0
EXTRACT: note_off channel=2 note=65 velocity=95 time=0
EXTRACT: note_off channel=2 note=62 velocity=95 time=0
EXTRACT: note_off channel=2 note=57 velocity=95 time=0
EXTRACT: note_off channel=2 note=50 velocity=95 time=0
EXTRACT: note_off channel=2 note=45 velocity=95 time=0
EXTRACT: note_on channel=2 note=70 velocity=95 time=0
EXTRACT: note_on channel=2 note=65 velocity=95 time=0
EXTRACT: note_on channel=2 note=62 velocity=95 time=0
EXTRACT: note_on channel=2 note=58 velocity=95 time=0
EXTRACT: note_on channel=2 note=53 velocity=95 time=0
EXTRACT: note_on channel=2 note=46 velocity=95 time=0
EXTRACT: note_off channel=6 note=50 velocity=95 time=0
EXTRACT: note_on channel=6 note=46 velocity=95 time=0
EXTRACT: note_off channel=0 note=70 velocity=95 time=0.39999999999999997
EXTRACT: note_off channel=0 note=65 velocity=95 time=0
EXTRACT: note_off channel=0 note=62 velocity=95 time=0
EXTRACT: note_off channel=0 note=58 velocity=95 time=0
EXTRACT: note_off channel=0 note=53 velocity=95 time=0
EXTRACT: note_off channel=0 note=46 velocity=95 time=0
EXTRACT: note_on channel=0 note=70 velocity=95 time=0
EXTRACT: note_on channel=0 note=65 velocity=95 time=0
EXTRACT: note_on channel=0 note=62 velocity=95 time=0
EXTRACT: note_on channel=0 note=58 velocity=95 time=0
EXTRACT: note_on channel=0 note=53 velocity=95 time=0
EXTRACT: note_on channel=0 note=46 velocity=95 time=0
EXTRACT: note_off channel=2 note=70 velocity=95 time=0
EXTRACT: note_off channel=2 note=65 velocity=95 time=0
EXTRACT: note_off channel=2 note=62 velocity=95 time=0
EXTRACT: note_off channel=2 note=58 velocity=95 time=0
EXTRACT: note_off channel=2 note=53 velocity=95 time=0
EXTRACT: note_off channel=2 note=46 velocity=95 time=0
EXTRACT: note_on channel=2 note=70 velocity=95 time=0
EXTRACT: note_on channel=2 note=65 velocity=95 time=0
EXTRACT: note_on channel=2 note=62 velocity=95 time=0
EXTRACT: note_on channel=2 note=58 velocity=95 time=0
EXTRACT: note_on channel=2 note=53 velocity=95 time=0
EXTRACT: note_on channel=2 note=46 velocity=95 time=0
EXTRACT: note_off channel=11 note=60 velocity=95 time=0
EXTRACT: note_on channel=11 note=57 velocity=95 time=0
EXTRACT: note_off channel=0 note=70 velocity=95 time=0.39999999999999997
EXTRACT: note_off channel=0 note=65 velocity=95 time=0
EXTRACT: note_off channel=0 note=62 velocity=95 time=0
EXTRACT: note_off channel=0 note=58 velocity=95 time=0
EXTRACT: note_off channel=0 note=53 velocity=95 time=0
EXTRACT: note_off channel=0 note=46 velocity=95 time=0
EXTRACT: note_on channel=0 note=70 velocity=95 time=0
EXTRACT: note_on channel=0 note=65 velocity=95 time=0
EXTRACT: note_on channel=0 note=62 velocity=95 time=0
EXTRACT: note_on channel=0 note=58 velocity=95 time=0
EXTRACT: note_on channel=0 note=53 velocity=95 time=0
EXTRACT: note_on channel=0 note=46 velocity=95 time=0
EXTRACT: note_off channel=2 note=70 velocity=95 time=0
EXTRACT: note_off channel=2 note=65 velocity=95 time=0
EXTRACT: note_off channel=2 note=62 velocity=95 time=0
EXTRACT: note_off channel=2 note=58 velocity=95 time=0
EXTRACT: note_off channel=2 note=53 velocity=95 time=0
EXTRACT: note_off channel=2 note=46 velocity=95 time=0
EXTRACT: note_on channel=2 note=70 velocity=95 time=0
EXTRACT: note_on channel=2 note=65 velocity=95 time=0
EXTRACT: note_on channel=2 note=62 velocity=95 time=0
EXTRACT: note_on channel=2 note=58 velocity=95 time=0
EXTRACT: note_on channel=2 note=53 velocity=95 time=0
EXTRACT: note_on channel=2 note=46 velocity=95 time=0
EXTRACT: note_off channel=0 note=70 velocity=95 time=0.39999999999999997
EXTRACT: note_off channel=0 note=65 velocity=95 time=0
EXTRACT: note_off channel=0 note=62 velocity=95 time=0
EXTRACT: note_off channel=0 note=58 velocity=95 time=0
EXTRACT: note_off channel=0 note=53 velocity=95 time=0
EXTRACT: note_off channel=0 note=46 velocity=95 time=0
EXTRACT: note_on channel=0 note=70 velocity=95 time=0
EXTRACT: note_on channel=0 note=65 velocity=95 time=0
EXTRACT: note_on channel=0 note=62 velocity=95 time=0
EXTRACT: note_on channel=0 note=58 velocity=95 time=0
EXTRACT: note_on channel=0 note=53 velocity=95 time=0
EXTRACT: note_on channel=0 note=46 velocity=95 time=0
EXTRACT: note_off channel=2 note=70 velocity=95 time=0
EXTRACT: note_off channel=2 note=65 velocity=95 time=0
EXTRACT: note_off channel=2 note=62 velocity=95 time=0
EXTRACT: note_off channel=2 note=58 velocity=95 time=0
EXTRACT: note_off channel=2 note=53 velocity=95 time=0
EXTRACT: note_off channel=2 note=46 velocity=95 time=0
EXTRACT: note_on channel=2 note=70 velocity=95 time=0
EXTRACT: note_on channel=2 note=65 velocity=95 time=0
EXTRACT: note_on channel=2 note=62 velocity=95 time=0
EXTRACT: note_on channel=2 note=58 velocity=95 time=0
EXTRACT: note_on channel=2 note=53 velocity=95 time=0
EXTRACT: note_on channel=2 note=46 velocity=95 time=0
EXTRACT: note_off channel=0 note=70 velocity=95 time=0.39999999999999997
EXTRACT: note_off channel=0 note=65 velocity=95 time=0
EXTRACT: note_off channel=0 note=62 velocity=95 time=0
EXTRACT: note_off channel=0 note=58 velocity=95 time=0
EXTRACT: note_off channel=0 note=53 velocity=95 time=0
EXTRACT: note_off channel=0 note=46 velocity=95 time=0
EXTRACT: note_on channel=0 note=70 velocity=95 time=0
EXTRACT: note_on channel=0 note=65 velocity=95 time=0
EXTRACT: note_on channel=0 note=62 velocity=95 time=0
EXTRACT: note_on channel=0 note=58 velocity=95 time=0
EXTRACT: note_on channel=0 note=53 velocity=95 time=0
EXTRACT: note_on channel=0 note=46 velocity=95 time=0
EXTRACT: note_off channel=2 note=70 velocity=95 time=0
EXTRACT: note_off channel=2 note=65 velocity=95 time=0
EXTRACT: note_off channel=2 note=62 velocity=95 time=0
EXTRACT: note_off channel=2 note=58 velocity=95 time=0
EXTRACT: note_off channel=2 note=53 velocity=95 time=0
EXTRACT: note_off channel=2 note=46 velocity=95 time=0
EXTRACT: note_on channel=2 note=70 velocity=95 time=0
EXTRACT: note_on channel=2 note=65 velocity=95 time=0
EXTRACT: note_on channel=2 note=62 velocity=95 time=0
EXTRACT: note_on channel=2 note=58 velocity=95 time=0
EXTRACT: note_on channel=2 note=53 velocity=95 time=0
EXTRACT: note_on channel=2 note=46 velocity=95 time=0
EXTRACT: note_off channel=6 note=46 velocity=95 time=0
EXTRACT: note_on channel=6 note=46 velocity=95 time=0
EXTRACT: note_off channel=11 note=57 velocity=95 time=0
EXTRACT: note_on channel=11 note=53 velocity=95 time=0
EXTRACT: note_off channel=0 note=70 velocity=95 time=0.39999999999999997
EXTRACT: note_off channel=0 note=65 velocity=95 time=0
EXTRACT: note_off channel=0 note=62 velocity=95 time=0
EXTRACT: note_off channel=0 note=58 velocity=95 time=0
EXTRACT: note_off channel=0 note=53 velocity=95 time=0
EXTRACT: note_off channel=0 note=46 velocity=95 time=0
EXTRACT: note_on channel=0 note=70 velocity=95 time=0
EXTRACT: note_on channel=0 note=65 velocity=95 time=0
EXTRACT: note_on channel=0 note=62 velocity=95 time=0
EXTRACT: note_on channel=0 note=58 velocity=95 time=0
EXTRACT: note_on channel=0 note=53 velocity=95 time=0
EXTRACT: note_on channel=0 note=46 velocity=95 time=0
EXTRACT: note_off channel=2 note=70 velocity=95 time=0
EXTRACT: note_off channel=2 note=65 velocity=95 time=0
EXTRACT: note_off channel=2 note=62 velocity=95 time=0
EXTRACT: note_off channel=2 note=58 velocity=95 time=0
EXTRACT: note_off channel=2 note=53 velocity=95 time=0
EXTRACT: note_off channel=2 note=46 velocity=95 time=0
EXTRACT: note_on channel=2 note=70 velocity=95 time=0
EXTRACT: note_on channel=2 note=65 velocity=95 time=0
EXTRACT: note_on channel=2 note=62 velocity=95 time=0
EXTRACT: note_on channel=2 note=58 velocity=95 time=0
EXTRACT: note_on channel=2 note=53 velocity=95 time=0
EXTRACT: note_on channel=2 note=46 velocity=95 time=0
EXTRACT: note_off channel=11 note=53 velocity=95 time=0
EXTRACT: note_on channel=11 note=55 velocity=95 time=0
EXTRACT: note_off channel=0 note=70 velocity=95 time=0.39999999999999997
EXTRACT: note_off channel=0 note=65 velocity=95 time=0
EXTRACT: note_off channel=0 note=62 velocity=95 time=0
EXTRACT: note_off channel=0 note=58 velocity=95 time=0
EXTRACT: note_off channel=0 note=53 velocity=95 time=0
EXTRACT: note_off channel=0 note=46 velocity=95 time=0
EXTRACT: note_on channel=0 note=70 velocity=95 time=0
EXTRACT: note_on channel=0 note=65 velocity=95 time=0
EXTRACT: note_on channel=0 note=62 velocity=95 time=0
EXTRACT: note_on channel=0 note=58 velocity=95 time=0
EXTRACT: note_on channel=0 note=53 velocity=95 time=0
EXTRACT: note_on channel=0 note=46 velocity=95 time=0
EXTRACT: note_off channel=2 note=70 velocity=95 time=0
EXTRACT: note_off channel=2 note=65 velocity=95 time=0
EXTRACT: note_off channel=2 note=62 velocity=95 time=0
EXTRACT: note_off channel=2 note=58 velocity=95 time=0
EXTRACT: note_off channel=2 note=53 velocity=95 time=0
EXTRACT: note_off channel=2 note=46 velocity=95 time=0
EXTRACT: note_on channel=2 note=70 velocity=111 time=0
EXTRACT: note_off channel=11 note=55 velocity=95 time=0
EXTRACT: note_on channel=11 note=53 velocity=95 time=0
EXTRACT: note_off channel=0 note=70 velocity=95 time=0.39999999999999997
EXTRACT: note_off channel=0 note=65 velocity=95 time=0
EXTRACT: note_off channel=0 note=62 velocity=95 time=0
EXTRACT: note_off channel=0 note=58 velocity=95 time=0
EXTRACT: note_off channel=0 note=53 velocity=95 time=0
EXTRACT: note_off channel=0 note=46 velocity=95 time=0
EXTRACT: note_on channel=0 note=70 velocity=95 time=0
EXTRACT: note_on channel=0 note=65 velocity=95 time=0
EXTRACT: note_on channel=0 note=62 velocity=95 time=0
EXTRACT: note_on channel=0 note=58 velocity=95 time=0
EXTRACT: note_on channel=0 note=53 velocity=95 time=0
EXTRACT: note_on channel=0 note=46 velocity=95 time=0
EXTRACT: note_off channel=2 note=70 velocity=111 time=0
EXTRACT: note_on channel=2 note=72 velocity=111 time=0
EXTRACT: note_off channel=11 note=53 velocity=95 time=0
EXTRACT: note_on channel=11 note=60 velocity=95 time=0
EXTRACT: note_off channel=0 note=70 velocity=95 time=0.39999999999999997
EXTRACT: note_off channel=0 note=65 velocity=95 time=0
EXTRACT: note_off channel=0 note=62 velocity=95 time=0
EXTRACT: note_off channel=0 note=58 velocity=95 time=0
EXTRACT: note_off channel=0 note=53 velocity=95 time=0
EXTRACT: note_off channel=0 note=46 velocity=95 time=0
EXTRACT: note_on channel=0 note=69 velocity=95 time=0
EXTRACT: note_on channel=0 note=65 velocity=95 time=0
EXTRACT: note_on channel=0 note=60 velocity=95 time=0
EXTRACT: note_on channel=0 note=53 velocity=95 time=0
EXTRACT: note_on channel=0 note=48 velocity=95 time=0
EXTRACT: note_off channel=2 note=72 velocity=111 time=0
EXTRACT: note_on channel=2 note=69 velocity=95 time=0
EXTRACT: note_on channel=2 note=65 velocity=95 time=0
EXTRACT: note_on channel=2 note=60 velocity=95 time=0
EXTRACT: note_on channel=2 note=53 velocity=95 time=0
EXTRACT: note_on channel=2 note=48 velocity=95 time=0
EXTRACT: note_off channel=6 note=46 velocity=95 time=0
EXTRACT: note_on channel=6 note=41 velocity=95 time=0
EXTRACT: note_off channel=0 note=69 velocity=95 time=0.39999999999999997
EXTRACT: note_off channel=0 note=65 velocity=95 time=0
EXTRACT: note_off channel=0 note=60 velocity=95 time=0
EXTRACT: note_off channel=0 note=53 velocity=95 time=0
EXTRACT: note_off channel=0 note=48 velocity=95 time=0
EXTRACT: note_on channel=0 note=69 velocity=95 time=0
EXTRACT: note_on channel=0 note=65 velocity=95 time=0
EXTRACT: note_on channel=0 note=60 velocity=95 time=0
EXTRACT: note_on channel=0 note=53 velocity=95 time=0
EXTRACT: note_on channel=0 note=48 velocity=95 time=0
EXTRACT: note_off channel=2 note=69 velocity=95 time=0
EXTRACT: note_off channel=2 note=65 velocity=95 time=0
EXTRACT: note_off channel=2 note=60 velocity=95 time=0
EXTRACT: note_off channel=2 note=53 velocity=95 time=0
EXTRACT: note_off channel=2 note=48 velocity=95 time=0
EXTRACT: note_on channel=2 note=69 velocity=95 time=0
EXTRACT: note_on channel=2 note=65 velocity=95 time=0
EXTRACT: note_on channel=2 note=60 velocity=95 time=0
EXTRACT: note_on channel=2 note=53 velocity=95 time=0
EXTRACT: note_on channel=2 note=48 velocity=95 time=0
EXTRACT: note_off channel=11 note=60 velocity=95 time=0
EXTRACT: note_on channel=11 note=57 velocity=95 time=0
EXTRACT: note_off channel=0 note=69 velocity=95 time=0.39999999999999997
EXTRACT: note_off channel=0 note=65 velocity=95 time=0
EXTRACT: note_off channel=0 note=60 velocity=95 time=0
EXTRACT: note_off channel=0 note=53 velocity=95 time=0
EXTRACT: note_off channel=0 note=48 velocity=95 time=0
EXTRACT: note_on channel=0 note=69 velocity=95 time=0
EXTRACT: note_on channel=0 note=65 velocity=95 time=0
EXTRACT: note_on channel=0 note=60 velocity=95 time=0
EXTRACT: note_on channel=0 note=53 velocity=95 time=0
EXTRACT: note_on channel=0 note=48 velocity=95 time=0
EXTRACT: note_off channel=2 note=69 velocity=95 time=0
EXTRACT: note_off channel=2 note=65 velocity=95 time=0
EXTRACT: note_off channel=2 note=60 velocity=95 time=0
EXTRACT: note_off channel=2 note=53 velocity=95 time=0
EXTRACT: note_off channel=2 note=48 velocity=95 time=0
EXTRACT: note_on channel=2 note=69 velocity=95 time=0
EXTRACT: note_on channel=2 note=65 velocity=95 time=0
EXTRACT: note_on channel=2 note=60 velocity=95 time=0
EXTRACT: note_on channel=2 note=53 velocity=95 time=0
EXTRACT: note_on channel=2 note=48 velocity=95 time=0
EXTRACT: note_off channel=11 note=57 velocity=95 time=0
EXTRACT: note_off channel=0 note=69 velocity=95 time=0.39999999999999997
EXTRACT: note_off channel=0 note=65 velocity=95 time=0
EXTRACT: note_off channel=0 note=60 velocity=95 time=0
EXTRACT: note_off channel=0 note=53 velocity=95 time=0
EXTRACT: note_off channel=0 note=48 velocity=95 time=0
EXTRACT: note_on channel=0 note=69 velocity=95 time=0
EXTRACT: note_on channel=0 note=65 velocity=95 time=0
EXTRACT: note_on channel=0 note=60 velocity=95 time=0
EXTRACT: note_on channel=0 note=53 velocity=95 time=0
EXTRACT: note_on channel=0 note=48 velocity=95 time=0
EXTRACT: note_off channel=2 note=69 velocity=95 time=0
EXTRACT: note_off channel=2 note=65 velocity=95 time=0
EXTRACT: note_off channel=2 note=60 velocity=95 time=0
EXTRACT: note_off channel=2 note=53 velocity=95 time=0
EXTRACT: note_off channel=2 note=48 velocity=95 time=0
EXTRACT: note_on channel=2 note=69 velocity=95 time=0
EXTRACT: note_on channel=2 note=65 velocity=95 time=0
EXTRACT: note_on channel=2 note=60 velocity=95 time=0
EXTRACT: note_on channel=2 note=53 velocity=95 time=0
EXTRACT: note_on channel=2 note=48 velocity=95 time=0
EXTRACT: note_on channel=11 note=53 velocity=95 time=0.19999999999999998
EXTRACT: note_off channel=0 note=69 velocity=95 time=0.19999999999999998
EXTRACT: note_off channel=0 note=65 velocity=95 time=0
EXTRACT: note_off channel=0 note=60 velocity=95 time=0
EXTRACT: note_off channel=0 note=53 velocity=95 time=0
EXTRACT: note_off channel=0 note=48 velocity=95 time=0
EXTRACT: note_on channel=0 note=69 velocity=95 time=0
EXTRACT: note_on channel=0 note=65 velocity=95 time=0
EXTRACT: note_on channel=0 note=60 velocity=95 time=0
EXTRACT: note_on channel=0 note=53 velocity=95 time=0
EXTRACT: note_on channel=0 note=48 velocity=95 time=0
EXTRACT: note_off channel=2 note=69 velocity=95 time=0
EXTRACT: note_off channel=2 note=65 velocity=95 time=0
EXTRACT: note_off channel=2 note=60 velocity=95 time=0
EXTRACT: note_off channel=2 note=53 velocity=95 time=0
EXTRACT: note_off channel=2 note=48 velocity=95 time=0
EXTRACT: note_on channel=2 note=69 velocity=95 time=0
EXTRACT: note_on channel=2 note=65 velocity=95 time=0
EXTRACT: note_on channel=2 note=60 velocity=95 time=0
EXTRACT: note_on channel=2 note=53 velocity=95 time=0
EXTRACT: note_on channel=2 note=48 velocity=95 time=0
EXTRACT: note_off channel=6 note=41 velocity=95 time=0
EXTRACT: note_on channel=6 note=41 velocity=95 time=0
EXTRACT: note_off channel=11 note=53 velocity=95 time=0
EXTRACT: note_on channel=11 note=53 velocity=95 time=0
EXTRACT: note_off channel=0 note=69 velocity=95 time=0.39999999999999997
EXTRACT: note_off channel=0 note=65 velocity=95 time=0
EXTRACT: note_off channel=0 note=60 velocity=95 time=0
EXTRACT: note_off channel=0 note=53 velocity=95 time=0
EXTRACT: note_off channel=0 note=48 velocity=95 time=0
EXTRACT: note_on channel=0 note=69 velocity=95 time=0
EXTRACT: note_on channel=0 note=65 velocity=95 time=0
EXTRACT: note_on channel=0 note=60 velocity=95 time=0
EXTRACT: note_on channel=0 note=53 velocity=95 time=0
EXTRACT: note_on channel=0 note=48 velocity=95 time=0
EXTRACT: note_off channel=2 note=69 velocity=95 time=0
EXTRACT: note_off channel=2 note=65 velocity=95 time=0
EXTRACT: note_off channel=2 note=60 velocity=95 time=0
EXTRACT: note_off channel=2 note=53 velocity=95 time=0
EXTRACT: note_off channel=2 note=48 velocity=95 time=0
EXTRACT: note_on channel=2 note=69 velocity=95 time=0
EXTRACT: note_on channel=2 note=65 velocity=95 time=0
EXTRACT: note_on channel=2 note=60 velocity=95 time=0
EXTRACT: note_on channel=2 note=53 velocity=95 time=0
EXTRACT: note_on channel=2 note=48 velocity=95 time=0
EXTRACT: note_off channel=11 note=53 velocity=95 time=0
EXTRACT: note_on channel=11 note=55 velocity=95 time=0
EXTRACT: note_off channel=0 note=69 velocity=95 time=0.39999999999999997
EXTRACT: note_off channel=0 note=65 velocity=95 time=0
EXTRACT: note_off channel=0 note=60 velocity=95 time=0
EXTRACT: note_off channel=0 note=53 velocity=95 time=0
EXTRACT: note_off channel=0 note=48 velocity=95 time=0
EXTRACT: note_on channel=0 note=69 velocity=95 time=0
EXTRACT: note_on channel=0 note=65 velocity=95 time=0
EXTRACT: note_on channel=0 note=60 velocity=95 time=0
EXTRACT: note_on channel=0 note=53 velocity=95 time=0
EXTRACT: note_on channel=0 note=48 velocity=95 time=0
EXTRACT: note_off channel=2 note=69 velocity=95 time=0
EXTRACT: note_off channel=2 note=65 velocity=95 time=0
EXTRACT: note_off channel=2 note=60 velocity=95 time=0
EXTRACT: note_off channel=2 note=53 velocity=95 time=0
EXTRACT: note_off channel=2 note=48 velocity=95 time=0
EXTRACT: note_on channel=2 note=69 velocity=95 time=0
EXTRACT: note_on channel=2 note=65 velocity=95 time=0
EXTRACT: note_on channel=2 note=60 velocity=95 time=0
EXTRACT: note_on channel=2 note=53 velocity=95 time=0
EXTRACT: note_on channel=2 note=48 velocity=95 time=0
EXTRACT: note_off channel=11 note=55 velocity=95 time=0
EXTRACT: note_on channel=11 note=53 velocity=95 time=0
EXTRACT: note_off channel=0 note=69 velocity=95 time=0.39999999999999997
EXTRACT: note_off channel=0 note=65 velocity=95 time=0
EXTRACT: note_off channel=0 note=60 velocity=95 time=0
EXTRACT: note_off channel=0 note=53 velocity=95 time=0
EXTRACT: note_off channel=0 note=48 velocity=95 time=0
EXTRACT: note_on channel=0 note=69 velocity=95 time=0
EXTRACT: note_on channel=0 note=65 velocity=95 time=0
EXTRACT: note_on channel=0 note=60 velocity=95 time=0
EXTRACT: note_on channel=0 note=53 velocity=95 time=0
EXTRACT: note_on channel=0 note=48 velocity=95 time=0
EXTRACT: note_off channel=2 note=69 velocity=95 time=0
EXTRACT: note_off channel=2 note=65 velocity=95 time=0
EXTRACT: note_off channel=2 note=60 velocity=95 time=0
EXTRACT: note_off channel=2 note=53 velocity=95 time=0
EXTRACT: note_off channel=2 note=48 velocity=95 time=0
EXTRACT: note_on channel=2 note=69 velocity=95 time=0
EXTRACT: note_on channel=2 note=65 velocity=95 time=0
EXTRACT: note_on channel=2 note=60 velocity=95 time=0
EXTRACT: note_on channel=2 note=53 velocity=95 time=0
EXTRACT: note_on channel=2 note=48 velocity=95 time=0
EXTRACT: note_off channel=11 note=53 velocity=95 time=0
EXTRACT: note_on channel=11 note=57 velocity=95 time=0
EXTRACT: note_off channel=0 note=69 velocity=95 time=0.39999999999999997
EXTRACT: note_off channel=0 note=65 velocity=95 time=0
EXTRACT: note_off channel=0 note=60 velocity=95 time=0
EXTRACT: note_off channel=0 note=53 velocity=95 time=0
EXTRACT: note_off channel=0 note=48 velocity=95 time=0
EXTRACT: note_on channel=0 note=67 velocity=95 time=0
EXTRACT: note_on channel=0 note=65 velocity=95 time=0
EXTRACT: note_on channel=0 note=60 velocity=95 time=0
EXTRACT: note_on channel=0 note=53 velocity=95 time=0
EXTRACT: note_on channel=0 note=48 velocity=95 time=0
EXTRACT: note_off channel=2 note=69 velocity=95 time=0
EXTRACT: note_off channel=2 note=65 velocity=95 time=0
EXTRACT: note_off channel=2 note=60 velocity=95 time=0
EXTRACT: note_off channel=2 note=53 velocity=95 time=0
EXTRACT: note_off channel=2 note=48 velocity=95 time=0
EXTRACT: note_on channel=2 note=67 velocity=95 time=0
EXTRACT: note_on channel=2 note=65 velocity=95 time=0
EXTRACT: note_on channel=2 note=60 velocity=95 time=0
EXTRACT: note_on channel=2 note=53 velocity=95 time=0
EXTRACT: note_on channel=2 note=48 velocity=95 time=0
EXTRACT: note_off channel=6 note=41 velocity=95 time=0
EXTRACT: note_on channel=6 note=41 velocity=95 time=0
EXTRACT: note_off channel=0 note=67 velocity=95 time=0.39999999999999997
EXTRACT: note_off channel=0 note=65 velocity=95 time=0
EXTRACT: note_off channel=0 note=60 velocity=95 time=0
EXTRACT: note_off channel=0 note=53 velocity=95 time=0
EXTRACT: note_off channel=0 note=48 velocity=95 time=0
EXTRACT: note_on channel=0 note=67 velocity=95 time=0
EXTRACT: note_on channel=0 note=65 velocity=95 time=0
EXTRACT: note_on channel=0 note=60 velocity=95 time=0
EXTRACT: note_on channel=0 note=53 velocity=95 time=0
EXTRACT: note_on channel=0 note=48 velocity=95 time=0
EXTRACT: note_off channel=2 note=67 velocity=95 time=0
EXTRACT: note_off channel=2 note=65 velocity=95 time=0
EXTRACT: note_off channel=2 note=60 velocity=95 time=0
EXTRACT: note_off channel=2 note=53 velocity=95 time=0
EXTRACT: note_off channel=2 note=48 velocity=95 time=0
EXTRACT: note_on channel=2 note=67 velocity=95 time=0
EXTRACT: note_on channel=2 note=65 velocity=95 time=0
EXTRACT: note_on channel=2 note=60 velocity=95 time=0
EXTRACT: note_on channel=2 note=53 velocity=95 time=0
EXTRACT: note_on channel=2 note=48 velocity=95 time=0
EXTRACT: note_off channel=11 note=57 velocity=95 time=0
EXTRACT: note_on channel=11 note=57 velocity=95 time=0
EXTRACT: note_off channel=0 note=67 velocity=95 time=0.39999999999999997
EXTRACT: note_off channel=0 note=65 velocity=95 time=0
EXTRACT: note_off channel=0 note=60 velocity=95 time=0
EXTRACT: note_off channel=0 note=53 velocity=95 time=0
EXTRACT: note_off channel=0 note=48 velocity=95 time=0
EXTRACT: note_on channel=0 note=67 velocity=95 time=0
EXTRACT: note_on channel=0 note=65 velocity=95 time=0
EXTRACT: note_on channel=0 note=60 velocity=95 time=0
EXTRACT: note_on channel=0 note=53 velocity=95 time=0
EXTRACT: note_on channel=0 note=48 velocity=95 time=0
EXTRACT: note_off channel=2 note=67 velocity=95 time=0
EXTRACT: note_off channel=2 note=65 velocity=95 time=0
EXTRACT: note_off channel=2 note=60 velocity=95 time=0
EXTRACT: note_off channel=2 note=53 velocity=95 time=0
EXTRACT: note_off channel=2 note=48 velocity=95 time=0
EXTRACT: note_on channel=2 note=67 velocity=95 time=0
EXTRACT: note_on channel=2 note=65 velocity=95 time=0
EXTRACT: note_on channel=2 note=60 velocity=95 time=0
EXTRACT: note_on channel=2 note=53 velocity=95 time=0
EXTRACT: note_on channel=2 note=48 velocity=95 time=0
EXTRACT: note_off channel=0 note=67 velocity=95 time=0.39999999999999997
EXTRACT: note_off channel=0 note=65 velocity=95 time=0
EXTRACT: note_off channel=0 note=60 velocity=95 time=0
EXTRACT: note_off channel=0 note=53 velocity=95 time=0
EXTRACT: note_off channel=0 note=48 velocity=95 time=0
EXTRACT: note_on channel=0 note=67 velocity=95 time=0
EXTRACT: note_on channel=0 note=65 velocity=95 time=0
EXTRACT: note_on channel=0 note=60 velocity=95 time=0
EXTRACT: note_on channel=0 note=53 velocity=95 time=0
EXTRACT: note_on channel=0 note=48 velocity=95 time=0
EXTRACT: note_off channel=2 note=67 velocity=95 time=0
EXTRACT: note_off channel=2 note=65 velocity=95 time=0
EXTRACT: note_off channel=2 note=60 velocity=95 time=0
EXTRACT: note_off channel=2 note=53 velocity=95 time=0
EXTRACT: note_off channel=2 note=48 velocity=95 time=0
EXTRACT: note_on channel=2 note=67 velocity=95 time=0
EXTRACT: note_on channel=2 note=65 velocity=95 time=0
EXTRACT: note_on channel=2 note=60 velocity=95 time=0
EXTRACT: note_on channel=2 note=53 velocity=95 time=0
EXTRACT: note_on channel=2 note=48 velocity=95 time=0
EXTRACT: note_off channel=11 note=57 velocity=95 time=0
EXTRACT: note_on channel=11 note=57 velocity=95 time=0
EXTRACT: note_off channel=0 note=67 velocity=95 time=0.39999999999999997
EXTRACT: note_off channel=0 note=65 velocity=95 time=0
EXTRACT: note_off channel=0 note=60 velocity=95 time=0
EXTRACT: note_off channel=0 note=53 velocity=95 time=0
EXTRACT: note_off channel=0 note=48 velocity=95 time=0
EXTRACT: note_on channel=0 note=67 velocity=95 time=0
EXTRACT: note_on channel=0 note=65 velocity=95 time=0
EXTRACT: note_on channel=0 note=60 velocity=95 time=0
EXTRACT: note_on channel=0 note=53 velocity=95 time=0
EXTRACT: note_on channel=0 note=48 velocity=95 time=0
EXTRACT: note_off channel=2 note=67 velocity=95 time=0
EXTRACT: note_off channel=2 note=65 velocity=95 time=0
EXTRACT: note_off channel=2 note=60 velocity=95 time=0
EXTRACT: note_off channel=2 note=53 velocity=95 time=0
EXTRACT: note_off channel=2 note=48 velocity=95 time=0
EXTRACT: note_on channel=2 note=67 velocity=95 time=0
EXTRACT: note_on channel=2 note=65 velocity=95 time=0
EXTRACT: note_on channel=2 note=60 velocity=95 time=0
EXTRACT: note_on channel=2 note=53 velocity=95 time=0
EXTRACT: note_on channel=2 note=48 velocity=95 time=0
EXTRACT: note_off channel=6 note=41 velocity=95 time=0
EXTRACT: note_on channel=6 note=41 velocity=95 time=0
EXTRACT: note_off channel=0 note=67 velocity=95 time=0.39999999999999997
EXTRACT: note_off channel=0 note=65 velocity=95 time=0
EXTRACT: note_off channel=0 note=60 velocity=95 time=0
EXTRACT: note_off channel=0 note=53 velocity=95 time=0
EXTRACT: note_off channel=0 note=48 velocity=95 time=0
EXTRACT: note_on channel=0 note=67 velocity=95 time=0
EXTRACT: note_on channel=0 note=65 velocity=95 time=0
EXTRACT: note_on channel=0 note=60 velocity=95 time=0
EXTRACT: note_on channel=0 note=53 velocity=95 time=0
EXTRACT: note_on channel=0 note=48 velocity=95 time=0
EXTRACT: note_off channel=2 note=67 velocity=95 time=0
EXTRACT: note_off channel=2 note=65 velocity=95 time=0
EXTRACT: note_off channel=2 note=60 velocity=95 time=0
EXTRACT: note_off channel=2 note=53 velocity=95 time=0
EXTRACT: note_off channel=2 note=48 velocity=95 time=0
EXTRACT: note_on channel=2 note=67 velocity=95 time=0
EXTRACT: note_on channel=2 note=65 velocity=95 time=0
EXTRACT: note_on channel=2 note=60 velocity=95 time=0
EXTRACT: note_on channel=2 note=53 velocity=95 time=0
EXTRACT: note_on channel=2 note=48 velocity=95 time=0
EXTRACT: note_off channel=0 note=67 velocity=95 time=0.39999999999999997
EXTRACT: note_off channel=0 note=65 velocity=95 time=0
EXTRACT: note_off channel=0 note=60 velocity=95 time=0
EXTRACT: note_off channel=0 note=53 velocity=95 time=0
EXTRACT: note_off channel=0 note=48 velocity=95 time=0
EXTRACT: note_on channel=0 note=67 velocity=95 time=0
EXTRACT: note_on channel=0 note=65 velocity=95 time=0
EXTRACT: note_on channel=0 note=60 velocity=95 time=0
EXTRACT: note_on channel=0 note=53 velocity=95 time=0
EXTRACT: note_on channel=0 note=48 velocity=95 time=0
EXTRACT: note_off channel=2 note=67 velocity=95 time=0
EXTRACT: note_off channel=2 note=65 velocity=95 time=0
EXTRACT: note_off channel=2 note=60 velocity=95 time=0
EXTRACT: note_off channel=2 note=53 velocity=95 time=0
EXTRACT: note_off channel=2 note=48 velocity=95 time=0
EXTRACT: note_on channel=2 note=67 velocity=95 time=0
EXTRACT: note_on channel=2 note=65 velocity=95 time=0
EXTRACT: note_on channel=2 note=60 velocity=95 time=0
EXTRACT: note_on channel=2 note=53 velocity=95 time=0
EXTRACT: note_on channel=2 note=48 velocity=95 time=0
EXTRACT: note_off channel=11 note=57 velocity=95 time=0
EXTRACT: note_on channel=11 note=55 velocity=95 time=0
EXTRACT: note_off channel=0 note=67 velocity=95 time=0.39999999999999997
EXTRACT: note_off channel=0 note=65 velocity=95 time=0
EXTRACT: note_off channel=0 note=60 velocity=95 time=0
EXTRACT: note_off channel=0 note=53 velocity=95 time=0
EXTRACT: note_off channel=0 note=48 velocity=95 time=0
EXTRACT: note_on channel=0 note=67 velocity=95 time=0
EXTRACT: note_on channel=0 note=65 velocity=95 time=0
EXTRACT: note_on channel=0 note=60 velocity=95 time=0
EXTRACT: note_on channel=0 note=53 velocity=95 time=0
EXTRACT: note_on channel=0 note=48 velocity=95 time=0
EXTRACT: note_off channel=2 note=67 velocity=95 time=0
EXTRACT: note_off channel=2 note=65 velocity=95 time=0
EXTRACT: note_off channel=2 note=60 velocity=95 time=0
EXTRACT: note_off channel=2 note=53 velocity=95 time=0
EXTRACT: note_off channel=2 note=48 velocity=95 time=0
EXTRACT: note_on channel=2 note=67 velocity=95 time=0
EXTRACT: note_on channel=2 note=65 velocity=95 time=0
EXTRACT: note_on channel=2 note=60 velocity=95 time=0
EXTRACT: note_on channel=2 note=53 velocity=95 time=0
EXTRACT: note_on channel=2 note=48 velocity=95 time=0
EXTRACT: note_off channel=11 note=55 velocity=95 time=0
EXTRACT: note_on channel=11 note=53 velocity=95 time=0
EXTRACT: note_off channel=0 note=67 velocity=95 time=0.39999999999999997
EXTRACT: note_off channel=0 note=65 velocity=95 time=0
EXTRACT: note_off channel=0 note=60 velocity=95 time=0
EXTRACT: note_off channel=0 note=53 velocity=95 time=0
EXTRACT: note_off channel=0 note=48 velocity=95 time=0
EXTRACT: note_on channel=0 note=69 velocity=95 time=0
EXTRACT: note_on channel=0 note=65 velocity=95 time=0
EXTRACT: note_on channel=0 note=62 velocity=95 time=0
EXTRACT: note_on channel=0 note=57 velocity=95 time=0
EXTRACT: note_on channel=0 note=50 velocity=95 time=0
EXTRACT: note_on channel=0 note=45 velocity=95 time=0
EXTRACT: note_off channel=2 note=67 velocity=95 time=0
EXTRACT: note_off channel=2 note=65 velocity=95 time=0
EXTRACT: note_off channel=2 note=60 velocity=95 time=0
EXTRACT: note_off channel=2 note=53 velocity=95 time=0
EXTRACT: note_off channel=2 note=48 velocity=95 time=0
EXTRACT: note_on channel=2 note=69 velocity=95 time=0
EXTRACT: note_on channel=2 note=65 velocity=95 time=0
EXTRACT: note_on channel=2 note=62 velocity=95 time=0
EXTRACT: note_on channel=2 note=57 velocity=95 time=0
EXTRACT: note_on channel=2 note=50 velocity=95 time=0
EXTRACT: note_on channel=2 note=45 velocity=95 time=0
EXTRACT: note_off channel=6 note=41 velocity=95 time=0
EXTRACT: note_on channel=6 note=50 velocity=95 time=0
EXTRACT: note_off channel=11 note=53 velocity=95 time=0
EXTRACT: note_off channel=0 note=69 velocity=95 time=0.39999999999999997
EXTRACT: note_off channel=0 note=65 velocity=95 time=0
EXTRACT: note_off channel=0 note=62 velocity=95 time=0
EXTRACT: note_off channel=0 note=57 velocity=95 time=0
EXTRACT: note_off channel=0 note=50 velocity=95 time=0
EXTRACT: note_off channel=0 note=45 velocity=95 time=0
EXTRACT: note_on channel=0 note=69 velocity=95 time=0
EXTRACT: note_on channel=0 note=65 velocity=95 time=0
EXTRACT: note_on channel=0 note=62 velocity=95 time=0
EXTRACT: note_on channel=0 note=57 velocity=95 time=0
EXTRACT: note_on channel=0 note=50 velocity=95 time=0
EXTRACT: note_on channel=0 note=45 velocity=95 time=0
EXTRACT: note_off channel=2 note=69 velocity=95 time=0
EXTRACT: note_off channel=2 note=65 velocity=95 time=0
EXTRACT: note_off channel=2 note=62 velocity=95 time=0
EXTRACT: note_off channel=2 note=57 velocity=95 time=0
EXTRACT: note_off channel=2 note=50 velocity=95 time=0
EXTRACT: note_off channel=2 note=45 velocity=95 time=0
EXTRACT: note_on channel=2 note=69 velocity=95 time=0
EXTRACT: note_on channel=2 note=65 velocity=95 time=0
EXTRACT: note_on channel=2 note=62 velocity=95 time=0
EXTRACT: note_on channel=2 note=57 velocity=95 time=0
EXTRACT: note_on channel=2 note=50 velocity=95 time=0
EXTRACT: note_on channel=2 note=45 velocity=95 time=0
EXTRACT: note_off channel=0 note=69 velocity=95 time=0.39999999999999997
EXTRACT: note_off channel=0 note=65 velocity=95 time=0
EXTRACT: note_off channel=0 note=62 velocity=95 time=0
EXTRACT: note_off channel=0 note=57 velocity=95 time=0
EXTRACT: note_off channel=0 note=50 velocity=95 time=0
EXTRACT: note_off channel=0 note=45 velocity=95 time=0
EXTRACT: note_on channel=0 note=69 velocity=95 time=0
EXTRACT: note_on channel=0 note=65 velocity=95 time=0
EXTRACT: note_on channel=0 note=62 velocity=95 time=0
EXTRACT: note_on channel=0 note=57 velocity=95 time=0
EXTRACT: note_on channel=0 note=50 velocity=95 time=0
EXTRACT: note_on channel=0 note=45 velocity=95 time=0
EXTRACT: note_off channel=2 note=69 velocity=95 time=0
EXTRACT: note_off channel=2 note=65 velocity=95 time=0
EXTRACT: note_off channel=2 note=62 velocity=95 time=0
EXTRACT: note_off channel=2 note=57 velocity=95 time=0
EXTRACT: note_off channel=2 note=50 velocity=95 time=0
EXTRACT: note_off channel=2 note=45 velocity=95 time=0
EXTRACT: note_on channel=2 note=69 velocity=95 time=0
EXTRACT: note_on channel=2 note=65 velocity=95 time=0
EXTRACT: note_on channel=2 note=62 velocity=95 time=0
EXTRACT: note_on channel=2 note=57 velocity=95 time=0
EXTRACT: note_on channel=2 note=50 velocity=95 time=0
EXTRACT: note_on channel=2 note=45 velocity=95 time=0
EXTRACT: note_off channel=0 note=69 velocity=95 time=0.39999999999999997
EXTRACT: note_off channel=0 note=65 velocity=95 time=0
EXTRACT: note_off channel=0 note=62 velocity=95 time=0
EXTRACT: note_off channel=0 note=57 velocity=95 time=0
EXTRACT: note_off channel=0 note=50 velocity=95 time=0
EXTRACT: note_off channel=0 note=45 velocity=95 time=0
EXTRACT: note_on channel=0 note=69 velocity=95 time=0
EXTRACT: note_on channel=0 note=65 velocity=95 time=0
EXTRACT: note_on channel=0 note=62 velocity=95 time=0
EXTRACT: note_on channel=0 note=57 velocity=95 time=0
EXTRACT: note_on channel=0 note=50 velocity=95 time=0
EXTRACT: note_on channel=0 note=45 velocity=95 time=0
EXTRACT: note_off channel=2 note=69 velocity=95 time=0
EXTRACT: note_off channel=2 note=65 velocity=95 time=0
EXTRACT: note_off channel=2 note=62 velocity=95 time=0
EXTRACT: note_off channel=2 note=57 velocity=95 time=0
EXTRACT: note_off channel=2 note=50 velocity=95 time=0
EXTRACT: note_off channel=2 note=45 velocity=95 time=0
EXTRACT: note_on channel=2 note=69 velocity=95 time=0
EXTRACT: note_on channel=2 note=65 velocity=95 time=0
EXTRACT: note_on channel=2 note=62 velocity=95 time=0
EXTRACT: note_on channel=2 note=57 velocity=95 time=0
EXTRACT: note_on channel=2 note=50 velocity=95 time=0
EXTRACT: note_on channel=2 note=45 velocity=95 time=0
EXTRACT: note_off channel=0 note=69 velocity=95 time=0.39999999999999997
EXTRACT: note_off channel=0 note=65 velocity=95 time=0
EXTRACT: note_off channel=0 note=62 velocity=95 time=0
EXTRACT: note_off channel=0 note=57 velocity=95 time=0
EXTRACT: note_off channel=0 note=50 velocity=95 time=0
EXTRACT: note_off channel=0 note=45 velocity=95 time=0
EXTRACT: note_on channel=0 note=69 velocity=95 time=0
EXTRACT: note_on channel=0 note=65 velocity=95 time=0
EXTRACT: note_on channel=0 note=62 velocity=95 time=0
EXTRACT: note_on channel=0 note=57 velocity=95 time=0
EXTRACT: note_on channel=0 note=50 velocity=95 time=0
EXTRACT: note_on channel=0 note=45 velocity=95 time=0
EXTRACT: note_off channel=2 note=69 velocity=95 time=0
EXTRACT: note_off channel=2 note=65 velocity=95 time=0
EXTRACT: note_off channel=2 note=62 velocity=95 time=0
EXTRACT: note_off channel=2 note=57 velocity=95 time=0
EXTRACT: note_off channel=2 note=50 velocity=95 time=0
EXTRACT: note_off channel=2 note=45 velocity=95 time=0
EXTRACT: note_on channel=2 note=69 velocity=95 time=0
EXTRACT: note_on channel=2 note=65 velocity=95 time=0
EXTRACT: note_on channel=2 note=62 velocity=95 time=0
EXTRACT: note_on channel=2 note=57 velocity=95 time=0
EXTRACT: note_on channel=2 note=50 velocity=95 time=0
EXTRACT: note_on channel=2 note=45 velocity=95 time=0
EXTRACT: note_off channel=6 note=50 velocity=95 time=0
EXTRACT: note_on channel=6 note=50 velocity=95 time=0
EXTRACT: note_on channel=11 note=53 velocity=95 time=0
EXTRACT: note_off channel=0 note=69 velocity=95 time=0.39999999999999997
EXTRACT: note_off channel=0 note=65 velocity=95 time=0
EXTRACT: note_off channel=0 note=62 velocity=95 time=0
EXTRACT: note_off channel=0 note=57 velocity=95 time=0
EXTRACT: note_off channel=0 note=50 velocity=95 time=0
EXTRACT: note_off channel=0 note=45 velocity=95 time=0
EXTRACT: note_on channel=0 note=69 velocity=95 time=0
EXTRACT: note_on channel=0 note=65 velocity=95 time=0
EXTRACT: note_on channel=0 note=62 velocity=95 time=0
EXTRACT: note_on channel=0 note=57 velocity=95 time=0
EXTRACT: note_on channel=0 note=50 velocity=95 time=0
EXTRACT: note_on channel=0 note=45 velocity=95 time=0
EXTRACT: note_off channel=2 note=69 velocity=95 time=0
EXTRACT: note_off channel=2 note=65 velocity=95 time=0
EXTRACT: note_off channel=2 note=62 velocity=95 time=0
EXTRACT: note_off channel=2 note=57 velocity=95 time=0
EXTRACT: note_off channel=2 note=50 velocity=95 time=0
EXTRACT: note_off channel=2 note=45 velocity=95 time=0
EXTRACT: note_on channel=2 note=69 velocity=95 time=0
EXTRACT: note_on channel=2 note=65 velocity=95 time=0
EXTRACT: note_on channel=2 note=62 velocity=95 time=0
EXTRACT: note_on channel=2 note=57 velocity=95 time=0
EXTRACT: note_on channel=2 note=50 velocity=95 time=0
EXTRACT: note_on channel=2 note=45 velocity=95 time=0
EXTRACT: note_off channel=11 note=53 velocity=95 time=0
EXTRACT: note_on channel=11 note=55 velocity=95 time=0
EXTRACT: note_off channel=0 note=69 velocity=95 time=0.39999999999999997
EXTRACT: note_off channel=0 note=65 velocity=95 time=0
EXTRACT: note_off channel=0 note=62 velocity=95 time=0
EXTRACT: note_off channel=0 note=57 velocity=95 time=0
EXTRACT: note_off channel=0 note=50 velocity=95 time=0
EXTRACT: note_off channel=0 note=45 velocity=95 time=0
EXTRACT: note_on channel=0 note=69 velocity=95 time=0
EXTRACT: note_on channel=0 note=65 velocity=95 time=0
EXTRACT: note_on channel=0 note=62 velocity=95 time=0
EXTRACT: note_on channel=0 note=57 velocity=95 time=0
EXTRACT: note_on channel=0 note=50 velocity=95 time=0
EXTRACT: note_on channel=0 note=45 velocity=95 time=0
EXTRACT: note_off channel=2 note=69 velocity=95 time=0
EXTRACT: note_off channel=2 note=65 velocity=95 time=0
EXTRACT: note_off channel=2 note=62 velocity=95 time=0
EXTRACT: note_off channel=2 note=57 velocity=95 time=0
EXTRACT: note_off channel=2 note=50 velocity=95 time=0
EXTRACT: note_off channel=2 note=45 velocity=95 time=0
EXTRACT: note_on channel=2 note=69 velocity=95 time=0
EXTRACT: note_on channel=2 note=65 velocity=95 time=0
EXTRACT: note_on channel=2 note=62 velocity=95 time=0
EXTRACT: note_on channel=2 note=57 velocity=95 time=0
EXTRACT: note_on channel=2 note=50 velocity=95 time=0
EXTRACT: note_on channel=2 note=45 velocity=95 time=0
EXTRACT: note_off channel=11 note=55 velocity=95 time=0
EXTRACT: note_on channel=11 note=53 velocity=95 time=0
EXTRACT: note_off channel=0 note=69 velocity=95 time=0.39999999999999997
EXTRACT: note_off channel=0 note=65 velocity=95 time=0
EXTRACT: note_off channel=0 note=62 velocity=95 time=0
EXTRACT: note_off channel=0 note=57 velocity=95 time=0
EXTRACT: note_off channel=0 note=50 velocity=95 time=0
EXTRACT: note_off channel=0 note=45 velocity=95 time=0
EXTRACT: note_on channel=0 note=69 velocity=95 time=0
EXTRACT: note_on channel=0 note=65 velocity=95 time=0
EXTRACT: note_on channel=0 note=62 velocity=95 time=0
EXTRACT: note_on channel=0 note=57 velocity=95 time=0
EXTRACT: note_on channel=0 note=50 velocity=95 time=0
EXTRACT: note_on channel=0 note=45 velocity=95 time=0
EXTRACT: note_off channel=2 note=69 velocity=95 time=0
EXTRACT: note_off channel=2 note=65 velocity=95 time=0
EXTRACT: note_off channel=2 note=62 velocity=95 time=0
EXTRACT: note_off channel=2 note=57 velocity=95 time=0
EXTRACT: note_off channel=2 note=50 velocity=95 time=0
EXTRACT: note_off channel=2 note=45 velocity=95 time=0
EXTRACT: note_on channel=2 note=69 velocity=95 time=0
EXTRACT: note_on channel=2 note=65 velocity=95 time=0
EXTRACT: note_on channel=2 note=62 velocity=95 time=0
EXTRACT: note_on channel=2 note=57 velocity=95 time=0
EXTRACT: note_on channel=2 note=50 velocity=95 time=0
EXTRACT: note_on channel=2 note=45 velocity=95 time=0
EXTRACT: note_off channel=11 note=53 velocity=95 time=0
EXTRACT: note_on channel=11 note=60 velocity=95 time=0
EXTRACT: note_off channel=0 note=69 velocity=95 time=0.39999999999999997
EXTRACT: note_off channel=0 note=65 velocity=95 time=0
EXTRACT: note_off channel=0 note=62 velocity=95 time=0
EXTRACT: note_off channel=0 note=57 velocity=95 time=0
EXTRACT: note_off channel=0 note=50 velocity=95 time=0
EXTRACT: note_off channel=0 note=45 velocity=95 time=0
EXTRACT: note_on channel=0 note=70 velocity=95 time=0
EXTRACT: note_on channel=0 note=65 velocity=95 time=0
EXTRACT: note_on channel=0 note=62 velocity=95 time=0
EXTRACT: note_on channel=0 note=58 velocity=95 time=0
EXTRACT: note_on channel=0 note=53 velocity=95 time=0
EXTRACT: note_on channel=0 note=46 velocity=95 time=0
EXTRACT: note_off channel=2 note=69 velocity=95 time=0
EXTRACT: note_off channel=2 note=65 velocity=95 time=0
EXTRACT: note_off channel=2 note=62 velocity=95 time=0
EXTRACT: note_off channel=2 note=57 velocity=95 time=0
EXTRACT: note_off channel=2 note=50 velocity=95 time=0
EXTRACT: note_off channel=2 note=45 velocity=95 time=0
EXTRACT: note_on channel=2 note=70 velocity=95 time=0
EXTRACT: note_on channel=2 note=65 velocity=95 time=0
EXTRACT: note_on channel=2 note=62 velocity=95 time=0
EXTRACT: note_on channel=2 note=58 velocity=95 time=0
EXTRACT: note_on channel=2 note=53 velocity=95 time=0
EXTRACT: note_on channel=2 note=46 velocity=95 time=0
EXTRACT: note_off channel=6 note=50 velocity=95 time=0
EXTRACT: note_on channel=6 note=46 velocity=95 time=0
EXTRACT: note_off channel=0 note=70 velocity=95 time=0.39999999999999997
EXTRACT: note_off channel=0 note=65 velocity=95 time=0
EXTRACT: note_off channel=0 note=62 velocity=95 time=0
EXTRACT: note_off channel=0 note=58 velocity=95 time=0
EXTRACT: note_off channel=0 note=53 velocity=95 time=0
EXTRACT: note_off channel=0 note=46 velocity=95 time=0
EXTRACT: note_on channel=0 note=70 velocity=95 time=0
EXTRACT: note_on channel=0 note=65 velocity=95 time=0
EXTRACT: note_on channel=0 note=62 velocity=95 time=0
EXTRACT: note_on channel=0 note=58 velocity=95 time=0
EXTRACT: note_on channel=0 note=53 velocity=95 time=0
EXTRACT: note_on channel=0 note=46 velocity=95 time=0
EXTRACT: note_off channel=2 note=70 velocity=95 time=0
EXTRACT: note_off channel=2 note=65 velocity=95 time=0
EXTRACT: note_off channel=2 note=62 velocity=95 time=0
EXTRACT: note_off channel=2 note=58 velocity=95 time=0
EXTRACT: note_off channel=2 note=53 velocity=95 time=0
EXTRACT: note_off channel=2 note=46 velocity=95 time=0
EXTRACT: note_on channel=2 note=70 velocity=95 time=0
EXTRACT: note_on channel=2 note=65 velocity=95 time=0
EXTRACT: note_on channel=2 note=62 velocity=95 time=0
EXTRACT: note_on channel=2 note=58 velocity=95 time=0
EXTRACT: note_on channel=2 note=53 velocity=95 time=0
EXTRACT: note_on channel=2 note=46 velocity=95 time=0
EXTRACT: note_off channel=11 note=60 velocity=95 time=0
EXTRACT: note_on channel=11 note=57 velocity=95 time=0
EXTRACT: note_off channel=0 note=70 velocity=95 time=0.39999999999999997
EXTRACT: note_off channel=0 note=65 velocity=95 time=0
EXTRACT: note_off channel=0 note=62 velocity=95 time=0
EXTRACT: note_off channel=0 note=58 velocity=95 time=0
EXTRACT: note_off channel=0 note=53 velocity=95 time=0
EXTRACT: note_off channel=0 note=46 velocity=95 time=0
EXTRACT: note_on channel=0 note=70 velocity=95 time=0
EXTRACT: note_on channel=0 note=65 velocity=95 time=0
EXTRACT: note_on channel=0 note=62 velocity=95 time=0
EXTRACT: note_on channel=0 note=58 velocity=95 time=0
EXTRACT: note_on channel=0 note=53 velocity=95 time=0
EXTRACT: note_on channel=0 note=46 velocity=95 time=0
EXTRACT: note_off channel=2 note=70 velocity=95 time=0
EXTRACT: note_off channel=2 note=65 velocity=95 time=0
EXTRACT: note_off channel=2 note=62 velocity=95 time=0
EXTRACT: note_off channel=2 note=58 velocity=95 time=0
EXTRACT: note_off channel=2 note=53 velocity=95 time=0
EXTRACT: note_off channel=2 note=46 velocity=95 time=0
EXTRACT: note_on channel=2 note=70 velocity=95 time=0
EXTRACT: note_on channel=2 note=65 velocity=95 time=0
EXTRACT: note_on channel=2 note=62 velocity=95 time=0
EXTRACT: note_on channel=2 note=58 velocity=95 time=0
EXTRACT: note_on channel=2 note=53 velocity=95 time=0
EXTRACT: note_on channel=2 note=46 velocity=95 time=0
EXTRACT: note_off channel=0 note=70 velocity=95 time=0.39999999999999997
EXTRACT: note_off channel=0 note=65 velocity=95 time=0
EXTRACT: note_off channel=0 note=62 velocity=95 time=0
EXTRACT: note_off channel=0 note=58 velocity=95 time=0
EXTRACT: note_off channel=0 note=53 velocity=95 time=0
EXTRACT: note_off channel=0 note=46 velocity=95 time=0
EXTRACT: note_on channel=0 note=70 velocity=95 time=0
EXTRACT: note_on channel=0 note=65 velocity=95 time=0
EXTRACT: note_on channel=0 note=62 velocity=95 time=0
EXTRACT: note_on channel=0 note=58 velocity=95 time=0
EXTRACT: note_on channel=0 note=53 velocity=95 time=0
EXTRACT: note_on channel=0 note=46 velocity=95 time=0
EXTRACT: note_off channel=2 note=70 velocity=95 time=0
EXTRACT: note_off channel=2 note=65 velocity=95 time=0
EXTRACT: note_off channel=2 note=62 velocity=95 time=0
EXTRACT: note_off channel=2 note=58 velocity=95 time=0
EXTRACT: note_off channel=2 note=53 velocity=95 time=0
EXTRACT: note_off channel=2 note=46 velocity=95 time=0
EXTRACT: note_on channel=2 note=70 velocity=95 time=0
EXTRACT: note_on channel=2 note=65 velocity=95 time=0
EXTRACT: note_on channel=2 note=62 velocity=95 time=0
EXTRACT: note_on channel=2 note=58 velocity=95 time=0
EXTRACT: note_on channel=2 note=53 velocity=95 time=0
EXTRACT: note_on channel=2 note=46 velocity=95 time=0
EXTRACT: note_off channel=0 note=70 velocity=95 time=0.39999999999999997
EXTRACT: note_off channel=0 note=65 velocity=95 time=0
EXTRACT: note_off channel=0 note=62 velocity=95 time=0
EXTRACT: note_off channel=0 note=58 velocity=95 time=0
EXTRACT: note_off channel=0 note=53 velocity=95 time=0
EXTRACT: note_off channel=0 note=46 velocity=95 time=0
EXTRACT: note_on channel=0 note=70 velocity=95 time=0
EXTRACT: note_on channel=0 note=65 velocity=95 time=0
EXTRACT: note_on channel=0 note=62 velocity=95 time=0
EXTRACT: note_on channel=0 note=58 velocity=95 time=0
EXTRACT: note_on channel=0 note=53 velocity=95 time=0
EXTRACT: note_on channel=0 note=46 velocity=95 time=0
EXTRACT: note_off channel=2 note=70 velocity=95 time=0
EXTRACT: note_off channel=2 note=65 velocity=95 time=0
EXTRACT: note_off channel=2 note=62 velocity=95 time=0
EXTRACT: note_off channel=2 note=58 velocity=95 time=0
EXTRACT: note_off channel=2 note=53 velocity=95 time=0
EXTRACT: note_off channel=2 note=46 velocity=95 time=0
EXTRACT: note_on channel=2 note=70 velocity=95 time=0
EXTRACT: note_on channel=2 note=65 velocity=95 time=0
EXTRACT: note_on channel=2 note=62 velocity=95 time=0
EXTRACT: note_on channel=2 note=58 velocity=95 time=0
EXTRACT: note_on channel=2 note=53 velocity=95 time=0
EXTRACT: note_on channel=2 note=46 velocity=95 time=0
EXTRACT: note_off channel=6 note=46 velocity=95 time=0
EXTRACT: note_on channel=6 note=46 velocity=95 time=0
EXTRACT: note_off channel=11 note=57 velocity=95 time=0
EXTRACT: note_on channel=11 note=53 velocity=95 time=0
EXTRACT: note_off channel=0 note=70 velocity=95 time=0.39999999999999997
EXTRACT: note_off channel=0 note=65 velocity=95 time=0
EXTRACT: note_off channel=0 note=62 velocity=95 time=0
EXTRACT: note_off channel=0 note=58 velocity=95 time=0
EXTRACT: note_off channel=0 note=53 velocity=95 time=0
EXTRACT: note_off channel=0 note=46 velocity=95 time=0
EXTRACT: note_on channel=0 note=70 velocity=95 time=0
EXTRACT: note_on channel=0 note=65 velocity=95 time=0
EXTRACT: note_on channel=0 note=62 velocity=95 time=0
EXTRACT: note_on channel=0 note=58 velocity=95 time=0
EXTRACT: note_on channel=0 note=53 velocity=95 time=0
EXTRACT: note_on channel=0 note=46 velocity=95 time=0
EXTRACT: note_off channel=2 note=70 velocity=95 time=0
EXTRACT: note_off channel=2 note=65 velocity=95 time=0
EXTRACT: note_off channel=2 note=62 velocity=95 time=0
EXTRACT: note_off channel=2 note=58 velocity=95 time=0
EXTRACT: note_off channel=2 note=53 velocity=95 time=0
EXTRACT: note_off channel=2 note=46 velocity=95 time=0
EXTRACT: note_on channel=2 note=70 velocity=95 time=0
EXTRACT: note_on channel=2 note=65 velocity=95 time=0
EXTRACT: note_on channel=2 note=62 velocity=95 time=0
EXTRACT: note_on channel=2 note=58 velocity=95 time=0
EXTRACT: note_on channel=2 note=53 velocity=95 time=0
EXTRACT: note_on channel=2 note=46 velocity=95 time=0
EXTRACT: note_off channel=11 note=53 velocity=95 time=0
EXTRACT: note_on channel=11 note=55 velocity=95 time=0
EXTRACT: note_off channel=0 note=70 velocity=95 time=0.39999999999999997
EXTRACT: note_off channel=0 note=65 velocity=95 time=0
EXTRACT: note_off channel=0 note=62 velocity=95 time=0
EXTRACT: note_off channel=0 note=58 velocity=95 time=0
EXTRACT: note_off channel=0 note=53 velocity=95 time=0
EXTRACT: note_off channel=0 note=46 velocity=95 time=0
EXTRACT: note_on channel=0 note=70 velocity=95 time=0
EXTRACT: note_on channel=0 note=65 velocity=95 time=0
EXTRACT: note_on channel=0 note=62 velocity=95 time=0
EXTRACT: note_on channel=0 note=58 velocity=95 time=0
EXTRACT: note_on channel=0 note=53 velocity=95 time=0
EXTRACT: note_on channel=0 note=46 velocity=95 time=0
EXTRACT: note_off channel=2 note=70 velocity=95 time=0
EXTRACT: note_off channel=2 note=65 velocity=95 time=0
EXTRACT: note_off channel=2 note=62 velocity=95 time=0
EXTRACT: note_off channel=2 note=58 velocity=95 time=0
EXTRACT: note_off channel=2 note=53 velocity=95 time=0
EXTRACT: note_off channel=2 note=46 velocity=95 time=0
EXTRACT: note_on channel=2 note=70 velocity=111 time=0
EXTRACT: note_off channel=11 note=55 velocity=95 time=0
EXTRACT: note_on channel=11 note=53 velocity=95 time=0
EXTRACT: note_off channel=0 note=70 velocity=95 time=0.39999999999999997
EXTRACT: note_off channel=0 note=65 velocity=95 time=0
EXTRACT: note_off channel=0 note=62 velocity=95 time=0
EXTRACT: note_off channel=0 note=58 velocity=95 time=0
EXTRACT: note_off channel=0 note=53 velocity=95 time=0
EXTRACT: note_off channel=0 note=46 velocity=95 time=0
EXTRACT: note_on channel=0 note=70 velocity=95 time=0
EXTRACT: note_on channel=0 note=65 velocity=95 time=0
EXTRACT: note_on channel=0 note=62 velocity=95 time=0
EXTRACT: note_on channel=0 note=58 velocity=95 time=0
EXTRACT: note_on channel=0 note=53 velocity=95 time=0
EXTRACT: note_on channel=0 note=46 velocity=95 time=0
EXTRACT: note_off channel=2 note=70 velocity=111 time=0
EXTRACT: note_on channel=2 note=72 velocity=111 time=0
EXTRACT: note_off channel=11 note=53 velocity=95 time=0
EXTRACT: note_on channel=11 note=60 velocity=95 time=0
EXTRACT: note_off channel=0 note=70 velocity=95 time=0.39999999999999997
EXTRACT: note_off channel=0 note=65 velocity=95 time=0
EXTRACT: note_off channel=0 note=62 velocity=95 time=0
EXTRACT: note_off channel=0 note=58 velocity=95 time=0
EXTRACT: note_off channel=0 note=53 velocity=95 time=0
EXTRACT: note_off channel=0 note=46 velocity=95 time=0
EXTRACT: note_on channel=0 note=69 velocity=95 time=0
EXTRACT: note_on channel=0 note=65 velocity=95 time=0
EXTRACT: note_on channel=0 note=60 velocity=95 time=0
EXTRACT: note_on channel=0 note=53 velocity=95 time=0
EXTRACT: note_on channel=0 note=48 velocity=95 time=0
EXTRACT: note_off channel=2 note=72 velocity=111 time=0
EXTRACT: note_on channel=2 note=69 velocity=95 time=0
EXTRACT: note_on channel=2 note=65 velocity=95 time=0
EXTRACT: note_on channel=2 note=60 velocity=95 time=0
EXTRACT: note_on channel=2 note=53 velocity=95 time=0
EXTRACT: note_on channel=2 note=48 velocity=95 time=0
EXTRACT: note_off channel=6 note=46 velocity=95 time=0
EXTRACT: note_on channel=6 note=41 velocity=95 time=0
EXTRACT: note_off channel=0 note=69 velocity=95 time=0.39999999999999997
EXTRACT: note_off channel=0 note=65 velocity=95 time=0
EXTRACT: note_off channel=0 note=60 velocity=95 time=0
EXTRACT: note_off channel=0 note=53 velocity=95 time=0
EXTRACT: note_off channel=0 note=48 velocity=95 time=0
EXTRACT: note_on channel=0 note=69 velocity=95 time=0
EXTRACT: note_on channel=0 note=65 velocity=95 time=0
EXTRACT: note_on channel=0 note=60 velocity=95 time=0
EXTRACT: note_on channel=0 note=53 velocity=95 time=0
EXTRACT: note_on channel=0 note=48 velocity=95 time=0
EXTRACT: note_off channel=2 note=69 velocity=95 time=0
EXTRACT: note_off channel=2 note=65 velocity=95 time=0
EXTRACT: note_off channel=2 note=60 velocity=95 time=0
EXTRACT: note_off channel=2 note=53 velocity=95 time=0
EXTRACT: note_off channel=2 note=48 velocity=95 time=0
EXTRACT: note_on channel=2 note=69 velocity=95 time=0
EXTRACT: note_on channel=2 note=65 velocity=95 time=0
EXTRACT: note_on channel=2 note=60 velocity=95 time=0
EXTRACT: note_on channel=2 note=53 velocity=95 time=0
EXTRACT: note_on channel=2 note=48 velocity=95 time=0
EXTRACT: note_off channel=11 note=60 velocity=95 time=0
EXTRACT: note_on channel=11 note=57 velocity=95 time=0
EXTRACT: note_off channel=0 note=69 velocity=95 time=0.39999999999999997
EXTRACT: note_off channel=0 note=65 velocity=95 time=0
EXTRACT: note_off channel=0 note=60 velocity=95 time=0
EXTRACT: note_off channel=0 note=53 velocity=95 time=0
EXTRACT: note_off channel=0 note=48 velocity=95 time=0
EXTRACT: note_on channel=0 note=69 velocity=95 time=0
EXTRACT: note_on channel=0 note=65 velocity=95 time=0
EXTRACT: note_on channel=0 note=60 velocity=95 time=0
EXTRACT: note_on channel=0 note=53 velocity=95 time=0
EXTRACT: note_on channel=0 note=48 velocity=95 time=0
EXTRACT: note_off channel=2 note=69 velocity=95 time=0
EXTRACT: note_off channel=2 note=65 velocity=95 time=0
EXTRACT: note_off channel=2 note=60 velocity=95 time=0
EXTRACT: note_off channel=2 note=53 velocity=95 time=0
EXTRACT: note_off channel=2 note=48 velocity=95 time=0
EXTRACT: note_on channel=2 note=69 velocity=95 time=0
EXTRACT: note_on channel=2 note=65 velocity=95 time=0
EXTRACT: note_on channel=2 note=60 velocity=95 time=0
EXTRACT: note_on channel=2 note=53 velocity=95 time=0
EXTRACT: note_on channel=2 note=48 velocity=95 time=0
EXTRACT: note_off channel=11 note=57 velocity=95 time=0
EXTRACT: note_off channel=0 note=69 velocity=95 time=0.39999999999999997
EXTRACT: note_off channel=0 note=65 velocity=95 time=0
EXTRACT: note_off channel=0 note=60 velocity=95 time=0
EXTRACT: note_off channel=0 note=53 velocity=95 time=0
EXTRACT: note_off channel=0 note=48 velocity=95 time=0
EXTRACT: note_on channel=0 note=69 velocity=95 time=0
EXTRACT: note_on channel=0 note=65 velocity=95 time=0
EXTRACT: note_on channel=0 note=60 velocity=95 time=0
EXTRACT: note_on channel=0 note=53 velocity=95 time=0
EXTRACT: note_on channel=0 note=48 velocity=95 time=0
EXTRACT: note_off channel=2 note=69 velocity=95 time=0
EXTRACT: note_off channel=2 note=65 velocity=95 time=0
EXTRACT: note_off channel=2 note=60 velocity=95 time=0
EXTRACT: note_off channel=2 note=53 velocity=95 time=0
EXTRACT: note_off channel=2 note=48 velocity=95 time=0
EXTRACT: note_on channel=2 note=69 velocity=95 time=0
EXTRACT: note_on channel=2 note=65 velocity=95 time=0
EXTRACT: note_on channel=2 note=60 velocity=95 time=0
EXTRACT: note_on channel=2 note=53 velocity=95 time=0
EXTRACT: note_on channel=2 note=48 velocity=95 time=0
EXTRACT: note_on channel=11 note=53 velocity=95 time=0.19999999999999998
EXTRACT: note_off channel=0 note=69 velocity=95 time=0.19999999999999998
EXTRACT: note_off channel=0 note=65 velocity=95 time=0
EXTRACT: note_off channel=0 note=60 velocity=95 time=0
EXTRACT: note_off channel=0 note=53 velocity=95 time=0
EXTRACT: note_off channel=0 note=48 velocity=95 time=0
EXTRACT: note_on channel=0 note=69 velocity=95 time=0
EXTRACT: note_on channel=0 note=65 velocity=95 time=0
EXTRACT: note_on channel=0 note=60 velocity=95 time=0
EXTRACT: note_on channel=0 note=53 velocity=95 time=0
EXTRACT: note_on channel=0 note=48 velocity=95 time=0
EXTRACT: note_off channel=2 note=69 velocity=95 time=0
EXTRACT: note_off channel=2 note=65 velocity=95 time=0
EXTRACT: note_off channel=2 note=60 velocity=95 time=0
EXTRACT: note_off channel=2 note=53 velocity=95 time=0
EXTRACT: note_off channel=2 note=48 velocity=95 time=0
EXTRACT: note_on channel=2 note=69 velocity=95 time=0
EXTRACT: note_on channel=2 note=65 velocity=95 time=0
EXTRACT: note_on channel=2 note=60 velocity=95 time=0
EXTRACT: note_on channel=2 note=53 velocity=95 time=0
EXTRACT: note_on channel=2 note=48 velocity=95 time=0
EXTRACT: note_off channel=6 note=41 velocity=95 time=0
EXTRACT: note_on channel=6 note=41 velocity=95 time=0
EXTRACT: note_off channel=11 note=53 velocity=95 time=0
EXTRACT: note_on channel=11 note=53 velocity=95 time=0
EXTRACT: note_off channel=0 note=69 velocity=95 time=0.39999999999999997
EXTRACT: note_off channel=0 note=65 velocity=95 time=0
EXTRACT: note_off channel=0 note=60 velocity=95 time=0
EXTRACT: note_off channel=0 note=53 velocity=95 time=0
EXTRACT: note_off channel=0 note=48 velocity=95 time=0
EXTRACT: note_on channel=0 note=69 velocity=95 time=0
EXTRACT: note_on channel=0 note=65 velocity=95 time=0
EXTRACT: note_on channel=0 note=60 velocity=95 time=0
EXTRACT: note_on channel=0 note=53 velocity=95 time=0
EXTRACT: note_on channel=0 note=48 velocity=95 time=0
EXTRACT: note_off channel=2 note=69 velocity=95 time=0
EXTRACT: note_off channel=2 note=65 velocity=95 time=0
EXTRACT: note_off channel=2 note=60 velocity=95 time=0
EXTRACT: note_off channel=2 note=53 velocity=95 time=0
EXTRACT: note_off channel=2 note=48 velocity=95 time=0
EXTRACT: note_on channel=2 note=69 velocity=95 time=0
EXTRACT: note_on channel=2 note=65 velocity=95 time=0
EXTRACT: note_on channel=2 note=60 velocity=95 time=0
EXTRACT: note_on channel=2 note=53 velocity=95 time=0
EXTRACT: note_on channel=2 note=48 velocity=95 time=0
EXTRACT: note_off channel=11 note=53 velocity=95 time=0
EXTRACT: note_on channel=11 note=55 velocity=95 time=0
EXTRACT: note_off channel=0 note=69 velocity=95 time=0.39999999999999997
EXTRACT: note_off channel=0 note=65 velocity=95 time=0
EXTRACT: note_off channel=0 note=60 velocity=95 time=0
EXTRACT: note_off channel=0 note=53 velocity=95 time=0
EXTRACT: note_off channel=0 note=48 velocity=95 time=0
EXTRACT: note_on channel=0 note=69 velocity=95 time=0
EXTRACT: note_on channel=0 note=65 velocity=95 time=0
EXTRACT: note_on channel=0 note=60 velocity=95 time=0
EXTRACT: note_on channel=0 note=53 velocity=95 time=0
EXTRACT: note_on channel=0 note=48 velocity=95 time=0
EXTRACT: note_off channel=2 note=69 velocity=95 time=0
EXTRACT: note_off channel=2 note=65 velocity=95 time=0
EXTRACT: note_off channel=2 note=60 velocity=95 time=0
EXTRACT: note_off channel=2 note=53 velocity=95 time=0
EXTRACT: note_off channel=2 note=48 velocity=95 time=0
EXTRACT: note_on channel=2 note=69 velocity=95 time=0
EXTRACT: note_on channel=2 note=65 velocity=95 time=0
EXTRACT: note_on channel=2 note=60 velocity=95 time=0
EXTRACT: note_on channel=2 note=53 velocity=95 time=0
EXTRACT: note_on channel=2 note=48 velocity=95 time=0
EXTRACT: note_off channel=11 note=55 velocity=95 time=0
EXTRACT: note_on channel=11 note=53 velocity=95 time=0
EXTRACT: note_off channel=0 note=69 velocity=95 time=0.39999999999999997
EXTRACT: note_off channel=0 note=65 velocity=95 time=0
EXTRACT: note_off channel=0 note=60 velocity=95 time=0
EXTRACT: note_off channel=0 note=53 velocity=95 time=0
EXTRACT: note_off channel=0 note=48 velocity=95 time=0
EXTRACT: note_on channel=0 note=69 velocity=95 time=0
EXTRACT: note_on channel=0 note=65 velocity=95 time=0
EXTRACT: note_on channel=0 note=60 velocity=95 time=0
EXTRACT: note_on channel=0 note=53 velocity=95 time=0
EXTRACT: note_on channel=0 note=48 velocity=95 time=0
EXTRACT: note_off channel=2 note=69 velocity=95 time=0
EXTRACT: note_off channel=2 note=65 velocity=95 time=0
EXTRACT: note_off channel=2 note=60 velocity=95 time=0
EXTRACT: note_off channel=2 note=53 velocity=95 time=0
EXTRACT: note_off channel=2 note=48 velocity=95 time=0
EXTRACT: note_on channel=2 note=69 velocity=95 time=0
EXTRACT: note_on channel=2 note=65 velocity=95 time=0
EXTRACT: note_on channel=2 note=60 velocity=95 time=0
EXTRACT: note_on channel=2 note=53 velocity=95 time=0
EXTRACT: note_on channel=2 note=48 velocity=95 time=0
EXTRACT: note_off channel=11 note=53 velocity=95 time=0
EXTRACT: note_on channel=11 note=57 velocity=95 time=0
EXTRACT: note_off channel=0 note=69 velocity=95 time=0.39999999999999997
EXTRACT: note_off channel=0 note=65 velocity=95 time=0
EXTRACT: note_off channel=0 note=60 velocity=95 time=0
EXTRACT: note_off channel=0 note=53 velocity=95 time=0
EXTRACT: note_off channel=0 note=48 velocity=95 time=0
EXTRACT: note_on channel=0 note=67 velocity=95 time=0
EXTRACT: note_on channel=0 note=65 velocity=95 time=0
EXTRACT: note_on channel=0 note=60 velocity=95 time=0
EXTRACT: note_on channel=0 note=53 velocity=95 time=0
EXTRACT: note_on channel=0 note=48 velocity=95 time=0
EXTRACT: note_off channel=2 note=69 velocity=95 time=0
EXTRACT: note_off channel=2 note=65 velocity=95 time=0
EXTRACT: note_off channel=2 note=60 velocity=95 time=0
EXTRACT: note_off channel=2 note=53 velocity=95 time=0
EXTRACT: note_off channel=2 note=48 velocity=95 time=0
EXTRACT: note_on channel=2 note=67 velocity=95 time=0
EXTRACT: note_on channel=2 note=65 velocity=95 time=0
EXTRACT: note_on channel=2 note=60 velocity=95 time=0
EXTRACT: note_on channel=2 note=53 velocity=95 time=0
EXTRACT: note_on channel=2 note=48 velocity=95 time=0
EXTRACT: note_off channel=6 note=41 velocity=95 time=0
EXTRACT: note_on channel=6 note=41 velocity=95 time=0
EXTRACT: note_off channel=0 note=67 velocity=95 time=0.39999999999999997
EXTRACT: note_off channel=0 note=65 velocity=95 time=0
EXTRACT: note_off channel=0 note=60 velocity=95 time=0
EXTRACT: note_off channel=0 note=53 velocity=95 time=0
EXTRACT: note_off channel=0 note=48 velocity=95 time=0
EXTRACT: note_on channel=0 note=67 velocity=95 time=0
EXTRACT: note_on channel=0 note=65 velocity=95 time=0
EXTRACT: note_on channel=0 note=60 velocity=95 time=0
EXTRACT: note_on channel=0 note=53 velocity=95 time=0
EXTRACT: note_on channel=0 note=48 velocity=95 time=0
EXTRACT: note_off channel=2 note=67 velocity=95 time=0
EXTRACT: note_off channel=2 note=65 velocity=95 time=0
EXTRACT: note_off channel=2 note=60 velocity=95 time=0
EXTRACT: note_off channel=2 note=53 velocity=95 time=0
EXTRACT: note_off channel=2 note=48 velocity=95 time=0
EXTRACT: note_on channel=2 note=67 velocity=95 time=0
EXTRACT: note_on channel=2 note=65 velocity=95 time=0
EXTRACT: note_on channel=2 note=60 velocity=95 time=0
EXTRACT: note_on channel=2 note=53 velocity=95 time=0
EXTRACT: note_on channel=2 note=48 velocity=95 time=0
EXTRACT: note_off channel=11 note=57 velocity=95 time=0
EXTRACT: note_on channel=11 note=57 velocity=95 time=0
EXTRACT: note_off channel=0 note=67 velocity=95 time=0.39999999999999997
EXTRACT: note_off channel=0 note=65 velocity=95 time=0
EXTRACT: note_off channel=0 note=60 velocity=95 time=0
EXTRACT: note_off channel=0 note=53 velocity=95 time=0
EXTRACT: note_off channel=0 note=48 velocity=95 time=0
EXTRACT: note_on channel=0 note=67 velocity=95 time=0
EXTRACT: note_on channel=0 note=65 velocity=95 time=0
EXTRACT: note_on channel=0 note=60 velocity=95 time=0
EXTRACT: note_on channel=0 note=53 velocity=95 time=0
EXTRACT: note_on channel=0 note=48 velocity=95 time=0
EXTRACT: note_off channel=2 note=67 velocity=95 time=0
EXTRACT: note_off channel=2 note=65 velocity=95 time=0
EXTRACT: note_off channel=2 note=60 velocity=95 time=0
EXTRACT: note_off channel=2 note=53 velocity=95 time=0
EXTRACT: note_off channel=2 note=48 velocity=95 time=0
EXTRACT: note_on channel=2 note=67 velocity=95 time=0
EXTRACT: note_on channel=2 note=65 velocity=95 time=0
EXTRACT: note_on channel=2 note=60 velocity=95 time=0
EXTRACT: note_on channel=2 note=53 velocity=95 time=0
EXTRACT: note_on channel=2 note=48 velocity=95 time=0
EXTRACT: note_off channel=0 note=67 velocity=95 time=0.39999999999999997
EXTRACT: note_off channel=0 note=65 velocity=95 time=0
EXTRACT: note_off channel=0 note=60 velocity=95 time=0
EXTRACT: note_off channel=0 note=53 velocity=95 time=0
EXTRACT: note_off channel=0 note=48 velocity=95 time=0
EXTRACT: note_on channel=0 note=67 velocity=95 time=0
EXTRACT: note_on channel=0 note=65 velocity=95 time=0
EXTRACT: note_on channel=0 note=60 velocity=95 time=0
EXTRACT: note_on channel=0 note=53 velocity=95 time=0
EXTRACT: note_on channel=0 note=48 velocity=95 time=0
EXTRACT: note_off channel=2 note=67 velocity=95 time=0
EXTRACT: note_off channel=2 note=65 velocity=95 time=0
EXTRACT: note_off channel=2 note=60 velocity=95 time=0
EXTRACT: note_off channel=2 note=53 velocity=95 time=0
EXTRACT: note_off channel=2 note=48 velocity=95 time=0
EXTRACT: note_on channel=2 note=67 velocity=95 time=0
EXTRACT: note_on channel=2 note=65 velocity=95 time=0
EXTRACT: note_on channel=2 note=60 velocity=95 time=0
EXTRACT: note_on channel=2 note=53 velocity=95 time=0
EXTRACT: note_on channel=2 note=48 velocity=95 time=0
EXTRACT: note_off channel=11 note=57 velocity=95 time=0
EXTRACT: note_on channel=11 note=57 velocity=95 time=0
EXTRACT: note_off channel=0 note=67 velocity=95 time=0.39999999999999997
EXTRACT: note_off channel=0 note=65 velocity=95 time=0
EXTRACT: note_off channel=0 note=60 velocity=95 time=0
EXTRACT: note_off channel=0 note=53 velocity=95 time=0
EXTRACT: note_off channel=0 note=48 velocity=95 time=0
EXTRACT: note_on channel=0 note=67 velocity=95 time=0
EXTRACT: note_on channel=0 note=65 velocity=95 time=0
EXTRACT: note_on channel=0 note=60 velocity=95 time=0
EXTRACT: note_on channel=0 note=53 velocity=95 time=0
EXTRACT: note_on channel=0 note=48 velocity=95 time=0
EXTRACT: note_off channel=2 note=67 velocity=95 time=0
EXTRACT: note_off channel=2 note=65 velocity=95 time=0
EXTRACT: note_off channel=2 note=60 velocity=95 time=0
EXTRACT: note_off channel=2 note=53 velocity=95 time=0
EXTRACT: note_off channel=2 note=48 velocity=95 time=0
EXTRACT: note_on channel=2 note=67 velocity=95 time=0
EXTRACT: note_on channel=2 note=65 velocity=95 time=0
EXTRACT: note_on channel=2 note=60 velocity=95 time=0
EXTRACT: note_on channel=2 note=53 velocity=95 time=0
EXTRACT: note_on channel=2 note=48 velocity=95 time=0
EXTRACT: note_off channel=6 note=41 velocity=95 time=0
EXTRACT: note_on channel=6 note=41 velocity=95 time=0
EXTRACT: note_off channel=0 note=67 velocity=95 time=0.39999999999999997
EXTRACT: note_off channel=0 note=65 velocity=95 time=0
EXTRACT: note_off channel=0 note=60 velocity=95 time=0
EXTRACT: note_off channel=0 note=53 velocity=95 time=0
EXTRACT: note_off channel=0 note=48 velocity=95 time=0
EXTRACT: note_on channel=0 note=67 velocity=95 time=0
EXTRACT: note_on channel=0 note=65 velocity=95 time=0
EXTRACT: note_on channel=0 note=60 velocity=95 time=0
EXTRACT: note_on channel=0 note=53 velocity=95 time=0
EXTRACT: note_on channel=0 note=48 velocity=95 time=0
EXTRACT: note_off channel=2 note=67 velocity=95 time=0
EXTRACT: note_off channel=2 note=65 velocity=95 time=0
EXTRACT: note_off channel=2 note=60 velocity=95 time=0
EXTRACT: note_off channel=2 note=53 velocity=95 time=0
EXTRACT: note_off channel=2 note=48 velocity=95 time=0
EXTRACT: note_on channel=2 note=67 velocity=95 time=0
EXTRACT: note_on channel=2 note=65 velocity=95 time=0
EXTRACT: note_on channel=2 note=60 velocity=95 time=0
EXTRACT: note_on channel=2 note=53 velocity=95 time=0
EXTRACT: note_on channel=2 note=48 velocity=95 time=0
EXTRACT: note_off channel=0 note=67 velocity=95 time=0.39999999999999997
EXTRACT: note_off channel=0 note=65 velocity=95 time=0
EXTRACT: note_off channel=0 note=60 velocity=95 time=0
EXTRACT: note_off channel=0 note=53 velocity=95 time=0
EXTRACT: note_off channel=0 note=48 velocity=95 time=0
EXTRACT: note_on channel=0 note=67 velocity=95 time=0
EXTRACT: note_on channel=0 note=65 velocity=95 time=0
EXTRACT: note_on channel=0 note=60 velocity=95 time=0
EXTRACT: note_on channel=0 note=53 velocity=95 time=0
EXTRACT: note_on channel=0 note=48 velocity=95 time=0
EXTRACT: note_off channel=2 note=67 velocity=95 time=0
EXTRACT: note_off channel=2 note=65 velocity=95 time=0
EXTRACT: note_off channel=2 note=60 velocity=95 time=0
EXTRACT: note_off channel=2 note=53 velocity=95 time=0
EXTRACT: note_off channel=2 note=48 velocity=95 time=0
EXTRACT: note_on channel=2 note=67 velocity=95 time=0
EXTRACT: note_on channel=2 note=65 velocity=95 time=0
EXTRACT: note_on channel=2 note=60 velocity=95 time=0
EXTRACT: note_on channel=2 note=53 velocity=95 time=0
EXTRACT: note_on channel=2 note=48 velocity=95 time=0
EXTRACT: note_off channel=11 note=57 velocity=95 time=0
EXTRACT: note_on channel=11 note=55 velocity=95 time=0
EXTRACT: note_off channel=0 note=67 velocity=95 time=0.39999999999999997
EXTRACT: note_off channel=0 note=65 velocity=95 time=0
EXTRACT: note_off channel=0 note=60 velocity=95 time=0
EXTRACT: note_off channel=0 note=53 velocity=95 time=0
EXTRACT: note_off channel=0 note=48 velocity=95 time=0
EXTRACT: note_on channel=0 note=67 velocity=95 time=0
EXTRACT: note_on channel=0 note=65 velocity=95 time=0
EXTRACT: note_on channel=0 note=60 velocity=95 time=0
EXTRACT: note_on channel=0 note=53 velocity=95 time=0
EXTRACT: note_on channel=0 note=48 velocity=95 time=0
EXTRACT: note_off channel=2 note=67 velocity=95 time=0
EXTRACT: note_off channel=2 note=65 velocity=95 time=0
EXTRACT: note_off channel=2 note=60 velocity=95 time=0
EXTRACT: note_off channel=2 note=53 velocity=95 time=0
EXTRACT: note_off channel=2 note=48 velocity=95 time=0
EXTRACT: note_on channel=2 note=67 velocity=95 time=0
EXTRACT: note_on channel=2 note=65 velocity=95 time=0
EXTRACT: note_on channel=2 note=60 velocity=95 time=0
EXTRACT: note_on channel=2 note=53 velocity=95 time=0
EXTRACT: note_on channel=2 note=48 velocity=95 time=0
EXTRACT: note_off channel=11 note=55 velocity=95 time=0
EXTRACT: note_on channel=11 note=53 velocity=95 time=0
EXTRACT: note_off channel=0 note=67 velocity=95 time=0.39999999999999997
EXTRACT: note_off channel=0 note=65 velocity=95 time=0
EXTRACT: note_off channel=0 note=60 velocity=95 time=0
EXTRACT: note_off channel=0 note=53 velocity=95 time=0
EXTRACT: note_off channel=0 note=48 velocity=95 time=0
EXTRACT: note_on channel=0 note=69 velocity=95 time=0
EXTRACT: note_on channel=0 note=65 velocity=95 time=0
EXTRACT: note_on channel=0 note=62 velocity=95 time=0
EXTRACT: note_on channel=0 note=57 velocity=95 time=0
EXTRACT: note_on channel=0 note=50 velocity=95 time=0
EXTRACT: note_on channel=0 note=45 velocity=95 time=0
EXTRACT: note_off channel=2 note=67 velocity=95 time=0
EXTRACT: note_off channel=2 note=65 velocity=95 time=0
EXTRACT: note_off channel=2 note=60 velocity=95 time=0
EXTRACT: note_off channel=2 note=53 velocity=95 time=0
EXTRACT: note_off channel=2 note=48 velocity=95 time=0
EXTRACT: note_on channel=2 note=69 velocity=95 time=0
EXTRACT: note_on channel=2 note=65 velocity=95 time=0
EXTRACT: note_on channel=2 note=62 velocity=95 time=0
EXTRACT: note_on channel=2 note=57 velocity=95 time=0
EXTRACT: note_on channel=2 note=50 velocity=95 time=0
EXTRACT: note_on channel=2 note=45 velocity=95 time=0
EXTRACT: note_off channel=6 note=41 velocity=95 time=0
EXTRACT: note_on channel=6 note=50 velocity=95 time=0
EXTRACT: note_off channel=11 note=53 velocity=95 time=0
EXTRACT: note_off channel=0 note=69 velocity=95 time=0.39999999999999997
EXTRACT: note_off channel=0 note=65 velocity=95 time=0
EXTRACT: note_off channel=0 note=62 velocity=95 time=0
EXTRACT: note_off channel=0 note=57 velocity=95 time=0
EXTRACT: note_off channel=0 note=50 velocity=95 time=0
EXTRACT: note_off channel=0 note=45 velocity=95 time=0
EXTRACT: note_on channel=0 note=69 velocity=95 time=0
EXTRACT: note_on channel=0 note=65 velocity=95 time=0
EXTRACT: note_on channel=0 note=62 velocity=95 time=0
EXTRACT: note_on channel=0 note=57 velocity=95 time=0
EXTRACT: note_on channel=0 note=50 velocity=95 time=0
EXTRACT: note_on channel=0 note=45 velocity=95 time=0
EXTRACT: note_off channel=2 note=69 velocity=95 time=0
EXTRACT: note_off channel=2 note=65 velocity=95 time=0
EXTRACT: note_off channel=2 note=62 velocity=95 time=0
EXTRACT: note_off channel=2 note=57 velocity=95 time=0
EXTRACT: note_off channel=2 note=50 velocity=95 time=0
EXTRACT: note_off channel=2 note=45 velocity=95 time=0
EXTRACT: note_on channel=2 note=69 velocity=95 time=0
EXTRACT: note_on channel=2 note=65 velocity=95 time=0
EXTRACT: note_on channel=2 note=62 velocity=95 time=0
EXTRACT: note_on channel=2 note=57 velocity=95 time=0
EXTRACT: note_on channel=2 note=50 velocity=95 time=0
EXTRACT: note_on channel=2 note=45 velocity=95 time=0
EXTRACT: note_off channel=0 note=69 velocity=95 time=0.39999999999999997
EXTRACT: note_off channel=0 note=65 velocity=95 time=0
EXTRACT: note_off channel=0 note=62 velocity=95 time=0
EXTRACT: note_off channel=0 note=57 velocity=95 time=0
EXTRACT: note_off channel=0 note=50 velocity=95 time=0
EXTRACT: note_off channel=0 note=45 velocity=95 time=0
EXTRACT: note_on channel=0 note=69 velocity=95 time=0
EXTRACT: note_on channel=0 note=65 velocity=95 time=0
EXTRACT: note_on channel=0 note=62 velocity=95 time=0
EXTRACT: note_on channel=0 note=57 velocity=95 time=0
EXTRACT: note_on channel=0 note=50 velocity=95 time=0
EXTRACT: note_on channel=0 note=45 velocity=95 time=0
EXTRACT: note_off channel=2 note=69 velocity=95 time=0
EXTRACT: note_off channel=2 note=65 velocity=95 time=0
EXTRACT: note_off channel=2 note=62 velocity=95 time=0
EXTRACT: note_off channel=2 note=57 velocity=95 time=0
EXTRACT: note_off channel=2 note=50 velocity=95 time=0
EXTRACT: note_off channel=2 note=45 velocity=95 time=0
EXTRACT: note_on channel=2 note=69 velocity=95 time=0
EXTRACT: note_on channel=2 note=65 velocity=95 time=0
EXTRACT: note_on channel=2 note=62 velocity=95 time=0
EXTRACT: note_on channel=2 note=57 velocity=95 time=0
EXTRACT: note_on channel=2 note=50 velocity=95 time=0
EXTRACT: note_on channel=2 note=45 velocity=95 time=0
EXTRACT: note_off channel=0 note=69 velocity=95 time=0.39999999999999997
EXTRACT: note_off channel=0 note=65 velocity=95 time=0
EXTRACT: note_off channel=0 note=62 velocity=95 time=0
EXTRACT: note_off channel=0 note=57 velocity=95 time=0
EXTRACT: note_off channel=0 note=50 velocity=95 time=0
EXTRACT: note_off channel=0 note=45 velocity=95 time=0
EXTRACT: note_on channel=0 note=69 velocity=95 time=0
EXTRACT: note_on channel=0 note=65 velocity=95 time=0
EXTRACT: note_on channel=0 note=62 velocity=95 time=0
EXTRACT: note_on channel=0 note=57 velocity=95 time=0
EXTRACT: note_on channel=0 note=50 velocity=95 time=0
EXTRACT: note_on channel=0 note=45 velocity=95 time=0
EXTRACT: note_off channel=2 note=69 velocity=95 time=0
EXTRACT: note_off channel=2 note=65 velocity=95 time=0
EXTRACT: note_off channel=2 note=62 velocity=95 time=0
EXTRACT: note_off channel=2 note=57 velocity=95 time=0
EXTRACT: note_off channel=2 note=50 velocity=95 time=0
EXTRACT: note_off channel=2 note=45 velocity=95 time=0
EXTRACT: note_on channel=2 note=69 velocity=95 time=0
EXTRACT: note_on channel=2 note=65 velocity=95 time=0
EXTRACT: note_on channel=2 note=62 velocity=95 time=0
EXTRACT: note_on channel=2 note=57 velocity=95 time=0
EXTRACT: note_on channel=2 note=50 velocity=95 time=0
EXTRACT: note_on channel=2 note=45 velocity=95 time=0
EXTRACT: note_off channel=0 note=69 velocity=95 time=0.39999999999999997
EXTRACT: note_off channel=0 note=65 velocity=95 time=0
EXTRACT: note_off channel=0 note=62 velocity=95 time=0
EXTRACT: note_off channel=0 note=57 velocity=95 time=0
EXTRACT: note_off channel=0 note=50 velocity=95 time=0
EXTRACT: note_off channel=0 note=45 velocity=95 time=0
EXTRACT: note_on channel=0 note=69 velocity=95 time=0
EXTRACT: note_on channel=0 note=65 velocity=95 time=0
EXTRACT: note_on channel=0 note=62 velocity=95 time=0
EXTRACT: note_on channel=0 note=57 velocity=95 time=0
EXTRACT: note_on channel=0 note=50 velocity=95 time=0
EXTRACT: note_on channel=0 note=45 velocity=95 time=0
EXTRACT: note_off channel=2 note=69 velocity=95 time=0
EXTRACT: note_off channel=2 note=65 velocity=95 time=0
EXTRACT: note_off channel=2 note=62 velocity=95 time=0
EXTRACT: note_off channel=2 note=57 velocity=95 time=0
EXTRACT: note_off channel=2 note=50 velocity=95 time=0
EXTRACT: note_off channel=2 note=45 velocity=95 time=0
EXTRACT: note_on channel=2 note=69 velocity=95 time=0
EXTRACT: note_on channel=2 note=65 velocity=95 time=0
EXTRACT: note_on channel=2 note=62 velocity=95 time=0
EXTRACT: note_on channel=2 note=57 velocity=95 time=0
EXTRACT: note_on channel=2 note=50 velocity=95 time=0
EXTRACT: note_on channel=2 note=45 velocity=95 time=0
EXTRACT: note_off channel=6 note=50 velocity=95 time=0
EXTRACT: note_on channel=6 note=50 velocity=95 time=0
EXTRACT: note_on channel=11 note=53 velocity=95 time=0
EXTRACT: note_off channel=0 note=69 velocity=95 time=0.39999999999999997
EXTRACT: note_off channel=0 note=65 velocity=95 time=0
EXTRACT: note_off channel=0 note=62 velocity=95 time=0
EXTRACT: note_off channel=0 note=57 velocity=95 time=0
EXTRACT: note_off channel=0 note=50 velocity=95 time=0
EXTRACT: note_off channel=0 note=45 velocity=95 time=0
EXTRACT: note_on channel=0 note=69 velocity=95 time=0
EXTRACT: note_on channel=0 note=65 velocity=95 time=0
EXTRACT: note_on channel=0 note=62 velocity=95 time=0
EXTRACT: note_on channel=0 note=57 velocity=95 time=0
EXTRACT: note_on channel=0 note=50 velocity=95 time=0
EXTRACT: note_on channel=0 note=45 velocity=95 time=0
EXTRACT: note_off channel=2 note=69 velocity=95 time=0
EXTRACT: note_off channel=2 note=65 velocity=95 time=0
EXTRACT: note_off channel=2 note=62 velocity=95 time=0
EXTRACT: note_off channel=2 note=57 velocity=95 time=0
EXTRACT: note_off channel=2 note=50 velocity=95 time=0
EXTRACT: note_off channel=2 note=45 velocity=95 time=0
EXTRACT: note_on channel=2 note=69 velocity=95 time=0
EXTRACT: note_on channel=2 note=65 velocity=95 time=0
EXTRACT: note_on channel=2 note=62 velocity=95 time=0
EXTRACT: note_on channel=2 note=57 velocity=95 time=0
EXTRACT: note_on channel=2 note=50 velocity=95 time=0
EXTRACT: note_on channel=2 note=45 velocity=95 time=0
EXTRACT: note_off channel=11 note=53 velocity=95 time=0
EXTRACT: note_on channel=11 note=55 velocity=95 time=0
EXTRACT: note_off channel=0 note=69 velocity=95 time=0.39999999999999997
EXTRACT: note_off channel=0 note=65 velocity=95 time=0
EXTRACT: note_off channel=0 note=62 velocity=95 time=0
EXTRACT: note_off channel=0 note=57 velocity=95 time=0
EXTRACT: note_off channel=0 note=50 velocity=95 time=0
EXTRACT: note_off channel=0 note=45 velocity=95 time=0
EXTRACT: note_on channel=0 note=69 velocity=95 time=0
EXTRACT: note_on channel=0 note=65 velocity=95 time=0
EXTRACT: note_on channel=0 note=62 velocity=95 time=0
EXTRACT: note_on channel=0 note=57 velocity=95 time=0
EXTRACT: note_on channel=0 note=50 velocity=95 time=0
EXTRACT: note_on channel=0 note=45 velocity=95 time=0
EXTRACT: note_off channel=2 note=69 velocity=95 time=0
EXTRACT: note_off channel=2 note=65 velocity=95 time=0
EXTRACT: note_off channel=2 note=62 velocity=95 time=0
EXTRACT: note_off channel=2 note=57 velocity=95 time=0
EXTRACT: note_off channel=2 note=50 velocity=95 time=0
EXTRACT: note_off channel=2 note=45 velocity=95 time=0
EXTRACT: note_on channel=2 note=69 velocity=95 time=0
EXTRACT: note_on channel=2 note=65 velocity=95 time=0
EXTRACT: note_on channel=2 note=62 velocity=95 time=0
EXTRACT: note_on channel=2 note=57 velocity=95 time=0
EXTRACT: note_on channel=2 note=50 velocity=95 time=0
EXTRACT: note_on channel=2 note=45 velocity=95 time=0
EXTRACT: note_off channel=11 note=55 velocity=95 time=0
EXTRACT: note_on channel=11 note=53 velocity=95 time=0
EXTRACT: note_off channel=0 note=69 velocity=95 time=0.39999999999999997
EXTRACT: note_off channel=0 note=65 velocity=95 time=0
EXTRACT: note_off channel=0 note=62 velocity=95 time=0
EXTRACT: note_off channel=0 note=57 velocity=95 time=0
EXTRACT: note_off channel=0 note=50 velocity=95 time=0
EXTRACT: note_off channel=0 note=45 velocity=95 time=0
EXTRACT: note_on channel=0 note=69 velocity=95 time=0
EXTRACT: note_on channel=0 note=65 velocity=95 time=0
EXTRACT: note_on channel=0 note=62 velocity=95 time=0
EXTRACT: note_on channel=0 note=57 velocity=95 time=0
EXTRACT: note_on channel=0 note=50 velocity=95 time=0
EXTRACT: note_on channel=0 note=45 velocity=95 time=0
EXTRACT: note_off channel=2 note=69 velocity=95 time=0
EXTRACT: note_off channel=2 note=65 velocity=95 time=0
EXTRACT: note_off channel=2 note=62 velocity=95 time=0
EXTRACT: note_off channel=2 note=57 velocity=95 time=0
EXTRACT: note_off channel=2 note=50 velocity=95 time=0
EXTRACT: note_off channel=2 note=45 velocity=95 time=0
EXTRACT: note_on channel=2 note=69 velocity=95 time=0
EXTRACT: note_on channel=2 note=65 velocity=95 time=0
EXTRACT: note_on channel=2 note=62 velocity=95 time=0
EXTRACT: note_on channel=2 note=57 velocity=95 time=0
EXTRACT: note_on channel=2 note=50 velocity=95 time=0
EXTRACT: note_on channel=2 note=45 velocity=95 time=0
EXTRACT: note_off channel=11 note=53 velocity=95 time=0
EXTRACT: note_on channel=11 note=60 velocity=95 time=0
EXTRACT: note_off channel=0 note=69 velocity=95 time=0.39999999999999997
EXTRACT: note_off channel=0 note=65 velocity=95 time=0
EXTRACT: note_off channel=0 note=62 velocity=95 time=0
EXTRACT: note_off channel=0 note=57 velocity=95 time=0
EXTRACT: note_off channel=0 note=50 velocity=95 time=0
EXTRACT: note_off channel=0 note=45 velocity=95 time=0
EXTRACT: note_on channel=0 note=70 velocity=95 time=0
EXTRACT: note_on channel=0 note=65 velocity=95 time=0
EXTRACT: note_on channel=0 note=62 velocity=95 time=0
EXTRACT: note_on channel=0 note=58 velocity=95 time=0
EXTRACT: note_on channel=0 note=53 velocity=95 time=0
EXTRACT: note_on channel=0 note=46 velocity=95 time=0
EXTRACT: note_off channel=2 note=69 velocity=95 time=0
EXTRACT: note_off channel=2 note=65 velocity=95 time=0
EXTRACT: note_off channel=2 note=62 velocity=95 time=0
EXTRACT: note_off channel=2 note=57 velocity=95 time=0
EXTRACT: note_off channel=2 note=50 velocity=95 time=0
EXTRACT: note_off channel=2 note=45 velocity=95 time=0
EXTRACT: note_on channel=2 note=70 velocity=95 time=0
EXTRACT: note_on channel=2 note=65 velocity=95 time=0
EXTRACT: note_on channel=2 note=62 velocity=95 time=0
EXTRACT: note_on channel=2 note=58 velocity=95 time=0
EXTRACT: note_on channel=2 note=53 velocity=95 time=0
EXTRACT: note_on channel=2 note=46 velocity=95 time=0
EXTRACT: note_off channel=6 note=50 velocity=95 time=0
EXTRACT: note_on channel=6 note=46 velocity=95 time=0
EXTRACT: note_off channel=0 note=70 velocity=95 time=0.39999999999999997
EXTRACT: note_off channel=0 note=65 velocity=95 time=0
EXTRACT: note_off channel=0 note=62 velocity=95 time=0
EXTRACT: note_off channel=0 note=58 velocity=95 time=0
EXTRACT: note_off channel=0 note=53 velocity=95 time=0
EXTRACT: note_off channel=0 note=46 velocity=95 time=0
EXTRACT: note_on channel=0 note=70 velocity=95 time=0
EXTRACT: note_on channel=0 note=65 velocity=95 time=0
EXTRACT: note_on channel=0 note=62 velocity=95 time=0
EXTRACT: note_on channel=0 note=58 velocity=95 time=0
EXTRACT: note_on channel=0 note=53 velocity=95 time=0
EXTRACT: note_on channel=0 note=46 velocity=95 time=0
EXTRACT: note_off channel=2 note=70 velocity=95 time=0
EXTRACT: note_off channel=2 note=65 velocity=95 time=0
EXTRACT: note_off channel=2 note=62 velocity=95 time=0
EXTRACT: note_off channel=2 note=58 velocity=95 time=0
EXTRACT: note_off channel=2 note=53 velocity=95 time=0
EXTRACT: note_off channel=2 note=46 velocity=95 time=0
EXTRACT: note_on channel=2 note=70 velocity=95 time=0
EXTRACT: note_on channel=2 note=65 velocity=95 time=0
EXTRACT: note_on channel=2 note=62 velocity=95 time=0
EXTRACT: note_on channel=2 note=58 velocity=95 time=0
EXTRACT: note_on channel=2 note=53 velocity=95 time=0
EXTRACT: note_on channel=2 note=46 velocity=95 time=0
EXTRACT: note_off channel=11 note=60 velocity=95 time=0
EXTRACT: note_on channel=11 note=57 velocity=95 time=0
EXTRACT: note_off channel=0 note=70 velocity=95 time=0.39999999999999997
EXTRACT: note_off channel=0 note=65 velocity=95 time=0
EXTRACT: note_off channel=0 note=62 velocity=95 time=0
EXTRACT: note_off channel=0 note=58 velocity=95 time=0
EXTRACT: note_off channel=0 note=53 velocity=95 time=0
EXTRACT: note_off channel=0 note=46 velocity=95 time=0
EXTRACT: note_on channel=0 note=70 velocity=95 time=0
EXTRACT: note_on channel=0 note=65 velocity=95 time=0
EXTRACT: note_on channel=0 note=62 velocity=95 time=0
EXTRACT: note_on channel=0 note=58 velocity=95 time=0
EXTRACT: note_on channel=0 note=53 velocity=95 time=0
EXTRACT: note_on channel=0 note=46 velocity=95 time=0
EXTRACT: note_off channel=2 note=70 velocity=95 time=0
EXTRACT: note_off channel=2 note=65 velocity=95 time=0
EXTRACT: note_off channel=2 note=62 velocity=95 time=0
EXTRACT: note_off channel=2 note=58 velocity=95 time=0
EXTRACT: note_off channel=2 note=53 velocity=95 time=0
EXTRACT: note_off channel=2 note=46 velocity=95 time=0
EXTRACT: note_on channel=2 note=70 velocity=95 time=0
EXTRACT: note_on channel=2 note=65 velocity=95 time=0
EXTRACT: note_on channel=2 note=62 velocity=95 time=0
EXTRACT: note_on channel=2 note=58 velocity=95 time=0
EXTRACT: note_on channel=2 note=53 velocity=95 time=0
EXTRACT: note_on channel=2 note=46 velocity=95 time=0
EXTRACT: note_off channel=0 note=70 velocity=95 time=0.39999999999999997
EXTRACT: note_off channel=0 note=65 velocity=95 time=0
EXTRACT: note_off channel=0 note=62 velocity=95 time=0
EXTRACT: note_off channel=0 note=58 velocity=95 time=0
EXTRACT: note_off channel=0 note=53 velocity=95 time=0
EXTRACT: note_off channel=0 note=46 velocity=95 time=0
EXTRACT: note_on channel=0 note=70 velocity=95 time=0
EXTRACT: note_on channel=0 note=65 velocity=95 time=0
EXTRACT: note_on channel=0 note=62 velocity=95 time=0
EXTRACT: note_on channel=0 note=58 velocity=95 time=0
EXTRACT: note_on channel=0 note=53 velocity=95 time=0
EXTRACT: note_on channel=0 note=46 velocity=95 time=0
EXTRACT: note_off channel=2 note=70 velocity=95 time=0
EXTRACT: note_off channel=2 note=65 velocity=95 time=0
EXTRACT: note_off channel=2 note=62 velocity=95 time=0
EXTRACT: note_off channel=2 note=58 velocity=95 time=0
EXTRACT: note_off channel=2 note=53 velocity=95 time=0
EXTRACT: note_off channel=2 note=46 velocity=95 time=0
EXTRACT: note_on channel=2 note=70 velocity=95 time=0
EXTRACT: note_on channel=2 note=65 velocity=95 time=0
EXTRACT: note_on channel=2 note=62 velocity=95 time=0
EXTRACT: note_on channel=2 note=58 velocity=95 time=0
EXTRACT: note_on channel=2 note=53 velocity=95 time=0
EXTRACT: note_on channel=2 note=46 velocity=95 time=0
EXTRACT: note_off channel=0 note=70 velocity=95 time=0.39999999999999997
EXTRACT: note_off channel=0 note=65 velocity=95 time=0
EXTRACT: note_off channel=0 note=62 velocity=95 time=0
EXTRACT: note_off channel=0 note=58 velocity=95 time=0
EXTRACT: note_off channel=0 note=53 velocity=95 time=0
EXTRACT: note_off channel=0 note=46 velocity=95 time=0
EXTRACT: note_on channel=0 note=70 velocity=95 time=0
EXTRACT: note_on channel=0 note=65 velocity=95 time=0
EXTRACT: note_on channel=0 note=62 velocity=95 time=0
EXTRACT: note_on channel=0 note=58 velocity=95 time=0
EXTRACT: note_on channel=0 note=53 velocity=95 time=0
EXTRACT: note_on channel=0 note=46 velocity=95 time=0
EXTRACT: note_off channel=2 note=70 velocity=95 time=0
EXTRACT: note_off channel=2 note=65 velocity=95 time=0
EXTRACT: note_off channel=2 note=62 velocity=95 time=0
EXTRACT: note_off channel=2 note=58 velocity=95 time=0
EXTRACT: note_off channel=2 note=53 velocity=95 time=0
EXTRACT: note_off channel=2 note=46 velocity=95 time=0
EXTRACT: note_on channel=2 note=70 velocity=95 time=0
EXTRACT: note_on channel=2 note=65 velocity=95 time=0
EXTRACT: note_on channel=2 note=62 velocity=95 time=0
EXTRACT: note_on channel=2 note=58 velocity=95 time=0
EXTRACT: note_on channel=2 note=53 velocity=95 time=0
EXTRACT: note_on channel=2 note=46 velocity=95 time=0
EXTRACT: note_off channel=6 note=46 velocity=95 time=0
EXTRACT: note_on channel=6 note=46 velocity=95 time=0
EXTRACT: note_off channel=11 note=57 velocity=95 time=0
EXTRACT: note_on channel=11 note=53 velocity=95 time=0
EXTRACT: note_off channel=0 note=70 velocity=95 time=0.39999999999999997
EXTRACT: note_off channel=0 note=65 velocity=95 time=0
EXTRACT: note_off channel=0 note=62 velocity=95 time=0
EXTRACT: note_off channel=0 note=58 velocity=95 time=0
EXTRACT: note_off channel=0 note=53 velocity=95 time=0
EXTRACT: note_off channel=0 note=46 velocity=95 time=0
EXTRACT: note_on channel=0 note=70 velocity=95 time=0
EXTRACT: note_on channel=0 note=65 velocity=95 time=0
EXTRACT: note_on channel=0 note=62 velocity=95 time=0
EXTRACT: note_on channel=0 note=58 velocity=95 time=0
EXTRACT: note_on channel=0 note=53 velocity=95 time=0
EXTRACT: note_on channel=0 note=46 velocity=95 time=0
EXTRACT: note_off channel=2 note=70 velocity=95 time=0
EXTRACT: note_off channel=2 note=65 velocity=95 time=0
EXTRACT: note_off channel=2 note=62 velocity=95 time=0
EXTRACT: note_off channel=2 note=58 velocity=95 time=0
EXTRACT: note_off channel=2 note=53 velocity=95 time=0
EXTRACT: note_off channel=2 note=46 velocity=95 time=0
EXTRACT: note_on channel=2 note=70 velocity=95 time=0
EXTRACT: note_on channel=2 note=65 velocity=95 time=0
EXTRACT: note_on channel=2 note=62 velocity=95 time=0
EXTRACT: note_on channel=2 note=58 velocity=95 time=0
EXTRACT: note_on channel=2 note=53 velocity=95 time=0
EXTRACT: note_on channel=2 note=46 velocity=95 time=0
EXTRACT: note_off channel=11 note=53 velocity=95 time=0
EXTRACT: note_on channel=11 note=55 velocity=95 time=0
EXTRACT: note_off channel=0 note=70 velocity=95 time=0.39999999999999997
EXTRACT: note_off channel=0 note=65 velocity=95 time=0
EXTRACT: note_off channel=0 note=62 velocity=95 time=0
EXTRACT: note_off channel=0 note=58 velocity=95 time=0
EXTRACT: note_off channel=0 note=53 velocity=95 time=0
EXTRACT: note_off channel=0 note=46 velocity=95 time=0
EXTRACT: note_on channel=0 note=70 velocity=95 time=0
EXTRACT: note_on channel=0 note=65 velocity=95 time=0
EXTRACT: note_on channel=0 note=62 velocity=95 time=0
EXTRACT: note_on channel=0 note=58 velocity=95 time=0
EXTRACT: note_on channel=0 note=53 velocity=95 time=0
EXTRACT: note_on channel=0 note=46 velocity=95 time=0
EXTRACT: note_off channel=2 note=70 velocity=95 time=0
EXTRACT: note_off channel=2 note=65 velocity=95 time=0
EXTRACT: note_off channel=2 note=62 velocity=95 time=0
EXTRACT: note_off channel=2 note=58 velocity=95 time=0
EXTRACT: note_off channel=2 note=53 velocity=95 time=0
EXTRACT: note_off channel=2 note=46 velocity=95 time=0
EXTRACT: note_on channel=2 note=70 velocity=111 time=0
EXTRACT: note_off channel=11 note=55 velocity=95 time=0
EXTRACT: note_on channel=11 note=53 velocity=95 time=0
EXTRACT: note_off channel=0 note=70 velocity=95 time=0.39999999999999997
EXTRACT: note_off channel=0 note=65 velocity=95 time=0
EXTRACT: note_off channel=0 note=62 velocity=95 time=0
EXTRACT: note_off channel=0 note=58 velocity=95 time=0
EXTRACT: note_off channel=0 note=53 velocity=95 time=0
EXTRACT: note_off channel=0 note=46 velocity=95 time=0
EXTRACT: note_on channel=0 note=70 velocity=95 time=0
EXTRACT: note_on channel=0 note=65 velocity=95 time=0
EXTRACT: note_on channel=0 note=62 velocity=95 time=0
EXTRACT: note_on channel=0 note=58 velocity=95 time=0
EXTRACT: note_on channel=0 note=53 velocity=95 time=0
EXTRACT: note_on channel=0 note=46 velocity=95 time=0
EXTRACT: note_off channel=2 note=70 velocity=111 time=0
EXTRACT: note_on channel=2 note=72 velocity=111 time=0
EXTRACT: note_off channel=11 note=53 velocity=95 time=0
EXTRACT: note_on channel=11 note=60 velocity=95 time=0
EXTRACT: note_off channel=0 note=70 velocity=95 time=0.39999999999999997
EXTRACT: note_off channel=0 note=65 velocity=95 time=0
EXTRACT: note_off channel=0 note=62 velocity=95 time=0
EXTRACT: note_off channel=0 note=58 velocity=95 time=0
EXTRACT: note_off channel=0 note=53 velocity=95 time=0
EXTRACT: note_off channel=0 note=46 velocity=95 time=0
EXTRACT: note_on channel=0 note=69 velocity=95 time=0
EXTRACT: note_on channel=0 note=65 velocity=95 time=0
EXTRACT: note_on channel=0 note=60 velocity=95 time=0
EXTRACT: note_on channel=0 note=53 velocity=95 time=0
EXTRACT: note_on channel=0 note=48 velocity=95 time=0
EXTRACT: note_off channel=2 note=72 velocity=111 time=0
EXTRACT: note_on channel=2 note=69 velocity=95 time=0
EXTRACT: note_on channel=2 note=65 velocity=95 time=0
EXTRACT: note_on channel=2 note=60 velocity=95 time=0
EXTRACT: note_on channel=2 note=53 velocity=95 time=0
EXTRACT: note_on channel=2 note=48 velocity=95 time=0
EXTRACT: note_off channel=6 note=46 velocity=95 time=0
EXTRACT: note_on channel=6 note=41 velocity=95 time=0
EXTRACT: note_off channel=0 note=69 velocity=95 time=0.39999999999999997
EXTRACT: note_off channel=0 note=65 velocity=95 time=0
EXTRACT: note_off channel=0 note=60 velocity=95 time=0
EXTRACT: note_off channel=0 note=53 velocity=95 time=0
EXTRACT: note_off channel=0 note=48 velocity=95 time=0
EXTRACT: note_on channel=0 note=69 velocity=95 time=0
EXTRACT: note_on channel=0 note=65 velocity=95 time=0
EXTRACT: note_on channel=0 note=60 velocity=95 time=0
EXTRACT: note_on channel=0 note=53 velocity=95 time=0
EXTRACT: note_on channel=0 note=48 velocity=95 time=0
EXTRACT: note_off channel=2 note=69 velocity=95 time=0
EXTRACT: note_off channel=2 note=65 velocity=95 time=0
EXTRACT: note_off channel=2 note=60 velocity=95 time=0
EXTRACT: note_off channel=2 note=53 velocity=95 time=0
EXTRACT: note_off channel=2 note=48 velocity=95 time=0
EXTRACT: note_on channel=2 note=69 velocity=95 time=0
EXTRACT: note_on channel=2 note=65 velocity=95 time=0
EXTRACT: note_on channel=2 note=60 velocity=95 time=0
EXTRACT: note_on channel=2 note=53 velocity=95 time=0
EXTRACT: note_on channel=2 note=48 velocity=95 time=0
EXTRACT: note_off channel=11 note=60 velocity=95 time=0
EXTRACT: note_on channel=11 note=57 velocity=95 time=0
EXTRACT: note_off channel=0 note=69 velocity=95 time=0.39999999999999997
EXTRACT: note_off channel=0 note=65 velocity=95 time=0
EXTRACT: note_off channel=0 note=60 velocity=95 time=0
EXTRACT: note_off channel=0 note=53 velocity=95 time=0
EXTRACT: note_off channel=0 note=48 velocity=95 time=0
EXTRACT: note_on channel=0 note=69 velocity=95 time=0
EXTRACT: note_on channel=0 note=65 velocity=95 time=0
EXTRACT: note_on channel=0 note=60 velocity=95 time=0
EXTRACT: note_on channel=0 note=53 velocity=95 time=0
EXTRACT: note_on channel=0 note=48 velocity=95 time=0
EXTRACT: note_off channel=2 note=69 velocity=95 time=0
EXTRACT: note_off channel=2 note=65 velocity=95 time=0
EXTRACT: note_off channel=2 note=60 velocity=95 time=0
EXTRACT: note_off channel=2 note=53 velocity=95 time=0
EXTRACT: note_off channel=2 note=48 velocity=95 time=0
EXTRACT: note_on channel=2 note=69 velocity=95 time=0
EXTRACT: note_on channel=2 note=65 velocity=95 time=0
EXTRACT: note_on channel=2 note=60 velocity=95 time=0
EXTRACT: note_on channel=2 note=53 velocity=95 time=0
EXTRACT: note_on channel=2 note=48 velocity=95 time=0
EXTRACT: note_off channel=11 note=57 velocity=95 time=0
EXTRACT: note_off channel=0 note=69 velocity=95 time=0.39999999999999997
EXTRACT: note_off channel=0 note=65 velocity=95 time=0
EXTRACT: note_off channel=0 note=60 velocity=95 time=0
EXTRACT: note_off channel=0 note=53 velocity=95 time=0
EXTRACT: note_off channel=0 note=48 velocity=95 time=0
EXTRACT: note_on channel=0 note=69 velocity=95 time=0
EXTRACT: note_on channel=0 note=65 velocity=95 time=0
EXTRACT: note_on channel=0 note=60 velocity=95 time=0
EXTRACT: note_on channel=0 note=53 velocity=95 time=0
EXTRACT: note_on channel=0 note=48 velocity=95 time=0
EXTRACT: note_off channel=2 note=69 velocity=95 time=0
EXTRACT: note_off channel=2 note=65 velocity=95 time=0
EXTRACT: note_off channel=2 note=60 velocity=95 time=0
EXTRACT: note_off channel=2 note=53 velocity=95 time=0
EXTRACT: note_off channel=2 note=48 velocity=95 time=0
EXTRACT: note_on channel=2 note=69 velocity=95 time=0
EXTRACT: note_on channel=2 note=65 velocity=95 time=0
EXTRACT: note_on channel=2 note=60 velocity=95 time=0
EXTRACT: note_on channel=2 note=53 velocity=95 time=0
EXTRACT: note_on channel=2 note=48 velocity=95 time=0
EXTRACT: note_on channel=11 note=53 velocity=95 time=0.19999999999999998
EXTRACT: note_off channel=0 note=69 velocity=95 time=0.19999999999999998
EXTRACT: note_off channel=0 note=65 velocity=95 time=0
EXTRACT: note_off channel=0 note=60 velocity=95 time=0
EXTRACT: note_off channel=0 note=53 velocity=95 time=0
EXTRACT: note_off channel=0 note=48 velocity=95 time=0
EXTRACT: note_on channel=0 note=69 velocity=95 time=0
EXTRACT: note_on channel=0 note=65 velocity=95 time=0
EXTRACT: note_on channel=0 note=60 velocity=95 time=0
EXTRACT: note_on channel=0 note=53 velocity=95 time=0
EXTRACT: note_on channel=0 note=48 velocity=95 time=0
EXTRACT: note_off channel=2 note=69 velocity=95 time=0
EXTRACT: note_off channel=2 note=65 velocity=95 time=0
EXTRACT: note_off channel=2 note=60 velocity=95 time=0
EXTRACT: note_off channel=2 note=53 velocity=95 time=0
EXTRACT: note_off channel=2 note=48 velocity=95 time=0
EXTRACT: note_on channel=2 note=69 velocity=95 time=0
EXTRACT: note_on channel=2 note=65 velocity=95 time=0
EXTRACT: note_on channel=2 note=60 velocity=95 time=0
EXTRACT: note_on channel=2 note=53 velocity=95 time=0
EXTRACT: note_on channel=2 note=48 velocity=95 time=0
EXTRACT: note_off channel=6 note=41 velocity=95 time=0
EXTRACT: note_on channel=6 note=41 velocity=95 time=0
EXTRACT: note_off channel=11 note=53 velocity=95 time=0
EXTRACT: note_on channel=11 note=53 velocity=95 time=0
EXTRACT: note_off channel=0 note=69 velocity=95 time=0.39999999999999997
EXTRACT: note_off channel=0 note=65 velocity=95 time=0
EXTRACT: note_off channel=0 note=60 velocity=95 time=0
EXTRACT: note_off channel=0 note=53 velocity=95 time=0
EXTRACT: note_off channel=0 note=48 velocity=95 time=0
EXTRACT: note_on channel=0 note=69 velocity=95 time=0
EXTRACT: note_on channel=0 note=65 velocity=95 time=0
EXTRACT: note_on channel=0 note=60 velocity=95 time=0
EXTRACT: note_on channel=0 note=53 velocity=95 time=0
EXTRACT: note_on channel=0 note=48 velocity=95 time=0
EXTRACT: note_off channel=2 note=69 velocity=95 time=0
EXTRACT: note_off channel=2 note=65 velocity=95 time=0
EXTRACT: note_off channel=2 note=60 velocity=95 time=0
EXTRACT: note_off channel=2 note=53 velocity=95 time=0
EXTRACT: note_off channel=2 note=48 velocity=95 time=0
EXTRACT: note_on channel=2 note=69 velocity=95 time=0
EXTRACT: note_on channel=2 note=65 velocity=95 time=0
EXTRACT: note_on channel=2 note=60 velocity=95 time=0
EXTRACT: note_on channel=2 note=53 velocity=95 time=0
EXTRACT: note_on channel=2 note=48 velocity=95 time=0
EXTRACT: note_off channel=11 note=53 velocity=95 time=0
EXTRACT: note_on channel=11 note=55 velocity=95 time=0
EXTRACT: note_off channel=0 note=69 velocity=95 time=0.39999999999999997
EXTRACT: note_off channel=0 note=65 velocity=95 time=0
EXTRACT: note_off channel=0 note=60 velocity=95 time=0
EXTRACT: note_off channel=0 note=53 velocity=95 time=0
EXTRACT: note_off channel=0 note=48 velocity=95 time=0
EXTRACT: note_on channel=0 note=69 velocity=95 time=0
EXTRACT: note_on channel=0 note=65 velocity=95 time=0
EXTRACT: note_on channel=0 note=60 velocity=95 time=0
EXTRACT: note_on channel=0 note=53 velocity=95 time=0
EXTRACT: note_on channel=0 note=48 velocity=95 time=0
EXTRACT: note_off channel=2 note=69 velocity=95 time=0
EXTRACT: note_off channel=2 note=65 velocity=95 time=0
EXTRACT: note_off channel=2 note=60 velocity=95 time=0
EXTRACT: note_off channel=2 note=53 velocity=95 time=0
EXTRACT: note_off channel=2 note=48 velocity=95 time=0
EXTRACT: note_on channel=2 note=69 velocity=95 time=0
EXTRACT: note_on channel=2 note=65 velocity=95 time=0
EXTRACT: note_on channel=2 note=60 velocity=95 time=0
EXTRACT: note_on channel=2 note=53 velocity=95 time=0
EXTRACT: note_on channel=2 note=48 velocity=95 time=0
EXTRACT: note_off channel=11 note=55 velocity=95 time=0
EXTRACT: note_on channel=11 note=53 velocity=95 time=0
EXTRACT: note_off channel=0 note=69 velocity=95 time=0.39999999999999997
EXTRACT: note_off channel=0 note=65 velocity=95 time=0
EXTRACT: note_off channel=0 note=60 velocity=95 time=0
EXTRACT: note_off channel=0 note=53 velocity=95 time=0
EXTRACT: note_off channel=0 note=48 velocity=95 time=0
EXTRACT: note_on channel=0 note=69 velocity=95 time=0
EXTRACT: note_on channel=0 note=65 velocity=95 time=0
EXTRACT: note_on channel=0 note=60 velocity=95 time=0
EXTRACT: note_on channel=0 note=53 velocity=95 time=0
EXTRACT: note_on channel=0 note=48 velocity=95 time=0
EXTRACT: note_off channel=2 note=69 velocity=95 time=0
EXTRACT: note_off channel=2 note=65 velocity=95 time=0
EXTRACT: note_off channel=2 note=60 velocity=95 time=0
EXTRACT: note_off channel=2 note=53 velocity=95 time=0
EXTRACT: note_off channel=2 note=48 velocity=95 time=0
EXTRACT: note_on channel=2 note=69 velocity=95 time=0
EXTRACT: note_on channel=2 note=65 velocity=95 time=0
EXTRACT: note_on channel=2 note=60 velocity=95 time=0
EXTRACT: note_on channel=2 note=53 velocity=95 time=0
EXTRACT: note_on channel=2 note=48 velocity=95 time=0
EXTRACT: note_off channel=11 note=53 velocity=95 time=0
EXTRACT: note_on channel=11 note=57 velocity=95 time=0
EXTRACT: note_off channel=0 note=69 velocity=95 time=0.39999999999999997
EXTRACT: note_off channel=0 note=65 velocity=95 time=0
EXTRACT: note_off channel=0 note=60 velocity=95 time=0
EXTRACT: note_off channel=0 note=53 velocity=95 time=0
EXTRACT: note_off channel=0 note=48 velocity=95 time=0
EXTRACT: note_on channel=0 note=67 velocity=95 time=0
EXTRACT: note_on channel=0 note=65 velocity=95 time=0
EXTRACT: note_on channel=0 note=60 velocity=95 time=0
EXTRACT: note_on channel=0 note=53 velocity=95 time=0
EXTRACT: note_on channel=0 note=48 velocity=95 time=0
EXTRACT: note_off channel=2 note=69 velocity=95 time=0
EXTRACT: note_off channel=2 note=65 velocity=95 time=0
EXTRACT: note_off channel=2 note=60 velocity=95 time=0
EXTRACT: note_off channel=2 note=53 velocity=95 time=0
EXTRACT: note_off channel=2 note=48 velocity=95 time=0
EXTRACT: note_on channel=2 note=67 velocity=95 time=0
EXTRACT: note_on channel=2 note=65 velocity=95 time=0
EXTRACT: note_on channel=2 note=60 velocity=95 time=0
EXTRACT: note_on channel=2 note=53 velocity=95 time=0
EXTRACT: note_on channel=2 note=48 velocity=95 time=0
EXTRACT: note_off channel=6 note=41 velocity=95 time=0
EXTRACT: note_on channel=6 note=41 velocity=95 time=0
EXTRACT: note_off channel=0 note=67 velocity=95 time=0.39999999999999997
EXTRACT: note_off channel=0 note=65 velocity=95 time=0
EXTRACT: note_off channel=0 note=60 velocity=95 time=0
EXTRACT: note_off channel=0 note=53 velocity=95 time=0
EXTRACT: note_off channel=0 note=48 velocity=95 time=0
EXTRACT: note_on channel=0 note=67 velocity=95 time=0
EXTRACT: note_on channel=0 note=65 velocity=95 time=0
EXTRACT: note_on channel=0 note=60 velocity=95 time=0
EXTRACT: note_on channel=0 note=53 velocity=95 time=0
EXTRACT: note_on channel=0 note=48 velocity=95 time=0
EXTRACT: note_off channel=2 note=67 velocity=95 time=0
EXTRACT: note_off channel=2 note=65 velocity=95 time=0
EXTRACT: note_off channel=2 note=60 velocity=95 time=0
EXTRACT: note_off channel=2 note=53 velocity=95 time=0
EXTRACT: note_off channel=2 note=48 velocity=95 time=0
EXTRACT: note_on channel=2 note=67 velocity=95 time=0
EXTRACT: note_on channel=2 note=65 velocity=95 time=0
EXTRACT: note_on channel=2 note=60 velocity=95 time=0
EXTRACT: note_on channel=2 note=53 velocity=95 time=0
EXTRACT: note_on channel=2 note=48 velocity=95 time=0
EXTRACT: note_off channel=11 note=57 velocity=95 time=0
EXTRACT: note_on channel=11 note=57 velocity=95 time=0
EXTRACT: note_off channel=0 note=67 velocity=95 time=0.39999999999999997
EXTRACT: note_off channel=0 note=65 velocity=95 time=0
EXTRACT: note_off channel=0 note=60 velocity=95 time=0
EXTRACT: note_off channel=0 note=53 velocity=95 time=0
EXTRACT: note_off channel=0 note=48 velocity=95 time=0
EXTRACT: note_on channel=0 note=67 velocity=95 time=0
EXTRACT: note_on channel=0 note=65 velocity=95 time=0
EXTRACT: note_on channel=0 note=60 velocity=95 time=0
EXTRACT: note_on channel=0 note=53 velocity=95 time=0
EXTRACT: note_on channel=0 note=48 velocity=95 time=0
EXTRACT: note_off channel=2 note=67 velocity=95 time=0
EXTRACT: note_off channel=2 note=65 velocity=95 time=0
EXTRACT: note_off channel=2 note=60 velocity=95 time=0
EXTRACT: note_off channel=2 note=53 velocity=95 time=0
EXTRACT: note_off channel=2 note=48 velocity=95 time=0
EXTRACT: note_on channel=2 note=67 velocity=95 time=0
EXTRACT: note_on channel=2 note=65 velocity=95 time=0
EXTRACT: note_on channel=2 note=60 velocity=95 time=0
EXTRACT: note_on channel=2 note=53 velocity=95 time=0
EXTRACT: note_on channel=2 note=48 velocity=95 time=0
EXTRACT: note_off channel=0 note=67 velocity=95 time=0.39999999999999997
EXTRACT: note_off channel=0 note=65 velocity=95 time=0
EXTRACT: note_off channel=0 note=60 velocity=95 time=0
EXTRACT: note_off channel=0 note=53 velocity=95 time=0
EXTRACT: note_off channel=0 note=48 velocity=95 time=0
EXTRACT: note_on channel=0 note=67 velocity=95 time=0
EXTRACT: note_on channel=0 note=65 velocity=95 time=0
EXTRACT: note_on channel=0 note=60 velocity=95 time=0
EXTRACT: note_on channel=0 note=53 velocity=95 time=0
EXTRACT: note_on channel=0 note=48 velocity=95 time=0
EXTRACT: note_off channel=2 note=67 velocity=95 time=0
EXTRACT: note_off channel=2 note=65 velocity=95 time=0
EXTRACT: note_off channel=2 note=60 velocity=95 time=0
EXTRACT: note_off channel=2 note=53 velocity=95 time=0
EXTRACT: note_off channel=2 note=48 velocity=95 time=0
EXTRACT: note_on channel=2 note=67 velocity=95 time=0
EXTRACT: note_on channel=2 note=65 velocity=95 time=0
EXTRACT: note_on channel=2 note=60 velocity=95 time=0
EXTRACT: note_on channel=2 note=53 velocity=95 time=0
EXTRACT: note_on channel=2 note=48 velocity=95 time=0
EXTRACT: note_off channel=11 note=57 velocity=95 time=0
EXTRACT: note_on channel=11 note=57 velocity=95 time=0
EXTRACT: note_off channel=0 note=67 velocity=95 time=0.39999999999999997
EXTRACT: note_off channel=0 note=65 velocity=95 time=0
EXTRACT: note_off channel=0 note=60 velocity=95 time=0
EXTRACT: note_off channel=0 note=53 velocity=95 time=0
EXTRACT: note_off channel=0 note=48 velocity=95 time=0
EXTRACT: note_on channel=0 note=67 velocity=95 time=0
EXTRACT: note_on channel=0 note=65 velocity=95 time=0
EXTRACT: note_on channel=0 note=60 velocity=95 time=0
EXTRACT: note_on channel=0 note=53 velocity=95 time=0
EXTRACT: note_on channel=0 note=48 velocity=95 time=0
EXTRACT: note_off channel=2 note=67 velocity=95 time=0
EXTRACT: note_off channel=2 note=65 velocity=95 time=0
EXTRACT: note_off channel=2 note=60 velocity=95 time=0
EXTRACT: note_off channel=2 note=53 velocity=95 time=0
EXTRACT: note_off channel=2 note=48 velocity=95 time=0
EXTRACT: note_on channel=2 note=67 velocity=95 time=0
EXTRACT: note_on channel=2 note=65 velocity=95 time=0
EXTRACT: note_on channel=2 note=60 velocity=95 time=0
EXTRACT: note_on channel=2 note=53 velocity=95 time=0
EXTRACT: note_on channel=2 note=48 velocity=95 time=0
EXTRACT: note_off channel=6 note=41 velocity=95 time=0
EXTRACT: note_on channel=6 note=41 velocity=95 time=0
EXTRACT: note_off channel=0 note=67 velocity=95 time=0.39999999999999997
EXTRACT: note_off channel=0 note=65 velocity=95 time=0
EXTRACT: note_off channel=0 note=60 velocity=95 time=0
EXTRACT: note_off channel=0 note=53 velocity=95 time=0
EXTRACT: note_off channel=0 note=48 velocity=95 time=0
EXTRACT: note_on channel=0 note=67 velocity=95 time=0
EXTRACT: note_on channel=0 note=65 velocity=95 time=0
EXTRACT: note_on channel=0 note=60 velocity=95 time=0
EXTRACT: note_on channel=0 note=53 velocity=95 time=0
EXTRACT: note_on channel=0 note=48 velocity=95 time=0
EXTRACT: note_off channel=2 note=67 velocity=95 time=0
EXTRACT: note_off channel=2 note=65 velocity=95 time=0
EXTRACT: note_off channel=2 note=60 velocity=95 time=0
EXTRACT: note_off channel=2 note=53 velocity=95 time=0
EXTRACT: note_off channel=2 note=48 velocity=95 time=0
EXTRACT: note_on channel=2 note=67 velocity=95 time=0
EXTRACT: note_on channel=2 note=65 velocity=95 time=0
EXTRACT: note_on channel=2 note=60 velocity=95 time=0
EXTRACT: note_on channel=2 note=53 velocity=95 time=0
EXTRACT: note_on channel=2 note=48 velocity=95 time=0
EXTRACT: note_off channel=0 note=67 velocity=95 time=0.39999999999999997
EXTRACT: note_off channel=0 note=65 velocity=95 time=0
EXTRACT: note_off channel=0 note=60 velocity=95 time=0
EXTRACT: note_off channel=0 note=53 velocity=95 time=0
EXTRACT: note_off channel=0 note=48 velocity=95 time=0
EXTRACT: note_on channel=0 note=67 velocity=95 time=0
EXTRACT: note_on channel=0 note=65 velocity=95 time=0
EXTRACT: note_on channel=0 note=60 velocity=95 time=0
EXTRACT: note_on channel=0 note=53 velocity=95 time=0
EXTRACT: note_on channel=0 note=48 velocity=95 time=0
EXTRACT: note_off channel=2 note=67 velocity=95 time=0
EXTRACT: note_off channel=2 note=65 velocity=95 time=0
EXTRACT: note_off channel=2 note=60 velocity=95 time=0
EXTRACT: note_off channel=2 note=53 velocity=95 time=0
EXTRACT: note_off channel=2 note=48 velocity=95 time=0
EXTRACT: note_on channel=2 note=67 velocity=95 time=0
EXTRACT: note_on channel=2 note=65 velocity=95 time=0
EXTRACT: note_on channel=2 note=60 velocity=95 time=0
EXTRACT: note_on channel=2 note=53 velocity=95 time=0
EXTRACT: note_on channel=2 note=48 velocity=95 time=0
EXTRACT: note_off channel=11 note=57 velocity=95 time=0
EXTRACT: note_on channel=11 note=55 velocity=95 time=0
EXTRACT: note_off channel=0 note=67 velocity=95 time=0.39999999999999997
EXTRACT: note_off channel=0 note=65 velocity=95 time=0
EXTRACT: note_off channel=0 note=60 velocity=95 time=0
EXTRACT: note_off channel=0 note=53 velocity=95 time=0
EXTRACT: note_off channel=0 note=48 velocity=95 time=0
EXTRACT: note_on channel=0 note=67 velocity=95 time=0
EXTRACT: note_on channel=0 note=65 velocity=95 time=0
EXTRACT: note_on channel=0 note=60 velocity=95 time=0
EXTRACT: note_on channel=0 note=53 velocity=95 time=0
EXTRACT: note_on channel=0 note=48 velocity=95 time=0
EXTRACT: note_off channel=2 note=67 velocity=95 time=0
EXTRACT: note_off channel=2 note=65 velocity=95 time=0
EXTRACT: note_off channel=2 note=60 velocity=95 time=0
EXTRACT: note_off channel=2 note=53 velocity=95 time=0
EXTRACT: note_off channel=2 note=48 velocity=95 time=0
EXTRACT: note_on channel=2 note=67 velocity=95 time=0
EXTRACT: note_on channel=2 note=65 velocity=95 time=0
EXTRACT: note_on channel=2 note=60 velocity=95 time=0
EXTRACT: note_on channel=2 note=53 velocity=95 time=0
EXTRACT: note_on channel=2 note=48 velocity=95 time=0
EXTRACT: note_off channel=11 note=55 velocity=95 time=0
EXTRACT: note_on channel=11 note=53 velocity=95 time=0
EXTRACT: note_off channel=0 note=67 velocity=95 time=0.39999999999999997
EXTRACT: note_off channel=0 note=65 velocity=95 time=0
EXTRACT: note_off channel=0 note=60 velocity=95 time=0
EXTRACT: note_off channel=0 note=53 velocity=95 time=0
EXTRACT: note_off channel=0 note=48 velocity=95 time=0
EXTRACT: note_on channel=0 note=70 velocity=95 time=0
EXTRACT: note_on channel=0 note=65 velocity=95 time=0
EXTRACT: note_on channel=0 note=62 velocity=95 time=0
EXTRACT: note_on channel=0 note=58 velocity=95 time=0
EXTRACT: note_on channel=0 note=53 velocity=95 time=0
EXTRACT: note_on channel=0 note=46 velocity=95 time=0
EXTRACT: note_off channel=2 note=67 velocity=95 time=0
EXTRACT: note_off channel=2 note=65 velocity=95 time=0
EXTRACT: note_off channel=2 note=60 velocity=95 time=0
EXTRACT: note_off channel=2 note=53 velocity=95 time=0
EXTRACT: note_off channel=2 note=48 velocity=95 time=0
EXTRACT: note_on channel=2 note=70 velocity=95 time=0
EXTRACT: note_on channel=2 note=65 velocity=95 time=0
EXTRACT: note_on channel=2 note=62 velocity=95 time=0
EXTRACT: note_on channel=2 note=58 velocity=95 time=0
EXTRACT: note_on channel=2 note=53 velocity=95 time=0
EXTRACT: note_on channel=2 note=46 velocity=95 time=0
EXTRACT: note_off channel=6 note=41 velocity=95 time=0
EXTRACT: note_on channel=6 note=46 velocity=95 time=0
EXTRACT: note_off channel=0 note=70 velocity=95 time=0.39999999999999997
EXTRACT: note_off channel=0 note=65 velocity=95 time=0
EXTRACT: note_off channel=0 note=62 velocity=95 time=0
EXTRACT: note_off channel=0 note=58 velocity=95 time=0
EXTRACT: note_off channel=0 note=53 velocity=95 time=0
EXTRACT: note_off channel=0 note=46 velocity=95 time=0
EXTRACT: note_on channel=0 note=70 velocity=95 time=0
EXTRACT: note_on channel=0 note=65 velocity=95 time=0
EXTRACT: note_on channel=0 note=62 velocity=95 time=0
EXTRACT: note_on channel=0 note=58 velocity=95 time=0
EXTRACT: note_on channel=0 note=53 velocity=95 time=0
EXTRACT: note_on channel=0 note=46 velocity=95 time=0
EXTRACT: note_off channel=2 note=70 velocity=95 time=0
EXTRACT: note_off channel=2 note=65 velocity=95 time=0
EXTRACT: note_off channel=2 note=62 velocity=95 time=0
EXTRACT: note_off channel=2 note=58 velocity=95 time=0
EXTRACT: note_off channel=2 note=53 velocity=95 time=0
EXTRACT: note_off channel=2 note=46 velocity=95 time=0
EXTRACT: note_on channel=2 note=70 velocity=95 time=0
EXTRACT: note_on channel=2 note=65 velocity=95 time=0
EXTRACT: note_on channel=2 note=62 velocity=95 time=0
EXTRACT: note_on channel=2 note=58 velocity=95 time=0
EXTRACT: note_on channel=2 note=53 velocity=95 time=0
EXTRACT: note_on channel=2 note=46 velocity=95 time=0
EXTRACT: note_off channel=0 note=70 velocity=95 time=0.39999999999999997
EXTRACT: note_off channel=0 note=65 velocity=95 time=0
EXTRACT: note_off channel=0 note=62 velocity=95 time=0
EXTRACT: note_off channel=0 note=58 velocity=95 time=0
EXTRACT: note_off channel=0 note=53 velocity=95 time=0
EXTRACT: note_off channel=0 note=46 velocity=95 time=0
EXTRACT: note_on channel=0 note=70 velocity=95 time=0
EXTRACT: note_on channel=0 note=65 velocity=95 time=0
EXTRACT: note_on channel=0 note=62 velocity=95 time=0
EXTRACT: note_on channel=0 note=58 velocity=95 time=0
EXTRACT: note_on channel=0 note=53 velocity=95 time=0
EXTRACT: note_on channel=0 note=46 velocity=95 time=0
EXTRACT: note_off channel=2 note=70 velocity=95 time=0
EXTRACT: note_off channel=2 note=65 velocity=95 time=0
EXTRACT: note_off channel=2 note=62 velocity=95 time=0
EXTRACT: note_off channel=2 note=58 velocity=95 time=0
EXTRACT: note_off channel=2 note=53 velocity=95 time=0
EXTRACT: note_off channel=2 note=46 velocity=95 time=0
EXTRACT: note_on channel=2 note=70 velocity=95 time=0
EXTRACT: note_on channel=2 note=65 velocity=95 time=0
EXTRACT: note_on channel=2 note=62 velocity=95 time=0
EXTRACT: note_on channel=2 note=58 velocity=95 time=0
EXTRACT: note_on channel=2 note=53 velocity=95 time=0
EXTRACT: note_on channel=2 note=46 velocity=95 time=0
EXTRACT: note_off channel=11 note=53 velocity=95 time=0
EXTRACT: note_off channel=0 note=70 velocity=95 time=0.39999999999999997
EXTRACT: note_off channel=0 note=65 velocity=95 time=0
EXTRACT: note_off channel=0 note=62 velocity=95 time=0
EXTRACT: note_off channel=0 note=58 velocity=95 time=0
EXTRACT: note_off channel=0 note=53 velocity=95 time=0
EXTRACT: note_off channel=0 note=46 velocity=95 time=0
EXTRACT: note_on channel=0 note=70 velocity=95 time=0
EXTRACT: note_on channel=0 note=65 velocity=95 time=0
EXTRACT: note_on channel=0 note=62 velocity=95 time=0
EXTRACT: note_on channel=0 note=58 velocity=95 time=0
EXTRACT: note_on channel=0 note=53 velocity=95 time=0
EXTRACT: note_on channel=0 note=46 velocity=95 time=0
EXTRACT: note_off channel=2 note=70 velocity=95 time=0
EXTRACT: note_off channel=2 note=65 velocity=95 time=0
EXTRACT: note_off channel=2 note=62 velocity=95 time=0
EXTRACT: note_off channel=2 note=58 velocity=95 time=0
EXTRACT: note_off channel=2 note=53 velocity=95 time=0
EXTRACT: note_off channel=2 note=46 velocity=95 time=0
EXTRACT: note_on channel=2 note=70 velocity=95 time=0
EXTRACT: note_on channel=2 note=65 velocity=95 time=0
EXTRACT: note_on channel=2 note=62 velocity=95 time=0
EXTRACT: note_on channel=2 note=58 velocity=95 time=0
EXTRACT: note_on channel=2 note=53 velocity=95 time=0
EXTRACT: note_on channel=2 note=46 velocity=95 time=0
EXTRACT: note_on channel=11 note=65 velocity=95 time=0
EXTRACT: note_off channel=0 note=70 velocity=95 time=0.39999999999999997
EXTRACT: note_off channel=0 note=65 velocity=95 time=0
EXTRACT: note_off channel=0 note=62 velocity=95 time=0
EXTRACT: note_off channel=0 note=58 velocity=95 time=0
EXTRACT: note_off channel=0 note=53 velocity=95 time=0
EXTRACT: note_off channel=0 note=46 velocity=95 time=0
EXTRACT: note_on channel=0 note=70 velocity=95 time=0
EXTRACT: note_on channel=0 note=65 velocity=95 time=0
EXTRACT: note_on channel=0 note=62 velocity=95 time=0
EXTRACT: note_on channel=0 note=58 velocity=95 time=0
EXTRACT: note_on channel=0 note=53 velocity=95 time=0
EXTRACT: note_on channel=0 note=46 velocity=95 time=0
EXTRACT: note_off channel=2 note=70 velocity=95 time=0
EXTRACT: note_off channel=2 note=65 velocity=95 time=0
EXTRACT: note_off channel=2 note=62 velocity=95 time=0
EXTRACT: note_off channel=2 note=58 velocity=95 time=0
EXTRACT: note_off channel=2 note=53 velocity=95 time=0
EXTRACT: note_off channel=2 note=46 velocity=95 time=0
EXTRACT: note_on channel=2 note=70 velocity=95 time=0
EXTRACT: note_on channel=2 note=65 velocity=95 time=0
EXTRACT: note_on channel=2 note=62 velocity=95 time=0
EXTRACT: note_on channel=2 note=58 velocity=95 time=0
EXTRACT: note_on channel=2 note=53 velocity=95 time=0
EXTRACT: note_on channel=2 note=46 velocity=95 time=0
EXTRACT: note_off channel=6 note=46 velocity=95 time=0
EXTRACT: note_on channel=6 note=46 velocity=95 time=0
EXTRACT: note_off channel=0 note=70 velocity=95 time=0.39999999999999997
EXTRACT: note_off channel=0 note=65 velocity=95 time=0
EXTRACT: note_off channel=0 note=62 velocity=95 time=0
EXTRACT: note_off channel=0 note=58 velocity=95 time=0
EXTRACT: note_off channel=0 note=53 velocity=95 time=0
EXTRACT: note_off channel=0 note=46 velocity=95 time=0
EXTRACT: note_on channel=0 note=70 velocity=95 time=0
EXTRACT: note_on channel=0 note=65 velocity=95 time=0
EXTRACT: note_on channel=0 note=62 velocity=95 time=0
EXTRACT: note_on channel=0 note=58 velocity=95 time=0
EXTRACT: note_on channel=0 note=53 velocity=95 time=0
EXTRACT: note_on channel=0 note=46 velocity=95 time=0
EXTRACT: note_off channel=2 note=70 velocity=95 time=0
EXTRACT: note_off channel=2 note=65 velocity=95 time=0
EXTRACT: note_off channel=2 note=62 velocity=95 time=0
EXTRACT: note_off channel=2 note=58 velocity=95 time=0
EXTRACT: note_off channel=2 note=53 velocity=95 time=0
EXTRACT: note_off channel=2 note=46 velocity=95 time=0
EXTRACT: note_on channel=2 note=70 velocity=95 time=0
EXTRACT: note_on channel=2 note=65 velocity=95 time=0
EXTRACT: note_on channel=2 note=62 velocity=95 time=0
EXTRACT: note_on channel=2 note=58 velocity=95 time=0
EXTRACT: note_on channel=2 note=53 velocity=95 time=0
EXTRACT: note_on channel=2 note=46 velocity=95 time=0
EXTRACT: note_off channel=11 note=65 velocity=95 time=0
EXTRACT: note_on channel=11 note=62 velocity=95 time=0
EXTRACT: note_off channel=0 note=70 velocity=95 time=0.39999999999999997
EXTRACT: note_off channel=0 note=65 velocity=95 time=0
EXTRACT: note_off channel=0 note=62 velocity=95 time=0
EXTRACT: note_off channel=0 note=58 velocity=95 time=0
EXTRACT: note_off channel=0 note=53 velocity=95 time=0
EXTRACT: note_off channel=0 note=46 velocity=95 time=0
EXTRACT: note_on channel=0 note=70 velocity=95 time=0
EXTRACT: note_on channel=0 note=65 velocity=95 time=0
EXTRACT: note_on channel=0 note=62 velocity=95 time=0
EXTRACT: note_on channel=0 note=58 velocity=95 time=0
EXTRACT: note_on channel=0 note=53 velocity=95 time=0
EXTRACT: note_on channel=0 note=46 velocity=95 time=0
EXTRACT: note_off channel=2 note=70 velocity=95 time=0
EXTRACT: note_off channel=2 note=65 velocity=95 time=0
EXTRACT: note_off channel=2 note=62 velocity=95 time=0
EXTRACT: note_off channel=2 note=58 velocity=95 time=0
EXTRACT: note_off channel=2 note=53 velocity=95 time=0
EXTRACT: note_off channel=2 note=46 velocity=95 time=0
EXTRACT: note_on channel=2 note=70 velocity=95 time=0
EXTRACT: note_on channel=2 note=65 velocity=95 time=0
EXTRACT: note_on channel=2 note=62 velocity=95 time=0
EXTRACT: note_on channel=2 note=58 velocity=95 time=0
EXTRACT: note_on channel=2 note=53 velocity=95 time=0
EXTRACT: note_on channel=2 note=46 velocity=95 time=0
EXTRACT: note_off channel=11 note=62 velocity=95 time=0
EXTRACT: note_on channel=11 note=60 velocity=95 time=0
EXTRACT: note_off channel=0 note=70 velocity=95 time=0.39999999999999997
EXTRACT: note_off channel=0 note=65 velocity=95 time=0
EXTRACT: note_off channel=0 note=62 velocity=95 time=0
EXTRACT: note_off channel=0 note=58 velocity=95 time=0
EXTRACT: note_off channel=0 note=53 velocity=95 time=0
EXTRACT: note_off channel=0 note=46 velocity=95 time=0
EXTRACT: note_on channel=0 note=70 velocity=95 time=0
EXTRACT: note_on channel=0 note=65 velocity=95 time=0
EXTRACT: note_on channel=0 note=62 velocity=95 time=0
EXTRACT: note_on channel=0 note=58 velocity=95 time=0
EXTRACT: note_on channel=0 note=53 velocity=95 time=0
EXTRACT: note_on channel=0 note=46 velocity=95 time=0
EXTRACT: note_off channel=2 note=70 velocity=95 time=0
EXTRACT: note_off channel=2 note=65 velocity=95 time=0
EXTRACT: note_off channel=2 note=62 velocity=95 time=0
EXTRACT: note_off channel=2 note=58 velocity=95 time=0
EXTRACT: note_off channel=2 note=53 velocity=95 time=0
EXTRACT: note_off channel=2 note=46 velocity=95 time=0
EXTRACT: note_on channel=2 note=70 velocity=95 time=0
EXTRACT: note_on channel=2 note=65 velocity=95 time=0
EXTRACT: note_on channel=2 note=62 velocity=95 time=0
EXTRACT: note_on channel=2 note=58 velocity=95 time=0
EXTRACT: note_on channel=2 note=53 velocity=95 time=0
EXTRACT: note_on channel=2 note=46 velocity=95 time=0
EXTRACT: note_off channel=11 note=60 velocity=95 time=0
EXTRACT: note_on channel=11 note=65 velocity=95 time=0
EXTRACT: note_off channel=0 note=70 velocity=95 time=0.39999999999999997
EXTRACT: note_off channel=0 note=65 velocity=95 time=0
EXTRACT: note_off channel=0 note=62 velocity=95 time=0
EXTRACT: note_off channel=0 note=58 velocity=95 time=0
EXTRACT: note_off channel=0 note=53 velocity=95 time=0
EXTRACT: note_off channel=0 note=46 velocity=95 time=0
EXTRACT: note_on channel=0 note=70 velocity=95 time=0
EXTRACT: note_on channel=0 note=65 velocity=95 time=0
EXTRACT: note_on channel=0 note=62 velocity=95 time=0
EXTRACT: note_on channel=0 note=58 velocity=95 time=0
EXTRACT: note_on channel=0 note=53 velocity=95 time=0
EXTRACT: note_on channel=0 note=46 velocity=95 time=0
EXTRACT: note_off channel=2 note=70 velocity=95 time=0
EXTRACT: note_off channel=2 note=65 velocity=95 time=0
EXTRACT: note_off channel=2 note=62 velocity=95 time=0
EXTRACT: note_off channel=2 note=58 velocity=95 time=0
EXTRACT: note_off channel=2 note=53 velocity=95 time=0
EXTRACT: note_off channel=2 note=46 velocity=95 time=0
EXTRACT: note_on channel=2 note=70 velocity=95 time=0
EXTRACT: note_on channel=2 note=65 velocity=95 time=0
EXTRACT: note_on channel=2 note=62 velocity=95 time=0
EXTRACT: note_on channel=2 note=58 velocity=95 time=0
EXTRACT: note_on channel=2 note=53 velocity=95 time=0
EXTRACT: note_on channel=2 note=46 velocity=95 time=0
EXTRACT: note_off channel=6 note=46 velocity=95 time=0
EXTRACT: note_on channel=6 note=46 velocity=95 time=0
EXTRACT: note_off channel=0 note=70 velocity=95 time=0.39999999999999997
EXTRACT: note_off channel=0 note=65 velocity=95 time=0
EXTRACT: note_off channel=0 note=62 velocity=95 time=0
EXTRACT: note_off channel=0 note=58 velocity=95 time=0
EXTRACT: note_off channel=0 note=53 velocity=95 time=0
EXTRACT: note_off channel=0 note=46 velocity=95 time=0
EXTRACT: note_on channel=0 note=70 velocity=95 time=0
EXTRACT: note_on channel=0 note=65 velocity=95 time=0
EXTRACT: note_on channel=0 note=62 velocity=95 time=0
EXTRACT: note_on channel=0 note=58 velocity=95 time=0
EXTRACT: note_on channel=0 note=53 velocity=95 time=0
EXTRACT: note_on channel=0 note=46 velocity=95 time=0
EXTRACT: note_off channel=2 note=70 velocity=95 time=0
EXTRACT: note_off channel=2 note=65 velocity=95 time=0
EXTRACT: note_off channel=2 note=62 velocity=95 time=0
EXTRACT: note_off channel=2 note=58 velocity=95 time=0
EXTRACT: note_off channel=2 note=53 velocity=95 time=0
EXTRACT: note_off channel=2 note=46 velocity=95 time=0
EXTRACT: note_on channel=2 note=70 velocity=95 time=0
EXTRACT: note_on channel=2 note=65 velocity=95 time=0
EXTRACT: note_on channel=2 note=62 velocity=95 time=0
EXTRACT: note_on channel=2 note=58 velocity=95 time=0
EXTRACT: note_on channel=2 note=53 velocity=95 time=0
EXTRACT: note_on channel=2 note=46 velocity=95 time=0
EXTRACT: note_off channel=11 note=65 velocity=95 time=0
EXTRACT: note_on channel=11 note=62 velocity=95 time=0
EXTRACT: note_off channel=0 note=70 velocity=95 time=0.39999999999999997
EXTRACT: note_off channel=0 note=65 velocity=95 time=0
EXTRACT: note_off channel=0 note=62 velocity=95 time=0
EXTRACT: note_off channel=0 note=58 velocity=95 time=0
EXTRACT: note_off channel=0 note=53 velocity=95 time=0
EXTRACT: note_off channel=0 note=46 velocity=95 time=0
EXTRACT: note_on channel=0 note=70 velocity=95 time=0
EXTRACT: note_on channel=0 note=65 velocity=95 time=0
EXTRACT: note_on channel=0 note=62 velocity=95 time=0
EXTRACT: note_on channel=0 note=58 velocity=95 time=0
EXTRACT: note_on channel=0 note=53 velocity=95 time=0
EXTRACT: note_on channel=0 note=46 velocity=95 time=0
EXTRACT: note_off channel=2 note=70 velocity=95 time=0
EXTRACT: note_off channel=2 note=65 velocity=95 time=0
EXTRACT: note_off channel=2 note=62 velocity=95 time=0
EXTRACT: note_off channel=2 note=58 velocity=95 time=0
EXTRACT: note_off channel=2 note=53 velocity=95 time=0
EXTRACT: note_off channel=2 note=46 velocity=95 time=0
EXTRACT: note_on channel=2 note=70 velocity=95 time=0
EXTRACT: note_on channel=2 note=65 velocity=95 time=0
EXTRACT: note_on channel=2 note=62 velocity=95 time=0
EXTRACT: note_on channel=2 note=58 velocity=95 time=0
EXTRACT: note_on channel=2 note=53 velocity=95 time=0
EXTRACT: note_on channel=2 note=46 velocity=95 time=0
EXTRACT: note_off channel=11 note=62 velocity=95 time=0
EXTRACT: note_on channel=11 note=60 velocity=95 time=0
EXTRACT: note_off channel=0 note=70 velocity=95 time=0.39999999999999997
EXTRACT: note_off channel=0 note=65 velocity=95 time=0
EXTRACT: note_off channel=0 note=62 velocity=95 time=0
EXTRACT: note_off channel=0 note=58 velocity=95 time=0
EXTRACT: note_off channel=0 note=53 velocity=95 time=0
EXTRACT: note_off channel=0 note=46 velocity=95 time=0
EXTRACT: note_on channel=0 note=70 velocity=95 time=0
EXTRACT: note_on channel=0 note=65 velocity=95 time=0
EXTRACT: note_on channel=0 note=62 velocity=95 time=0
EXTRACT: note_on channel=0 note=58 velocity=95 time=0
EXTRACT: note_on channel=0 note=53 velocity=95 time=0
EXTRACT: note_on channel=0 note=46 velocity=95 time=0
EXTRACT: note_off channel=2 note=70 velocity=95 time=0
EXTRACT: note_off channel=2 note=65 velocity=95 time=0
EXTRACT: note_off channel=2 note=62 velocity=95 time=0
EXTRACT: note_off channel=2 note=58 velocity=95 time=0
EXTRACT: note_off channel=2 note=53 velocity=95 time=0
EXTRACT: note_off channel=2 note=46 velocity=95 time=0
EXTRACT: note_on channel=2 note=70 velocity=95 time=0
EXTRACT: note_on channel=2 note=65 velocity=95 time=0
EXTRACT: note_on channel=2 note=62 velocity=95 time=0
EXTRACT: note_on channel=2 note=58 velocity=95 time=0
EXTRACT: note_on channel=2 note=53 velocity=95 time=0
EXTRACT: note_on channel=2 note=46 velocity=95 time=0
EXTRACT: note_off channel=11 note=60 velocity=95 time=0
EXTRACT: note_on channel=11 note=65 velocity=95 time=0
EXTRACT: note_off channel=0 note=70 velocity=95 time=0.39999999999999997
EXTRACT: note_off channel=0 note=65 velocity=95 time=0
EXTRACT: note_off channel=0 note=62 velocity=95 time=0
EXTRACT: note_off channel=0 note=58 velocity=95 time=0
EXTRACT: note_off channel=0 note=53 velocity=95 time=0
EXTRACT: note_off channel=0 note=46 velocity=95 time=0
EXTRACT: note_on channel=0 note=70 velocity=95 time=0
EXTRACT: note_on channel=0 note=65 velocity=95 time=0
EXTRACT: note_on channel=0 note=62 velocity=95 time=0
EXTRACT: note_on channel=0 note=58 velocity=95 time=0
EXTRACT: note_on channel=0 note=53 velocity=95 time=0
EXTRACT: note_on channel=0 note=46 velocity=95 time=0
EXTRACT: note_off channel=2 note=70 velocity=95 time=0
EXTRACT: note_off channel=2 note=65 velocity=95 time=0
EXTRACT: note_off channel=2 note=62 velocity=95 time=0
EXTRACT: note_off channel=2 note=58 velocity=95 time=0
EXTRACT: note_off channel=2 note=53 velocity=95 time=0
EXTRACT: note_off channel=2 note=46 velocity=95 time=0
EXTRACT: note_on channel=2 note=70 velocity=95 time=0
EXTRACT: note_on channel=2 note=65 velocity=95 time=0
EXTRACT: note_on channel=2 note=62 velocity=95 time=0
EXTRACT: note_on channel=2 note=58 velocity=95 time=0
EXTRACT: note_on channel=2 note=53 velocity=95 time=0
EXTRACT: note_on channel=2 note=46 velocity=95 time=0
EXTRACT: note_off channel=6 note=46 velocity=95 time=0
EXTRACT: note_on channel=6 note=46 velocity=95 time=0
EXTRACT: note_off channel=0 note=70 velocity=95 time=0.39999999999999997
EXTRACT: note_off channel=0 note=65 velocity=95 time=0
EXTRACT: note_off channel=0 note=62 velocity=95 time=0
EXTRACT: note_off channel=0 note=58 velocity=95 time=0
EXTRACT: note_off channel=0 note=53 velocity=95 time=0
EXTRACT: note_off channel=0 note=46 velocity=95 time=0
EXTRACT: note_on channel=0 note=70 velocity=95 time=0
EXTRACT: note_on channel=0 note=65 velocity=95 time=0
EXTRACT: note_on channel=0 note=62 velocity=95 time=0
EXTRACT: note_on channel=0 note=58 velocity=95 time=0
EXTRACT: note_on channel=0 note=53 velocity=95 time=0
EXTRACT: note_on channel=0 note=46 velocity=95 time=0
EXTRACT: note_off channel=2 note=70 velocity=95 time=0
EXTRACT: note_off channel=2 note=65 velocity=95 time=0
EXTRACT: note_off channel=2 note=62 velocity=95 time=0
EXTRACT: note_off channel=2 note=58 velocity=95 time=0
EXTRACT: note_off channel=2 note=53 velocity=95 time=0
EXTRACT: note_off channel=2 note=46 velocity=95 time=0
EXTRACT: note_on channel=2 note=70 velocity=95 time=0
EXTRACT: note_on channel=2 note=65 velocity=95 time=0
EXTRACT: note_on channel=2 note=62 velocity=95 time=0
EXTRACT: note_on channel=2 note=58 velocity=95 time=0
EXTRACT: note_on channel=2 note=53 velocity=95 time=0
EXTRACT: note_on channel=2 note=46 velocity=95 time=0
EXTRACT: note_off channel=11 note=65 velocity=95 time=0
EXTRACT: note_on channel=11 note=62 velocity=95 time=0
EXTRACT: note_off channel=11 note=62 velocity=95 time=0.19999999999999998
EXTRACT: note_on channel=11 note=60 velocity=95 time=0
EXTRACT: note_off channel=0 note=70 velocity=95 time=0.19999999999999998
EXTRACT: note_off channel=0 note=65 velocity=95 time=0
EXTRACT: note_off channel=0 note=62 velocity=95 time=0
EXTRACT: note_off channel=0 note=58 velocity=95 time=0
EXTRACT: note_off channel=0 note=53 velocity=95 time=0
EXTRACT: note_off channel=0 note=46 velocity=95 time=0
EXTRACT: note_on channel=0 note=70 velocity=95 time=0
EXTRACT: note_on channel=0 note=65 velocity=95 time=0
EXTRACT: note_on channel=0 note=62 velocity=95 time=0
EXTRACT: note_on channel=0 note=58 velocity=95 time=0
EXTRACT: note_on channel=0 note=53 velocity=95 time=0
EXTRACT: note_on channel=0 note=46 velocity=95 time=0
EXTRACT: note_off channel=2 note=70 velocity=95 time=0
EXTRACT: note_off channel=2 note=65 velocity=95 time=0
EXTRACT: note_off channel=2 note=62 velocity=95 time=0
EXTRACT: note_off channel=2 note=58 velocity=95 time=0
EXTRACT: note_off channel=2 note=53 velocity=95 time=0
EXTRACT: note_off channel=2 note=46 velocity=95 time=0
EXTRACT: note_on channel=2 note=70 velocity=111 time=0
EXTRACT: note_off channel=0 note=70 velocity=95 time=0.39999999999999997
EXTRACT: note_off channel=0 note=65 velocity=95 time=0
EXTRACT: note_off channel=0 note=62 velocity=95 time=0
EXTRACT: note_off channel=0 note=58 velocity=95 time=0
EXTRACT: note_off channel=0 note=53 velocity=95 time=0
EXTRACT: note_off channel=0 note=46 velocity=95 time=0
EXTRACT: note_on channel=0 note=70 velocity=95 time=0
EXTRACT: note_on channel=0 note=65 velocity=95 time=0
EXTRACT: note_on channel=0 note=62 velocity=95 time=0
EXTRACT: note_on channel=0 note=58 velocity=95 time=0
EXTRACT: note_on channel=0 note=53 velocity=95 time=0
EXTRACT: note_on channel=0 note=46 velocity=95 time=0
EXTRACT: note_off channel=2 note=70 velocity=111 time=0
EXTRACT: note_on channel=2 note=72 velocity=111 time=0
EXTRACT: note_off channel=0 note=70 velocity=95 time=0.39999999999999997
EXTRACT: note_off channel=0 note=65 velocity=95 time=0
EXTRACT: note_off channel=0 note=62 velocity=95 time=0
EXTRACT: note_off channel=0 note=58 velocity=95 time=0
EXTRACT: note_off channel=0 note=53 velocity=95 time=0
EXTRACT: note_off channel=0 note=46 velocity=95 time=0
EXTRACT: note_on channel=0 note=69 velocity=95 time=0
EXTRACT: note_on channel=0 note=65 velocity=95 time=0
EXTRACT: note_on channel=0 note=60 velocity=95 time=0
EXTRACT: note_on channel=0 note=53 velocity=95 time=0
EXTRACT: note_on channel=0 note=48 velocity=95 time=0
EXTRACT: note_off channel=2 note=72 velocity=111 time=0
EXTRACT: note_on channel=2 note=69 velocity=95 time=0
EXTRACT: note_on channel=2 note=65 velocity=95 time=0
EXTRACT: note_on channel=2 note=60 velocity=95 time=0
EXTRACT: note_on channel=2 note=53 velocity=95 time=0
EXTRACT: note_on channel=2 note=48 velocity=95 time=0
EXTRACT: note_off channel=6 note=46 velocity=95 time=0
EXTRACT: note_on channel=6 note=41 velocity=95 time=0
EXTRACT: note_off channel=11 note=60 velocity=95 time=0
EXTRACT: note_off channel=0 note=69 velocity=95 time=0.39999999999999997
EXTRACT: note_off channel=0 note=65 velocity=95 time=0
EXTRACT: note_off channel=0 note=60 velocity=95 time=0
EXTRACT: note_off channel=0 note=53 velocity=95 time=0
EXTRACT: note_off channel=0 note=48 velocity=95 time=0
EXTRACT: note_on channel=0 note=69 velocity=95 time=0
EXTRACT: note_on channel=0 note=65 velocity=95 time=0
EXTRACT: note_on channel=0 note=60 velocity=95 time=0
EXTRACT: note_on channel=0 note=53 velocity=95 time=0
EXTRACT: note_on channel=0 note=48 velocity=95 time=0
EXTRACT: note_off channel=2 note=69 velocity=95 time=0
EXTRACT: note_off channel=2 note=65 velocity=95 time=0
EXTRACT: note_off channel=2 note=60 velocity=95 time=0
EXTRACT: note_off channel=2 note=53 velocity=95 time=0
EXTRACT: note_off channel=2 note=48 velocity=95 time=0
EXTRACT: note_on channel=2 note=69 velocity=95 time=0
EXTRACT: note_on channel=2 note=65 velocity=95 time=0
EXTRACT: note_on channel=2 note=60 velocity=95 time=0
EXTRACT: note_on channel=2 note=53 velocity=95 time=0
EXTRACT: note_on channel=2 note=48 velocity=95 time=0
EXTRACT: note_off channel=0 note=69 velocity=95 time=0.39999999999999997
EXTRACT: note_off channel=0 note=65 velocity=95 time=0
EXTRACT: note_off channel=0 note=60 velocity=95 time=0
EXTRACT: note_off channel=0 note=53 velocity=95 time=0
EXTRACT: note_off channel=0 note=48 velocity=95 time=0
EXTRACT: note_on channel=0 note=69 velocity=95 time=0
EXTRACT: note_on channel=0 note=65 velocity=95 time=0
EXTRACT: note_on channel=0 note=60 velocity=95 time=0
EXTRACT: note_on channel=0 note=53 velocity=95 time=0
EXTRACT: note_on channel=0 note=48 velocity=95 time=0
EXTRACT: note_off channel=2 note=69 velocity=95 time=0
EXTRACT: note_off channel=2 note=65 velocity=95 time=0
EXTRACT: note_off channel=2 note=60 velocity=95 time=0
EXTRACT: note_off channel=2 note=53 velocity=95 time=0
EXTRACT: note_off channel=2 note=48 velocity=95 time=0
EXTRACT: note_on channel=2 note=69 velocity=95 time=0
EXTRACT: note_on channel=2 note=65 velocity=95 time=0
EXTRACT: note_on channel=2 note=60 velocity=95 time=0
EXTRACT: note_on channel=2 note=53 velocity=95 time=0
EXTRACT: note_on channel=2 note=48 velocity=95 time=0
EXTRACT: note_off channel=0 note=69 velocity=95 time=0.39999999999999997
EXTRACT: note_off channel=0 note=65 velocity=95 time=0
EXTRACT: note_off channel=0 note=60 velocity=95 time=0
EXTRACT: note_off channel=0 note=53 velocity=95 time=0
EXTRACT: note_off channel=0 note=48 velocity=95 time=0
EXTRACT: note_on channel=0 note=69 velocity=95 time=0
EXTRACT: note_on channel=0 note=65 velocity=95 time=0
EXTRACT: note_on channel=0 note=60 velocity=95 time=0
EXTRACT: note_on channel=0 note=53 velocity=95 time=0
EXTRACT: note_on channel=0 note=48 velocity=95 time=0
EXTRACT: note_off channel=2 note=69 velocity=95 time=0
EXTRACT: note_off channel=2 note=65 velocity=95 time=0
EXTRACT: note_off channel=2 note=60 velocity=95 time=0
EXTRACT: note_off channel=2 note=53 velocity=95 time=0
EXTRACT: note_off channel=2 note=48 velocity=95 time=0
EXTRACT: note_on channel=2 note=69 velocity=95 time=0
EXTRACT: note_on channel=2 note=65 velocity=95 time=0
EXTRACT: note_on channel=2 note=60 velocity=95 time=0
EXTRACT: note_on channel=2 note=53 velocity=95 time=0
EXTRACT: note_on channel=2 note=48 velocity=95 time=0
EXTRACT: note_on channel=11 note=57 velocity=95 time=0
EXTRACT: note_off channel=0 note=69 velocity=95 time=0.39999999999999997
EXTRACT: note_off channel=0 note=65 velocity=95 time=0
EXTRACT: note_off channel=0 note=60 velocity=95 time=0
EXTRACT: note_off channel=0 note=53 velocity=95 time=0
EXTRACT: note_off channel=0 note=48 velocity=95 time=0
EXTRACT: note_on channel=0 note=69 velocity=95 time=0
EXTRACT: note_on channel=0 note=65 velocity=95 time=0
EXTRACT: note_on channel=0 note=60 velocity=95 time=0
EXTRACT: note_on channel=0 note=53 velocity=95 time=0
EXTRACT: note_on channel=0 note=48 velocity=95 time=0
EXTRACT: note_off channel=2 note=69 velocity=95 time=0
EXTRACT: note_off channel=2 note=65 velocity=95 time=0
EXTRACT: note_off channel=2 note=60 velocity=95 time=0
EXTRACT: note_off channel=2 note=53 velocity=95 time=0
EXTRACT: note_off channel=2 note=48 velocity=95 time=0
EXTRACT: note_on channel=2 note=69 velocity=95 time=0
EXTRACT: note_on channel=2 note=65 velocity=95 time=0
EXTRACT: note_on channel=2 note=60 velocity=95 time=0
EXTRACT: note_on channel=2 note=53 velocity=95 time=0
EXTRACT: note_on channel=2 note=48 velocity=95 time=0
EXTRACT: note_off channel=6 note=41 velocity=95 time=0
EXTRACT: note_on channel=6 note=41 velocity=95 time=0
EXTRACT: note_off channel=0 note=69 velocity=95 time=0.39999999999999997
EXTRACT: note_off channel=0 note=65 velocity=95 time=0
EXTRACT: note_off channel=0 note=60 velocity=95 time=0
EXTRACT: note_off channel=0 note=53 velocity=95 time=0
EXTRACT: note_off channel=0 note=48 velocity=95 time=0
EXTRACT: note_on channel=0 note=69 velocity=95 time=0
EXTRACT: note_on channel=0 note=65 velocity=95 time=0
EXTRACT: note_on channel=0 note=60 velocity=95 time=0
EXTRACT: note_on channel=0 note=53 velocity=95 time=0
EXTRACT: note_on channel=0 note=48 velocity=95 time=0
EXTRACT: note_off channel=2 note=69 velocity=95 time=0
EXTRACT: note_off channel=2 note=65 velocity=95 time=0
EXTRACT: note_off channel=2 note=60 velocity=95 time=0
EXTRACT: note_off channel=2 note=53 velocity=95 time=0
EXTRACT: note_off channel=2 note=48 velocity=95 time=0
EXTRACT: note_on channel=2 note=69 velocity=95 time=0
EXTRACT: note_on channel=2 note=65 velocity=95 time=0
EXTRACT: note_on channel=2 note=60 velocity=95 time=0
EXTRACT: note_on channel=2 note=53 velocity=95 time=0
EXTRACT: note_on channel=2 note=48 velocity=95 time=0
EXTRACT: note_off channel=11 note=57 velocity=95 time=0
EXTRACT: note_on channel=11 note=60 velocity=95 time=0
EXTRACT: note_off channel=0 note=69 velocity=95 time=0.39999999999999997
EXTRACT: note_off channel=0 note=65 velocity=95 time=0
EXTRACT: note_off channel=0 note=60 velocity=95 time=0
EXTRACT: note_off channel=0 note=53 velocity=95 time=0
EXTRACT: note_off channel=0 note=48 velocity=95 time=0
EXTRACT: note_on channel=0 note=69 velocity=95 time=0
EXTRACT: note_on channel=0 note=65 velocity=95 time=0
EXTRACT: note_on channel=0 note=60 velocity=95 time=0
EXTRACT: note_on channel=0 note=53 velocity=95 time=0
EXTRACT: note_on channel=0 note=48 velocity=95 time=0
EXTRACT: note_off channel=2 note=69 velocity=95 time=0
EXTRACT: note_off channel=2 note=65 velocity=95 time=0
EXTRACT: note_off channel=2 note=60 velocity=95 time=0
EXTRACT: note_off channel=2 note=53 velocity=95 time=0
EXTRACT: note_off channel=2 note=48 velocity=95 time=0
EXTRACT: note_on channel=2 note=69 velocity=95 time=0
EXTRACT: note_on channel=2 note=65 velocity=95 time=0
EXTRACT: note_on channel=2 note=60 velocity=95 time=0
EXTRACT: note_on channel=2 note=53 velocity=95 time=0
EXTRACT: note_on channel=2 note=48 velocity=95 time=0
EXTRACT: note_off channel=11 note=60 velocity=95 time=0
EXTRACT: note_on channel=11 note=57 velocity=95 time=0
EXTRACT: note_off channel=0 note=69 velocity=95 time=0.39999999999999997
EXTRACT: note_off channel=0 note=65 velocity=95 time=0
EXTRACT: note_off channel=0 note=60 velocity=95 time=0
EXTRACT: note_off channel=0 note=53 velocity=95 time=0
EXTRACT: note_off channel=0 note=48 velocity=95 time=0
EXTRACT: note_on channel=0 note=69 velocity=95 time=0
EXTRACT: note_on channel=0 note=65 velocity=95 time=0
EXTRACT: note_on channel=0 note=60 velocity=95 time=0
EXTRACT: note_on channel=0 note=53 velocity=95 time=0
EXTRACT: note_on channel=0 note=48 velocity=95 time=0
EXTRACT: note_off channel=2 note=69 velocity=95 time=0
EXTRACT: note_off channel=2 note=65 velocity=95 time=0
EXTRACT: note_off channel=2 note=60 velocity=95 time=0
EXTRACT: note_off channel=2 note=53 velocity=95 time=0
EXTRACT: note_off channel=2 note=48 velocity=95 time=0
EXTRACT: note_on channel=2 note=69 velocity=95 time=0
EXTRACT: note_on channel=2 note=65 velocity=95 time=0
EXTRACT: note_on channel=2 note=60 velocity=95 time=0
EXTRACT: note_on channel=2 note=53 velocity=95 time=0
EXTRACT: note_on channel=2 note=48 velocity=95 time=0
EXTRACT: note_off channel=11 note=57 velocity=95 time=0
EXTRACT: note_on channel=11 note=62 velocity=95 time=0
EXTRACT: note_off channel=0 note=69 velocity=95 time=0.39999999999999997
EXTRACT: note_off channel=0 note=65 velocity=95 time=0
EXTRACT: note_off channel=0 note=60 velocity=95 time=0
EXTRACT: note_off channel=0 note=53 velocity=95 time=0
EXTRACT: note_off channel=0 note=48 velocity=95 time=0
EXTRACT: note_on channel=0 note=67 velocity=95 time=0
EXTRACT: note_on channel=0 note=65 velocity=95 time=0
EXTRACT: note_on channel=0 note=60 velocity=95 time=0
EXTRACT: note_on channel=0 note=53 velocity=95 time=0
EXTRACT: note_on channel=0 note=48 velocity=95 time=0
EXTRACT: note_off channel=2 note=69 velocity=95 time=0
EXTRACT: note_off channel=2 note=65 velocity=95 time=0
EXTRACT: note_off channel=2 note=60 velocity=95 time=0
EXTRACT: note_off channel=2 note=53 velocity=95 time=0
EXTRACT: note_off channel=2 note=48 velocity=95 time=0
EXTRACT: note_on channel=2 note=67 velocity=95 time=0
EXTRACT: note_on channel=2 note=65 velocity=95 time=0
EXTRACT: note_on channel=2 note=60 velocity=95 time=0
EXTRACT: note_on channel=2 note=53 velocity=95 time=0
EXTRACT: note_on channel=2 note=48 velocity=95 time=0
EXTRACT: note_off channel=6 note=41 velocity=95 time=0
EXTRACT: note_on channel=6 note=41 velocity=95 time=0
EXTRACT: note_off channel=11 note=62 velocity=95 time=0
EXTRACT: note_on channel=11 note=62 velocity=70 time=0
EXTRACT: note_off channel=0 note=67 velocity=95 time=0.39999999999999997
EXTRACT: note_off channel=0 note=65 velocity=95 time=0
EXTRACT: note_off channel=0 note=60 velocity=95 time=0
EXTRACT: note_off channel=0 note=53 velocity=95 time=0
EXTRACT: note_off channel=0 note=48 velocity=95 time=0
EXTRACT: note_on channel=0 note=67 velocity=95 time=0
EXTRACT: note_on channel=0 note=65 velocity=95 time=0
EXTRACT: note_on channel=0 note=60 velocity=95 time=0
EXTRACT: note_on channel=0 note=53 velocity=95 time=0
EXTRACT: note_on channel=0 note=48 velocity=95 time=0
EXTRACT: note_off channel=2 note=67 velocity=95 time=0
EXTRACT: note_off channel=2 note=65 velocity=95 time=0
EXTRACT: note_off channel=2 note=60 velocity=95 time=0
EXTRACT: note_off channel=2 note=53 velocity=95 time=0
EXTRACT: note_off channel=2 note=48 velocity=95 time=0
EXTRACT: note_on channel=2 note=67 velocity=95 time=0
EXTRACT: note_on channel=2 note=65 velocity=95 time=0
EXTRACT: note_on channel=2 note=60 velocity=95 time=0
EXTRACT: note_on channel=2 note=53 velocity=95 time=0
EXTRACT: note_on channel=2 note=48 velocity=95 time=0
EXTRACT: note_off channel=11 note=62 velocity=70 time=0
EXTRACT: note_on channel=11 note=57 velocity=95 time=0
EXTRACT: note_off channel=0 note=67 velocity=95 time=0.39999999999999997
EXTRACT: note_off channel=0 note=65 velocity=95 time=0
EXTRACT: note_off channel=0 note=60 velocity=95 time=0
EXTRACT: note_off channel=0 note=53 velocity=95 time=0
EXTRACT: note_off channel=0 note=48 velocity=95 time=0
EXTRACT: note_on channel=0 note=67 velocity=95 time=0
EXTRACT: note_on channel=0 note=65 velocity=95 time=0
EXTRACT: note_on channel=0 note=60 velocity=95 time=0
EXTRACT: note_on channel=0 note=53 velocity=95 time=0
EXTRACT: note_on channel=0 note=48 velocity=95 time=0
EXTRACT: note_off channel=2 note=67 velocity=95 time=0
EXTRACT: note_off channel=2 note=65 velocity=95 time=0
EXTRACT: note_off channel=2 note=60 velocity=95 time=0
EXTRACT: note_off channel=2 note=53 velocity=95 time=0
EXTRACT: note_off channel=2 note=48 velocity=95 time=0
EXTRACT: note_on channel=2 note=67 velocity=95 time=0
EXTRACT: note_on channel=2 note=65 velocity=95 time=0
EXTRACT: note_on channel=2 note=60 velocity=95 time=0
EXTRACT: note_on channel=2 note=53 velocity=95 time=0
EXTRACT: note_on channel=2 note=48 velocity=95 time=0
EXTRACT: note_off channel=11 note=57 velocity=95 time=0
EXTRACT: note_on channel=11 note=57 velocity=95 time=0
EXTRACT: note_off channel=0 note=67 velocity=95 time=0.39999999999999997
EXTRACT: note_off channel=0 note=65 velocity=95 time=0
EXTRACT: note_off channel=0 note=60 velocity=95 time=0
EXTRACT: note_off channel=0 note=53 velocity=95 time=0
EXTRACT: note_off channel=0 note=48 velocity=95 time=0
EXTRACT: note_on channel=0 note=67 velocity=95 time=0
EXTRACT: note_on channel=0 note=65 velocity=95 time=0
EXTRACT: note_on channel=0 note=60 velocity=95 time=0
EXTRACT: note_on channel=0 note=53 velocity=95 time=0
EXTRACT: note_on channel=0 note=48 velocity=95 time=0
EXTRACT: note_off channel=2 note=67 velocity=95 time=0
EXTRACT: note_off channel=2 note=65 velocity=95 time=0
EXTRACT: note_off channel=2 note=60 velocity=95 time=0
EXTRACT: note_off channel=2 note=53 velocity=95 time=0
EXTRACT: note_off channel=2 note=48 velocity=95 time=0
EXTRACT: note_on channel=2 note=67 velocity=95 time=0
EXTRACT: note_on channel=2 note=65 velocity=95 time=0
EXTRACT: note_on channel=2 note=60 velocity=95 time=0
EXTRACT: note_on channel=2 note=53 velocity=95 time=0
EXTRACT: note_on channel=2 note=48 velocity=95 time=0
EXTRACT: note_off channel=11 note=57 velocity=95 time=0
EXTRACT: note_on channel=11 note=57 velocity=95 time=0
EXTRACT: note_off channel=0 note=67 velocity=95 time=0.39999999999999997
EXTRACT: note_off channel=0 note=65 velocity=95 time=0
EXTRACT: note_off channel=0 note=60 velocity=95 time=0
EXTRACT: note_off channel=0 note=53 velocity=95 time=0
EXTRACT: note_off channel=0 note=48 velocity=95 time=0
EXTRACT: note_on channel=0 note=67 velocity=95 time=0
EXTRACT: note_on channel=0 note=65 velocity=95 time=0
EXTRACT: note_on channel=0 note=60 velocity=95 time=0
EXTRACT: note_on channel=0 note=53 velocity=95 time=0
EXTRACT: note_on channel=0 note=48 velocity=95 time=0
EXTRACT: note_off channel=2 note=67 velocity=95 time=0
EXTRACT: note_off channel=2 note=65 velocity=95 time=0
EXTRACT: note_off channel=2 note=60 velocity=95 time=0
EXTRACT: note_off channel=2 note=53 velocity=95 time=0
EXTRACT: note_off channel=2 note=48 velocity=95 time=0
EXTRACT: note_on channel=2 note=67 velocity=95 time=0
EXTRACT: note_on channel=2 note=65 velocity=95 time=0
EXTRACT: note_on channel=2 note=60 velocity=95 time=0
EXTRACT: note_on channel=2 note=53 velocity=95 time=0
EXTRACT: note_on channel=2 note=48 velocity=95 time=0
EXTRACT: note_off channel=6 note=41 velocity=95 time=0
EXTRACT: note_on channel=6 note=41 velocity=95 time=0
EXTRACT: note_off channel=11 note=57 velocity=95 time=0
EXTRACT: note_on channel=11 note=57 velocity=95 time=0
EXTRACT: note_off channel=0 note=67 velocity=95 time=0.39999999999999997
EXTRACT: note_off channel=0 note=65 velocity=95 time=0
EXTRACT: note_off channel=0 note=60 velocity=95 time=0
EXTRACT: note_off channel=0 note=53 velocity=95 time=0
EXTRACT: note_off channel=0 note=48 velocity=95 time=0
EXTRACT: note_on channel=0 note=67 velocity=95 time=0
EXTRACT: note_on channel=0 note=65 velocity=95 time=0
EXTRACT: note_on channel=0 note=60 velocity=95 time=0
EXTRACT: note_on channel=0 note=53 velocity=95 time=0
EXTRACT: note_on channel=0 note=48 velocity=95 time=0
EXTRACT: note_off channel=2 note=67 velocity=95 time=0
EXTRACT: note_off channel=2 note=65 velocity=95 time=0
EXTRACT: note_off channel=2 note=60 velocity=95 time=0
EXTRACT: note_off channel=2 note=53 velocity=95 time=0
EXTRACT: note_off channel=2 note=48 velocity=95 time=0
EXTRACT: note_on channel=2 note=67 velocity=95 time=0
EXTRACT: note_on channel=2 note=65 velocity=95 time=0
EXTRACT: note_on channel=2 note=60 velocity=95 time=0
EXTRACT: note_on channel=2 note=53 velocity=95 time=0
EXTRACT: note_on channel=2 note=48 velocity=95 time=0
EXTRACT: note_off channel=0 note=67 velocity=95 time=0.39999999999999997
EXTRACT: note_off channel=0 note=65 velocity=95 time=0
EXTRACT: note_off channel=0 note=60 velocity=95 time=0
EXTRACT: note_off channel=0 note=53 velocity=95 time=0
EXTRACT: note_off channel=0 note=48 velocity=95 time=0
EXTRACT: note_on channel=0 note=67 velocity=95 time=0
EXTRACT: note_on channel=0 note=65 velocity=95 time=0
EXTRACT: note_on channel=0 note=60 velocity=95 time=0
EXTRACT: note_on channel=0 note=53 velocity=95 time=0
EXTRACT: note_on channel=0 note=48 velocity=95 time=0
EXTRACT: note_off channel=2 note=67 velocity=95 time=0
EXTRACT: note_off channel=2 note=65 velocity=95 time=0
EXTRACT: note_off channel=2 note=60 velocity=95 time=0
EXTRACT: note_off channel=2 note=53 velocity=95 time=0
EXTRACT: note_off channel=2 note=48 velocity=95 time=0
EXTRACT: note_on channel=2 note=67 velocity=95 time=0
EXTRACT: note_on channel=2 note=65 velocity=95 time=0
EXTRACT: note_on channel=2 note=60 velocity=95 time=0
EXTRACT: note_on channel=2 note=53 velocity=95 time=0
EXTRACT: note_on channel=2 note=48 velocity=95 time=0
EXTRACT: note_off channel=11 note=57 velocity=95 time=0
EXTRACT: note_on channel=11 note=55 velocity=95 time=0
EXTRACT: note_off channel=0 note=67 velocity=95 time=0.39999999999999997
EXTRACT: note_off channel=0 note=65 velocity=95 time=0
EXTRACT: note_off channel=0 note=60 velocity=95 time=0
EXTRACT: note_off channel=0 note=53 velocity=95 time=0
EXTRACT: note_off channel=0 note=48 velocity=95 time=0
EXTRACT: note_on channel=0 note=67 velocity=95 time=0
EXTRACT: note_on channel=0 note=65 velocity=95 time=0
EXTRACT: note_on channel=0 note=60 velocity=95 time=0
EXTRACT: note_on channel=0 note=53 velocity=95 time=0
EXTRACT: note_on channel=0 note=48 velocity=95 time=0
EXTRACT: note_off channel=2 note=67 velocity=95 time=0
EXTRACT: note_off channel=2 note=65 velocity=95 time=0
EXTRACT: note_off channel=2 note=60 velocity=95 time=0
EXTRACT: note_off channel=2 note=53 velocity=95 time=0
EXTRACT: note_off channel=2 note=48 velocity=95 time=0
EXTRACT: note_on channel=2 note=67 velocity=95 time=0
EXTRACT: note_on channel=2 note=65 velocity=95 time=0
EXTRACT: note_on channel=2 note=60 velocity=95 time=0
EXTRACT: note_on channel=2 note=53 velocity=95 time=0
EXTRACT: note_on channel=2 note=48 velocity=95 time=0
EXTRACT: note_off channel=11 note=55 velocity=95 time=0
EXTRACT: note_on channel=11 note=53 velocity=95 time=0
EXTRACT: note_off channel=0 note=67 velocity=95 time=0.39999999999999997
EXTRACT: note_off channel=0 note=65 velocity=95 time=0
EXTRACT: note_off channel=0 note=60 velocity=95 time=0
EXTRACT: note_off channel=0 note=53 velocity=95 time=0
EXTRACT: note_off channel=0 note=48 velocity=95 time=0
EXTRACT: note_on channel=0 note=70 velocity=95 time=0
EXTRACT: note_on channel=0 note=65 velocity=95 time=0
EXTRACT: note_on channel=0 note=62 velocity=95 time=0
EXTRACT: note_on channel=0 note=58 velocity=95 time=0
EXTRACT: note_on channel=0 note=53 velocity=95 time=0
EXTRACT: note_on channel=0 note=46 velocity=95 time=0
EXTRACT: note_off channel=2 note=67 velocity=95 time=0
EXTRACT: note_off channel=2 note=65 velocity=95 time=0
EXTRACT: note_off channel=2 note=60 velocity=95 time=0
EXTRACT: note_off channel=2 note=53 velocity=95 time=0
EXTRACT: note_off channel=2 note=48 velocity=95 time=0
EXTRACT: note_on channel=2 note=70 velocity=95 time=0
EXTRACT: note_on channel=2 note=65 velocity=95 time=0
EXTRACT: note_on channel=2 note=62 velocity=95 time=0
EXTRACT: note_on channel=2 note=58 velocity=95 time=0
EXTRACT: note_on channel=2 note=53 velocity=95 time=0
EXTRACT: note_on channel=2 note=46 velocity=95 time=0
EXTRACT: note_off channel=6 note=41 velocity=95 time=0
EXTRACT: note_on channel=6 note=46 velocity=95 time=0
EXTRACT: note_off channel=0 note=70 velocity=95 time=0.39999999999999997
EXTRACT: note_off channel=0 note=65 velocity=95 time=0
EXTRACT: note_off channel=0 note=62 velocity=95 time=0
EXTRACT: note_off channel=0 note=58 velocity=95 time=0
EXTRACT: note_off channel=0 note=53 velocity=95 time=0
EXTRACT: note_off channel=0 note=46 velocity=95 time=0
EXTRACT: note_on channel=0 note=70 velocity=95 time=0
EXTRACT: note_on channel=0 note=65 velocity=95 time=0
EXTRACT: note_on channel=0 note=62 velocity=95 time=0
EXTRACT: note_on channel=0 note=58 velocity=95 time=0
EXTRACT: note_on channel=0 note=53 velocity=95 time=0
EXTRACT: note_on channel=0 note=46 velocity=95 time=0
EXTRACT: note_off channel=2 note=70 velocity=95 time=0
EXTRACT: note_off channel=2 note=65 velocity=95 time=0
EXTRACT: note_off channel=2 note=62 velocity=95 time=0
EXTRACT: note_off channel=2 note=58 velocity=95 time=0
EXTRACT: note_off channel=2 note=53 velocity=95 time=0
EXTRACT: note_off channel=2 note=46 velocity=95 time=0
EXTRACT: note_on channel=2 note=70 velocity=95 time=0
EXTRACT: note_on channel=2 note=65 velocity=95 time=0
EXTRACT: note_on channel=2 note=62 velocity=95 time=0
EXTRACT: note_on channel=2 note=58 velocity=95 time=0
EXTRACT: note_on channel=2 note=53 velocity=95 time=0
EXTRACT: note_on channel=2 note=46 velocity=95 time=0
EXTRACT: note_off channel=0 note=70 velocity=95 time=0.39999999999999997
EXTRACT: note_off channel=0 note=65 velocity=95 time=0
EXTRACT: note_off channel=0 note=62 velocity=95 time=0
EXTRACT: note_off channel=0 note=58 velocity=95 time=0
EXTRACT: note_off channel=0 note=53 velocity=95 time=0
EXTRACT: note_off channel=0 note=46 velocity=95 time=0
EXTRACT: note_on channel=0 note=70 velocity=95 time=0
EXTRACT: note_on channel=0 note=65 velocity=95 time=0
EXTRACT: note_on channel=0 note=62 velocity=95 time=0
EXTRACT: note_on channel=0 note=58 velocity=95 time=0
EXTRACT: note_on channel=0 note=53 velocity=95 time=0
EXTRACT: note_on channel=0 note=46 velocity=95 time=0
EXTRACT: note_off channel=2 note=70 velocity=95 time=0
EXTRACT: note_off channel=2 note=65 velocity=95 time=0
EXTRACT: note_off channel=2 note=62 velocity=95 time=0
EXTRACT: note_off channel=2 note=58 velocity=95 time=0
EXTRACT: note_off channel=2 note=53 velocity=95 time=0
EXTRACT: note_off channel=2 note=46 velocity=95 time=0
EXTRACT: note_on channel=2 note=70 velocity=95 time=0
EXTRACT: note_on channel=2 note=65 velocity=95 time=0
EXTRACT: note_on channel=2 note=62 velocity=95 time=0
EXTRACT: note_on channel=2 note=58 velocity=95 time=0
EXTRACT: note_on channel=2 note=53 velocity=95 time=0
EXTRACT: note_on channel=2 note=46 velocity=95 time=0
EXTRACT: note_off channel=11 note=53 velocity=95 time=0
EXTRACT: note_off channel=0 note=70 velocity=95 time=0.39999999999999997
EXTRACT: note_off channel=0 note=65 velocity=95 time=0
EXTRACT: note_off channel=0 note=62 velocity=95 time=0
EXTRACT: note_off channel=0 note=58 velocity=95 time=0
EXTRACT: note_off channel=0 note=53 velocity=95 time=0
EXTRACT: note_off channel=0 note=46 velocity=95 time=0
EXTRACT: note_on channel=0 note=70 velocity=95 time=0
EXTRACT: note_on channel=0 note=65 velocity=95 time=0
EXTRACT: note_on channel=0 note=62 velocity=95 time=0
EXTRACT: note_on channel=0 note=58 velocity=95 time=0
EXTRACT: note_on channel=0 note=53 velocity=95 time=0
EXTRACT: note_on channel=0 note=46 velocity=95 time=0
EXTRACT: note_off channel=2 note=70 velocity=95 time=0
EXTRACT: note_off channel=2 note=65 velocity=95 time=0
EXTRACT: note_off channel=2 note=62 velocity=95 time=0
EXTRACT: note_off channel=2 note=58 velocity=95 time=0
EXTRACT: note_off channel=2 note=53 velocity=95 time=0
EXTRACT: note_off channel=2 note=46 velocity=95 time=0
EXTRACT: note_on channel=2 note=70 velocity=95 time=0
EXTRACT: note_on channel=2 note=65 velocity=95 time=0
EXTRACT: note_on channel=2 note=62 velocity=95 time=0
EXTRACT: note_on channel=2 note=58 velocity=95 time=0
EXTRACT: note_on channel=2 note=53 velocity=95 time=0
EXTRACT: note_on channel=2 note=46 velocity=95 time=0
EXTRACT: note_on channel=11 note=65 velocity=95 time=0
EXTRACT: note_off channel=0 note=70 velocity=95 time=0.39999999999999997
EXTRACT: note_off channel=0 note=65 velocity=95 time=0
EXTRACT: note_off channel=0 note=62 velocity=95 time=0
EXTRACT: note_off channel=0 note=58 velocity=95 time=0
EXTRACT: note_off channel=0 note=53 velocity=95 time=0
EXTRACT: note_off channel=0 note=46 velocity=95 time=0
EXTRACT: note_on channel=0 note=70 velocity=95 time=0
EXTRACT: note_on channel=0 note=65 velocity=95 time=0
EXTRACT: note_on channel=0 note=62 velocity=95 time=0
EXTRACT: note_on channel=0 note=58 velocity=95 time=0
EXTRACT: note_on channel=0 note=53 velocity=95 time=0
EXTRACT: note_on channel=0 note=46 velocity=95 time=0
EXTRACT: note_off channel=2 note=70 velocity=95 time=0
EXTRACT: note_off channel=2 note=65 velocity=95 time=0
EXTRACT: note_off channel=2 note=62 velocity=95 time=0
EXTRACT: note_off channel=2 note=58 velocity=95 time=0
EXTRACT: note_off channel=2 note=53 velocity=95 time=0
EXTRACT: note_off channel=2 note=46 velocity=95 time=0
EXTRACT: note_on channel=2 note=70 velocity=95 time=0
EXTRACT: note_on channel=2 note=65 velocity=95 time=0
EXTRACT: note_on channel=2 note=62 velocity=95 time=0
EXTRACT: note_on channel=2 note=58 velocity=95 time=0
EXTRACT: note_on channel=2 note=53 velocity=95 time=0
EXTRACT: note_on channel=2 note=46 velocity=95 time=0
EXTRACT: note_off channel=6 note=46 velocity=95 time=0
EXTRACT: note_on channel=6 note=46 velocity=95 time=0
EXTRACT: note_off channel=0 note=70 velocity=95 time=0.39999999999999997
EXTRACT: note_off channel=0 note=65 velocity=95 time=0
EXTRACT: note_off channel=0 note=62 velocity=95 time=0
EXTRACT: note_off channel=0 note=58 velocity=95 time=0
EXTRACT: note_off channel=0 note=53 velocity=95 time=0
EXTRACT: note_off channel=0 note=46 velocity=95 time=0
EXTRACT: note_on channel=0 note=70 velocity=95 time=0
EXTRACT: note_on channel=0 note=65 velocity=95 time=0
EXTRACT: note_on channel=0 note=62 velocity=95 time=0
EXTRACT: note_on channel=0 note=58 velocity=95 time=0
EXTRACT: note_on channel=0 note=53 velocity=95 time=0
EXTRACT: note_on channel=0 note=46 velocity=95 time=0
EXTRACT: note_off channel=2 note=70 velocity=95 time=0
EXTRACT: note_off channel=2 note=65 velocity=95 time=0
EXTRACT: note_off channel=2 note=62 velocity=95 time=0
EXTRACT: note_off channel=2 note=58 velocity=95 time=0
EXTRACT: note_off channel=2 note=53 velocity=95 time=0
EXTRACT: note_off channel=2 note=46 velocity=95 time=0
EXTRACT: note_on channel=2 note=70 velocity=95 time=0
EXTRACT: note_on channel=2 note=65 velocity=95 time=0
EXTRACT: note_on channel=2 note=62 velocity=95 time=0
EXTRACT: note_on channel=2 note=58 velocity=95 time=0
EXTRACT: note_on channel=2 note=53 velocity=95 time=0
EXTRACT: note_on channel=2 note=46 velocity=95 time=0
EXTRACT: note_off channel=11 note=65 velocity=95 time=0
EXTRACT: note_on channel=11 note=62 velocity=95 time=0
EXTRACT: note_off channel=0 note=70 velocity=95 time=0.39999999999999997
EXTRACT: note_off channel=0 note=65 velocity=95 time=0
EXTRACT: note_off channel=0 note=62 velocity=95 time=0
EXTRACT: note_off channel=0 note=58 velocity=95 time=0
EXTRACT: note_off channel=0 note=53 velocity=95 time=0
EXTRACT: note_off channel=0 note=46 velocity=95 time=0
EXTRACT: note_on channel=0 note=70 velocity=95 time=0
EXTRACT: note_on channel=0 note=65 velocity=95 time=0
EXTRACT: note_on channel=0 note=62 velocity=95 time=0
EXTRACT: note_on channel=0 note=58 velocity=95 time=0
EXTRACT: note_on channel=0 note=53 velocity=95 time=0
EXTRACT: note_on channel=0 note=46 velocity=95 time=0
EXTRACT: note_off channel=2 note=70 velocity=95 time=0
EXTRACT: note_off channel=2 note=65 velocity=95 time=0
EXTRACT: note_off channel=2 note=62 velocity=95 time=0
EXTRACT: note_off channel=2 note=58 velocity=95 time=0
EXTRACT: note_off channel=2 note=53 velocity=95 time=0
EXTRACT: note_off channel=2 note=46 velocity=95 time=0
EXTRACT: note_on channel=2 note=70 velocity=95 time=0
EXTRACT: note_on channel=2 note=65 velocity=95 time=0
EXTRACT: note_on channel=2 note=62 velocity=95 time=0
EXTRACT: note_on channel=2 note=58 velocity=95 time=0
EXTRACT: note_on channel=2 note=53 velocity=95 time=0
EXTRACT: note_on channel=2 note=46 velocity=95 time=0
EXTRACT: note_off channel=11 note=62 velocity=95 time=0
EXTRACT: note_on channel=11 note=60 velocity=95 time=0
EXTRACT: note_off channel=0 note=70 velocity=95 time=0.39999999999999997
EXTRACT: note_off channel=0 note=65 velocity=95 time=0
EXTRACT: note_off channel=0 note=62 velocity=95 time=0
EXTRACT: note_off channel=0 note=58 velocity=95 time=0
EXTRACT: note_off channel=0 note=53 velocity=95 time=0
EXTRACT: note_off channel=0 note=46 velocity=95 time=0
EXTRACT: note_on channel=0 note=70 velocity=95 time=0
EXTRACT: note_on channel=0 note=65 velocity=95 time=0
EXTRACT: note_on channel=0 note=62 velocity=95 time=0
EXTRACT: note_on channel=0 note=58 velocity=95 time=0
EXTRACT: note_on channel=0 note=53 velocity=95 time=0
EXTRACT: note_on channel=0 note=46 velocity=95 time=0
EXTRACT: note_off channel=2 note=70 velocity=95 time=0
EXTRACT: note_off channel=2 note=65 velocity=95 time=0
EXTRACT: note_off channel=2 note=62 velocity=95 time=0
EXTRACT: note_off channel=2 note=58 velocity=95 time=0
EXTRACT: note_off channel=2 note=53 velocity=95 time=0
EXTRACT: note_off channel=2 note=46 velocity=95 time=0
EXTRACT: note_on channel=2 note=70 velocity=95 time=0
EXTRACT: note_on channel=2 note=65 velocity=95 time=0
EXTRACT: note_on channel=2 note=62 velocity=95 time=0
EXTRACT: note_on channel=2 note=58 velocity=95 time=0
EXTRACT: note_on channel=2 note=53 velocity=95 time=0
EXTRACT: note_on channel=2 note=46 velocity=95 time=0
EXTRACT: note_off channel=11 note=60 velocity=95 time=0
EXTRACT: note_on channel=11 note=65 velocity=95 time=0
EXTRACT: note_off channel=0 note=70 velocity=95 time=0.39999999999999997
EXTRACT: note_off channel=0 note=65 velocity=95 time=0
EXTRACT: note_off channel=0 note=62 velocity=95 time=0
EXTRACT: note_off channel=0 note=58 velocity=95 time=0
EXTRACT: note_off channel=0 note=53 velocity=95 time=0
EXTRACT: note_off channel=0 note=46 velocity=95 time=0
EXTRACT: note_on channel=0 note=70 velocity=95 time=0
EXTRACT: note_on channel=0 note=65 velocity=95 time=0
EXTRACT: note_on channel=0 note=62 velocity=95 time=0
EXTRACT: note_on channel=0 note=58 velocity=95 time=0
EXTRACT: note_on channel=0 note=53 velocity=95 time=0
EXTRACT: note_on channel=0 note=46 velocity=95 time=0
EXTRACT: note_off channel=2 note=70 velocity=95 time=0
EXTRACT: note_off channel=2 note=65 velocity=95 time=0
EXTRACT: note_off channel=2 note=62 velocity=95 time=0
EXTRACT: note_off channel=2 note=58 velocity=95 time=0
EXTRACT: note_off channel=2 note=53 velocity=95 time=0
EXTRACT: note_off channel=2 note=46 velocity=95 time=0
EXTRACT: note_on channel=2 note=70 velocity=95 time=0
EXTRACT: note_on channel=2 note=65 velocity=95 time=0
EXTRACT: note_on channel=2 note=62 velocity=95 time=0
EXTRACT: note_on channel=2 note=58 velocity=95 time=0
EXTRACT: note_on channel=2 note=53 velocity=95 time=0
EXTRACT: note_on channel=2 note=46 velocity=95 time=0
EXTRACT: note_off channel=6 note=46 velocity=95 time=0
EXTRACT: note_on channel=6 note=46 velocity=95 time=0
EXTRACT: note_off channel=0 note=70 velocity=95 time=0.39999999999999997
EXTRACT: note_off channel=0 note=65 velocity=95 time=0
EXTRACT: note_off channel=0 note=62 velocity=95 time=0
EXTRACT: note_off channel=0 note=58 velocity=95 time=0
EXTRACT: note_off channel=0 note=53 velocity=95 time=0
EXTRACT: note_off channel=0 note=46 velocity=95 time=0
EXTRACT: note_on channel=0 note=70 velocity=95 time=0
EXTRACT: note_on channel=0 note=65 velocity=95 time=0
EXTRACT: note_on channel=0 note=62 velocity=95 time=0
EXTRACT: note_on channel=0 note=58 velocity=95 time=0
EXTRACT: note_on channel=0 note=53 velocity=95 time=0
EXTRACT: note_on channel=0 note=46 velocity=95 time=0
EXTRACT: note_off channel=2 note=70 velocity=95 time=0
EXTRACT: note_off channel=2 note=65 velocity=95 time=0
EXTRACT: note_off channel=2 note=62 velocity=95 time=0
EXTRACT: note_off channel=2 note=58 velocity=95 time=0
EXTRACT: note_off channel=2 note=53 velocity=95 time=0
EXTRACT: note_off channel=2 note=46 velocity=95 time=0
EXTRACT: note_on channel=2 note=70 velocity=95 time=0
EXTRACT: note_on channel=2 note=65 velocity=95 time=0
EXTRACT: note_on channel=2 note=62 velocity=95 time=0
EXTRACT: note_on channel=2 note=58 velocity=95 time=0
EXTRACT: note_on channel=2 note=53 velocity=95 time=0
EXTRACT: note_on channel=2 note=46 velocity=95 time=0
EXTRACT: note_off channel=11 note=65 velocity=95 time=0
EXTRACT: note_on channel=11 note=62 velocity=95 time=0
EXTRACT: note_off channel=0 note=70 velocity=95 time=0.39999999999999997
EXTRACT: note_off channel=0 note=65 velocity=95 time=0
EXTRACT: note_off channel=0 note=62 velocity=95 time=0
EXTRACT: note_off channel=0 note=58 velocity=95 time=0
EXTRACT: note_off channel=0 note=53 velocity=95 time=0
EXTRACT: note_off channel=0 note=46 velocity=95 time=0
EXTRACT: note_on channel=0 note=70 velocity=95 time=0
EXTRACT: note_on channel=0 note=65 velocity=95 time=0
EXTRACT: note_on channel=0 note=62 velocity=95 time=0
EXTRACT: note_on channel=0 note=58 velocity=95 time=0
EXTRACT: note_on channel=0 note=53 velocity=95 time=0
EXTRACT: note_on channel=0 note=46 velocity=95 time=0
EXTRACT: note_off channel=2 note=70 velocity=95 time=0
EXTRACT: note_off channel=2 note=65 velocity=95 time=0
EXTRACT: note_off channel=2 note=62 velocity=95 time=0
EXTRACT: note_off channel=2 note=58 velocity=95 time=0
EXTRACT: note_off channel=2 note=53 velocity=95 time=0
EXTRACT: note_off channel=2 note=46 velocity=95 time=0
EXTRACT: note_on channel=2 note=70 velocity=95 time=0
EXTRACT: note_on channel=2 note=65 velocity=95 time=0
EXTRACT: note_on channel=2 note=62 velocity=95 time=0
EXTRACT: note_on channel=2 note=58 velocity=95 time=0
EXTRACT: note_on channel=2 note=53 velocity=95 time=0
EXTRACT: note_on channel=2 note=46 velocity=95 time=0
EXTRACT: note_off channel=11 note=62 velocity=95 time=0
EXTRACT: note_on channel=11 note=60 velocity=95 time=0
EXTRACT: note_off channel=0 note=70 velocity=95 time=0.39999999999999997
EXTRACT: note_off channel=0 note=65 velocity=95 time=0
EXTRACT: note_off channel=0 note=62 velocity=95 time=0
EXTRACT: note_off channel=0 note=58 velocity=95 time=0
EXTRACT: note_off channel=0 note=53 velocity=95 time=0
EXTRACT: note_off channel=0 note=46 velocity=95 time=0
EXTRACT: note_on channel=0 note=70 velocity=95 time=0
EXTRACT: note_on channel=0 note=65 velocity=95 time=0
EXTRACT: note_on channel=0 note=62 velocity=95 time=0
EXTRACT: note_on channel=0 note=58 velocity=95 time=0
EXTRACT: note_on channel=0 note=53 velocity=95 time=0
EXTRACT: note_on channel=0 note=46 velocity=95 time=0
EXTRACT: note_off channel=2 note=70 velocity=95 time=0
EXTRACT: note_off channel=2 note=65 velocity=95 time=0
EXTRACT: note_off channel=2 note=62 velocity=95 time=0
EXTRACT: note_off channel=2 note=58 velocity=95 time=0
EXTRACT: note_off channel=2 note=53 velocity=95 time=0
EXTRACT: note_off channel=2 note=46 velocity=95 time=0
EXTRACT: note_on channel=2 note=70 velocity=95 time=0
EXTRACT: note_on channel=2 note=65 velocity=95 time=0
EXTRACT: note_on channel=2 note=62 velocity=95 time=0
EXTRACT: note_on channel=2 note=58 velocity=95 time=0
EXTRACT: note_on channel=2 note=53 velocity=95 time=0
EXTRACT: note_on channel=2 note=46 velocity=95 time=0
EXTRACT: note_off channel=11 note=60 velocity=95 time=0
EXTRACT: note_on channel=11 note=65 velocity=95 time=0
EXTRACT: note_off channel=0 note=70 velocity=95 time=0.39999999999999997
EXTRACT: note_off channel=0 note=65 velocity=95 time=0
EXTRACT: note_off channel=0 note=62 velocity=95 time=0
EXTRACT: note_off channel=0 note=58 velocity=95 time=0
EXTRACT: note_off channel=0 note=53 velocity=95 time=0
EXTRACT: note_off channel=0 note=46 velocity=95 time=0
EXTRACT: note_on channel=0 note=70 velocity=95 time=0
EXTRACT: note_on channel=0 note=65 velocity=95 time=0
EXTRACT: note_on channel=0 note=62 velocity=95 time=0
EXTRACT: note_on channel=0 note=58 velocity=95 time=0
EXTRACT: note_on channel=0 note=53 velocity=95 time=0
EXTRACT: note_on channel=0 note=46 velocity=95 time=0
EXTRACT: note_off channel=2 note=70 velocity=95 time=0
EXTRACT: note_off channel=2 note=65 velocity=95 time=0
EXTRACT: note_off channel=2 note=62 velocity=95 time=0
EXTRACT: note_off channel=2 note=58 velocity=95 time=0
EXTRACT: note_off channel=2 note=53 velocity=95 time=0
EXTRACT: note_off channel=2 note=46 velocity=95 time=0
EXTRACT: note_on channel=2 note=70 velocity=95 time=0
EXTRACT: note_on channel=2 note=65 velocity=95 time=0
EXTRACT: note_on channel=2 note=62 velocity=95 time=0
EXTRACT: note_on channel=2 note=58 velocity=95 time=0
EXTRACT: note_on channel=2 note=53 velocity=95 time=0
EXTRACT: note_on channel=2 note=46 velocity=95 time=0
EXTRACT: note_off channel=6 note=46 velocity=95 time=0
EXTRACT: note_on channel=6 note=46 velocity=95 time=0
EXTRACT: note_off channel=0 note=70 velocity=95 time=0.39999999999999997
EXTRACT: note_off channel=0 note=65 velocity=95 time=0
EXTRACT: note_off channel=0 note=62 velocity=95 time=0
EXTRACT: note_off channel=0 note=58 velocity=95 time=0
EXTRACT: note_off channel=0 note=53 velocity=95 time=0
EXTRACT: note_off channel=0 note=46 velocity=95 time=0
EXTRACT: note_on channel=0 note=70 velocity=95 time=0
EXTRACT: note_on channel=0 note=65 velocity=95 time=0
EXTRACT: note_on channel=0 note=62 velocity=95 time=0
EXTRACT: note_on channel=0 note=58 velocity=95 time=0
EXTRACT: note_on channel=0 note=53 velocity=95 time=0
EXTRACT: note_on channel=0 note=46 velocity=95 time=0
EXTRACT: note_off channel=2 note=70 velocity=95 time=0
EXTRACT: note_off channel=2 note=65 velocity=95 time=0
EXTRACT: note_off channel=2 note=62 velocity=95 time=0
EXTRACT: note_off channel=2 note=58 velocity=95 time=0
EXTRACT: note_off channel=2 note=53 velocity=95 time=0
EXTRACT: note_off channel=2 note=46 velocity=95 time=0
EXTRACT: note_on channel=2 note=70 velocity=95 time=0
EXTRACT: note_on channel=2 note=65 velocity=95 time=0
EXTRACT: note_on channel=2 note=62 velocity=95 time=0
EXTRACT: note_on channel=2 note=58 velocity=95 time=0
EXTRACT: note_on channel=2 note=53 velocity=95 time=0
EXTRACT: note_on channel=2 note=46 velocity=95 time=0
EXTRACT: note_off channel=11 note=65 velocity=95 time=0
EXTRACT: note_on channel=11 note=62 velocity=95 time=0
EXTRACT: note_off channel=11 note=62 velocity=95 time=0.19999999999999998
EXTRACT: note_on channel=11 note=60 velocity=95 time=0
EXTRACT: note_off channel=0 note=70 velocity=95 time=0.19999999999999998
EXTRACT: note_off channel=0 note=65 velocity=95 time=0
EXTRACT: note_off channel=0 note=62 velocity=95 time=0
EXTRACT: note_off channel=0 note=58 velocity=95 time=0
EXTRACT: note_off channel=0 note=53 velocity=95 time=0
EXTRACT: note_off channel=0 note=46 velocity=95 time=0
EXTRACT: note_on channel=0 note=70 velocity=95 time=0
EXTRACT: note_on channel=0 note=65 velocity=95 time=0
EXTRACT: note_on channel=0 note=62 velocity=95 time=0
EXTRACT: note_on channel=0 note=58 velocity=95 time=0
EXTRACT: note_on channel=0 note=53 velocity=95 time=0
EXTRACT: note_on channel=0 note=46 velocity=95 time=0
EXTRACT: note_off channel=2 note=70 velocity=95 time=0
EXTRACT: note_off channel=2 note=65 velocity=95 time=0
EXTRACT: note_off channel=2 note=62 velocity=95 time=0
EXTRACT: note_off channel=2 note=58 velocity=95 time=0
EXTRACT: note_off channel=2 note=53 velocity=95 time=0
EXTRACT: note_off channel=2 note=46 velocity=95 time=0
EXTRACT: note_on channel=2 note=70 velocity=111 time=0
EXTRACT: note_off channel=0 note=70 velocity=95 time=0.39999999999999997
EXTRACT: note_off channel=0 note=65 velocity=95 time=0
EXTRACT: note_off channel=0 note=62 velocity=95 time=0
EXTRACT: note_off channel=0 note=58 velocity=95 time=0
EXTRACT: note_off channel=0 note=53 velocity=95 time=0
EXTRACT: note_off channel=0 note=46 velocity=95 time=0
EXTRACT: note_on channel=0 note=70 velocity=95 time=0
EXTRACT: note_on channel=0 note=65 velocity=95 time=0
EXTRACT: note_on channel=0 note=62 velocity=95 time=0
EXTRACT: note_on channel=0 note=58 velocity=95 time=0
EXTRACT: note_on channel=0 note=53 velocity=95 time=0
EXTRACT: note_on channel=0 note=46 velocity=95 time=0
EXTRACT: note_off channel=2 note=70 velocity=111 time=0
EXTRACT: note_on channel=2 note=72 velocity=111 time=0
EXTRACT: note_off channel=0 note=70 velocity=95 time=0.39999999999999997
EXTRACT: note_off channel=0 note=65 velocity=95 time=0
EXTRACT: note_off channel=0 note=62 velocity=95 time=0
EXTRACT: note_off channel=0 note=58 velocity=95 time=0
EXTRACT: note_off channel=0 note=53 velocity=95 time=0
EXTRACT: note_off channel=0 note=46 velocity=95 time=0
EXTRACT: note_on channel=0 note=69 velocity=95 time=0
EXTRACT: note_on channel=0 note=65 velocity=95 time=0
EXTRACT: note_on channel=0 note=60 velocity=95 time=0
EXTRACT: note_on channel=0 note=53 velocity=95 time=0
EXTRACT: note_on channel=0 note=48 velocity=95 time=0
EXTRACT: note_off channel=2 note=72 velocity=111 time=0
EXTRACT: note_on channel=2 note=69 velocity=95 time=0
EXTRACT: note_on channel=2 note=65 velocity=95 time=0
EXTRACT: note_on channel=2 note=60 velocity=95 time=0
EXTRACT: note_on channel=2 note=53 velocity=95 time=0
EXTRACT: note_on channel=2 note=48 velocity=95 time=0
EXTRACT: note_off channel=6 note=46 velocity=95 time=0
EXTRACT: note_on channel=6 note=41 velocity=95 time=0
EXTRACT: note_off channel=11 note=60 velocity=95 time=0
EXTRACT: note_off channel=0 note=69 velocity=95 time=0.39999999999999997
EXTRACT: note_off channel=0 note=65 velocity=95 time=0
EXTRACT: note_off channel=0 note=60 velocity=95 time=0
EXTRACT: note_off channel=0 note=53 velocity=95 time=0
EXTRACT: note_off channel=0 note=48 velocity=95 time=0
EXTRACT: note_on channel=0 note=69 velocity=95 time=0
EXTRACT: note_on channel=0 note=65 velocity=95 time=0
EXTRACT: note_on channel=0 note=60 velocity=95 time=0
EXTRACT: note_on channel=0 note=53 velocity=95 time=0
EXTRACT: note_on channel=0 note=48 velocity=95 time=0
EXTRACT: note_off channel=2 note=69 velocity=95 time=0
EXTRACT: note_off channel=2 note=65 velocity=95 time=0
EXTRACT: note_off channel=2 note=60 velocity=95 time=0
EXTRACT: note_off channel=2 note=53 velocity=95 time=0
EXTRACT: note_off channel=2 note=48 velocity=95 time=0
EXTRACT: note_on channel=2 note=69 velocity=95 time=0
EXTRACT: note_on channel=2 note=65 velocity=95 time=0
EXTRACT: note_on channel=2 note=60 velocity=95 time=0
EXTRACT: note_on channel=2 note=53 velocity=95 time=0
EXTRACT: note_on channel=2 note=48 velocity=95 time=0
EXTRACT: note_off channel=0 note=69 velocity=95 time=0.39999999999999997
EXTRACT: note_off channel=0 note=65 velocity=95 time=0
EXTRACT: note_off channel=0 note=60 velocity=95 time=0
EXTRACT: note_off channel=0 note=53 velocity=95 time=0
EXTRACT: note_off channel=0 note=48 velocity=95 time=0
EXTRACT: note_on channel=0 note=69 velocity=95 time=0
EXTRACT: note_on channel=0 note=65 velocity=95 time=0
EXTRACT: note_on channel=0 note=60 velocity=95 time=0
EXTRACT: note_on channel=0 note=53 velocity=95 time=0
EXTRACT: note_on channel=0 note=48 velocity=95 time=0
EXTRACT: note_off channel=2 note=69 velocity=95 time=0
EXTRACT: note_off channel=2 note=65 velocity=95 time=0
EXTRACT: note_off channel=2 note=60 velocity=95 time=0
EXTRACT: note_off channel=2 note=53 velocity=95 time=0
EXTRACT: note_off channel=2 note=48 velocity=95 time=0
EXTRACT: note_on channel=2 note=69 velocity=95 time=0
EXTRACT: note_on channel=2 note=65 velocity=95 time=0
EXTRACT: note_on channel=2 note=60 velocity=95 time=0
EXTRACT: note_on channel=2 note=53 velocity=95 time=0
EXTRACT: note_on channel=2 note=48 velocity=95 time=0
EXTRACT: note_off channel=0 note=69 velocity=95 time=0.39999999999999997
EXTRACT: note_off channel=0 note=65 velocity=95 time=0
EXTRACT: note_off channel=0 note=60 velocity=95 time=0
EXTRACT: note_off channel=0 note=53 velocity=95 time=0
EXTRACT: note_off channel=0 note=48 velocity=95 time=0
EXTRACT: note_on channel=0 note=69 velocity=95 time=0
EXTRACT: note_on channel=0 note=65 velocity=95 time=0
EXTRACT: note_on channel=0 note=60 velocity=95 time=0
EXTRACT: note_on channel=0 note=53 velocity=95 time=0
EXTRACT: note_on channel=0 note=48 velocity=95 time=0
EXTRACT: note_off channel=2 note=69 velocity=95 time=0
EXTRACT: note_off channel=2 note=65 velocity=95 time=0
EXTRACT: note_off channel=2 note=60 velocity=95 time=0
EXTRACT: note_off channel=2 note=53 velocity=95 time=0
EXTRACT: note_off channel=2 note=48 velocity=95 time=0
EXTRACT: note_on channel=2 note=69 velocity=95 time=0
EXTRACT: note_on channel=2 note=65 velocity=95 time=0
EXTRACT: note_on channel=2 note=60 velocity=95 time=0
EXTRACT: note_on channel=2 note=53 velocity=95 time=0
EXTRACT: note_on channel=2 note=48 velocity=95 time=0
EXTRACT: note_on channel=11 note=57 velocity=95 time=0
EXTRACT: note_off channel=0 note=69 velocity=95 time=0.39999999999999997
EXTRACT: note_off channel=0 note=65 velocity=95 time=0
EXTRACT: note_off channel=0 note=60 velocity=95 time=0
EXTRACT: note_off channel=0 note=53 velocity=95 time=0
EXTRACT: note_off channel=0 note=48 velocity=95 time=0
EXTRACT: note_on channel=0 note=69 velocity=95 time=0
EXTRACT: note_on channel=0 note=65 velocity=95 time=0
EXTRACT: note_on channel=0 note=60 velocity=95 time=0
EXTRACT: note_on channel=0 note=53 velocity=95 time=0
EXTRACT: note_on channel=0 note=48 velocity=95 time=0
EXTRACT: note_off channel=2 note=69 velocity=95 time=0
EXTRACT: note_off channel=2 note=65 velocity=95 time=0
EXTRACT: note_off channel=2 note=60 velocity=95 time=0
EXTRACT: note_off channel=2 note=53 velocity=95 time=0
EXTRACT: note_off channel=2 note=48 velocity=95 time=0
EXTRACT: note_on channel=2 note=69 velocity=95 time=0
EXTRACT: note_on channel=2 note=65 velocity=95 time=0
EXTRACT: note_on channel=2 note=60 velocity=95 time=0
EXTRACT: note_on channel=2 note=53 velocity=95 time=0
EXTRACT: note_on channel=2 note=48 velocity=95 time=0
EXTRACT: note_off channel=6 note=41 velocity=95 time=0
EXTRACT: note_on channel=6 note=41 velocity=95 time=0
EXTRACT: note_off channel=0 note=69 velocity=95 time=0.39999999999999997
EXTRACT: note_off channel=0 note=65 velocity=95 time=0
EXTRACT: note_off channel=0 note=60 velocity=95 time=0
EXTRACT: note_off channel=0 note=53 velocity=95 time=0
EXTRACT: note_off channel=0 note=48 velocity=95 time=0
EXTRACT: note_on channel=0 note=69 velocity=95 time=0
EXTRACT: note_on channel=0 note=65 velocity=95 time=0
EXTRACT: note_on channel=0 note=60 velocity=95 time=0
EXTRACT: note_on channel=0 note=53 velocity=95 time=0
EXTRACT: note_on channel=0 note=48 velocity=95 time=0
EXTRACT: note_off channel=2 note=69 velocity=95 time=0
EXTRACT: note_off channel=2 note=65 velocity=95 time=0
EXTRACT: note_off channel=2 note=60 velocity=95 time=0
EXTRACT: note_off channel=2 note=53 velocity=95 time=0
EXTRACT: note_off channel=2 note=48 velocity=95 time=0
EXTRACT: note_on channel=2 note=69 velocity=95 time=0
EXTRACT: note_on channel=2 note=65 velocity=95 time=0
EXTRACT: note_on channel=2 note=60 velocity=95 time=0
EXTRACT: note_on channel=2 note=53 velocity=95 time=0
EXTRACT: note_on channel=2 note=48 velocity=95 time=0
EXTRACT: note_off channel=11 note=57 velocity=95 time=0
EXTRACT: note_on channel=11 note=60 velocity=95 time=0
EXTRACT: note_off channel=0 note=69 velocity=95 time=0.39999999999999997
EXTRACT: note_off channel=0 note=65 velocity=95 time=0
EXTRACT: note_off channel=0 note=60 velocity=95 time=0
EXTRACT: note_off channel=0 note=53 velocity=95 time=0
EXTRACT: note_off channel=0 note=48 velocity=95 time=0
EXTRACT: note_on channel=0 note=69 velocity=95 time=0
EXTRACT: note_on channel=0 note=65 velocity=95 time=0
EXTRACT: note_on channel=0 note=60 velocity=95 time=0
EXTRACT: note_on channel=0 note=53 velocity=95 time=0
EXTRACT: note_on channel=0 note=48 velocity=95 time=0
EXTRACT: note_off channel=2 note=69 velocity=95 time=0
EXTRACT: note_off channel=2 note=65 velocity=95 time=0
EXTRACT: note_off channel=2 note=60 velocity=95 time=0
EXTRACT: note_off channel=2 note=53 velocity=95 time=0
EXTRACT: note_off channel=2 note=48 velocity=95 time=0
EXTRACT: note_on channel=2 note=69 velocity=95 time=0
EXTRACT: note_on channel=2 note=65 velocity=95 time=0
EXTRACT: note_on channel=2 note=60 velocity=95 time=0
EXTRACT: note_on channel=2 note=53 velocity=95 time=0
EXTRACT: note_on channel=2 note=48 velocity=95 time=0
EXTRACT: note_off channel=11 note=60 velocity=95 time=0
EXTRACT: note_on channel=11 note=60 velocity=95 time=0
EXTRACT: note_off channel=0 note=69 velocity=95 time=0.39999999999999997
EXTRACT: note_off channel=0 note=65 velocity=95 time=0
EXTRACT: note_off channel=0 note=60 velocity=95 time=0
EXTRACT: note_off channel=0 note=53 velocity=95 time=0
EXTRACT: note_off channel=0 note=48 velocity=95 time=0
EXTRACT: note_on channel=0 note=69 velocity=95 time=0
EXTRACT: note_on channel=0 note=65 velocity=95 time=0
EXTRACT: note_on channel=0 note=60 velocity=95 time=0
EXTRACT: note_on channel=0 note=53 velocity=95 time=0
EXTRACT: note_on channel=0 note=48 velocity=95 time=0
EXTRACT: note_off channel=2 note=69 velocity=95 time=0
EXTRACT: note_off channel=2 note=65 velocity=95 time=0
EXTRACT: note_off channel=2 note=60 velocity=95 time=0
EXTRACT: note_off channel=2 note=53 velocity=95 time=0
EXTRACT: note_off channel=2 note=48 velocity=95 time=0
EXTRACT: note_on channel=2 note=69 velocity=95 time=0
EXTRACT: note_on channel=2 note=65 velocity=95 time=0
EXTRACT: note_on channel=2 note=60 velocity=95 time=0
EXTRACT: note_on channel=2 note=53 velocity=95 time=0
EXTRACT: note_on channel=2 note=48 velocity=95 time=0
EXTRACT: note_off channel=11 note=60 velocity=95 time=0
EXTRACT: note_on channel=11 note=57 velocity=95 time=0
EXTRACT: note_off channel=0 note=69 velocity=95 time=0.39999999999999997
EXTRACT: note_off channel=0 note=65 velocity=95 time=0
EXTRACT: note_off channel=0 note=60 velocity=95 time=0
EXTRACT: note_off channel=0 note=53 velocity=95 time=0
EXTRACT: note_off channel=0 note=48 velocity=95 time=0
EXTRACT: note_on channel=0 note=67 velocity=95 time=0
EXTRACT: note_on channel=0 note=65 velocity=95 time=0
EXTRACT: note_on channel=0 note=60 velocity=95 time=0
EXTRACT: note_on channel=0 note=53 velocity=95 time=0
EXTRACT: note_on channel=0 note=48 velocity=95 time=0
EXTRACT: note_off channel=2 note=69 velocity=95 time=0
EXTRACT: note_off channel=2 note=65 velocity=95 time=0
EXTRACT: note_off channel=2 note=60 velocity=95 time=0
EXTRACT: note_off channel=2 note=53 velocity=95 time=0
EXTRACT: note_off channel=2 note=48 velocity=95 time=0
EXTRACT: note_on channel=2 note=67 velocity=95 time=0
EXTRACT: note_on channel=2 note=65 velocity=95 time=0
EXTRACT: note_on channel=2 note=60 velocity=95 time=0
EXTRACT: note_on channel=2 note=53 velocity=95 time=0
EXTRACT: note_on channel=2 note=48 velocity=95 time=0
EXTRACT: note_off channel=6 note=41 velocity=95 time=0
EXTRACT: note_on channel=6 note=41 velocity=95 time=0
EXTRACT: note_off channel=11 note=57 velocity=95 time=0
EXTRACT: note_on channel=11 note=60 velocity=95 time=0
EXTRACT: note_off channel=11 note=60 velocity=95 time=0.19999999999999998
EXTRACT: note_on channel=11 note=57 velocity=95 time=0
EXTRACT: note_off channel=0 note=67 velocity=95 time=0.19999999999999998
EXTRACT: note_off channel=0 note=65 velocity=95 time=0
EXTRACT: note_off channel=0 note=60 velocity=95 time=0
EXTRACT: note_off channel=0 note=53 velocity=95 time=0
EXTRACT: note_off channel=0 note=48 velocity=95 time=0
EXTRACT: note_on channel=0 note=67 velocity=95 time=0
EXTRACT: note_on channel=0 note=65 velocity=95 time=0
EXTRACT: note_on channel=0 note=60 velocity=95 time=0
EXTRACT: note_on channel=0 note=53 velocity=95 time=0
EXTRACT: note_on channel=0 note=48 velocity=95 time=0
EXTRACT: note_off channel=2 note=67 velocity=95 time=0
EXTRACT: note_off channel=2 note=65 velocity=95 time=0
EXTRACT: note_off channel=2 note=60 velocity=95 time=0
EXTRACT: note_off channel=2 note=53 velocity=95 time=0
EXTRACT: note_off channel=2 note=48 velocity=95 time=0
EXTRACT: note_on channel=2 note=67 velocity=95 time=0
EXTRACT: note_on channel=2 note=65 velocity=95 time=0
EXTRACT: note_on channel=2 note=60 velocity=95 time=0
EXTRACT: note_on channel=2 note=53 velocity=95 time=0
EXTRACT: note_on channel=2 note=48 velocity=95 time=0
EXTRACT: note_off channel=0 note=67 velocity=95 time=0.39999999999999997
EXTRACT: note_off channel=0 note=65 velocity=95 time=0
EXTRACT: note_off channel=0 note=60 velocity=95 time=0
EXTRACT: note_off channel=0 note=53 velocity=95 time=0
EXTRACT: note_off channel=0 note=48 velocity=95 time=0
EXTRACT: note_on channel=0 note=67 velocity=95 time=0
EXTRACT: note_on channel=0 note=65 velocity=95 time=0
EXTRACT: note_on channel=0 note=60 velocity=95 time=0
EXTRACT: note_on channel=0 note=53 velocity=95 time=0
EXTRACT: note_on channel=0 note=48 velocity=95 time=0
EXTRACT: note_off channel=2 note=67 velocity=95 time=0
EXTRACT: note_off channel=2 note=65 velocity=95 time=0
EXTRACT: note_off channel=2 note=60 velocity=95 time=0
EXTRACT: note_off channel=2 note=53 velocity=95 time=0
EXTRACT: note_off channel=2 note=48 velocity=95 time=0
EXTRACT: note_on channel=2 note=67 velocity=95 time=0
EXTRACT: note_on channel=2 note=65 velocity=95 time=0
EXTRACT: note_on channel=2 note=60 velocity=95 time=0
EXTRACT: note_on channel=2 note=53 velocity=95 time=0
EXTRACT: note_on channel=2 note=48 velocity=95 time=0
EXTRACT: note_off channel=11 note=57 velocity=95 time=0
EXTRACT: note_on channel=11 note=57 velocity=95 time=0
EXTRACT: note_off channel=0 note=67 velocity=95 time=0.39999999999999997
EXTRACT: note_off channel=0 note=65 velocity=95 time=0
EXTRACT: note_off channel=0 note=60 velocity=95 time=0
EXTRACT: note_off channel=0 note=53 velocity=95 time=0
EXTRACT: note_off channel=0 note=48 velocity=95 time=0
EXTRACT: note_on channel=0 note=67 velocity=95 time=0
EXTRACT: note_on channel=0 note=65 velocity=95 time=0
EXTRACT: note_on channel=0 note=60 velocity=95 time=0
EXTRACT: note_on channel=0 note=53 velocity=95 time=0
EXTRACT: note_on channel=0 note=48 velocity=95 time=0
EXTRACT: note_off channel=2 note=67 velocity=95 time=0
EXTRACT: note_off channel=2 note=65 velocity=95 time=0
EXTRACT: note_off channel=2 note=60 velocity=95 time=0
EXTRACT: note_off channel=2 note=53 velocity=95 time=0
EXTRACT: note_off channel=2 note=48 velocity=95 time=0
EXTRACT: note_on channel=2 note=67 velocity=95 time=0
EXTRACT: note_on channel=2 note=65 velocity=95 time=0
EXTRACT: note_on channel=2 note=60 velocity=95 time=0
EXTRACT: note_on channel=2 note=53 velocity=95 time=0
EXTRACT: note_on channel=2 note=48 velocity=95 time=0
EXTRACT: note_off channel=11 note=57 velocity=95 time=0
EXTRACT: note_on channel=11 note=57 velocity=95 time=0
EXTRACT: note_off channel=0 note=67 velocity=95 time=0.39999999999999997
EXTRACT: note_off channel=0 note=65 velocity=95 time=0
EXTRACT: note_off channel=0 note=60 velocity=95 time=0
EXTRACT: note_off channel=0 note=53 velocity=95 time=0
EXTRACT: note_off channel=0 note=48 velocity=95 time=0
EXTRACT: note_on channel=0 note=67 velocity=95 time=0
EXTRACT: note_on channel=0 note=65 velocity=95 time=0
EXTRACT: note_on channel=0 note=60 velocity=95 time=0
EXTRACT: note_on channel=0 note=53 velocity=95 time=0
EXTRACT: note_on channel=0 note=48 velocity=95 time=0
EXTRACT: note_off channel=2 note=67 velocity=95 time=0
EXTRACT: note_off channel=2 note=65 velocity=95 time=0
EXTRACT: note_off channel=2 note=60 velocity=95 time=0
EXTRACT: note_off channel=2 note=53 velocity=95 time=0
EXTRACT: note_off channel=2 note=48 velocity=95 time=0
EXTRACT: note_on channel=2 note=67 velocity=95 time=0
EXTRACT: note_on channel=2 note=65 velocity=95 time=0
EXTRACT: note_on channel=2 note=60 velocity=95 time=0
EXTRACT: note_on channel=2 note=53 velocity=95 time=0
EXTRACT: note_on channel=2 note=48 velocity=95 time=0
EXTRACT: note_off channel=6 note=41 velocity=95 time=0
EXTRACT: note_on channel=6 note=41 velocity=95 time=0
EXTRACT: note_off channel=11 note=57 velocity=95 time=0
EXTRACT: note_on channel=11 note=57 velocity=95 time=0
EXTRACT: note_off channel=0 note=67 velocity=95 time=0.39999999999999997
EXTRACT: note_off channel=0 note=65 velocity=95 time=0
EXTRACT: note_off channel=0 note=60 velocity=95 time=0
EXTRACT: note_off channel=0 note=53 velocity=95 time=0
EXTRACT: note_off channel=0 note=48 velocity=95 time=0
EXTRACT: note_on channel=0 note=67 velocity=95 time=0
EXTRACT: note_on channel=0 note=65 velocity=95 time=0
EXTRACT: note_on channel=0 note=60 velocity=95 time=0
EXTRACT: note_on channel=0 note=53 velocity=95 time=0
EXTRACT: note_on channel=0 note=48 velocity=95 time=0
EXTRACT: note_off channel=2 note=67 velocity=95 time=0
EXTRACT: note_off channel=2 note=65 velocity=95 time=0
EXTRACT: note_off channel=2 note=60 velocity=95 time=0
EXTRACT: note_off channel=2 note=53 velocity=95 time=0
EXTRACT: note_off channel=2 note=48 velocity=95 time=0
EXTRACT: note_on channel=2 note=67 velocity=95 time=0
EXTRACT: note_on channel=2 note=65 velocity=95 time=0
EXTRACT: note_on channel=2 note=60 velocity=95 time=0
EXTRACT: note_on channel=2 note=53 velocity=95 time=0
EXTRACT: note_on channel=2 note=48 velocity=95 time=0
EXTRACT: note_off channel=11 note=57 velocity=95 time=0
EXTRACT: note_on channel=11 note=57 velocity=95 time=0
EXTRACT: note_off channel=0 note=67 velocity=95 time=0.39999999999999997
EXTRACT: note_off channel=0 note=65 velocity=95 time=0
EXTRACT: note_off channel=0 note=60 velocity=95 time=0
EXTRACT: note_off channel=0 note=53 velocity=95 time=0
EXTRACT: note_off channel=0 note=48 velocity=95 time=0
EXTRACT: note_on channel=0 note=67 velocity=95 time=0
EXTRACT: note_on channel=0 note=65 velocity=95 time=0
EXTRACT: note_on channel=0 note=60 velocity=95 time=0
EXTRACT: note_on channel=0 note=53 velocity=95 time=0
EXTRACT: note_on channel=0 note=48 velocity=95 time=0
EXTRACT: note_off channel=2 note=67 velocity=95 time=0
EXTRACT: note_off channel=2 note=65 velocity=95 time=0
EXTRACT: note_off channel=2 note=60 velocity=95 time=0
EXTRACT: note_off channel=2 note=53 velocity=95 time=0
EXTRACT: note_off channel=2 note=48 velocity=95 time=0
EXTRACT: note_on channel=2 note=67 velocity=95 time=0
EXTRACT: note_on channel=2 note=65 velocity=95 time=0
EXTRACT: note_on channel=2 note=60 velocity=95 time=0
EXTRACT: note_on channel=2 note=53 velocity=95 time=0
EXTRACT: note_on channel=2 note=48 velocity=95 time=0
EXTRACT: note_off channel=11 note=57 velocity=95 time=0
EXTRACT: note_on channel=11 note=55 velocity=95 time=0
EXTRACT: note_off channel=0 note=67 velocity=95 time=0.39999999999999997
EXTRACT: note_off channel=0 note=65 velocity=95 time=0
EXTRACT: note_off channel=0 note=60 velocity=95 time=0
EXTRACT: note_off channel=0 note=53 velocity=95 time=0
EXTRACT: note_off channel=0 note=48 velocity=95 time=0
EXTRACT: note_on channel=0 note=67 velocity=95 time=0
EXTRACT: note_on channel=0 note=65 velocity=95 time=0
EXTRACT: note_on channel=0 note=60 velocity=95 time=0
EXTRACT: note_on channel=0 note=53 velocity=95 time=0
EXTRACT: note_on channel=0 note=48 velocity=95 time=0
EXTRACT: note_off channel=2 note=67 velocity=95 time=0
EXTRACT: note_off channel=2 note=65 velocity=95 time=0
EXTRACT: note_off channel=2 note=60 velocity=95 time=0
EXTRACT: note_off channel=2 note=53 velocity=95 time=0
EXTRACT: note_off channel=2 note=48 velocity=95 time=0
EXTRACT: note_on channel=2 note=67 velocity=95 time=0
EXTRACT: note_on channel=2 note=65 velocity=95 time=0
EXTRACT: note_on channel=2 note=60 velocity=95 time=0
EXTRACT: note_on channel=2 note=53 velocity=95 time=0
EXTRACT: note_on channel=2 note=48 velocity=95 time=0
EXTRACT: note_off channel=11 note=55 velocity=95 time=0
EXTRACT: note_on channel=11 note=53 velocity=95 time=0
EXTRACT: note_off channel=0 note=67 velocity=95 time=0.39999999999999997
EXTRACT: note_off channel=0 note=65 velocity=95 time=0
EXTRACT: note_off channel=0 note=60 velocity=95 time=0
EXTRACT: note_off channel=0 note=53 velocity=95 time=0
EXTRACT: note_off channel=0 note=48 velocity=95 time=0
EXTRACT: note_on channel=0 note=72 velocity=95 time=0
EXTRACT: note_on channel=0 note=67 velocity=95 time=0
EXTRACT: note_on channel=0 note=64 velocity=95 time=0
EXTRACT: note_on channel=0 note=60 velocity=95 time=0
EXTRACT: note_on channel=0 note=55 velocity=95 time=0
EXTRACT: note_on channel=0 note=48 velocity=95 time=0
EXTRACT: note_off channel=2 note=67 velocity=95 time=0
EXTRACT: note_off channel=2 note=65 velocity=95 time=0
EXTRACT: note_off channel=2 note=60 velocity=95 time=0
EXTRACT: note_off channel=2 note=53 velocity=95 time=0
EXTRACT: note_off channel=2 note=48 velocity=95 time=0
EXTRACT: note_on channel=2 note=72 velocity=95 time=0
EXTRACT: note_on channel=2 note=67 velocity=95 time=0
EXTRACT: note_on channel=2 note=64 velocity=95 time=0
EXTRACT: note_on channel=2 note=60 velocity=95 time=0
EXTRACT: note_on channel=2 note=55 velocity=95 time=0
EXTRACT: note_on channel=2 note=48 velocity=95 time=0
EXTRACT: note_off channel=6 note=41 velocity=95 time=0
EXTRACT: note_on channel=6 note=48 velocity=95 time=0
EXTRACT: note_off channel=11 note=53 velocity=95 time=0
EXTRACT: note_on channel=11 note=52 velocity=95 time=0
EXTRACT: note_off channel=0 note=72 velocity=95 time=0.39999999999999997
EXTRACT: note_off channel=0 note=67 velocity=95 time=0
EXTRACT: note_off channel=0 note=64 velocity=95 time=0
EXTRACT: note_off channel=0 note=60 velocity=95 time=0
EXTRACT: note_off channel=0 note=55 velocity=95 time=0
EXTRACT: note_off channel=0 note=48 velocity=95 time=0
EXTRACT: note_on channel=0 note=72 velocity=95 time=0
EXTRACT: note_on channel=0 note=67 velocity=95 time=0
EXTRACT: note_on channel=0 note=64 velocity=95 time=0
EXTRACT: note_on channel=0 note=60 velocity=95 time=0
EXTRACT: note_on channel=0 note=55 velocity=95 time=0
EXTRACT: note_on channel=0 note=48 velocity=95 time=0
EXTRACT: note_off channel=2 note=72 velocity=95 time=0
EXTRACT: note_off channel=2 note=67 velocity=95 time=0
EXTRACT: note_off channel=2 note=64 velocity=95 time=0
EXTRACT: note_off channel=2 note=60 velocity=95 time=0
EXTRACT: note_off channel=2 note=55 velocity=95 time=0
EXTRACT: note_off channel=2 note=48 velocity=95 time=0
EXTRACT: note_on channel=2 note=72 velocity=95 time=0
EXTRACT: note_on channel=2 note=67 velocity=95 time=0
EXTRACT: note_on channel=2 note=64 velocity=95 time=0
EXTRACT: note_on channel=2 note=60 velocity=95 time=0
EXTRACT: note_on channel=2 note=55 velocity=95 time=0
EXTRACT: note_on channel=2 note=48 velocity=95 time=0
EXTRACT: note_off channel=0 note=72 velocity=95 time=0.39999999999999997
EXTRACT: note_off channel=0 note=67 velocity=95 time=0
EXTRACT: note_off channel=0 note=64 velocity=95 time=0
EXTRACT: note_off channel=0 note=60 velocity=95 time=0
EXTRACT: note_off channel=0 note=55 velocity=95 time=0
EXTRACT: note_off channel=0 note=48 velocity=95 time=0
EXTRACT: note_on channel=0 note=72 velocity=95 time=0
EXTRACT: note_on channel=0 note=67 velocity=95 time=0
EXTRACT: note_on channel=0 note=64 velocity=95 time=0
EXTRACT: note_on channel=0 note=60 velocity=95 time=0
EXTRACT: note_on channel=0 note=55 velocity=95 time=0
EXTRACT: note_on channel=0 note=48 velocity=95 time=0
EXTRACT: note_off channel=2 note=72 velocity=95 time=0
EXTRACT: note_off channel=2 note=67 velocity=95 time=0
EXTRACT: note_off channel=2 note=64 velocity=95 time=0
EXTRACT: note_off channel=2 note=60 velocity=95 time=0
EXTRACT: note_off channel=2 note=55 velocity=95 time=0
EXTRACT: note_off channel=2 note=48 velocity=95 time=0
EXTRACT: note_on channel=2 note=72 velocity=95 time=0
EXTRACT: note_on channel=2 note=67 velocity=95 time=0
EXTRACT: note_on channel=2 note=64 velocity=95 time=0
EXTRACT: note_on channel=2 note=60 velocity=95 time=0
EXTRACT: note_on channel=2 note=55 velocity=95 time=0
EXTRACT: note_on channel=2 note=48 velocity=95 time=0
EXTRACT: note_off channel=11 note=52 velocity=95 time=0
EXTRACT: note_off channel=0 note=72 velocity=95 time=0.39999999999999997
EXTRACT: note_off channel=0 note=67 velocity=95 time=0
EXTRACT: note_off channel=0 note=64 velocity=95 time=0
EXTRACT: note_off channel=0 note=60 velocity=95 time=0
EXTRACT: note_off channel=0 note=55 velocity=95 time=0
EXTRACT: note_off channel=0 note=48 velocity=95 time=0
EXTRACT: note_on channel=0 note=72 velocity=95 time=0
EXTRACT: note_on channel=0 note=67 velocity=95 time=0
EXTRACT: note_on channel=0 note=64 velocity=95 time=0
EXTRACT: note_on channel=0 note=60 velocity=95 time=0
EXTRACT: note_on channel=0 note=55 velocity=95 time=0
EXTRACT: note_on channel=0 note=48 velocity=95 time=0
EXTRACT: note_off channel=2 note=72 velocity=95 time=0
EXTRACT: note_off channel=2 note=67 velocity=95 time=0
EXTRACT: note_off channel=2 note=64 velocity=95 time=0
EXTRACT: note_off channel=2 note=60 velocity=95 time=0
EXTRACT: note_off channel=2 note=55 velocity=95 time=0
EXTRACT: note_off channel=2 note=48 velocity=95 time=0
EXTRACT: note_on channel=2 note=72 velocity=95 time=0
EXTRACT: note_on channel=2 note=67 velocity=95 time=0
EXTRACT: note_on channel=2 note=64 velocity=95 time=0
EXTRACT: note_on channel=2 note=60 velocity=95 time=0
EXTRACT: note_on channel=2 note=55 velocity=95 time=0
EXTRACT: note_on channel=2 note=48 velocity=95 time=0
EXTRACT: note_off channel=0 note=72 velocity=95 time=0.39999999999999997
EXTRACT: note_off channel=0 note=67 velocity=95 time=0
EXTRACT: note_off channel=0 note=64 velocity=95 time=0
EXTRACT: note_off channel=0 note=60 velocity=95 time=0
EXTRACT: note_off channel=0 note=55 velocity=95 time=0
EXTRACT: note_off channel=0 note=48 velocity=95 time=0
EXTRACT: note_on channel=0 note=72 velocity=95 time=0
EXTRACT: note_on channel=0 note=67 velocity=95 time=0
EXTRACT: note_on channel=0 note=64 velocity=95 time=0
EXTRACT: note_on channel=0 note=60 velocity=95 time=0
EXTRACT: note_on channel=0 note=55 velocity=95 time=0
EXTRACT: note_on channel=0 note=48 velocity=95 time=0
EXTRACT: note_off channel=2 note=72 velocity=95 time=0
EXTRACT: note_off channel=2 note=67 velocity=95 time=0
EXTRACT: note_off channel=2 note=64 velocity=95 time=0
EXTRACT: note_off channel=2 note=60 velocity=95 time=0
EXTRACT: note_off channel=2 note=55 velocity=95 time=0
EXTRACT: note_off channel=2 note=48 velocity=95 time=0
EXTRACT: note_on channel=2 note=72 velocity=95 time=0
EXTRACT: note_on channel=2 note=67 velocity=95 time=0
EXTRACT: note_on channel=2 note=64 velocity=95 time=0
EXTRACT: note_on channel=2 note=60 velocity=95 time=0
EXTRACT: note_on channel=2 note=55 velocity=95 time=0
EXTRACT: note_on channel=2 note=48 velocity=95 time=0
EXTRACT: note_off channel=6 note=48 velocity=95 time=0
EXTRACT: note_on channel=6 note=48 velocity=95 time=0
EXTRACT: note_off channel=0 note=72 velocity=95 time=0.39999999999999997
EXTRACT: note_off channel=0 note=67 velocity=95 time=0
EXTRACT: note_off channel=0 note=64 velocity=95 time=0
EXTRACT: note_off channel=0 note=60 velocity=95 time=0
EXTRACT: note_off channel=0 note=55 velocity=95 time=0
EXTRACT: note_off channel=0 note=48 velocity=95 time=0
EXTRACT: note_on channel=0 note=72 velocity=95 time=0
EXTRACT: note_on channel=0 note=67 velocity=95 time=0
EXTRACT: note_on channel=0 note=64 velocity=95 time=0
EXTRACT: note_on channel=0 note=60 velocity=95 time=0
EXTRACT: note_on channel=0 note=55 velocity=95 time=0
EXTRACT: note_on channel=0 note=48 velocity=95 time=0
EXTRACT: note_off channel=2 note=72 velocity=95 time=0
EXTRACT: note_off channel=2 note=67 velocity=95 time=0
EXTRACT: note_off channel=2 note=64 velocity=95 time=0
EXTRACT: note_off channel=2 note=60 velocity=95 time=0
EXTRACT: note_off channel=2 note=55 velocity=95 time=0
EXTRACT: note_off channel=2 note=48 velocity=95 time=0
EXTRACT: note_on channel=2 note=72 velocity=95 time=0
EXTRACT: note_on channel=2 note=67 velocity=95 time=0
EXTRACT: note_on channel=2 note=64 velocity=95 time=0
EXTRACT: note_on channel=2 note=60 velocity=95 time=0
EXTRACT: note_on channel=2 note=55 velocity=95 time=0
EXTRACT: note_on channel=2 note=48 velocity=95 time=0
EXTRACT: note_off channel=0 note=72 velocity=95 time=0.39999999999999997
EXTRACT: note_off channel=0 note=67 velocity=95 time=0
EXTRACT: note_off channel=0 note=64 velocity=95 time=0
EXTRACT: note_off channel=0 note=60 velocity=95 time=0
EXTRACT: note_off channel=0 note=55 velocity=95 time=0
EXTRACT: note_off channel=0 note=48 velocity=95 time=0
EXTRACT: note_on channel=0 note=72 velocity=95 time=0
EXTRACT: note_on channel=0 note=67 velocity=95 time=0
EXTRACT: note_on channel=0 note=64 velocity=95 time=0
EXTRACT: note_on channel=0 note=60 velocity=95 time=0
EXTRACT: note_on channel=0 note=55 velocity=95 time=0
EXTRACT: note_on channel=0 note=48 velocity=95 time=0
EXTRACT: note_off channel=2 note=72 velocity=95 time=0
EXTRACT: note_off channel=2 note=67 velocity=95 time=0
EXTRACT: note_off channel=2 note=64 velocity=95 time=0
EXTRACT: note_off channel=2 note=60 velocity=95 time=0
EXTRACT: note_off channel=2 note=55 velocity=95 time=0
EXTRACT: note_off channel=2 note=48 velocity=95 time=0
EXTRACT: note_on channel=2 note=72 velocity=95 time=0
EXTRACT: note_on channel=2 note=67 velocity=95 time=0
EXTRACT: note_on channel=2 note=64 velocity=95 time=0
EXTRACT: note_on channel=2 note=60 velocity=95 time=0
EXTRACT: note_on channel=2 note=55 velocity=95 time=0
EXTRACT: note_on channel=2 note=48 velocity=95 time=0
EXTRACT: note_off channel=0 note=72 velocity=95 time=0.39999999999999997
EXTRACT: note_off channel=0 note=67 velocity=95 time=0
EXTRACT: note_off channel=0 note=64 velocity=95 time=0
EXTRACT: note_off channel=0 note=60 velocity=95 time=0
EXTRACT: note_off channel=0 note=55 velocity=95 time=0
EXTRACT: note_off channel=0 note=48 velocity=95 time=0
EXTRACT: note_on channel=0 note=72 velocity=95 time=0
EXTRACT: note_on channel=0 note=67 velocity=95 time=0
EXTRACT: note_on channel=0 note=64 velocity=95 time=0
EXTRACT: note_on channel=0 note=60 velocity=95 time=0
EXTRACT: note_on channel=0 note=55 velocity=95 time=0
EXTRACT: note_on channel=0 note=48 velocity=95 time=0
EXTRACT: note_off channel=2 note=72 velocity=95 time=0
EXTRACT: note_off channel=2 note=67 velocity=95 time=0
EXTRACT: note_off channel=2 note=64 velocity=95 time=0
EXTRACT: note_off channel=2 note=60 velocity=95 time=0
EXTRACT: note_off channel=2 note=55 velocity=95 time=0
EXTRACT: note_off channel=2 note=48 velocity=95 time=0
EXTRACT: note_on channel=2 note=72 velocity=95 time=0
EXTRACT: note_on channel=2 note=67 velocity=95 time=0
EXTRACT: note_on channel=2 note=64 velocity=95 time=0
EXTRACT: note_on channel=2 note=60 velocity=95 time=0
EXTRACT: note_on channel=2 note=55 velocity=95 time=0
EXTRACT: note_on channel=2 note=48 velocity=95 time=0
EXTRACT: note_off channel=0 note=72 velocity=95 time=0.39999999999999997
EXTRACT: note_off channel=0 note=67 velocity=95 time=0
EXTRACT: note_off channel=0 note=64 velocity=95 time=0
EXTRACT: note_off channel=0 note=60 velocity=95 time=0
EXTRACT: note_off channel=0 note=55 velocity=95 time=0
EXTRACT: note_off channel=0 note=48 velocity=95 time=0
EXTRACT: note_on channel=0 note=72 velocity=95 time=0
EXTRACT: note_on channel=0 note=67 velocity=95 time=0
EXTRACT: note_on channel=0 note=64 velocity=95 time=0
EXTRACT: note_on channel=0 note=60 velocity=95 time=0
EXTRACT: note_on channel=0 note=55 velocity=95 time=0
EXTRACT: note_on channel=0 note=48 velocity=95 time=0
EXTRACT: note_off channel=2 note=72 velocity=95 time=0
EXTRACT: note_off channel=2 note=67 velocity=95 time=0
EXTRACT: note_off channel=2 note=64 velocity=95 time=0
EXTRACT: note_off channel=2 note=60 velocity=95 time=0
EXTRACT: note_off channel=2 note=55 velocity=95 time=0
EXTRACT: note_off channel=2 note=48 velocity=95 time=0
EXTRACT: note_on channel=2 note=72 velocity=95 time=0
EXTRACT: note_on channel=2 note=67 velocity=95 time=0
EXTRACT: note_on channel=2 note=64 velocity=95 time=0
EXTRACT: note_on channel=2 note=60 velocity=95 time=0
EXTRACT: note_on channel=2 note=55 velocity=95 time=0
EXTRACT: note_on channel=2 note=48 velocity=95 time=0
EXTRACT: note_off channel=6 note=48 velocity=95 time=0
EXTRACT: note_on channel=6 note=48 velocity=95 time=0
EXTRACT: note_off channel=0 note=72 velocity=95 time=0.39999999999999997
EXTRACT: note_off channel=0 note=67 velocity=95 time=0
EXTRACT: note_off channel=0 note=64 velocity=95 time=0
EXTRACT: note_off channel=0 note=60 velocity=95 time=0
EXTRACT: note_off channel=0 note=55 velocity=95 time=0
EXTRACT: note_off channel=0 note=48 velocity=95 time=0
EXTRACT: note_on channel=0 note=72 velocity=95 time=0
EXTRACT: note_on channel=0 note=67 velocity=95 time=0
EXTRACT: note_on channel=0 note=64 velocity=95 time=0
EXTRACT: note_on channel=0 note=60 velocity=95 time=0
EXTRACT: note_on channel=0 note=55 velocity=95 time=0
EXTRACT: note_on channel=0 note=48 velocity=95 time=0
EXTRACT: note_off channel=2 note=72 velocity=95 time=0
EXTRACT: note_off channel=2 note=67 velocity=95 time=0
EXTRACT: note_off channel=2 note=64 velocity=95 time=0
EXTRACT: note_off channel=2 note=60 velocity=95 time=0
EXTRACT: note_off channel=2 note=55 velocity=95 time=0
EXTRACT: note_off channel=2 note=48 velocity=95 time=0
EXTRACT: note_on channel=2 note=72 velocity=95 time=0
EXTRACT: note_on channel=2 note=67 velocity=95 time=0
EXTRACT: note_on channel=2 note=64 velocity=95 time=0
EXTRACT: note_on channel=2 note=60 velocity=95 time=0
EXTRACT: note_on channel=2 note=55 velocity=95 time=0
EXTRACT: note_on channel=2 note=48 velocity=95 time=0
EXTRACT: note_on channel=11 note=57 velocity=95 time=0
EXTRACT: note_off channel=0 note=72 velocity=95 time=0.39999999999999997
EXTRACT: note_off channel=0 note=67 velocity=95 time=0
EXTRACT: note_off channel=0 note=64 velocity=95 time=0
EXTRACT: note_off channel=0 note=60 velocity=95 time=0
EXTRACT: note_off channel=0 note=55 velocity=95 time=0
EXTRACT: note_off channel=0 note=48 velocity=95 time=0
EXTRACT: note_on channel=0 note=72 velocity=95 time=0
EXTRACT: note_on channel=0 note=67 velocity=95 time=0
EXTRACT: note_on channel=0 note=64 velocity=95 time=0
EXTRACT: note_on channel=0 note=60 velocity=95 time=0
EXTRACT: note_on channel=0 note=55 velocity=95 time=0
EXTRACT: note_on channel=0 note=48 velocity=95 time=0
EXTRACT: note_off channel=2 note=72 velocity=95 time=0
EXTRACT: note_off channel=2 note=67 velocity=95 time=0
EXTRACT: note_off channel=2 note=64 velocity=95 time=0
EXTRACT: note_off channel=2 note=60 velocity=95 time=0
EXTRACT: note_off channel=2 note=55 velocity=95 time=0
EXTRACT: note_off channel=2 note=48 velocity=95 time=0
EXTRACT: note_on channel=2 note=72 velocity=95 time=0
EXTRACT: note_on channel=2 note=67 velocity=95 time=0
EXTRACT: note_on channel=2 note=64 velocity=95 time=0
EXTRACT: note_on channel=2 note=60 velocity=95 time=0
EXTRACT: note_on channel=2 note=55 velocity=95 time=0
EXTRACT: note_on channel=2 note=48 velocity=95 time=0
EXTRACT: note_off channel=11 note=57 velocity=95 time=0
EXTRACT: note_on channel=11 note=58 velocity=95 time=0
EXTRACT: note_off channel=0 note=72 velocity=95 time=0.39999999999999997
EXTRACT: note_off channel=0 note=67 velocity=95 time=0
EXTRACT: note_off channel=0 note=64 velocity=95 time=0
EXTRACT: note_off channel=0 note=60 velocity=95 time=0
EXTRACT: note_off channel=0 note=55 velocity=95 time=0
EXTRACT: note_off channel=0 note=48 velocity=95 time=0
EXTRACT: note_on channel=0 note=72 velocity=95 time=0
EXTRACT: note_on channel=0 note=67 velocity=95 time=0
EXTRACT: note_on channel=0 note=64 velocity=95 time=0
EXTRACT: note_on channel=0 note=60 velocity=95 time=0
EXTRACT: note_on channel=0 note=55 velocity=95 time=0
EXTRACT: note_on channel=0 note=48 velocity=95 time=0
EXTRACT: note_off channel=2 note=72 velocity=95 time=0
EXTRACT: note_off channel=2 note=67 velocity=95 time=0
EXTRACT: note_off channel=2 note=64 velocity=95 time=0
EXTRACT: note_off channel=2 note=60 velocity=95 time=0
EXTRACT: note_off channel=2 note=55 velocity=95 time=0
EXTRACT: note_off channel=2 note=48 velocity=95 time=0
EXTRACT: note_on channel=2 note=72 velocity=95 time=0
EXTRACT: note_on channel=2 note=67 velocity=95 time=0
EXTRACT: note_on channel=2 note=64 velocity=95 time=0
EXTRACT: note_on channel=2 note=60 velocity=95 time=0
EXTRACT: note_on channel=2 note=55 velocity=95 time=0
EXTRACT: note_on channel=2 note=48 velocity=95 time=0
EXTRACT: note_off channel=11 note=58 velocity=95 time=0
EXTRACT: note_on channel=11 note=53 velocity=95 time=0
EXTRACT: note_off channel=0 note=72 velocity=95 time=0.39999999999999997
EXTRACT: note_off channel=0 note=67 velocity=95 time=0
EXTRACT: note_off channel=0 note=64 velocity=95 time=0
EXTRACT: note_off channel=0 note=60 velocity=95 time=0
EXTRACT: note_off channel=0 note=55 velocity=95 time=0
EXTRACT: note_off channel=0 note=48 velocity=95 time=0
EXTRACT: note_on channel=0 note=72 velocity=95 time=0
EXTRACT: note_on channel=0 note=67 velocity=95 time=0
EXTRACT: note_on channel=0 note=64 velocity=95 time=0
EXTRACT: note_on channel=0 note=60 velocity=95 time=0
EXTRACT: note_on channel=0 note=55 velocity=95 time=0
EXTRACT: note_on channel=0 note=48 velocity=95 time=0
EXTRACT: note_off channel=2 note=72 velocity=95 time=0
EXTRACT: note_off channel=2 note=67 velocity=95 time=0
EXTRACT: note_off channel=2 note=64 velocity=95 time=0
EXTRACT: note_off channel=2 note=60 velocity=95 time=0
EXTRACT: note_off channel=2 note=55 velocity=95 time=0
EXTRACT: note_off channel=2 note=48 velocity=95 time=0
EXTRACT: note_on channel=2 note=72 velocity=95 time=0
EXTRACT: note_on channel=2 note=67 velocity=95 time=0
EXTRACT: note_on channel=2 note=64 velocity=95 time=0
EXTRACT: note_on channel=2 note=60 velocity=95 time=0
EXTRACT: note_on channel=2 note=55 velocity=95 time=0
EXTRACT: note_on channel=2 note=48 velocity=95 time=0
EXTRACT: note_off channel=6 note=48 velocity=95 time=0
EXTRACT: note_on channel=6 note=48 velocity=95 time=0
EXTRACT: note_off channel=11 note=53 velocity=95 time=0
EXTRACT: note_on channel=11 note=58 velocity=95 time=0
EXTRACT: note_off channel=0 note=72 velocity=95 time=0.39999999999999997
EXTRACT: note_off channel=0 note=67 velocity=95 time=0
EXTRACT: note_off channel=0 note=64 velocity=95 time=0
EXTRACT: note_off channel=0 note=60 velocity=95 time=0
EXTRACT: note_off channel=0 note=55 velocity=95 time=0
EXTRACT: note_off channel=0 note=48 velocity=95 time=0
EXTRACT: note_on channel=0 note=72 velocity=95 time=0
EXTRACT: note_on channel=0 note=67 velocity=95 time=0
EXTRACT: note_on channel=0 note=64 velocity=95 time=0
EXTRACT: note_on channel=0 note=60 velocity=95 time=0
EXTRACT: note_on channel=0 note=55 velocity=95 time=0
EXTRACT: note_on channel=0 note=48 velocity=95 time=0
EXTRACT: note_off channel=2 note=72 velocity=95 time=0
EXTRACT: note_off channel=2 note=67 velocity=95 time=0
EXTRACT: note_off channel=2 note=64 velocity=95 time=0
EXTRACT: note_off channel=2 note=60 velocity=95 time=0
EXTRACT: note_off channel=2 note=55 velocity=95 time=0
EXTRACT: note_off channel=2 note=48 velocity=95 time=0
EXTRACT: note_on channel=2 note=72 velocity=95 time=0
EXTRACT: note_on channel=2 note=67 velocity=95 time=0
EXTRACT: note_on channel=2 note=64 velocity=95 time=0
EXTRACT: note_on channel=2 note=60 velocity=95 time=0
EXTRACT: note_on channel=2 note=55 velocity=95 time=0
EXTRACT: note_on channel=2 note=48 velocity=95 time=0
EXTRACT: note_off channel=11 note=58 velocity=95 time=0
EXTRACT: note_on channel=11 note=58 velocity=95 time=0
EXTRACT: note_off channel=0 note=72 velocity=95 time=0.39999999999999997
EXTRACT: note_off channel=0 note=67 velocity=95 time=0
EXTRACT: note_off channel=0 note=64 velocity=95 time=0
EXTRACT: note_off channel=0 note=60 velocity=95 time=0
EXTRACT: note_off channel=0 note=55 velocity=95 time=0
EXTRACT: note_off channel=0 note=48 velocity=95 time=0
EXTRACT: note_on channel=0 note=72 velocity=95 time=0
EXTRACT: note_on channel=0 note=67 velocity=95 time=0
EXTRACT: note_on channel=0 note=64 velocity=95 time=0
EXTRACT: note_on channel=0 note=60 velocity=95 time=0
EXTRACT: note_on channel=0 note=55 velocity=95 time=0
EXTRACT: note_on channel=0 note=48 velocity=95 time=0
EXTRACT: note_off channel=2 note=72 velocity=95 time=0
EXTRACT: note_off channel=2 note=67 velocity=95 time=0
EXTRACT: note_off channel=2 note=64 velocity=95 time=0
EXTRACT: note_off channel=2 note=60 velocity=95 time=0
EXTRACT: note_off channel=2 note=55 velocity=95 time=0
EXTRACT: note_off channel=2 note=48 velocity=95 time=0
EXTRACT: note_on channel=2 note=72 velocity=95 time=0
EXTRACT: note_on channel=2 note=67 velocity=95 time=0
EXTRACT: note_on channel=2 note=64 velocity=95 time=0
EXTRACT: note_on channel=2 note=60 velocity=95 time=0
EXTRACT: note_on channel=2 note=55 velocity=95 time=0
EXTRACT: note_on channel=2 note=48 velocity=95 time=0
EXTRACT: note_off channel=11 note=58 velocity=95 time=0
EXTRACT: note_on channel=11 note=58 velocity=95 time=0
EXTRACT: note_off channel=0 note=72 velocity=95 time=0.39999999999999997
EXTRACT: note_off channel=0 note=67 velocity=95 time=0
EXTRACT: note_off channel=0 note=64 velocity=95 time=0
EXTRACT: note_off channel=0 note=60 velocity=95 time=0
EXTRACT: note_off channel=0 note=55 velocity=95 time=0
EXTRACT: note_off channel=0 note=48 velocity=95 time=0
EXTRACT: note_on channel=0 note=72 velocity=95 time=0
EXTRACT: note_on channel=0 note=67 velocity=95 time=0
EXTRACT: note_on channel=0 note=64 velocity=95 time=0
EXTRACT: note_on channel=0 note=60 velocity=95 time=0
EXTRACT: note_on channel=0 note=55 velocity=95 time=0
EXTRACT: note_on channel=0 note=48 velocity=95 time=0
EXTRACT: note_off channel=2 note=72 velocity=95 time=0
EXTRACT: note_off channel=2 note=67 velocity=95 time=0
EXTRACT: note_off channel=2 note=64 velocity=95 time=0
EXTRACT: note_off channel=2 note=60 velocity=95 time=0
EXTRACT: note_off channel=2 note=55 velocity=95 time=0
EXTRACT: note_off channel=2 note=48 velocity=95 time=0
EXTRACT: note_on channel=2 note=72 velocity=95 time=0
EXTRACT: note_on channel=2 note=67 velocity=95 time=0
EXTRACT: note_on channel=2 note=64 velocity=95 time=0
EXTRACT: note_on channel=2 note=60 velocity=95 time=0
EXTRACT: note_on channel=2 note=55 velocity=95 time=0
EXTRACT: note_on channel=2 note=48 velocity=95 time=0
EXTRACT: note_off channel=11 note=58 velocity=95 time=0
EXTRACT: note_on channel=11 note=58 velocity=95 time=0
EXTRACT: note_off channel=0 note=72 velocity=95 time=0.39999999999999997
EXTRACT: note_off channel=0 note=67 velocity=95 time=0
EXTRACT: note_off channel=0 note=64 velocity=95 time=0
EXTRACT: note_off channel=0 note=60 velocity=95 time=0
EXTRACT: note_off channel=0 note=55 velocity=95 time=0
EXTRACT: note_off channel=0 note=48 velocity=95 time=0
EXTRACT: note_on channel=0 note=69 velocity=95 time=0
EXTRACT: note_on channel=0 note=65 velocity=95 time=0
EXTRACT: note_on channel=0 note=60 velocity=95 time=0
EXTRACT: note_on channel=0 note=53 velocity=95 time=0
EXTRACT: note_on channel=0 note=48 velocity=95 time=0
EXTRACT: note_off channel=2 note=72 velocity=95 time=0
EXTRACT: note_off channel=2 note=67 velocity=95 time=0
EXTRACT: note_off channel=2 note=64 velocity=95 time=0
EXTRACT: note_off channel=2 note=60 velocity=95 time=0
EXTRACT: note_off channel=2 note=55 velocity=95 time=0
EXTRACT: note_off channel=2 note=48 velocity=95 time=0
EXTRACT: note_on channel=2 note=69 velocity=95 time=0
EXTRACT: note_on channel=2 note=65 velocity=95 time=0
EXTRACT: note_on channel=2 note=60 velocity=95 time=0
EXTRACT: note_on channel=2 note=53 velocity=95 time=0
EXTRACT: note_on channel=2 note=48 velocity=95 time=0
EXTRACT: note_off channel=6 note=48 velocity=95 time=0
EXTRACT: note_on channel=6 note=53 velocity=111 time=0
EXTRACT: note_on channel=6 note=57 velocity=111 time=0.006666666666666666
EXTRACT: note_on channel=6 note=60 velocity=111 time=0.006666666666666666
EXTRACT: note_on channel=6 note=65 velocity=111 time=0.006666666666666666
EXTRACT: note_off channel=11 note=58 velocity=95 time=0.18
EXTRACT: note_on channel=11 note=57 velocity=95 time=0
EXTRACT: note_off channel=0 note=69 velocity=95 time=0.19999999999999998
EXTRACT: note_off channel=0 note=65 velocity=95 time=0
EXTRACT: note_off channel=0 note=60 velocity=95 time=0
EXTRACT: note_off channel=0 note=53 velocity=95 time=0
EXTRACT: note_off channel=0 note=48 velocity=95 time=0
EXTRACT: note_on channel=0 note=69 velocity=95 time=0
EXTRACT: note_on channel=0 note=65 velocity=95 time=0
EXTRACT: note_on channel=0 note=60 velocity=95 time=0
EXTRACT: note_on channel=0 note=53 velocity=95 time=0
EXTRACT: note_on channel=0 note=48 velocity=95 time=0
EXTRACT: note_off channel=2 note=69 velocity=95 time=0
EXTRACT: note_off channel=2 note=65 velocity=95 time=0
EXTRACT: note_off channel=2 note=60 velocity=95 time=0
EXTRACT: note_off channel=2 note=53 velocity=95 time=0
EXTRACT: note_off channel=2 note=48 velocity=95 time=0
EXTRACT: note_on channel=2 note=69 velocity=95 time=0
EXTRACT: note_on channel=2 note=65 velocity=95 time=0
EXTRACT: note_on channel=2 note=60 velocity=95 time=0
EXTRACT: note_on channel=2 note=53 velocity=95 time=0
EXTRACT: note_on channel=2 note=48 velocity=95 time=0
EXTRACT: note_off channel=11 note=57 velocity=95 time=0
EXTRACT: note_on channel=11 note=53 velocity=95 time=0
EXTRACT: note_off channel=0 note=69 velocity=95 time=0.39999999999999997
EXTRACT: note_off channel=0 note=65 velocity=95 time=0
EXTRACT: note_off channel=0 note=60 velocity=95 time=0
EXTRACT: note_off channel=0 note=53 velocity=95 time=0
EXTRACT: note_off channel=0 note=48 velocity=95 time=0
EXTRACT: note_on channel=0 note=69 velocity=95 time=0
EXTRACT: note_on channel=0 note=65 velocity=95 time=0
EXTRACT: note_on channel=0 note=60 velocity=95 time=0
EXTRACT: note_on channel=0 note=53 velocity=95 time=0
EXTRACT: note_on channel=0 note=48 velocity=95 time=0
EXTRACT: note_off channel=2 note=69 velocity=95 time=0
EXTRACT: note_off channel=2 note=65 velocity=95 time=0
EXTRACT: note_off channel=2 note=60 velocity=95 time=0
EXTRACT: note_off channel=2 note=53 velocity=95 time=0
EXTRACT: note_off channel=2 note=48 velocity=95 time=0
EXTRACT: note_on channel=2 note=69 velocity=95 time=0
EXTRACT: note_on channel=2 note=65 velocity=95 time=0
EXTRACT: note_on channel=2 note=60 velocity=95 time=0
EXTRACT: note_on channel=2 note=53 velocity=95 time=0
EXTRACT: note_on channel=2 note=48 velocity=95 time=0
EXTRACT: note_off channel=0 note=69 velocity=95 time=0.39999999999999997
EXTRACT: note_off channel=0 note=65 velocity=95 time=0
EXTRACT: note_off channel=0 note=60 velocity=95 time=0
EXTRACT: note_off channel=0 note=53 velocity=95 time=0
EXTRACT: note_off channel=0 note=48 velocity=95 time=0
EXTRACT: note_on channel=0 note=69 velocity=95 time=0
EXTRACT: note_on channel=0 note=65 velocity=95 time=0
EXTRACT: note_on channel=0 note=60 velocity=95 time=0
EXTRACT: note_on channel=0 note=53 velocity=95 time=0
EXTRACT: note_on channel=0 note=48 velocity=95 time=0
EXTRACT: note_off channel=2 note=69 velocity=95 time=0
EXTRACT: note_off channel=2 note=65 velocity=95 time=0
EXTRACT: note_off channel=2 note=60 velocity=95 time=0
EXTRACT: note_off channel=2 note=53 velocity=95 time=0
EXTRACT: note_off channel=2 note=48 velocity=95 time=0
EXTRACT: note_on channel=2 note=69 velocity=95 time=0
EXTRACT: note_on channel=2 note=65 velocity=95 time=0
EXTRACT: note_on channel=2 note=60 velocity=95 time=0
EXTRACT: note_on channel=2 note=53 velocity=95 time=0
EXTRACT: note_on channel=2 note=48 velocity=95 time=0
EXTRACT: note_off channel=0 note=69 velocity=95 time=0.39999999999999997
EXTRACT: note_off channel=0 note=65 velocity=95 time=0
EXTRACT: note_off channel=0 note=60 velocity=95 time=0
EXTRACT: note_off channel=0 note=53 velocity=95 time=0
EXTRACT: note_off channel=0 note=48 velocity=95 time=0
EXTRACT: note_on channel=0 note=69 velocity=95 time=0
EXTRACT: note_on channel=0 note=65 velocity=95 time=0
EXTRACT: note_on channel=0 note=60 velocity=95 time=0
EXTRACT: note_on channel=0 note=53 velocity=95 time=0
EXTRACT: note_on channel=0 note=48 velocity=95 time=0
EXTRACT: note_off channel=2 note=69 velocity=95 time=0
EXTRACT: note_off channel=2 note=65 velocity=95 time=0
EXTRACT: note_off channel=2 note=60 velocity=95 time=0
EXTRACT: note_off channel=2 note=53 velocity=95 time=0
EXTRACT: note_off channel=2 note=48 velocity=95 time=0
EXTRACT: note_on channel=2 note=69 velocity=95 time=0
EXTRACT: note_on channel=2 note=65 velocity=95 time=0
EXTRACT: note_on channel=2 note=60 velocity=95 time=0
EXTRACT: note_on channel=2 note=53 velocity=95 time=0
EXTRACT: note_on channel=2 note=48 velocity=95 time=0
EXTRACT: note_off channel=11 note=53 velocity=95 time=0
EXTRACT: note_off channel=0 note=69 velocity=95 time=0.39999999999999997
EXTRACT: note_off channel=0 note=65 velocity=95 time=0
EXTRACT: note_off channel=0 note=60 velocity=95 time=0
EXTRACT: note_off channel=0 note=53 velocity=95 time=0
EXTRACT: note_off channel=0 note=48 velocity=95 time=0
EXTRACT: note_on channel=0 note=69 velocity=95 time=0
EXTRACT: note_on channel=0 note=65 velocity=95 time=0
EXTRACT: note_on channel=0 note=60 velocity=95 time=0
EXTRACT: note_on channel=0 note=53 velocity=95 time=0
EXTRACT: note_on channel=0 note=48 velocity=95 time=0
EXTRACT: note_off channel=2 note=69 velocity=95 time=0
EXTRACT: note_off channel=2 note=65 velocity=95 time=0
EXTRACT: note_off channel=2 note=60 velocity=95 time=0
EXTRACT: note_off channel=2 note=53 velocity=95 time=0
EXTRACT: note_off channel=2 note=48 velocity=95 time=0
EXTRACT: note_on channel=2 note=69 velocity=95 time=0
EXTRACT: note_on channel=2 note=65 velocity=95 time=0
EXTRACT: note_on channel=2 note=60 velocity=95 time=0
EXTRACT: note_on channel=2 note=53 velocity=95 time=0
EXTRACT: note_on channel=2 note=48 velocity=95 time=0
EXTRACT: note_off channel=0 note=69 velocity=95 time=0.39999999999999997
EXTRACT: note_off channel=0 note=65 velocity=95 time=0
EXTRACT: note_off channel=0 note=60 velocity=95 time=0
EXTRACT: note_off channel=0 note=53 velocity=95 time=0
EXTRACT: note_off channel=0 note=48 velocity=95 time=0
EXTRACT: note_on channel=0 note=69 velocity=95 time=0
EXTRACT: note_on channel=0 note=65 velocity=95 time=0
EXTRACT: note_on channel=0 note=60 velocity=95 time=0
EXTRACT: note_on channel=0 note=53 velocity=95 time=0
EXTRACT: note_on channel=0 note=48 velocity=95 time=0
EXTRACT: note_off channel=2 note=69 velocity=95 time=0
EXTRACT: note_off channel=2 note=65 velocity=95 time=0
EXTRACT: note_off channel=2 note=60 velocity=95 time=0
EXTRACT: note_off channel=2 note=53 velocity=95 time=0
EXTRACT: note_off channel=2 note=48 velocity=95 time=0
EXTRACT: note_on channel=2 note=69 velocity=95 time=0
EXTRACT: note_on channel=2 note=65 velocity=95 time=0
EXTRACT: note_on channel=2 note=60 velocity=95 time=0
EXTRACT: note_on channel=2 note=53 velocity=95 time=0
EXTRACT: note_on channel=2 note=48 velocity=95 time=0
EXTRACT: note_off channel=0 note=69 velocity=95 time=0.39999999999999997
EXTRACT: note_off channel=0 note=65 velocity=95 time=0
EXTRACT: note_off channel=0 note=60 velocity=95 time=0
EXTRACT: note_off channel=0 note=53 velocity=95 time=0
EXTRACT: note_off channel=0 note=48 velocity=95 time=0
EXTRACT: note_on channel=0 note=69 velocity=95 time=0
EXTRACT: note_on channel=0 note=65 velocity=95 time=0
EXTRACT: note_on channel=0 note=60 velocity=95 time=0
EXTRACT: note_on channel=0 note=53 velocity=95 time=0
EXTRACT: note_on channel=0 note=48 velocity=95 time=0
EXTRACT: note_off channel=2 note=69 velocity=95 time=0
EXTRACT: note_off channel=2 note=65 velocity=95 time=0
EXTRACT: note_off channel=2 note=60 velocity=95 time=0
EXTRACT: note_off channel=2 note=53 velocity=95 time=0
EXTRACT: note_off channel=2 note=48 velocity=95 time=0
EXTRACT: note_on channel=2 note=69 velocity=95 time=0
EXTRACT: note_on channel=2 note=65 velocity=95 time=0
EXTRACT: note_on channel=2 note=60 velocity=95 time=0
EXTRACT: note_on channel=2 note=53 velocity=95 time=0
EXTRACT: note_on channel=2 note=48 velocity=95 time=0
EXTRACT: note_off channel=0 note=69 velocity=95 time=0.39999999999999997
EXTRACT: note_off channel=0 note=65 velocity=95 time=0
EXTRACT: note_off channel=0 note=60 velocity=95 time=0
EXTRACT: note_off channel=0 note=53 velocity=95 time=0
EXTRACT: note_off channel=0 note=48 velocity=95 time=0
EXTRACT: note_on channel=0 note=70 velocity=95 time=0
EXTRACT: note_on channel=0 note=65 velocity=95 time=0
EXTRACT: note_on channel=0 note=62 velocity=95 time=0
EXTRACT: note_on channel=0 note=58 velocity=95 time=0
EXTRACT: note_on channel=0 note=53 velocity=95 time=0
EXTRACT: note_on channel=0 note=46 velocity=95 time=0
EXTRACT: note_off channel=2 note=69 velocity=95 time=0
EXTRACT: note_off channel=2 note=65 velocity=95 time=0
EXTRACT: note_off channel=2 note=60 velocity=95 time=0
EXTRACT: note_off channel=2 note=53 velocity=95 time=0
EXTRACT: note_off channel=2 note=48 velocity=95 time=0
EXTRACT: note_on channel=2 note=70 velocity=95 time=0
EXTRACT: note_on channel=2 note=65 velocity=95 time=0
EXTRACT: note_on channel=2 note=62 velocity=95 time=0
EXTRACT: note_on channel=2 note=58 velocity=95 time=0
EXTRACT: note_on channel=2 note=53 velocity=95 time=0
EXTRACT: note_on channel=2 note=46 velocity=95 time=0
EXTRACT: note_off channel=6 note=65 velocity=111 time=0
EXTRACT: note_off channel=6 note=60 velocity=111 time=0
EXTRACT: note_off channel=6 note=57 velocity=111 time=0
EXTRACT: note_off channel=6 note=53 velocity=111 time=0
EXTRACT: note_on channel=6 note=57 velocity=111 time=0
EXTRACT: note_on channel=6 note=62 velocity=111 time=0.006666666666666666
EXTRACT: note_on channel=6 note=65 velocity=111 time=0.006666666666666666
EXTRACT: note_on channel=6 note=69 velocity=111 time=0.006666666666666666
EXTRACT: note_off channel=0 note=70 velocity=95 time=0.37999999999999995
EXTRACT: note_off channel=0 note=65 velocity=95 time=0
EXTRACT: note_off channel=0 note=62 velocity=95 time=0
EXTRACT: note_off channel=0 note=58 velocity=95 time=0
EXTRACT: note_off channel=0 note=53 velocity=95 time=0
EXTRACT: note_off channel=0 note=46 velocity=95 time=0
EXTRACT: note_on channel=0 note=70 velocity=95 time=0
EXTRACT: note_on channel=0 note=65 velocity=95 time=0
EXTRACT: note_on channel=0 note=62 velocity=95 time=0
EXTRACT: note_on channel=0 note=58 velocity=95 time=0
EXTRACT: note_on channel=0 note=53 velocity=95 time=0
EXTRACT: note_on channel=0 note=46 velocity=95 time=0
EXTRACT: note_off channel=2 note=70 velocity=95 time=0
EXTRACT: note_off channel=2 note=65 velocity=95 time=0
EXTRACT: note_off channel=2 note=62 velocity=95 time=0
EXTRACT: note_off channel=2 note=58 velocity=95 time=0
EXTRACT: note_off channel=2 note=53 velocity=95 time=0
EXTRACT: note_off channel=2 note=46 velocity=95 time=0
EXTRACT: note_on channel=2 note=70 velocity=95 time=0
EXTRACT: note_on channel=2 note=65 velocity=95 time=0
EXTRACT: note_on channel=2 note=62 velocity=95 time=0
EXTRACT: note_on channel=2 note=58 velocity=95 time=0
EXTRACT: note_on channel=2 note=53 velocity=95 time=0
EXTRACT: note_on channel=2 note=46 velocity=95 time=0
EXTRACT: note_off channel=0 note=70 velocity=95 time=0.39999999999999997
EXTRACT: note_off channel=0 note=65 velocity=95 time=0
EXTRACT: note_off channel=0 note=62 velocity=95 time=0
EXTRACT: note_off channel=0 note=58 velocity=95 time=0
EXTRACT: note_off channel=0 note=53 velocity=95 time=0
EXTRACT: note_off channel=0 note=46 velocity=95 time=0
EXTRACT: note_on channel=0 note=70 velocity=95 time=0
EXTRACT: note_on channel=0 note=65 velocity=95 time=0
EXTRACT: note_on channel=0 note=62 velocity=95 time=0
EXTRACT: note_on channel=0 note=58 velocity=95 time=0
EXTRACT: note_on channel=0 note=53 velocity=95 time=0
EXTRACT: note_on channel=0 note=46 velocity=95 time=0
EXTRACT: note_off channel=2 note=70 velocity=95 time=0
EXTRACT: note_off channel=2 note=65 velocity=95 time=0
EXTRACT: note_off channel=2 note=62 velocity=95 time=0
EXTRACT: note_off channel=2 note=58 velocity=95 time=0
EXTRACT: note_off channel=2 note=53 velocity=95 time=0
EXTRACT: note_off channel=2 note=46 velocity=95 time=0
EXTRACT: note_on channel=2 note=70 velocity=95 time=0
EXTRACT: note_on channel=2 note=65 velocity=95 time=0
EXTRACT: note_on channel=2 note=62 velocity=95 time=0
EXTRACT: note_on channel=2 note=58 velocity=95 time=0
EXTRACT: note_on channel=2 note=53 velocity=95 time=0
EXTRACT: note_on channel=2 note=46 velocity=95 time=0
EXTRACT: note_off channel=0 note=70 velocity=95 time=0.39999999999999997
EXTRACT: note_off channel=0 note=65 velocity=95 time=0
EXTRACT: note_off channel=0 note=62 velocity=95 time=0
EXTRACT: note_off channel=0 note=58 velocity=95 time=0
EXTRACT: note_off channel=0 note=53 velocity=95 time=0
EXTRACT: note_off channel=0 note=46 velocity=95 time=0
EXTRACT: note_on channel=0 note=70 velocity=95 time=0
EXTRACT: note_on channel=0 note=65 velocity=95 time=0
EXTRACT: note_on channel=0 note=62 velocity=95 time=0
EXTRACT: note_on channel=0 note=58 velocity=95 time=0
EXTRACT: note_on channel=0 note=53 velocity=95 time=0
EXTRACT: note_on channel=0 note=46 velocity=95 time=0
EXTRACT: note_off channel=2 note=70 velocity=95 time=0
EXTRACT: note_off channel=2 note=65 velocity=95 time=0
EXTRACT: note_off channel=2 note=62 velocity=95 time=0
EXTRACT: note_off channel=2 note=58 velocity=95 time=0
EXTRACT: note_off channel=2 note=53 velocity=95 time=0
EXTRACT: note_off channel=2 note=46 velocity=95 time=0
EXTRACT: note_on channel=2 note=70 velocity=95 time=0
EXTRACT: note_on channel=2 note=65 velocity=95 time=0
EXTRACT: note_on channel=2 note=62 velocity=95 time=0
EXTRACT: note_on channel=2 note=58 velocity=95 time=0
EXTRACT: note_on channel=2 note=53 velocity=95 time=0
EXTRACT: note_on channel=2 note=46 velocity=95 time=0
EXTRACT: note_off channel=0 note=70 velocity=95 time=0.39999999999999997
EXTRACT: note_off channel=0 note=65 velocity=95 time=0
EXTRACT: note_off channel=0 note=62 velocity=95 time=0
EXTRACT: note_off channel=0 note=58 velocity=95 time=0
EXTRACT: note_off channel=0 note=53 velocity=95 time=0
EXTRACT: note_off channel=0 note=46 velocity=95 time=0
EXTRACT: note_on channel=0 note=70 velocity=95 time=0
EXTRACT: note_on channel=0 note=65 velocity=95 time=0
EXTRACT: note_on channel=0 note=62 velocity=95 time=0
EXTRACT: note_on channel=0 note=58 velocity=95 time=0
EXTRACT: note_on channel=0 note=53 velocity=95 time=0
EXTRACT: note_on channel=0 note=46 velocity=95 time=0
EXTRACT: note_off channel=2 note=70 velocity=95 time=0
EXTRACT: note_off channel=2 note=65 velocity=95 time=0
EXTRACT: note_off channel=2 note=62 velocity=95 time=0
EXTRACT: note_off channel=2 note=58 velocity=95 time=0
EXTRACT: note_off channel=2 note=53 velocity=95 time=0
EXTRACT: note_off channel=2 note=46 velocity=95 time=0
EXTRACT: note_on channel=2 note=70 velocity=95 time=0
EXTRACT: note_on channel=2 note=65 velocity=95 time=0
EXTRACT: note_on channel=2 note=62 velocity=95 time=0
EXTRACT: note_on channel=2 note=58 velocity=95 time=0
EXTRACT: note_on channel=2 note=53 velocity=95 time=0
EXTRACT: note_on channel=2 note=46 velocity=95 time=0
EXTRACT: note_off channel=0 note=70 velocity=95 time=0.39999999999999997
EXTRACT: note_off channel=0 note=65 velocity=95 time=0
EXTRACT: note_off channel=0 note=62 velocity=95 time=0
EXTRACT: note_off channel=0 note=58 velocity=95 time=0
EXTRACT: note_off channel=0 note=53 velocity=95 time=0
EXTRACT: note_off channel=0 note=46 velocity=95 time=0
EXTRACT: note_on channel=0 note=70 velocity=95 time=0
EXTRACT: note_on channel=0 note=65 velocity=95 time=0
EXTRACT: note_on channel=0 note=62 velocity=95 time=0
EXTRACT: note_on channel=0 note=58 velocity=95 time=0
EXTRACT: note_on channel=0 note=53 velocity=95 time=0
EXTRACT: note_on channel=0 note=46 velocity=95 time=0
EXTRACT: note_off channel=2 note=70 velocity=95 time=0
EXTRACT: note_off channel=2 note=65 velocity=95 time=0
EXTRACT: note_off channel=2 note=62 velocity=95 time=0
EXTRACT: note_off channel=2 note=58 velocity=95 time=0
EXTRACT: note_off channel=2 note=53 velocity=95 time=0
EXTRACT: note_off channel=2 note=46 velocity=95 time=0
EXTRACT: note_on channel=2 note=70 velocity=95 time=0
EXTRACT: note_on channel=2 note=65 velocity=95 time=0
EXTRACT: note_on channel=2 note=62 velocity=95 time=0
EXTRACT: note_on channel=2 note=58 velocity=95 time=0
EXTRACT: note_on channel=2 note=53 velocity=95 time=0
EXTRACT: note_on channel=2 note=46 velocity=95 time=0
EXTRACT: note_off channel=0 note=70 velocity=95 time=0.39999999999999997
EXTRACT: note_off channel=0 note=65 velocity=95 time=0
EXTRACT: note_off channel=0 note=62 velocity=95 time=0
EXTRACT: note_off channel=0 note=58 velocity=95 time=0
EXTRACT: note_off channel=0 note=53 velocity=95 time=0
EXTRACT: note_off channel=0 note=46 velocity=95 time=0
EXTRACT: note_on channel=0 note=70 velocity=95 time=0
EXTRACT: note_on channel=0 note=65 velocity=95 time=0
EXTRACT: note_on channel=0 note=62 velocity=95 time=0
EXTRACT: note_on channel=0 note=58 velocity=95 time=0
EXTRACT: note_on channel=0 note=53 velocity=95 time=0
EXTRACT: note_on channel=0 note=46 velocity=95 time=0
EXTRACT: note_off channel=2 note=70 velocity=95 time=0
EXTRACT: note_off channel=2 note=65 velocity=95 time=0
EXTRACT: note_off channel=2 note=62 velocity=95 time=0
EXTRACT: note_off channel=2 note=58 velocity=95 time=0
EXTRACT: note_off channel=2 note=53 velocity=95 time=0
EXTRACT: note_off channel=2 note=46 velocity=95 time=0
EXTRACT: note_on channel=2 note=70 velocity=95 time=0
EXTRACT: note_on channel=2 note=65 velocity=95 time=0
EXTRACT: note_on channel=2 note=62 velocity=95 time=0
EXTRACT: note_on channel=2 note=58 velocity=95 time=0
EXTRACT: note_on channel=2 note=53 velocity=95 time=0
EXTRACT: note_on channel=2 note=46 velocity=95 time=0
EXTRACT: note_off channel=0 note=70 velocity=95 time=0.39999999999999997
EXTRACT: note_off channel=0 note=65 velocity=95 time=0
EXTRACT: note_off channel=0 note=62 velocity=95 time=0
EXTRACT: note_off channel=0 note=58 velocity=95 time=0
EXTRACT: note_off channel=0 note=53 velocity=95 time=0
EXTRACT: note_off channel=0 note=46 velocity=95 time=0
EXTRACT: note_on channel=0 note=70 velocity=95 time=0
EXTRACT: note_on channel=0 note=65 velocity=95 time=0
EXTRACT: note_on channel=0 note=62 velocity=95 time=0
EXTRACT: note_on channel=0 note=58 velocity=95 time=0
EXTRACT: note_on channel=0 note=53 velocity=95 time=0
EXTRACT: note_on channel=0 note=46 velocity=95 time=0
EXTRACT: note_off channel=2 note=70 velocity=95 time=0
EXTRACT: note_off channel=2 note=65 velocity=95 time=0
EXTRACT: note_off channel=2 note=62 velocity=95 time=0
EXTRACT: note_off channel=2 note=58 velocity=95 time=0
EXTRACT: note_off channel=2 note=53 velocity=95 time=0
EXTRACT: note_off channel=2 note=46 velocity=95 time=0
EXTRACT: note_on channel=2 note=70 velocity=95 time=0
EXTRACT: note_on channel=2 note=65 velocity=95 time=0
EXTRACT: note_on channel=2 note=62 velocity=95 time=0
EXTRACT: note_on channel=2 note=58 velocity=95 time=0
EXTRACT: note_on channel=2 note=53 velocity=95 time=0
EXTRACT: note_on channel=2 note=46 velocity=95 time=0
EXTRACT: note_off channel=0 note=70 velocity=95 time=0.39999999999999997
EXTRACT: note_off channel=0 note=65 velocity=95 time=0
EXTRACT: note_off channel=0 note=62 velocity=95 time=0
EXTRACT: note_off channel=0 note=58 velocity=95 time=0
EXTRACT: note_off channel=0 note=53 velocity=95 time=0
EXTRACT: note_off channel=0 note=46 velocity=95 time=0
EXTRACT: note_on channel=0 note=69 velocity=95 time=0
EXTRACT: note_on channel=0 note=65 velocity=95 time=0
EXTRACT: note_on channel=0 note=60 velocity=95 time=0
EXTRACT: note_on channel=0 note=53 velocity=95 time=0
EXTRACT: note_on channel=0 note=48 velocity=95 time=0
EXTRACT: note_off channel=2 note=70 velocity=95 time=0
EXTRACT: note_off channel=2 note=65 velocity=95 time=0
EXTRACT: note_off channel=2 note=62 velocity=95 time=0
EXTRACT: note_off channel=2 note=58 velocity=95 time=0
EXTRACT: note_off channel=2 note=53 velocity=95 time=0
EXTRACT: note_off channel=2 note=46 velocity=95 time=0
EXTRACT: note_on channel=2 note=69 velocity=95 time=0
EXTRACT: note_on channel=2 note=65 velocity=95 time=0
EXTRACT: note_on channel=2 note=60 velocity=95 time=0
EXTRACT: note_on channel=2 note=53 velocity=95 time=0
EXTRACT: note_on channel=2 note=48 velocity=95 time=0
EXTRACT: note_off channel=6 note=69 velocity=111 time=0
EXTRACT: note_off channel=6 note=65 velocity=111 time=0
EXTRACT: note_off channel=6 note=62 velocity=111 time=0
EXTRACT: note_off channel=6 note=57 velocity=111 time=0
EXTRACT: note_on channel=6 note=53 velocity=111 time=0
EXTRACT: note_on channel=6 note=57 velocity=111 time=0.006666666666666666
EXTRACT: note_on channel=6 note=60 velocity=111 time=0.006666666666666666
EXTRACT: note_on channel=6 note=65 velocity=111 time=0.006666666666666666
EXTRACT: note_off channel=0 note=69 velocity=95 time=0.37999999999999995
EXTRACT: note_off channel=0 note=65 velocity=95 time=0
EXTRACT: note_off channel=0 note=60 velocity=95 time=0
EXTRACT: note_off channel=0 note=53 velocity=95 time=0
EXTRACT: note_off channel=0 note=48 velocity=95 time=0
EXTRACT: note_on channel=0 note=69 velocity=95 time=0
EXTRACT: note_on channel=0 note=65 velocity=95 time=0
EXTRACT: note_on channel=0 note=60 velocity=95 time=0
EXTRACT: note_on channel=0 note=53 velocity=95 time=0
EXTRACT: note_on channel=0 note=48 velocity=95 time=0
EXTRACT: note_off channel=2 note=69 velocity=95 time=0
EXTRACT: note_off channel=2 note=65 velocity=95 time=0
EXTRACT: note_off channel=2 note=60 velocity=95 time=0
EXTRACT: note_off channel=2 note=53 velocity=95 time=0
EXTRACT: note_off channel=2 note=48 velocity=95 time=0
EXTRACT: note_on channel=2 note=69 velocity=95 time=0
EXTRACT: note_on channel=2 note=65 velocity=95 time=0
EXTRACT: note_on channel=2 note=60 velocity=95 time=0
EXTRACT: note_on channel=2 note=53 velocity=95 time=0
EXTRACT: note_on channel=2 note=48 velocity=95 time=0
EXTRACT: note_off channel=0 note=69 velocity=95 time=0.39999999999999997
EXTRACT: note_off channel=0 note=65 velocity=95 time=0
EXTRACT: note_off channel=0 note=60 velocity=95 time=0
EXTRACT: note_off channel=0 note=53 velocity=95 time=0
EXTRACT: note_off channel=0 note=48 velocity=95 time=0
EXTRACT: note_on channel=0 note=69 velocity=95 time=0
EXTRACT: note_on channel=0 note=65 velocity=95 time=0
EXTRACT: note_on channel=0 note=60 velocity=95 time=0
EXTRACT: note_on channel=0 note=53 velocity=95 time=0
EXTRACT: note_on channel=0 note=48 velocity=95 time=0
EXTRACT: note_off channel=2 note=69 velocity=95 time=0
EXTRACT: note_off channel=2 note=65 velocity=95 time=0
EXTRACT: note_off channel=2 note=60 velocity=95 time=0
EXTRACT: note_off channel=2 note=53 velocity=95 time=0
EXTRACT: note_off channel=2 note=48 velocity=95 time=0
EXTRACT: note_on channel=2 note=69 velocity=95 time=0
EXTRACT: note_on channel=2 note=65 velocity=95 time=0
EXTRACT: note_on channel=2 note=60 velocity=95 time=0
EXTRACT: note_on channel=2 note=53 velocity=95 time=0
EXTRACT: note_on channel=2 note=48 velocity=95 time=0
EXTRACT: note_off channel=0 note=69 velocity=95 time=0.39999999999999997
EXTRACT: note_off channel=0 note=65 velocity=95 time=0
EXTRACT: note_off channel=0 note=60 velocity=95 time=0
EXTRACT: note_off channel=0 note=53 velocity=95 time=0
EXTRACT: note_off channel=0 note=48 velocity=95 time=0
EXTRACT: note_on channel=0 note=69 velocity=95 time=0
EXTRACT: note_on channel=0 note=65 velocity=95 time=0
EXTRACT: note_on channel=0 note=60 velocity=95 time=0
EXTRACT: note_on channel=0 note=53 velocity=95 time=0
EXTRACT: note_on channel=0 note=48 velocity=95 time=0
EXTRACT: note_off channel=2 note=69 velocity=95 time=0
EXTRACT: note_off channel=2 note=65 velocity=95 time=0
EXTRACT: note_off channel=2 note=60 velocity=95 time=0
EXTRACT: note_off channel=2 note=53 velocity=95 time=0
EXTRACT: note_off channel=2 note=48 velocity=95 time=0
EXTRACT: note_on channel=2 note=69 velocity=95 time=0
EXTRACT: note_on channel=2 note=65 velocity=95 time=0
EXTRACT: note_on channel=2 note=60 velocity=95 time=0
EXTRACT: note_on channel=2 note=53 velocity=95 time=0
EXTRACT: note_on channel=2 note=48 velocity=95 time=0
EXTRACT: note_off channel=0 note=69 velocity=95 time=0.39999999999999997
EXTRACT: note_off channel=0 note=65 velocity=95 time=0
EXTRACT: note_off channel=0 note=60 velocity=95 time=0
EXTRACT: note_off channel=0 note=53 velocity=95 time=0
EXTRACT: note_off channel=0 note=48 velocity=95 time=0
EXTRACT: note_on channel=0 note=69 velocity=95 time=0
EXTRACT: note_on channel=0 note=65 velocity=95 time=0
EXTRACT: note_on channel=0 note=60 velocity=95 time=0
EXTRACT: note_on channel=0 note=53 velocity=95 time=0
EXTRACT: note_on channel=0 note=48 velocity=95 time=0
EXTRACT: note_off channel=2 note=69 velocity=95 time=0
EXTRACT: note_off channel=2 note=65 velocity=95 time=0
EXTRACT: note_off channel=2 note=60 velocity=95 time=0
EXTRACT: note_off channel=2 note=53 velocity=95 time=0
EXTRACT: note_off channel=2 note=48 velocity=95 time=0
EXTRACT: note_on channel=2 note=69 velocity=95 time=0
EXTRACT: note_on channel=2 note=65 velocity=95 time=0
EXTRACT: note_on channel=2 note=60 velocity=95 time=0
EXTRACT: note_on channel=2 note=53 velocity=95 time=0
EXTRACT: note_on channel=2 note=48 velocity=95 time=0
EXTRACT: note_off channel=0 note=69 velocity=95 time=0.39999999999999997
EXTRACT: note_off channel=0 note=65 velocity=95 time=0
EXTRACT: note_off channel=0 note=60 velocity=95 time=0
EXTRACT: note_off channel=0 note=53 velocity=95 time=0
EXTRACT: note_off channel=0 note=48 velocity=95 time=0
EXTRACT: note_on channel=0 note=69 velocity=95 time=0
EXTRACT: note_on channel=0 note=65 velocity=95 time=0
EXTRACT: note_on channel=0 note=60 velocity=95 time=0
EXTRACT: note_on channel=0 note=53 velocity=95 time=0
EXTRACT: note_on channel=0 note=48 velocity=95 time=0
EXTRACT: note_off channel=2 note=69 velocity=95 time=0
EXTRACT: note_off channel=2 note=65 velocity=95 time=0
EXTRACT: note_off channel=2 note=60 velocity=95 time=0
EXTRACT: note_off channel=2 note=53 velocity=95 time=0
EXTRACT: note_off channel=2 note=48 velocity=95 time=0
EXTRACT: note_on channel=2 note=69 velocity=95 time=0
EXTRACT: note_on channel=2 note=65 velocity=95 time=0
EXTRACT: note_on channel=2 note=60 velocity=95 time=0
EXTRACT: note_on channel=2 note=53 velocity=95 time=0
EXTRACT: note_on channel=2 note=48 velocity=95 time=0
EXTRACT: note_off channel=0 note=69 velocity=95 time=0.39999999999999997
EXTRACT: note_off channel=0 note=65 velocity=95 time=0
EXTRACT: note_off channel=0 note=60 velocity=95 time=0
EXTRACT: note_off channel=0 note=53 velocity=95 time=0
EXTRACT: note_off channel=0 note=48 velocity=95 time=0
EXTRACT: note_on channel=0 note=69 velocity=95 time=0
EXTRACT: note_on channel=0 note=65 velocity=95 time=0
EXTRACT: note_on channel=0 note=60 velocity=95 time=0
EXTRACT: note_on channel=0 note=53 velocity=95 time=0
EXTRACT: note_on channel=0 note=48 velocity=95 time=0
EXTRACT: note_off channel=2 note=69 velocity=95 time=0
EXTRACT: note_off channel=2 note=65 velocity=95 time=0
EXTRACT: note_off channel=2 note=60 velocity=95 time=0
EXTRACT: note_off channel=2 note=53 velocity=95 time=0
EXTRACT: note_off channel=2 note=48 velocity=95 time=0
EXTRACT: note_on channel=2 note=69 velocity=95 time=0
EXTRACT: note_on channel=2 note=65 velocity=95 time=0
EXTRACT: note_on channel=2 note=60 velocity=95 time=0
EXTRACT: note_on channel=2 note=53 velocity=95 time=0
EXTRACT: note_on channel=2 note=48 velocity=95 time=0
EXTRACT: note_off channel=0 note=69 velocity=95 time=0.39999999999999997
EXTRACT: note_off channel=0 note=65 velocity=95 time=0
EXTRACT: note_off channel=0 note=60 velocity=95 time=0
EXTRACT: note_off channel=0 note=53 velocity=95 time=0
EXTRACT: note_off channel=0 note=48 velocity=95 time=0
EXTRACT: note_on channel=0 note=69 velocity=95 time=0
EXTRACT: note_on channel=0 note=65 velocity=95 time=0
EXTRACT: note_on channel=0 note=60 velocity=95 time=0
EXTRACT: note_on channel=0 note=53 velocity=95 time=0
EXTRACT: note_on channel=0 note=48 velocity=95 time=0
EXTRACT: note_off channel=2 note=69 velocity=95 time=0
EXTRACT: note_off channel=2 note=65 velocity=95 time=0
EXTRACT: note_off channel=2 note=60 velocity=95 time=0
EXTRACT: note_off channel=2 note=53 velocity=95 time=0
EXTRACT: note_off channel=2 note=48 velocity=95 time=0
EXTRACT: note_on channel=2 note=69 velocity=95 time=0
EXTRACT: note_on channel=2 note=65 velocity=95 time=0
EXTRACT: note_on channel=2 note=60 velocity=95 time=0
EXTRACT: note_on channel=2 note=53 velocity=95 time=0
EXTRACT: note_on channel=2 note=48 velocity=95 time=0
EXTRACT: note_off channel=0 note=69 velocity=95 time=0.39999999999999997
EXTRACT: note_off channel=0 note=65 velocity=95 time=0
EXTRACT: note_off channel=0 note=60 velocity=95 time=0
EXTRACT: note_off channel=0 note=53 velocity=95 time=0
EXTRACT: note_off channel=0 note=48 velocity=95 time=0
EXTRACT: note_on channel=0 note=69 velocity=95 time=0
EXTRACT: note_on channel=0 note=65 velocity=95 time=0
EXTRACT: note_on channel=0 note=60 velocity=95 time=0
EXTRACT: note_on channel=0 note=53 velocity=95 time=0
EXTRACT: note_on channel=0 note=48 velocity=95 time=0
EXTRACT: note_off channel=2 note=69 velocity=95 time=0
EXTRACT: note_off channel=2 note=65 velocity=95 time=0
EXTRACT: note_off channel=2 note=60 velocity=95 time=0
EXTRACT: note_off channel=2 note=53 velocity=95 time=0
EXTRACT: note_off channel=2 note=48 velocity=95 time=0
EXTRACT: note_on channel=2 note=69 velocity=95 time=0
EXTRACT: note_on channel=2 note=65 velocity=95 time=0
EXTRACT: note_on channel=2 note=60 velocity=95 time=0
EXTRACT: note_on channel=2 note=53 velocity=95 time=0
EXTRACT: note_on channel=2 note=48 velocity=95 time=0
EXTRACT: note_off channel=6 note=65 velocity=111 time=0
EXTRACT: note_off channel=6 note=60 velocity=111 time=0
EXTRACT: note_off channel=6 note=57 velocity=111 time=0
EXTRACT: note_off channel=6 note=53 velocity=111 time=0
EXTRACT: note_on channel=6 note=53 velocity=111 time=0
EXTRACT: note_on channel=6 note=57 velocity=111 time=0.006666666666666666
EXTRACT: note_on channel=6 note=60 velocity=111 time=0.006666666666666666
EXTRACT: note_on channel=6 note=65 velocity=111 time=0.006666666666666666
EXTRACT: note_off channel=0 note=69 velocity=95 time=0.37999999999999995
EXTRACT: note_off channel=0 note=65 velocity=95 time=0
EXTRACT: note_off channel=0 note=60 velocity=95 time=0
EXTRACT: note_off channel=0 note=53 velocity=95 time=0
EXTRACT: note_off channel=0 note=48 velocity=95 time=0
EXTRACT: note_on channel=0 note=69 velocity=95 time=0
EXTRACT: note_on channel=0 note=65 velocity=95 time=0
EXTRACT: note_on channel=0 note=60 velocity=95 time=0
EXTRACT: note_on channel=0 note=53 velocity=95 time=0
EXTRACT: note_on channel=0 note=48 velocity=95 time=0
EXTRACT: note_off channel=2 note=69 velocity=95 time=0
EXTRACT: note_off channel=2 note=65 velocity=95 time=0
EXTRACT: note_off channel=2 note=60 velocity=95 time=0
EXTRACT: note_off channel=2 note=53 velocity=95 time=0
EXTRACT: note_off channel=2 note=48 velocity=95 time=0
EXTRACT: note_on channel=2 note=69 velocity=95 time=0
EXTRACT: note_on channel=2 note=65 velocity=95 time=0
EXTRACT: note_on channel=2 note=60 velocity=95 time=0
EXTRACT: note_on channel=2 note=53 velocity=95 time=0
EXTRACT: note_on channel=2 note=48 velocity=95 time=0
EXTRACT: note_off channel=0 note=69 velocity=95 time=0.39999999999999997
EXTRACT: note_off channel=0 note=65 velocity=95 time=0
EXTRACT: note_off channel=0 note=60 velocity=95 time=0
EXTRACT: note_off channel=0 note=53 velocity=95 time=0
EXTRACT: note_off channel=0 note=48 velocity=95 time=0
EXTRACT: note_on channel=0 note=69 velocity=95 time=0
EXTRACT: note_on channel=0 note=65 velocity=95 time=0
EXTRACT: note_on channel=0 note=60 velocity=95 time=0
EXTRACT: note_on channel=0 note=53 velocity=95 time=0
EXTRACT: note_on channel=0 note=48 velocity=95 time=0
EXTRACT: note_off channel=2 note=69 velocity=95 time=0
EXTRACT: note_off channel=2 note=65 velocity=95 time=0
EXTRACT: note_off channel=2 note=60 velocity=95 time=0
EXTRACT: note_off channel=2 note=53 velocity=95 time=0
EXTRACT: note_off channel=2 note=48 velocity=95 time=0
EXTRACT: note_on channel=2 note=69 velocity=95 time=0
EXTRACT: note_on channel=2 note=65 velocity=95 time=0
EXTRACT: note_on channel=2 note=60 velocity=95 time=0
EXTRACT: note_on channel=2 note=53 velocity=95 time=0
EXTRACT: note_on channel=2 note=48 velocity=95 time=0
EXTRACT: note_off channel=0 note=69 velocity=95 time=0.39999999999999997
EXTRACT: note_off channel=0 note=65 velocity=95 time=0
EXTRACT: note_off channel=0 note=60 velocity=95 time=0
EXTRACT: note_off channel=0 note=53 velocity=95 time=0
EXTRACT: note_off channel=0 note=48 velocity=95 time=0
EXTRACT: note_on channel=0 note=69 velocity=95 time=0
EXTRACT: note_on channel=0 note=65 velocity=95 time=0
EXTRACT: note_on channel=0 note=60 velocity=95 time=0
EXTRACT: note_on channel=0 note=53 velocity=95 time=0
EXTRACT: note_on channel=0 note=48 velocity=95 time=0
EXTRACT: note_off channel=2 note=69 velocity=95 time=0
EXTRACT: note_off channel=2 note=65 velocity=95 time=0
EXTRACT: note_off channel=2 note=60 velocity=95 time=0
EXTRACT: note_off channel=2 note=53 velocity=95 time=0
EXTRACT: note_off channel=2 note=48 velocity=95 time=0
EXTRACT: note_on channel=2 note=69 velocity=95 time=0
EXTRACT: note_on channel=2 note=65 velocity=95 time=0
EXTRACT: note_on channel=2 note=60 velocity=95 time=0
EXTRACT: note_on channel=2 note=53 velocity=95 time=0
EXTRACT: note_on channel=2 note=48 velocity=95 time=0
EXTRACT: note_off channel=0 note=69 velocity=95 time=0.39999999999999997
EXTRACT: note_off channel=0 note=65 velocity=95 time=0
EXTRACT: note_off channel=0 note=60 velocity=95 time=0
EXTRACT: note_off channel=0 note=53 velocity=95 time=0
EXTRACT: note_off channel=0 note=48 velocity=95 time=0
EXTRACT: note_on channel=0 note=69 velocity=95 time=0
EXTRACT: note_on channel=0 note=65 velocity=95 time=0
EXTRACT: note_on channel=0 note=60 velocity=95 time=0
EXTRACT: note_on channel=0 note=53 velocity=95 time=0
EXTRACT: note_on channel=0 note=48 velocity=95 time=0
EXTRACT: note_off channel=2 note=69 velocity=95 time=0
EXTRACT: note_off channel=2 note=65 velocity=95 time=0
EXTRACT: note_off channel=2 note=60 velocity=95 time=0
EXTRACT: note_off channel=2 note=53 velocity=95 time=0
EXTRACT: note_off channel=2 note=48 velocity=95 time=0
EXTRACT: note_on channel=2 note=69 velocity=95 time=0
EXTRACT: note_on channel=2 note=65 velocity=95 time=0
EXTRACT: note_on channel=2 note=60 velocity=95 time=0
EXTRACT: note_on channel=2 note=53 velocity=95 time=0
EXTRACT: note_on channel=2 note=48 velocity=95 time=0
EXTRACT: note_off channel=0 note=69 velocity=95 time=0.39999999999999997
EXTRACT: note_off channel=0 note=65 velocity=95 time=0
EXTRACT: note_off channel=0 note=60 velocity=95 time=0
EXTRACT: note_off channel=0 note=53 velocity=95 time=0
EXTRACT: note_off channel=0 note=48 velocity=95 time=0
EXTRACT: note_on channel=0 note=69 velocity=95 time=0
EXTRACT: note_on channel=0 note=65 velocity=95 time=0
EXTRACT: note_on channel=0 note=60 velocity=95 time=0
EXTRACT: note_on channel=0 note=53 velocity=95 time=0
EXTRACT: note_on channel=0 note=48 velocity=95 time=0
EXTRACT: note_off channel=2 note=69 velocity=95 time=0
EXTRACT: note_off channel=2 note=65 velocity=95 time=0
EXTRACT: note_off channel=2 note=60 velocity=95 time=0
EXTRACT: note_off channel=2 note=53 velocity=95 time=0
EXTRACT: note_off channel=2 note=48 velocity=95 time=0
EXTRACT: note_on channel=2 note=69 velocity=95 time=0
EXTRACT: note_on channel=2 note=65 velocity=95 time=0
EXTRACT: note_on channel=2 note=60 velocity=95 time=0
EXTRACT: note_on channel=2 note=53 velocity=95 time=0
EXTRACT: note_on channel=2 note=48 velocity=95 time=0
EXTRACT: note_off channel=0 note=69 velocity=95 time=0.39999999999999997
EXTRACT: note_off channel=0 note=65 velocity=95 time=0
EXTRACT: note_off channel=0 note=60 velocity=95 time=0
EXTRACT: note_off channel=0 note=53 velocity=95 time=0
EXTRACT: note_off channel=0 note=48 velocity=95 time=0
EXTRACT: note_on channel=0 note=69 velocity=95 time=0
EXTRACT: note_on channel=0 note=65 velocity=95 time=0
EXTRACT: note_on channel=0 note=60 velocity=95 time=0
EXTRACT: note_on channel=0 note=53 velocity=95 time=0
EXTRACT: note_on channel=0 note=48 velocity=95 time=0
EXTRACT: note_off channel=2 note=69 velocity=95 time=0
EXTRACT: note_off channel=2 note=65 velocity=95 time=0
EXTRACT: note_off channel=2 note=60 velocity=95 time=0
EXTRACT: note_off channel=2 note=53 velocity=95 time=0
EXTRACT: note_off channel=2 note=48 velocity=95 time=0
EXTRACT: note_on channel=2 note=69 velocity=95 time=0
EXTRACT: note_on channel=2 note=65 velocity=95 time=0
EXTRACT: note_on channel=2 note=60 velocity=95 time=0
EXTRACT: note_on channel=2 note=53 velocity=95 time=0
EXTRACT: note_on channel=2 note=48 velocity=95 time=0
EXTRACT: note_off channel=0 note=69 velocity=95 time=0.39999999999999997
EXTRACT: note_off channel=0 note=65 velocity=95 time=0
EXTRACT: note_off channel=0 note=60 velocity=95 time=0
EXTRACT: note_off channel=0 note=53 velocity=95 time=0
EXTRACT: note_off channel=0 note=48 velocity=95 time=0
EXTRACT: note_on channel=0 note=69 velocity=95 time=0
EXTRACT: note_on channel=0 note=65 velocity=95 time=0
EXTRACT: note_on channel=0 note=60 velocity=95 time=0
EXTRACT: note_on channel=0 note=53 velocity=95 time=0
EXTRACT: note_on channel=0 note=48 velocity=95 time=0
EXTRACT: note_off channel=2 note=69 velocity=95 time=0
EXTRACT: note_off channel=2 note=65 velocity=95 time=0
EXTRACT: note_off channel=2 note=60 velocity=95 time=0
EXTRACT: note_off channel=2 note=53 velocity=95 time=0
EXTRACT: note_off channel=2 note=48 velocity=95 time=0
EXTRACT: note_on channel=2 note=69 velocity=95 time=0
EXTRACT: note_on channel=2 note=65 velocity=95 time=0
EXTRACT: note_on channel=2 note=60 velocity=95 time=0
EXTRACT: note_on channel=2 note=53 velocity=95 time=0
EXTRACT: note_on channel=2 note=48 velocity=95 time=0
EXTRACT: note_off channel=0 note=69 velocity=95 time=0.39999999999999997
EXTRACT: note_off channel=0 note=65 velocity=95 time=0
EXTRACT: note_off channel=0 note=60 velocity=95 time=0
EXTRACT: note_off channel=0 note=53 velocity=95 time=0
EXTRACT: note_off channel=0 note=48 velocity=95 time=0
EXTRACT: note_on channel=0 note=69 velocity=95 time=0
EXTRACT: note_on channel=0 note=65 velocity=95 time=0
EXTRACT: note_on channel=0 note=62 velocity=95 time=0
EXTRACT: note_on channel=0 note=57 velocity=95 time=0
EXTRACT: note_on channel=0 note=50 velocity=95 time=0
EXTRACT: note_on channel=0 note=45 velocity=95 time=0
EXTRACT: note_off channel=2 note=69 velocity=95 time=0
EXTRACT: note_off channel=2 note=65 velocity=95 time=0
EXTRACT: note_off channel=2 note=60 velocity=95 time=0
EXTRACT: note_off channel=2 note=53 velocity=95 time=0
EXTRACT: note_off channel=2 note=48 velocity=95 time=0
EXTRACT: note_on channel=2 note=69 velocity=95 time=0
EXTRACT: note_on channel=2 note=65 velocity=95 time=0
EXTRACT: note_on channel=2 note=62 velocity=95 time=0
EXTRACT: note_on channel=2 note=57 velocity=95 time=0
EXTRACT: note_on channel=2 note=50 velocity=95 time=0
EXTRACT: note_on channel=2 note=45 velocity=95 time=0
EXTRACT: note_off channel=6 note=65 velocity=111 time=0
EXTRACT: note_off channel=6 note=60 velocity=111 time=0
EXTRACT: note_off channel=6 note=57 velocity=111 time=0
EXTRACT: note_off channel=6 note=53 velocity=111 time=0
EXTRACT: note_on channel=6 note=57 velocity=111 time=0
EXTRACT: note_on channel=6 note=62 velocity=111 time=0.006666666666666666
EXTRACT: note_on channel=6 note=65 velocity=111 time=0.006666666666666666
EXTRACT: note_on channel=6 note=69 velocity=111 time=0.006666666666666666
EXTRACT: note_off channel=0 note=69 velocity=95 time=0.37999999999999995
EXTRACT: note_off channel=0 note=65 velocity=95 time=0
EXTRACT: note_off channel=0 note=62 velocity=95 time=0
EXTRACT: note_off channel=0 note=57 velocity=95 time=0
EXTRACT: note_off channel=0 note=50 velocity=95 time=0
EXTRACT: note_off channel=0 note=45 velocity=95 time=0
EXTRACT: note_on channel=0 note=69 velocity=95 time=0
EXTRACT: note_on channel=0 note=65 velocity=95 time=0
EXTRACT: note_on channel=0 note=62 velocity=95 time=0
EXTRACT: note_on channel=0 note=57 velocity=95 time=0
EXTRACT: note_on channel=0 note=50 velocity=95 time=0
EXTRACT: note_on channel=0 note=45 velocity=95 time=0
EXTRACT: note_off channel=2 note=69 velocity=95 time=0
EXTRACT: note_off channel=2 note=65 velocity=95 time=0
EXTRACT: note_off channel=2 note=62 velocity=95 time=0
EXTRACT: note_off channel=2 note=57 velocity=95 time=0
EXTRACT: note_off channel=2 note=50 velocity=95 time=0
EXTRACT: note_off channel=2 note=45 velocity=95 time=0
EXTRACT: note_on channel=2 note=69 velocity=95 time=0
EXTRACT: note_on channel=2 note=65 velocity=95 time=0
EXTRACT: note_on channel=2 note=62 velocity=95 time=0
EXTRACT: note_on channel=2 note=57 velocity=95 time=0
EXTRACT: note_on channel=2 note=50 velocity=95 time=0
EXTRACT: note_on channel=2 note=45 velocity=95 time=0
EXTRACT: note_off channel=0 note=69 velocity=95 time=0.39999999999999997
EXTRACT: note_off channel=0 note=65 velocity=95 time=0
EXTRACT: note_off channel=0 note=62 velocity=95 time=0
EXTRACT: note_off channel=0 note=57 velocity=95 time=0
EXTRACT: note_off channel=0 note=50 velocity=95 time=0
EXTRACT: note_off channel=0 note=45 velocity=95 time=0
EXTRACT: note_on channel=0 note=69 velocity=95 time=0
EXTRACT: note_on channel=0 note=65 velocity=95 time=0
EXTRACT: note_on channel=0 note=62 velocity=95 time=0
EXTRACT: note_on channel=0 note=57 velocity=95 time=0
EXTRACT: note_on channel=0 note=50 velocity=95 time=0
EXTRACT: note_on channel=0 note=45 velocity=95 time=0
EXTRACT: note_off channel=2 note=69 velocity=95 time=0
EXTRACT: note_off channel=2 note=65 velocity=95 time=0
EXTRACT: note_off channel=2 note=62 velocity=95 time=0
EXTRACT: note_off channel=2 note=57 velocity=95 time=0
EXTRACT: note_off channel=2 note=50 velocity=95 time=0
EXTRACT: note_off channel=2 note=45 velocity=95 time=0
EXTRACT: note_on channel=2 note=69 velocity=95 time=0
EXTRACT: note_on channel=2 note=65 velocity=95 time=0
EXTRACT: note_on channel=2 note=62 velocity=95 time=0
EXTRACT: note_on channel=2 note=57 velocity=95 time=0
EXTRACT: note_on channel=2 note=50 velocity=95 time=0
EXTRACT: note_on channel=2 note=45 velocity=95 time=0
EXTRACT: note_off channel=0 note=69 velocity=95 time=0.39999999999999997
EXTRACT: note_off channel=0 note=65 velocity=95 time=0
EXTRACT: note_off channel=0 note=62 velocity=95 time=0
EXTRACT: note_off channel=0 note=57 velocity=95 time=0
EXTRACT: note_off channel=0 note=50 velocity=95 time=0
EXTRACT: note_off channel=0 note=45 velocity=95 time=0
EXTRACT: note_on channel=0 note=69 velocity=95 time=0
EXTRACT: note_on channel=0 note=65 velocity=95 time=0
EXTRACT: note_on channel=0 note=62 velocity=95 time=0
EXTRACT: note_on channel=0 note=57 velocity=95 time=0
EXTRACT: note_on channel=0 note=50 velocity=95 time=0
EXTRACT: note_on channel=0 note=45 velocity=95 time=0
EXTRACT: note_off channel=2 note=69 velocity=95 time=0
EXTRACT: note_off channel=2 note=65 velocity=95 time=0
EXTRACT: note_off channel=2 note=62 velocity=95 time=0
EXTRACT: note_off channel=2 note=57 velocity=95 time=0
EXTRACT: note_off channel=2 note=50 velocity=95 time=0
EXTRACT: note_off channel=2 note=45 velocity=95 time=0
EXTRACT: note_on channel=2 note=69 velocity=95 time=0
EXTRACT: note_on channel=2 note=65 velocity=95 time=0
EXTRACT: note_on channel=2 note=62 velocity=95 time=0
EXTRACT: note_on channel=2 note=57 velocity=95 time=0
EXTRACT: note_on channel=2 note=50 velocity=95 time=0
EXTRACT: note_on channel=2 note=45 velocity=95 time=0
EXTRACT: note_off channel=0 note=69 velocity=95 time=0.39999999999999997
EXTRACT: note_off channel=0 note=65 velocity=95 time=0
EXTRACT: note_off channel=0 note=62 velocity=95 time=0
EXTRACT: note_off channel=0 note=57 velocity=95 time=0
EXTRACT: note_off channel=0 note=50 velocity=95 time=0
EXTRACT: note_off channel=0 note=45 velocity=95 time=0
EXTRACT: note_on channel=0 note=69 velocity=95 time=0
EXTRACT: note_on channel=0 note=65 velocity=95 time=0
EXTRACT: note_on channel=0 note=62 velocity=95 time=0
EXTRACT: note_on channel=0 note=57 velocity=95 time=0
EXTRACT: note_on channel=0 note=50 velocity=95 time=0
EXTRACT: note_on channel=0 note=45 velocity=95 time=0
EXTRACT: note_off channel=2 note=69 velocity=95 time=0
EXTRACT: note_off channel=2 note=65 velocity=95 time=0
EXTRACT: note_off channel=2 note=62 velocity=95 time=0
EXTRACT: note_off channel=2 note=57 velocity=95 time=0
EXTRACT: note_off channel=2 note=50 velocity=95 time=0
EXTRACT: note_off channel=2 note=45 velocity=95 time=0
EXTRACT: note_on channel=2 note=69 velocity=95 time=0
EXTRACT: note_on channel=2 note=65 velocity=95 time=0
EXTRACT: note_on channel=2 note=62 velocity=95 time=0
EXTRACT: note_on channel=2 note=57 velocity=95 time=0
EXTRACT: note_on channel=2 note=50 velocity=95 time=0
EXTRACT: note_on channel=2 note=45 velocity=95 time=0
EXTRACT: note_off channel=0 note=69 velocity=95 time=0.39999999999999997
EXTRACT: note_off channel=0 note=65 velocity=95 time=0
EXTRACT: note_off channel=0 note=62 velocity=95 time=0
EXTRACT: note_off channel=0 note=57 velocity=95 time=0
EXTRACT: note_off channel=0 note=50 velocity=95 time=0
EXTRACT: note_off channel=0 note=45 velocity=95 time=0
EXTRACT: note_on channel=0 note=69 velocity=95 time=0
EXTRACT: note_on channel=0 note=65 velocity=95 time=0
EXTRACT: note_on channel=0 note=62 velocity=95 time=0
EXTRACT: note_on channel=0 note=57 velocity=95 time=0
EXTRACT: note_on channel=0 note=50 velocity=95 time=0
EXTRACT: note_on channel=0 note=45 velocity=95 time=0
EXTRACT: note_off channel=2 note=69 velocity=95 time=0
EXTRACT: note_off channel=2 note=65 velocity=95 time=0
EXTRACT: note_off channel=2 note=62 velocity=95 time=0
EXTRACT: note_off channel=2 note=57 velocity=95 time=0
EXTRACT: note_off channel=2 note=50 velocity=95 time=0
EXTRACT: note_off channel=2 note=45 velocity=95 time=0
EXTRACT: note_on channel=2 note=69 velocity=95 time=0
EXTRACT: note_on channel=2 note=65 velocity=95 time=0
EXTRACT: note_on channel=2 note=62 velocity=95 time=0
EXTRACT: note_on channel=2 note=57 velocity=95 time=0
EXTRACT: note_on channel=2 note=50 velocity=95 time=0
EXTRACT: note_on channel=2 note=45 velocity=95 time=0
EXTRACT: note_off channel=0 note=69 velocity=95 time=0.39999999999999997
EXTRACT: note_off channel=0 note=65 velocity=95 time=0
EXTRACT: note_off channel=0 note=62 velocity=95 time=0
EXTRACT: note_off channel=0 note=57 velocity=95 time=0
EXTRACT: note_off channel=0 note=50 velocity=95 time=0
EXTRACT: note_off channel=0 note=45 velocity=95 time=0
EXTRACT: note_on channel=0 note=69 velocity=95 time=0
EXTRACT: note_on channel=0 note=65 velocity=95 time=0
EXTRACT: note_on channel=0 note=62 velocity=95 time=0
EXTRACT: note_on channel=0 note=57 velocity=95 time=0
EXTRACT: note_on channel=0 note=50 velocity=95 time=0
EXTRACT: note_on channel=0 note=45 velocity=95 time=0
EXTRACT: note_off channel=2 note=69 velocity=95 time=0
EXTRACT: note_off channel=2 note=65 velocity=95 time=0
EXTRACT: note_off channel=2 note=62 velocity=95 time=0
EXTRACT: note_off channel=2 note=57 velocity=95 time=0
EXTRACT: note_off channel=2 note=50 velocity=95 time=0
EXTRACT: note_off channel=2 note=45 velocity=95 time=0
EXTRACT: note_on channel=2 note=69 velocity=95 time=0
EXTRACT: note_on channel=2 note=65 velocity=95 time=0
EXTRACT: note_on channel=2 note=62 velocity=95 time=0
EXTRACT: note_on channel=2 note=57 velocity=95 time=0
EXTRACT: note_on channel=2 note=50 velocity=95 time=0
EXTRACT: note_on channel=2 note=45 velocity=95 time=0
EXTRACT: note_on channel=11 note=60 velocity=95 time=0
EXTRACT: note_off channel=0 note=69 velocity=95 time=0.39999999999999997
EXTRACT: note_off channel=0 note=65 velocity=95 time=0
EXTRACT: note_off channel=0 note=62 velocity=95 time=0
EXTRACT: note_off channel=0 note=57 velocity=95 time=0
EXTRACT: note_off channel=0 note=50 velocity=95 time=0
EXTRACT: note_off channel=0 note=45 velocity=95 time=0
EXTRACT: note_on channel=0 note=69 velocity=95 time=0
EXTRACT: note_on channel=0 note=65 velocity=95 time=0
EXTRACT: note_on channel=0 note=62 velocity=95 time=0
EXTRACT: note_on channel=0 note=57 velocity=95 time=0
EXTRACT: note_on channel=0 note=50 velocity=95 time=0
EXTRACT: note_on channel=0 note=45 velocity=95 time=0
EXTRACT: note_off channel=2 note=69 velocity=95 time=0
EXTRACT: note_off channel=2 note=65 velocity=95 time=0
EXTRACT: note_off channel=2 note=62 velocity=95 time=0
EXTRACT: note_off channel=2 note=57 velocity=95 time=0
EXTRACT: note_off channel=2 note=50 velocity=95 time=0
EXTRACT: note_off channel=2 note=45 velocity=95 time=0
EXTRACT: note_on channel=2 note=69 velocity=95 time=0
EXTRACT: note_on channel=2 note=65 velocity=95 time=0
EXTRACT: note_on channel=2 note=62 velocity=95 time=0
EXTRACT: note_on channel=2 note=57 velocity=95 time=0
EXTRACT: note_on channel=2 note=50 velocity=95 time=0
EXTRACT: note_on channel=2 note=45 velocity=95 time=0
EXTRACT: note_off channel=11 note=60 velocity=95 time=0
EXTRACT: note_on channel=11 note=69 velocity=95 time=0
EXTRACT: note_off channel=0 note=69 velocity=95 time=0.39999999999999997
EXTRACT: note_off channel=0 note=65 velocity=95 time=0
EXTRACT: note_off channel=0 note=62 velocity=95 time=0
EXTRACT: note_off channel=0 note=57 velocity=95 time=0
EXTRACT: note_off channel=0 note=50 velocity=95 time=0
EXTRACT: note_off channel=0 note=45 velocity=95 time=0
EXTRACT: note_on channel=0 note=70 velocity=95 time=0
EXTRACT: note_on channel=0 note=65 velocity=95 time=0
EXTRACT: note_on channel=0 note=62 velocity=95 time=0
EXTRACT: note_on channel=0 note=58 velocity=95 time=0
EXTRACT: note_on channel=0 note=53 velocity=95 time=0
EXTRACT: note_on channel=0 note=46 velocity=95 time=0
EXTRACT: note_off channel=2 note=69 velocity=95 time=0
EXTRACT: note_off channel=2 note=65 velocity=95 time=0
EXTRACT: note_off channel=2 note=62 velocity=95 time=0
EXTRACT: note_off channel=2 note=57 velocity=95 time=0
EXTRACT: note_off channel=2 note=50 velocity=95 time=0
EXTRACT: note_off channel=2 note=45 velocity=95 time=0
EXTRACT: note_on channel=2 note=70 velocity=95 time=0
EXTRACT: note_on channel=2 note=65 velocity=95 time=0
EXTRACT: note_on channel=2 note=62 velocity=95 time=0
EXTRACT: note_on channel=2 note=58 velocity=95 time=0
EXTRACT: note_on channel=2 note=53 velocity=95 time=0
EXTRACT: note_on channel=2 note=46 velocity=95 time=0
EXTRACT: note_off channel=6 note=69 velocity=111 time=0
EXTRACT: note_off channel=6 note=65 velocity=111 time=0
EXTRACT: note_off channel=6 note=62 velocity=111 time=0
EXTRACT: note_off channel=6 note=57 velocity=111 time=0
EXTRACT: note_on channel=6 note=58 velocity=111 time=0
EXTRACT: note_on channel=6 note=62 velocity=111 time=0.006666666666666666
EXTRACT: note_on channel=6 note=65 velocity=111 time=0.006666666666666666
EXTRACT: note_on channel=6 note=70 velocity=111 time=0.006666666666666666
EXTRACT: note_off channel=0 note=70 velocity=95 time=0.37999999999999995
EXTRACT: note_off channel=0 note=65 velocity=95 time=0
EXTRACT: note_off channel=0 note=62 velocity=95 time=0
EXTRACT: note_off channel=0 note=58 velocity=95 time=0
EXTRACT: note_off channel=0 note=53 velocity=95 time=0
EXTRACT: note_off channel=0 note=46 velocity=95 time=0
EXTRACT: note_on channel=0 note=70 velocity=95 time=0
EXTRACT: note_on channel=0 note=65 velocity=95 time=0
EXTRACT: note_on channel=0 note=62 velocity=95 time=0
EXTRACT: note_on channel=0 note=58 velocity=95 time=0
EXTRACT: note_on channel=0 note=53 velocity=95 time=0
EXTRACT: note_on channel=0 note=46 velocity=95 time=0
EXTRACT: note_off channel=2 note=70 velocity=95 time=0
EXTRACT: note_off channel=2 note=65 velocity=95 time=0
EXTRACT: note_off channel=2 note=62 velocity=95 time=0
EXTRACT: note_off channel=2 note=58 velocity=95 time=0
EXTRACT: note_off channel=2 note=53 velocity=95 time=0
EXTRACT: note_off channel=2 note=46 velocity=95 time=0
EXTRACT: note_on channel=2 note=70 velocity=95 time=0
EXTRACT: note_on channel=2 note=65 velocity=95 time=0
EXTRACT: note_on channel=2 note=62 velocity=95 time=0
EXTRACT: note_on channel=2 note=58 velocity=95 time=0
EXTRACT: note_on channel=2 note=53 velocity=95 time=0
EXTRACT: note_on channel=2 note=46 velocity=95 time=0
EXTRACT: note_off channel=0 note=70 velocity=95 time=0.39999999999999997
EXTRACT: note_off channel=0 note=65 velocity=95 time=0
EXTRACT: note_off channel=0 note=62 velocity=95 time=0
EXTRACT: note_off channel=0 note=58 velocity=95 time=0
EXTRACT: note_off channel=0 note=53 velocity=95 time=0
EXTRACT: note_off channel=0 note=46 velocity=95 time=0
EXTRACT: note_on channel=0 note=70 velocity=95 time=0
EXTRACT: note_on channel=0 note=65 velocity=95 time=0
EXTRACT: note_on channel=0 note=62 velocity=95 time=0
EXTRACT: note_on channel=0 note=58 velocity=95 time=0
EXTRACT: note_on channel=0 note=53 velocity=95 time=0
EXTRACT: note_on channel=0 note=46 velocity=95 time=0
EXTRACT: note_off channel=2 note=70 velocity=95 time=0
EXTRACT: note_off channel=2 note=65 velocity=95 time=0
EXTRACT: note_off channel=2 note=62 velocity=95 time=0
EXTRACT: note_off channel=2 note=58 velocity=95 time=0
EXTRACT: note_off channel=2 note=53 velocity=95 time=0
EXTRACT: note_off channel=2 note=46 velocity=95 time=0
EXTRACT: note_on channel=2 note=70 velocity=95 time=0
EXTRACT: note_on channel=2 note=65 velocity=95 time=0
EXTRACT: note_on channel=2 note=62 velocity=95 time=0
EXTRACT: note_on channel=2 note=58 velocity=95 time=0
EXTRACT: note_on channel=2 note=53 velocity=95 time=0
EXTRACT: note_on channel=2 note=46 velocity=95 time=0
EXTRACT: note_off channel=0 note=70 velocity=95 time=0.39999999999999997
EXTRACT: note_off channel=0 note=65 velocity=95 time=0
EXTRACT: note_off channel=0 note=62 velocity=95 time=0
EXTRACT: note_off channel=0 note=58 velocity=95 time=0
EXTRACT: note_off channel=0 note=53 velocity=95 time=0
EXTRACT: note_off channel=0 note=46 velocity=95 time=0
EXTRACT: note_on channel=0 note=70 velocity=95 time=0
EXTRACT: note_on channel=0 note=65 velocity=95 time=0
EXTRACT: note_on channel=0 note=62 velocity=95 time=0
EXTRACT: note_on channel=0 note=58 velocity=95 time=0
EXTRACT: note_on channel=0 note=53 velocity=95 time=0
EXTRACT: note_on channel=0 note=46 velocity=95 time=0
EXTRACT: note_off channel=2 note=70 velocity=95 time=0
EXTRACT: note_off channel=2 note=65 velocity=95 time=0
EXTRACT: note_off channel=2 note=62 velocity=95 time=0
EXTRACT: note_off channel=2 note=58 velocity=95 time=0
EXTRACT: note_off channel=2 note=53 velocity=95 time=0
EXTRACT: note_off channel=2 note=46 velocity=95 time=0
EXTRACT: note_on channel=2 note=70 velocity=95 time=0
EXTRACT: note_on channel=2 note=65 velocity=95 time=0
EXTRACT: note_on channel=2 note=62 velocity=95 time=0
EXTRACT: note_on channel=2 note=58 velocity=95 time=0
EXTRACT: note_on channel=2 note=53 velocity=95 time=0
EXTRACT: note_on channel=2 note=46 velocity=95 time=0
EXTRACT: note_off channel=0 note=70 velocity=95 time=0.39999999999999997
EXTRACT: note_off channel=0 note=65 velocity=95 time=0
EXTRACT: note_off channel=0 note=62 velocity=95 time=0
EXTRACT: note_off channel=0 note=58 velocity=95 time=0
EXTRACT: note_off channel=0 note=53 velocity=95 time=0
EXTRACT: note_off channel=0 note=46 velocity=95 time=0
EXTRACT: note_on channel=0 note=70 velocity=95 time=0
EXTRACT: note_on channel=0 note=65 velocity=95 time=0
EXTRACT: note_on channel=0 note=62 velocity=95 time=0
EXTRACT: note_on channel=0 note=58 velocity=95 time=0
EXTRACT: note_on channel=0 note=53 velocity=95 time=0
EXTRACT: note_on channel=0 note=46 velocity=95 time=0
EXTRACT: note_off channel=2 note=70 velocity=95 time=0
EXTRACT: note_off channel=2 note=65 velocity=95 time=0
EXTRACT: note_off channel=2 note=62 velocity=95 time=0
EXTRACT: note_off channel=2 note=58 velocity=95 time=0
EXTRACT: note_off channel=2 note=53 velocity=95 time=0
EXTRACT: note_off channel=2 note=46 velocity=95 time=0
EXTRACT: note_on channel=2 note=70 velocity=95 time=0
EXTRACT: note_on channel=2 note=65 velocity=95 time=0
EXTRACT: note_on channel=2 note=62 velocity=95 time=0
EXTRACT: note_on channel=2 note=58 velocity=95 time=0
EXTRACT: note_on channel=2 note=53 velocity=95 time=0
EXTRACT: note_on channel=2 note=46 velocity=95 time=0
EXTRACT: note_off channel=0 note=70 velocity=95 time=0.39999999999999997
EXTRACT: note_off channel=0 note=65 velocity=95 time=0
EXTRACT: note_off channel=0 note=62 velocity=95 time=0
EXTRACT: note_off channel=0 note=58 velocity=95 time=0
EXTRACT: note_off channel=0 note=53 velocity=95 time=0
EXTRACT: note_off channel=0 note=46 velocity=95 time=0
EXTRACT: note_on channel=0 note=70 velocity=95 time=0
EXTRACT: note_on channel=0 note=65 velocity=95 time=0
EXTRACT: note_on channel=0 note=62 velocity=95 time=0
EXTRACT: note_on channel=0 note=58 velocity=95 time=0
EXTRACT: note_on channel=0 note=53 velocity=95 time=0
EXTRACT: note_on channel=0 note=46 velocity=95 time=0
EXTRACT: note_off channel=2 note=70 velocity=95 time=0
EXTRACT: note_off channel=2 note=65 velocity=95 time=0
EXTRACT: note_off channel=2 note=62 velocity=95 time=0
EXTRACT: note_off channel=2 note=58 velocity=95 time=0
EXTRACT: note_off channel=2 note=53 velocity=95 time=0
EXTRACT: note_off channel=2 note=46 velocity=95 time=0
EXTRACT: note_on channel=2 note=70 velocity=95 time=0
EXTRACT: note_on channel=2 note=65 velocity=95 time=0
EXTRACT: note_on channel=2 note=62 velocity=95 time=0
EXTRACT: note_on channel=2 note=58 velocity=95 time=0
EXTRACT: note_on channel=2 note=53 velocity=95 time=0
EXTRACT: note_on channel=2 note=46 velocity=95 time=0
EXTRACT: note_off channel=11 note=69 velocity=95 time=0
EXTRACT: note_on channel=11 note=67 velocity=95 time=0
EXTRACT: note_off channel=0 note=70 velocity=95 time=0.39999999999999997
EXTRACT: note_off channel=0 note=65 velocity=95 time=0
EXTRACT: note_off channel=0 note=62 velocity=95 time=0
EXTRACT: note_off channel=0 note=58 velocity=95 time=0
EXTRACT: note_off channel=0 note=53 velocity=95 time=0
EXTRACT: note_off channel=0 note=46 velocity=95 time=0
EXTRACT: note_on channel=0 note=70 velocity=95 time=0
EXTRACT: note_on channel=0 note=65 velocity=95 time=0
EXTRACT: note_on channel=0 note=62 velocity=95 time=0
EXTRACT: note_on channel=0 note=58 velocity=95 time=0
EXTRACT: note_on channel=0 note=53 velocity=95 time=0
EXTRACT: note_on channel=0 note=46 velocity=95 time=0
EXTRACT: note_off channel=2 note=70 velocity=95 time=0
EXTRACT: note_off channel=2 note=65 velocity=95 time=0
EXTRACT: note_off channel=2 note=62 velocity=95 time=0
EXTRACT: note_off channel=2 note=58 velocity=95 time=0
EXTRACT: note_off channel=2 note=53 velocity=95 time=0
EXTRACT: note_off channel=2 note=46 velocity=95 time=0
EXTRACT: note_on channel=2 note=70 velocity=111 time=0
EXTRACT: note_off channel=11 note=67 velocity=95 time=0
EXTRACT: note_on channel=11 note=65 velocity=95 time=0
EXTRACT: note_off channel=0 note=70 velocity=95 time=0.39999999999999997
EXTRACT: note_off channel=0 note=65 velocity=95 time=0
EXTRACT: note_off channel=0 note=62 velocity=95 time=0
EXTRACT: note_off channel=0 note=58 velocity=95 time=0
EXTRACT: note_off channel=0 note=53 velocity=95 time=0
EXTRACT: note_off channel=0 note=46 velocity=95 time=0
EXTRACT: note_on channel=0 note=70 velocity=95 time=0
EXTRACT: note_on channel=0 note=65 velocity=95 time=0
EXTRACT: note_on channel=0 note=62 velocity=95 time=0
EXTRACT: note_on channel=0 note=58 velocity=95 time=0
EXTRACT: note_on channel=0 note=53 velocity=95 time=0
EXTRACT: note_on channel=0 note=46 velocity=95 time=0
EXTRACT: note_off channel=2 note=70 velocity=111 time=0
EXTRACT: note_on channel=2 note=72 velocity=111 time=0
EXTRACT: note_off channel=11 note=65 velocity=95 time=0
EXTRACT: note_on channel=11 note=62 velocity=95 time=0
EXTRACT: note_off channel=0 note=70 velocity=95 time=0.39999999999999997
EXTRACT: note_off channel=0 note=65 velocity=95 time=0
EXTRACT: note_off channel=0 note=62 velocity=95 time=0
EXTRACT: note_off channel=0 note=58 velocity=95 time=0
EXTRACT: note_off channel=0 note=53 velocity=95 time=0
EXTRACT: note_off channel=0 note=46 velocity=95 time=0
EXTRACT: note_on channel=0 note=69 velocity=95 time=0
EXTRACT: note_on channel=0 note=65 velocity=95 time=0
EXTRACT: note_on channel=0 note=60 velocity=95 time=0
EXTRACT: note_on channel=0 note=53 velocity=95 time=0
EXTRACT: note_on channel=0 note=48 velocity=95 time=0
EXTRACT: note_off channel=2 note=72 velocity=111 time=0
EXTRACT: note_on channel=2 note=69 velocity=95 time=0
EXTRACT: note_on channel=2 note=65 velocity=95 time=0
EXTRACT: note_on channel=2 note=60 velocity=95 time=0
EXTRACT: note_on channel=2 note=53 velocity=95 time=0
EXTRACT: note_on channel=2 note=48 velocity=95 time=0
EXTRACT: note_off channel=6 note=70 velocity=111 time=0
EXTRACT: note_off channel=6 note=65 velocity=111 time=0
EXTRACT: note_off channel=6 note=62 velocity=111 time=0
EXTRACT: note_off channel=6 note=58 velocity=111 time=0
EXTRACT: note_on channel=6 note=53 velocity=111 time=0
EXTRACT: note_off channel=11 note=62 velocity=95 time=0
EXTRACT: note_on channel=11 note=60 velocity=95 time=0
EXTRACT: note_on channel=6 note=57 velocity=111 time=0.006666666666666666
EXTRACT: note_on channel=6 note=60 velocity=111 time=0.006666666666666666
EXTRACT: note_on channel=6 note=65 velocity=111 time=0.006666666666666666
EXTRACT: note_off channel=0 note=69 velocity=95 time=0.37999999999999995
EXTRACT: note_off channel=0 note=65 velocity=95 time=0
EXTRACT: note_off channel=0 note=60 velocity=95 time=0
EXTRACT: note_off channel=0 note=53 velocity=95 time=0
EXTRACT: note_off channel=0 note=48 velocity=95 time=0
EXTRACT: note_on channel=0 note=69 velocity=95 time=0
EXTRACT: note_on channel=0 note=65 velocity=95 time=0
EXTRACT: note_on channel=0 note=60 velocity=95 time=0
EXTRACT: note_on channel=0 note=53 velocity=95 time=0
EXTRACT: note_on channel=0 note=48 velocity=95 time=0
EXTRACT: note_off channel=2 note=69 velocity=95 time=0
EXTRACT: note_off channel=2 note=65 velocity=95 time=0
EXTRACT: note_off channel=2 note=60 velocity=95 time=0
EXTRACT: note_off channel=2 note=53 velocity=95 time=0
EXTRACT: note_off channel=2 note=48 velocity=95 time=0
EXTRACT: note_on channel=2 note=69 velocity=95 time=0
EXTRACT: note_on channel=2 note=65 velocity=95 time=0
EXTRACT: note_on channel=2 note=60 velocity=95 time=0
EXTRACT: note_on channel=2 note=53 velocity=95 time=0
EXTRACT: note_on channel=2 note=48 velocity=95 time=0
EXTRACT: note_off channel=0 note=69 velocity=95 time=0.39999999999999997
EXTRACT: note_off channel=0 note=65 velocity=95 time=0
EXTRACT: note_off channel=0 note=60 velocity=95 time=0
EXTRACT: note_off channel=0 note=53 velocity=95 time=0
EXTRACT: note_off channel=0 note=48 velocity=95 time=0
EXTRACT: note_on channel=0 note=69 velocity=95 time=0
EXTRACT: note_on channel=0 note=65 velocity=95 time=0
EXTRACT: note_on channel=0 note=60 velocity=95 time=0
EXTRACT: note_on channel=0 note=53 velocity=95 time=0
EXTRACT: note_on channel=0 note=48 velocity=95 time=0
EXTRACT: note_off channel=2 note=69 velocity=95 time=0
EXTRACT: note_off channel=2 note=65 velocity=95 time=0
EXTRACT: note_off channel=2 note=60 velocity=95 time=0
EXTRACT: note_off channel=2 note=53 velocity=95 time=0
EXTRACT: note_off channel=2 note=48 velocity=95 time=0
EXTRACT: note_on channel=2 note=69 velocity=95 time=0
EXTRACT: note_on channel=2 note=65 velocity=95 time=0
EXTRACT: note_on channel=2 note=60 velocity=95 time=0
EXTRACT: note_on channel=2 note=53 velocity=95 time=0
EXTRACT: note_on channel=2 note=48 velocity=95 time=0
EXTRACT: note_off channel=0 note=69 velocity=95 time=0.39999999999999997
EXTRACT: note_off channel=0 note=65 velocity=95 time=0
EXTRACT: note_off channel=0 note=60 velocity=95 time=0
EXTRACT: note_off channel=0 note=53 velocity=95 time=0
EXTRACT: note_off channel=0 note=48 velocity=95 time=0
EXTRACT: note_on channel=0 note=69 velocity=95 time=0
EXTRACT: note_on channel=0 note=65 velocity=95 time=0
EXTRACT: note_on channel=0 note=60 velocity=95 time=0
EXTRACT: note_on channel=0 note=53 velocity=95 time=0
EXTRACT: note_on channel=0 note=48 velocity=95 time=0
EXTRACT: note_off channel=2 note=69 velocity=95 time=0
EXTRACT: note_off channel=2 note=65 velocity=95 time=0
EXTRACT: note_off channel=2 note=60 velocity=95 time=0
EXTRACT: note_off channel=2 note=53 velocity=95 time=0
EXTRACT: note_off channel=2 note=48 velocity=95 time=0
EXTRACT: note_on channel=2 note=69 velocity=95 time=0
EXTRACT: note_on channel=2 note=65 velocity=95 time=0
EXTRACT: note_on channel=2 note=60 velocity=95 time=0
EXTRACT: note_on channel=2 note=53 velocity=95 time=0
EXTRACT: note_on channel=2 note=48 velocity=95 time=0
EXTRACT: note_off channel=0 note=69 velocity=95 time=0.39999999999999997
EXTRACT: note_off channel=0 note=65 velocity=95 time=0
EXTRACT: note_off channel=0 note=60 velocity=95 time=0
EXTRACT: note_off channel=0 note=53 velocity=95 time=0
EXTRACT: note_off channel=0 note=48 velocity=95 time=0
EXTRACT: note_on channel=0 note=69 velocity=95 time=0
EXTRACT: note_on channel=0 note=65 velocity=95 time=0
EXTRACT: note_on channel=0 note=60 velocity=95 time=0
EXTRACT: note_on channel=0 note=53 velocity=95 time=0
EXTRACT: note_on channel=0 note=48 velocity=95 time=0
EXTRACT: note_off channel=2 note=69 velocity=95 time=0
EXTRACT: note_off channel=2 note=65 velocity=95 time=0
EXTRACT: note_off channel=2 note=60 velocity=95 time=0
EXTRACT: note_off channel=2 note=53 velocity=95 time=0
EXTRACT: note_off channel=2 note=48 velocity=95 time=0
EXTRACT: note_on channel=2 note=69 velocity=95 time=0
EXTRACT: note_on channel=2 note=65 velocity=95 time=0
EXTRACT: note_on channel=2 note=60 velocity=95 time=0
EXTRACT: note_on channel=2 note=53 velocity=95 time=0
EXTRACT: note_on channel=2 note=48 velocity=95 time=0
EXTRACT: note_off channel=0 note=69 velocity=95 time=0.39999999999999997
EXTRACT: note_off channel=0 note=65 velocity=95 time=0
EXTRACT: note_off channel=0 note=60 velocity=95 time=0
EXTRACT: note_off channel=0 note=53 velocity=95 time=0
EXTRACT: note_off channel=0 note=48 velocity=95 time=0
EXTRACT: note_on channel=0 note=69 velocity=95 time=0
EXTRACT: note_on channel=0 note=65 velocity=95 time=0
EXTRACT: note_on channel=0 note=60 velocity=95 time=0
EXTRACT: note_on channel=0 note=53 velocity=95 time=0
EXTRACT: note_on channel=0 note=48 velocity=95 time=0
EXTRACT: note_off channel=2 note=69 velocity=95 time=0
EXTRACT: note_off channel=2 note=65 velocity=95 time=0
EXTRACT: note_off channel=2 note=60 velocity=95 time=0
EXTRACT: note_off channel=2 note=53 velocity=95 time=0
EXTRACT: note_off channel=2 note=48 velocity=95 time=0
EXTRACT: note_on channel=2 note=69 velocity=95 time=0
EXTRACT: note_on channel=2 note=65 velocity=95 time=0
EXTRACT: note_on channel=2 note=60 velocity=95 time=0
EXTRACT: note_on channel=2 note=53 velocity=95 time=0
EXTRACT: note_on channel=2 note=48 velocity=95 time=0
EXTRACT: note_off channel=0 note=69 velocity=95 time=0.39999999999999997
EXTRACT: note_off channel=0 note=65 velocity=95 time=0
EXTRACT: note_off channel=0 note=60 velocity=95 time=0
EXTRACT: note_off channel=0 note=53 velocity=95 time=0
EXTRACT: note_off channel=0 note=48 velocity=95 time=0
EXTRACT: note_on channel=0 note=69 velocity=95 time=0
EXTRACT: note_on channel=0 note=65 velocity=95 time=0
EXTRACT: note_on channel=0 note=60 velocity=95 time=0
EXTRACT: note_on channel=0 note=53 velocity=95 time=0
EXTRACT: note_on channel=0 note=48 velocity=95 time=0
EXTRACT: note_off channel=2 note=69 velocity=95 time=0
EXTRACT: note_off channel=2 note=65 velocity=95 time=0
EXTRACT: note_off channel=2 note=60 velocity=95 time=0
EXTRACT: note_off channel=2 note=53 velocity=95 time=0
EXTRACT: note_off channel=2 note=48 velocity=95 time=0
EXTRACT: note_on channel=2 note=69 velocity=95 time=0
EXTRACT: note_on channel=2 note=65 velocity=95 time=0
EXTRACT: note_on channel=2 note=60 velocity=95 time=0
EXTRACT: note_on channel=2 note=53 velocity=95 time=0
EXTRACT: note_on channel=2 note=48 velocity=95 time=0
EXTRACT: note_off channel=11 note=60 velocity=95 time=0
EXTRACT: note_off channel=0 note=69 velocity=95 time=0.39999999999999997
EXTRACT: note_off channel=0 note=65 velocity=95 time=0
EXTRACT: note_off channel=0 note=60 velocity=95 time=0
EXTRACT: note_off channel=0 note=53 velocity=95 time=0
EXTRACT: note_off channel=0 note=48 velocity=95 time=0
EXTRACT: note_on channel=0 note=69 velocity=95 time=0
EXTRACT: note_on channel=0 note=65 velocity=95 time=0
EXTRACT: note_on channel=0 note=60 velocity=95 time=0
EXTRACT: note_on channel=0 note=53 velocity=95 time=0
EXTRACT: note_on channel=0 note=48 velocity=95 time=0
EXTRACT: note_off channel=2 note=69 velocity=95 time=0
EXTRACT: note_off channel=2 note=65 velocity=95 time=0
EXTRACT: note_off channel=2 note=60 velocity=95 time=0
EXTRACT: note_off channel=2 note=53 velocity=95 time=0
EXTRACT: note_off channel=2 note=48 velocity=95 time=0
EXTRACT: note_on channel=2 note=69 velocity=95 time=0
EXTRACT: note_on channel=2 note=65 velocity=95 time=0
EXTRACT: note_on channel=2 note=60 velocity=95 time=0
EXTRACT: note_on channel=2 note=53 velocity=95 time=0
EXTRACT: note_on channel=2 note=48 velocity=95 time=0
EXTRACT: note_off channel=0 note=69 velocity=95 time=0.39999999999999997
EXTRACT: note_off channel=0 note=65 velocity=95 time=0
EXTRACT: note_off channel=0 note=60 velocity=95 time=0
EXTRACT: note_off channel=0 note=53 velocity=95 time=0
EXTRACT: note_off channel=0 note=48 velocity=95 time=0
EXTRACT: note_on channel=0 note=67 velocity=95 time=0
EXTRACT: note_on channel=0 note=65 velocity=95 time=0
EXTRACT: note_on channel=0 note=60 velocity=95 time=0
EXTRACT: note_on channel=0 note=53 velocity=95 time=0
EXTRACT: note_on channel=0 note=48 velocity=95 time=0
EXTRACT: note_off channel=2 note=69 velocity=95 time=0
EXTRACT: note_off channel=2 note=65 velocity=95 time=0
EXTRACT: note_off channel=2 note=60 velocity=95 time=0
EXTRACT: note_off channel=2 note=53 velocity=95 time=0
EXTRACT: note_off channel=2 note=48 velocity=95 time=0
EXTRACT: note_on channel=2 note=67 velocity=95 time=0
EXTRACT: note_on channel=2 note=65 velocity=95 time=0
EXTRACT: note_on channel=2 note=60 velocity=95 time=0
EXTRACT: note_on channel=2 note=53 velocity=95 time=0
EXTRACT: note_on channel=2 note=48 velocity=95 time=0
EXTRACT: note_off channel=6 note=65 velocity=111 time=0
EXTRACT: note_off channel=6 note=60 velocity=111 time=0
EXTRACT: note_off channel=6 note=57 velocity=111 time=0
EXTRACT: note_off channel=6 note=53 velocity=111 time=0
EXTRACT: note_on channel=6 note=53 velocity=111 time=0
EXTRACT: note_on channel=6 note=55 velocity=111 time=0.006666666666666666
EXTRACT: note_on channel=6 note=60 velocity=111 time=0.006666666666666666
EXTRACT: note_on channel=6 note=65 velocity=111 time=0.006666666666666666
EXTRACT: note_off channel=0 note=67 velocity=95 time=0.37999999999999995
EXTRACT: note_off channel=0 note=65 velocity=95 time=0
EXTRACT: note_off channel=0 note=60 velocity=95 time=0
EXTRACT: note_off channel=0 note=53 velocity=95 time=0
EXTRACT: note_off channel=0 note=48 velocity=95 time=0
EXTRACT: note_on channel=0 note=67 velocity=95 time=0
EXTRACT: note_on channel=0 note=65 velocity=95 time=0
EXTRACT: note_on channel=0 note=60 velocity=95 time=0
EXTRACT: note_on channel=0 note=53 velocity=95 time=0
EXTRACT: note_on channel=0 note=48 velocity=95 time=0
EXTRACT: note_off channel=2 note=67 velocity=95 time=0
EXTRACT: note_off channel=2 note=65 velocity=95 time=0
EXTRACT: note_off channel=2 note=60 velocity=95 time=0
EXTRACT: note_off channel=2 note=53 velocity=95 time=0
EXTRACT: note_off channel=2 note=48 velocity=95 time=0
EXTRACT: note_on channel=2 note=67 velocity=95 time=0
EXTRACT: note_on channel=2 note=65 velocity=95 time=0
EXTRACT: note_on channel=2 note=60 velocity=95 time=0
EXTRACT: note_on channel=2 note=53 velocity=95 time=0
EXTRACT: note_on channel=2 note=48 velocity=95 time=0
EXTRACT: note_off channel=0 note=67 velocity=95 time=0.39999999999999997
EXTRACT: note_off channel=0 note=65 velocity=95 time=0
EXTRACT: note_off channel=0 note=60 velocity=95 time=0
EXTRACT: note_off channel=0 note=53 velocity=95 time=0
EXTRACT: note_off channel=0 note=48 velocity=95 time=0
EXTRACT: note_on channel=0 note=67 velocity=95 time=0
EXTRACT: note_on channel=0 note=65 velocity=95 time=0
EXTRACT: note_on channel=0 note=60 velocity=95 time=0
EXTRACT: note_on channel=0 note=53 velocity=95 time=0
EXTRACT: note_on channel=0 note=48 velocity=95 time=0
EXTRACT: note_off channel=2 note=67 velocity=95 time=0
EXTRACT: note_off channel=2 note=65 velocity=95 time=0
EXTRACT: note_off channel=2 note=60 velocity=95 time=0
EXTRACT: note_off channel=2 note=53 velocity=95 time=0
EXTRACT: note_off channel=2 note=48 velocity=95 time=0
EXTRACT: note_on channel=2 note=67 velocity=95 time=0
EXTRACT: note_on channel=2 note=65 velocity=95 time=0
EXTRACT: note_on channel=2 note=60 velocity=95 time=0
EXTRACT: note_on channel=2 note=53 velocity=95 time=0
EXTRACT: note_on channel=2 note=48 velocity=95 time=0
EXTRACT: note_off channel=0 note=67 velocity=95 time=0.39999999999999997
EXTRACT: note_off channel=0 note=65 velocity=95 time=0
EXTRACT: note_off channel=0 note=60 velocity=95 time=0
EXTRACT: note_off channel=0 note=53 velocity=95 time=0
EXTRACT: note_off channel=0 note=48 velocity=95 time=0
EXTRACT: note_on channel=0 note=67 velocity=95 time=0
EXTRACT: note_on channel=0 note=65 velocity=95 time=0
EXTRACT: note_on channel=0 note=60 velocity=95 time=0
EXTRACT: note_on channel=0 note=53 velocity=95 time=0
EXTRACT: note_on channel=0 note=48 velocity=95 time=0
EXTRACT: note_off channel=2 note=67 velocity=95 time=0
EXTRACT: note_off channel=2 note=65 velocity=95 time=0
EXTRACT: note_off channel=2 note=60 velocity=95 time=0
EXTRACT: note_off channel=2 note=53 velocity=95 time=0
EXTRACT: note_off channel=2 note=48 velocity=95 time=0
EXTRACT: note_on channel=2 note=67 velocity=95 time=0
EXTRACT: note_on channel=2 note=65 velocity=95 time=0
EXTRACT: note_on channel=2 note=60 velocity=95 time=0
EXTRACT: note_on channel=2 note=53 velocity=95 time=0
EXTRACT: note_on channel=2 note=48 velocity=95 time=0
EXTRACT: note_off channel=0 note=67 velocity=95 time=0.39999999999999997
EXTRACT: note_off channel=0 note=65 velocity=95 time=0
EXTRACT: note_off channel=0 note=60 velocity=95 time=0
EXTRACT: note_off channel=0 note=53 velocity=95 time=0
EXTRACT: note_off channel=0 note=48 velocity=95 time=0
EXTRACT: note_on channel=0 note=67 velocity=95 time=0
EXTRACT: note_on channel=0 note=65 velocity=95 time=0
EXTRACT: note_on channel=0 note=60 velocity=95 time=0
EXTRACT: note_on channel=0 note=53 velocity=95 time=0
EXTRACT: note_on channel=0 note=48 velocity=95 time=0
EXTRACT: note_off channel=2 note=67 velocity=95 time=0
EXTRACT: note_off channel=2 note=65 velocity=95 time=0
EXTRACT: note_off channel=2 note=60 velocity=95 time=0
EXTRACT: note_off channel=2 note=53 velocity=95 time=0
EXTRACT: note_off channel=2 note=48 velocity=95 time=0
EXTRACT: note_on channel=2 note=67 velocity=95 time=0
EXTRACT: note_on channel=2 note=65 velocity=95 time=0
EXTRACT: note_on channel=2 note=60 velocity=95 time=0
EXTRACT: note_on channel=2 note=53 velocity=95 time=0
EXTRACT: note_on channel=2 note=48 velocity=95 time=0
EXTRACT: note_off channel=0 note=67 velocity=95 time=0.39999999999999997
EXTRACT: note_off channel=0 note=65 velocity=95 time=0
EXTRACT: note_off channel=0 note=60 velocity=95 time=0
EXTRACT: note_off channel=0 note=53 velocity=95 time=0
EXTRACT: note_off channel=0 note=48 velocity=95 time=0
EXTRACT: note_on channel=0 note=67 velocity=95 time=0
EXTRACT: note_on channel=0 note=65 velocity=95 time=0
EXTRACT: note_on channel=0 note=60 velocity=95 time=0
EXTRACT: note_on channel=0 note=53 velocity=95 time=0
EXTRACT: note_on channel=0 note=48 velocity=95 time=0
EXTRACT: note_off channel=2 note=67 velocity=95 time=0
EXTRACT: note_off channel=2 note=65 velocity=95 time=0
EXTRACT: note_off channel=2 note=60 velocity=95 time=0
EXTRACT: note_off channel=2 note=53 velocity=95 time=0
EXTRACT: note_off channel=2 note=48 velocity=95 time=0
EXTRACT: note_on channel=2 note=67 velocity=95 time=0
EXTRACT: note_on channel=2 note=65 velocity=95 time=0
EXTRACT: note_on channel=2 note=60 velocity=95 time=0
EXTRACT: note_on channel=2 note=53 velocity=95 time=0
EXTRACT: note_on channel=2 note=48 velocity=95 time=0
EXTRACT: note_off channel=0 note=67 velocity=95 time=0.39999999999999997
EXTRACT: note_off channel=0 note=65 velocity=95 time=0
EXTRACT: note_off channel=0 note=60 velocity=95 time=0
EXTRACT: note_off channel=0 note=53 velocity=95 time=0
EXTRACT: note_off channel=0 note=48 velocity=95 time=0
EXTRACT: note_on channel=0 note=67 velocity=95 time=0
EXTRACT: note_on channel=0 note=65 velocity=95 time=0
EXTRACT: note_on channel=0 note=60 velocity=95 time=0
EXTRACT: note_on channel=0 note=53 velocity=95 time=0
EXTRACT: note_on channel=0 note=48 velocity=95 time=0
EXTRACT: note_off channel=2 note=67 velocity=95 time=0
EXTRACT: note_off channel=2 note=65 velocity=95 time=0
EXTRACT: note_off channel=2 note=60 velocity=95 time=0
EXTRACT: note_off channel=2 note=53 velocity=95 time=0
EXTRACT: note_off channel=2 note=48 velocity=95 time=0
EXTRACT: note_on channel=2 note=67 velocity=95 time=0
EXTRACT: note_on channel=2 note=65 velocity=95 time=0
EXTRACT: note_on channel=2 note=60 velocity=95 time=0
EXTRACT: note_on channel=2 note=53 velocity=95 time=0
EXTRACT: note_on channel=2 note=48 velocity=95 time=0
EXTRACT: note_off channel=0 note=67 velocity=95 time=0.39999999999999997
EXTRACT: note_off channel=0 note=65 velocity=95 time=0
EXTRACT: note_off channel=0 note=60 velocity=95 time=0
EXTRACT: note_off channel=0 note=53 velocity=95 time=0
EXTRACT: note_off channel=0 note=48 velocity=95 time=0
EXTRACT: note_on channel=0 note=67 velocity=95 time=0
EXTRACT: note_on channel=0 note=65 velocity=95 time=0
EXTRACT: note_on channel=0 note=60 velocity=95 time=0
EXTRACT: note_on channel=0 note=53 velocity=95 time=0
EXTRACT: note_on channel=0 note=48 velocity=95 time=0
EXTRACT: note_off channel=2 note=67 velocity=95 time=0
EXTRACT: note_off channel=2 note=65 velocity=95 time=0
EXTRACT: note_off channel=2 note=60 velocity=95 time=0
EXTRACT: note_off channel=2 note=53 velocity=95 time=0
EXTRACT: note_off channel=2 note=48 velocity=95 time=0
EXTRACT: note_on channel=2 note=67 velocity=95 time=0
EXTRACT: note_on channel=2 note=65 velocity=95 time=0
EXTRACT: note_on channel=2 note=60 velocity=95 time=0
EXTRACT: note_on channel=2 note=53 velocity=95 time=0
EXTRACT: note_on channel=2 note=48 velocity=95 time=0
EXTRACT: note_off channel=0 note=67 velocity=95 time=0.39999999999999997
EXTRACT: note_off channel=0 note=65 velocity=95 time=0
EXTRACT: note_off channel=0 note=60 velocity=95 time=0
EXTRACT: note_off channel=0 note=53 velocity=95 time=0
EXTRACT: note_off channel=0 note=48 velocity=95 time=0
EXTRACT: note_on channel=0 note=69 velocity=95 time=0
EXTRACT: note_on channel=0 note=65 velocity=95 time=0
EXTRACT: note_on channel=0 note=62 velocity=95 time=0
EXTRACT: note_on channel=0 note=57 velocity=95 time=0
EXTRACT: note_on channel=0 note=50 velocity=95 time=0
EXTRACT: note_on channel=0 note=45 velocity=95 time=0
EXTRACT: note_off channel=2 note=67 velocity=95 time=0
EXTRACT: note_off channel=2 note=65 velocity=95 time=0
EXTRACT: note_off channel=2 note=60 velocity=95 time=0
EXTRACT: note_off channel=2 note=53 velocity=95 time=0
EXTRACT: note_off channel=2 note=48 velocity=95 time=0
EXTRACT: note_on channel=2 note=69 velocity=95 time=0
EXTRACT: note_on channel=2 note=65 velocity=95 time=0
EXTRACT: note_on channel=2 note=62 velocity=95 time=0
EXTRACT: note_on channel=2 note=57 velocity=95 time=0
EXTRACT: note_on channel=2 note=50 velocity=95 time=0
EXTRACT: note_on channel=2 note=45 velocity=95 time=0
EXTRACT: note_off channel=6 note=65 velocity=111 time=0
EXTRACT: note_off channel=6 note=60 velocity=111 time=0
EXTRACT: note_off channel=6 note=55 velocity=111 time=0
EXTRACT: note_off channel=6 note=53 velocity=111 time=0
EXTRACT: note_on channel=6 note=57 velocity=111 time=0
EXTRACT: note_on channel=6 note=62 velocity=111 time=0.006666666666666666
EXTRACT: note_on channel=6 note=65 velocity=111 time=0.006666666666666666
EXTRACT: note_on channel=6 note=69 velocity=111 time=0.006666666666666666
EXTRACT: note_off channel=0 note=69 velocity=95 time=0.37999999999999995
EXTRACT: note_off channel=0 note=65 velocity=95 time=0
EXTRACT: note_off channel=0 note=62 velocity=95 time=0
EXTRACT: note_off channel=0 note=57 velocity=95 time=0
EXTRACT: note_off channel=0 note=50 velocity=95 time=0
EXTRACT: note_off channel=0 note=45 velocity=95 time=0
EXTRACT: note_on channel=0 note=69 velocity=95 time=0
EXTRACT: note_on channel=0 note=65 velocity=95 time=0
EXTRACT: note_on channel=0 note=62 velocity=95 time=0
EXTRACT: note_on channel=0 note=57 velocity=95 time=0
EXTRACT: note_on channel=0 note=50 velocity=95 time=0
EXTRACT: note_on channel=0 note=45 velocity=95 time=0
EXTRACT: note_off channel=2 note=69 velocity=95 time=0
EXTRACT: note_off channel=2 note=65 velocity=95 time=0
EXTRACT: note_off channel=2 note=62 velocity=95 time=0
EXTRACT: note_off channel=2 note=57 velocity=95 time=0
EXTRACT: note_off channel=2 note=50 velocity=95 time=0
EXTRACT: note_off channel=2 note=45 velocity=95 time=0
EXTRACT: note_on channel=2 note=69 velocity=95 time=0
EXTRACT: note_on channel=2 note=65 velocity=95 time=0
EXTRACT: note_on channel=2 note=62 velocity=95 time=0
EXTRACT: note_on channel=2 note=57 velocity=95 time=0
EXTRACT: note_on channel=2 note=50 velocity=95 time=0
EXTRACT: note_on channel=2 note=45 velocity=95 time=0
EXTRACT: note_off channel=0 note=69 velocity=95 time=0.39999999999999997
EXTRACT: note_off channel=0 note=65 velocity=95 time=0
EXTRACT: note_off channel=0 note=62 velocity=95 time=0
EXTRACT: note_off channel=0 note=57 velocity=95 time=0
EXTRACT: note_off channel=0 note=50 velocity=95 time=0
EXTRACT: note_off channel=0 note=45 velocity=95 time=0
EXTRACT: note_on channel=0 note=69 velocity=95 time=0
EXTRACT: note_on channel=0 note=65 velocity=95 time=0
EXTRACT: note_on channel=0 note=62 velocity=95 time=0
EXTRACT: note_on channel=0 note=57 velocity=95 time=0
EXTRACT: note_on channel=0 note=50 velocity=95 time=0
EXTRACT: note_on channel=0 note=45 velocity=95 time=0
EXTRACT: note_off channel=2 note=69 velocity=95 time=0
EXTRACT: note_off channel=2 note=65 velocity=95 time=0
EXTRACT: note_off channel=2 note=62 velocity=95 time=0
EXTRACT: note_off channel=2 note=57 velocity=95 time=0
EXTRACT: note_off channel=2 note=50 velocity=95 time=0
EXTRACT: note_off channel=2 note=45 velocity=95 time=0
EXTRACT: note_on channel=2 note=69 velocity=95 time=0
EXTRACT: note_on channel=2 note=65 velocity=95 time=0
EXTRACT: note_on channel=2 note=62 velocity=95 time=0
EXTRACT: note_on channel=2 note=57 velocity=95 time=0
EXTRACT: note_on channel=2 note=50 velocity=95 time=0
EXTRACT: note_on channel=2 note=45 velocity=95 time=0
EXTRACT: note_off channel=0 note=69 velocity=95 time=0.39999999999999997
EXTRACT: note_off channel=0 note=65 velocity=95 time=0
EXTRACT: note_off channel=0 note=62 velocity=95 time=0
EXTRACT: note_off channel=0 note=57 velocity=95 time=0
EXTRACT: note_off channel=0 note=50 velocity=95 time=0
EXTRACT: note_off channel=0 note=45 velocity=95 time=0
EXTRACT: note_on channel=0 note=69 velocity=95 time=0
EXTRACT: note_on channel=0 note=65 velocity=95 time=0
EXTRACT: note_on channel=0 note=62 velocity=95 time=0
EXTRACT: note_on channel=0 note=57 velocity=95 time=0
EXTRACT: note_on channel=0 note=50 velocity=95 time=0
EXTRACT: note_on channel=0 note=45 velocity=95 time=0
EXTRACT: note_off channel=2 note=69 velocity=95 time=0
EXTRACT: note_off channel=2 note=65 velocity=95 time=0
EXTRACT: note_off channel=2 note=62 velocity=95 time=0
EXTRACT: note_off channel=2 note=57 velocity=95 time=0
EXTRACT: note_off channel=2 note=50 velocity=95 time=0
EXTRACT: note_off channel=2 note=45 velocity=95 time=0
EXTRACT: note_on channel=2 note=69 velocity=95 time=0
EXTRACT: note_on channel=2 note=65 velocity=95 time=0
EXTRACT: note_on channel=2 note=62 velocity=95 time=0
EXTRACT: note_on channel=2 note=57 velocity=95 time=0
EXTRACT: note_on channel=2 note=50 velocity=95 time=0
EXTRACT: note_on channel=2 note=45 velocity=95 time=0
EXTRACT: note_off channel=0 note=69 velocity=95 time=0.39999999999999997
EXTRACT: note_off channel=0 note=65 velocity=95 time=0
EXTRACT: note_off channel=0 note=62 velocity=95 time=0
EXTRACT: note_off channel=0 note=57 velocity=95 time=0
EXTRACT: note_off channel=0 note=50 velocity=95 time=0
EXTRACT: note_off channel=0 note=45 velocity=95 time=0
EXTRACT: note_on channel=0 note=69 velocity=95 time=0
EXTRACT: note_on channel=0 note=65 velocity=95 time=0
EXTRACT: note_on channel=0 note=62 velocity=95 time=0
EXTRACT: note_on channel=0 note=57 velocity=95 time=0
EXTRACT: note_on channel=0 note=50 velocity=95 time=0
EXTRACT: note_on channel=0 note=45 velocity=95 time=0
EXTRACT: note_off channel=2 note=69 velocity=95 time=0
EXTRACT: note_off channel=2 note=65 velocity=95 time=0
EXTRACT: note_off channel=2 note=62 velocity=95 time=0
EXTRACT: note_off channel=2 note=57 velocity=95 time=0
EXTRACT: note_off channel=2 note=50 velocity=95 time=0
EXTRACT: note_off channel=2 note=45 velocity=95 time=0
EXTRACT: note_on channel=2 note=69 velocity=95 time=0
EXTRACT: note_on channel=2 note=65 velocity=95 time=0
EXTRACT: note_on channel=2 note=62 velocity=95 time=0
EXTRACT: note_on channel=2 note=57 velocity=95 time=0
EXTRACT: note_on channel=2 note=50 velocity=95 time=0
EXTRACT: note_on channel=2 note=45 velocity=95 time=0
EXTRACT: note_off channel=0 note=69 velocity=95 time=0.39999999999999997
EXTRACT: note_off channel=0 note=65 velocity=95 time=0
EXTRACT: note_off channel=0 note=62 velocity=95 time=0
EXTRACT: note_off channel=0 note=57 velocity=95 time=0
EXTRACT: note_off channel=0 note=50 velocity=95 time=0
EXTRACT: note_off channel=0 note=45 velocity=95 time=0
EXTRACT: note_on channel=0 note=69 velocity=95 time=0
EXTRACT: note_on channel=0 note=65 velocity=95 time=0
EXTRACT: note_on channel=0 note=62 velocity=95 time=0
EXTRACT: note_on channel=0 note=57 velocity=95 time=0
EXTRACT: note_on channel=0 note=50 velocity=95 time=0
EXTRACT: note_on channel=0 note=45 velocity=95 time=0
EXTRACT: note_off channel=2 note=69 velocity=95 time=0
EXTRACT: note_off channel=2 note=65 velocity=95 time=0
EXTRACT: note_off channel=2 note=62 velocity=95 time=0
EXTRACT: note_off channel=2 note=57 velocity=95 time=0
EXTRACT: note_off channel=2 note=50 velocity=95 time=0
EXTRACT: note_off channel=2 note=45 velocity=95 time=0
EXTRACT: note_on channel=2 note=69 velocity=95 time=0
EXTRACT: note_on channel=2 note=65 velocity=95 time=0
EXTRACT: note_on channel=2 note=62 velocity=95 time=0
EXTRACT: note_on channel=2 note=57 velocity=95 time=0
EXTRACT: note_on channel=2 note=50 velocity=95 time=0
EXTRACT: note_on channel=2 note=45 velocity=95 time=0
EXTRACT: note_off channel=0 note=69 velocity=95 time=0.39999999999999997
EXTRACT: note_off channel=0 note=65 velocity=95 time=0
EXTRACT: note_off channel=0 note=62 velocity=95 time=0
EXTRACT: note_off channel=0 note=57 velocity=95 time=0
EXTRACT: note_off channel=0 note=50 velocity=95 time=0
EXTRACT: note_off channel=0 note=45 velocity=95 time=0
EXTRACT: note_on channel=0 note=69 velocity=95 time=0
EXTRACT: note_on channel=0 note=65 velocity=95 time=0
EXTRACT: note_on channel=0 note=62 velocity=95 time=0
EXTRACT: note_on channel=0 note=57 velocity=95 time=0
EXTRACT: note_on channel=0 note=50 velocity=95 time=0
EXTRACT: note_on channel=0 note=45 velocity=95 time=0
EXTRACT: note_off channel=2 note=69 velocity=95 time=0
EXTRACT: note_off channel=2 note=65 velocity=95 time=0
EXTRACT: note_off channel=2 note=62 velocity=95 time=0
EXTRACT: note_off channel=2 note=57 velocity=95 time=0
EXTRACT: note_off channel=2 note=50 velocity=95 time=0
EXTRACT: note_off channel=2 note=45 velocity=95 time=0
EXTRACT: note_on channel=2 note=69 velocity=95 time=0
EXTRACT: note_on channel=2 note=65 velocity=95 time=0
EXTRACT: note_on channel=2 note=62 velocity=95 time=0
EXTRACT: note_on channel=2 note=57 velocity=95 time=0
EXTRACT: note_on channel=2 note=50 velocity=95 time=0
EXTRACT: note_on channel=2 note=45 velocity=95 time=0
EXTRACT: note_on channel=11 note=60 velocity=95 time=0
EXTRACT: note_off channel=0 note=69 velocity=95 time=0.39999999999999997
EXTRACT: note_off channel=0 note=65 velocity=95 time=0
EXTRACT: note_off channel=0 note=62 velocity=95 time=0
EXTRACT: note_off channel=0 note=57 velocity=95 time=0
EXTRACT: note_off channel=0 note=50 velocity=95 time=0
EXTRACT: note_off channel=0 note=45 velocity=95 time=0
EXTRACT: note_on channel=0 note=69 velocity=95 time=0
EXTRACT: note_on channel=0 note=65 velocity=95 time=0
EXTRACT: note_on channel=0 note=62 velocity=95 time=0
EXTRACT: note_on channel=0 note=57 velocity=95 time=0
EXTRACT: note_on channel=0 note=50 velocity=95 time=0
EXTRACT: note_on channel=0 note=45 velocity=95 time=0
EXTRACT: note_off channel=2 note=69 velocity=95 time=0
EXTRACT: note_off channel=2 note=65 velocity=95 time=0
EXTRACT: note_off channel=2 note=62 velocity=95 time=0
EXTRACT: note_off channel=2 note=57 velocity=95 time=0
EXTRACT: note_off channel=2 note=50 velocity=95 time=0
EXTRACT: note_off channel=2 note=45 velocity=95 time=0
EXTRACT: note_on channel=2 note=69 velocity=95 time=0
EXTRACT: note_on channel=2 note=65 velocity=95 time=0
EXTRACT: note_on channel=2 note=62 velocity=95 time=0
EXTRACT: note_on channel=2 note=57 velocity=95 time=0
EXTRACT: note_on channel=2 note=50 velocity=95 time=0
EXTRACT: note_on channel=2 note=45 velocity=95 time=0
EXTRACT: note_off channel=11 note=60 velocity=95 time=0
EXTRACT: note_on channel=11 note=69 velocity=95 time=0
EXTRACT: note_off channel=0 note=69 velocity=95 time=0.39999999999999997
EXTRACT: note_off channel=0 note=65 velocity=95 time=0
EXTRACT: note_off channel=0 note=62 velocity=95 time=0
EXTRACT: note_off channel=0 note=57 velocity=95 time=0
EXTRACT: note_off channel=0 note=50 velocity=95 time=0
EXTRACT: note_off channel=0 note=45 velocity=95 time=0
EXTRACT: note_on channel=0 note=70 velocity=95 time=0
EXTRACT: note_on channel=0 note=65 velocity=95 time=0
EXTRACT: note_on channel=0 note=62 velocity=95 time=0
EXTRACT: note_on channel=0 note=58 velocity=95 time=0
EXTRACT: note_on channel=0 note=53 velocity=95 time=0
EXTRACT: note_on channel=0 note=46 velocity=95 time=0
EXTRACT: note_off channel=2 note=69 velocity=95 time=0
EXTRACT: note_off channel=2 note=65 velocity=95 time=0
EXTRACT: note_off channel=2 note=62 velocity=95 time=0
EXTRACT: note_off channel=2 note=57 velocity=95 time=0
EXTRACT: note_off channel=2 note=50 velocity=95 time=0
EXTRACT: note_off channel=2 note=45 velocity=95 time=0
EXTRACT: note_on channel=2 note=70 velocity=95 time=0
EXTRACT: note_on channel=2 note=65 velocity=95 time=0
EXTRACT: note_on channel=2 note=62 velocity=95 time=0
EXTRACT: note_on channel=2 note=58 velocity=95 time=0
EXTRACT: note_on channel=2 note=53 velocity=95 time=0
EXTRACT: note_on channel=2 note=46 velocity=95 time=0
EXTRACT: note_off channel=6 note=69 velocity=111 time=0
EXTRACT: note_off channel=6 note=65 velocity=111 time=0
EXTRACT: note_off channel=6 note=62 velocity=111 time=0
EXTRACT: note_off channel=6 note=57 velocity=111 time=0
EXTRACT: note_on channel=6 note=58 velocity=111 time=0
EXTRACT: note_on channel=6 note=62 velocity=111 time=0.006666666666666666
EXTRACT: note_on channel=6 note=65 velocity=111 time=0.006666666666666666
EXTRACT: note_on channel=6 note=70 velocity=111 time=0.006666666666666666
EXTRACT: note_off channel=0 note=70 velocity=95 time=0.37999999999999995
EXTRACT: note_off channel=0 note=65 velocity=95 time=0
EXTRACT: note_off channel=0 note=62 velocity=95 time=0
EXTRACT: note_off channel=0 note=58 velocity=95 time=0
EXTRACT: note_off channel=0 note=53 velocity=95 time=0
EXTRACT: note_off channel=0 note=46 velocity=95 time=0
EXTRACT: note_on channel=0 note=70 velocity=95 time=0
EXTRACT: note_on channel=0 note=65 velocity=95 time=0
EXTRACT: note_on channel=0 note=62 velocity=95 time=0
EXTRACT: note_on channel=0 note=58 velocity=95 time=0
EXTRACT: note_on channel=0 note=53 velocity=95 time=0
EXTRACT: note_on channel=0 note=46 velocity=95 time=0
EXTRACT: note_off channel=2 note=70 velocity=95 time=0
EXTRACT: note_off channel=2 note=65 velocity=95 time=0
EXTRACT: note_off channel=2 note=62 velocity=95 time=0
EXTRACT: note_off channel=2 note=58 velocity=95 time=0
EXTRACT: note_off channel=2 note=53 velocity=95 time=0
EXTRACT: note_off channel=2 note=46 velocity=95 time=0
EXTRACT: note_on channel=2 note=70 velocity=95 time=0
EXTRACT: note_on channel=2 note=65 velocity=95 time=0
EXTRACT: note_on channel=2 note=62 velocity=95 time=0
EXTRACT: note_on channel=2 note=58 velocity=95 time=0
EXTRACT: note_on channel=2 note=53 velocity=95 time=0
EXTRACT: note_on channel=2 note=46 velocity=95 time=0
EXTRACT: note_off channel=0 note=70 velocity=95 time=0.39999999999999997
EXTRACT: note_off channel=0 note=65 velocity=95 time=0
EXTRACT: note_off channel=0 note=62 velocity=95 time=0
EXTRACT: note_off channel=0 note=58 velocity=95 time=0
EXTRACT: note_off channel=0 note=53 velocity=95 time=0
EXTRACT: note_off channel=0 note=46 velocity=95 time=0
EXTRACT: note_on channel=0 note=70 velocity=95 time=0
EXTRACT: note_on channel=0 note=65 velocity=95 time=0
EXTRACT: note_on channel=0 note=62 velocity=95 time=0
EXTRACT: note_on channel=0 note=58 velocity=95 time=0
EXTRACT: note_on channel=0 note=53 velocity=95 time=0
EXTRACT: note_on channel=0 note=46 velocity=95 time=0
EXTRACT: note_off channel=2 note=70 velocity=95 time=0
EXTRACT: note_off channel=2 note=65 velocity=95 time=0
EXTRACT: note_off channel=2 note=62 velocity=95 time=0
EXTRACT: note_off channel=2 note=58 velocity=95 time=0
EXTRACT: note_off channel=2 note=53 velocity=95 time=0
EXTRACT: note_off channel=2 note=46 velocity=95 time=0
EXTRACT: note_on channel=2 note=70 velocity=95 time=0
EXTRACT: note_on channel=2 note=65 velocity=95 time=0
EXTRACT: note_on channel=2 note=62 velocity=95 time=0
EXTRACT: note_on channel=2 note=58 velocity=95 time=0
EXTRACT: note_on channel=2 note=53 velocity=95 time=0
EXTRACT: note_on channel=2 note=46 velocity=95 time=0
EXTRACT: note_off channel=0 note=70 velocity=95 time=0.39999999999999997
EXTRACT: note_off channel=0 note=65 velocity=95 time=0
EXTRACT: note_off channel=0 note=62 velocity=95 time=0
EXTRACT: note_off channel=0 note=58 velocity=95 time=0
EXTRACT: note_off channel=0 note=53 velocity=95 time=0
EXTRACT: note_off channel=0 note=46 velocity=95 time=0
EXTRACT: note_on channel=0 note=70 velocity=95 time=0
EXTRACT: note_on channel=0 note=65 velocity=95 time=0
EXTRACT: note_on channel=0 note=62 velocity=95 time=0
EXTRACT: note_on channel=0 note=58 velocity=95 time=0
EXTRACT: note_on channel=0 note=53 velocity=95 time=0
EXTRACT: note_on channel=0 note=46 velocity=95 time=0
EXTRACT: note_off channel=2 note=70 velocity=95 time=0
EXTRACT: note_off channel=2 note=65 velocity=95 time=0
EXTRACT: note_off channel=2 note=62 velocity=95 time=0
EXTRACT: note_off channel=2 note=58 velocity=95 time=0
EXTRACT: note_off channel=2 note=53 velocity=95 time=0
EXTRACT: note_off channel=2 note=46 velocity=95 time=0
EXTRACT: note_on channel=2 note=70 velocity=95 time=0
EXTRACT: note_on channel=2 note=65 velocity=95 time=0
EXTRACT: note_on channel=2 note=62 velocity=95 time=0
EXTRACT: note_on channel=2 note=58 velocity=95 time=0
EXTRACT: note_on channel=2 note=53 velocity=95 time=0
EXTRACT: note_on channel=2 note=46 velocity=95 time=0
EXTRACT: note_off channel=0 note=70 velocity=95 time=0.39999999999999997
EXTRACT: note_off channel=0 note=65 velocity=95 time=0
EXTRACT: note_off channel=0 note=62 velocity=95 time=0
EXTRACT: note_off channel=0 note=58 velocity=95 time=0
EXTRACT: note_off channel=0 note=53 velocity=95 time=0
EXTRACT: note_off channel=0 note=46 velocity=95 time=0
EXTRACT: note_on channel=0 note=70 velocity=95 time=0
EXTRACT: note_on channel=0 note=65 velocity=95 time=0
EXTRACT: note_on channel=0 note=62 velocity=95 time=0
EXTRACT: note_on channel=0 note=58 velocity=95 time=0
EXTRACT: note_on channel=0 note=53 velocity=95 time=0
EXTRACT: note_on channel=0 note=46 velocity=95 time=0
EXTRACT: note_off channel=2 note=70 velocity=95 time=0
EXTRACT: note_off channel=2 note=65 velocity=95 time=0
EXTRACT: note_off channel=2 note=62 velocity=95 time=0
EXTRACT: note_off channel=2 note=58 velocity=95 time=0
EXTRACT: note_off channel=2 note=53 velocity=95 time=0
EXTRACT: note_off channel=2 note=46 velocity=95 time=0
EXTRACT: note_on channel=2 note=70 velocity=95 time=0
EXTRACT: note_on channel=2 note=65 velocity=95 time=0
EXTRACT: note_on channel=2 note=62 velocity=95 time=0
EXTRACT: note_on channel=2 note=58 velocity=95 time=0
EXTRACT: note_on channel=2 note=53 velocity=95 time=0
EXTRACT: note_on channel=2 note=46 velocity=95 time=0
EXTRACT: note_off channel=0 note=70 velocity=95 time=0.39999999999999997
EXTRACT: note_off channel=0 note=65 velocity=95 time=0
EXTRACT: note_off channel=0 note=62 velocity=95 time=0
EXTRACT: note_off channel=0 note=58 velocity=95 time=0
EXTRACT: note_off channel=0 note=53 velocity=95 time=0
EXTRACT: note_off channel=0 note=46 velocity=95 time=0
EXTRACT: note_on channel=0 note=70 velocity=95 time=0
EXTRACT: note_on channel=0 note=65 velocity=95 time=0
EXTRACT: note_on channel=0 note=62 velocity=95 time=0
EXTRACT: note_on channel=0 note=58 velocity=95 time=0
EXTRACT: note_on channel=0 note=53 velocity=95 time=0
EXTRACT: note_on channel=0 note=46 velocity=95 time=0
EXTRACT: note_off channel=2 note=70 velocity=95 time=0
EXTRACT: note_off channel=2 note=65 velocity=95 time=0
EXTRACT: note_off channel=2 note=62 velocity=95 time=0
EXTRACT: note_off channel=2 note=58 velocity=95 time=0
EXTRACT: note_off channel=2 note=53 velocity=95 time=0
EXTRACT: note_off channel=2 note=46 velocity=95 time=0
EXTRACT: note_on channel=2 note=70 velocity=95 time=0
EXTRACT: note_on channel=2 note=65 velocity=95 time=0
EXTRACT: note_on channel=2 note=62 velocity=95 time=0
EXTRACT: note_on channel=2 note=58 velocity=95 time=0
EXTRACT: note_on channel=2 note=53 velocity=95 time=0
EXTRACT: note_on channel=2 note=46 velocity=95 time=0
EXTRACT: note_off channel=11 note=69 velocity=95 time=0
EXTRACT: note_on channel=11 note=67 velocity=95 time=0
EXTRACT: note_off channel=0 note=70 velocity=95 time=0.39999999999999997
EXTRACT: note_off channel=0 note=65 velocity=95 time=0
EXTRACT: note_off channel=0 note=62 velocity=95 time=0
EXTRACT: note_off channel=0 note=58 velocity=95 time=0
EXTRACT: note_off channel=0 note=53 velocity=95 time=0
EXTRACT: note_off channel=0 note=46 velocity=95 time=0
EXTRACT: note_on channel=0 note=70 velocity=95 time=0
EXTRACT: note_on channel=0 note=65 velocity=95 time=0
EXTRACT: note_on channel=0 note=62 velocity=95 time=0
EXTRACT: note_on channel=0 note=58 velocity=95 time=0
EXTRACT: note_on channel=0 note=53 velocity=95 time=0
EXTRACT: note_on channel=0 note=46 velocity=95 time=0
EXTRACT: note_off channel=2 note=70 velocity=95 time=0
EXTRACT: note_off channel=2 note=65 velocity=95 time=0
EXTRACT: note_off channel=2 note=62 velocity=95 time=0
EXTRACT: note_off channel=2 note=58 velocity=95 time=0
EXTRACT: note_off channel=2 note=53 velocity=95 time=0
EXTRACT: note_off channel=2 note=46 velocity=95 time=0
EXTRACT: note_on channel=2 note=70 velocity=111 time=0
EXTRACT: note_off channel=11 note=67 velocity=95 time=0
EXTRACT: note_on channel=11 note=65 velocity=95 time=0
EXTRACT: note_off channel=0 note=70 velocity=95 time=0.39999999999999997
EXTRACT: note_off channel=0 note=65 velocity=95 time=0
EXTRACT: note_off channel=0 note=62 velocity=95 time=0
EXTRACT: note_off channel=0 note=58 velocity=95 time=0
EXTRACT: note_off channel=0 note=53 velocity=95 time=0
EXTRACT: note_off channel=0 note=46 velocity=95 time=0
EXTRACT: note_on channel=0 note=70 velocity=95 time=0
EXTRACT: note_on channel=0 note=65 velocity=95 time=0
EXTRACT: note_on channel=0 note=62 velocity=95 time=0
EXTRACT: note_on channel=0 note=58 velocity=95 time=0
EXTRACT: note_on channel=0 note=53 velocity=95 time=0
EXTRACT: note_on channel=0 note=46 velocity=95 time=0
EXTRACT: note_off channel=2 note=70 velocity=111 time=0
EXTRACT: note_on channel=2 note=72 velocity=111 time=0
EXTRACT: note_off channel=11 note=65 velocity=95 time=0
EXTRACT: note_on channel=11 note=62 velocity=95 time=0
EXTRACT: note_off channel=0 note=70 velocity=95 time=0.39999999999999997
EXTRACT: note_off channel=0 note=65 velocity=95 time=0
EXTRACT: note_off channel=0 note=62 velocity=95 time=0
EXTRACT: note_off channel=0 note=58 velocity=95 time=0
EXTRACT: note_off channel=0 note=53 velocity=95 time=0
EXTRACT: note_off channel=0 note=46 velocity=95 time=0
EXTRACT: note_on channel=0 note=69 velocity=95 time=0
EXTRACT: note_on channel=0 note=65 velocity=95 time=0
EXTRACT: note_on channel=0 note=60 velocity=95 time=0
EXTRACT: note_on channel=0 note=53 velocity=95 time=0
EXTRACT: note_on channel=0 note=48 velocity=95 time=0
EXTRACT: note_off channel=2 note=72 velocity=111 time=0
EXTRACT: note_on channel=2 note=69 velocity=95 time=0
EXTRACT: note_on channel=2 note=65 velocity=95 time=0
EXTRACT: note_on channel=2 note=60 velocity=95 time=0
EXTRACT: note_on channel=2 note=53 velocity=95 time=0
EXTRACT: note_on channel=2 note=48 velocity=95 time=0
EXTRACT: note_off channel=6 note=70 velocity=111 time=0
EXTRACT: note_off channel=6 note=65 velocity=111 time=0
EXTRACT: note_off channel=6 note=62 velocity=111 time=0
EXTRACT: note_off channel=6 note=58 velocity=111 time=0
EXTRACT: note_on channel=6 note=53 velocity=111 time=0
EXTRACT: note_off channel=11 note=62 velocity=95 time=0
EXTRACT: note_on channel=11 note=60 velocity=95 time=0
EXTRACT: note_on channel=6 note=57 velocity=111 time=0.006666666666666666
EXTRACT: note_on channel=6 note=60 velocity=111 time=0.006666666666666666
EXTRACT: note_on channel=6 note=65 velocity=111 time=0.006666666666666666
EXTRACT: note_off channel=0 note=69 velocity=95 time=0.37999999999999995
EXTRACT: note_off channel=0 note=65 velocity=95 time=0
EXTRACT: note_off channel=0 note=60 velocity=95 time=0
EXTRACT: note_off channel=0 note=53 velocity=95 time=0
EXTRACT: note_off channel=0 note=48 velocity=95 time=0
EXTRACT: note_on channel=0 note=69 velocity=95 time=0
EXTRACT: note_on channel=0 note=65 velocity=95 time=0
EXTRACT: note_on channel=0 note=60 velocity=95 time=0
EXTRACT: note_on channel=0 note=53 velocity=95 time=0
EXTRACT: note_on channel=0 note=48 velocity=95 time=0
EXTRACT: note_off channel=2 note=69 velocity=95 time=0
EXTRACT: note_off channel=2 note=65 velocity=95 time=0
EXTRACT: note_off channel=2 note=60 velocity=95 time=0
EXTRACT: note_off channel=2 note=53 velocity=95 time=0
EXTRACT: note_off channel=2 note=48 velocity=95 time=0
EXTRACT: note_on channel=2 note=69 velocity=95 time=0
EXTRACT: note_on channel=2 note=65 velocity=95 time=0
EXTRACT: note_on channel=2 note=60 velocity=95 time=0
EXTRACT: note_on channel=2 note=53 velocity=95 time=0
EXTRACT: note_on channel=2 note=48 velocity=95 time=0
EXTRACT: note_off channel=0 note=69 velocity=95 time=0.39999999999999997
EXTRACT: note_off channel=0 note=65 velocity=95 time=0
EXTRACT: note_off channel=0 note=60 velocity=95 time=0
EXTRACT: note_off channel=0 note=53 velocity=95 time=0
EXTRACT: note_off channel=0 note=48 velocity=95 time=0
EXTRACT: note_on channel=0 note=69 velocity=95 time=0
EXTRACT: note_on channel=0 note=65 velocity=95 time=0
EXTRACT: note_on channel=0 note=60 velocity=95 time=0
EXTRACT: note_on channel=0 note=53 velocity=95 time=0
EXTRACT: note_on channel=0 note=48 velocity=95 time=0
EXTRACT: note_off channel=2 note=69 velocity=95 time=0
EXTRACT: note_off channel=2 note=65 velocity=95 time=0
EXTRACT: note_off channel=2 note=60 velocity=95 time=0
EXTRACT: note_off channel=2 note=53 velocity=95 time=0
EXTRACT: note_off channel=2 note=48 velocity=95 time=0
EXTRACT: note_on channel=2 note=69 velocity=95 time=0
EXTRACT: note_on channel=2 note=65 velocity=95 time=0
EXTRACT: note_on channel=2 note=60 velocity=95 time=0
EXTRACT: note_on channel=2 note=53 velocity=95 time=0
EXTRACT: note_on channel=2 note=48 velocity=95 time=0
EXTRACT: note_off channel=0 note=69 velocity=95 time=0.39999999999999997
EXTRACT: note_off channel=0 note=65 velocity=95 time=0
EXTRACT: note_off channel=0 note=60 velocity=95 time=0
EXTRACT: note_off channel=0 note=53 velocity=95 time=0
EXTRACT: note_off channel=0 note=48 velocity=95 time=0
EXTRACT: note_on channel=0 note=69 velocity=95 time=0
EXTRACT: note_on channel=0 note=65 velocity=95 time=0
EXTRACT: note_on channel=0 note=60 velocity=95 time=0
EXTRACT: note_on channel=0 note=53 velocity=95 time=0
EXTRACT: note_on channel=0 note=48 velocity=95 time=0
EXTRACT: note_off channel=2 note=69 velocity=95 time=0
EXTRACT: note_off channel=2 note=65 velocity=95 time=0
EXTRACT: note_off channel=2 note=60 velocity=95 time=0
EXTRACT: note_off channel=2 note=53 velocity=95 time=0
EXTRACT: note_off channel=2 note=48 velocity=95 time=0
EXTRACT: note_on channel=2 note=69 velocity=95 time=0
EXTRACT: note_on channel=2 note=65 velocity=95 time=0
EXTRACT: note_on channel=2 note=60 velocity=95 time=0
EXTRACT: note_on channel=2 note=53 velocity=95 time=0
EXTRACT: note_on channel=2 note=48 velocity=95 time=0
EXTRACT: note_off channel=0 note=69 velocity=95 time=0.39999999999999997
EXTRACT: note_off channel=0 note=65 velocity=95 time=0
EXTRACT: note_off channel=0 note=60 velocity=95 time=0
EXTRACT: note_off channel=0 note=53 velocity=95 time=0
EXTRACT: note_off channel=0 note=48 velocity=95 time=0
EXTRACT: note_on channel=0 note=69 velocity=95 time=0
EXTRACT: note_on channel=0 note=65 velocity=95 time=0
EXTRACT: note_on channel=0 note=60 velocity=95 time=0
EXTRACT: note_on channel=0 note=53 velocity=95 time=0
EXTRACT: note_on channel=0 note=48 velocity=95 time=0
EXTRACT: note_off channel=2 note=69 velocity=95 time=0
EXTRACT: note_off channel=2 note=65 velocity=95 time=0
EXTRACT: note_off channel=2 note=60 velocity=95 time=0
EXTRACT: note_off channel=2 note=53 velocity=95 time=0
EXTRACT: note_off channel=2 note=48 velocity=95 time=0
EXTRACT: note_on channel=2 note=69 velocity=95 time=0
EXTRACT: note_on channel=2 note=65 velocity=95 time=0
EXTRACT: note_on channel=2 note=60 velocity=95 time=0
EXTRACT: note_on channel=2 note=53 velocity=95 time=0
EXTRACT: note_on channel=2 note=48 velocity=95 time=0
EXTRACT: note_off channel=0 note=69 velocity=95 time=0.39999999999999997
EXTRACT: note_off channel=0 note=65 velocity=95 time=0
EXTRACT: note_off channel=0 note=60 velocity=95 time=0
EXTRACT: note_off channel=0 note=53 velocity=95 time=0
EXTRACT: note_off channel=0 note=48 velocity=95 time=0
EXTRACT: note_on channel=0 note=69 velocity=95 time=0
EXTRACT: note_on channel=0 note=65 velocity=95 time=0
EXTRACT: note_on channel=0 note=60 velocity=95 time=0
EXTRACT: note_on channel=0 note=53 velocity=95 time=0
EXTRACT: note_on channel=0 note=48 velocity=95 time=0
EXTRACT: note_off channel=2 note=69 velocity=95 time=0
EXTRACT: note_off channel=2 note=65 velocity=95 time=0
EXTRACT: note_off channel=2 note=60 velocity=95 time=0
EXTRACT: note_off channel=2 note=53 velocity=95 time=0
EXTRACT: note_off channel=2 note=48 velocity=95 time=0
EXTRACT: note_on channel=2 note=69 velocity=95 time=0
EXTRACT: note_on channel=2 note=65 velocity=95 time=0
EXTRACT: note_on channel=2 note=60 velocity=95 time=0
EXTRACT: note_on channel=2 note=53 velocity=95 time=0
EXTRACT: note_on channel=2 note=48 velocity=95 time=0
EXTRACT: note_off channel=0 note=69 velocity=95 time=0.39999999999999997
EXTRACT: note_off channel=0 note=65 velocity=95 time=0
EXTRACT: note_off channel=0 note=60 velocity=95 time=0
EXTRACT: note_off channel=0 note=53 velocity=95 time=0
EXTRACT: note_off channel=0 note=48 velocity=95 time=0
EXTRACT: note_on channel=0 note=69 velocity=95 time=0
EXTRACT: note_on channel=0 note=65 velocity=95 time=0
EXTRACT: note_on channel=0 note=60 velocity=95 time=0
EXTRACT: note_on channel=0 note=53 velocity=95 time=0
EXTRACT: note_on channel=0 note=48 velocity=95 time=0
EXTRACT: note_off channel=2 note=69 velocity=95 time=0
EXTRACT: note_off channel=2 note=65 velocity=95 time=0
EXTRACT: note_off channel=2 note=60 velocity=95 time=0
EXTRACT: note_off channel=2 note=53 velocity=95 time=0
EXTRACT: note_off channel=2 note=48 velocity=95 time=0
EXTRACT: note_on channel=2 note=69 velocity=95 time=0
EXTRACT: note_on channel=2 note=65 velocity=95 time=0
EXTRACT: note_on channel=2 note=60 velocity=95 time=0
EXTRACT: note_on channel=2 note=53 velocity=95 time=0
EXTRACT: note_on channel=2 note=48 velocity=95 time=0
EXTRACT: note_off channel=11 note=60 velocity=95 time=0
EXTRACT: note_off channel=0 note=69 velocity=95 time=0.39999999999999997
EXTRACT: note_off channel=0 note=65 velocity=95 time=0
EXTRACT: note_off channel=0 note=60 velocity=95 time=0
EXTRACT: note_off channel=0 note=53 velocity=95 time=0
EXTRACT: note_off channel=0 note=48 velocity=95 time=0
EXTRACT: note_on channel=0 note=69 velocity=95 time=0
EXTRACT: note_on channel=0 note=65 velocity=95 time=0
EXTRACT: note_on channel=0 note=60 velocity=95 time=0
EXTRACT: note_on channel=0 note=53 velocity=95 time=0
EXTRACT: note_on channel=0 note=48 velocity=95 time=0
EXTRACT: note_off channel=2 note=69 velocity=95 time=0
EXTRACT: note_off channel=2 note=65 velocity=95 time=0
EXTRACT: note_off channel=2 note=60 velocity=95 time=0
EXTRACT: note_off channel=2 note=53 velocity=95 time=0
EXTRACT: note_off channel=2 note=48 velocity=95 time=0
EXTRACT: note_on channel=2 note=69 velocity=95 time=0
EXTRACT: note_on channel=2 note=65 velocity=95 time=0
EXTRACT: note_on channel=2 note=60 velocity=95 time=0
EXTRACT: note_on channel=2 note=53 velocity=95 time=0
EXTRACT: note_on channel=2 note=48 velocity=95 time=0
EXTRACT: note_off channel=0 note=69 velocity=95 time=0.39999999999999997
EXTRACT: note_off channel=0 note=65 velocity=95 time=0
EXTRACT: note_off channel=0 note=60 velocity=95 time=0
EXTRACT: note_off channel=0 note=53 velocity=95 time=0
EXTRACT: note_off channel=0 note=48 velocity=95 time=0
EXTRACT: note_on channel=0 note=67 velocity=95 time=0
EXTRACT: note_on channel=0 note=65 velocity=95 time=0
EXTRACT: note_on channel=0 note=60 velocity=95 time=0
EXTRACT: note_on channel=0 note=53 velocity=95 time=0
EXTRACT: note_on channel=0 note=48 velocity=95 time=0
EXTRACT: note_off channel=2 note=69 velocity=95 time=0
EXTRACT: note_off channel=2 note=65 velocity=95 time=0
EXTRACT: note_off channel=2 note=60 velocity=95 time=0
EXTRACT: note_off channel=2 note=53 velocity=95 time=0
EXTRACT: note_off channel=2 note=48 velocity=95 time=0
EXTRACT: note_on channel=2 note=67 velocity=95 time=0
EXTRACT: note_on channel=2 note=65 velocity=95 time=0
EXTRACT: note_on channel=2 note=60 velocity=95 time=0
EXTRACT: note_on channel=2 note=53 velocity=95 time=0
EXTRACT: note_on channel=2 note=48 velocity=95 time=0
EXTRACT: note_off channel=6 note=65 velocity=111 time=0
EXTRACT: note_off channel=6 note=60 velocity=111 time=0
EXTRACT: note_off channel=6 note=57 velocity=111 time=0
EXTRACT: note_off channel=6 note=53 velocity=111 time=0
EXTRACT: note_on channel=6 note=53 velocity=111 time=0
EXTRACT: note_on channel=6 note=55 velocity=111 time=0.006666666666666666
EXTRACT: note_on channel=6 note=60 velocity=111 time=0.006666666666666666
EXTRACT: note_on channel=6 note=65 velocity=111 time=0.006666666666666666
EXTRACT: note_off channel=0 note=67 velocity=95 time=0.37999999999999995
EXTRACT: note_off channel=0 note=65 velocity=95 time=0
EXTRACT: note_off channel=0 note=60 velocity=95 time=0
EXTRACT: note_off channel=0 note=53 velocity=95 time=0
EXTRACT: note_off channel=0 note=48 velocity=95 time=0
EXTRACT: note_on channel=0 note=67 velocity=95 time=0
EXTRACT: note_on channel=0 note=65 velocity=95 time=0
EXTRACT: note_on channel=0 note=60 velocity=95 time=0
EXTRACT: note_on channel=0 note=53 velocity=95 time=0
EXTRACT: note_on channel=0 note=48 velocity=95 time=0
EXTRACT: note_off channel=2 note=67 velocity=95 time=0
EXTRACT: note_off channel=2 note=65 velocity=95 time=0
EXTRACT: note_off channel=2 note=60 velocity=95 time=0
EXTRACT: note_off channel=2 note=53 velocity=95 time=0
EXTRACT: note_off channel=2 note=48 velocity=95 time=0
EXTRACT: note_on channel=2 note=67 velocity=95 time=0
EXTRACT: note_on channel=2 note=65 velocity=95 time=0
EXTRACT: note_on channel=2 note=60 velocity=95 time=0
EXTRACT: note_on channel=2 note=53 velocity=95 time=0
EXTRACT: note_on channel=2 note=48 velocity=95 time=0
EXTRACT: note_off channel=0 note=67 velocity=95 time=0.39999999999999997
EXTRACT: note_off channel=0 note=65 velocity=95 time=0
EXTRACT: note_off channel=0 note=60 velocity=95 time=0
EXTRACT: note_off channel=0 note=53 velocity=95 time=0
EXTRACT: note_off channel=0 note=48 velocity=95 time=0
EXTRACT: note_on channel=0 note=67 velocity=95 time=0
EXTRACT: note_on channel=0 note=65 velocity=95 time=0
EXTRACT: note_on channel=0 note=60 velocity=95 time=0
EXTRACT: note_on channel=0 note=53 velocity=95 time=0
EXTRACT: note_on channel=0 note=48 velocity=95 time=0
EXTRACT: note_off channel=2 note=67 velocity=95 time=0
EXTRACT: note_off channel=2 note=65 velocity=95 time=0
EXTRACT: note_off channel=2 note=60 velocity=95 time=0
EXTRACT: note_off channel=2 note=53 velocity=95 time=0
EXTRACT: note_off channel=2 note=48 velocity=95 time=0
EXTRACT: note_on channel=2 note=67 velocity=95 time=0
EXTRACT: note_on channel=2 note=65 velocity=95 time=0
EXTRACT: note_on channel=2 note=60 velocity=95 time=0
EXTRACT: note_on channel=2 note=53 velocity=95 time=0
EXTRACT: note_on channel=2 note=48 velocity=95 time=0
EXTRACT: note_off channel=0 note=67 velocity=95 time=0.39999999999999997
EXTRACT: note_off channel=0 note=65 velocity=95 time=0
EXTRACT: note_off channel=0 note=60 velocity=95 time=0
EXTRACT: note_off channel=0 note=53 velocity=95 time=0
EXTRACT: note_off channel=0 note=48 velocity=95 time=0
EXTRACT: note_on channel=0 note=67 velocity=95 time=0
EXTRACT: note_on channel=0 note=65 velocity=95 time=0
EXTRACT: note_on channel=0 note=60 velocity=95 time=0
EXTRACT: note_on channel=0 note=53 velocity=95 time=0
EXTRACT: note_on channel=0 note=48 velocity=95 time=0
EXTRACT: note_off channel=2 note=67 velocity=95 time=0
EXTRACT: note_off channel=2 note=65 velocity=95 time=0
EXTRACT: note_off channel=2 note=60 velocity=95 time=0
EXTRACT: note_off channel=2 note=53 velocity=95 time=0
EXTRACT: note_off channel=2 note=48 velocity=95 time=0
EXTRACT: note_on channel=2 note=67 velocity=95 time=0
EXTRACT: note_on channel=2 note=65 velocity=95 time=0
EXTRACT: note_on channel=2 note=60 velocity=95 time=0
EXTRACT: note_on channel=2 note=53 velocity=95 time=0
EXTRACT: note_on channel=2 note=48 velocity=95 time=0
EXTRACT: note_off channel=0 note=67 velocity=95 time=0.39999999999999997
EXTRACT: note_off channel=0 note=65 velocity=95 time=0
EXTRACT: note_off channel=0 note=60 velocity=95 time=0
EXTRACT: note_off channel=0 note=53 velocity=95 time=0
EXTRACT: note_off channel=0 note=48 velocity=95 time=0
EXTRACT: note_on channel=0 note=67 velocity=95 time=0
EXTRACT: note_on channel=0 note=65 velocity=95 time=0
EXTRACT: note_on channel=0 note=60 velocity=95 time=0
EXTRACT: note_on channel=0 note=53 velocity=95 time=0
EXTRACT: note_on channel=0 note=48 velocity=95 time=0
EXTRACT: note_off channel=2 note=67 velocity=95 time=0
EXTRACT: note_off channel=2 note=65 velocity=95 time=0
EXTRACT: note_off channel=2 note=60 velocity=95 time=0
EXTRACT: note_off channel=2 note=53 velocity=95 time=0
EXTRACT: note_off channel=2 note=48 velocity=95 time=0
EXTRACT: note_on channel=2 note=67 velocity=95 time=0
EXTRACT: note_on channel=2 note=65 velocity=95 time=0
EXTRACT: note_on channel=2 note=60 velocity=95 time=0
EXTRACT: note_on channel=2 note=53 velocity=95 time=0
EXTRACT: note_on channel=2 note=48 velocity=95 time=0
EXTRACT: note_off channel=0 note=67 velocity=95 time=0.39999999999999997
EXTRACT: note_off channel=0 note=65 velocity=95 time=0
EXTRACT: note_off channel=0 note=60 velocity=95 time=0
EXTRACT: note_off channel=0 note=53 velocity=95 time=0
EXTRACT: note_off channel=0 note=48 velocity=95 time=0
EXTRACT: note_on channel=0 note=67 velocity=95 time=0
EXTRACT: note_on channel=0 note=65 velocity=95 time=0
EXTRACT: note_on channel=0 note=60 velocity=95 time=0
EXTRACT: note_on channel=0 note=53 velocity=95 time=0
EXTRACT: note_on channel=0 note=48 velocity=95 time=0
EXTRACT: note_off channel=2 note=67 velocity=95 time=0
EXTRACT: note_off channel=2 note=65 velocity=95 time=0
EXTRACT: note_off channel=2 note=60 velocity=95 time=0
EXTRACT: note_off channel=2 note=53 velocity=95 time=0
EXTRACT: note_off channel=2 note=48 velocity=95 time=0
EXTRACT: note_on channel=2 note=67 velocity=95 time=0
EXTRACT: note_on channel=2 note=65 velocity=95 time=0
EXTRACT: note_on channel=2 note=60 velocity=95 time=0
EXTRACT: note_on channel=2 note=53 velocity=95 time=0
EXTRACT: note_on channel=2 note=48 velocity=95 time=0
EXTRACT: note_off channel=0 note=67 velocity=95 time=0.39999999999999997
EXTRACT: note_off channel=0 note=65 velocity=95 time=0
EXTRACT: note_off channel=0 note=60 velocity=95 time=0
EXTRACT: note_off channel=0 note=53 velocity=95 time=0
EXTRACT: note_off channel=0 note=48 velocity=95 time=0
EXTRACT: note_on channel=0 note=67 velocity=95 time=0
EXTRACT: note_on channel=0 note=65 velocity=95 time=0
EXTRACT: note_on channel=0 note=60 velocity=95 time=0
EXTRACT: note_on channel=0 note=53 velocity=95 time=0
EXTRACT: note_on channel=0 note=48 velocity=95 time=0
EXTRACT: note_off channel=2 note=67 velocity=95 time=0
EXTRACT: note_off channel=2 note=65 velocity=95 time=0
EXTRACT: note_off channel=2 note=60 velocity=95 time=0
EXTRACT: note_off channel=2 note=53 velocity=95 time=0
EXTRACT: note_off channel=2 note=48 velocity=95 time=0
EXTRACT: note_on channel=2 note=67 velocity=95 time=0
EXTRACT: note_on channel=2 note=65 velocity=95 time=0
EXTRACT: note_on channel=2 note=60 velocity=95 time=0
EXTRACT: note_on channel=2 note=53 velocity=95 time=0
EXTRACT: note_on channel=2 note=48 velocity=95 time=0
EXTRACT: note_off channel=0 note=67 velocity=95 time=0.39999999999999997
EXTRACT: note_off channel=0 note=65 velocity=95 time=0
EXTRACT: note_off channel=0 note=60 velocity=95 time=0
EXTRACT: note_off channel=0 note=53 velocity=95 time=0
EXTRACT: note_off channel=0 note=48 velocity=95 time=0
EXTRACT: note_on channel=0 note=67 velocity=95 time=0
EXTRACT: note_on channel=0 note=65 velocity=95 time=0
EXTRACT: note_on channel=0 note=60 velocity=95 time=0
EXTRACT: note_on channel=0 note=53 velocity=95 time=0
EXTRACT: note_on channel=0 note=48 velocity=95 time=0
EXTRACT: note_off channel=2 note=67 velocity=95 time=0
EXTRACT: note_off channel=2 note=65 velocity=95 time=0
EXTRACT: note_off channel=2 note=60 velocity=95 time=0
EXTRACT: note_off channel=2 note=53 velocity=95 time=0
EXTRACT: note_off channel=2 note=48 velocity=95 time=0
EXTRACT: note_on channel=2 note=67 velocity=95 time=0
EXTRACT: note_on channel=2 note=65 velocity=95 time=0
EXTRACT: note_on channel=2 note=60 velocity=95 time=0
EXTRACT: note_on channel=2 note=53 velocity=95 time=0
EXTRACT: note_on channel=2 note=48 velocity=95 time=0
EXTRACT: note_off channel=0 note=67 velocity=95 time=0.39999999999999997
EXTRACT: note_off channel=0 note=65 velocity=95 time=0
EXTRACT: note_off channel=0 note=60 velocity=95 time=0
EXTRACT: note_off channel=0 note=53 velocity=95 time=0
EXTRACT: note_off channel=0 note=48 velocity=95 time=0
EXTRACT: note_on channel=0 note=69 velocity=95 time=0
EXTRACT: note_on channel=0 note=65 velocity=95 time=0
EXTRACT: note_on channel=0 note=62 velocity=95 time=0
EXTRACT: note_on channel=0 note=57 velocity=95 time=0
EXTRACT: note_on channel=0 note=50 velocity=95 time=0
EXTRACT: note_on channel=0 note=45 velocity=95 time=0
EXTRACT: note_off channel=2 note=67 velocity=95 time=0
EXTRACT: note_off channel=2 note=65 velocity=95 time=0
EXTRACT: note_off channel=2 note=60 velocity=95 time=0
EXTRACT: note_off channel=2 note=53 velocity=95 time=0
EXTRACT: note_off channel=2 note=48 velocity=95 time=0
EXTRACT: note_on channel=2 note=69 velocity=95 time=0
EXTRACT: note_on channel=2 note=65 velocity=95 time=0
EXTRACT: note_on channel=2 note=62 velocity=95 time=0
EXTRACT: note_on channel=2 note=57 velocity=95 time=0
EXTRACT: note_on channel=2 note=50 velocity=95 time=0
EXTRACT: note_on channel=2 note=45 velocity=95 time=0
EXTRACT: note_off channel=6 note=65 velocity=111 time=0
EXTRACT: note_off channel=6 note=60 velocity=111 time=0
EXTRACT: note_off channel=6 note=55 velocity=111 time=0
EXTRACT: note_off channel=6 note=53 velocity=111 time=0
EXTRACT: note_on channel=6 note=57 velocity=111 time=0
EXTRACT: note_on channel=6 note=62 velocity=111 time=0.006666666666666666
EXTRACT: note_on channel=6 note=65 velocity=111 time=0.006666666666666666
EXTRACT: note_on channel=6 note=69 velocity=111 time=0.006666666666666666
EXTRACT: note_off channel=0 note=69 velocity=95 time=0.37999999999999995
EXTRACT: note_off channel=0 note=65 velocity=95 time=0
EXTRACT: note_off channel=0 note=62 velocity=95 time=0
EXTRACT: note_off channel=0 note=57 velocity=95 time=0
EXTRACT: note_off channel=0 note=50 velocity=95 time=0
EXTRACT: note_off channel=0 note=45 velocity=95 time=0
EXTRACT: note_on channel=0 note=69 velocity=95 time=0
EXTRACT: note_on channel=0 note=65 velocity=95 time=0
EXTRACT: note_on channel=0 note=62 velocity=95 time=0
EXTRACT: note_on channel=0 note=57 velocity=95 time=0
EXTRACT: note_on channel=0 note=50 velocity=95 time=0
EXTRACT: note_on channel=0 note=45 velocity=95 time=0
EXTRACT: note_off channel=2 note=69 velocity=95 time=0
EXTRACT: note_off channel=2 note=65 velocity=95 time=0
EXTRACT: note_off channel=2 note=62 velocity=95 time=0
EXTRACT: note_off channel=2 note=57 velocity=95 time=0
EXTRACT: note_off channel=2 note=50 velocity=95 time=0
EXTRACT: note_off channel=2 note=45 velocity=95 time=0
EXTRACT: note_on channel=2 note=69 velocity=95 time=0
EXTRACT: note_on channel=2 note=65 velocity=95 time=0
EXTRACT: note_on channel=2 note=62 velocity=95 time=0
EXTRACT: note_on channel=2 note=57 velocity=95 time=0
EXTRACT: note_on channel=2 note=50 velocity=95 time=0
EXTRACT: note_on channel=2 note=45 velocity=95 time=0
EXTRACT: note_off channel=0 note=69 velocity=95 time=0.39999999999999997
EXTRACT: note_off channel=0 note=65 velocity=95 time=0
EXTRACT: note_off channel=0 note=62 velocity=95 time=0
EXTRACT: note_off channel=0 note=57 velocity=95 time=0
EXTRACT: note_off channel=0 note=50 velocity=95 time=0
EXTRACT: note_off channel=0 note=45 velocity=95 time=0
EXTRACT: note_on channel=0 note=69 velocity=95 time=0
EXTRACT: note_on channel=0 note=65 velocity=95 time=0
EXTRACT: note_on channel=0 note=62 velocity=95 time=0
EXTRACT: note_on channel=0 note=57 velocity=95 time=0
EXTRACT: note_on channel=0 note=50 velocity=95 time=0
EXTRACT: note_on channel=0 note=45 velocity=95 time=0
EXTRACT: note_off channel=2 note=69 velocity=95 time=0
EXTRACT: note_off channel=2 note=65 velocity=95 time=0
EXTRACT: note_off channel=2 note=62 velocity=95 time=0
EXTRACT: note_off channel=2 note=57 velocity=95 time=0
EXTRACT: note_off channel=2 note=50 velocity=95 time=0
EXTRACT: note_off channel=2 note=45 velocity=95 time=0
EXTRACT: note_on channel=2 note=69 velocity=95 time=0
EXTRACT: note_on channel=2 note=65 velocity=95 time=0
EXTRACT: note_on channel=2 note=62 velocity=95 time=0
EXTRACT: note_on channel=2 note=57 velocity=95 time=0
EXTRACT: note_on channel=2 note=50 velocity=95 time=0
EXTRACT: note_on channel=2 note=45 velocity=95 time=0
EXTRACT: note_off channel=0 note=69 velocity=95 time=0.39999999999999997
EXTRACT: note_off channel=0 note=65 velocity=95 time=0
EXTRACT: note_off channel=0 note=62 velocity=95 time=0
EXTRACT: note_off channel=0 note=57 velocity=95 time=0
EXTRACT: note_off channel=0 note=50 velocity=95 time=0
EXTRACT: note_off channel=0 note=45 velocity=95 time=0
EXTRACT: note_on channel=0 note=69 velocity=95 time=0
EXTRACT: note_on channel=0 note=65 velocity=95 time=0
EXTRACT: note_on channel=0 note=62 velocity=95 time=0
EXTRACT: note_on channel=0 note=57 velocity=95 time=0
EXTRACT: note_on channel=0 note=50 velocity=95 time=0
EXTRACT: note_on channel=0 note=45 velocity=95 time=0
EXTRACT: note_off channel=2 note=69 velocity=95 time=0
EXTRACT: note_off channel=2 note=65 velocity=95 time=0
EXTRACT: note_off channel=2 note=62 velocity=95 time=0
EXTRACT: note_off channel=2 note=57 velocity=95 time=0
EXTRACT: note_off channel=2 note=50 velocity=95 time=0
EXTRACT: note_off channel=2 note=45 velocity=95 time=0
EXTRACT: note_on channel=2 note=69 velocity=95 time=0
EXTRACT: note_on channel=2 note=65 velocity=95 time=0
EXTRACT: note_on channel=2 note=62 velocity=95 time=0
EXTRACT: note_on channel=2 note=57 velocity=95 time=0
EXTRACT: note_on channel=2 note=50 velocity=95 time=0
EXTRACT: note_on channel=2 note=45 velocity=95 time=0
EXTRACT: note_off channel=0 note=69 velocity=95 time=0.39999999999999997
EXTRACT: note_off channel=0 note=65 velocity=95 time=0
EXTRACT: note_off channel=0 note=62 velocity=95 time=0
EXTRACT: note_off channel=0 note=57 velocity=95 time=0
EXTRACT: note_off channel=0 note=50 velocity=95 time=0
EXTRACT: note_off channel=0 note=45 velocity=95 time=0
EXTRACT: note_on channel=0 note=69 velocity=95 time=0
EXTRACT: note_on channel=0 note=65 velocity=95 time=0
EXTRACT: note_on channel=0 note=62 velocity=95 time=0
EXTRACT: note_on channel=0 note=57 velocity=95 time=0
EXTRACT: note_on channel=0 note=50 velocity=95 time=0
EXTRACT: note_on channel=0 note=45 velocity=95 time=0
EXTRACT: note_off channel=2 note=69 velocity=95 time=0
EXTRACT: note_off channel=2 note=65 velocity=95 time=0
EXTRACT: note_off channel=2 note=62 velocity=95 time=0
EXTRACT: note_off channel=2 note=57 velocity=95 time=0
EXTRACT: note_off channel=2 note=50 velocity=95 time=0
EXTRACT: note_off channel=2 note=45 velocity=95 time=0
EXTRACT: note_on channel=2 note=69 velocity=95 time=0
EXTRACT: note_on channel=2 note=65 velocity=95 time=0
EXTRACT: note_on channel=2 note=62 velocity=95 time=0
EXTRACT: note_on channel=2 note=57 velocity=95 time=0
EXTRACT: note_on channel=2 note=50 velocity=95 time=0
EXTRACT: note_on channel=2 note=45 velocity=95 time=0
EXTRACT: note_off channel=0 note=69 velocity=95 time=0.39999999999999997
EXTRACT: note_off channel=0 note=65 velocity=95 time=0
EXTRACT: note_off channel=0 note=62 velocity=95 time=0
EXTRACT: note_off channel=0 note=57 velocity=95 time=0
EXTRACT: note_off channel=0 note=50 velocity=95 time=0
EXTRACT: note_off channel=0 note=45 velocity=95 time=0
EXTRACT: note_on channel=0 note=69 velocity=95 time=0
EXTRACT: note_on channel=0 note=65 velocity=95 time=0
EXTRACT: note_on channel=0 note=62 velocity=95 time=0
EXTRACT: note_on channel=0 note=57 velocity=95 time=0
EXTRACT: note_on channel=0 note=50 velocity=95 time=0
EXTRACT: note_on channel=0 note=45 velocity=95 time=0
EXTRACT: note_off channel=2 note=69 velocity=95 time=0
EXTRACT: note_off channel=2 note=65 velocity=95 time=0
EXTRACT: note_off channel=2 note=62 velocity=95 time=0
EXTRACT: note_off channel=2 note=57 velocity=95 time=0
EXTRACT: note_off channel=2 note=50 velocity=95 time=0
EXTRACT: note_off channel=2 note=45 velocity=95 time=0
EXTRACT: note_on channel=2 note=69 velocity=95 time=0
EXTRACT: note_on channel=2 note=65 velocity=95 time=0
EXTRACT: note_on channel=2 note=62 velocity=95 time=0
EXTRACT: note_on channel=2 note=57 velocity=95 time=0
EXTRACT: note_on channel=2 note=50 velocity=95 time=0
EXTRACT: note_on channel=2 note=45 velocity=95 time=0
EXTRACT: note_off channel=0 note=69 velocity=95 time=0.39999999999999997
EXTRACT: note_off channel=0 note=65 velocity=95 time=0
EXTRACT: note_off channel=0 note=62 velocity=95 time=0
EXTRACT: note_off channel=0 note=57 velocity=95 time=0
EXTRACT: note_off channel=0 note=50 velocity=95 time=0
EXTRACT: note_off channel=0 note=45 velocity=95 time=0
EXTRACT: note_on channel=0 note=69 velocity=95 time=0
EXTRACT: note_on channel=0 note=65 velocity=95 time=0
EXTRACT: note_on channel=0 note=62 velocity=95 time=0
EXTRACT: note_on channel=0 note=57 velocity=95 time=0
EXTRACT: note_on channel=0 note=50 velocity=95 time=0
EXTRACT: note_on channel=0 note=45 velocity=95 time=0
EXTRACT: note_off channel=2 note=69 velocity=95 time=0
EXTRACT: note_off channel=2 note=65 velocity=95 time=0
EXTRACT: note_off channel=2 note=62 velocity=95 time=0
EXTRACT: note_off channel=2 note=57 velocity=95 time=0
EXTRACT: note_off channel=2 note=50 velocity=95 time=0
EXTRACT: note_off channel=2 note=45 velocity=95 time=0
EXTRACT: note_on channel=2 note=69 velocity=95 time=0
EXTRACT: note_on channel=2 note=65 velocity=95 time=0
EXTRACT: note_on channel=2 note=62 velocity=95 time=0
EXTRACT: note_on channel=2 note=57 velocity=95 time=0
EXTRACT: note_on channel=2 note=50 velocity=95 time=0
EXTRACT: note_on channel=2 note=45 velocity=95 time=0
EXTRACT: note_on channel=11 note=60 velocity=95 time=0
EXTRACT: note_off channel=0 note=69 velocity=95 time=0.39999999999999997
EXTRACT: note_off channel=0 note=65 velocity=95 time=0
EXTRACT: note_off channel=0 note=62 velocity=95 time=0
EXTRACT: note_off channel=0 note=57 velocity=95 time=0
EXTRACT: note_off channel=0 note=50 velocity=95 time=0
EXTRACT: note_off channel=0 note=45 velocity=95 time=0
EXTRACT: note_on channel=0 note=69 velocity=95 time=0
EXTRACT: note_on channel=0 note=65 velocity=95 time=0
EXTRACT: note_on channel=0 note=62 velocity=95 time=0
EXTRACT: note_on channel=0 note=57 velocity=95 time=0
EXTRACT: note_on channel=0 note=50 velocity=95 time=0
EXTRACT: note_on channel=0 note=45 velocity=95 time=0
EXTRACT: note_off channel=2 note=69 velocity=95 time=0
EXTRACT: note_off channel=2 note=65 velocity=95 time=0
EXTRACT: note_off channel=2 note=62 velocity=95 time=0
EXTRACT: note_off channel=2 note=57 velocity=95 time=0
EXTRACT: note_off channel=2 note=50 velocity=95 time=0
EXTRACT: note_off channel=2 note=45 velocity=95 time=0
EXTRACT: note_on channel=2 note=69 velocity=95 time=0
EXTRACT: note_on channel=2 note=65 velocity=95 time=0
EXTRACT: note_on channel=2 note=62 velocity=95 time=0
EXTRACT: note_on channel=2 note=57 velocity=95 time=0
EXTRACT: note_on channel=2 note=50 velocity=95 time=0
EXTRACT: note_on channel=2 note=45 velocity=95 time=0
EXTRACT: note_off channel=11 note=60 velocity=95 time=0
EXTRACT: note_on channel=11 note=69 velocity=95 time=0
EXTRACT: note_off channel=0 note=69 velocity=95 time=0.39999999999999997
EXTRACT: note_off channel=0 note=65 velocity=95 time=0
EXTRACT: note_off channel=0 note=62 velocity=95 time=0
EXTRACT: note_off channel=0 note=57 velocity=95 time=0
EXTRACT: note_off channel=0 note=50 velocity=95 time=0
EXTRACT: note_off channel=0 note=45 velocity=95 time=0
EXTRACT: note_on channel=0 note=70 velocity=95 time=0
EXTRACT: note_on channel=0 note=65 velocity=95 time=0
EXTRACT: note_on channel=0 note=62 velocity=95 time=0
EXTRACT: note_on channel=0 note=58 velocity=95 time=0
EXTRACT: note_on channel=0 note=53 velocity=95 time=0
EXTRACT: note_on channel=0 note=46 velocity=95 time=0
EXTRACT: note_off channel=2 note=69 velocity=95 time=0
EXTRACT: note_off channel=2 note=65 velocity=95 time=0
EXTRACT: note_off channel=2 note=62 velocity=95 time=0
EXTRACT: note_off channel=2 note=57 velocity=95 time=0
EXTRACT: note_off channel=2 note=50 velocity=95 time=0
EXTRACT: note_off channel=2 note=45 velocity=95 time=0
EXTRACT: note_on channel=2 note=70 velocity=95 time=0
EXTRACT: note_on channel=2 note=65 velocity=95 time=0
EXTRACT: note_on channel=2 note=62 velocity=95 time=0
EXTRACT: note_on channel=2 note=58 velocity=95 time=0
EXTRACT: note_on channel=2 note=53 velocity=95 time=0
EXTRACT: note_on channel=2 note=46 velocity=95 time=0
EXTRACT: note_off channel=6 note=69 velocity=111 time=0
EXTRACT: note_off channel=6 note=65 velocity=111 time=0
EXTRACT: note_off channel=6 note=62 velocity=111 time=0
EXTRACT: note_off channel=6 note=57 velocity=111 time=0
EXTRACT: note_on channel=6 note=58 velocity=111 time=0
EXTRACT: note_off channel=11 note=69 velocity=95 time=0
EXTRACT: note_on channel=6 note=62 velocity=111 time=0.006666666666666666
EXTRACT: note_on channel=6 note=65 velocity=111 time=0.006666666666666666
EXTRACT: note_on channel=6 note=70 velocity=111 time=0.006666666666666666
EXTRACT: note_off channel=0 note=70 velocity=95 time=0.37999999999999995
EXTRACT: note_off channel=0 note=65 velocity=95 time=0
EXTRACT: note_off channel=0 note=62 velocity=95 time=0
EXTRACT: note_off channel=0 note=58 velocity=95 time=0
EXTRACT: note_off channel=0 note=53 velocity=95 time=0
EXTRACT: note_off channel=0 note=46 velocity=95 time=0
EXTRACT: note_on channel=0 note=70 velocity=95 time=0
EXTRACT: note_on channel=0 note=65 velocity=95 time=0
EXTRACT: note_on channel=0 note=62 velocity=95 time=0
EXTRACT: note_on channel=0 note=58 velocity=95 time=0
EXTRACT: note_on channel=0 note=53 velocity=95 time=0
EXTRACT: note_on channel=0 note=46 velocity=95 time=0
EXTRACT: note_off channel=2 note=70 velocity=95 time=0
EXTRACT: note_off channel=2 note=65 velocity=95 time=0
EXTRACT: note_off channel=2 note=62 velocity=95 time=0
EXTRACT: note_off channel=2 note=58 velocity=95 time=0
EXTRACT: note_off channel=2 note=53 velocity=95 time=0
EXTRACT: note_off channel=2 note=46 velocity=95 time=0
EXTRACT: note_on channel=2 note=70 velocity=95 time=0
EXTRACT: note_on channel=2 note=65 velocity=95 time=0
EXTRACT: note_on channel=2 note=62 velocity=95 time=0
EXTRACT: note_on channel=2 note=58 velocity=95 time=0
EXTRACT: note_on channel=2 note=53 velocity=95 time=0
EXTRACT: note_on channel=2 note=46 velocity=95 time=0
EXTRACT: note_off channel=0 note=70 velocity=95 time=0.39999999999999997
EXTRACT: note_off channel=0 note=65 velocity=95 time=0
EXTRACT: note_off channel=0 note=62 velocity=95 time=0
EXTRACT: note_off channel=0 note=58 velocity=95 time=0
EXTRACT: note_off channel=0 note=53 velocity=95 time=0
EXTRACT: note_off channel=0 note=46 velocity=95 time=0
EXTRACT: note_on channel=0 note=70 velocity=95 time=0
EXTRACT: note_on channel=0 note=65 velocity=95 time=0
EXTRACT: note_on channel=0 note=62 velocity=95 time=0
EXTRACT: note_on channel=0 note=58 velocity=95 time=0
EXTRACT: note_on channel=0 note=53 velocity=95 time=0
EXTRACT: note_on channel=0 note=46 velocity=95 time=0
EXTRACT: note_off channel=2 note=70 velocity=95 time=0
EXTRACT: note_off channel=2 note=65 velocity=95 time=0
EXTRACT: note_off channel=2 note=62 velocity=95 time=0
EXTRACT: note_off channel=2 note=58 velocity=95 time=0
EXTRACT: note_off channel=2 note=53 velocity=95 time=0
EXTRACT: note_off channel=2 note=46 velocity=95 time=0
EXTRACT: note_on channel=2 note=70 velocity=95 time=0
EXTRACT: note_on channel=2 note=65 velocity=95 time=0
EXTRACT: note_on channel=2 note=62 velocity=95 time=0
EXTRACT: note_on channel=2 note=58 velocity=95 time=0
EXTRACT: note_on channel=2 note=53 velocity=95 time=0
EXTRACT: note_on channel=2 note=46 velocity=95 time=0
EXTRACT: note_off channel=0 note=70 velocity=95 time=0.39999999999999997
EXTRACT: note_off channel=0 note=65 velocity=95 time=0
EXTRACT: note_off channel=0 note=62 velocity=95 time=0
EXTRACT: note_off channel=0 note=58 velocity=95 time=0
EXTRACT: note_off channel=0 note=53 velocity=95 time=0
EXTRACT: note_off channel=0 note=46 velocity=95 time=0
EXTRACT: note_on channel=0 note=70 velocity=95 time=0
EXTRACT: note_on channel=0 note=65 velocity=95 time=0
EXTRACT: note_on channel=0 note=62 velocity=95 time=0
EXTRACT: note_on channel=0 note=58 velocity=95 time=0
EXTRACT: note_on channel=0 note=53 velocity=95 time=0
EXTRACT: note_on channel=0 note=46 velocity=95 time=0
EXTRACT: note_off channel=2 note=70 velocity=95 time=0
EXTRACT: note_off channel=2 note=65 velocity=95 time=0
EXTRACT: note_off channel=2 note=62 velocity=95 time=0
EXTRACT: note_off channel=2 note=58 velocity=95 time=0
EXTRACT: note_off channel=2 note=53 velocity=95 time=0
EXTRACT: note_off channel=2 note=46 velocity=95 time=0
EXTRACT: note_on channel=2 note=70 velocity=95 time=0
EXTRACT: note_on channel=2 note=65 velocity=95 time=0
EXTRACT: note_on channel=2 note=62 velocity=95 time=0
EXTRACT: note_on channel=2 note=58 velocity=95 time=0
EXTRACT: note_on channel=2 note=53 velocity=95 time=0
EXTRACT: note_on channel=2 note=46 velocity=95 time=0
EXTRACT: note_off channel=0 note=70 velocity=95 time=0.39999999999999997
EXTRACT: note_off channel=0 note=65 velocity=95 time=0
EXTRACT: note_off channel=0 note=62 velocity=95 time=0
EXTRACT: note_off channel=0 note=58 velocity=95 time=0
EXTRACT: note_off channel=0 note=53 velocity=95 time=0
EXTRACT: note_off channel=0 note=46 velocity=95 time=0
EXTRACT: note_on channel=0 note=70 velocity=95 time=0
EXTRACT: note_on channel=0 note=65 velocity=95 time=0
EXTRACT: note_on channel=0 note=62 velocity=95 time=0
EXTRACT: note_on channel=0 note=58 velocity=95 time=0
EXTRACT: note_on channel=0 note=53 velocity=95 time=0
EXTRACT: note_on channel=0 note=46 velocity=95 time=0
EXTRACT: note_off channel=2 note=70 velocity=95 time=0
EXTRACT: note_off channel=2 note=65 velocity=95 time=0
EXTRACT: note_off channel=2 note=62 velocity=95 time=0
EXTRACT: note_off channel=2 note=58 velocity=95 time=0
EXTRACT: note_off channel=2 note=53 velocity=95 time=0
EXTRACT: note_off channel=2 note=46 velocity=95 time=0
EXTRACT: note_on channel=2 note=70 velocity=95 time=0
EXTRACT: note_on channel=2 note=65 velocity=95 time=0
EXTRACT: note_on channel=2 note=62 velocity=95 time=0
EXTRACT: note_on channel=2 note=58 velocity=95 time=0
EXTRACT: note_on channel=2 note=53 velocity=95 time=0
EXTRACT: note_on channel=2 note=46 velocity=95 time=0
EXTRACT: note_off channel=0 note=70 velocity=95 time=0.39999999999999997
EXTRACT: note_off channel=0 note=65 velocity=95 time=0
EXTRACT: note_off channel=0 note=62 velocity=95 time=0
EXTRACT: note_off channel=0 note=58 velocity=95 time=0
EXTRACT: note_off channel=0 note=53 velocity=95 time=0
EXTRACT: note_off channel=0 note=46 velocity=95 time=0
EXTRACT: note_on channel=0 note=70 velocity=95 time=0
EXTRACT: note_on channel=0 note=65 velocity=95 time=0
EXTRACT: note_on channel=0 note=62 velocity=95 time=0
EXTRACT: note_on channel=0 note=58 velocity=95 time=0
EXTRACT: note_on channel=0 note=53 velocity=95 time=0
EXTRACT: note_on channel=0 note=46 velocity=95 time=0
EXTRACT: note_off channel=2 note=70 velocity=95 time=0
EXTRACT: note_off channel=2 note=65 velocity=95 time=0
EXTRACT: note_off channel=2 note=62 velocity=95 time=0
EXTRACT: note_off channel=2 note=58 velocity=95 time=0
EXTRACT: note_off channel=2 note=53 velocity=95 time=0
EXTRACT: note_off channel=2 note=46 velocity=95 time=0
EXTRACT: note_on channel=2 note=70 velocity=95 time=0
EXTRACT: note_on channel=2 note=65 velocity=95 time=0
EXTRACT: note_on channel=2 note=62 velocity=95 time=0
EXTRACT: note_on channel=2 note=58 velocity=95 time=0
EXTRACT: note_on channel=2 note=53 velocity=95 time=0
EXTRACT: note_on channel=2 note=46 velocity=95 time=0
EXTRACT: note_on channel=11 note=67 velocity=95 time=0
EXTRACT: note_off channel=0 note=70 velocity=95 time=0.39999999999999997
EXTRACT: note_off channel=0 note=65 velocity=95 time=0
EXTRACT: note_off channel=0 note=62 velocity=95 time=0
EXTRACT: note_off channel=0 note=58 velocity=95 time=0
EXTRACT: note_off channel=0 note=53 velocity=95 time=0
EXTRACT: note_off channel=0 note=46 velocity=95 time=0
EXTRACT: note_on channel=0 note=70 velocity=95 time=0
EXTRACT: note_on channel=0 note=65 velocity=95 time=0
EXTRACT: note_on channel=0 note=62 velocity=95 time=0
EXTRACT: note_on channel=0 note=58 velocity=95 time=0
EXTRACT: note_on channel=0 note=53 velocity=95 time=0
EXTRACT: note_on channel=0 note=46 velocity=95 time=0
EXTRACT: note_off channel=2 note=70 velocity=95 time=0
EXTRACT: note_off channel=2 note=65 velocity=95 time=0
EXTRACT: note_off channel=2 note=62 velocity=95 time=0
EXTRACT: note_off channel=2 note=58 velocity=95 time=0
EXTRACT: note_off channel=2 note=53 velocity=95 time=0
EXTRACT: note_off channel=2 note=46 velocity=95 time=0
EXTRACT: note_on channel=2 note=70 velocity=111 time=0
EXTRACT: note_off channel=11 note=67 velocity=95 time=0
EXTRACT: note_on channel=11 note=65 velocity=95 time=0
EXTRACT: note_off channel=0 note=70 velocity=95 time=0.39999999999999997
EXTRACT: note_off channel=0 note=65 velocity=95 time=0
EXTRACT: note_off channel=0 note=62 velocity=95 time=0
EXTRACT: note_off channel=0 note=58 velocity=95 time=0
EXTRACT: note_off channel=0 note=53 velocity=95 time=0
EXTRACT: note_off channel=0 note=46 velocity=95 time=0
EXTRACT: note_on channel=0 note=70 velocity=95 time=0
EXTRACT: note_on channel=0 note=65 velocity=95 time=0
EXTRACT: note_on channel=0 note=62 velocity=95 time=0
EXTRACT: note_on channel=0 note=58 velocity=95 time=0
EXTRACT: note_on channel=0 note=53 velocity=95 time=0
EXTRACT: note_on channel=0 note=46 velocity=95 time=0
EXTRACT: note_off channel=2 note=70 velocity=111 time=0
EXTRACT: note_on channel=2 note=72 velocity=111 time=0
EXTRACT: note_off channel=11 note=65 velocity=95 time=0
EXTRACT: note_on channel=11 note=62 velocity=95 time=0
EXTRACT: note_off channel=0 note=70 velocity=95 time=0.39999999999999997
EXTRACT: note_off channel=0 note=65 velocity=95 time=0
EXTRACT: note_off channel=0 note=62 velocity=95 time=0
EXTRACT: note_off channel=0 note=58 velocity=95 time=0
EXTRACT: note_off channel=0 note=53 velocity=95 time=0
EXTRACT: note_off channel=0 note=46 velocity=95 time=0
EXTRACT: note_on channel=0 note=69 velocity=95 time=0
EXTRACT: note_on channel=0 note=65 velocity=95 time=0
EXTRACT: note_on channel=0 note=60 velocity=95 time=0
EXTRACT: note_on channel=0 note=53 velocity=95 time=0
EXTRACT: note_on channel=0 note=48 velocity=95 time=0
EXTRACT: note_off channel=2 note=72 velocity=111 time=0
EXTRACT: note_on channel=2 note=69 velocity=95 time=0
EXTRACT: note_on channel=2 note=65 velocity=95 time=0
EXTRACT: note_on channel=2 note=60 velocity=95 time=0
EXTRACT: note_on channel=2 note=53 velocity=95 time=0
EXTRACT: note_on channel=2 note=48 velocity=95 time=0
EXTRACT: note_off channel=6 note=70 velocity=111 time=0
EXTRACT: note_off channel=6 note=65 velocity=111 time=0
EXTRACT: note_off channel=6 note=62 velocity=111 time=0
EXTRACT: note_off channel=6 note=58 velocity=111 time=0
EXTRACT: note_on channel=6 note=53 velocity=111 time=0
EXTRACT: note_off channel=11 note=62 velocity=95 time=0
EXTRACT: note_on channel=11 note=60 velocity=95 time=0
EXTRACT: note_on channel=6 note=57 velocity=111 time=0.006666666666666666
EXTRACT: note_on channel=6 note=60 velocity=111 time=0.006666666666666666
EXTRACT: note_on channel=6 note=65 velocity=111 time=0.006666666666666666
EXTRACT: note_off channel=0 note=69 velocity=95 time=0.37999999999999995
EXTRACT: note_off channel=0 note=65 velocity=95 time=0
EXTRACT: note_off channel=0 note=60 velocity=95 time=0
EXTRACT: note_off channel=0 note=53 velocity=95 time=0
EXTRACT: note_off channel=0 note=48 velocity=95 time=0
EXTRACT: note_on channel=0 note=69 velocity=95 time=0
EXTRACT: note_on channel=0 note=65 velocity=95 time=0
EXTRACT: note_on channel=0 note=60 velocity=95 time=0
EXTRACT: note_on channel=0 note=53 velocity=95 time=0
EXTRACT: note_on channel=0 note=48 velocity=95 time=0
EXTRACT: note_off channel=2 note=69 velocity=95 time=0
EXTRACT: note_off channel=2 note=65 velocity=95 time=0
EXTRACT: note_off channel=2 note=60 velocity=95 time=0
EXTRACT: note_off channel=2 note=53 velocity=95 time=0
EXTRACT: note_off channel=2 note=48 velocity=95 time=0
EXTRACT: note_on channel=2 note=69 velocity=95 time=0
EXTRACT: note_on channel=2 note=65 velocity=95 time=0
EXTRACT: note_on channel=2 note=60 velocity=95 time=0
EXTRACT: note_on channel=2 note=53 velocity=95 time=0
EXTRACT: note_on channel=2 note=48 velocity=95 time=0
EXTRACT: note_off channel=0 note=69 velocity=95 time=0.39999999999999997
EXTRACT: note_off channel=0 note=65 velocity=95 time=0
EXTRACT: note_off channel=0 note=60 velocity=95 time=0
EXTRACT: note_off channel=0 note=53 velocity=95 time=0
EXTRACT: note_off channel=0 note=48 velocity=95 time=0
EXTRACT: note_on channel=0 note=69 velocity=95 time=0
EXTRACT: note_on channel=0 note=65 velocity=95 time=0
EXTRACT: note_on channel=0 note=60 velocity=95 time=0
EXTRACT: note_on channel=0 note=53 velocity=95 time=0
EXTRACT: note_on channel=0 note=48 velocity=95 time=0
EXTRACT: note_off channel=2 note=69 velocity=95 time=0
EXTRACT: note_off channel=2 note=65 velocity=95 time=0
EXTRACT: note_off channel=2 note=60 velocity=95 time=0
EXTRACT: note_off channel=2 note=53 velocity=95 time=0
EXTRACT: note_off channel=2 note=48 velocity=95 time=0
EXTRACT: note_on channel=2 note=69 velocity=95 time=0
EXTRACT: note_on channel=2 note=65 velocity=95 time=0
EXTRACT: note_on channel=2 note=60 velocity=95 time=0
EXTRACT: note_on channel=2 note=53 velocity=95 time=0
EXTRACT: note_on channel=2 note=48 velocity=95 time=0
EXTRACT: note_off channel=0 note=69 velocity=95 time=0.39999999999999997
EXTRACT: note_off channel=0 note=65 velocity=95 time=0
EXTRACT: note_off channel=0 note=60 velocity=95 time=0
EXTRACT: note_off channel=0 note=53 velocity=95 time=0
EXTRACT: note_off channel=0 note=48 velocity=95 time=0
EXTRACT: note_on channel=0 note=69 velocity=95 time=0
EXTRACT: note_on channel=0 note=65 velocity=95 time=0
EXTRACT: note_on channel=0 note=60 velocity=95 time=0
EXTRACT: note_on channel=0 note=53 velocity=95 time=0
EXTRACT: note_on channel=0 note=48 velocity=95 time=0
EXTRACT: note_off channel=2 note=69 velocity=95 time=0
EXTRACT: note_off channel=2 note=65 velocity=95 time=0
EXTRACT: note_off channel=2 note=60 velocity=95 time=0
EXTRACT: note_off channel=2 note=53 velocity=95 time=0
EXTRACT: note_off channel=2 note=48 velocity=95 time=0
EXTRACT: note_on channel=2 note=69 velocity=95 time=0
EXTRACT: note_on channel=2 note=65 velocity=95 time=0
EXTRACT: note_on channel=2 note=60 velocity=95 time=0
EXTRACT: note_on channel=2 note=53 velocity=95 time=0
EXTRACT: note_on channel=2 note=48 velocity=95 time=0
EXTRACT: note_off channel=0 note=69 velocity=95 time=0.39999999999999997
EXTRACT: note_off channel=0 note=65 velocity=95 time=0
EXTRACT: note_off channel=0 note=60 velocity=95 time=0
EXTRACT: note_off channel=0 note=53 velocity=95 time=0
EXTRACT: note_off channel=0 note=48 velocity=95 time=0
EXTRACT: note_on channel=0 note=69 velocity=95 time=0
EXTRACT: note_on channel=0 note=65 velocity=95 time=0
EXTRACT: note_on channel=0 note=60 velocity=95 time=0
EXTRACT: note_on channel=0 note=53 velocity=95 time=0
EXTRACT: note_on channel=0 note=48 velocity=95 time=0
EXTRACT: note_off channel=2 note=69 velocity=95 time=0
EXTRACT: note_off channel=2 note=65 velocity=95 time=0
EXTRACT: note_off channel=2 note=60 velocity=95 time=0
EXTRACT: note_off channel=2 note=53 velocity=95 time=0
EXTRACT: note_off channel=2 note=48 velocity=95 time=0
EXTRACT: note_on channel=2 note=69 velocity=95 time=0
EXTRACT: note_on channel=2 note=65 velocity=95 time=0
EXTRACT: note_on channel=2 note=60 velocity=95 time=0
EXTRACT: note_on channel=2 note=53 velocity=95 time=0
EXTRACT: note_on channel=2 note=48 velocity=95 time=0
EXTRACT: note_off channel=0 note=69 velocity=95 time=0.39999999999999997
EXTRACT: note_off channel=0 note=65 velocity=95 time=0
EXTRACT: note_off channel=0 note=60 velocity=95 time=0
EXTRACT: note_off channel=0 note=53 velocity=95 time=0
EXTRACT: note_off channel=0 note=48 velocity=95 time=0
EXTRACT: note_on channel=0 note=69 velocity=95 time=0
EXTRACT: note_on channel=0 note=65 velocity=95 time=0
EXTRACT: note_on channel=0 note=60 velocity=95 time=0
EXTRACT: note_on channel=0 note=53 velocity=95 time=0
EXTRACT: note_on channel=0 note=48 velocity=95 time=0
EXTRACT: note_off channel=2 note=69 velocity=95 time=0
EXTRACT: note_off channel=2 note=65 velocity=95 time=0
EXTRACT: note_off channel=2 note=60 velocity=95 time=0
EXTRACT: note_off channel=2 note=53 velocity=95 time=0
EXTRACT: note_off channel=2 note=48 velocity=95 time=0
EXTRACT: note_on channel=2 note=69 velocity=95 time=0
EXTRACT: note_on channel=2 note=65 velocity=95 time=0
EXTRACT: note_on channel=2 note=60 velocity=95 time=0
EXTRACT: note_on channel=2 note=53 velocity=95 time=0
EXTRACT: note_on channel=2 note=48 velocity=95 time=0
EXTRACT: note_off channel=0 note=69 velocity=95 time=0.39999999999999997
EXTRACT: note_off channel=0 note=65 velocity=95 time=0
EXTRACT: note_off channel=0 note=60 velocity=95 time=0
EXTRACT: note_off channel=0 note=53 velocity=95 time=0
EXTRACT: note_off channel=0 note=48 velocity=95 time=0
EXTRACT: note_on channel=0 note=69 velocity=95 time=0
EXTRACT: note_on channel=0 note=65 velocity=95 time=0
EXTRACT: note_on channel=0 note=60 velocity=95 time=0
EXTRACT: note_on channel=0 note=53 velocity=95 time=0
EXTRACT: note_on channel=0 note=48 velocity=95 time=0
EXTRACT: note_off channel=2 note=69 velocity=95 time=0
EXTRACT: note_off channel=2 note=65 velocity=95 time=0
EXTRACT: note_off channel=2 note=60 velocity=95 time=0
EXTRACT: note_off channel=2 note=53 velocity=95 time=0
EXTRACT: note_off channel=2 note=48 velocity=95 time=0
EXTRACT: note_on channel=2 note=69 velocity=95 time=0
EXTRACT: note_on channel=2 note=65 velocity=95 time=0
EXTRACT: note_on channel=2 note=60 velocity=95 time=0
EXTRACT: note_on channel=2 note=53 velocity=95 time=0
EXTRACT: note_on channel=2 note=48 velocity=95 time=0
EXTRACT: note_off channel=11 note=60 velocity=95 time=0
EXTRACT: note_off channel=0 note=69 velocity=95 time=0.39999999999999997
EXTRACT: note_off channel=0 note=65 velocity=95 time=0
EXTRACT: note_off channel=0 note=60 velocity=95 time=0
EXTRACT: note_off channel=0 note=53 velocity=95 time=0
EXTRACT: note_off channel=0 note=48 velocity=95 time=0
EXTRACT: note_on channel=0 note=69 velocity=95 time=0
EXTRACT: note_on channel=0 note=65 velocity=95 time=0
EXTRACT: note_on channel=0 note=60 velocity=95 time=0
EXTRACT: note_on channel=0 note=53 velocity=95 time=0
EXTRACT: note_on channel=0 note=48 velocity=95 time=0
EXTRACT: note_off channel=2 note=69 velocity=95 time=0
EXTRACT: note_off channel=2 note=65 velocity=95 time=0
EXTRACT: note_off channel=2 note=60 velocity=95 time=0
EXTRACT: note_off channel=2 note=53 velocity=95 time=0
EXTRACT: note_off channel=2 note=48 velocity=95 time=0
EXTRACT: note_on channel=2 note=69 velocity=95 time=0
EXTRACT: note_on channel=2 note=65 velocity=95 time=0
EXTRACT: note_on channel=2 note=60 velocity=95 time=0
EXTRACT: note_on channel=2 note=53 velocity=95 time=0
EXTRACT: note_on channel=2 note=48 velocity=95 time=0
EXTRACT: note_off channel=0 note=69 velocity=95 time=0.39999999999999997
EXTRACT: note_off channel=0 note=65 velocity=95 time=0
EXTRACT: note_off channel=0 note=60 velocity=95 time=0
EXTRACT: note_off channel=0 note=53 velocity=95 time=0
EXTRACT: note_off channel=0 note=48 velocity=95 time=0
EXTRACT: note_on channel=0 note=67 velocity=95 time=0
EXTRACT: note_on channel=0 note=65 velocity=95 time=0
EXTRACT: note_on channel=0 note=60 velocity=95 time=0
EXTRACT: note_on channel=0 note=53 velocity=95 time=0
EXTRACT: note_on channel=0 note=48 velocity=95 time=0
EXTRACT: note_off channel=2 note=69 velocity=95 time=0
EXTRACT: note_off channel=2 note=65 velocity=95 time=0
EXTRACT: note_off channel=2 note=60 velocity=95 time=0
EXTRACT: note_off channel=2 note=53 velocity=95 time=0
EXTRACT: note_off channel=2 note=48 velocity=95 time=0
EXTRACT: note_on channel=2 note=67 velocity=95 time=0
EXTRACT: note_on channel=2 note=65 velocity=95 time=0
EXTRACT: note_on channel=2 note=60 velocity=95 time=0
EXTRACT: note_on channel=2 note=53 velocity=95 time=0
EXTRACT: note_on channel=2 note=48 velocity=95 time=0
EXTRACT: note_off channel=6 note=65 velocity=111 time=0
EXTRACT: note_off channel=6 note=60 velocity=111 time=0
EXTRACT: note_off channel=6 note=57 velocity=111 time=0
EXTRACT: note_off channel=6 note=53 velocity=111 time=0
EXTRACT: note_on channel=6 note=53 velocity=111 time=0
EXTRACT: note_on channel=6 note=55 velocity=111 time=0.006666666666666666
EXTRACT: note_on channel=6 note=60 velocity=111 time=0.006666666666666666
EXTRACT: note_on channel=6 note=65 velocity=111 time=0.006666666666666666
EXTRACT: note_off channel=0 note=67 velocity=95 time=0.37999999999999995
EXTRACT: note_off channel=0 note=65 velocity=95 time=0
EXTRACT: note_off channel=0 note=60 velocity=95 time=0
EXTRACT: note_off channel=0 note=53 velocity=95 time=0
EXTRACT: note_off channel=0 note=48 velocity=95 time=0
EXTRACT: note_on channel=0 note=67 velocity=95 time=0
EXTRACT: note_on channel=0 note=65 velocity=95 time=0
EXTRACT: note_on channel=0 note=60 velocity=95 time=0
EXTRACT: note_on channel=0 note=53 velocity=95 time=0
EXTRACT: note_on channel=0 note=48 velocity=95 time=0
EXTRACT: note_off channel=2 note=67 velocity=95 time=0
EXTRACT: note_off channel=2 note=65 velocity=95 time=0
EXTRACT: note_off channel=2 note=60 velocity=95 time=0
EXTRACT: note_off channel=2 note=53 velocity=95 time=0
EXTRACT: note_off channel=2 note=48 velocity=95 time=0
EXTRACT: note_on channel=2 note=67 velocity=95 time=0
EXTRACT: note_on channel=2 note=65 velocity=95 time=0
EXTRACT: note_on channel=2 note=60 velocity=95 time=0
EXTRACT: note_on channel=2 note=53 velocity=95 time=0
EXTRACT: note_on channel=2 note=48 velocity=95 time=0
EXTRACT: note_off channel=0 note=67 velocity=95 time=0.39999999999999997
EXTRACT: note_off channel=0 note=65 velocity=95 time=0
EXTRACT: note_off channel=0 note=60 velocity=95 time=0
EXTRACT: note_off channel=0 note=53 velocity=95 time=0
EXTRACT: note_off channel=0 note=48 velocity=95 time=0
EXTRACT: note_on channel=0 note=67 velocity=95 time=0
EXTRACT: note_on channel=0 note=65 velocity=95 time=0
EXTRACT: note_on channel=0 note=60 velocity=95 time=0
EXTRACT: note_on channel=0 note=53 velocity=95 time=0
EXTRACT: note_on channel=0 note=48 velocity=95 time=0
EXTRACT: note_off channel=2 note=67 velocity=95 time=0
EXTRACT: note_off channel=2 note=65 velocity=95 time=0
EXTRACT: note_off channel=2 note=60 velocity=95 time=0
EXTRACT: note_off channel=2 note=53 velocity=95 time=0
EXTRACT: note_off channel=2 note=48 velocity=95 time=0
EXTRACT: note_on channel=2 note=67 velocity=95 time=0
EXTRACT: note_on channel=2 note=65 velocity=95 time=0
EXTRACT: note_on channel=2 note=60 velocity=95 time=0
EXTRACT: note_on channel=2 note=53 velocity=95 time=0
EXTRACT: note_on channel=2 note=48 velocity=95 time=0
EXTRACT: note_off channel=0 note=67 velocity=95 time=0.39999999999999997
EXTRACT: note_off channel=0 note=65 velocity=95 time=0
EXTRACT: note_off channel=0 note=60 velocity=95 time=0
EXTRACT: note_off channel=0 note=53 velocity=95 time=0
EXTRACT: note_off channel=0 note=48 velocity=95 time=0
EXTRACT: note_on channel=0 note=67 velocity=95 time=0
EXTRACT: note_on channel=0 note=65 velocity=95 time=0
EXTRACT: note_on channel=0 note=60 velocity=95 time=0
EXTRACT: note_on channel=0 note=53 velocity=95 time=0
EXTRACT: note_on channel=0 note=48 velocity=95 time=0
EXTRACT: note_off channel=2 note=67 velocity=95 time=0
EXTRACT: note_off channel=2 note=65 velocity=95 time=0
EXTRACT: note_off channel=2 note=60 velocity=95 time=0
EXTRACT: note_off channel=2 note=53 velocity=95 time=0
EXTRACT: note_off channel=2 note=48 velocity=95 time=0
EXTRACT: note_on channel=2 note=67 velocity=95 time=0
EXTRACT: note_on channel=2 note=65 velocity=95 time=0
EXTRACT: note_on channel=2 note=60 velocity=95 time=0
EXTRACT: note_on channel=2 note=53 velocity=95 time=0
EXTRACT: note_on channel=2 note=48 velocity=95 time=0
EXTRACT: note_off channel=0 note=67 velocity=95 time=0.39999999999999997
EXTRACT: note_off channel=0 note=65 velocity=95 time=0
EXTRACT: note_off channel=0 note=60 velocity=95 time=0
EXTRACT: note_off channel=0 note=53 velocity=95 time=0
EXTRACT: note_off channel=0 note=48 velocity=95 time=0
EXTRACT: note_on channel=0 note=67 velocity=95 time=0
EXTRACT: note_on channel=0 note=65 velocity=95 time=0
EXTRACT: note_on channel=0 note=60 velocity=95 time=0
EXTRACT: note_on channel=0 note=53 velocity=95 time=0
EXTRACT: note_on channel=0 note=48 velocity=95 time=0
EXTRACT: note_off channel=2 note=67 velocity=95 time=0
EXTRACT: note_off channel=2 note=65 velocity=95 time=0
EXTRACT: note_off channel=2 note=60 velocity=95 time=0
EXTRACT: note_off channel=2 note=53 velocity=95 time=0
EXTRACT: note_off channel=2 note=48 velocity=95 time=0
EXTRACT: note_on channel=2 note=67 velocity=95 time=0
EXTRACT: note_on channel=2 note=65 velocity=95 time=0
EXTRACT: note_on channel=2 note=60 velocity=95 time=0
EXTRACT: note_on channel=2 note=53 velocity=95 time=0
EXTRACT: note_on channel=2 note=48 velocity=95 time=0
EXTRACT: note_off channel=0 note=67 velocity=95 time=0.39999999999999997
EXTRACT: note_off channel=0 note=65 velocity=95 time=0
EXTRACT: note_off channel=0 note=60 velocity=95 time=0
EXTRACT: note_off channel=0 note=53 velocity=95 time=0
EXTRACT: note_off channel=0 note=48 velocity=95 time=0
EXTRACT: note_on channel=0 note=67 velocity=95 time=0
EXTRACT: note_on channel=0 note=65 velocity=95 time=0
EXTRACT: note_on channel=0 note=60 velocity=95 time=0
EXTRACT: note_on channel=0 note=53 velocity=95 time=0
EXTRACT: note_on channel=0 note=48 velocity=95 time=0
EXTRACT: note_off channel=2 note=67 velocity=95 time=0
EXTRACT: note_off channel=2 note=65 velocity=95 time=0
EXTRACT: note_off channel=2 note=60 velocity=95 time=0
EXTRACT: note_off channel=2 note=53 velocity=95 time=0
EXTRACT: note_off channel=2 note=48 velocity=95 time=0
EXTRACT: note_on channel=2 note=67 velocity=95 time=0
EXTRACT: note_on channel=2 note=65 velocity=95 time=0
EXTRACT: note_on channel=2 note=60 velocity=95 time=0
EXTRACT: note_on channel=2 note=53 velocity=95 time=0
EXTRACT: note_on channel=2 note=48 velocity=95 time=0
EXTRACT: note_off channel=0 note=67 velocity=95 time=0.39999999999999997
EXTRACT: note_off channel=0 note=65 velocity=95 time=0
EXTRACT: note_off channel=0 note=60 velocity=95 time=0
EXTRACT: note_off channel=0 note=53 velocity=95 time=0
EXTRACT: note_off channel=0 note=48 velocity=95 time=0
EXTRACT: note_on channel=0 note=67 velocity=95 time=0
EXTRACT: note_on channel=0 note=65 velocity=95 time=0
EXTRACT: note_on channel=0 note=60 velocity=95 time=0
EXTRACT: note_on channel=0 note=53 velocity=95 time=0
EXTRACT: note_on channel=0 note=48 velocity=95 time=0
EXTRACT: note_off channel=2 note=67 velocity=95 time=0
EXTRACT: note_off channel=2 note=65 velocity=95 time=0
EXTRACT: note_off channel=2 note=60 velocity=95 time=0
EXTRACT: note_off channel=2 note=53 velocity=95 time=0
EXTRACT: note_off channel=2 note=48 velocity=95 time=0
EXTRACT: note_on channel=2 note=67 velocity=95 time=0
EXTRACT: note_on channel=2 note=65 velocity=95 time=0
EXTRACT: note_on channel=2 note=60 velocity=95 time=0
EXTRACT: note_on channel=2 note=53 velocity=95 time=0
EXTRACT: note_on channel=2 note=48 velocity=95 time=0
EXTRACT: note_off channel=0 note=67 velocity=95 time=0.39999999999999997
EXTRACT: note_off channel=0 note=65 velocity=95 time=0
EXTRACT: note_off channel=0 note=60 velocity=95 time=0
EXTRACT: note_off channel=0 note=53 velocity=95 time=0
EXTRACT: note_off channel=0 note=48 velocity=95 time=0
EXTRACT: note_on channel=0 note=67 velocity=95 time=0
EXTRACT: note_on channel=0 note=65 velocity=95 time=0
EXTRACT: note_on channel=0 note=60 velocity=95 time=0
EXTRACT: note_on channel=0 note=53 velocity=95 time=0
EXTRACT: note_on channel=0 note=48 velocity=95 time=0
EXTRACT: note_off channel=2 note=67 velocity=95 time=0
EXTRACT: note_off channel=2 note=65 velocity=95 time=0
EXTRACT: note_off channel=2 note=60 velocity=95 time=0
EXTRACT: note_off channel=2 note=53 velocity=95 time=0
EXTRACT: note_off channel=2 note=48 velocity=95 time=0
EXTRACT: note_on channel=2 note=67 velocity=95 time=0
EXTRACT: note_on channel=2 note=65 velocity=95 time=0
EXTRACT: note_on channel=2 note=60 velocity=95 time=0
EXTRACT: note_on channel=2 note=53 velocity=95 time=0
EXTRACT: note_on channel=2 note=48 velocity=95 time=0
EXTRACT: note_off channel=0 note=67 velocity=95 time=0.39999999999999997
EXTRACT: note_off channel=0 note=65 velocity=95 time=0
EXTRACT: note_off channel=0 note=60 velocity=95 time=0
EXTRACT: note_off channel=0 note=53 velocity=95 time=0
EXTRACT: note_off channel=0 note=48 velocity=95 time=0
EXTRACT: note_off channel=2 note=67 velocity=95 time=0
EXTRACT: note_off channel=2 note=65 velocity=95 time=0
EXTRACT: note_off channel=2 note=60 velocity=95 time=0
EXTRACT: note_off channel=2 note=53 velocity=95 time=0
EXTRACT: note_off channel=2 note=48 velocity=95 time=0
EXTRACT: note_on channel=2 note=69 velocity=95 time=0
EXTRACT: note_on channel=2 note=65 velocity=95 time=0
EXTRACT: note_on channel=2 note=62 velocity=95 time=0
EXTRACT: note_on channel=2 note=57 velocity=95 time=0
EXTRACT: note_on channel=2 note=50 velocity=95 time=0
EXTRACT: note_on channel=2 note=45 velocity=95 time=0
EXTRACT: note_off channel=6 note=65 velocity=111 time=0
EXTRACT: note_off channel=6 note=60 velocity=111 time=0
EXTRACT: note_off channel=6 note=55 velocity=111 time=0
EXTRACT: note_off channel=6 note=53 velocity=111 time=0
EXTRACT: note_on channel=6 note=69 velocity=127 time=0
EXTRACT: note_on channel=6 note=65 velocity=127 time=0
EXTRACT: note_on channel=6 note=62 velocity=127 time=0
EXTRACT: note_on channel=6 note=57 velocity=127 time=0
EXTRACT: note_on channel=6 note=50 velocity=127 time=0
EXTRACT: note_off channel=2 note=69 velocity=95 time=0.39999999999999997
EXTRACT: note_off channel=2 note=65 velocity=95 time=0
EXTRACT: note_off channel=2 note=62 velocity=95 time=0
EXTRACT: note_off channel=2 note=57 velocity=95 time=0
EXTRACT: note_off channel=2 note=50 velocity=95 time=0
EXTRACT: note_off channel=2 note=45 velocity=95 time=0
EXTRACT: note_on channel=2 note=69 velocity=95 time=0
EXTRACT: note_on channel=2 note=65 velocity=95 time=0
EXTRACT: note_on channel=2 note=62 velocity=95 time=0
EXTRACT: note_on channel=2 note=57 velocity=95 time=0
EXTRACT: note_on channel=2 note=50 velocity=95 time=0
EXTRACT: note_on channel=2 note=45 velocity=95 time=0
EXTRACT: note_off channel=2 note=69 velocity=95 time=0.39999999999999997
EXTRACT: note_off channel=2 note=65 velocity=95 time=0
EXTRACT: note_off channel=2 note=62 velocity=95 time=0
EXTRACT: note_off channel=2 note=57 velocity=95 time=0
EXTRACT: note_off channel=2 note=50 velocity=95 time=0
EXTRACT: note_off channel=2 note=45 velocity=95 time=0
EXTRACT: note_on channel=2 note=69 velocity=95 time=0
EXTRACT: note_on channel=2 note=65 velocity=95 time=0
EXTRACT: note_on channel=2 note=62 velocity=95 time=0
EXTRACT: note_on channel=2 note=57 velocity=95 time=0
EXTRACT: note_on channel=2 note=50 velocity=95 time=0
EXTRACT: note_on channel=2 note=45 velocity=95 time=0
EXTRACT: note_off channel=2 note=69 velocity=95 time=0.39999999999999997
EXTRACT: note_off channel=2 note=65 velocity=95 time=0
EXTRACT: note_off channel=2 note=62 velocity=95 time=0
EXTRACT: note_off channel=2 note=57 velocity=95 time=0
EXTRACT: note_off channel=2 note=50 velocity=95 time=0
EXTRACT: note_off channel=2 note=45 velocity=95 time=0
EXTRACT: note_on channel=2 note=69 velocity=95 time=0
EXTRACT: note_on channel=2 note=65 velocity=95 time=0
EXTRACT: note_on channel=2 note=62 velocity=95 time=0
EXTRACT: note_on channel=2 note=57 velocity=95 time=0
EXTRACT: note_on channel=2 note=50 velocity=95 time=0
EXTRACT: note_on channel=2 note=45 velocity=95 time=0
EXTRACT: note_off channel=2 note=69 velocity=95 time=0.39999999999999997
EXTRACT: note_off channel=2 note=65 velocity=95 time=0
EXTRACT: note_off channel=2 note=62 velocity=95 time=0
EXTRACT: note_off channel=2 note=57 velocity=95 time=0
EXTRACT: note_off channel=2 note=50 velocity=95 time=0
EXTRACT: note_off channel=2 note=45 velocity=95 time=0
EXTRACT: note_on channel=2 note=69 velocity=95 time=0
EXTRACT: note_on channel=2 note=65 velocity=95 time=0
EXTRACT: note_on channel=2 note=62 velocity=95 time=0
EXTRACT: note_on channel=2 note=57 velocity=95 time=0
EXTRACT: note_on channel=2 note=50 velocity=95 time=0
EXTRACT: note_on channel=2 note=45 velocity=95 time=0
EXTRACT: note_off channel=2 note=69 velocity=95 time=0.39999999999999997
EXTRACT: note_off channel=2 note=65 velocity=95 time=0
EXTRACT: note_off channel=2 note=62 velocity=95 time=0
EXTRACT: note_off channel=2 note=57 velocity=95 time=0
EXTRACT: note_off channel=2 note=50 velocity=95 time=0
EXTRACT: note_off channel=2 note=45 velocity=95 time=0
EXTRACT: note_on channel=2 note=69 velocity=95 time=0
EXTRACT: note_on channel=2 note=65 velocity=95 time=0
EXTRACT: note_on channel=2 note=62 velocity=95 time=0
EXTRACT: note_on channel=2 note=57 velocity=95 time=0
EXTRACT: note_on channel=2 note=50 velocity=95 time=0
EXTRACT: note_on channel=2 note=45 velocity=95 time=0
EXTRACT: note_off channel=2 note=69 velocity=95 time=0.39999999999999997
EXTRACT: note_off channel=2 note=65 velocity=95 time=0
EXTRACT: note_off channel=2 note=62 velocity=95 time=0
EXTRACT: note_off channel=2 note=57 velocity=95 time=0
EXTRACT: note_off channel=2 note=50 velocity=95 time=0
EXTRACT: note_off channel=2 note=45 velocity=95 time=0
EXTRACT: note_on channel=2 note=69 velocity=95 time=0
EXTRACT: note_on channel=2 note=65 velocity=95 time=0
EXTRACT: note_on channel=2 note=62 velocity=95 time=0
EXTRACT: note_on channel=2 note=57 velocity=95 time=0
EXTRACT: note_on channel=2 note=50 velocity=95 time=0
EXTRACT: note_on channel=2 note=45 velocity=95 time=0
EXTRACT: note_on channel=11 note=60 velocity=95 time=0
EXTRACT: note_off channel=2 note=69 velocity=95 time=0.39999999999999997
EXTRACT: note_off channel=2 note=65 velocity=95 time=0
EXTRACT: note_off channel=2 note=62 velocity=95 time=0
EXTRACT: note_off channel=2 note=57 velocity=95 time=0
EXTRACT: note_off channel=2 note=50 velocity=95 time=0
EXTRACT: note_off channel=2 note=45 velocity=95 time=0
EXTRACT: note_on channel=2 note=69 velocity=95 time=0
EXTRACT: note_on channel=2 note=65 velocity=95 time=0
EXTRACT: note_on channel=2 note=62 velocity=95 time=0
EXTRACT: note_on channel=2 note=57 velocity=95 time=0
EXTRACT: note_on channel=2 note=50 velocity=95 time=0
EXTRACT: note_on channel=2 note=45 velocity=95 time=0
EXTRACT: note_off channel=11 note=60 velocity=95 time=0
EXTRACT: note_on channel=11 note=69 velocity=95 time=0
EXTRACT: note_off channel=2 note=69 velocity=95 time=0.39999999999999997
EXTRACT: note_off channel=2 note=65 velocity=95 time=0
EXTRACT: note_off channel=2 note=62 velocity=95 time=0
EXTRACT: note_off channel=2 note=57 velocity=95 time=0
EXTRACT: note_off channel=2 note=50 velocity=95 time=0
EXTRACT: note_off channel=2 note=45 velocity=95 time=0
EXTRACT: note_on channel=2 note=70 velocity=95 time=0
EXTRACT: note_on channel=2 note=65 velocity=95 time=0
EXTRACT: note_on channel=2 note=62 velocity=95 time=0
EXTRACT: note_on channel=2 note=58 velocity=95 time=0
EXTRACT: note_on channel=2 note=53 velocity=95 time=0
EXTRACT: note_off channel=6 note=69 velocity=127 time=0
EXTRACT: note_off channel=6 note=65 velocity=127 time=0
EXTRACT: note_off channel=6 note=62 velocity=127 time=0
EXTRACT: note_off channel=6 note=57 velocity=127 time=0
EXTRACT: note_off channel=6 note=50 velocity=127 time=0
EXTRACT: note_on channel=6 note=70 velocity=127 time=0
EXTRACT: note_on channel=6 note=65 velocity=127 time=0
EXTRACT: note_on channel=6 note=62 velocity=127 time=0
EXTRACT: note_on channel=6 note=58 velocity=127 time=0
EXTRACT: note_on channel=6 note=53 velocity=127 time=0
EXTRACT: note_off channel=2 note=70 velocity=95 time=0.39999999999999997
EXTRACT: note_off channel=2 note=65 velocity=95 time=0
EXTRACT: note_off channel=2 note=62 velocity=95 time=0
EXTRACT: note_off channel=2 note=58 velocity=95 time=0
EXTRACT: note_off channel=2 note=53 velocity=95 time=0
EXTRACT: note_on channel=2 note=70 velocity=95 time=0
EXTRACT: note_on channel=2 note=65 velocity=95 time=0
EXTRACT: note_on channel=2 note=62 velocity=95 time=0
EXTRACT: note_on channel=2 note=58 velocity=95 time=0
EXTRACT: note_on channel=2 note=53 velocity=95 time=0
EXTRACT: note_off channel=2 note=70 velocity=95 time=0.39999999999999997
EXTRACT: note_off channel=2 note=65 velocity=95 time=0
EXTRACT: note_off channel=2 note=62 velocity=95 time=0
EXTRACT: note_off channel=2 note=58 velocity=95 time=0
EXTRACT: note_off channel=2 note=53 velocity=95 time=0
EXTRACT: note_on channel=2 note=70 velocity=95 time=0
EXTRACT: note_on channel=2 note=65 velocity=95 time=0
EXTRACT: note_on channel=2 note=62 velocity=95 time=0
EXTRACT: note_on channel=2 note=58 velocity=95 time=0
EXTRACT: note_on channel=2 note=53 velocity=95 time=0
EXTRACT: note_off channel=2 note=70 velocity=95 time=0.39999999999999997
EXTRACT: note_off channel=2 note=65 velocity=95 time=0
EXTRACT: note_off channel=2 note=62 velocity=95 time=0
EXTRACT: note_off channel=2 note=58 velocity=95 time=0
EXTRACT: note_off channel=2 note=53 velocity=95 time=0
EXTRACT: note_on channel=2 note=70 velocity=95 time=0
EXTRACT: note_on channel=2 note=65 velocity=95 time=0
EXTRACT: note_on channel=2 note=62 velocity=95 time=0
EXTRACT: note_on channel=2 note=58 velocity=95 time=0
EXTRACT: note_on channel=2 note=53 velocity=95 time=0
EXTRACT: note_off channel=2 note=70 velocity=95 time=0.39999999999999997
EXTRACT: note_off channel=2 note=65 velocity=95 time=0
EXTRACT: note_off channel=2 note=62 velocity=95 time=0
EXTRACT: note_off channel=2 note=58 velocity=95 time=0
EXTRACT: note_off channel=2 note=53 velocity=95 time=0
EXTRACT: note_on channel=2 note=70 velocity=95 time=0
EXTRACT: note_on channel=2 note=65 velocity=95 time=0
EXTRACT: note_on channel=2 note=62 velocity=95 time=0
EXTRACT: note_on channel=2 note=58 velocity=95 time=0
EXTRACT: note_on channel=2 note=53 velocity=95 time=0
EXTRACT: note_off channel=2 note=70 velocity=95 time=0.39999999999999997
EXTRACT: note_off channel=2 note=65 velocity=95 time=0
EXTRACT: note_off channel=2 note=62 velocity=95 time=0
EXTRACT: note_off channel=2 note=58 velocity=95 time=0
EXTRACT: note_off channel=2 note=53 velocity=95 time=0
EXTRACT: note_on channel=2 note=70 velocity=95 time=0
EXTRACT: note_on channel=2 note=65 velocity=95 time=0
EXTRACT: note_on channel=2 note=62 velocity=95 time=0
EXTRACT: note_on channel=2 note=58 velocity=95 time=0
EXTRACT: note_on channel=2 note=53 velocity=95 time=0
EXTRACT: note_off channel=11 note=69 velocity=95 time=0
EXTRACT: note_on channel=11 note=67 velocity=95 time=0
EXTRACT: note_off channel=2 note=70 velocity=95 time=0.39999999999999997
EXTRACT: note_off channel=2 note=65 velocity=95 time=0
EXTRACT: note_off channel=2 note=62 velocity=95 time=0
EXTRACT: note_off channel=2 note=58 velocity=95 time=0
EXTRACT: note_on channel=2 note=70 velocity=111 time=0
EXTRACT: note_on channel=2 note=65 velocity=95 time=0
EXTRACT: note_on channel=2 note=62 velocity=95 time=0
EXTRACT: note_on channel=2 note=58 velocity=95 time=0
EXTRACT: note_off channel=11 note=67 velocity=95 time=0
EXTRACT: note_on channel=11 note=65 velocity=95 time=0
EXTRACT: note_off channel=11 note=65 velocity=95 time=0.39999999999999997
EXTRACT: note_on channel=11 note=62 velocity=95 time=0
EXTRACT: note_off channel=2 note=70 velocity=111 time=0.39999999999999997
EXTRACT: note_on channel=2 note=70 velocity=95 time=0
EXTRACT: note_off channel=2 note=53 velocity=95 time=1.5999999999999999
EXTRACT: note_off channel=2 note=65 velocity=95 time=0
EXTRACT: note_off channel=2 note=62 velocity=95 time=0
EXTRACT: note_off channel=2 note=58 velocity=95 time=0
EXTRACT: note_off channel=2 note=70 velocity=95 time=0
EXTRACT: note_on channel=2 note=72 velocity=95 time=0
EXTRACT: note_off channel=11 note=62 velocity=95 time=0.39999999999999997
EXTRACT: note_on channel=11 note=67 velocity=95 time=0
EXTRACT: note_off channel=11 note=67 velocity=95 time=0.39999999999999997
EXTRACT: note_on channel=11 note=65 velocity=95 time=0
EXTRACT: note_off channel=11 note=65 velocity=95 time=0.39999999999999997
EXTRACT: note_on channel=11 note=62 velocity=95 time=0
EXTRACT: note_off channel=2 note=72 velocity=95 time=0.39999999999999997
EXTRACT: note_on channel=2 note=43 velocity=95 time=0
EXTRACT: note_off channel=6 note=70 velocity=127 time=0
EXTRACT: note_off channel=6 note=65 velocity=127 time=0
EXTRACT: note_off channel=6 note=62 velocity=127 time=0
EXTRACT: note_off channel=6 note=58 velocity=127 time=0
EXTRACT: note_off channel=6 note=53 velocity=127 time=0
EXTRACT: note_on channel=6 note=48 velocity=127 time=0
EXTRACT: note_off channel=11 note=62 velocity=95 time=0
EXTRACT: note_on channel=11 note=60 velocity=95 time=0
EXTRACT: note_on channel=2 note=48 velocity=95 time=0.049999999999999996
EXTRACT: note_on channel=6 note=53 velocity=127 time=0
EXTRACT: note_on channel=2 note=53 velocity=95 time=0.049999999999999996
EXTRACT: note_on channel=6 note=57 velocity=127 time=0
EXTRACT: note_on channel=2 note=60 velocity=111 time=0.049999999999999996
EXTRACT: note_on channel=6 note=60 velocity=127 time=0
EXTRACT: note_on channel=2 note=65 velocity=95 time=0.049999999999999996
EXTRACT: note_on channel=6 note=65 velocity=127 time=0
EXTRACT: note_on channel=2 note=69 velocity=95 time=0.049999999999999996
EXTRACT: note_off channel=11 note=60 velocity=95 time=2.15
EXTRACT: note_off channel=2 note=43 velocity=95 time=0.7999999999999999
EXTRACT: note_off channel=6 note=48 velocity=127 time=0
EXTRACT: note_off channel=2 note=69 velocity=95 time=3.1999999999999997
EXTRACT: note_off channel=2 note=65 velocity=95 time=0
EXTRACT: note_off channel=2 note=60 velocity=111 time=0
EXTRACT: note_off channel=2 note=53 velocity=95 time=0
EXTRACT: note_off channel=2 note=48 velocity=95 time=0
EXTRACT: note_off channel=6 note=65 velocity=127 time=0
EXTRACT: note_off channel=6 note=60 velocity=127 time=0
EXTRACT: note_off channel=6 note=57 velocity=127 time=0
EXTRACT: note_off channel=6 note=53 velocity=127 time=0
MUSIC71 - Coldplay_-_The_Scientist_Acustic.mid
INTERVALS71 - Coldplay_-_The_Scientist_Acustic.mid
unison0
2m0
2M144
3m528
3M336
4m1344
4M0
5m672
5M0
6m0
7m0
7M0