EXTRACT: sysex data=(126,127,9,1) time=0.16129025
EXTRACT: sysex data=(65,16,66,18,64,0,127,0,65) time=0
EXTRACT: sysex data=(65,16,66,18,64,1,48,5,10) time=0.05376341666666667
EXTRACT: control_change channel=0 control=7 value=110 time=1.2365585833333335
EXTRACT: control_change channel=0 control=10 value=83 time=0.010752683333333334
EXTRACT: control_change channel=0 control=0 value=0 time=0
EXTRACT: control_change channel=0 control=32 value=0 time=0.005376341666666667
EXTRACT: program_change channel=0 program=0 time=0.005376341666666667
EXTRACT: control_change channel=0 control=91 value=0 time=0.010752683333333334
EXTRACT: control_change channel=0 control=93 value=0 time=0.010752683333333334
EXTRACT: control_change channel=0 control=74 value=54 time=0.005376341666666667
EXTRACT: control_change channel=1 control=7 value=127 time=0.005376341666666667
EXTRACT: control_change channel=1 control=10 value=64 time=0.010752683333333334
EXTRACT: control_change channel=1 control=0 value=8 time=0
EXTRACT: control_change channel=1 control=32 value=0 time=0.005376341666666667
EXTRACT: program_change channel=1 program=80 time=0.005376341666666667
EXTRACT: control_change channel=1 control=91 value=0 time=0.010752683333333334
EXTRACT: control_change channel=1 control=93 value=127 time=0.010752683333333334
EXTRACT: control_change channel=2 control=7 value=90 time=0.010752683333333334
EXTRACT: control_change channel=2 control=10 value=57 time=0.010752683333333334
EXTRACT: control_change channel=2 control=0 value=0 time=0
EXTRACT: control_change channel=2 control=32 value=0 time=0.005376341666666667
EXTRACT: program_change channel=2 program=4 time=0.005376341666666667
EXTRACT: control_change channel=2 control=91 value=40 time=0.010752683333333334
EXTRACT: control_change channel=2 control=93 value=20 time=0.010752683333333334
EXTRACT: control_change channel=3 control=7 value=127 time=0.010752683333333334
EXTRACT: control_change channel=3 control=10 value=64 time=0.010752683333333334
EXTRACT: control_change channel=3 control=0 value=0 time=0
EXTRACT: control_change channel=3 control=32 value=0 time=0.005376341666666667
EXTRACT: program_change channel=3 program=73 time=0.005376341666666667
EXTRACT: control_change channel=3 control=91 value=60 time=0.010752683333333334
EXTRACT: control_change channel=3 control=93 value=10 time=0.010752683333333334
EXTRACT: control_change channel=4 control=7 value=115 time=0.010752683333333334
EXTRACT: control_change channel=4 control=10 value=64 time=0.010752683333333334
EXTRACT: control_change channel=4 control=0 value=0 time=0
EXTRACT: control_change channel=4 control=32 value=0 time=0.005376341666666667
EXTRACT: program_change channel=4 program=53 time=0.005376341666666667
EXTRACT: control_change channel=4 control=91 value=60 time=0.010752683333333334
EXTRACT: control_change channel=4 control=93 value=40 time=0.010752683333333334
EXTRACT: control_change channel=5 control=7 value=70 time=0.010752683333333334
EXTRACT: control_change channel=5 control=10 value=68 time=0.010752683333333334
EXTRACT: control_change channel=5 control=0 value=0 time=0
EXTRACT: control_change channel=5 control=32 value=0 time=0.005376341666666667
EXTRACT: program_change channel=5 program=16 time=0.005376341666666667
EXTRACT: control_change channel=5 control=91 value=50 time=0.010752683333333334
EXTRACT: control_change channel=5 control=93 value=64 time=0.005376341666666667
EXTRACT: control_change channel=5 control=74 value=90 time=0.005376341666666667
EXTRACT: control_change channel=5 control=76 value=70 time=0.005376341666666667
EXTRACT: control_change channel=5 control=77 value=20 time=0.005376341666666667
EXTRACT: control_change channel=5 control=78 value=20 time=0.010752683333333334
EXTRACT: control_change channel=5 control=1 value=64 time=0.010752683333333334
EXTRACT: control_change channel=6 control=7 value=80 time=0.021505366666666668
EXTRACT: control_change channel=6 control=10 value=57 time=0.010752683333333334
EXTRACT: control_change channel=6 control=0 value=0 time=0
EXTRACT: control_change channel=6 control=32 value=0 time=0.005376341666666667
EXTRACT: program_change channel=6 program=27 time=0.005376341666666667
EXTRACT: control_change channel=6 control=91 value=50 time=0.010752683333333334
EXTRACT: control_change channel=6 control=93 value=10 time=0.010752683333333334
EXTRACT: control_change channel=7 control=7 value=75 time=0.010752683333333334
EXTRACT: control_change channel=7 control=10 value=32 time=0.010752683333333334
EXTRACT: control_change channel=7 control=0 value=0 time=0
EXTRACT: control_change channel=7 control=32 value=0 time=0.005376341666666667
EXTRACT: program_change channel=7 program=30 time=0.005376341666666667
EXTRACT: control_change channel=7 control=91 value=30 time=0.010752683333333334
EXTRACT: control_change channel=7 control=93 value=0 time=0.010752683333333334
EXTRACT: control_change channel=7 control=74 value=74 time=0.005376341666666667
EXTRACT: control_change channel=8 control=7 value=70 time=0.005376341666666667
EXTRACT: control_change channel=8 control=10 value=95 time=0.010752683333333334
EXTRACT: control_change channel=8 control=0 value=0 time=0
EXTRACT: control_change channel=8 control=32 value=0 time=0.005376341666666667
EXTRACT: program_change channel=8 program=16 time=0.005376341666666667
EXTRACT: control_change channel=8 control=91 value=60 time=0.010752683333333334
EXTRACT: control_change channel=8 control=93 value=0 time=0.010752683333333334
EXTRACT: control_change channel=9 control=7 value=110 time=0.010752683333333334
EXTRACT: control_change channel=9 control=10 value=64 time=0.010752683333333334
EXTRACT: control_change channel=9 control=0 value=0 time=0
EXTRACT: control_change channel=9 control=32 value=0 time=0.005376341666666667
EXTRACT: program_change channel=9 program=16 time=0.005376341666666667
EXTRACT: control_change channel=9 control=91 value=60 time=0.010752683333333334
EXTRACT: control_change channel=9 control=93 value=0 time=0.010752683333333334
EXTRACT: control_change channel=10 control=7 value=30 time=0.0645161
EXTRACT: control_change channel=10 control=10 value=64 time=0.010752683333333334
EXTRACT: control_change channel=10 control=0 value=1 time=0
EXTRACT: control_change channel=10 control=32 value=0 time=0.005376341666666667
EXTRACT: program_change channel=10 program=16 time=0.005376341666666667
EXTRACT: control_change channel=10 control=91 value=60 time=0.010752683333333334
EXTRACT: control_change channel=10 control=93 value=0 time=0.010752683333333334
EXTRACT: control_change channel=10 control=76 value=80 time=0.010752683333333334
EXTRACT: control_change channel=10 control=77 value=20 time=0.010752683333333334
EXTRACT: control_change channel=10 control=1 value=30 time=0.010752683333333334
EXTRACT: control_change channel=10 control=78 value=30 time=0.010752683333333334
EXTRACT: control_change channel=15 control=121 value=0 time=0.08602146666666667
EXTRACT: pitchwheel channel=15 pitch=0 time=0.010752683333333334
EXTRACT: control_change channel=15 control=11 value=127 time=0.010752683333333334
EXTRACT: control_change channel=15 control=91 value=0 time=0.010752683333333334
EXTRACT: control_change channel=15 control=93 value=0 time=0.010752683333333334
EXTRACT: program_change channel=15 program=0 time=0.010752683333333334
EXTRACT: control_change channel=15 control=94 value=0 time=0.010752683333333334
EXTRACT: note_on channel=9 note=42 velocity=84 time=0.2580644
EXTRACT: note_on channel=9 note=42 velocity=0 time=0.1290322
EXTRACT: note_on channel=9 note=42 velocity=64 time=0.5161288
EXTRACT: note_on channel=9 note=42 velocity=0 time=0.1290322
EXTRACT: note_on channel=9 note=42 velocity=64 time=0.5161288
EXTRACT: note_on channel=9 note=42 velocity=0 time=0.145161225
EXTRACT: note_on channel=9 note=42 velocity=64 time=0.49999977500000004
EXTRACT: note_on channel=9 note=42 velocity=0 time=0.11827951666666667
EXTRACT: note_on channel=2 note=57 velocity=109 time=0.5268814833333334
EXTRACT: control_change channel=5 control=11 value=127 time=0
EXTRACT: note_on channel=5 note=69 velocity=105 time=0
EXTRACT: note_on channel=5 note=73 velocity=97 time=0
EXTRACT: note_on channel=5 note=76 velocity=94 time=0
EXTRACT: note_on channel=10 note=69 velocity=100 time=0
EXTRACT: control_change channel=5 control=11 value=122 time=0.05376341666666667
EXTRACT: control_change channel=5 control=11 value=118 time=0.05376341666666667
EXTRACT: control_change channel=5 control=11 value=114 time=0.05376341666666667
EXTRACT: control_change channel=5 control=11 value=110 time=0.05376341666666667
EXTRACT: control_change channel=5 control=11 value=106 time=0.05376341666666667
EXTRACT: note_on channel=3 note=69 velocity=109 time=0.05376341666666667
EXTRACT: control_change channel=5 control=11 value=102 time=0
EXTRACT: control_change channel=5 control=11 value=98 time=0.05376341666666667
EXTRACT: control_change channel=5 control=11 value=94 time=0.05376341666666667
EXTRACT: control_change channel=5 control=11 value=90 time=0.05376341666666667
EXTRACT: note_on channel=3 note=69 velocity=0 time=0.043010733333333336
EXTRACT: control_change channel=5 control=11 value=86 time=0.010752683333333334
EXTRACT: control_change channel=5 control=11 value=82 time=0.05376341666666667
EXTRACT: note_on channel=5 note=69 velocity=0 time=0.048387075
EXTRACT: note_on channel=5 note=73 velocity=0 time=0
EXTRACT: note_on channel=2 note=57 velocity=0 time=0
EXTRACT: note_on channel=5 note=76 velocity=0 time=0
EXTRACT: note_on channel=2 note=57 velocity=107 time=0.005376341666666667
EXTRACT: note_on channel=3 note=69 velocity=106 time=0
EXTRACT: control_change channel=5 control=11 value=74 time=0
EXTRACT: note_on channel=5 note=69 velocity=102 time=0
EXTRACT: note_on channel=5 note=73 velocity=87 time=0
EXTRACT: note_on channel=5 note=76 velocity=93 time=0
EXTRACT: control_change channel=5 control=11 value=127 time=0
EXTRACT: control_change channel=5 control=11 value=122 time=0.05376341666666667
EXTRACT: control_change channel=5 control=11 value=118 time=0.05376341666666667
EXTRACT: control_change channel=5 control=11 value=114 time=0.05376341666666667
EXTRACT: note_on channel=3 note=69 velocity=0 time=0.010752683333333334
EXTRACT: control_change channel=5 control=11 value=110 time=0.043010733333333336
EXTRACT: control_change channel=5 control=11 value=106 time=0.05376341666666667
EXTRACT: note_on channel=3 note=69 velocity=107 time=0.05376341666666667
EXTRACT: control_change channel=5 control=11 value=102 time=0
EXTRACT: control_change channel=5 control=11 value=98 time=0.05376341666666667
EXTRACT: note_on channel=3 note=69 velocity=0 time=0.048387075
EXTRACT: control_change channel=5 control=11 value=94 time=0.005376341666666667
EXTRACT: note_on channel=3 note=69 velocity=112 time=0.05376341666666667
EXTRACT: control_change channel=5 control=11 value=90 time=0
EXTRACT: control_change channel=5 control=11 value=86 time=0.05376341666666667
EXTRACT: control_change channel=5 control=11 value=82 time=0.05376341666666667
EXTRACT: note_on channel=5 note=76 velocity=0 time=0.048387075
EXTRACT: note_on channel=5 note=73 velocity=0 time=0
EXTRACT: note_on channel=5 note=69 velocity=0 time=0
EXTRACT: note_on channel=2 note=57 velocity=0 time=0
EXTRACT: note_on channel=2 note=57 velocity=105 time=0.005376341666666667
EXTRACT: note_on channel=5 note=69 velocity=102 time=0
EXTRACT: note_on channel=5 note=73 velocity=88 time=0
EXTRACT: note_on channel=5 note=76 velocity=86 time=0
EXTRACT: control_change channel=5 control=11 value=74 time=0
EXTRACT: control_change channel=5 control=11 value=127 time=0
EXTRACT: control_change channel=5 control=11 value=122 time=0.05376341666666667
EXTRACT: control_change channel=5 control=11 value=118 time=0.05376341666666667
EXTRACT: note_on channel=3 note=69 velocity=0 time=0.03225805
EXTRACT: note_on channel=3 note=64 velocity=108 time=0.021505366666666668
EXTRACT: control_change channel=5 control=11 value=114 time=0
EXTRACT: control_change channel=5 control=11 value=110 time=0.05376341666666667
EXTRACT: control_change channel=5 control=11 value=106 time=0.05376341666666667
EXTRACT: control_change channel=5 control=11 value=102 time=0.05376341666666667
EXTRACT: control_change channel=5 control=11 value=98 time=0.05376341666666667
EXTRACT: note_on channel=3 note=64 velocity=0 time=0.03225805
EXTRACT: control_change channel=5 control=11 value=94 time=0.021505366666666668
EXTRACT: note_on channel=3 note=64 velocity=107 time=0.05376341666666667
EXTRACT: control_change channel=5 control=11 value=90 time=0
EXTRACT: control_change channel=5 control=11 value=86 time=0.05376341666666667
EXTRACT: control_change channel=5 control=11 value=82 time=0.05376341666666667
EXTRACT: note_on channel=5 note=76 velocity=0 time=0.048387075
EXTRACT: note_on channel=5 note=73 velocity=0 time=0
EXTRACT: note_on channel=5 note=69 velocity=0 time=0
EXTRACT: note_on channel=2 note=57 velocity=0 time=0
EXTRACT: note_on channel=2 note=57 velocity=103 time=0.005376341666666667
EXTRACT: note_on channel=5 note=69 velocity=111 time=0
EXTRACT: note_on channel=5 note=73 velocity=96 time=0
EXTRACT: note_on channel=5 note=76 velocity=94 time=0
EXTRACT: control_change channel=5 control=11 value=74 time=0
EXTRACT: control_change channel=5 control=11 value=127 time=0
EXTRACT: control_change channel=5 control=11 value=122 time=0.05376341666666667
EXTRACT: note_on channel=3 note=64 velocity=0 time=0.010752683333333334
EXTRACT: control_change channel=5 control=11 value=118 time=0.043010733333333336
EXTRACT: control_change channel=5 control=11 value=114 time=0.05376341666666667
EXTRACT: control_change channel=5 control=11 value=110 time=0.05376341666666667
EXTRACT: note_on channel=3 note=61 velocity=112 time=0.03225805
EXTRACT: control_change channel=5 control=11 value=106 time=0.021505366666666668
EXTRACT: control_change channel=5 control=11 value=102 time=0.05376341666666667
EXTRACT: control_change channel=5 control=11 value=98 time=0.05376341666666667
EXTRACT: control_change channel=5 control=11 value=94 time=0.05376341666666667
EXTRACT: note_on channel=3 note=61 velocity=0 time=0.05376341666666667
EXTRACT: control_change channel=5 control=11 value=90 time=0
EXTRACT: control_change channel=5 control=11 value=86 time=0.05376341666666667
EXTRACT: control_change channel=5 control=11 value=82 time=0.05376341666666667
EXTRACT: note_on channel=5 note=76 velocity=0 time=0.048387075
EXTRACT: note_on channel=5 note=69 velocity=0 time=0
EXTRACT: note_on channel=5 note=73 velocity=0 time=0
EXTRACT: note_on channel=2 note=57 velocity=0 time=0
EXTRACT: note_on channel=10 note=69 velocity=0 time=0.005376341666666667
EXTRACT: note_on channel=2 note=54 velocity=105 time=0
EXTRACT: note_on channel=3 note=66 velocity=116 time=0
EXTRACT: note_on channel=5 note=66 velocity=97 time=0
EXTRACT: note_on channel=5 note=69 velocity=107 time=0
EXTRACT: note_on channel=5 note=73 velocity=93 time=0
EXTRACT: control_change channel=5 control=11 value=74 time=0
EXTRACT: control_change channel=5 control=11 value=127 time=0
EXTRACT: note_on channel=10 note=66 velocity=100 time=0
EXTRACT: control_change channel=5 control=11 value=122 time=0.05376341666666667
EXTRACT: control_change channel=5 control=11 value=118 time=0.05376341666666667
EXTRACT: control_change channel=5 control=11 value=114 time=0.05376341666666667
EXTRACT: control_change channel=5 control=11 value=110 time=0.05376341666666667
EXTRACT: control_change channel=5 control=11 value=106 time=0.05376341666666667
EXTRACT: note_on channel=3 note=66 velocity=0 time=0.016129025
EXTRACT: note_on channel=3 note=66 velocity=106 time=0.03763439166666667
EXTRACT: control_change channel=5 control=11 value=102 time=0
EXTRACT: control_change channel=5 control=11 value=98 time=0.05376341666666667
EXTRACT: control_change channel=5 control=11 value=94 time=0.05376341666666667
EXTRACT: control_change channel=5 control=11 value=90 time=0.05376341666666667
EXTRACT: control_change channel=5 control=11 value=86 time=0.05376341666666667
EXTRACT: control_change channel=5 control=11 value=82 time=0.05376341666666667
EXTRACT: note_on channel=5 note=73 velocity=0 time=0.048387075
EXTRACT: note_on channel=2 note=54 velocity=0 time=0
EXTRACT: note_on channel=5 note=69 velocity=0 time=0
EXTRACT: note_on channel=5 note=66 velocity=0 time=0
EXTRACT: note_on channel=2 note=54 velocity=108 time=0.005376341666666667
EXTRACT: note_on channel=5 note=66 velocity=100 time=0
EXTRACT: note_on channel=5 note=69 velocity=109 time=0
EXTRACT: note_on channel=5 note=73 velocity=96 time=0
EXTRACT: control_change channel=5 control=11 value=74 time=0
EXTRACT: control_change channel=5 control=11 value=127 time=0
EXTRACT: control_change channel=5 control=11 value=122 time=0.05376341666666667
EXTRACT: control_change channel=5 control=11 value=118 time=0.05376341666666667
EXTRACT: control_change channel=5 control=11 value=114 time=0.05376341666666667
EXTRACT: control_change channel=5 control=11 value=110 time=0.05376341666666667
EXTRACT: control_change channel=5 control=11 value=106 time=0.05376341666666667
EXTRACT: note_on channel=3 note=66 velocity=0 time=0.03225805
EXTRACT: note_on channel=3 note=64 velocity=104 time=0.021505366666666668
EXTRACT: control_change channel=5 control=11 value=102 time=0
EXTRACT: control_change channel=5 control=11 value=98 time=0.05376341666666667
EXTRACT: control_change channel=5 control=11 value=94 time=0.05376341666666667
EXTRACT: note_on channel=3 note=64 velocity=0 time=0.005376341666666667
EXTRACT: note_on channel=3 note=61 velocity=101 time=0.048387075
EXTRACT: control_change channel=5 control=11 value=90 time=0
EXTRACT: control_change channel=5 control=11 value=86 time=0.05376341666666667
EXTRACT: control_change channel=5 control=11 value=82 time=0.05376341666666667
EXTRACT: note_on channel=5 note=73 velocity=0 time=0.048387075
EXTRACT: note_on channel=5 note=69 velocity=0 time=0
EXTRACT: note_on channel=5 note=66 velocity=0 time=0
EXTRACT: note_on channel=2 note=54 velocity=0 time=0
EXTRACT: note_on channel=2 note=54 velocity=112 time=0.005376341666666667
EXTRACT: note_on channel=5 note=66 velocity=97 time=0
EXTRACT: note_on channel=5 note=69 velocity=112 time=0
EXTRACT: note_on channel=5 note=73 velocity=83 time=0
EXTRACT: control_change channel=5 control=11 value=74 time=0
EXTRACT: control_change channel=5 control=11 value=127 time=0
EXTRACT: control_change channel=5 control=11 value=122 time=0.05376341666666667
EXTRACT: control_change channel=5 control=11 value=118 time=0.05376341666666667
EXTRACT: control_change channel=5 control=11 value=114 time=0.05376341666666667
EXTRACT: control_change channel=5 control=11 value=110 time=0.05376341666666667
EXTRACT: control_change channel=5 control=11 value=106 time=0.05376341666666667
EXTRACT: note_on channel=3 note=61 velocity=0 time=0.05376341666666667
EXTRACT: control_change channel=5 control=11 value=102 time=0
EXTRACT: control_change channel=5 control=11 value=98 time=0.05376341666666667
EXTRACT: control_change channel=5 control=11 value=94 time=0.05376341666666667
EXTRACT: control_change channel=5 control=11 value=90 time=0.05376341666666667
EXTRACT: control_change channel=5 control=11 value=86 time=0.05376341666666667
EXTRACT: control_change channel=5 control=11 value=82 time=0.05376341666666667
EXTRACT: note_on channel=2 note=54 velocity=0 time=0.048387075
EXTRACT: note_on channel=5 note=66 velocity=0 time=0
EXTRACT: note_on channel=5 note=69 velocity=0 time=0
EXTRACT: note_on channel=5 note=73 velocity=0 time=0
EXTRACT: note_on channel=2 note=54 velocity=114 time=0.005376341666666667
EXTRACT: note_on channel=5 note=66 velocity=94 time=0
EXTRACT: note_on channel=5 note=69 velocity=111 time=0
EXTRACT: note_on channel=5 note=73 velocity=93 time=0
EXTRACT: control_change channel=5 control=11 value=74 time=0
EXTRACT: control_change channel=5 control=11 value=127 time=0
EXTRACT: control_change channel=5 control=11 value=122 time=0.05376341666666667
EXTRACT: control_change channel=5 control=11 value=118 time=0.05376341666666667
EXTRACT: control_change channel=5 control=11 value=114 time=0.05376341666666667
EXTRACT: control_change channel=5 control=11 value=110 time=0.05376341666666667
EXTRACT: control_change channel=5 control=11 value=106 time=0.05376341666666667
EXTRACT: control_change channel=5 control=11 value=102 time=0.05376341666666667
EXTRACT: control_change channel=5 control=11 value=98 time=0.05376341666666667
EXTRACT: control_change channel=5 control=11 value=94 time=0.05376341666666667
EXTRACT: control_change channel=5 control=11 value=90 time=0.05376341666666667
EXTRACT: control_change channel=5 control=11 value=86 time=0.05376341666666667
EXTRACT: control_change channel=5 control=11 value=82 time=0.05376341666666667
EXTRACT: note_on channel=5 note=73 velocity=0 time=0.048387075
EXTRACT: note_on channel=5 note=66 velocity=0 time=0
EXTRACT: note_on channel=5 note=69 velocity=0 time=0
EXTRACT: note_on channel=2 note=54 velocity=0 time=0
EXTRACT: note_on channel=10 note=66 velocity=0 time=0.005376341666666667
EXTRACT: note_on channel=2 note=50 velocity=112 time=0
EXTRACT: note_on channel=5 note=66 velocity=93 time=0
EXTRACT: note_on channel=5 note=69 velocity=102 time=0
EXTRACT: note_on channel=5 note=74 velocity=99 time=0
EXTRACT: control_change channel=5 control=11 value=74 time=0
EXTRACT: control_change channel=5 control=11 value=127 time=0
EXTRACT: note_on channel=10 note=62 velocity=100 time=0
EXTRACT: control_change channel=5 control=11 value=122 time=0.05376341666666667
EXTRACT: control_change channel=5 control=11 value=118 time=0.05376341666666667
EXTRACT: control_change channel=5 control=11 value=114 time=0.05376341666666667
EXTRACT: control_change channel=5 control=11 value=110 time=0.05376341666666667
EXTRACT: control_change channel=5 control=11 value=106 time=0.05376341666666667
EXTRACT: control_change channel=5 control=11 value=102 time=0.05376341666666667
EXTRACT: control_change channel=5 control=11 value=98 time=0.05376341666666667
EXTRACT: control_change channel=5 control=11 value=94 time=0.05376341666666667
EXTRACT: control_change channel=5 control=11 value=90 time=0.05376341666666667
EXTRACT: control_change channel=5 control=11 value=86 time=0.05376341666666667
EXTRACT: control_change channel=5 control=11 value=82 time=0.05376341666666667
EXTRACT: note_on channel=5 note=74 velocity=0 time=0.048387075
EXTRACT: note_on channel=5 note=69 velocity=0 time=0
EXTRACT: note_on channel=2 note=50 velocity=0 time=0
EXTRACT: note_on channel=5 note=66 velocity=0 time=0
EXTRACT: note_on channel=2 note=50 velocity=112 time=0.005376341666666667
EXTRACT: note_on channel=3 note=62 velocity=109 time=0
EXTRACT: note_on channel=5 note=66 velocity=88 time=0
EXTRACT: note_on channel=5 note=69 velocity=104 time=0
EXTRACT: note_on channel=5 note=74 velocity=97 time=0
EXTRACT: control_change channel=5 control=11 value=74 time=0
EXTRACT: control_change channel=5 control=11 value=127 time=0
EXTRACT: control_change channel=5 control=11 value=122 time=0.05376341666666667
EXTRACT: note_on channel=3 note=62 velocity=0 time=0.043010733333333336
EXTRACT: control_change channel=5 control=11 value=118 time=0.010752683333333334
EXTRACT: note_on channel=3 note=62 velocity=98 time=0.05376341666666667
EXTRACT: control_change channel=5 control=11 value=114 time=0
EXTRACT: control_change channel=5 control=11 value=110 time=0.05376341666666667
EXTRACT: control_change channel=5 control=11 value=106 time=0.05376341666666667
EXTRACT: note_on channel=3 note=62 velocity=0 time=0.005376341666666667
EXTRACT: note_on channel=3 note=62 velocity=111 time=0.048387075
EXTRACT: control_change channel=5 control=11 value=102 time=0
EXTRACT: control_change channel=5 control=11 value=98 time=0.05376341666666667
EXTRACT: control_change channel=5 control=11 value=94 time=0.05376341666666667
EXTRACT: note_on channel=3 note=62 velocity=0 time=0.005376341666666667
EXTRACT: note_on channel=3 note=62 velocity=111 time=0.048387075
EXTRACT: control_change channel=5 control=11 value=90 time=0
EXTRACT: control_change channel=5 control=11 value=86 time=0.05376341666666667
EXTRACT: note_on channel=3 note=62 velocity=0 time=0.010752683333333334
EXTRACT: control_change channel=5 control=11 value=82 time=0.043010733333333336
EXTRACT: note_on channel=5 note=74 velocity=0 time=0.048387075
EXTRACT: note_on channel=5 note=66 velocity=0 time=0
EXTRACT: note_on channel=5 note=69 velocity=0 time=0
EXTRACT: note_on channel=2 note=50 velocity=0 time=0
EXTRACT: note_on channel=2 note=50 velocity=107 time=0.005376341666666667
EXTRACT: note_on channel=3 note=64 velocity=110 time=0
EXTRACT: note_on channel=5 note=66 velocity=92 time=0
EXTRACT: note_on channel=5 note=69 velocity=107 time=0
EXTRACT: note_on channel=5 note=74 velocity=97 time=0
EXTRACT: control_change channel=5 control=11 value=74 time=0
EXTRACT: control_change channel=5 control=11 value=127 time=0
EXTRACT: control_change channel=5 control=11 value=122 time=0.05376341666666667
EXTRACT: control_change channel=5 control=11 value=118 time=0.05376341666666667
EXTRACT: control_change channel=5 control=11 value=114 time=0.05376341666666667
EXTRACT: note_on channel=3 note=64 velocity=0 time=0.021505366666666668
EXTRACT: control_change channel=5 control=11 value=110 time=0.03225805
EXTRACT: control_change channel=5 control=11 value=106 time=0.05376341666666667
EXTRACT: note_on channel=3 note=66 velocity=110 time=0.05376341666666667
EXTRACT: control_change channel=5 control=11 value=102 time=0
EXTRACT: control_change channel=5 control=11 value=98 time=0.05376341666666667
EXTRACT: control_change channel=5 control=11 value=94 time=0.05376341666666667
EXTRACT: note_on channel=3 note=66 velocity=0 time=0.03225805
EXTRACT: note_on channel=3 note=64 velocity=108 time=0.021505366666666668
EXTRACT: control_change channel=5 control=11 value=90 time=0
EXTRACT: control_change channel=5 control=11 value=86 time=0.05376341666666667
EXTRACT: control_change channel=5 control=11 value=82 time=0.05376341666666667
EXTRACT: note_on channel=5 note=74 velocity=0 time=0.048387075
EXTRACT: note_on channel=5 note=69 velocity=0 time=0
EXTRACT: note_on channel=5 note=66 velocity=0 time=0
EXTRACT: note_on channel=2 note=50 velocity=0 time=0
EXTRACT: note_on channel=2 note=50 velocity=109 time=0.005376341666666667
EXTRACT: note_on channel=5 note=66 velocity=97 time=0
EXTRACT: note_on channel=5 note=69 velocity=109 time=0
EXTRACT: note_on channel=5 note=74 velocity=102 time=0
EXTRACT: control_change channel=5 control=11 value=74 time=0
EXTRACT: control_change channel=5 control=11 value=127 time=0
EXTRACT: control_change channel=5 control=11 value=122 time=0.05376341666666667
EXTRACT: control_change channel=5 control=11 value=118 time=0.05376341666666667
EXTRACT: control_change channel=5 control=11 value=114 time=0.05376341666666667
EXTRACT: control_change channel=5 control=11 value=110 time=0.05376341666666667
EXTRACT: control_change channel=5 control=11 value=106 time=0.05376341666666667
EXTRACT: control_change channel=5 control=11 value=102 time=0.05376341666666667
EXTRACT: control_change channel=5 control=11 value=98 time=0.05376341666666667
EXTRACT: control_change channel=5 control=11 value=94 time=0.05376341666666667
EXTRACT: note_on channel=3 note=64 velocity=0 time=0.03763439166666667
EXTRACT: control_change channel=5 control=11 value=90 time=0.016129025
EXTRACT: control_change channel=5 control=11 value=86 time=0.05376341666666667
EXTRACT: control_change channel=5 control=11 value=82 time=0.05376341666666667
EXTRACT: note_on channel=2 note=50 velocity=0 time=0.048387075
EXTRACT: note_on channel=5 note=66 velocity=0 time=0
EXTRACT: note_on channel=5 note=69 velocity=0 time=0
EXTRACT: note_on channel=5 note=74 velocity=0 time=0
EXTRACT: note_on channel=10 note=62 velocity=0 time=0.005376341666666667
EXTRACT: note_on channel=2 note=52 velocity=109 time=0
EXTRACT: note_on channel=5 note=64 velocity=88 time=0
EXTRACT: note_on channel=5 note=68 velocity=93 time=0
EXTRACT: note_on channel=5 note=71 velocity=98 time=0
EXTRACT: control_change channel=5 control=11 value=74 time=0
EXTRACT: control_change channel=5 control=11 value=127 time=0
EXTRACT: note_on channel=10 note=64 velocity=100 time=0
EXTRACT: control_change channel=5 control=11 value=122 time=0.05376341666666667
EXTRACT: control_change channel=5 control=11 value=118 time=0.05376341666666667
EXTRACT: control_change channel=5 control=11 value=114 time=0.05376341666666667
EXTRACT: control_change channel=5 control=11 value=110 time=0.05376341666666667
EXTRACT: control_change channel=5 control=11 value=106 time=0.05376341666666667
EXTRACT: control_change channel=5 control=11 value=102 time=0.05376341666666667
EXTRACT: control_change channel=5 control=11 value=98 time=0.05376341666666667
EXTRACT: control_change channel=5 control=11 value=94 time=0.05376341666666667
EXTRACT: control_change channel=5 control=11 value=90 time=0.05376341666666667
EXTRACT: control_change channel=5 control=11 value=86 time=0.05376341666666667
EXTRACT: control_change channel=5 control=11 value=82 time=0.05376341666666667
EXTRACT: note_on channel=5 note=71 velocity=0 time=0.048387075
EXTRACT: note_on channel=5 note=68 velocity=0 time=0
EXTRACT: note_on channel=2 note=52 velocity=0 time=0
EXTRACT: note_on channel=5 note=64 velocity=0 time=0
EXTRACT: note_on channel=2 note=52 velocity=111 time=0.005376341666666667
EXTRACT: note_on channel=3 note=64 velocity=111 time=0
EXTRACT: note_on channel=5 note=64 velocity=75 time=0
EXTRACT: note_on channel=5 note=68 velocity=81 time=0
EXTRACT: note_on channel=5 note=71 velocity=96 time=0
EXTRACT: note_on channel=5 note=76 velocity=81 time=0
EXTRACT: control_change channel=5 control=11 value=74 time=0
EXTRACT: control_change channel=5 control=11 value=127 time=0
EXTRACT: control_change channel=5 control=11 value=122 time=0.05376341666666667
EXTRACT: control_change channel=5 control=11 value=118 time=0.05376341666666667
EXTRACT: note_on channel=3 note=64 velocity=0 time=0.010752683333333334
EXTRACT: note_on channel=3 note=64 velocity=107 time=0.043010733333333336
EXTRACT: control_change channel=5 control=11 value=114 time=0
EXTRACT: control_change channel=5 control=11 value=110 time=0.05376341666666667
EXTRACT: control_change channel=5 control=11 value=106 time=0.05376341666666667
EXTRACT: note_on channel=3 note=64 velocity=0 time=0.005376341666666667
EXTRACT: note_on channel=3 note=64 velocity=109 time=0.048387075
EXTRACT: control_change channel=5 control=11 value=102 time=0
EXTRACT: control_change channel=5 control=11 value=98 time=0.05376341666666667
EXTRACT: control_change channel=5 control=11 value=94 time=0.05376341666666667
EXTRACT: note_on channel=3 note=64 velocity=0 time=0.010752683333333334
EXTRACT: note_on channel=3 note=64 velocity=107 time=0.043010733333333336
EXTRACT: control_change channel=5 control=11 value=90 time=0
EXTRACT: control_change channel=5 control=11 value=86 time=0.05376341666666667
EXTRACT: note_on channel=3 note=64 velocity=0 time=0.043010733333333336
EXTRACT: control_change channel=5 control=11 value=82 time=0.010752683333333334
EXTRACT: note_on channel=5 note=76 velocity=0 time=0.048387075
EXTRACT: note_on channel=2 note=52 velocity=0 time=0
EXTRACT: note_on channel=5 note=64 velocity=0 time=0
EXTRACT: note_on channel=5 note=68 velocity=0 time=0
EXTRACT: note_on channel=5 note=71 velocity=0 time=0
EXTRACT: note_on channel=2 note=52 velocity=108 time=0.005376341666666667
EXTRACT: note_on channel=3 note=64 velocity=110 time=0
EXTRACT: note_on channel=5 note=64 velocity=93 time=0
EXTRACT: note_on channel=5 note=68 velocity=84 time=0
EXTRACT: note_on channel=5 note=71 velocity=104 time=0
EXTRACT: note_on channel=5 note=76 velocity=81 time=0
EXTRACT: control_change channel=5 control=11 value=74 time=0
EXTRACT: control_change channel=5 control=11 value=127 time=0
EXTRACT: control_change channel=5 control=11 value=122 time=0.05376341666666667
EXTRACT: control_change channel=5 control=11 value=118 time=0.05376341666666667
EXTRACT: control_change channel=5 control=11 value=114 time=0.05376341666666667
EXTRACT: control_change channel=5 control=11 value=110 time=0.05376341666666667
EXTRACT: note_on channel=3 note=64 velocity=0 time=0.016129025
EXTRACT: control_change channel=5 control=11 value=106 time=0.03763439166666667
EXTRACT: note_on channel=3 note=64 velocity=107 time=0.05376341666666667
EXTRACT: control_change channel=5 control=11 value=102 time=0
EXTRACT: control_change channel=5 control=11 value=98 time=0.05376341666666667
EXTRACT: control_change channel=5 control=11 value=94 time=0.05376341666666667
EXTRACT: note_on channel=3 note=64 velocity=0 time=0.05376341666666667
EXTRACT: note_on channel=3 note=62 velocity=106 time=0
EXTRACT: control_change channel=5 control=11 value=90 time=0
EXTRACT: control_change channel=5 control=11 value=86 time=0.05376341666666667
EXTRACT: control_change channel=5 control=11 value=82 time=0.05376341666666667
EXTRACT: note_on channel=5 note=76 velocity=0 time=0.048387075
EXTRACT: note_on channel=5 note=68 velocity=0 time=0
EXTRACT: note_on channel=2 note=52 velocity=0 time=0
EXTRACT: note_on channel=5 note=64 velocity=0 time=0
EXTRACT: note_on channel=5 note=71 velocity=0 time=0
EXTRACT: note_on channel=2 note=52 velocity=109 time=0.005376341666666667
EXTRACT: note_on channel=5 note=64 velocity=96 time=0
EXTRACT: note_on channel=5 note=68 velocity=92 time=0
EXTRACT: note_on channel=5 note=71 velocity=104 time=0
EXTRACT: note_on channel=5 note=76 velocity=93 time=0
EXTRACT: control_change channel=5 control=11 value=74 time=0
EXTRACT: control_change channel=5 control=11 value=127 time=0
EXTRACT: control_change channel=5 control=11 value=122 time=0.05376341666666667
EXTRACT: control_change channel=5 control=11 value=118 time=0.05376341666666667
EXTRACT: control_change channel=5 control=11 value=114 time=0.05376341666666667
EXTRACT: control_change channel=5 control=11 value=110 time=0.05376341666666667
EXTRACT: control_change channel=5 control=11 value=106 time=0.05376341666666667
EXTRACT: note_on channel=3 note=62 velocity=0 time=0.048387075
EXTRACT: note_on channel=3 note=61 velocity=114 time=0.005376341666666667
EXTRACT: control_change channel=5 control=11 value=102 time=0
EXTRACT: control_change channel=5 control=11 value=98 time=0.05376341666666667
EXTRACT: control_change channel=5 control=11 value=94 time=0.05376341666666667
EXTRACT: control_change channel=5 control=11 value=90 time=0.05376341666666667
EXTRACT: control_change channel=5 control=11 value=86 time=0.05376341666666667
EXTRACT: control_change channel=5 control=11 value=82 time=0.05376341666666667
EXTRACT: note_on channel=5 note=71 velocity=0 time=0.048387075
EXTRACT: note_on channel=5 note=68 velocity=0 time=0
EXTRACT: note_on channel=2 note=52 velocity=0 time=0
EXTRACT: note_on channel=5 note=64 velocity=0 time=0
EXTRACT: note_on channel=5 note=76 velocity=0 time=0
EXTRACT: note_on channel=10 note=64 velocity=0 time=0.005376341666666667
EXTRACT: note_on channel=2 note=57 velocity=109 time=0
EXTRACT: note_on channel=5 note=69 velocity=107 time=0
EXTRACT: note_on channel=5 note=73 velocity=100 time=0
EXTRACT: note_on channel=5 note=76 velocity=94 time=0
EXTRACT: control_change channel=5 control=11 value=74 time=0
EXTRACT: control_change channel=5 control=11 value=127 time=0
EXTRACT: note_on channel=10 note=69 velocity=100 time=0
EXTRACT: note_on channel=3 note=61 velocity=0 time=0.005376341666666667
EXTRACT: control_change channel=5 control=11 value=122 time=0.048387075
EXTRACT: control_change channel=5 control=11 value=118 time=0.05376341666666667
EXTRACT: control_change channel=5 control=11 value=114 time=0.05376341666666667
EXTRACT: control_change channel=5 control=11 value=110 time=0.05376341666666667
EXTRACT: control_change channel=5 control=11 value=106 time=0.05376341666666667
EXTRACT: note_on channel=3 note=69 velocity=112 time=0.05376341666666667
EXTRACT: control_change channel=5 control=11 value=102 time=0
EXTRACT: control_change channel=5 control=11 value=98 time=0.05376341666666667
EXTRACT: control_change channel=5 control=11 value=94 time=0.05376341666666667
EXTRACT: control_change channel=5 control=11 value=90 time=0.05376341666666667
EXTRACT: control_change channel=5 control=11 value=86 time=0.05376341666666667
EXTRACT: note_on channel=3 note=69 velocity=0 time=0.010752683333333334
EXTRACT: control_change channel=5 control=11 value=82 time=0.043010733333333336
EXTRACT: note_on channel=5 note=69 velocity=0 time=0.048387075
EXTRACT: note_on channel=5 note=73 velocity=0 time=0
EXTRACT: note_on channel=2 note=57 velocity=0 time=0
EXTRACT: note_on channel=5 note=76 velocity=0 time=0
EXTRACT: note_on channel=2 note=57 velocity=109 time=0.005376341666666667
EXTRACT: note_on channel=3 note=69 velocity=105 time=0
EXTRACT: note_on channel=5 note=69 velocity=106 time=0
EXTRACT: note_on channel=5 note=73 velocity=100 time=0
EXTRACT: note_on channel=5 note=76 velocity=84 time=0
EXTRACT: control_change channel=5 control=11 value=74 time=0
EXTRACT: control_change channel=5 control=11 value=127 time=0
EXTRACT: control_change channel=5 control=11 value=122 time=0.05376341666666667
EXTRACT: note_on channel=3 note=69 velocity=0 time=0.05376341666666667
EXTRACT: control_change channel=5 control=11 value=118 time=0
EXTRACT: note_on channel=3 note=69 velocity=113 time=0.05376341666666667
EXTRACT: control_change channel=5 control=11 value=114 time=0
EXTRACT: control_change channel=5 control=11 value=110 time=0.05376341666666667
EXTRACT: note_on channel=3 note=69 velocity=0 time=0.043010733333333336
EXTRACT: control_change channel=5 control=11 value=106 time=0.010752683333333334
EXTRACT: note_on channel=3 note=69 velocity=106 time=0.05376341666666667
EXTRACT: control_change channel=5 control=11 value=102 time=0
EXTRACT: control_change channel=5 control=11 value=98 time=0.05376341666666667
EXTRACT: note_on channel=3 note=69 velocity=0 time=0.048387075
EXTRACT: control_change channel=5 control=11 value=94 time=0.005376341666666667
EXTRACT: note_on channel=3 note=69 velocity=116 time=0.05376341666666667
EXTRACT: control_change channel=5 control=11 value=90 time=0
EXTRACT: control_change channel=5 control=11 value=86 time=0.05376341666666667
EXTRACT: note_on channel=3 note=69 velocity=0 time=0.043010733333333336
EXTRACT: control_change channel=5 control=11 value=82 time=0.010752683333333334
EXTRACT: note_on channel=5 note=76 velocity=0 time=0.048387075
EXTRACT: note_on channel=5 note=69 velocity=0 time=0
EXTRACT: note_on channel=5 note=73 velocity=0 time=0
EXTRACT: note_on channel=2 note=57 velocity=0 time=0
EXTRACT: note_on channel=2 note=57 velocity=107 time=0.005376341666666667
EXTRACT: note_on channel=3 note=69 velocity=118 time=0
EXTRACT: note_on channel=5 note=69 velocity=106 time=0
EXTRACT: note_on channel=5 note=73 velocity=101 time=0
EXTRACT: note_on channel=5 note=76 velocity=92 time=0
EXTRACT: control_change channel=5 control=11 value=74 time=0
EXTRACT: control_change channel=5 control=11 value=127 time=0
EXTRACT: control_change channel=5 control=11 value=122 time=0.05376341666666667
EXTRACT: control_change channel=5 control=11 value=118 time=0.05376341666666667
EXTRACT: control_change channel=5 control=11 value=114 time=0.05376341666666667
EXTRACT: note_on channel=3 note=69 velocity=0 time=0.043010733333333336
EXTRACT: control_change channel=5 control=11 value=110 time=0.010752683333333334
EXTRACT: control_change channel=5 control=11 value=106 time=0.05376341666666667
EXTRACT: note_on channel=3 note=64 velocity=107 time=0.05376341666666667
EXTRACT: control_change channel=5 control=11 value=102 time=0
EXTRACT: control_change channel=5 control=11 value=98 time=0.05376341666666667
EXTRACT: note_on channel=3 note=64 velocity=0 time=0.05376341666666667
EXTRACT: control_change channel=5 control=11 value=94 time=0
EXTRACT: note_on channel=3 note=64 velocity=109 time=0.05376341666666667
EXTRACT: control_change channel=5 control=11 value=90 time=0
EXTRACT: control_change channel=5 control=11 value=86 time=0.05376341666666667
EXTRACT: control_change channel=5 control=11 value=82 time=0.05376341666666667
EXTRACT: note_on channel=5 note=76 velocity=0 time=0.048387075
EXTRACT: note_on channel=5 note=73 velocity=0 time=0
EXTRACT: note_on channel=5 note=69 velocity=0 time=0
EXTRACT: note_on channel=2 note=57 velocity=0 time=0
EXTRACT: note_on channel=2 note=57 velocity=112 time=0.005376341666666667
EXTRACT: note_on channel=5 note=69 velocity=107 time=0
EXTRACT: note_on channel=5 note=73 velocity=98 time=0
EXTRACT: note_on channel=5 note=76 velocity=92 time=0
EXTRACT: control_change channel=5 control=11 value=74 time=0
EXTRACT: control_change channel=5 control=11 value=127 time=0
EXTRACT: note_on channel=3 note=64 velocity=0 time=0.043010733333333336
EXTRACT: control_change channel=5 control=11 value=122 time=0.010752683333333334
EXTRACT: control_change channel=5 control=11 value=118 time=0.05376341666666667
EXTRACT: note_on channel=3 note=61 velocity=116 time=0.05376341666666667
EXTRACT: control_change channel=5 control=11 value=114 time=0
EXTRACT: control_change channel=5 control=11 value=110 time=0.05376341666666667
EXTRACT: control_change channel=5 control=11 value=106 time=0.05376341666666667
EXTRACT: control_change channel=5 control=11 value=102 time=0.05376341666666667
EXTRACT: note_on channel=3 note=61 velocity=0 time=0.043010733333333336
EXTRACT: control_change channel=5 control=11 value=98 time=0.010752683333333334
EXTRACT: control_change channel=5 control=11 value=94 time=0.05376341666666667
EXTRACT: note_on channel=3 note=66 velocity=107 time=0.05376341666666667
EXTRACT: control_change channel=5 control=11 value=90 time=0
EXTRACT: control_change channel=5 control=11 value=86 time=0.05376341666666667
EXTRACT: control_change channel=5 control=11 value=82 time=0.05376341666666667
EXTRACT: note_on channel=5 note=76 velocity=0 time=0.048387075
EXTRACT: note_on channel=5 note=73 velocity=0 time=0
EXTRACT: note_on channel=5 note=69 velocity=0 time=0
EXTRACT: note_on channel=2 note=57 velocity=0 time=0
EXTRACT: note_on channel=10 note=69 velocity=0 time=0.005376341666666667
EXTRACT: note_on channel=2 note=54 velocity=116 time=0
EXTRACT: note_on channel=5 note=66 velocity=96 time=0
EXTRACT: note_on channel=5 note=69 velocity=106 time=0
EXTRACT: note_on channel=5 note=73 velocity=85 time=0
EXTRACT: control_change channel=5 control=11 value=74 time=0
EXTRACT: control_change channel=5 control=11 value=127 time=0
EXTRACT: note_on channel=10 note=66 velocity=100 time=0
EXTRACT: control_change channel=5 control=11 value=122 time=0.05376341666666667
EXTRACT: note_on channel=3 note=66 velocity=0 time=0.005376341666666667
EXTRACT: control_change channel=5 control=11 value=118 time=0.048387075
EXTRACT: note_on channel=3 note=66 velocity=111 time=0.05376341666666667
EXTRACT: control_change channel=5 control=11 value=114 time=0
EXTRACT: control_change channel=5 control=11 value=110 time=0.05376341666666667
EXTRACT: control_change channel=5 control=11 value=106 time=0.05376341666666667
EXTRACT: control_change channel=5 control=11 value=102 time=0.05376341666666667
EXTRACT: control_change channel=5 control=11 value=98 time=0.05376341666666667
EXTRACT: control_change channel=5 control=11 value=94 time=0.05376341666666667
EXTRACT: control_change channel=5 control=11 value=90 time=0.05376341666666667
EXTRACT: control_change channel=5 control=11 value=86 time=0.05376341666666667
EXTRACT: control_change channel=5 control=11 value=82 time=0.05376341666666667
EXTRACT: note_on channel=5 note=73 velocity=0 time=0.048387075
EXTRACT: note_on channel=2 note=54 velocity=0 time=0
EXTRACT: note_on channel=5 note=69 velocity=0 time=0
EXTRACT: note_on channel=5 note=66 velocity=0 time=0
EXTRACT: note_on channel=2 note=54 velocity=119 time=0.005376341666666667
EXTRACT: note_on channel=5 note=66 velocity=94 time=0
EXTRACT: note_on channel=5 note=69 velocity=108 time=0
EXTRACT: note_on channel=5 note=73 velocity=94 time=0
EXTRACT: control_change channel=5 control=11 value=74 time=0
EXTRACT: control_change channel=5 control=11 value=127 time=0
EXTRACT: control_change channel=5 control=11 value=122 time=0.05376341666666667
EXTRACT: control_change channel=5 control=11 value=118 time=0.05376341666666667
EXTRACT: note_on channel=3 note=66 velocity=0 time=0.03225805
EXTRACT: note_on channel=3 note=64 velocity=108 time=0.021505366666666668
EXTRACT: control_change channel=5 control=11 value=114 time=0
EXTRACT: control_change channel=5 control=11 value=110 time=0.05376341666666667
EXTRACT: control_change channel=5 control=11 value=106 time=0.05376341666666667
EXTRACT: note_on channel=3 note=64 velocity=0 time=0.05376341666666667
EXTRACT: note_on channel=3 note=61 velocity=94 time=0
EXTRACT: control_change channel=5 control=11 value=102 time=0
EXTRACT: control_change channel=5 control=11 value=98 time=0.05376341666666667
EXTRACT: control_change channel=5 control=11 value=94 time=0.05376341666666667
EXTRACT: control_change channel=5 control=11 value=90 time=0.05376341666666667
EXTRACT: note_on channel=3 note=61 velocity=0 time=0.05376341666666667
EXTRACT: control_change channel=5 control=11 value=86 time=0
EXTRACT: control_change channel=5 control=11 value=82 time=0.05376341666666667
EXTRACT: note_on channel=2 note=54 velocity=0 time=0.048387075
EXTRACT: note_on channel=5 note=66 velocity=0 time=0
EXTRACT: note_on channel=5 note=69 velocity=0 time=0
EXTRACT: note_on channel=5 note=73 velocity=0 time=0
EXTRACT: note_on channel=2 note=54 velocity=112 time=0.005376341666666667
EXTRACT: note_on channel=5 note=66 velocity=93 time=0
EXTRACT: note_on channel=5 note=69 velocity=107 time=0
EXTRACT: note_on channel=5 note=73 velocity=85 time=0
EXTRACT: control_change channel=5 control=11 value=74 time=0
EXTRACT: control_change channel=5 control=11 value=127 time=0
EXTRACT: control_change channel=5 control=11 value=122 time=0.05376341666666667
EXTRACT: control_change channel=5 control=11 value=118 time=0.05376341666666667
EXTRACT: control_change channel=5 control=11 value=114 time=0.05376341666666667
EXTRACT: control_change channel=5 control=11 value=110 time=0.05376341666666667
EXTRACT: control_change channel=5 control=11 value=106 time=0.05376341666666667
EXTRACT: control_change channel=5 control=11 value=102 time=0.05376341666666667
EXTRACT: control_change channel=5 control=11 value=98 time=0.05376341666666667
EXTRACT: control_change channel=5 control=11 value=94 time=0.05376341666666667
EXTRACT: control_change channel=5 control=11 value=90 time=0.05376341666666667
EXTRACT: control_change channel=5 control=11 value=86 time=0.05376341666666667
EXTRACT: control_change channel=5 control=11 value=82 time=0.05376341666666667
EXTRACT: note_on channel=5 note=73 velocity=0 time=0.048387075
EXTRACT: note_on channel=5 note=66 velocity=0 time=0
EXTRACT: note_on channel=5 note=69 velocity=0 time=0
EXTRACT: note_on channel=2 note=54 velocity=0 time=0
EXTRACT: note_on channel=2 note=54 velocity=114 time=0.005376341666666667
EXTRACT: note_on channel=5 note=66 velocity=96 time=0
EXTRACT: note_on channel=5 note=69 velocity=109 time=0
EXTRACT: note_on channel=5 note=73 velocity=98 time=0
EXTRACT: control_change channel=5 control=11 value=74 time=0
EXTRACT: control_change channel=5 control=11 value=127 time=0
EXTRACT: control_change channel=5 control=11 value=122 time=0.05376341666666667
EXTRACT: control_change channel=5 control=11 value=118 time=0.05376341666666667
EXTRACT: control_change channel=5 control=11 value=114 time=0.05376341666666667
EXTRACT: control_change channel=5 control=11 value=110 time=0.05376341666666667
EXTRACT: control_change channel=5 control=11 value=106 time=0.05376341666666667
EXTRACT: control_change channel=5 control=11 value=102 time=0.05376341666666667
EXTRACT: control_change channel=5 control=11 value=98 time=0.05376341666666667
EXTRACT: control_change channel=5 control=11 value=94 time=0.05376341666666667
EXTRACT: control_change channel=5 control=11 value=90 time=0.05376341666666667
EXTRACT: control_change channel=5 control=11 value=86 time=0.05376341666666667
EXTRACT: control_change channel=5 control=11 value=82 time=0.05376341666666667
EXTRACT: note_on channel=5 note=73 velocity=0 time=0.048387075
EXTRACT: note_on channel=5 note=66 velocity=0 time=0
EXTRACT: note_on channel=5 note=69 velocity=0 time=0
EXTRACT: note_on channel=2 note=54 velocity=0 time=0
EXTRACT: note_on channel=10 note=66 velocity=0 time=0.005376341666666667
EXTRACT: note_on channel=2 note=50 velocity=110 time=0
EXTRACT: note_on channel=5 note=66 velocity=95 time=0
EXTRACT: note_on channel=5 note=69 velocity=106 time=0
EXTRACT: note_on channel=5 note=74 velocity=104 time=0
EXTRACT: control_change channel=5 control=11 value=74 time=0
EXTRACT: control_change channel=5 control=11 value=127 time=0
EXTRACT: note_on channel=10 note=62 velocity=100 time=0
EXTRACT: control_change channel=5 control=11 value=122 time=0.05376341666666667
EXTRACT: control_change channel=5 control=11 value=118 time=0.05376341666666667
EXTRACT: control_change channel=5 control=11 value=114 time=0.05376341666666667
EXTRACT: control_change channel=5 control=11 value=110 time=0.05376341666666667
EXTRACT: control_change channel=5 control=11 value=106 time=0.05376341666666667
EXTRACT: control_change channel=5 control=11 value=102 time=0.05376341666666667
EXTRACT: control_change channel=5 control=11 value=98 time=0.05376341666666667
EXTRACT: control_change channel=5 control=11 value=94 time=0.05376341666666667
EXTRACT: control_change channel=5 control=11 value=90 time=0.05376341666666667
EXTRACT: control_change channel=5 control=11 value=86 time=0.05376341666666667
EXTRACT: control_change channel=5 control=11 value=82 time=0.05376341666666667
EXTRACT: note_on channel=5 note=74 velocity=0 time=0.048387075
EXTRACT: note_on channel=5 note=69 velocity=0 time=0
EXTRACT: note_on channel=2 note=50 velocity=0 time=0
EXTRACT: note_on channel=5 note=66 velocity=0 time=0
EXTRACT: note_on channel=2 note=50 velocity=109 time=0.005376341666666667
EXTRACT: note_on channel=3 note=62 velocity=113 time=0
EXTRACT: note_on channel=5 note=66 velocity=94 time=0
EXTRACT: note_on channel=5 note=69 velocity=109 time=0
EXTRACT: note_on channel=5 note=74 velocity=105 time=0
EXTRACT: control_change channel=5 control=11 value=74 time=0
EXTRACT: control_change channel=5 control=11 value=127 time=0
EXTRACT: control_change channel=5 control=11 value=122 time=0.05376341666666667
EXTRACT: control_change channel=5 control=11 value=118 time=0.05376341666666667
EXTRACT: note_on channel=3 note=62 velocity=0 time=0.021505366666666668
EXTRACT: note_on channel=3 note=62 velocity=111 time=0.03225805
EXTRACT: control_change channel=5 control=11 value=114 time=0
EXTRACT: control_change channel=5 control=11 value=110 time=0.05376341666666667
EXTRACT: note_on channel=3 note=62 velocity=0 time=0.05376341666666667
EXTRACT: control_change channel=5 control=11 value=106 time=0
EXTRACT: note_on channel=3 note=62 velocity=112 time=0.05376341666666667
EXTRACT: control_change channel=5 control=11 value=102 time=0
EXTRACT: control_change channel=5 control=11 value=98 time=0.05376341666666667
EXTRACT: note_on channel=3 note=62 velocity=0 time=0.048387075
EXTRACT: control_change channel=5 control=11 value=94 time=0.005376341666666667
EXTRACT: note_on channel=3 note=62 velocity=107 time=0.05376341666666667
EXTRACT: control_change channel=5 control=11 value=90 time=0
EXTRACT: control_change channel=5 control=11 value=86 time=0.05376341666666667
EXTRACT: control_change channel=5 control=11 value=82 time=0.05376341666666667
EXTRACT: note_on channel=3 note=62 velocity=0 time=0.005376341666666667
EXTRACT: note_on channel=5 note=74 velocity=0 time=0.043010733333333336
EXTRACT: note_on channel=5 note=66 velocity=0 time=0
EXTRACT: note_on channel=5 note=69 velocity=0 time=0
EXTRACT: note_on channel=2 note=50 velocity=0 time=0
EXTRACT: note_on channel=10 note=62 velocity=0 time=0.005376341666666667
EXTRACT: note_on channel=2 note=57 velocity=108 time=0
EXTRACT: note_on channel=3 note=64 velocity=112 time=0
EXTRACT: note_on channel=5 note=64 velocity=98 time=0
EXTRACT: note_on channel=5 note=69 velocity=108 time=0
EXTRACT: note_on channel=5 note=73 velocity=97 time=0
EXTRACT: control_change channel=5 control=11 value=74 time=0
EXTRACT: control_change channel=5 control=11 value=127 time=0
EXTRACT: note_on channel=10 note=69 velocity=100 time=0
EXTRACT: control_change channel=5 control=11 value=122 time=0.05376341666666667
EXTRACT: control_change channel=5 control=11 value=118 time=0.05376341666666667
EXTRACT: control_change channel=5 control=11 value=114 time=0.05376341666666667
EXTRACT: control_change channel=5 control=11 value=110 time=0.05376341666666667
EXTRACT: note_on channel=3 note=64 velocity=0 time=0.03225805
EXTRACT: control_change channel=5 control=11 value=106 time=0.021505366666666668
EXTRACT: note_on channel=3 note=66 velocity=103 time=0.05376341666666667
EXTRACT: control_change channel=5 control=11 value=102 time=0
EXTRACT: control_change channel=5 control=11 value=98 time=0.05376341666666667
EXTRACT: control_change channel=5 control=11 value=94 time=0.05376341666666667
EXTRACT: note_on channel=3 note=66 velocity=0 time=0.021505366666666668
EXTRACT: note_on channel=3 note=64 velocity=106 time=0.03225805
EXTRACT: control_change channel=5 control=11 value=90 time=0
EXTRACT: control_change channel=5 control=11 value=86 time=0.05376341666666667
EXTRACT: control_change channel=5 control=11 value=82 time=0.05376341666666667
EXTRACT: note_on channel=5 note=64 velocity=0 time=0.048387075
EXTRACT: note_on channel=2 note=57 velocity=0 time=0
EXTRACT: note_on channel=5 note=69 velocity=0 time=0
EXTRACT: note_on channel=5 note=73 velocity=0 time=0
EXTRACT: note_on channel=2 note=57 velocity=112 time=0.005376341666666667
EXTRACT: note_on channel=5 note=64 velocity=94 time=0
EXTRACT: note_on channel=5 note=69 velocity=107 time=0
EXTRACT: note_on channel=5 note=73 velocity=93 time=0
EXTRACT: control_change channel=5 control=11 value=74 time=0
EXTRACT: control_change channel=5 control=11 value=127 time=0
EXTRACT: control_change channel=5 control=11 value=122 time=0.05376341666666667
EXTRACT: control_change channel=5 control=11 value=118 time=0.05376341666666667
EXTRACT: control_change channel=5 control=11 value=114 time=0.05376341666666667
EXTRACT: control_change channel=5 control=11 value=110 time=0.05376341666666667
EXTRACT: control_change channel=5 control=11 value=106 time=0.05376341666666667
EXTRACT: control_change channel=5 control=11 value=102 time=0.05376341666666667
EXTRACT: control_change channel=5 control=11 value=98 time=0.05376341666666667
EXTRACT: control_change channel=5 control=11 value=94 time=0.05376341666666667
EXTRACT: control_change channel=5 control=11 value=90 time=0.05376341666666667
EXTRACT: control_change channel=5 control=11 value=86 time=0.05376341666666667
EXTRACT: control_change channel=5 control=11 value=82 time=0.05376341666666667
EXTRACT: note_on channel=3 note=64 velocity=0 time=0.043010733333333336
EXTRACT: note_on channel=2 note=57 velocity=0 time=0.005376341666666667
EXTRACT: note_on channel=5 note=64 velocity=0 time=0
EXTRACT: note_on channel=5 note=69 velocity=0 time=0
EXTRACT: note_on channel=5 note=73 velocity=0 time=0
EXTRACT: note_on channel=10 note=69 velocity=0 time=0.005376341666666667
EXTRACT: note_on channel=2 note=50 velocity=108 time=0
EXTRACT: note_on channel=5 note=66 velocity=87 time=0
EXTRACT: note_on channel=5 note=69 velocity=101 time=0
EXTRACT: note_on channel=5 note=74 velocity=98 time=0
EXTRACT: control_change channel=5 control=11 value=74 time=0
EXTRACT: control_change channel=5 control=11 value=127 time=0
EXTRACT: note_on channel=10 note=62 velocity=100 time=0
EXTRACT: control_change channel=5 control=11 value=122 time=0.05376341666666667
EXTRACT: control_change channel=5 control=11 value=118 time=0.05376341666666667
EXTRACT: control_change channel=5 control=11 value=114 time=0.05376341666666667
EXTRACT: control_change channel=5 control=11 value=110 time=0.05376341666666667
EXTRACT: control_change channel=5 control=11 value=106 time=0.05376341666666667
EXTRACT: note_on channel=3 note=64 velocity=100 time=0.05376341666666667
EXTRACT: control_change channel=5 control=11 value=102 time=0
EXTRACT: control_change channel=5 control=11 value=98 time=0.05376341666666667
EXTRACT: control_change channel=5 control=11 value=94 time=0.05376341666666667
EXTRACT: note_on channel=3 note=64 velocity=0 time=0.010752683333333334
EXTRACT: note_on channel=3 note=64 velocity=111 time=0.043010733333333336
EXTRACT: control_change channel=5 control=11 value=90 time=0
EXTRACT: control_change channel=5 control=11 value=86 time=0.05376341666666667
EXTRACT: control_change channel=5 control=11 value=82 time=0.05376341666666667
EXTRACT: note_on channel=3 note=64 velocity=0 time=0.010752683333333334
EXTRACT: note_on channel=5 note=74 velocity=0 time=0.03763439166666667
EXTRACT: note_on channel=5 note=69 velocity=0 time=0
EXTRACT: note_on channel=2 note=50 velocity=0 time=0
EXTRACT: note_on channel=5 note=66 velocity=0 time=0
EXTRACT: note_on channel=2 note=50 velocity=109 time=0.005376341666666667
EXTRACT: note_on channel=3 note=64 velocity=107 time=0
EXTRACT: note_on channel=5 note=66 velocity=94 time=0
EXTRACT: note_on channel=5 note=69 velocity=107 time=0
EXTRACT: note_on channel=5 note=74 velocity=102 time=0
EXTRACT: control_change channel=5 control=11 value=74 time=0
EXTRACT: control_change channel=5 control=11 value=127 time=0
EXTRACT: control_change channel=5 control=11 value=122 time=0.05376341666666667
EXTRACT: control_change channel=5 control=11 value=118 time=0.05376341666666667
EXTRACT: control_change channel=5 control=11 value=114 time=0.05376341666666667
EXTRACT: note_on channel=3 note=64 velocity=0 time=0.043010733333333336
EXTRACT: control_change channel=5 control=11 value=110 time=0.010752683333333334
EXTRACT: control_change channel=5 control=11 value=106 time=0.05376341666666667
EXTRACT: note_on channel=3 note=64 velocity=106 time=0.05376341666666667
EXTRACT: control_change channel=5 control=11 value=102 time=0
EXTRACT: control_change channel=5 control=11 value=98 time=0.05376341666666667
EXTRACT: control_change channel=5 control=11 value=94 time=0.05376341666666667
EXTRACT: note_on channel=3 note=64 velocity=0 time=0.016129025
EXTRACT: note_on channel=3 note=64 velocity=107 time=0.03763439166666667
EXTRACT: control_change channel=5 control=11 value=90 time=0
EXTRACT: control_change channel=5 control=11 value=86 time=0.05376341666666667
EXTRACT: note_on channel=3 note=64 velocity=0 time=0.048387075
EXTRACT: control_change channel=5 control=11 value=82 time=0.005376341666666667
EXTRACT: note_on channel=2 note=50 velocity=0 time=0.048387075
EXTRACT: note_on channel=5 note=66 velocity=0 time=0
EXTRACT: note_on channel=5 note=69 velocity=0 time=0
EXTRACT: note_on channel=5 note=74 velocity=0 time=0
EXTRACT: note_on channel=10 note=62 velocity=0 time=0.005376341666666667
EXTRACT: note_on channel=2 note=52 velocity=107 time=0
EXTRACT: note_on channel=3 note=64 velocity=112 time=0
EXTRACT: note_on channel=5 note=68 velocity=100 time=0
EXTRACT: note_on channel=5 note=71 velocity=107 time=0
EXTRACT: note_on channel=5 note=76 velocity=98 time=0
EXTRACT: control_change channel=5 control=11 value=74 time=0
EXTRACT: control_change channel=5 control=11 value=127 time=0
EXTRACT: note_on channel=10 note=64 velocity=100 time=0
EXTRACT: control_change channel=5 control=11 value=122 time=0.05376341666666667
EXTRACT: control_change channel=5 control=11 value=118 time=0.05376341666666667
EXTRACT: control_change channel=5 control=11 value=114 time=0.05376341666666667
EXTRACT: note_on channel=3 note=64 velocity=0 time=0.043010733333333336
EXTRACT: control_change channel=5 control=11 value=110 time=0.010752683333333334
EXTRACT: control_change channel=5 control=11 value=106 time=0.05376341666666667
EXTRACT: note_on channel=3 note=64 velocity=113 time=0.05376341666666667
EXTRACT: control_change channel=5 control=11 value=102 time=0
EXTRACT: control_change channel=5 control=11 value=98 time=0.05376341666666667
EXTRACT: control_change channel=5 control=11 value=94 time=0.05376341666666667
EXTRACT: note_on channel=3 note=64 velocity=0 time=0.016129025
EXTRACT: note_on channel=3 note=62 velocity=109 time=0.03763439166666667
EXTRACT: control_change channel=5 control=11 value=90 time=0
EXTRACT: control_change channel=5 control=11 value=86 time=0.05376341666666667
EXTRACT: control_change channel=5 control=11 value=82 time=0.05376341666666667
EXTRACT: note_on channel=5 note=68 velocity=0 time=0.048387075
EXTRACT: note_on channel=2 note=52 velocity=0 time=0
EXTRACT: note_on channel=5 note=71 velocity=0 time=0
EXTRACT: note_on channel=5 note=76 velocity=0 time=0
EXTRACT: note_on channel=2 note=52 velocity=112 time=0.005376341666666667
EXTRACT: note_on channel=5 note=68 velocity=88 time=0
EXTRACT: note_on channel=5 note=71 velocity=112 time=0
EXTRACT: note_on channel=5 note=76 velocity=97 time=0
EXTRACT: control_change channel=5 control=11 value=74 time=0
EXTRACT: control_change channel=5 control=11 value=127 time=0
EXTRACT: control_change channel=5 control=11 value=122 time=0.05376341666666667
EXTRACT: control_change channel=5 control=11 value=118 time=0.05376341666666667
EXTRACT: control_change channel=5 control=11 value=114 time=0.05376341666666667
EXTRACT: control_change channel=5 control=11 value=110 time=0.05376341666666667
EXTRACT: control_change channel=5 control=11 value=106 time=0.05376341666666667
EXTRACT: note_on channel=3 note=62 velocity=0 time=0.026881708333333334
EXTRACT: note_on channel=3 note=61 velocity=111 time=0.026881708333333334
EXTRACT: control_change channel=5 control=11 value=102 time=0
EXTRACT: control_change channel=5 control=11 value=98 time=0.05376341666666667
EXTRACT: control_change channel=5 control=11 value=94 time=0.05376341666666667
EXTRACT: control_change channel=5 control=11 value=90 time=0.05376341666666667
EXTRACT: control_change channel=5 control=11 value=86 time=0.05376341666666667
EXTRACT: control_change channel=5 control=11 value=82 time=0.05376341666666667
EXTRACT: note_on channel=2 note=52 velocity=0 time=0.048387075
EXTRACT: note_on channel=5 note=71 velocity=0 time=0
EXTRACT: note_on channel=5 note=68 velocity=0 time=0
EXTRACT: note_on channel=5 note=76 velocity=0 time=0
EXTRACT: note_on channel=10 note=64 velocity=0 time=0.005376341666666667
EXTRACT: note_on channel=2 note=57 velocity=107 time=0
EXTRACT: note_on channel=3 note=69 velocity=115 time=0
EXTRACT: note_on channel=5 note=64 velocity=95 time=0
EXTRACT: note_on channel=5 note=69 velocity=102 time=0
EXTRACT: note_on channel=5 note=73 velocity=99 time=0
EXTRACT: control_change channel=5 control=11 value=74 time=0
EXTRACT: control_change channel=5 control=11 value=127 time=0
EXTRACT: note_on channel=10 note=69 velocity=100 time=0
EXTRACT: note_on channel=10 note=73 velocity=100 time=0
EXTRACT: note_on channel=10 note=76 velocity=100 time=0
EXTRACT: note_on channel=10 note=81 velocity=100 time=0
EXTRACT: note_on channel=3 note=61 velocity=0 time=0.021505366666666668
EXTRACT: control_change channel=5 control=11 value=122 time=0.03225805
EXTRACT: control_change channel=5 control=11 value=118 time=0.05376341666666667
EXTRACT: control_change channel=5 control=11 value=114 time=0.05376341666666667
EXTRACT: control_change channel=5 control=11 value=110 time=0.05376341666666667
EXTRACT: control_change channel=5 control=11 value=106 time=0.05376341666666667
EXTRACT: control_change channel=5 control=11 value=102 time=0.05376341666666667
EXTRACT: control_change channel=5 control=11 value=98 time=0.05376341666666667
EXTRACT: control_change channel=5 control=11 value=94 time=0.05376341666666667
EXTRACT: control_change channel=5 control=11 value=90 time=0.05376341666666667
EXTRACT: control_change channel=5 control=11 value=86 time=0.05376341666666667
EXTRACT: control_change channel=5 control=11 value=82 time=0.05376341666666667
EXTRACT: note_on channel=5 note=69 velocity=0 time=0.048387075
EXTRACT: note_on channel=2 note=57 velocity=0 time=0
EXTRACT: note_on channel=5 note=64 velocity=0 time=0
EXTRACT: note_on channel=5 note=73 velocity=0 time=0
EXTRACT: note_on channel=2 note=57 velocity=110 time=0.005376341666666667
EXTRACT: note_on channel=5 note=64 velocity=91 time=0
EXTRACT: note_on channel=5 note=69 velocity=99 time=0
EXTRACT: note_on channel=5 note=73 velocity=85 time=0
EXTRACT: control_change channel=5 control=11 value=74 time=0
EXTRACT: control_change channel=5 control=11 value=127 time=0
EXTRACT: control_change channel=5 control=11 value=122 time=0.05376341666666667
EXTRACT: control_change channel=5 control=11 value=118 time=0.05376341666666667
EXTRACT: control_change channel=5 control=11 value=114 time=0.05376341666666667
EXTRACT: control_change channel=5 control=11 value=110 time=0.05376341666666667
EXTRACT: control_change channel=5 control=11 value=106 time=0.05376341666666667
EXTRACT: control_change channel=5 control=11 value=102 time=0.05376341666666667
EXTRACT: control_change channel=5 control=11 value=98 time=0.05376341666666667
EXTRACT: control_change channel=5 control=11 value=94 time=0.05376341666666667
EXTRACT: control_change channel=5 control=11 value=90 time=0.05376341666666667
EXTRACT: control_change channel=5 control=11 value=86 time=0.05376341666666667
EXTRACT: note_on channel=3 note=69 velocity=0 time=0.05376341666666667
EXTRACT: control_change channel=5 control=11 value=82 time=0
EXTRACT: note_on channel=5 note=73 velocity=0 time=0.048387075
EXTRACT: note_on channel=5 note=69 velocity=0 time=0
EXTRACT: note_on channel=2 note=57 velocity=0 time=0
EXTRACT: note_on channel=5 note=64 velocity=0 time=0
EXTRACT: note_on channel=2 note=57 velocity=109 time=0.005376341666666667
EXTRACT: note_on channel=3 note=68 velocity=110 time=0
EXTRACT: note_on channel=5 note=64 velocity=85 time=0
EXTRACT: note_on channel=5 note=69 velocity=100 time=0
EXTRACT: note_on channel=5 note=73 velocity=85 time=0
EXTRACT: control_change channel=5 control=11 value=74 time=0
EXTRACT: control_change channel=5 control=11 value=127 time=0
EXTRACT: control_change channel=5 control=11 value=122 time=0.05376341666666667
EXTRACT: control_change channel=5 control=11 value=118 time=0.05376341666666667
EXTRACT: control_change channel=5 control=11 value=114 time=0.05376341666666667
EXTRACT: control_change channel=5 control=11 value=110 time=0.05376341666666667
EXTRACT: control_change channel=5 control=11 value=106 time=0.05376341666666667
EXTRACT: note_on channel=3 note=69 velocity=104 time=0.05376341666666667
EXTRACT: control_change channel=5 control=11 value=102 time=0
EXTRACT: note_on channel=3 note=68 velocity=0 time=0.016129025
EXTRACT: control_change channel=5 control=11 value=98 time=0.03763439166666667
EXTRACT: control_change channel=5 control=11 value=94 time=0.05376341666666667
EXTRACT: control_change channel=5 control=11 value=90 time=0.05376341666666667
EXTRACT: control_change channel=5 control=11 value=86 time=0.05376341666666667
EXTRACT: control_change channel=5 control=11 value=82 time=0.05376341666666667
EXTRACT: note_on channel=3 note=69 velocity=0 time=0.010752683333333334
EXTRACT: note_on channel=5 note=69 velocity=0 time=0.03763439166666667
EXTRACT: note_on channel=5 note=73 velocity=0 time=0
EXTRACT: note_on channel=2 note=57 velocity=0 time=0
EXTRACT: note_on channel=5 note=64 velocity=0 time=0
EXTRACT: note_on channel=2 note=57 velocity=112 time=0.005376341666666667
EXTRACT: note_on channel=3 note=68 velocity=106 time=0
EXTRACT: note_on channel=5 note=64 velocity=94 time=0
EXTRACT: note_on channel=5 note=69 velocity=106 time=0
EXTRACT: note_on channel=5 note=73 velocity=93 time=0
EXTRACT: control_change channel=5 control=11 value=74 time=0
EXTRACT: control_change channel=5 control=11 value=127 time=0
EXTRACT: control_change channel=5 control=11 value=122 time=0.05376341666666667
EXTRACT: control_change channel=5 control=11 value=118 time=0.05376341666666667
EXTRACT: control_change channel=5 control=11 value=114 time=0.05376341666666667
EXTRACT: control_change channel=5 control=11 value=110 time=0.05376341666666667
EXTRACT: control_change channel=5 control=11 value=106 time=0.05376341666666667
EXTRACT: note_on channel=3 note=68 velocity=0 time=0.03763439166666667
EXTRACT: note_on channel=3 note=66 velocity=110 time=0.016129025
EXTRACT: control_change channel=5 control=11 value=102 time=0
EXTRACT: control_change channel=5 control=11 value=98 time=0.05376341666666667
EXTRACT: control_change channel=5 control=11 value=94 time=0.05376341666666667
EXTRACT: control_change channel=5 control=11 value=90 time=0.05376341666666667
EXTRACT: control_change channel=5 control=11 value=86 time=0.05376341666666667
EXTRACT: control_change channel=5 control=11 value=82 time=0.05376341666666667
EXTRACT: note_on channel=5 note=73 velocity=0 time=0.048387075
EXTRACT: note_on channel=5 note=69 velocity=0 time=0
EXTRACT: note_on channel=5 note=64 velocity=0 time=0
EXTRACT: note_on channel=2 note=57 velocity=0 time=0
EXTRACT: note_on channel=10 note=76 velocity=0 time=0.005376341666666667
EXTRACT: note_on channel=10 note=73 velocity=0 time=0
EXTRACT: note_on channel=10 note=81 velocity=0 time=0
EXTRACT: note_on channel=10 note=69 velocity=0 time=0
EXTRACT: note_on channel=2 note=54 velocity=111 time=0
EXTRACT: note_on channel=5 note=66 velocity=83 time=0
EXTRACT: note_on channel=5 note=69 velocity=102 time=0
EXTRACT: note_on channel=5 note=73 velocity=95 time=0
EXTRACT: control_change channel=5 control=11 value=74 time=0
EXTRACT: control_change channel=5 control=11 value=127 time=0
EXTRACT: note_on channel=10 note=66 velocity=100 time=0
EXTRACT: note_on channel=10 note=73 velocity=100 time=0
EXTRACT: note_on channel=10 note=78 velocity=100 time=0
EXTRACT: note_on channel=10 note=81 velocity=100 time=0
EXTRACT: note_on channel=3 note=66 velocity=0 time=0.043010733333333336
EXTRACT: control_change channel=5 control=11 value=122 time=0.010752683333333334
EXTRACT: control_change channel=5 control=11 value=118 time=0.05376341666666667
EXTRACT: control_change channel=5 control=11 value=114 time=0.05376341666666667
EXTRACT: control_change channel=5 control=11 value=110 time=0.05376341666666667
EXTRACT: control_change channel=5 control=11 value=106 time=0.05376341666666667
EXTRACT: note_on channel=3 note=69 velocity=109 time=0.05376341666666667
EXTRACT: control_change channel=5 control=11 value=102 time=0
EXTRACT: control_change channel=5 control=11 value=98 time=0.05376341666666667
EXTRACT: control_change channel=5 control=11 value=94 time=0.05376341666666667
EXTRACT: control_change channel=5 control=11 value=90 time=0.05376341666666667
EXTRACT: control_change channel=5 control=11 value=86 time=0.05376341666666667
EXTRACT: note_on channel=3 note=69 velocity=0 time=0.026881708333333334
EXTRACT: control_change channel=5 control=11 value=82 time=0.026881708333333334
EXTRACT: note_on channel=5 note=73 velocity=0 time=0.048387075
EXTRACT: note_on channel=2 note=54 velocity=0 time=0
EXTRACT: note_on channel=5 note=69 velocity=0 time=0
EXTRACT: note_on channel=5 note=66 velocity=0 time=0
EXTRACT: note_on channel=2 note=54 velocity=109 time=0.005376341666666667
EXTRACT: note_on channel=3 note=69 velocity=112 time=0
EXTRACT: note_on channel=5 note=66 velocity=92 time=0
EXTRACT: note_on channel=5 note=69 velocity=104 time=0
EXTRACT: note_on channel=5 note=73 velocity=83 time=0
EXTRACT: control_change channel=5 control=11 value=74 time=0
EXTRACT: control_change channel=5 control=11 value=127 time=0
EXTRACT: control_change channel=5 control=11 value=122 time=0.05376341666666667
EXTRACT: control_change channel=5 control=11 value=118 time=0.05376341666666667
EXTRACT: control_change channel=5 control=11 value=114 time=0.05376341666666667
EXTRACT: note_on channel=3 note=69 velocity=0 time=0.026881708333333334
EXTRACT: control_change channel=5 control=11 value=110 time=0.026881708333333334
EXTRACT: control_change channel=5 control=11 value=106 time=0.05376341666666667
EXTRACT: note_on channel=3 note=69 velocity=107 time=0.05376341666666667
EXTRACT: control_change channel=5 control=11 value=102 time=0
EXTRACT: control_change channel=5 control=11 value=98 time=0.05376341666666667
EXTRACT: control_change channel=5 control=11 value=94 time=0.05376341666666667
EXTRACT: control_change channel=5 control=11 value=90 time=0.05376341666666667
EXTRACT: note_on channel=3 note=69 velocity=0 time=0.043010733333333336
EXTRACT: control_change channel=5 control=11 value=86 time=0.010752683333333334
EXTRACT: control_change channel=5 control=11 value=82 time=0.05376341666666667
EXTRACT: note_on channel=5 note=73 velocity=0 time=0.048387075
EXTRACT: note_on channel=5 note=69 velocity=0 time=0
EXTRACT: note_on channel=2 note=54 velocity=0 time=0
EXTRACT: note_on channel=5 note=66 velocity=0 time=0
EXTRACT: note_on channel=2 note=54 velocity=107 time=0.005376341666666667
EXTRACT: note_on channel=3 note=69 velocity=109 time=0
EXTRACT: note_on channel=5 note=66 velocity=92 time=0
EXTRACT: note_on channel=5 note=69 velocity=108 time=0
EXTRACT: note_on channel=5 note=73 velocity=86 time=0
EXTRACT: control_change channel=5 control=11 value=74 time=0
EXTRACT: control_change channel=5 control=11 value=127 time=0
EXTRACT: control_change channel=5 control=11 value=122 time=0.05376341666666667
EXTRACT: control_change channel=5 control=11 value=118 time=0.05376341666666667
EXTRACT: control_change channel=5 control=11 value=114 time=0.05376341666666667
EXTRACT: control_change channel=5 control=11 value=110 time=0.05376341666666667
EXTRACT: control_change channel=5 control=11 value=106 time=0.05376341666666667
EXTRACT: note_on channel=3 note=69 velocity=0 time=0.010752683333333334
EXTRACT: note_on channel=3 note=71 velocity=109 time=0.043010733333333336
EXTRACT: control_change channel=5 control=11 value=102 time=0
EXTRACT: control_change channel=5 control=11 value=98 time=0.05376341666666667
EXTRACT: control_change channel=5 control=11 value=94 time=0.05376341666666667
EXTRACT: control_change channel=5 control=11 value=90 time=0.05376341666666667
EXTRACT: control_change channel=5 control=11 value=86 time=0.05376341666666667
EXTRACT: control_change channel=5 control=11 value=82 time=0.05376341666666667
EXTRACT: note_on channel=3 note=71 velocity=0 time=0.016129025
EXTRACT: note_on channel=5 note=73 velocity=0 time=0.03225805
EXTRACT: note_on channel=5 note=69 velocity=0 time=0
EXTRACT: note_on channel=2 note=54 velocity=0 time=0
EXTRACT: note_on channel=5 note=66 velocity=0 time=0
EXTRACT: note_on channel=2 note=54 velocity=102 time=0.005376341666666667
EXTRACT: note_on channel=3 note=73 velocity=112 time=0
EXTRACT: note_on channel=5 note=66 velocity=94 time=0
EXTRACT: note_on channel=5 note=69 velocity=109 time=0
EXTRACT: note_on channel=5 note=73 velocity=85 time=0
EXTRACT: control_change channel=5 control=11 value=74 time=0
EXTRACT: control_change channel=5 control=11 value=127 time=0
EXTRACT: control_change channel=5 control=11 value=122 time=0.05376341666666667
EXTRACT: control_change channel=5 control=11 value=118 time=0.05376341666666667
EXTRACT: control_change channel=5 control=11 value=114 time=0.05376341666666667
EXTRACT: control_change channel=5 control=11 value=110 time=0.05376341666666667
EXTRACT: note_on channel=3 note=73 velocity=0 time=0.016129025
EXTRACT: control_change channel=5 control=11 value=106 time=0.03763439166666667
EXTRACT: note_on channel=3 note=66 velocity=116 time=0.05376341666666667
EXTRACT: control_change channel=5 control=11 value=102 time=0
EXTRACT: control_change channel=5 control=11 value=98 time=0.05376341666666667
EXTRACT: control_change channel=5 control=11 value=94 time=0.05376341666666667
EXTRACT: control_change channel=5 control=11 value=90 time=0.05376341666666667
EXTRACT: control_change channel=5 control=11 value=86 time=0.05376341666666667
EXTRACT: note_on channel=3 note=66 velocity=0 time=0.048387075
EXTRACT: control_change channel=5 control=11 value=82 time=0.005376341666666667
EXTRACT: note_on channel=5 note=73 velocity=0 time=0.048387075
EXTRACT: note_on channel=5 note=69 velocity=0 time=0
EXTRACT: note_on channel=2 note=54 velocity=0 time=0
EXTRACT: note_on channel=5 note=66 velocity=0 time=0
EXTRACT: note_on channel=10 note=78 velocity=0 time=0.005376341666666667
EXTRACT: note_on channel=10 note=81 velocity=0 time=0
EXTRACT: note_on channel=10 note=66 velocity=0 time=0
EXTRACT: note_on channel=10 note=73 velocity=0 time=0
EXTRACT: note_on channel=2 note=49 velocity=116 time=0
EXTRACT: note_on channel=3 note=64 velocity=112 time=0
EXTRACT: note_on channel=5 note=64 velocity=97 time=0
EXTRACT: note_on channel=5 note=68 velocity=100 time=0
EXTRACT: note_on channel=5 note=73 velocity=98 time=0
EXTRACT: control_change channel=5 control=11 value=74 time=0
EXTRACT: control_change channel=5 control=11 value=127 time=0
EXTRACT: note_on channel=10 note=61 velocity=100 time=0
EXTRACT: note_on channel=10 note=73 velocity=100 time=0
EXTRACT: note_on channel=10 note=76 velocity=100 time=0
EXTRACT: note_on channel=10 note=80 velocity=100 time=0
EXTRACT: control_change channel=5 control=11 value=122 time=0.05376341666666667
EXTRACT: control_change channel=5 control=11 value=118 time=0.05376341666666667
EXTRACT: control_change channel=5 control=11 value=114 time=0.05376341666666667
EXTRACT: control_change channel=5 control=11 value=110 time=0.05376341666666667
EXTRACT: control_change channel=5 control=11 value=106 time=0.05376341666666667
EXTRACT: control_change channel=5 control=11 value=102 time=0.05376341666666667
EXTRACT: control_change channel=5 control=11 value=98 time=0.05376341666666667
EXTRACT: control_change channel=5 control=11 value=94 time=0.05376341666666667
EXTRACT: note_on channel=3 note=64 velocity=0 time=0.026881708333333334
EXTRACT: control_change channel=5 control=11 value=90 time=0.026881708333333334
EXTRACT: control_change channel=5 control=11 value=86 time=0.05376341666666667
EXTRACT: control_change channel=5 control=11 value=82 time=0.05376341666666667
EXTRACT: note_on channel=5 note=73 velocity=0 time=0.048387075
EXTRACT: note_on channel=2 note=49 velocity=0 time=0
EXTRACT: note_on channel=5 note=68 velocity=0 time=0
EXTRACT: note_on channel=5 note=64 velocity=0 time=0
EXTRACT: note_on channel=2 note=49 velocity=105 time=0.005376341666666667
EXTRACT: note_on channel=3 note=69 velocity=109 time=0
EXTRACT: note_on channel=5 note=64 velocity=97 time=0
EXTRACT: note_on channel=5 note=68 velocity=100 time=0
EXTRACT: note_on channel=5 note=73 velocity=97 time=0
EXTRACT: control_change channel=5 control=11 value=74 time=0
EXTRACT: control_change channel=5 control=11 value=127 time=0
EXTRACT: control_change channel=5 control=11 value=122 time=0.05376341666666667
EXTRACT: control_change channel=5 control=11 value=118 time=0.05376341666666667
EXTRACT: control_change channel=5 control=11 value=114 time=0.05376341666666667
EXTRACT: control_change channel=5 control=11 value=110 time=0.05376341666666667
EXTRACT: note_on channel=3 note=69 velocity=0 time=0.03225805
EXTRACT: control_change channel=5 control=11 value=106 time=0.021505366666666668
EXTRACT: note_on channel=3 note=69 velocity=109 time=0.05376341666666667
EXTRACT: control_change channel=5 control=11 value=102 time=0
EXTRACT: control_change channel=5 control=11 value=98 time=0.05376341666666667
EXTRACT: control_change channel=5 control=11 value=94 time=0.05376341666666667
EXTRACT: control_change channel=5 control=11 value=90 time=0.05376341666666667
EXTRACT: note_on channel=3 note=69 velocity=0 time=0.048387075
EXTRACT: control_change channel=5 control=11 value=86 time=0.005376341666666667
EXTRACT: control_change channel=5 control=11 value=82 time=0.05376341666666667
EXTRACT: note_on channel=5 note=73 velocity=0 time=0.048387075
EXTRACT: note_on channel=5 note=68 velocity=0 time=0
EXTRACT: note_on channel=2 note=49 velocity=0 time=0
EXTRACT: note_on channel=5 note=64 velocity=0 time=0
EXTRACT: note_on channel=2 note=49 velocity=111 time=0.005376341666666667
EXTRACT: note_on channel=3 note=69 velocity=112 time=0
EXTRACT: note_on channel=5 note=64 velocity=96 time=0
EXTRACT: note_on channel=5 note=68 velocity=97 time=0
EXTRACT: note_on channel=5 note=73 velocity=96 time=0
EXTRACT: control_change channel=5 control=11 value=74 time=0
EXTRACT: control_change channel=5 control=11 value=127 time=0
EXTRACT: control_change channel=5 control=11 value=122 time=0.05376341666666667
EXTRACT: control_change channel=5 control=11 value=118 time=0.05376341666666667
EXTRACT: control_change channel=5 control=11 value=114 time=0.05376341666666667
EXTRACT: control_change channel=5 control=11 value=110 time=0.05376341666666667
EXTRACT: control_change channel=5 control=11 value=106 time=0.05376341666666667
EXTRACT: note_on channel=3 note=69 velocity=0 time=0.016129025
EXTRACT: note_on channel=3 note=71 velocity=109 time=0.03763439166666667
EXTRACT: control_change channel=5 control=11 value=102 time=0
EXTRACT: control_change channel=5 control=11 value=98 time=0.05376341666666667
EXTRACT: control_change channel=5 control=11 value=94 time=0.05376341666666667
EXTRACT: control_change channel=5 control=11 value=90 time=0.05376341666666667
EXTRACT: control_change channel=5 control=11 value=86 time=0.05376341666666667
EXTRACT: control_change channel=5 control=11 value=82 time=0.05376341666666667
EXTRACT: note_on channel=3 note=71 velocity=0 time=0.016129025
EXTRACT: note_on channel=5 note=73 velocity=0 time=0.03225805
EXTRACT: note_on channel=5 note=68 velocity=0 time=0
EXTRACT: note_on channel=2 note=49 velocity=0 time=0
EXTRACT: note_on channel=5 note=64 velocity=0 time=0
EXTRACT: note_on channel=2 note=49 velocity=106 time=0.005376341666666667
EXTRACT: note_on channel=3 note=73 velocity=110 time=0
EXTRACT: note_on channel=5 note=64 velocity=92 time=0
EXTRACT: note_on channel=5 note=68 velocity=97 time=0
EXTRACT: note_on channel=5 note=73 velocity=96 time=0
EXTRACT: control_change channel=5 control=11 value=74 time=0
EXTRACT: control_change channel=5 control=11 value=127 time=0
EXTRACT: control_change channel=5 control=11 value=122 time=0.05376341666666667
EXTRACT: control_change channel=5 control=11 value=118 time=0.05376341666666667
EXTRACT: control_change channel=5 control=11 value=114 time=0.05376341666666667
EXTRACT: control_change channel=5 control=11 value=110 time=0.05376341666666667
EXTRACT: note_on channel=3 note=73 velocity=0 time=0.05376341666666667
EXTRACT: control_change channel=5 control=11 value=106 time=0
EXTRACT: note_on channel=3 note=66 velocity=112 time=0.05376341666666667
EXTRACT: control_change channel=5 control=11 value=102 time=0
EXTRACT: control_change channel=5 control=11 value=98 time=0.05376341666666667
EXTRACT: control_change channel=5 control=11 value=94 time=0.05376341666666667
EXTRACT: control_change channel=5 control=11 value=90 time=0.05376341666666667
EXTRACT: control_change channel=5 control=11 value=86 time=0.05376341666666667
EXTRACT: control_change channel=5 control=11 value=82 time=0.05376341666666667
EXTRACT: note_on channel=3 note=66 velocity=0 time=0.03763439166666667
EXTRACT: note_on channel=5 note=73 velocity=0 time=0.010752683333333334
EXTRACT: note_on channel=5 note=68 velocity=0 time=0
EXTRACT: note_on channel=2 note=49 velocity=0 time=0
EXTRACT: note_on channel=5 note=64 velocity=0 time=0
EXTRACT: note_on channel=10 note=76 velocity=0 time=0.005376341666666667
EXTRACT: note_on channel=10 note=80 velocity=0 time=0
EXTRACT: note_on channel=10 note=61 velocity=0 time=0
EXTRACT: note_on channel=10 note=73 velocity=0 time=0
EXTRACT: note_on channel=2 note=52 velocity=100 time=0
EXTRACT: note_on channel=3 note=64 velocity=110 time=0
EXTRACT: note_on channel=5 note=64 velocity=92 time=0
EXTRACT: note_on channel=5 note=68 velocity=95 time=0
EXTRACT: note_on channel=5 note=71 velocity=100 time=0
EXTRACT: control_change channel=5 control=11 value=74 time=0
EXTRACT: control_change channel=5 control=11 value=127 time=0
EXTRACT: note_on channel=10 note=64 velocity=100 time=0
EXTRACT: note_on channel=10 note=71 velocity=100 time=0
EXTRACT: note_on channel=10 note=80 velocity=100 time=0
EXTRACT: note_on channel=10 note=76 velocity=100 time=0
EXTRACT: control_change channel=5 control=11 value=122 time=0.05376341666666667
EXTRACT: control_change channel=5 control=11 value=118 time=0.05376341666666667
EXTRACT: control_change channel=5 control=11 value=114 time=0.05376341666666667
EXTRACT: control_change channel=5 control=11 value=110 time=0.05376341666666667
EXTRACT: control_change channel=5 control=11 value=106 time=0.05376341666666667
EXTRACT: control_change channel=5 control=11 value=102 time=0.05376341666666667
EXTRACT: control_change channel=5 control=11 value=98 time=0.05376341666666667
EXTRACT: control_change channel=5 control=11 value=94 time=0.05376341666666667
EXTRACT: control_change channel=5 control=11 value=90 time=0.05376341666666667
EXTRACT: control_change channel=5 control=11 value=86 time=0.05376341666666667
EXTRACT: note_on channel=3 note=64 velocity=0 time=0.03763439166666667
EXTRACT: control_change channel=5 control=11 value=82 time=0.016129025
EXTRACT: note_on channel=5 note=71 velocity=0 time=0.048387075
EXTRACT: note_on channel=2 note=52 velocity=0 time=0
EXTRACT: note_on channel=5 note=68 velocity=0 time=0
EXTRACT: note_on channel=5 note=64 velocity=0 time=0
EXTRACT: note_on channel=2 note=52 velocity=111 time=0.005376341666666667
EXTRACT: note_on channel=5 note=64 velocity=91 time=0
EXTRACT: note_on channel=5 note=68 velocity=97 time=0
EXTRACT: note_on channel=5 note=71 velocity=99 time=0
EXTRACT: control_change channel=5 control=11 value=74 time=0
EXTRACT: control_change channel=5 control=11 value=127 time=0
EXTRACT: control_change channel=5 control=11 value=122 time=0.05376341666666667
EXTRACT: control_change channel=5 control=11 value=118 time=0.05376341666666667
EXTRACT: control_change channel=5 control=11 value=114 time=0.05376341666666667
EXTRACT: control_change channel=5 control=11 value=110 time=0.05376341666666667
EXTRACT: control_change channel=5 control=11 value=106 time=0.05376341666666667
EXTRACT: control_change channel=5 control=11 value=102 time=0.05376341666666667
EXTRACT: control_change channel=5 control=11 value=98 time=0.05376341666666667
EXTRACT: control_change channel=5 control=11 value=94 time=0.05376341666666667
EXTRACT: control_change channel=5 control=11 value=90 time=0.05376341666666667
EXTRACT: control_change channel=5 control=11 value=86 time=0.05376341666666667
EXTRACT: control_change channel=5 control=11 value=82 time=0.05376341666666667
EXTRACT: note_on channel=5 note=71 velocity=0 time=0.048387075
EXTRACT: note_on channel=5 note=68 velocity=0 time=0
EXTRACT: note_on channel=2 note=52 velocity=0 time=0
EXTRACT: note_on channel=5 note=64 velocity=0 time=0
EXTRACT: note_on channel=2 note=52 velocity=115 time=0.005376341666666667
EXTRACT: note_on channel=3 note=64 velocity=107 time=0
EXTRACT: note_on channel=5 note=64 velocity=91 time=0
EXTRACT: note_on channel=5 note=68 velocity=97 time=0
EXTRACT: note_on channel=5 note=71 velocity=97 time=0
EXTRACT: control_change channel=5 control=11 value=74 time=0
EXTRACT: control_change channel=5 control=11 value=127 time=0
EXTRACT: control_change channel=5 control=11 value=122 time=0.05376341666666667
EXTRACT: control_change channel=5 control=11 value=118 time=0.05376341666666667
EXTRACT: control_change channel=5 control=11 value=114 time=0.05376341666666667
EXTRACT: control_change channel=5 control=11 value=110 time=0.05376341666666667
EXTRACT: control_change channel=5 control=11 value=106 time=0.05376341666666667
EXTRACT: note_on channel=3 note=66 velocity=111 time=0.05376341666666667
EXTRACT: control_change channel=5 control=11 value=102 time=0
EXTRACT: note_on channel=3 note=64 velocity=0 time=0.03763439166666667
EXTRACT: control_change channel=5 control=11 value=98 time=0.016129025
EXTRACT: control_change channel=5 control=11 value=94 time=0.05376341666666667
EXTRACT: control_change channel=5 control=11 value=90 time=0.05376341666666667
EXTRACT: control_change channel=5 control=11 value=86 time=0.05376341666666667
EXTRACT: control_change channel=5 control=11 value=82 time=0.05376341666666667
EXTRACT: note_on channel=3 note=66 velocity=0 time=0.021505366666666668
EXTRACT: note_on channel=5 note=68 velocity=0 time=0.026881708333333334
EXTRACT: note_on channel=5 note=71 velocity=0 time=0
EXTRACT: note_on channel=2 note=52 velocity=0 time=0
EXTRACT: note_on channel=5 note=64 velocity=0 time=0
EXTRACT: note_on channel=2 note=52 velocity=108 time=0.005376341666666667
EXTRACT: note_on channel=3 note=69 velocity=110 time=0
EXTRACT: note_on channel=5 note=64 velocity=87 time=0
EXTRACT: note_on channel=5 note=68 velocity=97 time=0
EXTRACT: note_on channel=5 note=71 velocity=102 time=0
EXTRACT: control_change channel=5 control=11 value=74 time=0
EXTRACT: control_change channel=5 control=11 value=127 time=0
EXTRACT: control_change channel=5 control=11 value=122 time=0.05376341666666667
EXTRACT: control_change channel=5 control=11 value=118 time=0.05376341666666667
EXTRACT: control_change channel=5 control=11 value=114 time=0.05376341666666667
EXTRACT: control_change channel=5 control=11 value=110 time=0.05376341666666667
EXTRACT: control_change channel=5 control=11 value=106 time=0.05376341666666667
EXTRACT: note_on channel=3 note=69 velocity=0 time=0.010752683333333334
EXTRACT: note_on channel=3 note=71 velocity=109 time=0.043010733333333336
EXTRACT: control_change channel=5 control=11 value=102 time=0
EXTRACT: control_change channel=5 control=11 value=98 time=0.05376341666666667
EXTRACT: control_change channel=5 control=11 value=94 time=0.05376341666666667
EXTRACT: control_change channel=5 control=11 value=90 time=0.05376341666666667
EXTRACT: control_change channel=5 control=11 value=86 time=0.05376341666666667
EXTRACT: control_change channel=5 control=11 value=82 time=0.05376341666666667
EXTRACT: note_on channel=5 note=71 velocity=0 time=0.048387075
EXTRACT: note_on channel=5 note=68 velocity=0 time=0
EXTRACT: note_on channel=5 note=64 velocity=0 time=0
EXTRACT: note_on channel=2 note=52 velocity=0 time=0
EXTRACT: note_on channel=10 note=71 velocity=0 time=0.005376341666666667
EXTRACT: note_on channel=10 note=80 velocity=0 time=0
EXTRACT: note_on channel=10 note=76 velocity=0 time=0
EXTRACT: note_on channel=10 note=64 velocity=0 time=0
EXTRACT: note_on channel=2 note=57 velocity=105 time=0
EXTRACT: note_on channel=3 note=69 velocity=112 time=0
EXTRACT: note_on channel=5 note=64 velocity=97 time=0
EXTRACT: note_on channel=5 note=69 velocity=103 time=0
EXTRACT: note_on channel=5 note=73 velocity=88 time=0
EXTRACT: control_change channel=5 control=11 value=74 time=0
EXTRACT: control_change channel=5 control=11 value=127 time=0
EXTRACT: note_on channel=10 note=73 velocity=100 time=0
EXTRACT: note_on channel=10 note=76 velocity=100 time=0
EXTRACT: note_on channel=10 note=81 velocity=100 time=0
EXTRACT: note_on channel=10 note=69 velocity=100 time=0
EXTRACT: note_on channel=3 note=71 velocity=0 time=0.03225805
EXTRACT: control_change channel=5 control=11 value=122 time=0.021505366666666668
EXTRACT: control_change channel=5 control=11 value=118 time=0.05376341666666667
EXTRACT: control_change channel=5 control=11 value=114 time=0.05376341666666667
EXTRACT: control_change channel=5 control=11 value=110 time=0.05376341666666667
EXTRACT: control_change channel=5 control=11 value=106 time=0.05376341666666667
EXTRACT: control_change channel=5 control=11 value=102 time=0.05376341666666667
EXTRACT: control_change channel=5 control=11 value=98 time=0.05376341666666667
EXTRACT: control_change channel=5 control=11 value=94 time=0.05376341666666667
EXTRACT: control_change channel=5 control=11 value=90 time=0.05376341666666667
EXTRACT: control_change channel=5 control=11 value=86 time=0.05376341666666667
EXTRACT: control_change channel=5 control=11 value=82 time=0.05376341666666667
EXTRACT: note_on channel=5 note=69 velocity=0 time=0.048387075
EXTRACT: note_on channel=2 note=57 velocity=0 time=0
EXTRACT: note_on channel=5 note=64 velocity=0 time=0
EXTRACT: note_on channel=5 note=73 velocity=0 time=0
EXTRACT: note_on channel=2 note=57 velocity=105 time=0.005376341666666667
EXTRACT: note_on channel=5 note=64 velocity=96 time=0
EXTRACT: note_on channel=5 note=69 velocity=106 time=0
EXTRACT: note_on channel=5 note=73 velocity=92 time=0
EXTRACT: control_change channel=5 control=11 value=74 time=0
EXTRACT: control_change channel=5 control=11 value=127 time=0
EXTRACT: control_change channel=5 control=11 value=122 time=0.05376341666666667
EXTRACT: control_change channel=5 control=11 value=118 time=0.05376341666666667
EXTRACT: control_change channel=5 control=11 value=114 time=0.05376341666666667
EXTRACT: control_change channel=5 control=11 value=110 time=0.05376341666666667
EXTRACT: control_change channel=5 control=11 value=106 time=0.05376341666666667
EXTRACT: control_change channel=5 control=11 value=102 time=0.05376341666666667
EXTRACT: control_change channel=5 control=11 value=98 time=0.05376341666666667
EXTRACT: control_change channel=5 control=11 value=94 time=0.05376341666666667
EXTRACT: control_change channel=5 control=11 value=90 time=0.05376341666666667
EXTRACT: note_on channel=3 note=69 velocity=0 time=0.026881708333333334
EXTRACT: control_change channel=5 control=11 value=86 time=0.026881708333333334
EXTRACT: control_change channel=5 control=11 value=82 time=0.05376341666666667
EXTRACT: note_on channel=5 note=73 velocity=0 time=0.048387075
EXTRACT: note_on channel=5 note=69 velocity=0 time=0
EXTRACT: note_on channel=2 note=57 velocity=0 time=0
EXTRACT: note_on channel=5 note=64 velocity=0 time=0
EXTRACT: note_on channel=2 note=57 velocity=107 time=0.005376341666666667
EXTRACT: note_on channel=3 note=68 velocity=102 time=0
EXTRACT: note_on channel=5 note=64 velocity=95 time=0
EXTRACT: note_on channel=5 note=69 velocity=106 time=0
EXTRACT: note_on channel=5 note=73 velocity=97 time=0
EXTRACT: control_change channel=5 control=11 value=74 time=0
EXTRACT: control_change channel=5 control=11 value=127 time=0
EXTRACT: control_change channel=5 control=11 value=122 time=0.05376341666666667
EXTRACT: control_change channel=5 control=11 value=118 time=0.05376341666666667
EXTRACT: control_change channel=5 control=11 value=114 time=0.05376341666666667
EXTRACT: control_change channel=5 control=11 value=110 time=0.05376341666666667
EXTRACT: control_change channel=5 control=11 value=106 time=0.05376341666666667
EXTRACT: note_on channel=3 note=68 velocity=0 time=0.043010733333333336
EXTRACT: note_on channel=3 note=69 velocity=102 time=0.010752683333333334
EXTRACT: control_change channel=5 control=11 value=102 time=0
EXTRACT: control_change channel=5 control=11 value=98 time=0.05376341666666667
EXTRACT: control_change channel=5 control=11 value=94 time=0.05376341666666667
EXTRACT: control_change channel=5 control=11 value=90 time=0.05376341666666667
EXTRACT: control_change channel=5 control=11 value=86 time=0.05376341666666667
EXTRACT: control_change channel=5 control=11 value=82 time=0.05376341666666667
EXTRACT: note_on channel=3 note=69 velocity=0 time=0.010752683333333334
EXTRACT: note_on channel=5 note=73 velocity=0 time=0.03763439166666667
EXTRACT: note_on channel=5 note=69 velocity=0 time=0
EXTRACT: note_on channel=2 note=57 velocity=0 time=0
EXTRACT: note_on channel=5 note=64 velocity=0 time=0
EXTRACT: note_on channel=2 note=57 velocity=104 time=0.005376341666666667
EXTRACT: note_on channel=3 note=68 velocity=101 time=0
EXTRACT: note_on channel=5 note=64 velocity=92 time=0
EXTRACT: note_on channel=5 note=69 velocity=107 time=0
EXTRACT: note_on channel=5 note=73 velocity=95 time=0
EXTRACT: control_change channel=5 control=11 value=74 time=0
EXTRACT: control_change channel=5 control=11 value=127 time=0
EXTRACT: control_change channel=5 control=11 value=122 time=0.05376341666666667
EXTRACT: control_change channel=5 control=11 value=118 time=0.05376341666666667
EXTRACT: control_change channel=5 control=11 value=114 time=0.05376341666666667
EXTRACT: control_change channel=5 control=11 value=110 time=0.05376341666666667
EXTRACT: control_change channel=5 control=11 value=106 time=0.05376341666666667
EXTRACT: note_on channel=3 note=68 velocity=0 time=0.043010733333333336
EXTRACT: note_on channel=3 note=66 velocity=106 time=0.010752683333333334
EXTRACT: control_change channel=5 control=11 value=102 time=0
EXTRACT: control_change channel=5 control=11 value=98 time=0.05376341666666667
EXTRACT: control_change channel=5 control=11 value=94 time=0.05376341666666667
EXTRACT: control_change channel=5 control=11 value=90 time=0.05376341666666667
EXTRACT: control_change channel=5 control=11 value=86 time=0.05376341666666667
EXTRACT: control_change channel=5 control=11 value=82 time=0.05376341666666667
EXTRACT: note_on channel=5 note=73 velocity=0 time=0.048387075
EXTRACT: note_on channel=5 note=69 velocity=0 time=0
EXTRACT: note_on channel=5 note=64 velocity=0 time=0
EXTRACT: note_on channel=2 note=57 velocity=0 time=0
EXTRACT: note_on channel=10 note=69 velocity=0 time=0.005376341666666667
EXTRACT: note_on channel=10 note=76 velocity=0 time=0
EXTRACT: note_on channel=10 note=81 velocity=0 time=0
EXTRACT: note_on channel=10 note=73 velocity=0 time=0
EXTRACT: note_on channel=2 note=54 velocity=106 time=0
EXTRACT: note_on channel=5 note=66 velocity=93 time=0
EXTRACT: note_on channel=5 note=69 velocity=105 time=0
EXTRACT: note_on channel=5 note=73 velocity=95 time=0
EXTRACT: control_change channel=5 control=11 value=74 time=0
EXTRACT: control_change channel=5 control=11 value=127 time=0
EXTRACT: note_on channel=10 note=78 velocity=100 time=0
EXTRACT: note_on channel=10 note=73 velocity=100 time=0
EXTRACT: note_on channel=10 note=81 velocity=100 time=0
EXTRACT: note_on channel=10 note=66 velocity=100 time=0
EXTRACT: note_on channel=3 note=66 velocity=0 time=0.048387075
EXTRACT: control_change channel=5 control=11 value=122 time=0.005376341666666667
EXTRACT: control_change channel=5 control=11 value=118 time=0.05376341666666667
EXTRACT: control_change channel=5 control=11 value=114 time=0.05376341666666667
EXTRACT: control_change channel=5 control=11 value=110 time=0.05376341666666667
EXTRACT: control_change channel=5 control=11 value=106 time=0.05376341666666667
EXTRACT: note_on channel=3 note=69 velocity=111 time=0.05376341666666667
EXTRACT: control_change channel=5 control=11 value=102 time=0
EXTRACT: control_change channel=5 control=11 value=98 time=0.05376341666666667
EXTRACT: control_change channel=5 control=11 value=94 time=0.05376341666666667
EXTRACT: control_change channel=5 control=11 value=90 time=0.05376341666666667
EXTRACT: control_change channel=5 control=11 value=86 time=0.05376341666666667
EXTRACT: note_on channel=3 note=69 velocity=0 time=0.021505366666666668
EXTRACT: control_change channel=5 control=11 value=82 time=0.03225805
EXTRACT: note_on channel=5 note=73 velocity=0 time=0.048387075
EXTRACT: note_on channel=2 note=54 velocity=0 time=0
EXTRACT: note_on channel=5 note=69 velocity=0 time=0
EXTRACT: note_on channel=5 note=66 velocity=0 time=0
EXTRACT: note_on channel=2 note=54 velocity=97 time=0.005376341666666667
EXTRACT: note_on channel=3 note=69 velocity=109 time=0
EXTRACT: note_on channel=5 note=66 velocity=96 time=0
EXTRACT: note_on channel=5 note=69 velocity=109 time=0
EXTRACT: note_on channel=5 note=73 velocity=100 time=0
EXTRACT: control_change channel=5 control=11 value=74 time=0
EXTRACT: control_change channel=5 control=11 value=127 time=0
EXTRACT: control_change channel=5 control=11 value=122 time=0.05376341666666667
EXTRACT: control_change channel=5 control=11 value=118 time=0.05376341666666667
EXTRACT: control_change channel=5 control=11 value=114 time=0.05376341666666667
EXTRACT: note_on channel=3 note=69 velocity=0 time=0.043010733333333336
EXTRACT: control_change channel=5 control=11 value=110 time=0.010752683333333334
EXTRACT: control_change channel=5 control=11 value=106 time=0.05376341666666667
EXTRACT: note_on channel=3 note=69 velocity=106 time=0.05376341666666667
EXTRACT: control_change channel=5 control=11 value=102 time=0
EXTRACT: control_change channel=5 control=11 value=98 time=0.05376341666666667
EXTRACT: control_change channel=5 control=11 value=94 time=0.05376341666666667
EXTRACT: control_change channel=5 control=11 value=90 time=0.05376341666666667
EXTRACT: control_change channel=5 control=11 value=86 time=0.05376341666666667
EXTRACT: note_on channel=3 note=69 velocity=0 time=0.005376341666666667
EXTRACT: control_change channel=5 control=11 value=82 time=0.048387075
EXTRACT: note_on channel=5 note=73 velocity=0 time=0.048387075
EXTRACT: note_on channel=5 note=69 velocity=0 time=0
EXTRACT: note_on channel=2 note=54 velocity=0 time=0
EXTRACT: note_on channel=5 note=66 velocity=0 time=0
EXTRACT: note_on channel=2 note=54 velocity=101 time=0.005376341666666667
EXTRACT: note_on channel=3 note=69 velocity=108 time=0
EXTRACT: note_on channel=5 note=66 velocity=99 time=0
EXTRACT: note_on channel=5 note=69 velocity=113 time=0
EXTRACT: note_on channel=5 note=73 velocity=100 time=0
EXTRACT: control_change channel=5 control=11 value=74 time=0
EXTRACT: control_change channel=5 control=11 value=127 time=0
EXTRACT: control_change channel=5 control=11 value=122 time=0.05376341666666667
EXTRACT: control_change channel=5 control=11 value=118 time=0.05376341666666667
EXTRACT: control_change channel=5 control=11 value=114 time=0.05376341666666667
EXTRACT: control_change channel=5 control=11 value=110 time=0.05376341666666667
EXTRACT: control_change channel=5 control=11 value=106 time=0.05376341666666667
EXTRACT: note_on channel=3 note=69 velocity=0 time=0.026881708333333334
EXTRACT: note_on channel=3 note=71 velocity=110 time=0.026881708333333334
EXTRACT: control_change channel=5 control=11 value=102 time=0
EXTRACT: control_change channel=5 control=11 value=98 time=0.05376341666666667
EXTRACT: control_change channel=5 control=11 value=94 time=0.05376341666666667
EXTRACT: control_change channel=5 control=11 value=90 time=0.05376341666666667
EXTRACT: control_change channel=5 control=11 value=86 time=0.05376341666666667
EXTRACT: control_change channel=5 control=11 value=82 time=0.05376341666666667
EXTRACT: note_on channel=5 note=73 velocity=0 time=0.048387075
EXTRACT: note_on channel=5 note=69 velocity=0 time=0
EXTRACT: note_on channel=5 note=66 velocity=0 time=0
EXTRACT: note_on channel=2 note=54 velocity=0 time=0
EXTRACT: note_on channel=2 note=54 velocity=101 time=0.005376341666666667
EXTRACT: note_on channel=3 note=73 velocity=109 time=0
EXTRACT: note_on channel=5 note=66 velocity=97 time=0
EXTRACT: note_on channel=5 note=69 velocity=115 time=0
EXTRACT: note_on channel=5 note=73 velocity=100 time=0
EXTRACT: control_change channel=5 control=11 value=74 time=0
EXTRACT: control_change channel=5 control=11 value=127 time=0
EXTRACT: note_on channel=3 note=71 velocity=0 time=0.010752683333333334
EXTRACT: control_change channel=5 control=11 value=122 time=0.043010733333333336
EXTRACT: control_change channel=5 control=11 value=118 time=0.05376341666666667
EXTRACT: control_change channel=5 control=11 value=114 time=0.05376341666666667
EXTRACT: control_change channel=5 control=11 value=110 time=0.05376341666666667
EXTRACT: note_on channel=3 note=73 velocity=0 time=0.03225805
EXTRACT: control_change channel=5 control=11 value=106 time=0.021505366666666668
EXTRACT: note_on channel=2 note=54 velocity=0 time=0.048387075
EXTRACT: note_on channel=10 note=66 velocity=0 time=0.005376341666666667
EXTRACT: note_on channel=2 note=52 velocity=101 time=0
EXTRACT: note_on channel=3 note=66 velocity=106 time=0
EXTRACT: control_change channel=5 control=11 value=102 time=0
EXTRACT: note_on channel=10 note=64 velocity=100 time=0
EXTRACT: control_change channel=5 control=11 value=98 time=0.05376341666666667
EXTRACT: control_change channel=5 control=11 value=94 time=0.05376341666666667
EXTRACT: note_on channel=2 note=52 velocity=0 time=0.048387075
EXTRACT: note_on channel=10 note=64 velocity=0 time=0.005376341666666667
EXTRACT: note_on channel=2 note=50 velocity=101 time=0
EXTRACT: control_change channel=5 control=11 value=90 time=0
EXTRACT: note_on channel=10 note=62 velocity=100 time=0
EXTRACT: control_change channel=5 control=11 value=86 time=0.05376341666666667
EXTRACT: control_change channel=5 control=11 value=82 time=0.05376341666666667
EXTRACT: note_on channel=3 note=66 velocity=0 time=0.03225805
EXTRACT: note_on channel=2 note=50 velocity=0 time=0.016129025
EXTRACT: note_on channel=5 note=73 velocity=0 time=0
EXTRACT: note_on channel=5 note=66 velocity=0 time=0
EXTRACT: note_on channel=5 note=69 velocity=0 time=0
EXTRACT: note_on channel=10 note=81 velocity=0 time=0.005376341666666667
EXTRACT: note_on channel=10 note=62 velocity=0 time=0
EXTRACT: note_on channel=10 note=73 velocity=0 time=0
EXTRACT: note_on channel=10 note=78 velocity=0 time=0
EXTRACT: note_on channel=2 note=49 velocity=105 time=0
EXTRACT: note_on channel=5 note=64 velocity=94 time=0
EXTRACT: note_on channel=5 note=68 velocity=102 time=0
EXTRACT: note_on channel=5 note=73 velocity=99 time=0
EXTRACT: control_change channel=5 control=11 value=74 time=0
EXTRACT: control_change channel=5 control=11 value=127 time=0
EXTRACT: note_on channel=10 note=73 velocity=100 time=0
EXTRACT: note_on channel=10 note=80 velocity=100 time=0
EXTRACT: note_on channel=10 note=76 velocity=100 time=0
EXTRACT: note_on channel=10 note=61 velocity=100 time=0
EXTRACT: control_change channel=5 control=11 value=122 time=0.05376341666666667
EXTRACT: control_change channel=5 control=11 value=118 time=0.05376341666666667
EXTRACT: note_on channel=3 note=64 velocity=112 time=0.05376341666666667
EXTRACT: control_change channel=5 control=11 value=114 time=0
EXTRACT: control_change channel=5 control=11 value=110 time=0.05376341666666667
EXTRACT: control_change channel=5 control=11 value=106 time=0.05376341666666667
EXTRACT: control_change channel=5 control=11 value=102 time=0.05376341666666667
EXTRACT: control_change channel=5 control=11 value=98 time=0.05376341666666667
EXTRACT: control_change channel=5 control=11 value=94 time=0.05376341666666667
EXTRACT: control_change channel=5 control=11 value=90 time=0.05376341666666667
EXTRACT: control_change channel=5 control=11 value=86 time=0.05376341666666667
EXTRACT: control_change channel=5 control=11 value=82 time=0.05376341666666667
EXTRACT: note_on channel=5 note=73 velocity=0 time=0.048387075
EXTRACT: note_on channel=5 note=68 velocity=0 time=0
EXTRACT: note_on channel=2 note=49 velocity=0 time=0
EXTRACT: note_on channel=5 note=64 velocity=0 time=0
EXTRACT: note_on channel=2 note=49 velocity=97 time=0.005376341666666667
EXTRACT: note_on channel=3 note=69 velocity=109 time=0
EXTRACT: note_on channel=5 note=64 velocity=99 time=0
EXTRACT: note_on channel=5 note=68 velocity=100 time=0
EXTRACT: note_on channel=5 note=73 velocity=98 time=0
EXTRACT: control_change channel=5 control=11 value=74 time=0
EXTRACT: control_change channel=5 control=11 value=127 time=0
EXTRACT: note_on channel=3 note=64 velocity=0 time=0.03225805
EXTRACT: control_change channel=5 control=11 value=122 time=0.021505366666666668
EXTRACT: control_change channel=5 control=11 value=118 time=0.05376341666666667
EXTRACT: control_change channel=5 control=11 value=114 time=0.05376341666666667
EXTRACT: control_change channel=5 control=11 value=110 time=0.05376341666666667
EXTRACT: note_on channel=3 note=69 velocity=0 time=0.021505366666666668
EXTRACT: control_change channel=5 control=11 value=106 time=0.03225805
EXTRACT: note_on channel=3 note=69 velocity=112 time=0.05376341666666667
EXTRACT: control_change channel=5 control=11 value=102 time=0
EXTRACT: control_change channel=5 control=11 value=98 time=0.05376341666666667
EXTRACT: control_change channel=5 control=11 value=94 time=0.05376341666666667
EXTRACT: control_change channel=5 control=11 value=90 time=0.05376341666666667
EXTRACT: note_on channel=3 note=69 velocity=0 time=0.03763439166666667
EXTRACT: control_change channel=5 control=11 value=86 time=0.016129025
EXTRACT: control_change channel=5 control=11 value=82 time=0.05376341666666667
EXTRACT: note_on channel=5 note=73 velocity=0 time=0.048387075
EXTRACT: note_on channel=5 note=64 velocity=0 time=0
EXTRACT: note_on channel=5 note=68 velocity=0 time=0
EXTRACT: note_on channel=2 note=49 velocity=0 time=0
EXTRACT: note_on channel=2 note=49 velocity=96 time=0.005376341666666667
EXTRACT: note_on channel=3 note=69 velocity=110 time=0
EXTRACT: note_on channel=5 note=64 velocity=99 time=0
EXTRACT: note_on channel=5 note=68 velocity=100 time=0
EXTRACT: note_on channel=5 note=73 velocity=101 time=0
EXTRACT: control_change channel=5 control=11 value=74 time=0
EXTRACT: control_change channel=5 control=11 value=127 time=0
EXTRACT: control_change channel=5 control=11 value=122 time=0.05376341666666667
EXTRACT: control_change channel=5 control=11 value=118 time=0.05376341666666667
EXTRACT: control_change channel=5 control=11 value=114 time=0.05376341666666667
EXTRACT: control_change channel=5 control=11 value=110 time=0.05376341666666667
EXTRACT: note_on channel=3 note=69 velocity=0 time=0.03225805
EXTRACT: control_change channel=5 control=11 value=106 time=0.021505366666666668
EXTRACT: note_on channel=3 note=71 velocity=109 time=0.05376341666666667
EXTRACT: control_change channel=5 control=11 value=102 time=0
EXTRACT: control_change channel=5 control=11 value=98 time=0.05376341666666667
EXTRACT: control_change channel=5 control=11 value=94 time=0.05376341666666667
EXTRACT: control_change channel=5 control=11 value=90 time=0.05376341666666667
EXTRACT: control_change channel=5 control=11 value=86 time=0.05376341666666667
EXTRACT: control_change channel=5 control=11 value=82 time=0.05376341666666667
EXTRACT: note_on channel=3 note=71 velocity=0 time=0.005376341666666667
EXTRACT: note_on channel=5 note=73 velocity=0 time=0.043010733333333336
EXTRACT: note_on channel=5 note=68 velocity=0 time=0
EXTRACT: note_on channel=2 note=49 velocity=0 time=0
EXTRACT: note_on channel=5 note=64 velocity=0 time=0
EXTRACT: note_on channel=2 note=49 velocity=96 time=0.005376341666666667
EXTRACT: note_on channel=3 note=73 velocity=105 time=0
EXTRACT: note_on channel=5 note=64 velocity=97 time=0
EXTRACT: note_on channel=5 note=68 velocity=97 time=0
EXTRACT: note_on channel=5 note=73 velocity=97 time=0
EXTRACT: control_change channel=5 control=11 value=74 time=0
EXTRACT: control_change channel=5 control=11 value=127 time=0
EXTRACT: control_change channel=5 control=11 value=122 time=0.05376341666666667
EXTRACT: control_change channel=5 control=11 value=118 time=0.05376341666666667
EXTRACT: control_change channel=5 control=11 value=114 time=0.05376341666666667
EXTRACT: control_change channel=5 control=11 value=110 time=0.05376341666666667
EXTRACT: note_on channel=3 note=73 velocity=0 time=0.03763439166666667
EXTRACT: control_change channel=5 control=11 value=106 time=0.016129025
EXTRACT: note_on channel=3 note=66 velocity=105 time=0.05376341666666667
EXTRACT: control_change channel=5 control=11 value=102 time=0
EXTRACT: control_change channel=5 control=11 value=98 time=0.05376341666666667
EXTRACT: control_change channel=5 control=11 value=94 time=0.05376341666666667
EXTRACT: control_change channel=5 control=11 value=90 time=0.05376341666666667
EXTRACT: control_change channel=5 control=11 value=86 time=0.05376341666666667
EXTRACT: control_change channel=5 control=11 value=82 time=0.05376341666666667
EXTRACT: note_on channel=3 note=66 velocity=0 time=0.005376341666666667
EXTRACT: note_on channel=5 note=73 velocity=0 time=0.043010733333333336
EXTRACT: note_on channel=5 note=68 velocity=0 time=0
EXTRACT: note_on channel=2 note=49 velocity=0 time=0
EXTRACT: note_on channel=5 note=64 velocity=0 time=0
EXTRACT: note_on channel=10 note=80 velocity=0 time=0.005376341666666667
EXTRACT: note_on channel=10 note=73 velocity=0 time=0
EXTRACT: note_on channel=10 note=76 velocity=0 time=0
EXTRACT: note_on channel=10 note=61 velocity=0 time=0
EXTRACT: note_on channel=2 note=52 velocity=101 time=0
EXTRACT: note_on channel=3 note=64 velocity=110 time=0
EXTRACT: note_on channel=5 note=64 velocity=97 time=0
EXTRACT: note_on channel=5 note=68 velocity=101 time=0
EXTRACT: note_on channel=5 note=71 velocity=104 time=0
EXTRACT: control_change channel=5 control=11 value=74 time=0
EXTRACT: control_change channel=5 control=11 value=127 time=0
EXTRACT: note_on channel=10 note=80 velocity=100 time=0
EXTRACT: note_on channel=10 note=76 velocity=100 time=0
EXTRACT: note_on channel=10 note=71 velocity=100 time=0
EXTRACT: note_on channel=10 note=64 velocity=100 time=0
EXTRACT: control_change channel=5 control=11 value=122 time=0.05376341666666667
EXTRACT: control_change channel=5 control=11 value=118 time=0.05376341666666667
EXTRACT: control_change channel=5 control=11 value=114 time=0.05376341666666667
EXTRACT: control_change channel=5 control=11 value=110 time=0.05376341666666667
EXTRACT: control_change channel=5 control=11 value=106 time=0.05376341666666667
EXTRACT: control_change channel=5 control=11 value=102 time=0.05376341666666667
EXTRACT: control_change channel=5 control=11 value=98 time=0.05376341666666667
EXTRACT: control_change channel=5 control=11 value=94 time=0.05376341666666667
EXTRACT: control_change channel=5 control=11 value=90 time=0.05376341666666667
EXTRACT: control_change channel=5 control=11 value=86 time=0.05376341666666667
EXTRACT: control_change channel=5 control=11 value=82 time=0.05376341666666667
EXTRACT: control_change channel=5 control=11 value=74 time=0.05376341666666667
EXTRACT: control_change channel=5 control=11 value=127 time=0
EXTRACT: control_change channel=5 control=11 value=122 time=0.05376341666666667
EXTRACT: control_change channel=5 control=11 value=118 time=0.05376341666666667
EXTRACT: control_change channel=5 control=11 value=114 time=0.05376341666666667
EXTRACT: control_change channel=5 control=11 value=110 time=0.05376341666666667
EXTRACT: control_change channel=5 control=11 value=106 time=0.05376341666666667
EXTRACT: control_change channel=5 control=11 value=102 time=0.05376341666666667
EXTRACT: control_change channel=5 control=11 value=98 time=0.05376341666666667
EXTRACT: control_change channel=5 control=11 value=94 time=0.05376341666666667
EXTRACT: control_change channel=5 control=11 value=90 time=0.05376341666666667
EXTRACT: control_change channel=5 control=11 value=86 time=0.05376341666666667
EXTRACT: control_change channel=5 control=11 value=82 time=0.05376341666666667
EXTRACT: control_change channel=5 control=11 value=74 time=0.05376341666666667
EXTRACT: control_change channel=5 control=11 value=127 time=0
EXTRACT: control_change channel=5 control=11 value=122 time=0.05376341666666667
EXTRACT: control_change channel=5 control=11 value=118 time=0.05376341666666667
EXTRACT: control_change channel=5 control=11 value=114 time=0.05376341666666667
EXTRACT: control_change channel=5 control=11 value=110 time=0.05376341666666667
EXTRACT: control_change channel=5 control=11 value=106 time=0.05376341666666667
EXTRACT: control_change channel=5 control=11 value=102 time=0.05376341666666667
EXTRACT: control_change channel=5 control=11 value=98 time=0.05376341666666667
EXTRACT: control_change channel=5 control=11 value=94 time=0.05376341666666667
EXTRACT: control_change channel=5 control=11 value=90 time=0.05376341666666667
EXTRACT: control_change channel=5 control=11 value=86 time=0.05376341666666667
EXTRACT: note_on channel=3 note=64 velocity=0 time=0.03763439166666667
EXTRACT: control_change channel=5 control=11 value=82 time=0.016129025
EXTRACT: control_change channel=5 control=11 value=74 time=0.05376341666666667
EXTRACT: control_change channel=5 control=11 value=127 time=0
EXTRACT: control_change channel=5 control=11 value=122 time=0.05376341666666667
EXTRACT: control_change channel=5 control=11 value=118 time=0.05376341666666667
EXTRACT: control_change channel=5 control=11 value=114 time=0.05376341666666667
EXTRACT: control_change channel=5 control=11 value=110 time=0.05376341666666667
EXTRACT: control_change channel=5 control=11 value=106 time=0.05376341666666667
EXTRACT: control_change channel=5 control=11 value=102 time=0.05376341666666667
EXTRACT: control_change channel=5 control=11 value=98 time=0.05376341666666667
EXTRACT: control_change channel=5 control=11 value=94 time=0.05376341666666667
EXTRACT: control_change channel=5 control=11 value=90 time=0.05376341666666667
EXTRACT: control_change channel=5 control=11 value=86 time=0.05376341666666667
EXTRACT: control_change channel=5 control=11 value=82 time=0.05376341666666667
EXTRACT: note_on channel=5 note=71 velocity=0 time=0.048387075
EXTRACT: note_on channel=2 note=52 velocity=0 time=0
EXTRACT: note_on channel=5 note=68 velocity=0 time=0
EXTRACT: note_on channel=5 note=64 velocity=0 time=0
EXTRACT: note_on channel=10 note=71 velocity=0 time=0.005376341666666667
EXTRACT: note_on channel=10 note=64 velocity=0 time=0
EXTRACT: note_on channel=10 note=80 velocity=0 time=0
EXTRACT: note_on channel=10 note=76 velocity=0 time=0
EXTRACT: control_change channel=5 control=11 value=74 time=0
EXTRACT: note_on channel=3 note=73 velocity=114 time=0.645161
EXTRACT: note_on channel=3 note=73 velocity=0 time=0.47311806666666667
EXTRACT: note_on channel=3 note=73 velocity=116 time=0.17204293333333334
EXTRACT: note_on channel=3 note=73 velocity=0 time=0.28494610833333334
EXTRACT: note_on channel=3 note=71 velocity=107 time=0.03763439166666667
EXTRACT: note_on channel=3 note=71 velocity=0 time=0.274193425
EXTRACT: note_on channel=3 note=69 velocity=115 time=0.048387075
EXTRACT: note_on channel=3 note=69 velocity=0 time=0.2311826916666667
EXTRACT: note_on channel=3 note=73 velocity=116 time=0.09139780833333334
EXTRACT: note_on channel=3 note=73 velocity=0 time=0.2311826916666667
EXTRACT: note_on channel=0 note=61 velocity=97 time=0.09139780833333334
EXTRACT: note_on channel=0 note=64 velocity=113 time=0
EXTRACT: note_on channel=0 note=69 velocity=112 time=0
EXTRACT: note_on channel=1 note=33 velocity=120 time=0
EXTRACT: note_on channel=3 note=73 velocity=116 time=0
EXTRACT: note_on channel=7 note=45 velocity=105 time=0
EXTRACT: note_on channel=7 note=52 velocity=109 time=0
EXTRACT: note_on channel=9 note=36 velocity=120 time=0
EXTRACT: note_on channel=10 note=73 velocity=100 time=0
EXTRACT: note_on channel=10 note=69 velocity=100 time=0
EXTRACT: note_on channel=10 note=76 velocity=100 time=0
EXTRACT: note_on channel=9 note=36 velocity=0 time=0.145161225
EXTRACT: control_change channel=0 control=64 value=127 time=0
EXTRACT: note_on channel=0 note=69 velocity=0 time=0.16666659166666667
EXTRACT: note_on channel=0 note=57 velocity=106 time=0.010752683333333334
EXTRACT: note_on channel=0 note=64 velocity=0 time=0.010752683333333334
EXTRACT: note_on channel=0 note=61 velocity=0 time=0.026881708333333334
EXTRACT: note_on channel=9 note=36 velocity=120 time=0.12365585833333334
EXTRACT: note_on channel=9 note=36 velocity=0 time=0.11827951666666667
EXTRACT: note_on channel=0 note=61 velocity=99 time=0.043010733333333336
EXTRACT: note_on channel=0 note=64 velocity=115 time=0
EXTRACT: note_on channel=0 note=69 velocity=112 time=0
EXTRACT: note_on channel=9 note=38 velocity=120 time=0
EXTRACT: note_on channel=9 note=39 velocity=120 time=0
EXTRACT: note_on channel=0 note=57 velocity=0 time=0.048387075
EXTRACT: note_on channel=9 note=38 velocity=0 time=0.0645161
EXTRACT: note_on channel=9 note=39 velocity=0 time=0.016129025
EXTRACT: note_on channel=0 note=69 velocity=0 time=0.080645125
EXTRACT: note_on channel=0 note=64 velocity=0 time=0.016129025
EXTRACT: note_on channel=0 note=61 velocity=0 time=0.005376341666666667
EXTRACT: note_on channel=0 note=57 velocity=92 time=0.09139780833333334
EXTRACT: note_on channel=9 note=36 velocity=120 time=0
EXTRACT: note_on channel=9 note=36 velocity=0 time=0.15053756666666668
EXTRACT: note_on channel=0 note=57 velocity=0 time=0.15053756666666668
EXTRACT: note_on channel=0 note=61 velocity=99 time=0.021505366666666668
EXTRACT: note_on channel=0 note=64 velocity=112 time=0
EXTRACT: note_on channel=0 note=69 velocity=112 time=0
EXTRACT: note_on channel=0 note=64 velocity=0 time=0.2311826916666667
EXTRACT: note_on channel=0 note=69 velocity=0 time=0.005376341666666667
EXTRACT: note_on channel=0 note=61 velocity=0 time=0.021505366666666668
EXTRACT: note_on channel=0 note=57 velocity=100 time=0.0645161
EXTRACT: note_on channel=9 note=36 velocity=120 time=0
EXTRACT: note_on channel=0 note=57 velocity=0 time=0.11827951666666667
EXTRACT: note_on channel=9 note=36 velocity=0 time=0.010752683333333334
EXTRACT: note_on channel=0 note=61 velocity=100 time=0.1935483
EXTRACT: note_on channel=0 note=64 velocity=115 time=0
EXTRACT: note_on channel=0 note=69 velocity=113 time=0
EXTRACT: note_on channel=9 note=38 velocity=120 time=0
EXTRACT: note_on channel=9 note=39 velocity=120 time=0
EXTRACT: note_on channel=0 note=64 velocity=0 time=0.10215049166666668
EXTRACT: note_on channel=0 note=61 velocity=0 time=0.005376341666666667
EXTRACT: note_on channel=9 note=38 velocity=0 time=0.010752683333333334
EXTRACT: note_on channel=9 note=39 velocity=0 time=0.010752683333333334
EXTRACT: note_on channel=0 note=69 velocity=0 time=0.005376341666666667
EXTRACT: note_on channel=0 note=57 velocity=99 time=0.18817195833333333
EXTRACT: note_on channel=3 note=73 velocity=0 time=0.21505366666666667
EXTRACT: note_on channel=0 note=57 velocity=0 time=0.0645161
EXTRACT: control_change channel=0 control=64 value=0 time=0
EXTRACT: note_on channel=7 note=52 velocity=0 time=0.03763439166666667
EXTRACT: note_on channel=1 note=33 velocity=0 time=0
EXTRACT: note_on channel=7 note=45 velocity=0 time=0
EXTRACT: note_on channel=10 note=76 velocity=0 time=0.005376341666666667
EXTRACT: note_on channel=10 note=69 velocity=0 time=0
EXTRACT: note_on channel=10 note=73 velocity=0 time=0
EXTRACT: note_on channel=0 note=66 velocity=109 time=0
EXTRACT: note_on channel=0 note=69 velocity=116 time=0
EXTRACT: note_on channel=0 note=73 velocity=101 time=0
EXTRACT: note_on channel=1 note=30 velocity=120 time=0
EXTRACT: note_on channel=7 note=42 velocity=101 time=0
EXTRACT: note_on channel=7 note=49 velocity=101 time=0
EXTRACT: note_on channel=9 note=36 velocity=120 time=0
EXTRACT: note_on channel=10 note=66 velocity=100 time=0
EXTRACT: note_on channel=10 note=73 velocity=100 time=0
EXTRACT: note_on channel=10 note=69 velocity=100 time=0
EXTRACT: note_on channel=9 note=36 velocity=0 time=0.145161225
EXTRACT: control_change channel=0 control=64 value=127 time=0.021505366666666668
EXTRACT: note_on channel=0 note=69 velocity=0 time=0.1290322
EXTRACT: note_on channel=0 note=73 velocity=0 time=0.016129025
EXTRACT: note_on channel=0 note=54 velocity=84 time=0.010752683333333334
EXTRACT: note_on channel=0 note=66 velocity=0 time=0.043010733333333336
EXTRACT: note_on channel=9 note=36 velocity=120 time=0.11827951666666667
EXTRACT: note_on channel=9 note=36 velocity=0 time=0.09677415
EXTRACT: note_on channel=0 note=54 velocity=0 time=0.048387075
EXTRACT: note_on channel=0 note=66 velocity=101 time=0.016129025
EXTRACT: note_on channel=0 note=69 velocity=115 time=0
EXTRACT: note_on channel=0 note=73 velocity=96 time=0
EXTRACT: note_on channel=3 note=73 velocity=116 time=0
EXTRACT: note_on channel=9 note=38 velocity=120 time=0
EXTRACT: note_on channel=9 note=39 velocity=120 time=0
EXTRACT: note_on channel=9 note=38 velocity=0 time=0.10752683333333334
EXTRACT: note_on channel=9 note=39 velocity=0 time=0.005376341666666667
EXTRACT: note_on channel=0 note=69 velocity=0 time=0.17204293333333334
EXTRACT: note_on channel=0 note=66 velocity=0 time=0.026881708333333334
EXTRACT: note_on channel=0 note=54 velocity=97 time=0.010752683333333334
EXTRACT: note_on channel=9 note=36 velocity=120 time=0
EXTRACT: note_on channel=0 note=73 velocity=0 time=0.059139758333333334
EXTRACT: note_on channel=9 note=36 velocity=0 time=0.06989244166666667
EXTRACT: note_on channel=3 note=73 velocity=0 time=0.010752683333333334
EXTRACT: note_on channel=0 note=66 velocity=105 time=0.1827956166666667
EXTRACT: note_on channel=0 note=69 velocity=115 time=0
EXTRACT: note_on channel=0 note=73 velocity=94 time=0
EXTRACT: note_on channel=3 note=73 velocity=119 time=0
EXTRACT: note_on channel=0 note=54 velocity=0 time=0.026881708333333334
EXTRACT: note_on channel=0 note=69 velocity=0 time=0.2580644
EXTRACT: note_on channel=3 note=73 velocity=0 time=0.005376341666666667
EXTRACT: note_on channel=0 note=66 velocity=0 time=0.005376341666666667
EXTRACT: note_on channel=0 note=73 velocity=0 time=0.016129025
EXTRACT: note_on channel=0 note=54 velocity=95 time=0.010752683333333334
EXTRACT: note_on channel=3 note=71 velocity=108 time=0
EXTRACT: note_on channel=9 note=36 velocity=120 time=0
EXTRACT: note_on channel=9 note=36 velocity=0 time=0.11827951666666667
EXTRACT: note_on channel=3 note=71 velocity=0 time=0.1344085416666667
EXTRACT: note_on channel=0 note=54 velocity=0 time=0.021505366666666668
EXTRACT: note_on channel=0 note=66 velocity=106 time=0.048387075
EXTRACT: note_on channel=0 note=69 velocity=115 time=0
EXTRACT: note_on channel=0 note=73 velocity=94 time=0
EXTRACT: note_on channel=3 note=69 velocity=108 time=0
EXTRACT: note_on channel=9 note=38 velocity=120 time=0
EXTRACT: note_on channel=9 note=39 velocity=120 time=0
EXTRACT: note_on channel=9 note=38 velocity=0 time=0.10215049166666668
EXTRACT: note_on channel=9 note=39 velocity=0 time=0.010752683333333334
EXTRACT: note_on channel=0 note=69 velocity=0 time=0.048387075
EXTRACT: note_on channel=0 note=73 velocity=0 time=0.016129025
EXTRACT: note_on channel=3 note=69 velocity=0 time=0.005376341666666667
EXTRACT: note_on channel=0 note=66 velocity=0 time=0.016129025
EXTRACT: note_on channel=1 note=30 velocity=0 time=0.11827951666666667
EXTRACT: note_on channel=0 note=54 velocity=91 time=0.005376341666666667
EXTRACT: note_on channel=1 note=26 velocity=120 time=0
EXTRACT: note_on channel=3 note=71 velocity=115 time=0
EXTRACT: note_on channel=3 note=71 velocity=0 time=0.24731171666666668
EXTRACT: note_on channel=1 note=26 velocity=0 time=0.06989244166666667
EXTRACT: note_on channel=7 note=49 velocity=0 time=0
EXTRACT: note_on channel=7 note=42 velocity=0 time=0
EXTRACT: note_on channel=10 note=69 velocity=0 time=0.005376341666666667
EXTRACT: note_on channel=10 note=73 velocity=0 time=0
EXTRACT: note_on channel=10 note=66 velocity=0 time=0
EXTRACT: note_on channel=0 note=61 velocity=97 time=0
EXTRACT: note_on channel=0 note=64 velocity=112 time=0
EXTRACT: note_on channel=0 note=68 velocity=105 time=0
EXTRACT: note_on channel=1 note=25 velocity=120 time=0
EXTRACT: note_on channel=3 note=71 velocity=116 time=0
EXTRACT: note_on channel=7 note=37 velocity=103 time=0
EXTRACT: note_on channel=7 note=44 velocity=106 time=0
EXTRACT: note_on channel=9 note=36 velocity=120 time=0
EXTRACT: note_on channel=10 note=73 velocity=100 time=0
EXTRACT: note_on channel=10 note=76 velocity=100 time=0
EXTRACT: note_on channel=10 note=68 velocity=100 time=0
EXTRACT: control_change channel=0 control=64 value=0 time=0.026881708333333334
EXTRACT: note_on channel=0 note=54 velocity=0 time=0.005376341666666667
EXTRACT: note_on channel=9 note=36 velocity=0 time=0.10215049166666668
EXTRACT: control_change channel=0 control=64 value=127 time=0.145161225
EXTRACT: note_on channel=0 note=68 velocity=0 time=0.03763439166666667
EXTRACT: note_on channel=0 note=49 velocity=83 time=0.005376341666666667
EXTRACT: note_on channel=0 note=61 velocity=0 time=0.005376341666666667
EXTRACT: note_on channel=0 note=64 velocity=0 time=0
EXTRACT: note_on channel=9 note=36 velocity=120 time=0.15591390833333335
EXTRACT: note_on channel=9 note=36 velocity=0 time=0.09139780833333334
EXTRACT: note_on channel=0 note=61 velocity=97 time=0.06989244166666667
EXTRACT: note_on channel=0 note=64 velocity=113 time=0
EXTRACT: note_on channel=0 note=68 velocity=101 time=0
EXTRACT: note_on channel=9 note=38 velocity=120 time=0
EXTRACT: note_on channel=9 note=39 velocity=120 time=0
EXTRACT: note_on channel=0 note=49 velocity=0 time=0.005376341666666667
EXTRACT: note_on channel=9 note=38 velocity=0 time=0.11827951666666667
EXTRACT: note_on channel=9 note=39 velocity=0 time=0.005376341666666667
EXTRACT: note_on channel=3 note=71 velocity=0 time=0.016129025
EXTRACT: note_on channel=3 note=69 velocity=106 time=0.016129025
EXTRACT: note_on channel=3 note=69 velocity=0 time=0.15591390833333335
EXTRACT: note_on channel=0 note=49 velocity=94 time=0.005376341666666667
EXTRACT: note_on channel=3 note=68 velocity=116 time=0
EXTRACT: note_on channel=9 note=36 velocity=120 time=0
EXTRACT: note_on channel=0 note=68 velocity=0 time=0.005376341666666667
EXTRACT: note_on channel=0 note=64 velocity=0 time=0
EXTRACT: note_on channel=0 note=61 velocity=0 time=0.03763439166666667
EXTRACT: note_on channel=9 note=36 velocity=0 time=0.09677415
EXTRACT: note_on channel=3 note=66 velocity=110 time=0.021505366666666668
EXTRACT: note_on channel=3 note=68 velocity=0 time=0.03763439166666667
EXTRACT: note_on channel=0 note=49 velocity=0 time=0.09139780833333334
EXTRACT: note_on channel=0 note=61 velocity=96 time=0.03225805
EXTRACT: note_on channel=0 note=64 velocity=113 time=0
EXTRACT: note_on channel=0 note=68 velocity=106 time=0
EXTRACT: note_on channel=3 note=64 velocity=110 time=0
EXTRACT: note_on channel=3 note=66 velocity=0 time=0.010752683333333334
EXTRACT: note_on channel=0 note=64 velocity=0 time=0.2634407416666667
EXTRACT: note_on channel=0 note=68 velocity=0 time=0.010752683333333334
EXTRACT: note_on channel=0 note=61 velocity=0 time=0.03225805
EXTRACT: note_on channel=0 note=49 velocity=85 time=0.005376341666666667
EXTRACT: note_on channel=9 note=36 velocity=120 time=0
EXTRACT: note_on channel=9 note=36 velocity=0 time=0.11827951666666667
EXTRACT: note_on channel=0 note=49 velocity=0 time=0.18817195833333333
EXTRACT: note_on channel=0 note=61 velocity=96 time=0.016129025
EXTRACT: note_on channel=0 note=64 velocity=112 time=0
EXTRACT: note_on channel=0 note=68 velocity=107 time=0
EXTRACT: note_on channel=9 note=38 velocity=120 time=0
EXTRACT: note_on channel=9 note=39 velocity=120 time=0
EXTRACT: note_on channel=9 note=38 velocity=0 time=0.11290317500000001
EXTRACT: note_on channel=9 note=39 velocity=0 time=0.010752683333333334
EXTRACT: note_on channel=0 note=64 velocity=0 time=0.11827951666666667
EXTRACT: note_on channel=0 note=61 velocity=0 time=0.010752683333333334
EXTRACT: note_on channel=0 note=68 velocity=0 time=0
EXTRACT: note_on channel=3 note=64 velocity=0 time=0.03225805
EXTRACT: note_on channel=0 note=49 velocity=88 time=0.03763439166666667
EXTRACT: note_on channel=3 note=66 velocity=116 time=0
EXTRACT: note_on channel=3 note=66 velocity=0 time=0.16129025
EXTRACT: note_on channel=3 note=69 velocity=111 time=0
EXTRACT: control_change channel=0 control=64 value=0 time=0.145161225
EXTRACT: note_on channel=7 note=37 velocity=0 time=0.010752683333333334
EXTRACT: note_on channel=7 note=44 velocity=0 time=0
EXTRACT: note_on channel=1 note=25 velocity=0 time=0
EXTRACT: note_on channel=10 note=68 velocity=0 time=0.005376341666666667
EXTRACT: note_on channel=10 note=73 velocity=0 time=0
EXTRACT: note_on channel=10 note=76 velocity=0 time=0
EXTRACT: note_on channel=0 note=49 velocity=0 time=0
EXTRACT: note_on channel=0 note=59 velocity=105 time=0
EXTRACT: note_on channel=0 note=64 velocity=113 time=0
EXTRACT: note_on channel=0 note=68 velocity=106 time=0
EXTRACT: note_on channel=1 note=28 velocity=120 time=0
EXTRACT: note_on channel=7 note=40 velocity=104 time=0
EXTRACT: note_on channel=7 note=47 velocity=112 time=0
EXTRACT: note_on channel=9 note=36 velocity=120 time=0
EXTRACT: note_on channel=10 note=68 velocity=100 time=0
EXTRACT: note_on channel=10 note=76 velocity=100 time=0
EXTRACT: note_on channel=10 note=71 velocity=100 time=0
EXTRACT: note_on channel=9 note=36 velocity=0 time=0.12365585833333334
EXTRACT: control_change channel=0 control=64 value=127 time=0.03225805
EXTRACT: note_on channel=3 note=69 velocity=0 time=0.016129025
EXTRACT: note_on channel=0 note=52 velocity=80 time=0.15053756666666668
EXTRACT: note_on channel=0 note=68 velocity=0 time=0.059139758333333334
EXTRACT: note_on channel=0 note=64 velocity=0 time=0
EXTRACT: note_on channel=0 note=59 velocity=0 time=0.010752683333333334
EXTRACT: note_on channel=9 note=36 velocity=120 time=0.09139780833333334
EXTRACT: note_on channel=9 note=36 velocity=0 time=0.09139780833333334
EXTRACT: note_on channel=0 note=52 velocity=0 time=0.021505366666666668
EXTRACT: note_on channel=0 note=59 velocity=94 time=0.048387075
EXTRACT: note_on channel=0 note=64 velocity=107 time=0
EXTRACT: note_on channel=0 note=68 velocity=95 time=0
EXTRACT: note_on channel=9 note=38 velocity=120 time=0
EXTRACT: note_on channel=9 note=39 velocity=120 time=0
EXTRACT: note_on channel=9 note=38 velocity=0 time=0.09677415
EXTRACT: note_on channel=9 note=39 velocity=0 time=0.005376341666666667
EXTRACT: note_on channel=0 note=64 velocity=0 time=0.21505366666666667
EXTRACT: note_on channel=0 note=52 velocity=82 time=0.005376341666666667
EXTRACT: note_on channel=3 note=73 velocity=101 time=0
EXTRACT: note_on channel=9 note=36 velocity=120 time=0
EXTRACT: note_on channel=0 note=68 velocity=0 time=0.016129025
EXTRACT: note_on channel=0 note=59 velocity=0 time=0.005376341666666667
EXTRACT: note_on channel=9 note=36 velocity=0 time=0.10215049166666668
EXTRACT: note_on channel=3 note=73 velocity=0 time=0.09677415
EXTRACT: note_on channel=0 note=52 velocity=0 time=0.026881708333333334
EXTRACT: note_on channel=0 note=59 velocity=102 time=0.07526878333333334
EXTRACT: note_on channel=0 note=64 velocity=109 time=0
EXTRACT: note_on channel=0 note=68 velocity=100 time=0
EXTRACT: note_on channel=3 note=73 velocity=112 time=0
EXTRACT: note_on channel=3 note=73 velocity=0 time=0.25268805833333335
EXTRACT: note_on channel=0 note=64 velocity=0 time=0.059139758333333334
EXTRACT: note_on channel=0 note=68 velocity=0 time=0.010752683333333334
EXTRACT: note_on channel=0 note=52 velocity=93 time=0
EXTRACT: note_on channel=3 note=71 velocity=111 time=0
EXTRACT: note_on channel=9 note=36 velocity=120 time=0
EXTRACT: note_on channel=0 note=59 velocity=0 time=0.016129025
EXTRACT: note_on channel=9 note=36 velocity=0 time=0.10752683333333334
EXTRACT: note_on channel=0 note=52 velocity=0 time=0.09139780833333334
EXTRACT: note_on channel=3 note=71 velocity=0 time=0.048387075
EXTRACT: note_on channel=0 note=59 velocity=104 time=0.059139758333333334
EXTRACT: note_on channel=0 note=64 velocity=109 time=0
EXTRACT: note_on channel=0 note=68 velocity=100 time=0
EXTRACT: note_on channel=3 note=69 velocity=107 time=0
EXTRACT: note_on channel=9 note=38 velocity=120 time=0
EXTRACT: note_on channel=9 note=39 velocity=120 time=0
EXTRACT: note_on channel=9 note=39 velocity=0 time=0.10215049166666668
EXTRACT: note_on channel=9 note=38 velocity=0 time=0
EXTRACT: note_on channel=3 note=69 velocity=0 time=0.1290322
EXTRACT: note_on channel=0 note=59 velocity=0 time=0
EXTRACT: note_on channel=0 note=64 velocity=0 time=0.005376341666666667
EXTRACT: note_on channel=0 note=68 velocity=0 time=0.005376341666666667
EXTRACT: note_on channel=1 note=28 velocity=0 time=0.07526878333333334
EXTRACT: note_on channel=0 note=52 velocity=92 time=0.005376341666666667
EXTRACT: note_on channel=1 note=30 velocity=120 time=0
EXTRACT: note_on channel=3 note=73 velocity=120 time=0
EXTRACT: note_on channel=3 note=73 velocity=0 time=0.23655903333333334
EXTRACT: note_on channel=0 note=52 velocity=0 time=0.026881708333333334
EXTRACT: control_change channel=0 control=64 value=0 time=0.016129025
EXTRACT: note_on channel=7 note=40 velocity=0 time=0.03763439166666667
EXTRACT: note_on channel=7 note=47 velocity=0 time=0
EXTRACT: note_on channel=1 note=30 velocity=0 time=0
EXTRACT: note_on channel=10 note=76 velocity=0 time=0.005376341666666667
EXTRACT: note_on channel=10 note=68 velocity=0 time=0
EXTRACT: note_on channel=10 note=71 velocity=0 time=0
EXTRACT: note_on channel=0 note=61 velocity=95 time=0
EXTRACT: note_on channel=0 note=64 velocity=112 time=0
EXTRACT: note_on channel=0 note=69 velocity=107 time=0
EXTRACT: note_on channel=1 note=33 velocity=120 time=0
EXTRACT: note_on channel=3 note=73 velocity=114 time=0
EXTRACT: note_on channel=7 note=45 velocity=106 time=0
EXTRACT: note_on channel=7 note=52 velocity=109 time=0
EXTRACT: note_on channel=9 note=36 velocity=120 time=0
EXTRACT: note_on channel=10 note=73 velocity=100 time=0
EXTRACT: note_on channel=10 note=69 velocity=100 time=0
EXTRACT: note_on channel=10 note=76 velocity=100 time=0
EXTRACT: note_on channel=9 note=36 velocity=0 time=0.145161225
EXTRACT: control_change channel=0 control=64 value=127 time=0.080645125
EXTRACT: note_on channel=0 note=57 velocity=91 time=0.09677415
EXTRACT: note_on channel=0 note=69 velocity=0 time=0.010752683333333334
EXTRACT: note_on channel=0 note=64 velocity=0 time=0.016129025
EXTRACT: note_on channel=0 note=61 velocity=0 time=0.016129025
EXTRACT: note_on channel=9 note=36 velocity=120 time=0.11827951666666667
EXTRACT: note_on channel=9 note=36 velocity=0 time=0.11827951666666667
EXTRACT: note_on channel=0 note=57 velocity=0 time=0.03225805
EXTRACT: note_on channel=0 note=61 velocity=94 time=0.010752683333333334
EXTRACT: note_on channel=0 note=64 velocity=111 time=0
EXTRACT: note_on channel=0 note=69 velocity=108 time=0
EXTRACT: note_on channel=9 note=38 velocity=120 time=0
EXTRACT: note_on channel=9 note=39 velocity=120 time=0
EXTRACT: note_on channel=9 note=38 velocity=0 time=0.11290317500000001
EXTRACT: note_on channel=9 note=39 velocity=0 time=0.016129025
EXTRACT: note_on channel=0 note=69 velocity=0 time=0.16666659166666667
EXTRACT: note_on channel=0 note=64 velocity=0 time=0.010752683333333334
EXTRACT: note_on channel=0 note=57 velocity=99 time=0.016129025
EXTRACT: note_on channel=9 note=36 velocity=120 time=0
EXTRACT: note_on channel=0 note=61 velocity=0 time=0.03225805
EXTRACT: note_on channel=9 note=36 velocity=0 time=0.11827951666666667
EXTRACT: note_on channel=0 note=61 velocity=97 time=0.17204293333333334
EXTRACT: note_on channel=0 note=64 velocity=113 time=0
EXTRACT: note_on channel=0 note=69 velocity=116 time=0
EXTRACT: note_on channel=0 note=57 velocity=0 time=0.016129025
EXTRACT: note_on channel=0 note=64 velocity=0 time=0.29032245
EXTRACT: note_on channel=0 note=69 velocity=0 time=0.005376341666666667
EXTRACT: note_on channel=0 note=57 velocity=97 time=0.010752683333333334
EXTRACT: note_on channel=9 note=36 velocity=120 time=0
EXTRACT: note_on channel=0 note=61 velocity=0 time=0.010752683333333334
EXTRACT: note_on channel=9 note=36 velocity=0 time=0.11827951666666667
EXTRACT: note_on channel=0 note=57 velocity=0 time=0.16129025
EXTRACT: note_on channel=0 note=61 velocity=97 time=0.03225805
EXTRACT: note_on channel=0 note=64 velocity=113 time=0
EXTRACT: note_on channel=0 note=69 velocity=113 time=0
EXTRACT: note_on channel=9 note=38 velocity=120 time=0
EXTRACT: note_on channel=9 note=39 velocity=120 time=0
EXTRACT: note_on channel=9 note=38 velocity=0 time=0.11827951666666667
EXTRACT: note_on channel=0 note=64 velocity=0 time=0.010752683333333334
EXTRACT: note_on channel=9 note=39 velocity=0 time=0
EXTRACT: note_on channel=0 note=69 velocity=0 time=0.026881708333333334
EXTRACT: note_on channel=0 note=61 velocity=0 time=0.005376341666666667
EXTRACT: note_on channel=0 note=57 velocity=93 time=0.16129025
EXTRACT: note_on channel=3 note=73 velocity=0 time=0.209677325
EXTRACT: control_change channel=0 control=64 value=0 time=0.080645125
EXTRACT: note_on channel=0 note=57 velocity=0 time=0.016129025
EXTRACT: note_on channel=7 note=52 velocity=0 time=0.010752683333333334
EXTRACT: note_on channel=1 note=33 velocity=0 time=0
EXTRACT: note_on channel=7 note=45 velocity=0 time=0
EXTRACT: note_on channel=10 note=73 velocity=0 time=0.005376341666666667
EXTRACT: note_on channel=10 note=69 velocity=0 time=0
EXTRACT: note_on channel=10 note=76 velocity=0 time=0
EXTRACT: note_on channel=0 note=66 velocity=101 time=0
EXTRACT: note_on channel=0 note=69 velocity=106 time=0
EXTRACT: note_on channel=0 note=73 velocity=95 time=0
EXTRACT: note_on channel=1 note=30 velocity=120 time=0
EXTRACT: note_on channel=7 note=42 velocity=100 time=0
EXTRACT: note_on channel=7 note=49 velocity=103 time=0
EXTRACT: note_on channel=9 note=36 velocity=120 time=0
EXTRACT: note_on channel=10 note=73 velocity=100 time=0
EXTRACT: note_on channel=10 note=66 velocity=100 time=0
EXTRACT: note_on channel=10 note=69 velocity=100 time=0
EXTRACT: note_on channel=9 note=36 velocity=0 time=0.145161225
EXTRACT: control_change channel=0 control=64 value=127 time=0.03763439166666667
EXTRACT: note_on channel=0 note=54 velocity=88 time=0.13978488333333333
EXTRACT: note_on channel=0 note=69 velocity=0 time=0.010752683333333334
EXTRACT: note_on channel=0 note=73 velocity=0 time=0.043010733333333336
EXTRACT: note_on channel=0 note=66 velocity=0 time=0.005376341666666667
EXTRACT: note_on channel=9 note=36 velocity=120 time=0.10215049166666668
EXTRACT: note_on channel=9 note=36 velocity=0 time=0.09677415
EXTRACT: note_on channel=0 note=66 velocity=103 time=0.0645161
EXTRACT: note_on channel=0 note=69 velocity=116 time=0
EXTRACT: note_on channel=0 note=73 velocity=99 time=0
EXTRACT: note_on channel=3 note=73 velocity=112 time=0
EXTRACT: note_on channel=9 note=38 velocity=120 time=0
EXTRACT: note_on channel=9 note=39 velocity=120 time=0
EXTRACT: note_on channel=0 note=54 velocity=0 time=0.005376341666666667
EXTRACT: note_on channel=9 note=38 velocity=0 time=0.10215049166666668
EXTRACT: note_on channel=9 note=39 velocity=0 time=0.005376341666666667
EXTRACT: note_on channel=0 note=54 velocity=96 time=0.209677325
EXTRACT: note_on channel=9 note=36 velocity=120 time=0
EXTRACT: note_on channel=0 note=69 velocity=0 time=0.005376341666666667
EXTRACT: note_on channel=0 note=66 velocity=0 time=0.021505366666666668
EXTRACT: note_on channel=0 note=73 velocity=0 time=0.021505366666666668
EXTRACT: note_on channel=3 note=73 velocity=0 time=0.03763439166666667
EXTRACT: note_on channel=9 note=36 velocity=0 time=0.043010733333333336
EXTRACT: note_on channel=0 note=54 velocity=0 time=0.11827951666666667
EXTRACT: note_on channel=0 note=66 velocity=102 time=0.07526878333333334
EXTRACT: note_on channel=0 note=69 velocity=115 time=0
EXTRACT: note_on channel=0 note=73 velocity=98 time=0
EXTRACT: note_on channel=3 note=73 velocity=116 time=0
EXTRACT: note_on channel=0 note=69 velocity=0 time=0.241935375
EXTRACT: note_on channel=3 note=73 velocity=0 time=0.021505366666666668
EXTRACT: note_on channel=0 note=66 velocity=0 time=0.010752683333333334
EXTRACT: note_on channel=0 note=54 velocity=85 time=0.048387075
EXTRACT: note_on channel=3 note=71 velocity=107 time=0
EXTRACT: note_on channel=9 note=36 velocity=120 time=0
EXTRACT: note_on channel=0 note=73 velocity=0 time=0.005376341666666667
EXTRACT: note_on channel=9 note=36 velocity=0 time=0.11290317500000001
EXTRACT: note_on channel=0 note=54 velocity=0 time=0.11827951666666667
EXTRACT: note_on channel=3 note=71 velocity=0 time=0.016129025
EXTRACT: note_on channel=0 note=66 velocity=104 time=0.06989244166666667
EXTRACT: note_on channel=0 note=69 velocity=113 time=0
EXTRACT: note_on channel=0 note=73 velocity=103 time=0
EXTRACT: note_on channel=3 note=69 velocity=112 time=0
EXTRACT: note_on channel=9 note=38 velocity=120 time=0
EXTRACT: note_on channel=9 note=39 velocity=120 time=0
EXTRACT: note_on channel=9 note=38 velocity=0 time=0.10215049166666668
EXTRACT: note_on channel=9 note=39 velocity=0 time=0.010752683333333334
EXTRACT: note_on channel=0 note=73 velocity=0 time=0.05376341666666667
EXTRACT: note_on channel=0 note=69 velocity=0 time=0.005376341666666667
EXTRACT: note_on channel=0 note=66 velocity=0 time=0.043010733333333336
EXTRACT: note_on channel=3 note=69 velocity=0 time=0.021505366666666668
EXTRACT: note_on channel=1 note=30 velocity=0 time=0.080645125
EXTRACT: note_on channel=0 note=54 velocity=97 time=0.005376341666666667
EXTRACT: note_on channel=1 note=26 velocity=120 time=0
EXTRACT: note_on channel=3 note=71 velocity=112 time=0
EXTRACT: note_on channel=3 note=71 velocity=0 time=0.22580635000000002
EXTRACT: note_on channel=0 note=54 velocity=0 time=0.048387075
EXTRACT: note_on channel=7 note=49 velocity=0 time=0.043010733333333336
EXTRACT: note_on channel=7 note=42 velocity=0 time=0
EXTRACT: note_on channel=1 note=26 velocity=0 time=0
EXTRACT: note_on channel=10 note=73 velocity=0 time=0.005376341666666667
EXTRACT: note_on channel=10 note=69 velocity=0 time=0
EXTRACT: note_on channel=10 note=66 velocity=0 time=0
EXTRACT: note_on channel=0 note=61 velocity=101 time=0
EXTRACT: note_on channel=0 note=64 velocity=107 time=0
EXTRACT: note_on channel=0 note=68 velocity=94 time=0
EXTRACT: note_on channel=1 note=25 velocity=120 time=0
EXTRACT: note_on channel=3 note=71 velocity=116 time=0
EXTRACT: note_on channel=7 note=37 velocity=104 time=0
EXTRACT: note_on channel=7 note=44 velocity=105 time=0
EXTRACT: note_on channel=9 note=36 velocity=120 time=0
EXTRACT: note_on channel=10 note=73 velocity=100 time=0
EXTRACT: note_on channel=10 note=76 velocity=100 time=0
EXTRACT: note_on channel=10 note=68 velocity=100 time=0
EXTRACT: control_change channel=0 control=64 value=0 time=0.043010733333333336
EXTRACT: note_on channel=9 note=36 velocity=0 time=0.09139780833333334
EXTRACT: control_change channel=0 control=64 value=127 time=0.09677415
EXTRACT: note_on channel=0 note=64 velocity=0 time=0.043010733333333336
EXTRACT: note_on channel=0 note=61 velocity=0 time=0.03763439166666667
EXTRACT: note_on channel=0 note=49 velocity=87 time=0.010752683333333334
EXTRACT: note_on channel=0 note=68 velocity=0 time=0.010752683333333334
EXTRACT: note_on channel=9 note=36 velocity=120 time=0.15053756666666668
EXTRACT: note_on channel=9 note=36 velocity=0 time=0.09139780833333334
EXTRACT: note_on channel=0 note=49 velocity=0 time=0.048387075
EXTRACT: note_on channel=0 note=61 velocity=105 time=0.021505366666666668
EXTRACT: note_on channel=0 note=64 velocity=113 time=0
EXTRACT: note_on channel=0 note=68 velocity=101 time=0
EXTRACT: note_on channel=9 note=38 velocity=120 time=0
EXTRACT: note_on channel=9 note=39 velocity=120 time=0
EXTRACT: note_on channel=9 note=38 velocity=0 time=0.12365585833333334
EXTRACT: note_on channel=9 note=39 velocity=0 time=0.005376341666666667
EXTRACT: note_on channel=3 note=71 velocity=0 time=0.026881708333333334
EXTRACT: note_on channel=3 note=69 velocity=104 time=0.005376341666666667
EXTRACT: note_on channel=0 note=64 velocity=0 time=0.09139780833333334
EXTRACT: note_on channel=0 note=61 velocity=0 time=0.016129025
EXTRACT: note_on channel=0 note=68 velocity=0 time=0.043010733333333336
EXTRACT: note_on channel=3 note=69 velocity=0 time=0.005376341666666667
EXTRACT: note_on channel=0 note=49 velocity=93 time=0.005376341666666667
EXTRACT: note_on channel=3 note=68 velocity=120 time=0
EXTRACT: note_on channel=9 note=36 velocity=120 time=0
EXTRACT: note_on channel=9 note=36 velocity=0 time=0.13978488333333333
EXTRACT: note_on channel=3 note=68 velocity=0 time=0.021505366666666668
EXTRACT: note_on channel=3 note=66 velocity=114 time=0
EXTRACT: note_on channel=0 note=49 velocity=0 time=0.080645125
EXTRACT: note_on channel=3 note=66 velocity=0 time=0.06989244166666667
EXTRACT: note_on channel=0 note=61 velocity=103 time=0.010752683333333334
EXTRACT: note_on channel=0 note=64 velocity=113 time=0
EXTRACT: note_on channel=0 note=68 velocity=97 time=0
EXTRACT: note_on channel=3 note=64 velocity=112 time=0
EXTRACT: note_on channel=0 note=64 velocity=0 time=0.2634407416666667
EXTRACT: note_on channel=0 note=61 velocity=0 time=0.048387075
EXTRACT: note_on channel=0 note=49 velocity=85 time=0.010752683333333334
EXTRACT: note_on channel=9 note=36 velocity=120 time=0
EXTRACT: note_on channel=0 note=68 velocity=0 time=0.021505366666666668
EXTRACT: note_on channel=9 note=36 velocity=0 time=0.09677415
EXTRACT: note_on channel=0 note=49 velocity=0 time=0.16666659166666667
EXTRACT: note_on channel=0 note=61 velocity=105 time=0.03763439166666667
EXTRACT: note_on channel=0 note=64 velocity=115 time=0
EXTRACT: note_on channel=0 note=68 velocity=104 time=0
EXTRACT: note_on channel=9 note=38 velocity=120 time=0
EXTRACT: note_on channel=9 note=39 velocity=120 time=0
EXTRACT: note_on channel=9 note=38 velocity=0 time=0.11290317500000001
EXTRACT: note_on channel=9 note=39 velocity=0 time=0.010752683333333334
EXTRACT: note_on channel=3 note=64 velocity=0 time=0.09677415
EXTRACT: note_on channel=0 note=64 velocity=0 time=0.0645161
EXTRACT: note_on channel=0 note=68 velocity=0 time=0.021505366666666668
EXTRACT: note_on channel=0 note=49 velocity=93 time=0.016129025
EXTRACT: note_on channel=3 note=66 velocity=120 time=0
EXTRACT: note_on channel=0 note=61 velocity=0 time=0.03225805
EXTRACT: note_on channel=3 note=66 velocity=0 time=0.11290317500000001
EXTRACT: note_on channel=3 note=69 velocity=111 time=0.016129025
EXTRACT: control_change channel=0 control=64 value=0 time=0.1344085416666667
EXTRACT: note_on channel=0 note=49 velocity=0 time=0.010752683333333334
EXTRACT: note_on channel=1 note=25 velocity=0 time=0.010752683333333334
EXTRACT: note_on channel=7 note=44 velocity=0 time=0
EXTRACT: note_on channel=7 note=37 velocity=0 time=0
EXTRACT: note_on channel=10 note=76 velocity=0 time=0.005376341666666667
EXTRACT: note_on channel=10 note=68 velocity=0 time=0
EXTRACT: note_on channel=10 note=73 velocity=0 time=0
EXTRACT: note_on channel=0 note=52 velocity=100 time=0
EXTRACT: note_on channel=0 note=59 velocity=103 time=0
EXTRACT: note_on channel=0 note=64 velocity=107 time=0
EXTRACT: note_on channel=0 note=68 velocity=102 time=0
EXTRACT: note_on channel=1 note=28 velocity=120 time=0
EXTRACT: note_on channel=7 note=40 velocity=102 time=0
EXTRACT: note_on channel=7 note=47 velocity=110 time=0
EXTRACT: note_on channel=10 note=76 velocity=100 time=0
EXTRACT: note_on channel=10 note=68 velocity=100 time=0
EXTRACT: note_on channel=10 note=71 velocity=100 time=0
EXTRACT: note_on channel=3 note=69 velocity=0 time=0.18817195833333333
EXTRACT: note_on channel=0 note=64 velocity=0 time=1.70967665
EXTRACT: note_on channel=0 note=59 velocity=0 time=0.010752683333333334
EXTRACT: note_on channel=0 note=52 velocity=0 time=0.005376341666666667
EXTRACT: note_on channel=0 note=68 velocity=0 time=0
EXTRACT: note_on channel=1 note=28 velocity=0 time=0.016129025
EXTRACT: note_on channel=10 note=71 velocity=0 time=0.005376341666666667
EXTRACT: note_on channel=10 note=76 velocity=0 time=0
EXTRACT: note_on channel=10 note=68 velocity=0 time=0
EXTRACT: note_on channel=9 note=38 velocity=120 time=0
EXTRACT: note_on channel=9 note=39 velocity=120 time=0
EXTRACT: note_on channel=9 note=39 velocity=0 time=0.10752683333333334
EXTRACT: note_on channel=9 note=38 velocity=0 time=0
EXTRACT: note_on channel=7 note=47 velocity=0 time=0.5322578250000001
EXTRACT: note_on channel=7 note=40 velocity=0 time=0
EXTRACT: note_on channel=0 note=61 velocity=96 time=0.005376341666666667
EXTRACT: note_on channel=0 note=64 velocity=113 time=0
EXTRACT: note_on channel=0 note=69 velocity=109 time=0
EXTRACT: note_on channel=2 note=61 velocity=92 time=0
EXTRACT: note_on channel=2 note=64 velocity=109 time=0
EXTRACT: note_on channel=2 note=69 velocity=107 time=0
EXTRACT: note_on channel=8 note=76 velocity=92 time=0
EXTRACT: note_on channel=8 note=81 velocity=107 time=0
EXTRACT: note_on channel=8 note=85 velocity=97 time=0
EXTRACT: note_on channel=9 note=36 velocity=120 time=0
EXTRACT: control_change channel=0 control=64 value=127 time=0.13978488333333333
EXTRACT: note_on channel=9 note=36 velocity=0 time=0.005376341666666667
EXTRACT: note_on channel=0 note=69 velocity=0 time=0.16666659166666667
EXTRACT: note_on channel=0 note=57 velocity=98 time=0.010752683333333334
EXTRACT: note_on channel=3 note=69 velocity=112 time=0
EXTRACT: note_on channel=0 note=64 velocity=0 time=0.016129025
EXTRACT: note_on channel=0 note=61 velocity=0 time=0.03225805
EXTRACT: note_on channel=9 note=36 velocity=120 time=0.11290317500000001
EXTRACT: note_on channel=3 note=69 velocity=0 time=0.05376341666666667
EXTRACT: note_on channel=0 note=57 velocity=0 time=0.05376341666666667
EXTRACT: note_on channel=9 note=36 velocity=0 time=0.010752683333333334
EXTRACT: note_on channel=2 note=61 velocity=0 time=0.03763439166666667
EXTRACT: note_on channel=2 note=64 velocity=0 time=0
EXTRACT: note_on channel=2 note=69 velocity=0 time=0
EXTRACT: note_on channel=0 note=61 velocity=93 time=0.005376341666666667
EXTRACT: note_on channel=0 note=64 velocity=111 time=0
EXTRACT: note_on channel=0 note=69 velocity=107 time=0
EXTRACT: note_on channel=2 note=61 velocity=96 time=0
EXTRACT: note_on channel=2 note=64 velocity=110 time=0
EXTRACT: note_on channel=2 note=69 velocity=100 time=0
EXTRACT: note_on channel=3 note=69 velocity=113 time=0
EXTRACT: note_on channel=9 note=38 velocity=120 time=0
EXTRACT: note_on channel=9 note=39 velocity=120 time=0
EXTRACT: note_on channel=9 note=38 velocity=0 time=0.11290317500000001
EXTRACT: note_on channel=9 note=39 velocity=0 time=0.016129025
EXTRACT: note_on channel=3 note=69 velocity=0 time=0.048387075
EXTRACT: note_on channel=0 note=69 velocity=0 time=0.06989244166666667
EXTRACT: note_on channel=0 note=64 velocity=0 time=0.048387075
EXTRACT: note_on channel=0 note=61 velocity=0 time=0.010752683333333334
EXTRACT: note_on channel=0 note=57 velocity=82 time=0.016129025
EXTRACT: note_on channel=3 note=69 velocity=110 time=0
EXTRACT: note_on channel=9 note=36 velocity=120 time=0
EXTRACT: note_on channel=3 note=69 velocity=0 time=0.10215049166666668
EXTRACT: note_on channel=9 note=36 velocity=0 time=0.048387075
EXTRACT: note_on channel=3 note=69 velocity=113 time=0.010752683333333334
EXTRACT: note_on channel=0 note=57 velocity=0 time=0.07526878333333334
EXTRACT: note_on channel=2 note=69 velocity=0 time=0.080645125
EXTRACT: note_on channel=2 note=64 velocity=0 time=0
EXTRACT: note_on channel=2 note=61 velocity=0 time=0
EXTRACT: note_on channel=0 note=61 velocity=84 time=0.005376341666666667
EXTRACT: note_on channel=0 note=64 velocity=106 time=0
EXTRACT: note_on channel=0 note=69 velocity=98 time=0
EXTRACT: note_on channel=2 note=61 velocity=99 time=0
EXTRACT: note_on channel=2 note=64 velocity=112 time=0
EXTRACT: note_on channel=2 note=69 velocity=107 time=0
EXTRACT: note_on channel=3 note=69 velocity=0 time=0.048387075
EXTRACT: note_on channel=3 note=64 velocity=109 time=0.11290317500000001
EXTRACT: note_on channel=0 note=69 velocity=0 time=0.059139758333333334
EXTRACT: note_on channel=0 note=64 velocity=0 time=0.03763439166666667
EXTRACT: note_on channel=0 note=61 velocity=0 time=0.021505366666666668
EXTRACT: note_on channel=0 note=57 velocity=88 time=0.043010733333333336
EXTRACT: note_on channel=9 note=36 velocity=120 time=0
EXTRACT: note_on channel=3 note=64 velocity=0 time=0.048387075
EXTRACT: note_on channel=9 note=36 velocity=0 time=0.080645125
EXTRACT: note_on channel=3 note=64 velocity=108 time=0.03225805
EXTRACT: note_on channel=0 note=57 velocity=0 time=0.1290322
EXTRACT: note_on channel=2 note=64 velocity=0 time=0.026881708333333334
EXTRACT: note_on channel=2 note=61 velocity=0 time=0
EXTRACT: note_on channel=2 note=69 velocity=0 time=0
EXTRACT: note_on channel=0 note=61 velocity=82 time=0.005376341666666667
EXTRACT: note_on channel=0 note=64 velocity=106 time=0
EXTRACT: note_on channel=0 note=69 velocity=100 time=0
EXTRACT: note_on channel=2 note=61 velocity=95 time=0
EXTRACT: note_on channel=2 note=64 velocity=112 time=0
EXTRACT: note_on channel=2 note=69 velocity=109 time=0
EXTRACT: note_on channel=9 note=38 velocity=120 time=0
EXTRACT: note_on channel=9 note=39 velocity=120 time=0
EXTRACT: note_on channel=3 note=64 velocity=0 time=0.03763439166666667
EXTRACT: note_on channel=9 note=38 velocity=0 time=0.080645125
EXTRACT: note_on channel=9 note=39 velocity=0 time=0.010752683333333334
EXTRACT: note_on channel=3 note=61 velocity=110 time=0.03225805
EXTRACT: note_on channel=0 note=61 velocity=0 time=0.09139780833333334
EXTRACT: note_on channel=0 note=69 velocity=0 time=0.016129025
EXTRACT: note_on channel=0 note=64 velocity=0 time=0.016129025
EXTRACT: note_on channel=0 note=57 velocity=93 time=0.03763439166666667
EXTRACT: note_on channel=3 note=61 velocity=0 time=0.021505366666666668
EXTRACT: note_on channel=0 note=57 velocity=0 time=0.11827951666666667
EXTRACT: note_on channel=3 note=66 velocity=119 time=0.021505366666666668
EXTRACT: note_on channel=8 note=76 velocity=0 time=0.15591390833333335
EXTRACT: note_on channel=2 note=64 velocity=0 time=0
EXTRACT: note_on channel=2 note=69 velocity=0 time=0
EXTRACT: note_on channel=8 note=85 velocity=0 time=0
EXTRACT: note_on channel=8 note=81 velocity=0 time=0
EXTRACT: note_on channel=2 note=61 velocity=0 time=0
EXTRACT: control_change channel=0 control=64 value=0 time=0.005376341666666667
EXTRACT: note_on channel=0 note=57 velocity=101 time=0
EXTRACT: note_on channel=0 note=61 velocity=102 time=0
EXTRACT: note_on channel=0 note=66 velocity=101 time=0
EXTRACT: note_on channel=2 note=61 velocity=97 time=0
EXTRACT: note_on channel=2 note=66 velocity=105 time=0
EXTRACT: note_on channel=2 note=69 velocity=109 time=0
EXTRACT: note_on channel=8 note=78 velocity=96 time=0
EXTRACT: note_on channel=8 note=81 velocity=107 time=0
EXTRACT: note_on channel=8 note=85 velocity=97 time=0
EXTRACT: note_on channel=9 note=36 velocity=120 time=0
EXTRACT: note_on channel=9 note=36 velocity=0 time=0.145161225
EXTRACT: control_change channel=0 control=64 value=127 time=0.03225805
EXTRACT: note_on channel=0 note=54 velocity=87 time=0.145161225
EXTRACT: note_on channel=0 note=66 velocity=0 time=0.03763439166666667
EXTRACT: note_on channel=0 note=61 velocity=0 time=0.03225805
EXTRACT: note_on channel=0 note=57 velocity=0 time=0.021505366666666668
EXTRACT: note_on channel=3 note=66 velocity=0 time=0.0645161
EXTRACT: note_on channel=3 note=64 velocity=107 time=0.005376341666666667
EXTRACT: note_on channel=9 note=36 velocity=120 time=0
EXTRACT: note_on channel=0 note=54 velocity=0 time=0.08602146666666667
EXTRACT: note_on channel=9 note=36 velocity=0 time=0.010752683333333334
EXTRACT: note_on channel=2 note=61 velocity=0 time=0.059139758333333334
EXTRACT: note_on channel=2 note=69 velocity=0 time=0
EXTRACT: note_on channel=2 note=66 velocity=0 time=0
EXTRACT: note_on channel=0 note=57 velocity=103 time=0.005376341666666667
EXTRACT: note_on channel=0 note=61 velocity=99 time=0
EXTRACT: note_on channel=0 note=66 velocity=100 time=0
EXTRACT: note_on channel=2 note=61 velocity=100 time=0
EXTRACT: note_on channel=2 note=66 velocity=106 time=0
EXTRACT: note_on channel=2 note=69 velocity=108 time=0
EXTRACT: note_on channel=3 note=61 velocity=111 time=0
EXTRACT: note_on channel=9 note=38 velocity=120 time=0
EXTRACT: note_on channel=9 note=39 velocity=120 time=0
EXTRACT: note_on channel=3 note=64 velocity=0 time=0.021505366666666668
EXTRACT: note_on channel=9 note=38 velocity=0 time=0.08602146666666667
EXTRACT: note_on channel=9 note=39 velocity=0 time=0.005376341666666667
EXTRACT: note_on channel=0 note=66 velocity=0 time=0.17741927500000002
EXTRACT: note_on channel=0 note=57 velocity=0 time=0.005376341666666667
EXTRACT: note_on channel=0 note=61 velocity=0 time=0.016129025
EXTRACT: note_on channel=0 note=54 velocity=87 time=0.010752683333333334
EXTRACT: note_on channel=9 note=36 velocity=120 time=0
EXTRACT: note_on channel=9 note=36 velocity=0 time=0.1290322
EXTRACT: note_on channel=0 note=54 velocity=0 time=0.09677415
EXTRACT: note_on channel=3 note=61 velocity=0 time=0.06989244166666667
EXTRACT: note_on channel=2 note=69 velocity=0 time=0.021505366666666668
EXTRACT: note_on channel=2 note=66 velocity=0 time=0
EXTRACT: note_on channel=2 note=61 velocity=0 time=0
EXTRACT: note_on channel=0 note=57 velocity=100 time=0.005376341666666667
EXTRACT: note_on channel=0 note=61 velocity=95 time=0
EXTRACT: note_on channel=0 note=66 velocity=94 time=0
EXTRACT: note_on channel=2 note=61 velocity=98 time=0
EXTRACT: note_on channel=2 note=66 velocity=101 time=0
EXTRACT: note_on channel=2 note=69 velocity=108 time=0
EXTRACT: note_on channel=0 note=57 velocity=0 time=0.30107513333333336
EXTRACT: note_on channel=0 note=61 velocity=0 time=0.010752683333333334
EXTRACT: note_on channel=0 note=66 velocity=0 time=0
EXTRACT: note_on channel=0 note=54 velocity=96 time=0.010752683333333334
EXTRACT: note_on channel=9 note=36 velocity=120 time=0
EXTRACT: note_on channel=9 note=36 velocity=0 time=0.11827951666666667
EXTRACT: note_on channel=0 note=54 velocity=0 time=0.048387075
EXTRACT: note_on channel=2 note=61 velocity=0 time=0.15053756666666668
EXTRACT: note_on channel=2 note=69 velocity=0 time=0
EXTRACT: note_on channel=2 note=66 velocity=0 time=0
EXTRACT: note_on channel=0 note=57 velocity=105 time=0.005376341666666667
EXTRACT: note_on channel=0 note=61 velocity=102 time=0
EXTRACT: note_on channel=0 note=66 velocity=102 time=0
EXTRACT: note_on channel=2 note=61 velocity=100 time=0
EXTRACT: note_on channel=2 note=66 velocity=102 time=0
EXTRACT: note_on channel=2 note=69 velocity=108 time=0
EXTRACT: note_on channel=9 note=38 velocity=120 time=0
EXTRACT: note_on channel=9 note=39 velocity=120 time=0
EXTRACT: note_on channel=9 note=38 velocity=0 time=0.10215049166666668
EXTRACT: note_on channel=9 note=39 velocity=0 time=0.010752683333333334
EXTRACT: note_on channel=0 note=66 velocity=0 time=0.1935483
EXTRACT: note_on channel=0 note=61 velocity=0 time=0.005376341666666667
EXTRACT: note_on channel=0 note=57 velocity=0 time=0.005376341666666667
EXTRACT: note_on channel=0 note=54 velocity=93 time=0.005376341666666667
EXTRACT: note_on channel=0 note=54 velocity=0 time=0.25268805833333335
EXTRACT: note_on channel=2 note=66 velocity=0 time=0.0645161
EXTRACT: note_on channel=8 note=78 velocity=0 time=0
EXTRACT: note_on channel=8 note=85 velocity=0 time=0
EXTRACT: note_on channel=2 note=69 velocity=0 time=0
EXTRACT: note_on channel=2 note=61 velocity=0 time=0
EXTRACT: note_on channel=8 note=81 velocity=0 time=0
EXTRACT: note_on channel=0 note=57 velocity=98 time=0.005376341666666667
EXTRACT: note_on channel=0 note=62 velocity=110 time=0
EXTRACT: note_on channel=0 note=66 velocity=101 time=0
EXTRACT: note_on channel=0 note=69 velocity=105 time=0
EXTRACT: note_on channel=2 note=62 velocity=106 time=0
EXTRACT: note_on channel=2 note=66 velocity=96 time=0
EXTRACT: note_on channel=2 note=69 velocity=102 time=0
EXTRACT: note_on channel=8 note=74 velocity=95 time=0
EXTRACT: note_on channel=8 note=78 velocity=92 time=0
EXTRACT: note_on channel=8 note=81 velocity=110 time=0
EXTRACT: note_on channel=9 note=36 velocity=120 time=0
EXTRACT: control_change channel=0 control=64 value=0 time=0.010752683333333334
EXTRACT: note_on channel=9 note=36 velocity=0 time=0.12365585833333334
EXTRACT: control_change channel=0 control=64 value=127 time=0.07526878333333334
EXTRACT: note_on channel=0 note=50 velocity=96 time=0.11290317500000001
EXTRACT: note_on channel=3 note=62 velocity=106 time=0
EXTRACT: note_on channel=0 note=69 velocity=0 time=0.010752683333333334
EXTRACT: note_on channel=0 note=66 velocity=0 time=0.016129025
EXTRACT: note_on channel=0 note=62 velocity=0 time=0.010752683333333334
EXTRACT: note_on channel=0 note=57 velocity=0 time=0.016129025
EXTRACT: note_on channel=9 note=36 velocity=120 time=0.10752683333333334
EXTRACT: note_on channel=3 note=62 velocity=0 time=0.016129025
EXTRACT: note_on channel=9 note=36 velocity=0 time=0.07526878333333334
EXTRACT: note_on channel=0 note=50 velocity=0 time=0.026881708333333334
EXTRACT: note_on channel=2 note=69 velocity=0 time=0.03763439166666667
EXTRACT: note_on channel=2 note=66 velocity=0 time=0
EXTRACT: note_on channel=2 note=62 velocity=0 time=0
EXTRACT: note_on channel=0 note=57 velocity=98 time=0.005376341666666667
EXTRACT: note_on channel=0 note=62 velocity=104 time=0
EXTRACT: note_on channel=0 note=66 velocity=94 time=0
EXTRACT: note_on channel=0 note=69 velocity=98 time=0
EXTRACT: note_on channel=2 note=62 velocity=104 time=0
EXTRACT: note_on channel=2 note=66 velocity=101 time=0
EXTRACT: note_on channel=2 note=69 velocity=104 time=0
EXTRACT: note_on channel=3 note=62 velocity=115 time=0
EXTRACT: note_on channel=9 note=38 velocity=120 time=0
EXTRACT: note_on channel=9 note=39 velocity=120 time=0
EXTRACT: note_on channel=9 note=38 velocity=0 time=0.12365585833333334
EXTRACT: note_on channel=9 note=39 velocity=0 time=0.005376341666666667
EXTRACT: note_on channel=3 note=62 velocity=0 time=0.08602146666666667
EXTRACT: note_on channel=0 note=69 velocity=0 time=0.080645125
EXTRACT: note_on channel=0 note=62 velocity=0 time=0.016129025
EXTRACT: note_on channel=0 note=66 velocity=0 time=0.005376341666666667
EXTRACT: note_on channel=0 note=57 velocity=0 time=0.005376341666666667
EXTRACT: note_on channel=0 note=50 velocity=92 time=0
EXTRACT: note_on channel=3 note=62 velocity=110 time=0
EXTRACT: note_on channel=9 note=36 velocity=120 time=0
EXTRACT: note_on channel=3 note=62 velocity=0 time=0.06989244166666667
EXTRACT: note_on channel=9 note=36 velocity=0 time=0.06989244166666667
EXTRACT: note_on channel=3 note=62 velocity=102 time=0.021505366666666668
EXTRACT: note_on channel=3 note=62 velocity=0 time=0.08602146666666667
EXTRACT: note_on channel=0 note=50 velocity=0 time=0.043010733333333336
EXTRACT: note_on channel=2 note=62 velocity=0 time=0.026881708333333334
EXTRACT: note_on channel=2 note=69 velocity=0 time=0
EXTRACT: note_on channel=2 note=66 velocity=0 time=0
EXTRACT: note_on channel=0 note=57 velocity=97 time=0.005376341666666667
EXTRACT: note_on channel=0 note=62 velocity=102 time=0
EXTRACT: note_on channel=0 note=66 velocity=92 time=0
EXTRACT: note_on channel=0 note=69 velocity=99 time=0
EXTRACT: note_on channel=2 note=62 velocity=107 time=0
EXTRACT: note_on channel=2 note=66 velocity=103 time=0
EXTRACT: note_on channel=2 note=69 velocity=108 time=0
EXTRACT: note_on channel=3 note=64 velocity=106 time=0
EXTRACT: note_on channel=3 note=64 velocity=0 time=0.22043000833333334
EXTRACT: note_on channel=0 note=69 velocity=0 time=0.09677415
EXTRACT: note_on channel=0 note=50 velocity=94 time=0.005376341666666667
EXTRACT: note_on channel=3 note=66 velocity=111 time=0
EXTRACT: note_on channel=9 note=36 velocity=120 time=0
EXTRACT: note_on channel=0 note=66 velocity=0 time=0.016129025
EXTRACT: note_on channel=0 note=62 velocity=0 time=0.005376341666666667
EXTRACT: note_on channel=0 note=57 velocity=0 time=0.005376341666666667
EXTRACT: note_on channel=9 note=36 velocity=0 time=0.09139780833333334
EXTRACT: note_on channel=3 note=66 velocity=0 time=0.021505366666666668
EXTRACT: note_on channel=3 note=64 velocity=105 time=0.021505366666666668
EXTRACT: note_on channel=0 note=50 velocity=0 time=0.13978488333333333
EXTRACT: note_on channel=2 note=66 velocity=0 time=0.016129025
EXTRACT: note_on channel=2 note=62 velocity=0 time=0
EXTRACT: note_on channel=2 note=69 velocity=0 time=0
EXTRACT: note_on channel=0 note=57 velocity=101 time=0.005376341666666667
EXTRACT: note_on channel=0 note=62 velocity=107 time=0
EXTRACT: note_on channel=0 note=66 velocity=100 time=0
EXTRACT: note_on channel=0 note=69 velocity=103 time=0
EXTRACT: note_on channel=2 note=62 velocity=107 time=0
EXTRACT: note_on channel=2 note=66 velocity=103 time=0
EXTRACT: note_on channel=2 note=69 velocity=106 time=0
EXTRACT: note_on channel=9 note=38 velocity=120 time=0
EXTRACT: note_on channel=9 note=39 velocity=120 time=0
EXTRACT: note_on channel=9 note=38 velocity=0 time=0.11290317500000001
EXTRACT: note_on channel=9 note=39 velocity=0 time=0.010752683333333334
EXTRACT: note_on channel=0 note=69 velocity=0 time=0.080645125
EXTRACT: note_on channel=0 note=62 velocity=0 time=0.010752683333333334
EXTRACT: note_on channel=0 note=57 velocity=0 time=0
EXTRACT: note_on channel=0 note=66 velocity=0 time=0.016129025
EXTRACT: note_on channel=0 note=50 velocity=98 time=0.09139780833333334
EXTRACT: note_on channel=3 note=64 velocity=0 time=0.1827956166666667
EXTRACT: control_change channel=0 control=64 value=0 time=0.1290322
EXTRACT: note_on channel=8 note=78 velocity=0 time=0.005376341666666667
EXTRACT: note_on channel=8 note=81 velocity=0 time=0
EXTRACT: note_on channel=8 note=74 velocity=0 time=0
EXTRACT: note_on channel=2 note=69 velocity=0 time=0
EXTRACT: note_on channel=2 note=66 velocity=0 time=0
EXTRACT: note_on channel=2 note=62 velocity=0 time=0
EXTRACT: note_on channel=0 note=50 velocity=0 time=0.005376341666666667
EXTRACT: note_on channel=0 note=59 velocity=88 time=0
EXTRACT: note_on channel=0 note=64 velocity=105 time=0
EXTRACT: note_on channel=0 note=68 velocity=96 time=0
EXTRACT: note_on channel=0 note=71 velocity=104 time=0
EXTRACT: note_on channel=2 note=59 velocity=107 time=0
EXTRACT: note_on channel=2 note=64 velocity=105 time=0
EXTRACT: note_on channel=2 note=68 velocity=102 time=0
EXTRACT: note_on channel=8 note=76 velocity=98 time=0
EXTRACT: note_on channel=8 note=80 velocity=100 time=0
EXTRACT: note_on channel=8 note=83 velocity=102 time=0
EXTRACT: note_on channel=9 note=36 velocity=120 time=0
EXTRACT: note_on channel=9 note=36 velocity=0 time=0.12365585833333334
EXTRACT: control_change channel=0 control=64 value=127 time=0.05376341666666667
EXTRACT: note_on channel=0 note=52 velocity=86 time=0.145161225
EXTRACT: note_on channel=3 note=64 velocity=107 time=0
EXTRACT: note_on channel=0 note=71 velocity=0 time=0.03225805
EXTRACT: note_on channel=0 note=68 velocity=0 time=0.005376341666666667
EXTRACT: note_on channel=0 note=64 velocity=0 time=0.010752683333333334
EXTRACT: note_on channel=0 note=59 velocity=0 time=0.005376341666666667
EXTRACT: note_on channel=3 note=64 velocity=0 time=0.059139758333333334
EXTRACT: note_on channel=3 note=64 velocity=107 time=0.048387075
EXTRACT: note_on channel=9 note=36 velocity=120 time=0
EXTRACT: note_on channel=9 note=36 velocity=0 time=0.09139780833333334
EXTRACT: note_on channel=3 note=64 velocity=0 time=0.005376341666666667
EXTRACT: note_on channel=0 note=52 velocity=0 time=0.03225805
EXTRACT: note_on channel=2 note=68 velocity=0 time=0.026881708333333334
EXTRACT: note_on channel=2 note=64 velocity=0 time=0
EXTRACT: note_on channel=2 note=59 velocity=0 time=0
EXTRACT: note_on channel=0 note=59 velocity=99 time=0.005376341666666667
EXTRACT: note_on channel=0 note=64 velocity=104 time=0
EXTRACT: note_on channel=0 note=68 velocity=92 time=0
EXTRACT: note_on channel=0 note=71 velocity=99 time=0
EXTRACT: note_on channel=2 note=59 velocity=102 time=0
EXTRACT: note_on channel=2 note=64 velocity=107 time=0
EXTRACT: note_on channel=2 note=68 velocity=100 time=0
EXTRACT: note_on channel=3 note=64 velocity=106 time=0
EXTRACT: note_on channel=9 note=38 velocity=120 time=0
EXTRACT: note_on channel=9 note=39 velocity=120 time=0
EXTRACT: note_on channel=9 note=38 velocity=0 time=0.09677415
EXTRACT: note_on channel=9 note=39 velocity=0 time=0.005376341666666667
EXTRACT: note_on channel=3 note=64 velocity=0 time=0.05376341666666667
EXTRACT: note_on channel=0 note=71 velocity=0 time=0.10752683333333334
EXTRACT: note_on channel=0 note=68 velocity=0 time=0.021505366666666668
EXTRACT: note_on channel=0 note=59 velocity=0 time=0.010752683333333334
EXTRACT: note_on channel=0 note=64 velocity=0 time=0
EXTRACT: note_on channel=0 note=52 velocity=82 time=0.026881708333333334
EXTRACT: note_on channel=3 note=64 velocity=107 time=0
EXTRACT: note_on channel=9 note=36 velocity=120 time=0
EXTRACT: note_on channel=3 note=64 velocity=0 time=0.11290317500000001
EXTRACT: note_on channel=9 note=36 velocity=0 time=0.010752683333333334
EXTRACT: note_on channel=3 note=64 velocity=107 time=0.03763439166666667
EXTRACT: note_on channel=0 note=52 velocity=0 time=0.080645125
EXTRACT: note_on channel=2 note=64 velocity=0 time=0.07526878333333334
EXTRACT: note_on channel=2 note=68 velocity=0 time=0
EXTRACT: note_on channel=2 note=59 velocity=0 time=0
EXTRACT: note_on channel=0 note=59 velocity=97 time=0.005376341666666667
EXTRACT: note_on channel=0 note=64 velocity=101 time=0
EXTRACT: note_on channel=0 note=68 velocity=96 time=0
EXTRACT: note_on channel=0 note=71 velocity=97 time=0
EXTRACT: note_on channel=2 note=59 velocity=102 time=0
EXTRACT: note_on channel=2 note=64 velocity=107 time=0
EXTRACT: note_on channel=2 note=68 velocity=104 time=0
EXTRACT: note_on channel=3 note=64 velocity=0 time=0.059139758333333334
EXTRACT: note_on channel=3 note=64 velocity=108 time=0.10215049166666668
EXTRACT: note_on channel=0 note=52 velocity=87 time=0.16129025
EXTRACT: note_on channel=9 note=36 velocity=120 time=0
EXTRACT: note_on channel=0 note=68 velocity=0 time=0.016129025
EXTRACT: note_on channel=0 note=71 velocity=0 time=0.005376341666666667
EXTRACT: note_on channel=0 note=59 velocity=0 time=0.005376341666666667
EXTRACT: note_on channel=0 note=64 velocity=0 time=0
EXTRACT: note_on channel=3 note=64 velocity=0 time=0.03225805
EXTRACT: note_on channel=9 note=36 velocity=0 time=0.0645161
EXTRACT: note_on channel=3 note=62 velocity=112 time=0.03763439166666667
EXTRACT: note_on channel=0 note=52 velocity=0 time=0.0645161
EXTRACT: note_on channel=2 note=59 velocity=0 time=0.09139780833333334
EXTRACT: note_on channel=2 note=68 velocity=0 time=0
EXTRACT: note_on channel=2 note=64 velocity=0 time=0
EXTRACT: note_on channel=0 note=59 velocity=91 time=0.005376341666666667
EXTRACT: note_on channel=0 note=64 velocity=100 time=0
EXTRACT: note_on channel=0 note=68 velocity=94 time=0
EXTRACT: note_on channel=0 note=71 velocity=71 time=0
EXTRACT: note_on channel=2 note=59 velocity=105 time=0
EXTRACT: note_on channel=2 note=64 velocity=112 time=0
EXTRACT: note_on channel=2 note=68 velocity=101 time=0
EXTRACT: note_on channel=9 note=38 velocity=120 time=0
EXTRACT: note_on channel=9 note=39 velocity=120 time=0
EXTRACT: note_on channel=9 note=39 velocity=0 time=0.10215049166666668
EXTRACT: note_on channel=9 note=38 velocity=0 time=0
EXTRACT: note_on channel=0 note=71 velocity=0 time=0
EXTRACT: note_on channel=3 note=62 velocity=0 time=0.021505366666666668
EXTRACT: note_on channel=3 note=61 velocity=102 time=0.03763439166666667
EXTRACT: note_on channel=0 note=59 velocity=0 time=0.048387075
EXTRACT: note_on channel=0 note=64 velocity=0 time=0.005376341666666667
EXTRACT: note_on channel=0 note=68 velocity=0 time=0.05376341666666667
EXTRACT: note_on channel=0 note=52 velocity=102 time=0.05376341666666667
EXTRACT: note_on channel=0 note=52 velocity=0 time=0.16129025
EXTRACT: note_on channel=2 note=64 velocity=0 time=0.15591390833333335
EXTRACT: note_on channel=8 note=76 velocity=0 time=0
EXTRACT: note_on channel=8 note=83 velocity=0 time=0
EXTRACT: note_on channel=2 note=68 velocity=0 time=0
EXTRACT: note_on channel=8 note=80 velocity=0 time=0
EXTRACT: note_on channel=2 note=59 velocity=0 time=0
EXTRACT: note_on channel=0 note=61 velocity=99 time=0.005376341666666667
EXTRACT: note_on channel=0 note=64 velocity=115 time=0
EXTRACT: note_on channel=0 note=69 velocity=113 time=0
EXTRACT: note_on channel=2 note=61 velocity=93 time=0
EXTRACT: note_on channel=2 note=64 velocity=107 time=0
EXTRACT: note_on channel=2 note=69 velocity=106 time=0
EXTRACT: note_on channel=8 note=76 velocity=92 time=0
EXTRACT: note_on channel=8 note=81 velocity=109 time=0
EXTRACT: note_on channel=8 note=85 velocity=96 time=0
EXTRACT: note_on channel=9 note=36 velocity=120 time=0
EXTRACT: control_change channel=0 control=64 value=0 time=0.016129025
EXTRACT: note_on channel=3 note=61 velocity=0 time=0.010752683333333334
EXTRACT: note_on channel=9 note=36 velocity=0 time=0.11827951666666667
EXTRACT: control_change channel=0 control=64 value=127 time=0.043010733333333336
EXTRACT: note_on channel=0 note=69 velocity=0 time=0.12365585833333334
EXTRACT: note_on channel=0 note=57 velocity=96 time=0.010752683333333334
EXTRACT: note_on channel=3 note=69 velocity=113 time=0
EXTRACT: note_on channel=0 note=64 velocity=0 time=0.021505366666666668
EXTRACT: note_on channel=0 note=61 velocity=0 time=0.021505366666666668
EXTRACT: note_on channel=3 note=69 velocity=0 time=0.05376341666666667
EXTRACT: note_on channel=3 note=69 velocity=107 time=0.0645161
EXTRACT: note_on channel=9 note=36 velocity=120 time=0
EXTRACT: note_on channel=3 note=69 velocity=0 time=0.09139780833333334
EXTRACT: note_on channel=9 note=36 velocity=0 time=0.026881708333333334
EXTRACT: note_on channel=0 note=57 velocity=0 time=0.03225805
EXTRACT: note_on channel=2 note=69 velocity=0 time=0.005376341666666667
EXTRACT: note_on channel=2 note=61 velocity=0 time=0
EXTRACT: note_on channel=2 note=64 velocity=0 time=0
EXTRACT: note_on channel=0 note=61 velocity=92 time=0.005376341666666667
EXTRACT: note_on channel=0 note=64 velocity=109 time=0
EXTRACT: note_on channel=0 note=69 velocity=113 time=0
EXTRACT: note_on channel=2 note=61 velocity=97 time=0
EXTRACT: note_on channel=2 note=64 velocity=107 time=0
EXTRACT: note_on channel=2 note=69 velocity=106 time=0
EXTRACT: note_on channel=3 note=69 velocity=113 time=0
EXTRACT: note_on channel=9 note=38 velocity=120 time=0
EXTRACT: note_on channel=9 note=39 velocity=120 time=0
EXTRACT: note_on channel=9 note=38 velocity=0 time=0.11290317500000001
EXTRACT: note_on channel=9 note=39 velocity=0 time=0.016129025
EXTRACT: note_on channel=3 note=69 velocity=0 time=0.03763439166666667
EXTRACT: note_on channel=0 note=69 velocity=0 time=0.059139758333333334
EXTRACT: note_on channel=0 note=61 velocity=0 time=0.03763439166666667
EXTRACT: note_on channel=0 note=64 velocity=0 time=0.010752683333333334
EXTRACT: note_on channel=0 note=57 velocity=94 time=0.048387075
EXTRACT: note_on channel=3 note=69 velocity=109 time=0
EXTRACT: note_on channel=9 note=36 velocity=120 time=0
EXTRACT: note_on channel=3 note=69 velocity=0 time=0.080645125
EXTRACT: note_on channel=9 note=36 velocity=0 time=0.06989244166666667
EXTRACT: note_on channel=3 note=69 velocity=112 time=0.010752683333333334
EXTRACT: note_on channel=3 note=69 velocity=0 time=0.10215049166666668
EXTRACT: note_on channel=0 note=57 velocity=0 time=0.021505366666666668
EXTRACT: note_on channel=2 note=64 velocity=0 time=0.03225805
EXTRACT: note_on channel=2 note=69 velocity=0 time=0
EXTRACT: note_on channel=2 note=61 velocity=0 time=0
EXTRACT: note_on channel=0 note=61 velocity=84 time=0.005376341666666667
EXTRACT: note_on channel=0 note=64 velocity=105 time=0
EXTRACT: note_on channel=0 note=69 velocity=107 time=0
EXTRACT: note_on channel=2 note=61 velocity=95 time=0
EXTRACT: note_on channel=2 note=64 velocity=109 time=0
EXTRACT: note_on channel=2 note=69 velocity=107 time=0
EXTRACT: note_on channel=3 note=69 velocity=115 time=0
EXTRACT: note_on channel=3 note=69 velocity=0 time=0.08602146666666667
EXTRACT: note_on channel=3 note=69 velocity=109 time=0.07526878333333334
EXTRACT: note_on channel=3 note=69 velocity=0 time=0.06989244166666667
EXTRACT: note_on channel=0 note=69 velocity=0 time=0.005376341666666667
EXTRACT: note_on channel=0 note=64 velocity=0 time=0.026881708333333334
EXTRACT: note_on channel=0 note=61 velocity=0 time=0.021505366666666668
EXTRACT: note_on channel=0 note=57 velocity=91 time=0.03763439166666667
EXTRACT: note_on channel=3 note=69 velocity=107 time=0
EXTRACT: note_on channel=9 note=36 velocity=120 time=0
EXTRACT: note_on channel=3 note=69 velocity=0 time=0.09139780833333334
EXTRACT: note_on channel=9 note=36 velocity=0 time=0.03763439166666667
EXTRACT: note_on channel=3 note=71 velocity=116 time=0.03225805
EXTRACT: note_on channel=0 note=57 velocity=0 time=0.10752683333333334
EXTRACT: note_on channel=2 note=69 velocity=0 time=0.048387075
EXTRACT: note_on channel=2 note=64 velocity=0 time=0
EXTRACT: note_on channel=2 note=61 velocity=0 time=0
EXTRACT: note_on channel=0 note=61 velocity=87 time=0.005376341666666667
EXTRACT: note_on channel=0 note=64 velocity=104 time=0
EXTRACT: note_on channel=0 note=69 velocity=106 time=0
EXTRACT: note_on channel=2 note=61 velocity=95 time=0
EXTRACT: note_on channel=2 note=64 velocity=109 time=0
EXTRACT: note_on channel=2 note=69 velocity=106 time=0
EXTRACT: note_on channel=9 note=38 velocity=120 time=0
EXTRACT: note_on channel=9 note=39 velocity=120 time=0
EXTRACT: note_on channel=3 note=71 velocity=0 time=0.005376341666666667
EXTRACT: note_on channel=9 note=38 velocity=0 time=0.11290317500000001
EXTRACT: note_on channel=9 note=39 velocity=0 time=0.010752683333333334
EXTRACT: note_on channel=3 note=73 velocity=116 time=0.03225805
EXTRACT: note_on channel=0 note=69 velocity=0 time=0.048387075
EXTRACT: note_on channel=0 note=61 velocity=0 time=0.048387075
EXTRACT: note_on channel=0 note=64 velocity=0 time=0.010752683333333334
EXTRACT: note_on channel=0 note=57 velocity=98 time=0.05376341666666667
EXTRACT: note_on channel=3 note=73 velocity=0 time=0.026881708333333334
EXTRACT: note_on channel=3 note=66 velocity=120 time=0.1344085416666667
EXTRACT: note_on channel=8 note=76 velocity=0 time=0.15591390833333335
EXTRACT: note_on channel=2 note=64 velocity=0 time=0
EXTRACT: note_on channel=8 note=81 velocity=0 time=0
EXTRACT: note_on channel=2 note=69 velocity=0 time=0
EXTRACT: note_on channel=8 note=85 velocity=0 time=0
EXTRACT: note_on channel=2 note=61 velocity=0 time=0
EXTRACT: note_on channel=0 note=61 velocity=92 time=0.005376341666666667
EXTRACT: note_on channel=0 note=66 velocity=96 time=0
EXTRACT: note_on channel=0 note=69 velocity=102 time=0
EXTRACT: note_on channel=2 note=61 velocity=100 time=0
EXTRACT: note_on channel=2 note=66 velocity=106 time=0
EXTRACT: note_on channel=2 note=69 velocity=106 time=0
EXTRACT: note_on channel=8 note=78 velocity=95 time=0
EXTRACT: note_on channel=8 note=81 velocity=107 time=0
EXTRACT: note_on channel=8 note=85 velocity=98 time=0
EXTRACT: note_on channel=9 note=36 velocity=120 time=0
EXTRACT: control_change channel=0 control=64 value=0 time=0.016129025
EXTRACT: note_on channel=0 note=57 velocity=0 time=0.09677415
EXTRACT: note_on channel=9 note=36 velocity=0 time=0.03225805
EXTRACT: note_on channel=3 note=64 velocity=107 time=0.016129025
EXTRACT: note_on channel=3 note=66 velocity=0 time=0.016129025
EXTRACT: control_change channel=0 control=64 value=127 time=0.048387075
EXTRACT: note_on channel=3 note=64 velocity=0 time=0.0645161
EXTRACT: note_on channel=0 note=54 velocity=87 time=0.03225805
EXTRACT: note_on channel=3 note=61 velocity=92 time=0
EXTRACT: note_on channel=0 note=66 velocity=0 time=0.005376341666666667
EXTRACT: note_on channel=0 note=69 velocity=0 time=0.010752683333333334
EXTRACT: note_on channel=0 note=61 velocity=0 time=0.021505366666666668
EXTRACT: note_on channel=3 note=66 velocity=105 time=0.12365585833333334
EXTRACT: note_on channel=9 note=36 velocity=120 time=0
EXTRACT: note_on channel=3 note=61 velocity=0 time=0.010752683333333334
EXTRACT: note_on channel=9 note=36 velocity=0 time=0.08602146666666667
EXTRACT: note_on channel=0 note=54 velocity=0 time=0.03225805
EXTRACT: note_on channel=2 note=69 velocity=0 time=0.026881708333333334
EXTRACT: note_on channel=2 note=66 velocity=0 time=0
EXTRACT: note_on channel=2 note=61 velocity=0 time=0
EXTRACT: note_on channel=0 note=61 velocity=95 time=0.005376341666666667
EXTRACT: note_on channel=0 note=66 velocity=98 time=0
EXTRACT: note_on channel=0 note=69 velocity=100 time=0
EXTRACT: note_on channel=2 note=61 velocity=102 time=0
EXTRACT: note_on channel=2 note=66 velocity=100 time=0
EXTRACT: note_on channel=2 note=69 velocity=107 time=0
EXTRACT: note_on channel=9 note=38 velocity=120 time=0
EXTRACT: note_on channel=9 note=39 velocity=120 time=0
EXTRACT: note_on channel=9 note=38 velocity=0 time=0.10752683333333334
EXTRACT: note_on channel=9 note=39 velocity=0 time=0.005376341666666667
EXTRACT: note_on channel=0 note=69 velocity=0 time=0.16129025
EXTRACT: note_on channel=0 note=66 velocity=0 time=0.026881708333333334
EXTRACT: note_on channel=0 note=61 velocity=0 time=0.010752683333333334
EXTRACT: note_on channel=0 note=54 velocity=96 time=0.010752683333333334
EXTRACT: note_on channel=9 note=36 velocity=120 time=0
EXTRACT: note_on channel=9 note=36 velocity=0 time=0.1290322
EXTRACT: note_on channel=0 note=54 velocity=0 time=0.145161225
EXTRACT: note_on channel=2 note=61 velocity=0 time=0.043010733333333336
EXTRACT: note_on channel=2 note=66 velocity=0 time=0
EXTRACT: note_on channel=2 note=69 velocity=0 time=0
EXTRACT: note_on channel=0 note=61 velocity=97 time=0.005376341666666667
EXTRACT: note_on channel=0 note=66 velocity=103 time=0
EXTRACT: note_on channel=0 note=69 velocity=100 time=0
EXTRACT: note_on channel=2 note=61 velocity=98 time=0
EXTRACT: note_on channel=2 note=66 velocity=101 time=0
EXTRACT: note_on channel=2 note=69 velocity=101 time=0
EXTRACT: note_on channel=3 note=66 velocity=0 time=0.15591390833333335
EXTRACT: note_on channel=0 note=69 velocity=0 time=0.1290322
EXTRACT: note_on channel=0 note=66 velocity=0 time=0.010752683333333334
EXTRACT: note_on channel=0 note=54 velocity=100 time=0.026881708333333334
EXTRACT: note_on channel=9 note=36 velocity=120 time=0
EXTRACT: note_on channel=0 note=61 velocity=0 time=0.005376341666666667
EXTRACT: note_on channel=9 note=36 velocity=0 time=0.11290317500000001
EXTRACT: note_on channel=0 note=54 velocity=0 time=0.15591390833333335
EXTRACT: note_on channel=2 note=66 velocity=0 time=0.043010733333333336
EXTRACT: note_on channel=2 note=69 velocity=0 time=0
EXTRACT: note_on channel=2 note=61 velocity=0 time=0
EXTRACT: note_on channel=0 note=61 velocity=96 time=0.005376341666666667
EXTRACT: note_on channel=0 note=66 velocity=105 time=0
EXTRACT: note_on channel=0 note=69 velocity=105 time=0
EXTRACT: note_on channel=2 note=61 velocity=97 time=0
EXTRACT: note_on channel=2 note=66 velocity=103 time=0
EXTRACT: note_on channel=2 note=69 velocity=105 time=0
EXTRACT: note_on channel=9 note=38 velocity=120 time=0
EXTRACT: note_on channel=9 note=39 velocity=120 time=0
EXTRACT: note_on channel=9 note=38 velocity=0 time=0.10215049166666668
EXTRACT: note_on channel=9 note=39 velocity=0 time=0.010752683333333334
EXTRACT: note_on channel=0 note=69 velocity=0 time=0.06989244166666667
EXTRACT: note_on channel=0 note=61 velocity=0 time=0.03763439166666667
EXTRACT: note_on channel=0 note=66 velocity=0 time=0.016129025
EXTRACT: note_on channel=0 note=54 velocity=95 time=0.08602146666666667
EXTRACT: note_on channel=0 note=54 velocity=0 time=0.2634407416666667
EXTRACT: note_on channel=2 note=66 velocity=0 time=0.05376341666666667
EXTRACT: note_on channel=8 note=81 velocity=0 time=0
EXTRACT: note_on channel=8 note=85 velocity=0 time=0
EXTRACT: note_on channel=2 note=69 velocity=0 time=0
EXTRACT: note_on channel=2 note=61 velocity=0 time=0
EXTRACT: note_on channel=8 note=78 velocity=0 time=0
EXTRACT: note_on channel=0 note=57 velocity=99 time=0.005376341666666667
EXTRACT: note_on channel=0 note=62 velocity=109 time=0
EXTRACT: note_on channel=0 note=66 velocity=98 time=0
EXTRACT: note_on channel=0 note=69 velocity=102 time=0
EXTRACT: note_on channel=2 note=62 velocity=112 time=0
EXTRACT: note_on channel=2 note=66 velocity=101 time=0
EXTRACT: note_on channel=2 note=69 velocity=107 time=0
EXTRACT: note_on channel=8 note=74 velocity=107 time=0
EXTRACT: note_on channel=8 note=78 velocity=103 time=0
EXTRACT: note_on channel=8 note=81 velocity=108 time=0
EXTRACT: note_on channel=9 note=36 velocity=120 time=0
EXTRACT: control_change channel=0 control=64 value=0 time=0.026881708333333334
EXTRACT: note_on channel=9 note=36 velocity=0 time=0.10752683333333334
EXTRACT: control_change channel=0 control=64 value=127 time=0.10215049166666668
EXTRACT: note_on channel=0 note=50 velocity=99 time=0.08602146666666667
EXTRACT: note_on channel=0 note=69 velocity=0 time=0.010752683333333334
EXTRACT: note_on channel=0 note=62 velocity=0 time=0.010752683333333334
EXTRACT: note_on channel=0 note=66 velocity=0 time=0.016129025
EXTRACT: note_on channel=0 note=57 velocity=0 time=0.010752683333333334
EXTRACT: note_on channel=3 note=62 velocity=110 time=0.11290317500000001
EXTRACT: note_on channel=9 note=36 velocity=120 time=0
EXTRACT: note_on channel=9 note=36 velocity=0 time=0.09139780833333334
EXTRACT: note_on channel=2 note=62 velocity=0 time=0.0645161
EXTRACT: note_on channel=2 note=66 velocity=0 time=0
EXTRACT: note_on channel=2 note=69 velocity=0 time=0
EXTRACT: note_on channel=0 note=57 velocity=97 time=0.005376341666666667
EXTRACT: note_on channel=0 note=62 velocity=106 time=0
EXTRACT: note_on channel=0 note=66 velocity=92 time=0
EXTRACT: note_on channel=0 note=69 velocity=98 time=0
EXTRACT: note_on channel=2 note=62 velocity=106 time=0
EXTRACT: note_on channel=2 note=66 velocity=98 time=0
EXTRACT: note_on channel=2 note=69 velocity=106 time=0
EXTRACT: note_on channel=9 note=38 velocity=120 time=0
EXTRACT: note_on channel=9 note=39 velocity=120 time=0
EXTRACT: note_on channel=0 note=50 velocity=0 time=0.021505366666666668
EXTRACT: note_on channel=9 note=38 velocity=0 time=0.10215049166666668
EXTRACT: note_on channel=9 note=39 velocity=0 time=0.005376341666666667
EXTRACT: note_on channel=3 note=62 velocity=0 time=0.059139758333333334
EXTRACT: note_on channel=0 note=69 velocity=0 time=0.11827951666666667
EXTRACT: note_on channel=0 note=66 velocity=0 time=0.010752683333333334
EXTRACT: note_on channel=0 note=62 velocity=0 time=0
EXTRACT: note_on channel=0 note=50 velocity=98 time=0.005376341666666667
EXTRACT: note_on channel=3 note=62 velocity=109 time=0
EXTRACT: note_on channel=9 note=36 velocity=120 time=0
EXTRACT: note_on channel=0 note=57 velocity=0 time=0.005376341666666667
EXTRACT: note_on channel=3 note=62 velocity=0 time=0.06989244166666667
EXTRACT: note_on channel=9 note=36 velocity=0 time=0.0645161
EXTRACT: note_on channel=2 note=62 velocity=0 time=0.17741927500000002
EXTRACT: note_on channel=8 note=74 velocity=0 time=0
EXTRACT: note_on channel=2 note=69 velocity=0 time=0
EXTRACT: note_on channel=2 note=66 velocity=0 time=0
EXTRACT: note_on channel=8 note=78 velocity=0 time=0
EXTRACT: note_on channel=8 note=81 velocity=0 time=0
EXTRACT: control_change channel=0 control=64 value=0 time=0.005376341666666667
EXTRACT: note_on channel=0 note=61 velocity=101 time=0
EXTRACT: note_on channel=0 note=64 velocity=116 time=0
EXTRACT: note_on channel=0 note=69 velocity=115 time=0
EXTRACT: note_on channel=2 note=61 velocity=101 time=0
EXTRACT: note_on channel=2 note=64 velocity=107 time=0
EXTRACT: note_on channel=2 note=69 velocity=91 time=0
EXTRACT: note_on channel=3 note=64 velocity=109 time=0
EXTRACT: note_on channel=8 note=76 velocity=96 time=0
EXTRACT: note_on channel=8 note=81 velocity=108 time=0
EXTRACT: note_on channel=8 note=85 velocity=98 time=0
EXTRACT: note_on channel=0 note=50 velocity=0 time=0.026881708333333334
EXTRACT: note_on channel=3 note=64 velocity=0 time=0.059139758333333334
EXTRACT: control_change channel=0 control=64 value=127 time=0.07526878333333334
EXTRACT: note_on channel=3 note=64 velocity=108 time=0
EXTRACT: note_on channel=3 note=64 velocity=0 time=0.09139780833333334
EXTRACT: note_on channel=0 note=57 velocity=98 time=0.06989244166666667
EXTRACT: note_on channel=3 note=66 velocity=114 time=0
EXTRACT: note_on channel=9 note=36 velocity=120 time=0
EXTRACT: note_on channel=0 note=69 velocity=0 time=0.021505366666666668
EXTRACT: note_on channel=0 note=64 velocity=0 time=0.010752683333333334
EXTRACT: note_on channel=0 note=61 velocity=0 time=0.03763439166666667
EXTRACT: note_on channel=3 note=66 velocity=0 time=0.03225805
EXTRACT: note_on channel=9 note=36 velocity=0 time=0.016129025
EXTRACT: note_on channel=3 note=64 velocity=110 time=0.043010733333333336
EXTRACT: note_on channel=0 note=57 velocity=0 time=0.11827951666666667
EXTRACT: note_on channel=2 note=61 velocity=0 time=0.03763439166666667
EXTRACT: note_on channel=2 note=69 velocity=0 time=0
EXTRACT: note_on channel=2 note=64 velocity=0 time=0
EXTRACT: note_on channel=0 note=61 velocity=96 time=0.005376341666666667
EXTRACT: note_on channel=0 note=64 velocity=111 time=0
EXTRACT: note_on channel=0 note=69 velocity=110 time=0
EXTRACT: note_on channel=2 note=61 velocity=100 time=0
EXTRACT: note_on channel=2 note=64 velocity=107 time=0
EXTRACT: note_on channel=2 note=69 velocity=88 time=0
EXTRACT: note_on channel=9 note=38 velocity=120 time=0
EXTRACT: note_on channel=9 note=39 velocity=120 time=0
EXTRACT: note_on channel=9 note=38 velocity=0 time=0.11290317500000001
EXTRACT: note_on channel=9 note=39 velocity=0 time=0.010752683333333334
EXTRACT: note_on channel=0 note=69 velocity=0 time=0.1344085416666667
EXTRACT: note_on channel=0 note=64 velocity=0 time=0.005376341666666667
EXTRACT: note_on channel=0 note=61 velocity=0 time=0.03225805
EXTRACT: note_on channel=0 note=57 velocity=103 time=0.026881708333333334
EXTRACT: note_on channel=3 note=64 velocity=0 time=0.145161225
EXTRACT: note_on channel=0 note=57 velocity=0 time=0.048387075
EXTRACT: note_on channel=8 note=85 velocity=0 time=0.12365585833333334
EXTRACT: note_on channel=8 note=76 velocity=0 time=0
EXTRACT: note_on channel=2 note=69 velocity=0 time=0
EXTRACT: note_on channel=8 note=81 velocity=0 time=0
EXTRACT: note_on channel=2 note=61 velocity=0 time=0
EXTRACT: note_on channel=2 note=64 velocity=0 time=0
EXTRACT: note_on channel=0 note=57 velocity=106 time=0.005376341666666667
EXTRACT: note_on channel=0 note=62 velocity=115 time=0
EXTRACT: note_on channel=0 note=66 velocity=100 time=0
EXTRACT: note_on channel=0 note=69 velocity=99 time=0
EXTRACT: note_on channel=2 note=62 velocity=106 time=0
EXTRACT: note_on channel=2 note=66 velocity=101 time=0
EXTRACT: note_on channel=2 note=69 velocity=97 time=0
EXTRACT: note_on channel=8 note=74 velocity=107 time=0
EXTRACT: note_on channel=8 note=78 velocity=106 time=0
EXTRACT: note_on channel=8 note=81 velocity=111 time=0
EXTRACT: note_on channel=9 note=36 velocity=120 time=0
EXTRACT: control_change channel=0 control=64 value=0 time=0.043010733333333336
EXTRACT: note_on channel=9 note=36 velocity=0 time=0.080645125
EXTRACT: control_change channel=0 control=64 value=127 time=0.1344085416666667
EXTRACT: note_on channel=0 note=50 velocity=102 time=0.0645161
EXTRACT: note_on channel=0 note=69 velocity=0 time=0.043010733333333336
EXTRACT: note_on channel=0 note=66 velocity=0 time=0.005376341666666667
EXTRACT: note_on channel=0 note=62 velocity=0 time=0
EXTRACT: note_on channel=0 note=57 velocity=0 time=0.010752683333333334
EXTRACT: note_on channel=9 note=36 velocity=120 time=0.10215049166666668
EXTRACT: note_on channel=9 note=36 velocity=0 time=0.09139780833333334
EXTRACT: note_on channel=0 note=50 velocity=0 time=0.059139758333333334
EXTRACT: note_on channel=2 note=69 velocity=0 time=0.005376341666666667
EXTRACT: note_on channel=2 note=62 velocity=0 time=0
EXTRACT: note_on channel=2 note=66 velocity=0 time=0
EXTRACT: note_on channel=0 note=57 velocity=100 time=0.005376341666666667
EXTRACT: note_on channel=0 note=62 velocity=108 time=0
EXTRACT: note_on channel=0 note=66 velocity=97 time=0
EXTRACT: note_on channel=0 note=69 velocity=104 time=0
EXTRACT: note_on channel=2 note=62 velocity=108 time=0
EXTRACT: note_on channel=2 note=66 velocity=97 time=0
EXTRACT: note_on channel=2 note=69 velocity=104 time=0
EXTRACT: note_on channel=3 note=66 velocity=116 time=0
EXTRACT: note_on channel=9 note=38 velocity=120 time=0
EXTRACT: note_on channel=9 note=39 velocity=120 time=0
EXTRACT: note_on channel=3 note=66 velocity=0 time=0.06989244166666667
EXTRACT: note_on channel=9 note=38 velocity=0 time=0.026881708333333334
EXTRACT: note_on channel=9 note=39 velocity=0 time=0.005376341666666667
EXTRACT: note_on channel=3 note=66 velocity=99 time=0.059139758333333334
EXTRACT: note_on channel=3 note=66 velocity=0 time=0.080645125
EXTRACT: note_on channel=0 note=50 velocity=100 time=0.080645125
EXTRACT: note_on channel=3 note=66 velocity=100 time=0
EXTRACT: note_on channel=9 note=36 velocity=120 time=0
EXTRACT: note_on channel=0 note=62 velocity=0 time=0.005376341666666667
EXTRACT: note_on channel=0 note=57 velocity=0 time=0
EXTRACT: note_on channel=0 note=66 velocity=0 time=0.010752683333333334
EXTRACT: note_on channel=0 note=69 velocity=0 time=0.03225805
EXTRACT: note_on channel=3 note=66 velocity=0 time=0.03763439166666667
EXTRACT: note_on channel=9 note=36 velocity=0 time=0.03763439166666667
EXTRACT: note_on channel=3 note=66 velocity=103 time=0.03763439166666667
EXTRACT: note_on channel=3 note=66 velocity=0 time=0.10215049166666668
EXTRACT: note_on channel=0 note=50 velocity=0 time=0.016129025
EXTRACT: note_on channel=8 note=78 velocity=0 time=0.03763439166666667
EXTRACT: note_on channel=2 note=69 velocity=0 time=0
EXTRACT: note_on channel=2 note=62 velocity=0 time=0
EXTRACT: note_on channel=8 note=81 velocity=0 time=0
EXTRACT: note_on channel=8 note=74 velocity=0 time=0
EXTRACT: note_on channel=2 note=66 velocity=0 time=0
EXTRACT: note_on channel=0 note=59 velocity=107 time=0.005376341666666667
EXTRACT: note_on channel=0 note=64 velocity=111 time=0
EXTRACT: note_on channel=0 note=68 velocity=105 time=0
EXTRACT: control_change channel=0 control=64 value=0 time=0
EXTRACT: note_on channel=2 note=59 velocity=102 time=0
EXTRACT: note_on channel=2 note=64 velocity=107 time=0
EXTRACT: note_on channel=2 note=68 velocity=97 time=0
EXTRACT: note_on channel=3 note=68 velocity=116 time=0
EXTRACT: note_on channel=8 note=76 velocity=100 time=0
EXTRACT: note_on channel=8 note=80 velocity=106 time=0
EXTRACT: note_on channel=8 note=83 velocity=102 time=0
EXTRACT: control_change channel=0 control=64 value=127 time=0.25268805833333335
EXTRACT: note_on channel=3 note=68 velocity=0 time=0.005376341666666667
EXTRACT: note_on channel=0 note=52 velocity=95 time=0.0645161
EXTRACT: note_on channel=3 note=69 velocity=107 time=0
EXTRACT: note_on channel=9 note=36 velocity=120 time=0
EXTRACT: note_on channel=0 note=68 velocity=0 time=0.0645161
EXTRACT: note_on channel=0 note=59 velocity=0 time=0
EXTRACT: note_on channel=0 note=64 velocity=0 time=0.010752683333333334
EXTRACT: note_on channel=3 note=69 velocity=0 time=0.016129025
EXTRACT: note_on channel=9 note=36 velocity=0 time=0.03225805
EXTRACT: note_on channel=3 note=68 velocity=119 time=0.03763439166666667
EXTRACT: note_on channel=2 note=59 velocity=0 time=0.15591390833333335
EXTRACT: note_on channel=2 note=64 velocity=0 time=0
EXTRACT: note_on channel=2 note=68 velocity=0 time=0
EXTRACT: note_on channel=0 note=52 velocity=0 time=0.005376341666666667
EXTRACT: note_on channel=0 note=59 velocity=102 time=0
EXTRACT: note_on channel=0 note=64 velocity=104 time=0
EXTRACT: note_on channel=0 note=68 velocity=101 time=0
EXTRACT: note_on channel=2 note=59 velocity=104 time=0
EXTRACT: note_on channel=2 note=64 velocity=110 time=0
EXTRACT: note_on channel=2 note=68 velocity=102 time=0
EXTRACT: note_on channel=9 note=38 velocity=120 time=0
EXTRACT: note_on channel=9 note=39 velocity=120 time=0
EXTRACT: note_on channel=9 note=39 velocity=0 time=0.10215049166666668
EXTRACT: note_on channel=9 note=38 velocity=0 time=0
EXTRACT: note_on channel=3 note=68 velocity=0 time=0.15053756666666668
EXTRACT: note_on channel=0 note=52 velocity=101 time=0.06989244166666667
EXTRACT: note_on channel=3 note=68 velocity=108 time=0
EXTRACT: note_on channel=0 note=59 velocity=0 time=0.005376341666666667
EXTRACT: note_on channel=0 note=68 velocity=0 time=0.005376341666666667
EXTRACT: note_on channel=0 note=64 velocity=0 time=0.005376341666666667
EXTRACT: note_on channel=0 note=52 velocity=0 time=0.1827956166666667
EXTRACT: note_on channel=3 note=68 velocity=0 time=0.0645161
EXTRACT: control_change channel=0 control=64 value=0 time=0.026881708333333334
EXTRACT: note_on channel=8 note=76 velocity=0 time=0.026881708333333334
EXTRACT: note_on channel=8 note=83 velocity=0 time=0
EXTRACT: note_on channel=2 note=59 velocity=0 time=0
EXTRACT: note_on channel=2 note=64 velocity=0 time=0
EXTRACT: note_on channel=2 note=68 velocity=0 time=0
EXTRACT: note_on channel=8 note=80 velocity=0 time=0
EXTRACT: note_on channel=0 note=61 velocity=100 time=0.005376341666666667
EXTRACT: note_on channel=0 note=64 velocity=115 time=0
EXTRACT: note_on channel=0 note=69 velocity=115 time=0
EXTRACT: note_on channel=1 note=33 velocity=120 time=0
EXTRACT: note_on channel=2 note=61 velocity=93 time=0
EXTRACT: note_on channel=2 note=64 velocity=82 time=0
EXTRACT: note_on channel=2 note=69 velocity=85 time=0
EXTRACT: note_on channel=3 note=69 velocity=112 time=0
EXTRACT: note_on channel=6 note=61 velocity=92 time=0
EXTRACT: note_on channel=6 note=64 velocity=107 time=0
EXTRACT: note_on channel=6 note=69 velocity=109 time=0
EXTRACT: note_on channel=8 note=76 velocity=99 time=0
EXTRACT: note_on channel=8 note=81 velocity=112 time=0
EXTRACT: note_on channel=8 note=85 velocity=106 time=0
EXTRACT: note_on channel=9 note=36 velocity=120 time=0
EXTRACT: control_change channel=0 control=64 value=127 time=0.080645125
EXTRACT: note_on channel=9 note=36 velocity=0 time=0.0645161
EXTRACT: note_on channel=0 note=69 velocity=0 time=0.15591390833333335
EXTRACT: note_on channel=0 note=57 velocity=99 time=0.021505366666666668
EXTRACT: note_on channel=0 note=64 velocity=0 time=0.005376341666666667
EXTRACT: note_on channel=0 note=61 velocity=0 time=0.016129025
EXTRACT: note_on channel=9 note=36 velocity=120 time=0.13978488333333333
EXTRACT: note_on channel=9 note=36 velocity=0 time=0.11827951666666667
EXTRACT: note_on channel=0 note=57 velocity=0 time=0.010752683333333334
EXTRACT: note_on channel=2 note=69 velocity=0 time=0.026881708333333334
EXTRACT: note_on channel=2 note=61 velocity=0 time=0
EXTRACT: note_on channel=2 note=64 velocity=0 time=0
EXTRACT: note_on channel=0 note=61 velocity=94 time=0.005376341666666667
EXTRACT: note_on channel=0 note=64 velocity=111 time=0
EXTRACT: note_on channel=0 note=69 velocity=108 time=0
EXTRACT: note_on channel=2 note=61 velocity=95 time=0
EXTRACT: note_on channel=2 note=64 velocity=107 time=0
EXTRACT: note_on channel=2 note=69 velocity=97 time=0
EXTRACT: note_on channel=9 note=38 velocity=120 time=0
EXTRACT: note_on channel=9 note=39 velocity=120 time=0
EXTRACT: note_on channel=9 note=38 velocity=0 time=0.11290317500000001
EXTRACT: note_on channel=9 note=39 velocity=0 time=0.016129025
EXTRACT: note_on channel=0 note=69 velocity=0 time=0.06989244166666667
EXTRACT: note_on channel=0 note=64 velocity=0 time=0.03225805
EXTRACT: note_on channel=0 note=61 velocity=0 time=0.021505366666666668
EXTRACT: note_on channel=0 note=57 velocity=88 time=0.06989244166666667
EXTRACT: note_on channel=9 note=36 velocity=120 time=0
EXTRACT: note_on channel=9 note=36 velocity=0 time=0.15053756666666668
EXTRACT: note_on channel=3 note=69 velocity=0 time=0.059139758333333334
EXTRACT: note_on channel=0 note=57 velocity=0 time=0.08602146666666667
EXTRACT: note_on channel=2 note=61 velocity=0 time=0.021505366666666668
EXTRACT: note_on channel=2 note=64 velocity=0 time=0
EXTRACT: note_on channel=2 note=69 velocity=0 time=0
EXTRACT: note_on channel=0 note=61 velocity=93 time=0.005376341666666667
EXTRACT: note_on channel=0 note=64 velocity=106 time=0
EXTRACT: note_on channel=0 note=69 velocity=100 time=0
EXTRACT: note_on channel=2 note=61 velocity=100 time=0
EXTRACT: note_on channel=2 note=64 velocity=104 time=0
EXTRACT: note_on channel=2 note=69 velocity=94 time=0
EXTRACT: note_on channel=3 note=68 velocity=116 time=0
EXTRACT: note_on channel=0 note=69 velocity=0 time=0.23655903333333334
EXTRACT: note_on channel=0 note=64 velocity=0 time=0.03225805
EXTRACT: note_on channel=0 note=61 velocity=0 time=0.03225805
EXTRACT: note_on channel=3 note=68 velocity=0 time=0.021505366666666668
EXTRACT: note_on channel=0 note=57 velocity=94 time=0
EXTRACT: note_on channel=3 note=69 velocity=110 time=0
EXTRACT: note_on channel=9 note=36 velocity=120 time=0
EXTRACT: note_on channel=9 note=36 velocity=0 time=0.1290322
EXTRACT: note_on channel=0 note=57 velocity=0 time=0.1290322
EXTRACT: note_on channel=3 note=69 velocity=0 time=0.021505366666666668
EXTRACT: note_on channel=6 note=64 velocity=0 time=0.03763439166666667
EXTRACT: note_on channel=2 note=61 velocity=0 time=0
EXTRACT: note_on channel=6 note=69 velocity=0 time=0
EXTRACT: note_on channel=6 note=61 velocity=0 time=0
EXTRACT: note_on channel=2 note=69 velocity=0 time=0
EXTRACT: note_on channel=2 note=64 velocity=0 time=0
EXTRACT: note_on channel=0 note=61 velocity=88 time=0.005376341666666667
EXTRACT: note_on channel=0 note=64 velocity=105 time=0
EXTRACT: note_on channel=0 note=69 velocity=109 time=0
EXTRACT: note_on channel=2 note=61 velocity=101 time=0
EXTRACT: note_on channel=2 note=64 velocity=107 time=0
EXTRACT: note_on channel=2 note=69 velocity=94 time=0
EXTRACT: note_on channel=3 note=68 velocity=116 time=0
EXTRACT: note_on channel=9 note=38 velocity=120 time=0
EXTRACT: note_on channel=9 note=39 velocity=120 time=0
EXTRACT: note_on channel=9 note=38 velocity=0 time=0.11827951666666667
EXTRACT: note_on channel=9 note=39 velocity=0 time=0.010752683333333334
EXTRACT: note_on channel=0 note=69 velocity=0 time=0.13978488333333333
EXTRACT: note_on channel=3 note=68 velocity=0 time=0.010752683333333334
EXTRACT: note_on channel=0 note=64 velocity=0 time=0.026881708333333334
EXTRACT: note_on channel=0 note=61 velocity=0 time=0.010752683333333334
EXTRACT: note_on channel=0 note=57 velocity=92 time=0.005376341666666667
EXTRACT: note_on channel=3 note=66 velocity=112 time=0
EXTRACT: note_on channel=3 note=66 velocity=0 time=0.3172041583333334
EXTRACT: note_on channel=2 note=61 velocity=0 time=0
EXTRACT: note_on channel=8 note=76 velocity=0 time=0
EXTRACT: note_on channel=1 note=33 velocity=0 time=0
EXTRACT: note_on channel=8 note=81 velocity=0 time=0
EXTRACT: note_on channel=2 note=69 velocity=0 time=0
EXTRACT: note_on channel=2 note=64 velocity=0 time=0
EXTRACT: note_on channel=8 note=85 velocity=0 time=0
EXTRACT: note_on channel=0 note=61 velocity=100 time=0.005376341666666667
EXTRACT: note_on channel=0 note=66 velocity=106 time=0
EXTRACT: note_on channel=0 note=69 velocity=109 time=0
EXTRACT: note_on channel=1 note=30 velocity=120 time=0
EXTRACT: note_on channel=2 note=61 velocity=102 time=0
EXTRACT: note_on channel=2 note=66 velocity=105 time=0
EXTRACT: note_on channel=2 note=69 velocity=102 time=0
EXTRACT: note_on channel=6 note=61 velocity=93 time=0
EXTRACT: note_on channel=6 note=66 velocity=100 time=0
EXTRACT: note_on channel=6 note=69 velocity=97 time=0
EXTRACT: note_on channel=8 note=78 velocity=103 time=0
EXTRACT: note_on channel=8 note=81 velocity=110 time=0
EXTRACT: note_on channel=8 note=85 velocity=106 time=0
EXTRACT: note_on channel=9 note=36 velocity=120 time=0
EXTRACT: control_change channel=0 control=64 value=0 time=0.005376341666666667
EXTRACT: note_on channel=0 note=57 velocity=0 time=0.021505366666666668
EXTRACT: note_on channel=9 note=36 velocity=0 time=0.11827951666666667
EXTRACT: control_change channel=0 control=64 value=127 time=0.06989244166666667
EXTRACT: note_on channel=0 note=69 velocity=0 time=0.03225805
EXTRACT: note_on channel=0 note=66 velocity=0 time=0.0645161
EXTRACT: note_on channel=0 note=61 velocity=0 time=0.010752683333333334
EXTRACT: note_on channel=0 note=54 velocity=85 time=0
EXTRACT: note_on channel=3 note=69 velocity=108 time=0
EXTRACT: note_on channel=9 note=36 velocity=120 time=0.16129025
EXTRACT: note_on channel=3 note=69 velocity=0 time=0.07526878333333334
EXTRACT: note_on channel=9 note=36 velocity=0 time=0.021505366666666668
EXTRACT: note_on channel=0 note=54 velocity=0 time=0.043010733333333336
EXTRACT: note_on channel=2 note=69 velocity=0 time=0.016129025
EXTRACT: note_on channel=2 note=61 velocity=0 time=0
EXTRACT: note_on channel=2 note=66 velocity=0 time=0
EXTRACT: note_on channel=0 note=61 velocity=85 time=0.005376341666666667
EXTRACT: note_on channel=0 note=66 velocity=100 time=0
EXTRACT: note_on channel=0 note=69 velocity=103 time=0
EXTRACT: note_on channel=2 note=61 velocity=103 time=0
EXTRACT: note_on channel=2 note=66 velocity=103 time=0
EXTRACT: note_on channel=2 note=69 velocity=102 time=0
EXTRACT: note_on channel=3 note=69 velocity=112 time=0
EXTRACT: note_on channel=9 note=38 velocity=120 time=0
EXTRACT: note_on channel=9 note=39 velocity=120 time=0
EXTRACT: note_on channel=9 note=38 velocity=0 time=0.10752683333333334
EXTRACT: note_on channel=9 note=39 velocity=0 time=0.005376341666666667
EXTRACT: note_on channel=3 note=69 velocity=0 time=0.10215049166666668
EXTRACT: note_on channel=0 note=69 velocity=0 time=0.010752683333333334
EXTRACT: note_on channel=0 note=66 velocity=0 time=0.048387075
EXTRACT: note_on channel=0 note=61 velocity=0 time=0.016129025
EXTRACT: note_on channel=0 note=54 velocity=79 time=0.03225805
EXTRACT: note_on channel=3 note=69 velocity=110 time=0
EXTRACT: note_on channel=9 note=36 velocity=120 time=0
EXTRACT: note_on channel=9 note=36 velocity=0 time=0.1290322
EXTRACT: note_on channel=3 note=69 velocity=0 time=0.080645125
EXTRACT: note_on channel=0 note=54 velocity=0 time=0.03763439166666667
EXTRACT: note_on channel=2 note=61 velocity=0 time=0.06989244166666667
EXTRACT: note_on channel=2 note=66 velocity=0 time=0
EXTRACT: note_on channel=2 note=69 velocity=0 time=0
EXTRACT: note_on channel=0 note=61 velocity=94 time=0.005376341666666667
EXTRACT: note_on channel=0 note=66 velocity=96 time=0
EXTRACT: note_on channel=0 note=69 velocity=103 time=0
EXTRACT: note_on channel=2 note=61 velocity=100 time=0
EXTRACT: note_on channel=2 note=66 velocity=97 time=0
EXTRACT: note_on channel=2 note=69 velocity=102 time=0
EXTRACT: note_on channel=3 note=69 velocity=113 time=0
EXTRACT: note_on channel=0 note=69 velocity=0 time=0.241935375
EXTRACT: note_on channel=0 note=66 velocity=0 time=0.03225805
EXTRACT: note_on channel=3 note=69 velocity=0 time=0
EXTRACT: note_on channel=0 note=61 velocity=0 time=0.016129025
EXTRACT: note_on channel=0 note=54 velocity=88 time=0.03225805
EXTRACT: note_on channel=3 note=71 velocity=112 time=0
EXTRACT: note_on channel=9 note=36 velocity=120 time=0
EXTRACT: note_on channel=9 note=36 velocity=0 time=0.11827951666666667
EXTRACT: note_on channel=0 note=54 velocity=0 time=0.1344085416666667
EXTRACT: note_on channel=3 note=71 velocity=0 time=0.016129025
EXTRACT: note_on channel=6 note=69 velocity=0 time=0.048387075
EXTRACT: note_on channel=2 note=61 velocity=0 time=0
EXTRACT: note_on channel=6 note=61 velocity=0 time=0
EXTRACT: note_on channel=6 note=66 velocity=0 time=0
EXTRACT: note_on channel=2 note=69 velocity=0 time=0
EXTRACT: note_on channel=2 note=66 velocity=0 time=0
EXTRACT: note_on channel=0 note=61 velocity=94 time=0.005376341666666667
EXTRACT: note_on channel=0 note=66 velocity=101 time=0
EXTRACT: note_on channel=0 note=69 velocity=109 time=0
EXTRACT: note_on channel=2 note=61 velocity=106 time=0
EXTRACT: note_on channel=2 note=66 velocity=103 time=0
EXTRACT: note_on channel=2 note=69 velocity=106 time=0
EXTRACT: note_on channel=3 note=73 velocity=114 time=0
EXTRACT: note_on channel=9 note=38 velocity=120 time=0
EXTRACT: note_on channel=9 note=39 velocity=120 time=0
EXTRACT: note_on channel=9 note=38 velocity=0 time=0.10215049166666668
EXTRACT: note_on channel=9 note=39 velocity=0 time=0.010752683333333334
EXTRACT: note_on channel=0 note=69 velocity=0 time=0.10215049166666668
EXTRACT: note_on channel=3 note=73 velocity=0 time=0
EXTRACT: note_on channel=0 note=66 velocity=0 time=0.03225805
EXTRACT: note_on channel=0 note=61 velocity=0 time=0.021505366666666668
EXTRACT: note_on channel=1 note=30 velocity=0 time=0.048387075
EXTRACT: note_on channel=0 note=54 velocity=93 time=0.005376341666666667
EXTRACT: note_on channel=1 note=26 velocity=120 time=0
EXTRACT: note_on channel=3 note=66 velocity=116 time=0
EXTRACT: note_on channel=3 note=66 velocity=0 time=0.27956976666666666
EXTRACT: control_change channel=0 control=64 value=0 time=0.010752683333333334
EXTRACT: note_on channel=8 note=81 velocity=0 time=0.026881708333333334
EXTRACT: note_on channel=2 note=66 velocity=0 time=0
EXTRACT: note_on channel=1 note=26 velocity=0 time=0
EXTRACT: note_on channel=2 note=69 velocity=0 time=0
EXTRACT: note_on channel=8 note=78 velocity=0 time=0
EXTRACT: note_on channel=8 note=85 velocity=0 time=0
EXTRACT: note_on channel=2 note=61 velocity=0 time=0
EXTRACT: note_on channel=0 note=61 velocity=97 time=0.005376341666666667
EXTRACT: note_on channel=0 note=64 velocity=112 time=0
EXTRACT: note_on channel=0 note=68 velocity=106 time=0
EXTRACT: note_on channel=1 note=25 velocity=120 time=0
EXTRACT: note_on channel=2 note=61 velocity=96 time=0
EXTRACT: note_on channel=2 note=64 velocity=111 time=0
EXTRACT: note_on channel=2 note=68 velocity=104 time=0
EXTRACT: note_on channel=3 note=64 velocity=115 time=0
EXTRACT: note_on channel=6 note=61 velocity=92 time=0
EXTRACT: note_on channel=6 note=64 velocity=99 time=0
EXTRACT: note_on channel=6 note=68 velocity=97 time=0
EXTRACT: note_on channel=8 note=76 velocity=98 time=0
EXTRACT: note_on channel=8 note=80 velocity=101 time=0
EXTRACT: note_on channel=8 note=85 velocity=100 time=0
EXTRACT: note_on channel=9 note=36 velocity=120 time=0
EXTRACT: note_on channel=0 note=54 velocity=0 time=0.021505366666666668
EXTRACT: note_on channel=9 note=36 velocity=0 time=0.11290317500000001
EXTRACT: control_change channel=0 control=64 value=127 time=0.080645125
EXTRACT: note_on channel=0 note=68 velocity=0 time=0.10752683333333334
EXTRACT: note_on channel=0 note=64 velocity=0 time=0
EXTRACT: note_on channel=0 note=49 velocity=85 time=0
EXTRACT: note_on channel=0 note=61 velocity=0 time=0.016129025
EXTRACT: note_on channel=3 note=64 velocity=0 time=0.12365585833333334
EXTRACT: note_on channel=9 note=36 velocity=120 time=0.021505366666666668
EXTRACT: note_on channel=9 note=36 velocity=0 time=0.09139780833333334
EXTRACT: note_on channel=0 note=49 velocity=0 time=0.005376341666666667
EXTRACT: note_on channel=2 note=68 velocity=0 time=0.059139758333333334
EXTRACT: note_on channel=2 note=61 velocity=0 time=0
EXTRACT: note_on channel=2 note=64 velocity=0 time=0
EXTRACT: note_on channel=0 note=61 velocity=85 time=0.005376341666666667
EXTRACT: note_on channel=0 note=64 velocity=106 time=0
EXTRACT: note_on channel=0 note=68 velocity=100 time=0
EXTRACT: note_on channel=2 note=61 velocity=96 time=0
EXTRACT: note_on channel=2 note=64 velocity=110 time=0
EXTRACT: note_on channel=2 note=68 velocity=100 time=0
EXTRACT: note_on channel=3 note=69 velocity=116 time=0
EXTRACT: note_on channel=9 note=38 velocity=120 time=0
EXTRACT: note_on channel=9 note=39 velocity=120 time=0
EXTRACT: note_on channel=9 note=38 velocity=0 time=0.12365585833333334
EXTRACT: note_on channel=9 note=39 velocity=0 time=0.005376341666666667
EXTRACT: note_on channel=3 note=69 velocity=0 time=0.08602146666666667
EXTRACT: note_on channel=0 note=64 velocity=0 time=0.06989244166666667
EXTRACT: note_on channel=0 note=68 velocity=0 time=0
EXTRACT: note_on channel=0 note=61 velocity=0 time=0.016129025
EXTRACT: note_on channel=0 note=49 velocity=80 time=0.021505366666666668
EXTRACT: note_on channel=3 note=69 velocity=115 time=0
EXTRACT: note_on channel=9 note=36 velocity=120 time=0
EXTRACT: note_on channel=9 note=36 velocity=0 time=0.13978488333333333
EXTRACT: note_on channel=3 note=69 velocity=0 time=0.048387075
EXTRACT: note_on channel=0 note=49 velocity=0 time=0.059139758333333334
EXTRACT: note_on channel=2 note=61 velocity=0 time=0.06989244166666667
EXTRACT: note_on channel=2 note=64 velocity=0 time=0
EXTRACT: note_on channel=2 note=68 velocity=0 time=0
EXTRACT: note_on channel=0 note=61 velocity=85 time=0.005376341666666667
EXTRACT: note_on channel=0 note=64 velocity=106 time=0
EXTRACT: note_on channel=0 note=68 velocity=95 time=0
EXTRACT: note_on channel=2 note=61 velocity=96 time=0
EXTRACT: note_on channel=2 note=64 velocity=109 time=0
EXTRACT: note_on channel=2 note=68 velocity=100 time=0
EXTRACT: note_on channel=3 note=69 velocity=115 time=0
EXTRACT: note_on channel=3 note=69 velocity=0 time=0.274193425
EXTRACT: note_on channel=0 note=61 velocity=0 time=0.016129025
EXTRACT: note_on channel=0 note=64 velocity=0 time=0.005376341666666667
EXTRACT: note_on channel=0 note=68 velocity=0 time=0.021505366666666668
EXTRACT: note_on channel=0 note=49 velocity=87 time=0.005376341666666667
EXTRACT: note_on channel=3 note=71 velocity=107 time=0
EXTRACT: note_on channel=9 note=36 velocity=120 time=0
EXTRACT: note_on channel=9 note=36 velocity=0 time=0.11827951666666667
EXTRACT: note_on channel=3 note=71 velocity=0 time=0.17204293333333334
EXTRACT: note_on channel=0 note=49 velocity=0 time=0.005376341666666667
EXTRACT: note_on channel=6 note=61 velocity=0 time=0.021505366666666668
EXTRACT: note_on channel=2 note=61 velocity=0 time=0
EXTRACT: note_on channel=6 note=68 velocity=0 time=0
EXTRACT: note_on channel=6 note=64 velocity=0 time=0
EXTRACT: note_on channel=2 note=68 velocity=0 time=0
EXTRACT: note_on channel=2 note=64 velocity=0 time=0
EXTRACT: note_on channel=0 note=61 velocity=96 time=0.005376341666666667
EXTRACT: note_on channel=0 note=64 velocity=106 time=0
EXTRACT: note_on channel=0 note=68 velocity=103 time=0
EXTRACT: note_on channel=2 note=61 velocity=99 time=0
EXTRACT: note_on channel=2 note=64 velocity=113 time=0
EXTRACT: note_on channel=2 note=68 velocity=103 time=0
EXTRACT: note_on channel=3 note=73 velocity=114 time=0
EXTRACT: note_on channel=9 note=38 velocity=120 time=0
EXTRACT: note_on channel=9 note=39 velocity=120 time=0
EXTRACT: note_on channel=9 note=38 velocity=0 time=0.11290317500000001
EXTRACT: note_on channel=9 note=39 velocity=0 time=0.010752683333333334
EXTRACT: note_on channel=0 note=61 velocity=0 time=0.10752683333333334
EXTRACT: note_on channel=3 note=73 velocity=0 time=0.016129025
EXTRACT: note_on channel=0 note=64 velocity=0 time=0.010752683333333334
EXTRACT: note_on channel=0 note=68 velocity=0 time=0.005376341666666667
EXTRACT: note_on channel=0 note=49 velocity=87 time=0.059139758333333334
EXTRACT: note_on channel=3 note=66 velocity=120 time=0
EXTRACT: note_on channel=3 note=66 velocity=0 time=0.2956987916666667
EXTRACT: control_change channel=0 control=64 value=0 time=0.005376341666666667
EXTRACT: note_on channel=2 note=61 velocity=0 time=0.016129025
EXTRACT: note_on channel=1 note=25 velocity=0 time=0
EXTRACT: note_on channel=8 note=76 velocity=0 time=0
EXTRACT: note_on channel=8 note=80 velocity=0 time=0
EXTRACT: note_on channel=2 note=68 velocity=0 time=0
EXTRACT: note_on channel=2 note=64 velocity=0 time=0
EXTRACT: note_on channel=8 note=85 velocity=0 time=0
EXTRACT: note_on channel=0 note=59 velocity=103 time=0.005376341666666667
EXTRACT: note_on channel=0 note=64 velocity=108 time=0
EXTRACT: note_on channel=0 note=68 velocity=100 time=0
EXTRACT: note_on channel=1 note=28 velocity=120 time=0
EXTRACT: note_on channel=2 note=59 velocity=102 time=0
EXTRACT: note_on channel=2 note=64 velocity=110 time=0
EXTRACT: note_on channel=2 note=68 velocity=103 time=0
EXTRACT: note_on channel=3 note=64 velocity=116 time=0
EXTRACT: note_on channel=6 note=59 velocity=91 time=0
EXTRACT: note_on channel=6 note=64 velocity=98 time=0
EXTRACT: note_on channel=6 note=68 velocity=85 time=0
EXTRACT: note_on channel=8 note=76 velocity=92 time=0
EXTRACT: note_on channel=8 note=80 velocity=100 time=0
EXTRACT: note_on channel=8 note=83 velocity=107 time=0
EXTRACT: note_on channel=9 note=36 velocity=120 time=0
EXTRACT: note_on channel=0 note=49 velocity=0 time=0.010752683333333334
EXTRACT: note_on channel=9 note=36 velocity=0 time=0.11290317500000001
EXTRACT: control_change channel=0 control=64 value=127 time=0.0645161
EXTRACT: note_on channel=0 note=52 velocity=61 time=0.1344085416666667
EXTRACT: note_on channel=0 note=59 velocity=0 time=0.016129025
EXTRACT: note_on channel=0 note=64 velocity=0 time=0
EXTRACT: note_on channel=0 note=68 velocity=0 time=0.010752683333333334
EXTRACT: note_on channel=9 note=36 velocity=120 time=0.1344085416666667
EXTRACT: note_on channel=0 note=52 velocity=0 time=0.059139758333333334
EXTRACT: note_on channel=9 note=36 velocity=0 time=0.03225805
EXTRACT: note_on channel=2 note=68 velocity=0 time=0.0645161
EXTRACT: note_on channel=2 note=59 velocity=0 time=0
EXTRACT: note_on channel=2 note=64 velocity=0 time=0
EXTRACT: note_on channel=0 note=59 velocity=96 time=0.005376341666666667
EXTRACT: note_on channel=0 note=64 velocity=102 time=0
EXTRACT: note_on channel=0 note=68 velocity=97 time=0
EXTRACT: note_on channel=2 note=59 velocity=100 time=0
EXTRACT: note_on channel=2 note=64 velocity=112 time=0
EXTRACT: note_on channel=2 note=68 velocity=103 time=0
EXTRACT: note_on channel=9 note=38 velocity=120 time=0
EXTRACT: note_on channel=9 note=39 velocity=120 time=0
EXTRACT: note_on channel=3 note=64 velocity=0 time=0.043010733333333336
EXTRACT: note_on channel=9 note=38 velocity=0 time=0.05376341666666667
EXTRACT: note_on channel=9 note=39 velocity=0 time=0.005376341666666667
EXTRACT: note_on channel=0 note=68 velocity=0 time=0.18817195833333333
EXTRACT: note_on channel=0 note=64 velocity=0 time=0.005376341666666667
EXTRACT: note_on channel=0 note=59 velocity=0 time=0.005376341666666667
EXTRACT: note_on channel=0 note=52 velocity=86 time=0.021505366666666668
EXTRACT: note_on channel=9 note=36 velocity=120 time=0
EXTRACT: note_on channel=9 note=36 velocity=0 time=0.12365585833333334
EXTRACT: note_on channel=0 note=52 velocity=0 time=0.13978488333333333
EXTRACT: note_on channel=2 note=64 velocity=0 time=0.05376341666666667
EXTRACT: note_on channel=2 note=59 velocity=0 time=0
EXTRACT: note_on channel=2 note=68 velocity=0 time=0
EXTRACT: note_on channel=0 note=59 velocity=98 time=0.005376341666666667
EXTRACT: note_on channel=0 note=64 velocity=102 time=0
EXTRACT: note_on channel=0 note=68 velocity=97 time=0
EXTRACT: note_on channel=2 note=59 velocity=100 time=0
EXTRACT: note_on channel=2 note=64 velocity=111 time=0
EXTRACT: note_on channel=2 note=68 velocity=102 time=0
EXTRACT: note_on channel=3 note=64 velocity=112 time=0
EXTRACT: note_on channel=3 note=64 velocity=0 time=0.30107513333333336
EXTRACT: note_on channel=0 note=59 velocity=0 time=0.021505366666666668
EXTRACT: note_on channel=0 note=52 velocity=98 time=0
EXTRACT: note_on channel=3 note=66 velocity=119 time=0
EXTRACT: note_on channel=9 note=36 velocity=120 time=0
EXTRACT: note_on channel=0 note=68 velocity=0 time=0.010752683333333334
EXTRACT: note_on channel=0 note=64 velocity=0 time=0
EXTRACT: note_on channel=9 note=36 velocity=0 time=0.11290317500000001
EXTRACT: note_on channel=0 note=52 velocity=0 time=0.1344085416666667
EXTRACT: note_on channel=3 note=66 velocity=0 time=0.005376341666666667
EXTRACT: note_on channel=6 note=59 velocity=0 time=0.05376341666666667
EXTRACT: note_on channel=6 note=64 velocity=0 time=0
EXTRACT: note_on channel=2 note=59 velocity=0 time=0
EXTRACT: note_on channel=6 note=68 velocity=0 time=0
EXTRACT: note_on channel=2 note=68 velocity=0 time=0
EXTRACT: note_on channel=2 note=64 velocity=0 time=0
EXTRACT: note_on channel=0 note=59 velocity=97 time=0.005376341666666667
EXTRACT: note_on channel=0 note=64 velocity=101 time=0
EXTRACT: note_on channel=0 note=68 velocity=93 time=0
EXTRACT: note_on channel=2 note=59 velocity=102 time=0
EXTRACT: note_on channel=2 note=64 velocity=111 time=0
EXTRACT: note_on channel=2 note=68 velocity=103 time=0
EXTRACT: note_on channel=3 note=69 velocity=115 time=0
EXTRACT: note_on channel=9 note=38 velocity=120 time=0
EXTRACT: note_on channel=9 note=39 velocity=120 time=0
EXTRACT: note_on channel=9 note=39 velocity=0 time=0.10215049166666668
EXTRACT: note_on channel=9 note=38 velocity=0 time=0
EXTRACT: note_on channel=0 note=59 velocity=0 time=0.080645125
EXTRACT: note_on channel=0 note=64 velocity=0 time=0.0645161
EXTRACT: note_on channel=0 note=68 velocity=0 time=0.016129025
EXTRACT: note_on channel=3 note=69 velocity=0 time=0.03225805
EXTRACT: note_on channel=1 note=28 velocity=0 time=0.021505366666666668
EXTRACT: note_on channel=0 note=52 velocity=95 time=0.005376341666666667
EXTRACT: note_on channel=1 note=30 velocity=120 time=0
EXTRACT: note_on channel=3 note=71 velocity=107 time=0
EXTRACT: note_on channel=3 note=71 velocity=0 time=0.2688170833333334
EXTRACT: note_on channel=8 note=76 velocity=0 time=0.048387075
EXTRACT: note_on channel=2 note=64 velocity=0 time=0
EXTRACT: note_on channel=1 note=30 velocity=0 time=0
EXTRACT: note_on channel=8 note=80 velocity=0 time=0
EXTRACT: note_on channel=2 note=59 velocity=0 time=0
EXTRACT: note_on channel=2 note=68 velocity=0 time=0
EXTRACT: note_on channel=8 note=83 velocity=0 time=0
EXTRACT: control_change channel=0 control=64 value=0 time=0
EXTRACT: note_on channel=0 note=52 velocity=0 time=0.005376341666666667
EXTRACT: note_on channel=0 note=61 velocity=102 time=0
EXTRACT: note_on channel=0 note=64 velocity=115 time=0
EXTRACT: note_on channel=0 note=69 velocity=112 time=0
EXTRACT: note_on channel=1 note=33 velocity=120 time=0
EXTRACT: note_on channel=2 note=61 velocity=94 time=0
EXTRACT: note_on channel=2 note=64 velocity=109 time=0
EXTRACT: note_on channel=2 note=69 velocity=104 time=0
EXTRACT: note_on channel=3 note=69 velocity=115 time=0
EXTRACT: note_on channel=6 note=61 velocity=88 time=0
EXTRACT: note_on channel=6 note=64 velocity=102 time=0
EXTRACT: note_on channel=6 note=69 velocity=98 time=0
EXTRACT: note_on channel=8 note=76 velocity=93 time=0
EXTRACT: note_on channel=8 note=81 velocity=104 time=0
EXTRACT: note_on channel=8 note=85 velocity=100 time=0
EXTRACT: note_on channel=9 note=36 velocity=120 time=0
EXTRACT: note_on channel=9 note=36 velocity=0 time=0.145161225
EXTRACT: control_change channel=0 control=64 value=127 time=0.059139758333333334
EXTRACT: note_on channel=0 note=69 velocity=0 time=0.08602146666666667
EXTRACT: note_on channel=0 note=64 velocity=0 time=0.016129025
EXTRACT: note_on channel=0 note=57 velocity=97 time=0.016129025
EXTRACT: note_on channel=0 note=61 velocity=0 time=0.005376341666666667
EXTRACT: note_on channel=9 note=36 velocity=120 time=0.15591390833333335
EXTRACT: note_on channel=9 note=36 velocity=0 time=0.11827951666666667
EXTRACT: note_on channel=2 note=61 velocity=0 time=0.03763439166666667
EXTRACT: note_on channel=2 note=64 velocity=0 time=0
EXTRACT: note_on channel=2 note=69 velocity=0 time=0
EXTRACT: note_on channel=0 note=61 velocity=91 time=0.005376341666666667
EXTRACT: note_on channel=0 note=64 velocity=106 time=0
EXTRACT: note_on channel=0 note=69 velocity=100 time=0
EXTRACT: note_on channel=2 note=61 velocity=97 time=0
EXTRACT: note_on channel=2 note=64 velocity=110 time=0
EXTRACT: note_on channel=2 note=69 velocity=107 time=0
EXTRACT: note_on channel=9 note=38 velocity=120 time=0
EXTRACT: note_on channel=9 note=39 velocity=120 time=0
EXTRACT: note_on channel=0 note=57 velocity=0 time=0.010752683333333334
EXTRACT: note_on channel=9 note=38 velocity=0 time=0.10215049166666668
EXTRACT: note_on channel=9 note=39 velocity=0 time=0.016129025
EXTRACT: note_on channel=0 note=69 velocity=0 time=0.11290317500000001
EXTRACT: note_on channel=0 note=64 velocity=0 time=0.026881708333333334
EXTRACT: note_on channel=0 note=61 velocity=0 time=0.026881708333333334
EXTRACT: note_on channel=0 note=57 velocity=86 time=0.026881708333333334
EXTRACT: note_on channel=9 note=36 velocity=120 time=0
EXTRACT: note_on channel=9 note=36 velocity=0 time=0.15053756666666668
EXTRACT: note_on channel=3 note=69 velocity=0 time=0.05376341666666667
EXTRACT: note_on channel=0 note=57 velocity=0 time=0.09139780833333334
EXTRACT: note_on channel=2 note=61 velocity=0 time=0.021505366666666668
EXTRACT: note_on channel=2 note=64 velocity=0 time=0
EXTRACT: note_on channel=2 note=69 velocity=0 time=0
EXTRACT: note_on channel=0 note=61 velocity=82 time=0.005376341666666667
EXTRACT: note_on channel=0 note=64 velocity=100 time=0
EXTRACT: note_on channel=0 note=69 velocity=88 time=0
EXTRACT: note_on channel=2 note=61 velocity=98 time=0
EXTRACT: note_on channel=2 note=64 velocity=112 time=0
EXTRACT: note_on channel=2 note=69 velocity=109 time=0
EXTRACT: note_on channel=3 note=68 velocity=116 time=0
EXTRACT: note_on channel=0 note=69 velocity=0 time=0.2580644
EXTRACT: note_on channel=0 note=64 velocity=0 time=0.021505366666666668
EXTRACT: note_on channel=3 note=68 velocity=0 time=0.016129025
EXTRACT: note_on channel=0 note=61 velocity=0 time=0.016129025
EXTRACT: note_on channel=0 note=57 velocity=94 time=0.010752683333333334
EXTRACT: note_on channel=3 note=69 velocity=109 time=0
EXTRACT: note_on channel=9 note=36 velocity=120 time=0
EXTRACT: note_on channel=9 note=36 velocity=0 time=0.1290322
EXTRACT: note_on channel=3 note=69 velocity=0 time=0.1344085416666667
EXTRACT: note_on channel=2 note=64 velocity=0 time=0.05376341666666667
EXTRACT: note_on channel=6 note=69 velocity=0 time=0
EXTRACT: note_on channel=2 note=61 velocity=0 time=0
EXTRACT: note_on channel=6 note=64 velocity=0 time=0
EXTRACT: note_on channel=6 note=61 velocity=0 time=0
EXTRACT: note_on channel=2 note=69 velocity=0 time=0
EXTRACT: note_on channel=0 note=61 velocity=84 time=0.005376341666666667
EXTRACT: note_on channel=0 note=64 velocity=102 time=0
EXTRACT: note_on channel=0 note=69 velocity=98 time=0
EXTRACT: note_on channel=2 note=61 velocity=97 time=0
EXTRACT: note_on channel=2 note=64 velocity=110 time=0
EXTRACT: note_on channel=2 note=69 velocity=107 time=0
EXTRACT: note_on channel=3 note=68 velocity=106 time=0
EXTRACT: note_on channel=9 note=38 velocity=120 time=0
EXTRACT: note_on channel=9 note=39 velocity=120 time=0
EXTRACT: note_on channel=0 note=57 velocity=0 time=0.005376341666666667
EXTRACT: note_on channel=9 note=38 velocity=0 time=0.11290317500000001
EXTRACT: note_on channel=9 note=39 velocity=0 time=0.010752683333333334
EXTRACT: note_on channel=0 note=69 velocity=0 time=0.145161225
EXTRACT: note_on channel=3 note=68 velocity=0 time=0.026881708333333334
EXTRACT: note_on channel=0 note=64 velocity=0 time=0.021505366666666668
EXTRACT: note_on channel=0 note=57 velocity=94 time=0
EXTRACT: note_on channel=3 note=66 velocity=114 time=0
EXTRACT: note_on channel=0 note=61 velocity=0 time=0.03225805
EXTRACT: note_on channel=8 note=81 velocity=0 time=0.28494610833333334
EXTRACT: note_on channel=2 note=61 velocity=0 time=0
EXTRACT: note_on channel=8 note=85 velocity=0 time=0
EXTRACT: note_on channel=1 note=33 velocity=0 time=0
EXTRACT: note_on channel=2 note=64 velocity=0 time=0
EXTRACT: note_on channel=2 note=69 velocity=0 time=0
EXTRACT: note_on channel=8 note=76 velocity=0 time=0
EXTRACT: note_on channel=0 note=61 velocity=97 time=0.005376341666666667
EXTRACT: note_on channel=0 note=66 velocity=103 time=0
EXTRACT: note_on channel=0 note=69 velocity=107 time=0
EXTRACT: note_on channel=1 note=30 velocity=120 time=0
EXTRACT: note_on channel=2 note=61 velocity=96 time=0
EXTRACT: note_on channel=2 note=66 velocity=104 time=0
EXTRACT: note_on channel=2 note=69 velocity=99 time=0
EXTRACT: note_on channel=6 note=61 velocity=85 time=0
EXTRACT: note_on channel=6 note=66 velocity=94 time=0
EXTRACT: note_on channel=6 note=69 velocity=100 time=0
EXTRACT: note_on channel=8 note=78 velocity=97 time=0
EXTRACT: note_on channel=8 note=81 velocity=109 time=0
EXTRACT: note_on channel=8 note=85 velocity=96 time=0
EXTRACT: note_on channel=9 note=36 velocity=120 time=0
EXTRACT: note_on channel=0 note=57 velocity=0 time=0.026881708333333334
EXTRACT: note_on channel=3 note=66 velocity=0 time=0.016129025
EXTRACT: control_change channel=0 control=64 value=0 time=0
EXTRACT: note_on channel=9 note=36 velocity=0 time=0.10215049166666668
EXTRACT: note_on channel=0 note=69 velocity=0 time=0.11827951666666667
EXTRACT: control_change channel=0 control=64 value=127 time=0.010752683333333334
EXTRACT: note_on channel=0 note=66 velocity=0 time=0.043010733333333336
EXTRACT: note_on channel=0 note=61 velocity=0 time=0.005376341666666667
EXTRACT: note_on channel=0 note=54 velocity=82 time=0
EXTRACT: note_on channel=9 note=36 velocity=120 time=0.16129025
EXTRACT: note_on channel=0 note=54 velocity=0 time=0.08602146666666667
EXTRACT: note_on channel=9 note=36 velocity=0 time=0.010752683333333334
EXTRACT: note_on channel=2 note=66 velocity=0 time=0.059139758333333334
EXTRACT: note_on channel=2 note=69 velocity=0 time=0
EXTRACT: note_on channel=2 note=61 velocity=0 time=0
EXTRACT: note_on channel=0 note=61 velocity=85 time=0.005376341666666667
EXTRACT: note_on channel=0 note=66 velocity=91 time=0
EXTRACT: note_on channel=0 note=69 velocity=93 time=0
EXTRACT: note_on channel=2 note=61 velocity=100 time=0
EXTRACT: note_on channel=2 note=66 velocity=100 time=0
EXTRACT: note_on channel=2 note=69 velocity=103 time=0
EXTRACT: note_on channel=3 note=69 velocity=116 time=0
EXTRACT: note_on channel=9 note=38 velocity=120 time=0
EXTRACT: note_on channel=9 note=39 velocity=120 time=0
EXTRACT: note_on channel=9 note=38 velocity=0 time=0.10752683333333334
EXTRACT: note_on channel=9 note=39 velocity=0 time=0.005376341666666667
EXTRACT: note_on channel=0 note=69 velocity=0 time=0.11290317500000001
EXTRACT: note_on channel=0 note=66 velocity=0 time=0.05376341666666667
EXTRACT: note_on channel=3 note=69 velocity=0 time=0.005376341666666667
EXTRACT: note_on channel=0 note=61 velocity=0 time=0.016129025
EXTRACT: note_on channel=0 note=54 velocity=82 time=0.021505366666666668
EXTRACT: note_on channel=3 note=69 velocity=112 time=0
EXTRACT: note_on channel=9 note=36 velocity=120 time=0
EXTRACT: note_on channel=9 note=36 velocity=0 time=0.1290322
EXTRACT: note_on channel=3 note=69 velocity=0 time=0.11290317500000001
EXTRACT: note_on channel=0 note=54 velocity=0 time=0.0645161
EXTRACT: note_on channel=2 note=61 velocity=0 time=0.010752683333333334
EXTRACT: note_on channel=2 note=66 velocity=0 time=0
EXTRACT: note_on channel=2 note=69 velocity=0 time=0
EXTRACT: note_on channel=0 note=61 velocity=92 time=0.005376341666666667
EXTRACT: note_on channel=0 note=66 velocity=97 time=0
EXTRACT: note_on channel=0 note=69 velocity=99 time=0
EXTRACT: note_on channel=2 note=61 velocity=100 time=0
EXTRACT: note_on channel=2 note=66 velocity=107 time=0
EXTRACT: note_on channel=2 note=69 velocity=110 time=0
EXTRACT: note_on channel=3 note=69 velocity=112 time=0
EXTRACT: note_on channel=3 note=69 velocity=0 time=0.2580644
EXTRACT: note_on channel=0 note=69 velocity=0 time=0
EXTRACT: note_on channel=0 note=66 velocity=0 time=0.03225805
EXTRACT: note_on channel=0 note=61 velocity=0 time=0.005376341666666667
EXTRACT: note_on channel=0 note=54 velocity=82 time=0.026881708333333334
EXTRACT: note_on channel=3 note=71 velocity=109 time=0
EXTRACT: note_on channel=9 note=36 velocity=120 time=0
EXTRACT: note_on channel=9 note=36 velocity=0 time=0.11827951666666667
EXTRACT: note_on channel=3 note=71 velocity=0 time=0.18817195833333333
EXTRACT: note_on channel=0 note=54 velocity=0 time=0
EXTRACT: note_on channel=2 note=61 velocity=0 time=0.010752683333333334
EXTRACT: note_on channel=6 note=61 velocity=0 time=0
EXTRACT: note_on channel=6 note=66 velocity=0 time=0
EXTRACT: note_on channel=6 note=69 velocity=0 time=0
EXTRACT: note_on channel=2 note=69 velocity=0 time=0
EXTRACT: note_on channel=2 note=66 velocity=0 time=0
EXTRACT: note_on channel=0 note=61 velocity=94 time=0.005376341666666667
EXTRACT: note_on channel=0 note=66 velocity=101 time=0
EXTRACT: note_on channel=0 note=69 velocity=104 time=0
EXTRACT: note_on channel=2 note=61 velocity=100 time=0
EXTRACT: note_on channel=2 note=66 velocity=97 time=0
EXTRACT: note_on channel=2 note=69 velocity=107 time=0
EXTRACT: note_on channel=3 note=73 velocity=114 time=0
EXTRACT: note_on channel=9 note=38 velocity=120 time=0
EXTRACT: note_on channel=9 note=39 velocity=120 time=0
EXTRACT: note_on channel=9 note=38 velocity=0 time=0.10215049166666668
EXTRACT: note_on channel=9 note=39 velocity=0 time=0.010752683333333334
EXTRACT: note_on channel=3 note=73 velocity=0 time=0.09677415
EXTRACT: note_on channel=0 note=69 velocity=0 time=0.021505366666666668
EXTRACT: note_on channel=0 note=61 velocity=0 time=0.05376341666666667
EXTRACT: note_on channel=0 note=66 velocity=0 time=0.016129025
EXTRACT: note_on channel=1 note=30 velocity=0 time=0.016129025
EXTRACT: note_on channel=0 note=54 velocity=81 time=0.005376341666666667
EXTRACT: note_on channel=1 note=26 velocity=120 time=0
EXTRACT: note_on channel=3 note=66 velocity=111 time=0
EXTRACT: note_on channel=3 note=66 velocity=0 time=0.30107513333333336
EXTRACT: note_on channel=8 note=78 velocity=0 time=0.016129025
EXTRACT: note_on channel=2 note=66 velocity=0 time=0
EXTRACT: note_on channel=1 note=26 velocity=0 time=0
EXTRACT: note_on channel=8 note=81 velocity=0 time=0
EXTRACT: note_on channel=2 note=69 velocity=0 time=0
EXTRACT: note_on channel=8 note=85 velocity=0 time=0
EXTRACT: note_on channel=2 note=61 velocity=0 time=0
EXTRACT: note_on channel=0 note=61 velocity=100 time=0.005376341666666667
EXTRACT: note_on channel=0 note=64 velocity=113 time=0
EXTRACT: note_on channel=0 note=68 velocity=105 time=0
EXTRACT: note_on channel=1 note=25 velocity=120 time=0
EXTRACT: note_on channel=2 note=61 velocity=100 time=0
EXTRACT: note_on channel=2 note=64 velocity=111 time=0
EXTRACT: note_on channel=2 note=68 velocity=106 time=0
EXTRACT: note_on channel=3 note=64 velocity=112 time=0
EXTRACT: note_on channel=6 note=61 velocity=87 time=0
EXTRACT: note_on channel=6 note=64 velocity=104 time=0
EXTRACT: note_on channel=6 note=68 velocity=88 time=0
EXTRACT: note_on channel=8 note=76 velocity=102 time=0
EXTRACT: note_on channel=8 note=80 velocity=105 time=0
EXTRACT: note_on channel=8 note=85 velocity=101 time=0
EXTRACT: note_on channel=9 note=36 velocity=120 time=0
EXTRACT: note_on channel=0 note=54 velocity=0 time=0.005376341666666667
EXTRACT: control_change channel=0 control=64 value=0 time=0.048387075
EXTRACT: note_on channel=9 note=36 velocity=0 time=0.080645125
EXTRACT: control_change channel=0 control=64 value=127 time=0.15053756666666668
EXTRACT: note_on channel=0 note=68 velocity=0 time=0.026881708333333334
EXTRACT: note_on channel=0 note=49 velocity=80 time=0.010752683333333334
EXTRACT: note_on channel=0 note=64 velocity=0 time=0.005376341666666667
EXTRACT: note_on channel=0 note=61 velocity=0 time=0.016129025
EXTRACT: note_on channel=3 note=64 velocity=0 time=0.09677415
EXTRACT: note_on channel=9 note=36 velocity=120 time=0.043010733333333336
EXTRACT: note_on channel=0 note=49 velocity=0 time=0.07526878333333334
EXTRACT: note_on channel=9 note=36 velocity=0 time=0.016129025
EXTRACT: note_on channel=2 note=64 velocity=0 time=0.0645161
EXTRACT: note_on channel=2 note=68 velocity=0 time=0
EXTRACT: note_on channel=2 note=61 velocity=0 time=0
EXTRACT: note_on channel=0 note=61 velocity=85 time=0.005376341666666667
EXTRACT: note_on channel=0 note=64 velocity=104 time=0
EXTRACT: note_on channel=0 note=68 velocity=100 time=0
EXTRACT: note_on channel=2 note=61 velocity=96 time=0
EXTRACT: note_on channel=2 note=64 velocity=111 time=0
EXTRACT: note_on channel=2 note=68 velocity=101 time=0
EXTRACT: note_on channel=3 note=69 velocity=115 time=0
EXTRACT: note_on channel=9 note=38 velocity=120 time=0
EXTRACT: note_on channel=9 note=39 velocity=120 time=0
EXTRACT: note_on channel=9 note=38 velocity=0 time=0.12365585833333334
EXTRACT: note_on channel=9 note=39 velocity=0 time=0.005376341666666667
EXTRACT: note_on channel=3 note=69 velocity=0 time=0.11290317500000001
EXTRACT: note_on channel=0 note=64 velocity=0 time=0.010752683333333334
EXTRACT: note_on channel=0 note=68 velocity=0 time=0.021505366666666668
EXTRACT: note_on channel=0 note=61 velocity=0 time=0.005376341666666667
EXTRACT: note_on channel=0 note=49 velocity=84 time=0.043010733333333336
EXTRACT: note_on channel=3 note=69 velocity=112 time=0
EXTRACT: note_on channel=9 note=36 velocity=120 time=0
EXTRACT: note_on channel=9 note=36 velocity=0 time=0.13978488333333333
EXTRACT: note_on channel=0 note=49 velocity=0 time=0.07526878333333334
EXTRACT: note_on channel=3 note=69 velocity=0 time=0.016129025
EXTRACT: note_on channel=2 note=61 velocity=0 time=0.08602146666666667
EXTRACT: note_on channel=2 note=64 velocity=0 time=0
EXTRACT: note_on channel=2 note=68 velocity=0 time=0
EXTRACT: note_on channel=0 note=61 velocity=84 time=0.005376341666666667
EXTRACT: note_on channel=0 note=64 velocity=98 time=0
EXTRACT: note_on channel=0 note=68 velocity=100 time=0
EXTRACT: note_on channel=2 note=61 velocity=95 time=0
EXTRACT: note_on channel=2 note=64 velocity=110 time=0
EXTRACT: note_on channel=2 note=68 velocity=99 time=0
EXTRACT: note_on channel=3 note=69 velocity=112 time=0
EXTRACT: note_on channel=3 note=69 velocity=0 time=0.274193425
EXTRACT: note_on channel=0 note=64 velocity=0 time=0.005376341666666667
EXTRACT: note_on channel=0 note=68 velocity=0 time=0
EXTRACT: note_on channel=0 note=61 velocity=0 time=0.03763439166666667
EXTRACT: note_on channel=0 note=49 velocity=84 time=0.005376341666666667
EXTRACT: note_on channel=3 note=71 velocity=111 time=0
EXTRACT: note_on channel=9 note=36 velocity=120 time=0
EXTRACT: note_on channel=9 note=36 velocity=0 time=0.11827951666666667
EXTRACT: note_on channel=0 note=49 velocity=0 time=0.080645125
EXTRACT: note_on channel=3 note=71 velocity=0 time=0.048387075
EXTRACT: note_on channel=2 note=61 velocity=0 time=0.06989244166666667
EXTRACT: note_on channel=6 note=64 velocity=0 time=0
EXTRACT: note_on channel=6 note=61 velocity=0 time=0
EXTRACT: note_on channel=2 note=64 velocity=0 time=0
EXTRACT: note_on channel=2 note=68 velocity=0 time=0
EXTRACT: note_on channel=6 note=68 velocity=0 time=0
EXTRACT: note_on channel=0 note=61 velocity=93 time=0.005376341666666667
EXTRACT: note_on channel=0 note=64 velocity=107 time=0
EXTRACT: note_on channel=0 note=68 velocity=100 time=0
EXTRACT: note_on channel=2 note=61 velocity=96 time=0
EXTRACT: note_on channel=2 note=64 velocity=108 time=0
EXTRACT: note_on channel=2 note=68 velocity=99 time=0
EXTRACT: note_on channel=3 note=73 velocity=110 time=0
EXTRACT: note_on channel=9 note=38 velocity=120 time=0
EXTRACT: note_on channel=9 note=39 velocity=120 time=0
EXTRACT: note_on channel=9 note=38 velocity=0 time=0.11290317500000001
EXTRACT: note_on channel=9 note=39 velocity=0 time=0.010752683333333334
EXTRACT: note_on channel=0 note=68 velocity=0 time=0.06989244166666667
EXTRACT: note_on channel=0 note=64 velocity=0 time=0.005376341666666667
EXTRACT: note_on channel=0 note=61 velocity=0 time=0
EXTRACT: note_on channel=3 note=73 velocity=0 time=0.03225805
EXTRACT: note_on channel=0 note=49 velocity=88 time=0.09139780833333334
EXTRACT: note_on channel=3 note=66 velocity=116 time=0
EXTRACT: note_on channel=3 note=66 velocity=0 time=0.29032245
EXTRACT: note_on channel=0 note=49 velocity=0 time=0.021505366666666668
EXTRACT: note_on channel=2 note=61 velocity=0 time=0.005376341666666667
EXTRACT: note_on channel=2 note=64 velocity=0 time=0
EXTRACT: note_on channel=8 note=85 velocity=0 time=0
EXTRACT: note_on channel=2 note=68 velocity=0 time=0
EXTRACT: note_on channel=8 note=76 velocity=0 time=0
EXTRACT: note_on channel=8 note=80 velocity=0 time=0
EXTRACT: note_on channel=1 note=25 velocity=0 time=0
EXTRACT: note_on channel=0 note=52 velocity=100 time=0.005376341666666667
EXTRACT: note_on channel=0 note=59 velocity=98 time=0
EXTRACT: note_on channel=0 note=64 velocity=107 time=0
EXTRACT: note_on channel=0 note=68 velocity=100 time=0
EXTRACT: note_on channel=1 note=28 velocity=120 time=0
EXTRACT: note_on channel=2 note=59 velocity=98 time=0
EXTRACT: note_on channel=2 note=64 velocity=109 time=0
EXTRACT: note_on channel=2 note=68 velocity=102 time=0
EXTRACT: note_on channel=3 note=64 velocity=116 time=0
EXTRACT: note_on channel=6 note=59 velocity=83 time=0
EXTRACT: note_on channel=6 note=64 velocity=97 time=0
EXTRACT: note_on channel=6 note=68 velocity=85 time=0
EXTRACT: note_on channel=8 note=76 velocity=97 time=0
EXTRACT: note_on channel=8 note=80 velocity=101 time=0
EXTRACT: note_on channel=8 note=83 velocity=107 time=0
EXTRACT: control_change channel=0 control=64 value=0 time=0.016129025
EXTRACT: note_on channel=3 note=64 velocity=0 time=2.4784935083333335
EXTRACT: note_on channel=0 note=68 velocity=0 time=0.026881708333333334
EXTRACT: note_on channel=0 note=64 velocity=0 time=0
EXTRACT: note_on channel=0 note=52 velocity=0 time=0
EXTRACT: note_on channel=0 note=59 velocity=0 time=0.005376341666666667
EXTRACT: note_on channel=6 note=59 velocity=0 time=0.048387075
EXTRACT: note_on channel=2 note=59 velocity=0 time=0
EXTRACT: note_on channel=8 note=80 velocity=0 time=0
EXTRACT: note_on channel=2 note=64 velocity=0 time=0
EXTRACT: note_on channel=8 note=83 velocity=0 time=0
EXTRACT: note_on channel=8 note=76 velocity=0 time=0
EXTRACT: note_on channel=6 note=64 velocity=0 time=0
EXTRACT: note_on channel=2 note=68 velocity=0 time=0
EXTRACT: note_on channel=6 note=68 velocity=0 time=0
EXTRACT: note_on channel=3 note=73 velocity=114 time=0.6505373416666667
EXTRACT: note_on channel=1 note=28 velocity=0 time=0.3172041583333334
EXTRACT: note_on channel=3 note=73 velocity=0 time=0.021505366666666668
EXTRACT: note_on channel=3 note=73 velocity=119 time=0.30645147500000003
EXTRACT: note_on channel=3 note=73 velocity=0 time=0.2634407416666667
EXTRACT: note_on channel=3 note=71 velocity=112 time=0.059139758333333334
EXTRACT: note_on channel=3 note=71 velocity=0 time=0.241935375
EXTRACT: note_on channel=3 note=69 velocity=106 time=0.080645125
EXTRACT: note_on channel=3 note=69 velocity=0 time=0.209677325
EXTRACT: note_on channel=3 note=73 velocity=120 time=0.11290317500000001
EXTRACT: note_on channel=3 note=73 velocity=0 time=0.2580644
EXTRACT: note_on channel=0 note=61 velocity=97 time=0.0645161
EXTRACT: note_on channel=0 note=64 velocity=113 time=0
EXTRACT: note_on channel=0 note=69 velocity=112 time=0
EXTRACT: note_on channel=1 note=33 velocity=120 time=0
EXTRACT: note_on channel=2 note=61 velocity=92 time=0
EXTRACT: note_on channel=2 note=64 velocity=110 time=0
EXTRACT: note_on channel=2 note=69 velocity=106 time=0
EXTRACT: note_on channel=3 note=73 velocity=112 time=0
EXTRACT: note_on channel=7 note=45 velocity=105 time=0
EXTRACT: note_on channel=7 note=52 velocity=109 time=0
EXTRACT: note_on channel=8 note=76 velocity=96 time=0
EXTRACT: note_on channel=8 note=81 velocity=109 time=0
EXTRACT: note_on channel=8 note=85 velocity=98 time=0
EXTRACT: note_on channel=9 note=36 velocity=120 time=0
EXTRACT: note_on channel=10 note=73 velocity=100 time=0
EXTRACT: note_on channel=10 note=69 velocity=100 time=0
EXTRACT: note_on channel=10 note=76 velocity=100 time=0
EXTRACT: note_on channel=9 note=36 velocity=0 time=0.145161225
EXTRACT: control_change channel=0 control=64 value=127 time=0
EXTRACT: note_on channel=0 note=69 velocity=0 time=0.16666659166666667
EXTRACT: note_on channel=0 note=57 velocity=106 time=0.010752683333333334
EXTRACT: note_on channel=0 note=64 velocity=0 time=0.010752683333333334
EXTRACT: note_on channel=0 note=61 velocity=0 time=0.026881708333333334
EXTRACT: note_on channel=9 note=36 velocity=120 time=0.12365585833333334
EXTRACT: note_on channel=9 note=36 velocity=0 time=0.11827951666666667
EXTRACT: note_on channel=2 note=69 velocity=0 time=0.03763439166666667
EXTRACT: note_on channel=2 note=61 velocity=0 time=0
EXTRACT: note_on channel=2 note=64 velocity=0 time=0
EXTRACT: note_on channel=0 note=61 velocity=99 time=0.005376341666666667
EXTRACT: note_on channel=0 note=64 velocity=115 time=0
EXTRACT: note_on channel=0 note=69 velocity=112 time=0
EXTRACT: note_on channel=2 note=61 velocity=97 time=0
EXTRACT: note_on channel=2 note=64 velocity=112 time=0
EXTRACT: note_on channel=2 note=69 velocity=104 time=0
EXTRACT: note_on channel=9 note=38 velocity=120 time=0
EXTRACT: note_on channel=9 note=39 velocity=120 time=0
EXTRACT: note_on channel=0 note=57 velocity=0 time=0.048387075
EXTRACT: note_on channel=9 note=38 velocity=0 time=0.0645161
EXTRACT: note_on channel=9 note=39 velocity=0 time=0.016129025
EXTRACT: note_on channel=0 note=69 velocity=0 time=0.080645125
EXTRACT: note_on channel=0 note=64 velocity=0 time=0.016129025
EXTRACT: note_on channel=0 note=61 velocity=0 time=0.005376341666666667
EXTRACT: note_on channel=0 note=57 velocity=92 time=0.09139780833333334
EXTRACT: note_on channel=4 note=69 velocity=111 time=0
EXTRACT: note_on channel=9 note=36 velocity=120 time=0
EXTRACT: note_on channel=9 note=36 velocity=0 time=0.15053756666666668
EXTRACT: note_on channel=4 note=69 velocity=0 time=0.09677415
EXTRACT: note_on channel=0 note=57 velocity=0 time=0.05376341666666667
EXTRACT: note_on channel=2 note=69 velocity=0 time=0.016129025
EXTRACT: note_on channel=2 note=61 velocity=0 time=0
EXTRACT: note_on channel=2 note=64 velocity=0 time=0
EXTRACT: note_on channel=0 note=61 velocity=99 time=0.005376341666666667
EXTRACT: note_on channel=0 note=64 velocity=112 time=0
EXTRACT: note_on channel=0 note=69 velocity=112 time=0
EXTRACT: note_on channel=2 note=61 velocity=100 time=0
EXTRACT: note_on channel=2 note=64 velocity=115 time=0
EXTRACT: note_on channel=2 note=69 velocity=106 time=0
EXTRACT: note_on channel=4 note=69 velocity=110 time=0
EXTRACT: note_on channel=0 note=64 velocity=0 time=0.2311826916666667
EXTRACT: note_on channel=0 note=69 velocity=0 time=0.005376341666666667
EXTRACT: note_on channel=0 note=61 velocity=0 time=0.021505366666666668
EXTRACT: note_on channel=0 note=57 velocity=100 time=0.0645161
EXTRACT: note_on channel=9 note=36 velocity=120 time=0
EXTRACT: note_on channel=0 note=57 velocity=0 time=0.11827951666666667
EXTRACT: note_on channel=9 note=36 velocity=0 time=0.010752683333333334
EXTRACT: note_on channel=2 note=61 velocity=0 time=0.18817195833333333
EXTRACT: note_on channel=2 note=69 velocity=0 time=0
EXTRACT: note_on channel=2 note=64 velocity=0 time=0
EXTRACT: note_on channel=0 note=61 velocity=100 time=0.005376341666666667
EXTRACT: note_on channel=0 note=64 velocity=115 time=0
EXTRACT: note_on channel=0 note=69 velocity=113 time=0
EXTRACT: note_on channel=2 note=61 velocity=100 time=0
EXTRACT: note_on channel=2 note=64 velocity=113 time=0
EXTRACT: note_on channel=2 note=69 velocity=106 time=0
EXTRACT: note_on channel=9 note=38 velocity=120 time=0
EXTRACT: note_on channel=9 note=39 velocity=120 time=0
EXTRACT: note_on channel=0 note=64 velocity=0 time=0.10215049166666668
EXTRACT: note_on channel=0 note=61 velocity=0 time=0.005376341666666667
EXTRACT: note_on channel=9 note=38 velocity=0 time=0.010752683333333334
EXTRACT: note_on channel=9 note=39 velocity=0 time=0.010752683333333334
EXTRACT: note_on channel=0 note=69 velocity=0 time=0.005376341666666667
EXTRACT: note_on channel=4 note=69 velocity=0 time=0.043010733333333336
EXTRACT: note_on channel=0 note=57 velocity=99 time=0.145161225
EXTRACT: note_on channel=4 note=66 velocity=106 time=0
EXTRACT: note_on channel=3 note=73 velocity=0 time=0.1827956166666667
EXTRACT: note_on channel=4 note=66 velocity=0 time=0.07526878333333334
EXTRACT: note_on channel=0 note=57 velocity=0 time=0.021505366666666668
EXTRACT: control_change channel=0 control=64 value=0 time=0
EXTRACT: note_on channel=8 note=81 velocity=0 time=0.03763439166666667
EXTRACT: note_on channel=8 note=85 velocity=0 time=0
EXTRACT: note_on channel=1 note=33 velocity=0 time=0
EXTRACT: note_on channel=7 note=52 velocity=0 time=0
EXTRACT: note_on channel=2 note=64 velocity=0 time=0
EXTRACT: note_on channel=8 note=76 velocity=0 time=0
EXTRACT: note_on channel=2 note=61 velocity=0 time=0
EXTRACT: note_on channel=7 note=45 velocity=0 time=0
EXTRACT: note_on channel=2 note=69 velocity=0 time=0
EXTRACT: note_on channel=10 note=76 velocity=0 time=0.005376341666666667
EXTRACT: note_on channel=10 note=69 velocity=0 time=0
EXTRACT: note_on channel=10 note=73 velocity=0 time=0
EXTRACT: note_on channel=0 note=66 velocity=109 time=0
EXTRACT: note_on channel=0 note=69 velocity=116 time=0
EXTRACT: note_on channel=0 note=73 velocity=101 time=0
EXTRACT: note_on channel=1 note=30 velocity=120 time=0
EXTRACT: note_on channel=2 note=61 velocity=96 time=0
EXTRACT: note_on channel=2 note=66 velocity=106 time=0
EXTRACT: note_on channel=2 note=69 velocity=104 time=0
EXTRACT: note_on channel=4 note=66 velocity=108 time=0
EXTRACT: note_on channel=7 note=42 velocity=101 time=0
EXTRACT: note_on channel=7 note=49 velocity=101 time=0
EXTRACT: note_on channel=8 note=78 velocity=103 time=0
EXTRACT: note_on channel=8 note=81 velocity=109 time=0
EXTRACT: note_on channel=8 note=85 velocity=100 time=0
EXTRACT: note_on channel=9 note=36 velocity=120 time=0
EXTRACT: note_on channel=10 note=73 velocity=100 time=0
EXTRACT: note_on channel=10 note=69 velocity=100 time=0
EXTRACT: note_on channel=10 note=78 velocity=100 time=0
EXTRACT: note_on channel=9 note=36 velocity=0 time=0.145161225
EXTRACT: control_change channel=0 control=64 value=127 time=0.021505366666666668
EXTRACT: note_on channel=0 note=69 velocity=0 time=0.1290322
EXTRACT: note_on channel=0 note=73 velocity=0 time=0.016129025
EXTRACT: note_on channel=0 note=54 velocity=84 time=0.010752683333333334
EXTRACT: note_on channel=0 note=66 velocity=0 time=0.043010733333333336
EXTRACT: note_on channel=9 note=36 velocity=120 time=0.11827951666666667
EXTRACT: note_on channel=9 note=36 velocity=0 time=0.09677415
EXTRACT: note_on channel=0 note=54 velocity=0 time=0.048387075
EXTRACT: note_on channel=2 note=61 velocity=0 time=0.010752683333333334
EXTRACT: note_on channel=2 note=66 velocity=0 time=0
EXTRACT: note_on channel=2 note=69 velocity=0 time=0
EXTRACT: note_on channel=0 note=66 velocity=101 time=0.005376341666666667
EXTRACT: note_on channel=0 note=69 velocity=115 time=0
EXTRACT: note_on channel=0 note=73 velocity=96 time=0
EXTRACT: note_on channel=2 note=61 velocity=97 time=0
EXTRACT: note_on channel=2 note=66 velocity=100 time=0
EXTRACT: note_on channel=2 note=69 velocity=107 time=0
EXTRACT: note_on channel=3 note=73 velocity=114 time=0
EXTRACT: note_on channel=9 note=38 velocity=120 time=0
EXTRACT: note_on channel=9 note=39 velocity=120 time=0
EXTRACT: note_on channel=9 note=38 velocity=0 time=0.10752683333333334
EXTRACT: note_on channel=9 note=39 velocity=0 time=0.005376341666666667
EXTRACT: note_on channel=4 note=66 velocity=0 time=0.145161225
EXTRACT: note_on channel=0 note=69 velocity=0 time=0.026881708333333334
EXTRACT: note_on channel=0 note=66 velocity=0 time=0.026881708333333334
EXTRACT: note_on channel=0 note=54 velocity=97 time=0.010752683333333334
EXTRACT: note_on channel=9 note=36 velocity=120 time=0
EXTRACT: note_on channel=3 note=73 velocity=0 time=0.021505366666666668
EXTRACT: note_on channel=0 note=73 velocity=0 time=0.03763439166666667
EXTRACT: note_on channel=9 note=36 velocity=0 time=0.06989244166666667
EXTRACT: note_on channel=2 note=61 velocity=0 time=0.18817195833333333
EXTRACT: note_on channel=2 note=69 velocity=0 time=0
EXTRACT: note_on channel=2 note=66 velocity=0 time=0
EXTRACT: note_on channel=0 note=66 velocity=105 time=0.005376341666666667
EXTRACT: note_on channel=0 note=69 velocity=115 time=0
EXTRACT: note_on channel=0 note=73 velocity=94 time=0
EXTRACT: note_on channel=2 note=61 velocity=100 time=0
EXTRACT: note_on channel=2 note=66 velocity=101 time=0
EXTRACT: note_on channel=2 note=69 velocity=106 time=0
EXTRACT: note_on channel=3 note=73 velocity=116 time=0
EXTRACT: note_on channel=0 note=54 velocity=0 time=0.026881708333333334
EXTRACT: note_on channel=3 note=73 velocity=0 time=0.24731171666666668
EXTRACT: note_on channel=0 note=69 velocity=0 time=0.010752683333333334
EXTRACT: note_on channel=0 note=66 velocity=0 time=0.010752683333333334
EXTRACT: note_on channel=0 note=73 velocity=0 time=0.016129025
EXTRACT: note_on channel=0 note=54 velocity=95 time=0.010752683333333334
EXTRACT: note_on channel=3 note=71 velocity=106 time=0
EXTRACT: note_on channel=9 note=36 velocity=120 time=0
EXTRACT: note_on channel=9 note=36 velocity=0 time=0.11827951666666667
EXTRACT: note_on channel=3 note=71 velocity=0 time=0.1344085416666667
EXTRACT: note_on channel=0 note=54 velocity=0 time=0.021505366666666668
EXTRACT: note_on channel=2 note=69 velocity=0 time=0.043010733333333336
EXTRACT: note_on channel=2 note=66 velocity=0 time=0
EXTRACT: note_on channel=2 note=61 velocity=0 time=0
EXTRACT: note_on channel=0 note=66 velocity=106 time=0.005376341666666667
EXTRACT: note_on channel=0 note=69 velocity=115 time=0
EXTRACT: note_on channel=0 note=73 velocity=94 time=0
EXTRACT: note_on channel=2 note=61 velocity=101 time=0
EXTRACT: note_on channel=2 note=66 velocity=106 time=0
EXTRACT: note_on channel=2 note=69 velocity=107 time=0
EXTRACT: note_on channel=3 note=69 velocity=108 time=0
EXTRACT: note_on channel=9 note=38 velocity=120 time=0
EXTRACT: note_on channel=9 note=39 velocity=120 time=0
EXTRACT: note_on channel=9 note=38 velocity=0 time=0.10215049166666668
EXTRACT: note_on channel=9 note=39 velocity=0 time=0.010752683333333334
EXTRACT: note_on channel=0 note=69 velocity=0 time=0.048387075
EXTRACT: note_on channel=0 note=73 velocity=0 time=0.016129025
EXTRACT: note_on channel=0 note=66 velocity=0 time=0.021505366666666668
EXTRACT: note_on channel=3 note=69 velocity=0 time=0.021505366666666668
EXTRACT: note_on channel=1 note=30 velocity=0 time=0.09677415
EXTRACT: note_on channel=0 note=54 velocity=91 time=0.005376341666666667
EXTRACT: note_on channel=1 note=26 velocity=120 time=0
EXTRACT: note_on channel=3 note=71 velocity=116 time=0
EXTRACT: note_on channel=4 note=68 velocity=108 time=0
EXTRACT: note_on channel=15 note=68 velocity=1 time=0
EXTRACT: note_on channel=3 note=71 velocity=0 time=0.1935483
EXTRACT: note_on channel=15 note=68 velocity=0 time=0.05376341666666667
EXTRACT: note_on channel=4 note=68 velocity=0 time=0
EXTRACT: note_on channel=2 note=69 velocity=0 time=0.06989244166666667
EXTRACT: note_on channel=8 note=78 velocity=0 time=0
EXTRACT: note_on channel=8 note=85 velocity=0 time=0
EXTRACT: note_on channel=7 note=49 velocity=0 time=0
EXTRACT: note_on channel=7 note=42 velocity=0 time=0
EXTRACT: note_on channel=8 note=81 velocity=0 time=0
EXTRACT: note_on channel=2 note=66 velocity=0 time=0
EXTRACT: note_on channel=1 note=26 velocity=0 time=0
EXTRACT: note_on channel=2 note=61 velocity=0 time=0
EXTRACT: note_on channel=10 note=78 velocity=0 time=0.005376341666666667
EXTRACT: note_on channel=10 note=73 velocity=0 time=0
EXTRACT: note_on channel=10 note=69 velocity=0 time=0
EXTRACT: note_on channel=0 note=61 velocity=97 time=0
EXTRACT: note_on channel=0 note=64 velocity=112 time=0
EXTRACT: note_on channel=0 note=68 velocity=105 time=0
EXTRACT: note_on channel=1 note=25 velocity=120 time=0
EXTRACT: note_on channel=2 note=61 velocity=97 time=0
EXTRACT: note_on channel=2 note=64 velocity=112 time=0
EXTRACT: note_on channel=2 note=68 velocity=104 time=0
EXTRACT: note_on channel=3 note=71 velocity=113 time=0
EXTRACT: note_on channel=4 note=68 velocity=114 time=0
EXTRACT: note_on channel=7 note=37 velocity=103 time=0
EXTRACT: note_on channel=7 note=44 velocity=106 time=0
EXTRACT: note_on channel=8 note=76 velocity=102 time=0
EXTRACT: note_on channel=8 note=80 velocity=103 time=0
EXTRACT: note_on channel=8 note=85 velocity=97 time=0
EXTRACT: note_on channel=9 note=36 velocity=120 time=0
EXTRACT: note_on channel=10 note=73 velocity=100 time=0
EXTRACT: note_on channel=10 note=76 velocity=100 time=0
EXTRACT: note_on channel=10 note=68 velocity=100 time=0
EXTRACT: note_on channel=15 note=68 velocity=1 time=0
EXTRACT: control_change channel=0 control=64 value=0 time=0.026881708333333334
EXTRACT: note_on channel=0 note=54 velocity=0 time=0.005376341666666667
EXTRACT: note_on channel=9 note=36 velocity=0 time=0.10215049166666668
EXTRACT: control_change channel=0 control=64 value=127 time=0.145161225
EXTRACT: note_on channel=0 note=68 velocity=0 time=0.03763439166666667
EXTRACT: note_on channel=0 note=49 velocity=83 time=0.005376341666666667
EXTRACT: note_on channel=0 note=61 velocity=0 time=0.005376341666666667
EXTRACT: note_on channel=0 note=64 velocity=0 time=0
EXTRACT: note_on channel=9 note=36 velocity=120 time=0.15591390833333335
EXTRACT: note_on channel=9 note=36 velocity=0 time=0.09139780833333334
EXTRACT: note_on channel=2 note=68 velocity=0 time=0.0645161
EXTRACT: note_on channel=2 note=61 velocity=0 time=0
EXTRACT: note_on channel=2 note=64 velocity=0 time=0
EXTRACT: note_on channel=0 note=61 velocity=97 time=0.005376341666666667
EXTRACT: note_on channel=0 note=64 velocity=113 time=0
EXTRACT: note_on channel=0 note=68 velocity=101 time=0
EXTRACT: note_on channel=2 note=61 velocity=97 time=0
EXTRACT: note_on channel=2 note=64 velocity=112 time=0
EXTRACT: note_on channel=2 note=68 velocity=103 time=0
EXTRACT: note_on channel=9 note=38 velocity=120 time=0
EXTRACT: note_on channel=9 note=39 velocity=120 time=0
EXTRACT: note_on channel=0 note=49 velocity=0 time=0.005376341666666667
EXTRACT: note_on channel=9 note=38 velocity=0 time=0.11827951666666667
EXTRACT: note_on channel=9 note=39 velocity=0 time=0.005376341666666667
EXTRACT: note_on channel=3 note=71 velocity=0 time=0.021505366666666668
EXTRACT: note_on channel=4 note=68 velocity=0 time=0.010752683333333334
EXTRACT: note_on channel=15 note=68 velocity=0 time=0
EXTRACT: note_on channel=3 note=69 velocity=109 time=0
EXTRACT: note_on channel=4 note=66 velocity=99 time=0
EXTRACT: note_on channel=15 note=66 velocity=1 time=0
EXTRACT: note_on channel=3 note=69 velocity=0 time=0.11827951666666667
EXTRACT: note_on channel=15 note=66 velocity=0 time=0.043010733333333336
EXTRACT: note_on channel=4 note=66 velocity=0 time=0
EXTRACT: note_on channel=0 note=49 velocity=94 time=0
EXTRACT: note_on channel=3 note=68 velocity=120 time=0
EXTRACT: note_on channel=4 note=64 velocity=104 time=0
EXTRACT: note_on channel=9 note=36 velocity=120 time=0
EXTRACT: note_on channel=15 note=64 velocity=1 time=0
EXTRACT: note_on channel=0 note=68 velocity=0 time=0.005376341666666667
EXTRACT: note_on channel=0 note=64 velocity=0 time=0
EXTRACT: note_on channel=0 note=61 velocity=0 time=0.03763439166666667
EXTRACT: note_on channel=15 note=64 velocity=0 time=0.09677415
EXTRACT: note_on channel=4 note=64 velocity=0 time=0
EXTRACT: note_on channel=9 note=36 velocity=0 time=0
EXTRACT: note_on channel=3 note=68 velocity=0 time=0.010752683333333334
EXTRACT: note_on channel=3 note=66 velocity=111 time=0.010752683333333334
EXTRACT: note_on channel=4 note=61 velocity=107 time=0
EXTRACT: note_on channel=15 note=61 velocity=1 time=0
EXTRACT: note_on channel=0 note=49 velocity=0 time=0.1290322
EXTRACT: note_on channel=15 note=61 velocity=0 time=0.016129025
EXTRACT: note_on channel=4 note=61 velocity=0 time=0
EXTRACT: note_on channel=3 note=66 velocity=0 time=0
EXTRACT: note_on channel=2 note=68 velocity=0 time=0.010752683333333334
EXTRACT: note_on channel=2 note=61 velocity=0 time=0
EXTRACT: note_on channel=2 note=64 velocity=0 time=0
EXTRACT: note_on channel=0 note=61 velocity=96 time=0.005376341666666667
EXTRACT: note_on channel=0 note=64 velocity=113 time=0
EXTRACT: note_on channel=0 note=68 velocity=106 time=0
EXTRACT: note_on channel=2 note=61 velocity=97 time=0
EXTRACT: note_on channel=2 note=64 velocity=112 time=0
EXTRACT: note_on channel=2 note=68 velocity=104 time=0
EXTRACT: note_on channel=3 note=64 velocity=116 time=0
EXTRACT: note_on channel=4 note=59 velocity=109 time=0
EXTRACT: note_on channel=15 note=59 velocity=1 time=0
EXTRACT: note_on channel=0 note=64 velocity=0 time=0.274193425
EXTRACT: note_on channel=0 note=68 velocity=0 time=0.010752683333333334
EXTRACT: note_on channel=0 note=61 velocity=0 time=0.03225805
EXTRACT: note_on channel=0 note=49 velocity=85 time=0.005376341666666667
EXTRACT: note_on channel=9 note=36 velocity=120 time=0
EXTRACT: note_on channel=9 note=36 velocity=0 time=0.11827951666666667
EXTRACT: note_on channel=0 note=49 velocity=0 time=0.18817195833333333
EXTRACT: note_on channel=2 note=61 velocity=0 time=0.010752683333333334
EXTRACT: note_on channel=2 note=68 velocity=0 time=0
EXTRACT: note_on channel=2 note=64 velocity=0 time=0
EXTRACT: note_on channel=0 note=61 velocity=96 time=0.005376341666666667
EXTRACT: note_on channel=0 note=64 velocity=112 time=0
EXTRACT: note_on channel=0 note=68 velocity=107 time=0
EXTRACT: note_on channel=2 note=61 velocity=100 time=0
EXTRACT: note_on channel=2 note=64 velocity=113 time=0
EXTRACT: note_on channel=2 note=68 velocity=101 time=0
EXTRACT: note_on channel=9 note=38 velocity=120 time=0
EXTRACT: note_on channel=9 note=39 velocity=120 time=0
EXTRACT: note_on channel=9 note=38 velocity=0 time=0.11290317500000001
EXTRACT: note_on channel=9 note=39 velocity=0 time=0.010752683333333334
EXTRACT: note_on channel=0 note=64 velocity=0 time=0.11827951666666667
EXTRACT: note_on channel=0 note=68 velocity=0 time=0.010752683333333334
EXTRACT: note_on channel=0 note=61 velocity=0 time=0
EXTRACT: note_on channel=15 note=59 velocity=0 time=0.021505366666666668
EXTRACT: note_on channel=4 note=59 velocity=0 time=0
EXTRACT: note_on channel=3 note=64 velocity=0 time=0
EXTRACT: note_on channel=0 note=49 velocity=88 time=0.048387075
EXTRACT: note_on channel=3 note=66 velocity=120 time=0
EXTRACT: note_on channel=4 note=61 velocity=112 time=0
EXTRACT: note_on channel=15 note=61 velocity=1 time=0
EXTRACT: note_on channel=3 note=66 velocity=0 time=0.1344085416666667
EXTRACT: note_on channel=3 note=69 velocity=112 time=0.026881708333333334
EXTRACT: note_on channel=4 note=64 velocity=107 time=0
EXTRACT: note_on channel=15 note=64 velocity=1 time=0
EXTRACT: note_on channel=15 note=61 velocity=0 time=0.016129025
EXTRACT: note_on channel=4 note=61 velocity=0 time=0
EXTRACT: control_change channel=0 control=64 value=0 time=0.1290322
EXTRACT: note_on channel=2 note=64 velocity=0 time=0.010752683333333334
EXTRACT: note_on channel=2 note=68 velocity=0 time=0
EXTRACT: note_on channel=7 note=44 velocity=0 time=0
EXTRACT: note_on channel=2 note=61 velocity=0 time=0
EXTRACT: note_on channel=7 note=37 velocity=0 time=0
EXTRACT: note_on channel=1 note=25 velocity=0 time=0
EXTRACT: note_on channel=8 note=85 velocity=0 time=0
EXTRACT: note_on channel=8 note=76 velocity=0 time=0
EXTRACT: note_on channel=8 note=80 velocity=0 time=0
EXTRACT: note_on channel=10 note=73 velocity=0 time=0.005376341666666667
EXTRACT: note_on channel=10 note=76 velocity=0 time=0
EXTRACT: note_on channel=0 note=49 velocity=0 time=0
EXTRACT: note_on channel=10 note=68 velocity=0 time=0
EXTRACT: note_on channel=0 note=59 velocity=105 time=0
EXTRACT: note_on channel=0 note=64 velocity=113 time=0
EXTRACT: note_on channel=0 note=68 velocity=106 time=0
EXTRACT: note_on channel=1 note=28 velocity=120 time=0
EXTRACT: note_on channel=2 note=59 velocity=103 time=0
EXTRACT: note_on channel=2 note=64 velocity=109 time=0
EXTRACT: note_on channel=2 note=68 velocity=98 time=0
EXTRACT: note_on channel=7 note=40 velocity=104 time=0
EXTRACT: note_on channel=7 note=47 velocity=112 time=0
EXTRACT: note_on channel=8 note=76 velocity=93 time=0
EXTRACT: note_on channel=8 note=80 velocity=86 time=0
EXTRACT: note_on channel=8 note=83 velocity=109 time=0
EXTRACT: note_on channel=9 note=36 velocity=120 time=0
EXTRACT: note_on channel=10 note=68 velocity=100 time=0
EXTRACT: note_on channel=10 note=71 velocity=100 time=0
EXTRACT: note_on channel=10 note=76 velocity=100 time=0
EXTRACT: note_on channel=3 note=69 velocity=0 time=0.05376341666666667
EXTRACT: note_on channel=15 note=64 velocity=0 time=0.021505366666666668
EXTRACT: note_on channel=4 note=64 velocity=0 time=0
EXTRACT: note_on channel=9 note=36 velocity=0 time=0.048387075
EXTRACT: control_change channel=0 control=64 value=127 time=0.03225805
EXTRACT: note_on channel=0 note=52 velocity=80 time=0.16666659166666667
EXTRACT: note_on channel=0 note=64 velocity=0 time=0.059139758333333334
EXTRACT: note_on channel=0 note=68 velocity=0 time=0
EXTRACT: note_on channel=0 note=59 velocity=0 time=0.010752683333333334
EXTRACT: note_on channel=9 note=36 velocity=120 time=0.09139780833333334
EXTRACT: note_on channel=9 note=36 velocity=0 time=0.09139780833333334
EXTRACT: note_on channel=0 note=52 velocity=0 time=0.021505366666666668
EXTRACT: note_on channel=2 note=59 velocity=0 time=0.043010733333333336
EXTRACT: note_on channel=2 note=64 velocity=0 time=0
EXTRACT: note_on channel=2 note=68 velocity=0 time=0
EXTRACT: note_on channel=0 note=59 velocity=94 time=0.005376341666666667
EXTRACT: note_on channel=0 note=64 velocity=107 time=0
EXTRACT: note_on channel=0 note=68 velocity=95 time=0
EXTRACT: note_on channel=2 note=59 velocity=100 time=0
EXTRACT: note_on channel=2 note=64 velocity=107 time=0
EXTRACT: note_on channel=2 note=68 velocity=99 time=0
EXTRACT: note_on channel=9 note=38 velocity=120 time=0
EXTRACT: note_on channel=9 note=39 velocity=120 time=0
EXTRACT: note_on channel=9 note=38 velocity=0 time=0.09677415
EXTRACT: note_on channel=9 note=39 velocity=0 time=0.005376341666666667
EXTRACT: note_on channel=0 note=64 velocity=0 time=0.21505366666666667
EXTRACT: note_on channel=0 note=52 velocity=82 time=0.005376341666666667
EXTRACT: note_on channel=3 note=73 velocity=114 time=0
EXTRACT: note_on channel=9 note=36 velocity=120 time=0
EXTRACT: note_on channel=0 note=68 velocity=0 time=0.016129025
EXTRACT: note_on channel=0 note=59 velocity=0 time=0.005376341666666667
EXTRACT: note_on channel=9 note=36 velocity=0 time=0.10215049166666668
EXTRACT: note_on channel=3 note=73 velocity=0 time=0.11827951666666667
EXTRACT: note_on channel=0 note=52 velocity=0 time=0.005376341666666667
EXTRACT: note_on channel=2 note=68 velocity=0 time=0.06989244166666667
EXTRACT: note_on channel=2 note=59 velocity=0 time=0
EXTRACT: note_on channel=2 note=64 velocity=0 time=0
EXTRACT: note_on channel=0 note=59 velocity=102 time=0.005376341666666667
EXTRACT: note_on channel=0 note=64 velocity=109 time=0
EXTRACT: note_on channel=0 note=68 velocity=100 time=0
EXTRACT: note_on channel=2 note=59 velocity=96 time=0
EXTRACT: note_on channel=2 note=64 velocity=107 time=0
EXTRACT: note_on channel=2 note=68 velocity=96 time=0
EXTRACT: note_on channel=3 note=73 velocity=109 time=0
EXTRACT: note_on channel=3 note=73 velocity=0 time=0.241935375
EXTRACT: note_on channel=0 note=64 velocity=0 time=0.06989244166666667
EXTRACT: note_on channel=0 note=68 velocity=0 time=0.010752683333333334
EXTRACT: note_on channel=0 note=52 velocity=93 time=0
EXTRACT: note_on channel=3 note=71 velocity=109 time=0
EXTRACT: note_on channel=9 note=36 velocity=120 time=0
EXTRACT: note_on channel=0 note=59 velocity=0 time=0.016129025
EXTRACT: note_on channel=9 note=36 velocity=0 time=0.10752683333333334
EXTRACT: note_on channel=0 note=52 velocity=0 time=0.09139780833333334
EXTRACT: note_on channel=3 note=71 velocity=0 time=0.043010733333333336
EXTRACT: note_on channel=2 note=68 velocity=0 time=0.059139758333333334
EXTRACT: note_on channel=2 note=59 velocity=0 time=0
EXTRACT: note_on channel=2 note=64 velocity=0 time=0
EXTRACT: note_on channel=0 note=59 velocity=104 time=0.005376341666666667
EXTRACT: note_on channel=0 note=64 velocity=109 time=0
EXTRACT: note_on channel=0 note=68 velocity=100 time=0
EXTRACT: note_on channel=2 note=59 velocity=102 time=0
EXTRACT: note_on channel=2 note=64 velocity=111 time=0
EXTRACT: note_on channel=2 note=68 velocity=104 time=0
EXTRACT: note_on channel=3 note=69 velocity=110 time=0
EXTRACT: note_on channel=9 note=38 velocity=120 time=0
EXTRACT: note_on channel=9 note=39 velocity=120 time=0
EXTRACT: note_on channel=9 note=39 velocity=0 time=0.10215049166666668
EXTRACT: note_on channel=9 note=38 velocity=0 time=0
EXTRACT: note_on channel=0 note=59 velocity=0 time=0.1290322
EXTRACT: note_on channel=0 note=64 velocity=0 time=0.005376341666666667
EXTRACT: note_on channel=3 note=69 velocity=0 time=0.005376341666666667
EXTRACT: note_on channel=0 note=68 velocity=0 time=0
EXTRACT: note_on channel=1 note=28 velocity=0 time=0.07526878333333334
EXTRACT: note_on channel=0 note=52 velocity=92 time=0.005376341666666667
EXTRACT: note_on channel=1 note=30 velocity=120 time=0
EXTRACT: note_on channel=3 note=73 velocity=116 time=0
EXTRACT: note_on channel=3 note=73 velocity=0 time=0.21505366666666667
EXTRACT: note_on channel=0 note=52 velocity=0 time=0.048387075
EXTRACT: control_change channel=0 control=64 value=0 time=0.016129025
EXTRACT: note_on channel=8 note=80 velocity=0 time=0.03763439166666667
EXTRACT: note_on channel=2 note=59 velocity=0 time=0
EXTRACT: note_on channel=8 note=83 velocity=0 time=0
EXTRACT: note_on channel=7 note=47 velocity=0 time=0
EXTRACT: note_on channel=7 note=40 velocity=0 time=0
EXTRACT: note_on channel=2 note=64 velocity=0 time=0
EXTRACT: note_on channel=1 note=30 velocity=0 time=0
EXTRACT: note_on channel=8 note=76 velocity=0 time=0
EXTRACT: note_on channel=2 note=68 velocity=0 time=0
EXTRACT: note_on channel=10 note=71 velocity=0 time=0.005376341666666667
EXTRACT: note_on channel=10 note=76 velocity=0 time=0
EXTRACT: note_on channel=10 note=68 velocity=0 time=0
EXTRACT: note_on channel=0 note=61 velocity=95 time=0
EXTRACT: note_on channel=0 note=64 velocity=112 time=0
EXTRACT: note_on channel=0 note=69 velocity=107 time=0
EXTRACT: note_on channel=1 note=33 velocity=120 time=0
EXTRACT: note_on channel=2 note=61 velocity=100 time=0
EXTRACT: note_on channel=2 note=64 velocity=107 time=0
EXTRACT: note_on channel=2 note=69 velocity=108 time=0
EXTRACT: note_on channel=3 note=73 velocity=116 time=0
EXTRACT: note_on channel=7 note=45 velocity=106 time=0
EXTRACT: note_on channel=7 note=52 velocity=109 time=0
EXTRACT: note_on channel=8 note=76 velocity=91 time=0
EXTRACT: note_on channel=8 note=81 velocity=108 time=0
EXTRACT: note_on channel=8 note=85 velocity=98 time=0
EXTRACT: note_on channel=9 note=36 velocity=120 time=0
EXTRACT: note_on channel=10 note=73 velocity=100 time=0
EXTRACT: note_on channel=10 note=76 velocity=100 time=0
EXTRACT: note_on channel=10 note=69 velocity=100 time=0
EXTRACT: note_on channel=9 note=36 velocity=0 time=0.145161225
EXTRACT: control_change channel=0 control=64 value=127 time=0.080645125
EXTRACT: note_on channel=0 note=57 velocity=91 time=0.09677415
EXTRACT: note_on channel=0 note=69 velocity=0 time=0.010752683333333334
EXTRACT: note_on channel=0 note=64 velocity=0 time=0.016129025
EXTRACT: note_on channel=0 note=61 velocity=0 time=0.016129025
EXTRACT: note_on channel=9 note=36 velocity=120 time=0.11827951666666667
EXTRACT: note_on channel=9 note=36 velocity=0 time=0.11827951666666667
EXTRACT: note_on channel=0 note=57 velocity=0 time=0.03225805
EXTRACT: note_on channel=2 note=61 velocity=0 time=0.005376341666666667
EXTRACT: note_on channel=2 note=69 velocity=0 time=0
EXTRACT: note_on channel=2 note=64 velocity=0 time=0
EXTRACT: note_on channel=0 note=61 velocity=94 time=0.005376341666666667
EXTRACT: note_on channel=0 note=64 velocity=111 time=0
EXTRACT: note_on channel=0 note=69 velocity=108 time=0
EXTRACT: note_on channel=2 note=61 velocity=97 time=0
EXTRACT: note_on channel=2 note=64 velocity=110 time=0
EXTRACT: note_on channel=2 note=69 velocity=103 time=0
EXTRACT: note_on channel=9 note=38 velocity=120 time=0
EXTRACT: note_on channel=9 note=39 velocity=120 time=0
EXTRACT: note_on channel=9 note=38 velocity=0 time=0.11290317500000001
EXTRACT: note_on channel=9 note=39 velocity=0 time=0.016129025
EXTRACT: note_on channel=0 note=69 velocity=0 time=0.16666659166666667
EXTRACT: note_on channel=0 note=64 velocity=0 time=0.010752683333333334
EXTRACT: note_on channel=0 note=57 velocity=99 time=0.016129025
EXTRACT: note_on channel=4 note=69 velocity=112 time=0
EXTRACT: note_on channel=9 note=36 velocity=120 time=0
EXTRACT: note_on channel=0 note=61 velocity=0 time=0.03225805
EXTRACT: note_on channel=9 note=36 velocity=0 time=0.11827951666666667
EXTRACT: note_on channel=4 note=69 velocity=0 time=0.11827951666666667
EXTRACT: note_on channel=2 note=69 velocity=0 time=0.048387075
EXTRACT: note_on channel=2 note=61 velocity=0 time=0
EXTRACT: note_on channel=2 note=64 velocity=0 time=0
EXTRACT: note_on channel=0 note=61 velocity=97 time=0.005376341666666667
EXTRACT: note_on channel=0 note=64 velocity=113 time=0
EXTRACT: note_on channel=0 note=69 velocity=116 time=0
EXTRACT: note_on channel=2 note=61 velocity=100 time=0
EXTRACT: note_on channel=2 note=64 velocity=115 time=0
EXTRACT: note_on channel=2 note=69 velocity=108 time=0
EXTRACT: note_on channel=4 note=69 velocity=111 time=0
EXTRACT: note_on channel=0 note=57 velocity=0 time=0.016129025
EXTRACT: note_on channel=0 note=64 velocity=0 time=0.29032245
EXTRACT: note_on channel=0 note=69 velocity=0 time=0.005376341666666667
EXTRACT: note_on channel=0 note=57 velocity=97 time=0.010752683333333334
EXTRACT: note_on channel=9 note=36 velocity=120 time=0
EXTRACT: note_on channel=0 note=61 velocity=0 time=0.010752683333333334
EXTRACT: note_on channel=9 note=36 velocity=0 time=0.11827951666666667
EXTRACT: note_on channel=0 note=57 velocity=0 time=0.16129025
EXTRACT: note_on channel=2 note=64 velocity=0 time=0.026881708333333334
EXTRACT: note_on channel=2 note=69 velocity=0 time=0
EXTRACT: note_on channel=2 note=61 velocity=0 time=0
EXTRACT: note_on channel=0 note=61 velocity=97 time=0.005376341666666667
EXTRACT: note_on channel=0 note=64 velocity=113 time=0
EXTRACT: note_on channel=0 note=69 velocity=113 time=0
EXTRACT: note_on channel=2 note=61 velocity=100 time=0
EXTRACT: note_on channel=2 note=64 velocity=113 time=0
EXTRACT: note_on channel=2 note=69 velocity=108 time=0
EXTRACT: note_on channel=9 note=38 velocity=120 time=0
EXTRACT: note_on channel=9 note=39 velocity=120 time=0
EXTRACT: note_on channel=9 note=38 velocity=0 time=0.11827951666666667
EXTRACT: note_on channel=9 note=39 velocity=0 time=0.010752683333333334
EXTRACT: note_on channel=0 note=64 velocity=0 time=0
EXTRACT: note_on channel=0 note=69 velocity=0 time=0.026881708333333334
EXTRACT: note_on channel=0 note=61 velocity=0 time=0.005376341666666667
EXTRACT: note_on channel=4 note=69 velocity=0 time=0.026881708333333334
EXTRACT: note_on channel=0 note=57 velocity=93 time=0.1344085416666667
EXTRACT: note_on channel=4 note=66 velocity=111 time=0
EXTRACT: note_on channel=3 note=73 velocity=0 time=0.2311826916666667
EXTRACT: control_change channel=0 control=64 value=0 time=0.059139758333333334
EXTRACT: note_on channel=4 note=66 velocity=0 time=0.005376341666666667
EXTRACT: note_on channel=0 note=57 velocity=0 time=0.010752683333333334
EXTRACT: note_on channel=8 note=81 velocity=0 time=0.010752683333333334
EXTRACT: note_on channel=2 note=64 velocity=0 time=0
EXTRACT: note_on channel=7 note=52 velocity=0 time=0
EXTRACT: note_on channel=1 note=33 velocity=0 time=0
EXTRACT: note_on channel=2 note=69 velocity=0 time=0
EXTRACT: note_on channel=8 note=76 velocity=0 time=0
EXTRACT: note_on channel=2 note=61 velocity=0 time=0
EXTRACT: note_on channel=7 note=45 velocity=0 time=0
EXTRACT: note_on channel=8 note=85 velocity=0 time=0
EXTRACT: note_on channel=10 note=73 velocity=0 time=0.005376341666666667
EXTRACT: note_on channel=10 note=76 velocity=0 time=0
EXTRACT: note_on channel=10 note=69 velocity=0 time=0
EXTRACT: note_on channel=0 note=66 velocity=101 time=0
EXTRACT: note_on channel=0 note=69 velocity=106 time=0
EXTRACT: note_on channel=0 note=73 velocity=95 time=0
EXTRACT: note_on channel=1 note=30 velocity=120 time=0
EXTRACT: note_on channel=2 note=61 velocity=99 time=0
EXTRACT: note_on channel=2 note=66 velocity=107 time=0
EXTRACT: note_on channel=2 note=69 velocity=109 time=0
EXTRACT: note_on channel=4 note=66 velocity=109 time=0
EXTRACT: note_on channel=7 note=42 velocity=100 time=0
EXTRACT: note_on channel=7 note=49 velocity=103 time=0
EXTRACT: note_on channel=8 note=78 velocity=93 time=0
EXTRACT: note_on channel=8 note=81 velocity=107 time=0
EXTRACT: note_on channel=8 note=85 velocity=97 time=0
EXTRACT: note_on channel=9 note=36 velocity=120 time=0
EXTRACT: note_on channel=10 note=73 velocity=100 time=0
EXTRACT: note_on channel=10 note=69 velocity=100 time=0
EXTRACT: note_on channel=10 note=78 velocity=100 time=0
EXTRACT: note_on channel=9 note=36 velocity=0 time=0.145161225
EXTRACT: control_change channel=0 control=64 value=127 time=0.03763439166666667
EXTRACT: note_on channel=0 note=54 velocity=88 time=0.13978488333333333
EXTRACT: note_on channel=0 note=69 velocity=0 time=0.010752683333333334
EXTRACT: note_on channel=0 note=73 velocity=0 time=0.043010733333333336
EXTRACT: note_on channel=0 note=66 velocity=0 time=0.005376341666666667
EXTRACT: note_on channel=9 note=36 velocity=120 time=0.10215049166666668
EXTRACT: note_on channel=9 note=36 velocity=0 time=0.09677415
EXTRACT: note_on channel=2 note=69 velocity=0 time=0.059139758333333334
EXTRACT: note_on channel=2 note=61 velocity=0 time=0
EXTRACT: note_on channel=2 note=66 velocity=0 time=0
EXTRACT: note_on channel=0 note=66 velocity=103 time=0.005376341666666667
EXTRACT: note_on channel=0 note=69 velocity=116 time=0
EXTRACT: note_on channel=0 note=73 velocity=99 time=0
EXTRACT: note_on channel=2 note=61 velocity=100 time=0
EXTRACT: note_on channel=2 note=66 velocity=106 time=0
EXTRACT: note_on channel=2 note=69 velocity=108 time=0
EXTRACT: note_on channel=3 note=73 velocity=116 time=0
EXTRACT: note_on channel=9 note=38 velocity=120 time=0
EXTRACT: note_on channel=9 note=39 velocity=120 time=0
EXTRACT: note_on channel=0 note=54 velocity=0 time=0.005376341666666667
EXTRACT: note_on channel=4 note=66 velocity=0 time=0.021505366666666668
EXTRACT: note_on channel=9 note=38 velocity=0 time=0.080645125
EXTRACT: note_on channel=9 note=39 velocity=0 time=0.005376341666666667
EXTRACT: note_on channel=0 note=54 velocity=96 time=0.209677325
EXTRACT: note_on channel=9 note=36 velocity=120 time=0
EXTRACT: note_on channel=0 note=69 velocity=0 time=0.005376341666666667
EXTRACT: note_on channel=3 note=73 velocity=0 time=0.005376341666666667
EXTRACT: note_on channel=0 note=66 velocity=0 time=0.016129025
EXTRACT: note_on channel=0 note=73 velocity=0 time=0.021505366666666668
EXTRACT: note_on channel=9 note=36 velocity=0 time=0.080645125
EXTRACT: note_on channel=0 note=54 velocity=0 time=0.11827951666666667
EXTRACT: note_on channel=2 note=66 velocity=0 time=0.06989244166666667
EXTRACT: note_on channel=2 note=69 velocity=0 time=0
EXTRACT: note_on channel=2 note=61 velocity=0 time=0
EXTRACT: note_on channel=0 note=66 velocity=102 time=0.005376341666666667
EXTRACT: note_on channel=0 note=69 velocity=115 time=0
EXTRACT: note_on channel=0 note=73 velocity=98 time=0
EXTRACT: note_on channel=2 note=61 velocity=98 time=0
EXTRACT: note_on channel=2 note=66 velocity=102 time=0
EXTRACT: note_on channel=2 note=69 velocity=107 time=0
EXTRACT: note_on channel=3 note=73 velocity=116 time=0
EXTRACT: note_on channel=0 note=69 velocity=0 time=0.241935375
EXTRACT: note_on channel=3 note=73 velocity=0 time=0.021505366666666668
EXTRACT: note_on channel=0 note=66 velocity=0 time=0.010752683333333334
EXTRACT: note_on channel=0 note=54 velocity=85 time=0.048387075
EXTRACT: note_on channel=3 note=71 velocity=107 time=0
EXTRACT: note_on channel=9 note=36 velocity=120 time=0
EXTRACT: note_on channel=0 note=73 velocity=0 time=0.005376341666666667
EXTRACT: note_on channel=9 note=36 velocity=0 time=0.11290317500000001
EXTRACT: note_on channel=0 note=54 velocity=0 time=0.11827951666666667
EXTRACT: note_on channel=3 note=71 velocity=0 time=0.010752683333333334
EXTRACT: note_on channel=2 note=66 velocity=0 time=0.06989244166666667
EXTRACT: note_on channel=2 note=69 velocity=0 time=0
EXTRACT: note_on channel=2 note=61 velocity=0 time=0
EXTRACT: note_on channel=0 note=66 velocity=104 time=0.005376341666666667
EXTRACT: note_on channel=0 note=69 velocity=113 time=0
EXTRACT: note_on channel=0 note=73 velocity=103 time=0
EXTRACT: note_on channel=2 note=61 velocity=100 time=0
EXTRACT: note_on channel=2 note=66 velocity=106 time=0
EXTRACT: note_on channel=2 note=69 velocity=107 time=0
EXTRACT: note_on channel=3 note=69 velocity=113 time=0
EXTRACT: note_on channel=9 note=38 velocity=120 time=0
EXTRACT: note_on channel=9 note=39 velocity=120 time=0
EXTRACT: note_on channel=9 note=38 velocity=0 time=0.10215049166666668
EXTRACT: note_on channel=9 note=39 velocity=0 time=0.010752683333333334
EXTRACT: note_on channel=0 note=73 velocity=0 time=0.05376341666666667
EXTRACT: note_on channel=0 note=69 velocity=0 time=0.005376341666666667
EXTRACT: note_on channel=3 note=69 velocity=0 time=0.03763439166666667
EXTRACT: note_on channel=0 note=66 velocity=0 time=0.005376341666666667
EXTRACT: note_on channel=1 note=30 velocity=0 time=0.10215049166666668
EXTRACT: note_on channel=0 note=54 velocity=97 time=0.005376341666666667
EXTRACT: note_on channel=1 note=26 velocity=120 time=0
EXTRACT: note_on channel=3 note=71 velocity=113 time=0
EXTRACT: note_on channel=4 note=68 velocity=105 time=0
EXTRACT: note_on channel=15 note=68 velocity=1 time=0
EXTRACT: note_on channel=3 note=71 velocity=0 time=0.209677325
EXTRACT: note_on channel=15 note=68 velocity=0 time=0.021505366666666668
EXTRACT: note_on channel=4 note=68 velocity=0 time=0
EXTRACT: note_on channel=0 note=54 velocity=0 time=0.043010733333333336
EXTRACT: note_on channel=2 note=61 velocity=0 time=0.043010733333333336
EXTRACT: note_on channel=7 note=42 velocity=0 time=0
EXTRACT: note_on channel=7 note=49 velocity=0 time=0
EXTRACT: note_on channel=2 note=66 velocity=0 time=0
EXTRACT: note_on channel=8 note=81 velocity=0 time=0
EXTRACT: note_on channel=8 note=78 velocity=0 time=0
EXTRACT: note_on channel=1 note=26 velocity=0 time=0
EXTRACT: note_on channel=8 note=85 velocity=0 time=0
EXTRACT: note_on channel=2 note=69 velocity=0 time=0
EXTRACT: note_on channel=10 note=69 velocity=0 time=0.005376341666666667
EXTRACT: note_on channel=10 note=78 velocity=0 time=0
EXTRACT: note_on channel=10 note=73 velocity=0 time=0
EXTRACT: note_on channel=0 note=61 velocity=101 time=0
EXTRACT: note_on channel=0 note=64 velocity=107 time=0
EXTRACT: note_on channel=0 note=68 velocity=94 time=0
EXTRACT: note_on channel=1 note=25 velocity=120 time=0
EXTRACT: note_on channel=2 note=61 velocity=93 time=0
EXTRACT: note_on channel=2 note=64 velocity=110 time=0
EXTRACT: note_on channel=2 note=68 velocity=100 time=0
EXTRACT: note_on channel=3 note=71 velocity=115 time=0
EXTRACT: note_on channel=4 note=68 velocity=109 time=0
EXTRACT: note_on channel=7 note=37 velocity=104 time=0
EXTRACT: note_on channel=7 note=44 velocity=105 time=0
EXTRACT: note_on channel=8 note=76 velocity=107 time=0
EXTRACT: note_on channel=8 note=80 velocity=105 time=0
EXTRACT: note_on channel=8 note=85 velocity=100 time=0
EXTRACT: note_on channel=9 note=36 velocity=120 time=0
EXTRACT: note_on channel=10 note=73 velocity=100 time=0
EXTRACT: note_on channel=10 note=76 velocity=100 time=0
EXTRACT: note_on channel=10 note=68 velocity=100 time=0
EXTRACT: note_on channel=15 note=68 velocity=1 time=0
EXTRACT: control_change channel=0 control=64 value=0 time=0.043010733333333336
EXTRACT: note_on channel=9 note=36 velocity=0 time=0.09139780833333334
EXTRACT: control_change channel=0 control=64 value=127 time=0.09677415
EXTRACT: note_on channel=0 note=64 velocity=0 time=0.043010733333333336
EXTRACT: note_on channel=0 note=61 velocity=0 time=0.03763439166666667
EXTRACT: note_on channel=0 note=49 velocity=87 time=0.010752683333333334
EXTRACT: note_on channel=0 note=68 velocity=0 time=0.010752683333333334
EXTRACT: note_on channel=9 note=36 velocity=120 time=0.15053756666666668
EXTRACT: note_on channel=9 note=36 velocity=0 time=0.09139780833333334
EXTRACT: note_on channel=0 note=49 velocity=0 time=0.048387075
EXTRACT: note_on channel=2 note=61 velocity=0 time=0.016129025
EXTRACT: note_on channel=2 note=64 velocity=0 time=0
EXTRACT: note_on channel=2 note=68 velocity=0 time=0
EXTRACT: note_on channel=0 note=61 velocity=105 time=0.005376341666666667
EXTRACT: note_on channel=0 note=64 velocity=113 time=0
EXTRACT: note_on channel=0 note=68 velocity=101 time=0
EXTRACT: note_on channel=2 note=61 velocity=99 time=0
EXTRACT: note_on channel=2 note=64 velocity=112 time=0
EXTRACT: note_on channel=2 note=68 velocity=103 time=0
EXTRACT: note_on channel=9 note=38 velocity=120 time=0
EXTRACT: note_on channel=9 note=39 velocity=120 time=0
EXTRACT: note_on channel=9 note=38 velocity=0 time=0.12365585833333334
EXTRACT: note_on channel=9 note=39 velocity=0 time=0.005376341666666667
EXTRACT: note_on channel=4 note=68 velocity=0 time=0.021505366666666668
EXTRACT: note_on channel=15 note=68 velocity=0 time=0
EXTRACT: note_on channel=3 note=69 velocity=109 time=0.010752683333333334
EXTRACT: note_on channel=4 note=66 velocity=109 time=0
EXTRACT: note_on channel=15 note=66 velocity=1 time=0
EXTRACT: note_on channel=3 note=71 velocity=0 time=0.010752683333333334
EXTRACT: note_on channel=0 note=64 velocity=0 time=0.080645125
EXTRACT: note_on channel=3 note=69 velocity=0 time=0.016129025
EXTRACT: note_on channel=0 note=61 velocity=0 time=0
EXTRACT: note_on channel=0 note=68 velocity=0 time=0.043010733333333336
EXTRACT: note_on channel=0 note=49 velocity=93 time=0.010752683333333334
EXTRACT: note_on channel=3 note=68 velocity=120 time=0
EXTRACT: note_on channel=4 note=64 velocity=107 time=0
EXTRACT: note_on channel=9 note=36 velocity=120 time=0
EXTRACT: note_on channel=15 note=64 velocity=1 time=0
EXTRACT: note_on channel=15 note=66 velocity=0 time=0.016129025
EXTRACT: note_on channel=4 note=66 velocity=0 time=0
EXTRACT: note_on channel=3 note=68 velocity=0 time=0.10215049166666668
EXTRACT: note_on channel=9 note=36 velocity=0 time=0.021505366666666668
EXTRACT: note_on channel=4 note=64 velocity=0 time=0.016129025
EXTRACT: note_on channel=15 note=64 velocity=0 time=0
EXTRACT: note_on channel=3 note=66 velocity=116 time=0.005376341666666667
EXTRACT: note_on channel=4 note=61 velocity=116 time=0
EXTRACT: note_on channel=15 note=61 velocity=1 time=0
EXTRACT: note_on channel=0 note=49 velocity=0 time=0.080645125
EXTRACT: note_on channel=3 note=66 velocity=0 time=0.03225805
EXTRACT: note_on channel=15 note=61 velocity=0 time=0.03225805
EXTRACT: note_on channel=4 note=61 velocity=0 time=0
EXTRACT: note_on channel=2 note=68 velocity=0 time=0.010752683333333334
EXTRACT: note_on channel=2 note=64 velocity=0 time=0
EXTRACT: note_on channel=2 note=61 velocity=0 time=0
EXTRACT: note_on channel=0 note=61 velocity=103 time=0.005376341666666667
EXTRACT: note_on channel=0 note=64 velocity=113 time=0
EXTRACT: note_on channel=0 note=68 velocity=97 time=0
EXTRACT: note_on channel=2 note=61 velocity=96 time=0
EXTRACT: note_on channel=2 note=64 velocity=110 time=0
EXTRACT: note_on channel=2 note=68 velocity=100 time=0
EXTRACT: note_on channel=3 note=64 velocity=116 time=0
EXTRACT: note_on channel=4 note=59 velocity=115 time=0
EXTRACT: note_on channel=15 note=59 velocity=1 time=0
EXTRACT: note_on channel=0 note=64 velocity=0 time=0.2634407416666667
EXTRACT: note_on channel=0 note=61 velocity=0 time=0.048387075
EXTRACT: note_on channel=0 note=49 velocity=85 time=0.010752683333333334
EXTRACT: note_on channel=9 note=36 velocity=120 time=0
EXTRACT: note_on channel=0 note=68 velocity=0 time=0.021505366666666668
EXTRACT: note_on channel=9 note=36 velocity=0 time=0.09677415
EXTRACT: note_on channel=0 note=49 velocity=0 time=0.16666659166666667
EXTRACT: note_on channel=2 note=61 velocity=0 time=0.03225805
EXTRACT: note_on channel=2 note=68 velocity=0 time=0
EXTRACT: note_on channel=2 note=64 velocity=0 time=0
EXTRACT: note_on channel=0 note=61 velocity=105 time=0.005376341666666667
EXTRACT: note_on channel=0 note=64 velocity=115 time=0
EXTRACT: note_on channel=0 note=68 velocity=104 time=0
EXTRACT: note_on channel=2 note=61 velocity=97 time=0
EXTRACT: note_on channel=2 note=64 velocity=113 time=0
EXTRACT: note_on channel=2 note=68 velocity=101 time=0
EXTRACT: note_on channel=9 note=38 velocity=120 time=0
EXTRACT: note_on channel=9 note=39 velocity=120 time=0
EXTRACT: note_on channel=9 note=38 velocity=0 time=0.11290317500000001
EXTRACT: note_on channel=9 note=39 velocity=0 time=0.010752683333333334
EXTRACT: note_on channel=3 note=64 velocity=0 time=0.09677415
EXTRACT: note_on channel=4 note=59 velocity=0 time=0.05376341666666667
EXTRACT: note_on channel=15 note=59 velocity=0 time=0
EXTRACT: note_on channel=0 note=64 velocity=0 time=0.010752683333333334
EXTRACT: note_on channel=0 note=68 velocity=0 time=0.021505366666666668
EXTRACT: note_on channel=0 note=49 velocity=93 time=0.016129025
EXTRACT: note_on channel=3 note=66 velocity=120 time=0
EXTRACT: note_on channel=4 note=61 velocity=116 time=0
EXTRACT: note_on channel=15 note=61 velocity=1 time=0
EXTRACT: note_on channel=0 note=61 velocity=0 time=0.03225805
EXTRACT: note_on channel=3 note=66 velocity=0 time=0.11290317500000001
EXTRACT: note_on channel=3 note=69 velocity=115 time=0.016129025
EXTRACT: note_on channel=4 note=64 velocity=106 time=0
EXTRACT: note_on channel=15 note=64 velocity=1 time=0
EXTRACT: note_on channel=15 note=61 velocity=0 time=0.010752683333333334
EXTRACT: note_on channel=4 note=61 velocity=0 time=0
EXTRACT: control_change channel=0 control=64 value=0 time=0.12365585833333334
EXTRACT: note_on channel=0 note=49 velocity=0 time=0.010752683333333334
EXTRACT: note_on channel=2 note=64 velocity=0 time=0.010752683333333334
EXTRACT: note_on channel=8 note=76 velocity=0 time=0
EXTRACT: note_on channel=8 note=85 velocity=0 time=0
EXTRACT: note_on channel=2 note=68 velocity=0 time=0
EXTRACT: note_on channel=7 note=37 velocity=0 time=0
EXTRACT: note_on channel=8 note=80 velocity=0 time=0
EXTRACT: note_on channel=1 note=25 velocity=0 time=0
EXTRACT: note_on channel=7 note=44 velocity=0 time=0
EXTRACT: note_on channel=2 note=61 velocity=0 time=0
EXTRACT: note_on channel=10 note=76 velocity=0 time=0.005376341666666667
EXTRACT: note_on channel=10 note=73 velocity=0 time=0
EXTRACT: note_on channel=10 note=68 velocity=0 time=0
EXTRACT: note_on channel=0 note=52 velocity=100 time=0
EXTRACT: note_on channel=0 note=59 velocity=103 time=0
EXTRACT: note_on channel=0 note=64 velocity=107 time=0
EXTRACT: note_on channel=0 note=68 velocity=102 time=0
EXTRACT: note_on channel=1 note=28 velocity=120 time=0
EXTRACT: note_on channel=2 note=59 velocity=104 time=0
EXTRACT: note_on channel=2 note=64 velocity=113 time=0
EXTRACT: note_on channel=2 note=68 velocity=104 time=0
EXTRACT: note_on channel=7 note=40 velocity=102 time=0
EXTRACT: note_on channel=7 note=47 velocity=110 time=0
EXTRACT: note_on channel=8 note=76 velocity=102 time=0
EXTRACT: note_on channel=8 note=80 velocity=103 time=0
EXTRACT: note_on channel=8 note=83 velocity=107 time=0
EXTRACT: note_on channel=9 note=36 velocity=120 time=0
EXTRACT: note_on channel=10 note=68 velocity=100 time=0
EXTRACT: note_on channel=10 note=76 velocity=100 time=0
EXTRACT: note_on channel=10 note=71 velocity=100 time=0
EXTRACT: note_on channel=3 note=69 velocity=0 time=0.03763439166666667
EXTRACT: note_on channel=4 note=64 velocity=0 time=0.043010733333333336
EXTRACT: note_on channel=15 note=64 velocity=0 time=0
EXTRACT: note_on channel=9 note=36 velocity=0 time=0.043010733333333336
EXTRACT: note_on channel=9 note=36 velocity=120 time=0.3602148916666667
EXTRACT: note_on channel=9 note=36 velocity=0 time=0.09139780833333334
EXTRACT: note_on channel=9 note=38 velocity=120 time=0.06989244166666667
EXTRACT: note_on channel=9 note=39 velocity=120 time=0
EXTRACT: note_on channel=9 note=38 velocity=0 time=0.09677415
EXTRACT: note_on channel=9 note=39 velocity=0 time=0.005376341666666667
EXTRACT: note_on channel=9 note=36 velocity=120 time=0.22043000833333334
EXTRACT: note_on channel=9 note=36 velocity=0 time=0.12365585833333334
EXTRACT: note_on channel=2 note=59 velocity=0 time=0.1935483
EXTRACT: note_on channel=2 note=68 velocity=0 time=0
EXTRACT: note_on channel=2 note=64 velocity=0 time=0
EXTRACT: note_on channel=2 note=59 velocity=91 time=0.005376341666666667
EXTRACT: note_on channel=2 note=64 velocity=112 time=0
EXTRACT: note_on channel=2 note=68 velocity=99 time=0
EXTRACT: note_on channel=4 note=69 velocity=107 time=0
EXTRACT: note_on channel=4 note=68 velocity=111 time=0.3225805
EXTRACT: note_on channel=9 note=36 velocity=120 time=0
EXTRACT: note_on channel=4 note=69 velocity=0 time=0.026881708333333334
EXTRACT: note_on channel=9 note=36 velocity=0 time=0.09677415
EXTRACT: note_on channel=0 note=64 velocity=0 time=0.16129025
EXTRACT: note_on channel=0 note=59 velocity=0 time=0.010752683333333334
EXTRACT: note_on channel=0 note=52 velocity=0 time=0.005376341666666667
EXTRACT: note_on channel=0 note=68 velocity=0 time=0
EXTRACT: note_on channel=2 note=68 velocity=0 time=0.016129025
EXTRACT: note_on channel=1 note=28 velocity=0 time=0
EXTRACT: note_on channel=2 note=59 velocity=0 time=0
EXTRACT: note_on channel=2 note=64 velocity=0 time=0
EXTRACT: note_on channel=10 note=68 velocity=0 time=0.005376341666666667
EXTRACT: note_on channel=10 note=71 velocity=0 time=0
EXTRACT: note_on channel=10 note=76 velocity=0 time=0
EXTRACT: note_on channel=2 note=59 velocity=100 time=0
EXTRACT: note_on channel=2 note=64 velocity=109 time=0
EXTRACT: note_on channel=2 note=68 velocity=99 time=0
EXTRACT: note_on channel=4 note=66 velocity=111 time=0
EXTRACT: note_on channel=9 note=38 velocity=120 time=0
EXTRACT: note_on channel=9 note=39 velocity=120 time=0
EXTRACT: note_on channel=4 note=68 velocity=0 time=0.026881708333333334
EXTRACT: note_on channel=9 note=38 velocity=0 time=0.07526878333333334
EXTRACT: note_on channel=9 note=39 velocity=0 time=0
EXTRACT: note_on channel=4 note=66 velocity=0 time=0.209677325
EXTRACT: note_on channel=4 note=64 velocity=107 time=0.010752683333333334
EXTRACT: note_on channel=7 note=40 velocity=0 time=0.3172041583333334
EXTRACT: note_on channel=8 note=83 velocity=0 time=0
EXTRACT: note_on channel=2 note=64 velocity=0 time=0
EXTRACT: note_on channel=7 note=47 velocity=0 time=0
EXTRACT: note_on channel=2 note=59 velocity=0 time=0
EXTRACT: note_on channel=8 note=80 velocity=0 time=0
EXTRACT: note_on channel=8 note=76 velocity=0 time=0
EXTRACT: note_on channel=2 note=68 velocity=0 time=0
EXTRACT: note_on channel=4 note=64 velocity=0 time=0.005376341666666667
EXTRACT: note_on channel=0 note=50 velocity=115 time=0
EXTRACT: note_on channel=0 note=57 velocity=105 time=0
EXTRACT: note_on channel=0 note=62 velocity=113 time=0
EXTRACT: note_on channel=0 note=66 velocity=99 time=0
EXTRACT: note_on channel=1 note=26 velocity=120 time=0
EXTRACT: note_on channel=4 note=62 velocity=109 time=0
EXTRACT: note_on channel=8 note=78 velocity=97 time=0
EXTRACT: note_on channel=8 note=81 velocity=112 time=0
EXTRACT: note_on channel=8 note=86 velocity=109 time=0
EXTRACT: note_on channel=9 note=36 velocity=120 time=0
EXTRACT: note_on channel=8 note=78 velocity=0 time=0.0645161
EXTRACT: note_on channel=8 note=81 velocity=0 time=0.005376341666666667
EXTRACT: note_on channel=8 note=86 velocity=0 time=0.021505366666666668
EXTRACT: note_on channel=9 note=36 velocity=0 time=0.05376341666666667
EXTRACT: control_change channel=0 control=64 value=127 time=0.07526878333333334
EXTRACT: note_on channel=8 note=78 velocity=96 time=0.10215049166666668
EXTRACT: note_on channel=8 note=81 velocity=108 time=0
EXTRACT: note_on channel=8 note=86 velocity=104 time=0
EXTRACT: note_on channel=8 note=86 velocity=0 time=0.11290317500000001
EXTRACT: note_on channel=0 note=62 velocity=0 time=0
EXTRACT: note_on channel=0 note=66 velocity=0 time=0.005376341666666667
EXTRACT: note_on channel=8 note=81 velocity=0 time=0
EXTRACT: note_on channel=0 note=57 velocity=0 time=0.005376341666666667
EXTRACT: note_on channel=8 note=78 velocity=0 time=0
EXTRACT: note_on channel=9 note=36 velocity=120 time=0.03763439166666667
EXTRACT: note_on channel=9 note=36 velocity=0 time=0.11827951666666667
EXTRACT: note_on channel=0 note=57 velocity=102 time=0.043010733333333336
EXTRACT: note_on channel=0 note=62 velocity=108 time=0
EXTRACT: note_on channel=0 note=66 velocity=97 time=0
EXTRACT: note_on channel=3 note=66 velocity=120 time=0
EXTRACT: note_on channel=8 note=78 velocity=96 time=0
EXTRACT: note_on channel=8 note=81 velocity=108 time=0
EXTRACT: note_on channel=8 note=86 velocity=104 time=0
EXTRACT: note_on channel=9 note=38 velocity=120 time=0
EXTRACT: note_on channel=9 note=39 velocity=120 time=0
EXTRACT: note_on channel=0 note=50 velocity=0 time=0.048387075
EXTRACT: note_on channel=8 note=81 velocity=0 time=0.043010733333333336
EXTRACT: note_on channel=8 note=78 velocity=0 time=0
EXTRACT: note_on channel=8 note=86 velocity=0 time=0.010752683333333334
EXTRACT: note_on channel=3 note=66 velocity=0 time=0
EXTRACT: note_on channel=9 note=38 velocity=0 time=0.010752683333333334
EXTRACT: note_on channel=9 note=39 velocity=0 time=0.016129025
EXTRACT: note_on channel=3 note=66 velocity=116 time=0.03225805
EXTRACT: note_on channel=3 note=66 velocity=0 time=0.11290317500000001
EXTRACT: note_on channel=0 note=62 velocity=0 time=0
EXTRACT: note_on channel=0 note=57 velocity=0 time=0.010752683333333334
EXTRACT: note_on channel=0 note=66 velocity=0 time=0.010752683333333334
EXTRACT: note_on channel=0 note=50 velocity=100 time=0.026881708333333334
EXTRACT: note_on channel=3 note=66 velocity=116 time=0
EXTRACT: note_on channel=8 note=78 velocity=100 time=0
EXTRACT: note_on channel=8 note=81 velocity=109 time=0
EXTRACT: note_on channel=8 note=86 velocity=106 time=0
EXTRACT: note_on channel=9 note=36 velocity=120 time=0
EXTRACT: note_on channel=8 note=81 velocity=0 time=0.09677415
EXTRACT: note_on channel=3 note=66 velocity=0 time=0.010752683333333334
EXTRACT: note_on channel=8 note=78 velocity=0 time=0
EXTRACT: note_on channel=8 note=86 velocity=0 time=0.005376341666666667
EXTRACT: note_on channel=9 note=36 velocity=0 time=0.03763439166666667
EXTRACT: note_on channel=3 note=66 velocity=120 time=0.010752683333333334
EXTRACT: note_on channel=3 note=66 velocity=0 time=0.080645125
EXTRACT: note_on channel=0 note=50 velocity=0 time=0.080645125
EXTRACT: note_on channel=0 note=57 velocity=100 time=0
EXTRACT: note_on channel=0 note=62 velocity=108 time=0
EXTRACT: note_on channel=0 note=66 velocity=97 time=0
EXTRACT: note_on channel=3 note=66 velocity=116 time=0
EXTRACT: note_on channel=8 note=78 velocity=96 time=0
EXTRACT: note_on channel=8 note=81 velocity=110 time=0
EXTRACT: note_on channel=8 note=86 velocity=107 time=0
EXTRACT: note_on channel=8 note=81 velocity=0 time=0.09677415
EXTRACT: note_on channel=8 note=86 velocity=0 time=0.016129025
EXTRACT: note_on channel=8 note=78 velocity=0 time=0
EXTRACT: note_on channel=3 note=66 velocity=0 time=0.10215049166666668
EXTRACT: note_on channel=0 note=62 velocity=0 time=0.03763439166666667
EXTRACT: note_on channel=0 note=57 velocity=0 time=0.010752683333333334
EXTRACT: note_on channel=0 note=66 velocity=0 time=0
EXTRACT: note_on channel=0 note=50 velocity=97 time=0.059139758333333334
EXTRACT: note_on channel=3 note=66 velocity=112 time=0
EXTRACT: note_on channel=8 note=78 velocity=100 time=0
EXTRACT: note_on channel=8 note=81 velocity=111 time=0
EXTRACT: note_on channel=8 note=86 velocity=107 time=0
EXTRACT: note_on channel=9 note=36 velocity=120 time=0
EXTRACT: note_on channel=8 note=81 velocity=0 time=0.09677415
EXTRACT: note_on channel=8 note=78 velocity=0 time=0
EXTRACT: note_on channel=3 note=66 velocity=0 time=0.005376341666666667
EXTRACT: note_on channel=8 note=86 velocity=0 time=0.010752683333333334
EXTRACT: note_on channel=9 note=36 velocity=0 time=0.016129025
EXTRACT: note_on channel=3 note=68 velocity=111 time=0.03225805
EXTRACT: note_on channel=0 note=50 velocity=0 time=0.0645161
EXTRACT: note_on channel=0 note=57 velocity=99 time=0.09677415
EXTRACT: note_on channel=0 note=62 velocity=101 time=0
EXTRACT: note_on channel=0 note=66 velocity=95 time=0
EXTRACT: note_on channel=8 note=78 velocity=100 time=0
EXTRACT: note_on channel=8 note=81 velocity=109 time=0
EXTRACT: note_on channel=8 note=86 velocity=108 time=0
EXTRACT: note_on channel=9 note=38 velocity=120 time=0
EXTRACT: note_on channel=9 note=39 velocity=120 time=0
EXTRACT: note_on channel=8 note=81 velocity=0 time=0.09677415
EXTRACT: note_on channel=3 note=68 velocity=0 time=0
EXTRACT: note_on channel=8 note=86 velocity=0 time=0.021505366666666668
EXTRACT: note_on channel=9 note=38 velocity=0 time=0
EXTRACT: note_on channel=8 note=78 velocity=0 time=0
EXTRACT: note_on channel=9 note=39 velocity=0 time=0.010752683333333334
EXTRACT: note_on channel=3 note=69 velocity=116 time=0.03225805
EXTRACT: note_on channel=0 note=57 velocity=0 time=0.043010733333333336
EXTRACT: note_on channel=0 note=62 velocity=0 time=0.026881708333333334
EXTRACT: note_on channel=0 note=66 velocity=0 time=0.026881708333333334
EXTRACT: note_on channel=0 note=50 velocity=99 time=0.0645161
EXTRACT: note_on channel=8 note=78 velocity=99 time=0
EXTRACT: note_on channel=8 note=81 velocity=115 time=0
EXTRACT: note_on channel=8 note=86 velocity=111 time=0
EXTRACT: note_on channel=3 note=69 velocity=0 time=0.043010733333333336
EXTRACT: note_on channel=8 note=86 velocity=0 time=0.043010733333333336
EXTRACT: note_on channel=8 note=81 velocity=0 time=0.016129025
EXTRACT: note_on channel=8 note=78 velocity=0 time=0.005376341666666667
EXTRACT: note_on channel=3 note=68 velocity=111 time=0.05376341666666667
EXTRACT: note_on channel=0 note=50 velocity=0 time=0.08602146666666667
EXTRACT: control_change channel=0 control=64 value=0 time=0.03225805
EXTRACT: note_on channel=4 note=62 velocity=0 time=0.03225805
EXTRACT: note_on channel=1 note=26 velocity=0 time=0.005376341666666667
EXTRACT: note_on channel=0 note=52 velocity=102 time=0.005376341666666667
EXTRACT: note_on channel=0 note=59 velocity=101 time=0
EXTRACT: note_on channel=0 note=64 velocity=105 time=0
EXTRACT: note_on channel=0 note=68 velocity=100 time=0
EXTRACT: note_on channel=1 note=28 velocity=120 time=0
EXTRACT: note_on channel=4 note=64 velocity=112 time=0
EXTRACT: note_on channel=8 note=80 velocity=97 time=0
EXTRACT: note_on channel=8 note=83 velocity=107 time=0
EXTRACT: note_on channel=8 note=88 velocity=102 time=0
EXTRACT: note_on channel=9 note=36 velocity=120 time=0
EXTRACT: note_on channel=8 note=83 velocity=0 time=0.09677415
EXTRACT: note_on channel=8 note=80 velocity=0 time=0.016129025
EXTRACT: note_on channel=8 note=88 velocity=0 time=0.03225805
EXTRACT: note_on channel=9 note=36 velocity=0 time=0
EXTRACT: control_change channel=0 control=64 value=127 time=0.17204293333333334
EXTRACT: note_on channel=8 note=80 velocity=96 time=0.005376341666666667
EXTRACT: note_on channel=8 note=83 velocity=109 time=0
EXTRACT: note_on channel=8 note=88 velocity=96 time=0
EXTRACT: note_on channel=3 note=68 velocity=0 time=0.03763439166666667
EXTRACT: note_on channel=8 note=83 velocity=0 time=0.06989244166666667
EXTRACT: note_on channel=8 note=80 velocity=0 time=0
EXTRACT: note_on channel=0 note=68 velocity=0 time=0
EXTRACT: note_on channel=0 note=64 velocity=0 time=0.010752683333333334
EXTRACT: note_on channel=0 note=59 velocity=0 time=0.005376341666666667
EXTRACT: note_on channel=8 note=88 velocity=0 time=0.005376341666666667
EXTRACT: note_on channel=3 note=68 velocity=120 time=0.03225805
EXTRACT: note_on channel=9 note=36 velocity=120 time=0
EXTRACT: note_on channel=3 note=68 velocity=0 time=0.08602146666666667
EXTRACT: note_on channel=9 note=36 velocity=0 time=0.010752683333333334
EXTRACT: note_on channel=0 note=59 velocity=99 time=0.0645161
EXTRACT: note_on channel=0 note=64 velocity=102 time=0
EXTRACT: note_on channel=0 note=68 velocity=100 time=0
EXTRACT: note_on channel=3 note=68 velocity=116 time=0
EXTRACT: note_on channel=8 note=80 velocity=92 time=0
EXTRACT: note_on channel=8 note=83 velocity=108 time=0
EXTRACT: note_on channel=8 note=88 velocity=100 time=0
EXTRACT: note_on channel=9 note=38 velocity=120 time=0
EXTRACT: note_on channel=9 note=39 velocity=120 time=0
EXTRACT: note_on channel=0 note=52 velocity=0 time=0.021505366666666668
EXTRACT: note_on channel=8 note=83 velocity=0 time=0.05376341666666667
EXTRACT: note_on channel=3 note=68 velocity=0 time=0.016129025
EXTRACT: note_on channel=8 note=80 velocity=0 time=0.005376341666666667
EXTRACT: note_on channel=9 note=38 velocity=0 time=0.010752683333333334
EXTRACT: note_on channel=9 note=39 velocity=0 time=0.005376341666666667
EXTRACT: note_on channel=8 note=88 velocity=0 time=0.026881708333333334
EXTRACT: note_on channel=3 note=68 velocity=120 time=0.021505366666666668
EXTRACT: note_on channel=3 note=68 velocity=0 time=0.09677415
EXTRACT: note_on channel=0 note=52 velocity=99 time=0.0645161
EXTRACT: note_on channel=3 note=68 velocity=116 time=0
EXTRACT: note_on channel=8 note=80 velocity=92 time=0
EXTRACT: note_on channel=8 note=83 velocity=105 time=0
EXTRACT: note_on channel=8 note=88 velocity=98 time=0
EXTRACT: note_on channel=9 note=36 velocity=120 time=0
EXTRACT: note_on channel=0 note=59 velocity=0 time=0.005376341666666667
EXTRACT: note_on channel=0 note=64 velocity=0 time=0.005376341666666667
EXTRACT: note_on channel=0 note=68 velocity=0 time=0.005376341666666667
EXTRACT: note_on channel=8 note=83 velocity=0 time=0.059139758333333334
EXTRACT: note_on channel=3 note=68 velocity=0 time=0.005376341666666667
EXTRACT: note_on channel=8 note=80 velocity=0 time=0.03225805
EXTRACT: note_on channel=8 note=88 velocity=0 time=0.010752683333333334
EXTRACT: note_on channel=9 note=36 velocity=0 time=0.005376341666666667
EXTRACT: note_on channel=3 note=68 velocity=110 time=0.03225805
EXTRACT: note_on channel=3 note=68 velocity=0 time=0.06989244166666667
EXTRACT: note_on channel=0 note=59 velocity=96 time=0.09139780833333334
EXTRACT: note_on channel=0 note=64 velocity=104 time=0
EXTRACT: note_on channel=0 note=68 velocity=95 time=0
EXTRACT: note_on channel=3 note=68 velocity=116 time=0
EXTRACT: note_on channel=8 note=80 velocity=96 time=0
EXTRACT: note_on channel=8 note=83 velocity=110 time=0
EXTRACT: note_on channel=8 note=88 velocity=98 time=0
EXTRACT: note_on channel=0 note=52 velocity=0 time=0.021505366666666668
EXTRACT: note_on channel=3 note=68 velocity=0 time=0.043010733333333336
EXTRACT: note_on channel=8 note=83 velocity=0 time=0.043010733333333336
EXTRACT: note_on channel=8 note=80 velocity=0 time=0.005376341666666667
EXTRACT: note_on channel=8 note=88 velocity=0 time=0.021505366666666668
EXTRACT: note_on channel=3 note=68 velocity=103 time=0.026881708333333334
EXTRACT: note_on channel=0 note=64 velocity=0 time=0.12365585833333334
EXTRACT: note_on channel=0 note=59 velocity=0 time=0.010752683333333334
EXTRACT: note_on channel=3 note=68 velocity=0 time=0
EXTRACT: note_on channel=0 note=68 velocity=0 time=0.005376341666666667
EXTRACT: note_on channel=0 note=52 velocity=100 time=0.021505366666666668
EXTRACT: note_on channel=8 note=80 velocity=96 time=0
EXTRACT: note_on channel=8 note=83 velocity=109 time=0
EXTRACT: note_on channel=8 note=88 velocity=97 time=0
EXTRACT: note_on channel=9 note=36 velocity=120 time=0
EXTRACT: note_on channel=8 note=83 velocity=0 time=0.10752683333333334
EXTRACT: note_on channel=8 note=80 velocity=0 time=0.005376341666666667
EXTRACT: note_on channel=9 note=36 velocity=0 time=0.005376341666666667
EXTRACT: note_on channel=8 note=88 velocity=0 time=0.010752683333333334
EXTRACT: note_on channel=3 note=69 velocity=115 time=0.03225805
EXTRACT: note_on channel=0 note=52 velocity=0 time=0.09139780833333334
EXTRACT: note_on channel=0 note=59 velocity=104 time=0.06989244166666667
EXTRACT: note_on channel=0 note=64 velocity=107 time=0
EXTRACT: note_on channel=0 note=68 velocity=100 time=0
EXTRACT: note_on channel=8 note=80 velocity=96 time=0
EXTRACT: note_on channel=8 note=83 velocity=108 time=0
EXTRACT: note_on channel=8 note=88 velocity=93 time=0
EXTRACT: note_on channel=9 note=38 velocity=120 time=0
EXTRACT: note_on channel=9 note=39 velocity=120 time=0
EXTRACT: note_on channel=3 note=69 velocity=0 time=0.05376341666666667
EXTRACT: note_on channel=9 note=38 velocity=0 time=0.048387075
EXTRACT: note_on channel=8 note=83 velocity=0 time=0.010752683333333334
EXTRACT: note_on channel=9 note=39 velocity=0 time=0
EXTRACT: note_on channel=8 note=80 velocity=0 time=0
EXTRACT: note_on channel=8 note=88 velocity=0 time=0.010752683333333334
EXTRACT: note_on channel=3 note=68 velocity=119 time=0.03763439166666667
EXTRACT: note_on channel=0 note=68 velocity=0 time=0.03225805
EXTRACT: note_on channel=0 note=64 velocity=0 time=0.021505366666666668
EXTRACT: note_on channel=0 note=59 velocity=0 time=0.005376341666666667
EXTRACT: note_on channel=0 note=52 velocity=99 time=0.10215049166666668
EXTRACT: note_on channel=8 note=80 velocity=97 time=0
EXTRACT: note_on channel=8 note=83 velocity=110 time=0
EXTRACT: note_on channel=8 note=88 velocity=100 time=0
EXTRACT: note_on channel=3 note=68 velocity=0 time=0.03763439166666667
EXTRACT: note_on channel=8 note=83 velocity=0 time=0.0645161
EXTRACT: note_on channel=8 note=80 velocity=0 time=0.005376341666666667
EXTRACT: note_on channel=8 note=88 velocity=0 time=0.021505366666666668
EXTRACT: note_on channel=3 note=66 velocity=116 time=0.03225805
EXTRACT: note_on channel=0 note=52 velocity=0 time=0.0645161
EXTRACT: control_change channel=0 control=64 value=0 time=0.06989244166666667
EXTRACT: note_on channel=4 note=64 velocity=0 time=0.016129025
EXTRACT: note_on channel=1 note=28 velocity=0 time=0.005376341666666667
EXTRACT: note_on channel=0 note=50 velocity=107 time=0.005376341666666667
EXTRACT: note_on channel=0 note=57 velocity=99 time=0
EXTRACT: note_on channel=0 note=62 velocity=107 time=0
EXTRACT: note_on channel=0 note=66 velocity=98 time=0
EXTRACT: note_on channel=1 note=26 velocity=120 time=0
EXTRACT: note_on channel=4 note=62 velocity=110 time=0
EXTRACT: note_on channel=8 note=78 velocity=97 time=0
EXTRACT: note_on channel=8 note=81 velocity=111 time=0
EXTRACT: note_on channel=8 note=86 velocity=108 time=0
EXTRACT: note_on channel=9 note=36 velocity=120 time=0
EXTRACT: note_on channel=8 note=81 velocity=0 time=0.080645125
EXTRACT: note_on channel=8 note=86 velocity=0 time=0.021505366666666668
EXTRACT: note_on channel=8 note=78 velocity=0 time=0.016129025
EXTRACT: note_on channel=9 note=36 velocity=0 time=0.016129025
EXTRACT: note_on channel=3 note=66 velocity=0 time=0.12365585833333334
EXTRACT: note_on channel=8 note=78 velocity=92 time=0.0645161
EXTRACT: note_on channel=8 note=81 velocity=110 time=0
EXTRACT: note_on channel=8 note=86 velocity=106 time=0
EXTRACT: control_change channel=0 control=64 value=127 time=0.010752683333333334
EXTRACT: note_on channel=8 note=81 velocity=0 time=0.07526878333333334
EXTRACT: note_on channel=8 note=86 velocity=0 time=0.005376341666666667
EXTRACT: note_on channel=8 note=78 velocity=0 time=0.021505366666666668
EXTRACT: note_on channel=0 note=66 velocity=0 time=0.03225805
EXTRACT: note_on channel=0 note=62 velocity=0 time=0.005376341666666667
EXTRACT: note_on channel=0 note=57 velocity=0 time=0.005376341666666667
EXTRACT: note_on channel=9 note=36 velocity=120 time=0.005376341666666667
EXTRACT: note_on channel=9 note=36 velocity=0 time=0.09139780833333334
EXTRACT: note_on channel=0 note=57 velocity=98 time=0.06989244166666667
EXTRACT: note_on channel=0 note=62 velocity=104 time=0
EXTRACT: note_on channel=0 note=66 velocity=96 time=0
EXTRACT: note_on channel=3 note=66 velocity=116 time=0
EXTRACT: note_on channel=8 note=78 velocity=97 time=0
EXTRACT: note_on channel=8 note=81 velocity=112 time=0
EXTRACT: note_on channel=8 note=86 velocity=107 time=0
EXTRACT: note_on channel=9 note=38 velocity=120 time=0
EXTRACT: note_on channel=9 note=39 velocity=120 time=0
EXTRACT: note_on channel=0 note=50 velocity=0 time=0.026881708333333334
EXTRACT: note_on channel=3 note=66 velocity=0 time=0.03763439166666667
EXTRACT: note_on channel=8 note=81 velocity=0 time=0.021505366666666668
EXTRACT: note_on channel=8 note=78 velocity=0 time=0.026881708333333334
EXTRACT: note_on channel=8 note=86 velocity=0 time=0.005376341666666667
EXTRACT: note_on channel=9 note=38 velocity=0 time=0.005376341666666667
EXTRACT: note_on channel=9 note=39 velocity=0 time=0.005376341666666667
EXTRACT: note_on channel=3 note=66 velocity=109 time=0.03225805
EXTRACT: note_on channel=3 note=66 velocity=0 time=0.08602146666666667
EXTRACT: note_on channel=0 note=50 velocity=102 time=0.07526878333333334
EXTRACT: note_on channel=3 note=66 velocity=103 time=0
EXTRACT: note_on channel=8 note=78 velocity=93 time=0
EXTRACT: note_on channel=8 note=81 velocity=112 time=0
EXTRACT: note_on channel=8 note=86 velocity=106 time=0
EXTRACT: note_on channel=9 note=36 velocity=120 time=0
EXTRACT: note_on channel=0 note=62 velocity=0 time=0.010752683333333334
EXTRACT: note_on channel=0 note=57 velocity=0 time=0.010752683333333334
EXTRACT: note_on channel=0 note=66 velocity=0 time=0.026881708333333334
EXTRACT: note_on channel=8 note=81 velocity=0 time=0.03225805
EXTRACT: note_on channel=8 note=86 velocity=0 time=0.010752683333333334
EXTRACT: note_on channel=3 note=66 velocity=0 time=0
EXTRACT: note_on channel=8 note=78 velocity=0 time=0.010752683333333334
EXTRACT: note_on channel=9 note=36 velocity=0 time=0.03763439166666667
EXTRACT: note_on channel=3 note=66 velocity=93 time=0.021505366666666668
EXTRACT: note_on channel=3 note=66 velocity=0 time=0.07526878333333334
EXTRACT: note_on channel=0 note=57 velocity=99 time=0.08602146666666667
EXTRACT: note_on channel=0 note=62 velocity=107 time=0
EXTRACT: note_on channel=0 note=66 velocity=93 time=0
EXTRACT: note_on channel=3 note=66 velocity=111 time=0
EXTRACT: note_on channel=8 note=78 velocity=97 time=0
EXTRACT: note_on channel=8 note=81 velocity=112 time=0
EXTRACT: note_on channel=8 note=86 velocity=108 time=0
EXTRACT: note_on channel=0 note=50 velocity=0 time=0.0645161
EXTRACT: note_on channel=8 note=81 velocity=0 time=0.005376341666666667
EXTRACT: note_on channel=8 note=86 velocity=0 time=0.005376341666666667
EXTRACT: note_on channel=8 note=78 velocity=0 time=0.03225805
EXTRACT: note_on channel=3 note=66 velocity=0 time=0.10752683333333334
EXTRACT: note_on channel=0 note=62 velocity=0 time=0.08602146666666667
EXTRACT: note_on channel=0 note=57 velocity=0 time=0.016129025
EXTRACT: note_on channel=0 note=50 velocity=102 time=0.005376341666666667
EXTRACT: note_on channel=3 note=66 velocity=114 time=0
EXTRACT: note_on channel=8 note=78 velocity=97 time=0
EXTRACT: note_on channel=8 note=81 velocity=111 time=0
EXTRACT: note_on channel=8 note=86 velocity=109 time=0
EXTRACT: note_on channel=9 note=36 velocity=120 time=0
EXTRACT: note_on channel=0 note=66 velocity=0 time=0.021505366666666668
EXTRACT: note_on channel=8 note=81 velocity=0 time=0.048387075
EXTRACT: note_on channel=8 note=86 velocity=0 time=0.016129025
EXTRACT: note_on channel=3 note=66 velocity=0 time=0.016129025
EXTRACT: note_on channel=8 note=78 velocity=0 time=0.010752683333333334
EXTRACT: note_on channel=9 note=36 velocity=0 time=0.005376341666666667
EXTRACT: note_on channel=3 note=68 velocity=112 time=0.043010733333333336
EXTRACT: note_on channel=0 note=50 velocity=0 time=0.080645125
EXTRACT: note_on channel=0 note=57 velocity=100 time=0.080645125
EXTRACT: note_on channel=0 note=62 velocity=106 time=0
EXTRACT: note_on channel=0 note=66 velocity=97 time=0
EXTRACT: note_on channel=8 note=78 velocity=98 time=0
EXTRACT: note_on channel=8 note=81 velocity=112 time=0
EXTRACT: note_on channel=8 note=86 velocity=105 time=0
EXTRACT: note_on channel=9 note=38 velocity=120 time=0
EXTRACT: note_on channel=9 note=39 velocity=120 time=0
EXTRACT: note_on channel=3 note=68 velocity=0 time=0.07526878333333334
EXTRACT: note_on channel=8 note=86 velocity=0 time=0.010752683333333334
EXTRACT: note_on channel=8 note=81 velocity=0 time=0
EXTRACT: note_on channel=9 note=38 velocity=0 time=0.026881708333333334
EXTRACT: note_on channel=9 note=39 velocity=0 time=0.010752683333333334
EXTRACT: note_on channel=8 note=78 velocity=0 time=0.010752683333333334
EXTRACT: note_on channel=3 note=69 velocity=116 time=0.026881708333333334
EXTRACT: note_on channel=0 note=57 velocity=0 time=0.059139758333333334
EXTRACT: note_on channel=0 note=62 velocity=0 time=0.016129025
EXTRACT: note_on channel=0 note=66 velocity=0 time=0.03225805
EXTRACT: note_on channel=3 note=69 velocity=0 time=0.010752683333333334
EXTRACT: note_on channel=0 note=50 velocity=100 time=0.043010733333333336
EXTRACT: note_on channel=3 note=68 velocity=108 time=0
EXTRACT: note_on channel=8 note=78 velocity=92 time=0
EXTRACT: note_on channel=8 note=81 velocity=111 time=0
EXTRACT: note_on channel=8 note=86 velocity=107 time=0
EXTRACT: note_on channel=8 note=81 velocity=0 time=0.10752683333333334
EXTRACT: note_on channel=8 note=78 velocity=0 time=0
EXTRACT: note_on channel=8 note=86 velocity=0 time=0.016129025
EXTRACT: note_on channel=4 note=62 velocity=0 time=0.15053756666666668
EXTRACT: note_on channel=0 note=50 velocity=0 time=0.005376341666666667
EXTRACT: note_on channel=1 note=26 velocity=0 time=0.03763439166666667
EXTRACT: control_change channel=0 control=64 value=0 time=0
EXTRACT: note_on channel=0 note=52 velocity=104 time=0.005376341666666667
EXTRACT: note_on channel=0 note=59 velocity=102 time=0
EXTRACT: note_on channel=0 note=64 velocity=106 time=0
EXTRACT: note_on channel=0 note=68 velocity=101 time=0
EXTRACT: note_on channel=1 note=28 velocity=120 time=0
EXTRACT: note_on channel=4 note=64 velocity=109 time=0
EXTRACT: note_on channel=8 note=80 velocity=100 time=0
EXTRACT: note_on channel=8 note=83 velocity=110 time=0
EXTRACT: note_on channel=8 note=88 velocity=95 time=0
EXTRACT: note_on channel=9 note=36 velocity=120 time=0
EXTRACT: note_on channel=8 note=83 velocity=0 time=0.09139780833333334
EXTRACT: note_on channel=8 note=80 velocity=0 time=0.005376341666666667
EXTRACT: note_on channel=9 note=36 velocity=0 time=0.026881708333333334
EXTRACT: note_on channel=8 note=88 velocity=0 time=0.005376341666666667
EXTRACT: note_on channel=3 note=68 velocity=0 time=0.08602146666666667
EXTRACT: control_change channel=0 control=64 value=127 time=0
EXTRACT: note_on channel=0 note=52 velocity=0 time=0.03763439166666667
EXTRACT: note_on channel=0 note=52 velocity=94 time=0.06989244166666667
EXTRACT: note_on channel=8 note=80 velocity=98 time=0
EXTRACT: note_on channel=8 note=83 velocity=109 time=0
EXTRACT: note_on channel=8 note=88 velocity=96 time=0
EXTRACT: note_on channel=0 note=64 velocity=0 time=0.09139780833333334
EXTRACT: note_on channel=0 note=68 velocity=0 time=0
EXTRACT: note_on channel=0 note=59 velocity=0 time=0.010752683333333334
EXTRACT: note_on channel=8 note=83 velocity=0 time=0.005376341666666667
EXTRACT: note_on channel=8 note=80 velocity=0 time=0
EXTRACT: note_on channel=8 note=88 velocity=0 time=0.021505366666666668
EXTRACT: note_on channel=9 note=36 velocity=120 time=0.03225805
EXTRACT: note_on channel=9 note=36 velocity=0 time=0.09139780833333334
EXTRACT: note_on channel=0 note=52 velocity=0 time=0.026881708333333334
EXTRACT: note_on channel=0 note=59 velocity=102 time=0.043010733333333336
EXTRACT: note_on channel=0 note=64 velocity=107 time=0
EXTRACT: note_on channel=0 note=68 velocity=101 time=0
EXTRACT: note_on channel=3 note=68 velocity=114 time=0
EXTRACT: note_on channel=8 note=80 velocity=93 time=0
EXTRACT: note_on channel=8 note=83 velocity=102 time=0
EXTRACT: note_on channel=8 note=88 velocity=79 time=0
EXTRACT: note_on channel=9 note=38 velocity=120 time=0
EXTRACT: note_on channel=9 note=39 velocity=120 time=0
EXTRACT: note_on channel=8 note=83 velocity=0 time=0.08602146666666667
EXTRACT: note_on channel=3 note=68 velocity=0 time=0
EXTRACT: note_on channel=8 note=88 velocity=0 time=0.005376341666666667
EXTRACT: note_on channel=9 note=38 velocity=0 time=0.005376341666666667
EXTRACT: note_on channel=9 note=39 velocity=0 time=0.005376341666666667
EXTRACT: note_on channel=8 note=80 velocity=0 time=0.016129025
EXTRACT: note_on channel=0 note=64 velocity=0 time=0.10215049166666668
EXTRACT: note_on channel=0 note=68 velocity=0 time=0
EXTRACT: note_on channel=0 note=59 velocity=0 time=0.005376341666666667
EXTRACT: note_on channel=0 note=52 velocity=102 time=0.09677415
EXTRACT: note_on channel=3 note=68 velocity=102 time=0
EXTRACT: note_on channel=8 note=80 velocity=98 time=0
EXTRACT: note_on channel=8 note=83 velocity=107 time=0
EXTRACT: note_on channel=8 note=88 velocity=85 time=0
EXTRACT: note_on channel=9 note=36 velocity=120 time=0
EXTRACT: note_on channel=3 note=68 velocity=0 time=0.07526878333333334
EXTRACT: note_on channel=8 note=88 velocity=0 time=0.016129025
EXTRACT: note_on channel=8 note=83 velocity=0 time=0.021505366666666668
EXTRACT: note_on channel=8 note=80 velocity=0 time=0.005376341666666667
EXTRACT: note_on channel=9 note=36 velocity=0 time=0.005376341666666667
EXTRACT: note_on channel=3 note=68 velocity=106 time=0.03763439166666667
EXTRACT: note_on channel=3 note=68 velocity=0 time=0.09139780833333334
EXTRACT: note_on channel=0 note=52 velocity=0 time=0.05376341666666667
EXTRACT: note_on channel=1 note=28 velocity=0 time=0.010752683333333334
EXTRACT: note_on channel=0 note=45 velocity=107 time=0.005376341666666667
EXTRACT: note_on channel=0 note=57 velocity=106 time=0
EXTRACT: note_on channel=0 note=61 velocity=103 time=0
EXTRACT: note_on channel=0 note=64 velocity=107 time=0
EXTRACT: note_on channel=0 note=69 velocity=107 time=0
EXTRACT: note_on channel=1 note=33 velocity=120 time=0
EXTRACT: note_on channel=3 note=68 velocity=109 time=0
EXTRACT: note_on channel=4 note=69 velocity=113 time=0
EXTRACT: note_on channel=8 note=76 velocity=100 time=0
EXTRACT: note_on channel=8 note=81 velocity=108 time=0
EXTRACT: note_on channel=8 note=85 velocity=98 time=0
EXTRACT: note_on channel=4 note=64 velocity=0 time=0.005376341666666667
EXTRACT: control_change channel=0 control=64 value=0 time=0.03763439166666667
EXTRACT: note_on channel=8 note=81 velocity=0 time=0.0645161
EXTRACT: note_on channel=8 note=76 velocity=0 time=0.005376341666666667
EXTRACT: note_on channel=8 note=85 velocity=0 time=0.03763439166666667
EXTRACT: note_on channel=3 note=68 velocity=0 time=0.07526878333333334
EXTRACT: note_on channel=0 note=45 velocity=0 time=0.043010733333333336
EXTRACT: control_change channel=0 control=64 value=127 time=0.005376341666666667
EXTRACT: note_on channel=0 note=69 velocity=0 time=0.005376341666666667
EXTRACT: note_on channel=0 note=64 velocity=0 time=0.010752683333333334
EXTRACT: note_on channel=0 note=61 velocity=0 time=0.03225805
EXTRACT: note_on channel=0 note=57 velocity=0 time=0
EXTRACT: note_on channel=0 note=52 velocity=98 time=0
EXTRACT: note_on channel=3 note=68 velocity=111 time=0
EXTRACT: note_on channel=8 note=76 velocity=97 time=0
EXTRACT: note_on channel=8 note=81 velocity=107 time=0
EXTRACT: note_on channel=8 note=85 velocity=96 time=0
EXTRACT: note_on channel=9 note=36 velocity=120 time=0
EXTRACT: note_on channel=8 note=81 velocity=0 time=0.09139780833333334
EXTRACT: note_on channel=8 note=76 velocity=0 time=0.005376341666666667
EXTRACT: note_on channel=3 note=68 velocity=0 time=0.005376341666666667
EXTRACT: note_on channel=8 note=85 velocity=0 time=0.016129025
EXTRACT: note_on channel=9 note=36 velocity=0 time=0.005376341666666667
EXTRACT: note_on channel=3 note=69 velocity=108 time=0.03763439166666667
EXTRACT: note_on channel=0 note=52 velocity=0 time=0.08602146666666667
EXTRACT: note_on channel=4 note=69 velocity=0 time=0.059139758333333334
EXTRACT: note_on channel=0 note=57 velocity=107 time=0.016129025
EXTRACT: note_on channel=0 note=61 velocity=103 time=0
EXTRACT: note_on channel=0 note=64 velocity=106 time=0
EXTRACT: note_on channel=0 note=69 velocity=105 time=0
EXTRACT: note_on channel=4 note=68 velocity=101 time=0
EXTRACT: note_on channel=8 note=76 velocity=99 time=0
EXTRACT: note_on channel=8 note=81 velocity=107 time=0
EXTRACT: note_on channel=8 note=85 velocity=98 time=0
EXTRACT: note_on channel=9 note=38 velocity=120 time=0
EXTRACT: note_on channel=9 note=39 velocity=120 time=0
EXTRACT: note_on channel=3 note=69 velocity=0 time=0.07526878333333334
EXTRACT: note_on channel=8 note=76 velocity=0 time=0.021505366666666668
EXTRACT: note_on channel=8 note=81 velocity=0 time=0.005376341666666667
EXTRACT: note_on channel=9 note=38 velocity=0 time=0
EXTRACT: note_on channel=9 note=39 velocity=0 time=0
EXTRACT: note_on channel=8 note=85 velocity=0 time=0.016129025
EXTRACT: note_on channel=3 note=71 velocity=106 time=0.043010733333333336
EXTRACT: note_on channel=0 note=64 velocity=0 time=0.13978488333333333
EXTRACT: note_on channel=0 note=69 velocity=0 time=0.021505366666666668
EXTRACT: note_on channel=0 note=52 velocity=96 time=0
EXTRACT: note_on channel=8 note=76 velocity=99 time=0
EXTRACT: note_on channel=8 note=81 velocity=109 time=0
EXTRACT: note_on channel=8 note=85 velocity=100 time=0
EXTRACT: note_on channel=0 note=61 velocity=0 time=0.016129025
EXTRACT: note_on channel=0 note=57 velocity=0 time=0
EXTRACT: note_on channel=3 note=71 velocity=0 time=0.059139758333333334
EXTRACT: note_on channel=8 note=76 velocity=0 time=0.021505366666666668
EXTRACT: note_on channel=8 note=81 velocity=0 time=0.005376341666666667
EXTRACT: note_on channel=8 note=85 velocity=0 time=0.026881708333333334
EXTRACT: note_on channel=3 note=73 velocity=116 time=0.03225805
EXTRACT: note_on channel=0 note=52 velocity=0 time=0.11290317500000001
EXTRACT: note_on channel=4 note=68 velocity=0 time=0.03763439166666667
EXTRACT: note_on channel=1 note=33 velocity=0 time=0.005376341666666667
EXTRACT: control_change channel=0 control=64 value=0 time=0.005376341666666667
EXTRACT: note_on channel=0 note=57 velocity=108 time=0
EXTRACT: note_on channel=0 note=61 velocity=106 time=0
EXTRACT: note_on channel=0 note=66 velocity=106 time=0
EXTRACT: note_on channel=1 note=30 velocity=120 time=0
EXTRACT: note_on channel=4 note=66 velocity=107 time=0
EXTRACT: note_on channel=8 note=78 velocity=94 time=0
EXTRACT: note_on channel=8 note=81 velocity=110 time=0
EXTRACT: note_on channel=8 note=85 velocity=101 time=0
EXTRACT: note_on channel=9 note=36 velocity=120 time=0
EXTRACT: note_on channel=3 note=73 velocity=0 time=0.03225805
EXTRACT: note_on channel=8 note=81 velocity=0 time=0.080645125
EXTRACT: note_on channel=8 note=78 velocity=0 time=0.005376341666666667
EXTRACT: note_on channel=8 note=85 velocity=0 time=0.026881708333333334
EXTRACT: note_on channel=9 note=36 velocity=0 time=0
EXTRACT: note_on channel=3 note=69 velocity=112 time=0.016129025
EXTRACT: control_change channel=0 control=64 value=127 time=0.059139758333333334
EXTRACT: note_on channel=0 note=54 velocity=79 time=0.10215049166666668
EXTRACT: note_on channel=8 note=78 velocity=94 time=0
EXTRACT: note_on channel=8 note=81 velocity=106 time=0
EXTRACT: note_on channel=8 note=85 velocity=97 time=0
EXTRACT: note_on channel=3 note=69 velocity=0 time=0.021505366666666668
EXTRACT: note_on channel=0 note=66 velocity=0 time=0.005376341666666667
EXTRACT: note_on channel=0 note=57 velocity=0 time=0.005376341666666667
EXTRACT: note_on channel=0 note=61 velocity=0 time=0.010752683333333334
EXTRACT: note_on channel=8 note=81 velocity=0 time=0.07526878333333334
EXTRACT: note_on channel=8 note=78 velocity=0 time=0.005376341666666667
EXTRACT: note_on channel=8 note=85 velocity=0 time=0.026881708333333334
EXTRACT: note_on channel=3 note=66 velocity=119 time=0.010752683333333334
EXTRACT: note_on channel=9 note=36 velocity=120 time=0
EXTRACT: note_on channel=9 note=36 velocity=0 time=0.11827951666666667
EXTRACT: note_on channel=0 note=54 velocity=0 time=0.026881708333333334
EXTRACT: note_on channel=0 note=57 velocity=105 time=0.016129025
EXTRACT: note_on channel=0 note=61 velocity=97 time=0
EXTRACT: note_on channel=0 note=66 velocity=100 time=0
EXTRACT: note_on channel=8 note=78 velocity=91 time=0
EXTRACT: note_on channel=8 note=81 velocity=107 time=0
EXTRACT: note_on channel=8 note=85 velocity=98 time=0
EXTRACT: note_on channel=9 note=38 velocity=120 time=0
EXTRACT: note_on channel=9 note=39 velocity=120 time=0
EXTRACT: note_on channel=9 note=38 velocity=0 time=0.11290317500000001
EXTRACT: note_on channel=8 note=81 velocity=0 time=0.005376341666666667
EXTRACT: note_on channel=8 note=78 velocity=0 time=0.005376341666666667
EXTRACT: note_on channel=9 note=39 velocity=0 time=0.005376341666666667
EXTRACT: note_on channel=8 note=85 velocity=0 time=0.016129025
EXTRACT: note_on channel=3 note=66 velocity=0 time=0.11827951666666667
EXTRACT: note_on channel=0 note=57 velocity=0 time=0.048387075
EXTRACT: note_on channel=0 note=66 velocity=0 time=0
EXTRACT: note_on channel=0 note=61 velocity=0 time=0.010752683333333334
EXTRACT: note_on channel=0 note=54 velocity=87 time=0
EXTRACT: note_on channel=8 note=78 velocity=87 time=0
EXTRACT: note_on channel=8 note=81 velocity=104 time=0
EXTRACT: note_on channel=8 note=85 velocity=97 time=0
EXTRACT: note_on channel=9 note=36 velocity=120 time=0
EXTRACT: note_on channel=8 note=81 velocity=0 time=0.11827951666666667
EXTRACT: note_on channel=8 note=78 velocity=0 time=0.005376341666666667
EXTRACT: note_on channel=8 note=85 velocity=0 time=0.016129025
EXTRACT: note_on channel=9 note=36 velocity=0 time=0.010752683333333334
EXTRACT: note_on channel=0 note=54 velocity=0 time=0.15053756666666668
EXTRACT: note_on channel=0 note=57 velocity=99 time=0.021505366666666668
EXTRACT: note_on channel=0 note=61 velocity=98 time=0
EXTRACT: note_on channel=0 note=66 velocity=100 time=0
EXTRACT: note_on channel=8 note=78 velocity=93 time=0
EXTRACT: note_on channel=8 note=81 velocity=109 time=0
EXTRACT: note_on channel=8 note=85 velocity=96 time=0
EXTRACT: note_on channel=8 note=81 velocity=0 time=0.11290317500000001
EXTRACT: note_on channel=8 note=78 velocity=0 time=0
EXTRACT: note_on channel=8 note=85 velocity=0 time=0.010752683333333334
EXTRACT: note_on channel=0 note=61 velocity=0 time=0.1827956166666667
EXTRACT: note_on channel=0 note=66 velocity=0 time=0
EXTRACT: note_on channel=0 note=54 velocity=82 time=0.016129025
EXTRACT: note_on channel=8 note=78 velocity=94 time=0
EXTRACT: note_on channel=8 note=81 velocity=109 time=0
EXTRACT: note_on channel=8 note=85 velocity=97 time=0
EXTRACT: note_on channel=9 note=36 velocity=120 time=0
EXTRACT: note_on channel=0 note=57 velocity=0 time=0.016129025
EXTRACT: note_on channel=8 note=81 velocity=0 time=0.09139780833333334
EXTRACT: note_on channel=8 note=78 velocity=0 time=0.016129025
EXTRACT: note_on channel=8 note=85 velocity=0 time=0
EXTRACT: note_on channel=9 note=36 velocity=0 time=0.005376341666666667
EXTRACT: note_on channel=3 note=66 velocity=99 time=0.03225805
EXTRACT: note_on channel=3 note=66 velocity=0 time=0.10752683333333334
EXTRACT: note_on channel=0 note=54 velocity=0 time=0.005376341666666667
EXTRACT: note_on channel=0 note=57 velocity=104 time=0.048387075
EXTRACT: note_on channel=0 note=61 velocity=104 time=0
EXTRACT: note_on channel=0 note=66 velocity=104 time=0
EXTRACT: note_on channel=3 note=71 velocity=115 time=0
EXTRACT: note_on channel=8 note=78 velocity=93 time=0
EXTRACT: note_on channel=8 note=81 velocity=110 time=0
EXTRACT: note_on channel=8 note=85 velocity=98 time=0
EXTRACT: note_on channel=9 note=38 velocity=120 time=0
EXTRACT: note_on channel=9 note=39 velocity=120 time=0
EXTRACT: note_on channel=9 note=38 velocity=0 time=0.11827951666666667
EXTRACT: note_on channel=8 note=81 velocity=0 time=0.005376341666666667
EXTRACT: note_on channel=9 note=39 velocity=0 time=0.005376341666666667
EXTRACT: note_on channel=8 note=78 velocity=0 time=0.005376341666666667
EXTRACT: note_on channel=8 note=85 velocity=0 time=0.005376341666666667
EXTRACT: note_on channel=0 note=66 velocity=0 time=0.05376341666666667
EXTRACT: note_on channel=0 note=57 velocity=0 time=0.010752683333333334
EXTRACT: note_on channel=0 note=61 velocity=0 time=0.005376341666666667
EXTRACT: note_on channel=3 note=71 velocity=0 time=0.05376341666666667
EXTRACT: note_on channel=1 note=30 velocity=0 time=0.05376341666666667
EXTRACT: note_on channel=0 note=54 velocity=94 time=0.005376341666666667
EXTRACT: note_on channel=1 note=26 velocity=120 time=0
EXTRACT: note_on channel=3 note=69 velocity=115 time=0
EXTRACT: note_on channel=4 note=64 velocity=106 time=0
EXTRACT: note_on channel=8 note=78 velocity=94 time=0
EXTRACT: note_on channel=8 note=81 velocity=109 time=0
EXTRACT: note_on channel=8 note=85 velocity=99 time=0
EXTRACT: note_on channel=4 note=66 velocity=0 time=0.03763439166666667
EXTRACT: note_on channel=3 note=69 velocity=0 time=0.07526878333333334
EXTRACT: note_on channel=8 note=78 velocity=0 time=0.026881708333333334
EXTRACT: note_on channel=8 note=81 velocity=0 time=0
EXTRACT: note_on channel=4 note=64 velocity=0 time=0.016129025
EXTRACT: note_on channel=8 note=85 velocity=0 time=0
EXTRACT: note_on channel=3 note=71 velocity=116 time=0.005376341666666667
EXTRACT: note_on channel=4 note=62 velocity=102 time=0
EXTRACT: note_on channel=4 note=62 velocity=0 time=0.145161225
EXTRACT: control_change channel=0 control=64 value=0 time=0
EXTRACT: note_on channel=1 note=26 velocity=0 time=0.010752683333333334
EXTRACT: note_on channel=0 note=56 velocity=101 time=0.005376341666666667
EXTRACT: note_on channel=0 note=61 velocity=103 time=0
EXTRACT: note_on channel=0 note=64 velocity=111 time=0
EXTRACT: note_on channel=1 note=25 velocity=120 time=0
EXTRACT: note_on channel=4 note=61 velocity=112 time=0
EXTRACT: note_on channel=8 note=76 velocity=100 time=0
EXTRACT: note_on channel=8 note=80 velocity=103 time=0
EXTRACT: note_on channel=8 note=85 velocity=100 time=0
EXTRACT: note_on channel=9 note=36 velocity=120 time=0
EXTRACT: note_on channel=0 note=54 velocity=0 time=0.026881708333333334
EXTRACT: note_on channel=3 note=71 velocity=0 time=0.010752683333333334
EXTRACT: note_on channel=8 note=76 velocity=0 time=0.06989244166666667
EXTRACT: note_on channel=8 note=80 velocity=0 time=0.010752683333333334
EXTRACT: note_on channel=8 note=85 velocity=0 time=0.005376341666666667
EXTRACT: note_on channel=9 note=36 velocity=0 time=0.021505366666666668
EXTRACT: note_on channel=3 note=68 velocity=111 time=0.016129025
EXTRACT: control_change channel=0 control=64 value=127 time=0.05376341666666667
EXTRACT: note_on channel=0 note=64 velocity=0 time=0.07526878333333334
EXTRACT: note_on channel=0 note=49 velocity=82 time=0.03225805
EXTRACT: note_on channel=8 note=76 velocity=100 time=0
EXTRACT: note_on channel=8 note=80 velocity=99 time=0
EXTRACT: note_on channel=8 note=85 velocity=97 time=0
EXTRACT: note_on channel=0 note=61 velocity=0 time=0.005376341666666667
EXTRACT: note_on channel=0 note=56 velocity=0 time=0.021505366666666668
EXTRACT: note_on channel=3 note=68 velocity=0 time=0.03763439166666667
EXTRACT: note_on channel=8 note=76 velocity=0 time=0.043010733333333336
EXTRACT: note_on channel=8 note=85 velocity=0 time=0.016129025
EXTRACT: note_on channel=8 note=80 velocity=0 time=0
EXTRACT: note_on channel=3 note=64 velocity=109 time=0.03763439166666667
EXTRACT: note_on channel=9 note=36 velocity=120 time=0
EXTRACT: note_on channel=9 note=36 velocity=0 time=0.09677415
EXTRACT: note_on channel=0 note=49 velocity=0 time=0
EXTRACT: note_on channel=0 note=56 velocity=97 time=0.0645161
EXTRACT: note_on channel=0 note=61 velocity=96 time=0
EXTRACT: note_on channel=0 note=64 velocity=107 time=0
EXTRACT: note_on channel=8 note=76 velocity=100 time=0
EXTRACT: note_on channel=8 note=80 velocity=103 time=0
EXTRACT: note_on channel=8 note=85 velocity=101 time=0
EXTRACT: note_on channel=9 note=38 velocity=120 time=0
EXTRACT: note_on channel=9 note=39 velocity=120 time=0
EXTRACT: note_on channel=9 note=38 velocity=0 time=0.10752683333333334
EXTRACT: note_on channel=9 note=39 velocity=0 time=0.005376341666666667
EXTRACT: note_on channel=8 note=80 velocity=0 time=0
EXTRACT: note_on channel=8 note=76 velocity=0 time=0.005376341666666667
EXTRACT: note_on channel=8 note=85 velocity=0 time=0.016129025
EXTRACT: note_on channel=0 note=64 velocity=0 time=0.09139780833333334
EXTRACT: note_on channel=0 note=56 velocity=0 time=0.048387075
EXTRACT: note_on channel=0 note=61 velocity=0 time=0.016129025
EXTRACT: note_on channel=0 note=49 velocity=106 time=0.03225805
EXTRACT: note_on channel=8 note=76 velocity=98 time=0
EXTRACT: note_on channel=8 note=80 velocity=97 time=0
EXTRACT: note_on channel=8 note=85 velocity=97 time=0
EXTRACT: note_on channel=9 note=36 velocity=120 time=0
EXTRACT: note_on channel=8 note=76 velocity=0 time=0.10215049166666668
EXTRACT: note_on channel=8 note=80 velocity=0 time=0.016129025
EXTRACT: note_on channel=9 note=36 velocity=0 time=0.010752683333333334
EXTRACT: note_on channel=8 note=85 velocity=0 time=0
EXTRACT: note_on channel=0 note=49 velocity=0 time=0.11290317500000001
EXTRACT: note_on channel=0 note=56 velocity=91 time=0.080645125
EXTRACT: note_on channel=0 note=61 velocity=99 time=0
EXTRACT: note_on channel=0 note=64 velocity=109 time=0
EXTRACT: note_on channel=8 note=76 velocity=97 time=0
EXTRACT: note_on channel=8 note=80 velocity=101 time=0
EXTRACT: note_on channel=8 note=85 velocity=98 time=0
EXTRACT: note_on channel=8 note=76 velocity=0 time=0.10752683333333334
EXTRACT: note_on channel=8 note=85 velocity=0 time=0.016129025
EXTRACT: note_on channel=8 note=80 velocity=0 time=0
EXTRACT: note_on channel=0 note=64 velocity=0 time=0.10215049166666668
EXTRACT: note_on channel=0 note=61 velocity=0 time=0.03763439166666667
EXTRACT: note_on channel=3 note=64 velocity=0 time=0.021505366666666668
EXTRACT: note_on channel=0 note=56 velocity=0 time=0.010752683333333334
EXTRACT: note_on channel=0 note=49 velocity=92 time=0.026881708333333334
EXTRACT: note_on channel=8 note=76 velocity=97 time=0
EXTRACT: note_on channel=8 note=80 velocity=100 time=0
EXTRACT: note_on channel=8 note=85 velocity=98 time=0
EXTRACT: note_on channel=9 note=36 velocity=120 time=0
EXTRACT: note_on channel=9 note=36 velocity=0 time=0.11827951666666667
EXTRACT: note_on channel=8 note=76 velocity=0 time=0
EXTRACT: note_on channel=8 note=80 velocity=0 time=0.021505366666666668
EXTRACT: note_on channel=8 note=85 velocity=0 time=0
EXTRACT: note_on channel=3 note=61 velocity=111 time=0.021505366666666668
EXTRACT: note_on channel=4 note=61 velocity=0 time=0.059139758333333334
EXTRACT: note_on channel=3 note=61 velocity=0 time=0.016129025
EXTRACT: note_on channel=0 note=49 velocity=0 time=0.005376341666666667
EXTRACT: note_on channel=0 note=56 velocity=97 time=0.080645125
EXTRACT: note_on channel=0 note=61 velocity=100 time=0
EXTRACT: note_on channel=0 note=64 velocity=107 time=0
EXTRACT: note_on channel=3 note=68 velocity=114 time=0
EXTRACT: note_on channel=8 note=76 velocity=99 time=0
EXTRACT: note_on channel=8 note=80 velocity=102 time=0
EXTRACT: note_on channel=8 note=85 velocity=97 time=0
EXTRACT: note_on channel=9 note=38 velocity=120 time=0
EXTRACT: note_on channel=9 note=39 velocity=120 time=0
EXTRACT: note_on channel=3 note=68 velocity=0 time=0.08602146666666667
EXTRACT: note_on channel=9 note=38 velocity=0 time=0.016129025
EXTRACT: note_on channel=9 note=39 velocity=0 time=0.010752683333333334
EXTRACT: note_on channel=8 note=80 velocity=0 time=0.016129025
EXTRACT: note_on channel=8 note=76 velocity=0 time=0
EXTRACT: note_on channel=8 note=85 velocity=0 time=0.016129025
EXTRACT: note_on channel=3 note=68 velocity=108 time=0.016129025
EXTRACT: note_on channel=3 note=68 velocity=0 time=0.10215049166666668
EXTRACT: note_on channel=0 note=64 velocity=0 time=0.010752683333333334
EXTRACT: note_on channel=0 note=56 velocity=0 time=0.021505366666666668
EXTRACT: note_on channel=0 note=61 velocity=0 time=0.010752683333333334
EXTRACT: note_on channel=0 note=49 velocity=95 time=0.016129025
EXTRACT: note_on channel=3 note=69 velocity=109 time=0
EXTRACT: note_on channel=8 note=76 velocity=98 time=0
EXTRACT: note_on channel=8 note=80 velocity=103 time=0
EXTRACT: note_on channel=8 note=85 velocity=95 time=0
EXTRACT: note_on channel=3 note=69 velocity=0 time=0.11290317500000001
EXTRACT: note_on channel=8 note=76 velocity=0 time=0.010752683333333334
EXTRACT: note_on channel=8 note=80 velocity=0 time=0.010752683333333334
EXTRACT: note_on channel=0 note=49 velocity=0 time=0
EXTRACT: note_on channel=8 note=85 velocity=0 time=0.016129025
EXTRACT: note_on channel=3 note=71 velocity=116 time=0.010752683333333334
EXTRACT: note_on channel=3 note=71 velocity=0 time=0.13978488333333333
EXTRACT: note_on channel=1 note=25 velocity=0 time=0.016129025
EXTRACT: note_on channel=0 note=57 velocity=104 time=0.005376341666666667
EXTRACT: note_on channel=0 note=62 velocity=112 time=0
EXTRACT: note_on channel=0 note=66 velocity=100 time=0
EXTRACT: note_on channel=1 note=26 velocity=120 time=0
EXTRACT: note_on channel=3 note=73 velocity=116 time=0
EXTRACT: note_on channel=4 note=62 velocity=116 time=0
EXTRACT: note_on channel=8 note=78 velocity=95 time=0
EXTRACT: note_on channel=8 note=81 velocity=109 time=0
EXTRACT: note_on channel=8 note=86 velocity=102 time=0
EXTRACT: note_on channel=9 note=36 velocity=120 time=0
EXTRACT: control_change channel=0 control=64 value=0 time=0.03225805
EXTRACT: note_on channel=8 note=81 velocity=0 time=0.09139780833333334
EXTRACT: note_on channel=8 note=86 velocity=0 time=0.005376341666666667
EXTRACT: note_on channel=8 note=78 velocity=0 time=0
EXTRACT: note_on channel=9 note=36 velocity=0 time=0.005376341666666667
EXTRACT: control_change channel=0 control=64 value=127 time=0.06989244166666667
EXTRACT: note_on channel=3 note=73 velocity=0 time=0.03763439166666667
EXTRACT: note_on channel=0 note=50 velocity=99 time=0.080645125
EXTRACT: note_on channel=3 note=71 velocity=109 time=0
EXTRACT: note_on channel=8 note=78 velocity=94 time=0
EXTRACT: note_on channel=8 note=81 velocity=107 time=0
EXTRACT: note_on channel=8 note=86 velocity=102 time=0
EXTRACT: note_on channel=0 note=57 velocity=0 time=0.048387075
EXTRACT: note_on channel=0 note=66 velocity=0 time=0
EXTRACT: note_on channel=0 note=62 velocity=0 time=0
EXTRACT: note_on channel=8 note=78 velocity=0 time=0.059139758333333334
EXTRACT: note_on channel=8 note=81 velocity=0 time=0.026881708333333334
EXTRACT: note_on channel=8 note=86 velocity=0 time=0.005376341666666667
EXTRACT: note_on channel=9 note=36 velocity=120 time=0.021505366666666668
EXTRACT: note_on channel=0 note=50 velocity=0 time=0.08602146666666667
EXTRACT: note_on channel=9 note=36 velocity=0 time=0.005376341666666667
EXTRACT: note_on channel=3 note=71 velocity=0 time=0.021505366666666668
EXTRACT: note_on channel=0 note=57 velocity=104 time=0.048387075
EXTRACT: note_on channel=0 note=62 velocity=110 time=0
EXTRACT: note_on channel=0 note=66 velocity=98 time=0
EXTRACT: note_on channel=3 note=69 velocity=110 time=0
EXTRACT: note_on channel=8 note=78 velocity=93 time=0
EXTRACT: note_on channel=8 note=81 velocity=107 time=0
EXTRACT: note_on channel=8 note=86 velocity=104 time=0
EXTRACT: note_on channel=9 note=38 velocity=120 time=0
EXTRACT: note_on channel=9 note=39 velocity=120 time=0
EXTRACT: note_on channel=9 note=38 velocity=0 time=0.12365585833333334
EXTRACT: note_on channel=8 note=81 velocity=0 time=0
EXTRACT: note_on channel=8 note=78 velocity=0 time=0
EXTRACT: note_on channel=9 note=39 velocity=0 time=0.005376341666666667
EXTRACT: note_on channel=8 note=86 velocity=0 time=0.010752683333333334
EXTRACT: note_on channel=3 note=69 velocity=0 time=0.1344085416666667
EXTRACT: note_on channel=0 note=50 velocity=98 time=0.048387075
EXTRACT: note_on channel=3 note=66 velocity=114 time=0
EXTRACT: note_on channel=8 note=78 velocity=93 time=0
EXTRACT: note_on channel=8 note=81 velocity=109 time=0
EXTRACT: note_on channel=8 note=86 velocity=104 time=0
EXTRACT: note_on channel=9 note=36 velocity=120 time=0
EXTRACT: note_on channel=0 note=62 velocity=0 time=0.03225805
EXTRACT: note_on channel=0 note=66 velocity=0 time=0.016129025
EXTRACT: note_on channel=0 note=57 velocity=0 time=0.016129025
EXTRACT: note_on channel=8 note=81 velocity=0 time=0.043010733333333336
EXTRACT: note_on channel=8 note=86 velocity=0 time=0.005376341666666667
EXTRACT: note_on channel=8 note=78 velocity=0 time=0.010752683333333334
EXTRACT: note_on channel=9 note=36 velocity=0 time=0.016129025
EXTRACT: note_on channel=4 note=62 velocity=0 time=0.11827951666666667
EXTRACT: note_on channel=3 note=66 velocity=0 time=0.03763439166666667
EXTRACT: note_on channel=1 note=26 velocity=0 time=0.021505366666666668
EXTRACT: note_on channel=0 note=57 velocity=105 time=0.005376341666666667
EXTRACT: note_on channel=0 note=61 velocity=100 time=0
EXTRACT: note_on channel=0 note=64 velocity=105 time=0
EXTRACT: note_on channel=1 note=33 velocity=120 time=0
EXTRACT: note_on channel=3 note=73 velocity=108 time=0
EXTRACT: note_on channel=4 note=61 velocity=116 time=0
EXTRACT: note_on channel=8 note=76 velocity=97 time=0
EXTRACT: note_on channel=8 note=81 velocity=109 time=0
EXTRACT: note_on channel=8 note=85 velocity=100 time=0
EXTRACT: control_change channel=0 control=64 value=0 time=0.021505366666666668
EXTRACT: note_on channel=0 note=50 velocity=0 time=0.005376341666666667
EXTRACT: note_on channel=8 note=81 velocity=0 time=0.059139758333333334
EXTRACT: note_on channel=8 note=85 velocity=0 time=0.005376341666666667
EXTRACT: note_on channel=8 note=76 velocity=0 time=0.016129025
EXTRACT: control_change channel=0 control=64 value=127 time=0.16666659166666667
EXTRACT: note_on channel=3 note=73 velocity=0 time=0.03225805
EXTRACT: note_on channel=0 note=45 velocity=100 time=0.016129025
EXTRACT: note_on channel=3 note=71 velocity=115 time=0
EXTRACT: note_on channel=8 note=76 velocity=96 time=0
EXTRACT: note_on channel=8 note=81 velocity=107 time=0
EXTRACT: note_on channel=8 note=85 velocity=96 time=0
EXTRACT: note_on channel=9 note=36 velocity=120 time=0
EXTRACT: note_on channel=0 note=57 velocity=0 time=0.059139758333333334
EXTRACT: note_on channel=0 note=64 velocity=0 time=0
EXTRACT: note_on channel=0 note=61 velocity=0 time=0.016129025
EXTRACT: note_on channel=8 note=81 velocity=0 time=0.016129025
EXTRACT: note_on channel=9 note=36 velocity=0 time=0.026881708333333334
EXTRACT: note_on channel=8 note=85 velocity=0 time=0.005376341666666667
EXTRACT: note_on channel=8 note=76 velocity=0 time=0
EXTRACT: note_on channel=3 note=71 velocity=0 time=0.145161225
EXTRACT: note_on channel=0 note=45 velocity=0 time=0.048387075
EXTRACT: note_on channel=0 note=57 velocity=96 time=0.005376341666666667
EXTRACT: note_on channel=0 note=61 velocity=95 time=0
EXTRACT: note_on channel=0 note=64 velocity=102 time=0
EXTRACT: note_on channel=3 note=71 velocity=115 time=0
EXTRACT: note_on channel=8 note=76 velocity=100 time=0
EXTRACT: note_on channel=8 note=81 velocity=109 time=0
EXTRACT: note_on channel=8 note=85 velocity=98 time=0
EXTRACT: note_on channel=9 note=38 velocity=120 time=0
EXTRACT: note_on channel=9 note=39 velocity=120 time=0
EXTRACT: note_on channel=8 note=81 velocity=0 time=0.07526878333333334
EXTRACT: note_on channel=8 note=85 velocity=0 time=0.021505366666666668
EXTRACT: note_on channel=8 note=76 velocity=0 time=0.005376341666666667
EXTRACT: note_on channel=9 note=38 velocity=0 time=0.010752683333333334
EXTRACT: note_on channel=9 note=39 velocity=0 time=0.010752683333333334
EXTRACT: note_on channel=0 note=64 velocity=0 time=0.18817195833333333
EXTRACT: note_on channel=0 note=61 velocity=0 time=0.005376341666666667
EXTRACT: note_on channel=0 note=45 velocity=97 time=0.005376341666666667
EXTRACT: note_on channel=3 note=66 velocity=114 time=0
EXTRACT: note_on channel=8 note=76 velocity=98 time=0
EXTRACT: note_on channel=8 note=81 velocity=109 time=0
EXTRACT: note_on channel=8 note=85 velocity=87 time=0
EXTRACT: note_on channel=0 note=57 velocity=0 time=0.005376341666666667
EXTRACT: note_on channel=3 note=71 velocity=0 time=0.005376341666666667
EXTRACT: note_on channel=8 note=81 velocity=0 time=0.07526878333333334
EXTRACT: note_on channel=8 note=76 velocity=0 time=0.016129025
EXTRACT: note_on channel=8 note=85 velocity=0 time=0.005376341666666667
EXTRACT: note_on channel=4 note=61 velocity=0 time=0.19892464166666668
EXTRACT: note_on channel=1 note=33 velocity=0 time=0.010752683333333334
EXTRACT: note_on channel=0 note=57 velocity=104 time=0.005376341666666667
EXTRACT: note_on channel=0 note=62 velocity=112 time=0
EXTRACT: note_on channel=0 note=66 velocity=100 time=0
EXTRACT: note_on channel=4 note=62 velocity=110 time=0
EXTRACT: note_on channel=8 note=78 velocity=88 time=0
EXTRACT: note_on channel=8 note=81 velocity=109 time=0
EXTRACT: note_on channel=8 note=86 velocity=102 time=0
EXTRACT: note_on channel=0 note=45 velocity=0 time=0.048387075
EXTRACT: control_change channel=0 control=64 value=0 time=0.005376341666666667
EXTRACT: note_on channel=8 note=81 velocity=0 time=0.026881708333333334
EXTRACT: note_on channel=8 note=86 velocity=0 time=0.016129025
EXTRACT: note_on channel=8 note=78 velocity=0 time=0
EXTRACT: control_change channel=0 control=64 value=127 time=0.1935483
EXTRACT: note_on channel=0 note=50 velocity=98 time=0.03225805
EXTRACT: note_on channel=8 note=78 velocity=94 time=0
EXTRACT: note_on channel=8 note=81 velocity=108 time=0
EXTRACT: note_on channel=8 note=86 velocity=104 time=0
EXTRACT: note_on channel=0 note=57 velocity=0 time=0.07526878333333334
EXTRACT: note_on channel=0 note=62 velocity=0 time=0.005376341666666667
EXTRACT: note_on channel=8 note=81 velocity=0 time=0.005376341666666667
EXTRACT: note_on channel=3 note=66 velocity=0 time=0
EXTRACT: note_on channel=0 note=66 velocity=0 time=0
EXTRACT: note_on channel=8 note=78 velocity=0 time=0.010752683333333334
EXTRACT: note_on channel=8 note=86 velocity=0 time=0.010752683333333334
EXTRACT: note_on channel=0 note=50 velocity=0 time=0.21505366666666667
EXTRACT: note_on channel=0 note=57 velocity=98 time=0
EXTRACT: note_on channel=0 note=62 velocity=106 time=0
EXTRACT: note_on channel=0 note=66 velocity=88 time=0
EXTRACT: note_on channel=3 note=73 velocity=114 time=0
EXTRACT: note_on channel=8 note=78 velocity=99 time=0
EXTRACT: note_on channel=8 note=81 velocity=108 time=0
EXTRACT: note_on channel=8 note=86 velocity=104 time=0
EXTRACT: note_on channel=8 note=81 velocity=0 time=0.0645161
EXTRACT: note_on channel=8 note=78 velocity=0 time=0.026881708333333334
EXTRACT: note_on channel=8 note=86 velocity=0 time=0.021505366666666668
EXTRACT: note_on channel=0 note=57 velocity=0 time=0.15591390833333335
EXTRACT: note_on channel=0 note=62 velocity=0 time=0.010752683333333334
EXTRACT: note_on channel=0 note=66 velocity=0 time=0.021505366666666668
EXTRACT: note_on channel=0 note=50 velocity=91 time=0.021505366666666668
EXTRACT: note_on channel=8 note=78 velocity=97 time=0
EXTRACT: note_on channel=8 note=81 velocity=106 time=0
EXTRACT: note_on channel=8 note=86 velocity=108 time=0
EXTRACT: note_on channel=3 note=73 velocity=0 time=0.021505366666666668
EXTRACT: note_on channel=8 note=81 velocity=0 time=0.059139758333333334
EXTRACT: note_on channel=8 note=78 velocity=0 time=0.010752683333333334
EXTRACT: note_on channel=8 note=86 velocity=0 time=0.016129025
EXTRACT: note_on channel=0 note=50 velocity=0 time=0.17204293333333334
EXTRACT: note_on channel=0 note=59 velocity=105 time=0.043010733333333336
EXTRACT: note_on channel=0 note=64 velocity=107 time=0
EXTRACT: note_on channel=0 note=68 velocity=100 time=0
EXTRACT: control_change channel=0 control=64 value=0 time=0
EXTRACT: note_on channel=3 note=73 velocity=119 time=0
EXTRACT: note_on channel=4 note=64 velocity=106 time=0
EXTRACT: note_on channel=8 note=80 velocity=99 time=0
EXTRACT: note_on channel=8 note=83 velocity=108 time=0
EXTRACT: note_on channel=8 note=88 velocity=96 time=0
EXTRACT: note_on channel=4 note=62 velocity=0 time=0.0645161
EXTRACT: note_on channel=8 note=80 velocity=0 time=0.016129025
EXTRACT: note_on channel=8 note=83 velocity=0 time=0.010752683333333334
EXTRACT: note_on channel=8 note=88 velocity=0 time=0.03225805
EXTRACT: control_change channel=0 control=64 value=127 time=0.11290317500000001
EXTRACT: note_on channel=3 note=73 velocity=0 time=0.05376341666666667
EXTRACT: note_on channel=0 note=52 velocity=97 time=0.03225805
EXTRACT: note_on channel=3 note=71 velocity=109 time=0
EXTRACT: note_on channel=8 note=80 velocity=93 time=0
EXTRACT: note_on channel=8 note=83 velocity=107 time=0
EXTRACT: note_on channel=8 note=88 velocity=84 time=0
EXTRACT: note_on channel=0 note=68 velocity=0 time=0.021505366666666668
EXTRACT: note_on channel=0 note=64 velocity=0 time=0
EXTRACT: note_on channel=0 note=59 velocity=0 time=0.010752683333333334
EXTRACT: note_on channel=8 note=83 velocity=0 time=0.05376341666666667
EXTRACT: note_on channel=8 note=80 velocity=0 time=0.010752683333333334
EXTRACT: note_on channel=8 note=88 velocity=0 time=0.016129025
EXTRACT: note_on channel=3 note=71 velocity=0 time=0.1290322
EXTRACT: note_on channel=0 note=52 velocity=0 time=0.05376341666666667
EXTRACT: note_on channel=0 note=59 velocity=97 time=0.026881708333333334
EXTRACT: note_on channel=0 note=64 velocity=104 time=0
EXTRACT: note_on channel=0 note=68 velocity=98 time=0
EXTRACT: note_on channel=3 note=69 velocity=116 time=0
EXTRACT: note_on channel=8 note=80 velocity=94 time=0
EXTRACT: note_on channel=8 note=83 velocity=105 time=0
EXTRACT: note_on channel=8 note=88 velocity=87 time=0
EXTRACT: note_on channel=8 note=80 velocity=0 time=0.080645125
EXTRACT: note_on channel=8 note=83 velocity=0 time=0.005376341666666667
EXTRACT: note_on channel=8 note=88 velocity=0 time=0.03763439166666667
EXTRACT: note_on channel=3 note=69 velocity=0 time=0.08602146666666667
EXTRACT: note_on channel=0 note=64 velocity=0 time=0.043010733333333336
EXTRACT: note_on channel=0 note=59 velocity=0 time=0
EXTRACT: note_on channel=0 note=68 velocity=0 time=0.016129025
EXTRACT: note_on channel=0 note=52 velocity=99 time=0.05376341666666667
EXTRACT: note_on channel=3 note=73 velocity=112 time=0
EXTRACT: note_on channel=8 note=80 velocity=93 time=0
EXTRACT: note_on channel=8 note=83 velocity=103 time=0
EXTRACT: note_on channel=8 note=88 velocity=95 time=0
EXTRACT: note_on channel=8 note=83 velocity=0 time=0.09139780833333334
EXTRACT: note_on channel=0 note=52 velocity=0 time=0
EXTRACT: note_on channel=8 note=80 velocity=0 time=0.016129025
EXTRACT: note_on channel=8 note=88 velocity=0 time=0.005376341666666667
EXTRACT: note_on channel=4 note=64 velocity=0 time=0.10752683333333334
EXTRACT: note_on channel=3 note=73 velocity=0 time=0.03225805
EXTRACT: control_change channel=0 control=64 value=0 time=0.005376341666666667
EXTRACT: note_on channel=0 note=61 velocity=102 time=0.0645161
EXTRACT: note_on channel=0 note=64 velocity=111 time=0
EXTRACT: note_on channel=0 note=69 velocity=109 time=0
EXTRACT: note_on channel=2 note=57 velocity=109 time=0
EXTRACT: note_on channel=3 note=73 velocity=114 time=0
EXTRACT: note_on channel=5 note=64 velocity=91 time=0
EXTRACT: note_on channel=5 note=69 velocity=106 time=0
EXTRACT: note_on channel=5 note=73 velocity=98 time=0
EXTRACT: control_change channel=5 control=11 value=127 time=0
EXTRACT: note_on channel=9 note=36 velocity=120 time=0
EXTRACT: note_on channel=10 note=73 velocity=100 time=0
EXTRACT: note_on channel=10 note=69 velocity=100 time=0
EXTRACT: note_on channel=10 note=76 velocity=100 time=0
EXTRACT: note_on channel=10 note=69 velocity=100 time=0
EXTRACT: control_change channel=5 control=11 value=122 time=0.05376341666666667
EXTRACT: control_change channel=0 control=64 value=127 time=0.03763439166666667
EXTRACT: control_change channel=5 control=11 value=118 time=0.016129025
EXTRACT: note_on channel=9 note=36 velocity=0 time=0.03763439166666667
EXTRACT: control_change channel=5 control=11 value=114 time=0.016129025
EXTRACT: control_change channel=5 control=11 value=110 time=0.05376341666666667
EXTRACT: control_change channel=5 control=11 value=106 time=0.05376341666666667
EXTRACT: note_on channel=0 note=69 velocity=0 time=0.010752683333333334
EXTRACT: note_on channel=0 note=64 velocity=0 time=0.021505366666666668
EXTRACT: control_change channel=5 control=11 value=102 time=0.021505366666666668
EXTRACT: note_on channel=0 note=61 velocity=0 time=0.005376341666666667
EXTRACT: control_change channel=5 control=11 value=98 time=0.048387075
EXTRACT: control_change channel=5 control=11 value=94 time=0.05376341666666667
EXTRACT: control_change channel=5 control=11 value=90 time=0.05376341666666667
EXTRACT: note_on channel=9 note=36 velocity=120 time=0
EXTRACT: control_change channel=5 control=11 value=86 time=0.05376341666666667
EXTRACT: control_change channel=5 control=11 value=82 time=0.05376341666666667
EXTRACT: note_on channel=9 note=36 velocity=0 time=0.010752683333333334
EXTRACT: note_on channel=2 note=57 velocity=0 time=0.03763439166666667
EXTRACT: note_on channel=5 note=73 velocity=0 time=0
EXTRACT: note_on channel=5 note=64 velocity=0 time=0
EXTRACT: note_on channel=5 note=69 velocity=0 time=0
EXTRACT: note_on channel=0 note=61 velocity=101 time=0.005376341666666667
EXTRACT: note_on channel=0 note=64 velocity=109 time=0
EXTRACT: note_on channel=0 note=69 velocity=103 time=0
EXTRACT: note_on channel=2 note=57 velocity=102 time=0
EXTRACT: note_on channel=5 note=64 velocity=95 time=0
EXTRACT: note_on channel=5 note=69 velocity=106 time=0
EXTRACT: note_on channel=5 note=73 velocity=97 time=0
EXTRACT: control_change channel=5 control=11 value=74 time=0
EXTRACT: control_change channel=5 control=11 value=127 time=0
EXTRACT: note_on channel=9 note=38 velocity=120 time=0
EXTRACT: note_on channel=9 note=39 velocity=120 time=0
EXTRACT: control_change channel=5 control=11 value=122 time=0.05376341666666667
EXTRACT: control_change channel=5 control=11 value=118 time=0.05376341666666667
EXTRACT: note_on channel=9 note=38 velocity=0 time=0.005376341666666667
EXTRACT: note_on channel=9 note=39 velocity=0 time=0.016129025
EXTRACT: control_change channel=5 control=11 value=114 time=0.03225805
EXTRACT: control_change channel=5 control=11 value=110 time=0.05376341666666667
EXTRACT: control_change channel=5 control=11 value=106 time=0.05376341666666667
EXTRACT: note_on channel=0 note=69 velocity=0 time=0.043010733333333336
EXTRACT: note_on channel=0 note=57 velocity=102 time=0.010752683333333334
EXTRACT: note_on channel=4 note=64 velocity=109 time=0
EXTRACT: note_on channel=4 note=69 velocity=109 time=0
EXTRACT: control_change channel=5 control=11 value=102 time=0
EXTRACT: note_on channel=9 note=36 velocity=120 time=0
EXTRACT: note_on channel=0 note=64 velocity=0 time=0.005376341666666667
EXTRACT: control_change channel=5 control=11 value=98 time=0.048387075
EXTRACT: note_on channel=0 note=61 velocity=0 time=0.043010733333333336
EXTRACT: control_change channel=5 control=11 value=94 time=0.010752683333333334
EXTRACT: note_on channel=9 note=36 velocity=0 time=0.043010733333333336
EXTRACT: control_change channel=5 control=11 value=90 time=0.010752683333333334
EXTRACT: control_change channel=5 control=11 value=86 time=0.05376341666666667
EXTRACT: note_on channel=4 note=69 velocity=0 time=0.021505366666666668
EXTRACT: note_on channel=4 note=64 velocity=0 time=0.010752683333333334
EXTRACT: control_change channel=5 control=11 value=82 time=0.021505366666666668
EXTRACT: note_on channel=5 note=64 velocity=0 time=0.048387075
EXTRACT: note_on channel=2 note=57 velocity=0 time=0
EXTRACT: note_on channel=5 note=69 velocity=0 time=0
EXTRACT: note_on channel=5 note=73 velocity=0 time=0
EXTRACT: note_on channel=0 note=61 velocity=100 time=0.005376341666666667
EXTRACT: note_on channel=0 note=64 velocity=107 time=0
EXTRACT: note_on channel=0 note=69 velocity=104 time=0
EXTRACT: note_on channel=2 note=57 velocity=106 time=0
EXTRACT: note_on channel=4 note=64 velocity=109 time=0
EXTRACT: note_on channel=4 note=69 velocity=109 time=0
EXTRACT: note_on channel=5 note=64 velocity=96 time=0
EXTRACT: note_on channel=5 note=69 velocity=108 time=0
EXTRACT: note_on channel=5 note=73 velocity=97 time=0
EXTRACT: control_change channel=5 control=11 value=74 time=0
EXTRACT: control_change channel=5 control=11 value=127 time=0
EXTRACT: control_change channel=5 control=11 value=122 time=0.05376341666666667
EXTRACT: note_on channel=0 note=57 velocity=0 time=0.010752683333333334
EXTRACT: control_change channel=5 control=11 value=118 time=0.043010733333333336
EXTRACT: control_change channel=5 control=11 value=114 time=0.05376341666666667
EXTRACT: control_change channel=5 control=11 value=110 time=0.05376341666666667
EXTRACT: control_change channel=5 control=11 value=106 time=0.05376341666666667
EXTRACT: note_on channel=0 note=57 velocity=95 time=0.05376341666666667
EXTRACT: control_change channel=5 control=11 value=102 time=0
EXTRACT: note_on channel=9 note=36 velocity=120 time=0
EXTRACT: control_change channel=5 control=11 value=98 time=0.05376341666666667
EXTRACT: note_on channel=0 note=64 velocity=0 time=0.005376341666666667
EXTRACT: note_on channel=0 note=61 velocity=0 time=0.021505366666666668
EXTRACT: control_change channel=5 control=11 value=94 time=0.026881708333333334
EXTRACT: note_on channel=0 note=69 velocity=0 time=0.010752683333333334
EXTRACT: note_on channel=9 note=36 velocity=0 time=0.010752683333333334
EXTRACT: control_change channel=5 control=11 value=90 time=0.03225805
EXTRACT: control_change channel=5 control=11 value=86 time=0.05376341666666667
EXTRACT: control_change channel=5 control=11 value=82 time=0.05376341666666667
EXTRACT: note_on channel=5 note=69 velocity=0 time=0.048387075
EXTRACT: note_on channel=2 note=57 velocity=0 time=0
EXTRACT: note_on channel=5 note=64 velocity=0 time=0
EXTRACT: note_on channel=5 note=73 velocity=0 time=0
EXTRACT: note_on channel=0 note=61 velocity=101 time=0.005376341666666667
EXTRACT: note_on channel=0 note=64 velocity=109 time=0
EXTRACT: note_on channel=0 note=69 velocity=96 time=0
EXTRACT: note_on channel=2 note=57 velocity=107 time=0
EXTRACT: note_on channel=5 note=64 velocity=100 time=0
EXTRACT: note_on channel=5 note=69 velocity=110 time=0
EXTRACT: note_on channel=5 note=73 velocity=100 time=0
EXTRACT: control_change channel=5 control=11 value=74 time=0
EXTRACT: control_change channel=5 control=11 value=127 time=0
EXTRACT: note_on channel=9 note=38 velocity=120 time=0
EXTRACT: note_on channel=9 note=39 velocity=120 time=0
EXTRACT: note_on channel=0 note=57 velocity=0 time=0.016129025
EXTRACT: control_change channel=5 control=11 value=122 time=0.03763439166666667
EXTRACT: control_change channel=5 control=11 value=118 time=0.05376341666666667
EXTRACT: note_on channel=9 note=38 velocity=0 time=0.010752683333333334
EXTRACT: note_on channel=9 note=39 velocity=0 time=0.010752683333333334
EXTRACT: control_change channel=5 control=11 value=114 time=0.03225805
EXTRACT: note_on channel=4 note=64 velocity=0 time=0.05376341666666667
EXTRACT: note_on channel=4 note=69 velocity=0 time=0
EXTRACT: control_change channel=5 control=11 value=110 time=0
EXTRACT: control_change channel=5 control=11 value=106 time=0.05376341666666667
EXTRACT: note_on channel=0 note=64 velocity=0 time=0.005376341666666667
EXTRACT: note_on channel=0 note=61 velocity=0 time=0.010752683333333334
EXTRACT: note_on channel=0 note=57 velocity=92 time=0.03763439166666667
EXTRACT: note_on channel=4 note=61 velocity=108 time=0
EXTRACT: note_on channel=4 note=66 velocity=108 time=0
EXTRACT: control_change channel=5 control=11 value=102 time=0
EXTRACT: control_change channel=5 control=11 value=98 time=0.05376341666666667
EXTRACT: control_change channel=5 control=11 value=94 time=0.05376341666666667
EXTRACT: control_change channel=5 control=11 value=90 time=0.05376341666666667
EXTRACT: note_on channel=0 note=69 velocity=0 time=0.016129025
EXTRACT: control_change channel=5 control=11 value=86 time=0.03763439166666667
EXTRACT: control_change channel=0 control=64 value=0 time=0.005376341666666667
EXTRACT: note_on channel=4 note=66 velocity=0 time=0.021505366666666668
EXTRACT: note_on channel=4 note=61 velocity=0 time=0
EXTRACT: note_on channel=3 note=73 velocity=0 time=0.021505366666666668
EXTRACT: control_change channel=5 control=11 value=82 time=0.005376341666666667
EXTRACT: note_on channel=5 note=69 velocity=0 time=0.048387075
EXTRACT: note_on channel=2 note=57 velocity=0 time=0
EXTRACT: note_on channel=5 note=64 velocity=0 time=0
EXTRACT: note_on channel=5 note=73 velocity=0 time=0
EXTRACT: note_on channel=10 note=69 velocity=0 time=0.005376341666666667
EXTRACT: note_on channel=10 note=76 velocity=0 time=0
EXTRACT: note_on channel=10 note=73 velocity=0 time=0
EXTRACT: note_on channel=10 note=69 velocity=0 time=0
EXTRACT: note_on channel=0 note=54 velocity=92 time=0
EXTRACT: note_on channel=0 note=61 velocity=100 time=0
EXTRACT: note_on channel=0 note=66 velocity=101 time=0
EXTRACT: note_on channel=0 note=69 velocity=96 time=0
EXTRACT: note_on channel=2 note=54 velocity=103 time=0
EXTRACT: note_on channel=4 note=61 velocity=111 time=0
EXTRACT: note_on channel=4 note=66 velocity=112 time=0
EXTRACT: note_on channel=5 note=66 velocity=97 time=0
EXTRACT: note_on channel=5 note=69 velocity=107 time=0
EXTRACT: note_on channel=5 note=73 velocity=99 time=0
EXTRACT: control_change channel=5 control=11 value=74 time=0
EXTRACT: control_change channel=5 control=11 value=127 time=0
EXTRACT: note_on channel=9 note=36 velocity=120 time=0
EXTRACT: note_on channel=10 note=73 velocity=100 time=0
EXTRACT: note_on channel=10 note=69 velocity=100 time=0
EXTRACT: note_on channel=10 note=78 velocity=100 time=0
EXTRACT: note_on channel=10 note=66 velocity=100 time=0
EXTRACT: note_on channel=0 note=57 velocity=0 time=0.043010733333333336
EXTRACT: control_change channel=5 control=11 value=122 time=0.010752683333333334
EXTRACT: control_change channel=0 control=64 value=127 time=0.043010733333333336
EXTRACT: control_change channel=5 control=11 value=118 time=0.010752683333333334
EXTRACT: note_on channel=9 note=36 velocity=0 time=0.03763439166666667
EXTRACT: control_change channel=5 control=11 value=114 time=0.016129025
EXTRACT: control_change channel=5 control=11 value=110 time=0.05376341666666667
EXTRACT: control_change channel=5 control=11 value=106 time=0.05376341666666667
EXTRACT: note_on channel=0 note=57 velocity=96 time=0.05376341666666667
EXTRACT: control_change channel=5 control=11 value=102 time=0
EXTRACT: note_on channel=0 note=66 velocity=0 time=0.03763439166666667
EXTRACT: note_on channel=0 note=54 velocity=0 time=0
EXTRACT: note_on channel=0 note=69 velocity=0 time=0.005376341666666667
EXTRACT: control_change channel=5 control=11 value=98 time=0.010752683333333334
EXTRACT: note_on channel=0 note=61 velocity=0 time=0.010752683333333334
EXTRACT: control_change channel=5 control=11 value=94 time=0.043010733333333336
EXTRACT: control_change channel=5 control=11 value=90 time=0.05376341666666667
EXTRACT: note_on channel=9 note=36 velocity=120 time=0
EXTRACT: control_change channel=5 control=11 value=86 time=0.05376341666666667
EXTRACT: note_on channel=9 note=36 velocity=0 time=0.043010733333333336
EXTRACT: control_change channel=5 control=11 value=82 time=0.010752683333333334
EXTRACT: note_on channel=5 note=69 velocity=0 time=0.048387075
EXTRACT: note_on channel=5 note=73 velocity=0 time=0
EXTRACT: note_on channel=5 note=66 velocity=0 time=0
EXTRACT: note_on channel=2 note=54 velocity=0 time=0
EXTRACT: note_on channel=0 note=61 velocity=100 time=0.005376341666666667
EXTRACT: note_on channel=0 note=66 velocity=100 time=0
EXTRACT: note_on channel=0 note=69 velocity=104 time=0
EXTRACT: note_on channel=2 note=54 velocity=97 time=0
EXTRACT: note_on channel=3 note=73 velocity=116 time=0
EXTRACT: note_on channel=5 note=66 velocity=93 time=0
EXTRACT: note_on channel=5 note=69 velocity=107 time=0
EXTRACT: note_on channel=5 note=73 velocity=97 time=0
EXTRACT: control_change channel=5 control=11 value=74 time=0
EXTRACT: control_change channel=5 control=11 value=127 time=0
EXTRACT: note_on channel=9 note=38 velocity=120 time=0
EXTRACT: note_on channel=9 note=39 velocity=120 time=0
EXTRACT: note_on channel=0 note=57 velocity=0 time=0.021505366666666668
EXTRACT: control_change channel=5 control=11 value=122 time=0.03225805
EXTRACT: note_on channel=9 note=38 velocity=0 time=0.05376341666666667
EXTRACT: control_change channel=5 control=11 value=118 time=0
EXTRACT: note_on channel=9 note=39 velocity=0 time=0.005376341666666667
EXTRACT: control_change channel=5 control=11 value=114 time=0.048387075
EXTRACT: control_change channel=5 control=11 value=110 time=0.05376341666666667
EXTRACT: note_on channel=0 note=66 velocity=0 time=0.03225805
EXTRACT: note_on channel=0 note=69 velocity=0 time=0.005376341666666667
EXTRACT: control_change channel=5 control=11 value=106 time=0.016129025
EXTRACT: note_on channel=3 note=73 velocity=0 time=0.026881708333333334
EXTRACT: note_on channel=0 note=61 velocity=0 time=0.026881708333333334
EXTRACT: note_on channel=0 note=54 velocity=87 time=0
EXTRACT: note_on channel=0 note=57 velocity=86 time=0
EXTRACT: control_change channel=5 control=11 value=102 time=0
EXTRACT: note_on channel=9 note=36 velocity=120 time=0
EXTRACT: note_on channel=4 note=66 velocity=0 time=0.021505366666666668
EXTRACT: note_on channel=4 note=61 velocity=0 time=0.010752683333333334
EXTRACT: control_change channel=5 control=11 value=98 time=0.021505366666666668
EXTRACT: control_change channel=5 control=11 value=94 time=0.05376341666666667
EXTRACT: note_on channel=0 note=57 velocity=0 time=0.005376341666666667
EXTRACT: note_on channel=9 note=36 velocity=0 time=0.016129025
EXTRACT: control_change channel=5 control=11 value=90 time=0.03225805
EXTRACT: control_change channel=5 control=11 value=86 time=0.05376341666666667
EXTRACT: control_change channel=5 control=11 value=82 time=0.05376341666666667
EXTRACT: note_on channel=5 note=69 velocity=0 time=0.048387075
EXTRACT: note_on channel=5 note=66 velocity=0 time=0
EXTRACT: note_on channel=2 note=54 velocity=0 time=0
EXTRACT: note_on channel=5 note=73 velocity=0 time=0
EXTRACT: note_on channel=0 note=61 velocity=116 time=0.005376341666666667
EXTRACT: note_on channel=0 note=69 velocity=104 time=0
EXTRACT: note_on channel=2 note=54 velocity=97 time=0
EXTRACT: note_on channel=3 note=73 velocity=116 time=0
EXTRACT: note_on channel=5 note=66 velocity=94 time=0
EXTRACT: note_on channel=5 note=69 velocity=107 time=0
EXTRACT: note_on channel=5 note=73 velocity=97 time=0
EXTRACT: control_change channel=5 control=11 value=74 time=0
EXTRACT: control_change channel=5 control=11 value=127 time=0
EXTRACT: control_change channel=5 control=11 value=122 time=0.05376341666666667
EXTRACT: control_change channel=5 control=11 value=118 time=0.05376341666666667
EXTRACT: note_on channel=0 note=61 velocity=0 time=0.026881708333333334
EXTRACT: note_on channel=0 note=69 velocity=0 time=0.021505366666666668
EXTRACT: control_change channel=5 control=11 value=114 time=0.005376341666666667
EXTRACT: control_change channel=5 control=11 value=110 time=0.05376341666666667
EXTRACT: control_change channel=0 control=64 value=0 time=0.05376341666666667
EXTRACT: control_change channel=5 control=11 value=106 time=0
EXTRACT: note_on channel=3 note=73 velocity=0 time=0.010752683333333334
EXTRACT: note_on channel=0 note=59 velocity=104 time=0.043010733333333336
EXTRACT: note_on channel=0 note=68 velocity=116 time=0
EXTRACT: note_on channel=3 note=71 velocity=111 time=0
EXTRACT: control_change channel=5 control=11 value=102 time=0
EXTRACT: note_on channel=9 note=36 velocity=120 time=0
EXTRACT: control_change channel=0 control=64 value=127 time=0.05376341666666667
EXTRACT: control_change channel=5 control=11 value=98 time=0
EXTRACT: control_change channel=5 control=11 value=94 time=0.05376341666666667
EXTRACT: note_on channel=9 note=36 velocity=0 time=0.010752683333333334
EXTRACT: control_change channel=5 control=11 value=90 time=0.043010733333333336
EXTRACT: control_change channel=5 control=11 value=86 time=0.05376341666666667
EXTRACT: note_on channel=3 note=71 velocity=0 time=0.026881708333333334
EXTRACT: note_on channel=0 note=68 velocity=0 time=0.010752683333333334
EXTRACT: note_on channel=0 note=59 velocity=0 time=0.005376341666666667
EXTRACT: control_change channel=5 control=11 value=82 time=0.010752683333333334
EXTRACT: control_change channel=0 control=64 value=0 time=0.016129025
EXTRACT: note_on channel=5 note=69 velocity=0 time=0.03225805
EXTRACT: note_on channel=2 note=54 velocity=0 time=0
EXTRACT: note_on channel=5 note=66 velocity=0 time=0
EXTRACT: note_on channel=5 note=73 velocity=0 time=0
EXTRACT: note_on channel=0 note=57 velocity=107 time=0.005376341666666667
EXTRACT: note_on channel=0 note=66 velocity=112 time=0
EXTRACT: note_on channel=2 note=54 velocity=103 time=0
EXTRACT: note_on channel=3 note=69 velocity=115 time=0
EXTRACT: note_on channel=5 note=66 velocity=97 time=0
EXTRACT: note_on channel=5 note=69 velocity=109 time=0
EXTRACT: note_on channel=5 note=73 velocity=96 time=0
EXTRACT: control_change channel=5 control=11 value=74 time=0
EXTRACT: control_change channel=5 control=11 value=127 time=0
EXTRACT: note_on channel=9 note=38 velocity=120 time=0
EXTRACT: note_on channel=9 note=39 velocity=120 time=0
EXTRACT: control_change channel=5 control=11 value=122 time=0.05376341666666667
EXTRACT: note_on channel=9 note=38 velocity=0 time=0.048387075
EXTRACT: control_change channel=5 control=11 value=118 time=0.005376341666666667
EXTRACT: note_on channel=9 note=39 velocity=0 time=0.005376341666666667
EXTRACT: control_change channel=5 control=11 value=114 time=0.048387075
EXTRACT: control_change channel=0 control=64 value=127 time=0.010752683333333334
EXTRACT: note_on channel=3 note=69 velocity=0 time=0.021505366666666668
EXTRACT: control_change channel=5 control=11 value=110 time=0.021505366666666668
EXTRACT: control_change channel=5 control=11 value=106 time=0.05376341666666667
EXTRACT: note_on channel=3 note=71 velocity=115 time=0.05376341666666667
EXTRACT: note_on channel=4 note=64 velocity=112 time=0
EXTRACT: note_on channel=4 note=68 velocity=111 time=0
EXTRACT: control_change channel=5 control=11 value=102 time=0
EXTRACT: note_on channel=15 note=64 velocity=1 time=0
EXTRACT: note_on channel=15 note=68 velocity=1 time=0
EXTRACT: note_on channel=0 note=54 velocity=0 time=0.010752683333333334
EXTRACT: control_change channel=5 control=11 value=98 time=0.043010733333333336
EXTRACT: note_on channel=0 note=57 velocity=0 time=0.03225805
EXTRACT: control_change channel=5 control=11 value=94 time=0.021505366666666668
EXTRACT: note_on channel=0 note=66 velocity=0 time=0.021505366666666668
EXTRACT: control_change channel=5 control=11 value=90 time=0.03225805
EXTRACT: control_change channel=5 control=11 value=86 time=0.05376341666666667
EXTRACT: note_on channel=4 note=64 velocity=0 time=0.016129025
EXTRACT: note_on channel=3 note=71 velocity=0 time=0
EXTRACT: note_on channel=15 note=64 velocity=0 time=0
EXTRACT: note_on channel=15 note=68 velocity=0 time=0.010752683333333334
EXTRACT: note_on channel=4 note=68 velocity=0 time=0
EXTRACT: control_change channel=5 control=11 value=82 time=0.026881708333333334
EXTRACT: note_on channel=5 note=66 velocity=0 time=0.048387075
EXTRACT: note_on channel=2 note=54 velocity=0 time=0
EXTRACT: note_on channel=5 note=69 velocity=0 time=0
EXTRACT: note_on channel=5 note=73 velocity=0 time=0
EXTRACT: note_on channel=10 note=69 velocity=0 time=0.005376341666666667
EXTRACT: note_on channel=10 note=73 velocity=0 time=0
EXTRACT: note_on channel=10 note=66 velocity=0 time=0
EXTRACT: note_on channel=10 note=78 velocity=0 time=0
EXTRACT: note_on channel=0 note=56 velocity=100 time=0
EXTRACT: note_on channel=0 note=61 velocity=100 time=0
EXTRACT: note_on channel=0 note=64 velocity=109 time=0
EXTRACT: note_on channel=0 note=68 velocity=101 time=0
EXTRACT: note_on channel=2 note=49 velocity=106 time=0
EXTRACT: note_on channel=3 note=71 velocity=115 time=0
EXTRACT: note_on channel=4 note=64 velocity=110 time=0
EXTRACT: note_on channel=4 note=68 velocity=108 time=0
EXTRACT: note_on channel=5 note=64 velocity=98 time=0
EXTRACT: note_on channel=5 note=68 velocity=100 time=0
EXTRACT: note_on channel=5 note=73 velocity=97 time=0
EXTRACT: control_change channel=5 control=11 value=74 time=0
EXTRACT: control_change channel=5 control=11 value=127 time=0
EXTRACT: note_on channel=9 note=36 velocity=120 time=0
EXTRACT: note_on channel=10 note=73 velocity=100 time=0
EXTRACT: note_on channel=10 note=76 velocity=100 time=0
EXTRACT: note_on channel=10 note=68 velocity=100 time=0
EXTRACT: note_on channel=10 note=61 velocity=100 time=0
EXTRACT: note_on channel=15 note=64 velocity=1 time=0
EXTRACT: note_on channel=15 note=68 velocity=1 time=0
EXTRACT: control_change channel=0 control=64 value=0 time=0.005376341666666667
EXTRACT: control_change channel=5 control=11 value=122 time=0.048387075
EXTRACT: control_change channel=5 control=11 value=118 time=0.05376341666666667
EXTRACT: note_on channel=9 note=36 velocity=0 time=0.026881708333333334
EXTRACT: control_change channel=5 control=11 value=114 time=0.026881708333333334
EXTRACT: control_change channel=0 control=64 value=127 time=0.016129025
EXTRACT: control_change channel=5 control=11 value=110 time=0.03763439166666667
EXTRACT: control_change channel=5 control=11 value=106 time=0.05376341666666667
EXTRACT: note_on channel=0 note=64 velocity=0 time=0.05376341666666667
EXTRACT: note_on channel=0 note=49 velocity=87 time=0
EXTRACT: control_change channel=5 control=11 value=102 time=0
EXTRACT: note_on channel=0 note=68 velocity=0 time=0.010752683333333334
EXTRACT: note_on channel=0 note=61 velocity=0 time=0.016129025
EXTRACT: note_on channel=0 note=56 velocity=0 time=0.005376341666666667
EXTRACT: control_change channel=5 control=11 value=98 time=0.021505366666666668
EXTRACT: control_change channel=5 control=11 value=94 time=0.05376341666666667
EXTRACT: control_change channel=5 control=11 value=90 time=0.05376341666666667
EXTRACT: note_on channel=9 note=36 velocity=120 time=0
EXTRACT: control_change channel=5 control=11 value=86 time=0.05376341666666667
EXTRACT: note_on channel=9 note=36 velocity=0 time=0.03763439166666667
EXTRACT: note_on channel=0 note=49 velocity=0 time=0.010752683333333334
EXTRACT: control_change channel=5 control=11 value=82 time=0.005376341666666667
EXTRACT: note_on channel=5 note=64 velocity=0 time=0.048387075
EXTRACT: note_on channel=5 note=73 velocity=0 time=0
EXTRACT: note_on channel=2 note=49 velocity=0 time=0
EXTRACT: note_on channel=5 note=68 velocity=0 time=0
EXTRACT: note_on channel=0 note=56 velocity=94 time=0.005376341666666667
EXTRACT: note_on channel=0 note=61 velocity=95 time=0
EXTRACT: note_on channel=0 note=64 velocity=107 time=0
EXTRACT: note_on channel=0 note=68 velocity=92 time=0
EXTRACT: note_on channel=2 note=49 velocity=108 time=0
EXTRACT: note_on channel=5 note=64 velocity=99 time=0
EXTRACT: note_on channel=5 note=68 velocity=100 time=0
EXTRACT: note_on channel=5 note=73 velocity=100 time=0
EXTRACT: control_change channel=5 control=11 value=74 time=0
EXTRACT: control_change channel=5 control=11 value=127 time=0
EXTRACT: note_on channel=9 note=38 velocity=120 time=0
EXTRACT: note_on channel=9 note=39 velocity=120 time=0
EXTRACT: note_on channel=3 note=71 velocity=0 time=0.016129025
EXTRACT: control_change channel=5 control=11 value=122 time=0.03763439166666667
EXTRACT: note_on channel=15 note=64 velocity=0 time=0.043010733333333336
EXTRACT: note_on channel=4 note=64 velocity=0 time=0
EXTRACT: control_change channel=5 control=11 value=118 time=0.010752683333333334
EXTRACT: note_on channel=9 note=38 velocity=0 time=0.016129025
EXTRACT: note_on channel=9 note=39 velocity=0 time=0.005376341666666667
EXTRACT: note_on channel=3 note=69 velocity=115 time=0.03225805
EXTRACT: note_on channel=4 note=61 velocity=106 time=0
EXTRACT: note_on channel=4 note=66 velocity=100 time=0
EXTRACT: control_change channel=5 control=11 value=114 time=0
EXTRACT: note_on channel=15 note=61 velocity=1 time=0
EXTRACT: note_on channel=15 note=66 velocity=1 time=0
EXTRACT: note_on channel=4 note=68 velocity=0 time=0.026881708333333334
EXTRACT: note_on channel=15 note=68 velocity=0 time=0
EXTRACT: control_change channel=5 control=11 value=110 time=0.026881708333333334
EXTRACT: control_change channel=5 control=11 value=106 time=0.05376341666666667
EXTRACT: note_on channel=0 note=64 velocity=0 time=0.010752683333333334
EXTRACT: note_on channel=0 note=68 velocity=0 time=0.016129025
EXTRACT: note_on channel=0 note=56 velocity=0 time=0.016129025
EXTRACT: note_on channel=0 note=61 velocity=0 time=0.005376341666666667
EXTRACT: note_on channel=3 note=69 velocity=0 time=0.005376341666666667
EXTRACT: note_on channel=0 note=49 velocity=94 time=0
EXTRACT: note_on channel=3 note=68 velocity=120 time=0
EXTRACT: note_on channel=4 note=59 velocity=112 time=0
EXTRACT: note_on channel=4 note=64 velocity=108 time=0
EXTRACT: control_change channel=5 control=11 value=102 time=0
EXTRACT: note_on channel=9 note=36 velocity=120 time=0
EXTRACT: note_on channel=15 note=59 velocity=1 time=0
EXTRACT: note_on channel=15 note=64 velocity=1 time=0
EXTRACT: note_on channel=15 note=66 velocity=0 time=0.021505366666666668
EXTRACT: note_on channel=4 note=61 velocity=0 time=0
EXTRACT: note_on channel=15 note=61 velocity=0 time=0
EXTRACT: note_on channel=4 note=66 velocity=0 time=0
EXTRACT: control_change channel=5 control=11 value=98 time=0.03225805
EXTRACT: control_change channel=5 control=11 value=94 time=0.05376341666666667
EXTRACT: note_on channel=9 note=36 velocity=0 time=0.03225805
EXTRACT: note_on channel=4 note=64 velocity=0 time=0.016129025
EXTRACT: note_on channel=15 note=59 velocity=0 time=0
EXTRACT: note_on channel=15 note=64 velocity=0 time=0
EXTRACT: note_on channel=4 note=59 velocity=0 time=0
EXTRACT: note_on channel=3 note=66 velocity=114 time=0.005376341666666667
EXTRACT: note_on channel=4 note=57 velocity=109 time=0
EXTRACT: note_on channel=4 note=61 velocity=116 time=0
EXTRACT: control_change channel=5 control=11 value=90 time=0
EXTRACT: note_on channel=15 note=61 velocity=1 time=0
EXTRACT: note_on channel=15 note=57 velocity=1 time=0
EXTRACT: note_on channel=3 note=68 velocity=0 time=0.005376341666666667
EXTRACT: control_change channel=5 control=11 value=86 time=0.048387075
EXTRACT: control_change channel=5 control=11 value=82 time=0.05376341666666667
EXTRACT: note_on channel=15 note=61 velocity=0 time=0.03763439166666667
EXTRACT: note_on channel=4 note=61 velocity=0 time=0
EXTRACT: note_on channel=3 note=66 velocity=0 time=0.005376341666666667
EXTRACT: note_on channel=0 note=49 velocity=0 time=0
EXTRACT: note_on channel=5 note=73 velocity=0 time=0.005376341666666667
EXTRACT: note_on channel=5 note=68 velocity=0 time=0
EXTRACT: note_on channel=5 note=64 velocity=0 time=0
EXTRACT: note_on channel=2 note=49 velocity=0 time=0
EXTRACT: note_on channel=0 note=56 velocity=94 time=0.005376341666666667
EXTRACT: note_on channel=0 note=61 velocity=100 time=0
EXTRACT: note_on channel=0 note=64 velocity=109 time=0
EXTRACT: note_on channel=0 note=68 velocity=92 time=0
EXTRACT: note_on channel=2 note=49 velocity=101 time=0
EXTRACT: note_on channel=3 note=64 velocity=116 time=0
EXTRACT: note_on channel=4 note=56 velocity=106 time=0
EXTRACT: note_on channel=4 note=59 velocity=112 time=0
EXTRACT: note_on channel=5 note=64 velocity=97 time=0
EXTRACT: note_on channel=5 note=68 velocity=101 time=0
EXTRACT: note_on channel=5 note=73 velocity=100 time=0
EXTRACT: control_change channel=5 control=11 value=74 time=0
EXTRACT: control_change channel=5 control=11 value=127 time=0
EXTRACT: note_on channel=15 note=56 velocity=1 time=0
EXTRACT: note_on channel=15 note=59 velocity=1 time=0
EXTRACT: note_on channel=15 note=57 velocity=0 time=0.010752683333333334
EXTRACT: note_on channel=4 note=57 velocity=0 time=0
EXTRACT: control_change channel=5 control=11 value=122 time=0.043010733333333336
EXTRACT: control_change channel=5 control=11 value=118 time=0.05376341666666667
EXTRACT: control_change channel=5 control=11 value=114 time=0.05376341666666667
EXTRACT: control_change channel=5 control=11 value=110 time=0.05376341666666667
EXTRACT: note_on channel=0 note=64 velocity=0 time=0.026881708333333334
EXTRACT: note_on channel=0 note=56 velocity=0 time=0.026881708333333334
EXTRACT: control_change channel=5 control=11 value=106 time=0
EXTRACT: note_on channel=0 note=61 velocity=0 time=0.048387075
EXTRACT: note_on channel=0 note=49 velocity=97 time=0.005376341666666667
EXTRACT: control_change channel=5 control=11 value=102 time=0
EXTRACT: note_on channel=9 note=36 velocity=120 time=0
EXTRACT: note_on channel=0 note=68 velocity=0 time=0.026881708333333334
EXTRACT: control_change channel=5 control=11 value=98 time=0.026881708333333334
EXTRACT: control_change channel=5 control=11 value=94 time=0.05376341666666667
EXTRACT: note_on channel=9 note=36 velocity=0 time=0.010752683333333334
EXTRACT: control_change channel=5 control=11 value=90 time=0.043010733333333336
EXTRACT: control_change channel=5 control=11 value=86 time=0.05376341666666667
EXTRACT: control_change channel=5 control=11 value=82 time=0.05376341666666667
EXTRACT: note_on channel=0 note=49 velocity=0 time=0.010752683333333334
EXTRACT: note_on channel=5 note=73 velocity=0 time=0.03763439166666667
EXTRACT: note_on channel=5 note=68 velocity=0 time=0
EXTRACT: note_on channel=2 note=49 velocity=0 time=0
EXTRACT: note_on channel=5 note=64 velocity=0 time=0
EXTRACT: note_on channel=0 note=56 velocity=100 time=0.005376341666666667
EXTRACT: note_on channel=0 note=61 velocity=106 time=0
EXTRACT: note_on channel=0 note=64 velocity=109 time=0
EXTRACT: note_on channel=0 note=68 velocity=96 time=0
EXTRACT: note_on channel=2 note=49 velocity=96 time=0
EXTRACT: note_on channel=5 note=64 velocity=99 time=0
EXTRACT: note_on channel=5 note=68 velocity=101 time=0
EXTRACT: note_on channel=5 note=73 velocity=101 time=0
EXTRACT: control_change channel=5 control=11 value=74 time=0
EXTRACT: control_change channel=5 control=11 value=127 time=0
EXTRACT: note_on channel=9 note=38 velocity=120 time=0
EXTRACT: note_on channel=9 note=39 velocity=120 time=0
EXTRACT: control_change channel=5 control=11 value=122 time=0.05376341666666667
EXTRACT: control_change channel=5 control=11 value=118 time=0.05376341666666667
EXTRACT: note_on channel=9 note=38 velocity=0 time=0.005376341666666667
EXTRACT: note_on channel=9 note=39 velocity=0 time=0.010752683333333334
EXTRACT: control_change channel=5 control=11 value=114 time=0.03763439166666667
EXTRACT: note_on channel=0 note=56 velocity=0 time=0.03225805
EXTRACT: note_on channel=0 note=64 velocity=0 time=0.005376341666666667
EXTRACT: note_on channel=0 note=61 velocity=0 time=0.010752683333333334
EXTRACT: control_change channel=5 control=11 value=110 time=0.005376341666666667
EXTRACT: note_on channel=0 note=68 velocity=0 time=0.03225805
EXTRACT: control_change channel=5 control=11 value=106 time=0.021505366666666668
EXTRACT: note_on channel=3 note=64 velocity=0 time=0.048387075
EXTRACT: note_on channel=0 note=49 velocity=85 time=0.005376341666666667
EXTRACT: note_on channel=3 note=66 velocity=120 time=0
EXTRACT: note_on channel=4 note=57 velocity=112 time=0
EXTRACT: note_on channel=4 note=61 velocity=114 time=0
EXTRACT: control_change channel=5 control=11 value=102 time=0
EXTRACT: note_on channel=15 note=57 velocity=1 time=0
EXTRACT: note_on channel=15 note=61 velocity=1 time=0
EXTRACT: note_on channel=15 note=59 velocity=0 time=0.021505366666666668
EXTRACT: note_on channel=4 note=59 velocity=0 time=0
EXTRACT: control_change channel=5 control=11 value=98 time=0.03225805
EXTRACT: note_on channel=15 note=56 velocity=0 time=0.005376341666666667
EXTRACT: note_on channel=4 note=56 velocity=0 time=0
EXTRACT: control_change channel=5 control=11 value=94 time=0.048387075
EXTRACT: note_on channel=3 note=66 velocity=0 time=0.03225805
EXTRACT: note_on channel=15 note=57 velocity=0 time=0.021505366666666668
EXTRACT: note_on channel=4 note=57 velocity=0 time=0
EXTRACT: note_on channel=3 note=69 velocity=115 time=0
EXTRACT: note_on channel=4 note=59 velocity=112 time=0
EXTRACT: note_on channel=4 note=64 velocity=108 time=0
EXTRACT: control_change channel=5 control=11 value=90 time=0
EXTRACT: note_on channel=15 note=59 velocity=1 time=0
EXTRACT: note_on channel=15 note=64 velocity=1 time=0
EXTRACT: note_on channel=4 note=61 velocity=0 time=0.016129025
EXTRACT: note_on channel=15 note=61 velocity=0 time=0
EXTRACT: control_change channel=5 control=11 value=86 time=0.03763439166666667
EXTRACT: note_on channel=0 note=49 velocity=0 time=0.026881708333333334
EXTRACT: control_change channel=0 control=64 value=0 time=0.021505366666666668
EXTRACT: control_change channel=5 control=11 value=82 time=0.005376341666666667
EXTRACT: note_on channel=5 note=73 velocity=0 time=0.048387075
EXTRACT: note_on channel=5 note=68 velocity=0 time=0
EXTRACT: note_on channel=2 note=49 velocity=0 time=0
EXTRACT: note_on channel=5 note=64 velocity=0 time=0
EXTRACT: note_on channel=10 note=76 velocity=0 time=0.005376341666666667
EXTRACT: note_on channel=10 note=61 velocity=0 time=0
EXTRACT: note_on channel=10 note=68 velocity=0 time=0
EXTRACT: note_on channel=10 note=73 velocity=0 time=0
EXTRACT: note_on channel=0 note=52 velocity=107 time=0
EXTRACT: note_on channel=0 note=59 velocity=106 time=0
EXTRACT: note_on channel=0 note=64 velocity=109 time=0
EXTRACT: note_on channel=0 note=68 velocity=104 time=0
EXTRACT: note_on channel=2 note=52 velocity=109 time=0
EXTRACT: note_on channel=5 note=64 velocity=97 time=0
EXTRACT: note_on channel=5 note=68 velocity=100 time=0
EXTRACT: note_on channel=5 note=71 velocity=105 time=0
EXTRACT: control_change channel=5 control=11 value=74 time=0
EXTRACT: control_change channel=5 control=11 value=127 time=0
EXTRACT: note_on channel=9 note=36 velocity=120 time=0
EXTRACT: note_on channel=10 note=71 velocity=100 time=0
EXTRACT: note_on channel=10 note=76 velocity=100 time=0
EXTRACT: note_on channel=10 note=68 velocity=100 time=0
EXTRACT: note_on channel=10 note=64 velocity=100 time=0
EXTRACT: note_on channel=3 note=69 velocity=0 time=0.026881708333333334
EXTRACT: note_on channel=15 note=64 velocity=0 time=0.010752683333333334
EXTRACT: note_on channel=4 note=64 velocity=0 time=0
EXTRACT: control_change channel=5 control=11 value=122 time=0.016129025
EXTRACT: note_on channel=4 note=59 velocity=0 time=0.021505366666666668
EXTRACT: note_on channel=15 note=59 velocity=0 time=0
EXTRACT: control_change channel=5 control=11 value=118 time=0.03225805
EXTRACT: note_on channel=9 note=36 velocity=0 time=0.016129025
EXTRACT: control_change channel=0 control=64 value=127 time=0.016129025
EXTRACT: control_change channel=5 control=11 value=114 time=0.021505366666666668
EXTRACT: note_on channel=0 note=52 velocity=0 time=0.043010733333333336
EXTRACT: control_change channel=5 control=11 value=110 time=0.010752683333333334
EXTRACT: control_change channel=5 control=11 value=106 time=0.05376341666666667
EXTRACT: note_on channel=0 note=52 velocity=100 time=0.05376341666666667
EXTRACT: control_change channel=5 control=11 value=102 time=0
EXTRACT: note_on channel=0 note=64 velocity=0 time=0.043010733333333336
EXTRACT: note_on channel=0 note=68 velocity=0 time=0
EXTRACT: note_on channel=0 note=59 velocity=0 time=0
EXTRACT: control_change channel=5 control=11 value=98 time=0.010752683333333334
EXTRACT: control_change channel=5 control=11 value=94 time=0.05376341666666667
EXTRACT: control_change channel=5 control=11 value=90 time=0.05376341666666667
EXTRACT: note_on channel=9 note=36 velocity=120 time=0
EXTRACT: control_change channel=5 control=11 value=86 time=0.05376341666666667
EXTRACT: note_on channel=9 note=36 velocity=0 time=0.03763439166666667
EXTRACT: control_change channel=5 control=11 value=82 time=0.016129025
EXTRACT: note_on channel=0 note=52 velocity=0 time=0.03763439166666667
EXTRACT: note_on channel=2 note=52 velocity=0 time=0.010752683333333334
EXTRACT: note_on channel=5 note=68 velocity=0 time=0
EXTRACT: note_on channel=5 note=71 velocity=0 time=0
EXTRACT: note_on channel=5 note=64 velocity=0 time=0
EXTRACT: note_on channel=0 note=59 velocity=102 time=0.005376341666666667
EXTRACT: note_on channel=0 note=64 velocity=107 time=0
EXTRACT: note_on channel=0 note=68 velocity=102 time=0
EXTRACT: note_on channel=2 note=52 velocity=109 time=0
EXTRACT: note_on channel=5 note=64 velocity=97 time=0
EXTRACT: note_on channel=5 note=68 velocity=100 time=0
EXTRACT: note_on channel=5 note=71 velocity=107 time=0
EXTRACT: control_change channel=5 control=11 value=74 time=0
EXTRACT: control_change channel=5 control=11 value=127 time=0
EXTRACT: note_on channel=9 note=38 velocity=120 time=0
EXTRACT: note_on channel=9 note=39 velocity=120 time=0
EXTRACT: control_change channel=5 control=11 value=122 time=0.05376341666666667
EXTRACT: note_on channel=9 note=38 velocity=0 time=0.043010733333333336
EXTRACT: note_on channel=9 note=39 velocity=0 time=0.005376341666666667
EXTRACT: control_change channel=5 control=11 value=118 time=0.005376341666666667
EXTRACT: control_change channel=5 control=11 value=114 time=0.05376341666666667
EXTRACT: control_change channel=5 control=11 value=110 time=0.05376341666666667
EXTRACT: control_change channel=5 control=11 value=106 time=0.05376341666666667
EXTRACT: note_on channel=0 note=52 velocity=101 time=0.05376341666666667
EXTRACT: note_on channel=3 note=73 velocity=116 time=0
EXTRACT: control_change channel=5 control=11 value=102 time=0
EXTRACT: note_on channel=9 note=36 velocity=120 time=0
EXTRACT: note_on channel=0 note=59 velocity=0 time=0.016129025
EXTRACT: note_on channel=0 note=64 velocity=0 time=0
EXTRACT: note_on channel=0 note=68 velocity=0 time=0.005376341666666667
EXTRACT: control_change channel=5 control=11 value=98 time=0.03225805
EXTRACT: control_change channel=5 control=11 value=94 time=0.05376341666666667
EXTRACT: note_on channel=9 note=36 velocity=0 time=0.016129025
EXTRACT: control_change channel=5 control=11 value=90 time=0.03763439166666667
EXTRACT: control_change channel=5 control=11 value=86 time=0.05376341666666667
EXTRACT: note_on channel=3 note=73 velocity=0 time=0.016129025
EXTRACT: control_change channel=5 control=11 value=82 time=0.03763439166666667
EXTRACT: note_on channel=0 note=52 velocity=0 time=0.016129025
EXTRACT: note_on channel=5 note=71 velocity=0 time=0.03225805
EXTRACT: note_on channel=2 note=52 velocity=0 time=0
EXTRACT: note_on channel=5 note=68 velocity=0 time=0
EXTRACT: note_on channel=5 note=64 velocity=0 time=0
EXTRACT: note_on channel=0 note=59 velocity=116 time=0.005376341666666667
EXTRACT: note_on channel=0 note=68 velocity=120 time=0
EXTRACT: note_on channel=2 note=52 velocity=102 time=0
EXTRACT: note_on channel=3 note=73 velocity=119 time=0
EXTRACT: note_on channel=5 note=64 velocity=93 time=0
EXTRACT: note_on channel=5 note=68 velocity=97 time=0
EXTRACT: note_on channel=5 note=71 velocity=104 time=0
EXTRACT: control_change channel=5 control=11 value=74 time=0
EXTRACT: control_change channel=5 control=11 value=127 time=0
EXTRACT: control_change channel=5 control=11 value=122 time=0.05376341666666667
EXTRACT: note_on channel=0 note=59 velocity=0 time=0.048387075
EXTRACT: note_on channel=0 note=68 velocity=0 time=0.005376341666666667
EXTRACT: control_change channel=5 control=11 value=118 time=0
EXTRACT: control_change channel=5 control=11 value=114 time=0.05376341666666667
EXTRACT: control_change channel=5 control=11 value=110 time=0.05376341666666667
EXTRACT: note_on channel=3 note=73 velocity=0 time=0.048387075
EXTRACT: control_change channel=5 control=11 value=106 time=0.005376341666666667
EXTRACT: note_on channel=0 note=57 velocity=113 time=0.05376341666666667
EXTRACT: note_on channel=0 note=66 velocity=120 time=0
EXTRACT: note_on channel=3 note=71 velocity=108 time=0
EXTRACT: control_change channel=5 control=11 value=102 time=0
EXTRACT: note_on channel=9 note=36 velocity=120 time=0
EXTRACT: control_change channel=5 control=11 value=98 time=0.05376341666666667
EXTRACT: note_on channel=0 note=57 velocity=0 time=0.03763439166666667
EXTRACT: control_change channel=5 control=11 value=94 time=0.016129025
EXTRACT: note_on channel=9 note=36 velocity=0 time=0.016129025
EXTRACT: note_on channel=0 note=66 velocity=0 time=0.026881708333333334
EXTRACT: control_change channel=5 control=11 value=90 time=0.010752683333333334
EXTRACT: control_change channel=5 control=11 value=86 time=0.05376341666666667
EXTRACT: control_change channel=5 control=11 value=82 time=0.05376341666666667
EXTRACT: note_on channel=3 note=71 velocity=0 time=0.005376341666666667
EXTRACT: note_on channel=5 note=71 velocity=0 time=0.043010733333333336
EXTRACT: note_on channel=5 note=64 velocity=0 time=0
EXTRACT: note_on channel=2 note=52 velocity=0 time=0
EXTRACT: note_on channel=5 note=68 velocity=0 time=0
EXTRACT: note_on channel=0 note=52 velocity=97 time=0.005376341666666667
EXTRACT: note_on channel=0 note=56 velocity=111 time=0
EXTRACT: note_on channel=0 note=64 velocity=115 time=0
EXTRACT: note_on channel=2 note=52 velocity=104 time=0
EXTRACT: note_on channel=3 note=69 velocity=116 time=0
EXTRACT: note_on channel=5 note=64 velocity=95 time=0
EXTRACT: note_on channel=5 note=68 velocity=101 time=0
EXTRACT: note_on channel=5 note=71 velocity=107 time=0
EXTRACT: control_change channel=5 control=11 value=74 time=0
EXTRACT: control_change channel=5 control=11 value=127 time=0
EXTRACT: note_on channel=9 note=38 velocity=120 time=0
EXTRACT: note_on channel=9 note=39 velocity=120 time=0
EXTRACT: control_change channel=0 control=64 value=0 time=0.010752683333333334
EXTRACT: control_change channel=5 control=11 value=122 time=0.043010733333333336
EXTRACT: note_on channel=9 note=39 velocity=0 time=0.048387075
EXTRACT: note_on channel=9 note=38 velocity=0 time=0
EXTRACT: control_change channel=5 control=11 value=118 time=0.005376341666666667
EXTRACT: control_change channel=5 control=11 value=114 time=0.05376341666666667
EXTRACT: control_change channel=0 control=64 value=127 time=0.021505366666666668
EXTRACT: control_change channel=5 control=11 value=110 time=0.03225805
EXTRACT: note_on channel=3 note=69 velocity=0 time=0.03763439166666667
EXTRACT: note_on channel=0 note=52 velocity=0 time=0.005376341666666667
EXTRACT: control_change channel=5 control=11 value=106 time=0.010752683333333334
EXTRACT: note_on channel=0 note=52 velocity=100 time=0.05376341666666667
EXTRACT: note_on channel=3 note=76 velocity=116 time=0
EXTRACT: control_change channel=5 control=11 value=102 time=0
EXTRACT: control_change channel=5 control=11 value=98 time=0.05376341666666667
EXTRACT: note_on channel=0 note=64 velocity=0 time=0.05376341666666667
EXTRACT: control_change channel=5 control=11 value=94 time=0
EXTRACT: note_on channel=0 note=52 velocity=0 time=0.010752683333333334
EXTRACT: note_on channel=0 note=56 velocity=0 time=0.03763439166666667
EXTRACT: control_change channel=5 control=11 value=90 time=0.005376341666666667
EXTRACT: control_change channel=5 control=11 value=86 time=0.05376341666666667
EXTRACT: control_change channel=5 control=11 value=82 time=0.05376341666666667
EXTRACT: note_on channel=3 note=76 velocity=0 time=0.026881708333333334
EXTRACT: note_on channel=5 note=71 velocity=0 time=0.021505366666666668
EXTRACT: note_on channel=2 note=52 velocity=0 time=0
EXTRACT: note_on channel=5 note=64 velocity=0 time=0
EXTRACT: note_on channel=5 note=68 velocity=0 time=0
EXTRACT: note_on channel=10 note=64 velocity=0 time=0.005376341666666667
EXTRACT: note_on channel=10 note=68 velocity=0 time=0
EXTRACT: note_on channel=10 note=76 velocity=0 time=0
EXTRACT: note_on channel=10 note=71 velocity=0 time=0
EXTRACT: note_on channel=0 note=61 velocity=100 time=0
EXTRACT: note_on channel=0 note=64 velocity=116 time=0
EXTRACT: note_on channel=0 note=69 velocity=111 time=0
EXTRACT: note_on channel=2 note=57 velocity=109 time=0
EXTRACT: note_on channel=3 note=73 velocity=116 time=0
EXTRACT: note_on channel=5 note=64 velocity=96 time=0
EXTRACT: note_on channel=5 note=69 velocity=107 time=0
EXTRACT: note_on channel=5 note=73 velocity=96 time=0
EXTRACT: control_change channel=5 control=11 value=74 time=0
EXTRACT: control_change channel=5 control=11 value=127 time=0
EXTRACT: note_on channel=9 note=36 velocity=120 time=0
EXTRACT: note_on channel=10 note=73 velocity=100 time=0
EXTRACT: note_on channel=10 note=69 velocity=100 time=0
EXTRACT: note_on channel=10 note=76 velocity=100 time=0
EXTRACT: note_on channel=10 note=69 velocity=100 time=0
EXTRACT: control_change channel=0 control=64 value=0 time=0.016129025
EXTRACT: control_change channel=5 control=11 value=122 time=0.03763439166666667
EXTRACT: control_change channel=5 control=11 value=118 time=0.05376341666666667
EXTRACT: note_on channel=9 note=36 velocity=0 time=0.03763439166666667
EXTRACT: control_change channel=5 control=11 value=114 time=0.016129025
EXTRACT: control_change channel=0 control=64 value=127 time=0.05376341666666667
EXTRACT: control_change channel=5 control=11 value=110 time=0
EXTRACT: control_change channel=5 control=11 value=106 time=0.05376341666666667
EXTRACT: note_on channel=0 note=45 velocity=84 time=0.05376341666666667
EXTRACT: note_on channel=0 note=57 velocity=82 time=0
EXTRACT: control_change channel=5 control=11 value=102 time=0
EXTRACT: note_on channel=0 note=69 velocity=0 time=0.021505366666666668
EXTRACT: note_on channel=0 note=64 velocity=0 time=0.021505366666666668
EXTRACT: note_on channel=0 note=61 velocity=0 time=0.010752683333333334
EXTRACT: control_change channel=5 control=11 value=98 time=0
EXTRACT: control_change channel=5 control=11 value=94 time=0.05376341666666667
EXTRACT: control_change channel=5 control=11 value=90 time=0.05376341666666667
EXTRACT: note_on channel=9 note=36 velocity=120 time=0
EXTRACT: control_change channel=5 control=11 value=86 time=0.05376341666666667
EXTRACT: note_on channel=0 note=45 velocity=0 time=0.010752683333333334
EXTRACT: control_change channel=5 control=11 value=82 time=0.043010733333333336
EXTRACT: note_on channel=9 note=36 velocity=0 time=0.010752683333333334
EXTRACT: note_on channel=0 note=57 velocity=0 time=0.021505366666666668
EXTRACT: note_on channel=5 note=64 velocity=0 time=0.016129025
EXTRACT: note_on channel=2 note=57 velocity=0 time=0
EXTRACT: note_on channel=5 note=73 velocity=0 time=0
EXTRACT: note_on channel=5 note=69 velocity=0 time=0
EXTRACT: note_on channel=0 note=61 velocity=95 time=0.005376341666666667
EXTRACT: note_on channel=0 note=64 velocity=113 time=0
EXTRACT: note_on channel=0 note=69 velocity=109 time=0
EXTRACT: note_on channel=2 note=57 velocity=108 time=0
EXTRACT: note_on channel=5 note=64 velocity=94 time=0
EXTRACT: note_on channel=5 note=69 velocity=109 time=0
EXTRACT: note_on channel=5 note=73 velocity=97 time=0
EXTRACT: control_change channel=5 control=11 value=74 time=0
EXTRACT: control_change channel=5 control=11 value=127 time=0
EXTRACT: note_on channel=9 note=38 velocity=120 time=0
EXTRACT: note_on channel=9 note=39 velocity=120 time=0
EXTRACT: control_change channel=5 control=11 value=122 time=0.05376341666666667
EXTRACT: control_change channel=5 control=11 value=118 time=0.05376341666666667
EXTRACT: note_on channel=9 note=38 velocity=0 time=0.005376341666666667
EXTRACT: note_on channel=9 note=39 velocity=0 time=0.016129025
EXTRACT: control_change channel=5 control=11 value=114 time=0.03225805
EXTRACT: control_change channel=5 control=11 value=110 time=0.05376341666666667
EXTRACT: note_on channel=0 note=69 velocity=0 time=0.05376341666666667
EXTRACT: control_change channel=5 control=11 value=106 time=0
EXTRACT: note_on channel=0 note=64 velocity=0 time=0.03225805
EXTRACT: note_on channel=0 note=61 velocity=0 time=0.021505366666666668
EXTRACT: note_on channel=0 note=57 velocity=99 time=0
EXTRACT: note_on channel=4 note=64 velocity=107 time=0
EXTRACT: note_on channel=4 note=69 velocity=112 time=0
EXTRACT: control_change channel=5 control=11 value=102 time=0
EXTRACT: note_on channel=9 note=36 velocity=120 time=0
EXTRACT: control_change channel=5 control=11 value=98 time=0.05376341666666667
EXTRACT: control_change channel=5 control=11 value=94 time=0.05376341666666667
EXTRACT: note_on channel=9 note=36 velocity=0 time=0.043010733333333336
EXTRACT: control_change channel=5 control=11 value=90 time=0.010752683333333334
EXTRACT: note_on channel=4 note=69 velocity=0 time=0.05376341666666667
EXTRACT: control_change channel=5 control=11 value=86 time=0
EXTRACT: note_on channel=4 note=64 velocity=0 time=0.026881708333333334
EXTRACT: control_change channel=5 control=11 value=82 time=0.026881708333333334
EXTRACT: note_on channel=2 note=57 velocity=0 time=0.048387075
EXTRACT: note_on channel=5 note=69 velocity=0 time=0
EXTRACT: note_on channel=5 note=73 velocity=0 time=0
EXTRACT: note_on channel=5 note=64 velocity=0 time=0
EXTRACT: note_on channel=0 note=61 velocity=99 time=0.005376341666666667
EXTRACT: note_on channel=0 note=64 velocity=112 time=0
EXTRACT: note_on channel=0 note=69 velocity=109 time=0
EXTRACT: note_on channel=2 note=57 velocity=107 time=0
EXTRACT: note_on channel=4 note=64 velocity=107 time=0
EXTRACT: note_on channel=4 note=69 velocity=109 time=0
EXTRACT: note_on channel=5 note=64 velocity=96 time=0
EXTRACT: note_on channel=5 note=69 velocity=107 time=0
EXTRACT: note_on channel=5 note=73 velocity=98 time=0
EXTRACT: control_change channel=5 control=11 value=74 time=0
EXTRACT: control_change channel=5 control=11 value=127 time=0
EXTRACT: note_on channel=0 note=57 velocity=0 time=0.010752683333333334
EXTRACT: control_change channel=5 control=11 value=122 time=0.043010733333333336
EXTRACT: control_change channel=5 control=11 value=118 time=0.05376341666666667
EXTRACT: control_change channel=5 control=11 value=114 time=0.05376341666666667
EXTRACT: control_change channel=5 control=11 value=110 time=0.05376341666666667
EXTRACT: control_change channel=5 control=11 value=106 time=0.05376341666666667
EXTRACT: note_on channel=0 note=57 velocity=99 time=0.05376341666666667
EXTRACT: control_change channel=5 control=11 value=102 time=0
EXTRACT: note_on channel=9 note=36 velocity=120 time=0
EXTRACT: note_on channel=0 note=69 velocity=0 time=0.021505366666666668
EXTRACT: note_on channel=0 note=64 velocity=0 time=0.010752683333333334
EXTRACT: note_on channel=0 note=61 velocity=0 time=0.010752683333333334
EXTRACT: control_change channel=5 control=11 value=98 time=0.010752683333333334
EXTRACT: control_change channel=5 control=11 value=94 time=0.05376341666666667
EXTRACT: note_on channel=9 note=36 velocity=0 time=0.021505366666666668
EXTRACT: control_change channel=5 control=11 value=90 time=0.03225805
EXTRACT: control_change channel=5 control=11 value=86 time=0.05376341666666667
EXTRACT: control_change channel=5 control=11 value=82 time=0.05376341666666667
EXTRACT: note_on channel=5 note=69 velocity=0 time=0.048387075
EXTRACT: note_on channel=2 note=57 velocity=0 time=0
EXTRACT: note_on channel=5 note=64 velocity=0 time=0
EXTRACT: note_on channel=5 note=73 velocity=0 time=0
EXTRACT: note_on channel=0 note=61 velocity=97 time=0.005376341666666667
EXTRACT: note_on channel=0 note=64 velocity=111 time=0
EXTRACT: note_on channel=0 note=69 velocity=111 time=0
EXTRACT: note_on channel=2 note=57 velocity=108 time=0
EXTRACT: note_on channel=5 note=64 velocity=100 time=0
EXTRACT: note_on channel=5 note=69 velocity=108 time=0
EXTRACT: note_on channel=5 note=73 velocity=100 time=0
EXTRACT: control_change channel=5 control=11 value=74 time=0
EXTRACT: control_change channel=5 control=11 value=127 time=0
EXTRACT: note_on channel=9 note=38 velocity=120 time=0
EXTRACT: note_on channel=9 note=39 velocity=120 time=0
EXTRACT: note_on channel=0 note=57 velocity=0 time=0.021505366666666668
EXTRACT: control_change channel=5 control=11 value=122 time=0.03225805
EXTRACT: control_change channel=5 control=11 value=118 time=0.05376341666666667
EXTRACT: note_on channel=9 note=38 velocity=0 time=0.010752683333333334
EXTRACT: note_on channel=9 note=39 velocity=0 time=0.010752683333333334
EXTRACT: control_change channel=5 control=11 value=114 time=0.03225805
EXTRACT: note_on channel=4 note=69 velocity=0 time=0.048387075
EXTRACT: control_change channel=5 control=11 value=110 time=0.005376341666666667
EXTRACT: note_on channel=4 note=64 velocity=0 time=0.005376341666666667
EXTRACT: control_change channel=5 control=11 value=106 time=0.048387075
EXTRACT: note_on channel=0 note=69 velocity=0 time=0.010752683333333334
EXTRACT: note_on channel=0 note=64 velocity=0 time=0.021505366666666668
EXTRACT: note_on channel=0 note=57 velocity=99 time=0.021505366666666668
EXTRACT: note_on channel=4 note=61 velocity=103 time=0
EXTRACT: note_on channel=4 note=66 velocity=106 time=0
EXTRACT: control_change channel=5 control=11 value=102 time=0
EXTRACT: note_on channel=0 note=61 velocity=0 time=0.005376341666666667
EXTRACT: control_change channel=5 control=11 value=98 time=0.048387075
EXTRACT: control_change channel=5 control=11 value=94 time=0.05376341666666667
EXTRACT: control_change channel=5 control=11 value=90 time=0.05376341666666667
EXTRACT: note_on channel=4 note=61 velocity=0 time=0.05376341666666667
EXTRACT: control_change channel=5 control=11 value=86 time=0
EXTRACT: note_on channel=4 note=66 velocity=0 time=0.016129025
EXTRACT: note_on channel=3 note=73 velocity=0 time=0.005376341666666667
EXTRACT: control_change channel=5 control=11 value=82 time=0.03225805
EXTRACT: note_on channel=5 note=64 velocity=0 time=0.048387075
EXTRACT: note_on channel=2 note=57 velocity=0 time=0
EXTRACT: note_on channel=5 note=73 velocity=0 time=0
EXTRACT: note_on channel=5 note=69 velocity=0 time=0
EXTRACT: control_change channel=0 control=64 value=0 time=0
EXTRACT: note_on channel=10 note=73 velocity=0 time=0.005376341666666667
EXTRACT: note_on channel=10 note=69 velocity=0 time=0
EXTRACT: note_on channel=10 note=76 velocity=0 time=0
EXTRACT: note_on channel=10 note=69 velocity=0 time=0
EXTRACT: note_on channel=0 note=61 velocity=97 time=0
EXTRACT: note_on channel=0 note=66 velocity=101 time=0
EXTRACT: note_on channel=0 note=69 velocity=101 time=0
EXTRACT: note_on channel=2 note=54 velocity=100 time=0
EXTRACT: note_on channel=4 note=61 velocity=109 time=0
EXTRACT: note_on channel=4 note=66 velocity=114 time=0
EXTRACT: note_on channel=5 note=66 velocity=97 time=0
EXTRACT: note_on channel=5 note=69 velocity=111 time=0
EXTRACT: note_on channel=5 note=73 velocity=100 time=0
EXTRACT: control_change channel=5 control=11 value=74 time=0
EXTRACT: control_change channel=5 control=11 value=127 time=0
EXTRACT: note_on channel=9 note=36 velocity=120 time=0
EXTRACT: note_on channel=10 note=73 velocity=100 time=0
EXTRACT: note_on channel=10 note=69 velocity=100 time=0
EXTRACT: note_on channel=10 note=78 velocity=100 time=0
EXTRACT: note_on channel=10 note=66 velocity=100 time=0
EXTRACT: note_on channel=0 note=57 velocity=0 time=0.05376341666666667
EXTRACT: control_change channel=5 control=11 value=122 time=0
EXTRACT: control_change channel=5 control=11 value=118 time=0.05376341666666667
EXTRACT: note_on channel=9 note=36 velocity=0 time=0.03763439166666667
EXTRACT: control_change channel=5 control=11 value=114 time=0.016129025
EXTRACT: control_change channel=5 control=11 value=110 time=0.05376341666666667
EXTRACT: control_change channel=0 control=64 value=127 time=0.010752683333333334
EXTRACT: control_change channel=5 control=11 value=106 time=0.043010733333333336
EXTRACT: note_on channel=0 note=69 velocity=0 time=0.05376341666666667
EXTRACT: note_on channel=0 note=57 velocity=98 time=0
EXTRACT: control_change channel=5 control=11 value=102 time=0
EXTRACT: note_on channel=0 note=66 velocity=0 time=0.03763439166666667
EXTRACT: note_on channel=0 note=61 velocity=0 time=0.016129025
EXTRACT: control_change channel=5 control=11 value=98 time=0
EXTRACT: control_change channel=5 control=11 value=94 time=0.05376341666666667
EXTRACT: control_change channel=5 control=11 value=90 time=0.05376341666666667
EXTRACT: note_on channel=9 note=36 velocity=120 time=0
EXTRACT: control_change channel=5 control=11 value=86 time=0.05376341666666667
EXTRACT: note_on channel=9 note=36 velocity=0 time=0.043010733333333336
EXTRACT: control_change channel=5 control=11 value=82 time=0.010752683333333334
EXTRACT: note_on channel=5 note=69 velocity=0 time=0.048387075
EXTRACT: note_on channel=2 note=54 velocity=0 time=0
EXTRACT: note_on channel=5 note=73 velocity=0 time=0
EXTRACT: note_on channel=5 note=66 velocity=0 time=0
EXTRACT: note_on channel=0 note=57 velocity=0 time=0.005376341666666667
EXTRACT: note_on channel=0 note=61 velocity=99 time=0
EXTRACT: note_on channel=0 note=66 velocity=102 time=0
EXTRACT: note_on channel=0 note=69 velocity=109 time=0
EXTRACT: note_on channel=2 note=54 velocity=97 time=0
EXTRACT: note_on channel=3 note=73 velocity=116 time=0
EXTRACT: note_on channel=5 note=66 velocity=95 time=0
EXTRACT: note_on channel=5 note=69 velocity=109 time=0
EXTRACT: note_on channel=5 note=73 velocity=97 time=0
EXTRACT: control_change channel=5 control=11 value=74 time=0
EXTRACT: control_change channel=5 control=11 value=127 time=0
EXTRACT: note_on channel=9 note=38 velocity=120 time=0
EXTRACT: note_on channel=9 note=39 velocity=120 time=0
EXTRACT: control_change channel=5 control=11 value=122 time=0.05376341666666667
EXTRACT: note_on channel=4 note=61 velocity=0 time=0.048387075
EXTRACT: note_on channel=4 note=66 velocity=0 time=0
EXTRACT: note_on channel=9 note=38 velocity=0 time=0.005376341666666667
EXTRACT: control_change channel=5 control=11 value=118 time=0
EXTRACT: note_on channel=9 note=39 velocity=0 time=0.005376341666666667
EXTRACT: control_change channel=5 control=11 value=114 time=0.048387075
EXTRACT: control_change channel=5 control=11 value=110 time=0.05376341666666667
EXTRACT: control_change channel=5 control=11 value=106 time=0.05376341666666667
EXTRACT: note_on channel=0 note=69 velocity=0 time=0.021505366666666668
EXTRACT: note_on channel=0 note=66 velocity=0 time=0.03225805
EXTRACT: note_on channel=0 note=57 velocity=107 time=0
EXTRACT: control_change channel=5 control=11 value=102 time=0
EXTRACT: note_on channel=9 note=36 velocity=120 time=0
EXTRACT: note_on channel=0 note=61 velocity=0 time=0.021505366666666668
EXTRACT: note_on channel=3 note=73 velocity=0 time=0.005376341666666667
EXTRACT: control_change channel=5 control=11 value=98 time=0.026881708333333334
EXTRACT: control_change channel=5 control=11 value=94 time=0.05376341666666667
EXTRACT: note_on channel=9 note=36 velocity=0 time=0.021505366666666668
EXTRACT: control_change channel=5 control=11 value=90 time=0.03225805
EXTRACT: control_change channel=5 control=11 value=86 time=0.05376341666666667
EXTRACT: control_change channel=5 control=11 value=82 time=0.05376341666666667
EXTRACT: note_on channel=5 note=66 velocity=0 time=0.048387075
EXTRACT: note_on channel=2 note=54 velocity=0 time=0
EXTRACT: note_on channel=5 note=69 velocity=0 time=0
EXTRACT: note_on channel=5 note=73 velocity=0 time=0
EXTRACT: note_on channel=0 note=61 velocity=108 time=0.005376341666666667
EXTRACT: note_on channel=0 note=66 velocity=108 time=0
EXTRACT: note_on channel=0 note=69 velocity=113 time=0
EXTRACT: note_on channel=2 note=54 velocity=106 time=0
EXTRACT: note_on channel=3 note=73 velocity=119 time=0
EXTRACT: note_on channel=5 note=66 velocity=96 time=0
EXTRACT: note_on channel=5 note=69 velocity=110 time=0
EXTRACT: note_on channel=5 note=73 velocity=100 time=0
EXTRACT: control_change channel=5 control=11 value=74 time=0
EXTRACT: control_change channel=5 control=11 value=127 time=0
EXTRACT: control_change channel=5 control=11 value=122 time=0.05376341666666667
EXTRACT: note_on channel=0 note=57 velocity=0 time=0.026881708333333334
EXTRACT: control_change channel=5 control=11 value=118 time=0.026881708333333334
EXTRACT: control_change channel=5 control=11 value=114 time=0.05376341666666667
EXTRACT: control_change channel=5 control=11 value=110 time=0.05376341666666667
EXTRACT: control_change channel=5 control=11 value=106 time=0.05376341666666667
EXTRACT: note_on channel=3 note=73 velocity=0 time=0.03225805
EXTRACT: note_on channel=0 note=69 velocity=0 time=0
EXTRACT: note_on channel=0 note=66 velocity=0 time=0.021505366666666668
EXTRACT: note_on channel=0 note=57 velocity=100 time=0
EXTRACT: note_on channel=3 note=71 velocity=112 time=0
EXTRACT: control_change channel=5 control=11 value=102 time=0
EXTRACT: note_on channel=9 note=36 velocity=120 time=0
EXTRACT: note_on channel=0 note=61 velocity=0 time=0.005376341666666667
EXTRACT: control_change channel=5 control=11 value=98 time=0.048387075
EXTRACT: control_change channel=5 control=11 value=94 time=0.05376341666666667
EXTRACT: note_on channel=9 note=36 velocity=0 time=0.010752683333333334
EXTRACT: control_change channel=5 control=11 value=90 time=0.043010733333333336
EXTRACT: control_change channel=5 control=11 value=86 time=0.05376341666666667
EXTRACT: note_on channel=3 note=71 velocity=0 time=0.05376341666666667
EXTRACT: control_change channel=5 control=11 value=82 time=0
EXTRACT: note_on channel=0 note=57 velocity=0 time=0.043010733333333336
EXTRACT: note_on channel=5 note=69 velocity=0 time=0.005376341666666667
EXTRACT: note_on channel=2 note=54 velocity=0 time=0
EXTRACT: note_on channel=5 note=66 velocity=0 time=0
EXTRACT: note_on channel=5 note=73 velocity=0 time=0
EXTRACT: note_on channel=0 note=61 velocity=102 time=0.005376341666666667
EXTRACT: note_on channel=0 note=66 velocity=106 time=0
EXTRACT: note_on channel=0 note=69 velocity=112 time=0
EXTRACT: note_on channel=2 note=54 velocity=101 time=0
EXTRACT: note_on channel=3 note=69 velocity=119 time=0
EXTRACT: note_on channel=5 note=66 velocity=97 time=0
EXTRACT: note_on channel=5 note=69 velocity=112 time=0
EXTRACT: note_on channel=5 note=73 velocity=97 time=0
EXTRACT: control_change channel=5 control=11 value=74 time=0
EXTRACT: control_change channel=5 control=11 value=127 time=0
EXTRACT: note_on channel=9 note=38 velocity=120 time=0
EXTRACT: note_on channel=9 note=39 velocity=120 time=0
EXTRACT: control_change channel=5 control=11 value=122 time=0.05376341666666667
EXTRACT: note_on channel=9 note=38 velocity=0 time=0.048387075
EXTRACT: control_change channel=5 control=11 value=118 time=0.005376341666666667
EXTRACT: note_on channel=9 note=39 velocity=0 time=0.005376341666666667
EXTRACT: control_change channel=5 control=11 value=114 time=0.048387075
EXTRACT: note_on channel=3 note=69 velocity=0 time=0.03763439166666667
EXTRACT: control_change channel=5 control=11 value=110 time=0.016129025
EXTRACT: note_on channel=0 note=69 velocity=0 time=0.03763439166666667
EXTRACT: control_change channel=5 control=11 value=106 time=0.016129025
EXTRACT: note_on channel=0 note=66 velocity=0 time=0.021505366666666668
EXTRACT: note_on channel=0 note=61 velocity=0 time=0.005376341666666667
EXTRACT: note_on channel=0 note=57 velocity=99 time=0.026881708333333334
EXTRACT: note_on channel=3 note=71 velocity=115 time=0
EXTRACT: note_on channel=4 note=64 velocity=112 time=0
EXTRACT: note_on channel=4 note=68 velocity=111 time=0
EXTRACT: control_change channel=5 control=11 value=102 time=0
EXTRACT: note_on channel=15 note=68 velocity=1 time=0
EXTRACT: note_on channel=15 note=64 velocity=1 time=0
EXTRACT: control_change channel=5 control=11 value=98 time=0.05376341666666667
EXTRACT: control_change channel=5 control=11 value=94 time=0.05376341666666667
EXTRACT: control_change channel=5 control=11 value=90 time=0.05376341666666667
EXTRACT: control_change channel=5 control=11 value=86 time=0.05376341666666667
EXTRACT: note_on channel=15 note=64 velocity=0 time=0.016129025
EXTRACT: note_on channel=4 note=64 velocity=0 time=0
EXTRACT: note_on channel=3 note=71 velocity=0 time=0.005376341666666667
EXTRACT: note_on channel=4 note=68 velocity=0 time=0.005376341666666667
EXTRACT: note_on channel=15 note=68 velocity=0 time=0
EXTRACT: control_change channel=5 control=11 value=82 time=0.026881708333333334
EXTRACT: note_on channel=5 note=73 velocity=0 time=0.048387075
EXTRACT: note_on channel=2 note=54 velocity=0 time=0
EXTRACT: note_on channel=5 note=69 velocity=0 time=0
EXTRACT: note_on channel=5 note=66 velocity=0 time=0
EXTRACT: note_on channel=10 note=66 velocity=0 time=0.005376341666666667
EXTRACT: note_on channel=10 note=78 velocity=0 time=0
EXTRACT: note_on channel=10 note=73 velocity=0 time=0
EXTRACT: note_on channel=10 note=69 velocity=0 time=0
EXTRACT: note_on channel=0 note=56 velocity=100 time=0
EXTRACT: note_on channel=0 note=61 velocity=101 time=0
EXTRACT: note_on channel=0 note=64 velocity=110 time=0
EXTRACT: note_on channel=0 note=68 velocity=95 time=0
EXTRACT: note_on channel=2 note=49 velocity=98 time=0
EXTRACT: note_on channel=3 note=71 velocity=115 time=0
EXTRACT: note_on channel=4 note=64 velocity=110 time=0
EXTRACT: note_on channel=4 note=68 velocity=108 time=0
EXTRACT: note_on channel=5 note=64 velocity=100 time=0
EXTRACT: note_on channel=5 note=68 velocity=102 time=0
EXTRACT: note_on channel=5 note=73 velocity=100 time=0
EXTRACT: control_change channel=5 control=11 value=74 time=0
EXTRACT: control_change channel=5 control=11 value=127 time=0
EXTRACT: note_on channel=9 note=36 velocity=120 time=0
EXTRACT: note_on channel=10 note=73 velocity=100 time=0
EXTRACT: note_on channel=10 note=68 velocity=100 time=0
EXTRACT: note_on channel=10 note=76 velocity=100 time=0
EXTRACT: note_on channel=10 note=61 velocity=100 time=0
EXTRACT: note_on channel=15 note=68 velocity=1 time=0
EXTRACT: note_on channel=15 note=64 velocity=1 time=0
EXTRACT: note_on channel=0 note=57 velocity=0 time=0.005376341666666667
EXTRACT: control_change channel=5 control=11 value=122 time=0.048387075
EXTRACT: control_change channel=0 control=64 value=0 time=0.021505366666666668
EXTRACT: control_change channel=5 control=11 value=118 time=0.03225805
EXTRACT: note_on channel=9 note=36 velocity=0 time=0.026881708333333334
EXTRACT: control_change channel=5 control=11 value=114 time=0.026881708333333334
EXTRACT: control_change channel=5 control=11 value=110 time=0.05376341666666667
EXTRACT: control_change channel=0 control=64 value=127 time=0.048387075
EXTRACT: control_change channel=5 control=11 value=106 time=0.005376341666666667
EXTRACT: note_on channel=0 note=64 velocity=0 time=0.005376341666666667
EXTRACT: note_on channel=0 note=61 velocity=0 time=0.043010733333333336
EXTRACT: note_on channel=0 note=49 velocity=83 time=0.005376341666666667
EXTRACT: control_change channel=5 control=11 value=102 time=0
EXTRACT: note_on channel=0 note=68 velocity=0 time=0.010752683333333334
EXTRACT: note_on channel=0 note=56 velocity=0 time=0.010752683333333334
EXTRACT: control_change channel=5 control=11 value=98 time=0.03225805
EXTRACT: control_change channel=5 control=11 value=94 time=0.05376341666666667
EXTRACT: control_change channel=5 control=11 value=90 time=0.05376341666666667
EXTRACT: note_on channel=9 note=36 velocity=120 time=0
EXTRACT: control_change channel=5 control=11 value=86 time=0.05376341666666667
EXTRACT: note_on channel=0 note=49 velocity=0 time=0.021505366666666668
EXTRACT: note_on channel=9 note=36 velocity=0 time=0.016129025
EXTRACT: control_change channel=5 control=11 value=82 time=0.016129025
EXTRACT: note_on channel=5 note=64 velocity=0 time=0.048387075
EXTRACT: note_on channel=5 note=68 velocity=0 time=0
EXTRACT: note_on channel=5 note=73 velocity=0 time=0
EXTRACT: note_on channel=2 note=49 velocity=0 time=0
EXTRACT: note_on channel=0 note=56 velocity=99 time=0.005376341666666667
EXTRACT: note_on channel=0 note=61 velocity=100 time=0
EXTRACT: note_on channel=0 note=64 velocity=107 time=0
EXTRACT: note_on channel=0 note=68 velocity=98 time=0
EXTRACT: note_on channel=2 note=49 velocity=96 time=0
EXTRACT: note_on channel=5 note=64 velocity=98 time=0
EXTRACT: note_on channel=5 note=68 velocity=101 time=0
EXTRACT: note_on channel=5 note=73 velocity=100 time=0
EXTRACT: control_change channel=5 control=11 value=74 time=0
EXTRACT: control_change channel=5 control=11 value=127 time=0
EXTRACT: note_on channel=9 note=38 velocity=120 time=0
EXTRACT: note_on channel=9 note=39 velocity=120 time=0
EXTRACT: control_change channel=5 control=11 value=122 time=0.05376341666666667
EXTRACT: note_on channel=4 note=64 velocity=0 time=0.043010733333333336
EXTRACT: note_on channel=15 note=64 velocity=0 time=0
EXTRACT: control_change channel=5 control=11 value=118 time=0.010752683333333334
EXTRACT: note_on channel=9 note=38 velocity=0 time=0.016129025
EXTRACT: note_on channel=9 note=39 velocity=0 time=0.005376341666666667
EXTRACT: note_on channel=3 note=69 velocity=107 time=0.03225805
EXTRACT: note_on channel=4 note=61 velocity=106 time=0
EXTRACT: note_on channel=4 note=66 velocity=100 time=0
EXTRACT: control_change channel=5 control=11 value=114 time=0
EXTRACT: note_on channel=15 note=66 velocity=1 time=0
EXTRACT: note_on channel=15 note=61 velocity=1 time=0
EXTRACT: note_on channel=3 note=71 velocity=0 time=0.010752683333333334
EXTRACT: note_on channel=4 note=68 velocity=0 time=0.016129025
EXTRACT: note_on channel=15 note=68 velocity=0 time=0
EXTRACT: note_on channel=0 note=64 velocity=0 time=0.005376341666666667
EXTRACT: note_on channel=0 note=56 velocity=0 time=0.021505366666666668
EXTRACT: control_change channel=5 control=11 value=110 time=0
EXTRACT: note_on channel=0 note=61 velocity=0 time=0.021505366666666668
EXTRACT: control_change channel=5 control=11 value=106 time=0.03225805
EXTRACT: note_on channel=3 note=69 velocity=0 time=0.016129025
EXTRACT: note_on channel=0 note=68 velocity=0 time=0.026881708333333334
EXTRACT: note_on channel=0 note=56 velocity=100 time=0.010752683333333334
EXTRACT: note_on channel=3 note=68 velocity=120 time=0
EXTRACT: note_on channel=4 note=59 velocity=112 time=0
EXTRACT: note_on channel=4 note=64 velocity=108 time=0
EXTRACT: control_change channel=5 control=11 value=102 time=0
EXTRACT: note_on channel=9 note=36 velocity=120 time=0
EXTRACT: note_on channel=15 note=64 velocity=1 time=0
EXTRACT: note_on channel=15 note=59 velocity=1 time=0
EXTRACT: note_on channel=4 note=61 velocity=0 time=0.021505366666666668
EXTRACT: note_on channel=15 note=66 velocity=0 time=0
EXTRACT: note_on channel=15 note=61 velocity=0 time=0
EXTRACT: note_on channel=4 note=66 velocity=0 time=0
EXTRACT: control_change channel=5 control=11 value=98 time=0.03225805
EXTRACT: control_change channel=5 control=11 value=94 time=0.05376341666666667
EXTRACT: note_on channel=9 note=36 velocity=0 time=0.03225805
EXTRACT: note_on channel=3 note=68 velocity=0 time=0
EXTRACT: note_on channel=4 note=64 velocity=0 time=0.016129025
EXTRACT: note_on channel=15 note=59 velocity=0 time=0
EXTRACT: note_on channel=15 note=64 velocity=0 time=0
EXTRACT: note_on channel=4 note=59 velocity=0 time=0
EXTRACT: note_on channel=3 note=66 velocity=114 time=0.005376341666666667
EXTRACT: note_on channel=4 note=57 velocity=109 time=0
EXTRACT: note_on channel=4 note=61 velocity=116 time=0
EXTRACT: control_change channel=5 control=11 value=90 time=0
EXTRACT: note_on channel=15 note=57 velocity=1 time=0
EXTRACT: note_on channel=15 note=61 velocity=1 time=0
EXTRACT: control_change channel=5 control=11 value=86 time=0.05376341666666667
EXTRACT: control_change channel=5 control=11 value=82 time=0.05376341666666667
EXTRACT: note_on channel=0 note=56 velocity=0 time=0.005376341666666667
EXTRACT: note_on channel=3 note=66 velocity=0 time=0.005376341666666667
EXTRACT: note_on channel=15 note=61 velocity=0 time=0.026881708333333334
EXTRACT: note_on channel=4 note=61 velocity=0 time=0
EXTRACT: note_on channel=2 note=49 velocity=0 time=0.010752683333333334
EXTRACT: note_on channel=5 note=64 velocity=0 time=0
EXTRACT: note_on channel=5 note=73 velocity=0 time=0
EXTRACT: note_on channel=5 note=68 velocity=0 time=0
EXTRACT: note_on channel=0 note=61 velocity=103 time=0.005376341666666667
EXTRACT: note_on channel=0 note=64 velocity=113 time=0
EXTRACT: note_on channel=0 note=68 velocity=98 time=0
EXTRACT: note_on channel=2 note=49 velocity=97 time=0
EXTRACT: note_on channel=3 note=64 velocity=116 time=0
EXTRACT: note_on channel=4 note=56 velocity=106 time=0
EXTRACT: note_on channel=4 note=59 velocity=112 time=0
EXTRACT: note_on channel=5 note=64 velocity=99 time=0
EXTRACT: note_on channel=5 note=68 velocity=102 time=0
EXTRACT: note_on channel=5 note=73 velocity=100 time=0
EXTRACT: control_change channel=5 control=11 value=74 time=0
EXTRACT: control_change channel=5 control=11 value=127 time=0
EXTRACT: note_on channel=15 note=59 velocity=1 time=0
EXTRACT: note_on channel=15 note=56 velocity=1 time=0
EXTRACT: note_on channel=4 note=57 velocity=0 time=0.010752683333333334
EXTRACT: note_on channel=15 note=57 velocity=0 time=0
EXTRACT: control_change channel=5 control=11 value=122 time=0.043010733333333336
EXTRACT: control_change channel=5 control=11 value=118 time=0.05376341666666667
EXTRACT: control_change channel=5 control=11 value=114 time=0.05376341666666667
EXTRACT: control_change channel=5 control=11 value=110 time=0.05376341666666667
EXTRACT: note_on channel=0 note=64 velocity=0 time=0.026881708333333334
EXTRACT: control_change channel=5 control=11 value=106 time=0.026881708333333334
EXTRACT: note_on channel=0 note=61 velocity=0 time=0.021505366666666668
EXTRACT: note_on channel=0 note=56 velocity=100 time=0.03225805
EXTRACT: control_change channel=5 control=11 value=102 time=0
EXTRACT: note_on channel=9 note=36 velocity=120 time=0
EXTRACT: note_on channel=0 note=68 velocity=0 time=0.005376341666666667
EXTRACT: control_change channel=5 control=11 value=98 time=0.048387075
EXTRACT: control_change channel=5 control=11 value=94 time=0.05376341666666667
EXTRACT: note_on channel=9 note=36 velocity=0 time=0.010752683333333334
EXTRACT: control_change channel=5 control=11 value=90 time=0.043010733333333336
EXTRACT: control_change channel=5 control=11 value=86 time=0.05376341666666667
EXTRACT: note_on channel=0 note=56 velocity=0 time=0.048387075
EXTRACT: control_change channel=5 control=11 value=82 time=0.005376341666666667
EXTRACT: note_on channel=5 note=73 velocity=0 time=0.048387075
EXTRACT: note_on channel=2 note=49 velocity=0 time=0
EXTRACT: note_on channel=5 note=68 velocity=0 time=0
EXTRACT: note_on channel=5 note=64 velocity=0 time=0
EXTRACT: note_on channel=0 note=61 velocity=106 time=0.005376341666666667
EXTRACT: note_on channel=0 note=64 velocity=115 time=0
EXTRACT: note_on channel=0 note=68 velocity=102 time=0
EXTRACT: note_on channel=2 note=49 velocity=96 time=0
EXTRACT: note_on channel=5 note=64 velocity=99 time=0
EXTRACT: note_on channel=5 note=68 velocity=100 time=0
EXTRACT: note_on channel=5 note=73 velocity=97 time=0
EXTRACT: control_change channel=5 control=11 value=74 time=0
EXTRACT: control_change channel=5 control=11 value=127 time=0
EXTRACT: note_on channel=9 note=38 velocity=120 time=0
EXTRACT: note_on channel=9 note=39 velocity=120 time=0
EXTRACT: control_change channel=5 control=11 value=122 time=0.05376341666666667
EXTRACT: control_change channel=5 control=11 value=118 time=0.05376341666666667
EXTRACT: note_on channel=9 note=38 velocity=0 time=0.005376341666666667
EXTRACT: note_on channel=9 note=39 velocity=0 time=0.010752683333333334
EXTRACT: control_change channel=5 control=11 value=114 time=0.03763439166666667
EXTRACT: control_change channel=5 control=11 value=110 time=0.05376341666666667
EXTRACT: note_on channel=0 note=64 velocity=0 time=0.005376341666666667
EXTRACT: note_on channel=3 note=64 velocity=0 time=0.026881708333333334
EXTRACT: note_on channel=0 note=61 velocity=0 time=0.016129025
EXTRACT: control_change channel=5 control=11 value=106 time=0.005376341666666667
EXTRACT: note_on channel=0 note=68 velocity=0 time=0.05376341666666667
EXTRACT: note_on channel=0 note=56 velocity=95 time=0
EXTRACT: note_on channel=3 note=66 velocity=120 time=0
EXTRACT: note_on channel=4 note=57 velocity=112 time=0
EXTRACT: note_on channel=4 note=61 velocity=114 time=0
EXTRACT: control_change channel=5 control=11 value=102 time=0
EXTRACT: note_on channel=15 note=61 velocity=1 time=0
EXTRACT: note_on channel=15 note=57 velocity=1 time=0
EXTRACT: note_on channel=15 note=59 velocity=0 time=0.021505366666666668
EXTRACT: note_on channel=4 note=59 velocity=0 time=0
EXTRACT: control_change channel=5 control=11 value=98 time=0.03225805
EXTRACT: note_on channel=15 note=56 velocity=0 time=0.005376341666666667
EXTRACT: note_on channel=4 note=56 velocity=0 time=0
EXTRACT: note_on channel=0 note=56 velocity=0 time=0.016129025
EXTRACT: control_change channel=5 control=11 value=94 time=0.03225805
EXTRACT: note_on channel=3 note=66 velocity=0 time=0.026881708333333334
EXTRACT: note_on channel=15 note=57 velocity=0 time=0.026881708333333334
EXTRACT: note_on channel=4 note=57 velocity=0 time=0
EXTRACT: note_on channel=3 note=69 velocity=111 time=0
EXTRACT: note_on channel=4 note=59 velocity=112 time=0
EXTRACT: note_on channel=4 note=64 velocity=108 time=0
EXTRACT: control_change channel=5 control=11 value=90 time=0
EXTRACT: note_on channel=15 note=64 velocity=1 time=0
EXTRACT: note_on channel=15 note=59 velocity=1 time=0
EXTRACT: note_on channel=4 note=61 velocity=0 time=0.016129025
EXTRACT: note_on channel=15 note=61 velocity=0 time=0
EXTRACT: control_change channel=5 control=11 value=86 time=0.03763439166666667
EXTRACT: control_change channel=5 control=11 value=82 time=0.05376341666666667
EXTRACT: note_on channel=5 note=73 velocity=0 time=0.048387075
EXTRACT: note_on channel=5 note=64 velocity=0 time=0
EXTRACT: note_on channel=2 note=49 velocity=0 time=0
EXTRACT: note_on channel=5 note=68 velocity=0 time=0
EXTRACT: note_on channel=10 note=68 velocity=0 time=0.005376341666666667
EXTRACT: note_on channel=10 note=73 velocity=0 time=0
EXTRACT: note_on channel=10 note=61 velocity=0 time=0
EXTRACT: note_on channel=10 note=76 velocity=0 time=0
EXTRACT: note_on channel=0 note=61 velocity=105 time=0
EXTRACT: note_on channel=0 note=64 velocity=109 time=0
EXTRACT: note_on channel=0 note=68 velocity=95 time=0
EXTRACT: note_on channel=2 note=52 velocity=111 time=0
EXTRACT: note_on channel=5 note=64 velocity=99 time=0
EXTRACT: note_on channel=5 note=68 velocity=101 time=0
EXTRACT: note_on channel=5 note=71 velocity=106 time=0
EXTRACT: control_change channel=5 control=11 value=74 time=0
EXTRACT: control_change channel=5 control=11 value=127 time=0
EXTRACT: note_on channel=9 note=36 velocity=120 time=0
EXTRACT: note_on channel=10 note=68 velocity=100 time=0
EXTRACT: note_on channel=10 note=71 velocity=100 time=0
EXTRACT: note_on channel=10 note=76 velocity=100 time=0
EXTRACT: note_on channel=10 note=64 velocity=100 time=0
EXTRACT: note_on channel=4 note=64 velocity=0 time=0.03763439166666667
EXTRACT: note_on channel=15 note=64 velocity=0 time=0
EXTRACT: note_on channel=3 note=69 velocity=0 time=0.016129025
EXTRACT: control_change channel=5 control=11 value=122 time=0
EXTRACT: note_on channel=15 note=59 velocity=0 time=0.021505366666666668
EXTRACT: note_on channel=4 note=59 velocity=0 time=0
EXTRACT: control_change channel=5 control=11 value=118 time=0.03225805
EXTRACT: note_on channel=9 note=36 velocity=0 time=0.016129025
EXTRACT: control_change channel=0 control=64 value=0 time=0
EXTRACT: control_change channel=5 control=11 value=114 time=0.03763439166666667
EXTRACT: note_on channel=0 note=64 velocity=0 time=0.048387075
EXTRACT: control_change channel=5 control=11 value=110 time=0.005376341666666667
EXTRACT: note_on channel=0 note=61 velocity=0 time=0.026881708333333334
EXTRACT: control_change channel=5 control=11 value=106 time=0.026881708333333334
EXTRACT: control_change channel=0 control=64 value=127 time=0.043010733333333336
EXTRACT: note_on channel=0 note=40 velocity=97 time=0.010752683333333334
EXTRACT: note_on channel=0 note=52 velocity=94 time=0
EXTRACT: control_change channel=5 control=11 value=102 time=0
EXTRACT: note_on channel=0 note=68 velocity=0 time=0.016129025
EXTRACT: control_change channel=5 control=11 value=98 time=0.03763439166666667
EXTRACT: control_change channel=5 control=11 value=94 time=0.05376341666666667
EXTRACT: control_change channel=5 control=11 value=90 time=0.05376341666666667
EXTRACT: note_on channel=9 note=36 velocity=120 time=0
EXTRACT: control_change channel=5 control=11 value=86 time=0.05376341666666667
EXTRACT: note_on channel=9 note=36 velocity=0 time=0.03763439166666667
EXTRACT: control_change channel=5 control=11 value=82 time=0.016129025
EXTRACT: note_on channel=2 note=52 velocity=0 time=0.048387075
EXTRACT: note_on channel=5 note=64 velocity=0 time=0
EXTRACT: note_on channel=5 note=68 velocity=0 time=0
EXTRACT: note_on channel=5 note=71 velocity=0 time=0
EXTRACT: note_on channel=0 note=56 velocity=98 time=0.005376341666666667
EXTRACT: note_on channel=0 note=59 velocity=115 time=0
EXTRACT: note_on channel=0 note=64 velocity=109 time=0
EXTRACT: note_on channel=0 note=68 velocity=88 time=0
EXTRACT: note_on channel=2 note=52 velocity=112 time=0
EXTRACT: note_on channel=5 note=64 velocity=99 time=0
EXTRACT: note_on channel=5 note=68 velocity=100 time=0
EXTRACT: note_on channel=5 note=71 velocity=109 time=0
EXTRACT: control_change channel=5 control=11 value=74 time=0
EXTRACT: control_change channel=5 control=11 value=127 time=0
EXTRACT: note_on channel=9 note=38 velocity=120 time=0
EXTRACT: note_on channel=9 note=39 velocity=120 time=0
EXTRACT: note_on channel=0 note=40 velocity=0 time=0.043010733333333336
EXTRACT: note_on channel=0 note=52 velocity=0 time=0
EXTRACT: control_change channel=5 control=11 value=122 time=0.010752683333333334
EXTRACT: note_on channel=9 note=38 velocity=0 time=0.043010733333333336
EXTRACT: note_on channel=9 note=39 velocity=0 time=0.005376341666666667
EXTRACT: control_change channel=5 control=11 value=118 time=0.005376341666666667
EXTRACT: control_change channel=5 control=11 value=114 time=0.05376341666666667
EXTRACT: control_change channel=5 control=11 value=110 time=0.05376341666666667
EXTRACT: note_on channel=0 note=64 velocity=0 time=0.03225805
EXTRACT: control_change channel=5 control=11 value=106 time=0.021505366666666668
EXTRACT: note_on channel=0 note=59 velocity=0 time=0.026881708333333334
EXTRACT: note_on channel=0 note=56 velocity=0 time=0.005376341666666667
EXTRACT: note_on channel=0 note=40 velocity=106 time=0.021505366666666668
EXTRACT: note_on channel=0 note=52 velocity=107 time=0
EXTRACT: control_change channel=5 control=11 value=102 time=0
EXTRACT: note_on channel=9 note=36 velocity=120 time=0
EXTRACT: control_change channel=5 control=11 value=98 time=0.05376341666666667
EXTRACT: note_on channel=0 note=68 velocity=0 time=0.026881708333333334
EXTRACT: control_change channel=5 control=11 value=94 time=0.026881708333333334
EXTRACT: note_on channel=9 note=36 velocity=0 time=0.016129025
EXTRACT: control_change channel=5 control=11 value=90 time=0.03763439166666667
EXTRACT: control_change channel=5 control=11 value=86 time=0.05376341666666667
EXTRACT: control_change channel=5 control=11 value=82 time=0.05376341666666667
EXTRACT: note_on channel=5 note=64 velocity=0 time=0.048387075
EXTRACT: note_on channel=2 note=52 velocity=0 time=0
EXTRACT: note_on channel=5 note=68 velocity=0 time=0
EXTRACT: note_on channel=5 note=71 velocity=0 time=0
EXTRACT: note_on channel=0 note=56 velocity=104 time=0.005376341666666667
EXTRACT: note_on channel=0 note=59 velocity=116 time=0
EXTRACT: note_on channel=0 note=64 velocity=112 time=0
EXTRACT: note_on channel=0 note=68 velocity=102 time=0
EXTRACT: note_on channel=2 note=52 velocity=108 time=0
EXTRACT: note_on channel=3 note=64 velocity=109 time=0
EXTRACT: note_on channel=4 note=52 velocity=100 time=0
EXTRACT: note_on channel=4 note=64 velocity=109 time=0
EXTRACT: note_on channel=5 note=64 velocity=98 time=0
EXTRACT: note_on channel=5 note=68 velocity=101 time=0
EXTRACT: note_on channel=5 note=71 velocity=109 time=0
EXTRACT: control_change channel=5 control=11 value=74 time=0
EXTRACT: control_change channel=5 control=11 value=127 time=0
EXTRACT: note_on channel=15 note=52 velocity=1 time=0
EXTRACT: note_on channel=15 note=64 velocity=1 time=0
EXTRACT: control_change channel=5 control=11 value=122 time=0.05376341666666667
EXTRACT: note_on channel=0 note=40 velocity=0 time=0.005376341666666667
EXTRACT: note_on channel=0 note=52 velocity=0 time=0.005376341666666667
EXTRACT: control_change channel=5 control=11 value=118 time=0.043010733333333336
EXTRACT: control_change channel=5 control=11 value=114 time=0.05376341666666667
EXTRACT: control_change channel=5 control=11 value=110 time=0.05376341666666667
EXTRACT: control_change channel=5 control=11 value=106 time=0.05376341666666667
EXTRACT: note_on channel=0 note=64 velocity=0 time=0.010752683333333334
EXTRACT: note_on channel=3 note=64 velocity=0 time=0.021505366666666668
EXTRACT: note_on channel=0 note=40 velocity=104 time=0.021505366666666668
EXTRACT: note_on channel=0 note=52 velocity=106 time=0
EXTRACT: note_on channel=3 note=66 velocity=116 time=0
EXTRACT: note_on channel=4 note=54 velocity=109 time=0
EXTRACT: note_on channel=4 note=66 velocity=103 time=0
EXTRACT: control_change channel=5 control=11 value=102 time=0
EXTRACT: note_on channel=9 note=36 velocity=120 time=0
EXTRACT: note_on channel=15 note=54 velocity=1 time=0
EXTRACT: note_on channel=15 note=66 velocity=1 time=0
EXTRACT: note_on channel=0 note=59 velocity=0 time=0.010752683333333334
EXTRACT: note_on channel=15 note=52 velocity=0 time=0.005376341666666667
EXTRACT: note_on channel=4 note=52 velocity=0 time=0
EXTRACT: note_on channel=15 note=64 velocity=0 time=0.010752683333333334
EXTRACT: note_on channel=0 note=56 velocity=0 time=0
EXTRACT: note_on channel=4 note=64 velocity=0 time=0
EXTRACT: control_change channel=5 control=11 value=98 time=0.026881708333333334
EXTRACT: note_on channel=0 note=52 velocity=0 time=0.048387075
EXTRACT: control_change channel=5 control=11 value=94 time=0.005376341666666667
EXTRACT: note_on channel=0 note=68 velocity=0 time=0.010752683333333334
EXTRACT: note_on channel=0 note=40 velocity=0 time=0.005376341666666667
EXTRACT: note_on channel=9 note=36 velocity=0 time=0
EXTRACT: control_change channel=5 control=11 value=90 time=0.03763439166666667
EXTRACT: control_change channel=5 control=11 value=86 time=0.05376341666666667
EXTRACT: control_change channel=5 control=11 value=82 time=0.05376341666666667
EXTRACT: note_on channel=3 note=66 velocity=0 time=0.005376341666666667
EXTRACT: note_on channel=15 note=54 velocity=0 time=0.03225805
EXTRACT: note_on channel=4 note=54 velocity=0 time=0
EXTRACT: note_on channel=5 note=68 velocity=0 time=0.010752683333333334
EXTRACT: note_on channel=5 note=71 velocity=0 time=0
EXTRACT: note_on channel=2 note=52 velocity=0 time=0
EXTRACT: note_on channel=5 note=64 velocity=0 time=0
EXTRACT: note_on channel=0 note=40 velocity=112 time=0.005376341666666667
EXTRACT: note_on channel=0 note=52 velocity=115 time=0
EXTRACT: note_on channel=0 note=56 velocity=108 time=0
EXTRACT: note_on channel=0 note=59 velocity=116 time=0
EXTRACT: note_on channel=0 note=64 velocity=112 time=0
EXTRACT: note_on channel=0 note=68 velocity=103 time=0
EXTRACT: note_on channel=2 note=52 velocity=111 time=0
EXTRACT: note_on channel=3 note=69 velocity=109 time=0
EXTRACT: note_on channel=4 note=57 velocity=102 time=0
EXTRACT: note_on channel=4 note=69 velocity=109 time=0
EXTRACT: note_on channel=5 note=64 velocity=96 time=0
EXTRACT: note_on channel=5 note=68 velocity=100 time=0
EXTRACT: note_on channel=5 note=71 velocity=108 time=0
EXTRACT: control_change channel=5 control=11 value=74 time=0
EXTRACT: control_change channel=5 control=11 value=127 time=0
EXTRACT: note_on channel=9 note=38 velocity=120 time=0
EXTRACT: note_on channel=9 note=39 velocity=120 time=0
EXTRACT: note_on channel=15 note=57 velocity=1 time=0
EXTRACT: note_on channel=15 note=69 velocity=1 time=0
EXTRACT: note_on channel=15 note=66 velocity=0 time=0.026881708333333334
EXTRACT: note_on channel=4 note=66 velocity=0 time=0
EXTRACT: control_change channel=5 control=11 value=122 time=0.026881708333333334
EXTRACT: note_on channel=9 note=39 velocity=0 time=0.048387075
EXTRACT: note_on channel=9 note=38 velocity=0 time=0
EXTRACT: control_change channel=5 control=11 value=118 time=0.005376341666666667
EXTRACT: note_on channel=0 note=40 velocity=0 time=0.026881708333333334
EXTRACT: note_on channel=0 note=52 velocity=0 time=0.005376341666666667
EXTRACT: control_change channel=5 control=11 value=114 time=0.021505366666666668
EXTRACT: control_change channel=5 control=11 value=110 time=0.05376341666666667
EXTRACT: note_on channel=0 note=64 velocity=0 time=0.021505366666666668
EXTRACT: control_change channel=5 control=11 value=106 time=0.03225805
EXTRACT: note_on channel=0 note=59 velocity=0 time=0.03763439166666667
EXTRACT: note_on channel=3 note=69 velocity=0 time=0.016129025
EXTRACT: note_on channel=0 note=40 velocity=116 time=0
EXTRACT: note_on channel=0 note=52 velocity=119 time=0
EXTRACT: note_on channel=3 note=71 velocity=111 time=0
EXTRACT: note_on channel=4 note=59 velocity=104 time=0
EXTRACT: note_on channel=4 note=71 velocity=109 time=0
EXTRACT: control_change channel=5 control=11 value=102 time=0
EXTRACT: note_on channel=15 note=59 velocity=1 time=0
EXTRACT: note_on channel=15 note=71 velocity=1 time=0
EXTRACT: note_on channel=15 note=57 velocity=0 time=0.010752683333333334
EXTRACT: note_on channel=4 note=57 velocity=0 time=0
EXTRACT: note_on channel=15 note=69 velocity=0 time=0.005376341666666667
EXTRACT: note_on channel=4 note=69 velocity=0 time=0
EXTRACT: note_on channel=0 note=56 velocity=0 time=0.005376341666666667
EXTRACT: note_on channel=0 note=68 velocity=0 time=0.021505366666666668
EXTRACT: note_on channel=0 note=52 velocity=0 time=0.010752683333333334
EXTRACT: control_change channel=5 control=11 value=98 time=0
EXTRACT: note_on channel=0 note=40 velocity=0 time=0.010752683333333334
EXTRACT: control_change channel=5 control=11 value=94 time=0.043010733333333336
EXTRACT: control_change channel=5 control=11 value=90 time=0.05376341666666667
EXTRACT: control_change channel=5 control=11 value=86 time=0.05376341666666667
EXTRACT: note_on channel=4 note=59 velocity=0 time=0.03763439166666667
EXTRACT: note_on channel=15 note=59 velocity=0 time=0
EXTRACT: control_change channel=5 control=11 value=82 time=0.016129025
EXTRACT: note_on channel=3 note=71 velocity=0 time=0.03225805
EXTRACT: note_on channel=5 note=71 velocity=0 time=0.016129025
EXTRACT: note_on channel=5 note=68 velocity=0 time=0
EXTRACT: note_on channel=15 note=71 velocity=0 time=0
EXTRACT: note_on channel=5 note=64 velocity=0 time=0
EXTRACT: note_on channel=4 note=71 velocity=0 time=0
EXTRACT: note_on channel=2 note=52 velocity=0 time=0
EXTRACT: control_change channel=0 control=64 value=0 time=0
EXTRACT: note_on channel=10 note=64 velocity=0 time=0.005376341666666667
EXTRACT: note_on channel=10 note=68 velocity=0 time=0
EXTRACT: note_on channel=10 note=71 velocity=0 time=0
EXTRACT: note_on channel=10 note=76 velocity=0 time=0
EXTRACT: note_on channel=0 note=45 velocity=106 time=0
EXTRACT: note_on channel=0 note=57 velocity=103 time=0
EXTRACT: note_on channel=0 note=61 velocity=100 time=0
EXTRACT: note_on channel=0 note=64 velocity=112 time=0
EXTRACT: note_on channel=0 note=69 velocity=107 time=0
EXTRACT: note_on channel=1 note=33 velocity=120 time=0
EXTRACT: note_on channel=2 note=61 velocity=94 time=0
EXTRACT: note_on channel=2 note=64 velocity=107 time=0
EXTRACT: note_on channel=2 note=69 velocity=99 time=0
EXTRACT: note_on channel=3 note=69 velocity=115 time=0
EXTRACT: note_on channel=4 note=57 velocity=104 time=0
EXTRACT: note_on channel=4 note=69 velocity=111 time=0
EXTRACT: control_change channel=5 control=11 value=74 time=0
EXTRACT: note_on channel=7 note=45 velocity=108 time=0
EXTRACT: note_on channel=7 note=61 velocity=104 time=0
EXTRACT: note_on channel=9 note=36 velocity=120 time=0
EXTRACT: note_on channel=10 note=69 velocity=100 time=0
EXTRACT: note_on channel=10 note=73 velocity=100 time=0
EXTRACT: note_on channel=10 note=76 velocity=100 time=0
EXTRACT: note_on channel=15 note=69 velocity=1 time=0
EXTRACT: note_on channel=15 note=57 velocity=1 time=0
EXTRACT: note_on channel=9 note=36 velocity=0 time=0.145161225
EXTRACT: control_change channel=0 control=64 value=127 time=0.005376341666666667
EXTRACT: note_on channel=0 note=45 velocity=0 time=0.06989244166666667
EXTRACT: note_on channel=0 note=57 velocity=0 time=0.021505366666666668
EXTRACT: note_on channel=0 note=69 velocity=0 time=0.080645125
EXTRACT: note_on channel=0 note=45 velocity=100 time=0
EXTRACT: note_on channel=0 note=57 velocity=97 time=0
EXTRACT: note_on channel=0 note=64 velocity=0 time=0.010752683333333334
EXTRACT: note_on channel=0 note=61 velocity=0 time=0.021505366666666668
EXTRACT: note_on channel=9 note=36 velocity=120 time=0.1290322
EXTRACT: note_on channel=9 note=36 velocity=0 time=0.11827951666666667
EXTRACT: note_on channel=0 note=45 velocity=0 time=0.016129025
EXTRACT: note_on channel=0 note=57 velocity=0 time=0.016129025
EXTRACT: note_on channel=2 note=69 velocity=0 time=0.005376341666666667
EXTRACT: note_on channel=2 note=64 velocity=0 time=0
EXTRACT: note_on channel=2 note=61 velocity=0 time=0
EXTRACT: note_on channel=0 note=61 velocity=100 time=0.005376341666666667
EXTRACT: note_on channel=0 note=64 velocity=112 time=0
EXTRACT: note_on channel=0 note=69 velocity=104 time=0
EXTRACT: note_on channel=2 note=61 velocity=97 time=0
EXTRACT: note_on channel=2 note=64 velocity=112 time=0
EXTRACT: note_on channel=2 note=69 velocity=100 time=0
EXTRACT: note_on channel=9 note=38 velocity=120 time=0
EXTRACT: note_on channel=9 note=39 velocity=120 time=0
EXTRACT: note_on channel=9 note=38 velocity=0 time=0.11290317500000001
EXTRACT: note_on channel=9 note=39 velocity=0 time=0.016129025
EXTRACT: note_on channel=0 note=69 velocity=0 time=0.13978488333333333
EXTRACT: note_on channel=0 note=64 velocity=0 time=0.010752683333333334
EXTRACT: note_on channel=0 note=61 velocity=0 time=0.016129025
EXTRACT: note_on channel=0 note=45 velocity=96 time=0.026881708333333334
EXTRACT: note_on channel=0 note=57 velocity=98 time=0
EXTRACT: note_on channel=9 note=36 velocity=120 time=0
EXTRACT: note_on channel=9 note=36 velocity=0 time=0.15053756666666668
EXTRACT: note_on channel=0 note=45 velocity=0 time=0.1344085416666667
EXTRACT: note_on channel=0 note=57 velocity=0 time=0.021505366666666668
EXTRACT: note_on channel=2 note=69 velocity=0 time=0.010752683333333334
EXTRACT: note_on channel=2 note=64 velocity=0 time=0
EXTRACT: note_on channel=2 note=61 velocity=0 time=0
EXTRACT: note_on channel=0 note=61 velocity=93 time=0.005376341666666667
EXTRACT: note_on channel=0 note=64 velocity=109 time=0
EXTRACT: note_on channel=0 note=69 velocity=99 time=0
EXTRACT: note_on channel=2 note=61 velocity=97 time=0
EXTRACT: note_on channel=2 note=64 velocity=110 time=0
EXTRACT: note_on channel=2 note=69 velocity=100 time=0
EXTRACT: note_on channel=3 note=69 velocity=0 time=0.2956987916666667
EXTRACT: note_on channel=0 note=64 velocity=0 time=0.005376341666666667
EXTRACT: note_on channel=0 note=69 velocity=0 time=0.005376341666666667
EXTRACT: note_on channel=0 note=45 velocity=83 time=0.016129025
EXTRACT: note_on channel=0 note=57 velocity=88 time=0
EXTRACT: note_on channel=3 note=71 velocity=107 time=0
EXTRACT: note_on channel=4 note=59 velocity=110 time=0
EXTRACT: note_on channel=4 note=71 velocity=107 time=0
EXTRACT: note_on channel=9 note=36 velocity=120 time=0
EXTRACT: note_on channel=15 note=71 velocity=1 time=0
EXTRACT: note_on channel=15 note=59 velocity=1 time=0
EXTRACT: note_on channel=0 note=61 velocity=0 time=0.005376341666666667
EXTRACT: note_on channel=15 note=69 velocity=0 time=0.026881708333333334
EXTRACT: note_on channel=4 note=69 velocity=0 time=0
EXTRACT: note_on channel=15 note=57 velocity=0 time=0.010752683333333334
EXTRACT: note_on channel=4 note=57 velocity=0 time=0
EXTRACT: note_on channel=9 note=36 velocity=0 time=0.08602146666666667
EXTRACT: note_on channel=0 note=45 velocity=0 time=0.03763439166666667
EXTRACT: note_on channel=0 note=57 velocity=0 time=0.048387075
EXTRACT: note_on channel=2 note=69 velocity=0 time=0.10215049166666668
EXTRACT: note_on channel=2 note=61 velocity=0 time=0
EXTRACT: note_on channel=2 note=64 velocity=0 time=0
EXTRACT: note_on channel=3 note=71 velocity=0 time=0.005376341666666667
EXTRACT: note_on channel=0 note=61 velocity=96 time=0
EXTRACT: note_on channel=0 note=64 velocity=106 time=0
EXTRACT: note_on channel=0 note=69 velocity=98 time=0
EXTRACT: note_on channel=2 note=61 velocity=100 time=0
EXTRACT: note_on channel=2 note=64 velocity=111 time=0
EXTRACT: note_on channel=2 note=69 velocity=107 time=0
EXTRACT: note_on channel=3 note=73 velocity=119 time=0
EXTRACT: note_on channel=4 note=61 velocity=97 time=0
EXTRACT: note_on channel=4 note=73 velocity=107 time=0
EXTRACT: note_on channel=9 note=38 velocity=120 time=0
EXTRACT: note_on channel=9 note=39 velocity=120 time=0
EXTRACT: note_on channel=15 note=73 velocity=1 time=0
EXTRACT: note_on channel=15 note=61 velocity=1 time=0
EXTRACT: note_on channel=4 note=59 velocity=0 time=0.010752683333333334
EXTRACT: note_on channel=15 note=59 velocity=0 time=0
EXTRACT: note_on channel=15 note=71 velocity=0 time=0.021505366666666668
EXTRACT: note_on channel=4 note=71 velocity=0 time=0
EXTRACT: note_on channel=9 note=38 velocity=0 time=0.08602146666666667
EXTRACT: note_on channel=9 note=39 velocity=0 time=0.010752683333333334
EXTRACT: note_on channel=0 note=69 velocity=0 time=0.145161225
EXTRACT: note_on channel=0 note=64 velocity=0 time=0.010752683333333334
EXTRACT: note_on channel=3 note=73 velocity=0 time=0.010752683333333334
EXTRACT: note_on channel=0 note=61 velocity=0 time=0.005376341666666667
EXTRACT: note_on channel=4 note=73 velocity=0 time=0.021505366666666668
EXTRACT: note_on channel=15 note=73 velocity=0 time=0
EXTRACT: note_on channel=0 note=45 velocity=97 time=0
EXTRACT: note_on channel=0 note=57 velocity=98 time=0
EXTRACT: note_on channel=3 note=66 velocity=120 time=0
EXTRACT: note_on channel=4 note=54 velocity=108 time=0
EXTRACT: note_on channel=4 note=66 velocity=111 time=0
EXTRACT: note_on channel=15 note=66 velocity=1 time=0
EXTRACT: note_on channel=15 note=54 velocity=1 time=0
EXTRACT: note_on channel=15 note=61 velocity=0 time=0.059139758333333334
EXTRACT: note_on channel=4 note=61 velocity=0 time=0
EXTRACT: note_on channel=0 note=57 velocity=0 time=0.010752683333333334
EXTRACT: note_on channel=0 note=45 velocity=0 time=0.05376341666666667
EXTRACT: note_on channel=2 note=61 velocity=0 time=0.1935483
EXTRACT: note_on channel=1 note=33 velocity=0 time=0
EXTRACT: note_on channel=7 note=61 velocity=0 time=0
EXTRACT: note_on channel=7 note=45 velocity=0 time=0
EXTRACT: note_on channel=2 note=69 velocity=0 time=0
EXTRACT: note_on channel=2 note=64 velocity=0 time=0
EXTRACT: note_on channel=10 note=73 velocity=0 time=0.005376341666666667
EXTRACT: note_on channel=10 note=69 velocity=0 time=0
EXTRACT: note_on channel=10 note=76 velocity=0 time=0
EXTRACT: note_on channel=0 note=57 velocity=109 time=0
EXTRACT: note_on channel=0 note=61 velocity=106 time=0
EXTRACT: note_on channel=0 note=66 velocity=103 time=0
EXTRACT: note_on channel=0 note=69 velocity=110 time=0
EXTRACT: note_on channel=1 note=30 velocity=120 time=0
EXTRACT: note_on channel=2 note=61 velocity=100 time=0
EXTRACT: note_on channel=2 note=66 velocity=106 time=0
EXTRACT: note_on channel=2 note=69 velocity=107 time=0
EXTRACT: note_on channel=7 note=42 velocity=100 time=0
EXTRACT: note_on channel=7 note=57 velocity=109 time=0
EXTRACT: note_on channel=9 note=36 velocity=120 time=0
EXTRACT: note_on channel=10 note=73 velocity=100 time=0
EXTRACT: note_on channel=10 note=69 velocity=100 time=0
EXTRACT: note_on channel=10 note=78 velocity=100 time=0
EXTRACT: control_change channel=0 control=64 value=0 time=0.043010733333333336
EXTRACT: note_on channel=9 note=36 velocity=0 time=0.10215049166666668
EXTRACT: control_change channel=0 control=64 value=127 time=0.09677415
EXTRACT: note_on channel=0 note=42 velocity=93 time=0.080645125
EXTRACT: note_on channel=0 note=54 velocity=95 time=0
EXTRACT: note_on channel=0 note=69 velocity=0 time=0.048387075
EXTRACT: note_on channel=0 note=57 velocity=0 time=0.021505366666666668
EXTRACT: note_on channel=0 note=66 velocity=0 time=0.005376341666666667
EXTRACT: note_on channel=0 note=61 velocity=0 time=0.005376341666666667
EXTRACT: note_on channel=9 note=36 velocity=120 time=0.080645125
EXTRACT: note_on channel=4 note=66 velocity=0 time=0.059139758333333334
EXTRACT: note_on channel=15 note=54 velocity=0 time=0
EXTRACT: note_on channel=15 note=66 velocity=0 time=0
EXTRACT: note_on channel=4 note=54 velocity=0 time=0
EXTRACT: note_on channel=9 note=36 velocity=0 time=0.03763439166666667
EXTRACT: note_on channel=0 note=42 velocity=0 time=0.03225805
EXTRACT: note_on channel=0 note=54 velocity=0 time=0.005376341666666667
EXTRACT: note_on channel=2 note=61 velocity=0 time=0.021505366666666668
EXTRACT: note_on channel=2 note=66 velocity=0 time=0
EXTRACT: note_on channel=2 note=69 velocity=0 time=0
EXTRACT: note_on channel=0 note=57 velocity=104 time=0.005376341666666667
EXTRACT: note_on channel=0 note=61 velocity=100 time=0
EXTRACT: note_on channel=0 note=66 velocity=97 time=0
EXTRACT: note_on channel=0 note=69 velocity=107 time=0
EXTRACT: note_on channel=2 note=61 velocity=98 time=0
EXTRACT: note_on channel=2 note=66 velocity=100 time=0
EXTRACT: note_on channel=2 note=69 velocity=104 time=0
EXTRACT: note_on channel=9 note=38 velocity=120 time=0
EXTRACT: note_on channel=9 note=39 velocity=120 time=0
EXTRACT: note_on channel=9 note=38 velocity=0 time=0.10752683333333334
EXTRACT: note_on channel=9 note=39 velocity=0 time=0.005376341666666667
EXTRACT: note_on channel=3 note=66 velocity=0 time=0.026881708333333334
EXTRACT: note_on channel=0 note=42 velocity=95 time=0.1827956166666667
EXTRACT: note_on channel=0 note=54 velocity=94 time=0
EXTRACT: note_on channel=9 note=36 velocity=120 time=0
EXTRACT: note_on channel=0 note=69 velocity=0 time=0.010752683333333334
EXTRACT: note_on channel=0 note=66 velocity=0 time=0.026881708333333334
EXTRACT: note_on channel=0 note=57 velocity=0 time=0
EXTRACT: note_on channel=0 note=61 velocity=0 time=0.010752683333333334
EXTRACT: note_on channel=9 note=36 velocity=0 time=0.080645125
EXTRACT: note_on channel=2 note=66 velocity=0 time=0.18817195833333333
EXTRACT: note_on channel=2 note=61 velocity=0 time=0
EXTRACT: note_on channel=2 note=69 velocity=0 time=0
EXTRACT: note_on channel=0 note=57 velocity=104 time=0.005376341666666667
EXTRACT: note_on channel=0 note=61 velocity=99 time=0
EXTRACT: note_on channel=0 note=66 velocity=102 time=0
EXTRACT: note_on channel=0 note=69 velocity=108 time=0
EXTRACT: note_on channel=2 note=61 velocity=100 time=0
EXTRACT: note_on channel=2 note=66 velocity=108 time=0
EXTRACT: note_on channel=2 note=69 velocity=104 time=0
EXTRACT: note_on channel=3 note=69 velocity=115 time=0
EXTRACT: note_on channel=4 note=57 velocity=110 time=0
EXTRACT: note_on channel=4 note=69 velocity=113 time=0
EXTRACT: note_on channel=15 note=57 velocity=1 time=0
EXTRACT: note_on channel=15 note=69 velocity=1 time=0
EXTRACT: note_on channel=0 note=42 velocity=0 time=0.005376341666666667
EXTRACT: note_on channel=0 note=54 velocity=0 time=0
EXTRACT: note_on channel=0 note=42 velocity=103 time=0.3172041583333334
EXTRACT: note_on channel=0 note=54 velocity=103 time=0
EXTRACT: note_on channel=3 note=71 velocity=115 time=0
EXTRACT: note_on channel=4 note=59 velocity=110 time=0
EXTRACT: note_on channel=4 note=71 velocity=113 time=0
EXTRACT: note_on channel=9 note=36 velocity=120 time=0
EXTRACT: note_on channel=15 note=59 velocity=1 time=0
EXTRACT: note_on channel=15 note=71 velocity=1 time=0
EXTRACT: note_on channel=15 note=57 velocity=0 time=0.010752683333333334
EXTRACT: note_on channel=4 note=69 velocity=0 time=0
EXTRACT: note_on channel=4 note=57 velocity=0 time=0
EXTRACT: note_on channel=15 note=69 velocity=0 time=0
EXTRACT: note_on channel=3 note=69 velocity=0 time=0.005376341666666667
EXTRACT: note_on channel=0 note=69 velocity=0 time=0.010752683333333334
EXTRACT: note_on channel=0 note=57 velocity=0 time=0.010752683333333334
EXTRACT: note_on channel=0 note=66 velocity=0 time=0.010752683333333334
EXTRACT: note_on channel=0 note=61 velocity=0 time=0.021505366666666668
EXTRACT: note_on channel=9 note=36 velocity=0 time=0.048387075
EXTRACT: note_on channel=0 note=42 velocity=0 time=0.12365585833333334
EXTRACT: note_on channel=0 note=54 velocity=0 time=0.016129025
EXTRACT: note_on channel=4 note=59 velocity=0 time=0.016129025
EXTRACT: note_on channel=15 note=59 velocity=0 time=0
EXTRACT: note_on channel=3 note=71 velocity=0 time=0.026881708333333334
EXTRACT: note_on channel=2 note=61 velocity=0 time=0.016129025
EXTRACT: note_on channel=2 note=66 velocity=0 time=0
EXTRACT: note_on channel=2 note=69 velocity=0 time=0
EXTRACT: note_on channel=4 note=71 velocity=0 time=0.005376341666666667
EXTRACT: note_on channel=15 note=71 velocity=0 time=0
EXTRACT: note_on channel=0 note=57 velocity=104 time=0
EXTRACT: note_on channel=0 note=61 velocity=98 time=0
EXTRACT: note_on channel=0 note=66 velocity=99 time=0
EXTRACT: note_on channel=0 note=69 velocity=108 time=0
EXTRACT: note_on channel=2 note=61 velocity=100 time=0
EXTRACT: note_on channel=2 note=66 velocity=99 time=0
EXTRACT: note_on channel=2 note=69 velocity=102 time=0
EXTRACT: note_on channel=3 note=73 velocity=105 time=0
EXTRACT: note_on channel=4 note=61 velocity=105 time=0
EXTRACT: note_on channel=4 note=73 velocity=108 time=0
EXTRACT: note_on channel=9 note=38 velocity=120 time=0
EXTRACT: note_on channel=9 note=39 velocity=120 time=0
EXTRACT: note_on channel=15 note=61 velocity=1 time=0
EXTRACT: note_on channel=15 note=73 velocity=1 time=0
EXTRACT: note_on channel=9 note=38 velocity=0 time=0.10215049166666668
EXTRACT: note_on channel=9 note=39 velocity=0 time=0.010752683333333334
EXTRACT: note_on channel=1 note=30 velocity=0 time=0.20430098333333335
EXTRACT: note_on channel=0 note=42 velocity=79 time=0.005376341666666667
EXTRACT: note_on channel=0 note=54 velocity=95 time=0
EXTRACT: note_on channel=1 note=28 velocity=120 time=0
EXTRACT: note_on channel=3 note=66 velocity=109 time=0
EXTRACT: note_on channel=4 note=54 velocity=99 time=0
EXTRACT: note_on channel=4 note=66 velocity=104 time=0
EXTRACT: note_on channel=15 note=54 velocity=1 time=0
EXTRACT: note_on channel=15 note=66 velocity=1 time=0
EXTRACT: note_on channel=4 note=73 velocity=0 time=0.016129025
EXTRACT: note_on channel=15 note=73 velocity=0 time=0
EXTRACT: note_on channel=0 note=69 velocity=0 time=0.005376341666666667
EXTRACT: note_on channel=0 note=57 velocity=0 time=0
EXTRACT: note_on channel=15 note=61 velocity=0 time=0.005376341666666667
EXTRACT: note_on channel=4 note=61 velocity=0 time=0
EXTRACT: note_on channel=0 note=61 velocity=0 time=0.005376341666666667
EXTRACT: note_on channel=0 note=66 velocity=0 time=0
EXTRACT: note_on channel=3 note=73 velocity=0 time=0
EXTRACT: note_on channel=0 note=54 velocity=0 time=0.026881708333333334
EXTRACT: note_on channel=0 note=42 velocity=0 time=0.043010733333333336
EXTRACT: note_on channel=4 note=54 velocity=0 time=0.16666659166666667
EXTRACT: note_on channel=15 note=54 velocity=0 time=0
EXTRACT: note_on channel=15 note=66 velocity=0 time=0.03763439166666667
EXTRACT: note_on channel=4 note=66 velocity=0 time=0
EXTRACT: note_on channel=7 note=57 velocity=0 time=0.010752683333333334
EXTRACT: note_on channel=1 note=28 velocity=0 time=0
EXTRACT: note_on channel=2 note=69 velocity=0 time=0
EXTRACT: note_on channel=3 note=66 velocity=0 time=0
EXTRACT: note_on channel=2 note=66 velocity=0 time=0
EXTRACT: note_on channel=7 note=42 velocity=0 time=0
EXTRACT: note_on channel=2 note=61 velocity=0 time=0
EXTRACT: note_on channel=10 note=78 velocity=0 time=0.005376341666666667
EXTRACT: note_on channel=10 note=69 velocity=0 time=0
EXTRACT: note_on channel=10 note=73 velocity=0 time=0
EXTRACT: note_on channel=0 note=57 velocity=112 time=0
EXTRACT: note_on channel=0 note=62 velocity=115 time=0
EXTRACT: note_on channel=0 note=66 velocity=106 time=0
EXTRACT: note_on channel=0 note=69 velocity=112 time=0
EXTRACT: note_on channel=1 note=26 velocity=120 time=0
EXTRACT: note_on channel=2 note=62 velocity=111 time=0
EXTRACT: note_on channel=2 note=66 velocity=101 time=0
EXTRACT: note_on channel=2 note=69 velocity=102 time=0
EXTRACT: note_on channel=3 note=64 velocity=107 time=0
EXTRACT: note_on channel=4 note=52 velocity=112 time=0
EXTRACT: note_on channel=4 note=64 velocity=111 time=0
EXTRACT: note_on channel=7 note=38 velocity=106 time=0
EXTRACT: note_on channel=7 note=54 velocity=101 time=0
EXTRACT: note_on channel=9 note=36 velocity=120 time=0
EXTRACT: note_on channel=10 note=78 velocity=100 time=0
EXTRACT: note_on channel=10 note=69 velocity=100 time=0
EXTRACT: note_on channel=10 note=74 velocity=100 time=0
EXTRACT: note_on channel=15 note=52 velocity=1 time=0
EXTRACT: note_on channel=15 note=64 velocity=1 time=0
EXTRACT: note_on channel=9 note=36 velocity=0 time=0.1344085416666667
EXTRACT: control_change channel=0 control=64 value=0 time=0
EXTRACT: note_on channel=0 note=38 velocity=100 time=0.18817195833333333
EXTRACT: note_on channel=0 note=50 velocity=99 time=0
EXTRACT: control_change channel=0 control=64 value=127 time=0.010752683333333334
EXTRACT: note_on channel=0 note=69 velocity=0 time=0.016129025
EXTRACT: note_on channel=0 note=66 velocity=0 time=0.043010733333333336
EXTRACT: note_on channel=0 note=57 velocity=0 time=0
EXTRACT: note_on channel=0 note=62 velocity=0 time=0
EXTRACT: note_on channel=9 note=36 velocity=120 time=0.09139780833333334
EXTRACT: note_on channel=9 note=36 velocity=0 time=0.09139780833333334
EXTRACT: note_on channel=0 note=38 velocity=0 time=0.026881708333333334
EXTRACT: note_on channel=0 note=50 velocity=0 time=0.010752683333333334
EXTRACT: note_on channel=2 note=69 velocity=0 time=0.026881708333333334
EXTRACT: note_on channel=2 note=62 velocity=0 time=0
EXTRACT: note_on channel=2 note=66 velocity=0 time=0
EXTRACT: note_on channel=0 note=57 velocity=107 time=0.005376341666666667
EXTRACT: note_on channel=0 note=62 velocity=115 time=0
EXTRACT: note_on channel=0 note=66 velocity=103 time=0
EXTRACT: note_on channel=0 note=69 velocity=104 time=0
EXTRACT: note_on channel=2 note=62 velocity=107 time=0
EXTRACT: note_on channel=2 note=66 velocity=96 time=0
EXTRACT: note_on channel=2 note=69 velocity=102 time=0
EXTRACT: note_on channel=9 note=38 velocity=120 time=0
EXTRACT: note_on channel=9 note=39 velocity=120 time=0
EXTRACT: note_on channel=3 note=64 velocity=0 time=0.03225805
EXTRACT: note_on channel=9 note=38 velocity=0 time=0.09139780833333334
EXTRACT: note_on channel=9 note=39 velocity=0 time=0.005376341666666667
EXTRACT: note_on channel=4 note=52 velocity=0 time=0.1344085416666667
EXTRACT: note_on channel=15 note=52 velocity=0 time=0
EXTRACT: note_on channel=0 note=69 velocity=0 time=0.021505366666666668
EXTRACT: note_on channel=4 note=64 velocity=0 time=0.016129025
EXTRACT: note_on channel=15 note=64 velocity=0 time=0
EXTRACT: note_on channel=0 note=57 velocity=0 time=0.016129025
EXTRACT: note_on channel=0 note=62 velocity=0 time=0.005376341666666667
EXTRACT: note_on channel=0 note=38 velocity=106 time=0
EXTRACT: note_on channel=0 note=50 velocity=98 time=0
EXTRACT: note_on channel=9 note=36 velocity=120 time=0
EXTRACT: note_on channel=0 note=66 velocity=0 time=0.010752683333333334
EXTRACT: note_on channel=9 note=36 velocity=0 time=0.1290322
EXTRACT: note_on channel=0 note=50 velocity=0 time=0.15591390833333335
EXTRACT: note_on channel=2 note=66 velocity=0 time=0.021505366666666668
EXTRACT: note_on channel=2 note=62 velocity=0 time=0
EXTRACT: note_on channel=2 note=69 velocity=0 time=0
EXTRACT: note_on channel=0 note=38 velocity=0 time=0.005376341666666667
EXTRACT: note_on channel=0 note=57 velocity=106 time=0
EXTRACT: note_on channel=0 note=62 velocity=113 time=0
EXTRACT: note_on channel=0 note=66 velocity=103 time=0
EXTRACT: note_on channel=0 note=69 velocity=105 time=0
EXTRACT: note_on channel=2 note=62 velocity=110 time=0
EXTRACT: note_on channel=2 note=66 velocity=99 time=0
EXTRACT: note_on channel=2 note=69 velocity=103 time=0
EXTRACT: note_on channel=3 note=69 velocity=110 time=0
EXTRACT: note_on channel=4 note=57 velocity=110 time=0
EXTRACT: note_on channel=4 note=69 velocity=115 time=0
EXTRACT: note_on channel=15 note=69 velocity=1 time=0
EXTRACT: note_on channel=15 note=57 velocity=1 time=0
EXTRACT: note_on channel=15 note=57 velocity=0 time=0.3225805
EXTRACT: note_on channel=4 note=57 velocity=0 time=0
EXTRACT: note_on channel=0 note=38 velocity=102 time=0
EXTRACT: note_on channel=0 note=50 velocity=102 time=0
EXTRACT: note_on channel=3 note=71 velocity=105 time=0
EXTRACT: note_on channel=4 note=59 velocity=100 time=0
EXTRACT: note_on channel=4 note=71 velocity=113 time=0
EXTRACT: note_on channel=9 note=36 velocity=120 time=0
EXTRACT: note_on channel=15 note=59 velocity=1 time=0
EXTRACT: note_on channel=15 note=71 velocity=1 time=0
EXTRACT: note_on channel=15 note=69 velocity=0 time=0.010752683333333334
EXTRACT: note_on channel=4 note=69 velocity=0 time=0
EXTRACT: note_on channel=0 note=57 velocity=0 time=0.016129025
EXTRACT: note_on channel=3 note=69 velocity=0 time=0.005376341666666667
EXTRACT: note_on channel=0 note=69 velocity=0 time=0.010752683333333334
EXTRACT: note_on channel=0 note=66 velocity=0 time=0
EXTRACT: note_on channel=0 note=62 velocity=0 time=0.005376341666666667
EXTRACT: note_on channel=9 note=36 velocity=0 time=0.06989244166666667
EXTRACT: note_on channel=4 note=59 velocity=0 time=0.16666659166666667
EXTRACT: note_on channel=15 note=59 velocity=0 time=0
EXTRACT: note_on channel=4 note=71 velocity=0 time=0.016129025
EXTRACT: note_on channel=15 note=71 velocity=0 time=0
EXTRACT: note_on channel=3 note=71 velocity=0 time=0.010752683333333334
EXTRACT: note_on channel=2 note=69 velocity=0 time=0.005376341666666667
EXTRACT: note_on channel=2 note=66 velocity=0 time=0
EXTRACT: note_on channel=2 note=62 velocity=0 time=0
EXTRACT: note_on channel=0 note=57 velocity=102 time=0.005376341666666667
EXTRACT: note_on channel=0 note=62 velocity=113 time=0
EXTRACT: note_on channel=0 note=66 velocity=101 time=0
EXTRACT: note_on channel=0 note=69 velocity=105 time=0
EXTRACT: note_on channel=2 note=62 velocity=112 time=0
EXTRACT: note_on channel=2 note=66 velocity=99 time=0
EXTRACT: note_on channel=2 note=69 velocity=104 time=0
EXTRACT: note_on channel=3 note=73 velocity=116 time=0
EXTRACT: note_on channel=4 note=61 velocity=109 time=0
EXTRACT: note_on channel=4 note=73 velocity=106 time=0
EXTRACT: note_on channel=9 note=38 velocity=120 time=0
EXTRACT: note_on channel=9 note=39 velocity=120 time=0
EXTRACT: note_on channel=15 note=73 velocity=1 time=0
EXTRACT: note_on channel=15 note=61 velocity=1 time=0
EXTRACT: note_on channel=0 note=38 velocity=0 time=0.026881708333333334
EXTRACT: note_on channel=0 note=50 velocity=0 time=0.010752683333333334
EXTRACT: note_on channel=9 note=38 velocity=0 time=0.07526878333333334
EXTRACT: note_on channel=9 note=39 velocity=0 time=0.010752683333333334
EXTRACT: note_on channel=0 note=69 velocity=0 time=0.08602146666666667
EXTRACT: note_on channel=0 note=57 velocity=0 time=0.021505366666666668
EXTRACT: note_on channel=0 note=62 velocity=0 time=0.010752683333333334
EXTRACT: note_on channel=4 note=73 velocity=0 time=0.016129025
EXTRACT: note_on channel=15 note=73 velocity=0 time=0
EXTRACT: note_on channel=0 note=66 velocity=0 time=0.016129025
EXTRACT: note_on channel=3 note=73 velocity=0 time=0.005376341666666667
EXTRACT: note_on channel=4 note=61 velocity=0 time=0
EXTRACT: note_on channel=15 note=61 velocity=0 time=0
EXTRACT: note_on channel=0 note=38 velocity=104 time=0.043010733333333336
EXTRACT: note_on channel=0 note=50 velocity=100 time=0
EXTRACT: note_on channel=3 note=73 velocity=108 time=0
EXTRACT: note_on channel=4 note=61 velocity=101 time=0
EXTRACT: note_on channel=4 note=73 velocity=106 time=0
EXTRACT: note_on channel=15 note=61 velocity=1 time=0
EXTRACT: note_on channel=15 note=73 velocity=1 time=0
EXTRACT: note_on channel=0 note=38 velocity=0 time=0.11290317500000001
EXTRACT: note_on channel=0 note=50 velocity=0 time=0.021505366666666668
EXTRACT: note_on channel=15 note=73 velocity=0 time=0.16666659166666667
EXTRACT: note_on channel=4 note=73 velocity=0 time=0
EXTRACT: note_on channel=3 note=73 velocity=0 time=0.005376341666666667
EXTRACT: note_on channel=1 note=26 velocity=0 time=0.010752683333333334
EXTRACT: note_on channel=2 note=66 velocity=0 time=0
EXTRACT: note_on channel=7 note=54 velocity=0 time=0
EXTRACT: note_on channel=7 note=38 velocity=0 time=0
EXTRACT: note_on channel=2 note=62 velocity=0 time=0
EXTRACT: note_on channel=2 note=69 velocity=0 time=0
EXTRACT: note_on channel=10 note=69 velocity=0 time=0.005376341666666667
EXTRACT: note_on channel=10 note=74 velocity=0 time=0
EXTRACT: note_on channel=10 note=78 velocity=0 time=0
EXTRACT: note_on channel=0 note=40 velocity=104 time=0
EXTRACT: note_on channel=0 note=52 velocity=105 time=0
EXTRACT: note_on channel=0 note=59 velocity=106 time=0
EXTRACT: note_on channel=0 note=64 velocity=112 time=0
EXTRACT: note_on channel=0 note=68 velocity=106 time=0
EXTRACT: note_on channel=1 note=28 velocity=120 time=0
EXTRACT: note_on channel=2 note=59 velocity=99 time=0
EXTRACT: note_on channel=2 note=64 velocity=109 time=0
EXTRACT: note_on channel=2 note=68 velocity=97 time=0
EXTRACT: note_on channel=3 note=71 velocity=112 time=0
EXTRACT: note_on channel=4 note=59 velocity=112 time=0
EXTRACT: note_on channel=4 note=71 velocity=115 time=0
EXTRACT: note_on channel=7 note=40 velocity=105 time=0
EXTRACT: note_on channel=7 note=56 velocity=104 time=0
EXTRACT: note_on channel=9 note=36 velocity=120 time=0
EXTRACT: note_on channel=10 note=71 velocity=100 time=0
EXTRACT: note_on channel=10 note=68 velocity=100 time=0
EXTRACT: note_on channel=10 note=76 velocity=100 time=0
EXTRACT: note_on channel=15 note=59 velocity=1 time=0
EXTRACT: note_on channel=15 note=71 velocity=1 time=0
EXTRACT: note_on channel=15 note=61 velocity=0 time=0.005376341666666667
EXTRACT: note_on channel=4 note=61 velocity=0 time=0
EXTRACT: control_change channel=0 control=64 value=0 time=0.03763439166666667
EXTRACT: note_on channel=9 note=36 velocity=0 time=0.080645125
EXTRACT: note_on channel=0 note=40 velocity=0 time=0.059139758333333334
EXTRACT: note_on channel=0 note=52 velocity=0 time=0.005376341666666667
EXTRACT: control_change channel=0 control=64 value=127 time=0.08602146666666667
EXTRACT: note_on channel=0 note=40 velocity=103 time=0.048387075
EXTRACT: note_on channel=0 note=52 velocity=103 time=0
EXTRACT: note_on channel=0 note=59 velocity=0 time=0.080645125
EXTRACT: note_on channel=0 note=68 velocity=0 time=0
EXTRACT: note_on channel=0 note=64 velocity=0 time=0.021505366666666668
EXTRACT: note_on channel=9 note=36 velocity=120 time=0.059139758333333334
EXTRACT: note_on channel=9 note=36 velocity=0 time=0.09139780833333334
EXTRACT: note_on channel=0 note=52 velocity=0 time=0.059139758333333334
EXTRACT: note_on channel=15 note=59 velocity=0 time=0
EXTRACT: note_on channel=15 note=71 velocity=0 time=0
EXTRACT: note_on channel=4 note=59 velocity=0 time=0
EXTRACT: note_on channel=4 note=71 velocity=0 time=0
EXTRACT: note_on channel=2 note=68 velocity=0 time=0.005376341666666667
EXTRACT: note_on channel=2 note=64 velocity=0 time=0
EXTRACT: note_on channel=2 note=59 velocity=0 time=0
EXTRACT: note_on channel=3 note=71 velocity=0 time=0
EXTRACT: note_on channel=0 note=40 velocity=0 time=0.005376341666666667
EXTRACT: note_on channel=0 note=59 velocity=101 time=0
EXTRACT: note_on channel=0 note=64 velocity=104 time=0
EXTRACT: note_on channel=0 note=68 velocity=101 time=0
EXTRACT: note_on channel=2 note=59 velocity=100 time=0
EXTRACT: note_on channel=2 note=64 velocity=108 time=0
EXTRACT: note_on channel=2 note=68 velocity=99 time=0
EXTRACT: note_on channel=9 note=38 velocity=120 time=0
EXTRACT: note_on channel=9 note=39 velocity=120 time=0
EXTRACT: note_on channel=9 note=38 velocity=0 time=0.09677415
EXTRACT: note_on channel=9 note=39 velocity=0 time=0.005376341666666667
EXTRACT: note_on channel=0 note=40 velocity=104 time=0.22043000833333334
EXTRACT: note_on channel=0 note=52 velocity=93 time=0
EXTRACT: note_on channel=9 note=36 velocity=120 time=0
EXTRACT: note_on channel=0 note=59 velocity=0 time=0.005376341666666667
EXTRACT: note_on channel=0 note=64 velocity=0 time=0.005376341666666667
EXTRACT: note_on channel=0 note=68 velocity=0 time=0.005376341666666667
EXTRACT: note_on channel=9 note=36 velocity=0 time=0.10752683333333334
EXTRACT: note_on channel=2 note=64 velocity=0 time=0.1935483
EXTRACT: note_on channel=2 note=59 velocity=0 time=0
EXTRACT: note_on channel=2 note=68 velocity=0 time=0
EXTRACT: note_on channel=0 note=59 velocity=102 time=0.005376341666666667
EXTRACT: note_on channel=0 note=64 velocity=109 time=0
EXTRACT: note_on channel=0 note=68 velocity=103 time=0
EXTRACT: note_on channel=2 note=59 velocity=100 time=0
EXTRACT: note_on channel=2 note=64 velocity=108 time=0
EXTRACT: note_on channel=2 note=68 velocity=102 time=0
EXTRACT: note_on channel=3 note=64 velocity=112 time=0
EXTRACT: note_on channel=4 note=52 velocity=92 time=0
EXTRACT: note_on channel=4 note=64 velocity=112 time=0
EXTRACT: note_on channel=15 note=52 velocity=1 time=0
EXTRACT: note_on channel=15 note=64 velocity=1 time=0
EXTRACT: note_on channel=0 note=52 velocity=0 time=0.048387075
EXTRACT: note_on channel=0 note=40 velocity=0 time=0.021505366666666668
EXTRACT: note_on channel=0 note=40 velocity=106 time=0.25268805833333335
EXTRACT: note_on channel=0 note=52 velocity=100 time=0
EXTRACT: note_on channel=3 note=66 velocity=114 time=0
EXTRACT: note_on channel=4 note=54 velocity=108 time=0
EXTRACT: note_on channel=4 note=66 velocity=116 time=0
EXTRACT: note_on channel=9 note=36 velocity=120 time=0
EXTRACT: note_on channel=15 note=54 velocity=1 time=0
EXTRACT: note_on channel=15 note=66 velocity=1 time=0
EXTRACT: note_on channel=15 note=52 velocity=0 time=0.005376341666666667
EXTRACT: note_on channel=4 note=52 velocity=0 time=0
EXTRACT: note_on channel=0 note=68 velocity=0 time=0.005376341666666667
EXTRACT: note_on channel=0 note=59 velocity=0 time=0
EXTRACT: note_on channel=0 note=64 velocity=0 time=0.016129025
EXTRACT: note_on channel=4 note=64 velocity=0 time=0.005376341666666667
EXTRACT: note_on channel=15 note=64 velocity=0 time=0
EXTRACT: note_on channel=3 note=64 velocity=0 time=0
EXTRACT: note_on channel=9 note=36 velocity=0 time=0.09139780833333334
EXTRACT: note_on channel=3 note=66 velocity=0 time=0.16666659166666667
EXTRACT: note_on channel=2 note=64 velocity=0 time=0.026881708333333334
EXTRACT: note_on channel=2 note=59 velocity=0 time=0
EXTRACT: note_on channel=2 note=68 velocity=0 time=0
EXTRACT: note_on channel=4 note=66 velocity=0 time=0.005376341666666667
EXTRACT: note_on channel=15 note=66 velocity=0 time=0
EXTRACT: note_on channel=0 note=59 velocity=107 time=0
EXTRACT: note_on channel=0 note=64 velocity=112 time=0
EXTRACT: note_on channel=0 note=68 velocity=106 time=0
EXTRACT: note_on channel=2 note=59 velocity=97 time=0
EXTRACT: note_on channel=2 note=64 velocity=106 time=0
EXTRACT: note_on channel=2 note=68 velocity=101 time=0
EXTRACT: note_on channel=3 note=69 velocity=108 time=0
EXTRACT: note_on channel=4 note=57 velocity=104 time=0
EXTRACT: note_on channel=4 note=69 velocity=107 time=0
EXTRACT: note_on channel=9 note=38 velocity=120 time=0
EXTRACT: note_on channel=9 note=39 velocity=120 time=0
EXTRACT: note_on channel=15 note=57 velocity=1 time=0
EXTRACT: note_on channel=15 note=69 velocity=1 time=0
EXTRACT: note_on channel=0 note=52 velocity=0 time=0.021505366666666668
EXTRACT: note_on channel=15 note=54 velocity=0 time=0.005376341666666667
EXTRACT: note_on channel=4 note=54 velocity=0 time=0
EXTRACT: note_on channel=0 note=40 velocity=0 time=0.010752683333333334
EXTRACT: note_on channel=9 note=39 velocity=0 time=0.0645161
EXTRACT: note_on channel=9 note=38 velocity=0 time=0
EXTRACT: note_on channel=4 note=69 velocity=0 time=0.209677325
EXTRACT: note_on channel=15 note=69 velocity=0 time=0
EXTRACT: note_on channel=1 note=28 velocity=0 time=0.005376341666666667
EXTRACT: note_on channel=0 note=40 velocity=103 time=0.005376341666666667
EXTRACT: note_on channel=0 note=52 velocity=99 time=0
EXTRACT: note_on channel=1 note=30 velocity=120 time=0
EXTRACT: note_on channel=3 note=71 velocity=106 time=0
EXTRACT: note_on channel=4 note=59 velocity=105 time=0
EXTRACT: note_on channel=4 note=71 velocity=115 time=0
EXTRACT: note_on channel=15 note=59 velocity=1 time=0
EXTRACT: note_on channel=15 note=71 velocity=1 time=0
EXTRACT: note_on channel=3 note=69 velocity=0 time=0.010752683333333334
EXTRACT: note_on channel=0 note=68 velocity=0 time=0.005376341666666667
EXTRACT: note_on channel=0 note=64 velocity=0 time=0
EXTRACT: note_on channel=4 note=57 velocity=0 time=0.010752683333333334
EXTRACT: note_on channel=15 note=57 velocity=0 time=0
EXTRACT: note_on channel=0 note=59 velocity=0 time=0.010752683333333334
EXTRACT: note_on channel=0 note=40 velocity=0 time=0.22043000833333334
EXTRACT: note_on channel=0 note=52 velocity=0 time=0.005376341666666667
EXTRACT: note_on channel=4 note=59 velocity=0 time=0.043010733333333336
EXTRACT: note_on channel=15 note=59 velocity=0 time=0
EXTRACT: note_on channel=2 note=59 velocity=0 time=0.010752683333333334
EXTRACT: note_on channel=2 note=68 velocity=0 time=0
EXTRACT: note_on channel=7 note=56 velocity=0 time=0
EXTRACT: note_on channel=1 note=30 velocity=0 time=0
EXTRACT: note_on channel=7 note=40 velocity=0 time=0
EXTRACT: note_on channel=2 note=64 velocity=0 time=0
EXTRACT: note_on channel=10 note=76 velocity=0 time=0.005376341666666667
EXTRACT: note_on channel=10 note=71 velocity=0 time=0
EXTRACT: note_on channel=10 note=68 velocity=0 time=0
EXTRACT: note_on channel=3 note=71 velocity=0 time=0
EXTRACT: note_on channel=0 note=45 velocity=104 time=0
EXTRACT: note_on channel=0 note=57 velocity=110 time=0
EXTRACT: note_on channel=0 note=61 velocity=106 time=0
EXTRACT: note_on channel=0 note=64 velocity=110 time=0
EXTRACT: note_on channel=0 note=69 velocity=109 time=0
EXTRACT: note_on channel=1 note=33 velocity=120 time=0
EXTRACT: note_on channel=2 note=61 velocity=88 time=0
EXTRACT: note_on channel=2 note=64 velocity=105 time=0
EXTRACT: note_on channel=2 note=69 velocity=103 time=0
EXTRACT: note_on channel=3 note=69 velocity=113 time=0
EXTRACT: note_on channel=4 note=57 velocity=107 time=0
EXTRACT: note_on channel=4 note=69 velocity=111 time=0
EXTRACT: note_on channel=7 note=45 velocity=106 time=0
EXTRACT: note_on channel=7 note=61 velocity=106 time=0
EXTRACT: note_on channel=9 note=36 velocity=120 time=0
EXTRACT: note_on channel=10 note=76 velocity=100 time=0
EXTRACT: note_on channel=10 note=73 velocity=100 time=0
EXTRACT: note_on channel=10 note=69 velocity=100 time=0
EXTRACT: note_on channel=15 note=57 velocity=1 time=0
EXTRACT: note_on channel=15 note=69 velocity=1 time=0
EXTRACT: note_on channel=15 note=71 velocity=0 time=0.016129025
EXTRACT: note_on channel=4 note=71 velocity=0 time=0
EXTRACT: control_change channel=0 control=64 value=0 time=0.005376341666666667
EXTRACT: note_on channel=9 note=36 velocity=0 time=0.12365585833333334
EXTRACT: note_on channel=0 note=45 velocity=0 time=0.03763439166666667
EXTRACT: control_change channel=0 control=64 value=127 time=0.03763439166666667
EXTRACT: note_on channel=0 note=69 velocity=0 time=0.09677415
EXTRACT: note_on channel=0 note=45 velocity=104 time=0.005376341666666667
EXTRACT: note_on channel=0 note=64 velocity=0 time=0.03763439166666667
EXTRACT: note_on channel=0 note=57 velocity=0 time=0.016129025
EXTRACT: note_on channel=0 note=61 velocity=0 time=0.021505366666666668
EXTRACT: note_on channel=9 note=36 velocity=120 time=0.08602146666666667
EXTRACT: note_on channel=9 note=36 velocity=0 time=0.11827951666666667
EXTRACT: note_on channel=2 note=61 velocity=0 time=0.03763439166666667
EXTRACT: note_on channel=2 note=64 velocity=0 time=0
EXTRACT: note_on channel=2 note=69 velocity=0 time=0
EXTRACT: note_on channel=0 note=45 velocity=0 time=0.005376341666666667
EXTRACT: note_on channel=0 note=57 velocity=101 time=0
EXTRACT: note_on channel=0 note=61 velocity=98 time=0
EXTRACT: note_on channel=0 note=64 velocity=107 time=0
EXTRACT: note_on channel=0 note=69 velocity=104 time=0
EXTRACT: note_on channel=2 note=61 velocity=96 time=0
EXTRACT: note_on channel=2 note=64 velocity=107 time=0
EXTRACT: note_on channel=2 note=69 velocity=105 time=0
EXTRACT: note_on channel=9 note=38 velocity=120 time=0
EXTRACT: note_on channel=9 note=39 velocity=120 time=0
EXTRACT: note_on channel=9 note=38 velocity=0 time=0.11290317500000001
EXTRACT: note_on channel=9 note=39 velocity=0 time=0.016129025
EXTRACT: note_on channel=0 note=69 velocity=0 time=0.16129025
EXTRACT: note_on channel=0 note=64 velocity=0 time=0.016129025
EXTRACT: note_on channel=0 note=57 velocity=0 time=0.005376341666666667
EXTRACT: note_on channel=0 note=45 velocity=100 time=0.010752683333333334
EXTRACT: note_on channel=9 note=36 velocity=120 time=0
EXTRACT: note_on channel=0 note=61 velocity=0 time=0.010752683333333334
EXTRACT: note_on channel=9 note=36 velocity=0 time=0.13978488333333333
EXTRACT: note_on channel=0 note=45 velocity=0 time=0.16129025
EXTRACT: note_on channel=2 note=69 velocity=0 time=0.005376341666666667
EXTRACT: note_on channel=2 note=61 velocity=0 time=0
EXTRACT: note_on channel=2 note=64 velocity=0 time=0
EXTRACT: note_on channel=0 note=57 velocity=102 time=0.005376341666666667
EXTRACT: note_on channel=0 note=61 velocity=88 time=0
EXTRACT: note_on channel=0 note=64 velocity=106 time=0
EXTRACT: note_on channel=0 note=69 velocity=100 time=0
EXTRACT: note_on channel=2 note=61 velocity=98 time=0
EXTRACT: note_on channel=2 note=64 velocity=109 time=0
EXTRACT: note_on channel=2 note=69 velocity=102 time=0
EXTRACT: note_on channel=3 note=69 velocity=0 time=0.24731171666666668
EXTRACT: note_on channel=15 note=57 velocity=0 time=0.059139758333333334
EXTRACT: note_on channel=4 note=57 velocity=0 time=0
EXTRACT: note_on channel=0 note=45 velocity=100 time=0.016129025
EXTRACT: note_on channel=3 note=71 velocity=115 time=0
EXTRACT: note_on channel=4 note=59 velocity=109 time=0
EXTRACT: note_on channel=4 note=71 velocity=113 time=0
EXTRACT: note_on channel=9 note=36 velocity=120 time=0
EXTRACT: note_on channel=15 note=59 velocity=1 time=0
EXTRACT: note_on channel=15 note=71 velocity=1 time=0
EXTRACT: note_on channel=4 note=69 velocity=0 time=0.005376341666666667
EXTRACT: note_on channel=15 note=69 velocity=0 time=0
EXTRACT: note_on channel=0 note=69 velocity=0 time=0.005376341666666667
EXTRACT: note_on channel=0 note=57 velocity=0 time=0.016129025
EXTRACT: note_on channel=0 note=64 velocity=0 time=0
EXTRACT: note_on channel=0 note=61 velocity=0 time=0.03225805
EXTRACT: note_on channel=9 note=36 velocity=0 time=0.06989244166666667
EXTRACT: note_on channel=2 note=64 velocity=0 time=0.18817195833333333
EXTRACT: note_on channel=2 note=61 velocity=0 time=0
EXTRACT: note_on channel=15 note=59 velocity=0 time=0
EXTRACT: note_on channel=4 note=59 velocity=0 time=0
EXTRACT: note_on channel=2 note=69 velocity=0 time=0
EXTRACT: note_on channel=0 note=57 velocity=106 time=0.005376341666666667
EXTRACT: note_on channel=0 note=61 velocity=99 time=0
EXTRACT: note_on channel=0 note=64 velocity=109 time=0
EXTRACT: note_on channel=0 note=69 velocity=107 time=0
EXTRACT: note_on channel=2 note=61 velocity=94 time=0
EXTRACT: note_on channel=2 note=64 velocity=107 time=0
EXTRACT: note_on channel=2 note=69 velocity=102 time=0
EXTRACT: note_on channel=3 note=73 velocity=110 time=0
EXTRACT: note_on channel=4 note=61 velocity=101 time=0
EXTRACT: note_on channel=4 note=73 velocity=110 time=0
EXTRACT: note_on channel=9 note=38 velocity=120 time=0
EXTRACT: note_on channel=9 note=39 velocity=120 time=0
EXTRACT: note_on channel=15 note=61 velocity=1 time=0
EXTRACT: note_on channel=15 note=73 velocity=1 time=0
EXTRACT: note_on channel=15 note=71 velocity=0 time=0.005376341666666667
EXTRACT: note_on channel=4 note=71 velocity=0 time=0
EXTRACT: note_on channel=0 note=45 velocity=0 time=0.010752683333333334
EXTRACT: note_on channel=3 note=71 velocity=0 time=0.010752683333333334
EXTRACT: note_on channel=9 note=38 velocity=0 time=0.09139780833333334
EXTRACT: note_on channel=9 note=39 velocity=0 time=0.010752683333333334
EXTRACT: note_on channel=4 note=73 velocity=0 time=0.17204293333333334
EXTRACT: note_on channel=15 note=73 velocity=0 time=0
EXTRACT: note_on channel=3 note=73 velocity=0 time=0.021505366666666668
EXTRACT: note_on channel=0 note=45 velocity=99 time=0
EXTRACT: note_on channel=3 note=66 velocity=120 time=0
EXTRACT: note_on channel=4 note=54 velocity=97 time=0
EXTRACT: note_on channel=4 note=66 velocity=114 time=0
EXTRACT: note_on channel=15 note=54 velocity=1 time=0
EXTRACT: note_on channel=15 note=66 velocity=1 time=0
EXTRACT: note_on channel=4 note=61 velocity=0 time=0.005376341666666667
EXTRACT: note_on channel=15 note=61 velocity=0 time=0
EXTRACT: note_on channel=0 note=69 velocity=0 time=0.016129025
EXTRACT: note_on channel=0 note=64 velocity=0 time=0.010752683333333334
EXTRACT: note_on channel=0 note=61 velocity=0 time=0.021505366666666668
EXTRACT: note_on channel=0 note=57 velocity=0 time=0.010752683333333334
EXTRACT: note_on channel=0 note=45 velocity=0 time=0.010752683333333334
EXTRACT: note_on channel=2 note=69 velocity=0 time=0.241935375
EXTRACT: note_on channel=2 note=64 velocity=0 time=0
EXTRACT: note_on channel=7 note=61 velocity=0 time=0
EXTRACT: note_on channel=7 note=45 velocity=0 time=0
EXTRACT: note_on channel=1 note=33 velocity=0 time=0
EXTRACT: note_on channel=2 note=61 velocity=0 time=0
EXTRACT: note_on channel=10 note=69 velocity=0 time=0.005376341666666667
EXTRACT: note_on channel=10 note=76 velocity=0 time=0
EXTRACT: note_on channel=10 note=73 velocity=0 time=0
EXTRACT: note_on channel=0 note=57 velocity=109 time=0
EXTRACT: note_on channel=0 note=61 velocity=106 time=0
EXTRACT: note_on channel=0 note=66 velocity=106 time=0
EXTRACT: note_on channel=0 note=69 velocity=110 time=0
EXTRACT: note_on channel=1 note=30 velocity=120 time=0
EXTRACT: note_on channel=2 note=61 velocity=95 time=0
EXTRACT: note_on channel=2 note=66 velocity=101 time=0
EXTRACT: note_on channel=2 note=69 velocity=100 time=0
EXTRACT: note_on channel=7 note=42 velocity=101 time=0
EXTRACT: note_on channel=7 note=57 velocity=113 time=0
EXTRACT: note_on channel=9 note=36 velocity=120 time=0
EXTRACT: note_on channel=10 note=73 velocity=100 time=0
EXTRACT: note_on channel=10 note=69 velocity=100 time=0
EXTRACT: note_on channel=10 note=78 velocity=100 time=0
EXTRACT: control_change channel=0 control=64 value=0 time=0.13978488333333333
EXTRACT: note_on channel=9 note=36 velocity=0 time=0.005376341666666667
EXTRACT: note_on channel=0 note=42 velocity=88 time=0.17741927500000002
EXTRACT: note_on channel=0 note=54 velocity=95 time=0
EXTRACT: control_change channel=0 control=64 value=127 time=0.016129025
EXTRACT: note_on channel=0 note=69 velocity=0 time=0.10215049166666668
EXTRACT: note_on channel=0 note=66 velocity=0 time=0.03225805
EXTRACT: note_on channel=0 note=57 velocity=0 time=0.005376341666666667
EXTRACT: note_on channel=9 note=36 velocity=120 time=0.005376341666666667
EXTRACT: note_on channel=0 note=61 velocity=0 time=0.005376341666666667
EXTRACT: note_on channel=9 note=36 velocity=0 time=0.09139780833333334
EXTRACT: note_on channel=3 note=66 velocity=0 time=0.016129025
EXTRACT: note_on channel=2 note=61 velocity=0 time=0.043010733333333336
EXTRACT: note_on channel=2 note=69 velocity=0 time=0
EXTRACT: note_on channel=2 note=66 velocity=0 time=0
EXTRACT: note_on channel=0 note=57 velocity=106 time=0.005376341666666667
EXTRACT: note_on channel=0 note=61 velocity=101 time=0
EXTRACT: note_on channel=0 note=66 velocity=101 time=0
EXTRACT: note_on channel=0 note=69 velocity=103 time=0
EXTRACT: note_on channel=2 note=61 velocity=97 time=0
EXTRACT: note_on channel=2 note=66 velocity=103 time=0
EXTRACT: note_on channel=2 note=69 velocity=102 time=0
EXTRACT: note_on channel=9 note=38 velocity=120 time=0
EXTRACT: note_on channel=9 note=39 velocity=120 time=0
EXTRACT: note_on channel=4 note=66 velocity=0 time=0.005376341666666667
EXTRACT: note_on channel=15 note=66 velocity=0 time=0
EXTRACT: note_on channel=4 note=54 velocity=0 time=0.005376341666666667
EXTRACT: note_on channel=15 note=54 velocity=0 time=0
EXTRACT: note_on channel=0 note=42 velocity=0 time=0.043010733333333336
EXTRACT: note_on channel=0 note=54 velocity=0 time=0.005376341666666667
EXTRACT: note_on channel=9 note=38 velocity=0 time=0.048387075
EXTRACT: note_on channel=9 note=39 velocity=0 time=0.005376341666666667
EXTRACT: note_on channel=0 note=42 velocity=101 time=0.209677325
EXTRACT: note_on channel=0 note=54 velocity=106 time=0
EXTRACT: note_on channel=9 note=36 velocity=120 time=0
EXTRACT: note_on channel=0 note=69 velocity=0 time=0.03225805
EXTRACT: note_on channel=0 note=57 velocity=0 time=0.026881708333333334
EXTRACT: note_on channel=0 note=66 velocity=0 time=0
EXTRACT: note_on channel=0 note=61 velocity=0 time=0.010752683333333334
EXTRACT: note_on channel=9 note=36 velocity=0 time=0.059139758333333334
EXTRACT: note_on channel=2 note=66 velocity=0 time=0.18817195833333333
EXTRACT: note_on channel=2 note=69 velocity=0 time=0
EXTRACT: note_on channel=2 note=61 velocity=0 time=0
EXTRACT: note_on channel=0 note=57 velocity=102 time=0.005376341666666667
EXTRACT: note_on channel=0 note=61 velocity=100 time=0
EXTRACT: note_on channel=0 note=66 velocity=100 time=0
EXTRACT: note_on channel=0 note=69 velocity=104 time=0
EXTRACT: note_on channel=2 note=61 velocity=96 time=0
EXTRACT: note_on channel=2 note=66 velocity=101 time=0
EXTRACT: note_on channel=2 note=69 velocity=100 time=0
EXTRACT: note_on channel=3 note=69 velocity=113 time=0
EXTRACT: note_on channel=4 note=57 velocity=109 time=0
EXTRACT: note_on channel=4 note=69 velocity=115 time=0
EXTRACT: note_on channel=15 note=57 velocity=1 time=0
EXTRACT: note_on channel=15 note=69 velocity=1 time=0
EXTRACT: note_on channel=0 note=54 velocity=0 time=0.03763439166666667
EXTRACT: note_on channel=0 note=42 velocity=0 time=0.021505366666666668
EXTRACT: note_on channel=3 note=69 velocity=0 time=0.241935375
EXTRACT: note_on channel=4 note=57 velocity=0 time=0.005376341666666667
EXTRACT: note_on channel=15 note=57 velocity=0 time=0
EXTRACT: note_on channel=4 note=69 velocity=0 time=0
EXTRACT: note_on channel=15 note=69 velocity=0 time=0
EXTRACT: note_on channel=0 note=42 velocity=79 time=0.016129025
EXTRACT: note_on channel=0 note=54 velocity=95 time=0
EXTRACT: note_on channel=3 note=71 velocity=115 time=0
EXTRACT: note_on channel=4 note=59 velocity=115 time=0
EXTRACT: note_on channel=4 note=71 velocity=115 time=0
EXTRACT: note_on channel=9 note=36 velocity=120 time=0
EXTRACT: note_on channel=15 note=59 velocity=1 time=0
EXTRACT: note_on channel=15 note=71 velocity=1 time=0
EXTRACT: note_on channel=0 note=66 velocity=0 time=0.10215049166666668
EXTRACT: note_on channel=9 note=36 velocity=0 time=0.016129025
EXTRACT: note_on channel=0 note=69 velocity=0 time=0.005376341666666667
EXTRACT: note_on channel=0 note=61 velocity=0 time=0.010752683333333334
EXTRACT: note_on channel=0 note=57 velocity=0 time=0.010752683333333334
EXTRACT: note_on channel=4 note=71 velocity=0 time=0.16129025
EXTRACT: note_on channel=15 note=71 velocity=0 time=0
EXTRACT: note_on channel=2 note=66 velocity=0 time=0.010752683333333334
EXTRACT: note_on channel=15 note=59 velocity=0 time=0
EXTRACT: note_on channel=4 note=59 velocity=0 time=0
EXTRACT: note_on channel=2 note=61 velocity=0 time=0
EXTRACT: note_on channel=2 note=69 velocity=0 time=0
EXTRACT: note_on channel=0 note=57 velocity=106 time=0.005376341666666667
EXTRACT: note_on channel=0 note=61 velocity=103 time=0
EXTRACT: note_on channel=0 note=66 velocity=100 time=0
EXTRACT: note_on channel=0 note=69 velocity=108 time=0
EXTRACT: note_on channel=2 note=61 velocity=97 time=0
EXTRACT: note_on channel=2 note=66 velocity=101 time=0
EXTRACT: note_on channel=2 note=69 velocity=99 time=0
EXTRACT: note_on channel=3 note=73 velocity=110 time=0
EXTRACT: note_on channel=4 note=61 velocity=97 time=0
EXTRACT: note_on channel=4 note=73 velocity=107 time=0
EXTRACT: note_on channel=9 note=38 velocity=120 time=0
EXTRACT: note_on channel=9 note=39 velocity=120 time=0
EXTRACT: note_on channel=15 note=73 velocity=1 time=0
EXTRACT: note_on channel=15 note=61 velocity=1 time=0
EXTRACT: note_on channel=3 note=71 velocity=0 time=0.016129025
EXTRACT: note_on channel=0 note=54 velocity=0 time=0.021505366666666668
EXTRACT: note_on channel=0 note=42 velocity=0 time=0.026881708333333334
EXTRACT: note_on channel=9 note=38 velocity=0 time=0.03763439166666667
EXTRACT: note_on channel=9 note=39 velocity=0 time=0.010752683333333334
EXTRACT: note_on channel=3 note=73 velocity=0 time=0.1344085416666667
EXTRACT: note_on channel=4 note=61 velocity=0 time=0.03763439166666667
EXTRACT: note_on channel=15 note=61 velocity=0 time=0
EXTRACT: note_on channel=4 note=73 velocity=0 time=0.005376341666666667
EXTRACT: note_on channel=15 note=73 velocity=0 time=0
EXTRACT: note_on channel=1 note=30 velocity=0 time=0.026881708333333334
EXTRACT: note_on channel=0 note=42 velocity=93 time=0.005376341666666667
EXTRACT: note_on channel=0 note=54 velocity=88 time=0
EXTRACT: note_on channel=1 note=26 velocity=120 time=0
EXTRACT: note_on channel=3 note=73 velocity=110 time=0
EXTRACT: note_on channel=4 note=61 velocity=102 time=0
EXTRACT: note_on channel=4 note=73 velocity=105 time=0
EXTRACT: note_on channel=15 note=73 velocity=1 time=0
EXTRACT: note_on channel=15 note=61 velocity=1 time=0
EXTRACT: note_on channel=0 note=69 velocity=0 time=0.043010733333333336
EXTRACT: note_on channel=0 note=66 velocity=0 time=0.016129025
EXTRACT: note_on channel=0 note=57 velocity=0 time=0.016129025
EXTRACT: note_on channel=0 note=54 velocity=0 time=0
EXTRACT: note_on channel=0 note=61 velocity=0 time=0.010752683333333334
EXTRACT: note_on channel=0 note=42 velocity=0 time=0.03763439166666667
EXTRACT: note_on channel=15 note=73 velocity=0 time=0.12365585833333334
EXTRACT: note_on channel=4 note=73 velocity=0 time=0
EXTRACT: note_on channel=3 note=73 velocity=0 time=0
EXTRACT: note_on channel=4 note=61 velocity=0 time=0.010752683333333334
EXTRACT: note_on channel=15 note=61 velocity=0 time=0
EXTRACT: note_on channel=1 note=26 velocity=0 time=0.059139758333333334
EXTRACT: note_on channel=2 note=69 velocity=0 time=0
EXTRACT: note_on channel=2 note=66 velocity=0 time=0
EXTRACT: note_on channel=7 note=42 velocity=0 time=0
EXTRACT: note_on channel=7 note=57 velocity=0 time=0
EXTRACT: note_on channel=2 note=61 velocity=0 time=0
EXTRACT: note_on channel=10 note=69 velocity=0 time=0.005376341666666667
EXTRACT: note_on channel=10 note=73 velocity=0 time=0
EXTRACT: note_on channel=10 note=78 velocity=0 time=0
EXTRACT: note_on channel=0 note=37 velocity=103 time=0
EXTRACT: note_on channel=0 note=49 velocity=96 time=0
EXTRACT: note_on channel=0 note=56 velocity=85 time=0
EXTRACT: note_on channel=0 note=61 velocity=103 time=0
EXTRACT: note_on channel=0 note=64 velocity=107 time=0
EXTRACT: note_on channel=0 note=68 velocity=102 time=0
EXTRACT: note_on channel=1 note=25 velocity=120 time=0
EXTRACT: note_on channel=2 note=61 velocity=94 time=0
EXTRACT: note_on channel=2 note=64 velocity=107 time=0
EXTRACT: note_on channel=2 note=68 velocity=100 time=0
EXTRACT: note_on channel=3 note=73 velocity=109 time=0
EXTRACT: note_on channel=4 note=61 velocity=100 time=0
EXTRACT: note_on channel=4 note=73 velocity=116 time=0
EXTRACT: note_on channel=7 note=37 velocity=109 time=0
EXTRACT: note_on channel=7 note=56 velocity=105 time=0
EXTRACT: note_on channel=9 note=36 velocity=120 time=0
EXTRACT: note_on channel=10 note=73 velocity=100 time=0
EXTRACT: note_on channel=10 note=68 velocity=100 time=0
EXTRACT: note_on channel=10 note=76 velocity=100 time=0
EXTRACT: note_on channel=10 note=75 velocity=100 time=0
EXTRACT: note_on channel=15 note=73 velocity=1 time=0
EXTRACT: note_on channel=15 note=61 velocity=1 time=0
EXTRACT: control_change channel=0 control=64 value=0 time=0.021505366666666668
EXTRACT: note_on channel=9 note=36 velocity=0 time=0.11290317500000001
EXTRACT: control_change channel=0 control=64 value=127 time=0.03763439166666667
EXTRACT: note_on channel=0 note=49 velocity=0 time=0.010752683333333334
EXTRACT: note_on channel=0 note=37 velocity=0 time=0.005376341666666667
EXTRACT: note_on channel=0 note=64 velocity=0 time=0.12365585833333334
EXTRACT: note_on channel=0 note=68 velocity=0 time=0.010752683333333334
EXTRACT: note_on channel=0 note=37 velocity=94 time=0
EXTRACT: note_on channel=0 note=49 velocity=97 time=0
EXTRACT: note_on channel=0 note=56 velocity=0 time=0.021505366666666668
EXTRACT: note_on channel=0 note=61 velocity=0 time=0.010752683333333334
EXTRACT: note_on channel=9 note=36 velocity=120 time=0.1290322
EXTRACT: note_on channel=9 note=36 velocity=0 time=0.09139780833333334
EXTRACT: note_on channel=2 note=61 velocity=0 time=0.0645161
EXTRACT: note_on channel=2 note=64 velocity=0 time=0
EXTRACT: note_on channel=2 note=68 velocity=0 time=0
EXTRACT: note_on channel=10 note=75 velocity=0 time=0.005376341666666667
EXTRACT: note_on channel=0 note=56 velocity=102 time=0
EXTRACT: note_on channel=0 note=61 velocity=108 time=0
EXTRACT: note_on channel=0 note=64 velocity=115 time=0
EXTRACT: note_on channel=0 note=68 velocity=105 time=0
EXTRACT: note_on channel=2 note=61 velocity=97 time=0
EXTRACT: note_on channel=2 note=64 velocity=109 time=0
EXTRACT: note_on channel=2 note=68 velocity=102 time=0
EXTRACT: note_on channel=9 note=38 velocity=120 time=0
EXTRACT: note_on channel=9 note=39 velocity=120 time=0
EXTRACT: note_on channel=0 note=49 velocity=0 time=0.048387075
EXTRACT: note_on channel=0 note=37 velocity=0 time=0.010752683333333334
EXTRACT: note_on channel=9 note=38 velocity=0 time=0.0645161
EXTRACT: note_on channel=9 note=39 velocity=0 time=0.005376341666666667
EXTRACT: note_on channel=0 note=64 velocity=0 time=0.17204293333333334
EXTRACT: note_on channel=0 note=68 velocity=0 time=0.021505366666666668
EXTRACT: note_on channel=15 note=73 velocity=0 time=0
EXTRACT: note_on channel=4 note=73 velocity=0 time=0
EXTRACT: note_on channel=0 note=37 velocity=88 time=0
EXTRACT: note_on channel=0 note=49 velocity=100 time=0
EXTRACT: note_on channel=9 note=36 velocity=120 time=0
EXTRACT: note_on channel=0 note=61 velocity=0 time=0.010752683333333334
EXTRACT: note_on channel=0 note=56 velocity=0 time=0
EXTRACT: note_on channel=15 note=61 velocity=0 time=0.016129025
EXTRACT: note_on channel=4 note=61 velocity=0 time=0
EXTRACT: note_on channel=3 note=73 velocity=0 time=0.10752683333333334
EXTRACT: note_on channel=9 note=36 velocity=0 time=0.005376341666666667
EXTRACT: note_on channel=2 note=61 velocity=0 time=0.17741927500000002
EXTRACT: note_on channel=2 note=64 velocity=0 time=0
EXTRACT: note_on channel=2 note=68 velocity=0 time=0
EXTRACT: note_on channel=0 note=56 velocity=101 time=0.005376341666666667
EXTRACT: note_on channel=0 note=61 velocity=106 time=0
EXTRACT: note_on channel=0 note=64 velocity=112 time=0
EXTRACT: note_on channel=0 note=68 velocity=101 time=0
EXTRACT: note_on channel=2 note=61 velocity=94 time=0
EXTRACT: note_on channel=2 note=64 velocity=107 time=0
EXTRACT: note_on channel=2 note=68 velocity=100 time=0
EXTRACT: note_on channel=3 note=69 velocity=115 time=0
EXTRACT: note_on channel=4 note=57 velocity=107 time=0
EXTRACT: note_on channel=4 note=69 velocity=115 time=0
EXTRACT: note_on channel=15 note=69 velocity=1 time=0
EXTRACT: note_on channel=15 note=57 velocity=1 time=0
EXTRACT: note_on channel=0 note=49 velocity=0 time=0.03763439166666667
EXTRACT: note_on channel=0 note=37 velocity=0 time=0.010752683333333334
EXTRACT: note_on channel=0 note=64 velocity=0 time=0.19892464166666668
EXTRACT: note_on channel=0 note=61 velocity=0 time=0.03763439166666667
EXTRACT: note_on channel=3 note=69 velocity=0 time=0.005376341666666667
EXTRACT: note_on channel=0 note=56 velocity=0 time=0.010752683333333334
EXTRACT: note_on channel=4 note=57 velocity=0 time=0.005376341666666667
EXTRACT: note_on channel=15 note=57 velocity=0 time=0
EXTRACT: note_on channel=0 note=68 velocity=0 time=0
EXTRACT: note_on channel=0 note=37 velocity=88 time=0.016129025
EXTRACT: note_on channel=0 note=49 velocity=95 time=0
EXTRACT: note_on channel=3 note=71 velocity=115 time=0
EXTRACT: note_on channel=4 note=59 velocity=116 time=0
EXTRACT: note_on channel=4 note=71 velocity=115 time=0
EXTRACT: note_on channel=9 note=36 velocity=120 time=0
EXTRACT: note_on channel=15 note=59 velocity=1 time=0
EXTRACT: note_on channel=15 note=71 velocity=1 time=0
EXTRACT: note_on channel=15 note=69 velocity=0 time=0.005376341666666667
EXTRACT: note_on channel=4 note=69 velocity=0 time=0
EXTRACT: note_on channel=9 note=36 velocity=0 time=0.11290317500000001
EXTRACT: note_on channel=3 note=71 velocity=0 time=0.17741927500000002
EXTRACT: note_on channel=0 note=49 velocity=0 time=0.005376341666666667
EXTRACT: note_on channel=15 note=59 velocity=0 time=0.005376341666666667
EXTRACT: note_on channel=4 note=59 velocity=0 time=0
EXTRACT: note_on channel=2 note=64 velocity=0 time=0.010752683333333334
EXTRACT: note_on channel=2 note=61 velocity=0 time=0
EXTRACT: note_on channel=2 note=68 velocity=0 time=0
EXTRACT: note_on channel=0 note=56 velocity=105 time=0.005376341666666667
EXTRACT: note_on channel=0 note=61 velocity=108 time=0
EXTRACT: note_on channel=0 note=64 velocity=112 time=0
EXTRACT: note_on channel=0 note=68 velocity=99 time=0
EXTRACT: note_on channel=2 note=61 velocity=93 time=0
EXTRACT: note_on channel=2 note=64 velocity=107 time=0
EXTRACT: note_on channel=2 note=68 velocity=102 time=0
EXTRACT: note_on channel=3 note=73 velocity=108 time=0
EXTRACT: note_on channel=4 note=61 velocity=101 time=0
EXTRACT: note_on channel=4 note=73 velocity=108 time=0
EXTRACT: note_on channel=9 note=38 velocity=120 time=0
EXTRACT: note_on channel=9 note=39 velocity=120 time=0
EXTRACT: note_on channel=15 note=61 velocity=1 time=0
EXTRACT: note_on channel=15 note=73 velocity=1 time=0
EXTRACT: note_on channel=0 note=37 velocity=0 time=0.005376341666666667
EXTRACT: note_on channel=4 note=71 velocity=0 time=0.010752683333333334
EXTRACT: note_on channel=15 note=71 velocity=0 time=0
EXTRACT: note_on channel=9 note=38 velocity=0 time=0.09677415
EXTRACT: note_on channel=9 note=39 velocity=0 time=0.010752683333333334
EXTRACT: note_on channel=0 note=64 velocity=0 time=0.08602146666666667
EXTRACT: note_on channel=0 note=68 velocity=0 time=0.03225805
EXTRACT: note_on channel=3 note=73 velocity=0 time=0.03225805
EXTRACT: note_on channel=0 note=61 velocity=0 time=0
EXTRACT: note_on channel=0 note=56 velocity=0 time=0
EXTRACT: note_on channel=15 note=73 velocity=0 time=0.010752683333333334
EXTRACT: note_on channel=4 note=73 velocity=0 time=0
EXTRACT: note_on channel=15 note=61 velocity=0 time=0.010752683333333334
EXTRACT: note_on channel=4 note=61 velocity=0 time=0
EXTRACT: note_on channel=0 note=37 velocity=94 time=0.026881708333333334
EXTRACT: note_on channel=0 note=49 velocity=104 time=0
EXTRACT: note_on channel=3 note=73 velocity=109 time=0
EXTRACT: note_on channel=4 note=61 velocity=83 time=0
EXTRACT: note_on channel=4 note=73 velocity=106 time=0
EXTRACT: note_on channel=15 note=61 velocity=1 time=0
EXTRACT: note_on channel=15 note=73 velocity=1 time=0
EXTRACT: note_on channel=0 note=37 velocity=0 time=0.08602146666666667
EXTRACT: note_on channel=0 note=49 velocity=0 time=0.016129025
EXTRACT: note_on channel=15 note=73 velocity=0 time=0.17204293333333334
EXTRACT: note_on channel=4 note=73 velocity=0 time=0
EXTRACT: note_on channel=3 note=73 velocity=0 time=0.021505366666666668
EXTRACT: note_on channel=7 note=37 velocity=0 time=0.021505366666666668
EXTRACT: note_on channel=2 note=61 velocity=0 time=0
EXTRACT: note_on channel=7 note=56 velocity=0 time=0
EXTRACT: note_on channel=15 note=61 velocity=0 time=0
EXTRACT: note_on channel=1 note=25 velocity=0 time=0
EXTRACT: note_on channel=2 note=64 velocity=0 time=0
EXTRACT: note_on channel=4 note=61 velocity=0 time=0
EXTRACT: note_on channel=2 note=68 velocity=0 time=0
EXTRACT: note_on channel=10 note=73 velocity=0 time=0.005376341666666667
EXTRACT: note_on channel=10 note=68 velocity=0 time=0
EXTRACT: note_on channel=10 note=76 velocity=0 time=0
EXTRACT: note_on channel=0 note=56 velocity=103 time=0
EXTRACT: note_on channel=0 note=59 velocity=116 time=0
EXTRACT: note_on channel=0 note=64 velocity=111 time=0
EXTRACT: note_on channel=0 note=68 velocity=101 time=0
EXTRACT: note_on channel=1 note=28 velocity=120 time=0
EXTRACT: note_on channel=2 note=59 velocity=98 time=0
EXTRACT: note_on channel=2 note=64 velocity=107 time=0
EXTRACT: note_on channel=2 note=68 velocity=97 time=0
EXTRACT: note_on channel=3 note=71 velocity=115 time=0
EXTRACT: note_on channel=4 note=59 velocity=110 time=0
EXTRACT: note_on channel=4 note=71 velocity=112 time=0
EXTRACT: note_on channel=7 note=40 velocity=105 time=0
EXTRACT: note_on channel=7 note=59 velocity=109 time=0
EXTRACT: note_on channel=9 note=36 velocity=120 time=0
EXTRACT: note_on channel=10 note=68 velocity=100 time=0
EXTRACT: note_on channel=10 note=71 velocity=100 time=0
EXTRACT: note_on channel=10 note=76 velocity=100 time=0
EXTRACT: note_on channel=15 note=59 velocity=1 time=0
EXTRACT: note_on channel=15 note=71 velocity=1 time=0
EXTRACT: control_change channel=0 control=64 value=0 time=0.05376341666666667
EXTRACT: note_on channel=9 note=36 velocity=0 time=0.06989244166666667
EXTRACT: control_change channel=0 control=64 value=127 time=0.16129025
EXTRACT: note_on channel=0 note=40 velocity=104 time=0.03763439166666667
EXTRACT: note_on channel=0 note=52 velocity=102 time=0
EXTRACT: note_on channel=0 note=64 velocity=0 time=0.005376341666666667
EXTRACT: note_on channel=0 note=59 velocity=0 time=0.03763439166666667
EXTRACT: note_on channel=0 note=56 velocity=0 time=0.03225805
EXTRACT: note_on channel=0 note=68 velocity=0 time=0.005376341666666667
EXTRACT: note_on channel=9 note=36 velocity=120 time=0.080645125
EXTRACT: note_on channel=9 note=36 velocity=0 time=0.09139780833333334
EXTRACT: note_on channel=0 note=40 velocity=0 time=0
EXTRACT: note_on channel=0 note=52 velocity=0 time=0.005376341666666667
EXTRACT: note_on channel=2 note=68 velocity=0 time=0.059139758333333334
EXTRACT: note_on channel=2 note=59 velocity=0 time=0
EXTRACT: note_on channel=2 note=64 velocity=0 time=0
EXTRACT: note_on channel=0 note=56 velocity=101 time=0.005376341666666667
EXTRACT: note_on channel=0 note=59 velocity=116 time=0
EXTRACT: note_on channel=0 note=64 velocity=112 time=0
EXTRACT: note_on channel=0 note=68 velocity=101 time=0
EXTRACT: note_on channel=2 note=59 velocity=93 time=0
EXTRACT: note_on channel=2 note=64 velocity=104 time=0
EXTRACT: note_on channel=2 note=68 velocity=97 time=0
EXTRACT: note_on channel=9 note=38 velocity=120 time=0
EXTRACT: note_on channel=9 note=39 velocity=120 time=0
EXTRACT: note_on channel=9 note=38 velocity=0 time=0.09677415
EXTRACT: note_on channel=9 note=39 velocity=0 time=0.005376341666666667
EXTRACT: note_on channel=4 note=71 velocity=0 time=0.08602146666666667
EXTRACT: note_on channel=15 note=71 velocity=0 time=0
EXTRACT: note_on channel=4 note=59 velocity=0 time=0.021505366666666668
EXTRACT: note_on channel=15 note=59 velocity=0 time=0
EXTRACT: note_on channel=0 note=64 velocity=0 time=0.005376341666666667
EXTRACT: note_on channel=0 note=59 velocity=0 time=0.043010733333333336
EXTRACT: note_on channel=3 note=71 velocity=0 time=0.03225805
EXTRACT: note_on channel=0 note=56 velocity=0 time=0
EXTRACT: note_on channel=0 note=68 velocity=0 time=0.016129025
EXTRACT: note_on channel=0 note=40 velocity=100 time=0.016129025
EXTRACT: note_on channel=0 note=52 velocity=97 time=0
EXTRACT: note_on channel=9 note=36 velocity=120 time=0
EXTRACT: note_on channel=9 note=36 velocity=0 time=0.12365585833333334
EXTRACT: note_on channel=0 note=40 velocity=0 time=0.026881708333333334
EXTRACT: note_on channel=0 note=52 velocity=0 time=0
EXTRACT: note_on channel=2 note=68 velocity=0 time=0.16666659166666667
EXTRACT: note_on channel=2 note=59 velocity=0 time=0
EXTRACT: note_on channel=2 note=64 velocity=0 time=0
EXTRACT: note_on channel=0 note=40 velocity=105 time=0.005376341666666667
EXTRACT: note_on channel=0 note=52 velocity=102 time=0
EXTRACT: note_on channel=0 note=56 velocity=99 time=0
EXTRACT: note_on channel=0 note=59 velocity=113 time=0
EXTRACT: note_on channel=0 note=64 velocity=109 time=0
EXTRACT: note_on channel=0 note=68 velocity=100 time=0
EXTRACT: note_on channel=2 note=59 velocity=98 time=0
EXTRACT: note_on channel=2 note=64 velocity=106 time=0
EXTRACT: note_on channel=2 note=68 velocity=99 time=0
EXTRACT: note_on channel=3 note=64 velocity=115 time=0
EXTRACT: note_on channel=4 note=52 velocity=104 time=0
EXTRACT: note_on channel=4 note=64 velocity=109 time=0
EXTRACT: note_on channel=15 note=52 velocity=1 time=0
EXTRACT: note_on channel=15 note=64 velocity=1 time=0
EXTRACT: note_on channel=0 note=52 velocity=0 time=0.1290322
EXTRACT: note_on channel=0 note=40 velocity=0 time=0.021505366666666668
EXTRACT: note_on channel=0 note=64 velocity=0 time=0.016129025
EXTRACT: note_on channel=0 note=59 velocity=0 time=0.005376341666666667
EXTRACT: note_on channel=0 note=56 velocity=0 time=0.03225805
EXTRACT: note_on channel=0 note=68 velocity=0 time=0
EXTRACT: note_on channel=0 note=40 velocity=109 time=0.11827951666666667
EXTRACT: note_on channel=0 note=52 velocity=116 time=0
EXTRACT: note_on channel=0 note=56 velocity=96 time=0
EXTRACT: note_on channel=0 note=59 velocity=115 time=0
EXTRACT: note_on channel=0 note=64 velocity=109 time=0
EXTRACT: note_on channel=0 note=68 velocity=97 time=0
EXTRACT: note_on channel=3 note=66 velocity=112 time=0
EXTRACT: note_on channel=4 note=54 velocity=100 time=0
EXTRACT: note_on channel=4 note=66 velocity=106 time=0
EXTRACT: note_on channel=9 note=36 velocity=120 time=0
EXTRACT: note_on channel=15 note=66 velocity=1 time=0
EXTRACT: note_on channel=15 note=54 velocity=1 time=0
EXTRACT: note_on channel=3 note=64 velocity=0 time=0.010752683333333334
EXTRACT: note_on channel=4 note=64 velocity=0 time=0.021505366666666668
EXTRACT: note_on channel=15 note=64 velocity=0 time=0
EXTRACT: note_on channel=4 note=52 velocity=0 time=0.005376341666666667
EXTRACT: note_on channel=15 note=52 velocity=0 time=0
EXTRACT: note_on channel=0 note=52 velocity=0 time=0.06989244166666667
EXTRACT: note_on channel=9 note=36 velocity=0 time=0.016129025
EXTRACT: note_on channel=0 note=64 velocity=0 time=0.005376341666666667
EXTRACT: note_on channel=0 note=40 velocity=0 time=0.005376341666666667
EXTRACT: note_on channel=0 note=59 velocity=0 time=0.021505366666666668
EXTRACT: note_on channel=0 note=56 velocity=0 time=0.021505366666666668
EXTRACT: note_on channel=0 note=68 velocity=0 time=0.010752683333333334
EXTRACT: note_on channel=3 note=66 velocity=0 time=0.12365585833333334
EXTRACT: note_on channel=2 note=64 velocity=0 time=0.005376341666666667
EXTRACT: note_on channel=2 note=59 velocity=0 time=0
EXTRACT: note_on channel=2 note=68 velocity=0 time=0
EXTRACT: note_on channel=4 note=54 velocity=0 time=0.005376341666666667
EXTRACT: note_on channel=15 note=54 velocity=0 time=0
EXTRACT: note_on channel=0 note=40 velocity=116 time=0
EXTRACT: note_on channel=0 note=52 velocity=118 time=0
EXTRACT: note_on channel=0 note=56 velocity=104 time=0
EXTRACT: note_on channel=0 note=59 velocity=116 time=0
EXTRACT: note_on channel=0 note=64 velocity=112 time=0
EXTRACT: note_on channel=0 note=68 velocity=103 time=0
EXTRACT: note_on channel=2 note=59 velocity=101 time=0
EXTRACT: note_on channel=2 note=64 velocity=107 time=0
EXTRACT: note_on channel=2 note=68 velocity=101 time=0
EXTRACT: note_on channel=3 note=69 velocity=112 time=0
EXTRACT: note_on channel=4 note=57 velocity=105 time=0
EXTRACT: note_on channel=4 note=69 velocity=112 time=0
EXTRACT: note_on channel=9 note=38 velocity=120 time=0
EXTRACT: note_on channel=9 note=39 velocity=120 time=0
EXTRACT: note_on channel=15 note=57 velocity=1 time=0
EXTRACT: note_on channel=15 note=69 velocity=1 time=0
EXTRACT: note_on channel=4 note=66 velocity=0 time=0.016129025
EXTRACT: note_on channel=15 note=66 velocity=0 time=0
EXTRACT: note_on channel=9 note=39 velocity=0 time=0.08602146666666667
EXTRACT: note_on channel=9 note=38 velocity=0 time=0
EXTRACT: note_on channel=0 note=40 velocity=0 time=0.026881708333333334
EXTRACT: note_on channel=0 note=52 velocity=0 time=0
EXTRACT: note_on channel=0 note=64 velocity=0 time=0.010752683333333334
EXTRACT: note_on channel=0 note=59 velocity=0 time=0.03763439166666667
EXTRACT: note_on channel=0 note=68 velocity=0 time=0.021505366666666668
EXTRACT: note_on channel=0 note=56 velocity=0 time=0.005376341666666667
EXTRACT: note_on channel=4 note=57 velocity=0 time=0.09139780833333334
EXTRACT: note_on channel=15 note=57 velocity=0 time=0
EXTRACT: note_on channel=3 note=69 velocity=0 time=0.010752683333333334
EXTRACT: note_on channel=1 note=28 velocity=0 time=0.010752683333333334
EXTRACT: note_on channel=0 note=40 velocity=118 time=0.005376341666666667
EXTRACT: note_on channel=0 note=52 velocity=119 time=0
EXTRACT: note_on channel=0 note=56 velocity=108 time=0
EXTRACT: note_on channel=0 note=59 velocity=119 time=0
EXTRACT: note_on channel=0 note=64 velocity=115 time=0
EXTRACT: note_on channel=0 note=68 velocity=107 time=0
EXTRACT: note_on channel=1 note=30 velocity=120 time=0
EXTRACT: note_on channel=3 note=71 velocity=109 time=0
EXTRACT: note_on channel=4 note=59 velocity=100 time=0
EXTRACT: note_on channel=4 note=71 velocity=112 time=0
EXTRACT: note_on channel=15 note=71 velocity=1 time=0
EXTRACT: note_on channel=15 note=59 velocity=1 time=0
EXTRACT: note_on channel=4 note=69 velocity=0 time=0.016129025
EXTRACT: note_on channel=15 note=69 velocity=0 time=0
EXTRACT: note_on channel=0 note=52 velocity=0 time=0.06989244166666667
EXTRACT: note_on channel=0 note=40 velocity=0 time=0.005376341666666667
EXTRACT: note_on channel=0 note=64 velocity=0 time=0.080645125
EXTRACT: note_on channel=0 note=68 velocity=0 time=0.005376341666666667
EXTRACT: note_on channel=0 note=59 velocity=0 time=0
EXTRACT: note_on channel=0 note=56 velocity=0 time=0.005376341666666667
EXTRACT: note_on channel=4 note=59 velocity=0 time=0.12365585833333334
EXTRACT: note_on channel=15 note=59 velocity=0 time=0
EXTRACT: note_on channel=1 note=30 velocity=0 time=0.010752683333333334
EXTRACT: note_on channel=7 note=59 velocity=0 time=0
EXTRACT: note_on channel=2 note=68 velocity=0 time=0
EXTRACT: note_on channel=2 note=64 velocity=0 time=0
EXTRACT: note_on channel=7 note=40 velocity=0 time=0
EXTRACT: note_on channel=2 note=59 velocity=0 time=0
EXTRACT: note_on channel=10 note=68 velocity=0 time=0.005376341666666667
EXTRACT: note_on channel=10 note=71 velocity=0 time=0
EXTRACT: note_on channel=10 note=76 velocity=0 time=0
EXTRACT: note_on channel=0 note=45 velocity=107 time=0
EXTRACT: note_on channel=0 note=57 velocity=106 time=0
EXTRACT: note_on channel=0 note=61 velocity=106 time=0
EXTRACT: note_on channel=0 note=64 velocity=112 time=0
EXTRACT: note_on channel=0 note=69 velocity=110 time=0
EXTRACT: note_on channel=1 note=33 velocity=120 time=0
EXTRACT: note_on channel=2 note=61 velocity=96 time=0
EXTRACT: note_on channel=2 note=64 velocity=109 time=0
EXTRACT: note_on channel=2 note=69 velocity=103 time=0
EXTRACT: note_on channel=3 note=69 velocity=115 time=0
EXTRACT: note_on channel=4 note=57 velocity=104 time=0
EXTRACT: note_on channel=4 note=69 velocity=109 time=0
EXTRACT: note_on channel=7 note=45 velocity=107 time=0
EXTRACT: note_on channel=7 note=61 velocity=102 time=0
EXTRACT: note_on channel=9 note=36 velocity=120 time=0
EXTRACT: note_on channel=10 note=73 velocity=100 time=0
EXTRACT: note_on channel=10 note=69 velocity=100 time=0
EXTRACT: note_on channel=10 note=76 velocity=100 time=0
EXTRACT: note_on channel=15 note=57 velocity=1 time=0
EXTRACT: note_on channel=15 note=69 velocity=1 time=0
EXTRACT: note_on channel=3 note=71 velocity=0 time=0.010752683333333334
EXTRACT: note_on channel=15 note=71 velocity=0 time=0.010752683333333334
EXTRACT: note_on channel=4 note=71 velocity=0 time=0
EXTRACT: control_change channel=0 control=64 value=0 time=0.06989244166666667
EXTRACT: note_on channel=9 note=36 velocity=0 time=0.05376341666666667
EXTRACT: note_on channel=0 note=45 velocity=0 time=0.05376341666666667
EXTRACT: note_on channel=0 note=57 velocity=0 time=0.021505366666666668
EXTRACT: note_on channel=0 note=69 velocity=0 time=0.08602146666666667
EXTRACT: note_on channel=0 note=45 velocity=98 time=0.016129025
EXTRACT: note_on channel=0 note=57 velocity=97 time=0
EXTRACT: note_on channel=0 note=64 velocity=0 time=0.026881708333333334
EXTRACT: note_on channel=0 note=61 velocity=0 time=0.016129025
EXTRACT: note_on channel=9 note=36 velocity=120 time=0.11827951666666667
EXTRACT: note_on channel=0 note=45 velocity=0 time=0.080645125
EXTRACT: note_on channel=0 note=57 velocity=0 time=0.021505366666666668
EXTRACT: note_on channel=9 note=36 velocity=0 time=0.016129025
EXTRACT: note_on channel=2 note=61 velocity=0 time=0.03763439166666667
EXTRACT: note_on channel=2 note=64 velocity=0 time=0
EXTRACT: note_on channel=2 note=69 velocity=0 time=0
EXTRACT: note_on channel=0 note=61 velocity=103 time=0.005376341666666667
EXTRACT: note_on channel=0 note=64 velocity=116 time=0
EXTRACT: note_on channel=0 note=69 velocity=107 time=0
EXTRACT: note_on channel=2 note=61 velocity=97 time=0
EXTRACT: note_on channel=2 note=64 velocity=109 time=0
EXTRACT: note_on channel=2 note=69 velocity=109 time=0
EXTRACT: note_on channel=9 note=38 velocity=120 time=0
EXTRACT: note_on channel=9 note=39 velocity=120 time=0
EXTRACT: note_on channel=9 note=38 velocity=0 time=0.11290317500000001
EXTRACT: note_on channel=9 note=39 velocity=0 time=0.016129025
EXTRACT: note_on channel=0 note=69 velocity=0 time=0.1290322
EXTRACT: note_on channel=0 note=45 velocity=101 time=0.0645161
EXTRACT: note_on channel=0 note=57 velocity=105 time=0
EXTRACT: note_on channel=9 note=36 velocity=120 time=0
EXTRACT: note_on channel=0 note=61 velocity=0 time=0.016129025
EXTRACT: note_on channel=0 note=64 velocity=0 time=0.016129025
EXTRACT: note_on channel=9 note=36 velocity=0 time=0.11827951666666667
EXTRACT: note_on channel=4 note=57 velocity=0 time=0.11290317500000001
EXTRACT: note_on channel=15 note=57 velocity=0 time=0
EXTRACT: note_on channel=3 note=69 velocity=0 time=0.021505366666666668
EXTRACT: note_on channel=15 note=69 velocity=0 time=0.026881708333333334
EXTRACT: note_on channel=4 note=69 velocity=0 time=0
EXTRACT: note_on channel=2 note=64 velocity=0 time=0.005376341666666667
EXTRACT: note_on channel=2 note=69 velocity=0 time=0
EXTRACT: note_on channel=2 note=61 velocity=0 time=0
EXTRACT: note_on channel=0 note=57 velocity=0 time=0.005376341666666667
EXTRACT: note_on channel=0 note=61 velocity=106 time=0
EXTRACT: note_on channel=0 note=64 velocity=116 time=0
EXTRACT: note_on channel=0 note=69 velocity=110 time=0
EXTRACT: note_on channel=2 note=61 velocity=97 time=0
EXTRACT: note_on channel=2 note=64 velocity=109 time=0
EXTRACT: note_on channel=2 note=69 velocity=102 time=0
EXTRACT: note_on channel=3 note=68 velocity=114 time=0
EXTRACT: note_on channel=4 note=56 velocity=110 time=0
EXTRACT: note_on channel=4 note=68 velocity=116 time=0
EXTRACT: note_on channel=15 note=56 velocity=1 time=0
EXTRACT: note_on channel=15 note=68 velocity=1 time=0
EXTRACT: note_on channel=0 note=45 velocity=0 time=0.010752683333333334
EXTRACT: note_on channel=0 note=69 velocity=0 time=0.29032245
EXTRACT: note_on channel=0 note=64 velocity=0 time=0.005376341666666667
EXTRACT: note_on channel=0 note=45 velocity=104 time=0.016129025
EXTRACT: note_on channel=0 note=57 velocity=99 time=0
EXTRACT: note_on channel=3 note=69 velocity=107 time=0
EXTRACT: note_on channel=4 note=57 velocity=106 time=0
EXTRACT: note_on channel=4 note=69 velocity=109 time=0
EXTRACT: note_on channel=9 note=36 velocity=120 time=0
EXTRACT: note_on channel=15 note=57 velocity=1 time=0
EXTRACT: note_on channel=15 note=69 velocity=1 time=0
EXTRACT: note_on channel=0 note=61 velocity=0 time=0.010752683333333334
EXTRACT: note_on channel=15 note=56 velocity=0 time=0.010752683333333334
EXTRACT: note_on channel=4 note=56 velocity=0 time=0
EXTRACT: note_on channel=3 note=68 velocity=0 time=0.005376341666666667
EXTRACT: note_on channel=4 note=68 velocity=0 time=0.021505366666666668
EXTRACT: note_on channel=15 note=68 velocity=0 time=0
EXTRACT: note_on channel=9 note=36 velocity=0 time=0.080645125
EXTRACT: note_on channel=0 note=57 velocity=0 time=0.17204293333333334
EXTRACT: note_on channel=4 note=57 velocity=0 time=0.005376341666666667
EXTRACT: note_on channel=15 note=57 velocity=0 time=0
EXTRACT: note_on channel=3 note=69 velocity=0 time=0.010752683333333334
EXTRACT: note_on channel=2 note=61 velocity=0 time=0
EXTRACT: note_on channel=2 note=64 velocity=0 time=0
EXTRACT: note_on channel=2 note=69 velocity=0 time=0
EXTRACT: note_on channel=15 note=69 velocity=0 time=0.005376341666666667
EXTRACT: note_on channel=4 note=69 velocity=0 time=0
EXTRACT: note_on channel=0 note=61 velocity=106 time=0
EXTRACT: note_on channel=0 note=64 velocity=113 time=0
EXTRACT: note_on channel=0 note=69 velocity=108 time=0
EXTRACT: note_on channel=2 note=61 velocity=94 time=0
EXTRACT: note_on channel=2 note=64 velocity=109 time=0
EXTRACT: note_on channel=2 note=69 velocity=101 time=0
EXTRACT: note_on channel=3 note=68 velocity=120 time=0
EXTRACT: note_on channel=4 note=56 velocity=100 time=0
EXTRACT: note_on channel=4 note=68 velocity=106 time=0
EXTRACT: note_on channel=9 note=38 velocity=120 time=0
EXTRACT: note_on channel=9 note=39 velocity=120 time=0
EXTRACT: note_on channel=15 note=56 velocity=1 time=0
EXTRACT: note_on channel=15 note=68 velocity=1 time=0
EXTRACT: note_on channel=0 note=45 velocity=0 time=0.010752683333333334
EXTRACT: note_on channel=9 note=38 velocity=0 time=0.10752683333333334
EXTRACT: note_on channel=9 note=39 velocity=0 time=0.010752683333333334
EXTRACT: note_on channel=0 note=64 velocity=0 time=0.16129025
EXTRACT: note_on channel=0 note=69 velocity=0 time=0.005376341666666667
EXTRACT: note_on channel=0 note=61 velocity=0 time=0.010752683333333334
EXTRACT: note_on channel=15 note=56 velocity=0 time=0.005376341666666667
EXTRACT: note_on channel=4 note=56 velocity=0 time=0
EXTRACT: note_on channel=3 note=66 velocity=108 time=0.010752683333333334
EXTRACT: note_on channel=4 note=54 velocity=109 time=0
EXTRACT: note_on channel=4 note=66 velocity=110 time=0
EXTRACT: note_on channel=15 note=54 velocity=1 time=0
EXTRACT: note_on channel=15 note=66 velocity=1 time=0
EXTRACT: note_on channel=3 note=68 velocity=0 time=0.005376341666666667
EXTRACT: note_on channel=4 note=68 velocity=0 time=0.010752683333333334
EXTRACT: note_on channel=15 note=68 velocity=0 time=0
EXTRACT: note_on channel=2 note=69 velocity=0 time=0.30107513333333336
EXTRACT: note_on channel=7 note=61 velocity=0 time=0
EXTRACT: note_on channel=7 note=45 velocity=0 time=0
EXTRACT: note_on channel=2 note=61 velocity=0 time=0
EXTRACT: note_on channel=1 note=33 velocity=0 time=0
EXTRACT: note_on channel=2 note=64 velocity=0 time=0
EXTRACT: note_on channel=10 note=73 velocity=0 time=0.005376341666666667
EXTRACT: note_on channel=10 note=76 velocity=0 time=0
EXTRACT: note_on channel=10 note=69 velocity=0 time=0
EXTRACT: note_on channel=0 note=57 velocity=111 time=0
EXTRACT: note_on channel=0 note=61 velocity=108 time=0
EXTRACT: note_on channel=0 note=66 velocity=107 time=0
EXTRACT: note_on channel=0 note=69 velocity=112 time=0
EXTRACT: note_on channel=1 note=30 velocity=120 time=0
EXTRACT: note_on channel=2 note=61 velocity=93 time=0
EXTRACT: note_on channel=2 note=66 velocity=101 time=0
EXTRACT: note_on channel=2 note=69 velocity=95 time=0
EXTRACT: note_on channel=7 note=42 velocity=101 time=0
EXTRACT: note_on channel=7 note=57 velocity=107 time=0
EXTRACT: note_on channel=9 note=36 velocity=120 time=0
EXTRACT: note_on channel=10 note=73 velocity=100 time=0
EXTRACT: note_on channel=10 note=78 velocity=100 time=0
EXTRACT: note_on channel=10 note=69 velocity=100 time=0
EXTRACT: note_on channel=9 note=36 velocity=0 time=0.145161225
EXTRACT: control_change channel=0 control=64 value=127 time=0.15053756666666668
EXTRACT: note_on channel=0 note=42 velocity=99 time=0.026881708333333334
EXTRACT: note_on channel=0 note=54 velocity=103 time=0
EXTRACT: note_on channel=0 note=69 velocity=0 time=0.026881708333333334
EXTRACT: note_on channel=0 note=66 velocity=0 time=0.03225805
EXTRACT: note_on channel=0 note=57 velocity=0 time=0.005376341666666667
EXTRACT: note_on channel=0 note=61 velocity=0 time=0.010752683333333334
EXTRACT: note_on channel=9 note=36 velocity=120 time=0.08602146666666667
EXTRACT: note_on channel=3 note=66 velocity=0 time=0.09139780833333334
EXTRACT: note_on channel=9 note=36 velocity=0 time=0.005376341666666667
EXTRACT: note_on channel=15 note=54 velocity=0 time=0.026881708333333334
EXTRACT: note_on channel=4 note=54 velocity=0 time=0
EXTRACT: note_on channel=15 note=66 velocity=0 time=0.021505366666666668
EXTRACT: note_on channel=0 note=54 velocity=0 time=0
EXTRACT: note_on channel=4 note=66 velocity=0 time=0
EXTRACT: note_on channel=0 note=42 velocity=0 time=0.010752683333333334
EXTRACT: note_on channel=2 note=61 velocity=0 time=0
EXTRACT: note_on channel=2 note=66 velocity=0 time=0
EXTRACT: note_on channel=2 note=69 velocity=0 time=0
EXTRACT: note_on channel=0 note=57 velocity=109 time=0.005376341666666667
EXTRACT: note_on channel=0 note=61 velocity=102 time=0
EXTRACT: note_on channel=0 note=66 velocity=102 time=0
EXTRACT: note_on channel=0 note=69 velocity=111 time=0
EXTRACT: note_on channel=2 note=61 velocity=97 time=0
EXTRACT: note_on channel=2 note=66 velocity=98 time=0
EXTRACT: note_on channel=2 note=69 velocity=97 time=0
EXTRACT: note_on channel=9 note=38 velocity=120 time=0
EXTRACT: note_on channel=9 note=39 velocity=120 time=0
EXTRACT: note_on channel=9 note=38 velocity=0 time=0.10752683333333334
EXTRACT: note_on channel=9 note=39 velocity=0 time=0.005376341666666667
EXTRACT: note_on channel=0 note=42 velocity=108 time=0.209677325
EXTRACT: note_on channel=0 note=54 velocity=116 time=0
EXTRACT: note_on channel=9 note=36 velocity=120 time=0
EXTRACT: note_on channel=0 note=57 velocity=0 time=0.016129025
EXTRACT: note_on channel=0 note=69 velocity=0 time=0.010752683333333334
EXTRACT: note_on channel=0 note=66 velocity=0 time=0.005376341666666667
EXTRACT: note_on channel=0 note=61 velocity=0 time=0.005376341666666667
EXTRACT: note_on channel=9 note=36 velocity=0 time=0.09139780833333334
EXTRACT: note_on channel=2 note=61 velocity=0 time=0.18817195833333333
EXTRACT: note_on channel=2 note=66 velocity=0 time=0
EXTRACT: note_on channel=2 note=69 velocity=0 time=0
EXTRACT: note_on channel=0 note=57 velocity=109 time=0.005376341666666667
EXTRACT: note_on channel=0 note=61 velocity=104 time=0
EXTRACT: note_on channel=0 note=66 velocity=104 time=0
EXTRACT: note_on channel=0 note=69 velocity=107 time=0
EXTRACT: note_on channel=2 note=61 velocity=99 time=0
EXTRACT: note_on channel=2 note=66 velocity=101 time=0
EXTRACT: note_on channel=2 note=69 velocity=98 time=0
EXTRACT: note_on channel=3 note=66 velocity=116 time=0
EXTRACT: note_on channel=4 note=54 velocity=120 time=0
EXTRACT: note_on channel=4 note=66 velocity=116 time=0
EXTRACT: note_on channel=15 note=54 velocity=1 time=0
EXTRACT: note_on channel=15 note=66 velocity=1 time=0
EXTRACT: note_on channel=0 note=54 velocity=0 time=0.005376341666666667
EXTRACT: note_on channel=0 note=42 velocity=0 time=0.016129025
EXTRACT: note_on channel=15 note=54 velocity=0 time=0.2956987916666667
EXTRACT: note_on channel=4 note=54 velocity=0 time=0
EXTRACT: note_on channel=0 note=42 velocity=101 time=0.005376341666666667
EXTRACT: note_on channel=0 note=54 velocity=107 time=0
EXTRACT: note_on channel=3 note=68 velocity=116 time=0
EXTRACT: note_on channel=4 note=56 velocity=116 time=0
EXTRACT: note_on channel=4 note=68 velocity=111 time=0
EXTRACT: note_on channel=9 note=36 velocity=120 time=0
EXTRACT: note_on channel=15 note=68 velocity=1 time=0
EXTRACT: note_on channel=15 note=56 velocity=1 time=0
EXTRACT: note_on channel=3 note=66 velocity=0 time=0.03225805
EXTRACT: note_on channel=4 note=66 velocity=0 time=0.016129025
EXTRACT: note_on channel=15 note=66 velocity=0 time=0
EXTRACT: note_on channel=0 note=69 velocity=0 time=0.03225805
EXTRACT: note_on channel=0 note=57 velocity=0 time=0.010752683333333334
EXTRACT: note_on channel=0 note=66 velocity=0 time=0
EXTRACT: note_on channel=0 note=54 velocity=0 time=0.010752683333333334
EXTRACT: note_on channel=0 note=61 velocity=0 time=0.010752683333333334
EXTRACT: note_on channel=9 note=36 velocity=0 time=0.005376341666666667
EXTRACT: note_on channel=0 note=42 velocity=0 time=0.005376341666666667
EXTRACT: note_on channel=4 note=56 velocity=0 time=0.16129025
EXTRACT: note_on channel=15 note=56 velocity=0 time=0
EXTRACT: note_on channel=2 note=66 velocity=0 time=0.03225805
EXTRACT: note_on channel=3 note=68 velocity=0 time=0
EXTRACT: note_on channel=2 note=61 velocity=0 time=0
EXTRACT: note_on channel=2 note=69 velocity=0 time=0
EXTRACT: note_on channel=0 note=42 velocity=107 time=0.005376341666666667
EXTRACT: note_on channel=0 note=54 velocity=107 time=0
EXTRACT: note_on channel=0 note=57 velocity=109 time=0
EXTRACT: note_on channel=0 note=61 velocity=103 time=0
EXTRACT: note_on channel=0 note=66 velocity=103 time=0
EXTRACT: note_on channel=0 note=69 velocity=110 time=0
EXTRACT: note_on channel=2 note=61 velocity=101 time=0
EXTRACT: note_on channel=2 note=66 velocity=105 time=0
EXTRACT: note_on channel=2 note=69 velocity=99 time=0
EXTRACT: note_on channel=3 note=69 velocity=107 time=0
EXTRACT: note_on channel=4 note=57 velocity=108 time=0
EXTRACT: note_on channel=4 note=69 velocity=106 time=0
EXTRACT: note_on channel=9 note=38 velocity=120 time=0
EXTRACT: note_on channel=9 note=39 velocity=120 time=0
EXTRACT: note_on channel=15 note=69 velocity=1 time=0
EXTRACT: note_on channel=15 note=57 velocity=1 time=0
EXTRACT: note_on channel=15 note=68 velocity=0 time=0.016129025
EXTRACT: note_on channel=4 note=68 velocity=0 time=0
EXTRACT: note_on channel=9 note=38 velocity=0 time=0.08602146666666667
EXTRACT: note_on channel=9 note=39 velocity=0 time=0.010752683333333334
EXTRACT: note_on channel=0 note=54 velocity=0 time=0.010752683333333334
EXTRACT: note_on channel=0 note=42 velocity=0 time=0.005376341666666667
EXTRACT: note_on channel=0 note=69 velocity=0 time=0.16666659166666667
EXTRACT: note_on channel=4 note=69 velocity=0 time=0.016129025
EXTRACT: note_on channel=15 note=69 velocity=0 time=0
EXTRACT: note_on channel=1 note=30 velocity=0 time=0.005376341666666667
EXTRACT: note_on channel=0 note=66 velocity=0 time=0
EXTRACT: note_on channel=3 note=69 velocity=0 time=0.005376341666666667
EXTRACT: note_on channel=0 note=42 velocity=103 time=0
EXTRACT: note_on channel=0 note=54 velocity=110 time=0
EXTRACT: note_on channel=1 note=28 velocity=120 time=0
EXTRACT: note_on channel=3 note=61 velocity=105 time=0
EXTRACT: note_on channel=4 note=49 velocity=114 time=0
EXTRACT: note_on channel=4 note=61 velocity=111 time=0
EXTRACT: note_on channel=15 note=49 velocity=1 time=0
EXTRACT: note_on channel=15 note=61 velocity=1 time=0
EXTRACT: note_on channel=0 note=57 velocity=0 time=0.005376341666666667
EXTRACT: note_on channel=4 note=57 velocity=0 time=0.010752683333333334
EXTRACT: note_on channel=15 note=57 velocity=0 time=0
EXTRACT: note_on channel=0 note=61 velocity=0 time=0.043010733333333336
EXTRACT: note_on channel=0 note=54 velocity=0 time=0.021505366666666668
EXTRACT: note_on channel=0 note=42 velocity=0 time=0.016129025
EXTRACT: note_on channel=15 note=49 velocity=0 time=0.21505366666666667
EXTRACT: note_on channel=4 note=49 velocity=0 time=0
EXTRACT: note_on channel=2 note=69 velocity=0 time=0.005376341666666667
EXTRACT: note_on channel=2 note=66 velocity=0 time=0
EXTRACT: note_on channel=7 note=42 velocity=0 time=0
EXTRACT: note_on channel=7 note=57 velocity=0 time=0
EXTRACT: note_on channel=2 note=61 velocity=0 time=0
EXTRACT: note_on channel=1 note=28 velocity=0 time=0
EXTRACT: note_on channel=10 note=73 velocity=0 time=0.005376341666666667
EXTRACT: note_on channel=10 note=78 velocity=0 time=0
EXTRACT: note_on channel=10 note=69 velocity=0 time=0
EXTRACT: note_on channel=3 note=61 velocity=0 time=0
EXTRACT: note_on channel=0 note=57 velocity=108 time=0
EXTRACT: note_on channel=0 note=62 velocity=112 time=0
EXTRACT: note_on channel=0 note=66 velocity=102 time=0
EXTRACT: note_on channel=0 note=69 velocity=110 time=0
EXTRACT: note_on channel=1 note=26 velocity=120 time=0
EXTRACT: note_on channel=2 note=62 velocity=100 time=0
EXTRACT: note_on channel=2 note=66 velocity=100 time=0
EXTRACT: note_on channel=2 note=69 velocity=101 time=0
EXTRACT: note_on channel=3 note=62 velocity=116 time=0
EXTRACT: note_on channel=4 note=50 velocity=111 time=0
EXTRACT: note_on channel=4 note=62 velocity=116 time=0
EXTRACT: note_on channel=7 note=38 velocity=106 time=0
EXTRACT: note_on channel=7 note=54 velocity=99 time=0
EXTRACT: note_on channel=9 note=36 velocity=120 time=0
EXTRACT: note_on channel=10 note=69 velocity=100 time=0
EXTRACT: note_on channel=10 note=74 velocity=100 time=0
EXTRACT: note_on channel=10 note=78 velocity=100 time=0
EXTRACT: note_on channel=15 note=62 velocity=1 time=0
EXTRACT: note_on channel=15 note=50 velocity=1 time=0
EXTRACT: note_on channel=4 note=61 velocity=0 time=0.03763439166666667
EXTRACT: note_on channel=15 note=61 velocity=0 time=0
EXTRACT: control_change channel=0 control=64 value=0 time=0.026881708333333334
EXTRACT: note_on channel=9 note=36 velocity=0 time=0.06989244166666667
EXTRACT: control_change channel=0 control=64 value=127 time=0.17741927500000002
EXTRACT: note_on channel=0 note=38 velocity=109 time=0.010752683333333334
EXTRACT: note_on channel=0 note=50 velocity=106 time=0
EXTRACT: note_on channel=0 note=69 velocity=0 time=0.05376341666666667
EXTRACT: note_on channel=0 note=66 velocity=0 time=0.026881708333333334
EXTRACT: note_on channel=0 note=62 velocity=0 time=0.005376341666666667
EXTRACT: note_on channel=0 note=57 velocity=0 time=0.005376341666666667
EXTRACT: note_on channel=9 note=36 velocity=120 time=0.06989244166666667
EXTRACT: note_on channel=9 note=36 velocity=0 time=0.09139780833333334
EXTRACT: note_on channel=2 note=62 velocity=0 time=0.0645161
EXTRACT: note_on channel=2 note=66 velocity=0 time=0
EXTRACT: note_on channel=2 note=69 velocity=0 time=0
EXTRACT: note_on channel=0 note=57 velocity=107 time=0.005376341666666667
EXTRACT: note_on channel=0 note=62 velocity=113 time=0
EXTRACT: note_on channel=0 note=66 velocity=100 time=0
EXTRACT: note_on channel=0 note=69 velocity=107 time=0
EXTRACT: note_on channel=2 note=62 velocity=99 time=0
EXTRACT: note_on channel=2 note=66 velocity=100 time=0
EXTRACT: note_on channel=2 note=69 velocity=99 time=0
EXTRACT: note_on channel=9 note=38 velocity=120 time=0
EXTRACT: note_on channel=9 note=39 velocity=120 time=0
EXTRACT: note_on channel=0 note=50 velocity=0 time=0.059139758333333334
EXTRACT: note_on channel=0 note=38 velocity=0 time=0.010752683333333334
EXTRACT: note_on channel=9 note=38 velocity=0 time=0.05376341666666667
EXTRACT: note_on channel=9 note=39 velocity=0 time=0.005376341666666667
EXTRACT: note_on channel=0 note=69 velocity=0 time=0.1935483
EXTRACT: note_on channel=0 note=38 velocity=102 time=0
EXTRACT: note_on channel=0 note=50 velocity=99 time=0
EXTRACT: note_on channel=9 note=36 velocity=120 time=0
EXTRACT: note_on channel=0 note=66 velocity=0 time=0.016129025
EXTRACT: note_on channel=0 note=57 velocity=0 time=0
EXTRACT: note_on channel=0 note=62 velocity=0 time=0.005376341666666667
EXTRACT: note_on channel=9 note=36 velocity=0 time=0.11827951666666667
EXTRACT: note_on channel=2 note=66 velocity=0 time=0.17741927500000002
EXTRACT: note_on channel=2 note=62 velocity=0 time=0
EXTRACT: note_on channel=2 note=69 velocity=0 time=0
EXTRACT: note_on channel=0 note=57 velocity=107 time=0.005376341666666667
EXTRACT: note_on channel=0 note=62 velocity=112 time=0
EXTRACT: note_on channel=0 note=66 velocity=101 time=0
EXTRACT: note_on channel=0 note=69 velocity=106 time=0
EXTRACT: note_on channel=2 note=62 velocity=102 time=0
EXTRACT: note_on channel=2 note=66 velocity=99 time=0
EXTRACT: note_on channel=2 note=69 velocity=103 time=0
EXTRACT: note_on channel=0 note=50 velocity=0 time=0.05376341666666667
EXTRACT: note_on channel=0 note=38 velocity=0 time=0.021505366666666668
EXTRACT: note_on channel=0 note=38 velocity=100 time=0.24731171666666668
EXTRACT: note_on channel=0 note=50 velocity=98 time=0
EXTRACT: note_on channel=3 note=64 velocity=109 time=0
EXTRACT: note_on channel=4 note=52 velocity=103 time=0
EXTRACT: note_on channel=4 note=64 velocity=110 time=0
EXTRACT: note_on channel=9 note=36 velocity=120 time=0
EXTRACT: note_on channel=15 note=52 velocity=1 time=0
EXTRACT: note_on channel=15 note=64 velocity=1 time=0
EXTRACT: note_on channel=15 note=62 velocity=0 time=0.005376341666666667
EXTRACT: note_on channel=4 note=62 velocity=0 time=0
EXTRACT: note_on channel=15 note=50 velocity=0 time=0.016129025
EXTRACT: note_on channel=4 note=50 velocity=0 time=0
EXTRACT: note_on channel=0 note=57 velocity=0 time=0
EXTRACT: note_on channel=3 note=62 velocity=0 time=0.005376341666666667
EXTRACT: note_on channel=0 note=69 velocity=0 time=0.010752683333333334
EXTRACT: note_on channel=0 note=66 velocity=0 time=0.005376341666666667
EXTRACT: note_on channel=0 note=62 velocity=0 time=0.016129025
EXTRACT: note_on channel=9 note=36 velocity=0 time=0.059139758333333334
EXTRACT: note_on channel=0 note=38 velocity=0 time=0.17741927500000002
EXTRACT: note_on channel=0 note=50 velocity=0 time=0
EXTRACT: note_on channel=4 note=52 velocity=0 time=0.016129025
EXTRACT: note_on channel=15 note=52 velocity=0 time=0
EXTRACT: note_on channel=2 note=62 velocity=0 time=0.005376341666666667
EXTRACT: note_on channel=2 note=66 velocity=0 time=0
EXTRACT: note_on channel=2 note=69 velocity=0 time=0
EXTRACT: note_on channel=0 note=57 velocity=104 time=0.005376341666666667
EXTRACT: note_on channel=0 note=62 velocity=112 time=0
EXTRACT: note_on channel=0 note=66 velocity=100 time=0
EXTRACT: note_on channel=0 note=69 velocity=107 time=0
EXTRACT: note_on channel=2 note=62 velocity=99 time=0
EXTRACT: note_on channel=2 note=66 velocity=100 time=0
EXTRACT: note_on channel=2 note=69 velocity=102 time=0
EXTRACT: note_on channel=3 note=66 velocity=106 time=0
EXTRACT: note_on channel=4 note=54 velocity=98 time=0
EXTRACT: note_on channel=4 note=66 velocity=116 time=0
EXTRACT: note_on channel=9 note=38 velocity=120 time=0
EXTRACT: note_on channel=9 note=39 velocity=120 time=0
EXTRACT: note_on channel=15 note=66 velocity=1 time=0
EXTRACT: note_on channel=15 note=54 velocity=1 time=0
EXTRACT: note_on channel=15 note=64 velocity=0 time=0.005376341666666667
EXTRACT: note_on channel=4 note=64 velocity=0 time=0
EXTRACT: note_on channel=3 note=64 velocity=0 time=0.005376341666666667
EXTRACT: note_on channel=9 note=38 velocity=0 time=0.10215049166666668
EXTRACT: note_on channel=9 note=39 velocity=0 time=0.010752683333333334
EXTRACT: note_on channel=4 note=66 velocity=0 time=0.10215049166666668
EXTRACT: note_on channel=15 note=66 velocity=0 time=0
EXTRACT: note_on channel=4 note=54 velocity=0 time=0.005376341666666667
EXTRACT: note_on channel=3 note=66 velocity=0 time=0
EXTRACT: note_on channel=15 note=54 velocity=0 time=0
EXTRACT: note_on channel=0 note=57 velocity=0 time=0.043010733333333336
EXTRACT: note_on channel=0 note=62 velocity=0 time=0.016129025
EXTRACT: note_on channel=0 note=69 velocity=0 time=0.005376341666666667
EXTRACT: note_on channel=0 note=66 velocity=0 time=0.010752683333333334
EXTRACT: note_on channel=0 note=38 velocity=97 time=0.016129025
EXTRACT: note_on channel=0 note=50 velocity=88 time=0
EXTRACT: note_on channel=3 note=66 velocity=106 time=0
EXTRACT: note_on channel=4 note=54 velocity=97 time=0
EXTRACT: note_on channel=4 note=66 velocity=111 time=0
EXTRACT: note_on channel=15 note=54 velocity=1 time=0
EXTRACT: note_on channel=15 note=66 velocity=1 time=0
EXTRACT: note_on channel=0 note=38 velocity=0 time=0.09677415
EXTRACT: note_on channel=0 note=50 velocity=0 time=0.048387075
EXTRACT: note_on channel=2 note=69 velocity=0 time=0.17204293333333334
EXTRACT: note_on channel=1 note=26 velocity=0 time=0
EXTRACT: note_on channel=7 note=38 velocity=0 time=0
EXTRACT: note_on channel=7 note=54 velocity=0 time=0
EXTRACT: note_on channel=2 note=62 velocity=0 time=0
EXTRACT: note_on channel=2 note=66 velocity=0 time=0
EXTRACT: note_on channel=10 note=69 velocity=0 time=0.005376341666666667
EXTRACT: note_on channel=10 note=74 velocity=0 time=0
EXTRACT: note_on channel=10 note=78 velocity=0 time=0
EXTRACT: note_on channel=0 note=40 velocity=103 time=0
EXTRACT: note_on channel=0 note=52 velocity=99 time=0
EXTRACT: note_on channel=0 note=59 velocity=107 time=0
EXTRACT: note_on channel=0 note=64 velocity=112 time=0
EXTRACT: note_on channel=0 note=68 velocity=101 time=0
EXTRACT: note_on channel=0 note=71 velocity=106 time=0
EXTRACT: note_on channel=1 note=28 velocity=120 time=0
EXTRACT: note_on channel=2 note=59 velocity=88 time=0
EXTRACT: note_on channel=2 note=64 velocity=104 time=0
EXTRACT: note_on channel=2 note=68 velocity=95 time=0
EXTRACT: note_on channel=3 note=64 velocity=107 time=0
EXTRACT: note_on channel=4 note=52 velocity=107 time=0
EXTRACT: note_on channel=4 note=64 velocity=111 time=0
EXTRACT: note_on channel=7 note=40 velocity=105 time=0
EXTRACT: note_on channel=7 note=56 velocity=102 time=0
EXTRACT: note_on channel=9 note=36 velocity=120 time=0
EXTRACT: note_on channel=10 note=71 velocity=100 time=0
EXTRACT: note_on channel=10 note=76 velocity=100 time=0
EXTRACT: note_on channel=10 note=68 velocity=100 time=0
EXTRACT: note_on channel=15 note=52 velocity=1 time=0
EXTRACT: note_on channel=15 note=64 velocity=1 time=0
EXTRACT: note_on channel=3 note=66 velocity=0 time=0.005376341666666667
EXTRACT: note_on channel=15 note=66 velocity=0 time=0.010752683333333334
EXTRACT: note_on channel=4 note=66 velocity=0 time=0
EXTRACT: note_on channel=15 note=54 velocity=0 time=0.010752683333333334
EXTRACT: note_on channel=4 note=54 velocity=0 time=0
EXTRACT: control_change channel=0 control=64 value=0 time=0.016129025
EXTRACT: note_on channel=9 note=36 velocity=0 time=0.080645125
EXTRACT: note_on channel=0 note=52 velocity=0 time=0.09139780833333334
EXTRACT: note_on channel=0 note=40 velocity=0 time=0.005376341666666667
EXTRACT: control_change channel=0 control=64 value=127 time=0.080645125
EXTRACT: note_on channel=0 note=40 velocity=100 time=0.021505366666666668
EXTRACT: note_on channel=0 note=52 velocity=98 time=0
EXTRACT: note_on channel=0 note=71 velocity=0 time=0.03225805
EXTRACT: note_on channel=0 note=68 velocity=0 time=0.010752683333333334
EXTRACT: note_on channel=0 note=59 velocity=0 time=0.016129025
EXTRACT: note_on channel=0 note=64 velocity=0 time=0
EXTRACT: note_on channel=9 note=36 velocity=120 time=0.10215049166666668
EXTRACT: note_on channel=9 note=36 velocity=0 time=0.09139780833333334
EXTRACT: note_on channel=2 note=59 velocity=0 time=0.0645161
EXTRACT: note_on channel=2 note=64 velocity=0 time=0
EXTRACT: note_on channel=2 note=68 velocity=0 time=0
EXTRACT: note_on channel=0 note=59 velocity=106 time=0.005376341666666667
EXTRACT: note_on channel=0 note=64 velocity=109 time=0
EXTRACT: note_on channel=0 note=68 velocity=102 time=0
EXTRACT: note_on channel=0 note=71 velocity=104 time=0
EXTRACT: note_on channel=2 note=59 velocity=93 time=0
EXTRACT: note_on channel=2 note=64 velocity=105 time=0
EXTRACT: note_on channel=2 note=68 velocity=96 time=0
EXTRACT: note_on channel=9 note=38 velocity=120 time=0
EXTRACT: note_on channel=9 note=39 velocity=120 time=0
EXTRACT: note_on channel=0 note=52 velocity=0 time=0.005376341666666667
EXTRACT: note_on channel=0 note=40 velocity=0 time=0.021505366666666668
EXTRACT: note_on channel=3 note=64 velocity=0 time=0.03225805
EXTRACT: note_on channel=15 note=52 velocity=0 time=0
EXTRACT: note_on channel=4 note=52 velocity=0 time=0
EXTRACT: note_on channel=4 note=64 velocity=0 time=0.005376341666666667
EXTRACT: note_on channel=15 note=64 velocity=0 time=0
EXTRACT: note_on channel=9 note=38 velocity=0 time=0.03225805
EXTRACT: note_on channel=9 note=39 velocity=0 time=0.005376341666666667
EXTRACT: note_on channel=0 note=71 velocity=0 time=0.19892464166666668
EXTRACT: note_on channel=0 note=68 velocity=0 time=0.016129025
EXTRACT: note_on channel=0 note=40 velocity=102 time=0.005376341666666667
EXTRACT: note_on channel=0 note=52 velocity=100 time=0
EXTRACT: note_on channel=9 note=36 velocity=120 time=0
EXTRACT: note_on channel=0 note=59 velocity=0 time=0.005376341666666667
EXTRACT: note_on channel=0 note=64 velocity=0 time=0.005376341666666667
EXTRACT: note_on channel=9 note=36 velocity=0 time=0.11290317500000001
EXTRACT: note_on channel=2 note=64 velocity=0 time=0.1935483
EXTRACT: note_on channel=2 note=59 velocity=0 time=0
EXTRACT: note_on channel=2 note=68 velocity=0 time=0
EXTRACT: note_on channel=0 note=52 velocity=0 time=0.005376341666666667
EXTRACT: note_on channel=0 note=59 velocity=102 time=0
EXTRACT: note_on channel=0 note=64 velocity=106 time=0
EXTRACT: note_on channel=0 note=68 velocity=102 time=0
EXTRACT: note_on channel=0 note=71 velocity=100 time=0
EXTRACT: note_on channel=2 note=59 velocity=95 time=0
EXTRACT: note_on channel=2 note=64 velocity=107 time=0
EXTRACT: note_on channel=2 note=68 velocity=96 time=0
EXTRACT: note_on channel=3 note=64 velocity=113 time=0
EXTRACT: note_on channel=4 note=52 velocity=96 time=0
EXTRACT: note_on channel=4 note=64 velocity=115 time=0
EXTRACT: note_on channel=15 note=52 velocity=1 time=0
EXTRACT: note_on channel=15 note=64 velocity=1 time=0
EXTRACT: note_on channel=0 note=40 velocity=0 time=0.021505366666666668
EXTRACT: note_on channel=0 note=68 velocity=0 time=0.30107513333333336
EXTRACT: note_on channel=0 note=40 velocity=100 time=0
EXTRACT: note_on channel=0 note=52 velocity=97 time=0
EXTRACT: note_on channel=3 note=66 velocity=116 time=0
EXTRACT: note_on channel=4 note=54 velocity=108 time=0
EXTRACT: note_on channel=4 note=66 velocity=110 time=0
EXTRACT: note_on channel=9 note=36 velocity=120 time=0
EXTRACT: note_on channel=15 note=54 velocity=1 time=0
EXTRACT: note_on channel=15 note=66 velocity=1 time=0
EXTRACT: note_on channel=0 note=71 velocity=0 time=0.005376341666666667
EXTRACT: note_on channel=3 note=64 velocity=0 time=0
EXTRACT: note_on channel=0 note=59 velocity=0 time=0.016129025
EXTRACT: note_on channel=0 note=64 velocity=0 time=0.005376341666666667
EXTRACT: note_on channel=4 note=52 velocity=0 time=0.005376341666666667
EXTRACT: note_on channel=15 note=52 velocity=0 time=0
EXTRACT: note_on channel=4 note=64 velocity=0 time=0.016129025
EXTRACT: note_on channel=15 note=64 velocity=0 time=0
EXTRACT: note_on channel=9 note=36 velocity=0 time=0.07526878333333334
EXTRACT: note_on channel=3 note=66 velocity=0 time=0.16129025
EXTRACT: note_on channel=4 note=54 velocity=0 time=0.005376341666666667
EXTRACT: note_on channel=15 note=54 velocity=0 time=0
EXTRACT: note_on channel=4 note=66 velocity=0 time=0.026881708333333334
EXTRACT: note_on channel=2 note=64 velocity=0 time=0
EXTRACT: note_on channel=2 note=59 velocity=0 time=0
EXTRACT: note_on channel=15 note=66 velocity=0 time=0
EXTRACT: note_on channel=2 note=68 velocity=0 time=0
EXTRACT: note_on channel=0 note=59 velocity=108 time=0.005376341666666667
EXTRACT: note_on channel=0 note=64 velocity=113 time=0
EXTRACT: note_on channel=0 note=68 velocity=106 time=0
EXTRACT: note_on channel=0 note=71 velocity=108 time=0
EXTRACT: note_on channel=2 note=59 velocity=97 time=0
EXTRACT: note_on channel=2 note=64 velocity=104 time=0
EXTRACT: note_on channel=2 note=68 velocity=99 time=0
EXTRACT: note_on channel=3 note=69 velocity=109 time=0
EXTRACT: note_on channel=4 note=57 velocity=104 time=0
EXTRACT: note_on channel=4 note=69 velocity=111 time=0
EXTRACT: note_on channel=9 note=38 velocity=120 time=0
EXTRACT: note_on channel=9 note=39 velocity=120 time=0
EXTRACT: note_on channel=15 note=57 velocity=1 time=0
EXTRACT: note_on channel=15 note=69 velocity=1 time=0
EXTRACT: note_on channel=0 note=52 velocity=0 time=0.016129025
EXTRACT: note_on channel=0 note=40 velocity=0 time=0.05376341666666667
EXTRACT: note_on channel=9 note=38 velocity=0 time=0.03225805
EXTRACT: note_on channel=9 note=39 velocity=0 time=0
EXTRACT: note_on channel=0 note=71 velocity=0 time=0.10752683333333334
EXTRACT: note_on channel=0 note=59 velocity=0 time=0.048387075
EXTRACT: note_on channel=0 note=64 velocity=0 time=0.021505366666666668
EXTRACT: note_on channel=0 note=68 velocity=0 time=0.005376341666666667
EXTRACT: note_on channel=1 note=28 velocity=0 time=0.03225805
EXTRACT: note_on channel=0 note=52 velocity=100 time=0.005376341666666667
EXTRACT: note_on channel=1 note=30 velocity=120 time=0
EXTRACT: note_on channel=3 note=71 velocity=115 time=0
EXTRACT: note_on channel=4 note=59 velocity=113 time=0
EXTRACT: note_on channel=4 note=71 velocity=107 time=0
EXTRACT: note_on channel=15 note=59 velocity=1 time=0
EXTRACT: note_on channel=15 note=71 velocity=1 time=0
EXTRACT: note_on channel=4 note=57 velocity=0 time=0.005376341666666667
EXTRACT: note_on channel=15 note=57 velocity=0 time=0
EXTRACT: note_on channel=4 note=69 velocity=0 time=0.010752683333333334
EXTRACT: note_on channel=15 note=69 velocity=0 time=0
EXTRACT: note_on channel=3 note=69 velocity=0 time=0.021505366666666668
EXTRACT: note_on channel=4 note=59 velocity=0 time=0.24731171666666668
EXTRACT: note_on channel=15 note=59 velocity=0 time=0
EXTRACT: note_on channel=0 note=52 velocity=0 time=0.016129025
EXTRACT: note_on channel=3 note=71 velocity=0 time=0.005376341666666667
EXTRACT: note_on channel=1 note=30 velocity=0 time=0.010752683333333334
EXTRACT: note_on channel=7 note=40 velocity=0 time=0
EXTRACT: note_on channel=2 note=64 velocity=0 time=0
EXTRACT: note_on channel=2 note=59 velocity=0 time=0
EXTRACT: note_on channel=7 note=56 velocity=0 time=0
EXTRACT: note_on channel=2 note=68 velocity=0 time=0
EXTRACT: note_on channel=10 note=76 velocity=0 time=0.005376341666666667
EXTRACT: note_on channel=10 note=71 velocity=0 time=0
EXTRACT: note_on channel=10 note=68 velocity=0 time=0
EXTRACT: note_on channel=4 note=71 velocity=0 time=0
EXTRACT: note_on channel=15 note=71 velocity=0 time=0
EXTRACT: note_on channel=0 note=45 velocity=106 time=0
EXTRACT: note_on channel=0 note=57 velocity=107 time=0
EXTRACT: note_on channel=0 note=61 velocity=104 time=0
EXTRACT: note_on channel=0 note=64 velocity=109 time=0
EXTRACT: note_on channel=0 note=69 velocity=108 time=0
EXTRACT: note_on channel=1 note=33 velocity=120 time=0
EXTRACT: note_on channel=2 note=61 velocity=88 time=0
EXTRACT: note_on channel=2 note=64 velocity=104 time=0
EXTRACT: note_on channel=2 note=69 velocity=100 time=0
EXTRACT: note_on channel=3 note=69 velocity=111 time=0
EXTRACT: note_on channel=4 note=57 velocity=107 time=0
EXTRACT: note_on channel=4 note=69 velocity=112 time=0
EXTRACT: note_on channel=7 note=45 velocity=105 time=0
EXTRACT: note_on channel=7 note=61 velocity=107 time=0
EXTRACT: note_on channel=9 note=36 velocity=120 time=0
EXTRACT: note_on channel=10 note=69 velocity=100 time=0
EXTRACT: note_on channel=10 note=73 velocity=100 time=0
EXTRACT: note_on channel=10 note=76 velocity=100 time=0
EXTRACT: note_on channel=15 note=57 velocity=1 time=0
EXTRACT: note_on channel=15 note=69 velocity=1 time=0
EXTRACT: control_change channel=0 control=64 value=0 time=0.005376341666666667
EXTRACT: note_on channel=9 note=36 velocity=0 time=0.13978488333333333
EXTRACT: note_on channel=0 note=45 velocity=0 time=0.059139758333333334
EXTRACT: control_change channel=0 control=64 value=127 time=0.016129025
EXTRACT: note_on channel=0 note=45 velocity=105 time=0.10215049166666668
EXTRACT: note_on channel=0 note=69 velocity=0 time=0.005376341666666667
EXTRACT: note_on channel=0 note=57 velocity=0 time=0.010752683333333334
EXTRACT: note_on channel=0 note=64 velocity=0 time=0
EXTRACT: note_on channel=0 note=61 velocity=0 time=0.03225805
EXTRACT: note_on channel=9 note=36 velocity=120 time=0.11290317500000001
EXTRACT: note_on channel=9 note=36 velocity=0 time=0.11827951666666667
EXTRACT: note_on channel=2 note=64 velocity=0 time=0.03763439166666667
EXTRACT: note_on channel=2 note=69 velocity=0 time=0
EXTRACT: note_on channel=2 note=61 velocity=0 time=0
EXTRACT: note_on channel=0 note=45 velocity=0 time=0.005376341666666667
EXTRACT: note_on channel=0 note=57 velocity=109 time=0
EXTRACT: note_on channel=0 note=61 velocity=103 time=0
EXTRACT: note_on channel=0 note=64 velocity=110 time=0
EXTRACT: note_on channel=0 note=69 velocity=108 time=0
EXTRACT: note_on channel=2 note=61 velocity=95 time=0
EXTRACT: note_on channel=2 note=64 velocity=106 time=0
EXTRACT: note_on channel=2 note=69 velocity=98 time=0
EXTRACT: note_on channel=9 note=38 velocity=120 time=0
EXTRACT: note_on channel=9 note=39 velocity=120 time=0
EXTRACT: note_on channel=9 note=38 velocity=0 time=0.11290317500000001
EXTRACT: note_on channel=9 note=39 velocity=0 time=0.016129025
EXTRACT: note_on channel=0 note=69 velocity=0 time=0.15591390833333335
EXTRACT: note_on channel=0 note=64 velocity=0 time=0.010752683333333334
EXTRACT: note_on channel=0 note=57 velocity=0 time=0.021505366666666668
EXTRACT: note_on channel=0 note=45 velocity=95 time=0.005376341666666667
EXTRACT: note_on channel=9 note=36 velocity=120 time=0
EXTRACT: note_on channel=0 note=61 velocity=0 time=0.010752683333333334
EXTRACT: note_on channel=9 note=36 velocity=0 time=0.13978488333333333
EXTRACT: note_on channel=4 note=57 velocity=0 time=0.1290322
EXTRACT: note_on channel=15 note=57 velocity=0 time=0
EXTRACT: note_on channel=0 note=45 velocity=0 time=0.026881708333333334
EXTRACT: note_on channel=2 note=61 velocity=0 time=0.010752683333333334
EXTRACT: note_on channel=2 note=64 velocity=0 time=0
EXTRACT: note_on channel=2 note=69 velocity=0 time=0
EXTRACT: note_on channel=0 note=57 velocity=107 time=0.005376341666666667
EXTRACT: note_on channel=0 note=61 velocity=100 time=0
EXTRACT: note_on channel=0 note=64 velocity=111 time=0
EXTRACT: note_on channel=0 note=69 velocity=106 time=0
EXTRACT: note_on channel=2 note=61 velocity=95 time=0
EXTRACT: note_on channel=2 note=64 velocity=107 time=0
EXTRACT: note_on channel=2 note=69 velocity=100 time=0
EXTRACT: note_on channel=3 note=68 velocity=109 time=0
EXTRACT: note_on channel=4 note=56 velocity=116 time=0
EXTRACT: note_on channel=4 note=68 velocity=116 time=0
EXTRACT: note_on channel=15 note=68 velocity=1 time=0
EXTRACT: note_on channel=15 note=56 velocity=1 time=0
EXTRACT: note_on channel=15 note=69 velocity=0 time=0.005376341666666667
EXTRACT: note_on channel=4 note=69 velocity=0 time=0
EXTRACT: note_on channel=3 note=69 velocity=0 time=0
EXTRACT: note_on channel=0 note=45 velocity=98 time=0.3172041583333334
EXTRACT: note_on channel=3 note=69 velocity=108 time=0
EXTRACT: note_on channel=4 note=57 velocity=106 time=0
EXTRACT: note_on channel=4 note=69 velocity=104 time=0
EXTRACT: note_on channel=9 note=36 velocity=120 time=0
EXTRACT: note_on channel=15 note=57 velocity=1 time=0
EXTRACT: note_on channel=15 note=69 velocity=1 time=0
EXTRACT: note_on channel=15 note=56 velocity=0 time=0.010752683333333334
EXTRACT: note_on channel=3 note=68 velocity=0 time=0
EXTRACT: note_on channel=4 note=56 velocity=0 time=0
EXTRACT: note_on channel=0 note=69 velocity=0 time=0.03763439166666667
EXTRACT: note_on channel=0 note=64 velocity=0 time=0
EXTRACT: note_on channel=4 note=68 velocity=0 time=0.005376341666666667
EXTRACT: note_on channel=15 note=68 velocity=0 time=0
EXTRACT: note_on channel=0 note=57 velocity=0 time=0.005376341666666667
EXTRACT: note_on channel=0 note=61 velocity=0 time=0.010752683333333334
EXTRACT: note_on channel=9 note=36 velocity=0 time=0.059139758333333334
EXTRACT: note_on channel=0 note=45 velocity=0 time=0.16129025
EXTRACT: note_on channel=3 note=69 velocity=0 time=0.010752683333333334
EXTRACT: note_on channel=2 note=69 velocity=0 time=0.016129025
EXTRACT: note_on channel=2 note=61 velocity=0 time=0
EXTRACT: note_on channel=2 note=64 velocity=0 time=0
EXTRACT: note_on channel=15 note=69 velocity=0 time=0.005376341666666667
EXTRACT: note_on channel=4 note=69 velocity=0 time=0
EXTRACT: note_on channel=0 note=57 velocity=107 time=0
EXTRACT: note_on channel=0 note=61 velocity=100 time=0
EXTRACT: note_on channel=0 note=64 velocity=110 time=0
EXTRACT: note_on channel=0 note=69 velocity=107 time=0
EXTRACT: note_on channel=2 note=61 velocity=92 time=0
EXTRACT: note_on channel=2 note=64 velocity=107 time=0
EXTRACT: note_on channel=2 note=69 velocity=94 time=0
EXTRACT: note_on channel=3 note=68 velocity=106 time=0
EXTRACT: note_on channel=4 note=56 velocity=111 time=0
EXTRACT: note_on channel=4 note=68 velocity=119 time=0
EXTRACT: note_on channel=9 note=38 velocity=120 time=0
EXTRACT: note_on channel=9 note=39 velocity=120 time=0
EXTRACT: note_on channel=15 note=56 velocity=1 time=0
EXTRACT: note_on channel=15 note=68 velocity=1 time=0
EXTRACT: note_on channel=15 note=57 velocity=0 time=0.005376341666666667
EXTRACT: note_on channel=4 note=57 velocity=0 time=0
EXTRACT: note_on channel=9 note=38 velocity=0 time=0.11290317500000001
EXTRACT: note_on channel=9 note=39 velocity=0 time=0.010752683333333334
EXTRACT: note_on channel=3 note=68 velocity=0 time=0.1935483
EXTRACT: note_on channel=4 note=56 velocity=0 time=0
EXTRACT: note_on channel=15 note=56 velocity=0 time=0
EXTRACT: note_on channel=0 note=45 velocity=102 time=0
EXTRACT: note_on channel=3 note=66 velocity=100 time=0
EXTRACT: note_on channel=4 note=54 velocity=111 time=0
EXTRACT: note_on channel=4 note=66 velocity=111 time=0
EXTRACT: note_on channel=15 note=54 velocity=1 time=0
EXTRACT: note_on channel=15 note=66 velocity=1 time=0
EXTRACT: note_on channel=4 note=68 velocity=0 time=0.021505366666666668
EXTRACT: note_on channel=15 note=68 velocity=0 time=0
EXTRACT: note_on channel=0 note=57 velocity=0 time=0.010752683333333334
EXTRACT: note_on channel=0 note=64 velocity=0 time=0.005376341666666667
EXTRACT: note_on channel=0 note=69 velocity=0 time=0
EXTRACT: note_on channel=0 note=61 velocity=0 time=0.016129025
EXTRACT: note_on channel=0 note=45 velocity=0 time=0.021505366666666668
EXTRACT: note_on channel=2 note=64 velocity=0 time=0.241935375
EXTRACT: note_on channel=1 note=33 velocity=0 time=0
EXTRACT: note_on channel=7 note=45 velocity=0 time=0
EXTRACT: note_on channel=2 note=61 velocity=0 time=0
EXTRACT: note_on channel=7 note=61 velocity=0 time=0
EXTRACT: note_on channel=2 note=69 velocity=0 time=0
EXTRACT: note_on channel=10 note=73 velocity=0 time=0.005376341666666667
EXTRACT: note_on channel=10 note=69 velocity=0 time=0
EXTRACT: note_on channel=10 note=76 velocity=0 time=0
EXTRACT: note_on channel=0 note=42 velocity=87 time=0
EXTRACT: note_on channel=0 note=54 velocity=86 time=0
EXTRACT: note_on channel=0 note=57 velocity=107 time=0
EXTRACT: note_on channel=0 note=61 velocity=104 time=0
EXTRACT: note_on channel=0 note=66 velocity=103 time=0
EXTRACT: note_on channel=0 note=69 velocity=109 time=0
EXTRACT: note_on channel=1 note=30 velocity=120 time=0
EXTRACT: note_on channel=2 note=61 velocity=97 time=0
EXTRACT: note_on channel=2 note=66 velocity=103 time=0
EXTRACT: note_on channel=2 note=69 velocity=95 time=0
EXTRACT: note_on channel=7 note=42 velocity=100 time=0
EXTRACT: note_on channel=7 note=57 velocity=107 time=0
EXTRACT: note_on channel=9 note=36 velocity=120 time=0
EXTRACT: note_on channel=10 note=73 velocity=100 time=0
EXTRACT: note_on channel=10 note=69 velocity=100 time=0
EXTRACT: note_on channel=10 note=78 velocity=100 time=0
EXTRACT: control_change channel=0 control=64 value=0 time=0.03225805
EXTRACT: note_on channel=9 note=36 velocity=0 time=0.11290317500000001
EXTRACT: note_on channel=0 note=42 velocity=0 time=0.048387075
EXTRACT: note_on channel=0 note=54 velocity=0 time=0.021505366666666668
EXTRACT: control_change channel=0 control=64 value=127 time=0.026881708333333334
EXTRACT: note_on channel=0 note=42 velocity=95 time=0.080645125
EXTRACT: note_on channel=0 note=54 velocity=97 time=0
EXTRACT: note_on channel=0 note=69 velocity=0 time=0.0645161
EXTRACT: note_on channel=0 note=66 velocity=0 time=0.021505366666666668
EXTRACT: note_on channel=0 note=57 velocity=0 time=0.005376341666666667
EXTRACT: note_on channel=0 note=61 velocity=0 time=0.010752683333333334
EXTRACT: note_on channel=9 note=36 velocity=120 time=0.059139758333333334
EXTRACT: note_on channel=9 note=36 velocity=0 time=0.09677415
EXTRACT: note_on channel=3 note=66 velocity=0 time=0.048387075
EXTRACT: note_on channel=2 note=61 velocity=0 time=0.010752683333333334
EXTRACT: note_on channel=2 note=66 velocity=0 time=0
EXTRACT: note_on channel=2 note=69 velocity=0 time=0
EXTRACT: note_on channel=0 note=57 velocity=109 time=0.005376341666666667
EXTRACT: note_on channel=0 note=61 velocity=102 time=0
EXTRACT: note_on channel=0 note=66 velocity=104 time=0
EXTRACT: note_on channel=0 note=69 velocity=109 time=0
EXTRACT: note_on channel=2 note=61 velocity=97 time=0
EXTRACT: note_on channel=2 note=66 velocity=98 time=0
EXTRACT: note_on channel=2 note=69 velocity=102 time=0
EXTRACT: note_on channel=9 note=38 velocity=120 time=0
EXTRACT: note_on channel=9 note=39 velocity=120 time=0
EXTRACT: note_on channel=15 note=54 velocity=0 time=0.016129025
EXTRACT: note_on channel=4 note=54 velocity=0 time=0
EXTRACT: note_on channel=15 note=66 velocity=0 time=0.005376341666666667
EXTRACT: note_on channel=4 note=66 velocity=0 time=0
EXTRACT: note_on channel=0 note=42 velocity=0 time=0.06989244166666667
EXTRACT: note_on channel=0 note=54 velocity=0 time=0.005376341666666667
EXTRACT: note_on channel=9 note=38 velocity=0 time=0.010752683333333334
EXTRACT: note_on channel=9 note=39 velocity=0 time=0.005376341666666667
EXTRACT: note_on channel=0 note=69 velocity=0 time=0.19892464166666668
EXTRACT: note_on channel=0 note=42 velocity=97 time=0.010752683333333334
EXTRACT: note_on channel=0 note=54 velocity=94 time=0
EXTRACT: note_on channel=9 note=36 velocity=120 time=0
EXTRACT: note_on channel=0 note=66 velocity=0 time=0.010752683333333334
EXTRACT: note_on channel=0 note=57 velocity=0 time=0.016129025
EXTRACT: note_on channel=0 note=61 velocity=0 time=0.021505366666666668
EXTRACT: note_on channel=9 note=36 velocity=0 time=0.080645125
EXTRACT: note_on channel=2 note=66 velocity=0 time=0.18817195833333333
EXTRACT: note_on channel=2 note=69 velocity=0 time=0
EXTRACT: note_on channel=2 note=61 velocity=0 time=0
EXTRACT: note_on channel=0 note=57 velocity=107 time=0.005376341666666667
EXTRACT: note_on channel=0 note=61 velocity=102 time=0
EXTRACT: note_on channel=0 note=66 velocity=102 time=0
EXTRACT: note_on channel=0 note=69 velocity=107 time=0
EXTRACT: note_on channel=2 note=61 velocity=98 time=0
EXTRACT: note_on channel=2 note=66 velocity=100 time=0
EXTRACT: note_on channel=2 note=69 velocity=102 time=0
EXTRACT: note_on channel=3 note=66 velocity=114 time=0
EXTRACT: note_on channel=4 note=54 velocity=112 time=0
EXTRACT: note_on channel=4 note=66 velocity=116 time=0
EXTRACT: note_on channel=15 note=66 velocity=1 time=0
EXTRACT: note_on channel=15 note=54 velocity=1 time=0
EXTRACT: note_on channel=0 note=54 velocity=0 time=0.05376341666666667
EXTRACT: note_on channel=0 note=42 velocity=0 time=0.026881708333333334
EXTRACT: note_on channel=0 note=42 velocity=95 time=0.241935375
EXTRACT: note_on channel=0 note=54 velocity=101 time=0
EXTRACT: note_on channel=3 note=68 velocity=108 time=0
EXTRACT: note_on channel=4 note=56 velocity=106 time=0
EXTRACT: note_on channel=4 note=68 velocity=103 time=0
EXTRACT: note_on channel=9 note=36 velocity=120 time=0
EXTRACT: note_on channel=15 note=68 velocity=1 time=0
EXTRACT: note_on channel=15 note=56 velocity=1 time=0
EXTRACT: note_on channel=15 note=54 velocity=0 time=0.021505366666666668
EXTRACT: note_on channel=3 note=66 velocity=0 time=0
EXTRACT: note_on channel=4 note=54 velocity=0 time=0
EXTRACT: note_on channel=4 note=66 velocity=0 time=0.03225805
EXTRACT: note_on channel=15 note=66 velocity=0 time=0
EXTRACT: note_on channel=0 note=66 velocity=0 time=0.03763439166666667
EXTRACT: note_on channel=0 note=57 velocity=0 time=0
EXTRACT: note_on channel=0 note=69 velocity=0 time=0.021505366666666668
EXTRACT: note_on channel=9 note=36 velocity=0 time=0.005376341666666667
EXTRACT: note_on channel=0 note=61 velocity=0 time=0.010752683333333334
EXTRACT: note_on channel=4 note=56 velocity=0 time=0.15053756666666668
EXTRACT: note_on channel=15 note=56 velocity=0 time=0
EXTRACT: note_on channel=2 note=66 velocity=0 time=0.03763439166666667
EXTRACT: note_on channel=2 note=61 velocity=0 time=0
EXTRACT: note_on channel=2 note=69 velocity=0 time=0
EXTRACT: note_on channel=0 note=57 velocity=111 time=0.005376341666666667
EXTRACT: note_on channel=0 note=61 velocity=106 time=0
EXTRACT: note_on channel=0 note=66 velocity=106 time=0
EXTRACT: note_on channel=0 note=69 velocity=109 time=0
EXTRACT: note_on channel=2 note=61 velocity=100 time=0
EXTRACT: note_on channel=2 note=66 velocity=103 time=0
EXTRACT: note_on channel=2 note=69 velocity=104 time=0
EXTRACT: note_on channel=3 note=69 velocity=115 time=0
EXTRACT: note_on channel=4 note=57 velocity=106 time=0
EXTRACT: note_on channel=4 note=69 velocity=106 time=0
EXTRACT: note_on channel=9 note=38 velocity=120 time=0
EXTRACT: note_on channel=9 note=39 velocity=120 time=0
EXTRACT: note_on channel=15 note=69 velocity=1 time=0
EXTRACT: note_on channel=15 note=57 velocity=1 time=0
EXTRACT: note_on channel=3 note=68 velocity=0 time=0.010752683333333334
EXTRACT: note_on channel=0 note=54 velocity=0 time=0.010752683333333334
EXTRACT: note_on channel=4 note=68 velocity=0 time=0.010752683333333334
EXTRACT: note_on channel=15 note=68 velocity=0 time=0
EXTRACT: note_on channel=0 note=42 velocity=0 time=0
EXTRACT: note_on channel=9 note=38 velocity=0 time=0.06989244166666667
EXTRACT: note_on channel=9 note=39 velocity=0 time=0.010752683333333334
EXTRACT: note_on channel=0 note=69 velocity=0 time=0.12365585833333334
EXTRACT: note_on channel=0 note=57 velocity=0 time=0.05376341666666667
EXTRACT: note_on channel=4 note=69 velocity=0 time=0.026881708333333334
EXTRACT: note_on channel=15 note=69 velocity=0 time=0
EXTRACT: note_on channel=1 note=30 velocity=0 time=0
EXTRACT: note_on channel=0 note=42 velocity=95 time=0.005376341666666667
EXTRACT: note_on channel=0 note=54 velocity=94 time=0
EXTRACT: note_on channel=1 note=26 velocity=120 time=0
EXTRACT: note_on channel=4 note=49 velocity=106 time=0
EXTRACT: note_on channel=4 note=61 velocity=110 time=0
EXTRACT: note_on channel=15 note=61 velocity=1 time=0
EXTRACT: note_on channel=15 note=49 velocity=1 time=0
EXTRACT: note_on channel=0 note=61 velocity=0 time=0.03763439166666667
EXTRACT: note_on channel=15 note=57 velocity=0 time=0.005376341666666667
EXTRACT: note_on channel=4 note=57 velocity=0 time=0
EXTRACT: note_on channel=0 note=66 velocity=0 time=0.010752683333333334
EXTRACT: note_on channel=0 note=54 velocity=0 time=0.016129025
EXTRACT: note_on channel=0 note=42 velocity=0 time=0.05376341666666667
EXTRACT: note_on channel=3 note=69 velocity=0 time=0.021505366666666668
EXTRACT: note_on channel=3 note=61 velocity=105 time=0.016129025
EXTRACT: note_on channel=1 note=26 velocity=0 time=0.15591390833333335
EXTRACT: note_on channel=2 note=66 velocity=0 time=0
EXTRACT: note_on channel=2 note=61 velocity=0 time=0
EXTRACT: note_on channel=7 note=57 velocity=0 time=0
EXTRACT: note_on channel=2 note=69 velocity=0 time=0
EXTRACT: note_on channel=7 note=42 velocity=0 time=0
EXTRACT: note_on channel=10 note=69 velocity=0 time=0.005376341666666667
EXTRACT: note_on channel=10 note=73 velocity=0 time=0
EXTRACT: note_on channel=10 note=78 velocity=0 time=0
EXTRACT: note_on channel=0 note=56 velocity=100 time=0
EXTRACT: note_on channel=0 note=61 velocity=101 time=0
EXTRACT: note_on channel=0 note=64 velocity=110 time=0
EXTRACT: note_on channel=0 note=68 velocity=99 time=0
EXTRACT: note_on channel=1 note=25 velocity=120 time=0
EXTRACT: note_on channel=2 note=61 velocity=97 time=0
EXTRACT: note_on channel=2 note=64 velocity=107 time=0
EXTRACT: note_on channel=2 note=68 velocity=100 time=0
EXTRACT: note_on channel=7 note=37 velocity=95 time=0
EXTRACT: note_on channel=7 note=56 velocity=102 time=0
EXTRACT: note_on channel=9 note=36 velocity=120 time=0
EXTRACT: note_on channel=10 note=73 velocity=100 time=0
EXTRACT: note_on channel=10 note=68 velocity=100 time=0
EXTRACT: note_on channel=10 note=76 velocity=100 time=0
EXTRACT: control_change channel=0 control=64 value=0 time=0.080645125
EXTRACT: note_on channel=9 note=36 velocity=0 time=0.05376341666666667
EXTRACT: note_on channel=0 note=49 velocity=92 time=0.18817195833333333
EXTRACT: control_change channel=0 control=64 value=127 time=0.021505366666666668
EXTRACT: note_on channel=0 note=64 velocity=0 time=0.043010733333333336
EXTRACT: note_on channel=0 note=61 velocity=0 time=0.043010733333333336
EXTRACT: note_on channel=0 note=68 velocity=0 time=0.010752683333333334
EXTRACT: note_on channel=0 note=56 velocity=0 time=0.005376341666666667
EXTRACT: note_on channel=9 note=36 velocity=120 time=0.03763439166666667
EXTRACT: note_on channel=9 note=36 velocity=0 time=0.09139780833333334
EXTRACT: note_on channel=2 note=61 velocity=0 time=0.0645161
EXTRACT: note_on channel=2 note=68 velocity=0 time=0
EXTRACT: note_on channel=2 note=64 velocity=0 time=0
EXTRACT: note_on channel=0 note=56 velocity=116 time=0.005376341666666667
EXTRACT: note_on channel=0 note=61 velocity=108 time=0
EXTRACT: note_on channel=0 note=64 velocity=113 time=0
EXTRACT: note_on channel=0 note=68 velocity=105 time=0
EXTRACT: note_on channel=2 note=61 velocity=99 time=0
EXTRACT: note_on channel=2 note=64 velocity=110 time=0
EXTRACT: note_on channel=2 note=68 velocity=101 time=0
EXTRACT: note_on channel=9 note=38 velocity=120 time=0
EXTRACT: note_on channel=9 note=39 velocity=120 time=0
EXTRACT: note_on channel=0 note=49 velocity=0 time=0.021505366666666668
EXTRACT: note_on channel=9 note=38 velocity=0 time=0.10215049166666668
EXTRACT: note_on channel=9 note=39 velocity=0 time=0.005376341666666667
EXTRACT: note_on channel=0 note=64 velocity=0 time=0.11290317500000001
EXTRACT: note_on channel=0 note=68 velocity=0 time=0.048387075
EXTRACT: note_on channel=0 note=56 velocity=0 time=0.021505366666666668
EXTRACT: note_on channel=0 note=37 velocity=100 time=0.010752683333333334
EXTRACT: note_on channel=0 note=49 velocity=114 time=0
EXTRACT: note_on channel=9 note=36 velocity=120 time=0
EXTRACT: note_on channel=0 note=61 velocity=0 time=0.005376341666666667
EXTRACT: note_on channel=0 note=49 velocity=0 time=0.059139758333333334
EXTRACT: note_on channel=0 note=37 velocity=0 time=0.03225805
EXTRACT: note_on channel=9 note=36 velocity=0 time=0.043010733333333336
EXTRACT: note_on channel=2 note=64 velocity=0 time=0.17741927500000002
EXTRACT: note_on channel=2 note=68 velocity=0 time=0
EXTRACT: note_on channel=2 note=61 velocity=0 time=0
EXTRACT: note_on channel=0 note=37 velocity=106 time=0.005376341666666667
EXTRACT: note_on channel=0 note=49 velocity=114 time=0
EXTRACT: note_on channel=0 note=56 velocity=103 time=0
EXTRACT: note_on channel=0 note=61 velocity=107 time=0
EXTRACT: note_on channel=0 note=64 velocity=112 time=0
EXTRACT: note_on channel=0 note=68 velocity=105 time=0
EXTRACT: note_on channel=2 note=61 velocity=96 time=0
EXTRACT: note_on channel=2 note=64 velocity=107 time=0
EXTRACT: note_on channel=2 note=68 velocity=100 time=0
EXTRACT: note_on channel=0 note=49 velocity=0 time=0.080645125
EXTRACT: note_on channel=0 note=37 velocity=0 time=0
EXTRACT: note_on channel=0 note=64 velocity=0 time=0.16666659166666667
EXTRACT: note_on channel=0 note=68 velocity=0 time=0.03763439166666667
EXTRACT: note_on channel=0 note=56 velocity=0 time=0.021505366666666668
EXTRACT: note_on channel=0 note=37 velocity=119 time=0.016129025
EXTRACT: note_on channel=0 note=49 velocity=120 time=0
EXTRACT: note_on channel=9 note=36 velocity=120 time=0
EXTRACT: note_on channel=0 note=37 velocity=0 time=0.043010733333333336
EXTRACT: note_on channel=0 note=49 velocity=0 time=0.016129025
EXTRACT: note_on channel=9 note=36 velocity=0 time=0.059139758333333334
EXTRACT: note_on channel=0 note=61 velocity=0 time=0.005376341666666667
EXTRACT: note_on channel=2 note=64 velocity=0 time=0.1935483
EXTRACT: note_on channel=2 note=61 velocity=0 time=0
EXTRACT: note_on channel=2 note=68 velocity=0 time=0
EXTRACT: note_on channel=0 note=37 velocity=120 time=0.005376341666666667
EXTRACT: note_on channel=0 note=49 velocity=120 time=0
EXTRACT: note_on channel=0 note=56 velocity=111 time=0
EXTRACT: note_on channel=0 note=61 velocity=108 time=0
EXTRACT: note_on channel=0 note=64 velocity=113 time=0
EXTRACT: note_on channel=0 note=68 velocity=102 time=0
EXTRACT: note_on channel=2 note=61 velocity=95 time=0
EXTRACT: note_on channel=2 note=64 velocity=109 time=0
EXTRACT: note_on channel=2 note=68 velocity=100 time=0
EXTRACT: note_on channel=9 note=38 velocity=120 time=0
EXTRACT: note_on channel=9 note=39 velocity=120 time=0
EXTRACT: note_on channel=0 note=37 velocity=0 time=0.05376341666666667
EXTRACT: note_on channel=0 note=49 velocity=0 time=0.010752683333333334
EXTRACT: note_on channel=9 note=38 velocity=0 time=0.048387075
EXTRACT: note_on channel=9 note=39 velocity=0 time=0.010752683333333334
EXTRACT: note_on channel=0 note=64 velocity=0 time=0.080645125
EXTRACT: note_on channel=0 note=61 velocity=0 time=0.026881708333333334
EXTRACT: note_on channel=0 note=56 velocity=0 time=0.005376341666666667
EXTRACT: note_on channel=0 note=68 velocity=0 time=0.080645125
EXTRACT: note_on channel=0 note=37 velocity=119 time=0.005376341666666667
EXTRACT: note_on channel=0 note=49 velocity=120 time=0
EXTRACT: note_on channel=0 note=37 velocity=0 time=0.05376341666666667
EXTRACT: note_on channel=0 note=49 velocity=0 time=0.016129025
EXTRACT: note_on channel=7 note=56 velocity=0 time=0.24731171666666668
EXTRACT: note_on channel=2 note=64 velocity=0 time=0
EXTRACT: note_on channel=1 note=25 velocity=0 time=0
EXTRACT: note_on channel=2 note=68 velocity=0 time=0
EXTRACT: note_on channel=2 note=61 velocity=0 time=0
EXTRACT: note_on channel=3 note=61 velocity=0 time=0
EXTRACT: note_on channel=7 note=37 velocity=0 time=0
EXTRACT: note_on channel=10 note=68 velocity=0 time=0.005376341666666667
EXTRACT: note_on channel=10 note=73 velocity=0 time=0
EXTRACT: note_on channel=10 note=76 velocity=0 time=0
EXTRACT: note_on channel=0 note=40 velocity=104 time=0
EXTRACT: note_on channel=0 note=52 velocity=107 time=0
EXTRACT: note_on channel=0 note=59 velocity=107 time=0
EXTRACT: note_on channel=0 note=64 velocity=112 time=0
EXTRACT: note_on channel=0 note=68 velocity=105 time=0
EXTRACT: note_on channel=1 note=28 velocity=120 time=0
EXTRACT: note_on channel=2 note=59 velocity=100 time=0
EXTRACT: note_on channel=2 note=64 velocity=107 time=0
EXTRACT: note_on channel=2 note=68 velocity=101 time=0
EXTRACT: note_on channel=3 note=64 velocity=109 time=0
EXTRACT: note_on channel=4 note=52 velocity=106 time=0
EXTRACT: note_on channel=4 note=64 velocity=109 time=0
EXTRACT: note_on channel=7 note=40 velocity=98 time=0
EXTRACT: note_on channel=7 note=59 velocity=109 time=0
EXTRACT: note_on channel=9 note=36 velocity=120 time=0
EXTRACT: note_on channel=10 note=68 velocity=100 time=0
EXTRACT: note_on channel=10 note=71 velocity=100 time=0
EXTRACT: note_on channel=10 note=76 velocity=100 time=0
EXTRACT: note_on channel=15 note=52 velocity=1 time=0
EXTRACT: note_on channel=15 note=64 velocity=1 time=0
EXTRACT: note_on channel=4 note=49 velocity=0 time=0.005376341666666667
EXTRACT: note_on channel=15 note=49 velocity=0 time=0
EXTRACT: control_change channel=0 control=64 value=0 time=0.016129025
EXTRACT: note_on channel=4 note=61 velocity=0 time=0.026881708333333334
EXTRACT: note_on channel=15 note=61 velocity=0 time=0
EXTRACT: note_on channel=9 note=36 velocity=0 time=0.07526878333333334
EXTRACT: note_on channel=7 note=40 velocity=0 time=2.4516118000000002
EXTRACT: note_on channel=7 note=59 velocity=0 time=0
EXTRACT: note_on channel=2 note=59 velocity=0 time=0
EXTRACT: note_on channel=2 note=68 velocity=0 time=0
EXTRACT: note_on channel=2 note=64 velocity=0 time=0
EXTRACT: note_on channel=10 note=68 velocity=0 time=0.005376341666666667
EXTRACT: note_on channel=10 note=71 velocity=0 time=0
EXTRACT: note_on channel=10 note=76 velocity=0 time=0
EXTRACT: note_on channel=0 note=52 velocity=0 time=0.45161270000000003
EXTRACT: note_on channel=0 note=40 velocity=0 time=0.010752683333333334
EXTRACT: note_on channel=0 note=64 velocity=0 time=0.005376341666666667
EXTRACT: note_on channel=0 note=59 velocity=0 time=0
EXTRACT: note_on channel=0 note=68 velocity=0 time=0.005376341666666667
EXTRACT: note_on channel=3 note=64 velocity=0 time=0.16666659166666667
EXTRACT: note_on channel=15 note=64 velocity=0 time=0.005376341666666667
EXTRACT: note_on channel=4 note=64 velocity=0 time=0
EXTRACT: note_on channel=4 note=52 velocity=0 time=0.010752683333333334
EXTRACT: note_on channel=15 note=52 velocity=0 time=0
EXTRACT: note_on channel=1 note=28 velocity=0 time=0.30645147500000003
EXTRACT: note_on channel=9 note=38 velocity=120 time=0.9731178416666667
EXTRACT: note_on channel=9 note=39 velocity=120 time=0
EXTRACT: note_on channel=9 note=38 velocity=0 time=0.10752683333333334
EXTRACT: note_on channel=9 note=39 velocity=0 time=0.005376341666666667
EXTRACT: control_change channel=0 control=64 value=127 time=0
EXTRACT: note_on channel=0 note=52 velocity=75 time=0
EXTRACT: note_on channel=0 note=57 velocity=105 time=0
EXTRACT: note_on channel=0 note=61 velocity=100 time=0
EXTRACT: note_on channel=0 note=64 velocity=106 time=0
EXTRACT: note_on channel=0 note=69 velocity=104 time=0
EXTRACT: note_on channel=0 note=52 velocity=0 time=0.05294115
EXTRACT: note_on channel=0 note=69 velocity=0 time=0.25294105
EXTRACT: note_on channel=0 note=64 velocity=0 time=0.0235294
EXTRACT: note_on channel=0 note=57 velocity=0 time=0.00588235
EXTRACT: note_on channel=0 note=45 velocity=81 time=0.017647049999999997
EXTRACT: note_on channel=0 note=52 velocity=94 time=0
EXTRACT: note_on channel=3 note=69 velocity=110 time=0
EXTRACT: note_on channel=0 note=61 velocity=0 time=0.00588235
EXTRACT: note_on channel=3 note=69 velocity=0 time=0.2588234
EXTRACT: note_on channel=0 note=52 velocity=0 time=0.0588235
EXTRACT: note_on channel=0 note=45 velocity=0 time=0.0117647
EXTRACT: note_on channel=0 note=57 velocity=96 time=0.017647049999999997
EXTRACT: note_on channel=0 note=61 velocity=88 time=0
EXTRACT: note_on channel=0 note=64 velocity=103 time=0
EXTRACT: note_on channel=3 note=69 velocity=107 time=0
EXTRACT: note_on channel=3 note=69 velocity=0 time=0.235294
EXTRACT: note_on channel=0 note=64 velocity=0 time=0.09999994999999999
EXTRACT: note_on channel=0 note=57 velocity=0 time=0.017647049999999997
EXTRACT: note_on channel=0 note=45 velocity=84 time=0
EXTRACT: note_on channel=0 note=52 velocity=92 time=0
EXTRACT: note_on channel=3 note=69 velocity=107 time=0
EXTRACT: note_on channel=0 note=61 velocity=0 time=0.0117647
EXTRACT: note_on channel=3 note=69 velocity=0 time=0.12352935
EXTRACT: note_on channel=0 note=52 velocity=0 time=0.16470579999999999
EXTRACT: note_on channel=0 note=45 velocity=0 time=0.02941175
EXTRACT: note_on channel=0 note=57 velocity=95 time=0.0235294
EXTRACT: note_on channel=0 note=61 velocity=88 time=0
EXTRACT: note_on channel=0 note=64 velocity=102 time=0
EXTRACT: note_on channel=3 note=69 velocity=108 time=0
EXTRACT: note_on channel=0 note=45 velocity=88 time=0.352941
EXTRACT: note_on channel=0 note=52 velocity=94 time=0
EXTRACT: note_on channel=3 note=64 velocity=106 time=0
EXTRACT: note_on channel=0 note=64 velocity=0 time=0.02941175
EXTRACT: note_on channel=0 note=57 velocity=0 time=0.00588235
EXTRACT: note_on channel=3 note=69 velocity=0 time=0.0117647
EXTRACT: note_on channel=0 note=61 velocity=0 time=0.00588235
EXTRACT: note_on channel=3 note=64 velocity=0 time=0.19999989999999998
EXTRACT: note_on channel=0 note=52 velocity=0 time=0.0941176
EXTRACT: note_on channel=0 note=45 velocity=0 time=0
EXTRACT: note_on channel=0 note=57 velocity=100 time=0
EXTRACT: note_on channel=0 note=61 velocity=100 time=0
EXTRACT: note_on channel=0 note=64 velocity=106 time=0
EXTRACT: note_on channel=3 note=64 velocity=111 time=0
EXTRACT: note_on channel=3 note=64 velocity=0 time=0.27999999999999997
EXTRACT: note_on channel=0 note=45 velocity=94 time=0.12
EXTRACT: note_on channel=0 note=52 velocity=97 time=0
EXTRACT: note_on channel=3 note=61 velocity=108 time=0
EXTRACT: note_on channel=0 note=52 velocity=0 time=0.05333333333333333
EXTRACT: note_on channel=0 note=64 velocity=0 time=0.013333333333333332
EXTRACT: note_on channel=0 note=45 velocity=0 time=0.006666666666666666
EXTRACT: note_on channel=0 note=57 velocity=0 time=0
EXTRACT: note_on channel=0 note=61 velocity=0 time=0.013333333333333332
EXTRACT: note_on channel=3 note=61 velocity=0 time=0.19999999999999998
EXTRACT: note_on channel=0 note=42 velocity=80 time=0.11333333333333333
EXTRACT: note_on channel=0 note=54 velocity=88 time=0
EXTRACT: note_on channel=0 note=57 velocity=103 time=0
EXTRACT: note_on channel=0 note=61 velocity=100 time=0
EXTRACT: note_on channel=0 note=66 velocity=100 time=0
EXTRACT: note_on channel=3 note=66 velocity=108 time=0
EXTRACT: control_change channel=0 control=64 value=0 time=0.04666666666666666
EXTRACT: note_on channel=3 note=66 velocity=0 time=0.31999999999999995
EXTRACT: note_on channel=3 note=66 velocity=108 time=0.03333333333333333
EXTRACT: note_on channel=3 note=66 velocity=0 time=1.7599999999999998
EXTRACT: note_on channel=3 note=64 velocity=99 time=0.039999999999999994
EXTRACT: note_on channel=3 note=61 velocity=88 time=0.19999999999999998
EXTRACT: note_on channel=3 note=64 velocity=0 time=0.013333333333333332
EXTRACT: note_on channel=3 note=61 velocity=0 time=0.30666666666666664
EXTRACT: note_on channel=0 note=57 velocity=0 time=3.5933333333333333
EXTRACT: note_on channel=0 note=66 velocity=0 time=0.006666666666666666
EXTRACT: note_on channel=0 note=61 velocity=0 time=0.006666666666666666
EXTRACT: note_on channel=0 note=54 velocity=0 time=0
EXTRACT: note_on channel=0 note=42 velocity=0 time=0.013333333333333332
EXTRACT: sysex data=(126,127,9,1) time=0.86
EXTRACT: sysex data=(65,16,66,18,64,0,127,0,65) time=0
