EXTRACT: note_on channel=9 note=42 velocity=61 time=0
EXTRACT: sysex data=(65,16,66,18,64,0,127,0,65) time=0
EXTRACT: sysex data=(65,16,66,18,64,1,48,4,11) time=0.010416666666666666
EXTRACT: sysex data=(65,16,66,18,64,1,56,2,5) time=0
EXTRACT: note_on channel=9 note=42 velocity=0 time=0.06770833333333333
EXTRACT: sysex data=(65,16,66,18,64,1,52,93,46) time=0.18229166666666666
EXTRACT: program_change channel=9 program=0 time=0.625
EXTRACT: sysex data=(65,16,66,18,64,1,16,2,0,2,2,2,2,2,2,2,1,1,1,1,1,1,0,25) time=0.005208333333333333
EXTRACT: sysex data=(65,16,69,18,16,0,0,40,99,41,32,50,48,48,53,32,98,121,32,71,69,69,82,68,69,83,32,109,105,100,105,109,117,115,105,99,87) time=0.015625
EXTRACT: control_change channel=9 control=99 value=26 time=0.11979166666666666
EXTRACT: control_change channel=9 control=98 value=69 time=0
EXTRACT: control_change channel=9 control=6 value=127 time=0
EXTRACT: control_change channel=9 control=38 value=0 time=0
EXTRACT: note_on channel=9 note=42 velocity=67 time=0.6666666666666666
EXTRACT: control_change channel=1 control=0 value=0 time=0
EXTRACT: control_change channel=1 control=32 value=0 time=0.026041666666666664
EXTRACT: program_change channel=1 program=33 time=0
EXTRACT: control_change channel=9 control=99 value=24 time=0.010416666666666666
EXTRACT: control_change channel=9 control=98 value=36 time=0
EXTRACT: control_change channel=9 control=6 value=61 time=0
EXTRACT: control_change channel=9 control=38 value=0 time=0
EXTRACT: control_change channel=9 control=91 value=73 time=0
EXTRACT: control_change channel=11 control=0 value=0 time=0.041666666666666664
EXTRACT: control_change channel=10 control=0 value=0 time=0
EXTRACT: control_change channel=8 control=0 value=0 time=0
EXTRACT: control_change channel=7 control=0 value=0 time=0
EXTRACT: control_change channel=6 control=0 value=0 time=0
EXTRACT: control_change channel=5 control=0 value=0 time=0
EXTRACT: control_change channel=4 control=0 value=0 time=0
EXTRACT: control_change channel=3 control=0 value=0 time=0
EXTRACT: control_change channel=2 control=0 value=0 time=0
EXTRACT: note_on channel=9 note=42 velocity=0 time=0.010416666666666666
EXTRACT: control_change channel=11 control=32 value=0 time=0.015625
EXTRACT: program_change channel=11 program=73 time=0
EXTRACT: control_change channel=10 control=32 value=0 time=0
EXTRACT: program_change channel=10 program=48 time=0
EXTRACT: control_change channel=8 control=32 value=0 time=0
EXTRACT: program_change channel=8 program=119 time=0
EXTRACT: control_change channel=7 control=32 value=0 time=0
EXTRACT: program_change channel=7 program=65 time=0
EXTRACT: control_change channel=6 control=32 value=0 time=0
EXTRACT: program_change channel=6 program=46 time=0
EXTRACT: control_change channel=5 control=32 value=0 time=0
EXTRACT: program_change channel=5 program=58 time=0
EXTRACT: control_change channel=4 control=32 value=0 time=0
EXTRACT: program_change channel=4 program=52 time=0
EXTRACT: control_change channel=3 control=32 value=0 time=0
EXTRACT: program_change channel=3 program=64 time=0
EXTRACT: control_change channel=2 control=32 value=0 time=0
EXTRACT: program_change channel=2 program=4 time=0
EXTRACT: control_change channel=9 control=93 value=0 time=0.03125
EXTRACT: control_change channel=1 control=91 value=0 time=1.1302083333333333
EXTRACT: note_on channel=9 note=42 velocity=64 time=0.026041666666666664
EXTRACT: control_change channel=4 control=91 value=79 time=0
EXTRACT: control_change channel=3 control=91 value=79 time=0
EXTRACT: control_change channel=7 control=91 value=74 time=0.026041666666666664
EXTRACT: control_change channel=5 control=91 value=72 time=0.010416666666666666
EXTRACT: control_change channel=2 control=91 value=72 time=0
EXTRACT: control_change channel=11 control=91 value=91 time=0.015625
EXTRACT: control_change channel=10 control=91 value=91 time=0
EXTRACT: control_change channel=8 control=91 value=91 time=0
EXTRACT: control_change channel=6 control=91 value=56 time=0
EXTRACT: note_on channel=9 note=42 velocity=0 time=0.041666666666666664
EXTRACT: control_change channel=1 control=93 value=28 time=0.07291666666666666
EXTRACT: control_change channel=4 control=93 value=69 time=0.026041666666666664
EXTRACT: control_change channel=3 control=93 value=35 time=0
EXTRACT: control_change channel=7 control=93 value=32 time=0.026041666666666664
EXTRACT: control_change channel=5 control=93 value=83 time=0.015625
EXTRACT: control_change channel=2 control=93 value=59 time=0
EXTRACT: control_change channel=11 control=93 value=56 time=0.010416666666666666
EXTRACT: control_change channel=10 control=93 value=56 time=0
EXTRACT: control_change channel=8 control=93 value=56 time=0
EXTRACT: control_change channel=6 control=93 value=54 time=0
EXTRACT: control_change channel=1 control=74 value=54 time=0.234375
EXTRACT: control_change channel=3 control=74 value=72 time=0.026041666666666664
EXTRACT: control_change channel=7 control=74 value=58 time=0.026041666666666664
EXTRACT: control_change channel=11 control=74 value=64 time=0.026041666666666664
EXTRACT: control_change channel=10 control=74 value=64 time=0
EXTRACT: control_change channel=8 control=74 value=64 time=0
EXTRACT: control_change channel=6 control=74 value=67 time=0
EXTRACT: note_on channel=9 note=42 velocity=71 time=0.06770833333333333
EXTRACT: control_change channel=9 control=99 value=24 time=0.03645833333333333
EXTRACT: control_change channel=9 control=98 value=40 time=0
EXTRACT: control_change channel=9 control=6 value=61 time=0
EXTRACT: control_change channel=9 control=38 value=0 time=0
EXTRACT: note_on channel=9 note=42 velocity=0 time=0.0625
EXTRACT: note_on channel=7 note=71 velocity=81 time=0.057291666666666664
EXTRACT: control_change channel=9 control=99 value=29 time=0.08854166666666666
EXTRACT: control_change channel=9 control=98 value=36 time=0
EXTRACT: control_change channel=9 control=6 value=14 time=0
EXTRACT: control_change channel=9 control=38 value=0 time=0
EXTRACT: note_on channel=7 note=71 velocity=0 time=0.010416666666666666
EXTRACT: note_on channel=7 note=74 velocity=82 time=0.057291666666666664
EXTRACT: note_on channel=7 note=74 velocity=0 time=0.16145833333333331
EXTRACT: control_change channel=9 control=99 value=29 time=0.07291666666666666
EXTRACT: control_change channel=9 control=98 value=40 time=0
EXTRACT: control_change channel=9 control=6 value=108 time=0
EXTRACT: control_change channel=9 control=38 value=0 time=0
EXTRACT: note_on channel=7 note=76 velocity=92 time=0.078125
EXTRACT: note_on channel=7 note=76 velocity=0 time=0.11458333333333333
EXTRACT: note_on channel=7 note=74 velocity=86 time=0.19791666666666666
EXTRACT: note_on channel=9 note=39 velocity=68 time=0.3125
EXTRACT: note_on channel=9 note=39 velocity=0 time=0.109375
EXTRACT: note_on channel=7 note=71 velocity=82 time=0.046875
EXTRACT: note_on channel=7 note=74 velocity=0 time=0.041666666666666664
EXTRACT: note_on channel=7 note=71 velocity=0 time=0.041666666666666664
EXTRACT: note_on channel=7 note=74 velocity=87 time=0.07291666666666666
EXTRACT: note_on channel=7 note=74 velocity=0 time=0.09895833333333333
EXTRACT: note_on channel=7 note=76 velocity=86 time=0.21354166666666666
EXTRACT: note_on channel=7 note=76 velocity=0 time=0.09895833333333333
EXTRACT: note_on channel=7 note=74 velocity=83 time=0.21354166666666666
EXTRACT: note_on channel=9 note=39 velocity=69 time=0.3125
EXTRACT: note_on channel=9 note=39 velocity=0 time=0.09375
EXTRACT: note_on channel=7 note=71 velocity=77 time=0.0625
EXTRACT: note_on channel=7 note=74 velocity=0 time=0.020833333333333332
EXTRACT: note_on channel=7 note=71 velocity=0 time=0.078125
EXTRACT: note_on channel=7 note=74 velocity=87 time=0.057291666666666664
EXTRACT: note_on channel=7 note=74 velocity=0 time=0.06770833333333333
EXTRACT: note_on channel=7 note=76 velocity=87 time=0.24479166666666666
EXTRACT: note_on channel=7 note=76 velocity=0 time=0.08854166666666666
EXTRACT: note_on channel=7 note=74 velocity=83 time=0.22395833333333331
EXTRACT: note_on channel=9 note=39 velocity=70 time=0.3125
EXTRACT: note_on channel=9 note=39 velocity=0 time=0.08854166666666666
EXTRACT: note_on channel=7 note=71 velocity=75 time=0.06770833333333333
EXTRACT: note_on channel=7 note=74 velocity=0 time=0.015625
EXTRACT: note_on channel=7 note=71 velocity=0 time=0.078125
EXTRACT: note_on channel=7 note=74 velocity=84 time=0.0625
EXTRACT: note_on channel=7 note=74 velocity=0 time=0.078125
EXTRACT: note_on channel=7 note=76 velocity=86 time=0.234375
EXTRACT: note_on channel=7 note=76 velocity=0 time=0.09375
EXTRACT: note_on channel=7 note=74 velocity=83 time=0.21875
EXTRACT: note_on channel=9 note=39 velocity=71 time=0.3125
EXTRACT: note_on channel=9 note=39 velocity=0 time=0.08854166666666666
EXTRACT: note_on channel=7 note=74 velocity=0 time=0.015625
EXTRACT: note_on channel=7 note=71 velocity=81 time=0.05208333333333333
EXTRACT: note_on channel=7 note=71 velocity=0 time=0.08854166666666666
EXTRACT: note_on channel=7 note=78 velocity=92 time=0.06770833333333333
EXTRACT: note_on channel=7 note=78 velocity=0 time=0.22395833333333331
EXTRACT: note_on channel=9 note=36 velocity=77 time=0.08854166666666666
EXTRACT: note_on channel=9 note=42 velocity=88 time=0
EXTRACT: note_on channel=9 note=54 velocity=54 time=0
EXTRACT: note_on channel=9 note=70 velocity=87 time=0
EXTRACT: note_on channel=1 note=35 velocity=84 time=0
EXTRACT: note_on channel=5 note=57 velocity=63 time=0
EXTRACT: note_on channel=5 note=59 velocity=67 time=0
EXTRACT: note_on channel=5 note=62 velocity=66 time=0
EXTRACT: note_on channel=9 note=70 velocity=0 time=0.08333333333333333
EXTRACT: note_on channel=9 note=54 velocity=0 time=0.010416666666666666
EXTRACT: note_on channel=9 note=42 velocity=0 time=0.010416666666666666
EXTRACT: note_on channel=9 note=54 velocity=38 time=0.05208333333333333
EXTRACT: note_on channel=9 note=70 velocity=63 time=0
EXTRACT: note_on channel=5 note=59 velocity=0 time=0.046875
EXTRACT: note_on channel=5 note=62 velocity=0 time=0
EXTRACT: note_on channel=9 note=54 velocity=0 time=0.03125
EXTRACT: note_on channel=5 note=57 velocity=0 time=0.020833333333333332
EXTRACT: note_on channel=9 note=70 velocity=0 time=0.005208333333333333
EXTRACT: note_on channel=9 note=42 velocity=46 time=0.05208333333333333
EXTRACT: note_on channel=9 note=54 velocity=44 time=0
EXTRACT: note_on channel=9 note=69 velocity=68 time=0
EXTRACT: note_on channel=9 note=70 velocity=46 time=0
EXTRACT: note_on channel=7 note=74 velocity=95 time=0
EXTRACT: note_on channel=1 note=35 velocity=0 time=0.015625
EXTRACT: note_on channel=9 note=70 velocity=0 time=0.03125
EXTRACT: note_on channel=9 note=69 velocity=0 time=0.010416666666666666
EXTRACT: note_on channel=9 note=54 velocity=0 time=0.010416666666666666
EXTRACT: note_on channel=9 note=42 velocity=0 time=0.015625
EXTRACT: note_on channel=7 note=74 velocity=0 time=0
EXTRACT: note_on channel=9 note=36 velocity=0 time=0.041666666666666664
EXTRACT: note_on channel=9 note=54 velocity=36 time=0.03125
EXTRACT: note_on channel=9 note=70 velocity=61 time=0
EXTRACT: note_on channel=9 note=54 velocity=0 time=0.05208333333333333
EXTRACT: note_on channel=9 note=70 velocity=0 time=0.041666666666666664
EXTRACT: note_on channel=9 note=36 velocity=81 time=0.0625
EXTRACT: note_on channel=9 note=39 velocity=71 time=0
EXTRACT: note_on channel=9 note=42 velocity=91 time=0
EXTRACT: note_on channel=9 note=54 velocity=61 time=0
EXTRACT: note_on channel=9 note=70 velocity=91 time=0
EXTRACT: note_on channel=9 note=39 velocity=0 time=0.07291666666666666
EXTRACT: note_on channel=9 note=70 velocity=0 time=0.015625
EXTRACT: note_on channel=9 note=54 velocity=0 time=0.010416666666666666
EXTRACT: note_on channel=9 note=42 velocity=0 time=0.03645833333333333
EXTRACT: note_on channel=9 note=54 velocity=52 time=0.020833333333333332
EXTRACT: note_on channel=9 note=70 velocity=63 time=0
EXTRACT: note_on channel=7 note=71 velocity=93 time=0
EXTRACT: note_on channel=9 note=70 velocity=0 time=0.08854166666666666
EXTRACT: note_on channel=9 note=54 velocity=0 time=0.005208333333333333
EXTRACT: note_on channel=9 note=42 velocity=46 time=0.0625
EXTRACT: note_on channel=9 note=54 velocity=46 time=0
EXTRACT: note_on channel=9 note=70 velocity=80 time=0
EXTRACT: note_on channel=9 note=54 velocity=0 time=0.06770833333333333
EXTRACT: note_on channel=9 note=70 velocity=0 time=0.010416666666666666
EXTRACT: note_on channel=7 note=71 velocity=0 time=0.020833333333333332
EXTRACT: note_on channel=9 note=42 velocity=0 time=0.015625
EXTRACT: note_on channel=9 note=36 velocity=0 time=0.010416666666666666
EXTRACT: note_on channel=9 note=54 velocity=57 time=0.03125
EXTRACT: note_on channel=9 note=70 velocity=62 time=0
EXTRACT: note_on channel=9 note=54 velocity=0 time=0.046875
EXTRACT: note_on channel=9 note=70 velocity=0 time=0.046875
EXTRACT: note_on channel=9 note=36 velocity=78 time=0.0625
EXTRACT: note_on channel=9 note=42 velocity=80 time=0
EXTRACT: note_on channel=9 note=54 velocity=54 time=0
EXTRACT: note_on channel=9 note=70 velocity=88 time=0
EXTRACT: note_on channel=7 note=69 velocity=95 time=0
EXTRACT: note_on channel=9 note=54 velocity=0 time=0.09375
EXTRACT: note_on channel=9 note=70 velocity=0 time=0.005208333333333333
EXTRACT: note_on channel=7 note=69 velocity=0 time=0.010416666666666666
EXTRACT: note_on channel=9 note=42 velocity=0 time=0.020833333333333332
EXTRACT: note_on channel=9 note=54 velocity=38 time=0.026041666666666664
EXTRACT: note_on channel=9 note=70 velocity=66 time=0
EXTRACT: note_on channel=7 note=71 velocity=82 time=0
EXTRACT: note_on channel=9 note=70 velocity=0 time=0.07291666666666666
EXTRACT: note_on channel=9 note=54 velocity=0 time=0.005208333333333333
EXTRACT: note_on channel=7 note=71 velocity=0 time=0.005208333333333333
EXTRACT: note_on channel=9 note=42 velocity=50 time=0.07291666666666666
EXTRACT: note_on channel=9 note=54 velocity=44 time=0
EXTRACT: note_on channel=9 note=69 velocity=61 time=0
EXTRACT: note_on channel=9 note=70 velocity=61 time=0
EXTRACT: note_on channel=7 note=71 velocity=87 time=0
EXTRACT: note_on channel=9 note=54 velocity=0 time=0.06770833333333333
EXTRACT: note_on channel=9 note=70 velocity=0 time=0
EXTRACT: note_on channel=9 note=69 velocity=0 time=0.005208333333333333
EXTRACT: note_on channel=9 note=42 velocity=0 time=0.026041666666666664
EXTRACT: note_on channel=7 note=71 velocity=0 time=0
EXTRACT: note_on channel=9 note=36 velocity=0 time=0.020833333333333332
EXTRACT: note_on channel=9 note=54 velocity=36 time=0.03645833333333333
EXTRACT: note_on channel=9 note=69 velocity=48 time=0
EXTRACT: note_on channel=9 note=70 velocity=58 time=0
EXTRACT: note_on channel=7 note=69 velocity=86 time=0
EXTRACT: note_on channel=9 note=54 velocity=0 time=0.05208333333333333
EXTRACT: note_on channel=9 note=69 velocity=0 time=0.015625
EXTRACT: note_on channel=7 note=69 velocity=0 time=0.015625
EXTRACT: note_on channel=9 note=70 velocity=0 time=0.015625
EXTRACT: note_on channel=9 note=36 velocity=82 time=0.057291666666666664
EXTRACT: note_on channel=9 note=39 velocity=73 time=0
EXTRACT: note_on channel=9 note=42 velocity=84 time=0
EXTRACT: note_on channel=9 note=54 velocity=61 time=0
EXTRACT: note_on channel=9 note=69 velocity=65 time=0
EXTRACT: note_on channel=9 note=70 velocity=89 time=0
EXTRACT: note_on channel=7 note=71 velocity=88 time=0
EXTRACT: note_on channel=9 note=39 velocity=0 time=0.08333333333333333
EXTRACT: note_on channel=9 note=69 velocity=0 time=0
EXTRACT: note_on channel=9 note=70 velocity=0 time=0.010416666666666666
EXTRACT: note_on channel=9 note=54 velocity=0 time=0.005208333333333333
EXTRACT: note_on channel=7 note=71 velocity=0 time=0.005208333333333333
EXTRACT: note_on channel=9 note=42 velocity=0 time=0.046875
EXTRACT: note_on channel=9 note=54 velocity=52 time=0.005208333333333333
EXTRACT: note_on channel=9 note=70 velocity=71 time=0
EXTRACT: note_on channel=9 note=54 velocity=0 time=0.09375
EXTRACT: note_on channel=9 note=70 velocity=0 time=0.005208333333333333
EXTRACT: note_on channel=9 note=42 velocity=52 time=0.057291666666666664
EXTRACT: note_on channel=9 note=54 velocity=46 time=0
EXTRACT: note_on channel=9 note=70 velocity=71 time=0
EXTRACT: note_on channel=1 note=33 velocity=80 time=0
EXTRACT: note_on channel=5 note=52 velocity=59 time=0
EXTRACT: note_on channel=5 note=57 velocity=58 time=0
EXTRACT: note_on channel=5 note=59 velocity=67 time=0
EXTRACT: note_on channel=5 note=62 velocity=63 time=0
EXTRACT: note_on channel=7 note=78 velocity=94 time=0
EXTRACT: note_on channel=9 note=54 velocity=0 time=0.06770833333333333
EXTRACT: note_on channel=9 note=70 velocity=0 time=0.015625
EXTRACT: note_on channel=9 note=42 velocity=0 time=0.015625
EXTRACT: note_on channel=9 note=36 velocity=0 time=0.03645833333333333
EXTRACT: note_on channel=1 note=33 velocity=0 time=0.015625
EXTRACT: note_on channel=7 note=78 velocity=0 time=0.005208333333333333
EXTRACT: note_on channel=9 note=42 velocity=40 time=0
EXTRACT: note_on channel=9 note=54 velocity=57 time=0
EXTRACT: note_on channel=9 note=70 velocity=61 time=0
EXTRACT: note_on channel=1 note=34 velocity=71 time=0
EXTRACT: note_on channel=9 note=54 velocity=0 time=0.046875
EXTRACT: note_on channel=5 note=62 velocity=0 time=0.03645833333333333
EXTRACT: note_on channel=5 note=59 velocity=0 time=0.005208333333333333
EXTRACT: note_on channel=9 note=42 velocity=0 time=0.010416666666666666
EXTRACT: note_on channel=9 note=70 velocity=0 time=0
EXTRACT: note_on channel=5 note=57 velocity=0 time=0.020833333333333332
EXTRACT: note_on channel=5 note=52 velocity=0 time=0.005208333333333333
EXTRACT: note_on channel=1 note=34 velocity=0 time=0.026041666666666664
EXTRACT: note_on channel=9 note=36 velocity=83 time=0.005208333333333333
EXTRACT: note_on channel=9 note=42 velocity=77 time=0
EXTRACT: note_on channel=9 note=54 velocity=54 time=0
EXTRACT: note_on channel=9 note=70 velocity=90 time=0
EXTRACT: note_on channel=1 note=35 velocity=81 time=0
EXTRACT: note_on channel=9 note=54 velocity=0 time=0.09375
EXTRACT: note_on channel=9 note=70 velocity=0 time=0.005208333333333333
EXTRACT: note_on channel=9 note=54 velocity=38 time=0.057291666666666664
EXTRACT: note_on channel=9 note=70 velocity=70 time=0
EXTRACT: note_on channel=9 note=42 velocity=0 time=0.015625
EXTRACT: note_on channel=9 note=70 velocity=0 time=0.03125
EXTRACT: note_on channel=1 note=35 velocity=0 time=0.03125
EXTRACT: note_on channel=9 note=54 velocity=0 time=0
EXTRACT: note_on channel=9 note=42 velocity=54 time=0.078125
EXTRACT: note_on channel=9 note=54 velocity=44 time=0
EXTRACT: note_on channel=9 note=69 velocity=71 time=0
EXTRACT: note_on channel=9 note=70 velocity=71 time=0
EXTRACT: note_on channel=7 note=74 velocity=95 time=0
EXTRACT: note_on channel=9 note=54 velocity=0 time=0.06770833333333333
EXTRACT: note_on channel=9 note=69 velocity=0 time=0
EXTRACT: note_on channel=9 note=70 velocity=0 time=0.015625
EXTRACT: note_on channel=7 note=74 velocity=0 time=0
EXTRACT: note_on channel=9 note=36 velocity=0 time=0.020833333333333332
EXTRACT: note_on channel=9 note=42 velocity=0 time=0.005208333333333333
EXTRACT: note_on channel=9 note=54 velocity=36 time=0.046875
EXTRACT: note_on channel=9 note=70 velocity=56 time=0
EXTRACT: note_on channel=9 note=54 velocity=0 time=0.05208333333333333
EXTRACT: note_on channel=9 note=70 velocity=0 time=0.046875
EXTRACT: note_on channel=9 note=36 velocity=84 time=0.057291666666666664
EXTRACT: note_on channel=9 note=39 velocity=78 time=0
EXTRACT: note_on channel=9 note=42 velocity=79 time=0
EXTRACT: note_on channel=9 note=54 velocity=61 time=0
EXTRACT: note_on channel=9 note=70 velocity=87 time=0
EXTRACT: note_on channel=9 note=39 velocity=0 time=0.08333333333333333
EXTRACT: note_on channel=9 note=70 velocity=0 time=0.010416666666666666
EXTRACT: note_on channel=9 note=54 velocity=0 time=0.005208333333333333
EXTRACT: note_on channel=9 note=54 velocity=52 time=0.057291666666666664
EXTRACT: note_on channel=9 note=70 velocity=74 time=0
EXTRACT: note_on channel=7 note=71 velocity=93 time=0
EXTRACT: note_on channel=9 note=42 velocity=0 time=0.020833333333333332
EXTRACT: note_on channel=9 note=54 velocity=0 time=0.07291666666666666
EXTRACT: note_on channel=9 note=70 velocity=0 time=0.005208333333333333
EXTRACT: note_on channel=9 note=42 velocity=54 time=0.057291666666666664
EXTRACT: note_on channel=9 note=54 velocity=46 time=0
EXTRACT: note_on channel=9 note=69 velocity=64 time=0
EXTRACT: note_on channel=9 note=70 velocity=72 time=0
EXTRACT: note_on channel=9 note=69 velocity=0 time=0.0625
EXTRACT: note_on channel=9 note=54 velocity=0 time=0.005208333333333333
EXTRACT: note_on channel=9 note=70 velocity=0 time=0.015625
EXTRACT: note_on channel=7 note=71 velocity=0 time=0.015625
EXTRACT: note_on channel=9 note=36 velocity=0 time=0.010416666666666666
EXTRACT: note_on channel=9 note=42 velocity=0 time=0.005208333333333333
EXTRACT: note_on channel=9 note=54 velocity=57 time=0.041666666666666664
EXTRACT: note_on channel=9 note=70 velocity=66 time=0
EXTRACT: note_on channel=9 note=54 velocity=0 time=0.046875
EXTRACT: note_on channel=9 note=70 velocity=0 time=0.05208333333333333
EXTRACT: note_on channel=9 note=36 velocity=81 time=0.057291666666666664
EXTRACT: note_on channel=9 note=42 velocity=87 time=0
EXTRACT: note_on channel=9 note=54 velocity=54 time=0
EXTRACT: note_on channel=9 note=70 velocity=93 time=0
EXTRACT: note_on channel=7 note=69 velocity=95 time=0
EXTRACT: note_on channel=9 note=54 velocity=0 time=0.09375
EXTRACT: note_on channel=9 note=70 velocity=0 time=0.015625
EXTRACT: note_on channel=7 note=69 velocity=0 time=0
EXTRACT: note_on channel=9 note=42 velocity=0 time=0.041666666666666664
EXTRACT: note_on channel=9 note=54 velocity=38 time=0.005208333333333333
EXTRACT: note_on channel=9 note=70 velocity=59 time=0
EXTRACT: note_on channel=7 note=71 velocity=82 time=0
EXTRACT: note_on channel=9 note=54 velocity=0 time=0.078125
EXTRACT: note_on channel=7 note=71 velocity=0 time=0.005208333333333333
EXTRACT: note_on channel=9 note=70 velocity=0 time=0.010416666666666666
EXTRACT: note_on channel=9 note=42 velocity=46 time=0.0625
EXTRACT: note_on channel=9 note=54 velocity=44 time=0
EXTRACT: note_on channel=9 note=69 velocity=67 time=0
EXTRACT: note_on channel=9 note=70 velocity=78 time=0
EXTRACT: note_on channel=7 note=71 velocity=87 time=0
EXTRACT: note_on channel=9 note=54 velocity=0 time=0.06770833333333333
EXTRACT: note_on channel=9 note=69 velocity=0 time=0.020833333333333332
EXTRACT: note_on channel=9 note=70 velocity=0 time=0.005208333333333333
EXTRACT: note_on channel=7 note=71 velocity=0 time=0.005208333333333333
EXTRACT: note_on channel=9 note=36 velocity=0 time=0.005208333333333333
EXTRACT: note_on channel=9 note=42 velocity=0 time=0.020833333333333332
EXTRACT: note_on channel=9 note=54 velocity=36 time=0.03125
EXTRACT: note_on channel=9 note=69 velocity=55 time=0
EXTRACT: note_on channel=9 note=70 velocity=74 time=0
EXTRACT: note_on channel=7 note=69 velocity=86 time=0
EXTRACT: note_on channel=9 note=54 velocity=0 time=0.05208333333333333
EXTRACT: note_on channel=9 note=69 velocity=0 time=0.03125
EXTRACT: note_on channel=7 note=69 velocity=0 time=0
EXTRACT: note_on channel=9 note=70 velocity=0 time=0.005208333333333333
EXTRACT: note_on channel=9 note=36 velocity=82 time=0.06770833333333333
EXTRACT: note_on channel=9 note=39 velocity=77 time=0
EXTRACT: note_on channel=9 note=42 velocity=78 time=0
EXTRACT: note_on channel=9 note=54 velocity=61 time=0
EXTRACT: note_on channel=9 note=69 velocity=50 time=0
EXTRACT: note_on channel=9 note=70 velocity=87 time=0
EXTRACT: note_on channel=7 note=71 velocity=88 time=0
EXTRACT: note_on channel=9 note=39 velocity=0 time=0.08333333333333333
EXTRACT: note_on channel=9 note=69 velocity=0 time=0.005208333333333333
EXTRACT: note_on channel=9 note=54 velocity=0 time=0.010416666666666666
EXTRACT: note_on channel=9 note=70 velocity=0 time=0
EXTRACT: note_on channel=7 note=71 velocity=0 time=0.005208333333333333
EXTRACT: note_on channel=9 note=42 velocity=0 time=0.046875
EXTRACT: note_on channel=9 note=54 velocity=52 time=0.005208333333333333
EXTRACT: note_on channel=9 note=70 velocity=74 time=0
EXTRACT: note_on channel=9 note=54 velocity=0 time=0.09375
EXTRACT: note_on channel=9 note=70 velocity=0 time=0
EXTRACT: note_on channel=9 note=46 velocity=49 time=0.0625
EXTRACT: note_on channel=9 note=54 velocity=46 time=0
EXTRACT: note_on channel=9 note=70 velocity=58 time=0
EXTRACT: note_on channel=1 note=33 velocity=74 time=0
EXTRACT: note_on channel=7 note=78 velocity=94 time=0
EXTRACT: note_on channel=9 note=54 velocity=0 time=0.06770833333333333
EXTRACT: note_on channel=9 note=46 velocity=0 time=0.026041666666666664
EXTRACT: note_on channel=9 note=70 velocity=0 time=0.005208333333333333
EXTRACT: note_on channel=1 note=33 velocity=0 time=0.05208333333333333
EXTRACT: note_on channel=7 note=78 velocity=0 time=0.005208333333333333
EXTRACT: note_on channel=9 note=54 velocity=57 time=0
EXTRACT: note_on channel=9 note=70 velocity=61 time=0
EXTRACT: note_on channel=1 note=34 velocity=68 time=0
EXTRACT: note_on channel=9 note=36 velocity=0 time=0.020833333333333332
EXTRACT: note_on channel=9 note=54 velocity=0 time=0.026041666666666664
EXTRACT: note_on channel=9 note=70 velocity=0 time=0.041666666666666664
EXTRACT: note_on channel=1 note=34 velocity=0 time=0.0625
EXTRACT: note_on channel=9 note=36 velocity=77 time=0.005208333333333333
EXTRACT: note_on channel=9 note=42 velocity=88 time=0
EXTRACT: note_on channel=9 note=54 velocity=54 time=0
EXTRACT: note_on channel=9 note=70 velocity=87 time=0
EXTRACT: note_on channel=1 note=35 velocity=76 time=0
EXTRACT: note_on channel=5 note=57 velocity=63 time=0
EXTRACT: note_on channel=5 note=59 velocity=67 time=0
EXTRACT: note_on channel=5 note=62 velocity=66 time=0
EXTRACT: note_on channel=9 note=70 velocity=0 time=0.08333333333333333
EXTRACT: note_on channel=9 note=54 velocity=0 time=0.010416666666666666
EXTRACT: note_on channel=9 note=42 velocity=0 time=0.010416666666666666
EXTRACT: note_on channel=9 note=54 velocity=38 time=0.05208333333333333
EXTRACT: note_on channel=9 note=70 velocity=63 time=0
EXTRACT: note_on channel=5 note=59 velocity=0 time=0.046875
EXTRACT: note_on channel=5 note=62 velocity=0 time=0
EXTRACT: note_on channel=9 note=54 velocity=0 time=0.03125
EXTRACT: note_on channel=5 note=57 velocity=0 time=0.020833333333333332
EXTRACT: note_on channel=9 note=70 velocity=0 time=0.005208333333333333
EXTRACT: note_on channel=1 note=35 velocity=0 time=0.010416666666666666
EXTRACT: note_on channel=9 note=42 velocity=46 time=0.041666666666666664
EXTRACT: note_on channel=9 note=54 velocity=44 time=0
EXTRACT: note_on channel=9 note=69 velocity=68 time=0
EXTRACT: note_on channel=9 note=70 velocity=46 time=0
EXTRACT: note_on channel=7 note=74 velocity=95 time=0
EXTRACT: note_on channel=9 note=70 velocity=0 time=0.046875
EXTRACT: note_on channel=9 note=69 velocity=0 time=0.010416666666666666
EXTRACT: note_on channel=9 note=54 velocity=0 time=0.010416666666666666
EXTRACT: note_on channel=9 note=42 velocity=0 time=0.015625
EXTRACT: note_on channel=7 note=74 velocity=0 time=0
EXTRACT: note_on channel=9 note=36 velocity=0 time=0.041666666666666664
EXTRACT: note_on channel=9 note=54 velocity=36 time=0.03125
EXTRACT: note_on channel=9 note=70 velocity=61 time=0
EXTRACT: note_on channel=9 note=54 velocity=0 time=0.05208333333333333
EXTRACT: note_on channel=9 note=70 velocity=0 time=0.041666666666666664
EXTRACT: note_on channel=9 note=36 velocity=81 time=0.0625
EXTRACT: note_on channel=9 note=39 velocity=74 time=0
EXTRACT: note_on channel=9 note=42 velocity=91 time=0
EXTRACT: note_on channel=9 note=54 velocity=61 time=0
EXTRACT: note_on channel=9 note=70 velocity=91 time=0
EXTRACT: note_on channel=9 note=39 velocity=0 time=0.06770833333333333
EXTRACT: note_on channel=9 note=70 velocity=0 time=0.020833333333333332
EXTRACT: note_on channel=9 note=54 velocity=0 time=0.010416666666666666
EXTRACT: note_on channel=9 note=42 velocity=0 time=0.03645833333333333
EXTRACT: note_on channel=9 note=54 velocity=52 time=0.020833333333333332
EXTRACT: note_on channel=9 note=70 velocity=63 time=0
EXTRACT: note_on channel=7 note=71 velocity=93 time=0
EXTRACT: note_on channel=9 note=70 velocity=0 time=0.08854166666666666
EXTRACT: note_on channel=9 note=54 velocity=0 time=0.005208333333333333
EXTRACT: note_on channel=9 note=42 velocity=46 time=0.0625
EXTRACT: note_on channel=9 note=54 velocity=46 time=0
EXTRACT: note_on channel=9 note=70 velocity=80 time=0
EXTRACT: note_on channel=9 note=54 velocity=0 time=0.06770833333333333
EXTRACT: note_on channel=9 note=70 velocity=0 time=0.010416666666666666
EXTRACT: note_on channel=7 note=71 velocity=0 time=0.020833333333333332
EXTRACT: note_on channel=9 note=42 velocity=0 time=0.015625
EXTRACT: note_on channel=9 note=36 velocity=0 time=0.010416666666666666
EXTRACT: note_on channel=9 note=54 velocity=57 time=0.03125
EXTRACT: note_on channel=9 note=70 velocity=62 time=0
EXTRACT: note_on channel=9 note=54 velocity=0 time=0.046875
EXTRACT: note_on channel=9 note=70 velocity=0 time=0.046875
EXTRACT: note_on channel=9 note=36 velocity=78 time=0.0625
EXTRACT: note_on channel=9 note=42 velocity=80 time=0
EXTRACT: note_on channel=9 note=54 velocity=54 time=0
EXTRACT: note_on channel=9 note=70 velocity=88 time=0
EXTRACT: note_on channel=7 note=69 velocity=95 time=0
EXTRACT: note_on channel=9 note=54 velocity=0 time=0.09375
EXTRACT: note_on channel=9 note=70 velocity=0 time=0.005208333333333333
EXTRACT: note_on channel=7 note=69 velocity=0 time=0.010416666666666666
EXTRACT: note_on channel=9 note=42 velocity=0 time=0.020833333333333332
EXTRACT: note_on channel=9 note=54 velocity=38 time=0.026041666666666664
EXTRACT: note_on channel=9 note=70 velocity=66 time=0
EXTRACT: note_on channel=7 note=71 velocity=82 time=0
EXTRACT: note_on channel=9 note=70 velocity=0 time=0.07291666666666666
EXTRACT: note_on channel=9 note=54 velocity=0 time=0.005208333333333333
EXTRACT: note_on channel=7 note=71 velocity=0 time=0.005208333333333333
EXTRACT: note_on channel=9 note=42 velocity=50 time=0.07291666666666666
EXTRACT: note_on channel=9 note=54 velocity=44 time=0
EXTRACT: note_on channel=9 note=69 velocity=61 time=0
EXTRACT: note_on channel=9 note=70 velocity=61 time=0
EXTRACT: note_on channel=7 note=71 velocity=87 time=0
EXTRACT: note_on channel=9 note=54 velocity=0 time=0.06770833333333333
EXTRACT: note_on channel=9 note=70 velocity=0 time=0
EXTRACT: note_on channel=9 note=69 velocity=0 time=0.005208333333333333
EXTRACT: note_on channel=9 note=42 velocity=0 time=0.026041666666666664
EXTRACT: note_on channel=7 note=71 velocity=0 time=0
EXTRACT: note_on channel=9 note=36 velocity=0 time=0.020833333333333332
EXTRACT: note_on channel=9 note=54 velocity=36 time=0.03645833333333333
EXTRACT: note_on channel=9 note=69 velocity=48 time=0
EXTRACT: note_on channel=9 note=70 velocity=58 time=0
EXTRACT: note_on channel=7 note=69 velocity=86 time=0
EXTRACT: note_on channel=9 note=54 velocity=0 time=0.05208333333333333
EXTRACT: note_on channel=9 note=69 velocity=0 time=0.015625
EXTRACT: note_on channel=7 note=69 velocity=0 time=0.015625
EXTRACT: note_on channel=9 note=70 velocity=0 time=0.015625
EXTRACT: note_on channel=9 note=36 velocity=82 time=0.057291666666666664
EXTRACT: note_on channel=9 note=39 velocity=77 time=0
EXTRACT: note_on channel=9 note=42 velocity=84 time=0
EXTRACT: note_on channel=9 note=54 velocity=61 time=0
EXTRACT: note_on channel=9 note=69 velocity=52 time=0
EXTRACT: note_on channel=9 note=70 velocity=89 time=0
EXTRACT: note_on channel=7 note=71 velocity=88 time=0
EXTRACT: note_on channel=9 note=39 velocity=0 time=0.078125
EXTRACT: note_on channel=9 note=69 velocity=0 time=0.005208333333333333
EXTRACT: note_on channel=9 note=70 velocity=0 time=0.010416666666666666
EXTRACT: note_on channel=9 note=54 velocity=0 time=0.005208333333333333
EXTRACT: note_on channel=7 note=71 velocity=0 time=0.005208333333333333
EXTRACT: note_on channel=9 note=42 velocity=0 time=0.046875
EXTRACT: note_on channel=9 note=54 velocity=52 time=0.005208333333333333
EXTRACT: note_on channel=9 note=70 velocity=71 time=0
EXTRACT: note_on channel=9 note=54 velocity=0 time=0.09375
EXTRACT: note_on channel=9 note=70 velocity=0 time=0.005208333333333333
EXTRACT: note_on channel=9 note=42 velocity=52 time=0.057291666666666664
EXTRACT: note_on channel=9 note=54 velocity=46 time=0
EXTRACT: note_on channel=9 note=70 velocity=71 time=0
EXTRACT: note_on channel=1 note=33 velocity=78 time=0
EXTRACT: note_on channel=5 note=52 velocity=59 time=0
EXTRACT: note_on channel=5 note=57 velocity=58 time=0
EXTRACT: note_on channel=5 note=59 velocity=67 time=0
EXTRACT: note_on channel=5 note=62 velocity=63 time=0
EXTRACT: note_on channel=7 note=78 velocity=94 time=0
EXTRACT: note_on channel=9 note=54 velocity=0 time=0.06770833333333333
EXTRACT: note_on channel=9 note=70 velocity=0 time=0.015625
EXTRACT: note_on channel=9 note=42 velocity=0 time=0.015625
EXTRACT: note_on channel=9 note=36 velocity=0 time=0.03645833333333333
EXTRACT: note_on channel=1 note=33 velocity=0 time=0.015625
EXTRACT: note_on channel=7 note=78 velocity=0 time=0.005208333333333333
EXTRACT: note_on channel=9 note=42 velocity=40 time=0
EXTRACT: note_on channel=9 note=54 velocity=57 time=0
EXTRACT: note_on channel=9 note=70 velocity=61 time=0
EXTRACT: note_on channel=1 note=34 velocity=70 time=0
EXTRACT: note_on channel=9 note=54 velocity=0 time=0.046875
EXTRACT: note_on channel=5 note=62 velocity=0 time=0.03645833333333333
EXTRACT: note_on channel=5 note=59 velocity=0 time=0.005208333333333333
EXTRACT: note_on channel=9 note=42 velocity=0 time=0.010416666666666666
EXTRACT: note_on channel=9 note=70 velocity=0 time=0
EXTRACT: note_on channel=5 note=57 velocity=0 time=0.020833333333333332
EXTRACT: note_on channel=5 note=52 velocity=0 time=0.005208333333333333
EXTRACT: note_on channel=1 note=34 velocity=0 time=0.026041666666666664
EXTRACT: note_on channel=9 note=36 velocity=83 time=0.005208333333333333
EXTRACT: note_on channel=9 note=42 velocity=77 time=0
EXTRACT: note_on channel=9 note=54 velocity=54 time=0
EXTRACT: note_on channel=9 note=70 velocity=90 time=0
EXTRACT: note_on channel=1 note=35 velocity=83 time=0
EXTRACT: note_on channel=9 note=54 velocity=0 time=0.09375
EXTRACT: note_on channel=9 note=70 velocity=0 time=0.005208333333333333
EXTRACT: note_on channel=9 note=54 velocity=38 time=0.057291666666666664
EXTRACT: note_on channel=9 note=70 velocity=70 time=0
EXTRACT: note_on channel=9 note=42 velocity=0 time=0.015625
EXTRACT: note_on channel=9 note=70 velocity=0 time=0.03125
EXTRACT: note_on channel=9 note=54 velocity=0 time=0.03125
EXTRACT: note_on channel=9 note=42 velocity=54 time=0.078125
EXTRACT: note_on channel=9 note=54 velocity=44 time=0
EXTRACT: note_on channel=9 note=69 velocity=71 time=0
EXTRACT: note_on channel=9 note=70 velocity=71 time=0
EXTRACT: note_on channel=7 note=74 velocity=95 time=0
EXTRACT: note_on channel=1 note=35 velocity=0 time=0.020833333333333332
EXTRACT: note_on channel=9 note=54 velocity=0 time=0.046875
EXTRACT: note_on channel=9 note=69 velocity=0 time=0
EXTRACT: note_on channel=9 note=70 velocity=0 time=0.015625
EXTRACT: note_on channel=7 note=74 velocity=0 time=0
EXTRACT: note_on channel=9 note=36 velocity=0 time=0.020833333333333332
EXTRACT: note_on channel=9 note=42 velocity=0 time=0.005208333333333333
EXTRACT: note_on channel=9 note=54 velocity=36 time=0.046875
EXTRACT: note_on channel=9 note=70 velocity=56 time=0
EXTRACT: note_on channel=9 note=54 velocity=0 time=0.05208333333333333
EXTRACT: note_on channel=9 note=70 velocity=0 time=0.046875
EXTRACT: note_on channel=9 note=36 velocity=84 time=0.057291666666666664
EXTRACT: note_on channel=9 note=39 velocity=74 time=0
EXTRACT: note_on channel=9 note=42 velocity=79 time=0
EXTRACT: note_on channel=9 note=54 velocity=61 time=0
EXTRACT: note_on channel=9 note=70 velocity=87 time=0
EXTRACT: note_on channel=9 note=39 velocity=0 time=0.07291666666666666
EXTRACT: note_on channel=9 note=70 velocity=0 time=0.020833333333333332
EXTRACT: note_on channel=9 note=54 velocity=0 time=0.005208333333333333
EXTRACT: note_on channel=9 note=54 velocity=52 time=0.057291666666666664
EXTRACT: note_on channel=9 note=70 velocity=74 time=0
EXTRACT: note_on channel=7 note=71 velocity=93 time=0
EXTRACT: note_on channel=9 note=42 velocity=0 time=0.020833333333333332
EXTRACT: note_on channel=9 note=54 velocity=0 time=0.07291666666666666
EXTRACT: note_on channel=9 note=70 velocity=0 time=0.005208333333333333
EXTRACT: note_on channel=9 note=42 velocity=54 time=0.057291666666666664
EXTRACT: note_on channel=9 note=54 velocity=46 time=0
EXTRACT: note_on channel=9 note=69 velocity=64 time=0
EXTRACT: note_on channel=9 note=70 velocity=72 time=0
EXTRACT: note_on channel=9 note=69 velocity=0 time=0.0625
EXTRACT: note_on channel=9 note=54 velocity=0 time=0.005208333333333333
EXTRACT: note_on channel=9 note=70 velocity=0 time=0.015625
EXTRACT: note_on channel=7 note=71 velocity=0 time=0.015625
EXTRACT: note_on channel=9 note=36 velocity=0 time=0.010416666666666666
EXTRACT: note_on channel=9 note=42 velocity=0 time=0.005208333333333333
EXTRACT: note_on channel=9 note=54 velocity=57 time=0.041666666666666664
EXTRACT: note_on channel=9 note=70 velocity=66 time=0
EXTRACT: note_on channel=9 note=54 velocity=0 time=0.046875
EXTRACT: note_on channel=9 note=70 velocity=0 time=0.05208333333333333
EXTRACT: note_on channel=9 note=36 velocity=81 time=0.057291666666666664
EXTRACT: note_on channel=9 note=42 velocity=87 time=0
EXTRACT: note_on channel=9 note=54 velocity=54 time=0
EXTRACT: note_on channel=9 note=70 velocity=93 time=0
EXTRACT: note_on channel=7 note=69 velocity=95 time=0
EXTRACT: note_on channel=9 note=54 velocity=0 time=0.09375
EXTRACT: note_on channel=9 note=70 velocity=0 time=0.015625
EXTRACT: note_on channel=7 note=69 velocity=0 time=0
EXTRACT: note_on channel=9 note=42 velocity=0 time=0.041666666666666664
EXTRACT: note_on channel=9 note=54 velocity=38 time=0.005208333333333333
EXTRACT: note_on channel=9 note=70 velocity=59 time=0
EXTRACT: note_on channel=7 note=71 velocity=82 time=0
EXTRACT: note_on channel=9 note=54 velocity=0 time=0.078125
EXTRACT: note_on channel=7 note=71 velocity=0 time=0.005208333333333333
EXTRACT: note_on channel=9 note=70 velocity=0 time=0.010416666666666666
EXTRACT: note_on channel=9 note=42 velocity=46 time=0.0625
EXTRACT: note_on channel=9 note=54 velocity=44 time=0
EXTRACT: note_on channel=9 note=69 velocity=60 time=0
EXTRACT: note_on channel=9 note=70 velocity=78 time=0
EXTRACT: note_on channel=7 note=71 velocity=87 time=0
EXTRACT: note_on channel=9 note=54 velocity=0 time=0.06770833333333333
EXTRACT: note_on channel=9 note=69 velocity=0 time=0.020833333333333332
EXTRACT: note_on channel=9 note=70 velocity=0 time=0.005208333333333333
EXTRACT: note_on channel=7 note=71 velocity=0 time=0.005208333333333333
EXTRACT: note_on channel=9 note=36 velocity=0 time=0.005208333333333333
EXTRACT: note_on channel=9 note=42 velocity=0 time=0.020833333333333332
EXTRACT: note_on channel=9 note=54 velocity=36 time=0.03125
EXTRACT: note_on channel=9 note=69 velocity=55 time=0
EXTRACT: note_on channel=9 note=70 velocity=74 time=0
EXTRACT: note_on channel=7 note=69 velocity=86 time=0
EXTRACT: note_on channel=9 note=54 velocity=0 time=0.05208333333333333
EXTRACT: note_on channel=9 note=69 velocity=0 time=0.03125
EXTRACT: note_on channel=7 note=69 velocity=0 time=0
EXTRACT: note_on channel=9 note=70 velocity=0 time=0.005208333333333333
EXTRACT: note_on channel=9 note=36 velocity=82 time=0.06770833333333333
EXTRACT: note_on channel=9 note=39 velocity=77 time=0
EXTRACT: note_on channel=9 note=42 velocity=78 time=0
EXTRACT: note_on channel=9 note=54 velocity=61 time=0
EXTRACT: note_on channel=9 note=69 velocity=50 time=0
EXTRACT: note_on channel=9 note=70 velocity=87 time=0
EXTRACT: note_on channel=7 note=71 velocity=91 time=0
EXTRACT: note_on channel=9 note=39 velocity=0 time=0.07291666666666666
EXTRACT: note_on channel=9 note=69 velocity=0 time=0.015625
EXTRACT: note_on channel=9 note=54 velocity=0 time=0.010416666666666666
EXTRACT: note_on channel=9 note=70 velocity=0 time=0
EXTRACT: note_on channel=7 note=71 velocity=0 time=0.046875
EXTRACT: note_on channel=9 note=42 velocity=0 time=0.005208333333333333
EXTRACT: note_on channel=9 note=54 velocity=52 time=0.005208333333333333
EXTRACT: note_on channel=9 note=70 velocity=74 time=0
EXTRACT: note_on channel=7 note=71 velocity=88 time=0
EXTRACT: note_on channel=9 note=54 velocity=0 time=0.09375
EXTRACT: note_on channel=9 note=70 velocity=0 time=0
EXTRACT: note_on channel=7 note=71 velocity=0 time=0.010416666666666666
EXTRACT: note_on channel=9 note=46 velocity=49 time=0.05208333333333333
EXTRACT: note_on channel=9 note=54 velocity=46 time=0
EXTRACT: note_on channel=9 note=70 velocity=58 time=0
EXTRACT: note_on channel=1 note=33 velocity=81 time=0
EXTRACT: note_on channel=7 note=74 velocity=94 time=0
EXTRACT: note_on channel=9 note=54 velocity=0 time=0.06770833333333333
EXTRACT: note_on channel=9 note=46 velocity=0 time=0.026041666666666664
EXTRACT: note_on channel=9 note=70 velocity=0 time=0.005208333333333333
EXTRACT: note_on channel=1 note=33 velocity=0 time=0.05208333333333333
EXTRACT: note_on channel=9 note=54 velocity=57 time=0.005208333333333333
EXTRACT: note_on channel=9 note=70 velocity=61 time=0
EXTRACT: note_on channel=1 note=34 velocity=74 time=0
EXTRACT: note_on channel=7 note=74 velocity=0 time=0.005208333333333333
EXTRACT: note_on channel=9 note=36 velocity=0 time=0.015625
EXTRACT: note_on channel=9 note=54 velocity=0 time=0.026041666666666664
EXTRACT: note_on channel=9 note=70 velocity=0 time=0.041666666666666664
EXTRACT: note_on channel=1 note=34 velocity=0 time=0.03125
EXTRACT: note_on channel=9 note=36 velocity=93 time=0.03645833333333333
EXTRACT: note_on channel=9 note=42 velocity=104 time=0
EXTRACT: note_on channel=1 note=35 velocity=86 time=0
EXTRACT: note_on channel=7 note=76 velocity=92 time=0
EXTRACT: note_on channel=9 note=42 velocity=0 time=0.08333333333333333
EXTRACT: note_on channel=7 note=76 velocity=0 time=0.03125
EXTRACT: note_on channel=9 note=36 velocity=0 time=0.14583333333333331
EXTRACT: note_on channel=9 note=76 velocity=67 time=0.05208333333333333
EXTRACT: note_on channel=7 note=74 velocity=86 time=0
EXTRACT: note_on channel=1 note=35 velocity=0 time=0.015625
EXTRACT: note_on channel=9 note=76 velocity=0 time=0.015625
EXTRACT: note_on channel=9 note=39 velocity=79 time=0.28125
EXTRACT: note_on channel=9 note=40 velocity=83 time=0
EXTRACT: note_on channel=9 note=42 velocity=105 time=0
EXTRACT: note_on channel=9 note=40 velocity=0 time=0.078125
EXTRACT: note_on channel=9 note=39 velocity=0 time=0.010416666666666666
EXTRACT: note_on channel=9 note=42 velocity=0 time=0.005208333333333333
EXTRACT: note_on channel=7 note=71 velocity=82 time=0.0625
EXTRACT: note_on channel=7 note=74 velocity=0 time=0.041666666666666664
EXTRACT: note_on channel=7 note=71 velocity=0 time=0.041666666666666664
EXTRACT: note_on channel=9 note=76 velocity=70 time=0.07291666666666666
EXTRACT: note_on channel=7 note=74 velocity=87 time=0
EXTRACT: note_on channel=9 note=76 velocity=0 time=0.03645833333333333
EXTRACT: note_on channel=7 note=74 velocity=0 time=0.0625
EXTRACT: note_on channel=9 note=36 velocity=94 time=0.057291666666666664
EXTRACT: note_on channel=9 note=42 velocity=91 time=0
EXTRACT: note_on channel=9 note=42 velocity=0 time=0.07291666666666666
EXTRACT: note_on channel=9 note=36 velocity=0 time=0.020833333333333332
EXTRACT: note_on channel=9 note=42 velocity=84 time=0.0625
EXTRACT: note_on channel=7 note=76 velocity=86 time=0
EXTRACT: note_on channel=9 note=42 velocity=0 time=0.09375
EXTRACT: note_on channel=7 note=76 velocity=0 time=0.005208333333333333
EXTRACT: note_on channel=9 note=42 velocity=83 time=0.057291666666666664
EXTRACT: note_on channel=9 note=42 velocity=0 time=0.08854166666666666
EXTRACT: note_on channel=9 note=36 velocity=102 time=0.06770833333333333
EXTRACT: note_on channel=9 note=76 velocity=61 time=0
EXTRACT: note_on channel=7 note=74 velocity=83 time=0
EXTRACT: note_on channel=9 note=76 velocity=0 time=0.041666666666666664
EXTRACT: note_on channel=9 note=36 velocity=0 time=0.05208333333333333
EXTRACT: note_on channel=9 note=39 velocity=83 time=0.21875
EXTRACT: note_on channel=9 note=40 velocity=81 time=0
EXTRACT: note_on channel=9 note=42 velocity=88 time=0
EXTRACT: note_on channel=9 note=40 velocity=0 time=0.06770833333333333
EXTRACT: note_on channel=9 note=39 velocity=0 time=0.026041666666666664
EXTRACT: note_on channel=9 note=42 velocity=0 time=0
EXTRACT: note_on channel=7 note=71 velocity=77 time=0.0625
EXTRACT: note_on channel=7 note=74 velocity=0 time=0.020833333333333332
EXTRACT: note_on channel=7 note=71 velocity=0 time=0.078125
EXTRACT: note_on channel=9 note=36 velocity=91 time=0.057291666666666664
EXTRACT: note_on channel=9 note=46 velocity=76 time=0
EXTRACT: note_on channel=7 note=74 velocity=87 time=0
EXTRACT: note_on channel=11 note=62 velocity=82 time=0
EXTRACT: note_on channel=9 note=36 velocity=0 time=0.06770833333333333
EXTRACT: note_on channel=7 note=74 velocity=0 time=0
EXTRACT: note_on channel=9 note=46 velocity=0 time=0.005208333333333333
EXTRACT: note_on channel=11 note=62 velocity=0 time=0.20833333333333331
EXTRACT: note_on channel=9 note=36 velocity=93 time=0.03125
EXTRACT: note_on channel=9 note=42 velocity=104 time=0
EXTRACT: note_on channel=7 note=76 velocity=92 time=0
EXTRACT: note_on channel=9 note=42 velocity=0 time=0.08333333333333333
EXTRACT: note_on channel=7 note=76 velocity=0 time=0.03125
EXTRACT: note_on channel=9 note=36 velocity=0 time=0.14583333333333331
EXTRACT: note_on channel=9 note=76 velocity=67 time=0.05208333333333333
EXTRACT: note_on channel=7 note=74 velocity=86 time=0
EXTRACT: note_on channel=9 note=76 velocity=0 time=0.03125
EXTRACT: note_on channel=9 note=39 velocity=79 time=0.28125
EXTRACT: note_on channel=9 note=40 velocity=83 time=0
EXTRACT: note_on channel=9 note=42 velocity=105 time=0
EXTRACT: note_on channel=9 note=40 velocity=0 time=0.078125
EXTRACT: note_on channel=9 note=39 velocity=0 time=0.010416666666666666
EXTRACT: note_on channel=9 note=42 velocity=0 time=0.005208333333333333
EXTRACT: note_on channel=7 note=71 velocity=82 time=0.0625
EXTRACT: note_on channel=7 note=74 velocity=0 time=0.041666666666666664
EXTRACT: note_on channel=7 note=71 velocity=0 time=0.041666666666666664
EXTRACT: note_on channel=9 note=76 velocity=70 time=0.07291666666666666
EXTRACT: note_on channel=7 note=74 velocity=87 time=0
EXTRACT: note_on channel=9 note=76 velocity=0 time=0.03645833333333333
EXTRACT: note_on channel=7 note=74 velocity=0 time=0.0625
EXTRACT: note_on channel=9 note=36 velocity=94 time=0.057291666666666664
EXTRACT: note_on channel=9 note=42 velocity=91 time=0
EXTRACT: note_on channel=9 note=42 velocity=0 time=0.07291666666666666
EXTRACT: note_on channel=9 note=36 velocity=0 time=0.020833333333333332
EXTRACT: note_on channel=9 note=42 velocity=84 time=0.0625
EXTRACT: note_on channel=7 note=76 velocity=86 time=0
EXTRACT: note_on channel=9 note=42 velocity=0 time=0.09375
EXTRACT: note_on channel=7 note=76 velocity=0 time=0.005208333333333333
EXTRACT: note_on channel=9 note=42 velocity=83 time=0.057291666666666664
EXTRACT: note_on channel=9 note=42 velocity=0 time=0.08854166666666666
EXTRACT: note_on channel=9 note=36 velocity=102 time=0.06770833333333333
EXTRACT: note_on channel=9 note=76 velocity=61 time=0
EXTRACT: note_on channel=7 note=74 velocity=83 time=0
EXTRACT: note_on channel=9 note=76 velocity=0 time=0.041666666666666664
EXTRACT: note_on channel=9 note=36 velocity=0 time=0.05208333333333333
EXTRACT: note_on channel=9 note=39 velocity=83 time=0.21875
EXTRACT: note_on channel=9 note=40 velocity=81 time=0
EXTRACT: note_on channel=9 note=42 velocity=88 time=0
EXTRACT: note_on channel=9 note=40 velocity=0 time=0.06770833333333333
EXTRACT: note_on channel=9 note=39 velocity=0 time=0.026041666666666664
EXTRACT: note_on channel=9 note=42 velocity=0 time=0
EXTRACT: note_on channel=7 note=71 velocity=77 time=0.0625
EXTRACT: note_on channel=7 note=74 velocity=0 time=0.020833333333333332
EXTRACT: note_on channel=7 note=71 velocity=0 time=0.078125
EXTRACT: note_on channel=9 note=36 velocity=91 time=0.057291666666666664
EXTRACT: note_on channel=9 note=46 velocity=76 time=0
EXTRACT: note_on channel=7 note=74 velocity=87 time=0
EXTRACT: note_on channel=11 note=62 velocity=82 time=0
EXTRACT: note_on channel=9 note=36 velocity=0 time=0.06770833333333333
EXTRACT: note_on channel=7 note=74 velocity=0 time=0
EXTRACT: note_on channel=9 note=46 velocity=0 time=0.005208333333333333
EXTRACT: note_on channel=11 note=62 velocity=0 time=0.20833333333333331
EXTRACT: note_on channel=9 note=36 velocity=93 time=0.03125
EXTRACT: note_on channel=9 note=42 velocity=104 time=0
EXTRACT: note_on channel=7 note=76 velocity=92 time=0
EXTRACT: note_on channel=9 note=42 velocity=0 time=0.08333333333333333
EXTRACT: note_on channel=7 note=76 velocity=0 time=0.03125
EXTRACT: note_on channel=9 note=36 velocity=0 time=0.14583333333333331
EXTRACT: note_on channel=9 note=76 velocity=67 time=0.05208333333333333
EXTRACT: note_on channel=7 note=74 velocity=86 time=0
EXTRACT: note_on channel=9 note=76 velocity=0 time=0.03125
EXTRACT: note_on channel=9 note=39 velocity=79 time=0.28125
EXTRACT: note_on channel=9 note=40 velocity=83 time=0
EXTRACT: note_on channel=9 note=42 velocity=105 time=0
EXTRACT: note_on channel=9 note=40 velocity=0 time=0.078125
EXTRACT: note_on channel=9 note=39 velocity=0 time=0.010416666666666666
EXTRACT: note_on channel=9 note=42 velocity=0 time=0.005208333333333333
EXTRACT: note_on channel=7 note=71 velocity=82 time=0.0625
EXTRACT: note_on channel=7 note=74 velocity=0 time=0.041666666666666664
EXTRACT: note_on channel=7 note=71 velocity=0 time=0.041666666666666664
EXTRACT: note_on channel=9 note=76 velocity=70 time=0.07291666666666666
EXTRACT: note_on channel=7 note=74 velocity=87 time=0
EXTRACT: note_on channel=9 note=76 velocity=0 time=0.03645833333333333
EXTRACT: note_on channel=7 note=74 velocity=0 time=0.0625
EXTRACT: note_on channel=9 note=36 velocity=94 time=0.057291666666666664
EXTRACT: note_on channel=9 note=42 velocity=91 time=0
EXTRACT: note_on channel=9 note=42 velocity=0 time=0.07291666666666666
EXTRACT: note_on channel=9 note=36 velocity=0 time=0.020833333333333332
EXTRACT: note_on channel=9 note=42 velocity=84 time=0.0625
EXTRACT: note_on channel=7 note=76 velocity=86 time=0
EXTRACT: note_on channel=9 note=42 velocity=0 time=0.09375
EXTRACT: note_on channel=7 note=76 velocity=0 time=0.005208333333333333
EXTRACT: note_on channel=9 note=42 velocity=83 time=0.057291666666666664
EXTRACT: note_on channel=9 note=42 velocity=0 time=0.08854166666666666
EXTRACT: note_on channel=9 note=36 velocity=102 time=0.06770833333333333
EXTRACT: note_on channel=9 note=76 velocity=61 time=0
EXTRACT: note_on channel=7 note=74 velocity=83 time=0
EXTRACT: note_on channel=9 note=76 velocity=0 time=0.041666666666666664
EXTRACT: note_on channel=9 note=36 velocity=0 time=0.05208333333333333
EXTRACT: note_on channel=9 note=39 velocity=83 time=0.21875
EXTRACT: note_on channel=9 note=40 velocity=81 time=0
EXTRACT: note_on channel=9 note=42 velocity=88 time=0
EXTRACT: note_on channel=9 note=40 velocity=0 time=0.06770833333333333
EXTRACT: note_on channel=9 note=39 velocity=0 time=0.026041666666666664
EXTRACT: note_on channel=9 note=42 velocity=0 time=0
EXTRACT: note_on channel=7 note=71 velocity=77 time=0.0625
EXTRACT: note_on channel=7 note=74 velocity=0 time=0.020833333333333332
EXTRACT: note_on channel=7 note=71 velocity=0 time=0.078125
EXTRACT: note_on channel=9 note=36 velocity=91 time=0.057291666666666664
EXTRACT: note_on channel=9 note=46 velocity=76 time=0
EXTRACT: note_on channel=7 note=74 velocity=87 time=0
EXTRACT: note_on channel=11 note=62 velocity=82 time=0
EXTRACT: note_on channel=9 note=36 velocity=0 time=0.06770833333333333
EXTRACT: note_on channel=7 note=74 velocity=0 time=0
EXTRACT: note_on channel=9 note=46 velocity=0 time=0.005208333333333333
EXTRACT: note_on channel=11 note=62 velocity=0 time=0.20833333333333331
EXTRACT: note_on channel=9 note=36 velocity=93 time=0.03125
EXTRACT: note_on channel=9 note=42 velocity=104 time=0
EXTRACT: note_on channel=7 note=76 velocity=92 time=0
EXTRACT: note_on channel=9 note=42 velocity=0 time=0.08333333333333333
EXTRACT: note_on channel=7 note=76 velocity=0 time=0.03125
EXTRACT: note_on channel=9 note=36 velocity=0 time=0.14583333333333331
EXTRACT: note_on channel=9 note=76 velocity=67 time=0.05208333333333333
EXTRACT: note_on channel=7 note=74 velocity=86 time=0
EXTRACT: note_on channel=9 note=76 velocity=0 time=0.03125
EXTRACT: note_on channel=9 note=39 velocity=79 time=0.28125
EXTRACT: note_on channel=9 note=40 velocity=83 time=0
EXTRACT: note_on channel=9 note=42 velocity=105 time=0
EXTRACT: note_on channel=9 note=40 velocity=0 time=0.078125
EXTRACT: note_on channel=9 note=39 velocity=0 time=0.010416666666666666
EXTRACT: note_on channel=9 note=42 velocity=0 time=0.005208333333333333
EXTRACT: note_on channel=7 note=71 velocity=82 time=0.0625
EXTRACT: note_on channel=7 note=74 velocity=0 time=0.041666666666666664
EXTRACT: note_on channel=7 note=71 velocity=0 time=0.041666666666666664
EXTRACT: note_on channel=9 note=76 velocity=70 time=0.07291666666666666
EXTRACT: note_on channel=7 note=74 velocity=87 time=0
EXTRACT: note_on channel=9 note=76 velocity=0 time=0.03645833333333333
EXTRACT: note_on channel=7 note=74 velocity=0 time=0.0625
EXTRACT: note_on channel=9 note=36 velocity=94 time=0.057291666666666664
EXTRACT: note_on channel=9 note=42 velocity=91 time=0
EXTRACT: note_on channel=9 note=42 velocity=0 time=0.07291666666666666
EXTRACT: note_on channel=9 note=36 velocity=0 time=0.020833333333333332
EXTRACT: note_on channel=9 note=42 velocity=84 time=0.0625
EXTRACT: note_on channel=7 note=76 velocity=86 time=0
EXTRACT: note_on channel=9 note=42 velocity=0 time=0.09375
EXTRACT: note_on channel=7 note=76 velocity=0 time=0.005208333333333333
EXTRACT: note_on channel=9 note=42 velocity=83 time=0.057291666666666664
EXTRACT: note_on channel=9 note=42 velocity=0 time=0.08854166666666666
EXTRACT: note_on channel=9 note=36 velocity=102 time=0.06770833333333333
EXTRACT: note_on channel=9 note=76 velocity=61 time=0
EXTRACT: note_on channel=7 note=74 velocity=83 time=0
EXTRACT: note_on channel=9 note=76 velocity=0 time=0.041666666666666664
EXTRACT: note_on channel=9 note=36 velocity=0 time=0.05208333333333333
EXTRACT: note_on channel=9 note=39 velocity=83 time=0.21875
EXTRACT: note_on channel=9 note=40 velocity=81 time=0
EXTRACT: note_on channel=9 note=42 velocity=88 time=0
EXTRACT: note_on channel=9 note=40 velocity=0 time=0.06770833333333333
EXTRACT: note_on channel=9 note=39 velocity=0 time=0.026041666666666664
EXTRACT: note_on channel=9 note=42 velocity=0 time=0
EXTRACT: note_on channel=7 note=71 velocity=77 time=0.0625
EXTRACT: note_on channel=7 note=74 velocity=0 time=0.020833333333333332
EXTRACT: note_on channel=7 note=71 velocity=0 time=0.078125
EXTRACT: note_on channel=9 note=36 velocity=91 time=0.057291666666666664
EXTRACT: note_on channel=9 note=46 velocity=76 time=0
EXTRACT: note_on channel=7 note=74 velocity=87 time=0
EXTRACT: note_on channel=11 note=62 velocity=82 time=0
EXTRACT: note_on channel=9 note=36 velocity=0 time=0.06770833333333333
EXTRACT: note_on channel=7 note=74 velocity=0 time=0
EXTRACT: note_on channel=9 note=46 velocity=0 time=0.005208333333333333
EXTRACT: note_on channel=11 note=62 velocity=0 time=0.20833333333333331
EXTRACT: note_on channel=9 note=36 velocity=93 time=0.03125
EXTRACT: note_on channel=9 note=42 velocity=104 time=0
EXTRACT: note_on channel=7 note=76 velocity=92 time=0
EXTRACT: note_on channel=9 note=42 velocity=0 time=0.08333333333333333
EXTRACT: note_on channel=7 note=76 velocity=0 time=0.03125
EXTRACT: note_on channel=9 note=36 velocity=0 time=0.14583333333333331
EXTRACT: note_on channel=9 note=76 velocity=67 time=0.05208333333333333
EXTRACT: note_on channel=3 note=69 velocity=93 time=0
EXTRACT: note_on channel=7 note=74 velocity=86 time=0
EXTRACT: note_on channel=9 note=76 velocity=0 time=0.03125
EXTRACT: note_on channel=3 note=69 velocity=0 time=0.046875
EXTRACT: note_on channel=9 note=39 velocity=79 time=0.234375
EXTRACT: note_on channel=9 note=40 velocity=83 time=0
EXTRACT: note_on channel=9 note=42 velocity=105 time=0
EXTRACT: note_on channel=3 note=69 velocity=93 time=0
EXTRACT: note_on channel=9 note=40 velocity=0 time=0.078125
EXTRACT: note_on channel=9 note=39 velocity=0 time=0.010416666666666666
EXTRACT: note_on channel=9 note=42 velocity=0 time=0.005208333333333333
EXTRACT: note_on channel=3 note=69 velocity=0 time=0
EXTRACT: note_on channel=3 note=69 velocity=88 time=0.0625
EXTRACT: note_on channel=7 note=71 velocity=82 time=0
EXTRACT: note_on channel=7 note=74 velocity=0 time=0.041666666666666664
EXTRACT: note_on channel=3 note=69 velocity=0 time=0.03645833333333333
EXTRACT: note_on channel=7 note=71 velocity=0 time=0.005208333333333333
EXTRACT: note_on channel=9 note=76 velocity=70 time=0.07291666666666666
EXTRACT: note_on channel=3 note=69 velocity=87 time=0
EXTRACT: note_on channel=7 note=74 velocity=87 time=0
EXTRACT: note_on channel=9 note=76 velocity=0 time=0.03645833333333333
EXTRACT: note_on channel=3 note=69 velocity=0 time=0.041666666666666664
EXTRACT: note_on channel=7 note=74 velocity=0 time=0.020833333333333332
EXTRACT: note_on channel=9 note=36 velocity=94 time=0.057291666666666664
EXTRACT: note_on channel=9 note=42 velocity=91 time=0
EXTRACT: note_on channel=3 note=69 velocity=87 time=0
EXTRACT: note_on channel=9 note=42 velocity=0 time=0.07291666666666666
EXTRACT: note_on channel=3 note=69 velocity=0 time=0.005208333333333333
EXTRACT: note_on channel=9 note=36 velocity=0 time=0.015625
EXTRACT: note_on channel=9 note=42 velocity=84 time=0.0625
EXTRACT: note_on channel=3 note=69 velocity=98 time=0
EXTRACT: note_on channel=7 note=76 velocity=86 time=0
EXTRACT: note_on channel=3 note=69 velocity=0 time=0.08333333333333333
EXTRACT: note_on channel=9 note=42 velocity=0 time=0.010416666666666666
EXTRACT: note_on channel=7 note=76 velocity=0 time=0.005208333333333333
EXTRACT: note_on channel=9 note=42 velocity=83 time=0.057291666666666664
EXTRACT: note_on channel=3 note=69 velocity=88 time=0
EXTRACT: note_on channel=3 note=69 velocity=0 time=0.078125
EXTRACT: note_on channel=9 note=42 velocity=0 time=0.010416666666666666
EXTRACT: note_on channel=9 note=36 velocity=102 time=0.06770833333333333
EXTRACT: note_on channel=9 note=76 velocity=61 time=0
EXTRACT: note_on channel=3 note=69 velocity=94 time=0
EXTRACT: note_on channel=7 note=74 velocity=83 time=0
EXTRACT: note_on channel=9 note=76 velocity=0 time=0.041666666666666664
EXTRACT: note_on channel=3 note=69 velocity=0 time=0.03645833333333333
EXTRACT: note_on channel=9 note=36 velocity=0 time=0.015625
EXTRACT: note_on channel=3 note=69 velocity=103 time=0.0625
EXTRACT: note_on channel=9 note=39 velocity=83 time=0.15625
EXTRACT: note_on channel=9 note=40 velocity=81 time=0
EXTRACT: note_on channel=9 note=42 velocity=88 time=0
EXTRACT: note_on channel=9 note=40 velocity=0 time=0.06770833333333333
EXTRACT: note_on channel=9 note=39 velocity=0 time=0.026041666666666664
EXTRACT: note_on channel=9 note=42 velocity=0 time=0
EXTRACT: note_on channel=7 note=71 velocity=77 time=0.0625
EXTRACT: note_on channel=7 note=74 velocity=0 time=0.020833333333333332
EXTRACT: note_on channel=7 note=71 velocity=0 time=0.078125
EXTRACT: note_on channel=3 note=69 velocity=0 time=0.015625
EXTRACT: note_on channel=9 note=36 velocity=91 time=0.041666666666666664
EXTRACT: note_on channel=9 note=46 velocity=76 time=0
EXTRACT: note_on channel=3 note=66 velocity=87 time=0
EXTRACT: note_on channel=7 note=74 velocity=87 time=0
EXTRACT: note_on channel=9 note=36 velocity=0 time=0.06770833333333333
EXTRACT: note_on channel=7 note=74 velocity=0 time=0
EXTRACT: note_on channel=9 note=46 velocity=0 time=0.005208333333333333
EXTRACT: note_on channel=3 note=66 velocity=0 time=0.005208333333333333
EXTRACT: note_on channel=3 note=66 velocity=88 time=0.078125
EXTRACT: note_on channel=9 note=36 velocity=93 time=0.15625
EXTRACT: note_on channel=9 note=42 velocity=104 time=0
EXTRACT: note_on channel=7 note=76 velocity=92 time=0
EXTRACT: note_on channel=9 note=42 velocity=0 time=0.08333333333333333
EXTRACT: note_on channel=7 note=76 velocity=0 time=0.03125
EXTRACT: note_on channel=3 note=66 velocity=0 time=0.140625
EXTRACT: note_on channel=9 note=36 velocity=0 time=0.005208333333333333
EXTRACT: note_on channel=9 note=76 velocity=67 time=0.05208333333333333
EXTRACT: note_on channel=7 note=74 velocity=86 time=0
EXTRACT: note_on channel=9 note=76 velocity=0 time=0.03125
EXTRACT: note_on channel=9 note=39 velocity=79 time=0.28125
EXTRACT: note_on channel=9 note=40 velocity=83 time=0
EXTRACT: note_on channel=9 note=42 velocity=105 time=0
EXTRACT: note_on channel=3 note=69 velocity=105 time=0
EXTRACT: note_on channel=9 note=40 velocity=0 time=0.078125
EXTRACT: note_on channel=3 note=69 velocity=0 time=0.005208333333333333
EXTRACT: note_on channel=9 note=39 velocity=0 time=0.005208333333333333
EXTRACT: note_on channel=9 note=42 velocity=0 time=0.005208333333333333
EXTRACT: note_on channel=3 note=69 velocity=86 time=0.0625
EXTRACT: note_on channel=7 note=71 velocity=82 time=0
EXTRACT: note_on channel=7 note=74 velocity=0 time=0.041666666666666664
EXTRACT: note_on channel=3 note=69 velocity=0 time=0.041666666666666664
EXTRACT: note_on channel=7 note=71 velocity=0 time=0
EXTRACT: note_on channel=9 note=76 velocity=70 time=0.07291666666666666
EXTRACT: note_on channel=3 note=69 velocity=92 time=0
EXTRACT: note_on channel=7 note=74 velocity=87 time=0
EXTRACT: note_on channel=9 note=76 velocity=0 time=0.03645833333333333
EXTRACT: note_on channel=3 note=69 velocity=0 time=0.041666666666666664
EXTRACT: note_on channel=7 note=74 velocity=0 time=0.020833333333333332
EXTRACT: note_on channel=9 note=36 velocity=94 time=0.057291666666666664
EXTRACT: note_on channel=9 note=42 velocity=91 time=0
EXTRACT: note_on channel=3 note=69 velocity=90 time=0
EXTRACT: note_on channel=9 note=42 velocity=0 time=0.07291666666666666
EXTRACT: note_on channel=3 note=69 velocity=0 time=0.010416666666666666
EXTRACT: note_on channel=9 note=36 velocity=0 time=0.010416666666666666
EXTRACT: note_on channel=9 note=42 velocity=84 time=0.0625
EXTRACT: note_on channel=3 note=69 velocity=104 time=0
EXTRACT: note_on channel=7 note=76 velocity=86 time=0
EXTRACT: note_on channel=3 note=69 velocity=0 time=0.07291666666666666
EXTRACT: note_on channel=9 note=42 velocity=0 time=0.020833333333333332
EXTRACT: note_on channel=7 note=76 velocity=0 time=0.005208333333333333
EXTRACT: note_on channel=9 note=42 velocity=83 time=0.057291666666666664
EXTRACT: note_on channel=3 note=69 velocity=94 time=0
EXTRACT: note_on channel=3 note=69 velocity=0 time=0.07291666666666666
EXTRACT: note_on channel=9 note=42 velocity=0 time=0.015625
EXTRACT: note_on channel=9 note=36 velocity=102 time=0.06770833333333333
EXTRACT: note_on channel=9 note=76 velocity=61 time=0
EXTRACT: note_on channel=3 note=69 velocity=103 time=0
EXTRACT: note_on channel=7 note=74 velocity=83 time=0
EXTRACT: note_on channel=9 note=76 velocity=0 time=0.041666666666666664
EXTRACT: note_on channel=9 note=36 velocity=0 time=0.05208333333333333
EXTRACT: note_on channel=3 note=69 velocity=0 time=0.109375
EXTRACT: note_on channel=9 note=39 velocity=83 time=0.109375
EXTRACT: note_on channel=9 note=40 velocity=81 time=0
EXTRACT: note_on channel=9 note=42 velocity=88 time=0
EXTRACT: note_on channel=3 note=71 velocity=105 time=0
EXTRACT: note_on channel=9 note=40 velocity=0 time=0.06770833333333333
EXTRACT: note_on channel=9 note=39 velocity=0 time=0.026041666666666664
EXTRACT: note_on channel=9 note=42 velocity=0 time=0
EXTRACT: note_on channel=7 note=71 velocity=77 time=0.0625
EXTRACT: note_on channel=7 note=74 velocity=0 time=0.020833333333333332
EXTRACT: note_on channel=7 note=71 velocity=0 time=0.078125
EXTRACT: note_on channel=3 note=71 velocity=0 time=0.046875
EXTRACT: note_on channel=9 note=36 velocity=91 time=0.010416666666666666
EXTRACT: note_on channel=9 note=46 velocity=76 time=0
EXTRACT: note_on channel=3 note=66 velocity=88 time=0
EXTRACT: note_on channel=7 note=74 velocity=87 time=0
EXTRACT: note_on channel=9 note=36 velocity=0 time=0.06770833333333333
EXTRACT: note_on channel=7 note=74 velocity=0 time=0
EXTRACT: note_on channel=9 note=46 velocity=0 time=0.005208333333333333
EXTRACT: note_on channel=3 note=66 velocity=0 time=0.015625
EXTRACT: note_on channel=3 note=66 velocity=89 time=0.06770833333333333
EXTRACT: note_on channel=9 note=36 velocity=93 time=0.15625
EXTRACT: note_on channel=9 note=42 velocity=104 time=0
EXTRACT: note_on channel=7 note=76 velocity=92 time=0
EXTRACT: note_on channel=9 note=42 velocity=0 time=0.08333333333333333
EXTRACT: note_on channel=7 note=76 velocity=0 time=0.03125
EXTRACT: note_on channel=3 note=66 velocity=0 time=0.005208333333333333
EXTRACT: note_on channel=9 note=36 velocity=0 time=0.140625
EXTRACT: note_on channel=9 note=76 velocity=67 time=0.05208333333333333
EXTRACT: note_on channel=7 note=74 velocity=86 time=0
EXTRACT: note_on channel=9 note=76 velocity=0 time=0.03125
EXTRACT: note_on channel=9 note=39 velocity=79 time=0.28125
EXTRACT: note_on channel=9 note=40 velocity=83 time=0
EXTRACT: note_on channel=9 note=42 velocity=105 time=0
EXTRACT: note_on channel=3 note=69 velocity=102 time=0
EXTRACT: note_on channel=3 note=69 velocity=0 time=0.07291666666666666
EXTRACT: note_on channel=9 note=40 velocity=0 time=0.005208333333333333
EXTRACT: note_on channel=9 note=39 velocity=0 time=0.010416666666666666
EXTRACT: note_on channel=9 note=42 velocity=0 time=0.005208333333333333
EXTRACT: note_on channel=3 note=69 velocity=95 time=0.0625
EXTRACT: note_on channel=7 note=71 velocity=82 time=0
EXTRACT: note_on channel=7 note=74 velocity=0 time=0.041666666666666664
EXTRACT: note_on channel=3 note=69 velocity=0 time=0.041666666666666664
EXTRACT: note_on channel=7 note=71 velocity=0 time=0
EXTRACT: note_on channel=9 note=76 velocity=70 time=0.07291666666666666
EXTRACT: note_on channel=3 note=69 velocity=98 time=0
EXTRACT: note_on channel=7 note=74 velocity=87 time=0
EXTRACT: note_on channel=9 note=76 velocity=0 time=0.03645833333333333
EXTRACT: note_on channel=7 note=74 velocity=0 time=0.0625
EXTRACT: note_on channel=9 note=36 velocity=94 time=0.057291666666666664
EXTRACT: note_on channel=9 note=42 velocity=91 time=0
EXTRACT: note_on channel=3 note=69 velocity=0 time=0.026041666666666664
EXTRACT: note_on channel=9 note=42 velocity=0 time=0.046875
EXTRACT: note_on channel=9 note=36 velocity=0 time=0.020833333333333332
EXTRACT: note_on channel=9 note=42 velocity=84 time=0.0625
EXTRACT: note_on channel=3 note=69 velocity=114 time=0
EXTRACT: note_on channel=7 note=76 velocity=86 time=0
EXTRACT: note_on channel=9 note=42 velocity=0 time=0.09375
EXTRACT: note_on channel=7 note=76 velocity=0 time=0.005208333333333333
EXTRACT: note_on channel=9 note=42 velocity=83 time=0.057291666666666664
EXTRACT: note_on channel=9 note=42 velocity=0 time=0.08854166666666666
EXTRACT: note_on channel=3 note=69 velocity=0 time=0.015625
EXTRACT: note_on channel=9 note=36 velocity=102 time=0.05208333333333333
EXTRACT: note_on channel=9 note=76 velocity=61 time=0
EXTRACT: note_on channel=3 note=69 velocity=98 time=0
EXTRACT: note_on channel=7 note=74 velocity=83 time=0
EXTRACT: note_on channel=9 note=76 velocity=0 time=0.041666666666666664
EXTRACT: note_on channel=3 note=69 velocity=0 time=0.026041666666666664
EXTRACT: note_on channel=9 note=36 velocity=0 time=0.026041666666666664
EXTRACT: note_on channel=3 note=69 velocity=107 time=0.0625
EXTRACT: note_on channel=9 note=39 velocity=83 time=0.15625
EXTRACT: note_on channel=9 note=40 velocity=81 time=0
EXTRACT: note_on channel=9 note=42 velocity=88 time=0
EXTRACT: note_on channel=9 note=40 velocity=0 time=0.06770833333333333
EXTRACT: note_on channel=9 note=39 velocity=0 time=0.026041666666666664
EXTRACT: note_on channel=9 note=42 velocity=0 time=0
EXTRACT: note_on channel=7 note=71 velocity=77 time=0.0625
EXTRACT: note_on channel=7 note=74 velocity=0 time=0.020833333333333332
EXTRACT: note_on channel=3 note=69 velocity=0 time=0.0625
EXTRACT: note_on channel=7 note=71 velocity=0 time=0.015625
EXTRACT: note_on channel=9 note=36 velocity=91 time=0.057291666666666664
EXTRACT: note_on channel=9 note=46 velocity=76 time=0
EXTRACT: note_on channel=3 note=66 velocity=93 time=0
EXTRACT: note_on channel=7 note=74 velocity=87 time=0
EXTRACT: note_on channel=9 note=36 velocity=0 time=0.06770833333333333
EXTRACT: note_on channel=7 note=74 velocity=0 time=0
EXTRACT: note_on channel=9 note=46 velocity=0 time=0.005208333333333333
EXTRACT: note_on channel=3 note=66 velocity=0 time=0.03125
EXTRACT: note_on channel=3 note=64 velocity=95 time=0.05208333333333333
EXTRACT: note_on channel=9 note=36 velocity=93 time=0.15625
EXTRACT: note_on channel=9 note=42 velocity=104 time=0
EXTRACT: note_on channel=7 note=76 velocity=92 time=0
EXTRACT: note_on channel=9 note=42 velocity=0 time=0.08333333333333333
EXTRACT: note_on channel=3 note=64 velocity=0 time=0.005208333333333333
EXTRACT: note_on channel=7 note=76 velocity=0 time=0.026041666666666664
EXTRACT: note_on channel=9 note=36 velocity=0 time=0.14583333333333331
EXTRACT: note_on channel=9 note=76 velocity=67 time=0.05208333333333333
EXTRACT: note_on channel=3 note=69 velocity=104 time=0
EXTRACT: note_on channel=7 note=74 velocity=86 time=0
EXTRACT: note_on channel=9 note=76 velocity=0 time=0.03125
EXTRACT: note_on channel=3 note=69 velocity=0 time=0.171875
EXTRACT: note_on channel=9 note=39 velocity=79 time=0.109375
EXTRACT: note_on channel=9 note=40 velocity=83 time=0
EXTRACT: note_on channel=9 note=42 velocity=105 time=0
EXTRACT: note_on channel=3 note=69 velocity=113 time=0
EXTRACT: note_on channel=3 note=69 velocity=0 time=0.07291666666666666
EXTRACT: note_on channel=9 note=40 velocity=0 time=0.005208333333333333
EXTRACT: note_on channel=9 note=39 velocity=0 time=0.010416666666666666
EXTRACT: note_on channel=9 note=42 velocity=0 time=0.005208333333333333
EXTRACT: note_on channel=3 note=69 velocity=96 time=0.0625
EXTRACT: note_on channel=7 note=71 velocity=82 time=0
EXTRACT: note_on channel=7 note=74 velocity=0 time=0.041666666666666664
EXTRACT: note_on channel=3 note=69 velocity=0 time=0.041666666666666664
EXTRACT: note_on channel=7 note=71 velocity=0 time=0
EXTRACT: note_on channel=9 note=76 velocity=70 time=0.07291666666666666
EXTRACT: note_on channel=3 note=69 velocity=97 time=0
EXTRACT: note_on channel=7 note=74 velocity=87 time=0
EXTRACT: note_on channel=9 note=76 velocity=0 time=0.03645833333333333
EXTRACT: note_on channel=3 note=69 velocity=0 time=0.03645833333333333
EXTRACT: note_on channel=7 note=74 velocity=0 time=0.026041666666666664
EXTRACT: note_on channel=9 note=36 velocity=94 time=0.057291666666666664
EXTRACT: note_on channel=9 note=42 velocity=91 time=0
EXTRACT: note_on channel=3 note=69 velocity=95 time=0
EXTRACT: note_on channel=9 note=42 velocity=0 time=0.07291666666666666
EXTRACT: note_on channel=3 note=69 velocity=0 time=0.005208333333333333
EXTRACT: note_on channel=9 note=36 velocity=0 time=0.015625
EXTRACT: note_on channel=9 note=42 velocity=84 time=0.0625
EXTRACT: note_on channel=3 note=69 velocity=103 time=0
EXTRACT: note_on channel=7 note=76 velocity=86 time=0
EXTRACT: note_on channel=3 note=69 velocity=0 time=0.08333333333333333
EXTRACT: note_on channel=9 note=42 velocity=0 time=0.010416666666666666
EXTRACT: note_on channel=7 note=76 velocity=0 time=0.005208333333333333
EXTRACT: note_on channel=9 note=42 velocity=83 time=0.057291666666666664
EXTRACT: note_on channel=3 note=69 velocity=97 time=0
EXTRACT: note_on channel=3 note=69 velocity=0 time=0.078125
EXTRACT: note_on channel=9 note=42 velocity=0 time=0.010416666666666666
EXTRACT: note_on channel=9 note=36 velocity=102 time=0.06770833333333333
EXTRACT: note_on channel=9 note=76 velocity=61 time=0
EXTRACT: note_on channel=3 note=69 velocity=103 time=0
EXTRACT: note_on channel=7 note=74 velocity=83 time=0
EXTRACT: note_on channel=9 note=76 velocity=0 time=0.041666666666666664
EXTRACT: note_on channel=9 note=36 velocity=0 time=0.05208333333333333
EXTRACT: note_on channel=3 note=69 velocity=0 time=0.046875
EXTRACT: note_on channel=9 note=39 velocity=83 time=0.171875
EXTRACT: note_on channel=9 note=40 velocity=81 time=0
EXTRACT: note_on channel=9 note=42 velocity=88 time=0
EXTRACT: note_on channel=3 note=69 velocity=103 time=0
EXTRACT: note_on channel=9 note=40 velocity=0 time=0.06770833333333333
EXTRACT: note_on channel=9 note=39 velocity=0 time=0.026041666666666664
EXTRACT: note_on channel=9 note=42 velocity=0 time=0
EXTRACT: note_on channel=7 note=71 velocity=77 time=0.0625
EXTRACT: note_on channel=7 note=74 velocity=0 time=0.020833333333333332
EXTRACT: note_on channel=3 note=69 velocity=0 time=0.078125
EXTRACT: note_on channel=7 note=71 velocity=0 time=0
EXTRACT: note_on channel=9 note=36 velocity=91 time=0.057291666666666664
EXTRACT: note_on channel=9 note=46 velocity=76 time=0
EXTRACT: note_on channel=3 note=71 velocity=93 time=0
EXTRACT: note_on channel=7 note=74 velocity=87 time=0
EXTRACT: note_on channel=9 note=36 velocity=0 time=0.06770833333333333
EXTRACT: note_on channel=3 note=71 velocity=0 time=0
EXTRACT: note_on channel=7 note=74 velocity=0 time=0
EXTRACT: note_on channel=9 note=46 velocity=0 time=0.005208333333333333
EXTRACT: note_on channel=3 note=71 velocity=109 time=0.08333333333333333
EXTRACT: note_on channel=9 note=36 velocity=93 time=0.15625
EXTRACT: note_on channel=9 note=42 velocity=104 time=0
EXTRACT: note_on channel=7 note=76 velocity=92 time=0
EXTRACT: note_on channel=9 note=42 velocity=0 time=0.08333333333333333
EXTRACT: note_on channel=3 note=71 velocity=0 time=0.015625
EXTRACT: note_on channel=7 note=76 velocity=0 time=0.015625
EXTRACT: note_on channel=9 note=36 velocity=0 time=0.14583333333333331
EXTRACT: note_on channel=9 note=76 velocity=67 time=0.05208333333333333
EXTRACT: note_on channel=3 note=69 velocity=97 time=0
EXTRACT: note_on channel=7 note=74 velocity=86 time=0
EXTRACT: note_on channel=9 note=76 velocity=0 time=0.03125
EXTRACT: note_on channel=3 note=69 velocity=0 time=0.046875
EXTRACT: note_on channel=9 note=39 velocity=79 time=0.234375
EXTRACT: note_on channel=9 note=40 velocity=83 time=0
EXTRACT: note_on channel=9 note=42 velocity=105 time=0
EXTRACT: note_on channel=3 note=69 velocity=103 time=0
EXTRACT: note_on channel=9 note=40 velocity=0 time=0.078125
EXTRACT: note_on channel=9 note=39 velocity=0 time=0.010416666666666666
EXTRACT: note_on channel=9 note=42 velocity=0 time=0.005208333333333333
EXTRACT: note_on channel=7 note=71 velocity=82 time=0.0625
EXTRACT: note_on channel=3 note=69 velocity=0 time=0.026041666666666664
EXTRACT: note_on channel=7 note=74 velocity=0 time=0.015625
EXTRACT: note_on channel=7 note=71 velocity=0 time=0.041666666666666664
EXTRACT: note_on channel=9 note=76 velocity=70 time=0.07291666666666666
EXTRACT: note_on channel=3 note=69 velocity=102 time=0
EXTRACT: note_on channel=7 note=74 velocity=87 time=0
EXTRACT: note_on channel=9 note=76 velocity=0 time=0.03645833333333333
EXTRACT: note_on channel=7 note=74 velocity=0 time=0.0625
EXTRACT: note_on channel=3 note=69 velocity=0 time=0.03645833333333333
EXTRACT: note_on channel=9 note=36 velocity=94 time=0.020833333333333332
EXTRACT: note_on channel=9 note=42 velocity=91 time=0
EXTRACT: note_on channel=9 note=42 velocity=0 time=0.07291666666666666
EXTRACT: note_on channel=9 note=36 velocity=0 time=0.020833333333333332
EXTRACT: note_on channel=9 note=42 velocity=84 time=0.0625
EXTRACT: note_on channel=3 note=69 velocity=104 time=0
EXTRACT: note_on channel=7 note=76 velocity=86 time=0
EXTRACT: note_on channel=3 note=69 velocity=0 time=0.08333333333333333
EXTRACT: note_on channel=9 note=42 velocity=0 time=0.010416666666666666
EXTRACT: note_on channel=7 note=76 velocity=0 time=0.005208333333333333
EXTRACT: note_on channel=9 note=42 velocity=83 time=0.057291666666666664
EXTRACT: note_on channel=3 note=69 velocity=95 time=0
EXTRACT: note_on channel=9 note=42 velocity=0 time=0.08854166666666666
EXTRACT: note_on channel=3 note=69 velocity=0 time=0
EXTRACT: note_on channel=9 note=36 velocity=102 time=0.06770833333333333
EXTRACT: note_on channel=9 note=76 velocity=61 time=0
EXTRACT: note_on channel=3 note=71 velocity=109 time=0
EXTRACT: note_on channel=7 note=74 velocity=83 time=0
EXTRACT: note_on channel=9 note=76 velocity=0 time=0.041666666666666664
EXTRACT: note_on channel=9 note=36 velocity=0 time=0.05208333333333333
EXTRACT: note_on channel=3 note=71 velocity=0 time=0.057291666666666664
EXTRACT: note_on channel=9 note=39 velocity=83 time=0.16145833333333331
EXTRACT: note_on channel=9 note=40 velocity=81 time=0
EXTRACT: note_on channel=9 note=42 velocity=88 time=0
EXTRACT: note_on channel=3 note=71 velocity=109 time=0
EXTRACT: note_on channel=9 note=40 velocity=0 time=0.06770833333333333
EXTRACT: note_on channel=9 note=39 velocity=0 time=0.026041666666666664
EXTRACT: note_on channel=9 note=42 velocity=0 time=0
EXTRACT: note_on channel=7 note=71 velocity=77 time=0.0625
EXTRACT: note_on channel=7 note=74 velocity=0 time=0.020833333333333332
EXTRACT: note_on channel=7 note=71 velocity=0 time=0.078125
EXTRACT: note_on channel=3 note=71 velocity=0 time=0.020833333333333332
EXTRACT: note_on channel=9 note=36 velocity=91 time=0.03645833333333333
EXTRACT: note_on channel=9 note=46 velocity=76 time=0
EXTRACT: note_on channel=3 note=69 velocity=96 time=0
EXTRACT: note_on channel=7 note=74 velocity=87 time=0
EXTRACT: note_on channel=9 note=36 velocity=0 time=0.06770833333333333
EXTRACT: note_on channel=7 note=74 velocity=0 time=0
EXTRACT: note_on channel=9 note=46 velocity=0 time=0.005208333333333333
EXTRACT: note_on channel=3 note=69 velocity=0 time=0.005208333333333333
EXTRACT: note_on channel=3 note=69 velocity=97 time=0.078125
EXTRACT: note_on channel=9 note=36 velocity=93 time=0.15625
EXTRACT: note_on channel=9 note=42 velocity=104 time=0
EXTRACT: note_on channel=7 note=76 velocity=92 time=0
EXTRACT: note_on channel=3 note=69 velocity=0 time=0.005208333333333333
EXTRACT: note_on channel=9 note=42 velocity=0 time=0.078125
EXTRACT: note_on channel=7 note=76 velocity=0 time=0.03125
EXTRACT: note_on channel=9 note=36 velocity=0 time=0.14583333333333331
EXTRACT: note_on channel=9 note=76 velocity=67 time=0.05208333333333333
EXTRACT: note_on channel=3 note=69 velocity=103 time=0
EXTRACT: note_on channel=7 note=74 velocity=86 time=0
EXTRACT: note_on channel=9 note=76 velocity=0 time=0.03125
EXTRACT: note_on channel=3 note=69 velocity=0 time=0.057291666666666664
EXTRACT: note_on channel=3 note=69 velocity=96 time=0.06770833333333333
EXTRACT: note_on channel=3 note=69 velocity=0 time=0.09375
EXTRACT: note_on channel=9 note=39 velocity=79 time=0.0625
EXTRACT: note_on channel=9 note=40 velocity=83 time=0
EXTRACT: note_on channel=9 note=42 velocity=105 time=0
EXTRACT: note_on channel=3 note=69 velocity=95 time=0
EXTRACT: note_on channel=9 note=40 velocity=0 time=0.078125
EXTRACT: note_on channel=9 note=39 velocity=0 time=0.010416666666666666
EXTRACT: note_on channel=9 note=42 velocity=0 time=0.005208333333333333
EXTRACT: note_on channel=3 note=69 velocity=0 time=0
EXTRACT: note_on channel=3 note=69 velocity=100 time=0.0625
EXTRACT: note_on channel=7 note=71 velocity=82 time=0
EXTRACT: note_on channel=7 note=74 velocity=0 time=0.041666666666666664
EXTRACT: note_on channel=7 note=71 velocity=0 time=0.041666666666666664
EXTRACT: note_on channel=3 note=69 velocity=0 time=0.010416666666666666
EXTRACT: note_on channel=9 note=76 velocity=70 time=0.0625
EXTRACT: note_on channel=3 note=69 velocity=94 time=0
EXTRACT: note_on channel=7 note=74 velocity=87 time=0
EXTRACT: note_on channel=9 note=76 velocity=0 time=0.03645833333333333
EXTRACT: note_on channel=3 note=69 velocity=0 time=0.057291666666666664
EXTRACT: note_on channel=7 note=74 velocity=0 time=0.005208333333333333
EXTRACT: note_on channel=9 note=36 velocity=94 time=0.057291666666666664
EXTRACT: note_on channel=9 note=42 velocity=91 time=0
EXTRACT: note_on channel=3 note=69 velocity=93 time=0
EXTRACT: note_on channel=9 note=42 velocity=0 time=0.07291666666666666
EXTRACT: note_on channel=9 note=36 velocity=0 time=0.020833333333333332
EXTRACT: note_on channel=3 note=69 velocity=0 time=0.005208333333333333
EXTRACT: note_on channel=9 note=42 velocity=84 time=0.057291666666666664
EXTRACT: note_on channel=3 note=71 velocity=103 time=0
EXTRACT: note_on channel=7 note=76 velocity=86 time=0
EXTRACT: note_on channel=3 note=71 velocity=0 time=0.07291666666666666
EXTRACT: note_on channel=9 note=42 velocity=0 time=0.020833333333333332
EXTRACT: note_on channel=7 note=76 velocity=0 time=0.005208333333333333
EXTRACT: note_on channel=9 note=42 velocity=83 time=0.057291666666666664
EXTRACT: note_on channel=3 note=71 velocity=93 time=0
EXTRACT: note_on channel=3 note=71 velocity=0 time=0.08333333333333333
EXTRACT: note_on channel=9 note=42 velocity=0 time=0.005208333333333333
EXTRACT: note_on channel=9 note=36 velocity=102 time=0.06770833333333333
EXTRACT: note_on channel=9 note=76 velocity=61 time=0
EXTRACT: note_on channel=3 note=73 velocity=98 time=0
EXTRACT: note_on channel=7 note=74 velocity=83 time=0
EXTRACT: note_on channel=9 note=76 velocity=0 time=0.041666666666666664
EXTRACT: note_on channel=9 note=36 velocity=0 time=0.05208333333333333
EXTRACT: note_on channel=3 note=73 velocity=0 time=0.17708333333333331
EXTRACT: note_on channel=9 note=39 velocity=83 time=0.041666666666666664
EXTRACT: note_on channel=9 note=40 velocity=81 time=0
EXTRACT: note_on channel=9 note=42 velocity=88 time=0
EXTRACT: note_on channel=3 note=71 velocity=105 time=0
EXTRACT: note_on channel=9 note=40 velocity=0 time=0.06770833333333333
EXTRACT: note_on channel=9 note=39 velocity=0 time=0.026041666666666664
EXTRACT: note_on channel=9 note=42 velocity=0 time=0
EXTRACT: note_on channel=7 note=71 velocity=77 time=0.0625
EXTRACT: note_on channel=7 note=74 velocity=0 time=0.020833333333333332
EXTRACT: note_on channel=7 note=71 velocity=0 time=0.078125
EXTRACT: note_on channel=3 note=71 velocity=0 time=0.041666666666666664
EXTRACT: note_on channel=9 note=36 velocity=91 time=0.015625
EXTRACT: note_on channel=9 note=46 velocity=76 time=0
EXTRACT: note_on channel=3 note=69 velocity=96 time=0
EXTRACT: note_on channel=7 note=74 velocity=87 time=0
EXTRACT: note_on channel=9 note=36 velocity=0 time=0.06770833333333333
EXTRACT: note_on channel=7 note=74 velocity=0 time=0
EXTRACT: note_on channel=9 note=46 velocity=0 time=0.005208333333333333
EXTRACT: note_on channel=3 note=69 velocity=0 time=0
EXTRACT: note_on channel=3 note=69 velocity=89 time=0.08333333333333333
EXTRACT: note_on channel=3 note=69 velocity=0 time=0.14583333333333331
EXTRACT: note_on channel=9 note=36 velocity=93 time=0.010416666666666666
EXTRACT: note_on channel=9 note=42 velocity=104 time=0
EXTRACT: note_on channel=7 note=76 velocity=92 time=0
EXTRACT: note_on channel=9 note=42 velocity=0 time=0.08333333333333333
EXTRACT: note_on channel=7 note=76 velocity=0 time=0.03125
EXTRACT: note_on channel=9 note=36 velocity=0 time=0.14583333333333331
EXTRACT: note_on channel=9 note=76 velocity=67 time=0.05208333333333333
EXTRACT: note_on channel=3 note=69 velocity=102 time=0
EXTRACT: note_on channel=7 note=74 velocity=86 time=0
EXTRACT: note_on channel=9 note=76 velocity=0 time=0.03125
EXTRACT: note_on channel=3 note=69 velocity=0 time=0.057291666666666664
EXTRACT: note_on channel=3 note=69 velocity=97 time=0.06770833333333333
EXTRACT: note_on channel=3 note=69 velocity=0 time=0.109375
EXTRACT: note_on channel=9 note=39 velocity=79 time=0.046875
EXTRACT: note_on channel=9 note=40 velocity=83 time=0
EXTRACT: note_on channel=9 note=42 velocity=105 time=0
EXTRACT: note_on channel=4 note=57 velocity=67 time=0
EXTRACT: note_on channel=4 note=69 velocity=76 time=0
EXTRACT: note_on channel=4 note=57 velocity=0 time=0.057291666666666664
EXTRACT: note_on channel=9 note=40 velocity=0 time=0.020833333333333332
EXTRACT: note_on channel=4 note=69 velocity=0 time=0.005208333333333333
EXTRACT: note_on channel=9 note=39 velocity=0 time=0.005208333333333333
EXTRACT: note_on channel=9 note=42 velocity=0 time=0.005208333333333333
EXTRACT: note_on channel=4 note=57 velocity=63 time=0.0625
EXTRACT: note_on channel=4 note=69 velocity=72 time=0
EXTRACT: note_on channel=7 note=71 velocity=82 time=0
EXTRACT: note_on channel=7 note=74 velocity=0 time=0.041666666666666664
EXTRACT: note_on channel=4 note=69 velocity=0 time=0.041666666666666664
EXTRACT: note_on channel=7 note=71 velocity=0 time=0
EXTRACT: note_on channel=4 note=57 velocity=0 time=0.005208333333333333
EXTRACT: note_on channel=9 note=76 velocity=70 time=0.06770833333333333
EXTRACT: note_on channel=7 note=74 velocity=87 time=0
EXTRACT: note_on channel=9 note=76 velocity=0 time=0.03645833333333333
EXTRACT: note_on channel=7 note=74 velocity=0 time=0.0625
EXTRACT: note_on channel=9 note=36 velocity=94 time=0.057291666666666664
EXTRACT: note_on channel=9 note=42 velocity=91 time=0
EXTRACT: note_on channel=3 note=69 velocity=103 time=0
EXTRACT: note_on channel=9 note=42 velocity=0 time=0.07291666666666666
EXTRACT: note_on channel=3 note=69 velocity=0 time=0
EXTRACT: note_on channel=9 note=36 velocity=0 time=0.020833333333333332
EXTRACT: note_on channel=9 note=42 velocity=84 time=0.0625
EXTRACT: note_on channel=3 note=69 velocity=98 time=0
EXTRACT: note_on channel=7 note=76 velocity=86 time=0
EXTRACT: note_on channel=9 note=42 velocity=0 time=0.09375
EXTRACT: note_on channel=3 note=69 velocity=0 time=0
EXTRACT: note_on channel=7 note=76 velocity=0 time=0.005208333333333333
EXTRACT: note_on channel=9 note=42 velocity=83 time=0.057291666666666664
EXTRACT: note_on channel=3 note=69 velocity=97 time=0
EXTRACT: note_on channel=9 note=42 velocity=0 time=0.08854166666666666
EXTRACT: note_on channel=3 note=69 velocity=0 time=0.005208333333333333
EXTRACT: note_on channel=9 note=36 velocity=102 time=0.0625
EXTRACT: note_on channel=9 note=76 velocity=61 time=0
EXTRACT: note_on channel=3 note=69 velocity=96 time=0
EXTRACT: note_on channel=7 note=74 velocity=83 time=0
EXTRACT: note_on channel=9 note=76 velocity=0 time=0.041666666666666664
EXTRACT: note_on channel=3 note=69 velocity=0 time=0.046875
EXTRACT: note_on channel=9 note=36 velocity=0 time=0.005208333333333333
EXTRACT: note_on channel=3 note=69 velocity=93 time=0.0625
EXTRACT: note_on channel=3 note=69 velocity=0 time=0.08333333333333333
EXTRACT: note_on channel=9 note=39 velocity=83 time=0.07291666666666666
EXTRACT: note_on channel=9 note=40 velocity=81 time=0
EXTRACT: note_on channel=9 note=42 velocity=88 time=0
EXTRACT: note_on channel=3 note=69 velocity=105 time=0
EXTRACT: note_on channel=9 note=40 velocity=0 time=0.06770833333333333
EXTRACT: note_on channel=9 note=39 velocity=0 time=0.026041666666666664
EXTRACT: note_on channel=9 note=42 velocity=0 time=0
EXTRACT: note_on channel=7 note=71 velocity=77 time=0.0625
EXTRACT: note_on channel=7 note=74 velocity=0 time=0.020833333333333332
EXTRACT: note_on channel=7 note=71 velocity=0 time=0.078125
EXTRACT: note_on channel=3 note=69 velocity=0 time=0.046875
EXTRACT: note_on channel=9 note=36 velocity=91 time=0.010416666666666666
EXTRACT: note_on channel=9 note=46 velocity=76 time=0
EXTRACT: note_on channel=3 note=66 velocity=93 time=0
EXTRACT: note_on channel=7 note=74 velocity=87 time=0
EXTRACT: note_on channel=9 note=36 velocity=0 time=0.06770833333333333
EXTRACT: note_on channel=7 note=74 velocity=0 time=0
EXTRACT: note_on channel=9 note=46 velocity=0 time=0.005208333333333333
EXTRACT: note_on channel=3 note=66 velocity=0 time=0.026041666666666664
EXTRACT: note_on channel=3 note=66 velocity=91 time=0.057291666666666664
EXTRACT: note_on channel=9 note=36 velocity=93 time=0.15625
EXTRACT: note_on channel=9 note=42 velocity=104 time=0
EXTRACT: note_on channel=7 note=76 velocity=92 time=0
EXTRACT: note_on channel=3 note=66 velocity=0 time=0.03645833333333333
EXTRACT: note_on channel=9 note=42 velocity=0 time=0.046875
EXTRACT: note_on channel=7 note=76 velocity=0 time=0.03125
EXTRACT: note_on channel=9 note=36 velocity=0 time=0.14583333333333331
EXTRACT: note_on channel=9 note=76 velocity=67 time=0.05208333333333333
EXTRACT: note_on channel=3 note=69 velocity=100 time=0
EXTRACT: note_on channel=7 note=74 velocity=86 time=0
EXTRACT: note_on channel=9 note=76 velocity=0 time=0.03125
EXTRACT: note_on channel=3 note=69 velocity=0 time=0.09375
EXTRACT: note_on channel=9 note=39 velocity=79 time=0.1875
EXTRACT: note_on channel=9 note=40 velocity=83 time=0
EXTRACT: note_on channel=9 note=42 velocity=105 time=0
EXTRACT: note_on channel=3 note=69 velocity=107 time=0
EXTRACT: note_on channel=9 note=40 velocity=0 time=0.078125
EXTRACT: note_on channel=3 note=69 velocity=0 time=0
EXTRACT: note_on channel=9 note=39 velocity=0 time=0.010416666666666666
EXTRACT: note_on channel=9 note=42 velocity=0 time=0.005208333333333333
EXTRACT: note_on channel=3 note=69 velocity=96 time=0.0625
EXTRACT: note_on channel=7 note=71 velocity=82 time=0
EXTRACT: note_on channel=7 note=74 velocity=0 time=0.041666666666666664
EXTRACT: note_on channel=3 note=69 velocity=0 time=0.041666666666666664
EXTRACT: note_on channel=7 note=71 velocity=0 time=0
EXTRACT: note_on channel=9 note=76 velocity=70 time=0.07291666666666666
EXTRACT: note_on channel=3 note=69 velocity=96 time=0
EXTRACT: note_on channel=7 note=74 velocity=87 time=0
EXTRACT: note_on channel=9 note=76 velocity=0 time=0.03645833333333333
EXTRACT: note_on channel=3 note=69 velocity=0 time=0.046875
EXTRACT: note_on channel=7 note=74 velocity=0 time=0.015625
EXTRACT: note_on channel=9 note=36 velocity=94 time=0.057291666666666664
EXTRACT: note_on channel=9 note=42 velocity=91 time=0
EXTRACT: note_on channel=3 note=69 velocity=95 time=0
EXTRACT: note_on channel=9 note=42 velocity=0 time=0.07291666666666666
EXTRACT: note_on channel=3 note=69 velocity=0 time=0
EXTRACT: note_on channel=9 note=36 velocity=0 time=0.020833333333333332
EXTRACT: note_on channel=9 note=42 velocity=84 time=0.0625
EXTRACT: note_on channel=3 note=69 velocity=111 time=0
EXTRACT: note_on channel=7 note=76 velocity=86 time=0
EXTRACT: note_on channel=9 note=42 velocity=0 time=0.09375
EXTRACT: note_on channel=7 note=76 velocity=0 time=0.005208333333333333
EXTRACT: note_on channel=9 note=42 velocity=83 time=0.057291666666666664
EXTRACT: note_on channel=9 note=42 velocity=0 time=0.08854166666666666
EXTRACT: note_on channel=3 note=69 velocity=0 time=0.020833333333333332
EXTRACT: note_on channel=9 note=36 velocity=102 time=0.046875
EXTRACT: note_on channel=9 note=76 velocity=61 time=0
EXTRACT: note_on channel=3 note=69 velocity=98 time=0
EXTRACT: note_on channel=7 note=74 velocity=83 time=0
EXTRACT: note_on channel=9 note=76 velocity=0 time=0.041666666666666664
EXTRACT: note_on channel=9 note=36 velocity=0 time=0.05208333333333333
EXTRACT: note_on channel=3 note=69 velocity=0 time=0.057291666666666664
EXTRACT: note_on channel=3 note=66 velocity=91 time=0.005208333333333333
EXTRACT: note_on channel=3 note=66 velocity=0 time=0.07291666666666666
EXTRACT: note_on channel=9 note=39 velocity=83 time=0.08333333333333333
EXTRACT: note_on channel=9 note=40 velocity=81 time=0
EXTRACT: note_on channel=9 note=42 velocity=88 time=0
EXTRACT: note_on channel=3 note=69 velocity=105 time=0
EXTRACT: note_on channel=9 note=40 velocity=0 time=0.06770833333333333
EXTRACT: note_on channel=9 note=39 velocity=0 time=0.026041666666666664
EXTRACT: note_on channel=9 note=42 velocity=0 time=0
EXTRACT: note_on channel=7 note=71 velocity=77 time=0.0625
EXTRACT: note_on channel=7 note=74 velocity=0 time=0.020833333333333332
EXTRACT: note_on channel=3 note=69 velocity=0 time=0.07291666666666666
EXTRACT: note_on channel=7 note=71 velocity=0 time=0.005208333333333333
EXTRACT: note_on channel=9 note=36 velocity=91 time=0.057291666666666664
EXTRACT: note_on channel=9 note=46 velocity=76 time=0
EXTRACT: note_on channel=3 note=71 velocity=107 time=0
EXTRACT: note_on channel=7 note=78 velocity=87 time=0
EXTRACT: note_on channel=9 note=36 velocity=0 time=0.06770833333333333
EXTRACT: note_on channel=9 note=46 velocity=0 time=0.005208333333333333
EXTRACT: note_on channel=3 note=71 velocity=0 time=0.005208333333333333
EXTRACT: note_on channel=3 note=71 velocity=115 time=0.078125
EXTRACT: note_on channel=7 note=78 velocity=0 time=0.06770833333333333
EXTRACT: note_on channel=3 note=71 velocity=0 time=0.08333333333333333
EXTRACT: note_on channel=9 note=36 velocity=77 time=0.005208333333333333
EXTRACT: note_on channel=9 note=42 velocity=88 time=0
EXTRACT: note_on channel=9 note=49 velocity=76 time=0
EXTRACT: note_on channel=9 note=54 velocity=54 time=0
EXTRACT: note_on channel=9 note=70 velocity=87 time=0
EXTRACT: note_on channel=1 note=35 velocity=84 time=0
EXTRACT: note_on channel=3 note=66 velocity=87 time=0
EXTRACT: note_on channel=5 note=57 velocity=63 time=0
EXTRACT: note_on channel=5 note=59 velocity=67 time=0
EXTRACT: note_on channel=5 note=62 velocity=66 time=0
EXTRACT: note_on channel=9 note=49 velocity=0 time=0.08333333333333333
EXTRACT: note_on channel=9 note=70 velocity=0 time=0
EXTRACT: note_on channel=9 note=54 velocity=0 time=0.010416666666666666
EXTRACT: note_on channel=9 note=42 velocity=0 time=0.010416666666666666
EXTRACT: note_on channel=9 note=54 velocity=38 time=0.05208333333333333
EXTRACT: note_on channel=9 note=70 velocity=63 time=0
EXTRACT: note_on channel=5 note=59 velocity=0 time=0.046875
EXTRACT: note_on channel=5 note=62 velocity=0 time=0
EXTRACT: note_on channel=3 note=66 velocity=0 time=0.020833333333333332
EXTRACT: note_on channel=9 note=54 velocity=0 time=0.010416666666666666
EXTRACT: note_on channel=5 note=57 velocity=0 time=0.020833333333333332
EXTRACT: note_on channel=9 note=70 velocity=0 time=0.005208333333333333
EXTRACT: note_on channel=9 note=42 velocity=46 time=0.05208333333333333
EXTRACT: note_on channel=9 note=54 velocity=44 time=0
EXTRACT: note_on channel=9 note=69 velocity=68 time=0
EXTRACT: note_on channel=9 note=70 velocity=46 time=0
EXTRACT: note_on channel=3 note=66 velocity=96 time=0
EXTRACT: note_on channel=4 note=66 velocity=81 time=0
EXTRACT: note_on channel=7 note=74 velocity=95 time=0
EXTRACT: note_on channel=1 note=35 velocity=0 time=0.015625
EXTRACT: note_on channel=9 note=70 velocity=0 time=0.03125
EXTRACT: note_on channel=9 note=69 velocity=0 time=0.010416666666666666
EXTRACT: note_on channel=9 note=54 velocity=0 time=0.010416666666666666
EXTRACT: note_on channel=9 note=42 velocity=0 time=0.015625
EXTRACT: note_on channel=7 note=74 velocity=0 time=0
EXTRACT: note_on channel=3 note=66 velocity=0 time=0.03645833333333333
EXTRACT: note_on channel=4 note=66 velocity=0 time=0
EXTRACT: note_on channel=9 note=36 velocity=0 time=0.005208333333333333
EXTRACT: note_on channel=9 note=54 velocity=36 time=0.03125
EXTRACT: note_on channel=9 note=70 velocity=61 time=0
EXTRACT: note_on channel=3 note=66 velocity=88 time=0
EXTRACT: note_on channel=4 note=66 velocity=73 time=0
EXTRACT: note_on channel=9 note=54 velocity=0 time=0.05208333333333333
EXTRACT: note_on channel=3 note=66 velocity=0 time=0.03645833333333333
EXTRACT: note_on channel=4 note=66 velocity=0 time=0
EXTRACT: note_on channel=9 note=70 velocity=0 time=0.005208333333333333
EXTRACT: note_on channel=9 note=36 velocity=81 time=0.0625
EXTRACT: note_on channel=9 note=39 velocity=84 time=0
EXTRACT: note_on channel=9 note=40 velocity=82 time=0
EXTRACT: note_on channel=9 note=42 velocity=91 time=0
EXTRACT: note_on channel=9 note=54 velocity=61 time=0
EXTRACT: note_on channel=9 note=70 velocity=91 time=0
EXTRACT: note_on channel=3 note=66 velocity=95 time=0
EXTRACT: note_on channel=4 note=66 velocity=80 time=0
EXTRACT: note_on channel=9 note=40 velocity=0 time=0.06770833333333333
EXTRACT: note_on channel=9 note=70 velocity=0 time=0.020833333333333332
EXTRACT: note_on channel=9 note=39 velocity=0 time=0.010416666666666666
EXTRACT: note_on channel=9 note=54 velocity=0 time=0
EXTRACT: note_on channel=9 note=42 velocity=0 time=0.03645833333333333
EXTRACT: note_on channel=9 note=54 velocity=52 time=0.020833333333333332
EXTRACT: note_on channel=9 note=70 velocity=63 time=0
EXTRACT: note_on channel=7 note=71 velocity=93 time=0
EXTRACT: note_on channel=3 note=66 velocity=0 time=0.08333333333333333
EXTRACT: note_on channel=4 note=66 velocity=0 time=0
EXTRACT: note_on channel=9 note=70 velocity=0 time=0.005208333333333333
EXTRACT: note_on channel=9 note=54 velocity=0 time=0.005208333333333333
EXTRACT: note_on channel=9 note=42 velocity=46 time=0.0625
EXTRACT: note_on channel=9 note=54 velocity=46 time=0
EXTRACT: note_on channel=9 note=70 velocity=80 time=0
EXTRACT: note_on channel=3 note=66 velocity=93 time=0
EXTRACT: note_on channel=4 note=66 velocity=78 time=0
EXTRACT: note_on channel=9 note=54 velocity=0 time=0.06770833333333333
EXTRACT: note_on channel=9 note=70 velocity=0 time=0.010416666666666666
EXTRACT: note_on channel=7 note=71 velocity=0 time=0.020833333333333332
EXTRACT: note_on channel=3 note=66 velocity=0 time=0
EXTRACT: note_on channel=4 note=66 velocity=0 time=0
EXTRACT: note_on channel=9 note=42 velocity=0 time=0.015625
EXTRACT: note_on channel=9 note=36 velocity=0 time=0.010416666666666666
EXTRACT: note_on channel=9 note=54 velocity=57 time=0.03125
EXTRACT: note_on channel=9 note=70 velocity=62 time=0
EXTRACT: note_on channel=3 note=66 velocity=94 time=0
EXTRACT: note_on channel=4 note=66 velocity=79 time=0
EXTRACT: note_on channel=9 note=54 velocity=0 time=0.046875
EXTRACT: note_on channel=9 note=70 velocity=0 time=0.046875
EXTRACT: note_on channel=9 note=36 velocity=78 time=0.0625
EXTRACT: note_on channel=9 note=42 velocity=80 time=0
EXTRACT: note_on channel=9 note=54 velocity=54 time=0
EXTRACT: note_on channel=9 note=70 velocity=88 time=0
EXTRACT: note_on channel=7 note=69 velocity=95 time=0
EXTRACT: note_on channel=3 note=66 velocity=0 time=0.09375
EXTRACT: note_on channel=4 note=66 velocity=0 time=0
EXTRACT: note_on channel=9 note=54 velocity=0 time=0
EXTRACT: note_on channel=9 note=70 velocity=0 time=0.005208333333333333
EXTRACT: note_on channel=7 note=69 velocity=0 time=0.010416666666666666
EXTRACT: note_on channel=9 note=42 velocity=0 time=0.020833333333333332
EXTRACT: note_on channel=9 note=54 velocity=38 time=0.026041666666666664
EXTRACT: note_on channel=9 note=70 velocity=66 time=0
EXTRACT: note_on channel=3 note=69 velocity=88 time=0
EXTRACT: note_on channel=4 note=69 velocity=73 time=0
EXTRACT: note_on channel=7 note=71 velocity=82 time=0
EXTRACT: note_on channel=9 note=70 velocity=0 time=0.07291666666666666
EXTRACT: note_on channel=9 note=54 velocity=0 time=0.005208333333333333
EXTRACT: note_on channel=3 note=69 velocity=0 time=0.005208333333333333
EXTRACT: note_on channel=4 note=69 velocity=0 time=0
EXTRACT: note_on channel=7 note=71 velocity=0 time=0
EXTRACT: note_on channel=9 note=42 velocity=50 time=0.07291666666666666
EXTRACT: note_on channel=9 note=54 velocity=44 time=0
EXTRACT: note_on channel=9 note=69 velocity=61 time=0
EXTRACT: note_on channel=9 note=70 velocity=61 time=0
EXTRACT: note_on channel=3 note=69 velocity=102 time=0
EXTRACT: note_on channel=4 note=69 velocity=87 time=0
EXTRACT: note_on channel=7 note=71 velocity=87 time=0
EXTRACT: note_on channel=9 note=54 velocity=0 time=0.06770833333333333
EXTRACT: note_on channel=9 note=70 velocity=0 time=0
EXTRACT: note_on channel=9 note=69 velocity=0 time=0.005208333333333333
EXTRACT: note_on channel=9 note=42 velocity=0 time=0.026041666666666664
EXTRACT: note_on channel=7 note=71 velocity=0 time=0
EXTRACT: note_on channel=9 note=36 velocity=0 time=0.020833333333333332
EXTRACT: note_on channel=9 note=54 velocity=36 time=0.03645833333333333
EXTRACT: note_on channel=9 note=69 velocity=48 time=0
EXTRACT: note_on channel=9 note=70 velocity=58 time=0
EXTRACT: note_on channel=7 note=69 velocity=86 time=0
EXTRACT: note_on channel=3 note=69 velocity=0 time=0.046875
EXTRACT: note_on channel=4 note=69 velocity=0 time=0
EXTRACT: note_on channel=9 note=54 velocity=0 time=0.005208333333333333
EXTRACT: note_on channel=9 note=69 velocity=0 time=0.015625
EXTRACT: note_on channel=7 note=69 velocity=0 time=0.015625
EXTRACT: note_on channel=9 note=70 velocity=0 time=0.015625
EXTRACT: note_on channel=9 note=36 velocity=82 time=0.057291666666666664
EXTRACT: note_on channel=9 note=39 velocity=82 time=0
EXTRACT: note_on channel=9 note=40 velocity=80 time=0
EXTRACT: note_on channel=9 note=42 velocity=84 time=0
EXTRACT: note_on channel=9 note=54 velocity=61 time=0
EXTRACT: note_on channel=9 note=69 velocity=52 time=0
EXTRACT: note_on channel=9 note=70 velocity=89 time=0
EXTRACT: note_on channel=3 note=69 velocity=104 time=0
EXTRACT: note_on channel=4 note=69 velocity=89 time=0
EXTRACT: note_on channel=7 note=71 velocity=88 time=0
EXTRACT: note_on channel=3 note=69 velocity=0 time=0.07291666666666666
EXTRACT: note_on channel=4 note=69 velocity=0 time=0
EXTRACT: note_on channel=9 note=69 velocity=0 time=0.010416666666666666
EXTRACT: note_on channel=9 note=70 velocity=0 time=0.010416666666666666
EXTRACT: note_on channel=9 note=54 velocity=0 time=0.005208333333333333
EXTRACT: note_on channel=9 note=39 velocity=0 time=0.005208333333333333
EXTRACT: note_on channel=7 note=71 velocity=0 time=0
EXTRACT: note_on channel=9 note=40 velocity=0 time=0.005208333333333333
EXTRACT: note_on channel=9 note=42 velocity=0 time=0.041666666666666664
EXTRACT: note_on channel=9 note=54 velocity=52 time=0.005208333333333333
EXTRACT: note_on channel=9 note=70 velocity=71 time=0
EXTRACT: note_on channel=3 note=69 velocity=101 time=0
EXTRACT: note_on channel=4 note=69 velocity=86 time=0
EXTRACT: note_on channel=9 note=54 velocity=0 time=0.09375
EXTRACT: note_on channel=9 note=70 velocity=0 time=0.005208333333333333
EXTRACT: note_on channel=3 note=69 velocity=0 time=0.010416666666666666
EXTRACT: note_on channel=4 note=69 velocity=0 time=0
EXTRACT: note_on channel=9 note=42 velocity=52 time=0.046875
EXTRACT: note_on channel=9 note=54 velocity=46 time=0
EXTRACT: note_on channel=9 note=70 velocity=71 time=0
EXTRACT: note_on channel=1 note=33 velocity=80 time=0
EXTRACT: note_on channel=3 note=71 velocity=98 time=0
EXTRACT: note_on channel=4 note=71 velocity=83 time=0
EXTRACT: note_on channel=5 note=52 velocity=59 time=0
EXTRACT: note_on channel=5 note=57 velocity=58 time=0
EXTRACT: note_on channel=5 note=59 velocity=67 time=0
EXTRACT: note_on channel=5 note=62 velocity=63 time=0
EXTRACT: note_on channel=7 note=78 velocity=94 time=0
EXTRACT: note_on channel=9 note=54 velocity=0 time=0.06770833333333333
EXTRACT: note_on channel=9 note=70 velocity=0 time=0.015625
EXTRACT: note_on channel=9 note=42 velocity=0 time=0.015625
EXTRACT: note_on channel=9 note=36 velocity=0 time=0.03645833333333333
EXTRACT: note_on channel=1 note=33 velocity=0 time=0.015625
EXTRACT: note_on channel=7 note=78 velocity=0 time=0.005208333333333333
EXTRACT: note_on channel=9 note=42 velocity=40 time=0
EXTRACT: note_on channel=9 note=54 velocity=57 time=0
EXTRACT: note_on channel=9 note=70 velocity=61 time=0
EXTRACT: note_on channel=1 note=34 velocity=71 time=0
EXTRACT: note_on channel=9 note=54 velocity=0 time=0.046875
EXTRACT: note_on channel=3 note=71 velocity=0 time=0.020833333333333332
EXTRACT: note_on channel=4 note=71 velocity=0 time=0
EXTRACT: note_on channel=5 note=62 velocity=0 time=0.015625
EXTRACT: note_on channel=5 note=59 velocity=0 time=0.005208333333333333
EXTRACT: note_on channel=9 note=42 velocity=0 time=0.010416666666666666
EXTRACT: note_on channel=9 note=70 velocity=0 time=0
EXTRACT: note_on channel=5 note=57 velocity=0 time=0.020833333333333332
EXTRACT: note_on channel=5 note=52 velocity=0 time=0.005208333333333333
EXTRACT: note_on channel=1 note=34 velocity=0 time=0.026041666666666664
EXTRACT: note_on channel=9 note=36 velocity=83 time=0.005208333333333333
EXTRACT: note_on channel=9 note=42 velocity=77 time=0
EXTRACT: note_on channel=9 note=54 velocity=54 time=0
EXTRACT: note_on channel=9 note=70 velocity=90 time=0
EXTRACT: note_on channel=1 note=35 velocity=81 time=0
EXTRACT: note_on channel=3 note=66 velocity=97 time=0
EXTRACT: note_on channel=4 note=66 velocity=82 time=0
EXTRACT: note_on channel=9 note=54 velocity=0 time=0.09375
EXTRACT: note_on channel=9 note=70 velocity=0 time=0.005208333333333333
EXTRACT: note_on channel=9 note=54 velocity=38 time=0.057291666666666664
EXTRACT: note_on channel=9 note=70 velocity=70 time=0
EXTRACT: note_on channel=9 note=42 velocity=0 time=0.015625
EXTRACT: note_on channel=3 note=66 velocity=0 time=0.026041666666666664
EXTRACT: note_on channel=4 note=66 velocity=0 time=0
EXTRACT: note_on channel=9 note=70 velocity=0 time=0.005208333333333333
EXTRACT: note_on channel=1 note=35 velocity=0 time=0.03125
EXTRACT: note_on channel=9 note=54 velocity=0 time=0
EXTRACT: note_on channel=9 note=42 velocity=54 time=0.078125
EXTRACT: note_on channel=9 note=54 velocity=44 time=0
EXTRACT: note_on channel=9 note=69 velocity=71 time=0
EXTRACT: note_on channel=9 note=70 velocity=71 time=0
EXTRACT: note_on channel=3 note=66 velocity=102 time=0
EXTRACT: note_on channel=4 note=66 velocity=87 time=0
EXTRACT: note_on channel=7 note=74 velocity=95 time=0
EXTRACT: note_on channel=9 note=54 velocity=0 time=0.06770833333333333
EXTRACT: note_on channel=9 note=69 velocity=0 time=0
EXTRACT: note_on channel=9 note=70 velocity=0 time=0.015625
EXTRACT: note_on channel=7 note=74 velocity=0 time=0
EXTRACT: note_on channel=9 note=36 velocity=0 time=0.020833333333333332
EXTRACT: note_on channel=9 note=42 velocity=0 time=0.005208333333333333
EXTRACT: note_on channel=9 note=54 velocity=36 time=0.046875
EXTRACT: note_on channel=9 note=70 velocity=56 time=0
EXTRACT: note_on channel=3 note=66 velocity=0 time=0.020833333333333332
EXTRACT: note_on channel=4 note=66 velocity=0 time=0
EXTRACT: note_on channel=9 note=54 velocity=0 time=0.03125
EXTRACT: note_on channel=9 note=70 velocity=0 time=0.046875
EXTRACT: note_on channel=9 note=36 velocity=84 time=0.057291666666666664
EXTRACT: note_on channel=9 note=39 velocity=84 time=0
EXTRACT: note_on channel=9 note=40 velocity=82 time=0
EXTRACT: note_on channel=9 note=42 velocity=79 time=0
EXTRACT: note_on channel=9 note=54 velocity=61 time=0
EXTRACT: note_on channel=9 note=70 velocity=87 time=0
EXTRACT: note_on channel=3 note=66 velocity=98 time=0
EXTRACT: note_on channel=4 note=66 velocity=83 time=0
EXTRACT: note_on channel=9 note=40 velocity=0 time=0.06770833333333333
EXTRACT: note_on channel=9 note=70 velocity=0 time=0.026041666666666664
EXTRACT: note_on channel=9 note=39 velocity=0 time=0.005208333333333333
EXTRACT: note_on channel=9 note=54 velocity=0 time=0
EXTRACT: note_on channel=9 note=54 velocity=52 time=0.057291666666666664
EXTRACT: note_on channel=9 note=70 velocity=74 time=0
EXTRACT: note_on channel=7 note=71 velocity=93 time=0
EXTRACT: note_on channel=9 note=42 velocity=0 time=0.020833333333333332
EXTRACT: note_on channel=3 note=66 velocity=0 time=0.06770833333333333
EXTRACT: note_on channel=4 note=66 velocity=0 time=0
EXTRACT: note_on channel=9 note=54 velocity=0 time=0.005208333333333333
EXTRACT: note_on channel=9 note=70 velocity=0 time=0.005208333333333333
EXTRACT: note_on channel=9 note=42 velocity=54 time=0.057291666666666664
EXTRACT: note_on channel=9 note=54 velocity=46 time=0
EXTRACT: note_on channel=9 note=69 velocity=64 time=0
EXTRACT: note_on channel=9 note=70 velocity=72 time=0
EXTRACT: note_on channel=3 note=66 velocity=87 time=0
EXTRACT: note_on channel=4 note=66 velocity=72 time=0
EXTRACT: note_on channel=9 note=69 velocity=0 time=0.0625
EXTRACT: note_on channel=9 note=54 velocity=0 time=0.005208333333333333
EXTRACT: note_on channel=9 note=70 velocity=0 time=0.015625
EXTRACT: note_on channel=3 note=66 velocity=0 time=0.010416666666666666
EXTRACT: note_on channel=4 note=66 velocity=0 time=0
EXTRACT: note_on channel=7 note=71 velocity=0 time=0.005208333333333333
EXTRACT: note_on channel=9 note=36 velocity=0 time=0.010416666666666666
EXTRACT: note_on channel=9 note=42 velocity=0 time=0.005208333333333333
EXTRACT: note_on channel=9 note=54 velocity=57 time=0.041666666666666664
EXTRACT: note_on channel=9 note=70 velocity=66 time=0
EXTRACT: note_on channel=3 note=66 velocity=90 time=0
EXTRACT: note_on channel=4 note=66 velocity=75 time=0
EXTRACT: note_on channel=9 note=54 velocity=0 time=0.046875
EXTRACT: note_on channel=9 note=70 velocity=0 time=0.05208333333333333
EXTRACT: note_on channel=9 note=36 velocity=81 time=0.057291666666666664
EXTRACT: note_on channel=9 note=42 velocity=87 time=0
EXTRACT: note_on channel=9 note=54 velocity=54 time=0
EXTRACT: note_on channel=9 note=70 velocity=93 time=0
EXTRACT: note_on channel=7 note=69 velocity=95 time=0
EXTRACT: note_on channel=3 note=66 velocity=0 time=0.08854166666666666
EXTRACT: note_on channel=4 note=66 velocity=0 time=0
EXTRACT: note_on channel=9 note=54 velocity=0 time=0.005208333333333333
EXTRACT: note_on channel=9 note=70 velocity=0 time=0.015625
EXTRACT: note_on channel=7 note=69 velocity=0 time=0
EXTRACT: note_on channel=9 note=42 velocity=0 time=0.041666666666666664
EXTRACT: note_on channel=9 note=54 velocity=38 time=0.005208333333333333
EXTRACT: note_on channel=9 note=70 velocity=59 time=0
EXTRACT: note_on channel=3 note=66 velocity=94 time=0
EXTRACT: note_on channel=4 note=66 velocity=79 time=0
EXTRACT: note_on channel=7 note=71 velocity=82 time=0
EXTRACT: note_on channel=9 note=54 velocity=0 time=0.078125
EXTRACT: note_on channel=7 note=71 velocity=0 time=0.005208333333333333
EXTRACT: note_on channel=9 note=70 velocity=0 time=0.010416666666666666
EXTRACT: note_on channel=3 note=66 velocity=0 time=0.010416666666666666
EXTRACT: note_on channel=4 note=66 velocity=0 time=0
EXTRACT: note_on channel=9 note=42 velocity=46 time=0.05208333333333333
EXTRACT: note_on channel=9 note=54 velocity=44 time=0
EXTRACT: note_on channel=9 note=69 velocity=60 time=0
EXTRACT: note_on channel=9 note=70 velocity=78 time=0
EXTRACT: note_on channel=3 note=69 velocity=105 time=0
EXTRACT: note_on channel=4 note=69 velocity=90 time=0
EXTRACT: note_on channel=7 note=71 velocity=87 time=0
EXTRACT: note_on channel=9 note=54 velocity=0 time=0.06770833333333333
EXTRACT: note_on channel=9 note=69 velocity=0 time=0.020833333333333332
EXTRACT: note_on channel=9 note=70 velocity=0 time=0.005208333333333333
EXTRACT: note_on channel=7 note=71 velocity=0 time=0.005208333333333333
EXTRACT: note_on channel=9 note=36 velocity=0 time=0.005208333333333333
EXTRACT: note_on channel=9 note=42 velocity=0 time=0.020833333333333332
EXTRACT: note_on channel=9 note=54 velocity=36 time=0.03125
EXTRACT: note_on channel=9 note=69 velocity=55 time=0
EXTRACT: note_on channel=9 note=70 velocity=74 time=0
EXTRACT: note_on channel=7 note=69 velocity=86 time=0
EXTRACT: note_on channel=9 note=54 velocity=0 time=0.05208333333333333
EXTRACT: note_on channel=3 note=69 velocity=0 time=0.005208333333333333
EXTRACT: note_on channel=4 note=69 velocity=0 time=0
EXTRACT: note_on channel=9 note=69 velocity=0 time=0.026041666666666664
EXTRACT: note_on channel=7 note=69 velocity=0 time=0
EXTRACT: note_on channel=9 note=70 velocity=0 time=0.005208333333333333
EXTRACT: note_on channel=9 note=36 velocity=82 time=0.06770833333333333
EXTRACT: note_on channel=9 note=39 velocity=82 time=0
EXTRACT: note_on channel=9 note=40 velocity=80 time=0
EXTRACT: note_on channel=9 note=42 velocity=78 time=0
EXTRACT: note_on channel=9 note=54 velocity=61 time=0
EXTRACT: note_on channel=9 note=69 velocity=50 time=0
EXTRACT: note_on channel=9 note=70 velocity=87 time=0
EXTRACT: note_on channel=3 note=69 velocity=102 time=0
EXTRACT: note_on channel=4 note=69 velocity=87 time=0
EXTRACT: note_on channel=7 note=71 velocity=88 time=0
EXTRACT: note_on channel=3 note=69 velocity=0 time=0.07291666666666666
EXTRACT: note_on channel=4 note=69 velocity=0 time=0
EXTRACT: note_on channel=9 note=69 velocity=0 time=0.015625
EXTRACT: note_on channel=9 note=54 velocity=0 time=0.010416666666666666
EXTRACT: note_on channel=9 note=70 velocity=0 time=0
EXTRACT: note_on channel=9 note=39 velocity=0 time=0.005208333333333333
EXTRACT: note_on channel=7 note=71 velocity=0 time=0
EXTRACT: note_on channel=9 note=40 velocity=0 time=0.005208333333333333
EXTRACT: note_on channel=9 note=42 velocity=0 time=0.041666666666666664
EXTRACT: note_on channel=9 note=54 velocity=52 time=0.005208333333333333
EXTRACT: note_on channel=9 note=70 velocity=74 time=0
EXTRACT: note_on channel=3 note=69 velocity=100 time=0
EXTRACT: note_on channel=4 note=69 velocity=85 time=0
EXTRACT: note_on channel=3 note=69 velocity=0 time=0.07291666666666666
EXTRACT: note_on channel=4 note=69 velocity=0 time=0
EXTRACT: note_on channel=9 note=54 velocity=0 time=0.020833333333333332
EXTRACT: note_on channel=9 note=70 velocity=0 time=0
EXTRACT: note_on channel=9 note=46 velocity=49 time=0.0625
EXTRACT: note_on channel=9 note=54 velocity=46 time=0
EXTRACT: note_on channel=9 note=70 velocity=58 time=0
EXTRACT: note_on channel=1 note=33 velocity=74 time=0
EXTRACT: note_on channel=3 note=69 velocity=104 time=0
EXTRACT: note_on channel=4 note=69 velocity=89 time=0
EXTRACT: note_on channel=7 note=78 velocity=94 time=0
EXTRACT: note_on channel=9 note=54 velocity=0 time=0.06770833333333333
EXTRACT: note_on channel=9 note=46 velocity=0 time=0.026041666666666664
EXTRACT: note_on channel=9 note=70 velocity=0 time=0.005208333333333333
EXTRACT: note_on channel=1 note=33 velocity=0 time=0.05208333333333333
EXTRACT: note_on channel=7 note=78 velocity=0 time=0.005208333333333333
EXTRACT: note_on channel=9 note=54 velocity=57 time=0
EXTRACT: note_on channel=9 note=70 velocity=61 time=0
EXTRACT: note_on channel=1 note=34 velocity=68 time=0
EXTRACT: note_on channel=9 note=36 velocity=0 time=0.020833333333333332
EXTRACT: note_on channel=9 note=54 velocity=0 time=0.026041666666666664
EXTRACT: note_on channel=9 note=70 velocity=0 time=0.041666666666666664
EXTRACT: note_on channel=3 note=69 velocity=0 time=0.0625
EXTRACT: note_on channel=4 note=69 velocity=0 time=0
EXTRACT: note_on channel=1 note=34 velocity=0 time=0
EXTRACT: note_on channel=9 note=36 velocity=77 time=0.005208333333333333
EXTRACT: note_on channel=9 note=42 velocity=88 time=0
EXTRACT: note_on channel=9 note=54 velocity=54 time=0
EXTRACT: note_on channel=9 note=70 velocity=87 time=0
EXTRACT: note_on channel=1 note=35 velocity=76 time=0
EXTRACT: note_on channel=3 note=66 velocity=98 time=0
EXTRACT: note_on channel=4 note=66 velocity=83 time=0
EXTRACT: note_on channel=5 note=57 velocity=63 time=0
EXTRACT: note_on channel=5 note=59 velocity=67 time=0
EXTRACT: note_on channel=5 note=62 velocity=66 time=0
EXTRACT: note_on channel=9 note=70 velocity=0 time=0.08333333333333333
EXTRACT: note_on channel=9 note=54 velocity=0 time=0.010416666666666666
EXTRACT: note_on channel=9 note=42 velocity=0 time=0.010416666666666666
EXTRACT: note_on channel=9 note=54 velocity=38 time=0.05208333333333333
EXTRACT: note_on channel=9 note=70 velocity=63 time=0
EXTRACT: note_on channel=5 note=59 velocity=0 time=0.046875
EXTRACT: note_on channel=5 note=62 velocity=0 time=0
EXTRACT: note_on channel=9 note=54 velocity=0 time=0.03125
EXTRACT: note_on channel=3 note=66 velocity=0 time=0.020833333333333332
EXTRACT: note_on channel=4 note=66 velocity=0 time=0
EXTRACT: note_on channel=5 note=57 velocity=0 time=0
EXTRACT: note_on channel=9 note=70 velocity=0 time=0.005208333333333333
EXTRACT: note_on channel=1 note=35 velocity=0 time=0.010416666666666666
EXTRACT: note_on channel=9 note=42 velocity=46 time=0.041666666666666664
EXTRACT: note_on channel=9 note=54 velocity=44 time=0
EXTRACT: note_on channel=9 note=69 velocity=68 time=0
EXTRACT: note_on channel=9 note=70 velocity=46 time=0
EXTRACT: note_on channel=3 note=69 velocity=100 time=0
EXTRACT: note_on channel=4 note=69 velocity=85 time=0
EXTRACT: note_on channel=7 note=74 velocity=95 time=0
EXTRACT: note_on channel=9 note=70 velocity=0 time=0.046875
EXTRACT: note_on channel=9 note=69 velocity=0 time=0.010416666666666666
EXTRACT: note_on channel=9 note=54 velocity=0 time=0.010416666666666666
EXTRACT: note_on channel=9 note=42 velocity=0 time=0.015625
EXTRACT: note_on channel=7 note=74 velocity=0 time=0
EXTRACT: note_on channel=9 note=36 velocity=0 time=0.041666666666666664
EXTRACT: note_on channel=3 note=69 velocity=0 time=0.03125
EXTRACT: note_on channel=4 note=69 velocity=0 time=0
EXTRACT: note_on channel=9 note=54 velocity=36 time=0
EXTRACT: note_on channel=9 note=70 velocity=61 time=0
EXTRACT: note_on channel=9 note=54 velocity=0 time=0.05208333333333333
EXTRACT: note_on channel=9 note=70 velocity=0 time=0.041666666666666664
EXTRACT: note_on channel=9 note=36 velocity=81 time=0.0625
EXTRACT: note_on channel=9 note=39 velocity=84 time=0
EXTRACT: note_on channel=9 note=40 velocity=82 time=0
EXTRACT: note_on channel=9 note=42 velocity=91 time=0
EXTRACT: note_on channel=9 note=54 velocity=61 time=0
EXTRACT: note_on channel=9 note=70 velocity=91 time=0
EXTRACT: note_on channel=3 note=66 velocity=96 time=0
EXTRACT: note_on channel=4 note=66 velocity=81 time=0
EXTRACT: note_on channel=9 note=40 velocity=0 time=0.06770833333333333
EXTRACT: note_on channel=9 note=70 velocity=0 time=0.020833333333333332
EXTRACT: note_on channel=9 note=39 velocity=0 time=0.010416666666666666
EXTRACT: note_on channel=9 note=54 velocity=0 time=0
EXTRACT: note_on channel=9 note=42 velocity=0 time=0.03645833333333333
EXTRACT: note_on channel=9 note=54 velocity=52 time=0.020833333333333332
EXTRACT: note_on channel=9 note=70 velocity=63 time=0
EXTRACT: note_on channel=7 note=71 velocity=93 time=0
EXTRACT: note_on channel=3 note=66 velocity=0 time=0.06770833333333333
EXTRACT: note_on channel=4 note=66 velocity=0 time=0
EXTRACT: note_on channel=9 note=70 velocity=0 time=0.020833333333333332
EXTRACT: note_on channel=9 note=54 velocity=0 time=0.005208333333333333
EXTRACT: note_on channel=9 note=42 velocity=46 time=0.0625
EXTRACT: note_on channel=9 note=54 velocity=46 time=0
EXTRACT: note_on channel=9 note=70 velocity=80 time=0
EXTRACT: note_on channel=3 note=69 velocity=103 time=0
EXTRACT: note_on channel=4 note=69 velocity=88 time=0
EXTRACT: note_on channel=9 note=54 velocity=0 time=0.06770833333333333
EXTRACT: note_on channel=9 note=70 velocity=0 time=0.010416666666666666
EXTRACT: note_on channel=3 note=69 velocity=0 time=0
EXTRACT: note_on channel=4 note=69 velocity=0 time=0
EXTRACT: note_on channel=7 note=71 velocity=0 time=0.020833333333333332
EXTRACT: note_on channel=9 note=42 velocity=0 time=0.015625
EXTRACT: note_on channel=9 note=36 velocity=0 time=0.010416666666666666
EXTRACT: note_on channel=9 note=54 velocity=57 time=0.03125
EXTRACT: note_on channel=9 note=70 velocity=62 time=0
EXTRACT: note_on channel=3 note=71 velocity=105 time=0
EXTRACT: note_on channel=4 note=71 velocity=90 time=0
EXTRACT: note_on channel=9 note=54 velocity=0 time=0.046875
EXTRACT: note_on channel=9 note=70 velocity=0 time=0.046875
EXTRACT: note_on channel=9 note=36 velocity=78 time=0.0625
EXTRACT: note_on channel=9 note=42 velocity=80 time=0
EXTRACT: note_on channel=9 note=54 velocity=54 time=0
EXTRACT: note_on channel=9 note=70 velocity=88 time=0
EXTRACT: note_on channel=7 note=69 velocity=95 time=0
EXTRACT: note_on channel=9 note=54 velocity=0 time=0.09375
EXTRACT: note_on channel=9 note=70 velocity=0 time=0.005208333333333333
EXTRACT: note_on channel=7 note=69 velocity=0 time=0.010416666666666666
EXTRACT: note_on channel=9 note=42 velocity=0 time=0.020833333333333332
EXTRACT: note_on channel=9 note=54 velocity=38 time=0.026041666666666664
EXTRACT: note_on channel=9 note=70 velocity=66 time=0
EXTRACT: note_on channel=7 note=71 velocity=82 time=0
EXTRACT: note_on channel=9 note=70 velocity=0 time=0.07291666666666666
EXTRACT: note_on channel=9 note=54 velocity=0 time=0.005208333333333333
EXTRACT: note_on channel=7 note=71 velocity=0 time=0.005208333333333333
EXTRACT: note_on channel=3 note=71 velocity=0 time=0.06770833333333333
EXTRACT: note_on channel=4 note=71 velocity=0 time=0
EXTRACT: note_on channel=9 note=42 velocity=50 time=0.005208333333333333
EXTRACT: note_on channel=9 note=54 velocity=44 time=0
EXTRACT: note_on channel=9 note=69 velocity=61 time=0
EXTRACT: note_on channel=9 note=70 velocity=61 time=0
EXTRACT: note_on channel=3 note=66 velocity=95 time=0
EXTRACT: note_on channel=4 note=66 velocity=80 time=0
EXTRACT: note_on channel=7 note=71 velocity=87 time=0
EXTRACT: note_on channel=9 note=54 velocity=0 time=0.06770833333333333
EXTRACT: note_on channel=9 note=70 velocity=0 time=0
EXTRACT: note_on channel=9 note=69 velocity=0 time=0.005208333333333333
EXTRACT: note_on channel=9 note=42 velocity=0 time=0.026041666666666664
EXTRACT: note_on channel=7 note=71 velocity=0 time=0
EXTRACT: note_on channel=9 note=36 velocity=0 time=0.020833333333333332
EXTRACT: note_on channel=9 note=54 velocity=36 time=0.03645833333333333
EXTRACT: note_on channel=9 note=69 velocity=48 time=0
EXTRACT: note_on channel=9 note=70 velocity=58 time=0
EXTRACT: note_on channel=7 note=69 velocity=86 time=0
EXTRACT: note_on channel=9 note=54 velocity=0 time=0.05208333333333333
EXTRACT: note_on channel=9 note=69 velocity=0 time=0.015625
EXTRACT: note_on channel=7 note=69 velocity=0 time=0.015625
EXTRACT: note_on channel=9 note=70 velocity=0 time=0.015625
EXTRACT: note_on channel=3 note=66 velocity=0 time=0.05208333333333333
EXTRACT: note_on channel=4 note=66 velocity=0 time=0
EXTRACT: note_on channel=9 note=36 velocity=82 time=0.005208333333333333
EXTRACT: note_on channel=9 note=39 velocity=82 time=0
EXTRACT: note_on channel=9 note=40 velocity=80 time=0
EXTRACT: note_on channel=9 note=42 velocity=84 time=0
EXTRACT: note_on channel=9 note=54 velocity=61 time=0
EXTRACT: note_on channel=9 note=69 velocity=52 time=0
EXTRACT: note_on channel=9 note=70 velocity=89 time=0
EXTRACT: note_on channel=3 note=64 velocity=101 time=0
EXTRACT: note_on channel=4 note=64 velocity=86 time=0
EXTRACT: note_on channel=7 note=71 velocity=88 time=0
EXTRACT: note_on channel=9 note=69 velocity=0 time=0.08333333333333333
EXTRACT: note_on channel=9 note=70 velocity=0 time=0.010416666666666666
EXTRACT: note_on channel=9 note=54 velocity=0 time=0.005208333333333333
EXTRACT: note_on channel=9 note=39 velocity=0 time=0.005208333333333333
EXTRACT: note_on channel=7 note=71 velocity=0 time=0
EXTRACT: note_on channel=9 note=40 velocity=0 time=0.005208333333333333
EXTRACT: note_on channel=9 note=42 velocity=0 time=0.041666666666666664
EXTRACT: note_on channel=3 note=64 velocity=0 time=0
EXTRACT: note_on channel=4 note=64 velocity=0 time=0
EXTRACT: note_on channel=9 note=54 velocity=52 time=0.005208333333333333
EXTRACT: note_on channel=9 note=70 velocity=71 time=0
EXTRACT: note_on channel=3 note=66 velocity=88 time=0
EXTRACT: note_on channel=4 note=66 velocity=73 time=0
EXTRACT: note_on channel=9 note=54 velocity=0 time=0.09375
EXTRACT: note_on channel=9 note=70 velocity=0 time=0.005208333333333333
EXTRACT: note_on channel=3 note=66 velocity=0 time=0.010416666666666666
EXTRACT: note_on channel=4 note=66 velocity=0 time=0
EXTRACT: note_on channel=9 note=42 velocity=52 time=0.046875
EXTRACT: note_on channel=9 note=54 velocity=46 time=0
EXTRACT: note_on channel=9 note=70 velocity=71 time=0
EXTRACT: note_on channel=1 note=33 velocity=78 time=0
EXTRACT: note_on channel=3 note=69 velocity=107 time=0
EXTRACT: note_on channel=4 note=69 velocity=92 time=0
EXTRACT: note_on channel=5 note=52 velocity=59 time=0
EXTRACT: note_on channel=5 note=57 velocity=58 time=0
EXTRACT: note_on channel=5 note=59 velocity=67 time=0
EXTRACT: note_on channel=5 note=62 velocity=63 time=0
EXTRACT: note_on channel=7 note=78 velocity=94 time=0
EXTRACT: note_on channel=9 note=54 velocity=0 time=0.06770833333333333
EXTRACT: note_on channel=9 note=70 velocity=0 time=0.015625
EXTRACT: note_on channel=3 note=69 velocity=0 time=0
EXTRACT: note_on channel=4 note=69 velocity=0 time=0
EXTRACT: note_on channel=9 note=42 velocity=0 time=0.015625
EXTRACT: note_on channel=9 note=36 velocity=0 time=0.03645833333333333
EXTRACT: note_on channel=1 note=33 velocity=0 time=0.015625
EXTRACT: note_on channel=7 note=78 velocity=0 time=0.005208333333333333
EXTRACT: note_on channel=9 note=42 velocity=40 time=0
EXTRACT: note_on channel=9 note=54 velocity=57 time=0
EXTRACT: note_on channel=9 note=70 velocity=61 time=0
EXTRACT: note_on channel=1 note=34 velocity=70 time=0
EXTRACT: note_on channel=9 note=54 velocity=0 time=0.046875
EXTRACT: note_on channel=5 note=62 velocity=0 time=0.03645833333333333
EXTRACT: note_on channel=5 note=59 velocity=0 time=0.005208333333333333
EXTRACT: note_on channel=9 note=42 velocity=0 time=0.010416666666666666
EXTRACT: note_on channel=9 note=70 velocity=0 time=0
EXTRACT: note_on channel=5 note=57 velocity=0 time=0.020833333333333332
EXTRACT: note_on channel=5 note=52 velocity=0 time=0.005208333333333333
EXTRACT: note_on channel=1 note=34 velocity=0 time=0.026041666666666664
EXTRACT: note_on channel=9 note=36 velocity=83 time=0.005208333333333333
EXTRACT: note_on channel=9 note=42 velocity=77 time=0
EXTRACT: note_on channel=9 note=54 velocity=54 time=0
EXTRACT: note_on channel=9 note=70 velocity=90 time=0
EXTRACT: note_on channel=1 note=35 velocity=83 time=0
EXTRACT: note_on channel=3 note=66 velocity=103 time=0
EXTRACT: note_on channel=4 note=66 velocity=88 time=0
EXTRACT: note_on channel=9 note=54 velocity=0 time=0.09375
EXTRACT: note_on channel=9 note=70 velocity=0 time=0.005208333333333333
EXTRACT: note_on channel=9 note=54 velocity=38 time=0.057291666666666664
EXTRACT: note_on channel=9 note=70 velocity=70 time=0
EXTRACT: note_on channel=9 note=42 velocity=0 time=0.015625
EXTRACT: note_on channel=9 note=70 velocity=0 time=0.03125
EXTRACT: note_on channel=9 note=54 velocity=0 time=0.03125
EXTRACT: note_on channel=3 note=66 velocity=0 time=0.020833333333333332
EXTRACT: note_on channel=4 note=66 velocity=0 time=0
EXTRACT: note_on channel=9 note=42 velocity=54 time=0.057291666666666664
EXTRACT: note_on channel=9 note=54 velocity=44 time=0
EXTRACT: note_on channel=9 note=69 velocity=71 time=0
EXTRACT: note_on channel=9 note=70 velocity=71 time=0
EXTRACT: note_on channel=3 note=69 velocity=104 time=0
EXTRACT: note_on channel=4 note=69 velocity=89 time=0
EXTRACT: note_on channel=7 note=74 velocity=95 time=0
EXTRACT: note_on channel=1 note=35 velocity=0 time=0.020833333333333332
EXTRACT: note_on channel=9 note=54 velocity=0 time=0.046875
EXTRACT: note_on channel=9 note=69 velocity=0 time=0
EXTRACT: note_on channel=9 note=70 velocity=0 time=0.015625
EXTRACT: note_on channel=7 note=74 velocity=0 time=0
EXTRACT: note_on channel=9 note=36 velocity=0 time=0.020833333333333332
EXTRACT: note_on channel=9 note=42 velocity=0 time=0.005208333333333333
EXTRACT: note_on channel=9 note=54 velocity=36 time=0.046875
EXTRACT: note_on channel=9 note=70 velocity=56 time=0
EXTRACT: note_on channel=3 note=69 velocity=0 time=0.03125
EXTRACT: note_on channel=4 note=69 velocity=0 time=0
EXTRACT: note_on channel=9 note=54 velocity=0 time=0.020833333333333332
EXTRACT: note_on channel=9 note=70 velocity=0 time=0.046875
EXTRACT: note_on channel=9 note=36 velocity=84 time=0.057291666666666664
EXTRACT: note_on channel=9 note=39 velocity=84 time=0
EXTRACT: note_on channel=9 note=40 velocity=82 time=0
EXTRACT: note_on channel=9 note=42 velocity=79 time=0
EXTRACT: note_on channel=9 note=54 velocity=61 time=0
EXTRACT: note_on channel=9 note=70 velocity=87 time=0
EXTRACT: note_on channel=3 note=66 velocity=97 time=0
EXTRACT: note_on channel=4 note=66 velocity=82 time=0
EXTRACT: note_on channel=9 note=40 velocity=0 time=0.06770833333333333
EXTRACT: note_on channel=9 note=70 velocity=0 time=0.026041666666666664
EXTRACT: note_on channel=9 note=39 velocity=0 time=0.005208333333333333
EXTRACT: note_on channel=9 note=54 velocity=0 time=0
EXTRACT: note_on channel=9 note=54 velocity=52 time=0.057291666666666664
EXTRACT: note_on channel=9 note=70 velocity=74 time=0
EXTRACT: note_on channel=7 note=71 velocity=93 time=0
EXTRACT: note_on channel=9 note=42 velocity=0 time=0.020833333333333332
EXTRACT: note_on channel=3 note=66 velocity=0 time=0.07291666666666666
EXTRACT: note_on channel=4 note=66 velocity=0 time=0
EXTRACT: note_on channel=9 note=54 velocity=0 time=0
EXTRACT: note_on channel=9 note=70 velocity=0 time=0.005208333333333333
EXTRACT: note_on channel=9 note=42 velocity=54 time=0.057291666666666664
EXTRACT: note_on channel=9 note=54 velocity=46 time=0
EXTRACT: note_on channel=9 note=69 velocity=64 time=0
EXTRACT: note_on channel=9 note=70 velocity=72 time=0
EXTRACT: note_on channel=3 note=69 velocity=100 time=0
EXTRACT: note_on channel=4 note=69 velocity=85 time=0
EXTRACT: note_on channel=9 note=69 velocity=0 time=0.0625
EXTRACT: note_on channel=9 note=54 velocity=0 time=0.005208333333333333
EXTRACT: note_on channel=3 note=69 velocity=0 time=0.010416666666666666
EXTRACT: note_on channel=4 note=69 velocity=0 time=0
EXTRACT: note_on channel=9 note=70 velocity=0 time=0.005208333333333333
EXTRACT: note_on channel=7 note=71 velocity=0 time=0.015625
EXTRACT: note_on channel=9 note=36 velocity=0 time=0.010416666666666666
EXTRACT: note_on channel=9 note=42 velocity=0 time=0.005208333333333333
EXTRACT: note_on channel=9 note=54 velocity=57 time=0.041666666666666664
EXTRACT: note_on channel=9 note=70 velocity=66 time=0
EXTRACT: note_on channel=3 note=71 velocity=104 time=0
EXTRACT: note_on channel=4 note=71 velocity=89 time=0
EXTRACT: note_on channel=9 note=54 velocity=0 time=0.046875
EXTRACT: note_on channel=9 note=70 velocity=0 time=0.05208333333333333
EXTRACT: note_on channel=9 note=36 velocity=81 time=0.057291666666666664
EXTRACT: note_on channel=9 note=42 velocity=87 time=0
EXTRACT: note_on channel=9 note=54 velocity=54 time=0
EXTRACT: note_on channel=9 note=70 velocity=93 time=0
EXTRACT: note_on channel=7 note=69 velocity=95 time=0
EXTRACT: note_on channel=9 note=54 velocity=0 time=0.09375
EXTRACT: note_on channel=9 note=70 velocity=0 time=0.015625
EXTRACT: note_on channel=7 note=69 velocity=0 time=0
EXTRACT: note_on channel=3 note=71 velocity=0 time=0.041666666666666664
EXTRACT: note_on channel=4 note=71 velocity=0 time=0
EXTRACT: note_on channel=9 note=42 velocity=0 time=0
EXTRACT: note_on channel=9 note=54 velocity=38 time=0.005208333333333333
EXTRACT: note_on channel=9 note=70 velocity=59 time=0
EXTRACT: note_on channel=3 note=69 velocity=90 time=0
EXTRACT: note_on channel=4 note=69 velocity=75 time=0
EXTRACT: note_on channel=7 note=71 velocity=82 time=0
EXTRACT: note_on channel=9 note=54 velocity=0 time=0.078125
EXTRACT: note_on channel=7 note=71 velocity=0 time=0.005208333333333333
EXTRACT: note_on channel=9 note=70 velocity=0 time=0.010416666666666666
EXTRACT: note_on channel=3 note=69 velocity=0 time=0.005208333333333333
EXTRACT: note_on channel=4 note=69 velocity=0 time=0
EXTRACT: note_on channel=9 note=42 velocity=46 time=0.057291666666666664
EXTRACT: note_on channel=9 note=54 velocity=44 time=0
EXTRACT: note_on channel=9 note=69 velocity=60 time=0
EXTRACT: note_on channel=9 note=70 velocity=78 time=0
EXTRACT: note_on channel=3 note=66 velocity=95 time=0
EXTRACT: note_on channel=4 note=66 velocity=80 time=0
EXTRACT: note_on channel=7 note=71 velocity=87 time=0
EXTRACT: note_on channel=9 note=54 velocity=0 time=0.06770833333333333
EXTRACT: note_on channel=9 note=69 velocity=0 time=0.020833333333333332
EXTRACT: note_on channel=9 note=70 velocity=0 time=0.005208333333333333
EXTRACT: note_on channel=7 note=71 velocity=0 time=0.005208333333333333
EXTRACT: note_on channel=9 note=36 velocity=0 time=0.005208333333333333
EXTRACT: note_on channel=9 note=42 velocity=0 time=0.020833333333333332
EXTRACT: note_on channel=9 note=54 velocity=36 time=0.03125
EXTRACT: note_on channel=9 note=69 velocity=55 time=0
EXTRACT: note_on channel=9 note=70 velocity=74 time=0
EXTRACT: note_on channel=7 note=69 velocity=86 time=0
EXTRACT: note_on channel=9 note=54 velocity=0 time=0.05208333333333333
EXTRACT: note_on channel=9 note=69 velocity=0 time=0.03125
EXTRACT: note_on channel=7 note=69 velocity=0 time=0
EXTRACT: note_on channel=9 note=70 velocity=0 time=0.005208333333333333
EXTRACT: note_on channel=3 note=66 velocity=0 time=0.0625
EXTRACT: note_on channel=4 note=66 velocity=0 time=0
EXTRACT: note_on channel=9 note=36 velocity=82 time=0.005208333333333333
EXTRACT: note_on channel=9 note=39 velocity=82 time=0
EXTRACT: note_on channel=9 note=40 velocity=80 time=0
EXTRACT: note_on channel=9 note=42 velocity=78 time=0
EXTRACT: note_on channel=9 note=54 velocity=61 time=0
EXTRACT: note_on channel=9 note=69 velocity=50 time=0
EXTRACT: note_on channel=9 note=70 velocity=87 time=0
EXTRACT: note_on channel=3 note=62 velocity=104 time=0
EXTRACT: note_on channel=4 note=62 velocity=89 time=0
EXTRACT: note_on channel=7 note=71 velocity=91 time=0
EXTRACT: note_on channel=9 note=69 velocity=0 time=0.08854166666666666
EXTRACT: note_on channel=3 note=62 velocity=0 time=0.005208333333333333
EXTRACT: note_on channel=4 note=62 velocity=0 time=0
EXTRACT: note_on channel=9 note=54 velocity=0 time=0.005208333333333333
EXTRACT: note_on channel=9 note=70 velocity=0 time=0
EXTRACT: note_on channel=9 note=39 velocity=0 time=0.005208333333333333
EXTRACT: note_on channel=9 note=40 velocity=0 time=0.005208333333333333
EXTRACT: note_on channel=7 note=71 velocity=0 time=0.03645833333333333
EXTRACT: note_on channel=9 note=42 velocity=0 time=0.005208333333333333
EXTRACT: note_on channel=9 note=54 velocity=52 time=0.005208333333333333
EXTRACT: note_on channel=9 note=70 velocity=74 time=0
EXTRACT: note_on channel=3 note=62 velocity=101 time=0
EXTRACT: note_on channel=4 note=62 velocity=86 time=0
EXTRACT: note_on channel=7 note=71 velocity=88 time=0
EXTRACT: note_on channel=9 note=54 velocity=0 time=0.09375
EXTRACT: note_on channel=9 note=70 velocity=0 time=0
EXTRACT: note_on channel=3 note=62 velocity=0 time=0
EXTRACT: note_on channel=4 note=62 velocity=0 time=0
EXTRACT: note_on channel=7 note=71 velocity=0 time=0.010416666666666666
EXTRACT: note_on channel=9 note=46 velocity=49 time=0.05208333333333333
EXTRACT: note_on channel=9 note=54 velocity=46 time=0
EXTRACT: note_on channel=9 note=70 velocity=58 time=0
EXTRACT: note_on channel=1 note=33 velocity=81 time=0
EXTRACT: note_on channel=3 note=62 velocity=95 time=0
EXTRACT: note_on channel=4 note=62 velocity=80 time=0
EXTRACT: note_on channel=7 note=74 velocity=94 time=0
EXTRACT: note_on channel=9 note=54 velocity=0 time=0.06770833333333333
EXTRACT: note_on channel=9 note=46 velocity=0 time=0.026041666666666664
EXTRACT: note_on channel=3 note=62 velocity=0 time=0
EXTRACT: note_on channel=4 note=62 velocity=0 time=0
EXTRACT: note_on channel=9 note=70 velocity=0 time=0.005208333333333333
EXTRACT: note_on channel=1 note=33 velocity=0 time=0.05208333333333333
EXTRACT: note_on channel=9 note=54 velocity=57 time=0.005208333333333333
EXTRACT: note_on channel=9 note=70 velocity=61 time=0
EXTRACT: note_on channel=1 note=34 velocity=74 time=0
EXTRACT: note_on channel=3 note=62 velocity=96 time=0
EXTRACT: note_on channel=4 note=62 velocity=81 time=0
EXTRACT: note_on channel=7 note=74 velocity=0 time=0.005208333333333333
EXTRACT: note_on channel=9 note=36 velocity=0 time=0.015625
EXTRACT: note_on channel=9 note=54 velocity=0 time=0.026041666666666664
EXTRACT: note_on channel=9 note=70 velocity=0 time=0.041666666666666664
EXTRACT: note_on channel=3 note=62 velocity=0 time=0.015625
EXTRACT: note_on channel=4 note=62 velocity=0 time=0
EXTRACT: note_on channel=1 note=34 velocity=0 time=0.015625
EXTRACT: note_on channel=9 note=36 velocity=77 time=0.03645833333333333
EXTRACT: note_on channel=9 note=42 velocity=88 time=0
EXTRACT: note_on channel=9 note=54 velocity=54 time=0
EXTRACT: note_on channel=9 note=70 velocity=87 time=0
EXTRACT: note_on channel=1 note=35 velocity=84 time=0
EXTRACT: note_on channel=3 note=59 velocity=91 time=0
EXTRACT: note_on channel=4 note=59 velocity=76 time=0
EXTRACT: note_on channel=5 note=57 velocity=63 time=0
EXTRACT: note_on channel=5 note=59 velocity=67 time=0
EXTRACT: note_on channel=5 note=62 velocity=66 time=0
EXTRACT: note_on channel=9 note=70 velocity=0 time=0.08333333333333333
EXTRACT: note_on channel=9 note=54 velocity=0 time=0.010416666666666666
EXTRACT: note_on channel=9 note=42 velocity=0 time=0.010416666666666666
EXTRACT: note_on channel=9 note=54 velocity=38 time=0.05208333333333333
EXTRACT: note_on channel=9 note=70 velocity=63 time=0
EXTRACT: note_on channel=5 note=59 velocity=0 time=0.046875
EXTRACT: note_on channel=5 note=62 velocity=0 time=0
EXTRACT: note_on channel=9 note=54 velocity=0 time=0.03125
EXTRACT: note_on channel=5 note=57 velocity=0 time=0.020833333333333332
EXTRACT: note_on channel=9 note=70 velocity=0 time=0.005208333333333333
EXTRACT: note_on channel=3 note=59 velocity=0 time=0.046875
EXTRACT: note_on channel=4 note=59 velocity=0 time=0
EXTRACT: note_on channel=9 note=42 velocity=46 time=0.005208333333333333
EXTRACT: note_on channel=9 note=54 velocity=44 time=0
EXTRACT: note_on channel=9 note=69 velocity=68 time=0
EXTRACT: note_on channel=9 note=70 velocity=46 time=0
EXTRACT: note_on channel=3 note=66 velocity=113 time=0
EXTRACT: note_on channel=4 note=66 velocity=98 time=0
EXTRACT: note_on channel=7 note=74 velocity=95 time=0
EXTRACT: note_on channel=1 note=35 velocity=0 time=0.015625
EXTRACT: note_on channel=9 note=70 velocity=0 time=0.03125
EXTRACT: note_on channel=9 note=69 velocity=0 time=0.010416666666666666
EXTRACT: note_on channel=9 note=54 velocity=0 time=0.010416666666666666
EXTRACT: note_on channel=9 note=42 velocity=0 time=0.015625
EXTRACT: note_on channel=3 note=66 velocity=0 time=0
EXTRACT: note_on channel=4 note=66 velocity=0 time=0
EXTRACT: note_on channel=7 note=74 velocity=0 time=0
EXTRACT: note_on channel=9 note=36 velocity=0 time=0.041666666666666664
EXTRACT: note_on channel=9 note=54 velocity=36 time=0.03125
EXTRACT: note_on channel=9 note=70 velocity=61 time=0
EXTRACT: note_on channel=3 note=66 velocity=94 time=0
EXTRACT: note_on channel=4 note=66 velocity=79 time=0
EXTRACT: note_on channel=9 note=54 velocity=0 time=0.05208333333333333
EXTRACT: note_on channel=3 note=66 velocity=0 time=0.026041666666666664
EXTRACT: note_on channel=4 note=66 velocity=0 time=0
EXTRACT: note_on channel=9 note=70 velocity=0 time=0.015625
EXTRACT: note_on channel=9 note=36 velocity=81 time=0.0625
EXTRACT: note_on channel=9 note=39 velocity=84 time=0
EXTRACT: note_on channel=9 note=40 velocity=82 time=0
EXTRACT: note_on channel=9 note=42 velocity=91 time=0
EXTRACT: note_on channel=9 note=54 velocity=61 time=0
EXTRACT: note_on channel=9 note=70 velocity=91 time=0
EXTRACT: note_on channel=3 note=66 velocity=101 time=0
EXTRACT: note_on channel=4 note=66 velocity=86 time=0
EXTRACT: note_on channel=9 note=40 velocity=0 time=0.06770833333333333
EXTRACT: note_on channel=9 note=70 velocity=0 time=0.020833333333333332
EXTRACT: note_on channel=9 note=39 velocity=0 time=0.010416666666666666
EXTRACT: note_on channel=9 note=54 velocity=0 time=0
EXTRACT: note_on channel=9 note=42 velocity=0 time=0.03645833333333333
EXTRACT: note_on channel=9 note=54 velocity=52 time=0.020833333333333332
EXTRACT: note_on channel=9 note=70 velocity=63 time=0
EXTRACT: note_on channel=7 note=71 velocity=93 time=0
EXTRACT: note_on channel=9 note=70 velocity=0 time=0.08854166666666666
EXTRACT: note_on channel=9 note=54 velocity=0 time=0.005208333333333333
EXTRACT: note_on channel=3 note=66 velocity=0 time=0.005208333333333333
EXTRACT: note_on channel=4 note=66 velocity=0 time=0
EXTRACT: note_on channel=9 note=42 velocity=46 time=0.057291666666666664
EXTRACT: note_on channel=9 note=54 velocity=46 time=0
EXTRACT: note_on channel=9 note=70 velocity=80 time=0
EXTRACT: note_on channel=3 note=66 velocity=98 time=0
EXTRACT: note_on channel=4 note=66 velocity=83 time=0
EXTRACT: note_on channel=9 note=54 velocity=0 time=0.06770833333333333
EXTRACT: note_on channel=9 note=70 velocity=0 time=0.010416666666666666
EXTRACT: note_on channel=3 note=66 velocity=0 time=0
EXTRACT: note_on channel=4 note=66 velocity=0 time=0
EXTRACT: note_on channel=7 note=71 velocity=0 time=0.020833333333333332
EXTRACT: note_on channel=9 note=42 velocity=0 time=0.015625
EXTRACT: note_on channel=9 note=36 velocity=0 time=0.010416666666666666
EXTRACT: note_on channel=9 note=54 velocity=57 time=0.03125
EXTRACT: note_on channel=9 note=70 velocity=62 time=0
EXTRACT: note_on channel=3 note=66 velocity=104 time=0
EXTRACT: note_on channel=4 note=66 velocity=89 time=0
EXTRACT: note_on channel=9 note=54 velocity=0 time=0.046875
EXTRACT: note_on channel=9 note=70 velocity=0 time=0.046875
EXTRACT: note_on channel=9 note=36 velocity=78 time=0.0625
EXTRACT: note_on channel=9 note=42 velocity=80 time=0
EXTRACT: note_on channel=9 note=54 velocity=54 time=0
EXTRACT: note_on channel=9 note=70 velocity=88 time=0
EXTRACT: note_on channel=7 note=69 velocity=95 time=0
EXTRACT: note_on channel=9 note=54 velocity=0 time=0.09375
EXTRACT: note_on channel=9 note=70 velocity=0 time=0.005208333333333333
EXTRACT: note_on channel=3 note=66 velocity=0 time=0.005208333333333333
EXTRACT: note_on channel=4 note=66 velocity=0 time=0
EXTRACT: note_on channel=7 note=69 velocity=0 time=0.005208333333333333
EXTRACT: note_on channel=9 note=42 velocity=0 time=0.020833333333333332
EXTRACT: note_on channel=9 note=54 velocity=38 time=0.026041666666666664
EXTRACT: note_on channel=9 note=70 velocity=66 time=0
EXTRACT: note_on channel=3 note=66 velocity=97 time=0
EXTRACT: note_on channel=4 note=66 velocity=82 time=0
EXTRACT: note_on channel=7 note=71 velocity=82 time=0
EXTRACT: note_on channel=9 note=70 velocity=0 time=0.07291666666666666
EXTRACT: note_on channel=9 note=54 velocity=0 time=0.005208333333333333
EXTRACT: note_on channel=7 note=71 velocity=0 time=0.005208333333333333
EXTRACT: note_on channel=3 note=66 velocity=0 time=0.05208333333333333
EXTRACT: note_on channel=4 note=66 velocity=0 time=0
EXTRACT: note_on channel=9 note=42 velocity=50 time=0.020833333333333332
EXTRACT: note_on channel=9 note=54 velocity=44 time=0
EXTRACT: note_on channel=9 note=69 velocity=61 time=0
EXTRACT: note_on channel=9 note=70 velocity=61 time=0
EXTRACT: note_on channel=3 note=69 velocity=107 time=0
EXTRACT: note_on channel=4 note=69 velocity=92 time=0
EXTRACT: note_on channel=7 note=71 velocity=87 time=0
EXTRACT: note_on channel=9 note=54 velocity=0 time=0.06770833333333333
EXTRACT: note_on channel=9 note=70 velocity=0 time=0
EXTRACT: note_on channel=9 note=69 velocity=0 time=0.005208333333333333
EXTRACT: note_on channel=9 note=42 velocity=0 time=0.026041666666666664
EXTRACT: note_on channel=7 note=71 velocity=0 time=0
EXTRACT: note_on channel=9 note=36 velocity=0 time=0.020833333333333332
EXTRACT: note_on channel=9 note=54 velocity=36 time=0.03645833333333333
EXTRACT: note_on channel=9 note=69 velocity=48 time=0
EXTRACT: note_on channel=9 note=70 velocity=58 time=0
EXTRACT: note_on channel=7 note=69 velocity=86 time=0
EXTRACT: note_on channel=9 note=54 velocity=0 time=0.05208333333333333
EXTRACT: note_on channel=9 note=69 velocity=0 time=0.015625
EXTRACT: note_on channel=3 note=69 velocity=0 time=0.005208333333333333
EXTRACT: note_on channel=4 note=69 velocity=0 time=0
EXTRACT: note_on channel=7 note=69 velocity=0 time=0.010416666666666666
EXTRACT: note_on channel=9 note=70 velocity=0 time=0.015625
EXTRACT: note_on channel=9 note=36 velocity=82 time=0.057291666666666664
EXTRACT: note_on channel=9 note=39 velocity=82 time=0
EXTRACT: note_on channel=9 note=40 velocity=80 time=0
EXTRACT: note_on channel=9 note=42 velocity=84 time=0
EXTRACT: note_on channel=9 note=54 velocity=61 time=0
EXTRACT: note_on channel=9 note=69 velocity=52 time=0
EXTRACT: note_on channel=9 note=70 velocity=89 time=0
EXTRACT: note_on channel=3 note=69 velocity=98 time=0
EXTRACT: note_on channel=4 note=69 velocity=83 time=0
EXTRACT: note_on channel=7 note=71 velocity=88 time=0
EXTRACT: note_on channel=9 note=69 velocity=0 time=0.08333333333333333
EXTRACT: note_on channel=9 note=70 velocity=0 time=0.010416666666666666
EXTRACT: note_on channel=3 note=69 velocity=0 time=0
EXTRACT: note_on channel=4 note=69 velocity=0 time=0
EXTRACT: note_on channel=9 note=54 velocity=0 time=0.005208333333333333
EXTRACT: note_on channel=9 note=39 velocity=0 time=0.005208333333333333
EXTRACT: note_on channel=7 note=71 velocity=0 time=0
EXTRACT: note_on channel=9 note=40 velocity=0 time=0.005208333333333333
EXTRACT: note_on channel=9 note=42 velocity=0 time=0.041666666666666664
EXTRACT: note_on channel=9 note=54 velocity=52 time=0.005208333333333333
EXTRACT: note_on channel=9 note=70 velocity=71 time=0
EXTRACT: note_on channel=3 note=69 velocity=101 time=0
EXTRACT: note_on channel=4 note=69 velocity=86 time=0
EXTRACT: note_on channel=3 note=69 velocity=0 time=0.08854166666666666
EXTRACT: note_on channel=4 note=69 velocity=0 time=0
EXTRACT: note_on channel=9 note=54 velocity=0 time=0.005208333333333333
EXTRACT: note_on channel=9 note=70 velocity=0 time=0.005208333333333333
EXTRACT: note_on channel=9 note=42 velocity=52 time=0.057291666666666664
EXTRACT: note_on channel=9 note=54 velocity=46 time=0
EXTRACT: note_on channel=9 note=70 velocity=71 time=0
EXTRACT: note_on channel=1 note=33 velocity=80 time=0
EXTRACT: note_on channel=3 note=71 velocity=107 time=0
EXTRACT: note_on channel=4 note=71 velocity=92 time=0
EXTRACT: note_on channel=5 note=52 velocity=59 time=0
EXTRACT: note_on channel=5 note=57 velocity=58 time=0
EXTRACT: note_on channel=5 note=59 velocity=67 time=0
EXTRACT: note_on channel=5 note=62 velocity=63 time=0
EXTRACT: note_on channel=7 note=78 velocity=94 time=0
EXTRACT: note_on channel=9 note=54 velocity=0 time=0.06770833333333333
EXTRACT: note_on channel=9 note=70 velocity=0 time=0.015625
EXTRACT: note_on channel=9 note=42 velocity=0 time=0.015625
EXTRACT: note_on channel=9 note=36 velocity=0 time=0.03645833333333333
EXTRACT: note_on channel=1 note=33 velocity=0 time=0.015625
EXTRACT: note_on channel=7 note=78 velocity=0 time=0.005208333333333333
EXTRACT: note_on channel=9 note=42 velocity=40 time=0
EXTRACT: note_on channel=9 note=54 velocity=57 time=0
EXTRACT: note_on channel=9 note=70 velocity=61 time=0
EXTRACT: note_on channel=1 note=34 velocity=71 time=0
EXTRACT: note_on channel=9 note=54 velocity=0 time=0.046875
EXTRACT: note_on channel=5 note=62 velocity=0 time=0.03645833333333333
EXTRACT: note_on channel=5 note=59 velocity=0 time=0.005208333333333333
EXTRACT: note_on channel=9 note=42 velocity=0 time=0.010416666666666666
EXTRACT: note_on channel=9 note=70 velocity=0 time=0
EXTRACT: note_on channel=5 note=57 velocity=0 time=0.020833333333333332
EXTRACT: note_on channel=3 note=71 velocity=0 time=0.005208333333333333
EXTRACT: note_on channel=4 note=71 velocity=0 time=0
EXTRACT: note_on channel=5 note=52 velocity=0 time=0
EXTRACT: note_on channel=1 note=34 velocity=0 time=0.026041666666666664
EXTRACT: note_on channel=9 note=36 velocity=83 time=0.005208333333333333
EXTRACT: note_on channel=9 note=42 velocity=77 time=0
EXTRACT: note_on channel=9 note=54 velocity=54 time=0
EXTRACT: note_on channel=9 note=70 velocity=90 time=0
EXTRACT: note_on channel=1 note=35 velocity=81 time=0
EXTRACT: note_on channel=3 note=66 velocity=110 time=0
EXTRACT: note_on channel=4 note=66 velocity=95 time=0
EXTRACT: note_on channel=9 note=54 velocity=0 time=0.09375
EXTRACT: note_on channel=9 note=70 velocity=0 time=0.005208333333333333
EXTRACT: note_on channel=9 note=54 velocity=38 time=0.057291666666666664
EXTRACT: note_on channel=9 note=70 velocity=70 time=0
EXTRACT: note_on channel=9 note=42 velocity=0 time=0.015625
EXTRACT: note_on channel=3 note=66 velocity=0 time=0.015625
EXTRACT: note_on channel=4 note=66 velocity=0 time=0
EXTRACT: note_on channel=9 note=70 velocity=0 time=0.015625
EXTRACT: note_on channel=1 note=35 velocity=0 time=0.03125
EXTRACT: note_on channel=9 note=54 velocity=0 time=0
EXTRACT: note_on channel=9 note=42 velocity=54 time=0.078125
EXTRACT: note_on channel=9 note=54 velocity=44 time=0
EXTRACT: note_on channel=9 note=69 velocity=71 time=0
EXTRACT: note_on channel=9 note=70 velocity=71 time=0
EXTRACT: note_on channel=3 note=66 velocity=103 time=0
EXTRACT: note_on channel=4 note=66 velocity=88 time=0
EXTRACT: note_on channel=7 note=74 velocity=95 time=0
EXTRACT: note_on channel=9 note=54 velocity=0 time=0.06770833333333333
EXTRACT: note_on channel=9 note=69 velocity=0 time=0
EXTRACT: note_on channel=9 note=70 velocity=0 time=0.015625
EXTRACT: note_on channel=7 note=74 velocity=0 time=0
EXTRACT: note_on channel=9 note=36 velocity=0 time=0.020833333333333332
EXTRACT: note_on channel=9 note=42 velocity=0 time=0.005208333333333333
EXTRACT: note_on channel=9 note=54 velocity=36 time=0.046875
EXTRACT: note_on channel=9 note=70 velocity=56 time=0
EXTRACT: note_on channel=3 note=66 velocity=0 time=0.046875
EXTRACT: note_on channel=4 note=66 velocity=0 time=0
EXTRACT: note_on channel=9 note=54 velocity=0 time=0.005208333333333333
EXTRACT: note_on channel=9 note=70 velocity=0 time=0.046875
EXTRACT: note_on channel=9 note=36 velocity=84 time=0.057291666666666664
EXTRACT: note_on channel=9 note=39 velocity=84 time=0
EXTRACT: note_on channel=9 note=40 velocity=82 time=0
EXTRACT: note_on channel=9 note=42 velocity=79 time=0
EXTRACT: note_on channel=9 note=54 velocity=61 time=0
EXTRACT: note_on channel=9 note=70 velocity=87 time=0
EXTRACT: note_on channel=3 note=66 velocity=105 time=0
EXTRACT: note_on channel=4 note=66 velocity=90 time=0
EXTRACT: note_on channel=9 note=40 velocity=0 time=0.06770833333333333
EXTRACT: note_on channel=9 note=70 velocity=0 time=0.026041666666666664
EXTRACT: note_on channel=9 note=39 velocity=0 time=0.005208333333333333
EXTRACT: note_on channel=9 note=54 velocity=0 time=0
EXTRACT: note_on channel=9 note=54 velocity=52 time=0.057291666666666664
EXTRACT: note_on channel=9 note=70 velocity=74 time=0
EXTRACT: note_on channel=7 note=71 velocity=93 time=0
EXTRACT: note_on channel=9 note=42 velocity=0 time=0.020833333333333332
EXTRACT: note_on channel=9 note=54 velocity=0 time=0.07291666666666666
EXTRACT: note_on channel=3 note=66 velocity=0 time=0.005208333333333333
EXTRACT: note_on channel=4 note=66 velocity=0 time=0
EXTRACT: note_on channel=9 note=70 velocity=0 time=0
EXTRACT: note_on channel=9 note=42 velocity=54 time=0.057291666666666664
EXTRACT: note_on channel=9 note=54 velocity=46 time=0
EXTRACT: note_on channel=9 note=69 velocity=64 time=0
EXTRACT: note_on channel=9 note=70 velocity=72 time=0
EXTRACT: note_on channel=3 note=66 velocity=93 time=0
EXTRACT: note_on channel=4 note=66 velocity=78 time=0
EXTRACT: note_on channel=9 note=69 velocity=0 time=0.0625
EXTRACT: note_on channel=9 note=54 velocity=0 time=0.005208333333333333
EXTRACT: note_on channel=3 note=66 velocity=0 time=0.010416666666666666
EXTRACT: note_on channel=4 note=66 velocity=0 time=0
EXTRACT: note_on channel=9 note=70 velocity=0 time=0.005208333333333333
EXTRACT: note_on channel=7 note=71 velocity=0 time=0.015625
EXTRACT: note_on channel=9 note=36 velocity=0 time=0.010416666666666666
EXTRACT: note_on channel=9 note=42 velocity=0 time=0.005208333333333333
EXTRACT: note_on channel=9 note=54 velocity=57 time=0.041666666666666664
EXTRACT: note_on channel=9 note=70 velocity=66 time=0
EXTRACT: note_on channel=3 note=66 velocity=102 time=0
EXTRACT: note_on channel=4 note=66 velocity=87 time=0
EXTRACT: note_on channel=9 note=54 velocity=0 time=0.046875
EXTRACT: note_on channel=9 note=70 velocity=0 time=0.05208333333333333
EXTRACT: note_on channel=9 note=36 velocity=81 time=0.057291666666666664
EXTRACT: note_on channel=9 note=42 velocity=87 time=0
EXTRACT: note_on channel=9 note=54 velocity=54 time=0
EXTRACT: note_on channel=9 note=70 velocity=93 time=0
EXTRACT: note_on channel=7 note=69 velocity=95 time=0
EXTRACT: note_on channel=3 note=66 velocity=0 time=0.046875
EXTRACT: note_on channel=4 note=66 velocity=0 time=0
EXTRACT: note_on channel=9 note=54 velocity=0 time=0.046875
EXTRACT: note_on channel=9 note=70 velocity=0 time=0.015625
EXTRACT: note_on channel=7 note=69 velocity=0 time=0
EXTRACT: note_on channel=9 note=42 velocity=0 time=0.041666666666666664
EXTRACT: note_on channel=9 note=54 velocity=38 time=0.005208333333333333
EXTRACT: note_on channel=9 note=70 velocity=59 time=0
EXTRACT: note_on channel=3 note=66 velocity=104 time=0
EXTRACT: note_on channel=4 note=66 velocity=89 time=0
EXTRACT: note_on channel=7 note=71 velocity=82 time=0
EXTRACT: note_on channel=9 note=54 velocity=0 time=0.078125
EXTRACT: note_on channel=7 note=71 velocity=0 time=0.005208333333333333
EXTRACT: note_on channel=9 note=70 velocity=0 time=0.010416666666666666
EXTRACT: note_on channel=3 note=66 velocity=0 time=0.026041666666666664
EXTRACT: note_on channel=4 note=66 velocity=0 time=0
EXTRACT: note_on channel=9 note=42 velocity=46 time=0.03645833333333333
EXTRACT: note_on channel=9 note=54 velocity=44 time=0
EXTRACT: note_on channel=9 note=69 velocity=60 time=0
EXTRACT: note_on channel=9 note=70 velocity=78 time=0
EXTRACT: note_on channel=3 note=69 velocity=102 time=0
EXTRACT: note_on channel=4 note=69 velocity=87 time=0
EXTRACT: note_on channel=7 note=71 velocity=87 time=0
EXTRACT: note_on channel=9 note=54 velocity=0 time=0.06770833333333333
EXTRACT: note_on channel=9 note=69 velocity=0 time=0.020833333333333332
EXTRACT: note_on channel=9 note=70 velocity=0 time=0.005208333333333333
EXTRACT: note_on channel=7 note=71 velocity=0 time=0.005208333333333333
EXTRACT: note_on channel=9 note=36 velocity=0 time=0.005208333333333333
EXTRACT: note_on channel=9 note=42 velocity=0 time=0.020833333333333332
EXTRACT: note_on channel=9 note=54 velocity=36 time=0.03125
EXTRACT: note_on channel=9 note=69 velocity=55 time=0
EXTRACT: note_on channel=9 note=70 velocity=74 time=0
EXTRACT: note_on channel=7 note=69 velocity=86 time=0
EXTRACT: note_on channel=9 note=54 velocity=0 time=0.05208333333333333
EXTRACT: note_on channel=3 note=69 velocity=0 time=0.010416666666666666
EXTRACT: note_on channel=4 note=69 velocity=0 time=0
EXTRACT: note_on channel=9 note=69 velocity=0 time=0.020833333333333332
EXTRACT: note_on channel=7 note=69 velocity=0 time=0
EXTRACT: note_on channel=9 note=70 velocity=0 time=0.005208333333333333
EXTRACT: note_on channel=9 note=36 velocity=82 time=0.06770833333333333
EXTRACT: note_on channel=9 note=39 velocity=82 time=0
EXTRACT: note_on channel=9 note=40 velocity=80 time=0
EXTRACT: note_on channel=9 note=42 velocity=78 time=0
EXTRACT: note_on channel=9 note=54 velocity=61 time=0
EXTRACT: note_on channel=9 note=69 velocity=50 time=0
EXTRACT: note_on channel=9 note=70 velocity=87 time=0
EXTRACT: note_on channel=3 note=69 velocity=100 time=0
EXTRACT: note_on channel=4 note=69 velocity=85 time=0
EXTRACT: note_on channel=7 note=71 velocity=88 time=0
EXTRACT: note_on channel=3 note=69 velocity=0 time=0.08333333333333333
EXTRACT: note_on channel=4 note=69 velocity=0 time=0
EXTRACT: note_on channel=9 note=69 velocity=0 time=0.005208333333333333
EXTRACT: note_on channel=9 note=54 velocity=0 time=0.010416666666666666
EXTRACT: note_on channel=9 note=70 velocity=0 time=0
EXTRACT: note_on channel=9 note=39 velocity=0 time=0.005208333333333333
EXTRACT: note_on channel=7 note=71 velocity=0 time=0
EXTRACT: note_on channel=9 note=40 velocity=0 time=0.005208333333333333
EXTRACT: note_on channel=9 note=42 velocity=0 time=0.041666666666666664
EXTRACT: note_on channel=9 note=54 velocity=52 time=0.005208333333333333
EXTRACT: note_on channel=9 note=70 velocity=74 time=0
EXTRACT: note_on channel=3 note=69 velocity=95 time=0
EXTRACT: note_on channel=4 note=69 velocity=80 time=0
EXTRACT: note_on channel=3 note=69 velocity=0 time=0.08333333333333333
EXTRACT: note_on channel=4 note=69 velocity=0 time=0
EXTRACT: note_on channel=9 note=54 velocity=0 time=0.010416666666666666
EXTRACT: note_on channel=9 note=70 velocity=0 time=0
EXTRACT: note_on channel=9 note=46 velocity=49 time=0.0625
EXTRACT: note_on channel=9 note=54 velocity=46 time=0
EXTRACT: note_on channel=9 note=70 velocity=58 time=0
EXTRACT: note_on channel=1 note=33 velocity=74 time=0
EXTRACT: note_on channel=3 note=69 velocity=103 time=0
EXTRACT: note_on channel=4 note=69 velocity=88 time=0
EXTRACT: note_on channel=7 note=78 velocity=94 time=0
EXTRACT: note_on channel=9 note=54 velocity=0 time=0.06770833333333333
EXTRACT: note_on channel=9 note=46 velocity=0 time=0.026041666666666664
EXTRACT: note_on channel=9 note=70 velocity=0 time=0.005208333333333333
EXTRACT: note_on channel=1 note=33 velocity=0 time=0.05208333333333333
EXTRACT: note_on channel=7 note=78 velocity=0 time=0.005208333333333333
EXTRACT: note_on channel=9 note=54 velocity=57 time=0
EXTRACT: note_on channel=9 note=70 velocity=61 time=0
EXTRACT: note_on channel=1 note=34 velocity=68 time=0
EXTRACT: note_on channel=9 note=36 velocity=0 time=0.020833333333333332
EXTRACT: note_on channel=9 note=54 velocity=0 time=0.026041666666666664
EXTRACT: note_on channel=9 note=70 velocity=0 time=0.041666666666666664
EXTRACT: note_on channel=3 note=69 velocity=0 time=0.03645833333333333
EXTRACT: note_on channel=4 note=69 velocity=0 time=0
EXTRACT: note_on channel=1 note=34 velocity=0 time=0.026041666666666664
EXTRACT: note_on channel=9 note=36 velocity=77 time=0.005208333333333333
EXTRACT: note_on channel=9 note=42 velocity=88 time=0
EXTRACT: note_on channel=9 note=54 velocity=54 time=0
EXTRACT: note_on channel=9 note=70 velocity=87 time=0
EXTRACT: note_on channel=1 note=35 velocity=76 time=0
EXTRACT: note_on channel=3 note=66 velocity=109 time=0
EXTRACT: note_on channel=4 note=66 velocity=94 time=0
EXTRACT: note_on channel=5 note=57 velocity=63 time=0
EXTRACT: note_on channel=5 note=59 velocity=67 time=0
EXTRACT: note_on channel=5 note=62 velocity=66 time=0
EXTRACT: note_on channel=9 note=70 velocity=0 time=0.08333333333333333
EXTRACT: note_on channel=9 note=54 velocity=0 time=0.010416666666666666
EXTRACT: note_on channel=9 note=42 velocity=0 time=0.010416666666666666
EXTRACT: note_on channel=9 note=54 velocity=38 time=0.05208333333333333
EXTRACT: note_on channel=9 note=70 velocity=63 time=0
EXTRACT: note_on channel=5 note=59 velocity=0 time=0.046875
EXTRACT: note_on channel=5 note=62 velocity=0 time=0
EXTRACT: note_on channel=9 note=54 velocity=0 time=0.03125
EXTRACT: note_on channel=3 note=66 velocity=0 time=0.015625
EXTRACT: note_on channel=4 note=66 velocity=0 time=0
EXTRACT: note_on channel=5 note=57 velocity=0 time=0.005208333333333333
EXTRACT: note_on channel=9 note=70 velocity=0 time=0.005208333333333333
EXTRACT: note_on channel=1 note=35 velocity=0 time=0.010416666666666666
EXTRACT: note_on channel=9 note=42 velocity=46 time=0.041666666666666664
EXTRACT: note_on channel=9 note=54 velocity=44 time=0
EXTRACT: note_on channel=9 note=69 velocity=68 time=0
EXTRACT: note_on channel=9 note=70 velocity=46 time=0
EXTRACT: note_on channel=3 note=69 velocity=102 time=0
EXTRACT: note_on channel=4 note=69 velocity=87 time=0
EXTRACT: note_on channel=7 note=74 velocity=95 time=0
EXTRACT: note_on channel=9 note=70 velocity=0 time=0.046875
EXTRACT: note_on channel=9 note=69 velocity=0 time=0.010416666666666666
EXTRACT: note_on channel=9 note=54 velocity=0 time=0.010416666666666666
EXTRACT: note_on channel=9 note=42 velocity=0 time=0.015625
EXTRACT: note_on channel=7 note=74 velocity=0 time=0
EXTRACT: note_on channel=9 note=36 velocity=0 time=0.041666666666666664
EXTRACT: note_on channel=9 note=54 velocity=36 time=0.03125
EXTRACT: note_on channel=9 note=70 velocity=61 time=0
EXTRACT: note_on channel=9 note=54 velocity=0 time=0.05208333333333333
EXTRACT: note_on channel=9 note=70 velocity=0 time=0.041666666666666664
EXTRACT: note_on channel=3 note=69 velocity=0 time=0.057291666666666664
EXTRACT: note_on channel=4 note=69 velocity=0 time=0
EXTRACT: note_on channel=9 note=36 velocity=81 time=0.005208333333333333
EXTRACT: note_on channel=9 note=39 velocity=84 time=0
EXTRACT: note_on channel=9 note=40 velocity=82 time=0
EXTRACT: note_on channel=9 note=42 velocity=91 time=0
EXTRACT: note_on channel=9 note=54 velocity=61 time=0
EXTRACT: note_on channel=9 note=70 velocity=91 time=0
EXTRACT: note_on channel=3 note=66 velocity=105 time=0
EXTRACT: note_on channel=4 note=66 velocity=90 time=0
EXTRACT: note_on channel=9 note=40 velocity=0 time=0.06770833333333333
EXTRACT: note_on channel=9 note=70 velocity=0 time=0.020833333333333332
EXTRACT: note_on channel=9 note=39 velocity=0 time=0.010416666666666666
EXTRACT: note_on channel=9 note=54 velocity=0 time=0
EXTRACT: note_on channel=9 note=42 velocity=0 time=0.03645833333333333
EXTRACT: note_on channel=9 note=54 velocity=52 time=0.020833333333333332
EXTRACT: note_on channel=9 note=70 velocity=63 time=0
EXTRACT: note_on channel=7 note=71 velocity=93 time=0
EXTRACT: note_on channel=9 note=70 velocity=0 time=0.08854166666666666
EXTRACT: note_on channel=9 note=54 velocity=0 time=0.005208333333333333
EXTRACT: note_on channel=3 note=66 velocity=0 time=0.03125
EXTRACT: note_on channel=4 note=66 velocity=0 time=0
EXTRACT: note_on channel=9 note=42 velocity=46 time=0.03125
EXTRACT: note_on channel=9 note=54 velocity=46 time=0
EXTRACT: note_on channel=9 note=70 velocity=80 time=0
EXTRACT: note_on channel=3 note=69 velocity=100 time=0
EXTRACT: note_on channel=4 note=69 velocity=85 time=0
EXTRACT: note_on channel=9 note=54 velocity=0 time=0.06770833333333333
EXTRACT: note_on channel=9 note=70 velocity=0 time=0.010416666666666666
EXTRACT: note_on channel=3 note=69 velocity=0 time=0.015625
EXTRACT: note_on channel=4 note=69 velocity=0 time=0
EXTRACT: note_on channel=7 note=71 velocity=0 time=0.005208333333333333
EXTRACT: note_on channel=9 note=42 velocity=0 time=0.015625
EXTRACT: note_on channel=9 note=36 velocity=0 time=0.010416666666666666
EXTRACT: note_on channel=9 note=54 velocity=57 time=0.03125
EXTRACT: note_on channel=9 note=70 velocity=62 time=0
EXTRACT: note_on channel=3 note=71 velocity=107 time=0
EXTRACT: note_on channel=4 note=71 velocity=92 time=0
EXTRACT: note_on channel=9 note=54 velocity=0 time=0.046875
EXTRACT: note_on channel=9 note=70 velocity=0 time=0.046875
EXTRACT: note_on channel=9 note=36 velocity=78 time=0.0625
EXTRACT: note_on channel=9 note=42 velocity=80 time=0
EXTRACT: note_on channel=9 note=54 velocity=54 time=0
EXTRACT: note_on channel=9 note=70 velocity=88 time=0
EXTRACT: note_on channel=7 note=69 velocity=95 time=0
EXTRACT: note_on channel=9 note=54 velocity=0 time=0.09375
EXTRACT: note_on channel=9 note=70 velocity=0 time=0.005208333333333333
EXTRACT: note_on channel=7 note=69 velocity=0 time=0.010416666666666666
EXTRACT: note_on channel=9 note=42 velocity=0 time=0.020833333333333332
EXTRACT: note_on channel=9 note=54 velocity=38 time=0.026041666666666664
EXTRACT: note_on channel=9 note=70 velocity=66 time=0
EXTRACT: note_on channel=7 note=71 velocity=82 time=0
EXTRACT: note_on channel=9 note=70 velocity=0 time=0.07291666666666666
EXTRACT: note_on channel=9 note=54 velocity=0 time=0.005208333333333333
EXTRACT: note_on channel=7 note=71 velocity=0 time=0.005208333333333333
EXTRACT: note_on channel=3 note=71 velocity=0 time=0.06770833333333333
EXTRACT: note_on channel=4 note=71 velocity=0 time=0
EXTRACT: note_on channel=9 note=42 velocity=50 time=0.005208333333333333
EXTRACT: note_on channel=9 note=54 velocity=44 time=0
EXTRACT: note_on channel=9 note=69 velocity=61 time=0
EXTRACT: note_on channel=9 note=70 velocity=61 time=0
EXTRACT: note_on channel=3 note=66 velocity=98 time=0
EXTRACT: note_on channel=4 note=66 velocity=83 time=0
EXTRACT: note_on channel=7 note=71 velocity=87 time=0
EXTRACT: note_on channel=9 note=54 velocity=0 time=0.06770833333333333
EXTRACT: note_on channel=9 note=70 velocity=0 time=0
EXTRACT: note_on channel=9 note=69 velocity=0 time=0.005208333333333333
EXTRACT: note_on channel=9 note=42 velocity=0 time=0.026041666666666664
EXTRACT: note_on channel=7 note=71 velocity=0 time=0
EXTRACT: note_on channel=9 note=36 velocity=0 time=0.020833333333333332
EXTRACT: note_on channel=9 note=54 velocity=36 time=0.03645833333333333
EXTRACT: note_on channel=9 note=69 velocity=48 time=0
EXTRACT: note_on channel=9 note=70 velocity=58 time=0
EXTRACT: note_on channel=7 note=69 velocity=86 time=0
EXTRACT: note_on channel=9 note=54 velocity=0 time=0.05208333333333333
EXTRACT: note_on channel=9 note=69 velocity=0 time=0.015625
EXTRACT: note_on channel=7 note=69 velocity=0 time=0.015625
EXTRACT: note_on channel=9 note=70 velocity=0 time=0.015625
EXTRACT: note_on channel=3 note=66 velocity=0 time=0.05208333333333333
EXTRACT: note_on channel=4 note=66 velocity=0 time=0
EXTRACT: note_on channel=9 note=36 velocity=82 time=0.005208333333333333
EXTRACT: note_on channel=9 note=39 velocity=82 time=0
EXTRACT: note_on channel=9 note=40 velocity=80 time=0
EXTRACT: note_on channel=9 note=42 velocity=84 time=0
EXTRACT: note_on channel=9 note=54 velocity=61 time=0
EXTRACT: note_on channel=9 note=69 velocity=52 time=0
EXTRACT: note_on channel=9 note=70 velocity=89 time=0
EXTRACT: note_on channel=3 note=64 velocity=88 time=0
EXTRACT: note_on channel=4 note=64 velocity=73 time=0
EXTRACT: note_on channel=7 note=71 velocity=88 time=0
EXTRACT: note_on channel=9 note=69 velocity=0 time=0.08333333333333333
EXTRACT: note_on channel=9 note=70 velocity=0 time=0.010416666666666666
EXTRACT: note_on channel=9 note=54 velocity=0 time=0.005208333333333333
EXTRACT: note_on channel=9 note=39 velocity=0 time=0.005208333333333333
EXTRACT: note_on channel=7 note=71 velocity=0 time=0
EXTRACT: note_on channel=9 note=40 velocity=0 time=0.005208333333333333
EXTRACT: note_on channel=9 note=42 velocity=0 time=0.041666666666666664
EXTRACT: note_on channel=9 note=54 velocity=52 time=0.005208333333333333
EXTRACT: note_on channel=9 note=70 velocity=71 time=0
EXTRACT: note_on channel=9 note=54 velocity=0 time=0.09375
EXTRACT: note_on channel=9 note=70 velocity=0 time=0.005208333333333333
EXTRACT: note_on channel=3 note=64 velocity=0 time=0.005208333333333333
EXTRACT: note_on channel=4 note=64 velocity=0 time=0
EXTRACT: note_on channel=9 note=42 velocity=52 time=0.05208333333333333
EXTRACT: note_on channel=9 note=54 velocity=46 time=0
EXTRACT: note_on channel=9 note=70 velocity=71 time=0
EXTRACT: note_on channel=1 note=33 velocity=78 time=0
EXTRACT: note_on channel=3 note=69 velocity=104 time=0
EXTRACT: note_on channel=4 note=69 velocity=89 time=0
EXTRACT: note_on channel=5 note=52 velocity=59 time=0
EXTRACT: note_on channel=5 note=57 velocity=58 time=0
EXTRACT: note_on channel=5 note=59 velocity=67 time=0
EXTRACT: note_on channel=5 note=62 velocity=63 time=0
EXTRACT: note_on channel=7 note=78 velocity=94 time=0
EXTRACT: note_on channel=9 note=54 velocity=0 time=0.06770833333333333
EXTRACT: note_on channel=9 note=70 velocity=0 time=0.015625
EXTRACT: note_on channel=9 note=42 velocity=0 time=0.015625
EXTRACT: note_on channel=9 note=36 velocity=0 time=0.03645833333333333
EXTRACT: note_on channel=1 note=33 velocity=0 time=0.015625
EXTRACT: note_on channel=7 note=78 velocity=0 time=0.005208333333333333
EXTRACT: note_on channel=9 note=42 velocity=40 time=0
EXTRACT: note_on channel=9 note=54 velocity=57 time=0
EXTRACT: note_on channel=9 note=70 velocity=61 time=0
EXTRACT: note_on channel=1 note=34 velocity=70 time=0
EXTRACT: note_on channel=9 note=54 velocity=0 time=0.046875
EXTRACT: note_on channel=5 note=62 velocity=0 time=0.03645833333333333
EXTRACT: note_on channel=5 note=59 velocity=0 time=0.005208333333333333
EXTRACT: note_on channel=9 note=42 velocity=0 time=0.010416666666666666
EXTRACT: note_on channel=9 note=70 velocity=0 time=0
EXTRACT: note_on channel=5 note=57 velocity=0 time=0.020833333333333332
EXTRACT: note_on channel=5 note=52 velocity=0 time=0.005208333333333333
EXTRACT: note_on channel=3 note=69 velocity=0 time=0.026041666666666664
EXTRACT: note_on channel=4 note=69 velocity=0 time=0
EXTRACT: note_on channel=1 note=34 velocity=0 time=0
EXTRACT: note_on channel=9 note=36 velocity=83 time=0.005208333333333333
EXTRACT: note_on channel=9 note=42 velocity=77 time=0
EXTRACT: note_on channel=9 note=54 velocity=54 time=0
EXTRACT: note_on channel=9 note=70 velocity=90 time=0
EXTRACT: note_on channel=1 note=35 velocity=83 time=0
EXTRACT: note_on channel=3 note=66 velocity=100 time=0
EXTRACT: note_on channel=4 note=66 velocity=85 time=0
EXTRACT: note_on channel=9 note=54 velocity=0 time=0.09375
EXTRACT: note_on channel=9 note=70 velocity=0 time=0.005208333333333333
EXTRACT: note_on channel=9 note=54 velocity=38 time=0.057291666666666664
EXTRACT: note_on channel=9 note=70 velocity=70 time=0
EXTRACT: note_on channel=9 note=42 velocity=0 time=0.015625
EXTRACT: note_on channel=9 note=70 velocity=0 time=0.03125
EXTRACT: note_on channel=9 note=54 velocity=0 time=0.03125
EXTRACT: note_on channel=3 note=66 velocity=0 time=0.06770833333333333
EXTRACT: note_on channel=4 note=66 velocity=0 time=0
EXTRACT: note_on channel=9 note=42 velocity=54 time=0.010416666666666666
EXTRACT: note_on channel=9 note=54 velocity=44 time=0
EXTRACT: note_on channel=9 note=69 velocity=71 time=0
EXTRACT: note_on channel=9 note=70 velocity=71 time=0
EXTRACT: note_on channel=3 note=69 velocity=100 time=0
EXTRACT: note_on channel=4 note=69 velocity=85 time=0
EXTRACT: note_on channel=7 note=74 velocity=95 time=0
EXTRACT: note_on channel=1 note=35 velocity=0 time=0.020833333333333332
EXTRACT: note_on channel=9 note=54 velocity=0 time=0.046875
EXTRACT: note_on channel=9 note=69 velocity=0 time=0
EXTRACT: note_on channel=9 note=70 velocity=0 time=0.015625
EXTRACT: note_on channel=7 note=74 velocity=0 time=0
EXTRACT: note_on channel=9 note=36 velocity=0 time=0.020833333333333332
EXTRACT: note_on channel=9 note=42 velocity=0 time=0.005208333333333333
EXTRACT: note_on channel=9 note=54 velocity=36 time=0.046875
EXTRACT: note_on channel=9 note=70 velocity=56 time=0
EXTRACT: note_on channel=9 note=54 velocity=0 time=0.05208333333333333
EXTRACT: note_on channel=9 note=70 velocity=0 time=0.046875
EXTRACT: note_on channel=3 note=69 velocity=0 time=0.026041666666666664
EXTRACT: note_on channel=4 note=69 velocity=0 time=0
EXTRACT: note_on channel=9 note=36 velocity=84 time=0.03125
EXTRACT: note_on channel=9 note=39 velocity=84 time=0
EXTRACT: note_on channel=9 note=40 velocity=82 time=0
EXTRACT: note_on channel=9 note=42 velocity=79 time=0
EXTRACT: note_on channel=9 note=54 velocity=61 time=0
EXTRACT: note_on channel=9 note=70 velocity=87 time=0
EXTRACT: note_on channel=3 note=66 velocity=94 time=0
EXTRACT: note_on channel=4 note=66 velocity=79 time=0
EXTRACT: note_on channel=9 note=40 velocity=0 time=0.06770833333333333
EXTRACT: note_on channel=9 note=70 velocity=0 time=0.026041666666666664
EXTRACT: note_on channel=9 note=39 velocity=0 time=0.005208333333333333
EXTRACT: note_on channel=9 note=54 velocity=0 time=0
EXTRACT: note_on channel=9 note=54 velocity=52 time=0.057291666666666664
EXTRACT: note_on channel=9 note=70 velocity=74 time=0
EXTRACT: note_on channel=7 note=71 velocity=93 time=0
EXTRACT: note_on channel=9 note=42 velocity=0 time=0.020833333333333332
EXTRACT: note_on channel=9 note=54 velocity=0 time=0.07291666666666666
EXTRACT: note_on channel=9 note=70 velocity=0 time=0.005208333333333333
EXTRACT: note_on channel=3 note=66 velocity=0 time=0.041666666666666664
EXTRACT: note_on channel=4 note=66 velocity=0 time=0
EXTRACT: note_on channel=9 note=42 velocity=54 time=0.015625
EXTRACT: note_on channel=9 note=54 velocity=46 time=0
EXTRACT: note_on channel=9 note=69 velocity=64 time=0
EXTRACT: note_on channel=9 note=70 velocity=72 time=0
EXTRACT: note_on channel=3 note=69 velocity=98 time=0
EXTRACT: note_on channel=4 note=69 velocity=83 time=0
EXTRACT: note_on channel=9 note=69 velocity=0 time=0.0625
EXTRACT: note_on channel=9 note=54 velocity=0 time=0.005208333333333333
EXTRACT: note_on channel=3 note=69 velocity=0 time=0.005208333333333333
EXTRACT: note_on channel=4 note=69 velocity=0 time=0
EXTRACT: note_on channel=9 note=70 velocity=0 time=0.010416666666666666
EXTRACT: note_on channel=7 note=71 velocity=0 time=0.015625
EXTRACT: note_on channel=9 note=36 velocity=0 time=0.010416666666666666
EXTRACT: note_on channel=9 note=42 velocity=0 time=0.005208333333333333
EXTRACT: note_on channel=9 note=54 velocity=57 time=0.041666666666666664
EXTRACT: note_on channel=9 note=70 velocity=66 time=0
EXTRACT: note_on channel=3 note=71 velocity=105 time=0
EXTRACT: note_on channel=4 note=71 velocity=90 time=0
EXTRACT: note_on channel=9 note=54 velocity=0 time=0.046875
EXTRACT: note_on channel=9 note=70 velocity=0 time=0.05208333333333333
EXTRACT: note_on channel=9 note=36 velocity=81 time=0.057291666666666664
EXTRACT: note_on channel=9 note=42 velocity=87 time=0
EXTRACT: note_on channel=9 note=54 velocity=54 time=0
EXTRACT: note_on channel=9 note=70 velocity=93 time=0
EXTRACT: note_on channel=7 note=69 velocity=95 time=0
EXTRACT: note_on channel=9 note=54 velocity=0 time=0.09375
EXTRACT: note_on channel=9 note=70 velocity=0 time=0.015625
EXTRACT: note_on channel=7 note=69 velocity=0 time=0
EXTRACT: note_on channel=9 note=42 velocity=0 time=0.041666666666666664
EXTRACT: note_on channel=9 note=54 velocity=38 time=0.005208333333333333
EXTRACT: note_on channel=9 note=70 velocity=59 time=0
EXTRACT: note_on channel=7 note=71 velocity=82 time=0
EXTRACT: note_on channel=9 note=54 velocity=0 time=0.078125
EXTRACT: note_on channel=7 note=71 velocity=0 time=0.005208333333333333
EXTRACT: note_on channel=9 note=70 velocity=0 time=0.010416666666666666
EXTRACT: note_on channel=3 note=71 velocity=0 time=0.041666666666666664
EXTRACT: note_on channel=4 note=71 velocity=0 time=0
EXTRACT: note_on channel=9 note=42 velocity=46 time=0.020833333333333332
EXTRACT: note_on channel=9 note=54 velocity=44 time=0
EXTRACT: note_on channel=9 note=69 velocity=60 time=0
EXTRACT: note_on channel=9 note=70 velocity=78 time=0
EXTRACT: note_on channel=3 note=66 velocity=98 time=0
EXTRACT: note_on channel=4 note=66 velocity=83 time=0
EXTRACT: note_on channel=7 note=71 velocity=87 time=0
EXTRACT: note_on channel=9 note=54 velocity=0 time=0.06770833333333333
EXTRACT: note_on channel=9 note=69 velocity=0 time=0.020833333333333332
EXTRACT: note_on channel=9 note=70 velocity=0 time=0.005208333333333333
EXTRACT: note_on channel=7 note=71 velocity=0 time=0.005208333333333333
EXTRACT: note_on channel=9 note=36 velocity=0 time=0.005208333333333333
EXTRACT: note_on channel=9 note=42 velocity=0 time=0.020833333333333332
EXTRACT: note_on channel=9 note=54 velocity=36 time=0.03125
EXTRACT: note_on channel=9 note=69 velocity=55 time=0
EXTRACT: note_on channel=9 note=70 velocity=74 time=0
EXTRACT: note_on channel=7 note=69 velocity=86 time=0
EXTRACT: note_on channel=9 note=54 velocity=0 time=0.05208333333333333
EXTRACT: note_on channel=9 note=69 velocity=0 time=0.03125
EXTRACT: note_on channel=7 note=69 velocity=0 time=0
EXTRACT: note_on channel=9 note=70 velocity=0 time=0.005208333333333333
EXTRACT: note_on channel=3 note=66 velocity=0 time=0.03645833333333333
EXTRACT: note_on channel=4 note=66 velocity=0 time=0
EXTRACT: note_on channel=9 note=36 velocity=82 time=0.03125
EXTRACT: note_on channel=9 note=39 velocity=82 time=0
EXTRACT: note_on channel=9 note=40 velocity=80 time=0
EXTRACT: note_on channel=9 note=42 velocity=78 time=0
EXTRACT: note_on channel=9 note=54 velocity=61 time=0
EXTRACT: note_on channel=9 note=69 velocity=50 time=0
EXTRACT: note_on channel=9 note=70 velocity=87 time=0
EXTRACT: note_on channel=3 note=62 velocity=108 time=0
EXTRACT: note_on channel=4 note=62 velocity=93 time=0
EXTRACT: note_on channel=7 note=71 velocity=88 time=0
EXTRACT: note_on channel=3 note=62 velocity=0 time=0.08333333333333333
EXTRACT: note_on channel=4 note=62 velocity=0 time=0
EXTRACT: note_on channel=9 note=69 velocity=0 time=0.005208333333333333
EXTRACT: note_on channel=9 note=54 velocity=0 time=0.010416666666666666
EXTRACT: note_on channel=9 note=70 velocity=0 time=0
EXTRACT: note_on channel=9 note=39 velocity=0 time=0.005208333333333333
EXTRACT: note_on channel=7 note=71 velocity=0 time=0
EXTRACT: note_on channel=9 note=40 velocity=0 time=0.005208333333333333
EXTRACT: note_on channel=9 note=42 velocity=0 time=0.041666666666666664
EXTRACT: note_on channel=9 note=54 velocity=52 time=0.005208333333333333
EXTRACT: note_on channel=9 note=70 velocity=74 time=0
EXTRACT: note_on channel=3 note=62 velocity=102 time=0
EXTRACT: note_on channel=4 note=62 velocity=87 time=0
EXTRACT: note_on channel=3 note=62 velocity=0 time=0.08333333333333333
EXTRACT: note_on channel=4 note=62 velocity=0 time=0
EXTRACT: note_on channel=9 note=54 velocity=0 time=0.010416666666666666
EXTRACT: note_on channel=9 note=70 velocity=0 time=0
EXTRACT: note_on channel=9 note=46 velocity=49 time=0.0625
EXTRACT: note_on channel=9 note=54 velocity=46 time=0
EXTRACT: note_on channel=9 note=70 velocity=58 time=0
EXTRACT: note_on channel=1 note=33 velocity=81 time=0
EXTRACT: note_on channel=3 note=62 velocity=98 time=0
EXTRACT: note_on channel=4 note=62 velocity=83 time=0
EXTRACT: note_on channel=7 note=78 velocity=94 time=0
EXTRACT: note_on channel=9 note=54 velocity=0 time=0.06770833333333333
EXTRACT: note_on channel=9 note=46 velocity=0 time=0.026041666666666664
EXTRACT: note_on channel=3 note=62 velocity=0 time=0
EXTRACT: note_on channel=4 note=62 velocity=0 time=0
EXTRACT: note_on channel=9 note=70 velocity=0 time=0.005208333333333333
EXTRACT: note_on channel=1 note=33 velocity=0 time=0.05208333333333333
EXTRACT: note_on channel=7 note=78 velocity=0 time=0.005208333333333333
EXTRACT: note_on channel=9 note=54 velocity=57 time=0
EXTRACT: note_on channel=9 note=70 velocity=61 time=0
EXTRACT: note_on channel=1 note=34 velocity=74 time=0
EXTRACT: note_on channel=3 note=62 velocity=104 time=0
EXTRACT: note_on channel=4 note=62 velocity=89 time=0
EXTRACT: note_on channel=9 note=36 velocity=0 time=0.020833333333333332
EXTRACT: note_on channel=9 note=54 velocity=0 time=0.026041666666666664
EXTRACT: note_on channel=9 note=70 velocity=0 time=0.041666666666666664
EXTRACT: note_on channel=1 note=34 velocity=0 time=0.03125
EXTRACT: note_on channel=3 note=62 velocity=0 time=0
EXTRACT: note_on channel=4 note=62 velocity=0 time=0
EXTRACT: note_on channel=9 note=36 velocity=93 time=0.03645833333333333
EXTRACT: note_on channel=9 note=42 velocity=104 time=0
EXTRACT: note_on channel=1 note=35 velocity=86 time=0
EXTRACT: note_on channel=3 note=59 velocity=102 time=0
EXTRACT: note_on channel=4 note=59 velocity=91 time=0
EXTRACT: note_on channel=7 note=76 velocity=92 time=0
EXTRACT: note_on channel=9 note=42 velocity=0 time=0.08333333333333333
EXTRACT: note_on channel=7 note=76 velocity=0 time=0.03125
EXTRACT: note_on channel=4 note=59 velocity=0 time=0.057291666666666664
EXTRACT: note_on channel=9 note=36 velocity=0 time=0.08854166666666666
EXTRACT: note_on channel=3 note=59 velocity=0 time=0
EXTRACT: note_on channel=9 note=76 velocity=67 time=0.05208333333333333
EXTRACT: note_on channel=7 note=74 velocity=86 time=0
EXTRACT: note_on channel=1 note=35 velocity=0 time=0.015625
EXTRACT: note_on channel=9 note=76 velocity=0 time=0.015625
EXTRACT: note_on channel=9 note=39 velocity=79 time=0.28125
EXTRACT: note_on channel=9 note=40 velocity=83 time=0
EXTRACT: note_on channel=9 note=42 velocity=105 time=0
EXTRACT: note_on channel=9 note=40 velocity=0 time=0.078125
EXTRACT: note_on channel=9 note=39 velocity=0 time=0.010416666666666666
EXTRACT: note_on channel=9 note=42 velocity=0 time=0.005208333333333333
EXTRACT: note_on channel=7 note=71 velocity=82 time=0.0625
EXTRACT: note_on channel=7 note=74 velocity=0 time=0.041666666666666664
EXTRACT: note_on channel=7 note=71 velocity=0 time=0.041666666666666664
EXTRACT: note_on channel=9 note=76 velocity=70 time=0.07291666666666666
EXTRACT: note_on channel=7 note=74 velocity=87 time=0
EXTRACT: note_on channel=9 note=76 velocity=0 time=0.03645833333333333
EXTRACT: note_on channel=7 note=74 velocity=0 time=0.0625
EXTRACT: note_on channel=9 note=36 velocity=94 time=0.057291666666666664
EXTRACT: note_on channel=9 note=42 velocity=91 time=0
EXTRACT: note_on channel=9 note=42 velocity=0 time=0.07291666666666666
EXTRACT: note_on channel=9 note=36 velocity=0 time=0.020833333333333332
EXTRACT: note_on channel=9 note=42 velocity=84 time=0.0625
EXTRACT: note_on channel=7 note=76 velocity=86 time=0
EXTRACT: note_on channel=9 note=42 velocity=0 time=0.09375
EXTRACT: note_on channel=7 note=76 velocity=0 time=0.005208333333333333
EXTRACT: note_on channel=9 note=42 velocity=83 time=0.057291666666666664
EXTRACT: note_on channel=9 note=42 velocity=0 time=0.08854166666666666
EXTRACT: note_on channel=9 note=36 velocity=102 time=0.06770833333333333
EXTRACT: note_on channel=9 note=76 velocity=61 time=0
EXTRACT: note_on channel=7 note=74 velocity=83 time=0
EXTRACT: note_on channel=11 note=57 velocity=81 time=0
EXTRACT: note_on channel=9 note=76 velocity=0 time=0.041666666666666664
EXTRACT: note_on channel=9 note=36 velocity=0 time=0.05208333333333333
EXTRACT: note_on channel=11 note=57 velocity=0 time=0.026041666666666664
EXTRACT: note_on channel=9 note=39 velocity=83 time=0.19270833333333331
EXTRACT: note_on channel=9 note=40 velocity=81 time=0
EXTRACT: note_on channel=9 note=42 velocity=88 time=0
EXTRACT: note_on channel=11 note=57 velocity=82 time=0
EXTRACT: note_on channel=9 note=40 velocity=0 time=0.06770833333333333
EXTRACT: note_on channel=9 note=39 velocity=0 time=0.026041666666666664
EXTRACT: note_on channel=9 note=42 velocity=0 time=0
EXTRACT: note_on channel=7 note=71 velocity=77 time=0.0625
EXTRACT: note_on channel=7 note=74 velocity=0 time=0.020833333333333332
EXTRACT: note_on channel=7 note=71 velocity=0 time=0.078125
EXTRACT: note_on channel=11 note=57 velocity=0 time=0.020833333333333332
EXTRACT: note_on channel=9 note=36 velocity=91 time=0.03645833333333333
EXTRACT: note_on channel=9 note=46 velocity=76 time=0
EXTRACT: note_on channel=7 note=74 velocity=87 time=0
EXTRACT: note_on channel=11 note=59 velocity=82 time=0
EXTRACT: note_on channel=9 note=36 velocity=0 time=0.06770833333333333
EXTRACT: note_on channel=7 note=74 velocity=0 time=0
EXTRACT: note_on channel=9 note=46 velocity=0 time=0.005208333333333333
EXTRACT: note_on channel=9 note=36 velocity=93 time=0.23958333333333331
EXTRACT: note_on channel=9 note=42 velocity=104 time=0
EXTRACT: note_on channel=7 note=76 velocity=92 time=0
EXTRACT: note_on channel=11 note=59 velocity=0 time=0.07291666666666666
EXTRACT: note_on channel=9 note=42 velocity=0 time=0.010416666666666666
EXTRACT: note_on channel=7 note=76 velocity=0 time=0.03125
EXTRACT: note_on channel=9 note=36 velocity=0 time=0.14583333333333331
EXTRACT: note_on channel=9 note=76 velocity=67 time=0.05208333333333333
EXTRACT: note_on channel=7 note=74 velocity=86 time=0
EXTRACT: note_on channel=9 note=76 velocity=0 time=0.03125
EXTRACT: note_on channel=9 note=39 velocity=79 time=0.28125
EXTRACT: note_on channel=9 note=40 velocity=83 time=0
EXTRACT: note_on channel=9 note=42 velocity=105 time=0
EXTRACT: note_on channel=9 note=40 velocity=0 time=0.078125
EXTRACT: note_on channel=9 note=39 velocity=0 time=0.010416666666666666
EXTRACT: note_on channel=9 note=42 velocity=0 time=0.005208333333333333
EXTRACT: note_on channel=7 note=71 velocity=82 time=0.0625
EXTRACT: note_on channel=7 note=74 velocity=0 time=0.041666666666666664
EXTRACT: note_on channel=7 note=71 velocity=0 time=0.041666666666666664
EXTRACT: note_on channel=9 note=76 velocity=70 time=0.07291666666666666
EXTRACT: note_on channel=7 note=74 velocity=87 time=0
EXTRACT: note_on channel=9 note=76 velocity=0 time=0.03645833333333333
EXTRACT: note_on channel=7 note=74 velocity=0 time=0.0625
EXTRACT: note_on channel=9 note=36 velocity=94 time=0.057291666666666664
EXTRACT: note_on channel=9 note=42 velocity=91 time=0
EXTRACT: note_on channel=9 note=42 velocity=0 time=0.07291666666666666
EXTRACT: note_on channel=9 note=36 velocity=0 time=0.020833333333333332
EXTRACT: note_on channel=9 note=42 velocity=84 time=0.0625
EXTRACT: note_on channel=7 note=76 velocity=86 time=0
EXTRACT: note_on channel=9 note=42 velocity=0 time=0.09375
EXTRACT: note_on channel=7 note=76 velocity=0 time=0.005208333333333333
EXTRACT: note_on channel=9 note=42 velocity=83 time=0.057291666666666664
EXTRACT: note_on channel=9 note=42 velocity=0 time=0.08854166666666666
EXTRACT: note_on channel=9 note=36 velocity=102 time=0.06770833333333333
EXTRACT: note_on channel=9 note=76 velocity=61 time=0
EXTRACT: note_on channel=7 note=74 velocity=83 time=0
EXTRACT: note_on channel=11 note=57 velocity=81 time=0
EXTRACT: note_on channel=9 note=76 velocity=0 time=0.041666666666666664
EXTRACT: note_on channel=9 note=36 velocity=0 time=0.05208333333333333
EXTRACT: note_on channel=11 note=57 velocity=0 time=0.026041666666666664
EXTRACT: note_on channel=9 note=39 velocity=83 time=0.19270833333333331
EXTRACT: note_on channel=9 note=40 velocity=81 time=0
EXTRACT: note_on channel=9 note=42 velocity=88 time=0
EXTRACT: note_on channel=11 note=57 velocity=82 time=0
EXTRACT: note_on channel=9 note=40 velocity=0 time=0.06770833333333333
EXTRACT: note_on channel=9 note=39 velocity=0 time=0.026041666666666664
EXTRACT: note_on channel=9 note=42 velocity=0 time=0
EXTRACT: note_on channel=7 note=71 velocity=77 time=0.0625
EXTRACT: note_on channel=7 note=74 velocity=0 time=0.020833333333333332
EXTRACT: note_on channel=7 note=71 velocity=0 time=0.078125
EXTRACT: note_on channel=11 note=57 velocity=0 time=0.020833333333333332
EXTRACT: note_on channel=9 note=36 velocity=91 time=0.03645833333333333
EXTRACT: note_on channel=9 note=46 velocity=76 time=0
EXTRACT: note_on channel=7 note=74 velocity=87 time=0
EXTRACT: note_on channel=11 note=59 velocity=82 time=0
EXTRACT: note_on channel=9 note=36 velocity=0 time=0.06770833333333333
EXTRACT: note_on channel=7 note=74 velocity=0 time=0
EXTRACT: note_on channel=9 note=46 velocity=0 time=0.005208333333333333
EXTRACT: note_on channel=9 note=36 velocity=93 time=0.23958333333333331
EXTRACT: note_on channel=9 note=42 velocity=104 time=0
EXTRACT: note_on channel=7 note=76 velocity=92 time=0
EXTRACT: note_on channel=11 note=59 velocity=0 time=0.07291666666666666
EXTRACT: note_on channel=9 note=42 velocity=0 time=0.010416666666666666
EXTRACT: note_on channel=7 note=76 velocity=0 time=0.03125
EXTRACT: note_on channel=9 note=36 velocity=0 time=0.14583333333333331
EXTRACT: note_on channel=9 note=76 velocity=67 time=0.05208333333333333
EXTRACT: note_on channel=7 note=74 velocity=86 time=0
EXTRACT: note_on channel=9 note=76 velocity=0 time=0.03125
EXTRACT: note_on channel=9 note=39 velocity=79 time=0.28125
EXTRACT: note_on channel=9 note=40 velocity=83 time=0
EXTRACT: note_on channel=9 note=42 velocity=105 time=0
EXTRACT: note_on channel=9 note=40 velocity=0 time=0.078125
EXTRACT: note_on channel=9 note=39 velocity=0 time=0.010416666666666666
EXTRACT: note_on channel=9 note=42 velocity=0 time=0.005208333333333333
EXTRACT: note_on channel=7 note=71 velocity=82 time=0.0625
EXTRACT: note_on channel=7 note=74 velocity=0 time=0.041666666666666664
EXTRACT: note_on channel=7 note=71 velocity=0 time=0.041666666666666664
EXTRACT: note_on channel=9 note=76 velocity=70 time=0.07291666666666666
EXTRACT: note_on channel=7 note=74 velocity=87 time=0
EXTRACT: note_on channel=9 note=76 velocity=0 time=0.03645833333333333
EXTRACT: note_on channel=7 note=74 velocity=0 time=0.0625
EXTRACT: note_on channel=9 note=36 velocity=94 time=0.057291666666666664
EXTRACT: note_on channel=9 note=42 velocity=91 time=0
EXTRACT: note_on channel=9 note=42 velocity=0 time=0.07291666666666666
EXTRACT: note_on channel=9 note=36 velocity=0 time=0.020833333333333332
EXTRACT: note_on channel=9 note=42 velocity=84 time=0.0625
EXTRACT: note_on channel=7 note=76 velocity=86 time=0
EXTRACT: note_on channel=9 note=42 velocity=0 time=0.09375
EXTRACT: note_on channel=7 note=76 velocity=0 time=0.005208333333333333
EXTRACT: note_on channel=9 note=42 velocity=83 time=0.057291666666666664
EXTRACT: note_on channel=9 note=42 velocity=0 time=0.08854166666666666
EXTRACT: note_on channel=9 note=36 velocity=102 time=0.06770833333333333
EXTRACT: note_on channel=9 note=76 velocity=61 time=0
EXTRACT: note_on channel=7 note=74 velocity=83 time=0
EXTRACT: note_on channel=11 note=57 velocity=81 time=0
EXTRACT: note_on channel=9 note=76 velocity=0 time=0.041666666666666664
EXTRACT: note_on channel=9 note=36 velocity=0 time=0.05208333333333333
EXTRACT: note_on channel=11 note=57 velocity=0 time=0.026041666666666664
EXTRACT: note_on channel=9 note=39 velocity=83 time=0.19270833333333331
EXTRACT: note_on channel=9 note=40 velocity=81 time=0
EXTRACT: note_on channel=9 note=42 velocity=88 time=0
EXTRACT: note_on channel=11 note=57 velocity=82 time=0
EXTRACT: note_on channel=9 note=40 velocity=0 time=0.06770833333333333
EXTRACT: note_on channel=9 note=39 velocity=0 time=0.026041666666666664
EXTRACT: note_on channel=9 note=42 velocity=0 time=0
EXTRACT: note_on channel=7 note=71 velocity=77 time=0.0625
EXTRACT: note_on channel=7 note=74 velocity=0 time=0.020833333333333332
EXTRACT: note_on channel=7 note=71 velocity=0 time=0.078125
EXTRACT: note_on channel=11 note=57 velocity=0 time=0.020833333333333332
EXTRACT: note_on channel=9 note=36 velocity=91 time=0.03645833333333333
EXTRACT: note_on channel=9 note=46 velocity=76 time=0
EXTRACT: note_on channel=7 note=74 velocity=87 time=0
EXTRACT: note_on channel=11 note=59 velocity=82 time=0
EXTRACT: note_on channel=9 note=36 velocity=0 time=0.06770833333333333
EXTRACT: note_on channel=7 note=74 velocity=0 time=0
EXTRACT: note_on channel=9 note=46 velocity=0 time=0.005208333333333333
EXTRACT: note_on channel=9 note=36 velocity=93 time=0.23958333333333331
EXTRACT: note_on channel=9 note=42 velocity=104 time=0
EXTRACT: note_on channel=7 note=76 velocity=92 time=0
EXTRACT: note_on channel=11 note=59 velocity=0 time=0.07291666666666666
EXTRACT: note_on channel=9 note=42 velocity=0 time=0.010416666666666666
EXTRACT: note_on channel=7 note=76 velocity=0 time=0.03125
EXTRACT: note_on channel=9 note=36 velocity=0 time=0.14583333333333331
EXTRACT: note_on channel=9 note=76 velocity=67 time=0.05208333333333333
EXTRACT: note_on channel=7 note=74 velocity=86 time=0
EXTRACT: note_on channel=9 note=76 velocity=0 time=0.03125
EXTRACT: note_on channel=9 note=39 velocity=79 time=0.28125
EXTRACT: note_on channel=9 note=40 velocity=83 time=0
EXTRACT: note_on channel=9 note=42 velocity=105 time=0
EXTRACT: note_on channel=9 note=40 velocity=0 time=0.078125
EXTRACT: note_on channel=9 note=39 velocity=0 time=0.010416666666666666
EXTRACT: note_on channel=9 note=42 velocity=0 time=0.005208333333333333
EXTRACT: note_on channel=7 note=71 velocity=82 time=0.0625
EXTRACT: note_on channel=7 note=74 velocity=0 time=0.041666666666666664
EXTRACT: note_on channel=7 note=71 velocity=0 time=0.041666666666666664
EXTRACT: note_on channel=9 note=76 velocity=70 time=0.07291666666666666
EXTRACT: note_on channel=7 note=74 velocity=87 time=0
EXTRACT: note_on channel=9 note=76 velocity=0 time=0.03645833333333333
EXTRACT: note_on channel=7 note=74 velocity=0 time=0.0625
EXTRACT: note_on channel=9 note=36 velocity=94 time=0.057291666666666664
EXTRACT: note_on channel=9 note=42 velocity=91 time=0
EXTRACT: note_on channel=9 note=42 velocity=0 time=0.07291666666666666
EXTRACT: note_on channel=9 note=36 velocity=0 time=0.020833333333333332
EXTRACT: note_on channel=9 note=42 velocity=84 time=0.0625
EXTRACT: note_on channel=7 note=76 velocity=86 time=0
EXTRACT: note_on channel=9 note=42 velocity=0 time=0.09375
EXTRACT: note_on channel=7 note=76 velocity=0 time=0.005208333333333333
EXTRACT: note_on channel=9 note=42 velocity=83 time=0.057291666666666664
EXTRACT: note_on channel=9 note=42 velocity=0 time=0.08854166666666666
EXTRACT: note_on channel=9 note=36 velocity=102 time=0.06770833333333333
EXTRACT: note_on channel=9 note=76 velocity=61 time=0
EXTRACT: note_on channel=7 note=74 velocity=83 time=0
EXTRACT: note_on channel=11 note=57 velocity=81 time=0
EXTRACT: note_on channel=9 note=76 velocity=0 time=0.041666666666666664
EXTRACT: note_on channel=9 note=36 velocity=0 time=0.05208333333333333
EXTRACT: note_on channel=11 note=57 velocity=0 time=0.026041666666666664
EXTRACT: note_on channel=9 note=39 velocity=83 time=0.19270833333333331
EXTRACT: note_on channel=9 note=40 velocity=81 time=0
EXTRACT: note_on channel=9 note=42 velocity=88 time=0
EXTRACT: note_on channel=11 note=57 velocity=82 time=0
EXTRACT: note_on channel=9 note=40 velocity=0 time=0.06770833333333333
EXTRACT: note_on channel=9 note=39 velocity=0 time=0.026041666666666664
EXTRACT: note_on channel=9 note=42 velocity=0 time=0
EXTRACT: note_on channel=7 note=71 velocity=77 time=0.0625
EXTRACT: note_on channel=7 note=74 velocity=0 time=0.020833333333333332
EXTRACT: note_on channel=7 note=71 velocity=0 time=0.078125
EXTRACT: note_on channel=11 note=57 velocity=0 time=0.020833333333333332
EXTRACT: note_on channel=9 note=36 velocity=91 time=0.03645833333333333
EXTRACT: note_on channel=9 note=46 velocity=76 time=0
EXTRACT: note_on channel=7 note=74 velocity=87 time=0
EXTRACT: note_on channel=11 note=59 velocity=82 time=0
EXTRACT: note_on channel=9 note=36 velocity=0 time=0.06770833333333333
EXTRACT: note_on channel=7 note=74 velocity=0 time=0
EXTRACT: note_on channel=9 note=46 velocity=0 time=0.005208333333333333
EXTRACT: note_on channel=9 note=36 velocity=93 time=0.23958333333333331
EXTRACT: note_on channel=9 note=42 velocity=104 time=0
EXTRACT: note_on channel=1 note=35 velocity=86 time=0
EXTRACT: note_on channel=7 note=76 velocity=92 time=0
EXTRACT: note_on channel=11 note=59 velocity=0 time=0.07291666666666666
EXTRACT: note_on channel=9 note=42 velocity=0 time=0.010416666666666666
EXTRACT: note_on channel=7 note=76 velocity=0 time=0.03125
EXTRACT: note_on channel=9 note=36 velocity=0 time=0.14583333333333331
EXTRACT: note_on channel=9 note=76 velocity=67 time=0.05208333333333333
EXTRACT: note_on channel=3 note=71 velocity=105 time=0
EXTRACT: note_on channel=7 note=74 velocity=86 time=0
EXTRACT: note_on channel=1 note=35 velocity=0 time=0.015625
EXTRACT: note_on channel=9 note=76 velocity=0 time=0.015625
EXTRACT: note_on channel=3 note=71 velocity=0 time=0.06770833333333333
EXTRACT: note_on channel=9 note=39 velocity=79 time=0.21354166666666666
EXTRACT: note_on channel=9 note=40 velocity=83 time=0
EXTRACT: note_on channel=9 note=42 velocity=105 time=0
EXTRACT: note_on channel=3 note=71 velocity=107 time=0
EXTRACT: note_on channel=9 note=40 velocity=0 time=0.078125
EXTRACT: note_on channel=9 note=39 velocity=0 time=0.010416666666666666
EXTRACT: note_on channel=9 note=42 velocity=0 time=0.005208333333333333
EXTRACT: note_on channel=7 note=71 velocity=82 time=0.0625
EXTRACT: note_on channel=3 note=71 velocity=0 time=0.010416666666666666
EXTRACT: note_on channel=7 note=74 velocity=0 time=0.03125
EXTRACT: note_on channel=7 note=71 velocity=0 time=0.041666666666666664
EXTRACT: note_on channel=9 note=76 velocity=70 time=0.07291666666666666
EXTRACT: note_on channel=3 note=71 velocity=103 time=0
EXTRACT: note_on channel=7 note=74 velocity=87 time=0
EXTRACT: note_on channel=9 note=76 velocity=0 time=0.03645833333333333
EXTRACT: note_on channel=3 note=71 velocity=0 time=0.041666666666666664
EXTRACT: note_on channel=7 note=74 velocity=0 time=0.020833333333333332
EXTRACT: note_on channel=9 note=36 velocity=94 time=0.057291666666666664
EXTRACT: note_on channel=9 note=42 velocity=91 time=0
EXTRACT: note_on channel=3 note=71 velocity=97 time=0
EXTRACT: note_on channel=9 note=42 velocity=0 time=0.07291666666666666
EXTRACT: note_on channel=9 note=36 velocity=0 time=0.020833333333333332
EXTRACT: note_on channel=3 note=71 velocity=0 time=0
EXTRACT: note_on channel=9 note=42 velocity=84 time=0.0625
EXTRACT: note_on channel=3 note=71 velocity=103 time=0
EXTRACT: note_on channel=7 note=76 velocity=86 time=0
EXTRACT: note_on channel=9 note=42 velocity=0 time=0.09375
EXTRACT: note_on channel=7 note=76 velocity=0 time=0.005208333333333333
EXTRACT: note_on channel=9 note=42 velocity=83 time=0.057291666666666664
EXTRACT: note_on channel=3 note=71 velocity=97 time=0
EXTRACT: note_on channel=3 note=71 velocity=0 time=0.078125
EXTRACT: note_on channel=9 note=42 velocity=0 time=0.010416666666666666
EXTRACT: note_on channel=3 note=71 velocity=0 time=0.0625
EXTRACT: note_on channel=9 note=36 velocity=102 time=0.005208333333333333
EXTRACT: note_on channel=9 note=76 velocity=61 time=0
EXTRACT: note_on channel=3 note=66 velocity=101 time=0
EXTRACT: note_on channel=7 note=74 velocity=83 time=0
EXTRACT: note_on channel=9 note=76 velocity=0 time=0.041666666666666664
EXTRACT: note_on channel=9 note=36 velocity=0 time=0.05208333333333333
EXTRACT: note_on channel=3 note=66 velocity=0 time=0
EXTRACT: note_on channel=3 note=66 velocity=100 time=0.0625
EXTRACT: note_on channel=9 note=39 velocity=83 time=0.15625
EXTRACT: note_on channel=9 note=40 velocity=81 time=0
EXTRACT: note_on channel=9 note=42 velocity=88 time=0
EXTRACT: note_on channel=9 note=40 velocity=0 time=0.06770833333333333
EXTRACT: note_on channel=9 note=39 velocity=0 time=0.026041666666666664
EXTRACT: note_on channel=9 note=42 velocity=0 time=0
EXTRACT: note_on channel=3 note=66 velocity=0 time=0.026041666666666664
EXTRACT: note_on channel=3 note=69 velocity=97 time=0.03645833333333333
EXTRACT: note_on channel=7 note=71 velocity=77 time=0
EXTRACT: note_on channel=7 note=74 velocity=0 time=0.020833333333333332
EXTRACT: note_on channel=3 note=69 velocity=0 time=0.0625
EXTRACT: note_on channel=7 note=71 velocity=0 time=0.015625
EXTRACT: note_on channel=9 note=36 velocity=91 time=0.057291666666666664
EXTRACT: note_on channel=9 note=46 velocity=76 time=0
EXTRACT: note_on channel=3 note=69 velocity=101 time=0
EXTRACT: note_on channel=7 note=74 velocity=87 time=0
EXTRACT: note_on channel=9 note=36 velocity=0 time=0.06770833333333333
EXTRACT: note_on channel=7 note=74 velocity=0 time=0
EXTRACT: note_on channel=9 note=46 velocity=0 time=0.005208333333333333
EXTRACT: note_on channel=3 note=69 velocity=0 time=0.16666666666666666
EXTRACT: note_on channel=9 note=36 velocity=93 time=0.07291666666666666
EXTRACT: note_on channel=9 note=42 velocity=104 time=0
EXTRACT: note_on channel=7 note=76 velocity=92 time=0
EXTRACT: note_on channel=9 note=42 velocity=0 time=0.08333333333333333
EXTRACT: note_on channel=7 note=76 velocity=0 time=0.03125
EXTRACT: note_on channel=3 note=69 velocity=95 time=0.041666666666666664
EXTRACT: note_on channel=3 note=69 velocity=0 time=0.08854166666666666
EXTRACT: note_on channel=9 note=36 velocity=0 time=0.015625
EXTRACT: note_on channel=9 note=76 velocity=67 time=0.05208333333333333
EXTRACT: note_on channel=3 note=69 velocity=98 time=0
EXTRACT: note_on channel=7 note=74 velocity=86 time=0
EXTRACT: note_on channel=9 note=76 velocity=0 time=0.03125
EXTRACT: note_on channel=3 note=69 velocity=0 time=0.057291666666666664
EXTRACT: note_on channel=3 note=69 velocity=91 time=0.06770833333333333
EXTRACT: note_on channel=3 note=69 velocity=0 time=0.08333333333333333
EXTRACT: note_on channel=9 note=39 velocity=79 time=0.07291666666666666
EXTRACT: note_on channel=9 note=40 velocity=83 time=0
EXTRACT: note_on channel=9 note=42 velocity=105 time=0
EXTRACT: note_on channel=3 note=69 velocity=101 time=0
EXTRACT: note_on channel=9 note=40 velocity=0 time=0.078125
EXTRACT: note_on channel=9 note=39 velocity=0 time=0.010416666666666666
EXTRACT: note_on channel=9 note=42 velocity=0 time=0.005208333333333333
EXTRACT: note_on channel=3 note=69 velocity=0 time=0
EXTRACT: note_on channel=3 note=69 velocity=95 time=0.0625
EXTRACT: note_on channel=7 note=71 velocity=82 time=0
EXTRACT: note_on channel=7 note=74 velocity=0 time=0.041666666666666664
EXTRACT: note_on channel=3 note=69 velocity=0 time=0.041666666666666664
EXTRACT: note_on channel=7 note=71 velocity=0 time=0
EXTRACT: note_on channel=9 note=76 velocity=70 time=0.07291666666666666
EXTRACT: note_on channel=3 note=69 velocity=92 time=0
EXTRACT: note_on channel=7 note=74 velocity=87 time=0
EXTRACT: note_on channel=9 note=76 velocity=0 time=0.03645833333333333
EXTRACT: note_on channel=3 note=69 velocity=0 time=0.046875
EXTRACT: note_on channel=7 note=74 velocity=0 time=0.015625
EXTRACT: note_on channel=9 note=36 velocity=94 time=0.057291666666666664
EXTRACT: note_on channel=9 note=42 velocity=91 time=0
EXTRACT: note_on channel=3 note=69 velocity=89 time=0
EXTRACT: note_on channel=9 note=42 velocity=0 time=0.07291666666666666
EXTRACT: note_on channel=3 note=69 velocity=0 time=0.010416666666666666
EXTRACT: note_on channel=9 note=36 velocity=0 time=0.010416666666666666
EXTRACT: note_on channel=9 note=42 velocity=84 time=0.0625
EXTRACT: note_on channel=3 note=69 velocity=95 time=0
EXTRACT: note_on channel=7 note=76 velocity=86 time=0
EXTRACT: note_on channel=3 note=69 velocity=0 time=0.08854166666666666
EXTRACT: note_on channel=9 note=42 velocity=0 time=0.005208333333333333
EXTRACT: note_on channel=7 note=76 velocity=0 time=0.005208333333333333
EXTRACT: note_on channel=9 note=42 velocity=83 time=0.057291666666666664
EXTRACT: note_on channel=3 note=69 velocity=98 time=0
EXTRACT: note_on channel=9 note=42 velocity=0 time=0.08854166666666666
EXTRACT: note_on channel=3 note=69 velocity=0 time=0.005208333333333333
EXTRACT: note_on channel=9 note=36 velocity=102 time=0.0625
EXTRACT: note_on channel=9 note=76 velocity=61 time=0
EXTRACT: note_on channel=3 note=66 velocity=111 time=0
EXTRACT: note_on channel=7 note=74 velocity=83 time=0
EXTRACT: note_on channel=9 note=76 velocity=0 time=0.041666666666666664
EXTRACT: note_on channel=9 note=36 velocity=0 time=0.05208333333333333
EXTRACT: note_on channel=3 note=66 velocity=0 time=0.046875
EXTRACT: note_on channel=3 note=69 velocity=101 time=0.015625
EXTRACT: note_on channel=9 note=39 velocity=83 time=0.15625
EXTRACT: note_on channel=9 note=40 velocity=81 time=0
EXTRACT: note_on channel=9 note=42 velocity=88 time=0
EXTRACT: note_on channel=9 note=40 velocity=0 time=0.06770833333333333
EXTRACT: note_on channel=3 note=69 velocity=0 time=0.005208333333333333
EXTRACT: note_on channel=9 note=39 velocity=0 time=0.020833333333333332
EXTRACT: note_on channel=9 note=42 velocity=0 time=0
EXTRACT: note_on channel=3 note=69 velocity=98 time=0.0625
EXTRACT: note_on channel=7 note=71 velocity=77 time=0
EXTRACT: note_on channel=7 note=74 velocity=0 time=0.020833333333333332
EXTRACT: note_on channel=3 note=69 velocity=0 time=0.078125
EXTRACT: note_on channel=7 note=71 velocity=0 time=0
EXTRACT: note_on channel=9 note=36 velocity=91 time=0.057291666666666664
EXTRACT: note_on channel=9 note=46 velocity=76 time=0
EXTRACT: note_on channel=3 note=71 velocity=109 time=0
EXTRACT: note_on channel=7 note=74 velocity=87 time=0
EXTRACT: note_on channel=9 note=36 velocity=0 time=0.06770833333333333
EXTRACT: note_on channel=7 note=74 velocity=0 time=0
EXTRACT: note_on channel=9 note=46 velocity=0 time=0.005208333333333333
EXTRACT: note_on channel=3 note=71 velocity=0 time=0.140625
EXTRACT: note_on channel=9 note=36 velocity=93 time=0.09895833333333333
EXTRACT: note_on channel=9 note=42 velocity=104 time=0
EXTRACT: note_on channel=7 note=76 velocity=92 time=0
EXTRACT: note_on channel=9 note=42 velocity=0 time=0.08333333333333333
EXTRACT: note_on channel=7 note=76 velocity=0 time=0.03125
EXTRACT: note_on channel=9 note=36 velocity=0 time=0.14583333333333331
EXTRACT: note_on channel=9 note=76 velocity=67 time=0.05208333333333333
EXTRACT: note_on channel=3 note=66 velocity=110 time=0
EXTRACT: note_on channel=7 note=74 velocity=86 time=0
EXTRACT: note_on channel=9 note=76 velocity=0 time=0.03125
EXTRACT: note_on channel=3 note=66 velocity=0 time=0.2708333333333333
EXTRACT: note_on channel=9 note=39 velocity=79 time=0.010416666666666666
EXTRACT: note_on channel=9 note=40 velocity=83 time=0
EXTRACT: note_on channel=9 note=42 velocity=105 time=0
EXTRACT: note_on channel=3 note=73 velocity=101 time=0
EXTRACT: note_on channel=9 note=40 velocity=0 time=0.078125
EXTRACT: note_on channel=9 note=39 velocity=0 time=0.010416666666666666
EXTRACT: note_on channel=9 note=42 velocity=0 time=0.005208333333333333
EXTRACT: note_on channel=7 note=71 velocity=82 time=0.0625
EXTRACT: note_on channel=7 note=74 velocity=0 time=0.041666666666666664
EXTRACT: note_on channel=7 note=71 velocity=0 time=0.041666666666666664
EXTRACT: note_on channel=3 note=73 velocity=0 time=0.005208333333333333
EXTRACT: note_on channel=9 note=76 velocity=70 time=0.06770833333333333
EXTRACT: note_on channel=3 note=73 velocity=93 time=0
EXTRACT: note_on channel=7 note=74 velocity=87 time=0
EXTRACT: note_on channel=9 note=76 velocity=0 time=0.03645833333333333
EXTRACT: note_on channel=7 note=74 velocity=0 time=0.0625
EXTRACT: note_on channel=3 note=73 velocity=0 time=0.026041666666666664
EXTRACT: note_on channel=9 note=36 velocity=94 time=0.03125
EXTRACT: note_on channel=9 note=42 velocity=91 time=0
EXTRACT: note_on channel=3 note=74 velocity=96 time=0
EXTRACT: note_on channel=9 note=42 velocity=0 time=0.07291666666666666
EXTRACT: note_on channel=9 note=36 velocity=0 time=0.020833333333333332
EXTRACT: note_on channel=3 note=74 velocity=0 time=0.057291666666666664
EXTRACT: note_on channel=9 note=42 velocity=84 time=0.005208333333333333
EXTRACT: note_on channel=3 note=73 velocity=102 time=0
EXTRACT: note_on channel=7 note=76 velocity=86 time=0
EXTRACT: note_on channel=9 note=42 velocity=0 time=0.09375
EXTRACT: note_on channel=7 note=76 velocity=0 time=0.005208333333333333
EXTRACT: note_on channel=9 note=42 velocity=83 time=0.057291666666666664
EXTRACT: note_on channel=9 note=42 velocity=0 time=0.08854166666666666
EXTRACT: note_on channel=3 note=73 velocity=0 time=0.0625
EXTRACT: note_on channel=9 note=36 velocity=102 time=0.005208333333333333
EXTRACT: note_on channel=9 note=76 velocity=61 time=0
EXTRACT: note_on channel=3 note=71 velocity=101 time=0
EXTRACT: note_on channel=7 note=74 velocity=83 time=0
EXTRACT: note_on channel=9 note=76 velocity=0 time=0.041666666666666664
EXTRACT: note_on channel=9 note=36 velocity=0 time=0.05208333333333333
EXTRACT: note_on channel=3 note=71 velocity=0 time=0.15104166666666666
EXTRACT: note_on channel=9 note=39 velocity=83 time=0.06770833333333333
EXTRACT: note_on channel=9 note=40 velocity=81 time=0
EXTRACT: note_on channel=9 note=42 velocity=88 time=0
EXTRACT: note_on channel=3 note=71 velocity=102 time=0
EXTRACT: note_on channel=9 note=40 velocity=0 time=0.06770833333333333
EXTRACT: note_on channel=9 note=39 velocity=0 time=0.026041666666666664
EXTRACT: note_on channel=9 note=42 velocity=0 time=0
EXTRACT: note_on channel=7 note=71 velocity=77 time=0.0625
EXTRACT: note_on channel=7 note=74 velocity=0 time=0.020833333333333332
EXTRACT: note_on channel=7 note=71 velocity=0 time=0.078125
EXTRACT: note_on channel=3 note=71 velocity=0 time=0.05208333333333333
EXTRACT: note_on channel=9 note=36 velocity=91 time=0.005208333333333333
EXTRACT: note_on channel=9 note=46 velocity=76 time=0
EXTRACT: note_on channel=3 note=66 velocity=107 time=0
EXTRACT: note_on channel=4 note=62 velocity=86 time=0
EXTRACT: note_on channel=7 note=74 velocity=87 time=0
EXTRACT: note_on channel=9 note=36 velocity=0 time=0.06770833333333333
EXTRACT: note_on channel=7 note=74 velocity=0 time=0
EXTRACT: note_on channel=9 note=46 velocity=0 time=0.005208333333333333
EXTRACT: note_on channel=4 note=62 velocity=0 time=0.09895833333333333
EXTRACT: note_on channel=3 note=66 velocity=0 time=0.08854166666666666
EXTRACT: note_on channel=9 note=36 velocity=93 time=0.05208333333333333
EXTRACT: note_on channel=9 note=42 velocity=104 time=0
EXTRACT: note_on channel=4 note=62 velocity=81 time=0
EXTRACT: note_on channel=7 note=76 velocity=92 time=0
EXTRACT: note_on channel=9 note=42 velocity=0 time=0.08333333333333333
EXTRACT: note_on channel=7 note=76 velocity=0 time=0.03125
EXTRACT: note_on channel=9 note=36 velocity=0 time=0.14583333333333331
EXTRACT: note_on channel=4 note=62 velocity=0 time=0.010416666666666666
EXTRACT: note_on channel=9 note=76 velocity=67 time=0.041666666666666664
EXTRACT: note_on channel=3 note=73 velocity=101 time=0
EXTRACT: note_on channel=7 note=74 velocity=86 time=0
EXTRACT: note_on channel=9 note=76 velocity=0 time=0.03125
EXTRACT: note_on channel=3 note=73 velocity=0 time=0.14583333333333331
EXTRACT: note_on channel=9 note=39 velocity=79 time=0.13541666666666666
EXTRACT: note_on channel=9 note=40 velocity=83 time=0
EXTRACT: note_on channel=9 note=42 velocity=105 time=0
EXTRACT: note_on channel=3 note=73 velocity=101 time=0
EXTRACT: note_on channel=9 note=40 velocity=0 time=0.078125
EXTRACT: note_on channel=9 note=39 velocity=0 time=0.010416666666666666
EXTRACT: note_on channel=9 note=42 velocity=0 time=0.005208333333333333
EXTRACT: note_on channel=7 note=71 velocity=82 time=0.0625
EXTRACT: note_on channel=7 note=74 velocity=0 time=0.041666666666666664
EXTRACT: note_on channel=7 note=71 velocity=0 time=0.041666666666666664
EXTRACT: note_on channel=3 note=73 velocity=0 time=0.010416666666666666
EXTRACT: note_on channel=9 note=76 velocity=70 time=0.0625
EXTRACT: note_on channel=3 note=73 velocity=93 time=0
EXTRACT: note_on channel=7 note=74 velocity=87 time=0
EXTRACT: note_on channel=9 note=76 velocity=0 time=0.03645833333333333
EXTRACT: note_on channel=7 note=74 velocity=0 time=0.0625
EXTRACT: note_on channel=3 note=73 velocity=0 time=0.026041666666666664
EXTRACT: note_on channel=9 note=36 velocity=94 time=0.03125
EXTRACT: note_on channel=9 note=42 velocity=91 time=0
EXTRACT: note_on channel=3 note=74 velocity=97 time=0
EXTRACT: note_on channel=9 note=42 velocity=0 time=0.07291666666666666
EXTRACT: note_on channel=9 note=36 velocity=0 time=0.020833333333333332
EXTRACT: note_on channel=3 note=74 velocity=0 time=0.041666666666666664
EXTRACT: note_on channel=9 note=42 velocity=84 time=0.020833333333333332
EXTRACT: note_on channel=3 note=73 velocity=97 time=0
EXTRACT: note_on channel=7 note=76 velocity=86 time=0
EXTRACT: note_on channel=9 note=42 velocity=0 time=0.09375
EXTRACT: note_on channel=7 note=76 velocity=0 time=0.005208333333333333
EXTRACT: note_on channel=3 note=73 velocity=0 time=0.05208333333333333
EXTRACT: note_on channel=9 note=42 velocity=83 time=0.005208333333333333
EXTRACT: note_on channel=3 note=71 velocity=97 time=0
EXTRACT: note_on channel=3 note=71 velocity=0 time=0.08333333333333333
EXTRACT: note_on channel=9 note=42 velocity=0 time=0.005208333333333333
EXTRACT: note_on channel=9 note=36 velocity=102 time=0.06770833333333333
EXTRACT: note_on channel=9 note=76 velocity=61 time=0
EXTRACT: note_on channel=3 note=71 velocity=93 time=0
EXTRACT: note_on channel=7 note=74 velocity=83 time=0
EXTRACT: note_on channel=9 note=76 velocity=0 time=0.041666666666666664
EXTRACT: note_on channel=9 note=36 velocity=0 time=0.05208333333333333
EXTRACT: note_on channel=3 note=71 velocity=0 time=0
EXTRACT: note_on channel=9 note=39 velocity=83 time=0.21875
EXTRACT: note_on channel=9 note=40 velocity=81 time=0
EXTRACT: note_on channel=9 note=42 velocity=88 time=0
EXTRACT: note_on channel=3 note=71 velocity=102 time=0
EXTRACT: note_on channel=9 note=40 velocity=0 time=0.06770833333333333
EXTRACT: note_on channel=9 note=39 velocity=0 time=0.026041666666666664
EXTRACT: note_on channel=9 note=42 velocity=0 time=0
EXTRACT: note_on channel=7 note=71 velocity=77 time=0.0625
EXTRACT: note_on channel=7 note=74 velocity=0 time=0.020833333333333332
EXTRACT: note_on channel=7 note=71 velocity=0 time=0.078125
EXTRACT: note_on channel=3 note=71 velocity=0 time=0.046875
EXTRACT: note_on channel=9 note=36 velocity=91 time=0.010416666666666666
EXTRACT: note_on channel=9 note=46 velocity=76 time=0
EXTRACT: note_on channel=3 note=66 velocity=104 time=0
EXTRACT: note_on channel=4 note=59 velocity=79 time=0
EXTRACT: note_on channel=4 note=62 velocity=74 time=0
EXTRACT: note_on channel=7 note=74 velocity=87 time=0
EXTRACT: note_on channel=9 note=36 velocity=0 time=0.06770833333333333
EXTRACT: note_on channel=7 note=74 velocity=0 time=0
EXTRACT: note_on channel=9 note=46 velocity=0 time=0.005208333333333333
EXTRACT: note_on channel=4 note=62 velocity=0 time=0.078125
EXTRACT: note_on channel=4 note=59 velocity=0 time=0.010416666666666666
EXTRACT: note_on channel=3 note=66 velocity=0 time=0.06770833333333333
EXTRACT: note_on channel=9 note=36 velocity=93 time=0.08333333333333333
EXTRACT: note_on channel=9 note=42 velocity=104 time=0
EXTRACT: note_on channel=4 note=59 velocity=80 time=0
EXTRACT: note_on channel=4 note=62 velocity=73 time=0
EXTRACT: note_on channel=7 note=76 velocity=92 time=0
EXTRACT: note_on channel=9 note=42 velocity=0 time=0.08333333333333333
EXTRACT: note_on channel=7 note=76 velocity=0 time=0.03125
EXTRACT: note_on channel=4 note=59 velocity=0 time=0.140625
EXTRACT: note_on channel=9 note=36 velocity=0 time=0.005208333333333333
EXTRACT: note_on channel=4 note=62 velocity=0 time=0.005208333333333333
EXTRACT: note_on channel=9 note=76 velocity=67 time=0.046875
EXTRACT: note_on channel=3 note=71 velocity=110 time=0
EXTRACT: note_on channel=7 note=74 velocity=86 time=0
EXTRACT: note_on channel=9 note=76 velocity=0 time=0.03125
EXTRACT: note_on channel=3 note=71 velocity=0 time=0.03645833333333333
EXTRACT: note_on channel=3 note=71 velocity=107 time=0.08854166666666666
EXTRACT: note_on channel=3 note=71 velocity=0 time=0.06770833333333333
EXTRACT: note_on channel=9 note=39 velocity=79 time=0.08854166666666666
EXTRACT: note_on channel=9 note=40 velocity=83 time=0
EXTRACT: note_on channel=9 note=42 velocity=105 time=0
EXTRACT: note_on channel=3 note=71 velocity=107 time=0
EXTRACT: note_on channel=3 note=71 velocity=0 time=0.07291666666666666
EXTRACT: note_on channel=9 note=40 velocity=0 time=0.005208333333333333
EXTRACT: note_on channel=9 note=39 velocity=0 time=0.010416666666666666
EXTRACT: note_on channel=9 note=42 velocity=0 time=0.005208333333333333
EXTRACT: note_on channel=3 note=71 velocity=103 time=0.0625
EXTRACT: note_on channel=7 note=71 velocity=82 time=0
EXTRACT: note_on channel=7 note=74 velocity=0 time=0.041666666666666664
EXTRACT: note_on channel=3 note=71 velocity=0 time=0.026041666666666664
EXTRACT: note_on channel=7 note=71 velocity=0 time=0.015625
EXTRACT: note_on channel=9 note=76 velocity=70 time=0.07291666666666666
EXTRACT: note_on channel=3 note=71 velocity=104 time=0
EXTRACT: note_on channel=7 note=74 velocity=87 time=0
EXTRACT: note_on channel=9 note=76 velocity=0 time=0.03645833333333333
EXTRACT: note_on channel=3 note=71 velocity=0 time=0.03125
EXTRACT: note_on channel=7 note=74 velocity=0 time=0.03125
EXTRACT: note_on channel=9 note=36 velocity=94 time=0.057291666666666664
EXTRACT: note_on channel=9 note=42 velocity=91 time=0
EXTRACT: note_on channel=3 note=71 velocity=109 time=0
EXTRACT: note_on channel=9 note=42 velocity=0 time=0.07291666666666666
EXTRACT: note_on channel=9 note=36 velocity=0 time=0.020833333333333332
EXTRACT: note_on channel=9 note=42 velocity=84 time=0.0625
EXTRACT: note_on channel=7 note=76 velocity=86 time=0
EXTRACT: note_on channel=9 note=42 velocity=0 time=0.09375
EXTRACT: note_on channel=7 note=76 velocity=0 time=0.005208333333333333
EXTRACT: note_on channel=9 note=42 velocity=83 time=0.057291666666666664
EXTRACT: note_on channel=9 note=42 velocity=0 time=0.08854166666666666
EXTRACT: note_on channel=3 note=71 velocity=0 time=0.046875
EXTRACT: note_on channel=9 note=36 velocity=102 time=0.020833333333333332
EXTRACT: note_on channel=9 note=76 velocity=61 time=0
EXTRACT: note_on channel=3 note=69 velocity=103 time=0
EXTRACT: note_on channel=7 note=74 velocity=83 time=0
EXTRACT: note_on channel=9 note=76 velocity=0 time=0.041666666666666664
EXTRACT: note_on channel=3 note=69 velocity=0 time=0.03645833333333333
EXTRACT: note_on channel=9 note=36 velocity=0 time=0.015625
EXTRACT: note_on channel=3 note=69 velocity=100 time=0.0625
EXTRACT: note_on channel=3 note=69 velocity=0 time=0.078125
EXTRACT: note_on channel=9 note=39 velocity=83 time=0.078125
EXTRACT: note_on channel=9 note=40 velocity=81 time=0
EXTRACT: note_on channel=9 note=42 velocity=88 time=0
EXTRACT: note_on channel=3 note=69 velocity=102 time=0
EXTRACT: note_on channel=9 note=40 velocity=0 time=0.06770833333333333
EXTRACT: note_on channel=3 note=69 velocity=0 time=0.015625
EXTRACT: note_on channel=9 note=39 velocity=0 time=0.010416666666666666
EXTRACT: note_on channel=9 note=42 velocity=0 time=0
EXTRACT: note_on channel=3 note=69 velocity=97 time=0.0625
EXTRACT: note_on channel=7 note=71 velocity=77 time=0
EXTRACT: note_on channel=7 note=74 velocity=0 time=0.020833333333333332
EXTRACT: note_on channel=3 note=69 velocity=0 time=0.0625
EXTRACT: note_on channel=7 note=71 velocity=0 time=0.015625
EXTRACT: note_on channel=9 note=36 velocity=91 time=0.057291666666666664
EXTRACT: note_on channel=9 note=46 velocity=76 time=0
EXTRACT: note_on channel=3 note=69 velocity=104 time=0
EXTRACT: note_on channel=7 note=74 velocity=87 time=0
EXTRACT: note_on channel=9 note=36 velocity=0 time=0.06770833333333333
EXTRACT: note_on channel=7 note=74 velocity=0 time=0
EXTRACT: note_on channel=9 note=46 velocity=0 time=0.005208333333333333
EXTRACT: note_on channel=3 note=69 velocity=0 time=0.09895833333333333
EXTRACT: note_on channel=9 note=36 velocity=93 time=0.140625
EXTRACT: note_on channel=9 note=42 velocity=104 time=0
EXTRACT: note_on channel=7 note=76 velocity=92 time=0
EXTRACT: note_on channel=9 note=42 velocity=0 time=0.08333333333333333
EXTRACT: note_on channel=7 note=76 velocity=0 time=0.03125
EXTRACT: note_on channel=9 note=36 velocity=0 time=0.14583333333333331
EXTRACT: note_on channel=9 note=76 velocity=67 time=0.05208333333333333
EXTRACT: note_on channel=3 note=71 velocity=108 time=0
EXTRACT: note_on channel=7 note=74 velocity=86 time=0
EXTRACT: note_on channel=9 note=76 velocity=0 time=0.03125
EXTRACT: note_on channel=3 note=71 velocity=0 time=0.041666666666666664
EXTRACT: note_on channel=3 note=71 velocity=103 time=0.08333333333333333
EXTRACT: note_on channel=3 note=71 velocity=0 time=0.07291666666666666
EXTRACT: note_on channel=9 note=39 velocity=79 time=0.08333333333333333
EXTRACT: note_on channel=9 note=40 velocity=83 time=0
EXTRACT: note_on channel=9 note=42 velocity=105 time=0
EXTRACT: note_on channel=3 note=71 velocity=102 time=0
EXTRACT: note_on channel=3 note=71 velocity=0 time=0.07291666666666666
EXTRACT: note_on channel=9 note=40 velocity=0 time=0.005208333333333333
EXTRACT: note_on channel=9 note=39 velocity=0 time=0.010416666666666666
EXTRACT: note_on channel=9 note=42 velocity=0 time=0.005208333333333333
EXTRACT: note_on channel=3 note=71 velocity=101 time=0.0625
EXTRACT: note_on channel=7 note=71 velocity=82 time=0
EXTRACT: note_on channel=7 note=74 velocity=0 time=0.041666666666666664
EXTRACT: note_on channel=3 note=71 velocity=0 time=0.03125
EXTRACT: note_on channel=7 note=71 velocity=0 time=0.010416666666666666
EXTRACT: note_on channel=9 note=76 velocity=70 time=0.07291666666666666
EXTRACT: note_on channel=3 note=71 velocity=101 time=0
EXTRACT: note_on channel=7 note=74 velocity=87 time=0
EXTRACT: note_on channel=9 note=76 velocity=0 time=0.03645833333333333
EXTRACT: note_on channel=3 note=71 velocity=0 time=0.03645833333333333
EXTRACT: note_on channel=7 note=74 velocity=0 time=0.026041666666666664
EXTRACT: note_on channel=9 note=36 velocity=94 time=0.057291666666666664
EXTRACT: note_on channel=9 note=42 velocity=91 time=0
EXTRACT: note_on channel=3 note=71 velocity=111 time=0
EXTRACT: note_on channel=9 note=42 velocity=0 time=0.07291666666666666
EXTRACT: note_on channel=9 note=36 velocity=0 time=0.020833333333333332
EXTRACT: note_on channel=9 note=42 velocity=84 time=0.0625
EXTRACT: note_on channel=7 note=76 velocity=86 time=0
EXTRACT: note_on channel=9 note=42 velocity=0 time=0.09375
EXTRACT: note_on channel=7 note=76 velocity=0 time=0.005208333333333333
EXTRACT: note_on channel=9 note=42 velocity=83 time=0.057291666666666664
EXTRACT: note_on channel=9 note=42 velocity=0 time=0.08854166666666666
EXTRACT: note_on channel=3 note=71 velocity=0 time=0.0625
EXTRACT: note_on channel=9 note=36 velocity=102 time=0.005208333333333333
EXTRACT: note_on channel=9 note=76 velocity=61 time=0
EXTRACT: note_on channel=3 note=69 velocity=101 time=0
EXTRACT: note_on channel=7 note=74 velocity=83 time=0
EXTRACT: note_on channel=9 note=76 velocity=0 time=0.041666666666666664
EXTRACT: note_on channel=3 note=69 velocity=0 time=0.03645833333333333
EXTRACT: note_on channel=9 note=36 velocity=0 time=0.015625
EXTRACT: note_on channel=3 note=69 velocity=98 time=0.0625
EXTRACT: note_on channel=3 note=69 velocity=0 time=0.078125
EXTRACT: note_on channel=9 note=39 velocity=83 time=0.078125
EXTRACT: note_on channel=9 note=40 velocity=81 time=0
EXTRACT: note_on channel=9 note=42 velocity=88 time=0
EXTRACT: note_on channel=3 note=69 velocity=110 time=0
EXTRACT: note_on channel=9 note=40 velocity=0 time=0.06770833333333333
EXTRACT: note_on channel=9 note=39 velocity=0 time=0.026041666666666664
EXTRACT: note_on channel=9 note=42 velocity=0 time=0
EXTRACT: note_on channel=7 note=71 velocity=77 time=0.0625
EXTRACT: note_on channel=7 note=74 velocity=0 time=0.020833333333333332
EXTRACT: note_on channel=3 note=69 velocity=0 time=0.015625
EXTRACT: note_on channel=7 note=71 velocity=0 time=0.0625
EXTRACT: note_on channel=9 note=36 velocity=91 time=0.057291666666666664
EXTRACT: note_on channel=9 note=46 velocity=76 time=0
EXTRACT: note_on channel=3 note=69 velocity=105 time=0
EXTRACT: note_on channel=7 note=74 velocity=87 time=0
EXTRACT: note_on channel=9 note=36 velocity=0 time=0.06770833333333333
EXTRACT: note_on channel=7 note=74 velocity=0 time=0
EXTRACT: note_on channel=9 note=46 velocity=0 time=0.005208333333333333
EXTRACT: note_on channel=3 note=69 velocity=0 time=0.10416666666666666
EXTRACT: note_on channel=9 note=36 velocity=93 time=0.13541666666666666
EXTRACT: note_on channel=9 note=42 velocity=104 time=0
EXTRACT: note_on channel=7 note=76 velocity=92 time=0
EXTRACT: note_on channel=9 note=42 velocity=0 time=0.08333333333333333
EXTRACT: note_on channel=7 note=76 velocity=0 time=0.03125
EXTRACT: note_on channel=9 note=36 velocity=0 time=0.14583333333333331
EXTRACT: note_on channel=9 note=76 velocity=67 time=0.05208333333333333
EXTRACT: note_on channel=3 note=71 velocity=108 time=0
EXTRACT: note_on channel=7 note=74 velocity=86 time=0
EXTRACT: note_on channel=9 note=76 velocity=0 time=0.03125
EXTRACT: note_on channel=3 note=71 velocity=0 time=0.08854166666666666
EXTRACT: note_on channel=3 note=69 velocity=97 time=0.03645833333333333
EXTRACT: note_on channel=3 note=69 velocity=0 time=0.08333333333333333
EXTRACT: note_on channel=9 note=39 velocity=79 time=0.07291666666666666
EXTRACT: note_on channel=9 note=40 velocity=83 time=0
EXTRACT: note_on channel=9 note=42 velocity=105 time=0
EXTRACT: note_on channel=3 note=71 velocity=107 time=0
EXTRACT: note_on channel=9 note=40 velocity=0 time=0.078125
EXTRACT: note_on channel=9 note=39 velocity=0 time=0.010416666666666666
EXTRACT: note_on channel=9 note=42 velocity=0 time=0.005208333333333333
EXTRACT: note_on channel=7 note=71 velocity=82 time=0.0625
EXTRACT: note_on channel=3 note=71 velocity=0 time=0.020833333333333332
EXTRACT: note_on channel=7 note=74 velocity=0 time=0.020833333333333332
EXTRACT: note_on channel=7 note=71 velocity=0 time=0.041666666666666664
EXTRACT: note_on channel=9 note=76 velocity=70 time=0.07291666666666666
EXTRACT: note_on channel=3 note=71 velocity=110 time=0
EXTRACT: note_on channel=7 note=74 velocity=87 time=0
EXTRACT: note_on channel=9 note=76 velocity=0 time=0.03645833333333333
EXTRACT: note_on channel=7 note=74 velocity=0 time=0.0625
EXTRACT: note_on channel=3 note=71 velocity=0 time=0.010416666666666666
EXTRACT: note_on channel=9 note=36 velocity=94 time=0.046875
EXTRACT: note_on channel=9 note=42 velocity=91 time=0
EXTRACT: note_on channel=3 note=69 velocity=100 time=0
EXTRACT: note_on channel=9 note=42 velocity=0 time=0.07291666666666666
EXTRACT: note_on channel=3 note=69 velocity=0 time=0.010416666666666666
EXTRACT: note_on channel=9 note=36 velocity=0 time=0.010416666666666666
EXTRACT: note_on channel=9 note=42 velocity=84 time=0.0625
EXTRACT: note_on channel=3 note=71 velocity=105 time=0
EXTRACT: note_on channel=7 note=76 velocity=86 time=0
EXTRACT: note_on channel=9 note=42 velocity=0 time=0.09375
EXTRACT: note_on channel=7 note=76 velocity=0 time=0.005208333333333333
EXTRACT: note_on channel=9 note=42 velocity=83 time=0.057291666666666664
EXTRACT: note_on channel=3 note=71 velocity=0 time=0.07291666666666666
EXTRACT: note_on channel=9 note=42 velocity=0 time=0.015625
EXTRACT: note_on channel=9 note=36 velocity=102 time=0.06770833333333333
EXTRACT: note_on channel=9 note=76 velocity=61 time=0
EXTRACT: note_on channel=3 note=69 velocity=102 time=0
EXTRACT: note_on channel=7 note=74 velocity=83 time=0
EXTRACT: note_on channel=9 note=76 velocity=0 time=0.041666666666666664
EXTRACT: note_on channel=9 note=36 velocity=0 time=0.05208333333333333
EXTRACT: note_on channel=3 note=69 velocity=0 time=0.005208333333333333
EXTRACT: note_on channel=3 note=71 velocity=103 time=0.057291666666666664
EXTRACT: note_on channel=3 note=71 velocity=0 time=0.09375
EXTRACT: note_on channel=9 note=39 velocity=83 time=0.0625
EXTRACT: note_on channel=9 note=40 velocity=81 time=0
EXTRACT: note_on channel=9 note=42 velocity=88 time=0
EXTRACT: note_on channel=3 note=73 velocity=103 time=0
EXTRACT: note_on channel=9 note=40 velocity=0 time=0.06770833333333333
EXTRACT: note_on channel=9 note=39 velocity=0 time=0.026041666666666664
EXTRACT: note_on channel=9 note=42 velocity=0 time=0
EXTRACT: note_on channel=3 note=73 velocity=0 time=0.05208333333333333
EXTRACT: note_on channel=3 note=69 velocity=79 time=0.010416666666666666
EXTRACT: note_on channel=7 note=71 velocity=77 time=0
EXTRACT: note_on channel=7 note=74 velocity=0 time=0.020833333333333332
EXTRACT: note_on channel=3 note=69 velocity=0 time=0.078125
EXTRACT: note_on channel=7 note=71 velocity=0 time=0
EXTRACT: note_on channel=9 note=36 velocity=91 time=0.057291666666666664
EXTRACT: note_on channel=9 note=46 velocity=76 time=0
EXTRACT: note_on channel=3 note=69 velocity=102 time=0
EXTRACT: note_on channel=7 note=74 velocity=87 time=0
EXTRACT: note_on channel=9 note=36 velocity=0 time=0.06770833333333333
EXTRACT: note_on channel=7 note=74 velocity=0 time=0
EXTRACT: note_on channel=9 note=46 velocity=0 time=0.005208333333333333
EXTRACT: note_on channel=3 note=69 velocity=0 time=0.10416666666666666
EXTRACT: note_on channel=9 note=36 velocity=93 time=0.13541666666666666
EXTRACT: note_on channel=9 note=42 velocity=104 time=0
EXTRACT: note_on channel=7 note=76 velocity=92 time=0
EXTRACT: note_on channel=9 note=42 velocity=0 time=0.08333333333333333
EXTRACT: note_on channel=7 note=76 velocity=0 time=0.03125
EXTRACT: note_on channel=9 note=36 velocity=0 time=0.14583333333333331
EXTRACT: note_on channel=9 note=76 velocity=67 time=0.05208333333333333
EXTRACT: note_on channel=3 note=69 velocity=105 time=0
EXTRACT: note_on channel=7 note=74 velocity=86 time=0
EXTRACT: note_on channel=9 note=76 velocity=0 time=0.03125
EXTRACT: note_on channel=3 note=69 velocity=0 time=0.08333333333333333
EXTRACT: note_on channel=3 note=71 velocity=98 time=0.041666666666666664
EXTRACT: note_on channel=3 note=71 velocity=0 time=0.11458333333333333
EXTRACT: note_on channel=9 note=39 velocity=79 time=0.041666666666666664
EXTRACT: note_on channel=9 note=40 velocity=83 time=0
EXTRACT: note_on channel=9 note=42 velocity=105 time=0
EXTRACT: note_on channel=3 note=73 velocity=100 time=0
EXTRACT: note_on channel=9 note=40 velocity=0 time=0.078125
EXTRACT: note_on channel=9 note=39 velocity=0 time=0.010416666666666666
EXTRACT: note_on channel=9 note=42 velocity=0 time=0.005208333333333333
EXTRACT: note_on channel=7 note=71 velocity=82 time=0.0625
EXTRACT: note_on channel=7 note=74 velocity=0 time=0.041666666666666664
EXTRACT: note_on channel=3 note=73 velocity=0 time=0.03645833333333333
EXTRACT: note_on channel=7 note=71 velocity=0 time=0.005208333333333333
EXTRACT: note_on channel=9 note=76 velocity=70 time=0.07291666666666666
EXTRACT: note_on channel=3 note=73 velocity=94 time=0
EXTRACT: note_on channel=7 note=74 velocity=87 time=0
EXTRACT: note_on channel=9 note=76 velocity=0 time=0.03645833333333333
EXTRACT: note_on channel=7 note=74 velocity=0 time=0.0625
EXTRACT: note_on channel=3 note=73 velocity=0 time=0.05208333333333333
EXTRACT: note_on channel=9 note=36 velocity=94 time=0.005208333333333333
EXTRACT: note_on channel=9 note=42 velocity=91 time=0
EXTRACT: note_on channel=3 note=74 velocity=91 time=0
EXTRACT: note_on channel=9 note=42 velocity=0 time=0.07291666666666666
EXTRACT: note_on channel=9 note=36 velocity=0 time=0.020833333333333332
EXTRACT: note_on channel=3 note=74 velocity=0 time=0.057291666666666664
EXTRACT: note_on channel=9 note=42 velocity=84 time=0.005208333333333333
EXTRACT: note_on channel=3 note=73 velocity=95 time=0
EXTRACT: note_on channel=7 note=76 velocity=86 time=0
EXTRACT: note_on channel=9 note=42 velocity=0 time=0.09375
EXTRACT: note_on channel=7 note=76 velocity=0 time=0.005208333333333333
EXTRACT: note_on channel=3 note=73 velocity=0 time=0.05208333333333333
EXTRACT: note_on channel=9 note=42 velocity=83 time=0.005208333333333333
EXTRACT: note_on channel=3 note=71 velocity=101 time=0
EXTRACT: note_on channel=3 note=71 velocity=0 time=0.08333333333333333
EXTRACT: note_on channel=9 note=42 velocity=0 time=0.005208333333333333
EXTRACT: note_on channel=9 note=36 velocity=102 time=0.06770833333333333
EXTRACT: note_on channel=9 note=76 velocity=61 time=0
EXTRACT: note_on channel=3 note=71 velocity=95 time=0
EXTRACT: note_on channel=7 note=74 velocity=83 time=0
EXTRACT: note_on channel=9 note=76 velocity=0 time=0.041666666666666664
EXTRACT: note_on channel=3 note=71 velocity=0 time=0.03645833333333333
EXTRACT: note_on channel=9 note=36 velocity=0 time=0.015625
EXTRACT: note_on channel=3 note=71 velocity=102 time=0.0625
EXTRACT: note_on channel=3 note=71 velocity=0 time=0.15104166666666666
EXTRACT: note_on channel=9 note=39 velocity=83 time=0.005208333333333333
EXTRACT: note_on channel=9 note=40 velocity=81 time=0
EXTRACT: note_on channel=9 note=42 velocity=88 time=0
EXTRACT: note_on channel=3 note=66 velocity=111 time=0
EXTRACT: note_on channel=9 note=40 velocity=0 time=0.06770833333333333
EXTRACT: note_on channel=9 note=39 velocity=0 time=0.026041666666666664
EXTRACT: note_on channel=9 note=42 velocity=0 time=0
EXTRACT: note_on channel=7 note=71 velocity=77 time=0.0625
EXTRACT: note_on channel=7 note=74 velocity=0 time=0.020833333333333332
EXTRACT: note_on channel=7 note=71 velocity=0 time=0.078125
EXTRACT: note_on channel=3 note=66 velocity=0 time=0.046875
EXTRACT: note_on channel=9 note=36 velocity=91 time=0.010416666666666666
EXTRACT: note_on channel=9 note=46 velocity=76 time=0
EXTRACT: note_on channel=7 note=78 velocity=87 time=0
EXTRACT: note_on channel=9 note=36 velocity=0 time=0.06770833333333333
EXTRACT: note_on channel=9 note=46 velocity=0 time=0.005208333333333333
EXTRACT: note_on channel=7 note=78 velocity=0 time=0.15104166666666666
EXTRACT: note_on channel=9 note=36 velocity=77 time=0.08854166666666666
EXTRACT: note_on channel=9 note=42 velocity=88 time=0
EXTRACT: note_on channel=9 note=49 velocity=76 time=0
EXTRACT: note_on channel=9 note=54 velocity=54 time=0
EXTRACT: note_on channel=9 note=70 velocity=87 time=0
EXTRACT: note_on channel=1 note=35 velocity=84 time=0
EXTRACT: note_on channel=3 note=66 velocity=87 time=0
EXTRACT: note_on channel=5 note=57 velocity=63 time=0
EXTRACT: note_on channel=5 note=59 velocity=67 time=0
EXTRACT: note_on channel=5 note=62 velocity=66 time=0
EXTRACT: note_on channel=9 note=49 velocity=0 time=0.08333333333333333
EXTRACT: note_on channel=9 note=70 velocity=0 time=0
EXTRACT: note_on channel=9 note=54 velocity=0 time=0.010416666666666666
EXTRACT: note_on channel=9 note=42 velocity=0 time=0.010416666666666666
EXTRACT: note_on channel=9 note=54 velocity=38 time=0.05208333333333333
EXTRACT: note_on channel=9 note=70 velocity=63 time=0
EXTRACT: note_on channel=5 note=59 velocity=0 time=0.046875
EXTRACT: note_on channel=5 note=62 velocity=0 time=0
EXTRACT: note_on channel=3 note=66 velocity=0 time=0.020833333333333332
EXTRACT: note_on channel=9 note=54 velocity=0 time=0.010416666666666666
EXTRACT: note_on channel=5 note=57 velocity=0 time=0.020833333333333332
EXTRACT: note_on channel=9 note=70 velocity=0 time=0.005208333333333333
EXTRACT: note_on channel=9 note=42 velocity=46 time=0.05208333333333333
EXTRACT: note_on channel=9 note=54 velocity=44 time=0
EXTRACT: note_on channel=9 note=69 velocity=68 time=0
EXTRACT: note_on channel=9 note=70 velocity=46 time=0
EXTRACT: note_on channel=3 note=66 velocity=96 time=0
EXTRACT: note_on channel=4 note=66 velocity=81 time=0
EXTRACT: note_on channel=7 note=74 velocity=95 time=0
EXTRACT: note_on channel=1 note=35 velocity=0 time=0.015625
EXTRACT: note_on channel=9 note=70 velocity=0 time=0.03125
EXTRACT: note_on channel=9 note=69 velocity=0 time=0.010416666666666666
EXTRACT: note_on channel=9 note=54 velocity=0 time=0.010416666666666666
EXTRACT: note_on channel=9 note=42 velocity=0 time=0.015625
EXTRACT: note_on channel=7 note=74 velocity=0 time=0
EXTRACT: note_on channel=3 note=66 velocity=0 time=0.03645833333333333
EXTRACT: note_on channel=4 note=66 velocity=0 time=0
EXTRACT: note_on channel=9 note=36 velocity=0 time=0.005208333333333333
EXTRACT: note_on channel=9 note=54 velocity=36 time=0.03125
EXTRACT: note_on channel=9 note=70 velocity=61 time=0
EXTRACT: note_on channel=3 note=66 velocity=88 time=0
EXTRACT: note_on channel=4 note=66 velocity=73 time=0
EXTRACT: note_on channel=9 note=54 velocity=0 time=0.05208333333333333
EXTRACT: note_on channel=3 note=66 velocity=0 time=0.03645833333333333
EXTRACT: note_on channel=4 note=66 velocity=0 time=0
EXTRACT: note_on channel=9 note=70 velocity=0 time=0.005208333333333333
EXTRACT: note_on channel=9 note=36 velocity=81 time=0.0625
EXTRACT: note_on channel=9 note=39 velocity=84 time=0
EXTRACT: note_on channel=9 note=40 velocity=82 time=0
EXTRACT: note_on channel=9 note=42 velocity=91 time=0
EXTRACT: note_on channel=9 note=54 velocity=61 time=0
EXTRACT: note_on channel=9 note=70 velocity=91 time=0
EXTRACT: note_on channel=3 note=66 velocity=95 time=0
EXTRACT: note_on channel=4 note=66 velocity=80 time=0
EXTRACT: note_on channel=9 note=40 velocity=0 time=0.06770833333333333
EXTRACT: note_on channel=9 note=70 velocity=0 time=0.020833333333333332
EXTRACT: note_on channel=9 note=39 velocity=0 time=0.010416666666666666
EXTRACT: note_on channel=9 note=54 velocity=0 time=0
EXTRACT: note_on channel=9 note=42 velocity=0 time=0.03645833333333333
EXTRACT: note_on channel=9 note=54 velocity=52 time=0.020833333333333332
EXTRACT: note_on channel=9 note=70 velocity=63 time=0
EXTRACT: note_on channel=7 note=71 velocity=93 time=0
EXTRACT: note_on channel=3 note=66 velocity=0 time=0.08333333333333333
EXTRACT: note_on channel=4 note=66 velocity=0 time=0
EXTRACT: note_on channel=9 note=70 velocity=0 time=0.005208333333333333
EXTRACT: note_on channel=9 note=54 velocity=0 time=0.005208333333333333
EXTRACT: note_on channel=9 note=42 velocity=46 time=0.0625
EXTRACT: note_on channel=9 note=54 velocity=46 time=0
EXTRACT: note_on channel=9 note=70 velocity=80 time=0
EXTRACT: note_on channel=3 note=66 velocity=93 time=0
EXTRACT: note_on channel=4 note=66 velocity=78 time=0
EXTRACT: note_on channel=9 note=54 velocity=0 time=0.06770833333333333
EXTRACT: note_on channel=9 note=70 velocity=0 time=0.010416666666666666
EXTRACT: note_on channel=7 note=71 velocity=0 time=0.020833333333333332
EXTRACT: note_on channel=3 note=66 velocity=0 time=0
EXTRACT: note_on channel=4 note=66 velocity=0 time=0
EXTRACT: note_on channel=9 note=42 velocity=0 time=0.015625
EXTRACT: note_on channel=9 note=36 velocity=0 time=0.010416666666666666
EXTRACT: note_on channel=9 note=54 velocity=57 time=0.03125
EXTRACT: note_on channel=9 note=70 velocity=62 time=0
EXTRACT: note_on channel=3 note=66 velocity=94 time=0
EXTRACT: note_on channel=4 note=66 velocity=79 time=0
EXTRACT: note_on channel=9 note=54 velocity=0 time=0.046875
EXTRACT: note_on channel=9 note=70 velocity=0 time=0.046875
EXTRACT: note_on channel=9 note=36 velocity=78 time=0.0625
EXTRACT: note_on channel=9 note=42 velocity=80 time=0
EXTRACT: note_on channel=9 note=54 velocity=54 time=0
EXTRACT: note_on channel=9 note=70 velocity=88 time=0
EXTRACT: note_on channel=7 note=69 velocity=95 time=0
EXTRACT: note_on channel=3 note=66 velocity=0 time=0.09375
EXTRACT: note_on channel=4 note=66 velocity=0 time=0
EXTRACT: note_on channel=9 note=54 velocity=0 time=0
EXTRACT: note_on channel=9 note=70 velocity=0 time=0.005208333333333333
EXTRACT: note_on channel=7 note=69 velocity=0 time=0.010416666666666666
EXTRACT: note_on channel=9 note=42 velocity=0 time=0.020833333333333332
EXTRACT: note_on channel=9 note=54 velocity=38 time=0.026041666666666664
EXTRACT: note_on channel=9 note=70 velocity=66 time=0
EXTRACT: note_on channel=3 note=69 velocity=88 time=0
EXTRACT: note_on channel=4 note=69 velocity=73 time=0
EXTRACT: note_on channel=7 note=71 velocity=82 time=0
EXTRACT: note_on channel=9 note=70 velocity=0 time=0.07291666666666666
EXTRACT: note_on channel=9 note=54 velocity=0 time=0.005208333333333333
EXTRACT: note_on channel=3 note=69 velocity=0 time=0.005208333333333333
EXTRACT: note_on channel=4 note=69 velocity=0 time=0
EXTRACT: note_on channel=7 note=71 velocity=0 time=0
EXTRACT: note_on channel=9 note=42 velocity=50 time=0.07291666666666666
EXTRACT: note_on channel=9 note=54 velocity=44 time=0
EXTRACT: note_on channel=9 note=69 velocity=61 time=0
EXTRACT: note_on channel=9 note=70 velocity=61 time=0
EXTRACT: note_on channel=3 note=69 velocity=102 time=0
EXTRACT: note_on channel=4 note=69 velocity=87 time=0
EXTRACT: note_on channel=7 note=71 velocity=87 time=0
EXTRACT: note_on channel=9 note=54 velocity=0 time=0.06770833333333333
EXTRACT: note_on channel=9 note=70 velocity=0 time=0
EXTRACT: note_on channel=9 note=69 velocity=0 time=0.005208333333333333
EXTRACT: note_on channel=9 note=42 velocity=0 time=0.026041666666666664
EXTRACT: note_on channel=7 note=71 velocity=0 time=0
EXTRACT: note_on channel=9 note=36 velocity=0 time=0.020833333333333332
EXTRACT: note_on channel=9 note=54 velocity=36 time=0.03645833333333333
EXTRACT: note_on channel=9 note=69 velocity=48 time=0
EXTRACT: note_on channel=9 note=70 velocity=58 time=0
EXTRACT: note_on channel=7 note=69 velocity=86 time=0
EXTRACT: note_on channel=3 note=69 velocity=0 time=0.046875
EXTRACT: note_on channel=4 note=69 velocity=0 time=0
EXTRACT: note_on channel=9 note=54 velocity=0 time=0.005208333333333333
EXTRACT: note_on channel=9 note=69 velocity=0 time=0.015625
EXTRACT: note_on channel=7 note=69 velocity=0 time=0.015625
EXTRACT: note_on channel=9 note=70 velocity=0 time=0.015625
EXTRACT: note_on channel=9 note=36 velocity=82 time=0.057291666666666664
EXTRACT: note_on channel=9 note=39 velocity=82 time=0
EXTRACT: note_on channel=9 note=40 velocity=80 time=0
EXTRACT: note_on channel=9 note=42 velocity=84 time=0
EXTRACT: note_on channel=9 note=54 velocity=61 time=0
EXTRACT: note_on channel=9 note=69 velocity=52 time=0
EXTRACT: note_on channel=9 note=70 velocity=89 time=0
EXTRACT: note_on channel=3 note=69 velocity=104 time=0
EXTRACT: note_on channel=4 note=69 velocity=89 time=0
EXTRACT: note_on channel=7 note=71 velocity=88 time=0
EXTRACT: note_on channel=3 note=69 velocity=0 time=0.07291666666666666
EXTRACT: note_on channel=4 note=69 velocity=0 time=0
EXTRACT: note_on channel=9 note=69 velocity=0 time=0.010416666666666666
EXTRACT: note_on channel=9 note=70 velocity=0 time=0.010416666666666666
EXTRACT: note_on channel=9 note=54 velocity=0 time=0.005208333333333333
EXTRACT: note_on channel=9 note=39 velocity=0 time=0.005208333333333333
EXTRACT: note_on channel=7 note=71 velocity=0 time=0
EXTRACT: note_on channel=9 note=40 velocity=0 time=0.005208333333333333
EXTRACT: note_on channel=9 note=42 velocity=0 time=0.041666666666666664
EXTRACT: note_on channel=9 note=54 velocity=52 time=0.005208333333333333
EXTRACT: note_on channel=9 note=70 velocity=71 time=0
EXTRACT: note_on channel=3 note=69 velocity=101 time=0
EXTRACT: note_on channel=4 note=69 velocity=86 time=0
EXTRACT: note_on channel=9 note=54 velocity=0 time=0.09375
EXTRACT: note_on channel=9 note=70 velocity=0 time=0.005208333333333333
EXTRACT: note_on channel=3 note=69 velocity=0 time=0.010416666666666666
EXTRACT: note_on channel=4 note=69 velocity=0 time=0
EXTRACT: note_on channel=9 note=42 velocity=52 time=0.046875
EXTRACT: note_on channel=9 note=54 velocity=46 time=0
EXTRACT: note_on channel=9 note=70 velocity=71 time=0
EXTRACT: note_on channel=1 note=33 velocity=80 time=0
EXTRACT: note_on channel=3 note=71 velocity=98 time=0
EXTRACT: note_on channel=4 note=71 velocity=83 time=0
EXTRACT: note_on channel=5 note=52 velocity=59 time=0
EXTRACT: note_on channel=5 note=57 velocity=58 time=0
EXTRACT: note_on channel=5 note=59 velocity=67 time=0
EXTRACT: note_on channel=5 note=62 velocity=63 time=0
EXTRACT: note_on channel=7 note=78 velocity=94 time=0
EXTRACT: note_on channel=9 note=54 velocity=0 time=0.06770833333333333
EXTRACT: note_on channel=9 note=70 velocity=0 time=0.015625
EXTRACT: note_on channel=9 note=42 velocity=0 time=0.015625
EXTRACT: note_on channel=9 note=36 velocity=0 time=0.03645833333333333
EXTRACT: note_on channel=1 note=33 velocity=0 time=0.015625
EXTRACT: note_on channel=7 note=78 velocity=0 time=0.005208333333333333
EXTRACT: note_on channel=9 note=42 velocity=40 time=0
EXTRACT: note_on channel=9 note=54 velocity=57 time=0
EXTRACT: note_on channel=9 note=70 velocity=61 time=0
EXTRACT: note_on channel=1 note=34 velocity=71 time=0
EXTRACT: note_on channel=9 note=54 velocity=0 time=0.046875
EXTRACT: note_on channel=3 note=71 velocity=0 time=0.020833333333333332
EXTRACT: note_on channel=4 note=71 velocity=0 time=0
EXTRACT: note_on channel=5 note=62 velocity=0 time=0.015625
EXTRACT: note_on channel=5 note=59 velocity=0 time=0.005208333333333333
EXTRACT: note_on channel=9 note=42 velocity=0 time=0.010416666666666666
EXTRACT: note_on channel=9 note=70 velocity=0 time=0
EXTRACT: note_on channel=5 note=57 velocity=0 time=0.020833333333333332
EXTRACT: note_on channel=5 note=52 velocity=0 time=0.005208333333333333
EXTRACT: note_on channel=1 note=34 velocity=0 time=0.026041666666666664
EXTRACT: note_on channel=9 note=36 velocity=83 time=0.005208333333333333
EXTRACT: note_on channel=9 note=42 velocity=77 time=0
EXTRACT: note_on channel=9 note=54 velocity=54 time=0
EXTRACT: note_on channel=9 note=70 velocity=90 time=0
EXTRACT: note_on channel=1 note=35 velocity=81 time=0
EXTRACT: note_on channel=3 note=66 velocity=97 time=0
EXTRACT: note_on channel=4 note=66 velocity=82 time=0
EXTRACT: note_on channel=9 note=54 velocity=0 time=0.09375
EXTRACT: note_on channel=9 note=70 velocity=0 time=0.005208333333333333
EXTRACT: note_on channel=9 note=54 velocity=38 time=0.057291666666666664
EXTRACT: note_on channel=9 note=70 velocity=70 time=0
EXTRACT: note_on channel=9 note=42 velocity=0 time=0.015625
EXTRACT: note_on channel=3 note=66 velocity=0 time=0.026041666666666664
EXTRACT: note_on channel=4 note=66 velocity=0 time=0
EXTRACT: note_on channel=9 note=70 velocity=0 time=0.005208333333333333
EXTRACT: note_on channel=1 note=35 velocity=0 time=0.03125
EXTRACT: note_on channel=9 note=54 velocity=0 time=0
EXTRACT: note_on channel=9 note=42 velocity=54 time=0.078125
EXTRACT: note_on channel=9 note=54 velocity=44 time=0
EXTRACT: note_on channel=9 note=69 velocity=71 time=0
EXTRACT: note_on channel=9 note=70 velocity=71 time=0
EXTRACT: note_on channel=3 note=66 velocity=102 time=0
EXTRACT: note_on channel=4 note=66 velocity=87 time=0
EXTRACT: note_on channel=7 note=74 velocity=95 time=0
EXTRACT: note_on channel=9 note=54 velocity=0 time=0.06770833333333333
EXTRACT: note_on channel=9 note=69 velocity=0 time=0
EXTRACT: note_on channel=9 note=70 velocity=0 time=0.015625
EXTRACT: note_on channel=7 note=74 velocity=0 time=0
EXTRACT: note_on channel=9 note=36 velocity=0 time=0.020833333333333332
EXTRACT: note_on channel=9 note=42 velocity=0 time=0.005208333333333333
EXTRACT: note_on channel=9 note=54 velocity=36 time=0.046875
EXTRACT: note_on channel=9 note=70 velocity=56 time=0
EXTRACT: note_on channel=3 note=66 velocity=0 time=0.020833333333333332
EXTRACT: note_on channel=4 note=66 velocity=0 time=0
EXTRACT: note_on channel=9 note=54 velocity=0 time=0.03125
EXTRACT: note_on channel=9 note=70 velocity=0 time=0.046875
EXTRACT: note_on channel=9 note=36 velocity=84 time=0.057291666666666664
EXTRACT: note_on channel=9 note=39 velocity=84 time=0
EXTRACT: note_on channel=9 note=40 velocity=82 time=0
EXTRACT: note_on channel=9 note=42 velocity=79 time=0
EXTRACT: note_on channel=9 note=54 velocity=61 time=0
EXTRACT: note_on channel=9 note=70 velocity=87 time=0
EXTRACT: note_on channel=3 note=66 velocity=98 time=0
EXTRACT: note_on channel=4 note=66 velocity=83 time=0
EXTRACT: note_on channel=9 note=40 velocity=0 time=0.06770833333333333
EXTRACT: note_on channel=9 note=70 velocity=0 time=0.026041666666666664
EXTRACT: note_on channel=9 note=39 velocity=0 time=0.005208333333333333
EXTRACT: note_on channel=9 note=54 velocity=0 time=0
EXTRACT: note_on channel=9 note=54 velocity=52 time=0.057291666666666664
EXTRACT: note_on channel=9 note=70 velocity=74 time=0
EXTRACT: note_on channel=7 note=71 velocity=93 time=0
EXTRACT: note_on channel=9 note=42 velocity=0 time=0.020833333333333332
EXTRACT: note_on channel=3 note=66 velocity=0 time=0.06770833333333333
EXTRACT: note_on channel=4 note=66 velocity=0 time=0
EXTRACT: note_on channel=9 note=54 velocity=0 time=0.005208333333333333
EXTRACT: note_on channel=9 note=70 velocity=0 time=0.005208333333333333
EXTRACT: note_on channel=9 note=42 velocity=54 time=0.057291666666666664
EXTRACT: note_on channel=9 note=54 velocity=46 time=0
EXTRACT: note_on channel=9 note=69 velocity=64 time=0
EXTRACT: note_on channel=9 note=70 velocity=72 time=0
EXTRACT: note_on channel=3 note=66 velocity=87 time=0
EXTRACT: note_on channel=4 note=66 velocity=72 time=0
EXTRACT: note_on channel=9 note=69 velocity=0 time=0.0625
EXTRACT: note_on channel=9 note=54 velocity=0 time=0.005208333333333333
EXTRACT: note_on channel=9 note=70 velocity=0 time=0.015625
EXTRACT: note_on channel=3 note=66 velocity=0 time=0.010416666666666666
EXTRACT: note_on channel=4 note=66 velocity=0 time=0
EXTRACT: note_on channel=7 note=71 velocity=0 time=0.005208333333333333
EXTRACT: note_on channel=9 note=36 velocity=0 time=0.010416666666666666
EXTRACT: note_on channel=9 note=42 velocity=0 time=0.005208333333333333
EXTRACT: note_on channel=9 note=54 velocity=57 time=0.041666666666666664
EXTRACT: note_on channel=9 note=70 velocity=66 time=0
EXTRACT: note_on channel=3 note=66 velocity=90 time=0
EXTRACT: note_on channel=4 note=66 velocity=75 time=0
EXTRACT: note_on channel=9 note=54 velocity=0 time=0.046875
EXTRACT: note_on channel=9 note=70 velocity=0 time=0.05208333333333333
EXTRACT: note_on channel=9 note=36 velocity=81 time=0.057291666666666664
EXTRACT: note_on channel=9 note=42 velocity=87 time=0
EXTRACT: note_on channel=9 note=54 velocity=54 time=0
EXTRACT: note_on channel=9 note=70 velocity=93 time=0
EXTRACT: note_on channel=7 note=69 velocity=95 time=0
EXTRACT: note_on channel=3 note=66 velocity=0 time=0.08854166666666666
EXTRACT: note_on channel=4 note=66 velocity=0 time=0
EXTRACT: note_on channel=9 note=54 velocity=0 time=0.005208333333333333
EXTRACT: note_on channel=9 note=70 velocity=0 time=0.015625
EXTRACT: note_on channel=7 note=69 velocity=0 time=0
EXTRACT: note_on channel=9 note=42 velocity=0 time=0.041666666666666664
EXTRACT: note_on channel=9 note=54 velocity=38 time=0.005208333333333333
EXTRACT: note_on channel=9 note=70 velocity=59 time=0
EXTRACT: note_on channel=3 note=66 velocity=94 time=0
EXTRACT: note_on channel=4 note=66 velocity=79 time=0
EXTRACT: note_on channel=7 note=71 velocity=82 time=0
EXTRACT: note_on channel=9 note=54 velocity=0 time=0.078125
EXTRACT: note_on channel=7 note=71 velocity=0 time=0.005208333333333333
EXTRACT: note_on channel=9 note=70 velocity=0 time=0.010416666666666666
EXTRACT: note_on channel=3 note=66 velocity=0 time=0.010416666666666666
EXTRACT: note_on channel=4 note=66 velocity=0 time=0
EXTRACT: note_on channel=9 note=42 velocity=46 time=0.05208333333333333
EXTRACT: note_on channel=9 note=54 velocity=44 time=0
EXTRACT: note_on channel=9 note=69 velocity=60 time=0
EXTRACT: note_on channel=9 note=70 velocity=78 time=0
EXTRACT: note_on channel=3 note=69 velocity=105 time=0
EXTRACT: note_on channel=4 note=69 velocity=90 time=0
EXTRACT: note_on channel=7 note=71 velocity=87 time=0
EXTRACT: note_on channel=9 note=54 velocity=0 time=0.06770833333333333
EXTRACT: note_on channel=9 note=69 velocity=0 time=0.020833333333333332
EXTRACT: note_on channel=9 note=70 velocity=0 time=0.005208333333333333
EXTRACT: note_on channel=7 note=71 velocity=0 time=0.005208333333333333
EXTRACT: note_on channel=9 note=36 velocity=0 time=0.005208333333333333
EXTRACT: note_on channel=9 note=42 velocity=0 time=0.020833333333333332
EXTRACT: note_on channel=9 note=54 velocity=36 time=0.03125
EXTRACT: note_on channel=9 note=69 velocity=55 time=0
EXTRACT: note_on channel=9 note=70 velocity=74 time=0
EXTRACT: note_on channel=7 note=69 velocity=86 time=0
EXTRACT: note_on channel=9 note=54 velocity=0 time=0.05208333333333333
EXTRACT: note_on channel=3 note=69 velocity=0 time=0.005208333333333333
EXTRACT: note_on channel=4 note=69 velocity=0 time=0
EXTRACT: note_on channel=9 note=69 velocity=0 time=0.026041666666666664
EXTRACT: note_on channel=7 note=69 velocity=0 time=0
EXTRACT: note_on channel=9 note=70 velocity=0 time=0.005208333333333333
EXTRACT: note_on channel=9 note=36 velocity=82 time=0.06770833333333333
EXTRACT: note_on channel=9 note=39 velocity=82 time=0
EXTRACT: note_on channel=9 note=40 velocity=80 time=0
EXTRACT: note_on channel=9 note=42 velocity=78 time=0
EXTRACT: note_on channel=9 note=54 velocity=61 time=0
EXTRACT: note_on channel=9 note=69 velocity=50 time=0
EXTRACT: note_on channel=9 note=70 velocity=87 time=0
EXTRACT: note_on channel=3 note=69 velocity=102 time=0
EXTRACT: note_on channel=4 note=69 velocity=87 time=0
EXTRACT: note_on channel=7 note=71 velocity=88 time=0
EXTRACT: note_on channel=3 note=69 velocity=0 time=0.07291666666666666
EXTRACT: note_on channel=4 note=69 velocity=0 time=0
EXTRACT: note_on channel=9 note=69 velocity=0 time=0.015625
EXTRACT: note_on channel=9 note=54 velocity=0 time=0.010416666666666666
EXTRACT: note_on channel=9 note=70 velocity=0 time=0
EXTRACT: note_on channel=9 note=39 velocity=0 time=0.005208333333333333
EXTRACT: note_on channel=7 note=71 velocity=0 time=0
EXTRACT: note_on channel=9 note=40 velocity=0 time=0.005208333333333333
EXTRACT: note_on channel=9 note=42 velocity=0 time=0.041666666666666664
EXTRACT: note_on channel=9 note=54 velocity=52 time=0.005208333333333333
EXTRACT: note_on channel=9 note=70 velocity=74 time=0
EXTRACT: note_on channel=3 note=69 velocity=100 time=0
EXTRACT: note_on channel=4 note=69 velocity=85 time=0
EXTRACT: note_on channel=3 note=69 velocity=0 time=0.07291666666666666
EXTRACT: note_on channel=4 note=69 velocity=0 time=0
EXTRACT: note_on channel=9 note=54 velocity=0 time=0.020833333333333332
EXTRACT: note_on channel=9 note=70 velocity=0 time=0
EXTRACT: note_on channel=9 note=46 velocity=49 time=0.0625
EXTRACT: note_on channel=9 note=54 velocity=46 time=0
EXTRACT: note_on channel=9 note=70 velocity=58 time=0
EXTRACT: note_on channel=1 note=33 velocity=74 time=0
EXTRACT: note_on channel=3 note=69 velocity=104 time=0
EXTRACT: note_on channel=4 note=69 velocity=89 time=0
EXTRACT: note_on channel=7 note=78 velocity=94 time=0
EXTRACT: note_on channel=9 note=54 velocity=0 time=0.06770833333333333
EXTRACT: note_on channel=9 note=46 velocity=0 time=0.026041666666666664
EXTRACT: note_on channel=9 note=70 velocity=0 time=0.005208333333333333
EXTRACT: note_on channel=1 note=33 velocity=0 time=0.05208333333333333
EXTRACT: note_on channel=7 note=78 velocity=0 time=0.005208333333333333
EXTRACT: note_on channel=9 note=54 velocity=57 time=0
EXTRACT: note_on channel=9 note=70 velocity=61 time=0
EXTRACT: note_on channel=1 note=34 velocity=68 time=0
EXTRACT: note_on channel=9 note=36 velocity=0 time=0.020833333333333332
EXTRACT: note_on channel=9 note=54 velocity=0 time=0.026041666666666664
EXTRACT: note_on channel=9 note=70 velocity=0 time=0.041666666666666664
EXTRACT: note_on channel=3 note=69 velocity=0 time=0.0625
EXTRACT: note_on channel=4 note=69 velocity=0 time=0
EXTRACT: note_on channel=1 note=34 velocity=0 time=0
EXTRACT: note_on channel=9 note=36 velocity=77 time=0.005208333333333333
EXTRACT: note_on channel=9 note=42 velocity=88 time=0
EXTRACT: note_on channel=9 note=54 velocity=54 time=0
EXTRACT: note_on channel=9 note=70 velocity=87 time=0
EXTRACT: note_on channel=1 note=35 velocity=76 time=0
EXTRACT: note_on channel=3 note=66 velocity=98 time=0
EXTRACT: note_on channel=4 note=66 velocity=83 time=0
EXTRACT: note_on channel=5 note=57 velocity=63 time=0
EXTRACT: note_on channel=5 note=59 velocity=67 time=0
EXTRACT: note_on channel=5 note=62 velocity=66 time=0
EXTRACT: note_on channel=9 note=70 velocity=0 time=0.08333333333333333
EXTRACT: note_on channel=9 note=54 velocity=0 time=0.010416666666666666
EXTRACT: note_on channel=9 note=42 velocity=0 time=0.010416666666666666
EXTRACT: note_on channel=9 note=54 velocity=38 time=0.05208333333333333
EXTRACT: note_on channel=9 note=70 velocity=63 time=0
EXTRACT: note_on channel=5 note=59 velocity=0 time=0.046875
EXTRACT: note_on channel=5 note=62 velocity=0 time=0
EXTRACT: note_on channel=9 note=54 velocity=0 time=0.03125
EXTRACT: note_on channel=3 note=66 velocity=0 time=0.020833333333333332
EXTRACT: note_on channel=4 note=66 velocity=0 time=0
EXTRACT: note_on channel=5 note=57 velocity=0 time=0
EXTRACT: note_on channel=9 note=70 velocity=0 time=0.005208333333333333
EXTRACT: note_on channel=1 note=35 velocity=0 time=0.010416666666666666
EXTRACT: note_on channel=9 note=42 velocity=46 time=0.041666666666666664
EXTRACT: note_on channel=9 note=54 velocity=44 time=0
EXTRACT: note_on channel=9 note=69 velocity=68 time=0
EXTRACT: note_on channel=9 note=70 velocity=46 time=0
EXTRACT: note_on channel=3 note=69 velocity=100 time=0
EXTRACT: note_on channel=4 note=69 velocity=85 time=0
EXTRACT: note_on channel=7 note=74 velocity=95 time=0
EXTRACT: note_on channel=9 note=70 velocity=0 time=0.046875
EXTRACT: note_on channel=9 note=69 velocity=0 time=0.010416666666666666
EXTRACT: note_on channel=9 note=54 velocity=0 time=0.010416666666666666
EXTRACT: note_on channel=9 note=42 velocity=0 time=0.015625
EXTRACT: note_on channel=7 note=74 velocity=0 time=0
EXTRACT: note_on channel=9 note=36 velocity=0 time=0.041666666666666664
EXTRACT: note_on channel=3 note=69 velocity=0 time=0.03125
EXTRACT: note_on channel=4 note=69 velocity=0 time=0
EXTRACT: note_on channel=9 note=54 velocity=36 time=0
EXTRACT: note_on channel=9 note=70 velocity=61 time=0
EXTRACT: note_on channel=9 note=54 velocity=0 time=0.05208333333333333
EXTRACT: note_on channel=9 note=70 velocity=0 time=0.041666666666666664
EXTRACT: note_on channel=9 note=36 velocity=81 time=0.0625
EXTRACT: note_on channel=9 note=39 velocity=84 time=0
EXTRACT: note_on channel=9 note=40 velocity=82 time=0
EXTRACT: note_on channel=9 note=42 velocity=91 time=0
EXTRACT: note_on channel=9 note=54 velocity=61 time=0
EXTRACT: note_on channel=9 note=70 velocity=91 time=0
EXTRACT: note_on channel=3 note=66 velocity=96 time=0
EXTRACT: note_on channel=4 note=66 velocity=81 time=0
EXTRACT: note_on channel=9 note=40 velocity=0 time=0.06770833333333333
EXTRACT: note_on channel=9 note=70 velocity=0 time=0.020833333333333332
EXTRACT: note_on channel=9 note=39 velocity=0 time=0.010416666666666666
EXTRACT: note_on channel=9 note=54 velocity=0 time=0
EXTRACT: note_on channel=9 note=42 velocity=0 time=0.03645833333333333
EXTRACT: note_on channel=9 note=54 velocity=52 time=0.020833333333333332
EXTRACT: note_on channel=9 note=70 velocity=63 time=0
EXTRACT: note_on channel=7 note=71 velocity=93 time=0
EXTRACT: note_on channel=3 note=66 velocity=0 time=0.06770833333333333
EXTRACT: note_on channel=4 note=66 velocity=0 time=0
EXTRACT: note_on channel=9 note=70 velocity=0 time=0.020833333333333332
EXTRACT: note_on channel=9 note=54 velocity=0 time=0.005208333333333333
EXTRACT: note_on channel=9 note=42 velocity=46 time=0.0625
EXTRACT: note_on channel=9 note=54 velocity=46 time=0
EXTRACT: note_on channel=9 note=70 velocity=80 time=0
EXTRACT: note_on channel=3 note=69 velocity=103 time=0
EXTRACT: note_on channel=4 note=69 velocity=88 time=0
EXTRACT: note_on channel=9 note=54 velocity=0 time=0.06770833333333333
EXTRACT: note_on channel=9 note=70 velocity=0 time=0.010416666666666666
EXTRACT: note_on channel=3 note=69 velocity=0 time=0
EXTRACT: note_on channel=4 note=69 velocity=0 time=0
EXTRACT: note_on channel=7 note=71 velocity=0 time=0.020833333333333332
EXTRACT: note_on channel=9 note=42 velocity=0 time=0.015625
EXTRACT: note_on channel=9 note=36 velocity=0 time=0.010416666666666666
EXTRACT: note_on channel=9 note=54 velocity=57 time=0.03125
EXTRACT: note_on channel=9 note=70 velocity=62 time=0
EXTRACT: note_on channel=3 note=71 velocity=105 time=0
EXTRACT: note_on channel=4 note=71 velocity=90 time=0
EXTRACT: note_on channel=9 note=54 velocity=0 time=0.046875
EXTRACT: note_on channel=9 note=70 velocity=0 time=0.046875
EXTRACT: note_on channel=9 note=36 velocity=78 time=0.0625
EXTRACT: note_on channel=9 note=42 velocity=80 time=0
EXTRACT: note_on channel=9 note=54 velocity=54 time=0
EXTRACT: note_on channel=9 note=70 velocity=88 time=0
EXTRACT: note_on channel=7 note=69 velocity=95 time=0
EXTRACT: note_on channel=9 note=54 velocity=0 time=0.09375
EXTRACT: note_on channel=9 note=70 velocity=0 time=0.005208333333333333
EXTRACT: note_on channel=7 note=69 velocity=0 time=0.010416666666666666
EXTRACT: note_on channel=9 note=42 velocity=0 time=0.020833333333333332
EXTRACT: note_on channel=9 note=54 velocity=38 time=0.026041666666666664
EXTRACT: note_on channel=9 note=70 velocity=66 time=0
EXTRACT: note_on channel=7 note=71 velocity=82 time=0
EXTRACT: note_on channel=9 note=70 velocity=0 time=0.07291666666666666
EXTRACT: note_on channel=9 note=54 velocity=0 time=0.005208333333333333
EXTRACT: note_on channel=7 note=71 velocity=0 time=0.005208333333333333
EXTRACT: note_on channel=3 note=71 velocity=0 time=0.06770833333333333
EXTRACT: note_on channel=4 note=71 velocity=0 time=0
EXTRACT: note_on channel=9 note=42 velocity=50 time=0.005208333333333333
EXTRACT: note_on channel=9 note=54 velocity=44 time=0
EXTRACT: note_on channel=9 note=69 velocity=61 time=0
EXTRACT: note_on channel=9 note=70 velocity=61 time=0
EXTRACT: note_on channel=3 note=66 velocity=95 time=0
EXTRACT: note_on channel=4 note=66 velocity=80 time=0
EXTRACT: note_on channel=7 note=71 velocity=87 time=0
EXTRACT: note_on channel=9 note=54 velocity=0 time=0.06770833333333333
EXTRACT: note_on channel=9 note=70 velocity=0 time=0
EXTRACT: note_on channel=9 note=69 velocity=0 time=0.005208333333333333
EXTRACT: note_on channel=9 note=42 velocity=0 time=0.026041666666666664
EXTRACT: note_on channel=7 note=71 velocity=0 time=0
EXTRACT: note_on channel=9 note=36 velocity=0 time=0.020833333333333332
EXTRACT: note_on channel=9 note=54 velocity=36 time=0.03645833333333333
EXTRACT: note_on channel=9 note=69 velocity=48 time=0
EXTRACT: note_on channel=9 note=70 velocity=58 time=0
EXTRACT: note_on channel=7 note=69 velocity=86 time=0
EXTRACT: note_on channel=9 note=54 velocity=0 time=0.05208333333333333
EXTRACT: note_on channel=9 note=69 velocity=0 time=0.015625
EXTRACT: note_on channel=7 note=69 velocity=0 time=0.015625
EXTRACT: note_on channel=9 note=70 velocity=0 time=0.015625
EXTRACT: note_on channel=3 note=66 velocity=0 time=0.05208333333333333
EXTRACT: note_on channel=4 note=66 velocity=0 time=0
EXTRACT: note_on channel=9 note=36 velocity=82 time=0.005208333333333333
EXTRACT: note_on channel=9 note=39 velocity=82 time=0
EXTRACT: note_on channel=9 note=40 velocity=80 time=0
EXTRACT: note_on channel=9 note=42 velocity=84 time=0
EXTRACT: note_on channel=9 note=54 velocity=61 time=0
EXTRACT: note_on channel=9 note=69 velocity=52 time=0
EXTRACT: note_on channel=9 note=70 velocity=89 time=0
EXTRACT: note_on channel=3 note=64 velocity=101 time=0
EXTRACT: note_on channel=4 note=64 velocity=86 time=0
EXTRACT: note_on channel=7 note=71 velocity=88 time=0
EXTRACT: note_on channel=9 note=69 velocity=0 time=0.08333333333333333
EXTRACT: note_on channel=9 note=70 velocity=0 time=0.010416666666666666
EXTRACT: note_on channel=9 note=54 velocity=0 time=0.005208333333333333
EXTRACT: note_on channel=9 note=39 velocity=0 time=0.005208333333333333
EXTRACT: note_on channel=7 note=71 velocity=0 time=0
EXTRACT: note_on channel=9 note=40 velocity=0 time=0.005208333333333333
EXTRACT: note_on channel=9 note=42 velocity=0 time=0.041666666666666664
EXTRACT: note_on channel=3 note=64 velocity=0 time=0
EXTRACT: note_on channel=4 note=64 velocity=0 time=0
EXTRACT: note_on channel=9 note=54 velocity=52 time=0.005208333333333333
EXTRACT: note_on channel=9 note=70 velocity=71 time=0
EXTRACT: note_on channel=3 note=66 velocity=88 time=0
EXTRACT: note_on channel=4 note=66 velocity=73 time=0
EXTRACT: note_on channel=9 note=54 velocity=0 time=0.09375
EXTRACT: note_on channel=9 note=70 velocity=0 time=0.005208333333333333
EXTRACT: note_on channel=3 note=66 velocity=0 time=0.010416666666666666
EXTRACT: note_on channel=4 note=66 velocity=0 time=0
EXTRACT: note_on channel=9 note=42 velocity=52 time=0.046875
EXTRACT: note_on channel=9 note=54 velocity=46 time=0
EXTRACT: note_on channel=9 note=70 velocity=71 time=0
EXTRACT: note_on channel=1 note=33 velocity=78 time=0
EXTRACT: note_on channel=3 note=69 velocity=107 time=0
EXTRACT: note_on channel=4 note=69 velocity=92 time=0
EXTRACT: note_on channel=5 note=52 velocity=59 time=0
EXTRACT: note_on channel=5 note=57 velocity=58 time=0
EXTRACT: note_on channel=5 note=59 velocity=67 time=0
EXTRACT: note_on channel=5 note=62 velocity=63 time=0
EXTRACT: note_on channel=7 note=78 velocity=94 time=0
EXTRACT: note_on channel=9 note=54 velocity=0 time=0.06770833333333333
EXTRACT: note_on channel=9 note=70 velocity=0 time=0.015625
EXTRACT: note_on channel=3 note=69 velocity=0 time=0
EXTRACT: note_on channel=4 note=69 velocity=0 time=0
EXTRACT: note_on channel=9 note=42 velocity=0 time=0.015625
EXTRACT: note_on channel=9 note=36 velocity=0 time=0.03645833333333333
EXTRACT: note_on channel=1 note=33 velocity=0 time=0.015625
EXTRACT: note_on channel=7 note=78 velocity=0 time=0.005208333333333333
EXTRACT: note_on channel=9 note=42 velocity=40 time=0
EXTRACT: note_on channel=9 note=54 velocity=57 time=0
EXTRACT: note_on channel=9 note=70 velocity=61 time=0
EXTRACT: note_on channel=1 note=34 velocity=70 time=0
EXTRACT: note_on channel=9 note=54 velocity=0 time=0.046875
EXTRACT: note_on channel=5 note=62 velocity=0 time=0.03645833333333333
EXTRACT: note_on channel=5 note=59 velocity=0 time=0.005208333333333333
EXTRACT: note_on channel=9 note=42 velocity=0 time=0.010416666666666666
EXTRACT: note_on channel=9 note=70 velocity=0 time=0
EXTRACT: note_on channel=5 note=57 velocity=0 time=0.020833333333333332
EXTRACT: note_on channel=5 note=52 velocity=0 time=0.005208333333333333
EXTRACT: note_on channel=1 note=34 velocity=0 time=0.026041666666666664
EXTRACT: note_on channel=9 note=36 velocity=83 time=0.005208333333333333
EXTRACT: note_on channel=9 note=42 velocity=77 time=0
EXTRACT: note_on channel=9 note=54 velocity=54 time=0
EXTRACT: note_on channel=9 note=70 velocity=90 time=0
EXTRACT: note_on channel=1 note=35 velocity=83 time=0
EXTRACT: note_on channel=3 note=66 velocity=103 time=0
EXTRACT: note_on channel=4 note=66 velocity=88 time=0
EXTRACT: note_on channel=9 note=54 velocity=0 time=0.09375
EXTRACT: note_on channel=9 note=70 velocity=0 time=0.005208333333333333
EXTRACT: note_on channel=9 note=54 velocity=38 time=0.057291666666666664
EXTRACT: note_on channel=9 note=70 velocity=70 time=0
EXTRACT: note_on channel=9 note=42 velocity=0 time=0.015625
EXTRACT: note_on channel=9 note=70 velocity=0 time=0.03125
EXTRACT: note_on channel=9 note=54 velocity=0 time=0.03125
EXTRACT: note_on channel=3 note=66 velocity=0 time=0.020833333333333332
EXTRACT: note_on channel=4 note=66 velocity=0 time=0
EXTRACT: note_on channel=9 note=42 velocity=54 time=0.057291666666666664
EXTRACT: note_on channel=9 note=54 velocity=44 time=0
EXTRACT: note_on channel=9 note=69 velocity=71 time=0
EXTRACT: note_on channel=9 note=70 velocity=71 time=0
EXTRACT: note_on channel=3 note=69 velocity=104 time=0
EXTRACT: note_on channel=4 note=69 velocity=89 time=0
EXTRACT: note_on channel=7 note=74 velocity=95 time=0
EXTRACT: note_on channel=1 note=35 velocity=0 time=0.020833333333333332
EXTRACT: note_on channel=9 note=54 velocity=0 time=0.046875
EXTRACT: note_on channel=9 note=69 velocity=0 time=0
EXTRACT: note_on channel=9 note=70 velocity=0 time=0.015625
EXTRACT: note_on channel=7 note=74 velocity=0 time=0
EXTRACT: note_on channel=9 note=36 velocity=0 time=0.020833333333333332
EXTRACT: note_on channel=9 note=42 velocity=0 time=0.005208333333333333
EXTRACT: note_on channel=9 note=54 velocity=36 time=0.046875
EXTRACT: note_on channel=9 note=70 velocity=56 time=0
EXTRACT: note_on channel=3 note=69 velocity=0 time=0.03125
EXTRACT: note_on channel=4 note=69 velocity=0 time=0
EXTRACT: note_on channel=9 note=54 velocity=0 time=0.020833333333333332
EXTRACT: note_on channel=9 note=70 velocity=0 time=0.046875
EXTRACT: note_on channel=9 note=36 velocity=84 time=0.057291666666666664
EXTRACT: note_on channel=9 note=39 velocity=84 time=0
EXTRACT: note_on channel=9 note=40 velocity=82 time=0
EXTRACT: note_on channel=9 note=42 velocity=79 time=0
EXTRACT: note_on channel=9 note=54 velocity=61 time=0
EXTRACT: note_on channel=9 note=70 velocity=87 time=0
EXTRACT: note_on channel=3 note=66 velocity=97 time=0
EXTRACT: note_on channel=4 note=66 velocity=82 time=0
EXTRACT: note_on channel=9 note=40 velocity=0 time=0.06770833333333333
EXTRACT: note_on channel=9 note=70 velocity=0 time=0.026041666666666664
EXTRACT: note_on channel=9 note=39 velocity=0 time=0.005208333333333333
EXTRACT: note_on channel=9 note=54 velocity=0 time=0
EXTRACT: note_on channel=9 note=54 velocity=52 time=0.057291666666666664
EXTRACT: note_on channel=9 note=70 velocity=74 time=0
EXTRACT: note_on channel=7 note=71 velocity=93 time=0
EXTRACT: note_on channel=9 note=42 velocity=0 time=0.020833333333333332
EXTRACT: note_on channel=3 note=66 velocity=0 time=0.07291666666666666
EXTRACT: note_on channel=4 note=66 velocity=0 time=0
EXTRACT: note_on channel=9 note=54 velocity=0 time=0
EXTRACT: note_on channel=9 note=70 velocity=0 time=0.005208333333333333
EXTRACT: note_on channel=9 note=42 velocity=54 time=0.057291666666666664
EXTRACT: note_on channel=9 note=54 velocity=46 time=0
EXTRACT: note_on channel=9 note=69 velocity=64 time=0
EXTRACT: note_on channel=9 note=70 velocity=72 time=0
EXTRACT: note_on channel=3 note=69 velocity=100 time=0
EXTRACT: note_on channel=4 note=69 velocity=85 time=0
EXTRACT: note_on channel=9 note=69 velocity=0 time=0.0625
EXTRACT: note_on channel=9 note=54 velocity=0 time=0.005208333333333333
EXTRACT: note_on channel=3 note=69 velocity=0 time=0.010416666666666666
EXTRACT: note_on channel=4 note=69 velocity=0 time=0
EXTRACT: note_on channel=9 note=70 velocity=0 time=0.005208333333333333
EXTRACT: note_on channel=7 note=71 velocity=0 time=0.015625
EXTRACT: note_on channel=9 note=36 velocity=0 time=0.010416666666666666
EXTRACT: note_on channel=9 note=42 velocity=0 time=0.005208333333333333
EXTRACT: note_on channel=9 note=54 velocity=57 time=0.041666666666666664
EXTRACT: note_on channel=9 note=70 velocity=66 time=0
EXTRACT: note_on channel=3 note=71 velocity=104 time=0
EXTRACT: note_on channel=4 note=71 velocity=89 time=0
EXTRACT: note_on channel=9 note=54 velocity=0 time=0.046875
EXTRACT: note_on channel=9 note=70 velocity=0 time=0.05208333333333333
EXTRACT: note_on channel=9 note=36 velocity=81 time=0.057291666666666664
EXTRACT: note_on channel=9 note=42 velocity=87 time=0
EXTRACT: note_on channel=9 note=54 velocity=54 time=0
EXTRACT: note_on channel=9 note=70 velocity=93 time=0
EXTRACT: note_on channel=7 note=69 velocity=95 time=0
EXTRACT: note_on channel=9 note=54 velocity=0 time=0.09375
EXTRACT: note_on channel=9 note=70 velocity=0 time=0.015625
EXTRACT: note_on channel=7 note=69 velocity=0 time=0
EXTRACT: note_on channel=3 note=71 velocity=0 time=0.041666666666666664
EXTRACT: note_on channel=4 note=71 velocity=0 time=0
EXTRACT: note_on channel=9 note=42 velocity=0 time=0
EXTRACT: note_on channel=9 note=54 velocity=38 time=0.005208333333333333
EXTRACT: note_on channel=9 note=70 velocity=59 time=0
EXTRACT: note_on channel=3 note=69 velocity=90 time=0
EXTRACT: note_on channel=4 note=69 velocity=75 time=0
EXTRACT: note_on channel=7 note=71 velocity=82 time=0
EXTRACT: note_on channel=9 note=54 velocity=0 time=0.078125
EXTRACT: note_on channel=7 note=71 velocity=0 time=0.005208333333333333
EXTRACT: note_on channel=9 note=70 velocity=0 time=0.010416666666666666
EXTRACT: note_on channel=3 note=69 velocity=0 time=0.005208333333333333
EXTRACT: note_on channel=4 note=69 velocity=0 time=0
EXTRACT: note_on channel=9 note=42 velocity=46 time=0.057291666666666664
EXTRACT: note_on channel=9 note=54 velocity=44 time=0
EXTRACT: note_on channel=9 note=69 velocity=60 time=0
EXTRACT: note_on channel=9 note=70 velocity=78 time=0
EXTRACT: note_on channel=3 note=66 velocity=95 time=0
EXTRACT: note_on channel=4 note=66 velocity=80 time=0
EXTRACT: note_on channel=7 note=71 velocity=87 time=0
EXTRACT: note_on channel=9 note=54 velocity=0 time=0.06770833333333333
EXTRACT: note_on channel=9 note=69 velocity=0 time=0.020833333333333332
EXTRACT: note_on channel=9 note=70 velocity=0 time=0.005208333333333333
EXTRACT: note_on channel=7 note=71 velocity=0 time=0.005208333333333333
EXTRACT: note_on channel=9 note=36 velocity=0 time=0.005208333333333333
EXTRACT: note_on channel=9 note=42 velocity=0 time=0.020833333333333332
EXTRACT: note_on channel=9 note=54 velocity=36 time=0.03125
EXTRACT: note_on channel=9 note=69 velocity=55 time=0
EXTRACT: note_on channel=9 note=70 velocity=74 time=0
EXTRACT: note_on channel=7 note=69 velocity=86 time=0
EXTRACT: note_on channel=9 note=54 velocity=0 time=0.05208333333333333
EXTRACT: note_on channel=9 note=69 velocity=0 time=0.03125
EXTRACT: note_on channel=7 note=69 velocity=0 time=0
EXTRACT: note_on channel=9 note=70 velocity=0 time=0.005208333333333333
EXTRACT: note_on channel=3 note=66 velocity=0 time=0.0625
EXTRACT: note_on channel=4 note=66 velocity=0 time=0
EXTRACT: note_on channel=9 note=36 velocity=82 time=0.005208333333333333
EXTRACT: note_on channel=9 note=39 velocity=82 time=0
EXTRACT: note_on channel=9 note=40 velocity=80 time=0
EXTRACT: note_on channel=9 note=42 velocity=78 time=0
EXTRACT: note_on channel=9 note=54 velocity=61 time=0
EXTRACT: note_on channel=9 note=69 velocity=50 time=0
EXTRACT: note_on channel=9 note=70 velocity=87 time=0
EXTRACT: note_on channel=3 note=62 velocity=104 time=0
EXTRACT: note_on channel=4 note=62 velocity=89 time=0
EXTRACT: note_on channel=7 note=71 velocity=91 time=0
EXTRACT: note_on channel=9 note=69 velocity=0 time=0.08854166666666666
EXTRACT: note_on channel=3 note=62 velocity=0 time=0.005208333333333333
EXTRACT: note_on channel=4 note=62 velocity=0 time=0
EXTRACT: note_on channel=9 note=54 velocity=0 time=0.005208333333333333
EXTRACT: note_on channel=9 note=70 velocity=0 time=0
EXTRACT: note_on channel=9 note=39 velocity=0 time=0.005208333333333333
EXTRACT: note_on channel=9 note=40 velocity=0 time=0.005208333333333333
EXTRACT: note_on channel=7 note=71 velocity=0 time=0.03645833333333333
EXTRACT: note_on channel=9 note=42 velocity=0 time=0.005208333333333333
EXTRACT: note_on channel=9 note=54 velocity=52 time=0.005208333333333333
EXTRACT: note_on channel=9 note=70 velocity=74 time=0
EXTRACT: note_on channel=3 note=62 velocity=101 time=0
EXTRACT: note_on channel=4 note=62 velocity=86 time=0
EXTRACT: note_on channel=7 note=71 velocity=88 time=0
EXTRACT: note_on channel=9 note=54 velocity=0 time=0.09375
EXTRACT: note_on channel=9 note=70 velocity=0 time=0
EXTRACT: note_on channel=3 note=62 velocity=0 time=0
EXTRACT: note_on channel=4 note=62 velocity=0 time=0
EXTRACT: note_on channel=7 note=71 velocity=0 time=0.010416666666666666
EXTRACT: note_on channel=9 note=46 velocity=49 time=0.05208333333333333
EXTRACT: note_on channel=9 note=54 velocity=46 time=0
EXTRACT: note_on channel=9 note=70 velocity=58 time=0
EXTRACT: note_on channel=1 note=33 velocity=81 time=0
EXTRACT: note_on channel=3 note=62 velocity=95 time=0
EXTRACT: note_on channel=4 note=62 velocity=80 time=0
EXTRACT: note_on channel=7 note=74 velocity=94 time=0
EXTRACT: note_on channel=9 note=54 velocity=0 time=0.06770833333333333
EXTRACT: note_on channel=9 note=46 velocity=0 time=0.026041666666666664
EXTRACT: note_on channel=3 note=62 velocity=0 time=0
EXTRACT: note_on channel=4 note=62 velocity=0 time=0
EXTRACT: note_on channel=9 note=70 velocity=0 time=0.005208333333333333
EXTRACT: note_on channel=1 note=33 velocity=0 time=0.05208333333333333
EXTRACT: note_on channel=9 note=54 velocity=57 time=0.005208333333333333
EXTRACT: note_on channel=9 note=70 velocity=61 time=0
EXTRACT: note_on channel=1 note=34 velocity=74 time=0
EXTRACT: note_on channel=3 note=62 velocity=96 time=0
EXTRACT: note_on channel=4 note=62 velocity=81 time=0
EXTRACT: note_on channel=7 note=74 velocity=0 time=0.005208333333333333
EXTRACT: note_on channel=9 note=36 velocity=0 time=0.015625
EXTRACT: note_on channel=9 note=54 velocity=0 time=0.026041666666666664
EXTRACT: note_on channel=9 note=70 velocity=0 time=0.041666666666666664
EXTRACT: note_on channel=3 note=62 velocity=0 time=0.015625
EXTRACT: note_on channel=4 note=62 velocity=0 time=0
EXTRACT: note_on channel=1 note=34 velocity=0 time=0.015625
EXTRACT: note_on channel=9 note=36 velocity=77 time=0.03645833333333333
EXTRACT: note_on channel=9 note=42 velocity=88 time=0
EXTRACT: note_on channel=9 note=54 velocity=54 time=0
EXTRACT: note_on channel=9 note=70 velocity=87 time=0
EXTRACT: note_on channel=1 note=35 velocity=84 time=0
EXTRACT: note_on channel=3 note=59 velocity=91 time=0
EXTRACT: note_on channel=4 note=59 velocity=76 time=0
EXTRACT: note_on channel=5 note=57 velocity=63 time=0
EXTRACT: note_on channel=5 note=59 velocity=67 time=0
EXTRACT: note_on channel=5 note=62 velocity=66 time=0
EXTRACT: note_on channel=9 note=70 velocity=0 time=0.08333333333333333
EXTRACT: note_on channel=9 note=54 velocity=0 time=0.010416666666666666
EXTRACT: note_on channel=9 note=42 velocity=0 time=0.010416666666666666
EXTRACT: note_on channel=9 note=54 velocity=38 time=0.05208333333333333
EXTRACT: note_on channel=9 note=70 velocity=63 time=0
EXTRACT: note_on channel=5 note=59 velocity=0 time=0.046875
EXTRACT: note_on channel=5 note=62 velocity=0 time=0
EXTRACT: note_on channel=9 note=54 velocity=0 time=0.03125
EXTRACT: note_on channel=5 note=57 velocity=0 time=0.020833333333333332
EXTRACT: note_on channel=9 note=70 velocity=0 time=0.005208333333333333
EXTRACT: note_on channel=3 note=59 velocity=0 time=0.046875
EXTRACT: note_on channel=4 note=59 velocity=0 time=0
EXTRACT: note_on channel=9 note=42 velocity=46 time=0.005208333333333333
EXTRACT: note_on channel=9 note=54 velocity=44 time=0
EXTRACT: note_on channel=9 note=69 velocity=68 time=0
EXTRACT: note_on channel=9 note=70 velocity=46 time=0
EXTRACT: note_on channel=3 note=66 velocity=113 time=0
EXTRACT: note_on channel=4 note=66 velocity=98 time=0
EXTRACT: note_on channel=7 note=74 velocity=95 time=0
EXTRACT: note_on channel=1 note=35 velocity=0 time=0.015625
EXTRACT: note_on channel=9 note=70 velocity=0 time=0.03125
EXTRACT: note_on channel=9 note=69 velocity=0 time=0.010416666666666666
EXTRACT: note_on channel=9 note=54 velocity=0 time=0.010416666666666666
EXTRACT: note_on channel=9 note=42 velocity=0 time=0.015625
EXTRACT: note_on channel=3 note=66 velocity=0 time=0
EXTRACT: note_on channel=4 note=66 velocity=0 time=0
EXTRACT: note_on channel=7 note=74 velocity=0 time=0
EXTRACT: note_on channel=9 note=36 velocity=0 time=0.041666666666666664
EXTRACT: note_on channel=9 note=54 velocity=36 time=0.03125
EXTRACT: note_on channel=9 note=70 velocity=61 time=0
EXTRACT: note_on channel=3 note=66 velocity=94 time=0
EXTRACT: note_on channel=4 note=66 velocity=79 time=0
EXTRACT: note_on channel=9 note=54 velocity=0 time=0.05208333333333333
EXTRACT: note_on channel=3 note=66 velocity=0 time=0.026041666666666664
EXTRACT: note_on channel=4 note=66 velocity=0 time=0
EXTRACT: note_on channel=9 note=70 velocity=0 time=0.015625
EXTRACT: note_on channel=9 note=36 velocity=81 time=0.0625
EXTRACT: note_on channel=9 note=39 velocity=84 time=0
EXTRACT: note_on channel=9 note=40 velocity=82 time=0
EXTRACT: note_on channel=9 note=42 velocity=91 time=0
EXTRACT: note_on channel=9 note=54 velocity=61 time=0
EXTRACT: note_on channel=9 note=70 velocity=91 time=0
EXTRACT: note_on channel=3 note=66 velocity=101 time=0
EXTRACT: note_on channel=4 note=66 velocity=86 time=0
EXTRACT: note_on channel=9 note=40 velocity=0 time=0.06770833333333333
EXTRACT: note_on channel=9 note=70 velocity=0 time=0.020833333333333332
EXTRACT: note_on channel=9 note=39 velocity=0 time=0.010416666666666666
EXTRACT: note_on channel=9 note=54 velocity=0 time=0
EXTRACT: note_on channel=9 note=42 velocity=0 time=0.03645833333333333
EXTRACT: note_on channel=9 note=54 velocity=52 time=0.020833333333333332
EXTRACT: note_on channel=9 note=70 velocity=63 time=0
EXTRACT: note_on channel=7 note=71 velocity=93 time=0
EXTRACT: note_on channel=9 note=70 velocity=0 time=0.08854166666666666
EXTRACT: note_on channel=9 note=54 velocity=0 time=0.005208333333333333
EXTRACT: note_on channel=3 note=66 velocity=0 time=0.005208333333333333
EXTRACT: note_on channel=4 note=66 velocity=0 time=0
EXTRACT: note_on channel=9 note=42 velocity=46 time=0.057291666666666664
EXTRACT: note_on channel=9 note=54 velocity=46 time=0
EXTRACT: note_on channel=9 note=70 velocity=80 time=0
EXTRACT: note_on channel=3 note=66 velocity=98 time=0
EXTRACT: note_on channel=4 note=66 velocity=83 time=0
EXTRACT: note_on channel=9 note=54 velocity=0 time=0.06770833333333333
EXTRACT: note_on channel=9 note=70 velocity=0 time=0.010416666666666666
EXTRACT: note_on channel=3 note=66 velocity=0 time=0
EXTRACT: note_on channel=4 note=66 velocity=0 time=0
EXTRACT: note_on channel=7 note=71 velocity=0 time=0.020833333333333332
EXTRACT: note_on channel=9 note=42 velocity=0 time=0.015625
EXTRACT: note_on channel=9 note=36 velocity=0 time=0.010416666666666666
EXTRACT: note_on channel=9 note=54 velocity=57 time=0.03125
EXTRACT: note_on channel=9 note=70 velocity=62 time=0
EXTRACT: note_on channel=3 note=66 velocity=104 time=0
EXTRACT: note_on channel=4 note=66 velocity=89 time=0
EXTRACT: note_on channel=9 note=54 velocity=0 time=0.046875
EXTRACT: note_on channel=9 note=70 velocity=0 time=0.046875
EXTRACT: note_on channel=9 note=36 velocity=78 time=0.0625
EXTRACT: note_on channel=9 note=42 velocity=80 time=0
EXTRACT: note_on channel=9 note=54 velocity=54 time=0
EXTRACT: note_on channel=9 note=70 velocity=88 time=0
EXTRACT: note_on channel=7 note=69 velocity=95 time=0
EXTRACT: note_on channel=9 note=54 velocity=0 time=0.09375
EXTRACT: note_on channel=9 note=70 velocity=0 time=0.005208333333333333
EXTRACT: note_on channel=3 note=66 velocity=0 time=0.005208333333333333
EXTRACT: note_on channel=4 note=66 velocity=0 time=0
EXTRACT: note_on channel=7 note=69 velocity=0 time=0.005208333333333333
EXTRACT: note_on channel=9 note=42 velocity=0 time=0.020833333333333332
EXTRACT: note_on channel=9 note=54 velocity=38 time=0.026041666666666664
EXTRACT: note_on channel=9 note=70 velocity=66 time=0
EXTRACT: note_on channel=3 note=66 velocity=97 time=0
EXTRACT: note_on channel=4 note=66 velocity=82 time=0
EXTRACT: note_on channel=7 note=71 velocity=82 time=0
EXTRACT: note_on channel=9 note=70 velocity=0 time=0.07291666666666666
EXTRACT: note_on channel=9 note=54 velocity=0 time=0.005208333333333333
EXTRACT: note_on channel=7 note=71 velocity=0 time=0.005208333333333333
EXTRACT: note_on channel=3 note=66 velocity=0 time=0.05208333333333333
EXTRACT: note_on channel=4 note=66 velocity=0 time=0
EXTRACT: note_on channel=9 note=42 velocity=50 time=0.020833333333333332
EXTRACT: note_on channel=9 note=54 velocity=44 time=0
EXTRACT: note_on channel=9 note=69 velocity=61 time=0
EXTRACT: note_on channel=9 note=70 velocity=61 time=0
EXTRACT: note_on channel=3 note=69 velocity=107 time=0
EXTRACT: note_on channel=4 note=69 velocity=92 time=0
EXTRACT: note_on channel=7 note=71 velocity=87 time=0
EXTRACT: note_on channel=9 note=54 velocity=0 time=0.06770833333333333
EXTRACT: note_on channel=9 note=70 velocity=0 time=0
EXTRACT: note_on channel=9 note=69 velocity=0 time=0.005208333333333333
EXTRACT: note_on channel=9 note=42 velocity=0 time=0.026041666666666664
EXTRACT: note_on channel=7 note=71 velocity=0 time=0
EXTRACT: note_on channel=9 note=36 velocity=0 time=0.020833333333333332
EXTRACT: note_on channel=9 note=54 velocity=36 time=0.03645833333333333
EXTRACT: note_on channel=9 note=69 velocity=48 time=0
EXTRACT: note_on channel=9 note=70 velocity=58 time=0
EXTRACT: note_on channel=7 note=69 velocity=86 time=0
EXTRACT: note_on channel=9 note=54 velocity=0 time=0.05208333333333333
EXTRACT: note_on channel=9 note=69 velocity=0 time=0.015625
EXTRACT: note_on channel=3 note=69 velocity=0 time=0.005208333333333333
EXTRACT: note_on channel=4 note=69 velocity=0 time=0
EXTRACT: note_on channel=7 note=69 velocity=0 time=0.010416666666666666
EXTRACT: note_on channel=9 note=70 velocity=0 time=0.015625
EXTRACT: note_on channel=9 note=36 velocity=82 time=0.057291666666666664
EXTRACT: note_on channel=9 note=39 velocity=82 time=0
EXTRACT: note_on channel=9 note=40 velocity=80 time=0
EXTRACT: note_on channel=9 note=42 velocity=84 time=0
EXTRACT: note_on channel=9 note=54 velocity=61 time=0
EXTRACT: note_on channel=9 note=69 velocity=52 time=0
EXTRACT: note_on channel=9 note=70 velocity=89 time=0
EXTRACT: note_on channel=3 note=69 velocity=98 time=0
EXTRACT: note_on channel=4 note=69 velocity=83 time=0
EXTRACT: note_on channel=7 note=71 velocity=88 time=0
EXTRACT: note_on channel=9 note=69 velocity=0 time=0.08333333333333333
EXTRACT: note_on channel=9 note=70 velocity=0 time=0.010416666666666666
EXTRACT: note_on channel=3 note=69 velocity=0 time=0
EXTRACT: note_on channel=4 note=69 velocity=0 time=0
EXTRACT: note_on channel=9 note=54 velocity=0 time=0.005208333333333333
EXTRACT: note_on channel=9 note=39 velocity=0 time=0.005208333333333333
EXTRACT: note_on channel=7 note=71 velocity=0 time=0
EXTRACT: note_on channel=9 note=40 velocity=0 time=0.005208333333333333
EXTRACT: note_on channel=9 note=42 velocity=0 time=0.041666666666666664
EXTRACT: note_on channel=9 note=54 velocity=52 time=0.005208333333333333
EXTRACT: note_on channel=9 note=70 velocity=71 time=0
EXTRACT: note_on channel=3 note=69 velocity=101 time=0
EXTRACT: note_on channel=4 note=69 velocity=86 time=0
EXTRACT: note_on channel=3 note=69 velocity=0 time=0.08854166666666666
EXTRACT: note_on channel=4 note=69 velocity=0 time=0
EXTRACT: note_on channel=9 note=54 velocity=0 time=0.005208333333333333
EXTRACT: note_on channel=9 note=70 velocity=0 time=0.005208333333333333
EXTRACT: note_on channel=9 note=42 velocity=52 time=0.057291666666666664
EXTRACT: note_on channel=9 note=54 velocity=46 time=0
EXTRACT: note_on channel=9 note=70 velocity=71 time=0
EXTRACT: note_on channel=1 note=33 velocity=80 time=0
EXTRACT: note_on channel=3 note=71 velocity=107 time=0
EXTRACT: note_on channel=4 note=71 velocity=92 time=0
EXTRACT: note_on channel=5 note=52 velocity=59 time=0
EXTRACT: note_on channel=5 note=57 velocity=58 time=0
EXTRACT: note_on channel=5 note=59 velocity=67 time=0
EXTRACT: note_on channel=5 note=62 velocity=63 time=0
EXTRACT: note_on channel=7 note=78 velocity=94 time=0
EXTRACT: note_on channel=9 note=54 velocity=0 time=0.06770833333333333
EXTRACT: note_on channel=9 note=70 velocity=0 time=0.015625
EXTRACT: note_on channel=9 note=42 velocity=0 time=0.015625
EXTRACT: note_on channel=9 note=36 velocity=0 time=0.03645833333333333
EXTRACT: note_on channel=1 note=33 velocity=0 time=0.015625
EXTRACT: note_on channel=7 note=78 velocity=0 time=0.005208333333333333
EXTRACT: note_on channel=9 note=42 velocity=40 time=0
EXTRACT: note_on channel=9 note=54 velocity=57 time=0
EXTRACT: note_on channel=9 note=70 velocity=61 time=0
EXTRACT: note_on channel=1 note=34 velocity=71 time=0
EXTRACT: note_on channel=9 note=54 velocity=0 time=0.046875
EXTRACT: note_on channel=5 note=62 velocity=0 time=0.03645833333333333
EXTRACT: note_on channel=5 note=59 velocity=0 time=0.005208333333333333
EXTRACT: note_on channel=9 note=42 velocity=0 time=0.010416666666666666
EXTRACT: note_on channel=9 note=70 velocity=0 time=0
EXTRACT: note_on channel=5 note=57 velocity=0 time=0.020833333333333332
EXTRACT: note_on channel=3 note=71 velocity=0 time=0.005208333333333333
EXTRACT: note_on channel=4 note=71 velocity=0 time=0
EXTRACT: note_on channel=5 note=52 velocity=0 time=0
EXTRACT: note_on channel=1 note=34 velocity=0 time=0.026041666666666664
EXTRACT: note_on channel=9 note=36 velocity=83 time=0.005208333333333333
EXTRACT: note_on channel=9 note=42 velocity=77 time=0
EXTRACT: note_on channel=9 note=54 velocity=54 time=0
EXTRACT: note_on channel=9 note=70 velocity=90 time=0
EXTRACT: note_on channel=1 note=35 velocity=81 time=0
EXTRACT: note_on channel=3 note=66 velocity=110 time=0
EXTRACT: note_on channel=4 note=66 velocity=95 time=0
EXTRACT: note_on channel=9 note=54 velocity=0 time=0.09375
EXTRACT: note_on channel=9 note=70 velocity=0 time=0.005208333333333333
EXTRACT: note_on channel=9 note=54 velocity=38 time=0.057291666666666664
EXTRACT: note_on channel=9 note=70 velocity=70 time=0
EXTRACT: note_on channel=9 note=42 velocity=0 time=0.015625
EXTRACT: note_on channel=3 note=66 velocity=0 time=0.015625
EXTRACT: note_on channel=4 note=66 velocity=0 time=0
EXTRACT: note_on channel=9 note=70 velocity=0 time=0.015625
EXTRACT: note_on channel=1 note=35 velocity=0 time=0.03125
EXTRACT: note_on channel=9 note=54 velocity=0 time=0
EXTRACT: note_on channel=9 note=42 velocity=54 time=0.078125
EXTRACT: note_on channel=9 note=54 velocity=44 time=0
EXTRACT: note_on channel=9 note=69 velocity=71 time=0
EXTRACT: note_on channel=9 note=70 velocity=71 time=0
EXTRACT: note_on channel=3 note=66 velocity=103 time=0
EXTRACT: note_on channel=4 note=66 velocity=88 time=0
EXTRACT: note_on channel=7 note=74 velocity=95 time=0
EXTRACT: note_on channel=9 note=54 velocity=0 time=0.06770833333333333
EXTRACT: note_on channel=9 note=69 velocity=0 time=0
EXTRACT: note_on channel=9 note=70 velocity=0 time=0.015625
EXTRACT: note_on channel=7 note=74 velocity=0 time=0
EXTRACT: note_on channel=9 note=36 velocity=0 time=0.020833333333333332
EXTRACT: note_on channel=9 note=42 velocity=0 time=0.005208333333333333
EXTRACT: note_on channel=9 note=54 velocity=36 time=0.046875
EXTRACT: note_on channel=9 note=70 velocity=56 time=0
EXTRACT: note_on channel=3 note=66 velocity=0 time=0.046875
EXTRACT: note_on channel=4 note=66 velocity=0 time=0
EXTRACT: note_on channel=9 note=54 velocity=0 time=0.005208333333333333
EXTRACT: note_on channel=9 note=70 velocity=0 time=0.046875
EXTRACT: note_on channel=9 note=36 velocity=84 time=0.057291666666666664
EXTRACT: note_on channel=9 note=39 velocity=84 time=0
EXTRACT: note_on channel=9 note=40 velocity=82 time=0
EXTRACT: note_on channel=9 note=42 velocity=79 time=0
EXTRACT: note_on channel=9 note=54 velocity=61 time=0
EXTRACT: note_on channel=9 note=70 velocity=87 time=0
EXTRACT: note_on channel=3 note=66 velocity=105 time=0
EXTRACT: note_on channel=4 note=66 velocity=90 time=0
EXTRACT: note_on channel=9 note=40 velocity=0 time=0.06770833333333333
EXTRACT: note_on channel=9 note=70 velocity=0 time=0.026041666666666664
EXTRACT: note_on channel=9 note=39 velocity=0 time=0.005208333333333333
EXTRACT: note_on channel=9 note=54 velocity=0 time=0
EXTRACT: note_on channel=9 note=54 velocity=52 time=0.057291666666666664
EXTRACT: note_on channel=9 note=70 velocity=74 time=0
EXTRACT: note_on channel=7 note=71 velocity=93 time=0
EXTRACT: note_on channel=9 note=42 velocity=0 time=0.020833333333333332
EXTRACT: note_on channel=9 note=54 velocity=0 time=0.07291666666666666
EXTRACT: note_on channel=3 note=66 velocity=0 time=0.005208333333333333
EXTRACT: note_on channel=4 note=66 velocity=0 time=0
EXTRACT: note_on channel=9 note=70 velocity=0 time=0
EXTRACT: note_on channel=9 note=42 velocity=54 time=0.057291666666666664
EXTRACT: note_on channel=9 note=54 velocity=46 time=0
EXTRACT: note_on channel=9 note=69 velocity=64 time=0
EXTRACT: note_on channel=9 note=70 velocity=72 time=0
EXTRACT: note_on channel=3 note=66 velocity=93 time=0
EXTRACT: note_on channel=4 note=66 velocity=78 time=0
EXTRACT: note_on channel=9 note=69 velocity=0 time=0.0625
EXTRACT: note_on channel=9 note=54 velocity=0 time=0.005208333333333333
EXTRACT: note_on channel=3 note=66 velocity=0 time=0.010416666666666666
EXTRACT: note_on channel=4 note=66 velocity=0 time=0
EXTRACT: note_on channel=9 note=70 velocity=0 time=0.005208333333333333
EXTRACT: note_on channel=7 note=71 velocity=0 time=0.015625
EXTRACT: note_on channel=9 note=36 velocity=0 time=0.010416666666666666
EXTRACT: note_on channel=9 note=42 velocity=0 time=0.005208333333333333
EXTRACT: note_on channel=9 note=54 velocity=57 time=0.041666666666666664
EXTRACT: note_on channel=9 note=70 velocity=66 time=0
EXTRACT: note_on channel=3 note=66 velocity=102 time=0
EXTRACT: note_on channel=4 note=66 velocity=87 time=0
EXTRACT: note_on channel=9 note=54 velocity=0 time=0.046875
EXTRACT: note_on channel=9 note=70 velocity=0 time=0.05208333333333333
EXTRACT: note_on channel=9 note=36 velocity=81 time=0.057291666666666664
EXTRACT: note_on channel=9 note=42 velocity=87 time=0
EXTRACT: note_on channel=9 note=54 velocity=54 time=0
EXTRACT: note_on channel=9 note=70 velocity=93 time=0
EXTRACT: note_on channel=7 note=69 velocity=95 time=0
EXTRACT: note_on channel=3 note=66 velocity=0 time=0.046875
EXTRACT: note_on channel=4 note=66 velocity=0 time=0
EXTRACT: note_on channel=9 note=54 velocity=0 time=0.046875
EXTRACT: note_on channel=9 note=70 velocity=0 time=0.015625
EXTRACT: note_on channel=7 note=69 velocity=0 time=0
EXTRACT: note_on channel=9 note=42 velocity=0 time=0.041666666666666664
EXTRACT: note_on channel=9 note=54 velocity=38 time=0.005208333333333333
EXTRACT: note_on channel=9 note=70 velocity=59 time=0
EXTRACT: note_on channel=3 note=66 velocity=104 time=0
EXTRACT: note_on channel=4 note=66 velocity=89 time=0
EXTRACT: note_on channel=7 note=71 velocity=82 time=0
EXTRACT: note_on channel=9 note=54 velocity=0 time=0.078125
EXTRACT: note_on channel=7 note=71 velocity=0 time=0.005208333333333333
EXTRACT: note_on channel=9 note=70 velocity=0 time=0.010416666666666666
EXTRACT: note_on channel=3 note=66 velocity=0 time=0.026041666666666664
EXTRACT: note_on channel=4 note=66 velocity=0 time=0
EXTRACT: note_on channel=9 note=42 velocity=46 time=0.03645833333333333
EXTRACT: note_on channel=9 note=54 velocity=44 time=0
EXTRACT: note_on channel=9 note=69 velocity=60 time=0
EXTRACT: note_on channel=9 note=70 velocity=78 time=0
EXTRACT: note_on channel=3 note=69 velocity=102 time=0
EXTRACT: note_on channel=4 note=69 velocity=87 time=0
EXTRACT: note_on channel=7 note=71 velocity=87 time=0
EXTRACT: note_on channel=9 note=54 velocity=0 time=0.06770833333333333
EXTRACT: note_on channel=9 note=69 velocity=0 time=0.020833333333333332
EXTRACT: note_on channel=9 note=70 velocity=0 time=0.005208333333333333
EXTRACT: note_on channel=7 note=71 velocity=0 time=0.005208333333333333
EXTRACT: note_on channel=9 note=36 velocity=0 time=0.005208333333333333
EXTRACT: note_on channel=9 note=42 velocity=0 time=0.020833333333333332
EXTRACT: note_on channel=9 note=54 velocity=36 time=0.03125
EXTRACT: note_on channel=9 note=69 velocity=55 time=0
EXTRACT: note_on channel=9 note=70 velocity=74 time=0
EXTRACT: note_on channel=7 note=69 velocity=86 time=0
EXTRACT: note_on channel=9 note=54 velocity=0 time=0.05208333333333333
EXTRACT: note_on channel=3 note=69 velocity=0 time=0.010416666666666666
EXTRACT: note_on channel=4 note=69 velocity=0 time=0
EXTRACT: note_on channel=9 note=69 velocity=0 time=0.020833333333333332
EXTRACT: note_on channel=7 note=69 velocity=0 time=0
EXTRACT: note_on channel=9 note=70 velocity=0 time=0.005208333333333333
EXTRACT: note_on channel=9 note=36 velocity=82 time=0.06770833333333333
EXTRACT: note_on channel=9 note=39 velocity=82 time=0
EXTRACT: note_on channel=9 note=40 velocity=80 time=0
EXTRACT: note_on channel=9 note=42 velocity=78 time=0
EXTRACT: note_on channel=9 note=54 velocity=61 time=0
EXTRACT: note_on channel=9 note=69 velocity=50 time=0
EXTRACT: note_on channel=9 note=70 velocity=87 time=0
EXTRACT: note_on channel=3 note=69 velocity=100 time=0
EXTRACT: note_on channel=4 note=69 velocity=85 time=0
EXTRACT: note_on channel=7 note=71 velocity=88 time=0
EXTRACT: note_on channel=3 note=69 velocity=0 time=0.08333333333333333
EXTRACT: note_on channel=4 note=69 velocity=0 time=0
EXTRACT: note_on channel=9 note=69 velocity=0 time=0.005208333333333333
EXTRACT: note_on channel=9 note=54 velocity=0 time=0.010416666666666666
EXTRACT: note_on channel=9 note=70 velocity=0 time=0
EXTRACT: note_on channel=9 note=39 velocity=0 time=0.005208333333333333
EXTRACT: note_on channel=7 note=71 velocity=0 time=0
EXTRACT: note_on channel=9 note=40 velocity=0 time=0.005208333333333333
EXTRACT: note_on channel=9 note=42 velocity=0 time=0.041666666666666664
EXTRACT: note_on channel=9 note=54 velocity=52 time=0.005208333333333333
EXTRACT: note_on channel=9 note=70 velocity=74 time=0
EXTRACT: note_on channel=3 note=69 velocity=95 time=0
EXTRACT: note_on channel=4 note=69 velocity=80 time=0
EXTRACT: note_on channel=3 note=69 velocity=0 time=0.08333333333333333
EXTRACT: note_on channel=4 note=69 velocity=0 time=0
EXTRACT: note_on channel=9 note=54 velocity=0 time=0.010416666666666666
EXTRACT: note_on channel=9 note=70 velocity=0 time=0
EXTRACT: note_on channel=9 note=46 velocity=49 time=0.0625
EXTRACT: note_on channel=9 note=54 velocity=46 time=0
EXTRACT: note_on channel=9 note=70 velocity=58 time=0
EXTRACT: note_on channel=1 note=33 velocity=74 time=0
EXTRACT: note_on channel=3 note=69 velocity=103 time=0
EXTRACT: note_on channel=4 note=69 velocity=88 time=0
EXTRACT: note_on channel=7 note=78 velocity=94 time=0
EXTRACT: note_on channel=9 note=54 velocity=0 time=0.06770833333333333
EXTRACT: note_on channel=9 note=46 velocity=0 time=0.026041666666666664
EXTRACT: note_on channel=9 note=70 velocity=0 time=0.005208333333333333
EXTRACT: note_on channel=1 note=33 velocity=0 time=0.05208333333333333
EXTRACT: note_on channel=7 note=78 velocity=0 time=0.005208333333333333
EXTRACT: note_on channel=9 note=54 velocity=57 time=0
EXTRACT: note_on channel=9 note=70 velocity=61 time=0
EXTRACT: note_on channel=1 note=34 velocity=68 time=0
EXTRACT: note_on channel=9 note=36 velocity=0 time=0.020833333333333332
EXTRACT: note_on channel=9 note=54 velocity=0 time=0.026041666666666664
EXTRACT: note_on channel=9 note=70 velocity=0 time=0.041666666666666664
EXTRACT: note_on channel=3 note=69 velocity=0 time=0.03645833333333333
EXTRACT: note_on channel=4 note=69 velocity=0 time=0
EXTRACT: note_on channel=1 note=34 velocity=0 time=0.026041666666666664
EXTRACT: note_on channel=9 note=36 velocity=77 time=0.005208333333333333
EXTRACT: note_on channel=9 note=42 velocity=88 time=0
EXTRACT: note_on channel=9 note=54 velocity=54 time=0
EXTRACT: note_on channel=9 note=70 velocity=87 time=0
EXTRACT: note_on channel=1 note=35 velocity=76 time=0
EXTRACT: note_on channel=3 note=66 velocity=109 time=0
EXTRACT: note_on channel=4 note=66 velocity=94 time=0
EXTRACT: note_on channel=5 note=57 velocity=63 time=0
EXTRACT: note_on channel=5 note=59 velocity=67 time=0
EXTRACT: note_on channel=5 note=62 velocity=66 time=0
EXTRACT: note_on channel=9 note=70 velocity=0 time=0.08333333333333333
EXTRACT: note_on channel=9 note=54 velocity=0 time=0.010416666666666666
EXTRACT: note_on channel=9 note=42 velocity=0 time=0.010416666666666666
EXTRACT: note_on channel=9 note=54 velocity=38 time=0.05208333333333333
EXTRACT: note_on channel=9 note=70 velocity=63 time=0
EXTRACT: note_on channel=5 note=59 velocity=0 time=0.046875
EXTRACT: note_on channel=5 note=62 velocity=0 time=0
EXTRACT: note_on channel=9 note=54 velocity=0 time=0.03125
EXTRACT: note_on channel=3 note=66 velocity=0 time=0.015625
EXTRACT: note_on channel=4 note=66 velocity=0 time=0
EXTRACT: note_on channel=5 note=57 velocity=0 time=0.005208333333333333
EXTRACT: note_on channel=9 note=70 velocity=0 time=0.005208333333333333
EXTRACT: note_on channel=1 note=35 velocity=0 time=0.010416666666666666
EXTRACT: note_on channel=9 note=42 velocity=46 time=0.041666666666666664
EXTRACT: note_on channel=9 note=54 velocity=44 time=0
EXTRACT: note_on channel=9 note=69 velocity=68 time=0
EXTRACT: note_on channel=9 note=70 velocity=46 time=0
EXTRACT: note_on channel=3 note=69 velocity=102 time=0
EXTRACT: note_on channel=4 note=69 velocity=87 time=0
EXTRACT: note_on channel=7 note=74 velocity=95 time=0
EXTRACT: note_on channel=9 note=70 velocity=0 time=0.046875
EXTRACT: note_on channel=9 note=69 velocity=0 time=0.010416666666666666
EXTRACT: note_on channel=9 note=54 velocity=0 time=0.010416666666666666
EXTRACT: note_on channel=9 note=42 velocity=0 time=0.015625
EXTRACT: note_on channel=7 note=74 velocity=0 time=0
EXTRACT: note_on channel=9 note=36 velocity=0 time=0.041666666666666664
EXTRACT: note_on channel=9 note=54 velocity=36 time=0.03125
EXTRACT: note_on channel=9 note=70 velocity=61 time=0
EXTRACT: note_on channel=9 note=54 velocity=0 time=0.05208333333333333
EXTRACT: note_on channel=9 note=70 velocity=0 time=0.041666666666666664
EXTRACT: note_on channel=3 note=69 velocity=0 time=0.057291666666666664
EXTRACT: note_on channel=4 note=69 velocity=0 time=0
EXTRACT: note_on channel=9 note=36 velocity=81 time=0.005208333333333333
EXTRACT: note_on channel=9 note=39 velocity=84 time=0
EXTRACT: note_on channel=9 note=40 velocity=82 time=0
EXTRACT: note_on channel=9 note=42 velocity=91 time=0
EXTRACT: note_on channel=9 note=54 velocity=61 time=0
EXTRACT: note_on channel=9 note=70 velocity=91 time=0
EXTRACT: note_on channel=3 note=66 velocity=105 time=0
EXTRACT: note_on channel=4 note=66 velocity=90 time=0
EXTRACT: note_on channel=9 note=40 velocity=0 time=0.06770833333333333
EXTRACT: note_on channel=9 note=70 velocity=0 time=0.020833333333333332
EXTRACT: note_on channel=9 note=39 velocity=0 time=0.010416666666666666
EXTRACT: note_on channel=9 note=54 velocity=0 time=0
EXTRACT: note_on channel=9 note=42 velocity=0 time=0.03645833333333333
EXTRACT: note_on channel=9 note=54 velocity=52 time=0.020833333333333332
EXTRACT: note_on channel=9 note=70 velocity=63 time=0
EXTRACT: note_on channel=7 note=71 velocity=93 time=0
EXTRACT: note_on channel=9 note=70 velocity=0 time=0.08854166666666666
EXTRACT: note_on channel=9 note=54 velocity=0 time=0.005208333333333333
EXTRACT: note_on channel=3 note=66 velocity=0 time=0.03125
EXTRACT: note_on channel=4 note=66 velocity=0 time=0
EXTRACT: note_on channel=9 note=42 velocity=46 time=0.03125
EXTRACT: note_on channel=9 note=54 velocity=46 time=0
EXTRACT: note_on channel=9 note=70 velocity=80 time=0
EXTRACT: note_on channel=3 note=69 velocity=100 time=0
EXTRACT: note_on channel=4 note=69 velocity=85 time=0
EXTRACT: note_on channel=9 note=54 velocity=0 time=0.06770833333333333
EXTRACT: note_on channel=9 note=70 velocity=0 time=0.010416666666666666
EXTRACT: note_on channel=3 note=69 velocity=0 time=0.015625
EXTRACT: note_on channel=4 note=69 velocity=0 time=0
EXTRACT: note_on channel=7 note=71 velocity=0 time=0.005208333333333333
EXTRACT: note_on channel=9 note=42 velocity=0 time=0.015625
EXTRACT: note_on channel=9 note=36 velocity=0 time=0.010416666666666666
EXTRACT: note_on channel=9 note=54 velocity=57 time=0.03125
EXTRACT: note_on channel=9 note=70 velocity=62 time=0
EXTRACT: note_on channel=3 note=71 velocity=107 time=0
EXTRACT: note_on channel=4 note=71 velocity=92 time=0
EXTRACT: note_on channel=9 note=54 velocity=0 time=0.046875
EXTRACT: note_on channel=9 note=70 velocity=0 time=0.046875
EXTRACT: note_on channel=9 note=36 velocity=78 time=0.0625
EXTRACT: note_on channel=9 note=42 velocity=80 time=0
EXTRACT: note_on channel=9 note=54 velocity=54 time=0
EXTRACT: note_on channel=9 note=70 velocity=88 time=0
EXTRACT: note_on channel=7 note=69 velocity=95 time=0
EXTRACT: note_on channel=9 note=54 velocity=0 time=0.09375
EXTRACT: note_on channel=9 note=70 velocity=0 time=0.005208333333333333
EXTRACT: note_on channel=7 note=69 velocity=0 time=0.010416666666666666
EXTRACT: note_on channel=9 note=42 velocity=0 time=0.020833333333333332
EXTRACT: note_on channel=9 note=54 velocity=38 time=0.026041666666666664
EXTRACT: note_on channel=9 note=70 velocity=66 time=0
EXTRACT: note_on channel=7 note=71 velocity=82 time=0
EXTRACT: note_on channel=9 note=70 velocity=0 time=0.07291666666666666
EXTRACT: note_on channel=9 note=54 velocity=0 time=0.005208333333333333
EXTRACT: note_on channel=7 note=71 velocity=0 time=0.005208333333333333
EXTRACT: note_on channel=3 note=71 velocity=0 time=0.06770833333333333
EXTRACT: note_on channel=4 note=71 velocity=0 time=0
EXTRACT: note_on channel=9 note=42 velocity=50 time=0.005208333333333333
EXTRACT: note_on channel=9 note=54 velocity=44 time=0
EXTRACT: note_on channel=9 note=69 velocity=61 time=0
EXTRACT: note_on channel=9 note=70 velocity=61 time=0
EXTRACT: note_on channel=3 note=66 velocity=98 time=0
EXTRACT: note_on channel=4 note=66 velocity=83 time=0
EXTRACT: note_on channel=7 note=71 velocity=87 time=0
EXTRACT: note_on channel=9 note=54 velocity=0 time=0.06770833333333333
EXTRACT: note_on channel=9 note=70 velocity=0 time=0
EXTRACT: note_on channel=9 note=69 velocity=0 time=0.005208333333333333
EXTRACT: note_on channel=9 note=42 velocity=0 time=0.026041666666666664
EXTRACT: note_on channel=7 note=71 velocity=0 time=0
EXTRACT: note_on channel=9 note=36 velocity=0 time=0.020833333333333332
EXTRACT: note_on channel=9 note=54 velocity=36 time=0.03645833333333333
EXTRACT: note_on channel=9 note=69 velocity=48 time=0
EXTRACT: note_on channel=9 note=70 velocity=58 time=0
EXTRACT: note_on channel=7 note=69 velocity=86 time=0
EXTRACT: note_on channel=9 note=54 velocity=0 time=0.05208333333333333
EXTRACT: note_on channel=9 note=69 velocity=0 time=0.015625
EXTRACT: note_on channel=7 note=69 velocity=0 time=0.015625
EXTRACT: note_on channel=9 note=70 velocity=0 time=0.015625
EXTRACT: note_on channel=3 note=66 velocity=0 time=0.05208333333333333
EXTRACT: note_on channel=4 note=66 velocity=0 time=0
EXTRACT: note_on channel=9 note=36 velocity=82 time=0.005208333333333333
EXTRACT: note_on channel=9 note=39 velocity=82 time=0
EXTRACT: note_on channel=9 note=40 velocity=80 time=0
EXTRACT: note_on channel=9 note=42 velocity=84 time=0
EXTRACT: note_on channel=9 note=54 velocity=61 time=0
EXTRACT: note_on channel=9 note=69 velocity=52 time=0
EXTRACT: note_on channel=9 note=70 velocity=89 time=0
EXTRACT: note_on channel=3 note=64 velocity=88 time=0
EXTRACT: note_on channel=4 note=64 velocity=73 time=0
EXTRACT: note_on channel=7 note=71 velocity=88 time=0
EXTRACT: note_on channel=9 note=69 velocity=0 time=0.08333333333333333
EXTRACT: note_on channel=9 note=70 velocity=0 time=0.010416666666666666
EXTRACT: note_on channel=9 note=54 velocity=0 time=0.005208333333333333
EXTRACT: note_on channel=9 note=39 velocity=0 time=0.005208333333333333
EXTRACT: note_on channel=7 note=71 velocity=0 time=0
EXTRACT: note_on channel=9 note=40 velocity=0 time=0.005208333333333333
EXTRACT: note_on channel=9 note=42 velocity=0 time=0.041666666666666664
EXTRACT: note_on channel=9 note=54 velocity=52 time=0.005208333333333333
EXTRACT: note_on channel=9 note=70 velocity=71 time=0
EXTRACT: note_on channel=9 note=54 velocity=0 time=0.09375
EXTRACT: note_on channel=9 note=70 velocity=0 time=0.005208333333333333
EXTRACT: note_on channel=3 note=64 velocity=0 time=0.005208333333333333
EXTRACT: note_on channel=4 note=64 velocity=0 time=0
EXTRACT: note_on channel=9 note=42 velocity=52 time=0.05208333333333333
EXTRACT: note_on channel=9 note=54 velocity=46 time=0
EXTRACT: note_on channel=9 note=70 velocity=71 time=0
EXTRACT: note_on channel=1 note=33 velocity=78 time=0
EXTRACT: note_on channel=3 note=69 velocity=104 time=0
EXTRACT: note_on channel=4 note=69 velocity=89 time=0
EXTRACT: note_on channel=5 note=52 velocity=59 time=0
EXTRACT: note_on channel=5 note=57 velocity=58 time=0
EXTRACT: note_on channel=5 note=59 velocity=67 time=0
EXTRACT: note_on channel=5 note=62 velocity=63 time=0
EXTRACT: note_on channel=7 note=78 velocity=94 time=0
EXTRACT: note_on channel=9 note=54 velocity=0 time=0.06770833333333333
EXTRACT: note_on channel=9 note=70 velocity=0 time=0.015625
EXTRACT: note_on channel=9 note=42 velocity=0 time=0.015625
EXTRACT: note_on channel=9 note=36 velocity=0 time=0.03645833333333333
EXTRACT: note_on channel=1 note=33 velocity=0 time=0.015625
EXTRACT: note_on channel=7 note=78 velocity=0 time=0.005208333333333333
EXTRACT: note_on channel=9 note=42 velocity=40 time=0
EXTRACT: note_on channel=9 note=54 velocity=57 time=0
EXTRACT: note_on channel=9 note=70 velocity=61 time=0
EXTRACT: note_on channel=1 note=34 velocity=70 time=0
EXTRACT: note_on channel=9 note=54 velocity=0 time=0.046875
EXTRACT: note_on channel=5 note=62 velocity=0 time=0.03645833333333333
EXTRACT: note_on channel=5 note=59 velocity=0 time=0.005208333333333333
EXTRACT: note_on channel=9 note=42 velocity=0 time=0.010416666666666666
EXTRACT: note_on channel=9 note=70 velocity=0 time=0
EXTRACT: note_on channel=5 note=57 velocity=0 time=0.020833333333333332
EXTRACT: note_on channel=5 note=52 velocity=0 time=0.005208333333333333
EXTRACT: note_on channel=3 note=69 velocity=0 time=0.026041666666666664
EXTRACT: note_on channel=4 note=69 velocity=0 time=0
EXTRACT: note_on channel=1 note=34 velocity=0 time=0
EXTRACT: note_on channel=9 note=36 velocity=83 time=0.005208333333333333
EXTRACT: note_on channel=9 note=42 velocity=77 time=0
EXTRACT: note_on channel=9 note=54 velocity=54 time=0
EXTRACT: note_on channel=9 note=70 velocity=90 time=0
EXTRACT: note_on channel=1 note=35 velocity=83 time=0
EXTRACT: note_on channel=3 note=66 velocity=100 time=0
EXTRACT: note_on channel=4 note=66 velocity=85 time=0
EXTRACT: note_on channel=9 note=54 velocity=0 time=0.09375
EXTRACT: note_on channel=9 note=70 velocity=0 time=0.005208333333333333
EXTRACT: note_on channel=9 note=54 velocity=38 time=0.057291666666666664
EXTRACT: note_on channel=9 note=70 velocity=70 time=0
EXTRACT: note_on channel=9 note=42 velocity=0 time=0.015625
EXTRACT: note_on channel=9 note=70 velocity=0 time=0.03125
EXTRACT: note_on channel=9 note=54 velocity=0 time=0.03125
EXTRACT: note_on channel=3 note=66 velocity=0 time=0.06770833333333333
EXTRACT: note_on channel=4 note=66 velocity=0 time=0
EXTRACT: note_on channel=9 note=42 velocity=54 time=0.010416666666666666
EXTRACT: note_on channel=9 note=54 velocity=44 time=0
EXTRACT: note_on channel=9 note=69 velocity=71 time=0
EXTRACT: note_on channel=9 note=70 velocity=71 time=0
EXTRACT: note_on channel=3 note=69 velocity=100 time=0
EXTRACT: note_on channel=4 note=69 velocity=85 time=0
EXTRACT: note_on channel=7 note=74 velocity=95 time=0
EXTRACT: note_on channel=1 note=35 velocity=0 time=0.020833333333333332
EXTRACT: note_on channel=9 note=54 velocity=0 time=0.046875
EXTRACT: note_on channel=9 note=69 velocity=0 time=0
EXTRACT: note_on channel=9 note=70 velocity=0 time=0.015625
EXTRACT: note_on channel=7 note=74 velocity=0 time=0
EXTRACT: note_on channel=9 note=36 velocity=0 time=0.020833333333333332
EXTRACT: note_on channel=9 note=42 velocity=0 time=0.005208333333333333
EXTRACT: note_on channel=9 note=54 velocity=36 time=0.046875
EXTRACT: note_on channel=9 note=70 velocity=56 time=0
EXTRACT: note_on channel=9 note=54 velocity=0 time=0.05208333333333333
EXTRACT: note_on channel=9 note=70 velocity=0 time=0.046875
EXTRACT: note_on channel=3 note=69 velocity=0 time=0.026041666666666664
EXTRACT: note_on channel=4 note=69 velocity=0 time=0
EXTRACT: note_on channel=9 note=36 velocity=84 time=0.03125
EXTRACT: note_on channel=9 note=39 velocity=84 time=0
EXTRACT: note_on channel=9 note=40 velocity=82 time=0
EXTRACT: note_on channel=9 note=42 velocity=79 time=0
EXTRACT: note_on channel=9 note=54 velocity=61 time=0
EXTRACT: note_on channel=9 note=70 velocity=87 time=0
EXTRACT: note_on channel=3 note=66 velocity=94 time=0
EXTRACT: note_on channel=4 note=66 velocity=79 time=0
EXTRACT: note_on channel=9 note=40 velocity=0 time=0.06770833333333333
EXTRACT: note_on channel=9 note=70 velocity=0 time=0.026041666666666664
EXTRACT: note_on channel=9 note=39 velocity=0 time=0.005208333333333333
EXTRACT: note_on channel=9 note=54 velocity=0 time=0
EXTRACT: note_on channel=9 note=54 velocity=52 time=0.057291666666666664
EXTRACT: note_on channel=9 note=70 velocity=74 time=0
EXTRACT: note_on channel=7 note=71 velocity=93 time=0
EXTRACT: note_on channel=9 note=42 velocity=0 time=0.020833333333333332
EXTRACT: note_on channel=9 note=54 velocity=0 time=0.07291666666666666
EXTRACT: note_on channel=9 note=70 velocity=0 time=0.005208333333333333
EXTRACT: note_on channel=3 note=66 velocity=0 time=0.041666666666666664
EXTRACT: note_on channel=4 note=66 velocity=0 time=0
EXTRACT: note_on channel=9 note=42 velocity=54 time=0.015625
EXTRACT: note_on channel=9 note=54 velocity=46 time=0
EXTRACT: note_on channel=9 note=69 velocity=64 time=0
EXTRACT: note_on channel=9 note=70 velocity=72 time=0
EXTRACT: note_on channel=3 note=69 velocity=98 time=0
EXTRACT: note_on channel=4 note=69 velocity=83 time=0
EXTRACT: note_on channel=9 note=69 velocity=0 time=0.0625
EXTRACT: note_on channel=9 note=54 velocity=0 time=0.005208333333333333
EXTRACT: note_on channel=3 note=69 velocity=0 time=0.005208333333333333
EXTRACT: note_on channel=4 note=69 velocity=0 time=0
EXTRACT: note_on channel=9 note=70 velocity=0 time=0.010416666666666666
EXTRACT: note_on channel=7 note=71 velocity=0 time=0.015625
EXTRACT: note_on channel=9 note=36 velocity=0 time=0.010416666666666666
EXTRACT: note_on channel=9 note=42 velocity=0 time=0.005208333333333333
EXTRACT: note_on channel=9 note=54 velocity=57 time=0.041666666666666664
EXTRACT: note_on channel=9 note=70 velocity=66 time=0
EXTRACT: note_on channel=3 note=71 velocity=105 time=0
EXTRACT: note_on channel=4 note=71 velocity=90 time=0
EXTRACT: note_on channel=9 note=54 velocity=0 time=0.046875
EXTRACT: note_on channel=9 note=70 velocity=0 time=0.05208333333333333
EXTRACT: note_on channel=9 note=36 velocity=81 time=0.057291666666666664
EXTRACT: note_on channel=9 note=42 velocity=87 time=0
EXTRACT: note_on channel=9 note=54 velocity=54 time=0
EXTRACT: note_on channel=9 note=70 velocity=93 time=0
EXTRACT: note_on channel=7 note=69 velocity=95 time=0
EXTRACT: note_on channel=9 note=54 velocity=0 time=0.09375
EXTRACT: note_on channel=9 note=70 velocity=0 time=0.015625
EXTRACT: note_on channel=7 note=69 velocity=0 time=0
EXTRACT: note_on channel=9 note=42 velocity=0 time=0.041666666666666664
EXTRACT: note_on channel=9 note=54 velocity=38 time=0.005208333333333333
EXTRACT: note_on channel=9 note=70 velocity=59 time=0
EXTRACT: note_on channel=7 note=71 velocity=82 time=0
EXTRACT: note_on channel=9 note=54 velocity=0 time=0.078125
EXTRACT: note_on channel=7 note=71 velocity=0 time=0.005208333333333333
EXTRACT: note_on channel=9 note=70 velocity=0 time=0.010416666666666666
EXTRACT: note_on channel=3 note=71 velocity=0 time=0.041666666666666664
EXTRACT: note_on channel=4 note=71 velocity=0 time=0
EXTRACT: note_on channel=9 note=42 velocity=46 time=0.020833333333333332
EXTRACT: note_on channel=9 note=54 velocity=44 time=0
EXTRACT: note_on channel=9 note=69 velocity=60 time=0
EXTRACT: note_on channel=9 note=70 velocity=78 time=0
EXTRACT: note_on channel=3 note=66 velocity=98 time=0
EXTRACT: note_on channel=4 note=66 velocity=83 time=0
EXTRACT: note_on channel=7 note=71 velocity=87 time=0
EXTRACT: note_on channel=9 note=54 velocity=0 time=0.06770833333333333
EXTRACT: note_on channel=9 note=69 velocity=0 time=0.020833333333333332
EXTRACT: note_on channel=9 note=70 velocity=0 time=0.005208333333333333
EXTRACT: note_on channel=7 note=71 velocity=0 time=0.005208333333333333
EXTRACT: note_on channel=9 note=36 velocity=0 time=0.005208333333333333
EXTRACT: note_on channel=9 note=42 velocity=0 time=0.020833333333333332
EXTRACT: note_on channel=9 note=54 velocity=36 time=0.03125
EXTRACT: note_on channel=9 note=69 velocity=55 time=0
EXTRACT: note_on channel=9 note=70 velocity=74 time=0
EXTRACT: note_on channel=7 note=69 velocity=86 time=0
EXTRACT: note_on channel=9 note=54 velocity=0 time=0.05208333333333333
EXTRACT: note_on channel=9 note=69 velocity=0 time=0.03125
EXTRACT: note_on channel=7 note=69 velocity=0 time=0
EXTRACT: note_on channel=9 note=70 velocity=0 time=0.005208333333333333
EXTRACT: note_on channel=3 note=66 velocity=0 time=0.03645833333333333
EXTRACT: note_on channel=4 note=66 velocity=0 time=0
EXTRACT: note_on channel=9 note=36 velocity=82 time=0.03125
EXTRACT: note_on channel=9 note=39 velocity=82 time=0
EXTRACT: note_on channel=9 note=40 velocity=80 time=0
EXTRACT: note_on channel=9 note=42 velocity=78 time=0
EXTRACT: note_on channel=9 note=54 velocity=61 time=0
EXTRACT: note_on channel=9 note=69 velocity=50 time=0
EXTRACT: note_on channel=9 note=70 velocity=87 time=0
EXTRACT: note_on channel=3 note=62 velocity=108 time=0
EXTRACT: note_on channel=4 note=62 velocity=93 time=0
EXTRACT: note_on channel=7 note=71 velocity=88 time=0
EXTRACT: note_on channel=3 note=62 velocity=0 time=0.08333333333333333
EXTRACT: note_on channel=4 note=62 velocity=0 time=0
EXTRACT: note_on channel=9 note=69 velocity=0 time=0.005208333333333333
EXTRACT: note_on channel=9 note=54 velocity=0 time=0.010416666666666666
EXTRACT: note_on channel=9 note=70 velocity=0 time=0
EXTRACT: note_on channel=9 note=39 velocity=0 time=0.005208333333333333
EXTRACT: note_on channel=7 note=71 velocity=0 time=0
EXTRACT: note_on channel=9 note=40 velocity=0 time=0.005208333333333333
EXTRACT: note_on channel=9 note=42 velocity=0 time=0.041666666666666664
EXTRACT: note_on channel=9 note=54 velocity=52 time=0.005208333333333333
EXTRACT: note_on channel=9 note=70 velocity=74 time=0
EXTRACT: note_on channel=3 note=62 velocity=102 time=0
EXTRACT: note_on channel=4 note=62 velocity=87 time=0
EXTRACT: note_on channel=3 note=62 velocity=0 time=0.08333333333333333
EXTRACT: note_on channel=4 note=62 velocity=0 time=0
EXTRACT: note_on channel=9 note=54 velocity=0 time=0.010416666666666666
EXTRACT: note_on channel=9 note=70 velocity=0 time=0
EXTRACT: note_on channel=9 note=46 velocity=49 time=0.0625
EXTRACT: note_on channel=9 note=54 velocity=46 time=0
EXTRACT: note_on channel=9 note=70 velocity=58 time=0
EXTRACT: note_on channel=1 note=33 velocity=81 time=0
EXTRACT: note_on channel=3 note=62 velocity=98 time=0
EXTRACT: note_on channel=4 note=62 velocity=83 time=0
EXTRACT: note_on channel=7 note=78 velocity=94 time=0
EXTRACT: note_on channel=9 note=54 velocity=0 time=0.06770833333333333
EXTRACT: note_on channel=9 note=46 velocity=0 time=0.026041666666666664
EXTRACT: note_on channel=3 note=62 velocity=0 time=0
EXTRACT: note_on channel=4 note=62 velocity=0 time=0
EXTRACT: note_on channel=9 note=70 velocity=0 time=0.005208333333333333
EXTRACT: note_on channel=1 note=33 velocity=0 time=0.05208333333333333
EXTRACT: note_on channel=7 note=78 velocity=0 time=0.005208333333333333
EXTRACT: note_on channel=9 note=54 velocity=57 time=0
EXTRACT: note_on channel=9 note=70 velocity=61 time=0
EXTRACT: note_on channel=1 note=34 velocity=74 time=0
EXTRACT: note_on channel=3 note=62 velocity=104 time=0
EXTRACT: note_on channel=4 note=62 velocity=89 time=0
EXTRACT: note_on channel=9 note=36 velocity=0 time=0.020833333333333332
EXTRACT: note_on channel=9 note=54 velocity=0 time=0.026041666666666664
EXTRACT: note_on channel=9 note=70 velocity=0 time=0.041666666666666664
EXTRACT: note_on channel=1 note=34 velocity=0 time=0.03125
EXTRACT: note_on channel=3 note=62 velocity=0 time=0
EXTRACT: note_on channel=4 note=62 velocity=0 time=0
EXTRACT: note_on channel=9 note=36 velocity=77 time=0.03645833333333333
EXTRACT: note_on channel=9 note=42 velocity=88 time=0
EXTRACT: note_on channel=9 note=49 velocity=76 time=0
EXTRACT: note_on channel=9 note=54 velocity=54 time=0
EXTRACT: note_on channel=9 note=70 velocity=87 time=0
EXTRACT: note_on channel=1 note=35 velocity=103 time=0
EXTRACT: note_on channel=2 note=57 velocity=81 time=0
EXTRACT: note_on channel=2 note=62 velocity=77 time=0
EXTRACT: note_on channel=2 note=66 velocity=76 time=0
EXTRACT: note_on channel=3 note=59 velocity=108 time=0
EXTRACT: note_on channel=4 note=59 velocity=85 time=0
EXTRACT: note_on channel=5 note=57 velocity=63 time=0
EXTRACT: note_on channel=5 note=59 velocity=67 time=0
EXTRACT: note_on channel=5 note=62 velocity=66 time=0
EXTRACT: note_on channel=6 note=66 velocity=87 time=0
EXTRACT: note_on channel=9 note=49 velocity=0 time=0.08333333333333333
EXTRACT: note_on channel=9 note=70 velocity=0 time=0
EXTRACT: note_on channel=9 note=54 velocity=0 time=0.010416666666666666
EXTRACT: note_on channel=9 note=42 velocity=0 time=0.010416666666666666
EXTRACT: note_on channel=9 note=54 velocity=38 time=0.05208333333333333
EXTRACT: note_on channel=9 note=70 velocity=63 time=0
EXTRACT: note_on channel=5 note=59 velocity=0 time=0.046875
EXTRACT: note_on channel=5 note=62 velocity=0 time=0
EXTRACT: note_on channel=9 note=54 velocity=0 time=0.03125
EXTRACT: note_on channel=5 note=57 velocity=0 time=0.020833333333333332
EXTRACT: note_on channel=9 note=70 velocity=0 time=0.005208333333333333
EXTRACT: note_on channel=3 note=59 velocity=0 time=0.03125
EXTRACT: note_on channel=9 note=42 velocity=46 time=0.020833333333333332
EXTRACT: note_on channel=9 note=54 velocity=44 time=0
EXTRACT: note_on channel=9 note=69 velocity=68 time=0
EXTRACT: note_on channel=9 note=70 velocity=46 time=0
EXTRACT: note_on channel=6 note=71 velocity=76 time=0
EXTRACT: note_on channel=7 note=74 velocity=95 time=0
EXTRACT: note_on channel=4 note=59 velocity=0 time=0.005208333333333333
EXTRACT: note_on channel=9 note=70 velocity=0 time=0.041666666666666664
EXTRACT: note_on channel=9 note=69 velocity=0 time=0.010416666666666666
EXTRACT: note_on channel=9 note=54 velocity=0 time=0.010416666666666666
EXTRACT: note_on channel=9 note=42 velocity=0 time=0.015625
EXTRACT: note_on channel=7 note=74 velocity=0 time=0
EXTRACT: note_on channel=9 note=36 velocity=0 time=0.041666666666666664
EXTRACT: note_on channel=1 note=35 velocity=0 time=0
EXTRACT: note_on channel=9 note=54 velocity=36 time=0.03125
EXTRACT: note_on channel=9 note=70 velocity=61 time=0
EXTRACT: note_on channel=9 note=54 velocity=0 time=0.05208333333333333
EXTRACT: note_on channel=9 note=70 velocity=0 time=0.041666666666666664
EXTRACT: note_on channel=9 note=36 velocity=81 time=0.0625
EXTRACT: note_on channel=9 note=39 velocity=84 time=0
EXTRACT: note_on channel=9 note=40 velocity=82 time=0
EXTRACT: note_on channel=9 note=42 velocity=91 time=0
EXTRACT: note_on channel=9 note=54 velocity=61 time=0
EXTRACT: note_on channel=9 note=70 velocity=91 time=0
EXTRACT: note_on channel=9 note=40 velocity=0 time=0.06770833333333333
EXTRACT: note_on channel=9 note=70 velocity=0 time=0.020833333333333332
EXTRACT: note_on channel=9 note=39 velocity=0 time=0.010416666666666666
EXTRACT: note_on channel=9 note=54 velocity=0 time=0
EXTRACT: note_on channel=9 note=42 velocity=0 time=0.03645833333333333
EXTRACT: note_on channel=9 note=54 velocity=52 time=0.020833333333333332
EXTRACT: note_on channel=9 note=70 velocity=63 time=0
EXTRACT: note_on channel=7 note=71 velocity=93 time=0
EXTRACT: note_on channel=9 note=70 velocity=0 time=0.08854166666666666
EXTRACT: note_on channel=9 note=54 velocity=0 time=0.005208333333333333
EXTRACT: note_on channel=9 note=42 velocity=46 time=0.0625
EXTRACT: note_on channel=9 note=54 velocity=46 time=0
EXTRACT: note_on channel=9 note=70 velocity=80 time=0
EXTRACT: note_on channel=6 note=78 velocity=74 time=0
EXTRACT: note_on channel=9 note=54 velocity=0 time=0.06770833333333333
EXTRACT: note_on channel=9 note=70 velocity=0 time=0.010416666666666666
EXTRACT: note_on channel=7 note=71 velocity=0 time=0.020833333333333332
EXTRACT: note_on channel=9 note=42 velocity=0 time=0.015625
EXTRACT: note_on channel=9 note=36 velocity=0 time=0.010416666666666666
EXTRACT: note_on channel=9 note=54 velocity=57 time=0.03125
EXTRACT: note_on channel=9 note=70 velocity=62 time=0
EXTRACT: note_on channel=2 note=62 velocity=0 time=0.015625
EXTRACT: note_on channel=2 note=57 velocity=0 time=0.026041666666666664
EXTRACT: note_on channel=9 note=54 velocity=0 time=0.005208333333333333
EXTRACT: note_on channel=2 note=66 velocity=0 time=0.03645833333333333
EXTRACT: note_on channel=9 note=70 velocity=0 time=0.010416666666666666
EXTRACT: note_on channel=9 note=36 velocity=78 time=0.0625
EXTRACT: note_on channel=9 note=42 velocity=80 time=0
EXTRACT: note_on channel=9 note=54 velocity=54 time=0
EXTRACT: note_on channel=9 note=70 velocity=88 time=0
EXTRACT: note_on channel=2 note=57 velocity=74 time=0
EXTRACT: note_on channel=2 note=61 velocity=80 time=0
EXTRACT: note_on channel=2 note=64 velocity=74 time=0
EXTRACT: note_on channel=7 note=69 velocity=95 time=0
EXTRACT: note_on channel=9 note=54 velocity=0 time=0.09375
EXTRACT: note_on channel=6 note=66 velocity=0 time=0.005208333333333333
EXTRACT: note_on channel=9 note=70 velocity=0 time=0
EXTRACT: note_on channel=6 note=71 velocity=0 time=0.010416666666666666
EXTRACT: note_on channel=6 note=78 velocity=0 time=0
EXTRACT: note_on channel=7 note=69 velocity=0 time=0
EXTRACT: note_on channel=9 note=42 velocity=0 time=0.020833333333333332
EXTRACT: note_on channel=9 note=54 velocity=38 time=0.026041666666666664
EXTRACT: note_on channel=9 note=70 velocity=66 time=0
EXTRACT: note_on channel=7 note=71 velocity=82 time=0
EXTRACT: note_on channel=9 note=70 velocity=0 time=0.07291666666666666
EXTRACT: note_on channel=9 note=54 velocity=0 time=0.005208333333333333
EXTRACT: note_on channel=7 note=71 velocity=0 time=0.005208333333333333
EXTRACT: note_on channel=9 note=42 velocity=50 time=0.07291666666666666
EXTRACT: note_on channel=9 note=54 velocity=44 time=0
EXTRACT: note_on channel=9 note=69 velocity=61 time=0
EXTRACT: note_on channel=9 note=70 velocity=61 time=0
EXTRACT: note_on channel=7 note=71 velocity=87 time=0
EXTRACT: note_on channel=9 note=54 velocity=0 time=0.06770833333333333
EXTRACT: note_on channel=9 note=70 velocity=0 time=0
EXTRACT: note_on channel=9 note=69 velocity=0 time=0.005208333333333333
EXTRACT: note_on channel=9 note=42 velocity=0 time=0.026041666666666664
EXTRACT: note_on channel=7 note=71 velocity=0 time=0
EXTRACT: note_on channel=9 note=36 velocity=0 time=0.020833333333333332
EXTRACT: note_on channel=9 note=54 velocity=36 time=0.03645833333333333
EXTRACT: note_on channel=9 note=69 velocity=48 time=0
EXTRACT: note_on channel=9 note=70 velocity=58 time=0
EXTRACT: note_on channel=7 note=69 velocity=86 time=0
EXTRACT: note_on channel=9 note=54 velocity=0 time=0.05208333333333333
EXTRACT: note_on channel=9 note=69 velocity=0 time=0.015625
EXTRACT: note_on channel=7 note=69 velocity=0 time=0.015625
EXTRACT: note_on channel=9 note=70 velocity=0 time=0.015625
EXTRACT: note_on channel=9 note=36 velocity=82 time=0.057291666666666664
EXTRACT: note_on channel=9 note=39 velocity=82 time=0
EXTRACT: note_on channel=9 note=40 velocity=80 time=0
EXTRACT: note_on channel=9 note=42 velocity=84 time=0
EXTRACT: note_on channel=9 note=54 velocity=61 time=0
EXTRACT: note_on channel=9 note=69 velocity=52 time=0
EXTRACT: note_on channel=9 note=70 velocity=89 time=0
EXTRACT: note_on channel=1 note=42 velocity=97 time=0
EXTRACT: note_on channel=6 note=79 velocity=98 time=0
EXTRACT: note_on channel=7 note=71 velocity=88 time=0
EXTRACT: note_on channel=9 note=69 velocity=0 time=0.08333333333333333
EXTRACT: note_on channel=9 note=70 velocity=0 time=0.010416666666666666
EXTRACT: note_on channel=9 note=54 velocity=0 time=0.005208333333333333
EXTRACT: note_on channel=9 note=39 velocity=0 time=0.005208333333333333
EXTRACT: note_on channel=7 note=71 velocity=0 time=0
EXTRACT: note_on channel=9 note=40 velocity=0 time=0.005208333333333333
EXTRACT: note_on channel=9 note=42 velocity=0 time=0.041666666666666664
EXTRACT: note_on channel=9 note=54 velocity=52 time=0.005208333333333333
EXTRACT: note_on channel=9 note=70 velocity=71 time=0
EXTRACT: note_on channel=9 note=54 velocity=0 time=0.09375
EXTRACT: note_on channel=9 note=70 velocity=0 time=0.005208333333333333
EXTRACT: note_on channel=9 note=42 velocity=52 time=0.057291666666666664
EXTRACT: note_on channel=9 note=54 velocity=46 time=0
EXTRACT: note_on channel=9 note=70 velocity=71 time=0
EXTRACT: note_on channel=5 note=52 velocity=59 time=0
EXTRACT: note_on channel=5 note=57 velocity=58 time=0
EXTRACT: note_on channel=5 note=59 velocity=67 time=0
EXTRACT: note_on channel=5 note=62 velocity=63 time=0
EXTRACT: note_on channel=7 note=78 velocity=94 time=0
EXTRACT: note_on channel=9 note=54 velocity=0 time=0.06770833333333333
EXTRACT: note_on channel=9 note=70 velocity=0 time=0.015625
EXTRACT: note_on channel=9 note=42 velocity=0 time=0.015625
EXTRACT: note_on channel=2 note=57 velocity=0 time=0.026041666666666664
EXTRACT: note_on channel=9 note=36 velocity=0 time=0.010416666666666666
EXTRACT: note_on channel=7 note=78 velocity=0 time=0.020833333333333332
EXTRACT: note_on channel=9 note=42 velocity=40 time=0
EXTRACT: note_on channel=9 note=54 velocity=57 time=0
EXTRACT: note_on channel=9 note=70 velocity=61 time=0
EXTRACT: note_on channel=1 note=42 velocity=0 time=0.041666666666666664
EXTRACT: note_on channel=9 note=54 velocity=0 time=0.005208333333333333
EXTRACT: note_on channel=2 note=61 velocity=0 time=0.026041666666666664
EXTRACT: note_on channel=2 note=64 velocity=0 time=0
EXTRACT: note_on channel=5 note=62 velocity=0 time=0.010416666666666666
EXTRACT: note_on channel=5 note=59 velocity=0 time=0.005208333333333333
EXTRACT: note_on channel=9 note=42 velocity=0 time=0.010416666666666666
EXTRACT: note_on channel=9 note=70 velocity=0 time=0
EXTRACT: note_on channel=6 note=79 velocity=0 time=0.010416666666666666
EXTRACT: note_on channel=5 note=57 velocity=0 time=0.010416666666666666
EXTRACT: note_on channel=5 note=52 velocity=0 time=0.005208333333333333
EXTRACT: note_on channel=9 note=36 velocity=83 time=0.03125
EXTRACT: note_on channel=9 note=42 velocity=77 time=0
EXTRACT: note_on channel=9 note=54 velocity=54 time=0
EXTRACT: note_on channel=9 note=70 velocity=90 time=0
EXTRACT: note_on channel=1 note=35 velocity=94 time=0
EXTRACT: note_on channel=2 note=54 velocity=66 time=0
EXTRACT: note_on channel=2 note=57 velocity=68 time=0
EXTRACT: note_on channel=2 note=62 velocity=71 time=0
EXTRACT: note_on channel=4 note=54 velocity=59 time=0
EXTRACT: note_on channel=4 note=57 velocity=73 time=0
EXTRACT: note_on channel=4 note=62 velocity=64 time=0
EXTRACT: note_on channel=6 note=78 velocity=96 time=0
EXTRACT: note_on channel=9 note=54 velocity=0 time=0.09375
EXTRACT: note_on channel=9 note=70 velocity=0 time=0.005208333333333333
EXTRACT: note_on channel=9 note=54 velocity=38 time=0.057291666666666664
EXTRACT: note_on channel=9 note=70 velocity=70 time=0
EXTRACT: note_on channel=9 note=42 velocity=0 time=0.015625
EXTRACT: note_on channel=9 note=70 velocity=0 time=0.03125
EXTRACT: note_on channel=9 note=54 velocity=0 time=0.03125
EXTRACT: note_on channel=4 note=57 velocity=0 time=0.041666666666666664
EXTRACT: note_on channel=9 note=42 velocity=54 time=0.03645833333333333
EXTRACT: note_on channel=9 note=54 velocity=44 time=0
EXTRACT: note_on channel=9 note=69 velocity=71 time=0
EXTRACT: note_on channel=9 note=70 velocity=71 time=0
EXTRACT: note_on channel=3 note=59 velocity=104 time=0
EXTRACT: note_on channel=4 note=52 velocity=67 time=0
EXTRACT: note_on channel=4 note=57 velocity=70 time=0
EXTRACT: note_on channel=4 note=61 velocity=71 time=0
EXTRACT: note_on channel=7 note=74 velocity=95 time=0
EXTRACT: note_on channel=4 note=62 velocity=0 time=0.010416666666666666
EXTRACT: note_on channel=4 note=54 velocity=0 time=0.010416666666666666
EXTRACT: note_on channel=9 note=54 velocity=0 time=0.046875
EXTRACT: note_on channel=9 note=69 velocity=0 time=0
EXTRACT: note_on channel=9 note=70 velocity=0 time=0.015625
EXTRACT: note_on channel=7 note=74 velocity=0 time=0
EXTRACT: note_on channel=1 note=35 velocity=0 time=0.005208333333333333
EXTRACT: note_on channel=9 note=36 velocity=0 time=0.015625
EXTRACT: note_on channel=9 note=42 velocity=0 time=0.005208333333333333
EXTRACT: note_on channel=9 note=54 velocity=36 time=0.046875
EXTRACT: note_on channel=9 note=70 velocity=56 time=0
EXTRACT: note_on channel=3 note=59 velocity=0 time=0.041666666666666664
EXTRACT: note_on channel=9 note=54 velocity=0 time=0.010416666666666666
EXTRACT: note_on channel=9 note=70 velocity=0 time=0.046875
EXTRACT: note_on channel=9 note=36 velocity=84 time=0.057291666666666664
EXTRACT: note_on channel=9 note=39 velocity=84 time=0
EXTRACT: note_on channel=9 note=40 velocity=82 time=0
EXTRACT: note_on channel=9 note=42 velocity=79 time=0
EXTRACT: note_on channel=9 note=54 velocity=61 time=0
EXTRACT: note_on channel=9 note=70 velocity=87 time=0
EXTRACT: note_on channel=3 note=69 velocity=104 time=0
EXTRACT: note_on channel=9 note=40 velocity=0 time=0.06770833333333333
EXTRACT: note_on channel=9 note=70 velocity=0 time=0.026041666666666664
EXTRACT: note_on channel=9 note=39 velocity=0 time=0.005208333333333333
EXTRACT: note_on channel=9 note=54 velocity=0 time=0
EXTRACT: note_on channel=9 note=54 velocity=52 time=0.057291666666666664
EXTRACT: note_on channel=9 note=70 velocity=74 time=0
EXTRACT: note_on channel=7 note=71 velocity=93 time=0
EXTRACT: note_on channel=9 note=42 velocity=0 time=0.020833333333333332
EXTRACT: note_on channel=9 note=54 velocity=0 time=0.07291666666666666
EXTRACT: note_on channel=9 note=70 velocity=0 time=0.005208333333333333
EXTRACT: note_on channel=3 note=69 velocity=0 time=0.05208333333333333
EXTRACT: note_on channel=9 note=42 velocity=54 time=0.005208333333333333
EXTRACT: note_on channel=9 note=54 velocity=46 time=0
EXTRACT: note_on channel=9 note=69 velocity=64 time=0
EXTRACT: note_on channel=9 note=70 velocity=72 time=0
EXTRACT: note_on channel=1 note=33 velocity=98 time=0
EXTRACT: note_on channel=3 note=67 velocity=96 time=0
EXTRACT: note_on channel=9 note=69 velocity=0 time=0.0625
EXTRACT: note_on channel=9 note=54 velocity=0 time=0.005208333333333333
EXTRACT: note_on channel=2 note=57 velocity=0 time=0.015625
EXTRACT: note_on channel=9 note=70 velocity=0 time=0
EXTRACT: note_on channel=7 note=71 velocity=0 time=0.015625
EXTRACT: note_on channel=9 note=36 velocity=0 time=0.010416666666666666
EXTRACT: note_on channel=9 note=42 velocity=0 time=0.005208333333333333
EXTRACT: note_on channel=3 note=67 velocity=0 time=0.010416666666666666
EXTRACT: note_on channel=2 note=62 velocity=0 time=0.020833333333333332
EXTRACT: note_on channel=9 note=54 velocity=57 time=0.010416666666666666
EXTRACT: note_on channel=9 note=70 velocity=66 time=0
EXTRACT: note_on channel=9 note=54 velocity=0 time=0.046875
EXTRACT: note_on channel=2 note=54 velocity=0 time=0.041666666666666664
EXTRACT: note_on channel=9 note=70 velocity=0 time=0.010416666666666666
EXTRACT: note_on channel=1 note=33 velocity=0 time=0.05208333333333333
EXTRACT: note_on channel=9 note=36 velocity=81 time=0.005208333333333333
EXTRACT: note_on channel=9 note=42 velocity=87 time=0
EXTRACT: note_on channel=9 note=54 velocity=54 time=0
EXTRACT: note_on channel=9 note=70 velocity=93 time=0
EXTRACT: note_on channel=1 note=35 velocity=98 time=0
EXTRACT: note_on channel=3 note=67 velocity=100 time=0
EXTRACT: note_on channel=7 note=69 velocity=95 time=0
EXTRACT: note_on channel=9 note=54 velocity=0 time=0.09375
EXTRACT: note_on channel=9 note=70 velocity=0 time=0.015625
EXTRACT: note_on channel=7 note=69 velocity=0 time=0
EXTRACT: note_on channel=4 note=57 velocity=0 time=0.03645833333333333
EXTRACT: note_on channel=9 note=42 velocity=0 time=0.005208333333333333
EXTRACT: note_on channel=4 note=52 velocity=0 time=0.005208333333333333
EXTRACT: note_on channel=9 note=54 velocity=38 time=0
EXTRACT: note_on channel=9 note=70 velocity=59 time=0
EXTRACT: note_on channel=7 note=71 velocity=82 time=0
EXTRACT: note_on channel=4 note=61 velocity=0 time=0.010416666666666666
EXTRACT: note_on channel=9 note=54 velocity=0 time=0.06770833333333333
EXTRACT: note_on channel=7 note=71 velocity=0 time=0.005208333333333333
EXTRACT: note_on channel=9 note=70 velocity=0 time=0.010416666666666666
EXTRACT: note_on channel=1 note=35 velocity=0 time=0.057291666666666664
EXTRACT: note_on channel=3 note=67 velocity=0 time=0
EXTRACT: note_on channel=9 note=42 velocity=46 time=0.005208333333333333
EXTRACT: note_on channel=9 note=54 velocity=44 time=0
EXTRACT: note_on channel=9 note=69 velocity=60 time=0
EXTRACT: note_on channel=9 note=70 velocity=78 time=0
EXTRACT: note_on channel=3 note=66 velocity=92 time=0
EXTRACT: note_on channel=4 note=52 velocity=70 time=0
EXTRACT: note_on channel=4 note=57 velocity=63 time=0
EXTRACT: note_on channel=4 note=61 velocity=60 time=0
EXTRACT: note_on channel=7 note=71 velocity=87 time=0
EXTRACT: note_on channel=9 note=54 velocity=0 time=0.06770833333333333
EXTRACT: note_on channel=9 note=69 velocity=0 time=0.020833333333333332
EXTRACT: note_on channel=9 note=70 velocity=0 time=0.005208333333333333
EXTRACT: note_on channel=7 note=71 velocity=0 time=0.005208333333333333
EXTRACT: note_on channel=9 note=36 velocity=0 time=0.005208333333333333
EXTRACT: note_on channel=9 note=42 velocity=0 time=0.020833333333333332
EXTRACT: note_on channel=9 note=54 velocity=36 time=0.03125
EXTRACT: note_on channel=9 note=69 velocity=55 time=0
EXTRACT: note_on channel=9 note=70 velocity=74 time=0
EXTRACT: note_on channel=7 note=69 velocity=86 time=0
EXTRACT: note_on channel=9 note=54 velocity=0 time=0.05208333333333333
EXTRACT: note_on channel=9 note=69 velocity=0 time=0.03125
EXTRACT: note_on channel=7 note=69 velocity=0 time=0
EXTRACT: note_on channel=9 note=70 velocity=0 time=0.005208333333333333
EXTRACT: note_on channel=3 note=66 velocity=0 time=0.05208333333333333
EXTRACT: note_on channel=9 note=36 velocity=82 time=0.015625
EXTRACT: note_on channel=9 note=39 velocity=82 time=0
EXTRACT: note_on channel=9 note=40 velocity=80 time=0
EXTRACT: note_on channel=9 note=42 velocity=78 time=0
EXTRACT: note_on channel=9 note=54 velocity=61 time=0
EXTRACT: note_on channel=9 note=69 velocity=50 time=0
EXTRACT: note_on channel=9 note=70 velocity=87 time=0
EXTRACT: note_on channel=3 note=64 velocity=100 time=0
EXTRACT: note_on channel=7 note=71 velocity=88 time=0
EXTRACT: note_on channel=9 note=69 velocity=0 time=0.08854166666666666
EXTRACT: note_on channel=9 note=54 velocity=0 time=0.010416666666666666
EXTRACT: note_on channel=9 note=70 velocity=0 time=0
EXTRACT: note_on channel=9 note=39 velocity=0 time=0.005208333333333333
EXTRACT: note_on channel=7 note=71 velocity=0 time=0
EXTRACT: note_on channel=9 note=40 velocity=0 time=0.005208333333333333
EXTRACT: note_on channel=6 note=78 velocity=0 time=0.015625
EXTRACT: note_on channel=9 note=42 velocity=0 time=0.026041666666666664
EXTRACT: note_on channel=9 note=54 velocity=52 time=0.005208333333333333
EXTRACT: note_on channel=9 note=70 velocity=74 time=0
EXTRACT: note_on channel=4 note=52 velocity=0 time=0.08854166666666666
EXTRACT: note_on channel=4 note=57 velocity=0 time=0
EXTRACT: note_on channel=9 note=54 velocity=0 time=0.005208333333333333
EXTRACT: note_on channel=9 note=70 velocity=0 time=0
EXTRACT: note_on channel=3 note=64 velocity=0 time=0.057291666666666664
EXTRACT: note_on channel=9 note=46 velocity=49 time=0.005208333333333333
EXTRACT: note_on channel=9 note=54 velocity=46 time=0
EXTRACT: note_on channel=9 note=70 velocity=58 time=0
EXTRACT: note_on channel=1 note=33 velocity=103 time=0
EXTRACT: note_on channel=3 note=62 velocity=92 time=0
EXTRACT: note_on channel=4 note=50 velocity=52 time=0
EXTRACT: note_on channel=4 note=54 velocity=43 time=0
EXTRACT: note_on channel=4 note=59 velocity=67 time=0
EXTRACT: note_on channel=7 note=78 velocity=94 time=0
EXTRACT: note_on channel=4 note=61 velocity=0 time=0.015625
EXTRACT: note_on channel=9 note=54 velocity=0 time=0.05208333333333333
EXTRACT: note_on channel=9 note=46 velocity=0 time=0.026041666666666664
EXTRACT: note_on channel=9 note=70 velocity=0 time=0.005208333333333333
EXTRACT: note_on channel=3 note=62 velocity=0 time=0.020833333333333332
EXTRACT: note_on channel=7 note=78 velocity=0 time=0.03645833333333333
EXTRACT: note_on channel=9 note=54 velocity=57 time=0
EXTRACT: note_on channel=9 note=70 velocity=61 time=0
EXTRACT: note_on channel=1 note=34 velocity=85 time=0
EXTRACT: note_on channel=9 note=36 velocity=0 time=0.020833333333333332
EXTRACT: note_on channel=1 note=33 velocity=0 time=0.015625
EXTRACT: note_on channel=9 note=54 velocity=0 time=0.010416666666666666
EXTRACT: note_on channel=9 note=70 velocity=0 time=0.041666666666666664
EXTRACT: note_on channel=1 note=34 velocity=0 time=0.046875
EXTRACT: note_on channel=9 note=36 velocity=77 time=0.020833333333333332
EXTRACT: note_on channel=9 note=42 velocity=88 time=0
EXTRACT: note_on channel=9 note=54 velocity=54 time=0
EXTRACT: note_on channel=9 note=70 velocity=87 time=0
EXTRACT: note_on channel=1 note=35 velocity=102 time=0
EXTRACT: note_on channel=2 note=57 velocity=83 time=0
EXTRACT: note_on channel=2 note=62 velocity=82 time=0
EXTRACT: note_on channel=2 note=66 velocity=81 time=0
EXTRACT: note_on channel=3 note=62 velocity=97 time=0
EXTRACT: note_on channel=5 note=57 velocity=63 time=0
EXTRACT: note_on channel=5 note=59 velocity=67 time=0
EXTRACT: note_on channel=5 note=62 velocity=66 time=0
EXTRACT: note_on channel=9 note=70 velocity=0 time=0.08333333333333333
EXTRACT: note_on channel=9 note=54 velocity=0 time=0.010416666666666666
EXTRACT: note_on channel=9 note=42 velocity=0 time=0.010416666666666666
EXTRACT: note_on channel=3 note=62 velocity=0 time=0.020833333333333332
EXTRACT: note_on channel=9 note=54 velocity=38 time=0.03125
EXTRACT: note_on channel=9 note=70 velocity=63 time=0
EXTRACT: note_on channel=5 note=59 velocity=0 time=0.046875
EXTRACT: note_on channel=5 note=62 velocity=0 time=0
EXTRACT: note_on channel=9 note=54 velocity=0 time=0.03125
EXTRACT: note_on channel=5 note=57 velocity=0 time=0.020833333333333332
EXTRACT: note_on channel=9 note=70 velocity=0 time=0.005208333333333333
EXTRACT: note_on channel=9 note=42 velocity=46 time=0.05208333333333333
EXTRACT: note_on channel=9 note=54 velocity=44 time=0
EXTRACT: note_on channel=9 note=69 velocity=68 time=0
EXTRACT: note_on channel=9 note=70 velocity=46 time=0
EXTRACT: note_on channel=3 note=62 velocity=100 time=0
EXTRACT: note_on channel=6 note=69 velocity=87 time=0
EXTRACT: note_on channel=7 note=74 velocity=95 time=0
EXTRACT: note_on channel=1 note=35 velocity=0 time=0.026041666666666664
EXTRACT: note_on channel=9 note=70 velocity=0 time=0.020833333333333332
EXTRACT: note_on channel=9 note=69 velocity=0 time=0.010416666666666666
EXTRACT: note_on channel=9 note=54 velocity=0 time=0.010416666666666666
EXTRACT: note_on channel=9 note=42 velocity=0 time=0.015625
EXTRACT: note_on channel=7 note=74 velocity=0 time=0
EXTRACT: note_on channel=9 note=36 velocity=0 time=0.041666666666666664
EXTRACT: note_on channel=9 note=54 velocity=36 time=0.03125
EXTRACT: note_on channel=9 note=70 velocity=61 time=0
EXTRACT: note_on channel=9 note=54 velocity=0 time=0.05208333333333333
EXTRACT: note_on channel=9 note=70 velocity=0 time=0.041666666666666664
EXTRACT: note_on channel=3 note=62 velocity=0 time=0.046875
EXTRACT: note_on channel=6 note=69 velocity=0 time=0
EXTRACT: note_on channel=9 note=36 velocity=81 time=0.015625
EXTRACT: note_on channel=9 note=39 velocity=84 time=0
EXTRACT: note_on channel=9 note=40 velocity=82 time=0
EXTRACT: note_on channel=9 note=42 velocity=91 time=0
EXTRACT: note_on channel=9 note=54 velocity=61 time=0
EXTRACT: note_on channel=9 note=70 velocity=91 time=0
EXTRACT: note_on channel=3 note=64 velocity=100 time=0
EXTRACT: note_on channel=6 note=71 velocity=83 time=0
EXTRACT: note_on channel=9 note=40 velocity=0 time=0.06770833333333333
EXTRACT: note_on channel=9 note=70 velocity=0 time=0.020833333333333332
EXTRACT: note_on channel=9 note=39 velocity=0 time=0.010416666666666666
EXTRACT: note_on channel=9 note=54 velocity=0 time=0
EXTRACT: note_on channel=9 note=42 velocity=0 time=0.03645833333333333
EXTRACT: note_on channel=6 note=71 velocity=0 time=0.015625
EXTRACT: note_on channel=9 note=54 velocity=52 time=0.005208333333333333
EXTRACT: note_on channel=9 note=70 velocity=63 time=0
EXTRACT: note_on channel=7 note=71 velocity=93 time=0
EXTRACT: note_on channel=9 note=70 velocity=0 time=0.08854166666666666
EXTRACT: note_on channel=9 note=54 velocity=0 time=0.005208333333333333
EXTRACT: note_on channel=4 note=59 velocity=0 time=0.03125
EXTRACT: note_on channel=4 note=54 velocity=0 time=0.005208333333333333
EXTRACT: note_on channel=4 note=50 velocity=0 time=0.020833333333333332
EXTRACT: note_on channel=3 note=64 velocity=0 time=0
EXTRACT: note_on channel=9 note=42 velocity=46 time=0.005208333333333333
EXTRACT: note_on channel=9 note=54 velocity=46 time=0
EXTRACT: note_on channel=9 note=70 velocity=80 time=0
EXTRACT: note_on channel=3 note=62 velocity=95 time=0
EXTRACT: note_on channel=6 note=74 velocity=91 time=0
EXTRACT: note_on channel=9 note=54 velocity=0 time=0.06770833333333333
EXTRACT: note_on channel=9 note=70 velocity=0 time=0.010416666666666666
EXTRACT: note_on channel=7 note=71 velocity=0 time=0.020833333333333332
EXTRACT: note_on channel=9 note=42 velocity=0 time=0.015625
EXTRACT: note_on channel=9 note=36 velocity=0 time=0.010416666666666666
EXTRACT: note_on channel=9 note=54 velocity=57 time=0.03125
EXTRACT: note_on channel=9 note=70 velocity=62 time=0
EXTRACT: note_on channel=9 note=54 velocity=0 time=0.046875
EXTRACT: note_on channel=9 note=70 velocity=0 time=0.046875
EXTRACT: note_on channel=3 note=62 velocity=0 time=0.057291666666666664
EXTRACT: note_on channel=9 note=36 velocity=78 time=0.005208333333333333
EXTRACT: note_on channel=9 note=42 velocity=80 time=0
EXTRACT: note_on channel=9 note=54 velocity=54 time=0
EXTRACT: note_on channel=9 note=70 velocity=88 time=0
EXTRACT: note_on channel=3 note=59 velocity=101 time=0
EXTRACT: note_on channel=7 note=69 velocity=95 time=0
EXTRACT: note_on channel=9 note=54 velocity=0 time=0.09375
EXTRACT: note_on channel=9 note=70 velocity=0 time=0.005208333333333333
EXTRACT: note_on channel=7 note=69 velocity=0 time=0.010416666666666666
EXTRACT: note_on channel=9 note=42 velocity=0 time=0.020833333333333332
EXTRACT: note_on channel=9 note=54 velocity=38 time=0.026041666666666664
EXTRACT: note_on channel=9 note=70 velocity=66 time=0
EXTRACT: note_on channel=7 note=71 velocity=82 time=0
EXTRACT: note_on channel=9 note=70 velocity=0 time=0.07291666666666666
EXTRACT: note_on channel=9 note=54 velocity=0 time=0.005208333333333333
EXTRACT: note_on channel=7 note=71 velocity=0 time=0.005208333333333333
EXTRACT: note_on channel=9 note=42 velocity=50 time=0.07291666666666666
EXTRACT: note_on channel=9 note=54 velocity=44 time=0
EXTRACT: note_on channel=9 note=69 velocity=61 time=0
EXTRACT: note_on channel=9 note=70 velocity=61 time=0
EXTRACT: note_on channel=7 note=71 velocity=87 time=0
EXTRACT: note_on channel=9 note=54 velocity=0 time=0.06770833333333333
EXTRACT: note_on channel=9 note=70 velocity=0 time=0
EXTRACT: note_on channel=9 note=69 velocity=0 time=0.005208333333333333
EXTRACT: note_on channel=3 note=59 velocity=0 time=0.026041666666666664
EXTRACT: note_on channel=9 note=42 velocity=0 time=0
EXTRACT: note_on channel=7 note=71 velocity=0 time=0
EXTRACT: note_on channel=9 note=36 velocity=0 time=0.020833333333333332
EXTRACT: note_on channel=9 note=54 velocity=36 time=0.03645833333333333
EXTRACT: note_on channel=9 note=69 velocity=48 time=0
EXTRACT: note_on channel=9 note=70 velocity=58 time=0
EXTRACT: note_on channel=7 note=69 velocity=86 time=0
EXTRACT: note_on channel=9 note=54 velocity=0 time=0.05208333333333333
EXTRACT: note_on channel=9 note=69 velocity=0 time=0.015625
EXTRACT: note_on channel=7 note=69 velocity=0 time=0.015625
EXTRACT: note_on channel=9 note=70 velocity=0 time=0.015625
EXTRACT: note_on channel=9 note=36 velocity=82 time=0.057291666666666664
EXTRACT: note_on channel=9 note=39 velocity=82 time=0
EXTRACT: note_on channel=9 note=40 velocity=80 time=0
EXTRACT: note_on channel=9 note=42 velocity=84 time=0
EXTRACT: note_on channel=9 note=54 velocity=61 time=0
EXTRACT: note_on channel=9 note=69 velocity=52 time=0
EXTRACT: note_on channel=9 note=70 velocity=89 time=0
EXTRACT: note_on channel=1 note=42 velocity=98 time=0
EXTRACT: note_on channel=7 note=71 velocity=88 time=0
EXTRACT: note_on channel=9 note=69 velocity=0 time=0.08333333333333333
EXTRACT: note_on channel=9 note=70 velocity=0 time=0.010416666666666666
EXTRACT: note_on channel=9 note=54 velocity=0 time=0.005208333333333333
EXTRACT: note_on channel=9 note=39 velocity=0 time=0.005208333333333333
EXTRACT: note_on channel=7 note=71 velocity=0 time=0
EXTRACT: note_on channel=9 note=40 velocity=0 time=0.005208333333333333
EXTRACT: note_on channel=9 note=42 velocity=0 time=0.041666666666666664
EXTRACT: note_on channel=9 note=54 velocity=52 time=0.005208333333333333
EXTRACT: note_on channel=9 note=70 velocity=71 time=0
EXTRACT: note_on channel=3 note=59 velocity=102 time=0
EXTRACT: note_on channel=3 note=59 velocity=0 time=0.08333333333333333
EXTRACT: note_on channel=9 note=54 velocity=0 time=0.010416666666666666
EXTRACT: note_on channel=9 note=70 velocity=0 time=0.005208333333333333
EXTRACT: note_on channel=9 note=42 velocity=52 time=0.057291666666666664
EXTRACT: note_on channel=9 note=54 velocity=46 time=0
EXTRACT: note_on channel=9 note=70 velocity=71 time=0
EXTRACT: note_on channel=3 note=59 velocity=94 time=0
EXTRACT: note_on channel=5 note=52 velocity=59 time=0
EXTRACT: note_on channel=5 note=57 velocity=58 time=0
EXTRACT: note_on channel=5 note=59 velocity=67 time=0
EXTRACT: note_on channel=5 note=62 velocity=63 time=0
EXTRACT: note_on channel=7 note=78 velocity=94 time=0
EXTRACT: note_on channel=9 note=54 velocity=0 time=0.06770833333333333
EXTRACT: note_on channel=9 note=70 velocity=0 time=0.015625
EXTRACT: note_on channel=3 note=59 velocity=0 time=0.005208333333333333
EXTRACT: note_on channel=2 note=62 velocity=0 time=0.010416666666666666
EXTRACT: note_on channel=9 note=42 velocity=0 time=0
EXTRACT: note_on channel=2 note=57 velocity=0 time=0.026041666666666664
EXTRACT: note_on channel=9 note=36 velocity=0 time=0.010416666666666666
EXTRACT: note_on channel=7 note=78 velocity=0 time=0.020833333333333332
EXTRACT: note_on channel=9 note=42 velocity=40 time=0
EXTRACT: note_on channel=9 note=54 velocity=57 time=0
EXTRACT: note_on channel=9 note=70 velocity=61 time=0
EXTRACT: note_on channel=3 note=59 velocity=95 time=0
EXTRACT: note_on channel=2 note=66 velocity=0 time=0.015625
EXTRACT: note_on channel=1 note=42 velocity=0 time=0.026041666666666664
EXTRACT: note_on channel=9 note=54 velocity=0 time=0.005208333333333333
EXTRACT: note_on channel=6 note=74 velocity=0 time=0.020833333333333332
EXTRACT: note_on channel=5 note=62 velocity=0 time=0.015625
EXTRACT: note_on channel=5 note=59 velocity=0 time=0.005208333333333333
EXTRACT: note_on channel=9 note=42 velocity=0 time=0.010416666666666666
EXTRACT: note_on channel=9 note=70 velocity=0 time=0
EXTRACT: note_on channel=3 note=59 velocity=0 time=0.005208333333333333
EXTRACT: note_on channel=5 note=57 velocity=0 time=0.015625
EXTRACT: note_on channel=5 note=52 velocity=0 time=0.005208333333333333
EXTRACT: note_on channel=9 note=36 velocity=83 time=0.03125
EXTRACT: note_on channel=9 note=42 velocity=77 time=0
EXTRACT: note_on channel=9 note=54 velocity=54 time=0
EXTRACT: note_on channel=9 note=70 velocity=90 time=0
EXTRACT: note_on channel=1 note=35 velocity=95 time=0
EXTRACT: note_on channel=2 note=57 velocity=82 time=0
EXTRACT: note_on channel=2 note=59 velocity=83 time=0
EXTRACT: note_on channel=2 note=64 velocity=87 time=0
EXTRACT: note_on channel=3 note=69 velocity=90 time=0
EXTRACT: note_on channel=4 note=57 velocity=68 time=0
EXTRACT: note_on channel=4 note=62 velocity=80 time=0
EXTRACT: note_on channel=4 note=66 velocity=74 time=0
EXTRACT: note_on channel=6 note=76 velocity=95 time=0
EXTRACT: note_on channel=9 note=54 velocity=0 time=0.09375
EXTRACT: note_on channel=9 note=70 velocity=0 time=0.005208333333333333
EXTRACT: note_on channel=9 note=54 velocity=38 time=0.057291666666666664
EXTRACT: note_on channel=9 note=70 velocity=70 time=0
EXTRACT: note_on channel=9 note=42 velocity=0 time=0.015625
EXTRACT: note_on channel=9 note=70 velocity=0 time=0.03125
EXTRACT: note_on channel=4 note=57 velocity=0 time=0.010416666666666666
EXTRACT: note_on channel=9 note=54 velocity=0 time=0.020833333333333332
EXTRACT: note_on channel=4 note=66 velocity=0 time=0.026041666666666664
EXTRACT: note_on channel=4 note=62 velocity=0 time=0.020833333333333332
EXTRACT: note_on channel=3 note=69 velocity=0 time=0.026041666666666664
EXTRACT: note_on channel=9 note=42 velocity=54 time=0.005208333333333333
EXTRACT: note_on channel=9 note=54 velocity=44 time=0
EXTRACT: note_on channel=9 note=69 velocity=71 time=0
EXTRACT: note_on channel=9 note=70 velocity=71 time=0
EXTRACT: note_on channel=3 note=66 velocity=95 time=0
EXTRACT: note_on channel=4 note=57 velocity=65 time=0
EXTRACT: note_on channel=4 note=61 velocity=75 time=0
EXTRACT: note_on channel=4 note=66 velocity=53 time=0
EXTRACT: note_on channel=7 note=74 velocity=95 time=0
EXTRACT: note_on channel=1 note=35 velocity=0 time=0.041666666666666664
EXTRACT: note_on channel=9 note=54 velocity=0 time=0.026041666666666664
EXTRACT: note_on channel=9 note=69 velocity=0 time=0
EXTRACT: note_on channel=9 note=70 velocity=0 time=0.015625
EXTRACT: note_on channel=7 note=74 velocity=0 time=0
EXTRACT: note_on channel=9 note=36 velocity=0 time=0.020833333333333332
EXTRACT: note_on channel=9 note=42 velocity=0 time=0.005208333333333333
EXTRACT: note_on channel=3 note=66 velocity=0 time=0.03645833333333333
EXTRACT: note_on channel=9 note=54 velocity=36 time=0.010416666666666666
EXTRACT: note_on channel=9 note=70 velocity=56 time=0
EXTRACT: note_on channel=9 note=54 velocity=0 time=0.05208333333333333
EXTRACT: note_on channel=9 note=70 velocity=0 time=0.046875
EXTRACT: note_on channel=9 note=36 velocity=84 time=0.057291666666666664
EXTRACT: note_on channel=9 note=39 velocity=84 time=0
EXTRACT: note_on channel=9 note=40 velocity=82 time=0
EXTRACT: note_on channel=9 note=42 velocity=79 time=0
EXTRACT: note_on channel=9 note=54 velocity=61 time=0
EXTRACT: note_on channel=9 note=70 velocity=87 time=0
EXTRACT: note_on channel=3 note=71 velocity=102 time=0
EXTRACT: note_on channel=9 note=40 velocity=0 time=0.06770833333333333
EXTRACT: note_on channel=9 note=70 velocity=0 time=0.026041666666666664
EXTRACT: note_on channel=9 note=39 velocity=0 time=0.005208333333333333
EXTRACT: note_on channel=9 note=54 velocity=0 time=0
EXTRACT: note_on channel=9 note=54 velocity=52 time=0.057291666666666664
EXTRACT: note_on channel=9 note=70 velocity=74 time=0
EXTRACT: note_on channel=7 note=71 velocity=93 time=0
EXTRACT: note_on channel=9 note=42 velocity=0 time=0.020833333333333332
EXTRACT: note_on channel=3 note=71 velocity=0 time=0.03645833333333333
EXTRACT: note_on channel=9 note=54 velocity=0 time=0.03645833333333333
EXTRACT: note_on channel=9 note=70 velocity=0 time=0.005208333333333333
EXTRACT: note_on channel=9 note=42 velocity=54 time=0.057291666666666664
EXTRACT: note_on channel=9 note=54 velocity=46 time=0
EXTRACT: note_on channel=9 note=69 velocity=64 time=0
EXTRACT: note_on channel=9 note=70 velocity=72 time=0
EXTRACT: note_on channel=1 note=30 velocity=78 time=0
EXTRACT: note_on channel=3 note=66 velocity=88 time=0
EXTRACT: note_on channel=9 note=69 velocity=0 time=0.0625
EXTRACT: note_on channel=9 note=54 velocity=0 time=0.005208333333333333
EXTRACT: note_on channel=9 note=70 velocity=0 time=0.015625
EXTRACT: note_on channel=7 note=71 velocity=0 time=0.015625
EXTRACT: note_on channel=9 note=36 velocity=0 time=0.010416666666666666
EXTRACT: note_on channel=9 note=42 velocity=0 time=0.005208333333333333
EXTRACT: note_on channel=3 note=66 velocity=0 time=0.03645833333333333
EXTRACT: note_on channel=9 note=54 velocity=57 time=0.005208333333333333
EXTRACT: note_on channel=9 note=70 velocity=66 time=0
EXTRACT: note_on channel=3 note=64 velocity=101 time=0
EXTRACT: note_on channel=2 note=59 velocity=0 time=0.041666666666666664
EXTRACT: note_on channel=2 note=64 velocity=0 time=0
EXTRACT: note_on channel=9 note=54 velocity=0 time=0.005208333333333333
EXTRACT: note_on channel=2 note=57 velocity=0 time=0.020833333333333332
EXTRACT: note_on channel=9 note=70 velocity=0 time=0.03125
EXTRACT: note_on channel=9 note=36 velocity=81 time=0.057291666666666664
EXTRACT: note_on channel=9 note=42 velocity=87 time=0
EXTRACT: note_on channel=9 note=54 velocity=54 time=0
EXTRACT: note_on channel=9 note=70 velocity=93 time=0
EXTRACT: note_on channel=1 note=33 velocity=83 time=0
EXTRACT: note_on channel=2 note=55 velocity=89 time=0
EXTRACT: note_on channel=2 note=59 velocity=80 time=0
EXTRACT: note_on channel=2 note=64 velocity=80 time=0
EXTRACT: note_on channel=7 note=69 velocity=95 time=0
EXTRACT: note_on channel=1 note=30 velocity=0 time=0.005208333333333333
EXTRACT: note_on channel=9 note=54 velocity=0 time=0.08854166666666666
EXTRACT: note_on channel=9 note=70 velocity=0 time=0.015625
EXTRACT: note_on channel=7 note=69 velocity=0 time=0
EXTRACT: note_on channel=9 note=42 velocity=0 time=0.041666666666666664
EXTRACT: note_on channel=9 note=54 velocity=38 time=0.005208333333333333
EXTRACT: note_on channel=9 note=70 velocity=59 time=0
EXTRACT: note_on channel=7 note=71 velocity=82 time=0
EXTRACT: note_on channel=9 note=54 velocity=0 time=0.078125
EXTRACT: note_on channel=7 note=71 velocity=0 time=0.005208333333333333
EXTRACT: note_on channel=9 note=70 velocity=0 time=0.010416666666666666
EXTRACT: note_on channel=9 note=42 velocity=46 time=0.0625
EXTRACT: note_on channel=9 note=54 velocity=44 time=0
EXTRACT: note_on channel=9 note=69 velocity=60 time=0
EXTRACT: note_on channel=9 note=70 velocity=78 time=0
EXTRACT: note_on channel=1 note=35 velocity=87 time=0
EXTRACT: note_on channel=7 note=71 velocity=87 time=0
EXTRACT: note_on channel=1 note=33 velocity=0 time=0.026041666666666664
EXTRACT: note_on channel=9 note=54 velocity=0 time=0.041666666666666664
EXTRACT: note_on channel=9 note=69 velocity=0 time=0.020833333333333332
EXTRACT: note_on channel=9 note=70 velocity=0 time=0.005208333333333333
EXTRACT: note_on channel=7 note=71 velocity=0 time=0.005208333333333333
EXTRACT: note_on channel=9 note=36 velocity=0 time=0.005208333333333333
EXTRACT: note_on channel=9 note=42 velocity=0 time=0.020833333333333332
EXTRACT: note_on channel=1 note=35 velocity=0 time=0.010416666666666666
EXTRACT: note_on channel=3 note=64 velocity=0 time=0.020833333333333332
EXTRACT: note_on channel=9 note=54 velocity=36 time=0
EXTRACT: note_on channel=9 note=69 velocity=55 time=0
EXTRACT: note_on channel=9 note=70 velocity=74 time=0
EXTRACT: note_on channel=7 note=69 velocity=86 time=0
EXTRACT: note_on channel=9 note=54 velocity=0 time=0.05208333333333333
EXTRACT: note_on channel=9 note=69 velocity=0 time=0.03125
EXTRACT: note_on channel=7 note=69 velocity=0 time=0
EXTRACT: note_on channel=9 note=70 velocity=0 time=0.005208333333333333
EXTRACT: note_on channel=9 note=36 velocity=82 time=0.06770833333333333
EXTRACT: note_on channel=9 note=39 velocity=82 time=0
EXTRACT: note_on channel=9 note=40 velocity=80 time=0
EXTRACT: note_on channel=9 note=42 velocity=78 time=0
EXTRACT: note_on channel=9 note=54 velocity=61 time=0
EXTRACT: note_on channel=9 note=69 velocity=50 time=0
EXTRACT: note_on channel=9 note=70 velocity=87 time=0
EXTRACT: note_on channel=1 note=35 velocity=93 time=0
EXTRACT: note_on channel=3 note=64 velocity=107 time=0
EXTRACT: note_on channel=7 note=71 velocity=91 time=0
EXTRACT: note_on channel=9 note=69 velocity=0 time=0.08854166666666666
EXTRACT: note_on channel=9 note=54 velocity=0 time=0.010416666666666666
EXTRACT: note_on channel=9 note=70 velocity=0 time=0
EXTRACT: note_on channel=9 note=39 velocity=0 time=0.005208333333333333
EXTRACT: note_on channel=9 note=40 velocity=0 time=0.005208333333333333
EXTRACT: note_on channel=7 note=71 velocity=0 time=0.03645833333333333
EXTRACT: note_on channel=9 note=42 velocity=0 time=0.005208333333333333
EXTRACT: note_on channel=1 note=35 velocity=0 time=0
EXTRACT: note_on channel=9 note=54 velocity=52 time=0.005208333333333333
EXTRACT: note_on channel=9 note=70 velocity=74 time=0
EXTRACT: note_on channel=1 note=33 velocity=74 time=0
EXTRACT: note_on channel=7 note=71 velocity=88 time=0
EXTRACT: note_on channel=4 note=57 velocity=0 time=0.041666666666666664
EXTRACT: note_on channel=4 note=66 velocity=0 time=0
EXTRACT: note_on channel=4 note=61 velocity=0 time=0.005208333333333333
EXTRACT: note_on channel=9 note=54 velocity=0 time=0.046875
EXTRACT: note_on channel=9 note=70 velocity=0 time=0
EXTRACT: note_on channel=7 note=71 velocity=0 time=0.010416666666666666
EXTRACT: note_on channel=3 note=64 velocity=0 time=0.041666666666666664
EXTRACT: note_on channel=1 note=33 velocity=0 time=0.005208333333333333
EXTRACT: note_on channel=9 note=46 velocity=49 time=0.005208333333333333
EXTRACT: note_on channel=9 note=54 velocity=46 time=0
EXTRACT: note_on channel=9 note=70 velocity=58 time=0
EXTRACT: note_on channel=1 note=29 velocity=82 time=0
EXTRACT: note_on channel=3 note=62 velocity=98 time=0
EXTRACT: note_on channel=4 note=54 velocity=61 time=0
EXTRACT: note_on channel=4 note=59 velocity=62 time=0
EXTRACT: note_on channel=4 note=62 velocity=65 time=0
EXTRACT: note_on channel=4 note=66 velocity=38 time=0
EXTRACT: note_on channel=7 note=74 velocity=94 time=0
EXTRACT: note_on channel=6 note=76 velocity=0 time=0.046875
EXTRACT: note_on channel=9 note=54 velocity=0 time=0.020833333333333332
EXTRACT: note_on channel=9 note=46 velocity=0 time=0.026041666666666664
EXTRACT: note_on channel=9 note=70 velocity=0 time=0.005208333333333333
EXTRACT: note_on channel=1 note=29 velocity=0 time=0.026041666666666664
EXTRACT: note_on channel=2 note=59 velocity=0 time=0.005208333333333333
EXTRACT: note_on channel=9 note=54 velocity=57 time=0.026041666666666664
EXTRACT: note_on channel=9 note=70 velocity=61 time=0
EXTRACT: note_on channel=1 note=30 velocity=80 time=0
EXTRACT: note_on channel=7 note=74 velocity=0 time=0.005208333333333333
EXTRACT: note_on channel=2 note=64 velocity=0 time=0.010416666666666666
EXTRACT: note_on channel=9 note=36 velocity=0 time=0.005208333333333333
EXTRACT: note_on channel=2 note=55 velocity=0 time=0.010416666666666666
EXTRACT: note_on channel=9 note=54 velocity=0 time=0.015625
EXTRACT: note_on channel=9 note=70 velocity=0 time=0.041666666666666664
EXTRACT: note_on channel=1 note=30 velocity=0 time=0.020833333333333332
EXTRACT: note_on channel=3 note=62 velocity=0 time=0.03125
EXTRACT: note_on channel=9 note=36 velocity=77 time=0.015625
EXTRACT: note_on channel=9 note=42 velocity=88 time=0
EXTRACT: note_on channel=9 note=54 velocity=54 time=0
EXTRACT: note_on channel=9 note=70 velocity=87 time=0
EXTRACT: note_on channel=1 note=35 velocity=103 time=0
EXTRACT: note_on channel=2 note=54 velocity=87 time=0
EXTRACT: note_on channel=2 note=59 velocity=81 time=0
EXTRACT: note_on channel=2 note=62 velocity=83 time=0
EXTRACT: note_on channel=3 note=66 velocity=95 time=0
EXTRACT: note_on channel=5 note=57 velocity=63 time=0
EXTRACT: note_on channel=5 note=59 velocity=67 time=0
EXTRACT: note_on channel=5 note=62 velocity=66 time=0
EXTRACT: note_on channel=6 note=66 velocity=87 time=0
EXTRACT: note_on channel=10 note=81 velocity=71 time=0
EXTRACT: note_on channel=9 note=70 velocity=0 time=0.08333333333333333
EXTRACT: note_on channel=9 note=54 velocity=0 time=0.010416666666666666
EXTRACT: note_on channel=9 note=42 velocity=0 time=0.010416666666666666
EXTRACT: note_on channel=9 note=54 velocity=38 time=0.05208333333333333
EXTRACT: note_on channel=9 note=70 velocity=63 time=0
EXTRACT: note_on channel=5 note=59 velocity=0 time=0.046875
EXTRACT: note_on channel=5 note=62 velocity=0 time=0
EXTRACT: note_on channel=9 note=54 velocity=0 time=0.03125
EXTRACT: note_on channel=5 note=57 velocity=0 time=0.020833333333333332
EXTRACT: note_on channel=9 note=70 velocity=0 time=0.005208333333333333
EXTRACT: note_on channel=9 note=42 velocity=46 time=0.05208333333333333
EXTRACT: note_on channel=9 note=54 velocity=44 time=0
EXTRACT: note_on channel=9 note=69 velocity=68 time=0
EXTRACT: note_on channel=9 note=70 velocity=46 time=0
EXTRACT: note_on channel=6 note=71 velocity=76 time=0
EXTRACT: note_on channel=7 note=74 velocity=95 time=0
EXTRACT: note_on channel=9 note=70 velocity=0 time=0.046875
EXTRACT: note_on channel=9 note=69 velocity=0 time=0.010416666666666666
EXTRACT: note_on channel=9 note=54 velocity=0 time=0.010416666666666666
EXTRACT: note_on channel=9 note=42 velocity=0 time=0.015625
EXTRACT: note_on channel=7 note=74 velocity=0 time=0
EXTRACT: note_on channel=9 note=36 velocity=0 time=0.041666666666666664
EXTRACT: note_on channel=1 note=35 velocity=0 time=0
EXTRACT: note_on channel=9 note=54 velocity=36 time=0.03125
EXTRACT: note_on channel=9 note=70 velocity=61 time=0
EXTRACT: note_on channel=4 note=59 velocity=0 time=0.020833333333333332
EXTRACT: note_on channel=4 note=54 velocity=0 time=0.020833333333333332
EXTRACT: note_on channel=4 note=62 velocity=0 time=0.010416666666666666
EXTRACT: note_on channel=9 note=54 velocity=0 time=0
EXTRACT: note_on channel=4 note=66 velocity=0 time=0.026041666666666664
EXTRACT: note_on channel=3 note=66 velocity=0 time=0.005208333333333333
EXTRACT: note_on channel=9 note=70 velocity=0 time=0.010416666666666666
EXTRACT: note_on channel=9 note=36 velocity=81 time=0.0625
EXTRACT: note_on channel=9 note=39 velocity=84 time=0
EXTRACT: note_on channel=9 note=40 velocity=82 time=0
EXTRACT: note_on channel=9 note=42 velocity=91 time=0
EXTRACT: note_on channel=9 note=54 velocity=61 time=0
EXTRACT: note_on channel=9 note=70 velocity=91 time=0
EXTRACT: note_on channel=3 note=62 velocity=95 time=0
EXTRACT: note_on channel=9 note=40 velocity=0 time=0.06770833333333333
EXTRACT: note_on channel=9 note=70 velocity=0 time=0.020833333333333332
EXTRACT: note_on channel=3 note=62 velocity=0 time=0.005208333333333333
EXTRACT: note_on channel=9 note=39 velocity=0 time=0.005208333333333333
EXTRACT: note_on channel=9 note=54 velocity=0 time=0
EXTRACT: note_on channel=9 note=42 velocity=0 time=0.03645833333333333
EXTRACT: note_on channel=9 note=54 velocity=52 time=0.020833333333333332
EXTRACT: note_on channel=9 note=70 velocity=63 time=0
EXTRACT: note_on channel=7 note=71 velocity=93 time=0
EXTRACT: note_on channel=9 note=70 velocity=0 time=0.08854166666666666
EXTRACT: note_on channel=9 note=54 velocity=0 time=0.005208333333333333
EXTRACT: note_on channel=9 note=42 velocity=46 time=0.0625
EXTRACT: note_on channel=9 note=54 velocity=46 time=0
EXTRACT: note_on channel=9 note=70 velocity=80 time=0
EXTRACT: note_on channel=3 note=59 velocity=101 time=0
EXTRACT: note_on channel=6 note=78 velocity=74 time=0
EXTRACT: note_on channel=9 note=54 velocity=0 time=0.06770833333333333
EXTRACT: note_on channel=9 note=70 velocity=0 time=0.010416666666666666
EXTRACT: note_on channel=7 note=71 velocity=0 time=0.020833333333333332
EXTRACT: note_on channel=9 note=42 velocity=0 time=0.015625
EXTRACT: note_on channel=9 note=36 velocity=0 time=0.010416666666666666
EXTRACT: note_on channel=2 note=62 velocity=0 time=0.020833333333333332
EXTRACT: note_on channel=9 note=54 velocity=57 time=0.010416666666666666
EXTRACT: note_on channel=9 note=70 velocity=62 time=0
EXTRACT: note_on channel=2 note=59 velocity=0 time=0.015625
EXTRACT: note_on channel=9 note=54 velocity=0 time=0.03125
EXTRACT: note_on channel=2 note=54 velocity=0 time=0.020833333333333332
EXTRACT: note_on channel=9 note=70 velocity=0 time=0.026041666666666664
EXTRACT: note_on channel=9 note=36 velocity=78 time=0.0625
EXTRACT: note_on channel=9 note=42 velocity=80 time=0
EXTRACT: note_on channel=9 note=54 velocity=54 time=0
EXTRACT: note_on channel=9 note=70 velocity=88 time=0
EXTRACT: note_on channel=2 note=57 velocity=84 time=0
EXTRACT: note_on channel=2 note=61 velocity=81 time=0
EXTRACT: note_on channel=2 note=64 velocity=83 time=0
EXTRACT: note_on channel=7 note=69 velocity=95 time=0
EXTRACT: note_on channel=9 note=54 velocity=0 time=0.09375
EXTRACT: note_on channel=6 note=66 velocity=0 time=0.005208333333333333
EXTRACT: note_on channel=9 note=70 velocity=0 time=0
EXTRACT: note_on channel=6 note=71 velocity=0 time=0.010416666666666666
EXTRACT: note_on channel=6 note=78 velocity=0 time=0
EXTRACT: note_on channel=7 note=69 velocity=0 time=0
EXTRACT: note_on channel=9 note=42 velocity=0 time=0.020833333333333332
EXTRACT: note_on channel=9 note=54 velocity=38 time=0.026041666666666664
EXTRACT: note_on channel=9 note=70 velocity=66 time=0
EXTRACT: note_on channel=7 note=71 velocity=82 time=0
EXTRACT: note_on channel=9 note=70 velocity=0 time=0.07291666666666666
EXTRACT: note_on channel=9 note=54 velocity=0 time=0.005208333333333333
EXTRACT: note_on channel=7 note=71 velocity=0 time=0.005208333333333333
EXTRACT: note_on channel=9 note=42 velocity=50 time=0.07291666666666666
EXTRACT: note_on channel=9 note=54 velocity=44 time=0
EXTRACT: note_on channel=9 note=69 velocity=61 time=0
EXTRACT: note_on channel=9 note=70 velocity=61 time=0
EXTRACT: note_on channel=7 note=71 velocity=87 time=0
EXTRACT: note_on channel=9 note=54 velocity=0 time=0.06770833333333333
EXTRACT: note_on channel=9 note=70 velocity=0 time=0
EXTRACT: note_on channel=9 note=69 velocity=0 time=0.005208333333333333
EXTRACT: note_on channel=9 note=42 velocity=0 time=0.026041666666666664
EXTRACT: note_on channel=7 note=71 velocity=0 time=0
EXTRACT: note_on channel=9 note=36 velocity=0 time=0.020833333333333332
EXTRACT: note_on channel=9 note=54 velocity=36 time=0.03645833333333333
EXTRACT: note_on channel=9 note=69 velocity=48 time=0
EXTRACT: note_on channel=9 note=70 velocity=58 time=0
EXTRACT: note_on channel=7 note=69 velocity=86 time=0
EXTRACT: note_on channel=9 note=54 velocity=0 time=0.05208333333333333
EXTRACT: note_on channel=9 note=69 velocity=0 time=0.015625
EXTRACT: note_on channel=7 note=69 velocity=0 time=0.015625
EXTRACT: note_on channel=9 note=70 velocity=0 time=0.015625
EXTRACT: note_on channel=9 note=36 velocity=82 time=0.057291666666666664
EXTRACT: note_on channel=9 note=39 velocity=82 time=0
EXTRACT: note_on channel=9 note=40 velocity=80 time=0
EXTRACT: note_on channel=9 note=42 velocity=84 time=0
EXTRACT: note_on channel=9 note=54 velocity=61 time=0
EXTRACT: note_on channel=9 note=69 velocity=52 time=0
EXTRACT: note_on channel=9 note=70 velocity=89 time=0
EXTRACT: note_on channel=1 note=42 velocity=97 time=0
EXTRACT: note_on channel=6 note=79 velocity=98 time=0
EXTRACT: note_on channel=7 note=71 velocity=88 time=0
EXTRACT: note_on channel=9 note=69 velocity=0 time=0.08333333333333333
EXTRACT: note_on channel=9 note=70 velocity=0 time=0.010416666666666666
EXTRACT: note_on channel=9 note=54 velocity=0 time=0.005208333333333333
EXTRACT: note_on channel=9 note=39 velocity=0 time=0.005208333333333333
EXTRACT: note_on channel=7 note=71 velocity=0 time=0
EXTRACT: note_on channel=9 note=40 velocity=0 time=0.005208333333333333
EXTRACT: note_on channel=9 note=42 velocity=0 time=0.041666666666666664
EXTRACT: note_on channel=9 note=54 velocity=52 time=0.005208333333333333
EXTRACT: note_on channel=9 note=70 velocity=71 time=0
EXTRACT: note_on channel=9 note=54 velocity=0 time=0.09375
EXTRACT: note_on channel=9 note=70 velocity=0 time=0.005208333333333333
EXTRACT: note_on channel=9 note=42 velocity=52 time=0.057291666666666664
EXTRACT: note_on channel=9 note=54 velocity=46 time=0
EXTRACT: note_on channel=9 note=70 velocity=71 time=0
EXTRACT: note_on channel=5 note=52 velocity=59 time=0
EXTRACT: note_on channel=5 note=57 velocity=58 time=0
EXTRACT: note_on channel=5 note=59 velocity=67 time=0
EXTRACT: note_on channel=5 note=62 velocity=63 time=0
EXTRACT: note_on channel=7 note=78 velocity=94 time=0
EXTRACT: note_on channel=9 note=54 velocity=0 time=0.06770833333333333
EXTRACT: note_on channel=9 note=70 velocity=0 time=0.015625
EXTRACT: note_on channel=9 note=42 velocity=0 time=0.015625
EXTRACT: note_on channel=9 note=36 velocity=0 time=0.03645833333333333
EXTRACT: note_on channel=7 note=78 velocity=0 time=0.020833333333333332
EXTRACT: note_on channel=9 note=42 velocity=40 time=0
EXTRACT: note_on channel=9 note=54 velocity=57 time=0
EXTRACT: note_on channel=9 note=70 velocity=61 time=0
EXTRACT: note_on channel=1 note=42 velocity=0 time=0.041666666666666664
EXTRACT: note_on channel=9 note=54 velocity=0 time=0.005208333333333333
EXTRACT: note_on channel=2 note=61 velocity=0 time=0.03125
EXTRACT: note_on channel=5 note=62 velocity=0 time=0.005208333333333333
EXTRACT: note_on channel=5 note=59 velocity=0 time=0.005208333333333333
EXTRACT: note_on channel=2 note=64 velocity=0 time=0.005208333333333333
EXTRACT: note_on channel=2 note=57 velocity=0 time=0.005208333333333333
EXTRACT: note_on channel=9 note=42 velocity=0 time=0
EXTRACT: note_on channel=9 note=70 velocity=0 time=0
EXTRACT: note_on channel=6 note=79 velocity=0 time=0.010416666666666666
EXTRACT: note_on channel=5 note=57 velocity=0 time=0.010416666666666666
EXTRACT: note_on channel=5 note=52 velocity=0 time=0.005208333333333333
EXTRACT: note_on channel=9 note=36 velocity=83 time=0.03125
EXTRACT: note_on channel=9 note=42 velocity=77 time=0
EXTRACT: note_on channel=9 note=54 velocity=54 time=0
EXTRACT: note_on channel=9 note=70 velocity=90 time=0
EXTRACT: note_on channel=1 note=35 velocity=94 time=0
EXTRACT: note_on channel=2 note=54 velocity=75 time=0
EXTRACT: note_on channel=2 note=59 velocity=81 time=0
EXTRACT: note_on channel=2 note=62 velocity=84 time=0
EXTRACT: note_on channel=4 note=57 velocity=63 time=0
EXTRACT: note_on channel=4 note=69 velocity=70 time=0
EXTRACT: note_on channel=6 note=78 velocity=96 time=0
EXTRACT: note_on channel=9 note=54 velocity=0 time=0.09375
EXTRACT: note_on channel=9 note=70 velocity=0 time=0.005208333333333333
EXTRACT: note_on channel=9 note=54 velocity=38 time=0.057291666666666664
EXTRACT: note_on channel=9 note=70 velocity=70 time=0
EXTRACT: note_on channel=9 note=42 velocity=0 time=0.015625
EXTRACT: note_on channel=9 note=70 velocity=0 time=0.03125
EXTRACT: note_on channel=9 note=54 velocity=0 time=0.03125
EXTRACT: note_on channel=9 note=42 velocity=54 time=0.078125
EXTRACT: note_on channel=9 note=54 velocity=44 time=0
EXTRACT: note_on channel=9 note=69 velocity=71 time=0
EXTRACT: note_on channel=9 note=70 velocity=71 time=0
EXTRACT: note_on channel=4 note=55 velocity=59 time=0
EXTRACT: note_on channel=4 note=67 velocity=69 time=0
EXTRACT: note_on channel=7 note=74 velocity=95 time=0
EXTRACT: note_on channel=4 note=57 velocity=0 time=0.03125
EXTRACT: note_on channel=4 note=69 velocity=0 time=0.005208333333333333
EXTRACT: note_on channel=3 note=59 velocity=0 time=0.005208333333333333
EXTRACT: note_on channel=9 note=54 velocity=0 time=0.026041666666666664
EXTRACT: note_on channel=9 note=69 velocity=0 time=0
EXTRACT: note_on channel=9 note=70 velocity=0 time=0.015625
EXTRACT: note_on channel=7 note=74 velocity=0 time=0
EXTRACT: note_on channel=1 note=35 velocity=0 time=0.005208333333333333
EXTRACT: note_on channel=4 note=55 velocity=0 time=0.010416666666666666
EXTRACT: note_on channel=9 note=36 velocity=0 time=0.005208333333333333
EXTRACT: note_on channel=9 note=42 velocity=0 time=0.005208333333333333
EXTRACT: note_on channel=9 note=54 velocity=36 time=0.046875
EXTRACT: note_on channel=9 note=70 velocity=56 time=0
EXTRACT: note_on channel=4 note=67 velocity=0 time=0.03125
EXTRACT: note_on channel=9 note=54 velocity=0 time=0.020833333333333332
EXTRACT: note_on channel=9 note=70 velocity=0 time=0.046875
EXTRACT: note_on channel=9 note=36 velocity=84 time=0.057291666666666664
EXTRACT: note_on channel=9 note=39 velocity=84 time=0
EXTRACT: note_on channel=9 note=40 velocity=82 time=0
EXTRACT: note_on channel=9 note=42 velocity=79 time=0
EXTRACT: note_on channel=9 note=54 velocity=61 time=0
EXTRACT: note_on channel=9 note=70 velocity=87 time=0
EXTRACT: note_on channel=4 note=55 velocity=65 time=0
EXTRACT: note_on channel=4 note=67 velocity=70 time=0
EXTRACT: note_on channel=9 note=40 velocity=0 time=0.06770833333333333
EXTRACT: note_on channel=9 note=70 velocity=0 time=0.026041666666666664
EXTRACT: note_on channel=9 note=39 velocity=0 time=0.005208333333333333
EXTRACT: note_on channel=9 note=54 velocity=0 time=0
EXTRACT: note_on channel=9 note=54 velocity=52 time=0.057291666666666664
EXTRACT: note_on channel=9 note=70 velocity=74 time=0
EXTRACT: note_on channel=7 note=71 velocity=93 time=0
EXTRACT: note_on channel=9 note=42 velocity=0 time=0.020833333333333332
EXTRACT: note_on channel=9 note=54 velocity=0 time=0.07291666666666666
EXTRACT: note_on channel=9 note=70 velocity=0 time=0.005208333333333333
EXTRACT: note_on channel=4 note=55 velocity=0 time=0.020833333333333332
EXTRACT: note_on channel=4 note=67 velocity=0 time=0.026041666666666664
EXTRACT: note_on channel=9 note=42 velocity=54 time=0.010416666666666666
EXTRACT: note_on channel=9 note=54 velocity=46 time=0
EXTRACT: note_on channel=9 note=69 velocity=64 time=0
EXTRACT: note_on channel=9 note=70 velocity=72 time=0
EXTRACT: note_on channel=1 note=33 velocity=98 time=0
EXTRACT: note_on channel=4 note=54 velocity=53 time=0
EXTRACT: note_on channel=4 note=66 velocity=61 time=0
EXTRACT: note_on channel=9 note=69 velocity=0 time=0.0625
EXTRACT: note_on channel=9 note=54 velocity=0 time=0.005208333333333333
EXTRACT: note_on channel=9 note=70 velocity=0 time=0.015625
EXTRACT: note_on channel=7 note=71 velocity=0 time=0.015625
EXTRACT: note_on channel=9 note=36 velocity=0 time=0.010416666666666666
EXTRACT: note_on channel=9 note=42 velocity=0 time=0.005208333333333333
EXTRACT: note_on channel=4 note=54 velocity=0 time=0.020833333333333332
EXTRACT: note_on channel=4 note=66 velocity=0 time=0.015625
EXTRACT: note_on channel=9 note=54 velocity=57 time=0.005208333333333333
EXTRACT: note_on channel=9 note=70 velocity=66 time=0
EXTRACT: note_on channel=9 note=54 velocity=0 time=0.046875
EXTRACT: note_on channel=9 note=70 velocity=0 time=0.05208333333333333
EXTRACT: note_on channel=1 note=33 velocity=0 time=0.05208333333333333
EXTRACT: note_on channel=9 note=36 velocity=81 time=0.005208333333333333
EXTRACT: note_on channel=9 note=42 velocity=87 time=0
EXTRACT: note_on channel=9 note=54 velocity=54 time=0
EXTRACT: note_on channel=9 note=70 velocity=93 time=0
EXTRACT: note_on channel=1 note=35 velocity=98 time=0
EXTRACT: note_on channel=4 note=54 velocity=58 time=0
EXTRACT: note_on channel=4 note=66 velocity=61 time=0
EXTRACT: note_on channel=7 note=69 velocity=95 time=0
EXTRACT: note_on channel=9 note=54 velocity=0 time=0.09375
EXTRACT: note_on channel=9 note=70 velocity=0 time=0.015625
EXTRACT: note_on channel=7 note=69 velocity=0 time=0
EXTRACT: note_on channel=9 note=42 velocity=0 time=0.041666666666666664
EXTRACT: note_on channel=9 note=54 velocity=38 time=0.005208333333333333
EXTRACT: note_on channel=9 note=70 velocity=59 time=0
EXTRACT: note_on channel=7 note=71 velocity=82 time=0
EXTRACT: note_on channel=9 note=54 velocity=0 time=0.078125
EXTRACT: note_on channel=7 note=71 velocity=0 time=0.005208333333333333
EXTRACT: note_on channel=9 note=70 velocity=0 time=0.010416666666666666
EXTRACT: note_on channel=1 note=35 velocity=0 time=0.057291666666666664
EXTRACT: note_on channel=9 note=42 velocity=46 time=0.005208333333333333
EXTRACT: note_on channel=9 note=54 velocity=44 time=0
EXTRACT: note_on channel=9 note=69 velocity=60 time=0
EXTRACT: note_on channel=9 note=70 velocity=78 time=0
EXTRACT: note_on channel=4 note=52 velocity=52 time=0
EXTRACT: note_on channel=4 note=64 velocity=61 time=0
EXTRACT: note_on channel=7 note=71 velocity=87 time=0
EXTRACT: note_on channel=4 note=54 velocity=0 time=0.015625
EXTRACT: note_on channel=4 note=66 velocity=0 time=0.03125
EXTRACT: note_on channel=9 note=54 velocity=0 time=0.020833333333333332
EXTRACT: note_on channel=9 note=69 velocity=0 time=0.020833333333333332
EXTRACT: note_on channel=9 note=70 velocity=0 time=0.005208333333333333
EXTRACT: note_on channel=7 note=71 velocity=0 time=0.005208333333333333
EXTRACT: note_on channel=9 note=36 velocity=0 time=0.005208333333333333
EXTRACT: note_on channel=2 note=54 velocity=0 time=0.020833333333333332
EXTRACT: note_on channel=9 note=42 velocity=0 time=0
EXTRACT: note_on channel=2 note=62 velocity=0 time=0.020833333333333332
EXTRACT: note_on channel=2 note=59 velocity=0 time=0.005208333333333333
EXTRACT: note_on channel=9 note=54 velocity=36 time=0.005208333333333333
EXTRACT: note_on channel=9 note=69 velocity=55 time=0
EXTRACT: note_on channel=9 note=70 velocity=74 time=0
EXTRACT: note_on channel=7 note=69 velocity=86 time=0
EXTRACT: note_on channel=9 note=54 velocity=0 time=0.05208333333333333
EXTRACT: note_on channel=9 note=69 velocity=0 time=0.03125
EXTRACT: note_on channel=7 note=69 velocity=0 time=0
EXTRACT: note_on channel=9 note=70 velocity=0 time=0.005208333333333333
EXTRACT: note_on channel=9 note=36 velocity=82 time=0.06770833333333333
EXTRACT: note_on channel=9 note=39 velocity=82 time=0
EXTRACT: note_on channel=9 note=40 velocity=80 time=0
EXTRACT: note_on channel=9 note=42 velocity=78 time=0
EXTRACT: note_on channel=9 note=54 velocity=61 time=0
EXTRACT: note_on channel=9 note=69 velocity=50 time=0
EXTRACT: note_on channel=9 note=70 velocity=87 time=0
EXTRACT: note_on channel=7 note=71 velocity=88 time=0
EXTRACT: note_on channel=9 note=69 velocity=0 time=0.08854166666666666
EXTRACT: note_on channel=9 note=54 velocity=0 time=0.010416666666666666
EXTRACT: note_on channel=9 note=70 velocity=0 time=0
EXTRACT: note_on channel=9 note=39 velocity=0 time=0.005208333333333333
EXTRACT: note_on channel=7 note=71 velocity=0 time=0
EXTRACT: note_on channel=9 note=40 velocity=0 time=0.005208333333333333
EXTRACT: note_on channel=6 note=78 velocity=0 time=0.015625
EXTRACT: note_on channel=9 note=42 velocity=0 time=0.026041666666666664
EXTRACT: note_on channel=9 note=54 velocity=52 time=0.005208333333333333
EXTRACT: note_on channel=9 note=70 velocity=74 time=0
EXTRACT: note_on channel=9 note=54 velocity=0 time=0.09375
EXTRACT: note_on channel=9 note=70 velocity=0 time=0
EXTRACT: note_on channel=9 note=46 velocity=49 time=0.0625
EXTRACT: note_on channel=9 note=54 velocity=46 time=0
EXTRACT: note_on channel=9 note=70 velocity=58 time=0
EXTRACT: note_on channel=1 note=33 velocity=103 time=0
EXTRACT: note_on channel=7 note=78 velocity=94 time=0
EXTRACT: note_on channel=9 note=54 velocity=0 time=0.06770833333333333
EXTRACT: note_on channel=9 note=46 velocity=0 time=0.026041666666666664
EXTRACT: note_on channel=9 note=70 velocity=0 time=0.005208333333333333
EXTRACT: note_on channel=7 note=78 velocity=0 time=0.057291666666666664
EXTRACT: note_on channel=9 note=54 velocity=57 time=0
EXTRACT: note_on channel=9 note=70 velocity=61 time=0
EXTRACT: note_on channel=1 note=34 velocity=85 time=0
EXTRACT: note_on channel=9 note=36 velocity=0 time=0.020833333333333332
EXTRACT: note_on channel=1 note=33 velocity=0 time=0.015625
EXTRACT: note_on channel=9 note=54 velocity=0 time=0.010416666666666666
EXTRACT: note_on channel=9 note=70 velocity=0 time=0.041666666666666664
EXTRACT: note_on channel=4 note=64 velocity=0 time=0.03645833333333333
EXTRACT: note_on channel=1 note=34 velocity=0 time=0.010416666666666666
EXTRACT: note_on channel=4 note=52 velocity=0 time=0.015625
EXTRACT: note_on channel=9 note=36 velocity=77 time=0.005208333333333333
EXTRACT: note_on channel=9 note=42 velocity=88 time=0
EXTRACT: note_on channel=9 note=54 velocity=54 time=0
EXTRACT: note_on channel=9 note=70 velocity=87 time=0
EXTRACT: note_on channel=1 note=35 velocity=102 time=0
EXTRACT: note_on channel=2 note=57 velocity=83 time=0
EXTRACT: note_on channel=2 note=62 velocity=81 time=0
EXTRACT: note_on channel=2 note=66 velocity=78 time=0
EXTRACT: note_on channel=3 note=59 velocity=105 time=0
EXTRACT: note_on channel=5 note=57 velocity=63 time=0
EXTRACT: note_on channel=5 note=59 velocity=67 time=0
EXTRACT: note_on channel=5 note=62 velocity=66 time=0
EXTRACT: note_on channel=9 note=70 velocity=0 time=0.08333333333333333
EXTRACT: note_on channel=9 note=54 velocity=0 time=0.010416666666666666
EXTRACT: note_on channel=9 note=42 velocity=0 time=0.010416666666666666
EXTRACT: note_on channel=3 note=59 velocity=0 time=0.046875
EXTRACT: note_on channel=9 note=54 velocity=38 time=0.005208333333333333
EXTRACT: note_on channel=9 note=70 velocity=63 time=0
EXTRACT: note_on channel=5 note=59 velocity=0 time=0.046875
EXTRACT: note_on channel=5 note=62 velocity=0 time=0
EXTRACT: note_on channel=9 note=54 velocity=0 time=0.03125
EXTRACT: note_on channel=5 note=57 velocity=0 time=0.020833333333333332
EXTRACT: note_on channel=9 note=70 velocity=0 time=0.005208333333333333
EXTRACT: note_on channel=9 note=42 velocity=46 time=0.05208333333333333
EXTRACT: note_on channel=9 note=54 velocity=44 time=0
EXTRACT: note_on channel=9 note=69 velocity=68 time=0
EXTRACT: note_on channel=9 note=70 velocity=46 time=0
EXTRACT: note_on channel=3 note=59 velocity=101 time=0
EXTRACT: note_on channel=6 note=69 velocity=87 time=0
EXTRACT: note_on channel=7 note=74 velocity=95 time=0
EXTRACT: note_on channel=1 note=35 velocity=0 time=0.026041666666666664
EXTRACT: note_on channel=9 note=70 velocity=0 time=0.020833333333333332
EXTRACT: note_on channel=9 note=69 velocity=0 time=0.010416666666666666
EXTRACT: note_on channel=9 note=54 velocity=0 time=0.010416666666666666
EXTRACT: note_on channel=9 note=42 velocity=0 time=0.015625
EXTRACT: note_on channel=7 note=74 velocity=0 time=0
EXTRACT: note_on channel=9 note=36 velocity=0 time=0.041666666666666664
EXTRACT: note_on channel=9 note=54 velocity=36 time=0.03125
EXTRACT: note_on channel=9 note=70 velocity=61 time=0
EXTRACT: note_on channel=9 note=54 velocity=0 time=0.05208333333333333
EXTRACT: note_on channel=9 note=70 velocity=0 time=0.041666666666666664
EXTRACT: note_on channel=3 note=59 velocity=0 time=0.03125
EXTRACT: note_on channel=6 note=69 velocity=0 time=0.015625
EXTRACT: note_on channel=9 note=36 velocity=81 time=0.015625
EXTRACT: note_on channel=9 note=39 velocity=84 time=0
EXTRACT: note_on channel=9 note=40 velocity=82 time=0
EXTRACT: note_on channel=9 note=42 velocity=91 time=0
EXTRACT: note_on channel=9 note=54 velocity=61 time=0
EXTRACT: note_on channel=9 note=70 velocity=91 time=0
EXTRACT: note_on channel=3 note=69 velocity=101 time=0
EXTRACT: note_on channel=6 note=71 velocity=83 time=0
EXTRACT: note_on channel=9 note=40 velocity=0 time=0.06770833333333333
EXTRACT: note_on channel=9 note=70 velocity=0 time=0.020833333333333332
EXTRACT: note_on channel=9 note=39 velocity=0 time=0.010416666666666666
EXTRACT: note_on channel=9 note=54 velocity=0 time=0
EXTRACT: note_on channel=9 note=42 velocity=0 time=0.03645833333333333
EXTRACT: note_on channel=6 note=71 velocity=0 time=0.015625
EXTRACT: note_on channel=9 note=54 velocity=52 time=0.005208333333333333
EXTRACT: note_on channel=9 note=70 velocity=63 time=0
EXTRACT: note_on channel=7 note=71 velocity=93 time=0
EXTRACT: note_on channel=9 note=70 velocity=0 time=0.08854166666666666
EXTRACT: note_on channel=9 note=54 velocity=0 time=0.005208333333333333
EXTRACT: note_on channel=3 note=69 velocity=0 time=0.057291666666666664
EXTRACT: note_on channel=9 note=42 velocity=46 time=0.005208333333333333
EXTRACT: note_on channel=9 note=54 velocity=46 time=0
EXTRACT: note_on channel=9 note=70 velocity=80 time=0
EXTRACT: note_on channel=3 note=67 velocity=96 time=0
EXTRACT: note_on channel=6 note=74 velocity=91 time=0
EXTRACT: note_on channel=9 note=54 velocity=0 time=0.06770833333333333
EXTRACT: note_on channel=9 note=70 velocity=0 time=0.010416666666666666
EXTRACT: note_on channel=7 note=71 velocity=0 time=0.020833333333333332
EXTRACT: note_on channel=9 note=42 velocity=0 time=0.015625
EXTRACT: note_on channel=9 note=36 velocity=0 time=0.010416666666666666
EXTRACT: note_on channel=9 note=54 velocity=57 time=0.03125
EXTRACT: note_on channel=9 note=70 velocity=62 time=0
EXTRACT: note_on channel=9 note=54 velocity=0 time=0.046875
EXTRACT: note_on channel=3 note=67 velocity=0 time=0.020833333333333332
EXTRACT: note_on channel=9 note=70 velocity=0 time=0.026041666666666664
EXTRACT: note_on channel=9 note=36 velocity=78 time=0.0625
EXTRACT: note_on channel=9 note=42 velocity=80 time=0
EXTRACT: note_on channel=9 note=54 velocity=54 time=0
EXTRACT: note_on channel=9 note=70 velocity=88 time=0
EXTRACT: note_on channel=3 note=67 velocity=96 time=0
EXTRACT: note_on channel=7 note=69 velocity=95 time=0
EXTRACT: note_on channel=9 note=54 velocity=0 time=0.09375
EXTRACT: note_on channel=9 note=70 velocity=0 time=0.005208333333333333
EXTRACT: note_on channel=7 note=69 velocity=0 time=0.010416666666666666
EXTRACT: note_on channel=9 note=42 velocity=0 time=0.020833333333333332
EXTRACT: note_on channel=9 note=54 velocity=38 time=0.026041666666666664
EXTRACT: note_on channel=9 note=70 velocity=66 time=0
EXTRACT: note_on channel=7 note=71 velocity=82 time=0
EXTRACT: note_on channel=9 note=70 velocity=0 time=0.07291666666666666
EXTRACT: note_on channel=9 note=54 velocity=0 time=0.005208333333333333
EXTRACT: note_on channel=7 note=71 velocity=0 time=0.005208333333333333
EXTRACT: note_on channel=3 note=67 velocity=0 time=0.057291666666666664
EXTRACT: note_on channel=9 note=42 velocity=50 time=0.015625
EXTRACT: note_on channel=9 note=54 velocity=44 time=0
EXTRACT: note_on channel=9 note=69 velocity=61 time=0
EXTRACT: note_on channel=9 note=70 velocity=61 time=0
EXTRACT: note_on channel=3 note=66 velocity=93 time=0
EXTRACT: note_on channel=7 note=71 velocity=87 time=0
EXTRACT: note_on channel=9 note=54 velocity=0 time=0.06770833333333333
EXTRACT: note_on channel=9 note=70 velocity=0 time=0
EXTRACT: note_on channel=9 note=69 velocity=0 time=0.005208333333333333
EXTRACT: note_on channel=9 note=42 velocity=0 time=0.026041666666666664
EXTRACT: note_on channel=7 note=71 velocity=0 time=0
EXTRACT: note_on channel=9 note=36 velocity=0 time=0.020833333333333332
EXTRACT: note_on channel=9 note=54 velocity=36 time=0.03645833333333333
EXTRACT: note_on channel=9 note=69 velocity=48 time=0
EXTRACT: note_on channel=9 note=70 velocity=58 time=0
EXTRACT: note_on channel=7 note=69 velocity=86 time=0
EXTRACT: note_on channel=3 note=66 velocity=0 time=0.046875
EXTRACT: note_on channel=9 note=54 velocity=0 time=0.005208333333333333
EXTRACT: note_on channel=9 note=69 velocity=0 time=0.015625
EXTRACT: note_on channel=7 note=69 velocity=0 time=0.015625
EXTRACT: note_on channel=9 note=70 velocity=0 time=0.015625
EXTRACT: note_on channel=9 note=36 velocity=82 time=0.057291666666666664
EXTRACT: note_on channel=9 note=39 velocity=82 time=0
EXTRACT: note_on channel=9 note=40 velocity=80 time=0
EXTRACT: note_on channel=9 note=42 velocity=84 time=0
EXTRACT: note_on channel=9 note=54 velocity=61 time=0
EXTRACT: note_on channel=9 note=69 velocity=52 time=0
EXTRACT: note_on channel=9 note=70 velocity=89 time=0
EXTRACT: note_on channel=1 note=42 velocity=98 time=0
EXTRACT: note_on channel=7 note=71 velocity=88 time=0
EXTRACT: note_on channel=9 note=69 velocity=0 time=0.08333333333333333
EXTRACT: note_on channel=9 note=70 velocity=0 time=0.010416666666666666
EXTRACT: note_on channel=9 note=54 velocity=0 time=0.005208333333333333
EXTRACT: note_on channel=9 note=39 velocity=0 time=0.005208333333333333
EXTRACT: note_on channel=7 note=71 velocity=0 time=0
EXTRACT: note_on channel=9 note=40 velocity=0 time=0.005208333333333333
EXTRACT: note_on channel=9 note=42 velocity=0 time=0.041666666666666664
EXTRACT: note_on channel=9 note=54 velocity=52 time=0.005208333333333333
EXTRACT: note_on channel=9 note=70 velocity=71 time=0
EXTRACT: note_on channel=9 note=54 velocity=0 time=0.09375
EXTRACT: note_on channel=9 note=70 velocity=0 time=0.005208333333333333
EXTRACT: note_on channel=9 note=42 velocity=52 time=0.057291666666666664
EXTRACT: note_on channel=9 note=54 velocity=46 time=0
EXTRACT: note_on channel=9 note=70 velocity=71 time=0
EXTRACT: note_on channel=3 note=66 velocity=94 time=0
EXTRACT: note_on channel=5 note=52 velocity=59 time=0
EXTRACT: note_on channel=5 note=57 velocity=58 time=0
EXTRACT: note_on channel=5 note=59 velocity=67 time=0
EXTRACT: note_on channel=5 note=62 velocity=63 time=0
EXTRACT: note_on channel=7 note=78 velocity=94 time=0
EXTRACT: note_on channel=9 note=54 velocity=0 time=0.06770833333333333
EXTRACT: note_on channel=9 note=70 velocity=0 time=0.015625
EXTRACT: note_on channel=9 note=42 velocity=0 time=0.015625
EXTRACT: note_on channel=9 note=36 velocity=0 time=0.03645833333333333
EXTRACT: note_on channel=7 note=78 velocity=0 time=0.020833333333333332
EXTRACT: note_on channel=9 note=42 velocity=40 time=0
EXTRACT: note_on channel=9 note=54 velocity=57 time=0
EXTRACT: note_on channel=9 note=70 velocity=61 time=0
EXTRACT: note_on channel=2 note=62 velocity=0 time=0.015625
EXTRACT: note_on channel=2 note=57 velocity=0 time=0.015625
EXTRACT: note_on channel=1 note=42 velocity=0 time=0.010416666666666666
EXTRACT: note_on channel=9 note=54 velocity=0 time=0.005208333333333333
EXTRACT: note_on channel=6 note=74 velocity=0 time=0.020833333333333332
EXTRACT: note_on channel=5 note=62 velocity=0 time=0.015625
EXTRACT: note_on channel=5 note=59 velocity=0 time=0.005208333333333333
EXTRACT: note_on channel=2 note=66 velocity=0 time=0.005208333333333333
EXTRACT: note_on channel=9 note=42 velocity=0 time=0.005208333333333333
EXTRACT: note_on channel=9 note=70 velocity=0 time=0
EXTRACT: note_on channel=5 note=57 velocity=0 time=0.020833333333333332
EXTRACT: note_on channel=5 note=52 velocity=0 time=0.005208333333333333
EXTRACT: note_on channel=3 note=66 velocity=0 time=0.026041666666666664
EXTRACT: note_on channel=9 note=36 velocity=83 time=0.005208333333333333
EXTRACT: note_on channel=9 note=42 velocity=77 time=0
EXTRACT: note_on channel=9 note=54 velocity=54 time=0
EXTRACT: note_on channel=9 note=70 velocity=90 time=0
EXTRACT: note_on channel=1 note=35 velocity=95 time=0
EXTRACT: note_on channel=2 note=57 velocity=86 time=0
EXTRACT: note_on channel=2 note=61 velocity=83 time=0
EXTRACT: note_on channel=2 note=64 velocity=86 time=0
EXTRACT: note_on channel=3 note=64 velocity=105 time=0
EXTRACT: note_on channel=4 note=52 velocity=67 time=0
EXTRACT: note_on channel=4 note=61 velocity=70 time=0
EXTRACT: note_on channel=4 note=64 velocity=74 time=0
EXTRACT: note_on channel=6 note=76 velocity=95 time=0
EXTRACT: note_on channel=6 note=81 velocity=77 time=0
EXTRACT: note_on channel=9 note=54 velocity=0 time=0.09375
EXTRACT: note_on channel=9 note=70 velocity=0 time=0.005208333333333333
EXTRACT: note_on channel=9 note=54 velocity=38 time=0.057291666666666664
EXTRACT: note_on channel=9 note=70 velocity=70 time=0
EXTRACT: note_on channel=6 note=76 velocity=65 time=0
EXTRACT: note_on channel=6 note=81 velocity=0 time=0.010416666666666666
EXTRACT: note_on channel=9 note=42 velocity=0 time=0.005208333333333333
EXTRACT: note_on channel=9 note=70 velocity=0 time=0.03125
EXTRACT: note_on channel=9 note=54 velocity=0 time=0.03125
EXTRACT: note_on channel=3 note=64 velocity=0 time=0.03645833333333333
EXTRACT: note_on channel=6 note=76 velocity=0 time=0.03645833333333333
EXTRACT: note_on channel=9 note=42 velocity=54 time=0.005208333333333333
EXTRACT: note_on channel=9 note=54 velocity=44 time=0
EXTRACT: note_on channel=9 note=69 velocity=71 time=0
EXTRACT: note_on channel=9 note=70 velocity=71 time=0
EXTRACT: note_on channel=6 note=71 velocity=71 time=0
EXTRACT: note_on channel=7 note=74 velocity=95 time=0
EXTRACT: note_on channel=4 note=61 velocity=0 time=0.03125
EXTRACT: note_on channel=1 note=35 velocity=0 time=0.010416666666666666
EXTRACT: note_on channel=4 note=52 velocity=0 time=0.005208333333333333
EXTRACT: note_on channel=9 note=54 velocity=0 time=0.020833333333333332
EXTRACT: note_on channel=9 note=69 velocity=0 time=0
EXTRACT: note_on channel=4 note=64 velocity=0 time=0.015625
EXTRACT: note_on channel=9 note=70 velocity=0 time=0
EXTRACT: note_on channel=7 note=74 velocity=0 time=0
EXTRACT: note_on channel=9 note=36 velocity=0 time=0.020833333333333332
EXTRACT: note_on channel=9 note=42 velocity=0 time=0.005208333333333333
EXTRACT: note_on channel=9 note=54 velocity=36 time=0.046875
EXTRACT: note_on channel=9 note=70 velocity=56 time=0
EXTRACT: note_on channel=6 note=73 velocity=78 time=0
EXTRACT: note_on channel=6 note=71 velocity=0 time=0.005208333333333333
EXTRACT: note_on channel=9 note=54 velocity=0 time=0.046875
EXTRACT: note_on channel=9 note=70 velocity=0 time=0.046875
EXTRACT: note_on channel=6 note=73 velocity=0 time=0.057291666666666664
EXTRACT: note_on channel=9 note=36 velocity=84 time=0
EXTRACT: note_on channel=9 note=39 velocity=84 time=0
EXTRACT: note_on channel=9 note=40 velocity=82 time=0
EXTRACT: note_on channel=9 note=42 velocity=79 time=0
EXTRACT: note_on channel=9 note=54 velocity=61 time=0
EXTRACT: note_on channel=9 note=70 velocity=87 time=0
EXTRACT: note_on channel=3 note=66 velocity=98 time=0
EXTRACT: note_on channel=4 note=54 velocity=74 time=0
EXTRACT: note_on channel=4 note=62 velocity=88 time=0
EXTRACT: note_on channel=4 note=66 velocity=79 time=0
EXTRACT: note_on channel=6 note=69 velocity=78 time=0
EXTRACT: note_on channel=9 note=40 velocity=0 time=0.06770833333333333
EXTRACT: note_on channel=9 note=70 velocity=0 time=0.026041666666666664
EXTRACT: note_on channel=9 note=39 velocity=0 time=0.005208333333333333
EXTRACT: note_on channel=9 note=54 velocity=0 time=0
EXTRACT: note_on channel=6 note=69 velocity=0 time=0.026041666666666664
EXTRACT: note_on channel=9 note=54 velocity=52 time=0.03125
EXTRACT: note_on channel=9 note=70 velocity=74 time=0
EXTRACT: note_on channel=7 note=71 velocity=93 time=0
EXTRACT: note_on channel=9 note=42 velocity=0 time=0.020833333333333332
EXTRACT: note_on channel=4 note=54 velocity=0 time=0.0625
EXTRACT: note_on channel=4 note=62 velocity=0 time=0.010416666666666666
EXTRACT: note_on channel=9 note=54 velocity=0 time=0
EXTRACT: note_on channel=9 note=70 velocity=0 time=0.005208333333333333
EXTRACT: note_on channel=4 note=66 velocity=0 time=0.010416666666666666
EXTRACT: note_on channel=3 note=66 velocity=0 time=0.041666666666666664
EXTRACT: note_on channel=9 note=42 velocity=54 time=0.005208333333333333
EXTRACT: note_on channel=9 note=54 velocity=46 time=0
EXTRACT: note_on channel=9 note=69 velocity=64 time=0
EXTRACT: note_on channel=9 note=70 velocity=72 time=0
EXTRACT: note_on channel=1 note=30 velocity=78 time=0
EXTRACT: note_on channel=3 note=64 velocity=101 time=0
EXTRACT: note_on channel=4 note=52 velocity=70 time=0
EXTRACT: note_on channel=4 note=61 velocity=63 time=0
EXTRACT: note_on channel=4 note=64 velocity=75 time=0
EXTRACT: note_on channel=6 note=74 velocity=83 time=0
EXTRACT: note_on channel=9 note=69 velocity=0 time=0.0625
EXTRACT: note_on channel=9 note=54 velocity=0 time=0.005208333333333333
EXTRACT: note_on channel=9 note=70 velocity=0 time=0.015625
EXTRACT: note_on channel=7 note=71 velocity=0 time=0.015625
EXTRACT: note_on channel=9 note=36 velocity=0 time=0.010416666666666666
EXTRACT: note_on channel=9 note=42 velocity=0 time=0.005208333333333333
EXTRACT: note_on channel=6 note=74 velocity=0 time=0.020833333333333332
EXTRACT: note_on channel=9 note=54 velocity=57 time=0.020833333333333332
EXTRACT: note_on channel=9 note=70 velocity=66 time=0
EXTRACT: note_on channel=6 note=71 velocity=78 time=0
EXTRACT: note_on channel=2 note=61 velocity=0 time=0.015625
EXTRACT: note_on channel=2 note=64 velocity=0 time=0.015625
EXTRACT: note_on channel=2 note=57 velocity=0 time=0.005208333333333333
EXTRACT: note_on channel=9 note=54 velocity=0 time=0.010416666666666666
EXTRACT: note_on channel=9 note=70 velocity=0 time=0.05208333333333333
EXTRACT: note_on channel=6 note=71 velocity=0 time=0
EXTRACT: note_on channel=9 note=36 velocity=81 time=0.057291666666666664
EXTRACT: note_on channel=9 note=42 velocity=87 time=0
EXTRACT: note_on channel=9 note=54 velocity=54 time=0
EXTRACT: note_on channel=9 note=70 velocity=93 time=0
EXTRACT: note_on channel=1 note=33 velocity=83 time=0
EXTRACT: note_on channel=2 note=55 velocity=89 time=0
EXTRACT: note_on channel=2 note=59 velocity=83 time=0
EXTRACT: note_on channel=2 note=64 velocity=88 time=0
EXTRACT: note_on channel=6 note=69 velocity=81 time=0
EXTRACT: note_on channel=7 note=69 velocity=95 time=0
EXTRACT: note_on channel=1 note=30 velocity=0 time=0.005208333333333333
EXTRACT: note_on channel=6 note=69 velocity=0 time=0.078125
EXTRACT: note_on channel=9 note=54 velocity=0 time=0.010416666666666666
EXTRACT: note_on channel=9 note=70 velocity=0 time=0.015625
EXTRACT: note_on channel=7 note=69 velocity=0 time=0
EXTRACT: note_on channel=9 note=42 velocity=0 time=0.041666666666666664
EXTRACT: note_on channel=9 note=54 velocity=38 time=0.005208333333333333
EXTRACT: note_on channel=9 note=70 velocity=59 time=0
EXTRACT: note_on channel=6 note=67 velocity=82 time=0
EXTRACT: note_on channel=7 note=71 velocity=82 time=0
EXTRACT: note_on channel=6 note=67 velocity=0 time=0.07291666666666666
EXTRACT: note_on channel=9 note=54 velocity=0 time=0.005208333333333333
EXTRACT: note_on channel=7 note=71 velocity=0 time=0.005208333333333333
EXTRACT: note_on channel=9 note=70 velocity=0 time=0.010416666666666666
EXTRACT: note_on channel=9 note=42 velocity=46 time=0.0625
EXTRACT: note_on channel=9 note=54 velocity=44 time=0
EXTRACT: note_on channel=9 note=69 velocity=60 time=0
EXTRACT: note_on channel=9 note=70 velocity=78 time=0
EXTRACT: note_on channel=1 note=35 velocity=87 time=0
EXTRACT: note_on channel=6 note=71 velocity=81 time=0
EXTRACT: note_on channel=7 note=71 velocity=87 time=0
EXTRACT: note_on channel=1 note=33 velocity=0 time=0.026041666666666664
EXTRACT: note_on channel=9 note=54 velocity=0 time=0.041666666666666664
EXTRACT: note_on channel=9 note=69 velocity=0 time=0.020833333333333332
EXTRACT: note_on channel=9 note=70 velocity=0 time=0.005208333333333333
EXTRACT: note_on channel=7 note=71 velocity=0 time=0.005208333333333333
EXTRACT: note_on channel=9 note=36 velocity=0 time=0.005208333333333333
EXTRACT: note_on channel=6 note=71 velocity=0 time=0.015625
EXTRACT: note_on channel=9 note=42 velocity=0 time=0.005208333333333333
EXTRACT: note_on channel=1 note=35 velocity=0 time=0.010416666666666666
EXTRACT: note_on channel=9 note=54 velocity=36 time=0.020833333333333332
EXTRACT: note_on channel=9 note=69 velocity=55 time=0
EXTRACT: note_on channel=9 note=70 velocity=74 time=0
EXTRACT: note_on channel=6 note=69 velocity=66 time=0
EXTRACT: note_on channel=7 note=69 velocity=86 time=0
EXTRACT: note_on channel=9 note=54 velocity=0 time=0.05208333333333333
EXTRACT: note_on channel=9 note=69 velocity=0 time=0.03125
EXTRACT: note_on channel=6 note=69 velocity=0 time=0
EXTRACT: note_on channel=7 note=69 velocity=0 time=0
EXTRACT: note_on channel=9 note=70 velocity=0 time=0.005208333333333333
EXTRACT: note_on channel=9 note=36 velocity=82 time=0.06770833333333333
EXTRACT: note_on channel=9 note=39 velocity=82 time=0
EXTRACT: note_on channel=9 note=40 velocity=80 time=0
EXTRACT: note_on channel=9 note=42 velocity=78 time=0
EXTRACT: note_on channel=9 note=54 velocity=61 time=0
EXTRACT: note_on channel=9 note=69 velocity=50 time=0
EXTRACT: note_on channel=9 note=70 velocity=87 time=0
EXTRACT: note_on channel=1 note=35 velocity=93 time=0
EXTRACT: note_on channel=6 note=67 velocity=79 time=0
EXTRACT: note_on channel=7 note=71 velocity=88 time=0
EXTRACT: note_on channel=6 note=67 velocity=0 time=0.06770833333333333
EXTRACT: note_on channel=9 note=69 velocity=0 time=0.020833333333333332
EXTRACT: note_on channel=9 note=54 velocity=0 time=0.010416666666666666
EXTRACT: note_on channel=9 note=70 velocity=0 time=0
EXTRACT: note_on channel=9 note=39 velocity=0 time=0.005208333333333333
EXTRACT: note_on channel=7 note=71 velocity=0 time=0
EXTRACT: note_on channel=9 note=40 velocity=0 time=0.005208333333333333
EXTRACT: note_on channel=9 note=42 velocity=0 time=0.041666666666666664
EXTRACT: note_on channel=1 note=35 velocity=0 time=0
EXTRACT: note_on channel=9 note=54 velocity=52 time=0.005208333333333333
EXTRACT: note_on channel=9 note=70 velocity=74 time=0
EXTRACT: note_on channel=1 note=33 velocity=74 time=0
EXTRACT: note_on channel=3 note=64 velocity=0 time=0.0625
EXTRACT: note_on channel=9 note=54 velocity=0 time=0.03125
EXTRACT: note_on channel=9 note=70 velocity=0 time=0
EXTRACT: note_on channel=2 note=59 velocity=0 time=0.03645833333333333
EXTRACT: note_on channel=2 note=55 velocity=0 time=0.005208333333333333
EXTRACT: note_on channel=2 note=64 velocity=0 time=0.010416666666666666
EXTRACT: note_on channel=1 note=33 velocity=0 time=0.005208333333333333
EXTRACT: note_on channel=9 note=46 velocity=49 time=0.005208333333333333
EXTRACT: note_on channel=9 note=54 velocity=46 time=0
EXTRACT: note_on channel=9 note=70 velocity=58 time=0
EXTRACT: note_on channel=1 note=29 velocity=82 time=0
EXTRACT: note_on channel=3 note=62 velocity=108 time=0
EXTRACT: note_on channel=4 note=54 velocity=71 time=0
EXTRACT: note_on channel=4 note=59 velocity=70 time=0
EXTRACT: note_on channel=4 note=62 velocity=73 time=0
EXTRACT: note_on channel=4 note=66 velocity=66 time=0
EXTRACT: note_on channel=7 note=78 velocity=94 time=0
EXTRACT: note_on channel=6 note=76 velocity=0 time=0.046875
EXTRACT: note_on channel=9 note=54 velocity=0 time=0.020833333333333332
EXTRACT: note_on channel=9 note=46 velocity=0 time=0.026041666666666664
EXTRACT: note_on channel=9 note=70 velocity=0 time=0.005208333333333333
EXTRACT: note_on channel=10 note=81 velocity=0 time=0.026041666666666664
EXTRACT: note_on channel=1 note=29 velocity=0 time=0
EXTRACT: note_on channel=7 note=78 velocity=0 time=0.03125
EXTRACT: note_on channel=9 note=54 velocity=57 time=0
EXTRACT: note_on channel=9 note=70 velocity=61 time=0
EXTRACT: note_on channel=1 note=30 velocity=80 time=0
EXTRACT: note_on channel=9 note=36 velocity=0 time=0.020833333333333332
EXTRACT: note_on channel=3 note=62 velocity=0 time=0.015625
EXTRACT: note_on channel=9 note=54 velocity=0 time=0.010416666666666666
EXTRACT: note_on channel=4 note=59 velocity=0 time=0.020833333333333332
EXTRACT: note_on channel=9 note=70 velocity=0 time=0.020833333333333332
EXTRACT: note_on channel=4 note=66 velocity=0 time=0.010416666666666666
EXTRACT: note_on channel=4 note=62 velocity=0 time=0.010416666666666666
EXTRACT: note_on channel=1 note=30 velocity=0 time=0
EXTRACT: note_on channel=4 note=64 velocity=0 time=0.005208333333333333
EXTRACT: note_on channel=4 note=54 velocity=0 time=0.015625
EXTRACT: note_on channel=4 note=61 velocity=0 time=0.015625
EXTRACT: note_on channel=9 note=36 velocity=77 time=0.010416666666666666
EXTRACT: note_on channel=9 note=42 velocity=88 time=0
EXTRACT: note_on channel=9 note=49 velocity=76 time=0
EXTRACT: note_on channel=9 note=54 velocity=54 time=0
EXTRACT: note_on channel=9 note=70 velocity=87 time=0
EXTRACT: note_on channel=1 note=35 velocity=103 time=0
EXTRACT: note_on channel=2 note=57 velocity=81 time=0
EXTRACT: note_on channel=2 note=62 velocity=77 time=0
EXTRACT: note_on channel=2 note=66 velocity=76 time=0
EXTRACT: note_on channel=3 note=66 velocity=87 time=0
EXTRACT: note_on channel=5 note=57 velocity=63 time=0
EXTRACT: note_on channel=5 note=59 velocity=67 time=0
EXTRACT: note_on channel=5 note=62 velocity=66 time=0
EXTRACT: note_on channel=6 note=66 velocity=87 time=0
EXTRACT: note_on channel=9 note=49 velocity=0 time=0.08333333333333333
EXTRACT: note_on channel=9 note=70 velocity=0 time=0
EXTRACT: note_on channel=4 note=52 velocity=0 time=0.010416666666666666
EXTRACT: note_on channel=9 note=54 velocity=0 time=0
EXTRACT: note_on channel=9 note=42 velocity=0 time=0.010416666666666666
EXTRACT: note_on channel=9 note=54 velocity=38 time=0.05208333333333333
EXTRACT: note_on channel=9 note=70 velocity=63 time=0
EXTRACT: note_on channel=5 note=59 velocity=0 time=0.046875
EXTRACT: note_on channel=5 note=62 velocity=0 time=0
EXTRACT: note_on channel=3 note=66 velocity=0 time=0.020833333333333332
EXTRACT: note_on channel=9 note=54 velocity=0 time=0.010416666666666666
EXTRACT: note_on channel=5 note=57 velocity=0 time=0.020833333333333332
EXTRACT: note_on channel=9 note=70 velocity=0 time=0.005208333333333333
EXTRACT: note_on channel=9 note=42 velocity=46 time=0.05208333333333333
EXTRACT: note_on channel=9 note=54 velocity=44 time=0
EXTRACT: note_on channel=9 note=69 velocity=68 time=0
EXTRACT: note_on channel=9 note=70 velocity=46 time=0
EXTRACT: note_on channel=3 note=66 velocity=96 time=0
EXTRACT: note_on channel=4 note=66 velocity=81 time=0
EXTRACT: note_on channel=6 note=71 velocity=76 time=0
EXTRACT: note_on channel=7 note=74 velocity=95 time=0
EXTRACT: note_on channel=9 note=70 velocity=0 time=0.046875
EXTRACT: note_on channel=9 note=69 velocity=0 time=0.010416666666666666
EXTRACT: note_on channel=9 note=54 velocity=0 time=0.010416666666666666
EXTRACT: note_on channel=9 note=42 velocity=0 time=0.015625
EXTRACT: note_on channel=7 note=74 velocity=0 time=0
EXTRACT: note_on channel=3 note=66 velocity=0 time=0.03645833333333333
EXTRACT: note_on channel=4 note=66 velocity=0 time=0
EXTRACT: note_on channel=9 note=36 velocity=0 time=0.005208333333333333
EXTRACT: note_on channel=1 note=35 velocity=0 time=0
EXTRACT: note_on channel=9 note=54 velocity=36 time=0.03125
EXTRACT: note_on channel=9 note=70 velocity=61 time=0
EXTRACT: note_on channel=3 note=66 velocity=88 time=0
EXTRACT: note_on channel=4 note=66 velocity=73 time=0
EXTRACT: note_on channel=9 note=54 velocity=0 time=0.05208333333333333
EXTRACT: note_on channel=3 note=66 velocity=0 time=0.03645833333333333
EXTRACT: note_on channel=4 note=66 velocity=0 time=0
EXTRACT: note_on channel=9 note=70 velocity=0 time=0.005208333333333333
EXTRACT: note_on channel=9 note=36 velocity=81 time=0.0625
EXTRACT: note_on channel=9 note=39 velocity=84 time=0
EXTRACT: note_on channel=9 note=40 velocity=82 time=0
EXTRACT: note_on channel=9 note=42 velocity=91 time=0
EXTRACT: note_on channel=9 note=54 velocity=61 time=0
EXTRACT: note_on channel=9 note=70 velocity=91 time=0
EXTRACT: note_on channel=3 note=66 velocity=95 time=0
EXTRACT: note_on channel=4 note=66 velocity=80 time=0
EXTRACT: note_on channel=9 note=40 velocity=0 time=0.06770833333333333
EXTRACT: note_on channel=9 note=70 velocity=0 time=0.020833333333333332
EXTRACT: note_on channel=9 note=39 velocity=0 time=0.010416666666666666
EXTRACT: note_on channel=9 note=54 velocity=0 time=0
EXTRACT: note_on channel=9 note=42 velocity=0 time=0.03645833333333333
EXTRACT: note_on channel=9 note=54 velocity=52 time=0.020833333333333332
EXTRACT: note_on channel=9 note=70 velocity=63 time=0
EXTRACT: note_on channel=7 note=71 velocity=93 time=0
EXTRACT: note_on channel=3 note=66 velocity=0 time=0.08333333333333333
EXTRACT: note_on channel=4 note=66 velocity=0 time=0
EXTRACT: note_on channel=9 note=70 velocity=0 time=0.005208333333333333
EXTRACT: note_on channel=9 note=54 velocity=0 time=0.005208333333333333
EXTRACT: note_on channel=9 note=42 velocity=46 time=0.0625
EXTRACT: note_on channel=9 note=54 velocity=46 time=0
EXTRACT: note_on channel=9 note=70 velocity=80 time=0
EXTRACT: note_on channel=3 note=66 velocity=93 time=0
EXTRACT: note_on channel=4 note=66 velocity=78 time=0
EXTRACT: note_on channel=6 note=78 velocity=74 time=0
EXTRACT: note_on channel=9 note=54 velocity=0 time=0.06770833333333333
EXTRACT: note_on channel=9 note=70 velocity=0 time=0.010416666666666666
EXTRACT: note_on channel=7 note=71 velocity=0 time=0.020833333333333332
EXTRACT: note_on channel=3 note=66 velocity=0 time=0
EXTRACT: note_on channel=4 note=66 velocity=0 time=0
EXTRACT: note_on channel=9 note=42 velocity=0 time=0.015625
EXTRACT: note_on channel=9 note=36 velocity=0 time=0.010416666666666666
EXTRACT: note_on channel=9 note=54 velocity=57 time=0.03125
EXTRACT: note_on channel=9 note=70 velocity=62 time=0
EXTRACT: note_on channel=3 note=66 velocity=94 time=0
EXTRACT: note_on channel=4 note=66 velocity=79 time=0
EXTRACT: note_on channel=2 note=62 velocity=0 time=0.015625
EXTRACT: note_on channel=2 note=57 velocity=0 time=0.026041666666666664
EXTRACT: note_on channel=9 note=54 velocity=0 time=0.005208333333333333
EXTRACT: note_on channel=2 note=66 velocity=0 time=0.03645833333333333
EXTRACT: note_on channel=9 note=70 velocity=0 time=0.010416666666666666
EXTRACT: note_on channel=9 note=36 velocity=78 time=0.0625
EXTRACT: note_on channel=9 note=42 velocity=80 time=0
EXTRACT: note_on channel=9 note=54 velocity=54 time=0
EXTRACT: note_on channel=9 note=70 velocity=88 time=0
EXTRACT: note_on channel=2 note=57 velocity=74 time=0
EXTRACT: note_on channel=2 note=61 velocity=80 time=0
EXTRACT: note_on channel=2 note=64 velocity=74 time=0
EXTRACT: note_on channel=7 note=69 velocity=95 time=0
EXTRACT: note_on channel=3 note=66 velocity=0 time=0.09375
EXTRACT: note_on channel=4 note=66 velocity=0 time=0
EXTRACT: note_on channel=9 note=54 velocity=0 time=0
EXTRACT: note_on channel=6 note=66 velocity=0 time=0.005208333333333333
EXTRACT: note_on channel=9 note=70 velocity=0 time=0
EXTRACT: note_on channel=6 note=71 velocity=0 time=0.010416666666666666
EXTRACT: note_on channel=6 note=78 velocity=0 time=0
EXTRACT: note_on channel=7 note=69 velocity=0 time=0
EXTRACT: note_on channel=9 note=42 velocity=0 time=0.020833333333333332
EXTRACT: note_on channel=9 note=54 velocity=38 time=0.026041666666666664
EXTRACT: note_on channel=9 note=70 velocity=66 time=0
EXTRACT: note_on channel=3 note=69 velocity=88 time=0
EXTRACT: note_on channel=4 note=69 velocity=73 time=0
EXTRACT: note_on channel=7 note=71 velocity=82 time=0
EXTRACT: note_on channel=9 note=70 velocity=0 time=0.07291666666666666
EXTRACT: note_on channel=9 note=54 velocity=0 time=0.005208333333333333
EXTRACT: note_on channel=3 note=69 velocity=0 time=0.005208333333333333
EXTRACT: note_on channel=4 note=69 velocity=0 time=0
EXTRACT: note_on channel=7 note=71 velocity=0 time=0
EXTRACT: note_on channel=9 note=42 velocity=50 time=0.07291666666666666
EXTRACT: note_on channel=9 note=54 velocity=44 time=0
EXTRACT: note_on channel=9 note=69 velocity=61 time=0
EXTRACT: note_on channel=9 note=70 velocity=61 time=0
EXTRACT: note_on channel=3 note=69 velocity=102 time=0
EXTRACT: note_on channel=4 note=69 velocity=87 time=0
EXTRACT: note_on channel=7 note=71 velocity=87 time=0
EXTRACT: note_on channel=9 note=54 velocity=0 time=0.06770833333333333
EXTRACT: note_on channel=9 note=70 velocity=0 time=0
EXTRACT: note_on channel=9 note=69 velocity=0 time=0.005208333333333333
EXTRACT: note_on channel=9 note=42 velocity=0 time=0.026041666666666664
EXTRACT: note_on channel=7 note=71 velocity=0 time=0
EXTRACT: note_on channel=9 note=36 velocity=0 time=0.020833333333333332
EXTRACT: note_on channel=9 note=54 velocity=36 time=0.03645833333333333
EXTRACT: note_on channel=9 note=69 velocity=48 time=0
EXTRACT: note_on channel=9 note=70 velocity=58 time=0
EXTRACT: note_on channel=7 note=69 velocity=86 time=0
EXTRACT: note_on channel=3 note=69 velocity=0 time=0.046875
EXTRACT: note_on channel=4 note=69 velocity=0 time=0
EXTRACT: note_on channel=9 note=54 velocity=0 time=0.005208333333333333
EXTRACT: note_on channel=9 note=69 velocity=0 time=0.015625
EXTRACT: note_on channel=7 note=69 velocity=0 time=0.015625
EXTRACT: note_on channel=9 note=70 velocity=0 time=0.015625
EXTRACT: note_on channel=9 note=36 velocity=82 time=0.057291666666666664
EXTRACT: note_on channel=9 note=39 velocity=82 time=0
EXTRACT: note_on channel=9 note=40 velocity=80 time=0
EXTRACT: note_on channel=9 note=42 velocity=84 time=0
EXTRACT: note_on channel=9 note=54 velocity=61 time=0
EXTRACT: note_on channel=9 note=69 velocity=52 time=0
EXTRACT: note_on channel=9 note=70 velocity=89 time=0
EXTRACT: note_on channel=1 note=42 velocity=97 time=0
EXTRACT: note_on channel=3 note=69 velocity=104 time=0
EXTRACT: note_on channel=4 note=69 velocity=89 time=0
EXTRACT: note_on channel=6 note=79 velocity=98 time=0
EXTRACT: note_on channel=7 note=71 velocity=88 time=0
EXTRACT: note_on channel=3 note=69 velocity=0 time=0.07291666666666666
EXTRACT: note_on channel=4 note=69 velocity=0 time=0
EXTRACT: note_on channel=9 note=69 velocity=0 time=0.010416666666666666
EXTRACT: note_on channel=9 note=70 velocity=0 time=0.010416666666666666
EXTRACT: note_on channel=9 note=54 velocity=0 time=0.005208333333333333
EXTRACT: note_on channel=9 note=39 velocity=0 time=0.005208333333333333
EXTRACT: note_on channel=7 note=71 velocity=0 time=0
EXTRACT: note_on channel=9 note=40 velocity=0 time=0.005208333333333333
EXTRACT: note_on channel=9 note=42 velocity=0 time=0.041666666666666664
EXTRACT: note_on channel=9 note=54 velocity=52 time=0.005208333333333333
EXTRACT: note_on channel=9 note=70 velocity=71 time=0
EXTRACT: note_on channel=3 note=69 velocity=101 time=0
EXTRACT: note_on channel=4 note=69 velocity=86 time=0
EXTRACT: note_on channel=9 note=54 velocity=0 time=0.09375
EXTRACT: note_on channel=9 note=70 velocity=0 time=0.005208333333333333
EXTRACT: note_on channel=3 note=69 velocity=0 time=0.010416666666666666
EXTRACT: note_on channel=4 note=69 velocity=0 time=0
EXTRACT: note_on channel=9 note=42 velocity=52 time=0.046875
EXTRACT: note_on channel=9 note=54 velocity=46 time=0
EXTRACT: note_on channel=9 note=70 velocity=71 time=0
EXTRACT: note_on channel=3 note=71 velocity=98 time=0
EXTRACT: note_on channel=4 note=71 velocity=83 time=0
EXTRACT: note_on channel=5 note=52 velocity=59 time=0
EXTRACT: note_on channel=5 note=57 velocity=58 time=0
EXTRACT: note_on channel=5 note=59 velocity=67 time=0
EXTRACT: note_on channel=5 note=62 velocity=63 time=0
EXTRACT: note_on channel=7 note=78 velocity=94 time=0
EXTRACT: note_on channel=9 note=54 velocity=0 time=0.06770833333333333
EXTRACT: note_on channel=9 note=70 velocity=0 time=0.015625
EXTRACT: note_on channel=9 note=42 velocity=0 time=0.015625
EXTRACT: note_on channel=2 note=57 velocity=0 time=0.026041666666666664
EXTRACT: note_on channel=9 note=36 velocity=0 time=0.010416666666666666
EXTRACT: note_on channel=7 note=78 velocity=0 time=0.020833333333333332
EXTRACT: note_on channel=9 note=42 velocity=40 time=0
EXTRACT: note_on channel=9 note=54 velocity=57 time=0
EXTRACT: note_on channel=9 note=70 velocity=61 time=0
EXTRACT: note_on channel=1 note=42 velocity=0 time=0.041666666666666664
EXTRACT: note_on channel=9 note=54 velocity=0 time=0.005208333333333333
EXTRACT: note_on channel=3 note=71 velocity=0 time=0.020833333333333332
EXTRACT: note_on channel=4 note=71 velocity=0 time=0
EXTRACT: note_on channel=2 note=61 velocity=0 time=0.005208333333333333
EXTRACT: note_on channel=2 note=64 velocity=0 time=0
EXTRACT: note_on channel=5 note=62 velocity=0 time=0.010416666666666666
EXTRACT: note_on channel=5 note=59 velocity=0 time=0.005208333333333333
EXTRACT: note_on channel=9 note=42 velocity=0 time=0.010416666666666666
EXTRACT: note_on channel=9 note=70 velocity=0 time=0
EXTRACT: note_on channel=6 note=79 velocity=0 time=0.010416666666666666
EXTRACT: note_on channel=5 note=57 velocity=0 time=0.010416666666666666
EXTRACT: note_on channel=5 note=52 velocity=0 time=0.005208333333333333
EXTRACT: note_on channel=9 note=36 velocity=83 time=0.03125
EXTRACT: note_on channel=9 note=42 velocity=77 time=0
EXTRACT: note_on channel=9 note=54 velocity=54 time=0
EXTRACT: note_on channel=9 note=70 velocity=90 time=0
EXTRACT: note_on channel=1 note=35 velocity=94 time=0
EXTRACT: note_on channel=2 note=54 velocity=66 time=0
EXTRACT: note_on channel=2 note=57 velocity=68 time=0
EXTRACT: note_on channel=2 note=62 velocity=71 time=0
EXTRACT: note_on channel=3 note=66 velocity=97 time=0
EXTRACT: note_on channel=4 note=66 velocity=82 time=0
EXTRACT: note_on channel=6 note=78 velocity=96 time=0
EXTRACT: note_on channel=9 note=54 velocity=0 time=0.09375
EXTRACT: note_on channel=9 note=70 velocity=0 time=0.005208333333333333
EXTRACT: note_on channel=9 note=54 velocity=38 time=0.057291666666666664
EXTRACT: note_on channel=9 note=70 velocity=70 time=0
EXTRACT: note_on channel=9 note=42 velocity=0 time=0.015625
EXTRACT: note_on channel=3 note=66 velocity=0 time=0.026041666666666664
EXTRACT: note_on channel=4 note=66 velocity=0 time=0
EXTRACT: note_on channel=9 note=70 velocity=0 time=0.005208333333333333
EXTRACT: note_on channel=9 note=54 velocity=0 time=0.03125
EXTRACT: note_on channel=9 note=42 velocity=54 time=0.078125
EXTRACT: note_on channel=9 note=54 velocity=44 time=0
EXTRACT: note_on channel=9 note=69 velocity=71 time=0
EXTRACT: note_on channel=9 note=70 velocity=71 time=0
EXTRACT: note_on channel=3 note=66 velocity=102 time=0
EXTRACT: note_on channel=4 note=66 velocity=87 time=0
EXTRACT: note_on channel=7 note=74 velocity=95 time=0
EXTRACT: note_on channel=9 note=54 velocity=0 time=0.06770833333333333
EXTRACT: note_on channel=9 note=69 velocity=0 time=0
EXTRACT: note_on channel=9 note=70 velocity=0 time=0.015625
EXTRACT: note_on channel=7 note=74 velocity=0 time=0
EXTRACT: note_on channel=1 note=35 velocity=0 time=0.005208333333333333
EXTRACT: note_on channel=9 note=36 velocity=0 time=0.015625
EXTRACT: note_on channel=9 note=42 velocity=0 time=0.005208333333333333
EXTRACT: note_on channel=9 note=54 velocity=36 time=0.046875
EXTRACT: note_on channel=9 note=70 velocity=56 time=0
EXTRACT: note_on channel=3 note=66 velocity=0 time=0.020833333333333332
EXTRACT: note_on channel=4 note=66 velocity=0 time=0
EXTRACT: note_on channel=9 note=54 velocity=0 time=0.03125
EXTRACT: note_on channel=9 note=70 velocity=0 time=0.046875
EXTRACT: note_on channel=9 note=36 velocity=84 time=0.057291666666666664
EXTRACT: note_on channel=9 note=39 velocity=84 time=0
EXTRACT: note_on channel=9 note=40 velocity=82 time=0
EXTRACT: note_on channel=9 note=42 velocity=79 time=0
EXTRACT: note_on channel=9 note=54 velocity=61 time=0
EXTRACT: note_on channel=9 note=70 velocity=87 time=0
EXTRACT: note_on channel=3 note=66 velocity=98 time=0
EXTRACT: note_on channel=4 note=66 velocity=83 time=0
EXTRACT: note_on channel=9 note=40 velocity=0 time=0.06770833333333333
EXTRACT: note_on channel=9 note=70 velocity=0 time=0.026041666666666664
EXTRACT: note_on channel=9 note=39 velocity=0 time=0.005208333333333333
EXTRACT: note_on channel=9 note=54 velocity=0 time=0
EXTRACT: note_on channel=9 note=54 velocity=52 time=0.057291666666666664
EXTRACT: note_on channel=9 note=70 velocity=74 time=0
EXTRACT: note_on channel=7 note=71 velocity=93 time=0
EXTRACT: note_on channel=9 note=42 velocity=0 time=0.020833333333333332
EXTRACT: note_on channel=3 note=66 velocity=0 time=0.06770833333333333
EXTRACT: note_on channel=4 note=66 velocity=0 time=0
EXTRACT: note_on channel=9 note=54 velocity=0 time=0.005208333333333333
EXTRACT: note_on channel=9 note=70 velocity=0 time=0.005208333333333333
EXTRACT: note_on channel=9 note=42 velocity=54 time=0.057291666666666664
EXTRACT: note_on channel=9 note=54 velocity=46 time=0
EXTRACT: note_on channel=9 note=69 velocity=64 time=0
EXTRACT: note_on channel=9 note=70 velocity=72 time=0
EXTRACT: note_on channel=1 note=33 velocity=98 time=0
EXTRACT: note_on channel=3 note=66 velocity=87 time=0
EXTRACT: note_on channel=4 note=66 velocity=72 time=0
EXTRACT: note_on channel=9 note=69 velocity=0 time=0.0625
EXTRACT: note_on channel=9 note=54 velocity=0 time=0.005208333333333333
EXTRACT: note_on channel=2 note=57 velocity=0 time=0.015625
EXTRACT: note_on channel=9 note=70 velocity=0 time=0
EXTRACT: note_on channel=3 note=66 velocity=0 time=0.010416666666666666
EXTRACT: note_on channel=4 note=66 velocity=0 time=0
EXTRACT: note_on channel=7 note=71 velocity=0 time=0.005208333333333333
EXTRACT: note_on channel=9 note=36 velocity=0 time=0.010416666666666666
EXTRACT: note_on channel=9 note=42 velocity=0 time=0.005208333333333333
EXTRACT: note_on channel=2 note=62 velocity=0 time=0.03125
EXTRACT: note_on channel=9 note=54 velocity=57 time=0.010416666666666666
EXTRACT: note_on channel=9 note=70 velocity=66 time=0
EXTRACT: note_on channel=3 note=66 velocity=90 time=0
EXTRACT: note_on channel=4 note=66 velocity=75 time=0
EXTRACT: note_on channel=9 note=54 velocity=0 time=0.046875
EXTRACT: note_on channel=2 note=54 velocity=0 time=0.041666666666666664
EXTRACT: note_on channel=9 note=70 velocity=0 time=0.010416666666666666
EXTRACT: note_on channel=1 note=33 velocity=0 time=0.05208333333333333
EXTRACT: note_on channel=9 note=36 velocity=81 time=0.005208333333333333
EXTRACT: note_on channel=9 note=42 velocity=87 time=0
EXTRACT: note_on channel=9 note=54 velocity=54 time=0
EXTRACT: note_on channel=9 note=70 velocity=93 time=0
EXTRACT: note_on channel=1 note=35 velocity=98 time=0
EXTRACT: note_on channel=7 note=69 velocity=95 time=0
EXTRACT: note_on channel=3 note=66 velocity=0 time=0.08854166666666666
EXTRACT: note_on channel=4 note=66 velocity=0 time=0
EXTRACT: note_on channel=9 note=54 velocity=0 time=0.005208333333333333
EXTRACT: note_on channel=9 note=70 velocity=0 time=0.015625
EXTRACT: note_on channel=7 note=69 velocity=0 time=0
EXTRACT: note_on channel=9 note=42 velocity=0 time=0.041666666666666664
EXTRACT: note_on channel=9 note=54 velocity=38 time=0.005208333333333333
EXTRACT: note_on channel=9 note=70 velocity=59 time=0
EXTRACT: note_on channel=3 note=66 velocity=94 time=0
EXTRACT: note_on channel=4 note=66 velocity=79 time=0
EXTRACT: note_on channel=7 note=71 velocity=82 time=0
EXTRACT: note_on channel=9 note=54 velocity=0 time=0.078125
EXTRACT: note_on channel=7 note=71 velocity=0 time=0.005208333333333333
EXTRACT: note_on channel=9 note=70 velocity=0 time=0.010416666666666666
EXTRACT: note_on channel=3 note=66 velocity=0 time=0.010416666666666666
EXTRACT: note_on channel=4 note=66 velocity=0 time=0
EXTRACT: note_on channel=1 note=35 velocity=0 time=0.046875
EXTRACT: note_on channel=9 note=42 velocity=46 time=0.005208333333333333
EXTRACT: note_on channel=9 note=54 velocity=44 time=0
EXTRACT: note_on channel=9 note=69 velocity=60 time=0
EXTRACT: note_on channel=9 note=70 velocity=78 time=0
EXTRACT: note_on channel=3 note=69 velocity=105 time=0
EXTRACT: note_on channel=4 note=69 velocity=90 time=0
EXTRACT: note_on channel=7 note=71 velocity=87 time=0
EXTRACT: note_on channel=9 note=54 velocity=0 time=0.06770833333333333
EXTRACT: note_on channel=9 note=69 velocity=0 time=0.020833333333333332
EXTRACT: note_on channel=9 note=70 velocity=0 time=0.005208333333333333
EXTRACT: note_on channel=7 note=71 velocity=0 time=0.005208333333333333
EXTRACT: note_on channel=9 note=36 velocity=0 time=0.005208333333333333
EXTRACT: note_on channel=9 note=42 velocity=0 time=0.020833333333333332
EXTRACT: note_on channel=9 note=54 velocity=36 time=0.03125
EXTRACT: note_on channel=9 note=69 velocity=55 time=0
EXTRACT: note_on channel=9 note=70 velocity=74 time=0
EXTRACT: note_on channel=7 note=69 velocity=86 time=0
EXTRACT: note_on channel=9 note=54 velocity=0 time=0.05208333333333333
EXTRACT: note_on channel=3 note=69 velocity=0 time=0.005208333333333333
EXTRACT: note_on channel=4 note=69 velocity=0 time=0
EXTRACT: note_on channel=9 note=69 velocity=0 time=0.026041666666666664
EXTRACT: note_on channel=7 note=69 velocity=0 time=0
EXTRACT: note_on channel=9 note=70 velocity=0 time=0.005208333333333333
EXTRACT: note_on channel=9 note=36 velocity=82 time=0.06770833333333333
EXTRACT: note_on channel=9 note=39 velocity=82 time=0
EXTRACT: note_on channel=9 note=40 velocity=80 time=0
EXTRACT: note_on channel=9 note=42 velocity=78 time=0
EXTRACT: note_on channel=9 note=54 velocity=61 time=0
EXTRACT: note_on channel=9 note=69 velocity=50 time=0
EXTRACT: note_on channel=9 note=70 velocity=87 time=0
EXTRACT: note_on channel=3 note=69 velocity=102 time=0
EXTRACT: note_on channel=4 note=69 velocity=87 time=0
EXTRACT: note_on channel=7 note=71 velocity=88 time=0
EXTRACT: note_on channel=3 note=69 velocity=0 time=0.07291666666666666
EXTRACT: note_on channel=4 note=69 velocity=0 time=0
EXTRACT: note_on channel=9 note=69 velocity=0 time=0.015625
EXTRACT: note_on channel=9 note=54 velocity=0 time=0.010416666666666666
EXTRACT: note_on channel=9 note=70 velocity=0 time=0
EXTRACT: note_on channel=9 note=39 velocity=0 time=0.005208333333333333
EXTRACT: note_on channel=7 note=71 velocity=0 time=0
EXTRACT: note_on channel=9 note=40 velocity=0 time=0.005208333333333333
EXTRACT: note_on channel=6 note=78 velocity=0 time=0.015625
EXTRACT: note_on channel=9 note=42 velocity=0 time=0.026041666666666664
EXTRACT: note_on channel=9 note=54 velocity=52 time=0.005208333333333333
EXTRACT: note_on channel=9 note=70 velocity=74 time=0
EXTRACT: note_on channel=3 note=69 velocity=100 time=0
EXTRACT: note_on channel=4 note=69 velocity=85 time=0
EXTRACT: note_on channel=3 note=69 velocity=0 time=0.07291666666666666
EXTRACT: note_on channel=4 note=69 velocity=0 time=0
EXTRACT: note_on channel=9 note=54 velocity=0 time=0.020833333333333332
EXTRACT: note_on channel=9 note=70 velocity=0 time=0
EXTRACT: note_on channel=9 note=46 velocity=49 time=0.0625
EXTRACT: note_on channel=9 note=54 velocity=46 time=0
EXTRACT: note_on channel=9 note=70 velocity=58 time=0
EXTRACT: note_on channel=1 note=33 velocity=103 time=0
EXTRACT: note_on channel=3 note=69 velocity=104 time=0
EXTRACT: note_on channel=4 note=69 velocity=89 time=0
EXTRACT: note_on channel=7 note=78 velocity=94 time=0
EXTRACT: note_on channel=9 note=54 velocity=0 time=0.06770833333333333
EXTRACT: note_on channel=9 note=46 velocity=0 time=0.026041666666666664
EXTRACT: note_on channel=9 note=70 velocity=0 time=0.005208333333333333
EXTRACT: note_on channel=7 note=78 velocity=0 time=0.057291666666666664
EXTRACT: note_on channel=9 note=54 velocity=57 time=0
EXTRACT: note_on channel=9 note=70 velocity=61 time=0
EXTRACT: note_on channel=1 note=34 velocity=85 time=0
EXTRACT: note_on channel=9 note=36 velocity=0 time=0.020833333333333332
EXTRACT: note_on channel=1 note=33 velocity=0 time=0.015625
EXTRACT: note_on channel=9 note=54 velocity=0 time=0.010416666666666666
EXTRACT: note_on channel=9 note=70 velocity=0 time=0.041666666666666664
EXTRACT: note_on channel=1 note=34 velocity=0 time=0.046875
EXTRACT: note_on channel=3 note=69 velocity=0 time=0.015625
EXTRACT: note_on channel=4 note=69 velocity=0 time=0
EXTRACT: note_on channel=9 note=36 velocity=77 time=0.005208333333333333
EXTRACT: note_on channel=9 note=42 velocity=88 time=0
EXTRACT: note_on channel=9 note=54 velocity=54 time=0
EXTRACT: note_on channel=9 note=70 velocity=87 time=0
EXTRACT: note_on channel=1 note=35 velocity=102 time=0
EXTRACT: note_on channel=2 note=57 velocity=83 time=0
EXTRACT: note_on channel=2 note=62 velocity=82 time=0
EXTRACT: note_on channel=2 note=66 velocity=81 time=0
EXTRACT: note_on channel=3 note=66 velocity=98 time=0
EXTRACT: note_on channel=4 note=66 velocity=83 time=0
EXTRACT: note_on channel=5 note=57 velocity=63 time=0
EXTRACT: note_on channel=5 note=59 velocity=67 time=0
EXTRACT: note_on channel=5 note=62 velocity=66 time=0
EXTRACT: note_on channel=9 note=70 velocity=0 time=0.08333333333333333
EXTRACT: note_on channel=9 note=54 velocity=0 time=0.010416666666666666
EXTRACT: note_on channel=9 note=42 velocity=0 time=0.010416666666666666
EXTRACT: note_on channel=9 note=54 velocity=38 time=0.05208333333333333
EXTRACT: note_on channel=9 note=70 velocity=63 time=0
EXTRACT: note_on channel=5 note=59 velocity=0 time=0.046875
EXTRACT: note_on channel=5 note=62 velocity=0 time=0
EXTRACT: note_on channel=9 note=54 velocity=0 time=0.03125
EXTRACT: note_on channel=3 note=66 velocity=0 time=0.020833333333333332
EXTRACT: note_on channel=4 note=66 velocity=0 time=0
EXTRACT: note_on channel=5 note=57 velocity=0 time=0
EXTRACT: note_on channel=9 note=70 velocity=0 time=0.005208333333333333
EXTRACT: note_on channel=9 note=42 velocity=46 time=0.05208333333333333
EXTRACT: note_on channel=9 note=54 velocity=44 time=0
EXTRACT: note_on channel=9 note=69 velocity=68 time=0
EXTRACT: note_on channel=9 note=70 velocity=46 time=0
EXTRACT: note_on channel=3 note=69 velocity=100 time=0
EXTRACT: note_on channel=4 note=69 velocity=85 time=0
EXTRACT: note_on channel=6 note=69 velocity=87 time=0
EXTRACT: note_on channel=7 note=74 velocity=95 time=0
EXTRACT: note_on channel=1 note=35 velocity=0 time=0.026041666666666664
EXTRACT: note_on channel=9 note=70 velocity=0 time=0.020833333333333332
EXTRACT: note_on channel=9 note=69 velocity=0 time=0.010416666666666666
EXTRACT: note_on channel=9 note=54 velocity=0 time=0.010416666666666666
EXTRACT: note_on channel=9 note=42 velocity=0 time=0.015625
EXTRACT: note_on channel=7 note=74 velocity=0 time=0
EXTRACT: note_on channel=9 note=36 velocity=0 time=0.041666666666666664
EXTRACT: note_on channel=3 note=69 velocity=0 time=0.03125
EXTRACT: note_on channel=4 note=69 velocity=0 time=0
EXTRACT: note_on channel=9 note=54 velocity=36 time=0
EXTRACT: note_on channel=9 note=70 velocity=61 time=0
EXTRACT: note_on channel=9 note=54 velocity=0 time=0.05208333333333333
EXTRACT: note_on channel=9 note=70 velocity=0 time=0.041666666666666664
EXTRACT: note_on channel=6 note=69 velocity=0 time=0.046875
EXTRACT: note_on channel=9 note=36 velocity=81 time=0.015625
EXTRACT: note_on channel=9 note=39 velocity=84 time=0
EXTRACT: note_on channel=9 note=40 velocity=82 time=0
EXTRACT: note_on channel=9 note=42 velocity=91 time=0
EXTRACT: note_on channel=9 note=54 velocity=61 time=0
EXTRACT: note_on channel=9 note=70 velocity=91 time=0
EXTRACT: note_on channel=3 note=66 velocity=96 time=0
EXTRACT: note_on channel=4 note=66 velocity=81 time=0
EXTRACT: note_on channel=6 note=71 velocity=83 time=0
EXTRACT: note_on channel=9 note=40 velocity=0 time=0.06770833333333333
EXTRACT: note_on channel=9 note=70 velocity=0 time=0.020833333333333332
EXTRACT: note_on channel=9 note=39 velocity=0 time=0.010416666666666666
EXTRACT: note_on channel=9 note=54 velocity=0 time=0
EXTRACT: note_on channel=9 note=42 velocity=0 time=0.03645833333333333
EXTRACT: note_on channel=6 note=71 velocity=0 time=0.015625
EXTRACT: note_on channel=9 note=54 velocity=52 time=0.005208333333333333
EXTRACT: note_on channel=9 note=70 velocity=63 time=0
EXTRACT: note_on channel=7 note=71 velocity=93 time=0
EXTRACT: note_on channel=3 note=66 velocity=0 time=0.06770833333333333
EXTRACT: note_on channel=4 note=66 velocity=0 time=0
EXTRACT: note_on channel=9 note=70 velocity=0 time=0.020833333333333332
EXTRACT: note_on channel=9 note=54 velocity=0 time=0.005208333333333333
EXTRACT: note_on channel=9 note=42 velocity=46 time=0.0625
EXTRACT: note_on channel=9 note=54 velocity=46 time=0
EXTRACT: note_on channel=9 note=70 velocity=80 time=0
EXTRACT: note_on channel=3 note=69 velocity=103 time=0
EXTRACT: note_on channel=4 note=69 velocity=88 time=0
EXTRACT: note_on channel=6 note=74 velocity=91 time=0
EXTRACT: note_on channel=9 note=54 velocity=0 time=0.06770833333333333
EXTRACT: note_on channel=9 note=70 velocity=0 time=0.010416666666666666
EXTRACT: note_on channel=3 note=69 velocity=0 time=0
EXTRACT: note_on channel=4 note=69 velocity=0 time=0
EXTRACT: note_on channel=7 note=71 velocity=0 time=0.020833333333333332
EXTRACT: note_on channel=9 note=42 velocity=0 time=0.015625
EXTRACT: note_on channel=9 note=36 velocity=0 time=0.010416666666666666
EXTRACT: note_on channel=9 note=54 velocity=57 time=0.03125
EXTRACT: note_on channel=9 note=70 velocity=62 time=0
EXTRACT: note_on channel=3 note=71 velocity=105 time=0
EXTRACT: note_on channel=4 note=71 velocity=90 time=0
EXTRACT: note_on channel=9 note=54 velocity=0 time=0.046875
EXTRACT: note_on channel=9 note=70 velocity=0 time=0.046875
EXTRACT: note_on channel=9 note=36 velocity=78 time=0.0625
EXTRACT: note_on channel=9 note=42 velocity=80 time=0
EXTRACT: note_on channel=9 note=54 velocity=54 time=0
EXTRACT: note_on channel=9 note=70 velocity=88 time=0
EXTRACT: note_on channel=7 note=69 velocity=95 time=0
EXTRACT: note_on channel=9 note=54 velocity=0 time=0.09375
EXTRACT: note_on channel=9 note=70 velocity=0 time=0.005208333333333333
EXTRACT: note_on channel=7 note=69 velocity=0 time=0.010416666666666666
EXTRACT: note_on channel=9 note=42 velocity=0 time=0.020833333333333332
EXTRACT: note_on channel=9 note=54 velocity=38 time=0.026041666666666664
EXTRACT: note_on channel=9 note=70 velocity=66 time=0
EXTRACT: note_on channel=7 note=71 velocity=82 time=0
EXTRACT: note_on channel=9 note=70 velocity=0 time=0.07291666666666666
EXTRACT: note_on channel=9 note=54 velocity=0 time=0.005208333333333333
EXTRACT: note_on channel=7 note=71 velocity=0 time=0.005208333333333333
EXTRACT: note_on channel=3 note=71 velocity=0 time=0.06770833333333333
EXTRACT: note_on channel=4 note=71 velocity=0 time=0
EXTRACT: note_on channel=9 note=42 velocity=50 time=0.005208333333333333
EXTRACT: note_on channel=9 note=54 velocity=44 time=0
EXTRACT: note_on channel=9 note=69 velocity=61 time=0
EXTRACT: note_on channel=9 note=70 velocity=61 time=0
EXTRACT: note_on channel=3 note=66 velocity=95 time=0
EXTRACT: note_on channel=4 note=66 velocity=80 time=0
EXTRACT: note_on channel=7 note=71 velocity=87 time=0
EXTRACT: note_on channel=9 note=54 velocity=0 time=0.06770833333333333
EXTRACT: note_on channel=9 note=70 velocity=0 time=0
EXTRACT: note_on channel=9 note=69 velocity=0 time=0.005208333333333333
EXTRACT: note_on channel=9 note=42 velocity=0 time=0.026041666666666664
EXTRACT: note_on channel=7 note=71 velocity=0 time=0
EXTRACT: note_on channel=9 note=36 velocity=0 time=0.020833333333333332
EXTRACT: note_on channel=9 note=54 velocity=36 time=0.03645833333333333
EXTRACT: note_on channel=9 note=69 velocity=48 time=0
EXTRACT: note_on channel=9 note=70 velocity=58 time=0
EXTRACT: note_on channel=7 note=69 velocity=86 time=0
EXTRACT: note_on channel=9 note=54 velocity=0 time=0.05208333333333333
EXTRACT: note_on channel=9 note=69 velocity=0 time=0.015625
EXTRACT: note_on channel=7 note=69 velocity=0 time=0.015625
EXTRACT: note_on channel=9 note=70 velocity=0 time=0.015625
EXTRACT: note_on channel=3 note=66 velocity=0 time=0.05208333333333333
EXTRACT: note_on channel=4 note=66 velocity=0 time=0
EXTRACT: note_on channel=9 note=36 velocity=82 time=0.005208333333333333
EXTRACT: note_on channel=9 note=39 velocity=82 time=0
EXTRACT: note_on channel=9 note=40 velocity=80 time=0
EXTRACT: note_on channel=9 note=42 velocity=84 time=0
EXTRACT: note_on channel=9 note=54 velocity=61 time=0
EXTRACT: note_on channel=9 note=69 velocity=52 time=0
EXTRACT: note_on channel=9 note=70 velocity=89 time=0
EXTRACT: note_on channel=1 note=42 velocity=98 time=0
EXTRACT: note_on channel=3 note=64 velocity=101 time=0
EXTRACT: note_on channel=4 note=64 velocity=86 time=0
EXTRACT: note_on channel=7 note=71 velocity=88 time=0
EXTRACT: note_on channel=9 note=69 velocity=0 time=0.08333333333333333
EXTRACT: note_on channel=9 note=70 velocity=0 time=0.010416666666666666
EXTRACT: note_on channel=9 note=54 velocity=0 time=0.005208333333333333
EXTRACT: note_on channel=9 note=39 velocity=0 time=0.005208333333333333
EXTRACT: note_on channel=7 note=71 velocity=0 time=0
EXTRACT: note_on channel=9 note=40 velocity=0 time=0.005208333333333333
EXTRACT: note_on channel=9 note=42 velocity=0 time=0.041666666666666664
EXTRACT: note_on channel=3 note=64 velocity=0 time=0
EXTRACT: note_on channel=4 note=64 velocity=0 time=0
EXTRACT: note_on channel=9 note=54 velocity=52 time=0.005208333333333333
EXTRACT: note_on channel=9 note=70 velocity=71 time=0
EXTRACT: note_on channel=3 note=66 velocity=88 time=0
EXTRACT: note_on channel=4 note=66 velocity=73 time=0
EXTRACT: note_on channel=9 note=54 velocity=0 time=0.09375
EXTRACT: note_on channel=9 note=70 velocity=0 time=0.005208333333333333
EXTRACT: note_on channel=3 note=66 velocity=0 time=0.010416666666666666
EXTRACT: note_on channel=4 note=66 velocity=0 time=0
EXTRACT: note_on channel=9 note=42 velocity=52 time=0.046875
EXTRACT: note_on channel=9 note=54 velocity=46 time=0
EXTRACT: note_on channel=9 note=70 velocity=71 time=0
EXTRACT: note_on channel=3 note=69 velocity=107 time=0
EXTRACT: note_on channel=4 note=69 velocity=92 time=0
EXTRACT: note_on channel=5 note=52 velocity=59 time=0
EXTRACT: note_on channel=5 note=57 velocity=58 time=0
EXTRACT: note_on channel=5 note=59 velocity=67 time=0
EXTRACT: note_on channel=5 note=62 velocity=63 time=0
EXTRACT: note_on channel=7 note=78 velocity=94 time=0
EXTRACT: note_on channel=9 note=54 velocity=0 time=0.06770833333333333
EXTRACT: note_on channel=9 note=70 velocity=0 time=0.015625
EXTRACT: note_on channel=3 note=69 velocity=0 time=0
EXTRACT: note_on channel=4 note=69 velocity=0 time=0
EXTRACT: note_on channel=2 note=62 velocity=0 time=0.015625
EXTRACT: note_on channel=9 note=42 velocity=0 time=0
EXTRACT: note_on channel=2 note=57 velocity=0 time=0.026041666666666664
EXTRACT: note_on channel=9 note=36 velocity=0 time=0.010416666666666666
EXTRACT: note_on channel=7 note=78 velocity=0 time=0.020833333333333332
EXTRACT: note_on channel=9 note=42 velocity=40 time=0
EXTRACT: note_on channel=9 note=54 velocity=57 time=0
EXTRACT: note_on channel=9 note=70 velocity=61 time=0
EXTRACT: note_on channel=2 note=66 velocity=0 time=0.015625
EXTRACT: note_on channel=1 note=42 velocity=0 time=0.026041666666666664
EXTRACT: note_on channel=9 note=54 velocity=0 time=0.005208333333333333
EXTRACT: note_on channel=6 note=74 velocity=0 time=0.020833333333333332
EXTRACT: note_on channel=5 note=62 velocity=0 time=0.015625
EXTRACT: note_on channel=5 note=59 velocity=0 time=0.005208333333333333
EXTRACT: note_on channel=9 note=42 velocity=0 time=0.010416666666666666
EXTRACT: note_on channel=9 note=70 velocity=0 time=0
EXTRACT: note_on channel=5 note=57 velocity=0 time=0.020833333333333332
EXTRACT: note_on channel=5 note=52 velocity=0 time=0.005208333333333333
EXTRACT: note_on channel=9 note=36 velocity=83 time=0.03125
EXTRACT: note_on channel=9 note=42 velocity=77 time=0
EXTRACT: note_on channel=9 note=54 velocity=54 time=0
EXTRACT: note_on channel=9 note=70 velocity=90 time=0
EXTRACT: note_on channel=1 note=35 velocity=95 time=0
EXTRACT: note_on channel=2 note=57 velocity=82 time=0
EXTRACT: note_on channel=2 note=59 velocity=83 time=0
EXTRACT: note_on channel=2 note=64 velocity=87 time=0
EXTRACT: note_on channel=3 note=66 velocity=103 time=0
EXTRACT: note_on channel=4 note=66 velocity=88 time=0
EXTRACT: note_on channel=6 note=76 velocity=95 time=0
EXTRACT: note_on channel=9 note=54 velocity=0 time=0.09375
EXTRACT: note_on channel=9 note=70 velocity=0 time=0.005208333333333333
EXTRACT: note_on channel=9 note=54 velocity=38 time=0.057291666666666664
EXTRACT: note_on channel=9 note=70 velocity=70 time=0
EXTRACT: note_on channel=9 note=42 velocity=0 time=0.015625
EXTRACT: note_on channel=9 note=70 velocity=0 time=0.03125
EXTRACT: note_on channel=9 note=54 velocity=0 time=0.03125
EXTRACT: note_on channel=3 note=66 velocity=0 time=0.020833333333333332
EXTRACT: note_on channel=4 note=66 velocity=0 time=0
EXTRACT: note_on channel=9 note=42 velocity=54 time=0.057291666666666664
EXTRACT: note_on channel=9 note=54 velocity=44 time=0
EXTRACT: note_on channel=9 note=69 velocity=71 time=0
EXTRACT: note_on channel=9 note=70 velocity=71 time=0
EXTRACT: note_on channel=3 note=69 velocity=104 time=0
EXTRACT: note_on channel=4 note=69 velocity=89 time=0
EXTRACT: note_on channel=7 note=74 velocity=95 time=0
EXTRACT: note_on channel=1 note=35 velocity=0 time=0.041666666666666664
EXTRACT: note_on channel=9 note=54 velocity=0 time=0.026041666666666664
EXTRACT: note_on channel=9 note=69 velocity=0 time=0
EXTRACT: note_on channel=9 note=70 velocity=0 time=0.015625
EXTRACT: note_on channel=7 note=74 velocity=0 time=0
EXTRACT: note_on channel=9 note=36 velocity=0 time=0.020833333333333332
EXTRACT: note_on channel=9 note=42 velocity=0 time=0.005208333333333333
EXTRACT: note_on channel=9 note=54 velocity=36 time=0.046875
EXTRACT: note_on channel=9 note=70 velocity=56 time=0
EXTRACT: note_on channel=3 note=69 velocity=0 time=0.03125
EXTRACT: note_on channel=4 note=69 velocity=0 time=0
EXTRACT: note_on channel=9 note=54 velocity=0 time=0.020833333333333332
EXTRACT: note_on channel=9 note=70 velocity=0 time=0.046875
EXTRACT: note_on channel=9 note=36 velocity=84 time=0.057291666666666664
EXTRACT: note_on channel=9 note=39 velocity=84 time=0
EXTRACT: note_on channel=9 note=40 velocity=82 time=0
EXTRACT: note_on channel=9 note=42 velocity=79 time=0
EXTRACT: note_on channel=9 note=54 velocity=61 time=0
EXTRACT: note_on channel=9 note=70 velocity=87 time=0
EXTRACT: note_on channel=3 note=66 velocity=97 time=0
EXTRACT: note_on channel=4 note=66 velocity=82 time=0
EXTRACT: note_on channel=9 note=40 velocity=0 time=0.06770833333333333
EXTRACT: note_on channel=9 note=70 velocity=0 time=0.026041666666666664
EXTRACT: note_on channel=9 note=39 velocity=0 time=0.005208333333333333
EXTRACT: note_on channel=9 note=54 velocity=0 time=0
EXTRACT: note_on channel=9 note=54 velocity=52 time=0.057291666666666664
EXTRACT: note_on channel=9 note=70 velocity=74 time=0
EXTRACT: note_on channel=7 note=71 velocity=93 time=0
EXTRACT: note_on channel=9 note=42 velocity=0 time=0.020833333333333332
EXTRACT: note_on channel=3 note=66 velocity=0 time=0.07291666666666666
EXTRACT: note_on channel=4 note=66 velocity=0 time=0
EXTRACT: note_on channel=9 note=54 velocity=0 time=0
EXTRACT: note_on channel=9 note=70 velocity=0 time=0.005208333333333333
EXTRACT: note_on channel=9 note=42 velocity=54 time=0.057291666666666664
EXTRACT: note_on channel=9 note=54 velocity=46 time=0
EXTRACT: note_on channel=9 note=69 velocity=64 time=0
EXTRACT: note_on channel=9 note=70 velocity=72 time=0
EXTRACT: note_on channel=1 note=30 velocity=78 time=0
EXTRACT: note_on channel=3 note=69 velocity=100 time=0
EXTRACT: note_on channel=4 note=69 velocity=85 time=0
EXTRACT: note_on channel=9 note=69 velocity=0 time=0.0625
EXTRACT: note_on channel=9 note=54 velocity=0 time=0.005208333333333333
EXTRACT: note_on channel=3 note=69 velocity=0 time=0.010416666666666666
EXTRACT: note_on channel=4 note=69 velocity=0 time=0
EXTRACT: note_on channel=9 note=70 velocity=0 time=0.005208333333333333
EXTRACT: note_on channel=7 note=71 velocity=0 time=0.015625
EXTRACT: note_on channel=9 note=36 velocity=0 time=0.010416666666666666
EXTRACT: note_on channel=9 note=42 velocity=0 time=0.005208333333333333
EXTRACT: note_on channel=9 note=54 velocity=57 time=0.041666666666666664
EXTRACT: note_on channel=9 note=70 velocity=66 time=0
EXTRACT: note_on channel=3 note=71 velocity=104 time=0
EXTRACT: note_on channel=4 note=71 velocity=89 time=0
EXTRACT: note_on channel=2 note=59 velocity=0 time=0.041666666666666664
EXTRACT: note_on channel=2 note=64 velocity=0 time=0
EXTRACT: note_on channel=9 note=54 velocity=0 time=0.005208333333333333
EXTRACT: note_on channel=2 note=57 velocity=0 time=0.020833333333333332
EXTRACT: note_on channel=9 note=70 velocity=0 time=0.03125
EXTRACT: note_on channel=9 note=36 velocity=81 time=0.057291666666666664
EXTRACT: note_on channel=9 note=42 velocity=87 time=0
EXTRACT: note_on channel=9 note=54 velocity=54 time=0
EXTRACT: note_on channel=9 note=70 velocity=93 time=0
EXTRACT: note_on channel=1 note=33 velocity=83 time=0
EXTRACT: note_on channel=2 note=55 velocity=89 time=0
EXTRACT: note_on channel=2 note=59 velocity=80 time=0
EXTRACT: note_on channel=2 note=64 velocity=80 time=0
EXTRACT: note_on channel=7 note=69 velocity=95 time=0
EXTRACT: note_on channel=1 note=30 velocity=0 time=0.005208333333333333
EXTRACT: note_on channel=9 note=54 velocity=0 time=0.08854166666666666
EXTRACT: note_on channel=9 note=70 velocity=0 time=0.015625
EXTRACT: note_on channel=7 note=69 velocity=0 time=0
EXTRACT: note_on channel=3 note=71 velocity=0 time=0.041666666666666664
EXTRACT: note_on channel=4 note=71 velocity=0 time=0
EXTRACT: note_on channel=9 note=42 velocity=0 time=0
EXTRACT: note_on channel=9 note=54 velocity=38 time=0.005208333333333333
EXTRACT: note_on channel=9 note=70 velocity=59 time=0
EXTRACT: note_on channel=3 note=69 velocity=90 time=0
EXTRACT: note_on channel=4 note=69 velocity=75 time=0
EXTRACT: note_on channel=7 note=71 velocity=82 time=0
EXTRACT: note_on channel=9 note=54 velocity=0 time=0.078125
EXTRACT: note_on channel=7 note=71 velocity=0 time=0.005208333333333333
EXTRACT: note_on channel=9 note=70 velocity=0 time=0.010416666666666666
EXTRACT: note_on channel=3 note=69 velocity=0 time=0.005208333333333333
EXTRACT: note_on channel=4 note=69 velocity=0 time=0
EXTRACT: note_on channel=9 note=42 velocity=46 time=0.057291666666666664
EXTRACT: note_on channel=9 note=54 velocity=44 time=0
EXTRACT: note_on channel=9 note=69 velocity=60 time=0
EXTRACT: note_on channel=9 note=70 velocity=78 time=0
EXTRACT: note_on channel=1 note=35 velocity=87 time=0
EXTRACT: note_on channel=3 note=66 velocity=95 time=0
EXTRACT: note_on channel=4 note=66 velocity=80 time=0
EXTRACT: note_on channel=7 note=71 velocity=87 time=0
EXTRACT: note_on channel=1 note=33 velocity=0 time=0.026041666666666664
EXTRACT: note_on channel=9 note=54 velocity=0 time=0.041666666666666664
EXTRACT: note_on channel=9 note=69 velocity=0 time=0.020833333333333332
EXTRACT: note_on channel=9 note=70 velocity=0 time=0.005208333333333333
EXTRACT: note_on channel=7 note=71 velocity=0 time=0.005208333333333333
EXTRACT: note_on channel=9 note=36 velocity=0 time=0.005208333333333333
EXTRACT: note_on channel=9 note=42 velocity=0 time=0.020833333333333332
EXTRACT: note_on channel=1 note=35 velocity=0 time=0.010416666666666666
EXTRACT: note_on channel=9 note=54 velocity=36 time=0.020833333333333332
EXTRACT: note_on channel=9 note=69 velocity=55 time=0
EXTRACT: note_on channel=9 note=70 velocity=74 time=0
EXTRACT: note_on channel=7 note=69 velocity=86 time=0
EXTRACT: note_on channel=9 note=54 velocity=0 time=0.05208333333333333
EXTRACT: note_on channel=9 note=69 velocity=0 time=0.03125
EXTRACT: note_on channel=7 note=69 velocity=0 time=0
EXTRACT: note_on channel=9 note=70 velocity=0 time=0.005208333333333333
EXTRACT: note_on channel=3 note=66 velocity=0 time=0.0625
EXTRACT: note_on channel=4 note=66 velocity=0 time=0
EXTRACT: note_on channel=9 note=36 velocity=82 time=0.005208333333333333
EXTRACT: note_on channel=9 note=39 velocity=82 time=0
EXTRACT: note_on channel=9 note=40 velocity=80 time=0
EXTRACT: note_on channel=9 note=42 velocity=78 time=0
EXTRACT: note_on channel=9 note=54 velocity=61 time=0
EXTRACT: note_on channel=9 note=69 velocity=50 time=0
EXTRACT: note_on channel=9 note=70 velocity=87 time=0
EXTRACT: note_on channel=1 note=35 velocity=93 time=0
EXTRACT: note_on channel=3 note=62 velocity=104 time=0
EXTRACT: note_on channel=4 note=62 velocity=89 time=0
EXTRACT: note_on channel=7 note=71 velocity=91 time=0
EXTRACT: note_on channel=9 note=69 velocity=0 time=0.08854166666666666
EXTRACT: note_on channel=3 note=62 velocity=0 time=0.005208333333333333
EXTRACT: note_on channel=4 note=62 velocity=0 time=0
EXTRACT: note_on channel=9 note=54 velocity=0 time=0.005208333333333333
EXTRACT: note_on channel=9 note=70 velocity=0 time=0
EXTRACT: note_on channel=9 note=39 velocity=0 time=0.005208333333333333
EXTRACT: note_on channel=9 note=40 velocity=0 time=0.005208333333333333
EXTRACT: note_on channel=7 note=71 velocity=0 time=0.03645833333333333
EXTRACT: note_on channel=9 note=42 velocity=0 time=0.005208333333333333
EXTRACT: note_on channel=1 note=35 velocity=0 time=0
EXTRACT: note_on channel=9 note=54 velocity=52 time=0.005208333333333333
EXTRACT: note_on channel=9 note=70 velocity=74 time=0
EXTRACT: note_on channel=1 note=33 velocity=74 time=0
EXTRACT: note_on channel=3 note=62 velocity=101 time=0
EXTRACT: note_on channel=4 note=62 velocity=86 time=0
EXTRACT: note_on channel=7 note=71 velocity=88 time=0
EXTRACT: note_on channel=9 note=54 velocity=0 time=0.09375
EXTRACT: note_on channel=9 note=70 velocity=0 time=0
EXTRACT: note_on channel=3 note=62 velocity=0 time=0
EXTRACT: note_on channel=4 note=62 velocity=0 time=0
EXTRACT: note_on channel=7 note=71 velocity=0 time=0.010416666666666666
EXTRACT: note_on channel=1 note=33 velocity=0 time=0.046875
EXTRACT: note_on channel=9 note=46 velocity=49 time=0.005208333333333333
EXTRACT: note_on channel=9 note=54 velocity=46 time=0
EXTRACT: note_on channel=9 note=70 velocity=58 time=0
EXTRACT: note_on channel=1 note=29 velocity=82 time=0
EXTRACT: note_on channel=3 note=62 velocity=95 time=0
EXTRACT: note_on channel=4 note=62 velocity=80 time=0
EXTRACT: note_on channel=7 note=74 velocity=94 time=0
EXTRACT: note_on channel=6 note=76 velocity=0 time=0.046875
EXTRACT: note_on channel=9 note=54 velocity=0 time=0.020833333333333332
EXTRACT: note_on channel=9 note=46 velocity=0 time=0.026041666666666664
EXTRACT: note_on channel=3 note=62 velocity=0 time=0
EXTRACT: note_on channel=4 note=62 velocity=0 time=0
EXTRACT: note_on channel=9 note=70 velocity=0 time=0.005208333333333333
EXTRACT: note_on channel=1 note=29 velocity=0 time=0.026041666666666664
EXTRACT: note_on channel=2 note=59 velocity=0 time=0.005208333333333333
EXTRACT: note_on channel=9 note=54 velocity=57 time=0.026041666666666664
EXTRACT: note_on channel=9 note=70 velocity=61 time=0
EXTRACT: note_on channel=1 note=30 velocity=80 time=0
EXTRACT: note_on channel=3 note=62 velocity=96 time=0
EXTRACT: note_on channel=4 note=62 velocity=81 time=0
EXTRACT: note_on channel=7 note=74 velocity=0 time=0.005208333333333333
EXTRACT: note_on channel=2 note=64 velocity=0 time=0.010416666666666666
EXTRACT: note_on channel=9 note=36 velocity=0 time=0.005208333333333333
EXTRACT: note_on channel=2 note=55 velocity=0 time=0.010416666666666666
EXTRACT: note_on channel=9 note=54 velocity=0 time=0.015625
EXTRACT: note_on channel=9 note=70 velocity=0 time=0.041666666666666664
EXTRACT: note_on channel=3 note=62 velocity=0 time=0.015625
EXTRACT: note_on channel=4 note=62 velocity=0 time=0
EXTRACT: note_on channel=1 note=30 velocity=0 time=0.005208333333333333
EXTRACT: note_on channel=9 note=36 velocity=77 time=0.046875
EXTRACT: note_on channel=9 note=42 velocity=88 time=0
EXTRACT: note_on channel=9 note=54 velocity=54 time=0
EXTRACT: note_on channel=9 note=70 velocity=87 time=0
EXTRACT: note_on channel=1 note=35 velocity=103 time=0
EXTRACT: note_on channel=2 note=54 velocity=87 time=0
EXTRACT: note_on channel=2 note=59 velocity=81 time=0
EXTRACT: note_on channel=2 note=62 velocity=83 time=0
EXTRACT: note_on channel=3 note=59 velocity=91 time=0
EXTRACT: note_on channel=4 note=59 velocity=76 time=0
EXTRACT: note_on channel=5 note=57 velocity=63 time=0
EXTRACT: note_on channel=5 note=59 velocity=67 time=0
EXTRACT: note_on channel=5 note=62 velocity=66 time=0
EXTRACT: note_on channel=6 note=66 velocity=87 time=0
EXTRACT: note_on channel=10 note=81 velocity=71 time=0
EXTRACT: note_on channel=9 note=70 velocity=0 time=0.08333333333333333
EXTRACT: note_on channel=9 note=54 velocity=0 time=0.010416666666666666
EXTRACT: note_on channel=9 note=42 velocity=0 time=0.010416666666666666
EXTRACT: note_on channel=9 note=54 velocity=38 time=0.05208333333333333
EXTRACT: note_on channel=9 note=70 velocity=63 time=0
EXTRACT: note_on channel=5 note=59 velocity=0 time=0.046875
EXTRACT: note_on channel=5 note=62 velocity=0 time=0
EXTRACT: note_on channel=9 note=54 velocity=0 time=0.03125
EXTRACT: note_on channel=5 note=57 velocity=0 time=0.020833333333333332
EXTRACT: note_on channel=9 note=70 velocity=0 time=0.005208333333333333
EXTRACT: note_on channel=3 note=59 velocity=0 time=0.046875
EXTRACT: note_on channel=4 note=59 velocity=0 time=0
EXTRACT: note_on channel=9 note=42 velocity=46 time=0.005208333333333333
EXTRACT: note_on channel=9 note=54 velocity=44 time=0
EXTRACT: note_on channel=9 note=69 velocity=68 time=0
EXTRACT: note_on channel=9 note=70 velocity=46 time=0
EXTRACT: note_on channel=3 note=66 velocity=113 time=0
EXTRACT: note_on channel=4 note=66 velocity=98 time=0
EXTRACT: note_on channel=6 note=71 velocity=76 time=0
EXTRACT: note_on channel=7 note=74 velocity=95 time=0
EXTRACT: note_on channel=9 note=70 velocity=0 time=0.046875
EXTRACT: note_on channel=9 note=69 velocity=0 time=0.010416666666666666
EXTRACT: note_on channel=9 note=54 velocity=0 time=0.010416666666666666
EXTRACT: note_on channel=9 note=42 velocity=0 time=0.015625
EXTRACT: note_on channel=3 note=66 velocity=0 time=0
EXTRACT: note_on channel=4 note=66 velocity=0 time=0
EXTRACT: note_on channel=7 note=74 velocity=0 time=0
EXTRACT: note_on channel=9 note=36 velocity=0 time=0.041666666666666664
EXTRACT: note_on channel=1 note=35 velocity=0 time=0
EXTRACT: note_on channel=9 note=54 velocity=36 time=0.03125
EXTRACT: note_on channel=9 note=70 velocity=61 time=0
EXTRACT: note_on channel=3 note=66 velocity=94 time=0
EXTRACT: note_on channel=4 note=66 velocity=79 time=0
EXTRACT: note_on channel=9 note=54 velocity=0 time=0.05208333333333333
EXTRACT: note_on channel=3 note=66 velocity=0 time=0.026041666666666664
EXTRACT: note_on channel=4 note=66 velocity=0 time=0
EXTRACT: note_on channel=9 note=70 velocity=0 time=0.015625
EXTRACT: note_on channel=9 note=36 velocity=81 time=0.0625
EXTRACT: note_on channel=9 note=39 velocity=84 time=0
EXTRACT: note_on channel=9 note=40 velocity=82 time=0
EXTRACT: note_on channel=9 note=42 velocity=91 time=0
EXTRACT: note_on channel=9 note=54 velocity=61 time=0
EXTRACT: note_on channel=9 note=70 velocity=91 time=0
EXTRACT: note_on channel=3 note=66 velocity=101 time=0
EXTRACT: note_on channel=4 note=66 velocity=86 time=0
EXTRACT: note_on channel=9 note=40 velocity=0 time=0.06770833333333333
EXTRACT: note_on channel=9 note=70 velocity=0 time=0.020833333333333332
EXTRACT: note_on channel=9 note=39 velocity=0 time=0.010416666666666666
EXTRACT: note_on channel=9 note=54 velocity=0 time=0
EXTRACT: note_on channel=9 note=42 velocity=0 time=0.03645833333333333
EXTRACT: note_on channel=9 note=54 velocity=52 time=0.020833333333333332
EXTRACT: note_on channel=9 note=70 velocity=63 time=0
EXTRACT: note_on channel=7 note=71 velocity=93 time=0
EXTRACT: note_on channel=9 note=70 velocity=0 time=0.08854166666666666
EXTRACT: note_on channel=9 note=54 velocity=0 time=0.005208333333333333
EXTRACT: note_on channel=3 note=66 velocity=0 time=0.005208333333333333
EXTRACT: note_on channel=4 note=66 velocity=0 time=0
EXTRACT: note_on channel=9 note=42 velocity=46 time=0.057291666666666664
EXTRACT: note_on channel=9 note=54 velocity=46 time=0
EXTRACT: note_on channel=9 note=70 velocity=80 time=0
EXTRACT: note_on channel=3 note=66 velocity=98 time=0
EXTRACT: note_on channel=4 note=66 velocity=83 time=0
EXTRACT: note_on channel=6 note=78 velocity=74 time=0
EXTRACT: note_on channel=9 note=54 velocity=0 time=0.06770833333333333
EXTRACT: note_on channel=9 note=70 velocity=0 time=0.010416666666666666
EXTRACT: note_on channel=3 note=66 velocity=0 time=0
EXTRACT: note_on channel=4 note=66 velocity=0 time=0
EXTRACT: note_on channel=7 note=71 velocity=0 time=0.020833333333333332
EXTRACT: note_on channel=9 note=42 velocity=0 time=0.015625
EXTRACT: note_on channel=9 note=36 velocity=0 time=0.010416666666666666
EXTRACT: note_on channel=2 note=62 velocity=0 time=0.020833333333333332
EXTRACT: note_on channel=9 note=54 velocity=57 time=0.010416666666666666
EXTRACT: note_on channel=9 note=70 velocity=62 time=0
EXTRACT: note_on channel=3 note=66 velocity=104 time=0
EXTRACT: note_on channel=4 note=66 velocity=89 time=0
EXTRACT: note_on channel=2 note=59 velocity=0 time=0.015625
EXTRACT: note_on channel=9 note=54 velocity=0 time=0.03125
EXTRACT: note_on channel=2 note=54 velocity=0 time=0.020833333333333332
EXTRACT: note_on channel=9 note=70 velocity=0 time=0.026041666666666664
EXTRACT: note_on channel=9 note=36 velocity=78 time=0.0625
EXTRACT: note_on channel=9 note=42 velocity=80 time=0
EXTRACT: note_on channel=9 note=54 velocity=54 time=0
EXTRACT: note_on channel=9 note=70 velocity=88 time=0
EXTRACT: note_on channel=2 note=57 velocity=84 time=0
EXTRACT: note_on channel=2 note=61 velocity=81 time=0
EXTRACT: note_on channel=2 note=64 velocity=83 time=0
EXTRACT: note_on channel=7 note=69 velocity=95 time=0
EXTRACT: note_on channel=9 note=54 velocity=0 time=0.09375
EXTRACT: note_on channel=6 note=66 velocity=0 time=0.005208333333333333
EXTRACT: note_on channel=9 note=70 velocity=0 time=0
EXTRACT: note_on channel=3 note=66 velocity=0 time=0.005208333333333333
EXTRACT: note_on channel=4 note=66 velocity=0 time=0
EXTRACT: note_on channel=6 note=71 velocity=0 time=0.005208333333333333
EXTRACT: note_on channel=6 note=78 velocity=0 time=0
EXTRACT: note_on channel=7 note=69 velocity=0 time=0
EXTRACT: note_on channel=9 note=42 velocity=0 time=0.020833333333333332
EXTRACT: note_on channel=9 note=54 velocity=38 time=0.026041666666666664
EXTRACT: note_on channel=9 note=70 velocity=66 time=0
EXTRACT: note_on channel=3 note=66 velocity=97 time=0
EXTRACT: note_on channel=4 note=66 velocity=82 time=0
EXTRACT: note_on channel=7 note=71 velocity=82 time=0
EXTRACT: note_on channel=9 note=70 velocity=0 time=0.07291666666666666
EXTRACT: note_on channel=9 note=54 velocity=0 time=0.005208333333333333
EXTRACT: note_on channel=7 note=71 velocity=0 time=0.005208333333333333
EXTRACT: note_on channel=3 note=66 velocity=0 time=0.05208333333333333
EXTRACT: note_on channel=4 note=66 velocity=0 time=0
EXTRACT: note_on channel=9 note=42 velocity=50 time=0.020833333333333332
EXTRACT: note_on channel=9 note=54 velocity=44 time=0
EXTRACT: note_on channel=9 note=69 velocity=61 time=0
EXTRACT: note_on channel=9 note=70 velocity=61 time=0
EXTRACT: note_on channel=3 note=69 velocity=107 time=0
EXTRACT: note_on channel=4 note=69 velocity=92 time=0
EXTRACT: note_on channel=7 note=71 velocity=87 time=0
EXTRACT: note_on channel=9 note=54 velocity=0 time=0.06770833333333333
EXTRACT: note_on channel=9 note=70 velocity=0 time=0
EXTRACT: note_on channel=9 note=69 velocity=0 time=0.005208333333333333
EXTRACT: note_on channel=9 note=42 velocity=0 time=0.026041666666666664
EXTRACT: note_on channel=7 note=71 velocity=0 time=0
EXTRACT: note_on channel=9 note=36 velocity=0 time=0.020833333333333332
EXTRACT: note_on channel=9 note=54 velocity=36 time=0.03645833333333333
EXTRACT: note_on channel=9 note=69 velocity=48 time=0
EXTRACT: note_on channel=9 note=70 velocity=58 time=0
EXTRACT: note_on channel=7 note=69 velocity=86 time=0
EXTRACT: note_on channel=9 note=54 velocity=0 time=0.05208333333333333
EXTRACT: note_on channel=9 note=69 velocity=0 time=0.015625
EXTRACT: note_on channel=3 note=69 velocity=0 time=0.005208333333333333
EXTRACT: note_on channel=4 note=69 velocity=0 time=0
EXTRACT: note_on channel=7 note=69 velocity=0 time=0.010416666666666666
EXTRACT: note_on channel=9 note=70 velocity=0 time=0.015625
EXTRACT: note_on channel=9 note=36 velocity=82 time=0.057291666666666664
EXTRACT: note_on channel=9 note=39 velocity=82 time=0
EXTRACT: note_on channel=9 note=40 velocity=80 time=0
EXTRACT: note_on channel=9 note=42 velocity=84 time=0
EXTRACT: note_on channel=9 note=54 velocity=61 time=0
EXTRACT: note_on channel=9 note=69 velocity=52 time=0
EXTRACT: note_on channel=9 note=70 velocity=89 time=0
EXTRACT: note_on channel=1 note=42 velocity=97 time=0
EXTRACT: note_on channel=3 note=69 velocity=98 time=0
EXTRACT: note_on channel=4 note=69 velocity=83 time=0
EXTRACT: note_on channel=6 note=79 velocity=98 time=0
EXTRACT: note_on channel=7 note=71 velocity=88 time=0
EXTRACT: note_on channel=9 note=69 velocity=0 time=0.08333333333333333
EXTRACT: note_on channel=9 note=70 velocity=0 time=0.010416666666666666
EXTRACT: note_on channel=3 note=69 velocity=0 time=0
EXTRACT: note_on channel=4 note=69 velocity=0 time=0
EXTRACT: note_on channel=9 note=54 velocity=0 time=0.005208333333333333
EXTRACT: note_on channel=9 note=39 velocity=0 time=0.005208333333333333
EXTRACT: note_on channel=7 note=71 velocity=0 time=0
EXTRACT: note_on channel=9 note=40 velocity=0 time=0.005208333333333333
EXTRACT: note_on channel=9 note=42 velocity=0 time=0.041666666666666664
EXTRACT: note_on channel=9 note=54 velocity=52 time=0.005208333333333333
EXTRACT: note_on channel=9 note=70 velocity=71 time=0
EXTRACT: note_on channel=3 note=69 velocity=101 time=0
EXTRACT: note_on channel=4 note=69 velocity=86 time=0
EXTRACT: note_on channel=3 note=69 velocity=0 time=0.08854166666666666
EXTRACT: note_on channel=4 note=69 velocity=0 time=0
EXTRACT: note_on channel=9 note=54 velocity=0 time=0.005208333333333333
EXTRACT: note_on channel=9 note=70 velocity=0 time=0.005208333333333333
EXTRACT: note_on channel=9 note=42 velocity=52 time=0.057291666666666664
EXTRACT: note_on channel=9 note=54 velocity=46 time=0
EXTRACT: note_on channel=9 note=70 velocity=71 time=0
EXTRACT: note_on channel=3 note=71 velocity=107 time=0
EXTRACT: note_on channel=4 note=71 velocity=92 time=0
EXTRACT: note_on channel=5 note=52 velocity=59 time=0
EXTRACT: note_on channel=5 note=57 velocity=58 time=0
EXTRACT: note_on channel=5 note=59 velocity=67 time=0
EXTRACT: note_on channel=5 note=62 velocity=63 time=0
EXTRACT: note_on channel=7 note=78 velocity=94 time=0
EXTRACT: note_on channel=9 note=54 velocity=0 time=0.06770833333333333
EXTRACT: note_on channel=9 note=70 velocity=0 time=0.015625
EXTRACT: note_on channel=9 note=42 velocity=0 time=0.015625
EXTRACT: note_on channel=9 note=36 velocity=0 time=0.03645833333333333
EXTRACT: note_on channel=7 note=78 velocity=0 time=0.020833333333333332
EXTRACT: note_on channel=9 note=42 velocity=40 time=0
EXTRACT: note_on channel=9 note=54 velocity=57 time=0
EXTRACT: note_on channel=9 note=70 velocity=61 time=0
EXTRACT: note_on channel=1 note=42 velocity=0 time=0.041666666666666664
EXTRACT: note_on channel=9 note=54 velocity=0 time=0.005208333333333333
EXTRACT: note_on channel=2 note=61 velocity=0 time=0.03125
EXTRACT: note_on channel=5 note=62 velocity=0 time=0.005208333333333333
EXTRACT: note_on channel=5 note=59 velocity=0 time=0.005208333333333333
EXTRACT: note_on channel=2 note=64 velocity=0 time=0.005208333333333333
EXTRACT: note_on channel=2 note=57 velocity=0 time=0.005208333333333333
EXTRACT: note_on channel=9 note=42 velocity=0 time=0
EXTRACT: note_on channel=9 note=70 velocity=0 time=0
EXTRACT: note_on channel=6 note=79 velocity=0 time=0.010416666666666666
EXTRACT: note_on channel=5 note=57 velocity=0 time=0.010416666666666666
EXTRACT: note_on channel=3 note=71 velocity=0 time=0.005208333333333333
EXTRACT: note_on channel=4 note=71 velocity=0 time=0
EXTRACT: note_on channel=5 note=52 velocity=0 time=0
EXTRACT: note_on channel=9 note=36 velocity=83 time=0.03125
EXTRACT: note_on channel=9 note=42 velocity=77 time=0
EXTRACT: note_on channel=9 note=54 velocity=54 time=0
EXTRACT: note_on channel=9 note=70 velocity=90 time=0
EXTRACT: note_on channel=1 note=35 velocity=94 time=0
EXTRACT: note_on channel=2 note=54 velocity=75 time=0
EXTRACT: note_on channel=2 note=59 velocity=81 time=0
EXTRACT: note_on channel=2 note=62 velocity=84 time=0
EXTRACT: note_on channel=3 note=66 velocity=110 time=0
EXTRACT: note_on channel=4 note=66 velocity=95 time=0
EXTRACT: note_on channel=6 note=78 velocity=96 time=0
EXTRACT: note_on channel=9 note=54 velocity=0 time=0.09375
EXTRACT: note_on channel=9 note=70 velocity=0 time=0.005208333333333333
EXTRACT: note_on channel=9 note=54 velocity=38 time=0.057291666666666664
EXTRACT: note_on channel=9 note=70 velocity=70 time=0
EXTRACT: note_on channel=9 note=42 velocity=0 time=0.015625
EXTRACT: note_on channel=3 note=66 velocity=0 time=0.015625
EXTRACT: note_on channel=4 note=66 velocity=0 time=0
EXTRACT: note_on channel=9 note=70 velocity=0 time=0.015625
EXTRACT: note_on channel=9 note=54 velocity=0 time=0.03125
EXTRACT: note_on channel=9 note=42 velocity=54 time=0.078125
EXTRACT: note_on channel=9 note=54 velocity=44 time=0
EXTRACT: note_on channel=9 note=69 velocity=71 time=0
EXTRACT: note_on channel=9 note=70 velocity=71 time=0
EXTRACT: note_on channel=3 note=66 velocity=103 time=0
EXTRACT: note_on channel=4 note=66 velocity=88 time=0
EXTRACT: note_on channel=7 note=74 velocity=95 time=0
EXTRACT: note_on channel=9 note=54 velocity=0 time=0.06770833333333333
EXTRACT: note_on channel=9 note=69 velocity=0 time=0
EXTRACT: note_on channel=9 note=70 velocity=0 time=0.015625
EXTRACT: note_on channel=7 note=74 velocity=0 time=0
EXTRACT: note_on channel=1 note=35 velocity=0 time=0.005208333333333333
EXTRACT: note_on channel=9 note=36 velocity=0 time=0.015625
EXTRACT: note_on channel=9 note=42 velocity=0 time=0.005208333333333333
EXTRACT: note_on channel=9 note=54 velocity=36 time=0.046875
EXTRACT: note_on channel=9 note=70 velocity=56 time=0
EXTRACT: note_on channel=3 note=66 velocity=0 time=0.046875
EXTRACT: note_on channel=4 note=66 velocity=0 time=0
EXTRACT: note_on channel=9 note=54 velocity=0 time=0.005208333333333333
EXTRACT: note_on channel=9 note=70 velocity=0 time=0.046875
EXTRACT: note_on channel=9 note=36 velocity=84 time=0.057291666666666664
EXTRACT: note_on channel=9 note=39 velocity=84 time=0
EXTRACT: note_on channel=9 note=40 velocity=82 time=0
EXTRACT: note_on channel=9 note=42 velocity=79 time=0
EXTRACT: note_on channel=9 note=54 velocity=61 time=0
EXTRACT: note_on channel=9 note=70 velocity=87 time=0
EXTRACT: note_on channel=3 note=66 velocity=105 time=0
EXTRACT: note_on channel=4 note=66 velocity=90 time=0
EXTRACT: note_on channel=9 note=40 velocity=0 time=0.06770833333333333
EXTRACT: note_on channel=9 note=70 velocity=0 time=0.026041666666666664
EXTRACT: note_on channel=9 note=39 velocity=0 time=0.005208333333333333
EXTRACT: note_on channel=9 note=54 velocity=0 time=0
EXTRACT: note_on channel=9 note=54 velocity=52 time=0.057291666666666664
EXTRACT: note_on channel=9 note=70 velocity=74 time=0
EXTRACT: note_on channel=7 note=71 velocity=93 time=0
EXTRACT: note_on channel=9 note=42 velocity=0 time=0.020833333333333332
EXTRACT: note_on channel=9 note=54 velocity=0 time=0.07291666666666666
EXTRACT: note_on channel=3 note=66 velocity=0 time=0.005208333333333333
EXTRACT: note_on channel=4 note=66 velocity=0 time=0
EXTRACT: note_on channel=9 note=70 velocity=0 time=0
EXTRACT: note_on channel=9 note=42 velocity=54 time=0.057291666666666664
EXTRACT: note_on channel=9 note=54 velocity=46 time=0
EXTRACT: note_on channel=9 note=69 velocity=64 time=0
EXTRACT: note_on channel=9 note=70 velocity=72 time=0
EXTRACT: note_on channel=1 note=33 velocity=98 time=0
EXTRACT: note_on channel=3 note=66 velocity=93 time=0
EXTRACT: note_on channel=4 note=66 velocity=78 time=0
EXTRACT: note_on channel=9 note=69 velocity=0 time=0.0625
EXTRACT: note_on channel=9 note=54 velocity=0 time=0.005208333333333333
EXTRACT: note_on channel=3 note=66 velocity=0 time=0.010416666666666666
EXTRACT: note_on channel=4 note=66 velocity=0 time=0
EXTRACT: note_on channel=9 note=70 velocity=0 time=0.005208333333333333
EXTRACT: note_on channel=7 note=71 velocity=0 time=0.015625
EXTRACT: note_on channel=9 note=36 velocity=0 time=0.010416666666666666
EXTRACT: note_on channel=9 note=42 velocity=0 time=0.005208333333333333
EXTRACT: note_on channel=9 note=54 velocity=57 time=0.041666666666666664
EXTRACT: note_on channel=9 note=70 velocity=66 time=0
EXTRACT: note_on channel=3 note=66 velocity=102 time=0
EXTRACT: note_on channel=4 note=66 velocity=87 time=0
EXTRACT: note_on channel=9 note=54 velocity=0 time=0.046875
EXTRACT: note_on channel=9 note=70 velocity=0 time=0.05208333333333333
EXTRACT: note_on channel=1 note=33 velocity=0 time=0.05208333333333333
EXTRACT: note_on channel=9 note=36 velocity=81 time=0.005208333333333333
EXTRACT: note_on channel=9 note=42 velocity=87 time=0
EXTRACT: note_on channel=9 note=54 velocity=54 time=0
EXTRACT: note_on channel=9 note=70 velocity=93 time=0
EXTRACT: note_on channel=1 note=35 velocity=98 time=0
EXTRACT: note_on channel=7 note=69 velocity=95 time=0
EXTRACT: note_on channel=3 note=66 velocity=0 time=0.046875
EXTRACT: note_on channel=4 note=66 velocity=0 time=0
EXTRACT: note_on channel=9 note=54 velocity=0 time=0.046875
EXTRACT: note_on channel=9 note=70 velocity=0 time=0.015625
EXTRACT: note_on channel=7 note=69 velocity=0 time=0
EXTRACT: note_on channel=9 note=42 velocity=0 time=0.041666666666666664
EXTRACT: note_on channel=9 note=54 velocity=38 time=0.005208333333333333
EXTRACT: note_on channel=9 note=70 velocity=59 time=0
EXTRACT: note_on channel=3 note=66 velocity=104 time=0
EXTRACT: note_on channel=4 note=66 velocity=89 time=0
EXTRACT: note_on channel=7 note=71 velocity=82 time=0
EXTRACT: note_on channel=9 note=54 velocity=0 time=0.078125
EXTRACT: note_on channel=7 note=71 velocity=0 time=0.005208333333333333
EXTRACT: note_on channel=9 note=70 velocity=0 time=0.010416666666666666
EXTRACT: note_on channel=3 note=66 velocity=0 time=0.026041666666666664
EXTRACT: note_on channel=4 note=66 velocity=0 time=0
EXTRACT: note_on channel=1 note=35 velocity=0 time=0.03125
EXTRACT: note_on channel=9 note=42 velocity=46 time=0.005208333333333333
EXTRACT: note_on channel=9 note=54 velocity=44 time=0
EXTRACT: note_on channel=9 note=69 velocity=60 time=0
EXTRACT: note_on channel=9 note=70 velocity=78 time=0
EXTRACT: note_on channel=3 note=69 velocity=102 time=0
EXTRACT: note_on channel=4 note=69 velocity=87 time=0
EXTRACT: note_on channel=7 note=71 velocity=87 time=0
EXTRACT: note_on channel=9 note=54 velocity=0 time=0.06770833333333333
EXTRACT: note_on channel=9 note=69 velocity=0 time=0.020833333333333332
EXTRACT: note_on channel=9 note=70 velocity=0 time=0.005208333333333333
EXTRACT: note_on channel=7 note=71 velocity=0 time=0.005208333333333333
EXTRACT: note_on channel=9 note=36 velocity=0 time=0.005208333333333333
EXTRACT: note_on channel=2 note=54 velocity=0 time=0.020833333333333332
EXTRACT: note_on channel=9 note=42 velocity=0 time=0
EXTRACT: note_on channel=2 note=62 velocity=0 time=0.020833333333333332
EXTRACT: note_on channel=2 note=59 velocity=0 time=0.005208333333333333
EXTRACT: note_on channel=9 note=54 velocity=36 time=0.005208333333333333
EXTRACT: note_on channel=9 note=69 velocity=55 time=0
EXTRACT: note_on channel=9 note=70 velocity=74 time=0
EXTRACT: note_on channel=7 note=69 velocity=86 time=0
EXTRACT: note_on channel=9 note=54 velocity=0 time=0.05208333333333333
EXTRACT: note_on channel=3 note=69 velocity=0 time=0.010416666666666666
EXTRACT: note_on channel=4 note=69 velocity=0 time=0
EXTRACT: note_on channel=9 note=69 velocity=0 time=0.020833333333333332
EXTRACT: note_on channel=7 note=69 velocity=0 time=0
EXTRACT: note_on channel=9 note=70 velocity=0 time=0.005208333333333333
EXTRACT: note_on channel=9 note=36 velocity=82 time=0.06770833333333333
EXTRACT: note_on channel=9 note=39 velocity=82 time=0
EXTRACT: note_on channel=9 note=40 velocity=80 time=0
EXTRACT: note_on channel=9 note=42 velocity=78 time=0
EXTRACT: note_on channel=9 note=54 velocity=61 time=0
EXTRACT: note_on channel=9 note=69 velocity=50 time=0
EXTRACT: note_on channel=9 note=70 velocity=87 time=0
EXTRACT: note_on channel=3 note=69 velocity=100 time=0
EXTRACT: note_on channel=4 note=69 velocity=85 time=0
EXTRACT: note_on channel=7 note=71 velocity=88 time=0
EXTRACT: note_on channel=3 note=69 velocity=0 time=0.08333333333333333
EXTRACT: note_on channel=4 note=69 velocity=0 time=0
EXTRACT: note_on channel=9 note=69 velocity=0 time=0.005208333333333333
EXTRACT: note_on channel=9 note=54 velocity=0 time=0.010416666666666666
EXTRACT: note_on channel=9 note=70 velocity=0 time=0
EXTRACT: note_on channel=9 note=39 velocity=0 time=0.005208333333333333
EXTRACT: note_on channel=7 note=71 velocity=0 time=0
EXTRACT: note_on channel=9 note=40 velocity=0 time=0.005208333333333333
EXTRACT: note_on channel=6 note=78 velocity=0 time=0.015625
EXTRACT: note_on channel=9 note=42 velocity=0 time=0.026041666666666664
EXTRACT: note_on channel=9 note=54 velocity=52 time=0.005208333333333333
EXTRACT: note_on channel=9 note=70 velocity=74 time=0
EXTRACT: note_on channel=3 note=69 velocity=95 time=0
EXTRACT: note_on channel=4 note=69 velocity=80 time=0
EXTRACT: note_on channel=3 note=69 velocity=0 time=0.08333333333333333
EXTRACT: note_on channel=4 note=69 velocity=0 time=0
EXTRACT: note_on channel=9 note=54 velocity=0 time=0.010416666666666666
EXTRACT: note_on channel=9 note=70 velocity=0 time=0
EXTRACT: note_on channel=9 note=46 velocity=49 time=0.0625
EXTRACT: note_on channel=9 note=54 velocity=46 time=0
EXTRACT: note_on channel=9 note=70 velocity=58 time=0
EXTRACT: note_on channel=1 note=33 velocity=103 time=0
EXTRACT: note_on channel=3 note=69 velocity=103 time=0
EXTRACT: note_on channel=4 note=69 velocity=88 time=0
EXTRACT: note_on channel=7 note=78 velocity=94 time=0
EXTRACT: note_on channel=9 note=54 velocity=0 time=0.06770833333333333
EXTRACT: note_on channel=9 note=46 velocity=0 time=0.026041666666666664
EXTRACT: note_on channel=9 note=70 velocity=0 time=0.005208333333333333
EXTRACT: note_on channel=7 note=78 velocity=0 time=0.057291666666666664
EXTRACT: note_on channel=9 note=54 velocity=57 time=0
EXTRACT: note_on channel=9 note=70 velocity=61 time=0
EXTRACT: note_on channel=1 note=34 velocity=85 time=0
EXTRACT: note_on channel=9 note=36 velocity=0 time=0.020833333333333332
EXTRACT: note_on channel=1 note=33 velocity=0 time=0.015625
EXTRACT: note_on channel=9 note=54 velocity=0 time=0.010416666666666666
EXTRACT: note_on channel=9 note=70 velocity=0 time=0.041666666666666664
EXTRACT: note_on channel=3 note=69 velocity=0 time=0.03645833333333333
EXTRACT: note_on channel=4 note=69 velocity=0 time=0
EXTRACT: note_on channel=1 note=34 velocity=0 time=0.010416666666666666
EXTRACT: note_on channel=9 note=36 velocity=77 time=0.020833333333333332
EXTRACT: note_on channel=9 note=42 velocity=88 time=0
EXTRACT: note_on channel=9 note=54 velocity=54 time=0
EXTRACT: note_on channel=9 note=70 velocity=87 time=0
EXTRACT: note_on channel=1 note=35 velocity=102 time=0
EXTRACT: note_on channel=2 note=57 velocity=83 time=0
EXTRACT: note_on channel=2 note=62 velocity=81 time=0
EXTRACT: note_on channel=2 note=66 velocity=78 time=0
EXTRACT: note_on channel=3 note=66 velocity=109 time=0
EXTRACT: note_on channel=4 note=66 velocity=94 time=0
EXTRACT: note_on channel=5 note=57 velocity=63 time=0
EXTRACT: note_on channel=5 note=59 velocity=67 time=0
EXTRACT: note_on channel=5 note=62 velocity=66 time=0
EXTRACT: note_on channel=9 note=70 velocity=0 time=0.08333333333333333
EXTRACT: note_on channel=9 note=54 velocity=0 time=0.010416666666666666
EXTRACT: note_on channel=9 note=42 velocity=0 time=0.010416666666666666
EXTRACT: note_on channel=9 note=54 velocity=38 time=0.05208333333333333
EXTRACT: note_on channel=9 note=70 velocity=63 time=0
EXTRACT: note_on channel=5 note=59 velocity=0 time=0.046875
EXTRACT: note_on channel=5 note=62 velocity=0 time=0
EXTRACT: note_on channel=9 note=54 velocity=0 time=0.03125
EXTRACT: note_on channel=3 note=66 velocity=0 time=0.015625
EXTRACT: note_on channel=4 note=66 velocity=0 time=0
EXTRACT: note_on channel=5 note=57 velocity=0 time=0.005208333333333333
EXTRACT: note_on channel=9 note=70 velocity=0 time=0.005208333333333333
EXTRACT: note_on channel=9 note=42 velocity=46 time=0.05208333333333333
EXTRACT: note_on channel=9 note=54 velocity=44 time=0
EXTRACT: note_on channel=9 note=69 velocity=68 time=0
EXTRACT: note_on channel=9 note=70 velocity=46 time=0
EXTRACT: note_on channel=3 note=69 velocity=102 time=0
EXTRACT: note_on channel=4 note=69 velocity=87 time=0
EXTRACT: note_on channel=6 note=69 velocity=87 time=0
EXTRACT: note_on channel=7 note=74 velocity=95 time=0
EXTRACT: note_on channel=1 note=35 velocity=0 time=0.026041666666666664
EXTRACT: note_on channel=9 note=70 velocity=0 time=0.020833333333333332
EXTRACT: note_on channel=9 note=69 velocity=0 time=0.010416666666666666
EXTRACT: note_on channel=9 note=54 velocity=0 time=0.010416666666666666
EXTRACT: note_on channel=9 note=42 velocity=0 time=0.015625
EXTRACT: note_on channel=7 note=74 velocity=0 time=0
EXTRACT: note_on channel=9 note=36 velocity=0 time=0.041666666666666664
EXTRACT: note_on channel=9 note=54 velocity=36 time=0.03125
EXTRACT: note_on channel=9 note=70 velocity=61 time=0
EXTRACT: note_on channel=9 note=54 velocity=0 time=0.05208333333333333
EXTRACT: note_on channel=9 note=70 velocity=0 time=0.041666666666666664
EXTRACT: note_on channel=6 note=69 velocity=0 time=0.046875
EXTRACT: note_on channel=3 note=69 velocity=0 time=0.010416666666666666
EXTRACT: note_on channel=4 note=69 velocity=0 time=0
EXTRACT: note_on channel=9 note=36 velocity=81 time=0.005208333333333333
EXTRACT: note_on channel=9 note=39 velocity=84 time=0
EXTRACT: note_on channel=9 note=40 velocity=82 time=0
EXTRACT: note_on channel=9 note=42 velocity=91 time=0
EXTRACT: note_on channel=9 note=54 velocity=61 time=0
EXTRACT: note_on channel=9 note=70 velocity=91 time=0
EXTRACT: note_on channel=3 note=66 velocity=105 time=0
EXTRACT: note_on channel=4 note=66 velocity=90 time=0
EXTRACT: note_on channel=6 note=71 velocity=83 time=0
EXTRACT: note_on channel=9 note=40 velocity=0 time=0.06770833333333333
EXTRACT: note_on channel=9 note=70 velocity=0 time=0.020833333333333332
EXTRACT: note_on channel=9 note=39 velocity=0 time=0.010416666666666666
EXTRACT: note_on channel=9 note=54 velocity=0 time=0
EXTRACT: note_on channel=9 note=42 velocity=0 time=0.03645833333333333
EXTRACT: note_on channel=6 note=71 velocity=0 time=0.015625
EXTRACT: note_on channel=9 note=54 velocity=52 time=0.005208333333333333
EXTRACT: note_on channel=9 note=70 velocity=63 time=0
EXTRACT: note_on channel=7 note=71 velocity=93 time=0
EXTRACT: note_on channel=9 note=70 velocity=0 time=0.08854166666666666
EXTRACT: note_on channel=9 note=54 velocity=0 time=0.005208333333333333
EXTRACT: note_on channel=3 note=66 velocity=0 time=0.03125
EXTRACT: note_on channel=4 note=66 velocity=0 time=0
EXTRACT: note_on channel=9 note=42 velocity=46 time=0.03125
EXTRACT: note_on channel=9 note=54 velocity=46 time=0
EXTRACT: note_on channel=9 note=70 velocity=80 time=0
EXTRACT: note_on channel=3 note=69 velocity=100 time=0
EXTRACT: note_on channel=4 note=69 velocity=85 time=0
EXTRACT: note_on channel=6 note=74 velocity=91 time=0
EXTRACT: note_on channel=9 note=54 velocity=0 time=0.06770833333333333
EXTRACT: note_on channel=9 note=70 velocity=0 time=0.010416666666666666
EXTRACT: note_on channel=3 note=69 velocity=0 time=0.015625
EXTRACT: note_on channel=4 note=69 velocity=0 time=0
EXTRACT: note_on channel=7 note=71 velocity=0 time=0.005208333333333333
EXTRACT: note_on channel=9 note=42 velocity=0 time=0.015625
EXTRACT: note_on channel=9 note=36 velocity=0 time=0.010416666666666666
EXTRACT: note_on channel=9 note=54 velocity=57 time=0.03125
EXTRACT: note_on channel=9 note=70 velocity=62 time=0
EXTRACT: note_on channel=3 note=71 velocity=107 time=0
EXTRACT: note_on channel=4 note=71 velocity=92 time=0
EXTRACT: note_on channel=9 note=54 velocity=0 time=0.046875
EXTRACT: note_on channel=9 note=70 velocity=0 time=0.046875
EXTRACT: note_on channel=9 note=36 velocity=78 time=0.0625
EXTRACT: note_on channel=9 note=42 velocity=80 time=0
EXTRACT: note_on channel=9 note=54 velocity=54 time=0
EXTRACT: note_on channel=9 note=70 velocity=88 time=0
EXTRACT: note_on channel=7 note=69 velocity=95 time=0
EXTRACT: note_on channel=9 note=54 velocity=0 time=0.09375
EXTRACT: note_on channel=9 note=70 velocity=0 time=0.005208333333333333
EXTRACT: note_on channel=7 note=69 velocity=0 time=0.010416666666666666
EXTRACT: note_on channel=9 note=42 velocity=0 time=0.020833333333333332
EXTRACT: note_on channel=9 note=54 velocity=38 time=0.026041666666666664
EXTRACT: note_on channel=9 note=70 velocity=66 time=0
EXTRACT: note_on channel=7 note=71 velocity=82 time=0
EXTRACT: note_on channel=9 note=70 velocity=0 time=0.07291666666666666
EXTRACT: note_on channel=9 note=54 velocity=0 time=0.005208333333333333
EXTRACT: note_on channel=7 note=71 velocity=0 time=0.005208333333333333
EXTRACT: note_on channel=3 note=71 velocity=0 time=0.06770833333333333
EXTRACT: note_on channel=4 note=71 velocity=0 time=0
EXTRACT: note_on channel=9 note=42 velocity=50 time=0.005208333333333333
EXTRACT: note_on channel=9 note=54 velocity=44 time=0
EXTRACT: note_on channel=9 note=69 velocity=61 time=0
EXTRACT: note_on channel=9 note=70 velocity=61 time=0
EXTRACT: note_on channel=3 note=66 velocity=98 time=0
EXTRACT: note_on channel=4 note=66 velocity=83 time=0
EXTRACT: note_on channel=7 note=71 velocity=87 time=0
EXTRACT: note_on channel=9 note=54 velocity=0 time=0.06770833333333333
EXTRACT: note_on channel=9 note=70 velocity=0 time=0
EXTRACT: note_on channel=9 note=69 velocity=0 time=0.005208333333333333
EXTRACT: note_on channel=9 note=42 velocity=0 time=0.026041666666666664
EXTRACT: note_on channel=7 note=71 velocity=0 time=0
EXTRACT: note_on channel=9 note=36 velocity=0 time=0.020833333333333332
EXTRACT: note_on channel=9 note=54 velocity=36 time=0.03645833333333333
EXTRACT: note_on channel=9 note=69 velocity=48 time=0
EXTRACT: note_on channel=9 note=70 velocity=58 time=0
EXTRACT: note_on channel=7 note=69 velocity=86 time=0
EXTRACT: note_on channel=9 note=54 velocity=0 time=0.05208333333333333
EXTRACT: note_on channel=9 note=69 velocity=0 time=0.015625
EXTRACT: note_on channel=7 note=69 velocity=0 time=0.015625
EXTRACT: note_on channel=9 note=70 velocity=0 time=0.015625
EXTRACT: note_on channel=3 note=66 velocity=0 time=0.05208333333333333
EXTRACT: note_on channel=4 note=66 velocity=0 time=0
EXTRACT: note_on channel=9 note=36 velocity=82 time=0.005208333333333333
EXTRACT: note_on channel=9 note=39 velocity=82 time=0
EXTRACT: note_on channel=9 note=40 velocity=80 time=0
EXTRACT: note_on channel=9 note=42 velocity=84 time=0
EXTRACT: note_on channel=9 note=54 velocity=61 time=0
EXTRACT: note_on channel=9 note=69 velocity=52 time=0
EXTRACT: note_on channel=9 note=70 velocity=89 time=0
EXTRACT: note_on channel=1 note=42 velocity=98 time=0
EXTRACT: note_on channel=3 note=64 velocity=88 time=0
EXTRACT: note_on channel=4 note=64 velocity=73 time=0
EXTRACT: note_on channel=7 note=71 velocity=88 time=0
EXTRACT: note_on channel=9 note=69 velocity=0 time=0.08333333333333333
EXTRACT: note_on channel=9 note=70 velocity=0 time=0.010416666666666666
EXTRACT: note_on channel=9 note=54 velocity=0 time=0.005208333333333333
EXTRACT: note_on channel=9 note=39 velocity=0 time=0.005208333333333333
EXTRACT: note_on channel=7 note=71 velocity=0 time=0
EXTRACT: note_on channel=9 note=40 velocity=0 time=0.005208333333333333
EXTRACT: note_on channel=9 note=42 velocity=0 time=0.041666666666666664
EXTRACT: note_on channel=9 note=54 velocity=52 time=0.005208333333333333
EXTRACT: note_on channel=9 note=70 velocity=71 time=0
EXTRACT: note_on channel=9 note=54 velocity=0 time=0.09375
EXTRACT: note_on channel=9 note=70 velocity=0 time=0.005208333333333333
EXTRACT: note_on channel=3 note=64 velocity=0 time=0.005208333333333333
EXTRACT: note_on channel=4 note=64 velocity=0 time=0
EXTRACT: note_on channel=9 note=42 velocity=52 time=0.05208333333333333
EXTRACT: note_on channel=9 note=54 velocity=46 time=0
EXTRACT: note_on channel=9 note=70 velocity=71 time=0
EXTRACT: note_on channel=3 note=69 velocity=104 time=0
EXTRACT: note_on channel=4 note=69 velocity=89 time=0
EXTRACT: note_on channel=5 note=52 velocity=59 time=0
EXTRACT: note_on channel=5 note=57 velocity=58 time=0
EXTRACT: note_on channel=5 note=59 velocity=67 time=0
EXTRACT: note_on channel=5 note=62 velocity=63 time=0
EXTRACT: note_on channel=7 note=78 velocity=94 time=0
EXTRACT: note_on channel=9 note=54 velocity=0 time=0.06770833333333333
EXTRACT: note_on channel=9 note=70 velocity=0 time=0.015625
EXTRACT: note_on channel=9 note=42 velocity=0 time=0.015625
EXTRACT: note_on channel=9 note=36 velocity=0 time=0.03645833333333333
EXTRACT: note_on channel=7 note=78 velocity=0 time=0.020833333333333332
EXTRACT: note_on channel=9 note=42 velocity=40 time=0
EXTRACT: note_on channel=9 note=54 velocity=57 time=0
EXTRACT: note_on channel=9 note=70 velocity=61 time=0
EXTRACT: note_on channel=2 note=62 velocity=0 time=0.015625
EXTRACT: note_on channel=2 note=57 velocity=0 time=0.015625
EXTRACT: note_on channel=1 note=42 velocity=0 time=0.010416666666666666
EXTRACT: note_on channel=9 note=54 velocity=0 time=0.005208333333333333
EXTRACT: note_on channel=6 note=74 velocity=0 time=0.020833333333333332
EXTRACT: note_on channel=5 note=62 velocity=0 time=0.015625
EXTRACT: note_on channel=5 note=59 velocity=0 time=0.005208333333333333
EXTRACT: note_on channel=2 note=66 velocity=0 time=0.005208333333333333
EXTRACT: note_on channel=9 note=42 velocity=0 time=0.005208333333333333
EXTRACT: note_on channel=9 note=70 velocity=0 time=0
EXTRACT: note_on channel=5 note=57 velocity=0 time=0.020833333333333332
EXTRACT: note_on channel=5 note=52 velocity=0 time=0.005208333333333333
EXTRACT: note_on channel=3 note=69 velocity=0 time=0.026041666666666664
EXTRACT: note_on channel=4 note=69 velocity=0 time=0
EXTRACT: note_on channel=9 note=36 velocity=83 time=0.005208333333333333
EXTRACT: note_on channel=9 note=42 velocity=77 time=0
EXTRACT: note_on channel=9 note=54 velocity=54 time=0
EXTRACT: note_on channel=9 note=70 velocity=90 time=0
EXTRACT: note_on channel=1 note=35 velocity=95 time=0
EXTRACT: note_on channel=2 note=57 velocity=86 time=0
EXTRACT: note_on channel=2 note=61 velocity=83 time=0
EXTRACT: note_on channel=2 note=64 velocity=86 time=0
EXTRACT: note_on channel=3 note=66 velocity=100 time=0
EXTRACT: note_on channel=4 note=66 velocity=85 time=0
EXTRACT: note_on channel=6 note=76 velocity=95 time=0
EXTRACT: note_on channel=6 note=81 velocity=77 time=0
EXTRACT: note_on channel=9 note=54 velocity=0 time=0.09375
EXTRACT: note_on channel=9 note=70 velocity=0 time=0.005208333333333333
EXTRACT: note_on channel=9 note=54 velocity=38 time=0.057291666666666664
EXTRACT: note_on channel=9 note=70 velocity=70 time=0
EXTRACT: note_on channel=6 note=76 velocity=65 time=0
EXTRACT: note_on channel=6 note=81 velocity=0 time=0.010416666666666666
EXTRACT: note_on channel=9 note=42 velocity=0 time=0.005208333333333333
EXTRACT: note_on channel=9 note=70 velocity=0 time=0.03125
EXTRACT: note_on channel=9 note=54 velocity=0 time=0.03125
EXTRACT: note_on channel=3 note=66 velocity=0 time=0.06770833333333333
EXTRACT: note_on channel=4 note=66 velocity=0 time=0
EXTRACT: note_on channel=6 note=76 velocity=0 time=0.005208333333333333
EXTRACT: note_on channel=9 note=42 velocity=54 time=0.005208333333333333
EXTRACT: note_on channel=9 note=54 velocity=44 time=0
EXTRACT: note_on channel=9 note=69 velocity=71 time=0
EXTRACT: note_on channel=9 note=70 velocity=71 time=0
EXTRACT: note_on channel=3 note=69 velocity=100 time=0
EXTRACT: note_on channel=4 note=69 velocity=85 time=0
EXTRACT: note_on channel=6 note=71 velocity=71 time=0
EXTRACT: note_on channel=7 note=74 velocity=95 time=0
EXTRACT: note_on channel=1 note=35 velocity=0 time=0.041666666666666664
EXTRACT: note_on channel=9 note=54 velocity=0 time=0.026041666666666664
EXTRACT: note_on channel=9 note=69 velocity=0 time=0
EXTRACT: note_on channel=9 note=70 velocity=0 time=0.015625
EXTRACT: note_on channel=7 note=74 velocity=0 time=0
EXTRACT: note_on channel=9 note=36 velocity=0 time=0.020833333333333332
EXTRACT: note_on channel=9 note=42 velocity=0 time=0.005208333333333333
EXTRACT: note_on channel=9 note=54 velocity=36 time=0.046875
EXTRACT: note_on channel=9 note=70 velocity=56 time=0
EXTRACT: note_on channel=6 note=73 velocity=78 time=0
EXTRACT: note_on channel=6 note=71 velocity=0 time=0.005208333333333333
EXTRACT: note_on channel=9 note=54 velocity=0 time=0.046875
EXTRACT: note_on channel=9 note=70 velocity=0 time=0.046875
EXTRACT: note_on channel=3 note=69 velocity=0 time=0.026041666666666664
EXTRACT: note_on channel=4 note=69 velocity=0 time=0
EXTRACT: note_on channel=6 note=73 velocity=0 time=0.03125
EXTRACT: note_on channel=9 note=36 velocity=84 time=0
EXTRACT: note_on channel=9 note=39 velocity=84 time=0
EXTRACT: note_on channel=9 note=40 velocity=82 time=0
EXTRACT: note_on channel=9 note=42 velocity=79 time=0
EXTRACT: note_on channel=9 note=54 velocity=61 time=0
EXTRACT: note_on channel=9 note=70 velocity=87 time=0
EXTRACT: note_on channel=3 note=66 velocity=94 time=0
EXTRACT: note_on channel=4 note=66 velocity=79 time=0
EXTRACT: note_on channel=6 note=69 velocity=78 time=0
EXTRACT: note_on channel=9 note=40 velocity=0 time=0.06770833333333333
EXTRACT: note_on channel=9 note=70 velocity=0 time=0.026041666666666664
EXTRACT: note_on channel=9 note=39 velocity=0 time=0.005208333333333333
EXTRACT: note_on channel=9 note=54 velocity=0 time=0
EXTRACT: note_on channel=6 note=69 velocity=0 time=0.026041666666666664
EXTRACT: note_on channel=9 note=54 velocity=52 time=0.03125
EXTRACT: note_on channel=9 note=70 velocity=74 time=0
EXTRACT: note_on channel=7 note=71 velocity=93 time=0
EXTRACT: note_on channel=9 note=42 velocity=0 time=0.020833333333333332
EXTRACT: note_on channel=9 note=54 velocity=0 time=0.07291666666666666
EXTRACT: note_on channel=9 note=70 velocity=0 time=0.005208333333333333
EXTRACT: note_on channel=3 note=66 velocity=0 time=0.041666666666666664
EXTRACT: note_on channel=4 note=66 velocity=0 time=0
EXTRACT: note_on channel=9 note=42 velocity=54 time=0.015625
EXTRACT: note_on channel=9 note=54 velocity=46 time=0
EXTRACT: note_on channel=9 note=69 velocity=64 time=0
EXTRACT: note_on channel=9 note=70 velocity=72 time=0
EXTRACT: note_on channel=1 note=30 velocity=78 time=0
EXTRACT: note_on channel=3 note=69 velocity=98 time=0
EXTRACT: note_on channel=4 note=69 velocity=83 time=0
EXTRACT: note_on channel=6 note=74 velocity=83 time=0
EXTRACT: note_on channel=9 note=69 velocity=0 time=0.0625
EXTRACT: note_on channel=9 note=54 velocity=0 time=0.005208333333333333
EXTRACT: note_on channel=3 note=69 velocity=0 time=0.005208333333333333
EXTRACT: note_on channel=4 note=69 velocity=0 time=0
EXTRACT: note_on channel=9 note=70 velocity=0 time=0.010416666666666666
EXTRACT: note_on channel=7 note=71 velocity=0 time=0.015625
EXTRACT: note_on channel=9 note=36 velocity=0 time=0.010416666666666666
EXTRACT: note_on channel=9 note=42 velocity=0 time=0.005208333333333333
EXTRACT: note_on channel=6 note=74 velocity=0 time=0.020833333333333332
EXTRACT: note_on channel=9 note=54 velocity=57 time=0.020833333333333332
EXTRACT: note_on channel=9 note=70 velocity=66 time=0
EXTRACT: note_on channel=3 note=71 velocity=105 time=0
EXTRACT: note_on channel=4 note=71 velocity=90 time=0
EXTRACT: note_on channel=6 note=71 velocity=78 time=0
EXTRACT: note_on channel=2 note=61 velocity=0 time=0.015625
EXTRACT: note_on channel=2 note=64 velocity=0 time=0.015625
EXTRACT: note_on channel=2 note=57 velocity=0 time=0.005208333333333333
EXTRACT: note_on channel=9 note=54 velocity=0 time=0.010416666666666666
EXTRACT: note_on channel=9 note=70 velocity=0 time=0.05208333333333333
EXTRACT: note_on channel=6 note=71 velocity=0 time=0
EXTRACT: note_on channel=9 note=36 velocity=81 time=0.057291666666666664
EXTRACT: note_on channel=9 note=42 velocity=87 time=0
EXTRACT: note_on channel=9 note=54 velocity=54 time=0
EXTRACT: note_on channel=9 note=70 velocity=93 time=0
EXTRACT: note_on channel=1 note=33 velocity=83 time=0
EXTRACT: note_on channel=2 note=55 velocity=89 time=0
EXTRACT: note_on channel=2 note=59 velocity=83 time=0
EXTRACT: note_on channel=2 note=64 velocity=88 time=0
EXTRACT: note_on channel=6 note=69 velocity=81 time=0
EXTRACT: note_on channel=7 note=69 velocity=95 time=0
EXTRACT: note_on channel=1 note=30 velocity=0 time=0.005208333333333333
EXTRACT: note_on channel=6 note=69 velocity=0 time=0.078125
EXTRACT: note_on channel=9 note=54 velocity=0 time=0.010416666666666666
EXTRACT: note_on channel=9 note=70 velocity=0 time=0.015625
EXTRACT: note_on channel=7 note=69 velocity=0 time=0
EXTRACT: note_on channel=9 note=42 velocity=0 time=0.041666666666666664
EXTRACT: note_on channel=9 note=54 velocity=38 time=0.005208333333333333
EXTRACT: note_on channel=9 note=70 velocity=59 time=0
EXTRACT: note_on channel=6 note=67 velocity=82 time=0
EXTRACT: note_on channel=7 note=71 velocity=82 time=0
EXTRACT: note_on channel=6 note=67 velocity=0 time=0.07291666666666666
EXTRACT: note_on channel=9 note=54 velocity=0 time=0.005208333333333333
EXTRACT: note_on channel=7 note=71 velocity=0 time=0.005208333333333333
EXTRACT: note_on channel=9 note=70 velocity=0 time=0.010416666666666666
EXTRACT: note_on channel=3 note=71 velocity=0 time=0.041666666666666664
EXTRACT: note_on channel=4 note=71 velocity=0 time=0
EXTRACT: note_on channel=9 note=42 velocity=46 time=0.020833333333333332
EXTRACT: note_on channel=9 note=54 velocity=44 time=0
EXTRACT: note_on channel=9 note=69 velocity=60 time=0
EXTRACT: note_on channel=9 note=70 velocity=78 time=0
EXTRACT: note_on channel=1 note=35 velocity=87 time=0
EXTRACT: note_on channel=3 note=66 velocity=98 time=0
EXTRACT: note_on channel=4 note=66 velocity=83 time=0
EXTRACT: note_on channel=6 note=71 velocity=81 time=0
EXTRACT: note_on channel=7 note=71 velocity=87 time=0
EXTRACT: note_on channel=1 note=33 velocity=0 time=0.026041666666666664
EXTRACT: note_on channel=9 note=54 velocity=0 time=0.041666666666666664
EXTRACT: note_on channel=9 note=69 velocity=0 time=0.020833333333333332
EXTRACT: note_on channel=9 note=70 velocity=0 time=0.005208333333333333
EXTRACT: note_on channel=7 note=71 velocity=0 time=0.005208333333333333
EXTRACT: note_on channel=9 note=36 velocity=0 time=0.005208333333333333
EXTRACT: note_on channel=6 note=71 velocity=0 time=0.015625
EXTRACT: note_on channel=9 note=42 velocity=0 time=0.005208333333333333
EXTRACT: note_on channel=1 note=35 velocity=0 time=0.010416666666666666
EXTRACT: note_on channel=9 note=54 velocity=36 time=0.020833333333333332
EXTRACT: note_on channel=9 note=69 velocity=55 time=0
EXTRACT: note_on channel=9 note=70 velocity=74 time=0
EXTRACT: note_on channel=6 note=69 velocity=66 time=0
EXTRACT: note_on channel=7 note=69 velocity=86 time=0
EXTRACT: note_on channel=9 note=54 velocity=0 time=0.05208333333333333
EXTRACT: note_on channel=9 note=69 velocity=0 time=0.03125
EXTRACT: note_on channel=6 note=69 velocity=0 time=0
EXTRACT: note_on channel=7 note=69 velocity=0 time=0
EXTRACT: note_on channel=9 note=70 velocity=0 time=0.005208333333333333
EXTRACT: note_on channel=3 note=66 velocity=0 time=0.03645833333333333
EXTRACT: note_on channel=4 note=66 velocity=0 time=0
EXTRACT: note_on channel=9 note=36 velocity=82 time=0.03125
EXTRACT: note_on channel=9 note=39 velocity=82 time=0
EXTRACT: note_on channel=9 note=40 velocity=80 time=0
EXTRACT: note_on channel=9 note=42 velocity=78 time=0
EXTRACT: note_on channel=9 note=54 velocity=61 time=0
EXTRACT: note_on channel=9 note=69 velocity=50 time=0
EXTRACT: note_on channel=9 note=70 velocity=87 time=0
EXTRACT: note_on channel=1 note=35 velocity=93 time=0
EXTRACT: note_on channel=3 note=62 velocity=108 time=0
EXTRACT: note_on channel=4 note=62 velocity=93 time=0
EXTRACT: note_on channel=6 note=67 velocity=79 time=0
EXTRACT: note_on channel=7 note=71 velocity=88 time=0
EXTRACT: note_on channel=6 note=67 velocity=0 time=0.06770833333333333
EXTRACT: note_on channel=3 note=62 velocity=0 time=0.015625
EXTRACT: note_on channel=4 note=62 velocity=0 time=0
EXTRACT: note_on channel=9 note=69 velocity=0 time=0.005208333333333333
EXTRACT: note_on channel=9 note=54 velocity=0 time=0.010416666666666666
EXTRACT: note_on channel=9 note=70 velocity=0 time=0
EXTRACT: note_on channel=9 note=39 velocity=0 time=0.005208333333333333
EXTRACT: note_on channel=7 note=71 velocity=0 time=0
EXTRACT: note_on channel=9 note=40 velocity=0 time=0.005208333333333333
EXTRACT: note_on channel=9 note=42 velocity=0 time=0.041666666666666664
EXTRACT: note_on channel=1 note=35 velocity=0 time=0
EXTRACT: note_on channel=9 note=54 velocity=52 time=0.005208333333333333
EXTRACT: note_on channel=9 note=70 velocity=74 time=0
EXTRACT: note_on channel=1 note=33 velocity=74 time=0
EXTRACT: note_on channel=3 note=62 velocity=102 time=0
EXTRACT: note_on channel=4 note=62 velocity=87 time=0
EXTRACT: note_on channel=3 note=62 velocity=0 time=0.08333333333333333
EXTRACT: note_on channel=4 note=62 velocity=0 time=0
EXTRACT: note_on channel=9 note=54 velocity=0 time=0.010416666666666666
EXTRACT: note_on channel=9 note=70 velocity=0 time=0
EXTRACT: note_on channel=2 note=59 velocity=0 time=0.03645833333333333
EXTRACT: note_on channel=2 note=55 velocity=0 time=0.005208333333333333
EXTRACT: note_on channel=2 note=64 velocity=0 time=0.010416666666666666
EXTRACT: note_on channel=1 note=33 velocity=0 time=0.005208333333333333
EXTRACT: note_on channel=9 note=46 velocity=49 time=0.005208333333333333
EXTRACT: note_on channel=9 note=54 velocity=46 time=0
EXTRACT: note_on channel=9 note=70 velocity=58 time=0
EXTRACT: note_on channel=1 note=29 velocity=82 time=0
EXTRACT: note_on channel=3 note=62 velocity=98 time=0
EXTRACT: note_on channel=4 note=62 velocity=83 time=0
EXTRACT: note_on channel=7 note=78 velocity=94 time=0
EXTRACT: note_on channel=6 note=76 velocity=0 time=0.046875
EXTRACT: note_on channel=9 note=54 velocity=0 time=0.020833333333333332
EXTRACT: note_on channel=9 note=46 velocity=0 time=0.026041666666666664
EXTRACT: note_on channel=3 note=62 velocity=0 time=0
EXTRACT: note_on channel=4 note=62 velocity=0 time=0
EXTRACT: note_on channel=9 note=70 velocity=0 time=0.005208333333333333
EXTRACT: note_on channel=10 note=81 velocity=0 time=0.026041666666666664
EXTRACT: note_on channel=1 note=29 velocity=0 time=0
EXTRACT: note_on channel=7 note=78 velocity=0 time=0.03125
EXTRACT: note_on channel=9 note=54 velocity=57 time=0
EXTRACT: note_on channel=9 note=70 velocity=61 time=0
EXTRACT: note_on channel=1 note=30 velocity=80 time=0
EXTRACT: note_on channel=3 note=62 velocity=104 time=0
EXTRACT: note_on channel=4 note=62 velocity=89 time=0
EXTRACT: note_on channel=9 note=36 velocity=0 time=0.020833333333333332
EXTRACT: note_on channel=9 note=54 velocity=0 time=0.026041666666666664
EXTRACT: note_on channel=9 note=70 velocity=0 time=0.041666666666666664
EXTRACT: note_on channel=1 note=30 velocity=0 time=0.020833333333333332
EXTRACT: note_on channel=3 note=62 velocity=0 time=0.010416666666666666
EXTRACT: note_on channel=4 note=62 velocity=0 time=0
EXTRACT: note_on channel=9 note=54 velocity=54 time=0.03645833333333333
EXTRACT: note_on channel=1 note=35 velocity=96 time=0
EXTRACT: note_on channel=3 note=59 velocity=101 time=0
EXTRACT: note_on channel=4 note=59 velocity=91 time=0
EXTRACT: note_on channel=7 note=76 velocity=92 time=0
EXTRACT: note_on channel=9 note=54 velocity=0 time=0.08333333333333333
EXTRACT: note_on channel=7 note=76 velocity=0 time=0.03125
EXTRACT: note_on channel=9 note=54 velocity=32 time=0.041666666666666664
EXTRACT: note_on channel=9 note=54 velocity=0 time=0.05208333333333333
EXTRACT: note_on channel=3 note=59 velocity=0 time=0.046875
EXTRACT: note_on channel=4 note=59 velocity=0 time=0.03645833333333333
EXTRACT: note_on channel=1 note=35 velocity=0 time=0.010416666666666666
EXTRACT: note_on channel=9 note=54 velocity=46 time=0.010416666666666666
EXTRACT: note_on channel=7 note=74 velocity=86 time=0
EXTRACT: note_on channel=9 note=54 velocity=0 time=0.109375
EXTRACT: note_on channel=9 note=54 velocity=50 time=0.046875
EXTRACT: note_on channel=9 note=54 velocity=0 time=0.05208333333333333
EXTRACT: note_on channel=9 note=39 velocity=68 time=0.10416666666666666
EXTRACT: note_on channel=9 note=54 velocity=53 time=0
EXTRACT: note_on channel=9 note=54 velocity=0 time=0.09375
EXTRACT: note_on channel=9 note=39 velocity=0 time=0.015625
EXTRACT: note_on channel=9 note=54 velocity=48 time=0.046875
EXTRACT: note_on channel=7 note=71 velocity=82 time=0
EXTRACT: note_on channel=7 note=74 velocity=0 time=0.041666666666666664
EXTRACT: note_on channel=9 note=54 velocity=0 time=0.026041666666666664
EXTRACT: note_on channel=7 note=71 velocity=0 time=0.015625
EXTRACT: note_on channel=9 note=54 velocity=50 time=0.07291666666666666
EXTRACT: note_on channel=7 note=74 velocity=87 time=0
EXTRACT: note_on channel=9 note=54 velocity=0 time=0.078125
EXTRACT: note_on channel=7 note=74 velocity=0 time=0.020833333333333332
EXTRACT: note_on channel=9 note=54 velocity=48 time=0.057291666666666664
EXTRACT: note_on channel=9 note=54 velocity=0 time=0.046875
EXTRACT: note_on channel=9 note=54 velocity=59 time=0.109375
EXTRACT: note_on channel=7 note=76 velocity=86 time=0
EXTRACT: note_on channel=9 note=54 velocity=0 time=0.08333333333333333
EXTRACT: note_on channel=7 note=76 velocity=0 time=0.015625
EXTRACT: note_on channel=9 note=54 velocity=44 time=0.057291666666666664
EXTRACT: note_on channel=9 note=54 velocity=0 time=0.0625
EXTRACT: note_on channel=9 note=54 velocity=52 time=0.09375
EXTRACT: note_on channel=7 note=74 velocity=83 time=0
EXTRACT: note_on channel=9 note=54 velocity=0 time=0.09375
EXTRACT: note_on channel=9 note=54 velocity=53 time=0.0625
EXTRACT: note_on channel=9 note=54 velocity=0 time=0.057291666666666664
EXTRACT: note_on channel=9 note=39 velocity=69 time=0.09895833333333333
EXTRACT: note_on channel=9 note=54 velocity=54 time=0
EXTRACT: note_on channel=9 note=39 velocity=0 time=0.09375
EXTRACT: note_on channel=9 note=54 velocity=0 time=0
EXTRACT: note_on channel=9 note=54 velocity=54 time=0.0625
EXTRACT: note_on channel=7 note=71 velocity=77 time=0
EXTRACT: note_on channel=7 note=74 velocity=0 time=0.020833333333333332
EXTRACT: note_on channel=9 note=54 velocity=0 time=0.020833333333333332
EXTRACT: note_on channel=7 note=71 velocity=0 time=0.057291666666666664
EXTRACT: note_on channel=9 note=54 velocity=55 time=0.057291666666666664
EXTRACT: note_on channel=7 note=74 velocity=87 time=0
EXTRACT: note_on channel=7 note=74 velocity=0 time=0.06770833333333333
EXTRACT: note_on channel=9 note=54 velocity=0 time=0.005208333333333333
EXTRACT: note_on channel=9 note=54 velocity=50 time=0.08333333333333333
EXTRACT: note_on channel=9 note=54 velocity=0 time=0.06770833333333333
EXTRACT: note_on channel=9 note=54 velocity=54 time=0.08854166666666666
EXTRACT: note_on channel=7 note=76 velocity=92 time=0
EXTRACT: note_on channel=9 note=54 velocity=0 time=0.08333333333333333
EXTRACT: note_on channel=7 note=76 velocity=0 time=0.03125
EXTRACT: note_on channel=9 note=54 velocity=32 time=0.041666666666666664
EXTRACT: note_on channel=9 note=54 velocity=0 time=0.05208333333333333
EXTRACT: note_on channel=9 note=54 velocity=46 time=0.10416666666666666
EXTRACT: note_on channel=7 note=74 velocity=86 time=0
EXTRACT: note_on channel=9 note=54 velocity=0 time=0.109375
EXTRACT: note_on channel=9 note=54 velocity=50 time=0.046875
EXTRACT: note_on channel=9 note=54 velocity=0 time=0.05208333333333333
EXTRACT: note_on channel=9 note=39 velocity=68 time=0.10416666666666666
EXTRACT: note_on channel=9 note=54 velocity=53 time=0
EXTRACT: note_on channel=9 note=54 velocity=0 time=0.09375
EXTRACT: note_on channel=9 note=39 velocity=0 time=0.015625
EXTRACT: note_on channel=9 note=54 velocity=48 time=0.046875
EXTRACT: note_on channel=7 note=71 velocity=82 time=0
EXTRACT: note_on channel=7 note=74 velocity=0 time=0.041666666666666664
EXTRACT: note_on channel=9 note=54 velocity=0 time=0.026041666666666664
EXTRACT: note_on channel=7 note=71 velocity=0 time=0.015625
EXTRACT: note_on channel=9 note=54 velocity=50 time=0.07291666666666666
EXTRACT: note_on channel=7 note=74 velocity=87 time=0
EXTRACT: note_on channel=9 note=54 velocity=0 time=0.078125
EXTRACT: note_on channel=7 note=74 velocity=0 time=0.020833333333333332
EXTRACT: note_on channel=9 note=54 velocity=48 time=0.057291666666666664
EXTRACT: note_on channel=9 note=54 velocity=0 time=0.046875
EXTRACT: note_on channel=9 note=54 velocity=59 time=0.109375
EXTRACT: note_on channel=7 note=76 velocity=86 time=0
EXTRACT: note_on channel=9 note=54 velocity=0 time=0.08333333333333333
EXTRACT: note_on channel=7 note=76 velocity=0 time=0.015625
EXTRACT: note_on channel=9 note=54 velocity=44 time=0.057291666666666664
EXTRACT: note_on channel=9 note=54 velocity=0 time=0.0625
EXTRACT: note_on channel=9 note=54 velocity=52 time=0.09375
EXTRACT: note_on channel=7 note=74 velocity=83 time=0
EXTRACT: note_on channel=9 note=54 velocity=0 time=0.09375
EXTRACT: note_on channel=9 note=54 velocity=53 time=0.0625
EXTRACT: note_on channel=9 note=54 velocity=0 time=0.057291666666666664
EXTRACT: note_on channel=9 note=39 velocity=69 time=0.09895833333333333
EXTRACT: note_on channel=9 note=54 velocity=54 time=0
EXTRACT: note_on channel=9 note=39 velocity=0 time=0.09375
EXTRACT: note_on channel=9 note=54 velocity=0 time=0
EXTRACT: note_on channel=9 note=54 velocity=54 time=0.0625
EXTRACT: note_on channel=7 note=71 velocity=77 time=0
EXTRACT: note_on channel=7 note=74 velocity=0 time=0.020833333333333332
EXTRACT: note_on channel=9 note=54 velocity=0 time=0.020833333333333332
EXTRACT: note_on channel=7 note=71 velocity=0 time=0.057291666666666664
EXTRACT: note_on channel=9 note=54 velocity=55 time=0.057291666666666664
EXTRACT: note_on channel=7 note=74 velocity=87 time=0
EXTRACT: note_on channel=7 note=74 velocity=0 time=0.06770833333333333
EXTRACT: note_on channel=9 note=54 velocity=0 time=0.005208333333333333
EXTRACT: note_on channel=9 note=54 velocity=50 time=0.08333333333333333
EXTRACT: note_on channel=9 note=54 velocity=0 time=0.06770833333333333
EXTRACT: note_on channel=9 note=54 velocity=54 time=0.08854166666666666
EXTRACT: note_on channel=7 note=76 velocity=92 time=0
EXTRACT: note_on channel=9 note=54 velocity=0 time=0.08333333333333333
EXTRACT: note_on channel=7 note=76 velocity=0 time=0.03125
EXTRACT: note_on channel=9 note=54 velocity=32 time=0.041666666666666664
EXTRACT: note_on channel=9 note=54 velocity=0 time=0.05208333333333333
EXTRACT: note_on channel=9 note=54 velocity=46 time=0.10416666666666666
EXTRACT: note_on channel=7 note=74 velocity=86 time=0
EXTRACT: note_on channel=9 note=54 velocity=0 time=0.109375
EXTRACT: note_on channel=9 note=54 velocity=50 time=0.046875
EXTRACT: note_on channel=9 note=54 velocity=0 time=0.05208333333333333
EXTRACT: note_on channel=9 note=39 velocity=68 time=0.10416666666666666
EXTRACT: note_on channel=9 note=54 velocity=53 time=0
EXTRACT: note_on channel=9 note=54 velocity=0 time=0.09375
EXTRACT: note_on channel=9 note=39 velocity=0 time=0.015625
EXTRACT: note_on channel=9 note=54 velocity=48 time=0.046875
EXTRACT: note_on channel=7 note=71 velocity=82 time=0
EXTRACT: note_on channel=7 note=74 velocity=0 time=0.041666666666666664
EXTRACT: note_on channel=9 note=54 velocity=0 time=0.026041666666666664
EXTRACT: note_on channel=7 note=71 velocity=0 time=0.015625
EXTRACT: note_on channel=9 note=54 velocity=50 time=0.07291666666666666
EXTRACT: note_on channel=7 note=74 velocity=87 time=0
EXTRACT: note_on channel=9 note=54 velocity=0 time=0.078125
EXTRACT: note_on channel=7 note=74 velocity=0 time=0.020833333333333332
EXTRACT: note_on channel=9 note=54 velocity=48 time=0.057291666666666664
EXTRACT: note_on channel=9 note=54 velocity=0 time=0.046875
EXTRACT: note_on channel=9 note=54 velocity=59 time=0.109375
EXTRACT: note_on channel=7 note=76 velocity=86 time=0
EXTRACT: note_on channel=9 note=54 velocity=0 time=0.08333333333333333
EXTRACT: note_on channel=7 note=76 velocity=0 time=0.015625
EXTRACT: note_on channel=9 note=54 velocity=44 time=0.057291666666666664
EXTRACT: note_on channel=9 note=54 velocity=0 time=0.0625
EXTRACT: note_on channel=9 note=54 velocity=52 time=0.09375
EXTRACT: note_on channel=7 note=74 velocity=83 time=0
EXTRACT: note_on channel=9 note=54 velocity=0 time=0.09375
EXTRACT: note_on channel=9 note=54 velocity=53 time=0.0625
EXTRACT: note_on channel=9 note=54 velocity=0 time=0.057291666666666664
EXTRACT: note_on channel=9 note=39 velocity=69 time=0.09895833333333333
EXTRACT: note_on channel=9 note=54 velocity=54 time=0
EXTRACT: note_on channel=9 note=39 velocity=0 time=0.09375
EXTRACT: note_on channel=9 note=54 velocity=0 time=0
EXTRACT: note_on channel=9 note=54 velocity=54 time=0.0625
EXTRACT: note_on channel=7 note=71 velocity=77 time=0
EXTRACT: note_on channel=7 note=74 velocity=0 time=0.020833333333333332
EXTRACT: note_on channel=9 note=54 velocity=0 time=0.020833333333333332
EXTRACT: note_on channel=7 note=71 velocity=0 time=0.057291666666666664
EXTRACT: note_on channel=9 note=54 velocity=55 time=0.057291666666666664
EXTRACT: note_on channel=7 note=74 velocity=87 time=0
EXTRACT: note_on channel=7 note=74 velocity=0 time=0.06770833333333333
EXTRACT: note_on channel=9 note=54 velocity=0 time=0.005208333333333333
EXTRACT: note_on channel=9 note=54 velocity=50 time=0.08333333333333333
EXTRACT: note_on channel=9 note=54 velocity=0 time=0.06770833333333333
EXTRACT: note_on channel=9 note=54 velocity=54 time=0.08854166666666666
EXTRACT: note_on channel=7 note=76 velocity=92 time=0
EXTRACT: note_on channel=9 note=54 velocity=0 time=0.08333333333333333
EXTRACT: note_on channel=7 note=76 velocity=0 time=0.03125
EXTRACT: note_on channel=9 note=54 velocity=32 time=0.041666666666666664
EXTRACT: note_on channel=9 note=54 velocity=0 time=0.05208333333333333
EXTRACT: note_on channel=9 note=54 velocity=46 time=0.10416666666666666
EXTRACT: note_on channel=7 note=74 velocity=86 time=0
EXTRACT: note_on channel=9 note=54 velocity=0 time=0.109375
EXTRACT: note_on channel=9 note=54 velocity=50 time=0.046875
EXTRACT: note_on channel=9 note=54 velocity=0 time=0.05208333333333333
EXTRACT: note_on channel=9 note=39 velocity=68 time=0.10416666666666666
EXTRACT: note_on channel=9 note=54 velocity=53 time=0
EXTRACT: note_on channel=9 note=54 velocity=0 time=0.09375
EXTRACT: note_on channel=9 note=39 velocity=0 time=0.015625
EXTRACT: note_on channel=9 note=54 velocity=48 time=0.046875
EXTRACT: note_on channel=7 note=71 velocity=82 time=0
EXTRACT: note_on channel=7 note=74 velocity=0 time=0.041666666666666664
EXTRACT: note_on channel=9 note=54 velocity=0 time=0.026041666666666664
EXTRACT: note_on channel=7 note=71 velocity=0 time=0.015625
EXTRACT: note_on channel=9 note=54 velocity=50 time=0.07291666666666666
EXTRACT: note_on channel=7 note=74 velocity=87 time=0
EXTRACT: note_on channel=9 note=54 velocity=0 time=0.078125
EXTRACT: note_on channel=7 note=74 velocity=0 time=0.020833333333333332
EXTRACT: note_on channel=9 note=54 velocity=48 time=0.057291666666666664
EXTRACT: note_on channel=9 note=54 velocity=0 time=0.046875
EXTRACT: note_on channel=9 note=54 velocity=59 time=0.109375
EXTRACT: note_on channel=7 note=76 velocity=86 time=0
EXTRACT: note_on channel=9 note=54 velocity=0 time=0.08333333333333333
EXTRACT: note_on channel=7 note=76 velocity=0 time=0.015625
EXTRACT: note_on channel=9 note=54 velocity=44 time=0.057291666666666664
EXTRACT: note_on channel=9 note=54 velocity=0 time=0.0625
EXTRACT: note_on channel=9 note=54 velocity=52 time=0.09375
EXTRACT: note_on channel=7 note=74 velocity=83 time=0
EXTRACT: note_on channel=9 note=54 velocity=0 time=0.09375
EXTRACT: note_on channel=9 note=54 velocity=53 time=0.0625
EXTRACT: note_on channel=9 note=54 velocity=0 time=0.057291666666666664
EXTRACT: note_on channel=9 note=39 velocity=69 time=0.09895833333333333
EXTRACT: note_on channel=9 note=54 velocity=54 time=0
EXTRACT: note_on channel=9 note=39 velocity=0 time=0.09375
EXTRACT: note_on channel=9 note=54 velocity=0 time=0
EXTRACT: note_on channel=9 note=54 velocity=54 time=0.0625
EXTRACT: note_on channel=7 note=71 velocity=77 time=0
EXTRACT: note_on channel=7 note=74 velocity=0 time=0.020833333333333332
EXTRACT: note_on channel=9 note=54 velocity=0 time=0.020833333333333332
EXTRACT: note_on channel=7 note=71 velocity=0 time=0.057291666666666664
EXTRACT: note_on channel=9 note=54 velocity=55 time=0.057291666666666664
EXTRACT: note_on channel=7 note=74 velocity=87 time=0
EXTRACT: note_on channel=7 note=74 velocity=0 time=0.06770833333333333
EXTRACT: note_on channel=9 note=54 velocity=0 time=0.005208333333333333
EXTRACT: note_on channel=9 note=54 velocity=50 time=0.08333333333333333
EXTRACT: note_on channel=9 note=54 velocity=0 time=0.06770833333333333
EXTRACT: note_on channel=9 note=36 velocity=93 time=0.08854166666666666
EXTRACT: note_on channel=9 note=42 velocity=104 time=0
EXTRACT: note_on channel=9 note=42 velocity=0 time=0.08333333333333333
EXTRACT: note_on channel=9 note=36 velocity=0 time=0.17708333333333331
EXTRACT: note_on channel=9 note=76 velocity=67 time=0.05208333333333333
EXTRACT: note_on channel=9 note=76 velocity=0 time=0.03125
EXTRACT: note_on channel=9 note=39 velocity=79 time=0.28125
EXTRACT: note_on channel=9 note=40 velocity=83 time=0
EXTRACT: note_on channel=9 note=42 velocity=105 time=0
EXTRACT: note_on channel=9 note=40 velocity=0 time=0.078125
EXTRACT: note_on channel=9 note=39 velocity=0 time=0.010416666666666666
EXTRACT: note_on channel=9 note=42 velocity=0 time=0.005208333333333333
EXTRACT: note_on channel=9 note=76 velocity=70 time=0.21875
EXTRACT: note_on channel=9 note=76 velocity=0 time=0.03645833333333333
EXTRACT: note_on channel=9 note=36 velocity=94 time=0.11979166666666666
EXTRACT: note_on channel=9 note=42 velocity=91 time=0
EXTRACT: note_on channel=9 note=42 velocity=0 time=0.07291666666666666
EXTRACT: note_on channel=9 note=36 velocity=0 time=0.020833333333333332
EXTRACT: note_on channel=9 note=42 velocity=84 time=0.0625
EXTRACT: note_on channel=9 note=42 velocity=0 time=0.09375
EXTRACT: note_on channel=9 note=42 velocity=83 time=0.0625
EXTRACT: note_on channel=9 note=42 velocity=0 time=0.08854166666666666
EXTRACT: note_on channel=9 note=36 velocity=102 time=0.06770833333333333
EXTRACT: note_on channel=9 note=76 velocity=61 time=0
EXTRACT: note_on channel=9 note=76 velocity=0 time=0.041666666666666664
EXTRACT: note_on channel=9 note=36 velocity=0 time=0.05208333333333333
EXTRACT: note_on channel=9 note=39 velocity=83 time=0.21875
EXTRACT: note_on channel=9 note=40 velocity=81 time=0
EXTRACT: note_on channel=9 note=42 velocity=88 time=0
EXTRACT: note_on channel=9 note=40 velocity=0 time=0.06770833333333333
EXTRACT: note_on channel=9 note=39 velocity=0 time=0.026041666666666664
EXTRACT: note_on channel=9 note=42 velocity=0 time=0
EXTRACT: note_on channel=9 note=36 velocity=91 time=0.21875
EXTRACT: note_on channel=9 note=46 velocity=76 time=0
EXTRACT: note_on channel=9 note=36 velocity=0 time=0.06770833333333333
EXTRACT: note_on channel=9 note=46 velocity=0 time=0.005208333333333333
EXTRACT: note_on channel=9 note=36 velocity=93 time=0.23958333333333331
EXTRACT: note_on channel=9 note=42 velocity=104 time=0
EXTRACT: note_on channel=9 note=42 velocity=0 time=0.08333333333333333
EXTRACT: note_on channel=9 note=36 velocity=0 time=0.17708333333333331
EXTRACT: note_on channel=9 note=76 velocity=67 time=0.05208333333333333
EXTRACT: note_on channel=9 note=76 velocity=0 time=0.03125
EXTRACT: note_on channel=9 note=39 velocity=79 time=0.28125
EXTRACT: note_on channel=9 note=40 velocity=83 time=0
EXTRACT: note_on channel=9 note=42 velocity=105 time=0
EXTRACT: note_on channel=9 note=40 velocity=0 time=0.078125
EXTRACT: note_on channel=9 note=39 velocity=0 time=0.010416666666666666
EXTRACT: note_on channel=9 note=42 velocity=0 time=0.005208333333333333
EXTRACT: note_on channel=9 note=76 velocity=70 time=0.21875
EXTRACT: note_on channel=9 note=76 velocity=0 time=0.03645833333333333
EXTRACT: note_on channel=9 note=36 velocity=94 time=0.11979166666666666
EXTRACT: note_on channel=9 note=42 velocity=91 time=0
EXTRACT: note_on channel=9 note=42 velocity=0 time=0.07291666666666666
EXTRACT: note_on channel=9 note=36 velocity=0 time=0.020833333333333332
EXTRACT: note_on channel=9 note=42 velocity=84 time=0.0625
EXTRACT: note_on channel=9 note=42 velocity=0 time=0.09375
EXTRACT: note_on channel=9 note=42 velocity=83 time=0.0625
EXTRACT: note_on channel=9 note=42 velocity=0 time=0.08854166666666666
EXTRACT: note_on channel=9 note=36 velocity=102 time=0.06770833333333333
EXTRACT: note_on channel=9 note=76 velocity=61 time=0
EXTRACT: note_on channel=9 note=76 velocity=0 time=0.041666666666666664
EXTRACT: note_on channel=9 note=36 velocity=0 time=0.05208333333333333
EXTRACT: note_on channel=9 note=39 velocity=83 time=0.21875
EXTRACT: note_on channel=9 note=40 velocity=81 time=0
EXTRACT: note_on channel=9 note=42 velocity=88 time=0
EXTRACT: note_on channel=9 note=40 velocity=0 time=0.06770833333333333
EXTRACT: note_on channel=9 note=39 velocity=0 time=0.026041666666666664
EXTRACT: note_on channel=9 note=42 velocity=0 time=0
EXTRACT: note_on channel=9 note=36 velocity=91 time=0.21875
EXTRACT: note_on channel=9 note=46 velocity=76 time=0
EXTRACT: note_on channel=9 note=36 velocity=0 time=0.06770833333333333
EXTRACT: note_on channel=9 note=46 velocity=0 time=0.005208333333333333
EXTRACT: note_on channel=9 note=36 velocity=93 time=0.23958333333333331
EXTRACT: note_on channel=9 note=42 velocity=104 time=0
EXTRACT: note_on channel=9 note=42 velocity=0 time=0.08333333333333333
EXTRACT: note_on channel=9 note=36 velocity=0 time=0.17708333333333331
EXTRACT: note_on channel=9 note=76 velocity=67 time=0.05208333333333333
EXTRACT: note_on channel=9 note=76 velocity=0 time=0.03125
EXTRACT: note_on channel=9 note=39 velocity=79 time=0.28125
EXTRACT: note_on channel=9 note=40 velocity=83 time=0
EXTRACT: note_on channel=9 note=42 velocity=105 time=0
EXTRACT: note_on channel=9 note=40 velocity=0 time=0.078125
EXTRACT: note_on channel=9 note=39 velocity=0 time=0.010416666666666666
EXTRACT: note_on channel=9 note=42 velocity=0 time=0.005208333333333333
EXTRACT: note_on channel=9 note=76 velocity=70 time=0.21875
EXTRACT: note_on channel=9 note=76 velocity=0 time=0.03645833333333333
EXTRACT: note_on channel=9 note=36 velocity=94 time=0.11979166666666666
EXTRACT: note_on channel=9 note=42 velocity=91 time=0
EXTRACT: note_on channel=9 note=42 velocity=0 time=0.07291666666666666
EXTRACT: note_on channel=9 note=36 velocity=0 time=0.020833333333333332
EXTRACT: note_on channel=9 note=42 velocity=84 time=0.0625
EXTRACT: note_on channel=9 note=42 velocity=0 time=0.09375
EXTRACT: note_on channel=9 note=42 velocity=83 time=0.0625
EXTRACT: note_on channel=9 note=42 velocity=0 time=0.08854166666666666
EXTRACT: note_on channel=9 note=36 velocity=102 time=0.06770833333333333
EXTRACT: note_on channel=9 note=76 velocity=61 time=0
EXTRACT: note_on channel=9 note=76 velocity=0 time=0.041666666666666664
EXTRACT: note_on channel=9 note=36 velocity=0 time=0.05208333333333333
EXTRACT: note_on channel=9 note=39 velocity=83 time=0.21875
EXTRACT: note_on channel=9 note=40 velocity=81 time=0
EXTRACT: note_on channel=9 note=42 velocity=88 time=0
EXTRACT: note_on channel=9 note=40 velocity=0 time=0.06770833333333333
EXTRACT: note_on channel=9 note=39 velocity=0 time=0.026041666666666664
EXTRACT: note_on channel=9 note=42 velocity=0 time=0
EXTRACT: note_on channel=9 note=36 velocity=91 time=0.21875
EXTRACT: note_on channel=9 note=46 velocity=76 time=0
EXTRACT: note_on channel=9 note=36 velocity=0 time=0.06770833333333333
EXTRACT: note_on channel=9 note=46 velocity=0 time=0.005208333333333333
EXTRACT: note_on channel=9 note=36 velocity=93 time=0.23958333333333331
EXTRACT: note_on channel=9 note=42 velocity=104 time=0
EXTRACT: note_on channel=9 note=42 velocity=0 time=0.08333333333333333
EXTRACT: note_on channel=9 note=36 velocity=0 time=0.17708333333333331
EXTRACT: note_on channel=9 note=76 velocity=67 time=0.05208333333333333
EXTRACT: note_on channel=9 note=76 velocity=0 time=0.03125
EXTRACT: note_on channel=9 note=39 velocity=79 time=0.28125
EXTRACT: note_on channel=9 note=40 velocity=83 time=0
EXTRACT: note_on channel=9 note=42 velocity=105 time=0
EXTRACT: note_on channel=9 note=40 velocity=0 time=0.078125
EXTRACT: note_on channel=9 note=39 velocity=0 time=0.010416666666666666
EXTRACT: note_on channel=9 note=42 velocity=0 time=0.005208333333333333
EXTRACT: note_on channel=9 note=76 velocity=70 time=0.21875
EXTRACT: note_on channel=9 note=76 velocity=0 time=0.03645833333333333
EXTRACT: note_on channel=9 note=36 velocity=94 time=0.11979166666666666
EXTRACT: note_on channel=9 note=42 velocity=91 time=0
EXTRACT: note_on channel=9 note=42 velocity=0 time=0.07291666666666666
EXTRACT: note_on channel=9 note=36 velocity=0 time=0.020833333333333332
EXTRACT: note_on channel=9 note=42 velocity=84 time=0.0625
EXTRACT: note_on channel=9 note=42 velocity=0 time=0.09375
EXTRACT: note_on channel=9 note=42 velocity=83 time=0.0625
EXTRACT: note_on channel=9 note=42 velocity=0 time=0.08854166666666666
EXTRACT: note_on channel=9 note=36 velocity=102 time=0.06770833333333333
EXTRACT: note_on channel=9 note=76 velocity=61 time=0
EXTRACT: note_on channel=9 note=76 velocity=0 time=0.041666666666666664
EXTRACT: note_on channel=9 note=36 velocity=0 time=0.05208333333333333
EXTRACT: note_on channel=9 note=39 velocity=83 time=0.21875
EXTRACT: note_on channel=9 note=40 velocity=81 time=0
EXTRACT: note_on channel=9 note=42 velocity=88 time=0
EXTRACT: note_on channel=9 note=40 velocity=0 time=0.06770833333333333
EXTRACT: note_on channel=9 note=39 velocity=0 time=0.026041666666666664
EXTRACT: note_on channel=9 note=42 velocity=0 time=0
EXTRACT: note_on channel=9 note=36 velocity=91 time=0.21875
EXTRACT: note_on channel=9 note=46 velocity=76 time=0
EXTRACT: note_on channel=9 note=36 velocity=0 time=0.06770833333333333
EXTRACT: note_on channel=9 note=46 velocity=0 time=0.005208333333333333
EXTRACT: note_on channel=9 note=36 velocity=93 time=0.23958333333333331
EXTRACT: note_on channel=9 note=42 velocity=104 time=0
EXTRACT: note_on channel=9 note=42 velocity=0 time=0.08333333333333333
EXTRACT: note_on channel=9 note=36 velocity=0 time=0.17708333333333331
EXTRACT: note_on channel=9 note=76 velocity=67 time=0.05208333333333333
EXTRACT: note_on channel=9 note=76 velocity=0 time=0.03125
EXTRACT: note_on channel=9 note=39 velocity=79 time=0.28125
EXTRACT: note_on channel=9 note=40 velocity=83 time=0
EXTRACT: note_on channel=9 note=42 velocity=105 time=0
EXTRACT: note_on channel=9 note=40 velocity=0 time=0.078125
EXTRACT: note_on channel=9 note=39 velocity=0 time=0.010416666666666666
EXTRACT: note_on channel=9 note=42 velocity=0 time=0.005208333333333333
EXTRACT: note_on channel=9 note=76 velocity=70 time=0.21875
EXTRACT: note_on channel=9 note=76 velocity=0 time=0.03645833333333333
EXTRACT: note_on channel=9 note=36 velocity=94 time=0.11979166666666666
EXTRACT: note_on channel=9 note=42 velocity=91 time=0
EXTRACT: note_on channel=9 note=42 velocity=0 time=0.07291666666666666
EXTRACT: note_on channel=9 note=36 velocity=0 time=0.020833333333333332
EXTRACT: note_on channel=9 note=42 velocity=84 time=0.0625
EXTRACT: note_on channel=9 note=42 velocity=0 time=0.09375
EXTRACT: note_on channel=9 note=42 velocity=83 time=0.0625
EXTRACT: note_on channel=9 note=42 velocity=0 time=0.08854166666666666
EXTRACT: note_on channel=9 note=36 velocity=102 time=0.06770833333333333
EXTRACT: note_on channel=9 note=76 velocity=61 time=0
EXTRACT: note_on channel=9 note=76 velocity=0 time=0.041666666666666664
EXTRACT: note_on channel=9 note=36 velocity=0 time=0.05208333333333333
EXTRACT: note_on channel=9 note=39 velocity=83 time=0.21875
EXTRACT: note_on channel=9 note=40 velocity=81 time=0
EXTRACT: note_on channel=9 note=42 velocity=88 time=0
EXTRACT: note_on channel=9 note=40 velocity=0 time=0.06770833333333333
EXTRACT: note_on channel=9 note=39 velocity=0 time=0.026041666666666664
EXTRACT: note_on channel=9 note=42 velocity=0 time=0
EXTRACT: note_on channel=9 note=36 velocity=91 time=0.21875
EXTRACT: note_on channel=9 note=46 velocity=76 time=0
EXTRACT: note_on channel=9 note=36 velocity=0 time=0.06770833333333333
EXTRACT: note_on channel=9 note=46 velocity=0 time=0.005208333333333333
EXTRACT: note_on channel=9 note=36 velocity=93 time=0.23958333333333331
EXTRACT: note_on channel=9 note=42 velocity=104 time=0
EXTRACT: note_on channel=9 note=42 velocity=0 time=0.08333333333333333
EXTRACT: note_on channel=9 note=36 velocity=0 time=0.17708333333333331
EXTRACT: note_on channel=9 note=76 velocity=67 time=0.05208333333333333
EXTRACT: note_on channel=9 note=76 velocity=0 time=0.03125
EXTRACT: note_on channel=9 note=39 velocity=79 time=0.28125
EXTRACT: note_on channel=9 note=40 velocity=83 time=0
EXTRACT: note_on channel=9 note=42 velocity=105 time=0
EXTRACT: note_on channel=9 note=40 velocity=0 time=0.078125
EXTRACT: note_on channel=9 note=39 velocity=0 time=0.010416666666666666
EXTRACT: note_on channel=9 note=42 velocity=0 time=0.005208333333333333
EXTRACT: note_on channel=9 note=76 velocity=70 time=0.21875
EXTRACT: note_on channel=9 note=76 velocity=0 time=0.03645833333333333
EXTRACT: note_on channel=9 note=36 velocity=94 time=0.11979166666666666
EXTRACT: note_on channel=9 note=42 velocity=91 time=0
EXTRACT: note_on channel=9 note=42 velocity=0 time=0.07291666666666666
EXTRACT: note_on channel=9 note=36 velocity=0 time=0.020833333333333332
EXTRACT: note_on channel=9 note=42 velocity=84 time=0.0625
EXTRACT: note_on channel=9 note=42 velocity=0 time=0.09375
EXTRACT: note_on channel=9 note=42 velocity=83 time=0.0625
EXTRACT: note_on channel=9 note=42 velocity=0 time=0.08854166666666666
EXTRACT: note_on channel=9 note=36 velocity=102 time=0.06770833333333333
EXTRACT: note_on channel=9 note=76 velocity=61 time=0
EXTRACT: note_on channel=9 note=76 velocity=0 time=0.041666666666666664
EXTRACT: note_on channel=9 note=36 velocity=0 time=0.05208333333333333
EXTRACT: note_on channel=9 note=39 velocity=83 time=0.21875
EXTRACT: note_on channel=9 note=40 velocity=81 time=0
EXTRACT: note_on channel=9 note=42 velocity=88 time=0
EXTRACT: note_on channel=9 note=40 velocity=0 time=0.06770833333333333
EXTRACT: note_on channel=9 note=39 velocity=0 time=0.026041666666666664
EXTRACT: note_on channel=9 note=42 velocity=0 time=0
EXTRACT: note_on channel=9 note=36 velocity=91 time=0.21875
EXTRACT: note_on channel=9 note=46 velocity=76 time=0
EXTRACT: note_on channel=9 note=36 velocity=0 time=0.06770833333333333
EXTRACT: note_on channel=9 note=46 velocity=0 time=0.005208333333333333
EXTRACT: note_on channel=9 note=36 velocity=93 time=0.23958333333333331
EXTRACT: note_on channel=9 note=42 velocity=104 time=0
EXTRACT: note_on channel=9 note=42 velocity=0 time=0.08333333333333333
EXTRACT: note_on channel=9 note=36 velocity=0 time=0.17708333333333331
EXTRACT: note_on channel=9 note=76 velocity=67 time=0.05208333333333333
EXTRACT: note_on channel=9 note=76 velocity=0 time=0.03125
EXTRACT: note_on channel=9 note=39 velocity=79 time=0.28125
EXTRACT: note_on channel=9 note=40 velocity=83 time=0
EXTRACT: note_on channel=9 note=42 velocity=105 time=0
EXTRACT: note_on channel=9 note=40 velocity=0 time=0.078125
EXTRACT: note_on channel=9 note=39 velocity=0 time=0.010416666666666666
EXTRACT: note_on channel=9 note=42 velocity=0 time=0.005208333333333333
EXTRACT: note_on channel=9 note=76 velocity=70 time=0.21875
EXTRACT: note_on channel=9 note=76 velocity=0 time=0.03645833333333333
EXTRACT: note_on channel=9 note=36 velocity=94 time=0.11979166666666666
EXTRACT: note_on channel=9 note=42 velocity=91 time=0
EXTRACT: note_on channel=9 note=42 velocity=0 time=0.07291666666666666
EXTRACT: note_on channel=9 note=36 velocity=0 time=0.020833333333333332
EXTRACT: note_on channel=9 note=42 velocity=84 time=0.0625
EXTRACT: note_on channel=9 note=42 velocity=0 time=0.09375
EXTRACT: note_on channel=9 note=42 velocity=83 time=0.0625
EXTRACT: note_on channel=9 note=42 velocity=0 time=0.08854166666666666
EXTRACT: note_on channel=9 note=36 velocity=102 time=0.06770833333333333
EXTRACT: note_on channel=9 note=76 velocity=61 time=0
EXTRACT: note_on channel=9 note=76 velocity=0 time=0.041666666666666664
EXTRACT: note_on channel=9 note=36 velocity=0 time=0.05208333333333333
EXTRACT: note_on channel=9 note=39 velocity=83 time=0.21875
EXTRACT: note_on channel=9 note=40 velocity=81 time=0
EXTRACT: note_on channel=9 note=42 velocity=88 time=0
EXTRACT: note_on channel=9 note=40 velocity=0 time=0.06770833333333333
EXTRACT: note_on channel=9 note=39 velocity=0 time=0.026041666666666664
EXTRACT: note_on channel=9 note=42 velocity=0 time=0
EXTRACT: note_on channel=9 note=36 velocity=91 time=0.21875
EXTRACT: note_on channel=9 note=46 velocity=76 time=0
EXTRACT: note_on channel=9 note=36 velocity=0 time=0.06770833333333333
EXTRACT: note_on channel=9 note=46 velocity=0 time=0.005208333333333333
EXTRACT: note_on channel=9 note=36 velocity=93 time=0.23958333333333331
EXTRACT: note_on channel=9 note=42 velocity=104 time=0
EXTRACT: note_on channel=9 note=42 velocity=0 time=0.08333333333333333
EXTRACT: note_on channel=9 note=36 velocity=0 time=0.17708333333333331
EXTRACT: note_on channel=9 note=76 velocity=67 time=0.05208333333333333
EXTRACT: note_on channel=9 note=76 velocity=0 time=0.03125
EXTRACT: note_on channel=9 note=39 velocity=79 time=0.28125
EXTRACT: note_on channel=9 note=40 velocity=83 time=0
EXTRACT: note_on channel=9 note=42 velocity=105 time=0
EXTRACT: note_on channel=9 note=40 velocity=0 time=0.078125
EXTRACT: note_on channel=9 note=39 velocity=0 time=0.010416666666666666
EXTRACT: note_on channel=9 note=42 velocity=0 time=0.005208333333333333
EXTRACT: note_on channel=9 note=76 velocity=70 time=0.21875
EXTRACT: note_on channel=9 note=76 velocity=0 time=0.03645833333333333
EXTRACT: note_on channel=9 note=42 velocity=91 time=0.11979166666666666
EXTRACT: note_on channel=9 note=42 velocity=0 time=0.07291666666666666
EXTRACT: note_on channel=9 note=42 velocity=84 time=0.08333333333333333
EXTRACT: note_on channel=8 note=73 velocity=80 time=0
EXTRACT: note_on channel=9 note=42 velocity=0 time=0.09375
EXTRACT: note_on channel=9 note=42 velocity=83 time=0.0625
EXTRACT: note_on channel=9 note=42 velocity=0 time=0.08854166666666666
EXTRACT: note_on channel=9 note=76 velocity=61 time=0.06770833333333333
EXTRACT: note_on channel=9 note=76 velocity=0 time=0.041666666666666664
EXTRACT: note_on channel=9 note=39 velocity=83 time=0.2708333333333333
EXTRACT: note_on channel=9 note=40 velocity=81 time=0
EXTRACT: note_on channel=9 note=42 velocity=88 time=0
EXTRACT: note_on channel=9 note=40 velocity=0 time=0.06770833333333333
EXTRACT: note_on channel=9 note=39 velocity=0 time=0.026041666666666664
EXTRACT: note_on channel=9 note=42 velocity=0 time=0
EXTRACT: note_on channel=9 note=46 velocity=76 time=0.21875
EXTRACT: note_on channel=7 note=78 velocity=98 time=0
EXTRACT: note_on channel=9 note=46 velocity=0 time=0.07291666666666666
EXTRACT: note_on channel=8 note=73 velocity=0 time=0.15625
EXTRACT: note_on channel=7 note=78 velocity=0 time=0.078125
EXTRACT: note_on channel=9 note=36 velocity=77 time=0.005208333333333333
EXTRACT: note_on channel=9 note=42 velocity=88 time=0
EXTRACT: note_on channel=9 note=49 velocity=76 time=0
EXTRACT: note_on channel=9 note=54 velocity=54 time=0
EXTRACT: note_on channel=9 note=70 velocity=87 time=0
EXTRACT: note_on channel=1 note=35 velocity=103 time=0
EXTRACT: note_on channel=2 note=57 velocity=81 time=0
EXTRACT: note_on channel=2 note=62 velocity=77 time=0
EXTRACT: note_on channel=2 note=66 velocity=76 time=0
EXTRACT: note_on channel=5 note=57 velocity=63 time=0
EXTRACT: note_on channel=5 note=59 velocity=67 time=0
EXTRACT: note_on channel=5 note=62 velocity=66 time=0
EXTRACT: note_on channel=6 note=66 velocity=87 time=0
EXTRACT: note_on channel=9 note=49 velocity=0 time=0.08333333333333333
EXTRACT: note_on channel=9 note=70 velocity=0 time=0
EXTRACT: note_on channel=9 note=54 velocity=0 time=0.010416666666666666
EXTRACT: note_on channel=9 note=42 velocity=0 time=0.010416666666666666
EXTRACT: note_on channel=9 note=54 velocity=38 time=0.05208333333333333
EXTRACT: note_on channel=9 note=70 velocity=63 time=0
EXTRACT: note_on channel=5 note=59 velocity=0 time=0.046875
EXTRACT: note_on channel=5 note=62 velocity=0 time=0
EXTRACT: note_on channel=9 note=54 velocity=0 time=0.03125
EXTRACT: note_on channel=5 note=57 velocity=0 time=0.020833333333333332
EXTRACT: note_on channel=9 note=70 velocity=0 time=0.005208333333333333
EXTRACT: note_on channel=9 note=42 velocity=46 time=0.05208333333333333
EXTRACT: note_on channel=9 note=54 velocity=44 time=0
EXTRACT: note_on channel=9 note=69 velocity=68 time=0
EXTRACT: note_on channel=9 note=70 velocity=46 time=0
EXTRACT: note_on channel=3 note=66 velocity=96 time=0
EXTRACT: note_on channel=4 note=66 velocity=81 time=0
EXTRACT: note_on channel=6 note=71 velocity=76 time=0
EXTRACT: note_on channel=7 note=74 velocity=95 time=0
EXTRACT: note_on channel=9 note=70 velocity=0 time=0.046875
EXTRACT: note_on channel=9 note=69 velocity=0 time=0.010416666666666666
EXTRACT: note_on channel=9 note=54 velocity=0 time=0.010416666666666666
EXTRACT: note_on channel=9 note=42 velocity=0 time=0.015625
EXTRACT: note_on channel=7 note=74 velocity=0 time=0
EXTRACT: note_on channel=3 note=66 velocity=0 time=0.03645833333333333
EXTRACT: note_on channel=4 note=66 velocity=0 time=0
EXTRACT: note_on channel=9 note=36 velocity=0 time=0.005208333333333333
EXTRACT: note_on channel=1 note=35 velocity=0 time=0
EXTRACT: note_on channel=9 note=54 velocity=36 time=0.03125
EXTRACT: note_on channel=9 note=70 velocity=61 time=0
EXTRACT: note_on channel=3 note=66 velocity=88 time=0
EXTRACT: note_on channel=4 note=66 velocity=73 time=0
EXTRACT: note_on channel=9 note=54 velocity=0 time=0.05208333333333333
EXTRACT: note_on channel=3 note=66 velocity=0 time=0.03645833333333333
EXTRACT: note_on channel=4 note=66 velocity=0 time=0
EXTRACT: note_on channel=9 note=70 velocity=0 time=0.005208333333333333
EXTRACT: note_on channel=9 note=36 velocity=81 time=0.0625
EXTRACT: note_on channel=9 note=39 velocity=84 time=0
EXTRACT: note_on channel=9 note=40 velocity=82 time=0
EXTRACT: note_on channel=9 note=42 velocity=91 time=0
EXTRACT: note_on channel=9 note=54 velocity=61 time=0
EXTRACT: note_on channel=9 note=70 velocity=91 time=0
EXTRACT: note_on channel=3 note=66 velocity=95 time=0
EXTRACT: note_on channel=4 note=66 velocity=80 time=0
EXTRACT: note_on channel=9 note=40 velocity=0 time=0.06770833333333333
EXTRACT: note_on channel=9 note=70 velocity=0 time=0.020833333333333332
EXTRACT: note_on channel=9 note=39 velocity=0 time=0.010416666666666666
EXTRACT: note_on channel=9 note=54 velocity=0 time=0
EXTRACT: note_on channel=9 note=42 velocity=0 time=0.03645833333333333
EXTRACT: note_on channel=9 note=54 velocity=52 time=0.020833333333333332
EXTRACT: note_on channel=9 note=70 velocity=63 time=0
EXTRACT: note_on channel=7 note=71 velocity=93 time=0
EXTRACT: note_on channel=3 note=66 velocity=0 time=0.08333333333333333
EXTRACT: note_on channel=4 note=66 velocity=0 time=0
EXTRACT: note_on channel=9 note=70 velocity=0 time=0.005208333333333333
EXTRACT: note_on channel=9 note=54 velocity=0 time=0.005208333333333333
EXTRACT: note_on channel=9 note=42 velocity=46 time=0.0625
EXTRACT: note_on channel=9 note=54 velocity=46 time=0
EXTRACT: note_on channel=9 note=70 velocity=80 time=0
EXTRACT: note_on channel=3 note=66 velocity=93 time=0
EXTRACT: note_on channel=4 note=66 velocity=78 time=0
EXTRACT: note_on channel=6 note=78 velocity=74 time=0
EXTRACT: note_on channel=9 note=54 velocity=0 time=0.06770833333333333
EXTRACT: note_on channel=9 note=70 velocity=0 time=0.010416666666666666
EXTRACT: note_on channel=7 note=71 velocity=0 time=0.020833333333333332
EXTRACT: note_on channel=3 note=66 velocity=0 time=0
EXTRACT: note_on channel=4 note=66 velocity=0 time=0
EXTRACT: note_on channel=9 note=42 velocity=0 time=0.015625
EXTRACT: note_on channel=9 note=36 velocity=0 time=0.010416666666666666
EXTRACT: note_on channel=9 note=54 velocity=57 time=0.03125
EXTRACT: note_on channel=9 note=70 velocity=62 time=0
EXTRACT: note_on channel=3 note=66 velocity=94 time=0
EXTRACT: note_on channel=4 note=66 velocity=79 time=0
EXTRACT: note_on channel=2 note=62 velocity=0 time=0.015625
EXTRACT: note_on channel=2 note=57 velocity=0 time=0.026041666666666664
EXTRACT: note_on channel=9 note=54 velocity=0 time=0.005208333333333333
EXTRACT: note_on channel=2 note=66 velocity=0 time=0.03645833333333333
EXTRACT: note_on channel=9 note=70 velocity=0 time=0.010416666666666666
EXTRACT: note_on channel=9 note=36 velocity=78 time=0.0625
EXTRACT: note_on channel=9 note=42 velocity=80 time=0
EXTRACT: note_on channel=9 note=54 velocity=54 time=0
EXTRACT: note_on channel=9 note=70 velocity=88 time=0
EXTRACT: note_on channel=2 note=57 velocity=74 time=0
EXTRACT: note_on channel=2 note=61 velocity=80 time=0
EXTRACT: note_on channel=2 note=64 velocity=74 time=0
EXTRACT: note_on channel=7 note=69 velocity=95 time=0
EXTRACT: note_on channel=3 note=66 velocity=0 time=0.09375
EXTRACT: note_on channel=4 note=66 velocity=0 time=0
EXTRACT: note_on channel=9 note=54 velocity=0 time=0
EXTRACT: note_on channel=6 note=66 velocity=0 time=0.005208333333333333
EXTRACT: note_on channel=9 note=70 velocity=0 time=0
EXTRACT: note_on channel=6 note=71 velocity=0 time=0.010416666666666666
EXTRACT: note_on channel=6 note=78 velocity=0 time=0
EXTRACT: note_on channel=7 note=69 velocity=0 time=0
EXTRACT: note_on channel=9 note=42 velocity=0 time=0.020833333333333332
EXTRACT: note_on channel=9 note=54 velocity=38 time=0.026041666666666664
EXTRACT: note_on channel=9 note=70 velocity=66 time=0
EXTRACT: note_on channel=3 note=69 velocity=88 time=0
EXTRACT: note_on channel=4 note=69 velocity=73 time=0
EXTRACT: note_on channel=7 note=71 velocity=82 time=0
EXTRACT: note_on channel=9 note=70 velocity=0 time=0.07291666666666666
EXTRACT: note_on channel=9 note=54 velocity=0 time=0.005208333333333333
EXTRACT: note_on channel=3 note=69 velocity=0 time=0.005208333333333333
EXTRACT: note_on channel=4 note=69 velocity=0 time=0
EXTRACT: note_on channel=7 note=71 velocity=0 time=0
EXTRACT: note_on channel=9 note=42 velocity=50 time=0.07291666666666666
EXTRACT: note_on channel=9 note=54 velocity=44 time=0
EXTRACT: note_on channel=9 note=69 velocity=61 time=0
EXTRACT: note_on channel=9 note=70 velocity=61 time=0
EXTRACT: note_on channel=3 note=69 velocity=102 time=0
EXTRACT: note_on channel=4 note=69 velocity=87 time=0
EXTRACT: note_on channel=7 note=71 velocity=87 time=0
EXTRACT: note_on channel=9 note=54 velocity=0 time=0.06770833333333333
EXTRACT: note_on channel=9 note=70 velocity=0 time=0
EXTRACT: note_on channel=9 note=69 velocity=0 time=0.005208333333333333
EXTRACT: note_on channel=9 note=42 velocity=0 time=0.026041666666666664
EXTRACT: note_on channel=7 note=71 velocity=0 time=0
EXTRACT: note_on channel=9 note=36 velocity=0 time=0.020833333333333332
EXTRACT: note_on channel=9 note=54 velocity=36 time=0.03645833333333333
EXTRACT: note_on channel=9 note=69 velocity=48 time=0
EXTRACT: note_on channel=9 note=70 velocity=58 time=0
EXTRACT: note_on channel=7 note=69 velocity=86 time=0
EXTRACT: note_on channel=3 note=69 velocity=0 time=0.046875
EXTRACT: note_on channel=4 note=69 velocity=0 time=0
EXTRACT: note_on channel=9 note=54 velocity=0 time=0.005208333333333333
EXTRACT: note_on channel=9 note=69 velocity=0 time=0.015625
EXTRACT: note_on channel=7 note=69 velocity=0 time=0.015625
EXTRACT: note_on channel=9 note=70 velocity=0 time=0.015625
EXTRACT: note_on channel=9 note=36 velocity=82 time=0.057291666666666664
EXTRACT: note_on channel=9 note=39 velocity=82 time=0
EXTRACT: note_on channel=9 note=40 velocity=80 time=0
EXTRACT: note_on channel=9 note=42 velocity=84 time=0
EXTRACT: note_on channel=9 note=54 velocity=61 time=0
EXTRACT: note_on channel=9 note=69 velocity=52 time=0
EXTRACT: note_on channel=9 note=70 velocity=89 time=0
EXTRACT: note_on channel=1 note=42 velocity=97 time=0
EXTRACT: note_on channel=3 note=69 velocity=104 time=0
EXTRACT: note_on channel=4 note=69 velocity=89 time=0
EXTRACT: note_on channel=6 note=79 velocity=98 time=0
EXTRACT: note_on channel=7 note=71 velocity=88 time=0
EXTRACT: note_on channel=3 note=69 velocity=0 time=0.07291666666666666
EXTRACT: note_on channel=4 note=69 velocity=0 time=0
EXTRACT: note_on channel=9 note=69 velocity=0 time=0.010416666666666666
EXTRACT: note_on channel=9 note=70 velocity=0 time=0.010416666666666666
EXTRACT: note_on channel=9 note=54 velocity=0 time=0.005208333333333333
EXTRACT: note_on channel=9 note=39 velocity=0 time=0.005208333333333333
EXTRACT: note_on channel=7 note=71 velocity=0 time=0
EXTRACT: note_on channel=9 note=40 velocity=0 time=0.005208333333333333
EXTRACT: note_on channel=9 note=42 velocity=0 time=0.041666666666666664
EXTRACT: note_on channel=9 note=54 velocity=52 time=0.005208333333333333
EXTRACT: note_on channel=9 note=70 velocity=71 time=0
EXTRACT: note_on channel=3 note=69 velocity=101 time=0
EXTRACT: note_on channel=4 note=69 velocity=86 time=0
EXTRACT: note_on channel=9 note=54 velocity=0 time=0.09375
EXTRACT: note_on channel=9 note=70 velocity=0 time=0.005208333333333333
EXTRACT: note_on channel=3 note=69 velocity=0 time=0.010416666666666666
EXTRACT: note_on channel=4 note=69 velocity=0 time=0
EXTRACT: note_on channel=9 note=42 velocity=52 time=0.046875
EXTRACT: note_on channel=9 note=54 velocity=46 time=0
EXTRACT: note_on channel=9 note=70 velocity=71 time=0
EXTRACT: note_on channel=3 note=71 velocity=98 time=0
EXTRACT: note_on channel=4 note=71 velocity=83 time=0
EXTRACT: note_on channel=5 note=52 velocity=59 time=0
EXTRACT: note_on channel=5 note=57 velocity=58 time=0
EXTRACT: note_on channel=5 note=59 velocity=67 time=0
EXTRACT: note_on channel=5 note=62 velocity=63 time=0
EXTRACT: note_on channel=7 note=78 velocity=94 time=0
EXTRACT: note_on channel=9 note=54 velocity=0 time=0.06770833333333333
EXTRACT: note_on channel=9 note=70 velocity=0 time=0.015625
EXTRACT: note_on channel=9 note=42 velocity=0 time=0.015625
EXTRACT: note_on channel=2 note=57 velocity=0 time=0.026041666666666664
EXTRACT: note_on channel=9 note=36 velocity=0 time=0.010416666666666666
EXTRACT: note_on channel=7 note=78 velocity=0 time=0.020833333333333332
EXTRACT: note_on channel=9 note=42 velocity=40 time=0
EXTRACT: note_on channel=9 note=54 velocity=57 time=0
EXTRACT: note_on channel=9 note=70 velocity=61 time=0
EXTRACT: note_on channel=1 note=42 velocity=0 time=0.041666666666666664
EXTRACT: note_on channel=9 note=54 velocity=0 time=0.005208333333333333
EXTRACT: note_on channel=3 note=71 velocity=0 time=0.020833333333333332
EXTRACT: note_on channel=4 note=71 velocity=0 time=0
EXTRACT: note_on channel=2 note=61 velocity=0 time=0.005208333333333333
EXTRACT: note_on channel=2 note=64 velocity=0 time=0
EXTRACT: note_on channel=5 note=62 velocity=0 time=0.010416666666666666
EXTRACT: note_on channel=5 note=59 velocity=0 time=0.005208333333333333
EXTRACT: note_on channel=9 note=42 velocity=0 time=0.010416666666666666
EXTRACT: note_on channel=9 note=70 velocity=0 time=0
EXTRACT: note_on channel=6 note=79 velocity=0 time=0.010416666666666666
EXTRACT: note_on channel=5 note=57 velocity=0 time=0.010416666666666666
EXTRACT: note_on channel=5 note=52 velocity=0 time=0.005208333333333333
EXTRACT: note_on channel=9 note=36 velocity=83 time=0.03125
EXTRACT: note_on channel=9 note=42 velocity=77 time=0
EXTRACT: note_on channel=9 note=54 velocity=54 time=0
EXTRACT: note_on channel=9 note=70 velocity=90 time=0
EXTRACT: note_on channel=1 note=35 velocity=94 time=0
EXTRACT: note_on channel=2 note=54 velocity=66 time=0
EXTRACT: note_on channel=2 note=57 velocity=68 time=0
EXTRACT: note_on channel=2 note=62 velocity=71 time=0
EXTRACT: note_on channel=3 note=66 velocity=97 time=0
EXTRACT: note_on channel=4 note=66 velocity=82 time=0
EXTRACT: note_on channel=6 note=78 velocity=96 time=0
EXTRACT: note_on channel=9 note=54 velocity=0 time=0.09375
EXTRACT: note_on channel=9 note=70 velocity=0 time=0.005208333333333333
EXTRACT: note_on channel=9 note=54 velocity=38 time=0.057291666666666664
EXTRACT: note_on channel=9 note=70 velocity=70 time=0
EXTRACT: note_on channel=9 note=42 velocity=0 time=0.015625
EXTRACT: note_on channel=3 note=66 velocity=0 time=0.026041666666666664
EXTRACT: note_on channel=4 note=66 velocity=0 time=0
EXTRACT: note_on channel=9 note=70 velocity=0 time=0.005208333333333333
EXTRACT: note_on channel=9 note=54 velocity=0 time=0.03125
EXTRACT: note_on channel=9 note=42 velocity=54 time=0.078125
EXTRACT: note_on channel=9 note=54 velocity=44 time=0
EXTRACT: note_on channel=9 note=69 velocity=71 time=0
EXTRACT: note_on channel=9 note=70 velocity=71 time=0
EXTRACT: note_on channel=3 note=66 velocity=102 time=0
EXTRACT: note_on channel=4 note=66 velocity=87 time=0
EXTRACT: note_on channel=7 note=74 velocity=95 time=0
EXTRACT: note_on channel=9 note=54 velocity=0 time=0.06770833333333333
EXTRACT: note_on channel=9 note=69 velocity=0 time=0
EXTRACT: note_on channel=9 note=70 velocity=0 time=0.015625
EXTRACT: note_on channel=7 note=74 velocity=0 time=0
EXTRACT: note_on channel=1 note=35 velocity=0 time=0.005208333333333333
EXTRACT: note_on channel=9 note=36 velocity=0 time=0.015625
EXTRACT: note_on channel=9 note=42 velocity=0 time=0.005208333333333333
EXTRACT: note_on channel=9 note=54 velocity=36 time=0.046875
EXTRACT: note_on channel=9 note=70 velocity=56 time=0
EXTRACT: note_on channel=3 note=66 velocity=0 time=0.020833333333333332
EXTRACT: note_on channel=4 note=66 velocity=0 time=0
EXTRACT: note_on channel=9 note=54 velocity=0 time=0.03125
EXTRACT: note_on channel=9 note=70 velocity=0 time=0.046875
EXTRACT: note_on channel=9 note=36 velocity=84 time=0.057291666666666664
EXTRACT: note_on channel=9 note=39 velocity=84 time=0
EXTRACT: note_on channel=9 note=40 velocity=82 time=0
EXTRACT: note_on channel=9 note=42 velocity=79 time=0
EXTRACT: note_on channel=9 note=54 velocity=61 time=0
EXTRACT: note_on channel=9 note=70 velocity=87 time=0
EXTRACT: note_on channel=3 note=66 velocity=98 time=0
EXTRACT: note_on channel=4 note=66 velocity=83 time=0
EXTRACT: note_on channel=9 note=40 velocity=0 time=0.06770833333333333
EXTRACT: note_on channel=9 note=70 velocity=0 time=0.026041666666666664
EXTRACT: note_on channel=9 note=39 velocity=0 time=0.005208333333333333
EXTRACT: note_on channel=9 note=54 velocity=0 time=0
EXTRACT: note_on channel=9 note=54 velocity=52 time=0.057291666666666664
EXTRACT: note_on channel=9 note=70 velocity=74 time=0
EXTRACT: note_on channel=7 note=71 velocity=93 time=0
EXTRACT: note_on channel=9 note=42 velocity=0 time=0.020833333333333332
EXTRACT: note_on channel=3 note=66 velocity=0 time=0.06770833333333333
EXTRACT: note_on channel=4 note=66 velocity=0 time=0
EXTRACT: note_on channel=9 note=54 velocity=0 time=0.005208333333333333
EXTRACT: note_on channel=9 note=70 velocity=0 time=0.005208333333333333
EXTRACT: note_on channel=9 note=42 velocity=54 time=0.057291666666666664
EXTRACT: note_on channel=9 note=54 velocity=46 time=0
EXTRACT: note_on channel=9 note=69 velocity=64 time=0
EXTRACT: note_on channel=9 note=70 velocity=72 time=0
EXTRACT: note_on channel=1 note=33 velocity=98 time=0
EXTRACT: note_on channel=3 note=66 velocity=87 time=0
EXTRACT: note_on channel=4 note=66 velocity=72 time=0
EXTRACT: note_on channel=9 note=69 velocity=0 time=0.0625
EXTRACT: note_on channel=9 note=54 velocity=0 time=0.005208333333333333
EXTRACT: note_on channel=2 note=57 velocity=0 time=0.015625
EXTRACT: note_on channel=9 note=70 velocity=0 time=0
EXTRACT: note_on channel=3 note=66 velocity=0 time=0.010416666666666666
EXTRACT: note_on channel=4 note=66 velocity=0 time=0
EXTRACT: note_on channel=7 note=71 velocity=0 time=0.005208333333333333
EXTRACT: note_on channel=9 note=36 velocity=0 time=0.010416666666666666
EXTRACT: note_on channel=9 note=42 velocity=0 time=0.005208333333333333
EXTRACT: note_on channel=2 note=62 velocity=0 time=0.03125
EXTRACT: note_on channel=9 note=54 velocity=57 time=0.010416666666666666
EXTRACT: note_on channel=9 note=70 velocity=66 time=0
EXTRACT: note_on channel=3 note=66 velocity=90 time=0
EXTRACT: note_on channel=4 note=66 velocity=75 time=0
EXTRACT: note_on channel=9 note=54 velocity=0 time=0.046875
EXTRACT: note_on channel=2 note=54 velocity=0 time=0.041666666666666664
EXTRACT: note_on channel=9 note=70 velocity=0 time=0.010416666666666666
EXTRACT: note_on channel=1 note=33 velocity=0 time=0.05208333333333333
EXTRACT: note_on channel=9 note=36 velocity=81 time=0.005208333333333333
EXTRACT: note_on channel=9 note=42 velocity=87 time=0
EXTRACT: note_on channel=9 note=54 velocity=54 time=0
EXTRACT: note_on channel=9 note=70 velocity=93 time=0
EXTRACT: note_on channel=1 note=35 velocity=98 time=0
EXTRACT: note_on channel=7 note=69 velocity=95 time=0
EXTRACT: note_on channel=3 note=66 velocity=0 time=0.08854166666666666
EXTRACT: note_on channel=4 note=66 velocity=0 time=0
EXTRACT: note_on channel=9 note=54 velocity=0 time=0.005208333333333333
EXTRACT: note_on channel=9 note=70 velocity=0 time=0.015625
EXTRACT: note_on channel=7 note=69 velocity=0 time=0
EXTRACT: note_on channel=9 note=42 velocity=0 time=0.041666666666666664
EXTRACT: note_on channel=9 note=54 velocity=38 time=0.005208333333333333
EXTRACT: note_on channel=9 note=70 velocity=59 time=0
EXTRACT: note_on channel=3 note=66 velocity=94 time=0
EXTRACT: note_on channel=4 note=66 velocity=79 time=0
EXTRACT: note_on channel=7 note=71 velocity=82 time=0
EXTRACT: note_on channel=9 note=54 velocity=0 time=0.078125
EXTRACT: note_on channel=7 note=71 velocity=0 time=0.005208333333333333
EXTRACT: note_on channel=9 note=70 velocity=0 time=0.010416666666666666
EXTRACT: note_on channel=3 note=66 velocity=0 time=0.010416666666666666
EXTRACT: note_on channel=4 note=66 velocity=0 time=0
EXTRACT: note_on channel=1 note=35 velocity=0 time=0.046875
EXTRACT: note_on channel=9 note=42 velocity=46 time=0.005208333333333333
EXTRACT: note_on channel=9 note=54 velocity=44 time=0
EXTRACT: note_on channel=9 note=69 velocity=60 time=0
EXTRACT: note_on channel=9 note=70 velocity=78 time=0
EXTRACT: note_on channel=3 note=69 velocity=105 time=0
EXTRACT: note_on channel=4 note=69 velocity=90 time=0
EXTRACT: note_on channel=7 note=71 velocity=87 time=0
EXTRACT: note_on channel=9 note=54 velocity=0 time=0.06770833333333333
EXTRACT: note_on channel=9 note=69 velocity=0 time=0.020833333333333332
EXTRACT: note_on channel=9 note=70 velocity=0 time=0.005208333333333333
EXTRACT: note_on channel=7 note=71 velocity=0 time=0.005208333333333333
EXTRACT: note_on channel=9 note=36 velocity=0 time=0.005208333333333333
EXTRACT: note_on channel=9 note=42 velocity=0 time=0.020833333333333332
EXTRACT: note_on channel=9 note=54 velocity=36 time=0.03125
EXTRACT: note_on channel=9 note=69 velocity=55 time=0
EXTRACT: note_on channel=9 note=70 velocity=74 time=0
EXTRACT: note_on channel=7 note=69 velocity=86 time=0
EXTRACT: note_on channel=9 note=54 velocity=0 time=0.05208333333333333
EXTRACT: note_on channel=3 note=69 velocity=0 time=0.005208333333333333
EXTRACT: note_on channel=4 note=69 velocity=0 time=0
EXTRACT: note_on channel=9 note=69 velocity=0 time=0.026041666666666664
EXTRACT: note_on channel=7 note=69 velocity=0 time=0
EXTRACT: note_on channel=9 note=70 velocity=0 time=0.005208333333333333
EXTRACT: note_on channel=9 note=36 velocity=82 time=0.06770833333333333
EXTRACT: note_on channel=9 note=39 velocity=82 time=0
EXTRACT: note_on channel=9 note=40 velocity=80 time=0
EXTRACT: note_on channel=9 note=42 velocity=78 time=0
EXTRACT: note_on channel=9 note=54 velocity=61 time=0
EXTRACT: note_on channel=9 note=69 velocity=50 time=0
EXTRACT: note_on channel=9 note=70 velocity=87 time=0
EXTRACT: note_on channel=3 note=69 velocity=102 time=0
EXTRACT: note_on channel=4 note=69 velocity=87 time=0
EXTRACT: note_on channel=7 note=71 velocity=88 time=0
EXTRACT: note_on channel=3 note=69 velocity=0 time=0.07291666666666666
EXTRACT: note_on channel=4 note=69 velocity=0 time=0
EXTRACT: note_on channel=9 note=69 velocity=0 time=0.015625
EXTRACT: note_on channel=9 note=54 velocity=0 time=0.010416666666666666
EXTRACT: note_on channel=9 note=70 velocity=0 time=0
EXTRACT: note_on channel=9 note=39 velocity=0 time=0.005208333333333333
EXTRACT: note_on channel=7 note=71 velocity=0 time=0
EXTRACT: note_on channel=9 note=40 velocity=0 time=0.005208333333333333
EXTRACT: note_on channel=6 note=78 velocity=0 time=0.015625
EXTRACT: note_on channel=9 note=42 velocity=0 time=0.026041666666666664
EXTRACT: note_on channel=9 note=54 velocity=52 time=0.005208333333333333
EXTRACT: note_on channel=9 note=70 velocity=74 time=0
EXTRACT: note_on channel=3 note=69 velocity=100 time=0
EXTRACT: note_on channel=4 note=69 velocity=85 time=0
EXTRACT: note_on channel=3 note=69 velocity=0 time=0.07291666666666666
EXTRACT: note_on channel=4 note=69 velocity=0 time=0
EXTRACT: note_on channel=9 note=54 velocity=0 time=0.020833333333333332
EXTRACT: note_on channel=9 note=70 velocity=0 time=0
EXTRACT: note_on channel=9 note=46 velocity=49 time=0.0625
EXTRACT: note_on channel=9 note=54 velocity=46 time=0
EXTRACT: note_on channel=9 note=70 velocity=58 time=0
EXTRACT: note_on channel=1 note=33 velocity=103 time=0
EXTRACT: note_on channel=3 note=69 velocity=104 time=0
EXTRACT: note_on channel=4 note=69 velocity=89 time=0
EXTRACT: note_on channel=7 note=78 velocity=94 time=0
EXTRACT: note_on channel=9 note=54 velocity=0 time=0.06770833333333333
EXTRACT: note_on channel=9 note=46 velocity=0 time=0.026041666666666664
EXTRACT: note_on channel=9 note=70 velocity=0 time=0.005208333333333333
EXTRACT: note_on channel=7 note=78 velocity=0 time=0.057291666666666664
EXTRACT: note_on channel=9 note=54 velocity=57 time=0
EXTRACT: note_on channel=9 note=70 velocity=61 time=0
EXTRACT: note_on channel=1 note=34 velocity=85 time=0
EXTRACT: note_on channel=9 note=36 velocity=0 time=0.020833333333333332
EXTRACT: note_on channel=1 note=33 velocity=0 time=0.015625
EXTRACT: note_on channel=9 note=54 velocity=0 time=0.010416666666666666
EXTRACT: note_on channel=9 note=70 velocity=0 time=0.041666666666666664
EXTRACT: note_on channel=1 note=34 velocity=0 time=0.046875
EXTRACT: note_on channel=3 note=69 velocity=0 time=0.015625
EXTRACT: note_on channel=4 note=69 velocity=0 time=0
EXTRACT: note_on channel=9 note=36 velocity=77 time=0.005208333333333333
EXTRACT: note_on channel=9 note=42 velocity=88 time=0
EXTRACT: note_on channel=9 note=54 velocity=54 time=0
EXTRACT: note_on channel=9 note=70 velocity=87 time=0
EXTRACT: note_on channel=1 note=35 velocity=102 time=0
EXTRACT: note_on channel=2 note=57 velocity=83 time=0
EXTRACT: note_on channel=2 note=62 velocity=82 time=0
EXTRACT: note_on channel=2 note=66 velocity=81 time=0
EXTRACT: note_on channel=3 note=66 velocity=98 time=0
EXTRACT: note_on channel=4 note=66 velocity=83 time=0
EXTRACT: note_on channel=5 note=57 velocity=63 time=0
EXTRACT: note_on channel=5 note=59 velocity=67 time=0
EXTRACT: note_on channel=5 note=62 velocity=66 time=0
EXTRACT: note_on channel=9 note=70 velocity=0 time=0.08333333333333333
EXTRACT: note_on channel=9 note=54 velocity=0 time=0.010416666666666666
EXTRACT: note_on channel=9 note=42 velocity=0 time=0.010416666666666666
EXTRACT: note_on channel=9 note=54 velocity=38 time=0.05208333333333333
EXTRACT: note_on channel=9 note=70 velocity=63 time=0
EXTRACT: note_on channel=5 note=59 velocity=0 time=0.046875
EXTRACT: note_on channel=5 note=62 velocity=0 time=0
EXTRACT: note_on channel=9 note=54 velocity=0 time=0.03125
EXTRACT: note_on channel=3 note=66 velocity=0 time=0.020833333333333332
EXTRACT: note_on channel=4 note=66 velocity=0 time=0
EXTRACT: note_on channel=5 note=57 velocity=0 time=0
EXTRACT: note_on channel=9 note=70 velocity=0 time=0.005208333333333333
EXTRACT: note_on channel=9 note=42 velocity=46 time=0.05208333333333333
EXTRACT: note_on channel=9 note=54 velocity=44 time=0
EXTRACT: note_on channel=9 note=69 velocity=68 time=0
EXTRACT: note_on channel=9 note=70 velocity=46 time=0
EXTRACT: note_on channel=3 note=69 velocity=100 time=0
EXTRACT: note_on channel=4 note=69 velocity=85 time=0
EXTRACT: note_on channel=6 note=69 velocity=87 time=0
EXTRACT: note_on channel=7 note=74 velocity=95 time=0
EXTRACT: note_on channel=1 note=35 velocity=0 time=0.026041666666666664
EXTRACT: note_on channel=9 note=70 velocity=0 time=0.020833333333333332
EXTRACT: note_on channel=9 note=69 velocity=0 time=0.010416666666666666
EXTRACT: note_on channel=9 note=54 velocity=0 time=0.010416666666666666
EXTRACT: note_on channel=9 note=42 velocity=0 time=0.015625
EXTRACT: note_on channel=7 note=74 velocity=0 time=0
EXTRACT: note_on channel=9 note=36 velocity=0 time=0.041666666666666664
EXTRACT: note_on channel=3 note=69 velocity=0 time=0.03125
EXTRACT: note_on channel=4 note=69 velocity=0 time=0
EXTRACT: note_on channel=9 note=54 velocity=36 time=0
EXTRACT: note_on channel=9 note=70 velocity=61 time=0
EXTRACT: note_on channel=9 note=54 velocity=0 time=0.05208333333333333
EXTRACT: note_on channel=9 note=70 velocity=0 time=0.041666666666666664
EXTRACT: note_on channel=6 note=69 velocity=0 time=0.046875
EXTRACT: note_on channel=9 note=36 velocity=81 time=0.015625
EXTRACT: note_on channel=9 note=39 velocity=84 time=0
EXTRACT: note_on channel=9 note=40 velocity=82 time=0
EXTRACT: note_on channel=9 note=42 velocity=91 time=0
EXTRACT: note_on channel=9 note=54 velocity=61 time=0
EXTRACT: note_on channel=9 note=70 velocity=91 time=0
EXTRACT: note_on channel=3 note=66 velocity=96 time=0
EXTRACT: note_on channel=4 note=66 velocity=81 time=0
EXTRACT: note_on channel=6 note=71 velocity=83 time=0
EXTRACT: note_on channel=9 note=40 velocity=0 time=0.06770833333333333
EXTRACT: note_on channel=9 note=70 velocity=0 time=0.020833333333333332
EXTRACT: note_on channel=9 note=39 velocity=0 time=0.010416666666666666
EXTRACT: note_on channel=9 note=54 velocity=0 time=0
EXTRACT: note_on channel=9 note=42 velocity=0 time=0.03645833333333333
EXTRACT: note_on channel=6 note=71 velocity=0 time=0.015625
EXTRACT: note_on channel=9 note=54 velocity=52 time=0.005208333333333333
EXTRACT: note_on channel=9 note=70 velocity=63 time=0
EXTRACT: note_on channel=7 note=71 velocity=93 time=0
EXTRACT: note_on channel=3 note=66 velocity=0 time=0.06770833333333333
EXTRACT: note_on channel=4 note=66 velocity=0 time=0
EXTRACT: note_on channel=9 note=70 velocity=0 time=0.020833333333333332
EXTRACT: note_on channel=9 note=54 velocity=0 time=0.005208333333333333
EXTRACT: note_on channel=9 note=42 velocity=46 time=0.0625
EXTRACT: note_on channel=9 note=54 velocity=46 time=0
EXTRACT: note_on channel=9 note=70 velocity=80 time=0
EXTRACT: note_on channel=3 note=69 velocity=103 time=0
EXTRACT: note_on channel=4 note=69 velocity=88 time=0
EXTRACT: note_on channel=6 note=74 velocity=91 time=0
EXTRACT: note_on channel=9 note=54 velocity=0 time=0.06770833333333333
EXTRACT: note_on channel=9 note=70 velocity=0 time=0.010416666666666666
EXTRACT: note_on channel=3 note=69 velocity=0 time=0
EXTRACT: note_on channel=4 note=69 velocity=0 time=0
EXTRACT: note_on channel=7 note=71 velocity=0 time=0.020833333333333332
EXTRACT: note_on channel=9 note=42 velocity=0 time=0.015625
EXTRACT: note_on channel=9 note=36 velocity=0 time=0.010416666666666666
EXTRACT: note_on channel=9 note=54 velocity=57 time=0.03125
EXTRACT: note_on channel=9 note=70 velocity=62 time=0
EXTRACT: note_on channel=3 note=71 velocity=105 time=0
EXTRACT: note_on channel=4 note=71 velocity=90 time=0
EXTRACT: note_on channel=9 note=54 velocity=0 time=0.046875
EXTRACT: note_on channel=9 note=70 velocity=0 time=0.046875
EXTRACT: note_on channel=9 note=36 velocity=78 time=0.0625
EXTRACT: note_on channel=9 note=42 velocity=80 time=0
EXTRACT: note_on channel=9 note=54 velocity=54 time=0
EXTRACT: note_on channel=9 note=70 velocity=88 time=0
EXTRACT: note_on channel=7 note=69 velocity=95 time=0
EXTRACT: note_on channel=9 note=54 velocity=0 time=0.09375
EXTRACT: note_on channel=9 note=70 velocity=0 time=0.005208333333333333
EXTRACT: note_on channel=7 note=69 velocity=0 time=0.010416666666666666
EXTRACT: note_on channel=9 note=42 velocity=0 time=0.020833333333333332
EXTRACT: note_on channel=9 note=54 velocity=38 time=0.026041666666666664
EXTRACT: note_on channel=9 note=70 velocity=66 time=0
EXTRACT: note_on channel=7 note=71 velocity=82 time=0
EXTRACT: note_on channel=9 note=70 velocity=0 time=0.07291666666666666
EXTRACT: note_on channel=9 note=54 velocity=0 time=0.005208333333333333
EXTRACT: note_on channel=7 note=71 velocity=0 time=0.005208333333333333
EXTRACT: note_on channel=3 note=71 velocity=0 time=0.06770833333333333
EXTRACT: note_on channel=4 note=71 velocity=0 time=0
EXTRACT: note_on channel=9 note=42 velocity=50 time=0.005208333333333333
EXTRACT: note_on channel=9 note=54 velocity=44 time=0
EXTRACT: note_on channel=9 note=69 velocity=61 time=0
EXTRACT: note_on channel=9 note=70 velocity=61 time=0
EXTRACT: note_on channel=3 note=66 velocity=95 time=0
EXTRACT: note_on channel=4 note=66 velocity=80 time=0
EXTRACT: note_on channel=7 note=71 velocity=87 time=0
EXTRACT: note_on channel=9 note=54 velocity=0 time=0.06770833333333333
EXTRACT: note_on channel=9 note=70 velocity=0 time=0
EXTRACT: note_on channel=9 note=69 velocity=0 time=0.005208333333333333
EXTRACT: note_on channel=9 note=42 velocity=0 time=0.026041666666666664
EXTRACT: note_on channel=7 note=71 velocity=0 time=0
EXTRACT: note_on channel=9 note=36 velocity=0 time=0.020833333333333332
EXTRACT: note_on channel=9 note=54 velocity=36 time=0.03645833333333333
EXTRACT: note_on channel=9 note=69 velocity=48 time=0
EXTRACT: note_on channel=9 note=70 velocity=58 time=0
EXTRACT: note_on channel=7 note=69 velocity=86 time=0
EXTRACT: note_on channel=9 note=54 velocity=0 time=0.05208333333333333
EXTRACT: note_on channel=9 note=69 velocity=0 time=0.015625
EXTRACT: note_on channel=7 note=69 velocity=0 time=0.015625
EXTRACT: note_on channel=9 note=70 velocity=0 time=0.015625
EXTRACT: note_on channel=3 note=66 velocity=0 time=0.05208333333333333
EXTRACT: note_on channel=4 note=66 velocity=0 time=0
EXTRACT: note_on channel=9 note=36 velocity=82 time=0.005208333333333333
EXTRACT: note_on channel=9 note=39 velocity=82 time=0
EXTRACT: note_on channel=9 note=40 velocity=80 time=0
EXTRACT: note_on channel=9 note=42 velocity=84 time=0
EXTRACT: note_on channel=9 note=54 velocity=61 time=0
EXTRACT: note_on channel=9 note=69 velocity=52 time=0
EXTRACT: note_on channel=9 note=70 velocity=89 time=0
EXTRACT: note_on channel=1 note=42 velocity=98 time=0
EXTRACT: note_on channel=3 note=64 velocity=101 time=0
EXTRACT: note_on channel=4 note=64 velocity=86 time=0
EXTRACT: note_on channel=7 note=71 velocity=88 time=0
EXTRACT: note_on channel=9 note=69 velocity=0 time=0.08333333333333333
EXTRACT: note_on channel=9 note=70 velocity=0 time=0.010416666666666666
EXTRACT: note_on channel=9 note=54 velocity=0 time=0.005208333333333333
EXTRACT: note_on channel=9 note=39 velocity=0 time=0.005208333333333333
EXTRACT: note_on channel=7 note=71 velocity=0 time=0
EXTRACT: note_on channel=9 note=40 velocity=0 time=0.005208333333333333
EXTRACT: note_on channel=9 note=42 velocity=0 time=0.041666666666666664
EXTRACT: note_on channel=3 note=64 velocity=0 time=0
EXTRACT: note_on channel=4 note=64 velocity=0 time=0
EXTRACT: note_on channel=9 note=54 velocity=52 time=0.005208333333333333
EXTRACT: note_on channel=9 note=70 velocity=71 time=0
EXTRACT: note_on channel=3 note=66 velocity=88 time=0
EXTRACT: note_on channel=4 note=66 velocity=73 time=0
EXTRACT: note_on channel=9 note=54 velocity=0 time=0.09375
EXTRACT: note_on channel=9 note=70 velocity=0 time=0.005208333333333333
EXTRACT: note_on channel=3 note=66 velocity=0 time=0.010416666666666666
EXTRACT: note_on channel=4 note=66 velocity=0 time=0
EXTRACT: note_on channel=9 note=42 velocity=52 time=0.046875
EXTRACT: note_on channel=9 note=54 velocity=46 time=0
EXTRACT: note_on channel=9 note=70 velocity=71 time=0
EXTRACT: note_on channel=3 note=69 velocity=107 time=0
EXTRACT: note_on channel=4 note=69 velocity=92 time=0
EXTRACT: note_on channel=5 note=52 velocity=59 time=0
EXTRACT: note_on channel=5 note=57 velocity=58 time=0
EXTRACT: note_on channel=5 note=59 velocity=67 time=0
EXTRACT: note_on channel=5 note=62 velocity=63 time=0
EXTRACT: note_on channel=7 note=78 velocity=94 time=0
EXTRACT: note_on channel=9 note=54 velocity=0 time=0.06770833333333333
EXTRACT: note_on channel=9 note=70 velocity=0 time=0.015625
EXTRACT: note_on channel=3 note=69 velocity=0 time=0
EXTRACT: note_on channel=4 note=69 velocity=0 time=0
EXTRACT: note_on channel=2 note=62 velocity=0 time=0.015625
EXTRACT: note_on channel=9 note=42 velocity=0 time=0
EXTRACT: note_on channel=2 note=57 velocity=0 time=0.026041666666666664
EXTRACT: note_on channel=9 note=36 velocity=0 time=0.010416666666666666
EXTRACT: note_on channel=7 note=78 velocity=0 time=0.020833333333333332
EXTRACT: note_on channel=9 note=42 velocity=40 time=0
EXTRACT: note_on channel=9 note=54 velocity=57 time=0
EXTRACT: note_on channel=9 note=70 velocity=61 time=0
EXTRACT: note_on channel=2 note=66 velocity=0 time=0.015625
EXTRACT: note_on channel=1 note=42 velocity=0 time=0.026041666666666664
EXTRACT: note_on channel=9 note=54 velocity=0 time=0.005208333333333333
EXTRACT: note_on channel=6 note=74 velocity=0 time=0.020833333333333332
EXTRACT: note_on channel=5 note=62 velocity=0 time=0.015625
EXTRACT: note_on channel=5 note=59 velocity=0 time=0.005208333333333333
EXTRACT: note_on channel=9 note=42 velocity=0 time=0.010416666666666666
EXTRACT: note_on channel=9 note=70 velocity=0 time=0
EXTRACT: note_on channel=5 note=57 velocity=0 time=0.020833333333333332
EXTRACT: note_on channel=5 note=52 velocity=0 time=0.005208333333333333
EXTRACT: note_on channel=9 note=36 velocity=83 time=0.03125
EXTRACT: note_on channel=9 note=42 velocity=77 time=0
EXTRACT: note_on channel=9 note=54 velocity=54 time=0
EXTRACT: note_on channel=9 note=70 velocity=90 time=0
EXTRACT: note_on channel=1 note=35 velocity=95 time=0
EXTRACT: note_on channel=2 note=57 velocity=82 time=0
EXTRACT: note_on channel=2 note=59 velocity=83 time=0
EXTRACT: note_on channel=2 note=64 velocity=87 time=0
EXTRACT: note_on channel=3 note=66 velocity=103 time=0
EXTRACT: note_on channel=4 note=66 velocity=88 time=0
EXTRACT: note_on channel=6 note=76 velocity=95 time=0
EXTRACT: note_on channel=9 note=54 velocity=0 time=0.09375
EXTRACT: note_on channel=9 note=70 velocity=0 time=0.005208333333333333
EXTRACT: note_on channel=9 note=54 velocity=38 time=0.057291666666666664
EXTRACT: note_on channel=9 note=70 velocity=70 time=0
EXTRACT: note_on channel=9 note=42 velocity=0 time=0.015625
EXTRACT: note_on channel=9 note=70 velocity=0 time=0.03125
EXTRACT: note_on channel=9 note=54 velocity=0 time=0.03125
EXTRACT: note_on channel=3 note=66 velocity=0 time=0.020833333333333332
EXTRACT: note_on channel=4 note=66 velocity=0 time=0
EXTRACT: note_on channel=9 note=42 velocity=54 time=0.057291666666666664
EXTRACT: note_on channel=9 note=54 velocity=44 time=0
EXTRACT: note_on channel=9 note=69 velocity=71 time=0
EXTRACT: note_on channel=9 note=70 velocity=71 time=0
EXTRACT: note_on channel=3 note=69 velocity=104 time=0
EXTRACT: note_on channel=4 note=69 velocity=89 time=0
EXTRACT: note_on channel=7 note=74 velocity=95 time=0
EXTRACT: note_on channel=1 note=35 velocity=0 time=0.041666666666666664
EXTRACT: note_on channel=9 note=54 velocity=0 time=0.026041666666666664
EXTRACT: note_on channel=9 note=69 velocity=0 time=0
EXTRACT: note_on channel=9 note=70 velocity=0 time=0.015625
EXTRACT: note_on channel=7 note=74 velocity=0 time=0
EXTRACT: note_on channel=9 note=36 velocity=0 time=0.020833333333333332
EXTRACT: note_on channel=9 note=42 velocity=0 time=0.005208333333333333
EXTRACT: note_on channel=9 note=54 velocity=36 time=0.046875
EXTRACT: note_on channel=9 note=70 velocity=56 time=0
EXTRACT: note_on channel=3 note=69 velocity=0 time=0.03125
EXTRACT: note_on channel=4 note=69 velocity=0 time=0
EXTRACT: note_on channel=9 note=54 velocity=0 time=0.020833333333333332
EXTRACT: note_on channel=9 note=70 velocity=0 time=0.046875
EXTRACT: note_on channel=9 note=36 velocity=84 time=0.057291666666666664
EXTRACT: note_on channel=9 note=39 velocity=84 time=0
EXTRACT: note_on channel=9 note=40 velocity=82 time=0
EXTRACT: note_on channel=9 note=42 velocity=79 time=0
EXTRACT: note_on channel=9 note=54 velocity=61 time=0
EXTRACT: note_on channel=9 note=70 velocity=87 time=0
EXTRACT: note_on channel=3 note=66 velocity=97 time=0
EXTRACT: note_on channel=4 note=66 velocity=82 time=0
EXTRACT: note_on channel=9 note=40 velocity=0 time=0.06770833333333333
EXTRACT: note_on channel=9 note=70 velocity=0 time=0.026041666666666664
EXTRACT: note_on channel=9 note=39 velocity=0 time=0.005208333333333333
EXTRACT: note_on channel=9 note=54 velocity=0 time=0
EXTRACT: note_on channel=9 note=54 velocity=52 time=0.057291666666666664
EXTRACT: note_on channel=9 note=70 velocity=74 time=0
EXTRACT: note_on channel=7 note=71 velocity=93 time=0
EXTRACT: note_on channel=9 note=42 velocity=0 time=0.020833333333333332
EXTRACT: note_on channel=3 note=66 velocity=0 time=0.07291666666666666
EXTRACT: note_on channel=4 note=66 velocity=0 time=0
EXTRACT: note_on channel=9 note=54 velocity=0 time=0
EXTRACT: note_on channel=9 note=70 velocity=0 time=0.005208333333333333
EXTRACT: note_on channel=9 note=42 velocity=54 time=0.057291666666666664
EXTRACT: note_on channel=9 note=54 velocity=46 time=0
EXTRACT: note_on channel=9 note=69 velocity=64 time=0
EXTRACT: note_on channel=9 note=70 velocity=72 time=0
EXTRACT: note_on channel=1 note=30 velocity=78 time=0
EXTRACT: note_on channel=3 note=69 velocity=100 time=0
EXTRACT: note_on channel=4 note=69 velocity=85 time=0
EXTRACT: note_on channel=9 note=69 velocity=0 time=0.0625
EXTRACT: note_on channel=9 note=54 velocity=0 time=0.005208333333333333
EXTRACT: note_on channel=3 note=69 velocity=0 time=0.010416666666666666
EXTRACT: note_on channel=4 note=69 velocity=0 time=0
EXTRACT: note_on channel=9 note=70 velocity=0 time=0.005208333333333333
EXTRACT: note_on channel=7 note=71 velocity=0 time=0.015625
EXTRACT: note_on channel=9 note=36 velocity=0 time=0.010416666666666666
EXTRACT: note_on channel=9 note=42 velocity=0 time=0.005208333333333333
EXTRACT: note_on channel=9 note=54 velocity=57 time=0.041666666666666664
EXTRACT: note_on channel=9 note=70 velocity=66 time=0
EXTRACT: note_on channel=3 note=71 velocity=104 time=0
EXTRACT: note_on channel=4 note=71 velocity=89 time=0
EXTRACT: note_on channel=2 note=59 velocity=0 time=0.041666666666666664
EXTRACT: note_on channel=2 note=64 velocity=0 time=0
EXTRACT: note_on channel=9 note=54 velocity=0 time=0.005208333333333333
EXTRACT: note_on channel=2 note=57 velocity=0 time=0.020833333333333332
EXTRACT: note_on channel=9 note=70 velocity=0 time=0.03125
EXTRACT: note_on channel=9 note=36 velocity=81 time=0.057291666666666664
EXTRACT: note_on channel=9 note=42 velocity=87 time=0
EXTRACT: note_on channel=9 note=54 velocity=54 time=0
EXTRACT: note_on channel=9 note=70 velocity=93 time=0
EXTRACT: note_on channel=1 note=33 velocity=83 time=0
EXTRACT: note_on channel=2 note=55 velocity=89 time=0
EXTRACT: note_on channel=2 note=59 velocity=80 time=0
EXTRACT: note_on channel=2 note=64 velocity=80 time=0
EXTRACT: note_on channel=7 note=69 velocity=95 time=0
EXTRACT: note_on channel=1 note=30 velocity=0 time=0.005208333333333333
EXTRACT: note_on channel=9 note=54 velocity=0 time=0.08854166666666666
EXTRACT: note_on channel=9 note=70 velocity=0 time=0.015625
EXTRACT: note_on channel=7 note=69 velocity=0 time=0
EXTRACT: note_on channel=3 note=71 velocity=0 time=0.041666666666666664
EXTRACT: note_on channel=4 note=71 velocity=0 time=0
EXTRACT: note_on channel=9 note=42 velocity=0 time=0
EXTRACT: note_on channel=9 note=54 velocity=38 time=0.005208333333333333
EXTRACT: note_on channel=9 note=70 velocity=59 time=0
EXTRACT: note_on channel=3 note=69 velocity=90 time=0
EXTRACT: note_on channel=4 note=69 velocity=75 time=0
EXTRACT: note_on channel=7 note=71 velocity=82 time=0
EXTRACT: note_on channel=9 note=54 velocity=0 time=0.078125
EXTRACT: note_on channel=7 note=71 velocity=0 time=0.005208333333333333
EXTRACT: note_on channel=9 note=70 velocity=0 time=0.010416666666666666
EXTRACT: note_on channel=3 note=69 velocity=0 time=0.005208333333333333
EXTRACT: note_on channel=4 note=69 velocity=0 time=0
EXTRACT: note_on channel=9 note=42 velocity=46 time=0.057291666666666664
EXTRACT: note_on channel=9 note=54 velocity=44 time=0
EXTRACT: note_on channel=9 note=69 velocity=60 time=0
EXTRACT: note_on channel=9 note=70 velocity=78 time=0
EXTRACT: note_on channel=1 note=35 velocity=87 time=0
EXTRACT: note_on channel=3 note=66 velocity=95 time=0
EXTRACT: note_on channel=4 note=66 velocity=80 time=0
EXTRACT: note_on channel=7 note=71 velocity=87 time=0
EXTRACT: note_on channel=1 note=33 velocity=0 time=0.026041666666666664
EXTRACT: note_on channel=9 note=54 velocity=0 time=0.041666666666666664
EXTRACT: note_on channel=9 note=69 velocity=0 time=0.020833333333333332
EXTRACT: note_on channel=9 note=70 velocity=0 time=0.005208333333333333
EXTRACT: note_on channel=7 note=71 velocity=0 time=0.005208333333333333
EXTRACT: note_on channel=9 note=36 velocity=0 time=0.005208333333333333
EXTRACT: note_on channel=9 note=42 velocity=0 time=0.020833333333333332
EXTRACT: note_on channel=1 note=35 velocity=0 time=0.010416666666666666
EXTRACT: note_on channel=9 note=54 velocity=36 time=0.020833333333333332
EXTRACT: note_on channel=9 note=69 velocity=55 time=0
EXTRACT: note_on channel=9 note=70 velocity=74 time=0
EXTRACT: note_on channel=7 note=69 velocity=86 time=0
EXTRACT: note_on channel=9 note=54 velocity=0 time=0.05208333333333333
EXTRACT: note_on channel=9 note=69 velocity=0 time=0.03125
EXTRACT: note_on channel=7 note=69 velocity=0 time=0
EXTRACT: note_on channel=9 note=70 velocity=0 time=0.005208333333333333
EXTRACT: note_on channel=3 note=66 velocity=0 time=0.0625
EXTRACT: note_on channel=4 note=66 velocity=0 time=0
EXTRACT: note_on channel=9 note=36 velocity=82 time=0.005208333333333333
EXTRACT: note_on channel=9 note=39 velocity=82 time=0
EXTRACT: note_on channel=9 note=40 velocity=80 time=0
EXTRACT: note_on channel=9 note=42 velocity=78 time=0
EXTRACT: note_on channel=9 note=54 velocity=61 time=0
EXTRACT: note_on channel=9 note=69 velocity=50 time=0
EXTRACT: note_on channel=9 note=70 velocity=87 time=0
EXTRACT: note_on channel=1 note=35 velocity=93 time=0
EXTRACT: note_on channel=3 note=62 velocity=104 time=0
EXTRACT: note_on channel=4 note=62 velocity=89 time=0
EXTRACT: note_on channel=7 note=71 velocity=91 time=0
EXTRACT: note_on channel=9 note=69 velocity=0 time=0.08854166666666666
EXTRACT: note_on channel=3 note=62 velocity=0 time=0.005208333333333333
EXTRACT: note_on channel=4 note=62 velocity=0 time=0
EXTRACT: note_on channel=9 note=54 velocity=0 time=0.005208333333333333
EXTRACT: note_on channel=9 note=70 velocity=0 time=0
EXTRACT: note_on channel=9 note=39 velocity=0 time=0.005208333333333333
EXTRACT: note_on channel=9 note=40 velocity=0 time=0.005208333333333333
EXTRACT: note_on channel=7 note=71 velocity=0 time=0.03645833333333333
EXTRACT: note_on channel=9 note=42 velocity=0 time=0.005208333333333333
EXTRACT: note_on channel=1 note=35 velocity=0 time=0
EXTRACT: note_on channel=9 note=54 velocity=52 time=0.005208333333333333
EXTRACT: note_on channel=9 note=70 velocity=74 time=0
EXTRACT: note_on channel=1 note=33 velocity=74 time=0
EXTRACT: note_on channel=3 note=62 velocity=101 time=0
EXTRACT: note_on channel=4 note=62 velocity=86 time=0
EXTRACT: note_on channel=7 note=71 velocity=88 time=0
EXTRACT: note_on channel=9 note=54 velocity=0 time=0.09375
EXTRACT: note_on channel=9 note=70 velocity=0 time=0
EXTRACT: note_on channel=3 note=62 velocity=0 time=0
EXTRACT: note_on channel=4 note=62 velocity=0 time=0
EXTRACT: note_on channel=7 note=71 velocity=0 time=0.010416666666666666
EXTRACT: note_on channel=1 note=33 velocity=0 time=0.046875
EXTRACT: note_on channel=9 note=46 velocity=49 time=0.005208333333333333
EXTRACT: note_on channel=9 note=54 velocity=46 time=0
EXTRACT: note_on channel=9 note=70 velocity=58 time=0
EXTRACT: note_on channel=1 note=29 velocity=82 time=0
EXTRACT: note_on channel=3 note=62 velocity=95 time=0
EXTRACT: note_on channel=4 note=62 velocity=80 time=0
EXTRACT: note_on channel=7 note=74 velocity=94 time=0
EXTRACT: note_on channel=6 note=76 velocity=0 time=0.046875
EXTRACT: note_on channel=9 note=54 velocity=0 time=0.020833333333333332
EXTRACT: note_on channel=9 note=46 velocity=0 time=0.026041666666666664
EXTRACT: note_on channel=3 note=62 velocity=0 time=0
EXTRACT: note_on channel=4 note=62 velocity=0 time=0
EXTRACT: note_on channel=9 note=70 velocity=0 time=0.005208333333333333
EXTRACT: note_on channel=1 note=29 velocity=0 time=0.026041666666666664
EXTRACT: note_on channel=2 note=59 velocity=0 time=0.005208333333333333
EXTRACT: note_on channel=9 note=54 velocity=57 time=0.026041666666666664
EXTRACT: note_on channel=9 note=70 velocity=61 time=0
EXTRACT: note_on channel=1 note=30 velocity=80 time=0
EXTRACT: note_on channel=3 note=62 velocity=96 time=0
EXTRACT: note_on channel=4 note=62 velocity=81 time=0
EXTRACT: note_on channel=7 note=74 velocity=0 time=0.005208333333333333
EXTRACT: note_on channel=2 note=64 velocity=0 time=0.010416666666666666
EXTRACT: note_on channel=9 note=36 velocity=0 time=0.005208333333333333
EXTRACT: note_on channel=2 note=55 velocity=0 time=0.010416666666666666
EXTRACT: note_on channel=9 note=54 velocity=0 time=0.015625
EXTRACT: note_on channel=9 note=70 velocity=0 time=0.041666666666666664
EXTRACT: note_on channel=3 note=62 velocity=0 time=0.015625
EXTRACT: note_on channel=4 note=62 velocity=0 time=0
EXTRACT: note_on channel=1 note=30 velocity=0 time=0.005208333333333333
EXTRACT: note_on channel=9 note=36 velocity=77 time=0.046875
EXTRACT: note_on channel=9 note=42 velocity=88 time=0
EXTRACT: note_on channel=9 note=54 velocity=54 time=0
EXTRACT: note_on channel=9 note=70 velocity=87 time=0
EXTRACT: note_on channel=1 note=35 velocity=103 time=0
EXTRACT: note_on channel=2 note=54 velocity=87 time=0
EXTRACT: note_on channel=2 note=59 velocity=81 time=0
EXTRACT: note_on channel=2 note=62 velocity=83 time=0
EXTRACT: note_on channel=3 note=59 velocity=91 time=0
EXTRACT: note_on channel=4 note=59 velocity=76 time=0
EXTRACT: note_on channel=5 note=57 velocity=63 time=0
EXTRACT: note_on channel=5 note=59 velocity=67 time=0
EXTRACT: note_on channel=5 note=62 velocity=66 time=0
EXTRACT: note_on channel=6 note=78 velocity=103 time=0
EXTRACT: note_on channel=10 note=81 velocity=71 time=0
EXTRACT: note_on channel=9 note=70 velocity=0 time=0.08333333333333333
EXTRACT: note_on channel=9 note=54 velocity=0 time=0.010416666666666666
EXTRACT: note_on channel=9 note=42 velocity=0 time=0.010416666666666666
EXTRACT: note_on channel=9 note=54 velocity=38 time=0.05208333333333333
EXTRACT: note_on channel=9 note=70 velocity=63 time=0
EXTRACT: note_on channel=5 note=59 velocity=0 time=0.046875
EXTRACT: note_on channel=5 note=62 velocity=0 time=0
EXTRACT: note_on channel=9 note=54 velocity=0 time=0.03125
EXTRACT: note_on channel=5 note=57 velocity=0 time=0.020833333333333332
EXTRACT: note_on channel=9 note=70 velocity=0 time=0.005208333333333333
EXTRACT: note_on channel=3 note=59 velocity=0 time=0.046875
EXTRACT: note_on channel=4 note=59 velocity=0 time=0
EXTRACT: note_on channel=9 note=42 velocity=46 time=0.005208333333333333
EXTRACT: note_on channel=9 note=54 velocity=44 time=0
EXTRACT: note_on channel=9 note=69 velocity=68 time=0
EXTRACT: note_on channel=9 note=70 velocity=46 time=0
EXTRACT: note_on channel=3 note=66 velocity=113 time=0
EXTRACT: note_on channel=4 note=66 velocity=98 time=0
EXTRACT: note_on channel=7 note=74 velocity=95 time=0
EXTRACT: note_on channel=9 note=70 velocity=0 time=0.046875
EXTRACT: note_on channel=9 note=69 velocity=0 time=0.010416666666666666
EXTRACT: note_on channel=9 note=54 velocity=0 time=0.010416666666666666
EXTRACT: note_on channel=9 note=42 velocity=0 time=0.015625
EXTRACT: note_on channel=3 note=66 velocity=0 time=0
EXTRACT: note_on channel=4 note=66 velocity=0 time=0
EXTRACT: note_on channel=7 note=74 velocity=0 time=0
EXTRACT: note_on channel=9 note=36 velocity=0 time=0.041666666666666664
EXTRACT: note_on channel=1 note=35 velocity=0 time=0
EXTRACT: note_on channel=9 note=54 velocity=36 time=0.03125
EXTRACT: note_on channel=9 note=70 velocity=61 time=0
EXTRACT: note_on channel=3 note=66 velocity=94 time=0
EXTRACT: note_on channel=4 note=66 velocity=79 time=0
EXTRACT: note_on channel=9 note=54 velocity=0 time=0.05208333333333333
EXTRACT: note_on channel=3 note=66 velocity=0 time=0.026041666666666664
EXTRACT: note_on channel=4 note=66 velocity=0 time=0
EXTRACT: note_on channel=9 note=70 velocity=0 time=0.015625
EXTRACT: note_on channel=9 note=36 velocity=81 time=0.0625
EXTRACT: note_on channel=9 note=39 velocity=84 time=0
EXTRACT: note_on channel=9 note=40 velocity=82 time=0
EXTRACT: note_on channel=9 note=42 velocity=91 time=0
EXTRACT: note_on channel=9 note=54 velocity=61 time=0
EXTRACT: note_on channel=9 note=70 velocity=91 time=0
EXTRACT: note_on channel=3 note=66 velocity=101 time=0
EXTRACT: note_on channel=4 note=66 velocity=86 time=0
EXTRACT: note_on channel=9 note=40 velocity=0 time=0.06770833333333333
EXTRACT: note_on channel=9 note=70 velocity=0 time=0.020833333333333332
EXTRACT: note_on channel=9 note=39 velocity=0 time=0.010416666666666666
EXTRACT: note_on channel=9 note=54 velocity=0 time=0
EXTRACT: note_on channel=9 note=42 velocity=0 time=0.03645833333333333
EXTRACT: note_on channel=9 note=54 velocity=52 time=0.020833333333333332
EXTRACT: note_on channel=9 note=70 velocity=63 time=0
EXTRACT: note_on channel=7 note=71 velocity=93 time=0
EXTRACT: note_on channel=9 note=70 velocity=0 time=0.08854166666666666
EXTRACT: note_on channel=9 note=54 velocity=0 time=0.005208333333333333
EXTRACT: note_on channel=3 note=66 velocity=0 time=0.005208333333333333
EXTRACT: note_on channel=4 note=66 velocity=0 time=0
EXTRACT: note_on channel=9 note=42 velocity=46 time=0.057291666666666664
EXTRACT: note_on channel=9 note=54 velocity=46 time=0
EXTRACT: note_on channel=9 note=70 velocity=80 time=0
EXTRACT: note_on channel=3 note=66 velocity=98 time=0
EXTRACT: note_on channel=4 note=66 velocity=83 time=0
EXTRACT: note_on channel=9 note=54 velocity=0 time=0.06770833333333333
EXTRACT: note_on channel=9 note=70 velocity=0 time=0.010416666666666666
EXTRACT: note_on channel=3 note=66 velocity=0 time=0
EXTRACT: note_on channel=4 note=66 velocity=0 time=0
EXTRACT: note_on channel=7 note=71 velocity=0 time=0.020833333333333332
EXTRACT: note_on channel=9 note=42 velocity=0 time=0.015625
EXTRACT: note_on channel=9 note=36 velocity=0 time=0.010416666666666666
EXTRACT: note_on channel=2 note=62 velocity=0 time=0.020833333333333332
EXTRACT: note_on channel=9 note=54 velocity=57 time=0.010416666666666666
EXTRACT: note_on channel=9 note=70 velocity=62 time=0
EXTRACT: note_on channel=3 note=66 velocity=104 time=0
EXTRACT: note_on channel=4 note=66 velocity=89 time=0
EXTRACT: note_on channel=2 note=59 velocity=0 time=0.015625
EXTRACT: note_on channel=9 note=54 velocity=0 time=0.03125
EXTRACT: note_on channel=2 note=54 velocity=0 time=0.020833333333333332
EXTRACT: note_on channel=9 note=70 velocity=0 time=0.026041666666666664
EXTRACT: note_on channel=9 note=36 velocity=78 time=0.0625
EXTRACT: note_on channel=9 note=42 velocity=80 time=0
EXTRACT: note_on channel=9 note=54 velocity=54 time=0
EXTRACT: note_on channel=9 note=70 velocity=88 time=0
EXTRACT: note_on channel=2 note=57 velocity=84 time=0
EXTRACT: note_on channel=2 note=61 velocity=81 time=0
EXTRACT: note_on channel=2 note=64 velocity=83 time=0
EXTRACT: note_on channel=7 note=69 velocity=95 time=0
EXTRACT: note_on channel=6 note=78 velocity=0 time=0.046875
EXTRACT: note_on channel=9 note=54 velocity=0 time=0.046875
EXTRACT: note_on channel=9 note=70 velocity=0 time=0.005208333333333333
EXTRACT: note_on channel=3 note=66 velocity=0 time=0.005208333333333333
EXTRACT: note_on channel=4 note=66 velocity=0 time=0
EXTRACT: note_on channel=7 note=69 velocity=0 time=0.005208333333333333
EXTRACT: note_on channel=9 note=42 velocity=0 time=0.020833333333333332
EXTRACT: note_on channel=9 note=54 velocity=38 time=0.026041666666666664
EXTRACT: note_on channel=9 note=70 velocity=66 time=0
EXTRACT: note_on channel=3 note=66 velocity=97 time=0
EXTRACT: note_on channel=4 note=66 velocity=82 time=0
EXTRACT: note_on channel=7 note=71 velocity=82 time=0
EXTRACT: note_on channel=9 note=70 velocity=0 time=0.07291666666666666
EXTRACT: note_on channel=9 note=54 velocity=0 time=0.005208333333333333
EXTRACT: note_on channel=7 note=71 velocity=0 time=0.005208333333333333
EXTRACT: note_on channel=3 note=66 velocity=0 time=0.05208333333333333
EXTRACT: note_on channel=4 note=66 velocity=0 time=0
EXTRACT: note_on channel=9 note=42 velocity=50 time=0.020833333333333332
EXTRACT: note_on channel=9 note=54 velocity=44 time=0
EXTRACT: note_on channel=9 note=69 velocity=61 time=0
EXTRACT: note_on channel=9 note=70 velocity=61 time=0
EXTRACT: note_on channel=3 note=69 velocity=107 time=0
EXTRACT: note_on channel=4 note=69 velocity=92 time=0
EXTRACT: note_on channel=7 note=71 velocity=87 time=0
EXTRACT: note_on channel=9 note=54 velocity=0 time=0.06770833333333333
EXTRACT: note_on channel=9 note=70 velocity=0 time=0
EXTRACT: note_on channel=9 note=69 velocity=0 time=0.005208333333333333
EXTRACT: note_on channel=9 note=42 velocity=0 time=0.026041666666666664
EXTRACT: note_on channel=7 note=71 velocity=0 time=0
EXTRACT: note_on channel=9 note=36 velocity=0 time=0.020833333333333332
EXTRACT: note_on channel=9 note=54 velocity=36 time=0.03645833333333333
EXTRACT: note_on channel=9 note=69 velocity=48 time=0
EXTRACT: note_on channel=9 note=70 velocity=58 time=0
EXTRACT: note_on channel=7 note=69 velocity=86 time=0
EXTRACT: note_on channel=9 note=54 velocity=0 time=0.05208333333333333
EXTRACT: note_on channel=9 note=69 velocity=0 time=0.015625
EXTRACT: note_on channel=3 note=69 velocity=0 time=0.005208333333333333
EXTRACT: note_on channel=4 note=69 velocity=0 time=0
EXTRACT: note_on channel=7 note=69 velocity=0 time=0.010416666666666666
EXTRACT: note_on channel=9 note=70 velocity=0 time=0.015625
EXTRACT: note_on channel=9 note=36 velocity=82 time=0.057291666666666664
EXTRACT: note_on channel=9 note=39 velocity=82 time=0
EXTRACT: note_on channel=9 note=40 velocity=80 time=0
EXTRACT: note_on channel=9 note=42 velocity=84 time=0
EXTRACT: note_on channel=9 note=54 velocity=61 time=0
EXTRACT: note_on channel=9 note=69 velocity=52 time=0
EXTRACT: note_on channel=9 note=70 velocity=89 time=0
EXTRACT: note_on channel=1 note=42 velocity=97 time=0
EXTRACT: note_on channel=3 note=69 velocity=98 time=0
EXTRACT: note_on channel=4 note=69 velocity=83 time=0
EXTRACT: note_on channel=6 note=81 velocity=64 time=0
EXTRACT: note_on channel=6 note=83 velocity=108 time=0
EXTRACT: note_on channel=7 note=71 velocity=88 time=0
EXTRACT: note_on channel=6 note=81 velocity=0 time=0.03125
EXTRACT: note_on channel=9 note=69 velocity=0 time=0.05208333333333333
EXTRACT: note_on channel=9 note=70 velocity=0 time=0.010416666666666666
EXTRACT: note_on channel=3 note=69 velocity=0 time=0
EXTRACT: note_on channel=4 note=69 velocity=0 time=0
EXTRACT: note_on channel=9 note=54 velocity=0 time=0.005208333333333333
EXTRACT: note_on channel=9 note=39 velocity=0 time=0.005208333333333333
EXTRACT: note_on channel=7 note=71 velocity=0 time=0
EXTRACT: note_on channel=9 note=40 velocity=0 time=0.005208333333333333
EXTRACT: note_on channel=9 note=42 velocity=0 time=0.041666666666666664
EXTRACT: note_on channel=9 note=54 velocity=52 time=0.005208333333333333
EXTRACT: note_on channel=9 note=70 velocity=71 time=0
EXTRACT: note_on channel=3 note=69 velocity=101 time=0
EXTRACT: note_on channel=4 note=69 velocity=86 time=0
EXTRACT: note_on channel=3 note=69 velocity=0 time=0.08854166666666666
EXTRACT: note_on channel=4 note=69 velocity=0 time=0
EXTRACT: note_on channel=9 note=54 velocity=0 time=0.005208333333333333
EXTRACT: note_on channel=9 note=70 velocity=0 time=0.005208333333333333
EXTRACT: note_on channel=6 note=83 velocity=0 time=0.046875
EXTRACT: note_on channel=9 note=42 velocity=52 time=0.010416666666666666
EXTRACT: note_on channel=9 note=54 velocity=46 time=0
EXTRACT: note_on channel=9 note=70 velocity=71 time=0
EXTRACT: note_on channel=3 note=71 velocity=107 time=0
EXTRACT: note_on channel=4 note=71 velocity=92 time=0
EXTRACT: note_on channel=5 note=52 velocity=59 time=0
EXTRACT: note_on channel=5 note=57 velocity=58 time=0
EXTRACT: note_on channel=5 note=59 velocity=67 time=0
EXTRACT: note_on channel=5 note=62 velocity=63 time=0
EXTRACT: note_on channel=6 note=76 velocity=95 time=0
EXTRACT: note_on channel=7 note=78 velocity=94 time=0
EXTRACT: note_on channel=9 note=54 velocity=0 time=0.06770833333333333
EXTRACT: note_on channel=9 note=70 velocity=0 time=0.015625
EXTRACT: note_on channel=9 note=42 velocity=0 time=0.015625
EXTRACT: note_on channel=9 note=36 velocity=0 time=0.03645833333333333
EXTRACT: note_on channel=7 note=78 velocity=0 time=0.020833333333333332
EXTRACT: note_on channel=9 note=42 velocity=40 time=0
EXTRACT: note_on channel=9 note=54 velocity=57 time=0
EXTRACT: note_on channel=9 note=70 velocity=61 time=0
EXTRACT: note_on channel=1 note=42 velocity=0 time=0.041666666666666664
EXTRACT: note_on channel=9 note=54 velocity=0 time=0.005208333333333333
EXTRACT: note_on channel=2 note=61 velocity=0 time=0.03125
EXTRACT: note_on channel=5 note=62 velocity=0 time=0.005208333333333333
EXTRACT: note_on channel=5 note=59 velocity=0 time=0.005208333333333333
EXTRACT: note_on channel=2 note=64 velocity=0 time=0.005208333333333333
EXTRACT: note_on channel=2 note=57 velocity=0 time=0.005208333333333333
EXTRACT: note_on channel=9 note=42 velocity=0 time=0
EXTRACT: note_on channel=9 note=70 velocity=0 time=0
EXTRACT: note_on channel=5 note=57 velocity=0 time=0.020833333333333332
EXTRACT: note_on channel=3 note=71 velocity=0 time=0.005208333333333333
EXTRACT: note_on channel=4 note=71 velocity=0 time=0
EXTRACT: note_on channel=5 note=52 velocity=0 time=0
EXTRACT: note_on channel=9 note=36 velocity=83 time=0.03125
EXTRACT: note_on channel=9 note=42 velocity=77 time=0
EXTRACT: note_on channel=9 note=54 velocity=54 time=0
EXTRACT: note_on channel=9 note=70 velocity=90 time=0
EXTRACT: note_on channel=1 note=35 velocity=94 time=0
EXTRACT: note_on channel=2 note=54 velocity=75 time=0
EXTRACT: note_on channel=2 note=59 velocity=81 time=0
EXTRACT: note_on channel=2 note=62 velocity=84 time=0
EXTRACT: note_on channel=3 note=66 velocity=110 time=0
EXTRACT: note_on channel=4 note=66 velocity=95 time=0
EXTRACT: note_on channel=6 note=78 velocity=102 time=0
EXTRACT: note_on channel=6 note=76 velocity=0 time=0.005208333333333333
EXTRACT: note_on channel=9 note=54 velocity=0 time=0.08854166666666666
EXTRACT: note_on channel=9 note=70 velocity=0 time=0.005208333333333333
EXTRACT: note_on channel=9 note=54 velocity=38 time=0.057291666666666664
EXTRACT: note_on channel=9 note=70 velocity=70 time=0
EXTRACT: note_on channel=9 note=42 velocity=0 time=0.015625
EXTRACT: note_on channel=3 note=66 velocity=0 time=0.015625
EXTRACT: note_on channel=4 note=66 velocity=0 time=0
EXTRACT: note_on channel=9 note=70 velocity=0 time=0.015625
EXTRACT: note_on channel=9 note=54 velocity=0 time=0.03125
EXTRACT: note_on channel=9 note=42 velocity=54 time=0.078125
EXTRACT: note_on channel=9 note=54 velocity=44 time=0
EXTRACT: note_on channel=9 note=69 velocity=71 time=0
EXTRACT: note_on channel=9 note=70 velocity=71 time=0
EXTRACT: note_on channel=3 note=66 velocity=103 time=0
EXTRACT: note_on channel=4 note=66 velocity=88 time=0
EXTRACT: note_on channel=7 note=74 velocity=95 time=0
EXTRACT: note_on channel=9 note=54 velocity=0 time=0.06770833333333333
EXTRACT: note_on channel=9 note=69 velocity=0 time=0
EXTRACT: note_on channel=9 note=70 velocity=0 time=0.015625
EXTRACT: note_on channel=7 note=74 velocity=0 time=0
EXTRACT: note_on channel=1 note=35 velocity=0 time=0.005208333333333333
EXTRACT: note_on channel=9 note=36 velocity=0 time=0.015625
EXTRACT: note_on channel=9 note=42 velocity=0 time=0.005208333333333333
EXTRACT: note_on channel=9 note=54 velocity=36 time=0.046875
EXTRACT: note_on channel=9 note=70 velocity=56 time=0
EXTRACT: note_on channel=3 note=66 velocity=0 time=0.046875
EXTRACT: note_on channel=4 note=66 velocity=0 time=0
EXTRACT: note_on channel=9 note=54 velocity=0 time=0.005208333333333333
EXTRACT: note_on channel=9 note=70 velocity=0 time=0.046875
EXTRACT: note_on channel=9 note=36 velocity=84 time=0.057291666666666664
EXTRACT: note_on channel=9 note=39 velocity=84 time=0
EXTRACT: note_on channel=9 note=40 velocity=82 time=0
EXTRACT: note_on channel=9 note=42 velocity=79 time=0
EXTRACT: note_on channel=9 note=54 velocity=61 time=0
EXTRACT: note_on channel=9 note=70 velocity=87 time=0
EXTRACT: note_on channel=3 note=66 velocity=105 time=0
EXTRACT: note_on channel=4 note=66 velocity=90 time=0
EXTRACT: note_on channel=9 note=40 velocity=0 time=0.06770833333333333
EXTRACT: note_on channel=9 note=70 velocity=0 time=0.026041666666666664
EXTRACT: note_on channel=9 note=39 velocity=0 time=0.005208333333333333
EXTRACT: note_on channel=9 note=54 velocity=0 time=0
EXTRACT: note_on channel=9 note=54 velocity=52 time=0.057291666666666664
EXTRACT: note_on channel=9 note=70 velocity=74 time=0
EXTRACT: note_on channel=7 note=71 velocity=93 time=0
EXTRACT: note_on channel=9 note=42 velocity=0 time=0.020833333333333332
EXTRACT: note_on channel=9 note=54 velocity=0 time=0.07291666666666666
EXTRACT: note_on channel=3 note=66 velocity=0 time=0.005208333333333333
EXTRACT: note_on channel=4 note=66 velocity=0 time=0
EXTRACT: note_on channel=9 note=70 velocity=0 time=0
EXTRACT: note_on channel=9 note=42 velocity=54 time=0.057291666666666664
EXTRACT: note_on channel=9 note=54 velocity=46 time=0
EXTRACT: note_on channel=9 note=69 velocity=64 time=0
EXTRACT: note_on channel=9 note=70 velocity=72 time=0
EXTRACT: note_on channel=1 note=33 velocity=98 time=0
EXTRACT: note_on channel=3 note=66 velocity=93 time=0
EXTRACT: note_on channel=4 note=66 velocity=78 time=0
EXTRACT: note_on channel=9 note=69 velocity=0 time=0.0625
EXTRACT: note_on channel=9 note=54 velocity=0 time=0.005208333333333333
EXTRACT: note_on channel=3 note=66 velocity=0 time=0.010416666666666666
EXTRACT: note_on channel=4 note=66 velocity=0 time=0
EXTRACT: note_on channel=9 note=70 velocity=0 time=0.005208333333333333
EXTRACT: note_on channel=7 note=71 velocity=0 time=0.015625
EXTRACT: note_on channel=9 note=36 velocity=0 time=0.010416666666666666
EXTRACT: note_on channel=9 note=42 velocity=0 time=0.005208333333333333
EXTRACT: note_on channel=9 note=54 velocity=57 time=0.041666666666666664
EXTRACT: note_on channel=9 note=70 velocity=66 time=0
EXTRACT: note_on channel=3 note=66 velocity=102 time=0
EXTRACT: note_on channel=4 note=66 velocity=87 time=0
EXTRACT: note_on channel=9 note=54 velocity=0 time=0.046875
EXTRACT: note_on channel=9 note=70 velocity=0 time=0.05208333333333333
EXTRACT: note_on channel=1 note=33 velocity=0 time=0.05208333333333333
EXTRACT: note_on channel=9 note=36 velocity=81 time=0.005208333333333333
EXTRACT: note_on channel=9 note=42 velocity=87 time=0
EXTRACT: note_on channel=9 note=54 velocity=54 time=0
EXTRACT: note_on channel=9 note=70 velocity=93 time=0
EXTRACT: note_on channel=1 note=35 velocity=98 time=0
EXTRACT: note_on channel=7 note=69 velocity=95 time=0
EXTRACT: note_on channel=6 note=78 velocity=0 time=0.03645833333333333
EXTRACT: note_on channel=3 note=66 velocity=0 time=0.010416666666666666
EXTRACT: note_on channel=4 note=66 velocity=0 time=0
EXTRACT: note_on channel=9 note=54 velocity=0 time=0.046875
EXTRACT: note_on channel=9 note=70 velocity=0 time=0.015625
EXTRACT: note_on channel=7 note=69 velocity=0 time=0
EXTRACT: note_on channel=9 note=42 velocity=0 time=0.041666666666666664
EXTRACT: note_on channel=9 note=54 velocity=38 time=0.005208333333333333
EXTRACT: note_on channel=9 note=70 velocity=59 time=0
EXTRACT: note_on channel=3 note=66 velocity=104 time=0
EXTRACT: note_on channel=4 note=66 velocity=89 time=0
EXTRACT: note_on channel=7 note=71 velocity=82 time=0
EXTRACT: note_on channel=9 note=54 velocity=0 time=0.078125
EXTRACT: note_on channel=7 note=71 velocity=0 time=0.005208333333333333
EXTRACT: note_on channel=9 note=70 velocity=0 time=0.010416666666666666
EXTRACT: note_on channel=3 note=66 velocity=0 time=0.026041666666666664
EXTRACT: note_on channel=4 note=66 velocity=0 time=0
EXTRACT: note_on channel=1 note=35 velocity=0 time=0.03125
EXTRACT: note_on channel=9 note=42 velocity=46 time=0.005208333333333333
EXTRACT: note_on channel=9 note=54 velocity=44 time=0
EXTRACT: note_on channel=9 note=69 velocity=60 time=0
EXTRACT: note_on channel=9 note=70 velocity=78 time=0
EXTRACT: note_on channel=3 note=69 velocity=102 time=0
EXTRACT: note_on channel=4 note=69 velocity=87 time=0
EXTRACT: note_on channel=6 note=76 velocity=98 time=0
EXTRACT: note_on channel=7 note=71 velocity=87 time=0
EXTRACT: note_on channel=9 note=54 velocity=0 time=0.06770833333333333
EXTRACT: note_on channel=9 note=69 velocity=0 time=0.020833333333333332
EXTRACT: note_on channel=9 note=70 velocity=0 time=0.005208333333333333
EXTRACT: note_on channel=7 note=71 velocity=0 time=0.005208333333333333
EXTRACT: note_on channel=9 note=36 velocity=0 time=0.005208333333333333
EXTRACT: note_on channel=6 note=76 velocity=0 time=0.005208333333333333
EXTRACT: note_on channel=2 note=54 velocity=0 time=0.015625
EXTRACT: note_on channel=9 note=42 velocity=0 time=0
EXTRACT: note_on channel=2 note=62 velocity=0 time=0.020833333333333332
EXTRACT: note_on channel=2 note=59 velocity=0 time=0.005208333333333333
EXTRACT: note_on channel=9 note=54 velocity=36 time=0.005208333333333333
EXTRACT: note_on channel=9 note=69 velocity=55 time=0
EXTRACT: note_on channel=9 note=70 velocity=74 time=0
EXTRACT: note_on channel=6 note=78 velocity=90 time=0
EXTRACT: note_on channel=7 note=69 velocity=86 time=0
EXTRACT: note_on channel=9 note=54 velocity=0 time=0.05208333333333333
EXTRACT: note_on channel=3 note=69 velocity=0 time=0.010416666666666666
EXTRACT: note_on channel=4 note=69 velocity=0 time=0
EXTRACT: note_on channel=9 note=69 velocity=0 time=0.020833333333333332
EXTRACT: note_on channel=6 note=78 velocity=0 time=0
EXTRACT: note_on channel=7 note=69 velocity=0 time=0
EXTRACT: note_on channel=9 note=70 velocity=0 time=0.005208333333333333
EXTRACT: note_on channel=9 note=36 velocity=82 time=0.06770833333333333
EXTRACT: note_on channel=9 note=39 velocity=82 time=0
EXTRACT: note_on channel=9 note=40 velocity=80 time=0
EXTRACT: note_on channel=9 note=42 velocity=78 time=0
EXTRACT: note_on channel=9 note=54 velocity=61 time=0
EXTRACT: note_on channel=9 note=69 velocity=50 time=0
EXTRACT: note_on channel=9 note=70 velocity=87 time=0
EXTRACT: note_on channel=3 note=69 velocity=100 time=0
EXTRACT: note_on channel=4 note=69 velocity=85 time=0
EXTRACT: note_on channel=6 note=81 velocity=110 time=0
EXTRACT: note_on channel=7 note=71 velocity=88 time=0
EXTRACT: note_on channel=3 note=69 velocity=0 time=0.08333333333333333
EXTRACT: note_on channel=4 note=69 velocity=0 time=0
EXTRACT: note_on channel=9 note=69 velocity=0 time=0.005208333333333333
EXTRACT: note_on channel=9 note=54 velocity=0 time=0.010416666666666666
EXTRACT: note_on channel=9 note=70 velocity=0 time=0
EXTRACT: note_on channel=9 note=39 velocity=0 time=0.005208333333333333
EXTRACT: note_on channel=7 note=71 velocity=0 time=0
EXTRACT: note_on channel=9 note=40 velocity=0 time=0.005208333333333333
EXTRACT: note_on channel=9 note=42 velocity=0 time=0.041666666666666664
EXTRACT: note_on channel=9 note=54 velocity=52 time=0.005208333333333333
EXTRACT: note_on channel=9 note=70 velocity=74 time=0
EXTRACT: note_on channel=3 note=69 velocity=95 time=0
EXTRACT: note_on channel=4 note=69 velocity=80 time=0
EXTRACT: note_on channel=3 note=69 velocity=0 time=0.08333333333333333
EXTRACT: note_on channel=4 note=69 velocity=0 time=0
EXTRACT: note_on channel=9 note=54 velocity=0 time=0.010416666666666666
EXTRACT: note_on channel=9 note=70 velocity=0 time=0
EXTRACT: note_on channel=9 note=46 velocity=49 time=0.0625
EXTRACT: note_on channel=9 note=54 velocity=46 time=0
EXTRACT: note_on channel=9 note=70 velocity=58 time=0
EXTRACT: note_on channel=1 note=33 velocity=103 time=0
EXTRACT: note_on channel=3 note=69 velocity=103 time=0
EXTRACT: note_on channel=4 note=69 velocity=88 time=0
EXTRACT: note_on channel=7 note=78 velocity=94 time=0
EXTRACT: note_on channel=9 note=54 velocity=0 time=0.06770833333333333
EXTRACT: note_on channel=9 note=46 velocity=0 time=0.026041666666666664
EXTRACT: note_on channel=9 note=70 velocity=0 time=0.005208333333333333
EXTRACT: note_on channel=7 note=78 velocity=0 time=0.057291666666666664
EXTRACT: note_on channel=9 note=54 velocity=57 time=0
EXTRACT: note_on channel=9 note=70 velocity=61 time=0
EXTRACT: note_on channel=1 note=34 velocity=85 time=0
EXTRACT: note_on channel=9 note=36 velocity=0 time=0.020833333333333332
EXTRACT: note_on channel=1 note=33 velocity=0 time=0.015625
EXTRACT: note_on channel=9 note=54 velocity=0 time=0.010416666666666666
EXTRACT: note_on channel=9 note=70 velocity=0 time=0.041666666666666664
EXTRACT: note_on channel=3 note=69 velocity=0 time=0.03645833333333333
EXTRACT: note_on channel=4 note=69 velocity=0 time=0
EXTRACT: note_on channel=1 note=34 velocity=0 time=0.010416666666666666
EXTRACT: note_on channel=9 note=36 velocity=77 time=0.020833333333333332
EXTRACT: note_on channel=9 note=42 velocity=88 time=0
EXTRACT: note_on channel=9 note=54 velocity=54 time=0
EXTRACT: note_on channel=9 note=70 velocity=87 time=0
EXTRACT: note_on channel=1 note=35 velocity=102 time=0
EXTRACT: note_on channel=2 note=57 velocity=83 time=0
EXTRACT: note_on channel=2 note=62 velocity=81 time=0
EXTRACT: note_on channel=2 note=66 velocity=78 time=0
EXTRACT: note_on channel=3 note=66 velocity=109 time=0
EXTRACT: note_on channel=4 note=66 velocity=94 time=0
EXTRACT: note_on channel=5 note=57 velocity=63 time=0
EXTRACT: note_on channel=5 note=59 velocity=67 time=0
EXTRACT: note_on channel=5 note=62 velocity=66 time=0
EXTRACT: note_on channel=9 note=70 velocity=0 time=0.08333333333333333
EXTRACT: note_on channel=9 note=54 velocity=0 time=0.010416666666666666
EXTRACT: note_on channel=9 note=42 velocity=0 time=0.010416666666666666
EXTRACT: note_on channel=9 note=54 velocity=38 time=0.05208333333333333
EXTRACT: note_on channel=9 note=70 velocity=63 time=0
EXTRACT: note_on channel=5 note=59 velocity=0 time=0.046875
EXTRACT: note_on channel=5 note=62 velocity=0 time=0
EXTRACT: note_on channel=9 note=54 velocity=0 time=0.03125
EXTRACT: note_on channel=3 note=66 velocity=0 time=0.015625
EXTRACT: note_on channel=4 note=66 velocity=0 time=0
EXTRACT: note_on channel=5 note=57 velocity=0 time=0.005208333333333333
EXTRACT: note_on channel=9 note=70 velocity=0 time=0.005208333333333333
EXTRACT: note_on channel=9 note=42 velocity=46 time=0.05208333333333333
EXTRACT: note_on channel=9 note=54 velocity=44 time=0
EXTRACT: note_on channel=9 note=69 velocity=68 time=0
EXTRACT: note_on channel=9 note=70 velocity=46 time=0
EXTRACT: note_on channel=3 note=69 velocity=102 time=0
EXTRACT: note_on channel=4 note=69 velocity=87 time=0
EXTRACT: note_on channel=7 note=74 velocity=95 time=0
EXTRACT: note_on channel=1 note=35 velocity=0 time=0.026041666666666664
EXTRACT: note_on channel=9 note=70 velocity=0 time=0.020833333333333332
EXTRACT: note_on channel=9 note=69 velocity=0 time=0.010416666666666666
EXTRACT: note_on channel=9 note=54 velocity=0 time=0.010416666666666666
EXTRACT: note_on channel=9 note=42 velocity=0 time=0.015625
EXTRACT: note_on channel=7 note=74 velocity=0 time=0
EXTRACT: note_on channel=9 note=36 velocity=0 time=0.041666666666666664
EXTRACT: note_on channel=9 note=54 velocity=36 time=0.03125
EXTRACT: note_on channel=9 note=70 velocity=61 time=0
EXTRACT: note_on channel=9 note=54 velocity=0 time=0.05208333333333333
EXTRACT: note_on channel=9 note=70 velocity=0 time=0.041666666666666664
EXTRACT: note_on channel=3 note=69 velocity=0 time=0.057291666666666664
EXTRACT: note_on channel=4 note=69 velocity=0 time=0
EXTRACT: note_on channel=9 note=36 velocity=81 time=0.005208333333333333
EXTRACT: note_on channel=9 note=39 velocity=84 time=0
EXTRACT: note_on channel=9 note=40 velocity=82 time=0
EXTRACT: note_on channel=9 note=42 velocity=91 time=0
EXTRACT: note_on channel=9 note=54 velocity=61 time=0
EXTRACT: note_on channel=9 note=70 velocity=91 time=0
EXTRACT: note_on channel=3 note=66 velocity=105 time=0
EXTRACT: note_on channel=4 note=66 velocity=90 time=0
EXTRACT: note_on channel=9 note=40 velocity=0 time=0.06770833333333333
EXTRACT: note_on channel=9 note=70 velocity=0 time=0.020833333333333332
EXTRACT: note_on channel=9 note=39 velocity=0 time=0.010416666666666666
EXTRACT: note_on channel=9 note=54 velocity=0 time=0
EXTRACT: note_on channel=6 note=81 velocity=0 time=0.03645833333333333
EXTRACT: note_on channel=9 note=42 velocity=0 time=0
EXTRACT: note_on channel=9 note=54 velocity=52 time=0.020833333333333332
EXTRACT: note_on channel=9 note=70 velocity=63 time=0
EXTRACT: note_on channel=7 note=71 velocity=93 time=0
EXTRACT: note_on channel=9 note=70 velocity=0 time=0.08854166666666666
EXTRACT: note_on channel=9 note=54 velocity=0 time=0.005208333333333333
EXTRACT: note_on channel=3 note=66 velocity=0 time=0.03125
EXTRACT: note_on channel=4 note=66 velocity=0 time=0
EXTRACT: note_on channel=9 note=42 velocity=46 time=0.03125
EXTRACT: note_on channel=9 note=54 velocity=46 time=0
EXTRACT: note_on channel=9 note=70 velocity=80 time=0
EXTRACT: note_on channel=3 note=69 velocity=100 time=0
EXTRACT: note_on channel=4 note=69 velocity=85 time=0
EXTRACT: note_on channel=9 note=54 velocity=0 time=0.06770833333333333
EXTRACT: note_on channel=9 note=70 velocity=0 time=0.010416666666666666
EXTRACT: note_on channel=3 note=69 velocity=0 time=0.015625
EXTRACT: note_on channel=4 note=69 velocity=0 time=0
EXTRACT: note_on channel=7 note=71 velocity=0 time=0.005208333333333333
EXTRACT: note_on channel=9 note=42 velocity=0 time=0.015625
EXTRACT: note_on channel=9 note=36 velocity=0 time=0.010416666666666666
EXTRACT: note_on channel=9 note=54 velocity=57 time=0.03125
EXTRACT: note_on channel=9 note=70 velocity=62 time=0
EXTRACT: note_on channel=3 note=71 velocity=107 time=0
EXTRACT: note_on channel=4 note=71 velocity=92 time=0
EXTRACT: note_on channel=9 note=54 velocity=0 time=0.046875
EXTRACT: note_on channel=9 note=70 velocity=0 time=0.046875
EXTRACT: note_on channel=9 note=36 velocity=78 time=0.0625
EXTRACT: note_on channel=9 note=42 velocity=80 time=0
EXTRACT: note_on channel=9 note=54 velocity=54 time=0
EXTRACT: note_on channel=9 note=70 velocity=88 time=0
EXTRACT: note_on channel=7 note=69 velocity=95 time=0
EXTRACT: note_on channel=9 note=54 velocity=0 time=0.09375
EXTRACT: note_on channel=9 note=70 velocity=0 time=0.005208333333333333
EXTRACT: note_on channel=7 note=69 velocity=0 time=0.010416666666666666
EXTRACT: note_on channel=9 note=42 velocity=0 time=0.020833333333333332
EXTRACT: note_on channel=9 note=54 velocity=38 time=0.026041666666666664
EXTRACT: note_on channel=9 note=70 velocity=66 time=0
EXTRACT: note_on channel=7 note=71 velocity=82 time=0
EXTRACT: note_on channel=9 note=70 velocity=0 time=0.07291666666666666
EXTRACT: note_on channel=9 note=54 velocity=0 time=0.005208333333333333
EXTRACT: note_on channel=7 note=71 velocity=0 time=0.005208333333333333
EXTRACT: note_on channel=3 note=71 velocity=0 time=0.06770833333333333
EXTRACT: note_on channel=4 note=71 velocity=0 time=0
EXTRACT: note_on channel=9 note=42 velocity=50 time=0.005208333333333333
EXTRACT: note_on channel=9 note=54 velocity=44 time=0
EXTRACT: note_on channel=9 note=69 velocity=61 time=0
EXTRACT: note_on channel=9 note=70 velocity=61 time=0
EXTRACT: note_on channel=3 note=66 velocity=98 time=0
EXTRACT: note_on channel=4 note=66 velocity=83 time=0
EXTRACT: note_on channel=6 note=76 velocity=103 time=0
EXTRACT: note_on channel=7 note=71 velocity=87 time=0
EXTRACT: note_on channel=9 note=54 velocity=0 time=0.06770833333333333
EXTRACT: note_on channel=9 note=70 velocity=0 time=0
EXTRACT: note_on channel=9 note=69 velocity=0 time=0.005208333333333333
EXTRACT: note_on channel=9 note=42 velocity=0 time=0.026041666666666664
EXTRACT: note_on channel=7 note=71 velocity=0 time=0
EXTRACT: note_on channel=6 note=76 velocity=0 time=0.005208333333333333
EXTRACT: note_on channel=9 note=36 velocity=0 time=0.015625
EXTRACT: note_on channel=9 note=54 velocity=36 time=0.03645833333333333
EXTRACT: note_on channel=9 note=69 velocity=48 time=0
EXTRACT: note_on channel=9 note=70 velocity=58 time=0
EXTRACT: note_on channel=6 note=78 velocity=91 time=0
EXTRACT: note_on channel=7 note=69 velocity=86 time=0
EXTRACT: note_on channel=9 note=54 velocity=0 time=0.05208333333333333
EXTRACT: note_on channel=9 note=69 velocity=0 time=0.015625
EXTRACT: note_on channel=6 note=78 velocity=0 time=0.015625
EXTRACT: note_on channel=7 note=69 velocity=0 time=0
EXTRACT: note_on channel=9 note=70 velocity=0 time=0.015625
EXTRACT: note_on channel=3 note=66 velocity=0 time=0.05208333333333333
EXTRACT: note_on channel=4 note=66 velocity=0 time=0
EXTRACT: note_on channel=9 note=36 velocity=82 time=0.005208333333333333
EXTRACT: note_on channel=9 note=39 velocity=82 time=0
EXTRACT: note_on channel=9 note=40 velocity=80 time=0
EXTRACT: note_on channel=9 note=42 velocity=84 time=0
EXTRACT: note_on channel=9 note=54 velocity=61 time=0
EXTRACT: note_on channel=9 note=69 velocity=52 time=0
EXTRACT: note_on channel=9 note=70 velocity=89 time=0
EXTRACT: note_on channel=1 note=42 velocity=98 time=0
EXTRACT: note_on channel=3 note=64 velocity=88 time=0
EXTRACT: note_on channel=4 note=64 velocity=73 time=0
EXTRACT: note_on channel=6 note=81 velocity=109 time=0
EXTRACT: note_on channel=7 note=71 velocity=88 time=0
EXTRACT: note_on channel=9 note=69 velocity=0 time=0.08333333333333333
EXTRACT: note_on channel=9 note=70 velocity=0 time=0.010416666666666666
EXTRACT: note_on channel=9 note=54 velocity=0 time=0.005208333333333333
EXTRACT: note_on channel=9 note=39 velocity=0 time=0.005208333333333333
EXTRACT: note_on channel=7 note=71 velocity=0 time=0
EXTRACT: note_on channel=9 note=40 velocity=0 time=0.005208333333333333
EXTRACT: note_on channel=9 note=42 velocity=0 time=0.041666666666666664
EXTRACT: note_on channel=9 note=54 velocity=52 time=0.005208333333333333
EXTRACT: note_on channel=9 note=70 velocity=71 time=0
EXTRACT: note_on channel=9 note=54 velocity=0 time=0.09375
EXTRACT: note_on channel=9 note=70 velocity=0 time=0.005208333333333333
EXTRACT: note_on channel=3 note=64 velocity=0 time=0.005208333333333333
EXTRACT: note_on channel=4 note=64 velocity=0 time=0
EXTRACT: note_on channel=9 note=42 velocity=52 time=0.05208333333333333
EXTRACT: note_on channel=9 note=54 velocity=46 time=0
EXTRACT: note_on channel=9 note=70 velocity=71 time=0
EXTRACT: note_on channel=3 note=69 velocity=104 time=0
EXTRACT: note_on channel=4 note=69 velocity=89 time=0
EXTRACT: note_on channel=5 note=52 velocity=59 time=0
EXTRACT: note_on channel=5 note=57 velocity=58 time=0
EXTRACT: note_on channel=5 note=59 velocity=67 time=0
EXTRACT: note_on channel=5 note=62 velocity=63 time=0
EXTRACT: note_on channel=7 note=78 velocity=94 time=0
EXTRACT: note_on channel=9 note=54 velocity=0 time=0.06770833333333333
EXTRACT: note_on channel=9 note=70 velocity=0 time=0.015625
EXTRACT: note_on channel=9 note=42 velocity=0 time=0.015625
EXTRACT: note_on channel=9 note=36 velocity=0 time=0.03645833333333333
EXTRACT: note_on channel=7 note=78 velocity=0 time=0.020833333333333332
EXTRACT: note_on channel=9 note=42 velocity=40 time=0
EXTRACT: note_on channel=9 note=54 velocity=57 time=0
EXTRACT: note_on channel=9 note=70 velocity=61 time=0
EXTRACT: note_on channel=2 note=62 velocity=0 time=0.015625
EXTRACT: note_on channel=2 note=57 velocity=0 time=0.015625
EXTRACT: note_on channel=1 note=42 velocity=0 time=0.010416666666666666
EXTRACT: note_on channel=9 note=54 velocity=0 time=0.005208333333333333
EXTRACT: note_on channel=5 note=62 velocity=0 time=0.03645833333333333
EXTRACT: note_on channel=5 note=59 velocity=0 time=0.005208333333333333
EXTRACT: note_on channel=2 note=66 velocity=0 time=0.005208333333333333
EXTRACT: note_on channel=9 note=42 velocity=0 time=0.005208333333333333
EXTRACT: note_on channel=9 note=70 velocity=0 time=0
EXTRACT: note_on channel=5 note=57 velocity=0 time=0.020833333333333332
EXTRACT: note_on channel=5 note=52 velocity=0 time=0.005208333333333333
EXTRACT: note_on channel=3 note=69 velocity=0 time=0.026041666666666664
EXTRACT: note_on channel=4 note=69 velocity=0 time=0
EXTRACT: note_on channel=9 note=36 velocity=83 time=0.005208333333333333
EXTRACT: note_on channel=9 note=42 velocity=77 time=0
EXTRACT: note_on channel=9 note=54 velocity=54 time=0
EXTRACT: note_on channel=9 note=70 velocity=90 time=0
EXTRACT: note_on channel=1 note=35 velocity=95 time=0
EXTRACT: note_on channel=2 note=57 velocity=86 time=0
EXTRACT: note_on channel=2 note=61 velocity=83 time=0
EXTRACT: note_on channel=2 note=64 velocity=86 time=0
EXTRACT: note_on channel=3 note=66 velocity=100 time=0
EXTRACT: note_on channel=4 note=66 velocity=85 time=0
EXTRACT: note_on channel=9 note=54 velocity=0 time=0.09375
EXTRACT: note_on channel=9 note=70 velocity=0 time=0.005208333333333333
EXTRACT: note_on channel=9 note=54 velocity=38 time=0.057291666666666664
EXTRACT: note_on channel=9 note=70 velocity=70 time=0
EXTRACT: note_on channel=9 note=42 velocity=0 time=0.015625
EXTRACT: note_on channel=9 note=70 velocity=0 time=0.03125
EXTRACT: note_on channel=9 note=54 velocity=0 time=0.03125
EXTRACT: note_on channel=3 note=66 velocity=0 time=0.06770833333333333
EXTRACT: note_on channel=4 note=66 velocity=0 time=0
EXTRACT: note_on channel=9 note=42 velocity=54 time=0.010416666666666666
EXTRACT: note_on channel=9 note=54 velocity=44 time=0
EXTRACT: note_on channel=9 note=69 velocity=71 time=0
EXTRACT: note_on channel=9 note=70 velocity=71 time=0
EXTRACT: note_on channel=3 note=69 velocity=100 time=0
EXTRACT: note_on channel=4 note=69 velocity=85 time=0
EXTRACT: note_on channel=7 note=74 velocity=95 time=0
EXTRACT: note_on channel=1 note=35 velocity=0 time=0.041666666666666664
EXTRACT: note_on channel=9 note=54 velocity=0 time=0.026041666666666664
EXTRACT: note_on channel=9 note=69 velocity=0 time=0
EXTRACT: note_on channel=9 note=70 velocity=0 time=0.015625
EXTRACT: note_on channel=7 note=74 velocity=0 time=0
EXTRACT: note_on channel=9 note=36 velocity=0 time=0.020833333333333332
EXTRACT: note_on channel=9 note=42 velocity=0 time=0.005208333333333333
EXTRACT: note_on channel=9 note=54 velocity=36 time=0.046875
EXTRACT: note_on channel=9 note=70 velocity=56 time=0
EXTRACT: note_on channel=9 note=54 velocity=0 time=0.05208333333333333
EXTRACT: note_on channel=9 note=70 velocity=0 time=0.046875
EXTRACT: note_on channel=3 note=69 velocity=0 time=0.026041666666666664
EXTRACT: note_on channel=4 note=69 velocity=0 time=0
EXTRACT: note_on channel=9 note=36 velocity=84 time=0.03125
EXTRACT: note_on channel=9 note=39 velocity=84 time=0
EXTRACT: note_on channel=9 note=40 velocity=82 time=0
EXTRACT: note_on channel=9 note=42 velocity=79 time=0
EXTRACT: note_on channel=9 note=54 velocity=61 time=0
EXTRACT: note_on channel=9 note=70 velocity=87 time=0
EXTRACT: note_on channel=3 note=66 velocity=94 time=0
EXTRACT: note_on channel=4 note=66 velocity=79 time=0
EXTRACT: note_on channel=9 note=40 velocity=0 time=0.06770833333333333
EXTRACT: note_on channel=9 note=70 velocity=0 time=0.026041666666666664
EXTRACT: note_on channel=9 note=39 velocity=0 time=0.005208333333333333
EXTRACT: note_on channel=9 note=54 velocity=0 time=0
EXTRACT: note_on channel=9 note=54 velocity=52 time=0.057291666666666664
EXTRACT: note_on channel=9 note=70 velocity=74 time=0
EXTRACT: note_on channel=7 note=71 velocity=93 time=0
EXTRACT: note_on channel=9 note=42 velocity=0 time=0.020833333333333332
EXTRACT: note_on channel=6 note=81 velocity=0 time=0.041666666666666664
EXTRACT: note_on channel=9 note=54 velocity=0 time=0.03125
EXTRACT: note_on channel=9 note=70 velocity=0 time=0.005208333333333333
EXTRACT: note_on channel=3 note=66 velocity=0 time=0.041666666666666664
EXTRACT: note_on channel=4 note=66 velocity=0 time=0
EXTRACT: note_on channel=9 note=42 velocity=54 time=0.015625
EXTRACT: note_on channel=9 note=54 velocity=46 time=0
EXTRACT: note_on channel=9 note=69 velocity=64 time=0
EXTRACT: note_on channel=9 note=70 velocity=72 time=0
EXTRACT: note_on channel=1 note=30 velocity=78 time=0
EXTRACT: note_on channel=3 note=69 velocity=98 time=0
EXTRACT: note_on channel=4 note=69 velocity=83 time=0
EXTRACT: note_on channel=6 note=79 velocity=109 time=0
EXTRACT: note_on channel=9 note=69 velocity=0 time=0.0625
EXTRACT: note_on channel=9 note=54 velocity=0 time=0.005208333333333333
EXTRACT: note_on channel=3 note=69 velocity=0 time=0.005208333333333333
EXTRACT: note_on channel=4 note=69 velocity=0 time=0
EXTRACT: note_on channel=9 note=70 velocity=0 time=0.010416666666666666
EXTRACT: note_on channel=7 note=71 velocity=0 time=0.015625
EXTRACT: note_on channel=9 note=36 velocity=0 time=0.010416666666666666
EXTRACT: note_on channel=9 note=42 velocity=0 time=0.005208333333333333
EXTRACT: note_on channel=9 note=54 velocity=57 time=0.041666666666666664
EXTRACT: note_on channel=9 note=70 velocity=66 time=0
EXTRACT: note_on channel=3 note=71 velocity=105 time=0
EXTRACT: note_on channel=4 note=71 velocity=90 time=0
EXTRACT: note_on channel=2 note=61 velocity=0 time=0.015625
EXTRACT: note_on channel=2 note=64 velocity=0 time=0.015625
EXTRACT: note_on channel=2 note=57 velocity=0 time=0.005208333333333333
EXTRACT: note_on channel=9 note=54 velocity=0 time=0.010416666666666666
EXTRACT: note_on channel=9 note=70 velocity=0 time=0.05208333333333333
EXTRACT: note_on channel=9 note=36 velocity=81 time=0.057291666666666664
EXTRACT: note_on channel=9 note=42 velocity=87 time=0
EXTRACT: note_on channel=9 note=54 velocity=54 time=0
EXTRACT: note_on channel=9 note=70 velocity=93 time=0
EXTRACT: note_on channel=1 note=33 velocity=83 time=0
EXTRACT: note_on channel=2 note=55 velocity=89 time=0
EXTRACT: note_on channel=2 note=59 velocity=83 time=0
EXTRACT: note_on channel=2 note=64 velocity=88 time=0
EXTRACT: note_on channel=7 note=69 velocity=95 time=0
EXTRACT: note_on channel=1 note=30 velocity=0 time=0.005208333333333333
EXTRACT: note_on channel=9 note=54 velocity=0 time=0.08854166666666666
EXTRACT: note_on channel=9 note=70 velocity=0 time=0.015625
EXTRACT: note_on channel=7 note=69 velocity=0 time=0
EXTRACT: note_on channel=9 note=42 velocity=0 time=0.041666666666666664
EXTRACT: note_on channel=9 note=54 velocity=38 time=0.005208333333333333
EXTRACT: note_on channel=9 note=70 velocity=59 time=0
EXTRACT: note_on channel=7 note=71 velocity=82 time=0
EXTRACT: note_on channel=9 note=54 velocity=0 time=0.078125
EXTRACT: note_on channel=7 note=71 velocity=0 time=0.005208333333333333
EXTRACT: note_on channel=9 note=70 velocity=0 time=0.010416666666666666
EXTRACT: note_on channel=3 note=71 velocity=0 time=0.041666666666666664
EXTRACT: note_on channel=4 note=71 velocity=0 time=0
EXTRACT: note_on channel=9 note=42 velocity=46 time=0.020833333333333332
EXTRACT: note_on channel=9 note=54 velocity=44 time=0
EXTRACT: note_on channel=9 note=69 velocity=60 time=0
EXTRACT: note_on channel=9 note=70 velocity=78 time=0
EXTRACT: note_on channel=1 note=35 velocity=87 time=0
EXTRACT: note_on channel=3 note=66 velocity=98 time=0
EXTRACT: note_on channel=4 note=66 velocity=83 time=0
EXTRACT: note_on channel=7 note=71 velocity=87 time=0
EXTRACT: note_on channel=1 note=33 velocity=0 time=0.026041666666666664
EXTRACT: note_on channel=9 note=54 velocity=0 time=0.041666666666666664
EXTRACT: note_on channel=9 note=69 velocity=0 time=0.020833333333333332
EXTRACT: note_on channel=9 note=70 velocity=0 time=0.005208333333333333
EXTRACT: note_on channel=7 note=71 velocity=0 time=0.005208333333333333
EXTRACT: note_on channel=9 note=36 velocity=0 time=0.005208333333333333
EXTRACT: note_on channel=9 note=42 velocity=0 time=0.020833333333333332
EXTRACT: note_on channel=1 note=35 velocity=0 time=0.010416666666666666
EXTRACT: note_on channel=9 note=54 velocity=36 time=0.020833333333333332
EXTRACT: note_on channel=9 note=69 velocity=55 time=0
EXTRACT: note_on channel=9 note=70 velocity=74 time=0
EXTRACT: note_on channel=7 note=69 velocity=86 time=0
EXTRACT: note_on channel=9 note=54 velocity=0 time=0.05208333333333333
EXTRACT: note_on channel=9 note=69 velocity=0 time=0.03125
EXTRACT: note_on channel=7 note=69 velocity=0 time=0
EXTRACT: note_on channel=9 note=70 velocity=0 time=0.005208333333333333
EXTRACT: note_on channel=6 note=79 velocity=0 time=0.03125
EXTRACT: note_on channel=3 note=66 velocity=0 time=0.005208333333333333
EXTRACT: note_on channel=4 note=66 velocity=0 time=0
EXTRACT: note_on channel=9 note=36 velocity=82 time=0.03125
EXTRACT: note_on channel=9 note=39 velocity=82 time=0
EXTRACT: note_on channel=9 note=40 velocity=80 time=0
EXTRACT: note_on channel=9 note=42 velocity=78 time=0
EXTRACT: note_on channel=9 note=54 velocity=61 time=0
EXTRACT: note_on channel=9 note=69 velocity=50 time=0
EXTRACT: note_on channel=9 note=70 velocity=87 time=0
EXTRACT: note_on channel=1 note=35 velocity=93 time=0
EXTRACT: note_on channel=3 note=62 velocity=108 time=0
EXTRACT: note_on channel=4 note=62 velocity=93 time=0
EXTRACT: note_on channel=6 note=78 velocity=96 time=0
EXTRACT: note_on channel=7 note=71 velocity=88 time=0
EXTRACT: note_on channel=3 note=62 velocity=0 time=0.08333333333333333
EXTRACT: note_on channel=4 note=62 velocity=0 time=0
EXTRACT: note_on channel=9 note=69 velocity=0 time=0.005208333333333333
EXTRACT: note_on channel=9 note=54 velocity=0 time=0.010416666666666666
EXTRACT: note_on channel=9 note=70 velocity=0 time=0
EXTRACT: note_on channel=9 note=39 velocity=0 time=0.005208333333333333
EXTRACT: note_on channel=7 note=71 velocity=0 time=0
EXTRACT: note_on channel=9 note=40 velocity=0 time=0.005208333333333333
EXTRACT: note_on channel=9 note=42 velocity=0 time=0.041666666666666664
EXTRACT: note_on channel=1 note=35 velocity=0 time=0
EXTRACT: note_on channel=9 note=54 velocity=52 time=0.005208333333333333
EXTRACT: note_on channel=9 note=70 velocity=74 time=0
EXTRACT: note_on channel=1 note=33 velocity=74 time=0
EXTRACT: note_on channel=3 note=62 velocity=102 time=0
EXTRACT: note_on channel=4 note=62 velocity=87 time=0
EXTRACT: note_on channel=3 note=62 velocity=0 time=0.08333333333333333
EXTRACT: note_on channel=4 note=62 velocity=0 time=0
EXTRACT: note_on channel=9 note=54 velocity=0 time=0.010416666666666666
EXTRACT: note_on channel=9 note=70 velocity=0 time=0
EXTRACT: note_on channel=2 note=59 velocity=0 time=0.03645833333333333
EXTRACT: note_on channel=2 note=55 velocity=0 time=0.005208333333333333
EXTRACT: note_on channel=6 note=78 velocity=0 time=0
EXTRACT: note_on channel=2 note=64 velocity=0 time=0.010416666666666666
EXTRACT: note_on channel=1 note=33 velocity=0 time=0.005208333333333333
EXTRACT: note_on channel=9 note=46 velocity=49 time=0.005208333333333333
EXTRACT: note_on channel=9 note=54 velocity=46 time=0
EXTRACT: note_on channel=9 note=70 velocity=58 time=0
EXTRACT: note_on channel=1 note=29 velocity=82 time=0
EXTRACT: note_on channel=3 note=62 velocity=98 time=0
EXTRACT: note_on channel=4 note=62 velocity=83 time=0
EXTRACT: note_on channel=6 note=76 velocity=104 time=0
EXTRACT: note_on channel=7 note=78 velocity=94 time=0
EXTRACT: note_on channel=9 note=54 velocity=0 time=0.06770833333333333
EXTRACT: note_on channel=9 note=46 velocity=0 time=0.026041666666666664
EXTRACT: note_on channel=3 note=62 velocity=0 time=0
EXTRACT: note_on channel=4 note=62 velocity=0 time=0
EXTRACT: note_on channel=9 note=70 velocity=0 time=0.005208333333333333
EXTRACT: note_on channel=10 note=81 velocity=0 time=0.026041666666666664
EXTRACT: note_on channel=1 note=29 velocity=0 time=0
EXTRACT: note_on channel=6 note=76 velocity=0 time=0.020833333333333332
EXTRACT: note_on channel=7 note=78 velocity=0 time=0.010416666666666666
EXTRACT: note_on channel=9 note=54 velocity=57 time=0
EXTRACT: note_on channel=9 note=70 velocity=61 time=0
EXTRACT: note_on channel=1 note=30 velocity=80 time=0
EXTRACT: note_on channel=3 note=62 velocity=104 time=0
EXTRACT: note_on channel=4 note=62 velocity=89 time=0
EXTRACT: note_on channel=9 note=36 velocity=0 time=0.020833333333333332
EXTRACT: note_on channel=9 note=54 velocity=0 time=0.026041666666666664
EXTRACT: note_on channel=9 note=70 velocity=0 time=0.041666666666666664
EXTRACT: note_on channel=1 note=30 velocity=0 time=0.020833333333333332
EXTRACT: note_on channel=3 note=62 velocity=0 time=0.010416666666666666
EXTRACT: note_on channel=4 note=62 velocity=0 time=0
EXTRACT: note_on channel=9 note=36 velocity=77 time=0.03645833333333333
EXTRACT: note_on channel=9 note=42 velocity=88 time=0
EXTRACT: note_on channel=9 note=49 velocity=76 time=0
EXTRACT: note_on channel=9 note=54 velocity=54 time=0
EXTRACT: note_on channel=9 note=70 velocity=87 time=0
EXTRACT: note_on channel=1 note=35 velocity=103 time=0
EXTRACT: note_on channel=2 note=57 velocity=81 time=0
EXTRACT: note_on channel=2 note=62 velocity=77 time=0
EXTRACT: note_on channel=2 note=66 velocity=76 time=0
EXTRACT: note_on channel=3 note=59 velocity=87 time=0
EXTRACT: note_on channel=5 note=57 velocity=63 time=0
EXTRACT: note_on channel=5 note=59 velocity=67 time=0
EXTRACT: note_on channel=5 note=62 velocity=66 time=0
EXTRACT: note_on channel=6 note=66 velocity=87 time=0
EXTRACT: note_on channel=9 note=49 velocity=0 time=0.08333333333333333
EXTRACT: note_on channel=9 note=70 velocity=0 time=0
EXTRACT: note_on channel=9 note=54 velocity=0 time=0.010416666666666666
EXTRACT: note_on channel=9 note=42 velocity=0 time=0.010416666666666666
EXTRACT: note_on channel=9 note=54 velocity=38 time=0.05208333333333333
EXTRACT: note_on channel=9 note=70 velocity=63 time=0
EXTRACT: note_on channel=5 note=59 velocity=0 time=0.046875
EXTRACT: note_on channel=5 note=62 velocity=0 time=0
EXTRACT: note_on channel=3 note=59 velocity=0 time=0.03125
EXTRACT: note_on channel=9 note=54 velocity=0 time=0
EXTRACT: note_on channel=5 note=57 velocity=0 time=0.020833333333333332
EXTRACT: note_on channel=9 note=70 velocity=0 time=0.005208333333333333
EXTRACT: note_on channel=9 note=42 velocity=46 time=0.05208333333333333
EXTRACT: note_on channel=9 note=54 velocity=44 time=0
EXTRACT: note_on channel=9 note=69 velocity=68 time=0
EXTRACT: note_on channel=9 note=70 velocity=46 time=0
EXTRACT: note_on channel=3 note=66 velocity=96 time=0
EXTRACT: note_on channel=4 note=66 velocity=81 time=0
EXTRACT: note_on channel=6 note=71 velocity=76 time=0
EXTRACT: note_on channel=7 note=74 velocity=95 time=0
EXTRACT: note_on channel=9 note=70 velocity=0 time=0.046875
EXTRACT: note_on channel=9 note=69 velocity=0 time=0.010416666666666666
EXTRACT: note_on channel=9 note=54 velocity=0 time=0.010416666666666666
EXTRACT: note_on channel=9 note=42 velocity=0 time=0.015625
EXTRACT: note_on channel=7 note=74 velocity=0 time=0
EXTRACT: note_on channel=3 note=66 velocity=0 time=0.03645833333333333
EXTRACT: note_on channel=4 note=66 velocity=0 time=0
EXTRACT: note_on channel=9 note=36 velocity=0 time=0.005208333333333333
EXTRACT: note_on channel=1 note=35 velocity=0 time=0
EXTRACT: note_on channel=9 note=54 velocity=36 time=0.03125
EXTRACT: note_on channel=9 note=70 velocity=61 time=0
EXTRACT: note_on channel=3 note=66 velocity=88 time=0
EXTRACT: note_on channel=4 note=66 velocity=73 time=0
EXTRACT: note_on channel=9 note=54 velocity=0 time=0.05208333333333333
EXTRACT: note_on channel=3 note=66 velocity=0 time=0.03645833333333333
EXTRACT: note_on channel=4 note=66 velocity=0 time=0
EXTRACT: note_on channel=9 note=70 velocity=0 time=0.005208333333333333
EXTRACT: note_on channel=9 note=36 velocity=81 time=0.0625
EXTRACT: note_on channel=9 note=39 velocity=84 time=0
EXTRACT: note_on channel=9 note=40 velocity=82 time=0
EXTRACT: note_on channel=9 note=42 velocity=91 time=0
EXTRACT: note_on channel=9 note=54 velocity=61 time=0
EXTRACT: note_on channel=9 note=70 velocity=91 time=0
EXTRACT: note_on channel=3 note=66 velocity=95 time=0
EXTRACT: note_on channel=4 note=66 velocity=80 time=0
EXTRACT: note_on channel=9 note=40 velocity=0 time=0.06770833333333333
EXTRACT: note_on channel=9 note=70 velocity=0 time=0.020833333333333332
EXTRACT: note_on channel=9 note=39 velocity=0 time=0.010416666666666666
EXTRACT: note_on channel=9 note=54 velocity=0 time=0
EXTRACT: note_on channel=9 note=42 velocity=0 time=0.03645833333333333
EXTRACT: note_on channel=9 note=54 velocity=52 time=0.020833333333333332
EXTRACT: note_on channel=9 note=70 velocity=63 time=0
EXTRACT: note_on channel=7 note=71 velocity=93 time=0
EXTRACT: note_on channel=3 note=66 velocity=0 time=0.08333333333333333
EXTRACT: note_on channel=4 note=66 velocity=0 time=0
EXTRACT: note_on channel=9 note=70 velocity=0 time=0.005208333333333333
EXTRACT: note_on channel=9 note=54 velocity=0 time=0.005208333333333333
EXTRACT: note_on channel=9 note=42 velocity=46 time=0.0625
EXTRACT: note_on channel=9 note=54 velocity=46 time=0
EXTRACT: note_on channel=9 note=70 velocity=80 time=0
EXTRACT: note_on channel=3 note=66 velocity=93 time=0
EXTRACT: note_on channel=4 note=66 velocity=78 time=0
EXTRACT: note_on channel=6 note=78 velocity=74 time=0
EXTRACT: note_on channel=9 note=54 velocity=0 time=0.06770833333333333
EXTRACT: note_on channel=9 note=70 velocity=0 time=0.010416666666666666
EXTRACT: note_on channel=7 note=71 velocity=0 time=0.020833333333333332
EXTRACT: note_on channel=3 note=66 velocity=0 time=0
EXTRACT: note_on channel=4 note=66 velocity=0 time=0
EXTRACT: note_on channel=9 note=42 velocity=0 time=0.015625
EXTRACT: note_on channel=9 note=36 velocity=0 time=0.010416666666666666
EXTRACT: note_on channel=9 note=54 velocity=57 time=0.03125
EXTRACT: note_on channel=9 note=70 velocity=62 time=0
EXTRACT: note_on channel=3 note=66 velocity=94 time=0
EXTRACT: note_on channel=4 note=66 velocity=79 time=0
EXTRACT: note_on channel=2 note=62 velocity=0 time=0.015625
EXTRACT: note_on channel=2 note=57 velocity=0 time=0.026041666666666664
EXTRACT: note_on channel=9 note=54 velocity=0 time=0.005208333333333333
EXTRACT: note_on channel=2 note=66 velocity=0 time=0.03645833333333333
EXTRACT: note_on channel=9 note=70 velocity=0 time=0.010416666666666666
EXTRACT: note_on channel=9 note=36 velocity=78 time=0.0625
EXTRACT: note_on channel=9 note=42 velocity=80 time=0
EXTRACT: note_on channel=9 note=54 velocity=54 time=0
EXTRACT: note_on channel=9 note=70 velocity=88 time=0
EXTRACT: note_on channel=2 note=57 velocity=74 time=0
EXTRACT: note_on channel=2 note=61 velocity=80 time=0
EXTRACT: note_on channel=2 note=64 velocity=74 time=0
EXTRACT: note_on channel=7 note=69 velocity=95 time=0
EXTRACT: note_on channel=3 note=66 velocity=0 time=0.09375
EXTRACT: note_on channel=4 note=66 velocity=0 time=0
EXTRACT: note_on channel=9 note=54 velocity=0 time=0
EXTRACT: note_on channel=6 note=66 velocity=0 time=0.005208333333333333
EXTRACT: note_on channel=9 note=70 velocity=0 time=0
EXTRACT: note_on channel=6 note=71 velocity=0 time=0.010416666666666666
EXTRACT: note_on channel=6 note=78 velocity=0 time=0
EXTRACT: note_on channel=7 note=69 velocity=0 time=0
EXTRACT: note_on channel=9 note=42 velocity=0 time=0.020833333333333332
EXTRACT: note_on channel=9 note=54 velocity=38 time=0.026041666666666664
EXTRACT: note_on channel=9 note=70 velocity=66 time=0
EXTRACT: note_on channel=3 note=69 velocity=88 time=0
EXTRACT: note_on channel=4 note=69 velocity=73 time=0
EXTRACT: note_on channel=7 note=71 velocity=82 time=0
EXTRACT: note_on channel=9 note=70 velocity=0 time=0.07291666666666666
EXTRACT: note_on channel=9 note=54 velocity=0 time=0.005208333333333333
EXTRACT: note_on channel=3 note=69 velocity=0 time=0.005208333333333333
EXTRACT: note_on channel=4 note=69 velocity=0 time=0
EXTRACT: note_on channel=7 note=71 velocity=0 time=0
EXTRACT: note_on channel=9 note=42 velocity=50 time=0.07291666666666666
EXTRACT: note_on channel=9 note=54 velocity=44 time=0
EXTRACT: note_on channel=9 note=69 velocity=61 time=0
EXTRACT: note_on channel=9 note=70 velocity=61 time=0
EXTRACT: note_on channel=3 note=69 velocity=102 time=0
EXTRACT: note_on channel=4 note=69 velocity=87 time=0
EXTRACT: note_on channel=7 note=71 velocity=87 time=0
EXTRACT: note_on channel=9 note=54 velocity=0 time=0.06770833333333333
EXTRACT: note_on channel=9 note=70 velocity=0 time=0
EXTRACT: note_on channel=9 note=69 velocity=0 time=0.005208333333333333
EXTRACT: note_on channel=9 note=42 velocity=0 time=0.026041666666666664
EXTRACT: note_on channel=7 note=71 velocity=0 time=0
EXTRACT: note_on channel=9 note=36 velocity=0 time=0.020833333333333332
EXTRACT: note_on channel=9 note=54 velocity=36 time=0.03645833333333333
EXTRACT: note_on channel=9 note=69 velocity=48 time=0
EXTRACT: note_on channel=9 note=70 velocity=58 time=0
EXTRACT: note_on channel=7 note=69 velocity=86 time=0
EXTRACT: note_on channel=3 note=69 velocity=0 time=0.046875
EXTRACT: note_on channel=4 note=69 velocity=0 time=0
EXTRACT: note_on channel=9 note=54 velocity=0 time=0.005208333333333333
EXTRACT: note_on channel=9 note=69 velocity=0 time=0.015625
EXTRACT: note_on channel=7 note=69 velocity=0 time=0.015625
EXTRACT: note_on channel=9 note=70 velocity=0 time=0.015625
EXTRACT: note_on channel=9 note=36 velocity=82 time=0.057291666666666664
EXTRACT: note_on channel=9 note=39 velocity=82 time=0
EXTRACT: note_on channel=9 note=40 velocity=80 time=0
EXTRACT: note_on channel=9 note=42 velocity=84 time=0
EXTRACT: note_on channel=9 note=54 velocity=61 time=0
EXTRACT: note_on channel=9 note=69 velocity=52 time=0
EXTRACT: note_on channel=9 note=70 velocity=89 time=0
EXTRACT: note_on channel=1 note=42 velocity=97 time=0
EXTRACT: note_on channel=3 note=69 velocity=104 time=0
EXTRACT: note_on channel=4 note=69 velocity=89 time=0
EXTRACT: note_on channel=6 note=79 velocity=98 time=0
EXTRACT: note_on channel=7 note=71 velocity=88 time=0
EXTRACT: note_on channel=3 note=69 velocity=0 time=0.07291666666666666
EXTRACT: note_on channel=4 note=69 velocity=0 time=0
EXTRACT: note_on channel=9 note=69 velocity=0 time=0.010416666666666666
EXTRACT: note_on channel=9 note=70 velocity=0 time=0.010416666666666666
EXTRACT: note_on channel=9 note=54 velocity=0 time=0.005208333333333333
EXTRACT: note_on channel=9 note=39 velocity=0 time=0.005208333333333333
EXTRACT: note_on channel=7 note=71 velocity=0 time=0
EXTRACT: note_on channel=9 note=40 velocity=0 time=0.005208333333333333
EXTRACT: note_on channel=9 note=42 velocity=0 time=0.041666666666666664
EXTRACT: note_on channel=9 note=54 velocity=52 time=0.005208333333333333
EXTRACT: note_on channel=9 note=70 velocity=71 time=0
EXTRACT: note_on channel=3 note=69 velocity=101 time=0
EXTRACT: note_on channel=4 note=69 velocity=86 time=0
EXTRACT: note_on channel=9 note=54 velocity=0 time=0.09375
EXTRACT: note_on channel=9 note=70 velocity=0 time=0.005208333333333333
EXTRACT: note_on channel=3 note=69 velocity=0 time=0.010416666666666666
EXTRACT: note_on channel=4 note=69 velocity=0 time=0
EXTRACT: note_on channel=9 note=42 velocity=52 time=0.046875
EXTRACT: note_on channel=9 note=54 velocity=46 time=0
EXTRACT: note_on channel=9 note=70 velocity=71 time=0
EXTRACT: note_on channel=3 note=71 velocity=98 time=0
EXTRACT: note_on channel=4 note=71 velocity=83 time=0
EXTRACT: note_on channel=5 note=52 velocity=59 time=0
EXTRACT: note_on channel=5 note=57 velocity=58 time=0
EXTRACT: note_on channel=5 note=59 velocity=67 time=0
EXTRACT: note_on channel=5 note=62 velocity=63 time=0
EXTRACT: note_on channel=7 note=78 velocity=94 time=0
EXTRACT: note_on channel=9 note=54 velocity=0 time=0.06770833333333333
EXTRACT: note_on channel=9 note=70 velocity=0 time=0.015625
EXTRACT: note_on channel=9 note=42 velocity=0 time=0.015625
EXTRACT: note_on channel=2 note=57 velocity=0 time=0.026041666666666664
EXTRACT: note_on channel=9 note=36 velocity=0 time=0.010416666666666666
EXTRACT: note_on channel=7 note=78 velocity=0 time=0.020833333333333332
EXTRACT: note_on channel=9 note=42 velocity=40 time=0
EXTRACT: note_on channel=9 note=54 velocity=57 time=0
EXTRACT: note_on channel=9 note=70 velocity=61 time=0
EXTRACT: note_on channel=1 note=42 velocity=0 time=0.041666666666666664
EXTRACT: note_on channel=9 note=54 velocity=0 time=0.005208333333333333
EXTRACT: note_on channel=3 note=71 velocity=0 time=0.020833333333333332
EXTRACT: note_on channel=4 note=71 velocity=0 time=0
EXTRACT: note_on channel=2 note=61 velocity=0 time=0.005208333333333333
EXTRACT: note_on channel=2 note=64 velocity=0 time=0
EXTRACT: note_on channel=5 note=62 velocity=0 time=0.010416666666666666
EXTRACT: note_on channel=5 note=59 velocity=0 time=0.005208333333333333
EXTRACT: note_on channel=9 note=42 velocity=0 time=0.010416666666666666
EXTRACT: note_on channel=9 note=70 velocity=0 time=0
EXTRACT: note_on channel=6 note=79 velocity=0 time=0.010416666666666666
EXTRACT: note_on channel=5 note=57 velocity=0 time=0.010416666666666666
EXTRACT: note_on channel=5 note=52 velocity=0 time=0.005208333333333333
EXTRACT: note_on channel=9 note=36 velocity=83 time=0.03125
EXTRACT: note_on channel=9 note=42 velocity=77 time=0
EXTRACT: note_on channel=9 note=54 velocity=54 time=0
EXTRACT: note_on channel=9 note=70 velocity=90 time=0
EXTRACT: note_on channel=1 note=35 velocity=94 time=0
EXTRACT: note_on channel=2 note=54 velocity=66 time=0
EXTRACT: note_on channel=2 note=57 velocity=68 time=0
EXTRACT: note_on channel=2 note=62 velocity=71 time=0
EXTRACT: note_on channel=3 note=66 velocity=97 time=0
EXTRACT: note_on channel=4 note=66 velocity=82 time=0
EXTRACT: note_on channel=6 note=78 velocity=96 time=0
EXTRACT: note_on channel=9 note=54 velocity=0 time=0.09375
EXTRACT: note_on channel=9 note=70 velocity=0 time=0.005208333333333333
EXTRACT: note_on channel=9 note=54 velocity=38 time=0.057291666666666664
EXTRACT: note_on channel=9 note=70 velocity=70 time=0
EXTRACT: note_on channel=9 note=42 velocity=0 time=0.015625
EXTRACT: note_on channel=3 note=66 velocity=0 time=0.026041666666666664
EXTRACT: note_on channel=4 note=66 velocity=0 time=0
EXTRACT: note_on channel=9 note=70 velocity=0 time=0.005208333333333333
EXTRACT: note_on channel=9 note=54 velocity=0 time=0.03125
EXTRACT: note_on channel=9 note=42 velocity=54 time=0.078125
EXTRACT: note_on channel=9 note=54 velocity=44 time=0
EXTRACT: note_on channel=9 note=69 velocity=71 time=0
EXTRACT: note_on channel=9 note=70 velocity=71 time=0
EXTRACT: note_on channel=3 note=66 velocity=102 time=0
EXTRACT: note_on channel=4 note=66 velocity=87 time=0
EXTRACT: note_on channel=7 note=74 velocity=95 time=0
EXTRACT: note_on channel=9 note=54 velocity=0 time=0.06770833333333333
EXTRACT: note_on channel=9 note=69 velocity=0 time=0
EXTRACT: note_on channel=9 note=70 velocity=0 time=0.015625
EXTRACT: note_on channel=7 note=74 velocity=0 time=0
EXTRACT: note_on channel=1 note=35 velocity=0 time=0.005208333333333333
EXTRACT: note_on channel=9 note=36 velocity=0 time=0.015625
EXTRACT: note_on channel=9 note=42 velocity=0 time=0.005208333333333333
EXTRACT: note_on channel=9 note=54 velocity=36 time=0.046875
EXTRACT: note_on channel=9 note=70 velocity=56 time=0
EXTRACT: note_on channel=3 note=66 velocity=0 time=0.020833333333333332
EXTRACT: note_on channel=4 note=66 velocity=0 time=0
EXTRACT: note_on channel=9 note=54 velocity=0 time=0.03125
EXTRACT: note_on channel=9 note=70 velocity=0 time=0.046875
EXTRACT: note_on channel=9 note=36 velocity=84 time=0.057291666666666664
EXTRACT: note_on channel=9 note=39 velocity=84 time=0
EXTRACT: note_on channel=9 note=40 velocity=82 time=0
EXTRACT: note_on channel=9 note=42 velocity=79 time=0
EXTRACT: note_on channel=9 note=54 velocity=61 time=0
EXTRACT: note_on channel=9 note=70 velocity=87 time=0
EXTRACT: note_on channel=3 note=66 velocity=98 time=0
EXTRACT: note_on channel=4 note=66 velocity=83 time=0
EXTRACT: note_on channel=9 note=40 velocity=0 time=0.06770833333333333
EXTRACT: note_on channel=9 note=70 velocity=0 time=0.026041666666666664
EXTRACT: note_on channel=9 note=39 velocity=0 time=0.005208333333333333
EXTRACT: note_on channel=9 note=54 velocity=0 time=0
EXTRACT: note_on channel=9 note=54 velocity=52 time=0.057291666666666664
EXTRACT: note_on channel=9 note=70 velocity=74 time=0
EXTRACT: note_on channel=7 note=71 velocity=93 time=0
EXTRACT: note_on channel=9 note=42 velocity=0 time=0.020833333333333332
EXTRACT: note_on channel=3 note=66 velocity=0 time=0.06770833333333333
EXTRACT: note_on channel=4 note=66 velocity=0 time=0
EXTRACT: note_on channel=9 note=54 velocity=0 time=0.005208333333333333
EXTRACT: note_on channel=9 note=70 velocity=0 time=0.005208333333333333
EXTRACT: note_on channel=9 note=42 velocity=54 time=0.057291666666666664
EXTRACT: note_on channel=9 note=54 velocity=46 time=0
EXTRACT: note_on channel=9 note=69 velocity=64 time=0
EXTRACT: note_on channel=9 note=70 velocity=72 time=0
EXTRACT: note_on channel=1 note=33 velocity=98 time=0
EXTRACT: note_on channel=3 note=66 velocity=87 time=0
EXTRACT: note_on channel=4 note=66 velocity=72 time=0
EXTRACT: note_on channel=9 note=69 velocity=0 time=0.0625
EXTRACT: note_on channel=9 note=54 velocity=0 time=0.005208333333333333
EXTRACT: note_on channel=2 note=57 velocity=0 time=0.015625
EXTRACT: note_on channel=9 note=70 velocity=0 time=0
EXTRACT: note_on channel=3 note=66 velocity=0 time=0.010416666666666666
EXTRACT: note_on channel=4 note=66 velocity=0 time=0
EXTRACT: note_on channel=7 note=71 velocity=0 time=0.005208333333333333
EXTRACT: note_on channel=9 note=36 velocity=0 time=0.010416666666666666
EXTRACT: note_on channel=9 note=42 velocity=0 time=0.005208333333333333
EXTRACT: note_on channel=2 note=62 velocity=0 time=0.03125
EXTRACT: note_on channel=9 note=54 velocity=57 time=0.010416666666666666
EXTRACT: note_on channel=9 note=70 velocity=66 time=0
EXTRACT: note_on channel=3 note=66 velocity=90 time=0
EXTRACT: note_on channel=4 note=66 velocity=75 time=0
EXTRACT: note_on channel=9 note=54 velocity=0 time=0.046875
EXTRACT: note_on channel=2 note=54 velocity=0 time=0.041666666666666664
EXTRACT: note_on channel=9 note=70 velocity=0 time=0.010416666666666666
EXTRACT: note_on channel=1 note=33 velocity=0 time=0.05208333333333333
EXTRACT: note_on channel=9 note=36 velocity=81 time=0.005208333333333333
EXTRACT: note_on channel=9 note=42 velocity=87 time=0
EXTRACT: note_on channel=9 note=54 velocity=54 time=0
EXTRACT: note_on channel=9 note=70 velocity=93 time=0
EXTRACT: note_on channel=1 note=35 velocity=98 time=0
EXTRACT: note_on channel=7 note=69 velocity=95 time=0
EXTRACT: note_on channel=3 note=66 velocity=0 time=0.08854166666666666
EXTRACT: note_on channel=4 note=66 velocity=0 time=0
EXTRACT: note_on channel=9 note=54 velocity=0 time=0.005208333333333333
EXTRACT: note_on channel=9 note=70 velocity=0 time=0.015625
EXTRACT: note_on channel=7 note=69 velocity=0 time=0
EXTRACT: note_on channel=9 note=42 velocity=0 time=0.041666666666666664
EXTRACT: note_on channel=9 note=54 velocity=38 time=0.005208333333333333
EXTRACT: note_on channel=9 note=70 velocity=59 time=0
EXTRACT: note_on channel=3 note=66 velocity=94 time=0
EXTRACT: note_on channel=4 note=66 velocity=79 time=0
EXTRACT: note_on channel=7 note=71 velocity=82 time=0
EXTRACT: note_on channel=9 note=54 velocity=0 time=0.078125
EXTRACT: note_on channel=7 note=71 velocity=0 time=0.005208333333333333
EXTRACT: note_on channel=9 note=70 velocity=0 time=0.010416666666666666
EXTRACT: note_on channel=3 note=66 velocity=0 time=0.010416666666666666
EXTRACT: note_on channel=4 note=66 velocity=0 time=0
EXTRACT: note_on channel=1 note=35 velocity=0 time=0.046875
EXTRACT: note_on channel=9 note=42 velocity=46 time=0.005208333333333333
EXTRACT: note_on channel=9 note=54 velocity=44 time=0
EXTRACT: note_on channel=9 note=69 velocity=60 time=0
EXTRACT: note_on channel=9 note=70 velocity=78 time=0
EXTRACT: note_on channel=3 note=69 velocity=105 time=0
EXTRACT: note_on channel=4 note=69 velocity=90 time=0
EXTRACT: note_on channel=7 note=71 velocity=87 time=0
EXTRACT: note_on channel=9 note=54 velocity=0 time=0.06770833333333333
EXTRACT: note_on channel=9 note=69 velocity=0 time=0.020833333333333332
EXTRACT: note_on channel=9 note=70 velocity=0 time=0.005208333333333333
EXTRACT: note_on channel=7 note=71 velocity=0 time=0.005208333333333333
EXTRACT: note_on channel=9 note=36 velocity=0 time=0.005208333333333333
EXTRACT: note_on channel=9 note=42 velocity=0 time=0.020833333333333332
EXTRACT: note_on channel=9 note=54 velocity=36 time=0.03125
EXTRACT: note_on channel=9 note=69 velocity=55 time=0
EXTRACT: note_on channel=9 note=70 velocity=74 time=0
EXTRACT: note_on channel=7 note=69 velocity=86 time=0
EXTRACT: note_on channel=9 note=54 velocity=0 time=0.05208333333333333
EXTRACT: note_on channel=3 note=69 velocity=0 time=0.005208333333333333
EXTRACT: note_on channel=4 note=69 velocity=0 time=0
EXTRACT: note_on channel=9 note=69 velocity=0 time=0.026041666666666664
EXTRACT: note_on channel=7 note=69 velocity=0 time=0
EXTRACT: note_on channel=9 note=70 velocity=0 time=0.005208333333333333
EXTRACT: note_on channel=9 note=36 velocity=82 time=0.06770833333333333
EXTRACT: note_on channel=9 note=39 velocity=82 time=0
EXTRACT: note_on channel=9 note=40 velocity=80 time=0
EXTRACT: note_on channel=9 note=42 velocity=78 time=0
EXTRACT: note_on channel=9 note=54 velocity=61 time=0
EXTRACT: note_on channel=9 note=69 velocity=50 time=0
EXTRACT: note_on channel=9 note=70 velocity=87 time=0
EXTRACT: note_on channel=3 note=69 velocity=102 time=0
EXTRACT: note_on channel=4 note=69 velocity=87 time=0
EXTRACT: note_on channel=7 note=71 velocity=88 time=0
EXTRACT: note_on channel=3 note=69 velocity=0 time=0.07291666666666666
EXTRACT: note_on channel=4 note=69 velocity=0 time=0
EXTRACT: note_on channel=9 note=69 velocity=0 time=0.015625
EXTRACT: note_on channel=9 note=54 velocity=0 time=0.010416666666666666
EXTRACT: note_on channel=9 note=70 velocity=0 time=0
EXTRACT: note_on channel=9 note=39 velocity=0 time=0.005208333333333333
EXTRACT: note_on channel=7 note=71 velocity=0 time=0
EXTRACT: note_on channel=9 note=40 velocity=0 time=0.005208333333333333
EXTRACT: note_on channel=6 note=78 velocity=0 time=0.015625
EXTRACT: note_on channel=9 note=42 velocity=0 time=0.026041666666666664
EXTRACT: note_on channel=9 note=54 velocity=52 time=0.005208333333333333
EXTRACT: note_on channel=9 note=70 velocity=74 time=0
EXTRACT: note_on channel=3 note=69 velocity=100 time=0
EXTRACT: note_on channel=4 note=69 velocity=85 time=0
EXTRACT: note_on channel=3 note=69 velocity=0 time=0.07291666666666666
EXTRACT: note_on channel=4 note=69 velocity=0 time=0
EXTRACT: note_on channel=9 note=54 velocity=0 time=0.020833333333333332
EXTRACT: note_on channel=9 note=70 velocity=0 time=0
EXTRACT: note_on channel=9 note=46 velocity=49 time=0.0625
EXTRACT: note_on channel=9 note=54 velocity=46 time=0
EXTRACT: note_on channel=9 note=70 velocity=58 time=0
EXTRACT: note_on channel=1 note=33 velocity=103 time=0
EXTRACT: note_on channel=3 note=69 velocity=104 time=0
EXTRACT: note_on channel=4 note=69 velocity=89 time=0
EXTRACT: note_on channel=7 note=78 velocity=94 time=0
EXTRACT: note_on channel=9 note=54 velocity=0 time=0.06770833333333333
EXTRACT: note_on channel=9 note=46 velocity=0 time=0.026041666666666664
EXTRACT: note_on channel=9 note=70 velocity=0 time=0.005208333333333333
EXTRACT: note_on channel=7 note=78 velocity=0 time=0.057291666666666664
EXTRACT: note_on channel=9 note=54 velocity=57 time=0
EXTRACT: note_on channel=9 note=70 velocity=61 time=0
EXTRACT: note_on channel=1 note=34 velocity=85 time=0
EXTRACT: note_on channel=9 note=36 velocity=0 time=0.020833333333333332
EXTRACT: note_on channel=1 note=33 velocity=0 time=0.015625
EXTRACT: note_on channel=9 note=54 velocity=0 time=0.010416666666666666
EXTRACT: note_on channel=9 note=70 velocity=0 time=0.041666666666666664
EXTRACT: note_on channel=1 note=34 velocity=0 time=0.046875
EXTRACT: note_on channel=3 note=69 velocity=0 time=0.015625
EXTRACT: note_on channel=4 note=69 velocity=0 time=0
EXTRACT: note_on channel=9 note=36 velocity=77 time=0.005208333333333333
EXTRACT: note_on channel=9 note=42 velocity=88 time=0
EXTRACT: note_on channel=9 note=54 velocity=54 time=0
EXTRACT: note_on channel=9 note=70 velocity=87 time=0
EXTRACT: note_on channel=1 note=35 velocity=102 time=0
EXTRACT: note_on channel=2 note=57 velocity=83 time=0
EXTRACT: note_on channel=2 note=62 velocity=82 time=0
EXTRACT: note_on channel=2 note=66 velocity=81 time=0
EXTRACT: note_on channel=3 note=66 velocity=98 time=0
EXTRACT: note_on channel=4 note=66 velocity=83 time=0
EXTRACT: note_on channel=5 note=57 velocity=63 time=0
EXTRACT: note_on channel=5 note=59 velocity=67 time=0
EXTRACT: note_on channel=5 note=62 velocity=66 time=0
EXTRACT: note_on channel=9 note=70 velocity=0 time=0.08333333333333333
EXTRACT: note_on channel=9 note=54 velocity=0 time=0.010416666666666666
EXTRACT: note_on channel=9 note=42 velocity=0 time=0.010416666666666666
EXTRACT: note_on channel=9 note=54 velocity=38 time=0.05208333333333333
EXTRACT: note_on channel=9 note=70 velocity=63 time=0
EXTRACT: note_on channel=5 note=59 velocity=0 time=0.046875
EXTRACT: note_on channel=5 note=62 velocity=0 time=0
EXTRACT: note_on channel=9 note=54 velocity=0 time=0.03125
EXTRACT: note_on channel=3 note=66 velocity=0 time=0.020833333333333332
EXTRACT: note_on channel=4 note=66 velocity=0 time=0
EXTRACT: note_on channel=5 note=57 velocity=0 time=0
EXTRACT: note_on channel=9 note=70 velocity=0 time=0.005208333333333333
EXTRACT: note_on channel=9 note=42 velocity=46 time=0.05208333333333333
EXTRACT: note_on channel=9 note=54 velocity=44 time=0
EXTRACT: note_on channel=9 note=69 velocity=68 time=0
EXTRACT: note_on channel=9 note=70 velocity=46 time=0
EXTRACT: note_on channel=3 note=69 velocity=100 time=0
EXTRACT: note_on channel=4 note=69 velocity=85 time=0
EXTRACT: note_on channel=6 note=69 velocity=87 time=0
EXTRACT: note_on channel=7 note=74 velocity=95 time=0
EXTRACT: note_on channel=1 note=35 velocity=0 time=0.026041666666666664
EXTRACT: note_on channel=9 note=70 velocity=0 time=0.020833333333333332
EXTRACT: note_on channel=9 note=69 velocity=0 time=0.010416666666666666
EXTRACT: note_on channel=9 note=54 velocity=0 time=0.010416666666666666
EXTRACT: note_on channel=9 note=42 velocity=0 time=0.015625
EXTRACT: note_on channel=7 note=74 velocity=0 time=0
EXTRACT: note_on channel=9 note=36 velocity=0 time=0.041666666666666664
EXTRACT: note_on channel=3 note=69 velocity=0 time=0.03125
EXTRACT: note_on channel=4 note=69 velocity=0 time=0
EXTRACT: note_on channel=9 note=54 velocity=36 time=0
EXTRACT: note_on channel=9 note=70 velocity=61 time=0
EXTRACT: note_on channel=9 note=54 velocity=0 time=0.05208333333333333
EXTRACT: note_on channel=9 note=70 velocity=0 time=0.041666666666666664
EXTRACT: note_on channel=6 note=69 velocity=0 time=0.046875
EXTRACT: note_on channel=9 note=36 velocity=81 time=0.015625
EXTRACT: note_on channel=9 note=39 velocity=84 time=0
EXTRACT: note_on channel=9 note=40 velocity=82 time=0
EXTRACT: note_on channel=9 note=42 velocity=91 time=0
EXTRACT: note_on channel=9 note=54 velocity=61 time=0
EXTRACT: note_on channel=9 note=70 velocity=91 time=0
EXTRACT: note_on channel=3 note=66 velocity=96 time=0
EXTRACT: note_on channel=4 note=66 velocity=81 time=0
EXTRACT: note_on channel=6 note=71 velocity=83 time=0
EXTRACT: note_on channel=9 note=40 velocity=0 time=0.06770833333333333
EXTRACT: note_on channel=9 note=70 velocity=0 time=0.020833333333333332
EXTRACT: note_on channel=9 note=39 velocity=0 time=0.010416666666666666
EXTRACT: note_on channel=9 note=54 velocity=0 time=0
EXTRACT: note_on channel=9 note=42 velocity=0 time=0.03645833333333333
EXTRACT: note_on channel=6 note=71 velocity=0 time=0.015625
EXTRACT: note_on channel=9 note=54 velocity=52 time=0.005208333333333333
EXTRACT: note_on channel=9 note=70 velocity=63 time=0
EXTRACT: note_on channel=7 note=71 velocity=93 time=0
EXTRACT: note_on channel=3 note=66 velocity=0 time=0.06770833333333333
EXTRACT: note_on channel=4 note=66 velocity=0 time=0
EXTRACT: note_on channel=9 note=70 velocity=0 time=0.020833333333333332
EXTRACT: note_on channel=9 note=54 velocity=0 time=0.005208333333333333
EXTRACT: note_on channel=9 note=42 velocity=46 time=0.0625
EXTRACT: note_on channel=9 note=54 velocity=46 time=0
EXTRACT: note_on channel=9 note=70 velocity=80 time=0
EXTRACT: note_on channel=3 note=69 velocity=103 time=0
EXTRACT: note_on channel=4 note=69 velocity=88 time=0
EXTRACT: note_on channel=6 note=74 velocity=91 time=0
EXTRACT: note_on channel=9 note=54 velocity=0 time=0.06770833333333333
EXTRACT: note_on channel=9 note=70 velocity=0 time=0.010416666666666666
EXTRACT: note_on channel=3 note=69 velocity=0 time=0
EXTRACT: note_on channel=4 note=69 velocity=0 time=0
EXTRACT: note_on channel=7 note=71 velocity=0 time=0.020833333333333332
EXTRACT: note_on channel=9 note=42 velocity=0 time=0.015625
EXTRACT: note_on channel=9 note=36 velocity=0 time=0.010416666666666666
EXTRACT: note_on channel=9 note=54 velocity=57 time=0.03125
EXTRACT: note_on channel=9 note=70 velocity=62 time=0
EXTRACT: note_on channel=3 note=71 velocity=105 time=0
EXTRACT: note_on channel=4 note=71 velocity=90 time=0
EXTRACT: note_on channel=9 note=54 velocity=0 time=0.046875
EXTRACT: note_on channel=9 note=70 velocity=0 time=0.046875
EXTRACT: note_on channel=9 note=36 velocity=78 time=0.0625
EXTRACT: note_on channel=9 note=42 velocity=80 time=0
EXTRACT: note_on channel=9 note=54 velocity=54 time=0
EXTRACT: note_on channel=9 note=70 velocity=88 time=0
EXTRACT: note_on channel=7 note=69 velocity=95 time=0
EXTRACT: note_on channel=9 note=54 velocity=0 time=0.09375
EXTRACT: note_on channel=9 note=70 velocity=0 time=0.005208333333333333
EXTRACT: note_on channel=7 note=69 velocity=0 time=0.010416666666666666
EXTRACT: note_on channel=9 note=42 velocity=0 time=0.020833333333333332
EXTRACT: note_on channel=9 note=54 velocity=38 time=0.026041666666666664
EXTRACT: note_on channel=9 note=70 velocity=66 time=0
EXTRACT: note_on channel=7 note=71 velocity=82 time=0
EXTRACT: note_on channel=9 note=70 velocity=0 time=0.07291666666666666
EXTRACT: note_on channel=9 note=54 velocity=0 time=0.005208333333333333
EXTRACT: note_on channel=7 note=71 velocity=0 time=0.005208333333333333
EXTRACT: note_on channel=3 note=71 velocity=0 time=0.06770833333333333
EXTRACT: note_on channel=4 note=71 velocity=0 time=0
EXTRACT: note_on channel=9 note=42 velocity=50 time=0.005208333333333333
EXTRACT: note_on channel=9 note=54 velocity=44 time=0
EXTRACT: note_on channel=9 note=69 velocity=61 time=0
EXTRACT: note_on channel=9 note=70 velocity=61 time=0
EXTRACT: note_on channel=3 note=66 velocity=95 time=0
EXTRACT: note_on channel=4 note=66 velocity=80 time=0
EXTRACT: note_on channel=7 note=71 velocity=87 time=0
EXTRACT: note_on channel=9 note=54 velocity=0 time=0.06770833333333333
EXTRACT: note_on channel=9 note=70 velocity=0 time=0
EXTRACT: note_on channel=9 note=69 velocity=0 time=0.005208333333333333
EXTRACT: note_on channel=9 note=42 velocity=0 time=0.026041666666666664
EXTRACT: note_on channel=7 note=71 velocity=0 time=0
EXTRACT: note_on channel=9 note=36 velocity=0 time=0.020833333333333332
EXTRACT: note_on channel=9 note=54 velocity=36 time=0.03645833333333333
EXTRACT: note_on channel=9 note=69 velocity=48 time=0
EXTRACT: note_on channel=9 note=70 velocity=58 time=0
EXTRACT: note_on channel=7 note=69 velocity=86 time=0
EXTRACT: note_on channel=9 note=54 velocity=0 time=0.05208333333333333
EXTRACT: note_on channel=9 note=69 velocity=0 time=0.015625
EXTRACT: note_on channel=7 note=69 velocity=0 time=0.015625
EXTRACT: note_on channel=9 note=70 velocity=0 time=0.015625
EXTRACT: note_on channel=3 note=66 velocity=0 time=0.05208333333333333
EXTRACT: note_on channel=4 note=66 velocity=0 time=0
EXTRACT: note_on channel=9 note=36 velocity=82 time=0.005208333333333333
EXTRACT: note_on channel=9 note=39 velocity=82 time=0
EXTRACT: note_on channel=9 note=40 velocity=80 time=0
EXTRACT: note_on channel=9 note=42 velocity=84 time=0
EXTRACT: note_on channel=9 note=54 velocity=61 time=0
EXTRACT: note_on channel=9 note=69 velocity=52 time=0
EXTRACT: note_on channel=9 note=70 velocity=89 time=0
EXTRACT: note_on channel=1 note=42 velocity=98 time=0
EXTRACT: note_on channel=3 note=64 velocity=101 time=0
EXTRACT: note_on channel=4 note=64 velocity=86 time=0
EXTRACT: note_on channel=7 note=71 velocity=88 time=0
EXTRACT: note_on channel=9 note=69 velocity=0 time=0.08333333333333333
EXTRACT: note_on channel=9 note=70 velocity=0 time=0.010416666666666666
EXTRACT: note_on channel=9 note=54 velocity=0 time=0.005208333333333333
EXTRACT: note_on channel=9 note=39 velocity=0 time=0.005208333333333333
EXTRACT: note_on channel=7 note=71 velocity=0 time=0
EXTRACT: note_on channel=9 note=40 velocity=0 time=0.005208333333333333
EXTRACT: note_on channel=9 note=42 velocity=0 time=0.041666666666666664
EXTRACT: note_on channel=3 note=64 velocity=0 time=0
EXTRACT: note_on channel=4 note=64 velocity=0 time=0
EXTRACT: note_on channel=9 note=54 velocity=52 time=0.005208333333333333
EXTRACT: note_on channel=9 note=70 velocity=71 time=0
EXTRACT: note_on channel=3 note=66 velocity=88 time=0
EXTRACT: note_on channel=4 note=66 velocity=73 time=0
EXTRACT: note_on channel=9 note=54 velocity=0 time=0.09375
EXTRACT: note_on channel=9 note=70 velocity=0 time=0.005208333333333333
EXTRACT: note_on channel=3 note=66 velocity=0 time=0.010416666666666666
EXTRACT: note_on channel=4 note=66 velocity=0 time=0
EXTRACT: note_on channel=9 note=42 velocity=52 time=0.046875
EXTRACT: note_on channel=9 note=54 velocity=46 time=0
EXTRACT: note_on channel=9 note=70 velocity=71 time=0
EXTRACT: note_on channel=3 note=69 velocity=107 time=0
EXTRACT: note_on channel=4 note=69 velocity=92 time=0
EXTRACT: note_on channel=5 note=52 velocity=59 time=0
EXTRACT: note_on channel=5 note=57 velocity=58 time=0
EXTRACT: note_on channel=5 note=59 velocity=67 time=0
EXTRACT: note_on channel=5 note=62 velocity=63 time=0
EXTRACT: note_on channel=7 note=78 velocity=94 time=0
EXTRACT: note_on channel=9 note=54 velocity=0 time=0.06770833333333333
EXTRACT: note_on channel=9 note=70 velocity=0 time=0.015625
EXTRACT: note_on channel=3 note=69 velocity=0 time=0
EXTRACT: note_on channel=4 note=69 velocity=0 time=0
EXTRACT: note_on channel=2 note=62 velocity=0 time=0.015625
EXTRACT: note_on channel=9 note=42 velocity=0 time=0
EXTRACT: note_on channel=2 note=57 velocity=0 time=0.026041666666666664
EXTRACT: note_on channel=9 note=36 velocity=0 time=0.010416666666666666
EXTRACT: note_on channel=7 note=78 velocity=0 time=0.020833333333333332
EXTRACT: note_on channel=9 note=42 velocity=40 time=0
EXTRACT: note_on channel=9 note=54 velocity=57 time=0
EXTRACT: note_on channel=9 note=70 velocity=61 time=0
EXTRACT: note_on channel=2 note=66 velocity=0 time=0.015625
EXTRACT: note_on channel=1 note=42 velocity=0 time=0.026041666666666664
EXTRACT: note_on channel=9 note=54 velocity=0 time=0.005208333333333333
EXTRACT: note_on channel=6 note=74 velocity=0 time=0.020833333333333332
EXTRACT: note_on channel=5 note=62 velocity=0 time=0.015625
EXTRACT: note_on channel=5 note=59 velocity=0 time=0.005208333333333333
EXTRACT: note_on channel=9 note=42 velocity=0 time=0.010416666666666666
EXTRACT: note_on channel=9 note=70 velocity=0 time=0
EXTRACT: note_on channel=5 note=57 velocity=0 time=0.020833333333333332
EXTRACT: note_on channel=5 note=52 velocity=0 time=0.005208333333333333
EXTRACT: note_on channel=9 note=36 velocity=83 time=0.03125
EXTRACT: note_on channel=9 note=42 velocity=77 time=0
EXTRACT: note_on channel=9 note=54 velocity=54 time=0
EXTRACT: note_on channel=9 note=70 velocity=90 time=0
EXTRACT: note_on channel=1 note=35 velocity=95 time=0
EXTRACT: note_on channel=2 note=57 velocity=82 time=0
EXTRACT: note_on channel=2 note=59 velocity=83 time=0
EXTRACT: note_on channel=2 note=64 velocity=87 time=0
EXTRACT: note_on channel=3 note=66 velocity=103 time=0
EXTRACT: note_on channel=4 note=66 velocity=88 time=0
EXTRACT: note_on channel=6 note=76 velocity=95 time=0
EXTRACT: note_on channel=9 note=54 velocity=0 time=0.09375
EXTRACT: note_on channel=9 note=70 velocity=0 time=0.005208333333333333
EXTRACT: note_on channel=9 note=54 velocity=38 time=0.057291666666666664
EXTRACT: note_on channel=9 note=70 velocity=70 time=0
EXTRACT: note_on channel=9 note=42 velocity=0 time=0.015625
EXTRACT: note_on channel=9 note=70 velocity=0 time=0.03125
EXTRACT: note_on channel=9 note=54 velocity=0 time=0.03125
EXTRACT: note_on channel=3 note=66 velocity=0 time=0.020833333333333332
EXTRACT: note_on channel=4 note=66 velocity=0 time=0
EXTRACT: note_on channel=9 note=42 velocity=54 time=0.057291666666666664
EXTRACT: note_on channel=9 note=54 velocity=44 time=0
EXTRACT: note_on channel=9 note=69 velocity=71 time=0
EXTRACT: note_on channel=9 note=70 velocity=71 time=0
EXTRACT: note_on channel=3 note=69 velocity=104 time=0
EXTRACT: note_on channel=4 note=69 velocity=89 time=0
EXTRACT: note_on channel=7 note=74 velocity=95 time=0
EXTRACT: note_on channel=1 note=35 velocity=0 time=0.041666666666666664
EXTRACT: note_on channel=9 note=54 velocity=0 time=0.026041666666666664
EXTRACT: note_on channel=9 note=69 velocity=0 time=0
EXTRACT: note_on channel=9 note=70 velocity=0 time=0.015625
EXTRACT: note_on channel=7 note=74 velocity=0 time=0
EXTRACT: note_on channel=9 note=36 velocity=0 time=0.020833333333333332
EXTRACT: note_on channel=9 note=42 velocity=0 time=0.005208333333333333
EXTRACT: note_on channel=9 note=54 velocity=36 time=0.046875
EXTRACT: note_on channel=9 note=70 velocity=56 time=0
EXTRACT: note_on channel=3 note=69 velocity=0 time=0.03125
EXTRACT: note_on channel=4 note=69 velocity=0 time=0
EXTRACT: note_on channel=9 note=54 velocity=0 time=0.020833333333333332
EXTRACT: note_on channel=9 note=70 velocity=0 time=0.046875
EXTRACT: note_on channel=9 note=36 velocity=84 time=0.057291666666666664
EXTRACT: note_on channel=9 note=39 velocity=84 time=0
EXTRACT: note_on channel=9 note=40 velocity=82 time=0
EXTRACT: note_on channel=9 note=42 velocity=79 time=0
EXTRACT: note_on channel=9 note=54 velocity=61 time=0
EXTRACT: note_on channel=9 note=70 velocity=87 time=0
EXTRACT: note_on channel=3 note=66 velocity=97 time=0
EXTRACT: note_on channel=4 note=66 velocity=82 time=0
EXTRACT: note_on channel=9 note=40 velocity=0 time=0.06770833333333333
EXTRACT: note_on channel=9 note=70 velocity=0 time=0.026041666666666664
EXTRACT: note_on channel=9 note=39 velocity=0 time=0.005208333333333333
EXTRACT: note_on channel=9 note=54 velocity=0 time=0
EXTRACT: note_on channel=9 note=54 velocity=52 time=0.057291666666666664
EXTRACT: note_on channel=9 note=70 velocity=74 time=0
EXTRACT: note_on channel=7 note=71 velocity=93 time=0
EXTRACT: note_on channel=9 note=42 velocity=0 time=0.020833333333333332
EXTRACT: note_on channel=3 note=66 velocity=0 time=0.07291666666666666
EXTRACT: note_on channel=4 note=66 velocity=0 time=0
EXTRACT: note_on channel=9 note=54 velocity=0 time=0
EXTRACT: note_on channel=9 note=70 velocity=0 time=0.005208333333333333
EXTRACT: note_on channel=9 note=42 velocity=54 time=0.057291666666666664
EXTRACT: note_on channel=9 note=54 velocity=46 time=0
EXTRACT: note_on channel=9 note=69 velocity=64 time=0
EXTRACT: note_on channel=9 note=70 velocity=72 time=0
EXTRACT: note_on channel=1 note=30 velocity=78 time=0
EXTRACT: note_on channel=3 note=69 velocity=100 time=0
EXTRACT: note_on channel=4 note=69 velocity=85 time=0
EXTRACT: note_on channel=9 note=69 velocity=0 time=0.0625
EXTRACT: note_on channel=9 note=54 velocity=0 time=0.005208333333333333
EXTRACT: note_on channel=3 note=69 velocity=0 time=0.010416666666666666
EXTRACT: note_on channel=4 note=69 velocity=0 time=0
EXTRACT: note_on channel=9 note=70 velocity=0 time=0.005208333333333333
EXTRACT: note_on channel=7 note=71 velocity=0 time=0.015625
EXTRACT: note_on channel=9 note=36 velocity=0 time=0.010416666666666666
EXTRACT: note_on channel=9 note=42 velocity=0 time=0.005208333333333333
EXTRACT: note_on channel=9 note=54 velocity=57 time=0.041666666666666664
EXTRACT: note_on channel=9 note=70 velocity=66 time=0
EXTRACT: note_on channel=3 note=71 velocity=104 time=0
EXTRACT: note_on channel=4 note=71 velocity=89 time=0
EXTRACT: note_on channel=2 note=59 velocity=0 time=0.041666666666666664
EXTRACT: note_on channel=2 note=64 velocity=0 time=0
EXTRACT: note_on channel=9 note=54 velocity=0 time=0.005208333333333333
EXTRACT: note_on channel=2 note=57 velocity=0 time=0.020833333333333332
EXTRACT: note_on channel=9 note=70 velocity=0 time=0.03125
EXTRACT: note_on channel=9 note=36 velocity=81 time=0.057291666666666664
EXTRACT: note_on channel=9 note=42 velocity=87 time=0
EXTRACT: note_on channel=9 note=54 velocity=54 time=0
EXTRACT: note_on channel=9 note=70 velocity=93 time=0
EXTRACT: note_on channel=1 note=33 velocity=83 time=0
EXTRACT: note_on channel=2 note=55 velocity=89 time=0
EXTRACT: note_on channel=2 note=59 velocity=80 time=0
EXTRACT: note_on channel=2 note=64 velocity=80 time=0
EXTRACT: note_on channel=7 note=69 velocity=95 time=0
EXTRACT: note_on channel=1 note=30 velocity=0 time=0.005208333333333333
EXTRACT: note_on channel=9 note=54 velocity=0 time=0.08854166666666666
EXTRACT: note_on channel=9 note=70 velocity=0 time=0.015625
EXTRACT: note_on channel=7 note=69 velocity=0 time=0
EXTRACT: note_on channel=3 note=71 velocity=0 time=0.041666666666666664
EXTRACT: note_on channel=4 note=71 velocity=0 time=0
EXTRACT: note_on channel=9 note=42 velocity=0 time=0
EXTRACT: note_on channel=9 note=54 velocity=38 time=0.005208333333333333
EXTRACT: note_on channel=9 note=70 velocity=59 time=0
EXTRACT: note_on channel=3 note=69 velocity=90 time=0
EXTRACT: note_on channel=4 note=69 velocity=75 time=0
EXTRACT: note_on channel=7 note=71 velocity=82 time=0
EXTRACT: note_on channel=9 note=54 velocity=0 time=0.078125
EXTRACT: note_on channel=7 note=71 velocity=0 time=0.005208333333333333
EXTRACT: note_on channel=9 note=70 velocity=0 time=0.010416666666666666
EXTRACT: note_on channel=3 note=69 velocity=0 time=0.005208333333333333
EXTRACT: note_on channel=4 note=69 velocity=0 time=0
EXTRACT: note_on channel=9 note=42 velocity=46 time=0.057291666666666664
EXTRACT: note_on channel=9 note=54 velocity=44 time=0
EXTRACT: note_on channel=9 note=69 velocity=60 time=0
EXTRACT: note_on channel=9 note=70 velocity=78 time=0
EXTRACT: note_on channel=1 note=35 velocity=87 time=0
EXTRACT: note_on channel=3 note=66 velocity=95 time=0
EXTRACT: note_on channel=4 note=66 velocity=80 time=0
EXTRACT: note_on channel=7 note=71 velocity=87 time=0
EXTRACT: note_on channel=1 note=33 velocity=0 time=0.026041666666666664
EXTRACT: note_on channel=9 note=54 velocity=0 time=0.041666666666666664
EXTRACT: note_on channel=9 note=69 velocity=0 time=0.020833333333333332
EXTRACT: note_on channel=9 note=70 velocity=0 time=0.005208333333333333
EXTRACT: note_on channel=7 note=71 velocity=0 time=0.005208333333333333
EXTRACT: note_on channel=9 note=36 velocity=0 time=0.005208333333333333
EXTRACT: note_on channel=9 note=42 velocity=0 time=0.020833333333333332
EXTRACT: note_on channel=1 note=35 velocity=0 time=0.010416666666666666
EXTRACT: note_on channel=9 note=54 velocity=36 time=0.020833333333333332
EXTRACT: note_on channel=9 note=69 velocity=55 time=0
EXTRACT: note_on channel=9 note=70 velocity=74 time=0
EXTRACT: note_on channel=7 note=69 velocity=86 time=0
EXTRACT: note_on channel=9 note=54 velocity=0 time=0.05208333333333333
EXTRACT: note_on channel=9 note=69 velocity=0 time=0.03125
EXTRACT: note_on channel=7 note=69 velocity=0 time=0
EXTRACT: note_on channel=9 note=70 velocity=0 time=0.005208333333333333
EXTRACT: note_on channel=3 note=66 velocity=0 time=0.0625
EXTRACT: note_on channel=4 note=66 velocity=0 time=0
EXTRACT: note_on channel=9 note=36 velocity=82 time=0.005208333333333333
EXTRACT: note_on channel=9 note=39 velocity=82 time=0
EXTRACT: note_on channel=9 note=40 velocity=80 time=0
EXTRACT: note_on channel=9 note=42 velocity=78 time=0
EXTRACT: note_on channel=9 note=54 velocity=61 time=0
EXTRACT: note_on channel=9 note=69 velocity=50 time=0
EXTRACT: note_on channel=9 note=70 velocity=87 time=0
EXTRACT: note_on channel=1 note=35 velocity=93 time=0
EXTRACT: note_on channel=3 note=62 velocity=104 time=0
EXTRACT: note_on channel=4 note=62 velocity=89 time=0
EXTRACT: note_on channel=7 note=71 velocity=91 time=0
EXTRACT: note_on channel=9 note=69 velocity=0 time=0.08854166666666666
EXTRACT: note_on channel=3 note=62 velocity=0 time=0.005208333333333333
EXTRACT: note_on channel=4 note=62 velocity=0 time=0
EXTRACT: note_on channel=9 note=54 velocity=0 time=0.005208333333333333
EXTRACT: note_on channel=9 note=70 velocity=0 time=0
EXTRACT: note_on channel=9 note=39 velocity=0 time=0.005208333333333333
EXTRACT: note_on channel=9 note=40 velocity=0 time=0.005208333333333333
EXTRACT: note_on channel=7 note=71 velocity=0 time=0.03645833333333333
EXTRACT: note_on channel=9 note=42 velocity=0 time=0.005208333333333333
EXTRACT: note_on channel=1 note=35 velocity=0 time=0
EXTRACT: note_on channel=9 note=54 velocity=52 time=0.005208333333333333
EXTRACT: note_on channel=9 note=70 velocity=74 time=0
EXTRACT: note_on channel=1 note=33 velocity=74 time=0
EXTRACT: note_on channel=3 note=62 velocity=101 time=0
EXTRACT: note_on channel=4 note=62 velocity=86 time=0
EXTRACT: note_on channel=7 note=71 velocity=88 time=0
EXTRACT: note_on channel=9 note=54 velocity=0 time=0.09375
EXTRACT: note_on channel=9 note=70 velocity=0 time=0
EXTRACT: note_on channel=3 note=62 velocity=0 time=0
EXTRACT: note_on channel=4 note=62 velocity=0 time=0
EXTRACT: note_on channel=7 note=71 velocity=0 time=0.010416666666666666
EXTRACT: note_on channel=1 note=33 velocity=0 time=0.046875
EXTRACT: note_on channel=9 note=46 velocity=49 time=0.005208333333333333
EXTRACT: note_on channel=9 note=54 velocity=46 time=0
EXTRACT: note_on channel=9 note=70 velocity=58 time=0
EXTRACT: note_on channel=1 note=29 velocity=82 time=0
EXTRACT: note_on channel=3 note=62 velocity=95 time=0
EXTRACT: note_on channel=4 note=62 velocity=80 time=0
EXTRACT: note_on channel=7 note=74 velocity=94 time=0
EXTRACT: note_on channel=6 note=76 velocity=0 time=0.046875
EXTRACT: note_on channel=9 note=54 velocity=0 time=0.020833333333333332
EXTRACT: note_on channel=9 note=46 velocity=0 time=0.026041666666666664
EXTRACT: note_on channel=3 note=62 velocity=0 time=0
EXTRACT: note_on channel=4 note=62 velocity=0 time=0
EXTRACT: note_on channel=9 note=70 velocity=0 time=0.005208333333333333
EXTRACT: note_on channel=1 note=29 velocity=0 time=0.026041666666666664
EXTRACT: note_on channel=2 note=59 velocity=0 time=0.005208333333333333
EXTRACT: note_on channel=9 note=54 velocity=57 time=0.026041666666666664
EXTRACT: note_on channel=9 note=70 velocity=61 time=0
EXTRACT: note_on channel=1 note=30 velocity=80 time=0
EXTRACT: note_on channel=3 note=62 velocity=96 time=0
EXTRACT: note_on channel=4 note=62 velocity=81 time=0
EXTRACT: note_on channel=7 note=74 velocity=0 time=0.005208333333333333
EXTRACT: note_on channel=2 note=64 velocity=0 time=0.010416666666666666
EXTRACT: note_on channel=9 note=36 velocity=0 time=0.005208333333333333
EXTRACT: note_on channel=2 note=55 velocity=0 time=0.010416666666666666
EXTRACT: note_on channel=9 note=54 velocity=0 time=0.015625
EXTRACT: note_on channel=9 note=70 velocity=0 time=0.041666666666666664
EXTRACT: note_on channel=3 note=62 velocity=0 time=0.015625
EXTRACT: note_on channel=4 note=62 velocity=0 time=0
EXTRACT: note_on channel=1 note=30 velocity=0 time=0.005208333333333333
EXTRACT: note_on channel=9 note=36 velocity=77 time=0.046875
EXTRACT: note_on channel=9 note=42 velocity=88 time=0
EXTRACT: note_on channel=9 note=54 velocity=54 time=0
EXTRACT: note_on channel=9 note=70 velocity=87 time=0
EXTRACT: note_on channel=1 note=35 velocity=103 time=0
EXTRACT: note_on channel=2 note=54 velocity=87 time=0
EXTRACT: note_on channel=2 note=59 velocity=81 time=0
EXTRACT: note_on channel=2 note=62 velocity=83 time=0
EXTRACT: note_on channel=3 note=59 velocity=91 time=0
EXTRACT: note_on channel=4 note=59 velocity=76 time=0
EXTRACT: note_on channel=5 note=57 velocity=63 time=0
EXTRACT: note_on channel=5 note=59 velocity=67 time=0
EXTRACT: note_on channel=5 note=62 velocity=66 time=0
EXTRACT: note_on channel=9 note=70 velocity=0 time=0.08333333333333333
EXTRACT: note_on channel=9 note=54 velocity=0 time=0.010416666666666666
EXTRACT: note_on channel=9 note=42 velocity=0 time=0.010416666666666666
EXTRACT: note_on channel=9 note=54 velocity=38 time=0.05208333333333333
EXTRACT: note_on channel=9 note=70 velocity=63 time=0
EXTRACT: note_on channel=5 note=59 velocity=0 time=0.046875
EXTRACT: note_on channel=5 note=62 velocity=0 time=0
EXTRACT: note_on channel=9 note=54 velocity=0 time=0.03125
EXTRACT: note_on channel=5 note=57 velocity=0 time=0.020833333333333332
EXTRACT: note_on channel=9 note=70 velocity=0 time=0.005208333333333333
EXTRACT: note_on channel=3 note=59 velocity=0 time=0.046875
EXTRACT: note_on channel=4 note=59 velocity=0 time=0
EXTRACT: note_on channel=9 note=42 velocity=46 time=0.005208333333333333
EXTRACT: note_on channel=9 note=54 velocity=44 time=0
EXTRACT: note_on channel=9 note=69 velocity=68 time=0
EXTRACT: note_on channel=9 note=70 velocity=46 time=0
EXTRACT: note_on channel=3 note=66 velocity=113 time=0
EXTRACT: note_on channel=4 note=66 velocity=98 time=0
EXTRACT: note_on channel=7 note=74 velocity=95 time=0
EXTRACT: note_on channel=9 note=70 velocity=0 time=0.046875
EXTRACT: note_on channel=9 note=69 velocity=0 time=0.010416666666666666
EXTRACT: note_on channel=9 note=54 velocity=0 time=0.010416666666666666
EXTRACT: note_on channel=9 note=42 velocity=0 time=0.015625
EXTRACT: note_on channel=3 note=66 velocity=0 time=0
EXTRACT: note_on channel=4 note=66 velocity=0 time=0
EXTRACT: note_on channel=7 note=74 velocity=0 time=0
EXTRACT: note_on channel=9 note=36 velocity=0 time=0.041666666666666664
EXTRACT: note_on channel=1 note=35 velocity=0 time=0
EXTRACT: note_on channel=9 note=54 velocity=36 time=0.03125
EXTRACT: note_on channel=9 note=70 velocity=61 time=0
EXTRACT: note_on channel=3 note=66 velocity=94 time=0
EXTRACT: note_on channel=4 note=66 velocity=79 time=0
EXTRACT: note_on channel=9 note=54 velocity=0 time=0.05208333333333333
EXTRACT: note_on channel=3 note=66 velocity=0 time=0.026041666666666664
EXTRACT: note_on channel=4 note=66 velocity=0 time=0
EXTRACT: note_on channel=9 note=70 velocity=0 time=0.015625
EXTRACT: note_on channel=9 note=36 velocity=81 time=0.0625
EXTRACT: note_on channel=9 note=39 velocity=84 time=0
EXTRACT: note_on channel=9 note=40 velocity=82 time=0
EXTRACT: note_on channel=9 note=42 velocity=91 time=0
EXTRACT: note_on channel=9 note=54 velocity=61 time=0
EXTRACT: note_on channel=9 note=70 velocity=91 time=0
EXTRACT: note_on channel=3 note=66 velocity=101 time=0
EXTRACT: note_on channel=4 note=66 velocity=86 time=0
EXTRACT: note_on channel=9 note=40 velocity=0 time=0.06770833333333333
EXTRACT: note_on channel=9 note=70 velocity=0 time=0.020833333333333332
EXTRACT: note_on channel=9 note=39 velocity=0 time=0.010416666666666666
EXTRACT: note_on channel=9 note=54 velocity=0 time=0
EXTRACT: note_on channel=9 note=42 velocity=0 time=0.03645833333333333
EXTRACT: note_on channel=9 note=54 velocity=52 time=0.020833333333333332
EXTRACT: note_on channel=9 note=70 velocity=63 time=0
EXTRACT: note_on channel=7 note=71 velocity=93 time=0
EXTRACT: note_on channel=9 note=70 velocity=0 time=0.08854166666666666
EXTRACT: note_on channel=9 note=54 velocity=0 time=0.005208333333333333
EXTRACT: note_on channel=3 note=66 velocity=0 time=0.005208333333333333
EXTRACT: note_on channel=4 note=66 velocity=0 time=0
EXTRACT: note_on channel=9 note=42 velocity=46 time=0.057291666666666664
EXTRACT: note_on channel=9 note=54 velocity=46 time=0
EXTRACT: note_on channel=9 note=70 velocity=80 time=0
EXTRACT: note_on channel=3 note=66 velocity=98 time=0
EXTRACT: note_on channel=4 note=66 velocity=83 time=0
EXTRACT: note_on channel=9 note=54 velocity=0 time=0.06770833333333333
EXTRACT: note_on channel=9 note=70 velocity=0 time=0.010416666666666666
EXTRACT: note_on channel=3 note=66 velocity=0 time=0
EXTRACT: note_on channel=4 note=66 velocity=0 time=0
EXTRACT: note_on channel=7 note=71 velocity=0 time=0.020833333333333332
EXTRACT: note_on channel=9 note=42 velocity=0 time=0.015625
EXTRACT: note_on channel=9 note=36 velocity=0 time=0.010416666666666666
EXTRACT: note_on channel=2 note=62 velocity=0 time=0.020833333333333332
EXTRACT: note_on channel=9 note=54 velocity=57 time=0.010416666666666666
EXTRACT: note_on channel=9 note=70 velocity=62 time=0
EXTRACT: note_on channel=3 note=66 velocity=104 time=0
EXTRACT: note_on channel=4 note=66 velocity=89 time=0
EXTRACT: note_on channel=2 note=59 velocity=0 time=0.015625
EXTRACT: note_on channel=9 note=54 velocity=0 time=0.03125
EXTRACT: note_on channel=2 note=54 velocity=0 time=0.020833333333333332
EXTRACT: note_on channel=9 note=70 velocity=0 time=0.026041666666666664
EXTRACT: note_on channel=9 note=36 velocity=78 time=0.0625
EXTRACT: note_on channel=9 note=42 velocity=80 time=0
EXTRACT: note_on channel=9 note=54 velocity=54 time=0
EXTRACT: note_on channel=9 note=70 velocity=88 time=0
EXTRACT: note_on channel=2 note=57 velocity=84 time=0
EXTRACT: note_on channel=2 note=61 velocity=81 time=0
EXTRACT: note_on channel=2 note=64 velocity=83 time=0
EXTRACT: note_on channel=7 note=69 velocity=95 time=0
EXTRACT: note_on channel=9 note=54 velocity=0 time=0.09375
EXTRACT: note_on channel=9 note=70 velocity=0 time=0.005208333333333333
EXTRACT: note_on channel=3 note=66 velocity=0 time=0.005208333333333333
EXTRACT: note_on channel=4 note=66 velocity=0 time=0
EXTRACT: note_on channel=7 note=69 velocity=0 time=0.005208333333333333
EXTRACT: note_on channel=9 note=42 velocity=0 time=0.020833333333333332
EXTRACT: note_on channel=9 note=54 velocity=38 time=0.026041666666666664
EXTRACT: note_on channel=9 note=70 velocity=66 time=0
EXTRACT: note_on channel=3 note=66 velocity=97 time=0
EXTRACT: note_on channel=4 note=66 velocity=82 time=0
EXTRACT: note_on channel=7 note=71 velocity=82 time=0
EXTRACT: note_on channel=9 note=70 velocity=0 time=0.07291666666666666
EXTRACT: note_on channel=9 note=54 velocity=0 time=0.005208333333333333
EXTRACT: note_on channel=7 note=71 velocity=0 time=0.005208333333333333
EXTRACT: note_on channel=3 note=66 velocity=0 time=0.05208333333333333
EXTRACT: note_on channel=4 note=66 velocity=0 time=0
EXTRACT: note_on channel=9 note=42 velocity=50 time=0.020833333333333332
EXTRACT: note_on channel=9 note=54 velocity=44 time=0
EXTRACT: note_on channel=9 note=69 velocity=61 time=0
EXTRACT: note_on channel=9 note=70 velocity=61 time=0
EXTRACT: note_on channel=3 note=69 velocity=107 time=0
EXTRACT: note_on channel=4 note=69 velocity=92 time=0
EXTRACT: note_on channel=6 note=79 velocity=105 time=0
EXTRACT: note_on channel=7 note=71 velocity=87 time=0
EXTRACT: note_on channel=9 note=54 velocity=0 time=0.06770833333333333
EXTRACT: note_on channel=9 note=70 velocity=0 time=0
EXTRACT: note_on channel=9 note=69 velocity=0 time=0.005208333333333333
EXTRACT: note_on channel=9 note=42 velocity=0 time=0.026041666666666664
EXTRACT: note_on channel=6 note=79 velocity=0 time=0
EXTRACT: note_on channel=7 note=71 velocity=0 time=0
EXTRACT: note_on channel=9 note=36 velocity=0 time=0.020833333333333332
EXTRACT: note_on channel=9 note=54 velocity=36 time=0.03645833333333333
EXTRACT: note_on channel=9 note=69 velocity=48 time=0
EXTRACT: note_on channel=9 note=70 velocity=58 time=0
EXTRACT: note_on channel=7 note=69 velocity=86 time=0
EXTRACT: note_on channel=9 note=54 velocity=0 time=0.05208333333333333
EXTRACT: note_on channel=9 note=69 velocity=0 time=0.015625
EXTRACT: note_on channel=3 note=69 velocity=0 time=0.005208333333333333
EXTRACT: note_on channel=4 note=69 velocity=0 time=0
EXTRACT: note_on channel=7 note=69 velocity=0 time=0.010416666666666666
EXTRACT: note_on channel=9 note=70 velocity=0 time=0.015625
EXTRACT: note_on channel=9 note=36 velocity=82 time=0.057291666666666664
EXTRACT: note_on channel=9 note=39 velocity=82 time=0
EXTRACT: note_on channel=9 note=40 velocity=80 time=0
EXTRACT: note_on channel=9 note=42 velocity=84 time=0
EXTRACT: note_on channel=9 note=54 velocity=61 time=0
EXTRACT: note_on channel=9 note=69 velocity=52 time=0
EXTRACT: note_on channel=9 note=70 velocity=89 time=0
EXTRACT: note_on channel=1 note=42 velocity=97 time=0
EXTRACT: note_on channel=3 note=69 velocity=98 time=0
EXTRACT: note_on channel=4 note=69 velocity=83 time=0
EXTRACT: note_on channel=6 note=78 velocity=98 time=0
EXTRACT: note_on channel=7 note=71 velocity=88 time=0
EXTRACT: note_on channel=9 note=69 velocity=0 time=0.08333333333333333
EXTRACT: note_on channel=9 note=70 velocity=0 time=0.010416666666666666
EXTRACT: note_on channel=3 note=69 velocity=0 time=0
EXTRACT: note_on channel=4 note=69 velocity=0 time=0
EXTRACT: note_on channel=9 note=54 velocity=0 time=0.005208333333333333
EXTRACT: note_on channel=9 note=39 velocity=0 time=0.005208333333333333
EXTRACT: note_on channel=7 note=71 velocity=0 time=0
EXTRACT: note_on channel=9 note=40 velocity=0 time=0.005208333333333333
EXTRACT: note_on channel=9 note=42 velocity=0 time=0.041666666666666664
EXTRACT: note_on channel=9 note=54 velocity=52 time=0.005208333333333333
EXTRACT: note_on channel=9 note=70 velocity=71 time=0
EXTRACT: note_on channel=3 note=69 velocity=101 time=0
EXTRACT: note_on channel=4 note=69 velocity=86 time=0
EXTRACT: note_on channel=3 note=69 velocity=0 time=0.08854166666666666
EXTRACT: note_on channel=4 note=69 velocity=0 time=0
EXTRACT: note_on channel=9 note=54 velocity=0 time=0.005208333333333333
EXTRACT: note_on channel=9 note=70 velocity=0 time=0.005208333333333333
EXTRACT: note_on channel=9 note=42 velocity=52 time=0.057291666666666664
EXTRACT: note_on channel=9 note=54 velocity=46 time=0
EXTRACT: note_on channel=9 note=70 velocity=71 time=0
EXTRACT: note_on channel=3 note=71 velocity=107 time=0
EXTRACT: note_on channel=4 note=71 velocity=92 time=0
EXTRACT: note_on channel=5 note=52 velocity=59 time=0
EXTRACT: note_on channel=5 note=57 velocity=58 time=0
EXTRACT: note_on channel=5 note=59 velocity=67 time=0
EXTRACT: note_on channel=5 note=62 velocity=63 time=0
EXTRACT: note_on channel=7 note=78 velocity=94 time=0
EXTRACT: note_on channel=9 note=54 velocity=0 time=0.06770833333333333
EXTRACT: note_on channel=9 note=70 velocity=0 time=0.015625
EXTRACT: note_on channel=9 note=42 velocity=0 time=0.015625
EXTRACT: note_on channel=9 note=36 velocity=0 time=0.03645833333333333
EXTRACT: note_on channel=7 note=78 velocity=0 time=0.020833333333333332
EXTRACT: note_on channel=9 note=42 velocity=40 time=0
EXTRACT: note_on channel=9 note=54 velocity=57 time=0
EXTRACT: note_on channel=9 note=70 velocity=61 time=0
EXTRACT: note_on channel=1 note=42 velocity=0 time=0.041666666666666664
EXTRACT: note_on channel=9 note=54 velocity=0 time=0.005208333333333333
EXTRACT: note_on channel=2 note=61 velocity=0 time=0.03125
EXTRACT: note_on channel=5 note=62 velocity=0 time=0.005208333333333333
EXTRACT: note_on channel=5 note=59 velocity=0 time=0.005208333333333333
EXTRACT: note_on channel=2 note=64 velocity=0 time=0.005208333333333333
EXTRACT: note_on channel=2 note=57 velocity=0 time=0.005208333333333333
EXTRACT: note_on channel=9 note=42 velocity=0 time=0
EXTRACT: note_on channel=9 note=70 velocity=0 time=0
EXTRACT: note_on channel=5 note=57 velocity=0 time=0.020833333333333332
EXTRACT: note_on channel=3 note=71 velocity=0 time=0.005208333333333333
EXTRACT: note_on channel=4 note=71 velocity=0 time=0
EXTRACT: note_on channel=5 note=52 velocity=0 time=0
EXTRACT: note_on channel=9 note=36 velocity=83 time=0.03125
EXTRACT: note_on channel=9 note=42 velocity=77 time=0
EXTRACT: note_on channel=9 note=54 velocity=54 time=0
EXTRACT: note_on channel=9 note=70 velocity=90 time=0
EXTRACT: note_on channel=1 note=35 velocity=94 time=0
EXTRACT: note_on channel=2 note=54 velocity=75 time=0
EXTRACT: note_on channel=2 note=59 velocity=81 time=0
EXTRACT: note_on channel=2 note=62 velocity=84 time=0
EXTRACT: note_on channel=3 note=66 velocity=110 time=0
EXTRACT: note_on channel=4 note=66 velocity=95 time=0
EXTRACT: note_on channel=9 note=54 velocity=0 time=0.09375
EXTRACT: note_on channel=9 note=70 velocity=0 time=0.005208333333333333
EXTRACT: note_on channel=9 note=54 velocity=38 time=0.057291666666666664
EXTRACT: note_on channel=9 note=70 velocity=70 time=0
EXTRACT: note_on channel=9 note=42 velocity=0 time=0.015625
EXTRACT: note_on channel=3 note=66 velocity=0 time=0.015625
EXTRACT: note_on channel=4 note=66 velocity=0 time=0
EXTRACT: note_on channel=9 note=70 velocity=0 time=0.015625
EXTRACT: note_on channel=9 note=54 velocity=0 time=0.03125
EXTRACT: note_on channel=6 note=78 velocity=0 time=0.06770833333333333
EXTRACT: note_on channel=9 note=42 velocity=54 time=0.010416666666666666
EXTRACT: note_on channel=9 note=54 velocity=44 time=0
EXTRACT: note_on channel=9 note=69 velocity=71 time=0
EXTRACT: note_on channel=9 note=70 velocity=71 time=0
EXTRACT: note_on channel=3 note=66 velocity=103 time=0
EXTRACT: note_on channel=4 note=66 velocity=88 time=0
EXTRACT: note_on channel=7 note=74 velocity=95 time=0
EXTRACT: note_on channel=9 note=54 velocity=0 time=0.06770833333333333
EXTRACT: note_on channel=9 note=69 velocity=0 time=0
EXTRACT: note_on channel=9 note=70 velocity=0 time=0.015625
EXTRACT: note_on channel=7 note=74 velocity=0 time=0
EXTRACT: note_on channel=1 note=35 velocity=0 time=0.005208333333333333
EXTRACT: note_on channel=9 note=36 velocity=0 time=0.015625
EXTRACT: note_on channel=9 note=42 velocity=0 time=0.005208333333333333
EXTRACT: note_on channel=9 note=54 velocity=36 time=0.046875
EXTRACT: note_on channel=9 note=70 velocity=56 time=0
EXTRACT: note_on channel=3 note=66 velocity=0 time=0.046875
EXTRACT: note_on channel=4 note=66 velocity=0 time=0
EXTRACT: note_on channel=9 note=54 velocity=0 time=0.005208333333333333
EXTRACT: note_on channel=9 note=70 velocity=0 time=0.046875
EXTRACT: note_on channel=9 note=36 velocity=84 time=0.057291666666666664
EXTRACT: note_on channel=9 note=39 velocity=84 time=0
EXTRACT: note_on channel=9 note=40 velocity=82 time=0
EXTRACT: note_on channel=9 note=42 velocity=79 time=0
EXTRACT: note_on channel=9 note=54 velocity=61 time=0
EXTRACT: note_on channel=9 note=70 velocity=87 time=0
EXTRACT: note_on channel=3 note=66 velocity=105 time=0
EXTRACT: note_on channel=4 note=66 velocity=90 time=0
EXTRACT: note_on channel=9 note=40 velocity=0 time=0.06770833333333333
EXTRACT: note_on channel=9 note=70 velocity=0 time=0.026041666666666664
EXTRACT: note_on channel=9 note=39 velocity=0 time=0.005208333333333333
EXTRACT: note_on channel=9 note=54 velocity=0 time=0
EXTRACT: note_on channel=9 note=54 velocity=52 time=0.057291666666666664
EXTRACT: note_on channel=9 note=70 velocity=74 time=0
EXTRACT: note_on channel=7 note=71 velocity=93 time=0
EXTRACT: note_on channel=9 note=42 velocity=0 time=0.020833333333333332
EXTRACT: note_on channel=9 note=54 velocity=0 time=0.07291666666666666
EXTRACT: note_on channel=3 note=66 velocity=0 time=0.005208333333333333
EXTRACT: note_on channel=4 note=66 velocity=0 time=0
EXTRACT: note_on channel=9 note=70 velocity=0 time=0
EXTRACT: note_on channel=9 note=42 velocity=54 time=0.057291666666666664
EXTRACT: note_on channel=9 note=54 velocity=46 time=0
EXTRACT: note_on channel=9 note=69 velocity=64 time=0
EXTRACT: note_on channel=9 note=70 velocity=72 time=0
EXTRACT: note_on channel=1 note=33 velocity=98 time=0
EXTRACT: note_on channel=3 note=66 velocity=93 time=0
EXTRACT: note_on channel=4 note=66 velocity=78 time=0
EXTRACT: note_on channel=9 note=69 velocity=0 time=0.0625
EXTRACT: note_on channel=9 note=54 velocity=0 time=0.005208333333333333
EXTRACT: note_on channel=3 note=66 velocity=0 time=0.010416666666666666
EXTRACT: note_on channel=4 note=66 velocity=0 time=0
EXTRACT: note_on channel=9 note=70 velocity=0 time=0.005208333333333333
EXTRACT: note_on channel=7 note=71 velocity=0 time=0.015625
EXTRACT: note_on channel=9 note=36 velocity=0 time=0.010416666666666666
EXTRACT: note_on channel=9 note=42 velocity=0 time=0.005208333333333333
EXTRACT: note_on channel=9 note=54 velocity=57 time=0.041666666666666664
EXTRACT: note_on channel=9 note=70 velocity=66 time=0
EXTRACT: note_on channel=3 note=66 velocity=102 time=0
EXTRACT: note_on channel=4 note=66 velocity=87 time=0
EXTRACT: note_on channel=9 note=54 velocity=0 time=0.046875
EXTRACT: note_on channel=9 note=70 velocity=0 time=0.05208333333333333
EXTRACT: note_on channel=1 note=33 velocity=0 time=0.05208333333333333
EXTRACT: note_on channel=9 note=36 velocity=81 time=0.005208333333333333
EXTRACT: note_on channel=9 note=42 velocity=87 time=0
EXTRACT: note_on channel=9 note=54 velocity=54 time=0
EXTRACT: note_on channel=9 note=70 velocity=93 time=0
EXTRACT: note_on channel=1 note=35 velocity=98 time=0
EXTRACT: note_on channel=7 note=69 velocity=95 time=0
EXTRACT: note_on channel=3 note=66 velocity=0 time=0.046875
EXTRACT: note_on channel=4 note=66 velocity=0 time=0
EXTRACT: note_on channel=9 note=54 velocity=0 time=0.046875
EXTRACT: note_on channel=9 note=70 velocity=0 time=0.015625
EXTRACT: note_on channel=7 note=69 velocity=0 time=0
EXTRACT: note_on channel=9 note=42 velocity=0 time=0.041666666666666664
EXTRACT: note_on channel=9 note=54 velocity=38 time=0.005208333333333333
EXTRACT: note_on channel=9 note=70 velocity=59 time=0
EXTRACT: note_on channel=3 note=66 velocity=104 time=0
EXTRACT: note_on channel=4 note=66 velocity=89 time=0
EXTRACT: note_on channel=7 note=71 velocity=82 time=0
EXTRACT: note_on channel=9 note=54 velocity=0 time=0.078125
EXTRACT: note_on channel=7 note=71 velocity=0 time=0.005208333333333333
EXTRACT: note_on channel=9 note=70 velocity=0 time=0.010416666666666666
EXTRACT: note_on channel=3 note=66 velocity=0 time=0.026041666666666664
EXTRACT: note_on channel=4 note=66 velocity=0 time=0
EXTRACT: note_on channel=1 note=35 velocity=0 time=0.03125
EXTRACT: note_on channel=9 note=42 velocity=46 time=0.005208333333333333
EXTRACT: note_on channel=9 note=54 velocity=44 time=0
EXTRACT: note_on channel=9 note=69 velocity=60 time=0
EXTRACT: note_on channel=9 note=70 velocity=78 time=0
EXTRACT: note_on channel=3 note=69 velocity=102 time=0
EXTRACT: note_on channel=4 note=69 velocity=87 time=0
EXTRACT: note_on channel=6 note=76 velocity=95 time=0
EXTRACT: note_on channel=7 note=71 velocity=87 time=0
EXTRACT: note_on channel=9 note=54 velocity=0 time=0.06770833333333333
EXTRACT: note_on channel=9 note=69 velocity=0 time=0.020833333333333332
EXTRACT: note_on channel=9 note=70 velocity=0 time=0.005208333333333333
EXTRACT: note_on channel=6 note=76 velocity=0 time=0
EXTRACT: note_on channel=7 note=71 velocity=0 time=0.005208333333333333
EXTRACT: note_on channel=9 note=36 velocity=0 time=0.005208333333333333
EXTRACT: note_on channel=2 note=54 velocity=0 time=0.020833333333333332
EXTRACT: note_on channel=9 note=42 velocity=0 time=0
EXTRACT: note_on channel=2 note=62 velocity=0 time=0.020833333333333332
EXTRACT: note_on channel=2 note=59 velocity=0 time=0.005208333333333333
EXTRACT: note_on channel=9 note=54 velocity=36 time=0.005208333333333333
EXTRACT: note_on channel=9 note=69 velocity=55 time=0
EXTRACT: note_on channel=9 note=70 velocity=74 time=0
EXTRACT: note_on channel=7 note=69 velocity=86 time=0
EXTRACT: note_on channel=9 note=54 velocity=0 time=0.05208333333333333
EXTRACT: note_on channel=3 note=69 velocity=0 time=0.010416666666666666
EXTRACT: note_on channel=4 note=69 velocity=0 time=0
EXTRACT: note_on channel=9 note=69 velocity=0 time=0.020833333333333332
EXTRACT: note_on channel=7 note=69 velocity=0 time=0
EXTRACT: note_on channel=9 note=70 velocity=0 time=0.005208333333333333
EXTRACT: note_on channel=9 note=36 velocity=82 time=0.06770833333333333
EXTRACT: note_on channel=9 note=39 velocity=82 time=0
EXTRACT: note_on channel=9 note=40 velocity=80 time=0
EXTRACT: note_on channel=9 note=42 velocity=78 time=0
EXTRACT: note_on channel=9 note=54 velocity=61 time=0
EXTRACT: note_on channel=9 note=69 velocity=50 time=0
EXTRACT: note_on channel=9 note=70 velocity=87 time=0
EXTRACT: note_on channel=3 note=69 velocity=100 time=0
EXTRACT: note_on channel=4 note=69 velocity=85 time=0
EXTRACT: note_on channel=6 note=78 velocity=90 time=0
EXTRACT: note_on channel=7 note=71 velocity=88 time=0
EXTRACT: note_on channel=3 note=69 velocity=0 time=0.08333333333333333
EXTRACT: note_on channel=4 note=69 velocity=0 time=0
EXTRACT: note_on channel=6 note=78 velocity=0 time=0
EXTRACT: note_on channel=9 note=69 velocity=0 time=0.005208333333333333
EXTRACT: note_on channel=9 note=54 velocity=0 time=0.010416666666666666
EXTRACT: note_on channel=9 note=70 velocity=0 time=0
EXTRACT: note_on channel=9 note=39 velocity=0 time=0.005208333333333333
EXTRACT: note_on channel=7 note=71 velocity=0 time=0
EXTRACT: note_on channel=9 note=40 velocity=0 time=0.005208333333333333
EXTRACT: note_on channel=9 note=42 velocity=0 time=0.041666666666666664
EXTRACT: note_on channel=9 note=54 velocity=52 time=0.005208333333333333
EXTRACT: note_on channel=9 note=70 velocity=74 time=0
EXTRACT: note_on channel=3 note=69 velocity=95 time=0
EXTRACT: note_on channel=4 note=69 velocity=80 time=0
EXTRACT: note_on channel=3 note=69 velocity=0 time=0.08333333333333333
EXTRACT: note_on channel=4 note=69 velocity=0 time=0
EXTRACT: note_on channel=9 note=54 velocity=0 time=0.010416666666666666
EXTRACT: note_on channel=9 note=70 velocity=0 time=0
EXTRACT: note_on channel=9 note=46 velocity=49 time=0.0625
EXTRACT: note_on channel=9 note=54 velocity=46 time=0
EXTRACT: note_on channel=9 note=70 velocity=58 time=0
EXTRACT: note_on channel=1 note=33 velocity=103 time=0
EXTRACT: note_on channel=3 note=69 velocity=103 time=0
EXTRACT: note_on channel=4 note=69 velocity=88 time=0
EXTRACT: note_on channel=6 note=81 velocity=105 time=0
EXTRACT: note_on channel=7 note=78 velocity=94 time=0
EXTRACT: note_on channel=9 note=54 velocity=0 time=0.06770833333333333
EXTRACT: note_on channel=9 note=46 velocity=0 time=0.026041666666666664
EXTRACT: note_on channel=9 note=70 velocity=0 time=0.005208333333333333
EXTRACT: note_on channel=7 note=78 velocity=0 time=0.057291666666666664
EXTRACT: note_on channel=9 note=54 velocity=57 time=0
EXTRACT: note_on channel=9 note=70 velocity=61 time=0
EXTRACT: note_on channel=1 note=34 velocity=85 time=0
EXTRACT: note_on channel=9 note=36 velocity=0 time=0.020833333333333332
EXTRACT: note_on channel=1 note=33 velocity=0 time=0.015625
EXTRACT: note_on channel=9 note=54 velocity=0 time=0.010416666666666666
EXTRACT: note_on channel=9 note=70 velocity=0 time=0.041666666666666664
EXTRACT: note_on channel=3 note=69 velocity=0 time=0.03645833333333333
EXTRACT: note_on channel=4 note=69 velocity=0 time=0
EXTRACT: note_on channel=1 note=34 velocity=0 time=0.010416666666666666
EXTRACT: note_on channel=9 note=36 velocity=77 time=0.020833333333333332
EXTRACT: note_on channel=9 note=42 velocity=88 time=0
EXTRACT: note_on channel=9 note=54 velocity=54 time=0
EXTRACT: note_on channel=9 note=70 velocity=87 time=0
EXTRACT: note_on channel=1 note=35 velocity=102 time=0
EXTRACT: note_on channel=2 note=57 velocity=83 time=0
EXTRACT: note_on channel=2 note=62 velocity=81 time=0
EXTRACT: note_on channel=2 note=66 velocity=78 time=0
EXTRACT: note_on channel=3 note=66 velocity=109 time=0
EXTRACT: note_on channel=4 note=66 velocity=94 time=0
EXTRACT: note_on channel=5 note=57 velocity=63 time=0
EXTRACT: note_on channel=5 note=59 velocity=67 time=0
EXTRACT: note_on channel=5 note=62 velocity=66 time=0
EXTRACT: note_on channel=9 note=70 velocity=0 time=0.08333333333333333
EXTRACT: note_on channel=9 note=54 velocity=0 time=0.010416666666666666
EXTRACT: note_on channel=9 note=42 velocity=0 time=0.010416666666666666
EXTRACT: note_on channel=9 note=54 velocity=38 time=0.05208333333333333
EXTRACT: note_on channel=9 note=70 velocity=63 time=0
EXTRACT: note_on channel=5 note=59 velocity=0 time=0.046875
EXTRACT: note_on channel=5 note=62 velocity=0 time=0
EXTRACT: note_on channel=9 note=54 velocity=0 time=0.03125
EXTRACT: note_on channel=3 note=66 velocity=0 time=0.015625
EXTRACT: note_on channel=4 note=66 velocity=0 time=0
EXTRACT: note_on channel=5 note=57 velocity=0 time=0.005208333333333333
EXTRACT: note_on channel=9 note=70 velocity=0 time=0.005208333333333333
EXTRACT: note_on channel=9 note=42 velocity=46 time=0.05208333333333333
EXTRACT: note_on channel=9 note=54 velocity=44 time=0
EXTRACT: note_on channel=9 note=69 velocity=68 time=0
EXTRACT: note_on channel=9 note=70 velocity=46 time=0
EXTRACT: note_on channel=3 note=69 velocity=102 time=0
EXTRACT: note_on channel=4 note=69 velocity=87 time=0
EXTRACT: note_on channel=7 note=74 velocity=95 time=0
EXTRACT: note_on channel=1 note=35 velocity=0 time=0.026041666666666664
EXTRACT: note_on channel=9 note=70 velocity=0 time=0.020833333333333332
EXTRACT: note_on channel=9 note=69 velocity=0 time=0.010416666666666666
EXTRACT: note_on channel=9 note=54 velocity=0 time=0.010416666666666666
EXTRACT: note_on channel=9 note=42 velocity=0 time=0.015625
EXTRACT: note_on channel=7 note=74 velocity=0 time=0
EXTRACT: note_on channel=9 note=36 velocity=0 time=0.041666666666666664
EXTRACT: note_on channel=9 note=54 velocity=36 time=0.03125
EXTRACT: note_on channel=9 note=70 velocity=61 time=0
EXTRACT: note_on channel=9 note=54 velocity=0 time=0.05208333333333333
EXTRACT: note_on channel=9 note=70 velocity=0 time=0.041666666666666664
EXTRACT: note_on channel=3 note=69 velocity=0 time=0.057291666666666664
EXTRACT: note_on channel=4 note=69 velocity=0 time=0
EXTRACT: note_on channel=9 note=36 velocity=81 time=0.005208333333333333
EXTRACT: note_on channel=9 note=39 velocity=84 time=0
EXTRACT: note_on channel=9 note=40 velocity=82 time=0
EXTRACT: note_on channel=9 note=42 velocity=91 time=0
EXTRACT: note_on channel=9 note=54 velocity=61 time=0
EXTRACT: note_on channel=9 note=70 velocity=91 time=0
EXTRACT: note_on channel=3 note=66 velocity=105 time=0
EXTRACT: note_on channel=4 note=66 velocity=90 time=0
EXTRACT: note_on channel=9 note=40 velocity=0 time=0.06770833333333333
EXTRACT: note_on channel=9 note=70 velocity=0 time=0.020833333333333332
EXTRACT: note_on channel=9 note=39 velocity=0 time=0.010416666666666666
EXTRACT: note_on channel=9 note=54 velocity=0 time=0
EXTRACT: note_on channel=9 note=42 velocity=0 time=0.03645833333333333
EXTRACT: note_on channel=9 note=54 velocity=52 time=0.020833333333333332
EXTRACT: note_on channel=9 note=70 velocity=63 time=0
EXTRACT: note_on channel=7 note=71 velocity=93 time=0
EXTRACT: note_on channel=9 note=70 velocity=0 time=0.08854166666666666
EXTRACT: note_on channel=9 note=54 velocity=0 time=0.005208333333333333
EXTRACT: note_on channel=3 note=66 velocity=0 time=0.03125
EXTRACT: note_on channel=4 note=66 velocity=0 time=0
EXTRACT: note_on channel=9 note=42 velocity=46 time=0.03125
EXTRACT: note_on channel=9 note=54 velocity=46 time=0
EXTRACT: note_on channel=9 note=70 velocity=80 time=0
EXTRACT: note_on channel=3 note=69 velocity=100 time=0
EXTRACT: note_on channel=4 note=69 velocity=85 time=0
EXTRACT: note_on channel=9 note=54 velocity=0 time=0.06770833333333333
EXTRACT: note_on channel=9 note=70 velocity=0 time=0.010416666666666666
EXTRACT: note_on channel=3 note=69 velocity=0 time=0.015625
EXTRACT: note_on channel=4 note=69 velocity=0 time=0
EXTRACT: note_on channel=7 note=71 velocity=0 time=0.005208333333333333
EXTRACT: note_on channel=9 note=42 velocity=0 time=0.015625
EXTRACT: note_on channel=9 note=36 velocity=0 time=0.010416666666666666
EXTRACT: note_on channel=9 note=54 velocity=57 time=0.03125
EXTRACT: note_on channel=9 note=70 velocity=62 time=0
EXTRACT: note_on channel=3 note=71 velocity=107 time=0
EXTRACT: note_on channel=4 note=71 velocity=92 time=0
EXTRACT: note_on channel=9 note=54 velocity=0 time=0.046875
EXTRACT: note_on channel=9 note=70 velocity=0 time=0.046875
EXTRACT: note_on channel=9 note=36 velocity=78 time=0.0625
EXTRACT: note_on channel=9 note=42 velocity=80 time=0
EXTRACT: note_on channel=9 note=54 velocity=54 time=0
EXTRACT: note_on channel=9 note=70 velocity=88 time=0
EXTRACT: note_on channel=7 note=69 velocity=95 time=0
EXTRACT: note_on channel=9 note=54 velocity=0 time=0.09375
EXTRACT: note_on channel=9 note=70 velocity=0 time=0.005208333333333333
EXTRACT: note_on channel=6 note=81 velocity=0 time=0.010416666666666666
EXTRACT: note_on channel=7 note=69 velocity=0 time=0
EXTRACT: note_on channel=9 note=42 velocity=0 time=0.020833333333333332
EXTRACT: note_on channel=9 note=54 velocity=38 time=0.026041666666666664
EXTRACT: note_on channel=9 note=70 velocity=66 time=0
EXTRACT: note_on channel=7 note=71 velocity=82 time=0
EXTRACT: note_on channel=9 note=70 velocity=0 time=0.07291666666666666
EXTRACT: note_on channel=9 note=54 velocity=0 time=0.005208333333333333
EXTRACT: note_on channel=7 note=71 velocity=0 time=0.005208333333333333
EXTRACT: note_on channel=3 note=71 velocity=0 time=0.06770833333333333
EXTRACT: note_on channel=4 note=71 velocity=0 time=0
EXTRACT: note_on channel=9 note=42 velocity=50 time=0.005208333333333333
EXTRACT: note_on channel=9 note=54 velocity=44 time=0
EXTRACT: note_on channel=9 note=69 velocity=61 time=0
EXTRACT: note_on channel=9 note=70 velocity=61 time=0
EXTRACT: note_on channel=3 note=66 velocity=98 time=0
EXTRACT: note_on channel=4 note=66 velocity=83 time=0
EXTRACT: note_on channel=6 note=76 velocity=95 time=0
EXTRACT: note_on channel=7 note=71 velocity=87 time=0
EXTRACT: note_on channel=9 note=54 velocity=0 time=0.06770833333333333
EXTRACT: note_on channel=9 note=70 velocity=0 time=0
EXTRACT: note_on channel=9 note=69 velocity=0 time=0.005208333333333333
EXTRACT: note_on channel=9 note=42 velocity=0 time=0.026041666666666664
EXTRACT: note_on channel=6 note=76 velocity=0 time=0
EXTRACT: note_on channel=7 note=71 velocity=0 time=0
EXTRACT: note_on channel=9 note=36 velocity=0 time=0.020833333333333332
EXTRACT: note_on channel=9 note=54 velocity=36 time=0.03645833333333333
EXTRACT: note_on channel=9 note=69 velocity=48 time=0
EXTRACT: note_on channel=9 note=70 velocity=58 time=0
EXTRACT: note_on channel=7 note=69 velocity=86 time=0
EXTRACT: note_on channel=9 note=54 velocity=0 time=0.05208333333333333
EXTRACT: note_on channel=9 note=69 velocity=0 time=0.015625
EXTRACT: note_on channel=7 note=69 velocity=0 time=0.015625
EXTRACT: note_on channel=9 note=70 velocity=0 time=0.015625
EXTRACT: note_on channel=3 note=66 velocity=0 time=0.05208333333333333
EXTRACT: note_on channel=4 note=66 velocity=0 time=0
EXTRACT: note_on channel=9 note=36 velocity=82 time=0.005208333333333333
EXTRACT: note_on channel=9 note=39 velocity=82 time=0
EXTRACT: note_on channel=9 note=40 velocity=80 time=0
EXTRACT: note_on channel=9 note=42 velocity=84 time=0
EXTRACT: note_on channel=9 note=54 velocity=61 time=0
EXTRACT: note_on channel=9 note=69 velocity=52 time=0
EXTRACT: note_on channel=9 note=70 velocity=89 time=0
EXTRACT: note_on channel=1 note=42 velocity=98 time=0
EXTRACT: note_on channel=3 note=64 velocity=88 time=0
EXTRACT: note_on channel=4 note=64 velocity=73 time=0
EXTRACT: note_on channel=6 note=78 velocity=91 time=0
EXTRACT: note_on channel=7 note=71 velocity=88 time=0
EXTRACT: note_on channel=9 note=69 velocity=0 time=0.08333333333333333
EXTRACT: note_on channel=6 note=78 velocity=0 time=0
EXTRACT: note_on channel=9 note=70 velocity=0 time=0.010416666666666666
EXTRACT: note_on channel=9 note=54 velocity=0 time=0.005208333333333333
EXTRACT: note_on channel=9 note=39 velocity=0 time=0.005208333333333333
EXTRACT: note_on channel=7 note=71 velocity=0 time=0
EXTRACT: note_on channel=9 note=40 velocity=0 time=0.005208333333333333
EXTRACT: note_on channel=9 note=42 velocity=0 time=0.041666666666666664
EXTRACT: note_on channel=9 note=54 velocity=52 time=0.005208333333333333
EXTRACT: note_on channel=9 note=70 velocity=71 time=0
EXTRACT: note_on channel=9 note=54 velocity=0 time=0.09375
EXTRACT: note_on channel=9 note=70 velocity=0 time=0.005208333333333333
EXTRACT: note_on channel=3 note=64 velocity=0 time=0.005208333333333333
EXTRACT: note_on channel=4 note=64 velocity=0 time=0
EXTRACT: note_on channel=9 note=42 velocity=52 time=0.05208333333333333
EXTRACT: note_on channel=9 note=54 velocity=46 time=0
EXTRACT: note_on channel=9 note=70 velocity=71 time=0
EXTRACT: note_on channel=3 note=69 velocity=104 time=0
EXTRACT: note_on channel=4 note=69 velocity=89 time=0
EXTRACT: note_on channel=5 note=52 velocity=59 time=0
EXTRACT: note_on channel=5 note=57 velocity=58 time=0
EXTRACT: note_on channel=5 note=59 velocity=67 time=0
EXTRACT: note_on channel=5 note=62 velocity=63 time=0
EXTRACT: note_on channel=6 note=81 velocity=104 time=0
EXTRACT: note_on channel=7 note=78 velocity=94 time=0
EXTRACT: note_on channel=9 note=54 velocity=0 time=0.06770833333333333
EXTRACT: note_on channel=9 note=70 velocity=0 time=0.015625
EXTRACT: note_on channel=9 note=42 velocity=0 time=0.015625
EXTRACT: note_on channel=9 note=36 velocity=0 time=0.03645833333333333
EXTRACT: note_on channel=7 note=78 velocity=0 time=0.020833333333333332
EXTRACT: note_on channel=9 note=42 velocity=40 time=0
EXTRACT: note_on channel=9 note=54 velocity=57 time=0
EXTRACT: note_on channel=9 note=70 velocity=61 time=0
EXTRACT: note_on channel=2 note=62 velocity=0 time=0.015625
EXTRACT: note_on channel=2 note=57 velocity=0 time=0.015625
EXTRACT: note_on channel=1 note=42 velocity=0 time=0.010416666666666666
EXTRACT: note_on channel=9 note=54 velocity=0 time=0.005208333333333333
EXTRACT: note_on channel=5 note=62 velocity=0 time=0.03645833333333333
EXTRACT: note_on channel=5 note=59 velocity=0 time=0.005208333333333333
EXTRACT: note_on channel=2 note=66 velocity=0 time=0.005208333333333333
EXTRACT: note_on channel=9 note=42 velocity=0 time=0.005208333333333333
EXTRACT: note_on channel=9 note=70 velocity=0 time=0
EXTRACT: note_on channel=5 note=57 velocity=0 time=0.020833333333333332
EXTRACT: note_on channel=5 note=52 velocity=0 time=0.005208333333333333
EXTRACT: note_on channel=3 note=69 velocity=0 time=0.026041666666666664
EXTRACT: note_on channel=4 note=69 velocity=0 time=0
EXTRACT: note_on channel=9 note=36 velocity=83 time=0.005208333333333333
EXTRACT: note_on channel=9 note=42 velocity=77 time=0
EXTRACT: note_on channel=9 note=54 velocity=54 time=0
EXTRACT: note_on channel=9 note=70 velocity=90 time=0
EXTRACT: note_on channel=1 note=35 velocity=95 time=0
EXTRACT: note_on channel=2 note=57 velocity=86 time=0
EXTRACT: note_on channel=2 note=61 velocity=83 time=0
EXTRACT: note_on channel=2 note=64 velocity=86 time=0
EXTRACT: note_on channel=3 note=66 velocity=100 time=0
EXTRACT: note_on channel=4 note=66 velocity=85 time=0
EXTRACT: note_on channel=9 note=54 velocity=0 time=0.09375
EXTRACT: note_on channel=9 note=70 velocity=0 time=0.005208333333333333
EXTRACT: note_on channel=9 note=54 velocity=38 time=0.057291666666666664
EXTRACT: note_on channel=9 note=70 velocity=70 time=0
EXTRACT: note_on channel=9 note=42 velocity=0 time=0.015625
EXTRACT: note_on channel=9 note=70 velocity=0 time=0.03125
EXTRACT: note_on channel=9 note=54 velocity=0 time=0.03125
EXTRACT: note_on channel=3 note=66 velocity=0 time=0.06770833333333333
EXTRACT: note_on channel=4 note=66 velocity=0 time=0
EXTRACT: note_on channel=9 note=42 velocity=54 time=0.010416666666666666
EXTRACT: note_on channel=9 note=54 velocity=44 time=0
EXTRACT: note_on channel=9 note=69 velocity=71 time=0
EXTRACT: note_on channel=9 note=70 velocity=71 time=0
EXTRACT: note_on channel=3 note=69 velocity=100 time=0
EXTRACT: note_on channel=4 note=69 velocity=85 time=0
EXTRACT: note_on channel=7 note=74 velocity=95 time=0
EXTRACT: note_on channel=1 note=35 velocity=0 time=0.041666666666666664
EXTRACT: note_on channel=9 note=54 velocity=0 time=0.026041666666666664
EXTRACT: note_on channel=9 note=69 velocity=0 time=0
EXTRACT: note_on channel=9 note=70 velocity=0 time=0.015625
EXTRACT: note_on channel=7 note=74 velocity=0 time=0
EXTRACT: note_on channel=9 note=36 velocity=0 time=0.020833333333333332
EXTRACT: note_on channel=9 note=42 velocity=0 time=0.005208333333333333
EXTRACT: note_on channel=6 note=81 velocity=0 time=0.026041666666666664
EXTRACT: note_on channel=9 note=54 velocity=36 time=0.020833333333333332
EXTRACT: note_on channel=9 note=70 velocity=56 time=0
EXTRACT: note_on channel=9 note=54 velocity=0 time=0.05208333333333333
EXTRACT: note_on channel=9 note=70 velocity=0 time=0.046875
EXTRACT: note_on channel=3 note=69 velocity=0 time=0.026041666666666664
EXTRACT: note_on channel=4 note=69 velocity=0 time=0
EXTRACT: note_on channel=9 note=36 velocity=84 time=0.03125
EXTRACT: note_on channel=9 note=39 velocity=84 time=0
EXTRACT: note_on channel=9 note=40 velocity=82 time=0
EXTRACT: note_on channel=9 note=42 velocity=79 time=0
EXTRACT: note_on channel=9 note=54 velocity=61 time=0
EXTRACT: note_on channel=9 note=70 velocity=87 time=0
EXTRACT: note_on channel=3 note=66 velocity=94 time=0
EXTRACT: note_on channel=4 note=66 velocity=79 time=0
EXTRACT: note_on channel=6 note=81 velocity=101 time=0
EXTRACT: note_on channel=9 note=40 velocity=0 time=0.06770833333333333
EXTRACT: note_on channel=6 note=81 velocity=0 time=0.015625
EXTRACT: note_on channel=9 note=70 velocity=0 time=0.010416666666666666
EXTRACT: note_on channel=9 note=39 velocity=0 time=0.005208333333333333
EXTRACT: note_on channel=9 note=54 velocity=0 time=0
EXTRACT: note_on channel=9 note=54 velocity=52 time=0.057291666666666664
EXTRACT: note_on channel=9 note=70 velocity=74 time=0
EXTRACT: note_on channel=7 note=71 velocity=93 time=0
EXTRACT: note_on channel=9 note=42 velocity=0 time=0.020833333333333332
EXTRACT: note_on channel=9 note=54 velocity=0 time=0.07291666666666666
EXTRACT: note_on channel=9 note=70 velocity=0 time=0.005208333333333333
EXTRACT: note_on channel=3 note=66 velocity=0 time=0.041666666666666664
EXTRACT: note_on channel=4 note=66 velocity=0 time=0
EXTRACT: note_on channel=9 note=42 velocity=54 time=0.015625
EXTRACT: note_on channel=9 note=54 velocity=46 time=0
EXTRACT: note_on channel=9 note=69 velocity=64 time=0
EXTRACT: note_on channel=9 note=70 velocity=72 time=0
EXTRACT: note_on channel=1 note=30 velocity=78 time=0
EXTRACT: note_on channel=3 note=69 velocity=98 time=0
EXTRACT: note_on channel=4 note=69 velocity=83 time=0
EXTRACT: note_on channel=9 note=69 velocity=0 time=0.0625
EXTRACT: note_on channel=9 note=54 velocity=0 time=0.005208333333333333
EXTRACT: note_on channel=3 note=69 velocity=0 time=0.005208333333333333
EXTRACT: note_on channel=4 note=69 velocity=0 time=0
EXTRACT: note_on channel=9 note=70 velocity=0 time=0.010416666666666666
EXTRACT: note_on channel=7 note=71 velocity=0 time=0.015625
EXTRACT: note_on channel=9 note=36 velocity=0 time=0.010416666666666666
EXTRACT: note_on channel=2 note=73 velocity=63 time=0
EXTRACT: note_on channel=9 note=42 velocity=0 time=0.005208333333333333
EXTRACT: note_on channel=9 note=54 velocity=57 time=0.041666666666666664
EXTRACT: note_on channel=9 note=70 velocity=66 time=0
EXTRACT: note_on channel=3 note=71 velocity=105 time=0
EXTRACT: note_on channel=4 note=71 velocity=90 time=0
EXTRACT: note_on channel=2 note=61 velocity=0 time=0.015625
EXTRACT: note_on channel=2 note=64 velocity=0 time=0.015625
EXTRACT: note_on channel=2 note=57 velocity=0 time=0.005208333333333333
EXTRACT: note_on channel=9 note=54 velocity=0 time=0.010416666666666666
EXTRACT: note_on channel=9 note=70 velocity=0 time=0.05208333333333333
EXTRACT: note_on channel=9 note=36 velocity=81 time=0.057291666666666664
EXTRACT: note_on channel=9 note=42 velocity=87 time=0
EXTRACT: note_on channel=9 note=54 velocity=54 time=0
EXTRACT: note_on channel=9 note=70 velocity=93 time=0
EXTRACT: note_on channel=1 note=33 velocity=83 time=0
EXTRACT: note_on channel=2 note=54 velocity=89 time=0
EXTRACT: note_on channel=2 note=59 velocity=83 time=0
EXTRACT: note_on channel=2 note=62 velocity=88 time=0
EXTRACT: note_on channel=6 note=78 velocity=92 time=0
EXTRACT: note_on channel=7 note=69 velocity=95 time=0
EXTRACT: note_on channel=1 note=30 velocity=0 time=0.005208333333333333
EXTRACT: note_on channel=2 note=74 velocity=70 time=0.05208333333333333
EXTRACT: note_on channel=9 note=54 velocity=0 time=0.03645833333333333
EXTRACT: note_on channel=9 note=70 velocity=0 time=0.015625
EXTRACT: note_on channel=7 note=69 velocity=0 time=0
EXTRACT: note_on channel=9 note=42 velocity=0 time=0.041666666666666664
EXTRACT: note_on channel=9 note=54 velocity=38 time=0.005208333333333333
EXTRACT: note_on channel=9 note=70 velocity=59 time=0
EXTRACT: note_on channel=7 note=71 velocity=82 time=0
EXTRACT: note_on channel=9 note=54 velocity=0 time=0.078125
EXTRACT: note_on channel=7 note=71 velocity=0 time=0.005208333333333333
EXTRACT: note_on channel=9 note=70 velocity=0 time=0.010416666666666666
EXTRACT: note_on channel=3 note=71 velocity=0 time=0.041666666666666664
EXTRACT: note_on channel=4 note=71 velocity=0 time=0
EXTRACT: note_on channel=2 note=78 velocity=69 time=0.010416666666666666
EXTRACT: note_on channel=9 note=42 velocity=46 time=0.010416666666666666
EXTRACT: note_on channel=9 note=54 velocity=44 time=0
EXTRACT: note_on channel=9 note=69 velocity=60 time=0
EXTRACT: note_on channel=9 note=70 velocity=78 time=0
EXTRACT: note_on channel=1 note=35 velocity=87 time=0
EXTRACT: note_on channel=3 note=66 velocity=98 time=0
EXTRACT: note_on channel=4 note=66 velocity=83 time=0
EXTRACT: note_on channel=7 note=71 velocity=87 time=0
EXTRACT: note_on channel=1 note=33 velocity=0 time=0.026041666666666664
EXTRACT: note_on channel=9 note=54 velocity=0 time=0.041666666666666664
EXTRACT: note_on channel=6 note=78 velocity=0 time=0.005208333333333333
EXTRACT: note_on channel=9 note=69 velocity=0 time=0.015625
EXTRACT: note_on channel=9 note=70 velocity=0 time=0.005208333333333333
EXTRACT: note_on channel=7 note=71 velocity=0 time=0.005208333333333333
EXTRACT: note_on channel=9 note=36 velocity=0 time=0.005208333333333333
EXTRACT: note_on channel=9 note=42 velocity=0 time=0.020833333333333332
EXTRACT: note_on channel=1 note=35 velocity=0 time=0.010416666666666666
EXTRACT: note_on channel=9 note=54 velocity=36 time=0.020833333333333332
EXTRACT: note_on channel=9 note=69 velocity=55 time=0
EXTRACT: note_on channel=9 note=70 velocity=74 time=0
EXTRACT: note_on channel=7 note=69 velocity=86 time=0
EXTRACT: note_on channel=9 note=54 velocity=0 time=0.05208333333333333
EXTRACT: note_on channel=9 note=69 velocity=0 time=0.03125
EXTRACT: note_on channel=7 note=69 velocity=0 time=0
EXTRACT: note_on channel=9 note=70 velocity=0 time=0.005208333333333333
EXTRACT: note_on channel=2 note=81 velocity=56 time=0.015625
EXTRACT: note_on channel=4 note=66 velocity=0 time=0.020833333333333332
EXTRACT: note_on channel=9 note=36 velocity=82 time=0.03125
EXTRACT: note_on channel=9 note=39 velocity=82 time=0
EXTRACT: note_on channel=9 note=40 velocity=80 time=0
EXTRACT: note_on channel=9 note=42 velocity=78 time=0
EXTRACT: note_on channel=9 note=54 velocity=61 time=0
EXTRACT: note_on channel=9 note=69 velocity=50 time=0
EXTRACT: note_on channel=9 note=70 velocity=87 time=0
EXTRACT: note_on channel=1 note=35 velocity=93 time=0
EXTRACT: note_on channel=4 note=62 velocity=93 time=0
EXTRACT: note_on channel=7 note=71 velocity=88 time=0
EXTRACT: note_on channel=4 note=62 velocity=0 time=0.08333333333333333
EXTRACT: note_on channel=9 note=69 velocity=0 time=0.005208333333333333
EXTRACT: note_on channel=9 note=54 velocity=0 time=0.010416666666666666
EXTRACT: note_on channel=9 note=70 velocity=0 time=0
EXTRACT: note_on channel=9 note=39 velocity=0 time=0.005208333333333333
EXTRACT: note_on channel=7 note=71 velocity=0 time=0
EXTRACT: note_on channel=9 note=40 velocity=0 time=0.005208333333333333
EXTRACT: note_on channel=9 note=42 velocity=0 time=0.041666666666666664
EXTRACT: note_on channel=1 note=35 velocity=0 time=0
EXTRACT: note_on channel=9 note=54 velocity=52 time=0.005208333333333333
EXTRACT: note_on channel=9 note=70 velocity=74 time=0
EXTRACT: note_on channel=1 note=33 velocity=74 time=0
EXTRACT: note_on channel=4 note=62 velocity=87 time=0
EXTRACT: note_on channel=4 note=62 velocity=0 time=0.08333333333333333
EXTRACT: note_on channel=9 note=54 velocity=0 time=0.010416666666666666
EXTRACT: note_on channel=9 note=70 velocity=0 time=0
EXTRACT: note_on channel=3 note=66 velocity=0 time=0.03125
EXTRACT: note_on channel=2 note=59 velocity=0 time=0.005208333333333333
EXTRACT: note_on channel=2 note=54 velocity=0 time=0.005208333333333333
EXTRACT: note_on channel=2 note=62 velocity=0 time=0.010416666666666666
EXTRACT: note_on channel=1 note=33 velocity=0 time=0.005208333333333333
EXTRACT: note_on channel=9 note=46 velocity=49 time=0.005208333333333333
EXTRACT: note_on channel=9 note=54 velocity=46 time=0
EXTRACT: note_on channel=9 note=70 velocity=58 time=0
EXTRACT: note_on channel=1 note=29 velocity=82 time=0
EXTRACT: note_on channel=4 note=62 velocity=83 time=0
EXTRACT: note_on channel=7 note=78 velocity=94 time=0
EXTRACT: note_on channel=9 note=54 velocity=0 time=0.06770833333333333
EXTRACT: note_on channel=9 note=46 velocity=0 time=0.026041666666666664
EXTRACT: note_on channel=4 note=62 velocity=0 time=0
EXTRACT: note_on channel=9 note=70 velocity=0 time=0.005208333333333333
EXTRACT: note_on channel=1 note=29 velocity=0 time=0.026041666666666664
EXTRACT: note_on channel=7 note=78 velocity=0 time=0.03125
EXTRACT: note_on channel=9 note=54 velocity=57 time=0
EXTRACT: note_on channel=9 note=70 velocity=61 time=0
EXTRACT: note_on channel=1 note=30 velocity=80 time=0
EXTRACT: note_on channel=4 note=62 velocity=89 time=0
EXTRACT: note_on channel=9 note=36 velocity=0 time=0.020833333333333332
EXTRACT: note_on channel=9 note=54 velocity=0 time=0.026041666666666664
EXTRACT: note_on channel=9 note=70 velocity=0 time=0.041666666666666664
EXTRACT: note_on channel=1 note=30 velocity=0 time=0.020833333333333332
EXTRACT: note_on channel=4 note=62 velocity=0 time=0.010416666666666666
EXTRACT: note_on channel=2 note=74 velocity=0 time=3.005208333333333
EXTRACT: note_on channel=2 note=78 velocity=0 time=0.020833333333333332
EXTRACT: note_on channel=2 note=81 velocity=0 time=0
EXTRACT: note_on channel=2 note=73 velocity=0 time=0.005208333333333333
