EXTRACT: program_change channel=0 program=0 time=0
EXTRACT: control_change channel=0 control=7 value=80 time=0
EXTRACT: control_change channel=0 control=10 value=62 time=0
EXTRACT: note_on channel=0 note=64 velocity=100 time=0
EXTRACT: note_on channel=0 note=67 velocity=100 time=0
EXTRACT: note_on channel=0 note=72 velocity=100 time=0
EXTRACT: program_change channel=1 program=25 time=0
EXTRACT: control_change channel=1 control=7 value=80 time=0
EXTRACT: control_change channel=1 control=10 value=35 time=0
EXTRACT: program_change channel=2 program=29 time=0
EXTRACT: control_change channel=2 control=7 value=105 time=0
EXTRACT: control_change channel=2 control=10 value=75 time=0
EXTRACT: program_change channel=3 program=25 time=0
EXTRACT: control_change channel=3 control=7 value=100 time=0
EXTRACT: control_change channel=3 control=10 value=71 time=0
EXTRACT: program_change channel=4 program=42 time=0
EXTRACT: control_change channel=4 control=7 value=69 time=0
EXTRACT: program_change channel=5 program=33 time=0
EXTRACT: control_change channel=5 control=7 value=100 time=0
EXTRACT: control_change channel=5 control=10 value=86 time=0
EXTRACT: program_change channel=6 program=53 time=0
EXTRACT: control_change channel=6 control=7 value=127 time=0
EXTRACT: control_change channel=6 control=10 value=64 time=0
EXTRACT: control_change channel=9 control=7 value=70 time=0
EXTRACT: control_change channel=9 control=10 value=64 time=0
EXTRACT: sysex data=(65,16,69,18,16,0,0,68,79,78,39,84,32,76,79,79,75,32,66,65,67,75,32,73,78,32,65,78,71,69,82,32,45,79,65,83,73,83,126) time=0
EXTRACT: note_off channel=0 note=55 velocity=0 time=0
EXTRACT: note_off channel=0 note=58 velocity=0 time=0.0018601041666666664
EXTRACT: note_off channel=0 note=70 velocity=0 time=0.0018601041666666664
EXTRACT: note_off channel=0 note=73 velocity=0 time=0.0018601041666666664
EXTRACT: note_off channel=0 note=70 velocity=0 time=0.0018601041666666664
EXTRACT: note_off channel=0 note=68 velocity=0 time=0.0018601041666666664
EXTRACT: note_off channel=0 note=77 velocity=0 time=0.0018601041666666664
EXTRACT: note_off channel=0 note=63 velocity=0 time=0.0018601041666666664
EXTRACT: note_off channel=0 note=55 velocity=0 time=0.0018601041666666664
EXTRACT: note_off channel=0 note=77 velocity=0 time=0.0018601041666666664
EXTRACT: note_off channel=0 note=75 velocity=0 time=0.0018601041666666664
EXTRACT: note_off channel=0 note=55 velocity=0 time=0.0018601041666666664
EXTRACT: note_on channel=0 note=65 velocity=100 time=0.0018601041666666664
EXTRACT: note_off channel=0 note=70 velocity=0 time=0
EXTRACT: note_off channel=0 note=55 velocity=0 time=0.0018601041666666664
EXTRACT: note_off channel=0 note=67 velocity=0 time=0.0018601041666666664
EXTRACT: note_off channel=0 note=61 velocity=0 time=0.0018601041666666664
EXTRACT: note_off channel=0 note=65 velocity=100 time=0.08370468749999999
EXTRACT: note_on channel=0 note=60 velocity=100 time=0.24553374999999997
EXTRACT: note_off channel=0 note=55 velocity=0 time=0.06324354166666665
EXTRACT: note_off channel=0 note=58 velocity=0 time=0.14880833333333332
EXTRACT: note_off channel=0 note=72 velocity=100 time=0.14508812499999998
EXTRACT: note_off channel=0 note=67 velocity=100 time=0
EXTRACT: note_off channel=0 note=64 velocity=100 time=0
EXTRACT: note_on channel=0 note=64 velocity=100 time=0
EXTRACT: note_on channel=0 note=67 velocity=100 time=0
EXTRACT: note_on channel=0 note=72 velocity=100 time=0
EXTRACT: sysex data=(65,16,69,18,16,1,0,0,0,0,0,0,0,0,0,0,0,0,0,0,0,0,0,0,0,0,0,0,0,0,0,0,0,0,0,0,0,0,0,0,0,0,0,0,0,0,0,0,0,0,0,0,0,0,0,0,0,0,0,0,0,0,0,0,0,0,0,0,0,0,0,111) time=0
EXTRACT: note_off channel=0 note=70 velocity=0 time=0.18973062499999996
EXTRACT: note_off channel=0 note=60 velocity=100 time=0.16740937499999997
EXTRACT: note_on channel=0 note=60 velocity=100 time=0
EXTRACT: note_off channel=0 note=73 velocity=0 time=0.04092229166666666
EXTRACT: note_off channel=0 note=70 velocity=0 time=0.20833166666666664
EXTRACT: note_off channel=0 note=68 velocity=0 time=0.06696374999999999
EXTRACT: note_off channel=0 note=72 velocity=100 time=0.04092229166666666
EXTRACT: note_off channel=0 note=67 velocity=100 time=0
EXTRACT: note_off channel=0 note=64 velocity=100 time=0
EXTRACT: note_on channel=0 note=64 velocity=100 time=0
EXTRACT: note_on channel=0 note=67 velocity=100 time=0
EXTRACT: note_on channel=0 note=72 velocity=100 time=0
EXTRACT: sysex data=(65,16,69,18,16,1,0,0,0,0,0,0,0,0,0,0,0,0,0,0,0,0,0,0,0,0,0,0,0,0,0,0,0,0,0,0,0,0,0,0,0,0,0,0,0,0,0,0,0,0,0,0,0,0,0,0,0,0,0,0,0,0,0,0,0,0,0,0,0,0,0,111) time=0
EXTRACT: note_off channel=0 note=77 velocity=0 time=0.09486531249999998
EXTRACT: note_off channel=0 note=63 velocity=0 time=0.09486531249999998
EXTRACT: note_off channel=0 note=55 velocity=0 time=0.03720208333333333
EXTRACT: note_off channel=0 note=60 velocity=100 time=0.13020729166666664
EXTRACT: note_on channel=0 note=60 velocity=100 time=0
EXTRACT: note_off channel=0 note=77 velocity=0 time=0.07998447916666665
EXTRACT: note_off channel=0 note=75 velocity=0 time=0.09114510416666666
EXTRACT: note_off channel=0 note=72 velocity=100 time=0.18601041666666665
EXTRACT: note_off channel=0 note=67 velocity=100 time=0
EXTRACT: note_off channel=0 note=64 velocity=100 time=0
EXTRACT: note_on channel=0 note=64 velocity=100 time=0
EXTRACT: note_on channel=0 note=67 velocity=100 time=0
EXTRACT: note_on channel=0 note=72 velocity=100 time=0
EXTRACT: sysex data=(65,16,69,18,16,1,0,0,0,0,0,0,0,0,0,0,0,0,0,0,0,0,0,0,0,0,0,0,0,0,0,0,0,0,0,0,0,0,0,0,0,0,0,0,0,0,0,0,0,0,0,0,0,0,0,0,0,0,0,0,0,0,0,0,0,0,0,0,0,0,0,111) time=0
EXTRACT: note_off channel=0 note=55 velocity=0 time=0.09300520833333333
EXTRACT: note_off channel=0 note=60 velocity=100 time=0.26413479166666665
EXTRACT: note_on channel=0 note=60 velocity=100 time=0
EXTRACT: note_off channel=0 note=70 velocity=0 time=0.03906218749999999
EXTRACT: note_off channel=0 note=55 velocity=0 time=0.005580312499999999
EXTRACT: note_off channel=0 note=67 velocity=0 time=0.27343531249999997
EXTRACT: note_off channel=0 note=72 velocity=100 time=0.03906218749999999
EXTRACT: note_off channel=0 note=67 velocity=100 time=0
EXTRACT: note_off channel=0 note=64 velocity=100 time=0
EXTRACT: note_on channel=0 note=65 velocity=100 time=0
EXTRACT: note_on channel=0 note=69 velocity=100 time=0
EXTRACT: note_on channel=0 note=72 velocity=100 time=0
EXTRACT: sysex data=(65,16,69,18,16,1,0,0,0,0,0,0,0,0,0,0,0,0,0,0,0,0,0,0,0,0,0,0,0,0,0,0,0,0,0,0,0,0,0,0,0,0,0,0,0,0,0,0,0,0,0,0,0,0,0,0,0,0,0,0,0,0,0,0,0,0,0,0,0,0,0,111) time=0
EXTRACT: note_off channel=0 note=61 velocity=0 time=0.11718656249999998
EXTRACT: note_off channel=0 note=60 velocity=100 time=0.23995343749999995
EXTRACT: note_on channel=0 note=60 velocity=100 time=0
EXTRACT: note_off channel=0 note=72 velocity=100 time=0.35713999999999996
EXTRACT: note_off channel=0 note=69 velocity=100 time=0
EXTRACT: note_off channel=0 note=65 velocity=100 time=0
EXTRACT: note_on channel=0 note=65 velocity=100 time=0
EXTRACT: note_on channel=0 note=69 velocity=100 time=0
EXTRACT: note_on channel=0 note=72 velocity=100 time=0
EXTRACT: sysex data=(65,16,69,18,16,1,0,0,0,0,0,0,0,0,0,0,0,0,0,0,0,0,0,0,0,0,0,0,0,0,0,0,0,0,0,0,0,0,0,0,0,0,0,0,0,0,0,0,0,0,0,0,0,0,0,0,0,0,0,0,0,0,0,0,0,0,0,0,0,0,0,111) time=0
EXTRACT: note_off channel=0 note=60 velocity=100 time=0.35713999999999996
EXTRACT: note_on channel=0 note=60 velocity=100 time=0
EXTRACT: note_off channel=0 note=72 velocity=100 time=0.35713999999999996
EXTRACT: note_off channel=0 note=69 velocity=100 time=0
EXTRACT: note_off channel=0 note=65 velocity=100 time=0
EXTRACT: note_on channel=1 note=48 velocity=100 time=0
EXTRACT: sysex data=(65,16,69,18,16,1,0,0,0,0,0,0,0,0,0,0,0,0,0,0,0,0,0,0,0,0,0,0,0,0,0,0,0,0,0,0,0,0,0,0,0,0,0,0,0,0,0,0,0,0,0,0,0,0,0,0,0,0,0,0,0,0,0,0,0,0,0,0,0,0,0,111) time=0
EXTRACT: note_on channel=0 note=65 velocity=100 time=0.011160624999999999
EXTRACT: note_on channel=0 note=69 velocity=100 time=0
EXTRACT: note_on channel=0 note=72 velocity=100 time=0
EXTRACT: note_on channel=0 note=60 velocity=100 time=0.3031969791666666
EXTRACT: note_off channel=0 note=60 velocity=100 time=0.04278239583333333
EXTRACT: note_off channel=1 note=48 velocity=100 time=0
EXTRACT: note_on channel=1 note=52 velocity=100 time=0
EXTRACT: note_off channel=1 note=52 velocity=100 time=0.17856999999999998
EXTRACT: note_on channel=1 note=53 velocity=100 time=0
EXTRACT: note_on channel=0 note=69 velocity=100 time=0.13578760416666666
EXTRACT: note_on channel=0 note=72 velocity=100 time=0
EXTRACT: note_on channel=0 note=65 velocity=100 time=0.029761666666666662
EXTRACT: note_off channel=1 note=53 velocity=100 time=0.013020729166666665
EXTRACT: note_on channel=1 note=55 velocity=100 time=0
EXTRACT: sysex data=(65,16,69,18,16,1,0,0,0,0,0,0,0,0,0,0,0,0,0,0,0,0,0,0,0,0,0,0,0,0,0,0,0,0,0,0,0,0,0,0,0,0,0,0,0,0,0,0,0,0,0,0,0,0,0,0,0,0,0,0,0,0,0,0,0,0,0,0,0,0,0,111) time=0
EXTRACT: note_off channel=0 note=72 velocity=100 time=0.011160624999999999
EXTRACT: note_off channel=0 note=69 velocity=100 time=0
EXTRACT: note_off channel=0 note=65 velocity=100 time=0
EXTRACT: note_off channel=0 note=60 velocity=100 time=0.3031969791666666
EXTRACT: note_on channel=0 note=60 velocity=100 time=0
EXTRACT: note_off channel=1 note=55 velocity=100 time=0.04278239583333333
EXTRACT: note_on channel=1 note=60 velocity=100 time=0
EXTRACT: note_off channel=0 note=72 velocity=100 time=0.31435760416666664
EXTRACT: note_off channel=0 note=69 velocity=100 time=0
EXTRACT: note_off channel=0 note=65 velocity=100 time=0.029761666666666662
EXTRACT: note_on channel=0 note=64 velocity=100 time=0.013020729166666665
EXTRACT: note_on channel=0 note=67 velocity=100 time=0
EXTRACT: note_on channel=0 note=72 velocity=100 time=0
EXTRACT: note_off channel=1 note=60 velocity=100 time=0
EXTRACT: sysex data=(65,16,69,18,16,1,0,0,0,0,0,0,0,0,0,0,0,0,0,0,0,0,0,0,0,0,0,0,0,0,0,0,0,0,0,0,0,0,0,0,0,0,0,0,0,0,0,0,0,0,0,0,0,0,0,0,0,0,0,0,0,0,0,0,0,0,0,0,0,0,0,111) time=0
EXTRACT: note_off channel=0 note=60 velocity=100 time=0.31435760416666664
EXTRACT: note_on channel=0 note=60 velocity=100 time=0.04278239583333333
EXTRACT: note_off channel=0 note=72 velocity=100 time=0.35713999999999996
EXTRACT: note_off channel=0 note=67 velocity=100 time=0
EXTRACT: note_off channel=0 note=64 velocity=100 time=0
EXTRACT: note_on channel=0 note=64 velocity=100 time=0
EXTRACT: note_on channel=0 note=67 velocity=100 time=0
EXTRACT: note_on channel=0 note=72 velocity=100 time=0
EXTRACT: sysex data=(65,16,69,18,16,1,0,0,0,0,0,0,0,0,0,0,0,0,0,0,0,0,0,0,0,0,0,0,0,0,0,0,0,0,0,0,0,0,0,0,0,0,0,0,0,0,0,0,0,0,0,0,0,0,0,0,0,0,0,0,0,0,0,0,0,0,0,0,0,0,0,111) time=0
EXTRACT: note_off channel=0 note=60 velocity=100 time=0.35713999999999996
EXTRACT: note_on channel=0 note=60 velocity=100 time=0
EXTRACT: note_off channel=0 note=72 velocity=100 time=0.35713999999999996
EXTRACT: note_off channel=0 note=67 velocity=100 time=0
EXTRACT: note_off channel=0 note=64 velocity=100 time=0
EXTRACT: note_on channel=0 note=64 velocity=100 time=0
EXTRACT: note_on channel=0 note=67 velocity=100 time=0
EXTRACT: note_on channel=0 note=72 velocity=100 time=0
EXTRACT: sysex data=(65,16,69,18,16,1,0,0,0,0,0,0,0,0,0,0,0,0,0,0,0,0,0,0,0,0,0,0,0,0,0,0,0,0,0,0,0,0,0,0,0,0,0,0,0,0,0,0,0,0,0,0,0,0,0,0,0,0,0,0,0,0,0,0,0,0,0,0,0,0,0,111) time=0
EXTRACT: note_off channel=0 note=60 velocity=100 time=0.35713999999999996
EXTRACT: note_on channel=0 note=60 velocity=100 time=0
EXTRACT: note_off channel=0 note=72 velocity=100 time=0.35713999999999996
EXTRACT: note_off channel=0 note=67 velocity=100 time=0
EXTRACT: note_off channel=0 note=64 velocity=100 time=0
EXTRACT: note_on channel=0 note=64 velocity=100 time=0
EXTRACT: note_on channel=0 note=67 velocity=100 time=0
EXTRACT: note_on channel=0 note=72 velocity=100 time=0
EXTRACT: sysex data=(65,16,69,18,16,1,0,0,0,0,0,0,0,0,0,0,0,0,0,0,0,0,0,0,0,0,0,0,0,0,0,0,0,0,0,0,0,0,0,0,0,0,0,0,0,0,0,0,0,0,0,0,0,0,0,0,0,0,0,0,0,0,0,0,0,0,0,0,0,0,0,111) time=0
EXTRACT: note_off channel=0 note=60 velocity=100 time=0.35713999999999996
EXTRACT: note_on channel=0 note=60 velocity=100 time=0
EXTRACT: note_off channel=0 note=72 velocity=100 time=0.35713999999999996
EXTRACT: note_off channel=0 note=67 velocity=100 time=0
EXTRACT: note_off channel=0 note=64 velocity=100 time=0
EXTRACT: note_on channel=0 note=65 velocity=100 time=0
EXTRACT: note_on channel=0 note=69 velocity=100 time=0
EXTRACT: note_on channel=0 note=72 velocity=100 time=0
EXTRACT: sysex data=(65,16,69,18,16,1,0,0,0,0,0,0,0,0,0,0,0,0,0,0,0,0,0,0,0,0,0,0,0,0,0,0,0,0,0,0,0,0,0,0,0,0,0,0,0,0,0,0,0,0,0,0,0,0,0,0,0,0,0,0,0,0,0,0,0,0,0,0,0,0,0,111) time=0
EXTRACT: note_on channel=0 note=60 velocity=100 time=0.34411927083333327
EXTRACT: note_off channel=0 note=60 velocity=100 time=0.013020729166666665
EXTRACT: note_on channel=1 note=48 velocity=100 time=0
EXTRACT: note_on channel=1 note=55 velocity=100 time=0.26785499999999995
EXTRACT: note_on channel=0 note=72 velocity=100 time=0.06510364583333332
EXTRACT: note_on channel=0 note=65 velocity=100 time=0.005580312499999999
EXTRACT: note_on channel=0 note=69 velocity=100 time=0
EXTRACT: note_off channel=0 note=72 velocity=100 time=0.018601041666666665
EXTRACT: note_off channel=0 note=69 velocity=100 time=0
EXTRACT: note_off channel=0 note=65 velocity=100 time=0
EXTRACT: note_off channel=1 note=55 velocity=100 time=0
EXTRACT: note_off channel=1 note=48 velocity=100 time=0
EXTRACT: note_on channel=1 note=57 velocity=100 time=0
EXTRACT: note_on channel=1 note=60 velocity=100 time=0
EXTRACT: sysex data=(65,16,69,18,16,1,0,0,0,0,0,0,0,0,0,0,0,0,0,0,0,0,0,0,0,0,0,0,0,0,0,0,0,0,0,0,0,0,0,0,0,0,0,0,0,0,0,0,0,0,0,0,0,0,0,0,0,0,0,0,0,0,0,0,0,0,0,0,0,0,0,111) time=0
EXTRACT: note_off channel=0 note=60 velocity=100 time=0.34411927083333327
EXTRACT: note_on channel=0 note=60 velocity=100 time=0.013020729166666665
EXTRACT: note_off channel=1 note=60 velocity=100 time=0
EXTRACT: note_off channel=1 note=57 velocity=100 time=0
EXTRACT: note_on channel=1 note=55 velocity=100 time=0
EXTRACT: note_on channel=1 note=60 velocity=100 time=0
EXTRACT: note_on channel=9 note=38 velocity=127 time=0.17856999999999998
EXTRACT: note_off channel=9 note=38 velocity=127 time=0.029761666666666662
EXTRACT: note_off channel=0 note=72 velocity=100 time=0.12462697916666665
EXTRACT: note_off channel=0 note=69 velocity=100 time=0.005580312499999999
EXTRACT: note_off channel=0 note=65 velocity=100 time=0
EXTRACT: note_on channel=0 note=65 velocity=100 time=0.018601041666666665
EXTRACT: note_on channel=0 note=69 velocity=100 time=0
EXTRACT: note_on channel=0 note=72 velocity=100 time=0
EXTRACT: note_on channel=9 note=45 velocity=127 time=0
EXTRACT: sysex data=(65,16,69,18,16,1,0,0,0,0,0,0,0,0,0,0,0,0,0,0,0,0,0,0,0,0,0,0,0,0,0,0,0,0,0,0,0,0,0,0,0,0,0,0,0,0,0,0,0,0,0,0,0,0,0,0,0,0,0,0,0,0,0,0,0,0,0,0,0,0,0,111) time=0
EXTRACT: note_off channel=9 note=45 velocity=127 time=0.029761666666666662
EXTRACT: note_off channel=1 note=60 velocity=100 time=0.14880833333333332
EXTRACT: note_off channel=1 note=55 velocity=100 time=0
EXTRACT: note_on channel=1 note=50 velocity=100 time=0
EXTRACT: note_on channel=9 note=38 velocity=127 time=0.14880833333333332
EXTRACT: note_on channel=0 note=60 velocity=100 time=0.011160624999999999
EXTRACT: note_off channel=9 note=38 velocity=127 time=0.005580312499999999
EXTRACT: note_off channel=0 note=60 velocity=100 time=0.013020729166666665
EXTRACT: note_off channel=1 note=50 velocity=100 time=0
EXTRACT: note_on channel=1 note=50 velocity=100 time=0
EXTRACT: note_on channel=9 note=38 velocity=127 time=0
EXTRACT: note_off channel=9 note=38 velocity=127 time=0.029761666666666662
EXTRACT: note_off channel=1 note=50 velocity=100 time=0.14880833333333332
EXTRACT: note_on channel=1 note=52 velocity=100 time=0
EXTRACT: note_on channel=0 note=72 velocity=100 time=0.1543886458333333
EXTRACT: note_on channel=0 note=65 velocity=100 time=0.005580312499999999
EXTRACT: note_on channel=0 note=69 velocity=100 time=0
EXTRACT: note_off channel=0 note=72 velocity=100 time=0.018601041666666665
EXTRACT: note_off channel=0 note=69 velocity=100 time=0
EXTRACT: note_off channel=0 note=65 velocity=100 time=0
EXTRACT: note_off channel=1 note=52 velocity=100 time=0
EXTRACT: note_on channel=1 note=50 velocity=100 time=0
EXTRACT: note_on channel=9 note=38 velocity=127 time=0
EXTRACT: sysex data=(65,16,69,18,16,1,0,0,0,0,0,0,0,0,0,0,0,0,0,0,0,0,0,0,0,0,0,0,0,0,0,0,0,0,0,0,0,0,0,0,0,0,0,0,0,0,0,0,0,0,0,0,0,0,0,0,0,0,0,0,0,0,0,0,0,0,0,0,0,0,0,111) time=0
EXTRACT: note_off channel=9 note=38 velocity=127 time=0.029761666666666662
EXTRACT: note_on channel=9 note=45 velocity=127 time=0.14880833333333332
EXTRACT: note_off channel=9 note=45 velocity=127 time=0.029761666666666662
EXTRACT: note_on channel=0 note=60 velocity=100 time=0.12462697916666665
EXTRACT: note_off channel=0 note=60 velocity=100 time=0.005580312499999999
EXTRACT: note_off channel=1 note=50 velocity=100 time=0.018601041666666665
EXTRACT: note_on channel=1 note=55 velocity=100 time=0
EXTRACT: note_on channel=9 note=43 velocity=127 time=0
EXTRACT: note_off channel=9 note=43 velocity=127 time=0.029761666666666662
EXTRACT: note_off channel=0 note=60 velocity=100 time=0.3031969791666666
EXTRACT: note_off channel=0 note=72 velocity=100 time=0
EXTRACT: note_off channel=0 note=69 velocity=100 time=0.005580312499999999
EXTRACT: note_off channel=0 note=65 velocity=100 time=0
EXTRACT: note_off channel=1 note=55 velocity=100 time=0.018601041666666665
EXTRACT: note_on channel=1 note=48 velocity=100 time=0
EXTRACT: note_on channel=1 note=52 velocity=100 time=0
EXTRACT: note_on channel=1 note=55 velocity=100 time=0
EXTRACT: note_on channel=1 note=60 velocity=100 time=0
EXTRACT: note_on channel=1 note=64 velocity=100 time=0
EXTRACT: note_on channel=5 note=36 velocity=100 time=0
EXTRACT: note_on channel=6 note=64 velocity=100 time=0
EXTRACT: note_on channel=9 note=35 velocity=127 time=0
EXTRACT: note_on channel=9 note=36 velocity=127 time=0
EXTRACT: note_on channel=9 note=49 velocity=127 time=0
EXTRACT: sysex data=(65,16,69,18,16,1,0,0,0,0,0,0,0,0,0,0,0,0,0,0,0,0,0,0,0,0,0,0,0,0,0,0,0,0,0,0,0,0,0,0,0,0,0,0,0,0,0,0,0,0,0,0,0,0,0,0,0,0,0,0,0,0,0,0,0,0,0,0,0,0,0,111) time=0
EXTRACT: note_off channel=9 note=49 velocity=127 time=0.029761666666666662
EXTRACT: note_off channel=9 note=36 velocity=127 time=0
EXTRACT: note_off channel=9 note=35 velocity=127 time=0.059523333333333324
EXTRACT: note_off channel=6 note=64 velocity=100 time=0.08928499999999999
EXTRACT: note_on channel=6 note=62 velocity=100 time=0.011160624999999999
EXTRACT: note_on channel=9 note=42 velocity=127 time=0.16740937499999997
EXTRACT: note_off channel=9 note=42 velocity=127 time=0.029761666666666662
EXTRACT: note_on channel=6 note=64 velocity=100 time=0.14880833333333332
EXTRACT: note_off channel=6 note=62 velocity=100 time=0.011160624999999999
EXTRACT: note_on channel=5 note=36 velocity=100 time=0.12462697916666665
EXTRACT: note_off channel=1 note=64 velocity=100 time=0.04278239583333333
EXTRACT: note_off channel=1 note=60 velocity=100 time=0
EXTRACT: note_off channel=1 note=55 velocity=100 time=0
EXTRACT: note_off channel=1 note=52 velocity=100 time=0
EXTRACT: note_off channel=1 note=48 velocity=100 time=0
EXTRACT: note_on channel=1 note=48 velocity=100 time=0
EXTRACT: note_on channel=1 note=52 velocity=100 time=0
EXTRACT: note_on channel=1 note=55 velocity=100 time=0
EXTRACT: note_on channel=1 note=60 velocity=100 time=0
EXTRACT: note_on channel=1 note=64 velocity=100 time=0
EXTRACT: note_off channel=5 note=36 velocity=100 time=0
EXTRACT: note_on channel=9 note=38 velocity=127 time=0
EXTRACT: note_on channel=9 note=42 velocity=127 time=0
EXTRACT: sysex data=(65,16,69,18,16,1,0,0,0,0,0,0,0,0,0,0,0,0,0,0,0,0,0,0,0,0,0,0,0,0,0,0,0,0,0,0,0,0,0,0,0,0,0,0,0,0,0,0,0,0,0,0,0,0,0,0,0,0,0,0,0,0,0,0,0,0,0,0,0,0,0,111) time=0
EXTRACT: note_off channel=9 note=42 velocity=127 time=0.029761666666666662
EXTRACT: note_off channel=9 note=38 velocity=127 time=0
EXTRACT: note_off channel=5 note=36 velocity=100 time=0.28459593749999995
EXTRACT: note_off channel=1 note=64 velocity=100 time=0.04278239583333333
EXTRACT: note_off channel=1 note=60 velocity=100 time=0
EXTRACT: note_off channel=1 note=55 velocity=100 time=0
EXTRACT: note_off channel=1 note=52 velocity=100 time=0
EXTRACT: note_off channel=1 note=48 velocity=100 time=0
EXTRACT: note_on channel=1 note=48 velocity=100 time=0
EXTRACT: note_on channel=1 note=52 velocity=100 time=0
EXTRACT: note_on channel=1 note=55 velocity=100 time=0
EXTRACT: note_on channel=1 note=60 velocity=100 time=0
EXTRACT: note_on channel=1 note=64 velocity=100 time=0
EXTRACT: note_on channel=9 note=42 velocity=127 time=0
EXTRACT: note_on channel=5 note=35 velocity=100 time=0.022321249999999997
EXTRACT: note_off channel=9 note=42 velocity=127 time=0.0074404166666666655
EXTRACT: note_on channel=6 note=60 velocity=100 time=0.13578760416666666
EXTRACT: note_off channel=6 note=64 velocity=100 time=0.013020729166666665
EXTRACT: note_on channel=9 note=38 velocity=127 time=0
EXTRACT: note_off channel=9 note=38 velocity=127 time=0.029761666666666662
EXTRACT: note_on channel=6 note=62 velocity=100 time=0.12462697916666665
EXTRACT: note_off channel=6 note=60 velocity=100 time=0.011160624999999999
EXTRACT: note_off channel=1 note=64 velocity=100 time=0.013020729166666665
EXTRACT: note_off channel=1 note=60 velocity=100 time=0
EXTRACT: note_off channel=1 note=55 velocity=100 time=0
EXTRACT: note_off channel=1 note=52 velocity=100 time=0
EXTRACT: note_off channel=1 note=48 velocity=100 time=0
EXTRACT: note_on channel=1 note=43 velocity=100 time=0
EXTRACT: note_on channel=1 note=50 velocity=100 time=0
EXTRACT: note_on channel=1 note=55 velocity=100 time=0
EXTRACT: note_on channel=1 note=59 velocity=100 time=0
EXTRACT: note_on channel=1 note=67 velocity=100 time=0
EXTRACT: note_on channel=9 note=35 velocity=127 time=0
EXTRACT: note_on channel=9 note=36 velocity=127 time=0
EXTRACT: note_on channel=9 note=42 velocity=127 time=0
EXTRACT: sysex data=(65,16,69,18,16,1,0,0,0,0,0,0,0,0,0,0,0,0,0,0,0,0,0,0,0,0,0,0,0,0,0,0,0,0,0,0,0,0,0,0,0,0,0,0,0,0,0,0,0,0,0,0,0,0,0,0,0,0,0,0,0,0,0,0,0,0,0,0,0,0,0,111) time=0
EXTRACT: note_off channel=5 note=35 velocity=100 time=0.022321249999999997
EXTRACT: note_on channel=5 note=31 velocity=100 time=0
EXTRACT: note_off channel=9 note=42 velocity=127 time=0.0074404166666666655
EXTRACT: note_off channel=9 note=36 velocity=127 time=0
EXTRACT: note_off channel=9 note=35 velocity=127 time=0.059523333333333324
EXTRACT: note_off channel=6 note=62 velocity=100 time=0.24367364583333329
EXTRACT: note_on channel=5 note=31 velocity=100 time=0.024181354166666662
EXTRACT: note_on channel=6 note=60 velocity=100 time=0
EXTRACT: note_on channel=9 note=35 velocity=127 time=0
EXTRACT: note_on channel=9 note=36 velocity=127 time=0
EXTRACT: note_on channel=9 note=42 velocity=127 time=0
EXTRACT: note_off channel=5 note=31 velocity=100 time=0.022321249999999997
EXTRACT: note_off channel=9 note=42 velocity=127 time=0.0074404166666666655
EXTRACT: note_off channel=9 note=36 velocity=127 time=0
EXTRACT: note_off channel=9 note=35 velocity=127 time=0.059523333333333324
EXTRACT: note_off channel=6 note=60 velocity=100 time=0.08928499999999999
EXTRACT: note_on channel=6 note=64 velocity=100 time=0
EXTRACT: note_off channel=1 note=67 velocity=100 time=0.17856999999999998
EXTRACT: note_off channel=1 note=59 velocity=100 time=0
EXTRACT: note_off channel=1 note=55 velocity=100 time=0
EXTRACT: note_off channel=1 note=50 velocity=100 time=0
EXTRACT: note_off channel=1 note=43 velocity=100 time=0
EXTRACT: note_on channel=1 note=43 velocity=100 time=0
EXTRACT: note_on channel=1 note=50 velocity=100 time=0
EXTRACT: note_on channel=1 note=55 velocity=100 time=0
EXTRACT: note_on channel=1 note=59 velocity=100 time=0
EXTRACT: note_on channel=1 note=67 velocity=100 time=0
EXTRACT: note_off channel=5 note=31 velocity=100 time=0
EXTRACT: note_on channel=5 note=31 velocity=100 time=0
EXTRACT: note_on channel=9 note=38 velocity=127 time=0
EXTRACT: note_on channel=9 note=42 velocity=127 time=0
EXTRACT: sysex data=(65,16,69,18,16,1,0,0,0,0,0,0,0,0,0,0,0,0,0,0,0,0,0,0,0,0,0,0,0,0,0,0,0,0,0,0,0,0,0,0,0,0,0,0,0,0,0,0,0,0,0,0,0,0,0,0,0,0,0,0,0,0,0,0,0,0,0,0,0,0,0,111) time=0
EXTRACT: note_off channel=9 note=42 velocity=127 time=0.029761666666666662
EXTRACT: note_off channel=9 note=38 velocity=127 time=0
EXTRACT: note_off channel=1 note=67 velocity=100 time=0.32737833333333327
EXTRACT: note_off channel=1 note=59 velocity=100 time=0
EXTRACT: note_off channel=1 note=55 velocity=100 time=0
EXTRACT: note_off channel=1 note=50 velocity=100 time=0
EXTRACT: note_off channel=1 note=43 velocity=100 time=0
EXTRACT: note_on channel=1 note=43 velocity=100 time=0
EXTRACT: note_on channel=1 note=50 velocity=100 time=0
EXTRACT: note_on channel=1 note=55 velocity=100 time=0
EXTRACT: note_on channel=1 note=59 velocity=100 time=0
EXTRACT: note_on channel=1 note=67 velocity=100 time=0
EXTRACT: note_off channel=5 note=31 velocity=100 time=0
EXTRACT: note_on channel=5 note=31 velocity=100 time=0
EXTRACT: note_off channel=6 note=64 velocity=100 time=0
EXTRACT: note_on channel=9 note=42 velocity=127 time=0
EXTRACT: note_on channel=6 note=62 velocity=100 time=0.011160624999999999
EXTRACT: note_off channel=9 note=42 velocity=127 time=0.018601041666666665
EXTRACT: note_off channel=5 note=31 velocity=100 time=0.14880833333333332
EXTRACT: note_on channel=5 note=32 velocity=100 time=0
EXTRACT: note_on channel=9 note=38 velocity=127 time=0
EXTRACT: note_off channel=9 note=38 velocity=127 time=0.029761666666666662
EXTRACT: note_on channel=9 note=38 velocity=127 time=0.029761666666666662
EXTRACT: note_off channel=9 note=38 velocity=127 time=0.029761666666666662
EXTRACT: note_off channel=1 note=67 velocity=100 time=0.08928499999999999
EXTRACT: note_off channel=1 note=59 velocity=100 time=0
EXTRACT: note_off channel=1 note=55 velocity=100 time=0
EXTRACT: note_off channel=1 note=50 velocity=100 time=0
EXTRACT: note_off channel=1 note=43 velocity=100 time=0
EXTRACT: note_on channel=1 note=45 velocity=100 time=0
EXTRACT: note_on channel=1 note=52 velocity=100 time=0
EXTRACT: note_on channel=1 note=57 velocity=100 time=0
EXTRACT: note_on channel=1 note=60 velocity=100 time=0
EXTRACT: note_on channel=1 note=64 velocity=100 time=0
EXTRACT: note_off channel=5 note=32 velocity=100 time=0
EXTRACT: note_on channel=5 note=33 velocity=100 time=0
EXTRACT: note_on channel=9 note=35 velocity=127 time=0
EXTRACT: note_on channel=9 note=36 velocity=127 time=0
EXTRACT: note_on channel=9 note=42 velocity=127 time=0
EXTRACT: sysex data=(65,16,69,18,16,1,0,0,0,0,0,0,0,0,0,0,0,0,0,0,0,0,0,0,0,0,0,0,0,0,0,0,0,0,0,0,0,0,0,0,0,0,0,0,0,0,0,0,0,0,0,0,0,0,0,0,0,0,0,0,0,0,0,0,0,0,0,0,0,0,0,111) time=0
EXTRACT: note_off channel=9 note=42 velocity=127 time=0.029761666666666662
EXTRACT: note_off channel=9 note=36 velocity=127 time=0
EXTRACT: note_off channel=9 note=35 velocity=127 time=0.059523333333333324
EXTRACT: note_off channel=6 note=62 velocity=100 time=0.10044562499999998
EXTRACT: note_on channel=6 note=60 velocity=100 time=0.011160624999999999
EXTRACT: note_on channel=6 note=57 velocity=100 time=0.1432280208333333
EXTRACT: note_on channel=9 note=42 velocity=127 time=0.013020729166666665
EXTRACT: note_off channel=6 note=60 velocity=100 time=0.022321249999999997
EXTRACT: note_off channel=9 note=42 velocity=127 time=0.0074404166666666655
EXTRACT: note_off channel=6 note=57 velocity=100 time=0.31435760416666664
EXTRACT: note_off channel=1 note=64 velocity=100 time=0.013020729166666665
EXTRACT: note_off channel=1 note=60 velocity=100 time=0
EXTRACT: note_off channel=1 note=57 velocity=100 time=0
EXTRACT: note_off channel=1 note=52 velocity=100 time=0
EXTRACT: note_off channel=1 note=45 velocity=100 time=0
EXTRACT: note_on channel=1 note=45 velocity=100 time=0
EXTRACT: note_on channel=1 note=52 velocity=100 time=0
EXTRACT: note_on channel=1 note=57 velocity=100 time=0
EXTRACT: note_on channel=1 note=60 velocity=100 time=0
EXTRACT: note_on channel=1 note=64 velocity=100 time=0
EXTRACT: note_off channel=5 note=33 velocity=100 time=0
EXTRACT: note_on channel=5 note=33 velocity=100 time=0
EXTRACT: note_on channel=9 note=38 velocity=127 time=0
EXTRACT: note_on channel=9 note=42 velocity=127 time=0
EXTRACT: sysex data=(65,16,69,18,16,1,0,0,0,0,0,0,0,0,0,0,0,0,0,0,0,0,0,0,0,0,0,0,0,0,0,0,0,0,0,0,0,0,0,0,0,0,0,0,0,0,0,0,0,0,0,0,0,0,0,0,0,0,0,0,0,0,0,0,0,0,0,0,0,0,0,111) time=0
EXTRACT: note_off channel=9 note=42 velocity=127 time=0.029761666666666662
EXTRACT: note_off channel=9 note=38 velocity=127 time=0
EXTRACT: note_off channel=1 note=64 velocity=100 time=0.32737833333333327
EXTRACT: note_off channel=1 note=60 velocity=100 time=0
EXTRACT: note_off channel=1 note=57 velocity=100 time=0
EXTRACT: note_off channel=1 note=52 velocity=100 time=0
EXTRACT: note_off channel=1 note=45 velocity=100 time=0
EXTRACT: note_on channel=1 note=45 velocity=100 time=0
EXTRACT: note_on channel=1 note=52 velocity=100 time=0
EXTRACT: note_on channel=1 note=57 velocity=100 time=0
EXTRACT: note_on channel=1 note=60 velocity=100 time=0
EXTRACT: note_on channel=1 note=64 velocity=100 time=0
EXTRACT: note_off channel=5 note=33 velocity=100 time=0
EXTRACT: note_on channel=5 note=31 velocity=100 time=0
EXTRACT: note_on channel=6 note=62 velocity=100 time=0
EXTRACT: note_on channel=9 note=42 velocity=127 time=0
EXTRACT: note_off channel=9 note=42 velocity=127 time=0.029761666666666662
EXTRACT: note_off channel=6 note=62 velocity=100 time=0.14880833333333332
EXTRACT: note_on channel=6 note=60 velocity=100 time=0
EXTRACT: note_on channel=9 note=38 velocity=127 time=0
EXTRACT: note_off channel=9 note=38 velocity=127 time=0.029761666666666662
EXTRACT: note_off channel=1 note=64 velocity=100 time=0.14880833333333332
EXTRACT: note_off channel=1 note=60 velocity=100 time=0
EXTRACT: note_off channel=1 note=57 velocity=100 time=0
EXTRACT: note_off channel=1 note=52 velocity=100 time=0
EXTRACT: note_off channel=1 note=45 velocity=100 time=0
EXTRACT: note_on channel=1 note=40 velocity=100 time=0
EXTRACT: note_on channel=1 note=47 velocity=100 time=0
EXTRACT: note_on channel=1 note=52 velocity=100 time=0
EXTRACT: note_on channel=1 note=56 velocity=100 time=0
EXTRACT: note_on channel=1 note=59 velocity=100 time=0
EXTRACT: note_on channel=1 note=64 velocity=100 time=0
EXTRACT: note_off channel=5 note=31 velocity=100 time=0
EXTRACT: note_on channel=5 note=28 velocity=100 time=0
EXTRACT: note_off channel=6 note=60 velocity=100 time=0
EXTRACT: note_on channel=6 note=62 velocity=100 time=0
EXTRACT: note_on channel=9 note=35 velocity=127 time=0
EXTRACT: note_on channel=9 note=36 velocity=127 time=0
EXTRACT: note_on channel=9 note=42 velocity=127 time=0
EXTRACT: sysex data=(65,16,69,18,16,1,0,0,0,0,0,0,0,0,0,0,0,0,0,0,0,0,0,0,0,0,0,0,0,0,0,0,0,0,0,0,0,0,0,0,0,0,0,0,0,0,0,0,0,0,0,0,0,0,0,0,0,0,0,0,0,0,0,0,0,0,0,0,0,0,0,111) time=0
EXTRACT: note_off channel=9 note=42 velocity=127 time=0.029761666666666662
EXTRACT: note_off channel=9 note=36 velocity=127 time=0
EXTRACT: note_off channel=9 note=35 velocity=127 time=0.059523333333333324
EXTRACT: note_on channel=9 note=38 velocity=127 time=0.08928499999999999
EXTRACT: note_off channel=9 note=38 velocity=127 time=0.029761666666666662
EXTRACT: note_off channel=5 note=28 velocity=100 time=0.14880833333333332
EXTRACT: note_on channel=5 note=28 velocity=100 time=0
EXTRACT: note_off channel=6 note=62 velocity=100 time=0
EXTRACT: note_on channel=6 note=60 velocity=100 time=0
EXTRACT: note_on channel=9 note=35 velocity=127 time=0
EXTRACT: note_on channel=9 note=36 velocity=127 time=0
EXTRACT: note_on channel=9 note=42 velocity=127 time=0
EXTRACT: note_off channel=9 note=42 velocity=127 time=0.029761666666666662
EXTRACT: note_off channel=9 note=36 velocity=127 time=0
EXTRACT: note_off channel=9 note=35 velocity=127 time=0.059523333333333324
EXTRACT: note_off channel=6 note=60 velocity=100 time=0.08928499999999999
EXTRACT: note_on channel=6 note=64 velocity=100 time=0.022321249999999997
EXTRACT: note_off channel=1 note=64 velocity=100 time=0.15624874999999996
EXTRACT: note_off channel=1 note=59 velocity=100 time=0
EXTRACT: note_off channel=1 note=56 velocity=100 time=0
EXTRACT: note_off channel=1 note=52 velocity=100 time=0
EXTRACT: note_off channel=1 note=47 velocity=100 time=0
EXTRACT: note_off channel=1 note=40 velocity=100 time=0
EXTRACT: note_on channel=1 note=56 velocity=100 time=0
EXTRACT: note_on channel=1 note=40 velocity=100 time=0
EXTRACT: note_on channel=1 note=47 velocity=100 time=0
EXTRACT: note_on channel=1 note=52 velocity=100 time=0
EXTRACT: note_on channel=1 note=59 velocity=100 time=0
EXTRACT: note_on channel=1 note=64 velocity=100 time=0
EXTRACT: note_off channel=5 note=28 velocity=100 time=0
EXTRACT: note_on channel=5 note=28 velocity=100 time=0
EXTRACT: note_on channel=9 note=38 velocity=127 time=0
EXTRACT: note_on channel=9 note=42 velocity=127 time=0
EXTRACT: note_off channel=9 note=42 velocity=127 time=0.029761666666666662
EXTRACT: note_off channel=9 note=38 velocity=127 time=0
EXTRACT: note_on channel=6 note=62 velocity=100 time=0.31435760416666664
EXTRACT: note_off channel=1 note=64 velocity=100 time=0.013020729166666665
EXTRACT: note_off channel=1 note=59 velocity=100 time=0
EXTRACT: note_off channel=1 note=52 velocity=100 time=0
EXTRACT: note_off channel=1 note=47 velocity=100 time=0
EXTRACT: note_off channel=1 note=40 velocity=100 time=0
EXTRACT: note_off channel=1 note=56 velocity=100 time=0
EXTRACT: note_on channel=1 note=56 velocity=100 time=0
EXTRACT: note_on channel=1 note=40 velocity=100 time=0
EXTRACT: note_on channel=1 note=47 velocity=100 time=0
EXTRACT: note_on channel=1 note=52 velocity=100 time=0
EXTRACT: note_on channel=1 note=59 velocity=100 time=0
EXTRACT: note_on channel=1 note=64 velocity=100 time=0
EXTRACT: note_off channel=5 note=28 velocity=100 time=0
EXTRACT: note_on channel=5 note=28 velocity=100 time=0
EXTRACT: note_on channel=9 note=42 velocity=127 time=0
EXTRACT: note_off channel=6 note=64 velocity=100 time=0.022321249999999997
EXTRACT: note_off channel=9 note=42 velocity=127 time=0.0074404166666666655
EXTRACT: note_off channel=5 note=28 velocity=100 time=0.14880833333333332
EXTRACT: note_on channel=5 note=28 velocity=100 time=0
EXTRACT: note_on channel=9 note=38 velocity=127 time=0
EXTRACT: note_off channel=9 note=38 velocity=127 time=0.029761666666666662
EXTRACT: note_off channel=1 note=64 velocity=100 time=0.14880833333333332
EXTRACT: note_off channel=1 note=59 velocity=100 time=0
EXTRACT: note_off channel=1 note=52 velocity=100 time=0
EXTRACT: note_off channel=1 note=47 velocity=100 time=0
EXTRACT: note_off channel=1 note=40 velocity=100 time=0
EXTRACT: note_off channel=1 note=56 velocity=100 time=0
EXTRACT: note_on channel=1 note=41 velocity=100 time=0
EXTRACT: note_on channel=1 note=48 velocity=100 time=0
EXTRACT: note_on channel=1 note=53 velocity=100 time=0
EXTRACT: note_on channel=1 note=57 velocity=100 time=0
EXTRACT: note_on channel=1 note=60 velocity=100 time=0
EXTRACT: note_off channel=5 note=28 velocity=100 time=0
EXTRACT: note_on channel=5 note=29 velocity=100 time=0
EXTRACT: note_on channel=9 note=35 velocity=127 time=0
EXTRACT: note_on channel=9 note=36 velocity=127 time=0
EXTRACT: note_on channel=9 note=42 velocity=127 time=0
EXTRACT: sysex data=(65,16,69,18,16,0,0,68,79,78,39,84,32,76,79,79,75,32,66,65,67,75,32,73,78,32,65,78,71,69,82,32,45,79,65,83,73,83,126) time=0
EXTRACT: note_off channel=9 note=42 velocity=127 time=0.029761666666666662
EXTRACT: note_off channel=9 note=36 velocity=127 time=0
EXTRACT: note_off channel=9 note=35 velocity=127 time=0.059523333333333324
EXTRACT: note_on channel=6 note=60 velocity=100 time=0.06510364583333332
EXTRACT: note_off channel=6 note=62 velocity=100 time=0.011160624999999999
EXTRACT: note_on channel=9 note=38 velocity=127 time=0.013020729166666665
EXTRACT: note_off channel=9 note=38 velocity=127 time=0.029761666666666662
EXTRACT: note_off channel=6 note=60 velocity=100 time=0.12462697916666665
EXTRACT: note_off channel=5 note=29 velocity=100 time=0.024181354166666662
EXTRACT: note_on channel=5 note=29 velocity=100 time=0
EXTRACT: note_on channel=9 note=42 velocity=127 time=0
EXTRACT: note_on channel=6 note=57 velocity=100 time=0.022321249999999997
EXTRACT: note_off channel=9 note=42 velocity=127 time=0.0074404166666666655
EXTRACT: note_off channel=1 note=60 velocity=100 time=0.32737833333333327
EXTRACT: note_off channel=1 note=57 velocity=100 time=0
EXTRACT: note_off channel=1 note=53 velocity=100 time=0
EXTRACT: note_off channel=1 note=48 velocity=100 time=0
EXTRACT: note_off channel=1 note=41 velocity=100 time=0
EXTRACT: note_on channel=1 note=41 velocity=100 time=0
EXTRACT: note_on channel=1 note=48 velocity=100 time=0
EXTRACT: note_on channel=1 note=53 velocity=100 time=0
EXTRACT: note_on channel=1 note=57 velocity=100 time=0
EXTRACT: note_on channel=1 note=60 velocity=100 time=0
EXTRACT: note_off channel=5 note=29 velocity=100 time=0
EXTRACT: note_on channel=5 note=29 velocity=100 time=0
EXTRACT: note_on channel=9 note=38 velocity=127 time=0
EXTRACT: note_on channel=9 note=42 velocity=127 time=0
EXTRACT: sysex data=(65,16,69,18,16,1,0,0,0,0,0,0,0,0,0,0,0,0,0,0,0,0,0,0,0,0,0,0,0,0,0,0,0,0,0,0,0,0,0,0,0,0,0,0,0,0,0,0,0,0,0,0,0,0,0,0,0,0,0,0,0,0,0,0,0,0,0,0,0,0,0,111) time=0
EXTRACT: note_off channel=6 note=57 velocity=100 time=0.022321249999999997
EXTRACT: note_off channel=9 note=42 velocity=127 time=0.0074404166666666655
EXTRACT: note_off channel=9 note=38 velocity=127 time=0
EXTRACT: note_off channel=1 note=60 velocity=100 time=0.32737833333333327
EXTRACT: note_off channel=1 note=57 velocity=100 time=0
EXTRACT: note_off channel=1 note=53 velocity=100 time=0
EXTRACT: note_off channel=1 note=48 velocity=100 time=0
EXTRACT: note_off channel=1 note=41 velocity=100 time=0
EXTRACT: note_on channel=1 note=41 velocity=100 time=0
EXTRACT: note_on channel=1 note=48 velocity=100 time=0
EXTRACT: note_on channel=1 note=53 velocity=100 time=0
EXTRACT: note_on channel=1 note=57 velocity=100 time=0
EXTRACT: note_on channel=1 note=60 velocity=100 time=0
EXTRACT: note_off channel=5 note=29 velocity=100 time=0
EXTRACT: note_on channel=5 note=30 velocity=100 time=0
EXTRACT: note_on channel=9 note=42 velocity=127 time=0
EXTRACT: note_off channel=9 note=42 velocity=127 time=0.029761666666666662
EXTRACT: note_on channel=9 note=38 velocity=127 time=0.14880833333333332
EXTRACT: note_off channel=9 note=38 velocity=127 time=0.029761666666666662
EXTRACT: note_off channel=1 note=60 velocity=100 time=0.14880833333333332
EXTRACT: note_off channel=1 note=57 velocity=100 time=0
EXTRACT: note_off channel=1 note=53 velocity=100 time=0
EXTRACT: note_off channel=1 note=48 velocity=100 time=0
EXTRACT: note_off channel=1 note=41 velocity=100 time=0
EXTRACT: note_on channel=1 note=43 velocity=100 time=0
EXTRACT: note_on channel=1 note=50 velocity=100 time=0
EXTRACT: note_on channel=1 note=55 velocity=100 time=0
EXTRACT: note_on channel=1 note=59 velocity=100 time=0
EXTRACT: note_on channel=1 note=62 velocity=100 time=0
EXTRACT: note_off channel=5 note=30 velocity=100 time=0
EXTRACT: note_on channel=5 note=31 velocity=100 time=0
EXTRACT: note_on channel=9 note=35 velocity=127 time=0
EXTRACT: note_on channel=9 note=36 velocity=127 time=0
EXTRACT: note_on channel=9 note=42 velocity=127 time=0
EXTRACT: sysex data=(65,16,69,18,16,1,0,0,0,0,0,0,0,0,0,0,0,0,0,0,0,0,0,0,0,0,0,0,0,0,0,0,0,0,0,0,0,0,0,0,0,0,0,0,0,0,0,0,0,0,0,0,0,0,0,0,0,0,0,0,0,0,0,0,0,0,0,0,0,0,0,111) time=0
EXTRACT: note_off channel=9 note=42 velocity=127 time=0.029761666666666662
EXTRACT: note_off channel=9 note=36 velocity=127 time=0
EXTRACT: note_off channel=9 note=35 velocity=127 time=0.059523333333333324
EXTRACT: note_on channel=6 note=57 velocity=100 time=0.059523333333333324
EXTRACT: note_on channel=9 note=38 velocity=127 time=0.029761666666666662
EXTRACT: note_off channel=9 note=38 velocity=127 time=0.029761666666666662
EXTRACT: note_off channel=6 note=57 velocity=100 time=0.11904666666666665
EXTRACT: note_off channel=1 note=62 velocity=100 time=0.029761666666666662
EXTRACT: note_off channel=1 note=59 velocity=100 time=0
EXTRACT: note_off channel=1 note=55 velocity=100 time=0
EXTRACT: note_off channel=1 note=50 velocity=100 time=0
EXTRACT: note_off channel=1 note=43 velocity=100 time=0
EXTRACT: note_on channel=1 note=43 velocity=100 time=0
EXTRACT: note_on channel=1 note=50 velocity=100 time=0
EXTRACT: note_on channel=1 note=55 velocity=100 time=0
EXTRACT: note_on channel=1 note=59 velocity=100 time=0
EXTRACT: note_on channel=1 note=62 velocity=100 time=0
EXTRACT: note_off channel=5 note=31 velocity=100 time=0
EXTRACT: note_on channel=5 note=31 velocity=100 time=0
EXTRACT: note_on channel=9 note=35 velocity=127 time=0
EXTRACT: note_on channel=9 note=36 velocity=127 time=0
EXTRACT: note_on channel=9 note=42 velocity=127 time=0
EXTRACT: note_on channel=6 note=60 velocity=100 time=0.011160624999999999
EXTRACT: note_off channel=9 note=42 velocity=127 time=0.018601041666666665
EXTRACT: note_off channel=9 note=36 velocity=127 time=0
EXTRACT: note_off channel=9 note=35 velocity=127 time=0.059523333333333324
EXTRACT: note_on channel=6 note=57 velocity=100 time=0.08928499999999999
EXTRACT: note_off channel=6 note=60 velocity=100 time=0.011160624999999999
EXTRACT: note_on channel=6 note=60 velocity=100 time=0.1543886458333333
EXTRACT: note_off channel=1 note=62 velocity=100 time=0.013020729166666665
EXTRACT: note_off channel=1 note=59 velocity=100 time=0
EXTRACT: note_off channel=1 note=55 velocity=100 time=0
EXTRACT: note_off channel=1 note=50 velocity=100 time=0
EXTRACT: note_off channel=1 note=43 velocity=100 time=0
EXTRACT: note_on channel=1 note=43 velocity=100 time=0
EXTRACT: note_on channel=1 note=50 velocity=100 time=0
EXTRACT: note_on channel=1 note=55 velocity=100 time=0
EXTRACT: note_on channel=1 note=59 velocity=100 time=0
EXTRACT: note_on channel=1 note=62 velocity=100 time=0
EXTRACT: note_off channel=5 note=31 velocity=100 time=0
EXTRACT: note_on channel=5 note=31 velocity=100 time=0
EXTRACT: note_off channel=6 note=57 velocity=100 time=0
EXTRACT: note_on channel=9 note=38 velocity=127 time=0
EXTRACT: note_on channel=9 note=42 velocity=127 time=0
EXTRACT: sysex data=(65,16,69,18,16,1,0,0,0,0,0,0,0,0,0,0,0,0,0,0,0,0,0,0,0,0,0,0,0,0,0,0,0,0,0,0,0,0,0,0,0,0,0,0,0,0,0,0,0,0,0,0,0,0,0,0,0,0,0,0,0,0,0,0,0,0,0,0,0,0,0,111) time=0
EXTRACT: note_off channel=9 note=42 velocity=127 time=0.029761666666666662
EXTRACT: note_off channel=9 note=38 velocity=127 time=0
EXTRACT: note_off channel=6 note=60 velocity=100 time=0.31435760416666664
EXTRACT: note_on channel=6 note=57 velocity=100 time=0
EXTRACT: note_off channel=1 note=62 velocity=100 time=0.013020729166666665
EXTRACT: note_off channel=1 note=59 velocity=100 time=0
EXTRACT: note_off channel=1 note=55 velocity=100 time=0
EXTRACT: note_off channel=1 note=50 velocity=100 time=0
EXTRACT: note_off channel=1 note=43 velocity=100 time=0
EXTRACT: note_on channel=1 note=43 velocity=100 time=0
EXTRACT: note_on channel=1 note=50 velocity=100 time=0
EXTRACT: note_on channel=1 note=55 velocity=100 time=0
EXTRACT: note_on channel=1 note=59 velocity=100 time=0
EXTRACT: note_on channel=1 note=62 velocity=100 time=0
EXTRACT: note_off channel=5 note=31 velocity=100 time=0
EXTRACT: note_on channel=5 note=35 velocity=100 time=0
EXTRACT: note_on channel=9 note=42 velocity=127 time=0
EXTRACT: note_off channel=9 note=42 velocity=127 time=0.029761666666666662
EXTRACT: note_off channel=6 note=57 velocity=100 time=0.13578760416666666
EXTRACT: note_on channel=6 note=60 velocity=100 time=0.013020729166666665
EXTRACT: note_on channel=9 note=38 velocity=127 time=0
EXTRACT: note_off channel=9 note=38 velocity=127 time=0.029761666666666662
EXTRACT: note_on channel=9 note=38 velocity=127 time=0.029761666666666662
EXTRACT: note_off channel=9 note=38 velocity=127 time=0.029761666666666662
EXTRACT: note_off channel=1 note=62 velocity=100 time=0.08928499999999999
EXTRACT: note_off channel=1 note=59 velocity=100 time=0
EXTRACT: note_off channel=1 note=55 velocity=100 time=0
EXTRACT: note_off channel=1 note=50 velocity=100 time=0
EXTRACT: note_off channel=1 note=43 velocity=100 time=0
EXTRACT: note_on channel=1 note=48 velocity=100 time=0
EXTRACT: note_on channel=1 note=52 velocity=100 time=0
EXTRACT: note_on channel=1 note=55 velocity=100 time=0
EXTRACT: note_on channel=1 note=60 velocity=100 time=0
EXTRACT: note_on channel=1 note=64 velocity=100 time=0
EXTRACT: note_off channel=5 note=35 velocity=100 time=0
EXTRACT: note_on channel=5 note=36 velocity=100 time=0
EXTRACT: note_on channel=9 note=35 velocity=127 time=0
EXTRACT: note_on channel=9 note=36 velocity=127 time=0
EXTRACT: note_on channel=9 note=42 velocity=127 time=0
EXTRACT: sysex data=(65,16,69,18,16,1,0,0,0,0,0,0,0,0,0,0,0,0,0,0,0,0,0,0,0,0,0,0,0,0,0,0,0,0,0,0,0,0,0,0,0,0,0,0,0,0,0,0,0,0,0,0,0,0,0,0,0,0,0,0,0,0,0,0,0,0,0,0,0,0,0,111) time=0
EXTRACT: note_off channel=9 note=42 velocity=127 time=0.029761666666666662
EXTRACT: note_off channel=9 note=36 velocity=127 time=0
EXTRACT: note_off channel=9 note=35 velocity=127 time=0.059523333333333324
EXTRACT: note_off channel=6 note=60 velocity=100 time=0.08928499999999999
EXTRACT: note_on channel=9 note=38 velocity=127 time=0
EXTRACT: note_on channel=6 note=57 velocity=100 time=0.029761666666666662
EXTRACT: note_off channel=9 note=38 velocity=127 time=0
EXTRACT: note_on channel=6 note=55 velocity=100 time=0.10602593749999999
EXTRACT: note_on channel=9 note=42 velocity=127 time=0.04278239583333333
EXTRACT: note_off channel=6 note=57 velocity=100 time=0.029761666666666662
EXTRACT: note_off channel=9 note=42 velocity=127 time=0
EXTRACT: note_off channel=6 note=55 velocity=100 time=0.28459593749999995
EXTRACT: note_off channel=1 note=64 velocity=100 time=0.04278239583333333
EXTRACT: note_off channel=1 note=60 velocity=100 time=0
EXTRACT: note_off channel=1 note=55 velocity=100 time=0
EXTRACT: note_off channel=1 note=52 velocity=100 time=0
EXTRACT: note_off channel=1 note=48 velocity=100 time=0
EXTRACT: note_on channel=1 note=48 velocity=100 time=0
EXTRACT: note_on channel=1 note=52 velocity=100 time=0
EXTRACT: note_on channel=1 note=55 velocity=100 time=0
EXTRACT: note_on channel=1 note=60 velocity=100 time=0
EXTRACT: note_on channel=1 note=64 velocity=100 time=0
EXTRACT: note_off channel=5 note=36 velocity=100 time=0
EXTRACT: note_on channel=5 note=36 velocity=100 time=0
EXTRACT: note_on channel=9 note=38 velocity=127 time=0
EXTRACT: note_on channel=9 note=42 velocity=127 time=0
EXTRACT: sysex data=(65,16,69,18,16,1,0,0,0,0,0,0,0,0,0,0,0,0,0,0,0,0,0,0,0,0,0,0,0,0,0,0,0,0,0,0,0,0,0,0,0,0,0,0,0,0,0,0,0,0,0,0,0,0,0,0,0,0,0,0,0,0,0,0,0,0,0,0,0,0,0,111) time=0
EXTRACT: note_off channel=9 note=38 velocity=127 time=0.005580312499999999
EXTRACT: note_off channel=9 note=42 velocity=127 time=0.024181354166666662
EXTRACT: note_off channel=1 note=64 velocity=100 time=0.32737833333333327
EXTRACT: note_off channel=1 note=60 velocity=100 time=0
EXTRACT: note_off channel=1 note=55 velocity=100 time=0
EXTRACT: note_off channel=1 note=52 velocity=100 time=0
EXTRACT: note_off channel=1 note=48 velocity=100 time=0
EXTRACT: note_on channel=1 note=48 velocity=100 time=0
EXTRACT: note_on channel=1 note=52 velocity=100 time=0
EXTRACT: note_on channel=1 note=55 velocity=100 time=0
EXTRACT: note_on channel=1 note=60 velocity=100 time=0
EXTRACT: note_on channel=1 note=64 velocity=100 time=0
EXTRACT: note_off channel=5 note=36 velocity=100 time=0
EXTRACT: note_on channel=5 note=36 velocity=100 time=0
EXTRACT: note_on channel=9 note=42 velocity=127 time=0
EXTRACT: note_off channel=9 note=42 velocity=127 time=0.029761666666666662
EXTRACT: note_on channel=9 note=38 velocity=127 time=0.14880833333333332
EXTRACT: note_off channel=9 note=38 velocity=127 time=0.029761666666666662
EXTRACT: note_off channel=1 note=64 velocity=100 time=0.14880833333333332
EXTRACT: note_off channel=1 note=60 velocity=100 time=0
EXTRACT: note_off channel=1 note=55 velocity=100 time=0
EXTRACT: note_off channel=1 note=52 velocity=100 time=0
EXTRACT: note_off channel=1 note=48 velocity=100 time=0
EXTRACT: note_on channel=1 note=45 velocity=100 time=0
EXTRACT: note_on channel=1 note=52 velocity=100 time=0
EXTRACT: note_on channel=1 note=57 velocity=100 time=0
EXTRACT: note_on channel=1 note=60 velocity=100 time=0
EXTRACT: note_on channel=1 note=64 velocity=100 time=0
EXTRACT: note_off channel=5 note=36 velocity=100 time=0
EXTRACT: note_on channel=5 note=33 velocity=100 time=0
EXTRACT: note_on channel=9 note=35 velocity=127 time=0
EXTRACT: note_on channel=9 note=36 velocity=127 time=0
EXTRACT: note_on channel=9 note=42 velocity=127 time=0
EXTRACT: sysex data=(65,16,69,18,16,1,0,0,0,0,0,0,0,0,0,0,0,0,0,0,0,0,0,0,0,0,0,0,0,0,0,0,0,0,0,0,0,0,0,0,0,0,0,0,0,0,0,0,0,0,0,0,0,0,0,0,0,0,0,0,0,0,0,0,0,0,0,0,0,0,0,111) time=0
EXTRACT: note_off channel=9 note=42 velocity=127 time=0.029761666666666662
EXTRACT: note_off channel=9 note=36 velocity=127 time=0
EXTRACT: note_off channel=9 note=35 velocity=127 time=0.059523333333333324
EXTRACT: note_on channel=9 note=38 velocity=127 time=0.08928499999999999
EXTRACT: note_off channel=9 note=38 velocity=127 time=0.029761666666666662
EXTRACT: note_off channel=1 note=64 velocity=100 time=0.14880833333333332
EXTRACT: note_off channel=1 note=60 velocity=100 time=0
EXTRACT: note_off channel=1 note=57 velocity=100 time=0
EXTRACT: note_off channel=1 note=52 velocity=100 time=0
EXTRACT: note_off channel=1 note=45 velocity=100 time=0
EXTRACT: note_on channel=1 note=45 velocity=100 time=0
EXTRACT: note_on channel=1 note=52 velocity=100 time=0
EXTRACT: note_on channel=1 note=57 velocity=100 time=0
EXTRACT: note_on channel=1 note=60 velocity=100 time=0
EXTRACT: note_on channel=1 note=64 velocity=100 time=0
EXTRACT: note_off channel=5 note=33 velocity=100 time=0
EXTRACT: note_on channel=5 note=33 velocity=100 time=0
EXTRACT: note_on channel=9 note=35 velocity=127 time=0
EXTRACT: note_on channel=9 note=36 velocity=127 time=0
EXTRACT: note_on channel=9 note=42 velocity=127 time=0
EXTRACT: note_off channel=9 note=42 velocity=127 time=0.029761666666666662
EXTRACT: note_off channel=9 note=36 velocity=127 time=0
EXTRACT: note_off channel=9 note=35 velocity=127 time=0.059523333333333324
EXTRACT: note_off channel=1 note=64 velocity=100 time=0.08928499999999999
EXTRACT: note_off channel=1 note=60 velocity=100 time=0
EXTRACT: note_off channel=1 note=57 velocity=100 time=0
EXTRACT: note_off channel=1 note=52 velocity=100 time=0
EXTRACT: note_off channel=1 note=45 velocity=100 time=0
EXTRACT: note_on channel=1 note=45 velocity=100 time=0
EXTRACT: note_on channel=1 note=52 velocity=100 time=0
EXTRACT: note_on channel=1 note=57 velocity=100 time=0
EXTRACT: note_on channel=1 note=60 velocity=100 time=0
EXTRACT: note_on channel=1 note=64 velocity=100 time=0
EXTRACT: note_off channel=1 note=64 velocity=100 time=0.17856999999999998
EXTRACT: note_off channel=1 note=60 velocity=100 time=0
EXTRACT: note_off channel=1 note=57 velocity=100 time=0
EXTRACT: note_off channel=1 note=52 velocity=100 time=0
EXTRACT: note_off channel=1 note=45 velocity=100 time=0
EXTRACT: note_on channel=1 note=43 velocity=100 time=0
EXTRACT: note_on channel=1 note=50 velocity=100 time=0
EXTRACT: note_on channel=1 note=55 velocity=100 time=0
EXTRACT: note_on channel=1 note=59 velocity=100 time=0
EXTRACT: note_on channel=1 note=67 velocity=100 time=0
EXTRACT: note_off channel=5 note=33 velocity=100 time=0
EXTRACT: note_on channel=5 note=31 velocity=100 time=0
EXTRACT: note_on channel=9 note=38 velocity=127 time=0
EXTRACT: note_on channel=9 note=42 velocity=127 time=0
EXTRACT: sysex data=(65,16,69,18,16,1,0,0,0,0,0,0,0,0,0,0,0,0,0,0,0,0,0,0,0,0,0,0,0,0,0,0,0,0,0,0,0,0,0,0,0,0,0,0,0,0,0,0,0,0,0,0,0,0,0,0,0,0,0,0,0,0,0,0,0,0,0,0,0,0,0,111) time=0
EXTRACT: note_off channel=9 note=38 velocity=127 time=0.016740937499999997
EXTRACT: note_off channel=9 note=42 velocity=127 time=0.013020729166666665
EXTRACT: note_on channel=9 note=38 velocity=127 time=0.14880833333333332
EXTRACT: note_off channel=9 note=38 velocity=127 time=0.029761666666666662
EXTRACT: note_off channel=1 note=67 velocity=100 time=0.14880833333333332
EXTRACT: note_off channel=1 note=59 velocity=100 time=0
EXTRACT: note_off channel=1 note=55 velocity=100 time=0
EXTRACT: note_off channel=1 note=50 velocity=100 time=0
EXTRACT: note_off channel=1 note=43 velocity=100 time=0
EXTRACT: note_on channel=1 note=43 velocity=100 time=0
EXTRACT: note_on channel=1 note=50 velocity=100 time=0
EXTRACT: note_on channel=1 note=55 velocity=100 time=0
EXTRACT: note_on channel=1 note=59 velocity=100 time=0
EXTRACT: note_on channel=1 note=67 velocity=100 time=0
EXTRACT: note_off channel=5 note=31 velocity=100 time=0
EXTRACT: note_on channel=5 note=35 velocity=100 time=0
EXTRACT: note_on channel=9 note=42 velocity=127 time=0
EXTRACT: note_off channel=9 note=42 velocity=127 time=0.029761666666666662
EXTRACT: note_on channel=9 note=38 velocity=127 time=0.14880833333333332
EXTRACT: note_off channel=9 note=38 velocity=127 time=0.029761666666666662
EXTRACT: note_off channel=1 note=67 velocity=100 time=0.14880833333333332
EXTRACT: note_off channel=1 note=59 velocity=100 time=0
EXTRACT: note_off channel=1 note=55 velocity=100 time=0
EXTRACT: note_off channel=1 note=50 velocity=100 time=0
EXTRACT: note_off channel=1 note=43 velocity=100 time=0
EXTRACT: note_on channel=1 note=48 velocity=100 time=0
EXTRACT: note_on channel=1 note=52 velocity=100 time=0
EXTRACT: note_on channel=1 note=55 velocity=100 time=0
EXTRACT: note_on channel=1 note=60 velocity=100 time=0
EXTRACT: note_on channel=1 note=64 velocity=100 time=0
EXTRACT: note_off channel=5 note=35 velocity=100 time=0
EXTRACT: note_on channel=5 note=36 velocity=100 time=0
EXTRACT: note_on channel=6 note=64 velocity=100 time=0
EXTRACT: note_on channel=9 note=35 velocity=127 time=0
EXTRACT: note_on channel=9 note=36 velocity=127 time=0
EXTRACT: note_on channel=9 note=42 velocity=127 time=0
EXTRACT: sysex data=(65,16,69,18,16,1,0,0,0,0,0,0,0,0,0,0,0,0,0,0,0,0,0,0,0,0,0,0,0,0,0,0,0,0,0,0,0,0,0,0,0,0,0,0,0,0,0,0,0,0,0,0,0,0,0,0,0,0,0,0,0,0,0,0,0,0,0,0,0,0,0,111) time=0
EXTRACT: note_off channel=9 note=42 velocity=127 time=0.029761666666666662
EXTRACT: note_off channel=9 note=36 velocity=127 time=0
EXTRACT: note_off channel=9 note=35 velocity=127 time=0.059523333333333324
EXTRACT: note_off channel=6 note=64 velocity=100 time=0.26785499999999995
EXTRACT: note_on channel=9 note=42 velocity=127 time=0
EXTRACT: note_on channel=6 note=62 velocity=100 time=0.022321249999999997
EXTRACT: note_off channel=9 note=42 velocity=127 time=0.0074404166666666655
EXTRACT: note_on channel=5 note=36 velocity=100 time=0.28459593749999995
EXTRACT: note_off channel=1 note=64 velocity=100 time=0.04278239583333333
EXTRACT: note_off channel=1 note=60 velocity=100 time=0
EXTRACT: note_off channel=1 note=55 velocity=100 time=0
EXTRACT: note_off channel=1 note=52 velocity=100 time=0
EXTRACT: note_off channel=1 note=48 velocity=100 time=0
EXTRACT: note_on channel=1 note=48 velocity=100 time=0
EXTRACT: note_on channel=1 note=52 velocity=100 time=0
EXTRACT: note_on channel=1 note=55 velocity=100 time=0
EXTRACT: note_on channel=1 note=60 velocity=100 time=0
EXTRACT: note_on channel=1 note=64 velocity=100 time=0
EXTRACT: note_off channel=5 note=36 velocity=100 time=0
EXTRACT: note_on channel=9 note=38 velocity=127 time=0
EXTRACT: note_on channel=9 note=42 velocity=127 time=0
EXTRACT: sysex data=(65,16,69,18,16,1,0,0,0,0,0,0,0,0,0,0,0,0,0,0,0,0,0,0,0,0,0,0,0,0,0,0,0,0,0,0,0,0,0,0,0,0,0,0,0,0,0,0,0,0,0,0,0,0,0,0,0,0,0,0,0,0,0,0,0,0,0,0,0,0,0,111) time=0
EXTRACT: note_off channel=9 note=42 velocity=127 time=0.029761666666666662
EXTRACT: note_off channel=9 note=38 velocity=127 time=0
EXTRACT: note_off channel=5 note=36 velocity=100 time=0.28459593749999995
EXTRACT: note_off channel=1 note=64 velocity=100 time=0.04278239583333333
EXTRACT: note_off channel=1 note=60 velocity=100 time=0
EXTRACT: note_off channel=1 note=55 velocity=100 time=0
EXTRACT: note_off channel=1 note=52 velocity=100 time=0
EXTRACT: note_off channel=1 note=48 velocity=100 time=0
EXTRACT: note_on channel=1 note=48 velocity=100 time=0
EXTRACT: note_on channel=1 note=52 velocity=100 time=0
EXTRACT: note_on channel=1 note=55 velocity=100 time=0
EXTRACT: note_on channel=1 note=60 velocity=100 time=0
EXTRACT: note_on channel=1 note=64 velocity=100 time=0
EXTRACT: note_on channel=9 note=42 velocity=127 time=0
EXTRACT: note_on channel=5 note=35 velocity=100 time=0.022321249999999997
EXTRACT: note_off channel=6 note=62 velocity=100 time=0
EXTRACT: note_on channel=6 note=60 velocity=100 time=0
EXTRACT: note_off channel=9 note=42 velocity=127 time=0.0074404166666666655
EXTRACT: note_on channel=9 note=38 velocity=127 time=0.14880833333333332
EXTRACT: note_on channel=6 note=62 velocity=100 time=0.011160624999999999
EXTRACT: note_off channel=6 note=60 velocity=100 time=0.011160624999999999
EXTRACT: note_off channel=9 note=38 velocity=127 time=0.0074404166666666655
EXTRACT: note_off channel=1 note=64 velocity=100 time=0.14880833333333332
EXTRACT: note_off channel=1 note=60 velocity=100 time=0
EXTRACT: note_off channel=1 note=55 velocity=100 time=0
EXTRACT: note_off channel=1 note=52 velocity=100 time=0
EXTRACT: note_off channel=1 note=48 velocity=100 time=0
EXTRACT: note_on channel=1 note=43 velocity=100 time=0
EXTRACT: note_on channel=1 note=50 velocity=100 time=0
EXTRACT: note_on channel=1 note=55 velocity=100 time=0
EXTRACT: note_on channel=1 note=59 velocity=100 time=0
EXTRACT: note_on channel=1 note=67 velocity=100 time=0
EXTRACT: note_on channel=9 note=35 velocity=127 time=0
EXTRACT: note_on channel=9 note=36 velocity=127 time=0
EXTRACT: note_on channel=9 note=42 velocity=127 time=0
EXTRACT: sysex data=(65,16,69,18,16,1,0,0,0,0,0,0,0,0,0,0,0,0,0,0,0,0,0,0,0,0,0,0,0,0,0,0,0,0,0,0,0,0,0,0,0,0,0,0,0,0,0,0,0,0,0,0,0,0,0,0,0,0,0,0,0,0,0,0,0,0,0,0,0,0,0,111) time=0
EXTRACT: note_off channel=5 note=35 velocity=100 time=0.022321249999999997
EXTRACT: note_on channel=5 note=31 velocity=100 time=0
EXTRACT: note_off channel=9 note=42 velocity=127 time=0.0074404166666666655
EXTRACT: note_off channel=9 note=36 velocity=127 time=0
EXTRACT: note_off channel=9 note=35 velocity=127 time=0.059523333333333324
EXTRACT: note_on channel=5 note=31 velocity=100 time=0.26785499999999995
EXTRACT: note_on channel=9 note=35 velocity=127 time=0
EXTRACT: note_on channel=9 note=36 velocity=127 time=0
EXTRACT: note_on channel=9 note=42 velocity=127 time=0
EXTRACT: note_off channel=6 note=62 velocity=100 time=0.011160624999999999
EXTRACT: note_off channel=5 note=31 velocity=100 time=0.011160624999999999
EXTRACT: note_on channel=6 note=60 velocity=100 time=0
EXTRACT: note_off channel=9 note=42 velocity=127 time=0.0074404166666666655
EXTRACT: note_off channel=9 note=36 velocity=127 time=0
EXTRACT: note_off channel=9 note=35 velocity=127 time=0.059523333333333324
EXTRACT: note_on channel=6 note=64 velocity=100 time=0.22507260416666663
EXTRACT: note_off channel=1 note=67 velocity=100 time=0.04278239583333333
EXTRACT: note_off channel=1 note=59 velocity=100 time=0
EXTRACT: note_off channel=1 note=55 velocity=100 time=0
EXTRACT: note_off channel=1 note=50 velocity=100 time=0
EXTRACT: note_off channel=1 note=43 velocity=100 time=0
EXTRACT: note_on channel=1 note=43 velocity=100 time=0
EXTRACT: note_on channel=1 note=50 velocity=100 time=0
EXTRACT: note_on channel=1 note=55 velocity=100 time=0
EXTRACT: note_on channel=1 note=59 velocity=100 time=0
EXTRACT: note_on channel=1 note=67 velocity=100 time=0
EXTRACT: note_off channel=5 note=31 velocity=100 time=0
EXTRACT: note_on channel=5 note=31 velocity=100 time=0
EXTRACT: note_on channel=9 note=38 velocity=127 time=0
EXTRACT: note_on channel=9 note=42 velocity=127 time=0
EXTRACT: sysex data=(65,16,69,18,16,1,0,0,0,0,0,0,0,0,0,0,0,0,0,0,0,0,0,0,0,0,0,0,0,0,0,0,0,0,0,0,0,0,0,0,0,0,0,0,0,0,0,0,0,0,0,0,0,0,0,0,0,0,0,0,0,0,0,0,0,0,0,0,0,0,0,111) time=0
EXTRACT: note_off channel=6 note=60 velocity=100 time=0.022321249999999997
EXTRACT: note_off channel=9 note=42 velocity=127 time=0.0074404166666666655
EXTRACT: note_off channel=9 note=38 velocity=127 time=0
EXTRACT: note_off channel=6 note=64 velocity=100 time=0.28459593749999995
EXTRACT: note_off channel=1 note=67 velocity=100 time=0.04278239583333333
EXTRACT: note_off channel=1 note=59 velocity=100 time=0
EXTRACT: note_off channel=1 note=55 velocity=100 time=0
EXTRACT: note_off channel=1 note=50 velocity=100 time=0
EXTRACT: note_off channel=1 note=43 velocity=100 time=0
EXTRACT: note_on channel=1 note=43 velocity=100 time=0
EXTRACT: note_on channel=1 note=50 velocity=100 time=0
EXTRACT: note_on channel=1 note=55 velocity=100 time=0
EXTRACT: note_on channel=1 note=59 velocity=100 time=0
EXTRACT: note_on channel=1 note=67 velocity=100 time=0
EXTRACT: note_off channel=5 note=31 velocity=100 time=0
EXTRACT: note_on channel=5 note=31 velocity=100 time=0
EXTRACT: note_on channel=9 note=42 velocity=127 time=0
EXTRACT: note_on channel=6 note=62 velocity=100 time=0.011160624999999999
EXTRACT: note_off channel=9 note=42 velocity=127 time=0.018601041666666665
EXTRACT: note_off channel=5 note=31 velocity=100 time=0.14880833333333332
EXTRACT: note_on channel=5 note=32 velocity=100 time=0
EXTRACT: note_on channel=9 note=38 velocity=127 time=0
EXTRACT: note_off channel=9 note=38 velocity=127 time=0.029761666666666662
EXTRACT: note_on channel=9 note=38 velocity=127 time=0.029761666666666662
EXTRACT: note_off channel=9 note=38 velocity=127 time=0.029761666666666662
EXTRACT: note_off channel=1 note=67 velocity=100 time=0.08928499999999999
EXTRACT: note_off channel=1 note=59 velocity=100 time=0
EXTRACT: note_off channel=1 note=55 velocity=100 time=0
EXTRACT: note_off channel=1 note=50 velocity=100 time=0
EXTRACT: note_off channel=1 note=43 velocity=100 time=0
EXTRACT: note_on channel=1 note=45 velocity=100 time=0
EXTRACT: note_on channel=1 note=52 velocity=100 time=0
EXTRACT: note_on channel=1 note=57 velocity=100 time=0
EXTRACT: note_on channel=1 note=60 velocity=100 time=0
EXTRACT: note_on channel=1 note=64 velocity=100 time=0
EXTRACT: note_off channel=5 note=32 velocity=100 time=0
EXTRACT: note_on channel=5 note=33 velocity=100 time=0
EXTRACT: note_on channel=9 note=35 velocity=127 time=0
EXTRACT: note_on channel=9 note=36 velocity=127 time=0
EXTRACT: note_on channel=9 note=42 velocity=127 time=0
EXTRACT: sysex data=(65,16,69,18,16,1,0,0,0,0,0,0,0,0,0,0,0,0,0,0,0,0,0,0,0,0,0,0,0,0,0,0,0,0,0,0,0,0,0,0,0,0,0,0,0,0,0,0,0,0,0,0,0,0,0,0,0,0,0,0,0,0,0,0,0,0,0,0,0,0,0,111) time=0
EXTRACT: note_off channel=9 note=42 velocity=127 time=0.029761666666666662
EXTRACT: note_off channel=9 note=36 velocity=127 time=0
EXTRACT: note_off channel=9 note=35 velocity=127 time=0.059523333333333324
EXTRACT: note_off channel=6 note=62 velocity=100 time=0.10044562499999998
EXTRACT: note_on channel=6 note=60 velocity=100 time=0.011160624999999999
EXTRACT: note_on channel=9 note=42 velocity=127 time=0.15624874999999996
EXTRACT: note_on channel=6 note=57 velocity=100 time=0.011160624999999999
EXTRACT: note_off channel=6 note=60 velocity=100 time=0.011160624999999999
EXTRACT: note_off channel=9 note=42 velocity=127 time=0.0074404166666666655
EXTRACT: note_off channel=1 note=64 velocity=100 time=0.32737833333333327
EXTRACT: note_off channel=1 note=60 velocity=100 time=0
EXTRACT: note_off channel=1 note=57 velocity=100 time=0
EXTRACT: note_off channel=1 note=52 velocity=100 time=0
EXTRACT: note_off channel=1 note=45 velocity=100 time=0
EXTRACT: note_on channel=1 note=45 velocity=100 time=0
EXTRACT: note_on channel=1 note=52 velocity=100 time=0
EXTRACT: note_on channel=1 note=57 velocity=100 time=0
EXTRACT: note_on channel=1 note=60 velocity=100 time=0
EXTRACT: note_on channel=1 note=64 velocity=100 time=0
EXTRACT: note_off channel=5 note=33 velocity=100 time=0
EXTRACT: note_on channel=5 note=33 velocity=100 time=0
EXTRACT: note_on channel=9 note=38 velocity=127 time=0
EXTRACT: note_on channel=9 note=42 velocity=127 time=0
EXTRACT: sysex data=(65,16,69,18,16,1,0,0,0,0,0,0,0,0,0,0,0,0,0,0,0,0,0,0,0,0,0,0,0,0,0,0,0,0,0,0,0,0,0,0,0,0,0,0,0,0,0,0,0,0,0,0,0,0,0,0,0,0,0,0,0,0,0,0,0,0,0,0,0,0,0,111) time=0
EXTRACT: note_off channel=6 note=57 velocity=100 time=0.011160624999999999
EXTRACT: note_off channel=9 note=42 velocity=127 time=0.018601041666666665
EXTRACT: note_off channel=9 note=38 velocity=127 time=0
EXTRACT: note_on channel=6 note=60 velocity=100 time=0.1711295833333333
EXTRACT: note_off channel=1 note=64 velocity=100 time=0.15624874999999996
EXTRACT: note_off channel=1 note=60 velocity=100 time=0
EXTRACT: note_off channel=1 note=57 velocity=100 time=0
EXTRACT: note_off channel=1 note=52 velocity=100 time=0
EXTRACT: note_off channel=1 note=45 velocity=100 time=0
EXTRACT: note_on channel=1 note=45 velocity=100 time=0
EXTRACT: note_on channel=1 note=52 velocity=100 time=0
EXTRACT: note_on channel=1 note=57 velocity=100 time=0
EXTRACT: note_on channel=1 note=60 velocity=100 time=0
EXTRACT: note_on channel=1 note=64 velocity=100 time=0
EXTRACT: note_off channel=5 note=33 velocity=100 time=0
EXTRACT: note_on channel=5 note=31 velocity=100 time=0
EXTRACT: note_on channel=9 note=42 velocity=127 time=0
EXTRACT: note_on channel=6 note=62 velocity=100 time=0.005580312499999999
EXTRACT: note_off channel=6 note=60 velocity=100 time=0.016740937499999997
EXTRACT: note_off channel=9 note=42 velocity=127 time=0.0074404166666666655
EXTRACT: note_on channel=6 note=60 velocity=100 time=0.14136791666666665
EXTRACT: note_on channel=9 note=38 velocity=127 time=0.0074404166666666655
EXTRACT: note_off channel=6 note=62 velocity=100 time=0.005580312499999999
EXTRACT: note_off channel=9 note=38 velocity=127 time=0.024181354166666662
EXTRACT: note_on channel=6 note=62 velocity=100 time=0.13020729166666664
EXTRACT: note_off channel=6 note=60 velocity=100 time=0.011160624999999999
EXTRACT: note_off channel=1 note=64 velocity=100 time=0.0074404166666666655
EXTRACT: note_off channel=1 note=60 velocity=100 time=0
EXTRACT: note_off channel=1 note=57 velocity=100 time=0
EXTRACT: note_off channel=1 note=52 velocity=100 time=0
EXTRACT: note_off channel=1 note=45 velocity=100 time=0
EXTRACT: note_on channel=1 note=40 velocity=100 time=0
EXTRACT: note_on channel=1 note=47 velocity=100 time=0
EXTRACT: note_on channel=1 note=52 velocity=100 time=0
EXTRACT: note_on channel=1 note=56 velocity=100 time=0
EXTRACT: note_on channel=1 note=59 velocity=100 time=0
EXTRACT: note_on channel=1 note=64 velocity=100 time=0
EXTRACT: note_off channel=5 note=31 velocity=100 time=0
EXTRACT: note_on channel=5 note=28 velocity=100 time=0
EXTRACT: note_on channel=9 note=35 velocity=127 time=0
EXTRACT: note_on channel=9 note=36 velocity=127 time=0
EXTRACT: note_on channel=9 note=42 velocity=127 time=0
EXTRACT: sysex data=(65,16,69,18,16,1,0,0,0,0,0,0,0,0,0,0,0,0,0,0,0,0,0,0,0,0,0,0,0,0,0,0,0,0,0,0,0,0,0,0,0,0,0,0,0,0,0,0,0,0,0,0,0,0,0,0,0,0,0,0,0,0,0,0,0,0,0,0,0,0,0,111) time=0
EXTRACT: note_off channel=9 note=42 velocity=127 time=0.029761666666666662
EXTRACT: note_off channel=9 note=36 velocity=127 time=0
EXTRACT: note_off channel=9 note=35 velocity=127 time=0.059523333333333324
EXTRACT: note_on channel=9 note=38 velocity=127 time=0.08928499999999999
EXTRACT: note_off channel=9 note=38 velocity=127 time=0.029761666666666662
EXTRACT: note_off channel=6 note=62 velocity=100 time=0.13020729166666664
EXTRACT: note_off channel=5 note=28 velocity=100 time=0.018601041666666665
EXTRACT: note_on channel=5 note=28 velocity=100 time=0
EXTRACT: note_on channel=9 note=35 velocity=127 time=0
EXTRACT: note_on channel=9 note=36 velocity=127 time=0
EXTRACT: note_on channel=9 note=42 velocity=127 time=0
EXTRACT: note_on channel=6 note=60 velocity=100 time=0.005580312499999999
EXTRACT: note_off channel=9 note=42 velocity=127 time=0.024181354166666662
EXTRACT: note_off channel=9 note=36 velocity=127 time=0
EXTRACT: note_off channel=9 note=35 velocity=127 time=0.059523333333333324
EXTRACT: note_on channel=6 note=64 velocity=100 time=0.2548342708333333
EXTRACT: note_off channel=1 note=64 velocity=100 time=0.013020729166666665
EXTRACT: note_off channel=1 note=59 velocity=100 time=0
EXTRACT: note_off channel=1 note=56 velocity=100 time=0
EXTRACT: note_off channel=1 note=52 velocity=100 time=0
EXTRACT: note_off channel=1 note=47 velocity=100 time=0
EXTRACT: note_off channel=1 note=40 velocity=100 time=0
EXTRACT: note_on channel=1 note=56 velocity=100 time=0
EXTRACT: note_on channel=1 note=40 velocity=100 time=0
EXTRACT: note_on channel=1 note=47 velocity=100 time=0
EXTRACT: note_on channel=1 note=52 velocity=100 time=0
EXTRACT: note_on channel=1 note=59 velocity=100 time=0
EXTRACT: note_on channel=1 note=64 velocity=100 time=0
EXTRACT: note_off channel=5 note=28 velocity=100 time=0
EXTRACT: note_on channel=5 note=28 velocity=100 time=0
EXTRACT: note_on channel=9 note=38 velocity=127 time=0
EXTRACT: note_on channel=9 note=42 velocity=127 time=0
EXTRACT: sysex data=(65,16,69,18,16,1,0,0,0,0,0,0,0,0,0,0,0,0,0,0,0,0,0,0,0,0,0,0,0,0,0,0,0,0,0,0,0,0,0,0,0,0,0,0,0,0,0,0,0,0,0,0,0,0,0,0,0,0,0,0,0,0,0,0,0,0,0,0,0,0,0,111) time=0
EXTRACT: note_off channel=6 note=60 velocity=100 time=0.005580312499999999
EXTRACT: note_off channel=9 note=42 velocity=127 time=0.024181354166666662
EXTRACT: note_off channel=9 note=38 velocity=127 time=0
EXTRACT: note_off channel=6 note=64 velocity=100 time=0.31435760416666664
EXTRACT: note_off channel=1 note=64 velocity=100 time=0.013020729166666665
EXTRACT: note_off channel=1 note=59 velocity=100 time=0
EXTRACT: note_off channel=1 note=52 velocity=100 time=0
EXTRACT: note_off channel=1 note=47 velocity=100 time=0
EXTRACT: note_off channel=1 note=40 velocity=100 time=0
EXTRACT: note_off channel=1 note=56 velocity=100 time=0
EXTRACT: note_on channel=1 note=56 velocity=100 time=0
EXTRACT: note_on channel=1 note=40 velocity=100 time=0
EXTRACT: note_on channel=1 note=47 velocity=100 time=0
EXTRACT: note_on channel=1 note=52 velocity=100 time=0
EXTRACT: note_on channel=1 note=59 velocity=100 time=0
EXTRACT: note_on channel=1 note=64 velocity=100 time=0
EXTRACT: note_off channel=5 note=28 velocity=100 time=0
EXTRACT: note_on channel=5 note=28 velocity=100 time=0
EXTRACT: note_on channel=9 note=42 velocity=127 time=0
EXTRACT: note_on channel=6 note=62 velocity=100 time=0.005580312499999999
EXTRACT: note_off channel=9 note=42 velocity=127 time=0.024181354166666662
EXTRACT: note_off channel=5 note=28 velocity=100 time=0.14880833333333332
EXTRACT: note_on channel=5 note=28 velocity=100 time=0
EXTRACT: note_on channel=9 note=38 velocity=127 time=0
EXTRACT: note_off channel=9 note=38 velocity=127 time=0.029761666666666662
EXTRACT: note_off channel=1 note=64 velocity=100 time=0.14880833333333332
EXTRACT: note_off channel=1 note=59 velocity=100 time=0
EXTRACT: note_off channel=1 note=52 velocity=100 time=0
EXTRACT: note_off channel=1 note=47 velocity=100 time=0
EXTRACT: note_off channel=1 note=40 velocity=100 time=0
EXTRACT: note_off channel=1 note=56 velocity=100 time=0
EXTRACT: note_on channel=1 note=41 velocity=100 time=0
EXTRACT: note_on channel=1 note=48 velocity=100 time=0
EXTRACT: note_on channel=1 note=53 velocity=100 time=0
EXTRACT: note_on channel=1 note=57 velocity=100 time=0
EXTRACT: note_on channel=1 note=60 velocity=100 time=0
EXTRACT: note_off channel=5 note=28 velocity=100 time=0
EXTRACT: note_on channel=5 note=29 velocity=100 time=0
EXTRACT: note_on channel=9 note=35 velocity=127 time=0
EXTRACT: note_on channel=9 note=36 velocity=127 time=0
EXTRACT: note_on channel=9 note=42 velocity=127 time=0
EXTRACT: sysex data=(65,16,69,18,16,1,0,0,0,0,0,0,0,0,0,0,0,0,0,0,0,0,0,0,0,0,0,0,0,0,0,0,0,0,0,0,0,0,0,0,0,0,0,0,0,0,0,0,0,0,0,0,0,0,0,0,0,0,0,0,0,0,0,0,0,0,0,0,0,0,0,111) time=0
EXTRACT: note_off channel=9 note=42 velocity=127 time=0.029761666666666662
EXTRACT: note_off channel=9 note=36 velocity=127 time=0
EXTRACT: note_off channel=9 note=35 velocity=127 time=0.059523333333333324
EXTRACT: note_on channel=9 note=38 velocity=127 time=0.08928499999999999
EXTRACT: note_off channel=6 note=62 velocity=100 time=0.005580312499999999
EXTRACT: note_on channel=6 note=64 velocity=100 time=0.005580312499999999
EXTRACT: note_off channel=9 note=38 velocity=127 time=0.018601041666666665
EXTRACT: note_off channel=5 note=29 velocity=100 time=0.14880833333333332
EXTRACT: note_on channel=5 note=29 velocity=100 time=0
EXTRACT: note_on channel=6 note=60 velocity=100 time=0
EXTRACT: note_on channel=9 note=42 velocity=127 time=0
EXTRACT: note_off channel=6 note=64 velocity=100 time=0.011160624999999999
EXTRACT: note_off channel=9 note=42 velocity=127 time=0.018601041666666665
EXTRACT: note_off channel=1 note=60 velocity=100 time=0.32737833333333327
EXTRACT: note_off channel=1 note=57 velocity=100 time=0
EXTRACT: note_off channel=1 note=53 velocity=100 time=0
EXTRACT: note_off channel=1 note=48 velocity=100 time=0
EXTRACT: note_off channel=1 note=41 velocity=100 time=0
EXTRACT: note_on channel=1 note=41 velocity=100 time=0
EXTRACT: note_on channel=1 note=48 velocity=100 time=0
EXTRACT: note_on channel=1 note=53 velocity=100 time=0
EXTRACT: note_on channel=1 note=57 velocity=100 time=0
EXTRACT: note_on channel=1 note=60 velocity=100 time=0
EXTRACT: note_on channel=1 note=64 velocity=100 time=0
EXTRACT: note_off channel=5 note=29 velocity=100 time=0
EXTRACT: note_on channel=5 note=29 velocity=100 time=0
EXTRACT: note_on channel=9 note=38 velocity=127 time=0
EXTRACT: note_on channel=9 note=42 velocity=127 time=0
EXTRACT: sysex data=(65,16,69,18,16,1,0,0,0,0,0,0,0,0,0,0,0,0,0,0,0,0,0,0,0,0,0,0,0,0,0,0,0,0,0,0,0,0,0,0,0,0,0,0,0,0,0,0,0,0,0,0,0,0,0,0,0,0,0,0,0,0,0,0,0,0,0,0,0,0,0,111) time=0
EXTRACT: note_off channel=9 note=42 velocity=127 time=0.029761666666666662
EXTRACT: note_off channel=9 note=38 velocity=127 time=0
EXTRACT: note_off channel=1 note=64 velocity=100 time=0.32737833333333327
EXTRACT: note_off channel=1 note=60 velocity=100 time=0
EXTRACT: note_off channel=1 note=57 velocity=100 time=0
EXTRACT: note_off channel=1 note=53 velocity=100 time=0
EXTRACT: note_off channel=1 note=48 velocity=100 time=0
EXTRACT: note_off channel=1 note=41 velocity=100 time=0
EXTRACT: note_on channel=1 note=41 velocity=100 time=0
EXTRACT: note_on channel=1 note=48 velocity=100 time=0
EXTRACT: note_on channel=1 note=53 velocity=100 time=0
EXTRACT: note_on channel=1 note=57 velocity=100 time=0
EXTRACT: note_on channel=1 note=60 velocity=100 time=0
EXTRACT: note_on channel=1 note=64 velocity=100 time=0
EXTRACT: note_off channel=5 note=29 velocity=100 time=0
EXTRACT: note_on channel=5 note=30 velocity=100 time=0
EXTRACT: note_on channel=9 note=42 velocity=127 time=0
EXTRACT: note_off channel=9 note=42 velocity=127 time=0.029761666666666662
EXTRACT: note_on channel=9 note=38 velocity=127 time=0.14880833333333332
EXTRACT: note_off channel=9 note=38 velocity=127 time=0.029761666666666662
EXTRACT: note_off channel=1 note=64 velocity=100 time=0.14880833333333332
EXTRACT: note_off channel=1 note=60 velocity=100 time=0
EXTRACT: note_off channel=1 note=57 velocity=100 time=0
EXTRACT: note_off channel=1 note=53 velocity=100 time=0
EXTRACT: note_off channel=1 note=48 velocity=100 time=0
EXTRACT: note_off channel=1 note=41 velocity=100 time=0
EXTRACT: note_on channel=1 note=43 velocity=100 time=0
EXTRACT: note_on channel=1 note=50 velocity=100 time=0
EXTRACT: note_on channel=1 note=55 velocity=100 time=0
EXTRACT: note_on channel=1 note=59 velocity=100 time=0
EXTRACT: note_on channel=1 note=62 velocity=100 time=0
EXTRACT: note_off channel=5 note=30 velocity=100 time=0
EXTRACT: note_on channel=5 note=31 velocity=100 time=0
EXTRACT: note_off channel=6 note=60 velocity=100 time=0
EXTRACT: note_on channel=9 note=35 velocity=127 time=0
EXTRACT: note_on channel=9 note=36 velocity=127 time=0
EXTRACT: note_on channel=9 note=42 velocity=127 time=0
EXTRACT: sysex data=(65,16,69,18,16,1,0,0,0,0,0,0,0,0,0,0,0,0,0,0,0,0,0,0,0,0,0,0,0,0,0,0,0,0,0,0,0,0,0,0,0,0,0,0,0,0,0,0,0,0,0,0,0,0,0,0,0,0,0,0,0,0,0,0,0,0,0,0,0,0,0,111) time=0
EXTRACT: note_off channel=9 note=42 velocity=127 time=0.029761666666666662
EXTRACT: note_off channel=9 note=36 velocity=127 time=0
EXTRACT: note_off channel=9 note=35 velocity=127 time=0.059523333333333324
EXTRACT: note_on channel=9 note=38 velocity=127 time=0.08928499999999999
EXTRACT: note_off channel=9 note=38 velocity=127 time=0.029761666666666662
EXTRACT: note_on channel=6 note=60 velocity=100 time=0.11904666666666665
EXTRACT: note_off channel=1 note=62 velocity=100 time=0.029761666666666662
EXTRACT: note_off channel=1 note=59 velocity=100 time=0
EXTRACT: note_off channel=1 note=55 velocity=100 time=0
EXTRACT: note_off channel=1 note=50 velocity=100 time=0
EXTRACT: note_off channel=1 note=43 velocity=100 time=0
EXTRACT: note_on channel=1 note=43 velocity=100 time=0
EXTRACT: note_on channel=1 note=50 velocity=100 time=0
EXTRACT: note_on channel=1 note=55 velocity=100 time=0
EXTRACT: note_on channel=1 note=59 velocity=100 time=0
EXTRACT: note_on channel=1 note=62 velocity=100 time=0
EXTRACT: note_on channel=1 note=64 velocity=100 time=0
EXTRACT: note_off channel=5 note=31 velocity=100 time=0
EXTRACT: note_on channel=5 note=31 velocity=100 time=0
EXTRACT: note_on channel=9 note=35 velocity=127 time=0
EXTRACT: note_on channel=9 note=36 velocity=127 time=0
EXTRACT: note_on channel=9 note=42 velocity=127 time=0
EXTRACT: note_off channel=9 note=42 velocity=127 time=0.029761666666666662
EXTRACT: note_off channel=9 note=36 velocity=127 time=0
EXTRACT: note_off channel=9 note=35 velocity=127 time=0.059523333333333324
EXTRACT: note_off channel=6 note=60 velocity=100 time=0.059523333333333324
EXTRACT: note_on channel=6 note=57 velocity=100 time=0.029761666666666662
EXTRACT: note_off channel=1 note=64 velocity=100 time=0.17856999999999998
EXTRACT: note_off channel=1 note=62 velocity=100 time=0
EXTRACT: note_off channel=1 note=59 velocity=100 time=0
EXTRACT: note_off channel=1 note=55 velocity=100 time=0
EXTRACT: note_off channel=1 note=50 velocity=100 time=0
EXTRACT: note_off channel=1 note=43 velocity=100 time=0
EXTRACT: note_on channel=1 note=43 velocity=100 time=0
EXTRACT: note_on channel=1 note=50 velocity=100 time=0
EXTRACT: note_on channel=1 note=55 velocity=100 time=0
EXTRACT: note_on channel=1 note=59 velocity=100 time=0
EXTRACT: note_on channel=1 note=64 velocity=100 time=0
EXTRACT: note_on channel=1 note=62 velocity=100 time=0
EXTRACT: note_off channel=5 note=31 velocity=100 time=0
EXTRACT: note_on channel=5 note=31 velocity=100 time=0
EXTRACT: note_off channel=6 note=57 velocity=100 time=0
EXTRACT: note_on channel=9 note=38 velocity=127 time=0
EXTRACT: note_on channel=9 note=42 velocity=127 time=0
EXTRACT: sysex data=(65,16,69,18,16,1,0,0,0,0,0,0,0,0,0,0,0,0,0,0,0,0,0,0,0,0,0,0,0,0,0,0,0,0,0,0,0,0,0,0,0,0,0,0,0,0,0,0,0,0,0,0,0,0,0,0,0,0,0,0,0,0,0,0,0,0,0,0,0,0,0,111) time=0
EXTRACT: note_on channel=6 note=60 velocity=100 time=0.011160624999999999
EXTRACT: note_off channel=9 note=42 velocity=127 time=0.018601041666666665
EXTRACT: note_off channel=9 note=38 velocity=127 time=0
EXTRACT: note_off channel=1 note=62 velocity=100 time=0.32737833333333327
EXTRACT: note_off channel=1 note=64 velocity=100 time=0
EXTRACT: note_off channel=1 note=59 velocity=100 time=0
EXTRACT: note_off channel=1 note=55 velocity=100 time=0
EXTRACT: note_off channel=1 note=50 velocity=100 time=0
EXTRACT: note_off channel=1 note=43 velocity=100 time=0
EXTRACT: note_on channel=1 note=43 velocity=100 time=0
EXTRACT: note_on channel=1 note=50 velocity=100 time=0
EXTRACT: note_on channel=1 note=55 velocity=100 time=0
EXTRACT: note_on channel=1 note=59 velocity=100 time=0
EXTRACT: note_on channel=1 note=64 velocity=100 time=0
EXTRACT: note_on channel=1 note=62 velocity=100 time=0
EXTRACT: note_off channel=5 note=31 velocity=100 time=0
EXTRACT: note_on channel=5 note=35 velocity=100 time=0
EXTRACT: note_on channel=9 note=42 velocity=127 time=0
EXTRACT: note_off channel=6 note=60 velocity=100 time=0.011160624999999999
EXTRACT: note_off channel=9 note=42 velocity=127 time=0.018601041666666665
EXTRACT: note_on channel=6 note=57 velocity=100 time=0.011160624999999999
EXTRACT: note_on channel=6 note=60 velocity=100 time=0.1376477083333333
EXTRACT: note_on channel=9 note=38 velocity=127 time=0
EXTRACT: note_off channel=9 note=38 velocity=127 time=0.029761666666666662
EXTRACT: note_off channel=6 note=57 velocity=100 time=0.011160624999999999
EXTRACT: note_on channel=9 note=38 velocity=127 time=0.018601041666666665
EXTRACT: note_off channel=9 note=38 velocity=127 time=0.029761666666666662
EXTRACT: note_off channel=1 note=62 velocity=100 time=0.08928499999999999
EXTRACT: note_off channel=1 note=64 velocity=100 time=0
EXTRACT: note_off channel=1 note=59 velocity=100 time=0
EXTRACT: note_off channel=1 note=55 velocity=100 time=0
EXTRACT: note_off channel=1 note=50 velocity=100 time=0
EXTRACT: note_off channel=1 note=43 velocity=100 time=0
EXTRACT: note_on channel=1 note=48 velocity=100 time=0
EXTRACT: note_on channel=1 note=52 velocity=100 time=0
EXTRACT: note_on channel=1 note=55 velocity=100 time=0
EXTRACT: note_on channel=1 note=60 velocity=100 time=0
EXTRACT: note_on channel=1 note=64 velocity=100 time=0
EXTRACT: note_off channel=5 note=35 velocity=100 time=0
EXTRACT: note_on channel=5 note=36 velocity=100 time=0
EXTRACT: note_on channel=9 note=35 velocity=127 time=0
EXTRACT: note_on channel=9 note=36 velocity=127 time=0
EXTRACT: note_on channel=9 note=42 velocity=127 time=0
EXTRACT: sysex data=(65,16,69,18,16,1,0,0,0,0,0,0,0,0,0,0,0,0,0,0,0,0,0,0,0,0,0,0,0,0,0,0,0,0,0,0,0,0,0,0,0,0,0,0,0,0,0,0,0,0,0,0,0,0,0,0,0,0,0,0,0,0,0,0,0,0,0,0,0,0,0,111) time=0
EXTRACT: note_off channel=9 note=42 velocity=127 time=0.029761666666666662
EXTRACT: note_off channel=9 note=36 velocity=127 time=0
EXTRACT: note_off channel=9 note=35 velocity=127 time=0.059523333333333324
EXTRACT: note_on channel=9 note=38 velocity=127 time=0.08928499999999999
EXTRACT: note_off channel=9 note=38 velocity=127 time=0.029761666666666662
EXTRACT: note_on channel=9 note=42 velocity=127 time=0.14880833333333332
EXTRACT: note_off channel=9 note=42 velocity=127 time=0.029761666666666662
EXTRACT: note_off channel=1 note=64 velocity=100 time=0.32737833333333327
EXTRACT: note_off channel=1 note=60 velocity=100 time=0
EXTRACT: note_off channel=1 note=55 velocity=100 time=0
EXTRACT: note_off channel=1 note=52 velocity=100 time=0
EXTRACT: note_off channel=1 note=48 velocity=100 time=0
EXTRACT: note_on channel=1 note=48 velocity=100 time=0
EXTRACT: note_on channel=1 note=52 velocity=100 time=0
EXTRACT: note_on channel=1 note=55 velocity=100 time=0
EXTRACT: note_on channel=1 note=60 velocity=100 time=0
EXTRACT: note_on channel=1 note=64 velocity=100 time=0
EXTRACT: note_off channel=5 note=36 velocity=100 time=0
EXTRACT: note_on channel=5 note=36 velocity=100 time=0
EXTRACT: note_on channel=9 note=38 velocity=127 time=0
EXTRACT: note_on channel=9 note=42 velocity=127 time=0
EXTRACT: sysex data=(65,16,69,18,16,1,0,0,0,0,0,0,0,0,0,0,0,0,0,0,0,0,0,0,0,0,0,0,0,0,0,0,0,0,0,0,0,0,0,0,0,0,0,0,0,0,0,0,0,0,0,0,0,0,0,0,0,0,0,0,0,0,0,0,0,0,0,0,0,0,0,111) time=0
EXTRACT: note_off channel=9 note=42 velocity=127 time=0.029761666666666662
EXTRACT: note_off channel=9 note=38 velocity=127 time=0
EXTRACT: note_off channel=6 note=60 velocity=100 time=0.14880833333333332
EXTRACT: note_off channel=1 note=64 velocity=100 time=0.17856999999999998
EXTRACT: note_off channel=1 note=60 velocity=100 time=0
EXTRACT: note_off channel=1 note=55 velocity=100 time=0
EXTRACT: note_off channel=1 note=52 velocity=100 time=0
EXTRACT: note_off channel=1 note=48 velocity=100 time=0
EXTRACT: note_on channel=1 note=48 velocity=100 time=0
EXTRACT: note_on channel=1 note=52 velocity=100 time=0
EXTRACT: note_on channel=1 note=55 velocity=100 time=0
EXTRACT: note_on channel=1 note=60 velocity=100 time=0
EXTRACT: note_on channel=1 note=64 velocity=100 time=0
EXTRACT: note_off channel=5 note=36 velocity=100 time=0
EXTRACT: note_on channel=5 note=36 velocity=100 time=0
EXTRACT: note_on channel=9 note=46 velocity=127 time=0
EXTRACT: note_off channel=9 note=46 velocity=127 time=0.029761666666666662
EXTRACT: note_on channel=9 note=38 velocity=127 time=0.14880833333333332
EXTRACT: note_off channel=9 note=38 velocity=127 time=0.029761666666666662
EXTRACT: note_off channel=1 note=64 velocity=100 time=0.14880833333333332
EXTRACT: note_off channel=1 note=60 velocity=100 time=0
EXTRACT: note_off channel=1 note=55 velocity=100 time=0
EXTRACT: note_off channel=1 note=52 velocity=100 time=0
EXTRACT: note_off channel=1 note=48 velocity=100 time=0
EXTRACT: note_on channel=1 note=45 velocity=100 time=0
EXTRACT: note_on channel=1 note=48 velocity=100 time=0
EXTRACT: note_on channel=1 note=52 velocity=100 time=0
EXTRACT: note_on channel=1 note=57 velocity=100 time=0
EXTRACT: note_on channel=1 note=60 velocity=100 time=0
EXTRACT: note_on channel=1 note=64 velocity=100 time=0
EXTRACT: note_off channel=5 note=36 velocity=100 time=0
EXTRACT: note_on channel=5 note=33 velocity=100 time=0
EXTRACT: note_on channel=9 note=35 velocity=127 time=0
EXTRACT: note_on channel=9 note=36 velocity=127 time=0
EXTRACT: note_on channel=9 note=46 velocity=127 time=0
EXTRACT: sysex data=(65,16,69,18,16,1,0,0,0,0,0,0,0,0,0,0,0,0,0,0,0,0,0,0,0,0,0,0,0,0,0,0,0,0,0,0,0,0,0,0,0,0,0,0,0,0,0,0,0,0,0,0,0,0,0,0,0,0,0,0,0,0,0,0,0,0,0,0,0,0,0,111) time=0
EXTRACT: note_off channel=9 note=46 velocity=127 time=0.029761666666666662
EXTRACT: note_off channel=9 note=36 velocity=127 time=0
EXTRACT: note_off channel=9 note=35 velocity=127 time=0.059523333333333324
EXTRACT: note_off channel=1 note=64 velocity=100 time=0.26785499999999995
EXTRACT: note_off channel=1 note=60 velocity=100 time=0
EXTRACT: note_off channel=1 note=57 velocity=100 time=0
EXTRACT: note_off channel=1 note=52 velocity=100 time=0
EXTRACT: note_off channel=1 note=48 velocity=100 time=0
EXTRACT: note_off channel=1 note=45 velocity=100 time=0
EXTRACT: note_on channel=1 note=45 velocity=100 time=0
EXTRACT: note_on channel=1 note=48 velocity=100 time=0
EXTRACT: note_on channel=1 note=52 velocity=100 time=0
EXTRACT: note_on channel=1 note=57 velocity=100 time=0
EXTRACT: note_on channel=1 note=60 velocity=100 time=0
EXTRACT: note_on channel=1 note=64 velocity=100 time=0
EXTRACT: note_off channel=5 note=33 velocity=100 time=0
EXTRACT: note_on channel=5 note=33 velocity=100 time=0
EXTRACT: note_on channel=9 note=36 velocity=127 time=0
EXTRACT: note_on channel=9 note=38 velocity=127 time=0
EXTRACT: note_on channel=9 note=43 velocity=127 time=0
EXTRACT: note_on channel=9 note=35 velocity=127 time=0
EXTRACT: note_off channel=9 note=43 velocity=127 time=0.029761666666666662
EXTRACT: note_off channel=9 note=38 velocity=127 time=0
EXTRACT: note_off channel=9 note=36 velocity=127 time=0
EXTRACT: note_off channel=9 note=35 velocity=127 time=0.059523333333333324
EXTRACT: note_off channel=1 note=64 velocity=100 time=0.08928499999999999
EXTRACT: note_off channel=1 note=60 velocity=100 time=0
EXTRACT: note_off channel=1 note=57 velocity=100 time=0
EXTRACT: note_off channel=1 note=52 velocity=100 time=0
EXTRACT: note_off channel=1 note=48 velocity=100 time=0
EXTRACT: note_off channel=1 note=45 velocity=100 time=0
EXTRACT: note_on channel=1 note=45 velocity=100 time=0
EXTRACT: note_on channel=1 note=48 velocity=100 time=0
EXTRACT: note_on channel=1 note=52 velocity=100 time=0
EXTRACT: note_on channel=1 note=57 velocity=100 time=0
EXTRACT: note_on channel=1 note=60 velocity=100 time=0
EXTRACT: note_on channel=1 note=64 velocity=100 time=0
EXTRACT: note_off channel=1 note=64 velocity=100 time=0.17856999999999998
EXTRACT: note_off channel=1 note=60 velocity=100 time=0
EXTRACT: note_off channel=1 note=57 velocity=100 time=0
EXTRACT: note_off channel=1 note=52 velocity=100 time=0
EXTRACT: note_off channel=1 note=48 velocity=100 time=0
EXTRACT: note_off channel=1 note=45 velocity=100 time=0
EXTRACT: note_on channel=1 note=43 velocity=100 time=0
EXTRACT: note_on channel=1 note=50 velocity=100 time=0
EXTRACT: note_on channel=1 note=55 velocity=100 time=0
EXTRACT: note_on channel=1 note=59 velocity=100 time=0
EXTRACT: note_on channel=1 note=67 velocity=100 time=0
EXTRACT: note_off channel=5 note=33 velocity=100 time=0
EXTRACT: note_on channel=5 note=31 velocity=100 time=0
EXTRACT: note_on channel=9 note=38 velocity=127 time=0
EXTRACT: note_on channel=9 note=47 velocity=127 time=0
EXTRACT: note_off channel=9 note=47 velocity=127 time=0.029761666666666662
EXTRACT: note_off channel=9 note=38 velocity=127 time=0
EXTRACT: note_on channel=9 note=45 velocity=127 time=0.14880833333333332
EXTRACT: note_off channel=9 note=45 velocity=127 time=0.029761666666666662
EXTRACT: note_off channel=1 note=67 velocity=100 time=0.14880833333333332
EXTRACT: note_off channel=1 note=59 velocity=100 time=0
EXTRACT: note_off channel=1 note=55 velocity=100 time=0
EXTRACT: note_off channel=1 note=50 velocity=100 time=0
EXTRACT: note_off channel=1 note=43 velocity=100 time=0
EXTRACT: note_on channel=1 note=43 velocity=100 time=0
EXTRACT: note_on channel=1 note=50 velocity=100 time=0
EXTRACT: note_on channel=1 note=55 velocity=100 time=0
EXTRACT: note_on channel=1 note=59 velocity=100 time=0
EXTRACT: note_on channel=1 note=67 velocity=100 time=0
EXTRACT: note_off channel=5 note=31 velocity=100 time=0
EXTRACT: note_on channel=5 note=31 velocity=100 time=0
EXTRACT: note_on channel=9 note=43 velocity=127 time=0
EXTRACT: note_off channel=9 note=43 velocity=127 time=0.029761666666666662
EXTRACT: note_off channel=1 note=67 velocity=100 time=0.32737833333333327
EXTRACT: note_off channel=1 note=59 velocity=100 time=0
EXTRACT: note_off channel=1 note=55 velocity=100 time=0
EXTRACT: note_off channel=1 note=50 velocity=100 time=0
EXTRACT: note_off channel=1 note=43 velocity=100 time=0
EXTRACT: note_on channel=1 note=41 velocity=100 time=0
EXTRACT: note_on channel=1 note=48 velocity=100 time=0
EXTRACT: note_on channel=1 note=53 velocity=100 time=0
EXTRACT: note_on channel=1 note=57 velocity=100 time=0
EXTRACT: note_on channel=1 note=60 velocity=100 time=0
EXTRACT: note_on channel=4 note=60 velocity=100 time=0
EXTRACT: note_off channel=5 note=31 velocity=100 time=0
EXTRACT: note_on channel=5 note=29 velocity=100 time=0
EXTRACT: note_on channel=9 note=35 velocity=127 time=0
EXTRACT: note_on channel=9 note=36 velocity=127 time=0
EXTRACT: note_on channel=9 note=41 velocity=127 time=0
EXTRACT: note_on channel=9 note=49 velocity=127 time=0
EXTRACT: note_off channel=9 note=49 velocity=127 time=0.029761666666666662
EXTRACT: note_off channel=9 note=41 velocity=127 time=0
EXTRACT: note_off channel=9 note=36 velocity=127 time=0
EXTRACT: note_off channel=9 note=35 velocity=127 time=0.059523333333333324
EXTRACT: note_off channel=5 note=29 velocity=100 time=0.26785499999999995
EXTRACT: note_on channel=5 note=29 velocity=100 time=0
EXTRACT: note_on channel=6 note=62 velocity=100 time=0
EXTRACT: note_on channel=9 note=35 velocity=127 time=0
EXTRACT: note_on channel=9 note=36 velocity=127 time=0
EXTRACT: note_on channel=9 note=41 velocity=127 time=0
EXTRACT: note_off channel=9 note=41 velocity=127 time=0.029761666666666662
EXTRACT: note_off channel=9 note=36 velocity=127 time=0
EXTRACT: note_off channel=9 note=35 velocity=127 time=0.059523333333333324
EXTRACT: note_off channel=6 note=62 velocity=100 time=0.08928499999999999
EXTRACT: note_on channel=6 note=60 velocity=100 time=0
EXTRACT: note_on channel=6 note=62 velocity=100 time=0.16554927083333332
EXTRACT: note_off channel=1 note=60 velocity=100 time=0.013020729166666665
EXTRACT: note_off channel=1 note=57 velocity=100 time=0
EXTRACT: note_off channel=1 note=53 velocity=100 time=0
EXTRACT: note_off channel=1 note=48 velocity=100 time=0
EXTRACT: note_off channel=1 note=41 velocity=100 time=0
EXTRACT: note_on channel=1 note=41 velocity=100 time=0
EXTRACT: note_on channel=1 note=48 velocity=100 time=0
EXTRACT: note_on channel=1 note=53 velocity=100 time=0
EXTRACT: note_on channel=1 note=57 velocity=100 time=0
EXTRACT: note_on channel=1 note=60 velocity=100 time=0
EXTRACT: note_on channel=3 note=65 velocity=100 time=0
EXTRACT: note_on channel=3 note=60 velocity=100 time=0
EXTRACT: note_on channel=3 note=57 velocity=100 time=0
EXTRACT: note_on channel=3 note=53 velocity=100 time=0
EXTRACT: note_off channel=5 note=29 velocity=100 time=0
EXTRACT: note_on channel=5 note=29 velocity=100 time=0
EXTRACT: note_off channel=6 note=60 velocity=100 time=0
EXTRACT: note_on channel=9 note=38 velocity=127 time=0
EXTRACT: note_on channel=9 note=41 velocity=127 time=0
EXTRACT: note_off channel=9 note=41 velocity=127 time=0.029761666666666662
EXTRACT: note_off channel=9 note=38 velocity=127 time=0
EXTRACT: note_off channel=6 note=62 velocity=100 time=0.13578760416666666
EXTRACT: note_on channel=6 note=60 velocity=100 time=0.013020729166666665
EXTRACT: note_on channel=6 note=62 velocity=100 time=0.16554927083333332
EXTRACT: note_off channel=1 note=60 velocity=100 time=0.013020729166666665
EXTRACT: note_off channel=1 note=57 velocity=100 time=0
EXTRACT: note_off channel=1 note=53 velocity=100 time=0
EXTRACT: note_off channel=1 note=48 velocity=100 time=0
EXTRACT: note_off channel=1 note=41 velocity=100 time=0
EXTRACT: note_on channel=1 note=41 velocity=100 time=0
EXTRACT: note_on channel=1 note=48 velocity=100 time=0
EXTRACT: note_on channel=1 note=53 velocity=100 time=0
EXTRACT: note_on channel=1 note=57 velocity=100 time=0
EXTRACT: note_on channel=1 note=60 velocity=100 time=0
EXTRACT: note_off channel=3 note=53 velocity=100 time=0
EXTRACT: note_off channel=3 note=57 velocity=100 time=0
EXTRACT: note_off channel=3 note=60 velocity=100 time=0
EXTRACT: note_off channel=3 note=65 velocity=100 time=0
EXTRACT: note_off channel=5 note=29 velocity=100 time=0
EXTRACT: note_on channel=5 note=29 velocity=100 time=0
EXTRACT: note_off channel=6 note=60 velocity=100 time=0
EXTRACT: note_on channel=9 note=41 velocity=127 time=0
EXTRACT: note_off channel=9 note=41 velocity=127 time=0.029761666666666662
EXTRACT: note_off channel=6 note=62 velocity=100 time=0.13578760416666666
EXTRACT: note_off channel=5 note=29 velocity=100 time=0.013020729166666665
EXTRACT: note_on channel=5 note=29 velocity=100 time=0
EXTRACT: note_on channel=9 note=45 velocity=127 time=0
EXTRACT: note_on channel=6 note=60 velocity=100 time=0.011160624999999999
EXTRACT: note_off channel=9 note=45 velocity=127 time=0.018601041666666665
EXTRACT: note_on channel=4 note=60 velocity=100 time=0.059523333333333324
EXTRACT: note_off channel=1 note=60 velocity=100 time=0.08928499999999999
EXTRACT: note_off channel=1 note=57 velocity=100 time=0
EXTRACT: note_off channel=1 note=53 velocity=100 time=0
EXTRACT: note_off channel=1 note=48 velocity=100 time=0
EXTRACT: note_off channel=1 note=41 velocity=100 time=0
EXTRACT: note_on channel=1 note=41 velocity=100 time=0
EXTRACT: note_on channel=1 note=48 velocity=100 time=0
EXTRACT: note_on channel=1 note=53 velocity=100 time=0
EXTRACT: note_on channel=1 note=56 velocity=100 time=0
EXTRACT: note_on channel=1 note=60 velocity=100 time=0
EXTRACT: note_on channel=1 note=65 velocity=100 time=0
EXTRACT: note_off channel=4 note=60 velocity=100 time=0
EXTRACT: note_off channel=4 note=60 velocity=100 time=0
EXTRACT: note_on channel=4 note=62 velocity=100 time=0
EXTRACT: note_off channel=5 note=29 velocity=100 time=0
EXTRACT: note_on channel=5 note=29 velocity=100 time=0
EXTRACT: note_on channel=6 note=62 velocity=100 time=0
EXTRACT: note_on channel=9 note=35 velocity=127 time=0
EXTRACT: note_on channel=9 note=36 velocity=127 time=0
EXTRACT: note_on channel=9 note=41 velocity=127 time=0
EXTRACT: note_off channel=6 note=60 velocity=100 time=0.011160624999999999
EXTRACT: note_off channel=9 note=41 velocity=127 time=0.018601041666666665
EXTRACT: note_off channel=9 note=36 velocity=127 time=0
EXTRACT: note_off channel=9 note=35 velocity=127 time=0.059523333333333324
EXTRACT: note_off channel=5 note=29 velocity=100 time=0.08928499999999999
EXTRACT: note_on channel=5 note=29 velocity=100 time=0
EXTRACT: note_on channel=9 note=45 velocity=127 time=0
EXTRACT: note_off channel=9 note=45 velocity=127 time=0.029761666666666662
EXTRACT: note_on channel=6 note=60 velocity=100 time=0.11904666666666665
EXTRACT: note_off channel=5 note=29 velocity=100 time=0.029761666666666662
EXTRACT: note_on channel=5 note=29 velocity=100 time=0
EXTRACT: note_off channel=6 note=62 velocity=100 time=0
EXTRACT: note_on channel=9 note=35 velocity=127 time=0
EXTRACT: note_on channel=9 note=36 velocity=127 time=0
EXTRACT: note_on channel=9 note=41 velocity=127 time=0
EXTRACT: note_off channel=9 note=41 velocity=127 time=0.029761666666666662
EXTRACT: note_off channel=9 note=36 velocity=127 time=0
EXTRACT: note_off channel=9 note=35 velocity=127 time=0.059523333333333324
EXTRACT: note_off channel=6 note=60 velocity=100 time=0.059523333333333324
EXTRACT: note_on channel=6 note=62 velocity=100 time=0.04092229166666666
EXTRACT: note_off channel=1 note=65 velocity=100 time=0.16740937499999997
EXTRACT: note_off channel=1 note=60 velocity=100 time=0
EXTRACT: note_off channel=1 note=56 velocity=100 time=0
EXTRACT: note_off channel=1 note=53 velocity=100 time=0
EXTRACT: note_off channel=1 note=48 velocity=100 time=0
EXTRACT: note_off channel=1 note=41 velocity=100 time=0
EXTRACT: note_on channel=1 note=41 velocity=100 time=0
EXTRACT: note_on channel=1 note=48 velocity=100 time=0
EXTRACT: note_on channel=1 note=53 velocity=100 time=0
EXTRACT: note_on channel=1 note=56 velocity=100 time=0
EXTRACT: note_on channel=1 note=60 velocity=100 time=0
EXTRACT: note_on channel=1 note=65 velocity=100 time=0
EXTRACT: note_on channel=3 note=65 velocity=100 time=0
EXTRACT: note_on channel=3 note=60 velocity=100 time=0
EXTRACT: note_on channel=3 note=56 velocity=100 time=0
EXTRACT: note_on channel=3 note=53 velocity=100 time=0
EXTRACT: note_off channel=5 note=29 velocity=100 time=0
EXTRACT: note_on channel=5 note=29 velocity=100 time=0
EXTRACT: note_on channel=9 note=38 velocity=127 time=0
EXTRACT: note_on channel=9 note=41 velocity=127 time=0
EXTRACT: note_off channel=9 note=41 velocity=127 time=0.029761666666666662
EXTRACT: note_off channel=9 note=38 velocity=127 time=0
EXTRACT: note_on channel=6 note=60 velocity=100 time=0.13578760416666666
EXTRACT: note_off channel=6 note=62 velocity=100 time=0.024181354166666662
EXTRACT: note_off channel=1 note=65 velocity=100 time=0.16740937499999997
EXTRACT: note_off channel=1 note=60 velocity=100 time=0
EXTRACT: note_off channel=1 note=56 velocity=100 time=0
EXTRACT: note_off channel=1 note=53 velocity=100 time=0
EXTRACT: note_off channel=1 note=48 velocity=100 time=0
EXTRACT: note_off channel=1 note=41 velocity=100 time=0
EXTRACT: note_on channel=1 note=41 velocity=100 time=0
EXTRACT: note_on channel=1 note=48 velocity=100 time=0
EXTRACT: note_on channel=1 note=53 velocity=100 time=0
EXTRACT: note_on channel=1 note=56 velocity=100 time=0
EXTRACT: note_on channel=1 note=60 velocity=100 time=0
EXTRACT: note_on channel=1 note=65 velocity=100 time=0
EXTRACT: note_off channel=3 note=53 velocity=100 time=0
EXTRACT: note_off channel=3 note=56 velocity=100 time=0
EXTRACT: note_off channel=3 note=60 velocity=100 time=0
EXTRACT: note_off channel=3 note=65 velocity=100 time=0
EXTRACT: note_off channel=5 note=29 velocity=100 time=0
EXTRACT: note_on channel=5 note=31 velocity=100 time=0
EXTRACT: note_on channel=9 note=41 velocity=127 time=0
EXTRACT: note_off channel=9 note=41 velocity=127 time=0.029761666666666662
EXTRACT: note_off channel=5 note=31 velocity=100 time=0.14880833333333332
EXTRACT: note_on channel=5 note=33 velocity=100 time=0
EXTRACT: note_on channel=4 note=62 velocity=100 time=0.08928499999999999
EXTRACT: note_off channel=1 note=65 velocity=100 time=0.08928499999999999
EXTRACT: note_off channel=1 note=60 velocity=100 time=0
EXTRACT: note_off channel=1 note=56 velocity=100 time=0
EXTRACT: note_off channel=1 note=53 velocity=100 time=0
EXTRACT: note_off channel=1 note=48 velocity=100 time=0
EXTRACT: note_off channel=1 note=41 velocity=100 time=0
EXTRACT: note_on channel=1 note=48 velocity=100 time=0
EXTRACT: note_on channel=1 note=52 velocity=100 time=0
EXTRACT: note_on channel=1 note=55 velocity=100 time=0
EXTRACT: note_on channel=1 note=60 velocity=100 time=0
EXTRACT: note_on channel=1 note=64 velocity=100 time=0
EXTRACT: note_off channel=4 note=62 velocity=100 time=0
EXTRACT: note_off channel=4 note=62 velocity=100 time=0
EXTRACT: note_on channel=4 note=67 velocity=100 time=0
EXTRACT: note_off channel=5 note=33 velocity=100 time=0
EXTRACT: note_on channel=5 note=36 velocity=100 time=0
EXTRACT: note_on channel=9 note=35 velocity=127 time=0
EXTRACT: note_on channel=9 note=36 velocity=127 time=0
EXTRACT: note_on channel=9 note=41 velocity=127 time=0
EXTRACT: note_off channel=9 note=41 velocity=127 time=0.029761666666666662
EXTRACT: note_off channel=9 note=36 velocity=127 time=0
EXTRACT: note_off channel=9 note=35 velocity=127 time=0.059523333333333324
EXTRACT: note_off channel=6 note=60 velocity=100 time=0.07626427083333333
EXTRACT: note_on channel=6 note=55 velocity=100 time=0.013020729166666665
EXTRACT: note_on channel=2 note=55 velocity=100 time=0.07626427083333333
EXTRACT: note_on channel=2 note=64 velocity=100 time=0.029761666666666662
EXTRACT: note_off channel=2 note=55 velocity=100 time=0.059523333333333324
EXTRACT: note_on channel=2 note=65 velocity=100 time=0.013020729166666665
EXTRACT: note_off channel=4 note=67 velocity=100 time=0
EXTRACT: note_off channel=5 note=36 velocity=100 time=0
EXTRACT: note_on channel=5 note=36 velocity=100 time=0
EXTRACT: note_on channel=9 note=35 velocity=127 time=0
EXTRACT: note_on channel=9 note=36 velocity=127 time=0
EXTRACT: note_on channel=9 note=41 velocity=127 time=0
EXTRACT: note_off channel=2 note=64 velocity=100 time=0.016740937499999997
EXTRACT: note_on channel=2 note=57 velocity=100 time=0.005580312499999999
EXTRACT: note_off channel=9 note=41 velocity=127 time=0.0074404166666666655
EXTRACT: note_off channel=9 note=36 velocity=127 time=0
EXTRACT: note_on channel=2 note=60 velocity=100 time=0.011160624999999999
EXTRACT: note_off channel=9 note=35 velocity=127 time=0.048362708333333324
EXTRACT: note_on channel=2 note=55 velocity=100 time=0.24367364583333329
EXTRACT: note_on channel=2 note=60 velocity=100 time=0
EXTRACT: note_on channel=2 note=64 velocity=100 time=0
EXTRACT: note_off channel=1 note=64 velocity=100 time=0.024181354166666662
EXTRACT: note_off channel=1 note=60 velocity=100 time=0
EXTRACT: note_off channel=1 note=55 velocity=100 time=0
EXTRACT: note_off channel=1 note=52 velocity=100 time=0
EXTRACT: note_off channel=1 note=48 velocity=100 time=0
EXTRACT: note_on channel=1 note=64 velocity=100 time=0
EXTRACT: note_on channel=1 note=60 velocity=100 time=0
EXTRACT: note_on channel=1 note=55 velocity=100 time=0
EXTRACT: note_on channel=1 note=52 velocity=100 time=0
EXTRACT: note_on channel=1 note=48 velocity=100 time=0
EXTRACT: note_off channel=2 note=65 velocity=100 time=0
EXTRACT: note_on channel=3 note=67 velocity=100 time=0
EXTRACT: note_on channel=3 note=64 velocity=100 time=0
EXTRACT: note_on channel=3 note=60 velocity=100 time=0
EXTRACT: note_off channel=5 note=36 velocity=100 time=0
EXTRACT: note_on channel=5 note=36 velocity=100 time=0
EXTRACT: note_on channel=9 note=38 velocity=127 time=0
EXTRACT: note_on channel=9 note=41 velocity=127 time=0
EXTRACT: note_off channel=2 note=57 velocity=100 time=0.022321249999999997
EXTRACT: note_off channel=9 note=41 velocity=127 time=0.0074404166666666655
EXTRACT: note_off channel=9 note=38 velocity=127 time=0
EXTRACT: note_off channel=2 note=60 velocity=100 time=0.011160624999999999
EXTRACT: note_off channel=6 note=55 velocity=100 time=0.1376477083333333
EXTRACT: note_off channel=2 note=64 velocity=100 time=0.1543886458333333
EXTRACT: note_off channel=2 note=60 velocity=100 time=0
EXTRACT: note_off channel=2 note=55 velocity=100 time=0
EXTRACT: note_off channel=1 note=48 velocity=100 time=0.024181354166666662
EXTRACT: note_off channel=1 note=52 velocity=100 time=0
EXTRACT: note_off channel=1 note=55 velocity=100 time=0
EXTRACT: note_off channel=1 note=60 velocity=100 time=0
EXTRACT: note_off channel=1 note=64 velocity=100 time=0
EXTRACT: note_on channel=1 note=60 velocity=100 time=0
EXTRACT: note_on channel=1 note=64 velocity=100 time=0
EXTRACT: note_on channel=1 note=55 velocity=100 time=0
EXTRACT: note_on channel=1 note=52 velocity=100 time=0
EXTRACT: note_on channel=1 note=48 velocity=100 time=0
EXTRACT: note_off channel=3 note=60 velocity=100 time=0
EXTRACT: note_off channel=3 note=64 velocity=100 time=0
EXTRACT: note_off channel=3 note=67 velocity=100 time=0
EXTRACT: note_off channel=5 note=36 velocity=100 time=0
EXTRACT: note_on channel=5 note=36 velocity=100 time=0
EXTRACT: note_on channel=9 note=41 velocity=127 time=0
EXTRACT: note_off channel=9 note=41 velocity=127 time=0.029761666666666662
EXTRACT: note_off channel=5 note=36 velocity=100 time=0.14880833333333332
EXTRACT: note_on channel=5 note=33 velocity=100 time=0
EXTRACT: note_on channel=9 note=45 velocity=127 time=0
EXTRACT: note_off channel=9 note=45 velocity=127 time=0.029761666666666662
EXTRACT: note_on channel=2 note=50 velocity=100 time=0.059523333333333324
EXTRACT: note_on channel=2 note=52 velocity=100 time=0.08184458333333332
EXTRACT: note_off channel=1 note=48 velocity=100 time=0.0074404166666666655
EXTRACT: note_off channel=1 note=52 velocity=100 time=0
EXTRACT: note_off channel=1 note=55 velocity=100 time=0
EXTRACT: note_off channel=1 note=64 velocity=100 time=0
EXTRACT: note_off channel=1 note=60 velocity=100 time=0
EXTRACT: note_on channel=1 note=60 velocity=100 time=0
EXTRACT: note_on channel=1 note=64 velocity=100 time=0
EXTRACT: note_on channel=1 note=55 velocity=100 time=0
EXTRACT: note_on channel=1 note=52 velocity=100 time=0
EXTRACT: note_on channel=1 note=48 velocity=100 time=0
EXTRACT: note_off channel=2 note=50 velocity=100 time=0
EXTRACT: note_off channel=5 note=33 velocity=100 time=0
EXTRACT: note_on channel=5 note=36 velocity=100 time=0
EXTRACT: note_on channel=9 note=35 velocity=127 time=0
EXTRACT: note_on channel=9 note=36 velocity=127 time=0
EXTRACT: note_on channel=9 note=41 velocity=127 time=0
EXTRACT: note_off channel=9 note=41 velocity=127 time=0.029761666666666662
EXTRACT: note_off channel=9 note=36 velocity=127 time=0
EXTRACT: note_off channel=9 note=35 velocity=127 time=0.059523333333333324
EXTRACT: note_off channel=5 note=36 velocity=100 time=0.08928499999999999
EXTRACT: note_on channel=5 note=33 velocity=100 time=0
EXTRACT: note_on channel=9 note=45 velocity=127 time=0
EXTRACT: note_off channel=9 note=45 velocity=127 time=0.029761666666666662
EXTRACT: note_off channel=2 note=52 velocity=100 time=0.14136791666666665
EXTRACT: note_on channel=2 note=57 velocity=100 time=0
EXTRACT: note_off channel=1 note=48 velocity=100 time=0.0074404166666666655
EXTRACT: note_off channel=1 note=52 velocity=100 time=0
EXTRACT: note_off channel=1 note=55 velocity=100 time=0
EXTRACT: note_off channel=1 note=64 velocity=100 time=0
EXTRACT: note_off channel=1 note=60 velocity=100 time=0
EXTRACT: note_on channel=1 note=60 velocity=100 time=0
EXTRACT: note_on channel=1 note=64 velocity=100 time=0
EXTRACT: note_on channel=1 note=55 velocity=100 time=0
EXTRACT: note_on channel=1 note=52 velocity=100 time=0
EXTRACT: note_on channel=1 note=48 velocity=100 time=0
EXTRACT: note_off channel=5 note=33 velocity=100 time=0
EXTRACT: note_on channel=5 note=31 velocity=100 time=0
EXTRACT: note_on channel=9 note=35 velocity=127 time=0
EXTRACT: note_on channel=9 note=36 velocity=127 time=0
EXTRACT: note_on channel=9 note=41 velocity=127 time=0
EXTRACT: note_off channel=9 note=41 velocity=127 time=0.029761666666666662
EXTRACT: note_off channel=9 note=36 velocity=127 time=0
EXTRACT: note_off channel=9 note=35 velocity=127 time=0.059523333333333324
EXTRACT: note_off channel=5 note=31 velocity=100 time=0.08928499999999999
EXTRACT: note_on channel=5 note=36 velocity=100 time=0.029761666666666662
EXTRACT: note_off channel=2 note=57 velocity=100 time=0.14136791666666665
EXTRACT: note_off channel=1 note=48 velocity=100 time=0.0074404166666666655
EXTRACT: note_off channel=1 note=52 velocity=100 time=0
EXTRACT: note_off channel=1 note=55 velocity=100 time=0
EXTRACT: note_off channel=1 note=64 velocity=100 time=0
EXTRACT: note_off channel=1 note=60 velocity=100 time=0
EXTRACT: note_on channel=1 note=60 velocity=100 time=0
EXTRACT: note_on channel=1 note=64 velocity=100 time=0
EXTRACT: note_on channel=1 note=55 velocity=100 time=0
EXTRACT: note_on channel=1 note=52 velocity=100 time=0
EXTRACT: note_on channel=1 note=48 velocity=100 time=0
EXTRACT: note_on channel=3 note=72 velocity=120 time=0
EXTRACT: note_on channel=3 note=67 velocity=100 time=0
EXTRACT: note_on channel=3 note=64 velocity=100 time=0
EXTRACT: note_on channel=3 note=60 velocity=100 time=0
EXTRACT: note_on channel=9 note=38 velocity=127 time=0
EXTRACT: note_on channel=9 note=41 velocity=127 time=0
EXTRACT: note_on channel=2 note=52 velocity=100 time=0.005580312499999999
EXTRACT: note_off channel=9 note=41 velocity=127 time=0.024181354166666662
EXTRACT: note_off channel=9 note=38 velocity=127 time=0
EXTRACT: note_on channel=2 note=50 velocity=100 time=0.14880833333333332
EXTRACT: note_off channel=2 note=52 velocity=100 time=0.005580312499999999
EXTRACT: note_on channel=5 note=35 velocity=100 time=0.005580312499999999
EXTRACT: note_off channel=5 note=36 velocity=100 time=0.018601041666666665
EXTRACT: note_on channel=2 note=48 velocity=100 time=0.13020729166666664
EXTRACT: note_off channel=1 note=48 velocity=100 time=0.018601041666666665
EXTRACT: note_off channel=1 note=52 velocity=100 time=0
EXTRACT: note_off channel=1 note=55 velocity=100 time=0
EXTRACT: note_off channel=1 note=64 velocity=100 time=0
EXTRACT: note_off channel=1 note=60 velocity=100 time=0
EXTRACT: note_on channel=1 note=60 velocity=100 time=0
EXTRACT: note_on channel=1 note=64 velocity=100 time=0
EXTRACT: note_on channel=1 note=55 velocity=100 time=0
EXTRACT: note_on channel=1 note=52 velocity=100 time=0
EXTRACT: note_on channel=1 note=48 velocity=100 time=0
EXTRACT: note_off channel=2 note=50 velocity=100 time=0
EXTRACT: note_off channel=3 note=60 velocity=100 time=0
EXTRACT: note_off channel=3 note=64 velocity=100 time=0
EXTRACT: note_off channel=3 note=67 velocity=100 time=0
EXTRACT: note_off channel=3 note=72 velocity=120 time=0
EXTRACT: note_on channel=6 note=55 velocity=100 time=0
EXTRACT: note_on channel=9 note=41 velocity=127 time=0
EXTRACT: note_off channel=5 note=35 velocity=100 time=0.011160624999999999
EXTRACT: note_on channel=5 note=36 velocity=100 time=0
EXTRACT: note_off channel=9 note=41 velocity=127 time=0.018601041666666665
EXTRACT: note_on channel=5 note=35 velocity=100 time=0.11904666666666665
EXTRACT: note_on channel=2 note=48 velocity=100 time=0.005580312499999999
EXTRACT: note_off channel=2 note=48 velocity=100 time=0.005580312499999999
EXTRACT: note_on channel=6 note=55 velocity=100 time=0.011160624999999999
EXTRACT: note_off channel=6 note=55 velocity=100 time=0.0074404166666666655
EXTRACT: note_on channel=9 note=38 velocity=127 time=0
EXTRACT: note_off channel=5 note=36 velocity=100 time=0.011160624999999999
EXTRACT: note_off channel=9 note=38 velocity=127 time=0.018601041666666665
EXTRACT: note_off channel=5 note=35 velocity=100 time=0.11904666666666665
EXTRACT: note_off channel=2 note=48 velocity=100 time=0.005580312499999999
EXTRACT: note_off channel=6 note=55 velocity=100 time=0.016740937499999997
EXTRACT: note_off channel=1 note=48 velocity=100 time=0.0074404166666666655
EXTRACT: note_off channel=1 note=52 velocity=100 time=0
EXTRACT: note_off channel=1 note=55 velocity=100 time=0
EXTRACT: note_off channel=1 note=64 velocity=100 time=0
EXTRACT: note_off channel=1 note=60 velocity=100 time=0
EXTRACT: note_on channel=1 note=41 velocity=100 time=0
EXTRACT: note_on channel=1 note=48 velocity=100 time=0
EXTRACT: note_on channel=1 note=53 velocity=100 time=0
EXTRACT: note_on channel=1 note=57 velocity=100 time=0
EXTRACT: note_on channel=1 note=60 velocity=100 time=0
EXTRACT: note_on channel=2 note=48 velocity=100 time=0
EXTRACT: note_on channel=4 note=60 velocity=100 time=0
EXTRACT: note_on channel=5 note=29 velocity=100 time=0
EXTRACT: note_on channel=6 note=62 velocity=100 time=0
EXTRACT: note_on channel=9 note=36 velocity=127 time=0
EXTRACT: note_on channel=9 note=41 velocity=127 time=0
EXTRACT: note_on channel=9 note=49 velocity=127 time=0
EXTRACT: note_on channel=9 note=35 velocity=127 time=0
EXTRACT: note_off channel=9 note=49 velocity=127 time=0.029761666666666662
EXTRACT: note_off channel=9 note=41 velocity=127 time=0
EXTRACT: note_off channel=9 note=36 velocity=127 time=0
EXTRACT: note_off channel=9 note=35 velocity=127 time=0.059523333333333324
EXTRACT: note_off channel=5 note=29 velocity=100 time=0.26785499999999995
EXTRACT: note_on channel=5 note=29 velocity=100 time=0
EXTRACT: note_off channel=6 note=62 velocity=100 time=0
EXTRACT: note_on channel=9 note=35 velocity=127 time=0
EXTRACT: note_on channel=9 note=36 velocity=127 time=0
EXTRACT: note_on channel=9 note=41 velocity=127 time=0
EXTRACT: note_on channel=6 note=60 velocity=100 time=0.005580312499999999
EXTRACT: note_off channel=9 note=41 velocity=127 time=0.024181354166666662
EXTRACT: note_off channel=9 note=36 velocity=127 time=0
EXTRACT: note_off channel=9 note=35 velocity=127 time=0.059523333333333324
EXTRACT: note_off channel=6 note=60 velocity=100 time=0.09486531249999998
EXTRACT: note_on channel=6 note=62 velocity=100 time=0.005580312499999999
EXTRACT: note_off channel=1 note=60 velocity=100 time=0.16740937499999997
EXTRACT: note_off channel=1 note=57 velocity=100 time=0
EXTRACT: note_off channel=1 note=53 velocity=100 time=0
EXTRACT: note_off channel=1 note=48 velocity=100 time=0
EXTRACT: note_off channel=1 note=41 velocity=100 time=0
EXTRACT: note_on channel=1 note=41 velocity=100 time=0
EXTRACT: note_on channel=1 note=48 velocity=100 time=0
EXTRACT: note_on channel=1 note=53 velocity=100 time=0
EXTRACT: note_on channel=1 note=57 velocity=100 time=0
EXTRACT: note_on channel=1 note=60 velocity=100 time=0
EXTRACT: note_on channel=3 note=65 velocity=100 time=0
EXTRACT: note_on channel=3 note=60 velocity=100 time=0
EXTRACT: note_on channel=3 note=57 velocity=100 time=0
EXTRACT: note_on channel=3 note=53 velocity=100 time=0
EXTRACT: note_off channel=5 note=29 velocity=100 time=0
EXTRACT: note_on channel=5 note=29 velocity=100 time=0
EXTRACT: note_on channel=9 note=38 velocity=127 time=0
EXTRACT: note_on channel=9 note=41 velocity=127 time=0
EXTRACT: note_off channel=9 note=41 velocity=127 time=0.029761666666666662
EXTRACT: note_off channel=9 note=38 velocity=127 time=0
EXTRACT: note_off channel=1 note=60 velocity=100 time=0.32737833333333327
EXTRACT: note_off channel=1 note=57 velocity=100 time=0
EXTRACT: note_off channel=1 note=53 velocity=100 time=0
EXTRACT: note_off channel=1 note=48 velocity=100 time=0
EXTRACT: note_off channel=1 note=41 velocity=100 time=0
EXTRACT: note_on channel=1 note=41 velocity=100 time=0
EXTRACT: note_on channel=1 note=48 velocity=100 time=0
EXTRACT: note_on channel=1 note=53 velocity=100 time=0
EXTRACT: note_on channel=1 note=57 velocity=100 time=0
EXTRACT: note_on channel=1 note=60 velocity=100 time=0
EXTRACT: note_off channel=2 note=48 velocity=100 time=0
EXTRACT: note_off channel=3 note=53 velocity=100 time=0
EXTRACT: note_off channel=3 note=57 velocity=100 time=0
EXTRACT: note_off channel=3 note=60 velocity=100 time=0
EXTRACT: note_off channel=3 note=65 velocity=100 time=0
EXTRACT: note_off channel=5 note=29 velocity=100 time=0
EXTRACT: note_on channel=5 note=29 velocity=100 time=0
EXTRACT: note_on channel=6 note=60 velocity=100 time=0
EXTRACT: note_on channel=9 note=41 velocity=127 time=0
EXTRACT: note_off channel=6 note=62 velocity=100 time=0.011160624999999999
EXTRACT: note_off channel=9 note=41 velocity=127 time=0.018601041666666665
EXTRACT: note_on channel=6 note=62 velocity=100 time=0.13578760416666666
EXTRACT: note_off channel=5 note=29 velocity=100 time=0.013020729166666665
EXTRACT: note_on channel=5 note=29 velocity=100 time=0
EXTRACT: note_off channel=6 note=60 velocity=100 time=0
EXTRACT: note_on channel=9 note=45 velocity=127 time=0
EXTRACT: note_off channel=9 note=45 velocity=127 time=0.029761666666666662
EXTRACT: note_on channel=4 note=60 velocity=100 time=0.059523333333333324
EXTRACT: note_off channel=1 note=60 velocity=100 time=0.08928499999999999
EXTRACT: note_off channel=1 note=57 velocity=100 time=0
EXTRACT: note_off channel=1 note=53 velocity=100 time=0
EXTRACT: note_off channel=1 note=48 velocity=100 time=0
EXTRACT: note_off channel=1 note=41 velocity=100 time=0
EXTRACT: note_on channel=1 note=41 velocity=100 time=0
EXTRACT: note_on channel=1 note=48 velocity=100 time=0
EXTRACT: note_on channel=1 note=53 velocity=100 time=0
EXTRACT: note_on channel=1 note=56 velocity=100 time=0
EXTRACT: note_on channel=1 note=60 velocity=100 time=0
EXTRACT: note_on channel=1 note=65 velocity=100 time=0
EXTRACT: note_off channel=4 note=60 velocity=100 time=0
EXTRACT: note_off channel=4 note=60 velocity=100 time=0
EXTRACT: note_on channel=4 note=62 velocity=100 time=0
EXTRACT: note_off channel=5 note=29 velocity=100 time=0
EXTRACT: note_on channel=5 note=29 velocity=100 time=0
EXTRACT: note_on channel=9 note=35 velocity=127 time=0
EXTRACT: note_on channel=9 note=36 velocity=127 time=0
EXTRACT: note_on channel=9 note=41 velocity=127 time=0
EXTRACT: note_off channel=9 note=41 velocity=127 time=0.029761666666666662
EXTRACT: note_off channel=9 note=36 velocity=127 time=0
EXTRACT: note_off channel=9 note=35 velocity=127 time=0.059523333333333324
EXTRACT: note_off channel=5 note=29 velocity=100 time=0.08928499999999999
EXTRACT: note_on channel=5 note=29 velocity=100 time=0
EXTRACT: note_on channel=9 note=45 velocity=127 time=0
EXTRACT: note_off channel=9 note=45 velocity=127 time=0.029761666666666662
EXTRACT: note_off channel=6 note=62 velocity=100 time=0.13578760416666666
EXTRACT: note_on channel=6 note=60 velocity=100 time=0
EXTRACT: note_off channel=5 note=29 velocity=100 time=0.013020729166666665
EXTRACT: note_on channel=5 note=29 velocity=100 time=0
EXTRACT: note_on channel=9 note=35 velocity=127 time=0
EXTRACT: note_on channel=9 note=36 velocity=127 time=0
EXTRACT: note_on channel=9 note=41 velocity=127 time=0
EXTRACT: note_off channel=9 note=41 velocity=127 time=0.029761666666666662
EXTRACT: note_off channel=9 note=36 velocity=127 time=0
EXTRACT: note_off channel=9 note=35 velocity=127 time=0.059523333333333324
EXTRACT: note_on channel=6 note=62 velocity=100 time=0.2380933333333333
EXTRACT: note_off channel=6 note=60 velocity=100 time=0.016740937499999997
EXTRACT: note_off channel=1 note=65 velocity=100 time=0.013020729166666665
EXTRACT: note_off channel=1 note=60 velocity=100 time=0
EXTRACT: note_off channel=1 note=56 velocity=100 time=0
EXTRACT: note_off channel=1 note=53 velocity=100 time=0
EXTRACT: note_off channel=1 note=48 velocity=100 time=0
EXTRACT: note_off channel=1 note=41 velocity=100 time=0
EXTRACT: note_on channel=1 note=41 velocity=100 time=0
EXTRACT: note_on channel=1 note=48 velocity=100 time=0
EXTRACT: note_on channel=1 note=53 velocity=100 time=0
EXTRACT: note_on channel=1 note=56 velocity=100 time=0
EXTRACT: note_on channel=1 note=60 velocity=100 time=0
EXTRACT: note_on channel=1 note=65 velocity=100 time=0
EXTRACT: note_on channel=3 note=65 velocity=100 time=0
EXTRACT: note_on channel=3 note=60 velocity=100 time=0
EXTRACT: note_on channel=3 note=56 velocity=100 time=0
EXTRACT: note_on channel=3 note=53 velocity=100 time=0
EXTRACT: note_off channel=5 note=29 velocity=100 time=0
EXTRACT: note_on channel=5 note=29 velocity=100 time=0
EXTRACT: note_on channel=9 note=38 velocity=127 time=0
EXTRACT: note_on channel=9 note=41 velocity=127 time=0
EXTRACT: note_off channel=9 note=41 velocity=127 time=0.029761666666666662
EXTRACT: note_off channel=9 note=38 velocity=127 time=0
EXTRACT: note_off channel=6 note=62 velocity=100 time=0.11904666666666665
EXTRACT: note_on channel=6 note=60 velocity=100 time=0.05208291666666666
EXTRACT: note_off channel=1 note=65 velocity=100 time=0.15624874999999996
EXTRACT: note_off channel=1 note=60 velocity=100 time=0
EXTRACT: note_off channel=1 note=56 velocity=100 time=0
EXTRACT: note_off channel=1 note=53 velocity=100 time=0
EXTRACT: note_off channel=1 note=48 velocity=100 time=0
EXTRACT: note_off channel=1 note=41 velocity=100 time=0
EXTRACT: note_on channel=1 note=41 velocity=100 time=0
EXTRACT: note_on channel=1 note=48 velocity=100 time=0
EXTRACT: note_on channel=1 note=53 velocity=100 time=0
EXTRACT: note_on channel=1 note=56 velocity=100 time=0
EXTRACT: note_on channel=1 note=60 velocity=100 time=0
EXTRACT: note_on channel=1 note=65 velocity=100 time=0
EXTRACT: note_off channel=3 note=53 velocity=100 time=0
EXTRACT: note_off channel=3 note=56 velocity=100 time=0
EXTRACT: note_off channel=3 note=60 velocity=100 time=0
EXTRACT: note_off channel=3 note=65 velocity=100 time=0
EXTRACT: note_off channel=5 note=29 velocity=100 time=0
EXTRACT: note_on channel=5 note=31 velocity=100 time=0
EXTRACT: note_on channel=9 note=41 velocity=127 time=0
EXTRACT: note_off channel=9 note=41 velocity=127 time=0.029761666666666662
EXTRACT: note_off channel=5 note=31 velocity=100 time=0.14880833333333332
EXTRACT: note_on channel=5 note=33 velocity=100 time=0
EXTRACT: note_on channel=4 note=62 velocity=100 time=0.08928499999999999
EXTRACT: note_off channel=1 note=65 velocity=100 time=0.08928499999999999
EXTRACT: note_off channel=1 note=60 velocity=100 time=0
EXTRACT: note_off channel=1 note=56 velocity=100 time=0
EXTRACT: note_off channel=1 note=53 velocity=100 time=0
EXTRACT: note_off channel=1 note=48 velocity=100 time=0
EXTRACT: note_off channel=1 note=41 velocity=100 time=0
EXTRACT: note_on channel=1 note=48 velocity=100 time=0
EXTRACT: note_on channel=1 note=52 velocity=100 time=0
EXTRACT: note_on channel=1 note=55 velocity=100 time=0
EXTRACT: note_on channel=1 note=60 velocity=100 time=0
EXTRACT: note_on channel=1 note=64 velocity=100 time=0
EXTRACT: note_off channel=4 note=62 velocity=100 time=0
EXTRACT: note_off channel=4 note=62 velocity=100 time=0
EXTRACT: note_on channel=4 note=67 velocity=100 time=0
EXTRACT: note_off channel=5 note=33 velocity=100 time=0
EXTRACT: note_on channel=5 note=36 velocity=100 time=0
EXTRACT: note_on channel=9 note=35 velocity=127 time=0
EXTRACT: note_on channel=9 note=36 velocity=127 time=0
EXTRACT: note_on channel=9 note=41 velocity=127 time=0
EXTRACT: note_off channel=9 note=41 velocity=127 time=0.029761666666666662
EXTRACT: note_off channel=9 note=36 velocity=127 time=0
EXTRACT: note_off channel=9 note=35 velocity=127 time=0.059523333333333324
EXTRACT: note_on channel=6 note=55 velocity=100 time=0.10044562499999998
EXTRACT: note_off channel=6 note=60 velocity=100 time=0.011160624999999999
EXTRACT: note_off channel=5 note=36 velocity=100 time=0.15624874999999996
EXTRACT: note_on channel=5 note=36 velocity=100 time=0
EXTRACT: note_on channel=9 note=36 velocity=127 time=0
EXTRACT: note_on channel=9 note=41 velocity=127 time=0
EXTRACT: note_on channel=9 note=35 velocity=127 time=0
EXTRACT: note_off channel=9 note=41 velocity=127 time=0.029761666666666662
EXTRACT: note_off channel=9 note=36 velocity=127 time=0
EXTRACT: note_off channel=9 note=35 velocity=127 time=0.059523333333333324
EXTRACT: note_off channel=1 note=64 velocity=100 time=0.26785499999999995
EXTRACT: note_off channel=1 note=60 velocity=100 time=0
EXTRACT: note_off channel=1 note=55 velocity=100 time=0
EXTRACT: note_off channel=1 note=52 velocity=100 time=0
EXTRACT: note_off channel=1 note=48 velocity=100 time=0
EXTRACT: note_on channel=1 note=64 velocity=100 time=0
EXTRACT: note_on channel=1 note=60 velocity=100 time=0
EXTRACT: note_on channel=1 note=55 velocity=100 time=0
EXTRACT: note_on channel=1 note=52 velocity=100 time=0
EXTRACT: note_on channel=1 note=48 velocity=100 time=0
EXTRACT: note_on channel=3 note=67 velocity=100 time=0
EXTRACT: note_on channel=3 note=64 velocity=100 time=0
EXTRACT: note_on channel=3 note=60 velocity=100 time=0
EXTRACT: note_off channel=5 note=36 velocity=100 time=0
EXTRACT: note_on channel=5 note=36 velocity=100 time=0
EXTRACT: note_on channel=9 note=38 velocity=127 time=0
EXTRACT: note_on channel=9 note=41 velocity=127 time=0
EXTRACT: note_off channel=9 note=41 velocity=127 time=0.029761666666666662
EXTRACT: note_off channel=9 note=38 velocity=127 time=0
EXTRACT: note_off channel=6 note=55 velocity=100 time=0.1599689583333333
EXTRACT: note_off channel=1 note=48 velocity=100 time=0.16740937499999997
EXTRACT: note_off channel=1 note=52 velocity=100 time=0
EXTRACT: note_off channel=1 note=55 velocity=100 time=0
EXTRACT: note_off channel=1 note=60 velocity=100 time=0
EXTRACT: note_off channel=1 note=64 velocity=100 time=0
EXTRACT: note_on channel=1 note=60 velocity=100 time=0
EXTRACT: note_on channel=1 note=64 velocity=100 time=0
EXTRACT: note_on channel=1 note=55 velocity=100 time=0
EXTRACT: note_on channel=1 note=52 velocity=100 time=0
EXTRACT: note_on channel=1 note=48 velocity=100 time=0
EXTRACT: note_off channel=3 note=60 velocity=100 time=0
EXTRACT: note_off channel=3 note=64 velocity=100 time=0
EXTRACT: note_off channel=3 note=67 velocity=100 time=0
EXTRACT: note_off channel=4 note=67 velocity=100 time=0
EXTRACT: note_off channel=5 note=36 velocity=100 time=0
EXTRACT: note_on channel=5 note=36 velocity=100 time=0
EXTRACT: note_on channel=9 note=41 velocity=127 time=0
EXTRACT: note_off channel=9 note=41 velocity=127 time=0.029761666666666662
EXTRACT: note_off channel=5 note=36 velocity=100 time=0.14880833333333332
EXTRACT: note_on channel=5 note=33 velocity=100 time=0
EXTRACT: note_on channel=9 note=45 velocity=127 time=0
EXTRACT: note_off channel=9 note=45 velocity=127 time=0.029761666666666662
EXTRACT: note_on channel=2 note=55 velocity=100 time=0.059523333333333324
EXTRACT: note_off channel=1 note=48 velocity=100 time=0.08928499999999999
EXTRACT: note_off channel=1 note=52 velocity=100 time=0
EXTRACT: note_off channel=1 note=55 velocity=100 time=0
EXTRACT: note_off channel=1 note=64 velocity=100 time=0
EXTRACT: note_off channel=1 note=60 velocity=100 time=0
EXTRACT: note_on channel=1 note=60 velocity=100 time=0
EXTRACT: note_on channel=1 note=64 velocity=100 time=0
EXTRACT: note_on channel=1 note=55 velocity=100 time=0
EXTRACT: note_on channel=1 note=52 velocity=100 time=0
EXTRACT: note_on channel=1 note=48 velocity=100 time=0
EXTRACT: note_off channel=2 note=55 velocity=100 time=0
EXTRACT: note_on channel=2 note=57 velocity=100 time=0
EXTRACT: note_on channel=2 note=60 velocity=100 time=0
EXTRACT: note_off channel=5 note=33 velocity=100 time=0
EXTRACT: note_on channel=5 note=36 velocity=100 time=0
EXTRACT: note_on channel=9 note=35 velocity=127 time=0
EXTRACT: note_on channel=9 note=36 velocity=127 time=0
EXTRACT: note_on channel=9 note=41 velocity=127 time=0
EXTRACT: note_off channel=9 note=41 velocity=127 time=0.029761666666666662
EXTRACT: note_off channel=9 note=36 velocity=127 time=0
EXTRACT: note_off channel=9 note=35 velocity=127 time=0.059523333333333324
EXTRACT: note_off channel=5 note=36 velocity=100 time=0.08928499999999999
EXTRACT: note_on channel=5 note=33 velocity=100 time=0
EXTRACT: note_on channel=9 note=45 velocity=127 time=0
EXTRACT: note_off channel=9 note=45 velocity=127 time=0.029761666666666662
EXTRACT: note_off channel=1 note=48 velocity=100 time=0.14880833333333332
EXTRACT: note_off channel=1 note=52 velocity=100 time=0
EXTRACT: note_off channel=1 note=55 velocity=100 time=0
EXTRACT: note_off channel=1 note=64 velocity=100 time=0
EXTRACT: note_off channel=1 note=60 velocity=100 time=0
EXTRACT: note_on channel=1 note=60 velocity=100 time=0
EXTRACT: note_on channel=1 note=64 velocity=100 time=0
EXTRACT: note_on channel=1 note=55 velocity=100 time=0
EXTRACT: note_on channel=1 note=52 velocity=100 time=0
EXTRACT: note_on channel=1 note=48 velocity=100 time=0
EXTRACT: note_off channel=2 note=60 velocity=100 time=0
EXTRACT: note_off channel=2 note=57 velocity=100 time=0
EXTRACT: note_on channel=2 note=60 velocity=100 time=0
EXTRACT: note_on channel=2 note=55 velocity=100 time=0
EXTRACT: note_off channel=5 note=33 velocity=100 time=0
EXTRACT: note_on channel=5 note=31 velocity=100 time=0
EXTRACT: note_on channel=9 note=35 velocity=127 time=0
EXTRACT: note_on channel=9 note=36 velocity=127 time=0
EXTRACT: note_on channel=9 note=41 velocity=127 time=0
EXTRACT: note_off channel=9 note=41 velocity=127 time=0.029761666666666662
EXTRACT: note_off channel=9 note=36 velocity=127 time=0
EXTRACT: note_off channel=9 note=35 velocity=127 time=0.059523333333333324
EXTRACT: note_off channel=5 note=31 velocity=100 time=0.08928499999999999
EXTRACT: note_on channel=5 note=36 velocity=100 time=0.029761666666666662
EXTRACT: note_off channel=1 note=48 velocity=100 time=0.14880833333333332
EXTRACT: note_off channel=1 note=52 velocity=100 time=0
EXTRACT: note_off channel=1 note=55 velocity=100 time=0
EXTRACT: note_off channel=1 note=64 velocity=100 time=0
EXTRACT: note_off channel=1 note=60 velocity=100 time=0
EXTRACT: note_on channel=1 note=60 velocity=100 time=0
EXTRACT: note_on channel=1 note=64 velocity=100 time=0
EXTRACT: note_on channel=1 note=55 velocity=100 time=0
EXTRACT: note_on channel=1 note=52 velocity=100 time=0
EXTRACT: note_on channel=1 note=48 velocity=100 time=0
EXTRACT: note_off channel=2 note=55 velocity=100 time=0
EXTRACT: note_off channel=2 note=60 velocity=100 time=0
EXTRACT: note_on channel=2 note=52 velocity=100 time=0
EXTRACT: note_on channel=3 note=72 velocity=120 time=0
EXTRACT: note_on channel=3 note=67 velocity=100 time=0
EXTRACT: note_on channel=3 note=64 velocity=100 time=0
EXTRACT: note_on channel=3 note=60 velocity=100 time=0
EXTRACT: note_on channel=9 note=38 velocity=127 time=0
EXTRACT: note_on channel=9 note=41 velocity=127 time=0
EXTRACT: note_off channel=9 note=41 velocity=127 time=0.029761666666666662
EXTRACT: note_off channel=9 note=38 velocity=127 time=0
EXTRACT: note_on channel=5 note=35 velocity=100 time=0.1599689583333333
EXTRACT: note_off channel=5 note=36 velocity=100 time=0.018601041666666665
EXTRACT: note_off channel=1 note=48 velocity=100 time=0.14880833333333332
EXTRACT: note_off channel=1 note=52 velocity=100 time=0
EXTRACT: note_off channel=1 note=55 velocity=100 time=0
EXTRACT: note_off channel=1 note=64 velocity=100 time=0
EXTRACT: note_off channel=1 note=60 velocity=100 time=0
EXTRACT: note_on channel=1 note=60 velocity=100 time=0
EXTRACT: note_on channel=1 note=64 velocity=100 time=0
EXTRACT: note_on channel=1 note=55 velocity=100 time=0
EXTRACT: note_on channel=1 note=52 velocity=100 time=0
EXTRACT: note_on channel=1 note=48 velocity=100 time=0
EXTRACT: note_off channel=2 note=52 velocity=100 time=0
EXTRACT: note_on channel=2 note=50 velocity=100 time=0
EXTRACT: note_on channel=2 note=55 velocity=100 time=0
EXTRACT: note_off channel=3 note=60 velocity=100 time=0
EXTRACT: note_off channel=3 note=64 velocity=100 time=0
EXTRACT: note_off channel=3 note=67 velocity=100 time=0
EXTRACT: note_off channel=3 note=72 velocity=120 time=0
EXTRACT: note_on channel=9 note=41 velocity=127 time=0
EXTRACT: note_off channel=5 note=35 velocity=100 time=0.011160624999999999
EXTRACT: note_on channel=5 note=36 velocity=100 time=0
EXTRACT: note_off channel=9 note=41 velocity=127 time=0.018601041666666665
EXTRACT: note_on channel=5 note=35 velocity=100 time=0.11904666666666665
EXTRACT: note_on channel=9 note=38 velocity=127 time=0.029761666666666662
EXTRACT: note_off channel=5 note=36 velocity=100 time=0.011160624999999999
EXTRACT: note_off channel=9 note=38 velocity=127 time=0.018601041666666665
EXTRACT: note_off channel=5 note=35 velocity=100 time=0.11904666666666665
EXTRACT: note_off channel=1 note=48 velocity=100 time=0.029761666666666662
EXTRACT: note_off channel=1 note=52 velocity=100 time=0
EXTRACT: note_off channel=1 note=55 velocity=100 time=0
EXTRACT: note_off channel=1 note=64 velocity=100 time=0
EXTRACT: note_off channel=1 note=60 velocity=100 time=0
EXTRACT: note_on channel=1 note=41 velocity=100 time=0
EXTRACT: note_on channel=1 note=48 velocity=100 time=0
EXTRACT: note_on channel=1 note=53 velocity=100 time=0
EXTRACT: note_on channel=1 note=57 velocity=100 time=0
EXTRACT: note_on channel=1 note=60 velocity=100 time=0
EXTRACT: note_off channel=2 note=55 velocity=100 time=0
EXTRACT: note_off channel=2 note=50 velocity=100 time=0
EXTRACT: note_on channel=2 note=48 velocity=100 time=0
EXTRACT: note_on channel=4 note=60 velocity=100 time=0
EXTRACT: note_on channel=5 note=29 velocity=100 time=0
EXTRACT: note_on channel=6 note=62 velocity=100 time=0
EXTRACT: note_on channel=9 note=35 velocity=127 time=0
EXTRACT: note_on channel=9 note=36 velocity=127 time=0
EXTRACT: note_on channel=9 note=41 velocity=127 time=0
EXTRACT: note_on channel=9 note=49 velocity=127 time=0
EXTRACT: note_off channel=9 note=49 velocity=127 time=0.029761666666666662
EXTRACT: note_off channel=9 note=41 velocity=127 time=0
EXTRACT: note_off channel=9 note=36 velocity=127 time=0
EXTRACT: note_off channel=9 note=35 velocity=127 time=0.059523333333333324
EXTRACT: note_off channel=5 note=29 velocity=100 time=0.26785499999999995
EXTRACT: note_on channel=5 note=29 velocity=100 time=0
EXTRACT: note_off channel=6 note=62 velocity=100 time=0
EXTRACT: note_on channel=9 note=36 velocity=127 time=0
EXTRACT: note_on channel=9 note=41 velocity=127 time=0
EXTRACT: note_on channel=6 note=60 velocity=100 time=0.022321249999999997
EXTRACT: note_off channel=9 note=41 velocity=127 time=0.0074404166666666655
EXTRACT: note_off channel=9 note=36 velocity=127 time=0
EXTRACT: note_on channel=9 note=35 velocity=127 time=0.14880833333333332
EXTRACT: note_off channel=6 note=60 velocity=100 time=0.022321249999999997
EXTRACT: note_on channel=6 note=62 velocity=100 time=0.018601041666666665
EXTRACT: note_off channel=9 note=35 velocity=127 time=0.048362708333333324
EXTRACT: note_off channel=1 note=60 velocity=100 time=0.08928499999999999
EXTRACT: note_off channel=1 note=57 velocity=100 time=0
EXTRACT: note_off channel=1 note=53 velocity=100 time=0
EXTRACT: note_off channel=1 note=48 velocity=100 time=0
EXTRACT: note_off channel=1 note=41 velocity=100 time=0
EXTRACT: note_on channel=1 note=41 velocity=100 time=0
EXTRACT: note_on channel=1 note=48 velocity=100 time=0
EXTRACT: note_on channel=1 note=53 velocity=100 time=0
EXTRACT: note_on channel=1 note=57 velocity=100 time=0
EXTRACT: note_on channel=1 note=60 velocity=100 time=0
EXTRACT: note_on channel=3 note=65 velocity=100 time=0
EXTRACT: note_on channel=3 note=60 velocity=100 time=0
EXTRACT: note_on channel=3 note=57 velocity=100 time=0
EXTRACT: note_on channel=3 note=53 velocity=100 time=0
EXTRACT: note_off channel=5 note=29 velocity=100 time=0
EXTRACT: note_on channel=5 note=29 velocity=100 time=0
EXTRACT: note_on channel=9 note=38 velocity=127 time=0
EXTRACT: note_on channel=9 note=41 velocity=127 time=0
EXTRACT: note_off channel=9 note=41 velocity=127 time=0.029761666666666662
EXTRACT: note_off channel=9 note=38 velocity=127 time=0
EXTRACT: note_on channel=6 note=60 velocity=100 time=0.31435760416666664
EXTRACT: note_off channel=1 note=60 velocity=100 time=0.013020729166666665
EXTRACT: note_off channel=1 note=57 velocity=100 time=0
EXTRACT: note_off channel=1 note=53 velocity=100 time=0
EXTRACT: note_off channel=1 note=48 velocity=100 time=0
EXTRACT: note_off channel=1 note=41 velocity=100 time=0
EXTRACT: note_on channel=1 note=41 velocity=100 time=0
EXTRACT: note_on channel=1 note=48 velocity=100 time=0
EXTRACT: note_on channel=1 note=53 velocity=100 time=0
EXTRACT: note_on channel=1 note=57 velocity=100 time=0
EXTRACT: note_on channel=1 note=60 velocity=100 time=0
EXTRACT: note_off channel=2 note=48 velocity=100 time=0
EXTRACT: note_off channel=3 note=53 velocity=100 time=0
EXTRACT: note_off channel=3 note=57 velocity=100 time=0
EXTRACT: note_off channel=3 note=60 velocity=100 time=0
EXTRACT: note_off channel=3 note=65 velocity=100 time=0
EXTRACT: note_off channel=5 note=29 velocity=100 time=0
EXTRACT: note_on channel=5 note=29 velocity=100 time=0
EXTRACT: note_on channel=9 note=41 velocity=127 time=0
EXTRACT: note_off channel=9 note=41 velocity=127 time=0.029761666666666662
EXTRACT: note_off channel=6 note=62 velocity=100 time=0.011160624999999999
EXTRACT: note_off channel=5 note=29 velocity=100 time=0.1376477083333333
EXTRACT: note_on channel=5 note=29 velocity=100 time=0
EXTRACT: note_on channel=9 note=45 velocity=127 time=0
EXTRACT: note_off channel=9 note=45 velocity=127 time=0.029761666666666662
EXTRACT: note_on channel=4 note=60 velocity=100 time=0.059523333333333324
EXTRACT: note_off channel=6 note=60 velocity=100 time=0.07626427083333333
EXTRACT: note_off channel=1 note=60 velocity=100 time=0.013020729166666665
EXTRACT: note_off channel=1 note=57 velocity=100 time=0
EXTRACT: note_off channel=1 note=53 velocity=100 time=0
EXTRACT: note_off channel=1 note=48 velocity=100 time=0
EXTRACT: note_off channel=1 note=41 velocity=100 time=0
EXTRACT: note_on channel=1 note=41 velocity=100 time=0
EXTRACT: note_on channel=1 note=48 velocity=100 time=0
EXTRACT: note_on channel=1 note=53 velocity=100 time=0
EXTRACT: note_on channel=1 note=56 velocity=100 time=0
EXTRACT: note_on channel=1 note=60 velocity=100 time=0
EXTRACT: note_on channel=1 note=65 velocity=100 time=0
EXTRACT: note_off channel=4 note=60 velocity=100 time=0
EXTRACT: note_off channel=4 note=60 velocity=100 time=0
EXTRACT: note_on channel=4 note=62 velocity=100 time=0
EXTRACT: note_off channel=5 note=29 velocity=100 time=0
EXTRACT: note_on channel=5 note=29 velocity=100 time=0
EXTRACT: note_on channel=6 note=62 velocity=100 time=0
EXTRACT: note_on channel=9 note=35 velocity=127 time=0
EXTRACT: note_on channel=9 note=36 velocity=127 time=0
EXTRACT: note_on channel=9 note=41 velocity=127 time=0
EXTRACT: note_off channel=9 note=41 velocity=127 time=0.029761666666666662
EXTRACT: note_off channel=9 note=36 velocity=127 time=0
EXTRACT: note_off channel=9 note=35 velocity=127 time=0.059523333333333324
EXTRACT: note_off channel=5 note=29 velocity=100 time=0.08928499999999999
EXTRACT: note_on channel=5 note=29 velocity=100 time=0
EXTRACT: note_off channel=6 note=62 velocity=100 time=0
EXTRACT: note_on channel=9 note=45 velocity=127 time=0
EXTRACT: note_on channel=6 note=63 velocity=100 time=0.011160624999999999
EXTRACT: note_off channel=9 note=45 velocity=127 time=0.018601041666666665
EXTRACT: note_off channel=5 note=29 velocity=100 time=0.14880833333333332
EXTRACT: note_on channel=5 note=29 velocity=100 time=0
EXTRACT: note_on channel=6 note=62 velocity=100 time=0
EXTRACT: note_on channel=9 note=35 velocity=127 time=0
EXTRACT: note_on channel=9 note=36 velocity=127 time=0
EXTRACT: note_on channel=9 note=41 velocity=127 time=0
EXTRACT: note_off channel=6 note=63 velocity=100 time=0.011160624999999999
EXTRACT: note_off channel=9 note=41 velocity=127 time=0.018601041666666665
EXTRACT: note_off channel=9 note=36 velocity=127 time=0
EXTRACT: note_off channel=9 note=35 velocity=127 time=0.059523333333333324
EXTRACT: note_off channel=1 note=65 velocity=100 time=0.26785499999999995
EXTRACT: note_off channel=1 note=60 velocity=100 time=0
EXTRACT: note_off channel=1 note=56 velocity=100 time=0
EXTRACT: note_off channel=1 note=53 velocity=100 time=0
EXTRACT: note_off channel=1 note=48 velocity=100 time=0
EXTRACT: note_off channel=1 note=41 velocity=100 time=0
EXTRACT: note_on channel=1 note=41 velocity=100 time=0
EXTRACT: note_on channel=1 note=48 velocity=100 time=0
EXTRACT: note_on channel=1 note=53 velocity=100 time=0
EXTRACT: note_on channel=1 note=56 velocity=100 time=0
EXTRACT: note_on channel=1 note=60 velocity=100 time=0
EXTRACT: note_on channel=1 note=65 velocity=100 time=0
EXTRACT: note_on channel=3 note=65 velocity=100 time=0
EXTRACT: note_on channel=3 note=60 velocity=100 time=0
EXTRACT: note_on channel=3 note=56 velocity=100 time=0
EXTRACT: note_on channel=3 note=53 velocity=100 time=0
EXTRACT: note_off channel=5 note=29 velocity=100 time=0
EXTRACT: note_on channel=5 note=29 velocity=100 time=0
EXTRACT: note_on channel=9 note=38 velocity=127 time=0
EXTRACT: note_on channel=9 note=41 velocity=127 time=0
EXTRACT: note_off channel=9 note=41 velocity=127 time=0.029761666666666662
EXTRACT: note_off channel=9 note=38 velocity=127 time=0
EXTRACT: note_off channel=1 note=65 velocity=100 time=0.32737833333333327
EXTRACT: note_off channel=1 note=60 velocity=100 time=0
EXTRACT: note_off channel=1 note=56 velocity=100 time=0
EXTRACT: note_off channel=1 note=53 velocity=100 time=0
EXTRACT: note_off channel=1 note=48 velocity=100 time=0
EXTRACT: note_off channel=1 note=41 velocity=100 time=0
EXTRACT: note_on channel=1 note=41 velocity=100 time=0
EXTRACT: note_on channel=1 note=48 velocity=100 time=0
EXTRACT: note_on channel=1 note=53 velocity=100 time=0
EXTRACT: note_on channel=1 note=56 velocity=100 time=0
EXTRACT: note_on channel=1 note=60 velocity=100 time=0
EXTRACT: note_on channel=1 note=65 velocity=100 time=0
EXTRACT: note_off channel=3 note=53 velocity=100 time=0
EXTRACT: note_off channel=3 note=56 velocity=100 time=0
EXTRACT: note_off channel=3 note=60 velocity=100 time=0
EXTRACT: note_off channel=3 note=65 velocity=100 time=0
EXTRACT: note_off channel=5 note=29 velocity=100 time=0
EXTRACT: note_on channel=5 note=31 velocity=100 time=0
EXTRACT: note_off channel=6 note=62 velocity=100 time=0
EXTRACT: note_on channel=6 note=60 velocity=100 time=0
EXTRACT: note_on channel=9 note=41 velocity=127 time=0
EXTRACT: note_off channel=9 note=41 velocity=127 time=0.029761666666666662
EXTRACT: note_off channel=5 note=31 velocity=100 time=0.14880833333333332
EXTRACT: note_on channel=5 note=33 velocity=100 time=0
EXTRACT: note_on channel=4 note=62 velocity=100 time=0.08928499999999999
EXTRACT: note_off channel=1 note=65 velocity=100 time=0.08928499999999999
EXTRACT: note_off channel=1 note=60 velocity=100 time=0
EXTRACT: note_off channel=1 note=56 velocity=100 time=0
EXTRACT: note_off channel=1 note=53 velocity=100 time=0
EXTRACT: note_off channel=1 note=48 velocity=100 time=0
EXTRACT: note_off channel=1 note=41 velocity=100 time=0
EXTRACT: note_on channel=1 note=48 velocity=100 time=0
EXTRACT: note_on channel=1 note=52 velocity=100 time=0
EXTRACT: note_on channel=1 note=55 velocity=100 time=0
EXTRACT: note_on channel=1 note=60 velocity=100 time=0
EXTRACT: note_on channel=1 note=64 velocity=100 time=0
EXTRACT: note_off channel=4 note=62 velocity=100 time=0
EXTRACT: note_off channel=4 note=62 velocity=100 time=0
EXTRACT: note_on channel=4 note=67 velocity=100 time=0
EXTRACT: note_off channel=5 note=33 velocity=100 time=0
EXTRACT: note_on channel=5 note=36 velocity=100 time=0
EXTRACT: note_off channel=6 note=60 velocity=100 time=0
EXTRACT: note_on channel=6 note=55 velocity=100 time=0
EXTRACT: note_on channel=9 note=35 velocity=127 time=0
EXTRACT: note_on channel=9 note=36 velocity=127 time=0
EXTRACT: note_on channel=9 note=41 velocity=127 time=0
EXTRACT: note_off channel=9 note=41 velocity=127 time=0.029761666666666662
EXTRACT: note_off channel=9 note=36 velocity=127 time=0
EXTRACT: note_off channel=9 note=35 velocity=127 time=0.059523333333333324
EXTRACT: note_off channel=5 note=36 velocity=100 time=0.26785499999999995
EXTRACT: note_on channel=5 note=36 velocity=100 time=0
EXTRACT: note_on channel=9 note=35 velocity=127 time=0
EXTRACT: note_on channel=9 note=36 velocity=127 time=0
EXTRACT: note_on channel=9 note=41 velocity=127 time=0
EXTRACT: note_off channel=9 note=41 velocity=127 time=0.029761666666666662
EXTRACT: note_off channel=9 note=36 velocity=127 time=0
EXTRACT: note_off channel=9 note=35 velocity=127 time=0.059523333333333324
EXTRACT: note_off channel=1 note=64 velocity=100 time=0.26785499999999995
EXTRACT: note_off channel=1 note=60 velocity=100 time=0
EXTRACT: note_off channel=1 note=55 velocity=100 time=0
EXTRACT: note_off channel=1 note=52 velocity=100 time=0
EXTRACT: note_off channel=1 note=48 velocity=100 time=0
EXTRACT: note_on channel=1 note=64 velocity=100 time=0
EXTRACT: note_on channel=1 note=60 velocity=100 time=0
EXTRACT: note_on channel=1 note=55 velocity=100 time=0
EXTRACT: note_on channel=1 note=52 velocity=100 time=0
EXTRACT: note_on channel=1 note=48 velocity=100 time=0
EXTRACT: note_on channel=3 note=67 velocity=100 time=0
EXTRACT: note_on channel=3 note=64 velocity=100 time=0
EXTRACT: note_on channel=3 note=60 velocity=100 time=0
EXTRACT: note_off channel=5 note=36 velocity=100 time=0
EXTRACT: note_on channel=5 note=36 velocity=100 time=0
EXTRACT: note_on channel=9 note=38 velocity=127 time=0
EXTRACT: note_on channel=9 note=41 velocity=127 time=0
EXTRACT: note_off channel=9 note=41 velocity=127 time=0.029761666666666662
EXTRACT: note_off channel=9 note=38 velocity=127 time=0
EXTRACT: note_off channel=1 note=48 velocity=100 time=0.32737833333333327
EXTRACT: note_off channel=1 note=52 velocity=100 time=0
EXTRACT: note_off channel=1 note=55 velocity=100 time=0
EXTRACT: note_off channel=1 note=60 velocity=100 time=0
EXTRACT: note_off channel=1 note=64 velocity=100 time=0
EXTRACT: note_on channel=1 note=60 velocity=100 time=0
EXTRACT: note_on channel=1 note=64 velocity=100 time=0
EXTRACT: note_on channel=1 note=55 velocity=100 time=0
EXTRACT: note_on channel=1 note=52 velocity=100 time=0
EXTRACT: note_on channel=1 note=48 velocity=100 time=0
EXTRACT: note_off channel=3 note=60 velocity=100 time=0
EXTRACT: note_off channel=3 note=64 velocity=100 time=0
EXTRACT: note_off channel=3 note=67 velocity=100 time=0
EXTRACT: note_off channel=5 note=36 velocity=100 time=0
EXTRACT: note_on channel=5 note=36 velocity=100 time=0
EXTRACT: note_on channel=9 note=41 velocity=127 time=0
EXTRACT: note_off channel=9 note=41 velocity=127 time=0.029761666666666662
EXTRACT: note_on channel=2 note=60 velocity=100 time=0.14880833333333332
EXTRACT: note_off channel=4 note=67 velocity=100 time=0
EXTRACT: note_off channel=5 note=36 velocity=100 time=0
EXTRACT: note_on channel=5 note=33 velocity=100 time=0
EXTRACT: note_on channel=9 note=45 velocity=127 time=0
EXTRACT: note_off channel=9 note=45 velocity=127 time=0.029761666666666662
EXTRACT: note_off channel=1 note=48 velocity=100 time=0.14880833333333332
EXTRACT: note_off channel=1 note=52 velocity=100 time=0
EXTRACT: note_off channel=1 note=55 velocity=100 time=0
EXTRACT: note_off channel=1 note=64 velocity=100 time=0
EXTRACT: note_off channel=1 note=60 velocity=100 time=0
EXTRACT: note_on channel=1 note=60 velocity=100 time=0
EXTRACT: note_on channel=1 note=64 velocity=100 time=0
EXTRACT: note_on channel=1 note=55 velocity=100 time=0
EXTRACT: note_on channel=1 note=52 velocity=100 time=0
EXTRACT: note_on channel=1 note=48 velocity=100 time=0
EXTRACT: note_off channel=2 note=60 velocity=100 time=0
EXTRACT: note_on channel=2 note=63 velocity=100 time=0
EXTRACT: note_off channel=5 note=33 velocity=100 time=0
EXTRACT: note_on channel=5 note=36 velocity=100 time=0
EXTRACT: note_off channel=6 note=55 velocity=100 time=0
EXTRACT: note_on channel=9 note=35 velocity=127 time=0
EXTRACT: note_on channel=9 note=36 velocity=127 time=0
EXTRACT: note_on channel=9 note=41 velocity=127 time=0
EXTRACT: note_off channel=9 note=41 velocity=127 time=0.029761666666666662
EXTRACT: note_off channel=9 note=36 velocity=127 time=0
EXTRACT: note_off channel=9 note=35 velocity=127 time=0.059523333333333324
EXTRACT: note_off channel=2 note=63 velocity=100 time=0.08928499999999999
EXTRACT: note_on channel=2 note=64 velocity=100 time=0
EXTRACT: note_off channel=5 note=36 velocity=100 time=0
EXTRACT: note_on channel=5 note=33 velocity=100 time=0
EXTRACT: note_on channel=9 note=45 velocity=127 time=0
EXTRACT: note_off channel=9 note=45 velocity=127 time=0.029761666666666662
EXTRACT: note_on channel=2 note=67 velocity=100 time=0.14136791666666665
EXTRACT: note_off channel=1 note=48 velocity=100 time=0.0074404166666666655
EXTRACT: note_off channel=1 note=52 velocity=100 time=0
EXTRACT: note_off channel=1 note=55 velocity=100 time=0
EXTRACT: note_off channel=1 note=64 velocity=100 time=0
EXTRACT: note_off channel=1 note=60 velocity=100 time=0
EXTRACT: note_on channel=1 note=60 velocity=100 time=0
EXTRACT: note_on channel=1 note=64 velocity=100 time=0
EXTRACT: note_on channel=1 note=55 velocity=100 time=0
EXTRACT: note_on channel=1 note=52 velocity=100 time=0
EXTRACT: note_on channel=1 note=48 velocity=100 time=0
EXTRACT: note_off channel=5 note=33 velocity=100 time=0
EXTRACT: note_on channel=5 note=31 velocity=100 time=0
EXTRACT: note_on channel=9 note=35 velocity=127 time=0
EXTRACT: note_on channel=9 note=45 velocity=127 time=0
EXTRACT: note_on channel=9 note=36 velocity=127 time=0
EXTRACT: note_on channel=9 note=41 velocity=127 time=0
EXTRACT: note_on channel=2 note=72 velocity=100 time=0.022321249999999997
EXTRACT: note_off channel=9 note=41 velocity=127 time=0.0074404166666666655
EXTRACT: note_off channel=9 note=36 velocity=127 time=0
EXTRACT: note_off channel=9 note=45 velocity=127 time=0.059523333333333324
EXTRACT: note_off channel=9 note=35 velocity=127 time=0
EXTRACT: note_off channel=5 note=31 velocity=100 time=0.08928499999999999
EXTRACT: note_on channel=9 note=45 velocity=127 time=0
EXTRACT: note_on channel=5 note=36 velocity=100 time=0.029761666666666662
EXTRACT: note_off channel=9 note=45 velocity=127 time=0.059523333333333324
EXTRACT: note_off channel=1 note=48 velocity=100 time=0.08928499999999999
EXTRACT: note_off channel=1 note=52 velocity=100 time=0
EXTRACT: note_off channel=1 note=55 velocity=100 time=0
EXTRACT: note_off channel=1 note=64 velocity=100 time=0
EXTRACT: note_off channel=1 note=60 velocity=100 time=0
EXTRACT: note_on channel=1 note=60 velocity=100 time=0
EXTRACT: note_on channel=1 note=64 velocity=100 time=0
EXTRACT: note_on channel=1 note=55 velocity=100 time=0
EXTRACT: note_on channel=1 note=52 velocity=100 time=0
EXTRACT: note_on channel=1 note=48 velocity=100 time=0
EXTRACT: note_on channel=3 note=72 velocity=120 time=0
EXTRACT: note_on channel=3 note=67 velocity=100 time=0
EXTRACT: note_on channel=3 note=64 velocity=100 time=0
EXTRACT: note_on channel=3 note=60 velocity=100 time=0
EXTRACT: note_on channel=9 note=38 velocity=127 time=0
EXTRACT: note_on channel=9 note=41 velocity=127 time=0
EXTRACT: note_off channel=9 note=41 velocity=127 time=0.029761666666666662
EXTRACT: note_off channel=9 note=38 velocity=127 time=0
EXTRACT: note_on channel=9 note=38 velocity=127 time=0.14880833333333332
EXTRACT: note_on channel=5 note=35 velocity=100 time=0.011160624999999999
EXTRACT: note_off channel=5 note=36 velocity=100 time=0.018601041666666665
EXTRACT: note_off channel=9 note=38 velocity=127 time=0
EXTRACT: note_off channel=2 note=67 velocity=100 time=0.14136791666666665
EXTRACT: note_off channel=1 note=48 velocity=100 time=0.0074404166666666655
EXTRACT: note_off channel=1 note=52 velocity=100 time=0
EXTRACT: note_off channel=1 note=55 velocity=100 time=0
EXTRACT: note_off channel=1 note=64 velocity=100 time=0
EXTRACT: note_off channel=1 note=60 velocity=100 time=0
EXTRACT: note_on channel=1 note=60 velocity=100 time=0
EXTRACT: note_on channel=1 note=64 velocity=100 time=0
EXTRACT: note_on channel=1 note=55 velocity=100 time=0
EXTRACT: note_on channel=1 note=52 velocity=100 time=0
EXTRACT: note_on channel=1 note=48 velocity=100 time=0
EXTRACT: note_off channel=2 note=64 velocity=100 time=0
EXTRACT: note_off channel=3 note=60 velocity=100 time=0
EXTRACT: note_off channel=3 note=64 velocity=100 time=0
EXTRACT: note_off channel=3 note=67 velocity=100 time=0
EXTRACT: note_off channel=3 note=72 velocity=120 time=0
EXTRACT: note_on channel=9 note=41 velocity=127 time=0
EXTRACT: note_on channel=2 note=55 velocity=100 time=0.011160624999999999
EXTRACT: note_off channel=5 note=35 velocity=100 time=0
EXTRACT: note_on channel=5 note=36 velocity=100 time=0
EXTRACT: note_off channel=2 note=72 velocity=100 time=0.011160624999999999
EXTRACT: note_off channel=9 note=41 velocity=127 time=0.0074404166666666655
EXTRACT: note_on channel=5 note=35 velocity=100 time=0.11904666666666665
EXTRACT: note_on channel=9 note=38 velocity=127 time=0.029761666666666662
EXTRACT: note_off channel=5 note=36 velocity=100 time=0.011160624999999999
EXTRACT: note_off channel=9 note=38 velocity=127 time=0.018601041666666665
EXTRACT: note_off channel=5 note=35 velocity=100 time=0.11904666666666665
EXTRACT: note_off channel=1 note=48 velocity=100 time=0.029761666666666662
EXTRACT: note_off channel=1 note=52 velocity=100 time=0
EXTRACT: note_off channel=1 note=55 velocity=100 time=0
EXTRACT: note_off channel=1 note=64 velocity=100 time=0
EXTRACT: note_off channel=1 note=60 velocity=100 time=0
EXTRACT: note_on channel=1 note=43 velocity=100 time=0
EXTRACT: note_on channel=1 note=50 velocity=100 time=0
EXTRACT: note_on channel=1 note=55 velocity=100 time=0
EXTRACT: note_on channel=1 note=59 velocity=100 time=0
EXTRACT: note_on channel=1 note=67 velocity=100 time=0
EXTRACT: note_on channel=2 note=43 velocity=100 time=0
EXTRACT: note_on channel=3 note=43 velocity=100 time=0
EXTRACT: note_on channel=5 note=31 velocity=100 time=0
EXTRACT: note_on channel=6 note=62 velocity=100 time=0
EXTRACT: note_on channel=9 note=35 velocity=127 time=0
EXTRACT: note_on channel=9 note=36 velocity=127 time=0
EXTRACT: note_on channel=9 note=49 velocity=127 time=0
EXTRACT: note_off channel=2 note=55 velocity=100 time=0.011160624999999999
EXTRACT: note_off channel=9 note=49 velocity=127 time=0.018601041666666665
EXTRACT: note_off channel=9 note=36 velocity=127 time=0
EXTRACT: note_off channel=9 note=35 velocity=127 time=0.059523333333333324
EXTRACT: note_off channel=6 note=62 velocity=100 time=0.08928499999999999
EXTRACT: note_on channel=6 note=62 velocity=100 time=0.029761666666666662
EXTRACT: note_on channel=9 note=51 velocity=127 time=0.14880833333333332
EXTRACT: note_off channel=9 note=51 velocity=127 time=0.029761666666666662
EXTRACT: note_on channel=6 note=59 velocity=100 time=0.10602593749999999
EXTRACT: note_off channel=6 note=62 velocity=100 time=0.07254406249999999
EXTRACT: note_off channel=6 note=59 velocity=100 time=0.10602593749999999
EXTRACT: note_on channel=5 note=31 velocity=100 time=0.029761666666666662
EXTRACT: note_on channel=6 note=62 velocity=100 time=0
EXTRACT: note_off channel=1 note=67 velocity=100 time=0.013020729166666665
EXTRACT: note_off channel=1 note=59 velocity=100 time=0
EXTRACT: note_off channel=1 note=55 velocity=100 time=0
EXTRACT: note_off channel=1 note=50 velocity=100 time=0
EXTRACT: note_off channel=1 note=43 velocity=100 time=0
EXTRACT: note_on channel=1 note=47 velocity=100 time=0
EXTRACT: note_on channel=1 note=43 velocity=100 time=0
EXTRACT: note_on channel=1 note=50 velocity=100 time=0
EXTRACT: note_on channel=1 note=55 velocity=100 time=0
EXTRACT: note_on channel=1 note=59 velocity=100 time=0
EXTRACT: note_on channel=1 note=67 velocity=100 time=0
EXTRACT: note_off channel=2 note=43 velocity=100 time=0
EXTRACT: note_on channel=2 note=43 velocity=100 time=0
EXTRACT: note_off channel=3 note=43 velocity=100 time=0
EXTRACT: note_on channel=3 note=43 velocity=100 time=0
EXTRACT: note_off channel=5 note=31 velocity=100 time=0
EXTRACT: note_on channel=9 note=38 velocity=127 time=0
EXTRACT: note_on channel=9 note=51 velocity=127 time=0
EXTRACT: note_off channel=9 note=51 velocity=127 time=0.029761666666666662
EXTRACT: note_off channel=9 note=38 velocity=127 time=0
EXTRACT: note_on channel=6 note=59 velocity=100 time=0.29761666666666664
EXTRACT: note_off channel=6 note=62 velocity=100 time=0.016740937499999997
EXTRACT: note_on channel=9 note=51 velocity=127 time=0.013020729166666665
EXTRACT: note_off channel=9 note=51 velocity=127 time=0.029761666666666662
EXTRACT: note_off channel=6 note=59 velocity=100 time=0.11904666666666665
EXTRACT: note_off channel=5 note=31 velocity=100 time=0.016740937499999997
EXTRACT: note_on channel=5 note=31 velocity=100 time=0
EXTRACT: note_off channel=1 note=67 velocity=100 time=0.013020729166666665
EXTRACT: note_off channel=1 note=59 velocity=100 time=0
EXTRACT: note_off channel=1 note=55 velocity=100 time=0
EXTRACT: note_off channel=1 note=50 velocity=100 time=0
EXTRACT: note_off channel=1 note=43 velocity=100 time=0
EXTRACT: note_off channel=1 note=47 velocity=100 time=0
EXTRACT: note_on channel=1 note=47 velocity=100 time=0
EXTRACT: note_on channel=1 note=43 velocity=100 time=0
EXTRACT: note_on channel=1 note=50 velocity=100 time=0
EXTRACT: note_on channel=1 note=55 velocity=100 time=0
EXTRACT: note_on channel=1 note=59 velocity=100 time=0
EXTRACT: note_on channel=1 note=67 velocity=100 time=0
EXTRACT: note_off channel=2 note=43 velocity=100 time=0
EXTRACT: note_on channel=2 note=43 velocity=100 time=0
EXTRACT: note_off channel=3 note=43 velocity=100 time=0
EXTRACT: note_on channel=3 note=43 velocity=100 time=0
EXTRACT: note_on channel=9 note=35 velocity=127 time=0
EXTRACT: note_on channel=9 note=36 velocity=127 time=0
EXTRACT: note_on channel=6 note=62 velocity=100 time=0.011160624999999999
EXTRACT: note_off channel=9 note=36 velocity=127 time=0.018601041666666665
EXTRACT: note_off channel=9 note=35 velocity=127 time=0.059523333333333324
EXTRACT: note_off channel=5 note=31 velocity=100 time=0.07626427083333333
EXTRACT: note_off channel=1 note=67 velocity=100 time=0.013020729166666665
EXTRACT: note_off channel=1 note=59 velocity=100 time=0
EXTRACT: note_off channel=1 note=55 velocity=100 time=0
EXTRACT: note_off channel=1 note=50 velocity=100 time=0
EXTRACT: note_off channel=1 note=43 velocity=100 time=0
EXTRACT: note_off channel=1 note=47 velocity=100 time=0
EXTRACT: note_on channel=1 note=47 velocity=100 time=0
EXTRACT: note_on channel=1 note=43 velocity=100 time=0
EXTRACT: note_on channel=1 note=50 velocity=100 time=0
EXTRACT: note_on channel=1 note=55 velocity=100 time=0
EXTRACT: note_on channel=1 note=59 velocity=100 time=0
EXTRACT: note_on channel=1 note=67 velocity=100 time=0
EXTRACT: note_off channel=2 note=43 velocity=100 time=0
EXTRACT: note_on channel=2 note=43 velocity=100 time=0
EXTRACT: note_off channel=3 note=43 velocity=100 time=0
EXTRACT: note_on channel=3 note=43 velocity=100 time=0
EXTRACT: note_on channel=9 note=38 velocity=127 time=0
EXTRACT: note_on channel=9 note=51 velocity=127 time=0
EXTRACT: note_on channel=5 note=31 velocity=100 time=0.029761666666666662
EXTRACT: note_off channel=9 note=51 velocity=127 time=0
EXTRACT: note_off channel=9 note=38 velocity=127 time=0
EXTRACT: note_off channel=6 note=62 velocity=100 time=0.1599689583333333
EXTRACT: note_on channel=6 note=59 velocity=100 time=0.029761666666666662
EXTRACT: note_on channel=5 note=31 velocity=100 time=0.09486531249999998
EXTRACT: note_off channel=1 note=67 velocity=100 time=0.04278239583333333
EXTRACT: note_off channel=1 note=59 velocity=100 time=0
EXTRACT: note_off channel=1 note=55 velocity=100 time=0
EXTRACT: note_off channel=1 note=50 velocity=100 time=0
EXTRACT: note_off channel=1 note=43 velocity=100 time=0
EXTRACT: note_off channel=1 note=47 velocity=100 time=0
EXTRACT: note_on channel=1 note=59 velocity=100 time=0
EXTRACT: note_on channel=1 note=55 velocity=100 time=0
EXTRACT: note_on channel=1 note=47 velocity=100 time=0
EXTRACT: note_on channel=1 note=50 velocity=100 time=0
EXTRACT: note_on channel=1 note=43 velocity=100 time=0
EXTRACT: note_on channel=1 note=67 velocity=100 time=0
EXTRACT: note_off channel=2 note=43 velocity=100 time=0
EXTRACT: note_on channel=2 note=43 velocity=100 time=0
EXTRACT: note_off channel=3 note=43 velocity=100 time=0
EXTRACT: note_on channel=3 note=43 velocity=100 time=0
EXTRACT: note_on channel=6 note=62 velocity=100 time=0
EXTRACT: note_on channel=9 note=36 velocity=127 time=0
EXTRACT: note_on channel=9 note=51 velocity=127 time=0
EXTRACT: note_on channel=9 note=35 velocity=127 time=0
EXTRACT: note_off channel=5 note=31 velocity=100 time=0.029761666666666662
EXTRACT: note_off channel=9 note=51 velocity=127 time=0
EXTRACT: note_off channel=9 note=36 velocity=127 time=0
EXTRACT: note_off channel=6 note=59 velocity=100 time=0.011160624999999999
EXTRACT: note_off channel=9 note=35 velocity=127 time=0.048362708333333324
EXTRACT: note_off channel=5 note=31 velocity=100 time=0.22507260416666663
EXTRACT: note_on channel=5 note=31 velocity=100 time=0.03534197916666666
EXTRACT: note_off channel=1 note=67 velocity=100 time=0.0074404166666666655
EXTRACT: note_off channel=1 note=43 velocity=100 time=0
EXTRACT: note_off channel=1 note=50 velocity=100 time=0
EXTRACT: note_off channel=1 note=47 velocity=100 time=0
EXTRACT: note_off channel=1 note=55 velocity=100 time=0
EXTRACT: note_off channel=1 note=59 velocity=100 time=0
EXTRACT: note_on channel=1 note=55 velocity=100 time=0
EXTRACT: note_on channel=1 note=59 velocity=100 time=0
EXTRACT: note_on channel=1 note=47 velocity=100 time=0
EXTRACT: note_on channel=1 note=50 velocity=100 time=0
EXTRACT: note_on channel=1 note=43 velocity=100 time=0
EXTRACT: note_on channel=1 note=67 velocity=100 time=0
EXTRACT: note_off channel=2 note=43 velocity=100 time=0
EXTRACT: note_on channel=2 note=43 velocity=100 time=0
EXTRACT: note_off channel=3 note=43 velocity=100 time=0
EXTRACT: note_on channel=3 note=43 velocity=100 time=0
EXTRACT: note_on channel=9 note=38 velocity=127 time=0
EXTRACT: note_on channel=9 note=51 velocity=127 time=0
EXTRACT: note_off channel=9 note=51 velocity=127 time=0.029761666666666662
EXTRACT: note_off channel=9 note=38 velocity=127 time=0
EXTRACT: note_on channel=5 note=31 velocity=100 time=0.3031969791666666
EXTRACT: note_off channel=5 note=31 velocity=100 time=0.016740937499999997
EXTRACT: note_off channel=1 note=67 velocity=100 time=0.0074404166666666655
EXTRACT: note_off channel=1 note=43 velocity=100 time=0
EXTRACT: note_off channel=1 note=50 velocity=100 time=0
EXTRACT: note_off channel=1 note=47 velocity=100 time=0
EXTRACT: note_off channel=1 note=59 velocity=100 time=0
EXTRACT: note_off channel=1 note=55 velocity=100 time=0
EXTRACT: note_on channel=1 note=55 velocity=100 time=0
EXTRACT: note_on channel=1 note=59 velocity=100 time=0
EXTRACT: note_on channel=1 note=47 velocity=100 time=0
EXTRACT: note_on channel=1 note=50 velocity=100 time=0
EXTRACT: note_on channel=1 note=43 velocity=100 time=0
EXTRACT: note_on channel=1 note=67 velocity=100 time=0
EXTRACT: note_off channel=2 note=43 velocity=100 time=0
EXTRACT: note_on channel=2 note=43 velocity=100 time=0
EXTRACT: note_off channel=3 note=43 velocity=100 time=0
EXTRACT: note_on channel=3 note=43 velocity=100 time=0
EXTRACT: note_off channel=6 note=62 velocity=100 time=0
EXTRACT: note_on channel=9 note=51 velocity=127 time=0
EXTRACT: note_off channel=9 note=51 velocity=127 time=0.029761666666666662
EXTRACT: note_off channel=5 note=31 velocity=100 time=0.12462697916666665
EXTRACT: note_on channel=5 note=31 velocity=100 time=0
EXTRACT: note_off channel=5 note=31 velocity=100 time=0.17856999999999998
EXTRACT: note_off channel=1 note=67 velocity=100 time=0.024181354166666662
EXTRACT: note_off channel=1 note=43 velocity=100 time=0
EXTRACT: note_off channel=1 note=50 velocity=100 time=0
EXTRACT: note_off channel=1 note=47 velocity=100 time=0
EXTRACT: note_off channel=1 note=59 velocity=100 time=0
EXTRACT: note_off channel=1 note=55 velocity=100 time=0
EXTRACT: note_on channel=1 note=50 velocity=100 time=0
EXTRACT: note_on channel=1 note=56 velocity=100 time=0
EXTRACT: note_on channel=1 note=59 velocity=100 time=0
EXTRACT: note_on channel=1 note=65 velocity=100 time=0
EXTRACT: note_off channel=2 note=43 velocity=100 time=0
EXTRACT: note_on channel=2 note=44 velocity=100 time=0
EXTRACT: note_off channel=3 note=43 velocity=100 time=0
EXTRACT: note_on channel=3 note=44 velocity=100 time=0
EXTRACT: note_on channel=5 note=32 velocity=100 time=0
EXTRACT: note_on channel=6 note=63 velocity=100 time=0
EXTRACT: note_on channel=9 note=38 velocity=127 time=0
EXTRACT: note_on channel=9 note=51 velocity=127 time=0
EXTRACT: note_on channel=9 note=36 velocity=127 time=0
EXTRACT: note_on channel=9 note=35 velocity=127 time=0
EXTRACT: note_off channel=9 note=36 velocity=127 time=0.029761666666666662
EXTRACT: note_off channel=9 note=51 velocity=127 time=0
EXTRACT: note_off channel=9 note=38 velocity=127 time=0
EXTRACT: note_off channel=9 note=35 velocity=127 time=0.059523333333333324
EXTRACT: note_off channel=5 note=32 velocity=100 time=0.26785499999999995
EXTRACT: note_on channel=5 note=32 velocity=100 time=0
EXTRACT: note_off channel=6 note=63 velocity=100 time=0
EXTRACT: note_on channel=9 note=35 velocity=127 time=0
EXTRACT: note_on channel=9 note=36 velocity=127 time=0
EXTRACT: note_on channel=9 note=51 velocity=127 time=0
EXTRACT: note_off channel=9 note=51 velocity=127 time=0.029761666666666662
EXTRACT: note_off channel=9 note=36 velocity=127 time=0
EXTRACT: note_on channel=6 note=62 velocity=100 time=0.005580312499999999
EXTRACT: note_off channel=9 note=35 velocity=127 time=0.05394302083333333
EXTRACT: note_on channel=6 note=62 velocity=100 time=0.2492539583333333
EXTRACT: note_off channel=1 note=65 velocity=100 time=0.018601041666666665
EXTRACT: note_off channel=1 note=59 velocity=100 time=0
EXTRACT: note_off channel=1 note=56 velocity=100 time=0
EXTRACT: note_off channel=1 note=50 velocity=100 time=0
EXTRACT: note_on channel=1 note=50 velocity=100 time=0
EXTRACT: note_on channel=1 note=56 velocity=100 time=0
EXTRACT: note_on channel=1 note=59 velocity=100 time=0
EXTRACT: note_on channel=1 note=65 velocity=100 time=0
EXTRACT: note_off channel=5 note=32 velocity=100 time=0
EXTRACT: note_on channel=5 note=32 velocity=100 time=0
EXTRACT: note_on channel=9 note=38 velocity=127 time=0
EXTRACT: note_on channel=9 note=51 velocity=127 time=0
EXTRACT: note_off channel=9 note=51 velocity=127 time=0.029761666666666662
EXTRACT: note_off channel=9 note=38 velocity=127 time=0
EXTRACT: note_off channel=6 note=62 velocity=100 time=0.005580312499999999
EXTRACT: note_off channel=6 note=62 velocity=100 time=0.3031969791666666
EXTRACT: note_off channel=2 note=44 velocity=100 time=0.018601041666666665
EXTRACT: note_on channel=2 note=44 velocity=100 time=0
EXTRACT: note_off channel=3 note=44 velocity=100 time=0
EXTRACT: note_on channel=3 note=44 velocity=100 time=0
EXTRACT: note_off channel=5 note=32 velocity=100 time=0
EXTRACT: note_on channel=5 note=32 velocity=100 time=0
EXTRACT: note_on channel=6 note=60 velocity=100 time=0
EXTRACT: note_on channel=9 note=51 velocity=127 time=0
EXTRACT: note_off channel=9 note=51 velocity=127 time=0.029761666666666662
EXTRACT: note_off channel=1 note=65 velocity=100 time=0.14880833333333332
EXTRACT: note_off channel=1 note=59 velocity=100 time=0
EXTRACT: note_off channel=1 note=56 velocity=100 time=0
EXTRACT: note_off channel=1 note=50 velocity=100 time=0
EXTRACT: note_on channel=1 note=50 velocity=100 time=0
EXTRACT: note_on channel=1 note=56 velocity=100 time=0
EXTRACT: note_on channel=1 note=59 velocity=100 time=0
EXTRACT: note_on channel=1 note=65 velocity=100 time=0
EXTRACT: note_off channel=2 note=44 velocity=100 time=0
EXTRACT: note_on channel=2 note=44 velocity=100 time=0
EXTRACT: note_off channel=3 note=44 velocity=100 time=0
EXTRACT: note_on channel=3 note=44 velocity=100 time=0
EXTRACT: note_off channel=5 note=32 velocity=100 time=0
EXTRACT: note_on channel=5 note=32 velocity=100 time=0
EXTRACT: note_off channel=6 note=60 velocity=100 time=0
EXTRACT: note_on channel=9 note=35 velocity=127 time=0
EXTRACT: note_on channel=9 note=36 velocity=127 time=0
EXTRACT: note_on channel=6 note=62 velocity=100 time=0.005580312499999999
EXTRACT: note_off channel=9 note=36 velocity=127 time=0.024181354166666662
EXTRACT: note_off channel=9 note=35 velocity=127 time=0.059523333333333324
EXTRACT: note_off channel=1 note=65 velocity=100 time=0.08928499999999999
EXTRACT: note_off channel=1 note=59 velocity=100 time=0
EXTRACT: note_off channel=1 note=56 velocity=100 time=0
EXTRACT: note_off channel=1 note=50 velocity=100 time=0
EXTRACT: note_on channel=1 note=56 velocity=100 time=0
EXTRACT: note_on channel=1 note=50 velocity=100 time=0
EXTRACT: note_on channel=1 note=59 velocity=100 time=0
EXTRACT: note_on channel=1 note=65 velocity=100 time=0
EXTRACT: note_off channel=2 note=44 velocity=100 time=0
EXTRACT: note_on channel=2 note=44 velocity=100 time=0
EXTRACT: note_off channel=3 note=44 velocity=100 time=0
EXTRACT: note_on channel=3 note=44 velocity=100 time=0
EXTRACT: note_off channel=5 note=32 velocity=100 time=0
EXTRACT: note_on channel=5 note=32 velocity=100 time=0
EXTRACT: note_on channel=9 note=38 velocity=127 time=0
EXTRACT: note_on channel=9 note=51 velocity=127 time=0
EXTRACT: note_off channel=9 note=51 velocity=127 time=0.029761666666666662
EXTRACT: note_off channel=9 note=38 velocity=127 time=0
EXTRACT: note_off channel=6 note=62 velocity=100 time=0.1543886458333333
EXTRACT: note_on channel=6 note=64 velocity=100 time=0.005580312499999999
EXTRACT: note_on channel=2 note=44 velocity=100 time=0.1432280208333333
EXTRACT: note_on channel=3 note=44 velocity=100 time=0
EXTRACT: pitchwheel channel=2 pitch=0 time=0.016740937499999997
EXTRACT: pitchwheel channel=3 pitch=0 time=0
EXTRACT: note_on channel=6 note=60 velocity=100 time=0
EXTRACT: note_off channel=1 note=65 velocity=100 time=0.0074404166666666655
EXTRACT: note_off channel=1 note=59 velocity=100 time=0
EXTRACT: note_off channel=1 note=50 velocity=100 time=0
EXTRACT: note_off channel=1 note=56 velocity=100 time=0
EXTRACT: note_on channel=1 note=56 velocity=100 time=0
EXTRACT: note_on channel=1 note=50 velocity=100 time=0
EXTRACT: note_on channel=1 note=59 velocity=100 time=0
EXTRACT: note_on channel=1 note=65 velocity=100 time=0
EXTRACT: note_off channel=2 note=44 velocity=100 time=0
EXTRACT: note_off channel=3 note=44 velocity=100 time=0
EXTRACT: note_off channel=5 note=32 velocity=100 time=0
EXTRACT: note_on channel=5 note=32 velocity=100 time=0
EXTRACT: note_on channel=9 note=35 velocity=127 time=0
EXTRACT: note_on channel=9 note=36 velocity=127 time=0
EXTRACT: note_on channel=9 note=51 velocity=127 time=0
EXTRACT: note_off channel=6 note=64 velocity=100 time=0.011160624999999999
EXTRACT: note_off channel=9 note=51 velocity=127 time=0.018601041666666665
EXTRACT: note_off channel=9 note=36 velocity=127 time=0
EXTRACT: pitchwheel channel=2 pitch=640 time=0.022321249999999997
EXTRACT: pitchwheel channel=3 pitch=640 time=0
EXTRACT: pitchwheel channel=2 pitch=384 time=0.013020729166666665
EXTRACT: pitchwheel channel=3 pitch=384 time=0
EXTRACT: pitchwheel channel=2 pitch=0 time=0.011160624999999999
EXTRACT: pitchwheel channel=3 pitch=0 time=0
EXTRACT: pitchwheel channel=2 pitch=-128 time=0.013020729166666665
EXTRACT: pitchwheel channel=3 pitch=-128 time=0
EXTRACT: note_off channel=9 note=35 velocity=127 time=0
EXTRACT: pitchwheel channel=2 pitch=128 time=0.059523333333333324
EXTRACT: pitchwheel channel=3 pitch=128 time=0
EXTRACT: pitchwheel channel=2 pitch=384 time=0.011160624999999999
EXTRACT: pitchwheel channel=3 pitch=384 time=0
EXTRACT: pitchwheel channel=2 pitch=768 time=0.011160624999999999
EXTRACT: pitchwheel channel=3 pitch=768 time=0
EXTRACT: note_off channel=5 note=32 velocity=100 time=0.0074404166666666655
EXTRACT: note_on channel=5 note=32 velocity=100 time=0
EXTRACT: pitchwheel channel=2 pitch=-256 time=0.005580312499999999
EXTRACT: pitchwheel channel=3 pitch=-256 time=0
EXTRACT: pitchwheel channel=2 pitch=0 time=0.07068395833333332
EXTRACT: pitchwheel channel=3 pitch=0 time=0
EXTRACT: pitchwheel channel=2 pitch=256 time=0.013020729166666665
EXTRACT: pitchwheel channel=3 pitch=256 time=0
EXTRACT: pitchwheel channel=2 pitch=384 time=0.011160624999999999
EXTRACT: pitchwheel channel=3 pitch=384 time=0
EXTRACT: pitchwheel channel=2 pitch=-384 time=0.011160624999999999
EXTRACT: pitchwheel channel=3 pitch=-384 time=0
EXTRACT: note_off channel=1 note=65 velocity=100 time=0.06696374999999999
EXTRACT: note_off channel=1 note=59 velocity=100 time=0
EXTRACT: note_off channel=1 note=50 velocity=100 time=0
EXTRACT: note_off channel=1 note=56 velocity=100 time=0
EXTRACT: note_on channel=1 note=56 velocity=100 time=0
EXTRACT: note_on channel=1 note=50 velocity=100 time=0
EXTRACT: note_on channel=1 note=59 velocity=100 time=0
EXTRACT: note_on channel=1 note=65 velocity=100 time=0
EXTRACT: note_off channel=5 note=32 velocity=100 time=0
EXTRACT: note_on channel=5 note=32 velocity=100 time=0
EXTRACT: note_on channel=9 note=38 velocity=127 time=0
EXTRACT: note_on channel=9 note=51 velocity=127 time=0
EXTRACT: note_off channel=9 note=51 velocity=127 time=0.029761666666666662
EXTRACT: note_off channel=9 note=38 velocity=127 time=0
EXTRACT: pitchwheel channel=2 pitch=-128 time=0.011160624999999999
EXTRACT: pitchwheel channel=3 pitch=-128 time=0
EXTRACT: pitchwheel channel=2 pitch=384 time=0.011160624999999999
EXTRACT: pitchwheel channel=3 pitch=384 time=0
EXTRACT: pitchwheel channel=2 pitch=-128 time=0.048362708333333324
EXTRACT: pitchwheel channel=3 pitch=-128 time=0
EXTRACT: pitchwheel channel=2 pitch=0 time=0.21391197916666663
EXTRACT: pitchwheel channel=3 pitch=0 time=0
EXTRACT: note_off channel=2 note=44 velocity=100 time=0.018601041666666665
EXTRACT: note_off channel=3 note=44 velocity=100 time=0
EXTRACT: note_on channel=2 note=44 velocity=100 time=0.011160624999999999
EXTRACT: note_on channel=3 note=44 velocity=100 time=0
EXTRACT: note_off channel=6 note=60 velocity=100 time=0.005580312499999999
EXTRACT: note_off channel=1 note=65 velocity=100 time=0.0074404166666666655
EXTRACT: note_off channel=1 note=59 velocity=100 time=0
EXTRACT: note_off channel=1 note=50 velocity=100 time=0
EXTRACT: note_off channel=1 note=56 velocity=100 time=0
EXTRACT: note_on channel=1 note=56 velocity=100 time=0
EXTRACT: note_on channel=1 note=50 velocity=100 time=0
EXTRACT: note_on channel=1 note=59 velocity=100 time=0
EXTRACT: note_on channel=1 note=65 velocity=100 time=0
EXTRACT: note_off channel=5 note=32 velocity=100 time=0
EXTRACT: note_on channel=5 note=32 velocity=100 time=0
EXTRACT: note_on channel=9 note=51 velocity=127 time=0
EXTRACT: note_off channel=9 note=51 velocity=127 time=0.029761666666666662
EXTRACT: note_on channel=9 note=38 velocity=127 time=0.14880833333333332
EXTRACT: note_off channel=9 note=38 velocity=127 time=0.029761666666666662
EXTRACT: note_off channel=2 note=44 velocity=100 time=0.13578760416666666
EXTRACT: note_off channel=3 note=44 velocity=100 time=0
EXTRACT: note_off channel=1 note=65 velocity=100 time=0.013020729166666665
EXTRACT: note_off channel=1 note=59 velocity=100 time=0
EXTRACT: note_off channel=1 note=50 velocity=100 time=0
EXTRACT: note_off channel=1 note=56 velocity=100 time=0
EXTRACT: note_on channel=1 note=45 velocity=100 time=0
EXTRACT: note_on channel=1 note=52 velocity=100 time=0
EXTRACT: note_on channel=1 note=57 velocity=100 time=0
EXTRACT: note_on channel=1 note=60 velocity=100 time=0
EXTRACT: note_on channel=1 note=64 velocity=100 time=0
EXTRACT: note_on channel=2 note=45 velocity=100 time=0
EXTRACT: note_on channel=2 note=52 velocity=100 time=0
EXTRACT: note_on channel=2 note=57 velocity=100 time=0
EXTRACT: note_on channel=3 note=45 velocity=100 time=0
EXTRACT: note_on channel=3 note=52 velocity=100 time=0
EXTRACT: note_on channel=3 note=57 velocity=100 time=0
EXTRACT: note_off channel=5 note=32 velocity=100 time=0
EXTRACT: note_on channel=5 note=33 velocity=100 time=0
EXTRACT: note_on channel=6 note=64 velocity=100 time=0
EXTRACT: note_on channel=9 note=35 velocity=127 time=0
EXTRACT: note_on channel=9 note=36 velocity=127 time=0
EXTRACT: note_on channel=9 note=49 velocity=127 time=0
EXTRACT: note_off channel=9 note=49 velocity=127 time=0.029761666666666662
EXTRACT: note_off channel=9 note=36 velocity=127 time=0
EXTRACT: note_off channel=9 note=35 velocity=127 time=0.059523333333333324
EXTRACT: note_on channel=6 note=62 velocity=100 time=0.24367364583333329
EXTRACT: note_off channel=5 note=33 velocity=100 time=0.024181354166666662
EXTRACT: note_on channel=5 note=33 velocity=100 time=0
EXTRACT: note_off channel=6 note=64 velocity=100 time=0
EXTRACT: note_on channel=9 note=51 velocity=127 time=0
EXTRACT: note_off channel=9 note=51 velocity=127 time=0.029761666666666662
EXTRACT: note_off channel=6 note=62 velocity=100 time=0.3031969791666666
EXTRACT: note_off channel=1 note=64 velocity=100 time=0.024181354166666662
EXTRACT: note_off channel=1 note=60 velocity=100 time=0
EXTRACT: note_off channel=1 note=57 velocity=100 time=0
EXTRACT: note_off channel=1 note=52 velocity=100 time=0
EXTRACT: note_off channel=1 note=45 velocity=100 time=0
EXTRACT: note_on channel=1 note=45 velocity=100 time=0
EXTRACT: note_on channel=1 note=52 velocity=100 time=0
EXTRACT: note_on channel=1 note=57 velocity=100 time=0
EXTRACT: note_on channel=1 note=60 velocity=100 time=0
EXTRACT: note_on channel=1 note=64 velocity=100 time=0
EXTRACT: note_off channel=5 note=33 velocity=100 time=0
EXTRACT: note_on channel=5 note=33 velocity=100 time=0
EXTRACT: note_on channel=6 note=62 velocity=100 time=0
EXTRACT: note_on channel=9 note=38 velocity=127 time=0
EXTRACT: note_on channel=9 note=51 velocity=127 time=0
EXTRACT: note_off channel=9 note=51 velocity=127 time=0.029761666666666662
EXTRACT: note_off channel=9 note=38 velocity=127 time=0
EXTRACT: note_on channel=6 note=60 velocity=100 time=0.13578760416666666
EXTRACT: note_off channel=6 note=62 velocity=100 time=0.013020729166666665
EXTRACT: note_off channel=1 note=64 velocity=100 time=0.17856999999999998
EXTRACT: note_off channel=1 note=60 velocity=100 time=0
EXTRACT: note_off channel=1 note=57 velocity=100 time=0
EXTRACT: note_off channel=1 note=52 velocity=100 time=0
EXTRACT: note_off channel=1 note=45 velocity=100 time=0
EXTRACT: note_on channel=1 note=45 velocity=100 time=0
EXTRACT: note_on channel=1 note=52 velocity=100 time=0
EXTRACT: note_on channel=1 note=57 velocity=100 time=0
EXTRACT: note_on channel=1 note=60 velocity=100 time=0
EXTRACT: note_on channel=1 note=64 velocity=100 time=0
EXTRACT: note_off channel=5 note=33 velocity=100 time=0
EXTRACT: note_on channel=5 note=33 velocity=100 time=0
EXTRACT: note_on channel=9 note=51 velocity=127 time=0
EXTRACT: note_off channel=9 note=51 velocity=127 time=0.029761666666666662
EXTRACT: note_off channel=6 note=60 velocity=100 time=0.13578760416666666
EXTRACT: note_off channel=5 note=33 velocity=100 time=0.013020729166666665
EXTRACT: note_on channel=5 note=33 velocity=100 time=0
EXTRACT: note_on channel=9 note=38 velocity=127 time=0
EXTRACT: note_on channel=6 note=62 velocity=100 time=0.011160624999999999
EXTRACT: note_off channel=9 note=38 velocity=127 time=0.018601041666666665
EXTRACT: note_off channel=1 note=64 velocity=100 time=0.14880833333333332
EXTRACT: note_off channel=1 note=60 velocity=100 time=0
EXTRACT: note_off channel=1 note=57 velocity=100 time=0
EXTRACT: note_off channel=1 note=52 velocity=100 time=0
EXTRACT: note_off channel=1 note=45 velocity=100 time=0
EXTRACT: note_on channel=1 note=47 velocity=100 time=0
EXTRACT: note_on channel=1 note=43 velocity=100 time=0
EXTRACT: note_on channel=1 note=50 velocity=100 time=0
EXTRACT: note_on channel=1 note=55 velocity=100 time=0
EXTRACT: note_on channel=1 note=59 velocity=100 time=0
EXTRACT: note_on channel=1 note=67 velocity=100 time=0
EXTRACT: note_off channel=2 note=57 velocity=100 time=0
EXTRACT: note_off channel=2 note=52 velocity=100 time=0
EXTRACT: note_off channel=2 note=45 velocity=100 time=0
EXTRACT: note_on channel=2 note=43 velocity=100 time=0
EXTRACT: note_on channel=2 note=50 velocity=100 time=0
EXTRACT: note_off channel=3 note=57 velocity=100 time=0
EXTRACT: note_off channel=3 note=52 velocity=100 time=0
EXTRACT: note_off channel=3 note=45 velocity=100 time=0
EXTRACT: note_on channel=3 note=43 velocity=100 time=0
EXTRACT: note_on channel=3 note=50 velocity=100 time=0
EXTRACT: note_off channel=5 note=33 velocity=100 time=0
EXTRACT: note_on channel=5 note=31 velocity=100 time=0
EXTRACT: note_on channel=9 note=35 velocity=127 time=0
EXTRACT: note_on channel=9 note=36 velocity=127 time=0
EXTRACT: note_on channel=9 note=51 velocity=127 time=0
EXTRACT: note_on channel=2 note=55 velocity=100 time=0.011160624999999999
EXTRACT: note_on channel=3 note=55 velocity=100 time=0
EXTRACT: note_off channel=9 note=51 velocity=127 time=0.018601041666666665
EXTRACT: note_off channel=9 note=36 velocity=127 time=0
EXTRACT: note_off channel=9 note=35 velocity=127 time=0.059523333333333324
EXTRACT: note_off channel=5 note=31 velocity=100 time=0.26785499999999995
EXTRACT: note_on channel=5 note=31 velocity=100 time=0
EXTRACT: note_on channel=6 note=60 velocity=100 time=0
EXTRACT: note_on channel=9 note=35 velocity=127 time=0
EXTRACT: note_on channel=9 note=36 velocity=127 time=0
EXTRACT: note_on channel=9 note=51 velocity=127 time=0
EXTRACT: note_off channel=6 note=62 velocity=100 time=0.011160624999999999
EXTRACT: note_off channel=9 note=51 velocity=127 time=0.018601041666666665
EXTRACT: note_off channel=9 note=36 velocity=127 time=0
EXTRACT: note_off channel=9 note=35 velocity=127 time=0.059523333333333324
EXTRACT: note_off channel=6 note=60 velocity=100 time=0.08928499999999999
EXTRACT: note_on channel=6 note=62 velocity=100 time=0
EXTRACT: note_off channel=1 note=67 velocity=100 time=0.17856999999999998
EXTRACT: note_off channel=1 note=59 velocity=100 time=0
EXTRACT: note_off channel=1 note=55 velocity=100 time=0
EXTRACT: note_off channel=1 note=50 velocity=100 time=0
EXTRACT: note_off channel=1 note=43 velocity=100 time=0
EXTRACT: note_off channel=1 note=47 velocity=100 time=0
EXTRACT: note_on channel=1 note=43 velocity=100 time=0
EXTRACT: note_on channel=1 note=47 velocity=100 time=0
EXTRACT: note_on channel=1 note=50 velocity=100 time=0
EXTRACT: note_on channel=1 note=55 velocity=100 time=0
EXTRACT: note_on channel=1 note=59 velocity=100 time=0
EXTRACT: note_on channel=1 note=67 velocity=100 time=0
EXTRACT: note_off channel=5 note=31 velocity=100 time=0
EXTRACT: note_on channel=5 note=31 velocity=100 time=0
EXTRACT: note_on channel=9 note=38 velocity=127 time=0
EXTRACT: note_on channel=9 note=51 velocity=127 time=0
EXTRACT: note_off channel=9 note=51 velocity=127 time=0.029761666666666662
EXTRACT: note_off channel=9 note=38 velocity=127 time=0
EXTRACT: note_off channel=6 note=62 velocity=100 time=0.14880833333333332
EXTRACT: note_on channel=6 note=64 velocity=100 time=0.011160624999999999
EXTRACT: note_off channel=1 note=67 velocity=100 time=0.16740937499999997
EXTRACT: note_off channel=1 note=59 velocity=100 time=0
EXTRACT: note_off channel=1 note=55 velocity=100 time=0
EXTRACT: note_off channel=1 note=50 velocity=100 time=0
EXTRACT: note_off channel=1 note=47 velocity=100 time=0
EXTRACT: note_off channel=1 note=43 velocity=100 time=0
EXTRACT: note_on channel=1 note=50 velocity=100 time=0
EXTRACT: note_on channel=1 note=47 velocity=100 time=0
EXTRACT: note_on channel=1 note=43 velocity=100 time=0
EXTRACT: note_on channel=1 note=55 velocity=100 time=0
EXTRACT: note_on channel=1 note=59 velocity=100 time=0
EXTRACT: note_on channel=1 note=67 velocity=100 time=0
EXTRACT: note_off channel=5 note=31 velocity=100 time=0
EXTRACT: note_on channel=5 note=31 velocity=100 time=0
EXTRACT: note_on channel=9 note=51 velocity=127 time=0
EXTRACT: note_off channel=9 note=51 velocity=127 time=0.029761666666666662
EXTRACT: note_on channel=9 note=38 velocity=127 time=0.14880833333333332
EXTRACT: note_off channel=9 note=38 velocity=127 time=0.029761666666666662
EXTRACT: note_on channel=9 note=38 velocity=127 time=0.029761666666666662
EXTRACT: note_off channel=9 note=38 velocity=127 time=0.029761666666666662
EXTRACT: note_off channel=1 note=67 velocity=100 time=0.08928499999999999
EXTRACT: note_off channel=1 note=59 velocity=100 time=0
EXTRACT: note_off channel=1 note=55 velocity=100 time=0
EXTRACT: note_off channel=1 note=43 velocity=100 time=0
EXTRACT: note_off channel=1 note=47 velocity=100 time=0
EXTRACT: note_off channel=1 note=50 velocity=100 time=0
EXTRACT: note_on channel=1 note=41 velocity=100 time=0
EXTRACT: note_on channel=1 note=48 velocity=100 time=0
EXTRACT: note_on channel=1 note=53 velocity=100 time=0
EXTRACT: note_on channel=1 note=57 velocity=100 time=0
EXTRACT: note_on channel=1 note=60 velocity=100 time=0
EXTRACT: note_off channel=2 note=50 velocity=100 time=0
EXTRACT: note_off channel=2 note=43 velocity=100 time=0
EXTRACT: note_on channel=2 note=41 velocity=100 time=0
EXTRACT: note_off channel=3 note=50 velocity=100 time=0
EXTRACT: note_off channel=3 note=43 velocity=100 time=0
EXTRACT: note_on channel=3 note=41 velocity=100 time=0
EXTRACT: note_off channel=5 note=31 velocity=100 time=0
EXTRACT: note_on channel=5 note=29 velocity=100 time=0
EXTRACT: note_on channel=9 note=35 velocity=127 time=0
EXTRACT: note_on channel=9 note=36 velocity=127 time=0
EXTRACT: note_on channel=9 note=51 velocity=127 time=0
EXTRACT: note_off channel=2 note=55 velocity=100 time=0.011160624999999999
EXTRACT: note_off channel=3 note=55 velocity=100 time=0
EXTRACT: note_off channel=9 note=51 velocity=127 time=0.018601041666666665
EXTRACT: note_off channel=9 note=36 velocity=127 time=0
EXTRACT: note_off channel=9 note=35 velocity=127 time=0.059523333333333324
EXTRACT: note_on channel=9 note=38 velocity=127 time=0.08928499999999999
EXTRACT: note_off channel=6 note=64 velocity=100 time=0.011160624999999999
EXTRACT: note_on channel=6 note=60 velocity=100 time=0
EXTRACT: note_off channel=9 note=38 velocity=127 time=0.018601041666666665
EXTRACT: note_off channel=1 note=60 velocity=100 time=0.14880833333333332
EXTRACT: note_off channel=1 note=57 velocity=100 time=0
EXTRACT: note_off channel=1 note=53 velocity=100 time=0
EXTRACT: note_off channel=1 note=48 velocity=100 time=0
EXTRACT: note_off channel=1 note=41 velocity=100 time=0
EXTRACT: note_on channel=1 note=41 velocity=100 time=0
EXTRACT: note_on channel=1 note=48 velocity=100 time=0
EXTRACT: note_on channel=1 note=53 velocity=100 time=0
EXTRACT: note_on channel=1 note=57 velocity=100 time=0
EXTRACT: note_on channel=1 note=60 velocity=100 time=0
EXTRACT: note_off channel=2 note=41 velocity=100 time=0
EXTRACT: note_on channel=2 note=40 velocity=100 time=0
EXTRACT: note_off channel=3 note=41 velocity=100 time=0
EXTRACT: note_on channel=3 note=40 velocity=100 time=0
EXTRACT: note_off channel=5 note=29 velocity=100 time=0
EXTRACT: note_on channel=5 note=28 velocity=100 time=0
EXTRACT: note_on channel=9 note=35 velocity=127 time=0
EXTRACT: note_on channel=9 note=36 velocity=127 time=0
EXTRACT: note_on channel=9 note=51 velocity=127 time=0
EXTRACT: note_on channel=6 note=57 velocity=100 time=0.005580312499999999
EXTRACT: note_off channel=6 note=60 velocity=100 time=0.005580312499999999
EXTRACT: note_off channel=9 note=51 velocity=127 time=0.018601041666666665
EXTRACT: note_off channel=9 note=36 velocity=127 time=0
EXTRACT: note_off channel=9 note=35 velocity=127 time=0.059523333333333324
EXTRACT: note_on channel=6 note=60 velocity=100 time=0.2492539583333333
EXTRACT: note_off channel=1 note=60 velocity=100 time=0.018601041666666665
EXTRACT: note_off channel=1 note=57 velocity=100 time=0
EXTRACT: note_off channel=1 note=53 velocity=100 time=0
EXTRACT: note_off channel=1 note=48 velocity=100 time=0
EXTRACT: note_off channel=1 note=41 velocity=100 time=0
EXTRACT: note_on channel=1 note=41 velocity=100 time=0
EXTRACT: note_on channel=1 note=48 velocity=100 time=0
EXTRACT: note_on channel=1 note=53 velocity=100 time=0
EXTRACT: note_on channel=1 note=57 velocity=100 time=0
EXTRACT: note_on channel=1 note=60 velocity=100 time=0
EXTRACT: note_off channel=2 note=40 velocity=100 time=0
EXTRACT: note_on channel=2 note=41 velocity=100 time=0
EXTRACT: note_off channel=3 note=40 velocity=100 time=0
EXTRACT: note_on channel=3 note=41 velocity=100 time=0
EXTRACT: note_off channel=5 note=28 velocity=100 time=0
EXTRACT: note_on channel=5 note=29 velocity=100 time=0
EXTRACT: note_on channel=9 note=38 velocity=127 time=0
EXTRACT: note_on channel=9 note=51 velocity=127 time=0
EXTRACT: note_off channel=6 note=57 velocity=100 time=0.005580312499999999
EXTRACT: note_off channel=9 note=51 velocity=127 time=0.024181354166666662
EXTRACT: note_off channel=9 note=38 velocity=127 time=0
EXTRACT: note_off channel=2 note=41 velocity=100 time=0.32737833333333327
EXTRACT: note_on channel=2 note=40 velocity=100 time=0
EXTRACT: note_off channel=3 note=41 velocity=100 time=0
EXTRACT: note_on channel=3 note=40 velocity=100 time=0
EXTRACT: note_off channel=5 note=29 velocity=100 time=0
EXTRACT: note_on channel=5 note=28 velocity=100 time=0
EXTRACT: note_on channel=9 note=51 velocity=127 time=0
EXTRACT: note_off channel=9 note=51 velocity=127 time=0.029761666666666662
EXTRACT: note_on channel=9 note=38 velocity=127 time=0.14880833333333332
EXTRACT: note_off channel=9 note=38 velocity=127 time=0.029761666666666662
EXTRACT: note_off channel=1 note=60 velocity=100 time=0.14880833333333332
EXTRACT: note_off channel=1 note=57 velocity=100 time=0
EXTRACT: note_off channel=1 note=53 velocity=100 time=0
EXTRACT: note_off channel=1 note=48 velocity=100 time=0
EXTRACT: note_off channel=1 note=41 velocity=100 time=0
EXTRACT: note_on channel=1 note=48 velocity=100 time=0
EXTRACT: note_on channel=1 note=41 velocity=100 time=0
EXTRACT: note_on channel=1 note=53 velocity=100 time=0
EXTRACT: note_on channel=1 note=57 velocity=100 time=0
EXTRACT: note_on channel=1 note=60 velocity=100 time=0
EXTRACT: note_off channel=2 note=40 velocity=100 time=0
EXTRACT: note_on channel=2 note=41 velocity=100 time=0
EXTRACT: note_off channel=3 note=40 velocity=100 time=0
EXTRACT: note_on channel=3 note=41 velocity=100 time=0
EXTRACT: note_off channel=5 note=28 velocity=100 time=0
EXTRACT: note_on channel=5 note=29 velocity=100 time=0
EXTRACT: note_on channel=9 note=35 velocity=127 time=0
EXTRACT: note_on channel=9 note=36 velocity=127 time=0
EXTRACT: note_on channel=9 note=51 velocity=127 time=0
EXTRACT: note_off channel=9 note=51 velocity=127 time=0.029761666666666662
EXTRACT: note_off channel=9 note=36 velocity=127 time=0
EXTRACT: note_off channel=9 note=35 velocity=127 time=0.059523333333333324
EXTRACT: note_off channel=2 note=41 velocity=100 time=0.26785499999999995
EXTRACT: note_on channel=2 note=40 velocity=100 time=0
EXTRACT: note_off channel=3 note=41 velocity=100 time=0
EXTRACT: note_on channel=3 note=40 velocity=100 time=0
EXTRACT: note_off channel=5 note=29 velocity=100 time=0
EXTRACT: note_on channel=5 note=28 velocity=100 time=0
EXTRACT: note_on channel=9 note=35 velocity=127 time=0
EXTRACT: note_on channel=9 note=36 velocity=127 time=0
EXTRACT: note_on channel=9 note=51 velocity=127 time=0
EXTRACT: note_off channel=9 note=51 velocity=127 time=0.029761666666666662
EXTRACT: note_off channel=9 note=36 velocity=127 time=0
EXTRACT: note_off channel=9 note=35 velocity=127 time=0.059523333333333324
EXTRACT: note_off channel=1 note=60 velocity=100 time=0.26785499999999995
EXTRACT: note_off channel=1 note=57 velocity=100 time=0
EXTRACT: note_off channel=1 note=53 velocity=100 time=0
EXTRACT: note_off channel=1 note=41 velocity=100 time=0
EXTRACT: note_off channel=1 note=48 velocity=100 time=0
EXTRACT: note_on channel=1 note=48 velocity=100 time=0
EXTRACT: note_on channel=1 note=41 velocity=100 time=0
EXTRACT: note_on channel=1 note=53 velocity=100 time=0
EXTRACT: note_on channel=1 note=57 velocity=100 time=0
EXTRACT: note_on channel=1 note=60 velocity=100 time=0
EXTRACT: note_off channel=2 note=40 velocity=100 time=0
EXTRACT: note_on channel=2 note=41 velocity=100 time=0
EXTRACT: note_off channel=3 note=40 velocity=100 time=0
EXTRACT: note_on channel=3 note=41 velocity=100 time=0
EXTRACT: note_off channel=5 note=28 velocity=100 time=0
EXTRACT: note_on channel=5 note=29 velocity=100 time=0
EXTRACT: note_on channel=9 note=38 velocity=127 time=0
EXTRACT: note_on channel=9 note=51 velocity=127 time=0
EXTRACT: note_off channel=9 note=51 velocity=127 time=0.029761666666666662
EXTRACT: note_off channel=9 note=38 velocity=127 time=0
EXTRACT: note_off channel=2 note=41 velocity=100 time=0.32737833333333327
EXTRACT: note_on channel=2 note=40 velocity=100 time=0
EXTRACT: note_off channel=3 note=41 velocity=100 time=0
EXTRACT: note_on channel=3 note=40 velocity=100 time=0
EXTRACT: note_off channel=5 note=29 velocity=100 time=0
EXTRACT: note_on channel=5 note=30 velocity=100 time=0
EXTRACT: note_on channel=9 note=51 velocity=127 time=0
EXTRACT: note_off channel=9 note=51 velocity=127 time=0.029761666666666662
EXTRACT: note_on channel=9 note=38 velocity=127 time=0.14880833333333332
EXTRACT: note_off channel=9 note=38 velocity=127 time=0.029761666666666662
EXTRACT: note_off channel=6 note=60 velocity=100 time=0.13020729166666664
EXTRACT: note_off channel=1 note=60 velocity=100 time=0.018601041666666665
EXTRACT: note_off channel=1 note=57 velocity=100 time=0
EXTRACT: note_off channel=1 note=53 velocity=100 time=0
EXTRACT: note_off channel=1 note=41 velocity=100 time=0
EXTRACT: note_off channel=1 note=48 velocity=100 time=0
EXTRACT: note_on channel=1 note=43 velocity=100 time=0
EXTRACT: note_on channel=1 note=50 velocity=100 time=0
EXTRACT: note_on channel=1 note=55 velocity=100 time=0
EXTRACT: note_on channel=1 note=59 velocity=100 time=0
EXTRACT: note_on channel=1 note=67 velocity=100 time=0
EXTRACT: note_off channel=2 note=40 velocity=100 time=0
EXTRACT: note_on channel=2 note=43 velocity=100 time=0
EXTRACT: note_off channel=3 note=40 velocity=100 time=0
EXTRACT: note_on channel=3 note=43 velocity=100 time=0
EXTRACT: note_off channel=5 note=30 velocity=100 time=0
EXTRACT: note_on channel=5 note=31 velocity=100 time=0
EXTRACT: note_on channel=6 note=57 velocity=100 time=0
EXTRACT: note_on channel=9 note=35 velocity=127 time=0
EXTRACT: note_on channel=9 note=36 velocity=127 time=0
EXTRACT: note_on channel=9 note=49 velocity=127 time=0
EXTRACT: note_off channel=9 note=49 velocity=127 time=0.029761666666666662
EXTRACT: note_off channel=9 note=36 velocity=127 time=0
EXTRACT: note_off channel=9 note=35 velocity=127 time=0.059523333333333324
EXTRACT: note_on channel=6 note=55 velocity=100 time=0.07626427083333333
EXTRACT: note_off channel=6 note=57 velocity=100 time=0.013020729166666665
EXTRACT: note_off channel=1 note=67 velocity=100 time=0.17856999999999998
EXTRACT: note_off channel=1 note=59 velocity=100 time=0
EXTRACT: note_off channel=1 note=55 velocity=100 time=0
EXTRACT: note_off channel=1 note=50 velocity=100 time=0
EXTRACT: note_off channel=1 note=43 velocity=100 time=0
EXTRACT: note_on channel=1 note=43 velocity=100 time=0
EXTRACT: note_on channel=1 note=50 velocity=100 time=0
EXTRACT: note_on channel=1 note=55 velocity=100 time=0
EXTRACT: note_on channel=1 note=59 velocity=100 time=0
EXTRACT: note_on channel=1 note=67 velocity=100 time=0
EXTRACT: note_off channel=2 note=43 velocity=100 time=0
EXTRACT: note_on channel=2 note=43 velocity=100 time=0
EXTRACT: note_off channel=3 note=43 velocity=100 time=0
EXTRACT: note_on channel=3 note=43 velocity=100 time=0
EXTRACT: note_off channel=5 note=31 velocity=100 time=0
EXTRACT: note_on channel=5 note=30 velocity=100 time=0
EXTRACT: note_on channel=9 note=35 velocity=127 time=0
EXTRACT: note_on channel=9 note=36 velocity=127 time=0
EXTRACT: note_on channel=9 note=49 velocity=127 time=0
EXTRACT: note_off channel=9 note=49 velocity=127 time=0.029761666666666662
EXTRACT: note_off channel=9 note=36 velocity=127 time=0
EXTRACT: note_off channel=9 note=35 velocity=127 time=0.059523333333333324
EXTRACT: note_off channel=1 note=67 velocity=100 time=0.26785499999999995
EXTRACT: note_off channel=1 note=59 velocity=100 time=0
EXTRACT: note_off channel=1 note=55 velocity=100 time=0
EXTRACT: note_off channel=1 note=50 velocity=100 time=0
EXTRACT: note_off channel=1 note=43 velocity=100 time=0
EXTRACT: note_on channel=1 note=43 velocity=100 time=0
EXTRACT: note_on channel=1 note=50 velocity=100 time=0
EXTRACT: note_on channel=1 note=55 velocity=100 time=0
EXTRACT: note_on channel=1 note=59 velocity=100 time=0
EXTRACT: note_on channel=1 note=67 velocity=100 time=0
EXTRACT: note_off channel=2 note=43 velocity=100 time=0
EXTRACT: note_on channel=2 note=43 velocity=100 time=0
EXTRACT: note_off channel=3 note=43 velocity=100 time=0
EXTRACT: note_on channel=3 note=43 velocity=100 time=0
EXTRACT: note_off channel=5 note=30 velocity=100 time=0
EXTRACT: note_on channel=5 note=31 velocity=100 time=0
EXTRACT: note_on channel=9 note=38 velocity=127 time=0
EXTRACT: note_on channel=9 note=51 velocity=127 time=0
EXTRACT: note_off channel=9 note=51 velocity=127 time=0.029761666666666662
EXTRACT: note_off channel=9 note=38 velocity=127 time=0
EXTRACT: note_off channel=2 note=43 velocity=100 time=0.32737833333333327
EXTRACT: note_on channel=2 note=43 velocity=100 time=0
EXTRACT: note_off channel=3 note=43 velocity=100 time=0
EXTRACT: note_on channel=3 note=43 velocity=100 time=0
EXTRACT: note_off channel=5 note=31 velocity=100 time=0
EXTRACT: note_on channel=5 note=30 velocity=100 time=0
EXTRACT: note_on channel=9 note=51 velocity=127 time=0
EXTRACT: note_off channel=9 note=51 velocity=127 time=0.029761666666666662
EXTRACT: note_on channel=9 note=38 velocity=127 time=0.14880833333333332
EXTRACT: note_off channel=9 note=38 velocity=127 time=0.029761666666666662
EXTRACT: note_off channel=1 note=67 velocity=100 time=0.14880833333333332
EXTRACT: note_off channel=1 note=59 velocity=100 time=0
EXTRACT: note_off channel=1 note=55 velocity=100 time=0
EXTRACT: note_off channel=1 note=50 velocity=100 time=0
EXTRACT: note_off channel=1 note=43 velocity=100 time=0
EXTRACT: note_on channel=1 note=43 velocity=100 time=0
EXTRACT: note_on channel=1 note=50 velocity=100 time=0
EXTRACT: note_on channel=1 note=55 velocity=100 time=0
EXTRACT: note_on channel=1 note=59 velocity=100 time=0
EXTRACT: note_on channel=1 note=67 velocity=100 time=0
EXTRACT: note_off channel=2 note=43 velocity=100 time=0
EXTRACT: note_on channel=2 note=43 velocity=100 time=0
EXTRACT: note_off channel=3 note=43 velocity=100 time=0
EXTRACT: note_on channel=3 note=43 velocity=100 time=0
EXTRACT: note_off channel=5 note=30 velocity=100 time=0
EXTRACT: note_on channel=5 note=31 velocity=100 time=0
EXTRACT: note_on channel=9 note=35 velocity=127 time=0
EXTRACT: note_on channel=9 note=36 velocity=127 time=0
EXTRACT: note_on channel=9 note=51 velocity=127 time=0
EXTRACT: note_off channel=9 note=51 velocity=127 time=0.029761666666666662
EXTRACT: note_off channel=9 note=36 velocity=127 time=0
EXTRACT: note_off channel=9 note=35 velocity=127 time=0.059523333333333324
EXTRACT: note_off channel=6 note=55 velocity=100 time=0.07626427083333333
EXTRACT: note_on channel=9 note=38 velocity=127 time=0.013020729166666665
EXTRACT: note_off channel=9 note=38 velocity=127 time=0.029761666666666662
EXTRACT: note_off channel=1 note=67 velocity=100 time=0.14880833333333332
EXTRACT: note_off channel=1 note=59 velocity=100 time=0
EXTRACT: note_off channel=1 note=55 velocity=100 time=0
EXTRACT: note_off channel=1 note=50 velocity=100 time=0
EXTRACT: note_off channel=1 note=43 velocity=100 time=0
EXTRACT: note_on channel=1 note=43 velocity=100 time=0
EXTRACT: note_on channel=1 note=50 velocity=100 time=0
EXTRACT: note_on channel=1 note=55 velocity=100 time=0
EXTRACT: note_on channel=1 note=59 velocity=100 time=0
EXTRACT: note_on channel=1 note=67 velocity=100 time=0
EXTRACT: note_off channel=2 note=43 velocity=100 time=0
EXTRACT: note_on channel=2 note=43 velocity=100 time=0
EXTRACT: note_off channel=3 note=43 velocity=100 time=0
EXTRACT: note_on channel=3 note=43 velocity=100 time=0
EXTRACT: note_off channel=5 note=31 velocity=100 time=0
EXTRACT: note_on channel=5 note=30 velocity=100 time=0
EXTRACT: note_on channel=9 note=35 velocity=127 time=0
EXTRACT: note_on channel=9 note=36 velocity=127 time=0
EXTRACT: note_on channel=9 note=51 velocity=127 time=0
EXTRACT: note_off channel=9 note=51 velocity=127 time=0.029761666666666662
EXTRACT: note_off channel=9 note=36 velocity=127 time=0
EXTRACT: note_off channel=9 note=35 velocity=127 time=0.059523333333333324
EXTRACT: note_off channel=1 note=67 velocity=100 time=0.26785499999999995
EXTRACT: note_off channel=1 note=59 velocity=100 time=0
EXTRACT: note_off channel=1 note=55 velocity=100 time=0
EXTRACT: note_off channel=1 note=50 velocity=100 time=0
EXTRACT: note_off channel=1 note=43 velocity=100 time=0
EXTRACT: note_on channel=1 note=43 velocity=100 time=0
EXTRACT: note_on channel=1 note=50 velocity=100 time=0
EXTRACT: note_on channel=1 note=55 velocity=100 time=0
EXTRACT: note_on channel=1 note=59 velocity=100 time=0
EXTRACT: note_on channel=1 note=67 velocity=100 time=0
EXTRACT: note_off channel=2 note=43 velocity=100 time=0
EXTRACT: note_on channel=2 note=43 velocity=100 time=0
EXTRACT: note_off channel=3 note=43 velocity=100 time=0
EXTRACT: note_on channel=3 note=43 velocity=100 time=0
EXTRACT: note_off channel=5 note=30 velocity=100 time=0
EXTRACT: note_on channel=5 note=31 velocity=100 time=0
EXTRACT: note_on channel=9 note=38 velocity=127 time=0
EXTRACT: note_on channel=9 note=51 velocity=127 time=0
EXTRACT: note_off channel=9 note=51 velocity=127 time=0.029761666666666662
EXTRACT: note_off channel=9 note=38 velocity=127 time=0
EXTRACT: note_off channel=1 note=67 velocity=100 time=0.32737833333333327
EXTRACT: note_off channel=1 note=59 velocity=100 time=0
EXTRACT: note_off channel=1 note=55 velocity=100 time=0
EXTRACT: note_off channel=1 note=50 velocity=100 time=0
EXTRACT: note_off channel=1 note=43 velocity=100 time=0
EXTRACT: note_on channel=1 note=43 velocity=100 time=0
EXTRACT: note_on channel=1 note=50 velocity=100 time=0
EXTRACT: note_on channel=1 note=55 velocity=100 time=0
EXTRACT: note_on channel=1 note=59 velocity=100 time=0
EXTRACT: note_on channel=1 note=67 velocity=100 time=0
EXTRACT: note_off channel=2 note=43 velocity=100 time=0
EXTRACT: note_on channel=2 note=45 velocity=100 time=0
EXTRACT: note_off channel=3 note=43 velocity=100 time=0
EXTRACT: note_on channel=3 note=45 velocity=100 time=0
EXTRACT: note_off channel=5 note=31 velocity=100 time=0
EXTRACT: note_on channel=5 note=30 velocity=100 time=0
EXTRACT: note_on channel=9 note=51 velocity=127 time=0
EXTRACT: note_off channel=9 note=51 velocity=127 time=0.029761666666666662
EXTRACT: note_on channel=9 note=38 velocity=127 time=0.14880833333333332
EXTRACT: note_off channel=9 note=38 velocity=127 time=0.029761666666666662
EXTRACT: note_off channel=1 note=67 velocity=100 time=0.14880833333333332
EXTRACT: note_off channel=1 note=59 velocity=100 time=0
EXTRACT: note_off channel=1 note=55 velocity=100 time=0
EXTRACT: note_off channel=1 note=50 velocity=100 time=0
EXTRACT: note_off channel=1 note=43 velocity=100 time=0
EXTRACT: note_on channel=1 note=43 velocity=100 time=0
EXTRACT: note_on channel=1 note=50 velocity=100 time=0
EXTRACT: note_on channel=1 note=55 velocity=100 time=0
EXTRACT: note_on channel=1 note=59 velocity=100 time=0
EXTRACT: note_on channel=1 note=67 velocity=100 time=0
EXTRACT: note_off channel=2 note=45 velocity=100 time=0
EXTRACT: note_on channel=2 note=57 velocity=100 time=0
EXTRACT: note_on channel=2 note=60 velocity=100 time=0
EXTRACT: note_off channel=3 note=45 velocity=100 time=0
EXTRACT: note_on channel=3 note=43 velocity=100 time=0
EXTRACT: note_off channel=5 note=30 velocity=100 time=0
EXTRACT: note_on channel=5 note=31 velocity=100 time=0
EXTRACT: note_on channel=9 note=35 velocity=127 time=0
EXTRACT: note_on channel=9 note=36 velocity=127 time=0
EXTRACT: note_on channel=9 note=51 velocity=127 time=0
EXTRACT: note_off channel=9 note=51 velocity=127 time=0.029761666666666662
EXTRACT: note_off channel=9 note=36 velocity=127 time=0
EXTRACT: note_off channel=9 note=35 velocity=127 time=0.059523333333333324
EXTRACT: note_on channel=9 note=38 velocity=127 time=0.08928499999999999
EXTRACT: note_off channel=9 note=38 velocity=127 time=0.029761666666666662
EXTRACT: note_off channel=2 note=60 velocity=100 time=0.14880833333333332
EXTRACT: note_off channel=2 note=57 velocity=100 time=0
EXTRACT: note_off channel=3 note=43 velocity=100 time=0
EXTRACT: note_on channel=3 note=43 velocity=100 time=0
EXTRACT: note_off channel=5 note=31 velocity=100 time=0
EXTRACT: note_on channel=5 note=30 velocity=100 time=0
EXTRACT: note_on channel=9 note=36 velocity=127 time=0
EXTRACT: note_on channel=9 note=51 velocity=127 time=0
EXTRACT: note_on channel=9 note=35 velocity=127 time=0
EXTRACT: note_on channel=2 note=55 velocity=100 time=0.022321249999999997
EXTRACT: note_on channel=2 note=60 velocity=100 time=0
EXTRACT: note_off channel=9 note=51 velocity=127 time=0.0074404166666666655
EXTRACT: note_off channel=9 note=36 velocity=127 time=0
EXTRACT: note_off channel=9 note=35 velocity=127 time=0.059523333333333324
EXTRACT: note_on channel=3 note=43 velocity=100 time=0.17856999999999998
EXTRACT: note_off channel=1 note=67 velocity=100 time=0.08928499999999999
EXTRACT: note_off channel=1 note=59 velocity=100 time=0
EXTRACT: note_off channel=1 note=55 velocity=100 time=0
EXTRACT: note_off channel=1 note=50 velocity=100 time=0
EXTRACT: note_off channel=1 note=43 velocity=100 time=0
EXTRACT: note_on channel=1 note=43 velocity=100 time=0
EXTRACT: note_on channel=1 note=50 velocity=100 time=0
EXTRACT: note_on channel=1 note=55 velocity=100 time=0
EXTRACT: note_on channel=1 note=59 velocity=100 time=0
EXTRACT: note_on channel=1 note=67 velocity=100 time=0
EXTRACT: note_off channel=3 note=43 velocity=100 time=0
EXTRACT: note_off channel=5 note=30 velocity=100 time=0
EXTRACT: note_on channel=5 note=31 velocity=100 time=0
EXTRACT: note_on channel=9 note=38 velocity=127 time=0
EXTRACT: note_on channel=9 note=51 velocity=127 time=0
EXTRACT: note_off channel=9 note=51 velocity=127 time=0.029761666666666662
EXTRACT: note_off channel=9 note=38 velocity=127 time=0
EXTRACT: note_off channel=3 note=43 velocity=100 time=0.2380933333333333
EXTRACT: note_on channel=2 note=62 velocity=100 time=0.08928499999999999
EXTRACT: note_on channel=3 note=43 velocity=100 time=0
EXTRACT: note_off channel=5 note=31 velocity=100 time=0
EXTRACT: note_on channel=5 note=30 velocity=100 time=0
EXTRACT: note_on channel=9 note=51 velocity=127 time=0
EXTRACT: note_off channel=2 note=60 velocity=100 time=0.022321249999999997
EXTRACT: note_off channel=2 note=55 velocity=100 time=0
EXTRACT: note_off channel=9 note=51 velocity=127 time=0.0074404166666666655
EXTRACT: note_off channel=3 note=43 velocity=100 time=0.14880833333333332
EXTRACT: note_on channel=3 note=43 velocity=100 time=0
EXTRACT: note_on channel=9 note=38 velocity=127 time=0
EXTRACT: note_off channel=9 note=38 velocity=127 time=0.029761666666666662
EXTRACT: note_off channel=1 note=67 velocity=100 time=0.14880833333333332
EXTRACT: note_off channel=1 note=59 velocity=100 time=0
EXTRACT: note_off channel=1 note=55 velocity=100 time=0
EXTRACT: note_off channel=1 note=50 velocity=100 time=0
EXTRACT: note_off channel=1 note=43 velocity=100 time=0
EXTRACT: note_on channel=1 note=43 velocity=100 time=0
EXTRACT: note_on channel=1 note=50 velocity=100 time=0
EXTRACT: note_on channel=1 note=55 velocity=100 time=0
EXTRACT: note_on channel=1 note=59 velocity=100 time=0
EXTRACT: note_on channel=1 note=67 velocity=100 time=0
EXTRACT: note_off channel=3 note=43 velocity=100 time=0
EXTRACT: note_on channel=3 note=43 velocity=100 time=0
EXTRACT: note_off channel=5 note=30 velocity=100 time=0
EXTRACT: note_on channel=5 note=31 velocity=100 time=0
EXTRACT: note_on channel=9 note=35 velocity=127 time=0
EXTRACT: note_on channel=9 note=36 velocity=127 time=0
EXTRACT: note_on channel=9 note=51 velocity=127 time=0
EXTRACT: note_off channel=9 note=51 velocity=127 time=0.029761666666666662
EXTRACT: note_off channel=9 note=36 velocity=127 time=0
EXTRACT: note_off channel=9 note=35 velocity=127 time=0.059523333333333324
EXTRACT: note_on channel=2 note=63 velocity=100 time=0.07068395833333332
EXTRACT: note_off channel=2 note=62 velocity=100 time=0.018601041666666665
EXTRACT: note_on channel=9 note=43 velocity=127 time=0.14880833333333332
EXTRACT: note_off channel=2 note=63 velocity=100 time=0.011160624999999999
EXTRACT: note_off channel=1 note=67 velocity=100 time=0.018601041666666665
EXTRACT: note_off channel=1 note=59 velocity=100 time=0
EXTRACT: note_off channel=1 note=55 velocity=100 time=0
EXTRACT: note_off channel=1 note=50 velocity=100 time=0
EXTRACT: note_off channel=1 note=43 velocity=100 time=0
EXTRACT: note_on channel=1 note=43 velocity=100 time=0
EXTRACT: note_on channel=1 note=50 velocity=100 time=0
EXTRACT: note_on channel=1 note=55 velocity=100 time=0
EXTRACT: note_on channel=1 note=59 velocity=100 time=0
EXTRACT: note_on channel=1 note=67 velocity=100 time=0
EXTRACT: note_off channel=3 note=43 velocity=100 time=0
EXTRACT: note_on channel=3 note=43 velocity=100 time=0
EXTRACT: note_off channel=5 note=31 velocity=100 time=0
EXTRACT: note_on channel=5 note=30 velocity=100 time=0
EXTRACT: note_off channel=9 note=43 velocity=127 time=0
EXTRACT: note_on channel=9 note=38 velocity=127 time=0
EXTRACT: note_on channel=2 note=64 velocity=100 time=0.005580312499999999
EXTRACT: note_off channel=9 note=38 velocity=127 time=0.024181354166666662
EXTRACT: note_off channel=1 note=67 velocity=100 time=0.32737833333333327
EXTRACT: note_off channel=1 note=59 velocity=100 time=0
EXTRACT: note_off channel=1 note=55 velocity=100 time=0
EXTRACT: note_off channel=1 note=50 velocity=100 time=0
EXTRACT: note_off channel=1 note=43 velocity=100 time=0
EXTRACT: note_on channel=1 note=43 velocity=100 time=0
EXTRACT: note_on channel=1 note=50 velocity=100 time=0
EXTRACT: note_on channel=1 note=55 velocity=100 time=0
EXTRACT: note_on channel=1 note=59 velocity=100 time=0
EXTRACT: note_on channel=1 note=67 velocity=100 time=0
EXTRACT: note_on channel=2 note=62 velocity=100 time=0
EXTRACT: note_off channel=3 note=43 velocity=100 time=0
EXTRACT: note_on channel=3 note=43 velocity=100 time=0
EXTRACT: note_off channel=5 note=30 velocity=100 time=0
EXTRACT: note_on channel=5 note=31 velocity=100 time=0
EXTRACT: note_on channel=9 note=38 velocity=127 time=0
EXTRACT: note_off channel=2 note=64 velocity=100 time=0.005580312499999999
EXTRACT: note_off channel=9 note=38 velocity=127 time=0.024181354166666662
EXTRACT: note_off channel=2 note=62 velocity=100 time=0.14880833333333332
EXTRACT: note_on channel=2 note=60 velocity=100 time=0
EXTRACT: note_on channel=9 note=45 velocity=127 time=0
EXTRACT: note_off channel=9 note=45 velocity=127 time=0.029761666666666662
EXTRACT: note_on channel=2 note=62 velocity=100 time=0.13578760416666666
EXTRACT: note_on channel=6 note=55 velocity=100 time=0.005580312499999999
EXTRACT: note_off channel=1 note=67 velocity=100 time=0.0074404166666666655
EXTRACT: note_off channel=1 note=59 velocity=100 time=0
EXTRACT: note_off channel=1 note=55 velocity=100 time=0
EXTRACT: note_off channel=1 note=50 velocity=100 time=0
EXTRACT: note_off channel=1 note=43 velocity=100 time=0
EXTRACT: note_on channel=1 note=43 velocity=100 time=0
EXTRACT: note_on channel=1 note=50 velocity=100 time=0
EXTRACT: note_on channel=1 note=55 velocity=100 time=0
EXTRACT: note_on channel=1 note=59 velocity=100 time=0
EXTRACT: note_on channel=1 note=67 velocity=100 time=0
EXTRACT: note_off channel=2 note=60 velocity=100 time=0
EXTRACT: note_off channel=3 note=43 velocity=100 time=0
EXTRACT: note_on channel=3 note=43 velocity=100 time=0
EXTRACT: note_off channel=5 note=31 velocity=100 time=0
EXTRACT: note_on channel=5 note=33 velocity=100 time=0
EXTRACT: note_on channel=9 note=43 velocity=127 time=0
EXTRACT: note_off channel=9 note=43 velocity=127 time=0.029761666666666662
EXTRACT: note_off channel=2 note=62 velocity=100 time=0.13578760416666666
EXTRACT: note_off channel=5 note=33 velocity=100 time=0.013020729166666665
EXTRACT: note_on channel=5 note=35 velocity=100 time=0
EXTRACT: note_on channel=9 note=45 velocity=127 time=0
EXTRACT: note_off channel=9 note=45 velocity=127 time=0.029761666666666662
EXTRACT: note_off channel=6 note=55 velocity=100 time=0.14136791666666665
EXTRACT: note_off channel=1 note=67 velocity=100 time=0.0074404166666666655
EXTRACT: note_off channel=1 note=59 velocity=100 time=0
EXTRACT: note_off channel=1 note=55 velocity=100 time=0
EXTRACT: note_off channel=1 note=50 velocity=100 time=0
EXTRACT: note_off channel=1 note=43 velocity=100 time=0
EXTRACT: note_on channel=1 note=48 velocity=100 time=0
EXTRACT: note_on channel=1 note=52 velocity=100 time=0
EXTRACT: note_on channel=1 note=55 velocity=100 time=0
EXTRACT: note_on channel=1 note=60 velocity=100 time=0
EXTRACT: note_on channel=1 note=64 velocity=100 time=0
EXTRACT: note_on channel=2 note=60 velocity=100 time=0
EXTRACT: note_off channel=3 note=43 velocity=100 time=0
EXTRACT: note_off channel=5 note=35 velocity=100 time=0
EXTRACT: note_on channel=5 note=36 velocity=100 time=0
EXTRACT: note_on channel=6 note=67 velocity=100 time=0
EXTRACT: note_on channel=9 note=35 velocity=127 time=0
EXTRACT: note_on channel=9 note=36 velocity=127 time=0
EXTRACT: note_on channel=9 note=54 velocity=127 time=0
EXTRACT: note_on channel=9 note=49 velocity=127 time=0
EXTRACT: note_off channel=9 note=49 velocity=127 time=0.029761666666666662
EXTRACT: note_off channel=9 note=54 velocity=127 time=0
EXTRACT: note_off channel=9 note=36 velocity=127 time=0
EXTRACT: note_off channel=9 note=35 velocity=127 time=0.059523333333333324
EXTRACT: note_on channel=9 note=54 velocity=127 time=0.08928499999999999
EXTRACT: note_off channel=9 note=54 velocity=127 time=0.029761666666666662
EXTRACT: note_on channel=9 note=54 velocity=127 time=0.14880833333333332
EXTRACT: note_on channel=9 note=51 velocity=127 time=0
EXTRACT: note_off channel=9 note=51 velocity=127 time=0.029761666666666662
EXTRACT: note_off channel=9 note=54 velocity=127 time=0
EXTRACT: note_on channel=9 note=54 velocity=127 time=0.14880833333333332
EXTRACT: note_off channel=9 note=54 velocity=127 time=0.029761666666666662
EXTRACT: note_on channel=5 note=36 velocity=100 time=0.10602593749999999
EXTRACT: note_off channel=1 note=64 velocity=100 time=0.04278239583333333
EXTRACT: note_off channel=1 note=60 velocity=100 time=0
EXTRACT: note_off channel=1 note=55 velocity=100 time=0
EXTRACT: note_off channel=1 note=52 velocity=100 time=0
EXTRACT: note_off channel=1 note=48 velocity=100 time=0
EXTRACT: note_on channel=1 note=48 velocity=100 time=0
EXTRACT: note_on channel=1 note=52 velocity=100 time=0
EXTRACT: note_on channel=1 note=55 velocity=100 time=0
EXTRACT: note_on channel=1 note=60 velocity=100 time=0
EXTRACT: note_on channel=1 note=64 velocity=100 time=0
EXTRACT: note_off channel=5 note=36 velocity=100 time=0
EXTRACT: note_on channel=9 note=38 velocity=127 time=0
EXTRACT: note_on channel=9 note=54 velocity=127 time=0
EXTRACT: note_on channel=9 note=51 velocity=127 time=0
EXTRACT: note_off channel=9 note=51 velocity=127 time=0.029761666666666662
EXTRACT: note_off channel=9 note=54 velocity=127 time=0
EXTRACT: note_off channel=9 note=38 velocity=127 time=0
EXTRACT: note_on channel=9 note=54 velocity=127 time=0.14880833333333332
EXTRACT: note_off channel=9 note=54 velocity=127 time=0.029761666666666662
EXTRACT: note_off channel=5 note=36 velocity=100 time=0.10602593749999999
EXTRACT: note_off channel=1 note=64 velocity=100 time=0.04278239583333333
EXTRACT: note_off channel=1 note=60 velocity=100 time=0
EXTRACT: note_off channel=1 note=55 velocity=100 time=0
EXTRACT: note_off channel=1 note=52 velocity=100 time=0
EXTRACT: note_off channel=1 note=48 velocity=100 time=0
EXTRACT: note_on channel=1 note=48 velocity=100 time=0
EXTRACT: note_on channel=1 note=52 velocity=100 time=0
EXTRACT: note_on channel=1 note=55 velocity=100 time=0
EXTRACT: note_on channel=1 note=60 velocity=100 time=0
EXTRACT: note_on channel=1 note=64 velocity=100 time=0
EXTRACT: note_on channel=9 note=54 velocity=127 time=0
EXTRACT: note_on channel=9 note=51 velocity=127 time=0
EXTRACT: note_on channel=5 note=35 velocity=100 time=0.022321249999999997
EXTRACT: note_off channel=9 note=51 velocity=127 time=0.0074404166666666655
EXTRACT: note_off channel=9 note=54 velocity=127 time=0
EXTRACT: note_on channel=9 note=38 velocity=127 time=0.14880833333333332
EXTRACT: note_on channel=9 note=54 velocity=127 time=0
EXTRACT: note_off channel=9 note=54 velocity=127 time=0.029761666666666662
EXTRACT: note_off channel=9 note=38 velocity=127 time=0
EXTRACT: note_on channel=6 note=65 velocity=100 time=0.13578760416666666
EXTRACT: note_off channel=1 note=64 velocity=100 time=0.013020729166666665
EXTRACT: note_off channel=1 note=60 velocity=100 time=0
EXTRACT: note_off channel=1 note=55 velocity=100 time=0
EXTRACT: note_off channel=1 note=52 velocity=100 time=0
EXTRACT: note_off channel=1 note=48 velocity=100 time=0
EXTRACT: note_on channel=1 note=43 velocity=100 time=0
EXTRACT: note_on channel=1 note=50 velocity=100 time=0
EXTRACT: note_on channel=1 note=55 velocity=100 time=0
EXTRACT: note_on channel=1 note=59 velocity=100 time=0
EXTRACT: note_on channel=1 note=67 velocity=100 time=0
EXTRACT: note_off channel=6 note=67 velocity=100 time=0
EXTRACT: note_on channel=9 note=35 velocity=127 time=0
EXTRACT: note_on channel=9 note=36 velocity=127 time=0
EXTRACT: note_on channel=9 note=54 velocity=127 time=0
EXTRACT: note_on channel=9 note=51 velocity=127 time=0
EXTRACT: note_off channel=5 note=35 velocity=100 time=0.022321249999999997
EXTRACT: note_on channel=5 note=31 velocity=100 time=0
EXTRACT: note_off channel=9 note=51 velocity=127 time=0.0074404166666666655
EXTRACT: note_off channel=9 note=54 velocity=127 time=0
EXTRACT: note_off channel=9 note=36 velocity=127 time=0
EXTRACT: note_off channel=9 note=35 velocity=127 time=0.059523333333333324
EXTRACT: note_on channel=9 note=38 velocity=127 time=0.08928499999999999
EXTRACT: note_on channel=9 note=54 velocity=127 time=0
EXTRACT: note_off channel=9 note=54 velocity=127 time=0.029761666666666662
EXTRACT: note_off channel=9 note=38 velocity=127 time=0
EXTRACT: note_off channel=6 note=65 velocity=100 time=0.13578760416666666
EXTRACT: note_on channel=6 note=67 velocity=100 time=0
EXTRACT: note_on channel=5 note=31 velocity=100 time=0.013020729166666665
EXTRACT: note_on channel=9 note=36 velocity=127 time=0
EXTRACT: note_on channel=9 note=54 velocity=127 time=0
EXTRACT: note_on channel=9 note=51 velocity=127 time=0
EXTRACT: note_on channel=9 note=35 velocity=127 time=0
EXTRACT: note_off channel=5 note=31 velocity=100 time=0.022321249999999997
EXTRACT: note_off channel=9 note=51 velocity=127 time=0.0074404166666666655
EXTRACT: note_off channel=9 note=54 velocity=127 time=0
EXTRACT: note_off channel=9 note=36 velocity=127 time=0
EXTRACT: note_off channel=9 note=35 velocity=127 time=0.059523333333333324
EXTRACT: note_on channel=9 note=54 velocity=127 time=0.08928499999999999
EXTRACT: note_off channel=9 note=54 velocity=127 time=0.029761666666666662
EXTRACT: note_on channel=6 note=65 velocity=100 time=0.12462697916666665
EXTRACT: note_off channel=6 note=67 velocity=100 time=0.011160624999999999
EXTRACT: note_off channel=1 note=67 velocity=100 time=0.013020729166666665
EXTRACT: note_off channel=1 note=59 velocity=100 time=0
EXTRACT: note_off channel=1 note=55 velocity=100 time=0
EXTRACT: note_off channel=1 note=50 velocity=100 time=0
EXTRACT: note_off channel=1 note=43 velocity=100 time=0
EXTRACT: note_on channel=1 note=43 velocity=100 time=0
EXTRACT: note_on channel=1 note=50 velocity=100 time=0
EXTRACT: note_on channel=1 note=55 velocity=100 time=0
EXTRACT: note_on channel=1 note=59 velocity=100 time=0
EXTRACT: note_on channel=1 note=67 velocity=100 time=0
EXTRACT: note_off channel=5 note=31 velocity=100 time=0
EXTRACT: note_on channel=5 note=31 velocity=100 time=0
EXTRACT: note_on channel=9 note=38 velocity=127 time=0
EXTRACT: note_on channel=9 note=54 velocity=127 time=0
EXTRACT: note_on channel=9 note=51 velocity=127 time=0
EXTRACT: note_off channel=9 note=51 velocity=127 time=0.029761666666666662
EXTRACT: note_off channel=9 note=54 velocity=127 time=0
EXTRACT: note_off channel=9 note=38 velocity=127 time=0
EXTRACT: note_on channel=9 note=54 velocity=127 time=0.14880833333333332
EXTRACT: note_off channel=9 note=54 velocity=127 time=0.029761666666666662
EXTRACT: note_off channel=6 note=65 velocity=100 time=0.12462697916666665
EXTRACT: note_off channel=1 note=67 velocity=100 time=0.024181354166666662
EXTRACT: note_off channel=1 note=59 velocity=100 time=0
EXTRACT: note_off channel=1 note=55 velocity=100 time=0
EXTRACT: note_off channel=1 note=50 velocity=100 time=0
EXTRACT: note_off channel=1 note=43 velocity=100 time=0
EXTRACT: note_on channel=1 note=43 velocity=100 time=0
EXTRACT: note_on channel=1 note=50 velocity=100 time=0
EXTRACT: note_on channel=1 note=55 velocity=100 time=0
EXTRACT: note_on channel=1 note=59 velocity=100 time=0
EXTRACT: note_on channel=1 note=67 velocity=100 time=0
EXTRACT: note_off channel=5 note=31 velocity=100 time=0
EXTRACT: note_on channel=5 note=31 velocity=100 time=0
EXTRACT: note_on channel=6 note=64 velocity=100 time=0
EXTRACT: note_on channel=9 note=54 velocity=127 time=0
EXTRACT: note_on channel=9 note=51 velocity=127 time=0
EXTRACT: note_off channel=9 note=51 velocity=127 time=0.029761666666666662
EXTRACT: note_off channel=9 note=54 velocity=127 time=0
EXTRACT: note_off channel=5 note=31 velocity=100 time=0.14880833333333332
EXTRACT: note_on channel=5 note=32 velocity=100 time=0
EXTRACT: note_on channel=9 note=38 velocity=127 time=0
EXTRACT: note_on channel=9 note=54 velocity=127 time=0
EXTRACT: note_off channel=9 note=54 velocity=127 time=0.029761666666666662
EXTRACT: note_off channel=9 note=38 velocity=127 time=0
EXTRACT: note_on channel=9 note=38 velocity=127 time=0.029761666666666662
EXTRACT: note_off channel=9 note=38 velocity=127 time=0.029761666666666662
EXTRACT: note_off channel=1 note=67 velocity=100 time=0.08928499999999999
EXTRACT: note_off channel=1 note=59 velocity=100 time=0
EXTRACT: note_off channel=1 note=55 velocity=100 time=0
EXTRACT: note_off channel=1 note=50 velocity=100 time=0
EXTRACT: note_off channel=1 note=43 velocity=100 time=0
EXTRACT: note_on channel=1 note=45 velocity=100 time=0
EXTRACT: note_on channel=1 note=52 velocity=100 time=0
EXTRACT: note_on channel=1 note=57 velocity=100 time=0
EXTRACT: note_on channel=1 note=60 velocity=100 time=0
EXTRACT: note_on channel=1 note=64 velocity=100 time=0
EXTRACT: note_off channel=2 note=60 velocity=100 time=0
EXTRACT: note_off channel=5 note=32 velocity=100 time=0
EXTRACT: note_on channel=5 note=33 velocity=100 time=0
EXTRACT: note_on channel=9 note=35 velocity=127 time=0
EXTRACT: note_on channel=9 note=36 velocity=127 time=0
EXTRACT: note_on channel=9 note=54 velocity=127 time=0
EXTRACT: note_on channel=9 note=51 velocity=127 time=0
EXTRACT: note_off channel=9 note=51 velocity=127 time=0.029761666666666662
EXTRACT: note_off channel=9 note=54 velocity=127 time=0
EXTRACT: note_off channel=9 note=36 velocity=127 time=0
EXTRACT: note_off channel=9 note=35 velocity=127 time=0.059523333333333324
EXTRACT: note_on channel=9 note=54 velocity=127 time=0.08928499999999999
EXTRACT: note_off channel=9 note=54 velocity=127 time=0.029761666666666662
EXTRACT: note_on channel=9 note=54 velocity=127 time=0.14880833333333332
EXTRACT: note_on channel=9 note=51 velocity=127 time=0
EXTRACT: note_off channel=9 note=51 velocity=127 time=0.029761666666666662
EXTRACT: note_off channel=9 note=54 velocity=127 time=0
EXTRACT: note_on channel=9 note=54 velocity=127 time=0.14880833333333332
EXTRACT: note_off channel=9 note=54 velocity=127 time=0.029761666666666662
EXTRACT: note_off channel=1 note=64 velocity=100 time=0.14880833333333332
EXTRACT: note_off channel=1 note=60 velocity=100 time=0
EXTRACT: note_off channel=1 note=57 velocity=100 time=0
EXTRACT: note_off channel=1 note=52 velocity=100 time=0
EXTRACT: note_off channel=1 note=45 velocity=100 time=0
EXTRACT: note_on channel=1 note=45 velocity=100 time=0
EXTRACT: note_on channel=1 note=52 velocity=100 time=0
EXTRACT: note_on channel=1 note=57 velocity=100 time=0
EXTRACT: note_on channel=1 note=60 velocity=100 time=0
EXTRACT: note_on channel=1 note=64 velocity=100 time=0
EXTRACT: note_off channel=5 note=33 velocity=100 time=0
EXTRACT: note_on channel=5 note=33 velocity=100 time=0
EXTRACT: note_off channel=6 note=64 velocity=100 time=0
EXTRACT: note_on channel=9 note=38 velocity=127 time=0
EXTRACT: note_on channel=9 note=54 velocity=127 time=0
EXTRACT: note_on channel=9 note=51 velocity=127 time=0
EXTRACT: note_off channel=9 note=51 velocity=127 time=0.029761666666666662
EXTRACT: note_off channel=9 note=54 velocity=127 time=0
EXTRACT: note_off channel=9 note=38 velocity=127 time=0
EXTRACT: note_on channel=9 note=54 velocity=127 time=0.14880833333333332
EXTRACT: note_off channel=9 note=54 velocity=127 time=0.029761666666666662
EXTRACT: note_off channel=1 note=64 velocity=100 time=0.14880833333333332
EXTRACT: note_off channel=1 note=60 velocity=100 time=0
EXTRACT: note_off channel=1 note=57 velocity=100 time=0
EXTRACT: note_off channel=1 note=52 velocity=100 time=0
EXTRACT: note_off channel=1 note=45 velocity=100 time=0
EXTRACT: note_on channel=1 note=45 velocity=100 time=0
EXTRACT: note_on channel=1 note=52 velocity=100 time=0
EXTRACT: note_on channel=1 note=57 velocity=100 time=0
EXTRACT: note_on channel=1 note=60 velocity=100 time=0
EXTRACT: note_on channel=1 note=64 velocity=100 time=0
EXTRACT: note_off channel=5 note=33 velocity=100 time=0
EXTRACT: note_on channel=5 note=31 velocity=100 time=0
EXTRACT: note_on channel=6 note=62 velocity=100 time=0
EXTRACT: note_on channel=9 note=54 velocity=127 time=0
EXTRACT: note_on channel=9 note=51 velocity=127 time=0
EXTRACT: note_off channel=9 note=51 velocity=127 time=0.029761666666666662
EXTRACT: note_off channel=9 note=54 velocity=127 time=0
EXTRACT: note_on channel=9 note=38 velocity=127 time=0.14880833333333332
EXTRACT: note_on channel=9 note=54 velocity=127 time=0
EXTRACT: note_off channel=9 note=54 velocity=127 time=0.029761666666666662
EXTRACT: note_off channel=9 note=38 velocity=127 time=0
EXTRACT: note_off channel=1 note=64 velocity=100 time=0.14880833333333332
EXTRACT: note_off channel=1 note=60 velocity=100 time=0
EXTRACT: note_off channel=1 note=57 velocity=100 time=0
EXTRACT: note_off channel=1 note=52 velocity=100 time=0
EXTRACT: note_off channel=1 note=45 velocity=100 time=0
EXTRACT: note_on channel=1 note=40 velocity=100 time=0
EXTRACT: note_on channel=1 note=47 velocity=100 time=0
EXTRACT: note_on channel=1 note=52 velocity=100 time=0
EXTRACT: note_on channel=1 note=56 velocity=100 time=0
EXTRACT: note_on channel=1 note=59 velocity=100 time=0
EXTRACT: note_on channel=1 note=64 velocity=100 time=0
EXTRACT: note_off channel=5 note=31 velocity=100 time=0
EXTRACT: note_on channel=5 note=28 velocity=100 time=0
EXTRACT: note_off channel=6 note=62 velocity=100 time=0
EXTRACT: note_on channel=6 note=62 velocity=100 time=0
EXTRACT: note_on channel=9 note=35 velocity=127 time=0
EXTRACT: note_on channel=9 note=36 velocity=127 time=0
EXTRACT: note_on channel=9 note=54 velocity=127 time=0
EXTRACT: note_on channel=9 note=51 velocity=127 time=0
EXTRACT: note_off channel=9 note=51 velocity=127 time=0.029761666666666662
EXTRACT: note_off channel=9 note=54 velocity=127 time=0
EXTRACT: note_off channel=9 note=36 velocity=127 time=0
EXTRACT: note_off channel=9 note=35 velocity=127 time=0.059523333333333324
EXTRACT: note_on channel=9 note=38 velocity=127 time=0.08928499999999999
EXTRACT: note_on channel=9 note=54 velocity=127 time=0
EXTRACT: note_off channel=9 note=54 velocity=127 time=0.029761666666666662
EXTRACT: note_off channel=9 note=38 velocity=127 time=0
EXTRACT: note_on channel=6 note=64 velocity=100 time=0.12462697916666665
EXTRACT: note_off channel=5 note=28 velocity=100 time=0.024181354166666662
EXTRACT: note_on channel=5 note=28 velocity=100 time=0
EXTRACT: note_off channel=6 note=62 velocity=100 time=0
EXTRACT: note_on channel=9 note=35 velocity=127 time=0
EXTRACT: note_on channel=9 note=36 velocity=127 time=0
EXTRACT: note_on channel=9 note=54 velocity=127 time=0
EXTRACT: note_on channel=9 note=51 velocity=127 time=0
EXTRACT: note_off channel=9 note=51 velocity=127 time=0.029761666666666662
EXTRACT: note_off channel=9 note=54 velocity=127 time=0
EXTRACT: note_off channel=9 note=36 velocity=127 time=0
EXTRACT: note_off channel=9 note=35 velocity=127 time=0.059523333333333324
EXTRACT: note_on channel=9 note=54 velocity=127 time=0.08928499999999999
EXTRACT: note_off channel=9 note=54 velocity=127 time=0.029761666666666662
EXTRACT: note_on channel=6 note=62 velocity=100 time=0.022321249999999997
EXTRACT: note_on channel=6 note=60 velocity=100 time=0.08370468749999999
EXTRACT: note_off channel=6 note=62 velocity=100 time=0.005580312499999999
EXTRACT: note_off channel=6 note=64 velocity=100 time=0.013020729166666665
EXTRACT: note_off channel=1 note=64 velocity=100 time=0.024181354166666662
EXTRACT: note_off channel=1 note=59 velocity=100 time=0
EXTRACT: note_off channel=1 note=56 velocity=100 time=0
EXTRACT: note_off channel=1 note=52 velocity=100 time=0
EXTRACT: note_off channel=1 note=47 velocity=100 time=0
EXTRACT: note_off channel=1 note=40 velocity=100 time=0
EXTRACT: note_on channel=1 note=56 velocity=100 time=0
EXTRACT: note_on channel=1 note=40 velocity=100 time=0
EXTRACT: note_on channel=1 note=47 velocity=100 time=0
EXTRACT: note_on channel=1 note=52 velocity=100 time=0
EXTRACT: note_on channel=1 note=59 velocity=100 time=0
EXTRACT: note_on channel=1 note=64 velocity=100 time=0
EXTRACT: note_off channel=5 note=28 velocity=100 time=0
EXTRACT: note_on channel=5 note=28 velocity=100 time=0
EXTRACT: note_on channel=9 note=38 velocity=127 time=0
EXTRACT: note_on channel=9 note=54 velocity=127 time=0
EXTRACT: note_on channel=9 note=51 velocity=127 time=0
EXTRACT: note_off channel=9 note=51 velocity=127 time=0.029761666666666662
EXTRACT: note_off channel=9 note=54 velocity=127 time=0
EXTRACT: note_off channel=9 note=38 velocity=127 time=0
EXTRACT: note_on channel=9 note=54 velocity=127 time=0.14880833333333332
EXTRACT: note_off channel=9 note=54 velocity=127 time=0.029761666666666662
EXTRACT: note_off channel=6 note=60 velocity=100 time=0.10602593749999999
EXTRACT: note_off channel=1 note=64 velocity=100 time=0.04278239583333333
EXTRACT: note_off channel=1 note=59 velocity=100 time=0
EXTRACT: note_off channel=1 note=52 velocity=100 time=0
EXTRACT: note_off channel=1 note=47 velocity=100 time=0
EXTRACT: note_off channel=1 note=40 velocity=100 time=0
EXTRACT: note_off channel=1 note=56 velocity=100 time=0
EXTRACT: note_on channel=1 note=56 velocity=100 time=0
EXTRACT: note_on channel=1 note=40 velocity=100 time=0
EXTRACT: note_on channel=1 note=47 velocity=100 time=0
EXTRACT: note_on channel=1 note=52 velocity=100 time=0
EXTRACT: note_on channel=1 note=59 velocity=100 time=0
EXTRACT: note_on channel=1 note=64 velocity=100 time=0
EXTRACT: note_off channel=5 note=28 velocity=100 time=0
EXTRACT: note_on channel=5 note=28 velocity=100 time=0
EXTRACT: note_on channel=6 note=60 velocity=100 time=0
EXTRACT: note_on channel=9 note=54 velocity=127 time=0
EXTRACT: note_on channel=9 note=51 velocity=127 time=0
EXTRACT: note_off channel=9 note=51 velocity=127 time=0.029761666666666662
EXTRACT: note_off channel=9 note=54 velocity=127 time=0
EXTRACT: note_off channel=5 note=28 velocity=100 time=0.14880833333333332
EXTRACT: note_on channel=5 note=28 velocity=100 time=0
EXTRACT: note_on channel=9 note=38 velocity=127 time=0
EXTRACT: note_on channel=9 note=54 velocity=127 time=0
EXTRACT: note_off channel=9 note=54 velocity=127 time=0.029761666666666662
EXTRACT: note_off channel=9 note=38 velocity=127 time=0
EXTRACT: note_on channel=9 note=38 velocity=127 time=0.029761666666666662
EXTRACT: note_off channel=9 note=38 velocity=127 time=0.029761666666666662
EXTRACT: note_off channel=1 note=64 velocity=100 time=0.08928499999999999
EXTRACT: note_off channel=1 note=59 velocity=100 time=0
EXTRACT: note_off channel=1 note=52 velocity=100 time=0
EXTRACT: note_off channel=1 note=47 velocity=100 time=0
EXTRACT: note_off channel=1 note=40 velocity=100 time=0
EXTRACT: note_off channel=1 note=56 velocity=100 time=0
EXTRACT: note_on channel=1 note=41 velocity=100 time=0
EXTRACT: note_on channel=1 note=48 velocity=100 time=0
EXTRACT: note_on channel=1 note=53 velocity=100 time=0
EXTRACT: note_on channel=1 note=57 velocity=100 time=0
EXTRACT: note_on channel=1 note=60 velocity=100 time=0
EXTRACT: note_off channel=5 note=28 velocity=100 time=0
EXTRACT: note_on channel=5 note=29 velocity=100 time=0
EXTRACT: note_on channel=9 note=35 velocity=127 time=0
EXTRACT: note_on channel=9 note=36 velocity=127 time=0
EXTRACT: note_on channel=9 note=54 velocity=127 time=0
EXTRACT: note_on channel=9 note=51 velocity=127 time=0
EXTRACT: note_off channel=9 note=51 velocity=127 time=0.029761666666666662
EXTRACT: note_off channel=9 note=54 velocity=127 time=0
EXTRACT: note_off channel=9 note=36 velocity=127 time=0
EXTRACT: note_off channel=9 note=35 velocity=127 time=0.059523333333333324
EXTRACT: note_on channel=9 note=54 velocity=127 time=0.08928499999999999
EXTRACT: note_off channel=9 note=54 velocity=127 time=0.029761666666666662
EXTRACT: note_off channel=5 note=29 velocity=100 time=0.14880833333333332
EXTRACT: note_on channel=5 note=29 velocity=100 time=0
EXTRACT: note_off channel=6 note=60 velocity=100 time=0
EXTRACT: note_on channel=6 note=62 velocity=100 time=0
EXTRACT: note_on channel=9 note=54 velocity=127 time=0
EXTRACT: note_on channel=9 note=51 velocity=127 time=0
EXTRACT: note_off channel=9 note=51 velocity=127 time=0.029761666666666662
EXTRACT: note_off channel=9 note=54 velocity=127 time=0
EXTRACT: note_on channel=9 note=54 velocity=127 time=0.14880833333333332
EXTRACT: note_off channel=9 note=54 velocity=127 time=0.029761666666666662
EXTRACT: note_on channel=6 note=64 velocity=100 time=0.10602593749999999
EXTRACT: note_off channel=1 note=60 velocity=100 time=0.04278239583333333
EXTRACT: note_off channel=1 note=57 velocity=100 time=0
EXTRACT: note_off channel=1 note=53 velocity=100 time=0
EXTRACT: note_off channel=1 note=48 velocity=100 time=0
EXTRACT: note_off channel=1 note=41 velocity=100 time=0
EXTRACT: note_on channel=1 note=41 velocity=100 time=0
EXTRACT: note_on channel=1 note=48 velocity=100 time=0
EXTRACT: note_on channel=1 note=53 velocity=100 time=0
EXTRACT: note_on channel=1 note=57 velocity=100 time=0
EXTRACT: note_on channel=1 note=60 velocity=100 time=0
EXTRACT: note_off channel=5 note=29 velocity=100 time=0
EXTRACT: note_on channel=5 note=29 velocity=100 time=0
EXTRACT: note_off channel=6 note=62 velocity=100 time=0
EXTRACT: note_on channel=9 note=38 velocity=127 time=0
EXTRACT: note_on channel=9 note=54 velocity=127 time=0
EXTRACT: note_on channel=9 note=51 velocity=127 time=0
EXTRACT: note_off channel=9 note=51 velocity=127 time=0.029761666666666662
EXTRACT: note_off channel=9 note=54 velocity=127 time=0
EXTRACT: note_off channel=9 note=38 velocity=127 time=0
EXTRACT: note_on channel=9 note=54 velocity=127 time=0.14880833333333332
EXTRACT: note_off channel=9 note=54 velocity=127 time=0.029761666666666662
EXTRACT: note_off channel=6 note=64 velocity=100 time=0.10602593749999999
EXTRACT: note_off channel=1 note=60 velocity=100 time=0.04278239583333333
EXTRACT: note_off channel=1 note=57 velocity=100 time=0
EXTRACT: note_off channel=1 note=53 velocity=100 time=0
EXTRACT: note_off channel=1 note=48 velocity=100 time=0
EXTRACT: note_off channel=1 note=41 velocity=100 time=0
EXTRACT: note_on channel=1 note=41 velocity=100 time=0
EXTRACT: note_on channel=1 note=48 velocity=100 time=0
EXTRACT: note_on channel=1 note=53 velocity=100 time=0
EXTRACT: note_on channel=1 note=57 velocity=100 time=0
EXTRACT: note_on channel=1 note=60 velocity=100 time=0
EXTRACT: note_off channel=5 note=29 velocity=100 time=0
EXTRACT: note_on channel=5 note=30 velocity=100 time=0
EXTRACT: note_on channel=9 note=54 velocity=127 time=0
EXTRACT: note_on channel=9 note=51 velocity=127 time=0
EXTRACT: note_on channel=6 note=62 velocity=100 time=0.022321249999999997
EXTRACT: note_off channel=9 note=51 velocity=127 time=0.0074404166666666655
EXTRACT: note_off channel=9 note=54 velocity=127 time=0
EXTRACT: note_on channel=9 note=38 velocity=127 time=0.14880833333333332
EXTRACT: note_on channel=9 note=54 velocity=127 time=0
EXTRACT: note_off channel=9 note=54 velocity=127 time=0.029761666666666662
EXTRACT: note_off channel=9 note=38 velocity=127 time=0
EXTRACT: note_off channel=1 note=60 velocity=100 time=0.14880833333333332
EXTRACT: note_off channel=1 note=57 velocity=100 time=0
EXTRACT: note_off channel=1 note=53 velocity=100 time=0
EXTRACT: note_off channel=1 note=48 velocity=100 time=0
EXTRACT: note_off channel=1 note=41 velocity=100 time=0
EXTRACT: note_on channel=1 note=43 velocity=100 time=0
EXTRACT: note_on channel=1 note=50 velocity=100 time=0
EXTRACT: note_on channel=1 note=55 velocity=100 time=0
EXTRACT: note_on channel=1 note=59 velocity=100 time=0
EXTRACT: note_on channel=1 note=62 velocity=100 time=0
EXTRACT: note_off channel=5 note=30 velocity=100 time=0
EXTRACT: note_on channel=5 note=31 velocity=100 time=0
EXTRACT: note_on channel=9 note=35 velocity=127 time=0
EXTRACT: note_on channel=9 note=36 velocity=127 time=0
EXTRACT: note_on channel=9 note=54 velocity=127 time=0
EXTRACT: note_on channel=9 note=51 velocity=127 time=0
EXTRACT: note_off channel=9 note=51 velocity=127 time=0.029761666666666662
EXTRACT: note_off channel=9 note=54 velocity=127 time=0
EXTRACT: note_off channel=9 note=36 velocity=127 time=0
EXTRACT: note_off channel=9 note=35 velocity=127 time=0.059523333333333324
EXTRACT: note_on channel=9 note=38 velocity=127 time=0.08928499999999999
EXTRACT: note_on channel=9 note=54 velocity=127 time=0
EXTRACT: note_off channel=9 note=54 velocity=127 time=0.029761666666666662
EXTRACT: note_off channel=9 note=38 velocity=127 time=0
EXTRACT: note_on channel=6 note=60 velocity=100 time=0.10602593749999999
EXTRACT: note_off channel=1 note=62 velocity=100 time=0.04278239583333333
EXTRACT: note_off channel=1 note=59 velocity=100 time=0
EXTRACT: note_off channel=1 note=55 velocity=100 time=0
EXTRACT: note_off channel=1 note=50 velocity=100 time=0
EXTRACT: note_off channel=1 note=43 velocity=100 time=0
EXTRACT: note_on channel=1 note=43 velocity=100 time=0
EXTRACT: note_on channel=1 note=50 velocity=100 time=0
EXTRACT: note_on channel=1 note=55 velocity=100 time=0
EXTRACT: note_on channel=1 note=59 velocity=100 time=0
EXTRACT: note_on channel=1 note=62 velocity=100 time=0
EXTRACT: note_off channel=5 note=31 velocity=100 time=0
EXTRACT: note_on channel=5 note=31 velocity=100 time=0
EXTRACT: note_on channel=9 note=35 velocity=127 time=0
EXTRACT: note_on channel=9 note=36 velocity=127 time=0
EXTRACT: note_on channel=9 note=54 velocity=127 time=0
EXTRACT: note_on channel=9 note=51 velocity=127 time=0
EXTRACT: note_off channel=6 note=62 velocity=100 time=0.022321249999999997
EXTRACT: note_off channel=9 note=51 velocity=127 time=0.0074404166666666655
EXTRACT: note_off channel=9 note=54 velocity=127 time=0
EXTRACT: note_off channel=9 note=36 velocity=127 time=0
EXTRACT: note_off channel=9 note=35 velocity=127 time=0.059523333333333324
EXTRACT: note_off channel=6 note=60 velocity=100 time=0.04650260416666666
EXTRACT: note_on channel=6 note=64 velocity=100 time=0.018601041666666665
EXTRACT: note_on channel=9 note=54 velocity=127 time=0.024181354166666662
EXTRACT: note_off channel=9 note=54 velocity=127 time=0.029761666666666662
EXTRACT: note_off channel=1 note=62 velocity=100 time=0.14880833333333332
EXTRACT: note_off channel=1 note=59 velocity=100 time=0
EXTRACT: note_off channel=1 note=55 velocity=100 time=0
EXTRACT: note_off channel=1 note=50 velocity=100 time=0
EXTRACT: note_off channel=1 note=43 velocity=100 time=0
EXTRACT: note_on channel=1 note=43 velocity=100 time=0
EXTRACT: note_on channel=1 note=50 velocity=100 time=0
EXTRACT: note_on channel=1 note=55 velocity=100 time=0
EXTRACT: note_on channel=1 note=59 velocity=100 time=0
EXTRACT: note_on channel=1 note=62 velocity=100 time=0
EXTRACT: note_off channel=5 note=31 velocity=100 time=0
EXTRACT: note_on channel=5 note=31 velocity=100 time=0
EXTRACT: note_on channel=9 note=38 velocity=127 time=0
EXTRACT: note_on channel=9 note=54 velocity=127 time=0
EXTRACT: note_on channel=9 note=51 velocity=127 time=0
EXTRACT: note_off channel=9 note=51 velocity=127 time=0.029761666666666662
EXTRACT: note_off channel=9 note=54 velocity=127 time=0
EXTRACT: note_off channel=9 note=38 velocity=127 time=0
EXTRACT: note_on channel=9 note=54 velocity=127 time=0.14880833333333332
EXTRACT: note_off channel=9 note=54 velocity=127 time=0.029761666666666662
EXTRACT: note_off channel=6 note=64 velocity=100 time=0.12462697916666665
EXTRACT: note_off channel=1 note=62 velocity=100 time=0.024181354166666662
EXTRACT: note_off channel=1 note=59 velocity=100 time=0
EXTRACT: note_off channel=1 note=55 velocity=100 time=0
EXTRACT: note_off channel=1 note=50 velocity=100 time=0
EXTRACT: note_off channel=1 note=43 velocity=100 time=0
EXTRACT: note_on channel=1 note=43 velocity=100 time=0
EXTRACT: note_on channel=1 note=50 velocity=100 time=0
EXTRACT: note_on channel=1 note=55 velocity=100 time=0
EXTRACT: note_on channel=1 note=59 velocity=100 time=0
EXTRACT: note_on channel=1 note=62 velocity=100 time=0
EXTRACT: note_off channel=5 note=31 velocity=100 time=0
EXTRACT: note_on channel=5 note=35 velocity=100 time=0
EXTRACT: note_on channel=6 note=60 velocity=100 time=0
EXTRACT: note_on channel=9 note=54 velocity=127 time=0
EXTRACT: note_on channel=9 note=51 velocity=127 time=0
EXTRACT: note_off channel=9 note=51 velocity=127 time=0.029761666666666662
EXTRACT: note_off channel=9 note=54 velocity=127 time=0
EXTRACT: note_on channel=9 note=38 velocity=127 time=0.14880833333333332
EXTRACT: note_on channel=9 note=54 velocity=127 time=0
EXTRACT: note_off channel=9 note=54 velocity=127 time=0.029761666666666662
EXTRACT: note_off channel=9 note=38 velocity=127 time=0
EXTRACT: note_off channel=1 note=62 velocity=100 time=0.14880833333333332
EXTRACT: note_off channel=1 note=59 velocity=100 time=0
EXTRACT: note_off channel=1 note=55 velocity=100 time=0
EXTRACT: note_off channel=1 note=50 velocity=100 time=0
EXTRACT: note_off channel=1 note=43 velocity=100 time=0
EXTRACT: note_on channel=1 note=48 velocity=100 time=0
EXTRACT: note_on channel=1 note=52 velocity=100 time=0
EXTRACT: note_on channel=1 note=55 velocity=100 time=0
EXTRACT: note_on channel=1 note=60 velocity=100 time=0
EXTRACT: note_on channel=1 note=64 velocity=100 time=0
EXTRACT: note_off channel=5 note=35 velocity=100 time=0
EXTRACT: note_on channel=5 note=36 velocity=100 time=0
EXTRACT: note_on channel=9 note=35 velocity=127 time=0
EXTRACT: note_on channel=9 note=36 velocity=127 time=0
EXTRACT: note_on channel=9 note=54 velocity=127 time=0
EXTRACT: note_on channel=9 note=51 velocity=127 time=0
EXTRACT: note_off channel=9 note=51 velocity=127 time=0.029761666666666662
EXTRACT: note_off channel=9 note=54 velocity=127 time=0
EXTRACT: note_off channel=9 note=36 velocity=127 time=0
EXTRACT: note_off channel=9 note=35 velocity=127 time=0.059523333333333324
EXTRACT: note_off channel=6 note=60 velocity=100 time=0.08928499999999999
EXTRACT: note_on channel=9 note=38 velocity=127 time=0
EXTRACT: note_on channel=9 note=54 velocity=127 time=0
EXTRACT: note_on channel=6 note=57 velocity=100 time=0.022321249999999997
EXTRACT: note_off channel=9 note=54 velocity=127 time=0.0074404166666666655
EXTRACT: note_off channel=9 note=38 velocity=127 time=0
EXTRACT: note_on channel=9 note=35 velocity=127 time=0.14880833333333332
EXTRACT: note_on channel=9 note=36 velocity=127 time=0
EXTRACT: note_on channel=9 note=54 velocity=127 time=0
EXTRACT: note_on channel=9 note=51 velocity=127 time=0
EXTRACT: note_on channel=6 note=55 velocity=100 time=0.011160624999999999
EXTRACT: note_off channel=6 note=57 velocity=100 time=0.011160624999999999
EXTRACT: note_off channel=9 note=51 velocity=127 time=0.0074404166666666655
EXTRACT: note_off channel=9 note=54 velocity=127 time=0
EXTRACT: note_off channel=9 note=36 velocity=127 time=0
EXTRACT: note_off channel=9 note=35 velocity=127 time=0.059523333333333324
EXTRACT: note_on channel=9 note=54 velocity=127 time=0.08928499999999999
EXTRACT: note_off channel=9 note=54 velocity=127 time=0.029761666666666662
EXTRACT: note_off channel=1 note=64 velocity=100 time=0.14880833333333332
EXTRACT: note_off channel=1 note=60 velocity=100 time=0
EXTRACT: note_off channel=1 note=55 velocity=100 time=0
EXTRACT: note_off channel=1 note=52 velocity=100 time=0
EXTRACT: note_off channel=1 note=48 velocity=100 time=0
EXTRACT: note_on channel=1 note=48 velocity=100 time=0
EXTRACT: note_on channel=1 note=52 velocity=100 time=0
EXTRACT: note_on channel=1 note=55 velocity=100 time=0
EXTRACT: note_on channel=1 note=60 velocity=100 time=0
EXTRACT: note_on channel=1 note=64 velocity=100 time=0
EXTRACT: note_off channel=5 note=36 velocity=100 time=0
EXTRACT: note_on channel=5 note=36 velocity=100 time=0
EXTRACT: note_on channel=9 note=38 velocity=127 time=0
EXTRACT: note_on channel=9 note=54 velocity=127 time=0
EXTRACT: note_on channel=9 note=51 velocity=127 time=0
EXTRACT: note_off channel=6 note=55 velocity=100 time=0.011160624999999999
EXTRACT: note_off channel=9 note=51 velocity=127 time=0.018601041666666665
EXTRACT: note_off channel=9 note=54 velocity=127 time=0
EXTRACT: note_off channel=9 note=38 velocity=127 time=0
EXTRACT: note_on channel=9 note=54 velocity=127 time=0.14880833333333332
EXTRACT: note_off channel=9 note=54 velocity=127 time=0.029761666666666662
EXTRACT: note_off channel=1 note=64 velocity=100 time=0.14880833333333332
EXTRACT: note_off channel=1 note=60 velocity=100 time=0
EXTRACT: note_off channel=1 note=55 velocity=100 time=0
EXTRACT: note_off channel=1 note=52 velocity=100 time=0
EXTRACT: note_off channel=1 note=48 velocity=100 time=0
EXTRACT: note_on channel=1 note=48 velocity=100 time=0
EXTRACT: note_on channel=1 note=52 velocity=100 time=0
EXTRACT: note_on channel=1 note=55 velocity=100 time=0
EXTRACT: note_on channel=1 note=60 velocity=100 time=0
EXTRACT: note_on channel=1 note=64 velocity=100 time=0
EXTRACT: note_off channel=5 note=36 velocity=100 time=0
EXTRACT: note_on channel=5 note=36 velocity=100 time=0
EXTRACT: note_on channel=9 note=54 velocity=127 time=0
EXTRACT: note_on channel=9 note=51 velocity=127 time=0
EXTRACT: note_off channel=9 note=51 velocity=127 time=0.029761666666666662
EXTRACT: note_off channel=9 note=54 velocity=127 time=0
EXTRACT: note_on channel=9 note=38 velocity=127 time=0.14880833333333332
EXTRACT: note_on channel=9 note=54 velocity=127 time=0
EXTRACT: note_off channel=9 note=54 velocity=127 time=0.029761666666666662
EXTRACT: note_off channel=9 note=38 velocity=127 time=0
EXTRACT: note_off channel=1 note=64 velocity=100 time=0.14880833333333332
EXTRACT: note_off channel=1 note=60 velocity=100 time=0
EXTRACT: note_off channel=1 note=55 velocity=100 time=0
EXTRACT: note_off channel=1 note=52 velocity=100 time=0
EXTRACT: note_off channel=1 note=48 velocity=100 time=0
EXTRACT: note_on channel=1 note=45 velocity=100 time=0
EXTRACT: note_on channel=1 note=52 velocity=100 time=0
EXTRACT: note_on channel=1 note=57 velocity=100 time=0
EXTRACT: note_on channel=1 note=60 velocity=100 time=0
EXTRACT: note_on channel=1 note=64 velocity=100 time=0
EXTRACT: note_off channel=5 note=36 velocity=100 time=0
EXTRACT: note_on channel=5 note=33 velocity=100 time=0
EXTRACT: note_on channel=9 note=35 velocity=127 time=0
EXTRACT: note_on channel=9 note=36 velocity=127 time=0
EXTRACT: note_on channel=9 note=54 velocity=127 time=0
EXTRACT: note_on channel=9 note=51 velocity=127 time=0
EXTRACT: note_off channel=9 note=51 velocity=127 time=0.029761666666666662
EXTRACT: note_off channel=9 note=54 velocity=127 time=0
EXTRACT: note_off channel=9 note=36 velocity=127 time=0
EXTRACT: note_off channel=9 note=35 velocity=127 time=0.059523333333333324
EXTRACT: note_on channel=9 note=38 velocity=127 time=0.08928499999999999
EXTRACT: note_on channel=9 note=54 velocity=127 time=0
EXTRACT: note_off channel=9 note=54 velocity=127 time=0.029761666666666662
EXTRACT: note_off channel=9 note=38 velocity=127 time=0
EXTRACT: note_off channel=1 note=64 velocity=100 time=0.14880833333333332
EXTRACT: note_off channel=1 note=60 velocity=100 time=0
EXTRACT: note_off channel=1 note=57 velocity=100 time=0
EXTRACT: note_off channel=1 note=52 velocity=100 time=0
EXTRACT: note_off channel=1 note=45 velocity=100 time=0
EXTRACT: note_on channel=1 note=45 velocity=100 time=0
EXTRACT: note_on channel=1 note=52 velocity=100 time=0
EXTRACT: note_on channel=1 note=57 velocity=100 time=0
EXTRACT: note_on channel=1 note=60 velocity=100 time=0
EXTRACT: note_on channel=1 note=64 velocity=100 time=0
EXTRACT: note_off channel=5 note=33 velocity=100 time=0
EXTRACT: note_on channel=5 note=33 velocity=100 time=0
EXTRACT: note_on channel=9 note=38 velocity=127 time=0
EXTRACT: note_on channel=9 note=54 velocity=127 time=0
EXTRACT: note_off channel=9 note=54 velocity=127 time=0.029761666666666662
EXTRACT: note_off channel=9 note=38 velocity=127 time=0
EXTRACT: note_off channel=1 note=64 velocity=100 time=0.14880833333333332
EXTRACT: note_off channel=1 note=60 velocity=100 time=0
EXTRACT: note_off channel=1 note=57 velocity=100 time=0
EXTRACT: note_off channel=1 note=52 velocity=100 time=0
EXTRACT: note_off channel=1 note=45 velocity=100 time=0
EXTRACT: note_on channel=1 note=45 velocity=100 time=0
EXTRACT: note_on channel=1 note=52 velocity=100 time=0
EXTRACT: note_on channel=1 note=57 velocity=100 time=0
EXTRACT: note_on channel=1 note=60 velocity=100 time=0
EXTRACT: note_on channel=1 note=64 velocity=100 time=0
EXTRACT: note_on channel=9 note=45 velocity=127 time=0
EXTRACT: note_on channel=9 note=54 velocity=127 time=0
EXTRACT: note_off channel=9 note=54 velocity=127 time=0.029761666666666662
EXTRACT: note_off channel=9 note=45 velocity=127 time=0
EXTRACT: note_off channel=1 note=64 velocity=100 time=0.14880833333333332
EXTRACT: note_off channel=1 note=60 velocity=100 time=0
EXTRACT: note_off channel=1 note=57 velocity=100 time=0
EXTRACT: note_off channel=1 note=52 velocity=100 time=0
EXTRACT: note_off channel=1 note=45 velocity=100 time=0
EXTRACT: note_on channel=1 note=43 velocity=100 time=0
EXTRACT: note_on channel=1 note=50 velocity=100 time=0
EXTRACT: note_on channel=1 note=55 velocity=100 time=0
EXTRACT: note_on channel=1 note=59 velocity=100 time=0
EXTRACT: note_on channel=1 note=67 velocity=100 time=0
EXTRACT: note_off channel=5 note=33 velocity=100 time=0
EXTRACT: note_on channel=5 note=31 velocity=100 time=0
EXTRACT: note_on channel=9 note=43 velocity=127 time=0
EXTRACT: note_on channel=9 note=54 velocity=127 time=0
EXTRACT: note_off channel=9 note=54 velocity=127 time=0.029761666666666662
EXTRACT: note_off channel=9 note=43 velocity=127 time=0
EXTRACT: note_on channel=9 note=43 velocity=127 time=0.14880833333333332
EXTRACT: note_on channel=9 note=54 velocity=127 time=0
EXTRACT: note_off channel=9 note=54 velocity=127 time=0.029761666666666662
EXTRACT: note_off channel=9 note=43 velocity=127 time=0
EXTRACT: note_off channel=1 note=67 velocity=100 time=0.14880833333333332
EXTRACT: note_off channel=1 note=59 velocity=100 time=0
EXTRACT: note_off channel=1 note=55 velocity=100 time=0
EXTRACT: note_off channel=1 note=50 velocity=100 time=0
EXTRACT: note_off channel=1 note=43 velocity=100 time=0
EXTRACT: note_on channel=1 note=43 velocity=100 time=0
EXTRACT: note_on channel=1 note=50 velocity=100 time=0
EXTRACT: note_on channel=1 note=55 velocity=100 time=0
EXTRACT: note_on channel=1 note=59 velocity=100 time=0
EXTRACT: note_on channel=1 note=67 velocity=100 time=0
EXTRACT: note_off channel=5 note=31 velocity=100 time=0
EXTRACT: note_on channel=5 note=35 velocity=100 time=0
EXTRACT: note_on channel=9 note=43 velocity=127 time=0
EXTRACT: note_on channel=9 note=54 velocity=127 time=0
EXTRACT: note_on channel=6 note=55 velocity=100 time=0.011160624999999999
EXTRACT: note_off channel=9 note=54 velocity=127 time=0.018601041666666665
EXTRACT: note_off channel=9 note=43 velocity=127 time=0
EXTRACT: note_on channel=9 note=45 velocity=127 time=0.14880833333333332
EXTRACT: note_on channel=9 note=41 velocity=127 time=0
EXTRACT: note_on channel=9 note=54 velocity=127 time=0
EXTRACT: note_off channel=9 note=54 velocity=127 time=0.029761666666666662
EXTRACT: note_off channel=9 note=41 velocity=127 time=0
EXTRACT: note_off channel=9 note=45 velocity=127 time=0.059523333333333324
EXTRACT: note_off channel=1 note=67 velocity=100 time=0.08928499999999999
EXTRACT: note_off channel=1 note=59 velocity=100 time=0
EXTRACT: note_off channel=1 note=55 velocity=100 time=0
EXTRACT: note_off channel=1 note=50 velocity=100 time=0
EXTRACT: note_off channel=1 note=43 velocity=100 time=0
EXTRACT: note_on channel=1 note=48 velocity=100 time=0
EXTRACT: note_on channel=1 note=52 velocity=100 time=0
EXTRACT: note_on channel=1 note=55 velocity=100 time=0
EXTRACT: note_on channel=1 note=60 velocity=100 time=0
EXTRACT: note_on channel=1 note=64 velocity=100 time=0
EXTRACT: note_off channel=5 note=35 velocity=100 time=0
EXTRACT: note_on channel=5 note=36 velocity=100 time=0
EXTRACT: note_on channel=6 note=67 velocity=100 time=0
EXTRACT: note_on channel=9 note=35 velocity=127 time=0
EXTRACT: note_on channel=9 note=36 velocity=127 time=0
EXTRACT: note_on channel=9 note=54 velocity=127 time=0
EXTRACT: note_on channel=9 note=49 velocity=127 time=0
EXTRACT: note_off channel=6 note=55 velocity=100 time=0.011160624999999999
EXTRACT: note_off channel=9 note=49 velocity=127 time=0.018601041666666665
EXTRACT: note_off channel=9 note=54 velocity=127 time=0
EXTRACT: note_off channel=9 note=36 velocity=127 time=0
EXTRACT: note_off channel=9 note=35 velocity=127 time=0.059523333333333324
EXTRACT: note_on channel=9 note=54 velocity=127 time=0.08928499999999999
EXTRACT: note_off channel=9 note=54 velocity=127 time=0.029761666666666662
EXTRACT: note_on channel=9 note=54 velocity=127 time=0.14880833333333332
EXTRACT: note_on channel=9 note=51 velocity=127 time=0
EXTRACT: note_off channel=9 note=51 velocity=127 time=0.029761666666666662
EXTRACT: note_off channel=9 note=54 velocity=127 time=0
EXTRACT: note_on channel=9 note=54 velocity=127 time=0.14880833333333332
EXTRACT: note_off channel=9 note=54 velocity=127 time=0.029761666666666662
EXTRACT: note_on channel=5 note=36 velocity=100 time=0.10602593749999999
EXTRACT: note_off channel=1 note=64 velocity=100 time=0.04278239583333333
EXTRACT: note_off channel=1 note=60 velocity=100 time=0
EXTRACT: note_off channel=1 note=55 velocity=100 time=0
EXTRACT: note_off channel=1 note=52 velocity=100 time=0
EXTRACT: note_off channel=1 note=48 velocity=100 time=0
EXTRACT: note_on channel=1 note=48 velocity=100 time=0
EXTRACT: note_on channel=1 note=52 velocity=100 time=0
EXTRACT: note_on channel=1 note=55 velocity=100 time=0
EXTRACT: note_on channel=1 note=60 velocity=100 time=0
EXTRACT: note_on channel=1 note=64 velocity=100 time=0
EXTRACT: note_off channel=5 note=36 velocity=100 time=0
EXTRACT: note_on channel=9 note=38 velocity=127 time=0
EXTRACT: note_on channel=9 note=54 velocity=127 time=0
EXTRACT: note_on channel=9 note=51 velocity=127 time=0
EXTRACT: note_off channel=9 note=51 velocity=127 time=0.029761666666666662
EXTRACT: note_off channel=9 note=54 velocity=127 time=0
EXTRACT: note_off channel=9 note=38 velocity=127 time=0
EXTRACT: note_on channel=9 note=54 velocity=127 time=0.14880833333333332
EXTRACT: note_off channel=9 note=54 velocity=127 time=0.029761666666666662
EXTRACT: note_off channel=5 note=36 velocity=100 time=0.10602593749999999
EXTRACT: note_off channel=1 note=64 velocity=100 time=0.04278239583333333
EXTRACT: note_off channel=1 note=60 velocity=100 time=0
EXTRACT: note_off channel=1 note=55 velocity=100 time=0
EXTRACT: note_off channel=1 note=52 velocity=100 time=0
EXTRACT: note_off channel=1 note=48 velocity=100 time=0
EXTRACT: note_on channel=1 note=48 velocity=100 time=0
EXTRACT: note_on channel=1 note=52 velocity=100 time=0
EXTRACT: note_on channel=1 note=55 velocity=100 time=0
EXTRACT: note_on channel=1 note=60 velocity=100 time=0
EXTRACT: note_on channel=1 note=64 velocity=100 time=0
EXTRACT: note_on channel=9 note=54 velocity=127 time=0
EXTRACT: note_on channel=9 note=51 velocity=127 time=0
EXTRACT: note_on channel=5 note=35 velocity=100 time=0.022321249999999997
EXTRACT: note_off channel=9 note=51 velocity=127 time=0.0074404166666666655
EXTRACT: note_off channel=9 note=54 velocity=127 time=0
EXTRACT: note_on channel=9 note=38 velocity=127 time=0.14880833333333332
EXTRACT: note_on channel=9 note=54 velocity=127 time=0
EXTRACT: note_off channel=9 note=54 velocity=127 time=0.029761666666666662
EXTRACT: note_off channel=9 note=38 velocity=127 time=0
EXTRACT: note_on channel=6 note=65 velocity=100 time=0.13020729166666664
EXTRACT: note_off channel=1 note=64 velocity=100 time=0.018601041666666665
EXTRACT: note_off channel=1 note=60 velocity=100 time=0
EXTRACT: note_off channel=1 note=55 velocity=100 time=0
EXTRACT: note_off channel=1 note=52 velocity=100 time=0
EXTRACT: note_off channel=1 note=48 velocity=100 time=0
EXTRACT: note_on channel=1 note=43 velocity=100 time=0
EXTRACT: note_on channel=1 note=50 velocity=100 time=0
EXTRACT: note_on channel=1 note=55 velocity=100 time=0
EXTRACT: note_on channel=1 note=59 velocity=100 time=0
EXTRACT: note_on channel=1 note=67 velocity=100 time=0
EXTRACT: note_off channel=6 note=67 velocity=100 time=0
EXTRACT: note_on channel=9 note=35 velocity=127 time=0
EXTRACT: note_on channel=9 note=36 velocity=127 time=0
EXTRACT: note_on channel=9 note=54 velocity=127 time=0
EXTRACT: note_on channel=9 note=51 velocity=127 time=0
EXTRACT: note_off channel=5 note=35 velocity=100 time=0.022321249999999997
EXTRACT: note_on channel=5 note=31 velocity=100 time=0
EXTRACT: note_off channel=9 note=51 velocity=127 time=0.0074404166666666655
EXTRACT: note_off channel=9 note=54 velocity=127 time=0
EXTRACT: note_off channel=9 note=36 velocity=127 time=0
EXTRACT: note_off channel=9 note=35 velocity=127 time=0.059523333333333324
EXTRACT: note_on channel=9 note=38 velocity=127 time=0.08928499999999999
EXTRACT: note_on channel=9 note=54 velocity=127 time=0
EXTRACT: note_off channel=9 note=54 velocity=127 time=0.029761666666666662
EXTRACT: note_off channel=9 note=38 velocity=127 time=0
EXTRACT: note_on channel=5 note=31 velocity=100 time=0.14880833333333332
EXTRACT: note_on channel=9 note=35 velocity=127 time=0
EXTRACT: note_on channel=9 note=36 velocity=127 time=0
EXTRACT: note_on channel=9 note=54 velocity=127 time=0
EXTRACT: note_on channel=9 note=51 velocity=127 time=0
EXTRACT: note_off channel=5 note=31 velocity=100 time=0.022321249999999997
EXTRACT: note_off channel=9 note=51 velocity=127 time=0.0074404166666666655
EXTRACT: note_off channel=9 note=54 velocity=127 time=0
EXTRACT: note_off channel=9 note=36 velocity=127 time=0
EXTRACT: note_off channel=9 note=35 velocity=127 time=0.059523333333333324
EXTRACT: note_on channel=9 note=54 velocity=127 time=0.08928499999999999
EXTRACT: note_off channel=9 note=54 velocity=127 time=0.029761666666666662
EXTRACT: note_on channel=6 note=67 velocity=100 time=0.10602593749999999
EXTRACT: note_off channel=6 note=65 velocity=100 time=0.024181354166666662
EXTRACT: note_off channel=1 note=67 velocity=100 time=0.018601041666666665
EXTRACT: note_off channel=1 note=59 velocity=100 time=0
EXTRACT: note_off channel=1 note=55 velocity=100 time=0
EXTRACT: note_off channel=1 note=50 velocity=100 time=0
EXTRACT: note_off channel=1 note=43 velocity=100 time=0
EXTRACT: note_on channel=1 note=43 velocity=100 time=0
EXTRACT: note_on channel=1 note=50 velocity=100 time=0
EXTRACT: note_on channel=1 note=55 velocity=100 time=0
EXTRACT: note_on channel=1 note=59 velocity=100 time=0
EXTRACT: note_on channel=1 note=67 velocity=100 time=0
EXTRACT: note_off channel=5 note=31 velocity=100 time=0
EXTRACT: note_on channel=5 note=31 velocity=100 time=0
EXTRACT: note_on channel=9 note=38 velocity=127 time=0
EXTRACT: note_on channel=9 note=54 velocity=127 time=0
EXTRACT: note_on channel=9 note=51 velocity=127 time=0
EXTRACT: note_off channel=9 note=51 velocity=127 time=0.029761666666666662
EXTRACT: note_off channel=9 note=54 velocity=127 time=0
EXTRACT: note_off channel=9 note=38 velocity=127 time=0
EXTRACT: note_on channel=9 note=54 velocity=127 time=0.14880833333333332
EXTRACT: note_off channel=9 note=54 velocity=127 time=0.029761666666666662
EXTRACT: note_off channel=6 note=67 velocity=100 time=0.10602593749999999
EXTRACT: note_off channel=1 note=67 velocity=100 time=0.04278239583333333
EXTRACT: note_off channel=1 note=59 velocity=100 time=0
EXTRACT: note_off channel=1 note=55 velocity=100 time=0
EXTRACT: note_off channel=1 note=50 velocity=100 time=0
EXTRACT: note_off channel=1 note=43 velocity=100 time=0
EXTRACT: note_on channel=1 note=43 velocity=100 time=0
EXTRACT: note_on channel=1 note=50 velocity=100 time=0
EXTRACT: note_on channel=1 note=55 velocity=100 time=0
EXTRACT: note_on channel=1 note=59 velocity=100 time=0
EXTRACT: note_on channel=1 note=67 velocity=100 time=0
EXTRACT: note_off channel=5 note=31 velocity=100 time=0
EXTRACT: note_on channel=5 note=31 velocity=100 time=0
EXTRACT: note_on channel=6 note=64 velocity=100 time=0
EXTRACT: note_on channel=9 note=54 velocity=127 time=0
EXTRACT: note_on channel=9 note=51 velocity=127 time=0
EXTRACT: note_off channel=9 note=51 velocity=127 time=0.029761666666666662
EXTRACT: note_off channel=9 note=54 velocity=127 time=0
EXTRACT: note_off channel=5 note=31 velocity=100 time=0.14880833333333332
EXTRACT: note_on channel=5 note=32 velocity=100 time=0
EXTRACT: note_on channel=9 note=38 velocity=127 time=0
EXTRACT: note_on channel=9 note=54 velocity=127 time=0
EXTRACT: note_off channel=9 note=54 velocity=127 time=0.029761666666666662
EXTRACT: note_off channel=9 note=38 velocity=127 time=0
EXTRACT: note_on channel=9 note=38 velocity=127 time=0.029761666666666662
EXTRACT: note_off channel=9 note=38 velocity=127 time=0.029761666666666662
EXTRACT: note_off channel=1 note=67 velocity=100 time=0.08928499999999999
EXTRACT: note_off channel=1 note=59 velocity=100 time=0
EXTRACT: note_off channel=1 note=55 velocity=100 time=0
EXTRACT: note_off channel=1 note=50 velocity=100 time=0
EXTRACT: note_off channel=1 note=43 velocity=100 time=0
EXTRACT: note_on channel=1 note=45 velocity=100 time=0
EXTRACT: note_on channel=1 note=52 velocity=100 time=0
EXTRACT: note_on channel=1 note=57 velocity=100 time=0
EXTRACT: note_on channel=1 note=60 velocity=100 time=0
EXTRACT: note_on channel=1 note=64 velocity=100 time=0
EXTRACT: note_off channel=5 note=32 velocity=100 time=0
EXTRACT: note_on channel=5 note=33 velocity=100 time=0
EXTRACT: note_on channel=9 note=35 velocity=127 time=0
EXTRACT: note_on channel=9 note=36 velocity=127 time=0
EXTRACT: note_on channel=9 note=54 velocity=127 time=0
EXTRACT: note_on channel=9 note=51 velocity=127 time=0
EXTRACT: note_off channel=9 note=51 velocity=127 time=0.029761666666666662
EXTRACT: note_off channel=9 note=54 velocity=127 time=0
EXTRACT: note_off channel=9 note=36 velocity=127 time=0
EXTRACT: note_off channel=9 note=35 velocity=127 time=0.059523333333333324
EXTRACT: note_on channel=9 note=54 velocity=127 time=0.08928499999999999
EXTRACT: note_off channel=9 note=54 velocity=127 time=0.029761666666666662
EXTRACT: note_on channel=9 note=54 velocity=127 time=0.14880833333333332
EXTRACT: note_on channel=9 note=51 velocity=127 time=0
EXTRACT: note_off channel=9 note=51 velocity=127 time=0.029761666666666662
EXTRACT: note_off channel=9 note=54 velocity=127 time=0
EXTRACT: note_on channel=9 note=54 velocity=127 time=0.14880833333333332
EXTRACT: note_off channel=9 note=54 velocity=127 time=0.029761666666666662
EXTRACT: note_off channel=1 note=64 velocity=100 time=0.14880833333333332
EXTRACT: note_off channel=1 note=60 velocity=100 time=0
EXTRACT: note_off channel=1 note=57 velocity=100 time=0
EXTRACT: note_off channel=1 note=52 velocity=100 time=0
EXTRACT: note_off channel=1 note=45 velocity=100 time=0
EXTRACT: note_on channel=1 note=45 velocity=100 time=0
EXTRACT: note_on channel=1 note=52 velocity=100 time=0
EXTRACT: note_on channel=1 note=57 velocity=100 time=0
EXTRACT: note_on channel=1 note=60 velocity=100 time=0
EXTRACT: note_on channel=1 note=64 velocity=100 time=0
EXTRACT: note_off channel=5 note=33 velocity=100 time=0
EXTRACT: note_on channel=5 note=33 velocity=100 time=0
EXTRACT: note_on channel=9 note=38 velocity=127 time=0
EXTRACT: note_on channel=9 note=54 velocity=127 time=0
EXTRACT: note_on channel=9 note=51 velocity=127 time=0
EXTRACT: note_off channel=9 note=51 velocity=127 time=0.029761666666666662
EXTRACT: note_off channel=9 note=54 velocity=127 time=0
EXTRACT: note_off channel=9 note=38 velocity=127 time=0
EXTRACT: note_on channel=9 note=54 velocity=127 time=0.14880833333333332
EXTRACT: note_off channel=9 note=54 velocity=127 time=0.029761666666666662
EXTRACT: note_off channel=1 note=64 velocity=100 time=0.14880833333333332
EXTRACT: note_off channel=1 note=60 velocity=100 time=0
EXTRACT: note_off channel=1 note=57 velocity=100 time=0
EXTRACT: note_off channel=1 note=52 velocity=100 time=0
EXTRACT: note_off channel=1 note=45 velocity=100 time=0
EXTRACT: note_on channel=1 note=45 velocity=100 time=0
EXTRACT: note_on channel=1 note=52 velocity=100 time=0
EXTRACT: note_on channel=1 note=57 velocity=100 time=0
EXTRACT: note_on channel=1 note=60 velocity=100 time=0
EXTRACT: note_on channel=1 note=64 velocity=100 time=0
EXTRACT: note_off channel=5 note=33 velocity=100 time=0
EXTRACT: note_on channel=5 note=31 velocity=100 time=0
EXTRACT: note_on channel=9 note=54 velocity=127 time=0
EXTRACT: note_on channel=9 note=51 velocity=127 time=0
EXTRACT: note_off channel=9 note=51 velocity=127 time=0.029761666666666662
EXTRACT: note_off channel=9 note=54 velocity=127 time=0
EXTRACT: note_on channel=9 note=38 velocity=127 time=0.14880833333333332
EXTRACT: note_on channel=9 note=54 velocity=127 time=0
EXTRACT: note_off channel=9 note=54 velocity=127 time=0.029761666666666662
EXTRACT: note_off channel=9 note=38 velocity=127 time=0
EXTRACT: note_off channel=1 note=64 velocity=100 time=0.14880833333333332
EXTRACT: note_off channel=1 note=60 velocity=100 time=0
EXTRACT: note_off channel=1 note=57 velocity=100 time=0
EXTRACT: note_off channel=1 note=52 velocity=100 time=0
EXTRACT: note_off channel=1 note=45 velocity=100 time=0
EXTRACT: note_on channel=1 note=40 velocity=100 time=0
EXTRACT: note_on channel=1 note=47 velocity=100 time=0
EXTRACT: note_on channel=1 note=52 velocity=100 time=0
EXTRACT: note_on channel=1 note=56 velocity=100 time=0
EXTRACT: note_on channel=1 note=59 velocity=100 time=0
EXTRACT: note_on channel=1 note=64 velocity=100 time=0
EXTRACT: note_off channel=5 note=31 velocity=100 time=0
EXTRACT: note_on channel=5 note=28 velocity=100 time=0
EXTRACT: note_off channel=6 note=64 velocity=100 time=0
EXTRACT: note_on channel=9 note=35 velocity=127 time=0
EXTRACT: note_on channel=9 note=36 velocity=127 time=0
EXTRACT: note_on channel=9 note=54 velocity=127 time=0
EXTRACT: note_on channel=9 note=51 velocity=127 time=0
EXTRACT: note_off channel=9 note=51 velocity=127 time=0.029761666666666662
EXTRACT: note_off channel=9 note=54 velocity=127 time=0
EXTRACT: note_off channel=9 note=36 velocity=127 time=0
EXTRACT: note_off channel=9 note=35 velocity=127 time=0.059523333333333324
EXTRACT: note_on channel=9 note=38 velocity=127 time=0.08928499999999999
EXTRACT: note_on channel=9 note=54 velocity=127 time=0
EXTRACT: note_off channel=9 note=54 velocity=127 time=0.029761666666666662
EXTRACT: note_off channel=9 note=38 velocity=127 time=0
EXTRACT: note_off channel=5 note=28 velocity=100 time=0.14880833333333332
EXTRACT: note_on channel=5 note=28 velocity=100 time=0
EXTRACT: note_on channel=9 note=35 velocity=127 time=0
EXTRACT: note_on channel=9 note=36 velocity=127 time=0
EXTRACT: note_on channel=9 note=54 velocity=127 time=0
EXTRACT: note_on channel=9 note=51 velocity=127 time=0
EXTRACT: note_off channel=9 note=51 velocity=127 time=0.029761666666666662
EXTRACT: note_off channel=9 note=54 velocity=127 time=0
EXTRACT: note_off channel=9 note=36 velocity=127 time=0
EXTRACT: note_off channel=9 note=35 velocity=127 time=0.059523333333333324
EXTRACT: note_on channel=6 note=64 velocity=100 time=0.08928499999999999
EXTRACT: note_on channel=9 note=54 velocity=127 time=0
EXTRACT: note_off channel=9 note=54 velocity=127 time=0.029761666666666662
EXTRACT: note_on channel=6 note=69 velocity=100 time=0.12462697916666665
EXTRACT: note_off channel=1 note=64 velocity=100 time=0.024181354166666662
EXTRACT: note_off channel=1 note=59 velocity=100 time=0
EXTRACT: note_off channel=1 note=56 velocity=100 time=0
EXTRACT: note_off channel=1 note=52 velocity=100 time=0
EXTRACT: note_off channel=1 note=47 velocity=100 time=0
EXTRACT: note_off channel=1 note=40 velocity=100 time=0
EXTRACT: note_on channel=1 note=56 velocity=100 time=0
EXTRACT: note_on channel=1 note=40 velocity=100 time=0
EXTRACT: note_on channel=1 note=47 velocity=100 time=0
EXTRACT: note_on channel=1 note=52 velocity=100 time=0
EXTRACT: note_on channel=1 note=59 velocity=100 time=0
EXTRACT: note_on channel=1 note=64 velocity=100 time=0
EXTRACT: note_off channel=5 note=28 velocity=100 time=0
EXTRACT: note_on channel=5 note=28 velocity=100 time=0
EXTRACT: note_off channel=6 note=64 velocity=100 time=0
EXTRACT: note_on channel=9 note=38 velocity=127 time=0
EXTRACT: note_on channel=9 note=54 velocity=127 time=0
EXTRACT: note_on channel=9 note=51 velocity=127 time=0
EXTRACT: note_off channel=9 note=51 velocity=127 time=0.029761666666666662
EXTRACT: note_off channel=9 note=54 velocity=127 time=0
EXTRACT: note_off channel=9 note=38 velocity=127 time=0
EXTRACT: note_on channel=9 note=54 velocity=127 time=0.14880833333333332
EXTRACT: note_off channel=9 note=54 velocity=127 time=0.029761666666666662
EXTRACT: note_off channel=6 note=69 velocity=100 time=0.12462697916666665
EXTRACT: note_off channel=1 note=64 velocity=100 time=0.024181354166666662
EXTRACT: note_off channel=1 note=59 velocity=100 time=0
EXTRACT: note_off channel=1 note=52 velocity=100 time=0
EXTRACT: note_off channel=1 note=47 velocity=100 time=0
EXTRACT: note_off channel=1 note=40 velocity=100 time=0
EXTRACT: note_off channel=1 note=56 velocity=100 time=0
EXTRACT: note_on channel=1 note=56 velocity=100 time=0
EXTRACT: note_on channel=1 note=40 velocity=100 time=0
EXTRACT: note_on channel=1 note=47 velocity=100 time=0
EXTRACT: note_on channel=1 note=52 velocity=100 time=0
EXTRACT: note_on channel=1 note=59 velocity=100 time=0
EXTRACT: note_on channel=1 note=64 velocity=100 time=0
EXTRACT: note_off channel=5 note=28 velocity=100 time=0
EXTRACT: note_on channel=5 note=28 velocity=100 time=0
EXTRACT: note_on channel=9 note=54 velocity=127 time=0
EXTRACT: note_on channel=9 note=51 velocity=127 time=0
EXTRACT: note_on channel=6 note=64 velocity=100 time=0.016740937499999997
EXTRACT: note_off channel=9 note=51 velocity=127 time=0.013020729166666665
EXTRACT: note_off channel=9 note=54 velocity=127 time=0
EXTRACT: note_on channel=6 note=67 velocity=100 time=0.12462697916666665
EXTRACT: note_off channel=5 note=28 velocity=100 time=0.024181354166666662
EXTRACT: note_on channel=5 note=28 velocity=100 time=0
EXTRACT: note_on channel=9 note=38 velocity=127 time=0
EXTRACT: note_on channel=9 note=54 velocity=127 time=0
EXTRACT: note_off channel=6 note=64 velocity=100 time=0.016740937499999997
EXTRACT: note_off channel=9 note=54 velocity=127 time=0.013020729166666665
EXTRACT: note_off channel=9 note=38 velocity=127 time=0
EXTRACT: note_on channel=9 note=38 velocity=127 time=0.029761666666666662
EXTRACT: note_off channel=9 note=38 velocity=127 time=0.029761666666666662
EXTRACT: note_off channel=1 note=64 velocity=100 time=0.08928499999999999
EXTRACT: note_off channel=1 note=59 velocity=100 time=0
EXTRACT: note_off channel=1 note=52 velocity=100 time=0
EXTRACT: note_off channel=1 note=47 velocity=100 time=0
EXTRACT: note_off channel=1 note=40 velocity=100 time=0
EXTRACT: note_off channel=1 note=56 velocity=100 time=0
EXTRACT: note_on channel=1 note=41 velocity=100 time=0
EXTRACT: note_on channel=1 note=48 velocity=100 time=0
EXTRACT: note_on channel=1 note=53 velocity=100 time=0
EXTRACT: note_on channel=1 note=57 velocity=100 time=0
EXTRACT: note_on channel=1 note=60 velocity=100 time=0
EXTRACT: note_off channel=5 note=28 velocity=100 time=0
EXTRACT: note_on channel=5 note=29 velocity=100 time=0
EXTRACT: note_on channel=9 note=35 velocity=127 time=0
EXTRACT: note_on channel=9 note=36 velocity=127 time=0
EXTRACT: note_on channel=9 note=54 velocity=127 time=0
EXTRACT: note_on channel=9 note=51 velocity=127 time=0
EXTRACT: note_off channel=9 note=51 velocity=127 time=0.029761666666666662
EXTRACT: note_off channel=9 note=54 velocity=127 time=0
EXTRACT: note_off channel=9 note=36 velocity=127 time=0
EXTRACT: note_off channel=9 note=35 velocity=127 time=0.059523333333333324
EXTRACT: note_off channel=6 note=67 velocity=100 time=0.06510364583333332
EXTRACT: note_on channel=6 note=64 velocity=100 time=0.011160624999999999
EXTRACT: note_on channel=9 note=54 velocity=127 time=0.013020729166666665
EXTRACT: note_off channel=9 note=54 velocity=127 time=0.029761666666666662
EXTRACT: note_off channel=6 note=64 velocity=100 time=0.13578760416666666
EXTRACT: note_on channel=6 note=62 velocity=100 time=0
EXTRACT: note_off channel=5 note=29 velocity=100 time=0.013020729166666665
EXTRACT: note_on channel=5 note=29 velocity=100 time=0
EXTRACT: note_on channel=9 note=54 velocity=127 time=0
EXTRACT: note_on channel=9 note=51 velocity=127 time=0
EXTRACT: note_off channel=9 note=51 velocity=127 time=0.029761666666666662
EXTRACT: note_off channel=9 note=54 velocity=127 time=0
EXTRACT: note_on channel=9 note=54 velocity=127 time=0.14880833333333332
EXTRACT: note_off channel=9 note=54 velocity=127 time=0.029761666666666662
EXTRACT: note_on channel=6 note=60 velocity=100 time=0.12462697916666665
EXTRACT: note_off channel=6 note=62 velocity=100 time=0.011160624999999999
EXTRACT: note_off channel=1 note=60 velocity=100 time=0.013020729166666665
EXTRACT: note_off channel=1 note=57 velocity=100 time=0
EXTRACT: note_off channel=1 note=53 velocity=100 time=0
EXTRACT: note_off channel=1 note=48 velocity=100 time=0
EXTRACT: note_off channel=1 note=41 velocity=100 time=0
EXTRACT: note_on channel=1 note=41 velocity=100 time=0
EXTRACT: note_on channel=1 note=48 velocity=100 time=0
EXTRACT: note_on channel=1 note=53 velocity=100 time=0
EXTRACT: note_on channel=1 note=57 velocity=100 time=0
EXTRACT: note_on channel=1 note=60 velocity=100 time=0
EXTRACT: note_off channel=5 note=29 velocity=100 time=0
EXTRACT: note_on channel=5 note=29 velocity=100 time=0
EXTRACT: note_on channel=9 note=38 velocity=127 time=0
EXTRACT: note_on channel=9 note=54 velocity=127 time=0
EXTRACT: note_on channel=9 note=51 velocity=127 time=0
EXTRACT: note_off channel=9 note=51 velocity=127 time=0.029761666666666662
EXTRACT: note_off channel=9 note=54 velocity=127 time=0
EXTRACT: note_off channel=9 note=38 velocity=127 time=0
EXTRACT: note_on channel=9 note=54 velocity=127 time=0.14880833333333332
EXTRACT: note_off channel=9 note=54 velocity=127 time=0.029761666666666662
EXTRACT: note_off channel=1 note=60 velocity=100 time=0.14880833333333332
EXTRACT: note_off channel=1 note=57 velocity=100 time=0
EXTRACT: note_off channel=1 note=53 velocity=100 time=0
EXTRACT: note_off channel=1 note=48 velocity=100 time=0
EXTRACT: note_off channel=1 note=41 velocity=100 time=0
EXTRACT: note_on channel=1 note=41 velocity=100 time=0
EXTRACT: note_on channel=1 note=48 velocity=100 time=0
EXTRACT: note_on channel=1 note=53 velocity=100 time=0
EXTRACT: note_on channel=1 note=57 velocity=100 time=0
EXTRACT: note_on channel=1 note=60 velocity=100 time=0
EXTRACT: note_off channel=5 note=29 velocity=100 time=0
EXTRACT: note_on channel=5 note=30 velocity=100 time=0
EXTRACT: note_on channel=9 note=54 velocity=127 time=0
EXTRACT: note_on channel=9 note=51 velocity=127 time=0
EXTRACT: note_off channel=9 note=51 velocity=127 time=0.029761666666666662
EXTRACT: note_off channel=9 note=54 velocity=127 time=0
EXTRACT: note_off channel=6 note=60 velocity=100 time=0.12462697916666665
EXTRACT: note_on channel=9 note=38 velocity=127 time=0.024181354166666662
EXTRACT: note_on channel=9 note=54 velocity=127 time=0
EXTRACT: note_off channel=9 note=54 velocity=127 time=0.029761666666666662
EXTRACT: note_off channel=9 note=38 velocity=127 time=0
EXTRACT: note_off channel=1 note=60 velocity=100 time=0.14880833333333332
EXTRACT: note_off channel=1 note=57 velocity=100 time=0
EXTRACT: note_off channel=1 note=53 velocity=100 time=0
EXTRACT: note_off channel=1 note=48 velocity=100 time=0
EXTRACT: note_off channel=1 note=41 velocity=100 time=0
EXTRACT: note_on channel=1 note=43 velocity=100 time=0
EXTRACT: note_on channel=1 note=50 velocity=100 time=0
EXTRACT: note_on channel=1 note=55 velocity=100 time=0
EXTRACT: note_on channel=1 note=59 velocity=100 time=0
EXTRACT: note_on channel=1 note=62 velocity=100 time=0
EXTRACT: note_off channel=5 note=30 velocity=100 time=0
EXTRACT: note_on channel=5 note=31 velocity=100 time=0
EXTRACT: note_on channel=9 note=35 velocity=127 time=0
EXTRACT: note_on channel=9 note=36 velocity=127 time=0
EXTRACT: note_on channel=9 note=54 velocity=127 time=0
EXTRACT: note_on channel=9 note=51 velocity=127 time=0
EXTRACT: note_off channel=9 note=51 velocity=127 time=0.029761666666666662
EXTRACT: note_off channel=9 note=54 velocity=127 time=0
EXTRACT: note_off channel=9 note=36 velocity=127 time=0
EXTRACT: note_off channel=9 note=35 velocity=127 time=0.059523333333333324
EXTRACT: note_on channel=9 note=38 velocity=127 time=0.08928499999999999
EXTRACT: note_on channel=9 note=54 velocity=127 time=0
EXTRACT: note_off channel=9 note=54 velocity=127 time=0.029761666666666662
EXTRACT: note_off channel=9 note=38 velocity=127 time=0
EXTRACT: note_off channel=1 note=62 velocity=100 time=0.14880833333333332
EXTRACT: note_off channel=1 note=59 velocity=100 time=0
EXTRACT: note_off channel=1 note=55 velocity=100 time=0
EXTRACT: note_off channel=1 note=50 velocity=100 time=0
EXTRACT: note_off channel=1 note=43 velocity=100 time=0
EXTRACT: note_on channel=1 note=43 velocity=100 time=0
EXTRACT: note_on channel=1 note=50 velocity=100 time=0
EXTRACT: note_on channel=1 note=55 velocity=100 time=0
EXTRACT: note_on channel=1 note=59 velocity=100 time=0
EXTRACT: note_on channel=1 note=62 velocity=100 time=0
EXTRACT: note_off channel=5 note=31 velocity=100 time=0
EXTRACT: note_on channel=5 note=31 velocity=100 time=0
EXTRACT: note_on channel=9 note=35 velocity=127 time=0
EXTRACT: note_on channel=9 note=36 velocity=127 time=0
EXTRACT: note_on channel=9 note=54 velocity=127 time=0
EXTRACT: note_on channel=9 note=51 velocity=127 time=0
EXTRACT: note_off channel=9 note=51 velocity=127 time=0.029761666666666662
EXTRACT: note_off channel=9 note=54 velocity=127 time=0
EXTRACT: note_off channel=9 note=36 velocity=127 time=0
EXTRACT: note_off channel=9 note=35 velocity=127 time=0.059523333333333324
EXTRACT: note_on channel=6 note=59 velocity=100 time=0.05208291666666666
EXTRACT: note_on channel=9 note=54 velocity=127 time=0.03720208333333333
EXTRACT: note_off channel=9 note=54 velocity=127 time=0.029761666666666662
EXTRACT: note_off channel=6 note=59 velocity=100 time=0.11160624999999998
EXTRACT: note_on channel=6 note=62 velocity=100 time=0.013020729166666665
EXTRACT: note_off channel=1 note=62 velocity=100 time=0.024181354166666662
EXTRACT: note_off channel=1 note=59 velocity=100 time=0
EXTRACT: note_off channel=1 note=55 velocity=100 time=0
EXTRACT: note_off channel=1 note=50 velocity=100 time=0
EXTRACT: note_off channel=1 note=43 velocity=100 time=0
EXTRACT: note_on channel=1 note=43 velocity=100 time=0
EXTRACT: note_on channel=1 note=50 velocity=100 time=0
EXTRACT: note_on channel=1 note=55 velocity=100 time=0
EXTRACT: note_on channel=1 note=59 velocity=100 time=0
EXTRACT: note_on channel=1 note=62 velocity=100 time=0
EXTRACT: note_off channel=5 note=31 velocity=100 time=0
EXTRACT: note_on channel=5 note=31 velocity=100 time=0
EXTRACT: note_on channel=9 note=38 velocity=127 time=0
EXTRACT: note_on channel=9 note=54 velocity=127 time=0
EXTRACT: note_on channel=9 note=51 velocity=127 time=0
EXTRACT: note_off channel=9 note=51 velocity=127 time=0.029761666666666662
EXTRACT: note_off channel=9 note=54 velocity=127 time=0
EXTRACT: note_off channel=9 note=38 velocity=127 time=0
EXTRACT: note_on channel=9 note=54 velocity=127 time=0.14880833333333332
EXTRACT: note_off channel=9 note=54 velocity=127 time=0.029761666666666662
EXTRACT: note_off channel=6 note=62 velocity=100 time=0.12462697916666665
EXTRACT: note_on channel=6 note=64 velocity=100 time=0
EXTRACT: note_off channel=1 note=62 velocity=100 time=0.024181354166666662
EXTRACT: note_off channel=1 note=59 velocity=100 time=0
EXTRACT: note_off channel=1 note=55 velocity=100 time=0
EXTRACT: note_off channel=1 note=50 velocity=100 time=0
EXTRACT: note_off channel=1 note=43 velocity=100 time=0
EXTRACT: note_on channel=1 note=43 velocity=100 time=0
EXTRACT: note_on channel=1 note=50 velocity=100 time=0
EXTRACT: note_on channel=1 note=55 velocity=100 time=0
EXTRACT: note_on channel=1 note=59 velocity=100 time=0
EXTRACT: note_on channel=1 note=62 velocity=100 time=0
EXTRACT: note_off channel=5 note=31 velocity=100 time=0
EXTRACT: note_on channel=5 note=35 velocity=100 time=0
EXTRACT: note_on channel=9 note=54 velocity=127 time=0
EXTRACT: note_on channel=9 note=51 velocity=127 time=0
EXTRACT: note_off channel=9 note=51 velocity=127 time=0.029761666666666662
EXTRACT: note_off channel=9 note=54 velocity=127 time=0
EXTRACT: note_off channel=6 note=64 velocity=100 time=0.12462697916666665
EXTRACT: note_on channel=6 note=60 velocity=100 time=0.011160624999999999
EXTRACT: note_on channel=9 note=38 velocity=127 time=0.013020729166666665
EXTRACT: note_on channel=9 note=54 velocity=127 time=0
EXTRACT: note_off channel=9 note=54 velocity=127 time=0.029761666666666662
EXTRACT: note_off channel=9 note=38 velocity=127 time=0
EXTRACT: note_off channel=1 note=62 velocity=100 time=0.14880833333333332
EXTRACT: note_off channel=1 note=59 velocity=100 time=0
EXTRACT: note_off channel=1 note=55 velocity=100 time=0
EXTRACT: note_off channel=1 note=50 velocity=100 time=0
EXTRACT: note_off channel=1 note=43 velocity=100 time=0
EXTRACT: note_on channel=1 note=48 velocity=100 time=0
EXTRACT: note_on channel=1 note=52 velocity=100 time=0
EXTRACT: note_on channel=1 note=55 velocity=100 time=0
EXTRACT: note_on channel=1 note=60 velocity=100 time=0
EXTRACT: note_on channel=1 note=64 velocity=100 time=0
EXTRACT: note_off channel=5 note=35 velocity=100 time=0
EXTRACT: note_on channel=5 note=36 velocity=100 time=0
EXTRACT: note_on channel=9 note=35 velocity=127 time=0
EXTRACT: note_on channel=9 note=36 velocity=127 time=0
EXTRACT: note_on channel=9 note=54 velocity=127 time=0
EXTRACT: note_on channel=9 note=49 velocity=127 time=0
EXTRACT: note_on channel=9 note=51 velocity=127 time=0
EXTRACT: note_off channel=9 note=51 velocity=127 time=0.029761666666666662
EXTRACT: note_off channel=9 note=49 velocity=127 time=0
EXTRACT: note_off channel=9 note=54 velocity=127 time=0
EXTRACT: note_off channel=9 note=36 velocity=127 time=0
EXTRACT: note_off channel=9 note=35 velocity=127 time=0.059523333333333324
EXTRACT: note_on channel=9 note=54 velocity=127 time=0.08928499999999999
EXTRACT: note_off channel=9 note=54 velocity=127 time=0.029761666666666662
EXTRACT: note_on channel=9 note=54 velocity=127 time=0.14880833333333332
EXTRACT: note_on channel=9 note=51 velocity=127 time=0
EXTRACT: note_off channel=9 note=51 velocity=127 time=0.029761666666666662
EXTRACT: note_off channel=9 note=54 velocity=127 time=0
EXTRACT: note_on channel=9 note=54 velocity=127 time=0.14880833333333332
EXTRACT: note_off channel=9 note=54 velocity=127 time=0.029761666666666662
EXTRACT: note_off channel=1 note=64 velocity=100 time=0.14880833333333332
EXTRACT: note_off channel=1 note=60 velocity=100 time=0
EXTRACT: note_off channel=1 note=55 velocity=100 time=0
EXTRACT: note_off channel=1 note=52 velocity=100 time=0
EXTRACT: note_off channel=1 note=48 velocity=100 time=0
EXTRACT: note_on channel=1 note=48 velocity=100 time=0
EXTRACT: note_on channel=1 note=52 velocity=100 time=0
EXTRACT: note_on channel=1 note=55 velocity=100 time=0
EXTRACT: note_on channel=1 note=60 velocity=100 time=0
EXTRACT: note_on channel=1 note=64 velocity=100 time=0
EXTRACT: note_off channel=5 note=36 velocity=100 time=0
EXTRACT: note_on channel=5 note=36 velocity=100 time=0
EXTRACT: note_on channel=9 note=38 velocity=127 time=0
EXTRACT: note_on channel=9 note=54 velocity=127 time=0
EXTRACT: note_on channel=9 note=51 velocity=127 time=0
EXTRACT: note_off channel=9 note=51 velocity=127 time=0.029761666666666662
EXTRACT: note_off channel=9 note=54 velocity=127 time=0
EXTRACT: note_off channel=9 note=38 velocity=127 time=0
EXTRACT: note_on channel=9 note=54 velocity=127 time=0.14880833333333332
EXTRACT: note_off channel=9 note=54 velocity=127 time=0.029761666666666662
EXTRACT: note_off channel=1 note=64 velocity=100 time=0.14880833333333332
EXTRACT: note_off channel=1 note=60 velocity=100 time=0
EXTRACT: note_off channel=1 note=55 velocity=100 time=0
EXTRACT: note_off channel=1 note=52 velocity=100 time=0
EXTRACT: note_off channel=1 note=48 velocity=100 time=0
EXTRACT: note_on channel=1 note=48 velocity=100 time=0
EXTRACT: note_on channel=1 note=52 velocity=100 time=0
EXTRACT: note_on channel=1 note=55 velocity=100 time=0
EXTRACT: note_on channel=1 note=60 velocity=100 time=0
EXTRACT: note_on channel=1 note=64 velocity=100 time=0
EXTRACT: note_off channel=5 note=36 velocity=100 time=0
EXTRACT: note_on channel=5 note=35 velocity=100 time=0
EXTRACT: note_on channel=9 note=54 velocity=127 time=0
EXTRACT: note_on channel=9 note=51 velocity=127 time=0
EXTRACT: note_off channel=9 note=51 velocity=127 time=0.029761666666666662
EXTRACT: note_off channel=9 note=54 velocity=127 time=0
EXTRACT: note_off channel=6 note=60 velocity=100 time=0.13578760416666666
EXTRACT: note_on channel=9 note=38 velocity=127 time=0.013020729166666665
EXTRACT: note_on channel=9 note=54 velocity=127 time=0
EXTRACT: note_off channel=9 note=54 velocity=127 time=0.029761666666666662
EXTRACT: note_off channel=9 note=38 velocity=127 time=0
EXTRACT: note_off channel=1 note=64 velocity=100 time=0.14880833333333332
EXTRACT: note_off channel=1 note=60 velocity=100 time=0
EXTRACT: note_off channel=1 note=55 velocity=100 time=0
EXTRACT: note_off channel=1 note=52 velocity=100 time=0
EXTRACT: note_off channel=1 note=48 velocity=100 time=0
EXTRACT: note_on channel=1 note=43 velocity=100 time=0
EXTRACT: note_on channel=1 note=50 velocity=100 time=0
EXTRACT: note_on channel=1 note=55 velocity=100 time=0
EXTRACT: note_on channel=1 note=59 velocity=100 time=0
EXTRACT: note_on channel=1 note=67 velocity=100 time=0
EXTRACT: note_off channel=5 note=35 velocity=100 time=0
EXTRACT: note_on channel=5 note=31 velocity=100 time=0
EXTRACT: note_on channel=9 note=35 velocity=127 time=0
EXTRACT: note_on channel=9 note=36 velocity=127 time=0
EXTRACT: note_on channel=9 note=54 velocity=127 time=0
EXTRACT: note_on channel=9 note=51 velocity=127 time=0
EXTRACT: note_off channel=9 note=51 velocity=127 time=0.029761666666666662
EXTRACT: note_off channel=9 note=54 velocity=127 time=0
EXTRACT: note_off channel=9 note=36 velocity=127 time=0
EXTRACT: note_off channel=9 note=35 velocity=127 time=0.059523333333333324
EXTRACT: note_on channel=9 note=38 velocity=127 time=0.08928499999999999
EXTRACT: note_on channel=9 note=54 velocity=127 time=0
EXTRACT: note_off channel=9 note=54 velocity=127 time=0.029761666666666662
EXTRACT: note_off channel=9 note=38 velocity=127 time=0
EXTRACT: note_off channel=5 note=31 velocity=100 time=0.14880833333333332
EXTRACT: note_on channel=5 note=31 velocity=100 time=0
EXTRACT: note_on channel=9 note=35 velocity=127 time=0
EXTRACT: note_on channel=9 note=36 velocity=127 time=0
EXTRACT: note_on channel=9 note=54 velocity=127 time=0
EXTRACT: note_on channel=9 note=51 velocity=127 time=0
EXTRACT: note_off channel=9 note=51 velocity=127 time=0.029761666666666662
EXTRACT: note_off channel=9 note=54 velocity=127 time=0
EXTRACT: note_off channel=9 note=36 velocity=127 time=0
EXTRACT: note_off channel=9 note=35 velocity=127 time=0.059523333333333324
EXTRACT: note_on channel=9 note=54 velocity=127 time=0.08928499999999999
EXTRACT: note_off channel=9 note=54 velocity=127 time=0.029761666666666662
EXTRACT: note_off channel=1 note=67 velocity=100 time=0.14880833333333332
EXTRACT: note_off channel=1 note=59 velocity=100 time=0
EXTRACT: note_off channel=1 note=55 velocity=100 time=0
EXTRACT: note_off channel=1 note=50 velocity=100 time=0
EXTRACT: note_off channel=1 note=43 velocity=100 time=0
EXTRACT: note_on channel=1 note=43 velocity=100 time=0
EXTRACT: note_on channel=1 note=50 velocity=100 time=0
EXTRACT: note_on channel=1 note=55 velocity=100 time=0
EXTRACT: note_on channel=1 note=59 velocity=100 time=0
EXTRACT: note_on channel=1 note=67 velocity=100 time=0
EXTRACT: note_off channel=5 note=31 velocity=100 time=0
EXTRACT: note_on channel=5 note=31 velocity=100 time=0
EXTRACT: note_on channel=9 note=38 velocity=127 time=0
EXTRACT: note_on channel=9 note=54 velocity=127 time=0
EXTRACT: note_on channel=9 note=51 velocity=127 time=0
EXTRACT: note_off channel=9 note=51 velocity=127 time=0.029761666666666662
EXTRACT: note_off channel=9 note=54 velocity=127 time=0
EXTRACT: note_off channel=9 note=38 velocity=127 time=0
EXTRACT: note_on channel=9 note=54 velocity=127 time=0.14880833333333332
EXTRACT: note_off channel=9 note=54 velocity=127 time=0.029761666666666662
EXTRACT: note_off channel=1 note=67 velocity=100 time=0.14880833333333332
EXTRACT: note_off channel=1 note=59 velocity=100 time=0
EXTRACT: note_off channel=1 note=55 velocity=100 time=0
EXTRACT: note_off channel=1 note=50 velocity=100 time=0
EXTRACT: note_off channel=1 note=43 velocity=100 time=0
EXTRACT: note_on channel=1 note=43 velocity=100 time=0
EXTRACT: note_on channel=1 note=50 velocity=100 time=0
EXTRACT: note_on channel=1 note=55 velocity=100 time=0
EXTRACT: note_on channel=1 note=59 velocity=100 time=0
EXTRACT: note_on channel=1 note=67 velocity=100 time=0
EXTRACT: note_off channel=5 note=31 velocity=100 time=0
EXTRACT: note_on channel=5 note=32 velocity=100 time=0
EXTRACT: note_on channel=9 note=54 velocity=127 time=0
EXTRACT: note_on channel=9 note=51 velocity=127 time=0
EXTRACT: note_off channel=9 note=51 velocity=127 time=0.029761666666666662
EXTRACT: note_off channel=9 note=54 velocity=127 time=0
EXTRACT: note_on channel=9 note=38 velocity=127 time=0.14880833333333332
EXTRACT: note_on channel=9 note=54 velocity=127 time=0
EXTRACT: note_off channel=9 note=54 velocity=127 time=0.029761666666666662
EXTRACT: note_off channel=9 note=38 velocity=127 time=0
EXTRACT: note_on channel=9 note=38 velocity=127 time=0.029761666666666662
EXTRACT: note_off channel=9 note=38 velocity=127 time=0.029761666666666662
EXTRACT: note_off channel=1 note=67 velocity=100 time=0.08928499999999999
EXTRACT: note_off channel=1 note=59 velocity=100 time=0
EXTRACT: note_off channel=1 note=55 velocity=100 time=0
EXTRACT: note_off channel=1 note=50 velocity=100 time=0
EXTRACT: note_off channel=1 note=43 velocity=100 time=0
EXTRACT: note_on channel=1 note=45 velocity=100 time=0
EXTRACT: note_on channel=1 note=52 velocity=100 time=0
EXTRACT: note_on channel=1 note=57 velocity=100 time=0
EXTRACT: note_on channel=1 note=60 velocity=100 time=0
EXTRACT: note_on channel=1 note=64 velocity=100 time=0
EXTRACT: note_off channel=5 note=32 velocity=100 time=0
EXTRACT: note_on channel=5 note=33 velocity=100 time=0
EXTRACT: note_on channel=9 note=35 velocity=127 time=0
EXTRACT: note_on channel=9 note=36 velocity=127 time=0
EXTRACT: note_on channel=9 note=54 velocity=127 time=0
EXTRACT: note_on channel=9 note=51 velocity=127 time=0
EXTRACT: note_off channel=9 note=51 velocity=127 time=0.029761666666666662
EXTRACT: note_off channel=9 note=54 velocity=127 time=0
EXTRACT: note_off channel=9 note=36 velocity=127 time=0
EXTRACT: note_off channel=9 note=35 velocity=127 time=0.059523333333333324
EXTRACT: note_on channel=9 note=54 velocity=127 time=0.08928499999999999
EXTRACT: note_off channel=9 note=54 velocity=127 time=0.029761666666666662
EXTRACT: note_on channel=9 note=54 velocity=127 time=0.14880833333333332
EXTRACT: note_on channel=9 note=51 velocity=127 time=0
EXTRACT: note_off channel=9 note=51 velocity=127 time=0.029761666666666662
EXTRACT: note_off channel=9 note=54 velocity=127 time=0
EXTRACT: note_on channel=9 note=54 velocity=127 time=0.14880833333333332
EXTRACT: note_off channel=9 note=54 velocity=127 time=0.029761666666666662
EXTRACT: note_off channel=1 note=64 velocity=100 time=0.14880833333333332
EXTRACT: note_off channel=1 note=60 velocity=100 time=0
EXTRACT: note_off channel=1 note=57 velocity=100 time=0
EXTRACT: note_off channel=1 note=52 velocity=100 time=0
EXTRACT: note_off channel=1 note=45 velocity=100 time=0
EXTRACT: note_on channel=1 note=45 velocity=100 time=0
EXTRACT: note_on channel=1 note=52 velocity=100 time=0
EXTRACT: note_on channel=1 note=57 velocity=100 time=0
EXTRACT: note_on channel=1 note=60 velocity=100 time=0
EXTRACT: note_on channel=1 note=64 velocity=100 time=0
EXTRACT: note_off channel=5 note=33 velocity=100 time=0
EXTRACT: note_on channel=5 note=33 velocity=100 time=0
EXTRACT: note_on channel=9 note=38 velocity=127 time=0
EXTRACT: note_on channel=9 note=54 velocity=127 time=0
EXTRACT: note_on channel=9 note=51 velocity=127 time=0
EXTRACT: note_off channel=9 note=51 velocity=127 time=0.029761666666666662
EXTRACT: note_off channel=9 note=54 velocity=127 time=0
EXTRACT: note_off channel=9 note=38 velocity=127 time=0
EXTRACT: note_on channel=9 note=54 velocity=127 time=0.14880833333333332
EXTRACT: note_off channel=9 note=54 velocity=127 time=0.029761666666666662
EXTRACT: note_off channel=1 note=64 velocity=100 time=0.14880833333333332
EXTRACT: note_off channel=1 note=60 velocity=100 time=0
EXTRACT: note_off channel=1 note=57 velocity=100 time=0
EXTRACT: note_off channel=1 note=52 velocity=100 time=0
EXTRACT: note_off channel=1 note=45 velocity=100 time=0
EXTRACT: note_on channel=1 note=45 velocity=100 time=0
EXTRACT: note_on channel=1 note=52 velocity=100 time=0
EXTRACT: note_on channel=1 note=57 velocity=100 time=0
EXTRACT: note_on channel=1 note=60 velocity=100 time=0
EXTRACT: note_on channel=1 note=64 velocity=100 time=0
EXTRACT: note_off channel=5 note=33 velocity=100 time=0
EXTRACT: note_on channel=5 note=31 velocity=100 time=0
EXTRACT: note_on channel=9 note=54 velocity=127 time=0
EXTRACT: note_on channel=9 note=51 velocity=127 time=0
EXTRACT: note_off channel=9 note=51 velocity=127 time=0.029761666666666662
EXTRACT: note_off channel=9 note=54 velocity=127 time=0
EXTRACT: note_on channel=9 note=38 velocity=127 time=0.14880833333333332
EXTRACT: note_on channel=9 note=54 velocity=127 time=0
EXTRACT: note_off channel=9 note=54 velocity=127 time=0.029761666666666662
EXTRACT: note_off channel=9 note=38 velocity=127 time=0
EXTRACT: note_off channel=1 note=64 velocity=100 time=0.14880833333333332
EXTRACT: note_off channel=1 note=60 velocity=100 time=0
EXTRACT: note_off channel=1 note=57 velocity=100 time=0
EXTRACT: note_off channel=1 note=52 velocity=100 time=0
EXTRACT: note_off channel=1 note=45 velocity=100 time=0
EXTRACT: note_on channel=1 note=40 velocity=100 time=0
EXTRACT: note_on channel=1 note=47 velocity=100 time=0
EXTRACT: note_on channel=1 note=52 velocity=100 time=0
EXTRACT: note_on channel=1 note=56 velocity=100 time=0
EXTRACT: note_on channel=1 note=59 velocity=100 time=0
EXTRACT: note_on channel=1 note=64 velocity=100 time=0
EXTRACT: note_on channel=2 note=55 velocity=100 time=0
EXTRACT: note_off channel=5 note=31 velocity=100 time=0
EXTRACT: note_on channel=5 note=28 velocity=100 time=0
EXTRACT: note_on channel=9 note=35 velocity=127 time=0
EXTRACT: note_on channel=9 note=36 velocity=127 time=0
EXTRACT: note_on channel=9 note=54 velocity=127 time=0
EXTRACT: note_on channel=9 note=51 velocity=127 time=0
EXTRACT: note_off channel=9 note=51 velocity=127 time=0.029761666666666662
EXTRACT: note_off channel=9 note=54 velocity=127 time=0
EXTRACT: note_off channel=9 note=36 velocity=127 time=0
EXTRACT: note_off channel=9 note=35 velocity=127 time=0.059523333333333324
EXTRACT: note_off channel=2 note=55 velocity=100 time=0.08928499999999999
EXTRACT: note_on channel=2 note=57 velocity=100 time=0
EXTRACT: note_on channel=9 note=38 velocity=127 time=0
EXTRACT: note_on channel=9 note=54 velocity=127 time=0
EXTRACT: note_off channel=9 note=54 velocity=127 time=0.029761666666666662
EXTRACT: note_off channel=9 note=38 velocity=127 time=0
EXTRACT: note_off channel=2 note=57 velocity=100 time=0.14880833333333332
EXTRACT: note_on channel=2 note=60 velocity=100 time=0
EXTRACT: note_off channel=5 note=28 velocity=100 time=0
EXTRACT: note_on channel=5 note=28 velocity=100 time=0
EXTRACT: note_on channel=9 note=36 velocity=127 time=0
EXTRACT: note_on channel=9 note=54 velocity=127 time=0
EXTRACT: note_on channel=9 note=51 velocity=127 time=0
EXTRACT: note_on channel=9 note=35 velocity=127 time=0
EXTRACT: note_off channel=9 note=51 velocity=127 time=0.029761666666666662
EXTRACT: note_off channel=9 note=54 velocity=127 time=0
EXTRACT: note_off channel=9 note=36 velocity=127 time=0
EXTRACT: note_off channel=9 note=35 velocity=127 time=0.059523333333333324
EXTRACT: note_off channel=2 note=60 velocity=100 time=0.08928499999999999
EXTRACT: note_on channel=2 note=62 velocity=100 time=0
EXTRACT: note_on channel=9 note=54 velocity=127 time=0
EXTRACT: note_off channel=9 note=54 velocity=127 time=0.029761666666666662
EXTRACT: note_off channel=1 note=64 velocity=100 time=0.14880833333333332
EXTRACT: note_off channel=1 note=59 velocity=100 time=0
EXTRACT: note_off channel=1 note=56 velocity=100 time=0
EXTRACT: note_off channel=1 note=52 velocity=100 time=0
EXTRACT: note_off channel=1 note=47 velocity=100 time=0
EXTRACT: note_off channel=1 note=40 velocity=100 time=0
EXTRACT: note_on channel=1 note=56 velocity=100 time=0
EXTRACT: note_on channel=1 note=40 velocity=100 time=0
EXTRACT: note_on channel=1 note=47 velocity=100 time=0
EXTRACT: note_on channel=1 note=52 velocity=100 time=0
EXTRACT: note_on channel=1 note=59 velocity=100 time=0
EXTRACT: note_on channel=1 note=64 velocity=100 time=0
EXTRACT: note_off channel=2 note=62 velocity=100 time=0
EXTRACT: note_on channel=2 note=62 velocity=100 time=0
EXTRACT: note_off channel=5 note=28 velocity=100 time=0
EXTRACT: note_on channel=5 note=28 velocity=100 time=0
EXTRACT: note_on channel=9 note=38 velocity=127 time=0
EXTRACT: note_on channel=9 note=54 velocity=127 time=0
EXTRACT: note_on channel=9 note=51 velocity=127 time=0
EXTRACT: note_off channel=9 note=51 velocity=127 time=0.029761666666666662
EXTRACT: note_off channel=9 note=54 velocity=127 time=0
EXTRACT: note_off channel=9 note=38 velocity=127 time=0
EXTRACT: pitchwheel channel=2 pitch=1024 time=0.016740937499999997
EXTRACT: pitchwheel channel=2 pitch=2688 time=0.013020729166666665
EXTRACT: pitchwheel channel=2 pitch=7552 time=0.011160624999999999
EXTRACT: pitchwheel channel=2 pitch=7808 time=0.011160624999999999
EXTRACT: pitchwheel channel=2 pitch=7040 time=0.03720208333333333
EXTRACT: pitchwheel channel=2 pitch=1664 time=0.011160624999999999
EXTRACT: pitchwheel channel=2 pitch=1152 time=0.011160624999999999
EXTRACT: pitchwheel channel=2 pitch=896 time=0.013020729166666665
EXTRACT: pitchwheel channel=2 pitch=768 time=0.011160624999999999
EXTRACT: pitchwheel channel=2 pitch=640 time=0.013020729166666665
EXTRACT: note_on channel=9 note=54 velocity=127 time=0
EXTRACT: pitchwheel channel=2 pitch=384 time=0.011160624999999999
EXTRACT: pitchwheel channel=2 pitch=0 time=0.011160624999999999
EXTRACT: note_off channel=9 note=54 velocity=127 time=0.0074404166666666655
EXTRACT: note_off channel=1 note=64 velocity=100 time=0.14880833333333332
EXTRACT: note_off channel=1 note=59 velocity=100 time=0
EXTRACT: note_off channel=1 note=52 velocity=100 time=0
EXTRACT: note_off channel=1 note=47 velocity=100 time=0
EXTRACT: note_off channel=1 note=40 velocity=100 time=0
EXTRACT: note_off channel=1 note=56 velocity=100 time=0
EXTRACT: note_on channel=1 note=56 velocity=100 time=0
EXTRACT: note_on channel=1 note=40 velocity=100 time=0
EXTRACT: note_on channel=1 note=47 velocity=100 time=0
EXTRACT: note_on channel=1 note=52 velocity=100 time=0
EXTRACT: note_on channel=1 note=59 velocity=100 time=0
EXTRACT: note_on channel=1 note=64 velocity=100 time=0
EXTRACT: note_off channel=2 note=62 velocity=100 time=0
EXTRACT: note_on channel=2 note=60 velocity=100 time=0
EXTRACT: note_off channel=5 note=28 velocity=100 time=0
EXTRACT: note_on channel=5 note=28 velocity=100 time=0
EXTRACT: note_on channel=9 note=54 velocity=127 time=0
EXTRACT: note_on channel=9 note=51 velocity=127 time=0
EXTRACT: note_off channel=9 note=51 velocity=127 time=0.029761666666666662
EXTRACT: note_off channel=9 note=54 velocity=127 time=0
EXTRACT: note_off channel=2 note=60 velocity=100 time=0.14880833333333332
EXTRACT: note_on channel=2 note=57 velocity=100 time=0
EXTRACT: note_off channel=5 note=28 velocity=100 time=0
EXTRACT: note_on channel=5 note=28 velocity=100 time=0
EXTRACT: note_on channel=9 note=38 velocity=127 time=0
EXTRACT: note_on channel=9 note=54 velocity=127 time=0
EXTRACT: note_off channel=9 note=54 velocity=127 time=0.029761666666666662
EXTRACT: note_off channel=9 note=38 velocity=127 time=0
EXTRACT: note_on channel=9 note=38 velocity=127 time=0.029761666666666662
EXTRACT: note_off channel=9 note=38 velocity=127 time=0.029761666666666662
EXTRACT: note_off channel=1 note=64 velocity=100 time=0.08928499999999999
EXTRACT: note_off channel=1 note=59 velocity=100 time=0
EXTRACT: note_off channel=1 note=52 velocity=100 time=0
EXTRACT: note_off channel=1 note=47 velocity=100 time=0
EXTRACT: note_off channel=1 note=40 velocity=100 time=0
EXTRACT: note_off channel=1 note=56 velocity=100 time=0
EXTRACT: note_on channel=1 note=41 velocity=100 time=0
EXTRACT: note_on channel=1 note=48 velocity=100 time=0
EXTRACT: note_on channel=1 note=53 velocity=100 time=0
EXTRACT: note_on channel=1 note=57 velocity=100 time=0
EXTRACT: note_on channel=1 note=60 velocity=100 time=0
EXTRACT: note_off channel=2 note=57 velocity=100 time=0
EXTRACT: note_on channel=2 note=60 velocity=100 time=0
EXTRACT: note_off channel=5 note=28 velocity=100 time=0
EXTRACT: note_on channel=5 note=29 velocity=100 time=0
EXTRACT: note_on channel=9 note=35 velocity=127 time=0
EXTRACT: note_on channel=9 note=36 velocity=127 time=0
EXTRACT: note_on channel=9 note=54 velocity=127 time=0
EXTRACT: note_on channel=9 note=51 velocity=127 time=0
EXTRACT: note_off channel=9 note=51 velocity=127 time=0.029761666666666662
EXTRACT: note_off channel=9 note=54 velocity=127 time=0
EXTRACT: note_off channel=9 note=36 velocity=127 time=0
EXTRACT: pitchwheel channel=2 pitch=640 time=0.005580312499999999
EXTRACT: pitchwheel channel=2 pitch=512 time=0.03534197916666666
EXTRACT: pitchwheel channel=2 pitch=128 time=0.011160624999999999
EXTRACT: note_off channel=9 note=35 velocity=127 time=0.0074404166666666655
EXTRACT: pitchwheel channel=2 pitch=-128 time=0.005580312499999999
EXTRACT: pitchwheel channel=2 pitch=0 time=0.024181354166666662
EXTRACT: pitchwheel channel=2 pitch=-128 time=0.022321249999999997
EXTRACT: pitchwheel channel=2 pitch=-384 time=0.024181354166666662
EXTRACT: note_on channel=9 note=54 velocity=127 time=0.013020729166666665
EXTRACT: note_off channel=9 note=54 velocity=127 time=0.029761666666666662
EXTRACT: pitchwheel channel=2 pitch=-256 time=0.016740937499999997
EXTRACT: pitchwheel channel=2 pitch=-128 time=0.03534197916666666
EXTRACT: pitchwheel channel=2 pitch=256 time=0.013020729166666665
EXTRACT: pitchwheel channel=2 pitch=-128 time=0.011160624999999999
EXTRACT: pitchwheel channel=2 pitch=-512 time=0.013020729166666665
EXTRACT: pitchwheel channel=2 pitch=-256 time=0.04650260416666666
EXTRACT: pitchwheel channel=2 pitch=0 time=0.013020729166666665
EXTRACT: note_off channel=5 note=29 velocity=100 time=0
EXTRACT: note_on channel=5 note=29 velocity=100 time=0
EXTRACT: note_on channel=9 note=54 velocity=127 time=0
EXTRACT: note_on channel=9 note=51 velocity=127 time=0
EXTRACT: pitchwheel channel=2 pitch=768 time=0.011160624999999999
EXTRACT: note_off channel=9 note=51 velocity=127 time=0.018601041666666665
EXTRACT: note_off channel=9 note=54 velocity=127 time=0
EXTRACT: pitchwheel channel=2 pitch=-128 time=0.016740937499999997
EXTRACT: pitchwheel channel=2 pitch=0 time=0.07254406249999999
EXTRACT: pitchwheel channel=2 pitch=256 time=0.011160624999999999
EXTRACT: pitchwheel channel=2 pitch=768 time=0.011160624999999999
EXTRACT: pitchwheel channel=2 pitch=512 time=0.013020729166666665
EXTRACT: pitchwheel channel=2 pitch=384 time=0.011160624999999999
EXTRACT: pitchwheel channel=2 pitch=-384 time=0.013020729166666665
EXTRACT: note_on channel=9 note=54 velocity=127 time=0
EXTRACT: note_off channel=9 note=54 velocity=127 time=0.029761666666666662
EXTRACT: pitchwheel channel=2 pitch=-256 time=0.029761666666666662
EXTRACT: pitchwheel channel=2 pitch=0 time=0.011160624999999999
EXTRACT: pitchwheel channel=2 pitch=256 time=0.011160624999999999
EXTRACT: pitchwheel channel=2 pitch=128 time=0.013020729166666665
EXTRACT: pitchwheel channel=2 pitch=-512 time=0.011160624999999999
EXTRACT: pitchwheel channel=2 pitch=-256 time=0.03534197916666666
EXTRACT: pitchwheel channel=2 pitch=256 time=0.013020729166666665
EXTRACT: pitchwheel channel=2 pitch=768 time=0.011160624999999999
EXTRACT: note_off channel=1 note=60 velocity=100 time=0.013020729166666665
EXTRACT: note_off channel=1 note=57 velocity=100 time=0
EXTRACT: note_off channel=1 note=53 velocity=100 time=0
EXTRACT: note_off channel=1 note=48 velocity=100 time=0
EXTRACT: note_off channel=1 note=41 velocity=100 time=0
EXTRACT: note_on channel=1 note=41 velocity=100 time=0
EXTRACT: note_on channel=1 note=48 velocity=100 time=0
EXTRACT: note_on channel=1 note=53 velocity=100 time=0
EXTRACT: note_on channel=1 note=57 velocity=100 time=0
EXTRACT: note_on channel=1 note=60 velocity=100 time=0
EXTRACT: note_off channel=5 note=29 velocity=100 time=0
EXTRACT: note_on channel=5 note=29 velocity=100 time=0
EXTRACT: note_on channel=9 note=38 velocity=127 time=0
EXTRACT: note_on channel=9 note=54 velocity=127 time=0
EXTRACT: note_on channel=9 note=51 velocity=127 time=0
EXTRACT: pitchwheel channel=2 pitch=-384 time=0.022321249999999997
EXTRACT: note_off channel=9 note=51 velocity=127 time=0.0074404166666666655
EXTRACT: note_off channel=9 note=54 velocity=127 time=0
EXTRACT: note_off channel=9 note=38 velocity=127 time=0
EXTRACT: pitchwheel channel=2 pitch=-256 time=0.029761666666666662
EXTRACT: pitchwheel channel=2 pitch=256 time=0.011160624999999999
EXTRACT: pitchwheel channel=2 pitch=512 time=0.011160624999999999
EXTRACT: pitchwheel channel=2 pitch=768 time=0.013020729166666665
EXTRACT: pitchwheel channel=2 pitch=-384 time=0.024181354166666662
EXTRACT: pitchwheel channel=2 pitch=0 time=0.04650260416666666
EXTRACT: pitchwheel channel=2 pitch=256 time=0.013020729166666665
EXTRACT: note_on channel=9 note=54 velocity=127 time=0
EXTRACT: note_off channel=9 note=54 velocity=127 time=0.029761666666666662
EXTRACT: pitchwheel channel=2 pitch=-384 time=0.005580312499999999
EXTRACT: pitchwheel channel=2 pitch=-512 time=0.011160624999999999
EXTRACT: pitchwheel channel=2 pitch=-640 time=0.013020729166666665
EXTRACT: pitchwheel channel=2 pitch=384 time=0.08184458333333332
EXTRACT: pitchwheel channel=2 pitch=512 time=0.013020729166666665
EXTRACT: note_off channel=1 note=60 velocity=100 time=0.024181354166666662
EXTRACT: note_off channel=1 note=57 velocity=100 time=0
EXTRACT: note_off channel=1 note=53 velocity=100 time=0
EXTRACT: note_off channel=1 note=48 velocity=100 time=0
EXTRACT: note_off channel=1 note=41 velocity=100 time=0
EXTRACT: note_on channel=1 note=41 velocity=100 time=0
EXTRACT: note_on channel=1 note=48 velocity=100 time=0
EXTRACT: note_on channel=1 note=53 velocity=100 time=0
EXTRACT: note_on channel=1 note=57 velocity=100 time=0
EXTRACT: note_on channel=1 note=60 velocity=100 time=0
EXTRACT: pitchwheel channel=2 pitch=640 time=0
EXTRACT: note_off channel=5 note=29 velocity=100 time=0
EXTRACT: note_on channel=5 note=30 velocity=100 time=0
EXTRACT: note_on channel=9 note=54 velocity=127 time=0
EXTRACT: note_on channel=9 note=51 velocity=127 time=0
EXTRACT: pitchwheel channel=2 pitch=768 time=0.011160624999999999
EXTRACT: note_off channel=9 note=51 velocity=127 time=0.018601041666666665
EXTRACT: note_off channel=9 note=54 velocity=127 time=0
EXTRACT: pitchwheel channel=2 pitch=640 time=0.016740937499999997
EXTRACT: pitchwheel channel=2 pitch=128 time=0.013020729166666665
EXTRACT: pitchwheel channel=2 pitch=0 time=0.022321249999999997
EXTRACT: note_off channel=2 note=60 velocity=100 time=0.09672541666666665
EXTRACT: note_on channel=9 note=38 velocity=127 time=0
EXTRACT: note_on channel=9 note=54 velocity=127 time=0
EXTRACT: note_on channel=2 note=62 velocity=100 time=0.022321249999999997
EXTRACT: note_off channel=9 note=54 velocity=127 time=0.0074404166666666655
EXTRACT: note_off channel=9 note=38 velocity=127 time=0
EXTRACT: note_off channel=1 note=60 velocity=100 time=0.14880833333333332
EXTRACT: note_off channel=1 note=57 velocity=100 time=0
EXTRACT: note_off channel=1 note=53 velocity=100 time=0
EXTRACT: note_off channel=1 note=48 velocity=100 time=0
EXTRACT: note_off channel=1 note=41 velocity=100 time=0
EXTRACT: note_on channel=1 note=43 velocity=100 time=0
EXTRACT: note_on channel=1 note=50 velocity=100 time=0
EXTRACT: note_on channel=1 note=55 velocity=100 time=0
EXTRACT: note_on channel=1 note=59 velocity=100 time=0
EXTRACT: note_on channel=1 note=62 velocity=100 time=0
EXTRACT: note_off channel=5 note=30 velocity=100 time=0
EXTRACT: note_on channel=5 note=31 velocity=100 time=0
EXTRACT: note_on channel=9 note=35 velocity=127 time=0
EXTRACT: note_on channel=9 note=36 velocity=127 time=0
EXTRACT: note_on channel=9 note=54 velocity=127 time=0
EXTRACT: note_on channel=9 note=51 velocity=127 time=0
EXTRACT: note_off channel=2 note=62 velocity=100 time=0.022321249999999997
EXTRACT: note_on channel=2 note=64 velocity=100 time=0.0074404166666666655
EXTRACT: note_off channel=9 note=51 velocity=127 time=0
EXTRACT: note_off channel=9 note=54 velocity=127 time=0
EXTRACT: note_off channel=9 note=36 velocity=127 time=0
EXTRACT: note_off channel=9 note=35 velocity=127 time=0.059523333333333324
EXTRACT: note_on channel=9 note=38 velocity=127 time=0.08928499999999999
EXTRACT: note_on channel=9 note=54 velocity=127 time=0
EXTRACT: note_off channel=9 note=54 velocity=127 time=0.029761666666666662
EXTRACT: note_off channel=9 note=38 velocity=127 time=0
EXTRACT: note_off channel=1 note=62 velocity=100 time=0.14880833333333332
EXTRACT: note_off channel=1 note=59 velocity=100 time=0
EXTRACT: note_off channel=1 note=55 velocity=100 time=0
EXTRACT: note_off channel=1 note=50 velocity=100 time=0
EXTRACT: note_off channel=1 note=43 velocity=100 time=0
EXTRACT: note_on channel=1 note=43 velocity=100 time=0
EXTRACT: note_on channel=1 note=50 velocity=100 time=0
EXTRACT: note_on channel=1 note=55 velocity=100 time=0
EXTRACT: note_on channel=1 note=59 velocity=100 time=0
EXTRACT: note_on channel=1 note=62 velocity=100 time=0
EXTRACT: note_off channel=5 note=31 velocity=100 time=0
EXTRACT: note_on channel=5 note=31 velocity=100 time=0
EXTRACT: note_on channel=9 note=35 velocity=127 time=0
EXTRACT: note_on channel=9 note=36 velocity=127 time=0
EXTRACT: note_on channel=9 note=54 velocity=127 time=0
EXTRACT: note_on channel=9 note=51 velocity=127 time=0
EXTRACT: note_off channel=9 note=51 velocity=127 time=0.029761666666666662
EXTRACT: note_off channel=9 note=54 velocity=127 time=0
EXTRACT: note_off channel=9 note=36 velocity=127 time=0
EXTRACT: note_off channel=9 note=35 velocity=127 time=0.059523333333333324
EXTRACT: note_on channel=9 note=54 velocity=127 time=0.08928499999999999
EXTRACT: note_off channel=9 note=54 velocity=127 time=0.029761666666666662
EXTRACT: note_off channel=1 note=62 velocity=100 time=0.14880833333333332
EXTRACT: note_off channel=1 note=59 velocity=100 time=0
EXTRACT: note_off channel=1 note=55 velocity=100 time=0
EXTRACT: note_off channel=1 note=50 velocity=100 time=0
EXTRACT: note_off channel=1 note=43 velocity=100 time=0
EXTRACT: note_on channel=1 note=43 velocity=100 time=0
EXTRACT: note_on channel=1 note=50 velocity=100 time=0
EXTRACT: note_on channel=1 note=55 velocity=100 time=0
EXTRACT: note_on channel=1 note=59 velocity=100 time=0
EXTRACT: note_on channel=1 note=62 velocity=100 time=0
EXTRACT: note_on channel=2 note=67 velocity=100 time=0
EXTRACT: note_off channel=5 note=31 velocity=100 time=0
EXTRACT: note_on channel=5 note=31 velocity=100 time=0
EXTRACT: note_on channel=9 note=38 velocity=127 time=0
EXTRACT: note_on channel=9 note=54 velocity=127 time=0
EXTRACT: note_on channel=9 note=51 velocity=127 time=0
EXTRACT: note_off channel=9 note=51 velocity=127 time=0.029761666666666662
EXTRACT: note_off channel=9 note=54 velocity=127 time=0
EXTRACT: note_off channel=9 note=38 velocity=127 time=0
EXTRACT: note_on channel=9 note=54 velocity=127 time=0.14880833333333332
EXTRACT: note_off channel=9 note=54 velocity=127 time=0.029761666666666662
EXTRACT: note_off channel=1 note=62 velocity=100 time=0.14880833333333332
EXTRACT: note_off channel=1 note=59 velocity=100 time=0
EXTRACT: note_off channel=1 note=55 velocity=100 time=0
EXTRACT: note_off channel=1 note=50 velocity=100 time=0
EXTRACT: note_off channel=1 note=43 velocity=100 time=0
EXTRACT: note_on channel=1 note=43 velocity=100 time=0
EXTRACT: note_on channel=1 note=50 velocity=100 time=0
EXTRACT: note_on channel=1 note=55 velocity=100 time=0
EXTRACT: note_on channel=1 note=59 velocity=100 time=0
EXTRACT: note_on channel=1 note=62 velocity=100 time=0
EXTRACT: note_on channel=2 note=62 velocity=110 time=0
EXTRACT: note_off channel=5 note=31 velocity=100 time=0
EXTRACT: note_on channel=5 note=35 velocity=100 time=0
EXTRACT: note_on channel=9 note=54 velocity=127 time=0
EXTRACT: note_on channel=9 note=51 velocity=127 time=0
EXTRACT: note_off channel=2 note=64 velocity=100 time=0.029761666666666662
EXTRACT: note_off channel=9 note=51 velocity=127 time=0
EXTRACT: note_off channel=9 note=54 velocity=127 time=0
EXTRACT: note_on channel=9 note=38 velocity=127 time=0.14880833333333332
EXTRACT: note_on channel=9 note=54 velocity=127 time=0
EXTRACT: note_off channel=9 note=54 velocity=127 time=0.029761666666666662
EXTRACT: note_off channel=9 note=38 velocity=127 time=0
EXTRACT: note_off channel=1 note=62 velocity=100 time=0.14880833333333332
EXTRACT: note_off channel=1 note=59 velocity=100 time=0
EXTRACT: note_off channel=1 note=55 velocity=100 time=0
EXTRACT: note_off channel=1 note=50 velocity=100 time=0
EXTRACT: note_off channel=1 note=43 velocity=100 time=0
EXTRACT: note_on channel=1 note=48 velocity=100 time=0
EXTRACT: note_on channel=1 note=52 velocity=100 time=0
EXTRACT: note_on channel=1 note=55 velocity=100 time=0
EXTRACT: note_on channel=1 note=60 velocity=100 time=0
EXTRACT: note_on channel=1 note=64 velocity=100 time=0
EXTRACT: note_off channel=2 note=62 velocity=110 time=0
EXTRACT: note_off channel=2 note=67 velocity=100 time=0
EXTRACT: note_on channel=2 note=60 velocity=100 time=0
EXTRACT: note_off channel=5 note=35 velocity=100 time=0
EXTRACT: note_on channel=5 note=36 velocity=100 time=0
EXTRACT: note_on channel=9 note=35 velocity=127 time=0
EXTRACT: note_on channel=9 note=36 velocity=127 time=0
EXTRACT: note_on channel=9 note=54 velocity=127 time=0
EXTRACT: note_on channel=9 note=49 velocity=127 time=0
EXTRACT: note_on channel=9 note=51 velocity=127 time=0
EXTRACT: note_off channel=9 note=51 velocity=127 time=0.029761666666666662
EXTRACT: note_off channel=9 note=49 velocity=127 time=0
EXTRACT: note_off channel=9 note=54 velocity=127 time=0
EXTRACT: note_off channel=9 note=36 velocity=127 time=0
EXTRACT: note_off channel=9 note=35 velocity=127 time=0.059523333333333324
EXTRACT: note_on channel=9 note=54 velocity=127 time=0.08928499999999999
EXTRACT: note_off channel=9 note=54 velocity=127 time=0.029761666666666662
EXTRACT: note_on channel=9 note=38 velocity=127 time=0.14880833333333332
EXTRACT: note_on channel=9 note=43 velocity=127 time=0
EXTRACT: note_on channel=9 note=54 velocity=127 time=0
EXTRACT: note_off channel=9 note=54 velocity=127 time=0.029761666666666662
EXTRACT: note_off channel=9 note=43 velocity=127 time=0
EXTRACT: note_off channel=9 note=38 velocity=127 time=0
EXTRACT: note_on channel=9 note=54 velocity=127 time=0.14880833333333332
EXTRACT: note_off channel=9 note=54 velocity=127 time=0.029761666666666662
EXTRACT: note_off channel=1 note=64 velocity=100 time=0.14880833333333332
EXTRACT: note_off channel=1 note=60 velocity=100 time=0
EXTRACT: note_off channel=1 note=55 velocity=100 time=0
EXTRACT: note_off channel=1 note=52 velocity=100 time=0
EXTRACT: note_off channel=1 note=48 velocity=100 time=0
EXTRACT: note_on channel=1 note=48 velocity=100 time=0
EXTRACT: note_on channel=1 note=52 velocity=100 time=0
EXTRACT: note_on channel=1 note=55 velocity=100 time=0
EXTRACT: note_on channel=1 note=60 velocity=100 time=0
EXTRACT: note_on channel=1 note=64 velocity=100 time=0
EXTRACT: note_off channel=5 note=36 velocity=100 time=0
EXTRACT: note_on channel=5 note=36 velocity=100 time=0
EXTRACT: note_on channel=9 note=38 velocity=127 time=0
EXTRACT: note_on channel=9 note=54 velocity=127 time=0
EXTRACT: note_off channel=9 note=54 velocity=127 time=0.029761666666666662
EXTRACT: note_off channel=9 note=38 velocity=127 time=0
EXTRACT: note_on channel=9 note=45 velocity=127 time=0.14880833333333332
EXTRACT: note_on channel=9 note=54 velocity=127 time=0
EXTRACT: note_off channel=9 note=54 velocity=127 time=0.029761666666666662
EXTRACT: note_off channel=9 note=45 velocity=127 time=0
EXTRACT: note_off channel=1 note=64 velocity=100 time=0.14880833333333332
EXTRACT: note_off channel=1 note=60 velocity=100 time=0
EXTRACT: note_off channel=1 note=55 velocity=100 time=0
EXTRACT: note_off channel=1 note=52 velocity=100 time=0
EXTRACT: note_off channel=1 note=48 velocity=100 time=0
EXTRACT: note_on channel=1 note=48 velocity=100 time=0
EXTRACT: note_on channel=1 note=52 velocity=100 time=0
EXTRACT: note_on channel=1 note=55 velocity=100 time=0
EXTRACT: note_on channel=1 note=60 velocity=100 time=0
EXTRACT: note_on channel=1 note=64 velocity=100 time=0
EXTRACT: note_off channel=5 note=36 velocity=100 time=0
EXTRACT: note_on channel=5 note=36 velocity=100 time=0
EXTRACT: note_on channel=9 note=54 velocity=127 time=0
EXTRACT: note_off channel=9 note=54 velocity=127 time=0.029761666666666662
EXTRACT: note_on channel=9 note=38 velocity=127 time=0.14880833333333332
EXTRACT: note_on channel=9 note=54 velocity=127 time=0
EXTRACT: note_off channel=9 note=54 velocity=127 time=0.029761666666666662
EXTRACT: note_off channel=9 note=38 velocity=127 time=0
EXTRACT: pitchwheel channel=2 pitch=-8064 time=0.11160624999999998
EXTRACT: pitchwheel channel=2 pitch=-7808 time=0.013020729166666665
EXTRACT: pitchwheel channel=2 pitch=-7552 time=0.011160624999999999
EXTRACT: note_off channel=1 note=64 velocity=100 time=0.013020729166666665
EXTRACT: note_off channel=1 note=60 velocity=100 time=0
EXTRACT: note_off channel=1 note=55 velocity=100 time=0
EXTRACT: note_off channel=1 note=52 velocity=100 time=0
EXTRACT: note_off channel=1 note=48 velocity=100 time=0
EXTRACT: note_on channel=1 note=45 velocity=100 time=0
EXTRACT: note_on channel=1 note=52 velocity=100 time=0
EXTRACT: note_on channel=1 note=57 velocity=100 time=0
EXTRACT: note_on channel=1 note=60 velocity=100 time=0
EXTRACT: note_on channel=1 note=64 velocity=100 time=0
EXTRACT: note_off channel=2 note=60 velocity=100 time=0
EXTRACT: pitchwheel channel=2 pitch=-7168 time=0
EXTRACT: note_on channel=2 note=55 velocity=100 time=0
EXTRACT: note_off channel=5 note=36 velocity=100 time=0
EXTRACT: note_on channel=5 note=33 velocity=100 time=0
EXTRACT: note_on channel=9 note=45 velocity=127 time=0
EXTRACT: note_on channel=9 note=54 velocity=127 time=0
EXTRACT: pitchwheel channel=2 pitch=-6912 time=0.011160624999999999
EXTRACT: pitchwheel channel=2 pitch=-6528 time=0.011160624999999999
EXTRACT: note_off channel=9 note=54 velocity=127 time=0.0074404166666666655
EXTRACT: note_off channel=9 note=45 velocity=127 time=0
EXTRACT: pitchwheel channel=2 pitch=-6272 time=0.005580312499999999
EXTRACT: pitchwheel channel=2 pitch=-6016 time=0.011160624999999999
EXTRACT: pitchwheel channel=2 pitch=-5632 time=0.013020729166666665
EXTRACT: pitchwheel channel=2 pitch=-5376 time=0.011160624999999999
EXTRACT: pitchwheel channel=2 pitch=-4992 time=0.011160624999999999
EXTRACT: pitchwheel channel=2 pitch=-4736 time=0.013020729166666665
EXTRACT: pitchwheel channel=2 pitch=-4352 time=0.011160624999999999
EXTRACT: pitchwheel channel=2 pitch=-4096 time=0.013020729166666665
EXTRACT: pitchwheel channel=2 pitch=-3840 time=0.011160624999999999
EXTRACT: pitchwheel channel=2 pitch=-3456 time=0.011160624999999999
EXTRACT: pitchwheel channel=2 pitch=-3200 time=0.013020729166666665
EXTRACT: pitchwheel channel=2 pitch=-2816 time=0.011160624999999999
EXTRACT: pitchwheel channel=2 pitch=-2560 time=0.013020729166666665
EXTRACT: note_on channel=9 note=54 velocity=127 time=0
EXTRACT: pitchwheel channel=2 pitch=-2176 time=0.011160624999999999
EXTRACT: pitchwheel channel=2 pitch=-1920 time=0.011160624999999999
EXTRACT: note_off channel=9 note=54 velocity=127 time=0.0074404166666666655
EXTRACT: pitchwheel channel=2 pitch=-1664 time=0.005580312499999999
EXTRACT: pitchwheel channel=2 pitch=-1280 time=0.011160624999999999
EXTRACT: pitchwheel channel=2 pitch=-1024 time=0.013020729166666665
EXTRACT: pitchwheel channel=2 pitch=-640 time=0.011160624999999999
EXTRACT: pitchwheel channel=2 pitch=-384 time=0.011160624999999999
EXTRACT: pitchwheel channel=2 pitch=0 time=0.013020729166666665
EXTRACT: note_off channel=1 note=64 velocity=100 time=0.08370468749999999
EXTRACT: note_off channel=1 note=60 velocity=100 time=0
EXTRACT: note_off channel=1 note=57 velocity=100 time=0
EXTRACT: note_off channel=1 note=52 velocity=100 time=0
EXTRACT: note_off channel=1 note=45 velocity=100 time=0
EXTRACT: note_on channel=1 note=45 velocity=100 time=0
EXTRACT: note_on channel=1 note=52 velocity=100 time=0
EXTRACT: note_on channel=1 note=57 velocity=100 time=0
EXTRACT: note_on channel=1 note=60 velocity=100 time=0
EXTRACT: note_on channel=1 note=64 velocity=100 time=0
EXTRACT: note_off channel=2 note=55 velocity=100 time=0
EXTRACT: note_on channel=2 note=60 velocity=100 time=0
EXTRACT: note_off channel=5 note=33 velocity=100 time=0
EXTRACT: note_on channel=5 note=33 velocity=100 time=0
EXTRACT: note_on channel=9 note=38 velocity=127 time=0
EXTRACT: note_on channel=9 note=54 velocity=127 time=0
EXTRACT: note_off channel=9 note=54 velocity=127 time=0.029761666666666662
EXTRACT: note_off channel=9 note=38 velocity=127 time=0
EXTRACT: note_off channel=1 note=64 velocity=100 time=0.14880833333333332
EXTRACT: note_off channel=1 note=60 velocity=100 time=0
EXTRACT: note_off channel=1 note=57 velocity=100 time=0
EXTRACT: note_off channel=1 note=52 velocity=100 time=0
EXTRACT: note_off channel=1 note=45 velocity=100 time=0
EXTRACT: note_on channel=1 note=45 velocity=100 time=0
EXTRACT: note_on channel=1 note=52 velocity=100 time=0
EXTRACT: note_on channel=1 note=57 velocity=100 time=0
EXTRACT: note_on channel=1 note=60 velocity=100 time=0
EXTRACT: note_on channel=1 note=64 velocity=100 time=0
EXTRACT: note_off channel=2 note=60 velocity=100 time=0
EXTRACT: note_on channel=2 note=62 velocity=100 time=0
EXTRACT: note_on channel=9 note=54 velocity=127 time=0
EXTRACT: note_off channel=9 note=54 velocity=127 time=0.029761666666666662
EXTRACT: pitchwheel channel=2 pitch=-7808 time=0.12462697916666665
EXTRACT: pitchwheel channel=2 pitch=-7552 time=0.011160624999999999
EXTRACT: note_off channel=1 note=64 velocity=100 time=0.013020729166666665
EXTRACT: note_off channel=1 note=60 velocity=100 time=0
EXTRACT: note_off channel=1 note=57 velocity=100 time=0
EXTRACT: note_off channel=1 note=52 velocity=100 time=0
EXTRACT: note_off channel=1 note=45 velocity=100 time=0
EXTRACT: note_on channel=1 note=43 velocity=100 time=0
EXTRACT: note_on channel=1 note=50 velocity=100 time=0
EXTRACT: note_on channel=1 note=55 velocity=100 time=0
EXTRACT: note_on channel=1 note=59 velocity=100 time=0
EXTRACT: note_on channel=1 note=67 velocity=100 time=0
EXTRACT: note_off channel=2 note=62 velocity=100 time=0
EXTRACT: pitchwheel channel=2 pitch=-7168 time=0
EXTRACT: note_on channel=2 note=55 velocity=100 time=0
EXTRACT: note_off channel=5 note=33 velocity=100 time=0
EXTRACT: note_on channel=5 note=31 velocity=100 time=0
EXTRACT: note_on channel=9 note=45 velocity=127 time=0
EXTRACT: note_on channel=9 note=54 velocity=127 time=0
EXTRACT: pitchwheel channel=2 pitch=-6784 time=0.011160624999999999
EXTRACT: pitchwheel channel=2 pitch=-6400 time=0.011160624999999999
EXTRACT: note_off channel=9 note=54 velocity=127 time=0.0074404166666666655
EXTRACT: note_off channel=9 note=45 velocity=127 time=0
EXTRACT: pitchwheel channel=2 pitch=-6016 time=0.005580312499999999
EXTRACT: pitchwheel channel=2 pitch=-5760 time=0.011160624999999999
EXTRACT: pitchwheel channel=2 pitch=-5376 time=0.013020729166666665
EXTRACT: pitchwheel channel=2 pitch=-4992 time=0.011160624999999999
EXTRACT: pitchwheel channel=2 pitch=-4608 time=0.011160624999999999
EXTRACT: pitchwheel channel=2 pitch=-4224 time=0.013020729166666665
EXTRACT: pitchwheel channel=2 pitch=-3840 time=0.011160624999999999
EXTRACT: pitchwheel channel=2 pitch=-3584 time=0.013020729166666665
EXTRACT: pitchwheel channel=2 pitch=-3200 time=0.011160624999999999
EXTRACT: pitchwheel channel=2 pitch=-2816 time=0.011160624999999999
EXTRACT: pitchwheel channel=2 pitch=-2432 time=0.013020729166666665
EXTRACT: pitchwheel channel=2 pitch=-2048 time=0.011160624999999999
EXTRACT: pitchwheel channel=2 pitch=-1792 time=0.013020729166666665
EXTRACT: note_on channel=9 note=43 velocity=127 time=0
EXTRACT: note_on channel=9 note=54 velocity=127 time=0
EXTRACT: pitchwheel channel=2 pitch=-1408 time=0.011160624999999999
EXTRACT: pitchwheel channel=2 pitch=-1024 time=0.011160624999999999
EXTRACT: note_off channel=9 note=54 velocity=127 time=0.0074404166666666655
EXTRACT: note_off channel=9 note=43 velocity=127 time=0
EXTRACT: pitchwheel channel=2 pitch=-640 time=0.005580312499999999
EXTRACT: pitchwheel channel=2 pitch=-256 time=0.011160624999999999
EXTRACT: pitchwheel channel=2 pitch=128 time=0.013020729166666665
EXTRACT: note_off channel=1 note=67 velocity=100 time=0.11904666666666665
EXTRACT: note_off channel=1 note=59 velocity=100 time=0
EXTRACT: note_off channel=1 note=55 velocity=100 time=0
EXTRACT: note_off channel=1 note=50 velocity=100 time=0
EXTRACT: note_off channel=1 note=43 velocity=100 time=0
EXTRACT: note_on channel=1 note=43 velocity=100 time=0
EXTRACT: note_on channel=1 note=50 velocity=100 time=0
EXTRACT: note_on channel=1 note=55 velocity=100 time=0
EXTRACT: note_on channel=1 note=59 velocity=100 time=0
EXTRACT: note_on channel=1 note=67 velocity=100 time=0
EXTRACT: note_off channel=2 note=55 velocity=100 time=0
EXTRACT: note_on channel=2 note=60 velocity=100 time=0
EXTRACT: note_off channel=5 note=31 velocity=100 time=0
EXTRACT: note_on channel=5 note=31 velocity=100 time=0
EXTRACT: note_on channel=9 note=43 velocity=127 time=0
EXTRACT: note_on channel=9 note=54 velocity=127 time=0
EXTRACT: note_off channel=9 note=54 velocity=127 time=0.029761666666666662
EXTRACT: note_off channel=9 note=43 velocity=127 time=0
EXTRACT: note_off channel=2 note=60 velocity=100 time=0.14880833333333332
EXTRACT: note_on channel=2 note=62 velocity=100 time=0
EXTRACT: note_on channel=9 note=45 velocity=127 time=0
EXTRACT: note_on channel=9 note=41 velocity=127 time=0
EXTRACT: note_on channel=9 note=54 velocity=127 time=0
EXTRACT: note_off channel=9 note=54 velocity=127 time=0.029761666666666662
EXTRACT: note_off channel=9 note=41 velocity=127 time=0
EXTRACT: note_on channel=6 note=60 velocity=100 time=0.04092229166666666
EXTRACT: note_off channel=9 note=45 velocity=127 time=0.018601041666666665
EXTRACT: note_off channel=6 note=60 velocity=100 time=0.07068395833333332
EXTRACT: note_off channel=1 note=67 velocity=100 time=0.018601041666666665
EXTRACT: note_off channel=1 note=59 velocity=100 time=0
EXTRACT: note_off channel=1 note=55 velocity=100 time=0
EXTRACT: note_off channel=1 note=50 velocity=100 time=0
EXTRACT: note_off channel=1 note=43 velocity=100 time=0
EXTRACT: note_on channel=1 note=48 velocity=100 time=0
EXTRACT: note_on channel=1 note=52 velocity=100 time=0
EXTRACT: note_on channel=1 note=55 velocity=100 time=0
EXTRACT: note_on channel=1 note=60 velocity=100 time=0
EXTRACT: note_on channel=1 note=64 velocity=100 time=0
EXTRACT: note_off channel=2 note=62 velocity=100 time=0
EXTRACT: note_on channel=2 note=60 velocity=100 time=0
EXTRACT: note_off channel=5 note=31 velocity=100 time=0
EXTRACT: note_on channel=5 note=36 velocity=100 time=0
EXTRACT: note_on channel=6 note=62 velocity=100 time=0
EXTRACT: note_on channel=9 note=35 velocity=127 time=0
EXTRACT: note_on channel=9 note=36 velocity=127 time=0
EXTRACT: note_on channel=9 note=49 velocity=127 time=0
EXTRACT: note_off channel=9 note=49 velocity=127 time=0.029761666666666662
EXTRACT: note_off channel=9 note=36 velocity=127 time=0
EXTRACT: note_off channel=9 note=35 velocity=127 time=0.059523333333333324
EXTRACT: note_on channel=6 note=62 velocity=100 time=0.24367364583333329
EXTRACT: note_off channel=6 note=62 velocity=100 time=0.024181354166666662
EXTRACT: note_on channel=9 note=42 velocity=127 time=0
EXTRACT: note_off channel=9 note=42 velocity=127 time=0.029761666666666662
EXTRACT: note_off channel=6 note=62 velocity=100 time=0.12462697916666665
EXTRACT: note_on channel=6 note=62 velocity=100 time=0.011160624999999999
EXTRACT: note_on channel=5 note=36 velocity=100 time=0.14880833333333332
EXTRACT: note_off channel=1 note=64 velocity=100 time=0.04278239583333333
EXTRACT: note_off channel=1 note=60 velocity=100 time=0
EXTRACT: note_off channel=1 note=55 velocity=100 time=0
EXTRACT: note_off channel=1 note=52 velocity=100 time=0
EXTRACT: note_off channel=1 note=48 velocity=100 time=0
EXTRACT: note_on channel=1 note=48 velocity=100 time=0
EXTRACT: note_on channel=1 note=52 velocity=100 time=0
EXTRACT: note_on channel=1 note=55 velocity=100 time=0
EXTRACT: note_on channel=1 note=60 velocity=100 time=0
EXTRACT: note_on channel=1 note=64 velocity=100 time=0
EXTRACT: note_off channel=5 note=36 velocity=100 time=0
EXTRACT: note_on channel=9 note=38 velocity=127 time=0
EXTRACT: note_on channel=9 note=42 velocity=127 time=0
EXTRACT: note_off channel=9 note=42 velocity=127 time=0.029761666666666662
EXTRACT: note_off channel=9 note=38 velocity=127 time=0
EXTRACT: note_off channel=5 note=36 velocity=100 time=0.28459593749999995
EXTRACT: note_off channel=6 note=62 velocity=100 time=0.029761666666666662
EXTRACT: note_on channel=6 note=60 velocity=100 time=0
EXTRACT: note_off channel=1 note=64 velocity=100 time=0.013020729166666665
EXTRACT: note_off channel=1 note=60 velocity=100 time=0
EXTRACT: note_off channel=1 note=55 velocity=100 time=0
EXTRACT: note_off channel=1 note=52 velocity=100 time=0
EXTRACT: note_off channel=1 note=48 velocity=100 time=0
EXTRACT: note_on channel=1 note=48 velocity=100 time=0
EXTRACT: note_on channel=1 note=52 velocity=100 time=0
EXTRACT: note_on channel=1 note=55 velocity=100 time=0
EXTRACT: note_on channel=1 note=60 velocity=100 time=0
EXTRACT: note_on channel=1 note=64 velocity=100 time=0
EXTRACT: note_on channel=9 note=42 velocity=127 time=0
EXTRACT: note_on channel=5 note=35 velocity=100 time=0.022321249999999997
EXTRACT: note_off channel=9 note=42 velocity=127 time=0.0074404166666666655
EXTRACT: note_off channel=6 note=60 velocity=100 time=0.13578760416666666
EXTRACT: note_on channel=9 note=38 velocity=127 time=0.013020729166666665
EXTRACT: note_on channel=6 note=60 velocity=100 time=0.011160624999999999
EXTRACT: note_off channel=9 note=38 velocity=127 time=0.018601041666666665
EXTRACT: note_off channel=1 note=64 velocity=100 time=0.14880833333333332
EXTRACT: note_off channel=1 note=60 velocity=100 time=0
EXTRACT: note_off channel=1 note=55 velocity=100 time=0
EXTRACT: note_off channel=1 note=52 velocity=100 time=0
EXTRACT: note_off channel=1 note=48 velocity=100 time=0
EXTRACT: note_on channel=1 note=43 velocity=100 time=0
EXTRACT: note_on channel=1 note=50 velocity=100 time=0
EXTRACT: note_on channel=1 note=55 velocity=100 time=0
EXTRACT: note_on channel=1 note=59 velocity=100 time=0
EXTRACT: note_on channel=1 note=67 velocity=100 time=0
EXTRACT: note_on channel=9 note=35 velocity=127 time=0
EXTRACT: note_on channel=9 note=36 velocity=127 time=0
EXTRACT: note_on channel=9 note=42 velocity=127 time=0
EXTRACT: note_off channel=6 note=60 velocity=100 time=0.011160624999999999
EXTRACT: note_on channel=6 note=62 velocity=100 time=0
EXTRACT: note_off channel=5 note=35 velocity=100 time=0.011160624999999999
EXTRACT: note_on channel=5 note=31 velocity=100 time=0
EXTRACT: note_off channel=9 note=42 velocity=127 time=0.0074404166666666655
EXTRACT: note_off channel=9 note=36 velocity=127 time=0
EXTRACT: note_off channel=9 note=35 velocity=127 time=0.059523333333333324
EXTRACT: note_on channel=5 note=31 velocity=100 time=0.26785499999999995
EXTRACT: note_on channel=9 note=35 velocity=127 time=0
EXTRACT: note_on channel=9 note=36 velocity=127 time=0
EXTRACT: note_on channel=9 note=42 velocity=127 time=0
EXTRACT: note_off channel=6 note=62 velocity=100 time=0.011160624999999999
EXTRACT: note_off channel=5 note=31 velocity=100 time=0.011160624999999999
EXTRACT: note_on channel=6 note=60 velocity=100 time=0
EXTRACT: note_off channel=9 note=42 velocity=127 time=0.0074404166666666655
EXTRACT: note_off channel=9 note=36 velocity=127 time=0
EXTRACT: note_off channel=9 note=35 velocity=127 time=0.059523333333333324
EXTRACT: note_on channel=9 note=38 velocity=127 time=0.2380933333333333
EXTRACT: note_on channel=6 note=64 velocity=100 time=0.016740937499999997
EXTRACT: note_off channel=1 note=67 velocity=100 time=0.013020729166666665
EXTRACT: note_off channel=1 note=59 velocity=100 time=0
EXTRACT: note_off channel=1 note=55 velocity=100 time=0
EXTRACT: note_off channel=1 note=50 velocity=100 time=0
EXTRACT: note_off channel=1 note=43 velocity=100 time=0
EXTRACT: note_on channel=1 note=43 velocity=100 time=0
EXTRACT: note_on channel=1 note=50 velocity=100 time=0
EXTRACT: note_on channel=1 note=55 velocity=100 time=0
EXTRACT: note_on channel=1 note=59 velocity=100 time=0
EXTRACT: note_on channel=1 note=67 velocity=100 time=0
EXTRACT: note_off channel=5 note=31 velocity=100 time=0
EXTRACT: note_on channel=5 note=31 velocity=100 time=0
EXTRACT: note_off channel=9 note=38 velocity=127 time=0
EXTRACT: note_on channel=9 note=42 velocity=127 time=0
EXTRACT: note_off channel=6 note=60 velocity=100 time=0.022321249999999997
EXTRACT: note_off channel=9 note=42 velocity=127 time=0.0074404166666666655
EXTRACT: note_off channel=6 note=64 velocity=100 time=0.31435760416666664
EXTRACT: note_off channel=1 note=67 velocity=100 time=0.013020729166666665
EXTRACT: note_off channel=1 note=59 velocity=100 time=0
EXTRACT: note_off channel=1 note=55 velocity=100 time=0
EXTRACT: note_off channel=1 note=50 velocity=100 time=0
EXTRACT: note_off channel=1 note=43 velocity=100 time=0
EXTRACT: note_on channel=1 note=43 velocity=100 time=0
EXTRACT: note_on channel=1 note=50 velocity=100 time=0
EXTRACT: note_on channel=1 note=55 velocity=100 time=0
EXTRACT: note_on channel=1 note=59 velocity=100 time=0
EXTRACT: note_on channel=1 note=67 velocity=100 time=0
EXTRACT: note_off channel=5 note=31 velocity=100 time=0
EXTRACT: note_on channel=5 note=31 velocity=100 time=0
EXTRACT: note_on channel=6 note=62 velocity=100 time=0
EXTRACT: note_on channel=9 note=42 velocity=127 time=0
EXTRACT: note_off channel=9 note=42 velocity=127 time=0.029761666666666662
EXTRACT: note_off channel=5 note=31 velocity=100 time=0.14880833333333332
EXTRACT: note_on channel=5 note=32 velocity=100 time=0
EXTRACT: note_on channel=9 note=38 velocity=127 time=0
EXTRACT: note_off channel=9 note=38 velocity=127 time=0.029761666666666662
EXTRACT: note_on channel=9 note=38 velocity=127 time=0.029761666666666662
EXTRACT: note_off channel=9 note=38 velocity=127 time=0.029761666666666662
EXTRACT: note_off channel=1 note=67 velocity=100 time=0.08928499999999999
EXTRACT: note_off channel=1 note=59 velocity=100 time=0
EXTRACT: note_off channel=1 note=55 velocity=100 time=0
EXTRACT: note_off channel=1 note=50 velocity=100 time=0
EXTRACT: note_off channel=1 note=43 velocity=100 time=0
EXTRACT: note_on channel=1 note=45 velocity=100 time=0
EXTRACT: note_on channel=1 note=52 velocity=100 time=0
EXTRACT: note_on channel=1 note=57 velocity=100 time=0
EXTRACT: note_on channel=1 note=60 velocity=100 time=0
EXTRACT: note_on channel=1 note=64 velocity=100 time=0
EXTRACT: note_off channel=2 note=60 velocity=100 time=0
EXTRACT: note_off channel=5 note=32 velocity=100 time=0
EXTRACT: note_on channel=5 note=33 velocity=100 time=0
EXTRACT: note_on channel=9 note=35 velocity=127 time=0
EXTRACT: note_on channel=9 note=36 velocity=127 time=0
EXTRACT: note_on channel=9 note=42 velocity=127 time=0
EXTRACT: note_off channel=9 note=42 velocity=127 time=0.029761666666666662
EXTRACT: note_off channel=9 note=36 velocity=127 time=0
EXTRACT: note_off channel=9 note=35 velocity=127 time=0.059523333333333324
EXTRACT: note_off channel=6 note=62 velocity=100 time=0.08928499999999999
EXTRACT: note_on channel=6 note=60 velocity=100 time=0.029761666666666662
EXTRACT: note_on channel=9 note=42 velocity=127 time=0.14880833333333332
EXTRACT: note_off channel=6 note=60 velocity=100 time=0.029761666666666662
EXTRACT: note_on channel=6 note=57 velocity=100 time=0
EXTRACT: note_off channel=9 note=42 velocity=127 time=0
EXTRACT: note_off channel=1 note=64 velocity=100 time=0.32737833333333327
EXTRACT: note_off channel=1 note=60 velocity=100 time=0
EXTRACT: note_off channel=1 note=57 velocity=100 time=0
EXTRACT: note_off channel=1 note=52 velocity=100 time=0
EXTRACT: note_off channel=1 note=45 velocity=100 time=0
EXTRACT: note_on channel=1 note=45 velocity=100 time=0
EXTRACT: note_on channel=1 note=52 velocity=100 time=0
EXTRACT: note_on channel=1 note=57 velocity=100 time=0
EXTRACT: note_on channel=1 note=60 velocity=100 time=0
EXTRACT: note_on channel=1 note=64 velocity=100 time=0
EXTRACT: note_off channel=5 note=33 velocity=100 time=0
EXTRACT: note_on channel=5 note=33 velocity=100 time=0
EXTRACT: note_on channel=9 note=38 velocity=127 time=0
EXTRACT: note_on channel=9 note=42 velocity=127 time=0
EXTRACT: note_off channel=6 note=57 velocity=100 time=0.029761666666666662
EXTRACT: note_off channel=9 note=42 velocity=127 time=0
EXTRACT: note_off channel=9 note=38 velocity=127 time=0
EXTRACT: note_on channel=6 note=62 velocity=100 time=0.31435760416666664
EXTRACT: note_off channel=1 note=64 velocity=100 time=0.013020729166666665
EXTRACT: note_off channel=1 note=60 velocity=100 time=0
EXTRACT: note_off channel=1 note=57 velocity=100 time=0
EXTRACT: note_off channel=1 note=52 velocity=100 time=0
EXTRACT: note_off channel=1 note=45 velocity=100 time=0
EXTRACT: note_on channel=1 note=45 velocity=100 time=0
EXTRACT: note_on channel=1 note=52 velocity=100 time=0
EXTRACT: note_on channel=1 note=57 velocity=100 time=0
EXTRACT: note_on channel=1 note=60 velocity=100 time=0
EXTRACT: note_on channel=1 note=64 velocity=100 time=0
EXTRACT: note_off channel=5 note=33 velocity=100 time=0
EXTRACT: note_on channel=5 note=31 velocity=100 time=0
EXTRACT: note_on channel=9 note=42 velocity=127 time=0
EXTRACT: note_off channel=9 note=42 velocity=127 time=0.029761666666666662
EXTRACT: note_on channel=9 note=38 velocity=127 time=0.14880833333333332
EXTRACT: note_off channel=9 note=38 velocity=127 time=0.029761666666666662
EXTRACT: note_off channel=6 note=62 velocity=100 time=0.13578760416666666
EXTRACT: note_off channel=1 note=64 velocity=100 time=0.013020729166666665
EXTRACT: note_off channel=1 note=60 velocity=100 time=0
EXTRACT: note_off channel=1 note=57 velocity=100 time=0
EXTRACT: note_off channel=1 note=52 velocity=100 time=0
EXTRACT: note_off channel=1 note=45 velocity=100 time=0
EXTRACT: note_on channel=1 note=40 velocity=100 time=0
EXTRACT: note_on channel=1 note=47 velocity=100 time=0
EXTRACT: note_on channel=1 note=52 velocity=100 time=0
EXTRACT: note_on channel=1 note=56 velocity=100 time=0
EXTRACT: note_on channel=1 note=59 velocity=100 time=0
EXTRACT: note_on channel=1 note=64 velocity=100 time=0
EXTRACT: note_off channel=5 note=31 velocity=100 time=0
EXTRACT: note_on channel=5 note=28 velocity=100 time=0
EXTRACT: note_on channel=9 note=35 velocity=127 time=0
EXTRACT: note_on channel=9 note=36 velocity=127 time=0
EXTRACT: note_on channel=9 note=42 velocity=127 time=0
EXTRACT: note_on channel=6 note=62 velocity=100 time=0.011160624999999999
EXTRACT: note_off channel=9 note=42 velocity=127 time=0.018601041666666665
EXTRACT: note_off channel=9 note=36 velocity=127 time=0
EXTRACT: note_off channel=9 note=35 velocity=127 time=0.059523333333333324
EXTRACT: note_on channel=9 note=38 velocity=127 time=0.08928499999999999
EXTRACT: note_off channel=9 note=38 velocity=127 time=0.029761666666666662
EXTRACT: note_off channel=5 note=28 velocity=100 time=0.14880833333333332
EXTRACT: note_on channel=5 note=28 velocity=100 time=0
EXTRACT: note_on channel=6 note=60 velocity=100 time=0
EXTRACT: note_on channel=9 note=36 velocity=127 time=0
EXTRACT: note_on channel=9 note=42 velocity=127 time=0
EXTRACT: note_on channel=9 note=35 velocity=127 time=0
EXTRACT: note_off channel=6 note=62 velocity=100 time=0.011160624999999999
EXTRACT: note_off channel=9 note=42 velocity=127 time=0.018601041666666665
EXTRACT: note_off channel=9 note=36 velocity=127 time=0
EXTRACT: note_off channel=9 note=35 velocity=127 time=0.059523333333333324
EXTRACT: note_on channel=9 note=38 velocity=127 time=0.2380933333333333
EXTRACT: note_on channel=6 note=64 velocity=100 time=0.005580312499999999
EXTRACT: note_off channel=1 note=64 velocity=100 time=0.024181354166666662
EXTRACT: note_off channel=1 note=59 velocity=100 time=0
EXTRACT: note_off channel=1 note=56 velocity=100 time=0
EXTRACT: note_off channel=1 note=52 velocity=100 time=0
EXTRACT: note_off channel=1 note=47 velocity=100 time=0
EXTRACT: note_off channel=1 note=40 velocity=100 time=0
EXTRACT: note_on channel=1 note=56 velocity=100 time=0
EXTRACT: note_on channel=1 note=40 velocity=100 time=0
EXTRACT: note_on channel=1 note=47 velocity=100 time=0
EXTRACT: note_on channel=1 note=52 velocity=100 time=0
EXTRACT: note_on channel=1 note=59 velocity=100 time=0
EXTRACT: note_on channel=1 note=64 velocity=100 time=0
EXTRACT: note_off channel=5 note=28 velocity=100 time=0
EXTRACT: note_on channel=5 note=28 velocity=100 time=0
EXTRACT: note_off channel=6 note=60 velocity=100 time=0
EXTRACT: note_off channel=9 note=38 velocity=127 time=0
EXTRACT: note_on channel=9 note=42 velocity=127 time=0
EXTRACT: note_off channel=9 note=42 velocity=127 time=0.029761666666666662
EXTRACT: note_off channel=6 note=64 velocity=100 time=0.3031969791666666
EXTRACT: note_off channel=1 note=64 velocity=100 time=0.024181354166666662
EXTRACT: note_off channel=1 note=59 velocity=100 time=0
EXTRACT: note_off channel=1 note=52 velocity=100 time=0
EXTRACT: note_off channel=1 note=47 velocity=100 time=0
EXTRACT: note_off channel=1 note=40 velocity=100 time=0
EXTRACT: note_off channel=1 note=56 velocity=100 time=0
EXTRACT: note_on channel=1 note=56 velocity=100 time=0
EXTRACT: note_on channel=1 note=40 velocity=100 time=0
EXTRACT: note_on channel=1 note=47 velocity=100 time=0
EXTRACT: note_on channel=1 note=52 velocity=100 time=0
EXTRACT: note_on channel=1 note=59 velocity=100 time=0
EXTRACT: note_on channel=1 note=64 velocity=100 time=0
EXTRACT: note_off channel=5 note=28 velocity=100 time=0
EXTRACT: note_on channel=5 note=28 velocity=100 time=0
EXTRACT: note_on channel=6 note=62 velocity=100 time=0
EXTRACT: note_on channel=9 note=42 velocity=127 time=0
EXTRACT: note_off channel=9 note=42 velocity=127 time=0.029761666666666662
EXTRACT: note_off channel=5 note=28 velocity=100 time=0.14880833333333332
EXTRACT: note_on channel=5 note=28 velocity=100 time=0
EXTRACT: note_on channel=9 note=38 velocity=127 time=0
EXTRACT: note_off channel=9 note=38 velocity=127 time=0.029761666666666662
EXTRACT: note_off channel=1 note=64 velocity=100 time=0.14880833333333332
EXTRACT: note_off channel=1 note=59 velocity=100 time=0
EXTRACT: note_off channel=1 note=52 velocity=100 time=0
EXTRACT: note_off channel=1 note=47 velocity=100 time=0
EXTRACT: note_off channel=1 note=40 velocity=100 time=0
EXTRACT: note_off channel=1 note=56 velocity=100 time=0
EXTRACT: note_on channel=1 note=41 velocity=100 time=0
EXTRACT: note_on channel=1 note=48 velocity=100 time=0
EXTRACT: note_on channel=1 note=53 velocity=100 time=0
EXTRACT: note_on channel=1 note=57 velocity=100 time=0
EXTRACT: note_on channel=1 note=60 velocity=100 time=0
EXTRACT: note_off channel=5 note=28 velocity=100 time=0
EXTRACT: note_on channel=5 note=29 velocity=100 time=0
EXTRACT: note_on channel=9 note=35 velocity=127 time=0
EXTRACT: note_on channel=9 note=36 velocity=127 time=0
EXTRACT: note_on channel=9 note=42 velocity=127 time=0
EXTRACT: note_off channel=9 note=42 velocity=127 time=0.029761666666666662
EXTRACT: note_off channel=9 note=36 velocity=127 time=0
EXTRACT: note_off channel=9 note=35 velocity=127 time=0.059523333333333324
EXTRACT: note_off channel=6 note=62 velocity=100 time=0.08928499999999999
EXTRACT: note_on channel=6 note=64 velocity=100 time=0
EXTRACT: note_on channel=9 note=38 velocity=127 time=0
EXTRACT: note_off channel=9 note=38 velocity=127 time=0.029761666666666662
EXTRACT: note_on channel=2 note=55 velocity=100 time=0.05208291666666666
EXTRACT: note_on channel=2 note=60 velocity=100 time=0.05394302083333333
EXTRACT: note_on channel=2 note=57 velocity=100 time=0.018601041666666665
EXTRACT: note_off channel=2 note=55 velocity=100 time=0.016740937499999997
EXTRACT: note_off channel=5 note=29 velocity=100 time=0.0074404166666666655
EXTRACT: note_on channel=5 note=29 velocity=100 time=0
EXTRACT: note_off channel=6 note=64 velocity=100 time=0
EXTRACT: note_on channel=6 note=60 velocity=100 time=0
EXTRACT: note_on channel=9 note=42 velocity=127 time=0
EXTRACT: note_off channel=9 note=42 velocity=127 time=0.029761666666666662
EXTRACT: note_off channel=2 note=60 velocity=100 time=0.28459593749999995
EXTRACT: note_on channel=2 note=60 velocity=100 time=0
EXTRACT: note_off channel=2 note=57 velocity=100 time=0.018601041666666665
EXTRACT: note_on channel=2 note=55 velocity=100 time=0.011160624999999999
EXTRACT: note_off channel=1 note=60 velocity=100 time=0.013020729166666665
EXTRACT: note_off channel=1 note=57 velocity=100 time=0
EXTRACT: note_off channel=1 note=53 velocity=100 time=0
EXTRACT: note_off channel=1 note=48 velocity=100 time=0
EXTRACT: note_off channel=1 note=41 velocity=100 time=0
EXTRACT: note_on channel=1 note=41 velocity=100 time=0
EXTRACT: note_on channel=1 note=48 velocity=100 time=0
EXTRACT: note_on channel=1 note=53 velocity=100 time=0
EXTRACT: note_on channel=1 note=57 velocity=100 time=0
EXTRACT: note_on channel=1 note=60 velocity=100 time=0
EXTRACT: note_off channel=5 note=29 velocity=100 time=0
EXTRACT: note_on channel=5 note=29 velocity=100 time=0
EXTRACT: note_on channel=9 note=38 velocity=127 time=0
EXTRACT: note_on channel=9 note=42 velocity=127 time=0
EXTRACT: note_off channel=9 note=42 velocity=127 time=0.029761666666666662
EXTRACT: note_off channel=9 note=38 velocity=127 time=0
EXTRACT: note_off channel=1 note=60 velocity=100 time=0.32737833333333327
EXTRACT: note_off channel=1 note=57 velocity=100 time=0
EXTRACT: note_off channel=1 note=53 velocity=100 time=0
EXTRACT: note_off channel=1 note=48 velocity=100 time=0
EXTRACT: note_off channel=1 note=41 velocity=100 time=0
EXTRACT: note_on channel=1 note=41 velocity=100 time=0
EXTRACT: note_on channel=1 note=48 velocity=100 time=0
EXTRACT: note_on channel=1 note=53 velocity=100 time=0
EXTRACT: note_on channel=1 note=57 velocity=100 time=0
EXTRACT: note_on channel=1 note=60 velocity=100 time=0
EXTRACT: note_off channel=5 note=29 velocity=100 time=0
EXTRACT: note_on channel=5 note=30 velocity=100 time=0
EXTRACT: note_on channel=9 note=42 velocity=127 time=0
EXTRACT: note_off channel=9 note=42 velocity=127 time=0.029761666666666662
EXTRACT: note_off channel=2 note=60 velocity=100 time=0.10602593749999999
EXTRACT: note_off channel=2 note=55 velocity=100 time=0.029761666666666662
EXTRACT: note_on channel=2 note=50 velocity=100 time=0.013020729166666665
EXTRACT: note_on channel=9 note=38 velocity=127 time=0
EXTRACT: note_off channel=9 note=38 velocity=127 time=0.029761666666666662
EXTRACT: note_off channel=1 note=60 velocity=100 time=0.14880833333333332
EXTRACT: note_off channel=1 note=57 velocity=100 time=0
EXTRACT: note_off channel=1 note=53 velocity=100 time=0
EXTRACT: note_off channel=1 note=48 velocity=100 time=0
EXTRACT: note_off channel=1 note=41 velocity=100 time=0
EXTRACT: note_on channel=1 note=43 velocity=100 time=0
EXTRACT: note_on channel=1 note=50 velocity=100 time=0
EXTRACT: note_on channel=1 note=55 velocity=100 time=0
EXTRACT: note_on channel=1 note=59 velocity=100 time=0
EXTRACT: note_on channel=1 note=62 velocity=100 time=0
EXTRACT: note_off channel=2 note=50 velocity=100 time=0
EXTRACT: note_off channel=5 note=30 velocity=100 time=0
EXTRACT: note_on channel=5 note=31 velocity=100 time=0
EXTRACT: note_off channel=6 note=60 velocity=100 time=0
EXTRACT: note_on channel=9 note=35 velocity=127 time=0
EXTRACT: note_on channel=9 note=36 velocity=127 time=0
EXTRACT: note_on channel=9 note=42 velocity=127 time=0
EXTRACT: note_on channel=2 note=50 velocity=100 time=0.022321249999999997
EXTRACT: note_off channel=9 note=42 velocity=127 time=0.0074404166666666655
EXTRACT: note_off channel=9 note=36 velocity=127 time=0
EXTRACT: note_off channel=9 note=35 velocity=127 time=0.059523333333333324
EXTRACT: note_on channel=2 note=52 velocity=100 time=0.07626427083333333
EXTRACT: note_on channel=9 note=38 velocity=127 time=0.013020729166666665
EXTRACT: note_off channel=2 note=50 velocity=100 time=0.022321249999999997
EXTRACT: note_off channel=9 note=38 velocity=127 time=0.0074404166666666655
EXTRACT: note_on channel=2 note=55 velocity=100 time=0.12462697916666665
EXTRACT: note_off channel=2 note=52 velocity=100 time=0.011160624999999999
EXTRACT: note_off channel=1 note=62 velocity=100 time=0.013020729166666665
EXTRACT: note_off channel=1 note=59 velocity=100 time=0
EXTRACT: note_off channel=1 note=55 velocity=100 time=0
EXTRACT: note_off channel=1 note=50 velocity=100 time=0
EXTRACT: note_off channel=1 note=43 velocity=100 time=0
EXTRACT: note_on channel=1 note=43 velocity=100 time=0
EXTRACT: note_on channel=1 note=50 velocity=100 time=0
EXTRACT: note_on channel=1 note=55 velocity=100 time=0
EXTRACT: note_on channel=1 note=59 velocity=100 time=0
EXTRACT: note_on channel=1 note=62 velocity=100 time=0
EXTRACT: note_off channel=5 note=31 velocity=100 time=0
EXTRACT: note_on channel=5 note=31 velocity=100 time=0
EXTRACT: note_on channel=6 note=60 velocity=100 time=0
EXTRACT: note_on channel=9 note=35 velocity=127 time=0
EXTRACT: note_on channel=9 note=36 velocity=127 time=0
EXTRACT: note_on channel=9 note=42 velocity=127 time=0
EXTRACT: note_off channel=9 note=42 velocity=127 time=0.029761666666666662
EXTRACT: note_off channel=9 note=36 velocity=127 time=0
EXTRACT: note_off channel=9 note=35 velocity=127 time=0.059523333333333324
EXTRACT: note_off channel=6 note=60 velocity=100 time=0.08928499999999999
EXTRACT: note_on channel=6 note=57 velocity=100 time=0.011160624999999999
EXTRACT: note_on channel=2 note=55 velocity=100 time=0.11904666666666665
EXTRACT: note_on channel=9 note=38 velocity=127 time=0.018601041666666665
EXTRACT: note_off channel=2 note=55 velocity=100 time=0.005580312499999999
EXTRACT: note_on channel=2 note=57 velocity=100 time=0
EXTRACT: note_on channel=6 note=60 velocity=100 time=0
EXTRACT: note_off channel=1 note=62 velocity=100 time=0.024181354166666662
EXTRACT: note_off channel=1 note=59 velocity=100 time=0
EXTRACT: note_off channel=1 note=55 velocity=100 time=0
EXTRACT: note_off channel=1 note=50 velocity=100 time=0
EXTRACT: note_off channel=1 note=43 velocity=100 time=0
EXTRACT: note_on channel=1 note=43 velocity=100 time=0
EXTRACT: note_on channel=1 note=50 velocity=100 time=0
EXTRACT: note_on channel=1 note=55 velocity=100 time=0
EXTRACT: note_on channel=1 note=59 velocity=100 time=0
EXTRACT: note_on channel=1 note=62 velocity=100 time=0
EXTRACT: note_off channel=5 note=31 velocity=100 time=0
EXTRACT: note_on channel=5 note=31 velocity=100 time=0
EXTRACT: note_off channel=9 note=38 velocity=127 time=0
EXTRACT: note_on channel=9 note=42 velocity=127 time=0
EXTRACT: note_off channel=6 note=57 velocity=100 time=0.011160624999999999
EXTRACT: note_off channel=9 note=42 velocity=127 time=0.018601041666666665
EXTRACT: note_off channel=2 note=55 velocity=100 time=0.011160624999999999
EXTRACT: note_off channel=6 note=60 velocity=100 time=0.11346635416666664
EXTRACT: note_on channel=6 note=60 velocity=100 time=0.011160624999999999
EXTRACT: note_off channel=2 note=57 velocity=100 time=0.16740937499999997
EXTRACT: note_off channel=1 note=62 velocity=100 time=0.024181354166666662
EXTRACT: note_off channel=1 note=59 velocity=100 time=0
EXTRACT: note_off channel=1 note=55 velocity=100 time=0
EXTRACT: note_off channel=1 note=50 velocity=100 time=0
EXTRACT: note_off channel=1 note=43 velocity=100 time=0
EXTRACT: note_on channel=1 note=43 velocity=100 time=0
EXTRACT: note_on channel=1 note=50 velocity=100 time=0
EXTRACT: note_on channel=1 note=55 velocity=100 time=0
EXTRACT: note_on channel=1 note=59 velocity=100 time=0
EXTRACT: note_on channel=1 note=62 velocity=100 time=0
EXTRACT: note_off channel=5 note=31 velocity=100 time=0
EXTRACT: note_on channel=5 note=35 velocity=100 time=0
EXTRACT: note_on channel=9 note=42 velocity=127 time=0
EXTRACT: note_on channel=2 note=60 velocity=100 time=0.005580312499999999
EXTRACT: note_off channel=9 note=42 velocity=127 time=0.024181354166666662
EXTRACT: note_off channel=6 note=60 velocity=100 time=0.13578760416666666
EXTRACT: note_on channel=6 note=60 velocity=100 time=0.013020729166666665
EXTRACT: note_on channel=9 note=38 velocity=127 time=0
EXTRACT: note_off channel=2 note=60 velocity=100 time=0.005580312499999999
EXTRACT: note_on channel=2 note=62 velocity=100 time=0
EXTRACT: note_off channel=9 note=38 velocity=127 time=0.024181354166666662
EXTRACT: note_on channel=9 note=38 velocity=127 time=0.029761666666666662
EXTRACT: note_off channel=9 note=38 velocity=127 time=0.029761666666666662
EXTRACT: note_off channel=1 note=62 velocity=100 time=0.08928499999999999
EXTRACT: note_off channel=1 note=59 velocity=100 time=0
EXTRACT: note_off channel=1 note=55 velocity=100 time=0
EXTRACT: note_off channel=1 note=50 velocity=100 time=0
EXTRACT: note_off channel=1 note=43 velocity=100 time=0
EXTRACT: note_on channel=1 note=48 velocity=100 time=0
EXTRACT: note_on channel=1 note=52 velocity=100 time=0
EXTRACT: note_on channel=1 note=55 velocity=100 time=0
EXTRACT: note_on channel=1 note=60 velocity=100 time=0
EXTRACT: note_on channel=1 note=64 velocity=100 time=0
EXTRACT: note_on channel=2 note=60 velocity=100 time=0
EXTRACT: note_off channel=5 note=35 velocity=100 time=0
EXTRACT: note_on channel=5 note=36 velocity=100 time=0
EXTRACT: note_on channel=9 note=35 velocity=127 time=0
EXTRACT: note_on channel=9 note=36 velocity=127 time=0
EXTRACT: note_on channel=9 note=42 velocity=127 time=0
EXTRACT: note_off channel=2 note=62 velocity=100 time=0.005580312499999999
EXTRACT: pitchwheel channel=2 pitch=256 time=0.016740937499999997
EXTRACT: note_off channel=9 note=42 velocity=127 time=0.0074404166666666655
EXTRACT: note_off channel=9 note=36 velocity=127 time=0
EXTRACT: pitchwheel channel=2 pitch=384 time=0.016740937499999997
EXTRACT: pitchwheel channel=2 pitch=512 time=0.013020729166666665
EXTRACT: pitchwheel channel=2 pitch=256 time=0.011160624999999999
EXTRACT: pitchwheel channel=2 pitch=0 time=0.011160624999999999
EXTRACT: note_off channel=9 note=35 velocity=127 time=0.0074404166666666655
EXTRACT: pitchwheel channel=2 pitch=-128 time=0.005580312499999999
EXTRACT: pitchwheel channel=2 pitch=-256 time=0.024181354166666662
EXTRACT: pitchwheel channel=2 pitch=256 time=0.04650260416666666
EXTRACT: note_on channel=6 note=57 velocity=100 time=0
EXTRACT: note_off channel=6 note=60 velocity=100 time=0.013020729166666665
EXTRACT: note_on channel=9 note=38 velocity=127 time=0
EXTRACT: pitchwheel channel=2 pitch=384 time=0.011160624999999999
EXTRACT: note_off channel=9 note=38 velocity=127 time=0.018601041666666665
EXTRACT: pitchwheel channel=2 pitch=256 time=0.005580312499999999
EXTRACT: pitchwheel channel=2 pitch=0 time=0.024181354166666662
EXTRACT: pitchwheel channel=2 pitch=-256 time=0.011160624999999999
EXTRACT: pitchwheel channel=2 pitch=0 time=0.048362708333333324
EXTRACT: pitchwheel channel=2 pitch=512 time=0.011160624999999999
EXTRACT: pitchwheel channel=2 pitch=768 time=0.011160624999999999
EXTRACT: pitchwheel channel=2 pitch=0 time=0.024181354166666662
EXTRACT: note_off channel=6 note=57 velocity=100 time=0
EXTRACT: pitchwheel channel=2 pitch=-128 time=0.013020729166666665
EXTRACT: note_on channel=9 note=42 velocity=127 time=0
EXTRACT: note_on channel=6 note=55 velocity=100 time=0.022321249999999997
EXTRACT: note_off channel=9 note=42 velocity=127 time=0.0074404166666666655
EXTRACT: pitchwheel channel=2 pitch=0 time=0.016740937499999997
EXTRACT: pitchwheel channel=2 pitch=640 time=0.013020729166666665
EXTRACT: pitchwheel channel=2 pitch=512 time=0.011160624999999999
EXTRACT: pitchwheel channel=2 pitch=0 time=0.011160624999999999
EXTRACT: pitchwheel channel=2 pitch=-384 time=0.013020729166666665
EXTRACT: pitchwheel channel=2 pitch=-512 time=0.011160624999999999
EXTRACT: pitchwheel channel=2 pitch=-384 time=0.048362708333333324
EXTRACT: pitchwheel channel=2 pitch=640 time=0.011160624999999999
EXTRACT: pitchwheel channel=2 pitch=512 time=0.048362708333333324
EXTRACT: pitchwheel channel=2 pitch=-256 time=0.011160624999999999
EXTRACT: pitchwheel channel=2 pitch=-128 time=0.059523333333333324
EXTRACT: pitchwheel channel=2 pitch=0 time=0.013020729166666665
EXTRACT: pitchwheel channel=2 pitch=640 time=0.011160624999999999
EXTRACT: pitchwheel channel=2 pitch=768 time=0.011160624999999999
EXTRACT: pitchwheel channel=2 pitch=0 time=0.013020729166666665
EXTRACT: note_off channel=1 note=64 velocity=100 time=0.024181354166666662
EXTRACT: note_off channel=1 note=60 velocity=100 time=0
EXTRACT: note_off channel=1 note=55 velocity=100 time=0
EXTRACT: note_off channel=1 note=52 velocity=100 time=0
EXTRACT: note_off channel=1 note=48 velocity=100 time=0
EXTRACT: note_on channel=1 note=48 velocity=100 time=0
EXTRACT: note_on channel=1 note=52 velocity=100 time=0
EXTRACT: note_on channel=1 note=55 velocity=100 time=0
EXTRACT: note_on channel=1 note=60 velocity=100 time=0
EXTRACT: note_on channel=1 note=64 velocity=100 time=0
EXTRACT: pitchwheel channel=2 pitch=-128 time=0
EXTRACT: note_off channel=5 note=36 velocity=100 time=0
EXTRACT: note_on channel=5 note=36 velocity=100 time=0
EXTRACT: note_on channel=9 note=38 velocity=127 time=0
EXTRACT: note_on channel=9 note=42 velocity=127 time=0
EXTRACT: note_off channel=9 note=38 velocity=127 time=0.005580312499999999
EXTRACT: pitchwheel channel=2 pitch=-256 time=0.005580312499999999
EXTRACT: note_off channel=6 note=55 velocity=100 time=0.011160624999999999
EXTRACT: note_off channel=9 note=42 velocity=127 time=0.0074404166666666655
EXTRACT: pitchwheel channel=2 pitch=128 time=0.029761666666666662
EXTRACT: pitchwheel channel=2 pitch=512 time=0.011160624999999999
EXTRACT: pitchwheel channel=2 pitch=256 time=0.08370468749999999
EXTRACT: pitchwheel channel=2 pitch=0 time=0.011160624999999999
EXTRACT: pitchwheel channel=2 pitch=256 time=0.059523333333333324
EXTRACT: pitchwheel channel=2 pitch=0 time=0.013020729166666665
EXTRACT: pitchwheel channel=2 pitch=-256 time=0.011160624999999999
EXTRACT: pitchwheel channel=2 pitch=-384 time=0.011160624999999999
EXTRACT: pitchwheel channel=2 pitch=-256 time=0.048362708333333324
EXTRACT: pitchwheel channel=2 pitch=0 time=0.011160624999999999
EXTRACT: pitchwheel channel=2 pitch=640 time=0.013020729166666665
EXTRACT: pitchwheel channel=2 pitch=384 time=0.011160624999999999
EXTRACT: note_off channel=1 note=64 velocity=100 time=0.013020729166666665
EXTRACT: note_off channel=1 note=60 velocity=100 time=0
EXTRACT: note_off channel=1 note=55 velocity=100 time=0
EXTRACT: note_off channel=1 note=52 velocity=100 time=0
EXTRACT: note_off channel=1 note=48 velocity=100 time=0
EXTRACT: note_on channel=1 note=48 velocity=100 time=0
EXTRACT: note_on channel=1 note=52 velocity=100 time=0
EXTRACT: note_on channel=1 note=55 velocity=100 time=0
EXTRACT: note_on channel=1 note=60 velocity=100 time=0
EXTRACT: note_on channel=1 note=64 velocity=100 time=0
EXTRACT: pitchwheel channel=2 pitch=256 time=0
EXTRACT: note_off channel=5 note=36 velocity=100 time=0
EXTRACT: note_on channel=5 note=36 velocity=100 time=0
EXTRACT: note_on channel=9 note=42 velocity=127 time=0
EXTRACT: pitchwheel channel=2 pitch=128 time=0.011160624999999999
EXTRACT: note_off channel=9 note=42 velocity=127 time=0.018601041666666665
EXTRACT: pitchwheel channel=2 pitch=0 time=0.016740937499999997
EXTRACT: note_on channel=9 note=38 velocity=127 time=0.13206739583333332
EXTRACT: note_off channel=9 note=38 velocity=127 time=0.029761666666666662
EXTRACT: note_off channel=1 note=64 velocity=100 time=0.14880833333333332
EXTRACT: note_off channel=1 note=60 velocity=100 time=0
EXTRACT: note_off channel=1 note=55 velocity=100 time=0
EXTRACT: note_off channel=1 note=52 velocity=100 time=0
EXTRACT: note_off channel=1 note=48 velocity=100 time=0
EXTRACT: note_on channel=1 note=45 velocity=100 time=0
EXTRACT: note_on channel=1 note=52 velocity=100 time=0
EXTRACT: note_on channel=1 note=57 velocity=100 time=0
EXTRACT: note_on channel=1 note=60 velocity=100 time=0
EXTRACT: note_on channel=1 note=64 velocity=100 time=0
EXTRACT: note_off channel=2 note=60 velocity=100 time=0
EXTRACT: note_on channel=2 note=62 velocity=100 time=0
EXTRACT: note_off channel=5 note=36 velocity=100 time=0
EXTRACT: note_on channel=5 note=33 velocity=100 time=0
EXTRACT: note_on channel=9 note=36 velocity=127 time=0
EXTRACT: note_on channel=9 note=42 velocity=127 time=0
EXTRACT: pitchwheel channel=2 pitch=128 time=0.022321249999999997
EXTRACT: note_off channel=9 note=42 velocity=127 time=0.0074404166666666655
EXTRACT: note_off channel=9 note=36 velocity=127 time=0
EXTRACT: pitchwheel channel=2 pitch=256 time=0.005580312499999999
EXTRACT: pitchwheel channel=2 pitch=384 time=0.024181354166666662
EXTRACT: pitchwheel channel=2 pitch=768 time=0.011160624999999999
EXTRACT: pitchwheel channel=2 pitch=2176 time=0.011160624999999999
EXTRACT: pitchwheel channel=2 pitch=2432 time=0.013020729166666665
EXTRACT: pitchwheel channel=2 pitch=7040 time=0.011160624999999999
EXTRACT: pitchwheel channel=2 pitch=7552 time=0.013020729166666665
EXTRACT: pitchwheel channel=2 pitch=7680 time=0.022321249999999997
EXTRACT: pitchwheel channel=2 pitch=7424 time=0.024181354166666662
EXTRACT: pitchwheel channel=2 pitch=6528 time=0.013020729166666665
EXTRACT: note_on channel=9 note=38 velocity=127 time=0
EXTRACT: pitchwheel channel=2 pitch=6016 time=0.011160624999999999
EXTRACT: pitchwheel channel=2 pitch=2944 time=0.011160624999999999
EXTRACT: note_off channel=9 note=38 velocity=127 time=0.0074404166666666655
EXTRACT: pitchwheel channel=2 pitch=1024 time=0.005580312499999999
EXTRACT: pitchwheel channel=2 pitch=128 time=0.011160624999999999
EXTRACT: pitchwheel channel=2 pitch=-128 time=0.024181354166666662
EXTRACT: pitchwheel channel=2 pitch=0 time=0.011160624999999999
EXTRACT: note_off channel=1 note=64 velocity=100 time=0.09672541666666665
EXTRACT: note_off channel=1 note=60 velocity=100 time=0
EXTRACT: note_off channel=1 note=57 velocity=100 time=0
EXTRACT: note_off channel=1 note=52 velocity=100 time=0
EXTRACT: note_off channel=1 note=45 velocity=100 time=0
EXTRACT: note_on channel=1 note=45 velocity=100 time=0
EXTRACT: note_on channel=1 note=52 velocity=100 time=0
EXTRACT: note_on channel=1 note=57 velocity=100 time=0
EXTRACT: note_on channel=1 note=60 velocity=100 time=0
EXTRACT: note_on channel=1 note=64 velocity=100 time=0
EXTRACT: note_off channel=2 note=62 velocity=100 time=0
EXTRACT: note_on channel=2 note=62 velocity=100 time=0
EXTRACT: note_off channel=5 note=33 velocity=100 time=0
EXTRACT: note_on channel=5 note=33 velocity=100 time=0
EXTRACT: note_on channel=9 note=35 velocity=127 time=0
EXTRACT: note_on channel=9 note=36 velocity=127 time=0
EXTRACT: note_on channel=9 note=42 velocity=127 time=0
EXTRACT: note_off channel=9 note=42 velocity=127 time=0.029761666666666662
EXTRACT: note_off channel=9 note=36 velocity=127 time=0
EXTRACT: note_off channel=9 note=35 velocity=127 time=0.059523333333333324
EXTRACT: note_off channel=1 note=64 velocity=100 time=0.08928499999999999
EXTRACT: note_off channel=1 note=60 velocity=100 time=0
EXTRACT: note_off channel=1 note=57 velocity=100 time=0
EXTRACT: note_off channel=1 note=52 velocity=100 time=0
EXTRACT: note_off channel=1 note=45 velocity=100 time=0
EXTRACT: note_on channel=1 note=45 velocity=100 time=0
EXTRACT: note_on channel=1 note=52 velocity=100 time=0
EXTRACT: note_on channel=1 note=57 velocity=100 time=0
EXTRACT: note_on channel=1 note=60 velocity=100 time=0
EXTRACT: note_on channel=1 note=64 velocity=100 time=0
EXTRACT: note_off channel=2 note=62 velocity=100 time=0
EXTRACT: note_on channel=2 note=60 velocity=100 time=0
EXTRACT: note_on channel=9 note=38 velocity=127 time=0.14880833333333332
EXTRACT: note_off channel=9 note=38 velocity=127 time=0.016740937499999997
EXTRACT: note_off channel=1 note=64 velocity=100 time=0.013020729166666665
EXTRACT: note_off channel=1 note=60 velocity=100 time=0
EXTRACT: note_off channel=1 note=57 velocity=100 time=0
EXTRACT: note_off channel=1 note=52 velocity=100 time=0
EXTRACT: note_off channel=1 note=45 velocity=100 time=0
EXTRACT: note_on channel=1 note=43 velocity=100 time=0
EXTRACT: note_on channel=1 note=50 velocity=100 time=0
EXTRACT: note_on channel=1 note=55 velocity=100 time=0
EXTRACT: note_on channel=1 note=59 velocity=100 time=0
EXTRACT: note_on channel=1 note=67 velocity=100 time=0
EXTRACT: note_off channel=2 note=60 velocity=100 time=0
EXTRACT: note_on channel=2 note=60 velocity=100 time=0
EXTRACT: note_off channel=5 note=33 velocity=100 time=0
EXTRACT: note_on channel=5 note=31 velocity=100 time=0
EXTRACT: note_on channel=9 note=38 velocity=127 time=0
EXTRACT: note_on channel=9 note=42 velocity=127 time=0
EXTRACT: note_off channel=9 note=42 velocity=127 time=0.029761666666666662
EXTRACT: note_off channel=9 note=38 velocity=127 time=0
EXTRACT: note_on channel=9 note=38 velocity=127 time=0.14880833333333332
EXTRACT: note_off channel=9 note=38 velocity=127 time=0.029761666666666662
EXTRACT: note_off channel=1 note=67 velocity=100 time=0.14880833333333332
EXTRACT: note_off channel=1 note=59 velocity=100 time=0
EXTRACT: note_off channel=1 note=55 velocity=100 time=0
EXTRACT: note_off channel=1 note=50 velocity=100 time=0
EXTRACT: note_off channel=1 note=43 velocity=100 time=0
EXTRACT: note_on channel=1 note=43 velocity=100 time=0
EXTRACT: note_on channel=1 note=50 velocity=100 time=0
EXTRACT: note_on channel=1 note=55 velocity=100 time=0
EXTRACT: note_on channel=1 note=59 velocity=100 time=0
EXTRACT: note_on channel=1 note=67 velocity=100 time=0
EXTRACT: note_off channel=2 note=60 velocity=100 time=0
EXTRACT: note_on channel=2 note=62 velocity=100 time=0
EXTRACT: note_off channel=5 note=31 velocity=100 time=0
EXTRACT: note_on channel=5 note=35 velocity=100 time=0
EXTRACT: note_on channel=9 note=42 velocity=127 time=0
EXTRACT: note_off channel=9 note=42 velocity=127 time=0.029761666666666662
EXTRACT: note_off channel=2 note=62 velocity=100 time=0.14880833333333332
EXTRACT: note_on channel=9 note=38 velocity=127 time=0
EXTRACT: note_off channel=9 note=38 velocity=127 time=0.029761666666666662
EXTRACT: note_off channel=1 note=67 velocity=100 time=0.14880833333333332
EXTRACT: note_off channel=1 note=59 velocity=100 time=0
EXTRACT: note_off channel=1 note=55 velocity=100 time=0
EXTRACT: note_off channel=1 note=50 velocity=100 time=0
EXTRACT: note_off channel=1 note=43 velocity=100 time=0
EXTRACT: note_on channel=1 note=48 velocity=100 time=0
EXTRACT: note_on channel=1 note=52 velocity=100 time=0
EXTRACT: note_on channel=1 note=55 velocity=100 time=0
EXTRACT: note_on channel=1 note=60 velocity=100 time=0
EXTRACT: note_on channel=1 note=64 velocity=100 time=0
EXTRACT: note_on channel=2 note=60 velocity=100 time=0
EXTRACT: note_off channel=5 note=35 velocity=100 time=0
EXTRACT: note_on channel=5 note=36 velocity=100 time=0
EXTRACT: note_on channel=6 note=64 velocity=100 time=0
EXTRACT: note_on channel=9 note=36 velocity=127 time=0
EXTRACT: note_on channel=9 note=42 velocity=127 time=0
EXTRACT: note_on channel=9 note=49 velocity=127 time=0
EXTRACT: note_off channel=9 note=49 velocity=127 time=0.029761666666666662
EXTRACT: note_off channel=9 note=42 velocity=127 time=0
EXTRACT: note_off channel=9 note=36 velocity=127 time=0
EXTRACT: pitchwheel channel=2 pitch=512 time=0.029761666666666662
EXTRACT: pitchwheel channel=2 pitch=896 time=0.011160624999999999
EXTRACT: pitchwheel channel=2 pitch=1024 time=0.011160624999999999
EXTRACT: pitchwheel channel=2 pitch=896 time=0.013020729166666665
EXTRACT: pitchwheel channel=2 pitch=640 time=0.011160624999999999
EXTRACT: pitchwheel channel=2 pitch=128 time=0.013020729166666665
EXTRACT: pitchwheel channel=2 pitch=0 time=0.022321249999999997
EXTRACT: pitchwheel channel=2 pitch=512 time=0.013020729166666665
EXTRACT: pitchwheel channel=2 pitch=768 time=0.03534197916666666
EXTRACT: pitchwheel channel=2 pitch=640 time=0.024181354166666662
EXTRACT: pitchwheel channel=2 pitch=384 time=0.011160624999999999
EXTRACT: pitchwheel channel=2 pitch=-512 time=0.013020729166666665
EXTRACT: note_off channel=6 note=64 velocity=100 time=0.11904666666666665
EXTRACT: note_on channel=6 note=62 velocity=100 time=0
EXTRACT: note_on channel=9 note=42 velocity=127 time=0
EXTRACT: note_off channel=9 note=42 velocity=127 time=0.029761666666666662
EXTRACT: pitchwheel channel=2 pitch=-256 time=0.005580312499999999
EXTRACT: pitchwheel channel=2 pitch=-128 time=0.024181354166666662
EXTRACT: pitchwheel channel=2 pitch=512 time=0.011160624999999999
EXTRACT: pitchwheel channel=2 pitch=1024 time=0.024181354166666662
EXTRACT: pitchwheel channel=2 pitch=640 time=0.011160624999999999
EXTRACT: pitchwheel channel=2 pitch=384 time=0.013020729166666665
EXTRACT: pitchwheel channel=2 pitch=128 time=0.011160624999999999
EXTRACT: pitchwheel channel=2 pitch=-128 time=0.011160624999999999
EXTRACT: pitchwheel channel=2 pitch=-256 time=0.013020729166666665
EXTRACT: pitchwheel channel=2 pitch=0 time=0.1432280208333333
EXTRACT: note_on channel=5 note=36 velocity=100 time=0.016740937499999997
EXTRACT: pitchwheel channel=2 pitch=256 time=0.005580312499999999
EXTRACT: pitchwheel channel=2 pitch=1024 time=0.013020729166666665
EXTRACT: note_off channel=1 note=64 velocity=100 time=0.024181354166666662
EXTRACT: note_off channel=1 note=60 velocity=100 time=0
EXTRACT: note_off channel=1 note=55 velocity=100 time=0
EXTRACT: note_off channel=1 note=52 velocity=100 time=0
EXTRACT: note_off channel=1 note=48 velocity=100 time=0
EXTRACT: note_on channel=1 note=48 velocity=100 time=0
EXTRACT: note_on channel=1 note=52 velocity=100 time=0
EXTRACT: note_on channel=1 note=55 velocity=100 time=0
EXTRACT: note_on channel=1 note=60 velocity=100 time=0
EXTRACT: note_on channel=1 note=64 velocity=100 time=0
EXTRACT: pitchwheel channel=2 pitch=-384 time=0
EXTRACT: note_off channel=5 note=36 velocity=100 time=0
EXTRACT: note_off channel=6 note=62 velocity=100 time=0
EXTRACT: note_on channel=6 note=62 velocity=100 time=0
EXTRACT: note_on channel=9 note=38 velocity=127 time=0
EXTRACT: note_on channel=9 note=42 velocity=127 time=0
EXTRACT: pitchwheel channel=2 pitch=-512 time=0.011160624999999999
EXTRACT: note_off channel=9 note=42 velocity=127 time=0.018601041666666665
EXTRACT: note_off channel=9 note=38 velocity=127 time=0
EXTRACT: pitchwheel channel=2 pitch=-256 time=0.07626427083333333
EXTRACT: pitchwheel channel=2 pitch=512 time=0.013020729166666665
EXTRACT: pitchwheel channel=2 pitch=640 time=0.011160624999999999
EXTRACT: pitchwheel channel=2 pitch=768 time=0.011160624999999999
EXTRACT: pitchwheel channel=2 pitch=384 time=0.059523333333333324
EXTRACT: pitchwheel channel=2 pitch=128 time=0.013020729166666665
EXTRACT: pitchwheel channel=2 pitch=768 time=0.07068395833333332
EXTRACT: pitchwheel channel=2 pitch=384 time=0.013020729166666665
EXTRACT: pitchwheel channel=2 pitch=-128 time=0.011160624999999999
EXTRACT: note_off channel=5 note=36 velocity=100 time=0.005580312499999999
EXTRACT: pitchwheel channel=2 pitch=-384 time=0.005580312499999999
EXTRACT: pitchwheel channel=2 pitch=-512 time=0.013020729166666665
EXTRACT: note_off channel=1 note=64 velocity=100 time=0.024181354166666662
EXTRACT: note_off channel=1 note=60 velocity=100 time=0
EXTRACT: note_off channel=1 note=55 velocity=100 time=0
EXTRACT: note_off channel=1 note=52 velocity=100 time=0
EXTRACT: note_off channel=1 note=48 velocity=100 time=0
EXTRACT: note_on channel=1 note=48 velocity=100 time=0
EXTRACT: note_on channel=1 note=52 velocity=100 time=0
EXTRACT: note_on channel=1 note=55 velocity=100 time=0
EXTRACT: note_on channel=1 note=60 velocity=100 time=0
EXTRACT: note_on channel=1 note=64 velocity=100 time=0
EXTRACT: note_off channel=6 note=62 velocity=100 time=0
EXTRACT: note_on channel=6 note=60 velocity=100 time=0
EXTRACT: note_on channel=9 note=42 velocity=127 time=0
EXTRACT: note_on channel=5 note=35 velocity=100 time=0.022321249999999997
EXTRACT: note_off channel=9 note=42 velocity=127 time=0.0074404166666666655
EXTRACT: pitchwheel channel=2 pitch=-256 time=0.05208291666666666
EXTRACT: pitchwheel channel=2 pitch=256 time=0.024181354166666662
EXTRACT: pitchwheel channel=2 pitch=768 time=0.013020729166666665
EXTRACT: pitchwheel channel=2 pitch=640 time=0.011160624999999999
EXTRACT: pitchwheel channel=2 pitch=384 time=0.024181354166666662
EXTRACT: pitchwheel channel=2 pitch=256 time=0.011160624999999999
EXTRACT: pitchwheel channel=2 pitch=-128 time=0.013020729166666665
EXTRACT: note_on channel=9 note=38 velocity=127 time=0
EXTRACT: pitchwheel channel=2 pitch=-384 time=0.011160624999999999
EXTRACT: note_off channel=9 note=38 velocity=127 time=0.018601041666666665
EXTRACT: pitchwheel channel=2 pitch=-256 time=0.005580312499999999
EXTRACT: pitchwheel channel=2 pitch=0 time=0.03534197916666666
EXTRACT: pitchwheel channel=2 pitch=768 time=0.011160624999999999
EXTRACT: pitchwheel channel=2 pitch=896 time=0.013020729166666665
EXTRACT: pitchwheel channel=2 pitch=1152 time=0.024181354166666662
EXTRACT: pitchwheel channel=2 pitch=1280 time=0.011160624999999999
EXTRACT: pitchwheel channel=2 pitch=768 time=0.011160624999999999
EXTRACT: pitchwheel channel=2 pitch=640 time=0.013020729166666665
EXTRACT: pitchwheel channel=2 pitch=512 time=0.011160624999999999
EXTRACT: note_off channel=1 note=64 velocity=100 time=0.013020729166666665
EXTRACT: note_off channel=1 note=60 velocity=100 time=0
EXTRACT: note_off channel=1 note=55 velocity=100 time=0
EXTRACT: note_off channel=1 note=52 velocity=100 time=0
EXTRACT: note_off channel=1 note=48 velocity=100 time=0
EXTRACT: note_on channel=1 note=43 velocity=100 time=0
EXTRACT: note_on channel=1 note=50 velocity=100 time=0
EXTRACT: note_on channel=1 note=55 velocity=100 time=0
EXTRACT: note_on channel=1 note=59 velocity=100 time=0
EXTRACT: note_on channel=1 note=67 velocity=100 time=0
EXTRACT: pitchwheel channel=2 pitch=384 time=0
EXTRACT: note_off channel=6 note=60 velocity=100 time=0
EXTRACT: note_on channel=6 note=62 velocity=100 time=0
EXTRACT: note_on channel=9 note=35 velocity=127 time=0
EXTRACT: note_on channel=9 note=36 velocity=127 time=0
EXTRACT: note_on channel=9 note=42 velocity=127 time=0
EXTRACT: pitchwheel channel=2 pitch=256 time=0.011160624999999999
EXTRACT: note_off channel=5 note=35 velocity=100 time=0.011160624999999999
EXTRACT: note_on channel=5 note=31 velocity=100 time=0
EXTRACT: note_off channel=9 note=42 velocity=127 time=0.0074404166666666655
EXTRACT: note_off channel=9 note=36 velocity=127 time=0
EXTRACT: note_off channel=9 note=35 velocity=127 time=0
EXTRACT: pitchwheel channel=2 pitch=0 time=0.12462697916666665
EXTRACT: pitchwheel channel=2 pitch=-128 time=0.024181354166666662
EXTRACT: pitchwheel channel=2 pitch=256 time=0.022321249999999997
EXTRACT: pitchwheel channel=2 pitch=384 time=0.013020729166666665
EXTRACT: pitchwheel channel=2 pitch=640 time=0.011160624999999999
EXTRACT: pitchwheel channel=2 pitch=896 time=0.048362708333333324
EXTRACT: pitchwheel channel=2 pitch=128 time=0.03534197916666666
EXTRACT: pitchwheel channel=2 pitch=-1152 time=0.011160624999999999
EXTRACT: pitchwheel channel=2 pitch=-1024 time=0.024181354166666662
EXTRACT: pitchwheel channel=2 pitch=-768 time=0.013020729166666665
EXTRACT: note_on channel=5 note=31 velocity=100 time=0
EXTRACT: note_off channel=6 note=62 velocity=100 time=0
EXTRACT: note_on channel=6 note=60 velocity=100 time=0
EXTRACT: note_on channel=9 note=36 velocity=127 time=0
EXTRACT: note_on channel=9 note=35 velocity=127 time=0
EXTRACT: note_on channel=9 note=36 velocity=127 time=0
EXTRACT: note_on channel=9 note=42 velocity=127 time=0
EXTRACT: pitchwheel channel=2 pitch=-512 time=0.011160624999999999
EXTRACT: note_off channel=5 note=31 velocity=100 time=0.011160624999999999
EXTRACT: note_off channel=9 note=42 velocity=127 time=0.0074404166666666655
EXTRACT: note_off channel=9 note=36 velocity=127 time=0
EXTRACT: note_off channel=9 note=36 velocity=127 time=0
EXTRACT: pitchwheel channel=2 pitch=-256 time=0.005580312499999999
EXTRACT: pitchwheel channel=2 pitch=0 time=0.011160624999999999
EXTRACT: pitchwheel channel=2 pitch=768 time=0.013020729166666665
EXTRACT: pitchwheel channel=2 pitch=-384 time=0.011160624999999999
EXTRACT: pitchwheel channel=2 pitch=768 time=0.011160624999999999
EXTRACT: note_off channel=9 note=35 velocity=127 time=0.0074404166666666655
EXTRACT: pitchwheel channel=2 pitch=-256 time=0.05208291666666666
EXTRACT: pitchwheel channel=2 pitch=768 time=0.07254406249999999
EXTRACT: pitchwheel channel=2 pitch=1024 time=0.024181354166666662
EXTRACT: pitchwheel channel=2 pitch=-1280 time=0.011160624999999999
EXTRACT: pitchwheel channel=2 pitch=-512 time=0.07068395833333332
EXTRACT: note_on channel=9 note=38 velocity=127 time=0.0074404166666666655
EXTRACT: pitchwheel channel=2 pitch=256 time=0.016740937499999997
EXTRACT: note_off channel=1 note=67 velocity=100 time=0.013020729166666665
EXTRACT: note_off channel=1 note=59 velocity=100 time=0
EXTRACT: note_off channel=1 note=55 velocity=100 time=0
EXTRACT: note_off channel=1 note=50 velocity=100 time=0
EXTRACT: note_off channel=1 note=43 velocity=100 time=0
EXTRACT: note_on channel=1 note=43 velocity=100 time=0
EXTRACT: note_on channel=1 note=50 velocity=100 time=0
EXTRACT: note_on channel=1 note=55 velocity=100 time=0
EXTRACT: note_on channel=1 note=59 velocity=100 time=0
EXTRACT: note_on channel=1 note=67 velocity=100 time=0
EXTRACT: note_off channel=5 note=31 velocity=100 time=0
EXTRACT: note_on channel=5 note=31 velocity=100 time=0
EXTRACT: note_off channel=6 note=60 velocity=100 time=0
EXTRACT: note_on channel=6 note=64 velocity=100 time=0
EXTRACT: note_off channel=9 note=38 velocity=127 time=0
EXTRACT: note_on channel=9 note=42 velocity=127 time=0
EXTRACT: pitchwheel channel=2 pitch=512 time=0.011160624999999999
EXTRACT: pitchwheel channel=2 pitch=640 time=0.011160624999999999
EXTRACT: note_off channel=9 note=42 velocity=127 time=0.0074404166666666655
EXTRACT: pitchwheel channel=2 pitch=-1152 time=0.005580312499999999
EXTRACT: pitchwheel channel=2 pitch=-384 time=0.07068395833333332
EXTRACT: pitchwheel channel=2 pitch=640 time=0.024181354166666662
EXTRACT: pitchwheel channel=2 pitch=-896 time=0.011160624999999999
EXTRACT: pitchwheel channel=2 pitch=1152 time=0.013020729166666665
EXTRACT: pitchwheel channel=2 pitch=-128 time=0.011160624999999999
EXTRACT: pitchwheel channel=2 pitch=0 time=0.09486531249999998
EXTRACT: pitchwheel channel=2 pitch=-256 time=0.07254406249999999
EXTRACT: pitchwheel channel=2 pitch=0 time=0.011160624999999999
EXTRACT: note_off channel=1 note=67 velocity=100 time=0.013020729166666665
EXTRACT: note_off channel=1 note=59 velocity=100 time=0
EXTRACT: note_off channel=1 note=55 velocity=100 time=0
EXTRACT: note_off channel=1 note=50 velocity=100 time=0
EXTRACT: note_off channel=1 note=43 velocity=100 time=0
EXTRACT: note_on channel=1 note=43 velocity=100 time=0
EXTRACT: note_on channel=1 note=50 velocity=100 time=0
EXTRACT: note_on channel=1 note=55 velocity=100 time=0
EXTRACT: note_on channel=1 note=59 velocity=100 time=0
EXTRACT: note_on channel=1 note=67 velocity=100 time=0
EXTRACT: note_off channel=5 note=31 velocity=100 time=0
EXTRACT: note_on channel=5 note=31 velocity=100 time=0
EXTRACT: note_off channel=6 note=64 velocity=100 time=0
EXTRACT: note_on channel=6 note=62 velocity=100 time=0
EXTRACT: note_on channel=9 note=42 velocity=127 time=0
EXTRACT: pitchwheel channel=2 pitch=384 time=0.011160624999999999
EXTRACT: note_off channel=9 note=42 velocity=127 time=0.018601041666666665
EXTRACT: pitchwheel channel=2 pitch=512 time=0.029761666666666662
EXTRACT: pitchwheel channel=2 pitch=640 time=0.011160624999999999
EXTRACT: pitchwheel channel=2 pitch=768 time=0.011160624999999999
EXTRACT: pitchwheel channel=2 pitch=-384 time=0.013020729166666665
EXTRACT: pitchwheel channel=2 pitch=-256 time=0.04650260416666666
EXTRACT: pitchwheel channel=2 pitch=0 time=0.024181354166666662
EXTRACT: note_off channel=5 note=31 velocity=100 time=0.013020729166666665
EXTRACT: note_on channel=5 note=32 velocity=100 time=0
EXTRACT: note_on channel=9 note=38 velocity=127 time=0
EXTRACT: note_off channel=9 note=38 velocity=127 time=0.029761666666666662
EXTRACT: note_on channel=9 note=38 velocity=127 time=0.029761666666666662
EXTRACT: note_off channel=9 note=38 velocity=127 time=0.029761666666666662
EXTRACT: note_off channel=1 note=67 velocity=100 time=0.08928499999999999
EXTRACT: note_off channel=1 note=59 velocity=100 time=0
EXTRACT: note_off channel=1 note=55 velocity=100 time=0
EXTRACT: note_off channel=1 note=50 velocity=100 time=0
EXTRACT: note_off channel=1 note=43 velocity=100 time=0
EXTRACT: note_on channel=1 note=45 velocity=100 time=0
EXTRACT: note_on channel=1 note=52 velocity=100 time=0
EXTRACT: note_on channel=1 note=57 velocity=100 time=0
EXTRACT: note_on channel=1 note=60 velocity=100 time=0
EXTRACT: note_on channel=1 note=64 velocity=100 time=0
EXTRACT: note_off channel=2 note=60 velocity=100 time=0
EXTRACT: note_on channel=2 note=50 velocity=100 time=0
EXTRACT: note_off channel=5 note=32 velocity=100 time=0
EXTRACT: note_on channel=5 note=33 velocity=100 time=0
EXTRACT: note_on channel=9 note=35 velocity=127 time=0
EXTRACT: note_on channel=9 note=36 velocity=127 time=0
EXTRACT: note_on channel=9 note=46 velocity=127 time=0
EXTRACT: note_off channel=9 note=46 velocity=127 time=0.029761666666666662
EXTRACT: note_off channel=9 note=36 velocity=127 time=0
EXTRACT: note_off channel=9 note=35 velocity=127 time=0
EXTRACT: note_off channel=2 note=50 velocity=100 time=0.14880833333333332
EXTRACT: note_on channel=2 note=52 velocity=100 time=0
EXTRACT: note_off channel=6 note=62 velocity=100 time=0
EXTRACT: note_on channel=6 note=60 velocity=100 time=0
EXTRACT: pitchwheel channel=3 pitch=-7936 time=0.11904666666666665
EXTRACT: pitchwheel channel=3 pitch=-7680 time=0.011160624999999999
EXTRACT: pitchwheel channel=3 pitch=-7424 time=0.011160624999999999
EXTRACT: pitchwheel channel=3 pitch=-7040 time=0.013020729166666665
EXTRACT: pitchwheel channel=3 pitch=-6784 time=0.011160624999999999
EXTRACT: note_off channel=2 note=52 velocity=100 time=0.013020729166666665
EXTRACT: note_on channel=2 note=55 velocity=100 time=0
EXTRACT: pitchwheel channel=3 pitch=-6528 time=0
EXTRACT: note_on channel=3 note=76 velocity=100 time=0
EXTRACT: note_off channel=6 note=60 velocity=100 time=0
EXTRACT: note_on channel=6 note=57 velocity=100 time=0
EXTRACT: note_on channel=9 note=46 velocity=127 time=0
EXTRACT: pitchwheel channel=3 pitch=-6144 time=0.011160624999999999
EXTRACT: pitchwheel channel=3 pitch=-5888 time=0.011160624999999999
EXTRACT: note_off channel=9 note=46 velocity=127 time=0.0074404166666666655
EXTRACT: pitchwheel channel=3 pitch=-5504 time=0.005580312499999999
EXTRACT: pitchwheel channel=3 pitch=-5248 time=0.011160624999999999
EXTRACT: pitchwheel channel=3 pitch=-4992 time=0.013020729166666665
EXTRACT: pitchwheel channel=3 pitch=-4608 time=0.011160624999999999
EXTRACT: pitchwheel channel=3 pitch=-4352 time=0.011160624999999999
EXTRACT: pitchwheel channel=3 pitch=-3968 time=0.013020729166666665
EXTRACT: pitchwheel channel=3 pitch=-3712 time=0.011160624999999999
EXTRACT: pitchwheel channel=3 pitch=-3456 time=0.013020729166666665
EXTRACT: pitchwheel channel=3 pitch=-3072 time=0.011160624999999999
EXTRACT: pitchwheel channel=3 pitch=-2816 time=0.011160624999999999
EXTRACT: pitchwheel channel=3 pitch=-2560 time=0.013020729166666665
EXTRACT: pitchwheel channel=3 pitch=-2176 time=0.011160624999999999
EXTRACT: note_off channel=2 note=55 velocity=100 time=0.013020729166666665
EXTRACT: note_on channel=2 note=57 velocity=100 time=0
EXTRACT: pitchwheel channel=3 pitch=-1920 time=0
EXTRACT: pitchwheel channel=3 pitch=-1536 time=0.011160624999999999
EXTRACT: pitchwheel channel=3 pitch=-1280 time=0.011160624999999999
EXTRACT: pitchwheel channel=3 pitch=-1024 time=0.013020729166666665
EXTRACT: pitchwheel channel=3 pitch=-640 time=0.011160624999999999
EXTRACT: pitchwheel channel=3 pitch=-384 time=0.013020729166666665
EXTRACT: pitchwheel channel=3 pitch=0 time=0.011160624999999999
EXTRACT: note_off channel=1 note=64 velocity=100 time=0.10788604166666665
EXTRACT: note_off channel=1 note=60 velocity=100 time=0
EXTRACT: note_off channel=1 note=57 velocity=100 time=0
EXTRACT: note_off channel=1 note=52 velocity=100 time=0
EXTRACT: note_off channel=1 note=45 velocity=100 time=0
EXTRACT: note_on channel=1 note=45 velocity=100 time=0
EXTRACT: note_on channel=1 note=52 velocity=100 time=0
EXTRACT: note_on channel=1 note=57 velocity=100 time=0
EXTRACT: note_on channel=1 note=60 velocity=100 time=0
EXTRACT: note_on channel=1 note=64 velocity=100 time=0
EXTRACT: note_off channel=2 note=57 velocity=100 time=0
EXTRACT: note_on channel=2 note=60 velocity=100 time=0
EXTRACT: note_off channel=5 note=33 velocity=100 time=0
EXTRACT: note_on channel=5 note=33 velocity=100 time=0
EXTRACT: note_off channel=6 note=57 velocity=100 time=0
EXTRACT: note_on channel=9 note=38 velocity=127 time=0
EXTRACT: note_on channel=9 note=42 velocity=127 time=0
EXTRACT: note_off channel=9 note=42 velocity=127 time=0.029761666666666662
EXTRACT: note_off channel=9 note=38 velocity=127 time=0
EXTRACT: note_off channel=2 note=60 velocity=100 time=0.14880833333333332
EXTRACT: note_on channel=2 note=62 velocity=100 time=0
EXTRACT: note_off channel=1 note=64 velocity=100 time=0.17856999999999998
EXTRACT: note_off channel=1 note=60 velocity=100 time=0
EXTRACT: note_off channel=1 note=57 velocity=100 time=0
EXTRACT: note_off channel=1 note=52 velocity=100 time=0
EXTRACT: note_off channel=1 note=45 velocity=100 time=0
EXTRACT: note_on channel=1 note=45 velocity=100 time=0
EXTRACT: note_on channel=1 note=52 velocity=100 time=0
EXTRACT: note_on channel=1 note=57 velocity=100 time=0
EXTRACT: note_on channel=1 note=60 velocity=100 time=0
EXTRACT: note_on channel=1 note=64 velocity=100 time=0
EXTRACT: note_off channel=2 note=62 velocity=100 time=0
EXTRACT: note_on channel=2 note=60 velocity=100 time=0
EXTRACT: note_off channel=5 note=33 velocity=100 time=0
EXTRACT: note_on channel=5 note=31 velocity=100 time=0
EXTRACT: note_on channel=9 note=42 velocity=127 time=0
EXTRACT: note_on channel=6 note=62 velocity=100 time=0.011160624999999999
EXTRACT: note_off channel=9 note=42 velocity=127 time=0.018601041666666665
EXTRACT: note_on channel=6 note=60 velocity=100 time=0.12462697916666665
EXTRACT: note_on channel=9 note=38 velocity=127 time=0.024181354166666662
EXTRACT: note_off channel=6 note=62 velocity=100 time=0.011160624999999999
EXTRACT: note_off channel=9 note=38 velocity=127 time=0.018601041666666665
EXTRACT: note_off channel=6 note=60 velocity=100 time=0.12462697916666665
EXTRACT: note_on channel=6 note=62 velocity=100 time=0.016740937499999997
EXTRACT: note_off channel=1 note=64 velocity=100 time=0.0074404166666666655
EXTRACT: note_off channel=1 note=60 velocity=100 time=0
EXTRACT: note_off channel=1 note=57 velocity=100 time=0
EXTRACT: note_off channel=1 note=52 velocity=100 time=0
EXTRACT: note_off channel=1 note=45 velocity=100 time=0
EXTRACT: note_on channel=1 note=40 velocity=100 time=0
EXTRACT: note_on channel=1 note=47 velocity=100 time=0
EXTRACT: note_on channel=1 note=52 velocity=100 time=0
EXTRACT: note_on channel=1 note=56 velocity=100 time=0
EXTRACT: note_on channel=1 note=59 velocity=100 time=0
EXTRACT: note_on channel=1 note=64 velocity=100 time=0
EXTRACT: note_off channel=2 note=60 velocity=100 time=0
EXTRACT: note_on channel=2 note=62 velocity=100 time=0
EXTRACT: note_off channel=3 note=76 velocity=100 time=0
EXTRACT: note_off channel=5 note=31 velocity=100 time=0
EXTRACT: note_on channel=5 note=28 velocity=100 time=0
EXTRACT: note_on channel=9 note=35 velocity=127 time=0
EXTRACT: note_on channel=9 note=36 velocity=127 time=0
EXTRACT: note_on channel=9 note=42 velocity=127 time=0
EXTRACT: pitchwheel channel=2 pitch=128 time=0.022321249999999997
EXTRACT: note_off channel=9 note=42 velocity=127 time=0.0074404166666666655
EXTRACT: note_off channel=9 note=36 velocity=127 time=0
EXTRACT: note_off channel=9 note=35 velocity=127 time=0
EXTRACT: pitchwheel channel=2 pitch=640 time=0.016740937499999997
EXTRACT: pitchwheel channel=2 pitch=3200 time=0.013020729166666665
EXTRACT: pitchwheel channel=2 pitch=3712 time=0.011160624999999999
EXTRACT: pitchwheel channel=2 pitch=6528 time=0.011160624999999999
EXTRACT: pitchwheel channel=2 pitch=7040 time=0.013020729166666665
EXTRACT: pitchwheel channel=2 pitch=7808 time=0.011160624999999999
EXTRACT: pitchwheel channel=2 pitch=7552 time=0.03534197916666666
EXTRACT: pitchwheel channel=2 pitch=6784 time=0.013020729166666665
EXTRACT: pitchwheel channel=2 pitch=6528 time=0.011160624999999999
EXTRACT: pitchwheel channel=2 pitch=5760 time=0.013020729166666665
EXTRACT: note_on channel=9 note=38 velocity=127 time=0
EXTRACT: pitchwheel channel=2 pitch=4096 time=0.011160624999999999
EXTRACT: pitchwheel channel=2 pitch=3072 time=0.011160624999999999
EXTRACT: note_off channel=9 note=38 velocity=127 time=0.0074404166666666655
EXTRACT: pitchwheel channel=2 pitch=2816 time=0.005580312499999999
EXTRACT: pitchwheel channel=2 pitch=768 time=0.011160624999999999
EXTRACT: pitchwheel channel=2 pitch=0 time=0.013020729166666665
EXTRACT: note_on channel=6 note=60 velocity=100 time=0.08928499999999999
EXTRACT: note_off channel=6 note=62 velocity=100 time=0.022321249999999997
EXTRACT: note_off channel=2 note=62 velocity=100 time=0.0074404166666666655
EXTRACT: note_on channel=2 note=62 velocity=100 time=0
EXTRACT: note_off channel=5 note=28 velocity=100 time=0
EXTRACT: note_on channel=5 note=28 velocity=100 time=0
EXTRACT: note_on channel=9 note=35 velocity=127 time=0
EXTRACT: note_on channel=9 note=36 velocity=127 time=0
EXTRACT: note_on channel=9 note=42 velocity=127 time=0
EXTRACT: note_off channel=9 note=42 velocity=127 time=0.029761666666666662
EXTRACT: note_off channel=9 note=36 velocity=127 time=0
EXTRACT: note_off channel=9 note=35 velocity=127 time=0.059523333333333324
EXTRACT: note_on channel=6 note=62 velocity=100 time=0.022321249999999997
EXTRACT: note_on channel=6 note=64 velocity=100 time=0.024181354166666662
EXTRACT: note_off channel=6 note=60 velocity=100 time=0.013020729166666665
EXTRACT: note_off channel=6 note=62 velocity=100 time=0.05208291666666666
EXTRACT: note_on channel=9 note=38 velocity=127 time=0.1264870833333333
EXTRACT: note_off channel=1 note=64 velocity=100 time=0.029761666666666662
EXTRACT: note_off channel=1 note=59 velocity=100 time=0
EXTRACT: note_off channel=1 note=56 velocity=100 time=0
EXTRACT: note_off channel=1 note=52 velocity=100 time=0
EXTRACT: note_off channel=1 note=47 velocity=100 time=0
EXTRACT: note_off channel=1 note=40 velocity=100 time=0
EXTRACT: note_on channel=1 note=56 velocity=100 time=0
EXTRACT: note_on channel=1 note=40 velocity=100 time=0
EXTRACT: note_on channel=1 note=47 velocity=100 time=0
EXTRACT: note_on channel=1 note=52 velocity=100 time=0
EXTRACT: note_on channel=1 note=59 velocity=100 time=0
EXTRACT: note_on channel=1 note=64 velocity=100 time=0
EXTRACT: note_off channel=2 note=62 velocity=100 time=0
EXTRACT: note_on channel=2 note=60 velocity=100 time=0
EXTRACT: note_off channel=5 note=28 velocity=100 time=0
EXTRACT: note_on channel=5 note=28 velocity=100 time=0
EXTRACT: note_off channel=9 note=38 velocity=127 time=0
EXTRACT: note_on channel=9 note=42 velocity=127 time=0
EXTRACT: note_off channel=9 note=42 velocity=127 time=0.029761666666666662
EXTRACT: note_off channel=6 note=64 velocity=100 time=0.28459593749999995
EXTRACT: note_off channel=1 note=64 velocity=100 time=0.04278239583333333
EXTRACT: note_off channel=1 note=59 velocity=100 time=0
EXTRACT: note_off channel=1 note=52 velocity=100 time=0
EXTRACT: note_off channel=1 note=47 velocity=100 time=0
EXTRACT: note_off channel=1 note=40 velocity=100 time=0
EXTRACT: note_off channel=1 note=56 velocity=100 time=0
EXTRACT: note_on channel=1 note=56 velocity=100 time=0
EXTRACT: note_on channel=1 note=40 velocity=100 time=0
EXTRACT: note_on channel=1 note=47 velocity=100 time=0
EXTRACT: note_on channel=1 note=52 velocity=100 time=0
EXTRACT: note_on channel=1 note=59 velocity=100 time=0
EXTRACT: note_on channel=1 note=64 velocity=100 time=0
EXTRACT: note_off channel=2 note=60 velocity=100 time=0
EXTRACT: note_on channel=2 note=62 velocity=100 time=0
EXTRACT: note_off channel=5 note=28 velocity=100 time=0
EXTRACT: note_on channel=5 note=28 velocity=100 time=0
EXTRACT: note_on channel=9 note=42 velocity=127 time=0
EXTRACT: note_on channel=6 note=62 velocity=100 time=0.005580312499999999
EXTRACT: note_off channel=9 note=42 velocity=127 time=0.024181354166666662
EXTRACT: note_off channel=5 note=28 velocity=100 time=0.14880833333333332
EXTRACT: note_on channel=5 note=28 velocity=100 time=0
EXTRACT: note_on channel=9 note=38 velocity=127 time=0
EXTRACT: note_off channel=9 note=38 velocity=127 time=0.029761666666666662
EXTRACT: note_off channel=1 note=64 velocity=100 time=0.14880833333333332
EXTRACT: note_off channel=1 note=59 velocity=100 time=0
EXTRACT: note_off channel=1 note=52 velocity=100 time=0
EXTRACT: note_off channel=1 note=47 velocity=100 time=0
EXTRACT: note_off channel=1 note=40 velocity=100 time=0
EXTRACT: note_off channel=1 note=56 velocity=100 time=0
EXTRACT: note_on channel=1 note=41 velocity=100 time=0
EXTRACT: note_on channel=1 note=48 velocity=100 time=0
EXTRACT: note_on channel=1 note=53 velocity=100 time=0
EXTRACT: note_on channel=1 note=57 velocity=100 time=0
EXTRACT: note_on channel=1 note=60 velocity=100 time=0
EXTRACT: note_off channel=2 note=62 velocity=100 time=0
EXTRACT: note_on channel=2 note=60 velocity=100 time=0
EXTRACT: note_off channel=5 note=28 velocity=100 time=0
EXTRACT: note_on channel=5 note=29 velocity=100 time=0
EXTRACT: note_on channel=9 note=35 velocity=127 time=0
EXTRACT: note_on channel=9 note=36 velocity=127 time=0
EXTRACT: note_on channel=9 note=46 velocity=127 time=0
EXTRACT: pitchwheel channel=2 pitch=640 time=0.011160624999999999
EXTRACT: note_off channel=9 note=46 velocity=127 time=0.018601041666666665
EXTRACT: note_off channel=9 note=36 velocity=127 time=0
EXTRACT: note_off channel=9 note=35 velocity=127 time=0
EXTRACT: pitchwheel channel=2 pitch=-384 time=0.005580312499999999
EXTRACT: pitchwheel channel=2 pitch=-768 time=0.011160624999999999
EXTRACT: pitchwheel channel=2 pitch=-640 time=0.024181354166666662
EXTRACT: pitchwheel channel=2 pitch=384 time=0.011160624999999999
EXTRACT: pitchwheel channel=2 pitch=-512 time=0.013020729166666665
EXTRACT: pitchwheel channel=2 pitch=-384 time=0.08370468749999999
EXTRACT: note_on channel=6 note=64 velocity=100 time=0
EXTRACT: note_on channel=9 note=38 velocity=127 time=0
EXTRACT: note_off channel=6 note=62 velocity=100 time=0.005580312499999999
EXTRACT: pitchwheel channel=2 pitch=-128 time=0.005580312499999999
EXTRACT: pitchwheel channel=2 pitch=128 time=0.011160624999999999
EXTRACT: note_off channel=9 note=38 velocity=127 time=0.0074404166666666655
EXTRACT: pitchwheel channel=2 pitch=640 time=0.005580312499999999
EXTRACT: pitchwheel channel=2 pitch=-128 time=0.011160624999999999
EXTRACT: control_change channel=3 control=7 value=127 time=0
EXTRACT: pitchwheel channel=3 pitch=-8064 time=0
EXTRACT: pitchwheel channel=2 pitch=-384 time=0.013020729166666665
EXTRACT: pitchwheel channel=3 pitch=-7808 time=0.011160624999999999
EXTRACT: pitchwheel channel=3 pitch=-7552 time=0.011160624999999999
EXTRACT: pitchwheel channel=3 pitch=-7296 time=0.013020729166666665
EXTRACT: pitchwheel channel=3 pitch=-7040 time=0.011160624999999999
EXTRACT: pitchwheel channel=3 pitch=-6784 time=0.013020729166666665
EXTRACT: pitchwheel channel=2 pitch=-256 time=0.011160624999999999
EXTRACT: pitchwheel channel=3 pitch=-6528 time=0
EXTRACT: pitchwheel channel=2 pitch=-128 time=0.011160624999999999
EXTRACT: pitchwheel channel=3 pitch=-6272 time=0
EXTRACT: pitchwheel channel=2 pitch=0 time=0.013020729166666665
EXTRACT: pitchwheel channel=2 pitch=256 time=0.011160624999999999
EXTRACT: pitchwheel channel=3 pitch=-6016 time=0
EXTRACT: pitchwheel channel=2 pitch=768 time=0.013020729166666665
EXTRACT: note_on channel=3 note=76 velocity=100 time=0
EXTRACT: pitchwheel channel=3 pitch=-3584 time=0
EXTRACT: note_off channel=5 note=29 velocity=100 time=0
EXTRACT: note_on channel=5 note=29 velocity=100 time=0
EXTRACT: note_off channel=6 note=64 velocity=100 time=0
EXTRACT: note_on channel=9 note=46 velocity=127 time=0
EXTRACT: pitchwheel channel=2 pitch=1024 time=0.011160624999999999
EXTRACT: pitchwheel channel=3 pitch=-3072 time=0
EXTRACT: note_on channel=6 note=60 velocity=100 time=0
EXTRACT: pitchwheel channel=2 pitch=1152 time=0.011160624999999999
EXTRACT: pitchwheel channel=3 pitch=-2816 time=0
EXTRACT: note_off channel=9 note=46 velocity=127 time=0.0074404166666666655
EXTRACT: pitchwheel channel=3 pitch=-2304 time=0.005580312499999999
EXTRACT: pitchwheel channel=2 pitch=384 time=0.011160624999999999
EXTRACT: pitchwheel channel=3 pitch=-2048 time=0
EXTRACT: pitchwheel channel=2 pitch=0 time=0.013020729166666665
EXTRACT: pitchwheel channel=3 pitch=-1536 time=0
EXTRACT: pitchwheel channel=2 pitch=-512 time=0.011160624999999999
EXTRACT: pitchwheel channel=3 pitch=-1408 time=0
EXTRACT: pitchwheel channel=3 pitch=-1024 time=0.011160624999999999
EXTRACT: pitchwheel channel=3 pitch=-768 time=0.013020729166666665
EXTRACT: pitchwheel channel=2 pitch=-384 time=0.011160624999999999
EXTRACT: pitchwheel channel=3 pitch=-512 time=0
EXTRACT: pitchwheel channel=2 pitch=-128 time=0.013020729166666665
EXTRACT: pitchwheel channel=2 pitch=128 time=0.011160624999999999
EXTRACT: pitchwheel channel=3 pitch=-256 time=0
EXTRACT: pitchwheel channel=2 pitch=384 time=0.011160624999999999
EXTRACT: pitchwheel channel=3 pitch=0 time=0.013020729166666665
EXTRACT: pitchwheel channel=2 pitch=-384 time=0.011160624999999999
EXTRACT: pitchwheel channel=2 pitch=-256 time=0.08370468749999999
EXTRACT: pitchwheel channel=2 pitch=-128 time=0.024181354166666662
EXTRACT: pitchwheel channel=2 pitch=128 time=0.011160624999999999
EXTRACT: pitchwheel channel=2 pitch=384 time=0.013020729166666665
EXTRACT: pitchwheel channel=2 pitch=640 time=0.011160624999999999
EXTRACT: pitchwheel channel=2 pitch=896 time=0.011160624999999999
EXTRACT: pitchwheel channel=2 pitch=0 time=0.013020729166666665
EXTRACT: pitchwheel channel=2 pitch=-256 time=0.011160624999999999
EXTRACT: note_off channel=1 note=60 velocity=100 time=0.013020729166666665
EXTRACT: note_off channel=1 note=57 velocity=100 time=0
EXTRACT: note_off channel=1 note=53 velocity=100 time=0
EXTRACT: note_off channel=1 note=48 velocity=100 time=0
EXTRACT: note_off channel=1 note=41 velocity=100 time=0
EXTRACT: note_on channel=1 note=41 velocity=100 time=0
EXTRACT: note_on channel=1 note=48 velocity=100 time=0
EXTRACT: note_on channel=1 note=53 velocity=100 time=0
EXTRACT: note_on channel=1 note=57 velocity=100 time=0
EXTRACT: note_on channel=1 note=60 velocity=100 time=0
EXTRACT: note_off channel=5 note=29 velocity=100 time=0
EXTRACT: note_on channel=5 note=29 velocity=100 time=0
EXTRACT: note_on channel=9 note=38 velocity=127 time=0
EXTRACT: note_on channel=9 note=42 velocity=127 time=0
EXTRACT: pitchwheel channel=2 pitch=-128 time=0.011160624999999999
EXTRACT: pitchwheel channel=2 pitch=0 time=0.011160624999999999
EXTRACT: note_off channel=9 note=42 velocity=127 time=0.0074404166666666655
EXTRACT: note_off channel=9 note=38 velocity=127 time=0
EXTRACT: pitchwheel channel=2 pitch=-128 time=0.005580312499999999
EXTRACT: pitchwheel channel=2 pitch=-896 time=0.024181354166666662
EXTRACT: pitchwheel channel=2 pitch=-1024 time=0.011160624999999999
EXTRACT: pitchwheel channel=2 pitch=-768 time=0.048362708333333324
EXTRACT: pitchwheel channel=2 pitch=896 time=0.011160624999999999
EXTRACT: pitchwheel channel=2 pitch=768 time=0.011160624999999999
EXTRACT: pitchwheel channel=2 pitch=256 time=0.013020729166666665
EXTRACT: pitchwheel channel=2 pitch=-256 time=0.011160624999999999
EXTRACT: pitchwheel channel=2 pitch=-512 time=0.013020729166666665
EXTRACT: pitchwheel channel=2 pitch=-384 time=0.04650260416666666
EXTRACT: pitchwheel channel=2 pitch=-128 time=0.024181354166666662
EXTRACT: pitchwheel channel=2 pitch=128 time=0.011160624999999999
EXTRACT: pitchwheel channel=2 pitch=384 time=0.013020729166666665
EXTRACT: pitchwheel channel=2 pitch=640 time=0.011160624999999999
EXTRACT: pitchwheel channel=2 pitch=-384 time=0.024181354166666662
EXTRACT: pitchwheel channel=2 pitch=-896 time=0.011160624999999999
EXTRACT: note_off channel=1 note=60 velocity=100 time=0.03720208333333333
EXTRACT: note_off channel=1 note=57 velocity=100 time=0
EXTRACT: note_off channel=1 note=53 velocity=100 time=0
EXTRACT: note_off channel=1 note=48 velocity=100 time=0
EXTRACT: note_off channel=1 note=41 velocity=100 time=0
EXTRACT: note_on channel=1 note=41 velocity=100 time=0
EXTRACT: note_on channel=1 note=48 velocity=100 time=0
EXTRACT: note_on channel=1 note=53 velocity=100 time=0
EXTRACT: note_on channel=1 note=57 velocity=100 time=0
EXTRACT: note_on channel=1 note=60 velocity=100 time=0
EXTRACT: pitchwheel channel=2 pitch=-640 time=0
EXTRACT: note_off channel=5 note=29 velocity=100 time=0
EXTRACT: note_on channel=5 note=30 velocity=100 time=0
EXTRACT: note_on channel=9 note=42 velocity=127 time=0
EXTRACT: pitchwheel channel=2 pitch=-256 time=0.011160624999999999
EXTRACT: pitchwheel channel=2 pitch=-128 time=0.011160624999999999
EXTRACT: note_off channel=9 note=42 velocity=127 time=0.0074404166666666655
EXTRACT: pitchwheel channel=2 pitch=256 time=0.005580312499999999
EXTRACT: pitchwheel channel=2 pitch=512 time=0.011160624999999999
EXTRACT: pitchwheel channel=2 pitch=-128 time=0.013020729166666665
EXTRACT: pitchwheel channel=2 pitch=-384 time=0.011160624999999999
EXTRACT: pitchwheel channel=2 pitch=-640 time=0.011160624999999999
EXTRACT: pitchwheel channel=2 pitch=-512 time=0.024181354166666662
EXTRACT: pitchwheel channel=2 pitch=384 time=0.024181354166666662
EXTRACT: pitchwheel channel=2 pitch=512 time=0.011160624999999999
EXTRACT: pitchwheel channel=2 pitch=384 time=0.024181354166666662
EXTRACT: pitchwheel channel=2 pitch=128 time=0.013020729166666665
EXTRACT: note_on channel=9 note=38 velocity=127 time=0
EXTRACT: pitchwheel channel=2 pitch=0 time=0.011160624999999999
EXTRACT: note_off channel=9 note=38 velocity=127 time=0.018601041666666665
EXTRACT: note_off channel=1 note=60 velocity=100 time=0.14880833333333332
EXTRACT: note_off channel=1 note=57 velocity=100 time=0
EXTRACT: note_off channel=1 note=53 velocity=100 time=0
EXTRACT: note_off channel=1 note=48 velocity=100 time=0
EXTRACT: note_off channel=1 note=41 velocity=100 time=0
EXTRACT: note_on channel=1 note=43 velocity=100 time=0
EXTRACT: note_on channel=1 note=50 velocity=100 time=0
EXTRACT: note_on channel=1 note=55 velocity=100 time=0
EXTRACT: note_on channel=1 note=59 velocity=100 time=0
EXTRACT: note_on channel=1 note=62 velocity=100 time=0
EXTRACT: note_off channel=2 note=60 velocity=100 time=0
EXTRACT: note_off channel=3 note=76 velocity=100 time=0
EXTRACT: note_on channel=3 note=74 velocity=100 time=0
EXTRACT: note_off channel=5 note=30 velocity=100 time=0
EXTRACT: note_on channel=5 note=31 velocity=100 time=0
EXTRACT: note_on channel=9 note=35 velocity=127 time=0
EXTRACT: note_on channel=9 note=36 velocity=127 time=0
EXTRACT: note_on channel=9 note=42 velocity=127 time=0
EXTRACT: note_off channel=6 note=60 velocity=100 time=0.011160624999999999
EXTRACT: note_off channel=9 note=42 velocity=127 time=0.018601041666666665
EXTRACT: note_off channel=9 note=36 velocity=127 time=0
EXTRACT: note_off channel=9 note=35 velocity=127 time=0
EXTRACT: note_on channel=9 note=38 velocity=127 time=0.14880833333333332
EXTRACT: note_off channel=9 note=38 velocity=127 time=0.029761666666666662
EXTRACT: note_off channel=1 note=62 velocity=100 time=0.14880833333333332
EXTRACT: note_off channel=1 note=59 velocity=100 time=0
EXTRACT: note_off channel=1 note=55 velocity=100 time=0
EXTRACT: note_off channel=1 note=50 velocity=100 time=0
EXTRACT: note_off channel=1 note=43 velocity=100 time=0
EXTRACT: note_on channel=1 note=43 velocity=100 time=0
EXTRACT: note_on channel=1 note=50 velocity=100 time=0
EXTRACT: note_on channel=1 note=55 velocity=100 time=0
EXTRACT: note_on channel=1 note=59 velocity=100 time=0
EXTRACT: note_on channel=1 note=62 velocity=100 time=0
EXTRACT: note_on channel=2 note=55 velocity=100 time=0
EXTRACT: note_off channel=5 note=31 velocity=100 time=0
EXTRACT: note_on channel=5 note=31 velocity=100 time=0
EXTRACT: note_on channel=9 note=36 velocity=127 time=0
EXTRACT: note_on channel=9 note=42 velocity=127 time=0
EXTRACT: note_on channel=9 note=35 velocity=127 time=0
EXTRACT: note_on channel=6 note=57 velocity=100 time=0.011160624999999999
EXTRACT: note_off channel=9 note=42 velocity=127 time=0.018601041666666665
EXTRACT: note_off channel=9 note=36 velocity=127 time=0
EXTRACT: note_off channel=9 note=35 velocity=127 time=0.059523333333333324
EXTRACT: note_off channel=2 note=55 velocity=100 time=0.08928499999999999
EXTRACT: note_on channel=2 note=57 velocity=100 time=0
EXTRACT: note_off channel=6 note=57 velocity=100 time=0.011160624999999999
EXTRACT: note_on channel=6 note=60 velocity=100 time=0.005580312499999999
EXTRACT: note_on channel=9 note=38 velocity=127 time=0.13206739583333332
EXTRACT: note_off channel=1 note=62 velocity=100 time=0.029761666666666662
EXTRACT: note_off channel=1 note=59 velocity=100 time=0
EXTRACT: note_off channel=1 note=55 velocity=100 time=0
EXTRACT: note_off channel=1 note=50 velocity=100 time=0
EXTRACT: note_off channel=1 note=43 velocity=100 time=0
EXTRACT: note_on channel=1 note=43 velocity=100 time=0
EXTRACT: note_on channel=1 note=50 velocity=100 time=0
EXTRACT: note_on channel=1 note=55 velocity=100 time=0
EXTRACT: note_on channel=1 note=59 velocity=100 time=0
EXTRACT: note_on channel=1 note=62 velocity=100 time=0
EXTRACT: note_off channel=2 note=57 velocity=100 time=0
EXTRACT: note_on channel=2 note=60 velocity=100 time=0
EXTRACT: note_off channel=3 note=74 velocity=100 time=0
EXTRACT: note_off channel=5 note=31 velocity=100 time=0
EXTRACT: note_on channel=5 note=31 velocity=100 time=0
EXTRACT: note_off channel=9 note=38 velocity=127 time=0
EXTRACT: note_on channel=9 note=42 velocity=127 time=0
EXTRACT: note_on channel=6 note=57 velocity=100 time=0.005580312499999999
EXTRACT: note_off channel=6 note=60 velocity=100 time=0.011160624999999999
EXTRACT: note_off channel=9 note=42 velocity=127 time=0.013020729166666665
EXTRACT: note_on channel=6 note=60 velocity=100 time=0.13578760416666666
EXTRACT: note_off channel=6 note=57 velocity=100 time=0.018601041666666665
EXTRACT: note_off channel=1 note=62 velocity=100 time=0.17298968749999996
EXTRACT: note_off channel=1 note=59 velocity=100 time=0
EXTRACT: note_off channel=1 note=55 velocity=100 time=0
EXTRACT: note_off channel=1 note=50 velocity=100 time=0
EXTRACT: note_off channel=1 note=43 velocity=100 time=0
EXTRACT: note_on channel=1 note=43 velocity=100 time=0
EXTRACT: note_on channel=1 note=50 velocity=100 time=0
EXTRACT: note_on channel=1 note=55 velocity=100 time=0
EXTRACT: note_on channel=1 note=59 velocity=100 time=0
EXTRACT: note_on channel=1 note=62 velocity=100 time=0
EXTRACT: note_off channel=2 note=60 velocity=100 time=0
EXTRACT: note_on channel=2 note=62 velocity=100 time=0
EXTRACT: note_off channel=5 note=31 velocity=100 time=0
EXTRACT: note_on channel=5 note=35 velocity=100 time=0
EXTRACT: note_on channel=9 note=42 velocity=127 time=0
EXTRACT: note_off channel=9 note=42 velocity=127 time=0.029761666666666662
EXTRACT: note_off channel=2 note=62 velocity=100 time=0.14880833333333332
EXTRACT: note_on channel=2 note=60 velocity=100 time=0
EXTRACT: note_on channel=9 note=38 velocity=127 time=0
EXTRACT: note_off channel=9 note=38 velocity=127 time=0.029761666666666662
EXTRACT: note_on channel=9 note=38 velocity=127 time=0.029761666666666662
EXTRACT: note_off channel=9 note=38 velocity=127 time=0.029761666666666662
EXTRACT: note_off channel=1 note=62 velocity=100 time=0.08928499999999999
EXTRACT: note_off channel=1 note=59 velocity=100 time=0
EXTRACT: note_off channel=1 note=55 velocity=100 time=0
EXTRACT: note_off channel=1 note=50 velocity=100 time=0
EXTRACT: note_off channel=1 note=43 velocity=100 time=0
EXTRACT: note_on channel=1 note=48 velocity=100 time=0
EXTRACT: note_on channel=1 note=52 velocity=100 time=0
EXTRACT: note_on channel=1 note=55 velocity=100 time=0
EXTRACT: note_on channel=1 note=60 velocity=100 time=0
EXTRACT: note_on channel=1 note=64 velocity=100 time=0
EXTRACT: note_off channel=5 note=35 velocity=100 time=0
EXTRACT: note_on channel=5 note=36 velocity=100 time=0
EXTRACT: note_on channel=9 note=35 velocity=127 time=0
EXTRACT: note_on channel=9 note=36 velocity=127 time=0
EXTRACT: note_on channel=9 note=42 velocity=127 time=0
EXTRACT: note_off channel=9 note=42 velocity=127 time=0.029761666666666662
EXTRACT: note_off channel=9 note=36 velocity=127 time=0
EXTRACT: note_off channel=9 note=35 velocity=127 time=0
EXTRACT: note_on channel=9 note=38 velocity=127 time=0.14880833333333332
EXTRACT: note_off channel=9 note=38 velocity=127 time=0.029761666666666662
EXTRACT: note_on channel=9 note=42 velocity=127 time=0.14880833333333332
EXTRACT: note_off channel=9 note=42 velocity=127 time=0.029761666666666662
EXTRACT: note_off channel=6 note=60 velocity=100 time=0.13578760416666666
EXTRACT: note_off channel=1 note=64 velocity=100 time=0.19159072916666664
EXTRACT: note_off channel=1 note=60 velocity=100 time=0
EXTRACT: note_off channel=1 note=55 velocity=100 time=0
EXTRACT: note_off channel=1 note=52 velocity=100 time=0
EXTRACT: note_off channel=1 note=48 velocity=100 time=0
EXTRACT: note_on channel=1 note=48 velocity=100 time=0
EXTRACT: note_on channel=1 note=52 velocity=100 time=0
EXTRACT: note_on channel=1 note=55 velocity=100 time=0
EXTRACT: note_on channel=1 note=60 velocity=100 time=0
EXTRACT: note_on channel=1 note=64 velocity=100 time=0
EXTRACT: note_off channel=5 note=36 velocity=100 time=0
EXTRACT: note_on channel=5 note=36 velocity=100 time=0
EXTRACT: note_on channel=9 note=38 velocity=127 time=0
EXTRACT: note_on channel=9 note=42 velocity=127 time=0
EXTRACT: note_off channel=9 note=42 velocity=127 time=0.029761666666666662
EXTRACT: note_off channel=9 note=38 velocity=127 time=0
EXTRACT: note_off channel=1 note=64 velocity=100 time=0.32737833333333327
EXTRACT: note_off channel=1 note=60 velocity=100 time=0
EXTRACT: note_off channel=1 note=55 velocity=100 time=0
EXTRACT: note_off channel=1 note=52 velocity=100 time=0
EXTRACT: note_off channel=1 note=48 velocity=100 time=0
EXTRACT: note_on channel=1 note=48 velocity=100 time=0
EXTRACT: note_on channel=1 note=52 velocity=100 time=0
EXTRACT: note_on channel=1 note=55 velocity=100 time=0
EXTRACT: note_on channel=1 note=60 velocity=100 time=0
EXTRACT: note_on channel=1 note=64 velocity=100 time=0
EXTRACT: note_off channel=5 note=36 velocity=100 time=0
EXTRACT: note_on channel=5 note=36 velocity=100 time=0
EXTRACT: note_on channel=9 note=46 velocity=127 time=0
EXTRACT: note_off channel=9 note=46 velocity=127 time=0.029761666666666662
EXTRACT: note_on channel=9 note=38 velocity=127 time=0.14880833333333332
EXTRACT: note_off channel=9 note=38 velocity=127 time=0.029761666666666662
EXTRACT: note_off channel=1 note=64 velocity=100 time=0.14880833333333332
EXTRACT: note_off channel=1 note=60 velocity=100 time=0
EXTRACT: note_off channel=1 note=55 velocity=100 time=0
EXTRACT: note_off channel=1 note=52 velocity=100 time=0
EXTRACT: note_off channel=1 note=48 velocity=100 time=0
EXTRACT: note_on channel=1 note=45 velocity=100 time=0
EXTRACT: note_on channel=1 note=52 velocity=100 time=0
EXTRACT: note_on channel=1 note=57 velocity=100 time=0
EXTRACT: note_on channel=1 note=60 velocity=100 time=0
EXTRACT: note_on channel=1 note=64 velocity=100 time=0
EXTRACT: note_off channel=5 note=36 velocity=100 time=0
EXTRACT: note_on channel=5 note=33 velocity=100 time=0
EXTRACT: note_on channel=9 note=35 velocity=127 time=0
EXTRACT: note_on channel=9 note=36 velocity=127 time=0
EXTRACT: note_on channel=9 note=46 velocity=127 time=0
EXTRACT: note_off channel=9 note=46 velocity=127 time=0.029761666666666662
EXTRACT: note_off channel=9 note=36 velocity=127 time=0
EXTRACT: note_off channel=9 note=35 velocity=127 time=0
EXTRACT: note_on channel=9 note=43 velocity=127 time=0.29761666666666664
EXTRACT: note_off channel=1 note=64 velocity=100 time=0.029761666666666662
EXTRACT: note_off channel=1 note=60 velocity=100 time=0
EXTRACT: note_off channel=1 note=57 velocity=100 time=0
EXTRACT: note_off channel=1 note=52 velocity=100 time=0
EXTRACT: note_off channel=1 note=45 velocity=100 time=0
EXTRACT: note_on channel=1 note=45 velocity=100 time=0
EXTRACT: note_on channel=1 note=52 velocity=100 time=0
EXTRACT: note_on channel=1 note=57 velocity=100 time=0
EXTRACT: note_on channel=1 note=60 velocity=100 time=0
EXTRACT: note_on channel=1 note=64 velocity=100 time=0
EXTRACT: note_off channel=5 note=33 velocity=100 time=0
EXTRACT: note_on channel=5 note=33 velocity=100 time=0
EXTRACT: note_off channel=9 note=43 velocity=127 time=0
EXTRACT: note_on channel=9 note=35 velocity=127 time=0
EXTRACT: note_on channel=9 note=36 velocity=127 time=0
EXTRACT: note_on channel=9 note=38 velocity=127 time=0
EXTRACT: note_off channel=9 note=38 velocity=127 time=0.029761666666666662
EXTRACT: note_off channel=9 note=36 velocity=127 time=0
EXTRACT: note_off channel=9 note=35 velocity=127 time=0.059523333333333324
EXTRACT: note_off channel=1 note=64 velocity=100 time=0.08928499999999999
EXTRACT: note_off channel=1 note=60 velocity=100 time=0
EXTRACT: note_off channel=1 note=57 velocity=100 time=0
EXTRACT: note_off channel=1 note=52 velocity=100 time=0
EXTRACT: note_off channel=1 note=45 velocity=100 time=0
EXTRACT: note_on channel=1 note=45 velocity=100 time=0
EXTRACT: note_on channel=1 note=52 velocity=100 time=0
EXTRACT: note_on channel=1 note=57 velocity=100 time=0
EXTRACT: note_on channel=1 note=60 velocity=100 time=0
EXTRACT: note_on channel=1 note=64 velocity=100 time=0
EXTRACT: note_on channel=9 note=38 velocity=127 time=0.14880833333333332
EXTRACT: note_off channel=1 note=64 velocity=100 time=0.029761666666666662
EXTRACT: note_off channel=1 note=60 velocity=100 time=0
EXTRACT: note_off channel=1 note=57 velocity=100 time=0
EXTRACT: note_off channel=1 note=52 velocity=100 time=0
EXTRACT: note_off channel=1 note=45 velocity=100 time=0
EXTRACT: note_on channel=1 note=43 velocity=100 time=0
EXTRACT: note_on channel=1 note=50 velocity=100 time=0
EXTRACT: note_on channel=1 note=55 velocity=100 time=0
EXTRACT: note_on channel=1 note=59 velocity=100 time=0
EXTRACT: note_on channel=1 note=67 velocity=100 time=0
EXTRACT: note_off channel=5 note=33 velocity=100 time=0
EXTRACT: note_on channel=5 note=31 velocity=100 time=0
EXTRACT: note_off channel=9 note=38 velocity=127 time=0
EXTRACT: note_on channel=9 note=47 velocity=127 time=0
EXTRACT: note_off channel=9 note=47 velocity=127 time=0.029761666666666662
EXTRACT: note_on channel=9 note=45 velocity=127 time=0.14880833333333332
EXTRACT: note_off channel=9 note=45 velocity=127 time=0.029761666666666662
EXTRACT: note_off channel=1 note=67 velocity=100 time=0.14880833333333332
EXTRACT: note_off channel=1 note=59 velocity=100 time=0
EXTRACT: note_off channel=1 note=55 velocity=100 time=0
EXTRACT: note_off channel=1 note=50 velocity=100 time=0
EXTRACT: note_off channel=1 note=43 velocity=100 time=0
EXTRACT: note_on channel=1 note=43 velocity=100 time=0
EXTRACT: note_on channel=1 note=50 velocity=100 time=0
EXTRACT: note_on channel=1 note=55 velocity=100 time=0
EXTRACT: note_on channel=1 note=59 velocity=100 time=0
EXTRACT: note_on channel=1 note=67 velocity=100 time=0
EXTRACT: note_off channel=5 note=31 velocity=100 time=0
EXTRACT: note_on channel=5 note=31 velocity=100 time=0
EXTRACT: note_on channel=9 note=43 velocity=127 time=0
EXTRACT: note_off channel=9 note=43 velocity=127 time=0.029761666666666662
EXTRACT: note_off channel=2 note=60 velocity=100 time=0.14880833333333332
EXTRACT: note_on channel=9 note=47 velocity=127 time=0
EXTRACT: note_off channel=9 note=47 velocity=127 time=0.029761666666666662
EXTRACT: note_off channel=1 note=67 velocity=100 time=0.14880833333333332
EXTRACT: note_off channel=1 note=59 velocity=100 time=0
EXTRACT: note_off channel=1 note=55 velocity=100 time=0
EXTRACT: note_off channel=1 note=50 velocity=100 time=0
EXTRACT: note_off channel=1 note=43 velocity=100 time=0
EXTRACT: note_on channel=1 note=41 velocity=100 time=0
EXTRACT: note_on channel=1 note=48 velocity=100 time=0
EXTRACT: note_on channel=1 note=53 velocity=100 time=0
EXTRACT: note_on channel=1 note=57 velocity=100 time=0
EXTRACT: note_on channel=1 note=60 velocity=100 time=0
EXTRACT: note_on channel=4 note=60 velocity=100 time=0
EXTRACT: note_off channel=5 note=31 velocity=100 time=0
EXTRACT: note_on channel=5 note=29 velocity=100 time=0
EXTRACT: note_on channel=9 note=35 velocity=127 time=0
EXTRACT: note_on channel=9 note=36 velocity=127 time=0
EXTRACT: note_on channel=9 note=41 velocity=127 time=0
EXTRACT: note_on channel=9 note=49 velocity=127 time=0
EXTRACT: note_off channel=9 note=49 velocity=127 time=0.029761666666666662
EXTRACT: note_off channel=9 note=41 velocity=127 time=0
EXTRACT: note_off channel=9 note=36 velocity=127 time=0
EXTRACT: note_off channel=9 note=35 velocity=127 time=0
EXTRACT: note_on channel=6 note=60 velocity=100 time=0.10602593749999999
EXTRACT: note_off channel=6 note=60 velocity=100 time=0.17856999999999998
EXTRACT: note_off channel=5 note=29 velocity=100 time=0.04278239583333333
EXTRACT: note_on channel=5 note=29 velocity=100 time=0
EXTRACT: note_on channel=6 note=62 velocity=100 time=0
EXTRACT: note_on channel=9 note=36 velocity=127 time=0
EXTRACT: note_on channel=9 note=41 velocity=127 time=0
EXTRACT: note_on channel=9 note=35 velocity=127 time=0
EXTRACT: note_off channel=9 note=41 velocity=127 time=0.029761666666666662
EXTRACT: note_off channel=9 note=36 velocity=127 time=0
EXTRACT: note_off channel=9 note=35 velocity=127 time=0.059523333333333324
EXTRACT: note_off channel=6 note=62 velocity=100 time=0.08928499999999999
EXTRACT: note_on channel=6 note=60 velocity=100 time=0
EXTRACT: note_on channel=6 note=62 velocity=100 time=0.16554927083333332
EXTRACT: note_off channel=1 note=60 velocity=100 time=0.013020729166666665
EXTRACT: note_off channel=1 note=57 velocity=100 time=0
EXTRACT: note_off channel=1 note=53 velocity=100 time=0
EXTRACT: note_off channel=1 note=48 velocity=100 time=0
EXTRACT: note_off channel=1 note=41 velocity=100 time=0
EXTRACT: note_on channel=1 note=41 velocity=100 time=0
EXTRACT: note_on channel=1 note=48 velocity=100 time=0
EXTRACT: note_on channel=1 note=53 velocity=100 time=0
EXTRACT: note_on channel=1 note=57 velocity=100 time=0
EXTRACT: note_on channel=1 note=60 velocity=100 time=0
EXTRACT: note_on channel=3 note=65 velocity=100 time=0
EXTRACT: note_on channel=3 note=60 velocity=100 time=0
EXTRACT: note_on channel=3 note=57 velocity=100 time=0
EXTRACT: note_on channel=3 note=53 velocity=100 time=0
EXTRACT: note_off channel=5 note=29 velocity=100 time=0
EXTRACT: note_on channel=5 note=29 velocity=100 time=0
EXTRACT: note_off channel=6 note=60 velocity=100 time=0
EXTRACT: note_on channel=9 note=38 velocity=127 time=0
EXTRACT: note_on channel=9 note=38 velocity=127 time=0
EXTRACT: note_on channel=9 note=41 velocity=127 time=0
EXTRACT: note_off channel=9 note=41 velocity=127 time=0.029761666666666662
EXTRACT: note_off channel=9 note=38 velocity=127 time=0
EXTRACT: note_off channel=9 note=38 velocity=127 time=0
EXTRACT: note_off channel=6 note=62 velocity=100 time=0.13578760416666666
EXTRACT: note_on channel=6 note=60 velocity=100 time=0.013020729166666665
EXTRACT: note_on channel=6 note=62 velocity=100 time=0.16554927083333332
EXTRACT: note_off channel=1 note=60 velocity=100 time=0.013020729166666665
EXTRACT: note_off channel=1 note=57 velocity=100 time=0
EXTRACT: note_off channel=1 note=53 velocity=100 time=0
EXTRACT: note_off channel=1 note=48 velocity=100 time=0
EXTRACT: note_off channel=1 note=41 velocity=100 time=0
EXTRACT: note_on channel=1 note=41 velocity=100 time=0
EXTRACT: note_on channel=1 note=48 velocity=100 time=0
EXTRACT: note_on channel=1 note=53 velocity=100 time=0
EXTRACT: note_on channel=1 note=57 velocity=100 time=0
EXTRACT: note_on channel=1 note=60 velocity=100 time=0
EXTRACT: note_off channel=3 note=53 velocity=100 time=0
EXTRACT: note_off channel=3 note=57 velocity=100 time=0
EXTRACT: note_off channel=3 note=60 velocity=100 time=0
EXTRACT: note_off channel=3 note=65 velocity=100 time=0
EXTRACT: note_off channel=5 note=29 velocity=100 time=0
EXTRACT: note_on channel=5 note=29 velocity=100 time=0
EXTRACT: note_off channel=6 note=60 velocity=100 time=0
EXTRACT: note_on channel=9 note=41 velocity=127 time=0
EXTRACT: note_off channel=9 note=41 velocity=127 time=0.029761666666666662
EXTRACT: note_off channel=6 note=62 velocity=100 time=0.13578760416666666
EXTRACT: note_off channel=5 note=29 velocity=100 time=0.013020729166666665
EXTRACT: note_on channel=5 note=29 velocity=100 time=0
EXTRACT: note_on channel=9 note=45 velocity=127 time=0
EXTRACT: note_on channel=6 note=60 velocity=100 time=0.011160624999999999
EXTRACT: note_off channel=9 note=45 velocity=127 time=0.018601041666666665
EXTRACT: note_on channel=4 note=60 velocity=100 time=0.059523333333333324
EXTRACT: note_off channel=1 note=60 velocity=100 time=0.08928499999999999
EXTRACT: note_off channel=1 note=57 velocity=100 time=0
EXTRACT: note_off channel=1 note=53 velocity=100 time=0
EXTRACT: note_off channel=1 note=48 velocity=100 time=0
EXTRACT: note_off channel=1 note=41 velocity=100 time=0
EXTRACT: note_on channel=1 note=41 velocity=100 time=0
EXTRACT: note_on channel=1 note=48 velocity=100 time=0
EXTRACT: note_on channel=1 note=53 velocity=100 time=0
EXTRACT: note_on channel=1 note=56 velocity=100 time=0
EXTRACT: note_on channel=1 note=60 velocity=100 time=0
EXTRACT: note_on channel=1 note=65 velocity=100 time=0
EXTRACT: note_off channel=4 note=60 velocity=100 time=0
EXTRACT: note_off channel=4 note=60 velocity=100 time=0
EXTRACT: note_on channel=4 note=62 velocity=100 time=0
EXTRACT: note_off channel=5 note=29 velocity=100 time=0
EXTRACT: note_on channel=5 note=29 velocity=100 time=0
EXTRACT: note_on channel=6 note=62 velocity=100 time=0
EXTRACT: note_on channel=9 note=35 velocity=127 time=0
EXTRACT: note_on channel=9 note=36 velocity=127 time=0
EXTRACT: note_on channel=9 note=41 velocity=127 time=0
EXTRACT: note_off channel=6 note=60 velocity=100 time=0.011160624999999999
EXTRACT: note_off channel=9 note=41 velocity=127 time=0.018601041666666665
EXTRACT: note_off channel=9 note=36 velocity=127 time=0
EXTRACT: note_off channel=9 note=35 velocity=127 time=0
EXTRACT: note_off channel=5 note=29 velocity=100 time=0.14880833333333332
EXTRACT: note_on channel=5 note=29 velocity=100 time=0
EXTRACT: note_on channel=9 note=45 velocity=127 time=0
EXTRACT: note_off channel=9 note=45 velocity=127 time=0.029761666666666662
EXTRACT: note_on channel=6 note=60 velocity=100 time=0.11904666666666665
EXTRACT: note_off channel=5 note=29 velocity=100 time=0.029761666666666662
EXTRACT: note_on channel=5 note=29 velocity=100 time=0
EXTRACT: note_off channel=6 note=62 velocity=100 time=0
EXTRACT: note_on channel=9 note=35 velocity=127 time=0
EXTRACT: note_on channel=9 note=36 velocity=127 time=0
EXTRACT: note_on channel=9 note=41 velocity=127 time=0
EXTRACT: note_off channel=9 note=41 velocity=127 time=0.029761666666666662
EXTRACT: note_off channel=9 note=36 velocity=127 time=0
EXTRACT: note_off channel=9 note=35 velocity=127 time=0.059523333333333324
EXTRACT: note_off channel=6 note=60 velocity=100 time=0.059523333333333324
EXTRACT: note_on channel=6 note=62 velocity=100 time=0.04092229166666666
EXTRACT: note_off channel=1 note=65 velocity=100 time=0.16740937499999997
EXTRACT: note_off channel=1 note=60 velocity=100 time=0
EXTRACT: note_off channel=1 note=56 velocity=100 time=0
EXTRACT: note_off channel=1 note=53 velocity=100 time=0
EXTRACT: note_off channel=1 note=48 velocity=100 time=0
EXTRACT: note_off channel=1 note=41 velocity=100 time=0
EXTRACT: note_on channel=1 note=41 velocity=100 time=0
EXTRACT: note_on channel=1 note=48 velocity=100 time=0
EXTRACT: note_on channel=1 note=53 velocity=100 time=0
EXTRACT: note_on channel=1 note=56 velocity=100 time=0
EXTRACT: note_on channel=1 note=60 velocity=100 time=0
EXTRACT: note_on channel=1 note=65 velocity=100 time=0
EXTRACT: note_on channel=3 note=65 velocity=100 time=0
EXTRACT: note_on channel=3 note=60 velocity=100 time=0
EXTRACT: note_on channel=3 note=56 velocity=100 time=0
EXTRACT: note_on channel=3 note=53 velocity=100 time=0
EXTRACT: note_off channel=5 note=29 velocity=100 time=0
EXTRACT: note_on channel=5 note=29 velocity=100 time=0
EXTRACT: note_on channel=9 note=38 velocity=127 time=0
EXTRACT: note_on channel=9 note=38 velocity=127 time=0
EXTRACT: note_on channel=9 note=41 velocity=127 time=0
EXTRACT: note_off channel=9 note=41 velocity=127 time=0.029761666666666662
EXTRACT: note_off channel=9 note=38 velocity=127 time=0
EXTRACT: note_off channel=9 note=38 velocity=127 time=0
EXTRACT: note_on channel=6 note=60 velocity=100 time=0.13578760416666666
EXTRACT: note_off channel=6 note=62 velocity=100 time=0.024181354166666662
EXTRACT: note_off channel=1 note=65 velocity=100 time=0.16740937499999997
EXTRACT: note_off channel=1 note=60 velocity=100 time=0
EXTRACT: note_off channel=1 note=56 velocity=100 time=0
EXTRACT: note_off channel=1 note=53 velocity=100 time=0
EXTRACT: note_off channel=1 note=48 velocity=100 time=0
EXTRACT: note_off channel=1 note=41 velocity=100 time=0
EXTRACT: note_on channel=1 note=41 velocity=100 time=0
EXTRACT: note_on channel=1 note=48 velocity=100 time=0
EXTRACT: note_on channel=1 note=53 velocity=100 time=0
EXTRACT: note_on channel=1 note=56 velocity=100 time=0
EXTRACT: note_on channel=1 note=60 velocity=100 time=0
EXTRACT: note_on channel=1 note=65 velocity=100 time=0
EXTRACT: note_off channel=3 note=53 velocity=100 time=0
EXTRACT: note_off channel=3 note=56 velocity=100 time=0
EXTRACT: note_off channel=3 note=60 velocity=100 time=0
EXTRACT: note_off channel=3 note=65 velocity=100 time=0
EXTRACT: note_off channel=5 note=29 velocity=100 time=0
EXTRACT: note_on channel=5 note=31 velocity=100 time=0
EXTRACT: note_on channel=9 note=41 velocity=127 time=0
EXTRACT: note_off channel=9 note=41 velocity=127 time=0.029761666666666662
EXTRACT: note_off channel=5 note=31 velocity=100 time=0.14880833333333332
EXTRACT: note_on channel=5 note=33 velocity=100 time=0
EXTRACT: note_on channel=4 note=62 velocity=100 time=0.08928499999999999
EXTRACT: note_off channel=1 note=65 velocity=100 time=0.08928499999999999
EXTRACT: note_off channel=1 note=60 velocity=100 time=0
EXTRACT: note_off channel=1 note=56 velocity=100 time=0
EXTRACT: note_off channel=1 note=53 velocity=100 time=0
EXTRACT: note_off channel=1 note=48 velocity=100 time=0
EXTRACT: note_off channel=1 note=41 velocity=100 time=0
EXTRACT: note_on channel=1 note=48 velocity=100 time=0
EXTRACT: note_on channel=1 note=52 velocity=100 time=0
EXTRACT: note_on channel=1 note=55 velocity=100 time=0
EXTRACT: note_on channel=1 note=60 velocity=100 time=0
EXTRACT: note_on channel=1 note=64 velocity=100 time=0
EXTRACT: note_off channel=4 note=62 velocity=100 time=0
EXTRACT: note_off channel=4 note=62 velocity=100 time=0
EXTRACT: note_on channel=4 note=67 velocity=100 time=0
EXTRACT: note_off channel=5 note=33 velocity=100 time=0
EXTRACT: note_on channel=5 note=36 velocity=100 time=0
EXTRACT: note_on channel=9 note=35 velocity=127 time=0
EXTRACT: note_on channel=9 note=36 velocity=127 time=0
EXTRACT: note_on channel=9 note=41 velocity=127 time=0
EXTRACT: note_off channel=9 note=41 velocity=127 time=0.029761666666666662
EXTRACT: note_off channel=9 note=36 velocity=127 time=0
EXTRACT: note_off channel=9 note=35 velocity=127 time=0
EXTRACT: note_off channel=6 note=60 velocity=100 time=0.13578760416666666
EXTRACT: note_on channel=6 note=55 velocity=100 time=0.013020729166666665
EXTRACT: note_off channel=5 note=36 velocity=100 time=0.17856999999999998
EXTRACT: note_on channel=5 note=36 velocity=100 time=0
EXTRACT: note_on channel=9 note=35 velocity=127 time=0
EXTRACT: note_on channel=9 note=36 velocity=127 time=0
EXTRACT: note_on channel=9 note=41 velocity=127 time=0
EXTRACT: note_off channel=9 note=41 velocity=127 time=0.029761666666666662
EXTRACT: note_off channel=9 note=36 velocity=127 time=0
EXTRACT: note_off channel=9 note=35 velocity=127 time=0.059523333333333324
EXTRACT: note_off channel=1 note=64 velocity=100 time=0.26785499999999995
EXTRACT: note_off channel=1 note=60 velocity=100 time=0
EXTRACT: note_off channel=1 note=55 velocity=100 time=0
EXTRACT: note_off channel=1 note=52 velocity=100 time=0
EXTRACT: note_off channel=1 note=48 velocity=100 time=0
EXTRACT: note_on channel=1 note=64 velocity=100 time=0
EXTRACT: note_on channel=1 note=60 velocity=100 time=0
EXTRACT: note_on channel=1 note=55 velocity=100 time=0
EXTRACT: note_on channel=1 note=52 velocity=100 time=0
EXTRACT: note_on channel=1 note=48 velocity=100 time=0
EXTRACT: note_on channel=3 note=67 velocity=100 time=0
EXTRACT: note_on channel=3 note=64 velocity=100 time=0
EXTRACT: note_on channel=3 note=60 velocity=100 time=0
EXTRACT: note_off channel=5 note=36 velocity=100 time=0
EXTRACT: note_on channel=5 note=36 velocity=100 time=0
EXTRACT: note_on channel=9 note=38 velocity=127 time=0
EXTRACT: note_on channel=9 note=38 velocity=127 time=0
EXTRACT: note_on channel=9 note=41 velocity=127 time=0
EXTRACT: note_off channel=9 note=41 velocity=127 time=0.029761666666666662
EXTRACT: note_off channel=9 note=38 velocity=127 time=0
EXTRACT: note_off channel=9 note=38 velocity=127 time=0
EXTRACT: note_off channel=6 note=55 velocity=100 time=0.14880833333333332
EXTRACT: note_off channel=1 note=48 velocity=100 time=0.17856999999999998
EXTRACT: note_off channel=1 note=52 velocity=100 time=0
EXTRACT: note_off channel=1 note=55 velocity=100 time=0
EXTRACT: note_off channel=1 note=60 velocity=100 time=0
EXTRACT: note_off channel=1 note=64 velocity=100 time=0
EXTRACT: note_on channel=1 note=60 velocity=100 time=0
EXTRACT: note_on channel=1 note=64 velocity=100 time=0
EXTRACT: note_on channel=1 note=55 velocity=100 time=0
EXTRACT: note_on channel=1 note=52 velocity=100 time=0
EXTRACT: note_on channel=1 note=48 velocity=100 time=0
EXTRACT: note_off channel=3 note=60 velocity=100 time=0
EXTRACT: note_off channel=3 note=64 velocity=100 time=0
EXTRACT: note_off channel=3 note=67 velocity=100 time=0
EXTRACT: note_off channel=5 note=36 velocity=100 time=0
EXTRACT: note_on channel=5 note=36 velocity=100 time=0
EXTRACT: note_on channel=9 note=41 velocity=127 time=0
EXTRACT: note_off channel=9 note=41 velocity=127 time=0.029761666666666662
EXTRACT: note_off channel=5 note=36 velocity=100 time=0.14880833333333332
EXTRACT: note_on channel=5 note=33 velocity=100 time=0
EXTRACT: note_on channel=9 note=45 velocity=127 time=0
EXTRACT: note_off channel=9 note=45 velocity=127 time=0.029761666666666662
EXTRACT: note_on channel=2 note=55 velocity=100 time=0.059523333333333324
EXTRACT: note_off channel=1 note=48 velocity=100 time=0.08928499999999999
EXTRACT: note_off channel=1 note=52 velocity=100 time=0
EXTRACT: note_off channel=1 note=55 velocity=100 time=0
EXTRACT: note_off channel=1 note=64 velocity=100 time=0
EXTRACT: note_off channel=1 note=60 velocity=100 time=0
EXTRACT: note_on channel=1 note=60 velocity=100 time=0
EXTRACT: note_on channel=1 note=64 velocity=100 time=0
EXTRACT: note_on channel=1 note=55 velocity=100 time=0
EXTRACT: note_on channel=1 note=52 velocity=100 time=0
EXTRACT: note_on channel=1 note=48 velocity=100 time=0
EXTRACT: note_off channel=2 note=55 velocity=100 time=0
EXTRACT: note_on channel=2 note=60 velocity=100 time=0
EXTRACT: note_on channel=2 note=57 velocity=100 time=0
EXTRACT: note_off channel=4 note=67 velocity=100 time=0
EXTRACT: note_off channel=5 note=33 velocity=100 time=0
EXTRACT: note_on channel=5 note=36 velocity=100 time=0
EXTRACT: note_on channel=9 note=35 velocity=127 time=0
EXTRACT: note_on channel=9 note=36 velocity=127 time=0
EXTRACT: note_on channel=9 note=41 velocity=127 time=0
EXTRACT: note_off channel=9 note=41 velocity=127 time=0.029761666666666662
EXTRACT: note_off channel=9 note=36 velocity=127 time=0
EXTRACT: note_off channel=9 note=35 velocity=127 time=0
EXTRACT: note_off channel=5 note=36 velocity=100 time=0.14880833333333332
EXTRACT: note_on channel=5 note=33 velocity=100 time=0
EXTRACT: note_on channel=9 note=45 velocity=127 time=0
EXTRACT: note_off channel=9 note=45 velocity=127 time=0.029761666666666662
EXTRACT: note_off channel=1 note=48 velocity=100 time=0.14880833333333332
EXTRACT: note_off channel=1 note=52 velocity=100 time=0
EXTRACT: note_off channel=1 note=55 velocity=100 time=0
EXTRACT: note_off channel=1 note=64 velocity=100 time=0
EXTRACT: note_off channel=1 note=60 velocity=100 time=0
EXTRACT: note_on channel=1 note=60 velocity=100 time=0
EXTRACT: note_on channel=1 note=64 velocity=100 time=0
EXTRACT: note_on channel=1 note=55 velocity=100 time=0
EXTRACT: note_on channel=1 note=52 velocity=100 time=0
EXTRACT: note_on channel=1 note=48 velocity=100 time=0
EXTRACT: note_off channel=2 note=57 velocity=100 time=0
EXTRACT: note_off channel=2 note=60 velocity=100 time=0
EXTRACT: note_on channel=2 note=55 velocity=100 time=0
EXTRACT: note_on channel=2 note=60 velocity=100 time=0
EXTRACT: note_off channel=5 note=33 velocity=100 time=0
EXTRACT: note_on channel=5 note=31 velocity=100 time=0
EXTRACT: note_on channel=9 note=36 velocity=127 time=0
EXTRACT: note_on channel=9 note=41 velocity=127 time=0
EXTRACT: note_on channel=9 note=35 velocity=127 time=0
EXTRACT: note_off channel=9 note=41 velocity=127 time=0.029761666666666662
EXTRACT: note_off channel=9 note=36 velocity=127 time=0
EXTRACT: note_off channel=9 note=35 velocity=127 time=0.059523333333333324
EXTRACT: note_off channel=5 note=31 velocity=100 time=0.08928499999999999
EXTRACT: note_on channel=5 note=36 velocity=100 time=0.029761666666666662
EXTRACT: note_on channel=2 note=50 velocity=100 time=0.059523333333333324
EXTRACT: note_off channel=1 note=48 velocity=100 time=0.08928499999999999
EXTRACT: note_off channel=1 note=52 velocity=100 time=0
EXTRACT: note_off channel=1 note=55 velocity=100 time=0
EXTRACT: note_off channel=1 note=64 velocity=100 time=0
EXTRACT: note_off channel=1 note=60 velocity=100 time=0
EXTRACT: note_on channel=1 note=60 velocity=100 time=0
EXTRACT: note_on channel=1 note=64 velocity=100 time=0
EXTRACT: note_on channel=1 note=55 velocity=100 time=0
EXTRACT: note_on channel=1 note=52 velocity=100 time=0
EXTRACT: note_on channel=1 note=48 velocity=100 time=0
EXTRACT: note_off channel=2 note=50 velocity=100 time=0
EXTRACT: note_off channel=2 note=60 velocity=100 time=0
EXTRACT: note_off channel=2 note=55 velocity=100 time=0
EXTRACT: note_on channel=2 note=52 velocity=100 time=0
EXTRACT: note_on channel=3 note=72 velocity=120 time=0
EXTRACT: note_on channel=3 note=67 velocity=100 time=0
EXTRACT: note_on channel=3 note=64 velocity=100 time=0
EXTRACT: note_on channel=3 note=60 velocity=100 time=0
EXTRACT: note_on channel=9 note=38 velocity=127 time=0
EXTRACT: note_on channel=9 note=38 velocity=127 time=0
EXTRACT: note_on channel=9 note=41 velocity=127 time=0
EXTRACT: note_off channel=9 note=41 velocity=127 time=0.029761666666666662
EXTRACT: note_off channel=9 note=38 velocity=127 time=0
EXTRACT: note_off channel=9 note=38 velocity=127 time=0
EXTRACT: note_on channel=5 note=35 velocity=100 time=0.1599689583333333
EXTRACT: note_off channel=5 note=36 velocity=100 time=0.018601041666666665
EXTRACT: note_off channel=1 note=48 velocity=100 time=0.14880833333333332
EXTRACT: note_off channel=1 note=52 velocity=100 time=0
EXTRACT: note_off channel=1 note=55 velocity=100 time=0
EXTRACT: note_off channel=1 note=64 velocity=100 time=0
EXTRACT: note_off channel=1 note=60 velocity=100 time=0
EXTRACT: note_on channel=1 note=60 velocity=100 time=0
EXTRACT: note_on channel=1 note=64 velocity=100 time=0
EXTRACT: note_on channel=1 note=55 velocity=100 time=0
EXTRACT: note_on channel=1 note=52 velocity=100 time=0
EXTRACT: note_on channel=1 note=48 velocity=100 time=0
EXTRACT: note_off channel=2 note=52 velocity=100 time=0
EXTRACT: note_on channel=2 note=55 velocity=100 time=0
EXTRACT: note_off channel=3 note=60 velocity=100 time=0
EXTRACT: note_off channel=3 note=64 velocity=100 time=0
EXTRACT: note_off channel=3 note=67 velocity=100 time=0
EXTRACT: note_off channel=3 note=72 velocity=120 time=0
EXTRACT: note_on channel=6 note=57 velocity=100 time=0
EXTRACT: note_on channel=9 note=41 velocity=127 time=0
EXTRACT: note_off channel=5 note=35 velocity=100 time=0.011160624999999999
EXTRACT: note_on channel=5 note=36 velocity=100 time=0
EXTRACT: note_off channel=9 note=41 velocity=127 time=0.018601041666666665
EXTRACT: note_on channel=5 note=35 velocity=100 time=0.11904666666666665
EXTRACT: note_off channel=6 note=57 velocity=100 time=0.029761666666666662
EXTRACT: note_on channel=9 note=38 velocity=127 time=0
EXTRACT: note_off channel=5 note=36 velocity=100 time=0.011160624999999999
EXTRACT: note_on channel=6 note=60 velocity=100 time=0
EXTRACT: note_off channel=9 note=38 velocity=127 time=0.018601041666666665
EXTRACT: note_off channel=5 note=35 velocity=100 time=0.11904666666666665
EXTRACT: note_off channel=1 note=48 velocity=100 time=0.029761666666666662
EXTRACT: note_off channel=1 note=52 velocity=100 time=0
EXTRACT: note_off channel=1 note=55 velocity=100 time=0
EXTRACT: note_off channel=1 note=64 velocity=100 time=0
EXTRACT: note_off channel=1 note=60 velocity=100 time=0
EXTRACT: note_on channel=1 note=41 velocity=100 time=0
EXTRACT: note_on channel=1 note=48 velocity=100 time=0
EXTRACT: note_on channel=1 note=53 velocity=100 time=0
EXTRACT: note_on channel=1 note=57 velocity=100 time=0
EXTRACT: note_on channel=1 note=60 velocity=100 time=0
EXTRACT: note_off channel=2 note=55 velocity=100 time=0
EXTRACT: note_on channel=2 note=48 velocity=100 time=0
EXTRACT: note_on channel=4 note=60 velocity=100 time=0
EXTRACT: note_on channel=5 note=29 velocity=100 time=0
EXTRACT: note_on channel=6 note=62 velocity=100 time=0
EXTRACT: note_on channel=9 note=35 velocity=127 time=0
EXTRACT: note_on channel=9 note=36 velocity=127 time=0
EXTRACT: note_on channel=9 note=41 velocity=127 time=0
EXTRACT: note_on channel=9 note=49 velocity=127 time=0
EXTRACT: note_off channel=6 note=60 velocity=100 time=0.011160624999999999
EXTRACT: note_off channel=9 note=49 velocity=127 time=0.018601041666666665
EXTRACT: note_off channel=9 note=41 velocity=127 time=0
EXTRACT: note_off channel=9 note=36 velocity=127 time=0
EXTRACT: note_off channel=9 note=35 velocity=127 time=0
EXTRACT: note_off channel=5 note=29 velocity=100 time=0.32737833333333327
EXTRACT: note_on channel=5 note=29 velocity=100 time=0
EXTRACT: note_off channel=6 note=62 velocity=100 time=0
EXTRACT: note_on channel=9 note=35 velocity=127 time=0
EXTRACT: note_on channel=9 note=36 velocity=127 time=0
EXTRACT: note_on channel=9 note=41 velocity=127 time=0
EXTRACT: note_on channel=6 note=60 velocity=100 time=0.005580312499999999
EXTRACT: note_off channel=9 note=41 velocity=127 time=0.024181354166666662
EXTRACT: note_off channel=9 note=36 velocity=127 time=0
EXTRACT: note_off channel=9 note=35 velocity=127 time=0.059523333333333324
EXTRACT: note_off channel=6 note=60 velocity=100 time=0.09486531249999998
EXTRACT: note_on channel=6 note=62 velocity=100 time=0.005580312499999999
EXTRACT: note_off channel=1 note=60 velocity=100 time=0.16740937499999997
EXTRACT: note_off channel=1 note=57 velocity=100 time=0
EXTRACT: note_off channel=1 note=53 velocity=100 time=0
EXTRACT: note_off channel=1 note=48 velocity=100 time=0
EXTRACT: note_off channel=1 note=41 velocity=100 time=0
EXTRACT: note_on channel=1 note=41 velocity=100 time=0
EXTRACT: note_on channel=1 note=48 velocity=100 time=0
EXTRACT: note_on channel=1 note=53 velocity=100 time=0
EXTRACT: note_on channel=1 note=57 velocity=100 time=0
EXTRACT: note_on channel=1 note=60 velocity=100 time=0
EXTRACT: note_on channel=3 note=65 velocity=100 time=0
EXTRACT: note_on channel=3 note=60 velocity=100 time=0
EXTRACT: note_on channel=3 note=57 velocity=100 time=0
EXTRACT: note_on channel=3 note=53 velocity=100 time=0
EXTRACT: note_off channel=5 note=29 velocity=100 time=0
EXTRACT: note_on channel=5 note=29 velocity=100 time=0
EXTRACT: note_on channel=9 note=38 velocity=127 time=0
EXTRACT: note_on channel=9 note=38 velocity=127 time=0
EXTRACT: note_on channel=9 note=41 velocity=127 time=0
EXTRACT: note_off channel=9 note=41 velocity=127 time=0.029761666666666662
EXTRACT: note_off channel=9 note=38 velocity=127 time=0
EXTRACT: note_off channel=9 note=38 velocity=127 time=0
EXTRACT: note_off channel=1 note=60 velocity=100 time=0.32737833333333327
EXTRACT: note_off channel=1 note=57 velocity=100 time=0
EXTRACT: note_off channel=1 note=53 velocity=100 time=0
EXTRACT: note_off channel=1 note=48 velocity=100 time=0
EXTRACT: note_off channel=1 note=41 velocity=100 time=0
EXTRACT: note_on channel=1 note=41 velocity=100 time=0
EXTRACT: note_on channel=1 note=48 velocity=100 time=0
EXTRACT: note_on channel=1 note=53 velocity=100 time=0
EXTRACT: note_on channel=1 note=57 velocity=100 time=0
EXTRACT: note_on channel=1 note=60 velocity=100 time=0
EXTRACT: note_off channel=3 note=53 velocity=100 time=0
EXTRACT: note_off channel=3 note=57 velocity=100 time=0
EXTRACT: note_off channel=3 note=60 velocity=100 time=0
EXTRACT: note_off channel=3 note=65 velocity=100 time=0
EXTRACT: note_off channel=5 note=29 velocity=100 time=0
EXTRACT: note_on channel=5 note=29 velocity=100 time=0
EXTRACT: note_on channel=6 note=60 velocity=100 time=0
EXTRACT: note_on channel=9 note=41 velocity=127 time=0
EXTRACT: note_off channel=6 note=62 velocity=100 time=0.011160624999999999
EXTRACT: note_off channel=9 note=41 velocity=127 time=0.018601041666666665
EXTRACT: note_on channel=6 note=62 velocity=100 time=0.13578760416666666
EXTRACT: note_off channel=5 note=29 velocity=100 time=0.013020729166666665
EXTRACT: note_on channel=5 note=29 velocity=100 time=0
EXTRACT: note_off channel=6 note=60 velocity=100 time=0
EXTRACT: note_on channel=9 note=45 velocity=127 time=0
EXTRACT: note_off channel=9 note=45 velocity=127 time=0.029761666666666662
EXTRACT: note_on channel=4 note=60 velocity=100 time=0.059523333333333324
EXTRACT: note_off channel=1 note=60 velocity=100 time=0.08928499999999999
EXTRACT: note_off channel=1 note=57 velocity=100 time=0
EXTRACT: note_off channel=1 note=53 velocity=100 time=0
EXTRACT: note_off channel=1 note=48 velocity=100 time=0
EXTRACT: note_off channel=1 note=41 velocity=100 time=0
EXTRACT: note_on channel=1 note=41 velocity=100 time=0
EXTRACT: note_on channel=1 note=48 velocity=100 time=0
EXTRACT: note_on channel=1 note=53 velocity=100 time=0
EXTRACT: note_on channel=1 note=56 velocity=100 time=0
EXTRACT: note_on channel=1 note=60 velocity=100 time=0
EXTRACT: note_on channel=1 note=65 velocity=100 time=0
EXTRACT: note_off channel=2 note=48 velocity=100 time=0
EXTRACT: note_off channel=4 note=60 velocity=100 time=0
EXTRACT: note_off channel=4 note=60 velocity=100 time=0
EXTRACT: note_on channel=4 note=62 velocity=100 time=0
EXTRACT: note_off channel=5 note=29 velocity=100 time=0
EXTRACT: note_on channel=5 note=29 velocity=100 time=0
EXTRACT: note_on channel=9 note=35 velocity=127 time=0
EXTRACT: note_on channel=9 note=36 velocity=127 time=0
EXTRACT: note_on channel=9 note=41 velocity=127 time=0
EXTRACT: note_off channel=9 note=41 velocity=127 time=0.029761666666666662
EXTRACT: note_off channel=9 note=36 velocity=127 time=0
EXTRACT: note_off channel=9 note=35 velocity=127 time=0
EXTRACT: note_off channel=5 note=29 velocity=100 time=0.14880833333333332
EXTRACT: note_on channel=5 note=29 velocity=100 time=0
EXTRACT: note_on channel=9 note=45 velocity=127 time=0
EXTRACT: note_off channel=9 note=45 velocity=127 time=0.029761666666666662
EXTRACT: note_off channel=6 note=62 velocity=100 time=0.13578760416666666
EXTRACT: note_on channel=6 note=60 velocity=100 time=0
EXTRACT: note_off channel=5 note=29 velocity=100 time=0.013020729166666665
EXTRACT: note_on channel=5 note=29 velocity=100 time=0
EXTRACT: note_on channel=9 note=35 velocity=127 time=0
EXTRACT: note_on channel=9 note=36 velocity=127 time=0
EXTRACT: note_on channel=9 note=41 velocity=127 time=0
EXTRACT: note_off channel=9 note=41 velocity=127 time=0.029761666666666662
EXTRACT: note_off channel=9 note=36 velocity=127 time=0
EXTRACT: note_off channel=9 note=35 velocity=127 time=0.059523333333333324
EXTRACT: note_on channel=6 note=62 velocity=100 time=0.2380933333333333
EXTRACT: note_off channel=6 note=60 velocity=100 time=0.016740937499999997
EXTRACT: note_off channel=1 note=65 velocity=100 time=0.013020729166666665
EXTRACT: note_off channel=1 note=60 velocity=100 time=0
EXTRACT: note_off channel=1 note=56 velocity=100 time=0
EXTRACT: note_off channel=1 note=53 velocity=100 time=0
EXTRACT: note_off channel=1 note=48 velocity=100 time=0
EXTRACT: note_off channel=1 note=41 velocity=100 time=0
EXTRACT: note_on channel=1 note=41 velocity=100 time=0
EXTRACT: note_on channel=1 note=48 velocity=100 time=0
EXTRACT: note_on channel=1 note=53 velocity=100 time=0
EXTRACT: note_on channel=1 note=56 velocity=100 time=0
EXTRACT: note_on channel=1 note=60 velocity=100 time=0
EXTRACT: note_on channel=1 note=65 velocity=100 time=0
EXTRACT: note_on channel=3 note=65 velocity=100 time=0
EXTRACT: note_on channel=3 note=60 velocity=100 time=0
EXTRACT: note_on channel=3 note=56 velocity=100 time=0
EXTRACT: note_on channel=3 note=53 velocity=100 time=0
EXTRACT: note_off channel=5 note=29 velocity=100 time=0
EXTRACT: note_on channel=5 note=29 velocity=100 time=0
EXTRACT: note_on channel=9 note=38 velocity=127 time=0
EXTRACT: note_on channel=9 note=38 velocity=127 time=0
EXTRACT: note_on channel=9 note=41 velocity=127 time=0
EXTRACT: note_off channel=9 note=41 velocity=127 time=0.029761666666666662
EXTRACT: note_off channel=9 note=38 velocity=127 time=0
EXTRACT: note_off channel=9 note=38 velocity=127 time=0
EXTRACT: note_off channel=6 note=62 velocity=100 time=0.11904666666666665
EXTRACT: note_on channel=6 note=60 velocity=100 time=0.05208291666666666
EXTRACT: note_off channel=1 note=65 velocity=100 time=0.15624874999999996
EXTRACT: note_off channel=1 note=60 velocity=100 time=0
EXTRACT: note_off channel=1 note=56 velocity=100 time=0
EXTRACT: note_off channel=1 note=53 velocity=100 time=0
EXTRACT: note_off channel=1 note=48 velocity=100 time=0
EXTRACT: note_off channel=1 note=41 velocity=100 time=0
EXTRACT: note_on channel=1 note=41 velocity=100 time=0
EXTRACT: note_on channel=1 note=48 velocity=100 time=0
EXTRACT: note_on channel=1 note=53 velocity=100 time=0
EXTRACT: note_on channel=1 note=56 velocity=100 time=0
EXTRACT: note_on channel=1 note=60 velocity=100 time=0
EXTRACT: note_on channel=1 note=65 velocity=100 time=0
EXTRACT: note_off channel=3 note=53 velocity=100 time=0
EXTRACT: note_off channel=3 note=56 velocity=100 time=0
EXTRACT: note_off channel=3 note=60 velocity=100 time=0
EXTRACT: note_off channel=3 note=65 velocity=100 time=0
EXTRACT: note_off channel=5 note=29 velocity=100 time=0
EXTRACT: note_on channel=5 note=31 velocity=100 time=0
EXTRACT: note_on channel=9 note=41 velocity=127 time=0
EXTRACT: note_off channel=9 note=41 velocity=127 time=0.029761666666666662
EXTRACT: note_off channel=5 note=31 velocity=100 time=0.14880833333333332
EXTRACT: note_on channel=5 note=33 velocity=100 time=0
EXTRACT: note_on channel=4 note=62 velocity=100 time=0.08928499999999999
EXTRACT: note_off channel=1 note=65 velocity=100 time=0.08928499999999999
EXTRACT: note_off channel=1 note=60 velocity=100 time=0
EXTRACT: note_off channel=1 note=56 velocity=100 time=0
EXTRACT: note_off channel=1 note=53 velocity=100 time=0
EXTRACT: note_off channel=1 note=48 velocity=100 time=0
EXTRACT: note_off channel=1 note=41 velocity=100 time=0
EXTRACT: note_on channel=1 note=48 velocity=100 time=0
EXTRACT: note_on channel=1 note=52 velocity=100 time=0
EXTRACT: note_on channel=1 note=55 velocity=100 time=0
EXTRACT: note_on channel=1 note=60 velocity=100 time=0
EXTRACT: note_on channel=1 note=64 velocity=100 time=0
EXTRACT: note_off channel=4 note=62 velocity=100 time=0
EXTRACT: note_off channel=4 note=62 velocity=100 time=0
EXTRACT: note_on channel=4 note=67 velocity=100 time=0
EXTRACT: note_off channel=5 note=33 velocity=100 time=0
EXTRACT: note_on channel=5 note=36 velocity=100 time=0
EXTRACT: note_on channel=9 note=35 velocity=127 time=0
EXTRACT: note_on channel=9 note=36 velocity=127 time=0
EXTRACT: note_on channel=9 note=41 velocity=127 time=0
EXTRACT: note_off channel=9 note=41 velocity=127 time=0.029761666666666662
EXTRACT: note_off channel=9 note=36 velocity=127 time=0
EXTRACT: note_off channel=9 note=35 velocity=127 time=0
EXTRACT: note_on channel=6 note=55 velocity=100 time=0.1599689583333333
EXTRACT: note_off channel=6 note=60 velocity=100 time=0.011160624999999999
EXTRACT: note_off channel=5 note=36 velocity=100 time=0.15624874999999996
EXTRACT: note_on channel=5 note=36 velocity=100 time=0
EXTRACT: note_on channel=9 note=36 velocity=127 time=0
EXTRACT: note_on channel=9 note=41 velocity=127 time=0
EXTRACT: note_on channel=9 note=35 velocity=127 time=0
EXTRACT: note_off channel=9 note=41 velocity=127 time=0.029761666666666662
EXTRACT: note_off channel=9 note=36 velocity=127 time=0
EXTRACT: note_off channel=9 note=35 velocity=127 time=0.059523333333333324
EXTRACT: note_off channel=1 note=64 velocity=100 time=0.26785499999999995
EXTRACT: note_off channel=1 note=60 velocity=100 time=0
EXTRACT: note_off channel=1 note=55 velocity=100 time=0
EXTRACT: note_off channel=1 note=52 velocity=100 time=0
EXTRACT: note_off channel=1 note=48 velocity=100 time=0
EXTRACT: note_on channel=1 note=64 velocity=100 time=0
EXTRACT: note_on channel=1 note=60 velocity=100 time=0
EXTRACT: note_on channel=1 note=55 velocity=100 time=0
EXTRACT: note_on channel=1 note=52 velocity=100 time=0
EXTRACT: note_on channel=1 note=48 velocity=100 time=0
EXTRACT: note_on channel=3 note=67 velocity=100 time=0
EXTRACT: note_on channel=3 note=64 velocity=100 time=0
EXTRACT: note_on channel=3 note=60 velocity=100 time=0
EXTRACT: note_off channel=5 note=36 velocity=100 time=0
EXTRACT: note_on channel=5 note=36 velocity=100 time=0
EXTRACT: note_on channel=9 note=38 velocity=127 time=0
EXTRACT: note_on channel=9 note=38 velocity=127 time=0
EXTRACT: note_on channel=9 note=41 velocity=127 time=0
EXTRACT: note_off channel=9 note=41 velocity=127 time=0.029761666666666662
EXTRACT: note_off channel=9 note=38 velocity=127 time=0
EXTRACT: note_off channel=9 note=38 velocity=127 time=0
EXTRACT: note_off channel=6 note=55 velocity=100 time=0.1599689583333333
EXTRACT: note_off channel=1 note=48 velocity=100 time=0.16740937499999997
EXTRACT: note_off channel=1 note=52 velocity=100 time=0
EXTRACT: note_off channel=1 note=55 velocity=100 time=0
EXTRACT: note_off channel=1 note=60 velocity=100 time=0
EXTRACT: note_off channel=1 note=64 velocity=100 time=0
EXTRACT: note_on channel=1 note=60 velocity=100 time=0
EXTRACT: note_on channel=1 note=64 velocity=100 time=0
EXTRACT: note_on channel=1 note=55 velocity=100 time=0
EXTRACT: note_on channel=1 note=52 velocity=100 time=0
EXTRACT: note_on channel=1 note=48 velocity=100 time=0
EXTRACT: note_off channel=3 note=60 velocity=100 time=0
EXTRACT: note_off channel=3 note=64 velocity=100 time=0
EXTRACT: note_off channel=3 note=67 velocity=100 time=0
EXTRACT: note_off channel=4 note=67 velocity=100 time=0
EXTRACT: note_off channel=5 note=36 velocity=100 time=0
EXTRACT: note_on channel=5 note=36 velocity=100 time=0
EXTRACT: note_on channel=9 note=41 velocity=127 time=0
EXTRACT: note_off channel=9 note=41 velocity=127 time=0.029761666666666662
EXTRACT: note_off channel=5 note=36 velocity=100 time=0.14880833333333332
EXTRACT: note_on channel=5 note=33 velocity=100 time=0
EXTRACT: note_on channel=9 note=45 velocity=127 time=0
EXTRACT: note_off channel=9 note=45 velocity=127 time=0.029761666666666662
EXTRACT: pitchwheel channel=2 pitch=-8192 time=0.13578760416666666
EXTRACT: note_off channel=1 note=48 velocity=100 time=0.013020729166666665
EXTRACT: note_off channel=1 note=52 velocity=100 time=0
EXTRACT: note_off channel=1 note=55 velocity=100 time=0
EXTRACT: note_off channel=1 note=64 velocity=100 time=0
EXTRACT: note_off channel=1 note=60 velocity=100 time=0
EXTRACT: note_on channel=1 note=60 velocity=100 time=0
EXTRACT: note_on channel=1 note=64 velocity=100 time=0
EXTRACT: note_on channel=1 note=55 velocity=100 time=0
EXTRACT: note_on channel=1 note=52 velocity=100 time=0
EXTRACT: note_on channel=1 note=48 velocity=100 time=0
EXTRACT: pitchwheel channel=2 pitch=-8064 time=0
EXTRACT: note_on channel=2 note=64 velocity=100 time=0
EXTRACT: note_off channel=5 note=33 velocity=100 time=0
EXTRACT: note_on channel=5 note=36 velocity=100 time=0
EXTRACT: note_on channel=9 note=35 velocity=127 time=0
EXTRACT: note_on channel=9 note=36 velocity=127 time=0
EXTRACT: note_on channel=9 note=41 velocity=127 time=0
EXTRACT: pitchwheel channel=2 pitch=-7808 time=0.011160624999999999
EXTRACT: pitchwheel channel=2 pitch=-7552 time=0.011160624999999999
EXTRACT: note_off channel=9 note=41 velocity=127 time=0.0074404166666666655
EXTRACT: note_off channel=9 note=36 velocity=127 time=0
EXTRACT: note_off channel=9 note=35 velocity=127 time=0
EXTRACT: pitchwheel channel=2 pitch=-7424 time=0.005580312499999999
EXTRACT: pitchwheel channel=2 pitch=-7168 time=0.011160624999999999
EXTRACT: pitchwheel channel=2 pitch=-6912 time=0.013020729166666665
EXTRACT: pitchwheel channel=2 pitch=-6656 time=0.011160624999999999
EXTRACT: pitchwheel channel=2 pitch=-6528 time=0.011160624999999999
EXTRACT: pitchwheel channel=2 pitch=-6272 time=0.013020729166666665
EXTRACT: pitchwheel channel=2 pitch=-6016 time=0.011160624999999999
EXTRACT: pitchwheel channel=2 pitch=-5760 time=0.013020729166666665
EXTRACT: pitchwheel channel=2 pitch=-5632 time=0.011160624999999999
EXTRACT: pitchwheel channel=2 pitch=-5376 time=0.011160624999999999
EXTRACT: pitchwheel channel=2 pitch=-5120 time=0.013020729166666665
EXTRACT: pitchwheel channel=2 pitch=-4992 time=0.011160624999999999
EXTRACT: pitchwheel channel=2 pitch=-4736 time=0.013020729166666665
EXTRACT: note_off channel=5 note=36 velocity=100 time=0
EXTRACT: note_on channel=5 note=33 velocity=100 time=0
EXTRACT: note_on channel=9 note=45 velocity=127 time=0
EXTRACT: pitchwheel channel=2 pitch=-4480 time=0.011160624999999999
EXTRACT: pitchwheel channel=2 pitch=-4224 time=0.011160624999999999
EXTRACT: note_off channel=9 note=45 velocity=127 time=0.0074404166666666655
EXTRACT: pitchwheel channel=2 pitch=-4096 time=0.005580312499999999
EXTRACT: pitchwheel channel=2 pitch=-3840 time=0.011160624999999999
EXTRACT: pitchwheel channel=2 pitch=-3584 time=0.013020729166666665
EXTRACT: pitchwheel channel=2 pitch=-3328 time=0.011160624999999999
EXTRACT: pitchwheel channel=2 pitch=-3200 time=0.011160624999999999
EXTRACT: pitchwheel channel=2 pitch=-2944 time=0.013020729166666665
EXTRACT: pitchwheel channel=2 pitch=-2688 time=0.011160624999999999
EXTRACT: pitchwheel channel=2 pitch=-2560 time=0.013020729166666665
EXTRACT: pitchwheel channel=2 pitch=-2304 time=0.011160624999999999
EXTRACT: pitchwheel channel=2 pitch=-2048 time=0.011160624999999999
EXTRACT: pitchwheel channel=2 pitch=-1792 time=0.013020729166666665
EXTRACT: pitchwheel channel=2 pitch=-1664 time=0.011160624999999999
EXTRACT: note_off channel=1 note=48 velocity=100 time=0.013020729166666665
EXTRACT: note_off channel=1 note=52 velocity=100 time=0
EXTRACT: note_off channel=1 note=55 velocity=100 time=0
EXTRACT: note_off channel=1 note=64 velocity=100 time=0
EXTRACT: note_off channel=1 note=60 velocity=100 time=0
EXTRACT: note_on channel=1 note=60 velocity=100 time=0
EXTRACT: note_on channel=1 note=64 velocity=100 time=0
EXTRACT: note_on channel=1 note=55 velocity=100 time=0
EXTRACT: note_on channel=1 note=52 velocity=100 time=0
EXTRACT: note_on channel=1 note=48 velocity=100 time=0
EXTRACT: pitchwheel channel=2 pitch=-1408 time=0
EXTRACT: note_off channel=5 note=33 velocity=100 time=0
EXTRACT: note_on channel=5 note=31 velocity=100 time=0
EXTRACT: note_on channel=9 note=35 velocity=127 time=0
EXTRACT: note_on channel=9 note=36 velocity=127 time=0
EXTRACT: note_on channel=9 note=41 velocity=127 time=0
EXTRACT: pitchwheel channel=2 pitch=-1152 time=0.011160624999999999
EXTRACT: pitchwheel channel=2 pitch=-896 time=0.011160624999999999
EXTRACT: note_off channel=9 note=41 velocity=127 time=0.0074404166666666655
EXTRACT: note_off channel=9 note=36 velocity=127 time=0
EXTRACT: pitchwheel channel=2 pitch=-768 time=0.005580312499999999
EXTRACT: pitchwheel channel=2 pitch=-512 time=0.011160624999999999
EXTRACT: pitchwheel channel=2 pitch=-256 time=0.013020729166666665
EXTRACT: pitchwheel channel=2 pitch=0 time=0.011160624999999999
EXTRACT: note_off channel=9 note=35 velocity=127 time=0.018601041666666665
EXTRACT: note_off channel=5 note=31 velocity=100 time=0.08928499999999999
EXTRACT: note_on channel=5 note=36 velocity=100 time=0.029761666666666662
EXTRACT: note_off channel=1 note=48 velocity=100 time=0.14880833333333332
EXTRACT: note_off channel=1 note=52 velocity=100 time=0
EXTRACT: note_off channel=1 note=55 velocity=100 time=0
EXTRACT: note_off channel=1 note=64 velocity=100 time=0
EXTRACT: note_off channel=1 note=60 velocity=100 time=0
EXTRACT: note_on channel=1 note=60 velocity=100 time=0
EXTRACT: note_on channel=1 note=64 velocity=100 time=0
EXTRACT: note_on channel=1 note=55 velocity=100 time=0
EXTRACT: note_on channel=1 note=52 velocity=100 time=0
EXTRACT: note_on channel=1 note=48 velocity=100 time=0
EXTRACT: note_off channel=2 note=64 velocity=100 time=0
EXTRACT: note_on channel=2 note=62 velocity=100 time=0
EXTRACT: note_on channel=3 note=72 velocity=120 time=0
EXTRACT: note_on channel=3 note=67 velocity=100 time=0
EXTRACT: note_on channel=3 note=64 velocity=100 time=0
EXTRACT: note_on channel=3 note=60 velocity=100 time=0
EXTRACT: note_on channel=9 note=38 velocity=127 time=0
EXTRACT: note_on channel=9 note=38 velocity=127 time=0
EXTRACT: note_on channel=9 note=41 velocity=127 time=0
EXTRACT: note_off channel=9 note=41 velocity=127 time=0.029761666666666662
EXTRACT: note_off channel=9 note=38 velocity=127 time=0
EXTRACT: note_off channel=9 note=38 velocity=127 time=0
EXTRACT: note_off channel=2 note=62 velocity=100 time=0.14880833333333332
EXTRACT: note_on channel=2 note=60 velocity=100 time=0
EXTRACT: note_on channel=5 note=35 velocity=100 time=0.011160624999999999
EXTRACT: note_off channel=5 note=36 velocity=100 time=0.018601041666666665
EXTRACT: note_off channel=1 note=48 velocity=100 time=0.14880833333333332
EXTRACT: note_off channel=1 note=52 velocity=100 time=0
EXTRACT: note_off channel=1 note=55 velocity=100 time=0
EXTRACT: note_off channel=1 note=64 velocity=100 time=0
EXTRACT: note_off channel=1 note=60 velocity=100 time=0
EXTRACT: note_on channel=1 note=60 velocity=100 time=0
EXTRACT: note_on channel=1 note=64 velocity=100 time=0
EXTRACT: note_on channel=1 note=55 velocity=100 time=0
EXTRACT: note_on channel=1 note=52 velocity=100 time=0
EXTRACT: note_on channel=1 note=48 velocity=100 time=0
EXTRACT: note_off channel=2 note=60 velocity=100 time=0
EXTRACT: note_on channel=2 note=57 velocity=100 time=0
EXTRACT: note_off channel=3 note=60 velocity=100 time=0
EXTRACT: note_off channel=3 note=64 velocity=100 time=0
EXTRACT: note_off channel=3 note=67 velocity=100 time=0
EXTRACT: note_off channel=3 note=72 velocity=120 time=0
EXTRACT: note_on channel=9 note=41 velocity=127 time=0
EXTRACT: note_off channel=5 note=35 velocity=100 time=0.011160624999999999
EXTRACT: note_on channel=5 note=36 velocity=100 time=0
EXTRACT: note_off channel=9 note=41 velocity=127 time=0.018601041666666665
EXTRACT: note_on channel=5 note=35 velocity=100 time=0.11904666666666665
EXTRACT: note_on channel=9 note=38 velocity=127 time=0.029761666666666662
EXTRACT: note_off channel=5 note=36 velocity=100 time=0.011160624999999999
EXTRACT: note_off channel=9 note=38 velocity=127 time=0.018601041666666665
EXTRACT: note_off channel=5 note=35 velocity=100 time=0.11904666666666665
EXTRACT: note_off channel=1 note=48 velocity=100 time=0.029761666666666662
EXTRACT: note_off channel=1 note=52 velocity=100 time=0
EXTRACT: note_off channel=1 note=55 velocity=100 time=0
EXTRACT: note_off channel=1 note=64 velocity=100 time=0
EXTRACT: note_off channel=1 note=60 velocity=100 time=0
EXTRACT: note_on channel=1 note=41 velocity=100 time=0
EXTRACT: note_on channel=1 note=48 velocity=100 time=0
EXTRACT: note_on channel=1 note=53 velocity=100 time=0
EXTRACT: note_on channel=1 note=57 velocity=100 time=0
EXTRACT: note_on channel=1 note=60 velocity=100 time=0
EXTRACT: note_off channel=2 note=57 velocity=100 time=0
EXTRACT: note_on channel=2 note=60 velocity=100 time=0
EXTRACT: note_on channel=4 note=72 velocity=100 time=0
EXTRACT: note_on channel=5 note=29 velocity=100 time=0
EXTRACT: note_on channel=6 note=62 velocity=100 time=0
EXTRACT: note_on channel=9 note=35 velocity=127 time=0
EXTRACT: note_on channel=9 note=36 velocity=127 time=0
EXTRACT: note_on channel=9 note=41 velocity=127 time=0
EXTRACT: note_on channel=9 note=49 velocity=127 time=0
EXTRACT: note_off channel=9 note=49 velocity=127 time=0.029761666666666662
EXTRACT: note_off channel=9 note=41 velocity=127 time=0
EXTRACT: note_off channel=9 note=36 velocity=127 time=0
EXTRACT: note_off channel=9 note=35 velocity=127 time=0
EXTRACT: note_off channel=5 note=29 velocity=100 time=0.32737833333333327
EXTRACT: note_on channel=5 note=29 velocity=100 time=0
EXTRACT: note_off channel=6 note=62 velocity=100 time=0
EXTRACT: note_on channel=9 note=35 velocity=127 time=0
EXTRACT: note_on channel=9 note=36 velocity=127 time=0
EXTRACT: note_on channel=9 note=41 velocity=127 time=0
EXTRACT: note_on channel=6 note=60 velocity=100 time=0.022321249999999997
EXTRACT: note_off channel=9 note=41 velocity=127 time=0.0074404166666666655
EXTRACT: note_off channel=9 note=36 velocity=127 time=0
EXTRACT: note_off channel=9 note=35 velocity=127 time=0.059523333333333324
EXTRACT: note_off channel=6 note=60 velocity=100 time=0.11160624999999998
EXTRACT: note_on channel=6 note=62 velocity=100 time=0.018601041666666665
EXTRACT: note_off channel=1 note=60 velocity=100 time=0.1376477083333333
EXTRACT: note_off channel=1 note=57 velocity=100 time=0
EXTRACT: note_off channel=1 note=53 velocity=100 time=0
EXTRACT: note_off channel=1 note=48 velocity=100 time=0
EXTRACT: note_off channel=1 note=41 velocity=100 time=0
EXTRACT: note_on channel=1 note=41 velocity=100 time=0
EXTRACT: note_on channel=1 note=48 velocity=100 time=0
EXTRACT: note_on channel=1 note=53 velocity=100 time=0
EXTRACT: note_on channel=1 note=57 velocity=100 time=0
EXTRACT: note_on channel=1 note=60 velocity=100 time=0
EXTRACT: note_on channel=3 note=65 velocity=100 time=0
EXTRACT: note_on channel=3 note=60 velocity=100 time=0
EXTRACT: note_on channel=3 note=57 velocity=100 time=0
EXTRACT: note_on channel=3 note=53 velocity=100 time=0
EXTRACT: note_off channel=5 note=29 velocity=100 time=0
EXTRACT: note_on channel=5 note=29 velocity=100 time=0
EXTRACT: note_on channel=9 note=38 velocity=127 time=0
EXTRACT: note_on channel=9 note=38 velocity=127 time=0
EXTRACT: note_on channel=9 note=41 velocity=127 time=0
EXTRACT: note_off channel=9 note=41 velocity=127 time=0.029761666666666662
EXTRACT: note_off channel=9 note=38 velocity=127 time=0
EXTRACT: note_off channel=9 note=38 velocity=127 time=0
EXTRACT: note_on channel=6 note=60 velocity=100 time=0.31435760416666664
EXTRACT: note_off channel=1 note=60 velocity=100 time=0.013020729166666665
EXTRACT: note_off channel=1 note=57 velocity=100 time=0
EXTRACT: note_off channel=1 note=53 velocity=100 time=0
EXTRACT: note_off channel=1 note=48 velocity=100 time=0
EXTRACT: note_off channel=1 note=41 velocity=100 time=0
EXTRACT: note_on channel=1 note=41 velocity=100 time=0
EXTRACT: note_on channel=1 note=48 velocity=100 time=0
EXTRACT: note_on channel=1 note=53 velocity=100 time=0
EXTRACT: note_on channel=1 note=57 velocity=100 time=0
EXTRACT: note_on channel=1 note=60 velocity=100 time=0
EXTRACT: note_off channel=3 note=53 velocity=100 time=0
EXTRACT: note_off channel=3 note=57 velocity=100 time=0
EXTRACT: note_off channel=3 note=60 velocity=100 time=0
EXTRACT: note_off channel=3 note=65 velocity=100 time=0
EXTRACT: note_off channel=5 note=29 velocity=100 time=0
EXTRACT: note_on channel=5 note=29 velocity=100 time=0
EXTRACT: note_on channel=9 note=41 velocity=127 time=0
EXTRACT: note_off channel=9 note=41 velocity=127 time=0.029761666666666662
EXTRACT: note_off channel=6 note=62 velocity=100 time=0.011160624999999999
EXTRACT: note_off channel=5 note=29 velocity=100 time=0.1376477083333333
EXTRACT: note_on channel=5 note=29 velocity=100 time=0
EXTRACT: note_on channel=9 note=45 velocity=127 time=0
EXTRACT: note_off channel=9 note=45 velocity=127 time=0.029761666666666662
EXTRACT: note_on channel=4 note=72 velocity=100 time=0.059523333333333324
EXTRACT: note_off channel=6 note=60 velocity=100 time=0.07626427083333333
EXTRACT: note_off channel=1 note=60 velocity=100 time=0.013020729166666665
EXTRACT: note_off channel=1 note=57 velocity=100 time=0
EXTRACT: note_off channel=1 note=53 velocity=100 time=0
EXTRACT: note_off channel=1 note=48 velocity=100 time=0
EXTRACT: note_off channel=1 note=41 velocity=100 time=0
EXTRACT: note_on channel=1 note=41 velocity=100 time=0
EXTRACT: note_on channel=1 note=48 velocity=100 time=0
EXTRACT: note_on channel=1 note=53 velocity=100 time=0
EXTRACT: note_on channel=1 note=56 velocity=100 time=0
EXTRACT: note_on channel=1 note=60 velocity=100 time=0
EXTRACT: note_on channel=1 note=65 velocity=100 time=0
EXTRACT: note_off channel=2 note=60 velocity=100 time=0
EXTRACT: note_off channel=4 note=72 velocity=100 time=0
EXTRACT: note_off channel=4 note=72 velocity=100 time=0
EXTRACT: note_on channel=4 note=74 velocity=100 time=0
EXTRACT: note_off channel=5 note=29 velocity=100 time=0
EXTRACT: note_on channel=5 note=29 velocity=100 time=0
EXTRACT: note_on channel=6 note=62 velocity=100 time=0
EXTRACT: note_on channel=9 note=35 velocity=127 time=0
EXTRACT: note_on channel=9 note=36 velocity=127 time=0
EXTRACT: note_on channel=9 note=41 velocity=127 time=0
EXTRACT: note_off channel=9 note=41 velocity=127 time=0.029761666666666662
EXTRACT: note_off channel=9 note=36 velocity=127 time=0
EXTRACT: note_off channel=9 note=35 velocity=127 time=0
EXTRACT: note_off channel=5 note=29 velocity=100 time=0.14880833333333332
EXTRACT: note_on channel=5 note=29 velocity=100 time=0
EXTRACT: note_off channel=6 note=62 velocity=100 time=0
EXTRACT: note_on channel=9 note=45 velocity=127 time=0
EXTRACT: note_on channel=6 note=63 velocity=100 time=0.011160624999999999
EXTRACT: note_off channel=9 note=45 velocity=127 time=0.018601041666666665
EXTRACT: note_off channel=5 note=29 velocity=100 time=0.14880833333333332
EXTRACT: note_on channel=5 note=29 velocity=100 time=0
EXTRACT: note_on channel=6 note=62 velocity=100 time=0
EXTRACT: note_on channel=9 note=35 velocity=127 time=0
EXTRACT: note_on channel=9 note=36 velocity=127 time=0
EXTRACT: note_on channel=9 note=41 velocity=127 time=0
EXTRACT: note_off channel=6 note=63 velocity=100 time=0.011160624999999999
EXTRACT: note_off channel=9 note=41 velocity=127 time=0.018601041666666665
EXTRACT: note_off channel=9 note=36 velocity=127 time=0
EXTRACT: note_off channel=9 note=35 velocity=127 time=0.059523333333333324
EXTRACT: note_off channel=1 note=65 velocity=100 time=0.26785499999999995
EXTRACT: note_off channel=1 note=60 velocity=100 time=0
EXTRACT: note_off channel=1 note=56 velocity=100 time=0
EXTRACT: note_off channel=1 note=53 velocity=100 time=0
EXTRACT: note_off channel=1 note=48 velocity=100 time=0
EXTRACT: note_off channel=1 note=41 velocity=100 time=0
EXTRACT: note_on channel=1 note=41 velocity=100 time=0
EXTRACT: note_on channel=1 note=48 velocity=100 time=0
EXTRACT: note_on channel=1 note=53 velocity=100 time=0
EXTRACT: note_on channel=1 note=56 velocity=100 time=0
EXTRACT: note_on channel=1 note=60 velocity=100 time=0
EXTRACT: note_on channel=1 note=65 velocity=100 time=0
EXTRACT: note_on channel=3 note=65 velocity=100 time=0
EXTRACT: note_on channel=3 note=60 velocity=100 time=0
EXTRACT: note_on channel=3 note=56 velocity=100 time=0
EXTRACT: note_on channel=3 note=53 velocity=100 time=0
EXTRACT: note_off channel=5 note=29 velocity=100 time=0
EXTRACT: note_on channel=5 note=29 velocity=100 time=0
EXTRACT: note_on channel=9 note=38 velocity=127 time=0
EXTRACT: note_on channel=9 note=38 velocity=127 time=0
EXTRACT: note_on channel=9 note=41 velocity=127 time=0
EXTRACT: note_off channel=9 note=41 velocity=127 time=0.029761666666666662
EXTRACT: note_off channel=9 note=38 velocity=127 time=0
EXTRACT: note_off channel=9 note=38 velocity=127 time=0
EXTRACT: note_off channel=1 note=65 velocity=100 time=0.32737833333333327
EXTRACT: note_off channel=1 note=60 velocity=100 time=0
EXTRACT: note_off channel=1 note=56 velocity=100 time=0
EXTRACT: note_off channel=1 note=53 velocity=100 time=0
EXTRACT: note_off channel=1 note=48 velocity=100 time=0
EXTRACT: note_off channel=1 note=41 velocity=100 time=0
EXTRACT: note_on channel=1 note=41 velocity=100 time=0
EXTRACT: note_on channel=1 note=48 velocity=100 time=0
EXTRACT: note_on channel=1 note=53 velocity=100 time=0
EXTRACT: note_on channel=1 note=56 velocity=100 time=0
EXTRACT: note_on channel=1 note=60 velocity=100 time=0
EXTRACT: note_on channel=1 note=65 velocity=100 time=0
EXTRACT: note_off channel=3 note=53 velocity=100 time=0
EXTRACT: note_off channel=3 note=56 velocity=100 time=0
EXTRACT: note_off channel=3 note=60 velocity=100 time=0
EXTRACT: note_off channel=3 note=65 velocity=100 time=0
EXTRACT: note_off channel=5 note=29 velocity=100 time=0
EXTRACT: note_on channel=5 note=31 velocity=100 time=0
EXTRACT: note_off channel=6 note=62 velocity=100 time=0
EXTRACT: note_on channel=6 note=60 velocity=100 time=0
EXTRACT: note_on channel=9 note=41 velocity=127 time=0
EXTRACT: note_off channel=9 note=41 velocity=127 time=0.029761666666666662
EXTRACT: note_off channel=5 note=31 velocity=100 time=0.14880833333333332
EXTRACT: note_on channel=5 note=33 velocity=100 time=0
EXTRACT: note_on channel=4 note=74 velocity=100 time=0.08928499999999999
EXTRACT: note_off channel=1 note=65 velocity=100 time=0.08928499999999999
EXTRACT: note_off channel=1 note=60 velocity=100 time=0
EXTRACT: note_off channel=1 note=56 velocity=100 time=0
EXTRACT: note_off channel=1 note=53 velocity=100 time=0
EXTRACT: note_off channel=1 note=48 velocity=100 time=0
EXTRACT: note_off channel=1 note=41 velocity=100 time=0
EXTRACT: note_on channel=1 note=48 velocity=100 time=0
EXTRACT: note_on channel=1 note=52 velocity=100 time=0
EXTRACT: note_on channel=1 note=55 velocity=100 time=0
EXTRACT: note_on channel=1 note=60 velocity=100 time=0
EXTRACT: note_on channel=1 note=64 velocity=100 time=0
EXTRACT: note_off channel=4 note=74 velocity=100 time=0
EXTRACT: note_off channel=4 note=74 velocity=100 time=0
EXTRACT: note_on channel=4 note=79 velocity=100 time=0
EXTRACT: note_off channel=5 note=33 velocity=100 time=0
EXTRACT: note_on channel=5 note=36 velocity=100 time=0
EXTRACT: note_off channel=6 note=60 velocity=100 time=0
EXTRACT: note_on channel=6 note=55 velocity=100 time=0
EXTRACT: note_on channel=9 note=35 velocity=127 time=0
EXTRACT: note_on channel=9 note=36 velocity=127 time=0
EXTRACT: note_on channel=9 note=41 velocity=127 time=0
EXTRACT: note_off channel=9 note=41 velocity=127 time=0.029761666666666662
EXTRACT: note_off channel=9 note=36 velocity=127 time=0
EXTRACT: note_off channel=9 note=35 velocity=127 time=0
EXTRACT: note_off channel=5 note=36 velocity=100 time=0.32737833333333327
EXTRACT: note_on channel=5 note=36 velocity=100 time=0
EXTRACT: note_on channel=9 note=35 velocity=127 time=0
EXTRACT: note_on channel=9 note=36 velocity=127 time=0
EXTRACT: note_on channel=9 note=41 velocity=127 time=0
EXTRACT: note_off channel=9 note=41 velocity=127 time=0.029761666666666662
EXTRACT: note_off channel=9 note=36 velocity=127 time=0
EXTRACT: note_off channel=9 note=35 velocity=127 time=0.059523333333333324
EXTRACT: note_off channel=1 note=64 velocity=100 time=0.26785499999999995
EXTRACT: note_off channel=1 note=60 velocity=100 time=0
EXTRACT: note_off channel=1 note=55 velocity=100 time=0
EXTRACT: note_off channel=1 note=52 velocity=100 time=0
EXTRACT: note_off channel=1 note=48 velocity=100 time=0
EXTRACT: note_on channel=1 note=64 velocity=100 time=0
EXTRACT: note_on channel=1 note=60 velocity=100 time=0
EXTRACT: note_on channel=1 note=55 velocity=100 time=0
EXTRACT: note_on channel=1 note=52 velocity=100 time=0
EXTRACT: note_on channel=1 note=48 velocity=100 time=0
EXTRACT: note_on channel=3 note=67 velocity=100 time=0
EXTRACT: note_on channel=3 note=64 velocity=100 time=0
EXTRACT: note_on channel=3 note=60 velocity=100 time=0
EXTRACT: note_off channel=5 note=36 velocity=100 time=0
EXTRACT: note_on channel=5 note=36 velocity=100 time=0
EXTRACT: note_on channel=9 note=38 velocity=127 time=0
EXTRACT: note_on channel=9 note=38 velocity=127 time=0
EXTRACT: note_on channel=9 note=41 velocity=127 time=0
EXTRACT: note_off channel=9 note=41 velocity=127 time=0.029761666666666662
EXTRACT: note_off channel=9 note=38 velocity=127 time=0
EXTRACT: note_off channel=9 note=38 velocity=127 time=0
EXTRACT: note_off channel=1 note=48 velocity=100 time=0.32737833333333327
EXTRACT: note_off channel=1 note=52 velocity=100 time=0
EXTRACT: note_off channel=1 note=55 velocity=100 time=0
EXTRACT: note_off channel=1 note=60 velocity=100 time=0
EXTRACT: note_off channel=1 note=64 velocity=100 time=0
EXTRACT: note_on channel=1 note=60 velocity=100 time=0
EXTRACT: note_on channel=1 note=64 velocity=100 time=0
EXTRACT: note_on channel=1 note=55 velocity=100 time=0
EXTRACT: note_on channel=1 note=52 velocity=100 time=0
EXTRACT: note_on channel=1 note=48 velocity=100 time=0
EXTRACT: note_off channel=3 note=60 velocity=100 time=0
EXTRACT: note_off channel=3 note=64 velocity=100 time=0
EXTRACT: note_off channel=3 note=67 velocity=100 time=0
EXTRACT: note_off channel=5 note=36 velocity=100 time=0
EXTRACT: note_on channel=5 note=36 velocity=100 time=0
EXTRACT: note_on channel=9 note=41 velocity=127 time=0
EXTRACT: note_off channel=9 note=41 velocity=127 time=0.029761666666666662
EXTRACT: note_off channel=4 note=79 velocity=100 time=0.14880833333333332
EXTRACT: note_off channel=5 note=36 velocity=100 time=0
EXTRACT: note_on channel=5 note=33 velocity=100 time=0
EXTRACT: note_on channel=9 note=45 velocity=127 time=0
EXTRACT: note_off channel=9 note=45 velocity=127 time=0.029761666666666662
EXTRACT: note_off channel=1 note=48 velocity=100 time=0.14880833333333332
EXTRACT: note_off channel=1 note=52 velocity=100 time=0
EXTRACT: note_off channel=1 note=55 velocity=100 time=0
EXTRACT: note_off channel=1 note=64 velocity=100 time=0
EXTRACT: note_off channel=1 note=60 velocity=100 time=0
EXTRACT: note_on channel=1 note=60 velocity=100 time=0
EXTRACT: note_on channel=1 note=64 velocity=100 time=0
EXTRACT: note_on channel=1 note=55 velocity=100 time=0
EXTRACT: note_on channel=1 note=52 velocity=100 time=0
EXTRACT: note_on channel=1 note=48 velocity=100 time=0
EXTRACT: note_on channel=2 note=63 velocity=100 time=0
EXTRACT: note_off channel=5 note=33 velocity=100 time=0
EXTRACT: note_on channel=5 note=36 velocity=100 time=0
EXTRACT: note_off channel=6 note=55 velocity=100 time=0
EXTRACT: note_on channel=9 note=35 velocity=127 time=0
EXTRACT: note_on channel=9 note=36 velocity=127 time=0
EXTRACT: note_on channel=9 note=41 velocity=127 time=0
EXTRACT: note_off channel=9 note=41 velocity=127 time=0.029761666666666662
EXTRACT: note_off channel=9 note=36 velocity=127 time=0
EXTRACT: note_off channel=9 note=35 velocity=127 time=0
EXTRACT: note_off channel=2 note=63 velocity=100 time=0.14880833333333332
EXTRACT: note_on channel=2 note=64 velocity=100 time=0
EXTRACT: note_off channel=5 note=36 velocity=100 time=0
EXTRACT: note_on channel=5 note=33 velocity=100 time=0
EXTRACT: note_on channel=9 note=45 velocity=127 time=0
EXTRACT: note_off channel=9 note=45 velocity=127 time=0.029761666666666662
EXTRACT: note_on channel=2 note=67 velocity=100 time=0.14136791666666665
EXTRACT: note_off channel=1 note=48 velocity=100 time=0.0074404166666666655
EXTRACT: note_off channel=1 note=52 velocity=100 time=0
EXTRACT: note_off channel=1 note=55 velocity=100 time=0
EXTRACT: note_off channel=1 note=64 velocity=100 time=0
EXTRACT: note_off channel=1 note=60 velocity=100 time=0
EXTRACT: note_on channel=1 note=60 velocity=100 time=0
EXTRACT: note_on channel=1 note=64 velocity=100 time=0
EXTRACT: note_on channel=1 note=55 velocity=100 time=0
EXTRACT: note_on channel=1 note=52 velocity=100 time=0
EXTRACT: note_on channel=1 note=48 velocity=100 time=0
EXTRACT: note_off channel=5 note=33 velocity=100 time=0
EXTRACT: note_on channel=5 note=31 velocity=100 time=0
EXTRACT: note_on channel=9 note=35 velocity=127 time=0
EXTRACT: note_on channel=9 note=36 velocity=127 time=0
EXTRACT: note_on channel=9 note=41 velocity=127 time=0
EXTRACT: note_on channel=2 note=72 velocity=100 time=0.011160624999999999
EXTRACT: note_off channel=9 note=41 velocity=127 time=0.018601041666666665
EXTRACT: note_off channel=9 note=36 velocity=127 time=0
EXTRACT: note_off channel=9 note=35 velocity=127 time=0.059523333333333324
EXTRACT: note_off channel=5 note=31 velocity=100 time=0.08928499999999999
EXTRACT: note_on channel=5 note=36 velocity=100 time=0.029761666666666662
EXTRACT: note_off channel=1 note=48 velocity=100 time=0.14880833333333332
EXTRACT: note_off channel=1 note=52 velocity=100 time=0
EXTRACT: note_off channel=1 note=55 velocity=100 time=0
EXTRACT: note_off channel=1 note=64 velocity=100 time=0
EXTRACT: note_off channel=1 note=60 velocity=100 time=0
EXTRACT: note_on channel=1 note=60 velocity=100 time=0
EXTRACT: note_on channel=1 note=64 velocity=100 time=0
EXTRACT: note_on channel=1 note=55 velocity=100 time=0
EXTRACT: note_on channel=1 note=52 velocity=100 time=0
EXTRACT: note_on channel=1 note=48 velocity=100 time=0
EXTRACT: note_on channel=3 note=72 velocity=120 time=0
EXTRACT: note_on channel=3 note=67 velocity=100 time=0
EXTRACT: note_on channel=3 note=64 velocity=100 time=0
EXTRACT: note_on channel=3 note=60 velocity=100 time=0
EXTRACT: note_on channel=9 note=38 velocity=127 time=0
EXTRACT: note_on channel=9 note=38 velocity=127 time=0
EXTRACT: note_on channel=9 note=41 velocity=127 time=0
EXTRACT: note_off channel=9 note=41 velocity=127 time=0.029761666666666662
EXTRACT: note_off channel=9 note=38 velocity=127 time=0
EXTRACT: note_off channel=9 note=38 velocity=127 time=0
EXTRACT: note_on channel=9 note=38 velocity=127 time=0.14880833333333332
EXTRACT: note_on channel=5 note=35 velocity=100 time=0.011160624999999999
EXTRACT: note_off channel=5 note=36 velocity=100 time=0.018601041666666665
EXTRACT: note_off channel=9 note=38 velocity=127 time=0
EXTRACT: note_off channel=2 note=67 velocity=100 time=0.14136791666666665
EXTRACT: note_off channel=1 note=48 velocity=100 time=0.0074404166666666655
EXTRACT: note_off channel=1 note=52 velocity=100 time=0
EXTRACT: note_off channel=1 note=55 velocity=100 time=0
EXTRACT: note_off channel=1 note=64 velocity=100 time=0
EXTRACT: note_off channel=1 note=60 velocity=100 time=0
EXTRACT: note_on channel=1 note=60 velocity=100 time=0
EXTRACT: note_on channel=1 note=64 velocity=100 time=0
EXTRACT: note_on channel=1 note=55 velocity=100 time=0
EXTRACT: note_on channel=1 note=52 velocity=100 time=0
EXTRACT: note_on channel=1 note=48 velocity=100 time=0
EXTRACT: note_off channel=2 note=64 velocity=100 time=0
EXTRACT: note_off channel=3 note=60 velocity=100 time=0
EXTRACT: note_off channel=3 note=64 velocity=100 time=0
EXTRACT: note_off channel=3 note=67 velocity=100 time=0
EXTRACT: note_off channel=3 note=72 velocity=120 time=0
EXTRACT: note_on channel=9 note=41 velocity=127 time=0
EXTRACT: note_off channel=2 note=72 velocity=100 time=0.011160624999999999
EXTRACT: note_off channel=5 note=35 velocity=100 time=0
EXTRACT: note_on channel=5 note=36 velocity=100 time=0
EXTRACT: note_off channel=9 note=41 velocity=127 time=0.018601041666666665
EXTRACT: note_on channel=5 note=35 velocity=100 time=0.11904666666666665
EXTRACT: note_on channel=9 note=38 velocity=127 time=0.029761666666666662
EXTRACT: note_off channel=5 note=36 velocity=100 time=0.011160624999999999
EXTRACT: note_off channel=9 note=38 velocity=127 time=0.018601041666666665
EXTRACT: note_off channel=5 note=35 velocity=100 time=0.11904666666666665
EXTRACT: note_off channel=1 note=48 velocity=100 time=0.029761666666666662
EXTRACT: note_off channel=1 note=52 velocity=100 time=0
EXTRACT: note_off channel=1 note=55 velocity=100 time=0
EXTRACT: note_off channel=1 note=64 velocity=100 time=0
EXTRACT: note_off channel=1 note=60 velocity=100 time=0
EXTRACT: note_on channel=1 note=43 velocity=100 time=0
EXTRACT: note_on channel=1 note=50 velocity=100 time=0
EXTRACT: note_on channel=1 note=55 velocity=100 time=0
EXTRACT: note_on channel=1 note=59 velocity=100 time=0
EXTRACT: note_on channel=1 note=67 velocity=100 time=0
EXTRACT: note_on channel=2 note=43 velocity=100 time=0
EXTRACT: note_on channel=3 note=43 velocity=100 time=0
EXTRACT: note_on channel=5 note=31 velocity=100 time=0
EXTRACT: note_on channel=6 note=62 velocity=100 time=0
EXTRACT: note_on channel=9 note=35 velocity=127 time=0
EXTRACT: note_on channel=9 note=36 velocity=127 time=0
EXTRACT: note_on channel=9 note=49 velocity=127 time=0
EXTRACT: note_off channel=9 note=49 velocity=127 time=0.029761666666666662
EXTRACT: note_off channel=9 note=36 velocity=127 time=0
EXTRACT: note_off channel=9 note=35 velocity=127 time=0
EXTRACT: note_off channel=6 note=62 velocity=100 time=0.14880833333333332
EXTRACT: note_on channel=6 note=62 velocity=100 time=0
EXTRACT: note_on channel=9 note=51 velocity=127 time=0.17856999999999998
EXTRACT: note_off channel=9 note=51 velocity=127 time=0.029761666666666662
EXTRACT: note_off channel=6 note=62 velocity=100 time=0.14880833333333332
EXTRACT: note_on channel=6 note=59 velocity=100 time=0
EXTRACT: note_on channel=6 note=62 velocity=100 time=0.1599689583333333
EXTRACT: note_on channel=5 note=31 velocity=100 time=0.005580312499999999
EXTRACT: note_off channel=1 note=67 velocity=100 time=0.013020729166666665
EXTRACT: note_off channel=1 note=59 velocity=100 time=0
EXTRACT: note_off channel=1 note=55 velocity=100 time=0
EXTRACT: note_off channel=1 note=50 velocity=100 time=0
EXTRACT: note_off channel=1 note=43 velocity=100 time=0
EXTRACT: note_on channel=1 note=47 velocity=100 time=0
EXTRACT: note_on channel=1 note=43 velocity=100 time=0
EXTRACT: note_on channel=1 note=50 velocity=100 time=0
EXTRACT: note_on channel=1 note=55 velocity=100 time=0
EXTRACT: note_on channel=1 note=59 velocity=100 time=0
EXTRACT: note_on channel=1 note=67 velocity=100 time=0
EXTRACT: note_off channel=2 note=43 velocity=100 time=0
EXTRACT: note_on channel=2 note=43 velocity=100 time=0
EXTRACT: note_off channel=3 note=43 velocity=100 time=0
EXTRACT: note_on channel=3 note=43 velocity=100 time=0
EXTRACT: note_off channel=5 note=31 velocity=100 time=0
EXTRACT: note_off channel=6 note=59 velocity=100 time=0
EXTRACT: note_on channel=9 note=38 velocity=127 time=0
EXTRACT: note_on channel=9 note=51 velocity=127 time=0
EXTRACT: note_off channel=9 note=51 velocity=127 time=0.029761666666666662
EXTRACT: note_off channel=9 note=38 velocity=127 time=0
EXTRACT: note_off channel=6 note=62 velocity=100 time=0.3087772916666666
EXTRACT: note_on channel=6 note=59 velocity=100 time=0.011160624999999999
EXTRACT: note_on channel=9 note=51 velocity=127 time=0.0074404166666666655
EXTRACT: note_off channel=9 note=51 velocity=127 time=0.029761666666666662
EXTRACT: note_off channel=5 note=31 velocity=100 time=0.13578760416666666
EXTRACT: note_on channel=5 note=31 velocity=100 time=0
EXTRACT: note_off channel=6 note=59 velocity=100 time=0.005580312499999999
EXTRACT: note_off channel=1 note=67 velocity=100 time=0.0074404166666666655
EXTRACT: note_off channel=1 note=59 velocity=100 time=0
EXTRACT: note_off channel=1 note=55 velocity=100 time=0
EXTRACT: note_off channel=1 note=50 velocity=100 time=0
EXTRACT: note_off channel=1 note=43 velocity=100 time=0
EXTRACT: note_off channel=1 note=47 velocity=100 time=0
EXTRACT: note_on channel=1 note=47 velocity=100 time=0
EXTRACT: note_on channel=1 note=43 velocity=100 time=0
EXTRACT: note_on channel=1 note=50 velocity=100 time=0
EXTRACT: note_on channel=1 note=55 velocity=100 time=0
EXTRACT: note_on channel=1 note=59 velocity=100 time=0
EXTRACT: note_on channel=1 note=67 velocity=100 time=0
EXTRACT: note_off channel=2 note=43 velocity=100 time=0
EXTRACT: note_on channel=2 note=43 velocity=100 time=0
EXTRACT: note_off channel=3 note=43 velocity=100 time=0
EXTRACT: note_on channel=3 note=43 velocity=100 time=0
EXTRACT: note_on channel=6 note=62 velocity=100 time=0
EXTRACT: note_off channel=5 note=31 velocity=100 time=0.16554927083333332
EXTRACT: note_off channel=1 note=67 velocity=100 time=0.013020729166666665
EXTRACT: note_off channel=1 note=59 velocity=100 time=0
EXTRACT: note_off channel=1 note=55 velocity=100 time=0
EXTRACT: note_off channel=1 note=50 velocity=100 time=0
EXTRACT: note_off channel=1 note=43 velocity=100 time=0
EXTRACT: note_off channel=1 note=47 velocity=100 time=0
EXTRACT: note_on channel=1 note=47 velocity=100 time=0
EXTRACT: note_on channel=1 note=43 velocity=100 time=0
EXTRACT: note_on channel=1 note=50 velocity=100 time=0
EXTRACT: note_on channel=1 note=55 velocity=100 time=0
EXTRACT: note_on channel=1 note=59 velocity=100 time=0
EXTRACT: note_on channel=1 note=67 velocity=100 time=0
EXTRACT: note_off channel=2 note=43 velocity=100 time=0
EXTRACT: note_on channel=2 note=43 velocity=100 time=0
EXTRACT: note_off channel=3 note=43 velocity=100 time=0
EXTRACT: note_on channel=3 note=43 velocity=100 time=0
EXTRACT: note_on channel=9 note=35 velocity=127 time=0
EXTRACT: note_on channel=9 note=38 velocity=127 time=0
EXTRACT: note_on channel=9 note=51 velocity=127 time=0
EXTRACT: note_on channel=9 note=36 velocity=127 time=0
EXTRACT: note_on channel=5 note=31 velocity=100 time=0.029761666666666662
EXTRACT: note_off channel=9 note=36 velocity=127 time=0
EXTRACT: note_off channel=9 note=51 velocity=127 time=0
EXTRACT: note_off channel=9 note=38 velocity=127 time=0
EXTRACT: note_off channel=9 note=35 velocity=127 time=0
EXTRACT: note_on channel=6 note=59 velocity=100 time=0.14136791666666665
EXTRACT: note_off channel=6 note=62 velocity=100 time=0.0074404166666666655
EXTRACT: note_on channel=5 note=31 velocity=100 time=0.13578760416666666
EXTRACT: note_on channel=6 note=62 velocity=100 time=0.029761666666666662
EXTRACT: note_off channel=6 note=59 velocity=100 time=0.005580312499999999
EXTRACT: note_off channel=1 note=67 velocity=100 time=0.0074404166666666655
EXTRACT: note_off channel=1 note=59 velocity=100 time=0
EXTRACT: note_off channel=1 note=55 velocity=100 time=0
EXTRACT: note_off channel=1 note=50 velocity=100 time=0
EXTRACT: note_off channel=1 note=43 velocity=100 time=0
EXTRACT: note_off channel=1 note=47 velocity=100 time=0
EXTRACT: note_on channel=1 note=59 velocity=100 time=0
EXTRACT: note_on channel=1 note=55 velocity=100 time=0
EXTRACT: note_on channel=1 note=47 velocity=100 time=0
EXTRACT: note_on channel=1 note=50 velocity=100 time=0
EXTRACT: note_on channel=1 note=43 velocity=100 time=0
EXTRACT: note_on channel=1 note=67 velocity=100 time=0
EXTRACT: note_off channel=2 note=43 velocity=100 time=0
EXTRACT: note_on channel=2 note=43 velocity=100 time=0
EXTRACT: note_off channel=3 note=43 velocity=100 time=0
EXTRACT: note_on channel=3 note=43 velocity=100 time=0
EXTRACT: note_on channel=9 note=35 velocity=127 time=0
EXTRACT: note_on channel=9 note=36 velocity=127 time=0
EXTRACT: note_on channel=9 note=51 velocity=127 time=0
EXTRACT: note_off channel=5 note=31 velocity=100 time=0.029761666666666662
EXTRACT: note_off channel=9 note=51 velocity=127 time=0
EXTRACT: note_off channel=9 note=36 velocity=127 time=0
EXTRACT: note_off channel=9 note=35 velocity=127 time=0
EXTRACT: note_off channel=5 note=31 velocity=100 time=0.28459593749999995
EXTRACT: note_on channel=5 note=31 velocity=100 time=0.03534197916666666
EXTRACT: note_off channel=1 note=67 velocity=100 time=0.0074404166666666655
EXTRACT: note_off channel=1 note=43 velocity=100 time=0
EXTRACT: note_off channel=1 note=50 velocity=100 time=0
EXTRACT: note_off channel=1 note=47 velocity=100 time=0
EXTRACT: note_off channel=1 note=55 velocity=100 time=0
EXTRACT: note_off channel=1 note=59 velocity=100 time=0
EXTRACT: note_on channel=1 note=55 velocity=100 time=0
EXTRACT: note_on channel=1 note=59 velocity=100 time=0
EXTRACT: note_on channel=1 note=47 velocity=100 time=0
EXTRACT: note_on channel=1 note=50 velocity=100 time=0
EXTRACT: note_on channel=1 note=43 velocity=100 time=0
EXTRACT: note_on channel=1 note=67 velocity=100 time=0
EXTRACT: note_off channel=2 note=43 velocity=100 time=0
EXTRACT: note_on channel=2 note=43 velocity=100 time=0
EXTRACT: note_off channel=3 note=43 velocity=100 time=0
EXTRACT: note_on channel=3 note=43 velocity=100 time=0
EXTRACT: note_on channel=9 note=38 velocity=127 time=0
EXTRACT: note_on channel=9 note=51 velocity=127 time=0
EXTRACT: note_off channel=9 note=51 velocity=127 time=0.029761666666666662
EXTRACT: note_off channel=9 note=38 velocity=127 time=0
EXTRACT: note_on channel=5 note=31 velocity=100 time=0.3031969791666666
EXTRACT: note_off channel=6 note=62 velocity=100 time=0.011160624999999999
EXTRACT: note_off channel=5 note=31 velocity=100 time=0.005580312499999999
EXTRACT: note_off channel=1 note=67 velocity=100 time=0.0074404166666666655
EXTRACT: note_off channel=1 note=43 velocity=100 time=0
EXTRACT: note_off channel=1 note=50 velocity=100 time=0
EXTRACT: note_off channel=1 note=47 velocity=100 time=0
EXTRACT: note_off channel=1 note=59 velocity=100 time=0
EXTRACT: note_off channel=1 note=55 velocity=100 time=0
EXTRACT: note_on channel=1 note=55 velocity=100 time=0
EXTRACT: note_on channel=1 note=59 velocity=100 time=0
EXTRACT: note_on channel=1 note=47 velocity=100 time=0
EXTRACT: note_on channel=1 note=50 velocity=100 time=0
EXTRACT: note_on channel=1 note=43 velocity=100 time=0
EXTRACT: note_on channel=1 note=67 velocity=100 time=0
EXTRACT: note_off channel=2 note=43 velocity=100 time=0
EXTRACT: note_on channel=2 note=43 velocity=100 time=0
EXTRACT: note_off channel=3 note=43 velocity=100 time=0
EXTRACT: note_on channel=3 note=43 velocity=100 time=0
EXTRACT: note_on channel=9 note=51 velocity=127 time=0
EXTRACT: note_off channel=9 note=51 velocity=127 time=0.029761666666666662
EXTRACT: note_off channel=5 note=31 velocity=100 time=0.12462697916666665
EXTRACT: note_on channel=5 note=31 velocity=100 time=0
EXTRACT: note_on channel=9 note=35 velocity=127 time=0.024181354166666662
EXTRACT: note_on channel=9 note=36 velocity=127 time=0
EXTRACT: note_off channel=9 note=36 velocity=127 time=0.029761666666666662
EXTRACT: note_off channel=9 note=35 velocity=127 time=0
EXTRACT: note_off channel=5 note=31 velocity=100 time=0.12462697916666665
EXTRACT: note_off channel=1 note=67 velocity=100 time=0.024181354166666662
EXTRACT: note_off channel=1 note=43 velocity=100 time=0
EXTRACT: note_off channel=1 note=50 velocity=100 time=0
EXTRACT: note_off channel=1 note=47 velocity=100 time=0
EXTRACT: note_off channel=1 note=59 velocity=100 time=0
EXTRACT: note_off channel=1 note=55 velocity=100 time=0
EXTRACT: note_on channel=1 note=50 velocity=100 time=0
EXTRACT: note_on channel=1 note=56 velocity=100 time=0
EXTRACT: note_on channel=1 note=59 velocity=100 time=0
EXTRACT: note_on channel=1 note=65 velocity=100 time=0
EXTRACT: note_off channel=2 note=43 velocity=100 time=0
EXTRACT: note_on channel=2 note=44 velocity=100 time=0
EXTRACT: note_off channel=3 note=43 velocity=100 time=0
EXTRACT: note_on channel=3 note=44 velocity=100 time=0
EXTRACT: note_on channel=5 note=32 velocity=100 time=0
EXTRACT: note_on channel=6 note=68 velocity=100 time=0
EXTRACT: note_on channel=9 note=38 velocity=127 time=0
EXTRACT: note_on channel=9 note=51 velocity=127 time=0
EXTRACT: note_off channel=9 note=51 velocity=127 time=0.029761666666666662
EXTRACT: note_off channel=9 note=38 velocity=127 time=0
EXTRACT: note_on channel=6 note=64 velocity=100 time=0.3087772916666666
EXTRACT: note_off channel=5 note=32 velocity=100 time=0.018601041666666665
EXTRACT: note_on channel=5 note=32 velocity=100 time=0
EXTRACT: note_off channel=6 note=68 velocity=100 time=0
EXTRACT: note_on channel=9 note=35 velocity=127 time=0
EXTRACT: note_on channel=9 note=36 velocity=127 time=0
EXTRACT: note_on channel=9 note=51 velocity=127 time=0
EXTRACT: note_off channel=9 note=51 velocity=127 time=0.029761666666666662
EXTRACT: note_off channel=9 note=36 velocity=127 time=0
EXTRACT: note_off channel=9 note=35 velocity=127 time=0
EXTRACT: note_off channel=6 note=64 velocity=100 time=0.3087772916666666
EXTRACT: note_off channel=1 note=65 velocity=100 time=0.018601041666666665
EXTRACT: note_off channel=1 note=59 velocity=100 time=0
EXTRACT: note_off channel=1 note=56 velocity=100 time=0
EXTRACT: note_off channel=1 note=50 velocity=100 time=0
EXTRACT: note_on channel=1 note=50 velocity=100 time=0
EXTRACT: note_on channel=1 note=56 velocity=100 time=0
EXTRACT: note_on channel=1 note=59 velocity=100 time=0
EXTRACT: note_on channel=1 note=65 velocity=100 time=0
EXTRACT: note_off channel=5 note=32 velocity=100 time=0
EXTRACT: note_on channel=5 note=32 velocity=100 time=0
EXTRACT: note_on channel=6 note=62 velocity=100 time=0
EXTRACT: note_on channel=9 note=38 velocity=127 time=0
EXTRACT: note_on channel=9 note=51 velocity=127 time=0
EXTRACT: note_off channel=9 note=51 velocity=127 time=0.029761666666666662
EXTRACT: note_off channel=9 note=38 velocity=127 time=0
EXTRACT: note_off channel=2 note=44 velocity=100 time=0.32737833333333327
EXTRACT: note_on channel=2 note=44 velocity=100 time=0
EXTRACT: note_off channel=3 note=44 velocity=100 time=0
EXTRACT: note_on channel=3 note=44 velocity=100 time=0
EXTRACT: note_off channel=5 note=32 velocity=100 time=0
EXTRACT: note_on channel=5 note=32 velocity=100 time=0
EXTRACT: note_off channel=6 note=62 velocity=100 time=0
EXTRACT: note_on channel=9 note=51 velocity=127 time=0
EXTRACT: note_on channel=6 note=60 velocity=100 time=0.005580312499999999
EXTRACT: note_off channel=9 note=51 velocity=127 time=0.024181354166666662
EXTRACT: note_off channel=1 note=65 velocity=100 time=0.14880833333333332
EXTRACT: note_off channel=1 note=59 velocity=100 time=0
EXTRACT: note_off channel=1 note=56 velocity=100 time=0
EXTRACT: note_off channel=1 note=50 velocity=100 time=0
EXTRACT: note_on channel=1 note=50 velocity=100 time=0
EXTRACT: note_on channel=1 note=56 velocity=100 time=0
EXTRACT: note_on channel=1 note=59 velocity=100 time=0
EXTRACT: note_on channel=1 note=65 velocity=100 time=0
EXTRACT: note_off channel=2 note=44 velocity=100 time=0
EXTRACT: note_on channel=2 note=44 velocity=100 time=0
EXTRACT: note_off channel=3 note=44 velocity=100 time=0
EXTRACT: note_on channel=3 note=44 velocity=100 time=0
EXTRACT: note_off channel=5 note=32 velocity=100 time=0
EXTRACT: note_on channel=5 note=32 velocity=100 time=0
EXTRACT: note_on channel=9 note=35 velocity=127 time=0
EXTRACT: note_on channel=9 note=36 velocity=127 time=0
EXTRACT: note_off channel=6 note=60 velocity=100 time=0.005580312499999999
EXTRACT: note_off channel=9 note=36 velocity=127 time=0.024181354166666662
EXTRACT: note_off channel=9 note=35 velocity=127 time=0
EXTRACT: note_on channel=6 note=62 velocity=100 time=0.011160624999999999
EXTRACT: note_off channel=1 note=65 velocity=100 time=0.1376477083333333
EXTRACT: note_off channel=1 note=59 velocity=100 time=0
EXTRACT: note_off channel=1 note=56 velocity=100 time=0
EXTRACT: note_off channel=1 note=50 velocity=100 time=0
EXTRACT: note_on channel=1 note=56 velocity=100 time=0
EXTRACT: note_on channel=1 note=50 velocity=100 time=0
EXTRACT: note_on channel=1 note=59 velocity=100 time=0
EXTRACT: note_on channel=1 note=65 velocity=100 time=0
EXTRACT: note_off channel=2 note=44 velocity=100 time=0
EXTRACT: note_on channel=2 note=44 velocity=100 time=0
EXTRACT: note_off channel=3 note=44 velocity=100 time=0
EXTRACT: note_on channel=3 note=44 velocity=100 time=0
EXTRACT: note_off channel=5 note=32 velocity=100 time=0
EXTRACT: note_on channel=5 note=32 velocity=100 time=0
EXTRACT: note_on channel=9 note=38 velocity=127 time=0
EXTRACT: note_on channel=9 note=51 velocity=127 time=0
EXTRACT: note_off channel=9 note=51 velocity=127 time=0.029761666666666662
EXTRACT: note_off channel=9 note=38 velocity=127 time=0
EXTRACT: note_on channel=6 note=64 velocity=100 time=0.14136791666666665
EXTRACT: note_off channel=6 note=62 velocity=100 time=0.048362708333333324
EXTRACT: note_on channel=2 note=44 velocity=100 time=0.11346635416666664
EXTRACT: note_on channel=3 note=44 velocity=100 time=0
EXTRACT: pitchwheel channel=2 pitch=0 time=0.016740937499999997
EXTRACT: pitchwheel channel=3 pitch=0 time=0
EXTRACT: note_off channel=6 note=64 velocity=100 time=0
EXTRACT: note_off channel=1 note=65 velocity=100 time=0.0074404166666666655
EXTRACT: note_off channel=1 note=59 velocity=100 time=0
EXTRACT: note_off channel=1 note=50 velocity=100 time=0
EXTRACT: note_off channel=1 note=56 velocity=100 time=0
EXTRACT: note_on channel=1 note=56 velocity=100 time=0
EXTRACT: note_on channel=1 note=50 velocity=100 time=0
EXTRACT: note_on channel=1 note=59 velocity=100 time=0
EXTRACT: note_on channel=1 note=65 velocity=100 time=0
EXTRACT: note_off channel=2 note=44 velocity=100 time=0
EXTRACT: note_off channel=3 note=44 velocity=100 time=0
EXTRACT: note_off channel=5 note=32 velocity=100 time=0
EXTRACT: note_on channel=5 note=32 velocity=100 time=0
EXTRACT: note_on channel=6 note=60 velocity=100 time=0
EXTRACT: note_on channel=9 note=35 velocity=127 time=0
EXTRACT: note_on channel=9 note=36 velocity=127 time=0
EXTRACT: note_on channel=9 note=51 velocity=127 time=0
EXTRACT: note_off channel=9 note=51 velocity=127 time=0.029761666666666662
EXTRACT: note_off channel=9 note=36 velocity=127 time=0
EXTRACT: note_off channel=9 note=35 velocity=127 time=0
EXTRACT: pitchwheel channel=2 pitch=640 time=0.022321249999999997
EXTRACT: pitchwheel channel=3 pitch=640 time=0
EXTRACT: pitchwheel channel=2 pitch=384 time=0.013020729166666665
EXTRACT: pitchwheel channel=3 pitch=384 time=0
EXTRACT: pitchwheel channel=2 pitch=0 time=0.011160624999999999
EXTRACT: pitchwheel channel=3 pitch=0 time=0
EXTRACT: pitchwheel channel=2 pitch=-128 time=0.013020729166666665
EXTRACT: pitchwheel channel=3 pitch=-128 time=0
EXTRACT: pitchwheel channel=2 pitch=128 time=0.059523333333333324
EXTRACT: pitchwheel channel=3 pitch=128 time=0
EXTRACT: pitchwheel channel=2 pitch=384 time=0.011160624999999999
EXTRACT: pitchwheel channel=3 pitch=384 time=0
EXTRACT: pitchwheel channel=2 pitch=768 time=0.011160624999999999
EXTRACT: pitchwheel channel=3 pitch=768 time=0
EXTRACT: note_off channel=5 note=32 velocity=100 time=0.0074404166666666655
EXTRACT: note_on channel=5 note=32 velocity=100 time=0
EXTRACT: pitchwheel channel=2 pitch=-256 time=0.005580312499999999
EXTRACT: pitchwheel channel=3 pitch=-256 time=0
EXTRACT: pitchwheel channel=2 pitch=0 time=0.07068395833333332
EXTRACT: pitchwheel channel=3 pitch=0 time=0
EXTRACT: pitchwheel channel=2 pitch=256 time=0.013020729166666665
EXTRACT: pitchwheel channel=3 pitch=256 time=0
EXTRACT: pitchwheel channel=2 pitch=384 time=0.011160624999999999
EXTRACT: pitchwheel channel=3 pitch=384 time=0
EXTRACT: pitchwheel channel=2 pitch=-384 time=0.011160624999999999
EXTRACT: pitchwheel channel=3 pitch=-384 time=0
EXTRACT: note_off channel=1 note=65 velocity=100 time=0.06696374999999999
EXTRACT: note_off channel=1 note=59 velocity=100 time=0
EXTRACT: note_off channel=1 note=50 velocity=100 time=0
EXTRACT: note_off channel=1 note=56 velocity=100 time=0
EXTRACT: note_on channel=1 note=56 velocity=100 time=0
EXTRACT: note_on channel=1 note=50 velocity=100 time=0
EXTRACT: note_on channel=1 note=59 velocity=100 time=0
EXTRACT: note_on channel=1 note=65 velocity=100 time=0
EXTRACT: note_off channel=5 note=32 velocity=100 time=0
EXTRACT: note_on channel=5 note=32 velocity=100 time=0
EXTRACT: note_on channel=9 note=38 velocity=127 time=0
EXTRACT: note_on channel=9 note=51 velocity=127 time=0
EXTRACT: note_off channel=9 note=51 velocity=127 time=0.029761666666666662
EXTRACT: note_off channel=9 note=38 velocity=127 time=0
EXTRACT: pitchwheel channel=2 pitch=-128 time=0.011160624999999999
EXTRACT: pitchwheel channel=3 pitch=-128 time=0
EXTRACT: pitchwheel channel=2 pitch=384 time=0.011160624999999999
EXTRACT: pitchwheel channel=3 pitch=384 time=0
EXTRACT: pitchwheel channel=2 pitch=-128 time=0.048362708333333324
EXTRACT: pitchwheel channel=3 pitch=-128 time=0
EXTRACT: pitchwheel channel=2 pitch=0 time=0.21391197916666663
EXTRACT: pitchwheel channel=3 pitch=0 time=0
EXTRACT: note_off channel=2 note=44 velocity=100 time=0.018601041666666665
EXTRACT: note_off channel=3 note=44 velocity=100 time=0
EXTRACT: note_on channel=2 note=44 velocity=100 time=0.011160624999999999
EXTRACT: note_on channel=3 note=44 velocity=100 time=0
EXTRACT: note_off channel=1 note=65 velocity=100 time=0.013020729166666665
EXTRACT: note_off channel=1 note=59 velocity=100 time=0
EXTRACT: note_off channel=1 note=50 velocity=100 time=0
EXTRACT: note_off channel=1 note=56 velocity=100 time=0
EXTRACT: note_on channel=1 note=56 velocity=100 time=0
EXTRACT: note_on channel=1 note=50 velocity=100 time=0
EXTRACT: note_on channel=1 note=59 velocity=100 time=0
EXTRACT: note_on channel=1 note=65 velocity=100 time=0
EXTRACT: note_off channel=5 note=32 velocity=100 time=0
EXTRACT: note_on channel=5 note=32 velocity=100 time=0
EXTRACT: note_off channel=6 note=60 velocity=100 time=0
EXTRACT: note_on channel=9 note=51 velocity=127 time=0
EXTRACT: note_off channel=9 note=51 velocity=127 time=0.029761666666666662
EXTRACT: note_on channel=6 note=60 velocity=100 time=0.14880833333333332
EXTRACT: note_on channel=9 note=38 velocity=127 time=0
EXTRACT: note_off channel=9 note=38 velocity=127 time=0.029761666666666662
EXTRACT: note_off channel=2 note=44 velocity=100 time=0.13578760416666666
EXTRACT: note_off channel=3 note=44 velocity=100 time=0
EXTRACT: note_off channel=1 note=65 velocity=100 time=0.013020729166666665
EXTRACT: note_off channel=1 note=59 velocity=100 time=0
EXTRACT: note_off channel=1 note=50 velocity=100 time=0
EXTRACT: note_off channel=1 note=56 velocity=100 time=0
EXTRACT: note_on channel=1 note=45 velocity=100 time=0
EXTRACT: note_on channel=1 note=52 velocity=100 time=0
EXTRACT: note_on channel=1 note=57 velocity=100 time=0
EXTRACT: note_on channel=1 note=60 velocity=100 time=0
EXTRACT: note_on channel=1 note=64 velocity=100 time=0
EXTRACT: note_on channel=2 note=45 velocity=100 time=0
EXTRACT: note_on channel=2 note=52 velocity=100 time=0
EXTRACT: note_on channel=2 note=57 velocity=100 time=0
EXTRACT: note_on channel=3 note=45 velocity=100 time=0
EXTRACT: note_on channel=3 note=52 velocity=100 time=0
EXTRACT: note_on channel=3 note=57 velocity=100 time=0
EXTRACT: note_off channel=5 note=32 velocity=100 time=0
EXTRACT: note_on channel=5 note=33 velocity=100 time=0
EXTRACT: note_off channel=6 note=60 velocity=100 time=0
EXTRACT: note_on channel=6 note=69 velocity=100 time=0
EXTRACT: note_on channel=9 note=35 velocity=127 time=0
EXTRACT: note_on channel=9 note=36 velocity=127 time=0
EXTRACT: note_on channel=9 note=54 velocity=127 time=0
EXTRACT: note_on channel=9 note=49 velocity=127 time=0
EXTRACT: note_off channel=9 note=49 velocity=127 time=0.029761666666666662
EXTRACT: note_off channel=9 note=54 velocity=127 time=0
EXTRACT: note_off channel=9 note=36 velocity=127 time=0
EXTRACT: note_off channel=9 note=35 velocity=127 time=0
EXTRACT: note_on channel=9 note=54 velocity=127 time=0.14880833333333332
EXTRACT: note_off channel=9 note=54 velocity=127 time=0.029761666666666662
EXTRACT: note_off channel=5 note=33 velocity=100 time=0.14880833333333332
EXTRACT: note_on channel=5 note=33 velocity=100 time=0
EXTRACT: note_off channel=6 note=69 velocity=100 time=0
EXTRACT: note_on channel=9 note=54 velocity=127 time=0
EXTRACT: note_on channel=9 note=51 velocity=127 time=0
EXTRACT: note_on channel=6 note=64 velocity=100 time=0.022321249999999997
EXTRACT: note_off channel=9 note=51 velocity=127 time=0.0074404166666666655
EXTRACT: note_off channel=9 note=54 velocity=127 time=0
EXTRACT: note_on channel=9 note=54 velocity=127 time=0.14880833333333332
EXTRACT: note_off channel=9 note=54 velocity=127 time=0.029761666666666662
EXTRACT: note_on channel=6 note=62 velocity=100 time=0.12462697916666665
EXTRACT: note_off channel=1 note=64 velocity=100 time=0.024181354166666662
EXTRACT: note_off channel=1 note=60 velocity=100 time=0
EXTRACT: note_off channel=1 note=57 velocity=100 time=0
EXTRACT: note_off channel=1 note=52 velocity=100 time=0
EXTRACT: note_off channel=1 note=45 velocity=100 time=0
EXTRACT: note_on channel=1 note=45 velocity=100 time=0
EXTRACT: note_on channel=1 note=52 velocity=100 time=0
EXTRACT: note_on channel=1 note=57 velocity=100 time=0
EXTRACT: note_on channel=1 note=60 velocity=100 time=0
EXTRACT: note_on channel=1 note=64 velocity=100 time=0
EXTRACT: note_off channel=5 note=33 velocity=100 time=0
EXTRACT: note_on channel=5 note=33 velocity=100 time=0
EXTRACT: note_on channel=9 note=38 velocity=127 time=0
EXTRACT: note_on channel=9 note=54 velocity=127 time=0
EXTRACT: note_on channel=9 note=51 velocity=127 time=0
EXTRACT: note_off channel=6 note=64 velocity=100 time=0.022321249999999997
EXTRACT: note_off channel=9 note=51 velocity=127 time=0.0074404166666666655
EXTRACT: note_off channel=9 note=54 velocity=127 time=0
EXTRACT: note_off channel=9 note=38 velocity=127 time=0
EXTRACT: note_off channel=6 note=62 velocity=100 time=0.12462697916666665
EXTRACT: note_on channel=9 note=54 velocity=127 time=0.024181354166666662
EXTRACT: note_on channel=6 note=60 velocity=100 time=0.029761666666666662
EXTRACT: note_off channel=9 note=54 velocity=127 time=0
EXTRACT: note_off channel=1 note=64 velocity=100 time=0.14880833333333332
EXTRACT: note_off channel=1 note=60 velocity=100 time=0
EXTRACT: note_off channel=1 note=57 velocity=100 time=0
EXTRACT: note_off channel=1 note=52 velocity=100 time=0
EXTRACT: note_off channel=1 note=45 velocity=100 time=0
EXTRACT: note_on channel=1 note=45 velocity=100 time=0
EXTRACT: note_on channel=1 note=52 velocity=100 time=0
EXTRACT: note_on channel=1 note=57 velocity=100 time=0
EXTRACT: note_on channel=1 note=60 velocity=100 time=0
EXTRACT: note_on channel=1 note=64 velocity=100 time=0
EXTRACT: note_off channel=5 note=33 velocity=100 time=0
EXTRACT: note_on channel=5 note=33 velocity=100 time=0
EXTRACT: note_on channel=9 note=54 velocity=127 time=0
EXTRACT: note_on channel=9 note=51 velocity=127 time=0
EXTRACT: note_off channel=9 note=51 velocity=127 time=0.029761666666666662
EXTRACT: note_off channel=9 note=54 velocity=127 time=0
EXTRACT: note_off channel=5 note=33 velocity=100 time=0.14880833333333332
EXTRACT: note_on channel=5 note=33 velocity=100 time=0
EXTRACT: note_on channel=9 note=38 velocity=127 time=0
EXTRACT: note_on channel=9 note=54 velocity=127 time=0
EXTRACT: note_on channel=6 note=62 velocity=100 time=0.011160624999999999
EXTRACT: note_off channel=6 note=60 velocity=100 time=0.018601041666666665
EXTRACT: note_off channel=9 note=54 velocity=127 time=0
EXTRACT: note_off channel=9 note=38 velocity=127 time=0
EXTRACT: note_off channel=1 note=64 velocity=100 time=0.14880833333333332
EXTRACT: note_off channel=1 note=60 velocity=100 time=0
EXTRACT: note_off channel=1 note=57 velocity=100 time=0
EXTRACT: note_off channel=1 note=52 velocity=100 time=0
EXTRACT: note_off channel=1 note=45 velocity=100 time=0
EXTRACT: note_on channel=1 note=47 velocity=100 time=0
EXTRACT: note_on channel=1 note=43 velocity=100 time=0
EXTRACT: note_on channel=1 note=50 velocity=100 time=0
EXTRACT: note_on channel=1 note=55 velocity=100 time=0
EXTRACT: note_on channel=1 note=59 velocity=100 time=0
EXTRACT: note_on channel=1 note=67 velocity=100 time=0
EXTRACT: note_off channel=2 note=57 velocity=100 time=0
EXTRACT: note_off channel=2 note=52 velocity=100 time=0
EXTRACT: note_off channel=2 note=45 velocity=100 time=0
EXTRACT: note_on channel=2 note=43 velocity=100 time=0
EXTRACT: note_on channel=2 note=50 velocity=100 time=0
EXTRACT: note_off channel=3 note=57 velocity=100 time=0
EXTRACT: note_off channel=3 note=52 velocity=100 time=0
EXTRACT: note_off channel=3 note=45 velocity=100 time=0
EXTRACT: note_on channel=3 note=43 velocity=100 time=0
EXTRACT: note_on channel=3 note=50 velocity=100 time=0
EXTRACT: note_off channel=5 note=33 velocity=100 time=0
EXTRACT: note_on channel=5 note=31 velocity=100 time=0
EXTRACT: note_on channel=9 note=35 velocity=127 time=0
EXTRACT: note_on channel=9 note=36 velocity=127 time=0
EXTRACT: note_on channel=9 note=54 velocity=127 time=0
EXTRACT: note_on channel=9 note=51 velocity=127 time=0
EXTRACT: note_on channel=2 note=55 velocity=100 time=0.011160624999999999
EXTRACT: note_on channel=3 note=55 velocity=100 time=0
EXTRACT: note_off channel=9 note=51 velocity=127 time=0.018601041666666665
EXTRACT: note_off channel=9 note=54 velocity=127 time=0
EXTRACT: note_off channel=9 note=36 velocity=127 time=0
EXTRACT: note_off channel=9 note=35 velocity=127 time=0
EXTRACT: note_on channel=9 note=54 velocity=127 time=0.14880833333333332
EXTRACT: note_off channel=9 note=54 velocity=127 time=0.029761666666666662
EXTRACT: note_off channel=5 note=31 velocity=100 time=0.14880833333333332
EXTRACT: note_on channel=5 note=31 velocity=100 time=0
EXTRACT: note_on channel=9 note=35 velocity=127 time=0
EXTRACT: note_on channel=9 note=36 velocity=127 time=0
EXTRACT: note_on channel=9 note=54 velocity=127 time=0
EXTRACT: note_on channel=9 note=51 velocity=127 time=0
EXTRACT: note_off channel=6 note=62 velocity=100 time=0.011160624999999999
EXTRACT: note_on channel=6 note=60 velocity=100 time=0
EXTRACT: note_off channel=9 note=51 velocity=127 time=0.018601041666666665
EXTRACT: note_off channel=9 note=54 velocity=127 time=0
EXTRACT: note_off channel=9 note=36 velocity=127 time=0
EXTRACT: note_off channel=9 note=35 velocity=127 time=0
EXTRACT: note_on channel=6 note=62 velocity=100 time=0.14880833333333332
EXTRACT: note_on channel=9 note=54 velocity=127 time=0
EXTRACT: note_off channel=6 note=60 velocity=100 time=0.011160624999999999
EXTRACT: note_off channel=9 note=54 velocity=127 time=0.018601041666666665
EXTRACT: note_off channel=1 note=67 velocity=100 time=0.14880833333333332
EXTRACT: note_off channel=1 note=59 velocity=100 time=0
EXTRACT: note_off channel=1 note=55 velocity=100 time=0
EXTRACT: note_off channel=1 note=50 velocity=100 time=0
EXTRACT: note_off channel=1 note=43 velocity=100 time=0
EXTRACT: note_off channel=1 note=47 velocity=100 time=0
EXTRACT: note_on channel=1 note=43 velocity=100 time=0
EXTRACT: note_on channel=1 note=47 velocity=100 time=0
EXTRACT: note_on channel=1 note=50 velocity=100 time=0
EXTRACT: note_on channel=1 note=55 velocity=100 time=0
EXTRACT: note_on channel=1 note=59 velocity=100 time=0
EXTRACT: note_on channel=1 note=67 velocity=100 time=0
EXTRACT: note_off channel=5 note=31 velocity=100 time=0
EXTRACT: note_on channel=5 note=31 velocity=100 time=0
EXTRACT: note_on channel=9 note=38 velocity=127 time=0
EXTRACT: note_on channel=9 note=54 velocity=127 time=0
EXTRACT: note_on channel=9 note=51 velocity=127 time=0
EXTRACT: note_off channel=9 note=51 velocity=127 time=0.029761666666666662
EXTRACT: note_off channel=9 note=54 velocity=127 time=0
EXTRACT: note_off channel=9 note=38 velocity=127 time=0
EXTRACT: note_on channel=6 note=64 velocity=100 time=0.13578760416666666
EXTRACT: note_off channel=6 note=62 velocity=100 time=0.013020729166666665
EXTRACT: note_on channel=9 note=54 velocity=127 time=0
EXTRACT: note_off channel=9 note=54 velocity=127 time=0.029761666666666662
EXTRACT: note_off channel=1 note=67 velocity=100 time=0.14880833333333332
EXTRACT: note_off channel=1 note=59 velocity=100 time=0
EXTRACT: note_off channel=1 note=55 velocity=100 time=0
EXTRACT: note_off channel=1 note=50 velocity=100 time=0
EXTRACT: note_off channel=1 note=47 velocity=100 time=0
EXTRACT: note_off channel=1 note=43 velocity=100 time=0
EXTRACT: note_on channel=1 note=50 velocity=100 time=0
EXTRACT: note_on channel=1 note=47 velocity=100 time=0
EXTRACT: note_on channel=1 note=43 velocity=100 time=0
EXTRACT: note_on channel=1 note=55 velocity=100 time=0
EXTRACT: note_on channel=1 note=59 velocity=100 time=0
EXTRACT: note_on channel=1 note=67 velocity=100 time=0
EXTRACT: note_off channel=5 note=31 velocity=100 time=0
EXTRACT: note_on channel=5 note=31 velocity=100 time=0
EXTRACT: note_on channel=9 note=54 velocity=127 time=0
EXTRACT: note_on channel=9 note=51 velocity=127 time=0
EXTRACT: note_off channel=9 note=51 velocity=127 time=0.029761666666666662
EXTRACT: note_off channel=9 note=54 velocity=127 time=0
EXTRACT: note_on channel=9 note=38 velocity=127 time=0.14880833333333332
EXTRACT: note_on channel=9 note=54 velocity=127 time=0
EXTRACT: note_off channel=9 note=54 velocity=127 time=0.029761666666666662
EXTRACT: note_off channel=9 note=38 velocity=127 time=0
EXTRACT: note_on channel=9 note=38 velocity=127 time=0.029761666666666662
EXTRACT: note_off channel=9 note=38 velocity=127 time=0.029761666666666662
EXTRACT: note_off channel=1 note=67 velocity=100 time=0.08928499999999999
EXTRACT: note_off channel=1 note=59 velocity=100 time=0
EXTRACT: note_off channel=1 note=55 velocity=100 time=0
EXTRACT: note_off channel=1 note=43 velocity=100 time=0
EXTRACT: note_off channel=1 note=47 velocity=100 time=0
EXTRACT: note_off channel=1 note=50 velocity=100 time=0
EXTRACT: note_on channel=1 note=41 velocity=100 time=0
EXTRACT: note_on channel=1 note=48 velocity=100 time=0
EXTRACT: note_on channel=1 note=53 velocity=100 time=0
EXTRACT: note_on channel=1 note=57 velocity=100 time=0
EXTRACT: note_on channel=1 note=60 velocity=100 time=0
EXTRACT: note_off channel=2 note=50 velocity=100 time=0
EXTRACT: note_off channel=2 note=43 velocity=100 time=0
EXTRACT: note_on channel=2 note=41 velocity=100 time=0
EXTRACT: note_off channel=3 note=50 velocity=100 time=0
EXTRACT: note_off channel=3 note=43 velocity=100 time=0
EXTRACT: note_on channel=3 note=41 velocity=100 time=0
EXTRACT: note_off channel=5 note=31 velocity=100 time=0
EXTRACT: note_on channel=5 note=29 velocity=100 time=0
EXTRACT: note_on channel=9 note=35 velocity=127 time=0
EXTRACT: note_on channel=9 note=36 velocity=127 time=0
EXTRACT: note_on channel=9 note=54 velocity=127 time=0
EXTRACT: note_on channel=9 note=51 velocity=127 time=0
EXTRACT: note_off channel=2 note=55 velocity=100 time=0.011160624999999999
EXTRACT: note_off channel=3 note=55 velocity=100 time=0
EXTRACT: note_off channel=9 note=51 velocity=127 time=0.018601041666666665
EXTRACT: note_off channel=9 note=54 velocity=127 time=0
EXTRACT: note_off channel=9 note=36 velocity=127 time=0
EXTRACT: note_off channel=9 note=35 velocity=127 time=0
EXTRACT: note_off channel=6 note=64 velocity=100 time=0.13578760416666666
EXTRACT: note_on channel=6 note=60 velocity=100 time=0.013020729166666665
EXTRACT: note_on channel=9 note=38 velocity=127 time=0
EXTRACT: note_on channel=9 note=54 velocity=127 time=0
EXTRACT: note_off channel=9 note=54 velocity=127 time=0.029761666666666662
EXTRACT: note_off channel=9 note=38 velocity=127 time=0
EXTRACT: note_on channel=6 note=57 velocity=100 time=0.13578760416666666
EXTRACT: note_off channel=1 note=60 velocity=100 time=0.013020729166666665
EXTRACT: note_off channel=1 note=57 velocity=100 time=0
EXTRACT: note_off channel=1 note=53 velocity=100 time=0
EXTRACT: note_off channel=1 note=48 velocity=100 time=0
EXTRACT: note_off channel=1 note=41 velocity=100 time=0
EXTRACT: note_on channel=1 note=41 velocity=100 time=0
EXTRACT: note_on channel=1 note=48 velocity=100 time=0
EXTRACT: note_on channel=1 note=53 velocity=100 time=0
EXTRACT: note_on channel=1 note=57 velocity=100 time=0
EXTRACT: note_on channel=1 note=60 velocity=100 time=0
EXTRACT: note_off channel=2 note=41 velocity=100 time=0
EXTRACT: note_on channel=2 note=40 velocity=100 time=0
EXTRACT: note_off channel=3 note=41 velocity=100 time=0
EXTRACT: note_on channel=3 note=40 velocity=100 time=0
EXTRACT: note_off channel=5 note=29 velocity=100 time=0
EXTRACT: note_on channel=5 note=28 velocity=100 time=0
EXTRACT: note_off channel=6 note=60 velocity=100 time=0
EXTRACT: note_on channel=9 note=35 velocity=127 time=0
EXTRACT: note_on channel=9 note=36 velocity=127 time=0
EXTRACT: note_on channel=9 note=54 velocity=127 time=0
EXTRACT: note_on channel=9 note=51 velocity=127 time=0
EXTRACT: note_off channel=9 note=51 velocity=127 time=0.029761666666666662
EXTRACT: note_off channel=9 note=54 velocity=127 time=0
EXTRACT: note_off channel=9 note=36 velocity=127 time=0
EXTRACT: note_off channel=9 note=35 velocity=127 time=0
EXTRACT: note_on channel=9 note=54 velocity=127 time=0.14880833333333332
EXTRACT: note_off channel=9 note=54 velocity=127 time=0.029761666666666662
EXTRACT: note_off channel=6 note=57 velocity=100 time=0.13578760416666666
EXTRACT: note_on channel=6 note=60 velocity=100 time=0.005580312499999999
EXTRACT: note_off channel=1 note=60 velocity=100 time=0.0074404166666666655
EXTRACT: note_off channel=1 note=57 velocity=100 time=0
EXTRACT: note_off channel=1 note=53 velocity=100 time=0
EXTRACT: note_off channel=1 note=48 velocity=100 time=0
EXTRACT: note_off channel=1 note=41 velocity=100 time=0
EXTRACT: note_on channel=1 note=41 velocity=100 time=0
EXTRACT: note_on channel=1 note=48 velocity=100 time=0
EXTRACT: note_on channel=1 note=53 velocity=100 time=0
EXTRACT: note_on channel=1 note=57 velocity=100 time=0
EXTRACT: note_on channel=1 note=60 velocity=100 time=0
EXTRACT: note_off channel=2 note=40 velocity=100 time=0
EXTRACT: note_on channel=2 note=41 velocity=100 time=0
EXTRACT: note_off channel=3 note=40 velocity=100 time=0
EXTRACT: note_on channel=3 note=41 velocity=100 time=0
EXTRACT: note_off channel=5 note=28 velocity=100 time=0
EXTRACT: note_on channel=5 note=29 velocity=100 time=0
EXTRACT: note_on channel=9 note=38 velocity=127 time=0
EXTRACT: note_on channel=9 note=54 velocity=127 time=0
EXTRACT: note_on channel=9 note=51 velocity=127 time=0
EXTRACT: note_off channel=9 note=51 velocity=127 time=0.029761666666666662
EXTRACT: note_off channel=9 note=54 velocity=127 time=0
EXTRACT: note_off channel=9 note=38 velocity=127 time=0
EXTRACT: note_on channel=9 note=54 velocity=127 time=0.14880833333333332
EXTRACT: note_off channel=9 note=54 velocity=127 time=0.029761666666666662
EXTRACT: note_off channel=2 note=41 velocity=100 time=0.14880833333333332
EXTRACT: note_on channel=2 note=40 velocity=100 time=0
EXTRACT: note_off channel=3 note=41 velocity=100 time=0
EXTRACT: note_on channel=3 note=40 velocity=100 time=0
EXTRACT: note_off channel=5 note=29 velocity=100 time=0
EXTRACT: note_on channel=5 note=28 velocity=100 time=0
EXTRACT: note_on channel=9 note=54 velocity=127 time=0
EXTRACT: note_on channel=9 note=51 velocity=127 time=0
EXTRACT: note_off channel=9 note=51 velocity=127 time=0.029761666666666662
EXTRACT: note_off channel=9 note=54 velocity=127 time=0
EXTRACT: note_on channel=9 note=38 velocity=127 time=0.14880833333333332
EXTRACT: note_on channel=9 note=54 velocity=127 time=0
EXTRACT: note_off channel=9 note=54 velocity=127 time=0.029761666666666662
EXTRACT: note_off channel=9 note=38 velocity=127 time=0
EXTRACT: note_off channel=1 note=60 velocity=100 time=0.14880833333333332
EXTRACT: note_off channel=1 note=57 velocity=100 time=0
EXTRACT: note_off channel=1 note=53 velocity=100 time=0
EXTRACT: note_off channel=1 note=48 velocity=100 time=0
EXTRACT: note_off channel=1 note=41 velocity=100 time=0
EXTRACT: note_on channel=1 note=48 velocity=100 time=0
EXTRACT: note_on channel=1 note=41 velocity=100 time=0
EXTRACT: note_on channel=1 note=53 velocity=100 time=0
EXTRACT: note_on channel=1 note=57 velocity=100 time=0
EXTRACT: note_on channel=1 note=60 velocity=100 time=0
EXTRACT: note_off channel=2 note=40 velocity=100 time=0
EXTRACT: note_on channel=2 note=41 velocity=100 time=0
EXTRACT: note_off channel=3 note=40 velocity=100 time=0
EXTRACT: note_on channel=3 note=41 velocity=100 time=0
EXTRACT: note_off channel=5 note=28 velocity=100 time=0
EXTRACT: note_on channel=5 note=29 velocity=100 time=0
EXTRACT: note_on channel=9 note=35 velocity=127 time=0
EXTRACT: note_on channel=9 note=36 velocity=127 time=0
EXTRACT: note_on channel=9 note=54 velocity=127 time=0
EXTRACT: note_on channel=9 note=51 velocity=127 time=0
EXTRACT: note_off channel=9 note=51 velocity=127 time=0.029761666666666662
EXTRACT: note_off channel=9 note=54 velocity=127 time=0
EXTRACT: note_off channel=9 note=36 velocity=127 time=0
EXTRACT: note_off channel=9 note=35 velocity=127 time=0
EXTRACT: note_on channel=9 note=54 velocity=127 time=0.14880833333333332
EXTRACT: note_off channel=9 note=54 velocity=127 time=0.029761666666666662
EXTRACT: note_off channel=2 note=41 velocity=100 time=0.14880833333333332
EXTRACT: note_on channel=2 note=40 velocity=100 time=0
EXTRACT: note_off channel=3 note=41 velocity=100 time=0
EXTRACT: note_on channel=3 note=40 velocity=100 time=0
EXTRACT: note_off channel=5 note=29 velocity=100 time=0
EXTRACT: note_on channel=5 note=28 velocity=100 time=0
EXTRACT: note_on channel=9 note=36 velocity=127 time=0
EXTRACT: note_on channel=9 note=54 velocity=127 time=0
EXTRACT: note_on channel=9 note=51 velocity=127 time=0
EXTRACT: note_on channel=9 note=35 velocity=127 time=0
EXTRACT: note_off channel=9 note=35 velocity=127 time=0.029761666666666662
EXTRACT: note_off channel=9 note=51 velocity=127 time=0
EXTRACT: note_off channel=9 note=54 velocity=127 time=0
EXTRACT: note_off channel=9 note=36 velocity=127 time=0
EXTRACT: note_on channel=9 note=54 velocity=127 time=0.14880833333333332
EXTRACT: note_off channel=9 note=54 velocity=127 time=0.029761666666666662
EXTRACT: note_off channel=1 note=60 velocity=100 time=0.14880833333333332
EXTRACT: note_off channel=1 note=57 velocity=100 time=0
EXTRACT: note_off channel=1 note=53 velocity=100 time=0
EXTRACT: note_off channel=1 note=41 velocity=100 time=0
EXTRACT: note_off channel=1 note=48 velocity=100 time=0
EXTRACT: note_on channel=1 note=48 velocity=100 time=0
EXTRACT: note_on channel=1 note=41 velocity=100 time=0
EXTRACT: note_on channel=1 note=53 velocity=100 time=0
EXTRACT: note_on channel=1 note=57 velocity=100 time=0
EXTRACT: note_on channel=1 note=60 velocity=100 time=0
EXTRACT: note_off channel=2 note=40 velocity=100 time=0
EXTRACT: note_on channel=2 note=41 velocity=100 time=0
EXTRACT: note_off channel=3 note=40 velocity=100 time=0
EXTRACT: note_on channel=3 note=41 velocity=100 time=0
EXTRACT: note_off channel=5 note=28 velocity=100 time=0
EXTRACT: note_on channel=5 note=29 velocity=100 time=0
EXTRACT: note_on channel=9 note=38 velocity=127 time=0
EXTRACT: note_on channel=9 note=54 velocity=127 time=0
EXTRACT: note_on channel=9 note=51 velocity=127 time=0
EXTRACT: note_off channel=9 note=51 velocity=127 time=0.029761666666666662
EXTRACT: note_off channel=9 note=54 velocity=127 time=0
EXTRACT: note_off channel=9 note=38 velocity=127 time=0
EXTRACT: note_on channel=9 note=54 velocity=127 time=0.14880833333333332
EXTRACT: note_off channel=9 note=54 velocity=127 time=0.029761666666666662
EXTRACT: note_off channel=2 note=41 velocity=100 time=0.14880833333333332
EXTRACT: note_on channel=2 note=40 velocity=100 time=0
EXTRACT: note_off channel=3 note=41 velocity=100 time=0
EXTRACT: note_on channel=3 note=40 velocity=100 time=0
EXTRACT: note_off channel=5 note=29 velocity=100 time=0
EXTRACT: note_on channel=5 note=30 velocity=100 time=0
EXTRACT: note_on channel=9 note=54 velocity=127 time=0
EXTRACT: note_on channel=9 note=51 velocity=127 time=0
EXTRACT: note_off channel=9 note=51 velocity=127 time=0.029761666666666662
EXTRACT: note_off channel=9 note=54 velocity=127 time=0
EXTRACT: note_on channel=9 note=38 velocity=127 time=0.14880833333333332
EXTRACT: note_on channel=9 note=54 velocity=127 time=0
EXTRACT: note_off channel=9 note=54 velocity=127 time=0.029761666666666662
EXTRACT: note_off channel=9 note=38 velocity=127 time=0
EXTRACT: note_off channel=6 note=60 velocity=100 time=0.14136791666666665
EXTRACT: note_off channel=1 note=60 velocity=100 time=0.0074404166666666655
EXTRACT: note_off channel=1 note=57 velocity=100 time=0
EXTRACT: note_off channel=1 note=53 velocity=100 time=0
EXTRACT: note_off channel=1 note=41 velocity=100 time=0
EXTRACT: note_off channel=1 note=48 velocity=100 time=0
EXTRACT: note_on channel=1 note=43 velocity=100 time=0
EXTRACT: note_on channel=1 note=50 velocity=100 time=0
EXTRACT: note_on channel=1 note=55 velocity=100 time=0
EXTRACT: note_on channel=1 note=59 velocity=100 time=0
EXTRACT: note_on channel=1 note=67 velocity=100 time=0
EXTRACT: note_off channel=2 note=40 velocity=100 time=0
EXTRACT: note_on channel=2 note=43 velocity=100 time=0
EXTRACT: note_off channel=3 note=40 velocity=100 time=0
EXTRACT: note_on channel=3 note=43 velocity=100 time=0
EXTRACT: note_off channel=5 note=30 velocity=100 time=0
EXTRACT: note_on channel=5 note=31 velocity=100 time=0
EXTRACT: note_on channel=6 note=57 velocity=100 time=0
EXTRACT: note_on channel=9 note=35 velocity=127 time=0
EXTRACT: note_on channel=9 note=36 velocity=127 time=0
EXTRACT: note_on channel=9 note=54 velocity=127 time=0
EXTRACT: note_on channel=9 note=49 velocity=127 time=0
EXTRACT: note_off channel=9 note=49 velocity=127 time=0.029761666666666662
EXTRACT: note_off channel=9 note=54 velocity=127 time=0
EXTRACT: note_off channel=9 note=36 velocity=127 time=0
EXTRACT: note_off channel=9 note=35 velocity=127 time=0
EXTRACT: note_off channel=6 note=57 velocity=100 time=0.14880833333333332
EXTRACT: note_on channel=9 note=54 velocity=127 time=0
EXTRACT: note_on channel=6 note=55 velocity=100 time=0.022321249999999997
EXTRACT: note_off channel=9 note=54 velocity=127 time=0.0074404166666666655
EXTRACT: note_on channel=2 note=43 velocity=100 time=0.10602593749999999
EXTRACT: note_off channel=1 note=67 velocity=100 time=0.04278239583333333
EXTRACT: note_off channel=1 note=59 velocity=100 time=0
EXTRACT: note_off channel=1 note=55 velocity=100 time=0
EXTRACT: note_off channel=1 note=50 velocity=100 time=0
EXTRACT: note_off channel=1 note=43 velocity=100 time=0
EXTRACT: note_on channel=1 note=43 velocity=100 time=0
EXTRACT: note_on channel=1 note=50 velocity=100 time=0
EXTRACT: note_on channel=1 note=55 velocity=100 time=0
EXTRACT: note_on channel=1 note=59 velocity=100 time=0
EXTRACT: note_on channel=1 note=67 velocity=100 time=0
EXTRACT: note_off channel=2 note=43 velocity=100 time=0
EXTRACT: note_off channel=3 note=43 velocity=100 time=0
EXTRACT: note_on channel=3 note=43 velocity=100 time=0
EXTRACT: note_off channel=5 note=31 velocity=100 time=0
EXTRACT: note_on channel=5 note=30 velocity=100 time=0
EXTRACT: note_on channel=9 note=35 velocity=127 time=0
EXTRACT: note_on channel=9 note=36 velocity=127 time=0
EXTRACT: note_on channel=9 note=54 velocity=127 time=0
EXTRACT: note_on channel=9 note=49 velocity=127 time=0
EXTRACT: note_off channel=9 note=49 velocity=127 time=0.029761666666666662
EXTRACT: note_off channel=9 note=54 velocity=127 time=0
EXTRACT: note_off channel=9 note=36 velocity=127 time=0
EXTRACT: note_off channel=9 note=35 velocity=127 time=0
EXTRACT: note_on channel=9 note=54 velocity=127 time=0.14880833333333332
EXTRACT: note_off channel=9 note=54 velocity=127 time=0.029761666666666662
EXTRACT: note_off channel=2 note=43 velocity=100 time=0.10602593749999999
EXTRACT: note_on channel=2 note=43 velocity=100 time=0.029761666666666662
EXTRACT: note_off channel=1 note=67 velocity=100 time=0.013020729166666665
EXTRACT: note_off channel=1 note=59 velocity=100 time=0
EXTRACT: note_off channel=1 note=55 velocity=100 time=0
EXTRACT: note_off channel=1 note=50 velocity=100 time=0
EXTRACT: note_off channel=1 note=43 velocity=100 time=0
EXTRACT: note_on channel=1 note=43 velocity=100 time=0
EXTRACT: note_on channel=1 note=50 velocity=100 time=0
EXTRACT: note_on channel=1 note=55 velocity=100 time=0
EXTRACT: note_on channel=1 note=59 velocity=100 time=0
EXTRACT: note_on channel=1 note=67 velocity=100 time=0
EXTRACT: note_off channel=3 note=43 velocity=100 time=0
EXTRACT: note_on channel=3 note=43 velocity=100 time=0
EXTRACT: note_off channel=5 note=30 velocity=100 time=0
EXTRACT: note_on channel=5 note=31 velocity=100 time=0
EXTRACT: note_on channel=9 note=38 velocity=127 time=0
EXTRACT: note_on channel=9 note=54 velocity=127 time=0
EXTRACT: note_on channel=9 note=51 velocity=127 time=0
EXTRACT: note_off channel=9 note=51 velocity=127 time=0.029761666666666662
EXTRACT: note_off channel=9 note=54 velocity=127 time=0
EXTRACT: note_off channel=9 note=38 velocity=127 time=0
EXTRACT: note_on channel=9 note=54 velocity=127 time=0.14880833333333332
EXTRACT: note_off channel=9 note=54 velocity=127 time=0.029761666666666662
EXTRACT: note_on channel=2 note=43 velocity=100 time=0.12462697916666665
EXTRACT: note_off channel=2 note=43 velocity=100 time=0.011160624999999999
EXTRACT: note_off channel=3 note=43 velocity=100 time=0.013020729166666665
EXTRACT: note_on channel=3 note=43 velocity=100 time=0
EXTRACT: note_off channel=5 note=31 velocity=100 time=0
EXTRACT: note_on channel=5 note=30 velocity=100 time=0
EXTRACT: note_on channel=9 note=54 velocity=127 time=0
EXTRACT: note_on channel=9 note=51 velocity=127 time=0
EXTRACT: note_off channel=9 note=51 velocity=127 time=0.029761666666666662
EXTRACT: note_off channel=9 note=54 velocity=127 time=0
EXTRACT: note_on channel=9 note=38 velocity=127 time=0.14880833333333332
EXTRACT: note_on channel=9 note=54 velocity=127 time=0
EXTRACT: note_off channel=9 note=54 velocity=127 time=0.029761666666666662
EXTRACT: note_off channel=9 note=38 velocity=127 time=0
EXTRACT: note_off channel=2 note=43 velocity=100 time=0.12462697916666665
EXTRACT: note_on channel=2 note=55 velocity=100 time=0
EXTRACT: note_off channel=1 note=67 velocity=100 time=0.024181354166666662
EXTRACT: note_off channel=1 note=59 velocity=100 time=0
EXTRACT: note_off channel=1 note=55 velocity=100 time=0
EXTRACT: note_off channel=1 note=50 velocity=100 time=0
EXTRACT: note_off channel=1 note=43 velocity=100 time=0
EXTRACT: note_on channel=1 note=43 velocity=100 time=0
EXTRACT: note_on channel=1 note=50 velocity=100 time=0
EXTRACT: note_on channel=1 note=55 velocity=100 time=0
EXTRACT: note_on channel=1 note=59 velocity=100 time=0
EXTRACT: note_on channel=1 note=67 velocity=100 time=0
EXTRACT: note_off channel=3 note=43 velocity=100 time=0
EXTRACT: note_on channel=3 note=43 velocity=100 time=0
EXTRACT: note_off channel=5 note=30 velocity=100 time=0
EXTRACT: note_on channel=5 note=31 velocity=100 time=0
EXTRACT: note_on channel=9 note=35 velocity=127 time=0
EXTRACT: note_on channel=9 note=36 velocity=127 time=0
EXTRACT: note_on channel=9 note=54 velocity=127 time=0
EXTRACT: note_on channel=9 note=51 velocity=127 time=0
EXTRACT: note_off channel=9 note=51 velocity=127 time=0.029761666666666662
EXTRACT: note_off channel=9 note=54 velocity=127 time=0
EXTRACT: note_off channel=9 note=36 velocity=127 time=0
EXTRACT: note_off channel=9 note=35 velocity=127 time=0
EXTRACT: note_on channel=9 note=38 velocity=127 time=0.14880833333333332
EXTRACT: note_on channel=9 note=54 velocity=127 time=0
EXTRACT: note_off channel=6 note=55 velocity=100 time=0.022321249999999997
EXTRACT: note_off channel=9 note=54 velocity=127 time=0.0074404166666666655
EXTRACT: note_off channel=9 note=38 velocity=127 time=0
EXTRACT: note_off channel=2 note=55 velocity=100 time=0.12462697916666665
EXTRACT: note_off channel=1 note=67 velocity=100 time=0.024181354166666662
EXTRACT: note_off channel=1 note=59 velocity=100 time=0
EXTRACT: note_off channel=1 note=55 velocity=100 time=0
EXTRACT: note_off channel=1 note=50 velocity=100 time=0
EXTRACT: note_off channel=1 note=43 velocity=100 time=0
EXTRACT: note_on channel=1 note=43 velocity=100 time=0
EXTRACT: note_on channel=1 note=50 velocity=100 time=0
EXTRACT: note_on channel=1 note=55 velocity=100 time=0
EXTRACT: note_on channel=1 note=59 velocity=100 time=0
EXTRACT: note_on channel=1 note=67 velocity=100 time=0
EXTRACT: note_on channel=2 note=55 velocity=100 time=0
EXTRACT: note_off channel=3 note=43 velocity=100 time=0
EXTRACT: note_on channel=3 note=43 velocity=100 time=0
EXTRACT: note_off channel=5 note=31 velocity=100 time=0
EXTRACT: note_on channel=5 note=30 velocity=100 time=0
EXTRACT: note_on channel=9 note=35 velocity=127 time=0
EXTRACT: note_on channel=9 note=36 velocity=127 time=0
EXTRACT: note_on channel=9 note=54 velocity=127 time=0
EXTRACT: note_on channel=9 note=51 velocity=127 time=0
EXTRACT: note_off channel=9 note=51 velocity=127 time=0.029761666666666662
EXTRACT: note_off channel=9 note=54 velocity=127 time=0
EXTRACT: note_off channel=9 note=36 velocity=127 time=0
EXTRACT: note_off channel=9 note=35 velocity=127 time=0
EXTRACT: note_off channel=2 note=55 velocity=100 time=0.14880833333333332
EXTRACT: note_on channel=2 note=57 velocity=100 time=0
EXTRACT: note_on channel=9 note=54 velocity=127 time=0
EXTRACT: note_off channel=9 note=54 velocity=127 time=0.029761666666666662
EXTRACT: note_off channel=1 note=67 velocity=100 time=0.14880833333333332
EXTRACT: note_off channel=1 note=59 velocity=100 time=0
EXTRACT: note_off channel=1 note=55 velocity=100 time=0
EXTRACT: note_off channel=1 note=50 velocity=100 time=0
EXTRACT: note_off channel=1 note=43 velocity=100 time=0
EXTRACT: note_on channel=1 note=43 velocity=100 time=0
EXTRACT: note_on channel=1 note=50 velocity=100 time=0
EXTRACT: note_on channel=1 note=55 velocity=100 time=0
EXTRACT: note_on channel=1 note=59 velocity=100 time=0
EXTRACT: note_on channel=1 note=67 velocity=100 time=0
EXTRACT: note_off channel=2 note=57 velocity=100 time=0
EXTRACT: note_on channel=2 note=60 velocity=100 time=0
EXTRACT: note_off channel=3 note=43 velocity=100 time=0
EXTRACT: note_on channel=3 note=43 velocity=100 time=0
EXTRACT: note_off channel=5 note=30 velocity=100 time=0
EXTRACT: note_on channel=5 note=31 velocity=100 time=0
EXTRACT: note_on channel=9 note=38 velocity=127 time=0
EXTRACT: note_on channel=9 note=54 velocity=127 time=0
EXTRACT: note_on channel=9 note=51 velocity=127 time=0
EXTRACT: note_off channel=9 note=51 velocity=127 time=0.029761666666666662
EXTRACT: note_off channel=9 note=54 velocity=127 time=0
EXTRACT: note_off channel=9 note=38 velocity=127 time=0
EXTRACT: note_on channel=9 note=54 velocity=127 time=0.14880833333333332
EXTRACT: note_off channel=9 note=54 velocity=127 time=0.029761666666666662
EXTRACT: note_off channel=1 note=67 velocity=100 time=0.14880833333333332
EXTRACT: note_off channel=1 note=59 velocity=100 time=0
EXTRACT: note_off channel=1 note=55 velocity=100 time=0
EXTRACT: note_off channel=1 note=50 velocity=100 time=0
EXTRACT: note_off channel=1 note=43 velocity=100 time=0
EXTRACT: note_on channel=1 note=43 velocity=100 time=0
EXTRACT: note_on channel=1 note=50 velocity=100 time=0
EXTRACT: note_on channel=1 note=55 velocity=100 time=0
EXTRACT: note_on channel=1 note=59 velocity=100 time=0
EXTRACT: note_on channel=1 note=67 velocity=100 time=0
EXTRACT: note_off channel=2 note=60 velocity=100 time=0
EXTRACT: note_on channel=2 note=62 velocity=100 time=0
EXTRACT: note_off channel=3 note=43 velocity=100 time=0
EXTRACT: note_on channel=3 note=45 velocity=100 time=0
EXTRACT: note_off channel=5 note=31 velocity=100 time=0
EXTRACT: note_on channel=5 note=30 velocity=100 time=0
EXTRACT: note_on channel=9 note=54 velocity=127 time=0
EXTRACT: note_on channel=9 note=51 velocity=127 time=0
EXTRACT: note_off channel=9 note=51 velocity=127 time=0.029761666666666662
EXTRACT: note_off channel=9 note=54 velocity=127 time=0
EXTRACT: note_off channel=2 note=62 velocity=100 time=0.14880833333333332
EXTRACT: note_on channel=2 note=62 velocity=100 time=0
EXTRACT: note_on channel=9 note=38 velocity=127 time=0
EXTRACT: note_on channel=9 note=54 velocity=127 time=0
EXTRACT: note_off channel=9 note=54 velocity=127 time=0.029761666666666662
EXTRACT: note_off channel=9 note=38 velocity=127 time=0
EXTRACT: note_off channel=1 note=67 velocity=100 time=0.14880833333333332
EXTRACT: note_off channel=1 note=59 velocity=100 time=0
EXTRACT: note_off channel=1 note=55 velocity=100 time=0
EXTRACT: note_off channel=1 note=50 velocity=100 time=0
EXTRACT: note_off channel=1 note=43 velocity=100 time=0
EXTRACT: note_on channel=1 note=43 velocity=100 time=0
EXTRACT: note_on channel=1 note=50 velocity=100 time=0
EXTRACT: note_on channel=1 note=55 velocity=100 time=0
EXTRACT: note_on channel=1 note=59 velocity=100 time=0
EXTRACT: note_on channel=1 note=67 velocity=100 time=0
EXTRACT: note_off channel=2 note=62 velocity=100 time=0
EXTRACT: note_on channel=2 note=62 velocity=100 time=0
EXTRACT: note_off channel=3 note=45 velocity=100 time=0
EXTRACT: note_on channel=3 note=43 velocity=100 time=0
EXTRACT: note_off channel=5 note=30 velocity=100 time=0
EXTRACT: note_on channel=5 note=31 velocity=100 time=0
EXTRACT: note_on channel=9 note=35 velocity=127 time=0
EXTRACT: note_on channel=9 note=36 velocity=127 time=0
EXTRACT: note_on channel=9 note=54 velocity=127 time=0
EXTRACT: note_on channel=9 note=51 velocity=127 time=0
EXTRACT: pitchwheel channel=2 pitch=128 time=0.022321249999999997
EXTRACT: note_off channel=9 note=51 velocity=127 time=0.0074404166666666655
EXTRACT: note_off channel=9 note=54 velocity=127 time=0
EXTRACT: note_off channel=9 note=36 velocity=127 time=0
EXTRACT: note_off channel=9 note=35 velocity=127 time=0
EXTRACT: pitchwheel channel=2 pitch=384 time=0.016740937499999997
EXTRACT: pitchwheel channel=2 pitch=3456 time=0.013020729166666665
EXTRACT: pitchwheel channel=2 pitch=3712 time=0.011160624999999999
EXTRACT: pitchwheel channel=2 pitch=3840 time=0.011160624999999999
EXTRACT: pitchwheel channel=2 pitch=3968 time=0.013020729166666665
EXTRACT: pitchwheel channel=2 pitch=3712 time=0.07068395833333332
EXTRACT: pitchwheel channel=2 pitch=3584 time=0.013020729166666665
EXTRACT: note_on channel=9 note=38 velocity=127 time=0
EXTRACT: note_on channel=9 note=54 velocity=127 time=0
EXTRACT: pitchwheel channel=2 pitch=2944 time=0.011160624999999999
EXTRACT: pitchwheel channel=2 pitch=2176 time=0.011160624999999999
EXTRACT: note_off channel=9 note=54 velocity=127 time=0.0074404166666666655
EXTRACT: note_off channel=9 note=38 velocity=127 time=0
EXTRACT: pitchwheel channel=2 pitch=1664 time=0.005580312499999999
EXTRACT: pitchwheel channel=2 pitch=1152 time=0.024181354166666662
EXTRACT: pitchwheel channel=2 pitch=512 time=0.011160624999999999
EXTRACT: pitchwheel channel=2 pitch=0 time=0.011160624999999999
EXTRACT: note_off channel=2 note=62 velocity=100 time=0.09672541666666665
EXTRACT: note_on channel=2 note=60 velocity=100 time=0
EXTRACT: note_off channel=3 note=43 velocity=100 time=0
EXTRACT: note_on channel=3 note=43 velocity=100 time=0
EXTRACT: note_off channel=5 note=31 velocity=100 time=0
EXTRACT: note_on channel=5 note=30 velocity=100 time=0
EXTRACT: note_on channel=9 note=36 velocity=127 time=0
EXTRACT: note_on channel=9 note=54 velocity=127 time=0
EXTRACT: note_on channel=9 note=51 velocity=127 time=0
EXTRACT: note_off channel=9 note=51 velocity=127 time=0.029761666666666662
EXTRACT: note_off channel=9 note=54 velocity=127 time=0
EXTRACT: note_off channel=9 note=36 velocity=127 time=0
EXTRACT: note_off channel=2 note=60 velocity=100 time=0.14880833333333332
EXTRACT: note_on channel=2 note=57 velocity=100 time=0
EXTRACT: note_on channel=9 note=35 velocity=127 time=0
EXTRACT: note_on channel=9 note=54 velocity=127 time=0
EXTRACT: note_off channel=9 note=54 velocity=127 time=0.029761666666666662
EXTRACT: note_off channel=9 note=35 velocity=127 time=0
EXTRACT: note_on channel=3 note=43 velocity=100 time=0.059523333333333324
EXTRACT: note_off channel=1 note=67 velocity=100 time=0.08928499999999999
EXTRACT: note_off channel=1 note=59 velocity=100 time=0
EXTRACT: note_off channel=1 note=55 velocity=100 time=0
EXTRACT: note_off channel=1 note=50 velocity=100 time=0
EXTRACT: note_off channel=1 note=43 velocity=100 time=0
EXTRACT: note_on channel=1 note=43 velocity=100 time=0
EXTRACT: note_on channel=1 note=50 velocity=100 time=0
EXTRACT: note_on channel=1 note=55 velocity=100 time=0
EXTRACT: note_on channel=1 note=59 velocity=100 time=0
EXTRACT: note_on channel=1 note=67 velocity=100 time=0
EXTRACT: note_off channel=2 note=57 velocity=100 time=0
EXTRACT: note_on channel=2 note=60 velocity=100 time=0
EXTRACT: note_off channel=3 note=43 velocity=100 time=0
EXTRACT: note_off channel=5 note=30 velocity=100 time=0
EXTRACT: note_on channel=5 note=31 velocity=100 time=0
EXTRACT: note_on channel=9 note=38 velocity=127 time=0
EXTRACT: note_on channel=9 note=54 velocity=127 time=0
EXTRACT: note_on channel=9 note=51 velocity=127 time=0
EXTRACT: note_off channel=9 note=51 velocity=127 time=0.029761666666666662
EXTRACT: note_off channel=9 note=54 velocity=127 time=0
EXTRACT: note_off channel=9 note=38 velocity=127 time=0
EXTRACT: note_on channel=9 note=54 velocity=127 time=0.14880833333333332
EXTRACT: note_off channel=9 note=54 velocity=127 time=0.029761666666666662
EXTRACT: note_off channel=3 note=43 velocity=100 time=0.059523333333333324
EXTRACT: note_off channel=2 note=60 velocity=100 time=0.08928499999999999
EXTRACT: note_on channel=2 note=62 velocity=100 time=0
EXTRACT: note_on channel=3 note=43 velocity=100 time=0
EXTRACT: note_off channel=5 note=31 velocity=100 time=0
EXTRACT: note_on channel=5 note=30 velocity=100 time=0
EXTRACT: note_on channel=9 note=54 velocity=127 time=0
EXTRACT: note_on channel=9 note=51 velocity=127 time=0
EXTRACT: note_off channel=9 note=51 velocity=127 time=0.029761666666666662
EXTRACT: note_off channel=9 note=54 velocity=127 time=0
EXTRACT: note_off channel=2 note=62 velocity=100 time=0.14880833333333332
EXTRACT: note_off channel=3 note=43 velocity=100 time=0
EXTRACT: note_on channel=3 note=43 velocity=100 time=0
EXTRACT: note_on channel=9 note=38 velocity=127 time=0
EXTRACT: note_on channel=9 note=54 velocity=127 time=0
EXTRACT: note_on channel=2 note=62 velocity=100 time=0.029761666666666662
EXTRACT: note_off channel=9 note=54 velocity=127 time=0
EXTRACT: note_off channel=9 note=38 velocity=127 time=0
EXTRACT: pitchwheel channel=2 pitch=0 time=0.029761666666666662
EXTRACT: pitchwheel channel=2 pitch=128 time=0.022321249999999997
EXTRACT: pitchwheel channel=2 pitch=384 time=0.013020729166666665
EXTRACT: pitchwheel channel=2 pitch=1920 time=0.011160624999999999
EXTRACT: pitchwheel channel=2 pitch=3200 time=0.013020729166666665
EXTRACT: pitchwheel channel=2 pitch=5248 time=0.011160624999999999
EXTRACT: pitchwheel channel=2 pitch=5504 time=0.011160624999999999
EXTRACT: pitchwheel channel=2 pitch=6400 time=0.013020729166666665
EXTRACT: pitchwheel channel=2 pitch=6912 time=0.011160624999999999
EXTRACT: note_off channel=1 note=67 velocity=100 time=0.013020729166666665
EXTRACT: note_off channel=1 note=59 velocity=100 time=0
EXTRACT: note_off channel=1 note=55 velocity=100 time=0
EXTRACT: note_off channel=1 note=50 velocity=100 time=0
EXTRACT: note_off channel=1 note=43 velocity=100 time=0
EXTRACT: note_on channel=1 note=43 velocity=100 time=0
EXTRACT: note_on channel=1 note=50 velocity=100 time=0
EXTRACT: note_on channel=1 note=55 velocity=100 time=0
EXTRACT: note_on channel=1 note=59 velocity=100 time=0
EXTRACT: note_on channel=1 note=67 velocity=100 time=0
EXTRACT: pitchwheel channel=2 pitch=7296 time=0
EXTRACT: note_off channel=3 note=43 velocity=100 time=0
EXTRACT: note_on channel=3 note=43 velocity=100 time=0
EXTRACT: note_off channel=5 note=30 velocity=100 time=0
EXTRACT: note_on channel=5 note=31 velocity=100 time=0
EXTRACT: note_on channel=9 note=35 velocity=127 time=0
EXTRACT: note_on channel=9 note=36 velocity=127 time=0
EXTRACT: note_on channel=9 note=54 velocity=127 time=0
EXTRACT: note_on channel=9 note=51 velocity=127 time=0
EXTRACT: pitchwheel channel=2 pitch=7424 time=0.022321249999999997
EXTRACT: note_off channel=9 note=51 velocity=127 time=0.0074404166666666655
EXTRACT: note_off channel=9 note=54 velocity=127 time=0
EXTRACT: note_off channel=9 note=36 velocity=127 time=0
EXTRACT: note_off channel=9 note=35 velocity=127 time=0
EXTRACT: pitchwheel channel=2 pitch=7552 time=0.005580312499999999
EXTRACT: pitchwheel channel=2 pitch=7680 time=0.13020729166666664
EXTRACT: pitchwheel channel=2 pitch=7808 time=0.013020729166666665
EXTRACT: note_on channel=9 note=54 velocity=127 time=0
EXTRACT: note_off channel=9 note=54 velocity=127 time=0.029761666666666662
EXTRACT: pitchwheel channel=2 pitch=7936 time=0.07626427083333333
EXTRACT: note_on channel=9 note=43 velocity=127 time=0.04278239583333333
EXTRACT: note_off channel=1 note=67 velocity=100 time=0.029761666666666662
EXTRACT: note_off channel=1 note=59 velocity=100 time=0
EXTRACT: note_off channel=1 note=55 velocity=100 time=0
EXTRACT: note_off channel=1 note=50 velocity=100 time=0
EXTRACT: note_off channel=1 note=43 velocity=100 time=0
EXTRACT: note_on channel=1 note=43 velocity=100 time=0
EXTRACT: note_on channel=1 note=50 velocity=100 time=0
EXTRACT: note_on channel=1 note=55 velocity=100 time=0
EXTRACT: note_on channel=1 note=59 velocity=100 time=0
EXTRACT: note_on channel=1 note=67 velocity=100 time=0
EXTRACT: note_off channel=3 note=43 velocity=100 time=0
EXTRACT: note_on channel=3 note=43 velocity=100 time=0
EXTRACT: note_off channel=5 note=31 velocity=100 time=0
EXTRACT: note_on channel=5 note=30 velocity=100 time=0
EXTRACT: note_off channel=9 note=43 velocity=127 time=0
EXTRACT: note_on channel=9 note=38 velocity=127 time=0
EXTRACT: note_on channel=9 note=54 velocity=127 time=0
EXTRACT: note_off channel=9 note=54 velocity=127 time=0.029761666666666662
EXTRACT: note_off channel=9 note=38 velocity=127 time=0
EXTRACT: pitchwheel channel=2 pitch=7552 time=0.029761666666666662
EXTRACT: pitchwheel channel=2 pitch=7296 time=0.011160624999999999
EXTRACT: pitchwheel channel=2 pitch=6528 time=0.011160624999999999
EXTRACT: pitchwheel channel=2 pitch=5760 time=0.013020729166666665
EXTRACT: pitchwheel channel=2 pitch=4736 time=0.011160624999999999
EXTRACT: pitchwheel channel=2 pitch=4608 time=0.013020729166666665
EXTRACT: pitchwheel channel=2 pitch=3712 time=0.011160624999999999
EXTRACT: pitchwheel channel=2 pitch=2944 time=0.011160624999999999
EXTRACT: note_on channel=2 note=60 velocity=100 time=0.013020729166666665
EXTRACT: pitchwheel channel=2 pitch=2176 time=0
EXTRACT: pitchwheel channel=2 pitch=1920 time=0.011160624999999999
EXTRACT: pitchwheel channel=2 pitch=1664 time=0.013020729166666665
EXTRACT: note_on channel=9 note=54 velocity=127 time=0
EXTRACT: pitchwheel channel=2 pitch=1408 time=0.011160624999999999
EXTRACT: pitchwheel channel=2 pitch=640 time=0.011160624999999999
EXTRACT: note_off channel=2 note=62 velocity=100 time=0.0074404166666666655
EXTRACT: note_off channel=9 note=54 velocity=127 time=0
EXTRACT: pitchwheel channel=2 pitch=512 time=0.005580312499999999
EXTRACT: pitchwheel channel=2 pitch=128 time=0.011160624999999999
EXTRACT: pitchwheel channel=2 pitch=0 time=0.013020729166666665
EXTRACT: note_on channel=2 note=62 velocity=100 time=0.08928499999999999
EXTRACT: note_off channel=2 note=60 velocity=100 time=0.005580312499999999
EXTRACT: note_off channel=1 note=67 velocity=100 time=0.024181354166666662
EXTRACT: note_off channel=1 note=59 velocity=100 time=0
EXTRACT: note_off channel=1 note=55 velocity=100 time=0
EXTRACT: note_off channel=1 note=50 velocity=100 time=0
EXTRACT: note_off channel=1 note=43 velocity=100 time=0
EXTRACT: note_on channel=1 note=43 velocity=100 time=0
EXTRACT: note_on channel=1 note=50 velocity=100 time=0
EXTRACT: note_on channel=1 note=55 velocity=100 time=0
EXTRACT: note_on channel=1 note=59 velocity=100 time=0
EXTRACT: note_on channel=1 note=67 velocity=100 time=0
EXTRACT: note_off channel=3 note=43 velocity=100 time=0
EXTRACT: note_on channel=3 note=43 velocity=100 time=0
EXTRACT: note_off channel=5 note=30 velocity=100 time=0
EXTRACT: note_on channel=5 note=31 velocity=100 time=0
EXTRACT: note_on channel=9 note=38 velocity=127 time=0
EXTRACT: note_on channel=9 note=54 velocity=127 time=0
EXTRACT: note_off channel=9 note=54 velocity=127 time=0.029761666666666662
EXTRACT: note_off channel=9 note=38 velocity=127 time=0
EXTRACT: note_off channel=2 note=62 velocity=100 time=0.11904666666666665
EXTRACT: note_on channel=2 note=60 velocity=100 time=0.005580312499999999
EXTRACT: note_on channel=9 note=45 velocity=127 time=0.024181354166666662
EXTRACT: note_on channel=9 note=54 velocity=127 time=0
EXTRACT: note_off channel=9 note=54 velocity=127 time=0.029761666666666662
EXTRACT: note_off channel=9 note=45 velocity=127 time=0
EXTRACT: note_off channel=2 note=60 velocity=100 time=0.12462697916666665
EXTRACT: note_on channel=6 note=55 velocity=100 time=0.016740937499999997
EXTRACT: note_off channel=1 note=67 velocity=100 time=0.0074404166666666655
EXTRACT: note_off channel=1 note=59 velocity=100 time=0
EXTRACT: note_off channel=1 note=55 velocity=100 time=0
EXTRACT: note_off channel=1 note=50 velocity=100 time=0
EXTRACT: note_off channel=1 note=43 velocity=100 time=0
EXTRACT: note_on channel=1 note=43 velocity=100 time=0
EXTRACT: note_on channel=1 note=50 velocity=100 time=0
EXTRACT: note_on channel=1 note=55 velocity=100 time=0
EXTRACT: note_on channel=1 note=59 velocity=100 time=0
EXTRACT: note_on channel=1 note=67 velocity=100 time=0
EXTRACT: note_on channel=2 note=62 velocity=100 time=0
EXTRACT: note_off channel=3 note=43 velocity=100 time=0
EXTRACT: note_on channel=3 note=43 velocity=100 time=0
EXTRACT: note_off channel=5 note=31 velocity=100 time=0
EXTRACT: note_on channel=5 note=33 velocity=100 time=0
EXTRACT: note_on channel=9 note=43 velocity=127 time=0
EXTRACT: note_on channel=9 note=54 velocity=127 time=0
EXTRACT: note_off channel=9 note=54 velocity=127 time=0.029761666666666662
EXTRACT: note_off channel=9 note=43 velocity=127 time=0
EXTRACT: note_off channel=5 note=33 velocity=100 time=0.14880833333333332
EXTRACT: note_on channel=5 note=35 velocity=100 time=0
EXTRACT: note_on channel=9 note=45 velocity=127 time=0
EXTRACT: note_on channel=9 note=54 velocity=127 time=0
EXTRACT: note_off channel=9 note=54 velocity=127 time=0.029761666666666662
EXTRACT: note_off channel=9 note=45 velocity=127 time=0
EXTRACT: note_off channel=6 note=55 velocity=100 time=0.14136791666666665
EXTRACT: note_off channel=1 note=67 velocity=100 time=0.0074404166666666655
EXTRACT: note_off channel=1 note=59 velocity=100 time=0
EXTRACT: note_off channel=1 note=55 velocity=100 time=0
EXTRACT: note_off channel=1 note=50 velocity=100 time=0
EXTRACT: note_off channel=1 note=43 velocity=100 time=0
EXTRACT: note_on channel=1 note=48 velocity=100 time=0
EXTRACT: note_on channel=1 note=52 velocity=100 time=0
EXTRACT: note_on channel=1 note=55 velocity=100 time=0
EXTRACT: note_on channel=1 note=60 velocity=100 time=0
EXTRACT: note_on channel=1 note=64 velocity=100 time=0
EXTRACT: note_off channel=2 note=62 velocity=100 time=0
EXTRACT: note_on channel=2 note=60 velocity=100 time=0
EXTRACT: note_off channel=3 note=43 velocity=100 time=0
EXTRACT: note_off channel=5 note=35 velocity=100 time=0
EXTRACT: note_on channel=5 note=36 velocity=100 time=0
EXTRACT: note_on channel=6 note=67 velocity=100 time=0
EXTRACT: note_on channel=9 note=35 velocity=127 time=0
EXTRACT: note_on channel=9 note=36 velocity=127 time=0
EXTRACT: note_on channel=9 note=54 velocity=127 time=0
EXTRACT: note_on channel=9 note=49 velocity=127 time=0
EXTRACT: note_off channel=9 note=49 velocity=127 time=0.029761666666666662
EXTRACT: note_off channel=9 note=54 velocity=127 time=0
EXTRACT: note_off channel=9 note=36 velocity=127 time=0
EXTRACT: note_off channel=9 note=35 velocity=127 time=0
EXTRACT: note_on channel=9 note=54 velocity=127 time=0.14880833333333332
EXTRACT: note_off channel=9 note=54 velocity=127 time=0.029761666666666662
EXTRACT: note_on channel=9 note=54 velocity=127 time=0.14880833333333332
EXTRACT: note_on channel=9 note=51 velocity=127 time=0
EXTRACT: note_off channel=9 note=51 velocity=127 time=0.029761666666666662
EXTRACT: note_off channel=9 note=54 velocity=127 time=0
EXTRACT: note_on channel=9 note=54 velocity=127 time=0.14880833333333332
EXTRACT: note_off channel=9 note=54 velocity=127 time=0.029761666666666662
EXTRACT: note_on channel=5 note=36 velocity=100 time=0.10602593749999999
EXTRACT: note_off channel=1 note=64 velocity=100 time=0.04278239583333333
EXTRACT: note_off channel=1 note=60 velocity=100 time=0
EXTRACT: note_off channel=1 note=55 velocity=100 time=0
EXTRACT: note_off channel=1 note=52 velocity=100 time=0
EXTRACT: note_off channel=1 note=48 velocity=100 time=0
EXTRACT: note_on channel=1 note=48 velocity=100 time=0
EXTRACT: note_on channel=1 note=52 velocity=100 time=0
EXTRACT: note_on channel=1 note=55 velocity=100 time=0
EXTRACT: note_on channel=1 note=60 velocity=100 time=0
EXTRACT: note_on channel=1 note=64 velocity=100 time=0
EXTRACT: note_off channel=5 note=36 velocity=100 time=0
EXTRACT: note_on channel=9 note=38 velocity=127 time=0
EXTRACT: note_on channel=9 note=54 velocity=127 time=0
EXTRACT: note_on channel=9 note=51 velocity=127 time=0
EXTRACT: note_off channel=9 note=51 velocity=127 time=0.029761666666666662
EXTRACT: note_off channel=9 note=54 velocity=127 time=0
EXTRACT: note_off channel=9 note=38 velocity=127 time=0
EXTRACT: note_on channel=9 note=54 velocity=127 time=0.14880833333333332
EXTRACT: note_off channel=9 note=54 velocity=127 time=0.029761666666666662
EXTRACT: note_off channel=5 note=36 velocity=100 time=0.10602593749999999
EXTRACT: note_off channel=1 note=64 velocity=100 time=0.04278239583333333
EXTRACT: note_off channel=1 note=60 velocity=100 time=0
EXTRACT: note_off channel=1 note=55 velocity=100 time=0
EXTRACT: note_off channel=1 note=52 velocity=100 time=0
EXTRACT: note_off channel=1 note=48 velocity=100 time=0
EXTRACT: note_on channel=1 note=48 velocity=100 time=0
EXTRACT: note_on channel=1 note=52 velocity=100 time=0
EXTRACT: note_on channel=1 note=55 velocity=100 time=0
EXTRACT: note_on channel=1 note=60 velocity=100 time=0
EXTRACT: note_on channel=1 note=64 velocity=100 time=0
EXTRACT: note_on channel=9 note=54 velocity=127 time=0
EXTRACT: note_on channel=9 note=51 velocity=127 time=0
EXTRACT: note_on channel=5 note=35 velocity=100 time=0.022321249999999997
EXTRACT: note_off channel=9 note=51 velocity=127 time=0.0074404166666666655
EXTRACT: note_off channel=9 note=54 velocity=127 time=0
EXTRACT: note_on channel=9 note=38 velocity=127 time=0.14880833333333332
EXTRACT: note_on channel=9 note=54 velocity=127 time=0
EXTRACT: note_off channel=9 note=54 velocity=127 time=0.029761666666666662
EXTRACT: note_off channel=9 note=38 velocity=127 time=0
EXTRACT: note_off channel=1 note=64 velocity=100 time=0.14880833333333332
EXTRACT: note_off channel=1 note=60 velocity=100 time=0
EXTRACT: note_off channel=1 note=55 velocity=100 time=0
EXTRACT: note_off channel=1 note=52 velocity=100 time=0
EXTRACT: note_off channel=1 note=48 velocity=100 time=0
EXTRACT: note_on channel=1 note=43 velocity=100 time=0
EXTRACT: note_on channel=1 note=50 velocity=100 time=0
EXTRACT: note_on channel=1 note=55 velocity=100 time=0
EXTRACT: note_on channel=1 note=59 velocity=100 time=0
EXTRACT: note_on channel=1 note=67 velocity=100 time=0
EXTRACT: note_off channel=6 note=67 velocity=100 time=0
EXTRACT: note_on channel=6 note=65 velocity=100 time=0
EXTRACT: note_on channel=9 note=35 velocity=127 time=0
EXTRACT: note_on channel=9 note=36 velocity=127 time=0
EXTRACT: note_on channel=9 note=54 velocity=127 time=0
EXTRACT: note_on channel=9 note=51 velocity=127 time=0
EXTRACT: note_off channel=5 note=35 velocity=100 time=0.022321249999999997
EXTRACT: note_on channel=5 note=31 velocity=100 time=0
EXTRACT: note_off channel=9 note=51 velocity=127 time=0.0074404166666666655
EXTRACT: note_off channel=9 note=54 velocity=127 time=0
EXTRACT: note_off channel=9 note=36 velocity=127 time=0
EXTRACT: note_off channel=9 note=35 velocity=127 time=0
EXTRACT: note_on channel=9 note=38 velocity=127 time=0.14880833333333332
EXTRACT: note_on channel=9 note=54 velocity=127 time=0
EXTRACT: note_off channel=9 note=54 velocity=127 time=0.029761666666666662
EXTRACT: note_off channel=9 note=38 velocity=127 time=0
EXTRACT: note_on channel=5 note=31 velocity=100 time=0.14880833333333332
EXTRACT: note_off channel=6 note=65 velocity=100 time=0
EXTRACT: note_on channel=6 note=67 velocity=100 time=0
EXTRACT: note_on channel=9 note=35 velocity=127 time=0
EXTRACT: note_on channel=9 note=36 velocity=127 time=0
EXTRACT: note_on channel=9 note=54 velocity=127 time=0
EXTRACT: note_on channel=9 note=51 velocity=127 time=0
EXTRACT: note_off channel=5 note=31 velocity=100 time=0.022321249999999997
EXTRACT: note_off channel=9 note=51 velocity=127 time=0.0074404166666666655
EXTRACT: note_off channel=9 note=54 velocity=127 time=0
EXTRACT: note_off channel=9 note=36 velocity=127 time=0
EXTRACT: note_off channel=9 note=35 velocity=127 time=0
EXTRACT: note_on channel=9 note=54 velocity=127 time=0.14880833333333332
EXTRACT: note_off channel=9 note=54 velocity=127 time=0.029761666666666662
EXTRACT: note_off channel=1 note=67 velocity=100 time=0.14880833333333332
EXTRACT: note_off channel=1 note=59 velocity=100 time=0
EXTRACT: note_off channel=1 note=55 velocity=100 time=0
EXTRACT: note_off channel=1 note=50 velocity=100 time=0
EXTRACT: note_off channel=1 note=43 velocity=100 time=0
EXTRACT: note_on channel=1 note=43 velocity=100 time=0
EXTRACT: note_on channel=1 note=50 velocity=100 time=0
EXTRACT: note_on channel=1 note=55 velocity=100 time=0
EXTRACT: note_on channel=1 note=59 velocity=100 time=0
EXTRACT: note_on channel=1 note=67 velocity=100 time=0
EXTRACT: note_off channel=5 note=31 velocity=100 time=0
EXTRACT: note_on channel=5 note=31 velocity=100 time=0
EXTRACT: note_off channel=6 note=67 velocity=100 time=0
EXTRACT: note_on channel=6 note=65 velocity=100 time=0
EXTRACT: note_on channel=9 note=38 velocity=127 time=0
EXTRACT: note_on channel=9 note=54 velocity=127 time=0
EXTRACT: note_on channel=9 note=51 velocity=127 time=0
EXTRACT: note_off channel=9 note=51 velocity=127 time=0.029761666666666662
EXTRACT: note_off channel=9 note=54 velocity=127 time=0
EXTRACT: note_off channel=9 note=38 velocity=127 time=0
EXTRACT: note_on channel=9 note=54 velocity=127 time=0.14880833333333332
EXTRACT: note_off channel=9 note=54 velocity=127 time=0.029761666666666662
EXTRACT: note_off channel=1 note=67 velocity=100 time=0.14880833333333332
EXTRACT: note_off channel=1 note=59 velocity=100 time=0
EXTRACT: note_off channel=1 note=55 velocity=100 time=0
EXTRACT: note_off channel=1 note=50 velocity=100 time=0
EXTRACT: note_off channel=1 note=43 velocity=100 time=0
EXTRACT: note_on channel=1 note=43 velocity=100 time=0
EXTRACT: note_on channel=1 note=50 velocity=100 time=0
EXTRACT: note_on channel=1 note=55 velocity=100 time=0
EXTRACT: note_on channel=1 note=59 velocity=100 time=0
EXTRACT: note_on channel=1 note=67 velocity=100 time=0
EXTRACT: note_off channel=5 note=31 velocity=100 time=0
EXTRACT: note_on channel=5 note=31 velocity=100 time=0
EXTRACT: note_off channel=6 note=65 velocity=100 time=0
EXTRACT: note_on channel=6 note=64 velocity=100 time=0
EXTRACT: note_on channel=9 note=54 velocity=127 time=0
EXTRACT: note_on channel=9 note=51 velocity=127 time=0
EXTRACT: note_off channel=9 note=51 velocity=127 time=0.029761666666666662
EXTRACT: note_off channel=9 note=54 velocity=127 time=0
EXTRACT: note_off channel=5 note=31 velocity=100 time=0.14880833333333332
EXTRACT: note_on channel=5 note=32 velocity=100 time=0
EXTRACT: note_on channel=9 note=38 velocity=127 time=0
EXTRACT: note_on channel=9 note=54 velocity=127 time=0
EXTRACT: note_off channel=9 note=54 velocity=127 time=0.029761666666666662
EXTRACT: note_off channel=9 note=38 velocity=127 time=0
EXTRACT: note_on channel=9 note=38 velocity=127 time=0.029761666666666662
EXTRACT: note_off channel=9 note=38 velocity=127 time=0.029761666666666662
EXTRACT: note_off channel=1 note=67 velocity=100 time=0.08928499999999999
EXTRACT: note_off channel=1 note=59 velocity=100 time=0
EXTRACT: note_off channel=1 note=55 velocity=100 time=0
EXTRACT: note_off channel=1 note=50 velocity=100 time=0
EXTRACT: note_off channel=1 note=43 velocity=100 time=0
EXTRACT: note_on channel=1 note=45 velocity=100 time=0
EXTRACT: note_on channel=1 note=52 velocity=100 time=0
EXTRACT: note_on channel=1 note=57 velocity=100 time=0
EXTRACT: note_on channel=1 note=60 velocity=100 time=0
EXTRACT: note_on channel=1 note=64 velocity=100 time=0
EXTRACT: note_off channel=2 note=60 velocity=100 time=0
EXTRACT: note_off channel=5 note=32 velocity=100 time=0
EXTRACT: note_on channel=5 note=33 velocity=100 time=0
EXTRACT: note_on channel=9 note=35 velocity=127 time=0
EXTRACT: note_on channel=9 note=36 velocity=127 time=0
EXTRACT: note_on channel=9 note=54 velocity=127 time=0
EXTRACT: note_on channel=9 note=51 velocity=127 time=0
EXTRACT: note_off channel=9 note=51 velocity=127 time=0.029761666666666662
EXTRACT: note_off channel=9 note=54 velocity=127 time=0
EXTRACT: note_off channel=9 note=36 velocity=127 time=0
EXTRACT: note_off channel=9 note=35 velocity=127 time=0
EXTRACT: note_on channel=9 note=54 velocity=127 time=0.14880833333333332
EXTRACT: note_off channel=9 note=54 velocity=127 time=0.029761666666666662
EXTRACT: note_on channel=9 note=54 velocity=127 time=0.14880833333333332
EXTRACT: note_on channel=9 note=51 velocity=127 time=0
EXTRACT: note_off channel=9 note=51 velocity=127 time=0.029761666666666662
EXTRACT: note_off channel=9 note=54 velocity=127 time=0
EXTRACT: note_on channel=9 note=54 velocity=127 time=0.14880833333333332
EXTRACT: note_off channel=9 note=54 velocity=127 time=0.029761666666666662
EXTRACT: note_off channel=1 note=64 velocity=100 time=0.14880833333333332
EXTRACT: note_off channel=1 note=60 velocity=100 time=0
EXTRACT: note_off channel=1 note=57 velocity=100 time=0
EXTRACT: note_off channel=1 note=52 velocity=100 time=0
EXTRACT: note_off channel=1 note=45 velocity=100 time=0
EXTRACT: note_on channel=1 note=45 velocity=100 time=0
EXTRACT: note_on channel=1 note=52 velocity=100 time=0
EXTRACT: note_on channel=1 note=57 velocity=100 time=0
EXTRACT: note_on channel=1 note=60 velocity=100 time=0
EXTRACT: note_on channel=1 note=64 velocity=100 time=0
EXTRACT: note_off channel=5 note=33 velocity=100 time=0
EXTRACT: note_on channel=5 note=33 velocity=100 time=0
EXTRACT: note_off channel=6 note=64 velocity=100 time=0
EXTRACT: note_on channel=9 note=38 velocity=127 time=0
EXTRACT: note_on channel=9 note=54 velocity=127 time=0
EXTRACT: note_on channel=9 note=51 velocity=127 time=0
EXTRACT: note_off channel=9 note=51 velocity=127 time=0.029761666666666662
EXTRACT: note_off channel=9 note=54 velocity=127 time=0
EXTRACT: note_off channel=9 note=38 velocity=127 time=0
EXTRACT: note_on channel=9 note=54 velocity=127 time=0.14880833333333332
EXTRACT: note_off channel=9 note=54 velocity=127 time=0.029761666666666662
EXTRACT: note_off channel=1 note=64 velocity=100 time=0.14880833333333332
EXTRACT: note_off channel=1 note=60 velocity=100 time=0
EXTRACT: note_off channel=1 note=57 velocity=100 time=0
EXTRACT: note_off channel=1 note=52 velocity=100 time=0
EXTRACT: note_off channel=1 note=45 velocity=100 time=0
EXTRACT: note_on channel=1 note=45 velocity=100 time=0
EXTRACT: note_on channel=1 note=52 velocity=100 time=0
EXTRACT: note_on channel=1 note=57 velocity=100 time=0
EXTRACT: note_on channel=1 note=60 velocity=100 time=0
EXTRACT: note_on channel=1 note=64 velocity=100 time=0
EXTRACT: note_off channel=5 note=33 velocity=100 time=0
EXTRACT: note_on channel=5 note=31 velocity=100 time=0
EXTRACT: note_on channel=6 note=62 velocity=100 time=0
EXTRACT: note_on channel=9 note=54 velocity=127 time=0
EXTRACT: note_on channel=9 note=51 velocity=127 time=0
EXTRACT: note_off channel=9 note=51 velocity=127 time=0.029761666666666662
EXTRACT: note_off channel=9 note=54 velocity=127 time=0
EXTRACT: note_on channel=9 note=38 velocity=127 time=0.14880833333333332
EXTRACT: note_on channel=9 note=54 velocity=127 time=0
EXTRACT: note_off channel=9 note=54 velocity=127 time=0.029761666666666662
EXTRACT: note_off channel=9 note=38 velocity=127 time=0
EXTRACT: note_off channel=1 note=64 velocity=100 time=0.14880833333333332
EXTRACT: note_off channel=1 note=60 velocity=100 time=0
EXTRACT: note_off channel=1 note=57 velocity=100 time=0
EXTRACT: note_off channel=1 note=52 velocity=100 time=0
EXTRACT: note_off channel=1 note=45 velocity=100 time=0
EXTRACT: note_on channel=1 note=40 velocity=100 time=0
EXTRACT: note_on channel=1 note=47 velocity=100 time=0
EXTRACT: note_on channel=1 note=52 velocity=100 time=0
EXTRACT: note_on channel=1 note=56 velocity=100 time=0
EXTRACT: note_on channel=1 note=59 velocity=100 time=0
EXTRACT: note_on channel=1 note=64 velocity=100 time=0
EXTRACT: note_off channel=5 note=31 velocity=100 time=0
EXTRACT: note_on channel=5 note=28 velocity=100 time=0
EXTRACT: note_off channel=6 note=62 velocity=100 time=0
EXTRACT: note_on channel=6 note=62 velocity=100 time=0
EXTRACT: note_on channel=9 note=35 velocity=127 time=0
EXTRACT: note_on channel=9 note=36 velocity=127 time=0
EXTRACT: note_on channel=9 note=54 velocity=127 time=0
EXTRACT: note_on channel=9 note=51 velocity=127 time=0
EXTRACT: note_off channel=9 note=51 velocity=127 time=0.029761666666666662
EXTRACT: note_off channel=9 note=54 velocity=127 time=0
EXTRACT: note_off channel=9 note=36 velocity=127 time=0
EXTRACT: note_off channel=9 note=35 velocity=127 time=0
EXTRACT: note_on channel=9 note=38 velocity=127 time=0.14880833333333332
EXTRACT: note_on channel=9 note=54 velocity=127 time=0
EXTRACT: note_off channel=9 note=54 velocity=127 time=0.029761666666666662
EXTRACT: note_off channel=9 note=38 velocity=127 time=0
EXTRACT: note_off channel=5 note=28 velocity=100 time=0.14880833333333332
EXTRACT: note_on channel=5 note=28 velocity=100 time=0
EXTRACT: note_off channel=6 note=62 velocity=100 time=0
EXTRACT: note_on channel=6 note=64 velocity=100 time=0
EXTRACT: note_on channel=9 note=36 velocity=127 time=0
EXTRACT: note_on channel=9 note=54 velocity=127 time=0
EXTRACT: note_on channel=9 note=51 velocity=127 time=0
EXTRACT: note_off channel=9 note=51 velocity=127 time=0.029761666666666662
EXTRACT: note_off channel=9 note=54 velocity=127 time=0
EXTRACT: note_off channel=9 note=36 velocity=127 time=0
EXTRACT: note_on channel=9 note=35 velocity=127 time=0.14880833333333332
EXTRACT: note_on channel=9 note=54 velocity=127 time=0
EXTRACT: note_off channel=9 note=54 velocity=127 time=0.029761666666666662
EXTRACT: note_off channel=9 note=35 velocity=127 time=0
EXTRACT: note_on channel=6 note=62 velocity=100 time=0.059523333333333324
EXTRACT: note_off channel=1 note=64 velocity=100 time=0.08928499999999999
EXTRACT: note_off channel=1 note=59 velocity=100 time=0
EXTRACT: note_off channel=1 note=56 velocity=100 time=0
EXTRACT: note_off channel=1 note=52 velocity=100 time=0
EXTRACT: note_off channel=1 note=47 velocity=100 time=0
EXTRACT: note_off channel=1 note=40 velocity=100 time=0
EXTRACT: note_on channel=1 note=56 velocity=100 time=0
EXTRACT: note_on channel=1 note=40 velocity=100 time=0
EXTRACT: note_on channel=1 note=47 velocity=100 time=0
EXTRACT: note_on channel=1 note=52 velocity=100 time=0
EXTRACT: note_on channel=1 note=59 velocity=100 time=0
EXTRACT: note_on channel=1 note=64 velocity=100 time=0
EXTRACT: note_off channel=5 note=28 velocity=100 time=0
EXTRACT: note_on channel=5 note=28 velocity=100 time=0
EXTRACT: note_off channel=6 note=62 velocity=100 time=0
EXTRACT: note_off channel=6 note=64 velocity=100 time=0
EXTRACT: note_on channel=6 note=60 velocity=100 time=0
EXTRACT: note_on channel=9 note=38 velocity=127 time=0
EXTRACT: note_on channel=9 note=54 velocity=127 time=0
EXTRACT: note_on channel=9 note=51 velocity=127 time=0
EXTRACT: note_off channel=9 note=51 velocity=127 time=0.029761666666666662
EXTRACT: note_off channel=9 note=54 velocity=127 time=0
EXTRACT: note_off channel=9 note=38 velocity=127 time=0
EXTRACT: note_on channel=9 note=54 velocity=127 time=0.14880833333333332
EXTRACT: note_off channel=9 note=54 velocity=127 time=0.029761666666666662
EXTRACT: note_off channel=1 note=64 velocity=100 time=0.14880833333333332
EXTRACT: note_off channel=1 note=59 velocity=100 time=0
EXTRACT: note_off channel=1 note=52 velocity=100 time=0
EXTRACT: note_off channel=1 note=47 velocity=100 time=0
EXTRACT: note_off channel=1 note=40 velocity=100 time=0
EXTRACT: note_off channel=1 note=56 velocity=100 time=0
EXTRACT: note_on channel=1 note=56 velocity=100 time=0
EXTRACT: note_on channel=1 note=40 velocity=100 time=0
EXTRACT: note_on channel=1 note=47 velocity=100 time=0
EXTRACT: note_on channel=1 note=52 velocity=100 time=0
EXTRACT: note_on channel=1 note=59 velocity=100 time=0
EXTRACT: note_on channel=1 note=64 velocity=100 time=0
EXTRACT: note_off channel=5 note=28 velocity=100 time=0
EXTRACT: note_on channel=5 note=28 velocity=100 time=0
EXTRACT: note_off channel=6 note=60 velocity=100 time=0
EXTRACT: note_on channel=6 note=60 velocity=100 time=0
EXTRACT: note_on channel=9 note=54 velocity=127 time=0
EXTRACT: note_on channel=9 note=51 velocity=127 time=0
EXTRACT: note_off channel=9 note=51 velocity=127 time=0.029761666666666662
EXTRACT: note_off channel=9 note=54 velocity=127 time=0
EXTRACT: note_off channel=5 note=28 velocity=100 time=0.14880833333333332
EXTRACT: note_on channel=5 note=28 velocity=100 time=0
EXTRACT: note_on channel=9 note=38 velocity=127 time=0
EXTRACT: note_on channel=9 note=54 velocity=127 time=0
EXTRACT: note_off channel=9 note=54 velocity=127 time=0.029761666666666662
EXTRACT: note_off channel=9 note=38 velocity=127 time=0
EXTRACT: note_on channel=9 note=38 velocity=127 time=0.029761666666666662
EXTRACT: note_off channel=9 note=38 velocity=127 time=0.029761666666666662
EXTRACT: note_off channel=1 note=64 velocity=100 time=0.08928499999999999
EXTRACT: note_off channel=1 note=59 velocity=100 time=0
EXTRACT: note_off channel=1 note=52 velocity=100 time=0
EXTRACT: note_off channel=1 note=47 velocity=100 time=0
EXTRACT: note_off channel=1 note=40 velocity=100 time=0
EXTRACT: note_off channel=1 note=56 velocity=100 time=0
EXTRACT: note_on channel=1 note=41 velocity=100 time=0
EXTRACT: note_on channel=1 note=48 velocity=100 time=0
EXTRACT: note_on channel=1 note=53 velocity=100 time=0
EXTRACT: note_on channel=1 note=57 velocity=100 time=0
EXTRACT: note_on channel=1 note=60 velocity=100 time=0
EXTRACT: note_off channel=5 note=28 velocity=100 time=0
EXTRACT: note_on channel=5 note=29 velocity=100 time=0
EXTRACT: note_on channel=9 note=35 velocity=127 time=0
EXTRACT: note_on channel=9 note=36 velocity=127 time=0
EXTRACT: note_on channel=9 note=54 velocity=127 time=0
EXTRACT: note_on channel=9 note=51 velocity=127 time=0
EXTRACT: note_off channel=9 note=51 velocity=127 time=0.029761666666666662
EXTRACT: note_off channel=9 note=54 velocity=127 time=0
EXTRACT: note_off channel=9 note=36 velocity=127 time=0
EXTRACT: note_off channel=9 note=35 velocity=127 time=0
EXTRACT: note_on channel=9 note=54 velocity=127 time=0.14880833333333332
EXTRACT: note_off channel=9 note=54 velocity=127 time=0.029761666666666662
EXTRACT: note_off channel=5 note=29 velocity=100 time=0.14880833333333332
EXTRACT: note_on channel=5 note=29 velocity=100 time=0
EXTRACT: note_off channel=6 note=60 velocity=100 time=0
EXTRACT: note_on channel=6 note=62 velocity=100 time=0
EXTRACT: note_on channel=9 note=54 velocity=127 time=0
EXTRACT: note_on channel=9 note=51 velocity=127 time=0
EXTRACT: note_off channel=9 note=51 velocity=127 time=0.029761666666666662
EXTRACT: note_off channel=9 note=54 velocity=127 time=0
EXTRACT: note_on channel=9 note=54 velocity=127 time=0.14880833333333332
EXTRACT: note_off channel=9 note=54 velocity=127 time=0.029761666666666662
EXTRACT: note_off channel=1 note=60 velocity=100 time=0.14880833333333332
EXTRACT: note_off channel=1 note=57 velocity=100 time=0
EXTRACT: note_off channel=1 note=53 velocity=100 time=0
EXTRACT: note_off channel=1 note=48 velocity=100 time=0
EXTRACT: note_off channel=1 note=41 velocity=100 time=0
EXTRACT: note_on channel=1 note=41 velocity=100 time=0
EXTRACT: note_on channel=1 note=48 velocity=100 time=0
EXTRACT: note_on channel=1 note=53 velocity=100 time=0
EXTRACT: note_on channel=1 note=57 velocity=100 time=0
EXTRACT: note_on channel=1 note=60 velocity=100 time=0
EXTRACT: note_off channel=5 note=29 velocity=100 time=0
EXTRACT: note_on channel=5 note=29 velocity=100 time=0
EXTRACT: note_off channel=6 note=62 velocity=100 time=0
EXTRACT: note_on channel=6 note=64 velocity=100 time=0
EXTRACT: note_on channel=9 note=38 velocity=127 time=0
EXTRACT: note_on channel=9 note=54 velocity=127 time=0
EXTRACT: note_on channel=9 note=51 velocity=127 time=0
EXTRACT: note_off channel=9 note=51 velocity=127 time=0.029761666666666662
EXTRACT: note_off channel=9 note=54 velocity=127 time=0
EXTRACT: note_off channel=9 note=38 velocity=127 time=0
EXTRACT: note_on channel=9 note=54 velocity=127 time=0.14880833333333332
EXTRACT: note_off channel=9 note=54 velocity=127 time=0.029761666666666662
EXTRACT: note_off channel=1 note=60 velocity=100 time=0.14880833333333332
EXTRACT: note_off channel=1 note=57 velocity=100 time=0
EXTRACT: note_off channel=1 note=53 velocity=100 time=0
EXTRACT: note_off channel=1 note=48 velocity=100 time=0
EXTRACT: note_off channel=1 note=41 velocity=100 time=0
EXTRACT: note_on channel=1 note=41 velocity=100 time=0
EXTRACT: note_on channel=1 note=48 velocity=100 time=0
EXTRACT: note_on channel=1 note=53 velocity=100 time=0
EXTRACT: note_on channel=1 note=57 velocity=100 time=0
EXTRACT: note_on channel=1 note=60 velocity=100 time=0
EXTRACT: note_off channel=5 note=29 velocity=100 time=0
EXTRACT: note_on channel=5 note=30 velocity=100 time=0
EXTRACT: note_off channel=6 note=64 velocity=100 time=0
EXTRACT: note_on channel=6 note=62 velocity=100 time=0
EXTRACT: note_on channel=9 note=54 velocity=127 time=0
EXTRACT: note_on channel=9 note=51 velocity=127 time=0
EXTRACT: note_off channel=9 note=51 velocity=127 time=0.029761666666666662
EXTRACT: note_off channel=9 note=54 velocity=127 time=0
EXTRACT: note_on channel=9 note=38 velocity=127 time=0.14880833333333332
EXTRACT: note_on channel=9 note=54 velocity=127 time=0
EXTRACT: note_off channel=9 note=54 velocity=127 time=0.029761666666666662
EXTRACT: note_off channel=9 note=38 velocity=127 time=0
EXTRACT: note_off channel=1 note=60 velocity=100 time=0.14880833333333332
EXTRACT: note_off channel=1 note=57 velocity=100 time=0
EXTRACT: note_off channel=1 note=53 velocity=100 time=0
EXTRACT: note_off channel=1 note=48 velocity=100 time=0
EXTRACT: note_off channel=1 note=41 velocity=100 time=0
EXTRACT: note_on channel=1 note=43 velocity=100 time=0
EXTRACT: note_on channel=1 note=50 velocity=100 time=0
EXTRACT: note_on channel=1 note=55 velocity=100 time=0
EXTRACT: note_on channel=1 note=59 velocity=100 time=0
EXTRACT: note_on channel=1 note=62 velocity=100 time=0
EXTRACT: note_off channel=5 note=30 velocity=100 time=0
EXTRACT: note_on channel=5 note=31 velocity=100 time=0
EXTRACT: note_on channel=9 note=35 velocity=127 time=0
EXTRACT: note_on channel=9 note=36 velocity=127 time=0
EXTRACT: note_on channel=9 note=54 velocity=127 time=0
EXTRACT: note_on channel=9 note=51 velocity=127 time=0
EXTRACT: note_off channel=9 note=51 velocity=127 time=0.029761666666666662
EXTRACT: note_off channel=9 note=54 velocity=127 time=0
EXTRACT: note_off channel=9 note=36 velocity=127 time=0
EXTRACT: note_off channel=9 note=35 velocity=127 time=0
EXTRACT: note_on channel=9 note=38 velocity=127 time=0.14880833333333332
EXTRACT: note_on channel=9 note=54 velocity=127 time=0
EXTRACT: note_off channel=9 note=54 velocity=127 time=0.029761666666666662
EXTRACT: note_off channel=9 note=38 velocity=127 time=0
EXTRACT: note_off channel=1 note=62 velocity=100 time=0.14880833333333332
EXTRACT: note_off channel=1 note=59 velocity=100 time=0
EXTRACT: note_off channel=1 note=55 velocity=100 time=0
EXTRACT: note_off channel=1 note=50 velocity=100 time=0
EXTRACT: note_off channel=1 note=43 velocity=100 time=0
EXTRACT: note_on channel=1 note=43 velocity=100 time=0
EXTRACT: note_on channel=1 note=50 velocity=100 time=0
EXTRACT: note_on channel=1 note=55 velocity=100 time=0
EXTRACT: note_on channel=1 note=59 velocity=100 time=0
EXTRACT: note_on channel=1 note=62 velocity=100 time=0
EXTRACT: note_off channel=5 note=31 velocity=100 time=0
EXTRACT: note_on channel=5 note=31 velocity=100 time=0
EXTRACT: note_off channel=6 note=62 velocity=100 time=0
EXTRACT: note_on channel=6 note=60 velocity=100 time=0
EXTRACT: note_on channel=9 note=35 velocity=127 time=0
EXTRACT: note_on channel=9 note=36 velocity=127 time=0
EXTRACT: note_on channel=9 note=54 velocity=127 time=0
EXTRACT: note_on channel=9 note=51 velocity=127 time=0
EXTRACT: note_off channel=9 note=51 velocity=127 time=0.029761666666666662
EXTRACT: note_off channel=9 note=54 velocity=127 time=0
EXTRACT: note_off channel=9 note=36 velocity=127 time=0
EXTRACT: note_off channel=9 note=35 velocity=127 time=0
EXTRACT: note_off channel=6 note=60 velocity=100 time=0.14880833333333332
EXTRACT: note_on channel=6 note=64 velocity=100 time=0
EXTRACT: note_on channel=9 note=54 velocity=127 time=0
EXTRACT: note_off channel=9 note=54 velocity=127 time=0.029761666666666662
EXTRACT: note_off channel=1 note=62 velocity=100 time=0.14880833333333332
EXTRACT: note_off channel=1 note=59 velocity=100 time=0
EXTRACT: note_off channel=1 note=55 velocity=100 time=0
EXTRACT: note_off channel=1 note=50 velocity=100 time=0
EXTRACT: note_off channel=1 note=43 velocity=100 time=0
EXTRACT: note_on channel=1 note=43 velocity=100 time=0
EXTRACT: note_on channel=1 note=50 velocity=100 time=0
EXTRACT: note_on channel=1 note=55 velocity=100 time=0
EXTRACT: note_on channel=1 note=59 velocity=100 time=0
EXTRACT: note_on channel=1 note=62 velocity=100 time=0
EXTRACT: note_off channel=5 note=31 velocity=100 time=0
EXTRACT: note_on channel=5 note=31 velocity=100 time=0
EXTRACT: note_on channel=9 note=38 velocity=127 time=0
EXTRACT: note_on channel=9 note=54 velocity=127 time=0
EXTRACT: note_on channel=9 note=51 velocity=127 time=0
EXTRACT: note_off channel=9 note=51 velocity=127 time=0.029761666666666662
EXTRACT: note_off channel=9 note=54 velocity=127 time=0
EXTRACT: note_off channel=9 note=38 velocity=127 time=0
EXTRACT: note_on channel=9 note=54 velocity=127 time=0.14880833333333332
EXTRACT: note_off channel=9 note=54 velocity=127 time=0.029761666666666662
EXTRACT: note_off channel=1 note=62 velocity=100 time=0.14880833333333332
EXTRACT: note_off channel=1 note=59 velocity=100 time=0
EXTRACT: note_off channel=1 note=55 velocity=100 time=0
EXTRACT: note_off channel=1 note=50 velocity=100 time=0
EXTRACT: note_off channel=1 note=43 velocity=100 time=0
EXTRACT: note_on channel=1 note=43 velocity=100 time=0
EXTRACT: note_on channel=1 note=50 velocity=100 time=0
EXTRACT: note_on channel=1 note=55 velocity=100 time=0
EXTRACT: note_on channel=1 note=59 velocity=100 time=0
EXTRACT: note_on channel=1 note=62 velocity=100 time=0
EXTRACT: note_off channel=5 note=31 velocity=100 time=0
EXTRACT: note_on channel=5 note=35 velocity=100 time=0
EXTRACT: note_off channel=6 note=64 velocity=100 time=0
EXTRACT: note_on channel=6 note=60 velocity=100 time=0
EXTRACT: note_on channel=9 note=54 velocity=127 time=0
EXTRACT: note_on channel=9 note=51 velocity=127 time=0
EXTRACT: note_off channel=9 note=51 velocity=127 time=0.029761666666666662
EXTRACT: note_off channel=9 note=54 velocity=127 time=0
EXTRACT: note_on channel=9 note=38 velocity=127 time=0.14880833333333332
EXTRACT: note_on channel=9 note=54 velocity=127 time=0
EXTRACT: note_off channel=9 note=54 velocity=127 time=0.029761666666666662
EXTRACT: note_off channel=9 note=38 velocity=127 time=0
EXTRACT: note_off channel=1 note=62 velocity=100 time=0.14880833333333332
EXTRACT: note_off channel=1 note=59 velocity=100 time=0
EXTRACT: note_off channel=1 note=55 velocity=100 time=0
EXTRACT: note_off channel=1 note=50 velocity=100 time=0
EXTRACT: note_off channel=1 note=43 velocity=100 time=0
EXTRACT: note_on channel=1 note=48 velocity=100 time=0
EXTRACT: note_on channel=1 note=52 velocity=100 time=0
EXTRACT: note_on channel=1 note=55 velocity=100 time=0
EXTRACT: note_on channel=1 note=60 velocity=100 time=0
EXTRACT: note_on channel=1 note=64 velocity=100 time=0
EXTRACT: note_off channel=5 note=35 velocity=100 time=0
EXTRACT: note_on channel=5 note=36 velocity=100 time=0
EXTRACT: note_on channel=9 note=35 velocity=127 time=0
EXTRACT: note_on channel=9 note=36 velocity=127 time=0
EXTRACT: note_on channel=9 note=54 velocity=127 time=0
EXTRACT: note_on channel=9 note=51 velocity=127 time=0
EXTRACT: note_off channel=9 note=51 velocity=127 time=0.029761666666666662
EXTRACT: note_off channel=9 note=54 velocity=127 time=0
EXTRACT: note_off channel=9 note=36 velocity=127 time=0
EXTRACT: note_off channel=9 note=35 velocity=127 time=0
EXTRACT: note_off channel=6 note=60 velocity=100 time=0.14880833333333332
EXTRACT: note_on channel=6 note=57 velocity=100 time=0
EXTRACT: note_on channel=9 note=38 velocity=127 time=0
EXTRACT: note_on channel=9 note=54 velocity=127 time=0
EXTRACT: note_off channel=9 note=54 velocity=127 time=0.029761666666666662
EXTRACT: note_off channel=9 note=38 velocity=127 time=0
EXTRACT: note_off channel=6 note=57 velocity=100 time=0.14880833333333332
EXTRACT: note_on channel=6 note=55 velocity=100 time=0
EXTRACT: note_on channel=9 note=35 velocity=127 time=0
EXTRACT: note_on channel=9 note=36 velocity=127 time=0
EXTRACT: note_on channel=9 note=54 velocity=127 time=0
EXTRACT: note_on channel=9 note=51 velocity=127 time=0
EXTRACT: note_off channel=9 note=51 velocity=127 time=0.029761666666666662
EXTRACT: note_off channel=9 note=54 velocity=127 time=0
EXTRACT: note_off channel=9 note=36 velocity=127 time=0
EXTRACT: note_off channel=9 note=35 velocity=127 time=0
EXTRACT: note_on channel=9 note=54 velocity=127 time=0.14880833333333332
EXTRACT: note_off channel=9 note=54 velocity=127 time=0.029761666666666662
EXTRACT: note_off channel=1 note=64 velocity=100 time=0.14880833333333332
EXTRACT: note_off channel=1 note=60 velocity=100 time=0
EXTRACT: note_off channel=1 note=55 velocity=100 time=0
EXTRACT: note_off channel=1 note=52 velocity=100 time=0
EXTRACT: note_off channel=1 note=48 velocity=100 time=0
EXTRACT: note_on channel=1 note=48 velocity=100 time=0
EXTRACT: note_on channel=1 note=52 velocity=100 time=0
EXTRACT: note_on channel=1 note=55 velocity=100 time=0
EXTRACT: note_on channel=1 note=60 velocity=100 time=0
EXTRACT: note_on channel=1 note=64 velocity=100 time=0
EXTRACT: note_off channel=5 note=36 velocity=100 time=0
EXTRACT: note_on channel=5 note=36 velocity=100 time=0
EXTRACT: note_off channel=6 note=55 velocity=100 time=0
EXTRACT: note_on channel=9 note=38 velocity=127 time=0
EXTRACT: note_on channel=9 note=54 velocity=127 time=0
EXTRACT: note_on channel=9 note=51 velocity=127 time=0
EXTRACT: note_off channel=9 note=51 velocity=127 time=0.029761666666666662
EXTRACT: note_off channel=9 note=54 velocity=127 time=0
EXTRACT: note_off channel=9 note=38 velocity=127 time=0
EXTRACT: note_on channel=9 note=54 velocity=127 time=0.14880833333333332
EXTRACT: note_off channel=9 note=54 velocity=127 time=0.029761666666666662
EXTRACT: note_off channel=1 note=64 velocity=100 time=0.14880833333333332
EXTRACT: note_off channel=1 note=60 velocity=100 time=0
EXTRACT: note_off channel=1 note=55 velocity=100 time=0
EXTRACT: note_off channel=1 note=52 velocity=100 time=0
EXTRACT: note_off channel=1 note=48 velocity=100 time=0
EXTRACT: note_on channel=1 note=48 velocity=100 time=0
EXTRACT: note_on channel=1 note=52 velocity=100 time=0
EXTRACT: note_on channel=1 note=55 velocity=100 time=0
EXTRACT: note_on channel=1 note=60 velocity=100 time=0
EXTRACT: note_on channel=1 note=64 velocity=100 time=0
EXTRACT: note_off channel=5 note=36 velocity=100 time=0
EXTRACT: note_on channel=5 note=36 velocity=100 time=0
EXTRACT: note_on channel=9 note=54 velocity=127 time=0
EXTRACT: note_on channel=9 note=51 velocity=127 time=0
EXTRACT: note_off channel=9 note=51 velocity=127 time=0.029761666666666662
EXTRACT: note_off channel=9 note=54 velocity=127 time=0
EXTRACT: note_on channel=9 note=38 velocity=127 time=0.14880833333333332
EXTRACT: note_on channel=9 note=54 velocity=127 time=0
EXTRACT: note_off channel=9 note=54 velocity=127 time=0.029761666666666662
EXTRACT: note_off channel=9 note=38 velocity=127 time=0
EXTRACT: note_off channel=1 note=64 velocity=100 time=0.14880833333333332
EXTRACT: note_off channel=1 note=60 velocity=100 time=0
EXTRACT: note_off channel=1 note=55 velocity=100 time=0
EXTRACT: note_off channel=1 note=52 velocity=100 time=0
EXTRACT: note_off channel=1 note=48 velocity=100 time=0
EXTRACT: note_on channel=1 note=45 velocity=100 time=0
EXTRACT: note_on channel=1 note=52 velocity=100 time=0
EXTRACT: note_on channel=1 note=57 velocity=100 time=0
EXTRACT: note_on channel=1 note=60 velocity=100 time=0
EXTRACT: note_on channel=1 note=64 velocity=100 time=0
EXTRACT: note_off channel=5 note=36 velocity=100 time=0
EXTRACT: note_on channel=5 note=33 velocity=100 time=0
EXTRACT: note_on channel=9 note=35 velocity=127 time=0
EXTRACT: note_on channel=9 note=36 velocity=127 time=0
EXTRACT: note_on channel=9 note=54 velocity=127 time=0
EXTRACT: note_on channel=9 note=51 velocity=127 time=0
EXTRACT: note_off channel=9 note=51 velocity=127 time=0.029761666666666662
EXTRACT: note_off channel=9 note=54 velocity=127 time=0
EXTRACT: note_off channel=9 note=36 velocity=127 time=0
EXTRACT: note_off channel=9 note=35 velocity=127 time=0
EXTRACT: note_on channel=9 note=38 velocity=127 time=0.14880833333333332
EXTRACT: note_on channel=9 note=54 velocity=127 time=0
EXTRACT: note_off channel=9 note=54 velocity=127 time=0.029761666666666662
EXTRACT: note_off channel=9 note=38 velocity=127 time=0
EXTRACT: note_off channel=1 note=64 velocity=100 time=0.14880833333333332
EXTRACT: note_off channel=1 note=60 velocity=100 time=0
EXTRACT: note_off channel=1 note=57 velocity=100 time=0
EXTRACT: note_off channel=1 note=52 velocity=100 time=0
EXTRACT: note_off channel=1 note=45 velocity=100 time=0
EXTRACT: note_on channel=1 note=45 velocity=100 time=0
EXTRACT: note_on channel=1 note=52 velocity=100 time=0
EXTRACT: note_on channel=1 note=57 velocity=100 time=0
EXTRACT: note_on channel=1 note=60 velocity=100 time=0
EXTRACT: note_on channel=1 note=64 velocity=100 time=0
EXTRACT: note_off channel=5 note=33 velocity=100 time=0
EXTRACT: note_on channel=5 note=33 velocity=100 time=0
EXTRACT: note_on channel=9 note=38 velocity=127 time=0
EXTRACT: note_on channel=9 note=54 velocity=127 time=0
EXTRACT: note_off channel=9 note=54 velocity=127 time=0.029761666666666662
EXTRACT: note_off channel=9 note=38 velocity=127 time=0
EXTRACT: note_off channel=1 note=64 velocity=100 time=0.14880833333333332
EXTRACT: note_off channel=1 note=60 velocity=100 time=0
EXTRACT: note_off channel=1 note=57 velocity=100 time=0
EXTRACT: note_off channel=1 note=52 velocity=100 time=0
EXTRACT: note_off channel=1 note=45 velocity=100 time=0
EXTRACT: note_on channel=1 note=45 velocity=100 time=0
EXTRACT: note_on channel=1 note=52 velocity=100 time=0
EXTRACT: note_on channel=1 note=57 velocity=100 time=0
EXTRACT: note_on channel=1 note=60 velocity=100 time=0
EXTRACT: note_on channel=1 note=64 velocity=100 time=0
EXTRACT: note_on channel=9 note=45 velocity=127 time=0
EXTRACT: note_on channel=9 note=54 velocity=127 time=0
EXTRACT: note_off channel=9 note=54 velocity=127 time=0.029761666666666662
EXTRACT: note_off channel=9 note=45 velocity=127 time=0
EXTRACT: note_off channel=1 note=64 velocity=100 time=0.14880833333333332
EXTRACT: note_off channel=1 note=60 velocity=100 time=0
EXTRACT: note_off channel=1 note=57 velocity=100 time=0
EXTRACT: note_off channel=1 note=52 velocity=100 time=0
EXTRACT: note_off channel=1 note=45 velocity=100 time=0
EXTRACT: note_on channel=1 note=43 velocity=100 time=0
EXTRACT: note_on channel=1 note=50 velocity=100 time=0
EXTRACT: note_on channel=1 note=55 velocity=100 time=0
EXTRACT: note_on channel=1 note=59 velocity=100 time=0
EXTRACT: note_on channel=1 note=67 velocity=100 time=0
EXTRACT: note_off channel=5 note=33 velocity=100 time=0
EXTRACT: note_on channel=5 note=31 velocity=100 time=0
EXTRACT: note_on channel=9 note=43 velocity=127 time=0
EXTRACT: note_on channel=9 note=54 velocity=127 time=0
EXTRACT: note_off channel=9 note=54 velocity=127 time=0.029761666666666662
EXTRACT: note_off channel=9 note=43 velocity=127 time=0
EXTRACT: note_on channel=9 note=43 velocity=127 time=0.14880833333333332
EXTRACT: note_on channel=9 note=54 velocity=127 time=0
EXTRACT: note_off channel=9 note=54 velocity=127 time=0.029761666666666662
EXTRACT: note_off channel=9 note=43 velocity=127 time=0
EXTRACT: note_off channel=1 note=67 velocity=100 time=0.14880833333333332
EXTRACT: note_off channel=1 note=59 velocity=100 time=0
EXTRACT: note_off channel=1 note=55 velocity=100 time=0
EXTRACT: note_off channel=1 note=50 velocity=100 time=0
EXTRACT: note_off channel=1 note=43 velocity=100 time=0
EXTRACT: note_on channel=1 note=43 velocity=100 time=0
EXTRACT: note_on channel=1 note=50 velocity=100 time=0
EXTRACT: note_on channel=1 note=55 velocity=100 time=0
EXTRACT: note_on channel=1 note=59 velocity=100 time=0
EXTRACT: note_on channel=1 note=67 velocity=100 time=0
EXTRACT: note_off channel=5 note=31 velocity=100 time=0
EXTRACT: note_on channel=5 note=35 velocity=100 time=0
EXTRACT: note_on channel=6 note=55 velocity=100 time=0
EXTRACT: note_on channel=9 note=43 velocity=127 time=0
EXTRACT: note_on channel=9 note=54 velocity=127 time=0
EXTRACT: note_off channel=9 note=54 velocity=127 time=0.029761666666666662
EXTRACT: note_off channel=9 note=43 velocity=127 time=0
EXTRACT: note_on channel=9 note=45 velocity=127 time=0.14880833333333332
EXTRACT: note_on channel=9 note=41 velocity=127 time=0
EXTRACT: note_on channel=9 note=54 velocity=127 time=0
EXTRACT: note_off channel=9 note=54 velocity=127 time=0.029761666666666662
EXTRACT: note_off channel=9 note=41 velocity=127 time=0
EXTRACT: note_off channel=9 note=45 velocity=127 time=0
EXTRACT: note_off channel=1 note=67 velocity=100 time=0.14880833333333332
EXTRACT: note_off channel=1 note=59 velocity=100 time=0
EXTRACT: note_off channel=1 note=55 velocity=100 time=0
EXTRACT: note_off channel=1 note=50 velocity=100 time=0
EXTRACT: note_off channel=1 note=43 velocity=100 time=0
EXTRACT: note_on channel=1 note=48 velocity=100 time=0
EXTRACT: note_on channel=1 note=52 velocity=100 time=0
EXTRACT: note_on channel=1 note=55 velocity=100 time=0
EXTRACT: note_on channel=1 note=60 velocity=100 time=0
EXTRACT: note_on channel=1 note=64 velocity=100 time=0
EXTRACT: note_off channel=5 note=35 velocity=100 time=0
EXTRACT: note_on channel=5 note=36 velocity=100 time=0
EXTRACT: note_off channel=6 note=55 velocity=100 time=0
EXTRACT: note_on channel=6 note=67 velocity=100 time=0
EXTRACT: note_on channel=9 note=35 velocity=127 time=0
EXTRACT: note_on channel=9 note=36 velocity=127 time=0
EXTRACT: note_on channel=9 note=54 velocity=127 time=0
EXTRACT: note_on channel=9 note=49 velocity=127 time=0
EXTRACT: note_off channel=9 note=49 velocity=127 time=0.029761666666666662
EXTRACT: note_off channel=9 note=54 velocity=127 time=0
EXTRACT: note_off channel=9 note=36 velocity=127 time=0
EXTRACT: note_off channel=9 note=35 velocity=127 time=0
EXTRACT: note_on channel=9 note=54 velocity=127 time=0.14880833333333332
EXTRACT: note_off channel=9 note=54 velocity=127 time=0.029761666666666662
EXTRACT: note_on channel=9 note=54 velocity=127 time=0.14880833333333332
EXTRACT: note_on channel=9 note=51 velocity=127 time=0
EXTRACT: note_off channel=9 note=51 velocity=127 time=0.029761666666666662
EXTRACT: note_off channel=9 note=54 velocity=127 time=0
EXTRACT: note_on channel=9 note=54 velocity=127 time=0.14880833333333332
EXTRACT: note_off channel=9 note=54 velocity=127 time=0.029761666666666662
EXTRACT: note_on channel=5 note=36 velocity=100 time=0.10602593749999999
EXTRACT: note_off channel=1 note=64 velocity=100 time=0.04278239583333333
EXTRACT: note_off channel=1 note=60 velocity=100 time=0
EXTRACT: note_off channel=1 note=55 velocity=100 time=0
EXTRACT: note_off channel=1 note=52 velocity=100 time=0
EXTRACT: note_off channel=1 note=48 velocity=100 time=0
EXTRACT: note_on channel=1 note=48 velocity=100 time=0
EXTRACT: note_on channel=1 note=52 velocity=100 time=0
EXTRACT: note_on channel=1 note=55 velocity=100 time=0
EXTRACT: note_on channel=1 note=60 velocity=100 time=0
EXTRACT: note_on channel=1 note=64 velocity=100 time=0
EXTRACT: note_off channel=5 note=36 velocity=100 time=0
EXTRACT: note_on channel=9 note=38 velocity=127 time=0
EXTRACT: note_on channel=9 note=54 velocity=127 time=0
EXTRACT: note_on channel=9 note=51 velocity=127 time=0
EXTRACT: note_off channel=9 note=51 velocity=127 time=0.029761666666666662
EXTRACT: note_off channel=9 note=54 velocity=127 time=0
EXTRACT: note_off channel=9 note=38 velocity=127 time=0
EXTRACT: note_on channel=9 note=54 velocity=127 time=0.14880833333333332
EXTRACT: note_off channel=9 note=54 velocity=127 time=0.029761666666666662
EXTRACT: note_off channel=5 note=36 velocity=100 time=0.10602593749999999
EXTRACT: note_off channel=1 note=64 velocity=100 time=0.04278239583333333
EXTRACT: note_off channel=1 note=60 velocity=100 time=0
EXTRACT: note_off channel=1 note=55 velocity=100 time=0
EXTRACT: note_off channel=1 note=52 velocity=100 time=0
EXTRACT: note_off channel=1 note=48 velocity=100 time=0
EXTRACT: note_on channel=1 note=48 velocity=100 time=0
EXTRACT: note_on channel=1 note=52 velocity=100 time=0
EXTRACT: note_on channel=1 note=55 velocity=100 time=0
EXTRACT: note_on channel=1 note=60 velocity=100 time=0
EXTRACT: note_on channel=1 note=64 velocity=100 time=0
EXTRACT: note_on channel=9 note=54 velocity=127 time=0
EXTRACT: note_on channel=9 note=51 velocity=127 time=0
EXTRACT: note_on channel=5 note=35 velocity=100 time=0.022321249999999997
EXTRACT: note_off channel=9 note=51 velocity=127 time=0.0074404166666666655
EXTRACT: note_off channel=9 note=54 velocity=127 time=0
EXTRACT: note_on channel=9 note=38 velocity=127 time=0.14880833333333332
EXTRACT: note_on channel=9 note=54 velocity=127 time=0
EXTRACT: note_off channel=9 note=54 velocity=127 time=0.029761666666666662
EXTRACT: note_off channel=9 note=38 velocity=127 time=0
EXTRACT: note_off channel=1 note=64 velocity=100 time=0.14880833333333332
EXTRACT: note_off channel=1 note=60 velocity=100 time=0
EXTRACT: note_off channel=1 note=55 velocity=100 time=0
EXTRACT: note_off channel=1 note=52 velocity=100 time=0
EXTRACT: note_off channel=1 note=48 velocity=100 time=0
EXTRACT: note_on channel=1 note=43 velocity=100 time=0
EXTRACT: note_on channel=1 note=50 velocity=100 time=0
EXTRACT: note_on channel=1 note=55 velocity=100 time=0
EXTRACT: note_on channel=1 note=59 velocity=100 time=0
EXTRACT: note_on channel=1 note=67 velocity=100 time=0
EXTRACT: note_off channel=6 note=67 velocity=100 time=0
EXTRACT: note_on channel=6 note=65 velocity=100 time=0
EXTRACT: note_on channel=9 note=35 velocity=127 time=0
EXTRACT: note_on channel=9 note=36 velocity=127 time=0
EXTRACT: note_on channel=9 note=54 velocity=127 time=0
EXTRACT: note_on channel=9 note=51 velocity=127 time=0
EXTRACT: note_off channel=5 note=35 velocity=100 time=0.022321249999999997
EXTRACT: note_on channel=5 note=31 velocity=100 time=0
EXTRACT: note_off channel=9 note=51 velocity=127 time=0.0074404166666666655
EXTRACT: note_off channel=9 note=54 velocity=127 time=0
EXTRACT: note_off channel=9 note=36 velocity=127 time=0
EXTRACT: note_off channel=9 note=35 velocity=127 time=0
EXTRACT: note_on channel=9 note=38 velocity=127 time=0.14880833333333332
EXTRACT: note_on channel=9 note=54 velocity=127 time=0
EXTRACT: note_off channel=9 note=54 velocity=127 time=0.029761666666666662
EXTRACT: note_off channel=9 note=38 velocity=127 time=0
EXTRACT: note_on channel=5 note=31 velocity=100 time=0.14880833333333332
EXTRACT: note_on channel=9 note=36 velocity=127 time=0
EXTRACT: note_on channel=9 note=54 velocity=127 time=0
EXTRACT: note_on channel=9 note=51 velocity=127 time=0
EXTRACT: note_off channel=5 note=31 velocity=100 time=0.022321249999999997
EXTRACT: note_off channel=9 note=51 velocity=127 time=0.0074404166666666655
EXTRACT: note_off channel=9 note=54 velocity=127 time=0
EXTRACT: note_off channel=9 note=36 velocity=127 time=0
EXTRACT: note_on channel=9 note=35 velocity=127 time=0.14880833333333332
EXTRACT: note_on channel=9 note=54 velocity=127 time=0
EXTRACT: note_off channel=9 note=54 velocity=127 time=0.029761666666666662
EXTRACT: note_off channel=9 note=35 velocity=127 time=0
EXTRACT: note_off channel=1 note=67 velocity=100 time=0.14880833333333332
EXTRACT: note_off channel=1 note=59 velocity=100 time=0
EXTRACT: note_off channel=1 note=55 velocity=100 time=0
EXTRACT: note_off channel=1 note=50 velocity=100 time=0
EXTRACT: note_off channel=1 note=43 velocity=100 time=0
EXTRACT: note_on channel=1 note=43 velocity=100 time=0
EXTRACT: note_on channel=1 note=50 velocity=100 time=0
EXTRACT: note_on channel=1 note=55 velocity=100 time=0
EXTRACT: note_on channel=1 note=59 velocity=100 time=0
EXTRACT: note_on channel=1 note=67 velocity=100 time=0
EXTRACT: note_off channel=5 note=31 velocity=100 time=0
EXTRACT: note_on channel=5 note=31 velocity=100 time=0
EXTRACT: note_off channel=6 note=65 velocity=100 time=0
EXTRACT: note_on channel=6 note=67 velocity=100 time=0
EXTRACT: note_on channel=9 note=38 velocity=127 time=0
EXTRACT: note_on channel=9 note=54 velocity=127 time=0
EXTRACT: note_on channel=9 note=51 velocity=127 time=0
EXTRACT: note_off channel=9 note=51 velocity=127 time=0.029761666666666662
EXTRACT: note_off channel=9 note=54 velocity=127 time=0
EXTRACT: note_off channel=9 note=38 velocity=127 time=0
EXTRACT: note_on channel=9 note=54 velocity=127 time=0.14880833333333332
EXTRACT: note_off channel=9 note=54 velocity=127 time=0.029761666666666662
EXTRACT: note_off channel=1 note=67 velocity=100 time=0.14880833333333332
EXTRACT: note_off channel=1 note=59 velocity=100 time=0
EXTRACT: note_off channel=1 note=55 velocity=100 time=0
EXTRACT: note_off channel=1 note=50 velocity=100 time=0
EXTRACT: note_off channel=1 note=43 velocity=100 time=0
EXTRACT: note_on channel=1 note=43 velocity=100 time=0
EXTRACT: note_on channel=1 note=50 velocity=100 time=0
EXTRACT: note_on channel=1 note=55 velocity=100 time=0
EXTRACT: note_on channel=1 note=59 velocity=100 time=0
EXTRACT: note_on channel=1 note=67 velocity=100 time=0
EXTRACT: note_off channel=5 note=31 velocity=100 time=0
EXTRACT: note_on channel=5 note=31 velocity=100 time=0
EXTRACT: note_off channel=6 note=67 velocity=100 time=0
EXTRACT: note_on channel=6 note=64 velocity=100 time=0
EXTRACT: note_on channel=9 note=54 velocity=127 time=0
EXTRACT: note_on channel=9 note=51 velocity=127 time=0
EXTRACT: note_off channel=9 note=51 velocity=127 time=0.029761666666666662
EXTRACT: note_off channel=9 note=54 velocity=127 time=0
EXTRACT: note_off channel=5 note=31 velocity=100 time=0.14880833333333332
EXTRACT: note_on channel=5 note=32 velocity=100 time=0
EXTRACT: note_on channel=9 note=38 velocity=127 time=0
EXTRACT: note_on channel=9 note=54 velocity=127 time=0
EXTRACT: note_off channel=9 note=54 velocity=127 time=0.029761666666666662
EXTRACT: note_off channel=9 note=38 velocity=127 time=0
EXTRACT: note_on channel=9 note=38 velocity=127 time=0.029761666666666662
EXTRACT: note_off channel=9 note=38 velocity=127 time=0.029761666666666662
EXTRACT: note_off channel=1 note=67 velocity=100 time=0.08928499999999999
EXTRACT: note_off channel=1 note=59 velocity=100 time=0
EXTRACT: note_off channel=1 note=55 velocity=100 time=0
EXTRACT: note_off channel=1 note=50 velocity=100 time=0
EXTRACT: note_off channel=1 note=43 velocity=100 time=0
EXTRACT: note_on channel=1 note=45 velocity=100 time=0
EXTRACT: note_on channel=1 note=52 velocity=100 time=0
EXTRACT: note_on channel=1 note=57 velocity=100 time=0
EXTRACT: note_on channel=1 note=60 velocity=100 time=0
EXTRACT: note_on channel=1 note=64 velocity=100 time=0
EXTRACT: note_off channel=5 note=32 velocity=100 time=0
EXTRACT: note_on channel=5 note=33 velocity=100 time=0
EXTRACT: note_on channel=9 note=35 velocity=127 time=0
EXTRACT: note_on channel=9 note=36 velocity=127 time=0
EXTRACT: note_on channel=9 note=54 velocity=127 time=0
EXTRACT: note_on channel=9 note=51 velocity=127 time=0
EXTRACT: note_off channel=9 note=51 velocity=127 time=0.029761666666666662
EXTRACT: note_off channel=9 note=54 velocity=127 time=0
EXTRACT: note_off channel=9 note=36 velocity=127 time=0
EXTRACT: note_off channel=9 note=35 velocity=127 time=0
EXTRACT: note_on channel=9 note=54 velocity=127 time=0.14880833333333332
EXTRACT: note_off channel=9 note=54 velocity=127 time=0.029761666666666662
EXTRACT: note_on channel=9 note=54 velocity=127 time=0.14880833333333332
EXTRACT: note_on channel=9 note=51 velocity=127 time=0
EXTRACT: note_off channel=9 note=51 velocity=127 time=0.029761666666666662
EXTRACT: note_off channel=9 note=54 velocity=127 time=0
EXTRACT: note_on channel=9 note=54 velocity=127 time=0.14880833333333332
EXTRACT: note_off channel=9 note=54 velocity=127 time=0.029761666666666662
EXTRACT: note_off channel=1 note=64 velocity=100 time=0.14880833333333332
EXTRACT: note_off channel=1 note=60 velocity=100 time=0
EXTRACT: note_off channel=1 note=57 velocity=100 time=0
EXTRACT: note_off channel=1 note=52 velocity=100 time=0
EXTRACT: note_off channel=1 note=45 velocity=100 time=0
EXTRACT: note_on channel=1 note=45 velocity=100 time=0
EXTRACT: note_on channel=1 note=52 velocity=100 time=0
EXTRACT: note_on channel=1 note=57 velocity=100 time=0
EXTRACT: note_on channel=1 note=60 velocity=100 time=0
EXTRACT: note_on channel=1 note=64 velocity=100 time=0
EXTRACT: note_off channel=5 note=33 velocity=100 time=0
EXTRACT: note_on channel=5 note=33 velocity=100 time=0
EXTRACT: note_on channel=9 note=38 velocity=127 time=0
EXTRACT: note_on channel=9 note=54 velocity=127 time=0
EXTRACT: note_on channel=9 note=51 velocity=127 time=0
EXTRACT: note_off channel=9 note=51 velocity=127 time=0.029761666666666662
EXTRACT: note_off channel=9 note=54 velocity=127 time=0
EXTRACT: note_off channel=9 note=38 velocity=127 time=0
EXTRACT: note_on channel=9 note=54 velocity=127 time=0.14880833333333332
EXTRACT: note_off channel=9 note=54 velocity=127 time=0.029761666666666662
EXTRACT: note_off channel=1 note=64 velocity=100 time=0.14880833333333332
EXTRACT: note_off channel=1 note=60 velocity=100 time=0
EXTRACT: note_off channel=1 note=57 velocity=100 time=0
EXTRACT: note_off channel=1 note=52 velocity=100 time=0
EXTRACT: note_off channel=1 note=45 velocity=100 time=0
EXTRACT: note_on channel=1 note=45 velocity=100 time=0
EXTRACT: note_on channel=1 note=52 velocity=100 time=0
EXTRACT: note_on channel=1 note=57 velocity=100 time=0
EXTRACT: note_on channel=1 note=60 velocity=100 time=0
EXTRACT: note_on channel=1 note=64 velocity=100 time=0
EXTRACT: note_off channel=5 note=33 velocity=100 time=0
EXTRACT: note_on channel=5 note=31 velocity=100 time=0
EXTRACT: note_on channel=9 note=54 velocity=127 time=0
EXTRACT: note_on channel=9 note=51 velocity=127 time=0
EXTRACT: note_off channel=9 note=51 velocity=127 time=0.029761666666666662
EXTRACT: note_off channel=9 note=54 velocity=127 time=0
EXTRACT: note_on channel=9 note=38 velocity=127 time=0.14880833333333332
EXTRACT: note_on channel=9 note=54 velocity=127 time=0
EXTRACT: note_off channel=9 note=54 velocity=127 time=0.029761666666666662
EXTRACT: note_off channel=9 note=38 velocity=127 time=0
EXTRACT: note_off channel=1 note=64 velocity=100 time=0.14880833333333332
EXTRACT: note_off channel=1 note=60 velocity=100 time=0
EXTRACT: note_off channel=1 note=57 velocity=100 time=0
EXTRACT: note_off channel=1 note=52 velocity=100 time=0
EXTRACT: note_off channel=1 note=45 velocity=100 time=0
EXTRACT: note_on channel=1 note=40 velocity=100 time=0
EXTRACT: note_on channel=1 note=47 velocity=100 time=0
EXTRACT: note_on channel=1 note=52 velocity=100 time=0
EXTRACT: note_on channel=1 note=56 velocity=100 time=0
EXTRACT: note_on channel=1 note=59 velocity=100 time=0
EXTRACT: note_on channel=1 note=64 velocity=100 time=0
EXTRACT: note_off channel=5 note=31 velocity=100 time=0
EXTRACT: note_on channel=5 note=28 velocity=100 time=0
EXTRACT: note_off channel=6 note=64 velocity=100 time=0
EXTRACT: note_on channel=9 note=35 velocity=127 time=0
EXTRACT: note_on channel=9 note=36 velocity=127 time=0
EXTRACT: note_on channel=9 note=54 velocity=127 time=0
EXTRACT: note_on channel=9 note=51 velocity=127 time=0
EXTRACT: note_off channel=9 note=51 velocity=127 time=0.029761666666666662
EXTRACT: note_off channel=9 note=54 velocity=127 time=0
EXTRACT: note_off channel=9 note=36 velocity=127 time=0
EXTRACT: note_off channel=9 note=35 velocity=127 time=0
EXTRACT: note_on channel=9 note=38 velocity=127 time=0.14880833333333332
EXTRACT: note_on channel=9 note=54 velocity=127 time=0
EXTRACT: note_off channel=9 note=54 velocity=127 time=0.029761666666666662
EXTRACT: note_off channel=9 note=38 velocity=127 time=0
EXTRACT: note_off channel=5 note=28 velocity=100 time=0.14880833333333332
EXTRACT: note_on channel=5 note=28 velocity=100 time=0
EXTRACT: note_on channel=9 note=35 velocity=127 time=0
EXTRACT: note_on channel=9 note=36 velocity=127 time=0
EXTRACT: note_on channel=9 note=54 velocity=127 time=0
EXTRACT: note_on channel=9 note=51 velocity=127 time=0
EXTRACT: note_off channel=9 note=51 velocity=127 time=0.029761666666666662
EXTRACT: note_off channel=9 note=54 velocity=127 time=0
EXTRACT: note_off channel=9 note=36 velocity=127 time=0
EXTRACT: note_off channel=9 note=35 velocity=127 time=0
EXTRACT: note_on channel=6 note=64 velocity=100 time=0.14880833333333332
EXTRACT: note_on channel=9 note=54 velocity=127 time=0
EXTRACT: note_off channel=9 note=54 velocity=127 time=0.029761666666666662
EXTRACT: note_off channel=1 note=64 velocity=100 time=0.14880833333333332
EXTRACT: note_off channel=1 note=59 velocity=100 time=0
EXTRACT: note_off channel=1 note=56 velocity=100 time=0
EXTRACT: note_off channel=1 note=52 velocity=100 time=0
EXTRACT: note_off channel=1 note=47 velocity=100 time=0
EXTRACT: note_off channel=1 note=40 velocity=100 time=0
EXTRACT: note_on channel=1 note=56 velocity=100 time=0
EXTRACT: note_on channel=1 note=40 velocity=100 time=0
EXTRACT: note_on channel=1 note=47 velocity=100 time=0
EXTRACT: note_on channel=1 note=52 velocity=100 time=0
EXTRACT: note_on channel=1 note=59 velocity=100 time=0
EXTRACT: note_on channel=1 note=64 velocity=100 time=0
EXTRACT: note_off channel=5 note=28 velocity=100 time=0
EXTRACT: note_on channel=5 note=28 velocity=100 time=0
EXTRACT: note_off channel=6 note=64 velocity=100 time=0
EXTRACT: note_on channel=6 note=69 velocity=100 time=0
EXTRACT: note_on channel=9 note=38 velocity=127 time=0
EXTRACT: note_on channel=9 note=54 velocity=127 time=0
EXTRACT: note_on channel=9 note=51 velocity=127 time=0
EXTRACT: note_off channel=9 note=51 velocity=127 time=0.029761666666666662
EXTRACT: note_off channel=9 note=54 velocity=127 time=0
EXTRACT: note_off channel=9 note=38 velocity=127 time=0
EXTRACT: note_on channel=9 note=54 velocity=127 time=0.14880833333333332
EXTRACT: note_off channel=9 note=54 velocity=127 time=0.029761666666666662
EXTRACT: note_off channel=1 note=64 velocity=100 time=0.14880833333333332
EXTRACT: note_off channel=1 note=59 velocity=100 time=0
EXTRACT: note_off channel=1 note=52 velocity=100 time=0
EXTRACT: note_off channel=1 note=47 velocity=100 time=0
EXTRACT: note_off channel=1 note=40 velocity=100 time=0
EXTRACT: note_off channel=1 note=56 velocity=100 time=0
EXTRACT: note_on channel=1 note=56 velocity=100 time=0
EXTRACT: note_on channel=1 note=40 velocity=100 time=0
EXTRACT: note_on channel=1 note=47 velocity=100 time=0
EXTRACT: note_on channel=1 note=52 velocity=100 time=0
EXTRACT: note_on channel=1 note=59 velocity=100 time=0
EXTRACT: note_on channel=1 note=64 velocity=100 time=0
EXTRACT: note_off channel=5 note=28 velocity=100 time=0
EXTRACT: note_on channel=5 note=28 velocity=100 time=0
EXTRACT: note_off channel=6 note=69 velocity=100 time=0
EXTRACT: note_on channel=6 note=64 velocity=100 time=0
EXTRACT: note_on channel=9 note=54 velocity=127 time=0
EXTRACT: note_on channel=9 note=51 velocity=127 time=0
EXTRACT: note_off channel=9 note=51 velocity=127 time=0.029761666666666662
EXTRACT: note_off channel=9 note=54 velocity=127 time=0
EXTRACT: note_off channel=5 note=28 velocity=100 time=0.14880833333333332
EXTRACT: note_on channel=5 note=28 velocity=100 time=0
EXTRACT: note_off channel=6 note=64 velocity=100 time=0
EXTRACT: note_on channel=6 note=67 velocity=100 time=0
EXTRACT: note_on channel=9 note=38 velocity=127 time=0
EXTRACT: note_on channel=9 note=54 velocity=127 time=0
EXTRACT: note_off channel=9 note=54 velocity=127 time=0.029761666666666662
EXTRACT: note_off channel=9 note=38 velocity=127 time=0
EXTRACT: note_on channel=9 note=38 velocity=127 time=0.029761666666666662
EXTRACT: note_off channel=9 note=38 velocity=127 time=0.029761666666666662
EXTRACT: note_off channel=1 note=64 velocity=100 time=0.08928499999999999
EXTRACT: note_off channel=1 note=59 velocity=100 time=0
EXTRACT: note_off channel=1 note=52 velocity=100 time=0
EXTRACT: note_off channel=1 note=47 velocity=100 time=0
EXTRACT: note_off channel=1 note=40 velocity=100 time=0
EXTRACT: note_off channel=1 note=56 velocity=100 time=0
EXTRACT: note_on channel=1 note=41 velocity=100 time=0
EXTRACT: note_on channel=1 note=48 velocity=100 time=0
EXTRACT: note_on channel=1 note=53 velocity=100 time=0
EXTRACT: note_on channel=1 note=57 velocity=100 time=0
EXTRACT: note_on channel=1 note=60 velocity=100 time=0
EXTRACT: note_off channel=5 note=28 velocity=100 time=0
EXTRACT: note_on channel=5 note=29 velocity=100 time=0
EXTRACT: note_on channel=9 note=35 velocity=127 time=0
EXTRACT: note_on channel=9 note=36 velocity=127 time=0
EXTRACT: note_on channel=9 note=54 velocity=127 time=0
EXTRACT: note_on channel=9 note=51 velocity=127 time=0
EXTRACT: note_off channel=9 note=51 velocity=127 time=0.029761666666666662
EXTRACT: note_off channel=9 note=54 velocity=127 time=0
EXTRACT: note_off channel=9 note=36 velocity=127 time=0
EXTRACT: note_off channel=9 note=35 velocity=127 time=0
EXTRACT: note_off channel=6 note=67 velocity=100 time=0.14880833333333332
EXTRACT: note_on channel=6 note=64 velocity=100 time=0
EXTRACT: note_on channel=9 note=54 velocity=127 time=0
EXTRACT: note_off channel=9 note=54 velocity=127 time=0.029761666666666662
EXTRACT: note_off channel=5 note=29 velocity=100 time=0.14880833333333332
EXTRACT: note_on channel=5 note=29 velocity=100 time=0
EXTRACT: note_off channel=6 note=64 velocity=100 time=0
EXTRACT: note_on channel=6 note=62 velocity=100 time=0
EXTRACT: note_on channel=9 note=54 velocity=127 time=0
EXTRACT: note_on channel=9 note=51 velocity=127 time=0
EXTRACT: note_off channel=9 note=51 velocity=127 time=0.029761666666666662
EXTRACT: note_off channel=9 note=54 velocity=127 time=0
EXTRACT: note_on channel=9 note=54 velocity=127 time=0.14880833333333332
EXTRACT: note_off channel=9 note=54 velocity=127 time=0.029761666666666662
EXTRACT: note_off channel=1 note=60 velocity=100 time=0.14880833333333332
EXTRACT: note_off channel=1 note=57 velocity=100 time=0
EXTRACT: note_off channel=1 note=53 velocity=100 time=0
EXTRACT: note_off channel=1 note=48 velocity=100 time=0
EXTRACT: note_off channel=1 note=41 velocity=100 time=0
EXTRACT: note_on channel=1 note=41 velocity=100 time=0
EXTRACT: note_on channel=1 note=48 velocity=100 time=0
EXTRACT: note_on channel=1 note=53 velocity=100 time=0
EXTRACT: note_on channel=1 note=57 velocity=100 time=0
EXTRACT: note_on channel=1 note=60 velocity=100 time=0
EXTRACT: note_off channel=5 note=29 velocity=100 time=0
EXTRACT: note_on channel=5 note=29 velocity=100 time=0
EXTRACT: note_off channel=6 note=62 velocity=100 time=0
EXTRACT: note_on channel=6 note=60 velocity=100 time=0
EXTRACT: note_on channel=9 note=38 velocity=127 time=0
EXTRACT: note_on channel=9 note=54 velocity=127 time=0
EXTRACT: note_on channel=9 note=51 velocity=127 time=0
EXTRACT: note_off channel=9 note=51 velocity=127 time=0.029761666666666662
EXTRACT: note_off channel=9 note=54 velocity=127 time=0
EXTRACT: note_off channel=9 note=38 velocity=127 time=0
EXTRACT: note_on channel=9 note=54 velocity=127 time=0.14880833333333332
EXTRACT: note_off channel=9 note=54 velocity=127 time=0.029761666666666662
EXTRACT: note_off channel=1 note=60 velocity=100 time=0.14880833333333332
EXTRACT: note_off channel=1 note=57 velocity=100 time=0
EXTRACT: note_off channel=1 note=53 velocity=100 time=0
EXTRACT: note_off channel=1 note=48 velocity=100 time=0
EXTRACT: note_off channel=1 note=41 velocity=100 time=0
EXTRACT: note_on channel=1 note=41 velocity=100 time=0
EXTRACT: note_on channel=1 note=48 velocity=100 time=0
EXTRACT: note_on channel=1 note=53 velocity=100 time=0
EXTRACT: note_on channel=1 note=57 velocity=100 time=0
EXTRACT: note_on channel=1 note=60 velocity=100 time=0
EXTRACT: note_off channel=5 note=29 velocity=100 time=0
EXTRACT: note_on channel=5 note=30 velocity=100 time=0
EXTRACT: note_on channel=9 note=54 velocity=127 time=0
EXTRACT: note_on channel=9 note=51 velocity=127 time=0
EXTRACT: note_off channel=9 note=51 velocity=127 time=0.029761666666666662
EXTRACT: note_off channel=9 note=54 velocity=127 time=0
EXTRACT: note_off channel=6 note=60 velocity=100 time=0.14880833333333332
EXTRACT: note_on channel=9 note=38 velocity=127 time=0
EXTRACT: note_on channel=9 note=54 velocity=127 time=0
EXTRACT: note_off channel=9 note=54 velocity=127 time=0.029761666666666662
EXTRACT: note_off channel=9 note=38 velocity=127 time=0
EXTRACT: note_off channel=1 note=60 velocity=100 time=0.14880833333333332
EXTRACT: note_off channel=1 note=57 velocity=100 time=0
EXTRACT: note_off channel=1 note=53 velocity=100 time=0
EXTRACT: note_off channel=1 note=48 velocity=100 time=0
EXTRACT: note_off channel=1 note=41 velocity=100 time=0
EXTRACT: note_on channel=1 note=43 velocity=100 time=0
EXTRACT: note_on channel=1 note=50 velocity=100 time=0
EXTRACT: note_on channel=1 note=55 velocity=100 time=0
EXTRACT: note_on channel=1 note=59 velocity=100 time=0
EXTRACT: note_on channel=1 note=62 velocity=100 time=0
EXTRACT: note_off channel=5 note=30 velocity=100 time=0
EXTRACT: note_on channel=5 note=31 velocity=100 time=0
EXTRACT: note_on channel=9 note=35 velocity=127 time=0
EXTRACT: note_on channel=9 note=36 velocity=127 time=0
EXTRACT: note_on channel=9 note=54 velocity=127 time=0
EXTRACT: note_on channel=9 note=51 velocity=127 time=0
EXTRACT: note_off channel=9 note=51 velocity=127 time=0.029761666666666662
EXTRACT: note_off channel=9 note=54 velocity=127 time=0
EXTRACT: note_off channel=9 note=36 velocity=127 time=0
EXTRACT: note_off channel=9 note=35 velocity=127 time=0
EXTRACT: note_on channel=9 note=38 velocity=127 time=0.14880833333333332
EXTRACT: note_on channel=9 note=54 velocity=127 time=0
EXTRACT: note_off channel=9 note=54 velocity=127 time=0.029761666666666662
EXTRACT: note_off channel=9 note=38 velocity=127 time=0
EXTRACT: note_off channel=1 note=62 velocity=100 time=0.14880833333333332
EXTRACT: note_off channel=1 note=59 velocity=100 time=0
EXTRACT: note_off channel=1 note=55 velocity=100 time=0
EXTRACT: note_off channel=1 note=50 velocity=100 time=0
EXTRACT: note_off channel=1 note=43 velocity=100 time=0
EXTRACT: note_on channel=1 note=43 velocity=100 time=0
EXTRACT: note_on channel=1 note=50 velocity=100 time=0
EXTRACT: note_on channel=1 note=55 velocity=100 time=0
EXTRACT: note_on channel=1 note=59 velocity=100 time=0
EXTRACT: note_on channel=1 note=62 velocity=100 time=0
EXTRACT: note_off channel=5 note=31 velocity=100 time=0
EXTRACT: note_on channel=5 note=31 velocity=100 time=0
EXTRACT: note_on channel=9 note=36 velocity=127 time=0
EXTRACT: note_on channel=9 note=54 velocity=127 time=0
EXTRACT: note_on channel=9 note=51 velocity=127 time=0
EXTRACT: note_off channel=9 note=51 velocity=127 time=0.029761666666666662
EXTRACT: note_off channel=9 note=54 velocity=127 time=0
EXTRACT: note_off channel=9 note=36 velocity=127 time=0
EXTRACT: note_on channel=6 note=59 velocity=100 time=0.14880833333333332
EXTRACT: note_on channel=9 note=35 velocity=127 time=0
EXTRACT: note_on channel=9 note=54 velocity=127 time=0
EXTRACT: note_off channel=9 note=54 velocity=127 time=0.029761666666666662
EXTRACT: note_off channel=9 note=35 velocity=127 time=0
EXTRACT: note_off channel=1 note=62 velocity=100 time=0.14880833333333332
EXTRACT: note_off channel=1 note=59 velocity=100 time=0
EXTRACT: note_off channel=1 note=55 velocity=100 time=0
EXTRACT: note_off channel=1 note=50 velocity=100 time=0
EXTRACT: note_off channel=1 note=43 velocity=100 time=0
EXTRACT: note_on channel=1 note=43 velocity=100 time=0
EXTRACT: note_on channel=1 note=50 velocity=100 time=0
EXTRACT: note_on channel=1 note=55 velocity=100 time=0
EXTRACT: note_on channel=1 note=59 velocity=100 time=0
EXTRACT: note_on channel=1 note=62 velocity=100 time=0
EXTRACT: note_off channel=5 note=31 velocity=100 time=0
EXTRACT: note_on channel=5 note=31 velocity=100 time=0
EXTRACT: note_off channel=6 note=59 velocity=100 time=0
EXTRACT: note_on channel=6 note=62 velocity=100 time=0
EXTRACT: note_on channel=9 note=38 velocity=127 time=0
EXTRACT: note_on channel=9 note=54 velocity=127 time=0
EXTRACT: note_on channel=9 note=51 velocity=127 time=0
EXTRACT: note_off channel=9 note=51 velocity=127 time=0.029761666666666662
EXTRACT: note_off channel=9 note=54 velocity=127 time=0
EXTRACT: note_off channel=9 note=38 velocity=127 time=0
EXTRACT: note_on channel=9 note=54 velocity=127 time=0.14880833333333332
EXTRACT: note_off channel=9 note=54 velocity=127 time=0.029761666666666662
EXTRACT: note_off channel=1 note=62 velocity=100 time=0.14880833333333332
EXTRACT: note_off channel=1 note=59 velocity=100 time=0
EXTRACT: note_off channel=1 note=55 velocity=100 time=0
EXTRACT: note_off channel=1 note=50 velocity=100 time=0
EXTRACT: note_off channel=1 note=43 velocity=100 time=0
EXTRACT: note_on channel=1 note=43 velocity=100 time=0
EXTRACT: note_on channel=1 note=50 velocity=100 time=0
EXTRACT: note_on channel=1 note=55 velocity=100 time=0
EXTRACT: note_on channel=1 note=59 velocity=100 time=0
EXTRACT: note_on channel=1 note=62 velocity=100 time=0
EXTRACT: note_off channel=5 note=31 velocity=100 time=0
EXTRACT: note_on channel=5 note=35 velocity=100 time=0
EXTRACT: note_off channel=6 note=62 velocity=100 time=0
EXTRACT: note_on channel=6 note=64 velocity=100 time=0
EXTRACT: note_on channel=9 note=54 velocity=127 time=0
EXTRACT: note_on channel=9 note=51 velocity=127 time=0
EXTRACT: note_off channel=9 note=51 velocity=127 time=0.029761666666666662
EXTRACT: note_off channel=9 note=54 velocity=127 time=0
EXTRACT: note_off channel=6 note=64 velocity=100 time=0.14880833333333332
EXTRACT: note_on channel=6 note=60 velocity=100 time=0
EXTRACT: note_on channel=9 note=38 velocity=127 time=0
EXTRACT: note_on channel=9 note=54 velocity=127 time=0
EXTRACT: note_off channel=9 note=54 velocity=127 time=0.029761666666666662
EXTRACT: note_off channel=9 note=38 velocity=127 time=0
EXTRACT: note_off channel=1 note=62 velocity=100 time=0.14880833333333332
EXTRACT: note_off channel=1 note=59 velocity=100 time=0
EXTRACT: note_off channel=1 note=55 velocity=100 time=0
EXTRACT: note_off channel=1 note=50 velocity=100 time=0
EXTRACT: note_off channel=1 note=43 velocity=100 time=0
EXTRACT: note_on channel=1 note=48 velocity=100 time=0
EXTRACT: note_on channel=1 note=52 velocity=100 time=0
EXTRACT: note_on channel=1 note=55 velocity=100 time=0
EXTRACT: note_on channel=1 note=60 velocity=100 time=0
EXTRACT: note_on channel=1 note=64 velocity=100 time=0
EXTRACT: note_off channel=5 note=35 velocity=100 time=0
EXTRACT: note_on channel=5 note=36 velocity=100 time=0
EXTRACT: note_on channel=9 note=35 velocity=127 time=0
EXTRACT: note_on channel=9 note=36 velocity=127 time=0
EXTRACT: note_on channel=9 note=54 velocity=127 time=0
EXTRACT: note_on channel=9 note=51 velocity=127 time=0
EXTRACT: note_off channel=9 note=51 velocity=127 time=0.029761666666666662
EXTRACT: note_off channel=9 note=54 velocity=127 time=0
EXTRACT: note_off channel=9 note=36 velocity=127 time=0
EXTRACT: note_off channel=9 note=35 velocity=127 time=0
EXTRACT: note_on channel=9 note=38 velocity=127 time=0.14880833333333332
EXTRACT: note_on channel=9 note=54 velocity=127 time=0
EXTRACT: note_off channel=9 note=54 velocity=127 time=0.029761666666666662
EXTRACT: note_off channel=9 note=38 velocity=127 time=0
EXTRACT: note_on channel=9 note=35 velocity=127 time=0.14880833333333332
EXTRACT: note_on channel=9 note=36 velocity=127 time=0
EXTRACT: note_on channel=9 note=54 velocity=127 time=0
EXTRACT: note_on channel=9 note=51 velocity=127 time=0
EXTRACT: note_off channel=9 note=51 velocity=127 time=0.029761666666666662
EXTRACT: note_off channel=9 note=54 velocity=127 time=0
EXTRACT: note_off channel=9 note=36 velocity=127 time=0
EXTRACT: note_off channel=9 note=35 velocity=127 time=0
EXTRACT: note_on channel=9 note=54 velocity=127 time=0.14880833333333332
EXTRACT: note_off channel=9 note=54 velocity=127 time=0.029761666666666662
EXTRACT: note_off channel=1 note=64 velocity=100 time=0.14880833333333332
EXTRACT: note_off channel=1 note=60 velocity=100 time=0
EXTRACT: note_off channel=1 note=55 velocity=100 time=0
EXTRACT: note_off channel=1 note=52 velocity=100 time=0
EXTRACT: note_off channel=1 note=48 velocity=100 time=0
EXTRACT: note_on channel=1 note=48 velocity=100 time=0
EXTRACT: note_on channel=1 note=52 velocity=100 time=0
EXTRACT: note_on channel=1 note=55 velocity=100 time=0
EXTRACT: note_on channel=1 note=60 velocity=100 time=0
EXTRACT: note_on channel=1 note=64 velocity=100 time=0
EXTRACT: note_off channel=5 note=36 velocity=100 time=0
EXTRACT: note_on channel=5 note=36 velocity=100 time=0
EXTRACT: note_on channel=9 note=38 velocity=127 time=0
EXTRACT: note_on channel=9 note=54 velocity=127 time=0
EXTRACT: note_on channel=9 note=51 velocity=127 time=0
EXTRACT: note_off channel=9 note=51 velocity=127 time=0.029761666666666662
EXTRACT: note_off channel=9 note=54 velocity=127 time=0
EXTRACT: note_off channel=9 note=38 velocity=127 time=0
EXTRACT: note_on channel=9 note=54 velocity=127 time=0.14880833333333332
EXTRACT: note_off channel=9 note=54 velocity=127 time=0.029761666666666662
EXTRACT: note_off channel=1 note=64 velocity=100 time=0.14880833333333332
EXTRACT: note_off channel=1 note=60 velocity=100 time=0
EXTRACT: note_off channel=1 note=55 velocity=100 time=0
EXTRACT: note_off channel=1 note=52 velocity=100 time=0
EXTRACT: note_off channel=1 note=48 velocity=100 time=0
EXTRACT: note_on channel=1 note=48 velocity=100 time=0
EXTRACT: note_on channel=1 note=52 velocity=100 time=0
EXTRACT: note_on channel=1 note=55 velocity=100 time=0
EXTRACT: note_on channel=1 note=60 velocity=100 time=0
EXTRACT: note_on channel=1 note=64 velocity=100 time=0
EXTRACT: note_off channel=5 note=36 velocity=100 time=0
EXTRACT: note_on channel=5 note=36 velocity=100 time=0
EXTRACT: note_on channel=9 note=54 velocity=127 time=0
EXTRACT: note_on channel=9 note=51 velocity=127 time=0
EXTRACT: note_off channel=9 note=51 velocity=127 time=0.029761666666666662
EXTRACT: note_off channel=9 note=54 velocity=127 time=0
EXTRACT: note_off channel=6 note=60 velocity=100 time=0.14880833333333332
EXTRACT: note_on channel=9 note=38 velocity=127 time=0
EXTRACT: note_on channel=9 note=54 velocity=127 time=0
EXTRACT: note_off channel=9 note=54 velocity=127 time=0.029761666666666662
EXTRACT: note_off channel=9 note=38 velocity=127 time=0
EXTRACT: note_off channel=1 note=64 velocity=100 time=0.14880833333333332
EXTRACT: note_off channel=1 note=60 velocity=100 time=0
EXTRACT: note_off channel=1 note=55 velocity=100 time=0
EXTRACT: note_off channel=1 note=52 velocity=100 time=0
EXTRACT: note_off channel=1 note=48 velocity=100 time=0
EXTRACT: note_on channel=1 note=45 velocity=100 time=0
EXTRACT: note_on channel=1 note=52 velocity=100 time=0
EXTRACT: note_on channel=1 note=57 velocity=100 time=0
EXTRACT: note_on channel=1 note=60 velocity=100 time=0
EXTRACT: note_on channel=1 note=64 velocity=100 time=0
EXTRACT: note_off channel=5 note=36 velocity=100 time=0
EXTRACT: note_on channel=5 note=33 velocity=100 time=0
EXTRACT: note_on channel=9 note=35 velocity=127 time=0
EXTRACT: note_on channel=9 note=36 velocity=127 time=0
EXTRACT: note_on channel=9 note=54 velocity=127 time=0
EXTRACT: note_on channel=9 note=51 velocity=127 time=0
EXTRACT: note_off channel=9 note=51 velocity=127 time=0.029761666666666662
EXTRACT: note_off channel=9 note=54 velocity=127 time=0
EXTRACT: note_off channel=9 note=36 velocity=127 time=0
EXTRACT: note_off channel=9 note=35 velocity=127 time=0
EXTRACT: note_on channel=9 note=38 velocity=127 time=0.14880833333333332
EXTRACT: note_on channel=9 note=54 velocity=127 time=0
EXTRACT: note_off channel=9 note=54 velocity=127 time=0.029761666666666662
EXTRACT: note_off channel=9 note=38 velocity=127 time=0
EXTRACT: note_on channel=9 note=38 velocity=127 time=0.029761666666666662
EXTRACT: note_off channel=9 note=38 velocity=127 time=0.029761666666666662
EXTRACT: note_off channel=1 note=64 velocity=100 time=0.08928499999999999
EXTRACT: note_off channel=1 note=60 velocity=100 time=0
EXTRACT: note_off channel=1 note=57 velocity=100 time=0
EXTRACT: note_off channel=1 note=52 velocity=100 time=0
EXTRACT: note_off channel=1 note=45 velocity=100 time=0
EXTRACT: note_on channel=1 note=45 velocity=100 time=0
EXTRACT: note_on channel=1 note=52 velocity=100 time=0
EXTRACT: note_on channel=1 note=57 velocity=100 time=0
EXTRACT: note_on channel=1 note=60 velocity=100 time=0
EXTRACT: note_on channel=1 note=64 velocity=100 time=0
EXTRACT: note_off channel=5 note=33 velocity=100 time=0
EXTRACT: note_on channel=5 note=33 velocity=100 time=0
EXTRACT: note_on channel=9 note=38 velocity=127 time=0
EXTRACT: note_on channel=9 note=54 velocity=127 time=0
EXTRACT: note_off channel=9 note=54 velocity=127 time=0.029761666666666662
EXTRACT: note_off channel=9 note=38 velocity=127 time=0
EXTRACT: note_off channel=1 note=64 velocity=100 time=0.14880833333333332
EXTRACT: note_off channel=1 note=60 velocity=100 time=0
EXTRACT: note_off channel=1 note=57 velocity=100 time=0
EXTRACT: note_off channel=1 note=52 velocity=100 time=0
EXTRACT: note_off channel=1 note=45 velocity=100 time=0
EXTRACT: note_on channel=1 note=45 velocity=100 time=0
EXTRACT: note_on channel=1 note=52 velocity=100 time=0
EXTRACT: note_on channel=1 note=57 velocity=100 time=0
EXTRACT: note_on channel=1 note=60 velocity=100 time=0
EXTRACT: note_on channel=1 note=64 velocity=100 time=0
EXTRACT: note_on channel=9 note=45 velocity=127 time=0
EXTRACT: note_on channel=9 note=54 velocity=127 time=0
EXTRACT: note_off channel=9 note=54 velocity=127 time=0.029761666666666662
EXTRACT: note_off channel=9 note=45 velocity=127 time=0
EXTRACT: note_off channel=1 note=64 velocity=100 time=0.14880833333333332
EXTRACT: note_off channel=1 note=60 velocity=100 time=0
EXTRACT: note_off channel=1 note=57 velocity=100 time=0
EXTRACT: note_off channel=1 note=52 velocity=100 time=0
EXTRACT: note_off channel=1 note=45 velocity=100 time=0
EXTRACT: note_on channel=1 note=43 velocity=100 time=0
EXTRACT: note_on channel=1 note=50 velocity=100 time=0
EXTRACT: note_on channel=1 note=55 velocity=100 time=0
EXTRACT: note_on channel=1 note=59 velocity=100 time=0
EXTRACT: note_on channel=1 note=67 velocity=100 time=0
EXTRACT: note_off channel=5 note=33 velocity=100 time=0
EXTRACT: note_on channel=5 note=31 velocity=100 time=0
EXTRACT: note_on channel=9 note=43 velocity=127 time=0
EXTRACT: note_on channel=9 note=54 velocity=127 time=0
EXTRACT: note_off channel=9 note=54 velocity=127 time=0.029761666666666662
EXTRACT: note_off channel=9 note=43 velocity=127 time=0
EXTRACT: note_on channel=9 note=38 velocity=127 time=0.14880833333333332
EXTRACT: note_on channel=9 note=54 velocity=127 time=0
EXTRACT: note_off channel=9 note=54 velocity=127 time=0.029761666666666662
EXTRACT: note_off channel=9 note=38 velocity=127 time=0
EXTRACT: note_off channel=1 note=67 velocity=100 time=0.14880833333333332
EXTRACT: note_off channel=1 note=59 velocity=100 time=0
EXTRACT: note_off channel=1 note=55 velocity=100 time=0
EXTRACT: note_off channel=1 note=50 velocity=100 time=0
EXTRACT: note_off channel=1 note=43 velocity=100 time=0
EXTRACT: note_on channel=1 note=43 velocity=100 time=0
EXTRACT: note_on channel=1 note=50 velocity=100 time=0
EXTRACT: note_on channel=1 note=55 velocity=100 time=0
EXTRACT: note_on channel=1 note=59 velocity=100 time=0
EXTRACT: note_on channel=1 note=67 velocity=100 time=0
EXTRACT: note_off channel=5 note=31 velocity=100 time=0
EXTRACT: note_on channel=5 note=31 velocity=100 time=0
EXTRACT: note_on channel=9 note=38 velocity=127 time=0
EXTRACT: note_on channel=9 note=54 velocity=127 time=0
EXTRACT: note_off channel=9 note=54 velocity=127 time=0.029761666666666662
EXTRACT: note_off channel=9 note=38 velocity=127 time=0
EXTRACT: note_on channel=2 note=60 velocity=100 time=0.14880833333333332
EXTRACT: note_on channel=9 note=45 velocity=127 time=0
EXTRACT: note_on channel=9 note=38 velocity=127 time=0
EXTRACT: note_on channel=9 note=54 velocity=127 time=0
EXTRACT: note_off channel=9 note=54 velocity=127 time=0.029761666666666662
EXTRACT: note_off channel=9 note=38 velocity=127 time=0
EXTRACT: note_off channel=9 note=45 velocity=127 time=0
EXTRACT: note_off channel=1 note=67 velocity=100 time=0.14880833333333332
EXTRACT: note_off channel=1 note=59 velocity=100 time=0
EXTRACT: note_off channel=1 note=55 velocity=100 time=0
EXTRACT: note_off channel=1 note=50 velocity=100 time=0
EXTRACT: note_off channel=1 note=43 velocity=100 time=0
EXTRACT: note_on channel=1 note=41 velocity=100 time=0
EXTRACT: note_on channel=1 note=48 velocity=100 time=0
EXTRACT: note_on channel=1 note=53 velocity=100 time=0
EXTRACT: note_on channel=1 note=57 velocity=100 time=0
EXTRACT: note_on channel=1 note=60 velocity=100 time=0
EXTRACT: note_off channel=2 note=60 velocity=100 time=0
EXTRACT: note_on channel=2 note=62 velocity=100 time=0
EXTRACT: note_off channel=5 note=31 velocity=100 time=0
EXTRACT: note_on channel=5 note=29 velocity=100 time=0
EXTRACT: note_on channel=9 note=35 velocity=127 time=0
EXTRACT: note_on channel=9 note=36 velocity=127 time=0
EXTRACT: note_on channel=9 note=41 velocity=127 time=0
EXTRACT: note_on channel=9 note=49 velocity=127 time=0
EXTRACT: note_on channel=9 note=70 velocity=127 time=0
EXTRACT: note_off channel=9 note=70 velocity=127 time=0.029761666666666662
EXTRACT: note_off channel=9 note=49 velocity=127 time=0
EXTRACT: note_off channel=9 note=41 velocity=127 time=0
EXTRACT: note_off channel=9 note=36 velocity=127 time=0
EXTRACT: note_off channel=9 note=35 velocity=127 time=0.059523333333333324
EXTRACT: pitchwheel channel=2 pitch=512 time=0.011160624999999999
EXTRACT: pitchwheel channel=2 pitch=640 time=0.011160624999999999
EXTRACT: pitchwheel channel=2 pitch=1280 time=0.013020729166666665
EXTRACT: pitchwheel channel=2 pitch=2304 time=0.011160624999999999
EXTRACT: pitchwheel channel=2 pitch=3328 time=0.013020729166666665
EXTRACT: pitchwheel channel=2 pitch=3584 time=0.011160624999999999
EXTRACT: pitchwheel channel=2 pitch=4608 time=0.011160624999999999
EXTRACT: pitchwheel channel=2 pitch=5632 time=0.013020729166666665
EXTRACT: pitchwheel channel=2 pitch=6272 time=0.011160624999999999
EXTRACT: pitchwheel channel=2 pitch=6400 time=0.013020729166666665
EXTRACT: pitchwheel channel=2 pitch=7040 time=0.011160624999999999
EXTRACT: pitchwheel channel=2 pitch=7424 time=0.011160624999999999
EXTRACT: pitchwheel channel=2 pitch=7680 time=0.013020729166666665
EXTRACT: pitchwheel channel=2 pitch=7936 time=0.024181354166666662
EXTRACT: note_off channel=5 note=29 velocity=100 time=0.08928499999999999
EXTRACT: note_on channel=5 note=29 velocity=100 time=0
EXTRACT: note_on channel=9 note=35 velocity=127 time=0
EXTRACT: note_on channel=9 note=36 velocity=127 time=0
EXTRACT: note_on channel=9 note=41 velocity=127 time=0
EXTRACT: note_on channel=9 note=70 velocity=127 time=0
EXTRACT: pitchwheel channel=2 pitch=7680 time=0.029761666666666662
EXTRACT: note_off channel=9 note=70 velocity=127 time=0
EXTRACT: note_off channel=9 note=41 velocity=127 time=0
EXTRACT: note_off channel=9 note=36 velocity=127 time=0
EXTRACT: pitchwheel channel=2 pitch=7168 time=0.022321249999999997
EXTRACT: pitchwheel channel=2 pitch=6656 time=0.013020729166666665
EXTRACT: pitchwheel channel=2 pitch=6400 time=0.011160624999999999
EXTRACT: note_off channel=9 note=35 velocity=127 time=0.013020729166666665
EXTRACT: pitchwheel channel=2 pitch=5888 time=0.011160624999999999
EXTRACT: pitchwheel channel=2 pitch=5376 time=0.011160624999999999
EXTRACT: pitchwheel channel=2 pitch=4864 time=0.013020729166666665
EXTRACT: pitchwheel channel=2 pitch=4352 time=0.024181354166666662
EXTRACT: pitchwheel channel=2 pitch=3840 time=0.011160624999999999
EXTRACT: pitchwheel channel=2 pitch=2816 time=0.011160624999999999
EXTRACT: note_on channel=9 note=70 velocity=127 time=0.0074404166666666655
EXTRACT: pitchwheel channel=2 pitch=1920 time=0.016740937499999997
EXTRACT: pitchwheel channel=2 pitch=1280 time=0.013020729166666665
EXTRACT: note_off channel=9 note=70 velocity=127 time=0
EXTRACT: pitchwheel channel=2 pitch=896 time=0.011160624999999999
EXTRACT: pitchwheel channel=2 pitch=768 time=0.011160624999999999
EXTRACT: pitchwheel channel=2 pitch=384 time=0.013020729166666665
EXTRACT: pitchwheel channel=2 pitch=256 time=0.011160624999999999
EXTRACT: pitchwheel channel=2 pitch=0 time=0.013020729166666665
EXTRACT: note_off channel=1 note=60 velocity=100 time=0.08928499999999999
EXTRACT: note_off channel=1 note=57 velocity=100 time=0
EXTRACT: note_off channel=1 note=53 velocity=100 time=0
EXTRACT: note_off channel=1 note=48 velocity=100 time=0
EXTRACT: note_off channel=1 note=41 velocity=100 time=0
EXTRACT: note_on channel=1 note=41 velocity=100 time=0
EXTRACT: note_on channel=1 note=48 velocity=100 time=0
EXTRACT: note_on channel=1 note=53 velocity=100 time=0
EXTRACT: note_on channel=1 note=57 velocity=100 time=0
EXTRACT: note_on channel=1 note=60 velocity=100 time=0
EXTRACT: note_off channel=2 note=62 velocity=100 time=0
EXTRACT: note_on channel=2 note=62 velocity=100 time=0
EXTRACT: note_on channel=3 note=65 velocity=100 time=0
EXTRACT: note_on channel=3 note=60 velocity=100 time=0
EXTRACT: note_on channel=3 note=57 velocity=100 time=0
EXTRACT: note_on channel=3 note=53 velocity=100 time=0
EXTRACT: note_off channel=5 note=29 velocity=100 time=0
EXTRACT: note_on channel=5 note=29 velocity=100 time=0
EXTRACT: note_on channel=9 note=38 velocity=127 time=0
EXTRACT: note_on channel=9 note=38 velocity=127 time=0
EXTRACT: note_on channel=9 note=41 velocity=127 time=0
EXTRACT: note_on channel=9 note=70 velocity=127 time=0
EXTRACT: note_off channel=9 note=70 velocity=127 time=0.029761666666666662
EXTRACT: note_off channel=9 note=41 velocity=127 time=0
EXTRACT: note_off channel=9 note=38 velocity=127 time=0
EXTRACT: note_off channel=9 note=38 velocity=127 time=0
EXTRACT: pitchwheel channel=2 pitch=512 time=0.07068395833333332
EXTRACT: pitchwheel channel=2 pitch=640 time=0.011160624999999999
EXTRACT: pitchwheel channel=2 pitch=1280 time=0.013020729166666665
EXTRACT: pitchwheel channel=2 pitch=2304 time=0.011160624999999999
EXTRACT: pitchwheel channel=2 pitch=3328 time=0.013020729166666665
EXTRACT: pitchwheel channel=2 pitch=3584 time=0.011160624999999999
EXTRACT: pitchwheel channel=2 pitch=4608 time=0.011160624999999999
EXTRACT: pitchwheel channel=2 pitch=5632 time=0.013020729166666665
EXTRACT: pitchwheel channel=2 pitch=6272 time=0.011160624999999999
EXTRACT: pitchwheel channel=2 pitch=6400 time=0.013020729166666665
EXTRACT: pitchwheel channel=2 pitch=7040 time=0.011160624999999999
EXTRACT: pitchwheel channel=2 pitch=7424 time=0.011160624999999999
EXTRACT: pitchwheel channel=2 pitch=7680 time=0.013020729166666665
EXTRACT: pitchwheel channel=2 pitch=7936 time=0.024181354166666662
EXTRACT: note_off channel=1 note=60 velocity=100 time=0.08928499999999999
EXTRACT: note_off channel=1 note=57 velocity=100 time=0
EXTRACT: note_off channel=1 note=53 velocity=100 time=0
EXTRACT: note_off channel=1 note=48 velocity=100 time=0
EXTRACT: note_off channel=1 note=41 velocity=100 time=0
EXTRACT: note_on channel=1 note=41 velocity=100 time=0
EXTRACT: note_on channel=1 note=48 velocity=100 time=0
EXTRACT: note_on channel=1 note=53 velocity=100 time=0
EXTRACT: note_on channel=1 note=57 velocity=100 time=0
EXTRACT: note_on channel=1 note=60 velocity=100 time=0
EXTRACT: note_off channel=3 note=53 velocity=100 time=0
EXTRACT: note_off channel=3 note=57 velocity=100 time=0
EXTRACT: note_off channel=3 note=60 velocity=100 time=0
EXTRACT: note_off channel=3 note=65 velocity=100 time=0
EXTRACT: note_off channel=5 note=29 velocity=100 time=0
EXTRACT: note_on channel=5 note=29 velocity=100 time=0
EXTRACT: note_on channel=9 note=41 velocity=127 time=0
EXTRACT: note_on channel=9 note=70 velocity=127 time=0
EXTRACT: pitchwheel channel=2 pitch=7680 time=0.029761666666666662
EXTRACT: note_off channel=9 note=70 velocity=127 time=0
EXTRACT: note_off channel=9 note=41 velocity=127 time=0
EXTRACT: pitchwheel channel=2 pitch=7168 time=0.022321249999999997
EXTRACT: pitchwheel channel=2 pitch=6656 time=0.013020729166666665
EXTRACT: pitchwheel channel=2 pitch=6400 time=0.011160624999999999
EXTRACT: pitchwheel channel=2 pitch=5888 time=0.024181354166666662
EXTRACT: pitchwheel channel=2 pitch=5376 time=0.011160624999999999
EXTRACT: pitchwheel channel=2 pitch=4864 time=0.013020729166666665
EXTRACT: pitchwheel channel=2 pitch=4352 time=0.024181354166666662
EXTRACT: pitchwheel channel=2 pitch=3840 time=0.011160624999999999
EXTRACT: pitchwheel channel=2 pitch=2816 time=0.011160624999999999
EXTRACT: note_off channel=5 note=29 velocity=100 time=0.0074404166666666655
EXTRACT: note_on channel=5 note=29 velocity=100 time=0
EXTRACT: note_on channel=9 note=45 velocity=127 time=0
EXTRACT: note_on channel=9 note=70 velocity=127 time=0
EXTRACT: pitchwheel channel=2 pitch=1920 time=0.016740937499999997
EXTRACT: pitchwheel channel=2 pitch=1280 time=0.013020729166666665
EXTRACT: note_off channel=9 note=70 velocity=127 time=0
EXTRACT: note_off channel=9 note=45 velocity=127 time=0
EXTRACT: pitchwheel channel=2 pitch=896 time=0.011160624999999999
EXTRACT: pitchwheel channel=2 pitch=768 time=0.011160624999999999
EXTRACT: pitchwheel channel=2 pitch=384 time=0.013020729166666665
EXTRACT: pitchwheel channel=2 pitch=256 time=0.011160624999999999
EXTRACT: pitchwheel channel=2 pitch=0 time=0.013020729166666665
EXTRACT: note_off channel=1 note=60 velocity=100 time=0.08928499999999999
EXTRACT: note_off channel=1 note=57 velocity=100 time=0
EXTRACT: note_off channel=1 note=53 velocity=100 time=0
EXTRACT: note_off channel=1 note=48 velocity=100 time=0
EXTRACT: note_off channel=1 note=41 velocity=100 time=0
EXTRACT: note_on channel=1 note=41 velocity=100 time=0
EXTRACT: note_on channel=1 note=48 velocity=100 time=0
EXTRACT: note_on channel=1 note=53 velocity=100 time=0
EXTRACT: note_on channel=1 note=56 velocity=100 time=0
EXTRACT: note_on channel=1 note=60 velocity=100 time=0
EXTRACT: note_on channel=1 note=65 velocity=100 time=0
EXTRACT: note_off channel=2 note=62 velocity=100 time=0
EXTRACT: note_off channel=5 note=29 velocity=100 time=0
EXTRACT: note_on channel=5 note=29 velocity=100 time=0
EXTRACT: note_on channel=9 note=35 velocity=127 time=0
EXTRACT: note_on channel=9 note=36 velocity=127 time=0
EXTRACT: note_on channel=9 note=41 velocity=127 time=0
EXTRACT: note_on channel=9 note=70 velocity=127 time=0
EXTRACT: note_on channel=2 note=62 velocity=100 time=0.011160624999999999
EXTRACT: note_off channel=9 note=70 velocity=127 time=0.018601041666666665
EXTRACT: note_off channel=9 note=41 velocity=127 time=0
EXTRACT: note_off channel=9 note=36 velocity=127 time=0
EXTRACT: note_off channel=9 note=35 velocity=127 time=0.059523333333333324
EXTRACT: pitchwheel channel=2 pitch=512 time=0.08928499999999999
EXTRACT: note_off channel=5 note=29 velocity=100 time=0
EXTRACT: note_on channel=5 note=29 velocity=100 time=0
EXTRACT: note_on channel=9 note=45 velocity=127 time=0
EXTRACT: pitchwheel channel=2 pitch=640 time=0.011160624999999999
EXTRACT: pitchwheel channel=2 pitch=1280 time=0.011160624999999999
EXTRACT: note_off channel=9 note=45 velocity=127 time=0.0074404166666666655
EXTRACT: pitchwheel channel=2 pitch=2304 time=0.005580312499999999
EXTRACT: pitchwheel channel=2 pitch=3328 time=0.011160624999999999
EXTRACT: pitchwheel channel=2 pitch=3584 time=0.013020729166666665
EXTRACT: pitchwheel channel=2 pitch=4608 time=0.011160624999999999
EXTRACT: pitchwheel channel=2 pitch=5632 time=0.011160624999999999
EXTRACT: pitchwheel channel=2 pitch=6272 time=0.013020729166666665
EXTRACT: pitchwheel channel=2 pitch=6400 time=0.011160624999999999
EXTRACT: pitchwheel channel=2 pitch=7040 time=0.013020729166666665
EXTRACT: pitchwheel channel=2 pitch=7424 time=0.011160624999999999
EXTRACT: pitchwheel channel=2 pitch=7680 time=0.011160624999999999
EXTRACT: pitchwheel channel=2 pitch=7936 time=0.024181354166666662
EXTRACT: note_off channel=5 note=29 velocity=100 time=0.013020729166666665
EXTRACT: note_on channel=5 note=29 velocity=100 time=0
EXTRACT: note_on channel=9 note=35 velocity=127 time=0
EXTRACT: note_on channel=9 note=36 velocity=127 time=0
EXTRACT: note_on channel=9 note=41 velocity=127 time=0
EXTRACT: note_on channel=9 note=70 velocity=127 time=0
EXTRACT: note_off channel=9 note=70 velocity=127 time=0.029761666666666662
EXTRACT: note_off channel=9 note=41 velocity=127 time=0
EXTRACT: note_off channel=9 note=36 velocity=127 time=0
EXTRACT: note_off channel=9 note=35 velocity=127 time=0.059523333333333324
EXTRACT: pitchwheel channel=2 pitch=7680 time=0.016740937499999997
EXTRACT: pitchwheel channel=2 pitch=7168 time=0.024181354166666662
EXTRACT: pitchwheel channel=2 pitch=6656 time=0.011160624999999999
EXTRACT: pitchwheel channel=2 pitch=6400 time=0.013020729166666665
EXTRACT: pitchwheel channel=2 pitch=5888 time=0.024181354166666662
EXTRACT: note_on channel=9 note=70 velocity=127 time=0
EXTRACT: pitchwheel channel=2 pitch=5376 time=0.011160624999999999
EXTRACT: pitchwheel channel=2 pitch=4864 time=0.011160624999999999
EXTRACT: note_off channel=9 note=70 velocity=127 time=0.0074404166666666655
EXTRACT: pitchwheel channel=2 pitch=4352 time=0.016740937499999997
EXTRACT: pitchwheel channel=2 pitch=3840 time=0.013020729166666665
EXTRACT: pitchwheel channel=2 pitch=2816 time=0.011160624999999999
EXTRACT: pitchwheel channel=2 pitch=1920 time=0.024181354166666662
EXTRACT: pitchwheel channel=2 pitch=1280 time=0.011160624999999999
EXTRACT: pitchwheel channel=2 pitch=896 time=0.013020729166666665
EXTRACT: pitchwheel channel=2 pitch=768 time=0.011160624999999999
EXTRACT: note_on channel=2 note=60 velocity=100 time=0.005580312499999999
EXTRACT: pitchwheel channel=2 pitch=384 time=0.005580312499999999
EXTRACT: pitchwheel channel=2 pitch=256 time=0.013020729166666665
EXTRACT: pitchwheel channel=2 pitch=0 time=0.011160624999999999
EXTRACT: note_off channel=1 note=65 velocity=100 time=0.013020729166666665
EXTRACT: note_off channel=1 note=60 velocity=100 time=0
EXTRACT: note_off channel=1 note=56 velocity=100 time=0
EXTRACT: note_off channel=1 note=53 velocity=100 time=0
EXTRACT: note_off channel=1 note=48 velocity=100 time=0
EXTRACT: note_off channel=1 note=41 velocity=100 time=0
EXTRACT: note_on channel=1 note=41 velocity=100 time=0
EXTRACT: note_on channel=1 note=48 velocity=100 time=0
EXTRACT: note_on channel=1 note=53 velocity=100 time=0
EXTRACT: note_on channel=1 note=56 velocity=100 time=0
EXTRACT: note_on channel=1 note=60 velocity=100 time=0
EXTRACT: note_on channel=1 note=65 velocity=100 time=0
EXTRACT: note_on channel=3 note=65 velocity=100 time=0
EXTRACT: note_on channel=3 note=60 velocity=100 time=0
EXTRACT: note_on channel=3 note=56 velocity=100 time=0
EXTRACT: note_on channel=3 note=53 velocity=100 time=0
EXTRACT: note_off channel=5 note=29 velocity=100 time=0
EXTRACT: note_on channel=5 note=29 velocity=100 time=0
EXTRACT: note_on channel=9 note=38 velocity=127 time=0
EXTRACT: note_on channel=9 note=38 velocity=127 time=0
EXTRACT: note_on channel=9 note=41 velocity=127 time=0
EXTRACT: note_on channel=9 note=70 velocity=127 time=0
EXTRACT: note_off channel=2 note=62 velocity=100 time=0.011160624999999999
EXTRACT: note_off channel=9 note=70 velocity=127 time=0.018601041666666665
EXTRACT: note_off channel=9 note=41 velocity=127 time=0
EXTRACT: note_off channel=9 note=38 velocity=127 time=0
EXTRACT: note_off channel=9 note=38 velocity=127 time=0
EXTRACT: note_on channel=9 note=70 velocity=127 time=0.14880833333333332
EXTRACT: note_off channel=9 note=70 velocity=127 time=0.029761666666666662
EXTRACT: note_off channel=2 note=60 velocity=100 time=0.10602593749999999
EXTRACT: note_off channel=1 note=65 velocity=100 time=0.04278239583333333
EXTRACT: note_off channel=1 note=60 velocity=100 time=0
EXTRACT: note_off channel=1 note=56 velocity=100 time=0
EXTRACT: note_off channel=1 note=53 velocity=100 time=0
EXTRACT: note_off channel=1 note=48 velocity=100 time=0
EXTRACT: note_off channel=1 note=41 velocity=100 time=0
EXTRACT: note_on channel=1 note=41 velocity=100 time=0
EXTRACT: note_on channel=1 note=48 velocity=100 time=0
EXTRACT: note_on channel=1 note=53 velocity=100 time=0
EXTRACT: note_on channel=1 note=56 velocity=100 time=0
EXTRACT: note_on channel=1 note=60 velocity=100 time=0
EXTRACT: note_on channel=1 note=65 velocity=100 time=0
EXTRACT: note_on channel=2 note=55 velocity=100 time=0
EXTRACT: note_off channel=3 note=53 velocity=100 time=0
EXTRACT: note_off channel=3 note=56 velocity=100 time=0
EXTRACT: note_off channel=3 note=60 velocity=100 time=0
EXTRACT: note_off channel=3 note=65 velocity=100 time=0
EXTRACT: note_off channel=5 note=29 velocity=100 time=0
EXTRACT: note_on channel=5 note=31 velocity=100 time=0
EXTRACT: note_on channel=9 note=41 velocity=127 time=0
EXTRACT: note_on channel=9 note=70 velocity=127 time=0
EXTRACT: note_off channel=9 note=70 velocity=127 time=0.029761666666666662
EXTRACT: note_off channel=9 note=41 velocity=127 time=0
EXTRACT: note_off channel=5 note=31 velocity=100 time=0.14880833333333332
EXTRACT: note_on channel=5 note=33 velocity=100 time=0
EXTRACT: note_on channel=9 note=70 velocity=127 time=0
EXTRACT: note_off channel=9 note=70 velocity=127 time=0.029761666666666662
EXTRACT: note_off channel=1 note=65 velocity=100 time=0.14880833333333332
EXTRACT: note_off channel=1 note=60 velocity=100 time=0
EXTRACT: note_off channel=1 note=56 velocity=100 time=0
EXTRACT: note_off channel=1 note=53 velocity=100 time=0
EXTRACT: note_off channel=1 note=48 velocity=100 time=0
EXTRACT: note_off channel=1 note=41 velocity=100 time=0
EXTRACT: note_on channel=1 note=48 velocity=100 time=0
EXTRACT: note_on channel=1 note=52 velocity=100 time=0
EXTRACT: note_on channel=1 note=55 velocity=100 time=0
EXTRACT: note_on channel=1 note=60 velocity=100 time=0
EXTRACT: note_on channel=1 note=64 velocity=100 time=0
EXTRACT: note_off channel=5 note=33 velocity=100 time=0
EXTRACT: note_on channel=5 note=36 velocity=100 time=0
EXTRACT: note_on channel=9 note=35 velocity=127 time=0
EXTRACT: note_on channel=9 note=36 velocity=127 time=0
EXTRACT: note_on channel=9 note=41 velocity=127 time=0
EXTRACT: note_on channel=9 note=70 velocity=127 time=0
EXTRACT: note_off channel=9 note=70 velocity=127 time=0.029761666666666662
EXTRACT: note_off channel=9 note=41 velocity=127 time=0
EXTRACT: note_off channel=9 note=36 velocity=127 time=0
EXTRACT: note_off channel=9 note=35 velocity=127 time=0.059523333333333324
EXTRACT: note_on channel=2 note=55 velocity=100 time=0.22507260416666663
EXTRACT: note_off channel=2 note=55 velocity=100 time=0.04278239583333333
EXTRACT: note_off channel=5 note=36 velocity=100 time=0
EXTRACT: note_on channel=5 note=36 velocity=100 time=0
EXTRACT: note_on channel=9 note=35 velocity=127 time=0
EXTRACT: note_on channel=9 note=36 velocity=127 time=0
EXTRACT: note_on channel=9 note=41 velocity=127 time=0
EXTRACT: note_on channel=9 note=70 velocity=127 time=0
EXTRACT: note_off channel=9 note=70 velocity=127 time=0.029761666666666662
EXTRACT: note_off channel=9 note=41 velocity=127 time=0
EXTRACT: note_off channel=9 note=36 velocity=127 time=0
EXTRACT: note_off channel=9 note=35 velocity=127 time=0.059523333333333324
EXTRACT: note_off channel=2 note=55 velocity=100 time=0.04650260416666666
EXTRACT: note_on channel=2 note=57 velocity=100 time=0.04278239583333333
EXTRACT: note_on channel=9 note=70 velocity=127 time=0
EXTRACT: note_off channel=9 note=70 velocity=127 time=0.029761666666666662
EXTRACT: note_on channel=2 note=60 velocity=100 time=0.12462697916666665
EXTRACT: note_off channel=1 note=64 velocity=100 time=0.024181354166666662
EXTRACT: note_off channel=1 note=60 velocity=100 time=0
EXTRACT: note_off channel=1 note=55 velocity=100 time=0
EXTRACT: note_off channel=1 note=52 velocity=100 time=0
EXTRACT: note_off channel=1 note=48 velocity=100 time=0
EXTRACT: note_on channel=1 note=64 velocity=100 time=0
EXTRACT: note_on channel=1 note=60 velocity=100 time=0
EXTRACT: note_on channel=1 note=55 velocity=100 time=0
EXTRACT: note_on channel=1 note=52 velocity=100 time=0
EXTRACT: note_on channel=1 note=48 velocity=100 time=0
EXTRACT: note_off channel=2 note=57 velocity=100 time=0
EXTRACT: note_on channel=3 note=67 velocity=100 time=0
EXTRACT: note_on channel=3 note=64 velocity=100 time=0
EXTRACT: note_on channel=3 note=60 velocity=100 time=0
EXTRACT: note_off channel=5 note=36 velocity=100 time=0
EXTRACT: note_on channel=5 note=36 velocity=100 time=0
EXTRACT: note_on channel=9 note=38 velocity=127 time=0
EXTRACT: note_on channel=9 note=38 velocity=127 time=0
EXTRACT: note_on channel=9 note=41 velocity=127 time=0
EXTRACT: note_on channel=9 note=70 velocity=127 time=0
EXTRACT: note_off channel=9 note=70 velocity=127 time=0.029761666666666662
EXTRACT: note_off channel=9 note=41 velocity=127 time=0
EXTRACT: note_off channel=9 note=38 velocity=127 time=0
EXTRACT: note_off channel=9 note=38 velocity=127 time=0
EXTRACT: note_off channel=2 note=60 velocity=100 time=0.12462697916666665
EXTRACT: note_on channel=2 note=55 velocity=100 time=0.024181354166666662
EXTRACT: note_off channel=1 note=48 velocity=100 time=0.17856999999999998
EXTRACT: note_off channel=1 note=52 velocity=100 time=0
EXTRACT: note_off channel=1 note=55 velocity=100 time=0
EXTRACT: note_off channel=1 note=60 velocity=100 time=0
EXTRACT: note_off channel=1 note=64 velocity=100 time=0
EXTRACT: note_on channel=1 note=60 velocity=100 time=0
EXTRACT: note_on channel=1 note=64 velocity=100 time=0
EXTRACT: note_on channel=1 note=55 velocity=100 time=0
EXTRACT: note_on channel=1 note=52 velocity=100 time=0
EXTRACT: note_on channel=1 note=48 velocity=100 time=0
EXTRACT: note_off channel=2 note=55 velocity=100 time=0
EXTRACT: note_off channel=3 note=60 velocity=100 time=0
EXTRACT: note_off channel=3 note=64 velocity=100 time=0
EXTRACT: note_off channel=3 note=67 velocity=100 time=0
EXTRACT: note_off channel=5 note=36 velocity=100 time=0
EXTRACT: note_on channel=5 note=36 velocity=100 time=0
EXTRACT: note_on channel=9 note=41 velocity=127 time=0
EXTRACT: note_on channel=9 note=70 velocity=127 time=0
EXTRACT: note_on channel=2 note=57 velocity=100 time=0.011160624999999999
EXTRACT: note_off channel=9 note=70 velocity=127 time=0.018601041666666665
EXTRACT: note_off channel=9 note=41 velocity=127 time=0
EXTRACT: note_off channel=5 note=36 velocity=100 time=0.14880833333333332
EXTRACT: note_on channel=5 note=33 velocity=100 time=0
EXTRACT: note_on channel=9 note=45 velocity=127 time=0
EXTRACT: note_on channel=9 note=70 velocity=127 time=0
EXTRACT: note_off channel=2 note=57 velocity=100 time=0.011160624999999999
EXTRACT: note_on channel=2 note=60 velocity=100 time=0
EXTRACT: note_off channel=9 note=70 velocity=127 time=0.018601041666666665
EXTRACT: note_off channel=9 note=45 velocity=127 time=0
EXTRACT: note_off channel=1 note=48 velocity=100 time=0.14880833333333332
EXTRACT: note_off channel=1 note=52 velocity=100 time=0
EXTRACT: note_off channel=1 note=55 velocity=100 time=0
EXTRACT: note_off channel=1 note=64 velocity=100 time=0
EXTRACT: note_off channel=1 note=60 velocity=100 time=0
EXTRACT: note_on channel=1 note=60 velocity=100 time=0
EXTRACT: note_on channel=1 note=64 velocity=100 time=0
EXTRACT: note_on channel=1 note=55 velocity=100 time=0
EXTRACT: note_on channel=1 note=52 velocity=100 time=0
EXTRACT: note_on channel=1 note=48 velocity=100 time=0
EXTRACT: note_off channel=5 note=33 velocity=100 time=0
EXTRACT: note_on channel=5 note=36 velocity=100 time=0
EXTRACT: note_on channel=9 note=35 velocity=127 time=0
EXTRACT: note_on channel=9 note=36 velocity=127 time=0
EXTRACT: note_on channel=9 note=41 velocity=127 time=0
EXTRACT: note_on channel=9 note=70 velocity=127 time=0
EXTRACT: note_off channel=2 note=60 velocity=100 time=0.011160624999999999
EXTRACT: note_on channel=2 note=64 velocity=100 time=0
EXTRACT: note_off channel=9 note=70 velocity=127 time=0.018601041666666665
EXTRACT: note_off channel=9 note=41 velocity=127 time=0
EXTRACT: note_off channel=9 note=36 velocity=127 time=0
EXTRACT: pitchwheel channel=2 pitch=-8064 time=0.005580312499999999
EXTRACT: pitchwheel channel=2 pitch=-7040 time=0.011160624999999999
EXTRACT: pitchwheel channel=2 pitch=-6016 time=0.013020729166666665
EXTRACT: pitchwheel channel=2 pitch=-4992 time=0.011160624999999999
EXTRACT: pitchwheel channel=2 pitch=-3968 time=0.011160624999999999
EXTRACT: note_off channel=9 note=35 velocity=127 time=0.0074404166666666655
EXTRACT: pitchwheel channel=2 pitch=-2944 time=0.005580312499999999
EXTRACT: pitchwheel channel=2 pitch=-1920 time=0.011160624999999999
EXTRACT: pitchwheel channel=2 pitch=-896 time=0.013020729166666665
EXTRACT: pitchwheel channel=2 pitch=128 time=0.011160624999999999
EXTRACT: note_on channel=2 note=67 velocity=100 time=0.048362708333333324
EXTRACT: note_off channel=5 note=36 velocity=100 time=0
EXTRACT: note_on channel=5 note=33 velocity=100 time=0
EXTRACT: note_on channel=9 note=45 velocity=127 time=0
EXTRACT: note_off channel=2 note=64 velocity=100 time=0.011160624999999999
EXTRACT: note_off channel=9 note=45 velocity=127 time=0.018601041666666665
EXTRACT: note_on channel=2 note=60 velocity=100 time=0.13578760416666666
EXTRACT: note_off channel=1 note=48 velocity=100 time=0.013020729166666665
EXTRACT: note_off channel=1 note=52 velocity=100 time=0
EXTRACT: note_off channel=1 note=55 velocity=100 time=0
EXTRACT: note_off channel=1 note=64 velocity=100 time=0
EXTRACT: note_off channel=1 note=60 velocity=100 time=0
EXTRACT: note_on channel=1 note=60 velocity=100 time=0
EXTRACT: note_on channel=1 note=64 velocity=100 time=0
EXTRACT: note_on channel=1 note=55 velocity=100 time=0
EXTRACT: note_on channel=1 note=52 velocity=100 time=0
EXTRACT: note_on channel=1 note=48 velocity=100 time=0
EXTRACT: note_off channel=2 note=67 velocity=100 time=0
EXTRACT: note_off channel=5 note=33 velocity=100 time=0
EXTRACT: note_on channel=5 note=31 velocity=100 time=0
EXTRACT: note_on channel=9 note=35 velocity=127 time=0
EXTRACT: note_on channel=9 note=36 velocity=127 time=0
EXTRACT: note_on channel=9 note=41 velocity=127 time=0
EXTRACT: note_on channel=9 note=70 velocity=127 time=0
EXTRACT: note_off channel=9 note=70 velocity=127 time=0.029761666666666662
EXTRACT: note_off channel=9 note=41 velocity=127 time=0
EXTRACT: note_off channel=9 note=36 velocity=127 time=0
EXTRACT: note_off channel=9 note=35 velocity=127 time=0.059523333333333324
EXTRACT: note_off channel=2 note=60 velocity=100 time=0.07626427083333333
EXTRACT: note_on channel=2 note=55 velocity=100 time=0.013020729166666665
EXTRACT: note_off channel=5 note=31 velocity=100 time=0
EXTRACT: note_on channel=9 note=70 velocity=127 time=0
EXTRACT: note_on channel=5 note=36 velocity=100 time=0.029761666666666662
EXTRACT: note_off channel=9 note=70 velocity=127 time=0
EXTRACT: note_on channel=2 note=60 velocity=100 time=0.13578760416666666
EXTRACT: note_off channel=1 note=48 velocity=100 time=0.013020729166666665
EXTRACT: note_off channel=1 note=52 velocity=100 time=0
EXTRACT: note_off channel=1 note=55 velocity=100 time=0
EXTRACT: note_off channel=1 note=64 velocity=100 time=0
EXTRACT: note_off channel=1 note=60 velocity=100 time=0
EXTRACT: note_on channel=1 note=60 velocity=100 time=0
EXTRACT: note_on channel=1 note=64 velocity=100 time=0
EXTRACT: note_on channel=1 note=55 velocity=100 time=0
EXTRACT: note_on channel=1 note=52 velocity=100 time=0
EXTRACT: note_on channel=1 note=48 velocity=100 time=0
EXTRACT: note_off channel=2 note=55 velocity=100 time=0
EXTRACT: note_on channel=3 note=72 velocity=120 time=0
EXTRACT: note_on channel=3 note=67 velocity=100 time=0
EXTRACT: note_on channel=3 note=64 velocity=100 time=0
EXTRACT: note_on channel=3 note=60 velocity=100 time=0
EXTRACT: note_on channel=9 note=38 velocity=127 time=0
EXTRACT: note_on channel=9 note=38 velocity=127 time=0
EXTRACT: note_on channel=9 note=41 velocity=127 time=0
EXTRACT: note_on channel=9 note=70 velocity=127 time=0
EXTRACT: pitchwheel channel=2 pitch=640 time=0.022321249999999997
EXTRACT: note_off channel=9 note=70 velocity=127 time=0.0074404166666666655
EXTRACT: note_off channel=9 note=41 velocity=127 time=0
EXTRACT: note_off channel=9 note=38 velocity=127 time=0
EXTRACT: note_off channel=9 note=38 velocity=127 time=0
EXTRACT: pitchwheel channel=2 pitch=-256 time=0.005580312499999999
EXTRACT: pitchwheel channel=2 pitch=-512 time=0.011160624999999999
EXTRACT: pitchwheel channel=2 pitch=-384 time=0.013020729166666665
EXTRACT: pitchwheel channel=2 pitch=1024 time=0.011160624999999999
EXTRACT: pitchwheel channel=2 pitch=256 time=0.011160624999999999
EXTRACT: pitchwheel channel=2 pitch=0 time=0.013020729166666665
EXTRACT: pitchwheel channel=2 pitch=-512 time=0.011160624999999999
EXTRACT: pitchwheel channel=2 pitch=-384 time=0.013020729166666665
EXTRACT: pitchwheel channel=2 pitch=-128 time=0.022321249999999997
EXTRACT: pitchwheel channel=2 pitch=-640 time=0.013020729166666665
EXTRACT: note_on channel=9 note=70 velocity=127 time=0.024181354166666662
EXTRACT: note_on channel=5 note=35 velocity=100 time=0.011160624999999999
EXTRACT: pitchwheel channel=2 pitch=1664 time=0.011160624999999999
EXTRACT: note_off channel=5 note=36 velocity=100 time=0.0074404166666666655
EXTRACT: note_off channel=9 note=70 velocity=127 time=0
EXTRACT: pitchwheel channel=2 pitch=128 time=0.005580312499999999
EXTRACT: pitchwheel channel=2 pitch=-128 time=0.03534197916666666
EXTRACT: pitchwheel channel=2 pitch=0 time=0.024181354166666662
EXTRACT: note_off channel=2 note=60 velocity=100 time=0.07068395833333332
EXTRACT: note_off channel=1 note=48 velocity=100 time=0.013020729166666665
EXTRACT: note_off channel=1 note=52 velocity=100 time=0
EXTRACT: note_off channel=1 note=55 velocity=100 time=0
EXTRACT: note_off channel=1 note=64 velocity=100 time=0
EXTRACT: note_off channel=1 note=60 velocity=100 time=0
EXTRACT: note_on channel=1 note=60 velocity=100 time=0
EXTRACT: note_on channel=1 note=64 velocity=100 time=0
EXTRACT: note_on channel=1 note=55 velocity=100 time=0
EXTRACT: note_on channel=1 note=52 velocity=100 time=0
EXTRACT: note_on channel=1 note=48 velocity=100 time=0
EXTRACT: note_on channel=2 note=62 velocity=100 time=0
EXTRACT: note_off channel=3 note=60 velocity=100 time=0
EXTRACT: note_off channel=3 note=64 velocity=100 time=0
EXTRACT: note_off channel=3 note=67 velocity=100 time=0
EXTRACT: note_off channel=3 note=72 velocity=120 time=0
EXTRACT: note_on channel=9 note=41 velocity=127 time=0
EXTRACT: note_on channel=9 note=70 velocity=127 time=0
EXTRACT: note_off channel=5 note=35 velocity=100 time=0.011160624999999999
EXTRACT: note_on channel=5 note=36 velocity=100 time=0
EXTRACT: note_off channel=9 note=70 velocity=127 time=0.018601041666666665
EXTRACT: note_off channel=9 note=41 velocity=127 time=0
EXTRACT: note_on channel=5 note=35 velocity=100 time=0.11904666666666665
EXTRACT: note_off channel=2 note=62 velocity=100 time=0.029761666666666662
EXTRACT: note_on channel=2 note=60 velocity=100 time=0
EXTRACT: note_on channel=9 note=38 velocity=127 time=0
EXTRACT: note_on channel=9 note=70 velocity=127 time=0
EXTRACT: note_off channel=5 note=36 velocity=100 time=0.011160624999999999
EXTRACT: note_off channel=9 note=70 velocity=127 time=0.018601041666666665
EXTRACT: note_off channel=9 note=38 velocity=127 time=0
EXTRACT: note_off channel=5 note=35 velocity=100 time=0.11904666666666665
EXTRACT: note_off channel=1 note=48 velocity=100 time=0.029761666666666662
EXTRACT: note_off channel=1 note=52 velocity=100 time=0
EXTRACT: note_off channel=1 note=55 velocity=100 time=0
EXTRACT: note_off channel=1 note=64 velocity=100 time=0
EXTRACT: note_off channel=1 note=60 velocity=100 time=0
EXTRACT: note_on channel=1 note=41 velocity=100 time=0
EXTRACT: note_on channel=1 note=48 velocity=100 time=0
EXTRACT: note_on channel=1 note=53 velocity=100 time=0
EXTRACT: note_on channel=1 note=57 velocity=100 time=0
EXTRACT: note_on channel=1 note=60 velocity=100 time=0
EXTRACT: note_off channel=2 note=60 velocity=100 time=0
EXTRACT: note_on channel=2 note=62 velocity=100 time=0
EXTRACT: note_on channel=5 note=29 velocity=100 time=0
EXTRACT: note_on channel=9 note=35 velocity=127 time=0
EXTRACT: note_on channel=9 note=36 velocity=127 time=0
EXTRACT: note_on channel=9 note=41 velocity=127 time=0
EXTRACT: note_on channel=9 note=49 velocity=127 time=0
EXTRACT: note_on channel=9 note=70 velocity=127 time=0
EXTRACT: note_off channel=9 note=70 velocity=127 time=0.029761666666666662
EXTRACT: note_off channel=9 note=49 velocity=127 time=0
EXTRACT: note_off channel=9 note=41 velocity=127 time=0
EXTRACT: note_off channel=9 note=36 velocity=127 time=0
EXTRACT: note_off channel=9 note=35 velocity=127 time=0.059523333333333324
EXTRACT: pitchwheel channel=2 pitch=512 time=0.011160624999999999
EXTRACT: pitchwheel channel=2 pitch=640 time=0.011160624999999999
EXTRACT: pitchwheel channel=2 pitch=1280 time=0.013020729166666665
EXTRACT: pitchwheel channel=2 pitch=2304 time=0.011160624999999999
EXTRACT: pitchwheel channel=2 pitch=3328 time=0.013020729166666665
EXTRACT: pitchwheel channel=2 pitch=3584 time=0.011160624999999999
EXTRACT: pitchwheel channel=2 pitch=4608 time=0.011160624999999999
EXTRACT: pitchwheel channel=2 pitch=5632 time=0.013020729166666665
EXTRACT: pitchwheel channel=2 pitch=6272 time=0.011160624999999999
EXTRACT: pitchwheel channel=2 pitch=6400 time=0.013020729166666665
EXTRACT: pitchwheel channel=2 pitch=7040 time=0.011160624999999999
EXTRACT: pitchwheel channel=2 pitch=7424 time=0.011160624999999999
EXTRACT: pitchwheel channel=2 pitch=7680 time=0.013020729166666665
EXTRACT: pitchwheel channel=2 pitch=7936 time=0.024181354166666662
EXTRACT: note_off channel=5 note=29 velocity=100 time=0.08928499999999999
EXTRACT: note_on channel=5 note=29 velocity=100 time=0
EXTRACT: note_on channel=9 note=35 velocity=127 time=0
EXTRACT: note_on channel=9 note=36 velocity=127 time=0
EXTRACT: note_on channel=9 note=41 velocity=127 time=0
EXTRACT: note_on channel=9 note=70 velocity=127 time=0
EXTRACT: pitchwheel channel=2 pitch=7680 time=0.029761666666666662
EXTRACT: note_off channel=9 note=70 velocity=127 time=0
EXTRACT: note_off channel=9 note=41 velocity=127 time=0
EXTRACT: note_off channel=9 note=36 velocity=127 time=0
EXTRACT: pitchwheel channel=2 pitch=7168 time=0.022321249999999997
EXTRACT: pitchwheel channel=2 pitch=6656 time=0.013020729166666665
EXTRACT: pitchwheel channel=2 pitch=6400 time=0.011160624999999999
EXTRACT: note_off channel=9 note=35 velocity=127 time=0.013020729166666665
EXTRACT: pitchwheel channel=2 pitch=5888 time=0.011160624999999999
EXTRACT: pitchwheel channel=2 pitch=5376 time=0.011160624999999999
EXTRACT: pitchwheel channel=2 pitch=4864 time=0.013020729166666665
EXTRACT: pitchwheel channel=2 pitch=4352 time=0.024181354166666662
EXTRACT: pitchwheel channel=2 pitch=3840 time=0.011160624999999999
EXTRACT: pitchwheel channel=2 pitch=2816 time=0.011160624999999999
EXTRACT: note_on channel=9 note=70 velocity=127 time=0.0074404166666666655
EXTRACT: pitchwheel channel=2 pitch=1920 time=0.016740937499999997
EXTRACT: pitchwheel channel=2 pitch=1280 time=0.013020729166666665
EXTRACT: note_off channel=9 note=70 velocity=127 time=0
EXTRACT: pitchwheel channel=2 pitch=896 time=0.011160624999999999
EXTRACT: pitchwheel channel=2 pitch=768 time=0.011160624999999999
EXTRACT: pitchwheel channel=2 pitch=384 time=0.013020729166666665
EXTRACT: pitchwheel channel=2 pitch=256 time=0.011160624999999999
EXTRACT: pitchwheel channel=2 pitch=0 time=0.013020729166666665
EXTRACT: note_off channel=1 note=60 velocity=100 time=0.08928499999999999
EXTRACT: note_off channel=1 note=57 velocity=100 time=0
EXTRACT: note_off channel=1 note=53 velocity=100 time=0
EXTRACT: note_off channel=1 note=48 velocity=100 time=0
EXTRACT: note_off channel=1 note=41 velocity=100 time=0
EXTRACT: note_on channel=1 note=41 velocity=100 time=0
EXTRACT: note_on channel=1 note=48 velocity=100 time=0
EXTRACT: note_on channel=1 note=53 velocity=100 time=0
EXTRACT: note_on channel=1 note=57 velocity=100 time=0
EXTRACT: note_on channel=1 note=60 velocity=100 time=0
EXTRACT: note_off channel=2 note=62 velocity=100 time=0
EXTRACT: note_on channel=2 note=62 velocity=100 time=0
EXTRACT: note_on channel=3 note=65 velocity=100 time=0
EXTRACT: note_on channel=3 note=60 velocity=100 time=0
EXTRACT: note_on channel=3 note=57 velocity=100 time=0
EXTRACT: note_on channel=3 note=53 velocity=100 time=0
EXTRACT: note_off channel=5 note=29 velocity=100 time=0
EXTRACT: note_on channel=5 note=29 velocity=100 time=0
EXTRACT: note_on channel=9 note=38 velocity=127 time=0
EXTRACT: note_on channel=9 note=38 velocity=127 time=0
EXTRACT: note_on channel=9 note=41 velocity=127 time=0
EXTRACT: note_on channel=9 note=70 velocity=127 time=0
EXTRACT: note_off channel=9 note=70 velocity=127 time=0.029761666666666662
EXTRACT: note_off channel=9 note=41 velocity=127 time=0
EXTRACT: note_off channel=9 note=38 velocity=127 time=0
EXTRACT: note_off channel=9 note=38 velocity=127 time=0
EXTRACT: pitchwheel channel=2 pitch=512 time=0.07068395833333332
EXTRACT: pitchwheel channel=2 pitch=640 time=0.011160624999999999
EXTRACT: pitchwheel channel=2 pitch=1280 time=0.013020729166666665
EXTRACT: pitchwheel channel=2 pitch=2304 time=0.011160624999999999
EXTRACT: pitchwheel channel=2 pitch=3328 time=0.013020729166666665
EXTRACT: pitchwheel channel=2 pitch=3584 time=0.011160624999999999
EXTRACT: pitchwheel channel=2 pitch=4608 time=0.011160624999999999
EXTRACT: pitchwheel channel=2 pitch=5632 time=0.013020729166666665
EXTRACT: pitchwheel channel=2 pitch=6272 time=0.011160624999999999
EXTRACT: pitchwheel channel=2 pitch=6400 time=0.013020729166666665
EXTRACT: pitchwheel channel=2 pitch=7040 time=0.011160624999999999
EXTRACT: pitchwheel channel=2 pitch=7424 time=0.011160624999999999
EXTRACT: pitchwheel channel=2 pitch=7680 time=0.013020729166666665
EXTRACT: pitchwheel channel=2 pitch=7936 time=0.024181354166666662
EXTRACT: note_off channel=1 note=60 velocity=100 time=0.08928499999999999
EXTRACT: note_off channel=1 note=57 velocity=100 time=0
EXTRACT: note_off channel=1 note=53 velocity=100 time=0
EXTRACT: note_off channel=1 note=48 velocity=100 time=0
EXTRACT: note_off channel=1 note=41 velocity=100 time=0
EXTRACT: note_on channel=1 note=41 velocity=100 time=0
EXTRACT: note_on channel=1 note=48 velocity=100 time=0
EXTRACT: note_on channel=1 note=53 velocity=100 time=0
EXTRACT: note_on channel=1 note=57 velocity=100 time=0
EXTRACT: note_on channel=1 note=60 velocity=100 time=0
EXTRACT: note_off channel=3 note=53 velocity=100 time=0
EXTRACT: note_off channel=3 note=57 velocity=100 time=0
EXTRACT: note_off channel=3 note=60 velocity=100 time=0
EXTRACT: note_off channel=3 note=65 velocity=100 time=0
EXTRACT: note_off channel=5 note=29 velocity=100 time=0
EXTRACT: note_on channel=5 note=29 velocity=100 time=0
EXTRACT: note_on channel=9 note=41 velocity=127 time=0
EXTRACT: note_on channel=9 note=70 velocity=127 time=0
EXTRACT: pitchwheel channel=2 pitch=7680 time=0.029761666666666662
EXTRACT: note_off channel=9 note=70 velocity=127 time=0
EXTRACT: note_off channel=9 note=41 velocity=127 time=0
EXTRACT: pitchwheel channel=2 pitch=7168 time=0.022321249999999997
EXTRACT: pitchwheel channel=2 pitch=6656 time=0.013020729166666665
EXTRACT: pitchwheel channel=2 pitch=6400 time=0.011160624999999999
EXTRACT: pitchwheel channel=2 pitch=5888 time=0.024181354166666662
EXTRACT: pitchwheel channel=2 pitch=5376 time=0.011160624999999999
EXTRACT: pitchwheel channel=2 pitch=4864 time=0.013020729166666665
EXTRACT: pitchwheel channel=2 pitch=4352 time=0.024181354166666662
EXTRACT: pitchwheel channel=2 pitch=3840 time=0.011160624999999999
EXTRACT: pitchwheel channel=2 pitch=2816 time=0.011160624999999999
EXTRACT: note_off channel=5 note=29 velocity=100 time=0.0074404166666666655
EXTRACT: note_on channel=5 note=29 velocity=100 time=0
EXTRACT: note_on channel=9 note=45 velocity=127 time=0
EXTRACT: note_on channel=9 note=70 velocity=127 time=0
EXTRACT: pitchwheel channel=2 pitch=1920 time=0.016740937499999997
EXTRACT: pitchwheel channel=2 pitch=1280 time=0.013020729166666665
EXTRACT: note_off channel=9 note=70 velocity=127 time=0
EXTRACT: note_off channel=9 note=45 velocity=127 time=0
EXTRACT: pitchwheel channel=2 pitch=896 time=0.011160624999999999
EXTRACT: pitchwheel channel=2 pitch=768 time=0.011160624999999999
EXTRACT: pitchwheel channel=2 pitch=384 time=0.013020729166666665
EXTRACT: pitchwheel channel=2 pitch=256 time=0.011160624999999999
EXTRACT: pitchwheel channel=2 pitch=0 time=0.013020729166666665
EXTRACT: note_off channel=1 note=60 velocity=100 time=0.08928499999999999
EXTRACT: note_off channel=1 note=57 velocity=100 time=0
EXTRACT: note_off channel=1 note=53 velocity=100 time=0
EXTRACT: note_off channel=1 note=48 velocity=100 time=0
EXTRACT: note_off channel=1 note=41 velocity=100 time=0
EXTRACT: note_on channel=1 note=41 velocity=100 time=0
EXTRACT: note_on channel=1 note=48 velocity=100 time=0
EXTRACT: note_on channel=1 note=53 velocity=100 time=0
EXTRACT: note_on channel=1 note=56 velocity=100 time=0
EXTRACT: note_on channel=1 note=60 velocity=100 time=0
EXTRACT: note_on channel=1 note=65 velocity=100 time=0
EXTRACT: note_off channel=2 note=62 velocity=100 time=0
EXTRACT: note_off channel=5 note=29 velocity=100 time=0
EXTRACT: note_on channel=5 note=29 velocity=100 time=0
EXTRACT: note_on channel=9 note=35 velocity=127 time=0
EXTRACT: note_on channel=9 note=36 velocity=127 time=0
EXTRACT: note_on channel=9 note=41 velocity=127 time=0
EXTRACT: note_on channel=9 note=70 velocity=127 time=0
EXTRACT: note_on channel=2 note=62 velocity=100 time=0.011160624999999999
EXTRACT: note_off channel=9 note=70 velocity=127 time=0.018601041666666665
EXTRACT: note_off channel=9 note=41 velocity=127 time=0
EXTRACT: note_off channel=9 note=36 velocity=127 time=0
EXTRACT: note_off channel=9 note=35 velocity=127 time=0.059523333333333324
EXTRACT: pitchwheel channel=2 pitch=512 time=0.08928499999999999
EXTRACT: note_off channel=5 note=29 velocity=100 time=0
EXTRACT: note_on channel=5 note=29 velocity=100 time=0
EXTRACT: note_on channel=9 note=45 velocity=127 time=0
EXTRACT: pitchwheel channel=2 pitch=640 time=0.011160624999999999
EXTRACT: pitchwheel channel=2 pitch=1280 time=0.011160624999999999
EXTRACT: note_off channel=9 note=45 velocity=127 time=0.0074404166666666655
EXTRACT: pitchwheel channel=2 pitch=2304 time=0.005580312499999999
EXTRACT: pitchwheel channel=2 pitch=3328 time=0.011160624999999999
EXTRACT: pitchwheel channel=2 pitch=3584 time=0.013020729166666665
EXTRACT: pitchwheel channel=2 pitch=4608 time=0.011160624999999999
EXTRACT: pitchwheel channel=2 pitch=5632 time=0.011160624999999999
EXTRACT: pitchwheel channel=2 pitch=6272 time=0.013020729166666665
EXTRACT: pitchwheel channel=2 pitch=6400 time=0.011160624999999999
EXTRACT: pitchwheel channel=2 pitch=7040 time=0.013020729166666665
EXTRACT: pitchwheel channel=2 pitch=7424 time=0.011160624999999999
EXTRACT: pitchwheel channel=2 pitch=7680 time=0.011160624999999999
EXTRACT: pitchwheel channel=2 pitch=7936 time=0.024181354166666662
EXTRACT: note_off channel=5 note=29 velocity=100 time=0.013020729166666665
EXTRACT: note_on channel=5 note=29 velocity=100 time=0
EXTRACT: note_on channel=9 note=35 velocity=127 time=0
EXTRACT: note_on channel=9 note=36 velocity=127 time=0
EXTRACT: note_on channel=9 note=41 velocity=127 time=0
EXTRACT: note_on channel=9 note=70 velocity=127 time=0
EXTRACT: note_off channel=9 note=70 velocity=127 time=0.029761666666666662
EXTRACT: note_off channel=9 note=41 velocity=127 time=0
EXTRACT: note_off channel=9 note=36 velocity=127 time=0
EXTRACT: note_off channel=9 note=35 velocity=127 time=0.059523333333333324
EXTRACT: pitchwheel channel=2 pitch=7680 time=0.016740937499999997
EXTRACT: pitchwheel channel=2 pitch=7168 time=0.024181354166666662
EXTRACT: pitchwheel channel=2 pitch=6656 time=0.011160624999999999
EXTRACT: pitchwheel channel=2 pitch=6400 time=0.013020729166666665
EXTRACT: pitchwheel channel=2 pitch=5888 time=0.024181354166666662
EXTRACT: note_on channel=9 note=70 velocity=127 time=0
EXTRACT: pitchwheel channel=2 pitch=5376 time=0.011160624999999999
EXTRACT: pitchwheel channel=2 pitch=4864 time=0.011160624999999999
EXTRACT: note_off channel=9 note=70 velocity=127 time=0.0074404166666666655
EXTRACT: pitchwheel channel=2 pitch=4352 time=0.016740937499999997
EXTRACT: pitchwheel channel=2 pitch=3840 time=0.013020729166666665
EXTRACT: pitchwheel channel=2 pitch=2816 time=0.011160624999999999
EXTRACT: pitchwheel channel=2 pitch=1920 time=0.024181354166666662
EXTRACT: pitchwheel channel=2 pitch=1280 time=0.011160624999999999
EXTRACT: pitchwheel channel=2 pitch=896 time=0.013020729166666665
EXTRACT: pitchwheel channel=2 pitch=768 time=0.011160624999999999
EXTRACT: note_on channel=2 note=60 velocity=100 time=0.005580312499999999
EXTRACT: pitchwheel channel=2 pitch=384 time=0.005580312499999999
EXTRACT: pitchwheel channel=2 pitch=256 time=0.013020729166666665
EXTRACT: pitchwheel channel=2 pitch=0 time=0.011160624999999999
EXTRACT: note_off channel=1 note=65 velocity=100 time=0.013020729166666665
EXTRACT: note_off channel=1 note=60 velocity=100 time=0
EXTRACT: note_off channel=1 note=56 velocity=100 time=0
EXTRACT: note_off channel=1 note=53 velocity=100 time=0
EXTRACT: note_off channel=1 note=48 velocity=100 time=0
EXTRACT: note_off channel=1 note=41 velocity=100 time=0
EXTRACT: note_on channel=1 note=41 velocity=100 time=0
EXTRACT: note_on channel=1 note=48 velocity=100 time=0
EXTRACT: note_on channel=1 note=53 velocity=100 time=0
EXTRACT: note_on channel=1 note=56 velocity=100 time=0
EXTRACT: note_on channel=1 note=60 velocity=100 time=0
EXTRACT: note_on channel=1 note=65 velocity=100 time=0
EXTRACT: note_on channel=3 note=65 velocity=100 time=0
EXTRACT: note_on channel=3 note=60 velocity=100 time=0
EXTRACT: note_on channel=3 note=56 velocity=100 time=0
EXTRACT: note_on channel=3 note=53 velocity=100 time=0
EXTRACT: note_off channel=5 note=29 velocity=100 time=0
EXTRACT: note_on channel=5 note=29 velocity=100 time=0
EXTRACT: note_on channel=9 note=38 velocity=127 time=0
EXTRACT: note_on channel=9 note=38 velocity=127 time=0
EXTRACT: note_on channel=9 note=41 velocity=127 time=0
EXTRACT: note_on channel=9 note=70 velocity=127 time=0
EXTRACT: note_off channel=2 note=62 velocity=100 time=0.011160624999999999
EXTRACT: note_off channel=9 note=70 velocity=127 time=0.018601041666666665
EXTRACT: note_off channel=9 note=41 velocity=127 time=0
EXTRACT: note_off channel=9 note=38 velocity=127 time=0
EXTRACT: note_off channel=9 note=38 velocity=127 time=0
EXTRACT: note_on channel=9 note=70 velocity=127 time=0.14880833333333332
EXTRACT: note_off channel=9 note=70 velocity=127 time=0.029761666666666662
EXTRACT: note_off channel=2 note=60 velocity=100 time=0.10602593749999999
EXTRACT: note_off channel=1 note=65 velocity=100 time=0.04278239583333333
EXTRACT: note_off channel=1 note=60 velocity=100 time=0
EXTRACT: note_off channel=1 note=56 velocity=100 time=0
EXTRACT: note_off channel=1 note=53 velocity=100 time=0
EXTRACT: note_off channel=1 note=48 velocity=100 time=0
EXTRACT: note_off channel=1 note=41 velocity=100 time=0
EXTRACT: note_on channel=1 note=41 velocity=100 time=0
EXTRACT: note_on channel=1 note=48 velocity=100 time=0
EXTRACT: note_on channel=1 note=53 velocity=100 time=0
EXTRACT: note_on channel=1 note=56 velocity=100 time=0
EXTRACT: note_on channel=1 note=60 velocity=100 time=0
EXTRACT: note_on channel=1 note=65 velocity=100 time=0
EXTRACT: note_on channel=2 note=55 velocity=100 time=0
EXTRACT: note_off channel=3 note=53 velocity=100 time=0
EXTRACT: note_off channel=3 note=56 velocity=100 time=0
EXTRACT: note_off channel=3 note=60 velocity=100 time=0
EXTRACT: note_off channel=3 note=65 velocity=100 time=0
EXTRACT: note_off channel=5 note=29 velocity=100 time=0
EXTRACT: note_on channel=5 note=31 velocity=100 time=0
EXTRACT: note_on channel=9 note=41 velocity=127 time=0
EXTRACT: note_on channel=9 note=70 velocity=127 time=0
EXTRACT: note_off channel=9 note=70 velocity=127 time=0.029761666666666662
EXTRACT: note_off channel=9 note=41 velocity=127 time=0
EXTRACT: note_off channel=5 note=31 velocity=100 time=0.14880833333333332
EXTRACT: note_on channel=5 note=33 velocity=100 time=0
EXTRACT: note_on channel=9 note=70 velocity=127 time=0
EXTRACT: note_off channel=9 note=70 velocity=127 time=0.029761666666666662
EXTRACT: note_off channel=1 note=65 velocity=100 time=0.14880833333333332
EXTRACT: note_off channel=1 note=60 velocity=100 time=0
EXTRACT: note_off channel=1 note=56 velocity=100 time=0
EXTRACT: note_off channel=1 note=53 velocity=100 time=0
EXTRACT: note_off channel=1 note=48 velocity=100 time=0
EXTRACT: note_off channel=1 note=41 velocity=100 time=0
EXTRACT: note_on channel=1 note=48 velocity=100 time=0
EXTRACT: note_on channel=1 note=52 velocity=100 time=0
EXTRACT: note_on channel=1 note=55 velocity=100 time=0
EXTRACT: note_on channel=1 note=60 velocity=100 time=0
EXTRACT: note_on channel=1 note=64 velocity=100 time=0
EXTRACT: note_off channel=5 note=33 velocity=100 time=0
EXTRACT: note_on channel=5 note=36 velocity=100 time=0
EXTRACT: note_on channel=9 note=35 velocity=127 time=0
EXTRACT: note_on channel=9 note=36 velocity=127 time=0
EXTRACT: note_on channel=9 note=41 velocity=127 time=0
EXTRACT: note_on channel=9 note=70 velocity=127 time=0
EXTRACT: note_off channel=9 note=70 velocity=127 time=0.029761666666666662
EXTRACT: note_off channel=9 note=41 velocity=127 time=0
EXTRACT: note_off channel=9 note=36 velocity=127 time=0
EXTRACT: note_off channel=9 note=35 velocity=127 time=0.059523333333333324
EXTRACT: note_on channel=2 note=55 velocity=100 time=0.21949229166666664
EXTRACT: note_off channel=2 note=55 velocity=100 time=0.048362708333333324
EXTRACT: note_on channel=2 note=57 velocity=100 time=0
EXTRACT: note_off channel=5 note=36 velocity=100 time=0
EXTRACT: note_on channel=5 note=36 velocity=100 time=0
EXTRACT: note_on channel=9 note=35 velocity=127 time=0
EXTRACT: note_on channel=9 note=36 velocity=127 time=0
EXTRACT: note_on channel=9 note=41 velocity=127 time=0
EXTRACT: note_on channel=9 note=70 velocity=127 time=0
EXTRACT: note_on channel=2 note=60 velocity=100 time=0.011160624999999999
EXTRACT: note_off channel=9 note=70 velocity=127 time=0.018601041666666665
EXTRACT: note_off channel=9 note=41 velocity=127 time=0
EXTRACT: note_off channel=9 note=36 velocity=127 time=0
EXTRACT: note_off channel=2 note=55 velocity=100 time=0.011160624999999999
EXTRACT: note_off channel=9 note=35 velocity=127 time=0.048362708333333324
EXTRACT: note_on channel=9 note=70 velocity=127 time=0.08928499999999999
EXTRACT: note_off channel=9 note=70 velocity=127 time=0.029761666666666662
EXTRACT: note_on channel=2 note=55 velocity=100 time=0.08928499999999999
EXTRACT: note_off channel=1 note=64 velocity=100 time=0.059523333333333324
EXTRACT: note_off channel=1 note=60 velocity=100 time=0
EXTRACT: note_off channel=1 note=55 velocity=100 time=0
EXTRACT: note_off channel=1 note=52 velocity=100 time=0
EXTRACT: note_off channel=1 note=48 velocity=100 time=0
EXTRACT: note_on channel=1 note=64 velocity=100 time=0
EXTRACT: note_on channel=1 note=60 velocity=100 time=0
EXTRACT: note_on channel=1 note=55 velocity=100 time=0
EXTRACT: note_on channel=1 note=52 velocity=100 time=0
EXTRACT: note_on channel=1 note=48 velocity=100 time=0
EXTRACT: note_off channel=2 note=57 velocity=100 time=0
EXTRACT: note_on channel=2 note=60 velocity=100 time=0
EXTRACT: note_on channel=3 note=67 velocity=100 time=0
EXTRACT: note_on channel=3 note=64 velocity=100 time=0
EXTRACT: note_on channel=3 note=60 velocity=100 time=0
EXTRACT: note_off channel=5 note=36 velocity=100 time=0
EXTRACT: note_on channel=5 note=36 velocity=100 time=0
EXTRACT: note_on channel=9 note=38 velocity=127 time=0
EXTRACT: note_on channel=9 note=38 velocity=127 time=0
EXTRACT: note_on channel=9 note=41 velocity=127 time=0
EXTRACT: note_on channel=9 note=70 velocity=127 time=0
EXTRACT: note_off channel=2 note=60 velocity=100 time=0.011160624999999999
EXTRACT: note_on channel=2 note=57 velocity=100 time=0.011160624999999999
EXTRACT: note_off channel=2 note=55 velocity=100 time=0.0074404166666666655
EXTRACT: note_off channel=9 note=70 velocity=127 time=0
EXTRACT: note_off channel=9 note=41 velocity=127 time=0
EXTRACT: note_off channel=9 note=38 velocity=127 time=0
EXTRACT: note_off channel=9 note=38 velocity=127 time=0
EXTRACT: note_off channel=1 note=48 velocity=100 time=0.32737833333333327
EXTRACT: note_off channel=1 note=52 velocity=100 time=0
EXTRACT: note_off channel=1 note=55 velocity=100 time=0
EXTRACT: note_off channel=1 note=60 velocity=100 time=0
EXTRACT: note_off channel=1 note=64 velocity=100 time=0
EXTRACT: note_on channel=1 note=60 velocity=100 time=0
EXTRACT: note_on channel=1 note=64 velocity=100 time=0
EXTRACT: note_on channel=1 note=55 velocity=100 time=0
EXTRACT: note_on channel=1 note=52 velocity=100 time=0
EXTRACT: note_on channel=1 note=48 velocity=100 time=0
EXTRACT: note_off channel=3 note=60 velocity=100 time=0
EXTRACT: note_off channel=3 note=64 velocity=100 time=0
EXTRACT: note_off channel=3 note=67 velocity=100 time=0
EXTRACT: note_off channel=5 note=36 velocity=100 time=0
EXTRACT: note_on channel=5 note=36 velocity=100 time=0
EXTRACT: note_on channel=9 note=41 velocity=127 time=0
EXTRACT: note_on channel=9 note=70 velocity=127 time=0
EXTRACT: note_off channel=9 note=70 velocity=127 time=0.029761666666666662
EXTRACT: note_off channel=9 note=41 velocity=127 time=0
EXTRACT: note_off channel=2 note=60 velocity=100 time=0.14880833333333332
EXTRACT: note_off channel=5 note=36 velocity=100 time=0
EXTRACT: note_on channel=5 note=33 velocity=100 time=0
EXTRACT: note_on channel=9 note=45 velocity=127 time=0
EXTRACT: note_on channel=9 note=70 velocity=127 time=0
EXTRACT: note_on channel=2 note=50 velocity=100 time=0.011160624999999999
EXTRACT: note_off channel=2 note=57 velocity=100 time=0.011160624999999999
EXTRACT: note_off channel=9 note=70 velocity=127 time=0.0074404166666666655
EXTRACT: note_off channel=9 note=45 velocity=127 time=0
EXTRACT: note_on channel=2 note=52 velocity=100 time=0.10602593749999999
EXTRACT: note_off channel=1 note=48 velocity=100 time=0.04278239583333333
EXTRACT: note_off channel=1 note=52 velocity=100 time=0
EXTRACT: note_off channel=1 note=55 velocity=100 time=0
EXTRACT: note_off channel=1 note=64 velocity=100 time=0
EXTRACT: note_off channel=1 note=60 velocity=100 time=0
EXTRACT: note_on channel=1 note=60 velocity=100 time=0
EXTRACT: note_on channel=1 note=64 velocity=100 time=0
EXTRACT: note_on channel=1 note=55 velocity=100 time=0
EXTRACT: note_on channel=1 note=52 velocity=100 time=0
EXTRACT: note_on channel=1 note=48 velocity=100 time=0
EXTRACT: note_off channel=5 note=33 velocity=100 time=0
EXTRACT: note_on channel=5 note=36 velocity=100 time=0
EXTRACT: note_on channel=9 note=35 velocity=127 time=0
EXTRACT: note_on channel=9 note=36 velocity=127 time=0
EXTRACT: note_on channel=9 note=41 velocity=127 time=0
EXTRACT: note_on channel=9 note=70 velocity=127 time=0
EXTRACT: note_off channel=2 note=50 velocity=100 time=0.011160624999999999
EXTRACT: note_off channel=9 note=70 velocity=127 time=0.018601041666666665
EXTRACT: note_off channel=9 note=41 velocity=127 time=0
EXTRACT: note_off channel=9 note=36 velocity=127 time=0
EXTRACT: note_off channel=9 note=35 velocity=127 time=0.059523333333333324
EXTRACT: note_off channel=2 note=52 velocity=100 time=0.04650260416666666
EXTRACT: note_on channel=2 note=55 velocity=100 time=0.018601041666666665
EXTRACT: note_off channel=5 note=36 velocity=100 time=0.024181354166666662
EXTRACT: note_on channel=5 note=33 velocity=100 time=0
EXTRACT: note_on channel=9 note=45 velocity=127 time=0
EXTRACT: note_off channel=9 note=45 velocity=127 time=0.029761666666666662
EXTRACT: note_off channel=2 note=55 velocity=100 time=0.12462697916666665
EXTRACT: note_off channel=1 note=48 velocity=100 time=0.024181354166666662
EXTRACT: note_off channel=1 note=52 velocity=100 time=0
EXTRACT: note_off channel=1 note=55 velocity=100 time=0
EXTRACT: note_off channel=1 note=64 velocity=100 time=0
EXTRACT: note_off channel=1 note=60 velocity=100 time=0
EXTRACT: note_on channel=1 note=60 velocity=100 time=0
EXTRACT: note_on channel=1 note=64 velocity=100 time=0
EXTRACT: note_on channel=1 note=55 velocity=100 time=0
EXTRACT: note_on channel=1 note=52 velocity=100 time=0
EXTRACT: note_on channel=1 note=48 velocity=100 time=0
EXTRACT: note_off channel=5 note=33 velocity=100 time=0
EXTRACT: note_on channel=5 note=31 velocity=100 time=0
EXTRACT: note_on channel=9 note=36 velocity=127 time=0
EXTRACT: note_on channel=9 note=41 velocity=127 time=0
EXTRACT: note_on channel=9 note=70 velocity=127 time=0
EXTRACT: note_on channel=2 note=52 velocity=100 time=0.022321249999999997
EXTRACT: note_off channel=9 note=70 velocity=127 time=0.0074404166666666655
EXTRACT: note_off channel=9 note=41 velocity=127 time=0
EXTRACT: note_off channel=9 note=36 velocity=127 time=0
EXTRACT: note_on channel=2 note=50 velocity=100 time=0.11904666666666665
EXTRACT: note_off channel=5 note=31 velocity=100 time=0.029761666666666662
EXTRACT: note_on channel=9 note=35 velocity=127 time=0
EXTRACT: note_on channel=9 note=70 velocity=127 time=0
EXTRACT: note_off channel=2 note=52 velocity=100 time=0.022321249999999997
EXTRACT: note_on channel=5 note=36 velocity=100 time=0.0074404166666666655
EXTRACT: note_off channel=9 note=70 velocity=127 time=0
EXTRACT: note_off channel=9 note=35 velocity=127 time=0.059523333333333324
EXTRACT: note_off channel=2 note=50 velocity=100 time=0.059523333333333324
EXTRACT: note_off channel=1 note=48 velocity=100 time=0.029761666666666662
EXTRACT: note_off channel=1 note=52 velocity=100 time=0
EXTRACT: note_off channel=1 note=55 velocity=100 time=0
EXTRACT: note_off channel=1 note=64 velocity=100 time=0
EXTRACT: note_off channel=1 note=60 velocity=100 time=0
EXTRACT: note_on channel=1 note=60 velocity=100 time=0
EXTRACT: note_on channel=1 note=64 velocity=100 time=0
EXTRACT: note_on channel=1 note=55 velocity=100 time=0
EXTRACT: note_on channel=1 note=52 velocity=100 time=0
EXTRACT: note_on channel=1 note=48 velocity=100 time=0
EXTRACT: note_on channel=3 note=72 velocity=120 time=0
EXTRACT: note_on channel=3 note=67 velocity=100 time=0
EXTRACT: note_on channel=3 note=64 velocity=100 time=0
EXTRACT: note_on channel=3 note=60 velocity=100 time=0
EXTRACT: note_on channel=9 note=38 velocity=127 time=0
EXTRACT: note_on channel=9 note=38 velocity=127 time=0
EXTRACT: note_on channel=9 note=41 velocity=127 time=0
EXTRACT: note_on channel=9 note=70 velocity=127 time=0
EXTRACT: note_on channel=2 note=48 velocity=100 time=0.005580312499999999
EXTRACT: note_off channel=9 note=70 velocity=127 time=0.024181354166666662
EXTRACT: note_off channel=9 note=41 velocity=127 time=0
EXTRACT: note_off channel=9 note=38 velocity=127 time=0
EXTRACT: note_off channel=9 note=38 velocity=127 time=0
EXTRACT: note_on channel=9 note=70 velocity=127 time=0.14880833333333332
EXTRACT: note_on channel=5 note=35 velocity=100 time=0.011160624999999999
EXTRACT: note_off channel=5 note=36 velocity=100 time=0.018601041666666665
EXTRACT: note_off channel=9 note=70 velocity=127 time=0
EXTRACT: note_off channel=1 note=48 velocity=100 time=0.14880833333333332
EXTRACT: note_off channel=1 note=52 velocity=100 time=0
EXTRACT: note_off channel=1 note=55 velocity=100 time=0
EXTRACT: note_off channel=1 note=64 velocity=100 time=0
EXTRACT: note_off channel=1 note=60 velocity=100 time=0
EXTRACT: note_on channel=1 note=60 velocity=100 time=0
EXTRACT: note_on channel=1 note=64 velocity=100 time=0
EXTRACT: note_on channel=1 note=55 velocity=100 time=0
EXTRACT: note_on channel=1 note=52 velocity=100 time=0
EXTRACT: note_on channel=1 note=48 velocity=100 time=0
EXTRACT: note_off channel=3 note=60 velocity=100 time=0
EXTRACT: note_off channel=3 note=64 velocity=100 time=0
EXTRACT: note_off channel=3 note=67 velocity=100 time=0
EXTRACT: note_off channel=3 note=72 velocity=120 time=0
EXTRACT: note_on channel=9 note=41 velocity=127 time=0
EXTRACT: note_on channel=9 note=70 velocity=127 time=0
EXTRACT: note_off channel=5 note=35 velocity=100 time=0.011160624999999999
EXTRACT: note_on channel=5 note=36 velocity=100 time=0
EXTRACT: note_off channel=9 note=70 velocity=127 time=0.018601041666666665
EXTRACT: note_off channel=9 note=41 velocity=127 time=0
EXTRACT: note_on channel=2 note=47 velocity=100 time=0.10602593749999999
EXTRACT: note_on channel=5 note=35 velocity=100 time=0.013020729166666665
EXTRACT: note_on channel=9 note=38 velocity=127 time=0.029761666666666662
EXTRACT: note_on channel=9 note=70 velocity=127 time=0
EXTRACT: note_off channel=2 note=48 velocity=100 time=0.005580312499999999
EXTRACT: note_off channel=5 note=36 velocity=100 time=0.005580312499999999
EXTRACT: note_off channel=9 note=70 velocity=127 time=0.018601041666666665
EXTRACT: note_off channel=9 note=38 velocity=127 time=0
EXTRACT: note_off channel=2 note=47 velocity=100 time=0.10602593749999999
EXTRACT: note_off channel=5 note=35 velocity=100 time=0.013020729166666665
EXTRACT: note_off channel=1 note=48 velocity=100 time=0.029761666666666662
EXTRACT: note_off channel=1 note=52 velocity=100 time=0
EXTRACT: note_off channel=1 note=55 velocity=100 time=0
EXTRACT: note_off channel=1 note=64 velocity=100 time=0
EXTRACT: note_off channel=1 note=60 velocity=100 time=0
EXTRACT: note_on channel=1 note=41 velocity=100 time=0
EXTRACT: note_on channel=1 note=48 velocity=100 time=0
EXTRACT: note_on channel=1 note=53 velocity=100 time=0
EXTRACT: note_on channel=1 note=57 velocity=100 time=0
EXTRACT: note_on channel=1 note=60 velocity=100 time=0
EXTRACT: note_on channel=2 note=43 velocity=100 time=0
EXTRACT: note_on channel=5 note=29 velocity=100 time=0
EXTRACT: note_on channel=9 note=35 velocity=127 time=0
EXTRACT: note_on channel=9 note=36 velocity=127 time=0
EXTRACT: note_on channel=9 note=41 velocity=127 time=0
EXTRACT: note_on channel=9 note=49 velocity=127 time=0
EXTRACT: note_on channel=9 note=70 velocity=127 time=0
EXTRACT: note_off channel=9 note=70 velocity=127 time=0.029761666666666662
EXTRACT: note_off channel=9 note=49 velocity=127 time=0
EXTRACT: note_off channel=9 note=41 velocity=127 time=0
EXTRACT: note_off channel=9 note=36 velocity=127 time=0
EXTRACT: note_off channel=9 note=35 velocity=127 time=0.059523333333333324
EXTRACT: note_off channel=2 note=43 velocity=100 time=0.08928499999999999
EXTRACT: note_on channel=2 note=45 velocity=100 time=0
EXTRACT: note_off channel=2 note=45 velocity=100 time=0.17856999999999998
EXTRACT: note_on channel=2 note=48 velocity=100 time=0
EXTRACT: note_off channel=5 note=29 velocity=100 time=0
EXTRACT: note_on channel=5 note=29 velocity=100 time=0
EXTRACT: note_on channel=9 note=35 velocity=127 time=0
EXTRACT: note_on channel=9 note=36 velocity=127 time=0
EXTRACT: note_on channel=9 note=41 velocity=127 time=0
EXTRACT: note_on channel=9 note=70 velocity=127 time=0
EXTRACT: note_off channel=9 note=70 velocity=127 time=0.029761666666666662
EXTRACT: note_off channel=9 note=41 velocity=127 time=0
EXTRACT: note_off channel=9 note=36 velocity=127 time=0
EXTRACT: note_off channel=9 note=35 velocity=127 time=0.059523333333333324
EXTRACT: note_off channel=2 note=48 velocity=100 time=0.08928499999999999
EXTRACT: note_on channel=2 note=50 velocity=100 time=0
EXTRACT: note_on channel=9 note=70 velocity=127 time=0
EXTRACT: note_off channel=9 note=70 velocity=127 time=0.029761666666666662
EXTRACT: note_off channel=1 note=60 velocity=100 time=0.14880833333333332
EXTRACT: note_off channel=1 note=57 velocity=100 time=0
EXTRACT: note_off channel=1 note=53 velocity=100 time=0
EXTRACT: note_off channel=1 note=48 velocity=100 time=0
EXTRACT: note_off channel=1 note=41 velocity=100 time=0
EXTRACT: note_on channel=1 note=41 velocity=100 time=0
EXTRACT: note_on channel=1 note=48 velocity=100 time=0
EXTRACT: note_on channel=1 note=53 velocity=100 time=0
EXTRACT: note_on channel=1 note=57 velocity=100 time=0
EXTRACT: note_on channel=1 note=60 velocity=100 time=0
EXTRACT: note_off channel=2 note=50 velocity=100 time=0
EXTRACT: note_on channel=2 note=52 velocity=100 time=0
EXTRACT: note_on channel=3 note=65 velocity=100 time=0
EXTRACT: note_on channel=3 note=60 velocity=100 time=0
EXTRACT: note_on channel=3 note=57 velocity=100 time=0
EXTRACT: note_on channel=3 note=53 velocity=100 time=0
EXTRACT: note_off channel=5 note=29 velocity=100 time=0
EXTRACT: note_on channel=5 note=29 velocity=100 time=0
EXTRACT: note_on channel=9 note=38 velocity=127 time=0
EXTRACT: note_on channel=9 note=38 velocity=127 time=0
EXTRACT: note_on channel=9 note=41 velocity=127 time=0
EXTRACT: note_on channel=9 note=70 velocity=127 time=0
EXTRACT: note_off channel=9 note=70 velocity=127 time=0.029761666666666662
EXTRACT: note_off channel=9 note=41 velocity=127 time=0
EXTRACT: note_off channel=9 note=38 velocity=127 time=0
EXTRACT: note_off channel=9 note=38 velocity=127 time=0
EXTRACT: note_off channel=2 note=52 velocity=100 time=0.14880833333333332
EXTRACT: note_on channel=2 note=55 velocity=100 time=0
EXTRACT: note_off channel=1 note=60 velocity=100 time=0.17856999999999998
EXTRACT: note_off channel=1 note=57 velocity=100 time=0
EXTRACT: note_off channel=1 note=53 velocity=100 time=0
EXTRACT: note_off channel=1 note=48 velocity=100 time=0
EXTRACT: note_off channel=1 note=41 velocity=100 time=0
EXTRACT: note_on channel=1 note=41 velocity=100 time=0
EXTRACT: note_on channel=1 note=48 velocity=100 time=0
EXTRACT: note_on channel=1 note=53 velocity=100 time=0
EXTRACT: note_on channel=1 note=57 velocity=100 time=0
EXTRACT: note_on channel=1 note=60 velocity=100 time=0
EXTRACT: note_off channel=2 note=55 velocity=100 time=0
EXTRACT: note_on channel=2 note=57 velocity=100 time=0
EXTRACT: note_off channel=3 note=53 velocity=100 time=0
EXTRACT: note_off channel=3 note=57 velocity=100 time=0
EXTRACT: note_off channel=3 note=60 velocity=100 time=0
EXTRACT: note_off channel=3 note=65 velocity=100 time=0
EXTRACT: note_off channel=5 note=29 velocity=100 time=0
EXTRACT: note_on channel=5 note=29 velocity=100 time=0
EXTRACT: note_on channel=9 note=41 velocity=127 time=0
EXTRACT: note_on channel=9 note=70 velocity=127 time=0
EXTRACT: note_off channel=9 note=70 velocity=127 time=0.029761666666666662
EXTRACT: note_off channel=9 note=41 velocity=127 time=0
EXTRACT: note_off channel=2 note=57 velocity=100 time=0.14880833333333332
EXTRACT: note_off channel=5 note=29 velocity=100 time=0
EXTRACT: note_on channel=5 note=29 velocity=100 time=0
EXTRACT: note_on channel=9 note=45 velocity=127 time=0
EXTRACT: note_on channel=9 note=70 velocity=127 time=0
EXTRACT: note_on channel=2 note=60 velocity=100 time=0.011160624999999999
EXTRACT: note_off channel=9 note=70 velocity=127 time=0.018601041666666665
EXTRACT: note_off channel=9 note=45 velocity=127 time=0
EXTRACT: note_off channel=1 note=60 velocity=100 time=0.14880833333333332
EXTRACT: note_off channel=1 note=57 velocity=100 time=0
EXTRACT: note_off channel=1 note=53 velocity=100 time=0
EXTRACT: note_off channel=1 note=48 velocity=100 time=0
EXTRACT: note_off channel=1 note=41 velocity=100 time=0
EXTRACT: note_on channel=1 note=41 velocity=100 time=0
EXTRACT: note_on channel=1 note=48 velocity=100 time=0
EXTRACT: note_on channel=1 note=53 velocity=100 time=0
EXTRACT: note_on channel=1 note=56 velocity=100 time=0
EXTRACT: note_on channel=1 note=60 velocity=100 time=0
EXTRACT: note_on channel=1 note=65 velocity=100 time=0
EXTRACT: note_off channel=5 note=29 velocity=100 time=0
EXTRACT: note_on channel=5 note=29 velocity=100 time=0
EXTRACT: note_on channel=9 note=35 velocity=127 time=0
EXTRACT: note_on channel=9 note=36 velocity=127 time=0
EXTRACT: note_on channel=9 note=41 velocity=127 time=0
EXTRACT: note_on channel=9 note=70 velocity=127 time=0
EXTRACT: note_off channel=9 note=70 velocity=127 time=0.029761666666666662
EXTRACT: note_off channel=9 note=41 velocity=127 time=0
EXTRACT: note_off channel=9 note=36 velocity=127 time=0
EXTRACT: note_off channel=9 note=35 velocity=127 time=0
EXTRACT: note_on channel=2 note=60 velocity=100 time=0.13578760416666666
EXTRACT: note_off channel=5 note=29 velocity=100 time=0.013020729166666665
EXTRACT: note_on channel=5 note=29 velocity=100 time=0
EXTRACT: note_on channel=9 note=45 velocity=127 time=0
EXTRACT: note_off channel=2 note=60 velocity=100 time=0.011160624999999999
EXTRACT: note_off channel=9 note=45 velocity=127 time=0.018601041666666665
EXTRACT: note_off channel=2 note=60 velocity=100 time=0.13578760416666666
EXTRACT: note_on channel=2 note=62 velocity=100 time=0.013020729166666665
EXTRACT: note_off channel=5 note=29 velocity=100 time=0
EXTRACT: note_on channel=5 note=29 velocity=100 time=0
EXTRACT: note_on channel=9 note=35 velocity=127 time=0
EXTRACT: note_on channel=9 note=36 velocity=127 time=0
EXTRACT: note_on channel=9 note=41 velocity=127 time=0
EXTRACT: note_on channel=9 note=70 velocity=127 time=0
EXTRACT: pitchwheel channel=2 pitch=256 time=0.011160624999999999
EXTRACT: pitchwheel channel=2 pitch=768 time=0.011160624999999999
EXTRACT: note_off channel=9 note=70 velocity=127 time=0.0074404166666666655
EXTRACT: note_off channel=9 note=41 velocity=127 time=0
EXTRACT: note_off channel=9 note=36 velocity=127 time=0
EXTRACT: note_off channel=9 note=35 velocity=127 time=0
EXTRACT: pitchwheel channel=2 pitch=1408 time=0.005580312499999999
EXTRACT: pitchwheel channel=2 pitch=1792 time=0.011160624999999999
EXTRACT: pitchwheel channel=2 pitch=2048 time=0.013020729166666665
EXTRACT: pitchwheel channel=2 pitch=2560 time=0.011160624999999999
EXTRACT: pitchwheel channel=2 pitch=2816 time=0.011160624999999999
EXTRACT: pitchwheel channel=2 pitch=3072 time=0.013020729166666665
EXTRACT: pitchwheel channel=2 pitch=3328 time=0.011160624999999999
EXTRACT: pitchwheel channel=2 pitch=3840 time=0.013020729166666665
EXTRACT: pitchwheel channel=2 pitch=4096 time=0.011160624999999999
EXTRACT: pitchwheel channel=2 pitch=4352 time=0.011160624999999999
EXTRACT: pitchwheel channel=2 pitch=4864 time=0.013020729166666665
EXTRACT: pitchwheel channel=2 pitch=5376 time=0.011160624999999999
EXTRACT: pitchwheel channel=2 pitch=7168 time=0.013020729166666665
EXTRACT: note_on channel=9 note=70 velocity=127 time=0
EXTRACT: pitchwheel channel=2 pitch=7552 time=0.011160624999999999
EXTRACT: pitchwheel channel=2 pitch=7936 time=0.011160624999999999
EXTRACT: note_off channel=9 note=70 velocity=127 time=0.0074404166666666655
EXTRACT: pitchwheel channel=2 pitch=8064 time=0.016740937499999997
EXTRACT: pitchwheel channel=2 pitch=8191 time=0.048362708333333324
EXTRACT: pitchwheel channel=2 pitch=8064 time=0.07068395833333332
EXTRACT: note_off channel=1 note=65 velocity=100 time=0.013020729166666665
EXTRACT: note_off channel=1 note=60 velocity=100 time=0
EXTRACT: note_off channel=1 note=56 velocity=100 time=0
EXTRACT: note_off channel=1 note=53 velocity=100 time=0
EXTRACT: note_off channel=1 note=48 velocity=100 time=0
EXTRACT: note_off channel=1 note=41 velocity=100 time=0
EXTRACT: note_on channel=1 note=41 velocity=100 time=0
EXTRACT: note_on channel=1 note=48 velocity=100 time=0
EXTRACT: note_on channel=1 note=53 velocity=100 time=0
EXTRACT: note_on channel=1 note=56 velocity=100 time=0
EXTRACT: note_on channel=1 note=60 velocity=100 time=0
EXTRACT: note_on channel=1 note=65 velocity=100 time=0
EXTRACT: pitchwheel channel=2 pitch=7808 time=0
EXTRACT: note_on channel=3 note=65 velocity=100 time=0
EXTRACT: note_on channel=3 note=60 velocity=100 time=0
EXTRACT: note_on channel=3 note=56 velocity=100 time=0
EXTRACT: note_on channel=3 note=53 velocity=100 time=0
EXTRACT: note_off channel=5 note=29 velocity=100 time=0
EXTRACT: note_on channel=5 note=29 velocity=100 time=0
EXTRACT: note_on channel=9 note=38 velocity=127 time=0
EXTRACT: note_on channel=9 note=38 velocity=127 time=0
EXTRACT: note_on channel=9 note=41 velocity=127 time=0
EXTRACT: note_on channel=9 note=70 velocity=127 time=0
EXTRACT: pitchwheel channel=2 pitch=7040 time=0.011160624999999999
EXTRACT: pitchwheel channel=2 pitch=6784 time=0.011160624999999999
EXTRACT: note_off channel=9 note=70 velocity=127 time=0.0074404166666666655
EXTRACT: note_off channel=9 note=41 velocity=127 time=0
EXTRACT: note_off channel=9 note=38 velocity=127 time=0
EXTRACT: note_off channel=9 note=38 velocity=127 time=0
EXTRACT: pitchwheel channel=2 pitch=6016 time=0.005580312499999999
EXTRACT: pitchwheel channel=2 pitch=5504 time=0.011160624999999999
EXTRACT: pitchwheel channel=2 pitch=512 time=0.013020729166666665
EXTRACT: pitchwheel channel=2 pitch=256 time=0.022321249999999997
EXTRACT: pitchwheel channel=2 pitch=128 time=0.013020729166666665
EXTRACT: pitchwheel channel=2 pitch=0 time=0.011160624999999999
EXTRACT: note_off channel=2 note=62 velocity=100 time=0.07254406249999999
EXTRACT: note_on channel=2 note=60 velocity=100 time=0
EXTRACT: note_on channel=9 note=70 velocity=127 time=0
EXTRACT: note_off channel=9 note=70 velocity=127 time=0.029761666666666662
EXTRACT: note_off channel=1 note=65 velocity=100 time=0.14880833333333332
EXTRACT: note_off channel=1 note=60 velocity=100 time=0
EXTRACT: note_off channel=1 note=56 velocity=100 time=0
EXTRACT: note_off channel=1 note=53 velocity=100 time=0
EXTRACT: note_off channel=1 note=48 velocity=100 time=0
EXTRACT: note_off channel=1 note=41 velocity=100 time=0
EXTRACT: note_on channel=1 note=41 velocity=100 time=0
EXTRACT: note_on channel=1 note=48 velocity=100 time=0
EXTRACT: note_on channel=1 note=53 velocity=100 time=0
EXTRACT: note_on channel=1 note=56 velocity=100 time=0
EXTRACT: note_on channel=1 note=60 velocity=100 time=0
EXTRACT: note_on channel=1 note=65 velocity=100 time=0
EXTRACT: note_off channel=2 note=60 velocity=100 time=0
EXTRACT: note_on channel=2 note=57 velocity=100 time=0
EXTRACT: note_off channel=3 note=53 velocity=100 time=0
EXTRACT: note_off channel=3 note=56 velocity=100 time=0
EXTRACT: note_off channel=3 note=60 velocity=100 time=0
EXTRACT: note_off channel=3 note=65 velocity=100 time=0
EXTRACT: note_off channel=5 note=29 velocity=100 time=0
EXTRACT: note_on channel=5 note=31 velocity=100 time=0
EXTRACT: note_on channel=9 note=41 velocity=127 time=0
EXTRACT: note_on channel=9 note=70 velocity=127 time=0
EXTRACT: note_off channel=9 note=70 velocity=127 time=0.029761666666666662
EXTRACT: note_off channel=9 note=41 velocity=127 time=0
EXTRACT: note_off channel=2 note=57 velocity=100 time=0.14880833333333332
EXTRACT: note_off channel=5 note=31 velocity=100 time=0
EXTRACT: note_on channel=5 note=33 velocity=100 time=0
EXTRACT: note_on channel=9 note=70 velocity=127 time=0
EXTRACT: note_on channel=2 note=60 velocity=100 time=0.022321249999999997
EXTRACT: note_off channel=9 note=70 velocity=127 time=0.0074404166666666655
EXTRACT: note_on channel=2 note=62 velocity=100 time=0.08184458333333332
EXTRACT: note_off channel=1 note=65 velocity=100 time=0.06696374999999999
EXTRACT: note_off channel=1 note=60 velocity=100 time=0
EXTRACT: note_off channel=1 note=56 velocity=100 time=0
EXTRACT: note_off channel=1 note=53 velocity=100 time=0
EXTRACT: note_off channel=1 note=48 velocity=100 time=0
EXTRACT: note_off channel=1 note=41 velocity=100 time=0
EXTRACT: note_on channel=1 note=48 velocity=100 time=0
EXTRACT: note_on channel=1 note=52 velocity=100 time=0
EXTRACT: note_on channel=1 note=55 velocity=100 time=0
EXTRACT: note_on channel=1 note=60 velocity=100 time=0
EXTRACT: note_on channel=1 note=64 velocity=100 time=0
EXTRACT: note_on channel=2 note=64 velocity=100 time=0
EXTRACT: note_off channel=5 note=33 velocity=100 time=0
EXTRACT: note_on channel=5 note=36 velocity=100 time=0
EXTRACT: note_on channel=9 note=35 velocity=127 time=0
EXTRACT: note_on channel=9 note=36 velocity=127 time=0
EXTRACT: note_on channel=9 note=41 velocity=127 time=0
EXTRACT: note_on channel=9 note=70 velocity=127 time=0
EXTRACT: note_off channel=2 note=62 velocity=100 time=0.022321249999999997
EXTRACT: note_off channel=2 note=60 velocity=100 time=0
EXTRACT: note_off channel=9 note=70 velocity=127 time=0.0074404166666666655
EXTRACT: note_off channel=9 note=41 velocity=127 time=0
EXTRACT: note_off channel=9 note=36 velocity=127 time=0
EXTRACT: note_off channel=9 note=35 velocity=127 time=0
EXTRACT: note_off channel=2 note=64 velocity=100 time=0.32737833333333327
EXTRACT: note_off channel=5 note=36 velocity=100 time=0
EXTRACT: note_on channel=5 note=36 velocity=100 time=0
EXTRACT: note_on channel=9 note=35 velocity=127 time=0
EXTRACT: note_on channel=9 note=36 velocity=127 time=0
EXTRACT: note_on channel=9 note=41 velocity=127 time=0
EXTRACT: note_on channel=9 note=70 velocity=127 time=0
EXTRACT: note_on channel=2 note=67 velocity=100 time=0.022321249999999997
EXTRACT: note_off channel=9 note=70 velocity=127 time=0.0074404166666666655
EXTRACT: note_off channel=9 note=41 velocity=127 time=0
EXTRACT: note_off channel=9 note=36 velocity=127 time=0
EXTRACT: note_off channel=9 note=35 velocity=127 time=0
EXTRACT: note_on channel=9 note=70 velocity=127 time=0.14880833333333332
EXTRACT: note_off channel=9 note=70 velocity=127 time=0.029761666666666662
EXTRACT: note_on channel=2 note=67 velocity=100 time=0.12462697916666665
EXTRACT: note_off channel=1 note=64 velocity=100 time=0.024181354166666662
EXTRACT: note_off channel=1 note=60 velocity=100 time=0
EXTRACT: note_off channel=1 note=55 velocity=100 time=0
EXTRACT: note_off channel=1 note=52 velocity=100 time=0
EXTRACT: note_off channel=1 note=48 velocity=100 time=0
EXTRACT: note_on channel=1 note=64 velocity=100 time=0
EXTRACT: note_on channel=1 note=60 velocity=100 time=0
EXTRACT: note_on channel=1 note=55 velocity=100 time=0
EXTRACT: note_on channel=1 note=52 velocity=100 time=0
EXTRACT: note_on channel=1 note=48 velocity=100 time=0
EXTRACT: note_on channel=3 note=67 velocity=100 time=0
EXTRACT: note_on channel=3 note=64 velocity=100 time=0
EXTRACT: note_on channel=3 note=60 velocity=100 time=0
EXTRACT: note_off channel=5 note=36 velocity=100 time=0
EXTRACT: note_on channel=5 note=36 velocity=100 time=0
EXTRACT: note_on channel=9 note=38 velocity=127 time=0
EXTRACT: note_on channel=9 note=38 velocity=127 time=0
EXTRACT: note_on channel=9 note=41 velocity=127 time=0
EXTRACT: note_on channel=9 note=70 velocity=127 time=0
EXTRACT: note_off channel=2 note=67 velocity=100 time=0.022321249999999997
EXTRACT: note_off channel=9 note=70 velocity=127 time=0.0074404166666666655
EXTRACT: note_off channel=9 note=41 velocity=127 time=0
EXTRACT: note_off channel=9 note=38 velocity=127 time=0
EXTRACT: note_off channel=9 note=38 velocity=127 time=0
EXTRACT: note_off channel=2 note=67 velocity=100 time=0.3031969791666666
EXTRACT: note_on channel=2 note=69 velocity=100 time=0.016740937499999997
EXTRACT: note_off channel=1 note=48 velocity=100 time=0.0074404166666666655
EXTRACT: note_off channel=1 note=52 velocity=100 time=0
EXTRACT: note_off channel=1 note=55 velocity=100 time=0
EXTRACT: note_off channel=1 note=60 velocity=100 time=0
EXTRACT: note_off channel=1 note=64 velocity=100 time=0
EXTRACT: note_on channel=1 note=60 velocity=100 time=0
EXTRACT: note_on channel=1 note=64 velocity=100 time=0
EXTRACT: note_on channel=1 note=55 velocity=100 time=0
EXTRACT: note_on channel=1 note=52 velocity=100 time=0
EXTRACT: note_on channel=1 note=48 velocity=100 time=0
EXTRACT: note_off channel=3 note=60 velocity=100 time=0
EXTRACT: note_off channel=3 note=64 velocity=100 time=0
EXTRACT: note_off channel=3 note=67 velocity=100 time=0
EXTRACT: note_off channel=5 note=36 velocity=100 time=0
EXTRACT: note_on channel=5 note=36 velocity=100 time=0
EXTRACT: note_on channel=9 note=41 velocity=127 time=0
EXTRACT: note_on channel=9 note=70 velocity=127 time=0
EXTRACT: note_off channel=9 note=70 velocity=127 time=0.029761666666666662
EXTRACT: note_off channel=9 note=41 velocity=127 time=0
EXTRACT: note_off channel=2 note=69 velocity=100 time=0.14136791666666665
EXTRACT: note_off channel=5 note=36 velocity=100 time=0.0074404166666666655
EXTRACT: note_on channel=5 note=33 velocity=100 time=0
EXTRACT: note_on channel=9 note=45 velocity=127 time=0
EXTRACT: note_on channel=9 note=70 velocity=127 time=0
EXTRACT: note_on channel=2 note=72 velocity=100 time=0.016740937499999997
EXTRACT: note_off channel=9 note=70 velocity=127 time=0.013020729166666665
EXTRACT: note_off channel=9 note=45 velocity=127 time=0
EXTRACT: note_off channel=1 note=48 velocity=100 time=0.14880833333333332
EXTRACT: note_off channel=1 note=52 velocity=100 time=0
EXTRACT: note_off channel=1 note=55 velocity=100 time=0
EXTRACT: note_off channel=1 note=64 velocity=100 time=0
EXTRACT: note_off channel=1 note=60 velocity=100 time=0
EXTRACT: note_on channel=1 note=60 velocity=100 time=0
EXTRACT: note_on channel=1 note=64 velocity=100 time=0
EXTRACT: note_on channel=1 note=55 velocity=100 time=0
EXTRACT: note_on channel=1 note=52 velocity=100 time=0
EXTRACT: note_on channel=1 note=48 velocity=100 time=0
EXTRACT: note_off channel=5 note=33 velocity=100 time=0
EXTRACT: note_on channel=5 note=36 velocity=100 time=0
EXTRACT: note_on channel=9 note=35 velocity=127 time=0
EXTRACT: note_on channel=9 note=36 velocity=127 time=0
EXTRACT: note_on channel=9 note=41 velocity=127 time=0
EXTRACT: note_on channel=9 note=70 velocity=127 time=0
EXTRACT: note_off channel=9 note=70 velocity=127 time=0.029761666666666662
EXTRACT: note_off channel=9 note=41 velocity=127 time=0
EXTRACT: note_off channel=9 note=36 velocity=127 time=0
EXTRACT: note_off channel=9 note=35 velocity=127 time=0
EXTRACT: note_off channel=5 note=36 velocity=100 time=0.14880833333333332
EXTRACT: note_on channel=5 note=33 velocity=100 time=0
EXTRACT: note_on channel=9 note=45 velocity=127 time=0
EXTRACT: note_off channel=2 note=72 velocity=100 time=0.016740937499999997
EXTRACT: note_on channel=2 note=72 velocity=100 time=0.005580312499999999
EXTRACT: note_off channel=9 note=45 velocity=127 time=0.0074404166666666655
EXTRACT: note_off channel=1 note=48 velocity=100 time=0.14880833333333332
EXTRACT: note_off channel=1 note=52 velocity=100 time=0
EXTRACT: note_off channel=1 note=55 velocity=100 time=0
EXTRACT: note_off channel=1 note=64 velocity=100 time=0
EXTRACT: note_off channel=1 note=60 velocity=100 time=0
EXTRACT: note_on channel=1 note=60 velocity=100 time=0
EXTRACT: note_on channel=1 note=64 velocity=100 time=0
EXTRACT: note_on channel=1 note=55 velocity=100 time=0
EXTRACT: note_on channel=1 note=52 velocity=100 time=0
EXTRACT: note_on channel=1 note=48 velocity=100 time=0
EXTRACT: note_off channel=5 note=33 velocity=100 time=0
EXTRACT: note_on channel=5 note=31 velocity=100 time=0
EXTRACT: note_on channel=9 note=36 velocity=127 time=0
EXTRACT: note_on channel=9 note=41 velocity=127 time=0
EXTRACT: note_on channel=9 note=70 velocity=127 time=0
EXTRACT: note_off channel=2 note=72 velocity=100 time=0.022321249999999997
EXTRACT: note_on channel=2 note=72 velocity=100 time=0.0074404166666666655
EXTRACT: note_off channel=9 note=70 velocity=127 time=0
EXTRACT: note_off channel=9 note=41 velocity=127 time=0
EXTRACT: note_off channel=9 note=36 velocity=127 time=0
EXTRACT: note_on channel=2 note=74 velocity=100 time=0.14880833333333332
EXTRACT: note_off channel=5 note=31 velocity=100 time=0
EXTRACT: note_on channel=9 note=35 velocity=127 time=0
EXTRACT: note_on channel=9 note=70 velocity=127 time=0
EXTRACT: note_off channel=2 note=72 velocity=100 time=0.029761666666666662
EXTRACT: note_on channel=5 note=36 velocity=100 time=0
EXTRACT: note_off channel=9 note=70 velocity=127 time=0
EXTRACT: note_off channel=9 note=35 velocity=127 time=0
EXTRACT: note_off channel=1 note=48 velocity=100 time=0.14880833333333332
EXTRACT: note_off channel=1 note=52 velocity=100 time=0
EXTRACT: note_off channel=1 note=55 velocity=100 time=0
EXTRACT: note_off channel=1 note=64 velocity=100 time=0
EXTRACT: note_off channel=1 note=60 velocity=100 time=0
EXTRACT: note_on channel=1 note=60 velocity=100 time=0
EXTRACT: note_on channel=1 note=64 velocity=100 time=0
EXTRACT: note_on channel=1 note=55 velocity=100 time=0
EXTRACT: note_on channel=1 note=52 velocity=100 time=0
EXTRACT: note_on channel=1 note=48 velocity=100 time=0
EXTRACT: note_off channel=2 note=74 velocity=100 time=0
EXTRACT: note_on channel=3 note=72 velocity=120 time=0
EXTRACT: note_on channel=3 note=67 velocity=100 time=0
EXTRACT: note_on channel=3 note=64 velocity=100 time=0
EXTRACT: note_on channel=3 note=60 velocity=100 time=0
EXTRACT: note_on channel=9 note=38 velocity=127 time=0
EXTRACT: note_on channel=9 note=38 velocity=127 time=0
EXTRACT: note_on channel=9 note=41 velocity=127 time=0
EXTRACT: note_on channel=9 note=70 velocity=127 time=0
EXTRACT: note_on channel=2 note=72 velocity=100 time=0.011160624999999999
EXTRACT: note_off channel=9 note=70 velocity=127 time=0.018601041666666665
EXTRACT: note_off channel=9 note=41 velocity=127 time=0
EXTRACT: note_off channel=9 note=38 velocity=127 time=0
EXTRACT: note_off channel=9 note=38 velocity=127 time=0
EXTRACT: note_on channel=9 note=38 velocity=127 time=0.14880833333333332
EXTRACT: note_on channel=9 note=70 velocity=127 time=0
EXTRACT: note_on channel=5 note=35 velocity=100 time=0.011160624999999999
EXTRACT: note_off channel=5 note=36 velocity=100 time=0.018601041666666665
EXTRACT: note_off channel=9 note=70 velocity=127 time=0
EXTRACT: note_off channel=9 note=38 velocity=127 time=0
EXTRACT: note_off channel=1 note=48 velocity=100 time=0.14880833333333332
EXTRACT: note_off channel=1 note=52 velocity=100 time=0
EXTRACT: note_off channel=1 note=55 velocity=100 time=0
EXTRACT: note_off channel=1 note=64 velocity=100 time=0
EXTRACT: note_off channel=1 note=60 velocity=100 time=0
EXTRACT: note_on channel=1 note=60 velocity=100 time=0
EXTRACT: note_on channel=1 note=64 velocity=100 time=0
EXTRACT: note_on channel=1 note=55 velocity=100 time=0
EXTRACT: note_on channel=1 note=52 velocity=100 time=0
EXTRACT: note_on channel=1 note=48 velocity=100 time=0
EXTRACT: note_off channel=3 note=60 velocity=100 time=0
EXTRACT: note_off channel=3 note=64 velocity=100 time=0
EXTRACT: note_off channel=3 note=67 velocity=100 time=0
EXTRACT: note_off channel=3 note=72 velocity=120 time=0
EXTRACT: note_on channel=9 note=41 velocity=127 time=0
EXTRACT: note_on channel=9 note=70 velocity=127 time=0
EXTRACT: note_off channel=2 note=72 velocity=100 time=0.011160624999999999
EXTRACT: note_off channel=5 note=35 velocity=100 time=0
EXTRACT: note_on channel=5 note=36 velocity=100 time=0
EXTRACT: note_off channel=9 note=70 velocity=127 time=0.018601041666666665
EXTRACT: note_off channel=9 note=41 velocity=127 time=0
EXTRACT: note_on channel=5 note=35 velocity=100 time=0.11904666666666665
EXTRACT: note_on channel=9 note=38 velocity=127 time=0.029761666666666662
EXTRACT: note_on channel=9 note=70 velocity=127 time=0
EXTRACT: note_off channel=5 note=36 velocity=100 time=0.011160624999999999
EXTRACT: note_off channel=9 note=70 velocity=127 time=0.018601041666666665
EXTRACT: note_off channel=9 note=38 velocity=127 time=0
EXTRACT: note_off channel=5 note=35 velocity=100 time=0.11904666666666665
EXTRACT: note_off channel=1 note=48 velocity=100 time=0.029761666666666662
EXTRACT: note_off channel=1 note=52 velocity=100 time=0
EXTRACT: note_off channel=1 note=55 velocity=100 time=0
EXTRACT: note_off channel=1 note=64 velocity=100 time=0
EXTRACT: note_off channel=1 note=60 velocity=100 time=0
EXTRACT: note_on channel=1 note=43 velocity=100 time=0
EXTRACT: note_on channel=1 note=50 velocity=100 time=0
EXTRACT: note_on channel=1 note=55 velocity=100 time=0
EXTRACT: note_on channel=1 note=59 velocity=100 time=0
EXTRACT: note_on channel=1 note=67 velocity=100 time=0
EXTRACT: note_on channel=2 note=67 velocity=100 time=0
EXTRACT: note_on channel=3 note=43 velocity=100 time=0
EXTRACT: note_on channel=5 note=31 velocity=100 time=0
EXTRACT: note_on channel=9 note=35 velocity=127 time=0
EXTRACT: note_on channel=9 note=36 velocity=127 time=0
EXTRACT: note_on channel=9 note=54 velocity=127 time=0
EXTRACT: note_on channel=9 note=49 velocity=127 time=0
EXTRACT: note_on channel=9 note=70 velocity=127 time=0
EXTRACT: note_off channel=9 note=70 velocity=127 time=0.029761666666666662
EXTRACT: note_off channel=9 note=49 velocity=127 time=0
EXTRACT: note_off channel=9 note=54 velocity=127 time=0
EXTRACT: note_off channel=9 note=36 velocity=127 time=0
EXTRACT: note_off channel=9 note=35 velocity=127 time=0
EXTRACT: note_off channel=2 note=67 velocity=100 time=0.14880833333333332
EXTRACT: note_on channel=9 note=54 velocity=127 time=0
EXTRACT: note_on channel=2 note=69 velocity=100 time=0.029761666666666662
EXTRACT: note_off channel=9 note=54 velocity=127 time=0
EXTRACT: note_on channel=2 note=72 velocity=100 time=0.14880833333333332
EXTRACT: note_on channel=9 note=54 velocity=127 time=0
EXTRACT: note_on channel=9 note=51 velocity=127 time=0
EXTRACT: note_on channel=9 note=70 velocity=127 time=0
EXTRACT: note_off channel=2 note=69 velocity=100 time=0.029761666666666662
EXTRACT: note_off channel=9 note=70 velocity=127 time=0
EXTRACT: note_off channel=9 note=51 velocity=127 time=0
EXTRACT: note_off channel=9 note=54 velocity=127 time=0
EXTRACT: note_off channel=2 note=72 velocity=100 time=0.14880833333333332
EXTRACT: note_on channel=9 note=54 velocity=127 time=0
EXTRACT: note_on channel=9 note=70 velocity=127 time=0
EXTRACT: note_on channel=2 note=67 velocity=100 time=0.022321249999999997
EXTRACT: note_off channel=9 note=70 velocity=127 time=0.0074404166666666655
EXTRACT: note_off channel=9 note=54 velocity=127 time=0
EXTRACT: note_on channel=2 note=69 velocity=100 time=0.13578760416666666
EXTRACT: note_on channel=5 note=31 velocity=100 time=0
EXTRACT: note_off channel=1 note=67 velocity=100 time=0.013020729166666665
EXTRACT: note_off channel=1 note=59 velocity=100 time=0
EXTRACT: note_off channel=1 note=55 velocity=100 time=0
EXTRACT: note_off channel=1 note=50 velocity=100 time=0
EXTRACT: note_off channel=1 note=43 velocity=100 time=0
EXTRACT: note_on channel=1 note=47 velocity=100 time=0
EXTRACT: note_on channel=1 note=43 velocity=100 time=0
EXTRACT: note_on channel=1 note=50 velocity=100 time=0
EXTRACT: note_on channel=1 note=55 velocity=100 time=0
EXTRACT: note_on channel=1 note=59 velocity=100 time=0
EXTRACT: note_on channel=1 note=67 velocity=100 time=0
EXTRACT: note_off channel=3 note=43 velocity=100 time=0
EXTRACT: note_on channel=3 note=43 velocity=100 time=0
EXTRACT: note_off channel=5 note=31 velocity=100 time=0
EXTRACT: note_on channel=9 note=38 velocity=127 time=0
EXTRACT: note_on channel=9 note=54 velocity=127 time=0
EXTRACT: note_on channel=9 note=51 velocity=127 time=0
EXTRACT: note_on channel=9 note=70 velocity=127 time=0
EXTRACT: note_off channel=2 note=67 velocity=100 time=0.022321249999999997
EXTRACT: note_off channel=9 note=70 velocity=127 time=0.0074404166666666655
EXTRACT: note_off channel=9 note=51 velocity=127 time=0
EXTRACT: note_off channel=9 note=54 velocity=127 time=0
EXTRACT: note_off channel=9 note=38 velocity=127 time=0
EXTRACT: note_off channel=2 note=69 velocity=100 time=0.13578760416666666
EXTRACT: note_on channel=2 note=72 velocity=100 time=0
EXTRACT: note_on channel=9 note=54 velocity=127 time=0.013020729166666665
EXTRACT: note_off channel=9 note=54 velocity=127 time=0.029761666666666662
EXTRACT: note_off channel=2 note=72 velocity=100 time=0.13578760416666666
EXTRACT: note_on channel=2 note=67 velocity=100 time=0.013020729166666665
EXTRACT: note_on channel=9 note=54 velocity=127 time=0
EXTRACT: note_on channel=9 note=51 velocity=127 time=0
EXTRACT: note_on channel=9 note=70 velocity=127 time=0
EXTRACT: note_off channel=9 note=70 velocity=127 time=0.029761666666666662
EXTRACT: note_off channel=9 note=51 velocity=127 time=0
EXTRACT: note_off channel=9 note=54 velocity=127 time=0
EXTRACT: note_off channel=5 note=31 velocity=100 time=0.13578760416666666
EXTRACT: note_on channel=5 note=31 velocity=100 time=0
EXTRACT: note_off channel=1 note=67 velocity=100 time=0.013020729166666665
EXTRACT: note_off channel=1 note=59 velocity=100 time=0
EXTRACT: note_off channel=1 note=55 velocity=100 time=0
EXTRACT: note_off channel=1 note=50 velocity=100 time=0
EXTRACT: note_off channel=1 note=43 velocity=100 time=0
EXTRACT: note_off channel=1 note=47 velocity=100 time=0
EXTRACT: note_on channel=1 note=47 velocity=100 time=0
EXTRACT: note_on channel=1 note=43 velocity=100 time=0
EXTRACT: note_on channel=1 note=50 velocity=100 time=0
EXTRACT: note_on channel=1 note=55 velocity=100 time=0
EXTRACT: note_on channel=1 note=59 velocity=100 time=0
EXTRACT: note_on channel=1 note=67 velocity=100 time=0
EXTRACT: note_off channel=2 note=67 velocity=100 time=0
EXTRACT: note_off channel=3 note=43 velocity=100 time=0
EXTRACT: note_on channel=3 note=43 velocity=100 time=0
EXTRACT: note_on channel=9 note=35 velocity=127 time=0
EXTRACT: note_on channel=9 note=36 velocity=127 time=0
EXTRACT: note_on channel=9 note=54 velocity=127 time=0
EXTRACT: note_on channel=9 note=70 velocity=127 time=0
EXTRACT: note_on channel=2 note=69 velocity=100 time=0.022321249999999997
EXTRACT: note_off channel=9 note=70 velocity=127 time=0.0074404166666666655
EXTRACT: note_off channel=9 note=54 velocity=127 time=0
EXTRACT: note_off channel=9 note=36 velocity=127 time=0
EXTRACT: note_off channel=9 note=35 velocity=127 time=0
EXTRACT: note_off channel=5 note=31 velocity=100 time=0.13578760416666666
EXTRACT: note_off channel=1 note=67 velocity=100 time=0.013020729166666665
EXTRACT: note_off channel=1 note=59 velocity=100 time=0
EXTRACT: note_off channel=1 note=55 velocity=100 time=0
EXTRACT: note_off channel=1 note=50 velocity=100 time=0
EXTRACT: note_off channel=1 note=43 velocity=100 time=0
EXTRACT: note_off channel=1 note=47 velocity=100 time=0
EXTRACT: note_on channel=1 note=47 velocity=100 time=0
EXTRACT: note_on channel=1 note=43 velocity=100 time=0
EXTRACT: note_on channel=1 note=50 velocity=100 time=0
EXTRACT: note_on channel=1 note=55 velocity=100 time=0
EXTRACT: note_on channel=1 note=59 velocity=100 time=0
EXTRACT: note_on channel=1 note=67 velocity=100 time=0
EXTRACT: note_on channel=2 note=72 velocity=100 time=0
EXTRACT: note_off channel=3 note=43 velocity=100 time=0
EXTRACT: note_on channel=3 note=43 velocity=100 time=0
EXTRACT: note_on channel=9 note=38 velocity=127 time=0
EXTRACT: note_on channel=9 note=54 velocity=127 time=0
EXTRACT: note_on channel=9 note=51 velocity=127 time=0
EXTRACT: note_on channel=9 note=70 velocity=127 time=0
EXTRACT: note_off channel=2 note=69 velocity=100 time=0.022321249999999997
EXTRACT: note_on channel=5 note=31 velocity=100 time=0.0074404166666666655
EXTRACT: note_off channel=9 note=70 velocity=127 time=0
EXTRACT: note_off channel=9 note=51 velocity=127 time=0
EXTRACT: note_off channel=9 note=54 velocity=127 time=0
EXTRACT: note_off channel=9 note=38 velocity=127 time=0
EXTRACT: note_off channel=2 note=72 velocity=100 time=0.14880833333333332
EXTRACT: note_on channel=9 note=54 velocity=127 time=0
EXTRACT: note_on channel=2 note=67 velocity=100 time=0.011160624999999999
EXTRACT: note_off channel=9 note=54 velocity=127 time=0.018601041666666665
EXTRACT: note_on channel=5 note=31 velocity=100 time=0.10602593749999999
EXTRACT: note_on channel=2 note=69 velocity=100 time=0.018601041666666665
EXTRACT: note_off channel=1 note=67 velocity=100 time=0.024181354166666662
EXTRACT: note_off channel=1 note=59 velocity=100 time=0
EXTRACT: note_off channel=1 note=55 velocity=100 time=0
EXTRACT: note_off channel=1 note=50 velocity=100 time=0
EXTRACT: note_off channel=1 note=43 velocity=100 time=0
EXTRACT: note_off channel=1 note=47 velocity=100 time=0
EXTRACT: note_on channel=1 note=59 velocity=100 time=0
EXTRACT: note_on channel=1 note=55 velocity=100 time=0
EXTRACT: note_on channel=1 note=47 velocity=100 time=0
EXTRACT: note_on channel=1 note=50 velocity=100 time=0
EXTRACT: note_on channel=1 note=43 velocity=100 time=0
EXTRACT: note_on channel=1 note=67 velocity=100 time=0
EXTRACT: note_off channel=3 note=43 velocity=100 time=0
EXTRACT: note_on channel=3 note=43 velocity=100 time=0
EXTRACT: note_on channel=9 note=35 velocity=127 time=0
EXTRACT: note_on channel=9 note=36 velocity=127 time=0
EXTRACT: note_on channel=9 note=54 velocity=127 time=0
EXTRACT: note_on channel=9 note=51 velocity=127 time=0
EXTRACT: note_on channel=9 note=70 velocity=127 time=0
EXTRACT: note_off channel=2 note=67 velocity=100 time=0.011160624999999999
EXTRACT: note_off channel=5 note=31 velocity=100 time=0.018601041666666665
EXTRACT: note_off channel=9 note=70 velocity=127 time=0
EXTRACT: note_off channel=9 note=51 velocity=127 time=0
EXTRACT: note_off channel=9 note=54 velocity=127 time=0
EXTRACT: note_off channel=9 note=36 velocity=127 time=0
EXTRACT: note_off channel=9 note=35 velocity=127 time=0
EXTRACT: note_on channel=2 note=72 velocity=100 time=0.10602593749999999
EXTRACT: note_off channel=2 note=69 velocity=100 time=0.018601041666666665
EXTRACT: note_on channel=9 note=54 velocity=127 time=0.024181354166666662
EXTRACT: note_on channel=9 note=70 velocity=127 time=0
EXTRACT: note_off channel=9 note=70 velocity=127 time=0.029761666666666662
EXTRACT: note_off channel=9 note=54 velocity=127 time=0
EXTRACT: note_off channel=2 note=72 velocity=100 time=0.10602593749999999
EXTRACT: note_off channel=5 note=31 velocity=100 time=0
EXTRACT: note_on channel=2 note=67 velocity=100 time=0.018601041666666665
EXTRACT: note_on channel=5 note=31 velocity=100 time=0.016740937499999997
EXTRACT: note_off channel=1 note=67 velocity=100 time=0.0074404166666666655
EXTRACT: note_off channel=1 note=43 velocity=100 time=0
EXTRACT: note_off channel=1 note=50 velocity=100 time=0
EXTRACT: note_off channel=1 note=47 velocity=100 time=0
EXTRACT: note_off channel=1 note=55 velocity=100 time=0
EXTRACT: note_off channel=1 note=59 velocity=100 time=0
EXTRACT: note_on channel=1 note=55 velocity=100 time=0
EXTRACT: note_on channel=1 note=59 velocity=100 time=0
EXTRACT: note_on channel=1 note=47 velocity=100 time=0
EXTRACT: note_on channel=1 note=50 velocity=100 time=0
EXTRACT: note_on channel=1 note=43 velocity=100 time=0
EXTRACT: note_on channel=1 note=67 velocity=100 time=0
EXTRACT: note_off channel=3 note=43 velocity=100 time=0
EXTRACT: note_on channel=3 note=43 velocity=100 time=0
EXTRACT: note_on channel=9 note=38 velocity=127 time=0
EXTRACT: note_on channel=9 note=54 velocity=127 time=0
EXTRACT: note_on channel=9 note=51 velocity=127 time=0
EXTRACT: note_on channel=9 note=70 velocity=127 time=0
EXTRACT: note_off channel=9 note=70 velocity=127 time=0.029761666666666662
EXTRACT: note_off channel=9 note=51 velocity=127 time=0
EXTRACT: note_off channel=9 note=54 velocity=127 time=0
EXTRACT: note_off channel=9 note=38 velocity=127 time=0
EXTRACT: note_off channel=2 note=67 velocity=100 time=0.12462697916666665
EXTRACT: note_on channel=2 note=69 velocity=100 time=0.024181354166666662
EXTRACT: note_on channel=9 note=54 velocity=127 time=0
EXTRACT: note_on channel=9 note=70 velocity=127 time=0
EXTRACT: note_off channel=9 note=70 velocity=127 time=0.029761666666666662
EXTRACT: note_off channel=9 note=54 velocity=127 time=0
EXTRACT: note_on channel=5 note=31 velocity=100 time=0.12462697916666665
EXTRACT: note_on channel=2 note=72 velocity=100 time=0.011160624999999999
EXTRACT: note_off channel=5 note=31 velocity=100 time=0.005580312499999999
EXTRACT: note_off channel=1 note=67 velocity=100 time=0.0074404166666666655
EXTRACT: note_off channel=1 note=43 velocity=100 time=0
EXTRACT: note_off channel=1 note=50 velocity=100 time=0
EXTRACT: note_off channel=1 note=47 velocity=100 time=0
EXTRACT: note_off channel=1 note=59 velocity=100 time=0
EXTRACT: note_off channel=1 note=55 velocity=100 time=0
EXTRACT: note_on channel=1 note=55 velocity=100 time=0
EXTRACT: note_on channel=1 note=59 velocity=100 time=0
EXTRACT: note_on channel=1 note=47 velocity=100 time=0
EXTRACT: note_on channel=1 note=50 velocity=100 time=0
EXTRACT: note_on channel=1 note=43 velocity=100 time=0
EXTRACT: note_on channel=1 note=67 velocity=100 time=0
EXTRACT: note_off channel=2 note=69 velocity=100 time=0
EXTRACT: note_off channel=3 note=43 velocity=100 time=0
EXTRACT: note_on channel=3 note=43 velocity=100 time=0
EXTRACT: note_on channel=9 note=54 velocity=127 time=0
EXTRACT: note_on channel=9 note=51 velocity=127 time=0
EXTRACT: note_on channel=9 note=70 velocity=127 time=0
EXTRACT: note_off channel=9 note=70 velocity=127 time=0.029761666666666662
EXTRACT: note_off channel=9 note=51 velocity=127 time=0
EXTRACT: note_off channel=9 note=54 velocity=127 time=0
EXTRACT: note_off channel=5 note=31 velocity=100 time=0.12462697916666665
EXTRACT: note_on channel=5 note=31 velocity=100 time=0
EXTRACT: note_on channel=9 note=35 velocity=127 time=0.024181354166666662
EXTRACT: note_on channel=9 note=36 velocity=127 time=0
EXTRACT: note_on channel=9 note=54 velocity=127 time=0
EXTRACT: note_on channel=9 note=70 velocity=127 time=0
EXTRACT: note_off channel=9 note=70 velocity=127 time=0.029761666666666662
EXTRACT: note_off channel=9 note=54 velocity=127 time=0
EXTRACT: note_off channel=9 note=36 velocity=127 time=0
EXTRACT: note_off channel=9 note=35 velocity=127 time=0
EXTRACT: note_off channel=5 note=31 velocity=100 time=0.12462697916666665
EXTRACT: note_off channel=2 note=72 velocity=100 time=0.011160624999999999
EXTRACT: note_off channel=1 note=67 velocity=100 time=0.013020729166666665
EXTRACT: note_off channel=1 note=43 velocity=100 time=0
EXTRACT: note_off channel=1 note=50 velocity=100 time=0
EXTRACT: note_off channel=1 note=47 velocity=100 time=0
EXTRACT: note_off channel=1 note=59 velocity=100 time=0
EXTRACT: note_off channel=1 note=55 velocity=100 time=0
EXTRACT: note_on channel=1 note=50 velocity=100 time=0
EXTRACT: note_on channel=1 note=56 velocity=100 time=0
EXTRACT: note_on channel=1 note=59 velocity=100 time=0
EXTRACT: note_on channel=1 note=65 velocity=100 time=0
EXTRACT: note_on channel=2 note=72 velocity=100 time=0
EXTRACT: note_off channel=3 note=43 velocity=100 time=0
EXTRACT: note_on channel=3 note=44 velocity=100 time=0
EXTRACT: note_on channel=5 note=32 velocity=100 time=0
EXTRACT: note_on channel=9 note=38 velocity=127 time=0
EXTRACT: note_on channel=9 note=54 velocity=127 time=0
EXTRACT: note_on channel=9 note=51 velocity=127 time=0
EXTRACT: note_on channel=9 note=70 velocity=127 time=0
EXTRACT: note_off channel=9 note=70 velocity=127 time=0.029761666666666662
EXTRACT: note_off channel=9 note=51 velocity=127 time=0
EXTRACT: note_off channel=9 note=54 velocity=127 time=0
EXTRACT: note_off channel=9 note=38 velocity=127 time=0
EXTRACT: note_off channel=2 note=72 velocity=100 time=0.14880833333333332
EXTRACT: note_on channel=2 note=74 velocity=100 time=0
EXTRACT: note_on channel=9 note=54 velocity=127 time=0
EXTRACT: note_off channel=9 note=54 velocity=127 time=0.029761666666666662
EXTRACT: note_off channel=2 note=74 velocity=100 time=0.14880833333333332
EXTRACT: note_off channel=5 note=32 velocity=100 time=0
EXTRACT: note_on channel=5 note=32 velocity=100 time=0
EXTRACT: note_on channel=9 note=36 velocity=127 time=0
EXTRACT: note_on channel=9 note=54 velocity=127 time=0
EXTRACT: note_on channel=9 note=51 velocity=127 time=0
EXTRACT: note_on channel=9 note=70 velocity=127 time=0
EXTRACT: note_on channel=2 note=72 velocity=100 time=0.011160624999999999
EXTRACT: note_off channel=9 note=70 velocity=127 time=0.018601041666666665
EXTRACT: note_off channel=9 note=51 velocity=127 time=0
EXTRACT: note_off channel=9 note=54 velocity=127 time=0
EXTRACT: note_off channel=9 note=36 velocity=127 time=0
EXTRACT: note_on channel=2 note=67 velocity=100 time=0.14880833333333332
EXTRACT: note_on channel=9 note=35 velocity=127 time=0
EXTRACT: note_on channel=9 note=54 velocity=127 time=0
EXTRACT: note_on channel=9 note=70 velocity=127 time=0
EXTRACT: note_off channel=2 note=72 velocity=100 time=0.011160624999999999
EXTRACT: note_off channel=9 note=70 velocity=127 time=0.018601041666666665
EXTRACT: note_off channel=9 note=54 velocity=127 time=0
EXTRACT: note_off channel=9 note=35 velocity=127 time=0
EXTRACT: note_off channel=1 note=65 velocity=100 time=0.14880833333333332
EXTRACT: note_off channel=1 note=59 velocity=100 time=0
EXTRACT: note_off channel=1 note=56 velocity=100 time=0
EXTRACT: note_off channel=1 note=50 velocity=100 time=0
EXTRACT: note_on channel=1 note=50 velocity=100 time=0
EXTRACT: note_on channel=1 note=56 velocity=100 time=0
EXTRACT: note_on channel=1 note=59 velocity=100 time=0
EXTRACT: note_on channel=1 note=65 velocity=100 time=0
EXTRACT: note_off channel=2 note=67 velocity=100 time=0
EXTRACT: note_on channel=2 note=69 velocity=100 time=0
EXTRACT: note_off channel=5 note=32 velocity=100 time=0
EXTRACT: note_on channel=5 note=32 velocity=100 time=0
EXTRACT: note_on channel=9 note=38 velocity=127 time=0
EXTRACT: note_on channel=9 note=54 velocity=127 time=0
EXTRACT: note_on channel=9 note=51 velocity=127 time=0
EXTRACT: note_on channel=9 note=70 velocity=127 time=0
EXTRACT: note_off channel=9 note=70 velocity=127 time=0.029761666666666662
EXTRACT: note_off channel=9 note=51 velocity=127 time=0
EXTRACT: note_off channel=9 note=54 velocity=127 time=0
EXTRACT: note_off channel=9 note=38 velocity=127 time=0
EXTRACT: note_off channel=2 note=69 velocity=100 time=0.14880833333333332
EXTRACT: note_on channel=2 note=72 velocity=100 time=0
EXTRACT: note_on channel=9 note=54 velocity=127 time=0
EXTRACT: note_off channel=9 note=54 velocity=127 time=0.029761666666666662
EXTRACT: note_off channel=2 note=72 velocity=100 time=0.14880833333333332
EXTRACT: note_on channel=2 note=67 velocity=100 time=0
EXTRACT: note_off channel=3 note=44 velocity=100 time=0
EXTRACT: note_on channel=3 note=44 velocity=100 time=0
EXTRACT: note_off channel=5 note=32 velocity=100 time=0
EXTRACT: note_on channel=5 note=32 velocity=100 time=0
EXTRACT: note_on channel=9 note=54 velocity=127 time=0
EXTRACT: note_on channel=9 note=51 velocity=127 time=0
EXTRACT: note_on channel=9 note=70 velocity=127 time=0
EXTRACT: note_off channel=9 note=70 velocity=127 time=0.029761666666666662
EXTRACT: note_off channel=9 note=51 velocity=127 time=0
EXTRACT: note_off channel=9 note=54 velocity=127 time=0
EXTRACT: note_off channel=1 note=65 velocity=100 time=0.14880833333333332
EXTRACT: note_off channel=1 note=59 velocity=100 time=0
EXTRACT: note_off channel=1 note=56 velocity=100 time=0
EXTRACT: note_off channel=1 note=50 velocity=100 time=0
EXTRACT: note_on channel=1 note=50 velocity=100 time=0
EXTRACT: note_on channel=1 note=56 velocity=100 time=0
EXTRACT: note_on channel=1 note=59 velocity=100 time=0
EXTRACT: note_on channel=1 note=65 velocity=100 time=0
EXTRACT: note_off channel=2 note=67 velocity=100 time=0
EXTRACT: note_on channel=2 note=69 velocity=100 time=0
EXTRACT: note_off channel=3 note=44 velocity=100 time=0
EXTRACT: note_on channel=3 note=44 velocity=100 time=0
EXTRACT: note_off channel=5 note=32 velocity=100 time=0
EXTRACT: note_on channel=5 note=32 velocity=100 time=0
EXTRACT: note_on channel=9 note=35 velocity=127 time=0
EXTRACT: note_on channel=9 note=36 velocity=127 time=0
EXTRACT: note_on channel=9 note=54 velocity=127 time=0
EXTRACT: note_on channel=9 note=70 velocity=127 time=0
EXTRACT: note_off channel=9 note=70 velocity=127 time=0.029761666666666662
EXTRACT: note_off channel=9 note=54 velocity=127 time=0
EXTRACT: note_off channel=9 note=36 velocity=127 time=0
EXTRACT: note_off channel=9 note=35 velocity=127 time=0
EXTRACT: note_off channel=1 note=65 velocity=100 time=0.14880833333333332
EXTRACT: note_off channel=1 note=59 velocity=100 time=0
EXTRACT: note_off channel=1 note=56 velocity=100 time=0
EXTRACT: note_off channel=1 note=50 velocity=100 time=0
EXTRACT: note_on channel=1 note=56 velocity=100 time=0
EXTRACT: note_on channel=1 note=50 velocity=100 time=0
EXTRACT: note_on channel=1 note=59 velocity=100 time=0
EXTRACT: note_on channel=1 note=65 velocity=100 time=0
EXTRACT: note_off channel=2 note=69 velocity=100 time=0
EXTRACT: note_on channel=2 note=72 velocity=100 time=0
EXTRACT: note_off channel=3 note=44 velocity=100 time=0
EXTRACT: note_on channel=3 note=44 velocity=100 time=0
EXTRACT: note_off channel=5 note=32 velocity=100 time=0
EXTRACT: note_on channel=5 note=32 velocity=100 time=0
EXTRACT: note_on channel=9 note=38 velocity=127 time=0
EXTRACT: note_on channel=9 note=54 velocity=127 time=0
EXTRACT: note_on channel=9 note=51 velocity=127 time=0
EXTRACT: note_on channel=9 note=70 velocity=127 time=0
EXTRACT: note_off channel=9 note=70 velocity=127 time=0.029761666666666662
EXTRACT: note_off channel=9 note=51 velocity=127 time=0
EXTRACT: note_off channel=9 note=54 velocity=127 time=0
EXTRACT: note_off channel=9 note=38 velocity=127 time=0
EXTRACT: note_off channel=2 note=72 velocity=100 time=0.14880833333333332
EXTRACT: note_on channel=2 note=67 velocity=100 time=0
EXTRACT: note_on channel=9 note=54 velocity=127 time=0
EXTRACT: note_off channel=9 note=54 velocity=127 time=0.029761666666666662
EXTRACT: note_on channel=3 note=44 velocity=100 time=0.12462697916666665
EXTRACT: pitchwheel channel=3 pitch=0 time=0.016740937499999997
EXTRACT: note_off channel=1 note=65 velocity=100 time=0.0074404166666666655
EXTRACT: note_off channel=1 note=59 velocity=100 time=0
EXTRACT: note_off channel=1 note=50 velocity=100 time=0
EXTRACT: note_off channel=1 note=56 velocity=100 time=0
EXTRACT: note_on channel=1 note=56 velocity=100 time=0
EXTRACT: note_on channel=1 note=50 velocity=100 time=0
EXTRACT: note_on channel=1 note=59 velocity=100 time=0
EXTRACT: note_on channel=1 note=65 velocity=100 time=0
EXTRACT: note_off channel=2 note=67 velocity=100 time=0
EXTRACT: note_on channel=2 note=69 velocity=100 time=0
EXTRACT: note_off channel=3 note=44 velocity=100 time=0
EXTRACT: note_off channel=5 note=32 velocity=100 time=0
EXTRACT: note_on channel=5 note=32 velocity=100 time=0
EXTRACT: note_on channel=9 note=35 velocity=127 time=0
EXTRACT: note_on channel=9 note=36 velocity=127 time=0
EXTRACT: note_on channel=9 note=54 velocity=127 time=0
EXTRACT: note_on channel=9 note=51 velocity=127 time=0
EXTRACT: note_on channel=9 note=70 velocity=127 time=0
EXTRACT: note_off channel=9 note=70 velocity=127 time=0.029761666666666662
EXTRACT: note_off channel=9 note=51 velocity=127 time=0
EXTRACT: note_off channel=9 note=54 velocity=127 time=0
EXTRACT: note_off channel=9 note=36 velocity=127 time=0
EXTRACT: note_off channel=9 note=35 velocity=127 time=0
EXTRACT: pitchwheel channel=3 pitch=640 time=0.022321249999999997
EXTRACT: pitchwheel channel=3 pitch=384 time=0.013020729166666665
EXTRACT: pitchwheel channel=3 pitch=0 time=0.011160624999999999
EXTRACT: pitchwheel channel=3 pitch=-128 time=0.013020729166666665
EXTRACT: pitchwheel channel=3 pitch=128 time=0.059523333333333324
EXTRACT: pitchwheel channel=3 pitch=384 time=0.011160624999999999
EXTRACT: pitchwheel channel=3 pitch=768 time=0.011160624999999999
EXTRACT: note_off channel=2 note=69 velocity=100 time=0.0074404166666666655
EXTRACT: note_on channel=2 note=72 velocity=100 time=0
EXTRACT: note_off channel=5 note=32 velocity=100 time=0
EXTRACT: note_on channel=5 note=32 velocity=100 time=0
EXTRACT: note_on channel=9 note=54 velocity=127 time=0
EXTRACT: note_on channel=9 note=70 velocity=127 time=0
EXTRACT: pitchwheel channel=3 pitch=-256 time=0.005580312499999999
EXTRACT: note_off channel=9 note=70 velocity=127 time=0.024181354166666662
EXTRACT: note_off channel=9 note=54 velocity=127 time=0
EXTRACT: pitchwheel channel=3 pitch=0 time=0.04650260416666666
EXTRACT: pitchwheel channel=3 pitch=256 time=0.013020729166666665
EXTRACT: pitchwheel channel=3 pitch=384 time=0.011160624999999999
EXTRACT: pitchwheel channel=3 pitch=-384 time=0.011160624999999999
EXTRACT: note_off channel=1 note=65 velocity=100 time=0.06696374999999999
EXTRACT: note_off channel=1 note=59 velocity=100 time=0
EXTRACT: note_off channel=1 note=50 velocity=100 time=0
EXTRACT: note_off channel=1 note=56 velocity=100 time=0
EXTRACT: note_on channel=1 note=56 velocity=100 time=0
EXTRACT: note_on channel=1 note=50 velocity=100 time=0
EXTRACT: note_on channel=1 note=59 velocity=100 time=0
EXTRACT: note_on channel=1 note=65 velocity=100 time=0
EXTRACT: note_off channel=2 note=72 velocity=100 time=0
EXTRACT: note_on channel=2 note=72 velocity=100 time=0
EXTRACT: note_on channel=2 note=67 velocity=100 time=0
EXTRACT: note_off channel=5 note=32 velocity=100 time=0
EXTRACT: note_on channel=5 note=32 velocity=100 time=0
EXTRACT: note_on channel=9 note=38 velocity=127 time=0
EXTRACT: note_on channel=9 note=54 velocity=127 time=0
EXTRACT: note_on channel=9 note=51 velocity=127 time=0
EXTRACT: note_on channel=9 note=70 velocity=127 time=0
EXTRACT: note_off channel=9 note=70 velocity=127 time=0.029761666666666662
EXTRACT: note_off channel=9 note=51 velocity=127 time=0
EXTRACT: note_off channel=9 note=54 velocity=127 time=0
EXTRACT: note_off channel=9 note=38 velocity=127 time=0
EXTRACT: pitchwheel channel=3 pitch=-128 time=0.011160624999999999
EXTRACT: pitchwheel channel=3 pitch=384 time=0.011160624999999999
EXTRACT: pitchwheel channel=3 pitch=-128 time=0.048362708333333324
EXTRACT: pitchwheel channel=2 pitch=128 time=0.029761666666666662
EXTRACT: pitchwheel channel=2 pitch=-384 time=0.011160624999999999
EXTRACT: pitchwheel channel=2 pitch=-896 time=0.013020729166666665
EXTRACT: pitchwheel channel=2 pitch=-1408 time=0.011160624999999999
EXTRACT: pitchwheel channel=2 pitch=-1920 time=0.013020729166666665
EXTRACT: note_on channel=9 note=54 velocity=127 time=0
EXTRACT: note_on channel=9 note=70 velocity=127 time=0
EXTRACT: pitchwheel channel=2 pitch=-2432 time=0.011160624999999999
EXTRACT: pitchwheel channel=2 pitch=-2944 time=0.011160624999999999
EXTRACT: note_off channel=9 note=70 velocity=127 time=0.0074404166666666655
EXTRACT: note_off channel=9 note=54 velocity=127 time=0
EXTRACT: pitchwheel channel=2 pitch=-3456 time=0.005580312499999999
EXTRACT: pitchwheel channel=2 pitch=-3968 time=0.011160624999999999
EXTRACT: pitchwheel channel=2 pitch=-4480 time=0.013020729166666665
EXTRACT: pitchwheel channel=2 pitch=-4992 time=0.011160624999999999
EXTRACT: pitchwheel channel=2 pitch=-5504 time=0.011160624999999999
EXTRACT: pitchwheel channel=2 pitch=-6016 time=0.013020729166666665
EXTRACT: pitchwheel channel=2 pitch=-6528 time=0.011160624999999999
EXTRACT: pitchwheel channel=2 pitch=-7040 time=0.013020729166666665
EXTRACT: pitchwheel channel=2 pitch=-7552 time=0.011160624999999999
EXTRACT: pitchwheel channel=3 pitch=0 time=0.005580312499999999
EXTRACT: pitchwheel channel=2 pitch=-8064 time=0.005580312499999999
EXTRACT: note_off channel=3 note=44 velocity=100 time=0.013020729166666665
EXTRACT: note_on channel=3 note=44 velocity=100 time=0.011160624999999999
EXTRACT: note_off channel=1 note=65 velocity=100 time=0.013020729166666665
EXTRACT: note_off channel=1 note=59 velocity=100 time=0
EXTRACT: note_off channel=1 note=50 velocity=100 time=0
EXTRACT: note_off channel=1 note=56 velocity=100 time=0
EXTRACT: note_on channel=1 note=56 velocity=100 time=0
EXTRACT: note_on channel=1 note=50 velocity=100 time=0
EXTRACT: note_on channel=1 note=59 velocity=100 time=0
EXTRACT: note_on channel=1 note=65 velocity=100 time=0
EXTRACT: note_off channel=2 note=67 velocity=100 time=0
EXTRACT: note_off channel=2 note=72 velocity=100 time=0
EXTRACT: note_on channel=2 note=64 velocity=100 time=0
EXTRACT: note_off channel=5 note=32 velocity=100 time=0
EXTRACT: note_on channel=5 note=32 velocity=100 time=0
EXTRACT: note_on channel=9 note=54 velocity=127 time=0
EXTRACT: note_on channel=9 note=51 velocity=127 time=0
EXTRACT: note_on channel=9 note=70 velocity=127 time=0
EXTRACT: pitchwheel channel=2 pitch=-8064 time=0.022321249999999997
EXTRACT: note_off channel=9 note=70 velocity=127 time=0.0074404166666666655
EXTRACT: note_off channel=9 note=51 velocity=127 time=0
EXTRACT: note_off channel=9 note=54 velocity=127 time=0
EXTRACT: pitchwheel channel=2 pitch=-5376 time=0.005580312499999999
EXTRACT: pitchwheel channel=2 pitch=-2688 time=0.011160624999999999
EXTRACT: pitchwheel channel=2 pitch=0 time=0.013020729166666665
EXTRACT: note_off channel=2 note=64 velocity=100 time=0.11904666666666665
EXTRACT: note_on channel=2 note=64 velocity=100 time=0
EXTRACT: note_on channel=9 note=38 velocity=127 time=0
EXTRACT: note_on channel=9 note=54 velocity=127 time=0
EXTRACT: note_on channel=9 note=70 velocity=127 time=0
EXTRACT: note_off channel=9 note=70 velocity=127 time=0.029761666666666662
EXTRACT: note_off channel=9 note=54 velocity=127 time=0
EXTRACT: note_off channel=9 note=38 velocity=127 time=0
EXTRACT: note_off channel=3 note=44 velocity=100 time=0.13578760416666666
EXTRACT: note_off channel=1 note=65 velocity=100 time=0.013020729166666665
EXTRACT: note_off channel=1 note=59 velocity=100 time=0
EXTRACT: note_off channel=1 note=50 velocity=100 time=0
EXTRACT: note_off channel=1 note=56 velocity=100 time=0
EXTRACT: note_on channel=1 note=45 velocity=100 time=0
EXTRACT: note_on channel=1 note=52 velocity=100 time=0
EXTRACT: note_on channel=1 note=57 velocity=100 time=0
EXTRACT: note_on channel=1 note=60 velocity=100 time=0
EXTRACT: note_on channel=1 note=64 velocity=100 time=0
EXTRACT: note_off channel=2 note=64 velocity=100 time=0
EXTRACT: note_on channel=2 note=64 velocity=100 time=0
EXTRACT: note_on channel=3 note=45 velocity=100 time=0
EXTRACT: note_on channel=3 note=52 velocity=100 time=0
EXTRACT: note_on channel=3 note=57 velocity=100 time=0
EXTRACT: note_off channel=5 note=32 velocity=100 time=0
EXTRACT: note_on channel=5 note=33 velocity=100 time=0
EXTRACT: note_on channel=9 note=35 velocity=127 time=0
EXTRACT: note_on channel=9 note=36 velocity=127 time=0
EXTRACT: note_on channel=9 note=54 velocity=127 time=0
EXTRACT: note_on channel=9 note=49 velocity=127 time=0
EXTRACT: note_on channel=9 note=70 velocity=127 time=0
EXTRACT: pitchwheel channel=2 pitch=-8064 time=0.011160624999999999
EXTRACT: pitchwheel channel=2 pitch=-7552 time=0.011160624999999999
EXTRACT: note_off channel=9 note=70 velocity=127 time=0.0074404166666666655
EXTRACT: note_off channel=9 note=49 velocity=127 time=0
EXTRACT: note_off channel=9 note=54 velocity=127 time=0
EXTRACT: note_off channel=9 note=36 velocity=127 time=0
EXTRACT: note_off channel=9 note=35 velocity=127 time=0
EXTRACT: pitchwheel channel=2 pitch=-6912 time=0.005580312499999999
EXTRACT: pitchwheel channel=2 pitch=-6272 time=0.011160624999999999
EXTRACT: pitchwheel channel=2 pitch=-5632 time=0.013020729166666665
EXTRACT: pitchwheel channel=2 pitch=-4992 time=0.011160624999999999
EXTRACT: pitchwheel channel=2 pitch=-4352 time=0.011160624999999999
EXTRACT: pitchwheel channel=2 pitch=-3712 time=0.013020729166666665
EXTRACT: pitchwheel channel=2 pitch=-3072 time=0.011160624999999999
EXTRACT: pitchwheel channel=2 pitch=-2432 time=0.013020729166666665
EXTRACT: pitchwheel channel=2 pitch=-1792 time=0.011160624999999999
EXTRACT: pitchwheel channel=2 pitch=-1152 time=0.011160624999999999
EXTRACT: pitchwheel channel=2 pitch=-512 time=0.013020729166666665
EXTRACT: pitchwheel channel=2 pitch=128 time=0.011160624999999999
EXTRACT: note_on channel=9 note=54 velocity=127 time=0.013020729166666665
EXTRACT: note_off channel=9 note=54 velocity=127 time=0.029761666666666662
EXTRACT: note_off channel=2 note=64 velocity=100 time=0.14880833333333332
EXTRACT: note_on channel=2 note=64 velocity=100 time=0
EXTRACT: note_off channel=5 note=33 velocity=100 time=0
EXTRACT: note_on channel=5 note=33 velocity=100 time=0
EXTRACT: note_on channel=9 note=54 velocity=127 time=0
EXTRACT: note_on channel=9 note=51 velocity=127 time=0
EXTRACT: note_on channel=9 note=70 velocity=127 time=0
EXTRACT: pitchwheel channel=2 pitch=-8064 time=0.022321249999999997
EXTRACT: note_off channel=9 note=70 velocity=127 time=0.0074404166666666655
EXTRACT: note_off channel=9 note=51 velocity=127 time=0
EXTRACT: note_off channel=9 note=54 velocity=127 time=0
EXTRACT: pitchwheel channel=2 pitch=-7552 time=0.005580312499999999
EXTRACT: pitchwheel channel=2 pitch=-6912 time=0.011160624999999999
EXTRACT: pitchwheel channel=2 pitch=-6272 time=0.013020729166666665
EXTRACT: pitchwheel channel=2 pitch=-5632 time=0.011160624999999999
EXTRACT: pitchwheel channel=2 pitch=-4992 time=0.011160624999999999
EXTRACT: pitchwheel channel=2 pitch=-4352 time=0.013020729166666665
EXTRACT: pitchwheel channel=2 pitch=-3712 time=0.011160624999999999
EXTRACT: pitchwheel channel=2 pitch=-3072 time=0.013020729166666665
EXTRACT: pitchwheel channel=2 pitch=-2432 time=0.011160624999999999
EXTRACT: pitchwheel channel=2 pitch=-1792 time=0.011160624999999999
EXTRACT: pitchwheel channel=2 pitch=-1152 time=0.013020729166666665
EXTRACT: pitchwheel channel=2 pitch=-512 time=0.011160624999999999
EXTRACT: pitchwheel channel=2 pitch=128 time=0.013020729166666665
EXTRACT: note_on channel=9 note=54 velocity=127 time=0
EXTRACT: note_on channel=9 note=70 velocity=127 time=0
EXTRACT: note_off channel=9 note=70 velocity=127 time=0.029761666666666662
EXTRACT: note_off channel=9 note=54 velocity=127 time=0
EXTRACT: note_off channel=1 note=64 velocity=100 time=0.14880833333333332
EXTRACT: note_off channel=1 note=60 velocity=100 time=0
EXTRACT: note_off channel=1 note=57 velocity=100 time=0
EXTRACT: note_off channel=1 note=52 velocity=100 time=0
EXTRACT: note_off channel=1 note=45 velocity=100 time=0
EXTRACT: note_on channel=1 note=45 velocity=100 time=0
EXTRACT: note_on channel=1 note=52 velocity=100 time=0
EXTRACT: note_on channel=1 note=57 velocity=100 time=0
EXTRACT: note_on channel=1 note=60 velocity=100 time=0
EXTRACT: note_on channel=1 note=64 velocity=100 time=0
EXTRACT: note_off channel=2 note=64 velocity=100 time=0
EXTRACT: note_on channel=2 note=64 velocity=100 time=0
EXTRACT: note_off channel=5 note=33 velocity=100 time=0
EXTRACT: note_on channel=5 note=33 velocity=100 time=0
EXTRACT: note_on channel=9 note=38 velocity=127 time=0
EXTRACT: note_on channel=9 note=54 velocity=127 time=0
EXTRACT: note_on channel=9 note=51 velocity=127 time=0
EXTRACT: note_on channel=9 note=70 velocity=127 time=0
EXTRACT: pitchwheel channel=2 pitch=-7936 time=0.022321249999999997
EXTRACT: note_off channel=9 note=70 velocity=127 time=0.0074404166666666655
EXTRACT: note_off channel=9 note=51 velocity=127 time=0
EXTRACT: note_off channel=9 note=54 velocity=127 time=0
EXTRACT: note_off channel=9 note=38 velocity=127 time=0
EXTRACT: pitchwheel channel=2 pitch=-7040 time=0.005580312499999999
EXTRACT: pitchwheel channel=2 pitch=-6016 time=0.011160624999999999
EXTRACT: pitchwheel channel=2 pitch=-4992 time=0.013020729166666665
EXTRACT: pitchwheel channel=2 pitch=-3968 time=0.011160624999999999
EXTRACT: pitchwheel channel=2 pitch=-3072 time=0.011160624999999999
EXTRACT: pitchwheel channel=2 pitch=-2048 time=0.013020729166666665
EXTRACT: pitchwheel channel=2 pitch=-1024 time=0.011160624999999999
EXTRACT: pitchwheel channel=2 pitch=0 time=0.013020729166666665
EXTRACT: note_on channel=9 note=54 velocity=127 time=0.059523333333333324
EXTRACT: note_off channel=9 note=54 velocity=127 time=0.029761666666666662
EXTRACT: note_off channel=1 note=64 velocity=100 time=0.14880833333333332
EXTRACT: note_off channel=1 note=60 velocity=100 time=0
EXTRACT: note_off channel=1 note=57 velocity=100 time=0
EXTRACT: note_off channel=1 note=52 velocity=100 time=0
EXTRACT: note_off channel=1 note=45 velocity=100 time=0
EXTRACT: note_on channel=1 note=45 velocity=100 time=0
EXTRACT: note_on channel=1 note=52 velocity=100 time=0
EXTRACT: note_on channel=1 note=57 velocity=100 time=0
EXTRACT: note_on channel=1 note=60 velocity=100 time=0
EXTRACT: note_on channel=1 note=64 velocity=100 time=0
EXTRACT: note_off channel=2 note=64 velocity=100 time=0
EXTRACT: note_on channel=2 note=64 velocity=100 time=0
EXTRACT: note_off channel=5 note=33 velocity=100 time=0
EXTRACT: note_on channel=5 note=33 velocity=100 time=0
EXTRACT: note_on channel=9 note=54 velocity=127 time=0
EXTRACT: note_on channel=9 note=51 velocity=127 time=0
EXTRACT: note_on channel=9 note=70 velocity=127 time=0
EXTRACT: pitchwheel channel=2 pitch=-8064 time=0.022321249999999997
EXTRACT: note_off channel=9 note=70 velocity=127 time=0.0074404166666666655
EXTRACT: note_off channel=9 note=51 velocity=127 time=0
EXTRACT: note_off channel=9 note=54 velocity=127 time=0
EXTRACT: pitchwheel channel=2 pitch=-6784 time=0.005580312499999999
EXTRACT: pitchwheel channel=2 pitch=-5376 time=0.011160624999999999
EXTRACT: pitchwheel channel=2 pitch=-4096 time=0.013020729166666665
EXTRACT: pitchwheel channel=2 pitch=-2688 time=0.011160624999999999
EXTRACT: pitchwheel channel=2 pitch=-1408 time=0.011160624999999999
EXTRACT: pitchwheel channel=2 pitch=0 time=0.013020729166666665
EXTRACT: note_off channel=5 note=33 velocity=100 time=0.08370468749999999
EXTRACT: note_on channel=5 note=33 velocity=100 time=0
EXTRACT: note_on channel=9 note=38 velocity=127 time=0
EXTRACT: note_on channel=9 note=54 velocity=127 time=0
EXTRACT: note_on channel=9 note=70 velocity=127 time=0
EXTRACT: note_off channel=9 note=70 velocity=127 time=0.029761666666666662
EXTRACT: note_off channel=9 note=54 velocity=127 time=0
EXTRACT: note_off channel=9 note=38 velocity=127 time=0
EXTRACT: pitchwheel channel=2 pitch=-8192 time=0.13578760416666666
EXTRACT: note_off channel=1 note=64 velocity=100 time=0.013020729166666665
EXTRACT: note_off channel=1 note=60 velocity=100 time=0
EXTRACT: note_off channel=1 note=57 velocity=100 time=0
EXTRACT: note_off channel=1 note=52 velocity=100 time=0
EXTRACT: note_off channel=1 note=45 velocity=100 time=0
EXTRACT: note_on channel=1 note=47 velocity=100 time=0
EXTRACT: note_on channel=1 note=43 velocity=100 time=0
EXTRACT: note_on channel=1 note=50 velocity=100 time=0
EXTRACT: note_on channel=1 note=55 velocity=100 time=0
EXTRACT: note_on channel=1 note=59 velocity=100 time=0
EXTRACT: note_on channel=1 note=67 velocity=100 time=0
EXTRACT: note_off channel=2 note=64 velocity=100 time=0
EXTRACT: pitchwheel channel=2 pitch=-7424 time=0
EXTRACT: note_on channel=2 note=64 velocity=100 time=0
EXTRACT: note_off channel=3 note=57 velocity=100 time=0
EXTRACT: note_off channel=3 note=52 velocity=100 time=0
EXTRACT: note_off channel=3 note=45 velocity=100 time=0
EXTRACT: note_on channel=3 note=43 velocity=100 time=0
EXTRACT: note_on channel=3 note=50 velocity=100 time=0
EXTRACT: note_off channel=5 note=33 velocity=100 time=0
EXTRACT: note_on channel=5 note=31 velocity=100 time=0
EXTRACT: note_on channel=9 note=35 velocity=127 time=0
EXTRACT: note_on channel=9 note=36 velocity=127 time=0
EXTRACT: note_on channel=9 note=54 velocity=127 time=0
EXTRACT: note_on channel=9 note=51 velocity=127 time=0
EXTRACT: note_on channel=9 note=70 velocity=127 time=0
EXTRACT: pitchwheel channel=2 pitch=-6656 time=0.011160624999999999
EXTRACT: note_on channel=3 note=55 velocity=100 time=0
EXTRACT: pitchwheel channel=2 pitch=-5760 time=0.011160624999999999
EXTRACT: note_off channel=9 note=70 velocity=127 time=0.0074404166666666655
EXTRACT: note_off channel=9 note=51 velocity=127 time=0
EXTRACT: note_off channel=9 note=54 velocity=127 time=0
EXTRACT: note_off channel=9 note=36 velocity=127 time=0
EXTRACT: note_off channel=9 note=35 velocity=127 time=0
EXTRACT: pitchwheel channel=2 pitch=-4992 time=0.005580312499999999
EXTRACT: pitchwheel channel=2 pitch=-4096 time=0.011160624999999999
EXTRACT: pitchwheel channel=2 pitch=-3328 time=0.013020729166666665
EXTRACT: pitchwheel channel=2 pitch=-2560 time=0.011160624999999999
EXTRACT: pitchwheel channel=2 pitch=-1664 time=0.011160624999999999
EXTRACT: pitchwheel channel=2 pitch=-896 time=0.013020729166666665
EXTRACT: pitchwheel channel=2 pitch=0 time=0.011160624999999999
EXTRACT: note_on channel=9 note=54 velocity=127 time=0.07254406249999999
EXTRACT: note_off channel=9 note=54 velocity=127 time=0.029761666666666662
EXTRACT: note_off channel=2 note=64 velocity=100 time=0.14880833333333332
EXTRACT: note_on channel=2 note=64 velocity=100 time=0
EXTRACT: note_off channel=5 note=31 velocity=100 time=0
EXTRACT: note_on channel=5 note=31 velocity=100 time=0
EXTRACT: note_on channel=9 note=35 velocity=127 time=0
EXTRACT: note_on channel=9 note=36 velocity=127 time=0
EXTRACT: note_on channel=9 note=54 velocity=127 time=0
EXTRACT: note_on channel=9 note=51 velocity=127 time=0
EXTRACT: note_on channel=9 note=70 velocity=127 time=0
EXTRACT: note_off channel=9 note=70 velocity=127 time=0.029761666666666662
EXTRACT: note_off channel=9 note=51 velocity=127 time=0
EXTRACT: note_off channel=9 note=54 velocity=127 time=0
EXTRACT: note_off channel=9 note=36 velocity=127 time=0
EXTRACT: note_off channel=9 note=35 velocity=127 time=0
EXTRACT: note_off channel=2 note=64 velocity=100 time=0.14880833333333332
EXTRACT: note_on channel=2 note=64 velocity=100 time=0
EXTRACT: note_on channel=9 note=54 velocity=127 time=0
EXTRACT: note_on channel=9 note=70 velocity=127 time=0
EXTRACT: note_off channel=9 note=70 velocity=127 time=0.029761666666666662
EXTRACT: note_off channel=9 note=54 velocity=127 time=0
EXTRACT: note_off channel=1 note=67 velocity=100 time=0.14880833333333332
EXTRACT: note_off channel=1 note=59 velocity=100 time=0
EXTRACT: note_off channel=1 note=55 velocity=100 time=0
EXTRACT: note_off channel=1 note=50 velocity=100 time=0
EXTRACT: note_off channel=1 note=43 velocity=100 time=0
EXTRACT: note_off channel=1 note=47 velocity=100 time=0
EXTRACT: note_on channel=1 note=43 velocity=100 time=0
EXTRACT: note_on channel=1 note=47 velocity=100 time=0
EXTRACT: note_on channel=1 note=50 velocity=100 time=0
EXTRACT: note_on channel=1 note=55 velocity=100 time=0
EXTRACT: note_on channel=1 note=59 velocity=100 time=0
EXTRACT: note_on channel=1 note=67 velocity=100 time=0
EXTRACT: note_off channel=2 note=64 velocity=100 time=0
EXTRACT: note_on channel=2 note=64 velocity=100 time=0
EXTRACT: note_off channel=5 note=31 velocity=100 time=0
EXTRACT: note_on channel=5 note=31 velocity=100 time=0
EXTRACT: note_on channel=9 note=38 velocity=127 time=0
EXTRACT: note_on channel=9 note=54 velocity=127 time=0
EXTRACT: note_on channel=9 note=51 velocity=127 time=0
EXTRACT: note_on channel=9 note=70 velocity=127 time=0
EXTRACT: note_off channel=9 note=70 velocity=127 time=0.029761666666666662
EXTRACT: note_off channel=9 note=51 velocity=127 time=0
EXTRACT: note_off channel=9 note=54 velocity=127 time=0
EXTRACT: note_off channel=9 note=38 velocity=127 time=0
EXTRACT: pitchwheel channel=2 pitch=-7936 time=0.016740937499999997
EXTRACT: pitchwheel channel=2 pitch=-7168 time=0.013020729166666665
EXTRACT: pitchwheel channel=2 pitch=-6272 time=0.011160624999999999
EXTRACT: pitchwheel channel=2 pitch=-5376 time=0.011160624999999999
EXTRACT: pitchwheel channel=2 pitch=-4480 time=0.013020729166666665
EXTRACT: pitchwheel channel=2 pitch=-3584 time=0.011160624999999999
EXTRACT: pitchwheel channel=2 pitch=-2688 time=0.013020729166666665
EXTRACT: pitchwheel channel=2 pitch=-1792 time=0.011160624999999999
EXTRACT: pitchwheel channel=2 pitch=-896 time=0.011160624999999999
EXTRACT: pitchwheel channel=2 pitch=0 time=0.013020729166666665
EXTRACT: note_on channel=9 note=54 velocity=127 time=0.024181354166666662
EXTRACT: note_on channel=9 note=70 velocity=127 time=0
EXTRACT: note_off channel=9 note=70 velocity=127 time=0.029761666666666662
EXTRACT: note_off channel=9 note=54 velocity=127 time=0
EXTRACT: note_off channel=1 note=67 velocity=100 time=0.14880833333333332
EXTRACT: note_off channel=1 note=59 velocity=100 time=0
EXTRACT: note_off channel=1 note=55 velocity=100 time=0
EXTRACT: note_off channel=1 note=50 velocity=100 time=0
EXTRACT: note_off channel=1 note=47 velocity=100 time=0
EXTRACT: note_off channel=1 note=43 velocity=100 time=0
EXTRACT: note_on channel=1 note=50 velocity=100 time=0
EXTRACT: note_on channel=1 note=47 velocity=100 time=0
EXTRACT: note_on channel=1 note=43 velocity=100 time=0
EXTRACT: note_on channel=1 note=55 velocity=100 time=0
EXTRACT: note_on channel=1 note=59 velocity=100 time=0
EXTRACT: note_on channel=1 note=67 velocity=100 time=0
EXTRACT: note_off channel=2 note=64 velocity=100 time=0
EXTRACT: note_on channel=2 note=64 velocity=100 time=0
EXTRACT: note_off channel=5 note=31 velocity=100 time=0
EXTRACT: note_on channel=5 note=31 velocity=100 time=0
EXTRACT: note_on channel=9 note=54 velocity=127 time=0
EXTRACT: note_on channel=9 note=51 velocity=127 time=0
EXTRACT: note_on channel=9 note=70 velocity=127 time=0
EXTRACT: note_off channel=9 note=70 velocity=127 time=0.029761666666666662
EXTRACT: note_off channel=9 note=51 velocity=127 time=0
EXTRACT: note_off channel=9 note=54 velocity=127 time=0
EXTRACT: note_off channel=2 note=64 velocity=100 time=0.14880833333333332
EXTRACT: note_on channel=2 note=64 velocity=100 time=0
EXTRACT: note_on channel=9 note=38 velocity=127 time=0
EXTRACT: note_on channel=9 note=54 velocity=127 time=0
EXTRACT: note_on channel=9 note=70 velocity=127 time=0
EXTRACT: note_off channel=9 note=70 velocity=127 time=0.029761666666666662
EXTRACT: note_off channel=9 note=54 velocity=127 time=0
EXTRACT: note_off channel=9 note=38 velocity=127 time=0
EXTRACT: note_on channel=9 note=38 velocity=127 time=0.029761666666666662
EXTRACT: note_off channel=9 note=38 velocity=127 time=0.029761666666666662
EXTRACT: note_off channel=1 note=67 velocity=100 time=0.08928499999999999
EXTRACT: note_off channel=1 note=59 velocity=100 time=0
EXTRACT: note_off channel=1 note=55 velocity=100 time=0
EXTRACT: note_off channel=1 note=43 velocity=100 time=0
EXTRACT: note_off channel=1 note=47 velocity=100 time=0
EXTRACT: note_off channel=1 note=50 velocity=100 time=0
EXTRACT: note_on channel=1 note=41 velocity=100 time=0
EXTRACT: note_on channel=1 note=48 velocity=100 time=0
EXTRACT: note_on channel=1 note=53 velocity=100 time=0
EXTRACT: note_on channel=1 note=57 velocity=100 time=0
EXTRACT: note_on channel=1 note=60 velocity=100 time=0
EXTRACT: note_off channel=2 note=64 velocity=100 time=0
EXTRACT: pitchwheel channel=2 pitch=8191 time=0
EXTRACT: note_on channel=2 note=62 velocity=100 time=0
EXTRACT: note_off channel=3 note=50 velocity=100 time=0
EXTRACT: note_off channel=3 note=43 velocity=100 time=0
EXTRACT: note_on channel=3 note=41 velocity=100 time=0
EXTRACT: note_off channel=5 note=31 velocity=100 time=0
EXTRACT: note_on channel=5 note=29 velocity=100 time=0
EXTRACT: note_on channel=9 note=35 velocity=127 time=0
EXTRACT: note_on channel=9 note=36 velocity=127 time=0
EXTRACT: note_on channel=9 note=54 velocity=127 time=0
EXTRACT: note_on channel=9 note=51 velocity=127 time=0
EXTRACT: note_on channel=9 note=70 velocity=127 time=0
EXTRACT: pitchwheel channel=2 pitch=7936 time=0.011160624999999999
EXTRACT: note_off channel=3 note=55 velocity=100 time=0
EXTRACT: pitchwheel channel=2 pitch=7552 time=0.011160624999999999
EXTRACT: note_off channel=9 note=70 velocity=127 time=0.0074404166666666655
EXTRACT: note_off channel=9 note=51 velocity=127 time=0
EXTRACT: note_off channel=9 note=54 velocity=127 time=0
EXTRACT: note_off channel=9 note=36 velocity=127 time=0
EXTRACT: note_off channel=9 note=35 velocity=127 time=0
EXTRACT: pitchwheel channel=2 pitch=7168 time=0.005580312499999999
EXTRACT: pitchwheel channel=2 pitch=6912 time=0.011160624999999999
EXTRACT: pitchwheel channel=2 pitch=6528 time=0.013020729166666665
EXTRACT: pitchwheel channel=2 pitch=6144 time=0.011160624999999999
EXTRACT: pitchwheel channel=2 pitch=5888 time=0.011160624999999999
EXTRACT: pitchwheel channel=2 pitch=5504 time=0.013020729166666665
EXTRACT: pitchwheel channel=2 pitch=5120 time=0.011160624999999999
EXTRACT: pitchwheel channel=2 pitch=4864 time=0.013020729166666665
EXTRACT: pitchwheel channel=2 pitch=4480 time=0.011160624999999999
EXTRACT: pitchwheel channel=2 pitch=4096 time=0.011160624999999999
EXTRACT: pitchwheel channel=2 pitch=3840 time=0.013020729166666665
EXTRACT: pitchwheel channel=2 pitch=3456 time=0.011160624999999999
EXTRACT: pitchwheel channel=2 pitch=3072 time=0.013020729166666665
EXTRACT: note_on channel=9 note=38 velocity=127 time=0
EXTRACT: note_on channel=9 note=54 velocity=127 time=0
EXTRACT: pitchwheel channel=2 pitch=2816 time=0.011160624999999999
EXTRACT: pitchwheel channel=2 pitch=2432 time=0.011160624999999999
EXTRACT: note_off channel=9 note=54 velocity=127 time=0.0074404166666666655
EXTRACT: note_off channel=9 note=38 velocity=127 time=0
EXTRACT: pitchwheel channel=2 pitch=2048 time=0.005580312499999999
EXTRACT: pitchwheel channel=2 pitch=1792 time=0.011160624999999999
EXTRACT: pitchwheel channel=2 pitch=1408 time=0.013020729166666665
EXTRACT: pitchwheel channel=2 pitch=1024 time=0.011160624999999999
EXTRACT: pitchwheel channel=2 pitch=768 time=0.011160624999999999
EXTRACT: pitchwheel channel=2 pitch=384 time=0.013020729166666665
EXTRACT: pitchwheel channel=2 pitch=0 time=0.011160624999999999
EXTRACT: note_off channel=1 note=60 velocity=100 time=0.07254406249999999
EXTRACT: note_off channel=1 note=57 velocity=100 time=0
EXTRACT: note_off channel=1 note=53 velocity=100 time=0
EXTRACT: note_off channel=1 note=48 velocity=100 time=0
EXTRACT: note_off channel=1 note=41 velocity=100 time=0
EXTRACT: note_on channel=1 note=41 velocity=100 time=0
EXTRACT: note_on channel=1 note=48 velocity=100 time=0
EXTRACT: note_on channel=1 note=53 velocity=100 time=0
EXTRACT: note_on channel=1 note=57 velocity=100 time=0
EXTRACT: note_on channel=1 note=60 velocity=100 time=0
EXTRACT: note_off channel=2 note=62 velocity=100 time=0
EXTRACT: note_on channel=2 note=60 velocity=100 time=0
EXTRACT: note_off channel=3 note=41 velocity=100 time=0
EXTRACT: note_on channel=3 note=40 velocity=100 time=0
EXTRACT: note_off channel=5 note=29 velocity=100 time=0
EXTRACT: note_on channel=5 note=28 velocity=100 time=0
EXTRACT: note_on channel=9 note=35 velocity=127 time=0
EXTRACT: note_on channel=9 note=36 velocity=127 time=0
EXTRACT: note_on channel=9 note=54 velocity=127 time=0
EXTRACT: note_on channel=9 note=51 velocity=127 time=0
EXTRACT: note_on channel=9 note=70 velocity=127 time=0
EXTRACT: note_off channel=9 note=70 velocity=127 time=0.029761666666666662
EXTRACT: note_off channel=9 note=51 velocity=127 time=0
EXTRACT: note_off channel=9 note=54 velocity=127 time=0
EXTRACT: note_off channel=9 note=36 velocity=127 time=0
EXTRACT: note_off channel=9 note=35 velocity=127 time=0
EXTRACT: note_off channel=2 note=60 velocity=100 time=0.14880833333333332
EXTRACT: note_on channel=2 note=62 velocity=100 time=0
EXTRACT: note_on channel=9 note=54 velocity=127 time=0
EXTRACT: note_on channel=9 note=70 velocity=127 time=0
EXTRACT: note_off channel=9 note=70 velocity=127 time=0.029761666666666662
EXTRACT: note_off channel=9 note=54 velocity=127 time=0
EXTRACT: note_off channel=1 note=60 velocity=100 time=0.14880833333333332
EXTRACT: note_off channel=1 note=57 velocity=100 time=0
EXTRACT: note_off channel=1 note=53 velocity=100 time=0
EXTRACT: note_off channel=1 note=48 velocity=100 time=0
EXTRACT: note_off channel=1 note=41 velocity=100 time=0
EXTRACT: note_on channel=1 note=41 velocity=100 time=0
EXTRACT: note_on channel=1 note=48 velocity=100 time=0
EXTRACT: note_on channel=1 note=53 velocity=100 time=0
EXTRACT: note_on channel=1 note=57 velocity=100 time=0
EXTRACT: note_on channel=1 note=60 velocity=100 time=0
EXTRACT: note_off channel=2 note=62 velocity=100 time=0
EXTRACT: note_on channel=2 note=60 velocity=100 time=0
EXTRACT: note_off channel=3 note=40 velocity=100 time=0
EXTRACT: note_on channel=3 note=41 velocity=100 time=0
EXTRACT: note_off channel=5 note=28 velocity=100 time=0
EXTRACT: note_on channel=5 note=29 velocity=100 time=0
EXTRACT: note_on channel=9 note=38 velocity=127 time=0
EXTRACT: note_on channel=9 note=54 velocity=127 time=0
EXTRACT: note_on channel=9 note=51 velocity=127 time=0
EXTRACT: note_on channel=9 note=70 velocity=127 time=0
EXTRACT: pitchwheel channel=2 pitch=768 time=0.011160624999999999
EXTRACT: pitchwheel channel=2 pitch=1408 time=0.011160624999999999
EXTRACT: note_off channel=9 note=70 velocity=127 time=0.0074404166666666655
EXTRACT: note_off channel=9 note=51 velocity=127 time=0
EXTRACT: note_off channel=9 note=54 velocity=127 time=0
EXTRACT: note_off channel=9 note=38 velocity=127 time=0
EXTRACT: pitchwheel channel=2 pitch=1280 time=0.005580312499999999
EXTRACT: pitchwheel channel=2 pitch=768 time=0.011160624999999999
EXTRACT: pitchwheel channel=2 pitch=-512 time=0.013020729166666665
EXTRACT: pitchwheel channel=2 pitch=-768 time=0.011160624999999999
EXTRACT: pitchwheel channel=2 pitch=-896 time=0.011160624999999999
EXTRACT: pitchwheel channel=2 pitch=1792 time=0.013020729166666665
EXTRACT: pitchwheel channel=2 pitch=1408 time=0.011160624999999999
EXTRACT: pitchwheel channel=2 pitch=896 time=0.013020729166666665
EXTRACT: pitchwheel channel=2 pitch=-256 time=0.011160624999999999
EXTRACT: pitchwheel channel=2 pitch=-768 time=0.011160624999999999
EXTRACT: note_on channel=9 note=54 velocity=127 time=0.03720208333333333
EXTRACT: pitchwheel channel=2 pitch=-512 time=0.011160624999999999
EXTRACT: pitchwheel channel=2 pitch=0 time=0.011160624999999999
EXTRACT: note_off channel=9 note=54 velocity=127 time=0.0074404166666666655
EXTRACT: pitchwheel channel=2 pitch=256 time=0.005580312499999999
EXTRACT: pitchwheel channel=2 pitch=-512 time=0.011160624999999999
EXTRACT: pitchwheel channel=2 pitch=-256 time=0.024181354166666662
EXTRACT: pitchwheel channel=2 pitch=1024 time=0.011160624999999999
EXTRACT: pitchwheel channel=2 pitch=640 time=0.013020729166666665
EXTRACT: pitchwheel channel=2 pitch=512 time=0.011160624999999999
EXTRACT: pitchwheel channel=2 pitch=0 time=0.048362708333333324
EXTRACT: pitchwheel channel=2 pitch=1024 time=0.011160624999999999
EXTRACT: note_off channel=2 note=60 velocity=100 time=0.013020729166666665
EXTRACT: note_on channel=2 note=60 velocity=100 time=0
EXTRACT: note_off channel=3 note=41 velocity=100 time=0
EXTRACT: note_on channel=3 note=40 velocity=100 time=0
EXTRACT: note_off channel=5 note=29 velocity=100 time=0
EXTRACT: note_on channel=5 note=28 velocity=100 time=0
EXTRACT: note_on channel=9 note=54 velocity=127 time=0
EXTRACT: note_on channel=9 note=51 velocity=127 time=0
EXTRACT: note_on channel=9 note=70 velocity=127 time=0
EXTRACT: note_off channel=9 note=70 velocity=127 time=0.029761666666666662
EXTRACT: note_off channel=9 note=51 velocity=127 time=0
EXTRACT: note_off channel=9 note=54 velocity=127 time=0
EXTRACT: pitchwheel channel=2 pitch=-8192 time=0.13578760416666666
EXTRACT: note_off channel=2 note=60 velocity=100 time=0.013020729166666665
EXTRACT: pitchwheel channel=2 pitch=-6912 time=0
EXTRACT: note_on channel=9 note=38 velocity=127 time=0
EXTRACT: note_on channel=9 note=54 velocity=127 time=0
EXTRACT: note_on channel=9 note=70 velocity=127 time=0
EXTRACT: pitchwheel channel=2 pitch=-5504 time=0.011160624999999999
EXTRACT: pitchwheel channel=2 pitch=-4096 time=0.011160624999999999
EXTRACT: note_on channel=2 note=64 velocity=100 time=0.0074404166666666655
EXTRACT: note_off channel=9 note=70 velocity=127 time=0
EXTRACT: note_off channel=9 note=54 velocity=127 time=0
EXTRACT: note_off channel=9 note=38 velocity=127 time=0
EXTRACT: pitchwheel channel=2 pitch=-2816 time=0.005580312499999999
EXTRACT: pitchwheel channel=2 pitch=-1408 time=0.011160624999999999
EXTRACT: pitchwheel channel=2 pitch=0 time=0.013020729166666665
EXTRACT: note_off channel=1 note=60 velocity=100 time=0.11904666666666665
EXTRACT: note_off channel=1 note=57 velocity=100 time=0
EXTRACT: note_off channel=1 note=53 velocity=100 time=0
EXTRACT: note_off channel=1 note=48 velocity=100 time=0
EXTRACT: note_off channel=1 note=41 velocity=100 time=0
EXTRACT: note_on channel=1 note=48 velocity=100 time=0
EXTRACT: note_on channel=1 note=41 velocity=100 time=0
EXTRACT: note_on channel=1 note=53 velocity=100 time=0
EXTRACT: note_on channel=1 note=57 velocity=100 time=0
EXTRACT: note_on channel=1 note=60 velocity=100 time=0
EXTRACT: note_off channel=3 note=40 velocity=100 time=0
EXTRACT: note_on channel=3 note=41 velocity=100 time=0
EXTRACT: note_off channel=5 note=28 velocity=100 time=0
EXTRACT: note_on channel=5 note=29 velocity=100 time=0
EXTRACT: note_on channel=9 note=35 velocity=127 time=0
EXTRACT: note_on channel=9 note=36 velocity=127 time=0
EXTRACT: note_on channel=9 note=54 velocity=127 time=0
EXTRACT: note_on channel=9 note=51 velocity=127 time=0
EXTRACT: note_on channel=9 note=70 velocity=127 time=0
EXTRACT: note_off channel=9 note=70 velocity=127 time=0.029761666666666662
EXTRACT: note_off channel=9 note=51 velocity=127 time=0
EXTRACT: note_off channel=9 note=54 velocity=127 time=0
EXTRACT: note_off channel=9 note=36 velocity=127 time=0
EXTRACT: note_off channel=9 note=35 velocity=127 time=0
EXTRACT: note_on channel=9 note=54 velocity=127 time=0.14880833333333332
EXTRACT: note_on channel=2 note=69 velocity=100 time=0.022321249999999997
EXTRACT: note_off channel=2 note=64 velocity=100 time=0.0074404166666666655
EXTRACT: note_off channel=9 note=54 velocity=127 time=0
EXTRACT: note_off channel=2 note=69 velocity=100 time=0.13020729166666664
EXTRACT: pitchwheel channel=2 pitch=8191 time=0.018601041666666665
EXTRACT: note_on channel=2 note=62 velocity=100 time=0
EXTRACT: note_off channel=3 note=41 velocity=100 time=0
EXTRACT: note_on channel=3 note=40 velocity=100 time=0
EXTRACT: note_off channel=5 note=29 velocity=100 time=0
EXTRACT: note_on channel=5 note=28 velocity=100 time=0
EXTRACT: note_on channel=9 note=35 velocity=127 time=0
EXTRACT: note_on channel=9 note=36 velocity=127 time=0
EXTRACT: note_on channel=9 note=54 velocity=127 time=0
EXTRACT: note_on channel=9 note=51 velocity=127 time=0
EXTRACT: note_on channel=9 note=70 velocity=127 time=0
EXTRACT: pitchwheel channel=2 pitch=7168 time=0.011160624999999999
EXTRACT: pitchwheel channel=2 pitch=6144 time=0.011160624999999999
EXTRACT: note_off channel=9 note=70 velocity=127 time=0.0074404166666666655
EXTRACT: note_off channel=9 note=51 velocity=127 time=0
EXTRACT: note_off channel=9 note=54 velocity=127 time=0
EXTRACT: note_off channel=9 note=36 velocity=127 time=0
EXTRACT: note_off channel=9 note=35 velocity=127 time=0
EXTRACT: pitchwheel channel=2 pitch=5120 time=0.005580312499999999
EXTRACT: pitchwheel channel=2 pitch=4096 time=0.011160624999999999
EXTRACT: pitchwheel channel=2 pitch=3072 time=0.013020729166666665
EXTRACT: pitchwheel channel=2 pitch=2048 time=0.011160624999999999
EXTRACT: pitchwheel channel=2 pitch=1024 time=0.011160624999999999
EXTRACT: pitchwheel channel=2 pitch=0 time=0.013020729166666665
EXTRACT: note_on channel=9 note=54 velocity=127 time=0.08370468749999999
EXTRACT: note_on channel=9 note=70 velocity=127 time=0
EXTRACT: note_off channel=9 note=70 velocity=127 time=0.029761666666666662
EXTRACT: note_off channel=9 note=54 velocity=127 time=0
EXTRACT: note_on channel=2 note=62 velocity=100 time=0.12462697916666665
EXTRACT: note_off channel=1 note=60 velocity=100 time=0.024181354166666662
EXTRACT: note_off channel=1 note=57 velocity=100 time=0
EXTRACT: note_off channel=1 note=53 velocity=100 time=0
EXTRACT: note_off channel=1 note=41 velocity=100 time=0
EXTRACT: note_off channel=1 note=48 velocity=100 time=0
EXTRACT: note_on channel=1 note=48 velocity=100 time=0
EXTRACT: note_on channel=1 note=41 velocity=100 time=0
EXTRACT: note_on channel=1 note=53 velocity=100 time=0
EXTRACT: note_on channel=1 note=57 velocity=100 time=0
EXTRACT: note_on channel=1 note=60 velocity=100 time=0
EXTRACT: note_off channel=2 note=62 velocity=100 time=0
EXTRACT: note_off channel=3 note=40 velocity=100 time=0
EXTRACT: note_on channel=3 note=41 velocity=100 time=0
EXTRACT: note_off channel=5 note=28 velocity=100 time=0
EXTRACT: note_on channel=5 note=29 velocity=100 time=0
EXTRACT: note_on channel=9 note=38 velocity=127 time=0
EXTRACT: note_on channel=9 note=54 velocity=127 time=0
EXTRACT: note_on channel=9 note=51 velocity=127 time=0
EXTRACT: note_on channel=9 note=70 velocity=127 time=0
EXTRACT: note_off channel=9 note=70 velocity=127 time=0.029761666666666662
EXTRACT: note_off channel=9 note=51 velocity=127 time=0
EXTRACT: note_off channel=9 note=54 velocity=127 time=0
EXTRACT: note_off channel=9 note=38 velocity=127 time=0
EXTRACT: note_off channel=2 note=62 velocity=100 time=0.12462697916666665
EXTRACT: note_on channel=2 note=64 velocity=100 time=0.024181354166666662
EXTRACT: note_on channel=9 note=54 velocity=127 time=0
EXTRACT: note_on channel=9 note=70 velocity=127 time=0
EXTRACT: note_off channel=9 note=70 velocity=127 time=0.029761666666666662
EXTRACT: note_off channel=9 note=54 velocity=127 time=0
EXTRACT: note_on channel=2 note=62 velocity=100 time=0.13578760416666666
EXTRACT: note_off channel=2 note=64 velocity=100 time=0.013020729166666665
EXTRACT: note_off channel=3 note=41 velocity=100 time=0
EXTRACT: note_on channel=3 note=40 velocity=100 time=0
EXTRACT: note_off channel=5 note=29 velocity=100 time=0
EXTRACT: note_on channel=5 note=30 velocity=100 time=0
EXTRACT: note_on channel=9 note=54 velocity=127 time=0
EXTRACT: note_on channel=9 note=51 velocity=127 time=0
EXTRACT: note_on channel=9 note=70 velocity=127 time=0
EXTRACT: note_off channel=9 note=70 velocity=127 time=0.029761666666666662
EXTRACT: note_off channel=9 note=51 velocity=127 time=0
EXTRACT: note_off channel=9 note=54 velocity=127 time=0
EXTRACT: note_off channel=2 note=62 velocity=100 time=0.13578760416666666
EXTRACT: note_on channel=2 note=64 velocity=100 time=0.013020729166666665
EXTRACT: note_on channel=9 note=38 velocity=127 time=0
EXTRACT: note_on channel=9 note=54 velocity=127 time=0
EXTRACT: note_on channel=9 note=70 velocity=127 time=0
EXTRACT: note_off channel=9 note=70 velocity=127 time=0.029761666666666662
EXTRACT: note_off channel=9 note=54 velocity=127 time=0
EXTRACT: note_off channel=9 note=38 velocity=127 time=0
EXTRACT: note_off channel=1 note=60 velocity=100 time=0.14880833333333332
EXTRACT: note_off channel=1 note=57 velocity=100 time=0
EXTRACT: note_off channel=1 note=53 velocity=100 time=0
EXTRACT: note_off channel=1 note=41 velocity=100 time=0
EXTRACT: note_off channel=1 note=48 velocity=100 time=0
EXTRACT: note_on channel=1 note=43 velocity=100 time=0
EXTRACT: note_on channel=1 note=50 velocity=100 time=0
EXTRACT: note_on channel=1 note=55 velocity=100 time=0
EXTRACT: note_on channel=1 note=59 velocity=100 time=0
EXTRACT: note_on channel=1 note=67 velocity=100 time=0
EXTRACT: note_off channel=2 note=64 velocity=100 time=0
EXTRACT: note_on channel=2 note=76 velocity=100 time=0
EXTRACT: note_off channel=3 note=40 velocity=100 time=0
EXTRACT: note_on channel=3 note=43 velocity=100 time=0
EXTRACT: note_off channel=5 note=30 velocity=100 time=0
EXTRACT: note_on channel=5 note=31 velocity=100 time=0
EXTRACT: note_on channel=9 note=35 velocity=127 time=0
EXTRACT: note_on channel=9 note=36 velocity=127 time=0
EXTRACT: note_on channel=9 note=54 velocity=127 time=0
EXTRACT: note_on channel=9 note=49 velocity=127 time=0
EXTRACT: note_on channel=9 note=70 velocity=127 time=0
EXTRACT: pitchwheel channel=2 pitch=-8192 time=0.011160624999999999
EXTRACT: pitchwheel channel=2 pitch=-6656 time=0.011160624999999999
EXTRACT: note_off channel=9 note=70 velocity=127 time=0.0074404166666666655
EXTRACT: note_off channel=9 note=49 velocity=127 time=0
EXTRACT: note_off channel=9 note=54 velocity=127 time=0
EXTRACT: note_off channel=9 note=36 velocity=127 time=0
EXTRACT: note_off channel=9 note=35 velocity=127 time=0
EXTRACT: pitchwheel channel=2 pitch=-4992 time=0.005580312499999999
EXTRACT: pitchwheel channel=2 pitch=-3328 time=0.011160624999999999
EXTRACT: pitchwheel channel=2 pitch=-1664 time=0.013020729166666665
EXTRACT: pitchwheel channel=2 pitch=0 time=0.011160624999999999
EXTRACT: note_off channel=2 note=76 velocity=100 time=0.10788604166666665
EXTRACT: note_on channel=2 note=76 velocity=100 time=0
EXTRACT: note_on channel=9 note=54 velocity=127 time=0.029761666666666662
EXTRACT: note_off channel=9 note=54 velocity=127 time=0.029761666666666662
EXTRACT: note_off channel=1 note=67 velocity=100 time=0.11904666666666665
EXTRACT: note_off channel=1 note=59 velocity=100 time=0
EXTRACT: note_off channel=1 note=55 velocity=100 time=0
EXTRACT: note_off channel=1 note=50 velocity=100 time=0
EXTRACT: note_off channel=1 note=43 velocity=100 time=0
EXTRACT: note_on channel=1 note=43 velocity=100 time=0
EXTRACT: note_on channel=1 note=50 velocity=100 time=0
EXTRACT: note_on channel=1 note=55 velocity=100 time=0
EXTRACT: note_on channel=1 note=59 velocity=100 time=0
EXTRACT: note_on channel=1 note=67 velocity=100 time=0
EXTRACT: note_off channel=2 note=76 velocity=100 time=0
EXTRACT: note_on channel=2 note=76 velocity=100 time=0
EXTRACT: note_off channel=3 note=43 velocity=100 time=0
EXTRACT: note_on channel=3 note=43 velocity=100 time=0
EXTRACT: note_off channel=5 note=31 velocity=100 time=0
EXTRACT: note_on channel=5 note=30 velocity=100 time=0
EXTRACT: note_on channel=9 note=35 velocity=127 time=0
EXTRACT: note_on channel=9 note=36 velocity=127 time=0
EXTRACT: note_on channel=9 note=49 velocity=127 time=0
EXTRACT: note_on channel=9 note=70 velocity=127 time=0
EXTRACT: note_off channel=9 note=70 velocity=127 time=0.029761666666666662
EXTRACT: note_off channel=9 note=49 velocity=127 time=0
EXTRACT: note_off channel=9 note=36 velocity=127 time=0
EXTRACT: note_off channel=9 note=35 velocity=127 time=0
EXTRACT: note_on channel=9 note=54 velocity=127 time=0
EXTRACT: note_off channel=9 note=54 velocity=127 time=0.029761666666666662
EXTRACT: note_off channel=2 note=76 velocity=100 time=0.11904666666666665
EXTRACT: note_on channel=2 note=74 velocity=100 time=0
EXTRACT: note_on channel=9 note=70 velocity=127 time=0
EXTRACT: note_off channel=9 note=70 velocity=127 time=0.029761666666666662
EXTRACT: note_on channel=9 note=54 velocity=127 time=0
EXTRACT: note_off channel=9 note=54 velocity=127 time=0.029761666666666662
EXTRACT: note_off channel=1 note=67 velocity=100 time=0.11904666666666665
EXTRACT: note_off channel=1 note=59 velocity=100 time=0
EXTRACT: note_off channel=1 note=55 velocity=100 time=0
EXTRACT: note_off channel=1 note=50 velocity=100 time=0
EXTRACT: note_off channel=1 note=43 velocity=100 time=0
EXTRACT: note_on channel=1 note=43 velocity=100 time=0
EXTRACT: note_on channel=1 note=50 velocity=100 time=0
EXTRACT: note_on channel=1 note=55 velocity=100 time=0
EXTRACT: note_on channel=1 note=59 velocity=100 time=0
EXTRACT: note_on channel=1 note=67 velocity=100 time=0
EXTRACT: note_off channel=2 note=74 velocity=100 time=0
EXTRACT: note_on channel=2 note=76 velocity=100 time=0
EXTRACT: note_off channel=3 note=43 velocity=100 time=0
EXTRACT: note_on channel=3 note=43 velocity=100 time=0
EXTRACT: note_off channel=5 note=30 velocity=100 time=0
EXTRACT: note_on channel=5 note=31 velocity=100 time=0
EXTRACT: note_on channel=9 note=38 velocity=127 time=0
EXTRACT: note_on channel=9 note=51 velocity=127 time=0
EXTRACT: note_on channel=9 note=70 velocity=127 time=0
EXTRACT: note_off channel=9 note=70 velocity=127 time=0.029761666666666662
EXTRACT: note_off channel=9 note=51 velocity=127 time=0
EXTRACT: note_off channel=9 note=38 velocity=127 time=0
EXTRACT: note_on channel=9 note=54 velocity=127 time=0
EXTRACT: pitchwheel channel=2 pitch=-8064 time=0.016740937499999997
EXTRACT: pitchwheel channel=2 pitch=-6784 time=0.013020729166666665
EXTRACT: note_off channel=9 note=54 velocity=127 time=0
EXTRACT: pitchwheel channel=2 pitch=-5376 time=0.011160624999999999
EXTRACT: pitchwheel channel=2 pitch=-4096 time=0.011160624999999999
EXTRACT: pitchwheel channel=2 pitch=-2688 time=0.013020729166666665
EXTRACT: pitchwheel channel=2 pitch=-1408 time=0.011160624999999999
EXTRACT: pitchwheel channel=2 pitch=0 time=0.013020729166666665
EXTRACT: note_off channel=2 note=76 velocity=100 time=0.059523333333333324
EXTRACT: note_on channel=2 note=76 velocity=100 time=0
EXTRACT: note_on channel=9 note=54 velocity=127 time=0.029761666666666662
EXTRACT: note_off channel=9 note=54 velocity=127 time=0.029761666666666662
EXTRACT: note_off channel=2 note=76 velocity=100 time=0.11904666666666665
EXTRACT: note_on channel=2 note=74 velocity=100 time=0
EXTRACT: note_off channel=3 note=43 velocity=100 time=0
EXTRACT: note_on channel=3 note=43 velocity=100 time=0
EXTRACT: note_off channel=5 note=31 velocity=100 time=0
EXTRACT: note_on channel=5 note=30 velocity=100 time=0
EXTRACT: note_on channel=9 note=54 velocity=127 time=0
EXTRACT: note_on channel=9 note=51 velocity=127 time=0
EXTRACT: note_on channel=9 note=70 velocity=127 time=0
EXTRACT: note_off channel=9 note=70 velocity=127 time=0.029761666666666662
EXTRACT: note_off channel=9 note=51 velocity=127 time=0
EXTRACT: note_off channel=9 note=54 velocity=127 time=0
EXTRACT: pitchwheel channel=2 pitch=-8064 time=0.13578760416666666
EXTRACT: note_off channel=2 note=74 velocity=100 time=0.013020729166666665
EXTRACT: pitchwheel channel=2 pitch=-7168 time=0
EXTRACT: note_on channel=9 note=38 velocity=127 time=0
EXTRACT: note_on channel=9 note=54 velocity=127 time=0
EXTRACT: note_on channel=9 note=70 velocity=127 time=0
EXTRACT: pitchwheel channel=2 pitch=-6272 time=0.011160624999999999
EXTRACT: pitchwheel channel=2 pitch=-5376 time=0.011160624999999999
EXTRACT: note_off channel=9 note=70 velocity=127 time=0.0074404166666666655
EXTRACT: note_off channel=9 note=54 velocity=127 time=0
EXTRACT: note_off channel=9 note=38 velocity=127 time=0
EXTRACT: pitchwheel channel=2 pitch=-4480 time=0.005580312499999999
EXTRACT: note_on channel=2 note=76 velocity=100 time=0.005580312499999999
EXTRACT: pitchwheel channel=2 pitch=-3584 time=0.005580312499999999
EXTRACT: pitchwheel channel=2 pitch=-2688 time=0.013020729166666665
EXTRACT: pitchwheel channel=2 pitch=-1792 time=0.011160624999999999
EXTRACT: pitchwheel channel=2 pitch=-896 time=0.011160624999999999
EXTRACT: pitchwheel channel=2 pitch=0 time=0.013020729166666665
EXTRACT: note_off channel=1 note=67 velocity=100 time=0.08370468749999999
EXTRACT: note_off channel=1 note=59 velocity=100 time=0
EXTRACT: note_off channel=1 note=55 velocity=100 time=0
EXTRACT: note_off channel=1 note=50 velocity=100 time=0
EXTRACT: note_off channel=1 note=43 velocity=100 time=0
EXTRACT: note_on channel=1 note=43 velocity=100 time=0
EXTRACT: note_on channel=1 note=50 velocity=100 time=0
EXTRACT: note_on channel=1 note=55 velocity=100 time=0
EXTRACT: note_on channel=1 note=59 velocity=100 time=0
EXTRACT: note_on channel=1 note=67 velocity=100 time=0
EXTRACT: note_off channel=3 note=43 velocity=100 time=0
EXTRACT: note_on channel=3 note=43 velocity=100 time=0
EXTRACT: note_off channel=5 note=30 velocity=100 time=0
EXTRACT: note_on channel=5 note=31 velocity=100 time=0
EXTRACT: note_on channel=9 note=35 velocity=127 time=0
EXTRACT: note_on channel=9 note=36 velocity=127 time=0
EXTRACT: note_on channel=9 note=54 velocity=127 time=0
EXTRACT: note_on channel=9 note=51 velocity=127 time=0
EXTRACT: note_on channel=9 note=70 velocity=127 time=0
EXTRACT: note_off channel=9 note=70 velocity=127 time=0.029761666666666662
EXTRACT: note_off channel=9 note=51 velocity=127 time=0
EXTRACT: note_off channel=9 note=54 velocity=127 time=0
EXTRACT: note_off channel=9 note=36 velocity=127 time=0
EXTRACT: note_off channel=9 note=35 velocity=127 time=0
EXTRACT: note_on channel=2 note=74 velocity=100 time=0.13578760416666666
EXTRACT: note_on channel=9 note=38 velocity=127 time=0.013020729166666665
EXTRACT: note_on channel=9 note=54 velocity=127 time=0
EXTRACT: note_off channel=9 note=54 velocity=127 time=0.029761666666666662
EXTRACT: note_off channel=9 note=38 velocity=127 time=0
EXTRACT: note_off channel=2 note=76 velocity=100 time=0.011160624999999999
EXTRACT: pitchwheel channel=2 pitch=-8192 time=0.07812437499999998
EXTRACT: pitchwheel channel=2 pitch=-7040 time=0.011160624999999999
EXTRACT: pitchwheel channel=2 pitch=-5888 time=0.011160624999999999
EXTRACT: pitchwheel channel=2 pitch=-4736 time=0.013020729166666665
EXTRACT: note_off channel=2 note=74 velocity=100 time=0.011160624999999999
EXTRACT: pitchwheel channel=2 pitch=-3584 time=0
EXTRACT: note_off channel=1 note=67 velocity=100 time=0.013020729166666665
EXTRACT: note_off channel=1 note=59 velocity=100 time=0
EXTRACT: note_off channel=1 note=55 velocity=100 time=0
EXTRACT: note_off channel=1 note=50 velocity=100 time=0
EXTRACT: note_off channel=1 note=43 velocity=100 time=0
EXTRACT: note_on channel=1 note=43 velocity=100 time=0
EXTRACT: note_on channel=1 note=50 velocity=100 time=0
EXTRACT: note_on channel=1 note=55 velocity=100 time=0
EXTRACT: note_on channel=1 note=59 velocity=100 time=0
EXTRACT: note_on channel=1 note=67 velocity=100 time=0
EXTRACT: pitchwheel channel=2 pitch=-2432 time=0
EXTRACT: note_off channel=3 note=43 velocity=100 time=0
EXTRACT: note_on channel=3 note=43 velocity=100 time=0
EXTRACT: note_off channel=5 note=31 velocity=100 time=0
EXTRACT: note_on channel=5 note=30 velocity=100 time=0
EXTRACT: note_on channel=9 note=35 velocity=127 time=0
EXTRACT: note_on channel=9 note=36 velocity=127 time=0
EXTRACT: note_on channel=9 note=54 velocity=127 time=0
EXTRACT: note_on channel=9 note=51 velocity=127 time=0
EXTRACT: note_on channel=9 note=70 velocity=127 time=0
EXTRACT: pitchwheel channel=2 pitch=-1280 time=0.011160624999999999
EXTRACT: note_on channel=2 note=76 velocity=100 time=0
EXTRACT: pitchwheel channel=2 pitch=0 time=0.011160624999999999
EXTRACT: note_off channel=9 note=70 velocity=127 time=0.0074404166666666655
EXTRACT: note_off channel=9 note=51 velocity=127 time=0
EXTRACT: note_off channel=9 note=54 velocity=127 time=0
EXTRACT: note_off channel=9 note=36 velocity=127 time=0
EXTRACT: note_off channel=9 note=35 velocity=127 time=0
EXTRACT: note_on channel=2 note=76 velocity=100 time=0.14136791666666665
EXTRACT: note_on channel=9 note=54 velocity=127 time=0.0074404166666666655
EXTRACT: note_on channel=9 note=70 velocity=127 time=0
EXTRACT: note_off channel=2 note=76 velocity=100 time=0.011160624999999999
EXTRACT: note_off channel=9 note=70 velocity=127 time=0.018601041666666665
EXTRACT: note_off channel=9 note=54 velocity=127 time=0
EXTRACT: note_off channel=2 note=76 velocity=100 time=0.14136791666666665
EXTRACT: note_off channel=1 note=67 velocity=100 time=0.0074404166666666655
EXTRACT: note_off channel=1 note=59 velocity=100 time=0
EXTRACT: note_off channel=1 note=55 velocity=100 time=0
EXTRACT: note_off channel=1 note=50 velocity=100 time=0
EXTRACT: note_off channel=1 note=43 velocity=100 time=0
EXTRACT: note_on channel=1 note=43 velocity=100 time=0
EXTRACT: note_on channel=1 note=50 velocity=100 time=0
EXTRACT: note_on channel=1 note=55 velocity=100 time=0
EXTRACT: note_on channel=1 note=59 velocity=100 time=0
EXTRACT: note_on channel=1 note=67 velocity=100 time=0
EXTRACT: note_on channel=2 note=76 velocity=100 time=0
EXTRACT: note_off channel=3 note=43 velocity=100 time=0
EXTRACT: note_on channel=3 note=43 velocity=100 time=0
EXTRACT: note_off channel=5 note=30 velocity=100 time=0
EXTRACT: note_on channel=5 note=31 velocity=100 time=0
EXTRACT: note_on channel=9 note=38 velocity=127 time=0
EXTRACT: note_on channel=9 note=54 velocity=127 time=0
EXTRACT: note_on channel=9 note=51 velocity=127 time=0
EXTRACT: note_on channel=9 note=70 velocity=127 time=0
EXTRACT: note_off channel=9 note=70 velocity=127 time=0.029761666666666662
EXTRACT: note_off channel=9 note=51 velocity=127 time=0
EXTRACT: note_off channel=9 note=54 velocity=127 time=0
EXTRACT: note_off channel=9 note=38 velocity=127 time=0
EXTRACT: note_off channel=2 note=76 velocity=100 time=0.14880833333333332
EXTRACT: note_on channel=2 note=76 velocity=100 time=0
EXTRACT: note_on channel=9 note=54 velocity=127 time=0
EXTRACT: note_on channel=9 note=70 velocity=127 time=0
EXTRACT: note_off channel=9 note=70 velocity=127 time=0.029761666666666662
EXTRACT: note_off channel=9 note=54 velocity=127 time=0
EXTRACT: note_on channel=9 note=54 velocity=127 time=0.11904666666666665
EXTRACT: note_on channel=3 note=43 velocity=100 time=0.005580312499999999
EXTRACT: note_off channel=1 note=67 velocity=100 time=0.024181354166666662
EXTRACT: note_off channel=1 note=59 velocity=100 time=0
EXTRACT: note_off channel=1 note=55 velocity=100 time=0
EXTRACT: note_off channel=1 note=50 velocity=100 time=0
EXTRACT: note_off channel=1 note=43 velocity=100 time=0
EXTRACT: note_on channel=1 note=43 velocity=100 time=0
EXTRACT: note_on channel=1 note=50 velocity=100 time=0
EXTRACT: note_on channel=1 note=55 velocity=100 time=0
EXTRACT: note_on channel=1 note=59 velocity=100 time=0
EXTRACT: note_on channel=1 note=67 velocity=100 time=0
EXTRACT: note_off channel=2 note=76 velocity=100 time=0
EXTRACT: note_on channel=2 note=76 velocity=100 time=0
EXTRACT: note_off channel=3 note=43 velocity=100 time=0
EXTRACT: note_off channel=5 note=31 velocity=100 time=0
EXTRACT: note_on channel=5 note=30 velocity=100 time=0
EXTRACT: note_off channel=9 note=54 velocity=127 time=0
EXTRACT: note_on channel=9 note=51 velocity=127 time=0
EXTRACT: note_on channel=9 note=70 velocity=127 time=0
EXTRACT: note_off channel=9 note=70 velocity=127 time=0.029761666666666662
EXTRACT: note_off channel=9 note=51 velocity=127 time=0
EXTRACT: note_on channel=9 note=54 velocity=127 time=0.11904666666666665
EXTRACT: note_off channel=2 note=76 velocity=100 time=0.029761666666666662
EXTRACT: note_on channel=2 note=76 velocity=100 time=0
EXTRACT: note_off channel=9 note=54 velocity=127 time=0
EXTRACT: note_on channel=9 note=38 velocity=127 time=0
EXTRACT: note_on channel=9 note=70 velocity=127 time=0
EXTRACT: note_off channel=9 note=70 velocity=127 time=0.029761666666666662
EXTRACT: note_off channel=9 note=38 velocity=127 time=0
EXTRACT: note_on channel=9 note=36 velocity=127 time=0.11904666666666665
EXTRACT: note_on channel=9 note=54 velocity=127 time=0
EXTRACT: note_off channel=3 note=43 velocity=100 time=0.005580312499999999
EXTRACT: note_off channel=1 note=67 velocity=100 time=0.024181354166666662
EXTRACT: note_off channel=1 note=59 velocity=100 time=0
EXTRACT: note_off channel=1 note=55 velocity=100 time=0
EXTRACT: note_off channel=1 note=50 velocity=100 time=0
EXTRACT: note_off channel=1 note=43 velocity=100 time=0
EXTRACT: note_on channel=1 note=67 velocity=100 time=0
EXTRACT: note_on channel=1 note=62 velocity=100 time=0
EXTRACT: note_on channel=1 note=43 velocity=100 time=0
EXTRACT: note_on channel=1 note=47 velocity=100 time=0
EXTRACT: note_on channel=1 note=55 velocity=100 time=0
EXTRACT: note_off channel=2 note=76 velocity=100 time=0
EXTRACT: note_on channel=2 note=71 velocity=100 time=0
EXTRACT: note_on channel=3 note=43 velocity=100 time=0
EXTRACT: note_off channel=5 note=30 velocity=100 time=0
EXTRACT: note_on channel=5 note=31 velocity=100 time=0
EXTRACT: note_off channel=9 note=54 velocity=127 time=0
EXTRACT: note_off channel=9 note=36 velocity=127 time=0
EXTRACT: note_on channel=9 note=35 velocity=127 time=0
EXTRACT: pitchwheel channel=9 pitch=110 time=0
EXTRACT: note_off channel=9 note=35 velocity=127 time=0.029761666666666662
EXTRACT: note_off channel=1 note=55 velocity=100 time=0.14880833333333332
EXTRACT: note_off channel=1 note=47 velocity=100 time=0
EXTRACT: note_off channel=1 note=43 velocity=100 time=0
EXTRACT: note_off channel=1 note=62 velocity=100 time=0
EXTRACT: note_off channel=1 note=67 velocity=100 time=0
EXTRACT: note_off channel=2 note=71 velocity=100 time=0
EXTRACT: note_off channel=3 note=43 velocity=100 time=0
EXTRACT: note_on channel=9 note=43 velocity=127 time=0.14880833333333332
EXTRACT: note_off channel=5 note=31 velocity=100 time=0.029761666666666662
EXTRACT: note_off channel=9 note=43 velocity=127 time=0
EXTRACT: note_on channel=9 note=38 velocity=127 time=0.32737833333333327
EXTRACT: note_off channel=9 note=38 velocity=127 time=0.029761666666666662
EXTRACT: note_on channel=9 note=43 velocity=127 time=0.14880833333333332
EXTRACT: note_off channel=9 note=43 velocity=127 time=0.029761666666666662
EXTRACT: note_on channel=9 note=38 velocity=127 time=0.35713999999999996
EXTRACT: note_off channel=9 note=38 velocity=127 time=0.029761666666666662
EXTRACT: note_on channel=9 note=43 velocity=127 time=0.08928499999999999
EXTRACT: note_off channel=9 note=43 velocity=127 time=0.029761666666666662
EXTRACT: note_on channel=9 note=38 velocity=127 time=0.08928499999999999
EXTRACT: note_off channel=9 note=38 velocity=127 time=0.029761666666666662
EXTRACT: note_on channel=9 note=38 velocity=127 time=0.08928499999999999
EXTRACT: note_off channel=9 note=38 velocity=127 time=0.029761666666666662
EXTRACT: note_on channel=9 note=38 velocity=127 time=0.08928499999999999
EXTRACT: note_off channel=9 note=38 velocity=127 time=0.029761666666666662
EXTRACT: note_on channel=9 note=47 velocity=127 time=0.08928499999999999
EXTRACT: note_off channel=9 note=47 velocity=127 time=0.029761666666666662
EXTRACT: note_on channel=9 note=47 velocity=127 time=0.08928499999999999
EXTRACT: note_off channel=9 note=47 velocity=127 time=0.029761666666666662
EXTRACT: note_on channel=9 note=45 velocity=127 time=0.08928499999999999
EXTRACT: note_off channel=9 note=45 velocity=127 time=0.029761666666666662
EXTRACT: note_on channel=9 note=45 velocity=127 time=0.08928499999999999
EXTRACT: note_off channel=9 note=45 velocity=127 time=0.029761666666666662
EXTRACT: note_on channel=9 note=43 velocity=127 time=0.08928499999999999
EXTRACT: note_off channel=9 note=43 velocity=127 time=0.029761666666666662
EXTRACT: note_on channel=9 note=43 velocity=127 time=0.08928499999999999
EXTRACT: note_off channel=9 note=43 velocity=127 time=0.029761666666666662
EXTRACT: note_on channel=9 note=43 velocity=127 time=0.08928499999999999
EXTRACT: note_off channel=9 note=43 velocity=127 time=0.029761666666666662
EXTRACT: note_on channel=9 note=36 velocity=127 time=0.08928499999999999
EXTRACT: note_on channel=9 note=35 velocity=127 time=0
EXTRACT: note_on channel=9 note=41 velocity=127 time=0
EXTRACT: note_off channel=9 note=41 velocity=127 time=0.029761666666666662
EXTRACT: note_off channel=9 note=35 velocity=127 time=0
EXTRACT: note_off channel=9 note=36 velocity=127 time=0
EXTRACT: note_on channel=1 note=48 velocity=100 time=0.14880833333333332
EXTRACT: note_on channel=1 note=52 velocity=100 time=0
EXTRACT: note_on channel=1 note=55 velocity=100 time=0
EXTRACT: note_on channel=1 note=60 velocity=100 time=0
EXTRACT: note_on channel=1 note=64 velocity=100 time=0
EXTRACT: note_on channel=5 note=36 velocity=100 time=0
EXTRACT: note_on channel=6 note=67 velocity=100 time=0
EXTRACT: note_on channel=9 note=35 velocity=127 time=0
EXTRACT: note_on channel=9 note=36 velocity=127 time=0
EXTRACT: note_on channel=9 note=54 velocity=127 time=0
EXTRACT: note_on channel=9 note=49 velocity=127 time=0
EXTRACT: note_off channel=9 note=49 velocity=127 time=0.029761666666666662
EXTRACT: note_off channel=9 note=54 velocity=127 time=0
EXTRACT: note_off channel=9 note=36 velocity=127 time=0
EXTRACT: note_off channel=9 note=35 velocity=127 time=0
EXTRACT: note_on channel=9 note=54 velocity=127 time=0.14880833333333332
EXTRACT: note_off channel=9 note=54 velocity=127 time=0.029761666666666662
EXTRACT: note_on channel=9 note=35 velocity=127 time=0.14880833333333332
EXTRACT: note_on channel=9 note=36 velocity=127 time=0
EXTRACT: note_on channel=9 note=54 velocity=127 time=0
EXTRACT: note_on channel=9 note=51 velocity=127 time=0
EXTRACT: note_off channel=9 note=51 velocity=127 time=0.029761666666666662
EXTRACT: note_off channel=9 note=54 velocity=127 time=0
EXTRACT: note_off channel=9 note=36 velocity=127 time=0
EXTRACT: note_off channel=9 note=35 velocity=127 time=0
EXTRACT: note_on channel=9 note=54 velocity=127 time=0.14880833333333332
EXTRACT: note_off channel=9 note=54 velocity=127 time=0.029761666666666662
EXTRACT: note_on channel=5 note=36 velocity=100 time=0.10602593749999999
EXTRACT: note_off channel=1 note=64 velocity=100 time=0.04278239583333333
EXTRACT: note_off channel=1 note=60 velocity=100 time=0
EXTRACT: note_off channel=1 note=55 velocity=100 time=0
EXTRACT: note_off channel=1 note=52 velocity=100 time=0
EXTRACT: note_off channel=1 note=48 velocity=100 time=0
EXTRACT: note_on channel=1 note=48 velocity=100 time=0
EXTRACT: note_on channel=1 note=52 velocity=100 time=0
EXTRACT: note_on channel=1 note=55 velocity=100 time=0
EXTRACT: note_on channel=1 note=60 velocity=100 time=0
EXTRACT: note_on channel=1 note=64 velocity=100 time=0
EXTRACT: note_off channel=5 note=36 velocity=100 time=0
EXTRACT: note_on channel=9 note=38 velocity=127 time=0
EXTRACT: note_on channel=9 note=54 velocity=127 time=0
EXTRACT: note_on channel=9 note=51 velocity=127 time=0
EXTRACT: note_off channel=9 note=51 velocity=127 time=0.029761666666666662
EXTRACT: note_off channel=9 note=54 velocity=127 time=0
EXTRACT: note_off channel=9 note=38 velocity=127 time=0
EXTRACT: note_on channel=9 note=54 velocity=127 time=0.14880833333333332
EXTRACT: note_off channel=9 note=54 velocity=127 time=0.029761666666666662
EXTRACT: note_off channel=5 note=36 velocity=100 time=0.10602593749999999
EXTRACT: note_off channel=1 note=64 velocity=100 time=0.04278239583333333
EXTRACT: note_off channel=1 note=60 velocity=100 time=0
EXTRACT: note_off channel=1 note=55 velocity=100 time=0
EXTRACT: note_off channel=1 note=52 velocity=100 time=0
EXTRACT: note_off channel=1 note=48 velocity=100 time=0
EXTRACT: note_on channel=1 note=48 velocity=100 time=0
EXTRACT: note_on channel=1 note=52 velocity=100 time=0
EXTRACT: note_on channel=1 note=55 velocity=100 time=0
EXTRACT: note_on channel=1 note=60 velocity=100 time=0
EXTRACT: note_on channel=1 note=64 velocity=100 time=0
EXTRACT: note_on channel=9 note=54 velocity=127 time=0
EXTRACT: note_on channel=9 note=51 velocity=127 time=0
EXTRACT: note_on channel=5 note=35 velocity=100 time=0.022321249999999997
EXTRACT: note_off channel=9 note=51 velocity=127 time=0.0074404166666666655
EXTRACT: note_off channel=9 note=54 velocity=127 time=0
EXTRACT: note_on channel=9 note=38 velocity=127 time=0.14880833333333332
EXTRACT: note_on channel=9 note=54 velocity=127 time=0
EXTRACT: note_off channel=9 note=54 velocity=127 time=0.029761666666666662
EXTRACT: note_off channel=9 note=38 velocity=127 time=0
EXTRACT: note_on channel=6 note=65 velocity=100 time=0.13578760416666666
EXTRACT: note_off channel=1 note=64 velocity=100 time=0.013020729166666665
EXTRACT: note_off channel=1 note=60 velocity=100 time=0
EXTRACT: note_off channel=1 note=55 velocity=100 time=0
EXTRACT: note_off channel=1 note=52 velocity=100 time=0
EXTRACT: note_off channel=1 note=48 velocity=100 time=0
EXTRACT: note_on channel=1 note=43 velocity=100 time=0
EXTRACT: note_on channel=1 note=50 velocity=100 time=0
EXTRACT: note_on channel=1 note=55 velocity=100 time=0
EXTRACT: note_on channel=1 note=59 velocity=100 time=0
EXTRACT: note_on channel=1 note=67 velocity=100 time=0
EXTRACT: note_off channel=6 note=67 velocity=100 time=0
EXTRACT: note_on channel=9 note=35 velocity=127 time=0
EXTRACT: note_on channel=9 note=36 velocity=127 time=0
EXTRACT: note_on channel=9 note=54 velocity=127 time=0
EXTRACT: note_on channel=9 note=51 velocity=127 time=0
EXTRACT: note_off channel=5 note=35 velocity=100 time=0.022321249999999997
EXTRACT: note_on channel=5 note=31 velocity=100 time=0
EXTRACT: note_off channel=9 note=51 velocity=127 time=0.0074404166666666655
EXTRACT: note_off channel=9 note=54 velocity=127 time=0
EXTRACT: note_off channel=9 note=36 velocity=127 time=0
EXTRACT: note_off channel=9 note=35 velocity=127 time=0
EXTRACT: note_on channel=9 note=38 velocity=127 time=0.14880833333333332
EXTRACT: note_on channel=9 note=54 velocity=127 time=0
EXTRACT: note_off channel=9 note=54 velocity=127 time=0.029761666666666662
EXTRACT: note_off channel=9 note=38 velocity=127 time=0
EXTRACT: note_off channel=6 note=65 velocity=100 time=0.13578760416666666
EXTRACT: note_on channel=6 note=67 velocity=100 time=0
EXTRACT: note_on channel=5 note=31 velocity=100 time=0.013020729166666665
EXTRACT: note_on channel=9 note=35 velocity=127 time=0
EXTRACT: note_on channel=9 note=36 velocity=127 time=0
EXTRACT: note_on channel=9 note=54 velocity=127 time=0
EXTRACT: note_on channel=9 note=51 velocity=127 time=0
EXTRACT: note_off channel=5 note=31 velocity=100 time=0.022321249999999997
EXTRACT: note_off channel=9 note=51 velocity=127 time=0.0074404166666666655
EXTRACT: note_off channel=9 note=54 velocity=127 time=0
EXTRACT: note_off channel=9 note=36 velocity=127 time=0
EXTRACT: note_off channel=9 note=35 velocity=127 time=0
EXTRACT: note_on channel=9 note=54 velocity=127 time=0.14880833333333332
EXTRACT: note_off channel=9 note=54 velocity=127 time=0.029761666666666662
EXTRACT: note_on channel=6 note=65 velocity=100 time=0.12462697916666665
EXTRACT: note_off channel=6 note=67 velocity=100 time=0.011160624999999999
EXTRACT: note_off channel=1 note=67 velocity=100 time=0.013020729166666665
EXTRACT: note_off channel=1 note=59 velocity=100 time=0
EXTRACT: note_off channel=1 note=55 velocity=100 time=0
EXTRACT: note_off channel=1 note=50 velocity=100 time=0
EXTRACT: note_off channel=1 note=43 velocity=100 time=0
EXTRACT: note_on channel=1 note=43 velocity=100 time=0
EXTRACT: note_on channel=1 note=50 velocity=100 time=0
EXTRACT: note_on channel=1 note=55 velocity=100 time=0
EXTRACT: note_on channel=1 note=59 velocity=100 time=0
EXTRACT: note_on channel=1 note=67 velocity=100 time=0
EXTRACT: note_off channel=5 note=31 velocity=100 time=0
EXTRACT: note_on channel=5 note=31 velocity=100 time=0
EXTRACT: note_on channel=9 note=38 velocity=127 time=0
EXTRACT: note_on channel=9 note=54 velocity=127 time=0
EXTRACT: note_on channel=9 note=51 velocity=127 time=0
EXTRACT: note_off channel=9 note=51 velocity=127 time=0.029761666666666662
EXTRACT: note_off channel=9 note=54 velocity=127 time=0
EXTRACT: note_off channel=9 note=38 velocity=127 time=0
EXTRACT: note_on channel=9 note=54 velocity=127 time=0.14880833333333332
EXTRACT: note_off channel=9 note=54 velocity=127 time=0.029761666666666662
EXTRACT: note_off channel=6 note=65 velocity=100 time=0.12462697916666665
EXTRACT: note_off channel=1 note=67 velocity=100 time=0.024181354166666662
EXTRACT: note_off channel=1 note=59 velocity=100 time=0
EXTRACT: note_off channel=1 note=55 velocity=100 time=0
EXTRACT: note_off channel=1 note=50 velocity=100 time=0
EXTRACT: note_off channel=1 note=43 velocity=100 time=0
EXTRACT: note_on channel=1 note=43 velocity=100 time=0
EXTRACT: note_on channel=1 note=50 velocity=100 time=0
EXTRACT: note_on channel=1 note=55 velocity=100 time=0
EXTRACT: note_on channel=1 note=59 velocity=100 time=0
EXTRACT: note_on channel=1 note=67 velocity=100 time=0
EXTRACT: note_off channel=5 note=31 velocity=100 time=0
EXTRACT: note_on channel=5 note=31 velocity=100 time=0
EXTRACT: note_on channel=6 note=64 velocity=100 time=0
EXTRACT: note_on channel=9 note=54 velocity=127 time=0
EXTRACT: note_on channel=9 note=51 velocity=127 time=0
EXTRACT: note_off channel=9 note=51 velocity=127 time=0.029761666666666662
EXTRACT: note_off channel=9 note=54 velocity=127 time=0
EXTRACT: note_off channel=5 note=31 velocity=100 time=0.14880833333333332
EXTRACT: note_on channel=5 note=32 velocity=100 time=0
EXTRACT: note_on channel=9 note=38 velocity=127 time=0
EXTRACT: note_on channel=9 note=54 velocity=127 time=0
EXTRACT: note_off channel=9 note=54 velocity=127 time=0.029761666666666662
EXTRACT: note_off channel=9 note=38 velocity=127 time=0
EXTRACT: note_on channel=9 note=38 velocity=127 time=0.029761666666666662
EXTRACT: note_off channel=9 note=38 velocity=127 time=0.029761666666666662
EXTRACT: note_off channel=1 note=67 velocity=100 time=0.08928499999999999
EXTRACT: note_off channel=1 note=59 velocity=100 time=0
EXTRACT: note_off channel=1 note=55 velocity=100 time=0
EXTRACT: note_off channel=1 note=50 velocity=100 time=0
EXTRACT: note_off channel=1 note=43 velocity=100 time=0
EXTRACT: note_on channel=1 note=45 velocity=100 time=0
EXTRACT: note_on channel=1 note=52 velocity=100 time=0
EXTRACT: note_on channel=1 note=57 velocity=100 time=0
EXTRACT: note_on channel=1 note=60 velocity=100 time=0
EXTRACT: note_on channel=1 note=64 velocity=100 time=0
EXTRACT: note_off channel=5 note=32 velocity=100 time=0
EXTRACT: note_on channel=5 note=33 velocity=100 time=0
EXTRACT: note_on channel=9 note=35 velocity=127 time=0
EXTRACT: note_on channel=9 note=36 velocity=127 time=0
EXTRACT: note_on channel=9 note=54 velocity=127 time=0
EXTRACT: note_on channel=9 note=51 velocity=127 time=0
EXTRACT: note_off channel=9 note=51 velocity=127 time=0.029761666666666662
EXTRACT: note_off channel=9 note=54 velocity=127 time=0
EXTRACT: note_off channel=9 note=36 velocity=127 time=0
EXTRACT: note_off channel=9 note=35 velocity=127 time=0
EXTRACT: note_on channel=9 note=54 velocity=127 time=0.14880833333333332
EXTRACT: note_off channel=9 note=54 velocity=127 time=0.029761666666666662
EXTRACT: note_on channel=9 note=54 velocity=127 time=0.14880833333333332
EXTRACT: note_on channel=9 note=51 velocity=127 time=0
EXTRACT: note_off channel=9 note=51 velocity=127 time=0.029761666666666662
EXTRACT: note_off channel=9 note=54 velocity=127 time=0
EXTRACT: note_on channel=9 note=54 velocity=127 time=0.14880833333333332
EXTRACT: note_off channel=9 note=54 velocity=127 time=0.029761666666666662
EXTRACT: note_off channel=1 note=64 velocity=100 time=0.14880833333333332
EXTRACT: note_off channel=1 note=60 velocity=100 time=0
EXTRACT: note_off channel=1 note=57 velocity=100 time=0
EXTRACT: note_off channel=1 note=52 velocity=100 time=0
EXTRACT: note_off channel=1 note=45 velocity=100 time=0
EXTRACT: note_on channel=1 note=45 velocity=100 time=0
EXTRACT: note_on channel=1 note=52 velocity=100 time=0
EXTRACT: note_on channel=1 note=57 velocity=100 time=0
EXTRACT: note_on channel=1 note=60 velocity=100 time=0
EXTRACT: note_on channel=1 note=64 velocity=100 time=0
EXTRACT: note_off channel=5 note=33 velocity=100 time=0
EXTRACT: note_on channel=5 note=33 velocity=100 time=0
EXTRACT: note_off channel=6 note=64 velocity=100 time=0
EXTRACT: note_on channel=9 note=38 velocity=127 time=0
EXTRACT: note_on channel=9 note=54 velocity=127 time=0
EXTRACT: note_on channel=9 note=51 velocity=127 time=0
EXTRACT: note_off channel=9 note=51 velocity=127 time=0.029761666666666662
EXTRACT: note_off channel=9 note=54 velocity=127 time=0
EXTRACT: note_off channel=9 note=38 velocity=127 time=0
EXTRACT: note_on channel=9 note=54 velocity=127 time=0.14880833333333332
EXTRACT: note_off channel=9 note=54 velocity=127 time=0.029761666666666662
EXTRACT: note_off channel=1 note=64 velocity=100 time=0.14880833333333332
EXTRACT: note_off channel=1 note=60 velocity=100 time=0
EXTRACT: note_off channel=1 note=57 velocity=100 time=0
EXTRACT: note_off channel=1 note=52 velocity=100 time=0
EXTRACT: note_off channel=1 note=45 velocity=100 time=0
EXTRACT: note_on channel=1 note=45 velocity=100 time=0
EXTRACT: note_on channel=1 note=52 velocity=100 time=0
EXTRACT: note_on channel=1 note=57 velocity=100 time=0
EXTRACT: note_on channel=1 note=60 velocity=100 time=0
EXTRACT: note_on channel=1 note=64 velocity=100 time=0
EXTRACT: note_off channel=5 note=33 velocity=100 time=0
EXTRACT: note_on channel=5 note=31 velocity=100 time=0
EXTRACT: note_on channel=6 note=62 velocity=100 time=0
EXTRACT: note_on channel=9 note=54 velocity=127 time=0
EXTRACT: note_on channel=9 note=51 velocity=127 time=0
EXTRACT: note_off channel=9 note=51 velocity=127 time=0.029761666666666662
EXTRACT: note_off channel=9 note=54 velocity=127 time=0
EXTRACT: note_on channel=9 note=38 velocity=127 time=0.14880833333333332
EXTRACT: note_on channel=9 note=54 velocity=127 time=0
EXTRACT: note_off channel=9 note=54 velocity=127 time=0.029761666666666662
EXTRACT: note_off channel=9 note=38 velocity=127 time=0
EXTRACT: note_off channel=1 note=64 velocity=100 time=0.14880833333333332
EXTRACT: note_off channel=1 note=60 velocity=100 time=0
EXTRACT: note_off channel=1 note=57 velocity=100 time=0
EXTRACT: note_off channel=1 note=52 velocity=100 time=0
EXTRACT: note_off channel=1 note=45 velocity=100 time=0
EXTRACT: note_on channel=1 note=40 velocity=100 time=0
EXTRACT: note_on channel=1 note=47 velocity=100 time=0
EXTRACT: note_on channel=1 note=52 velocity=100 time=0
EXTRACT: note_on channel=1 note=56 velocity=100 time=0
EXTRACT: note_on channel=1 note=59 velocity=100 time=0
EXTRACT: note_on channel=1 note=64 velocity=100 time=0
EXTRACT: note_off channel=5 note=31 velocity=100 time=0
EXTRACT: note_on channel=5 note=28 velocity=100 time=0
EXTRACT: note_off channel=6 note=62 velocity=100 time=0
EXTRACT: note_on channel=6 note=62 velocity=100 time=0
EXTRACT: note_on channel=9 note=35 velocity=127 time=0
EXTRACT: note_on channel=9 note=36 velocity=127 time=0
EXTRACT: note_on channel=9 note=54 velocity=127 time=0
EXTRACT: note_on channel=9 note=51 velocity=127 time=0
EXTRACT: note_off channel=9 note=51 velocity=127 time=0.029761666666666662
EXTRACT: note_off channel=9 note=54 velocity=127 time=0
EXTRACT: note_off channel=9 note=36 velocity=127 time=0
EXTRACT: note_off channel=9 note=35 velocity=127 time=0
EXTRACT: note_on channel=9 note=38 velocity=127 time=0.14880833333333332
EXTRACT: note_on channel=9 note=54 velocity=127 time=0
EXTRACT: note_off channel=9 note=54 velocity=127 time=0.029761666666666662
EXTRACT: note_off channel=9 note=38 velocity=127 time=0
EXTRACT: note_on channel=6 note=64 velocity=100 time=0.12462697916666665
EXTRACT: note_off channel=5 note=28 velocity=100 time=0.024181354166666662
EXTRACT: note_on channel=5 note=28 velocity=100 time=0
EXTRACT: note_off channel=6 note=62 velocity=100 time=0
EXTRACT: note_on channel=9 note=35 velocity=127 time=0
EXTRACT: note_on channel=9 note=36 velocity=127 time=0
EXTRACT: note_on channel=9 note=54 velocity=127 time=0
EXTRACT: note_on channel=9 note=51 velocity=127 time=0
EXTRACT: note_off channel=9 note=51 velocity=127 time=0.029761666666666662
EXTRACT: note_off channel=9 note=54 velocity=127 time=0
EXTRACT: note_off channel=9 note=36 velocity=127 time=0
EXTRACT: note_off channel=9 note=35 velocity=127 time=0
EXTRACT: note_on channel=9 note=54 velocity=127 time=0.14880833333333332
EXTRACT: note_off channel=9 note=54 velocity=127 time=0.029761666666666662
EXTRACT: note_on channel=6 note=62 velocity=100 time=0.022321249999999997
EXTRACT: note_on channel=6 note=60 velocity=100 time=0.08370468749999999
EXTRACT: note_off channel=6 note=62 velocity=100 time=0.005580312499999999
EXTRACT: note_off channel=6 note=64 velocity=100 time=0.013020729166666665
EXTRACT: note_off channel=1 note=64 velocity=100 time=0.024181354166666662
EXTRACT: note_off channel=1 note=59 velocity=100 time=0
EXTRACT: note_off channel=1 note=56 velocity=100 time=0
EXTRACT: note_off channel=1 note=52 velocity=100 time=0
EXTRACT: note_off channel=1 note=47 velocity=100 time=0
EXTRACT: note_off channel=1 note=40 velocity=100 time=0
EXTRACT: note_on channel=1 note=56 velocity=100 time=0
EXTRACT: note_on channel=1 note=40 velocity=100 time=0
EXTRACT: note_on channel=1 note=47 velocity=100 time=0
EXTRACT: note_on channel=1 note=52 velocity=100 time=0
EXTRACT: note_on channel=1 note=59 velocity=100 time=0
EXTRACT: note_on channel=1 note=64 velocity=100 time=0
EXTRACT: note_off channel=5 note=28 velocity=100 time=0
EXTRACT: note_on channel=5 note=28 velocity=100 time=0
EXTRACT: note_on channel=9 note=38 velocity=127 time=0
EXTRACT: note_on channel=9 note=54 velocity=127 time=0
EXTRACT: note_on channel=9 note=51 velocity=127 time=0
EXTRACT: note_off channel=9 note=51 velocity=127 time=0.029761666666666662
EXTRACT: note_off channel=9 note=54 velocity=127 time=0
EXTRACT: note_off channel=9 note=38 velocity=127 time=0
EXTRACT: note_on channel=9 note=54 velocity=127 time=0.14880833333333332
EXTRACT: note_off channel=9 note=54 velocity=127 time=0.029761666666666662
EXTRACT: note_off channel=6 note=60 velocity=100 time=0.10602593749999999
EXTRACT: note_off channel=1 note=64 velocity=100 time=0.04278239583333333
EXTRACT: note_off channel=1 note=59 velocity=100 time=0
EXTRACT: note_off channel=1 note=52 velocity=100 time=0
EXTRACT: note_off channel=1 note=47 velocity=100 time=0
EXTRACT: note_off channel=1 note=40 velocity=100 time=0
EXTRACT: note_off channel=1 note=56 velocity=100 time=0
EXTRACT: note_on channel=1 note=56 velocity=100 time=0
EXTRACT: note_on channel=1 note=40 velocity=100 time=0
EXTRACT: note_on channel=1 note=47 velocity=100 time=0
EXTRACT: note_on channel=1 note=52 velocity=100 time=0
EXTRACT: note_on channel=1 note=59 velocity=100 time=0
EXTRACT: note_on channel=1 note=64 velocity=100 time=0
EXTRACT: note_off channel=5 note=28 velocity=100 time=0
EXTRACT: note_on channel=5 note=28 velocity=100 time=0
EXTRACT: note_on channel=6 note=60 velocity=100 time=0
EXTRACT: note_on channel=9 note=54 velocity=127 time=0
EXTRACT: note_on channel=9 note=51 velocity=127 time=0
EXTRACT: note_off channel=9 note=51 velocity=127 time=0.029761666666666662
EXTRACT: note_off channel=9 note=54 velocity=127 time=0
EXTRACT: note_off channel=5 note=28 velocity=100 time=0.14880833333333332
EXTRACT: note_on channel=5 note=28 velocity=100 time=0
EXTRACT: note_on channel=9 note=38 velocity=127 time=0
EXTRACT: note_on channel=9 note=54 velocity=127 time=0
EXTRACT: note_off channel=9 note=54 velocity=127 time=0.029761666666666662
EXTRACT: note_off channel=9 note=38 velocity=127 time=0
EXTRACT: note_on channel=9 note=38 velocity=127 time=0.029761666666666662
EXTRACT: note_off channel=9 note=38 velocity=127 time=0.029761666666666662
EXTRACT: note_off channel=1 note=64 velocity=100 time=0.08928499999999999
EXTRACT: note_off channel=1 note=59 velocity=100 time=0
EXTRACT: note_off channel=1 note=52 velocity=100 time=0
EXTRACT: note_off channel=1 note=47 velocity=100 time=0
EXTRACT: note_off channel=1 note=40 velocity=100 time=0
EXTRACT: note_off channel=1 note=56 velocity=100 time=0
EXTRACT: note_on channel=1 note=41 velocity=100 time=0
EXTRACT: note_on channel=1 note=48 velocity=100 time=0
EXTRACT: note_on channel=1 note=53 velocity=100 time=0
EXTRACT: note_on channel=1 note=57 velocity=100 time=0
EXTRACT: note_on channel=1 note=60 velocity=100 time=0
EXTRACT: note_off channel=5 note=28 velocity=100 time=0
EXTRACT: note_on channel=5 note=29 velocity=100 time=0
EXTRACT: note_on channel=9 note=35 velocity=127 time=0
EXTRACT: note_on channel=9 note=36 velocity=127 time=0
EXTRACT: note_on channel=9 note=54 velocity=127 time=0
EXTRACT: note_on channel=9 note=51 velocity=127 time=0
EXTRACT: note_off channel=9 note=51 velocity=127 time=0.029761666666666662
EXTRACT: note_off channel=9 note=54 velocity=127 time=0
EXTRACT: note_off channel=9 note=36 velocity=127 time=0
EXTRACT: note_off channel=9 note=35 velocity=127 time=0
EXTRACT: note_on channel=9 note=54 velocity=127 time=0.14880833333333332
EXTRACT: note_off channel=9 note=54 velocity=127 time=0.029761666666666662
EXTRACT: note_off channel=5 note=29 velocity=100 time=0.14880833333333332
EXTRACT: note_on channel=5 note=29 velocity=100 time=0
EXTRACT: note_off channel=6 note=60 velocity=100 time=0
EXTRACT: note_on channel=6 note=62 velocity=100 time=0
EXTRACT: note_on channel=9 note=54 velocity=127 time=0
EXTRACT: note_on channel=9 note=51 velocity=127 time=0
EXTRACT: note_off channel=9 note=51 velocity=127 time=0.029761666666666662
EXTRACT: note_off channel=9 note=54 velocity=127 time=0
EXTRACT: note_on channel=9 note=54 velocity=127 time=0.14880833333333332
EXTRACT: note_off channel=9 note=54 velocity=127 time=0.029761666666666662
EXTRACT: note_on channel=6 note=64 velocity=100 time=0.10602593749999999
EXTRACT: note_off channel=1 note=60 velocity=100 time=0.04278239583333333
EXTRACT: note_off channel=1 note=57 velocity=100 time=0
EXTRACT: note_off channel=1 note=53 velocity=100 time=0
EXTRACT: note_off channel=1 note=48 velocity=100 time=0
EXTRACT: note_off channel=1 note=41 velocity=100 time=0
EXTRACT: note_on channel=1 note=41 velocity=100 time=0
EXTRACT: note_on channel=1 note=48 velocity=100 time=0
EXTRACT: note_on channel=1 note=53 velocity=100 time=0
EXTRACT: note_on channel=1 note=57 velocity=100 time=0
EXTRACT: note_on channel=1 note=60 velocity=100 time=0
EXTRACT: note_off channel=5 note=29 velocity=100 time=0
EXTRACT: note_on channel=5 note=29 velocity=100 time=0
EXTRACT: note_off channel=6 note=62 velocity=100 time=0
EXTRACT: note_on channel=9 note=36 velocity=127 time=0
EXTRACT: note_on channel=9 note=35 velocity=127 time=0
EXTRACT: note_on channel=9 note=38 velocity=127 time=0
EXTRACT: note_on channel=9 note=54 velocity=127 time=0
EXTRACT: note_on channel=9 note=51 velocity=127 time=0
EXTRACT: note_off channel=9 note=51 velocity=127 time=0.029761666666666662
EXTRACT: note_off channel=9 note=54 velocity=127 time=0
EXTRACT: note_off channel=9 note=38 velocity=127 time=0
EXTRACT: note_off channel=9 note=35 velocity=127 time=0
EXTRACT: note_off channel=9 note=36 velocity=127 time=0
EXTRACT: note_on channel=9 note=54 velocity=127 time=0.14880833333333332
EXTRACT: note_off channel=9 note=54 velocity=127 time=0.029761666666666662
EXTRACT: note_off channel=6 note=64 velocity=100 time=0.10602593749999999
EXTRACT: note_off channel=1 note=60 velocity=100 time=0.04278239583333333
EXTRACT: note_off channel=1 note=57 velocity=100 time=0
EXTRACT: note_off channel=1 note=53 velocity=100 time=0
EXTRACT: note_off channel=1 note=48 velocity=100 time=0
EXTRACT: note_off channel=1 note=41 velocity=100 time=0
EXTRACT: note_on channel=1 note=41 velocity=100 time=0
EXTRACT: note_on channel=1 note=48 velocity=100 time=0
EXTRACT: note_on channel=1 note=53 velocity=100 time=0
EXTRACT: note_on channel=1 note=57 velocity=100 time=0
EXTRACT: note_on channel=1 note=60 velocity=100 time=0
EXTRACT: note_off channel=5 note=29 velocity=100 time=0
EXTRACT: note_on channel=5 note=30 velocity=100 time=0
EXTRACT: note_on channel=9 note=54 velocity=127 time=0
EXTRACT: note_on channel=9 note=51 velocity=127 time=0
EXTRACT: note_on channel=6 note=62 velocity=100 time=0.022321249999999997
EXTRACT: note_off channel=9 note=51 velocity=127 time=0.0074404166666666655
EXTRACT: note_off channel=9 note=54 velocity=127 time=0
EXTRACT: note_on channel=9 note=38 velocity=127 time=0.14880833333333332
EXTRACT: note_on channel=9 note=54 velocity=127 time=0
EXTRACT: note_off channel=9 note=54 velocity=127 time=0.029761666666666662
EXTRACT: note_off channel=9 note=38 velocity=127 time=0
EXTRACT: note_off channel=1 note=60 velocity=100 time=0.14880833333333332
EXTRACT: note_off channel=1 note=57 velocity=100 time=0
EXTRACT: note_off channel=1 note=53 velocity=100 time=0
EXTRACT: note_off channel=1 note=48 velocity=100 time=0
EXTRACT: note_off channel=1 note=41 velocity=100 time=0
EXTRACT: note_on channel=1 note=43 velocity=100 time=0
EXTRACT: note_on channel=1 note=50 velocity=100 time=0
EXTRACT: note_on channel=1 note=55 velocity=100 time=0
EXTRACT: note_on channel=1 note=59 velocity=100 time=0
EXTRACT: note_on channel=1 note=62 velocity=100 time=0
EXTRACT: note_off channel=5 note=30 velocity=100 time=0
EXTRACT: note_on channel=5 note=31 velocity=100 time=0
EXTRACT: note_on channel=9 note=35 velocity=127 time=0
EXTRACT: note_on channel=9 note=36 velocity=127 time=0
EXTRACT: note_on channel=9 note=54 velocity=127 time=0
EXTRACT: note_on channel=9 note=51 velocity=127 time=0
EXTRACT: note_off channel=9 note=51 velocity=127 time=0.029761666666666662
EXTRACT: note_off channel=9 note=54 velocity=127 time=0
EXTRACT: note_off channel=9 note=36 velocity=127 time=0
EXTRACT: note_off channel=9 note=35 velocity=127 time=0
EXTRACT: note_on channel=9 note=38 velocity=127 time=0.14880833333333332
EXTRACT: note_on channel=9 note=54 velocity=127 time=0
EXTRACT: note_off channel=9 note=54 velocity=127 time=0.029761666666666662
EXTRACT: note_off channel=9 note=38 velocity=127 time=0
EXTRACT: note_on channel=6 note=60 velocity=100 time=0.10602593749999999
EXTRACT: note_off channel=1 note=62 velocity=100 time=0.04278239583333333
EXTRACT: note_off channel=1 note=59 velocity=100 time=0
EXTRACT: note_off channel=1 note=55 velocity=100 time=0
EXTRACT: note_off channel=1 note=50 velocity=100 time=0
EXTRACT: note_off channel=1 note=43 velocity=100 time=0
EXTRACT: note_on channel=1 note=43 velocity=100 time=0
EXTRACT: note_on channel=1 note=50 velocity=100 time=0
EXTRACT: note_on channel=1 note=55 velocity=100 time=0
EXTRACT: note_on channel=1 note=59 velocity=100 time=0
EXTRACT: note_on channel=1 note=62 velocity=100 time=0
EXTRACT: note_off channel=5 note=31 velocity=100 time=0
EXTRACT: note_on channel=5 note=31 velocity=100 time=0
EXTRACT: note_on channel=9 note=35 velocity=127 time=0
EXTRACT: note_on channel=9 note=36 velocity=127 time=0
EXTRACT: note_on channel=9 note=54 velocity=127 time=0
EXTRACT: note_on channel=9 note=51 velocity=127 time=0
EXTRACT: note_off channel=6 note=62 velocity=100 time=0.022321249999999997
EXTRACT: note_off channel=9 note=51 velocity=127 time=0.0074404166666666655
EXTRACT: note_off channel=9 note=54 velocity=127 time=0
EXTRACT: note_off channel=9 note=36 velocity=127 time=0
EXTRACT: note_off channel=9 note=35 velocity=127 time=0
EXTRACT: note_off channel=6 note=60 velocity=100 time=0.10602593749999999
EXTRACT: note_on channel=6 note=64 velocity=100 time=0.018601041666666665
EXTRACT: note_on channel=9 note=54 velocity=127 time=0.024181354166666662
EXTRACT: note_off channel=9 note=54 velocity=127 time=0.029761666666666662
EXTRACT: note_off channel=1 note=62 velocity=100 time=0.14880833333333332
EXTRACT: note_off channel=1 note=59 velocity=100 time=0
EXTRACT: note_off channel=1 note=55 velocity=100 time=0
EXTRACT: note_off channel=1 note=50 velocity=100 time=0
EXTRACT: note_off channel=1 note=43 velocity=100 time=0
EXTRACT: note_on channel=1 note=43 velocity=100 time=0
EXTRACT: note_on channel=1 note=50 velocity=100 time=0
EXTRACT: note_on channel=1 note=55 velocity=100 time=0
EXTRACT: note_on channel=1 note=59 velocity=100 time=0
EXTRACT: note_on channel=1 note=62 velocity=100 time=0
EXTRACT: note_off channel=5 note=31 velocity=100 time=0
EXTRACT: note_on channel=5 note=31 velocity=100 time=0
EXTRACT: note_on channel=9 note=38 velocity=127 time=0
EXTRACT: note_on channel=9 note=54 velocity=127 time=0
EXTRACT: note_on channel=9 note=51 velocity=127 time=0
EXTRACT: note_off channel=9 note=51 velocity=127 time=0.029761666666666662
EXTRACT: note_off channel=9 note=54 velocity=127 time=0
EXTRACT: note_off channel=9 note=38 velocity=127 time=0
EXTRACT: note_on channel=9 note=54 velocity=127 time=0.14880833333333332
EXTRACT: note_off channel=9 note=54 velocity=127 time=0.029761666666666662
EXTRACT: note_off channel=6 note=64 velocity=100 time=0.12462697916666665
EXTRACT: note_off channel=1 note=62 velocity=100 time=0.024181354166666662
EXTRACT: note_off channel=1 note=59 velocity=100 time=0
EXTRACT: note_off channel=1 note=55 velocity=100 time=0
EXTRACT: note_off channel=1 note=50 velocity=100 time=0
EXTRACT: note_off channel=1 note=43 velocity=100 time=0
EXTRACT: note_on channel=1 note=43 velocity=100 time=0
EXTRACT: note_on channel=1 note=50 velocity=100 time=0
EXTRACT: note_on channel=1 note=55 velocity=100 time=0
EXTRACT: note_on channel=1 note=59 velocity=100 time=0
EXTRACT: note_on channel=1 note=62 velocity=100 time=0
EXTRACT: note_off channel=5 note=31 velocity=100 time=0
EXTRACT: note_on channel=5 note=35 velocity=100 time=0
EXTRACT: note_on channel=6 note=60 velocity=100 time=0
EXTRACT: note_on channel=9 note=54 velocity=127 time=0
EXTRACT: note_on channel=9 note=51 velocity=127 time=0
EXTRACT: note_off channel=9 note=51 velocity=127 time=0.029761666666666662
EXTRACT: note_off channel=9 note=54 velocity=127 time=0
EXTRACT: note_on channel=9 note=38 velocity=127 time=0.14880833333333332
EXTRACT: note_on channel=9 note=54 velocity=127 time=0
EXTRACT: note_off channel=9 note=54 velocity=127 time=0.029761666666666662
EXTRACT: note_off channel=9 note=38 velocity=127 time=0
EXTRACT: note_off channel=1 note=62 velocity=100 time=0.14880833333333332
EXTRACT: note_off channel=1 note=59 velocity=100 time=0
EXTRACT: note_off channel=1 note=55 velocity=100 time=0
EXTRACT: note_off channel=1 note=50 velocity=100 time=0
EXTRACT: note_off channel=1 note=43 velocity=100 time=0
EXTRACT: note_on channel=1 note=48 velocity=100 time=0
EXTRACT: note_on channel=1 note=52 velocity=100 time=0
EXTRACT: note_on channel=1 note=55 velocity=100 time=0
EXTRACT: note_on channel=1 note=60 velocity=100 time=0
EXTRACT: note_on channel=1 note=64 velocity=100 time=0
EXTRACT: note_off channel=5 note=35 velocity=100 time=0
EXTRACT: note_on channel=5 note=36 velocity=100 time=0
EXTRACT: note_on channel=9 note=35 velocity=127 time=0
EXTRACT: note_on channel=9 note=36 velocity=127 time=0
EXTRACT: note_on channel=9 note=54 velocity=127 time=0
EXTRACT: note_on channel=9 note=51 velocity=127 time=0
EXTRACT: note_off channel=9 note=51 velocity=127 time=0.029761666666666662
EXTRACT: note_off channel=9 note=54 velocity=127 time=0
EXTRACT: note_off channel=9 note=36 velocity=127 time=0
EXTRACT: note_off channel=9 note=35 velocity=127 time=0
EXTRACT: note_off channel=6 note=60 velocity=100 time=0.14880833333333332
EXTRACT: note_on channel=9 note=38 velocity=127 time=0
EXTRACT: note_on channel=9 note=54 velocity=127 time=0
EXTRACT: note_on channel=6 note=57 velocity=100 time=0.022321249999999997
EXTRACT: note_off channel=9 note=54 velocity=127 time=0.0074404166666666655
EXTRACT: note_off channel=9 note=38 velocity=127 time=0
EXTRACT: note_on channel=9 note=35 velocity=127 time=0.14880833333333332
EXTRACT: note_on channel=9 note=36 velocity=127 time=0
EXTRACT: note_on channel=9 note=54 velocity=127 time=0
EXTRACT: note_on channel=9 note=51 velocity=127 time=0
EXTRACT: note_on channel=6 note=55 velocity=100 time=0.011160624999999999
EXTRACT: note_off channel=6 note=57 velocity=100 time=0.011160624999999999
EXTRACT: note_off channel=9 note=51 velocity=127 time=0.0074404166666666655
EXTRACT: note_off channel=9 note=54 velocity=127 time=0
EXTRACT: note_off channel=9 note=36 velocity=127 time=0
EXTRACT: note_off channel=9 note=35 velocity=127 time=0
EXTRACT: note_on channel=9 note=54 velocity=127 time=0.14880833333333332
EXTRACT: note_off channel=9 note=54 velocity=127 time=0.029761666666666662
EXTRACT: note_off channel=1 note=64 velocity=100 time=0.14880833333333332
EXTRACT: note_off channel=1 note=60 velocity=100 time=0
EXTRACT: note_off channel=1 note=55 velocity=100 time=0
EXTRACT: note_off channel=1 note=52 velocity=100 time=0
EXTRACT: note_off channel=1 note=48 velocity=100 time=0
EXTRACT: note_on channel=1 note=48 velocity=100 time=0
EXTRACT: note_on channel=1 note=52 velocity=100 time=0
EXTRACT: note_on channel=1 note=55 velocity=100 time=0
EXTRACT: note_on channel=1 note=60 velocity=100 time=0
EXTRACT: note_on channel=1 note=64 velocity=100 time=0
EXTRACT: note_off channel=5 note=36 velocity=100 time=0
EXTRACT: note_on channel=5 note=36 velocity=100 time=0
EXTRACT: note_on channel=9 note=38 velocity=127 time=0
EXTRACT: note_on channel=9 note=54 velocity=127 time=0
EXTRACT: note_on channel=9 note=51 velocity=127 time=0
EXTRACT: note_off channel=6 note=55 velocity=100 time=0.011160624999999999
EXTRACT: note_off channel=9 note=51 velocity=127 time=0.018601041666666665
EXTRACT: note_off channel=9 note=54 velocity=127 time=0
EXTRACT: note_off channel=9 note=38 velocity=127 time=0
EXTRACT: note_on channel=9 note=54 velocity=127 time=0.14880833333333332
EXTRACT: note_off channel=9 note=54 velocity=127 time=0.029761666666666662
EXTRACT: note_off channel=1 note=64 velocity=100 time=0.14880833333333332
EXTRACT: note_off channel=1 note=60 velocity=100 time=0
EXTRACT: note_off channel=1 note=55 velocity=100 time=0
EXTRACT: note_off channel=1 note=52 velocity=100 time=0
EXTRACT: note_off channel=1 note=48 velocity=100 time=0
EXTRACT: note_on channel=1 note=48 velocity=100 time=0
EXTRACT: note_on channel=1 note=52 velocity=100 time=0
EXTRACT: note_on channel=1 note=55 velocity=100 time=0
EXTRACT: note_on channel=1 note=60 velocity=100 time=0
EXTRACT: note_on channel=1 note=64 velocity=100 time=0
EXTRACT: note_off channel=5 note=36 velocity=100 time=0
EXTRACT: note_on channel=5 note=36 velocity=100 time=0
EXTRACT: note_on channel=9 note=54 velocity=127 time=0
EXTRACT: note_on channel=9 note=51 velocity=127 time=0
EXTRACT: note_off channel=9 note=51 velocity=127 time=0.029761666666666662
EXTRACT: note_off channel=9 note=54 velocity=127 time=0
EXTRACT: note_on channel=9 note=38 velocity=127 time=0.14880833333333332
EXTRACT: note_on channel=9 note=54 velocity=127 time=0
EXTRACT: note_off channel=9 note=54 velocity=127 time=0.029761666666666662
EXTRACT: note_off channel=9 note=38 velocity=127 time=0
EXTRACT: note_off channel=1 note=64 velocity=100 time=0.14880833333333332
EXTRACT: note_off channel=1 note=60 velocity=100 time=0
EXTRACT: note_off channel=1 note=55 velocity=100 time=0
EXTRACT: note_off channel=1 note=52 velocity=100 time=0
EXTRACT: note_off channel=1 note=48 velocity=100 time=0
EXTRACT: note_on channel=1 note=45 velocity=100 time=0
EXTRACT: note_on channel=1 note=52 velocity=100 time=0
EXTRACT: note_on channel=1 note=57 velocity=100 time=0
EXTRACT: note_on channel=1 note=60 velocity=100 time=0
EXTRACT: note_on channel=1 note=64 velocity=100 time=0
EXTRACT: note_off channel=5 note=36 velocity=100 time=0
EXTRACT: note_on channel=5 note=33 velocity=100 time=0
EXTRACT: note_on channel=9 note=35 velocity=127 time=0
EXTRACT: note_on channel=9 note=36 velocity=127 time=0
EXTRACT: note_on channel=9 note=54 velocity=127 time=0
EXTRACT: note_on channel=9 note=51 velocity=127 time=0
EXTRACT: note_off channel=9 note=51 velocity=127 time=0.029761666666666662
EXTRACT: note_off channel=9 note=54 velocity=127 time=0
EXTRACT: note_off channel=9 note=36 velocity=127 time=0
EXTRACT: note_off channel=9 note=35 velocity=127 time=0
EXTRACT: note_on channel=9 note=54 velocity=127 time=0.14880833333333332
EXTRACT: note_off channel=9 note=54 velocity=127 time=0.029761666666666662
EXTRACT: note_on channel=9 note=38 velocity=127 time=0.029761666666666662
EXTRACT: note_off channel=9 note=38 velocity=127 time=0.029761666666666662
EXTRACT: note_off channel=1 note=64 velocity=100 time=0.08928499999999999
EXTRACT: note_off channel=1 note=60 velocity=100 time=0
EXTRACT: note_off channel=1 note=57 velocity=100 time=0
EXTRACT: note_off channel=1 note=52 velocity=100 time=0
EXTRACT: note_off channel=1 note=45 velocity=100 time=0
EXTRACT: note_on channel=1 note=45 velocity=100 time=0
EXTRACT: note_on channel=1 note=52 velocity=100 time=0
EXTRACT: note_on channel=1 note=57 velocity=100 time=0
EXTRACT: note_on channel=1 note=60 velocity=100 time=0
EXTRACT: note_on channel=1 note=64 velocity=100 time=0
EXTRACT: note_off channel=5 note=33 velocity=100 time=0
EXTRACT: note_on channel=5 note=33 velocity=100 time=0
EXTRACT: note_on channel=9 note=38 velocity=127 time=0
EXTRACT: note_on channel=9 note=54 velocity=127 time=0
EXTRACT: note_off channel=9 note=54 velocity=127 time=0.029761666666666662
EXTRACT: note_off channel=9 note=38 velocity=127 time=0
EXTRACT: note_on channel=9 note=38 velocity=127 time=0.08928499999999999
EXTRACT: note_off channel=9 note=38 velocity=127 time=0.029761666666666662
EXTRACT: note_off channel=1 note=64 velocity=100 time=0.029761666666666662
EXTRACT: note_off channel=1 note=60 velocity=100 time=0
EXTRACT: note_off channel=1 note=57 velocity=100 time=0
EXTRACT: note_off channel=1 note=52 velocity=100 time=0
EXTRACT: note_off channel=1 note=45 velocity=100 time=0
EXTRACT: note_on channel=1 note=45 velocity=100 time=0
EXTRACT: note_on channel=1 note=52 velocity=100 time=0
EXTRACT: note_on channel=1 note=57 velocity=100 time=0
EXTRACT: note_on channel=1 note=60 velocity=100 time=0
EXTRACT: note_on channel=1 note=64 velocity=100 time=0
EXTRACT: note_on channel=9 note=54 velocity=127 time=0
EXTRACT: note_off channel=9 note=54 velocity=127 time=0.029761666666666662
EXTRACT: note_on channel=9 note=38 velocity=127 time=0.029761666666666662
EXTRACT: note_off channel=9 note=38 velocity=127 time=0.029761666666666662
EXTRACT: note_off channel=1 note=64 velocity=100 time=0.08928499999999999
EXTRACT: note_off channel=1 note=60 velocity=100 time=0
EXTRACT: note_off channel=1 note=57 velocity=100 time=0
EXTRACT: note_off channel=1 note=52 velocity=100 time=0
EXTRACT: note_off channel=1 note=45 velocity=100 time=0
EXTRACT: note_on channel=1 note=43 velocity=100 time=0
EXTRACT: note_on channel=1 note=50 velocity=100 time=0
EXTRACT: note_on channel=1 note=55 velocity=100 time=0
EXTRACT: note_on channel=1 note=59 velocity=100 time=0
EXTRACT: note_on channel=1 note=67 velocity=100 time=0
EXTRACT: note_off channel=5 note=33 velocity=100 time=0
EXTRACT: note_on channel=5 note=31 velocity=100 time=0
EXTRACT: note_on channel=9 note=47 velocity=127 time=0
EXTRACT: note_on channel=9 note=54 velocity=127 time=0
EXTRACT: note_off channel=9 note=54 velocity=127 time=0.029761666666666662
EXTRACT: note_off channel=9 note=47 velocity=127 time=0
EXTRACT: note_on channel=9 note=47 velocity=127 time=0.08928499999999999
EXTRACT: note_off channel=9 note=47 velocity=127 time=0.029761666666666662
EXTRACT: note_on channel=9 note=54 velocity=127 time=0.029761666666666662
EXTRACT: note_off channel=9 note=54 velocity=127 time=0.029761666666666662
EXTRACT: note_on channel=9 note=47 velocity=127 time=0.029761666666666662
EXTRACT: note_off channel=9 note=47 velocity=127 time=0.029761666666666662
EXTRACT: note_off channel=1 note=67 velocity=100 time=0.08928499999999999
EXTRACT: note_off channel=1 note=59 velocity=100 time=0
EXTRACT: note_off channel=1 note=55 velocity=100 time=0
EXTRACT: note_off channel=1 note=50 velocity=100 time=0
EXTRACT: note_off channel=1 note=43 velocity=100 time=0
EXTRACT: note_on channel=1 note=43 velocity=100 time=0
EXTRACT: note_on channel=1 note=50 velocity=100 time=0
EXTRACT: note_on channel=1 note=55 velocity=100 time=0
EXTRACT: note_on channel=1 note=59 velocity=100 time=0
EXTRACT: note_on channel=1 note=67 velocity=100 time=0
EXTRACT: note_off channel=5 note=31 velocity=100 time=0
EXTRACT: note_on channel=5 note=35 velocity=100 time=0
EXTRACT: note_on channel=9 note=45 velocity=127 time=0
EXTRACT: note_on channel=9 note=54 velocity=127 time=0
EXTRACT: note_on channel=6 note=55 velocity=100 time=0.011160624999999999
EXTRACT: note_off channel=9 note=54 velocity=127 time=0.018601041666666665
EXTRACT: note_off channel=9 note=45 velocity=127 time=0
EXTRACT: note_on channel=9 note=45 velocity=127 time=0.08928499999999999
EXTRACT: note_off channel=9 note=45 velocity=127 time=0.029761666666666662
EXTRACT: note_on channel=9 note=54 velocity=127 time=0.029761666666666662
EXTRACT: note_off channel=9 note=54 velocity=127 time=0.029761666666666662
EXTRACT: note_on channel=9 note=45 velocity=127 time=0.029761666666666662
EXTRACT: note_off channel=9 note=45 velocity=127 time=0.029761666666666662
EXTRACT: note_off channel=1 note=67 velocity=100 time=0.08928499999999999
EXTRACT: note_off channel=1 note=59 velocity=100 time=0
EXTRACT: note_off channel=1 note=55 velocity=100 time=0
EXTRACT: note_off channel=1 note=50 velocity=100 time=0
EXTRACT: note_off channel=1 note=43 velocity=100 time=0
EXTRACT: note_on channel=1 note=48 velocity=100 time=0
EXTRACT: note_on channel=1 note=52 velocity=100 time=0
EXTRACT: note_on channel=1 note=55 velocity=100 time=0
EXTRACT: note_on channel=1 note=60 velocity=100 time=0
EXTRACT: note_on channel=1 note=64 velocity=100 time=0
EXTRACT: note_off channel=5 note=35 velocity=100 time=0
EXTRACT: note_on channel=5 note=36 velocity=100 time=0
EXTRACT: note_on channel=6 note=67 velocity=100 time=0
EXTRACT: note_on channel=9 note=35 velocity=127 time=0
EXTRACT: note_on channel=9 note=36 velocity=127 time=0
EXTRACT: note_on channel=9 note=54 velocity=127 time=0
EXTRACT: note_on channel=9 note=49 velocity=127 time=0
EXTRACT: note_off channel=6 note=55 velocity=100 time=0.011160624999999999
EXTRACT: note_off channel=9 note=49 velocity=127 time=0.018601041666666665
EXTRACT: note_off channel=9 note=54 velocity=127 time=0
EXTRACT: note_off channel=9 note=36 velocity=127 time=0
EXTRACT: note_off channel=9 note=35 velocity=127 time=0
EXTRACT: note_on channel=9 note=54 velocity=127 time=0.14880833333333332
EXTRACT: note_off channel=9 note=54 velocity=127 time=0.029761666666666662
EXTRACT: note_on channel=9 note=54 velocity=127 time=0.14880833333333332
EXTRACT: note_on channel=9 note=51 velocity=127 time=0
EXTRACT: note_off channel=9 note=51 velocity=127 time=0.029761666666666662
EXTRACT: note_off channel=9 note=54 velocity=127 time=0
EXTRACT: note_on channel=9 note=54 velocity=127 time=0.14880833333333332
EXTRACT: note_off channel=9 note=54 velocity=127 time=0.029761666666666662
EXTRACT: note_on channel=5 note=36 velocity=100 time=0.10602593749999999
EXTRACT: note_off channel=1 note=64 velocity=100 time=0.04278239583333333
EXTRACT: note_off channel=1 note=60 velocity=100 time=0
EXTRACT: note_off channel=1 note=55 velocity=100 time=0
EXTRACT: note_off channel=1 note=52 velocity=100 time=0
EXTRACT: note_off channel=1 note=48 velocity=100 time=0
EXTRACT: note_on channel=1 note=48 velocity=100 time=0
EXTRACT: note_on channel=1 note=52 velocity=100 time=0
EXTRACT: note_on channel=1 note=55 velocity=100 time=0
EXTRACT: note_on channel=1 note=60 velocity=100 time=0
EXTRACT: note_on channel=1 note=64 velocity=100 time=0
EXTRACT: note_off channel=5 note=36 velocity=100 time=0
EXTRACT: note_on channel=9 note=38 velocity=127 time=0
EXTRACT: note_on channel=9 note=54 velocity=127 time=0
EXTRACT: note_on channel=9 note=51 velocity=127 time=0
EXTRACT: note_off channel=9 note=51 velocity=127 time=0.029761666666666662
EXTRACT: note_off channel=9 note=54 velocity=127 time=0
EXTRACT: note_off channel=9 note=38 velocity=127 time=0
EXTRACT: note_on channel=9 note=54 velocity=127 time=0.14880833333333332
EXTRACT: note_off channel=9 note=54 velocity=127 time=0.029761666666666662
EXTRACT: note_off channel=5 note=36 velocity=100 time=0.10602593749999999
EXTRACT: note_off channel=1 note=64 velocity=100 time=0.04278239583333333
EXTRACT: note_off channel=1 note=60 velocity=100 time=0
EXTRACT: note_off channel=1 note=55 velocity=100 time=0
EXTRACT: note_off channel=1 note=52 velocity=100 time=0
EXTRACT: note_off channel=1 note=48 velocity=100 time=0
EXTRACT: note_on channel=1 note=48 velocity=100 time=0
EXTRACT: note_on channel=1 note=52 velocity=100 time=0
EXTRACT: note_on channel=1 note=55 velocity=100 time=0
EXTRACT: note_on channel=1 note=60 velocity=100 time=0
EXTRACT: note_on channel=1 note=64 velocity=100 time=0
EXTRACT: note_on channel=9 note=54 velocity=127 time=0
EXTRACT: note_on channel=9 note=51 velocity=127 time=0
EXTRACT: note_on channel=5 note=35 velocity=100 time=0.022321249999999997
EXTRACT: note_off channel=9 note=51 velocity=127 time=0.0074404166666666655
EXTRACT: note_off channel=9 note=54 velocity=127 time=0
EXTRACT: note_on channel=9 note=38 velocity=127 time=0.14880833333333332
EXTRACT: note_on channel=9 note=54 velocity=127 time=0
EXTRACT: note_off channel=9 note=54 velocity=127 time=0.029761666666666662
EXTRACT: note_off channel=9 note=38 velocity=127 time=0
EXTRACT: note_on channel=6 note=65 velocity=100 time=0.13020729166666664
EXTRACT: note_off channel=1 note=64 velocity=100 time=0.018601041666666665
EXTRACT: note_off channel=1 note=60 velocity=100 time=0
EXTRACT: note_off channel=1 note=55 velocity=100 time=0
EXTRACT: note_off channel=1 note=52 velocity=100 time=0
EXTRACT: note_off channel=1 note=48 velocity=100 time=0
EXTRACT: note_on channel=1 note=43 velocity=100 time=0
EXTRACT: note_on channel=1 note=50 velocity=100 time=0
EXTRACT: note_on channel=1 note=55 velocity=100 time=0
EXTRACT: note_on channel=1 note=59 velocity=100 time=0
EXTRACT: note_on channel=1 note=67 velocity=100 time=0
EXTRACT: note_off channel=6 note=67 velocity=100 time=0
EXTRACT: note_on channel=9 note=35 velocity=127 time=0
EXTRACT: note_on channel=9 note=36 velocity=127 time=0
EXTRACT: note_on channel=9 note=54 velocity=127 time=0
EXTRACT: note_on channel=9 note=51 velocity=127 time=0
EXTRACT: note_off channel=5 note=35 velocity=100 time=0.022321249999999997
EXTRACT: note_on channel=5 note=31 velocity=100 time=0
EXTRACT: note_off channel=9 note=51 velocity=127 time=0.0074404166666666655
EXTRACT: note_off channel=9 note=54 velocity=127 time=0
EXTRACT: note_off channel=9 note=36 velocity=127 time=0
EXTRACT: note_off channel=9 note=35 velocity=127 time=0
EXTRACT: note_on channel=9 note=38 velocity=127 time=0.14880833333333332
EXTRACT: note_on channel=9 note=54 velocity=127 time=0
EXTRACT: note_off channel=9 note=54 velocity=127 time=0.029761666666666662
EXTRACT: note_off channel=9 note=38 velocity=127 time=0
EXTRACT: note_on channel=5 note=31 velocity=100 time=0.14880833333333332
EXTRACT: note_on channel=9 note=35 velocity=127 time=0
EXTRACT: note_on channel=9 note=36 velocity=127 time=0
EXTRACT: note_on channel=9 note=54 velocity=127 time=0
EXTRACT: note_on channel=9 note=51 velocity=127 time=0
EXTRACT: note_off channel=5 note=31 velocity=100 time=0.022321249999999997
EXTRACT: note_off channel=9 note=51 velocity=127 time=0.0074404166666666655
EXTRACT: note_off channel=9 note=54 velocity=127 time=0
EXTRACT: note_off channel=9 note=36 velocity=127 time=0
EXTRACT: note_off channel=9 note=35 velocity=127 time=0
EXTRACT: note_on channel=9 note=54 velocity=127 time=0.14880833333333332
EXTRACT: note_off channel=9 note=54 velocity=127 time=0.029761666666666662
EXTRACT: note_on channel=6 note=67 velocity=100 time=0.10602593749999999
EXTRACT: note_off channel=6 note=65 velocity=100 time=0.024181354166666662
EXTRACT: note_off channel=1 note=67 velocity=100 time=0.018601041666666665
EXTRACT: note_off channel=1 note=59 velocity=100 time=0
EXTRACT: note_off channel=1 note=55 velocity=100 time=0
EXTRACT: note_off channel=1 note=50 velocity=100 time=0
EXTRACT: note_off channel=1 note=43 velocity=100 time=0
EXTRACT: note_on channel=1 note=43 velocity=100 time=0
EXTRACT: note_on channel=1 note=50 velocity=100 time=0
EXTRACT: note_on channel=1 note=55 velocity=100 time=0
EXTRACT: note_on channel=1 note=59 velocity=100 time=0
EXTRACT: note_on channel=1 note=67 velocity=100 time=0
EXTRACT: note_off channel=5 note=31 velocity=100 time=0
EXTRACT: note_on channel=5 note=31 velocity=100 time=0
EXTRACT: note_on channel=9 note=38 velocity=127 time=0
EXTRACT: note_on channel=9 note=54 velocity=127 time=0
EXTRACT: note_on channel=9 note=51 velocity=127 time=0
EXTRACT: note_off channel=9 note=51 velocity=127 time=0.029761666666666662
EXTRACT: note_off channel=9 note=54 velocity=127 time=0
EXTRACT: note_off channel=9 note=38 velocity=127 time=0
EXTRACT: note_on channel=9 note=54 velocity=127 time=0.14880833333333332
EXTRACT: note_off channel=9 note=54 velocity=127 time=0.029761666666666662
EXTRACT: note_off channel=6 note=67 velocity=100 time=0.10602593749999999
EXTRACT: note_off channel=1 note=67 velocity=100 time=0.04278239583333333
EXTRACT: note_off channel=1 note=59 velocity=100 time=0
EXTRACT: note_off channel=1 note=55 velocity=100 time=0
EXTRACT: note_off channel=1 note=50 velocity=100 time=0
EXTRACT: note_off channel=1 note=43 velocity=100 time=0
EXTRACT: note_on channel=1 note=43 velocity=100 time=0
EXTRACT: note_on channel=1 note=50 velocity=100 time=0
EXTRACT: note_on channel=1 note=55 velocity=100 time=0
EXTRACT: note_on channel=1 note=59 velocity=100 time=0
EXTRACT: note_on channel=1 note=67 velocity=100 time=0
EXTRACT: note_off channel=5 note=31 velocity=100 time=0
EXTRACT: note_on channel=5 note=31 velocity=100 time=0
EXTRACT: note_on channel=6 note=64 velocity=100 time=0
EXTRACT: note_on channel=9 note=54 velocity=127 time=0
EXTRACT: note_on channel=9 note=51 velocity=127 time=0
EXTRACT: note_off channel=9 note=51 velocity=127 time=0.029761666666666662
EXTRACT: note_off channel=9 note=54 velocity=127 time=0
EXTRACT: note_off channel=5 note=31 velocity=100 time=0.14880833333333332
EXTRACT: note_on channel=5 note=32 velocity=100 time=0
EXTRACT: note_on channel=9 note=38 velocity=127 time=0
EXTRACT: note_on channel=9 note=54 velocity=127 time=0
EXTRACT: note_off channel=9 note=54 velocity=127 time=0.029761666666666662
EXTRACT: note_off channel=9 note=38 velocity=127 time=0
EXTRACT: note_on channel=9 note=38 velocity=127 time=0.029761666666666662
EXTRACT: note_off channel=9 note=38 velocity=127 time=0.029761666666666662
EXTRACT: note_off channel=1 note=67 velocity=100 time=0.08928499999999999
EXTRACT: note_off channel=1 note=59 velocity=100 time=0
EXTRACT: note_off channel=1 note=55 velocity=100 time=0
EXTRACT: note_off channel=1 note=50 velocity=100 time=0
EXTRACT: note_off channel=1 note=43 velocity=100 time=0
EXTRACT: note_on channel=1 note=45 velocity=100 time=0
EXTRACT: note_on channel=1 note=52 velocity=100 time=0
EXTRACT: note_on channel=1 note=57 velocity=100 time=0
EXTRACT: note_on channel=1 note=60 velocity=100 time=0
EXTRACT: note_on channel=1 note=64 velocity=100 time=0
EXTRACT: note_off channel=5 note=32 velocity=100 time=0
EXTRACT: note_on channel=5 note=33 velocity=100 time=0
EXTRACT: note_on channel=9 note=35 velocity=127 time=0
EXTRACT: note_on channel=9 note=36 velocity=127 time=0
EXTRACT: note_on channel=9 note=54 velocity=127 time=0
EXTRACT: note_on channel=9 note=51 velocity=127 time=0
EXTRACT: note_off channel=9 note=51 velocity=127 time=0.029761666666666662
EXTRACT: note_off channel=9 note=54 velocity=127 time=0
EXTRACT: note_off channel=9 note=36 velocity=127 time=0
EXTRACT: note_off channel=9 note=35 velocity=127 time=0
EXTRACT: note_on channel=9 note=54 velocity=127 time=0.14880833333333332
EXTRACT: note_off channel=9 note=54 velocity=127 time=0.029761666666666662
EXTRACT: note_on channel=9 note=54 velocity=127 time=0.14880833333333332
EXTRACT: note_on channel=9 note=51 velocity=127 time=0
EXTRACT: note_off channel=9 note=51 velocity=127 time=0.029761666666666662
EXTRACT: note_off channel=9 note=54 velocity=127 time=0
EXTRACT: note_on channel=9 note=54 velocity=127 time=0.14880833333333332
EXTRACT: note_off channel=9 note=54 velocity=127 time=0.029761666666666662
EXTRACT: note_off channel=1 note=64 velocity=100 time=0.14880833333333332
EXTRACT: note_off channel=1 note=60 velocity=100 time=0
EXTRACT: note_off channel=1 note=57 velocity=100 time=0
EXTRACT: note_off channel=1 note=52 velocity=100 time=0
EXTRACT: note_off channel=1 note=45 velocity=100 time=0
EXTRACT: note_on channel=1 note=45 velocity=100 time=0
EXTRACT: note_on channel=1 note=52 velocity=100 time=0
EXTRACT: note_on channel=1 note=57 velocity=100 time=0
EXTRACT: note_on channel=1 note=60 velocity=100 time=0
EXTRACT: note_on channel=1 note=64 velocity=100 time=0
EXTRACT: note_off channel=5 note=33 velocity=100 time=0
EXTRACT: note_on channel=5 note=33 velocity=100 time=0
EXTRACT: note_on channel=9 note=38 velocity=127 time=0
EXTRACT: note_on channel=9 note=54 velocity=127 time=0
EXTRACT: note_on channel=9 note=51 velocity=127 time=0
EXTRACT: note_off channel=9 note=51 velocity=127 time=0.029761666666666662
EXTRACT: note_off channel=9 note=54 velocity=127 time=0
EXTRACT: note_off channel=9 note=38 velocity=127 time=0
EXTRACT: note_on channel=9 note=54 velocity=127 time=0.14880833333333332
EXTRACT: note_off channel=9 note=54 velocity=127 time=0.029761666666666662
EXTRACT: note_off channel=1 note=64 velocity=100 time=0.14880833333333332
EXTRACT: note_off channel=1 note=60 velocity=100 time=0
EXTRACT: note_off channel=1 note=57 velocity=100 time=0
EXTRACT: note_off channel=1 note=52 velocity=100 time=0
EXTRACT: note_off channel=1 note=45 velocity=100 time=0
EXTRACT: note_on channel=1 note=45 velocity=100 time=0
EXTRACT: note_on channel=1 note=52 velocity=100 time=0
EXTRACT: note_on channel=1 note=57 velocity=100 time=0
EXTRACT: note_on channel=1 note=60 velocity=100 time=0
EXTRACT: note_on channel=1 note=64 velocity=100 time=0
EXTRACT: note_off channel=5 note=33 velocity=100 time=0
EXTRACT: note_on channel=5 note=31 velocity=100 time=0
EXTRACT: note_on channel=9 note=54 velocity=127 time=0
EXTRACT: note_on channel=9 note=51 velocity=127 time=0
EXTRACT: note_off channel=9 note=51 velocity=127 time=0.029761666666666662
EXTRACT: note_off channel=9 note=54 velocity=127 time=0
EXTRACT: note_on channel=9 note=38 velocity=127 time=0.14880833333333332
EXTRACT: note_on channel=9 note=54 velocity=127 time=0
EXTRACT: note_off channel=9 note=54 velocity=127 time=0.029761666666666662
EXTRACT: note_off channel=9 note=38 velocity=127 time=0
EXTRACT: note_off channel=1 note=64 velocity=100 time=0.14880833333333332
EXTRACT: note_off channel=1 note=60 velocity=100 time=0
EXTRACT: note_off channel=1 note=57 velocity=100 time=0
EXTRACT: note_off channel=1 note=52 velocity=100 time=0
EXTRACT: note_off channel=1 note=45 velocity=100 time=0
EXTRACT: note_on channel=1 note=40 velocity=100 time=0
EXTRACT: note_on channel=1 note=47 velocity=100 time=0
EXTRACT: note_on channel=1 note=52 velocity=100 time=0
EXTRACT: note_on channel=1 note=56 velocity=100 time=0
EXTRACT: note_on channel=1 note=59 velocity=100 time=0
EXTRACT: note_on channel=1 note=64 velocity=100 time=0
EXTRACT: note_off channel=5 note=31 velocity=100 time=0
EXTRACT: note_on channel=5 note=28 velocity=100 time=0
EXTRACT: note_off channel=6 note=64 velocity=100 time=0
EXTRACT: note_on channel=9 note=35 velocity=127 time=0
EXTRACT: note_on channel=9 note=36 velocity=127 time=0
EXTRACT: note_on channel=9 note=54 velocity=127 time=0
EXTRACT: note_on channel=9 note=51 velocity=127 time=0
EXTRACT: note_off channel=9 note=51 velocity=127 time=0.029761666666666662
EXTRACT: note_off channel=9 note=54 velocity=127 time=0
EXTRACT: note_off channel=9 note=36 velocity=127 time=0
EXTRACT: note_off channel=9 note=35 velocity=127 time=0
EXTRACT: note_on channel=9 note=38 velocity=127 time=0.14880833333333332
EXTRACT: note_on channel=9 note=54 velocity=127 time=0
EXTRACT: note_off channel=9 note=54 velocity=127 time=0.029761666666666662
EXTRACT: note_off channel=9 note=38 velocity=127 time=0
EXTRACT: note_off channel=5 note=28 velocity=100 time=0.14880833333333332
EXTRACT: note_on channel=5 note=28 velocity=100 time=0
EXTRACT: note_on channel=9 note=36 velocity=127 time=0
EXTRACT: note_on channel=9 note=54 velocity=127 time=0
EXTRACT: note_on channel=9 note=51 velocity=127 time=0
EXTRACT: note_off channel=9 note=51 velocity=127 time=0.029761666666666662
EXTRACT: note_off channel=9 note=54 velocity=127 time=0
EXTRACT: note_off channel=9 note=36 velocity=127 time=0
EXTRACT: note_on channel=6 note=64 velocity=100 time=0.14880833333333332
EXTRACT: note_on channel=9 note=35 velocity=127 time=0
EXTRACT: note_on channel=9 note=54 velocity=127 time=0
EXTRACT: note_off channel=9 note=54 velocity=127 time=0.029761666666666662
EXTRACT: note_off channel=9 note=35 velocity=127 time=0
EXTRACT: note_on channel=6 note=69 velocity=100 time=0.12462697916666665
EXTRACT: note_off channel=1 note=64 velocity=100 time=0.024181354166666662
EXTRACT: note_off channel=1 note=59 velocity=100 time=0
EXTRACT: note_off channel=1 note=56 velocity=100 time=0
EXTRACT: note_off channel=1 note=52 velocity=100 time=0
EXTRACT: note_off channel=1 note=47 velocity=100 time=0
EXTRACT: note_off channel=1 note=40 velocity=100 time=0
EXTRACT: note_on channel=1 note=56 velocity=100 time=0
EXTRACT: note_on channel=1 note=40 velocity=100 time=0
EXTRACT: note_on channel=1 note=47 velocity=100 time=0
EXTRACT: note_on channel=1 note=52 velocity=100 time=0
EXTRACT: note_on channel=1 note=59 velocity=100 time=0
EXTRACT: note_on channel=1 note=64 velocity=100 time=0
EXTRACT: note_off channel=5 note=28 velocity=100 time=0
EXTRACT: note_on channel=5 note=28 velocity=100 time=0
EXTRACT: note_off channel=6 note=64 velocity=100 time=0
EXTRACT: note_on channel=9 note=38 velocity=127 time=0
EXTRACT: note_on channel=9 note=54 velocity=127 time=0
EXTRACT: note_on channel=9 note=51 velocity=127 time=0
EXTRACT: note_off channel=9 note=51 velocity=127 time=0.029761666666666662
EXTRACT: note_off channel=9 note=54 velocity=127 time=0
EXTRACT: note_off channel=9 note=38 velocity=127 time=0
EXTRACT: note_on channel=9 note=54 velocity=127 time=0.14880833333333332
EXTRACT: note_off channel=9 note=54 velocity=127 time=0.029761666666666662
EXTRACT: note_off channel=6 note=69 velocity=100 time=0.12462697916666665
EXTRACT: note_off channel=1 note=64 velocity=100 time=0.024181354166666662
EXTRACT: note_off channel=1 note=59 velocity=100 time=0
EXTRACT: note_off channel=1 note=52 velocity=100 time=0
EXTRACT: note_off channel=1 note=47 velocity=100 time=0
EXTRACT: note_off channel=1 note=40 velocity=100 time=0
EXTRACT: note_off channel=1 note=56 velocity=100 time=0
EXTRACT: note_on channel=1 note=56 velocity=100 time=0
EXTRACT: note_on channel=1 note=40 velocity=100 time=0
EXTRACT: note_on channel=1 note=47 velocity=100 time=0
EXTRACT: note_on channel=1 note=52 velocity=100 time=0
EXTRACT: note_on channel=1 note=59 velocity=100 time=0
EXTRACT: note_on channel=1 note=64 velocity=100 time=0
EXTRACT: note_off channel=5 note=28 velocity=100 time=0
EXTRACT: note_on channel=5 note=28 velocity=100 time=0
EXTRACT: note_on channel=9 note=54 velocity=127 time=0
EXTRACT: note_on channel=9 note=51 velocity=127 time=0
EXTRACT: note_on channel=6 note=64 velocity=100 time=0.016740937499999997
EXTRACT: note_off channel=9 note=51 velocity=127 time=0.013020729166666665
EXTRACT: note_off channel=9 note=54 velocity=127 time=0
EXTRACT: note_on channel=6 note=67 velocity=100 time=0.12462697916666665
EXTRACT: note_off channel=5 note=28 velocity=100 time=0.024181354166666662
EXTRACT: note_on channel=5 note=28 velocity=100 time=0
EXTRACT: note_on channel=9 note=38 velocity=127 time=0
EXTRACT: note_on channel=9 note=54 velocity=127 time=0
EXTRACT: note_off channel=6 note=64 velocity=100 time=0.016740937499999997
EXTRACT: note_off channel=9 note=54 velocity=127 time=0.013020729166666665
EXTRACT: note_off channel=9 note=38 velocity=127 time=0
EXTRACT: note_on channel=9 note=38 velocity=127 time=0.029761666666666662
EXTRACT: note_off channel=9 note=38 velocity=127 time=0.029761666666666662
EXTRACT: note_off channel=1 note=64 velocity=100 time=0.08928499999999999
EXTRACT: note_off channel=1 note=59 velocity=100 time=0
EXTRACT: note_off channel=1 note=52 velocity=100 time=0
EXTRACT: note_off channel=1 note=47 velocity=100 time=0
EXTRACT: note_off channel=1 note=40 velocity=100 time=0
EXTRACT: note_off channel=1 note=56 velocity=100 time=0
EXTRACT: note_on channel=1 note=41 velocity=100 time=0
EXTRACT: note_on channel=1 note=48 velocity=100 time=0
EXTRACT: note_on channel=1 note=53 velocity=100 time=0
EXTRACT: note_on channel=1 note=57 velocity=100 time=0
EXTRACT: note_on channel=1 note=60 velocity=100 time=0
EXTRACT: note_off channel=5 note=28 velocity=100 time=0
EXTRACT: note_on channel=5 note=29 velocity=100 time=0
EXTRACT: note_on channel=9 note=35 velocity=127 time=0
EXTRACT: note_on channel=9 note=36 velocity=127 time=0
EXTRACT: note_on channel=9 note=54 velocity=127 time=0
EXTRACT: note_on channel=9 note=51 velocity=127 time=0
EXTRACT: note_off channel=9 note=51 velocity=127 time=0.029761666666666662
EXTRACT: note_off channel=9 note=54 velocity=127 time=0
EXTRACT: note_off channel=9 note=36 velocity=127 time=0
EXTRACT: note_off channel=9 note=35 velocity=127 time=0
EXTRACT: note_off channel=6 note=67 velocity=100 time=0.12462697916666665
EXTRACT: note_on channel=6 note=64 velocity=100 time=0.011160624999999999
EXTRACT: note_on channel=9 note=54 velocity=127 time=0.013020729166666665
EXTRACT: note_off channel=9 note=54 velocity=127 time=0.029761666666666662
EXTRACT: note_off channel=6 note=64 velocity=100 time=0.13578760416666666
EXTRACT: note_on channel=6 note=62 velocity=100 time=0
EXTRACT: note_off channel=5 note=29 velocity=100 time=0.013020729166666665
EXTRACT: note_on channel=5 note=29 velocity=100 time=0
EXTRACT: note_on channel=9 note=54 velocity=127 time=0
EXTRACT: note_on channel=9 note=51 velocity=127 time=0
EXTRACT: note_off channel=9 note=51 velocity=127 time=0.029761666666666662
EXTRACT: note_off channel=9 note=54 velocity=127 time=0
EXTRACT: note_on channel=9 note=54 velocity=127 time=0.14880833333333332
EXTRACT: note_off channel=9 note=54 velocity=127 time=0.029761666666666662
EXTRACT: note_on channel=6 note=60 velocity=100 time=0.12462697916666665
EXTRACT: note_off channel=6 note=62 velocity=100 time=0.011160624999999999
EXTRACT: note_off channel=1 note=60 velocity=100 time=0.013020729166666665
EXTRACT: note_off channel=1 note=57 velocity=100 time=0
EXTRACT: note_off channel=1 note=53 velocity=100 time=0
EXTRACT: note_off channel=1 note=48 velocity=100 time=0
EXTRACT: note_off channel=1 note=41 velocity=100 time=0
EXTRACT: note_on channel=1 note=41 velocity=100 time=0
EXTRACT: note_on channel=1 note=48 velocity=100 time=0
EXTRACT: note_on channel=1 note=53 velocity=100 time=0
EXTRACT: note_on channel=1 note=57 velocity=100 time=0
EXTRACT: note_on channel=1 note=60 velocity=100 time=0
EXTRACT: note_off channel=5 note=29 velocity=100 time=0
EXTRACT: note_on channel=5 note=29 velocity=100 time=0
EXTRACT: note_on channel=9 note=38 velocity=127 time=0
EXTRACT: note_on channel=9 note=54 velocity=127 time=0
EXTRACT: note_on channel=9 note=51 velocity=127 time=0
EXTRACT: note_off channel=9 note=51 velocity=127 time=0.029761666666666662
EXTRACT: note_off channel=9 note=54 velocity=127 time=0
EXTRACT: note_off channel=9 note=38 velocity=127 time=0
EXTRACT: note_on channel=9 note=54 velocity=127 time=0.14880833333333332
EXTRACT: note_off channel=9 note=54 velocity=127 time=0.029761666666666662
EXTRACT: note_off channel=1 note=60 velocity=100 time=0.14880833333333332
EXTRACT: note_off channel=1 note=57 velocity=100 time=0
EXTRACT: note_off channel=1 note=53 velocity=100 time=0
EXTRACT: note_off channel=1 note=48 velocity=100 time=0
EXTRACT: note_off channel=1 note=41 velocity=100 time=0
EXTRACT: note_on channel=1 note=41 velocity=100 time=0
EXTRACT: note_on channel=1 note=48 velocity=100 time=0
EXTRACT: note_on channel=1 note=53 velocity=100 time=0
EXTRACT: note_on channel=1 note=57 velocity=100 time=0
EXTRACT: note_on channel=1 note=60 velocity=100 time=0
EXTRACT: note_off channel=5 note=29 velocity=100 time=0
EXTRACT: note_on channel=5 note=30 velocity=100 time=0
EXTRACT: note_on channel=9 note=54 velocity=127 time=0
EXTRACT: note_on channel=9 note=51 velocity=127 time=0
EXTRACT: note_off channel=9 note=51 velocity=127 time=0.029761666666666662
EXTRACT: note_off channel=9 note=54 velocity=127 time=0
EXTRACT: note_off channel=6 note=60 velocity=100 time=0.12462697916666665
EXTRACT: note_on channel=9 note=38 velocity=127 time=0.024181354166666662
EXTRACT: note_on channel=9 note=54 velocity=127 time=0
EXTRACT: note_off channel=9 note=54 velocity=127 time=0.029761666666666662
EXTRACT: note_off channel=9 note=38 velocity=127 time=0
EXTRACT: note_on channel=2 note=62 velocity=100 time=0.04092229166666666
EXTRACT: note_on channel=2 note=67 velocity=100 time=0.08370468749999999
EXTRACT: note_on channel=2 note=64 velocity=100 time=0
EXTRACT: note_off channel=2 note=62 velocity=100 time=0.005580312499999999
EXTRACT: note_off channel=1 note=60 velocity=100 time=0.018601041666666665
EXTRACT: note_off channel=1 note=57 velocity=100 time=0
EXTRACT: note_off channel=1 note=53 velocity=100 time=0
EXTRACT: note_off channel=1 note=48 velocity=100 time=0
EXTRACT: note_off channel=1 note=41 velocity=100 time=0
EXTRACT: note_on channel=1 note=43 velocity=100 time=0
EXTRACT: note_on channel=1 note=50 velocity=100 time=0
EXTRACT: note_on channel=1 note=55 velocity=100 time=0
EXTRACT: note_on channel=1 note=59 velocity=100 time=0
EXTRACT: note_on channel=1 note=62 velocity=100 time=0
EXTRACT: note_off channel=5 note=30 velocity=100 time=0
EXTRACT: note_on channel=5 note=31 velocity=100 time=0
EXTRACT: note_on channel=9 note=35 velocity=127 time=0
EXTRACT: note_on channel=9 note=36 velocity=127 time=0
EXTRACT: note_on channel=9 note=54 velocity=127 time=0
EXTRACT: note_on channel=9 note=51 velocity=127 time=0
EXTRACT: note_off channel=9 note=51 velocity=127 time=0.029761666666666662
EXTRACT: note_off channel=9 note=54 velocity=127 time=0
EXTRACT: note_off channel=9 note=36 velocity=127 time=0
EXTRACT: note_off channel=9 note=35 velocity=127 time=0
EXTRACT: note_on channel=9 note=38 velocity=127 time=0.14880833333333332
EXTRACT: note_on channel=9 note=54 velocity=127 time=0
EXTRACT: note_off channel=9 note=54 velocity=127 time=0.029761666666666662
EXTRACT: note_off channel=9 note=38 velocity=127 time=0
EXTRACT: note_off channel=1 note=62 velocity=100 time=0.14880833333333332
EXTRACT: note_off channel=1 note=59 velocity=100 time=0
EXTRACT: note_off channel=1 note=55 velocity=100 time=0
EXTRACT: note_off channel=1 note=50 velocity=100 time=0
EXTRACT: note_off channel=1 note=43 velocity=100 time=0
EXTRACT: note_on channel=1 note=43 velocity=100 time=0
EXTRACT: note_on channel=1 note=50 velocity=100 time=0
EXTRACT: note_on channel=1 note=55 velocity=100 time=0
EXTRACT: note_on channel=1 note=59 velocity=100 time=0
EXTRACT: note_on channel=1 note=62 velocity=100 time=0
EXTRACT: note_off channel=5 note=31 velocity=100 time=0
EXTRACT: note_on channel=5 note=31 velocity=100 time=0
EXTRACT: note_on channel=9 note=35 velocity=127 time=0
EXTRACT: note_on channel=9 note=36 velocity=127 time=0
EXTRACT: note_on channel=9 note=54 velocity=127 time=0
EXTRACT: note_on channel=9 note=51 velocity=127 time=0
EXTRACT: note_off channel=9 note=51 velocity=127 time=0.029761666666666662
EXTRACT: note_off channel=9 note=54 velocity=127 time=0
EXTRACT: note_off channel=9 note=36 velocity=127 time=0
EXTRACT: note_off channel=9 note=35 velocity=127 time=0
EXTRACT: note_on channel=6 note=59 velocity=100 time=0.11160624999999998
EXTRACT: note_off channel=2 note=64 velocity=100 time=0.013020729166666665
EXTRACT: note_off channel=2 note=67 velocity=100 time=0
EXTRACT: note_on channel=9 note=54 velocity=127 time=0.024181354166666662
EXTRACT: note_on channel=2 note=62 velocity=100 time=0.011160624999999999
EXTRACT: note_off channel=9 note=54 velocity=127 time=0.018601041666666665
EXTRACT: note_off channel=6 note=59 velocity=100 time=0.11160624999999998
EXTRACT: note_on channel=6 note=62 velocity=100 time=0.013020729166666665
EXTRACT: note_on channel=2 note=62 velocity=100 time=0.016740937499999997
EXTRACT: note_off channel=1 note=62 velocity=100 time=0.0074404166666666655
EXTRACT: note_off channel=1 note=59 velocity=100 time=0
EXTRACT: note_off channel=1 note=55 velocity=100 time=0
EXTRACT: note_off channel=1 note=50 velocity=100 time=0
EXTRACT: note_off channel=1 note=43 velocity=100 time=0
EXTRACT: note_on channel=1 note=43 velocity=100 time=0
EXTRACT: note_on channel=1 note=50 velocity=100 time=0
EXTRACT: note_on channel=1 note=55 velocity=100 time=0
EXTRACT: note_on channel=1 note=59 velocity=100 time=0
EXTRACT: note_on channel=1 note=62 velocity=100 time=0
EXTRACT: note_off channel=5 note=31 velocity=100 time=0
EXTRACT: note_on channel=5 note=31 velocity=100 time=0
EXTRACT: note_on channel=9 note=38 velocity=127 time=0
EXTRACT: note_on channel=9 note=54 velocity=127 time=0
EXTRACT: note_on channel=9 note=51 velocity=127 time=0
EXTRACT: note_off channel=2 note=62 velocity=100 time=0.011160624999999999
EXTRACT: note_off channel=9 note=51 velocity=127 time=0.018601041666666665
EXTRACT: note_off channel=9 note=54 velocity=127 time=0
EXTRACT: note_off channel=9 note=38 velocity=127 time=0
EXTRACT: note_on channel=9 note=54 velocity=127 time=0.14880833333333332
EXTRACT: note_off channel=9 note=54 velocity=127 time=0.029761666666666662
EXTRACT: note_off channel=6 note=62 velocity=100 time=0.12462697916666665
EXTRACT: note_on channel=6 note=64 velocity=100 time=0
EXTRACT: note_off channel=2 note=62 velocity=100 time=0.016740937499999997
EXTRACT: note_off channel=1 note=62 velocity=100 time=0.0074404166666666655
EXTRACT: note_off channel=1 note=59 velocity=100 time=0
EXTRACT: note_off channel=1 note=55 velocity=100 time=0
EXTRACT: note_off channel=1 note=50 velocity=100 time=0
EXTRACT: note_off channel=1 note=43 velocity=100 time=0
EXTRACT: note_on channel=1 note=43 velocity=100 time=0
EXTRACT: note_on channel=1 note=50 velocity=100 time=0
EXTRACT: note_on channel=1 note=55 velocity=100 time=0
EXTRACT: note_on channel=1 note=59 velocity=100 time=0
EXTRACT: note_on channel=1 note=62 velocity=100 time=0
EXTRACT: note_on channel=2 note=62 velocity=100 time=0
EXTRACT: note_off channel=5 note=31 velocity=100 time=0
EXTRACT: note_on channel=5 note=35 velocity=100 time=0
EXTRACT: note_on channel=9 note=54 velocity=127 time=0
EXTRACT: note_on channel=9 note=51 velocity=127 time=0
EXTRACT: note_off channel=9 note=51 velocity=127 time=0.029761666666666662
EXTRACT: note_off channel=9 note=54 velocity=127 time=0
EXTRACT: note_off channel=6 note=64 velocity=100 time=0.12462697916666665
EXTRACT: note_on channel=6 note=60 velocity=100 time=0.011160624999999999
EXTRACT: note_off channel=2 note=62 velocity=100 time=0.013020729166666665
EXTRACT: note_on channel=9 note=38 velocity=127 time=0
EXTRACT: note_on channel=9 note=54 velocity=127 time=0
EXTRACT: note_off channel=9 note=54 velocity=127 time=0.029761666666666662
EXTRACT: note_off channel=9 note=38 velocity=127 time=0
EXTRACT: note_off channel=1 note=62 velocity=100 time=0.14880833333333332
EXTRACT: note_off channel=1 note=59 velocity=100 time=0
EXTRACT: note_off channel=1 note=55 velocity=100 time=0
EXTRACT: note_off channel=1 note=50 velocity=100 time=0
EXTRACT: note_off channel=1 note=43 velocity=100 time=0
EXTRACT: note_on channel=1 note=48 velocity=100 time=0
EXTRACT: note_on channel=1 note=52 velocity=100 time=0
EXTRACT: note_on channel=1 note=55 velocity=100 time=0
EXTRACT: note_on channel=1 note=60 velocity=100 time=0
EXTRACT: note_on channel=1 note=64 velocity=100 time=0
EXTRACT: note_on channel=2 note=60 velocity=100 time=0
EXTRACT: note_off channel=5 note=35 velocity=100 time=0
EXTRACT: note_on channel=5 note=36 velocity=100 time=0
EXTRACT: note_on channel=9 note=35 velocity=127 time=0
EXTRACT: note_on channel=9 note=36 velocity=127 time=0
EXTRACT: note_on channel=9 note=54 velocity=127 time=0
EXTRACT: note_on channel=9 note=51 velocity=127 time=0
EXTRACT: note_off channel=9 note=51 velocity=127 time=0.029761666666666662
EXTRACT: note_off channel=9 note=54 velocity=127 time=0
EXTRACT: note_off channel=9 note=36 velocity=127 time=0
EXTRACT: note_off channel=9 note=35 velocity=127 time=0
EXTRACT: note_on channel=9 note=38 velocity=127 time=0.14880833333333332
EXTRACT: note_on channel=9 note=54 velocity=127 time=0
EXTRACT: note_off channel=9 note=54 velocity=127 time=0.029761666666666662
EXTRACT: note_off channel=9 note=38 velocity=127 time=0
EXTRACT: note_off channel=2 note=60 velocity=100 time=0.14880833333333332
EXTRACT: note_on channel=9 note=35 velocity=127 time=0
EXTRACT: note_on channel=9 note=36 velocity=127 time=0
EXTRACT: note_on channel=9 note=54 velocity=127 time=0
EXTRACT: note_on channel=9 note=51 velocity=127 time=0
EXTRACT: note_on channel=2 note=62 velocity=100 time=0.022321249999999997
EXTRACT: note_off channel=9 note=51 velocity=127 time=0.0074404166666666655
EXTRACT: note_off channel=9 note=54 velocity=127 time=0
EXTRACT: note_off channel=9 note=36 velocity=127 time=0
EXTRACT: note_off channel=9 note=35 velocity=127 time=0
EXTRACT: note_on channel=9 note=54 velocity=127 time=0.14880833333333332
EXTRACT: note_off channel=9 note=54 velocity=127 time=0.029761666666666662
EXTRACT: note_off channel=1 note=64 velocity=100 time=0.14880833333333332
EXTRACT: note_off channel=1 note=60 velocity=100 time=0
EXTRACT: note_off channel=1 note=55 velocity=100 time=0
EXTRACT: note_off channel=1 note=52 velocity=100 time=0
EXTRACT: note_off channel=1 note=48 velocity=100 time=0
EXTRACT: note_on channel=1 note=48 velocity=100 time=0
EXTRACT: note_on channel=1 note=52 velocity=100 time=0
EXTRACT: note_on channel=1 note=55 velocity=100 time=0
EXTRACT: note_on channel=1 note=60 velocity=100 time=0
EXTRACT: note_on channel=1 note=64 velocity=100 time=0
EXTRACT: pitchwheel channel=2 pitch=-7936 time=0
EXTRACT: note_on channel=2 note=64 velocity=100 time=0
EXTRACT: note_off channel=5 note=36 velocity=100 time=0
EXTRACT: note_on channel=5 note=36 velocity=100 time=0
EXTRACT: note_on channel=9 note=38 velocity=127 time=0
EXTRACT: note_on channel=9 note=54 velocity=127 time=0
EXTRACT: note_on channel=9 note=51 velocity=127 time=0
EXTRACT: pitchwheel channel=2 pitch=-7552 time=0.011160624999999999
EXTRACT: note_off channel=2 note=62 velocity=100 time=0.011160624999999999
EXTRACT: pitchwheel channel=2 pitch=-7168 time=0
EXTRACT: note_off channel=9 note=51 velocity=127 time=0.0074404166666666655
EXTRACT: note_off channel=9 note=54 velocity=127 time=0
EXTRACT: note_off channel=9 note=38 velocity=127 time=0
EXTRACT: pitchwheel channel=2 pitch=-6784 time=0.005580312499999999
EXTRACT: pitchwheel channel=2 pitch=-6272 time=0.011160624999999999
EXTRACT: pitchwheel channel=2 pitch=-5888 time=0.013020729166666665
EXTRACT: pitchwheel channel=2 pitch=-5504 time=0.011160624999999999
EXTRACT: pitchwheel channel=2 pitch=-5120 time=0.011160624999999999
EXTRACT: pitchwheel channel=2 pitch=-4608 time=0.013020729166666665
EXTRACT: pitchwheel channel=2 pitch=-4224 time=0.011160624999999999
EXTRACT: pitchwheel channel=2 pitch=-3840 time=0.013020729166666665
EXTRACT: pitchwheel channel=2 pitch=-3456 time=0.011160624999999999
EXTRACT: pitchwheel channel=2 pitch=-2944 time=0.011160624999999999
EXTRACT: pitchwheel channel=2 pitch=-2560 time=0.013020729166666665
EXTRACT: pitchwheel channel=2 pitch=-2176 time=0.011160624999999999
EXTRACT: pitchwheel channel=2 pitch=-1792 time=0.013020729166666665
EXTRACT: note_on channel=9 note=54 velocity=127 time=0
EXTRACT: pitchwheel channel=2 pitch=-1280 time=0.011160624999999999
EXTRACT: pitchwheel channel=2 pitch=-896 time=0.011160624999999999
EXTRACT: note_off channel=9 note=54 velocity=127 time=0.0074404166666666655
EXTRACT: pitchwheel channel=2 pitch=-512 time=0.005580312499999999
EXTRACT: pitchwheel channel=2 pitch=0 time=0.011160624999999999
EXTRACT: note_off channel=1 note=64 velocity=100 time=0.13206739583333332
EXTRACT: note_off channel=1 note=60 velocity=100 time=0
EXTRACT: note_off channel=1 note=55 velocity=100 time=0
EXTRACT: note_off channel=1 note=52 velocity=100 time=0
EXTRACT: note_off channel=1 note=48 velocity=100 time=0
EXTRACT: note_on channel=1 note=48 velocity=100 time=0
EXTRACT: note_on channel=1 note=52 velocity=100 time=0
EXTRACT: note_on channel=1 note=55 velocity=100 time=0
EXTRACT: note_on channel=1 note=60 velocity=100 time=0
EXTRACT: note_on channel=1 note=64 velocity=100 time=0
EXTRACT: note_off channel=5 note=36 velocity=100 time=0
EXTRACT: note_on channel=5 note=36 velocity=100 time=0
EXTRACT: note_on channel=9 note=54 velocity=127 time=0
EXTRACT: note_on channel=9 note=51 velocity=127 time=0
EXTRACT: note_off channel=9 note=51 velocity=127 time=0.029761666666666662
EXTRACT: note_off channel=9 note=54 velocity=127 time=0
EXTRACT: note_off channel=6 note=60 velocity=100 time=0.13578760416666666
EXTRACT: note_on channel=9 note=38 velocity=127 time=0.013020729166666665
EXTRACT: note_on channel=9 note=54 velocity=127 time=0
EXTRACT: note_off channel=9 note=54 velocity=127 time=0.029761666666666662
EXTRACT: note_off channel=9 note=38 velocity=127 time=0
EXTRACT: note_on channel=2 note=62 velocity=100 time=0.10602593749999999
EXTRACT: note_off channel=1 note=64 velocity=100 time=0.04278239583333333
EXTRACT: note_off channel=1 note=60 velocity=100 time=0
EXTRACT: note_off channel=1 note=55 velocity=100 time=0
EXTRACT: note_off channel=1 note=52 velocity=100 time=0
EXTRACT: note_off channel=1 note=48 velocity=100 time=0
EXTRACT: note_on channel=1 note=45 velocity=100 time=0
EXTRACT: note_on channel=1 note=52 velocity=100 time=0
EXTRACT: note_on channel=1 note=57 velocity=100 time=0
EXTRACT: note_on channel=1 note=60 velocity=100 time=0
EXTRACT: note_on channel=1 note=64 velocity=100 time=0
EXTRACT: note_off channel=2 note=64 velocity=100 time=0
EXTRACT: note_off channel=5 note=36 velocity=100 time=0
EXTRACT: note_on channel=5 note=33 velocity=100 time=0
EXTRACT: note_on channel=9 note=35 velocity=127 time=0
EXTRACT: note_on channel=9 note=36 velocity=127 time=0
EXTRACT: note_on channel=9 note=54 velocity=127 time=0
EXTRACT: note_on channel=9 note=51 velocity=127 time=0
EXTRACT: note_off channel=9 note=51 velocity=127 time=0.029761666666666662
EXTRACT: note_off channel=9 note=54 velocity=127 time=0
EXTRACT: note_off channel=9 note=36 velocity=127 time=0
EXTRACT: note_off channel=9 note=35 velocity=127 time=0
EXTRACT: note_off channel=2 note=62 velocity=100 time=0.10602593749999999
EXTRACT: note_on channel=2 note=60 velocity=100 time=0.04278239583333333
EXTRACT: note_on channel=9 note=38 velocity=127 time=0
EXTRACT: note_on channel=9 note=54 velocity=127 time=0
EXTRACT: note_off channel=9 note=54 velocity=127 time=0.029761666666666662
EXTRACT: note_off channel=9 note=38 velocity=127 time=0
EXTRACT: note_on channel=9 note=38 velocity=127 time=0.059523333333333324
EXTRACT: note_off channel=9 note=38 velocity=127 time=0.029761666666666662
EXTRACT: note_off channel=1 note=64 velocity=100 time=0.059523333333333324
EXTRACT: note_off channel=1 note=60 velocity=100 time=0
EXTRACT: note_off channel=1 note=57 velocity=100 time=0
EXTRACT: note_off channel=1 note=52 velocity=100 time=0
EXTRACT: note_off channel=1 note=45 velocity=100 time=0
EXTRACT: note_on channel=1 note=45 velocity=100 time=0
EXTRACT: note_on channel=1 note=52 velocity=100 time=0
EXTRACT: note_on channel=1 note=57 velocity=100 time=0
EXTRACT: note_on channel=1 note=60 velocity=100 time=0
EXTRACT: note_on channel=1 note=64 velocity=100 time=0
EXTRACT: note_off channel=2 note=60 velocity=100 time=0
EXTRACT: note_on channel=2 note=57 velocity=100 time=0
EXTRACT: note_off channel=5 note=33 velocity=100 time=0
EXTRACT: note_on channel=5 note=33 velocity=100 time=0
EXTRACT: note_on channel=9 note=38 velocity=127 time=0
EXTRACT: note_on channel=9 note=54 velocity=127 time=0
EXTRACT: note_off channel=9 note=54 velocity=127 time=0.029761666666666662
EXTRACT: note_off channel=9 note=38 velocity=127 time=0
EXTRACT: note_off channel=1 note=64 velocity=100 time=0.14880833333333332
EXTRACT: note_off channel=1 note=60 velocity=100 time=0
EXTRACT: note_off channel=1 note=57 velocity=100 time=0
EXTRACT: note_off channel=1 note=52 velocity=100 time=0
EXTRACT: note_off channel=1 note=45 velocity=100 time=0
EXTRACT: note_on channel=1 note=45 velocity=100 time=0
EXTRACT: note_on channel=1 note=52 velocity=100 time=0
EXTRACT: note_on channel=1 note=57 velocity=100 time=0
EXTRACT: note_on channel=1 note=60 velocity=100 time=0
EXTRACT: note_on channel=1 note=64 velocity=100 time=0
EXTRACT: note_on channel=9 note=47 velocity=127 time=0
EXTRACT: note_on channel=9 note=54 velocity=127 time=0
EXTRACT: note_off channel=9 note=54 velocity=127 time=0.029761666666666662
EXTRACT: note_off channel=9 note=47 velocity=127 time=0
EXTRACT: note_on channel=9 note=47 velocity=127 time=0.059523333333333324
EXTRACT: note_off channel=9 note=47 velocity=127 time=0.029761666666666662
EXTRACT: note_off channel=1 note=64 velocity=100 time=0.059523333333333324
EXTRACT: note_off channel=1 note=60 velocity=100 time=0
EXTRACT: note_off channel=1 note=57 velocity=100 time=0
EXTRACT: note_off channel=1 note=52 velocity=100 time=0
EXTRACT: note_off channel=1 note=45 velocity=100 time=0
EXTRACT: note_on channel=1 note=43 velocity=100 time=0
EXTRACT: note_on channel=1 note=50 velocity=100 time=0
EXTRACT: note_on channel=1 note=55 velocity=100 time=0
EXTRACT: note_on channel=1 note=59 velocity=100 time=0
EXTRACT: note_on channel=1 note=67 velocity=100 time=0
EXTRACT: note_off channel=2 note=57 velocity=100 time=0
EXTRACT: note_on channel=2 note=60 velocity=100 time=0
EXTRACT: note_off channel=5 note=33 velocity=100 time=0
EXTRACT: note_on channel=5 note=31 velocity=100 time=0
EXTRACT: note_on channel=9 note=47 velocity=127 time=0
EXTRACT: note_on channel=9 note=54 velocity=127 time=0
EXTRACT: note_off channel=9 note=54 velocity=127 time=0.029761666666666662
EXTRACT: note_off channel=9 note=47 velocity=127 time=0
EXTRACT: note_on channel=9 note=45 velocity=127 time=0.14880833333333332
EXTRACT: note_on channel=9 note=54 velocity=127 time=0
EXTRACT: note_off channel=9 note=54 velocity=127 time=0.029761666666666662
EXTRACT: note_off channel=9 note=45 velocity=127 time=0
EXTRACT: note_on channel=9 note=45 velocity=127 time=0.059523333333333324
EXTRACT: note_off channel=9 note=45 velocity=127 time=0.029761666666666662
EXTRACT: note_on channel=9 note=45 velocity=127 time=0.029761666666666662
EXTRACT: note_off channel=1 note=67 velocity=100 time=0.029761666666666662
EXTRACT: note_off channel=1 note=59 velocity=100 time=0
EXTRACT: note_off channel=1 note=55 velocity=100 time=0
EXTRACT: note_off channel=1 note=50 velocity=100 time=0
EXTRACT: note_off channel=1 note=43 velocity=100 time=0
EXTRACT: note_on channel=1 note=43 velocity=100 time=0
EXTRACT: note_on channel=1 note=50 velocity=100 time=0
EXTRACT: note_on channel=1 note=55 velocity=100 time=0
EXTRACT: note_on channel=1 note=59 velocity=100 time=0
EXTRACT: note_on channel=1 note=67 velocity=100 time=0
EXTRACT: note_off channel=2 note=60 velocity=100 time=0
EXTRACT: note_on channel=2 note=60 velocity=100 time=0
EXTRACT: note_off channel=5 note=31 velocity=100 time=0
EXTRACT: note_on channel=5 note=35 velocity=100 time=0
EXTRACT: note_off channel=9 note=45 velocity=127 time=0
EXTRACT: note_on channel=9 note=54 velocity=127 time=0
EXTRACT: note_off channel=9 note=54 velocity=127 time=0.029761666666666662
EXTRACT: note_on channel=9 note=43 velocity=127 time=0.11904666666666665
EXTRACT: note_off channel=2 note=60 velocity=100 time=0.029761666666666662
EXTRACT: note_on channel=2 note=62 velocity=100 time=0
EXTRACT: note_off channel=9 note=43 velocity=127 time=0
EXTRACT: note_on channel=9 note=54 velocity=127 time=0
EXTRACT: note_off channel=9 note=54 velocity=127 time=0.029761666666666662
EXTRACT: note_on channel=9 note=43 velocity=127 time=0.029761666666666662
EXTRACT: note_off channel=9 note=43 velocity=127 time=0.029761666666666662
EXTRACT: note_off channel=1 note=67 velocity=100 time=0.08928499999999999
EXTRACT: note_off channel=1 note=59 velocity=100 time=0
EXTRACT: note_off channel=1 note=55 velocity=100 time=0
EXTRACT: note_off channel=1 note=50 velocity=100 time=0
EXTRACT: note_off channel=1 note=43 velocity=100 time=0
EXTRACT: note_on channel=1 note=48 velocity=100 time=0
EXTRACT: note_on channel=1 note=52 velocity=100 time=0
EXTRACT: note_on channel=1 note=55 velocity=100 time=0
EXTRACT: note_on channel=1 note=60 velocity=100 time=0
EXTRACT: note_on channel=1 note=64 velocity=100 time=0
EXTRACT: note_off channel=2 note=62 velocity=100 time=0
EXTRACT: note_on channel=2 note=60 velocity=100 time=0
EXTRACT: note_off channel=5 note=35 velocity=100 time=0
EXTRACT: note_on channel=5 note=36 velocity=100 time=0
EXTRACT: note_on channel=6 note=67 velocity=100 time=0
EXTRACT: note_on channel=9 note=35 velocity=127 time=0
EXTRACT: note_on channel=9 note=36 velocity=127 time=0
EXTRACT: note_on channel=9 note=54 velocity=127 time=0
EXTRACT: note_on channel=9 note=49 velocity=127 time=0
EXTRACT: note_off channel=9 note=49 velocity=127 time=0.029761666666666662
EXTRACT: note_off channel=9 note=54 velocity=127 time=0
EXTRACT: note_off channel=9 note=36 velocity=127 time=0
EXTRACT: note_off channel=9 note=35 velocity=127 time=0
EXTRACT: pitchwheel channel=2 pitch=1152 time=0.08928499999999999
EXTRACT: pitchwheel channel=2 pitch=-640 time=0.011160624999999999
EXTRACT: pitchwheel channel=2 pitch=-896 time=0.011160624999999999
EXTRACT: pitchwheel channel=2 pitch=-768 time=0.03720208333333333
EXTRACT: note_on channel=9 note=54 velocity=127 time=0
EXTRACT: pitchwheel channel=2 pitch=0 time=0.022321249999999997
EXTRACT: note_off channel=9 note=54 velocity=127 time=0.0074404166666666655
EXTRACT: pitchwheel channel=2 pitch=1536 time=0.005580312499999999
EXTRACT: pitchwheel channel=2 pitch=-1792 time=0.011160624999999999
EXTRACT: pitchwheel channel=2 pitch=-2048 time=0.013020729166666665
EXTRACT: pitchwheel channel=2 pitch=-2304 time=0.011160624999999999
EXTRACT: pitchwheel channel=2 pitch=-1536 time=0.09486531249999998
EXTRACT: note_on channel=9 note=54 velocity=127 time=0.013020729166666665
EXTRACT: note_on channel=9 note=51 velocity=127 time=0
EXTRACT: note_off channel=9 note=51 velocity=127 time=0.029761666666666662
EXTRACT: note_off channel=9 note=54 velocity=127 time=0
EXTRACT: pitchwheel channel=2 pitch=-512 time=0.029761666666666662
EXTRACT: pitchwheel channel=2 pitch=256 time=0.022321249999999997
EXTRACT: pitchwheel channel=2 pitch=1024 time=0.013020729166666665
EXTRACT: pitchwheel channel=2 pitch=384 time=0.011160624999999999
EXTRACT: pitchwheel channel=2 pitch=256 time=0.013020729166666665
EXTRACT: pitchwheel channel=2 pitch=1408 time=0.011160624999999999
EXTRACT: note_on channel=9 note=54 velocity=127 time=0.048362708333333324
EXTRACT: pitchwheel channel=2 pitch=2176 time=0.022321249999999997
EXTRACT: note_off channel=9 note=54 velocity=127 time=0.0074404166666666655
EXTRACT: pitchwheel channel=2 pitch=-512 time=0.005580312499999999
EXTRACT: pitchwheel channel=2 pitch=-256 time=0.07068395833333332
EXTRACT: pitchwheel channel=2 pitch=0 time=0.013020729166666665
EXTRACT: pitchwheel channel=2 pitch=-640 time=0.011160624999999999
EXTRACT: note_off channel=1 note=64 velocity=100 time=0.048362708333333324
EXTRACT: note_off channel=1 note=60 velocity=100 time=0
EXTRACT: note_off channel=1 note=55 velocity=100 time=0
EXTRACT: note_off channel=1 note=52 velocity=100 time=0
EXTRACT: note_off channel=1 note=48 velocity=100 time=0
EXTRACT: note_on channel=1 note=48 velocity=100 time=0
EXTRACT: note_on channel=1 note=52 velocity=100 time=0
EXTRACT: note_on channel=1 note=55 velocity=100 time=0
EXTRACT: note_on channel=1 note=60 velocity=100 time=0
EXTRACT: note_on channel=1 note=64 velocity=100 time=0
EXTRACT: note_off channel=5 note=36 velocity=100 time=0
EXTRACT: note_on channel=5 note=36 velocity=100 time=0
EXTRACT: note_on channel=9 note=38 velocity=127 time=0
EXTRACT: note_on channel=9 note=54 velocity=127 time=0
EXTRACT: note_on channel=9 note=51 velocity=127 time=0
EXTRACT: note_off channel=9 note=51 velocity=127 time=0.029761666666666662
EXTRACT: note_off channel=9 note=54 velocity=127 time=0
EXTRACT: note_off channel=9 note=38 velocity=127 time=0
EXTRACT: pitchwheel channel=2 pitch=-384 time=0.06510364583333332
EXTRACT: pitchwheel channel=2 pitch=640 time=0.024181354166666662
EXTRACT: note_on channel=9 note=54 velocity=127 time=0.059523333333333324
EXTRACT: pitchwheel channel=2 pitch=-128 time=0.011160624999999999
EXTRACT: pitchwheel channel=2 pitch=640 time=0.011160624999999999
EXTRACT: note_off channel=9 note=54 velocity=127 time=0.0074404166666666655
EXTRACT: pitchwheel channel=2 pitch=1408 time=0.016740937499999997
EXTRACT: pitchwheel channel=2 pitch=640 time=0.03534197916666666
EXTRACT: pitchwheel channel=2 pitch=512 time=0.013020729166666665
EXTRACT: pitchwheel channel=2 pitch=256 time=0.011160624999999999
EXTRACT: pitchwheel channel=2 pitch=0 time=0.013020729166666665
EXTRACT: note_off channel=1 note=64 velocity=100 time=0.059523333333333324
EXTRACT: note_off channel=1 note=60 velocity=100 time=0
EXTRACT: note_off channel=1 note=55 velocity=100 time=0
EXTRACT: note_off channel=1 note=52 velocity=100 time=0
EXTRACT: note_off channel=1 note=48 velocity=100 time=0
EXTRACT: note_on channel=1 note=48 velocity=100 time=0
EXTRACT: note_on channel=1 note=52 velocity=100 time=0
EXTRACT: note_on channel=1 note=55 velocity=100 time=0
EXTRACT: note_on channel=1 note=60 velocity=100 time=0
EXTRACT: note_on channel=1 note=64 velocity=100 time=0
EXTRACT: note_off channel=2 note=60 velocity=100 time=0
EXTRACT: note_on channel=2 note=60 velocity=100 time=0
EXTRACT: note_off channel=5 note=36 velocity=100 time=0
EXTRACT: note_on channel=5 note=35 velocity=100 time=0
EXTRACT: note_on channel=9 note=54 velocity=127 time=0
EXTRACT: note_on channel=9 note=51 velocity=127 time=0
EXTRACT: note_off channel=9 note=51 velocity=127 time=0.029761666666666662
EXTRACT: note_off channel=9 note=54 velocity=127 time=0
EXTRACT: note_off channel=2 note=60 velocity=100 time=0.14880833333333332
EXTRACT: note_on channel=9 note=38 velocity=127 time=0
EXTRACT: note_on channel=9 note=54 velocity=127 time=0
EXTRACT: note_on channel=2 note=60 velocity=100 time=0.022321249999999997
EXTRACT: note_off channel=9 note=54 velocity=127 time=0.0074404166666666655
EXTRACT: note_off channel=9 note=38 velocity=127 time=0
EXTRACT: note_on channel=2 note=60 velocity=100 time=0.12462697916666665
EXTRACT: note_on channel=6 note=65 velocity=100 time=0.011160624999999999
EXTRACT: note_off channel=1 note=64 velocity=100 time=0.013020729166666665
EXTRACT: note_off channel=1 note=60 velocity=100 time=0
EXTRACT: note_off channel=1 note=55 velocity=100 time=0
EXTRACT: note_off channel=1 note=52 velocity=100 time=0
EXTRACT: note_off channel=1 note=48 velocity=100 time=0
EXTRACT: note_on channel=1 note=43 velocity=100 time=0
EXTRACT: note_on channel=1 note=50 velocity=100 time=0
EXTRACT: note_on channel=1 note=55 velocity=100 time=0
EXTRACT: note_on channel=1 note=59 velocity=100 time=0
EXTRACT: note_on channel=1 note=67 velocity=100 time=0
EXTRACT: note_off channel=5 note=35 velocity=100 time=0
EXTRACT: note_on channel=5 note=31 velocity=100 time=0
EXTRACT: note_off channel=6 note=67 velocity=100 time=0
EXTRACT: note_on channel=9 note=35 velocity=127 time=0
EXTRACT: note_on channel=9 note=36 velocity=127 time=0
EXTRACT: note_on channel=9 note=54 velocity=127 time=0
EXTRACT: note_on channel=9 note=51 velocity=127 time=0
EXTRACT: note_off channel=2 note=60 velocity=100 time=0.022321249999999997
EXTRACT: note_off channel=9 note=51 velocity=127 time=0.0074404166666666655
EXTRACT: note_off channel=9 note=54 velocity=127 time=0
EXTRACT: note_off channel=9 note=36 velocity=127 time=0
EXTRACT: note_off channel=9 note=35 velocity=127 time=0
EXTRACT: note_on channel=9 note=38 velocity=127 time=0.14880833333333332
EXTRACT: note_on channel=9 note=54 velocity=127 time=0
EXTRACT: note_off channel=9 note=54 velocity=127 time=0.029761666666666662
EXTRACT: note_off channel=9 note=38 velocity=127 time=0
EXTRACT: note_off channel=2 note=60 velocity=100 time=0.12462697916666665
EXTRACT: note_off channel=6 note=65 velocity=100 time=0.011160624999999999
EXTRACT: note_on channel=6 note=67 velocity=100 time=0
EXTRACT: note_on channel=2 note=62 velocity=100 time=0.013020729166666665
EXTRACT: note_off channel=5 note=31 velocity=100 time=0
EXTRACT: note_on channel=5 note=31 velocity=100 time=0
EXTRACT: note_on channel=9 note=35 velocity=127 time=0
EXTRACT: note_on channel=9 note=36 velocity=127 time=0
EXTRACT: note_on channel=9 note=54 velocity=127 time=0
EXTRACT: note_on channel=9 note=51 velocity=127 time=0
EXTRACT: note_off channel=9 note=51 velocity=127 time=0.029761666666666662
EXTRACT: note_off channel=9 note=54 velocity=127 time=0
EXTRACT: note_off channel=9 note=36 velocity=127 time=0
EXTRACT: note_off channel=9 note=35 velocity=127 time=0
EXTRACT: note_on channel=9 note=54 velocity=127 time=0.14880833333333332
EXTRACT: note_off channel=9 note=54 velocity=127 time=0.029761666666666662
EXTRACT: note_on channel=6 note=65 velocity=100 time=0.12462697916666665
EXTRACT: note_off channel=6 note=67 velocity=100 time=0.011160624999999999
EXTRACT: note_off channel=1 note=67 velocity=100 time=0.013020729166666665
EXTRACT: note_off channel=1 note=59 velocity=100 time=0
EXTRACT: note_off channel=1 note=55 velocity=100 time=0
EXTRACT: note_off channel=1 note=50 velocity=100 time=0
EXTRACT: note_off channel=1 note=43 velocity=100 time=0
EXTRACT: note_on channel=1 note=43 velocity=100 time=0
EXTRACT: note_on channel=1 note=50 velocity=100 time=0
EXTRACT: note_on channel=1 note=55 velocity=100 time=0
EXTRACT: note_on channel=1 note=59 velocity=100 time=0
EXTRACT: note_on channel=1 note=67 velocity=100 time=0
EXTRACT: note_off channel=2 note=62 velocity=100 time=0
EXTRACT: note_on channel=2 note=64 velocity=100 time=0
EXTRACT: note_off channel=5 note=31 velocity=100 time=0
EXTRACT: note_on channel=5 note=31 velocity=100 time=0
EXTRACT: note_on channel=9 note=38 velocity=127 time=0
EXTRACT: note_on channel=9 note=54 velocity=127 time=0
EXTRACT: note_on channel=9 note=51 velocity=127 time=0
EXTRACT: note_off channel=9 note=51 velocity=127 time=0.029761666666666662
EXTRACT: note_off channel=9 note=54 velocity=127 time=0
EXTRACT: note_off channel=9 note=38 velocity=127 time=0
EXTRACT: note_on channel=9 note=54 velocity=127 time=0.14880833333333332
EXTRACT: note_off channel=9 note=54 velocity=127 time=0.029761666666666662
EXTRACT: note_off channel=6 note=65 velocity=100 time=0.12462697916666665
EXTRACT: note_off channel=1 note=67 velocity=100 time=0.024181354166666662
EXTRACT: note_off channel=1 note=59 velocity=100 time=0
EXTRACT: note_off channel=1 note=55 velocity=100 time=0
EXTRACT: note_off channel=1 note=50 velocity=100 time=0
EXTRACT: note_off channel=1 note=43 velocity=100 time=0
EXTRACT: note_on channel=1 note=43 velocity=100 time=0
EXTRACT: note_on channel=1 note=50 velocity=100 time=0
EXTRACT: note_on channel=1 note=55 velocity=100 time=0
EXTRACT: note_on channel=1 note=59 velocity=100 time=0
EXTRACT: note_on channel=1 note=67 velocity=100 time=0
EXTRACT: note_off channel=2 note=64 velocity=100 time=0
EXTRACT: note_off channel=5 note=31 velocity=100 time=0
EXTRACT: note_on channel=5 note=31 velocity=100 time=0
EXTRACT: note_on channel=6 note=64 velocity=100 time=0
EXTRACT: note_on channel=9 note=54 velocity=127 time=0
EXTRACT: note_on channel=9 note=51 velocity=127 time=0
EXTRACT: note_on channel=2 note=67 velocity=100 time=0.011160624999999999
EXTRACT: note_off channel=9 note=51 velocity=127 time=0.018601041666666665
EXTRACT: note_off channel=9 note=54 velocity=127 time=0
EXTRACT: note_off channel=5 note=31 velocity=100 time=0.14880833333333332
EXTRACT: note_on channel=5 note=32 velocity=100 time=0
EXTRACT: note_on channel=9 note=38 velocity=127 time=0
EXTRACT: note_on channel=9 note=54 velocity=127 time=0
EXTRACT: note_off channel=9 note=54 velocity=127 time=0.029761666666666662
EXTRACT: note_off channel=9 note=38 velocity=127 time=0
EXTRACT: note_on channel=9 note=38 velocity=127 time=0.029761666666666662
EXTRACT: note_off channel=9 note=38 velocity=127 time=0.029761666666666662
EXTRACT: note_off channel=1 note=67 velocity=100 time=0.08928499999999999
EXTRACT: note_off channel=1 note=59 velocity=100 time=0
EXTRACT: note_off channel=1 note=55 velocity=100 time=0
EXTRACT: note_off channel=1 note=50 velocity=100 time=0
EXTRACT: note_off channel=1 note=43 velocity=100 time=0
EXTRACT: note_on channel=1 note=45 velocity=100 time=0
EXTRACT: note_on channel=1 note=52 velocity=100 time=0
EXTRACT: note_on channel=1 note=57 velocity=100 time=0
EXTRACT: note_on channel=1 note=60 velocity=100 time=0
EXTRACT: note_on channel=1 note=64 velocity=100 time=0
EXTRACT: note_off channel=5 note=32 velocity=100 time=0
EXTRACT: note_on channel=5 note=33 velocity=100 time=0
EXTRACT: note_on channel=9 note=35 velocity=127 time=0
EXTRACT: note_on channel=9 note=36 velocity=127 time=0
EXTRACT: note_on channel=9 note=54 velocity=127 time=0
EXTRACT: note_on channel=9 note=51 velocity=127 time=0
EXTRACT: note_off channel=9 note=51 velocity=127 time=0.029761666666666662
EXTRACT: note_off channel=9 note=54 velocity=127 time=0
EXTRACT: note_off channel=9 note=36 velocity=127 time=0
EXTRACT: note_off channel=9 note=35 velocity=127 time=0
EXTRACT: pitchwheel channel=2 pitch=128 time=0.016740937499999997
EXTRACT: pitchwheel channel=2 pitch=768 time=0.024181354166666662
EXTRACT: pitchwheel channel=2 pitch=1024 time=0.011160624999999999
EXTRACT: pitchwheel channel=2 pitch=1280 time=0.013020729166666665
EXTRACT: pitchwheel channel=2 pitch=1408 time=0.024181354166666662
EXTRACT: pitchwheel channel=2 pitch=-1664 time=0.011160624999999999
EXTRACT: note_on channel=9 note=54 velocity=127 time=0.048362708333333324
EXTRACT: note_off channel=9 note=54 velocity=127 time=0.029761666666666662
EXTRACT: pitchwheel channel=2 pitch=-896 time=0.05208291666666666
EXTRACT: pitchwheel channel=2 pitch=-1024 time=0.024181354166666662
EXTRACT: pitchwheel channel=2 pitch=0 time=0.07254406249999999
EXTRACT: note_on channel=9 note=54 velocity=127 time=0
EXTRACT: note_on channel=9 note=51 velocity=127 time=0
EXTRACT: note_off channel=9 note=51 velocity=127 time=0.029761666666666662
EXTRACT: note_off channel=9 note=54 velocity=127 time=0
EXTRACT: pitchwheel channel=2 pitch=1280 time=0.04092229166666666
EXTRACT: pitchwheel channel=2 pitch=2304 time=0.024181354166666662
EXTRACT: pitchwheel channel=2 pitch=768 time=0.011160624999999999
EXTRACT: pitchwheel channel=2 pitch=1536 time=0.07254406249999999
EXTRACT: note_on channel=9 note=54 velocity=127 time=0
EXTRACT: note_off channel=9 note=54 velocity=127 time=0.029761666666666662
EXTRACT: pitchwheel channel=2 pitch=1024 time=0.04092229166666666
EXTRACT: pitchwheel channel=2 pitch=1792 time=0.07068395833333332
EXTRACT: pitchwheel channel=2 pitch=128 time=0.024181354166666662
EXTRACT: note_off channel=1 note=64 velocity=100 time=0.013020729166666665
EXTRACT: note_off channel=1 note=60 velocity=100 time=0
EXTRACT: note_off channel=1 note=57 velocity=100 time=0
EXTRACT: note_off channel=1 note=52 velocity=100 time=0
EXTRACT: note_off channel=1 note=45 velocity=100 time=0
EXTRACT: note_on channel=1 note=45 velocity=100 time=0
EXTRACT: note_on channel=1 note=52 velocity=100 time=0
EXTRACT: note_on channel=1 note=57 velocity=100 time=0
EXTRACT: note_on channel=1 note=60 velocity=100 time=0
EXTRACT: note_on channel=1 note=64 velocity=100 time=0
EXTRACT: note_off channel=5 note=33 velocity=100 time=0
EXTRACT: note_on channel=5 note=33 velocity=100 time=0
EXTRACT: note_off channel=6 note=64 velocity=100 time=0
EXTRACT: note_on channel=9 note=38 velocity=127 time=0
EXTRACT: note_on channel=9 note=54 velocity=127 time=0
EXTRACT: note_on channel=9 note=51 velocity=127 time=0
EXTRACT: pitchwheel channel=2 pitch=896 time=0.011160624999999999
EXTRACT: note_off channel=9 note=51 velocity=127 time=0.018601041666666665
EXTRACT: note_off channel=9 note=54 velocity=127 time=0
EXTRACT: note_off channel=9 note=38 velocity=127 time=0
EXTRACT: pitchwheel channel=2 pitch=-1024 time=0.005580312499999999
EXTRACT: pitchwheel channel=2 pitch=-256 time=0.07068395833333332
EXTRACT: note_on channel=9 note=54 velocity=127 time=0.07254406249999999
EXTRACT: pitchwheel channel=2 pitch=512 time=0.011160624999999999
EXTRACT: pitchwheel channel=2 pitch=1536 time=0.011160624999999999
EXTRACT: note_off channel=9 note=54 velocity=127 time=0.0074404166666666655
EXTRACT: pitchwheel channel=2 pitch=0 time=0.016740937499999997
EXTRACT: pitchwheel channel=2 pitch=256 time=0.013020729166666665
EXTRACT: pitchwheel channel=2 pitch=-768 time=0.07068395833333332
EXTRACT: pitchwheel channel=2 pitch=-640 time=0.011160624999999999
EXTRACT: note_on channel=2 note=60 velocity=100 time=0.013020729166666665
EXTRACT: pitchwheel channel=2 pitch=-384 time=0
EXTRACT: note_off channel=1 note=64 velocity=100 time=0.024181354166666662
EXTRACT: note_off channel=1 note=60 velocity=100 time=0
EXTRACT: note_off channel=1 note=57 velocity=100 time=0
EXTRACT: note_off channel=1 note=52 velocity=100 time=0
EXTRACT: note_off channel=1 note=45 velocity=100 time=0
EXTRACT: note_on channel=1 note=45 velocity=100 time=0
EXTRACT: note_on channel=1 note=52 velocity=100 time=0
EXTRACT: note_on channel=1 note=57 velocity=100 time=0
EXTRACT: note_on channel=1 note=60 velocity=100 time=0
EXTRACT: note_on channel=1 note=64 velocity=100 time=0
EXTRACT: pitchwheel channel=2 pitch=-896 time=0
EXTRACT: note_off channel=5 note=33 velocity=100 time=0
EXTRACT: note_on channel=5 note=31 velocity=100 time=0
EXTRACT: note_on channel=6 note=62 velocity=100 time=0
EXTRACT: note_on channel=9 note=54 velocity=127 time=0
EXTRACT: note_on channel=9 note=51 velocity=127 time=0
EXTRACT: note_off channel=2 note=67 velocity=100 time=0.011160624999999999
EXTRACT: pitchwheel channel=2 pitch=-640 time=0
EXTRACT: pitchwheel channel=2 pitch=-512 time=0.011160624999999999
EXTRACT: note_off channel=9 note=51 velocity=127 time=0.0074404166666666655
EXTRACT: note_off channel=9 note=54 velocity=127 time=0
EXTRACT: pitchwheel channel=2 pitch=-256 time=0.016740937499999997
EXTRACT: pitchwheel channel=2 pitch=0 time=0.013020729166666665
EXTRACT: note_off channel=2 note=60 velocity=100 time=0.09486531249999998
EXTRACT: note_on channel=9 note=38 velocity=127 time=0.024181354166666662
EXTRACT: note_on channel=9 note=54 velocity=127 time=0
EXTRACT: note_on channel=2 note=60 velocity=100 time=0.011160624999999999
EXTRACT: note_off channel=9 note=54 velocity=127 time=0.018601041666666665
EXTRACT: note_off channel=9 note=38 velocity=127 time=0
EXTRACT: note_off channel=1 note=64 velocity=100 time=0.14880833333333332
EXTRACT: note_off channel=1 note=60 velocity=100 time=0
EXTRACT: note_off channel=1 note=57 velocity=100 time=0
EXTRACT: note_off channel=1 note=52 velocity=100 time=0
EXTRACT: note_off channel=1 note=45 velocity=100 time=0
EXTRACT: note_on channel=1 note=40 velocity=100 time=0
EXTRACT: note_on channel=1 note=47 velocity=100 time=0
EXTRACT: note_on channel=1 note=52 velocity=100 time=0
EXTRACT: note_on channel=1 note=56 velocity=100 time=0
EXTRACT: note_on channel=1 note=59 velocity=100 time=0
EXTRACT: note_on channel=1 note=64 velocity=100 time=0
EXTRACT: note_off channel=5 note=31 velocity=100 time=0
EXTRACT: note_on channel=5 note=28 velocity=100 time=0
EXTRACT: note_off channel=6 note=62 velocity=100 time=0
EXTRACT: note_on channel=6 note=62 velocity=100 time=0
EXTRACT: note_on channel=9 note=35 velocity=127 time=0
EXTRACT: note_on channel=9 note=36 velocity=127 time=0
EXTRACT: note_on channel=9 note=54 velocity=127 time=0
EXTRACT: note_on channel=9 note=51 velocity=127 time=0
EXTRACT: note_off channel=2 note=60 velocity=100 time=0.011160624999999999
EXTRACT: note_on channel=2 note=60 velocity=100 time=0
EXTRACT: note_off channel=9 note=51 velocity=127 time=0.018601041666666665
EXTRACT: note_off channel=9 note=54 velocity=127 time=0
EXTRACT: note_off channel=9 note=36 velocity=127 time=0
EXTRACT: note_off channel=9 note=35 velocity=127 time=0
EXTRACT: note_on channel=9 note=38 velocity=127 time=0.14880833333333332
EXTRACT: note_on channel=9 note=54 velocity=127 time=0
EXTRACT: note_off channel=9 note=54 velocity=127 time=0.029761666666666662
EXTRACT: note_off channel=9 note=38 velocity=127 time=0
EXTRACT: note_on channel=6 note=64 velocity=100 time=0.12462697916666665
EXTRACT: note_on channel=2 note=62 velocity=100 time=0.011160624999999999
EXTRACT: note_off channel=5 note=28 velocity=100 time=0.013020729166666665
EXTRACT: note_on channel=5 note=28 velocity=100 time=0
EXTRACT: note_off channel=6 note=62 velocity=100 time=0
EXTRACT: note_on channel=9 note=35 velocity=127 time=0
EXTRACT: note_on channel=9 note=36 velocity=127 time=0
EXTRACT: note_on channel=9 note=54 velocity=127 time=0
EXTRACT: note_on channel=9 note=51 velocity=127 time=0
EXTRACT: note_off channel=2 note=60 velocity=100 time=0.011160624999999999
EXTRACT: note_off channel=9 note=51 velocity=127 time=0.018601041666666665
EXTRACT: note_off channel=9 note=54 velocity=127 time=0
EXTRACT: note_off channel=9 note=36 velocity=127 time=0
EXTRACT: note_off channel=9 note=35 velocity=127 time=0
EXTRACT: note_on channel=9 note=54 velocity=127 time=0.14880833333333332
EXTRACT: note_off channel=9 note=54 velocity=127 time=0.029761666666666662
EXTRACT: note_on channel=6 note=62 velocity=100 time=0.022321249999999997
EXTRACT: note_on channel=6 note=60 velocity=100 time=0.08370468749999999
EXTRACT: note_off channel=6 note=62 velocity=100 time=0.005580312499999999
EXTRACT: note_on channel=2 note=64 velocity=100 time=0.0074404166666666655
EXTRACT: note_off channel=6 note=64 velocity=100 time=0.005580312499999999
EXTRACT: note_off channel=2 note=62 velocity=100 time=0.011160624999999999
EXTRACT: note_off channel=1 note=64 velocity=100 time=0.013020729166666665
EXTRACT: note_off channel=1 note=59 velocity=100 time=0
EXTRACT: note_off channel=1 note=56 velocity=100 time=0
EXTRACT: note_off channel=1 note=52 velocity=100 time=0
EXTRACT: note_off channel=1 note=47 velocity=100 time=0
EXTRACT: note_off channel=1 note=40 velocity=100 time=0
EXTRACT: note_on channel=1 note=56 velocity=100 time=0
EXTRACT: note_on channel=1 note=40 velocity=100 time=0
EXTRACT: note_on channel=1 note=47 velocity=100 time=0
EXTRACT: note_on channel=1 note=52 velocity=100 time=0
EXTRACT: note_on channel=1 note=59 velocity=100 time=0
EXTRACT: note_on channel=1 note=64 velocity=100 time=0
EXTRACT: note_off channel=5 note=28 velocity=100 time=0
EXTRACT: note_on channel=5 note=28 velocity=100 time=0
EXTRACT: note_on channel=9 note=38 velocity=127 time=0
EXTRACT: note_on channel=9 note=54 velocity=127 time=0
EXTRACT: note_on channel=9 note=51 velocity=127 time=0
EXTRACT: note_off channel=9 note=51 velocity=127 time=0.029761666666666662
EXTRACT: note_off channel=9 note=54 velocity=127 time=0
EXTRACT: note_off channel=9 note=38 velocity=127 time=0
EXTRACT: note_on channel=9 note=54 velocity=127 time=0.14880833333333332
EXTRACT: note_off channel=9 note=54 velocity=127 time=0.029761666666666662
EXTRACT: note_off channel=6 note=60 velocity=100 time=0.10602593749999999
EXTRACT: note_off channel=2 note=64 velocity=100 time=0.013020729166666665
EXTRACT: note_on channel=2 note=67 velocity=100 time=0.016740937499999997
EXTRACT: note_off channel=1 note=64 velocity=100 time=0.013020729166666665
EXTRACT: note_off channel=1 note=59 velocity=100 time=0
EXTRACT: note_off channel=1 note=52 velocity=100 time=0
EXTRACT: note_off channel=1 note=47 velocity=100 time=0
EXTRACT: note_off channel=1 note=40 velocity=100 time=0
EXTRACT: note_off channel=1 note=56 velocity=100 time=0
EXTRACT: note_on channel=1 note=56 velocity=100 time=0
EXTRACT: note_on channel=1 note=40 velocity=100 time=0
EXTRACT: note_on channel=1 note=47 velocity=100 time=0
EXTRACT: note_on channel=1 note=52 velocity=100 time=0
EXTRACT: note_on channel=1 note=59 velocity=100 time=0
EXTRACT: note_on channel=1 note=64 velocity=100 time=0
EXTRACT: note_off channel=5 note=28 velocity=100 time=0
EXTRACT: note_on channel=5 note=28 velocity=100 time=0
EXTRACT: note_on channel=6 note=60 velocity=100 time=0
EXTRACT: note_on channel=9 note=54 velocity=127 time=0
EXTRACT: note_on channel=9 note=51 velocity=127 time=0
EXTRACT: note_off channel=9 note=51 velocity=127 time=0.029761666666666662
EXTRACT: note_off channel=9 note=54 velocity=127 time=0
EXTRACT: pitchwheel channel=2 pitch=128 time=0.005580312499999999
EXTRACT: pitchwheel channel=2 pitch=384 time=0.024181354166666662
EXTRACT: pitchwheel channel=2 pitch=2176 time=0.011160624999999999
EXTRACT: pitchwheel channel=2 pitch=768 time=0.011160624999999999
EXTRACT: note_off channel=5 note=28 velocity=100 time=0.09672541666666665
EXTRACT: note_on channel=5 note=28 velocity=100 time=0
EXTRACT: note_on channel=9 note=38 velocity=127 time=0
EXTRACT: note_on channel=9 note=54 velocity=127 time=0
EXTRACT: pitchwheel channel=2 pitch=896 time=0.022321249999999997
EXTRACT: note_off channel=9 note=54 velocity=127 time=0.0074404166666666655
EXTRACT: note_off channel=9 note=38 velocity=127 time=0
EXTRACT: note_on channel=9 note=38 velocity=127 time=0.029761666666666662
EXTRACT: note_off channel=5 note=28 velocity=100 time=0.029761666666666662
EXTRACT: note_on channel=5 note=28 velocity=100 time=0
EXTRACT: note_off channel=9 note=38 velocity=127 time=0
EXTRACT: pitchwheel channel=2 pitch=640 time=0.005580312499999999
EXTRACT: pitchwheel channel=2 pitch=896 time=0.059523333333333324
EXTRACT: pitchwheel channel=2 pitch=1152 time=0.011160624999999999
EXTRACT: note_off channel=1 note=64 velocity=100 time=0.013020729166666665
EXTRACT: note_off channel=1 note=59 velocity=100 time=0
EXTRACT: note_off channel=1 note=52 velocity=100 time=0
EXTRACT: note_off channel=1 note=47 velocity=100 time=0
EXTRACT: note_off channel=1 note=40 velocity=100 time=0
EXTRACT: note_off channel=1 note=56 velocity=100 time=0
EXTRACT: note_on channel=1 note=41 velocity=100 time=0
EXTRACT: note_on channel=1 note=48 velocity=100 time=0
EXTRACT: note_on channel=1 note=53 velocity=100 time=0
EXTRACT: note_on channel=1 note=57 velocity=100 time=0
EXTRACT: note_on channel=1 note=60 velocity=100 time=0
EXTRACT: pitchwheel channel=2 pitch=1664 time=0
EXTRACT: note_off channel=5 note=28 velocity=100 time=0
EXTRACT: note_on channel=5 note=29 velocity=100 time=0
EXTRACT: note_on channel=9 note=35 velocity=127 time=0
EXTRACT: note_on channel=9 note=36 velocity=127 time=0
EXTRACT: note_on channel=9 note=54 velocity=127 time=0
EXTRACT: note_on channel=9 note=51 velocity=127 time=0
EXTRACT: pitchwheel channel=2 pitch=2688 time=0.011160624999999999
EXTRACT: note_off channel=9 note=51 velocity=127 time=0.018601041666666665
EXTRACT: note_off channel=9 note=54 velocity=127 time=0
EXTRACT: note_off channel=9 note=36 velocity=127 time=0
EXTRACT: note_off channel=9 note=35 velocity=127 time=0
EXTRACT: pitchwheel channel=2 pitch=-384 time=0.016740937499999997
EXTRACT: pitchwheel channel=2 pitch=640 time=0.013020729166666665
EXTRACT: pitchwheel channel=2 pitch=-128 time=0.059523333333333324
EXTRACT: pitchwheel channel=2 pitch=128 time=0.04650260416666666
EXTRACT: pitchwheel channel=2 pitch=256 time=0.013020729166666665
EXTRACT: note_on channel=9 note=54 velocity=127 time=0
EXTRACT: pitchwheel channel=2 pitch=384 time=0.011160624999999999
EXTRACT: pitchwheel channel=2 pitch=-256 time=0.011160624999999999
EXTRACT: note_off channel=9 note=54 velocity=127 time=0.0074404166666666655
EXTRACT: pitchwheel channel=2 pitch=1408 time=0.05208291666666666
EXTRACT: pitchwheel channel=2 pitch=-256 time=0.013020729166666665
EXTRACT: pitchwheel channel=2 pitch=1408 time=0.011160624999999999
EXTRACT: pitchwheel channel=2 pitch=-512 time=0.059523333333333324
EXTRACT: note_off channel=5 note=29 velocity=100 time=0.013020729166666665
EXTRACT: note_on channel=5 note=29 velocity=100 time=0
EXTRACT: note_off channel=6 note=60 velocity=100 time=0
EXTRACT: note_on channel=6 note=62 velocity=100 time=0
EXTRACT: note_on channel=9 note=54 velocity=127 time=0
EXTRACT: note_on channel=9 note=51 velocity=127 time=0
EXTRACT: note_off channel=9 note=51 velocity=127 time=0.029761666666666662
EXTRACT: note_off channel=9 note=54 velocity=127 time=0
EXTRACT: pitchwheel channel=2 pitch=-256 time=0.029761666666666662
EXTRACT: pitchwheel channel=2 pitch=512 time=0.022321249999999997
EXTRACT: pitchwheel channel=2 pitch=384 time=0.024181354166666662
EXTRACT: pitchwheel channel=2 pitch=-128 time=0.07254406249999999
EXTRACT: note_on channel=9 note=54 velocity=127 time=0
EXTRACT: note_off channel=9 note=54 velocity=127 time=0.029761666666666662
EXTRACT: pitchwheel channel=2 pitch=0 time=0.005580312499999999
EXTRACT: note_on channel=2 note=64 velocity=100 time=0.10044562499999998
EXTRACT: note_on channel=6 note=64 velocity=100 time=0
EXTRACT: note_off channel=2 note=67 velocity=100 time=0.029761666666666662
EXTRACT: note_off channel=1 note=60 velocity=100 time=0.013020729166666665
EXTRACT: note_off channel=1 note=57 velocity=100 time=0
EXTRACT: note_off channel=1 note=53 velocity=100 time=0
EXTRACT: note_off channel=1 note=48 velocity=100 time=0
EXTRACT: note_off channel=1 note=41 velocity=100 time=0
EXTRACT: note_on channel=1 note=41 velocity=100 time=0
EXTRACT: note_on channel=1 note=48 velocity=100 time=0
EXTRACT: note_on channel=1 note=53 velocity=100 time=0
EXTRACT: note_on channel=1 note=57 velocity=100 time=0
EXTRACT: note_on channel=1 note=60 velocity=100 time=0
EXTRACT: note_off channel=5 note=29 velocity=100 time=0
EXTRACT: note_on channel=5 note=29 velocity=100 time=0
EXTRACT: note_off channel=6 note=62 velocity=100 time=0
EXTRACT: note_on channel=9 note=38 velocity=127 time=0
EXTRACT: note_on channel=9 note=54 velocity=127 time=0
EXTRACT: note_on channel=9 note=51 velocity=127 time=0
EXTRACT: pitchwheel channel=2 pitch=-8064 time=0.011160624999999999
EXTRACT: pitchwheel channel=2 pitch=-7552 time=0.011160624999999999
EXTRACT: note_off channel=9 note=51 velocity=127 time=0.0074404166666666655
EXTRACT: note_off channel=9 note=54 velocity=127 time=0
EXTRACT: note_off channel=9 note=38 velocity=127 time=0
EXTRACT: pitchwheel channel=2 pitch=-6912 time=0.005580312499999999
EXTRACT: pitchwheel channel=2 pitch=-6272 time=0.011160624999999999
EXTRACT: pitchwheel channel=2 pitch=-5632 time=0.013020729166666665
EXTRACT: pitchwheel channel=2 pitch=-4992 time=0.011160624999999999
EXTRACT: pitchwheel channel=2 pitch=-4352 time=0.011160624999999999
EXTRACT: pitchwheel channel=2 pitch=-3840 time=0.013020729166666665
EXTRACT: pitchwheel channel=2 pitch=-3200 time=0.011160624999999999
EXTRACT: pitchwheel channel=2 pitch=-2560 time=0.013020729166666665
EXTRACT: pitchwheel channel=2 pitch=-1920 time=0.011160624999999999
EXTRACT: pitchwheel channel=2 pitch=-1280 time=0.011160624999999999
EXTRACT: pitchwheel channel=2 pitch=-640 time=0.013020729166666665
EXTRACT: pitchwheel channel=2 pitch=0 time=0.011160624999999999
EXTRACT: note_on channel=9 note=54 velocity=127 time=0.013020729166666665
EXTRACT: note_off channel=9 note=54 velocity=127 time=0.029761666666666662
EXTRACT: note_off channel=2 note=64 velocity=100 time=0.10602593749999999
EXTRACT: note_off channel=6 note=64 velocity=100 time=0
EXTRACT: note_off channel=1 note=60 velocity=100 time=0.04278239583333333
EXTRACT: note_off channel=1 note=57 velocity=100 time=0
EXTRACT: note_off channel=1 note=53 velocity=100 time=0
EXTRACT: note_off channel=1 note=48 velocity=100 time=0
EXTRACT: note_off channel=1 note=41 velocity=100 time=0
EXTRACT: note_on channel=1 note=41 velocity=100 time=0
EXTRACT: note_on channel=1 note=48 velocity=100 time=0
EXTRACT: note_on channel=1 note=53 velocity=100 time=0
EXTRACT: note_on channel=1 note=57 velocity=100 time=0
EXTRACT: note_on channel=1 note=60 velocity=100 time=0
EXTRACT: note_on channel=2 note=64 velocity=100 time=0
EXTRACT: note_off channel=5 note=29 velocity=100 time=0
EXTRACT: note_on channel=5 note=30 velocity=100 time=0
EXTRACT: note_on channel=9 note=54 velocity=127 time=0
EXTRACT: note_on channel=9 note=51 velocity=127 time=0
EXTRACT: note_on channel=6 note=62 velocity=100 time=0.022321249999999997
EXTRACT: note_off channel=9 note=51 velocity=127 time=0.0074404166666666655
EXTRACT: note_off channel=9 note=54 velocity=127 time=0
EXTRACT: note_off channel=2 note=64 velocity=100 time=0.14880833333333332
EXTRACT: note_on channel=9 note=38 velocity=127 time=0
EXTRACT: note_on channel=9 note=54 velocity=127 time=0
EXTRACT: note_on channel=2 note=64 velocity=100 time=0.011160624999999999
EXTRACT: note_off channel=9 note=54 velocity=127 time=0.018601041666666665
EXTRACT: note_off channel=9 note=38 velocity=127 time=0
EXTRACT: note_off channel=1 note=60 velocity=100 time=0.14880833333333332
EXTRACT: note_off channel=1 note=57 velocity=100 time=0
EXTRACT: note_off channel=1 note=53 velocity=100 time=0
EXTRACT: note_off channel=1 note=48 velocity=100 time=0
EXTRACT: note_off channel=1 note=41 velocity=100 time=0
EXTRACT: note_on channel=1 note=43 velocity=100 time=0
EXTRACT: note_on channel=1 note=50 velocity=100 time=0
EXTRACT: note_on channel=1 note=55 velocity=100 time=0
EXTRACT: note_on channel=1 note=59 velocity=100 time=0
EXTRACT: note_on channel=1 note=62 velocity=100 time=0
EXTRACT: pitchwheel channel=2 pitch=8191 time=0
EXTRACT: note_off channel=5 note=30 velocity=100 time=0
EXTRACT: note_on channel=5 note=31 velocity=100 time=0
EXTRACT: note_on channel=9 note=35 velocity=127 time=0
EXTRACT: note_on channel=9 note=36 velocity=127 time=0
EXTRACT: note_on channel=9 note=54 velocity=127 time=0
EXTRACT: note_on channel=9 note=51 velocity=127 time=0
EXTRACT: note_off channel=2 note=64 velocity=100 time=0.011160624999999999
EXTRACT: pitchwheel channel=2 pitch=7808 time=0
EXTRACT: note_on channel=2 note=62 velocity=100 time=0
EXTRACT: pitchwheel channel=2 pitch=7424 time=0.011160624999999999
EXTRACT: note_off channel=9 note=51 velocity=127 time=0.0074404166666666655
EXTRACT: note_off channel=9 note=54 velocity=127 time=0
EXTRACT: note_off channel=9 note=36 velocity=127 time=0
EXTRACT: note_off channel=9 note=35 velocity=127 time=0
EXTRACT: pitchwheel channel=2 pitch=6912 time=0.005580312499999999
EXTRACT: pitchwheel channel=2 pitch=6528 time=0.011160624999999999
EXTRACT: pitchwheel channel=2 pitch=6144 time=0.013020729166666665
EXTRACT: pitchwheel channel=2 pitch=5632 time=0.011160624999999999
EXTRACT: pitchwheel channel=2 pitch=5248 time=0.011160624999999999
EXTRACT: pitchwheel channel=2 pitch=4864 time=0.013020729166666665
EXTRACT: pitchwheel channel=2 pitch=4352 time=0.011160624999999999
EXTRACT: pitchwheel channel=2 pitch=3968 time=0.013020729166666665
EXTRACT: pitchwheel channel=2 pitch=3456 time=0.011160624999999999
EXTRACT: pitchwheel channel=2 pitch=3072 time=0.011160624999999999
EXTRACT: pitchwheel channel=2 pitch=2688 time=0.013020729166666665
EXTRACT: pitchwheel channel=2 pitch=2176 time=0.011160624999999999
EXTRACT: pitchwheel channel=2 pitch=1792 time=0.013020729166666665
EXTRACT: note_on channel=9 note=38 velocity=127 time=0
EXTRACT: note_on channel=9 note=54 velocity=127 time=0
EXTRACT: pitchwheel channel=2 pitch=1408 time=0.011160624999999999
EXTRACT: pitchwheel channel=2 pitch=896 time=0.011160624999999999
EXTRACT: note_off channel=9 note=54 velocity=127 time=0.0074404166666666655
EXTRACT: note_off channel=9 note=38 velocity=127 time=0
EXTRACT: pitchwheel channel=2 pitch=512 time=0.005580312499999999
EXTRACT: pitchwheel channel=2 pitch=0 time=0.011160624999999999
EXTRACT: note_on channel=6 note=60 velocity=100 time=0.08928499999999999
EXTRACT: note_on channel=2 note=60 velocity=100 time=0.013020729166666665
EXTRACT: note_off channel=1 note=62 velocity=100 time=0.029761666666666662
EXTRACT: note_off channel=1 note=59 velocity=100 time=0
EXTRACT: note_off channel=1 note=55 velocity=100 time=0
EXTRACT: note_off channel=1 note=50 velocity=100 time=0
EXTRACT: note_off channel=1 note=43 velocity=100 time=0
EXTRACT: note_on channel=1 note=43 velocity=100 time=0
EXTRACT: note_on channel=1 note=50 velocity=100 time=0
EXTRACT: note_on channel=1 note=55 velocity=100 time=0
EXTRACT: note_on channel=1 note=59 velocity=100 time=0
EXTRACT: note_on channel=1 note=62 velocity=100 time=0
EXTRACT: note_off channel=5 note=31 velocity=100 time=0
EXTRACT: note_on channel=5 note=31 velocity=100 time=0
EXTRACT: note_on channel=9 note=36 velocity=127 time=0
EXTRACT: note_on channel=9 note=54 velocity=127 time=0
EXTRACT: note_on channel=9 note=51 velocity=127 time=0
EXTRACT: note_off channel=2 note=62 velocity=100 time=0.011160624999999999
EXTRACT: note_off channel=6 note=62 velocity=100 time=0.011160624999999999
EXTRACT: note_off channel=9 note=51 velocity=127 time=0.0074404166666666655
EXTRACT: note_off channel=9 note=54 velocity=127 time=0
EXTRACT: note_off channel=9 note=36 velocity=127 time=0
EXTRACT: note_off channel=6 note=60 velocity=100 time=0.10602593749999999
EXTRACT: note_off channel=2 note=60 velocity=100 time=0.013020729166666665
EXTRACT: note_on channel=6 note=64 velocity=100 time=0.005580312499999999
EXTRACT: note_on channel=9 note=35 velocity=127 time=0.024181354166666662
EXTRACT: note_on channel=9 note=54 velocity=127 time=0
EXTRACT: note_off channel=9 note=54 velocity=127 time=0.029761666666666662
EXTRACT: note_off channel=9 note=35 velocity=127 time=0
EXTRACT: note_on channel=2 note=62 velocity=100 time=0.11904666666666665
EXTRACT: note_off channel=1 note=62 velocity=100 time=0.029761666666666662
EXTRACT: note_off channel=1 note=59 velocity=100 time=0
EXTRACT: note_off channel=1 note=55 velocity=100 time=0
EXTRACT: note_off channel=1 note=50 velocity=100 time=0
EXTRACT: note_off channel=1 note=43 velocity=100 time=0
EXTRACT: note_on channel=1 note=43 velocity=100 time=0
EXTRACT: note_on channel=1 note=50 velocity=100 time=0
EXTRACT: note_on channel=1 note=55 velocity=100 time=0
EXTRACT: note_on channel=1 note=59 velocity=100 time=0
EXTRACT: note_on channel=1 note=62 velocity=100 time=0
EXTRACT: note_off channel=5 note=31 velocity=100 time=0
EXTRACT: note_on channel=5 note=31 velocity=100 time=0
EXTRACT: note_on channel=9 note=38 velocity=127 time=0
EXTRACT: note_on channel=9 note=54 velocity=127 time=0
EXTRACT: note_on channel=9 note=51 velocity=127 time=0
EXTRACT: note_off channel=9 note=51 velocity=127 time=0.029761666666666662
EXTRACT: note_off channel=9 note=54 velocity=127 time=0
EXTRACT: note_off channel=9 note=38 velocity=127 time=0
EXTRACT: note_on channel=9 note=54 velocity=127 time=0.14880833333333332
EXTRACT: note_off channel=9 note=54 velocity=127 time=0.029761666666666662
EXTRACT: note_off channel=2 note=62 velocity=100 time=0.11904666666666665
EXTRACT: note_off channel=6 note=64 velocity=100 time=0.005580312499999999
EXTRACT: note_on channel=2 note=60 velocity=100 time=0.011160624999999999
EXTRACT: note_off channel=1 note=62 velocity=100 time=0.013020729166666665
EXTRACT: note_off channel=1 note=59 velocity=100 time=0
EXTRACT: note_off channel=1 note=55 velocity=100 time=0
EXTRACT: note_off channel=1 note=50 velocity=100 time=0
EXTRACT: note_off channel=1 note=43 velocity=100 time=0
EXTRACT: note_on channel=1 note=43 velocity=100 time=0
EXTRACT: note_on channel=1 note=50 velocity=100 time=0
EXTRACT: note_on channel=1 note=55 velocity=100 time=0
EXTRACT: note_on channel=1 note=59 velocity=100 time=0
EXTRACT: note_on channel=1 note=62 velocity=100 time=0
EXTRACT: note_off channel=5 note=31 velocity=100 time=0
EXTRACT: note_on channel=5 note=35 velocity=100 time=0
EXTRACT: note_on channel=6 note=60 velocity=100 time=0
EXTRACT: note_on channel=9 note=54 velocity=127 time=0
EXTRACT: note_on channel=9 note=51 velocity=127 time=0
EXTRACT: note_off channel=9 note=51 velocity=127 time=0.029761666666666662
EXTRACT: note_off channel=9 note=54 velocity=127 time=0
EXTRACT: note_on channel=9 note=38 velocity=127 time=0.14880833333333332
EXTRACT: note_on channel=9 note=54 velocity=127 time=0
EXTRACT: note_off channel=9 note=54 velocity=127 time=0.029761666666666662
EXTRACT: note_off channel=9 note=38 velocity=127 time=0
EXTRACT: note_off channel=2 note=60 velocity=100 time=0.13578760416666666
EXTRACT: note_off channel=1 note=62 velocity=100 time=0.013020729166666665
EXTRACT: note_off channel=1 note=59 velocity=100 time=0
EXTRACT: note_off channel=1 note=55 velocity=100 time=0
EXTRACT: note_off channel=1 note=50 velocity=100 time=0
EXTRACT: note_off channel=1 note=43 velocity=100 time=0
EXTRACT: note_on channel=1 note=48 velocity=100 time=0
EXTRACT: note_on channel=1 note=52 velocity=100 time=0
EXTRACT: note_on channel=1 note=55 velocity=100 time=0
EXTRACT: note_on channel=1 note=60 velocity=100 time=0
EXTRACT: note_on channel=1 note=64 velocity=100 time=0
EXTRACT: note_on channel=2 note=64 velocity=100 time=0
EXTRACT: note_off channel=5 note=35 velocity=100 time=0
EXTRACT: note_on channel=5 note=36 velocity=100 time=0
EXTRACT: note_on channel=9 note=35 velocity=127 time=0
EXTRACT: note_on channel=9 note=36 velocity=127 time=0
EXTRACT: note_on channel=9 note=54 velocity=127 time=0
EXTRACT: note_on channel=9 note=51 velocity=127 time=0
EXTRACT: note_off channel=9 note=51 velocity=127 time=0.029761666666666662
EXTRACT: note_off channel=9 note=54 velocity=127 time=0
EXTRACT: note_off channel=9 note=36 velocity=127 time=0
EXTRACT: note_off channel=9 note=35 velocity=127 time=0
EXTRACT: note_off channel=6 note=60 velocity=100 time=0.14880833333333332
EXTRACT: note_on channel=9 note=38 velocity=127 time=0
EXTRACT: note_on channel=9 note=54 velocity=127 time=0
EXTRACT: note_on channel=6 note=57 velocity=100 time=0.022321249999999997
EXTRACT: note_off channel=9 note=54 velocity=127 time=0.0074404166666666655
EXTRACT: note_off channel=9 note=38 velocity=127 time=0
EXTRACT: note_off channel=2 note=64 velocity=100 time=0.14880833333333332
EXTRACT: note_on channel=2 note=65 velocity=100 time=0
EXTRACT: note_on channel=9 note=35 velocity=127 time=0
EXTRACT: note_on channel=9 note=36 velocity=127 time=0
EXTRACT: note_on channel=9 note=54 velocity=127 time=0
EXTRACT: note_on channel=9 note=51 velocity=127 time=0
EXTRACT: note_on channel=6 note=55 velocity=100 time=0.011160624999999999
EXTRACT: note_off channel=6 note=57 velocity=100 time=0.011160624999999999
EXTRACT: note_off channel=9 note=51 velocity=127 time=0.0074404166666666655
EXTRACT: note_off channel=9 note=54 velocity=127 time=0
EXTRACT: note_off channel=9 note=36 velocity=127 time=0
EXTRACT: note_off channel=9 note=35 velocity=127 time=0
EXTRACT: note_on channel=9 note=54 velocity=127 time=0.14880833333333332
EXTRACT: note_off channel=9 note=54 velocity=127 time=0.029761666666666662
EXTRACT: note_off channel=1 note=64 velocity=100 time=0.14880833333333332
EXTRACT: note_off channel=1 note=60 velocity=100 time=0
EXTRACT: note_off channel=1 note=55 velocity=100 time=0
EXTRACT: note_off channel=1 note=52 velocity=100 time=0
EXTRACT: note_off channel=1 note=48 velocity=100 time=0
EXTRACT: note_on channel=1 note=48 velocity=100 time=0
EXTRACT: note_on channel=1 note=52 velocity=100 time=0
EXTRACT: note_on channel=1 note=55 velocity=100 time=0
EXTRACT: note_on channel=1 note=60 velocity=100 time=0
EXTRACT: note_on channel=1 note=64 velocity=100 time=0
EXTRACT: note_off channel=2 note=65 velocity=100 time=0
EXTRACT: note_on channel=2 note=64 velocity=100 time=0
EXTRACT: note_off channel=5 note=36 velocity=100 time=0
EXTRACT: note_on channel=5 note=36 velocity=100 time=0
EXTRACT: note_on channel=9 note=38 velocity=127 time=0
EXTRACT: note_on channel=9 note=54 velocity=127 time=0
EXTRACT: note_on channel=9 note=51 velocity=127 time=0
EXTRACT: note_off channel=6 note=55 velocity=100 time=0.011160624999999999
EXTRACT: note_off channel=9 note=51 velocity=127 time=0.018601041666666665
EXTRACT: note_off channel=9 note=54 velocity=127 time=0
EXTRACT: note_off channel=9 note=38 velocity=127 time=0
EXTRACT: note_on channel=9 note=54 velocity=127 time=0.14880833333333332
EXTRACT: note_off channel=9 note=54 velocity=127 time=0.029761666666666662
EXTRACT: note_off channel=1 note=64 velocity=100 time=0.14880833333333332
EXTRACT: note_off channel=1 note=60 velocity=100 time=0
EXTRACT: note_off channel=1 note=55 velocity=100 time=0
EXTRACT: note_off channel=1 note=52 velocity=100 time=0
EXTRACT: note_off channel=1 note=48 velocity=100 time=0
EXTRACT: note_on channel=1 note=48 velocity=100 time=0
EXTRACT: note_on channel=1 note=52 velocity=100 time=0
EXTRACT: note_on channel=1 note=55 velocity=100 time=0
EXTRACT: note_on channel=1 note=60 velocity=100 time=0
EXTRACT: note_on channel=1 note=64 velocity=100 time=0
EXTRACT: note_off channel=2 note=64 velocity=100 time=0
EXTRACT: note_on channel=2 note=67 velocity=100 time=0
EXTRACT: note_on channel=2 note=60 velocity=100 time=0
EXTRACT: note_off channel=5 note=36 velocity=100 time=0
EXTRACT: note_on channel=5 note=36 velocity=100 time=0
EXTRACT: note_on channel=9 note=54 velocity=127 time=0
EXTRACT: note_on channel=9 note=51 velocity=127 time=0
EXTRACT: note_off channel=9 note=51 velocity=127 time=0.029761666666666662
EXTRACT: note_off channel=9 note=54 velocity=127 time=0
EXTRACT: note_on channel=9 note=38 velocity=127 time=0.14880833333333332
EXTRACT: note_on channel=9 note=54 velocity=127 time=0
EXTRACT: note_off channel=9 note=54 velocity=127 time=0.029761666666666662
EXTRACT: note_off channel=9 note=38 velocity=127 time=0
EXTRACT: note_off channel=1 note=64 velocity=100 time=0.14880833333333332
EXTRACT: note_off channel=1 note=60 velocity=100 time=0
EXTRACT: note_off channel=1 note=55 velocity=100 time=0
EXTRACT: note_off channel=1 note=52 velocity=100 time=0
EXTRACT: note_off channel=1 note=48 velocity=100 time=0
EXTRACT: note_on channel=1 note=45 velocity=100 time=0
EXTRACT: note_on channel=1 note=52 velocity=100 time=0
EXTRACT: note_on channel=1 note=57 velocity=100 time=0
EXTRACT: note_on channel=1 note=60 velocity=100 time=0
EXTRACT: note_on channel=1 note=64 velocity=100 time=0
EXTRACT: note_off channel=5 note=36 velocity=100 time=0
EXTRACT: note_on channel=5 note=33 velocity=100 time=0
EXTRACT: note_on channel=9 note=35 velocity=127 time=0
EXTRACT: note_on channel=9 note=36 velocity=127 time=0
EXTRACT: note_on channel=9 note=54 velocity=127 time=0
EXTRACT: note_on channel=9 note=51 velocity=127 time=0
EXTRACT: note_off channel=9 note=51 velocity=127 time=0.029761666666666662
EXTRACT: note_off channel=9 note=54 velocity=127 time=0
EXTRACT: note_off channel=9 note=36 velocity=127 time=0
EXTRACT: note_off channel=9 note=35 velocity=127 time=0
EXTRACT: note_off channel=2 note=60 velocity=100 time=0.14880833333333332
EXTRACT: note_off channel=2 note=67 velocity=100 time=0
EXTRACT: note_on channel=2 note=64 velocity=100 time=0
EXTRACT: note_on channel=9 note=54 velocity=127 time=0
EXTRACT: note_off channel=9 note=54 velocity=127 time=0.029761666666666662
EXTRACT: note_on channel=9 note=38 velocity=127 time=0.029761666666666662
EXTRACT: note_off channel=9 note=38 velocity=127 time=0.029761666666666662
EXTRACT: note_off channel=1 note=64 velocity=100 time=0.08928499999999999
EXTRACT: note_off channel=1 note=60 velocity=100 time=0
EXTRACT: note_off channel=1 note=57 velocity=100 time=0
EXTRACT: note_off channel=1 note=52 velocity=100 time=0
EXTRACT: note_off channel=1 note=45 velocity=100 time=0
EXTRACT: note_on channel=1 note=45 velocity=100 time=0
EXTRACT: note_on channel=1 note=52 velocity=100 time=0
EXTRACT: note_on channel=1 note=57 velocity=100 time=0
EXTRACT: note_on channel=1 note=60 velocity=100 time=0
EXTRACT: note_on channel=1 note=64 velocity=100 time=0
EXTRACT: note_off channel=5 note=33 velocity=100 time=0
EXTRACT: note_on channel=5 note=33 velocity=100 time=0
EXTRACT: note_on channel=9 note=38 velocity=127 time=0
EXTRACT: note_on channel=9 note=54 velocity=127 time=0
EXTRACT: note_off channel=9 note=54 velocity=127 time=0.029761666666666662
EXTRACT: note_off channel=9 note=38 velocity=127 time=0
EXTRACT: note_on channel=9 note=38 velocity=127 time=0.08928499999999999
EXTRACT: note_off channel=9 note=38 velocity=127 time=0.029761666666666662
EXTRACT: note_on channel=2 note=60 velocity=100 time=0.022321249999999997
EXTRACT: note_off channel=1 note=64 velocity=100 time=0.0074404166666666655
EXTRACT: note_off channel=1 note=60 velocity=100 time=0
EXTRACT: note_off channel=1 note=57 velocity=100 time=0
EXTRACT: note_off channel=1 note=52 velocity=100 time=0
EXTRACT: note_off channel=1 note=45 velocity=100 time=0
EXTRACT: note_on channel=1 note=45 velocity=100 time=0
EXTRACT: note_on channel=1 note=52 velocity=100 time=0
EXTRACT: note_on channel=1 note=57 velocity=100 time=0
EXTRACT: note_on channel=1 note=60 velocity=100 time=0
EXTRACT: note_on channel=1 note=64 velocity=100 time=0
EXTRACT: note_off channel=2 note=64 velocity=100 time=0
EXTRACT: note_on channel=9 note=54 velocity=127 time=0
EXTRACT: note_off channel=9 note=54 velocity=127 time=0.029761666666666662
EXTRACT: note_on channel=9 note=38 velocity=127 time=0.029761666666666662
EXTRACT: note_off channel=9 note=38 velocity=127 time=0.029761666666666662
EXTRACT: note_on channel=2 note=65 velocity=100 time=0.07068395833333332
EXTRACT: note_off channel=2 note=60 velocity=100 time=0.011160624999999999
EXTRACT: note_off channel=1 note=64 velocity=100 time=0.0074404166666666655
EXTRACT: note_off channel=1 note=60 velocity=100 time=0
EXTRACT: note_off channel=1 note=57 velocity=100 time=0
EXTRACT: note_off channel=1 note=52 velocity=100 time=0
EXTRACT: note_off channel=1 note=45 velocity=100 time=0
EXTRACT: note_on channel=1 note=43 velocity=100 time=0
EXTRACT: note_on channel=1 note=50 velocity=100 time=0
EXTRACT: note_on channel=1 note=55 velocity=100 time=0
EXTRACT: note_on channel=1 note=59 velocity=100 time=0
EXTRACT: note_on channel=1 note=67 velocity=100 time=0
EXTRACT: note_off channel=5 note=33 velocity=100 time=0
EXTRACT: note_on channel=5 note=31 velocity=100 time=0
EXTRACT: note_on channel=9 note=47 velocity=127 time=0
EXTRACT: note_on channel=9 note=54 velocity=127 time=0
EXTRACT: note_off channel=9 note=54 velocity=127 time=0.029761666666666662
EXTRACT: note_off channel=9 note=47 velocity=127 time=0
EXTRACT: note_on channel=9 note=47 velocity=127 time=0.08928499999999999
EXTRACT: note_off channel=9 note=47 velocity=127 time=0.029761666666666662
EXTRACT: note_on channel=9 note=54 velocity=127 time=0.029761666666666662
EXTRACT: note_off channel=9 note=54 velocity=127 time=0.029761666666666662
EXTRACT: note_on channel=9 note=47 velocity=127 time=0.029761666666666662
EXTRACT: note_off channel=9 note=47 velocity=127 time=0.029761666666666662
EXTRACT: note_off channel=2 note=65 velocity=100 time=0.07068395833333332
EXTRACT: note_off channel=1 note=67 velocity=100 time=0.018601041666666665
EXTRACT: note_off channel=1 note=59 velocity=100 time=0
EXTRACT: note_off channel=1 note=55 velocity=100 time=0
EXTRACT: note_off channel=1 note=50 velocity=100 time=0
EXTRACT: note_off channel=1 note=43 velocity=100 time=0
EXTRACT: note_on channel=1 note=43 velocity=100 time=0
EXTRACT: note_on channel=1 note=50 velocity=100 time=0
EXTRACT: note_on channel=1 note=55 velocity=100 time=0
EXTRACT: note_on channel=1 note=59 velocity=100 time=0
EXTRACT: note_on channel=1 note=67 velocity=100 time=0
EXTRACT: note_on channel=2 note=64 velocity=100 time=0
EXTRACT: note_off channel=5 note=31 velocity=100 time=0
EXTRACT: note_on channel=5 note=35 velocity=100 time=0
EXTRACT: note_on channel=9 note=45 velocity=127 time=0
EXTRACT: note_on channel=9 note=54 velocity=127 time=0
EXTRACT: note_on channel=6 note=55 velocity=100 time=0.011160624999999999
EXTRACT: note_off channel=9 note=54 velocity=127 time=0.018601041666666665
EXTRACT: note_off channel=9 note=45 velocity=127 time=0
EXTRACT: note_on channel=9 note=45 velocity=127 time=0.08928499999999999
EXTRACT: note_off channel=9 note=45 velocity=127 time=0.029761666666666662
EXTRACT: note_on channel=9 note=54 velocity=127 time=0.029761666666666662
EXTRACT: note_off channel=9 note=54 velocity=127 time=0.029761666666666662
EXTRACT: note_on channel=9 note=45 velocity=127 time=0.029761666666666662
EXTRACT: note_off channel=9 note=45 velocity=127 time=0.029761666666666662
EXTRACT: note_off channel=1 note=67 velocity=100 time=0.08928499999999999
EXTRACT: note_off channel=1 note=59 velocity=100 time=0
EXTRACT: note_off channel=1 note=55 velocity=100 time=0
EXTRACT: note_off channel=1 note=50 velocity=100 time=0
EXTRACT: note_off channel=1 note=43 velocity=100 time=0
EXTRACT: note_on channel=1 note=48 velocity=100 time=0
EXTRACT: note_on channel=1 note=52 velocity=100 time=0
EXTRACT: note_on channel=1 note=55 velocity=100 time=0
EXTRACT: note_on channel=1 note=60 velocity=100 time=0
EXTRACT: note_on channel=1 note=64 velocity=100 time=0
EXTRACT: note_off channel=2 note=64 velocity=100 time=0
EXTRACT: note_on channel=2 note=65 velocity=100 time=0
EXTRACT: note_off channel=5 note=35 velocity=100 time=0
EXTRACT: note_on channel=5 note=36 velocity=100 time=0
EXTRACT: note_on channel=6 note=67 velocity=100 time=0
EXTRACT: note_on channel=9 note=35 velocity=127 time=0
EXTRACT: note_on channel=9 note=36 velocity=127 time=0
EXTRACT: note_on channel=9 note=54 velocity=127 time=0
EXTRACT: note_on channel=9 note=49 velocity=127 time=0
EXTRACT: note_off channel=6 note=55 velocity=100 time=0.011160624999999999
EXTRACT: note_off channel=9 note=49 velocity=127 time=0.018601041666666665
EXTRACT: note_off channel=9 note=54 velocity=127 time=0
EXTRACT: note_off channel=9 note=36 velocity=127 time=0
EXTRACT: note_off channel=9 note=35 velocity=127 time=0
EXTRACT: note_on channel=9 note=54 velocity=127 time=0.14880833333333332
EXTRACT: note_off channel=9 note=54 velocity=127 time=0.029761666666666662
EXTRACT: note_off channel=2 note=65 velocity=100 time=0.14880833333333332
EXTRACT: note_on channel=9 note=35 velocity=127 time=0
EXTRACT: note_on channel=9 note=54 velocity=127 time=0
EXTRACT: note_on channel=9 note=51 velocity=127 time=0
EXTRACT: note_off channel=9 note=51 velocity=127 time=0.029761666666666662
EXTRACT: note_off channel=9 note=54 velocity=127 time=0
EXTRACT: note_off channel=9 note=35 velocity=127 time=0
EXTRACT: note_on channel=2 note=64 velocity=100 time=0.011160624999999999
EXTRACT: note_on channel=9 note=54 velocity=127 time=0.1376477083333333
EXTRACT: note_off channel=9 note=54 velocity=127 time=0.029761666666666662
EXTRACT: note_off channel=1 note=64 velocity=100 time=0.14880833333333332
EXTRACT: note_off channel=1 note=60 velocity=100 time=0
EXTRACT: note_off channel=1 note=55 velocity=100 time=0
EXTRACT: note_off channel=1 note=52 velocity=100 time=0
EXTRACT: note_off channel=1 note=48 velocity=100 time=0
EXTRACT: note_on channel=1 note=48 velocity=100 time=0
EXTRACT: note_on channel=1 note=52 velocity=100 time=0
EXTRACT: note_on channel=1 note=55 velocity=100 time=0
EXTRACT: note_on channel=1 note=60 velocity=100 time=0
EXTRACT: note_on channel=1 note=64 velocity=100 time=0
EXTRACT: note_on channel=2 note=60 velocity=100 time=0
EXTRACT: note_off channel=5 note=36 velocity=100 time=0
EXTRACT: note_on channel=5 note=36 velocity=100 time=0
EXTRACT: note_on channel=9 note=35 velocity=127 time=0
EXTRACT: note_on channel=9 note=38 velocity=127 time=0
EXTRACT: note_on channel=9 note=54 velocity=127 time=0
EXTRACT: note_on channel=9 note=51 velocity=127 time=0
EXTRACT: note_off channel=9 note=51 velocity=127 time=0.029761666666666662
EXTRACT: note_off channel=9 note=54 velocity=127 time=0
EXTRACT: note_off channel=9 note=38 velocity=127 time=0
EXTRACT: note_off channel=9 note=35 velocity=127 time=0
EXTRACT: note_off channel=2 note=64 velocity=100 time=0.011160624999999999
EXTRACT: note_on channel=9 note=54 velocity=127 time=0.1376477083333333
EXTRACT: note_off channel=9 note=54 velocity=127 time=0.029761666666666662
EXTRACT: note_off channel=1 note=64 velocity=100 time=0.14880833333333332
EXTRACT: note_off channel=1 note=60 velocity=100 time=0
EXTRACT: note_off channel=1 note=55 velocity=100 time=0
EXTRACT: note_off channel=1 note=52 velocity=100 time=0
EXTRACT: note_off channel=1 note=48 velocity=100 time=0
EXTRACT: note_on channel=1 note=52 velocity=100 time=0
EXTRACT: note_on channel=1 note=48 velocity=100 time=0
EXTRACT: note_on channel=1 note=55 velocity=100 time=0
EXTRACT: note_on channel=1 note=60 velocity=100 time=0
EXTRACT: note_on channel=1 note=64 velocity=100 time=0
EXTRACT: note_on channel=2 note=64 velocity=100 time=0
EXTRACT: note_off channel=5 note=36 velocity=100 time=0
EXTRACT: note_on channel=5 note=35 velocity=100 time=0
EXTRACT: note_on channel=9 note=54 velocity=127 time=0
EXTRACT: note_on channel=9 note=51 velocity=127 time=0
EXTRACT: note_off channel=9 note=51 velocity=127 time=0.029761666666666662
EXTRACT: note_off channel=9 note=54 velocity=127 time=0
EXTRACT: note_on channel=9 note=35 velocity=127 time=0.14880833333333332
EXTRACT: note_on channel=9 note=38 velocity=127 time=0
EXTRACT: note_on channel=9 note=54 velocity=127 time=0
EXTRACT: note_off channel=9 note=54 velocity=127 time=0.029761666666666662
EXTRACT: note_off channel=9 note=38 velocity=127 time=0
EXTRACT: note_off channel=9 note=35 velocity=127 time=0
EXTRACT: note_on channel=6 note=65 velocity=100 time=0.13020729166666664
EXTRACT: note_off channel=1 note=64 velocity=100 time=0.018601041666666665
EXTRACT: note_off channel=1 note=60 velocity=100 time=0
EXTRACT: note_off channel=1 note=55 velocity=100 time=0
EXTRACT: note_off channel=1 note=48 velocity=100 time=0
EXTRACT: note_off channel=1 note=52 velocity=100 time=0
EXTRACT: note_on channel=1 note=43 velocity=100 time=0
EXTRACT: note_on channel=1 note=47 velocity=100 time=0
EXTRACT: note_on channel=1 note=50 velocity=100 time=0
EXTRACT: note_on channel=1 note=55 velocity=100 time=0
EXTRACT: note_on channel=1 note=59 velocity=100 time=0
EXTRACT: note_on channel=1 note=67 velocity=100 time=0
EXTRACT: note_off channel=5 note=35 velocity=100 time=0
EXTRACT: note_on channel=5 note=31 velocity=100 time=0
EXTRACT: note_off channel=6 note=67 velocity=100 time=0
EXTRACT: note_on channel=9 note=35 velocity=127 time=0
EXTRACT: note_on channel=9 note=36 velocity=127 time=0
EXTRACT: note_on channel=9 note=54 velocity=127 time=0
EXTRACT: note_on channel=9 note=51 velocity=127 time=0
EXTRACT: note_off channel=9 note=51 velocity=127 time=0.029761666666666662
EXTRACT: note_off channel=9 note=54 velocity=127 time=0
EXTRACT: note_off channel=9 note=36 velocity=127 time=0
EXTRACT: note_off channel=9 note=35 velocity=127 time=0
EXTRACT: note_on channel=9 note=38 velocity=127 time=0.14880833333333332
EXTRACT: note_on channel=9 note=54 velocity=127 time=0
EXTRACT: note_off channel=9 note=54 velocity=127 time=0.029761666666666662
EXTRACT: note_off channel=9 note=38 velocity=127 time=0
EXTRACT: note_off channel=5 note=31 velocity=100 time=0.14880833333333332
EXTRACT: note_on channel=5 note=31 velocity=100 time=0
EXTRACT: note_on channel=9 note=35 velocity=127 time=0
EXTRACT: note_on channel=9 note=36 velocity=127 time=0
EXTRACT: note_on channel=9 note=54 velocity=127 time=0
EXTRACT: note_on channel=9 note=51 velocity=127 time=0
EXTRACT: note_off channel=9 note=51 velocity=127 time=0.029761666666666662
EXTRACT: note_off channel=9 note=54 velocity=127 time=0
EXTRACT: note_off channel=9 note=36 velocity=127 time=0
EXTRACT: note_off channel=9 note=35 velocity=127 time=0
EXTRACT: note_on channel=9 note=54 velocity=127 time=0.14880833333333332
EXTRACT: note_off channel=9 note=54 velocity=127 time=0.029761666666666662
EXTRACT: note_on channel=6 note=67 velocity=100 time=0.10602593749999999
EXTRACT: note_on channel=2 note=64 velocity=100 time=0.024181354166666662
EXTRACT: note_off channel=6 note=65 velocity=100 time=0
EXTRACT: note_off channel=1 note=67 velocity=100 time=0.018601041666666665
EXTRACT: note_off channel=1 note=59 velocity=100 time=0
EXTRACT: note_off channel=1 note=55 velocity=100 time=0
EXTRACT: note_off channel=1 note=50 velocity=100 time=0
EXTRACT: note_off channel=1 note=47 velocity=100 time=0
EXTRACT: note_off channel=1 note=43 velocity=100 time=0
EXTRACT: note_on channel=1 note=59 velocity=100 time=0
EXTRACT: note_on channel=1 note=55 velocity=100 time=0
EXTRACT: note_on channel=1 note=50 velocity=100 time=0
EXTRACT: note_on channel=1 note=47 velocity=100 time=0
EXTRACT: note_on channel=1 note=43 velocity=100 time=0
EXTRACT: note_on channel=1 note=67 velocity=100 time=0
EXTRACT: note_off channel=2 note=64 velocity=100 time=0
EXTRACT: note_off channel=2 note=60 velocity=100 time=0
EXTRACT: note_off channel=5 note=31 velocity=100 time=0
EXTRACT: note_on channel=5 note=31 velocity=100 time=0
EXTRACT: note_on channel=9 note=35 velocity=127 time=0
EXTRACT: note_on channel=9 note=38 velocity=127 time=0
EXTRACT: note_on channel=9 note=54 velocity=127 time=0
EXTRACT: note_on channel=9 note=51 velocity=127 time=0
EXTRACT: note_off channel=9 note=51 velocity=127 time=0.029761666666666662
EXTRACT: note_off channel=9 note=54 velocity=127 time=0
EXTRACT: note_off channel=9 note=38 velocity=127 time=0
EXTRACT: note_off channel=9 note=35 velocity=127 time=0
EXTRACT: note_on channel=9 note=54 velocity=127 time=0.14880833333333332
EXTRACT: note_off channel=9 note=54 velocity=127 time=0.029761666666666662
EXTRACT: note_off channel=6 note=67 velocity=100 time=0.10602593749999999
EXTRACT: note_off channel=2 note=64 velocity=100 time=0.024181354166666662
EXTRACT: note_off channel=1 note=67 velocity=100 time=0.018601041666666665
EXTRACT: note_off channel=1 note=43 velocity=100 time=0
EXTRACT: note_off channel=1 note=47 velocity=100 time=0
EXTRACT: note_off channel=1 note=50 velocity=100 time=0
EXTRACT: note_off channel=1 note=55 velocity=100 time=0
EXTRACT: note_off channel=1 note=59 velocity=100 time=0
EXTRACT: note_on channel=1 note=55 velocity=100 time=0
EXTRACT: note_on channel=1 note=59 velocity=100 time=0
EXTRACT: note_on channel=1 note=47 velocity=100 time=0
EXTRACT: note_on channel=1 note=50 velocity=100 time=0
EXTRACT: note_on channel=1 note=43 velocity=100 time=0
EXTRACT: note_on channel=1 note=67 velocity=100 time=0
EXTRACT: note_off channel=5 note=31 velocity=100 time=0
EXTRACT: note_on channel=5 note=31 velocity=100 time=0
EXTRACT: note_on channel=6 note=64 velocity=100 time=0
EXTRACT: note_on channel=9 note=35 velocity=127 time=0
EXTRACT: note_on channel=9 note=54 velocity=127 time=0
EXTRACT: note_on channel=9 note=51 velocity=127 time=0
EXTRACT: note_on channel=2 note=67 velocity=100 time=0.011160624999999999
EXTRACT: note_off channel=9 note=51 velocity=127 time=0.018601041666666665
EXTRACT: note_off channel=9 note=54 velocity=127 time=0
EXTRACT: note_off channel=9 note=35 velocity=127 time=0
EXTRACT: note_off channel=5 note=31 velocity=100 time=0.14880833333333332
EXTRACT: note_on channel=5 note=32 velocity=100 time=0
EXTRACT: note_on channel=9 note=38 velocity=127 time=0
EXTRACT: note_on channel=9 note=54 velocity=127 time=0
EXTRACT: note_off channel=9 note=54 velocity=127 time=0.029761666666666662
EXTRACT: note_off channel=9 note=38 velocity=127 time=0
EXTRACT: note_on channel=9 note=38 velocity=127 time=0.029761666666666662
EXTRACT: note_off channel=9 note=38 velocity=127 time=0.029761666666666662
EXTRACT: note_off channel=1 note=67 velocity=100 time=0.08928499999999999
EXTRACT: note_off channel=1 note=43 velocity=100 time=0
EXTRACT: note_off channel=1 note=50 velocity=100 time=0
EXTRACT: note_off channel=1 note=47 velocity=100 time=0
EXTRACT: note_off channel=1 note=59 velocity=100 time=0
EXTRACT: note_off channel=1 note=55 velocity=100 time=0
EXTRACT: note_on channel=1 note=45 velocity=100 time=0
EXTRACT: note_on channel=1 note=52 velocity=100 time=0
EXTRACT: note_on channel=1 note=57 velocity=100 time=0
EXTRACT: note_on channel=1 note=60 velocity=100 time=0
EXTRACT: note_on channel=1 note=64 velocity=100 time=0
EXTRACT: note_on channel=2 note=64 velocity=100 time=0
EXTRACT: note_off channel=5 note=32 velocity=100 time=0
EXTRACT: note_on channel=5 note=33 velocity=100 time=0
EXTRACT: note_on channel=9 note=35 velocity=127 time=0
EXTRACT: note_on channel=9 note=36 velocity=127 time=0
EXTRACT: note_on channel=9 note=49 velocity=127 time=0
EXTRACT: note_off channel=2 note=67 velocity=100 time=0.011160624999999999
EXTRACT: note_off channel=9 note=49 velocity=127 time=0.018601041666666665
EXTRACT: note_off channel=9 note=36 velocity=127 time=0
EXTRACT: note_off channel=9 note=35 velocity=127 time=0
EXTRACT: note_off channel=6 note=64 velocity=100 time=1.3987983333333331
EXTRACT: note_on channel=6 note=64 velocity=100 time=0.5357099999999999
EXTRACT: note_on channel=6 note=69 velocity=100 time=0.1543886458333333
EXTRACT: note_off channel=6 note=64 velocity=100 time=0.024181354166666662
EXTRACT: note_off channel=6 note=69 velocity=100 time=0.3329586458333333
EXTRACT: note_on channel=6 note=64 velocity=100 time=0.04092229166666666
EXTRACT: note_on channel=6 note=67 velocity=100 time=0.1376477083333333
EXTRACT: note_off channel=6 note=64 velocity=100 time=0.04092229166666666
EXTRACT: note_off channel=1 note=64 velocity=100 time=0.16182906249999998
EXTRACT: note_off channel=1 note=60 velocity=100 time=0
EXTRACT: note_off channel=1 note=57 velocity=100 time=0
EXTRACT: note_off channel=1 note=52 velocity=100 time=0
EXTRACT: note_off channel=1 note=45 velocity=100 time=0
EXTRACT: note_on channel=1 note=53 velocity=100 time=0
EXTRACT: note_on channel=1 note=57 velocity=100 time=0
EXTRACT: note_on channel=1 note=60 velocity=100 time=0
EXTRACT: note_on channel=1 note=67 velocity=100 time=0
EXTRACT: note_off channel=2 note=64 velocity=100 time=0
EXTRACT: note_off channel=5 note=33 velocity=100 time=0
EXTRACT: note_on channel=5 note=29 velocity=100 time=0
EXTRACT: note_off channel=6 note=67 velocity=100 time=0.3329586458333333
EXTRACT: note_on channel=6 note=64 velocity=100 time=0.016740937499999997
EXTRACT: note_off channel=6 note=64 velocity=100 time=0.17856999999999998
EXTRACT: note_on channel=6 note=62 velocity=100 time=0.0074404166666666655
EXTRACT: note_off channel=6 note=62 velocity=100 time=0.35713999999999996
EXTRACT: note_on channel=6 note=60 velocity=100 time=0
EXTRACT: note_off channel=6 note=60 velocity=100 time=0.5357099999999999
EXTRACT: note_on channel=6 note=69 velocity=100 time=0.6956789583333333
EXTRACT: note_off channel=6 note=69 velocity=100 time=0.35713999999999996
EXTRACT: note_on channel=6 note=64 velocity=100 time=0.018601041666666665
EXTRACT: note_off channel=6 note=64 velocity=100 time=0.17856999999999998
EXTRACT: note_on channel=6 note=67 velocity=100 time=0.022321249999999997
EXTRACT: note_off channel=1 note=67 velocity=100 time=0.15624874999999996
EXTRACT: note_off channel=1 note=60 velocity=100 time=0
EXTRACT: note_off channel=1 note=57 velocity=100 time=0
EXTRACT: note_off channel=1 note=53 velocity=100 time=0
EXTRACT: note_on channel=1 note=63 velocity=100 time=0
EXTRACT: note_on channel=1 note=53 velocity=100 time=0
EXTRACT: note_on channel=1 note=60 velocity=100 time=0
EXTRACT: note_on channel=1 note=68 velocity=100 time=0
EXTRACT: note_on channel=1 note=72 velocity=100 time=0
EXTRACT: program_change channel=2 program=30 time=0
EXTRACT: note_off channel=5 note=29 velocity=100 time=0
EXTRACT: note_on channel=5 note=29 velocity=100 time=0
EXTRACT: note_on channel=6 note=64 velocity=100 time=0.3329586458333333
EXTRACT: note_off channel=6 note=67 velocity=100 time=0.04650260416666666
EXTRACT: note_off channel=6 note=64 velocity=100 time=0.13206739583333332
EXTRACT: note_on channel=6 note=62 velocity=100 time=0.011160624999999999
EXTRACT: note_off channel=6 note=62 velocity=100 time=0.35713999999999996
EXTRACT: note_on channel=6 note=60 velocity=100 time=0.013020729166666665
EXTRACT: control_change channel=2 control=7 value=0 time=0.5357099999999999
EXTRACT: note_on channel=2 note=72 velocity=120 time=0
EXTRACT: control_change channel=2 control=7 value=0 time=0.022321249999999997
EXTRACT: control_change channel=2 control=7 value=1 time=0.013020729166666665
EXTRACT: control_change channel=2 control=7 value=2 time=0.011160624999999999
EXTRACT: control_change channel=2 control=7 value=3 time=0.013020729166666665
EXTRACT: control_change channel=2 control=7 value=4 time=0.011160624999999999
EXTRACT: control_change channel=2 control=7 value=5 time=0.011160624999999999
EXTRACT: control_change channel=2 control=7 value=6 time=0.013020729166666665
EXTRACT: control_change channel=2 control=7 value=7 time=0.011160624999999999
EXTRACT: control_change channel=2 control=7 value=8 time=0.024181354166666662
EXTRACT: control_change channel=2 control=7 value=9 time=0.011160624999999999
EXTRACT: control_change channel=2 control=7 value=10 time=0.013020729166666665
EXTRACT: control_change channel=2 control=7 value=11 time=0.011160624999999999
EXTRACT: control_change channel=2 control=7 value=12 time=0.013020729166666665
EXTRACT: control_change channel=2 control=7 value=13 time=0.011160624999999999
EXTRACT: control_change channel=2 control=7 value=14 time=0.011160624999999999
EXTRACT: control_change channel=2 control=7 value=15 time=0.013020729166666665
EXTRACT: control_change channel=2 control=7 value=16 time=0.024181354166666662
EXTRACT: control_change channel=2 control=7 value=17 time=0.011160624999999999
EXTRACT: control_change channel=2 control=7 value=18 time=0.011160624999999999
EXTRACT: control_change channel=2 control=7 value=19 time=0.013020729166666665
EXTRACT: control_change channel=2 control=7 value=20 time=0.011160624999999999
EXTRACT: control_change channel=2 control=7 value=21 time=0.013020729166666665
EXTRACT: control_change channel=2 control=7 value=22 time=0.011160624999999999
EXTRACT: control_change channel=2 control=7 value=23 time=0.011160624999999999
EXTRACT: control_change channel=2 control=7 value=24 time=0.024181354166666662
EXTRACT: control_change channel=2 control=7 value=25 time=0.013020729166666665
EXTRACT: control_change channel=2 control=7 value=26 time=0.011160624999999999
EXTRACT: control_change channel=2 control=7 value=27 time=0.011160624999999999
EXTRACT: control_change channel=2 control=7 value=28 time=0.013020729166666665
EXTRACT: control_change channel=2 control=7 value=29 time=0.011160624999999999
EXTRACT: control_change channel=2 control=7 value=30 time=0.013020729166666665
EXTRACT: control_change channel=2 control=7 value=31 time=0.011160624999999999
EXTRACT: control_change channel=2 control=7 value=32 time=0.024181354166666662
EXTRACT: control_change channel=2 control=7 value=33 time=0.011160624999999999
EXTRACT: control_change channel=2 control=7 value=34 time=0.013020729166666665
EXTRACT: control_change channel=2 control=7 value=35 time=0.011160624999999999
EXTRACT: control_change channel=2 control=7 value=36 time=0.011160624999999999
EXTRACT: control_change channel=2 control=7 value=37 time=0.013020729166666665
EXTRACT: control_change channel=2 control=7 value=38 time=0.011160624999999999
EXTRACT: control_change channel=2 control=7 value=39 time=0.013020729166666665
EXTRACT: control_change channel=2 control=7 value=40 time=0.022321249999999997
EXTRACT: control_change channel=2 control=7 value=41 time=0.013020729166666665
EXTRACT: control_change channel=2 control=7 value=42 time=0.011160624999999999
EXTRACT: control_change channel=2 control=7 value=43 time=0.013020729166666665
EXTRACT: control_change channel=2 control=7 value=44 time=0.011160624999999999
EXTRACT: control_change channel=2 control=7 value=45 time=0.011160624999999999
EXTRACT: control_change channel=2 control=7 value=46 time=0.013020729166666665
EXTRACT: control_change channel=2 control=7 value=47 time=0.011160624999999999
EXTRACT: control_change channel=2 control=7 value=48 time=0.024181354166666662
EXTRACT: control_change channel=2 control=7 value=49 time=0.011160624999999999
EXTRACT: control_change channel=2 control=7 value=50 time=0.013020729166666665
EXTRACT: control_change channel=2 control=7 value=51 time=0.011160624999999999
EXTRACT: control_change channel=2 control=7 value=52 time=0.013020729166666665
EXTRACT: note_off channel=6 note=60 velocity=100 time=0
EXTRACT: control_change channel=2 control=7 value=53 time=0.011160624999999999
EXTRACT: control_change channel=2 control=7 value=54 time=0.011160624999999999
EXTRACT: control_change channel=2 control=7 value=55 time=0.013020729166666665
EXTRACT: control_change channel=2 control=7 value=56 time=0.024181354166666662
EXTRACT: control_change channel=2 control=7 value=57 time=0.011160624999999999
EXTRACT: control_change channel=2 control=7 value=58 time=0.011160624999999999
EXTRACT: control_change channel=2 control=7 value=59 time=0.013020729166666665
EXTRACT: control_change channel=2 control=7 value=60 time=0.011160624999999999
EXTRACT: control_change channel=2 control=7 value=61 time=0.013020729166666665
EXTRACT: control_change channel=2 control=7 value=62 time=0.011160624999999999
EXTRACT: control_change channel=2 control=7 value=63 time=0.011160624999999999
EXTRACT: control_change channel=2 control=7 value=64 time=0.024181354166666662
EXTRACT: control_change channel=2 control=7 value=65 time=0.013020729166666665
EXTRACT: control_change channel=2 control=7 value=66 time=0.011160624999999999
EXTRACT: control_change channel=2 control=7 value=67 time=0.011160624999999999
EXTRACT: control_change channel=2 control=7 value=68 time=0.013020729166666665
EXTRACT: control_change channel=2 control=7 value=69 time=0.011160624999999999
EXTRACT: control_change channel=2 control=7 value=70 time=0.013020729166666665
EXTRACT: control_change channel=2 control=7 value=71 time=0.011160624999999999
EXTRACT: control_change channel=2 control=7 value=72 time=0.024181354166666662
EXTRACT: control_change channel=2 control=7 value=73 time=0.011160624999999999
EXTRACT: control_change channel=2 control=7 value=74 time=0.013020729166666665
EXTRACT: control_change channel=2 control=7 value=75 time=0.011160624999999999
EXTRACT: control_change channel=2 control=7 value=76 time=0.011160624999999999
EXTRACT: control_change channel=2 control=7 value=77 time=0.013020729166666665
EXTRACT: control_change channel=2 control=7 value=78 time=0.011160624999999999
EXTRACT: control_change channel=2 control=7 value=79 time=0.013020729166666665
EXTRACT: control_change channel=2 control=7 value=80 time=0.022321249999999997
EXTRACT: control_change channel=2 control=7 value=81 time=0.013020729166666665
EXTRACT: control_change channel=2 control=7 value=82 time=0.011160624999999999
EXTRACT: control_change channel=2 control=7 value=83 time=0.013020729166666665
EXTRACT: control_change channel=2 control=7 value=84 time=0.011160624999999999
EXTRACT: control_change channel=2 control=7 value=85 time=0.011160624999999999
EXTRACT: control_change channel=2 control=7 value=86 time=0.013020729166666665
EXTRACT: control_change channel=2 control=7 value=87 time=0.011160624999999999
EXTRACT: control_change channel=2 control=7 value=88 time=0.024181354166666662
EXTRACT: control_change channel=2 control=7 value=89 time=0.011160624999999999
EXTRACT: control_change channel=2 control=7 value=90 time=0.013020729166666665
EXTRACT: control_change channel=2 control=7 value=91 time=0.011160624999999999
EXTRACT: control_change channel=2 control=7 value=92 time=0.013020729166666665
EXTRACT: control_change channel=2 control=7 value=93 time=0.011160624999999999
EXTRACT: control_change channel=2 control=7 value=94 time=0.011160624999999999
EXTRACT: control_change channel=2 control=7 value=95 time=0.013020729166666665
EXTRACT: control_change channel=2 control=7 value=96 time=0.011160624999999999
EXTRACT: note_off channel=1 note=68 velocity=100 time=0.13206739583333332
EXTRACT: note_off channel=1 note=60 velocity=100 time=0
EXTRACT: note_off channel=1 note=63 velocity=100 time=0
EXTRACT: note_on channel=9 note=54 velocity=127 time=0
EXTRACT: note_off channel=9 note=54 velocity=127 time=0.029761666666666662
EXTRACT: note_on channel=9 note=54 velocity=127 time=0.14880833333333332
EXTRACT: note_off channel=9 note=54 velocity=127 time=0.029761666666666662
EXTRACT: note_on channel=9 note=54 velocity=127 time=0.14880833333333332
EXTRACT: note_off channel=9 note=54 velocity=127 time=0.029761666666666662
EXTRACT: note_on channel=9 note=54 velocity=127 time=0.14880833333333332
EXTRACT: note_off channel=9 note=54 velocity=127 time=0.029761666666666662
EXTRACT: note_on channel=9 note=54 velocity=127 time=0.14880833333333332
EXTRACT: note_off channel=9 note=54 velocity=127 time=0.029761666666666662
EXTRACT: note_on channel=9 note=54 velocity=127 time=0.14880833333333332
EXTRACT: note_off channel=9 note=54 velocity=127 time=0.029761666666666662
EXTRACT: note_on channel=9 note=54 velocity=127 time=0.14880833333333332
EXTRACT: note_off channel=9 note=54 velocity=127 time=0.029761666666666662
EXTRACT: note_on channel=9 note=54 velocity=127 time=0.14880833333333332
EXTRACT: note_off channel=9 note=54 velocity=127 time=0.029761666666666662
EXTRACT: note_off channel=5 note=29 velocity=100 time=0.14880833333333332
EXTRACT: note_on channel=9 note=54 velocity=127 time=0
EXTRACT: note_off channel=9 note=54 velocity=127 time=0.029761666666666662
EXTRACT: note_on channel=9 note=54 velocity=127 time=0.14880833333333332
EXTRACT: note_off channel=9 note=54 velocity=127 time=0.029761666666666662
EXTRACT: note_on channel=9 note=54 velocity=127 time=0.14880833333333332
EXTRACT: note_off channel=9 note=54 velocity=127 time=0.029761666666666662
EXTRACT: note_on channel=6 note=56 velocity=100 time=0.13020729166666664
EXTRACT: note_on channel=9 note=54 velocity=127 time=0.018601041666666665
EXTRACT: note_off channel=9 note=54 velocity=127 time=0.029761666666666662
EXTRACT: note_off channel=6 note=56 velocity=100 time=0.13020729166666664
EXTRACT: note_on channel=6 note=62 velocity=100 time=0
EXTRACT: note_on channel=9 note=54 velocity=127 time=0.018601041666666665
EXTRACT: note_off channel=9 note=54 velocity=127 time=0.029761666666666662
EXTRACT: note_on channel=9 note=54 velocity=127 time=0.14880833333333332
EXTRACT: note_off channel=9 note=54 velocity=127 time=0.029761666666666662
EXTRACT: note_off channel=6 note=62 velocity=100 time=0.13020729166666664
EXTRACT: note_on channel=6 note=64 velocity=100 time=0
EXTRACT: note_on channel=9 note=54 velocity=127 time=0.018601041666666665
EXTRACT: note_off channel=9 note=54 velocity=127 time=0.029761666666666662
EXTRACT: note_off channel=6 note=64 velocity=100 time=0.13020729166666664
EXTRACT: note_on channel=6 note=60 velocity=100 time=0.018601041666666665
EXTRACT: note_on channel=9 note=54 velocity=127 time=0
EXTRACT: note_off channel=9 note=54 velocity=127 time=0.029761666666666662
EXTRACT: note_off channel=1 note=72 velocity=100 time=0.14880833333333332
EXTRACT: note_off channel=1 note=53 velocity=100 time=0
EXTRACT: note_on channel=1 note=48 velocity=100 time=0
EXTRACT: note_on channel=1 note=52 velocity=100 time=0
EXTRACT: note_on channel=1 note=55 velocity=100 time=0
EXTRACT: note_on channel=1 note=60 velocity=100 time=0
EXTRACT: note_on channel=1 note=64 velocity=100 time=0
EXTRACT: note_on channel=9 note=54 velocity=127 time=0
EXTRACT: note_off channel=9 note=54 velocity=127 time=0.029761666666666662
EXTRACT: note_on channel=9 note=54 velocity=127 time=0.14880833333333332
EXTRACT: note_off channel=9 note=54 velocity=127 time=0.029761666666666662
EXTRACT: note_on channel=3 note=50 velocity=100 time=0.14880833333333332
EXTRACT: note_on channel=9 note=54 velocity=127 time=0
EXTRACT: note_off channel=9 note=54 velocity=127 time=0.029761666666666662
EXTRACT: note_off channel=3 note=50 velocity=100 time=0.14880833333333332
EXTRACT: note_on channel=3 note=52 velocity=100 time=0
EXTRACT: note_off channel=6 note=60 velocity=100 time=0
EXTRACT: note_on channel=9 note=54 velocity=127 time=0
EXTRACT: note_off channel=9 note=54 velocity=127 time=0.029761666666666662
EXTRACT: note_off channel=1 note=64 velocity=100 time=0.14880833333333332
EXTRACT: note_off channel=1 note=60 velocity=100 time=0
EXTRACT: note_off channel=1 note=55 velocity=100 time=0
EXTRACT: note_off channel=1 note=52 velocity=100 time=0
EXTRACT: note_off channel=1 note=48 velocity=100 time=0
EXTRACT: note_on channel=1 note=48 velocity=100 time=0
EXTRACT: note_on channel=1 note=52 velocity=100 time=0
EXTRACT: note_on channel=1 note=55 velocity=100 time=0
EXTRACT: note_on channel=1 note=60 velocity=100 time=0
EXTRACT: note_on channel=1 note=64 velocity=100 time=0
EXTRACT: note_off channel=3 note=52 velocity=100 time=0
EXTRACT: note_on channel=3 note=55 velocity=100 time=0
EXTRACT: note_on channel=9 note=54 velocity=127 time=0
EXTRACT: note_off channel=9 note=54 velocity=127 time=0.029761666666666662
EXTRACT: note_off channel=3 note=55 velocity=100 time=0.14880833333333332
EXTRACT: note_on channel=3 note=57 velocity=100 time=0
EXTRACT: note_on channel=9 note=54 velocity=127 time=0
EXTRACT: note_off channel=9 note=54 velocity=127 time=0.029761666666666662
EXTRACT: note_off channel=1 note=64 velocity=100 time=0.14880833333333332
EXTRACT: note_off channel=1 note=60 velocity=100 time=0
EXTRACT: note_off channel=1 note=55 velocity=100 time=0
EXTRACT: note_off channel=1 note=52 velocity=100 time=0
EXTRACT: note_off channel=1 note=48 velocity=100 time=0
EXTRACT: note_on channel=1 note=48 velocity=100 time=0
EXTRACT: note_on channel=1 note=52 velocity=100 time=0
EXTRACT: note_on channel=1 note=55 velocity=100 time=0
EXTRACT: note_on channel=1 note=60 velocity=100 time=0
EXTRACT: note_on channel=1 note=64 velocity=100 time=0
EXTRACT: note_off channel=3 note=57 velocity=100 time=0
EXTRACT: note_on channel=3 note=60 velocity=100 time=0
EXTRACT: note_on channel=9 note=54 velocity=127 time=0
EXTRACT: note_off channel=9 note=54 velocity=127 time=0.029761666666666662
EXTRACT: note_off channel=3 note=60 velocity=100 time=0.14880833333333332
EXTRACT: note_on channel=3 note=62 velocity=100 time=0
EXTRACT: note_on channel=9 note=54 velocity=127 time=0
EXTRACT: note_off channel=9 note=54 velocity=127 time=0.029761666666666662
EXTRACT: note_off channel=1 note=64 velocity=100 time=0.14880833333333332
EXTRACT: note_off channel=1 note=60 velocity=100 time=0
EXTRACT: note_off channel=1 note=55 velocity=100 time=0
EXTRACT: note_off channel=1 note=52 velocity=100 time=0
EXTRACT: note_off channel=1 note=48 velocity=100 time=0
EXTRACT: note_on channel=1 note=43 velocity=100 time=0
EXTRACT: note_on channel=1 note=50 velocity=100 time=0
EXTRACT: note_on channel=1 note=55 velocity=100 time=0
EXTRACT: note_on channel=1 note=59 velocity=100 time=0
EXTRACT: note_on channel=1 note=67 velocity=100 time=0
EXTRACT: note_off channel=2 note=72 velocity=120 time=0
EXTRACT: control_change channel=2 control=7 value=96 time=0
EXTRACT: note_on channel=2 note=71 velocity=100 time=0
EXTRACT: note_off channel=3 note=62 velocity=100 time=0
EXTRACT: note_on channel=3 note=62 velocity=100 time=0
EXTRACT: note_on channel=9 note=54 velocity=127 time=0
EXTRACT: pitchwheel channel=3 pitch=256 time=0.022321249999999997
EXTRACT: note_off channel=9 note=54 velocity=127 time=0.0074404166666666655
EXTRACT: pitchwheel channel=3 pitch=384 time=0.04092229166666666
EXTRACT: pitchwheel channel=3 pitch=512 time=0.011160624999999999
EXTRACT: pitchwheel channel=3 pitch=896 time=0.013020729166666665
EXTRACT: pitchwheel channel=3 pitch=1152 time=0.011160624999999999
EXTRACT: pitchwheel channel=3 pitch=2176 time=0.013020729166666665
EXTRACT: pitchwheel channel=3 pitch=3968 time=0.011160624999999999
EXTRACT: pitchwheel channel=3 pitch=8064 time=0.011160624999999999
EXTRACT: note_on channel=9 note=54 velocity=127 time=0.03720208333333333
EXTRACT: pitchwheel channel=3 pitch=6272 time=0.011160624999999999
EXTRACT: pitchwheel channel=3 pitch=4224 time=0.011160624999999999
EXTRACT: note_off channel=9 note=54 velocity=127 time=0.0074404166666666655
EXTRACT: control_change channel=2 control=7 value=95 time=0.005580312499999999
EXTRACT: pitchwheel channel=3 pitch=1920 time=0
EXTRACT: pitchwheel channel=3 pitch=1408 time=0.011160624999999999
EXTRACT: pitchwheel channel=3 pitch=1152 time=0.013020729166666665
EXTRACT: pitchwheel channel=3 pitch=640 time=0.022321249999999997
EXTRACT: pitchwheel channel=3 pitch=0 time=0.013020729166666665
EXTRACT: note_off channel=3 note=62 velocity=100 time=0.08370468749999999
EXTRACT: note_on channel=3 note=60 velocity=100 time=0
EXTRACT: note_on channel=9 note=54 velocity=127 time=0
EXTRACT: note_off channel=9 note=54 velocity=127 time=0.029761666666666662
EXTRACT: control_change channel=2 control=7 value=94 time=0.029761666666666662
EXTRACT: note_off channel=3 note=60 velocity=100 time=0.11904666666666665
EXTRACT: note_on channel=3 note=57 velocity=100 time=0
EXTRACT: note_on channel=9 note=54 velocity=127 time=0
EXTRACT: note_off channel=9 note=54 velocity=127 time=0.029761666666666662
EXTRACT: control_change channel=2 control=7 value=93 time=0.05208291666666666
EXTRACT: note_off channel=1 note=67 velocity=100 time=0.09672541666666665
EXTRACT: note_off channel=1 note=59 velocity=100 time=0
EXTRACT: note_off channel=1 note=55 velocity=100 time=0
EXTRACT: note_off channel=1 note=50 velocity=100 time=0
EXTRACT: note_off channel=1 note=43 velocity=100 time=0
EXTRACT: note_on channel=1 note=43 velocity=100 time=0
EXTRACT: note_on channel=1 note=50 velocity=100 time=0
EXTRACT: note_on channel=1 note=55 velocity=100 time=0
EXTRACT: note_on channel=1 note=59 velocity=100 time=0
EXTRACT: note_on channel=1 note=67 velocity=100 time=0
EXTRACT: note_off channel=3 note=57 velocity=100 time=0
EXTRACT: note_on channel=3 note=60 velocity=100 time=0
EXTRACT: note_on channel=9 note=54 velocity=127 time=0
EXTRACT: note_off channel=9 note=54 velocity=127 time=0.029761666666666662
EXTRACT: control_change channel=2 control=7 value=92 time=0.07626427083333333
EXTRACT: note_on channel=9 note=54 velocity=127 time=0.07254406249999999
EXTRACT: note_off channel=9 note=54 velocity=127 time=0.029761666666666662
EXTRACT: control_change channel=2 control=7 value=91 time=0.10044562499999998
EXTRACT: note_off channel=1 note=67 velocity=100 time=0.048362708333333324
EXTRACT: note_off channel=1 note=59 velocity=100 time=0
EXTRACT: note_off channel=1 note=55 velocity=100 time=0
EXTRACT: note_off channel=1 note=50 velocity=100 time=0
EXTRACT: note_off channel=1 note=43 velocity=100 time=0
EXTRACT: note_on channel=1 note=43 velocity=100 time=0
EXTRACT: note_on channel=1 note=50 velocity=100 time=0
EXTRACT: note_on channel=1 note=55 velocity=100 time=0
EXTRACT: note_on channel=1 note=59 velocity=100 time=0
EXTRACT: note_on channel=1 note=67 velocity=100 time=0
EXTRACT: note_off channel=3 note=60 velocity=100 time=0
EXTRACT: note_on channel=3 note=62 velocity=100 time=0
EXTRACT: note_on channel=9 note=54 velocity=127 time=0
EXTRACT: note_off channel=9 note=54 velocity=127 time=0.029761666666666662
EXTRACT: control_change channel=2 control=7 value=90 time=0.12462697916666665
EXTRACT: note_off channel=3 note=62 velocity=100 time=0.024181354166666662
EXTRACT: note_on channel=3 note=60 velocity=100 time=0
EXTRACT: note_on channel=9 note=54 velocity=127 time=0
EXTRACT: note_off channel=9 note=54 velocity=127 time=0.029761666666666662
EXTRACT: note_off channel=1 note=67 velocity=100 time=0.14880833333333332
EXTRACT: note_off channel=1 note=59 velocity=100 time=0
EXTRACT: note_off channel=1 note=55 velocity=100 time=0
EXTRACT: note_off channel=1 note=50 velocity=100 time=0
EXTRACT: note_off channel=1 note=43 velocity=100 time=0
EXTRACT: note_on channel=1 note=45 velocity=100 time=0
EXTRACT: note_on channel=1 note=52 velocity=100 time=0
EXTRACT: note_on channel=1 note=57 velocity=100 time=0
EXTRACT: note_on channel=1 note=60 velocity=100 time=0
EXTRACT: note_on channel=1 note=64 velocity=100 time=0
EXTRACT: note_off channel=2 note=71 velocity=100 time=0
EXTRACT: control_change channel=2 control=7 value=89 time=0
EXTRACT: note_on channel=2 note=69 velocity=100 time=0
EXTRACT: note_off channel=3 note=60 velocity=100 time=0
EXTRACT: note_on channel=3 note=62 velocity=100 time=0
EXTRACT: note_on channel=9 note=54 velocity=127 time=0
EXTRACT: note_off channel=9 note=54 velocity=127 time=0.029761666666666662
EXTRACT: pitchwheel channel=3 pitch=128 time=0.005580312499999999
EXTRACT: pitchwheel channel=3 pitch=256 time=0.011160624999999999
EXTRACT: pitchwheel channel=3 pitch=384 time=0.013020729166666665
EXTRACT: pitchwheel channel=3 pitch=640 time=0.022321249999999997
EXTRACT: pitchwheel channel=3 pitch=1152 time=0.013020729166666665
EXTRACT: pitchwheel channel=3 pitch=1920 time=0.011160624999999999
EXTRACT: pitchwheel channel=3 pitch=2176 time=0.013020729166666665
EXTRACT: pitchwheel channel=3 pitch=4224 time=0.011160624999999999
EXTRACT: pitchwheel channel=3 pitch=4992 time=0.011160624999999999
EXTRACT: pitchwheel channel=3 pitch=5248 time=0.013020729166666665
EXTRACT: pitchwheel channel=3 pitch=5504 time=0.011160624999999999
EXTRACT: note_on channel=9 note=54 velocity=127 time=0.013020729166666665
EXTRACT: pitchwheel channel=3 pitch=5760 time=0.011160624999999999
EXTRACT: control_change channel=2 control=7 value=88 time=0.011160624999999999
EXTRACT: pitchwheel channel=3 pitch=6016 time=0
EXTRACT: note_off channel=9 note=54 velocity=127 time=0.0074404166666666655
EXTRACT: pitchwheel channel=3 pitch=6272 time=0.016740937499999997
EXTRACT: pitchwheel channel=3 pitch=6528 time=0.013020729166666665
EXTRACT: pitchwheel channel=3 pitch=6784 time=0.011160624999999999
EXTRACT: pitchwheel channel=3 pitch=7040 time=0.024181354166666662
EXTRACT: pitchwheel channel=3 pitch=7296 time=0.011160624999999999
EXTRACT: pitchwheel channel=3 pitch=7424 time=0.024181354166666662
EXTRACT: pitchwheel channel=3 pitch=7552 time=0.011160624999999999
EXTRACT: pitchwheel channel=3 pitch=7680 time=0.024181354166666662
EXTRACT: note_on channel=9 note=54 velocity=127 time=0.013020729166666665
EXTRACT: pitchwheel channel=3 pitch=7808 time=0.011160624999999999
EXTRACT: note_off channel=9 note=54 velocity=127 time=0.018601041666666665
EXTRACT: control_change channel=2 control=7 value=87 time=0.016740937499999997
EXTRACT: pitchwheel channel=3 pitch=7936 time=0.024181354166666662
EXTRACT: pitchwheel channel=3 pitch=8064 time=0.03534197916666666
EXTRACT: note_on channel=9 note=54 velocity=127 time=0.07254406249999999
EXTRACT: note_off channel=9 note=54 velocity=127 time=0.029761666666666662
EXTRACT: control_change channel=2 control=7 value=86 time=0.04092229166666666
EXTRACT: note_off channel=1 note=64 velocity=100 time=0.10788604166666665
EXTRACT: note_off channel=1 note=60 velocity=100 time=0
EXTRACT: note_off channel=1 note=57 velocity=100 time=0
EXTRACT: note_off channel=1 note=52 velocity=100 time=0
EXTRACT: note_off channel=1 note=45 velocity=100 time=0
EXTRACT: note_on channel=1 note=45 velocity=100 time=0
EXTRACT: note_on channel=1 note=52 velocity=100 time=0
EXTRACT: note_on channel=1 note=57 velocity=100 time=0
EXTRACT: note_on channel=1 note=60 velocity=100 time=0
EXTRACT: note_on channel=1 note=64 velocity=100 time=0
EXTRACT: note_on channel=9 note=54 velocity=127 time=0
EXTRACT: note_off channel=9 note=54 velocity=127 time=0.029761666666666662
EXTRACT: pitchwheel channel=3 pitch=7936 time=0.005580312499999999
EXTRACT: pitchwheel channel=3 pitch=7808 time=0.024181354166666662
EXTRACT: pitchwheel channel=3 pitch=7680 time=0.022321249999999997
EXTRACT: control_change channel=2 control=7 value=85 time=0.013020729166666665
EXTRACT: pitchwheel channel=3 pitch=7552 time=0
EXTRACT: pitchwheel channel=3 pitch=7424 time=0.011160624999999999
EXTRACT: pitchwheel channel=3 pitch=7168 time=0.013020729166666665
EXTRACT: pitchwheel channel=3 pitch=5120 time=0.011160624999999999
EXTRACT: pitchwheel channel=3 pitch=4736 time=0.011160624999999999
EXTRACT: pitchwheel channel=3 pitch=4480 time=0.013020729166666665
EXTRACT: pitchwheel channel=3 pitch=4224 time=0.011160624999999999
EXTRACT: pitchwheel channel=3 pitch=3968 time=0.013020729166666665
EXTRACT: note_on channel=9 note=54 velocity=127 time=0
EXTRACT: pitchwheel channel=3 pitch=3712 time=0.011160624999999999
EXTRACT: pitchwheel channel=3 pitch=3200 time=0.011160624999999999
EXTRACT: note_off channel=9 note=54 velocity=127 time=0.0074404166666666655
EXTRACT: pitchwheel channel=3 pitch=2688 time=0.016740937499999997
EXTRACT: pitchwheel channel=3 pitch=2432 time=0.013020729166666665
EXTRACT: pitchwheel channel=3 pitch=1920 time=0.011160624999999999
EXTRACT: pitchwheel channel=3 pitch=1664 time=0.011160624999999999
EXTRACT: pitchwheel channel=3 pitch=1152 time=0.013020729166666665
EXTRACT: pitchwheel channel=3 pitch=512 time=0.011160624999999999
EXTRACT: control_change channel=2 control=7 value=84 time=0.013020729166666665
EXTRACT: pitchwheel channel=3 pitch=0 time=0
EXTRACT: note_off channel=1 note=64 velocity=100 time=0.059523333333333324
EXTRACT: note_off channel=1 note=60 velocity=100 time=0
EXTRACT: note_off channel=1 note=57 velocity=100 time=0
EXTRACT: note_off channel=1 note=52 velocity=100 time=0
EXTRACT: note_off channel=1 note=45 velocity=100 time=0
EXTRACT: note_on channel=1 note=45 velocity=100 time=0
EXTRACT: note_on channel=1 note=52 velocity=100 time=0
EXTRACT: note_on channel=1 note=57 velocity=100 time=0
EXTRACT: note_on channel=1 note=60 velocity=100 time=0
EXTRACT: note_on channel=1 note=64 velocity=100 time=0
EXTRACT: note_off channel=3 note=62 velocity=100 time=0
EXTRACT: note_on channel=3 note=60 velocity=100 time=0
EXTRACT: note_on channel=9 note=54 velocity=127 time=0
EXTRACT: note_off channel=9 note=54 velocity=127 time=0.029761666666666662
EXTRACT: pitchwheel channel=3 pitch=0 time=0.06510364583333332
EXTRACT: pitchwheel channel=3 pitch=384 time=0.024181354166666662
EXTRACT: pitchwheel channel=3 pitch=512 time=0.011160624999999999
EXTRACT: control_change channel=2 control=7 value=83 time=0.011160624999999999
EXTRACT: pitchwheel channel=3 pitch=256 time=0.024181354166666662
EXTRACT: pitchwheel channel=3 pitch=0 time=0.013020729166666665
EXTRACT: note_on channel=9 note=54 velocity=127 time=0
EXTRACT: pitchwheel channel=3 pitch=-256 time=0.011160624999999999
EXTRACT: note_off channel=9 note=54 velocity=127 time=0.018601041666666665
EXTRACT: pitchwheel channel=3 pitch=0 time=0.029761666666666662
EXTRACT: pitchwheel channel=3 pitch=768 time=0.011160624999999999
EXTRACT: pitchwheel channel=3 pitch=-384 time=0.011160624999999999
EXTRACT: pitchwheel channel=3 pitch=-640 time=0.07254406249999999
EXTRACT: control_change channel=2 control=7 value=82 time=0.011160624999999999
EXTRACT: pitchwheel channel=3 pitch=-384 time=0
EXTRACT: note_off channel=1 note=64 velocity=100 time=0.013020729166666665
EXTRACT: note_off channel=1 note=60 velocity=100 time=0
EXTRACT: note_off channel=1 note=57 velocity=100 time=0
EXTRACT: note_off channel=1 note=52 velocity=100 time=0
EXTRACT: note_off channel=1 note=45 velocity=100 time=0
EXTRACT: note_on channel=1 note=40 velocity=100 time=0
EXTRACT: note_on channel=1 note=47 velocity=100 time=0
EXTRACT: note_on channel=1 note=52 velocity=100 time=0
EXTRACT: note_on channel=1 note=56 velocity=100 time=0
EXTRACT: note_on channel=1 note=59 velocity=100 time=0
EXTRACT: note_on channel=1 note=64 velocity=100 time=0
EXTRACT: note_off channel=2 note=69 velocity=100 time=0
EXTRACT: note_on channel=2 note=64 velocity=100 time=0
EXTRACT: pitchwheel channel=3 pitch=384 time=0
EXTRACT: note_on channel=9 note=54 velocity=127 time=0
EXTRACT: note_off channel=9 note=54 velocity=127 time=0.029761666666666662
EXTRACT: pitchwheel channel=3 pitch=-384 time=0.016740937499999997
EXTRACT: pitchwheel channel=3 pitch=640 time=0.013020729166666665
EXTRACT: pitchwheel channel=3 pitch=-128 time=0.059523333333333324
EXTRACT: note_on channel=9 note=54 velocity=127 time=0.059523333333333324
EXTRACT: control_change channel=2 control=7 value=81 time=0.011160624999999999
EXTRACT: note_off channel=9 note=54 velocity=127 time=0.018601041666666665
EXTRACT: pitchwheel channel=3 pitch=-896 time=0.005580312499999999
EXTRACT: pitchwheel channel=3 pitch=-128 time=0.011160624999999999
EXTRACT: pitchwheel channel=3 pitch=1152 time=0.013020729166666665
EXTRACT: pitchwheel channel=3 pitch=1920 time=0.011160624999999999
EXTRACT: pitchwheel channel=3 pitch=-640 time=0.059523333333333324
EXTRACT: note_on channel=9 note=38 velocity=127 time=0.018601041666666665
EXTRACT: note_off channel=9 note=38 velocity=127 time=0.016740937499999997
EXTRACT: note_off channel=3 note=60 velocity=100 time=0.013020729166666665
EXTRACT: note_on channel=3 note=60 velocity=100 time=0
EXTRACT: note_on channel=9 note=38 velocity=127 time=0
EXTRACT: note_on channel=9 note=54 velocity=127 time=0
EXTRACT: note_off channel=9 note=54 velocity=127 time=0.029761666666666662
EXTRACT: note_off channel=9 note=38 velocity=127 time=0
EXTRACT: control_change channel=2 control=7 value=80 time=0.005580312499999999
EXTRACT: pitchwheel channel=3 pitch=128 time=0.011160624999999999
EXTRACT: pitchwheel channel=3 pitch=-384 time=0.024181354166666662
EXTRACT: pitchwheel channel=3 pitch=384 time=0.011160624999999999
EXTRACT: pitchwheel channel=3 pitch=-640 time=0.013020729166666665
EXTRACT: pitchwheel channel=3 pitch=512 time=0.011160624999999999
EXTRACT: pitchwheel channel=3 pitch=640 time=0.013020729166666665
EXTRACT: pitchwheel channel=3 pitch=-256 time=0.03534197916666666
EXTRACT: pitchwheel channel=3 pitch=0 time=0.011160624999999999
EXTRACT: note_off channel=3 note=60 velocity=100 time=0.013020729166666665
EXTRACT: note_on channel=3 note=62 velocity=100 time=0
EXTRACT: note_on channel=9 note=54 velocity=127 time=0
EXTRACT: pitchwheel channel=3 pitch=256 time=0.011160624999999999
EXTRACT: note_off channel=9 note=54 velocity=127 time=0.018601041666666665
EXTRACT: pitchwheel channel=3 pitch=384 time=0.005580312499999999
EXTRACT: pitchwheel channel=3 pitch=256 time=0.011160624999999999
EXTRACT: control_change channel=2 control=7 value=79 time=0.013020729166666665
EXTRACT: pitchwheel channel=3 pitch=128 time=0.022321249999999997
EXTRACT: pitchwheel channel=3 pitch=0 time=0.013020729166666665
EXTRACT: note_off channel=1 note=64 velocity=100 time=0.08370468749999999
EXTRACT: note_off channel=1 note=59 velocity=100 time=0
EXTRACT: note_off channel=1 note=56 velocity=100 time=0
EXTRACT: note_off channel=1 note=52 velocity=100 time=0
EXTRACT: note_off channel=1 note=47 velocity=100 time=0
EXTRACT: note_off channel=1 note=40 velocity=100 time=0
EXTRACT: note_on channel=1 note=56 velocity=100 time=0
EXTRACT: note_on channel=1 note=40 velocity=100 time=0
EXTRACT: note_on channel=1 note=47 velocity=100 time=0
EXTRACT: note_on channel=1 note=52 velocity=100 time=0
EXTRACT: note_on channel=1 note=59 velocity=100 time=0
EXTRACT: note_on channel=1 note=64 velocity=100 time=0
EXTRACT: note_off channel=3 note=62 velocity=100 time=0
EXTRACT: note_on channel=3 note=60 velocity=100 time=0
EXTRACT: note_on channel=9 note=45 velocity=127 time=0
EXTRACT: note_on channel=9 note=54 velocity=127 time=0
EXTRACT: note_off channel=9 note=54 velocity=127 time=0.029761666666666662
EXTRACT: note_off channel=9 note=45 velocity=127 time=0
EXTRACT: control_change channel=2 control=7 value=78 time=0.05208291666666666
EXTRACT: note_on channel=9 note=45 velocity=127 time=0.09672541666666665
EXTRACT: note_on channel=9 note=54 velocity=127 time=0
EXTRACT: note_off channel=9 note=54 velocity=127 time=0.029761666666666662
EXTRACT: note_off channel=9 note=45 velocity=127 time=0
EXTRACT: control_change channel=2 control=7 value=77 time=0.07626427083333333
EXTRACT: note_off channel=1 note=64 velocity=100 time=0.07254406249999999
EXTRACT: note_off channel=1 note=59 velocity=100 time=0
EXTRACT: note_off channel=1 note=52 velocity=100 time=0
EXTRACT: note_off channel=1 note=47 velocity=100 time=0
EXTRACT: note_off channel=1 note=40 velocity=100 time=0
EXTRACT: note_off channel=1 note=56 velocity=100 time=0
EXTRACT: note_on channel=1 note=56 velocity=100 time=0
EXTRACT: note_on channel=1 note=40 velocity=100 time=0
EXTRACT: note_on channel=1 note=47 velocity=100 time=0
EXTRACT: note_on channel=1 note=52 velocity=100 time=0
EXTRACT: note_on channel=1 note=59 velocity=100 time=0
EXTRACT: note_on channel=1 note=64 velocity=100 time=0
EXTRACT: note_on channel=9 note=43 velocity=127 time=0
EXTRACT: note_on channel=9 note=54 velocity=127 time=0
EXTRACT: note_off channel=9 note=54 velocity=127 time=0.029761666666666662
EXTRACT: note_off channel=9 note=43 velocity=127 time=0
EXTRACT: control_change channel=2 control=7 value=76 time=0.10044562499999998
EXTRACT: note_on channel=9 note=54 velocity=127 time=0.048362708333333324
EXTRACT: note_off channel=9 note=54 velocity=127 time=0.029761666666666662
EXTRACT: control_change channel=2 control=7 value=75 time=0.12462697916666665
EXTRACT: note_off channel=1 note=64 velocity=100 time=0
EXTRACT: note_off channel=1 note=59 velocity=100 time=0
EXTRACT: note_off channel=1 note=52 velocity=100 time=0
EXTRACT: note_off channel=1 note=47 velocity=100 time=0
EXTRACT: note_off channel=1 note=40 velocity=100 time=0
EXTRACT: note_off channel=1 note=56 velocity=100 time=0
EXTRACT: note_on channel=1 note=41 velocity=100 time=0
EXTRACT: note_on channel=1 note=48 velocity=100 time=0
EXTRACT: note_on channel=1 note=53 velocity=100 time=0
EXTRACT: note_on channel=1 note=57 velocity=100 time=0
EXTRACT: note_on channel=1 note=60 velocity=100 time=0
EXTRACT: note_off channel=2 note=64 velocity=100 time=0
EXTRACT: note_on channel=2 note=65 velocity=100 time=0
EXTRACT: note_off channel=3 note=60 velocity=100 time=0
EXTRACT: note_on channel=3 note=57 velocity=100 time=0
EXTRACT: note_on channel=9 note=35 velocity=127 time=0
EXTRACT: note_on channel=9 note=36 velocity=127 time=0
EXTRACT: note_on channel=9 note=49 velocity=127 time=0
EXTRACT: note_off channel=9 note=49 velocity=127 time=0.029761666666666662
EXTRACT: note_off channel=9 note=36 velocity=127 time=0
EXTRACT: note_off channel=9 note=35 velocity=127 time=0
EXTRACT: control_change channel=2 control=7 value=74 time=0.0495421875
EXTRACT: note_off channel=3 note=57 velocity=100 time=0.02571190104166667
EXTRACT: note_on channel=3 note=55 velocity=100 time=0
EXTRACT: control_change channel=2 control=7 value=73 time=0.0237340625
EXTRACT: control_change channel=2 control=7 value=72 time=0.059621432291666665
EXTRACT: note_off channel=1 note=60 velocity=100 time=0.05489859374999999
EXTRACT: note_off channel=1 note=57 velocity=100 time=0
EXTRACT: note_off channel=1 note=53 velocity=100 time=0
EXTRACT: note_off channel=1 note=48 velocity=100 time=0
EXTRACT: note_off channel=1 note=41 velocity=100 time=0
EXTRACT: note_on channel=1 note=41 velocity=100 time=0
EXTRACT: note_on channel=1 note=48 velocity=100 time=0
EXTRACT: note_on channel=1 note=53 velocity=100 time=0
EXTRACT: note_on channel=1 note=57 velocity=100 time=0
EXTRACT: note_on channel=1 note=60 velocity=100 time=0
EXTRACT: control_change channel=2 control=7 value=71 time=0.062071328125
EXTRACT: control_change channel=2 control=7 value=70 time=0.06473192708333333
EXTRACT: note_off channel=1 note=60 velocity=100 time=0.009191145833333332
EXTRACT: note_off channel=1 note=57 velocity=100 time=0
EXTRACT: note_off channel=1 note=53 velocity=100 time=0
EXTRACT: note_off channel=1 note=48 velocity=100 time=0
EXTRACT: note_off channel=1 note=41 velocity=100 time=0
EXTRACT: note_on channel=1 note=41 velocity=100 time=0
EXTRACT: note_on channel=1 note=48 velocity=100 time=0
EXTRACT: note_on channel=1 note=53 velocity=100 time=0
EXTRACT: note_on channel=1 note=57 velocity=100 time=0
EXTRACT: note_on channel=1 note=60 velocity=100 time=0
EXTRACT: note_off channel=3 note=55 velocity=100 time=0
EXTRACT: note_on channel=3 note=45 velocity=100 time=0.050551302083333326
EXTRACT: control_change channel=2 control=7 value=69 time=0.07462666666666666
EXTRACT: note_on channel=3 note=50 velocity=100 time=0.07575749999999999
EXTRACT: note_off channel=3 note=45 velocity=100 time=0.031249765624999995
EXTRACT: control_change channel=2 control=7 value=68 time=0.078125
EXTRACT: note_off channel=1 note=60 velocity=100 time=0.0396825
EXTRACT: note_off channel=1 note=57 velocity=100 time=0
EXTRACT: note_off channel=1 note=53 velocity=100 time=0
EXTRACT: note_off channel=1 note=48 velocity=100 time=0
EXTRACT: note_off channel=1 note=41 velocity=100 time=0
EXTRACT: note_on channel=1 note=48 velocity=100 time=0
EXTRACT: note_on channel=1 note=56 velocity=100 time=0
EXTRACT: note_on channel=1 note=41 velocity=100 time=0
EXTRACT: note_on channel=1 note=53 velocity=100 time=0
EXTRACT: note_on channel=1 note=60 velocity=100 time=0
EXTRACT: note_off channel=2 note=65 velocity=100 time=0
EXTRACT: note_on channel=2 note=68 velocity=100 time=0
EXTRACT: note_on channel=3 note=50 velocity=100 time=0
EXTRACT: note_off channel=3 note=50 velocity=100 time=0.0148809375
EXTRACT: note_on channel=3 note=52 velocity=100 time=0.06659791666666666
EXTRACT: control_change channel=2 control=7 value=67 time=0.015368749999999999
EXTRACT: note_off channel=3 note=50 velocity=100 time=0.010416666666666666
EXTRACT: note_off channel=3 note=52 velocity=100 time=0.035021458333333325
EXTRACT: note_on channel=3 note=55 velocity=100 time=0.016163749999999998
EXTRACT: control_change channel=2 control=7 value=66 time=0.035021458333333325
EXTRACT: control_change channel=2 control=7 value=65 time=0.09943098958333332
EXTRACT: note_off channel=1 note=60 velocity=100 time=0.012019166666666666
EXTRACT: note_off channel=1 note=53 velocity=100 time=0
EXTRACT: note_off channel=1 note=41 velocity=100 time=0
EXTRACT: note_off channel=1 note=56 velocity=100 time=0
EXTRACT: note_off channel=1 note=48 velocity=100 time=0
EXTRACT: note_on channel=1 note=48 velocity=100 time=0
EXTRACT: note_on channel=1 note=56 velocity=100 time=0
EXTRACT: note_on channel=1 note=41 velocity=100 time=0
EXTRACT: note_on channel=1 note=53 velocity=100 time=0
EXTRACT: note_on channel=1 note=60 velocity=100 time=0
EXTRACT: control_change channel=2 control=7 value=64 time=0
EXTRACT: control_change channel=2 control=7 value=63 time=0
EXTRACT: note_on channel=3 note=52 velocity=100 time=0.08463541666666667
EXTRACT: note_off channel=3 note=55 velocity=100 time=0.029920078125
EXTRACT: note_on channel=3 note=50 velocity=100 time=0
EXTRACT: note_off channel=3 note=52 velocity=100 time=0.010190156249999999
EXTRACT: note_off channel=3 note=50 velocity=100 time=0.08184515625
EXTRACT: note_off channel=1 note=60 velocity=100 time=0.026041640624999998
EXTRACT: note_off channel=1 note=53 velocity=100 time=0
EXTRACT: note_off channel=1 note=41 velocity=100 time=0
EXTRACT: note_off channel=1 note=56 velocity=100 time=0
EXTRACT: note_off channel=1 note=48 velocity=100 time=0
EXTRACT: note_on channel=1 note=48 velocity=100 time=0
EXTRACT: note_on channel=1 note=52 velocity=100 time=0
EXTRACT: note_on channel=1 note=55 velocity=100 time=0
EXTRACT: note_on channel=1 note=60 velocity=100 time=0
EXTRACT: note_off channel=2 note=68 velocity=100 time=0
EXTRACT: note_on channel=2 note=72 velocity=70 time=0
EXTRACT: note_on channel=3 note=48 velocity=100 time=0
EXTRACT: note_on channel=5 note=36 velocity=100 time=0
EXTRACT: note_off channel=2 note=72 velocity=70 time=0.090625
EXTRACT: note_off channel=1 note=60 velocity=100 time=0
EXTRACT: note_off channel=1 note=55 velocity=100 time=0
EXTRACT: note_off channel=1 note=52 velocity=100 time=0
EXTRACT: note_off channel=1 note=48 velocity=100 time=0
EXTRACT: note_off channel=3 note=48 velocity=100 time=0
EXTRACT: note_off channel=5 note=36 velocity=100 time=0
