EXTRACT: program_change channel=1 program=35 time=0
EXTRACT: control_change channel=1 control=7 value=95 time=0
EXTRACT: control_change channel=1 control=10 value=64 time=0
EXTRACT: control_change channel=1 control=121 value=0 time=0
EXTRACT: control_change channel=1 control=123 value=0 time=0
EXTRACT: control_change channel=1 control=91 value=25 time=0
EXTRACT: control_change channel=1 control=93 value=0 time=0
EXTRACT: control_change channel=1 control=64 value=0 time=0
EXTRACT: program_change channel=2 program=0 time=0
EXTRACT: control_change channel=2 control=7 value=85 time=0
EXTRACT: control_change channel=2 control=10 value=54 time=0
EXTRACT: control_change channel=2 control=121 value=0 time=0
EXTRACT: control_change channel=2 control=123 value=0 time=0
EXTRACT: control_change channel=2 control=91 value=45 time=0
EXTRACT: control_change channel=2 control=93 value=30 time=0
EXTRACT: control_change channel=2 control=64 value=0 time=0
EXTRACT: program_change channel=3 program=24 time=0
EXTRACT: control_change channel=3 control=7 value=80 time=0
EXTRACT: control_change channel=3 control=10 value=74 time=0
EXTRACT: control_change channel=3 control=121 value=0 time=0
EXTRACT: control_change channel=3 control=123 value=0 time=0
EXTRACT: control_change channel=3 control=91 value=25 time=0
EXTRACT: control_change channel=3 control=93 value=40 time=0
EXTRACT: control_change channel=3 control=64 value=0 time=0
EXTRACT: program_change channel=4 program=26 time=0
EXTRACT: control_change channel=4 control=7 value=95 time=0
EXTRACT: control_change channel=4 control=10 value=64 time=0
EXTRACT: control_change channel=4 control=121 value=0 time=0
EXTRACT: control_change channel=4 control=123 value=0 time=0
EXTRACT: control_change channel=4 control=1 value=8 time=0
EXTRACT: control_change channel=4 control=91 value=87 time=0
EXTRACT: control_change channel=4 control=93 value=43 time=0
EXTRACT: control_change channel=4 control=5 value=127 time=0
EXTRACT: control_change channel=4 control=65 value=0 time=0
EXTRACT: program_change channel=5 program=0 time=0
EXTRACT: control_change channel=5 control=7 value=86 time=0
EXTRACT: control_change channel=5 control=10 value=49 time=0
EXTRACT: control_change channel=5 control=121 value=0 time=0
EXTRACT: control_change channel=5 control=123 value=0 time=0
EXTRACT: control_change channel=5 control=1 value=0 time=0
EXTRACT: control_change channel=5 control=91 value=40 time=0
EXTRACT: control_change channel=5 control=93 value=40 time=0
EXTRACT: program_change channel=6 program=0 time=0
EXTRACT: control_change channel=6 control=7 value=84 time=0
EXTRACT: control_change channel=6 control=10 value=44 time=0
EXTRACT: control_change channel=6 control=121 value=0 time=0
EXTRACT: control_change channel=6 control=123 value=0 time=0
EXTRACT: control_change channel=6 control=91 value=40 time=0
EXTRACT: control_change channel=6 control=93 value=40 time=0
EXTRACT: program_change channel=7 program=33 time=0
EXTRACT: control_change channel=7 control=7 value=96 time=0
EXTRACT: control_change channel=7 control=10 value=69 time=0
EXTRACT: control_change channel=7 control=121 value=0 time=0
EXTRACT: control_change channel=7 control=123 value=0 time=0
EXTRACT: control_change channel=7 control=91 value=40 time=0
EXTRACT: program_change channel=8 program=11 time=0
EXTRACT: control_change channel=8 control=7 value=73 time=0
EXTRACT: control_change channel=8 control=10 value=44 time=0
EXTRACT: program_change channel=9 program=32 time=0
EXTRACT: control_change channel=9 control=7 value=70 time=0
EXTRACT: control_change channel=9 control=10 value=59 time=0
EXTRACT: control_change channel=9 control=121 value=0 time=0
EXTRACT: control_change channel=9 control=123 value=0 time=0
EXTRACT: control_change channel=9 control=91 value=10 time=0
EXTRACT: control_change channel=9 control=93 value=5 time=0
EXTRACT: program_change channel=10 program=50 time=0
EXTRACT: control_change channel=10 control=7 value=76 time=0
EXTRACT: control_change channel=10 control=10 value=79 time=0
EXTRACT: control_change channel=10 control=121 value=0 time=0
EXTRACT: control_change channel=10 control=123 value=0 time=0
EXTRACT: control_change channel=10 control=91 value=40 time=0
EXTRACT: control_change channel=10 control=93 value=40 time=0
EXTRACT: program_change channel=11 program=50 time=0
EXTRACT: control_change channel=11 control=7 value=78 time=0
EXTRACT: control_change channel=11 control=10 value=49 time=0
EXTRACT: control_change channel=11 control=121 value=0 time=0
EXTRACT: control_change channel=11 control=123 value=0 time=0
EXTRACT: control_change channel=11 control=91 value=40 time=0
EXTRACT: control_change channel=11 control=93 value=40 time=0
EXTRACT: note_on channel=1 note=36 velocity=82 time=2.580644
EXTRACT: note_on channel=7 note=36 velocity=85 time=0
EXTRACT: note_on channel=9 note=49 velocity=40 time=0
EXTRACT: note_on channel=9 note=49 velocity=0 time=0.005376341666666667
EXTRACT: note_on channel=2 note=64 velocity=63 time=0.005376341666666667
EXTRACT: note_on channel=2 note=62 velocity=63 time=0
EXTRACT: note_on channel=2 note=59 velocity=63 time=0
EXTRACT: note_on channel=2 note=67 velocity=63 time=0
EXTRACT: note_on channel=3 note=48 velocity=50 time=0
EXTRACT: note_on channel=3 note=59 velocity=70 time=0.005376341666666667
EXTRACT: note_on channel=3 note=52 velocity=48 time=0
EXTRACT: note_on channel=3 note=62 velocity=70 time=0.016129025
EXTRACT: note_on channel=2 note=67 velocity=0 time=0.1827956166666667
EXTRACT: note_on channel=2 note=64 velocity=0 time=0
EXTRACT: note_on channel=2 note=62 velocity=0 time=0
EXTRACT: note_on channel=2 note=59 velocity=0 time=0
EXTRACT: control_change channel=3 control=64 value=127 time=0.021505366666666668
EXTRACT: note_on channel=3 note=59 velocity=0 time=0.03763439166666667
EXTRACT: note_on channel=3 note=52 velocity=0 time=0.03225805
EXTRACT: note_on channel=3 note=62 velocity=0 time=0.005376341666666667
EXTRACT: note_on channel=5 note=76 velocity=74 time=0.010752683333333334
EXTRACT: note_on channel=5 note=84 velocity=74 time=0
EXTRACT: note_on channel=9 note=38 velocity=38 time=0
EXTRACT: note_on channel=10 note=76 velocity=78 time=0
EXTRACT: note_on channel=10 note=84 velocity=78 time=0
EXTRACT: note_on channel=9 note=38 velocity=0 time=0.005376341666666667
EXTRACT: note_on channel=2 note=64 velocity=46 time=0.30645147500000003
EXTRACT: note_on channel=2 note=62 velocity=46 time=0
EXTRACT: note_on channel=2 note=59 velocity=46 time=0
EXTRACT: note_on channel=2 note=67 velocity=46 time=0
EXTRACT: note_on channel=9 note=38 velocity=58 time=0.010752683333333334
EXTRACT: note_on channel=9 note=42 velocity=48 time=0
EXTRACT: note_on channel=9 note=42 velocity=0 time=0.005376341666666667
EXTRACT: note_on channel=9 note=38 velocity=0 time=0
EXTRACT: note_on channel=3 note=52 velocity=49 time=0.005376341666666667
EXTRACT: note_on channel=3 note=59 velocity=59 time=0.010752683333333334
EXTRACT: note_on channel=3 note=62 velocity=54 time=0.010752683333333334
EXTRACT: note_on channel=2 note=67 velocity=0 time=0.18817195833333333
EXTRACT: note_on channel=2 note=64 velocity=0 time=0
EXTRACT: note_on channel=2 note=62 velocity=0 time=0
EXTRACT: note_on channel=2 note=59 velocity=0 time=0
EXTRACT: note_on channel=3 note=59 velocity=0 time=0.010752683333333334
EXTRACT: note_on channel=3 note=52 velocity=0 time=0.010752683333333334
EXTRACT: note_on channel=3 note=62 velocity=0 time=0.03225805
EXTRACT: note_on channel=5 note=84 velocity=0 time=0.043010733333333336
EXTRACT: note_on channel=5 note=76 velocity=0 time=0
EXTRACT: note_on channel=5 note=74 velocity=74 time=0.005376341666666667
EXTRACT: note_on channel=5 note=83 velocity=74 time=0
EXTRACT: note_on channel=7 note=36 velocity=0 time=0
EXTRACT: note_on channel=7 note=31 velocity=85 time=0
EXTRACT: note_on channel=9 note=38 velocity=38 time=0
EXTRACT: note_on channel=10 note=84 velocity=0 time=0
EXTRACT: note_on channel=10 note=76 velocity=0 time=0
EXTRACT: note_on channel=10 note=74 velocity=78 time=0
EXTRACT: note_on channel=10 note=83 velocity=78 time=0
EXTRACT: note_on channel=9 note=38 velocity=0 time=0.005376341666666667
EXTRACT: note_on channel=3 note=48 velocity=0 time=0.12365585833333334
EXTRACT: note_on channel=1 note=36 velocity=0 time=0.005376341666666667
EXTRACT: control_change channel=3 control=64 value=0 time=0.1290322
EXTRACT: note_on channel=1 note=36 velocity=81 time=0.059139758333333334
EXTRACT: note_on channel=7 note=31 velocity=0 time=0
EXTRACT: note_on channel=7 note=36 velocity=85 time=0
EXTRACT: note_on channel=9 note=35 velocity=58 time=0
EXTRACT: note_on channel=9 note=38 velocity=58 time=0
EXTRACT: note_on channel=9 note=38 velocity=0 time=0.005376341666666667
EXTRACT: note_on channel=9 note=35 velocity=0 time=0
EXTRACT: note_on channel=3 note=62 velocity=51 time=0.005376341666666667
EXTRACT: note_on channel=3 note=59 velocity=57 time=0.03225805
EXTRACT: note_on channel=3 note=52 velocity=44 time=0
EXTRACT: note_on channel=3 note=43 velocity=44 time=0
EXTRACT: note_on channel=3 note=59 velocity=0 time=0.16666659166666667
EXTRACT: note_on channel=3 note=62 velocity=0 time=0.026881708333333334
EXTRACT: note_on channel=3 note=52 velocity=0 time=0
EXTRACT: note_on channel=5 note=83 velocity=0 time=0.080645125
EXTRACT: note_on channel=5 note=74 velocity=0 time=0
EXTRACT: note_on channel=5 note=71 velocity=74 time=0.005376341666666667
EXTRACT: note_on channel=5 note=79 velocity=74 time=0
EXTRACT: note_on channel=7 note=36 velocity=0 time=0
EXTRACT: note_on channel=7 note=36 velocity=85 time=0
EXTRACT: note_on channel=9 note=38 velocity=38 time=0
EXTRACT: note_on channel=10 note=83 velocity=0 time=0
EXTRACT: note_on channel=10 note=74 velocity=0 time=0
EXTRACT: note_on channel=10 note=71 velocity=78 time=0
EXTRACT: note_on channel=10 note=79 velocity=78 time=0
EXTRACT: note_on channel=9 note=38 velocity=0 time=0.005376341666666667
EXTRACT: control_change channel=3 control=64 value=127 time=0.005376341666666667
EXTRACT: note_on channel=2 note=64 velocity=58 time=0.03763439166666667
EXTRACT: note_on channel=2 note=62 velocity=58 time=0
EXTRACT: note_on channel=2 note=59 velocity=58 time=0
EXTRACT: note_on channel=2 note=67 velocity=58 time=0
EXTRACT: note_on channel=3 note=62 velocity=50 time=0
EXTRACT: note_on channel=3 note=59 velocity=56 time=0
EXTRACT: note_on channel=3 note=52 velocity=40 time=0.021505366666666668
EXTRACT: note_on channel=3 note=59 velocity=0 time=0.16666659166666667
EXTRACT: note_on channel=3 note=52 velocity=0 time=0.043010733333333336
EXTRACT: note_on channel=3 note=62 velocity=0 time=0
EXTRACT: note_on channel=2 note=67 velocity=0 time=0.016129025
EXTRACT: note_on channel=2 note=64 velocity=0 time=0
EXTRACT: note_on channel=2 note=62 velocity=0 time=0
EXTRACT: note_on channel=2 note=59 velocity=0 time=0
EXTRACT: note_on channel=9 note=38 velocity=48 time=0.026881708333333334
EXTRACT: note_on channel=9 note=42 velocity=48 time=0
EXTRACT: note_on channel=9 note=42 velocity=0 time=0.005376341666666667
EXTRACT: note_on channel=9 note=38 velocity=0 time=0
EXTRACT: note_on channel=3 note=43 velocity=0 time=0.17741927500000002
EXTRACT: note_on channel=5 note=79 velocity=0 time=0.1344085416666667
EXTRACT: note_on channel=5 note=71 velocity=0 time=0
EXTRACT: note_on channel=5 note=72 velocity=74 time=0.005376341666666667
EXTRACT: note_on channel=5 note=81 velocity=74 time=0
EXTRACT: note_on channel=7 note=36 velocity=0 time=0
EXTRACT: note_on channel=7 note=31 velocity=85 time=0
EXTRACT: note_on channel=9 note=38 velocity=58 time=0
EXTRACT: note_on channel=10 note=79 velocity=0 time=0
EXTRACT: note_on channel=10 note=71 velocity=0 time=0
EXTRACT: note_on channel=10 note=72 velocity=78 time=0
EXTRACT: note_on channel=10 note=81 velocity=78 time=0
EXTRACT: note_on channel=9 note=38 velocity=0 time=0.005376341666666667
EXTRACT: note_on channel=3 note=52 velocity=50 time=0.021505366666666668
EXTRACT: note_on channel=3 note=62 velocity=59 time=0
EXTRACT: note_on channel=3 note=59 velocity=65 time=0.010752683333333334
EXTRACT: note_on channel=1 note=36 velocity=0 time=0.016129025
EXTRACT: control_change channel=3 control=64 value=0 time=0.15053756666666668
EXTRACT: note_on channel=1 note=36 velocity=78 time=0.11827951666666667
EXTRACT: note_on channel=7 note=31 velocity=0 time=0
EXTRACT: note_on channel=7 note=36 velocity=85 time=0
EXTRACT: note_on channel=9 note=35 velocity=58 time=0
EXTRACT: note_on channel=9 note=38 velocity=50 time=0
EXTRACT: note_on channel=9 note=38 velocity=0 time=0.005376341666666667
EXTRACT: note_on channel=9 note=35 velocity=0 time=0
EXTRACT: note_on channel=2 note=64 velocity=53 time=0.021505366666666668
EXTRACT: note_on channel=2 note=62 velocity=53 time=0
EXTRACT: note_on channel=2 note=59 velocity=53 time=0
EXTRACT: note_on channel=2 note=67 velocity=53 time=0
EXTRACT: note_on channel=3 note=48 velocity=50 time=0.005376341666666667
EXTRACT: note_on channel=3 note=59 velocity=0 time=0.043010733333333336
EXTRACT: note_on channel=3 note=52 velocity=0 time=0.03225805
EXTRACT: note_on channel=3 note=62 velocity=0 time=0.021505366666666668
EXTRACT: control_change channel=3 control=64 value=127 time=0.11290317500000001
EXTRACT: note_on channel=5 note=81 velocity=0 time=0.07526878333333334
EXTRACT: note_on channel=5 note=72 velocity=0 time=0
EXTRACT: note_on channel=5 note=67 velocity=74 time=0.005376341666666667
EXTRACT: note_on channel=5 note=76 velocity=74 time=0
EXTRACT: note_on channel=9 note=38 velocity=38 time=0
EXTRACT: note_on channel=10 note=81 velocity=0 time=0
EXTRACT: note_on channel=10 note=72 velocity=0 time=0
EXTRACT: note_on channel=10 note=67 velocity=78 time=0
EXTRACT: note_on channel=10 note=76 velocity=78 time=0
EXTRACT: note_on channel=9 note=38 velocity=0 time=0.005376341666666667
EXTRACT: note_on channel=9 note=38 velocity=58 time=0.3172041583333334
EXTRACT: note_on channel=9 note=42 velocity=48 time=0
EXTRACT: note_on channel=9 note=42 velocity=0 time=0.005376341666666667
EXTRACT: note_on channel=9 note=38 velocity=0 time=0
EXTRACT: note_on channel=3 note=62 velocity=52 time=0.016129025
EXTRACT: note_on channel=3 note=59 velocity=49 time=0.010752683333333334
EXTRACT: note_on channel=3 note=52 velocity=39 time=0
EXTRACT: note_on channel=2 note=67 velocity=0 time=0.016129025
EXTRACT: note_on channel=2 note=64 velocity=0 time=0
EXTRACT: note_on channel=2 note=62 velocity=0 time=0
EXTRACT: note_on channel=2 note=59 velocity=0 time=0
EXTRACT: note_on channel=1 note=36 velocity=0 time=0.010752683333333334
EXTRACT: note_on channel=5 note=76 velocity=0 time=0.2580644
EXTRACT: note_on channel=5 note=67 velocity=0 time=0
EXTRACT: note_on channel=1 note=36 velocity=76 time=0.005376341666666667
EXTRACT: note_on channel=5 note=71 velocity=74 time=0
EXTRACT: note_on channel=5 note=79 velocity=74 time=0
EXTRACT: note_on channel=7 note=36 velocity=0 time=0
EXTRACT: note_on channel=7 note=31 velocity=85 time=0
EXTRACT: note_on channel=9 note=38 velocity=38 time=0
EXTRACT: note_on channel=10 note=76 velocity=0 time=0
EXTRACT: note_on channel=10 note=67 velocity=0 time=0
EXTRACT: note_on channel=10 note=71 velocity=78 time=0
EXTRACT: note_on channel=10 note=79 velocity=78 time=0
EXTRACT: note_on channel=9 note=38 velocity=0 time=0.005376341666666667
EXTRACT: note_on channel=3 note=52 velocity=0 time=0.010752683333333334
EXTRACT: note_on channel=3 note=59 velocity=0 time=0
EXTRACT: note_on channel=2 note=64 velocity=59 time=0.026881708333333334
EXTRACT: note_on channel=2 note=62 velocity=59 time=0
EXTRACT: note_on channel=2 note=59 velocity=59 time=0
EXTRACT: note_on channel=2 note=67 velocity=59 time=0
EXTRACT: note_on channel=3 note=62 velocity=0 time=0.016129025
EXTRACT: note_on channel=3 note=48 velocity=0 time=0
EXTRACT: note_on channel=1 note=36 velocity=0 time=0.0645161
EXTRACT: note_on channel=1 note=36 velocity=69 time=0.19892464166666668
EXTRACT: note_on channel=7 note=31 velocity=0 time=0
EXTRACT: note_on channel=7 note=36 velocity=85 time=0
EXTRACT: note_on channel=9 note=35 velocity=58 time=0
EXTRACT: note_on channel=9 note=38 velocity=58 time=0
EXTRACT: note_on channel=9 note=38 velocity=0 time=0.005376341666666667
EXTRACT: note_on channel=9 note=35 velocity=0 time=0
EXTRACT: note_on channel=3 note=43 velocity=53 time=0.021505366666666668
EXTRACT: control_change channel=3 control=64 value=0 time=0.043010733333333336
EXTRACT: note_on channel=5 note=79 velocity=0 time=0.24731171666666668
EXTRACT: note_on channel=5 note=71 velocity=0 time=0
EXTRACT: note_on channel=5 note=64 velocity=74 time=0.005376341666666667
EXTRACT: note_on channel=5 note=72 velocity=74 time=0
EXTRACT: note_on channel=7 note=36 velocity=0 time=0
EXTRACT: note_on channel=7 note=36 velocity=85 time=0
EXTRACT: note_on channel=9 note=38 velocity=38 time=0
EXTRACT: note_on channel=10 note=79 velocity=0 time=0
EXTRACT: note_on channel=10 note=71 velocity=0 time=0
EXTRACT: note_on channel=10 note=64 velocity=78 time=0
EXTRACT: note_on channel=10 note=72 velocity=78 time=0
EXTRACT: note_on channel=3 note=62 velocity=51 time=0.005376341666666667
EXTRACT: note_on channel=3 note=52 velocity=38 time=0
EXTRACT: note_on channel=9 note=38 velocity=0 time=0
EXTRACT: note_on channel=3 note=59 velocity=60 time=0.010752683333333334
EXTRACT: control_change channel=3 control=64 value=127 time=0.13978488333333333
EXTRACT: note_on channel=9 note=38 velocity=48 time=0.16666659166666667
EXTRACT: note_on channel=9 note=42 velocity=48 time=0
EXTRACT: note_on channel=9 note=42 velocity=0 time=0.005376341666666667
EXTRACT: note_on channel=9 note=38 velocity=0 time=0
EXTRACT: note_on channel=1 note=36 velocity=0 time=0.15591390833333335
EXTRACT: note_on channel=3 note=43 velocity=0 time=0.026881708333333334
EXTRACT: note_on channel=2 note=67 velocity=0 time=0.10752683333333334
EXTRACT: note_on channel=2 note=64 velocity=0 time=0
EXTRACT: note_on channel=2 note=62 velocity=0 time=0
EXTRACT: note_on channel=2 note=59 velocity=0 time=0
EXTRACT: note_on channel=5 note=72 velocity=0 time=0.021505366666666668
EXTRACT: note_on channel=5 note=64 velocity=0 time=0
EXTRACT: note_on channel=1 note=36 velocity=81 time=0.005376341666666667
EXTRACT: note_on channel=5 note=74 velocity=74 time=0
EXTRACT: note_on channel=5 note=65 velocity=74 time=0
EXTRACT: note_on channel=5 note=69 velocity=74 time=0
EXTRACT: note_on channel=5 note=72 velocity=74 time=0
EXTRACT: note_on channel=7 note=36 velocity=0 time=0
EXTRACT: note_on channel=7 note=36 velocity=85 time=0
EXTRACT: note_on channel=9 note=38 velocity=58 time=0
EXTRACT: note_on channel=10 note=72 velocity=0 time=0
EXTRACT: note_on channel=10 note=64 velocity=0 time=0
EXTRACT: note_on channel=10 note=74 velocity=78 time=0
EXTRACT: note_on channel=10 note=65 velocity=78 time=0
EXTRACT: note_on channel=10 note=69 velocity=78 time=0
EXTRACT: note_on channel=10 note=72 velocity=78 time=0
EXTRACT: note_on channel=9 note=38 velocity=0 time=0.005376341666666667
EXTRACT: note_on channel=2 note=65 velocity=55 time=0.08602146666666667
EXTRACT: note_on channel=2 note=62 velocity=55 time=0
EXTRACT: note_on channel=2 note=60 velocity=55 time=0
EXTRACT: note_on channel=2 note=69 velocity=55 time=0
EXTRACT: control_change channel=3 control=64 value=0 time=0.021505366666666668
EXTRACT: note_on channel=7 note=36 velocity=0 time=0.048387075
EXTRACT: note_on channel=7 note=38 velocity=85 time=0
EXTRACT: note_on channel=1 note=36 velocity=0 time=0.016129025
EXTRACT: note_on channel=3 note=62 velocity=0 time=0.021505366666666668
EXTRACT: note_on channel=3 note=59 velocity=0 time=0.010752683333333334
EXTRACT: note_on channel=3 note=52 velocity=0 time=0.005376341666666667
EXTRACT: note_on channel=1 note=43 velocity=85 time=0.10752683333333334
EXTRACT: note_on channel=3 note=60 velocity=62 time=0
EXTRACT: note_on channel=7 note=38 velocity=0 time=0
EXTRACT: note_on channel=7 note=31 velocity=85 time=0
EXTRACT: note_on channel=9 note=35 velocity=58 time=0
EXTRACT: note_on channel=9 note=38 velocity=50 time=0
EXTRACT: note_on channel=9 note=38 velocity=0 time=0.005376341666666667
EXTRACT: note_on channel=9 note=35 velocity=0 time=0
EXTRACT: note_on channel=3 note=53 velocity=56 time=0.005376341666666667
EXTRACT: note_on channel=3 note=64 velocity=50 time=0
EXTRACT: note_on channel=3 note=43 velocity=40 time=0
EXTRACT: control_change channel=3 control=64 value=127 time=0.22580635000000002
EXTRACT: note_on channel=9 note=38 velocity=38 time=0.08602146666666667
EXTRACT: note_on channel=9 note=38 velocity=0 time=0.005376341666666667
EXTRACT: note_on channel=3 note=53 velocity=0 time=0.03225805
EXTRACT: note_on channel=3 note=60 velocity=0 time=0
EXTRACT: note_on channel=3 note=64 velocity=0 time=0.10215049166666668
EXTRACT: note_on channel=9 note=38 velocity=58 time=0.1827956166666667
EXTRACT: note_on channel=9 note=42 velocity=48 time=0
EXTRACT: note_on channel=9 note=42 velocity=0 time=0.005376341666666667
EXTRACT: note_on channel=9 note=38 velocity=0 time=0
EXTRACT: note_on channel=7 note=31 velocity=0 time=0.3172041583333334
EXTRACT: note_on channel=7 note=38 velocity=85 time=0
EXTRACT: note_on channel=9 note=38 velocity=38 time=0
EXTRACT: note_on channel=3 note=53 velocity=54 time=0.005376341666666667
EXTRACT: note_on channel=3 note=60 velocity=70 time=0
EXTRACT: note_on channel=9 note=38 velocity=0 time=0
EXTRACT: note_on channel=3 note=64 velocity=57 time=0.021505366666666668
EXTRACT: note_on channel=3 note=43 velocity=0 time=0.22580635000000002
EXTRACT: note_on channel=1 note=50 velocity=83 time=0.06989244166666667
EXTRACT: note_on channel=7 note=38 velocity=0 time=0
EXTRACT: note_on channel=7 note=43 velocity=85 time=0
EXTRACT: note_on channel=9 note=35 velocity=58 time=0
EXTRACT: note_on channel=9 note=38 velocity=58 time=0
EXTRACT: note_on channel=3 note=38 velocity=47 time=0.005376341666666667
EXTRACT: note_on channel=9 note=38 velocity=0 time=0
EXTRACT: note_on channel=9 note=35 velocity=0 time=0
EXTRACT: note_on channel=3 note=60 velocity=0 time=0.005376341666666667
EXTRACT: note_on channel=1 note=43 velocity=0 time=0.021505366666666668
EXTRACT: note_on channel=3 note=53 velocity=0 time=0.010752683333333334
EXTRACT: note_on channel=3 note=64 velocity=0 time=0.10752683333333334
EXTRACT: note_on channel=5 note=72 velocity=0 time=0.17204293333333334
EXTRACT: note_on channel=5 note=74 velocity=0 time=0
EXTRACT: note_on channel=5 note=65 velocity=0 time=0
EXTRACT: note_on channel=5 note=69 velocity=0 time=0
EXTRACT: note_on channel=5 note=65 velocity=70 time=0
EXTRACT: note_on channel=5 note=69 velocity=70 time=0
EXTRACT: note_on channel=5 note=76 velocity=70 time=0
EXTRACT: note_on channel=7 note=43 velocity=0 time=0
EXTRACT: note_on channel=7 note=43 velocity=85 time=0
EXTRACT: note_on channel=9 note=38 velocity=38 time=0
EXTRACT: note_on channel=10 note=72 velocity=0 time=0
EXTRACT: note_on channel=10 note=74 velocity=0 time=0
EXTRACT: note_on channel=10 note=65 velocity=0 time=0
EXTRACT: note_on channel=10 note=69 velocity=0 time=0
EXTRACT: note_on channel=10 note=65 velocity=78 time=0
EXTRACT: note_on channel=10 note=69 velocity=78 time=0
EXTRACT: note_on channel=10 note=76 velocity=78 time=0
EXTRACT: note_on channel=9 note=38 velocity=0 time=0.005376341666666667
EXTRACT: note_on channel=5 note=76 velocity=0 time=0.3172041583333334
EXTRACT: note_on channel=5 note=69 velocity=0 time=0
EXTRACT: note_on channel=5 note=65 velocity=0 time=0
EXTRACT: note_on channel=5 note=72 velocity=70 time=0
EXTRACT: note_on channel=9 note=38 velocity=48 time=0
EXTRACT: note_on channel=9 note=42 velocity=48 time=0
EXTRACT: note_on channel=10 note=76 velocity=0 time=0
EXTRACT: note_on channel=10 note=69 velocity=0 time=0
EXTRACT: note_on channel=10 note=65 velocity=0 time=0
EXTRACT: note_on channel=10 note=72 velocity=78 time=0
EXTRACT: note_on channel=9 note=42 velocity=0 time=0.005376341666666667
EXTRACT: note_on channel=9 note=38 velocity=0 time=0
EXTRACT: note_on channel=3 note=53 velocity=30 time=0.005376341666666667
EXTRACT: note_on channel=3 note=60 velocity=54 time=0.005376341666666667
EXTRACT: note_on channel=3 note=64 velocity=59 time=0.005376341666666667
EXTRACT: note_on channel=1 note=50 velocity=0 time=0.09139780833333334
EXTRACT: note_on channel=3 note=38 velocity=0 time=0.080645125
EXTRACT: note_on channel=1 note=50 velocity=77 time=0.1290322
EXTRACT: note_on channel=5 note=72 velocity=0 time=0
EXTRACT: note_on channel=5 note=74 velocity=64 time=0
EXTRACT: note_on channel=5 note=65 velocity=64 time=0
EXTRACT: note_on channel=5 note=69 velocity=64 time=0
EXTRACT: note_on channel=5 note=72 velocity=64 time=0
EXTRACT: note_on channel=7 note=43 velocity=0 time=0
EXTRACT: note_on channel=7 note=38 velocity=85 time=0
EXTRACT: note_on channel=9 note=38 velocity=58 time=0
EXTRACT: note_on channel=10 note=72 velocity=0 time=0
EXTRACT: note_on channel=10 note=74 velocity=78 time=0
EXTRACT: note_on channel=10 note=65 velocity=78 time=0
EXTRACT: note_on channel=10 note=69 velocity=78 time=0
EXTRACT: note_on channel=10 note=72 velocity=78 time=0
EXTRACT: note_on channel=9 note=38 velocity=0 time=0.005376341666666667
EXTRACT: note_on channel=3 note=60 velocity=0 time=0.1827956166666667
EXTRACT: note_on channel=3 note=53 velocity=0 time=0.010752683333333334
EXTRACT: note_on channel=3 note=64 velocity=0 time=0.10215049166666668
EXTRACT: note_on channel=1 note=43 velocity=72 time=0.021505366666666668
EXTRACT: note_on channel=7 note=38 velocity=0 time=0
EXTRACT: note_on channel=7 note=31 velocity=85 time=0
EXTRACT: note_on channel=9 note=35 velocity=58 time=0
EXTRACT: note_on channel=9 note=38 velocity=50 time=0
EXTRACT: note_on channel=9 note=38 velocity=0 time=0.005376341666666667
EXTRACT: note_on channel=9 note=35 velocity=0 time=0
EXTRACT: note_on channel=1 note=50 velocity=0 time=0.005376341666666667
EXTRACT: note_on channel=3 note=43 velocity=49 time=0.05376341666666667
EXTRACT: note_on channel=9 note=38 velocity=38 time=0.2580644
EXTRACT: note_on channel=9 note=38 velocity=0 time=0.005376341666666667
EXTRACT: control_change channel=3 control=64 value=0 time=0.005376341666666667
EXTRACT: note_on channel=5 note=72 velocity=0 time=0.3118278166666667
EXTRACT: note_on channel=5 note=74 velocity=0 time=0
EXTRACT: note_on channel=5 note=65 velocity=0 time=0
EXTRACT: note_on channel=5 note=69 velocity=0 time=0
EXTRACT: note_on channel=5 note=72 velocity=73 time=0
EXTRACT: note_on channel=9 note=38 velocity=58 time=0
EXTRACT: note_on channel=9 note=42 velocity=48 time=0
EXTRACT: note_on channel=10 note=72 velocity=0 time=0
EXTRACT: note_on channel=10 note=74 velocity=0 time=0
EXTRACT: note_on channel=10 note=65 velocity=0 time=0
EXTRACT: note_on channel=10 note=69 velocity=0 time=0
EXTRACT: note_on channel=10 note=72 velocity=78 time=0
EXTRACT: note_on channel=9 note=42 velocity=0 time=0.005376341666666667
EXTRACT: note_on channel=9 note=38 velocity=0 time=0
EXTRACT: note_on channel=3 note=53 velocity=42 time=0.005376341666666667
EXTRACT: note_on channel=3 note=60 velocity=54 time=0.016129025
EXTRACT: note_on channel=3 note=64 velocity=52 time=0
EXTRACT: note_on channel=1 note=43 velocity=0 time=0.09139780833333334
EXTRACT: control_change channel=3 control=64 value=127 time=0.09139780833333334
EXTRACT: note_on channel=3 note=53 velocity=0 time=0.09139780833333334
EXTRACT: note_on channel=3 note=60 velocity=0 time=0.010752683333333334
EXTRACT: note_on channel=1 note=43 velocity=75 time=0.010752683333333334
EXTRACT: note_on channel=5 note=72 velocity=0 time=0
EXTRACT: note_on channel=5 note=57 velocity=73 time=0
EXTRACT: note_on channel=5 note=60 velocity=73 time=0
EXTRACT: note_on channel=5 note=62 velocity=73 time=0
EXTRACT: note_on channel=5 note=67 velocity=73 time=0
EXTRACT: note_on channel=7 note=31 velocity=0 time=0
EXTRACT: note_on channel=7 note=38 velocity=85 time=0
EXTRACT: note_on channel=9 note=38 velocity=38 time=0
EXTRACT: note_on channel=10 note=72 velocity=0 time=0
EXTRACT: note_on channel=10 note=57 velocity=78 time=0
EXTRACT: note_on channel=10 note=60 velocity=78 time=0
EXTRACT: note_on channel=10 note=62 velocity=78 time=0
EXTRACT: note_on channel=10 note=67 velocity=78 time=0
EXTRACT: note_on channel=9 note=38 velocity=0 time=0.005376341666666667
EXTRACT: note_on channel=3 note=64 velocity=0 time=0.048387075
EXTRACT: note_on channel=3 note=43 velocity=0 time=0.16129025
EXTRACT: note_on channel=1 note=50 velocity=78 time=0.10752683333333334
EXTRACT: note_on channel=7 note=38 velocity=0 time=0
EXTRACT: note_on channel=7 note=43 velocity=85 time=0
EXTRACT: note_on channel=9 note=35 velocity=58 time=0
EXTRACT: note_on channel=9 note=38 velocity=58 time=0
EXTRACT: note_on channel=3 note=38 velocity=52 time=0.005376341666666667
EXTRACT: note_on channel=9 note=38 velocity=0 time=0
EXTRACT: note_on channel=9 note=35 velocity=0 time=0
EXTRACT: note_on channel=1 note=43 velocity=0 time=0.03763439166666667
EXTRACT: note_on channel=7 note=43 velocity=0 time=0.27956976666666666
EXTRACT: note_on channel=7 note=43 velocity=85 time=0
EXTRACT: note_on channel=9 note=38 velocity=38 time=0
EXTRACT: note_on channel=9 note=38 velocity=0 time=0.005376341666666667
EXTRACT: note_on channel=3 note=64 velocity=61 time=0.021505366666666668
EXTRACT: note_on channel=3 note=53 velocity=42 time=0.021505366666666668
EXTRACT: note_on channel=3 note=60 velocity=57 time=0
EXTRACT: note_on channel=1 note=50 velocity=0 time=0.05376341666666667
EXTRACT: note_on channel=1 note=50 velocity=71 time=0.22043000833333334
EXTRACT: note_on channel=7 note=43 velocity=0 time=0
EXTRACT: note_on channel=7 note=31 velocity=85 time=0
EXTRACT: note_on channel=9 note=38 velocity=48 time=0
EXTRACT: note_on channel=9 note=42 velocity=48 time=0
EXTRACT: note_on channel=9 note=42 velocity=0 time=0.005376341666666667
EXTRACT: note_on channel=9 note=38 velocity=0 time=0
EXTRACT: note_on channel=3 note=60 velocity=0 time=0.005376341666666667
EXTRACT: note_on channel=3 note=53 velocity=0 time=0.010752683333333334
EXTRACT: note_on channel=3 note=64 velocity=0 time=0.021505366666666668
EXTRACT: note_on channel=3 note=38 velocity=0 time=0.07526878333333334
EXTRACT: note_on channel=4 note=55 velocity=85 time=0
EXTRACT: note_on channel=5 note=67 velocity=0 time=0
EXTRACT: note_on channel=5 note=57 velocity=0 time=0
EXTRACT: note_on channel=5 note=60 velocity=0 time=0
EXTRACT: note_on channel=5 note=62 velocity=0 time=0
EXTRACT: note_on channel=5 note=55 velocity=73 time=0
EXTRACT: note_on channel=9 note=38 velocity=58 time=0
EXTRACT: note_on channel=10 note=67 velocity=0 time=0
EXTRACT: note_on channel=10 note=57 velocity=0 time=0
EXTRACT: note_on channel=10 note=60 velocity=0 time=0
EXTRACT: note_on channel=10 note=62 velocity=0 time=0
EXTRACT: note_on channel=10 note=55 velocity=78 time=0
EXTRACT: note_on channel=11 note=55 velocity=78 time=0
EXTRACT: note_on channel=9 note=38 velocity=0 time=0.005376341666666667
EXTRACT: note_on channel=1 note=50 velocity=0 time=0.17741927500000002
EXTRACT: note_on channel=2 note=69 velocity=0 time=0.09677415
EXTRACT: note_on channel=2 note=65 velocity=0 time=0
EXTRACT: note_on channel=2 note=62 velocity=0 time=0
EXTRACT: note_on channel=2 note=60 velocity=0 time=0
EXTRACT: note_on channel=1 note=48 velocity=80 time=0
EXTRACT: control_change channel=3 control=64 value=0 time=0
EXTRACT: note_on channel=4 note=55 velocity=0 time=0
EXTRACT: note_on channel=4 note=64 velocity=85 time=0
EXTRACT: note_on channel=5 note=55 velocity=0 time=0
EXTRACT: note_on channel=5 note=64 velocity=82 time=0
EXTRACT: note_on channel=6 note=55 velocity=82 time=0
EXTRACT: note_on channel=6 note=59 velocity=82 time=0
EXTRACT: note_on channel=7 note=31 velocity=0 time=0
EXTRACT: note_on channel=7 note=36 velocity=85 time=0
EXTRACT: note_on channel=9 note=35 velocity=58 time=0
EXTRACT: note_on channel=9 note=38 velocity=50 time=0
EXTRACT: note_on channel=10 note=55 velocity=0 time=0
EXTRACT: note_on channel=10 note=64 velocity=78 time=0
EXTRACT: note_on channel=11 note=55 velocity=0 time=0
EXTRACT: note_on channel=11 note=64 velocity=78 time=0
EXTRACT: note_on channel=9 note=38 velocity=0 time=0.005376341666666667
EXTRACT: note_on channel=9 note=35 velocity=0 time=0
EXTRACT: note_on channel=3 note=59 velocity=69 time=0.005376341666666667
EXTRACT: note_on channel=3 note=48 velocity=49 time=0
EXTRACT: note_on channel=3 note=52 velocity=47 time=0.005376341666666667
EXTRACT: note_on channel=3 note=62 velocity=69 time=0.005376341666666667
EXTRACT: control_change channel=3 control=64 value=127 time=0.21505366666666667
EXTRACT: note_on channel=3 note=59 velocity=0 time=0.03225805
EXTRACT: note_on channel=3 note=62 velocity=0 time=0.03225805
EXTRACT: note_on channel=3 note=52 velocity=0 time=0.005376341666666667
EXTRACT: note_on channel=4 note=64 velocity=0 time=0
EXTRACT: note_on channel=4 note=64 velocity=85 time=0
EXTRACT: note_on channel=5 note=64 velocity=0 time=0
EXTRACT: note_on channel=5 note=64 velocity=82 time=0
EXTRACT: note_on channel=9 note=38 velocity=38 time=0
EXTRACT: note_on channel=10 note=64 velocity=0 time=0
EXTRACT: note_on channel=10 note=64 velocity=78 time=0
EXTRACT: note_on channel=11 note=64 velocity=0 time=0
EXTRACT: note_on channel=11 note=64 velocity=78 time=0
EXTRACT: note_on channel=9 note=38 velocity=0 time=0.005376341666666667
EXTRACT: note_on channel=4 note=64 velocity=0 time=0
EXTRACT: note_on channel=4 note=65 velocity=85 time=0
EXTRACT: note_on channel=5 note=64 velocity=0 time=0
EXTRACT: note_on channel=5 note=65 velocity=82 time=0
EXTRACT: note_on channel=9 note=38 velocity=58 time=0
EXTRACT: note_on channel=9 note=42 velocity=48 time=0
EXTRACT: note_on channel=10 note=64 velocity=0 time=0
EXTRACT: note_on channel=10 note=65 velocity=78 time=0
EXTRACT: note_on channel=11 note=64 velocity=0 time=0
EXTRACT: note_on channel=11 note=65 velocity=78 time=0
EXTRACT: note_on channel=9 note=42 velocity=0 time=0.005376341666666667
EXTRACT: note_on channel=9 note=38 velocity=0 time=0
EXTRACT: note_on channel=3 note=52 velocity=48 time=0.005376341666666667
EXTRACT: note_on channel=3 note=59 velocity=58 time=0.005376341666666667
EXTRACT: note_on channel=3 note=62 velocity=53 time=0.005376341666666667
EXTRACT: note_on channel=3 note=59 velocity=0 time=0.20430098333333335
EXTRACT: note_on channel=3 note=52 velocity=0 time=0.016129025
EXTRACT: note_on channel=3 note=62 velocity=0 time=0.021505366666666668
EXTRACT: note_on channel=4 note=65 velocity=0 time=0
EXTRACT: note_on channel=4 note=64 velocity=85 time=0
EXTRACT: note_on channel=5 note=65 velocity=0 time=0
EXTRACT: note_on channel=5 note=64 velocity=82 time=0
EXTRACT: note_on channel=6 note=59 velocity=0 time=0
EXTRACT: note_on channel=6 note=55 velocity=0 time=0
EXTRACT: note_on channel=6 note=55 velocity=82 time=0
EXTRACT: note_on channel=6 note=59 velocity=82 time=0
EXTRACT: note_on channel=9 note=38 velocity=38 time=0
EXTRACT: note_on channel=10 note=65 velocity=0 time=0
EXTRACT: note_on channel=10 note=64 velocity=78 time=0
EXTRACT: note_on channel=11 note=65 velocity=0 time=0
EXTRACT: note_on channel=11 note=64 velocity=78 time=0
EXTRACT: note_on channel=9 note=38 velocity=0 time=0.005376341666666667
EXTRACT: note_on channel=2 note=64 velocity=55 time=0.021505366666666668
EXTRACT: note_on channel=2 note=62 velocity=55 time=0
EXTRACT: note_on channel=2 note=59 velocity=55 time=0
EXTRACT: note_on channel=2 note=67 velocity=55 time=0
EXTRACT: note_on channel=3 note=48 velocity=0 time=0.10215049166666668
EXTRACT: control_change channel=3 control=64 value=0 time=0.1344085416666667
EXTRACT: note_on channel=1 note=43 velocity=77 time=0.059139758333333334
EXTRACT: note_on channel=9 note=35 velocity=58 time=0
EXTRACT: note_on channel=9 note=38 velocity=58 time=0
EXTRACT: note_on channel=9 note=38 velocity=0 time=0.005376341666666667
EXTRACT: note_on channel=9 note=35 velocity=0 time=0
EXTRACT: note_on channel=3 note=62 velocity=50 time=0.005376341666666667
EXTRACT: note_on channel=3 note=59 velocity=56 time=0.03225805
EXTRACT: note_on channel=3 note=52 velocity=43 time=0
EXTRACT: note_on channel=3 note=43 velocity=43 time=0
EXTRACT: note_on channel=1 note=48 velocity=0 time=0.043010733333333336
EXTRACT: note_on channel=3 note=59 velocity=0 time=0.12365585833333334
EXTRACT: note_on channel=3 note=62 velocity=0 time=0.026881708333333334
EXTRACT: note_on channel=3 note=52 velocity=0 time=0
EXTRACT: note_on channel=7 note=36 velocity=0 time=0.08602146666666667
EXTRACT: note_on channel=7 note=36 velocity=85 time=0
EXTRACT: note_on channel=9 note=38 velocity=38 time=0
EXTRACT: note_on channel=9 note=38 velocity=0 time=0.005376341666666667
EXTRACT: control_change channel=3 control=64 value=127 time=0.005376341666666667
EXTRACT: note_on channel=3 note=62 velocity=49 time=0.03763439166666667
EXTRACT: note_on channel=3 note=59 velocity=55 time=0
EXTRACT: note_on channel=3 note=52 velocity=39 time=0.021505366666666668
EXTRACT: note_on channel=3 note=59 velocity=0 time=0.16666659166666667
EXTRACT: note_on channel=3 note=52 velocity=0 time=0.043010733333333336
EXTRACT: note_on channel=3 note=62 velocity=0 time=0
EXTRACT: note_on channel=7 note=36 velocity=0 time=0.043010733333333336
EXTRACT: note_on channel=7 note=43 velocity=85 time=0
EXTRACT: note_on channel=9 note=38 velocity=48 time=0
EXTRACT: note_on channel=9 note=42 velocity=48 time=0
EXTRACT: note_on channel=9 note=42 velocity=0 time=0.005376341666666667
EXTRACT: note_on channel=9 note=38 velocity=0 time=0
EXTRACT: note_on channel=3 note=43 velocity=0 time=0.17741927500000002
EXTRACT: note_on channel=4 note=64 velocity=0 time=0.09677415
EXTRACT: note_on channel=11 note=64 velocity=0 time=0
EXTRACT: note_on channel=4 note=55 velocity=85 time=0
EXTRACT: note_on channel=5 note=64 velocity=0 time=0
EXTRACT: note_on channel=5 note=55 velocity=82 time=0
EXTRACT: note_on channel=6 note=59 velocity=0 time=0
EXTRACT: note_on channel=6 note=55 velocity=0 time=0
EXTRACT: note_on channel=7 note=43 velocity=0 time=0
EXTRACT: note_on channel=7 note=36 velocity=85 time=0
EXTRACT: note_on channel=9 note=38 velocity=58 time=0
EXTRACT: note_on channel=10 note=64 velocity=0 time=0
EXTRACT: note_on channel=10 note=55 velocity=78 time=0
EXTRACT: note_on channel=11 note=55 velocity=78 time=0
EXTRACT: note_on channel=9 note=38 velocity=0 time=0.005376341666666667
EXTRACT: note_on channel=3 note=52 velocity=49 time=0.021505366666666668
EXTRACT: note_on channel=3 note=62 velocity=58 time=0
EXTRACT: note_on channel=3 note=59 velocity=64 time=0.010752683333333334
EXTRACT: note_on channel=4 note=55 velocity=0 time=0
EXTRACT: note_on channel=4 note=55 velocity=85 time=0
EXTRACT: note_on channel=5 note=55 velocity=0 time=0
EXTRACT: note_on channel=5 note=55 velocity=82 time=0
EXTRACT: note_on channel=10 note=55 velocity=0 time=0
EXTRACT: note_on channel=10 note=55 velocity=78 time=0
EXTRACT: note_on channel=11 note=55 velocity=0 time=0
EXTRACT: note_on channel=11 note=55 velocity=78 time=0
EXTRACT: control_change channel=3 control=64 value=0 time=0.043010733333333336
EXTRACT: note_on channel=3 note=52 velocity=0 time=0.010752683333333334
EXTRACT: note_on channel=3 note=59 velocity=0 time=0.021505366666666668
EXTRACT: note_on channel=3 note=62 velocity=0 time=0
EXTRACT: note_on channel=1 note=43 velocity=0 time=0
EXTRACT: note_on channel=1 note=36 velocity=77 time=0
EXTRACT: note_on channel=2 note=67 velocity=0 time=0
EXTRACT: note_on channel=2 note=64 velocity=0 time=0
EXTRACT: note_on channel=2 note=62 velocity=0 time=0
EXTRACT: note_on channel=2 note=59 velocity=0 time=0
EXTRACT: control_change channel=3 control=64 value=0 time=0
EXTRACT: control_change channel=3 control=64 value=0 time=0
EXTRACT: note_on channel=4 note=55 velocity=0 time=0
EXTRACT: note_on channel=4 note=64 velocity=85 time=0
EXTRACT: note_on channel=5 note=55 velocity=0 time=0
EXTRACT: note_on channel=5 note=64 velocity=82 time=0
EXTRACT: note_on channel=6 note=57 velocity=82 time=0
EXTRACT: note_on channel=6 note=60 velocity=82 time=0
EXTRACT: note_on channel=7 note=36 velocity=0 time=0
EXTRACT: note_on channel=7 note=36 velocity=85 time=0
EXTRACT: note_on channel=9 note=35 velocity=58 time=0
EXTRACT: note_on channel=9 note=38 velocity=50 time=0
EXTRACT: note_on channel=10 note=55 velocity=0 time=0
EXTRACT: note_on channel=10 note=64 velocity=78 time=0
EXTRACT: note_on channel=11 note=55 velocity=0 time=0
EXTRACT: note_on channel=11 note=64 velocity=78 time=0
EXTRACT: note_on channel=9 note=38 velocity=0 time=0.005376341666666667
EXTRACT: note_on channel=9 note=35 velocity=0 time=0
EXTRACT: note_on channel=2 note=72 velocity=62 time=0.005376341666666667
EXTRACT: control_change channel=3 control=64 value=127 time=0.15591390833333335
EXTRACT: note_on channel=4 note=64 velocity=0 time=0
EXTRACT: note_on channel=4 note=64 velocity=85 time=0
EXTRACT: note_on channel=5 note=64 velocity=0 time=0
EXTRACT: note_on channel=5 note=64 velocity=82 time=0
EXTRACT: note_on channel=9 note=38 velocity=38 time=0
EXTRACT: note_on channel=10 note=64 velocity=0 time=0
EXTRACT: note_on channel=10 note=64 velocity=78 time=0
EXTRACT: note_on channel=11 note=64 velocity=0 time=0
EXTRACT: note_on channel=11 note=64 velocity=78 time=0
EXTRACT: note_on channel=9 note=38 velocity=0 time=0.005376341666666667
EXTRACT: control_change channel=2 control=64 value=127 time=0
EXTRACT: note_on channel=2 note=64 velocity=54 time=0
EXTRACT: note_on channel=2 note=60 velocity=54 time=0
EXTRACT: note_on channel=2 note=57 velocity=54 time=0
EXTRACT: note_on channel=2 note=67 velocity=54 time=0
EXTRACT: note_on channel=4 note=64 velocity=0 time=0
EXTRACT: note_on channel=4 note=65 velocity=85 time=0
EXTRACT: note_on channel=5 note=64 velocity=0 time=0
EXTRACT: note_on channel=5 note=65 velocity=82 time=0
EXTRACT: note_on channel=9 note=38 velocity=58 time=0
EXTRACT: note_on channel=9 note=42 velocity=48 time=0
EXTRACT: note_on channel=10 note=64 velocity=0 time=0
EXTRACT: note_on channel=10 note=65 velocity=78 time=0
EXTRACT: note_on channel=11 note=64 velocity=0 time=0
EXTRACT: note_on channel=11 note=65 velocity=78 time=0
EXTRACT: note_on channel=9 note=42 velocity=0 time=0.005376341666666667
EXTRACT: note_on channel=9 note=38 velocity=0 time=0
EXTRACT: note_on channel=3 note=57 velocity=63 time=0.03225805
EXTRACT: note_on channel=3 note=60 velocity=48 time=0
EXTRACT: note_on channel=3 note=52 velocity=37 time=0.03225805
EXTRACT: note_on channel=2 note=67 velocity=0 time=0.1290322
EXTRACT: note_on channel=2 note=60 velocity=0 time=0
EXTRACT: note_on channel=2 note=57 velocity=0 time=0
EXTRACT: note_on channel=2 note=64 velocity=0 time=0
EXTRACT: note_on channel=3 note=57 velocity=0 time=0.080645125
EXTRACT: note_on channel=1 note=36 velocity=0 time=0
EXTRACT: note_on channel=1 note=43 velocity=71 time=0
EXTRACT: note_on channel=4 note=65 velocity=0 time=0
EXTRACT: note_on channel=4 note=64 velocity=85 time=0
EXTRACT: note_on channel=5 note=65 velocity=0 time=0
EXTRACT: note_on channel=5 note=64 velocity=82 time=0
EXTRACT: note_on channel=6 note=60 velocity=0 time=0
EXTRACT: note_on channel=6 note=57 velocity=0 time=0
EXTRACT: note_on channel=6 note=57 velocity=82 time=0
EXTRACT: note_on channel=6 note=60 velocity=82 time=0
EXTRACT: note_on channel=9 note=38 velocity=38 time=0
EXTRACT: note_on channel=10 note=65 velocity=0 time=0
EXTRACT: note_on channel=10 note=64 velocity=78 time=0
EXTRACT: note_on channel=11 note=65 velocity=0 time=0
EXTRACT: note_on channel=11 note=64 velocity=78 time=0
EXTRACT: note_on channel=3 note=60 velocity=0 time=0.005376341666666667
EXTRACT: note_on channel=9 note=38 velocity=0 time=0
EXTRACT: note_on channel=3 note=52 velocity=0 time=0.010752683333333334
EXTRACT: note_on channel=1 note=43 velocity=0 time=0.15053756666666668
EXTRACT: note_on channel=1 note=43 velocity=81 time=0.15591390833333335
EXTRACT: note_on channel=9 note=35 velocity=58 time=0
EXTRACT: note_on channel=9 note=38 velocity=58 time=0
EXTRACT: note_on channel=9 note=38 velocity=0 time=0.005376341666666667
EXTRACT: note_on channel=9 note=35 velocity=0 time=0
EXTRACT: note_on channel=4 note=64 velocity=0 time=0.30645147500000003
EXTRACT: note_on channel=11 note=64 velocity=0 time=0
EXTRACT: note_on channel=2 note=64 velocity=54 time=0
EXTRACT: note_on channel=2 note=60 velocity=54 time=0
EXTRACT: note_on channel=2 note=57 velocity=54 time=0
EXTRACT: note_on channel=2 note=67 velocity=54 time=0
EXTRACT: note_on channel=3 note=60 velocity=51 time=0
EXTRACT: note_on channel=3 note=52 velocity=46 time=0
EXTRACT: note_on channel=4 note=69 velocity=85 time=0
EXTRACT: note_on channel=5 note=64 velocity=0 time=0
EXTRACT: note_on channel=5 note=69 velocity=82 time=0
EXTRACT: note_on channel=6 note=60 velocity=0 time=0
EXTRACT: note_on channel=6 note=57 velocity=0 time=0
EXTRACT: note_on channel=6 note=60 velocity=82 time=0
EXTRACT: note_on channel=6 note=64 velocity=82 time=0
EXTRACT: note_on channel=9 note=38 velocity=38 time=0
EXTRACT: note_on channel=10 note=64 velocity=0 time=0
EXTRACT: note_on channel=10 note=69 velocity=78 time=0
EXTRACT: note_on channel=11 note=69 velocity=78 time=0
EXTRACT: note_on channel=9 note=38 velocity=0 time=0.005376341666666667
EXTRACT: note_on channel=3 note=57 velocity=69 time=0.010752683333333334
EXTRACT: note_on channel=2 note=67 velocity=0 time=0.16666659166666667
EXTRACT: note_on channel=2 note=60 velocity=0 time=0
EXTRACT: note_on channel=2 note=57 velocity=0 time=0
EXTRACT: note_on channel=2 note=64 velocity=0 time=0
EXTRACT: note_on channel=1 note=43 velocity=0 time=0.059139758333333334
EXTRACT: note_on channel=3 note=57 velocity=0 time=0.005376341666666667
EXTRACT: note_on channel=3 note=52 velocity=0 time=0.021505366666666668
EXTRACT: note_on channel=3 note=60 velocity=0 time=0
EXTRACT: note_on channel=1 note=36 velocity=81 time=0.05376341666666667
EXTRACT: note_on channel=9 note=38 velocity=48 time=0
EXTRACT: note_on channel=9 note=42 velocity=48 time=0
EXTRACT: note_on channel=9 note=42 velocity=0 time=0.005376341666666667
EXTRACT: note_on channel=9 note=38 velocity=0 time=0
EXTRACT: note_on channel=4 note=69 velocity=0 time=0.30645147500000003
EXTRACT: note_on channel=11 note=69 velocity=0 time=0
EXTRACT: note_on channel=4 note=67 velocity=85 time=0
EXTRACT: note_on channel=5 note=69 velocity=0 time=0
EXTRACT: note_on channel=5 note=67 velocity=82 time=0
EXTRACT: note_on channel=6 note=64 velocity=0 time=0
EXTRACT: note_on channel=6 note=60 velocity=0 time=0
EXTRACT: note_on channel=7 note=36 velocity=0 time=0
EXTRACT: note_on channel=7 note=43 velocity=85 time=0
EXTRACT: note_on channel=9 note=38 velocity=58 time=0
EXTRACT: note_on channel=10 note=69 velocity=0 time=0
EXTRACT: note_on channel=10 note=67 velocity=78 time=0
EXTRACT: note_on channel=11 note=67 velocity=78 time=0
EXTRACT: note_on channel=9 note=38 velocity=0 time=0.005376341666666667
EXTRACT: control_change channel=3 control=64 value=0 time=0.06989244166666667
EXTRACT: note_on channel=3 note=40 velocity=53 time=0
EXTRACT: note_on channel=3 note=59 velocity=45 time=0
EXTRACT: note_on channel=3 note=55 velocity=59 time=0
EXTRACT: note_on channel=3 note=50 velocity=49 time=0
EXTRACT: note_on channel=4 note=67 velocity=0 time=0.08602146666666667
EXTRACT: note_on channel=4 note=69 velocity=85 time=0
EXTRACT: note_on channel=5 note=67 velocity=0 time=0
EXTRACT: note_on channel=5 note=69 velocity=82 time=0
EXTRACT: note_on channel=10 note=67 velocity=0 time=0
EXTRACT: note_on channel=10 note=69 velocity=78 time=0
EXTRACT: note_on channel=11 note=67 velocity=0 time=0
EXTRACT: note_on channel=11 note=69 velocity=78 time=0
EXTRACT: note_on channel=1 note=36 velocity=0 time=0.10752683333333334
EXTRACT: note_on channel=1 note=40 velocity=86 time=0.05376341666666667
EXTRACT: note_on channel=2 note=72 velocity=0 time=0
EXTRACT: control_change channel=2 control=64 value=0 time=0
EXTRACT: note_on channel=2 note=59 velocity=56 time=0
EXTRACT: note_on channel=4 note=69 velocity=0 time=0
EXTRACT: note_on channel=4 note=67 velocity=85 time=0
EXTRACT: note_on channel=5 note=69 velocity=0 time=0
EXTRACT: note_on channel=5 note=67 velocity=82 time=0
EXTRACT: note_on channel=6 note=59 velocity=82 time=0
EXTRACT: note_on channel=6 note=62 velocity=82 time=0
EXTRACT: note_on channel=7 note=43 velocity=0 time=0
EXTRACT: note_on channel=7 note=40 velocity=85 time=0
EXTRACT: note_on channel=9 note=35 velocity=58 time=0
EXTRACT: note_on channel=9 note=38 velocity=50 time=0
EXTRACT: note_on channel=10 note=69 velocity=0 time=0
EXTRACT: note_on channel=10 note=67 velocity=78 time=0
EXTRACT: note_on channel=11 note=69 velocity=0 time=0
EXTRACT: note_on channel=11 note=67 velocity=78 time=0
EXTRACT: note_on channel=9 note=38 velocity=0 time=0.005376341666666667
EXTRACT: note_on channel=9 note=35 velocity=0 time=0
EXTRACT: note_on channel=2 note=55 velocity=67 time=0.043010733333333336
EXTRACT: note_on channel=2 note=50 velocity=39 time=0
EXTRACT: note_on channel=2 note=62 velocity=61 time=0.09677415
EXTRACT: note_on channel=3 note=55 velocity=0 time=0.080645125
EXTRACT: control_change channel=3 control=64 value=127 time=0
EXTRACT: note_on channel=2 note=64 velocity=52 time=0.0645161
EXTRACT: note_on channel=3 note=50 velocity=0 time=0.005376341666666667
EXTRACT: note_on channel=3 note=59 velocity=0 time=0
EXTRACT: note_on channel=9 note=38 velocity=38 time=0.026881708333333334
EXTRACT: note_on channel=9 note=38 velocity=0 time=0.005376341666666667
EXTRACT: control_change channel=2 control=64 value=127 time=0.15591390833333335
EXTRACT: note_on channel=9 note=38 velocity=58 time=0.16129025
EXTRACT: note_on channel=9 note=42 velocity=48 time=0
EXTRACT: note_on channel=9 note=42 velocity=0 time=0.005376341666666667
EXTRACT: note_on channel=9 note=38 velocity=0 time=0
EXTRACT: note_on channel=3 note=59 velocity=58 time=0.005376341666666667
EXTRACT: note_on channel=3 note=55 velocity=63 time=0.005376341666666667
EXTRACT: note_on channel=3 note=50 velocity=45 time=0.010752683333333334
EXTRACT: note_on channel=3 note=55 velocity=0 time=0.22580635000000002
EXTRACT: note_on channel=3 note=50 velocity=0 time=0.048387075
EXTRACT: note_on channel=9 note=38 velocity=38 time=0.021505366666666668
EXTRACT: note_on channel=3 note=59 velocity=0 time=0.005376341666666667
EXTRACT: note_on channel=9 note=38 velocity=0 time=0
EXTRACT: note_on channel=3 note=40 velocity=0 time=0.10752683333333334
EXTRACT: control_change channel=2 control=0 value=0 time=0.048387075
EXTRACT: note_on channel=1 note=47 velocity=75 time=0.16129025
EXTRACT: note_on channel=6 note=62 velocity=0 time=0
EXTRACT: note_on channel=6 note=59 velocity=0 time=0
EXTRACT: note_on channel=6 note=59 velocity=82 time=0
EXTRACT: note_on channel=6 note=62 velocity=82 time=0
EXTRACT: note_on channel=9 note=35 velocity=58 time=0
EXTRACT: note_on channel=9 note=38 velocity=58 time=0
EXTRACT: note_on channel=3 note=35 velocity=55 time=0.005376341666666667
EXTRACT: note_on channel=9 note=38 velocity=0 time=0
EXTRACT: note_on channel=9 note=35 velocity=0 time=0
EXTRACT: note_on channel=1 note=40 velocity=0 time=0.03225805
EXTRACT: control_change channel=3 control=64 value=0 time=0.11827951666666667
EXTRACT: note_on channel=9 note=38 velocity=38 time=0.16666659166666667
EXTRACT: note_on channel=9 note=38 velocity=0 time=0.005376341666666667
EXTRACT: note_on channel=3 note=50 velocity=42 time=0.021505366666666668
EXTRACT: note_on channel=3 note=55 velocity=57 time=0.010752683333333334
EXTRACT: note_on channel=3 note=59 velocity=46 time=0
EXTRACT: control_change channel=2 control=0 value=0 time=0.12365585833333334
EXTRACT: note_on channel=7 note=40 velocity=0 time=0
EXTRACT: note_on channel=7 note=47 velocity=85 time=0
EXTRACT: note_on channel=7 note=47 velocity=0 time=0.16129025
EXTRACT: note_on channel=7 note=52 velocity=85 time=0
EXTRACT: note_on channel=9 note=38 velocity=48 time=0
EXTRACT: note_on channel=9 note=42 velocity=48 time=0
EXTRACT: note_on channel=9 note=42 velocity=0 time=0.005376341666666667
EXTRACT: note_on channel=9 note=38 velocity=0 time=0
EXTRACT: note_on channel=1 note=47 velocity=0 time=0.1344085416666667
EXTRACT: note_on channel=1 note=47 velocity=70 time=0.1827956166666667
EXTRACT: note_on channel=7 note=52 velocity=0 time=0
EXTRACT: note_on channel=7 note=47 velocity=85 time=0
EXTRACT: note_on channel=9 note=38 velocity=58 time=0
EXTRACT: note_on channel=9 note=38 velocity=0 time=0.005376341666666667
EXTRACT: note_on channel=3 note=55 velocity=0 time=0.016129025
EXTRACT: note_on channel=3 note=50 velocity=0 time=0.048387075
EXTRACT: note_on channel=3 note=35 velocity=0 time=0.021505366666666668
EXTRACT: note_on channel=3 note=59 velocity=0 time=0
EXTRACT: control_change channel=2 control=0 value=0 time=0.06989244166666667
EXTRACT: note_on channel=4 note=67 velocity=0 time=0.05376341666666667
EXTRACT: note_on channel=11 note=67 velocity=0 time=0
EXTRACT: note_on channel=1 note=47 velocity=0 time=0.0645161
EXTRACT: note_on channel=1 note=37 velocity=77 time=0.043010733333333336
EXTRACT: note_on channel=2 note=64 velocity=0 time=0
EXTRACT: note_on channel=2 note=50 velocity=0 time=0
EXTRACT: note_on channel=2 note=59 velocity=0 time=0
EXTRACT: note_on channel=2 note=55 velocity=0 time=0
EXTRACT: note_on channel=2 note=62 velocity=0 time=0
EXTRACT: control_change channel=2 control=0 value=0 time=0
EXTRACT: control_change channel=2 control=64 value=0 time=0
EXTRACT: note_on channel=2 note=63 velocity=56 time=0
EXTRACT: note_on channel=3 note=49 velocity=53 time=0
EXTRACT: note_on channel=3 note=61 velocity=45 time=0
EXTRACT: note_on channel=3 note=59 velocity=59 time=0
EXTRACT: note_on channel=3 note=53 velocity=49 time=0
EXTRACT: note_on channel=4 note=67 velocity=85 time=0
EXTRACT: note_on channel=5 note=67 velocity=0 time=0
EXTRACT: note_on channel=5 note=67 velocity=82 time=0
EXTRACT: note_on channel=6 note=62 velocity=0 time=0
EXTRACT: note_on channel=6 note=59 velocity=0 time=0
EXTRACT: note_on channel=6 note=58 velocity=82 time=0
EXTRACT: note_on channel=6 note=64 velocity=82 time=0
EXTRACT: note_on channel=7 note=47 velocity=0 time=0
EXTRACT: note_on channel=7 note=37 velocity=85 time=0
EXTRACT: note_on channel=9 note=35 velocity=58 time=0
EXTRACT: note_on channel=9 note=38 velocity=50 time=0
EXTRACT: note_on channel=10 note=67 velocity=0 time=0
EXTRACT: note_on channel=10 note=67 velocity=78 time=0
EXTRACT: note_on channel=11 note=67 velocity=78 time=0
EXTRACT: note_on channel=9 note=38 velocity=0 time=0.005376341666666667
EXTRACT: note_on channel=9 note=35 velocity=0 time=0
EXTRACT: note_on channel=2 note=59 velocity=67 time=0.043010733333333336
EXTRACT: note_on channel=2 note=53 velocity=39 time=0
EXTRACT: note_on channel=2 note=65 velocity=61 time=0.09677415
EXTRACT: control_change channel=3 control=64 value=127 time=0.080645125
EXTRACT: note_on channel=3 note=59 velocity=0 time=0.010752683333333334
EXTRACT: note_on channel=2 note=68 velocity=52 time=0.05376341666666667
EXTRACT: note_on channel=3 note=53 velocity=0 time=0.016129025
EXTRACT: note_on channel=3 note=61 velocity=0 time=0
EXTRACT: note_on channel=9 note=38 velocity=38 time=0.016129025
EXTRACT: note_on channel=9 note=38 velocity=0 time=0.005376341666666667
EXTRACT: control_change channel=2 control=64 value=127 time=0.15591390833333335
EXTRACT: note_on channel=9 note=38 velocity=58 time=0.16129025
EXTRACT: note_on channel=9 note=42 velocity=48 time=0
EXTRACT: note_on channel=9 note=42 velocity=0 time=0.005376341666666667
EXTRACT: note_on channel=9 note=38 velocity=0 time=0
EXTRACT: note_on channel=3 note=61 velocity=58 time=0.005376341666666667
EXTRACT: note_on channel=3 note=59 velocity=63 time=0.005376341666666667
EXTRACT: note_on channel=3 note=53 velocity=45 time=0.010752683333333334
EXTRACT: note_on channel=1 note=37 velocity=0 time=0.21505366666666667
EXTRACT: note_on channel=3 note=59 velocity=0 time=0.010752683333333334
EXTRACT: note_on channel=3 note=53 velocity=0 time=0.048387075
EXTRACT: note_on channel=1 note=37 velocity=83 time=0.021505366666666668
EXTRACT: note_on channel=9 note=38 velocity=38 time=0
EXTRACT: note_on channel=3 note=61 velocity=0 time=0.005376341666666667
EXTRACT: note_on channel=9 note=38 velocity=0 time=0
EXTRACT: note_on channel=3 note=49 velocity=0 time=0.11827951666666667
EXTRACT: control_change channel=2 control=0 value=0 time=0.03763439166666667
EXTRACT: note_on channel=1 note=44 velocity=74 time=0.16129025
EXTRACT: note_on channel=6 note=64 velocity=0 time=0
EXTRACT: note_on channel=6 note=58 velocity=0 time=0
EXTRACT: note_on channel=6 note=61 velocity=82 time=0
EXTRACT: note_on channel=6 note=58 velocity=82 time=0
EXTRACT: note_on channel=9 note=35 velocity=58 time=0
EXTRACT: note_on channel=9 note=38 velocity=58 time=0
EXTRACT: note_on channel=3 note=44 velocity=55 time=0.005376341666666667
EXTRACT: note_on channel=9 note=38 velocity=0 time=0
EXTRACT: note_on channel=9 note=35 velocity=0 time=0
EXTRACT: note_on channel=1 note=37 velocity=0 time=0.03225805
EXTRACT: control_change channel=3 control=64 value=0 time=0.11827951666666667
EXTRACT: note_on channel=9 note=38 velocity=38 time=0.16666659166666667
EXTRACT: note_on channel=9 note=38 velocity=0 time=0.005376341666666667
EXTRACT: note_on channel=3 note=53 velocity=42 time=0.021505366666666668
EXTRACT: note_on channel=3 note=59 velocity=57 time=0.010752683333333334
EXTRACT: note_on channel=3 note=61 velocity=46 time=0
EXTRACT: control_change channel=2 control=0 value=0 time=0.12365585833333334
EXTRACT: note_on channel=7 note=37 velocity=0 time=0
EXTRACT: note_on channel=7 note=43 velocity=85 time=0
EXTRACT: note_on channel=4 note=67 velocity=0 time=0.11290317500000001
EXTRACT: note_on channel=11 note=67 velocity=0 time=0
EXTRACT: note_on channel=5 note=67 velocity=0 time=0.048387075
EXTRACT: note_on channel=7 note=43 velocity=0 time=0
EXTRACT: note_on channel=7 note=49 velocity=85 time=0
EXTRACT: note_on channel=9 note=38 velocity=48 time=0
EXTRACT: note_on channel=9 note=42 velocity=48 time=0
EXTRACT: note_on channel=10 note=67 velocity=0 time=0
EXTRACT: note_on channel=9 note=42 velocity=0 time=0.005376341666666667
EXTRACT: note_on channel=9 note=38 velocity=0 time=0
EXTRACT: note_on channel=1 note=44 velocity=0 time=0.03763439166666667
EXTRACT: control_change channel=2 control=0 value=0 time=0.145161225
EXTRACT: note_on channel=1 note=44 velocity=76 time=0
EXTRACT: note_on channel=4 note=65 velocity=85 time=0
EXTRACT: note_on channel=5 note=65 velocity=82 time=0
EXTRACT: note_on channel=6 note=58 velocity=0 time=0
EXTRACT: note_on channel=6 note=61 velocity=0 time=0
EXTRACT: note_on channel=7 note=49 velocity=0 time=0
EXTRACT: note_on channel=7 note=37 velocity=85 time=0
EXTRACT: note_on channel=9 note=38 velocity=58 time=0
EXTRACT: note_on channel=10 note=65 velocity=78 time=0
EXTRACT: note_on channel=11 note=65 velocity=78 time=0
EXTRACT: note_on channel=9 note=38 velocity=0 time=0.005376341666666667
EXTRACT: note_on channel=3 note=59 velocity=0 time=0.016129025
EXTRACT: note_on channel=2 note=68 velocity=0 time=0.005376341666666667
EXTRACT: note_on channel=2 note=53 velocity=0 time=0
EXTRACT: note_on channel=2 note=63 velocity=0 time=0
EXTRACT: note_on channel=2 note=59 velocity=0 time=0
EXTRACT: note_on channel=2 note=65 velocity=0 time=0
EXTRACT: note_on channel=3 note=53 velocity=0 time=0.043010733333333336
EXTRACT: control_change channel=2 control=0 value=0 time=0.010752683333333334
EXTRACT: control_change channel=2 control=64 value=0 time=0
EXTRACT: note_on channel=2 note=76 velocity=62 time=0.010752683333333334
EXTRACT: note_on channel=3 note=44 velocity=0 time=0
EXTRACT: note_on channel=3 note=61 velocity=0 time=0
EXTRACT: note_on channel=1 note=44 velocity=0 time=0
EXTRACT: note_on channel=1 note=38 velocity=77 time=0
EXTRACT: note_on channel=4 note=65 velocity=0 time=0
EXTRACT: note_on channel=4 note=64 velocity=85 time=0
EXTRACT: note_on channel=5 note=65 velocity=0 time=0
EXTRACT: note_on channel=5 note=64 velocity=82 time=0
EXTRACT: note_on channel=6 note=53 velocity=82 time=0
EXTRACT: note_on channel=6 note=57 velocity=82 time=0
EXTRACT: note_on channel=6 note=60 velocity=82 time=0
EXTRACT: note_on channel=7 note=37 velocity=0 time=0
EXTRACT: note_on channel=7 note=38 velocity=85 time=0
EXTRACT: control_change channel=8 control=121 value=0 time=0
EXTRACT: control_change channel=8 control=123 value=0 time=0
EXTRACT: control_change channel=8 control=91 value=40 time=0
EXTRACT: control_change channel=8 control=93 value=40 time=0
EXTRACT: note_on channel=9 note=35 velocity=58 time=0
EXTRACT: note_on channel=9 note=38 velocity=50 time=0
EXTRACT: note_on channel=10 note=65 velocity=0 time=0
EXTRACT: note_on channel=10 note=64 velocity=78 time=0
EXTRACT: note_on channel=11 note=65 velocity=0 time=0
EXTRACT: note_on channel=11 note=64 velocity=78 time=0
EXTRACT: note_on channel=3 note=60 velocity=51 time=0.005376341666666667
EXTRACT: note_on channel=9 note=38 velocity=0 time=0
EXTRACT: note_on channel=9 note=35 velocity=0 time=0
EXTRACT: note_on channel=3 note=64 velocity=45 time=0.03225805
EXTRACT: note_on channel=3 note=53 velocity=41 time=0
EXTRACT: note_on channel=3 note=50 velocity=38 time=0
EXTRACT: control_change channel=3 control=64 value=127 time=0.16666659166666667
EXTRACT: note_on channel=3 note=60 velocity=0 time=0.03225805
EXTRACT: note_on channel=3 note=53 velocity=0 time=0.016129025
EXTRACT: note_on channel=3 note=64 velocity=0 time=0.010752683333333334
EXTRACT: note_on channel=4 note=64 velocity=0 time=0
EXTRACT: note_on channel=4 note=64 velocity=85 time=0
EXTRACT: note_on channel=5 note=64 velocity=0 time=0
EXTRACT: note_on channel=5 note=64 velocity=82 time=0
EXTRACT: note_on channel=9 note=38 velocity=38 time=0
EXTRACT: note_on channel=10 note=64 velocity=0 time=0
EXTRACT: note_on channel=10 note=64 velocity=78 time=0
EXTRACT: note_on channel=11 note=64 velocity=0 time=0
EXTRACT: note_on channel=11 note=64 velocity=78 time=0
EXTRACT: note_on channel=9 note=38 velocity=0 time=0.005376341666666667
EXTRACT: note_on channel=4 note=64 velocity=0 time=0
EXTRACT: note_on channel=4 note=64 velocity=85 time=0
EXTRACT: note_on channel=5 note=64 velocity=0 time=0
EXTRACT: note_on channel=5 note=64 velocity=82 time=0
EXTRACT: note_on channel=10 note=64 velocity=0 time=0
EXTRACT: note_on channel=10 note=64 velocity=78 time=0
EXTRACT: note_on channel=11 note=64 velocity=0 time=0
EXTRACT: note_on channel=11 note=64 velocity=78 time=0
EXTRACT: control_change channel=2 control=64 value=127 time=0
EXTRACT: note_on channel=2 note=65 velocity=54 time=0
EXTRACT: note_on channel=2 note=62 velocity=54 time=0
EXTRACT: note_on channel=2 note=60 velocity=54 time=0
EXTRACT: note_on channel=2 note=69 velocity=54 time=0
EXTRACT: note_on channel=4 note=64 velocity=0 time=0
EXTRACT: note_on channel=4 note=64 velocity=85 time=0
EXTRACT: note_on channel=5 note=64 velocity=0 time=0
EXTRACT: note_on channel=5 note=64 velocity=82 time=0
EXTRACT: note_on channel=9 note=38 velocity=58 time=0
EXTRACT: note_on channel=9 note=42 velocity=48 time=0
EXTRACT: note_on channel=10 note=64 velocity=0 time=0
EXTRACT: note_on channel=10 note=64 velocity=78 time=0
EXTRACT: note_on channel=11 note=64 velocity=0 time=0
EXTRACT: note_on channel=11 note=64 velocity=78 time=0
EXTRACT: note_on channel=9 note=42 velocity=0 time=0.005376341666666667
EXTRACT: note_on channel=9 note=38 velocity=0 time=0
EXTRACT: note_on channel=3 note=64 velocity=53 time=0.005376341666666667
EXTRACT: note_on channel=3 note=60 velocity=63 time=0.005376341666666667
EXTRACT: note_on channel=3 note=53 velocity=47 time=0.010752683333333334
EXTRACT: note_on channel=3 note=60 velocity=0 time=0.16129025
EXTRACT: note_on channel=2 note=69 velocity=0 time=0.010752683333333334
EXTRACT: note_on channel=2 note=62 velocity=0 time=0
EXTRACT: note_on channel=2 note=60 velocity=0 time=0
EXTRACT: note_on channel=2 note=65 velocity=0 time=0
EXTRACT: note_on channel=3 note=53 velocity=0 time=0.021505366666666668
EXTRACT: note_on channel=3 note=64 velocity=0 time=0.021505366666666668
EXTRACT: note_on channel=1 note=38 velocity=0 time=0
EXTRACT: note_on channel=1 note=45 velocity=71 time=0
EXTRACT: note_on channel=4 note=64 velocity=0 time=0
EXTRACT: note_on channel=4 note=65 velocity=85 time=0
EXTRACT: note_on channel=5 note=64 velocity=0 time=0
EXTRACT: note_on channel=5 note=65 velocity=82 time=0
EXTRACT: note_on channel=9 note=38 velocity=38 time=0
EXTRACT: note_on channel=10 note=64 velocity=0 time=0
EXTRACT: note_on channel=10 note=65 velocity=78 time=0
EXTRACT: note_on channel=11 note=64 velocity=0 time=0
EXTRACT: note_on channel=11 note=65 velocity=78 time=0
EXTRACT: note_on channel=9 note=38 velocity=0 time=0.005376341666666667
EXTRACT: note_on channel=1 note=45 velocity=0 time=0.16129025
EXTRACT: control_change channel=3 control=64 value=0 time=0.021505366666666668
EXTRACT: note_on channel=1 note=45 velocity=81 time=0
EXTRACT: note_on channel=3 note=64 velocity=50 time=0
EXTRACT: note_on channel=4 note=65 velocity=0 time=0
EXTRACT: note_on channel=4 note=64 velocity=85 time=0
EXTRACT: note_on channel=5 note=65 velocity=0 time=0
EXTRACT: note_on channel=5 note=64 velocity=82 time=0
EXTRACT: note_on channel=9 note=35 velocity=58 time=0
EXTRACT: note_on channel=9 note=38 velocity=58 time=0
EXTRACT: note_on channel=10 note=65 velocity=0 time=0
EXTRACT: note_on channel=10 note=64 velocity=78 time=0
EXTRACT: note_on channel=11 note=65 velocity=0 time=0
EXTRACT: note_on channel=11 note=64 velocity=78 time=0
EXTRACT: note_on channel=9 note=38 velocity=0 time=0.005376341666666667
EXTRACT: note_on channel=9 note=35 velocity=0 time=0
EXTRACT: note_on channel=3 note=45 velocity=50 time=0.005376341666666667
EXTRACT: note_on channel=3 note=60 velocity=57 time=0
EXTRACT: note_on channel=3 note=53 velocity=40 time=0
EXTRACT: note_on channel=3 note=50 velocity=0 time=0.059139758333333334
EXTRACT: control_change channel=3 control=64 value=127 time=0.19892464166666668
EXTRACT: note_on channel=2 note=65 velocity=54 time=0
EXTRACT: note_on channel=2 note=62 velocity=54 time=0
EXTRACT: note_on channel=2 note=60 velocity=54 time=0
EXTRACT: note_on channel=2 note=69 velocity=54 time=0
EXTRACT: note_on channel=4 note=64 velocity=0 time=0
EXTRACT: note_on channel=4 note=60 velocity=85 time=0
EXTRACT: note_on channel=5 note=64 velocity=0 time=0
EXTRACT: note_on channel=5 note=60 velocity=82 time=0
EXTRACT: note_on channel=6 note=60 velocity=0 time=0
EXTRACT: note_on channel=6 note=57 velocity=0 time=0
EXTRACT: note_on channel=6 note=53 velocity=0 time=0
EXTRACT: note_on channel=9 note=38 velocity=38 time=0
EXTRACT: note_on channel=10 note=64 velocity=0 time=0
EXTRACT: note_on channel=10 note=60 velocity=78 time=0
EXTRACT: note_on channel=11 note=64 velocity=0 time=0
EXTRACT: note_on channel=11 note=60 velocity=78 time=0
EXTRACT: note_on channel=9 note=38 velocity=0 time=0.005376341666666667
EXTRACT: note_on channel=3 note=60 velocity=0 time=0.09139780833333334
EXTRACT: note_on channel=3 note=53 velocity=0 time=0.016129025
EXTRACT: note_on channel=3 note=64 velocity=0 time=0.021505366666666668
EXTRACT: note_on channel=2 note=69 velocity=0 time=0.048387075
EXTRACT: note_on channel=2 note=62 velocity=0 time=0
EXTRACT: note_on channel=2 note=60 velocity=0 time=0
EXTRACT: note_on channel=2 note=65 velocity=0 time=0
EXTRACT: note_on channel=1 note=45 velocity=0 time=0.059139758333333334
EXTRACT: note_on channel=1 note=38 velocity=81 time=0.080645125
EXTRACT: note_on channel=4 note=60 velocity=0 time=0
EXTRACT: note_on channel=4 note=60 velocity=85 time=0
EXTRACT: note_on channel=5 note=60 velocity=0 time=0
EXTRACT: note_on channel=5 note=60 velocity=82 time=0
EXTRACT: note_on channel=6 note=57 velocity=82 time=0
EXTRACT: note_on channel=6 note=53 velocity=82 time=0
EXTRACT: note_on channel=9 note=38 velocity=48 time=0
EXTRACT: note_on channel=9 note=42 velocity=48 time=0
EXTRACT: note_on channel=10 note=60 velocity=0 time=0
EXTRACT: note_on channel=10 note=60 velocity=78 time=0
EXTRACT: note_on channel=11 note=60 velocity=0 time=0
EXTRACT: note_on channel=11 note=60 velocity=78 time=0
EXTRACT: note_on channel=9 note=42 velocity=0 time=0.005376341666666667
EXTRACT: note_on channel=9 note=38 velocity=0 time=0
EXTRACT: note_on channel=3 note=45 velocity=0 time=0.27956976666666666
EXTRACT: note_on channel=7 note=38 velocity=0 time=0.03763439166666667
EXTRACT: note_on channel=7 note=33 velocity=85 time=0
EXTRACT: note_on channel=9 note=38 velocity=58 time=0
EXTRACT: note_on channel=9 note=38 velocity=0 time=0.005376341666666667
EXTRACT: note_on channel=3 note=64 velocity=44 time=0.005376341666666667
EXTRACT: note_on channel=3 note=60 velocity=67 time=0.016129025
EXTRACT: note_on channel=3 note=53 velocity=24 time=0.026881708333333334
EXTRACT: note_on channel=3 note=60 velocity=0 time=0.0645161
EXTRACT: note_on channel=3 note=53 velocity=0 time=0.010752683333333334
EXTRACT: note_on channel=3 note=64 velocity=0 time=0.026881708333333334
EXTRACT: note_on channel=1 note=38 velocity=0 time=0.11290317500000001
EXTRACT: control_change channel=3 control=64 value=0 time=0
EXTRACT: note_on channel=2 note=76 velocity=0 time=0.043010733333333336
EXTRACT: note_on channel=4 note=60 velocity=0 time=0
EXTRACT: note_on channel=11 note=60 velocity=0 time=0
EXTRACT: note_on channel=1 note=43 velocity=77 time=0.010752683333333334
EXTRACT: control_change channel=2 control=64 value=0 time=0
EXTRACT: note_on channel=5 note=60 velocity=0 time=0
EXTRACT: note_on channel=6 note=53 velocity=0 time=0
EXTRACT: note_on channel=6 note=57 velocity=0 time=0
EXTRACT: note_on channel=7 note=33 velocity=0 time=0
EXTRACT: note_on channel=7 note=31 velocity=85 time=0
EXTRACT: note_on channel=9 note=35 velocity=58 time=0
EXTRACT: note_on channel=9 note=38 velocity=50 time=0
EXTRACT: note_on channel=10 note=60 velocity=0 time=0
EXTRACT: note_on channel=9 note=38 velocity=0 time=0.005376341666666667
EXTRACT: note_on channel=9 note=35 velocity=0 time=0
EXTRACT: note_on channel=2 note=65 velocity=63 time=0.005376341666666667
EXTRACT: note_on channel=2 note=62 velocity=63 time=0
EXTRACT: note_on channel=2 note=60 velocity=63 time=0
EXTRACT: note_on channel=2 note=69 velocity=63 time=0
EXTRACT: control_change channel=3 control=64 value=127 time=0.15591390833333335
EXTRACT: note_on channel=2 note=69 velocity=0 time=0.048387075
EXTRACT: note_on channel=2 note=65 velocity=0 time=0
EXTRACT: note_on channel=2 note=62 velocity=0 time=0
EXTRACT: note_on channel=2 note=60 velocity=0 time=0
EXTRACT: note_on channel=4 note=62 velocity=85 time=0
EXTRACT: note_on channel=5 note=62 velocity=82 time=0
EXTRACT: note_on channel=9 note=38 velocity=38 time=0
EXTRACT: note_on channel=10 note=62 velocity=78 time=0
EXTRACT: note_on channel=11 note=62 velocity=78 time=0
EXTRACT: note_on channel=9 note=38 velocity=0 time=0.005376341666666667
EXTRACT: note_on channel=2 note=65 velocity=46 time=0.30645147500000003
EXTRACT: note_on channel=2 note=62 velocity=46 time=0
EXTRACT: note_on channel=2 note=60 velocity=46 time=0
EXTRACT: note_on channel=2 note=69 velocity=46 time=0
EXTRACT: note_on channel=4 note=62 velocity=0 time=0
EXTRACT: note_on channel=4 note=64 velocity=85 time=0
EXTRACT: note_on channel=5 note=62 velocity=0 time=0
EXTRACT: note_on channel=5 note=53 velocity=82 time=0
EXTRACT: note_on channel=5 note=57 velocity=82 time=0
EXTRACT: note_on channel=5 note=64 velocity=82 time=0
EXTRACT: note_on channel=9 note=38 velocity=58 time=0
EXTRACT: note_on channel=9 note=42 velocity=48 time=0
EXTRACT: note_on channel=10 note=62 velocity=0 time=0
EXTRACT: note_on channel=10 note=53 velocity=78 time=0
EXTRACT: note_on channel=10 note=57 velocity=78 time=0
EXTRACT: note_on channel=10 note=64 velocity=78 time=0
EXTRACT: note_on channel=11 note=62 velocity=0 time=0
EXTRACT: note_on channel=11 note=64 velocity=78 time=0
EXTRACT: note_on channel=9 note=42 velocity=0 time=0.005376341666666667
EXTRACT: note_on channel=9 note=38 velocity=0 time=0
EXTRACT: note_on channel=3 note=60 velocity=63 time=0.03225805
EXTRACT: note_on channel=3 note=64 velocity=48 time=0
EXTRACT: note_on channel=3 note=53 velocity=37 time=0.03225805
EXTRACT: note_on channel=2 note=69 velocity=0 time=0.15053756666666668
EXTRACT: note_on channel=2 note=65 velocity=0 time=0
EXTRACT: note_on channel=2 note=62 velocity=0 time=0
EXTRACT: note_on channel=2 note=60 velocity=0 time=0
EXTRACT: note_on channel=1 note=43 velocity=0 time=0.021505366666666668
EXTRACT: note_on channel=3 note=60 velocity=0 time=0.03763439166666667
EXTRACT: note_on channel=1 note=43 velocity=83 time=0
EXTRACT: note_on channel=4 note=64 velocity=0 time=0
EXTRACT: note_on channel=4 note=60 velocity=85 time=0
EXTRACT: note_on channel=5 note=64 velocity=0 time=0
EXTRACT: note_on channel=5 note=57 velocity=0 time=0
EXTRACT: note_on channel=5 note=53 velocity=0 time=0
EXTRACT: note_on channel=5 note=60 velocity=82 time=0
EXTRACT: note_on channel=9 note=38 velocity=38 time=0
EXTRACT: note_on channel=10 note=64 velocity=0 time=0
EXTRACT: note_on channel=10 note=57 velocity=0 time=0
EXTRACT: note_on channel=10 note=53 velocity=0 time=0
EXTRACT: note_on channel=10 note=60 velocity=78 time=0
EXTRACT: note_on channel=11 note=64 velocity=0 time=0
EXTRACT: note_on channel=11 note=60 velocity=78 time=0
EXTRACT: note_on channel=3 note=64 velocity=0 time=0.005376341666666667
EXTRACT: note_on channel=9 note=38 velocity=0 time=0
EXTRACT: note_on channel=3 note=53 velocity=0 time=0.010752683333333334
EXTRACT: note_on channel=1 note=38 velocity=74 time=0
EXTRACT: note_on channel=4 note=60 velocity=0 time=0
EXTRACT: note_on channel=4 note=60 velocity=85 time=0
EXTRACT: note_on channel=5 note=60 velocity=0 time=0
EXTRACT: note_on channel=5 note=53 velocity=82 time=0
EXTRACT: note_on channel=5 note=57 velocity=82 time=0
EXTRACT: note_on channel=5 note=60 velocity=82 time=0
EXTRACT: note_on channel=9 note=35 velocity=58 time=0
EXTRACT: note_on channel=9 note=38 velocity=58 time=0
EXTRACT: note_on channel=10 note=60 velocity=0 time=0
EXTRACT: note_on channel=10 note=53 velocity=78 time=0
EXTRACT: note_on channel=10 note=57 velocity=78 time=0
EXTRACT: note_on channel=10 note=60 velocity=78 time=0
EXTRACT: note_on channel=11 note=60 velocity=0 time=0
EXTRACT: note_on channel=11 note=60 velocity=78 time=0
EXTRACT: note_on channel=9 note=38 velocity=0 time=0.005376341666666667
EXTRACT: note_on channel=9 note=35 velocity=0 time=0
EXTRACT: note_on channel=1 note=43 velocity=0 time=0.03225805
EXTRACT: note_on channel=3 note=64 velocity=51 time=0.28494610833333334
EXTRACT: note_on channel=3 note=53 velocity=46 time=0
EXTRACT: note_on channel=9 note=38 velocity=38 time=0
EXTRACT: note_on channel=9 note=38 velocity=0 time=0.005376341666666667
EXTRACT: note_on channel=3 note=60 velocity=69 time=0.010752683333333334
EXTRACT: note_on channel=2 note=65 velocity=58 time=0.03225805
EXTRACT: note_on channel=2 note=62 velocity=58 time=0
EXTRACT: note_on channel=2 note=60 velocity=58 time=0
EXTRACT: note_on channel=2 note=69 velocity=58 time=0
EXTRACT: note_on channel=3 note=60 velocity=0 time=0.19892464166666668
EXTRACT: note_on channel=3 note=53 velocity=0 time=0.021505366666666668
EXTRACT: note_on channel=3 note=64 velocity=0 time=0
EXTRACT: note_on channel=2 note=69 velocity=0 time=0.026881708333333334
EXTRACT: note_on channel=2 note=65 velocity=0 time=0
EXTRACT: note_on channel=2 note=62 velocity=0 time=0
EXTRACT: note_on channel=2 note=60 velocity=0 time=0
EXTRACT: note_on channel=9 note=38 velocity=48 time=0.026881708333333334
EXTRACT: note_on channel=9 note=42 velocity=48 time=0
EXTRACT: note_on channel=9 note=42 velocity=0 time=0.005376341666666667
EXTRACT: note_on channel=9 note=38 velocity=0 time=0
EXTRACT: note_on channel=1 note=38 velocity=0 time=0.03763439166666667
EXTRACT: note_on channel=4 note=60 velocity=0 time=0.25268805833333335
EXTRACT: note_on channel=11 note=60 velocity=0 time=0
EXTRACT: note_on channel=1 note=38 velocity=76 time=0
EXTRACT: note_on channel=4 note=62 velocity=85 time=0
EXTRACT: note_on channel=5 note=60 velocity=0 time=0
EXTRACT: note_on channel=5 note=57 velocity=0 time=0
EXTRACT: note_on channel=5 note=53 velocity=0 time=0
EXTRACT: note_on channel=5 note=53 velocity=82 time=0
EXTRACT: note_on channel=5 note=57 velocity=82 time=0
EXTRACT: note_on channel=5 note=60 velocity=82 time=0
EXTRACT: note_on channel=5 note=62 velocity=82 time=0
EXTRACT: note_on channel=7 note=31 velocity=0 time=0
EXTRACT: note_on channel=7 note=31 velocity=85 time=0
EXTRACT: note_on channel=9 note=38 velocity=58 time=0
EXTRACT: note_on channel=10 note=60 velocity=0 time=0
EXTRACT: note_on channel=10 note=57 velocity=0 time=0
EXTRACT: note_on channel=10 note=53 velocity=0 time=0
EXTRACT: note_on channel=10 note=53 velocity=78 time=0
EXTRACT: note_on channel=10 note=57 velocity=78 time=0
EXTRACT: note_on channel=10 note=60 velocity=78 time=0
EXTRACT: note_on channel=10 note=62 velocity=78 time=0
EXTRACT: note_on channel=11 note=62 velocity=78 time=0
EXTRACT: note_on channel=9 note=38 velocity=0 time=0.005376341666666667
EXTRACT: note_on channel=1 note=38 velocity=0 time=0
EXTRACT: note_on channel=1 note=36 velocity=82 time=0
EXTRACT: note_on channel=2 note=60 velocity=56 time=0
EXTRACT: control_change channel=3 control=64 value=0 time=0
EXTRACT: note_on channel=4 note=62 velocity=0 time=0
EXTRACT: note_on channel=4 note=57 velocity=85 time=0
EXTRACT: note_on channel=5 note=62 velocity=0 time=0
EXTRACT: note_on channel=5 note=53 velocity=0 time=0
EXTRACT: note_on channel=5 note=57 velocity=0 time=0
EXTRACT: note_on channel=5 note=60 velocity=0 time=0
EXTRACT: note_on channel=5 note=57 velocity=82 time=0
EXTRACT: note_on channel=6 note=52 velocity=82 time=0
EXTRACT: note_on channel=7 note=31 velocity=0 time=0
EXTRACT: note_on channel=7 note=36 velocity=85 time=0
EXTRACT: note_on channel=8 note=62 velocity=75 time=0
EXTRACT: note_on channel=9 note=35 velocity=58 time=0
EXTRACT: note_on channel=9 note=38 velocity=50 time=0
EXTRACT: note_on channel=10 note=62 velocity=0 time=0
EXTRACT: note_on channel=10 note=53 velocity=0 time=0
EXTRACT: note_on channel=10 note=57 velocity=0 time=0
EXTRACT: note_on channel=10 note=60 velocity=0 time=0
EXTRACT: note_on channel=10 note=57 velocity=78 time=0
EXTRACT: note_on channel=11 note=62 velocity=0 time=0
EXTRACT: note_on channel=11 note=57 velocity=78 time=0
EXTRACT: note_on channel=3 note=52 velocity=47 time=0.005376341666666667
EXTRACT: note_on channel=9 note=38 velocity=0 time=0
EXTRACT: note_on channel=9 note=35 velocity=0 time=0
EXTRACT: note_on channel=3 note=59 velocity=59 time=0.005376341666666667
EXTRACT: note_on channel=3 note=62 velocity=42 time=0.005376341666666667
EXTRACT: note_on channel=2 note=59 velocity=67 time=0.03225805
EXTRACT: note_on channel=2 note=52 velocity=39 time=0
EXTRACT: note_on channel=2 note=64 velocity=61 time=0.09677415
EXTRACT: control_change channel=3 control=64 value=127 time=0.05376341666666667
EXTRACT: note_on channel=2 note=67 velocity=52 time=0.09139780833333334
EXTRACT: note_on channel=3 note=59 velocity=0 time=0.021505366666666668
EXTRACT: note_on channel=9 note=38 velocity=38 time=0.010752683333333334
EXTRACT: note_on channel=9 note=38 velocity=0 time=0.005376341666666667
EXTRACT: note_on channel=3 note=52 velocity=0 time=0.043010733333333336
EXTRACT: note_on channel=3 note=62 velocity=0 time=0.048387075
EXTRACT: control_change channel=2 control=64 value=127 time=0.0645161
EXTRACT: note_on channel=4 note=57 velocity=0 time=0.15053756666666668
EXTRACT: note_on channel=11 note=57 velocity=0 time=0
EXTRACT: note_on channel=4 note=55 velocity=85 time=0.010752683333333334
EXTRACT: note_on channel=5 note=57 velocity=0 time=0
EXTRACT: note_on channel=5 note=55 velocity=82 time=0
EXTRACT: note_on channel=8 note=62 velocity=0 time=0
EXTRACT: note_on channel=8 note=57 velocity=75 time=0
EXTRACT: note_on channel=9 note=38 velocity=58 time=0
EXTRACT: note_on channel=9 note=42 velocity=48 time=0
EXTRACT: note_on channel=10 note=57 velocity=0 time=0
EXTRACT: note_on channel=10 note=55 velocity=78 time=0
EXTRACT: note_on channel=11 note=55 velocity=78 time=0
EXTRACT: note_on channel=9 note=42 velocity=0 time=0.005376341666666667
EXTRACT: note_on channel=9 note=38 velocity=0 time=0
EXTRACT: note_on channel=7 note=36 velocity=0 time=0.3172041583333334
EXTRACT: note_on channel=7 note=31 velocity=85 time=0
EXTRACT: note_on channel=8 note=57 velocity=0 time=0
EXTRACT: note_on channel=8 note=55 velocity=75 time=0
EXTRACT: note_on channel=9 note=38 velocity=38 time=0
EXTRACT: note_on channel=9 note=38 velocity=0 time=0.005376341666666667
EXTRACT: note_on channel=3 note=62 velocity=52 time=0.03225805
EXTRACT: note_on channel=3 note=59 velocity=59 time=0.021505366666666668
EXTRACT: note_on channel=3 note=52 velocity=40 time=0.010752683333333334
EXTRACT: note_on channel=1 note=36 velocity=0 time=0.0645161
EXTRACT: control_change channel=2 control=0 value=0 time=0.026881708333333334
EXTRACT: note_on channel=3 note=59 velocity=0 time=0.1344085416666667
EXTRACT: note_on channel=1 note=36 velocity=81 time=0.026881708333333334
EXTRACT: note_on channel=7 note=31 velocity=0 time=0
EXTRACT: note_on channel=7 note=36 velocity=85 time=0
EXTRACT: note_on channel=9 note=35 velocity=58 time=0
EXTRACT: note_on channel=9 note=38 velocity=58 time=0
EXTRACT: note_on channel=9 note=38 velocity=0 time=0.005376341666666667
EXTRACT: note_on channel=9 note=35 velocity=0 time=0
EXTRACT: note_on channel=3 note=62 velocity=0 time=0.021505366666666668
EXTRACT: note_on channel=3 note=52 velocity=0 time=0.021505366666666668
EXTRACT: note_on channel=9 note=38 velocity=38 time=0.274193425
EXTRACT: note_on channel=9 note=38 velocity=0 time=0.005376341666666667
EXTRACT: control_change channel=2 control=0 value=0 time=0.15591390833333335
EXTRACT: note_on channel=4 note=55 velocity=0 time=0.11827951666666667
EXTRACT: note_on channel=11 note=55 velocity=0 time=0
EXTRACT: note_on channel=5 note=55 velocity=0 time=0.043010733333333336
EXTRACT: note_on channel=6 note=52 velocity=0 time=0
EXTRACT: note_on channel=6 note=59 velocity=82 time=0
EXTRACT: note_on channel=6 note=64 velocity=82 time=0
EXTRACT: note_on channel=6 note=67 velocity=82 time=0
EXTRACT: note_on channel=9 note=38 velocity=48 time=0
EXTRACT: note_on channel=9 note=42 velocity=48 time=0
EXTRACT: note_on channel=10 note=55 velocity=0 time=0
EXTRACT: note_on channel=3 note=52 velocity=55 time=0.005376341666666667
EXTRACT: note_on channel=3 note=59 velocity=55 time=0
EXTRACT: note_on channel=3 note=62 velocity=61 time=0
EXTRACT: note_on channel=9 note=42 velocity=0 time=0
EXTRACT: note_on channel=9 note=38 velocity=0 time=0
EXTRACT: note_on channel=3 note=59 velocity=0 time=0.19892464166666668
EXTRACT: note_on channel=3 note=52 velocity=0 time=0.06989244166666667
EXTRACT: note_on channel=3 note=62 velocity=0 time=0.010752683333333334
EXTRACT: note_on channel=7 note=36 velocity=0 time=0.03763439166666667
EXTRACT: note_on channel=7 note=31 velocity=85 time=0
EXTRACT: note_on channel=9 note=38 velocity=58 time=0
EXTRACT: note_on channel=9 note=38 velocity=0 time=0.005376341666666667
EXTRACT: note_on channel=1 note=36 velocity=0 time=0.048387075
EXTRACT: control_change channel=2 control=0 value=0 time=0.10752683333333334
EXTRACT: note_on channel=1 note=36 velocity=78 time=0.16129025
EXTRACT: note_on channel=6 note=67 velocity=0 time=0
EXTRACT: note_on channel=6 note=64 velocity=0 time=0
EXTRACT: note_on channel=6 note=59 velocity=0 time=0
EXTRACT: note_on channel=6 note=55 velocity=82 time=0
EXTRACT: note_on channel=6 note=59 velocity=82 time=0
EXTRACT: note_on channel=6 note=64 velocity=82 time=0
EXTRACT: note_on channel=7 note=31 velocity=0 time=0
EXTRACT: note_on channel=7 note=36 velocity=85 time=0
EXTRACT: note_on channel=8 note=55 velocity=0 time=0
EXTRACT: note_on channel=9 note=35 velocity=58 time=0
EXTRACT: note_on channel=9 note=38 velocity=50 time=0
EXTRACT: note_on channel=9 note=38 velocity=0 time=0.005376341666666667
EXTRACT: note_on channel=9 note=35 velocity=0 time=0
EXTRACT: note_on channel=9 note=38 velocity=38 time=0.3172041583333334
EXTRACT: note_on channel=9 note=38 velocity=0 time=0.005376341666666667
EXTRACT: control_change channel=2 control=0 value=0 time=0.15591390833333335
EXTRACT: control_change channel=2 control=0 value=0 time=0.16129025
EXTRACT: note_on channel=6 note=64 velocity=0 time=0
EXTRACT: note_on channel=6 note=59 velocity=0 time=0
EXTRACT: note_on channel=6 note=55 velocity=0 time=0
EXTRACT: note_on channel=9 note=38 velocity=58 time=0
EXTRACT: note_on channel=9 note=42 velocity=48 time=0
EXTRACT: note_on channel=3 note=62 velocity=51 time=0.005376341666666667
EXTRACT: note_on channel=9 note=42 velocity=0 time=0
EXTRACT: note_on channel=9 note=38 velocity=0 time=0
EXTRACT: note_on channel=3 note=52 velocity=48 time=0.005376341666666667
EXTRACT: note_on channel=3 note=59 velocity=59 time=0
EXTRACT: note_on channel=1 note=36 velocity=0 time=0.048387075
EXTRACT: note_on channel=3 note=59 velocity=0 time=0.17741927500000002
EXTRACT: note_on channel=3 note=62 velocity=0 time=0.03763439166666667
EXTRACT: note_on channel=3 note=52 velocity=0 time=0.026881708333333334
EXTRACT: note_on channel=1 note=36 velocity=76 time=0
EXTRACT: note_on channel=4 note=67 velocity=85 time=0
EXTRACT: note_on channel=5 note=67 velocity=82 time=0
EXTRACT: note_on channel=9 note=38 velocity=38 time=0
EXTRACT: note_on channel=10 note=67 velocity=78 time=0
EXTRACT: note_on channel=11 note=67 velocity=78 time=0
EXTRACT: note_on channel=9 note=38 velocity=0 time=0.005376341666666667
EXTRACT: note_on channel=1 note=36 velocity=0 time=0.11827951666666667
EXTRACT: note_on channel=1 note=36 velocity=69 time=0
EXTRACT: control_change channel=2 control=0 value=0 time=0
EXTRACT: note_on channel=4 note=67 velocity=0 time=0
EXTRACT: note_on channel=4 note=67 velocity=85 time=0
EXTRACT: note_on channel=5 note=67 velocity=0 time=0
EXTRACT: note_on channel=5 note=67 velocity=82 time=0
EXTRACT: note_on channel=6 note=59 velocity=82 time=0
EXTRACT: note_on channel=6 note=64 velocity=82 time=0
EXTRACT: note_on channel=6 note=67 velocity=82 time=0
EXTRACT: note_on channel=9 note=35 velocity=58 time=0
EXTRACT: note_on channel=9 note=38 velocity=58 time=0
EXTRACT: note_on channel=10 note=67 velocity=0 time=0
EXTRACT: note_on channel=10 note=67 velocity=78 time=0
EXTRACT: note_on channel=11 note=67 velocity=0 time=0
EXTRACT: note_on channel=11 note=67 velocity=78 time=0
EXTRACT: note_on channel=9 note=38 velocity=0 time=0.005376341666666667
EXTRACT: note_on channel=9 note=35 velocity=0 time=0
EXTRACT: note_on channel=9 note=38 velocity=38 time=0.3172041583333334
EXTRACT: note_on channel=3 note=62 velocity=45 time=0.005376341666666667
EXTRACT: note_on channel=9 note=38 velocity=0 time=0
EXTRACT: note_on channel=3 note=59 velocity=60 time=0.021505366666666668
EXTRACT: note_on channel=3 note=52 velocity=49 time=0.010752683333333334
EXTRACT: note_on channel=4 note=67 velocity=0 time=0
EXTRACT: note_on channel=4 note=69 velocity=85 time=0
EXTRACT: note_on channel=5 note=67 velocity=0 time=0
EXTRACT: note_on channel=5 note=69 velocity=82 time=0
EXTRACT: note_on channel=10 note=67 velocity=0 time=0
EXTRACT: note_on channel=10 note=69 velocity=78 time=0
EXTRACT: note_on channel=11 note=67 velocity=0 time=0
EXTRACT: note_on channel=11 note=69 velocity=78 time=0
EXTRACT: note_on channel=3 note=59 velocity=0 time=0.09677415
EXTRACT: note_on channel=3 note=52 velocity=0 time=0.043010733333333336
EXTRACT: note_on channel=3 note=62 velocity=0 time=0
EXTRACT: control_change channel=2 control=0 value=0 time=0.07526878333333334
EXTRACT: note_on channel=9 note=38 velocity=48 time=0
EXTRACT: note_on channel=9 note=42 velocity=48 time=0
EXTRACT: note_on channel=9 note=42 velocity=0 time=0.005376341666666667
EXTRACT: note_on channel=9 note=38 velocity=0 time=0
EXTRACT: note_on channel=1 note=36 velocity=0 time=0.15591390833333335
EXTRACT: note_on channel=4 note=69 velocity=0 time=0
EXTRACT: note_on channel=4 note=71 velocity=85 time=0
EXTRACT: note_on channel=5 note=69 velocity=0 time=0
EXTRACT: note_on channel=5 note=71 velocity=82 time=0
EXTRACT: note_on channel=10 note=69 velocity=0 time=0
EXTRACT: note_on channel=10 note=71 velocity=78 time=0
EXTRACT: note_on channel=11 note=69 velocity=0 time=0
EXTRACT: note_on channel=11 note=71 velocity=78 time=0
EXTRACT: control_change channel=3 control=64 value=0 time=0.03763439166666667
EXTRACT: note_on channel=1 note=36 velocity=81 time=0.06989244166666667
EXTRACT: note_on channel=9 note=38 velocity=58 time=0
EXTRACT: note_on channel=9 note=38 velocity=0 time=0.005376341666666667
EXTRACT: note_on channel=2 note=67 velocity=0 time=0.021505366666666668
EXTRACT: note_on channel=2 note=52 velocity=0 time=0
EXTRACT: note_on channel=2 note=60 velocity=0 time=0
EXTRACT: note_on channel=2 note=59 velocity=0 time=0
EXTRACT: note_on channel=2 note=64 velocity=0 time=0
EXTRACT: control_change channel=2 control=64 value=0 time=0.05376341666666667
EXTRACT: note_on channel=2 note=65 velocity=63 time=0.010752683333333334
EXTRACT: note_on channel=2 note=62 velocity=63 time=0
EXTRACT: note_on channel=2 note=60 velocity=63 time=0
EXTRACT: note_on channel=2 note=69 velocity=63 time=0
EXTRACT: note_on channel=1 note=36 velocity=0 time=0.08602146666666667
EXTRACT: note_on channel=1 note=38 velocity=87 time=0
EXTRACT: note_on channel=4 note=71 velocity=0 time=0
EXTRACT: note_on channel=4 note=69 velocity=85 time=0
EXTRACT: note_on channel=5 note=71 velocity=0 time=0
EXTRACT: note_on channel=5 note=60 velocity=82 time=0
EXTRACT: note_on channel=5 note=65 velocity=82 time=0
EXTRACT: note_on channel=5 note=69 velocity=82 time=0
EXTRACT: note_on channel=6 note=67 velocity=0 time=0
EXTRACT: note_on channel=6 note=64 velocity=0 time=0
EXTRACT: note_on channel=6 note=59 velocity=0 time=0
EXTRACT: note_on channel=7 note=36 velocity=0 time=0
EXTRACT: note_on channel=7 note=38 velocity=85 time=0
EXTRACT: note_on channel=9 note=35 velocity=58 time=0
EXTRACT: note_on channel=9 note=38 velocity=50 time=0
EXTRACT: note_on channel=10 note=71 velocity=0 time=0
EXTRACT: note_on channel=10 note=60 velocity=78 time=0
EXTRACT: note_on channel=10 note=65 velocity=78 time=0
EXTRACT: note_on channel=10 note=69 velocity=78 time=0
EXTRACT: note_on channel=11 note=71 velocity=0 time=0
EXTRACT: note_on channel=11 note=69 velocity=78 time=0
EXTRACT: note_on channel=9 note=38 velocity=0 time=0.005376341666666667
EXTRACT: note_on channel=9 note=35 velocity=0 time=0
EXTRACT: note_on channel=3 note=53 velocity=44 time=0.005376341666666667
EXTRACT: note_on channel=3 note=50 velocity=55 time=0
EXTRACT: note_on channel=3 note=60 velocity=66 time=0
EXTRACT: note_on channel=3 note=64 velocity=64 time=0
EXTRACT: note_on channel=2 note=69 velocity=0 time=0.1935483
EXTRACT: note_on channel=2 note=65 velocity=0 time=0
EXTRACT: note_on channel=2 note=62 velocity=0 time=0
EXTRACT: note_on channel=2 note=60 velocity=0 time=0
EXTRACT: control_change channel=3 control=64 value=127 time=0
EXTRACT: note_on channel=4 note=69 velocity=0 time=0.11827951666666667
EXTRACT: note_on channel=4 note=67 velocity=85 time=0
EXTRACT: note_on channel=5 note=69 velocity=0 time=0
EXTRACT: note_on channel=5 note=65 velocity=0 time=0
EXTRACT: note_on channel=5 note=60 velocity=0 time=0
EXTRACT: note_on channel=5 note=60 velocity=82 time=0
EXTRACT: note_on channel=5 note=65 velocity=82 time=0
EXTRACT: note_on channel=5 note=67 velocity=82 time=0
EXTRACT: note_on channel=9 note=38 velocity=38 time=0
EXTRACT: note_on channel=10 note=69 velocity=0 time=0
EXTRACT: note_on channel=10 note=65 velocity=0 time=0
EXTRACT: note_on channel=10 note=60 velocity=0 time=0
EXTRACT: note_on channel=10 note=60 velocity=78 time=0
EXTRACT: note_on channel=10 note=65 velocity=78 time=0
EXTRACT: note_on channel=10 note=67 velocity=78 time=0
EXTRACT: note_on channel=11 note=69 velocity=0 time=0
EXTRACT: note_on channel=11 note=67 velocity=78 time=0
EXTRACT: note_on channel=9 note=38 velocity=0 time=0.005376341666666667
EXTRACT: note_on channel=3 note=60 velocity=0 time=0.010752683333333334
EXTRACT: note_on channel=3 note=53 velocity=0 time=0.0645161
EXTRACT: note_on channel=3 note=64 velocity=0 time=0.026881708333333334
EXTRACT: note_on channel=2 note=65 velocity=46 time=0.20430098333333335
EXTRACT: note_on channel=2 note=62 velocity=46 time=0
EXTRACT: note_on channel=2 note=60 velocity=46 time=0
EXTRACT: note_on channel=2 note=69 velocity=46 time=0
EXTRACT: note_on channel=9 note=38 velocity=58 time=0.010752683333333334
EXTRACT: note_on channel=9 note=42 velocity=48 time=0
EXTRACT: note_on channel=9 note=42 velocity=0 time=0.005376341666666667
EXTRACT: note_on channel=9 note=38 velocity=0 time=0
EXTRACT: note_on channel=2 note=69 velocity=0 time=0.21505366666666667
EXTRACT: note_on channel=2 note=65 velocity=0 time=0
EXTRACT: note_on channel=2 note=62 velocity=0 time=0
EXTRACT: note_on channel=2 note=60 velocity=0 time=0
EXTRACT: note_on channel=3 note=64 velocity=52 time=0.09677415
EXTRACT: note_on channel=3 note=53 velocity=45 time=0
EXTRACT: note_on channel=5 note=67 velocity=0 time=0.005376341666666667
EXTRACT: note_on channel=5 note=65 velocity=0 time=0
EXTRACT: note_on channel=5 note=60 velocity=0 time=0
EXTRACT: note_on channel=7 note=38 velocity=0 time=0
EXTRACT: note_on channel=7 note=33 velocity=85 time=0
EXTRACT: note_on channel=9 note=38 velocity=38 time=0
EXTRACT: note_on channel=10 note=67 velocity=0 time=0
EXTRACT: note_on channel=10 note=65 velocity=0 time=0
EXTRACT: note_on channel=10 note=60 velocity=0 time=0
EXTRACT: note_on channel=3 note=60 velocity=65 time=0.005376341666666667
EXTRACT: note_on channel=9 note=38 velocity=0 time=0
EXTRACT: note_on channel=4 note=67 velocity=0 time=0.021505366666666668
EXTRACT: note_on channel=11 note=67 velocity=0 time=0
EXTRACT: note_on channel=3 note=50 velocity=0 time=0.15053756666666668
EXTRACT: note_on channel=1 note=33 velocity=79 time=0
EXTRACT: note_on channel=3 note=45 velocity=54 time=0
EXTRACT: note_on channel=4 note=69 velocity=85 time=0
EXTRACT: note_on channel=5 note=60 velocity=82 time=0
EXTRACT: note_on channel=5 note=62 velocity=82 time=0
EXTRACT: note_on channel=5 note=65 velocity=82 time=0
EXTRACT: note_on channel=5 note=69 velocity=82 time=0
EXTRACT: note_on channel=9 note=35 velocity=58 time=0
EXTRACT: note_on channel=9 note=38 velocity=58 time=0
EXTRACT: note_on channel=10 note=60 velocity=78 time=0
EXTRACT: note_on channel=10 note=62 velocity=78 time=0
EXTRACT: note_on channel=10 note=65 velocity=78 time=0
EXTRACT: note_on channel=10 note=69 velocity=78 time=0
EXTRACT: note_on channel=11 note=69 velocity=78 time=0
EXTRACT: note_on channel=9 note=38 velocity=0 time=0.005376341666666667
EXTRACT: note_on channel=9 note=35 velocity=0 time=0
EXTRACT: control_change channel=3 control=64 value=0 time=0.11827951666666667
EXTRACT: note_on channel=1 note=38 velocity=0 time=0.03763439166666667
EXTRACT: note_on channel=4 note=69 velocity=0 time=0
EXTRACT: note_on channel=4 note=67 velocity=85 time=0
EXTRACT: note_on channel=5 note=69 velocity=0 time=0
EXTRACT: note_on channel=5 note=60 velocity=0 time=0
EXTRACT: note_on channel=5 note=62 velocity=0 time=0
EXTRACT: note_on channel=5 note=65 velocity=0 time=0
EXTRACT: note_on channel=5 note=67 velocity=82 time=0
EXTRACT: note_on channel=7 note=33 velocity=0 time=0
EXTRACT: note_on channel=7 note=38 velocity=85 time=0
EXTRACT: note_on channel=9 note=38 velocity=38 time=0
EXTRACT: note_on channel=10 note=69 velocity=0 time=0
EXTRACT: note_on channel=10 note=60 velocity=0 time=0
EXTRACT: note_on channel=10 note=62 velocity=0 time=0
EXTRACT: note_on channel=10 note=65 velocity=0 time=0
EXTRACT: note_on channel=10 note=67 velocity=78 time=0
EXTRACT: note_on channel=11 note=69 velocity=0 time=0
EXTRACT: note_on channel=11 note=67 velocity=78 time=0
EXTRACT: note_on channel=9 note=38 velocity=0 time=0.005376341666666667
EXTRACT: note_on channel=2 note=65 velocity=58 time=0.043010733333333336
EXTRACT: note_on channel=2 note=62 velocity=58 time=0
EXTRACT: note_on channel=2 note=60 velocity=58 time=0
EXTRACT: note_on channel=2 note=69 velocity=58 time=0
EXTRACT: control_change channel=3 control=64 value=127 time=0.12365585833333334
EXTRACT: note_on channel=3 note=60 velocity=0 time=0.10215049166666668
EXTRACT: note_on channel=3 note=64 velocity=0 time=0.016129025
EXTRACT: note_on channel=3 note=53 velocity=0 time=0
EXTRACT: note_on channel=2 note=69 velocity=0 time=0.005376341666666667
EXTRACT: note_on channel=2 note=65 velocity=0 time=0
EXTRACT: note_on channel=2 note=62 velocity=0 time=0
EXTRACT: note_on channel=2 note=60 velocity=0 time=0
EXTRACT: note_on channel=4 note=67 velocity=0 time=0
EXTRACT: note_on channel=4 note=64 velocity=85 time=0
EXTRACT: note_on channel=5 note=67 velocity=0 time=0
EXTRACT: note_on channel=5 note=64 velocity=82 time=0
EXTRACT: note_on channel=9 note=38 velocity=48 time=0
EXTRACT: note_on channel=9 note=42 velocity=48 time=0
EXTRACT: note_on channel=10 note=67 velocity=0 time=0
EXTRACT: note_on channel=10 note=64 velocity=78 time=0
EXTRACT: note_on channel=11 note=67 velocity=0 time=0
EXTRACT: note_on channel=11 note=64 velocity=78 time=0
EXTRACT: note_on channel=9 note=42 velocity=0 time=0.005376341666666667
EXTRACT: note_on channel=9 note=38 velocity=0 time=0
EXTRACT: note_on channel=3 note=53 velocity=45 time=0.010752683333333334
EXTRACT: note_on channel=3 note=60 velocity=45 time=0
EXTRACT: note_on channel=3 note=64 velocity=40 time=0.016129025
EXTRACT: note_on channel=4 note=64 velocity=0 time=0
EXTRACT: note_on channel=4 note=67 velocity=85 time=0
EXTRACT: note_on channel=5 note=64 velocity=0 time=0
EXTRACT: note_on channel=5 note=59 velocity=82 time=0
EXTRACT: note_on channel=5 note=64 velocity=82 time=0
EXTRACT: note_on channel=5 note=67 velocity=82 time=0
EXTRACT: note_on channel=7 note=38 velocity=0 time=0
EXTRACT: note_on channel=7 note=43 velocity=85 time=0
EXTRACT: note_on channel=9 note=38 velocity=58 time=0
EXTRACT: note_on channel=10 note=64 velocity=0 time=0
EXTRACT: note_on channel=10 note=59 velocity=78 time=0
EXTRACT: note_on channel=10 note=64 velocity=78 time=0
EXTRACT: note_on channel=10 note=67 velocity=78 time=0
EXTRACT: note_on channel=11 note=64 velocity=0 time=0
EXTRACT: note_on channel=11 note=67 velocity=78 time=0
EXTRACT: note_on channel=9 note=38 velocity=0 time=0.005376341666666667
EXTRACT: note_on channel=3 note=60 velocity=0 time=0.021505366666666668
EXTRACT: note_on channel=3 note=45 velocity=0 time=0.026881708333333334
EXTRACT: note_on channel=3 note=53 velocity=0 time=0
EXTRACT: note_on channel=2 note=64 velocity=63 time=0.03763439166666667
EXTRACT: note_on channel=2 note=62 velocity=63 time=0
EXTRACT: note_on channel=2 note=59 velocity=63 time=0
EXTRACT: note_on channel=2 note=67 velocity=63 time=0
EXTRACT: note_on channel=3 note=64 velocity=0 time=0.06989244166666667
EXTRACT: note_on channel=1 note=33 velocity=0 time=0.16129025
EXTRACT: note_on channel=1 note=36 velocity=82 time=0
EXTRACT: control_change channel=3 control=64 value=0 time=0
EXTRACT: note_on channel=7 note=43 velocity=0 time=0
EXTRACT: note_on channel=7 note=36 velocity=85 time=0
EXTRACT: note_on channel=9 note=35 velocity=58 time=0
EXTRACT: note_on channel=9 note=38 velocity=50 time=0
EXTRACT: note_on channel=9 note=38 velocity=0 time=0.005376341666666667
EXTRACT: note_on channel=9 note=35 velocity=0 time=0
EXTRACT: control_change channel=3 control=64 value=127 time=0.16129025
EXTRACT: note_on channel=2 note=67 velocity=0 time=0.03763439166666667
EXTRACT: note_on channel=2 note=64 velocity=0 time=0
EXTRACT: note_on channel=2 note=62 velocity=0 time=0
EXTRACT: note_on channel=2 note=59 velocity=0 time=0
EXTRACT: note_on channel=4 note=67 velocity=0 time=0.10752683333333334
EXTRACT: note_on channel=11 note=67 velocity=0 time=0
EXTRACT: note_on channel=4 note=64 velocity=85 time=0
EXTRACT: note_on channel=5 note=67 velocity=0 time=0
EXTRACT: note_on channel=5 note=64 velocity=0 time=0
EXTRACT: note_on channel=5 note=59 velocity=0 time=0
EXTRACT: note_on channel=5 note=55 velocity=82 time=0
EXTRACT: note_on channel=5 note=59 velocity=82 time=0
EXTRACT: note_on channel=5 note=64 velocity=82 time=0
EXTRACT: note_on channel=9 note=38 velocity=38 time=0
EXTRACT: note_on channel=10 note=67 velocity=0 time=0
EXTRACT: note_on channel=10 note=64 velocity=0 time=0
EXTRACT: note_on channel=10 note=59 velocity=0 time=0
EXTRACT: note_on channel=10 note=55 velocity=78 time=0
EXTRACT: note_on channel=10 note=59 velocity=78 time=0
EXTRACT: note_on channel=10 note=64 velocity=78 time=0
EXTRACT: note_on channel=11 note=64 velocity=78 time=0
EXTRACT: note_on channel=9 note=38 velocity=0 time=0.005376341666666667
EXTRACT: note_on channel=2 note=64 velocity=46 time=0.30645147500000003
EXTRACT: note_on channel=2 note=62 velocity=46 time=0
EXTRACT: note_on channel=2 note=59 velocity=46 time=0
EXTRACT: note_on channel=2 note=67 velocity=46 time=0
EXTRACT: note_on channel=9 note=38 velocity=58 time=0.010752683333333334
EXTRACT: note_on channel=9 note=42 velocity=48 time=0
EXTRACT: note_on channel=9 note=42 velocity=0 time=0.005376341666666667
EXTRACT: note_on channel=9 note=38 velocity=0 time=0
EXTRACT: note_on channel=3 note=59 velocity=63 time=0.03225805
EXTRACT: note_on channel=3 note=62 velocity=48 time=0
EXTRACT: note_on channel=3 note=52 velocity=37 time=0.03225805
EXTRACT: note_on channel=2 note=67 velocity=0 time=0.15053756666666668
EXTRACT: note_on channel=2 note=64 velocity=0 time=0
EXTRACT: note_on channel=2 note=62 velocity=0 time=0
EXTRACT: note_on channel=2 note=59 velocity=0 time=0
EXTRACT: note_on channel=3 note=59 velocity=0 time=0.059139758333333334
EXTRACT: note_on channel=7 note=36 velocity=0 time=0.043010733333333336
EXTRACT: note_on channel=7 note=31 velocity=85 time=0
EXTRACT: note_on channel=9 note=38 velocity=38 time=0
EXTRACT: note_on channel=3 note=62 velocity=0 time=0.005376341666666667
EXTRACT: note_on channel=9 note=38 velocity=0 time=0
EXTRACT: note_on channel=3 note=52 velocity=0 time=0.010752683333333334
EXTRACT: note_on channel=1 note=36 velocity=0 time=0.11827951666666667
EXTRACT: note_on channel=4 note=64 velocity=0 time=0.16129025
EXTRACT: note_on channel=11 note=64 velocity=0 time=0
EXTRACT: note_on channel=1 note=36 velocity=81 time=0
EXTRACT: note_on channel=4 note=67 velocity=85 time=0
EXTRACT: note_on channel=5 note=64 velocity=0 time=0
EXTRACT: note_on channel=5 note=59 velocity=0 time=0
EXTRACT: note_on channel=5 note=55 velocity=0 time=0
EXTRACT: note_on channel=5 note=59 velocity=82 time=0
EXTRACT: note_on channel=5 note=64 velocity=82 time=0
EXTRACT: note_on channel=5 note=67 velocity=82 time=0
EXTRACT: note_on channel=9 note=35 velocity=58 time=0
EXTRACT: note_on channel=9 note=38 velocity=58 time=0
EXTRACT: note_on channel=10 note=64 velocity=0 time=0
EXTRACT: note_on channel=10 note=59 velocity=0 time=0
EXTRACT: note_on channel=10 note=55 velocity=0 time=0
EXTRACT: note_on channel=10 note=59 velocity=78 time=0
EXTRACT: note_on channel=10 note=64 velocity=78 time=0
EXTRACT: note_on channel=10 note=67 velocity=78 time=0
EXTRACT: note_on channel=11 note=67 velocity=78 time=0
EXTRACT: note_on channel=9 note=38 velocity=0 time=0.005376341666666667
EXTRACT: note_on channel=9 note=35 velocity=0 time=0
EXTRACT: note_on channel=3 note=62 velocity=51 time=0
EXTRACT: note_on channel=3 note=52 velocity=46 time=0
EXTRACT: note_on channel=4 note=67 velocity=0 time=0
EXTRACT: note_on channel=4 note=69 velocity=85 time=0
EXTRACT: note_on channel=5 note=67 velocity=0 time=0
EXTRACT: note_on channel=5 note=64 velocity=0 time=0
EXTRACT: note_on channel=5 note=59 velocity=0 time=0
EXTRACT: note_on channel=5 note=69 velocity=82 time=0
EXTRACT: note_on channel=7 note=31 velocity=0 time=0
EXTRACT: note_on channel=7 note=36 velocity=85 time=0
EXTRACT: note_on channel=9 note=38 velocity=38 time=0
EXTRACT: note_on channel=10 note=67 velocity=0 time=0
EXTRACT: note_on channel=10 note=64 velocity=0 time=0
EXTRACT: note_on channel=10 note=59 velocity=0 time=0
EXTRACT: note_on channel=10 note=69 velocity=78 time=0
EXTRACT: note_on channel=11 note=67 velocity=0 time=0
EXTRACT: note_on channel=11 note=69 velocity=78 time=0
EXTRACT: note_on channel=9 note=38 velocity=0 time=0.005376341666666667
EXTRACT: note_on channel=3 note=59 velocity=69 time=0.010752683333333334
EXTRACT: note_on channel=2 note=64 velocity=58 time=0.03225805
EXTRACT: note_on channel=2 note=62 velocity=58 time=0
EXTRACT: note_on channel=2 note=59 velocity=58 time=0
EXTRACT: note_on channel=2 note=67 velocity=58 time=0
EXTRACT: note_on channel=3 note=59 velocity=0 time=0.19892464166666668
EXTRACT: note_on channel=3 note=52 velocity=0 time=0.021505366666666668
EXTRACT: note_on channel=3 note=62 velocity=0 time=0
EXTRACT: note_on channel=2 note=67 velocity=0 time=0.026881708333333334
EXTRACT: note_on channel=2 note=64 velocity=0 time=0
EXTRACT: note_on channel=2 note=62 velocity=0 time=0
EXTRACT: note_on channel=2 note=59 velocity=0 time=0
EXTRACT: note_on channel=4 note=69 velocity=0 time=0
EXTRACT: note_on channel=4 note=71 velocity=85 time=0
EXTRACT: note_on channel=5 note=69 velocity=0 time=0
EXTRACT: note_on channel=5 note=71 velocity=82 time=0
EXTRACT: note_on channel=9 note=38 velocity=48 time=0
EXTRACT: note_on channel=9 note=42 velocity=48 time=0
EXTRACT: note_on channel=10 note=69 velocity=0 time=0
EXTRACT: note_on channel=10 note=71 velocity=78 time=0
EXTRACT: note_on channel=11 note=69 velocity=0 time=0
EXTRACT: note_on channel=11 note=71 velocity=78 time=0
EXTRACT: note_on channel=9 note=42 velocity=0 time=0.005376341666666667
EXTRACT: note_on channel=9 note=38 velocity=0 time=0
EXTRACT: note_on channel=4 note=71 velocity=0 time=0
EXTRACT: note_on channel=4 note=69 velocity=85 time=0
EXTRACT: note_on channel=5 note=71 velocity=0 time=0
EXTRACT: note_on channel=5 note=60 velocity=82 time=0
EXTRACT: note_on channel=5 note=65 velocity=82 time=0
EXTRACT: note_on channel=5 note=69 velocity=82 time=0
EXTRACT: note_on channel=7 note=36 velocity=0 time=0
EXTRACT: note_on channel=7 note=31 velocity=85 time=0
EXTRACT: note_on channel=9 note=38 velocity=58 time=0
EXTRACT: note_on channel=10 note=71 velocity=0 time=0
EXTRACT: note_on channel=10 note=60 velocity=78 time=0
EXTRACT: note_on channel=10 note=65 velocity=78 time=0
EXTRACT: note_on channel=10 note=69 velocity=78 time=0
EXTRACT: note_on channel=11 note=71 velocity=0 time=0
EXTRACT: note_on channel=11 note=69 velocity=78 time=0
EXTRACT: note_on channel=9 note=38 velocity=0 time=0.005376341666666667
EXTRACT: note_on channel=1 note=36 velocity=0 time=0.048387075
EXTRACT: note_on channel=1 note=38 velocity=77 time=0.2688170833333334
EXTRACT: control_change channel=3 control=64 value=0 time=0
EXTRACT: note_on channel=7 note=31 velocity=0 time=0
EXTRACT: note_on channel=7 note=38 velocity=85 time=0
EXTRACT: note_on channel=9 note=35 velocity=58 time=0
EXTRACT: note_on channel=9 note=38 velocity=50 time=0
EXTRACT: note_on channel=3 note=60 velocity=51 time=0.005376341666666667
EXTRACT: note_on channel=9 note=38 velocity=0 time=0
EXTRACT: note_on channel=9 note=35 velocity=0 time=0
EXTRACT: note_on channel=3 note=64 velocity=45 time=0.03225805
EXTRACT: note_on channel=3 note=53 velocity=41 time=0
EXTRACT: note_on channel=3 note=50 velocity=38 time=0
EXTRACT: control_change channel=3 control=64 value=127 time=0.16666659166666667
EXTRACT: note_on channel=3 note=60 velocity=0 time=0.03225805
EXTRACT: note_on channel=3 note=53 velocity=0 time=0.016129025
EXTRACT: note_on channel=3 note=64 velocity=0 time=0.010752683333333334
EXTRACT: note_on channel=4 note=69 velocity=0 time=0.048387075
EXTRACT: note_on channel=11 note=69 velocity=0 time=0
EXTRACT: note_on channel=4 note=67 velocity=85 time=0
EXTRACT: note_on channel=5 note=69 velocity=0 time=0
EXTRACT: note_on channel=5 note=65 velocity=0 time=0
EXTRACT: note_on channel=5 note=60 velocity=0 time=0
EXTRACT: note_on channel=5 note=60 velocity=82 time=0
EXTRACT: note_on channel=5 note=65 velocity=82 time=0
EXTRACT: note_on channel=5 note=67 velocity=82 time=0
EXTRACT: note_on channel=9 note=38 velocity=38 time=0
EXTRACT: note_on channel=10 note=69 velocity=0 time=0
EXTRACT: note_on channel=10 note=65 velocity=0 time=0
EXTRACT: note_on channel=10 note=60 velocity=0 time=0
EXTRACT: note_on channel=10 note=60 velocity=78 time=0
EXTRACT: note_on channel=10 note=65 velocity=78 time=0
EXTRACT: note_on channel=10 note=67 velocity=78 time=0
EXTRACT: note_on channel=11 note=67 velocity=78 time=0
EXTRACT: note_on channel=9 note=38 velocity=0 time=0.005376341666666667
EXTRACT: note_on channel=9 note=38 velocity=58 time=0.3172041583333334
EXTRACT: note_on channel=9 note=42 velocity=48 time=0
EXTRACT: note_on channel=9 note=42 velocity=0 time=0.005376341666666667
EXTRACT: note_on channel=9 note=38 velocity=0 time=0
EXTRACT: note_on channel=3 note=64 velocity=53 time=0.005376341666666667
EXTRACT: note_on channel=3 note=60 velocity=63 time=0.005376341666666667
EXTRACT: note_on channel=3 note=53 velocity=47 time=0.010752683333333334
EXTRACT: note_on channel=3 note=60 velocity=0 time=0.16129025
EXTRACT: note_on channel=3 note=53 velocity=0 time=0.03225805
EXTRACT: note_on channel=1 note=38 velocity=0 time=0.021505366666666668
EXTRACT: note_on channel=3 note=64 velocity=0 time=0
EXTRACT: note_on channel=4 note=67 velocity=0 time=0.06989244166666667
EXTRACT: note_on channel=11 note=67 velocity=0 time=0
EXTRACT: note_on channel=1 note=38 velocity=83 time=0
EXTRACT: note_on channel=4 note=69 velocity=85 time=0
EXTRACT: note_on channel=5 note=67 velocity=0 time=0
EXTRACT: note_on channel=5 note=65 velocity=0 time=0
EXTRACT: note_on channel=5 note=60 velocity=0 time=0
EXTRACT: note_on channel=5 note=60 velocity=82 time=0
EXTRACT: note_on channel=5 note=62 velocity=82 time=0
EXTRACT: note_on channel=5 note=65 velocity=82 time=0
EXTRACT: note_on channel=5 note=69 velocity=82 time=0
EXTRACT: note_on channel=7 note=38 velocity=0 time=0
EXTRACT: note_on channel=7 note=33 velocity=85 time=0
EXTRACT: note_on channel=9 note=38 velocity=38 time=0
EXTRACT: note_on channel=10 note=67 velocity=0 time=0
EXTRACT: note_on channel=10 note=65 velocity=0 time=0
EXTRACT: note_on channel=10 note=60 velocity=0 time=0
EXTRACT: note_on channel=10 note=60 velocity=78 time=0
EXTRACT: note_on channel=10 note=62 velocity=78 time=0
EXTRACT: note_on channel=10 note=65 velocity=78 time=0
EXTRACT: note_on channel=10 note=69 velocity=78 time=0
EXTRACT: note_on channel=11 note=69 velocity=78 time=0
EXTRACT: note_on channel=9 note=38 velocity=0 time=0.005376341666666667
EXTRACT: note_on channel=2 note=65 velocity=55 time=0.021505366666666668
EXTRACT: note_on channel=2 note=62 velocity=55 time=0
EXTRACT: note_on channel=2 note=60 velocity=55 time=0
EXTRACT: note_on channel=2 note=69 velocity=55 time=0
EXTRACT: control_change channel=3 control=64 value=0 time=0.16129025
EXTRACT: note_on channel=1 note=33 velocity=74 time=0
EXTRACT: note_on channel=3 note=64 velocity=50 time=0
EXTRACT: note_on channel=4 note=69 velocity=0 time=0
EXTRACT: note_on channel=4 note=69 velocity=85 time=0
EXTRACT: note_on channel=5 note=69 velocity=0 time=0
EXTRACT: note_on channel=5 note=60 velocity=0 time=0
EXTRACT: note_on channel=5 note=62 velocity=0 time=0
EXTRACT: note_on channel=5 note=65 velocity=0 time=0
EXTRACT: note_on channel=5 note=60 velocity=82 time=0
EXTRACT: note_on channel=5 note=62 velocity=82 time=0
EXTRACT: note_on channel=5 note=65 velocity=82 time=0
EXTRACT: note_on channel=5 note=69 velocity=82 time=0
EXTRACT: note_on channel=9 note=35 velocity=58 time=0
EXTRACT: note_on channel=9 note=38 velocity=58 time=0
EXTRACT: note_on channel=10 note=69 velocity=0 time=0
EXTRACT: note_on channel=10 note=60 velocity=0 time=0
EXTRACT: note_on channel=10 note=62 velocity=0 time=0
EXTRACT: note_on channel=10 note=65 velocity=0 time=0
EXTRACT: note_on channel=10 note=60 velocity=78 time=0
EXTRACT: note_on channel=10 note=62 velocity=78 time=0
EXTRACT: note_on channel=10 note=65 velocity=78 time=0
EXTRACT: note_on channel=10 note=69 velocity=78 time=0
EXTRACT: note_on channel=11 note=69 velocity=0 time=0
EXTRACT: note_on channel=11 note=69 velocity=78 time=0
EXTRACT: note_on channel=9 note=38 velocity=0 time=0.005376341666666667
EXTRACT: note_on channel=9 note=35 velocity=0 time=0
EXTRACT: note_on channel=3 note=45 velocity=50 time=0.005376341666666667
EXTRACT: note_on channel=3 note=60 velocity=57 time=0
EXTRACT: note_on channel=3 note=53 velocity=40 time=0
EXTRACT: note_on channel=1 note=38 velocity=0 time=0.026881708333333334
EXTRACT: note_on channel=3 note=50 velocity=0 time=0.03225805
EXTRACT: control_change channel=3 control=64 value=127 time=0.19892464166666668
EXTRACT: note_on channel=4 note=69 velocity=0 time=0
EXTRACT: note_on channel=4 note=67 velocity=85 time=0
EXTRACT: note_on channel=5 note=69 velocity=0 time=0
EXTRACT: note_on channel=5 note=60 velocity=0 time=0
EXTRACT: note_on channel=5 note=62 velocity=0 time=0
EXTRACT: note_on channel=5 note=65 velocity=0 time=0
EXTRACT: note_on channel=5 note=67 velocity=82 time=0
EXTRACT: note_on channel=7 note=33 velocity=0 time=0
EXTRACT: note_on channel=7 note=38 velocity=85 time=0
EXTRACT: note_on channel=9 note=38 velocity=38 time=0
EXTRACT: note_on channel=10 note=69 velocity=0 time=0
EXTRACT: note_on channel=10 note=60 velocity=0 time=0
EXTRACT: note_on channel=10 note=62 velocity=0 time=0
EXTRACT: note_on channel=10 note=65 velocity=0 time=0
EXTRACT: note_on channel=10 note=67 velocity=78 time=0
EXTRACT: note_on channel=11 note=69 velocity=0 time=0
EXTRACT: note_on channel=11 note=67 velocity=78 time=0
EXTRACT: note_on channel=9 note=38 velocity=0 time=0.005376341666666667
EXTRACT: note_on channel=3 note=60 velocity=0 time=0.09139780833333334
EXTRACT: note_on channel=3 note=53 velocity=0 time=0.016129025
EXTRACT: note_on channel=3 note=64 velocity=0 time=0.021505366666666668
EXTRACT: note_on channel=4 note=67 velocity=0 time=0
EXTRACT: note_on channel=4 note=64 velocity=85 time=0
EXTRACT: note_on channel=5 note=67 velocity=0 time=0
EXTRACT: note_on channel=5 note=64 velocity=82 time=0
EXTRACT: note_on channel=9 note=38 velocity=48 time=0
EXTRACT: note_on channel=9 note=42 velocity=48 time=0
EXTRACT: note_on channel=10 note=67 velocity=0 time=0
EXTRACT: note_on channel=10 note=64 velocity=78 time=0
EXTRACT: note_on channel=11 note=67 velocity=0 time=0
EXTRACT: note_on channel=11 note=64 velocity=78 time=0
EXTRACT: note_on channel=9 note=42 velocity=0 time=0.005376341666666667
EXTRACT: note_on channel=9 note=38 velocity=0 time=0
EXTRACT: note_on channel=1 note=33 velocity=0 time=0.03763439166666667
EXTRACT: note_on channel=3 note=45 velocity=0 time=0.241935375
EXTRACT: note_on channel=1 note=33 velocity=76 time=0
EXTRACT: note_on channel=4 note=64 velocity=0 time=0
EXTRACT: note_on channel=4 note=67 velocity=85 time=0
EXTRACT: note_on channel=5 note=64 velocity=0 time=0
EXTRACT: note_on channel=5 note=59 velocity=82 time=0
EXTRACT: note_on channel=5 note=64 velocity=82 time=0
EXTRACT: note_on channel=5 note=67 velocity=82 time=0
EXTRACT: note_on channel=7 note=38 velocity=0 time=0
EXTRACT: note_on channel=7 note=43 velocity=85 time=0
EXTRACT: note_on channel=9 note=38 velocity=58 time=0
EXTRACT: note_on channel=10 note=64 velocity=0 time=0
EXTRACT: note_on channel=10 note=59 velocity=78 time=0
EXTRACT: note_on channel=10 note=64 velocity=78 time=0
EXTRACT: note_on channel=10 note=67 velocity=78 time=0
EXTRACT: note_on channel=11 note=64 velocity=0 time=0
EXTRACT: note_on channel=11 note=67 velocity=78 time=0
EXTRACT: note_on channel=9 note=38 velocity=0 time=0.005376341666666667
EXTRACT: note_on channel=3 note=64 velocity=44 time=0.005376341666666667
EXTRACT: note_on channel=3 note=60 velocity=67 time=0.016129025
EXTRACT: note_on channel=3 note=53 velocity=24 time=0.026881708333333334
EXTRACT: note_on channel=3 note=60 velocity=0 time=0.0645161
EXTRACT: note_on channel=3 note=53 velocity=0 time=0.010752683333333334
EXTRACT: note_on channel=3 note=64 velocity=0 time=0.026881708333333334
EXTRACT: control_change channel=3 control=64 value=0 time=0.11290317500000001
EXTRACT: note_on channel=1 note=33 velocity=0 time=0.05376341666666667
EXTRACT: note_on channel=1 note=36 velocity=77 time=0
EXTRACT: note_on channel=2 note=69 velocity=0 time=0
EXTRACT: note_on channel=2 note=65 velocity=0 time=0
EXTRACT: note_on channel=2 note=62 velocity=0 time=0
EXTRACT: note_on channel=2 note=60 velocity=0 time=0
EXTRACT: note_on channel=3 note=48 velocity=53 time=0
EXTRACT: note_on channel=3 note=62 velocity=45 time=0
EXTRACT: note_on channel=3 note=59 velocity=59 time=0
EXTRACT: note_on channel=3 note=52 velocity=49 time=0
EXTRACT: note_on channel=7 note=43 velocity=0 time=0
EXTRACT: note_on channel=7 note=36 velocity=85 time=0
EXTRACT: note_on channel=9 note=35 velocity=58 time=0
EXTRACT: note_on channel=9 note=38 velocity=50 time=0
EXTRACT: note_on channel=9 note=38 velocity=0 time=0.005376341666666667
EXTRACT: note_on channel=9 note=35 velocity=0 time=0
EXTRACT: note_on channel=2 note=64 velocity=63 time=0.005376341666666667
EXTRACT: note_on channel=2 note=62 velocity=63 time=0
EXTRACT: note_on channel=2 note=59 velocity=63 time=0
EXTRACT: note_on channel=2 note=67 velocity=63 time=0
EXTRACT: note_on channel=2 note=67 velocity=0 time=0.20430098333333335
EXTRACT: note_on channel=2 note=64 velocity=0 time=0
EXTRACT: note_on channel=2 note=62 velocity=0 time=0
EXTRACT: note_on channel=2 note=59 velocity=0 time=0
EXTRACT: control_change channel=3 control=64 value=127 time=0.010752683333333334
EXTRACT: note_on channel=3 note=59 velocity=0 time=0.010752683333333334
EXTRACT: note_on channel=3 note=52 velocity=0 time=0.06989244166666667
EXTRACT: note_on channel=3 note=62 velocity=0 time=0
EXTRACT: note_on channel=9 note=38 velocity=38 time=0.016129025
EXTRACT: note_on channel=9 note=38 velocity=0 time=0.005376341666666667
EXTRACT: note_on channel=4 note=67 velocity=0 time=0.29032245
EXTRACT: note_on channel=11 note=67 velocity=0 time=0
EXTRACT: note_on channel=2 note=64 velocity=46 time=0.016129025
EXTRACT: note_on channel=2 note=62 velocity=46 time=0
EXTRACT: note_on channel=2 note=59 velocity=46 time=0
EXTRACT: note_on channel=2 note=67 velocity=46 time=0
EXTRACT: note_on channel=5 note=67 velocity=0 time=0.010752683333333334
EXTRACT: note_on channel=5 note=64 velocity=0 time=0
EXTRACT: note_on channel=5 note=59 velocity=0 time=0
EXTRACT: note_on channel=9 note=38 velocity=58 time=0
EXTRACT: note_on channel=9 note=42 velocity=48 time=0
EXTRACT: note_on channel=10 note=67 velocity=0 time=0
EXTRACT: note_on channel=10 note=64 velocity=0 time=0
EXTRACT: note_on channel=10 note=59 velocity=0 time=0
EXTRACT: note_on channel=9 note=42 velocity=0 time=0.005376341666666667
EXTRACT: note_on channel=9 note=38 velocity=0 time=0
EXTRACT: note_on channel=3 note=62 velocity=58 time=0.005376341666666667
EXTRACT: note_on channel=3 note=59 velocity=63 time=0.005376341666666667
EXTRACT: note_on channel=3 note=52 velocity=45 time=0.010752683333333334
EXTRACT: note_on channel=2 note=67 velocity=0 time=0.1935483
EXTRACT: note_on channel=2 note=64 velocity=0 time=0
EXTRACT: note_on channel=2 note=62 velocity=0 time=0
EXTRACT: note_on channel=2 note=59 velocity=0 time=0
EXTRACT: note_on channel=1 note=36 velocity=0 time=0.021505366666666668
EXTRACT: note_on channel=3 note=59 velocity=0 time=0.010752683333333334
EXTRACT: note_on channel=3 note=52 velocity=0 time=0.048387075
EXTRACT: note_on channel=1 note=36 velocity=83 time=0
EXTRACT: note_on channel=4 note=67 velocity=85 time=0
EXTRACT: note_on channel=5 note=67 velocity=82 time=0
EXTRACT: note_on channel=7 note=36 velocity=0 time=0
EXTRACT: note_on channel=7 note=31 velocity=85 time=0
EXTRACT: note_on channel=9 note=38 velocity=38 time=0
EXTRACT: note_on channel=10 note=67 velocity=78 time=0
EXTRACT: note_on channel=11 note=67 velocity=78 time=0
EXTRACT: note_on channel=3 note=62 velocity=0 time=0.005376341666666667
EXTRACT: note_on channel=9 note=38 velocity=0 time=0
EXTRACT: note_on channel=3 note=48 velocity=0 time=0.11827951666666667
EXTRACT: note_on channel=1 note=43 velocity=74 time=0
EXTRACT: note_on channel=4 note=67 velocity=0 time=0
EXTRACT: note_on channel=4 note=67 velocity=85 time=0
EXTRACT: note_on channel=5 note=67 velocity=0 time=0
EXTRACT: note_on channel=5 note=59 velocity=82 time=0
EXTRACT: note_on channel=5 note=64 velocity=82 time=0
EXTRACT: note_on channel=5 note=67 velocity=82 time=0
EXTRACT: note_on channel=9 note=35 velocity=58 time=0
EXTRACT: note_on channel=9 note=38 velocity=58 time=0
EXTRACT: note_on channel=10 note=67 velocity=0 time=0
EXTRACT: note_on channel=10 note=59 velocity=78 time=0
EXTRACT: note_on channel=10 note=64 velocity=78 time=0
EXTRACT: note_on channel=10 note=67 velocity=78 time=0
EXTRACT: note_on channel=11 note=67 velocity=0 time=0
EXTRACT: note_on channel=11 note=67 velocity=78 time=0
EXTRACT: note_on channel=3 note=43 velocity=55 time=0.005376341666666667
EXTRACT: note_on channel=9 note=38 velocity=0 time=0
EXTRACT: note_on channel=9 note=35 velocity=0 time=0
EXTRACT: note_on channel=1 note=36 velocity=0 time=0.03225805
EXTRACT: control_change channel=3 control=64 value=0 time=0.11827951666666667
EXTRACT: note_on channel=4 note=67 velocity=0 time=0
EXTRACT: note_on channel=4 note=69 velocity=85 time=0
EXTRACT: note_on channel=5 note=67 velocity=0 time=0
EXTRACT: note_on channel=5 note=64 velocity=0 time=0
EXTRACT: note_on channel=5 note=59 velocity=0 time=0
EXTRACT: note_on channel=5 note=69 velocity=82 time=0
EXTRACT: note_on channel=7 note=31 velocity=0 time=0
EXTRACT: note_on channel=7 note=36 velocity=85 time=0
EXTRACT: note_on channel=9 note=38 velocity=38 time=0
EXTRACT: note_on channel=10 note=67 velocity=0 time=0
EXTRACT: note_on channel=10 note=64 velocity=0 time=0
EXTRACT: note_on channel=10 note=59 velocity=0 time=0
EXTRACT: note_on channel=10 note=69 velocity=78 time=0
EXTRACT: note_on channel=11 note=67 velocity=0 time=0
EXTRACT: note_on channel=11 note=69 velocity=78 time=0
EXTRACT: note_on channel=9 note=38 velocity=0 time=0.005376341666666667
EXTRACT: note_on channel=3 note=52 velocity=42 time=0.021505366666666668
EXTRACT: note_on channel=3 note=59 velocity=57 time=0.010752683333333334
EXTRACT: note_on channel=3 note=62 velocity=46 time=0
EXTRACT: note_on channel=2 note=64 velocity=58 time=0.010752683333333334
EXTRACT: note_on channel=2 note=62 velocity=58 time=0
EXTRACT: note_on channel=2 note=59 velocity=58 time=0
EXTRACT: note_on channel=2 note=67 velocity=58 time=0
EXTRACT: note_on channel=2 note=67 velocity=0 time=0.24731171666666668
EXTRACT: note_on channel=2 note=64 velocity=0 time=0
EXTRACT: note_on channel=2 note=62 velocity=0 time=0
EXTRACT: note_on channel=2 note=59 velocity=0 time=0
EXTRACT: note_on channel=4 note=69 velocity=0 time=0
EXTRACT: note_on channel=4 note=71 velocity=85 time=0
EXTRACT: note_on channel=5 note=69 velocity=0 time=0
EXTRACT: note_on channel=5 note=71 velocity=82 time=0
EXTRACT: note_on channel=9 note=38 velocity=48 time=0
EXTRACT: note_on channel=9 note=42 velocity=48 time=0
EXTRACT: note_on channel=10 note=69 velocity=0 time=0
EXTRACT: note_on channel=10 note=71 velocity=78 time=0
EXTRACT: note_on channel=11 note=69 velocity=0 time=0
EXTRACT: note_on channel=11 note=71 velocity=78 time=0
EXTRACT: note_on channel=9 note=42 velocity=0 time=0.005376341666666667
EXTRACT: note_on channel=9 note=38 velocity=0 time=0
EXTRACT: note_on channel=1 note=43 velocity=0 time=0.03763439166666667
EXTRACT: note_on channel=1 note=43 velocity=76 time=0
EXTRACT: note_on channel=4 note=71 velocity=0 time=0
EXTRACT: note_on channel=4 note=69 velocity=85 time=0
EXTRACT: note_on channel=5 note=71 velocity=0 time=0
EXTRACT: note_on channel=5 note=60 velocity=82 time=0
EXTRACT: note_on channel=5 note=65 velocity=82 time=0
EXTRACT: note_on channel=5 note=69 velocity=82 time=0
EXTRACT: note_on channel=7 note=36 velocity=0 time=0
EXTRACT: note_on channel=7 note=31 velocity=85 time=0
EXTRACT: note_on channel=9 note=38 velocity=58 time=0
EXTRACT: note_on channel=10 note=71 velocity=0 time=0
EXTRACT: note_on channel=10 note=60 velocity=78 time=0
EXTRACT: note_on channel=10 note=65 velocity=78 time=0
EXTRACT: note_on channel=10 note=69 velocity=78 time=0
EXTRACT: note_on channel=11 note=71 velocity=0 time=0
EXTRACT: note_on channel=11 note=69 velocity=78 time=0
EXTRACT: note_on channel=9 note=38 velocity=0 time=0.005376341666666667
EXTRACT: note_on channel=3 note=59 velocity=0 time=0.016129025
EXTRACT: note_on channel=3 note=52 velocity=0 time=0.048387075
EXTRACT: note_on channel=2 note=53 velocity=49 time=0.021505366666666668
EXTRACT: note_on channel=2 note=57 velocity=47 time=0
EXTRACT: note_on channel=2 note=60 velocity=55 time=0
EXTRACT: note_on channel=2 note=64 velocity=51 time=0
EXTRACT: note_on channel=2 note=69 velocity=59 time=0
EXTRACT: note_on channel=3 note=43 velocity=0 time=0
EXTRACT: note_on channel=3 note=62 velocity=0 time=0
EXTRACT: note_on channel=1 note=43 velocity=0 time=0.2311826916666667
EXTRACT: note_on channel=1 note=38 velocity=82 time=0
EXTRACT: note_on channel=3 note=50 velocity=53 time=0
EXTRACT: note_on channel=3 note=64 velocity=45 time=0
EXTRACT: note_on channel=3 note=60 velocity=59 time=0
EXTRACT: note_on channel=3 note=53 velocity=49 time=0
EXTRACT: note_on channel=7 note=31 velocity=0 time=0
EXTRACT: note_on channel=7 note=38 velocity=85 time=0
EXTRACT: note_on channel=9 note=35 velocity=58 time=0
EXTRACT: note_on channel=9 note=38 velocity=50 time=0
EXTRACT: note_on channel=9 note=38 velocity=0 time=0.005376341666666667
EXTRACT: note_on channel=9 note=35 velocity=0 time=0
EXTRACT: control_change channel=3 control=64 value=127 time=0.22043000833333334
EXTRACT: note_on channel=3 note=60 velocity=0 time=0.010752683333333334
EXTRACT: note_on channel=3 note=53 velocity=0 time=0.06989244166666667
EXTRACT: note_on channel=3 note=64 velocity=0 time=0
EXTRACT: note_on channel=4 note=69 velocity=0 time=0.005376341666666667
EXTRACT: note_on channel=11 note=69 velocity=0 time=0
EXTRACT: note_on channel=4 note=67 velocity=85 time=0
EXTRACT: note_on channel=5 note=69 velocity=0 time=0
EXTRACT: note_on channel=5 note=65 velocity=0 time=0
EXTRACT: note_on channel=5 note=60 velocity=0 time=0
EXTRACT: note_on channel=5 note=60 velocity=82 time=0
EXTRACT: note_on channel=5 note=65 velocity=82 time=0
EXTRACT: note_on channel=5 note=67 velocity=82 time=0
EXTRACT: note_on channel=9 note=38 velocity=38 time=0
EXTRACT: note_on channel=10 note=69 velocity=0 time=0
EXTRACT: note_on channel=10 note=65 velocity=0 time=0
EXTRACT: note_on channel=10 note=60 velocity=0 time=0
EXTRACT: note_on channel=10 note=60 velocity=78 time=0
EXTRACT: note_on channel=10 note=65 velocity=78 time=0
EXTRACT: note_on channel=10 note=67 velocity=78 time=0
EXTRACT: note_on channel=11 note=67 velocity=78 time=0
EXTRACT: note_on channel=9 note=38 velocity=0 time=0.005376341666666667
EXTRACT: note_on channel=2 note=65 velocity=56 time=0.0645161
EXTRACT: note_on channel=9 note=38 velocity=58 time=0.25268805833333335
EXTRACT: note_on channel=9 note=42 velocity=48 time=0
EXTRACT: note_on channel=9 note=42 velocity=0 time=0.005376341666666667
EXTRACT: note_on channel=9 note=38 velocity=0 time=0
EXTRACT: note_on channel=3 note=62 velocity=58 time=0.005376341666666667
EXTRACT: note_on channel=3 note=60 velocity=63 time=0.005376341666666667
EXTRACT: note_on channel=3 note=53 velocity=45 time=0.010752683333333334
EXTRACT: note_on channel=3 note=60 velocity=0 time=0.22580635000000002
EXTRACT: note_on channel=3 note=53 velocity=0 time=0.048387075
EXTRACT: note_on channel=4 note=67 velocity=0 time=0.010752683333333334
EXTRACT: note_on channel=11 note=67 velocity=0 time=0
EXTRACT: control_change channel=2 control=64 value=127 time=0
EXTRACT: note_on channel=4 note=69 velocity=85 time=0
EXTRACT: note_on channel=5 note=67 velocity=0 time=0
EXTRACT: note_on channel=5 note=65 velocity=0 time=0
EXTRACT: note_on channel=5 note=60 velocity=0 time=0
EXTRACT: note_on channel=5 note=60 velocity=82 time=0
EXTRACT: note_on channel=5 note=62 velocity=82 time=0
EXTRACT: note_on channel=5 note=65 velocity=82 time=0
EXTRACT: note_on channel=5 note=69 velocity=82 time=0
EXTRACT: note_on channel=7 note=38 velocity=0 time=0
EXTRACT: note_on channel=7 note=33 velocity=85 time=0
EXTRACT: note_on channel=9 note=38 velocity=38 time=0
EXTRACT: note_on channel=10 note=67 velocity=0 time=0
EXTRACT: note_on channel=10 note=65 velocity=0 time=0
EXTRACT: note_on channel=10 note=60 velocity=0 time=0
EXTRACT: note_on channel=10 note=60 velocity=78 time=0
EXTRACT: note_on channel=10 note=62 velocity=78 time=0
EXTRACT: note_on channel=10 note=65 velocity=78 time=0
EXTRACT: note_on channel=10 note=69 velocity=78 time=0
EXTRACT: note_on channel=11 note=69 velocity=78 time=0
EXTRACT: note_on channel=3 note=62 velocity=0 time=0.005376341666666667
EXTRACT: note_on channel=9 note=38 velocity=0 time=0
EXTRACT: note_on channel=3 note=50 velocity=0 time=0.11827951666666667
EXTRACT: note_on channel=1 note=38 velocity=0 time=0.010752683333333334
EXTRACT: note_on channel=1 note=38 velocity=81 time=0
EXTRACT: note_on channel=4 note=69 velocity=0 time=0
EXTRACT: note_on channel=4 note=69 velocity=85 time=0
EXTRACT: note_on channel=5 note=69 velocity=0 time=0
EXTRACT: note_on channel=5 note=60 velocity=0 time=0
EXTRACT: note_on channel=5 note=62 velocity=0 time=0
EXTRACT: note_on channel=5 note=65 velocity=0 time=0
EXTRACT: note_on channel=5 note=60 velocity=82 time=0
EXTRACT: note_on channel=5 note=62 velocity=82 time=0
EXTRACT: note_on channel=5 note=65 velocity=82 time=0
EXTRACT: note_on channel=5 note=69 velocity=82 time=0
EXTRACT: note_on channel=9 note=35 velocity=58 time=0
EXTRACT: note_on channel=9 note=38 velocity=58 time=0
EXTRACT: note_on channel=10 note=69 velocity=0 time=0
EXTRACT: note_on channel=10 note=60 velocity=0 time=0
EXTRACT: note_on channel=10 note=62 velocity=0 time=0
EXTRACT: note_on channel=10 note=65 velocity=0 time=0
EXTRACT: note_on channel=10 note=60 velocity=78 time=0
EXTRACT: note_on channel=10 note=62 velocity=78 time=0
EXTRACT: note_on channel=10 note=65 velocity=78 time=0
EXTRACT: note_on channel=10 note=69 velocity=78 time=0
EXTRACT: note_on channel=11 note=69 velocity=0 time=0
EXTRACT: note_on channel=11 note=69 velocity=78 time=0
EXTRACT: note_on channel=3 note=45 velocity=55 time=0.005376341666666667
EXTRACT: note_on channel=9 note=38 velocity=0 time=0
EXTRACT: note_on channel=9 note=35 velocity=0 time=0
EXTRACT: control_change channel=3 control=64 value=0 time=0.15053756666666668
EXTRACT: control_change channel=2 control=0 value=0 time=0
EXTRACT: note_on channel=4 note=69 velocity=0 time=0
EXTRACT: note_on channel=4 note=67 velocity=85 time=0
EXTRACT: note_on channel=5 note=69 velocity=0 time=0
EXTRACT: note_on channel=5 note=60 velocity=0 time=0
EXTRACT: note_on channel=5 note=62 velocity=0 time=0
EXTRACT: note_on channel=5 note=65 velocity=0 time=0
EXTRACT: note_on channel=5 note=67 velocity=82 time=0
EXTRACT: note_on channel=7 note=33 velocity=0 time=0
EXTRACT: note_on channel=7 note=38 velocity=85 time=0
EXTRACT: note_on channel=9 note=38 velocity=38 time=0
EXTRACT: note_on channel=10 note=69 velocity=0 time=0
EXTRACT: note_on channel=10 note=60 velocity=0 time=0
EXTRACT: note_on channel=10 note=62 velocity=0 time=0
EXTRACT: note_on channel=10 note=65 velocity=0 time=0
EXTRACT: note_on channel=10 note=67 velocity=78 time=0
EXTRACT: note_on channel=11 note=69 velocity=0 time=0
EXTRACT: note_on channel=11 note=67 velocity=78 time=0
EXTRACT: note_on channel=9 note=38 velocity=0 time=0.005376341666666667
EXTRACT: note_on channel=3 note=53 velocity=42 time=0.021505366666666668
EXTRACT: note_on channel=3 note=60 velocity=57 time=0.010752683333333334
EXTRACT: note_on channel=3 note=62 velocity=46 time=0
EXTRACT: note_on channel=4 note=67 velocity=0 time=0
EXTRACT: note_on channel=4 note=64 velocity=85 time=0
EXTRACT: note_on channel=5 note=67 velocity=0 time=0
EXTRACT: note_on channel=5 note=64 velocity=82 time=0
EXTRACT: note_on channel=9 note=38 velocity=48 time=0
EXTRACT: note_on channel=9 note=42 velocity=48 time=0
EXTRACT: note_on channel=10 note=67 velocity=0 time=0
EXTRACT: note_on channel=10 note=64 velocity=78 time=0
EXTRACT: note_on channel=11 note=67 velocity=0 time=0
EXTRACT: note_on channel=11 note=64 velocity=78 time=0
EXTRACT: note_on channel=9 note=42 velocity=0 time=0.005376341666666667
EXTRACT: note_on channel=9 note=38 velocity=0 time=0
EXTRACT: control_change channel=2 control=0 value=0 time=0
EXTRACT: note_on channel=4 note=64 velocity=0 time=0
EXTRACT: note_on channel=4 note=67 velocity=85 time=0
EXTRACT: note_on channel=5 note=64 velocity=0 time=0
EXTRACT: note_on channel=5 note=59 velocity=82 time=0
EXTRACT: note_on channel=5 note=64 velocity=82 time=0
EXTRACT: note_on channel=5 note=67 velocity=82 time=0
EXTRACT: note_on channel=7 note=38 velocity=0 time=0
EXTRACT: note_on channel=7 note=43 velocity=85 time=0
EXTRACT: note_on channel=9 note=38 velocity=58 time=0
EXTRACT: note_on channel=10 note=64 velocity=0 time=0
EXTRACT: note_on channel=10 note=59 velocity=78 time=0
EXTRACT: note_on channel=10 note=64 velocity=78 time=0
EXTRACT: note_on channel=10 note=67 velocity=78 time=0
EXTRACT: note_on channel=11 note=64 velocity=0 time=0
EXTRACT: note_on channel=11 note=67 velocity=78 time=0
EXTRACT: note_on channel=9 note=38 velocity=0 time=0.005376341666666667
EXTRACT: note_on channel=3 note=60 velocity=0 time=0.016129025
EXTRACT: note_on channel=1 note=38 velocity=0 time=0.03225805
EXTRACT: note_on channel=3 note=53 velocity=0 time=0.016129025
EXTRACT: note_on channel=3 note=45 velocity=0 time=0.021505366666666668
EXTRACT: note_on channel=3 note=62 velocity=0 time=0
EXTRACT: note_on channel=2 note=69 velocity=0 time=0.22043000833333334
EXTRACT: note_on channel=2 note=64 velocity=0 time=0
EXTRACT: note_on channel=2 note=60 velocity=0 time=0
EXTRACT: note_on channel=2 note=53 velocity=0 time=0
EXTRACT: note_on channel=2 note=57 velocity=0 time=0
EXTRACT: note_on channel=1 note=36 velocity=86 time=0.010752683333333334
EXTRACT: note_on channel=2 note=65 velocity=0 time=0
EXTRACT: control_change channel=2 control=0 value=0 time=0
EXTRACT: control_change channel=2 control=64 value=0 time=0
EXTRACT: note_on channel=2 note=60 velocity=56 time=0
EXTRACT: note_on channel=3 note=48 velocity=53 time=0
EXTRACT: note_on channel=3 note=60 velocity=45 time=0
EXTRACT: note_on channel=3 note=59 velocity=59 time=0
EXTRACT: note_on channel=3 note=52 velocity=49 time=0
EXTRACT: note_on channel=7 note=43 velocity=0 time=0
EXTRACT: note_on channel=7 note=36 velocity=85 time=0
EXTRACT: note_on channel=9 note=35 velocity=58 time=0
EXTRACT: note_on channel=9 note=38 velocity=50 time=0
EXTRACT: note_on channel=9 note=38 velocity=0 time=0.005376341666666667
EXTRACT: note_on channel=9 note=35 velocity=0 time=0
EXTRACT: note_on channel=2 note=59 velocity=67 time=0.043010733333333336
EXTRACT: note_on channel=2 note=52 velocity=39 time=0
EXTRACT: note_on channel=2 note=64 velocity=61 time=0.09677415
EXTRACT: control_change channel=3 control=64 value=127 time=0.080645125
EXTRACT: note_on channel=3 note=59 velocity=0 time=0.010752683333333334
EXTRACT: note_on channel=2 note=67 velocity=52 time=0.05376341666666667
EXTRACT: note_on channel=3 note=52 velocity=0 time=0.016129025
EXTRACT: note_on channel=3 note=60 velocity=0 time=0
EXTRACT: note_on channel=4 note=67 velocity=0 time=0.005376341666666667
EXTRACT: note_on channel=11 note=67 velocity=0 time=0
EXTRACT: note_on channel=4 note=64 velocity=85 time=0.010752683333333334
EXTRACT: note_on channel=5 note=67 velocity=0 time=0
EXTRACT: note_on channel=5 note=64 velocity=0 time=0
EXTRACT: note_on channel=5 note=59 velocity=0 time=0
EXTRACT: note_on channel=5 note=55 velocity=82 time=0
EXTRACT: note_on channel=5 note=59 velocity=82 time=0
EXTRACT: note_on channel=5 note=64 velocity=82 time=0
EXTRACT: note_on channel=9 note=38 velocity=38 time=0
EXTRACT: note_on channel=10 note=67 velocity=0 time=0
EXTRACT: note_on channel=10 note=64 velocity=0 time=0
EXTRACT: note_on channel=10 note=59 velocity=0 time=0
EXTRACT: note_on channel=10 note=55 velocity=78 time=0
EXTRACT: note_on channel=10 note=59 velocity=78 time=0
EXTRACT: note_on channel=10 note=64 velocity=78 time=0
EXTRACT: note_on channel=11 note=64 velocity=78 time=0
EXTRACT: note_on channel=9 note=38 velocity=0 time=0.005376341666666667
EXTRACT: control_change channel=2 control=64 value=127 time=0.15591390833333335
EXTRACT: note_on channel=9 note=38 velocity=58 time=0.16129025
EXTRACT: note_on channel=9 note=42 velocity=48 time=0
EXTRACT: note_on channel=9 note=42 velocity=0 time=0.005376341666666667
EXTRACT: note_on channel=9 note=38 velocity=0 time=0
EXTRACT: note_on channel=3 note=60 velocity=58 time=0.005376341666666667
EXTRACT: note_on channel=3 note=59 velocity=63 time=0.005376341666666667
EXTRACT: note_on channel=3 note=52 velocity=45 time=0.010752683333333334
EXTRACT: note_on channel=3 note=59 velocity=0 time=0.22580635000000002
EXTRACT: note_on channel=3 note=52 velocity=0 time=0.048387075
EXTRACT: note_on channel=4 note=64 velocity=0 time=0.010752683333333334
EXTRACT: note_on channel=11 note=64 velocity=0 time=0
EXTRACT: note_on channel=5 note=64 velocity=0 time=0.010752683333333334
EXTRACT: note_on channel=5 note=59 velocity=0 time=0
EXTRACT: note_on channel=5 note=55 velocity=0 time=0
EXTRACT: note_on channel=7 note=36 velocity=0 time=0
EXTRACT: note_on channel=7 note=31 velocity=85 time=0
EXTRACT: note_on channel=9 note=38 velocity=38 time=0
EXTRACT: note_on channel=10 note=64 velocity=0 time=0
EXTRACT: note_on channel=10 note=59 velocity=0 time=0
EXTRACT: note_on channel=10 note=55 velocity=0 time=0
EXTRACT: note_on channel=3 note=60 velocity=0 time=0.005376341666666667
EXTRACT: note_on channel=9 note=38 velocity=0 time=0
EXTRACT: note_on channel=3 note=48 velocity=0 time=0.11827951666666667
EXTRACT: control_change channel=2 control=0 value=0 time=0.03763439166666667
EXTRACT: note_on channel=1 note=43 velocity=75 time=0
EXTRACT: note_on channel=4 note=60 velocity=85 time=0
EXTRACT: note_on channel=5 note=60 velocity=82 time=0
EXTRACT: note_on channel=9 note=35 velocity=58 time=0
EXTRACT: note_on channel=9 note=38 velocity=58 time=0
EXTRACT: note_on channel=10 note=60 velocity=78 time=0
EXTRACT: note_on channel=11 note=60 velocity=78 time=0
EXTRACT: note_on channel=3 note=43 velocity=55 time=0.005376341666666667
EXTRACT: note_on channel=9 note=38 velocity=0 time=0
EXTRACT: note_on channel=9 note=35 velocity=0 time=0
EXTRACT: note_on channel=1 note=36 velocity=0 time=0.03225805
EXTRACT: control_change channel=3 control=64 value=0 time=0.11827951666666667
EXTRACT: note_on channel=4 note=60 velocity=0 time=0
EXTRACT: note_on channel=4 note=62 velocity=85 time=0
EXTRACT: note_on channel=5 note=60 velocity=0 time=0
EXTRACT: note_on channel=5 note=62 velocity=82 time=0
EXTRACT: note_on channel=7 note=31 velocity=0 time=0
EXTRACT: note_on channel=7 note=36 velocity=85 time=0
EXTRACT: note_on channel=9 note=38 velocity=38 time=0
EXTRACT: note_on channel=10 note=60 velocity=0 time=0
EXTRACT: note_on channel=10 note=62 velocity=78 time=0
EXTRACT: note_on channel=11 note=60 velocity=0 time=0
EXTRACT: note_on channel=11 note=62 velocity=78 time=0
EXTRACT: note_on channel=9 note=38 velocity=0 time=0.005376341666666667
EXTRACT: note_on channel=3 note=52 velocity=42 time=0.021505366666666668
EXTRACT: note_on channel=3 note=59 velocity=57 time=0.010752683333333334
EXTRACT: note_on channel=3 note=60 velocity=46 time=0
EXTRACT: control_change channel=2 control=0 value=0 time=0
EXTRACT: note_on channel=4 note=62 velocity=0 time=0
EXTRACT: note_on channel=4 note=62 velocity=85 time=0
EXTRACT: note_on channel=5 note=62 velocity=0 time=0
EXTRACT: note_on channel=5 note=62 velocity=82 time=0
EXTRACT: note_on channel=10 note=62 velocity=0 time=0
EXTRACT: note_on channel=10 note=62 velocity=78 time=0
EXTRACT: note_on channel=11 note=62 velocity=0 time=0
EXTRACT: note_on channel=11 note=62 velocity=78 time=0
EXTRACT: note_on channel=4 note=62 velocity=0 time=0
EXTRACT: note_on channel=4 note=64 velocity=85 time=0
EXTRACT: note_on channel=5 note=62 velocity=0 time=0
EXTRACT: note_on channel=5 note=64 velocity=82 time=0
EXTRACT: note_on channel=9 note=38 velocity=48 time=0
EXTRACT: note_on channel=9 note=42 velocity=48 time=0
EXTRACT: note_on channel=10 note=62 velocity=0 time=0
EXTRACT: note_on channel=10 note=64 velocity=78 time=0
EXTRACT: note_on channel=11 note=62 velocity=0 time=0
EXTRACT: note_on channel=11 note=64 velocity=78 time=0
EXTRACT: note_on channel=9 note=42 velocity=0 time=0.005376341666666667
EXTRACT: note_on channel=9 note=38 velocity=0 time=0
EXTRACT: note_on channel=1 note=43 velocity=0 time=0.1344085416666667
EXTRACT: note_on channel=1 note=43 velocity=70 time=0
EXTRACT: note_on channel=4 note=64 velocity=0 time=0
EXTRACT: note_on channel=4 note=65 velocity=85 time=0
EXTRACT: note_on channel=5 note=64 velocity=0 time=0
EXTRACT: note_on channel=5 note=65 velocity=82 time=0
EXTRACT: note_on channel=7 note=36 velocity=0 time=0
EXTRACT: note_on channel=7 note=36 velocity=85 time=0
EXTRACT: note_on channel=9 note=38 velocity=58 time=0
EXTRACT: note_on channel=10 note=64 velocity=0 time=0
EXTRACT: note_on channel=10 note=65 velocity=78 time=0
EXTRACT: note_on channel=11 note=64 velocity=0 time=0
EXTRACT: note_on channel=11 note=65 velocity=78 time=0
EXTRACT: note_on channel=9 note=38 velocity=0 time=0.005376341666666667
EXTRACT: note_on channel=3 note=59 velocity=0 time=0.016129025
EXTRACT: note_on channel=3 note=52 velocity=0 time=0.048387075
EXTRACT: note_on channel=3 note=43 velocity=0 time=0.021505366666666668
EXTRACT: note_on channel=3 note=60 velocity=0 time=0
EXTRACT: control_change channel=2 control=0 value=0 time=0.06989244166666667
EXTRACT: note_on channel=1 note=43 velocity=0 time=0.11827951666666667
EXTRACT: note_on channel=1 note=43 velocity=77 time=0
EXTRACT: note_on channel=2 note=67 velocity=0 time=0
EXTRACT: note_on channel=2 note=52 velocity=0 time=0
EXTRACT: note_on channel=2 note=60 velocity=0 time=0
EXTRACT: note_on channel=2 note=59 velocity=0 time=0
EXTRACT: note_on channel=2 note=64 velocity=0 time=0
EXTRACT: control_change channel=2 control=0 value=0 time=0
EXTRACT: control_change channel=2 control=64 value=0 time=0
EXTRACT: note_on channel=4 note=65 velocity=0 time=0
EXTRACT: note_on channel=4 note=64 velocity=85 time=0
EXTRACT: note_on channel=5 note=65 velocity=0 time=0
EXTRACT: note_on channel=5 note=53 velocity=82 time=0
EXTRACT: note_on channel=5 note=57 velocity=82 time=0
EXTRACT: note_on channel=5 note=60 velocity=82 time=0
EXTRACT: note_on channel=5 note=64 velocity=82 time=0
EXTRACT: note_on channel=7 note=36 velocity=0 time=0
EXTRACT: note_on channel=7 note=31 velocity=85 time=0
EXTRACT: note_on channel=9 note=35 velocity=58 time=0
EXTRACT: note_on channel=9 note=38 velocity=50 time=0
EXTRACT: note_on channel=10 note=65 velocity=0 time=0
EXTRACT: note_on channel=10 note=53 velocity=78 time=0
EXTRACT: note_on channel=10 note=57 velocity=78 time=0
EXTRACT: note_on channel=10 note=60 velocity=78 time=0
EXTRACT: note_on channel=10 note=64 velocity=78 time=0
EXTRACT: note_on channel=11 note=65 velocity=0 time=0
EXTRACT: note_on channel=11 note=64 velocity=78 time=0
EXTRACT: note_on channel=3 note=60 velocity=52 time=0.005376341666666667
EXTRACT: note_on channel=9 note=38 velocity=0 time=0
EXTRACT: note_on channel=9 note=35 velocity=0 time=0
EXTRACT: note_on channel=2 note=65 velocity=63 time=0.005376341666666667
EXTRACT: note_on channel=2 note=62 velocity=63 time=0
EXTRACT: note_on channel=2 note=60 velocity=63 time=0
EXTRACT: note_on channel=2 note=69 velocity=63 time=0
EXTRACT: note_on channel=3 note=62 velocity=46 time=0.026881708333333334
EXTRACT: note_on channel=3 note=53 velocity=42 time=0
EXTRACT: note_on channel=3 note=43 velocity=39 time=0
EXTRACT: control_change channel=3 control=64 value=127 time=0.16666659166666667
EXTRACT: note_on channel=2 note=69 velocity=0 time=0.010752683333333334
EXTRACT: note_on channel=2 note=65 velocity=0 time=0
EXTRACT: note_on channel=2 note=62 velocity=0 time=0
EXTRACT: note_on channel=2 note=60 velocity=0 time=0
EXTRACT: note_on channel=3 note=60 velocity=0 time=0.021505366666666668
EXTRACT: note_on channel=3 note=53 velocity=0 time=0.016129025
EXTRACT: note_on channel=3 note=62 velocity=0 time=0.010752683333333334
EXTRACT: note_on channel=9 note=38 velocity=38 time=0.059139758333333334
EXTRACT: note_on channel=9 note=38 velocity=0 time=0.005376341666666667
EXTRACT: note_on channel=2 note=65 velocity=46 time=0.30645147500000003
EXTRACT: note_on channel=2 note=62 velocity=46 time=0
EXTRACT: note_on channel=2 note=60 velocity=46 time=0
EXTRACT: note_on channel=2 note=69 velocity=46 time=0
EXTRACT: note_on channel=4 note=64 velocity=0 time=0
EXTRACT: note_on channel=11 note=64 velocity=0 time=0
EXTRACT: note_on channel=4 note=62 velocity=85 time=0
EXTRACT: note_on channel=5 note=64 velocity=0 time=0
EXTRACT: note_on channel=5 note=53 velocity=0 time=0
EXTRACT: note_on channel=5 note=57 velocity=0 time=0
EXTRACT: note_on channel=5 note=60 velocity=0 time=0
EXTRACT: note_on channel=5 note=62 velocity=82 time=0
EXTRACT: note_on channel=9 note=38 velocity=58 time=0
EXTRACT: note_on channel=9 note=42 velocity=48 time=0
EXTRACT: note_on channel=10 note=64 velocity=0 time=0
EXTRACT: note_on channel=10 note=53 velocity=0 time=0
EXTRACT: note_on channel=10 note=57 velocity=0 time=0
EXTRACT: note_on channel=10 note=60 velocity=0 time=0
EXTRACT: note_on channel=10 note=62 velocity=78 time=0
EXTRACT: note_on channel=11 note=62 velocity=78 time=0
EXTRACT: note_on channel=9 note=42 velocity=0 time=0.005376341666666667
EXTRACT: note_on channel=9 note=38 velocity=0 time=0
EXTRACT: note_on channel=3 note=64 velocity=54 time=0.005376341666666667
EXTRACT: note_on channel=3 note=60 velocity=64 time=0.005376341666666667
EXTRACT: note_on channel=3 note=53 velocity=48 time=0.010752683333333334
EXTRACT: note_on channel=3 note=60 velocity=0 time=0.16129025
EXTRACT: note_on channel=2 note=69 velocity=0 time=0.03225805
EXTRACT: note_on channel=2 note=65 velocity=0 time=0
EXTRACT: note_on channel=2 note=62 velocity=0 time=0
EXTRACT: note_on channel=2 note=60 velocity=0 time=0
EXTRACT: note_on channel=3 note=53 velocity=0 time=0
EXTRACT: note_on channel=1 note=43 velocity=0 time=0.021505366666666668
EXTRACT: note_on channel=3 note=64 velocity=0 time=0
EXTRACT: note_on channel=1 note=43 velocity=83 time=0
EXTRACT: note_on channel=4 note=62 velocity=0 time=0
EXTRACT: note_on channel=4 note=62 velocity=85 time=0
EXTRACT: note_on channel=5 note=62 velocity=0 time=0
EXTRACT: note_on channel=5 note=53 velocity=82 time=0
EXTRACT: note_on channel=5 note=57 velocity=82 time=0
EXTRACT: note_on channel=5 note=60 velocity=82 time=0
EXTRACT: note_on channel=5 note=62 velocity=82 time=0
EXTRACT: note_on channel=7 note=31 velocity=0 time=0
EXTRACT: note_on channel=7 note=38 velocity=85 time=0
EXTRACT: note_on channel=9 note=38 velocity=38 time=0
EXTRACT: note_on channel=10 note=62 velocity=0 time=0
EXTRACT: note_on channel=10 note=53 velocity=78 time=0
EXTRACT: note_on channel=10 note=57 velocity=78 time=0
EXTRACT: note_on channel=10 note=60 velocity=78 time=0
EXTRACT: note_on channel=10 note=62 velocity=78 time=0
EXTRACT: note_on channel=11 note=62 velocity=0 time=0
EXTRACT: note_on channel=11 note=62 velocity=78 time=0
EXTRACT: note_on channel=9 note=38 velocity=0 time=0.005376341666666667
EXTRACT: control_change channel=3 control=64 value=0 time=0.1827956166666667
EXTRACT: note_on channel=1 note=38 velocity=74 time=0.1344085416666667
EXTRACT: note_on channel=3 note=64 velocity=51 time=0
EXTRACT: note_on channel=9 note=35 velocity=58 time=0
EXTRACT: note_on channel=9 note=38 velocity=58 time=0
EXTRACT: note_on channel=9 note=38 velocity=0 time=0.005376341666666667
EXTRACT: note_on channel=9 note=35 velocity=0 time=0
EXTRACT: note_on channel=3 note=38 velocity=51 time=0.005376341666666667
EXTRACT: note_on channel=3 note=60 velocity=58 time=0
EXTRACT: note_on channel=3 note=53 velocity=41 time=0
EXTRACT: note_on channel=1 note=43 velocity=0 time=0.026881708333333334
EXTRACT: note_on channel=3 note=43 velocity=0 time=0.03225805
EXTRACT: control_change channel=3 control=64 value=127 time=0.19892464166666668
EXTRACT: note_on channel=7 note=38 velocity=0 time=0.05376341666666667
EXTRACT: note_on channel=7 note=43 velocity=85 time=0
EXTRACT: note_on channel=9 note=38 velocity=38 time=0
EXTRACT: note_on channel=9 note=38 velocity=0 time=0.005376341666666667
EXTRACT: note_on channel=2 note=65 velocity=58 time=0.043010733333333336
EXTRACT: note_on channel=2 note=62 velocity=58 time=0
EXTRACT: note_on channel=2 note=60 velocity=58 time=0
EXTRACT: note_on channel=2 note=69 velocity=58 time=0
EXTRACT: note_on channel=3 note=60 velocity=0 time=0.048387075
EXTRACT: note_on channel=3 note=53 velocity=0 time=0.016129025
EXTRACT: note_on channel=3 note=64 velocity=0 time=0.021505366666666668
EXTRACT: note_on channel=2 note=69 velocity=0 time=0.16129025
EXTRACT: note_on channel=2 note=65 velocity=0 time=0
EXTRACT: note_on channel=2 note=62 velocity=0 time=0
EXTRACT: note_on channel=2 note=60 velocity=0 time=0
EXTRACT: note_on channel=9 note=38 velocity=48 time=0.026881708333333334
EXTRACT: note_on channel=9 note=42 velocity=48 time=0
EXTRACT: note_on channel=9 note=42 velocity=0 time=0.005376341666666667
EXTRACT: note_on channel=9 note=38 velocity=0 time=0
EXTRACT: note_on channel=1 note=38 velocity=0 time=0.03763439166666667
EXTRACT: note_on channel=4 note=62 velocity=0 time=0.23655903333333334
EXTRACT: note_on channel=11 note=62 velocity=0 time=0
EXTRACT: note_on channel=3 note=38 velocity=0 time=0.005376341666666667
EXTRACT: note_on channel=1 note=38 velocity=76 time=0
EXTRACT: note_on channel=4 note=62 velocity=85 time=0
EXTRACT: note_on channel=5 note=62 velocity=0 time=0
EXTRACT: note_on channel=5 note=53 velocity=0 time=0
EXTRACT: note_on channel=5 note=57 velocity=0 time=0
EXTRACT: note_on channel=5 note=60 velocity=0 time=0
EXTRACT: note_on channel=5 note=62 velocity=82 time=0
EXTRACT: note_on channel=7 note=43 velocity=0 time=0
EXTRACT: note_on channel=7 note=38 velocity=85 time=0
EXTRACT: note_on channel=9 note=38 velocity=58 time=0
EXTRACT: note_on channel=10 note=62 velocity=0 time=0
EXTRACT: note_on channel=10 note=53 velocity=0 time=0
EXTRACT: note_on channel=10 note=57 velocity=0 time=0
EXTRACT: note_on channel=10 note=60 velocity=0 time=0
EXTRACT: note_on channel=10 note=62 velocity=78 time=0
EXTRACT: note_on channel=11 note=62 velocity=78 time=0
EXTRACT: note_on channel=9 note=38 velocity=0 time=0.005376341666666667
EXTRACT: note_on channel=3 note=62 velocity=45 time=0.005376341666666667
EXTRACT: note_on channel=3 note=60 velocity=68 time=0.016129025
EXTRACT: note_on channel=3 note=53 velocity=25 time=0.026881708333333334
EXTRACT: note_on channel=3 note=60 velocity=0 time=0.0645161
EXTRACT: note_on channel=3 note=53 velocity=0 time=0.010752683333333334
EXTRACT: note_on channel=3 note=62 velocity=0 time=0.026881708333333334
EXTRACT: note_on channel=4 note=62 velocity=0 time=0
EXTRACT: note_on channel=4 note=64 velocity=85 time=0
EXTRACT: note_on channel=5 note=62 velocity=0 time=0
EXTRACT: note_on channel=5 note=64 velocity=82 time=0
EXTRACT: note_on channel=10 note=62 velocity=0 time=0
EXTRACT: note_on channel=10 note=64 velocity=78 time=0
EXTRACT: note_on channel=11 note=62 velocity=0 time=0
EXTRACT: note_on channel=11 note=64 velocity=78 time=0
EXTRACT: control_change channel=3 control=64 value=0 time=0.10752683333333334
EXTRACT: note_on channel=1 note=43 velocity=75 time=0
EXTRACT: note_on channel=4 note=64 velocity=0 time=0
EXTRACT: note_on channel=4 note=65 velocity=85 time=0
EXTRACT: note_on channel=5 note=64 velocity=0 time=0
EXTRACT: note_on channel=5 note=65 velocity=82 time=0
EXTRACT: note_on channel=6 note=57 velocity=82 time=0
EXTRACT: note_on channel=6 note=60 velocity=82 time=0
EXTRACT: note_on channel=6 note=62 velocity=82 time=0
EXTRACT: note_on channel=7 note=38 velocity=0 time=0
EXTRACT: note_on channel=7 note=31 velocity=85 time=0
EXTRACT: note_on channel=9 note=35 velocity=58 time=0
EXTRACT: note_on channel=9 note=38 velocity=50 time=0
EXTRACT: note_on channel=10 note=64 velocity=0 time=0
EXTRACT: note_on channel=10 note=65 velocity=78 time=0
EXTRACT: note_on channel=11 note=64 velocity=0 time=0
EXTRACT: note_on channel=11 note=65 velocity=78 time=0
EXTRACT: note_on channel=3 note=43 velocity=45 time=0.005376341666666667
EXTRACT: note_on channel=9 note=38 velocity=0 time=0
EXTRACT: note_on channel=9 note=35 velocity=0 time=0
EXTRACT: note_on channel=3 note=53 velocity=49 time=0.005376341666666667
EXTRACT: note_on channel=3 note=60 velocity=63 time=0.005376341666666667
EXTRACT: note_on channel=3 note=62 velocity=59 time=0.005376341666666667
EXTRACT: note_on channel=2 note=65 velocity=53 time=0.005376341666666667
EXTRACT: note_on channel=2 note=62 velocity=53 time=0
EXTRACT: note_on channel=2 note=60 velocity=53 time=0
EXTRACT: note_on channel=2 note=69 velocity=53 time=0
EXTRACT: note_on channel=1 note=38 velocity=0 time=0.043010733333333336
EXTRACT: note_on channel=3 note=53 velocity=0 time=0.10752683333333334
EXTRACT: note_on channel=3 note=60 velocity=0 time=0.005376341666666667
EXTRACT: note_on channel=3 note=62 velocity=0 time=0.03763439166666667
EXTRACT: note_on channel=4 note=65 velocity=0 time=0
EXTRACT: note_on channel=4 note=65 velocity=85 time=0
EXTRACT: note_on channel=5 note=65 velocity=0 time=0
EXTRACT: note_on channel=5 note=65 velocity=82 time=0
EXTRACT: note_on channel=9 note=38 velocity=38 time=0
EXTRACT: note_on channel=10 note=65 velocity=0 time=0
EXTRACT: note_on channel=10 note=65 velocity=78 time=0
EXTRACT: note_on channel=11 note=65 velocity=0 time=0
EXTRACT: note_on channel=11 note=65 velocity=78 time=0
EXTRACT: note_on channel=9 note=38 velocity=0 time=0.005376341666666667
EXTRACT: note_on channel=3 note=53 velocity=57 time=0.03763439166666667
EXTRACT: note_on channel=3 note=62 velocity=46 time=0.010752683333333334
EXTRACT: note_on channel=3 note=60 velocity=52 time=0.005376341666666667
EXTRACT: control_change channel=3 control=64 value=127 time=0
EXTRACT: note_on channel=4 note=65 velocity=0 time=0
EXTRACT: note_on channel=4 note=65 velocity=85 time=0
EXTRACT: note_on channel=5 note=65 velocity=0 time=0
EXTRACT: note_on channel=5 note=65 velocity=82 time=0
EXTRACT: note_on channel=10 note=65 velocity=0 time=0
EXTRACT: note_on channel=10 note=65 velocity=78 time=0
EXTRACT: note_on channel=11 note=65 velocity=0 time=0
EXTRACT: note_on channel=11 note=65 velocity=78 time=0
EXTRACT: note_on channel=3 note=60 velocity=0 time=0.0645161
EXTRACT: note_on channel=3 note=53 velocity=0 time=0.010752683333333334
EXTRACT: note_on channel=3 note=62 velocity=0 time=0.026881708333333334
EXTRACT: note_on channel=4 note=65 velocity=0 time=0
EXTRACT: note_on channel=4 note=65 velocity=85 time=0
EXTRACT: note_on channel=5 note=65 velocity=0 time=0
EXTRACT: note_on channel=5 note=65 velocity=82 time=0
EXTRACT: note_on channel=9 note=38 velocity=58 time=0
EXTRACT: note_on channel=9 note=42 velocity=48 time=0
EXTRACT: note_on channel=10 note=65 velocity=0 time=0
EXTRACT: note_on channel=10 note=65 velocity=78 time=0
EXTRACT: note_on channel=11 note=65 velocity=0 time=0
EXTRACT: note_on channel=11 note=65 velocity=78 time=0
EXTRACT: note_on channel=9 note=42 velocity=0 time=0.005376341666666667
EXTRACT: note_on channel=9 note=38 velocity=0 time=0
EXTRACT: note_on channel=2 note=69 velocity=0 time=0.043010733333333336
EXTRACT: note_on channel=2 note=65 velocity=0 time=0
EXTRACT: note_on channel=2 note=62 velocity=0 time=0
EXTRACT: note_on channel=2 note=60 velocity=0 time=0
EXTRACT: note_on channel=1 note=43 velocity=0 time=0.08602146666666667
EXTRACT: note_on channel=1 note=43 velocity=80 time=0
EXTRACT: note_on channel=4 note=65 velocity=0 time=0
EXTRACT: note_on channel=4 note=67 velocity=85 time=0
EXTRACT: note_on channel=5 note=65 velocity=0 time=0
EXTRACT: note_on channel=5 note=67 velocity=82 time=0
EXTRACT: note_on channel=6 note=62 velocity=0 time=0
EXTRACT: note_on channel=6 note=60 velocity=0 time=0
EXTRACT: note_on channel=6 note=57 velocity=0 time=0
EXTRACT: note_on channel=6 note=57 velocity=82 time=0
EXTRACT: note_on channel=6 note=60 velocity=82 time=0
EXTRACT: note_on channel=6 note=64 velocity=82 time=0
EXTRACT: note_on channel=7 note=31 velocity=0 time=0
EXTRACT: note_on channel=7 note=38 velocity=85 time=0
EXTRACT: note_on channel=9 note=38 velocity=38 time=0
EXTRACT: note_on channel=10 note=65 velocity=0 time=0
EXTRACT: note_on channel=10 note=67 velocity=78 time=0
EXTRACT: note_on channel=11 note=65 velocity=0 time=0
EXTRACT: note_on channel=11 note=67 velocity=78 time=0
EXTRACT: note_on channel=9 note=38 velocity=0 time=0.005376341666666667
EXTRACT: note_on channel=3 note=43 velocity=0 time=0.010752683333333334
EXTRACT: note_on channel=3 note=53 velocity=66 time=0.010752683333333334
EXTRACT: note_on channel=3 note=62 velocity=64 time=0
EXTRACT: note_on channel=3 note=60 velocity=71 time=0
EXTRACT: note_on channel=2 note=65 velocity=59 time=0.016129025
EXTRACT: note_on channel=2 note=62 velocity=59 time=0
EXTRACT: note_on channel=2 note=60 velocity=59 time=0
EXTRACT: note_on channel=2 note=69 velocity=59 time=0
EXTRACT: note_on channel=3 note=60 velocity=0 time=0.209677325
EXTRACT: note_on channel=3 note=53 velocity=0 time=0.03225805
EXTRACT: control_change channel=3 control=64 value=0 time=0
EXTRACT: note_on channel=3 note=62 velocity=0 time=0.016129025
EXTRACT: note_on channel=1 note=38 velocity=74 time=0
EXTRACT: note_on channel=4 note=67 velocity=0 time=0
EXTRACT: note_on channel=4 note=69 velocity=85 time=0
EXTRACT: note_on channel=5 note=67 velocity=0 time=0
EXTRACT: note_on channel=5 note=69 velocity=82 time=0
EXTRACT: note_on channel=6 note=64 velocity=0 time=0
EXTRACT: note_on channel=6 note=60 velocity=0 time=0
EXTRACT: note_on channel=6 note=57 velocity=0 time=0
EXTRACT: note_on channel=6 note=60 velocity=82 time=0
EXTRACT: note_on channel=6 note=62 velocity=82 time=0
EXTRACT: note_on channel=6 note=65 velocity=82 time=0
EXTRACT: note_on channel=9 note=35 velocity=58 time=0
EXTRACT: note_on channel=9 note=38 velocity=58 time=0
EXTRACT: note_on channel=10 note=67 velocity=0 time=0
EXTRACT: note_on channel=10 note=69 velocity=78 time=0
EXTRACT: note_on channel=11 note=67 velocity=0 time=0
EXTRACT: note_on channel=11 note=69 velocity=78 time=0
EXTRACT: note_on channel=9 note=38 velocity=0 time=0.005376341666666667
EXTRACT: note_on channel=9 note=35 velocity=0 time=0
EXTRACT: note_on channel=1 note=43 velocity=0 time=0.016129025
EXTRACT: note_on channel=3 note=38 velocity=50 time=0.021505366666666668
EXTRACT: note_on channel=4 note=69 velocity=0 time=0
EXTRACT: note_on channel=4 note=67 velocity=85 time=0
EXTRACT: note_on channel=5 note=69 velocity=0 time=0
EXTRACT: note_on channel=5 note=67 velocity=82 time=0
EXTRACT: note_on channel=6 note=65 velocity=0 time=0
EXTRACT: note_on channel=6 note=62 velocity=0 time=0
EXTRACT: note_on channel=6 note=60 velocity=0 time=0
EXTRACT: note_on channel=7 note=38 velocity=0 time=0
EXTRACT: note_on channel=7 note=43 velocity=85 time=0
EXTRACT: note_on channel=9 note=38 velocity=38 time=0
EXTRACT: note_on channel=10 note=69 velocity=0 time=0
EXTRACT: note_on channel=10 note=67 velocity=78 time=0
EXTRACT: note_on channel=11 note=69 velocity=0 time=0
EXTRACT: note_on channel=11 note=67 velocity=78 time=0
EXTRACT: note_on channel=9 note=38 velocity=0 time=0.005376341666666667
EXTRACT: note_on channel=3 note=60 velocity=66 time=0.026881708333333334
EXTRACT: note_on channel=3 note=53 velocity=47 time=0
EXTRACT: note_on channel=3 note=64 velocity=57 time=0.016129025
EXTRACT: note_on channel=1 note=38 velocity=0 time=0
EXTRACT: note_on channel=1 note=43 velocity=83 time=0
EXTRACT: note_on channel=4 note=67 velocity=0 time=0
EXTRACT: note_on channel=4 note=69 velocity=85 time=0
EXTRACT: note_on channel=5 note=67 velocity=0 time=0
EXTRACT: note_on channel=5 note=69 velocity=82 time=0
EXTRACT: note_on channel=6 note=60 velocity=82 time=0
EXTRACT: note_on channel=6 note=62 velocity=82 time=0
EXTRACT: note_on channel=6 note=65 velocity=82 time=0
EXTRACT: note_on channel=9 note=38 velocity=48 time=0
EXTRACT: note_on channel=9 note=42 velocity=48 time=0
EXTRACT: note_on channel=10 note=67 velocity=0 time=0
EXTRACT: note_on channel=10 note=69 velocity=78 time=0
EXTRACT: note_on channel=11 note=67 velocity=0 time=0
EXTRACT: note_on channel=11 note=69 velocity=78 time=0
EXTRACT: note_on channel=9 note=42 velocity=0 time=0.005376341666666667
EXTRACT: note_on channel=9 note=38 velocity=0 time=0
EXTRACT: note_on channel=2 note=69 velocity=0 time=0.29032245
EXTRACT: note_on channel=2 note=65 velocity=0 time=0
EXTRACT: note_on channel=2 note=62 velocity=0 time=0
EXTRACT: note_on channel=2 note=60 velocity=0 time=0
EXTRACT: note_on channel=4 note=69 velocity=0 time=0
EXTRACT: note_on channel=4 note=71 velocity=85 time=0
EXTRACT: note_on channel=5 note=69 velocity=0 time=0
EXTRACT: note_on channel=5 note=71 velocity=82 time=0
EXTRACT: note_on channel=6 note=65 velocity=0 time=0
EXTRACT: note_on channel=6 note=62 velocity=0 time=0
EXTRACT: note_on channel=6 note=60 velocity=0 time=0
EXTRACT: note_on channel=7 note=43 velocity=0 time=0
EXTRACT: note_on channel=7 note=43 velocity=85 time=0
EXTRACT: note_on channel=9 note=38 velocity=58 time=0
EXTRACT: note_on channel=10 note=69 velocity=0 time=0
EXTRACT: note_on channel=10 note=71 velocity=78 time=0
EXTRACT: note_on channel=11 note=69 velocity=0 time=0
EXTRACT: note_on channel=11 note=71 velocity=78 time=0
EXTRACT: note_on channel=9 note=38 velocity=0 time=0.005376341666666667
EXTRACT: note_on channel=3 note=38 velocity=0 time=0.19892464166666668
EXTRACT: note_on channel=3 note=60 velocity=0 time=0.03225805
EXTRACT: note_on channel=1 note=43 velocity=0 time=0.026881708333333334
EXTRACT: note_on channel=3 note=53 velocity=0 time=0
EXTRACT: note_on channel=1 note=33 velocity=77 time=0
EXTRACT: note_on channel=3 note=64 velocity=0 time=0
EXTRACT: note_on channel=3 note=45 velocity=53 time=0
EXTRACT: note_on channel=3 note=57 velocity=45 time=0
EXTRACT: note_on channel=3 note=55 velocity=59 time=0
EXTRACT: note_on channel=3 note=48 velocity=49 time=0
EXTRACT: note_on channel=4 note=71 velocity=0 time=0
EXTRACT: note_on channel=4 note=72 velocity=85 time=0
EXTRACT: note_on channel=5 note=71 velocity=0 time=0
EXTRACT: note_on channel=5 note=64 velocity=82 time=0
EXTRACT: note_on channel=5 note=67 velocity=82 time=0
EXTRACT: note_on channel=5 note=69 velocity=82 time=0
EXTRACT: note_on channel=5 note=72 velocity=82 time=0
EXTRACT: note_on channel=7 note=43 velocity=0 time=0
EXTRACT: note_on channel=7 note=33 velocity=85 time=0
EXTRACT: note_on channel=9 note=35 velocity=58 time=0
EXTRACT: note_on channel=9 note=38 velocity=50 time=0
EXTRACT: note_on channel=10 note=71 velocity=0 time=0
EXTRACT: note_on channel=10 note=64 velocity=78 time=0
EXTRACT: note_on channel=10 note=67 velocity=78 time=0
EXTRACT: note_on channel=10 note=69 velocity=78 time=0
EXTRACT: note_on channel=10 note=72 velocity=78 time=0
EXTRACT: note_on channel=11 note=71 velocity=0 time=0
EXTRACT: note_on channel=11 note=72 velocity=78 time=0
EXTRACT: note_on channel=9 note=38 velocity=0 time=0.005376341666666667
EXTRACT: note_on channel=9 note=35 velocity=0 time=0
EXTRACT: control_change channel=3 control=64 value=127 time=0.22043000833333334
EXTRACT: note_on channel=3 note=55 velocity=0 time=0.010752683333333334
EXTRACT: note_on channel=3 note=48 velocity=0 time=0.06989244166666667
EXTRACT: note_on channel=3 note=57 velocity=0 time=0
EXTRACT: note_on channel=4 note=72 velocity=0 time=0.016129025
EXTRACT: note_on channel=5 note=72 velocity=0 time=0
EXTRACT: note_on channel=5 note=64 velocity=0 time=0
EXTRACT: note_on channel=5 note=67 velocity=0 time=0
EXTRACT: note_on channel=5 note=69 velocity=0 time=0
EXTRACT: note_on channel=9 note=38 velocity=38 time=0
EXTRACT: note_on channel=10 note=72 velocity=0 time=0
EXTRACT: note_on channel=10 note=64 velocity=0 time=0
EXTRACT: note_on channel=10 note=67 velocity=0 time=0
EXTRACT: note_on channel=10 note=69 velocity=0 time=0
EXTRACT: note_on channel=11 note=72 velocity=0 time=0
EXTRACT: note_on channel=9 note=38 velocity=0 time=0.005376341666666667
EXTRACT: note_on channel=4 note=69 velocity=85 time=0
EXTRACT: note_on channel=5 note=69 velocity=82 time=0
EXTRACT: note_on channel=9 note=38 velocity=58 time=0
EXTRACT: note_on channel=9 note=42 velocity=48 time=0
EXTRACT: note_on channel=10 note=69 velocity=78 time=0
EXTRACT: note_on channel=11 note=69 velocity=78 time=0
EXTRACT: note_on channel=9 note=42 velocity=0 time=0.005376341666666667
EXTRACT: note_on channel=9 note=38 velocity=0 time=0
EXTRACT: note_on channel=3 note=57 velocity=58 time=0.005376341666666667
EXTRACT: note_on channel=3 note=55 velocity=63 time=0.005376341666666667
EXTRACT: note_on channel=3 note=48 velocity=45 time=0.010752683333333334
EXTRACT: note_on channel=1 note=33 velocity=0 time=0.21505366666666667
EXTRACT: note_on channel=3 note=55 velocity=0 time=0.010752683333333334
EXTRACT: note_on channel=3 note=48 velocity=0 time=0.048387075
EXTRACT: note_on channel=1 note=33 velocity=83 time=0
EXTRACT: note_on channel=4 note=69 velocity=0 time=0
EXTRACT: note_on channel=4 note=69 velocity=85 time=0
EXTRACT: note_on channel=5 note=69 velocity=0 time=0
EXTRACT: note_on channel=5 note=69 velocity=82 time=0
EXTRACT: note_on channel=9 note=38 velocity=38 time=0
EXTRACT: note_on channel=10 note=69 velocity=0 time=0
EXTRACT: note_on channel=10 note=69 velocity=78 time=0
EXTRACT: note_on channel=11 note=69 velocity=0 time=0
EXTRACT: note_on channel=11 note=69 velocity=78 time=0
EXTRACT: note_on channel=3 note=57 velocity=0 time=0.005376341666666667
EXTRACT: note_on channel=9 note=38 velocity=0 time=0
EXTRACT: note_on channel=2 note=67 velocity=55 time=0.021505366666666668
EXTRACT: note_on channel=2 note=64 velocity=55 time=0
EXTRACT: note_on channel=2 note=60 velocity=55 time=0
EXTRACT: note_on channel=2 note=69 velocity=55 time=0
EXTRACT: note_on channel=3 note=45 velocity=0 time=0.09677415
EXTRACT: note_on channel=1 note=40 velocity=74 time=0
EXTRACT: note_on channel=4 note=69 velocity=0 time=0
EXTRACT: note_on channel=4 note=69 velocity=85 time=0
EXTRACT: note_on channel=5 note=69 velocity=0 time=0
EXTRACT: note_on channel=5 note=60 velocity=82 time=0
EXTRACT: note_on channel=5 note=64 velocity=82 time=0
EXTRACT: note_on channel=5 note=69 velocity=82 time=0
EXTRACT: note_on channel=7 note=33 velocity=0 time=0
EXTRACT: note_on channel=7 note=33 velocity=85 time=0
EXTRACT: note_on channel=9 note=35 velocity=58 time=0
EXTRACT: note_on channel=9 note=38 velocity=58 time=0
EXTRACT: note_on channel=10 note=69 velocity=0 time=0
EXTRACT: note_on channel=10 note=60 velocity=78 time=0
EXTRACT: note_on channel=10 note=64 velocity=78 time=0
EXTRACT: note_on channel=10 note=69 velocity=78 time=0
EXTRACT: note_on channel=11 note=69 velocity=0 time=0
EXTRACT: note_on channel=11 note=69 velocity=78 time=0
EXTRACT: note_on channel=3 note=40 velocity=55 time=0.005376341666666667
EXTRACT: note_on channel=9 note=38 velocity=0 time=0
EXTRACT: note_on channel=9 note=35 velocity=0 time=0
EXTRACT: note_on channel=1 note=33 velocity=0 time=0.03225805
EXTRACT: control_change channel=3 control=64 value=0 time=0.11827951666666667
EXTRACT: note_on channel=4 note=69 velocity=0 time=0
EXTRACT: note_on channel=4 note=67 velocity=85 time=0
EXTRACT: note_on channel=5 note=69 velocity=0 time=0
EXTRACT: note_on channel=5 note=64 velocity=0 time=0
EXTRACT: note_on channel=5 note=60 velocity=0 time=0
EXTRACT: note_on channel=5 note=67 velocity=82 time=0
EXTRACT: note_on channel=9 note=38 velocity=38 time=0
EXTRACT: note_on channel=10 note=69 velocity=0 time=0
EXTRACT: note_on channel=10 note=64 velocity=0 time=0
EXTRACT: note_on channel=10 note=60 velocity=0 time=0
EXTRACT: note_on channel=10 note=67 velocity=78 time=0
EXTRACT: note_on channel=11 note=69 velocity=0 time=0
EXTRACT: note_on channel=11 note=67 velocity=78 time=0
EXTRACT: note_on channel=9 note=38 velocity=0 time=0.005376341666666667
EXTRACT: note_on channel=3 note=48 velocity=42 time=0.021505366666666668
EXTRACT: note_on channel=3 note=55 velocity=57 time=0.010752683333333334
EXTRACT: note_on channel=3 note=57 velocity=46 time=0
EXTRACT: note_on channel=4 note=67 velocity=0 time=0
EXTRACT: note_on channel=4 note=64 velocity=85 time=0
EXTRACT: note_on channel=5 note=67 velocity=0 time=0
EXTRACT: note_on channel=5 note=64 velocity=82 time=0
EXTRACT: note_on channel=7 note=33 velocity=0 time=0
EXTRACT: note_on channel=7 note=45 velocity=85 time=0
EXTRACT: note_on channel=9 note=38 velocity=48 time=0
EXTRACT: note_on channel=9 note=42 velocity=48 time=0
EXTRACT: note_on channel=10 note=67 velocity=0 time=0
EXTRACT: note_on channel=10 note=64 velocity=78 time=0
EXTRACT: note_on channel=11 note=67 velocity=0 time=0
EXTRACT: note_on channel=11 note=64 velocity=78 time=0
EXTRACT: note_on channel=9 note=42 velocity=0 time=0.005376341666666667
EXTRACT: note_on channel=9 note=38 velocity=0 time=0
EXTRACT: note_on channel=1 note=40 velocity=0 time=0.03763439166666667
EXTRACT: note_on channel=1 note=40 velocity=76 time=0
EXTRACT: note_on channel=4 note=64 velocity=0 time=0
EXTRACT: note_on channel=4 note=67 velocity=85 time=0
EXTRACT: note_on channel=5 note=64 velocity=0 time=0
EXTRACT: note_on channel=5 note=59 velocity=82 time=0
EXTRACT: note_on channel=5 note=62 velocity=82 time=0
EXTRACT: note_on channel=5 note=67 velocity=82 time=0
EXTRACT: note_on channel=9 note=38 velocity=58 time=0
EXTRACT: note_on channel=10 note=64 velocity=0 time=0
EXTRACT: note_on channel=10 note=59 velocity=78 time=0
EXTRACT: note_on channel=10 note=62 velocity=78 time=0
EXTRACT: note_on channel=10 note=67 velocity=78 time=0
EXTRACT: note_on channel=11 note=64 velocity=0 time=0
EXTRACT: note_on channel=11 note=67 velocity=78 time=0
EXTRACT: note_on channel=9 note=38 velocity=0 time=0.005376341666666667
EXTRACT: note_on channel=3 note=55 velocity=0 time=0.016129025
EXTRACT: note_on channel=3 note=48 velocity=0 time=0.048387075
EXTRACT: note_on channel=3 note=40 velocity=0 time=0.021505366666666668
EXTRACT: note_on channel=3 note=57 velocity=0 time=0
EXTRACT: note_on channel=1 note=40 velocity=0 time=0.2311826916666667
EXTRACT: note_on channel=1 note=40 velocity=77 time=0
EXTRACT: note_on channel=2 note=69 velocity=0 time=0
EXTRACT: note_on channel=2 note=67 velocity=0 time=0
EXTRACT: note_on channel=2 note=64 velocity=0 time=0
EXTRACT: note_on channel=2 note=60 velocity=0 time=0
EXTRACT: note_on channel=3 note=40 velocity=53 time=0
EXTRACT: note_on channel=3 note=59 velocity=45 time=0
EXTRACT: note_on channel=3 note=55 velocity=59 time=0
EXTRACT: note_on channel=3 note=50 velocity=49 time=0
EXTRACT: note_on channel=7 note=45 velocity=0 time=0
EXTRACT: note_on channel=7 note=40 velocity=85 time=0
EXTRACT: note_on channel=9 note=35 velocity=58 time=0
EXTRACT: note_on channel=9 note=38 velocity=50 time=0
EXTRACT: note_on channel=9 note=38 velocity=0 time=0.005376341666666667
EXTRACT: note_on channel=9 note=35 velocity=0 time=0
EXTRACT: note_on channel=2 note=50 velocity=49 time=0.005376341666666667
EXTRACT: note_on channel=2 note=52 velocity=47 time=0
EXTRACT: note_on channel=2 note=55 velocity=55 time=0
EXTRACT: note_on channel=2 note=59 velocity=51 time=0
EXTRACT: note_on channel=2 note=64 velocity=59 time=0
EXTRACT: control_change channel=3 control=64 value=127 time=0.21505366666666667
EXTRACT: note_on channel=3 note=55 velocity=0 time=0.010752683333333334
EXTRACT: note_on channel=3 note=50 velocity=0 time=0.06989244166666667
EXTRACT: note_on channel=3 note=59 velocity=0 time=0
EXTRACT: note_on channel=4 note=67 velocity=0 time=0.005376341666666667
EXTRACT: note_on channel=11 note=67 velocity=0 time=0
EXTRACT: note_on channel=4 note=64 velocity=85 time=0
EXTRACT: note_on channel=5 note=67 velocity=0 time=0
EXTRACT: note_on channel=5 note=62 velocity=0 time=0
EXTRACT: note_on channel=5 note=59 velocity=0 time=0
EXTRACT: note_on channel=5 note=55 velocity=82 time=0
EXTRACT: note_on channel=5 note=59 velocity=82 time=0
EXTRACT: note_on channel=5 note=62 velocity=82 time=0
EXTRACT: note_on channel=5 note=64 velocity=82 time=0
EXTRACT: note_on channel=9 note=38 velocity=38 time=0
EXTRACT: note_on channel=10 note=67 velocity=0 time=0
EXTRACT: note_on channel=10 note=62 velocity=0 time=0
EXTRACT: note_on channel=10 note=59 velocity=0 time=0
EXTRACT: note_on channel=10 note=55 velocity=78 time=0
EXTRACT: note_on channel=10 note=59 velocity=78 time=0
EXTRACT: note_on channel=10 note=62 velocity=78 time=0
EXTRACT: note_on channel=10 note=64 velocity=78 time=0
EXTRACT: note_on channel=11 note=64 velocity=78 time=0
EXTRACT: note_on channel=9 note=38 velocity=0 time=0.005376341666666667
EXTRACT: note_on channel=2 note=62 velocity=56 time=0.0645161
EXTRACT: note_on channel=9 note=38 velocity=58 time=0.25268805833333335
EXTRACT: note_on channel=9 note=42 velocity=48 time=0
EXTRACT: note_on channel=9 note=42 velocity=0 time=0.005376341666666667
EXTRACT: note_on channel=9 note=38 velocity=0 time=0
EXTRACT: note_on channel=3 note=59 velocity=58 time=0.005376341666666667
EXTRACT: note_on channel=3 note=55 velocity=63 time=0.005376341666666667
EXTRACT: note_on channel=3 note=50 velocity=45 time=0.010752683333333334
EXTRACT: note_on channel=1 note=40 velocity=0 time=0.21505366666666667
EXTRACT: note_on channel=3 note=55 velocity=0 time=0.010752683333333334
EXTRACT: note_on channel=3 note=50 velocity=0 time=0.048387075
EXTRACT: note_on channel=1 note=40 velocity=83 time=0.021505366666666668
EXTRACT: control_change channel=2 control=64 value=127 time=0
EXTRACT: note_on channel=9 note=38 velocity=38 time=0
EXTRACT: note_on channel=3 note=59 velocity=0 time=0.005376341666666667
EXTRACT: note_on channel=9 note=38 velocity=0 time=0
EXTRACT: note_on channel=3 note=40 velocity=0 time=0.11827951666666667
EXTRACT: note_on channel=4 note=64 velocity=0 time=0.17204293333333334
EXTRACT: note_on channel=11 note=64 velocity=0 time=0
EXTRACT: note_on channel=1 note=35 velocity=74 time=0
EXTRACT: note_on channel=4 note=69 velocity=85 time=0
EXTRACT: note_on channel=5 note=64 velocity=0 time=0
EXTRACT: note_on channel=5 note=55 velocity=0 time=0
EXTRACT: note_on channel=5 note=59 velocity=0 time=0
EXTRACT: note_on channel=5 note=62 velocity=0 time=0
EXTRACT: note_on channel=5 note=59 velocity=82 time=0
EXTRACT: note_on channel=5 note=64 velocity=82 time=0
EXTRACT: note_on channel=5 note=69 velocity=82 time=0
EXTRACT: note_on channel=7 note=40 velocity=0 time=0
EXTRACT: note_on channel=7 note=40 velocity=85 time=0
EXTRACT: note_on channel=9 note=35 velocity=58 time=0
EXTRACT: note_on channel=9 note=38 velocity=58 time=0
EXTRACT: note_on channel=10 note=64 velocity=0 time=0
EXTRACT: note_on channel=10 note=55 velocity=0 time=0
EXTRACT: note_on channel=10 note=59 velocity=0 time=0
EXTRACT: note_on channel=10 note=62 velocity=0 time=0
EXTRACT: note_on channel=10 note=59 velocity=78 time=0
EXTRACT: note_on channel=10 note=64 velocity=78 time=0
EXTRACT: note_on channel=10 note=69 velocity=78 time=0
EXTRACT: note_on channel=11 note=69 velocity=78 time=0
EXTRACT: note_on channel=3 note=35 velocity=55 time=0.005376341666666667
EXTRACT: note_on channel=9 note=38 velocity=0 time=0
EXTRACT: note_on channel=9 note=35 velocity=0 time=0
EXTRACT: note_on channel=1 note=40 velocity=0 time=0.03225805
EXTRACT: control_change channel=3 control=64 value=0 time=0.11827951666666667
EXTRACT: control_change channel=2 control=0 value=0 time=0
EXTRACT: note_on channel=4 note=69 velocity=0 time=0
EXTRACT: note_on channel=4 note=67 velocity=85 time=0
EXTRACT: note_on channel=5 note=69 velocity=0 time=0
EXTRACT: note_on channel=5 note=64 velocity=0 time=0
EXTRACT: note_on channel=5 note=59 velocity=0 time=0
EXTRACT: note_on channel=5 note=67 velocity=82 time=0
EXTRACT: note_on channel=7 note=40 velocity=0 time=0
EXTRACT: note_on channel=7 note=43 velocity=85 time=0
EXTRACT: note_on channel=9 note=38 velocity=38 time=0
EXTRACT: note_on channel=10 note=69 velocity=0 time=0
EXTRACT: note_on channel=10 note=64 velocity=0 time=0
EXTRACT: note_on channel=10 note=59 velocity=0 time=0
EXTRACT: note_on channel=10 note=67 velocity=78 time=0
EXTRACT: note_on channel=11 note=69 velocity=0 time=0
EXTRACT: note_on channel=11 note=67 velocity=78 time=0
EXTRACT: note_on channel=9 note=38 velocity=0 time=0.005376341666666667
EXTRACT: note_on channel=3 note=50 velocity=42 time=0.021505366666666668
EXTRACT: note_on channel=3 note=55 velocity=57 time=0.010752683333333334
EXTRACT: note_on channel=3 note=59 velocity=46 time=0
EXTRACT: note_on channel=4 note=67 velocity=0 time=0
EXTRACT: note_on channel=4 note=69 velocity=85 time=0
EXTRACT: note_on channel=5 note=67 velocity=0 time=0
EXTRACT: note_on channel=5 note=69 velocity=82 time=0
EXTRACT: note_on channel=9 note=38 velocity=48 time=0
EXTRACT: note_on channel=9 note=42 velocity=48 time=0
EXTRACT: note_on channel=10 note=67 velocity=0 time=0
EXTRACT: note_on channel=10 note=69 velocity=78 time=0
EXTRACT: note_on channel=11 note=67 velocity=0 time=0
EXTRACT: note_on channel=11 note=69 velocity=78 time=0
EXTRACT: note_on channel=9 note=42 velocity=0 time=0.005376341666666667
EXTRACT: note_on channel=9 note=38 velocity=0 time=0
EXTRACT: note_on channel=1 note=35 velocity=0 time=0.03763439166666667
EXTRACT: note_on channel=1 note=35 velocity=76 time=0
EXTRACT: control_change channel=2 control=0 value=0 time=0
EXTRACT: note_on channel=4 note=69 velocity=0 time=0
EXTRACT: note_on channel=4 note=72 velocity=85 time=0
EXTRACT: note_on channel=5 note=69 velocity=0 time=0
EXTRACT: note_on channel=5 note=64 velocity=82 time=0
EXTRACT: note_on channel=5 note=67 velocity=82 time=0
EXTRACT: note_on channel=5 note=69 velocity=82 time=0
EXTRACT: note_on channel=5 note=72 velocity=82 time=0
EXTRACT: note_on channel=7 note=43 velocity=0 time=0
EXTRACT: note_on channel=7 note=45 velocity=85 time=0
EXTRACT: note_on channel=9 note=38 velocity=58 time=0
EXTRACT: note_on channel=10 note=69 velocity=0 time=0
EXTRACT: note_on channel=10 note=64 velocity=78 time=0
EXTRACT: note_on channel=10 note=67 velocity=78 time=0
EXTRACT: note_on channel=10 note=69 velocity=78 time=0
EXTRACT: note_on channel=10 note=72 velocity=78 time=0
EXTRACT: note_on channel=11 note=69 velocity=0 time=0
EXTRACT: note_on channel=11 note=72 velocity=78 time=0
EXTRACT: note_on channel=9 note=38 velocity=0 time=0.005376341666666667
EXTRACT: note_on channel=3 note=55 velocity=0 time=0.016129025
EXTRACT: note_on channel=3 note=50 velocity=0 time=0.048387075
EXTRACT: note_on channel=3 note=35 velocity=0 time=0.021505366666666668
EXTRACT: note_on channel=3 note=59 velocity=0 time=0
EXTRACT: note_on channel=1 note=35 velocity=0 time=0.2311826916666667
EXTRACT: note_on channel=1 note=33 velocity=82 time=0
EXTRACT: note_on channel=2 note=62 velocity=0 time=0
EXTRACT: note_on channel=2 note=52 velocity=0 time=0
EXTRACT: note_on channel=2 note=55 velocity=0 time=0
EXTRACT: note_on channel=2 note=50 velocity=0 time=0
EXTRACT: note_on channel=2 note=64 velocity=0 time=0
EXTRACT: note_on channel=2 note=59 velocity=0 time=0
EXTRACT: control_change channel=2 control=0 value=0 time=0
EXTRACT: control_change channel=2 control=64 value=0 time=0
EXTRACT: note_on channel=7 note=45 velocity=0 time=0
EXTRACT: note_on channel=7 note=33 velocity=85 time=0
EXTRACT: note_on channel=9 note=35 velocity=58 time=0
EXTRACT: note_on channel=9 note=38 velocity=50 time=0
EXTRACT: note_on channel=9 note=38 velocity=0 time=0.005376341666666667
EXTRACT: note_on channel=9 note=35 velocity=0 time=0
EXTRACT: note_on channel=3 note=48 velocity=44 time=0.005376341666666667
EXTRACT: note_on channel=3 note=45 velocity=55 time=0
EXTRACT: note_on channel=3 note=55 velocity=66 time=0
EXTRACT: note_on channel=3 note=57 velocity=64 time=0
EXTRACT: control_change channel=3 control=64 value=127 time=0.1935483
EXTRACT: note_on channel=4 note=72 velocity=0 time=0.10752683333333334
EXTRACT: note_on channel=11 note=72 velocity=0 time=0
EXTRACT: note_on channel=4 note=69 velocity=85 time=0
EXTRACT: note_on channel=5 note=72 velocity=0 time=0
EXTRACT: note_on channel=5 note=64 velocity=0 time=0
EXTRACT: note_on channel=5 note=67 velocity=0 time=0
EXTRACT: note_on channel=5 note=69 velocity=0 time=0
EXTRACT: note_on channel=5 note=60 velocity=82 time=0
EXTRACT: note_on channel=5 note=64 velocity=82 time=0
EXTRACT: note_on channel=5 note=67 velocity=82 time=0
EXTRACT: note_on channel=5 note=69 velocity=82 time=0
EXTRACT: note_on channel=9 note=38 velocity=38 time=0
EXTRACT: note_on channel=10 note=72 velocity=0 time=0
EXTRACT: note_on channel=10 note=64 velocity=0 time=0
EXTRACT: note_on channel=10 note=67 velocity=0 time=0
EXTRACT: note_on channel=10 note=69 velocity=0 time=0
EXTRACT: note_on channel=10 note=60 velocity=78 time=0
EXTRACT: note_on channel=10 note=64 velocity=78 time=0
EXTRACT: note_on channel=10 note=67 velocity=78 time=0
EXTRACT: note_on channel=10 note=69 velocity=78 time=0
EXTRACT: note_on channel=11 note=69 velocity=78 time=0
EXTRACT: note_on channel=9 note=38 velocity=0 time=0.005376341666666667
EXTRACT: note_on channel=3 note=55 velocity=0 time=0.010752683333333334
EXTRACT: note_on channel=3 note=48 velocity=0 time=0.0645161
EXTRACT: note_on channel=3 note=57 velocity=0 time=0.026881708333333334
EXTRACT: note_on channel=9 note=38 velocity=58 time=0.21505366666666667
EXTRACT: note_on channel=9 note=42 velocity=48 time=0
EXTRACT: note_on channel=9 note=42 velocity=0 time=0.005376341666666667
EXTRACT: note_on channel=9 note=38 velocity=0 time=0
EXTRACT: note_on channel=4 note=69 velocity=0 time=0.30645147500000003
EXTRACT: note_on channel=11 note=69 velocity=0 time=0
EXTRACT: note_on channel=3 note=57 velocity=52 time=0.005376341666666667
EXTRACT: note_on channel=3 note=48 velocity=45 time=0
EXTRACT: note_on channel=4 note=72 velocity=85 time=0
EXTRACT: note_on channel=5 note=69 velocity=0 time=0
EXTRACT: note_on channel=5 note=60 velocity=0 time=0
EXTRACT: note_on channel=5 note=64 velocity=0 time=0
EXTRACT: note_on channel=5 note=67 velocity=0 time=0
EXTRACT: note_on channel=5 note=64 velocity=82 time=0
EXTRACT: note_on channel=5 note=67 velocity=82 time=0
EXTRACT: note_on channel=5 note=69 velocity=82 time=0
EXTRACT: note_on channel=5 note=72 velocity=82 time=0
EXTRACT: note_on channel=9 note=38 velocity=38 time=0
EXTRACT: note_on channel=10 note=69 velocity=0 time=0
EXTRACT: note_on channel=10 note=60 velocity=0 time=0
EXTRACT: note_on channel=10 note=64 velocity=0 time=0
EXTRACT: note_on channel=10 note=67 velocity=0 time=0
EXTRACT: note_on channel=10 note=64 velocity=78 time=0
EXTRACT: note_on channel=10 note=67 velocity=78 time=0
EXTRACT: note_on channel=10 note=69 velocity=78 time=0
EXTRACT: note_on channel=10 note=72 velocity=78 time=0
EXTRACT: note_on channel=11 note=72 velocity=78 time=0
EXTRACT: note_on channel=3 note=55 velocity=65 time=0.005376341666666667
EXTRACT: note_on channel=9 note=38 velocity=0 time=0
EXTRACT: note_on channel=2 note=67 velocity=55 time=0.021505366666666668
EXTRACT: note_on channel=2 note=64 velocity=55 time=0
EXTRACT: note_on channel=2 note=60 velocity=55 time=0
EXTRACT: note_on channel=2 note=69 velocity=55 time=0
EXTRACT: note_on channel=1 note=33 velocity=0 time=0.10752683333333334
EXTRACT: note_on channel=3 note=45 velocity=0 time=0.043010733333333336
EXTRACT: note_on channel=1 note=33 velocity=81 time=0.145161225
EXTRACT: note_on channel=3 note=40 velocity=54 time=0
EXTRACT: note_on channel=7 note=33 velocity=0 time=0
EXTRACT: note_on channel=7 note=33 velocity=85 time=0
EXTRACT: note_on channel=9 note=35 velocity=58 time=0
EXTRACT: note_on channel=9 note=38 velocity=58 time=0
EXTRACT: note_on channel=9 note=38 velocity=0 time=0.005376341666666667
EXTRACT: note_on channel=9 note=35 velocity=0 time=0
EXTRACT: control_change channel=3 control=64 value=0 time=0.11827951666666667
EXTRACT: note_on channel=4 note=72 velocity=0 time=0.18817195833333333
EXTRACT: note_on channel=11 note=72 velocity=0 time=0
EXTRACT: note_on channel=4 note=69 velocity=85 time=0
EXTRACT: note_on channel=5 note=72 velocity=0 time=0
EXTRACT: note_on channel=5 note=64 velocity=0 time=0
EXTRACT: note_on channel=5 note=67 velocity=0 time=0
EXTRACT: note_on channel=5 note=69 velocity=0 time=0
EXTRACT: note_on channel=5 note=69 velocity=82 time=0
EXTRACT: note_on channel=9 note=38 velocity=38 time=0
EXTRACT: note_on channel=10 note=72 velocity=0 time=0
EXTRACT: note_on channel=10 note=64 velocity=0 time=0
EXTRACT: note_on channel=10 note=67 velocity=0 time=0
EXTRACT: note_on channel=10 note=69 velocity=0 time=0
EXTRACT: note_on channel=10 note=69 velocity=78 time=0
EXTRACT: note_on channel=11 note=69 velocity=78 time=0
EXTRACT: note_on channel=9 note=38 velocity=0 time=0.005376341666666667
EXTRACT: control_change channel=3 control=64 value=127 time=0.16666659166666667
EXTRACT: note_on channel=3 note=55 velocity=0 time=0.10215049166666668
EXTRACT: note_on channel=3 note=57 velocity=0 time=0.016129025
EXTRACT: note_on channel=3 note=48 velocity=0 time=0
EXTRACT: note_on channel=4 note=69 velocity=0 time=0
EXTRACT: note_on channel=4 note=67 velocity=85 time=0
EXTRACT: note_on channel=5 note=69 velocity=0 time=0
EXTRACT: note_on channel=5 note=67 velocity=82 time=0
EXTRACT: note_on channel=7 note=33 velocity=0 time=0
EXTRACT: note_on channel=7 note=45 velocity=85 time=0
EXTRACT: note_on channel=9 note=38 velocity=48 time=0
EXTRACT: note_on channel=9 note=42 velocity=48 time=0
EXTRACT: note_on channel=10 note=69 velocity=0 time=0
EXTRACT: note_on channel=10 note=67 velocity=78 time=0
EXTRACT: note_on channel=11 note=69 velocity=0 time=0
EXTRACT: note_on channel=11 note=67 velocity=78 time=0
EXTRACT: note_on channel=9 note=42 velocity=0 time=0.005376341666666667
EXTRACT: note_on channel=9 note=38 velocity=0 time=0
EXTRACT: note_on channel=3 note=48 velocity=45 time=0.010752683333333334
EXTRACT: note_on channel=3 note=55 velocity=45 time=0
EXTRACT: note_on channel=3 note=57 velocity=40 time=0.016129025
EXTRACT: note_on channel=4 note=67 velocity=0 time=0
EXTRACT: note_on channel=4 note=69 velocity=85 time=0
EXTRACT: note_on channel=5 note=67 velocity=0 time=0
EXTRACT: note_on channel=5 note=59 velocity=82 time=0
EXTRACT: note_on channel=5 note=62 velocity=82 time=0
EXTRACT: note_on channel=5 note=69 velocity=82 time=0
EXTRACT: note_on channel=9 note=38 velocity=58 time=0
EXTRACT: note_on channel=10 note=67 velocity=0 time=0
EXTRACT: note_on channel=10 note=59 velocity=78 time=0
EXTRACT: note_on channel=10 note=62 velocity=78 time=0
EXTRACT: note_on channel=10 note=69 velocity=78 time=0
EXTRACT: note_on channel=11 note=67 velocity=0 time=0
EXTRACT: note_on channel=11 note=69 velocity=78 time=0
EXTRACT: note_on channel=9 note=38 velocity=0 time=0.005376341666666667
EXTRACT: note_on channel=2 note=69 velocity=0 time=0.021505366666666668
EXTRACT: note_on channel=2 note=67 velocity=0 time=0
EXTRACT: note_on channel=2 note=64 velocity=0 time=0
EXTRACT: note_on channel=2 note=60 velocity=0 time=0
EXTRACT: note_on channel=3 note=55 velocity=0 time=0
EXTRACT: note_on channel=1 note=33 velocity=0 time=0.026881708333333334
EXTRACT: note_on channel=3 note=40 velocity=0 time=0
EXTRACT: note_on channel=3 note=48 velocity=0 time=0
EXTRACT: note_on channel=2 note=64 velocity=55 time=0.03763439166666667
EXTRACT: note_on channel=2 note=62 velocity=55 time=0
EXTRACT: note_on channel=2 note=59 velocity=55 time=0
EXTRACT: note_on channel=2 note=67 velocity=55 time=0
EXTRACT: note_on channel=3 note=57 velocity=0 time=0.06989244166666667
EXTRACT: note_on channel=1 note=40 velocity=77 time=0.16129025
EXTRACT: control_change channel=3 control=64 value=0 time=0
EXTRACT: note_on channel=3 note=40 velocity=53 time=0
EXTRACT: note_on channel=3 note=59 velocity=45 time=0
EXTRACT: note_on channel=3 note=55 velocity=59 time=0
EXTRACT: note_on channel=3 note=50 velocity=49 time=0
EXTRACT: note_on channel=7 note=45 velocity=0 time=0
EXTRACT: note_on channel=7 note=40 velocity=85 time=0
EXTRACT: note_on channel=9 note=35 velocity=58 time=0
EXTRACT: note_on channel=9 note=38 velocity=50 time=0
EXTRACT: note_on channel=9 note=38 velocity=0 time=0.005376341666666667
EXTRACT: note_on channel=9 note=35 velocity=0 time=0
EXTRACT: control_change channel=3 control=64 value=127 time=0.22043000833333334
EXTRACT: note_on channel=3 note=55 velocity=0 time=0.010752683333333334
EXTRACT: note_on channel=3 note=50 velocity=0 time=0.06989244166666667
EXTRACT: note_on channel=3 note=59 velocity=0 time=0
EXTRACT: note_on channel=4 note=69 velocity=0 time=0.005376341666666667
EXTRACT: note_on channel=11 note=69 velocity=0 time=0
EXTRACT: note_on channel=4 note=67 velocity=85 time=0.010752683333333334
EXTRACT: note_on channel=5 note=69 velocity=0 time=0
EXTRACT: note_on channel=5 note=62 velocity=0 time=0
EXTRACT: note_on channel=5 note=59 velocity=0 time=0
EXTRACT: note_on channel=5 note=67 velocity=82 time=0
EXTRACT: note_on channel=9 note=38 velocity=38 time=0
EXTRACT: note_on channel=10 note=69 velocity=0 time=0
EXTRACT: note_on channel=10 note=62 velocity=0 time=0
EXTRACT: note_on channel=10 note=59 velocity=0 time=0
EXTRACT: note_on channel=10 note=67 velocity=78 time=0
EXTRACT: note_on channel=11 note=67 velocity=78 time=0
EXTRACT: note_on channel=9 note=38 velocity=0 time=0.005376341666666667
EXTRACT: note_on channel=4 note=67 velocity=0 time=0.3172041583333334
EXTRACT: note_on channel=5 note=67 velocity=0 time=0
EXTRACT: note_on channel=9 note=38 velocity=58 time=0
EXTRACT: note_on channel=9 note=42 velocity=48 time=0
EXTRACT: note_on channel=10 note=67 velocity=0 time=0
EXTRACT: note_on channel=11 note=67 velocity=0 time=0
EXTRACT: note_on channel=9 note=42 velocity=0 time=0.005376341666666667
EXTRACT: note_on channel=9 note=38 velocity=0 time=0
EXTRACT: note_on channel=3 note=59 velocity=58 time=0.005376341666666667
EXTRACT: note_on channel=3 note=55 velocity=63 time=0.005376341666666667
EXTRACT: note_on channel=3 note=50 velocity=45 time=0.010752683333333334
EXTRACT: note_on channel=3 note=55 velocity=0 time=0.22580635000000002
EXTRACT: note_on channel=3 note=50 velocity=0 time=0.048387075
EXTRACT: note_on channel=1 note=40 velocity=0 time=0
EXTRACT: note_on channel=1 note=47 velocity=71 time=0
EXTRACT: note_on channel=4 note=67 velocity=85 time=0
EXTRACT: note_on channel=5 note=67 velocity=82 time=0
EXTRACT: note_on channel=9 note=38 velocity=38 time=0
EXTRACT: note_on channel=10 note=67 velocity=78 time=0
EXTRACT: note_on channel=11 note=67 velocity=78 time=0
EXTRACT: note_on channel=3 note=59 velocity=0 time=0.005376341666666667
EXTRACT: note_on channel=9 note=38 velocity=0 time=0
EXTRACT: note_on channel=3 note=40 velocity=0 time=0.11827951666666667
EXTRACT: note_on channel=1 note=47 velocity=0 time=0.043010733333333336
EXTRACT: note_on channel=1 note=47 velocity=81 time=0
EXTRACT: note_on channel=4 note=67 velocity=0 time=0
EXTRACT: note_on channel=4 note=69 velocity=85 time=0
EXTRACT: note_on channel=5 note=67 velocity=0 time=0
EXTRACT: note_on channel=5 note=59 velocity=82 time=0
EXTRACT: note_on channel=5 note=62 velocity=82 time=0
EXTRACT: note_on channel=5 note=69 velocity=82 time=0
EXTRACT: note_on channel=7 note=40 velocity=0 time=0
EXTRACT: note_on channel=7 note=40 velocity=85 time=0
EXTRACT: note_on channel=9 note=35 velocity=58 time=0
EXTRACT: note_on channel=9 note=38 velocity=58 time=0
EXTRACT: note_on channel=10 note=67 velocity=0 time=0
EXTRACT: note_on channel=10 note=59 velocity=78 time=0
EXTRACT: note_on channel=10 note=62 velocity=78 time=0
EXTRACT: note_on channel=10 note=69 velocity=78 time=0
EXTRACT: note_on channel=11 note=67 velocity=0 time=0
EXTRACT: note_on channel=11 note=69 velocity=78 time=0
EXTRACT: note_on channel=3 note=35 velocity=55 time=0.005376341666666667
EXTRACT: note_on channel=9 note=38 velocity=0 time=0
EXTRACT: note_on channel=9 note=35 velocity=0 time=0
EXTRACT: control_change channel=3 control=64 value=0 time=0.15053756666666668
EXTRACT: note_on channel=4 note=69 velocity=0 time=0
EXTRACT: note_on channel=4 note=67 velocity=85 time=0
EXTRACT: note_on channel=5 note=69 velocity=0 time=0
EXTRACT: note_on channel=5 note=62 velocity=0 time=0
EXTRACT: note_on channel=5 note=59 velocity=0 time=0
EXTRACT: note_on channel=5 note=67 velocity=82 time=0
EXTRACT: note_on channel=7 note=40 velocity=0 time=0
EXTRACT: note_on channel=7 note=43 velocity=85 time=0
EXTRACT: note_on channel=9 note=38 velocity=38 time=0
EXTRACT: note_on channel=10 note=69 velocity=0 time=0
EXTRACT: note_on channel=10 note=62 velocity=0 time=0
EXTRACT: note_on channel=10 note=59 velocity=0 time=0
EXTRACT: note_on channel=10 note=67 velocity=78 time=0
EXTRACT: note_on channel=11 note=69 velocity=0 time=0
EXTRACT: note_on channel=11 note=67 velocity=78 time=0
EXTRACT: note_on channel=9 note=38 velocity=0 time=0.005376341666666667
EXTRACT: note_on channel=3 note=50 velocity=42 time=0.021505366666666668
EXTRACT: note_on channel=3 note=55 velocity=57 time=0.010752683333333334
EXTRACT: note_on channel=3 note=59 velocity=46 time=0
EXTRACT: note_on channel=1 note=47 velocity=0 time=0.20430098333333335
EXTRACT: note_on channel=1 note=40 velocity=81 time=0
EXTRACT: note_on channel=4 note=67 velocity=0 time=0
EXTRACT: note_on channel=4 note=69 velocity=85 time=0
EXTRACT: note_on channel=5 note=67 velocity=0 time=0
EXTRACT: note_on channel=5 note=69 velocity=82 time=0
EXTRACT: note_on channel=9 note=38 velocity=48 time=0
EXTRACT: note_on channel=9 note=42 velocity=48 time=0
EXTRACT: note_on channel=10 note=67 velocity=0 time=0
EXTRACT: note_on channel=10 note=69 velocity=78 time=0
EXTRACT: note_on channel=11 note=67 velocity=0 time=0
EXTRACT: note_on channel=11 note=69 velocity=78 time=0
EXTRACT: note_on channel=9 note=42 velocity=0 time=0.005376341666666667
EXTRACT: note_on channel=9 note=38 velocity=0 time=0
EXTRACT: note_on channel=4 note=69 velocity=0 time=0
EXTRACT: note_on channel=4 note=72 velocity=85 time=0
EXTRACT: note_on channel=5 note=69 velocity=0 time=0
EXTRACT: note_on channel=5 note=65 velocity=82 time=0
EXTRACT: note_on channel=5 note=69 velocity=82 time=0
EXTRACT: note_on channel=5 note=72 velocity=82 time=0
EXTRACT: note_on channel=7 note=43 velocity=0 time=0
EXTRACT: note_on channel=7 note=45 velocity=85 time=0
EXTRACT: note_on channel=9 note=38 velocity=58 time=0
EXTRACT: note_on channel=10 note=69 velocity=0 time=0
EXTRACT: note_on channel=10 note=65 velocity=78 time=0
EXTRACT: note_on channel=10 note=69 velocity=78 time=0
EXTRACT: note_on channel=10 note=72 velocity=78 time=0
EXTRACT: note_on channel=11 note=69 velocity=0 time=0
EXTRACT: note_on channel=11 note=72 velocity=78 time=0
EXTRACT: note_on channel=9 note=38 velocity=0 time=0.005376341666666667
EXTRACT: note_on channel=3 note=55 velocity=0 time=0.016129025
EXTRACT: note_on channel=3 note=50 velocity=0 time=0.048387075
EXTRACT: note_on channel=3 note=35 velocity=0 time=0.021505366666666668
EXTRACT: note_on channel=3 note=59 velocity=0 time=0
EXTRACT: note_on channel=1 note=40 velocity=0 time=0.17741927500000002
EXTRACT: note_on channel=2 note=67 velocity=0 time=0.043010733333333336
EXTRACT: note_on channel=2 note=64 velocity=0 time=0
EXTRACT: note_on channel=2 note=62 velocity=0 time=0
EXTRACT: note_on channel=2 note=59 velocity=0 time=0
EXTRACT: note_on channel=1 note=41 velocity=77 time=0.010752683333333334
EXTRACT: control_change channel=2 control=64 value=127 time=0
EXTRACT: control_change channel=2 control=64 value=0 time=0
EXTRACT: note_on channel=3 note=41 velocity=53 time=0
EXTRACT: note_on channel=3 note=65 velocity=45 time=0
EXTRACT: note_on channel=3 note=60 velocity=59 time=0
EXTRACT: note_on channel=3 note=53 velocity=49 time=0
EXTRACT: note_on channel=7 note=45 velocity=0 time=0
EXTRACT: note_on channel=7 note=41 velocity=85 time=0
EXTRACT: note_on channel=9 note=35 velocity=58 time=0
EXTRACT: note_on channel=9 note=38 velocity=50 time=0
EXTRACT: note_on channel=9 note=38 velocity=0 time=0.005376341666666667
EXTRACT: note_on channel=9 note=35 velocity=0 time=0
EXTRACT: control_change channel=3 control=64 value=127 time=0.22043000833333334
EXTRACT: note_on channel=3 note=60 velocity=0 time=0.010752683333333334
EXTRACT: note_on channel=3 note=53 velocity=0 time=0.06989244166666667
EXTRACT: note_on channel=3 note=65 velocity=0 time=0
EXTRACT: note_on channel=4 note=72 velocity=0 time=0.005376341666666667
EXTRACT: note_on channel=11 note=72 velocity=0 time=0
EXTRACT: note_on channel=4 note=69 velocity=85 time=0
EXTRACT: note_on channel=5 note=72 velocity=0 time=0
EXTRACT: note_on channel=5 note=69 velocity=0 time=0
EXTRACT: note_on channel=5 note=65 velocity=0 time=0
EXTRACT: note_on channel=5 note=60 velocity=82 time=0
EXTRACT: note_on channel=5 note=65 velocity=82 time=0
EXTRACT: note_on channel=5 note=69 velocity=82 time=0
EXTRACT: note_on channel=9 note=38 velocity=38 time=0
EXTRACT: note_on channel=10 note=72 velocity=0 time=0
EXTRACT: note_on channel=10 note=69 velocity=0 time=0
EXTRACT: note_on channel=10 note=65 velocity=0 time=0
EXTRACT: note_on channel=10 note=60 velocity=78 time=0
EXTRACT: note_on channel=10 note=65 velocity=78 time=0
EXTRACT: note_on channel=10 note=69 velocity=78 time=0
EXTRACT: note_on channel=11 note=69 velocity=78 time=0
EXTRACT: note_on channel=9 note=38 velocity=0 time=0.005376341666666667
EXTRACT: note_on channel=2 note=65 velocity=55 time=0.3172041583333334
EXTRACT: note_on channel=2 note=60 velocity=55 time=0
EXTRACT: note_on channel=2 note=57 velocity=55 time=0
EXTRACT: note_on channel=9 note=38 velocity=58 time=0
EXTRACT: note_on channel=9 note=42 velocity=48 time=0
EXTRACT: note_on channel=9 note=42 velocity=0 time=0.005376341666666667
EXTRACT: note_on channel=9 note=38 velocity=0 time=0
EXTRACT: note_on channel=3 note=65 velocity=58 time=0.005376341666666667
EXTRACT: note_on channel=3 note=60 velocity=63 time=0.005376341666666667
EXTRACT: note_on channel=3 note=53 velocity=45 time=0.010752683333333334
EXTRACT: note_on channel=1 note=41 velocity=0 time=0.21505366666666667
EXTRACT: note_on channel=3 note=60 velocity=0 time=0.010752683333333334
EXTRACT: note_on channel=3 note=53 velocity=0 time=0.048387075
EXTRACT: note_on channel=4 note=69 velocity=0 time=0.010752683333333334
EXTRACT: note_on channel=11 note=69 velocity=0 time=0
EXTRACT: note_on channel=1 note=41 velocity=83 time=0
EXTRACT: control_change channel=2 control=64 value=127 time=0
EXTRACT: note_on channel=4 note=72 velocity=85 time=0
EXTRACT: note_on channel=5 note=69 velocity=0 time=0
EXTRACT: note_on channel=5 note=65 velocity=0 time=0
EXTRACT: note_on channel=5 note=60 velocity=0 time=0
EXTRACT: note_on channel=5 note=72 velocity=82 time=0
EXTRACT: note_on channel=7 note=41 velocity=0 time=0
EXTRACT: note_on channel=7 note=41 velocity=85 time=0
EXTRACT: note_on channel=9 note=38 velocity=38 time=0
EXTRACT: note_on channel=10 note=69 velocity=0 time=0
EXTRACT: note_on channel=10 note=65 velocity=0 time=0
EXTRACT: note_on channel=10 note=60 velocity=0 time=0
EXTRACT: note_on channel=10 note=72 velocity=78 time=0
EXTRACT: note_on channel=11 note=72 velocity=78 time=0
EXTRACT: note_on channel=3 note=65 velocity=0 time=0.005376341666666667
EXTRACT: note_on channel=9 note=38 velocity=0 time=0
EXTRACT: note_on channel=2 note=57 velocity=0 time=0.07526878333333334
EXTRACT: note_on channel=2 note=60 velocity=0 time=0
EXTRACT: note_on channel=2 note=65 velocity=0 time=0
EXTRACT: note_on channel=3 note=41 velocity=0 time=0.043010733333333336
EXTRACT: note_on channel=1 note=41 velocity=0 time=0
EXTRACT: note_on channel=1 note=40 velocity=85 time=0
EXTRACT: control_change channel=2 control=64 value=0 time=0
EXTRACT: control_change channel=2 control=64 value=127 time=0
EXTRACT: control_change channel=2 control=64 value=0 time=0
EXTRACT: control_change channel=3 control=64 value=0 time=0
EXTRACT: note_on channel=3 note=40 velocity=53 time=0
EXTRACT: note_on channel=3 note=59 velocity=45 time=0
EXTRACT: note_on channel=3 note=55 velocity=59 time=0
EXTRACT: note_on channel=3 note=50 velocity=49 time=0
EXTRACT: note_on channel=4 note=72 velocity=0 time=0
EXTRACT: note_on channel=4 note=69 velocity=85 time=0
EXTRACT: note_on channel=5 note=72 velocity=0 time=0
EXTRACT: note_on channel=5 note=59 velocity=82 time=0
EXTRACT: note_on channel=5 note=62 velocity=82 time=0
EXTRACT: note_on channel=5 note=69 velocity=82 time=0
EXTRACT: note_on channel=7 note=41 velocity=0 time=0
EXTRACT: note_on channel=7 note=40 velocity=85 time=0
EXTRACT: note_on channel=9 note=35 velocity=58 time=0
EXTRACT: note_on channel=9 note=38 velocity=58 time=0
EXTRACT: note_on channel=10 note=72 velocity=0 time=0
EXTRACT: note_on channel=10 note=59 velocity=78 time=0
EXTRACT: note_on channel=10 note=62 velocity=78 time=0
EXTRACT: note_on channel=10 note=69 velocity=78 time=0
EXTRACT: note_on channel=11 note=72 velocity=0 time=0
EXTRACT: note_on channel=11 note=69 velocity=78 time=0
EXTRACT: note_on channel=9 note=38 velocity=0 time=0.005376341666666667
EXTRACT: note_on channel=9 note=35 velocity=0 time=0
EXTRACT: control_change channel=3 control=64 value=127 time=0.22043000833333334
EXTRACT: note_on channel=3 note=55 velocity=0 time=0.010752683333333334
EXTRACT: note_on channel=3 note=50 velocity=0 time=0.06989244166666667
EXTRACT: note_on channel=3 note=59 velocity=0 time=0
EXTRACT: note_on channel=4 note=69 velocity=0 time=0
EXTRACT: note_on channel=4 note=67 velocity=85 time=0
EXTRACT: note_on channel=5 note=69 velocity=0 time=0
EXTRACT: note_on channel=5 note=62 velocity=0 time=0
EXTRACT: note_on channel=5 note=59 velocity=0 time=0
EXTRACT: note_on channel=5 note=67 velocity=82 time=0
EXTRACT: note_on channel=9 note=38 velocity=38 time=0
EXTRACT: note_on channel=10 note=69 velocity=0 time=0
EXTRACT: note_on channel=10 note=62 velocity=0 time=0
EXTRACT: note_on channel=10 note=59 velocity=0 time=0
EXTRACT: note_on channel=10 note=67 velocity=78 time=0
EXTRACT: note_on channel=11 note=69 velocity=0 time=0
EXTRACT: note_on channel=11 note=67 velocity=78 time=0
EXTRACT: note_on channel=9 note=38 velocity=0 time=0.005376341666666667
EXTRACT: note_on channel=2 note=64 velocity=55 time=0
EXTRACT: note_on channel=2 note=62 velocity=55 time=0
EXTRACT: note_on channel=2 note=59 velocity=55 time=0
EXTRACT: note_on channel=2 note=67 velocity=55 time=0
EXTRACT: note_on channel=4 note=67 velocity=0 time=0
EXTRACT: note_on channel=4 note=64 velocity=85 time=0
EXTRACT: note_on channel=5 note=67 velocity=0 time=0
EXTRACT: note_on channel=5 note=64 velocity=82 time=0
EXTRACT: note_on channel=9 note=38 velocity=48 time=0
EXTRACT: note_on channel=9 note=42 velocity=48 time=0
EXTRACT: note_on channel=10 note=67 velocity=0 time=0
EXTRACT: note_on channel=10 note=64 velocity=78 time=0
EXTRACT: note_on channel=11 note=67 velocity=0 time=0
EXTRACT: note_on channel=11 note=64 velocity=78 time=0
EXTRACT: note_on channel=9 note=42 velocity=0 time=0.005376341666666667
EXTRACT: note_on channel=9 note=38 velocity=0 time=0
EXTRACT: note_on channel=3 note=59 velocity=58 time=0.005376341666666667
EXTRACT: note_on channel=3 note=55 velocity=63 time=0.005376341666666667
EXTRACT: note_on channel=3 note=50 velocity=45 time=0.010752683333333334
EXTRACT: note_on channel=3 note=55 velocity=0 time=0.22580635000000002
EXTRACT: note_on channel=3 note=50 velocity=0 time=0.048387075
EXTRACT: control_change channel=2 control=64 value=127 time=0
EXTRACT: note_on channel=4 note=64 velocity=0 time=0
EXTRACT: note_on channel=4 note=67 velocity=85 time=0
EXTRACT: note_on channel=5 note=64 velocity=0 time=0
EXTRACT: note_on channel=5 note=60 velocity=82 time=0
EXTRACT: note_on channel=5 note=64 velocity=82 time=0
EXTRACT: note_on channel=5 note=67 velocity=82 time=0
EXTRACT: note_on channel=7 note=40 velocity=0 time=0
EXTRACT: note_on channel=7 note=40 velocity=85 time=0
EXTRACT: note_on channel=9 note=38 velocity=58 time=0
EXTRACT: note_on channel=10 note=64 velocity=0 time=0
EXTRACT: note_on channel=10 note=60 velocity=78 time=0
EXTRACT: note_on channel=10 note=64 velocity=78 time=0
EXTRACT: note_on channel=10 note=67 velocity=78 time=0
EXTRACT: note_on channel=11 note=64 velocity=0 time=0
EXTRACT: note_on channel=11 note=67 velocity=78 time=0
EXTRACT: note_on channel=3 note=59 velocity=0 time=0.005376341666666667
EXTRACT: note_on channel=9 note=38 velocity=0 time=0
EXTRACT: note_on channel=2 note=67 velocity=0 time=0.07526878333333334
EXTRACT: note_on channel=2 note=64 velocity=0 time=0
EXTRACT: note_on channel=2 note=62 velocity=0 time=0
EXTRACT: note_on channel=2 note=59 velocity=0 time=0
EXTRACT: note_on channel=3 note=40 velocity=0 time=0.043010733333333336
EXTRACT: note_on channel=1 note=40 velocity=0 time=0.19892464166666668
EXTRACT: note_on channel=1 note=33 velocity=77 time=0
EXTRACT: control_change channel=2 control=64 value=0 time=0
EXTRACT: control_change channel=3 control=64 value=0 time=0
EXTRACT: note_on channel=7 note=40 velocity=0 time=0
EXTRACT: note_on channel=7 note=33 velocity=85 time=0
EXTRACT: note_on channel=9 note=35 velocity=58 time=0
EXTRACT: note_on channel=9 note=38 velocity=50 time=0
EXTRACT: note_on channel=9 note=38 velocity=0 time=0.005376341666666667
EXTRACT: note_on channel=9 note=35 velocity=0 time=0
EXTRACT: note_on channel=2 note=64 velocity=63 time=0.005376341666666667
EXTRACT: note_on channel=2 note=60 velocity=63 time=0
EXTRACT: note_on channel=2 note=57 velocity=63 time=0
EXTRACT: control_change channel=3 control=64 value=127 time=0.15591390833333335
EXTRACT: note_on channel=2 note=57 velocity=0 time=0.048387075
EXTRACT: note_on channel=2 note=60 velocity=0 time=0
EXTRACT: note_on channel=2 note=64 velocity=0 time=0
EXTRACT: note_on channel=4 note=67 velocity=0 time=0.09677415
EXTRACT: note_on channel=11 note=67 velocity=0 time=0
EXTRACT: note_on channel=4 note=64 velocity=85 time=0
EXTRACT: note_on channel=5 note=67 velocity=0 time=0
EXTRACT: note_on channel=5 note=64 velocity=0 time=0
EXTRACT: note_on channel=5 note=60 velocity=0 time=0
EXTRACT: note_on channel=5 note=57 velocity=82 time=0
EXTRACT: note_on channel=5 note=60 velocity=82 time=0
EXTRACT: note_on channel=5 note=64 velocity=82 time=0
EXTRACT: note_on channel=9 note=38 velocity=38 time=0
EXTRACT: note_on channel=10 note=67 velocity=0 time=0
EXTRACT: note_on channel=10 note=64 velocity=0 time=0
EXTRACT: note_on channel=10 note=60 velocity=0 time=0
EXTRACT: note_on channel=10 note=57 velocity=78 time=0
EXTRACT: note_on channel=10 note=60 velocity=78 time=0
EXTRACT: note_on channel=10 note=64 velocity=78 time=0
EXTRACT: note_on channel=11 note=64 velocity=78 time=0
EXTRACT: note_on channel=9 note=38 velocity=0 time=0.005376341666666667
EXTRACT: note_on channel=2 note=64 velocity=46 time=0.30645147500000003
EXTRACT: note_on channel=2 note=60 velocity=46 time=0
EXTRACT: note_on channel=2 note=57 velocity=46 time=0
EXTRACT: note_on channel=9 note=38 velocity=58 time=0.010752683333333334
EXTRACT: note_on channel=9 note=42 velocity=48 time=0
EXTRACT: note_on channel=9 note=42 velocity=0 time=0.005376341666666667
EXTRACT: note_on channel=9 note=38 velocity=0 time=0
EXTRACT: note_on channel=3 note=57 velocity=63 time=0.03225805
EXTRACT: note_on channel=3 note=60 velocity=48 time=0
EXTRACT: note_on channel=3 note=48 velocity=37 time=0.03225805
EXTRACT: note_on channel=2 note=57 velocity=0 time=0.15053756666666668
EXTRACT: note_on channel=2 note=60 velocity=0 time=0
EXTRACT: note_on channel=2 note=64 velocity=0 time=0
EXTRACT: note_on channel=1 note=33 velocity=0 time=0.021505366666666668
EXTRACT: note_on channel=3 note=57 velocity=0 time=0.03763439166666667
EXTRACT: note_on channel=1 note=33 velocity=83 time=0.043010733333333336
EXTRACT: note_on channel=7 note=33 velocity=0 time=0
EXTRACT: note_on channel=7 note=40 velocity=85 time=0
EXTRACT: note_on channel=9 note=38 velocity=38 time=0
EXTRACT: note_on channel=3 note=60 velocity=0 time=0.005376341666666667
EXTRACT: note_on channel=9 note=38 velocity=0 time=0
EXTRACT: note_on channel=3 note=48 velocity=0 time=0.010752683333333334
EXTRACT: note_on channel=4 note=64 velocity=0 time=0.1290322
EXTRACT: note_on channel=11 note=64 velocity=0 time=0
EXTRACT: note_on channel=4 note=60 velocity=85 time=0
EXTRACT: note_on channel=5 note=64 velocity=0 time=0
EXTRACT: note_on channel=5 note=60 velocity=0 time=0
EXTRACT: note_on channel=5 note=57 velocity=0 time=0
EXTRACT: note_on channel=5 note=60 velocity=82 time=0
EXTRACT: note_on channel=10 note=64 velocity=0 time=0
EXTRACT: note_on channel=10 note=60 velocity=0 time=0
EXTRACT: note_on channel=10 note=57 velocity=0 time=0
EXTRACT: note_on channel=10 note=60 velocity=78 time=0
EXTRACT: note_on channel=11 note=60 velocity=78 time=0
EXTRACT: note_on channel=1 note=40 velocity=74 time=0
EXTRACT: note_on channel=4 note=60 velocity=0 time=0
EXTRACT: note_on channel=4 note=60 velocity=85 time=0
EXTRACT: note_on channel=5 note=60 velocity=0 time=0
EXTRACT: note_on channel=5 note=60 velocity=82 time=0
EXTRACT: note_on channel=7 note=40 velocity=0 time=0
EXTRACT: note_on channel=7 note=45 velocity=85 time=0
EXTRACT: note_on channel=9 note=35 velocity=58 time=0
EXTRACT: note_on channel=9 note=38 velocity=58 time=0
EXTRACT: note_on channel=10 note=60 velocity=0 time=0
EXTRACT: note_on channel=10 note=60 velocity=78 time=0
EXTRACT: note_on channel=11 note=60 velocity=0 time=0
EXTRACT: note_on channel=11 note=60 velocity=78 time=0
EXTRACT: note_on channel=9 note=38 velocity=0 time=0.005376341666666667
EXTRACT: note_on channel=9 note=35 velocity=0 time=0
EXTRACT: note_on channel=1 note=33 velocity=0 time=0.03225805
EXTRACT: note_on channel=3 note=60 velocity=51 time=0
EXTRACT: note_on channel=3 note=48 velocity=46 time=0
EXTRACT: note_on channel=4 note=60 velocity=0 time=0
EXTRACT: note_on channel=4 note=62 velocity=85 time=0
EXTRACT: note_on channel=5 note=60 velocity=0 time=0
EXTRACT: note_on channel=5 note=62 velocity=82 time=0
EXTRACT: note_on channel=9 note=38 velocity=38 time=0
EXTRACT: note_on channel=10 note=60 velocity=0 time=0
EXTRACT: note_on channel=10 note=62 velocity=78 time=0
EXTRACT: note_on channel=11 note=60 velocity=0 time=0
EXTRACT: note_on channel=11 note=62 velocity=78 time=0
EXTRACT: note_on channel=9 note=38 velocity=0 time=0.005376341666666667
EXTRACT: note_on channel=3 note=57 velocity=69 time=0.010752683333333334
EXTRACT: note_on channel=2 note=64 velocity=58 time=0.03225805
EXTRACT: note_on channel=2 note=60 velocity=58 time=0
EXTRACT: note_on channel=2 note=57 velocity=58 time=0
EXTRACT: note_on channel=3 note=57 velocity=0 time=0.19892464166666668
EXTRACT: note_on channel=3 note=48 velocity=0 time=0.021505366666666668
EXTRACT: note_on channel=3 note=60 velocity=0 time=0
EXTRACT: note_on channel=2 note=57 velocity=0 time=0.026881708333333334
EXTRACT: note_on channel=2 note=60 velocity=0 time=0
EXTRACT: note_on channel=2 note=64 velocity=0 time=0
EXTRACT: note_on channel=4 note=62 velocity=0 time=0
EXTRACT: note_on channel=4 note=64 velocity=85 time=0
EXTRACT: note_on channel=5 note=62 velocity=0 time=0
EXTRACT: note_on channel=5 note=64 velocity=82 time=0
EXTRACT: note_on channel=9 note=38 velocity=48 time=0
EXTRACT: note_on channel=9 note=42 velocity=48 time=0
EXTRACT: note_on channel=10 note=62 velocity=0 time=0
EXTRACT: note_on channel=10 note=64 velocity=78 time=0
EXTRACT: note_on channel=11 note=62 velocity=0 time=0
EXTRACT: note_on channel=11 note=64 velocity=78 time=0
EXTRACT: note_on channel=9 note=42 velocity=0 time=0.005376341666666667
EXTRACT: note_on channel=9 note=38 velocity=0 time=0
EXTRACT: note_on channel=1 note=40 velocity=0 time=0.03763439166666667
EXTRACT: note_on channel=1 note=40 velocity=76 time=0
EXTRACT: note_on channel=4 note=64 velocity=0 time=0
EXTRACT: note_on channel=4 note=65 velocity=85 time=0
EXTRACT: note_on channel=5 note=64 velocity=0 time=0
EXTRACT: note_on channel=5 note=65 velocity=82 time=0
EXTRACT: note_on channel=7 note=45 velocity=0 time=0
EXTRACT: note_on channel=7 note=45 velocity=85 time=0
EXTRACT: note_on channel=9 note=38 velocity=58 time=0
EXTRACT: note_on channel=10 note=64 velocity=0 time=0
EXTRACT: note_on channel=10 note=65 velocity=78 time=0
EXTRACT: note_on channel=11 note=64 velocity=0 time=0
EXTRACT: note_on channel=11 note=65 velocity=78 time=0
EXTRACT: note_on channel=9 note=38 velocity=0 time=0.005376341666666667
EXTRACT: note_on channel=1 note=40 velocity=0 time=0
EXTRACT: note_on channel=1 note=43 velocity=77 time=0
EXTRACT: control_change channel=3 control=64 value=0 time=0
EXTRACT: note_on channel=4 note=65 velocity=0 time=0
EXTRACT: note_on channel=4 note=64 velocity=85 time=0
EXTRACT: note_on channel=5 note=65 velocity=0 time=0
EXTRACT: note_on channel=5 note=55 velocity=82 time=0
EXTRACT: note_on channel=5 note=60 velocity=82 time=0
EXTRACT: note_on channel=5 note=64 velocity=82 time=0
EXTRACT: note_on channel=7 note=45 velocity=0 time=0
EXTRACT: note_on channel=7 note=31 velocity=85 time=0
EXTRACT: note_on channel=7 note=43 velocity=85 time=0
EXTRACT: note_on channel=9 note=35 velocity=58 time=0
EXTRACT: note_on channel=9 note=38 velocity=50 time=0
EXTRACT: note_on channel=10 note=65 velocity=0 time=0
EXTRACT: note_on channel=10 note=55 velocity=78 time=0
EXTRACT: note_on channel=10 note=60 velocity=78 time=0
EXTRACT: note_on channel=10 note=64 velocity=78 time=0
EXTRACT: note_on channel=11 note=65 velocity=0 time=0
EXTRACT: note_on channel=11 note=64 velocity=78 time=0
EXTRACT: note_on channel=9 note=38 velocity=0 time=0.005376341666666667
EXTRACT: note_on channel=9 note=35 velocity=0 time=0
EXTRACT: note_on channel=2 note=65 velocity=63 time=0.005376341666666667
EXTRACT: note_on channel=2 note=62 velocity=63 time=0
EXTRACT: note_on channel=2 note=60 velocity=63 time=0
EXTRACT: note_on channel=2 note=69 velocity=63 time=0
EXTRACT: note_on channel=3 note=43 velocity=50 time=0
EXTRACT: note_on channel=3 note=60 velocity=70 time=0.005376341666666667
EXTRACT: note_on channel=3 note=53 velocity=48 time=0
EXTRACT: note_on channel=3 note=64 velocity=70 time=0.016129025
EXTRACT: note_on channel=2 note=69 velocity=0 time=0.1827956166666667
EXTRACT: note_on channel=2 note=65 velocity=0 time=0
EXTRACT: note_on channel=2 note=62 velocity=0 time=0
EXTRACT: note_on channel=2 note=60 velocity=0 time=0
EXTRACT: control_change channel=3 control=64 value=127 time=0.021505366666666668
EXTRACT: note_on channel=3 note=60 velocity=0 time=0.03763439166666667
EXTRACT: note_on channel=3 note=53 velocity=0 time=0.03225805
EXTRACT: note_on channel=3 note=64 velocity=0 time=0.005376341666666667
EXTRACT: note_on channel=4 note=64 velocity=0 time=0
EXTRACT: note_on channel=4 note=64 velocity=85 time=0
EXTRACT: note_on channel=5 note=64 velocity=0 time=0
EXTRACT: note_on channel=5 note=60 velocity=0 time=0
EXTRACT: note_on channel=5 note=55 velocity=0 time=0
EXTRACT: note_on channel=5 note=64 velocity=82 time=0
EXTRACT: note_on channel=9 note=38 velocity=38 time=0
EXTRACT: note_on channel=10 note=64 velocity=0 time=0
EXTRACT: note_on channel=10 note=60 velocity=0 time=0
EXTRACT: note_on channel=10 note=55 velocity=0 time=0
EXTRACT: note_on channel=10 note=64 velocity=78 time=0
EXTRACT: note_on channel=11 note=64 velocity=0 time=0
EXTRACT: note_on channel=11 note=64 velocity=78 time=0
EXTRACT: note_on channel=9 note=38 velocity=0 time=0.005376341666666667
EXTRACT: note_on channel=4 note=64 velocity=0 time=0
EXTRACT: note_on channel=4 note=64 velocity=85 time=0
EXTRACT: note_on channel=5 note=64 velocity=0 time=0
EXTRACT: note_on channel=5 note=64 velocity=82 time=0
EXTRACT: note_on channel=10 note=64 velocity=0 time=0
EXTRACT: note_on channel=10 note=64 velocity=78 time=0
EXTRACT: note_on channel=11 note=64 velocity=0 time=0
EXTRACT: note_on channel=11 note=64 velocity=78 time=0
EXTRACT: note_on channel=2 note=65 velocity=46 time=0.15053756666666668
EXTRACT: note_on channel=2 note=62 velocity=46 time=0
EXTRACT: note_on channel=2 note=60 velocity=46 time=0
EXTRACT: note_on channel=2 note=69 velocity=46 time=0
EXTRACT: note_on channel=4 note=64 velocity=0 time=0
EXTRACT: note_on channel=4 note=64 velocity=85 time=0
EXTRACT: note_on channel=5 note=64 velocity=0 time=0
EXTRACT: note_on channel=5 note=64 velocity=82 time=0
EXTRACT: note_on channel=9 note=38 velocity=58 time=0
EXTRACT: note_on channel=9 note=42 velocity=48 time=0
EXTRACT: note_on channel=10 note=64 velocity=0 time=0
EXTRACT: note_on channel=10 note=64 velocity=78 time=0
EXTRACT: note_on channel=11 note=64 velocity=0 time=0
EXTRACT: note_on channel=11 note=64 velocity=78 time=0
EXTRACT: note_on channel=9 note=42 velocity=0 time=0.005376341666666667
EXTRACT: note_on channel=9 note=38 velocity=0 time=0
EXTRACT: note_on channel=3 note=53 velocity=49 time=0.005376341666666667
EXTRACT: note_on channel=3 note=60 velocity=59 time=0.010752683333333334
EXTRACT: note_on channel=3 note=64 velocity=54 time=0.010752683333333334
EXTRACT: note_on channel=2 note=69 velocity=0 time=0.18817195833333333
EXTRACT: note_on channel=2 note=65 velocity=0 time=0
EXTRACT: note_on channel=2 note=62 velocity=0 time=0
EXTRACT: note_on channel=2 note=60 velocity=0 time=0
EXTRACT: note_on channel=3 note=60 velocity=0 time=0.010752683333333334
EXTRACT: note_on channel=1 note=43 velocity=0 time=0.010752683333333334
EXTRACT: note_on channel=3 note=53 velocity=0 time=0
EXTRACT: note_on channel=3 note=64 velocity=0 time=0.03225805
EXTRACT: note_on channel=1 note=43 velocity=83 time=0
EXTRACT: note_on channel=4 note=64 velocity=0 time=0
EXTRACT: note_on channel=4 note=65 velocity=85 time=0
EXTRACT: note_on channel=5 note=64 velocity=0 time=0
EXTRACT: note_on channel=5 note=65 velocity=82 time=0
EXTRACT: note_on channel=9 note=38 velocity=38 time=0
EXTRACT: note_on channel=10 note=64 velocity=0 time=0
EXTRACT: note_on channel=10 note=65 velocity=78 time=0
EXTRACT: note_on channel=11 note=64 velocity=0 time=0
EXTRACT: note_on channel=11 note=65 velocity=78 time=0
EXTRACT: note_on channel=9 note=38 velocity=0 time=0.005376341666666667
EXTRACT: note_on channel=3 note=43 velocity=0 time=0.12365585833333334
EXTRACT: control_change channel=3 control=64 value=0 time=0.1344085416666667
EXTRACT: note_on channel=1 note=38 velocity=74 time=0
EXTRACT: note_on channel=4 note=65 velocity=0 time=0
EXTRACT: note_on channel=4 note=64 velocity=85 time=0
EXTRACT: note_on channel=5 note=65 velocity=0 time=0
EXTRACT: note_on channel=5 note=64 velocity=82 time=0
EXTRACT: note_on channel=9 note=35 velocity=58 time=0
EXTRACT: note_on channel=9 note=38 velocity=58 time=0
EXTRACT: note_on channel=10 note=65 velocity=0 time=0
EXTRACT: note_on channel=10 note=64 velocity=78 time=0
EXTRACT: note_on channel=11 note=65 velocity=0 time=0
EXTRACT: note_on channel=11 note=64 velocity=78 time=0
EXTRACT: note_on channel=9 note=38 velocity=0 time=0.005376341666666667
EXTRACT: note_on channel=9 note=35 velocity=0 time=0
EXTRACT: note_on channel=3 note=64 velocity=51 time=0.005376341666666667
EXTRACT: note_on channel=1 note=43 velocity=0 time=0.026881708333333334
EXTRACT: note_on channel=3 note=60 velocity=57 time=0.005376341666666667
EXTRACT: note_on channel=3 note=53 velocity=44 time=0
EXTRACT: note_on channel=3 note=38 velocity=44 time=0
EXTRACT: note_on channel=3 note=60 velocity=0 time=0.16666659166666667
EXTRACT: note_on channel=3 note=64 velocity=0 time=0.026881708333333334
EXTRACT: note_on channel=3 note=53 velocity=0 time=0
EXTRACT: note_on channel=4 note=64 velocity=0 time=0
EXTRACT: note_on channel=4 note=62 velocity=85 time=0
EXTRACT: note_on channel=5 note=64 velocity=0 time=0
EXTRACT: note_on channel=5 note=62 velocity=82 time=0
EXTRACT: note_on channel=9 note=38 velocity=38 time=0
EXTRACT: note_on channel=10 note=64 velocity=0 time=0
EXTRACT: note_on channel=10 note=62 velocity=78 time=0
EXTRACT: note_on channel=11 note=64 velocity=0 time=0
EXTRACT: note_on channel=11 note=62 velocity=78 time=0
EXTRACT: note_on channel=9 note=38 velocity=0 time=0.005376341666666667
EXTRACT: control_change channel=3 control=64 value=127 time=0.005376341666666667
EXTRACT: note_on channel=2 note=65 velocity=58 time=0.03763439166666667
EXTRACT: note_on channel=2 note=62 velocity=58 time=0
EXTRACT: note_on channel=2 note=60 velocity=58 time=0
EXTRACT: note_on channel=2 note=69 velocity=58 time=0
EXTRACT: note_on channel=3 note=64 velocity=50 time=0
EXTRACT: note_on channel=3 note=60 velocity=56 time=0
EXTRACT: note_on channel=3 note=53 velocity=40 time=0.021505366666666668
EXTRACT: note_on channel=3 note=60 velocity=0 time=0.16666659166666667
EXTRACT: note_on channel=3 note=53 velocity=0 time=0.043010733333333336
EXTRACT: note_on channel=3 note=64 velocity=0 time=0
EXTRACT: note_on channel=2 note=69 velocity=0 time=0.016129025
EXTRACT: note_on channel=2 note=65 velocity=0 time=0
EXTRACT: note_on channel=2 note=62 velocity=0 time=0
EXTRACT: note_on channel=2 note=60 velocity=0 time=0
EXTRACT: note_on channel=4 note=62 velocity=0 time=0
EXTRACT: note_on channel=4 note=60 velocity=85 time=0
EXTRACT: note_on channel=5 note=62 velocity=0 time=0
EXTRACT: note_on channel=5 note=60 velocity=82 time=0
EXTRACT: note_on channel=9 note=38 velocity=48 time=0
EXTRACT: note_on channel=9 note=42 velocity=48 time=0
EXTRACT: note_on channel=10 note=62 velocity=0 time=0
EXTRACT: note_on channel=10 note=60 velocity=78 time=0
EXTRACT: note_on channel=11 note=62 velocity=0 time=0
EXTRACT: note_on channel=11 note=60 velocity=78 time=0
EXTRACT: note_on channel=9 note=42 velocity=0 time=0.005376341666666667
EXTRACT: note_on channel=9 note=38 velocity=0 time=0
EXTRACT: note_on channel=1 note=38 velocity=0 time=0.03763439166666667
EXTRACT: note_on channel=3 note=38 velocity=0 time=0.13978488333333333
EXTRACT: note_on channel=1 note=38 velocity=76 time=0
EXTRACT: note_on channel=4 note=60 velocity=0 time=0
EXTRACT: note_on channel=4 note=60 velocity=85 time=0
EXTRACT: note_on channel=5 note=60 velocity=0 time=0
EXTRACT: note_on channel=5 note=60 velocity=82 time=0
EXTRACT: note_on channel=9 note=38 velocity=58 time=0
EXTRACT: note_on channel=10 note=60 velocity=0 time=0
EXTRACT: note_on channel=10 note=60 velocity=78 time=0
EXTRACT: note_on channel=11 note=60 velocity=0 time=0
EXTRACT: note_on channel=11 note=60 velocity=78 time=0
EXTRACT: note_on channel=9 note=38 velocity=0 time=0.005376341666666667
EXTRACT: note_on channel=3 note=53 velocity=50 time=0.021505366666666668
EXTRACT: note_on channel=3 note=64 velocity=59 time=0
EXTRACT: note_on channel=3 note=60 velocity=65 time=0.010752683333333334
EXTRACT: control_change channel=3 control=64 value=0 time=0.16666659166666667
EXTRACT: note_on channel=1 note=43 velocity=75 time=0
EXTRACT: note_on channel=4 note=60 velocity=0 time=0
EXTRACT: note_on channel=4 note=62 velocity=85 time=0
EXTRACT: note_on channel=5 note=60 velocity=0 time=0
EXTRACT: note_on channel=5 note=53 velocity=82 time=0
EXTRACT: note_on channel=5 note=57 velocity=82 time=0
EXTRACT: note_on channel=5 note=60 velocity=82 time=0
EXTRACT: note_on channel=5 note=62 velocity=82 time=0
EXTRACT: note_on channel=7 note=43 velocity=0 time=0
EXTRACT: note_on channel=7 note=31 velocity=0 time=0
EXTRACT: note_on channel=7 note=31 velocity=85 time=0
EXTRACT: note_on channel=9 note=35 velocity=58 time=0
EXTRACT: note_on channel=9 note=38 velocity=50 time=0
EXTRACT: note_on channel=10 note=60 velocity=0 time=0
EXTRACT: note_on channel=10 note=53 velocity=78 time=0
EXTRACT: note_on channel=10 note=57 velocity=78 time=0
EXTRACT: note_on channel=10 note=60 velocity=78 time=0
EXTRACT: note_on channel=10 note=62 velocity=78 time=0
EXTRACT: note_on channel=11 note=60 velocity=0 time=0
EXTRACT: note_on channel=11 note=62 velocity=78 time=0
EXTRACT: note_on channel=9 note=38 velocity=0 time=0.005376341666666667
EXTRACT: note_on channel=9 note=35 velocity=0 time=0
EXTRACT: note_on channel=2 note=65 velocity=53 time=0.021505366666666668
EXTRACT: note_on channel=2 note=62 velocity=53 time=0
EXTRACT: note_on channel=2 note=60 velocity=53 time=0
EXTRACT: note_on channel=2 note=69 velocity=53 time=0
EXTRACT: note_on channel=3 note=43 velocity=50 time=0.005376341666666667
EXTRACT: note_on channel=1 note=38 velocity=0 time=0.03763439166666667
EXTRACT: note_on channel=3 note=60 velocity=0 time=0.005376341666666667
EXTRACT: note_on channel=3 note=53 velocity=0 time=0.03225805
EXTRACT: note_on channel=3 note=64 velocity=0 time=0.021505366666666668
EXTRACT: control_change channel=3 control=64 value=127 time=0.11290317500000001
EXTRACT: note_on channel=4 note=62 velocity=0 time=0.080645125
EXTRACT: note_on channel=4 note=62 velocity=85 time=0
EXTRACT: note_on channel=5 note=62 velocity=0 time=0
EXTRACT: note_on channel=5 note=53 velocity=0 time=0
EXTRACT: note_on channel=5 note=57 velocity=0 time=0
EXTRACT: note_on channel=5 note=60 velocity=0 time=0
EXTRACT: note_on channel=5 note=53 velocity=82 time=0
EXTRACT: note_on channel=5 note=57 velocity=82 time=0
EXTRACT: note_on channel=5 note=60 velocity=82 time=0
EXTRACT: note_on channel=5 note=62 velocity=82 time=0
EXTRACT: note_on channel=9 note=38 velocity=38 time=0
EXTRACT: note_on channel=10 note=62 velocity=0 time=0
EXTRACT: note_on channel=10 note=53 velocity=0 time=0
EXTRACT: note_on channel=10 note=57 velocity=0 time=0
EXTRACT: note_on channel=10 note=60 velocity=0 time=0
EXTRACT: note_on channel=10 note=53 velocity=78 time=0
EXTRACT: note_on channel=10 note=57 velocity=78 time=0
EXTRACT: note_on channel=10 note=60 velocity=78 time=0
EXTRACT: note_on channel=10 note=62 velocity=78 time=0
EXTRACT: note_on channel=11 note=62 velocity=0 time=0
EXTRACT: note_on channel=11 note=62 velocity=78 time=0
EXTRACT: note_on channel=9 note=38 velocity=0 time=0.005376341666666667
EXTRACT: note_on channel=9 note=38 velocity=58 time=0.3172041583333334
EXTRACT: note_on channel=9 note=42 velocity=48 time=0
EXTRACT: note_on channel=9 note=42 velocity=0 time=0.005376341666666667
EXTRACT: note_on channel=9 note=38 velocity=0 time=0
EXTRACT: note_on channel=3 note=64 velocity=52 time=0.016129025
EXTRACT: note_on channel=3 note=60 velocity=49 time=0.010752683333333334
EXTRACT: note_on channel=3 note=53 velocity=39 time=0
EXTRACT: note_on channel=2 note=69 velocity=0 time=0.016129025
EXTRACT: note_on channel=2 note=65 velocity=0 time=0
EXTRACT: note_on channel=2 note=62 velocity=0 time=0
EXTRACT: note_on channel=2 note=60 velocity=0 time=0
EXTRACT: note_on channel=1 note=43 velocity=0 time=0.08602146666666667
EXTRACT: note_on channel=1 note=43 velocity=80 time=0.18817195833333333
EXTRACT: note_on channel=7 note=31 velocity=0 time=0
EXTRACT: note_on channel=7 note=38 velocity=85 time=0
EXTRACT: note_on channel=9 note=38 velocity=38 time=0
EXTRACT: note_on channel=9 note=38 velocity=0 time=0.005376341666666667
EXTRACT: note_on channel=3 note=53 velocity=0 time=0.010752683333333334
EXTRACT: note_on channel=3 note=60 velocity=0 time=0
EXTRACT: note_on channel=2 note=65 velocity=59 time=0.026881708333333334
EXTRACT: note_on channel=2 note=62 velocity=59 time=0
EXTRACT: note_on channel=2 note=60 velocity=59 time=0
EXTRACT: note_on channel=2 note=69 velocity=59 time=0
EXTRACT: note_on channel=3 note=64 velocity=0 time=0.016129025
EXTRACT: note_on channel=3 note=43 velocity=0 time=0
EXTRACT: note_on channel=7 note=38 velocity=0 time=0.10215049166666668
EXTRACT: note_on channel=7 note=38 velocity=85 time=0
EXTRACT: note_on channel=1 note=38 velocity=74 time=0.16129025
EXTRACT: note_on channel=9 note=35 velocity=58 time=0
EXTRACT: note_on channel=9 note=38 velocity=58 time=0
EXTRACT: note_on channel=9 note=38 velocity=0 time=0.005376341666666667
EXTRACT: note_on channel=9 note=35 velocity=0 time=0
EXTRACT: note_on channel=1 note=43 velocity=0 time=0.016129025
EXTRACT: note_on channel=3 note=38 velocity=53 time=0.005376341666666667
EXTRACT: control_change channel=3 control=64 value=0 time=0.043010733333333336
EXTRACT: note_on channel=7 note=38 velocity=0 time=0.25268805833333335
EXTRACT: note_on channel=7 note=43 velocity=85 time=0
EXTRACT: note_on channel=9 note=38 velocity=38 time=0
EXTRACT: note_on channel=3 note=64 velocity=51 time=0.005376341666666667
EXTRACT: note_on channel=3 note=53 velocity=38 time=0
EXTRACT: note_on channel=9 note=38 velocity=0 time=0
EXTRACT: note_on channel=3 note=60 velocity=60 time=0.010752683333333334
EXTRACT: control_change channel=3 control=64 value=127 time=0.13978488333333333
EXTRACT: note_on channel=7 note=43 velocity=0 time=0.005376341666666667
EXTRACT: note_on channel=7 note=43 velocity=85 time=0
EXTRACT: note_on channel=1 note=38 velocity=0 time=0.16129025
EXTRACT: note_on channel=1 note=43 velocity=83 time=0
EXTRACT: note_on channel=9 note=38 velocity=48 time=0
EXTRACT: note_on channel=9 note=42 velocity=48 time=0
EXTRACT: note_on channel=9 note=42 velocity=0 time=0.005376341666666667
EXTRACT: note_on channel=9 note=38 velocity=0 time=0
EXTRACT: note_on channel=3 note=38 velocity=0 time=0.1827956166666667
EXTRACT: note_on channel=2 note=69 velocity=0 time=0.10752683333333334
EXTRACT: note_on channel=2 note=65 velocity=0 time=0
EXTRACT: note_on channel=2 note=62 velocity=0 time=0
EXTRACT: note_on channel=2 note=60 velocity=0 time=0
EXTRACT: note_on channel=7 note=43 velocity=0 time=0.026881708333333334
EXTRACT: note_on channel=7 note=38 velocity=85 time=0
EXTRACT: note_on channel=9 note=38 velocity=58 time=0
EXTRACT: note_on channel=9 note=38 velocity=0 time=0.005376341666666667
EXTRACT: control_change channel=3 control=64 value=0 time=0.10752683333333334
EXTRACT: note_on channel=3 note=64 velocity=0 time=0.08602146666666667
EXTRACT: note_on channel=3 note=60 velocity=0 time=0.010752683333333334
EXTRACT: note_on channel=3 note=53 velocity=0 time=0.005376341666666667
EXTRACT: note_on channel=4 note=62 velocity=0 time=0.016129025
EXTRACT: note_on channel=11 note=62 velocity=0 time=0
EXTRACT: note_on channel=1 note=43 velocity=0 time=0.03225805
EXTRACT: note_on channel=1 note=43 velocity=77 time=0
EXTRACT: note_on channel=4 note=65 velocity=85 time=0
EXTRACT: note_on channel=5 note=62 velocity=0 time=0
EXTRACT: note_on channel=5 note=53 velocity=0 time=0
EXTRACT: note_on channel=5 note=57 velocity=0 time=0
EXTRACT: note_on channel=5 note=60 velocity=0 time=0
EXTRACT: note_on channel=5 note=57 velocity=82 time=0
EXTRACT: note_on channel=5 note=60 velocity=82 time=0
EXTRACT: note_on channel=5 note=62 velocity=82 time=0
EXTRACT: note_on channel=5 note=65 velocity=82 time=0
EXTRACT: note_on channel=7 note=38 velocity=0 time=0
EXTRACT: note_on channel=7 note=31 velocity=85 time=0
EXTRACT: note_on channel=7 note=43 velocity=85 time=0
EXTRACT: note_on channel=9 note=35 velocity=58 time=0
EXTRACT: note_on channel=9 note=38 velocity=50 time=0
EXTRACT: note_on channel=10 note=62 velocity=0 time=0
EXTRACT: note_on channel=10 note=53 velocity=0 time=0
EXTRACT: note_on channel=10 note=57 velocity=0 time=0
EXTRACT: note_on channel=10 note=60 velocity=0 time=0
EXTRACT: note_on channel=10 note=57 velocity=78 time=0
EXTRACT: note_on channel=10 note=60 velocity=78 time=0
EXTRACT: note_on channel=10 note=62 velocity=78 time=0
EXTRACT: note_on channel=10 note=65 velocity=78 time=0
EXTRACT: note_on channel=11 note=65 velocity=78 time=0
EXTRACT: note_on channel=9 note=38 velocity=0 time=0.005376341666666667
EXTRACT: note_on channel=9 note=35 velocity=0 time=0
EXTRACT: note_on channel=2 note=65 velocity=63 time=0.005376341666666667
EXTRACT: note_on channel=2 note=62 velocity=63 time=0
EXTRACT: note_on channel=2 note=60 velocity=63 time=0
EXTRACT: note_on channel=2 note=69 velocity=63 time=0
EXTRACT: note_on channel=3 note=43 velocity=50 time=0
EXTRACT: note_on channel=3 note=60 velocity=70 time=0.005376341666666667
EXTRACT: note_on channel=3 note=53 velocity=48 time=0
EXTRACT: note_on channel=3 note=64 velocity=70 time=0.016129025
EXTRACT: note_on channel=2 note=69 velocity=0 time=0.1827956166666667
EXTRACT: note_on channel=2 note=65 velocity=0 time=0
EXTRACT: note_on channel=2 note=62 velocity=0 time=0
EXTRACT: note_on channel=2 note=60 velocity=0 time=0
EXTRACT: control_change channel=3 control=64 value=127 time=0.021505366666666668
EXTRACT: note_on channel=3 note=60 velocity=0 time=0.03763439166666667
EXTRACT: note_on channel=3 note=53 velocity=0 time=0.03225805
EXTRACT: note_on channel=3 note=64 velocity=0 time=0.005376341666666667
EXTRACT: note_on channel=4 note=65 velocity=0 time=0
EXTRACT: note_on channel=4 note=65 velocity=85 time=0
EXTRACT: note_on channel=5 note=65 velocity=0 time=0
EXTRACT: note_on channel=5 note=57 velocity=0 time=0
EXTRACT: note_on channel=5 note=60 velocity=0 time=0
EXTRACT: note_on channel=5 note=62 velocity=0 time=0
EXTRACT: note_on channel=5 note=65 velocity=82 time=0
EXTRACT: note_on channel=9 note=38 velocity=38 time=0
EXTRACT: note_on channel=10 note=65 velocity=0 time=0
EXTRACT: note_on channel=10 note=57 velocity=0 time=0
EXTRACT: note_on channel=10 note=60 velocity=0 time=0
EXTRACT: note_on channel=10 note=62 velocity=0 time=0
EXTRACT: note_on channel=10 note=65 velocity=78 time=0
EXTRACT: note_on channel=11 note=65 velocity=0 time=0
EXTRACT: note_on channel=11 note=65 velocity=78 time=0
EXTRACT: note_on channel=9 note=38 velocity=0 time=0.005376341666666667
EXTRACT: note_on channel=4 note=65 velocity=0 time=0
EXTRACT: note_on channel=4 note=65 velocity=85 time=0
EXTRACT: note_on channel=5 note=65 velocity=0 time=0
EXTRACT: note_on channel=5 note=65 velocity=82 time=0
EXTRACT: note_on channel=10 note=65 velocity=0 time=0
EXTRACT: note_on channel=10 note=65 velocity=78 time=0
EXTRACT: note_on channel=11 note=65 velocity=0 time=0
EXTRACT: note_on channel=11 note=65 velocity=78 time=0
EXTRACT: note_on channel=2 note=65 velocity=46 time=0.15053756666666668
EXTRACT: note_on channel=2 note=62 velocity=46 time=0
EXTRACT: note_on channel=2 note=60 velocity=46 time=0
EXTRACT: note_on channel=2 note=69 velocity=46 time=0
EXTRACT: note_on channel=4 note=65 velocity=0 time=0
EXTRACT: note_on channel=4 note=65 velocity=85 time=0
EXTRACT: note_on channel=5 note=65 velocity=0 time=0
EXTRACT: note_on channel=5 note=65 velocity=82 time=0
EXTRACT: note_on channel=9 note=38 velocity=58 time=0
EXTRACT: note_on channel=9 note=42 velocity=48 time=0
EXTRACT: note_on channel=10 note=65 velocity=0 time=0
EXTRACT: note_on channel=10 note=65 velocity=78 time=0
EXTRACT: note_on channel=11 note=65 velocity=0 time=0
EXTRACT: note_on channel=11 note=65 velocity=78 time=0
EXTRACT: note_on channel=9 note=42 velocity=0 time=0.005376341666666667
EXTRACT: note_on channel=9 note=38 velocity=0 time=0
EXTRACT: note_on channel=3 note=53 velocity=49 time=0.005376341666666667
EXTRACT: note_on channel=3 note=60 velocity=59 time=0.010752683333333334
EXTRACT: note_on channel=3 note=64 velocity=54 time=0.010752683333333334
EXTRACT: note_on channel=2 note=69 velocity=0 time=0.18817195833333333
EXTRACT: note_on channel=2 note=65 velocity=0 time=0
EXTRACT: note_on channel=2 note=62 velocity=0 time=0
EXTRACT: note_on channel=2 note=60 velocity=0 time=0
EXTRACT: note_on channel=3 note=60 velocity=0 time=0.010752683333333334
EXTRACT: note_on channel=1 note=43 velocity=0 time=0.010752683333333334
EXTRACT: note_on channel=3 note=53 velocity=0 time=0
EXTRACT: note_on channel=3 note=64 velocity=0 time=0.03225805
EXTRACT: note_on channel=1 note=43 velocity=83 time=0
EXTRACT: note_on channel=4 note=65 velocity=0 time=0
EXTRACT: note_on channel=4 note=67 velocity=85 time=0
EXTRACT: note_on channel=5 note=65 velocity=0 time=0
EXTRACT: note_on channel=5 note=67 velocity=82 time=0
EXTRACT: note_on channel=9 note=38 velocity=38 time=0
EXTRACT: note_on channel=10 note=65 velocity=0 time=0
EXTRACT: note_on channel=10 note=67 velocity=78 time=0
EXTRACT: note_on channel=11 note=65 velocity=0 time=0
EXTRACT: note_on channel=11 note=67 velocity=78 time=0
EXTRACT: note_on channel=9 note=38 velocity=0 time=0.005376341666666667
EXTRACT: note_on channel=3 note=43 velocity=0 time=0.12365585833333334
EXTRACT: control_change channel=3 control=64 value=0 time=0.1344085416666667
EXTRACT: note_on channel=1 note=38 velocity=74 time=0
EXTRACT: note_on channel=4 note=67 velocity=0 time=0
EXTRACT: note_on channel=4 note=65 velocity=85 time=0
EXTRACT: note_on channel=5 note=67 velocity=0 time=0
EXTRACT: note_on channel=5 note=65 velocity=82 time=0
EXTRACT: note_on channel=9 note=35 velocity=58 time=0
EXTRACT: note_on channel=9 note=38 velocity=58 time=0
EXTRACT: note_on channel=10 note=67 velocity=0 time=0
EXTRACT: note_on channel=10 note=65 velocity=78 time=0
EXTRACT: note_on channel=11 note=67 velocity=0 time=0
EXTRACT: note_on channel=11 note=65 velocity=78 time=0
EXTRACT: note_on channel=9 note=38 velocity=0 time=0.005376341666666667
EXTRACT: note_on channel=9 note=35 velocity=0 time=0
EXTRACT: note_on channel=3 note=64 velocity=51 time=0.005376341666666667
EXTRACT: note_on channel=1 note=43 velocity=0 time=0.026881708333333334
EXTRACT: note_on channel=3 note=60 velocity=57 time=0.005376341666666667
EXTRACT: note_on channel=3 note=53 velocity=44 time=0
EXTRACT: note_on channel=3 note=38 velocity=44 time=0
EXTRACT: note_on channel=3 note=60 velocity=0 time=0.16666659166666667
EXTRACT: note_on channel=3 note=64 velocity=0 time=0.026881708333333334
EXTRACT: note_on channel=3 note=53 velocity=0 time=0
EXTRACT: note_on channel=4 note=65 velocity=0 time=0
EXTRACT: note_on channel=4 note=64 velocity=85 time=0
EXTRACT: note_on channel=5 note=65 velocity=0 time=0
EXTRACT: note_on channel=5 note=64 velocity=82 time=0
EXTRACT: note_on channel=9 note=38 velocity=38 time=0
EXTRACT: note_on channel=10 note=65 velocity=0 time=0
EXTRACT: note_on channel=10 note=64 velocity=78 time=0
EXTRACT: note_on channel=11 note=65 velocity=0 time=0
EXTRACT: note_on channel=11 note=64 velocity=78 time=0
EXTRACT: note_on channel=9 note=38 velocity=0 time=0.005376341666666667
EXTRACT: control_change channel=3 control=64 value=127 time=0.005376341666666667
EXTRACT: note_on channel=2 note=65 velocity=58 time=0.03763439166666667
EXTRACT: note_on channel=2 note=62 velocity=58 time=0
EXTRACT: note_on channel=2 note=60 velocity=58 time=0
EXTRACT: note_on channel=2 note=69 velocity=58 time=0
EXTRACT: note_on channel=3 note=64 velocity=50 time=0
EXTRACT: note_on channel=3 note=60 velocity=56 time=0
EXTRACT: note_on channel=3 note=53 velocity=40 time=0.021505366666666668
EXTRACT: note_on channel=3 note=60 velocity=0 time=0.16666659166666667
EXTRACT: note_on channel=3 note=53 velocity=0 time=0.043010733333333336
EXTRACT: note_on channel=3 note=64 velocity=0 time=0
EXTRACT: note_on channel=2 note=69 velocity=0 time=0.016129025
EXTRACT: note_on channel=2 note=65 velocity=0 time=0
EXTRACT: note_on channel=2 note=62 velocity=0 time=0
EXTRACT: note_on channel=2 note=60 velocity=0 time=0
EXTRACT: note_on channel=4 note=64 velocity=0 time=0
EXTRACT: note_on channel=4 note=62 velocity=85 time=0
EXTRACT: note_on channel=5 note=64 velocity=0 time=0
EXTRACT: note_on channel=5 note=62 velocity=82 time=0
EXTRACT: note_on channel=9 note=38 velocity=48 time=0
EXTRACT: note_on channel=9 note=42 velocity=48 time=0
EXTRACT: note_on channel=10 note=64 velocity=0 time=0
EXTRACT: note_on channel=10 note=62 velocity=78 time=0
EXTRACT: note_on channel=11 note=64 velocity=0 time=0
EXTRACT: note_on channel=11 note=62 velocity=78 time=0
EXTRACT: note_on channel=9 note=42 velocity=0 time=0.005376341666666667
EXTRACT: note_on channel=9 note=38 velocity=0 time=0
EXTRACT: note_on channel=1 note=38 velocity=0 time=0.03763439166666667
EXTRACT: note_on channel=3 note=38 velocity=0 time=0.13978488333333333
EXTRACT: note_on channel=1 note=38 velocity=76 time=0
EXTRACT: note_on channel=4 note=62 velocity=0 time=0
EXTRACT: note_on channel=4 note=64 velocity=85 time=0
EXTRACT: note_on channel=5 note=62 velocity=0 time=0
EXTRACT: note_on channel=5 note=64 velocity=82 time=0
EXTRACT: note_on channel=9 note=38 velocity=58 time=0
EXTRACT: note_on channel=10 note=62 velocity=0 time=0
EXTRACT: note_on channel=10 note=64 velocity=78 time=0
EXTRACT: note_on channel=11 note=62 velocity=0 time=0
EXTRACT: note_on channel=11 note=64 velocity=78 time=0
EXTRACT: note_on channel=9 note=38 velocity=0 time=0.005376341666666667
EXTRACT: note_on channel=3 note=53 velocity=50 time=0.021505366666666668
EXTRACT: note_on channel=3 note=64 velocity=59 time=0
EXTRACT: note_on channel=3 note=60 velocity=65 time=0.010752683333333334
EXTRACT: control_change channel=3 control=64 value=0 time=0.16666659166666667
EXTRACT: note_on channel=1 note=43 velocity=75 time=0
EXTRACT: note_on channel=4 note=64 velocity=0 time=0
EXTRACT: note_on channel=4 note=65 velocity=85 time=0
EXTRACT: note_on channel=5 note=64 velocity=0 time=0
EXTRACT: note_on channel=5 note=57 velocity=82 time=0
EXTRACT: note_on channel=5 note=60 velocity=82 time=0
EXTRACT: note_on channel=5 note=62 velocity=82 time=0
EXTRACT: note_on channel=5 note=65 velocity=82 time=0
EXTRACT: note_on channel=7 note=43 velocity=0 time=0
EXTRACT: note_on channel=7 note=31 velocity=0 time=0
EXTRACT: note_on channel=7 note=31 velocity=85 time=0
EXTRACT: note_on channel=9 note=35 velocity=58 time=0
EXTRACT: note_on channel=9 note=38 velocity=50 time=0
EXTRACT: note_on channel=10 note=64 velocity=0 time=0
EXTRACT: note_on channel=10 note=57 velocity=78 time=0
EXTRACT: note_on channel=10 note=60 velocity=78 time=0
EXTRACT: note_on channel=10 note=62 velocity=78 time=0
EXTRACT: note_on channel=10 note=65 velocity=78 time=0
EXTRACT: note_on channel=11 note=64 velocity=0 time=0
EXTRACT: note_on channel=11 note=65 velocity=78 time=0
EXTRACT: note_on channel=9 note=38 velocity=0 time=0.005376341666666667
EXTRACT: note_on channel=9 note=35 velocity=0 time=0
EXTRACT: note_on channel=2 note=65 velocity=53 time=0.021505366666666668
EXTRACT: note_on channel=2 note=62 velocity=53 time=0
EXTRACT: note_on channel=2 note=60 velocity=53 time=0
EXTRACT: note_on channel=2 note=69 velocity=53 time=0
EXTRACT: note_on channel=3 note=43 velocity=50 time=0.005376341666666667
EXTRACT: note_on channel=1 note=38 velocity=0 time=0.03763439166666667
EXTRACT: note_on channel=3 note=60 velocity=0 time=0.005376341666666667
EXTRACT: note_on channel=3 note=53 velocity=0 time=0.03225805
EXTRACT: note_on channel=3 note=64 velocity=0 time=0.021505366666666668
EXTRACT: control_change channel=3 control=64 value=127 time=0.11290317500000001
EXTRACT: note_on channel=4 note=65 velocity=0 time=0
EXTRACT: note_on channel=4 note=65 velocity=85 time=0
EXTRACT: note_on channel=5 note=65 velocity=0 time=0
EXTRACT: note_on channel=5 note=57 velocity=0 time=0
EXTRACT: note_on channel=5 note=60 velocity=0 time=0
EXTRACT: note_on channel=5 note=62 velocity=0 time=0
EXTRACT: note_on channel=5 note=57 velocity=82 time=0
EXTRACT: note_on channel=5 note=60 velocity=82 time=0
EXTRACT: note_on channel=5 note=62 velocity=82 time=0
EXTRACT: note_on channel=5 note=65 velocity=82 time=0
EXTRACT: note_on channel=9 note=38 velocity=38 time=0
EXTRACT: note_on channel=10 note=65 velocity=0 time=0
EXTRACT: note_on channel=10 note=57 velocity=0 time=0
EXTRACT: note_on channel=10 note=60 velocity=0 time=0
EXTRACT: note_on channel=10 note=62 velocity=0 time=0
EXTRACT: note_on channel=10 note=57 velocity=78 time=0
EXTRACT: note_on channel=10 note=60 velocity=78 time=0
EXTRACT: note_on channel=10 note=62 velocity=78 time=0
EXTRACT: note_on channel=10 note=65 velocity=78 time=0
EXTRACT: note_on channel=11 note=65 velocity=0 time=0
EXTRACT: note_on channel=11 note=65 velocity=78 time=0
EXTRACT: note_on channel=9 note=38 velocity=0 time=0.005376341666666667
EXTRACT: note_on channel=9 note=38 velocity=58 time=0.3172041583333334
EXTRACT: note_on channel=9 note=42 velocity=48 time=0
EXTRACT: note_on channel=9 note=42 velocity=0 time=0.005376341666666667
EXTRACT: note_on channel=9 note=38 velocity=0 time=0
EXTRACT: note_on channel=3 note=64 velocity=52 time=0.016129025
EXTRACT: note_on channel=3 note=60 velocity=49 time=0.010752683333333334
EXTRACT: note_on channel=3 note=53 velocity=39 time=0
EXTRACT: note_on channel=2 note=69 velocity=0 time=0.016129025
EXTRACT: note_on channel=2 note=65 velocity=0 time=0
EXTRACT: note_on channel=2 note=62 velocity=0 time=0
EXTRACT: note_on channel=2 note=60 velocity=0 time=0
EXTRACT: note_on channel=1 note=43 velocity=0 time=0.08602146666666667
EXTRACT: note_on channel=1 note=43 velocity=80 time=0.18817195833333333
EXTRACT: note_on channel=7 note=31 velocity=0 time=0
EXTRACT: note_on channel=7 note=38 velocity=85 time=0
EXTRACT: note_on channel=9 note=38 velocity=38 time=0
EXTRACT: note_on channel=9 note=38 velocity=0 time=0.005376341666666667
EXTRACT: note_on channel=3 note=53 velocity=0 time=0.010752683333333334
EXTRACT: note_on channel=3 note=60 velocity=0 time=0
EXTRACT: note_on channel=2 note=65 velocity=59 time=0.026881708333333334
EXTRACT: note_on channel=2 note=62 velocity=59 time=0
EXTRACT: note_on channel=2 note=60 velocity=59 time=0
EXTRACT: note_on channel=2 note=69 velocity=59 time=0
EXTRACT: note_on channel=3 note=64 velocity=0 time=0.016129025
EXTRACT: note_on channel=3 note=43 velocity=0 time=0
EXTRACT: note_on channel=7 note=38 velocity=0 time=0.10215049166666668
EXTRACT: note_on channel=7 note=38 velocity=85 time=0
EXTRACT: note_on channel=1 note=38 velocity=74 time=0.16129025
EXTRACT: note_on channel=9 note=35 velocity=58 time=0
EXTRACT: note_on channel=9 note=38 velocity=58 time=0
EXTRACT: note_on channel=9 note=38 velocity=0 time=0.005376341666666667
EXTRACT: note_on channel=9 note=35 velocity=0 time=0
EXTRACT: note_on channel=1 note=43 velocity=0 time=0.016129025
EXTRACT: note_on channel=3 note=38 velocity=53 time=0.005376341666666667
EXTRACT: control_change channel=3 control=64 value=0 time=0.043010733333333336
EXTRACT: note_on channel=7 note=38 velocity=0 time=0.25268805833333335
EXTRACT: note_on channel=7 note=43 velocity=85 time=0
EXTRACT: note_on channel=9 note=38 velocity=38 time=0
EXTRACT: note_on channel=3 note=64 velocity=51 time=0.005376341666666667
EXTRACT: note_on channel=3 note=53 velocity=38 time=0
EXTRACT: note_on channel=9 note=38 velocity=0 time=0
EXTRACT: note_on channel=3 note=60 velocity=60 time=0.010752683333333334
EXTRACT: control_change channel=3 control=64 value=127 time=0.13978488333333333
EXTRACT: note_on channel=7 note=43 velocity=0 time=0.005376341666666667
EXTRACT: note_on channel=7 note=43 velocity=85 time=0
EXTRACT: note_on channel=1 note=38 velocity=0 time=0.16129025
EXTRACT: note_on channel=1 note=43 velocity=83 time=0
EXTRACT: note_on channel=9 note=38 velocity=48 time=0
EXTRACT: note_on channel=9 note=42 velocity=48 time=0
EXTRACT: note_on channel=9 note=42 velocity=0 time=0.005376341666666667
EXTRACT: note_on channel=9 note=38 velocity=0 time=0
EXTRACT: note_on channel=3 note=38 velocity=0 time=0.1827956166666667
EXTRACT: note_on channel=2 note=69 velocity=0 time=0.10752683333333334
EXTRACT: note_on channel=2 note=65 velocity=0 time=0
EXTRACT: note_on channel=2 note=62 velocity=0 time=0
EXTRACT: note_on channel=2 note=60 velocity=0 time=0
EXTRACT: note_on channel=7 note=43 velocity=0 time=0.026881708333333334
EXTRACT: note_on channel=7 note=38 velocity=85 time=0
EXTRACT: note_on channel=9 note=38 velocity=58 time=0
EXTRACT: note_on channel=9 note=38 velocity=0 time=0.005376341666666667
EXTRACT: control_change channel=3 control=64 value=0 time=0.10752683333333334
EXTRACT: note_on channel=3 note=64 velocity=0 time=0.08602146666666667
EXTRACT: note_on channel=3 note=60 velocity=0 time=0.010752683333333334
EXTRACT: note_on channel=3 note=53 velocity=0 time=0.005376341666666667
EXTRACT: note_on channel=4 note=65 velocity=0 time=0.016129025
EXTRACT: note_on channel=11 note=65 velocity=0 time=0
EXTRACT: note_on channel=1 note=43 velocity=0 time=0.03225805
EXTRACT: note_on channel=1 note=36 velocity=87 time=0.059139758333333334
EXTRACT: note_on channel=5 note=65 velocity=0 time=0
EXTRACT: note_on channel=5 note=57 velocity=0 time=0
EXTRACT: note_on channel=5 note=60 velocity=0 time=0
EXTRACT: note_on channel=5 note=62 velocity=0 time=0
EXTRACT: note_on channel=7 note=38 velocity=0 time=0
EXTRACT: note_on channel=7 note=36 velocity=85 time=0
EXTRACT: note_on channel=9 note=35 velocity=58 time=0
EXTRACT: note_on channel=9 note=38 velocity=50 time=0
EXTRACT: note_on channel=10 note=65 velocity=0 time=0
EXTRACT: note_on channel=10 note=57 velocity=0 time=0
EXTRACT: note_on channel=10 note=60 velocity=0 time=0
EXTRACT: note_on channel=10 note=62 velocity=0 time=0
EXTRACT: note_on channel=9 note=38 velocity=0 time=0.005376341666666667
EXTRACT: note_on channel=9 note=35 velocity=0 time=0
EXTRACT: note_on channel=2 note=64 velocity=63 time=0.005376341666666667
EXTRACT: note_on channel=2 note=62 velocity=63 time=0
EXTRACT: note_on channel=2 note=59 velocity=63 time=0
EXTRACT: note_on channel=2 note=67 velocity=63 time=0
EXTRACT: note_on channel=3 note=48 velocity=50 time=0
EXTRACT: note_on channel=3 note=59 velocity=70 time=0.005376341666666667
EXTRACT: note_on channel=3 note=52 velocity=48 time=0
EXTRACT: note_on channel=3 note=62 velocity=70 time=0.016129025
EXTRACT: note_on channel=2 note=67 velocity=0 time=0.1827956166666667
EXTRACT: note_on channel=2 note=64 velocity=0 time=0
EXTRACT: note_on channel=2 note=62 velocity=0 time=0
EXTRACT: note_on channel=2 note=59 velocity=0 time=0
EXTRACT: control_change channel=3 control=64 value=127 time=0.021505366666666668
EXTRACT: note_on channel=3 note=59 velocity=0 time=0.03763439166666667
EXTRACT: note_on channel=3 note=52 velocity=0 time=0.03225805
EXTRACT: note_on channel=3 note=62 velocity=0 time=0.005376341666666667
EXTRACT: note_on channel=4 note=64 velocity=85 time=0
EXTRACT: note_on channel=5 note=55 velocity=82 time=0
EXTRACT: note_on channel=5 note=59 velocity=82 time=0
EXTRACT: note_on channel=5 note=64 velocity=82 time=0
EXTRACT: note_on channel=9 note=38 velocity=38 time=0
EXTRACT: note_on channel=10 note=55 velocity=78 time=0
EXTRACT: note_on channel=10 note=59 velocity=78 time=0
EXTRACT: note_on channel=10 note=64 velocity=78 time=0
EXTRACT: note_on channel=11 note=64 velocity=78 time=0
EXTRACT: note_on channel=9 note=38 velocity=0 time=0.005376341666666667
EXTRACT: note_on channel=2 note=64 velocity=46 time=0.30645147500000003
EXTRACT: note_on channel=2 note=62 velocity=46 time=0
EXTRACT: note_on channel=2 note=59 velocity=46 time=0
EXTRACT: note_on channel=2 note=67 velocity=46 time=0
EXTRACT: note_on channel=4 note=64 velocity=0 time=0
EXTRACT: note_on channel=4 note=67 velocity=85 time=0
EXTRACT: note_on channel=5 note=64 velocity=0 time=0
EXTRACT: note_on channel=5 note=59 velocity=0 time=0
EXTRACT: note_on channel=5 note=55 velocity=0 time=0
EXTRACT: note_on channel=5 note=59 velocity=82 time=0
EXTRACT: note_on channel=5 note=64 velocity=82 time=0
EXTRACT: note_on channel=5 note=67 velocity=82 time=0
EXTRACT: note_on channel=9 note=38 velocity=58 time=0
EXTRACT: note_on channel=9 note=42 velocity=48 time=0
EXTRACT: note_on channel=10 note=64 velocity=0 time=0
EXTRACT: note_on channel=10 note=59 velocity=0 time=0
EXTRACT: note_on channel=10 note=55 velocity=0 time=0
EXTRACT: note_on channel=10 note=59 velocity=78 time=0
EXTRACT: note_on channel=10 note=64 velocity=78 time=0
EXTRACT: note_on channel=10 note=67 velocity=78 time=0
EXTRACT: note_on channel=11 note=64 velocity=0 time=0
EXTRACT: note_on channel=11 note=67 velocity=78 time=0
EXTRACT: note_on channel=9 note=42 velocity=0 time=0.005376341666666667
EXTRACT: note_on channel=9 note=38 velocity=0 time=0
EXTRACT: note_on channel=3 note=52 velocity=49 time=0.005376341666666667
EXTRACT: note_on channel=3 note=59 velocity=59 time=0.010752683333333334
EXTRACT: note_on channel=3 note=62 velocity=54 time=0.010752683333333334
EXTRACT: note_on channel=2 note=67 velocity=0 time=0.18817195833333333
EXTRACT: note_on channel=2 note=64 velocity=0 time=0
EXTRACT: note_on channel=2 note=62 velocity=0 time=0
EXTRACT: note_on channel=2 note=59 velocity=0 time=0
EXTRACT: note_on channel=3 note=59 velocity=0 time=0.010752683333333334
EXTRACT: note_on channel=3 note=52 velocity=0 time=0.010752683333333334
EXTRACT: note_on channel=3 note=62 velocity=0 time=0.03225805
EXTRACT: note_on channel=7 note=36 velocity=0 time=0.048387075
EXTRACT: note_on channel=7 note=31 velocity=85 time=0
EXTRACT: note_on channel=9 note=38 velocity=38 time=0
EXTRACT: note_on channel=9 note=38 velocity=0 time=0.005376341666666667
EXTRACT: note_on channel=3 note=48 velocity=0 time=0.12365585833333334
EXTRACT: control_change channel=3 control=64 value=0 time=0.1344085416666667
EXTRACT: note_on channel=1 note=43 velocity=79 time=0.059139758333333334
EXTRACT: note_on channel=7 note=31 velocity=0 time=0
EXTRACT: note_on channel=7 note=36 velocity=85 time=0
EXTRACT: note_on channel=9 note=35 velocity=58 time=0
EXTRACT: note_on channel=9 note=38 velocity=58 time=0
EXTRACT: note_on channel=9 note=38 velocity=0 time=0.005376341666666667
EXTRACT: note_on channel=9 note=35 velocity=0 time=0
EXTRACT: note_on channel=3 note=62 velocity=51 time=0.005376341666666667
EXTRACT: note_on channel=3 note=59 velocity=57 time=0.03225805
EXTRACT: note_on channel=3 note=52 velocity=44 time=0
EXTRACT: note_on channel=3 note=43 velocity=44 time=0
EXTRACT: note_on channel=1 note=36 velocity=0 time=0.11827951666666667
EXTRACT: note_on channel=3 note=59 velocity=0 time=0.048387075
EXTRACT: note_on channel=3 note=62 velocity=0 time=0.026881708333333334
EXTRACT: note_on channel=3 note=52 velocity=0 time=0
EXTRACT: note_on channel=7 note=36 velocity=0 time=0.08602146666666667
EXTRACT: note_on channel=7 note=36 velocity=85 time=0
EXTRACT: note_on channel=9 note=38 velocity=38 time=0
EXTRACT: note_on channel=9 note=38 velocity=0 time=0.005376341666666667
EXTRACT: control_change channel=3 control=64 value=127 time=0.005376341666666667
EXTRACT: note_on channel=2 note=64 velocity=58 time=0.03763439166666667
EXTRACT: note_on channel=2 note=62 velocity=58 time=0
EXTRACT: note_on channel=2 note=59 velocity=58 time=0
EXTRACT: note_on channel=2 note=67 velocity=58 time=0
EXTRACT: note_on channel=3 note=62 velocity=50 time=0
EXTRACT: note_on channel=3 note=59 velocity=56 time=0
EXTRACT: note_on channel=3 note=52 velocity=40 time=0.021505366666666668
EXTRACT: note_on channel=3 note=59 velocity=0 time=0.16666659166666667
EXTRACT: note_on channel=3 note=52 velocity=0 time=0.043010733333333336
EXTRACT: note_on channel=3 note=62 velocity=0 time=0
EXTRACT: note_on channel=2 note=67 velocity=0 time=0.016129025
EXTRACT: note_on channel=2 note=64 velocity=0 time=0
EXTRACT: note_on channel=2 note=62 velocity=0 time=0
EXTRACT: note_on channel=2 note=59 velocity=0 time=0
EXTRACT: note_on channel=9 note=38 velocity=48 time=0.026881708333333334
EXTRACT: note_on channel=9 note=42 velocity=48 time=0
EXTRACT: note_on channel=9 note=42 velocity=0 time=0.005376341666666667
EXTRACT: note_on channel=9 note=38 velocity=0 time=0
EXTRACT: note_on channel=3 note=43 velocity=0 time=0.17741927500000002
EXTRACT: note_on channel=7 note=36 velocity=0 time=0.13978488333333333
EXTRACT: note_on channel=7 note=31 velocity=85 time=0
EXTRACT: note_on channel=9 note=38 velocity=58 time=0
EXTRACT: note_on channel=9 note=38 velocity=0 time=0.005376341666666667
EXTRACT: note_on channel=3 note=52 velocity=50 time=0.021505366666666668
EXTRACT: note_on channel=3 note=62 velocity=59 time=0
EXTRACT: note_on channel=3 note=59 velocity=65 time=0.010752683333333334
EXTRACT: control_change channel=3 control=64 value=0 time=0.16666659166666667
EXTRACT: note_on channel=1 note=36 velocity=74 time=0.11827951666666667
EXTRACT: note_on channel=7 note=31 velocity=0 time=0
EXTRACT: note_on channel=7 note=36 velocity=85 time=0
EXTRACT: note_on channel=9 note=35 velocity=58 time=0
EXTRACT: note_on channel=9 note=38 velocity=50 time=0
EXTRACT: note_on channel=1 note=43 velocity=0 time=0.005376341666666667
EXTRACT: note_on channel=9 note=38 velocity=0 time=0
EXTRACT: note_on channel=9 note=35 velocity=0 time=0
EXTRACT: note_on channel=2 note=64 velocity=53 time=0.021505366666666668
EXTRACT: note_on channel=2 note=62 velocity=53 time=0
EXTRACT: note_on channel=2 note=59 velocity=53 time=0
EXTRACT: note_on channel=2 note=67 velocity=53 time=0
EXTRACT: note_on channel=3 note=48 velocity=50 time=0.005376341666666667
EXTRACT: note_on channel=3 note=59 velocity=0 time=0.043010733333333336
EXTRACT: note_on channel=3 note=52 velocity=0 time=0.03225805
EXTRACT: note_on channel=3 note=62 velocity=0 time=0.021505366666666668
EXTRACT: control_change channel=3 control=64 value=127 time=0.11290317500000001
EXTRACT: note_on channel=9 note=38 velocity=38 time=0.080645125
EXTRACT: note_on channel=9 note=38 velocity=0 time=0.005376341666666667
EXTRACT: note_on channel=9 note=38 velocity=58 time=0.3172041583333334
EXTRACT: note_on channel=9 note=42 velocity=48 time=0
EXTRACT: note_on channel=9 note=42 velocity=0 time=0.005376341666666667
EXTRACT: note_on channel=9 note=38 velocity=0 time=0
EXTRACT: note_on channel=3 note=62 velocity=52 time=0.016129025
EXTRACT: note_on channel=3 note=59 velocity=49 time=0.010752683333333334
EXTRACT: note_on channel=3 note=52 velocity=39 time=0
EXTRACT: note_on channel=2 note=67 velocity=0 time=0.016129025
EXTRACT: note_on channel=2 note=64 velocity=0 time=0
EXTRACT: note_on channel=2 note=62 velocity=0 time=0
EXTRACT: note_on channel=2 note=59 velocity=0 time=0
EXTRACT: note_on channel=7 note=36 velocity=0 time=0.274193425
EXTRACT: note_on channel=7 note=31 velocity=85 time=0
EXTRACT: note_on channel=9 note=38 velocity=38 time=0
EXTRACT: note_on channel=9 note=38 velocity=0 time=0.005376341666666667
EXTRACT: note_on channel=3 note=52 velocity=0 time=0.010752683333333334
EXTRACT: note_on channel=3 note=59 velocity=0 time=0
EXTRACT: note_on channel=2 note=64 velocity=59 time=0.026881708333333334
EXTRACT: note_on channel=2 note=62 velocity=59 time=0
EXTRACT: note_on channel=2 note=59 velocity=59 time=0
EXTRACT: note_on channel=2 note=67 velocity=59 time=0
EXTRACT: note_on channel=3 note=62 velocity=0 time=0.016129025
EXTRACT: note_on channel=3 note=48 velocity=0 time=0
EXTRACT: note_on channel=1 note=43 velocity=70 time=0.2634407416666667
EXTRACT: note_on channel=7 note=31 velocity=0 time=0
EXTRACT: note_on channel=7 note=36 velocity=85 time=0
EXTRACT: note_on channel=9 note=35 velocity=58 time=0
EXTRACT: note_on channel=9 note=38 velocity=58 time=0
EXTRACT: note_on channel=9 note=38 velocity=0 time=0.005376341666666667
EXTRACT: note_on channel=9 note=35 velocity=0 time=0
EXTRACT: note_on channel=3 note=43 velocity=53 time=0.021505366666666668
EXTRACT: control_change channel=3 control=64 value=0 time=0.043010733333333336
EXTRACT: note_on channel=1 note=36 velocity=0 time=0.021505366666666668
EXTRACT: note_on channel=7 note=36 velocity=0 time=0.2311826916666667
EXTRACT: note_on channel=7 note=36 velocity=85 time=0
EXTRACT: note_on channel=9 note=38 velocity=38 time=0
EXTRACT: note_on channel=9 note=48 velocity=50 time=0
EXTRACT: note_on channel=3 note=62 velocity=51 time=0.005376341666666667
EXTRACT: note_on channel=3 note=52 velocity=38 time=0
EXTRACT: note_on channel=9 note=48 velocity=0 time=0
EXTRACT: note_on channel=9 note=38 velocity=0 time=0
EXTRACT: note_on channel=3 note=59 velocity=60 time=0.010752683333333334
EXTRACT: control_change channel=3 control=64 value=127 time=0.13978488333333333
EXTRACT: note_on channel=9 note=38 velocity=48 time=0.16666659166666667
EXTRACT: note_on channel=9 note=42 velocity=48 time=0
EXTRACT: note_on channel=9 note=45 velocity=50 time=0
EXTRACT: note_on channel=9 note=45 velocity=0 time=0.005376341666666667
EXTRACT: note_on channel=9 note=42 velocity=0 time=0
EXTRACT: note_on channel=9 note=38 velocity=0 time=0
EXTRACT: note_on channel=3 note=43 velocity=0 time=0.1827956166666667
EXTRACT: note_on channel=2 note=67 velocity=0 time=0.10752683333333334
EXTRACT: note_on channel=2 note=64 velocity=0 time=0
EXTRACT: note_on channel=2 note=62 velocity=0 time=0
EXTRACT: note_on channel=2 note=59 velocity=0 time=0
EXTRACT: note_on channel=7 note=36 velocity=0 time=0.026881708333333334
EXTRACT: note_on channel=7 note=36 velocity=85 time=0
EXTRACT: note_on channel=9 note=38 velocity=58 time=0
EXTRACT: note_on channel=9 note=41 velocity=50 time=0
EXTRACT: note_on channel=9 note=41 velocity=0 time=0.005376341666666667
EXTRACT: note_on channel=9 note=38 velocity=0 time=0
EXTRACT: control_change channel=3 control=64 value=0 time=0.10752683333333334
EXTRACT: note_on channel=4 note=67 velocity=0 time=0.010752683333333334
EXTRACT: note_on channel=11 note=67 velocity=0 time=0
EXTRACT: note_on channel=7 note=36 velocity=0 time=0.03763439166666667
EXTRACT: note_on channel=7 note=38 velocity=85 time=0
EXTRACT: note_on channel=1 note=43 velocity=0 time=0.026881708333333334
EXTRACT: note_on channel=3 note=62 velocity=0 time=0.010752683333333334
EXTRACT: note_on channel=3 note=59 velocity=0 time=0.010752683333333334
EXTRACT: note_on channel=3 note=52 velocity=0 time=0.005376341666666667
EXTRACT: note_on channel=1 note=43 velocity=87 time=0.10752683333333334
EXTRACT: note_on channel=2 note=64 velocity=56 time=0
EXTRACT: note_on channel=5 note=67 velocity=0 time=0
EXTRACT: note_on channel=5 note=64 velocity=0 time=0
EXTRACT: note_on channel=5 note=59 velocity=0 time=0
EXTRACT: note_on channel=7 note=38 velocity=0 time=0
EXTRACT: note_on channel=7 note=31 velocity=85 time=0
EXTRACT: note_on channel=9 note=49 velocity=40 time=0
EXTRACT: note_on channel=10 note=67 velocity=0 time=0
EXTRACT: note_on channel=10 note=64 velocity=0 time=0
EXTRACT: note_on channel=10 note=59 velocity=0 time=0
EXTRACT: note_on channel=3 note=53 velocity=47 time=0.005376341666666667
EXTRACT: note_on channel=9 note=49 velocity=0 time=0
EXTRACT: note_on channel=3 note=60 velocity=59 time=0.005376341666666667
EXTRACT: note_on channel=3 note=64 velocity=42 time=0.005376341666666667
EXTRACT: note_on channel=2 note=60 velocity=67 time=0.03225805
EXTRACT: note_on channel=2 note=53 velocity=39 time=0
EXTRACT: note_on channel=2 note=65 velocity=61 time=0.09677415
EXTRACT: control_change channel=3 control=64 value=127 time=0.05376341666666667
EXTRACT: note_on channel=2 note=69 velocity=52 time=0.09139780833333334
EXTRACT: note_on channel=3 note=60 velocity=0 time=0.021505366666666668
EXTRACT: note_on channel=4 note=76 velocity=85 time=0
EXTRACT: note_on channel=5 note=65 velocity=82 time=0
EXTRACT: note_on channel=5 note=69 velocity=82 time=0
EXTRACT: note_on channel=5 note=72 velocity=82 time=0
EXTRACT: note_on channel=5 note=76 velocity=82 time=0
EXTRACT: note_on channel=9 note=38 velocity=38 time=0
EXTRACT: note_on channel=10 note=65 velocity=78 time=0
EXTRACT: note_on channel=10 note=69 velocity=78 time=0
EXTRACT: note_on channel=10 note=72 velocity=78 time=0
EXTRACT: note_on channel=10 note=76 velocity=78 time=0
EXTRACT: note_on channel=11 note=76 velocity=78 time=0
EXTRACT: note_on channel=9 note=38 velocity=0 time=0.005376341666666667
EXTRACT: note_on channel=3 note=53 velocity=0 time=0.043010733333333336
EXTRACT: note_on channel=3 note=64 velocity=0 time=0.048387075
EXTRACT: control_change channel=2 control=64 value=127 time=0.0645161
EXTRACT: note_on channel=9 note=38 velocity=58 time=0.16129025
EXTRACT: note_on channel=9 note=42 velocity=48 time=0
EXTRACT: note_on channel=9 note=42 velocity=0 time=0.005376341666666667
EXTRACT: note_on channel=9 note=38 velocity=0 time=0
EXTRACT: note_on channel=4 note=76 velocity=0 time=0.30645147500000003
EXTRACT: note_on channel=11 note=76 velocity=0 time=0
EXTRACT: note_on channel=4 note=67 velocity=85 time=0
EXTRACT: note_on channel=5 note=76 velocity=0 time=0
EXTRACT: note_on channel=5 note=65 velocity=0 time=0
EXTRACT: note_on channel=5 note=69 velocity=0 time=0
EXTRACT: note_on channel=5 note=72 velocity=0 time=0
EXTRACT: note_on channel=5 note=57 velocity=82 time=0
EXTRACT: note_on channel=5 note=60 velocity=82 time=0
EXTRACT: note_on channel=5 note=64 velocity=82 time=0
EXTRACT: note_on channel=5 note=67 velocity=82 time=0
EXTRACT: note_on channel=7 note=31 velocity=0 time=0
EXTRACT: note_on channel=7 note=38 velocity=85 time=0
EXTRACT: note_on channel=9 note=38 velocity=38 time=0
EXTRACT: note_on channel=10 note=76 velocity=0 time=0
EXTRACT: note_on channel=10 note=65 velocity=0 time=0
EXTRACT: note_on channel=10 note=69 velocity=0 time=0
EXTRACT: note_on channel=10 note=72 velocity=0 time=0
EXTRACT: note_on channel=10 note=57 velocity=78 time=0
EXTRACT: note_on channel=10 note=60 velocity=78 time=0
EXTRACT: note_on channel=10 note=64 velocity=78 time=0
EXTRACT: note_on channel=10 note=67 velocity=78 time=0
EXTRACT: note_on channel=11 note=67 velocity=78 time=0
EXTRACT: note_on channel=9 note=38 velocity=0 time=0.005376341666666667
EXTRACT: note_on channel=3 note=64 velocity=52 time=0.03225805
EXTRACT: note_on channel=3 note=60 velocity=59 time=0.021505366666666668
EXTRACT: note_on channel=3 note=53 velocity=40 time=0.010752683333333334
EXTRACT: control_change channel=2 control=0 value=0 time=0.09139780833333334
EXTRACT: note_on channel=3 note=60 velocity=0 time=0.1344085416666667
EXTRACT: note_on channel=1 note=38 velocity=79 time=0.026881708333333334
EXTRACT: note_on channel=7 note=38 velocity=0 time=0
EXTRACT: note_on channel=7 note=43 velocity=85 time=0
EXTRACT: note_on channel=9 note=35 velocity=58 time=0
EXTRACT: note_on channel=9 note=38 velocity=58 time=0
EXTRACT: note_on channel=9 note=38 velocity=0 time=0.005376341666666667
EXTRACT: note_on channel=9 note=35 velocity=0 time=0
EXTRACT: note_on channel=3 note=64 velocity=0 time=0.021505366666666668
EXTRACT: note_on channel=3 note=53 velocity=0 time=0.021505366666666668
EXTRACT: note_on channel=1 note=43 velocity=0 time=0.11290317500000001
EXTRACT: note_on channel=7 note=43 velocity=0 time=0.16129025
EXTRACT: note_on channel=7 note=43 velocity=85 time=0
EXTRACT: note_on channel=9 note=38 velocity=38 time=0
EXTRACT: note_on channel=9 note=38 velocity=0 time=0.005376341666666667
EXTRACT: control_change channel=2 control=0 value=0 time=0.15591390833333335
EXTRACT: note_on channel=7 note=43 velocity=0 time=0.16129025
EXTRACT: note_on channel=7 note=43 velocity=85 time=0
EXTRACT: note_on channel=9 note=38 velocity=48 time=0
EXTRACT: note_on channel=9 note=42 velocity=48 time=0
EXTRACT: note_on channel=3 note=53 velocity=55 time=0.005376341666666667
EXTRACT: note_on channel=3 note=60 velocity=55 time=0
EXTRACT: note_on channel=3 note=64 velocity=61 time=0
EXTRACT: note_on channel=9 note=42 velocity=0 time=0
EXTRACT: note_on channel=9 note=38 velocity=0 time=0
EXTRACT: note_on channel=3 note=60 velocity=0 time=0.19892464166666668
EXTRACT: note_on channel=3 note=53 velocity=0 time=0.06989244166666667
EXTRACT: note_on channel=3 note=64 velocity=0 time=0.010752683333333334
EXTRACT: note_on channel=7 note=43 velocity=0 time=0.03763439166666667
EXTRACT: note_on channel=7 note=38 velocity=85 time=0
EXTRACT: note_on channel=9 note=38 velocity=58 time=0
EXTRACT: note_on channel=9 note=38 velocity=0 time=0.005376341666666667
EXTRACT: control_change channel=2 control=0 value=0 time=0.15591390833333335
EXTRACT: note_on channel=4 note=67 velocity=0 time=0.10215049166666668
EXTRACT: note_on channel=11 note=67 velocity=0 time=0
EXTRACT: note_on channel=1 note=43 velocity=74 time=0
EXTRACT: note_on channel=4 note=64 velocity=85 time=0
EXTRACT: note_on channel=5 note=67 velocity=0 time=0
EXTRACT: note_on channel=5 note=57 velocity=0 time=0
EXTRACT: note_on channel=5 note=60 velocity=0 time=0
EXTRACT: note_on channel=5 note=64 velocity=0 time=0
EXTRACT: note_on channel=5 note=53 velocity=82 time=0
EXTRACT: note_on channel=5 note=57 velocity=82 time=0
EXTRACT: note_on channel=5 note=60 velocity=82 time=0
EXTRACT: note_on channel=5 note=64 velocity=82 time=0
EXTRACT: note_on channel=7 note=38 velocity=0 time=0
EXTRACT: note_on channel=7 note=31 velocity=85 time=0
EXTRACT: note_on channel=9 note=35 velocity=58 time=0
EXTRACT: note_on channel=9 note=38 velocity=50 time=0
EXTRACT: note_on channel=10 note=67 velocity=0 time=0
EXTRACT: note_on channel=10 note=57 velocity=0 time=0
EXTRACT: note_on channel=10 note=60 velocity=0 time=0
EXTRACT: note_on channel=10 note=64 velocity=0 time=0
EXTRACT: note_on channel=10 note=53 velocity=78 time=0
EXTRACT: note_on channel=10 note=57 velocity=78 time=0
EXTRACT: note_on channel=10 note=60 velocity=78 time=0
EXTRACT: note_on channel=10 note=64 velocity=78 time=0
EXTRACT: note_on channel=11 note=64 velocity=78 time=0
EXTRACT: note_on channel=1 note=38 velocity=0 time=0.005376341666666667
EXTRACT: note_on channel=9 note=38 velocity=0 time=0
EXTRACT: note_on channel=9 note=35 velocity=0 time=0
EXTRACT: note_on channel=9 note=38 velocity=38 time=0.3172041583333334
EXTRACT: note_on channel=9 note=38 velocity=0 time=0.005376341666666667
EXTRACT: control_change channel=2 control=0 value=0 time=0.15591390833333335
EXTRACT: control_change channel=2 control=0 value=0 time=0.16129025
EXTRACT: note_on channel=9 note=38 velocity=58 time=0
EXTRACT: note_on channel=9 note=42 velocity=48 time=0
EXTRACT: note_on channel=3 note=64 velocity=51 time=0.005376341666666667
EXTRACT: note_on channel=9 note=42 velocity=0 time=0
EXTRACT: note_on channel=9 note=38 velocity=0 time=0
EXTRACT: note_on channel=3 note=53 velocity=48 time=0.005376341666666667
EXTRACT: note_on channel=3 note=60 velocity=59 time=0
EXTRACT: note_on channel=3 note=60 velocity=0 time=0.22580635000000002
EXTRACT: note_on channel=3 note=64 velocity=0 time=0.03763439166666667
EXTRACT: note_on channel=3 note=53 velocity=0 time=0.026881708333333334
EXTRACT: note_on channel=7 note=31 velocity=0 time=0.021505366666666668
EXTRACT: note_on channel=7 note=38 velocity=85 time=0
EXTRACT: note_on channel=9 note=38 velocity=38 time=0
EXTRACT: note_on channel=9 note=38 velocity=0 time=0.005376341666666667
EXTRACT: note_on channel=4 note=64 velocity=0 time=0.274193425
EXTRACT: note_on channel=11 note=64 velocity=0 time=0
EXTRACT: note_on channel=1 note=38 velocity=70 time=0
EXTRACT: control_change channel=2 control=0 value=0 time=0
EXTRACT: note_on channel=4 note=60 velocity=85 time=0
EXTRACT: note_on channel=5 note=64 velocity=0 time=0
EXTRACT: note_on channel=5 note=53 velocity=0 time=0
EXTRACT: note_on channel=5 note=57 velocity=0 time=0
EXTRACT: note_on channel=5 note=60 velocity=0 time=0
EXTRACT: note_on channel=5 note=53 velocity=82 time=0
EXTRACT: note_on channel=5 note=57 velocity=82 time=0
EXTRACT: note_on channel=5 note=60 velocity=82 time=0
EXTRACT: note_on channel=7 note=38 velocity=0 time=0
EXTRACT: note_on channel=7 note=43 velocity=85 time=0
EXTRACT: note_on channel=9 note=35 velocity=58 time=0
EXTRACT: note_on channel=9 note=38 velocity=58 time=0
EXTRACT: note_on channel=10 note=64 velocity=0 time=0
EXTRACT: note_on channel=10 note=53 velocity=0 time=0
EXTRACT: note_on channel=10 note=57 velocity=0 time=0
EXTRACT: note_on channel=10 note=60 velocity=0 time=0
EXTRACT: note_on channel=10 note=53 velocity=78 time=0
EXTRACT: note_on channel=10 note=57 velocity=78 time=0
EXTRACT: note_on channel=10 note=60 velocity=78 time=0
EXTRACT: note_on channel=11 note=60 velocity=78 time=0
EXTRACT: note_on channel=9 note=38 velocity=0 time=0.005376341666666667
EXTRACT: note_on channel=9 note=35 velocity=0 time=0
EXTRACT: note_on channel=1 note=43 velocity=0 time=0.08602146666666667
EXTRACT: note_on channel=7 note=43 velocity=0 time=0.2311826916666667
EXTRACT: note_on channel=7 note=43 velocity=85 time=0
EXTRACT: note_on channel=9 note=38 velocity=38 time=0
EXTRACT: note_on channel=3 note=64 velocity=45 time=0.005376341666666667
EXTRACT: note_on channel=9 note=38 velocity=0 time=0
EXTRACT: note_on channel=3 note=60 velocity=60 time=0.021505366666666668
EXTRACT: note_on channel=3 note=53 velocity=49 time=0.010752683333333334
EXTRACT: note_on channel=3 note=60 velocity=0 time=0.16666659166666667
EXTRACT: note_on channel=3 note=53 velocity=0 time=0.043010733333333336
EXTRACT: note_on channel=3 note=64 velocity=0 time=0
EXTRACT: note_on channel=4 note=60 velocity=0 time=0.0645161
EXTRACT: note_on channel=11 note=60 velocity=0 time=0
EXTRACT: control_change channel=2 control=0 value=0 time=0.010752683333333334
EXTRACT: note_on channel=5 note=60 velocity=0 time=0
EXTRACT: note_on channel=5 note=57 velocity=0 time=0
EXTRACT: note_on channel=5 note=53 velocity=0 time=0
EXTRACT: note_on channel=7 note=43 velocity=0 time=0
EXTRACT: note_on channel=7 note=43 velocity=85 time=0
EXTRACT: note_on channel=9 note=38 velocity=48 time=0
EXTRACT: note_on channel=9 note=42 velocity=48 time=0
EXTRACT: note_on channel=10 note=60 velocity=0 time=0
EXTRACT: note_on channel=10 note=57 velocity=0 time=0
EXTRACT: note_on channel=10 note=53 velocity=0 time=0
EXTRACT: note_on channel=9 note=42 velocity=0 time=0.005376341666666667
EXTRACT: note_on channel=9 note=38 velocity=0 time=0
EXTRACT: control_change channel=3 control=64 value=0 time=0.24731171666666668
EXTRACT: note_on channel=4 note=55 velocity=85 time=0
EXTRACT: note_on channel=5 note=55 velocity=82 time=0
EXTRACT: note_on channel=9 note=38 velocity=58 time=0
EXTRACT: note_on channel=10 note=55 velocity=78 time=0
EXTRACT: note_on channel=11 note=55 velocity=78 time=0
EXTRACT: note_on channel=9 note=38 velocity=0 time=0.005376341666666667
EXTRACT: note_on channel=1 note=38 velocity=0 time=0.1827956166666667
EXTRACT: note_on channel=1 note=36 velocity=87 time=0
EXTRACT: note_on channel=2 note=69 velocity=0 time=0
EXTRACT: note_on channel=2 note=53 velocity=0 time=0
EXTRACT: note_on channel=2 note=64 velocity=0 time=0
EXTRACT: note_on channel=2 note=60 velocity=0 time=0
EXTRACT: note_on channel=2 note=65 velocity=0 time=0
EXTRACT: control_change channel=2 control=64 value=0 time=0
EXTRACT: note_on channel=4 note=55 velocity=0 time=0
EXTRACT: note_on channel=4 note=64 velocity=85 time=0
EXTRACT: note_on channel=5 note=55 velocity=0 time=0
EXTRACT: note_on channel=5 note=64 velocity=82 time=0
EXTRACT: note_on channel=6 note=55 velocity=82 time=0
EXTRACT: note_on channel=6 note=59 velocity=82 time=0
EXTRACT: note_on channel=7 note=43 velocity=0 time=0
EXTRACT: note_on channel=7 note=36 velocity=85 time=0
EXTRACT: note_on channel=9 note=35 velocity=58 time=0
EXTRACT: note_on channel=9 note=38 velocity=50 time=0
EXTRACT: note_on channel=10 note=55 velocity=0 time=0
EXTRACT: note_on channel=10 note=64 velocity=78 time=0
EXTRACT: note_on channel=11 note=55 velocity=0 time=0
EXTRACT: note_on channel=11 note=64 velocity=78 time=0
EXTRACT: note_on channel=3 note=59 velocity=51 time=0.005376341666666667
EXTRACT: note_on channel=9 note=38 velocity=0 time=0
EXTRACT: note_on channel=9 note=35 velocity=0 time=0
EXTRACT: note_on channel=2 note=64 velocity=55 time=0.005376341666666667
EXTRACT: note_on channel=2 note=62 velocity=55 time=0
EXTRACT: note_on channel=2 note=59 velocity=55 time=0
EXTRACT: note_on channel=2 note=67 velocity=55 time=0
EXTRACT: note_on channel=3 note=62 velocity=45 time=0.026881708333333334
EXTRACT: note_on channel=3 note=52 velocity=41 time=0
EXTRACT: note_on channel=3 note=48 velocity=38 time=0
EXTRACT: control_change channel=3 control=64 value=127 time=0.16666659166666667
EXTRACT: note_on channel=3 note=59 velocity=0 time=0.03225805
EXTRACT: note_on channel=3 note=52 velocity=0 time=0.016129025
EXTRACT: note_on channel=3 note=62 velocity=0 time=0.010752683333333334
EXTRACT: note_on channel=4 note=64 velocity=0 time=0
EXTRACT: note_on channel=4 note=64 velocity=85 time=0
EXTRACT: note_on channel=5 note=64 velocity=0 time=0
EXTRACT: note_on channel=5 note=64 velocity=82 time=0
EXTRACT: note_on channel=9 note=38 velocity=38 time=0
EXTRACT: note_on channel=10 note=64 velocity=0 time=0
EXTRACT: note_on channel=10 note=64 velocity=78 time=0
EXTRACT: note_on channel=11 note=64 velocity=0 time=0
EXTRACT: note_on channel=11 note=64 velocity=78 time=0
EXTRACT: note_on channel=9 note=38 velocity=0 time=0.005376341666666667
EXTRACT: note_on channel=4 note=64 velocity=0 time=0
EXTRACT: note_on channel=4 note=65 velocity=85 time=0
EXTRACT: note_on channel=5 note=64 velocity=0 time=0
EXTRACT: note_on channel=5 note=65 velocity=82 time=0
EXTRACT: note_on channel=9 note=38 velocity=58 time=0
EXTRACT: note_on channel=9 note=42 velocity=48 time=0
EXTRACT: note_on channel=10 note=64 velocity=0 time=0
EXTRACT: note_on channel=10 note=65 velocity=78 time=0
EXTRACT: note_on channel=11 note=64 velocity=0 time=0
EXTRACT: note_on channel=11 note=65 velocity=78 time=0
EXTRACT: note_on channel=9 note=42 velocity=0 time=0.005376341666666667
EXTRACT: note_on channel=9 note=38 velocity=0 time=0
EXTRACT: note_on channel=3 note=62 velocity=53 time=0.005376341666666667
EXTRACT: note_on channel=3 note=59 velocity=63 time=0.005376341666666667
EXTRACT: note_on channel=3 note=52 velocity=47 time=0.010752683333333334
EXTRACT: note_on channel=3 note=59 velocity=0 time=0.16129025
EXTRACT: note_on channel=3 note=52 velocity=0 time=0.03225805
EXTRACT: note_on channel=3 note=62 velocity=0 time=0.021505366666666668
EXTRACT: note_on channel=4 note=65 velocity=0 time=0
EXTRACT: note_on channel=4 note=64 velocity=85 time=0
EXTRACT: note_on channel=5 note=65 velocity=0 time=0
EXTRACT: note_on channel=5 note=64 velocity=82 time=0
EXTRACT: note_on channel=6 note=59 velocity=0 time=0
EXTRACT: note_on channel=6 note=55 velocity=0 time=0
EXTRACT: note_on channel=6 note=55 velocity=82 time=0
EXTRACT: note_on channel=6 note=59 velocity=82 time=0
EXTRACT: note_on channel=9 note=38 velocity=38 time=0
EXTRACT: note_on channel=10 note=65 velocity=0 time=0
EXTRACT: note_on channel=10 note=64 velocity=78 time=0
EXTRACT: note_on channel=11 note=65 velocity=0 time=0
EXTRACT: note_on channel=11 note=64 velocity=78 time=0
EXTRACT: note_on channel=9 note=38 velocity=0 time=0.005376341666666667
EXTRACT: control_change channel=3 control=64 value=0 time=0.1827956166666667
EXTRACT: note_on channel=1 note=43 velocity=79 time=0.1344085416666667
EXTRACT: note_on channel=3 note=62 velocity=50 time=0
EXTRACT: note_on channel=9 note=35 velocity=58 time=0
EXTRACT: note_on channel=9 note=38 velocity=58 time=0
EXTRACT: note_on channel=9 note=38 velocity=0 time=0.005376341666666667
EXTRACT: note_on channel=9 note=35 velocity=0 time=0
EXTRACT: note_on channel=3 note=43 velocity=50 time=0.005376341666666667
EXTRACT: note_on channel=3 note=59 velocity=57 time=0
EXTRACT: note_on channel=3 note=52 velocity=40 time=0
EXTRACT: note_on channel=3 note=48 velocity=0 time=0.059139758333333334
EXTRACT: note_on channel=1 note=36 velocity=0 time=0.09139780833333334
EXTRACT: control_change channel=3 control=64 value=127 time=0.10752683333333334
EXTRACT: note_on channel=7 note=36 velocity=0 time=0.05376341666666667
EXTRACT: note_on channel=7 note=36 velocity=85 time=0
EXTRACT: note_on channel=9 note=38 velocity=38 time=0
EXTRACT: note_on channel=9 note=38 velocity=0 time=0.005376341666666667
EXTRACT: note_on channel=3 note=59 velocity=0 time=0.09139780833333334
EXTRACT: note_on channel=3 note=52 velocity=0 time=0.016129025
EXTRACT: note_on channel=3 note=62 velocity=0 time=0.021505366666666668
EXTRACT: note_on channel=7 note=36 velocity=0 time=0.18817195833333333
EXTRACT: note_on channel=7 note=43 velocity=85 time=0
EXTRACT: note_on channel=9 note=38 velocity=48 time=0
EXTRACT: note_on channel=9 note=42 velocity=48 time=0
EXTRACT: note_on channel=9 note=42 velocity=0 time=0.005376341666666667
EXTRACT: note_on channel=9 note=38 velocity=0 time=0
EXTRACT: note_on channel=4 note=64 velocity=0 time=0.274193425
EXTRACT: note_on channel=11 note=64 velocity=0 time=0
EXTRACT: note_on channel=3 note=43 velocity=0 time=0.005376341666666667
EXTRACT: note_on channel=4 note=55 velocity=85 time=0
EXTRACT: note_on channel=5 note=64 velocity=0 time=0
EXTRACT: note_on channel=5 note=55 velocity=82 time=0
EXTRACT: note_on channel=6 note=59 velocity=0 time=0
EXTRACT: note_on channel=6 note=55 velocity=0 time=0
EXTRACT: note_on channel=7 note=43 velocity=0 time=0
EXTRACT: note_on channel=7 note=36 velocity=85 time=0
EXTRACT: note_on channel=9 note=38 velocity=58 time=0
EXTRACT: note_on channel=10 note=64 velocity=0 time=0
EXTRACT: note_on channel=10 note=55 velocity=78 time=0
EXTRACT: note_on channel=11 note=55 velocity=78 time=0
EXTRACT: note_on channel=9 note=38 velocity=0 time=0.005376341666666667
EXTRACT: note_on channel=3 note=62 velocity=44 time=0.005376341666666667
EXTRACT: note_on channel=2 note=67 velocity=0 time=0.016129025
EXTRACT: note_on channel=2 note=64 velocity=0 time=0
EXTRACT: note_on channel=2 note=62 velocity=0 time=0
EXTRACT: note_on channel=2 note=59 velocity=0 time=0
EXTRACT: note_on channel=3 note=59 velocity=67 time=0
EXTRACT: note_on channel=3 note=52 velocity=24 time=0.026881708333333334
EXTRACT: note_on channel=2 note=52 velocity=49 time=0.03763439166666667
EXTRACT: note_on channel=2 note=55 velocity=47 time=0
EXTRACT: note_on channel=2 note=57 velocity=55 time=0
EXTRACT: note_on channel=2 note=60 velocity=51 time=0
EXTRACT: note_on channel=2 note=67 velocity=59 time=0
EXTRACT: note_on channel=3 note=59 velocity=0 time=0.026881708333333334
EXTRACT: note_on channel=3 note=52 velocity=0 time=0.010752683333333334
EXTRACT: note_on channel=3 note=62 velocity=0 time=0.026881708333333334
EXTRACT: note_on channel=4 note=55 velocity=0 time=0
EXTRACT: note_on channel=4 note=55 velocity=85 time=0
EXTRACT: note_on channel=5 note=55 velocity=0 time=0
EXTRACT: note_on channel=5 note=55 velocity=82 time=0
EXTRACT: note_on channel=10 note=55 velocity=0 time=0
EXTRACT: note_on channel=10 note=55 velocity=78 time=0
EXTRACT: note_on channel=11 note=55 velocity=0 time=0
EXTRACT: note_on channel=11 note=55 velocity=78 time=0
EXTRACT: control_change channel=3 control=64 value=0 time=0.10752683333333334
EXTRACT: note_on channel=1 note=43 velocity=0 time=0
EXTRACT: note_on channel=1 note=36 velocity=86 time=0
EXTRACT: note_on channel=4 note=55 velocity=0 time=0
EXTRACT: note_on channel=4 note=64 velocity=85 time=0
EXTRACT: note_on channel=5 note=55 velocity=0 time=0
EXTRACT: note_on channel=5 note=64 velocity=82 time=0
EXTRACT: note_on channel=6 note=57 velocity=82 time=0
EXTRACT: note_on channel=6 note=60 velocity=82 time=0
EXTRACT: note_on channel=7 note=36 velocity=0 time=0
EXTRACT: note_on channel=7 note=36 velocity=85 time=0
EXTRACT: note_on channel=9 note=35 velocity=58 time=0
EXTRACT: note_on channel=9 note=38 velocity=50 time=0
EXTRACT: note_on channel=10 note=55 velocity=0 time=0
EXTRACT: note_on channel=10 note=64 velocity=78 time=0
EXTRACT: note_on channel=11 note=55 velocity=0 time=0
EXTRACT: note_on channel=11 note=64 velocity=78 time=0
EXTRACT: note_on channel=9 note=38 velocity=0 time=0.005376341666666667
EXTRACT: note_on channel=9 note=35 velocity=0 time=0
EXTRACT: control_change channel=3 control=64 value=127 time=0.16129025
EXTRACT: note_on channel=4 note=64 velocity=0 time=0
EXTRACT: note_on channel=4 note=64 velocity=85 time=0
EXTRACT: note_on channel=5 note=64 velocity=0 time=0
EXTRACT: note_on channel=5 note=64 velocity=82 time=0
EXTRACT: note_on channel=9 note=38 velocity=38 time=0
EXTRACT: note_on channel=10 note=64 velocity=0 time=0
EXTRACT: note_on channel=10 note=64 velocity=78 time=0
EXTRACT: note_on channel=11 note=64 velocity=0 time=0
EXTRACT: note_on channel=11 note=64 velocity=78 time=0
EXTRACT: note_on channel=9 note=38 velocity=0 time=0.005376341666666667
EXTRACT: note_on channel=2 note=64 velocity=56 time=0.0645161
EXTRACT: note_on channel=4 note=64 velocity=0 time=0
EXTRACT: note_on channel=4 note=65 velocity=85 time=0
EXTRACT: note_on channel=5 note=64 velocity=0 time=0
EXTRACT: note_on channel=5 note=65 velocity=82 time=0
EXTRACT: note_on channel=9 note=38 velocity=58 time=0
EXTRACT: note_on channel=9 note=42 velocity=48 time=0
EXTRACT: note_on channel=10 note=64 velocity=0 time=0
EXTRACT: note_on channel=10 note=65 velocity=78 time=0
EXTRACT: note_on channel=11 note=64 velocity=0 time=0
EXTRACT: note_on channel=11 note=65 velocity=78 time=0
EXTRACT: note_on channel=9 note=42 velocity=0 time=0.005376341666666667
EXTRACT: note_on channel=9 note=38 velocity=0 time=0
EXTRACT: note_on channel=3 note=57 velocity=63 time=0.03225805
EXTRACT: note_on channel=3 note=60 velocity=48 time=0
EXTRACT: note_on channel=3 note=52 velocity=37 time=0.03225805
EXTRACT: note_on channel=3 note=57 velocity=0 time=0.209677325
EXTRACT: control_change channel=2 control=64 value=127 time=0
EXTRACT: note_on channel=4 note=65 velocity=0 time=0
EXTRACT: note_on channel=4 note=64 velocity=85 time=0
EXTRACT: note_on channel=5 note=65 velocity=0 time=0
EXTRACT: note_on channel=5 note=64 velocity=82 time=0
EXTRACT: note_on channel=6 note=60 velocity=0 time=0
EXTRACT: note_on channel=6 note=57 velocity=0 time=0
EXTRACT: note_on channel=6 note=57 velocity=82 time=0
EXTRACT: note_on channel=6 note=60 velocity=82 time=0
EXTRACT: note_on channel=9 note=38 velocity=38 time=0
EXTRACT: note_on channel=10 note=65 velocity=0 time=0
EXTRACT: note_on channel=10 note=64 velocity=78 time=0
EXTRACT: note_on channel=11 note=65 velocity=0 time=0
EXTRACT: note_on channel=11 note=64 velocity=78 time=0
EXTRACT: note_on channel=3 note=60 velocity=0 time=0.005376341666666667
EXTRACT: note_on channel=9 note=38 velocity=0 time=0
EXTRACT: note_on channel=3 note=52 velocity=0 time=0.010752683333333334
EXTRACT: note_on channel=1 note=43 velocity=75 time=0.30645147500000003
EXTRACT: note_on channel=9 note=35 velocity=58 time=0
EXTRACT: note_on channel=9 note=38 velocity=58 time=0
EXTRACT: note_on channel=9 note=38 velocity=0 time=0.005376341666666667
EXTRACT: note_on channel=9 note=35 velocity=0 time=0
EXTRACT: note_on channel=1 note=36 velocity=0 time=0.03225805
EXTRACT: note_on channel=4 note=64 velocity=0 time=0.274193425
EXTRACT: note_on channel=11 note=64 velocity=0 time=0
EXTRACT: control_change channel=2 control=0 value=0 time=0
EXTRACT: note_on channel=3 note=60 velocity=51 time=0
EXTRACT: note_on channel=3 note=52 velocity=46 time=0
EXTRACT: note_on channel=4 note=69 velocity=85 time=0
EXTRACT: note_on channel=5 note=64 velocity=0 time=0
EXTRACT: note_on channel=5 note=69 velocity=82 time=0
EXTRACT: note_on channel=6 note=60 velocity=0 time=0
EXTRACT: note_on channel=6 note=57 velocity=0 time=0
EXTRACT: note_on channel=6 note=60 velocity=82 time=0
EXTRACT: note_on channel=6 note=64 velocity=82 time=0
EXTRACT: note_on channel=9 note=38 velocity=38 time=0
EXTRACT: note_on channel=10 note=64 velocity=0 time=0
EXTRACT: note_on channel=10 note=69 velocity=78 time=0
EXTRACT: note_on channel=11 note=69 velocity=78 time=0
EXTRACT: note_on channel=9 note=38 velocity=0 time=0.005376341666666667
EXTRACT: note_on channel=3 note=57 velocity=69 time=0.010752683333333334
EXTRACT: note_on channel=3 note=57 velocity=0 time=0.2311826916666667
EXTRACT: note_on channel=3 note=52 velocity=0 time=0.021505366666666668
EXTRACT: note_on channel=3 note=60 velocity=0 time=0
EXTRACT: note_on channel=9 note=38 velocity=48 time=0.05376341666666667
EXTRACT: note_on channel=9 note=42 velocity=48 time=0
EXTRACT: note_on channel=9 note=42 velocity=0 time=0.005376341666666667
EXTRACT: note_on channel=9 note=38 velocity=0 time=0
EXTRACT: note_on channel=1 note=43 velocity=0 time=0.1344085416666667
EXTRACT: note_on channel=4 note=69 velocity=0 time=0.17204293333333334
EXTRACT: note_on channel=11 note=69 velocity=0 time=0
EXTRACT: note_on channel=1 note=43 velocity=70 time=0
EXTRACT: control_change channel=2 control=0 value=0 time=0
EXTRACT: note_on channel=4 note=67 velocity=85 time=0
EXTRACT: note_on channel=5 note=69 velocity=0 time=0
EXTRACT: note_on channel=5 note=67 velocity=82 time=0
EXTRACT: note_on channel=6 note=64 velocity=0 time=0
EXTRACT: note_on channel=6 note=60 velocity=0 time=0
EXTRACT: note_on channel=7 note=36 velocity=0 time=0
EXTRACT: note_on channel=7 note=43 velocity=85 time=0
EXTRACT: note_on channel=9 note=38 velocity=58 time=0
EXTRACT: note_on channel=10 note=69 velocity=0 time=0
EXTRACT: note_on channel=10 note=67 velocity=78 time=0
EXTRACT: note_on channel=11 note=67 velocity=78 time=0
EXTRACT: note_on channel=9 note=38 velocity=0 time=0.005376341666666667
EXTRACT: note_on channel=4 note=67 velocity=0 time=0.15591390833333335
EXTRACT: note_on channel=4 note=69 velocity=85 time=0
EXTRACT: note_on channel=5 note=67 velocity=0 time=0
EXTRACT: note_on channel=5 note=69 velocity=82 time=0
EXTRACT: note_on channel=10 note=67 velocity=0 time=0
EXTRACT: note_on channel=10 note=69 velocity=78 time=0
EXTRACT: note_on channel=11 note=67 velocity=0 time=0
EXTRACT: note_on channel=11 note=69 velocity=78 time=0
EXTRACT: note_on channel=1 note=43 velocity=0 time=0.11827951666666667
EXTRACT: note_on channel=2 note=67 velocity=0 time=0.03225805
EXTRACT: note_on channel=2 note=60 velocity=0 time=0
EXTRACT: note_on channel=2 note=57 velocity=0 time=0
EXTRACT: note_on channel=2 note=52 velocity=0 time=0
EXTRACT: note_on channel=2 note=55 velocity=0 time=0
EXTRACT: note_on channel=1 note=40 velocity=87 time=0.010752683333333334
EXTRACT: note_on channel=2 note=64 velocity=0 time=0
EXTRACT: control_change channel=2 control=0 value=0 time=0
EXTRACT: control_change channel=2 control=64 value=0 time=0
EXTRACT: control_change channel=3 control=64 value=0 time=0
EXTRACT: note_on channel=3 note=40 velocity=53 time=0
EXTRACT: note_on channel=3 note=59 velocity=45 time=0
EXTRACT: note_on channel=3 note=55 velocity=59 time=0
EXTRACT: note_on channel=3 note=50 velocity=49 time=0
EXTRACT: note_on channel=4 note=69 velocity=0 time=0
EXTRACT: note_on channel=4 note=67 velocity=85 time=0
EXTRACT: note_on channel=5 note=69 velocity=0 time=0
EXTRACT: note_on channel=5 note=67 velocity=82 time=0
EXTRACT: note_on channel=6 note=59 velocity=82 time=0
EXTRACT: note_on channel=6 note=62 velocity=82 time=0
EXTRACT: note_on channel=7 note=43 velocity=0 time=0
EXTRACT: note_on channel=7 note=40 velocity=85 time=0
EXTRACT: note_on channel=9 note=35 velocity=58 time=0
EXTRACT: note_on channel=9 note=38 velocity=50 time=0
EXTRACT: note_on channel=10 note=69 velocity=0 time=0
EXTRACT: note_on channel=10 note=67 velocity=78 time=0
EXTRACT: note_on channel=11 note=69 velocity=0 time=0
EXTRACT: note_on channel=11 note=67 velocity=78 time=0
EXTRACT: note_on channel=9 note=38 velocity=0 time=0.005376341666666667
EXTRACT: note_on channel=9 note=35 velocity=0 time=0
EXTRACT: note_on channel=2 note=64 velocity=63 time=0.005376341666666667
EXTRACT: note_on channel=2 note=62 velocity=63 time=0
EXTRACT: note_on channel=2 note=59 velocity=63 time=0
EXTRACT: note_on channel=2 note=67 velocity=63 time=0
EXTRACT: note_on channel=2 note=67 velocity=0 time=0.20430098333333335
EXTRACT: note_on channel=2 note=64 velocity=0 time=0
EXTRACT: note_on channel=2 note=62 velocity=0 time=0
EXTRACT: note_on channel=2 note=59 velocity=0 time=0
EXTRACT: control_change channel=3 control=64 value=127 time=0.010752683333333334
EXTRACT: note_on channel=3 note=55 velocity=0 time=0.010752683333333334
EXTRACT: note_on channel=3 note=50 velocity=0 time=0.06989244166666667
EXTRACT: note_on channel=3 note=59 velocity=0 time=0
EXTRACT: note_on channel=9 note=38 velocity=38 time=0.016129025
EXTRACT: note_on channel=9 note=38 velocity=0 time=0.005376341666666667
EXTRACT: note_on channel=2 note=64 velocity=46 time=0.30645147500000003
EXTRACT: note_on channel=2 note=62 velocity=46 time=0
EXTRACT: note_on channel=2 note=59 velocity=46 time=0
EXTRACT: note_on channel=2 note=67 velocity=46 time=0
EXTRACT: note_on channel=9 note=38 velocity=58 time=0.010752683333333334
EXTRACT: note_on channel=9 note=42 velocity=48 time=0
EXTRACT: note_on channel=9 note=42 velocity=0 time=0.005376341666666667
EXTRACT: note_on channel=9 note=38 velocity=0 time=0
EXTRACT: note_on channel=3 note=59 velocity=58 time=0.005376341666666667
EXTRACT: note_on channel=3 note=55 velocity=63 time=0.005376341666666667
EXTRACT: note_on channel=3 note=50 velocity=45 time=0.010752683333333334
EXTRACT: note_on channel=2 note=67 velocity=0 time=0.1935483
EXTRACT: note_on channel=2 note=64 velocity=0 time=0
EXTRACT: note_on channel=2 note=62 velocity=0 time=0
EXTRACT: note_on channel=2 note=59 velocity=0 time=0
EXTRACT: note_on channel=3 note=55 velocity=0 time=0.03225805
EXTRACT: note_on channel=3 note=50 velocity=0 time=0.048387075
EXTRACT: note_on channel=9 note=38 velocity=38 time=0.021505366666666668
EXTRACT: note_on channel=3 note=59 velocity=0 time=0.005376341666666667
EXTRACT: note_on channel=9 note=38 velocity=0 time=0
EXTRACT: note_on channel=3 note=40 velocity=0 time=0.11827951666666667
EXTRACT: note_on channel=1 note=35 velocity=79 time=0.19892464166666668
EXTRACT: note_on channel=6 note=62 velocity=0 time=0
EXTRACT: note_on channel=6 note=59 velocity=0 time=0
EXTRACT: note_on channel=6 note=59 velocity=82 time=0
EXTRACT: note_on channel=6 note=62 velocity=82 time=0
EXTRACT: note_on channel=9 note=35 velocity=58 time=0
EXTRACT: note_on channel=9 note=38 velocity=58 time=0
EXTRACT: note_on channel=3 note=35 velocity=55 time=0.005376341666666667
EXTRACT: note_on channel=9 note=38 velocity=0 time=0
EXTRACT: note_on channel=9 note=35 velocity=0 time=0
EXTRACT: control_change channel=3 control=64 value=0 time=0.15053756666666668
EXTRACT: note_on channel=1 note=40 velocity=0 time=0.005376341666666667
EXTRACT: note_on channel=9 note=38 velocity=38 time=0.16129025
EXTRACT: note_on channel=9 note=38 velocity=0 time=0.005376341666666667
EXTRACT: note_on channel=3 note=50 velocity=42 time=0.021505366666666668
EXTRACT: note_on channel=3 note=55 velocity=57 time=0.010752683333333334
EXTRACT: note_on channel=3 note=59 velocity=46 time=0
EXTRACT: note_on channel=2 note=64 velocity=58 time=0.010752683333333334
EXTRACT: note_on channel=2 note=62 velocity=58 time=0
EXTRACT: note_on channel=2 note=59 velocity=58 time=0
EXTRACT: note_on channel=2 note=67 velocity=58 time=0
EXTRACT: note_on channel=7 note=40 velocity=0 time=0.11290317500000001
EXTRACT: note_on channel=7 note=47 velocity=85 time=0
EXTRACT: note_on channel=2 note=67 velocity=0 time=0.1344085416666667
EXTRACT: note_on channel=2 note=64 velocity=0 time=0
EXTRACT: note_on channel=2 note=62 velocity=0 time=0
EXTRACT: note_on channel=2 note=59 velocity=0 time=0
EXTRACT: note_on channel=7 note=47 velocity=0 time=0.026881708333333334
EXTRACT: note_on channel=7 note=52 velocity=85 time=0
EXTRACT: note_on channel=9 note=38 velocity=48 time=0
EXTRACT: note_on channel=9 note=42 velocity=48 time=0
EXTRACT: note_on channel=9 note=42 velocity=0 time=0.005376341666666667
EXTRACT: note_on channel=9 note=38 velocity=0 time=0
EXTRACT: note_on channel=7 note=52 velocity=0 time=0.3172041583333334
EXTRACT: note_on channel=7 note=47 velocity=85 time=0
EXTRACT: note_on channel=9 note=38 velocity=58 time=0
EXTRACT: note_on channel=9 note=38 velocity=0 time=0.005376341666666667
EXTRACT: note_on channel=3 note=55 velocity=0 time=0.016129025
EXTRACT: note_on channel=3 note=50 velocity=0 time=0.048387075
EXTRACT: note_on channel=2 note=65 velocity=63 time=0.021505366666666668
EXTRACT: note_on channel=2 note=61 velocity=63 time=0
EXTRACT: note_on channel=2 note=59 velocity=63 time=0
EXTRACT: note_on channel=2 note=68 velocity=63 time=0
EXTRACT: note_on channel=3 note=35 velocity=0 time=0
EXTRACT: note_on channel=3 note=59 velocity=0 time=0
EXTRACT: note_on channel=4 note=67 velocity=0 time=0.12365585833333334
EXTRACT: note_on channel=11 note=67 velocity=0 time=0
EXTRACT: note_on channel=1 note=35 velocity=0 time=0.10752683333333334
EXTRACT: note_on channel=1 note=37 velocity=86 time=0
EXTRACT: note_on channel=3 note=49 velocity=56 time=0
EXTRACT: note_on channel=4 note=67 velocity=85 time=0
EXTRACT: note_on channel=5 note=67 velocity=0 time=0
EXTRACT: note_on channel=5 note=67 velocity=82 time=0
EXTRACT: note_on channel=6 note=62 velocity=0 time=0
EXTRACT: note_on channel=6 note=59 velocity=0 time=0
EXTRACT: note_on channel=6 note=58 velocity=82 time=0
EXTRACT: note_on channel=6 note=64 velocity=82 time=0
EXTRACT: note_on channel=7 note=47 velocity=0 time=0
EXTRACT: note_on channel=7 note=37 velocity=85 time=0
EXTRACT: note_on channel=9 note=35 velocity=58 time=0
EXTRACT: note_on channel=9 note=38 velocity=50 time=0
EXTRACT: note_on channel=10 note=67 velocity=0 time=0
EXTRACT: note_on channel=10 note=67 velocity=78 time=0
EXTRACT: note_on channel=11 note=67 velocity=78 time=0
EXTRACT: note_on channel=9 note=38 velocity=0 time=0.005376341666666667
EXTRACT: note_on channel=9 note=35 velocity=0 time=0
EXTRACT: note_on channel=2 note=68 velocity=0 time=0.19892464166666668
EXTRACT: note_on channel=2 note=65 velocity=0 time=0
EXTRACT: note_on channel=2 note=61 velocity=0 time=0
EXTRACT: note_on channel=2 note=59 velocity=0 time=0
EXTRACT: note_on channel=9 note=38 velocity=38 time=0.11827951666666667
EXTRACT: note_on channel=9 note=38 velocity=0 time=0.005376341666666667
EXTRACT: control_change channel=3 control=64 value=127 time=0.23655903333333334
EXTRACT: note_on channel=2 note=65 velocity=46 time=0.06989244166666667
EXTRACT: note_on channel=2 note=61 velocity=46 time=0
EXTRACT: note_on channel=2 note=59 velocity=46 time=0
EXTRACT: note_on channel=2 note=68 velocity=46 time=0
EXTRACT: note_on channel=3 note=53 velocity=49 time=0
EXTRACT: note_on channel=3 note=63 velocity=58 time=0
EXTRACT: note_on channel=9 note=38 velocity=58 time=0.010752683333333334
EXTRACT: note_on channel=9 note=42 velocity=48 time=0
EXTRACT: note_on channel=3 note=59 velocity=63 time=0.005376341666666667
EXTRACT: note_on channel=9 note=42 velocity=0 time=0
EXTRACT: note_on channel=9 note=38 velocity=0 time=0
EXTRACT: note_on channel=2 note=68 velocity=0 time=0.21505366666666667
EXTRACT: note_on channel=2 note=65 velocity=0 time=0
EXTRACT: note_on channel=2 note=61 velocity=0 time=0
EXTRACT: note_on channel=2 note=59 velocity=0 time=0
EXTRACT: note_on channel=3 note=59 velocity=0 time=0.06989244166666667
EXTRACT: note_on channel=3 note=53 velocity=0 time=0
EXTRACT: note_on channel=9 note=38 velocity=38 time=0.03225805
EXTRACT: note_on channel=9 note=38 velocity=0 time=0.005376341666666667
EXTRACT: note_on channel=3 note=63 velocity=0 time=0.048387075
EXTRACT: note_on channel=3 note=49 velocity=0 time=0.005376341666666667
EXTRACT: note_on channel=1 note=44 velocity=75 time=0.2634407416666667
EXTRACT: note_on channel=6 note=64 velocity=0 time=0
EXTRACT: note_on channel=6 note=58 velocity=0 time=0
EXTRACT: note_on channel=6 note=61 velocity=82 time=0
EXTRACT: note_on channel=6 note=58 velocity=82 time=0
EXTRACT: note_on channel=9 note=35 velocity=58 time=0
EXTRACT: note_on channel=9 note=38 velocity=58 time=0
EXTRACT: note_on channel=9 note=38 velocity=0 time=0.005376341666666667
EXTRACT: note_on channel=9 note=35 velocity=0 time=0
EXTRACT: note_on channel=1 note=37 velocity=0 time=0.03225805
EXTRACT: note_on channel=3 note=44 velocity=45 time=0
EXTRACT: note_on channel=9 note=38 velocity=38 time=0.28494610833333334
EXTRACT: note_on channel=9 note=38 velocity=0 time=0.005376341666666667
EXTRACT: note_on channel=3 note=63 velocity=55 time=0.010752683333333334
EXTRACT: note_on channel=3 note=59 velocity=55 time=0
EXTRACT: note_on channel=3 note=53 velocity=39 time=0.016129025
EXTRACT: note_on channel=2 note=65 velocity=58 time=0.016129025
EXTRACT: note_on channel=2 note=61 velocity=58 time=0
EXTRACT: note_on channel=2 note=59 velocity=58 time=0
EXTRACT: note_on channel=2 note=68 velocity=58 time=0
EXTRACT: note_on channel=7 note=37 velocity=0 time=0.11290317500000001
EXTRACT: note_on channel=7 note=43 velocity=85 time=0
EXTRACT: note_on channel=4 note=67 velocity=0 time=0.08602146666666667
EXTRACT: note_on channel=11 note=67 velocity=0 time=0
EXTRACT: note_on channel=3 note=59 velocity=0 time=0.026881708333333334
EXTRACT: note_on channel=3 note=53 velocity=0 time=0.016129025
EXTRACT: note_on channel=2 note=68 velocity=0 time=0.005376341666666667
EXTRACT: note_on channel=2 note=65 velocity=0 time=0
EXTRACT: note_on channel=2 note=61 velocity=0 time=0
EXTRACT: note_on channel=2 note=59 velocity=0 time=0
EXTRACT: note_on channel=3 note=63 velocity=0 time=0.021505366666666668
EXTRACT: note_on channel=5 note=67 velocity=0 time=0.005376341666666667
EXTRACT: note_on channel=7 note=43 velocity=0 time=0
EXTRACT: note_on channel=7 note=49 velocity=85 time=0
EXTRACT: note_on channel=9 note=38 velocity=48 time=0
EXTRACT: note_on channel=9 note=42 velocity=48 time=0
EXTRACT: note_on channel=10 note=67 velocity=0 time=0
EXTRACT: note_on channel=9 note=42 velocity=0 time=0.005376341666666667
EXTRACT: note_on channel=9 note=38 velocity=0 time=0
EXTRACT: note_on channel=3 note=44 velocity=0 time=0.03763439166666667
EXTRACT: note_on channel=1 note=44 velocity=0 time=0.09677415
EXTRACT: note_on channel=1 note=44 velocity=70 time=0
EXTRACT: note_on channel=4 note=65 velocity=85 time=0
EXTRACT: note_on channel=5 note=65 velocity=82 time=0
EXTRACT: note_on channel=6 note=58 velocity=0 time=0
EXTRACT: note_on channel=6 note=61 velocity=0 time=0
EXTRACT: note_on channel=7 note=49 velocity=0 time=0
EXTRACT: note_on channel=7 note=37 velocity=85 time=0
EXTRACT: note_on channel=9 note=38 velocity=58 time=0
EXTRACT: note_on channel=10 note=65 velocity=78 time=0
EXTRACT: note_on channel=11 note=65 velocity=78 time=0
EXTRACT: note_on channel=9 note=38 velocity=0 time=0.005376341666666667
EXTRACT: control_change channel=3 control=64 value=0 time=0.11827951666666667
EXTRACT: note_on channel=1 note=44 velocity=0 time=0.15591390833333335
EXTRACT: note_on channel=1 note=38 velocity=82 time=0
EXTRACT: control_change channel=3 control=0 value=0 time=0
EXTRACT: note_on channel=4 note=65 velocity=0 time=0
EXTRACT: note_on channel=4 note=64 velocity=85 time=0
EXTRACT: note_on channel=5 note=65 velocity=0 time=0
EXTRACT: note_on channel=5 note=64 velocity=82 time=0
EXTRACT: note_on channel=6 note=53 velocity=82 time=0
EXTRACT: note_on channel=6 note=57 velocity=82 time=0
EXTRACT: note_on channel=6 note=60 velocity=82 time=0
EXTRACT: note_on channel=7 note=37 velocity=0 time=0
EXTRACT: note_on channel=7 note=38 velocity=85 time=0
EXTRACT: note_on channel=9 note=35 velocity=58 time=0
EXTRACT: note_on channel=9 note=38 velocity=50 time=0
EXTRACT: note_on channel=10 note=65 velocity=0 time=0
EXTRACT: note_on channel=10 note=64 velocity=78 time=0
EXTRACT: note_on channel=11 note=65 velocity=0 time=0
EXTRACT: note_on channel=11 note=64 velocity=78 time=0
EXTRACT: note_on channel=3 note=53 velocity=47 time=0.005376341666666667
EXTRACT: note_on channel=9 note=38 velocity=0 time=0
EXTRACT: note_on channel=9 note=35 velocity=0 time=0
EXTRACT: note_on channel=2 note=74 velocity=62 time=0.005376341666666667
EXTRACT: note_on channel=3 note=60 velocity=59 time=0
EXTRACT: note_on channel=3 note=64 velocity=42 time=0.005376341666666667
EXTRACT: control_change channel=3 control=64 value=127 time=0.1827956166666667
EXTRACT: note_on channel=3 note=60 velocity=0 time=0.11290317500000001
EXTRACT: note_on channel=4 note=64 velocity=0 time=0
EXTRACT: note_on channel=4 note=64 velocity=85 time=0
EXTRACT: note_on channel=5 note=64 velocity=0 time=0
EXTRACT: note_on channel=5 note=64 velocity=82 time=0
EXTRACT: note_on channel=9 note=38 velocity=38 time=0
EXTRACT: note_on channel=10 note=64 velocity=0 time=0
EXTRACT: note_on channel=10 note=64 velocity=78 time=0
EXTRACT: note_on channel=11 note=64 velocity=0 time=0
EXTRACT: note_on channel=11 note=64 velocity=78 time=0
EXTRACT: note_on channel=9 note=38 velocity=0 time=0.005376341666666667
EXTRACT: note_on channel=3 note=53 velocity=0 time=0.043010733333333336
EXTRACT: note_on channel=3 note=64 velocity=0 time=0.048387075
EXTRACT: note_on channel=4 note=64 velocity=0 time=0
EXTRACT: note_on channel=4 note=64 velocity=85 time=0
EXTRACT: note_on channel=5 note=64 velocity=0 time=0
EXTRACT: note_on channel=5 note=64 velocity=82 time=0
EXTRACT: note_on channel=10 note=64 velocity=0 time=0
EXTRACT: note_on channel=10 note=64 velocity=78 time=0
EXTRACT: note_on channel=11 note=64 velocity=0 time=0
EXTRACT: note_on channel=11 note=64 velocity=78 time=0
EXTRACT: control_change channel=2 control=64 value=127 time=0
EXTRACT: note_on channel=2 note=65 velocity=54 time=0
EXTRACT: note_on channel=2 note=62 velocity=54 time=0
EXTRACT: note_on channel=2 note=60 velocity=54 time=0
EXTRACT: note_on channel=2 note=69 velocity=54 time=0
EXTRACT: note_on channel=4 note=64 velocity=0 time=0
EXTRACT: note_on channel=4 note=64 velocity=85 time=0
EXTRACT: note_on channel=5 note=64 velocity=0 time=0
EXTRACT: note_on channel=5 note=64 velocity=82 time=0
EXTRACT: note_on channel=9 note=38 velocity=58 time=0
EXTRACT: note_on channel=9 note=42 velocity=48 time=0
EXTRACT: note_on channel=10 note=64 velocity=0 time=0
EXTRACT: note_on channel=10 note=64 velocity=78 time=0
EXTRACT: note_on channel=11 note=64 velocity=0 time=0
EXTRACT: note_on channel=11 note=64 velocity=78 time=0
EXTRACT: note_on channel=9 note=42 velocity=0 time=0.005376341666666667
EXTRACT: note_on channel=9 note=38 velocity=0 time=0
EXTRACT: note_on channel=2 note=69 velocity=0 time=0.1935483
EXTRACT: note_on channel=2 note=62 velocity=0 time=0
EXTRACT: note_on channel=2 note=60 velocity=0 time=0
EXTRACT: note_on channel=2 note=65 velocity=0 time=0
EXTRACT: note_on channel=4 note=64 velocity=0 time=0
EXTRACT: note_on channel=4 note=65 velocity=85 time=0
EXTRACT: note_on channel=5 note=64 velocity=0 time=0
EXTRACT: note_on channel=5 note=65 velocity=82 time=0
EXTRACT: note_on channel=9 note=38 velocity=38 time=0
EXTRACT: note_on channel=10 note=64 velocity=0 time=0
EXTRACT: note_on channel=10 note=65 velocity=78 time=0
EXTRACT: note_on channel=11 note=64 velocity=0 time=0
EXTRACT: note_on channel=11 note=65 velocity=78 time=0
EXTRACT: note_on channel=9 note=38 velocity=0 time=0.005376341666666667
EXTRACT: note_on channel=3 note=64 velocity=52 time=0.03225805
EXTRACT: note_on channel=3 note=60 velocity=59 time=0.021505366666666668
EXTRACT: note_on channel=3 note=53 velocity=40 time=0.010752683333333334
EXTRACT: note_on channel=1 note=38 velocity=0 time=0.0645161
EXTRACT: note_on channel=3 note=60 velocity=0 time=0.16129025
EXTRACT: note_on channel=1 note=38 velocity=81 time=0
EXTRACT: note_on channel=4 note=65 velocity=0 time=0
EXTRACT: note_on channel=4 note=64 velocity=85 time=0
EXTRACT: note_on channel=5 note=65 velocity=0 time=0
EXTRACT: note_on channel=5 note=64 velocity=82 time=0
EXTRACT: note_on channel=9 note=35 velocity=58 time=0
EXTRACT: note_on channel=9 note=38 velocity=58 time=0
EXTRACT: note_on channel=10 note=65 velocity=0 time=0
EXTRACT: note_on channel=10 note=64 velocity=78 time=0
EXTRACT: note_on channel=11 note=65 velocity=0 time=0
EXTRACT: note_on channel=11 note=64 velocity=78 time=0
EXTRACT: note_on channel=9 note=38 velocity=0 time=0.005376341666666667
EXTRACT: note_on channel=9 note=35 velocity=0 time=0
EXTRACT: note_on channel=3 note=64 velocity=0 time=0.021505366666666668
EXTRACT: note_on channel=3 note=53 velocity=0 time=0.021505366666666668
EXTRACT: note_on channel=2 note=65 velocity=54 time=0
EXTRACT: note_on channel=2 note=62 velocity=54 time=0
EXTRACT: note_on channel=2 note=60 velocity=54 time=0
EXTRACT: note_on channel=2 note=69 velocity=54 time=0
EXTRACT: note_on channel=4 note=64 velocity=0 time=0
EXTRACT: note_on channel=4 note=60 velocity=85 time=0
EXTRACT: note_on channel=5 note=64 velocity=0 time=0
EXTRACT: note_on channel=5 note=60 velocity=82 time=0
EXTRACT: note_on channel=6 note=60 velocity=0 time=0
EXTRACT: note_on channel=6 note=57 velocity=0 time=0
EXTRACT: note_on channel=6 note=53 velocity=0 time=0
EXTRACT: note_on channel=9 note=38 velocity=38 time=0
EXTRACT: note_on channel=10 note=64 velocity=0 time=0
EXTRACT: note_on channel=10 note=60 velocity=78 time=0
EXTRACT: note_on channel=11 note=64 velocity=0 time=0
EXTRACT: note_on channel=11 note=60 velocity=78 time=0
EXTRACT: note_on channel=9 note=38 velocity=0 time=0.005376341666666667
EXTRACT: note_on channel=2 note=69 velocity=0 time=0.17741927500000002
EXTRACT: note_on channel=2 note=62 velocity=0 time=0
EXTRACT: note_on channel=2 note=60 velocity=0 time=0
EXTRACT: note_on channel=2 note=65 velocity=0 time=0
EXTRACT: note_on channel=4 note=60 velocity=0 time=0
EXTRACT: note_on channel=4 note=60 velocity=85 time=0
EXTRACT: note_on channel=5 note=60 velocity=0 time=0
EXTRACT: note_on channel=5 note=60 velocity=82 time=0
EXTRACT: note_on channel=6 note=57 velocity=82 time=0
EXTRACT: note_on channel=6 note=53 velocity=82 time=0
EXTRACT: note_on channel=9 note=38 velocity=48 time=0
EXTRACT: note_on channel=9 note=42 velocity=48 time=0
EXTRACT: note_on channel=10 note=60 velocity=0 time=0
EXTRACT: note_on channel=10 note=60 velocity=78 time=0
EXTRACT: note_on channel=11 note=60 velocity=0 time=0
EXTRACT: note_on channel=11 note=60 velocity=78 time=0
EXTRACT: note_on channel=3 note=53 velocity=55 time=0.005376341666666667
EXTRACT: note_on channel=3 note=60 velocity=55 time=0
EXTRACT: note_on channel=3 note=64 velocity=61 time=0
EXTRACT: note_on channel=9 note=42 velocity=0 time=0
EXTRACT: note_on channel=9 note=38 velocity=0 time=0
EXTRACT: note_on channel=3 note=60 velocity=0 time=0.19892464166666668
EXTRACT: note_on channel=3 note=53 velocity=0 time=0.06989244166666667
EXTRACT: note_on channel=3 note=64 velocity=0 time=0.010752683333333334
EXTRACT: note_on channel=7 note=38 velocity=0 time=0.03763439166666667
EXTRACT: note_on channel=7 note=33 velocity=85 time=0
EXTRACT: note_on channel=9 note=38 velocity=58 time=0
EXTRACT: note_on channel=9 note=38 velocity=0 time=0.005376341666666667
EXTRACT: note_on channel=2 note=74 velocity=0 time=0.021505366666666668
EXTRACT: note_on channel=1 note=38 velocity=0 time=0.026881708333333334
EXTRACT: control_change channel=2 control=64 value=0 time=0.026881708333333334
EXTRACT: note_on channel=2 note=65 velocity=63 time=0.010752683333333334
EXTRACT: note_on channel=2 note=62 velocity=63 time=0
EXTRACT: note_on channel=2 note=60 velocity=63 time=0
EXTRACT: note_on channel=2 note=69 velocity=63 time=0
EXTRACT: note_on channel=4 note=60 velocity=0 time=0.22043000833333334
EXTRACT: note_on channel=11 note=60 velocity=0 time=0
EXTRACT: note_on channel=1 note=43 velocity=77 time=0.010752683333333334
EXTRACT: control_change channel=3 control=64 value=0 time=0
EXTRACT: note_on channel=3 note=43 velocity=56 time=0
EXTRACT: note_on channel=5 note=60 velocity=0 time=0
EXTRACT: note_on channel=6 note=53 velocity=0 time=0
EXTRACT: note_on channel=6 note=57 velocity=0 time=0
EXTRACT: note_on channel=7 note=33 velocity=0 time=0
EXTRACT: note_on channel=7 note=31 velocity=85 time=0
EXTRACT: note_on channel=9 note=35 velocity=58 time=0
EXTRACT: note_on channel=9 note=38 velocity=50 time=0
EXTRACT: note_on channel=10 note=60 velocity=0 time=0
EXTRACT: note_on channel=9 note=38 velocity=0 time=0.005376341666666667
EXTRACT: note_on channel=9 note=35 velocity=0 time=0
EXTRACT: note_on channel=2 note=69 velocity=0 time=0.19892464166666668
EXTRACT: note_on channel=2 note=65 velocity=0 time=0
EXTRACT: note_on channel=2 note=62 velocity=0 time=0
EXTRACT: note_on channel=2 note=60 velocity=0 time=0
EXTRACT: note_on channel=4 note=62 velocity=85 time=0
EXTRACT: note_on channel=5 note=62 velocity=82 time=0
EXTRACT: note_on channel=9 note=38 velocity=38 time=0
EXTRACT: note_on channel=10 note=62 velocity=78 time=0
EXTRACT: note_on channel=11 note=62 velocity=78 time=0
EXTRACT: note_on channel=9 note=38 velocity=0 time=0.005376341666666667
EXTRACT: control_change channel=3 control=64 value=127 time=0.23655903333333334
EXTRACT: note_on channel=2 note=65 velocity=46 time=0.06989244166666667
EXTRACT: note_on channel=2 note=62 velocity=46 time=0
EXTRACT: note_on channel=2 note=60 velocity=46 time=0
EXTRACT: note_on channel=2 note=69 velocity=46 time=0
EXTRACT: note_on channel=3 note=53 velocity=49 time=0
EXTRACT: note_on channel=3 note=62 velocity=58 time=0
EXTRACT: note_on channel=4 note=62 velocity=0 time=0
EXTRACT: note_on channel=4 note=64 velocity=85 time=0
EXTRACT: note_on channel=5 note=62 velocity=0 time=0
EXTRACT: note_on channel=5 note=57 velocity=82 time=0
EXTRACT: note_on channel=5 note=64 velocity=82 time=0
EXTRACT: note_on channel=5 note=53 velocity=82 time=0
EXTRACT: note_on channel=9 note=38 velocity=58 time=0
EXTRACT: note_on channel=9 note=42 velocity=48 time=0
EXTRACT: note_on channel=10 note=62 velocity=0 time=0
EXTRACT: note_on channel=10 note=57 velocity=78 time=0
EXTRACT: note_on channel=10 note=64 velocity=78 time=0
EXTRACT: note_on channel=10 note=53 velocity=78 time=0
EXTRACT: note_on channel=11 note=62 velocity=0 time=0
EXTRACT: note_on channel=11 note=64 velocity=78 time=0
EXTRACT: note_on channel=3 note=60 velocity=63 time=0.005376341666666667
EXTRACT: note_on channel=9 note=42 velocity=0 time=0
EXTRACT: note_on channel=9 note=38 velocity=0 time=0
EXTRACT: note_on channel=2 note=69 velocity=0 time=0.21505366666666667
EXTRACT: note_on channel=2 note=65 velocity=0 time=0
EXTRACT: note_on channel=2 note=62 velocity=0 time=0
EXTRACT: note_on channel=2 note=60 velocity=0 time=0
EXTRACT: note_on channel=1 note=43 velocity=0 time=0.021505366666666668
EXTRACT: note_on channel=3 note=60 velocity=0 time=0.048387075
EXTRACT: note_on channel=3 note=53 velocity=0 time=0
EXTRACT: note_on channel=1 note=43 velocity=83 time=0
EXTRACT: note_on channel=4 note=64 velocity=0 time=0
EXTRACT: note_on channel=4 note=60 velocity=85 time=0
EXTRACT: note_on channel=5 note=53 velocity=0 time=0
EXTRACT: note_on channel=5 note=64 velocity=0 time=0
EXTRACT: note_on channel=5 note=57 velocity=0 time=0
EXTRACT: note_on channel=5 note=60 velocity=82 time=0
EXTRACT: note_on channel=9 note=38 velocity=38 time=0
EXTRACT: note_on channel=10 note=53 velocity=0 time=0
EXTRACT: note_on channel=10 note=64 velocity=0 time=0
EXTRACT: note_on channel=10 note=57 velocity=0 time=0
EXTRACT: note_on channel=10 note=60 velocity=78 time=0
EXTRACT: note_on channel=11 note=64 velocity=0 time=0
EXTRACT: note_on channel=11 note=60 velocity=78 time=0
EXTRACT: note_on channel=9 note=38 velocity=0 time=0.005376341666666667
EXTRACT: note_on channel=3 note=62 velocity=0 time=0.048387075
EXTRACT: note_on channel=3 note=43 velocity=0 time=0.005376341666666667
EXTRACT: note_on channel=1 note=38 velocity=74 time=0
EXTRACT: note_on channel=4 note=60 velocity=0 time=0
EXTRACT: note_on channel=4 note=60 velocity=85 time=0
EXTRACT: note_on channel=5 note=60 velocity=0 time=0
EXTRACT: note_on channel=5 note=53 velocity=82 time=0
EXTRACT: note_on channel=5 note=57 velocity=82 time=0
EXTRACT: note_on channel=5 note=60 velocity=82 time=0
EXTRACT: note_on channel=9 note=35 velocity=58 time=0
EXTRACT: note_on channel=9 note=38 velocity=58 time=0
EXTRACT: note_on channel=10 note=60 velocity=0 time=0
EXTRACT: note_on channel=10 note=53 velocity=78 time=0
EXTRACT: note_on channel=10 note=57 velocity=78 time=0
EXTRACT: note_on channel=10 note=60 velocity=78 time=0
EXTRACT: note_on channel=11 note=60 velocity=0 time=0
EXTRACT: note_on channel=11 note=60 velocity=78 time=0
EXTRACT: note_on channel=9 note=38 velocity=0 time=0.005376341666666667
EXTRACT: note_on channel=9 note=35 velocity=0 time=0
EXTRACT: note_on channel=1 note=43 velocity=0 time=0.03225805
EXTRACT: note_on channel=3 note=38 velocity=45 time=0
EXTRACT: note_on channel=9 note=38 velocity=38 time=0.28494610833333334
EXTRACT: note_on channel=9 note=38 velocity=0 time=0.005376341666666667
EXTRACT: note_on channel=3 note=62 velocity=55 time=0.010752683333333334
EXTRACT: note_on channel=3 note=60 velocity=55 time=0
EXTRACT: note_on channel=3 note=53 velocity=39 time=0.016129025
EXTRACT: note_on channel=2 note=65 velocity=58 time=0.016129025
EXTRACT: note_on channel=2 note=62 velocity=58 time=0
EXTRACT: note_on channel=2 note=60 velocity=58 time=0
EXTRACT: note_on channel=2 note=69 velocity=58 time=0
EXTRACT: note_on channel=3 note=60 velocity=0 time=0.22580635000000002
EXTRACT: note_on channel=3 note=53 velocity=0 time=0.016129025
EXTRACT: note_on channel=2 note=69 velocity=0 time=0.005376341666666667
EXTRACT: note_on channel=2 note=65 velocity=0 time=0
EXTRACT: note_on channel=2 note=62 velocity=0 time=0
EXTRACT: note_on channel=2 note=60 velocity=0 time=0
EXTRACT: note_on channel=3 note=62 velocity=0 time=0.021505366666666668
EXTRACT: note_on channel=9 note=38 velocity=48 time=0.005376341666666667
EXTRACT: note_on channel=9 note=42 velocity=48 time=0
EXTRACT: note_on channel=9 note=42 velocity=0 time=0.005376341666666667
EXTRACT: note_on channel=9 note=38 velocity=0 time=0
EXTRACT: note_on channel=1 note=38 velocity=0 time=0.03763439166666667
EXTRACT: note_on channel=3 note=38 velocity=0 time=0
EXTRACT: note_on channel=4 note=60 velocity=0 time=0.25268805833333335
EXTRACT: note_on channel=11 note=60 velocity=0 time=0
EXTRACT: note_on channel=1 note=38 velocity=76 time=0
EXTRACT: note_on channel=4 note=62 velocity=85 time=0
EXTRACT: note_on channel=5 note=60 velocity=0 time=0
EXTRACT: note_on channel=5 note=57 velocity=0 time=0
EXTRACT: note_on channel=5 note=53 velocity=0 time=0
EXTRACT: note_on channel=5 note=57 velocity=82 time=0
EXTRACT: note_on channel=5 note=53 velocity=82 time=0
EXTRACT: note_on channel=5 note=62 velocity=82 time=0
EXTRACT: note_on channel=5 note=60 velocity=82 time=0
EXTRACT: note_on channel=7 note=31 velocity=0 time=0
EXTRACT: note_on channel=7 note=31 velocity=85 time=0
EXTRACT: note_on channel=9 note=38 velocity=58 time=0
EXTRACT: note_on channel=10 note=60 velocity=0 time=0
EXTRACT: note_on channel=10 note=57 velocity=0 time=0
EXTRACT: note_on channel=10 note=53 velocity=0 time=0
EXTRACT: note_on channel=10 note=57 velocity=78 time=0
EXTRACT: note_on channel=10 note=53 velocity=78 time=0
EXTRACT: note_on channel=10 note=62 velocity=78 time=0
EXTRACT: note_on channel=10 note=60 velocity=78 time=0
EXTRACT: note_on channel=11 note=62 velocity=78 time=0
EXTRACT: note_on channel=9 note=38 velocity=0 time=0.005376341666666667
EXTRACT: note_on channel=2 note=64 velocity=63 time=0.08602146666666667
EXTRACT: note_on channel=2 note=62 velocity=63 time=0
EXTRACT: note_on channel=2 note=59 velocity=63 time=0
EXTRACT: note_on channel=2 note=67 velocity=63 time=0
EXTRACT: control_change channel=3 control=64 value=0 time=0.03225805
EXTRACT: note_on channel=1 note=38 velocity=0 time=0
EXTRACT: note_on channel=1 note=36 velocity=87 time=0
EXTRACT: control_change channel=3 control=0 value=0 time=0
EXTRACT: note_on channel=4 note=62 velocity=0 time=0
EXTRACT: note_on channel=4 note=57 velocity=85 time=0
EXTRACT: note_on channel=5 note=60 velocity=0 time=0
EXTRACT: note_on channel=5 note=57 velocity=0 time=0
EXTRACT: note_on channel=5 note=53 velocity=0 time=0
EXTRACT: note_on channel=5 note=62 velocity=0 time=0
EXTRACT: note_on channel=5 note=57 velocity=82 time=0
EXTRACT: note_on channel=6 note=52 velocity=82 time=0
EXTRACT: note_on channel=7 note=31 velocity=0 time=0
EXTRACT: note_on channel=7 note=36 velocity=85 time=0
EXTRACT: note_on channel=8 note=62 velocity=75 time=0
EXTRACT: note_on channel=9 note=35 velocity=58 time=0
EXTRACT: note_on channel=9 note=38 velocity=50 time=0
EXTRACT: note_on channel=10 note=60 velocity=0 time=0
EXTRACT: note_on channel=10 note=57 velocity=0 time=0
EXTRACT: note_on channel=10 note=53 velocity=0 time=0
EXTRACT: note_on channel=10 note=62 velocity=0 time=0
EXTRACT: note_on channel=10 note=57 velocity=78 time=0
EXTRACT: note_on channel=11 note=62 velocity=0 time=0
EXTRACT: note_on channel=11 note=57 velocity=78 time=0
EXTRACT: note_on channel=3 note=52 velocity=47 time=0.005376341666666667
EXTRACT: note_on channel=9 note=38 velocity=0 time=0
EXTRACT: note_on channel=9 note=35 velocity=0 time=0
EXTRACT: note_on channel=3 note=59 velocity=59 time=0.005376341666666667
EXTRACT: note_on channel=3 note=62 velocity=42 time=0.005376341666666667
EXTRACT: control_change channel=3 control=64 value=127 time=0.1827956166666667
EXTRACT: note_on channel=2 note=67 velocity=0 time=0.005376341666666667
EXTRACT: note_on channel=2 note=64 velocity=0 time=0
EXTRACT: note_on channel=2 note=62 velocity=0 time=0
EXTRACT: note_on channel=2 note=59 velocity=0 time=0
EXTRACT: note_on channel=3 note=59 velocity=0 time=0.10752683333333334
EXTRACT: note_on channel=9 note=38 velocity=38 time=0.010752683333333334
EXTRACT: note_on channel=9 note=38 velocity=0 time=0.005376341666666667
EXTRACT: note_on channel=3 note=52 velocity=0 time=0.043010733333333336
EXTRACT: note_on channel=3 note=62 velocity=0 time=0.048387075
EXTRACT: note_on channel=2 note=64 velocity=46 time=0.21505366666666667
EXTRACT: note_on channel=2 note=62 velocity=46 time=0
EXTRACT: note_on channel=2 note=59 velocity=46 time=0
EXTRACT: note_on channel=2 note=67 velocity=46 time=0
EXTRACT: note_on channel=4 note=57 velocity=0 time=0
EXTRACT: note_on channel=11 note=57 velocity=0 time=0
EXTRACT: note_on channel=4 note=55 velocity=85 time=0
EXTRACT: note_on channel=5 note=57 velocity=0 time=0
EXTRACT: note_on channel=5 note=55 velocity=82 time=0
EXTRACT: note_on channel=8 note=62 velocity=0 time=0
EXTRACT: note_on channel=8 note=57 velocity=75 time=0
EXTRACT: note_on channel=9 note=38 velocity=58 time=0
EXTRACT: note_on channel=9 note=42 velocity=48 time=0
EXTRACT: note_on channel=10 note=57 velocity=0 time=0
EXTRACT: note_on channel=10 note=55 velocity=78 time=0
EXTRACT: note_on channel=11 note=55 velocity=78 time=0
EXTRACT: note_on channel=9 note=42 velocity=0 time=0.005376341666666667
EXTRACT: note_on channel=9 note=38 velocity=0 time=0
EXTRACT: note_on channel=2 note=67 velocity=0 time=0.21505366666666667
EXTRACT: note_on channel=2 note=64 velocity=0 time=0
EXTRACT: note_on channel=2 note=62 velocity=0 time=0
EXTRACT: note_on channel=2 note=59 velocity=0 time=0
EXTRACT: note_on channel=7 note=36 velocity=0 time=0.10215049166666668
EXTRACT: note_on channel=7 note=31 velocity=85 time=0
EXTRACT: note_on channel=8 note=57 velocity=0 time=0
EXTRACT: note_on channel=8 note=55 velocity=75 time=0
EXTRACT: note_on channel=9 note=38 velocity=38 time=0
EXTRACT: note_on channel=9 note=38 velocity=0 time=0.005376341666666667
EXTRACT: note_on channel=3 note=62 velocity=52 time=0.03225805
EXTRACT: note_on channel=3 note=59 velocity=59 time=0.021505366666666668
EXTRACT: note_on channel=3 note=52 velocity=40 time=0.010752683333333334
EXTRACT: note_on channel=3 note=59 velocity=0 time=0.22580635000000002
EXTRACT: note_on channel=1 note=43 velocity=79 time=0.026881708333333334
EXTRACT: note_on channel=7 note=31 velocity=0 time=0
EXTRACT: note_on channel=7 note=36 velocity=85 time=0
EXTRACT: note_on channel=9 note=35 velocity=58 time=0
EXTRACT: note_on channel=9 note=38 velocity=58 time=0
EXTRACT: note_on channel=9 note=38 velocity=0 time=0.005376341666666667
EXTRACT: note_on channel=9 note=35 velocity=0 time=0
EXTRACT: note_on channel=3 note=62 velocity=0 time=0.021505366666666668
EXTRACT: note_on channel=3 note=52 velocity=0 time=0.021505366666666668
EXTRACT: note_on channel=1 note=36 velocity=0 time=0.11290317500000001
EXTRACT: note_on channel=9 note=38 velocity=38 time=0.16129025
EXTRACT: note_on channel=9 note=38 velocity=0 time=0.005376341666666667
EXTRACT: note_on channel=2 note=64 velocity=58 time=0.043010733333333336
EXTRACT: note_on channel=2 note=62 velocity=58 time=0
EXTRACT: note_on channel=2 note=59 velocity=58 time=0
EXTRACT: note_on channel=2 note=67 velocity=58 time=0
EXTRACT: note_on channel=4 note=55 velocity=0 time=0.2311826916666667
EXTRACT: note_on channel=11 note=55 velocity=0 time=0
EXTRACT: note_on channel=2 note=67 velocity=0 time=0.016129025
EXTRACT: note_on channel=2 note=64 velocity=0 time=0
EXTRACT: note_on channel=2 note=62 velocity=0 time=0
EXTRACT: note_on channel=2 note=59 velocity=0 time=0
EXTRACT: note_on channel=5 note=55 velocity=0 time=0.026881708333333334
EXTRACT: note_on channel=6 note=52 velocity=0 time=0
EXTRACT: note_on channel=6 note=59 velocity=82 time=0
EXTRACT: note_on channel=6 note=64 velocity=82 time=0
EXTRACT: note_on channel=6 note=67 velocity=82 time=0
EXTRACT: note_on channel=9 note=38 velocity=48 time=0
EXTRACT: note_on channel=9 note=42 velocity=48 time=0
EXTRACT: note_on channel=10 note=55 velocity=0 time=0
EXTRACT: note_on channel=3 note=52 velocity=55 time=0.005376341666666667
EXTRACT: note_on channel=3 note=59 velocity=55 time=0
EXTRACT: note_on channel=3 note=62 velocity=61 time=0
EXTRACT: note_on channel=9 note=42 velocity=0 time=0
EXTRACT: note_on channel=9 note=38 velocity=0 time=0
EXTRACT: note_on channel=3 note=59 velocity=0 time=0.19892464166666668
EXTRACT: note_on channel=3 note=52 velocity=0 time=0.06989244166666667
EXTRACT: note_on channel=3 note=62 velocity=0 time=0.010752683333333334
EXTRACT: note_on channel=7 note=36 velocity=0 time=0.03763439166666667
EXTRACT: note_on channel=7 note=31 velocity=85 time=0
EXTRACT: note_on channel=9 note=38 velocity=58 time=0
EXTRACT: note_on channel=9 note=38 velocity=0 time=0.005376341666666667
EXTRACT: note_on channel=1 note=36 velocity=74 time=0.3172041583333334
EXTRACT: note_on channel=6 note=67 velocity=0 time=0
EXTRACT: note_on channel=6 note=64 velocity=0 time=0
EXTRACT: note_on channel=6 note=59 velocity=0 time=0
EXTRACT: note_on channel=6 note=55 velocity=82 time=0
EXTRACT: note_on channel=6 note=59 velocity=82 time=0
EXTRACT: note_on channel=6 note=64 velocity=82 time=0
EXTRACT: note_on channel=7 note=31 velocity=0 time=0
EXTRACT: note_on channel=7 note=36 velocity=85 time=0
EXTRACT: note_on channel=8 note=55 velocity=0 time=0
EXTRACT: note_on channel=9 note=35 velocity=58 time=0
EXTRACT: note_on channel=9 note=38 velocity=50 time=0
EXTRACT: note_on channel=1 note=43 velocity=0 time=0.005376341666666667
EXTRACT: note_on channel=9 note=38 velocity=0 time=0
EXTRACT: note_on channel=9 note=35 velocity=0 time=0
EXTRACT: note_on channel=2 note=64 velocity=53 time=0.021505366666666668
EXTRACT: note_on channel=2 note=62 velocity=53 time=0
EXTRACT: note_on channel=2 note=59 velocity=53 time=0
EXTRACT: note_on channel=2 note=67 velocity=53 time=0
EXTRACT: note_on channel=9 note=38 velocity=38 time=0.2956987916666667
EXTRACT: note_on channel=9 note=38 velocity=0 time=0.005376341666666667
EXTRACT: note_on channel=6 note=64 velocity=0 time=0.3172041583333334
EXTRACT: note_on channel=6 note=59 velocity=0 time=0
EXTRACT: note_on channel=6 note=55 velocity=0 time=0
EXTRACT: note_on channel=9 note=38 velocity=58 time=0
EXTRACT: note_on channel=9 note=42 velocity=48 time=0
EXTRACT: note_on channel=3 note=62 velocity=51 time=0.005376341666666667
EXTRACT: note_on channel=9 note=42 velocity=0 time=0
EXTRACT: note_on channel=9 note=38 velocity=0 time=0
EXTRACT: note_on channel=3 note=52 velocity=48 time=0.005376341666666667
EXTRACT: note_on channel=3 note=59 velocity=59 time=0
EXTRACT: note_on channel=2 note=67 velocity=0 time=0.03763439166666667
EXTRACT: note_on channel=2 note=64 velocity=0 time=0
EXTRACT: note_on channel=2 note=62 velocity=0 time=0
EXTRACT: note_on channel=2 note=59 velocity=0 time=0
EXTRACT: note_on channel=3 note=59 velocity=0 time=0.18817195833333333
EXTRACT: note_on channel=3 note=62 velocity=0 time=0.03763439166666667
EXTRACT: note_on channel=3 note=52 velocity=0 time=0.026881708333333334
EXTRACT: note_on channel=4 note=67 velocity=85 time=0
EXTRACT: note_on channel=5 note=67 velocity=82 time=0
EXTRACT: note_on channel=9 note=38 velocity=38 time=0
EXTRACT: note_on channel=10 note=67 velocity=78 time=0
EXTRACT: note_on channel=11 note=67 velocity=78 time=0
EXTRACT: note_on channel=9 note=38 velocity=0 time=0.005376341666666667
EXTRACT: note_on channel=2 note=64 velocity=59 time=0.03763439166666667
EXTRACT: note_on channel=2 note=62 velocity=59 time=0
EXTRACT: note_on channel=2 note=59 velocity=59 time=0
EXTRACT: note_on channel=2 note=67 velocity=59 time=0
EXTRACT: note_on channel=1 note=43 velocity=70 time=0
EXTRACT: note_on channel=4 note=67 velocity=0 time=0
EXTRACT: note_on channel=4 note=67 velocity=85 time=0
EXTRACT: note_on channel=5 note=67 velocity=0 time=0
EXTRACT: note_on channel=5 note=67 velocity=82 time=0
EXTRACT: note_on channel=6 note=59 velocity=82 time=0
EXTRACT: note_on channel=6 note=64 velocity=82 time=0
EXTRACT: note_on channel=6 note=67 velocity=82 time=0
EXTRACT: note_on channel=9 note=35 velocity=58 time=0
EXTRACT: note_on channel=9 note=38 velocity=58 time=0
EXTRACT: note_on channel=10 note=67 velocity=0 time=0
EXTRACT: note_on channel=10 note=67 velocity=78 time=0
EXTRACT: note_on channel=11 note=67 velocity=0 time=0
EXTRACT: note_on channel=11 note=67 velocity=78 time=0
EXTRACT: note_on channel=9 note=38 velocity=0 time=0.005376341666666667
EXTRACT: note_on channel=9 note=35 velocity=0 time=0
EXTRACT: note_on channel=1 note=36 velocity=0 time=0.08602146666666667
EXTRACT: note_on channel=9 note=38 velocity=38 time=0.2311826916666667
EXTRACT: note_on channel=3 note=62 velocity=45 time=0.005376341666666667
EXTRACT: note_on channel=9 note=38 velocity=0 time=0
EXTRACT: note_on channel=3 note=59 velocity=60 time=0.021505366666666668
EXTRACT: note_on channel=3 note=52 velocity=49 time=0.010752683333333334
EXTRACT: note_on channel=4 note=67 velocity=0 time=0
EXTRACT: note_on channel=4 note=69 velocity=85 time=0
EXTRACT: note_on channel=5 note=67 velocity=0 time=0
EXTRACT: note_on channel=5 note=69 velocity=82 time=0
EXTRACT: note_on channel=10 note=67 velocity=0 time=0
EXTRACT: note_on channel=10 note=69 velocity=78 time=0
EXTRACT: note_on channel=11 note=67 velocity=0 time=0
EXTRACT: note_on channel=11 note=69 velocity=78 time=0
EXTRACT: note_on channel=3 note=59 velocity=0 time=0.09677415
EXTRACT: note_on channel=3 note=52 velocity=0 time=0.043010733333333336
EXTRACT: note_on channel=3 note=62 velocity=0 time=0
EXTRACT: note_on channel=9 note=38 velocity=48 time=0.07526878333333334
EXTRACT: note_on channel=9 note=42 velocity=48 time=0
EXTRACT: note_on channel=9 note=42 velocity=0 time=0.005376341666666667
EXTRACT: note_on channel=9 note=38 velocity=0 time=0
EXTRACT: note_on channel=4 note=69 velocity=0 time=0
EXTRACT: note_on channel=4 note=71 velocity=85 time=0
EXTRACT: note_on channel=5 note=69 velocity=0 time=0
EXTRACT: note_on channel=5 note=71 velocity=82 time=0
EXTRACT: note_on channel=10 note=69 velocity=0 time=0
EXTRACT: note_on channel=10 note=71 velocity=78 time=0
EXTRACT: note_on channel=11 note=69 velocity=0 time=0
EXTRACT: note_on channel=11 note=71 velocity=78 time=0
EXTRACT: control_change channel=3 control=64 value=0 time=0.03763439166666667
EXTRACT: note_on channel=2 note=67 velocity=0 time=0.043010733333333336
EXTRACT: note_on channel=2 note=64 velocity=0 time=0
EXTRACT: note_on channel=2 note=62 velocity=0 time=0
EXTRACT: note_on channel=2 note=59 velocity=0 time=0
EXTRACT: note_on channel=9 note=38 velocity=58 time=0.026881708333333334
EXTRACT: note_on channel=9 note=38 velocity=0 time=0.005376341666666667
EXTRACT: note_on channel=1 note=43 velocity=0 time=0.1827956166666667
EXTRACT: note_on channel=1 note=38 velocity=86 time=0
EXTRACT: note_on channel=4 note=71 velocity=0 time=0
EXTRACT: note_on channel=4 note=69 velocity=85 time=0
EXTRACT: note_on channel=5 note=71 velocity=0 time=0
EXTRACT: note_on channel=5 note=60 velocity=82 time=0
EXTRACT: note_on channel=5 note=69 velocity=82 time=0
EXTRACT: note_on channel=5 note=65 velocity=82 time=0
EXTRACT: note_on channel=6 note=67 velocity=0 time=0
EXTRACT: note_on channel=6 note=64 velocity=0 time=0
EXTRACT: note_on channel=6 note=59 velocity=0 time=0
EXTRACT: note_on channel=7 note=36 velocity=0 time=0
EXTRACT: note_on channel=7 note=38 velocity=85 time=0
EXTRACT: note_on channel=9 note=35 velocity=58 time=0
EXTRACT: note_on channel=9 note=38 velocity=50 time=0
EXTRACT: note_on channel=10 note=71 velocity=0 time=0
EXTRACT: note_on channel=10 note=60 velocity=78 time=0
EXTRACT: note_on channel=10 note=69 velocity=78 time=0
EXTRACT: note_on channel=10 note=65 velocity=78 time=0
EXTRACT: note_on channel=11 note=71 velocity=0 time=0
EXTRACT: note_on channel=11 note=69 velocity=78 time=0
EXTRACT: note_on channel=3 note=60 velocity=51 time=0.005376341666666667
EXTRACT: note_on channel=9 note=38 velocity=0 time=0
EXTRACT: note_on channel=9 note=35 velocity=0 time=0
EXTRACT: note_on channel=3 note=62 velocity=45 time=0.03225805
EXTRACT: note_on channel=3 note=53 velocity=41 time=0
EXTRACT: note_on channel=3 note=50 velocity=38 time=0
EXTRACT: control_change channel=3 control=64 value=127 time=0.16666659166666667
EXTRACT: note_on channel=3 note=60 velocity=0 time=0.03225805
EXTRACT: note_on channel=3 note=53 velocity=0 time=0.016129025
EXTRACT: note_on channel=3 note=62 velocity=0 time=0.010752683333333334
EXTRACT: note_on channel=4 note=69 velocity=0 time=0.059139758333333334
EXTRACT: note_on channel=4 note=67 velocity=85 time=0
EXTRACT: note_on channel=5 note=65 velocity=0 time=0
EXTRACT: note_on channel=5 note=69 velocity=0 time=0
EXTRACT: note_on channel=5 note=60 velocity=0 time=0
EXTRACT: note_on channel=5 note=60 velocity=82 time=0
EXTRACT: note_on channel=5 note=67 velocity=82 time=0
EXTRACT: note_on channel=5 note=65 velocity=82 time=0
EXTRACT: note_on channel=9 note=38 velocity=38 time=0
EXTRACT: note_on channel=10 note=65 velocity=0 time=0
EXTRACT: note_on channel=10 note=69 velocity=0 time=0
EXTRACT: note_on channel=10 note=60 velocity=0 time=0
EXTRACT: note_on channel=10 note=60 velocity=78 time=0
EXTRACT: note_on channel=10 note=67 velocity=78 time=0
EXTRACT: note_on channel=10 note=65 velocity=78 time=0
EXTRACT: note_on channel=11 note=69 velocity=0 time=0
EXTRACT: note_on channel=11 note=67 velocity=78 time=0
EXTRACT: note_on channel=9 note=38 velocity=0 time=0.005376341666666667
EXTRACT: note_on channel=9 note=38 velocity=58 time=0.3172041583333334
EXTRACT: note_on channel=9 note=42 velocity=48 time=0
EXTRACT: note_on channel=9 note=42 velocity=0 time=0.005376341666666667
EXTRACT: note_on channel=9 note=38 velocity=0 time=0
EXTRACT: note_on channel=3 note=62 velocity=53 time=0.005376341666666667
EXTRACT: note_on channel=3 note=60 velocity=63 time=0.005376341666666667
EXTRACT: note_on channel=3 note=53 velocity=47 time=0.010752683333333334
EXTRACT: note_on channel=3 note=60 velocity=0 time=0.16129025
EXTRACT: note_on channel=3 note=53 velocity=0 time=0.03225805
EXTRACT: note_on channel=3 note=62 velocity=0 time=0.021505366666666668
EXTRACT: note_on channel=4 note=67 velocity=0 time=0.06989244166666667
EXTRACT: note_on channel=11 note=67 velocity=0 time=0
EXTRACT: note_on channel=5 note=65 velocity=0 time=0.010752683333333334
EXTRACT: note_on channel=5 note=67 velocity=0 time=0
EXTRACT: note_on channel=5 note=60 velocity=0 time=0
EXTRACT: note_on channel=7 note=38 velocity=0 time=0
EXTRACT: note_on channel=7 note=33 velocity=85 time=0
EXTRACT: note_on channel=9 note=38 velocity=38 time=0
EXTRACT: note_on channel=10 note=65 velocity=0 time=0
EXTRACT: note_on channel=10 note=67 velocity=0 time=0
EXTRACT: note_on channel=10 note=60 velocity=0 time=0
EXTRACT: note_on channel=9 note=38 velocity=0 time=0.005376341666666667
EXTRACT: note_on channel=2 note=65 velocity=55 time=0.021505366666666668
EXTRACT: note_on channel=2 note=62 velocity=55 time=0
EXTRACT: note_on channel=2 note=60 velocity=55 time=0
EXTRACT: note_on channel=2 note=69 velocity=55 time=0
EXTRACT: control_change channel=3 control=64 value=0 time=0.16129025
EXTRACT: note_on channel=1 note=45 velocity=75 time=0
EXTRACT: note_on channel=3 note=62 velocity=50 time=0
EXTRACT: note_on channel=4 note=69 velocity=85 time=0
EXTRACT: note_on channel=5 note=62 velocity=82 time=0
EXTRACT: note_on channel=5 note=65 velocity=82 time=0
EXTRACT: note_on channel=5 note=69 velocity=82 time=0
EXTRACT: note_on channel=5 note=60 velocity=82 time=0
EXTRACT: note_on channel=9 note=35 velocity=58 time=0
EXTRACT: note_on channel=9 note=38 velocity=58 time=0
EXTRACT: note_on channel=10 note=62 velocity=78 time=0
EXTRACT: note_on channel=10 note=65 velocity=78 time=0
EXTRACT: note_on channel=10 note=69 velocity=78 time=0
EXTRACT: note_on channel=10 note=60 velocity=78 time=0
EXTRACT: note_on channel=11 note=69 velocity=78 time=0
EXTRACT: note_on channel=9 note=38 velocity=0 time=0.005376341666666667
EXTRACT: note_on channel=9 note=35 velocity=0 time=0
EXTRACT: note_on channel=3 note=45 velocity=50 time=0.005376341666666667
EXTRACT: note_on channel=3 note=60 velocity=57 time=0
EXTRACT: note_on channel=3 note=53 velocity=40 time=0
EXTRACT: note_on channel=1 note=38 velocity=0 time=0.026881708333333334
EXTRACT: note_on channel=3 note=50 velocity=0 time=0.03225805
EXTRACT: control_change channel=3 control=64 value=127 time=0.19892464166666668
EXTRACT: note_on channel=4 note=69 velocity=0 time=0
EXTRACT: note_on channel=4 note=67 velocity=85 time=0
EXTRACT: note_on channel=5 note=60 velocity=0 time=0
EXTRACT: note_on channel=5 note=62 velocity=0 time=0
EXTRACT: note_on channel=5 note=65 velocity=0 time=0
EXTRACT: note_on channel=5 note=69 velocity=0 time=0
EXTRACT: note_on channel=5 note=67 velocity=82 time=0
EXTRACT: note_on channel=7 note=33 velocity=0 time=0
EXTRACT: note_on channel=7 note=38 velocity=85 time=0
EXTRACT: note_on channel=9 note=38 velocity=38 time=0
EXTRACT: note_on channel=10 note=60 velocity=0 time=0
EXTRACT: note_on channel=10 note=62 velocity=0 time=0
EXTRACT: note_on channel=10 note=65 velocity=0 time=0
EXTRACT: note_on channel=10 note=69 velocity=0 time=0
EXTRACT: note_on channel=10 note=67 velocity=78 time=0
EXTRACT: note_on channel=11 note=69 velocity=0 time=0
EXTRACT: note_on channel=11 note=67 velocity=78 time=0
EXTRACT: note_on channel=9 note=38 velocity=0 time=0.005376341666666667
EXTRACT: note_on channel=3 note=60 velocity=0 time=0.09139780833333334
EXTRACT: note_on channel=3 note=53 velocity=0 time=0.016129025
EXTRACT: note_on channel=3 note=62 velocity=0 time=0.021505366666666668
EXTRACT: note_on channel=4 note=67 velocity=0 time=0
EXTRACT: note_on channel=4 note=64 velocity=85 time=0
EXTRACT: note_on channel=5 note=67 velocity=0 time=0
EXTRACT: note_on channel=5 note=64 velocity=82 time=0
EXTRACT: note_on channel=9 note=38 velocity=48 time=0
EXTRACT: note_on channel=9 note=42 velocity=48 time=0
EXTRACT: note_on channel=10 note=67 velocity=0 time=0
EXTRACT: note_on channel=10 note=64 velocity=78 time=0
EXTRACT: note_on channel=11 note=67 velocity=0 time=0
EXTRACT: note_on channel=11 note=64 velocity=78 time=0
EXTRACT: note_on channel=9 note=42 velocity=0 time=0.005376341666666667
EXTRACT: note_on channel=9 note=38 velocity=0 time=0
EXTRACT: note_on channel=1 note=45 velocity=0 time=0.1344085416666667
EXTRACT: note_on channel=3 note=45 velocity=0 time=0.145161225
EXTRACT: note_on channel=1 note=45 velocity=70 time=0
EXTRACT: note_on channel=4 note=64 velocity=0 time=0
EXTRACT: note_on channel=4 note=67 velocity=85 time=0
EXTRACT: note_on channel=5 note=64 velocity=0 time=0
EXTRACT: note_on channel=5 note=64 velocity=82 time=0
EXTRACT: note_on channel=5 note=67 velocity=82 time=0
EXTRACT: note_on channel=5 note=59 velocity=82 time=0
EXTRACT: note_on channel=7 note=38 velocity=0 time=0
EXTRACT: note_on channel=7 note=43 velocity=85 time=0
EXTRACT: note_on channel=9 note=38 velocity=58 time=0
EXTRACT: note_on channel=10 note=64 velocity=0 time=0
EXTRACT: note_on channel=10 note=64 velocity=78 time=0
EXTRACT: note_on channel=10 note=67 velocity=78 time=0
EXTRACT: note_on channel=10 note=59 velocity=78 time=0
EXTRACT: note_on channel=11 note=64 velocity=0 time=0
EXTRACT: note_on channel=11 note=67 velocity=78 time=0
EXTRACT: note_on channel=9 note=38 velocity=0 time=0.005376341666666667
EXTRACT: note_on channel=3 note=62 velocity=44 time=0.005376341666666667
EXTRACT: note_on channel=3 note=60 velocity=67 time=0.016129025
EXTRACT: note_on channel=3 note=53 velocity=24 time=0.026881708333333334
EXTRACT: note_on channel=3 note=60 velocity=0 time=0.0645161
EXTRACT: note_on channel=3 note=53 velocity=0 time=0.010752683333333334
EXTRACT: note_on channel=3 note=62 velocity=0 time=0.026881708333333334
EXTRACT: control_change channel=3 control=64 value=0 time=0.11290317500000001
EXTRACT: note_on channel=1 note=45 velocity=0 time=0.010752683333333334
EXTRACT: note_on channel=1 note=36 velocity=82 time=0.043010733333333336
EXTRACT: note_on channel=2 note=69 velocity=0 time=0
EXTRACT: note_on channel=2 note=65 velocity=0 time=0
EXTRACT: note_on channel=2 note=62 velocity=0 time=0
EXTRACT: note_on channel=2 note=60 velocity=0 time=0
EXTRACT: note_on channel=3 note=48 velocity=56 time=0
EXTRACT: note_on channel=7 note=43 velocity=0 time=0
EXTRACT: note_on channel=7 note=36 velocity=85 time=0
EXTRACT: note_on channel=9 note=35 velocity=58 time=0
EXTRACT: note_on channel=9 note=38 velocity=50 time=0
EXTRACT: note_on channel=9 note=38 velocity=0 time=0.005376341666666667
EXTRACT: note_on channel=9 note=35 velocity=0 time=0
EXTRACT: note_on channel=2 note=74 velocity=62 time=0.005376341666666667
EXTRACT: note_on channel=4 note=67 velocity=0 time=0.30107513333333336
EXTRACT: note_on channel=11 note=67 velocity=0 time=0
EXTRACT: note_on channel=4 note=64 velocity=85 time=0
EXTRACT: note_on channel=5 note=59 velocity=0 time=0
EXTRACT: note_on channel=5 note=67 velocity=0 time=0
EXTRACT: note_on channel=5 note=64 velocity=0 time=0
EXTRACT: note_on channel=5 note=64 velocity=82 time=0
EXTRACT: note_on channel=5 note=55 velocity=82 time=0
EXTRACT: note_on channel=5 note=59 velocity=82 time=0
EXTRACT: note_on channel=9 note=38 velocity=38 time=0
EXTRACT: note_on channel=10 note=59 velocity=0 time=0
EXTRACT: note_on channel=10 note=67 velocity=0 time=0
EXTRACT: note_on channel=10 note=64 velocity=0 time=0
EXTRACT: note_on channel=10 note=64 velocity=78 time=0
EXTRACT: note_on channel=10 note=55 velocity=78 time=0
EXTRACT: note_on channel=10 note=59 velocity=78 time=0
EXTRACT: note_on channel=11 note=64 velocity=78 time=0
EXTRACT: note_on channel=9 note=38 velocity=0 time=0.005376341666666667
EXTRACT: control_change channel=3 control=64 value=127 time=0.23655903333333334
EXTRACT: note_on channel=3 note=52 velocity=49 time=0.06989244166666667
EXTRACT: note_on channel=3 note=62 velocity=58 time=0
EXTRACT: control_change channel=2 control=64 value=127 time=0.010752683333333334
EXTRACT: note_on channel=2 note=64 velocity=54 time=0
EXTRACT: note_on channel=2 note=62 velocity=54 time=0
EXTRACT: note_on channel=2 note=59 velocity=54 time=0
EXTRACT: note_on channel=2 note=67 velocity=54 time=0
EXTRACT: note_on channel=9 note=38 velocity=58 time=0
EXTRACT: note_on channel=9 note=42 velocity=48 time=0
EXTRACT: note_on channel=3 note=59 velocity=63 time=0.005376341666666667
EXTRACT: note_on channel=9 note=42 velocity=0 time=0
EXTRACT: note_on channel=9 note=38 velocity=0 time=0
EXTRACT: note_on channel=2 note=67 velocity=0 time=0.1935483
EXTRACT: note_on channel=2 note=62 velocity=0 time=0
EXTRACT: note_on channel=2 note=59 velocity=0 time=0
EXTRACT: note_on channel=2 note=64 velocity=0 time=0
EXTRACT: note_on channel=3 note=59 velocity=0 time=0.09139780833333334
EXTRACT: note_on channel=3 note=52 velocity=0 time=0
EXTRACT: note_on channel=7 note=36 velocity=0 time=0.03225805
EXTRACT: note_on channel=7 note=31 velocity=85 time=0
EXTRACT: note_on channel=9 note=38 velocity=38 time=0
EXTRACT: note_on channel=9 note=38 velocity=0 time=0.005376341666666667
EXTRACT: note_on channel=3 note=62 velocity=0 time=0.048387075
EXTRACT: note_on channel=3 note=48 velocity=0 time=0.005376341666666667
EXTRACT: note_on channel=1 note=36 velocity=0 time=0.07526878333333334
EXTRACT: note_on channel=4 note=64 velocity=0 time=0.16129025
EXTRACT: note_on channel=11 note=64 velocity=0 time=0
EXTRACT: note_on channel=1 note=36 velocity=81 time=0
EXTRACT: note_on channel=4 note=67 velocity=85 time=0
EXTRACT: note_on channel=5 note=59 velocity=0 time=0
EXTRACT: note_on channel=5 note=55 velocity=0 time=0
EXTRACT: note_on channel=5 note=64 velocity=0 time=0
EXTRACT: note_on channel=5 note=67 velocity=82 time=0
EXTRACT: note_on channel=5 note=59 velocity=82 time=0
EXTRACT: note_on channel=5 note=64 velocity=82 time=0
EXTRACT: note_on channel=9 note=35 velocity=58 time=0
EXTRACT: note_on channel=9 note=38 velocity=58 time=0
EXTRACT: note_on channel=10 note=59 velocity=0 time=0
EXTRACT: note_on channel=10 note=55 velocity=0 time=0
EXTRACT: note_on channel=10 note=64 velocity=0 time=0
EXTRACT: note_on channel=10 note=67 velocity=78 time=0
EXTRACT: note_on channel=10 note=59 velocity=78 time=0
EXTRACT: note_on channel=10 note=64 velocity=78 time=0
EXTRACT: note_on channel=11 note=67 velocity=78 time=0
EXTRACT: note_on channel=9 note=38 velocity=0 time=0.005376341666666667
EXTRACT: note_on channel=9 note=35 velocity=0 time=0
EXTRACT: note_on channel=3 note=43 velocity=45 time=0.03225805
EXTRACT: note_on channel=2 note=64 velocity=54 time=0
EXTRACT: note_on channel=2 note=62 velocity=54 time=0
EXTRACT: note_on channel=2 note=59 velocity=54 time=0
EXTRACT: note_on channel=2 note=67 velocity=54 time=0
EXTRACT: note_on channel=4 note=67 velocity=0 time=0
EXTRACT: note_on channel=4 note=69 velocity=85 time=0
EXTRACT: note_on channel=5 note=64 velocity=0 time=0
EXTRACT: note_on channel=5 note=59 velocity=0 time=0
EXTRACT: note_on channel=5 note=67 velocity=0 time=0
EXTRACT: note_on channel=5 note=69 velocity=82 time=0
EXTRACT: note_on channel=7 note=31 velocity=0 time=0
EXTRACT: note_on channel=7 note=36 velocity=85 time=0
EXTRACT: note_on channel=9 note=38 velocity=38 time=0
EXTRACT: note_on channel=10 note=64 velocity=0 time=0
EXTRACT: note_on channel=10 note=59 velocity=0 time=0
EXTRACT: note_on channel=10 note=67 velocity=0 time=0
EXTRACT: note_on channel=10 note=69 velocity=78 time=0
EXTRACT: note_on channel=11 note=67 velocity=0 time=0
EXTRACT: note_on channel=11 note=69 velocity=78 time=0
EXTRACT: note_on channel=9 note=38 velocity=0 time=0.005376341666666667
EXTRACT: note_on channel=3 note=62 velocity=55 time=0.010752683333333334
EXTRACT: note_on channel=3 note=59 velocity=55 time=0
EXTRACT: note_on channel=3 note=52 velocity=39 time=0.016129025
EXTRACT: note_on channel=2 note=67 velocity=0 time=0.15053756666666668
EXTRACT: note_on channel=2 note=62 velocity=0 time=0
EXTRACT: note_on channel=2 note=59 velocity=0 time=0
EXTRACT: note_on channel=2 note=64 velocity=0 time=0
EXTRACT: note_on channel=3 note=59 velocity=0 time=0.09139780833333334
EXTRACT: note_on channel=3 note=52 velocity=0 time=0.016129025
EXTRACT: note_on channel=3 note=62 velocity=0 time=0.026881708333333334
EXTRACT: note_on channel=4 note=69 velocity=0 time=0
EXTRACT: note_on channel=4 note=71 velocity=85 time=0
EXTRACT: note_on channel=5 note=69 velocity=0 time=0
EXTRACT: note_on channel=5 note=71 velocity=82 time=0
EXTRACT: note_on channel=9 note=38 velocity=48 time=0
EXTRACT: note_on channel=9 note=42 velocity=48 time=0
EXTRACT: note_on channel=10 note=69 velocity=0 time=0
EXTRACT: note_on channel=10 note=71 velocity=78 time=0
EXTRACT: note_on channel=11 note=69 velocity=0 time=0
EXTRACT: note_on channel=11 note=71 velocity=78 time=0
EXTRACT: note_on channel=9 note=42 velocity=0 time=0.005376341666666667
EXTRACT: note_on channel=9 note=38 velocity=0 time=0
EXTRACT: note_on channel=3 note=43 velocity=0 time=0.03763439166666667
EXTRACT: note_on channel=4 note=71 velocity=0 time=0
EXTRACT: note_on channel=4 note=69 velocity=85 time=0
EXTRACT: note_on channel=5 note=71 velocity=0 time=0
EXTRACT: note_on channel=5 note=60 velocity=82 time=0
EXTRACT: note_on channel=5 note=69 velocity=82 time=0
EXTRACT: note_on channel=5 note=65 velocity=82 time=0
EXTRACT: note_on channel=7 note=36 velocity=0 time=0
EXTRACT: note_on channel=7 note=31 velocity=85 time=0
EXTRACT: note_on channel=9 note=38 velocity=58 time=0
EXTRACT: note_on channel=10 note=71 velocity=0 time=0
EXTRACT: note_on channel=10 note=60 velocity=78 time=0
EXTRACT: note_on channel=10 note=69 velocity=78 time=0
EXTRACT: note_on channel=10 note=65 velocity=78 time=0
EXTRACT: note_on channel=11 note=71 velocity=0 time=0
EXTRACT: note_on channel=11 note=69 velocity=78 time=0
EXTRACT: note_on channel=9 note=38 velocity=0 time=0.005376341666666667
EXTRACT: note_on channel=1 note=36 velocity=0 time=0.048387075
EXTRACT: control_change channel=3 control=64 value=0 time=0.06989244166666667
EXTRACT: note_on channel=1 note=38 velocity=82 time=0.19892464166666668
EXTRACT: note_on channel=2 note=74 velocity=0 time=0
EXTRACT: control_change channel=2 control=64 value=0 time=0
EXTRACT: control_change channel=3 control=0 value=0 time=0
EXTRACT: note_on channel=7 note=31 velocity=0 time=0
EXTRACT: note_on channel=7 note=38 velocity=85 time=0
EXTRACT: note_on channel=9 note=35 velocity=58 time=0
EXTRACT: note_on channel=9 note=38 velocity=50 time=0
EXTRACT: note_on channel=3 note=60 velocity=51 time=0.005376341666666667
EXTRACT: note_on channel=9 note=38 velocity=0 time=0
EXTRACT: note_on channel=9 note=35 velocity=0 time=0
EXTRACT: note_on channel=3 note=62 velocity=45 time=0.03225805
EXTRACT: note_on channel=3 note=53 velocity=41 time=0
EXTRACT: note_on channel=3 note=50 velocity=38 time=0
EXTRACT: control_change channel=3 control=64 value=127 time=0.16666659166666667
EXTRACT: note_on channel=3 note=60 velocity=0 time=0.03225805
EXTRACT: note_on channel=3 note=53 velocity=0 time=0.016129025
EXTRACT: note_on channel=3 note=62 velocity=0 time=0.010752683333333334
EXTRACT: note_on channel=4 note=69 velocity=0 time=0.048387075
EXTRACT: note_on channel=11 note=69 velocity=0 time=0
EXTRACT: note_on channel=4 note=67 velocity=85 time=0
EXTRACT: note_on channel=5 note=65 velocity=0 time=0
EXTRACT: note_on channel=5 note=69 velocity=0 time=0
EXTRACT: note_on channel=5 note=60 velocity=0 time=0
EXTRACT: note_on channel=5 note=60 velocity=82 time=0
EXTRACT: note_on channel=5 note=67 velocity=82 time=0
EXTRACT: note_on channel=5 note=65 velocity=82 time=0
EXTRACT: note_on channel=9 note=38 velocity=38 time=0
EXTRACT: note_on channel=10 note=65 velocity=0 time=0
EXTRACT: note_on channel=10 note=69 velocity=0 time=0
EXTRACT: note_on channel=10 note=60 velocity=0 time=0
EXTRACT: note_on channel=10 note=60 velocity=78 time=0
EXTRACT: note_on channel=10 note=67 velocity=78 time=0
EXTRACT: note_on channel=10 note=65 velocity=78 time=0
EXTRACT: note_on channel=11 note=67 velocity=78 time=0
EXTRACT: note_on channel=9 note=38 velocity=0 time=0.005376341666666667
EXTRACT: note_on channel=9 note=38 velocity=58 time=0.3172041583333334
EXTRACT: note_on channel=9 note=42 velocity=48 time=0
EXTRACT: note_on channel=9 note=42 velocity=0 time=0.005376341666666667
EXTRACT: note_on channel=9 note=38 velocity=0 time=0
EXTRACT: note_on channel=3 note=62 velocity=53 time=0.005376341666666667
EXTRACT: note_on channel=3 note=60 velocity=63 time=0.005376341666666667
EXTRACT: note_on channel=3 note=53 velocity=47 time=0.010752683333333334
EXTRACT: note_on channel=3 note=60 velocity=0 time=0.16129025
EXTRACT: note_on channel=3 note=53 velocity=0 time=0.03225805
EXTRACT: note_on channel=3 note=62 velocity=0 time=0.021505366666666668
EXTRACT: note_on channel=4 note=67 velocity=0 time=0.06989244166666667
EXTRACT: note_on channel=11 note=67 velocity=0 time=0
EXTRACT: note_on channel=4 note=69 velocity=85 time=0
EXTRACT: note_on channel=5 note=65 velocity=0 time=0
EXTRACT: note_on channel=5 note=67 velocity=0 time=0
EXTRACT: note_on channel=5 note=60 velocity=0 time=0
EXTRACT: note_on channel=5 note=62 velocity=82 time=0
EXTRACT: note_on channel=5 note=65 velocity=82 time=0
EXTRACT: note_on channel=5 note=69 velocity=82 time=0
EXTRACT: note_on channel=5 note=60 velocity=82 time=0
EXTRACT: note_on channel=7 note=38 velocity=0 time=0
EXTRACT: note_on channel=7 note=33 velocity=85 time=0
EXTRACT: note_on channel=9 note=38 velocity=38 time=0
EXTRACT: note_on channel=10 note=65 velocity=0 time=0
EXTRACT: note_on channel=10 note=67 velocity=0 time=0
EXTRACT: note_on channel=10 note=60 velocity=0 time=0
EXTRACT: note_on channel=10 note=62 velocity=78 time=0
EXTRACT: note_on channel=10 note=65 velocity=78 time=0
EXTRACT: note_on channel=10 note=69 velocity=78 time=0
EXTRACT: note_on channel=10 note=60 velocity=78 time=0
EXTRACT: note_on channel=11 note=69 velocity=78 time=0
EXTRACT: note_on channel=9 note=38 velocity=0 time=0.005376341666666667
EXTRACT: note_on channel=2 note=65 velocity=55 time=0.021505366666666668
EXTRACT: note_on channel=2 note=62 velocity=55 time=0
EXTRACT: note_on channel=2 note=60 velocity=55 time=0
EXTRACT: note_on channel=2 note=69 velocity=55 time=0
EXTRACT: note_on channel=1 note=38 velocity=0 time=0.10752683333333334
EXTRACT: control_change channel=3 control=64 value=0 time=0.05376341666666667
EXTRACT: note_on channel=1 note=38 velocity=81 time=0
EXTRACT: note_on channel=3 note=62 velocity=50 time=0
EXTRACT: note_on channel=4 note=69 velocity=0 time=0
EXTRACT: note_on channel=4 note=69 velocity=85 time=0
EXTRACT: note_on channel=5 note=60 velocity=0 time=0
EXTRACT: note_on channel=5 note=62 velocity=0 time=0
EXTRACT: note_on channel=5 note=65 velocity=0 time=0
EXTRACT: note_on channel=5 note=69 velocity=0 time=0
EXTRACT: note_on channel=5 note=69 velocity=82 time=0
EXTRACT: note_on channel=5 note=62 velocity=82 time=0
EXTRACT: note_on channel=5 note=60 velocity=82 time=0
EXTRACT: note_on channel=5 note=65 velocity=82 time=0
EXTRACT: note_on channel=9 note=35 velocity=58 time=0
EXTRACT: note_on channel=9 note=38 velocity=58 time=0
EXTRACT: note_on channel=10 note=60 velocity=0 time=0
EXTRACT: note_on channel=10 note=62 velocity=0 time=0
EXTRACT: note_on channel=10 note=65 velocity=0 time=0
EXTRACT: note_on channel=10 note=69 velocity=0 time=0
EXTRACT: note_on channel=10 note=69 velocity=78 time=0
EXTRACT: note_on channel=10 note=62 velocity=78 time=0
EXTRACT: note_on channel=10 note=60 velocity=78 time=0
EXTRACT: note_on channel=10 note=65 velocity=78 time=0
EXTRACT: note_on channel=11 note=69 velocity=0 time=0
EXTRACT: note_on channel=11 note=69 velocity=78 time=0
EXTRACT: note_on channel=9 note=38 velocity=0 time=0.005376341666666667
EXTRACT: note_on channel=9 note=35 velocity=0 time=0
EXTRACT: note_on channel=3 note=45 velocity=50 time=0.005376341666666667
EXTRACT: note_on channel=3 note=60 velocity=57 time=0
EXTRACT: note_on channel=3 note=53 velocity=40 time=0
EXTRACT: note_on channel=3 note=50 velocity=0 time=0.059139758333333334
EXTRACT: control_change channel=3 control=64 value=127 time=0.19892464166666668
EXTRACT: note_on channel=4 note=69 velocity=0 time=0
EXTRACT: note_on channel=4 note=67 velocity=85 time=0
EXTRACT: note_on channel=5 note=65 velocity=0 time=0
EXTRACT: note_on channel=5 note=69 velocity=0 time=0
EXTRACT: note_on channel=5 note=62 velocity=0 time=0
EXTRACT: note_on channel=5 note=60 velocity=0 time=0
EXTRACT: note_on channel=5 note=67 velocity=82 time=0
EXTRACT: note_on channel=7 note=33 velocity=0 time=0
EXTRACT: note_on channel=7 note=38 velocity=85 time=0
EXTRACT: note_on channel=9 note=38 velocity=38 time=0
EXTRACT: note_on channel=10 note=65 velocity=0 time=0
EXTRACT: note_on channel=10 note=69 velocity=0 time=0
EXTRACT: note_on channel=10 note=62 velocity=0 time=0
EXTRACT: note_on channel=10 note=60 velocity=0 time=0
EXTRACT: note_on channel=10 note=67 velocity=78 time=0
EXTRACT: note_on channel=11 note=69 velocity=0 time=0
EXTRACT: note_on channel=11 note=67 velocity=78 time=0
EXTRACT: note_on channel=9 note=38 velocity=0 time=0.005376341666666667
EXTRACT: note_on channel=3 note=60 velocity=0 time=0.09139780833333334
EXTRACT: note_on channel=3 note=53 velocity=0 time=0.016129025
EXTRACT: note_on channel=3 note=62 velocity=0 time=0.021505366666666668
EXTRACT: note_on channel=4 note=67 velocity=0 time=0
EXTRACT: note_on channel=4 note=64 velocity=85 time=0
EXTRACT: note_on channel=5 note=67 velocity=0 time=0
EXTRACT: note_on channel=5 note=64 velocity=82 time=0
EXTRACT: note_on channel=9 note=38 velocity=48 time=0
EXTRACT: note_on channel=9 note=42 velocity=48 time=0
EXTRACT: note_on channel=10 note=67 velocity=0 time=0
EXTRACT: note_on channel=10 note=64 velocity=78 time=0
EXTRACT: note_on channel=11 note=67 velocity=0 time=0
EXTRACT: note_on channel=11 note=64 velocity=78 time=0
EXTRACT: note_on channel=9 note=42 velocity=0 time=0.005376341666666667
EXTRACT: note_on channel=9 note=38 velocity=0 time=0
EXTRACT: note_on channel=3 note=45 velocity=0 time=0.27956976666666666
EXTRACT: note_on channel=4 note=64 velocity=0 time=0
EXTRACT: note_on channel=4 note=67 velocity=85 time=0
EXTRACT: note_on channel=5 note=64 velocity=0 time=0
EXTRACT: note_on channel=5 note=67 velocity=82 time=0
EXTRACT: note_on channel=5 note=59 velocity=82 time=0
EXTRACT: note_on channel=5 note=64 velocity=82 time=0
EXTRACT: note_on channel=7 note=38 velocity=0 time=0
EXTRACT: note_on channel=7 note=43 velocity=85 time=0
EXTRACT: note_on channel=9 note=38 velocity=58 time=0
EXTRACT: note_on channel=10 note=64 velocity=0 time=0
EXTRACT: note_on channel=10 note=67 velocity=78 time=0
EXTRACT: note_on channel=10 note=59 velocity=78 time=0
EXTRACT: note_on channel=10 note=64 velocity=78 time=0
EXTRACT: note_on channel=11 note=64 velocity=0 time=0
EXTRACT: note_on channel=11 note=67 velocity=78 time=0
EXTRACT: note_on channel=9 note=38 velocity=0 time=0.005376341666666667
EXTRACT: note_on channel=3 note=62 velocity=44 time=0.005376341666666667
EXTRACT: note_on channel=3 note=60 velocity=67 time=0.016129025
EXTRACT: note_on channel=1 note=38 velocity=0 time=0.026881708333333334
EXTRACT: note_on channel=3 note=53 velocity=24 time=0
EXTRACT: note_on channel=3 note=60 velocity=0 time=0.0645161
EXTRACT: note_on channel=3 note=53 velocity=0 time=0.010752683333333334
EXTRACT: note_on channel=3 note=62 velocity=0 time=0.026881708333333334
EXTRACT: control_change channel=3 control=64 value=0 time=0.11290317500000001
EXTRACT: note_on channel=1 note=36 velocity=77 time=0.05376341666666667
EXTRACT: note_on channel=2 note=69 velocity=0 time=0
EXTRACT: note_on channel=2 note=65 velocity=0 time=0
EXTRACT: note_on channel=2 note=62 velocity=0 time=0
EXTRACT: note_on channel=2 note=60 velocity=0 time=0
EXTRACT: note_on channel=2 note=60 velocity=56 time=0
EXTRACT: note_on channel=7 note=43 velocity=0 time=0
EXTRACT: note_on channel=7 note=36 velocity=85 time=0
EXTRACT: note_on channel=9 note=35 velocity=58 time=0
EXTRACT: note_on channel=9 note=38 velocity=50 time=0
EXTRACT: note_on channel=9 note=38 velocity=0 time=0.005376341666666667
EXTRACT: note_on channel=9 note=35 velocity=0 time=0
EXTRACT: note_on channel=2 note=59 velocity=67 time=0.043010733333333336
EXTRACT: note_on channel=2 note=52 velocity=39 time=0
EXTRACT: note_on channel=2 note=64 velocity=61 time=0.09677415
EXTRACT: control_change channel=3 control=64 value=127 time=0.021505366666666668
EXTRACT: note_on channel=2 note=67 velocity=52 time=0.12365585833333334
EXTRACT: note_on channel=9 note=38 velocity=38 time=0.03225805
EXTRACT: note_on channel=9 note=38 velocity=0 time=0.005376341666666667
EXTRACT: control_change channel=2 control=64 value=127 time=0.15591390833333335
EXTRACT: note_on channel=4 note=67 velocity=0 time=0.1344085416666667
EXTRACT: note_on channel=11 note=67 velocity=0 time=0
EXTRACT: note_on channel=5 note=64 velocity=0 time=0.026881708333333334
EXTRACT: note_on channel=5 note=59 velocity=0 time=0
EXTRACT: note_on channel=5 note=67 velocity=0 time=0
EXTRACT: note_on channel=9 note=38 velocity=58 time=0
EXTRACT: note_on channel=9 note=42 velocity=48 time=0
EXTRACT: note_on channel=10 note=64 velocity=0 time=0
EXTRACT: note_on channel=10 note=59 velocity=0 time=0
EXTRACT: note_on channel=10 note=67 velocity=0 time=0
EXTRACT: note_on channel=9 note=42 velocity=0 time=0.005376341666666667
EXTRACT: note_on channel=9 note=38 velocity=0 time=0
EXTRACT: note_on channel=3 note=59 velocity=63 time=0.03225805
EXTRACT: note_on channel=3 note=62 velocity=48 time=0
EXTRACT: note_on channel=3 note=52 velocity=37 time=0.03225805
EXTRACT: note_on channel=1 note=36 velocity=0 time=0.17204293333333334
EXTRACT: note_on channel=3 note=59 velocity=0 time=0.03763439166666667
EXTRACT: note_on channel=1 note=36 velocity=83 time=0
EXTRACT: note_on channel=4 note=67 velocity=85 time=0
EXTRACT: note_on channel=5 note=67 velocity=82 time=0
EXTRACT: note_on channel=7 note=36 velocity=0 time=0
EXTRACT: note_on channel=7 note=31 velocity=85 time=0
EXTRACT: note_on channel=9 note=38 velocity=38 time=0
EXTRACT: note_on channel=10 note=67 velocity=78 time=0
EXTRACT: note_on channel=11 note=67 velocity=78 time=0
EXTRACT: note_on channel=3 note=62 velocity=0 time=0.005376341666666667
EXTRACT: note_on channel=9 note=38 velocity=0 time=0
EXTRACT: note_on channel=3 note=52 velocity=0 time=0.010752683333333334
EXTRACT: control_change channel=2 control=0 value=0 time=0.145161225
EXTRACT: note_on channel=1 note=43 velocity=74 time=0
EXTRACT: note_on channel=4 note=67 velocity=0 time=0
EXTRACT: note_on channel=4 note=67 velocity=85 time=0
EXTRACT: note_on channel=5 note=67 velocity=0 time=0
EXTRACT: note_on channel=5 note=67 velocity=82 time=0
EXTRACT: note_on channel=5 note=64 velocity=82 time=0
EXTRACT: note_on channel=5 note=59 velocity=82 time=0
EXTRACT: note_on channel=9 note=35 velocity=58 time=0
EXTRACT: note_on channel=9 note=38 velocity=58 time=0
EXTRACT: note_on channel=10 note=67 velocity=0 time=0
EXTRACT: note_on channel=10 note=67 velocity=78 time=0
EXTRACT: note_on channel=10 note=64 velocity=78 time=0
EXTRACT: note_on channel=10 note=59 velocity=78 time=0
EXTRACT: note_on channel=11 note=67 velocity=0 time=0
EXTRACT: note_on channel=11 note=67 velocity=78 time=0
EXTRACT: note_on channel=9 note=38 velocity=0 time=0.005376341666666667
EXTRACT: note_on channel=9 note=35 velocity=0 time=0
EXTRACT: note_on channel=1 note=36 velocity=0 time=0.03225805
EXTRACT: note_on channel=3 note=62 velocity=51 time=0
EXTRACT: note_on channel=3 note=52 velocity=46 time=0
EXTRACT: note_on channel=4 note=67 velocity=0 time=0
EXTRACT: note_on channel=4 note=69 velocity=85 time=0
EXTRACT: note_on channel=5 note=59 velocity=0 time=0
EXTRACT: note_on channel=5 note=64 velocity=0 time=0
EXTRACT: note_on channel=5 note=67 velocity=0 time=0
EXTRACT: note_on channel=5 note=69 velocity=82 time=0
EXTRACT: note_on channel=7 note=31 velocity=0 time=0
EXTRACT: note_on channel=7 note=36 velocity=85 time=0
EXTRACT: note_on channel=9 note=38 velocity=38 time=0
EXTRACT: note_on channel=10 note=59 velocity=0 time=0
EXTRACT: note_on channel=10 note=64 velocity=0 time=0
EXTRACT: note_on channel=10 note=67 velocity=0 time=0
EXTRACT: note_on channel=10 note=69 velocity=78 time=0
EXTRACT: note_on channel=11 note=67 velocity=0 time=0
EXTRACT: note_on channel=11 note=69 velocity=78 time=0
EXTRACT: note_on channel=9 note=38 velocity=0 time=0.005376341666666667
EXTRACT: note_on channel=3 note=59 velocity=69 time=0.010752683333333334
EXTRACT: control_change channel=2 control=0 value=0 time=0.145161225
EXTRACT: note_on channel=3 note=59 velocity=0 time=0.08602146666666667
EXTRACT: note_on channel=3 note=52 velocity=0 time=0.021505366666666668
EXTRACT: note_on channel=3 note=62 velocity=0 time=0
EXTRACT: note_on channel=4 note=69 velocity=0 time=0
EXTRACT: note_on channel=4 note=71 velocity=85 time=0
EXTRACT: note_on channel=5 note=69 velocity=0 time=0
EXTRACT: note_on channel=5 note=71 velocity=82 time=0
EXTRACT: note_on channel=9 note=38 velocity=48 time=0
EXTRACT: note_on channel=9 note=42 velocity=48 time=0
EXTRACT: note_on channel=10 note=69 velocity=0 time=0
EXTRACT: note_on channel=10 note=71 velocity=78 time=0
EXTRACT: note_on channel=11 note=69 velocity=0 time=0
EXTRACT: note_on channel=11 note=71 velocity=78 time=0
EXTRACT: note_on channel=9 note=42 velocity=0 time=0.005376341666666667
EXTRACT: note_on channel=9 note=38 velocity=0 time=0
EXTRACT: note_on channel=1 note=43 velocity=0 time=0.03763439166666667
EXTRACT: control_change channel=2 control=0 value=0 time=0.145161225
EXTRACT: note_on channel=1 note=43 velocity=76 time=0
EXTRACT: note_on channel=4 note=71 velocity=0 time=0
EXTRACT: note_on channel=4 note=69 velocity=85 time=0
EXTRACT: note_on channel=5 note=71 velocity=0 time=0
EXTRACT: note_on channel=5 note=60 velocity=82 time=0
EXTRACT: note_on channel=5 note=65 velocity=82 time=0
EXTRACT: note_on channel=5 note=69 velocity=82 time=0
EXTRACT: note_on channel=7 note=36 velocity=0 time=0
EXTRACT: note_on channel=7 note=31 velocity=85 time=0
EXTRACT: note_on channel=9 note=38 velocity=58 time=0
EXTRACT: note_on channel=10 note=71 velocity=0 time=0
EXTRACT: note_on channel=10 note=60 velocity=78 time=0
EXTRACT: note_on channel=10 note=65 velocity=78 time=0
EXTRACT: note_on channel=10 note=69 velocity=78 time=0
EXTRACT: note_on channel=11 note=71 velocity=0 time=0
EXTRACT: note_on channel=11 note=69 velocity=78 time=0
EXTRACT: note_on channel=9 note=38 velocity=0 time=0.005376341666666667
EXTRACT: note_on channel=2 note=67 velocity=0 time=0.021505366666666668
EXTRACT: note_on channel=2 note=52 velocity=0 time=0
EXTRACT: note_on channel=2 note=60 velocity=0 time=0
EXTRACT: note_on channel=2 note=59 velocity=0 time=0
EXTRACT: note_on channel=2 note=64 velocity=0 time=0
EXTRACT: control_change channel=3 control=64 value=0 time=0.048387075
EXTRACT: note_on channel=3 note=50 velocity=53 time=0
EXTRACT: note_on channel=3 note=64 velocity=45 time=0
EXTRACT: note_on channel=3 note=60 velocity=59 time=0
EXTRACT: note_on channel=3 note=53 velocity=49 time=0
EXTRACT: control_change channel=2 control=0 value=0 time=0.005376341666666667
EXTRACT: control_change channel=2 control=64 value=0 time=0
EXTRACT: note_on channel=2 note=53 velocity=49 time=0.010752683333333334
EXTRACT: note_on channel=2 note=57 velocity=47 time=0
EXTRACT: note_on channel=2 note=60 velocity=55 time=0
EXTRACT: note_on channel=2 note=62 velocity=51 time=0
EXTRACT: note_on channel=2 note=69 velocity=59 time=0
EXTRACT: note_on channel=1 note=43 velocity=0 time=0.2311826916666667
EXTRACT: note_on channel=1 note=38 velocity=82 time=0
EXTRACT: note_on channel=7 note=31 velocity=0 time=0
EXTRACT: note_on channel=7 note=38 velocity=85 time=0
EXTRACT: note_on channel=9 note=35 velocity=58 time=0
EXTRACT: note_on channel=9 note=38 velocity=50 time=0
EXTRACT: note_on channel=9 note=38 velocity=0 time=0.005376341666666667
EXTRACT: note_on channel=9 note=35 velocity=0 time=0
EXTRACT: note_on channel=3 note=60 velocity=0 time=0.22043000833333334
EXTRACT: control_change channel=3 control=64 value=127 time=0
EXTRACT: note_on channel=3 note=53 velocity=0 time=0.06989244166666667
EXTRACT: note_on channel=3 note=64 velocity=0 time=0
EXTRACT: note_on channel=4 note=69 velocity=0 time=0.016129025
EXTRACT: note_on channel=11 note=69 velocity=0 time=0
EXTRACT: note_on channel=4 note=67 velocity=85 time=0
EXTRACT: note_on channel=5 note=69 velocity=0 time=0
EXTRACT: note_on channel=5 note=65 velocity=0 time=0
EXTRACT: note_on channel=5 note=60 velocity=0 time=0
EXTRACT: note_on channel=5 note=67 velocity=82 time=0
EXTRACT: note_on channel=5 note=60 velocity=82 time=0
EXTRACT: note_on channel=5 note=65 velocity=82 time=0
EXTRACT: note_on channel=9 note=38 velocity=38 time=0
EXTRACT: note_on channel=10 note=69 velocity=0 time=0
EXTRACT: note_on channel=10 note=65 velocity=0 time=0
EXTRACT: note_on channel=10 note=60 velocity=0 time=0
EXTRACT: note_on channel=10 note=67 velocity=78 time=0
EXTRACT: note_on channel=10 note=60 velocity=78 time=0
EXTRACT: note_on channel=10 note=65 velocity=78 time=0
EXTRACT: note_on channel=11 note=67 velocity=78 time=0
EXTRACT: note_on channel=9 note=38 velocity=0 time=0.005376341666666667
EXTRACT: note_on channel=2 note=65 velocity=56 time=0.0645161
EXTRACT: note_on channel=9 note=38 velocity=58 time=0.25268805833333335
EXTRACT: note_on channel=9 note=42 velocity=48 time=0
EXTRACT: note_on channel=9 note=42 velocity=0 time=0.005376341666666667
EXTRACT: note_on channel=9 note=38 velocity=0 time=0
EXTRACT: note_on channel=3 note=64 velocity=58 time=0.005376341666666667
EXTRACT: note_on channel=3 note=60 velocity=63 time=0.005376341666666667
EXTRACT: note_on channel=3 note=53 velocity=45 time=0.010752683333333334
EXTRACT: note_on channel=3 note=60 velocity=0 time=0.22580635000000002
EXTRACT: note_on channel=3 note=53 velocity=0 time=0.048387075
EXTRACT: note_on channel=4 note=67 velocity=0 time=0.010752683333333334
EXTRACT: note_on channel=11 note=67 velocity=0 time=0
EXTRACT: control_change channel=2 control=64 value=127 time=0
EXTRACT: note_on channel=4 note=69 velocity=85 time=0
EXTRACT: note_on channel=5 note=65 velocity=0 time=0
EXTRACT: note_on channel=5 note=60 velocity=0 time=0
EXTRACT: note_on channel=5 note=67 velocity=0 time=0
EXTRACT: note_on channel=5 note=62 velocity=82 time=0
EXTRACT: note_on channel=5 note=65 velocity=82 time=0
EXTRACT: note_on channel=5 note=60 velocity=82 time=0
EXTRACT: note_on channel=5 note=69 velocity=82 time=0
EXTRACT: note_on channel=7 note=38 velocity=0 time=0
EXTRACT: note_on channel=7 note=33 velocity=85 time=0
EXTRACT: note_on channel=9 note=38 velocity=38 time=0
EXTRACT: note_on channel=10 note=65 velocity=0 time=0
EXTRACT: note_on channel=10 note=60 velocity=0 time=0
EXTRACT: note_on channel=10 note=67 velocity=0 time=0
EXTRACT: note_on channel=10 note=62 velocity=78 time=0
EXTRACT: note_on channel=10 note=65 velocity=78 time=0
EXTRACT: note_on channel=10 note=60 velocity=78 time=0
EXTRACT: note_on channel=10 note=69 velocity=78 time=0
EXTRACT: note_on channel=11 note=69 velocity=78 time=0
EXTRACT: note_on channel=3 note=64 velocity=0 time=0.005376341666666667
EXTRACT: note_on channel=9 note=38 velocity=0 time=0
EXTRACT: note_on channel=3 note=50 velocity=0 time=0.10752683333333334
EXTRACT: note_on channel=1 note=38 velocity=0 time=0.021505366666666668
EXTRACT: note_on channel=1 note=38 velocity=81 time=0
EXTRACT: note_on channel=4 note=69 velocity=0 time=0
EXTRACT: note_on channel=4 note=69 velocity=85 time=0
EXTRACT: note_on channel=5 note=69 velocity=0 time=0
EXTRACT: note_on channel=5 note=62 velocity=0 time=0
EXTRACT: note_on channel=5 note=65 velocity=0 time=0
EXTRACT: note_on channel=5 note=60 velocity=0 time=0
EXTRACT: note_on channel=5 note=69 velocity=82 time=0
EXTRACT: note_on channel=5 note=65 velocity=82 time=0
EXTRACT: note_on channel=5 note=60 velocity=82 time=0
EXTRACT: note_on channel=5 note=62 velocity=82 time=0
EXTRACT: note_on channel=9 note=35 velocity=58 time=0
EXTRACT: note_on channel=9 note=38 velocity=58 time=0
EXTRACT: note_on channel=10 note=69 velocity=0 time=0
EXTRACT: note_on channel=10 note=62 velocity=0 time=0
EXTRACT: note_on channel=10 note=65 velocity=0 time=0
EXTRACT: note_on channel=10 note=60 velocity=0 time=0
EXTRACT: note_on channel=10 note=69 velocity=78 time=0
EXTRACT: note_on channel=10 note=65 velocity=78 time=0
EXTRACT: note_on channel=10 note=60 velocity=78 time=0
EXTRACT: note_on channel=10 note=62 velocity=78 time=0
EXTRACT: note_on channel=11 note=69 velocity=0 time=0
EXTRACT: note_on channel=11 note=69 velocity=78 time=0
EXTRACT: note_on channel=3 note=45 velocity=55 time=0.005376341666666667
EXTRACT: note_on channel=9 note=38 velocity=0 time=0
EXTRACT: note_on channel=9 note=35 velocity=0 time=0
EXTRACT: control_change channel=3 control=64 value=0 time=0.15053756666666668
EXTRACT: control_change channel=2 control=0 value=0 time=0
EXTRACT: note_on channel=4 note=69 velocity=0 time=0
EXTRACT: note_on channel=4 note=67 velocity=85 time=0
EXTRACT: note_on channel=5 note=62 velocity=0 time=0
EXTRACT: note_on channel=5 note=69 velocity=0 time=0
EXTRACT: note_on channel=5 note=65 velocity=0 time=0
EXTRACT: note_on channel=5 note=60 velocity=0 time=0
EXTRACT: note_on channel=5 note=67 velocity=82 time=0
EXTRACT: note_on channel=7 note=33 velocity=0 time=0
EXTRACT: note_on channel=7 note=38 velocity=85 time=0
EXTRACT: note_on channel=9 note=38 velocity=38 time=0
EXTRACT: note_on channel=10 note=62 velocity=0 time=0
EXTRACT: note_on channel=10 note=69 velocity=0 time=0
EXTRACT: note_on channel=10 note=65 velocity=0 time=0
EXTRACT: note_on channel=10 note=60 velocity=0 time=0
EXTRACT: note_on channel=10 note=67 velocity=78 time=0
EXTRACT: note_on channel=11 note=69 velocity=0 time=0
EXTRACT: note_on channel=11 note=67 velocity=78 time=0
EXTRACT: note_on channel=9 note=38 velocity=0 time=0.005376341666666667
EXTRACT: note_on channel=3 note=53 velocity=42 time=0.021505366666666668
EXTRACT: note_on channel=3 note=60 velocity=57 time=0.010752683333333334
EXTRACT: note_on channel=3 note=64 velocity=46 time=0
EXTRACT: note_on channel=4 note=67 velocity=0 time=0
EXTRACT: note_on channel=4 note=64 velocity=85 time=0
EXTRACT: note_on channel=5 note=67 velocity=0 time=0
EXTRACT: note_on channel=5 note=64 velocity=82 time=0
EXTRACT: note_on channel=9 note=38 velocity=48 time=0
EXTRACT: note_on channel=9 note=42 velocity=48 time=0
EXTRACT: note_on channel=10 note=67 velocity=0 time=0
EXTRACT: note_on channel=10 note=64 velocity=78 time=0
EXTRACT: note_on channel=11 note=67 velocity=0 time=0
EXTRACT: note_on channel=11 note=64 velocity=78 time=0
EXTRACT: note_on channel=9 note=42 velocity=0 time=0.005376341666666667
EXTRACT: note_on channel=9 note=38 velocity=0 time=0
EXTRACT: control_change channel=2 control=0 value=0 time=0
EXTRACT: note_on channel=4 note=64 velocity=0 time=0
EXTRACT: note_on channel=4 note=67 velocity=85 time=0
EXTRACT: note_on channel=5 note=64 velocity=0 time=0
EXTRACT: note_on channel=5 note=67 velocity=82 time=0
EXTRACT: note_on channel=5 note=64 velocity=82 time=0
EXTRACT: note_on channel=5 note=59 velocity=82 time=0
EXTRACT: note_on channel=7 note=38 velocity=0 time=0
EXTRACT: note_on channel=7 note=43 velocity=85 time=0
EXTRACT: note_on channel=9 note=38 velocity=58 time=0
EXTRACT: note_on channel=10 note=64 velocity=0 time=0
EXTRACT: note_on channel=10 note=67 velocity=78 time=0
EXTRACT: note_on channel=10 note=64 velocity=78 time=0
EXTRACT: note_on channel=10 note=59 velocity=78 time=0
EXTRACT: note_on channel=11 note=64 velocity=0 time=0
EXTRACT: note_on channel=11 note=67 velocity=78 time=0
EXTRACT: note_on channel=9 note=38 velocity=0 time=0.005376341666666667
EXTRACT: note_on channel=3 note=60 velocity=0 time=0.016129025
EXTRACT: note_on channel=1 note=38 velocity=0 time=0.03225805
EXTRACT: note_on channel=3 note=53 velocity=0 time=0.016129025
EXTRACT: note_on channel=3 note=45 velocity=0 time=0.021505366666666668
EXTRACT: note_on channel=3 note=64 velocity=0 time=0
EXTRACT: note_on channel=2 note=69 velocity=0 time=0.22043000833333334
EXTRACT: note_on channel=2 note=62 velocity=0 time=0
EXTRACT: note_on channel=2 note=60 velocity=0 time=0
EXTRACT: note_on channel=2 note=53 velocity=0 time=0
EXTRACT: note_on channel=2 note=57 velocity=0 time=0
EXTRACT: note_on channel=1 note=36 velocity=86 time=0.010752683333333334
EXTRACT: note_on channel=2 note=65 velocity=0 time=0
EXTRACT: control_change channel=2 control=0 value=0 time=0
EXTRACT: control_change channel=2 control=64 value=0 time=0
EXTRACT: note_on channel=3 note=48 velocity=56 time=0
EXTRACT: note_on channel=7 note=43 velocity=0 time=0
EXTRACT: note_on channel=7 note=36 velocity=85 time=0
EXTRACT: note_on channel=9 note=35 velocity=58 time=0
EXTRACT: note_on channel=9 note=38 velocity=50 time=0
EXTRACT: note_on channel=9 note=38 velocity=0 time=0.005376341666666667
EXTRACT: note_on channel=9 note=35 velocity=0 time=0
EXTRACT: note_on channel=2 note=74 velocity=62 time=0.005376341666666667
EXTRACT: note_on channel=4 note=67 velocity=0 time=0.30107513333333336
EXTRACT: note_on channel=11 note=67 velocity=0 time=0
EXTRACT: note_on channel=4 note=64 velocity=85 time=0
EXTRACT: note_on channel=5 note=59 velocity=0 time=0
EXTRACT: note_on channel=5 note=64 velocity=0 time=0
EXTRACT: note_on channel=5 note=67 velocity=0 time=0
EXTRACT: note_on channel=5 note=59 velocity=82 time=0
EXTRACT: note_on channel=5 note=55 velocity=82 time=0
EXTRACT: note_on channel=5 note=64 velocity=82 time=0
EXTRACT: note_on channel=9 note=38 velocity=38 time=0
EXTRACT: note_on channel=10 note=59 velocity=0 time=0
EXTRACT: note_on channel=10 note=64 velocity=0 time=0
EXTRACT: note_on channel=10 note=67 velocity=0 time=0
EXTRACT: note_on channel=10 note=59 velocity=78 time=0
EXTRACT: note_on channel=10 note=55 velocity=78 time=0
EXTRACT: note_on channel=10 note=64 velocity=78 time=0
EXTRACT: note_on channel=11 note=64 velocity=78 time=0
EXTRACT: note_on channel=9 note=38 velocity=0 time=0.005376341666666667
EXTRACT: control_change channel=3 control=64 value=127 time=0.23655903333333334
EXTRACT: note_on channel=3 note=52 velocity=49 time=0.06989244166666667
EXTRACT: note_on channel=3 note=62 velocity=58 time=0
EXTRACT: control_change channel=2 control=64 value=127 time=0.010752683333333334
EXTRACT: note_on channel=2 note=64 velocity=54 time=0
EXTRACT: note_on channel=2 note=62 velocity=54 time=0
EXTRACT: note_on channel=2 note=59 velocity=54 time=0
EXTRACT: note_on channel=2 note=67 velocity=54 time=0
EXTRACT: note_on channel=9 note=38 velocity=58 time=0
EXTRACT: note_on channel=9 note=42 velocity=48 time=0
EXTRACT: note_on channel=3 note=59 velocity=63 time=0.005376341666666667
EXTRACT: note_on channel=9 note=42 velocity=0 time=0
EXTRACT: note_on channel=9 note=38 velocity=0 time=0
EXTRACT: note_on channel=2 note=67 velocity=0 time=0.1935483
EXTRACT: note_on channel=2 note=62 velocity=0 time=0
EXTRACT: note_on channel=2 note=59 velocity=0 time=0
EXTRACT: note_on channel=2 note=64 velocity=0 time=0
EXTRACT: note_on channel=3 note=59 velocity=0 time=0.09139780833333334
EXTRACT: note_on channel=3 note=52 velocity=0 time=0
EXTRACT: note_on channel=4 note=64 velocity=0 time=0.021505366666666668
EXTRACT: note_on channel=11 note=64 velocity=0 time=0
EXTRACT: note_on channel=5 note=64 velocity=0 time=0.010752683333333334
EXTRACT: note_on channel=5 note=55 velocity=0 time=0
EXTRACT: note_on channel=5 note=59 velocity=0 time=0
EXTRACT: note_on channel=7 note=36 velocity=0 time=0
EXTRACT: note_on channel=7 note=31 velocity=85 time=0
EXTRACT: note_on channel=9 note=38 velocity=38 time=0
EXTRACT: note_on channel=10 note=64 velocity=0 time=0
EXTRACT: note_on channel=10 note=55 velocity=0 time=0
EXTRACT: note_on channel=10 note=59 velocity=0 time=0
EXTRACT: note_on channel=9 note=38 velocity=0 time=0.005376341666666667
EXTRACT: note_on channel=3 note=62 velocity=0 time=0.048387075
EXTRACT: note_on channel=3 note=48 velocity=0 time=0.005376341666666667
EXTRACT: note_on channel=1 note=43 velocity=75 time=0
EXTRACT: note_on channel=4 note=60 velocity=85 time=0
EXTRACT: note_on channel=5 note=60 velocity=82 time=0
EXTRACT: note_on channel=9 note=35 velocity=58 time=0
EXTRACT: note_on channel=9 note=38 velocity=58 time=0
EXTRACT: note_on channel=10 note=60 velocity=78 time=0
EXTRACT: note_on channel=11 note=60 velocity=78 time=0
EXTRACT: note_on channel=9 note=38 velocity=0 time=0.005376341666666667
EXTRACT: note_on channel=9 note=35 velocity=0 time=0
EXTRACT: note_on channel=1 note=36 velocity=0 time=0.03225805
EXTRACT: note_on channel=3 note=43 velocity=45 time=0
EXTRACT: note_on channel=2 note=64 velocity=54 time=0
EXTRACT: note_on channel=2 note=62 velocity=54 time=0
EXTRACT: note_on channel=2 note=59 velocity=54 time=0
EXTRACT: note_on channel=2 note=67 velocity=54 time=0
EXTRACT: note_on channel=4 note=60 velocity=0 time=0
EXTRACT: note_on channel=4 note=62 velocity=85 time=0
EXTRACT: note_on channel=5 note=60 velocity=0 time=0
EXTRACT: note_on channel=5 note=62 velocity=82 time=0
EXTRACT: note_on channel=7 note=31 velocity=0 time=0
EXTRACT: note_on channel=7 note=36 velocity=85 time=0
EXTRACT: note_on channel=9 note=38 velocity=38 time=0
EXTRACT: note_on channel=10 note=60 velocity=0 time=0
EXTRACT: note_on channel=10 note=62 velocity=78 time=0
EXTRACT: note_on channel=11 note=60 velocity=0 time=0
EXTRACT: note_on channel=11 note=62 velocity=78 time=0
EXTRACT: note_on channel=9 note=38 velocity=0 time=0.005376341666666667
EXTRACT: note_on channel=3 note=62 velocity=55 time=0.010752683333333334
EXTRACT: note_on channel=3 note=59 velocity=55 time=0
EXTRACT: note_on channel=3 note=52 velocity=39 time=0.016129025
EXTRACT: note_on channel=4 note=62 velocity=0 time=0
EXTRACT: note_on channel=4 note=62 velocity=85 time=0
EXTRACT: note_on channel=5 note=62 velocity=0 time=0
EXTRACT: note_on channel=5 note=62 velocity=82 time=0
EXTRACT: note_on channel=10 note=62 velocity=0 time=0
EXTRACT: note_on channel=10 note=62 velocity=78 time=0
EXTRACT: note_on channel=11 note=62 velocity=0 time=0
EXTRACT: note_on channel=11 note=62 velocity=78 time=0
EXTRACT: note_on channel=2 note=67 velocity=0 time=0.021505366666666668
EXTRACT: note_on channel=2 note=62 velocity=0 time=0
EXTRACT: note_on channel=2 note=59 velocity=0 time=0
EXTRACT: note_on channel=2 note=64 velocity=0 time=0
EXTRACT: note_on channel=3 note=59 velocity=0 time=0.09139780833333334
EXTRACT: note_on channel=3 note=52 velocity=0 time=0.016129025
EXTRACT: note_on channel=3 note=62 velocity=0 time=0.026881708333333334
EXTRACT: note_on channel=4 note=62 velocity=0 time=0
EXTRACT: note_on channel=4 note=64 velocity=85 time=0
EXTRACT: note_on channel=5 note=62 velocity=0 time=0
EXTRACT: note_on channel=5 note=64 velocity=82 time=0
EXTRACT: note_on channel=9 note=38 velocity=48 time=0
EXTRACT: note_on channel=9 note=42 velocity=48 time=0
EXTRACT: note_on channel=10 note=62 velocity=0 time=0
EXTRACT: note_on channel=10 note=64 velocity=78 time=0
EXTRACT: note_on channel=11 note=62 velocity=0 time=0
EXTRACT: note_on channel=11 note=64 velocity=78 time=0
EXTRACT: note_on channel=9 note=42 velocity=0 time=0.005376341666666667
EXTRACT: note_on channel=9 note=38 velocity=0 time=0
EXTRACT: note_on channel=3 note=43 velocity=0 time=0.03763439166666667
EXTRACT: note_on channel=1 note=43 velocity=0 time=0.09677415
EXTRACT: note_on channel=1 note=43 velocity=70 time=0
EXTRACT: note_on channel=4 note=64 velocity=0 time=0
EXTRACT: note_on channel=4 note=65 velocity=85 time=0
EXTRACT: note_on channel=5 note=64 velocity=0 time=0
EXTRACT: note_on channel=5 note=65 velocity=82 time=0
EXTRACT: note_on channel=7 note=36 velocity=0 time=0
EXTRACT: note_on channel=7 note=36 velocity=85 time=0
EXTRACT: note_on channel=9 note=38 velocity=58 time=0
EXTRACT: note_on channel=10 note=64 velocity=0 time=0
EXTRACT: note_on channel=10 note=65 velocity=78 time=0
EXTRACT: note_on channel=11 note=64 velocity=0 time=0
EXTRACT: note_on channel=11 note=65 velocity=78 time=0
EXTRACT: note_on channel=9 note=38 velocity=0 time=0.005376341666666667
EXTRACT: control_change channel=3 control=64 value=0 time=0.11827951666666667
EXTRACT: note_on channel=1 note=43 velocity=0 time=0.15591390833333335
EXTRACT: note_on channel=1 note=43 velocity=77 time=0
EXTRACT: note_on channel=2 note=74 velocity=0 time=0
EXTRACT: control_change channel=2 control=64 value=0 time=0
EXTRACT: control_change channel=3 control=0 value=0 time=0
EXTRACT: note_on channel=4 note=65 velocity=0 time=0
EXTRACT: note_on channel=4 note=64 velocity=85 time=0
EXTRACT: note_on channel=5 note=65 velocity=0 time=0
EXTRACT: note_on channel=5 note=60 velocity=82 time=0
EXTRACT: note_on channel=5 note=53 velocity=82 time=0
EXTRACT: note_on channel=5 note=64 velocity=82 time=0
EXTRACT: note_on channel=5 note=57 velocity=82 time=0
EXTRACT: note_on channel=7 note=36 velocity=0 time=0
EXTRACT: note_on channel=7 note=31 velocity=85 time=0
EXTRACT: note_on channel=9 note=35 velocity=58 time=0
EXTRACT: note_on channel=9 note=38 velocity=50 time=0
EXTRACT: note_on channel=10 note=65 velocity=0 time=0
EXTRACT: note_on channel=10 note=60 velocity=78 time=0
EXTRACT: note_on channel=10 note=53 velocity=78 time=0
EXTRACT: note_on channel=10 note=64 velocity=78 time=0
EXTRACT: note_on channel=10 note=57 velocity=78 time=0
EXTRACT: note_on channel=11 note=65 velocity=0 time=0
EXTRACT: note_on channel=11 note=64 velocity=78 time=0
EXTRACT: note_on channel=3 note=53 velocity=47 time=0.005376341666666667
EXTRACT: note_on channel=9 note=38 velocity=0 time=0
EXTRACT: note_on channel=9 note=35 velocity=0 time=0
EXTRACT: note_on channel=2 note=65 velocity=63 time=0.005376341666666667
EXTRACT: note_on channel=2 note=62 velocity=63 time=0
EXTRACT: note_on channel=2 note=60 velocity=63 time=0
EXTRACT: note_on channel=2 note=69 velocity=63 time=0
EXTRACT: note_on channel=3 note=60 velocity=59 time=0
EXTRACT: note_on channel=3 note=64 velocity=42 time=0.005376341666666667
EXTRACT: control_change channel=3 control=64 value=127 time=0.1827956166666667
EXTRACT: note_on channel=2 note=69 velocity=0 time=0.016129025
EXTRACT: note_on channel=2 note=65 velocity=0 time=0
EXTRACT: note_on channel=2 note=62 velocity=0 time=0
EXTRACT: note_on channel=2 note=60 velocity=0 time=0
EXTRACT: note_on channel=3 note=60 velocity=0 time=0.09677415
EXTRACT: note_on channel=9 note=38 velocity=38 time=0.010752683333333334
EXTRACT: note_on channel=9 note=38 velocity=0 time=0.005376341666666667
EXTRACT: note_on channel=3 note=53 velocity=0 time=0.043010733333333336
EXTRACT: note_on channel=3 note=64 velocity=0 time=0.048387075
EXTRACT: note_on channel=2 note=65 velocity=46 time=0.21505366666666667
EXTRACT: note_on channel=2 note=62 velocity=46 time=0
EXTRACT: note_on channel=2 note=60 velocity=46 time=0
EXTRACT: note_on channel=2 note=69 velocity=46 time=0
EXTRACT: note_on channel=4 note=64 velocity=0 time=0
EXTRACT: note_on channel=11 note=64 velocity=0 time=0
EXTRACT: note_on channel=4 note=62 velocity=85 time=0
EXTRACT: note_on channel=5 note=57 velocity=0 time=0
EXTRACT: note_on channel=5 note=60 velocity=0 time=0
EXTRACT: note_on channel=5 note=53 velocity=0 time=0
EXTRACT: note_on channel=5 note=64 velocity=0 time=0
EXTRACT: note_on channel=5 note=62 velocity=82 time=0
EXTRACT: note_on channel=9 note=38 velocity=58 time=0
EXTRACT: note_on channel=9 note=42 velocity=48 time=0
EXTRACT: note_on channel=10 note=57 velocity=0 time=0
EXTRACT: note_on channel=10 note=60 velocity=0 time=0
EXTRACT: note_on channel=10 note=53 velocity=0 time=0
EXTRACT: note_on channel=10 note=64 velocity=0 time=0
EXTRACT: note_on channel=10 note=62 velocity=78 time=0
EXTRACT: note_on channel=11 note=62 velocity=78 time=0
EXTRACT: note_on channel=9 note=42 velocity=0 time=0.005376341666666667
EXTRACT: note_on channel=9 note=38 velocity=0 time=0
EXTRACT: note_on channel=2 note=69 velocity=0 time=0.21505366666666667
EXTRACT: note_on channel=2 note=65 velocity=0 time=0
EXTRACT: note_on channel=2 note=62 velocity=0 time=0
EXTRACT: note_on channel=2 note=60 velocity=0 time=0
EXTRACT: note_on channel=1 note=43 velocity=0 time=0.021505366666666668
EXTRACT: note_on channel=1 note=43 velocity=83 time=0
EXTRACT: note_on channel=4 note=62 velocity=0 time=0
EXTRACT: note_on channel=4 note=62 velocity=85 time=0
EXTRACT: note_on channel=5 note=62 velocity=0 time=0
EXTRACT: note_on channel=5 note=62 velocity=82 time=0
EXTRACT: note_on channel=5 note=57 velocity=82 time=0
EXTRACT: note_on channel=5 note=53 velocity=82 time=0
EXTRACT: note_on channel=5 note=60 velocity=82 time=0
EXTRACT: note_on channel=7 note=31 velocity=0 time=0
EXTRACT: note_on channel=7 note=38 velocity=85 time=0
EXTRACT: note_on channel=9 note=38 velocity=38 time=0
EXTRACT: note_on channel=10 note=62 velocity=0 time=0
EXTRACT: note_on channel=10 note=62 velocity=78 time=0
EXTRACT: note_on channel=10 note=57 velocity=78 time=0
EXTRACT: note_on channel=10 note=53 velocity=78 time=0
EXTRACT: note_on channel=10 note=60 velocity=78 time=0
EXTRACT: note_on channel=11 note=62 velocity=0 time=0
EXTRACT: note_on channel=11 note=62 velocity=78 time=0
EXTRACT: note_on channel=9 note=38 velocity=0 time=0.005376341666666667
EXTRACT: note_on channel=3 note=64 velocity=52 time=0.03225805
EXTRACT: note_on channel=3 note=60 velocity=59 time=0.021505366666666668
EXTRACT: note_on channel=3 note=53 velocity=40 time=0.010752683333333334
EXTRACT: note_on channel=3 note=60 velocity=0 time=0.22580635000000002
EXTRACT: note_on channel=1 note=38 velocity=74 time=0.026881708333333334
EXTRACT: note_on channel=9 note=35 velocity=58 time=0
EXTRACT: note_on channel=9 note=38 velocity=58 time=0
EXTRACT: note_on channel=9 note=38 velocity=0 time=0.005376341666666667
EXTRACT: note_on channel=9 note=35 velocity=0 time=0
EXTRACT: note_on channel=3 note=64 velocity=0 time=0.021505366666666668
EXTRACT: note_on channel=1 note=43 velocity=0 time=0.010752683333333334
EXTRACT: note_on channel=3 note=53 velocity=0 time=0.010752683333333334
EXTRACT: note_on channel=7 note=38 velocity=0 time=0.274193425
EXTRACT: note_on channel=7 note=43 velocity=85 time=0
EXTRACT: note_on channel=9 note=38 velocity=38 time=0
EXTRACT: note_on channel=9 note=38 velocity=0 time=0.005376341666666667
EXTRACT: note_on channel=2 note=65 velocity=58 time=0.043010733333333336
EXTRACT: note_on channel=2 note=62 velocity=58 time=0
EXTRACT: note_on channel=2 note=60 velocity=58 time=0
EXTRACT: note_on channel=2 note=69 velocity=58 time=0
EXTRACT: note_on channel=2 note=69 velocity=0 time=0.24731171666666668
EXTRACT: note_on channel=2 note=65 velocity=0 time=0
EXTRACT: note_on channel=2 note=62 velocity=0 time=0
EXTRACT: note_on channel=2 note=60 velocity=0 time=0
EXTRACT: note_on channel=9 note=38 velocity=48 time=0.026881708333333334
EXTRACT: note_on channel=9 note=42 velocity=48 time=0
EXTRACT: note_on channel=3 note=53 velocity=55 time=0.005376341666666667
EXTRACT: note_on channel=3 note=60 velocity=55 time=0
EXTRACT: note_on channel=3 note=64 velocity=61 time=0
EXTRACT: note_on channel=9 note=42 velocity=0 time=0
EXTRACT: note_on channel=9 note=38 velocity=0 time=0
EXTRACT: note_on channel=1 note=38 velocity=0 time=0.03763439166666667
EXTRACT: note_on channel=3 note=60 velocity=0 time=0.16129025
EXTRACT: note_on channel=3 note=53 velocity=0 time=0.06989244166666667
EXTRACT: note_on channel=4 note=62 velocity=0 time=0.005376341666666667
EXTRACT: note_on channel=11 note=62 velocity=0 time=0
EXTRACT: note_on channel=3 note=64 velocity=0 time=0.005376341666666667
EXTRACT: note_on channel=1 note=38 velocity=76 time=0
EXTRACT: note_on channel=4 note=62 velocity=85 time=0
EXTRACT: note_on channel=5 note=60 velocity=0 time=0
EXTRACT: note_on channel=5 note=62 velocity=0 time=0
EXTRACT: note_on channel=5 note=57 velocity=0 time=0
EXTRACT: note_on channel=5 note=53 velocity=0 time=0
EXTRACT: note_on channel=5 note=62 velocity=82 time=0
EXTRACT: note_on channel=7 note=43 velocity=0 time=0
EXTRACT: note_on channel=7 note=38 velocity=85 time=0
EXTRACT: note_on channel=9 note=38 velocity=58 time=0
EXTRACT: note_on channel=10 note=60 velocity=0 time=0
EXTRACT: note_on channel=10 note=62 velocity=0 time=0
EXTRACT: note_on channel=10 note=57 velocity=0 time=0
EXTRACT: note_on channel=10 note=53 velocity=0 time=0
EXTRACT: note_on channel=10 note=62 velocity=78 time=0
EXTRACT: note_on channel=11 note=62 velocity=78 time=0
EXTRACT: note_on channel=9 note=38 velocity=0 time=0.005376341666666667
EXTRACT: note_on channel=4 note=62 velocity=0 time=0
EXTRACT: note_on channel=4 note=64 velocity=85 time=0
EXTRACT: note_on channel=5 note=62 velocity=0 time=0
EXTRACT: note_on channel=5 note=64 velocity=82 time=0
EXTRACT: note_on channel=10 note=62 velocity=0 time=0
EXTRACT: note_on channel=10 note=64 velocity=78 time=0
EXTRACT: note_on channel=11 note=62 velocity=0 time=0
EXTRACT: note_on channel=11 note=64 velocity=78 time=0
EXTRACT: note_on channel=1 note=43 velocity=75 time=0
EXTRACT: note_on channel=4 note=64 velocity=0 time=0
EXTRACT: note_on channel=4 note=65 velocity=85 time=0
EXTRACT: note_on channel=5 note=64 velocity=0 time=0
EXTRACT: note_on channel=5 note=65 velocity=82 time=0
EXTRACT: note_on channel=6 note=57 velocity=82 time=0
EXTRACT: note_on channel=6 note=60 velocity=82 time=0
EXTRACT: note_on channel=6 note=62 velocity=82 time=0
EXTRACT: note_on channel=7 note=38 velocity=0 time=0
EXTRACT: note_on channel=7 note=31 velocity=85 time=0
EXTRACT: note_on channel=9 note=35 velocity=58 time=0
EXTRACT: note_on channel=9 note=38 velocity=50 time=0
EXTRACT: note_on channel=10 note=64 velocity=0 time=0
EXTRACT: note_on channel=10 note=65 velocity=78 time=0
EXTRACT: note_on channel=11 note=64 velocity=0 time=0
EXTRACT: note_on channel=11 note=65 velocity=78 time=0
EXTRACT: note_on channel=9 note=38 velocity=0 time=0.005376341666666667
EXTRACT: note_on channel=9 note=35 velocity=0 time=0
EXTRACT: note_on channel=2 note=65 velocity=53 time=0.021505366666666668
EXTRACT: note_on channel=2 note=62 velocity=53 time=0
EXTRACT: note_on channel=2 note=60 velocity=53 time=0
EXTRACT: note_on channel=2 note=69 velocity=53 time=0
EXTRACT: note_on channel=1 note=38 velocity=0 time=0.043010733333333336
EXTRACT: note_on channel=4 note=65 velocity=0 time=0
EXTRACT: note_on channel=4 note=65 velocity=85 time=0
EXTRACT: note_on channel=5 note=65 velocity=0 time=0
EXTRACT: note_on channel=5 note=65 velocity=82 time=0
EXTRACT: note_on channel=9 note=38 velocity=38 time=0
EXTRACT: note_on channel=10 note=65 velocity=0 time=0
EXTRACT: note_on channel=10 note=65 velocity=78 time=0
EXTRACT: note_on channel=11 note=65 velocity=0 time=0
EXTRACT: note_on channel=11 note=65 velocity=78 time=0
EXTRACT: note_on channel=9 note=38 velocity=0 time=0.005376341666666667
EXTRACT: note_on channel=4 note=65 velocity=0 time=0
EXTRACT: note_on channel=4 note=65 velocity=85 time=0
EXTRACT: note_on channel=5 note=65 velocity=0 time=0
EXTRACT: note_on channel=5 note=65 velocity=82 time=0
EXTRACT: note_on channel=10 note=65 velocity=0 time=0
EXTRACT: note_on channel=10 note=65 velocity=78 time=0
EXTRACT: note_on channel=11 note=65 velocity=0 time=0
EXTRACT: note_on channel=11 note=65 velocity=78 time=0
EXTRACT: note_on channel=4 note=65 velocity=0 time=0
EXTRACT: note_on channel=4 note=65 velocity=85 time=0
EXTRACT: note_on channel=5 note=65 velocity=0 time=0
EXTRACT: note_on channel=5 note=65 velocity=82 time=0
EXTRACT: note_on channel=9 note=38 velocity=58 time=0
EXTRACT: note_on channel=9 note=42 velocity=48 time=0
EXTRACT: note_on channel=10 note=65 velocity=0 time=0
EXTRACT: note_on channel=10 note=65 velocity=78 time=0
EXTRACT: note_on channel=11 note=65 velocity=0 time=0
EXTRACT: note_on channel=11 note=65 velocity=78 time=0
EXTRACT: note_on channel=3 note=64 velocity=51 time=0.005376341666666667
EXTRACT: note_on channel=9 note=42 velocity=0 time=0
EXTRACT: note_on channel=9 note=38 velocity=0 time=0
EXTRACT: note_on channel=3 note=53 velocity=48 time=0.005376341666666667
EXTRACT: note_on channel=3 note=60 velocity=59 time=0
EXTRACT: note_on channel=2 note=69 velocity=0 time=0.03763439166666667
EXTRACT: note_on channel=2 note=65 velocity=0 time=0
EXTRACT: note_on channel=2 note=62 velocity=0 time=0
EXTRACT: note_on channel=2 note=60 velocity=0 time=0
EXTRACT: note_on channel=1 note=43 velocity=0 time=0.08602146666666667
EXTRACT: note_on channel=3 note=60 velocity=0 time=0.10215049166666668
EXTRACT: note_on channel=3 note=64 velocity=0 time=0.03763439166666667
EXTRACT: note_on channel=3 note=53 velocity=0 time=0.026881708333333334
EXTRACT: note_on channel=1 note=43 velocity=80 time=0
EXTRACT: note_on channel=4 note=65 velocity=0 time=0
EXTRACT: note_on channel=4 note=67 velocity=85 time=0
EXTRACT: note_on channel=5 note=65 velocity=0 time=0
EXTRACT: note_on channel=5 note=67 velocity=82 time=0
EXTRACT: note_on channel=6 note=62 velocity=0 time=0
EXTRACT: note_on channel=6 note=60 velocity=0 time=0
EXTRACT: note_on channel=6 note=57 velocity=0 time=0
EXTRACT: note_on channel=6 note=57 velocity=82 time=0
EXTRACT: note_on channel=6 note=60 velocity=82 time=0
EXTRACT: note_on channel=6 note=64 velocity=82 time=0
EXTRACT: note_on channel=7 note=31 velocity=0 time=0
EXTRACT: note_on channel=7 note=38 velocity=85 time=0
EXTRACT: note_on channel=9 note=38 velocity=38 time=0
EXTRACT: note_on channel=10 note=65 velocity=0 time=0
EXTRACT: note_on channel=10 note=67 velocity=78 time=0
EXTRACT: note_on channel=11 note=65 velocity=0 time=0
EXTRACT: note_on channel=11 note=67 velocity=78 time=0
EXTRACT: note_on channel=9 note=38 velocity=0 time=0.005376341666666667
EXTRACT: note_on channel=2 note=65 velocity=59 time=0.03763439166666667
EXTRACT: note_on channel=2 note=62 velocity=59 time=0
EXTRACT: note_on channel=2 note=60 velocity=59 time=0
EXTRACT: note_on channel=2 note=69 velocity=59 time=0
EXTRACT: note_on channel=1 note=38 velocity=74 time=0
EXTRACT: note_on channel=4 note=67 velocity=0 time=0
EXTRACT: note_on channel=4 note=69 velocity=85 time=0
EXTRACT: note_on channel=5 note=67 velocity=0 time=0
EXTRACT: note_on channel=5 note=69 velocity=82 time=0
EXTRACT: note_on channel=6 note=64 velocity=0 time=0
EXTRACT: note_on channel=6 note=60 velocity=0 time=0
EXTRACT: note_on channel=6 note=57 velocity=0 time=0
EXTRACT: note_on channel=6 note=60 velocity=82 time=0
EXTRACT: note_on channel=6 note=62 velocity=82 time=0
EXTRACT: note_on channel=6 note=65 velocity=82 time=0
EXTRACT: note_on channel=9 note=35 velocity=58 time=0
EXTRACT: note_on channel=9 note=38 velocity=58 time=0
EXTRACT: note_on channel=10 note=67 velocity=0 time=0
EXTRACT: note_on channel=10 note=69 velocity=78 time=0
EXTRACT: note_on channel=11 note=67 velocity=0 time=0
EXTRACT: note_on channel=11 note=69 velocity=78 time=0
EXTRACT: note_on channel=9 note=38 velocity=0 time=0.005376341666666667
EXTRACT: note_on channel=9 note=35 velocity=0 time=0
EXTRACT: note_on channel=1 note=43 velocity=0 time=0.016129025
EXTRACT: note_on channel=4 note=69 velocity=0 time=0
EXTRACT: note_on channel=4 note=67 velocity=85 time=0
EXTRACT: note_on channel=5 note=69 velocity=0 time=0
EXTRACT: note_on channel=5 note=67 velocity=82 time=0
EXTRACT: note_on channel=6 note=65 velocity=0 time=0
EXTRACT: note_on channel=6 note=62 velocity=0 time=0
EXTRACT: note_on channel=6 note=60 velocity=0 time=0
EXTRACT: note_on channel=7 note=38 velocity=0 time=0
EXTRACT: note_on channel=7 note=43 velocity=85 time=0
EXTRACT: note_on channel=9 note=38 velocity=38 time=0
EXTRACT: note_on channel=10 note=69 velocity=0 time=0
EXTRACT: note_on channel=10 note=67 velocity=78 time=0
EXTRACT: note_on channel=11 note=69 velocity=0 time=0
EXTRACT: note_on channel=11 note=67 velocity=78 time=0
EXTRACT: note_on channel=3 note=64 velocity=45 time=0.005376341666666667
EXTRACT: note_on channel=9 note=38 velocity=0 time=0
EXTRACT: note_on channel=3 note=60 velocity=60 time=0.021505366666666668
EXTRACT: note_on channel=3 note=53 velocity=49 time=0.010752683333333334
EXTRACT: note_on channel=3 note=60 velocity=0 time=0.16666659166666667
EXTRACT: note_on channel=3 note=53 velocity=0 time=0.043010733333333336
EXTRACT: note_on channel=3 note=64 velocity=0 time=0
EXTRACT: note_on channel=1 note=38 velocity=0 time=0
EXTRACT: note_on channel=1 note=43 velocity=83 time=0
EXTRACT: note_on channel=4 note=67 velocity=0 time=0
EXTRACT: note_on channel=4 note=69 velocity=85 time=0
EXTRACT: note_on channel=5 note=67 velocity=0 time=0
EXTRACT: note_on channel=5 note=69 velocity=82 time=0
EXTRACT: note_on channel=6 note=60 velocity=82 time=0
EXTRACT: note_on channel=6 note=62 velocity=82 time=0
EXTRACT: note_on channel=6 note=65 velocity=82 time=0
EXTRACT: note_on channel=9 note=38 velocity=48 time=0
EXTRACT: note_on channel=9 note=42 velocity=48 time=0
EXTRACT: note_on channel=10 note=67 velocity=0 time=0
EXTRACT: note_on channel=10 note=69 velocity=78 time=0
EXTRACT: note_on channel=11 note=67 velocity=0 time=0
EXTRACT: note_on channel=11 note=69 velocity=78 time=0
EXTRACT: note_on channel=9 note=42 velocity=0 time=0.005376341666666667
EXTRACT: note_on channel=9 note=38 velocity=0 time=0
EXTRACT: control_change channel=3 control=64 value=0 time=0.24731171666666668
EXTRACT: note_on channel=2 note=69 velocity=0 time=0.043010733333333336
EXTRACT: note_on channel=2 note=65 velocity=0 time=0
EXTRACT: note_on channel=2 note=62 velocity=0 time=0
EXTRACT: note_on channel=2 note=60 velocity=0 time=0
EXTRACT: note_on channel=4 note=69 velocity=0 time=0
EXTRACT: note_on channel=4 note=71 velocity=85 time=0
EXTRACT: note_on channel=5 note=69 velocity=0 time=0
EXTRACT: note_on channel=5 note=71 velocity=82 time=0
EXTRACT: note_on channel=6 note=65 velocity=0 time=0
EXTRACT: note_on channel=6 note=62 velocity=0 time=0
EXTRACT: note_on channel=6 note=60 velocity=0 time=0
EXTRACT: note_on channel=7 note=43 velocity=0 time=0
EXTRACT: note_on channel=7 note=43 velocity=85 time=0
EXTRACT: note_on channel=9 note=38 velocity=58 time=0
EXTRACT: note_on channel=10 note=69 velocity=0 time=0
EXTRACT: note_on channel=10 note=71 velocity=78 time=0
EXTRACT: note_on channel=11 note=69 velocity=0 time=0
EXTRACT: note_on channel=11 note=71 velocity=78 time=0
EXTRACT: note_on channel=9 note=38 velocity=0 time=0.005376341666666667
EXTRACT: note_on channel=1 note=43 velocity=0 time=0.2580644
EXTRACT: note_on channel=1 note=45 velocity=80 time=0
EXTRACT: control_change channel=2 control=64 value=127 time=0
EXTRACT: control_change channel=2 control=64 value=0 time=0
EXTRACT: note_on channel=4 note=71 velocity=0 time=0
EXTRACT: note_on channel=4 note=72 velocity=85 time=0
EXTRACT: note_on channel=5 note=71 velocity=0 time=0
EXTRACT: note_on channel=5 note=67 velocity=82 time=0
EXTRACT: note_on channel=5 note=64 velocity=82 time=0
EXTRACT: note_on channel=5 note=72 velocity=82 time=0
EXTRACT: note_on channel=5 note=69 velocity=82 time=0
EXTRACT: note_on channel=7 note=43 velocity=0 time=0
EXTRACT: note_on channel=7 note=33 velocity=85 time=0
EXTRACT: note_on channel=9 note=35 velocity=58 time=0
EXTRACT: note_on channel=9 note=38 velocity=50 time=0
EXTRACT: note_on channel=10 note=71 velocity=0 time=0
EXTRACT: note_on channel=10 note=67 velocity=78 time=0
EXTRACT: note_on channel=10 note=64 velocity=78 time=0
EXTRACT: note_on channel=10 note=72 velocity=78 time=0
EXTRACT: note_on channel=10 note=69 velocity=78 time=0
EXTRACT: note_on channel=11 note=71 velocity=0 time=0
EXTRACT: note_on channel=11 note=72 velocity=78 time=0
EXTRACT: note_on channel=9 note=38 velocity=0 time=0.005376341666666667
EXTRACT: note_on channel=9 note=35 velocity=0 time=0
EXTRACT: note_on channel=3 note=48 velocity=44 time=0.005376341666666667
EXTRACT: note_on channel=3 note=45 velocity=55 time=0
EXTRACT: note_on channel=3 note=55 velocity=66 time=0
EXTRACT: note_on channel=3 note=57 velocity=64 time=0
EXTRACT: control_change channel=3 control=64 value=127 time=0.1935483
EXTRACT: note_on channel=4 note=72 velocity=0 time=0.11827951666666667
EXTRACT: note_on channel=5 note=69 velocity=0 time=0
EXTRACT: note_on channel=5 note=67 velocity=0 time=0
EXTRACT: note_on channel=5 note=64 velocity=0 time=0
EXTRACT: note_on channel=5 note=72 velocity=0 time=0
EXTRACT: note_on channel=9 note=38 velocity=38 time=0
EXTRACT: note_on channel=10 note=69 velocity=0 time=0
EXTRACT: note_on channel=10 note=67 velocity=0 time=0
EXTRACT: note_on channel=10 note=64 velocity=0 time=0
EXTRACT: note_on channel=10 note=72 velocity=0 time=0
EXTRACT: note_on channel=11 note=72 velocity=0 time=0
EXTRACT: note_on channel=9 note=38 velocity=0 time=0.005376341666666667
EXTRACT: note_on channel=3 note=55 velocity=0 time=0.010752683333333334
EXTRACT: note_on channel=3 note=48 velocity=0 time=0.0645161
EXTRACT: note_on channel=3 note=57 velocity=0 time=0.026881708333333334
EXTRACT: note_on channel=2 note=67 velocity=55 time=0
EXTRACT: note_on channel=2 note=64 velocity=55 time=0
EXTRACT: note_on channel=2 note=60 velocity=55 time=0
EXTRACT: note_on channel=2 note=69 velocity=55 time=0
EXTRACT: note_on channel=4 note=69 velocity=85 time=0
EXTRACT: note_on channel=5 note=69 velocity=82 time=0
EXTRACT: note_on channel=9 note=38 velocity=58 time=0
EXTRACT: note_on channel=9 note=42 velocity=48 time=0
EXTRACT: note_on channel=10 note=69 velocity=78 time=0
EXTRACT: note_on channel=11 note=69 velocity=78 time=0
EXTRACT: note_on channel=9 note=42 velocity=0 time=0.005376341666666667
EXTRACT: note_on channel=9 note=38 velocity=0 time=0
EXTRACT: note_on channel=3 note=57 velocity=52 time=0.3118278166666667
EXTRACT: note_on channel=3 note=48 velocity=45 time=0
EXTRACT: control_change channel=2 control=64 value=127 time=0
EXTRACT: note_on channel=4 note=69 velocity=0 time=0
EXTRACT: note_on channel=4 note=69 velocity=85 time=0
EXTRACT: note_on channel=5 note=69 velocity=0 time=0
EXTRACT: note_on channel=5 note=69 velocity=82 time=0
EXTRACT: note_on channel=9 note=38 velocity=38 time=0
EXTRACT: note_on channel=10 note=69 velocity=0 time=0
EXTRACT: note_on channel=10 note=69 velocity=78 time=0
EXTRACT: note_on channel=11 note=69 velocity=0 time=0
EXTRACT: note_on channel=11 note=69 velocity=78 time=0
EXTRACT: note_on channel=3 note=55 velocity=65 time=0.005376341666666667
EXTRACT: note_on channel=9 note=38 velocity=0 time=0
EXTRACT: note_on channel=2 note=69 velocity=0 time=0.07526878333333334
EXTRACT: note_on channel=2 note=67 velocity=0 time=0
EXTRACT: note_on channel=2 note=64 velocity=0 time=0
EXTRACT: note_on channel=2 note=60 velocity=0 time=0
EXTRACT: note_on channel=3 note=45 velocity=0 time=0.09677415
EXTRACT: note_on channel=1 note=40 velocity=77 time=0
EXTRACT: note_on channel=3 note=40 velocity=54 time=0
EXTRACT: note_on channel=4 note=69 velocity=0 time=0
EXTRACT: note_on channel=4 note=69 velocity=85 time=0
EXTRACT: note_on channel=5 note=69 velocity=0 time=0
EXTRACT: note_on channel=5 note=64 velocity=82 time=0
EXTRACT: note_on channel=5 note=60 velocity=82 time=0
EXTRACT: note_on channel=5 note=69 velocity=82 time=0
EXTRACT: note_on channel=7 note=33 velocity=0 time=0
EXTRACT: note_on channel=7 note=33 velocity=85 time=0
EXTRACT: note_on channel=9 note=35 velocity=58 time=0
EXTRACT: note_on channel=9 note=38 velocity=58 time=0
EXTRACT: note_on channel=10 note=69 velocity=0 time=0
EXTRACT: note_on channel=10 note=64 velocity=78 time=0
EXTRACT: note_on channel=10 note=60 velocity=78 time=0
EXTRACT: note_on channel=10 note=69 velocity=78 time=0
EXTRACT: note_on channel=11 note=69 velocity=0 time=0
EXTRACT: note_on channel=11 note=69 velocity=78 time=0
EXTRACT: note_on channel=9 note=38 velocity=0 time=0.005376341666666667
EXTRACT: note_on channel=9 note=35 velocity=0 time=0
EXTRACT: note_on channel=1 note=45 velocity=0 time=0.080645125
EXTRACT: control_change channel=3 control=64 value=0 time=0.03763439166666667
EXTRACT: note_on channel=2 note=67 velocity=55 time=0
EXTRACT: note_on channel=2 note=64 velocity=55 time=0
EXTRACT: note_on channel=2 note=60 velocity=55 time=0
EXTRACT: note_on channel=2 note=69 velocity=55 time=0
EXTRACT: note_on channel=4 note=69 velocity=0 time=0
EXTRACT: note_on channel=4 note=67 velocity=85 time=0
EXTRACT: note_on channel=5 note=69 velocity=0 time=0
EXTRACT: note_on channel=5 note=60 velocity=0 time=0
EXTRACT: note_on channel=5 note=64 velocity=0 time=0
EXTRACT: note_on channel=5 note=67 velocity=82 time=0
EXTRACT: note_on channel=9 note=38 velocity=38 time=0
EXTRACT: note_on channel=10 note=69 velocity=0 time=0
EXTRACT: note_on channel=10 note=60 velocity=0 time=0
EXTRACT: note_on channel=10 note=64 velocity=0 time=0
EXTRACT: note_on channel=10 note=67 velocity=78 time=0
EXTRACT: note_on channel=11 note=69 velocity=0 time=0
EXTRACT: note_on channel=11 note=67 velocity=78 time=0
EXTRACT: note_on channel=9 note=38 velocity=0 time=0.005376341666666667
EXTRACT: note_on channel=2 note=69 velocity=0 time=0.1290322
EXTRACT: note_on channel=2 note=67 velocity=0 time=0
EXTRACT: note_on channel=2 note=64 velocity=0 time=0
EXTRACT: note_on channel=2 note=60 velocity=0 time=0
EXTRACT: control_change channel=3 control=64 value=127 time=0.03763439166666667
EXTRACT: note_on channel=3 note=55 velocity=0 time=0.10215049166666668
EXTRACT: note_on channel=3 note=57 velocity=0 time=0.016129025
EXTRACT: note_on channel=3 note=48 velocity=0 time=0
EXTRACT: note_on channel=4 note=67 velocity=0 time=0
EXTRACT: note_on channel=4 note=64 velocity=85 time=0
EXTRACT: note_on channel=5 note=67 velocity=0 time=0
EXTRACT: note_on channel=5 note=64 velocity=82 time=0
EXTRACT: note_on channel=7 note=33 velocity=0 time=0
EXTRACT: note_on channel=7 note=45 velocity=85 time=0
EXTRACT: note_on channel=9 note=38 velocity=48 time=0
EXTRACT: note_on channel=9 note=42 velocity=48 time=0
EXTRACT: note_on channel=10 note=67 velocity=0 time=0
EXTRACT: note_on channel=10 note=64 velocity=78 time=0
EXTRACT: note_on channel=11 note=67 velocity=0 time=0
EXTRACT: note_on channel=11 note=64 velocity=78 time=0
EXTRACT: note_on channel=9 note=42 velocity=0 time=0.005376341666666667
EXTRACT: note_on channel=9 note=38 velocity=0 time=0
EXTRACT: note_on channel=3 note=48 velocity=45 time=0.010752683333333334
EXTRACT: note_on channel=3 note=55 velocity=45 time=0
EXTRACT: note_on channel=3 note=57 velocity=40 time=0.016129025
EXTRACT: note_on channel=4 note=64 velocity=0 time=0
EXTRACT: note_on channel=4 note=67 velocity=85 time=0
EXTRACT: note_on channel=5 note=64 velocity=0 time=0
EXTRACT: note_on channel=5 note=62 velocity=82 time=0
EXTRACT: note_on channel=5 note=59 velocity=82 time=0
EXTRACT: note_on channel=5 note=67 velocity=82 time=0
EXTRACT: note_on channel=9 note=38 velocity=58 time=0
EXTRACT: note_on channel=10 note=64 velocity=0 time=0
EXTRACT: note_on channel=10 note=62 velocity=78 time=0
EXTRACT: note_on channel=10 note=59 velocity=78 time=0
EXTRACT: note_on channel=10 note=67 velocity=78 time=0
EXTRACT: note_on channel=11 note=64 velocity=0 time=0
EXTRACT: note_on channel=11 note=67 velocity=78 time=0
EXTRACT: note_on channel=9 note=38 velocity=0 time=0.005376341666666667
EXTRACT: note_on channel=3 note=55 velocity=0 time=0.021505366666666668
EXTRACT: note_on channel=3 note=40 velocity=0 time=0.026881708333333334
EXTRACT: note_on channel=3 note=48 velocity=0 time=0
EXTRACT: note_on channel=3 note=57 velocity=0 time=0.10752683333333334
EXTRACT: note_on channel=1 note=40 velocity=0 time=0.16129025
EXTRACT: note_on channel=1 note=40 velocity=87 time=0
EXTRACT: control_change channel=2 control=64 value=0 time=0
EXTRACT: control_change channel=3 control=64 value=0 time=0
EXTRACT: note_on channel=3 note=40 velocity=56 time=0
EXTRACT: note_on channel=7 note=45 velocity=0 time=0
EXTRACT: note_on channel=7 note=40 velocity=85 time=0
EXTRACT: note_on channel=9 note=35 velocity=58 time=0
EXTRACT: note_on channel=9 note=38 velocity=50 time=0
EXTRACT: note_on channel=9 note=38 velocity=0 time=0.005376341666666667
EXTRACT: note_on channel=9 note=35 velocity=0 time=0
EXTRACT: note_on channel=2 note=50 velocity=49 time=0.005376341666666667
EXTRACT: note_on channel=2 note=52 velocity=47 time=0
EXTRACT: note_on channel=2 note=55 velocity=55 time=0
EXTRACT: note_on channel=2 note=59 velocity=51 time=0
EXTRACT: note_on channel=2 note=64 velocity=59 time=0
EXTRACT: note_on channel=4 note=67 velocity=0 time=0.30107513333333336
EXTRACT: note_on channel=11 note=67 velocity=0 time=0
EXTRACT: note_on channel=4 note=64 velocity=85 time=0
EXTRACT: note_on channel=5 note=67 velocity=0 time=0
EXTRACT: note_on channel=5 note=59 velocity=0 time=0
EXTRACT: note_on channel=5 note=62 velocity=0 time=0
EXTRACT: note_on channel=5 note=64 velocity=82 time=0
EXTRACT: note_on channel=5 note=55 velocity=82 time=0
EXTRACT: note_on channel=5 note=62 velocity=82 time=0
EXTRACT: note_on channel=5 note=59 velocity=82 time=0
EXTRACT: note_on channel=9 note=38 velocity=38 time=0
EXTRACT: note_on channel=10 note=67 velocity=0 time=0
EXTRACT: note_on channel=10 note=59 velocity=0 time=0
EXTRACT: note_on channel=10 note=62 velocity=0 time=0
EXTRACT: note_on channel=10 note=64 velocity=78 time=0
EXTRACT: note_on channel=10 note=55 velocity=78 time=0
EXTRACT: note_on channel=10 note=62 velocity=78 time=0
EXTRACT: note_on channel=10 note=59 velocity=78 time=0
EXTRACT: note_on channel=11 note=64 velocity=78 time=0
EXTRACT: note_on channel=9 note=38 velocity=0 time=0.005376341666666667
EXTRACT: note_on channel=2 note=62 velocity=56 time=0.0645161
EXTRACT: control_change channel=3 control=64 value=127 time=0.17204293333333334
EXTRACT: note_on channel=3 note=50 velocity=49 time=0.06989244166666667
EXTRACT: note_on channel=3 note=59 velocity=58 time=0
EXTRACT: note_on channel=9 note=38 velocity=58 time=0.010752683333333334
EXTRACT: note_on channel=9 note=42 velocity=48 time=0
EXTRACT: note_on channel=3 note=55 velocity=63 time=0.005376341666666667
EXTRACT: note_on channel=9 note=42 velocity=0 time=0
EXTRACT: note_on channel=9 note=38 velocity=0 time=0
EXTRACT: note_on channel=3 note=55 velocity=0 time=0.28494610833333334
EXTRACT: note_on channel=3 note=50 velocity=0 time=0
EXTRACT: control_change channel=2 control=64 value=127 time=0.03225805
EXTRACT: note_on channel=9 note=38 velocity=38 time=0
EXTRACT: note_on channel=9 note=38 velocity=0 time=0.005376341666666667
EXTRACT: note_on channel=3 note=59 velocity=0 time=0.048387075
EXTRACT: note_on channel=3 note=40 velocity=0 time=0.005376341666666667
EXTRACT: note_on channel=4 note=64 velocity=0 time=0.23655903333333334
EXTRACT: note_on channel=11 note=64 velocity=0 time=0
EXTRACT: note_on channel=1 note=35 velocity=79 time=0
EXTRACT: note_on channel=4 note=69 velocity=85 time=0
EXTRACT: note_on channel=5 note=59 velocity=0 time=0
EXTRACT: note_on channel=5 note=64 velocity=0 time=0
EXTRACT: note_on channel=5 note=55 velocity=0 time=0
EXTRACT: note_on channel=5 note=62 velocity=0 time=0
EXTRACT: note_on channel=5 note=64 velocity=82 time=0
EXTRACT: note_on channel=5 note=59 velocity=82 time=0
EXTRACT: note_on channel=5 note=69 velocity=82 time=0
EXTRACT: note_on channel=7 note=40 velocity=0 time=0
EXTRACT: note_on channel=7 note=40 velocity=85 time=0
EXTRACT: note_on channel=9 note=35 velocity=58 time=0
EXTRACT: note_on channel=9 note=38 velocity=58 time=0
EXTRACT: note_on channel=10 note=59 velocity=0 time=0
EXTRACT: note_on channel=10 note=64 velocity=0 time=0
EXTRACT: note_on channel=10 note=55 velocity=0 time=0
EXTRACT: note_on channel=10 note=62 velocity=0 time=0
EXTRACT: note_on channel=10 note=64 velocity=78 time=0
EXTRACT: note_on channel=10 note=59 velocity=78 time=0
EXTRACT: note_on channel=10 note=69 velocity=78 time=0
EXTRACT: note_on channel=11 note=69 velocity=78 time=0
EXTRACT: note_on channel=9 note=38 velocity=0 time=0.005376341666666667
EXTRACT: note_on channel=9 note=35 velocity=0 time=0
EXTRACT: note_on channel=3 note=35 velocity=45 time=0.03225805
EXTRACT: note_on channel=1 note=40 velocity=0 time=0.12365585833333334
EXTRACT: control_change channel=2 control=0 value=0 time=0
EXTRACT: note_on channel=4 note=69 velocity=0 time=0
EXTRACT: note_on channel=4 note=67 velocity=85 time=0
EXTRACT: note_on channel=5 note=69 velocity=0 time=0
EXTRACT: note_on channel=5 note=59 velocity=0 time=0
EXTRACT: note_on channel=5 note=64 velocity=0 time=0
EXTRACT: note_on channel=5 note=67 velocity=82 time=0
EXTRACT: note_on channel=7 note=40 velocity=0 time=0
EXTRACT: note_on channel=7 note=43 velocity=85 time=0
EXTRACT: note_on channel=9 note=38 velocity=38 time=0
EXTRACT: note_on channel=10 note=69 velocity=0 time=0
EXTRACT: note_on channel=10 note=59 velocity=0 time=0
EXTRACT: note_on channel=10 note=64 velocity=0 time=0
EXTRACT: note_on channel=10 note=67 velocity=78 time=0
EXTRACT: note_on channel=11 note=69 velocity=0 time=0
EXTRACT: note_on channel=11 note=67 velocity=78 time=0
EXTRACT: note_on channel=9 note=38 velocity=0 time=0.005376341666666667
EXTRACT: note_on channel=3 note=59 velocity=55 time=0.010752683333333334
EXTRACT: note_on channel=3 note=55 velocity=55 time=0
EXTRACT: note_on channel=3 note=50 velocity=39 time=0.016129025
EXTRACT: note_on channel=3 note=55 velocity=0 time=0.241935375
EXTRACT: note_on channel=3 note=50 velocity=0 time=0.016129025
EXTRACT: note_on channel=3 note=59 velocity=0 time=0.026881708333333334
EXTRACT: note_on channel=4 note=67 velocity=0 time=0
EXTRACT: note_on channel=4 note=69 velocity=85 time=0
EXTRACT: note_on channel=5 note=67 velocity=0 time=0
EXTRACT: note_on channel=5 note=69 velocity=82 time=0
EXTRACT: note_on channel=9 note=38 velocity=48 time=0
EXTRACT: note_on channel=9 note=42 velocity=48 time=0
EXTRACT: note_on channel=10 note=67 velocity=0 time=0
EXTRACT: note_on channel=10 note=69 velocity=78 time=0
EXTRACT: note_on channel=11 note=67 velocity=0 time=0
EXTRACT: note_on channel=11 note=69 velocity=78 time=0
EXTRACT: note_on channel=9 note=42 velocity=0 time=0.005376341666666667
EXTRACT: note_on channel=9 note=38 velocity=0 time=0
EXTRACT: note_on channel=3 note=35 velocity=0 time=0.03763439166666667
EXTRACT: control_change channel=2 control=0 value=0 time=0.145161225
EXTRACT: note_on channel=4 note=69 velocity=0 time=0
EXTRACT: note_on channel=4 note=72 velocity=85 time=0
EXTRACT: note_on channel=5 note=69 velocity=0 time=0
EXTRACT: note_on channel=5 note=67 velocity=82 time=0
EXTRACT: note_on channel=5 note=64 velocity=82 time=0
EXTRACT: note_on channel=5 note=72 velocity=82 time=0
EXTRACT: note_on channel=5 note=69 velocity=82 time=0
EXTRACT: note_on channel=7 note=43 velocity=0 time=0
EXTRACT: note_on channel=7 note=45 velocity=85 time=0
EXTRACT: note_on channel=9 note=38 velocity=58 time=0
EXTRACT: note_on channel=10 note=69 velocity=0 time=0
EXTRACT: note_on channel=10 note=67 velocity=78 time=0
EXTRACT: note_on channel=10 note=64 velocity=78 time=0
EXTRACT: note_on channel=10 note=72 velocity=78 time=0
EXTRACT: note_on channel=10 note=69 velocity=78 time=0
EXTRACT: note_on channel=11 note=69 velocity=0 time=0
EXTRACT: note_on channel=11 note=72 velocity=78 time=0
EXTRACT: note_on channel=9 note=38 velocity=0 time=0.005376341666666667
EXTRACT: note_on channel=2 note=62 velocity=0 time=0.021505366666666668
EXTRACT: note_on channel=2 note=52 velocity=0 time=0
EXTRACT: note_on channel=2 note=55 velocity=0 time=0
EXTRACT: note_on channel=2 note=50 velocity=0 time=0
EXTRACT: note_on channel=2 note=64 velocity=0 time=0
EXTRACT: note_on channel=2 note=59 velocity=0 time=0
EXTRACT: control_change channel=2 control=0 value=0 time=0.05376341666666667
EXTRACT: control_change channel=2 control=64 value=0 time=0
EXTRACT: note_on channel=2 note=69 velocity=62 time=0.010752683333333334
EXTRACT: control_change channel=3 control=64 value=0 time=0.03225805
EXTRACT: note_on channel=1 note=35 velocity=0 time=0.19892464166666668
EXTRACT: note_on channel=1 note=33 velocity=77 time=0
EXTRACT: control_change channel=3 control=0 value=0 time=0
EXTRACT: note_on channel=3 note=45 velocity=53 time=0
EXTRACT: note_on channel=3 note=59 velocity=45 time=0
EXTRACT: note_on channel=3 note=55 velocity=59 time=0
EXTRACT: note_on channel=3 note=48 velocity=49 time=0
EXTRACT: note_on channel=7 note=45 velocity=0 time=0
EXTRACT: note_on channel=7 note=33 velocity=85 time=0
EXTRACT: note_on channel=9 note=35 velocity=58 time=0
EXTRACT: note_on channel=9 note=38 velocity=50 time=0
EXTRACT: note_on channel=9 note=38 velocity=0 time=0.005376341666666667
EXTRACT: note_on channel=9 note=35 velocity=0 time=0
EXTRACT: control_change channel=3 control=64 value=127 time=0.22043000833333334
EXTRACT: note_on channel=3 note=55 velocity=0 time=0.010752683333333334
EXTRACT: note_on channel=3 note=48 velocity=0 time=0.06989244166666667
EXTRACT: note_on channel=3 note=59 velocity=0 time=0
EXTRACT: note_on channel=4 note=72 velocity=0 time=0.005376341666666667
EXTRACT: note_on channel=11 note=72 velocity=0 time=0
EXTRACT: note_on channel=4 note=69 velocity=85 time=0
EXTRACT: note_on channel=5 note=69 velocity=0 time=0
EXTRACT: note_on channel=5 note=67 velocity=0 time=0
EXTRACT: note_on channel=5 note=64 velocity=0 time=0
EXTRACT: note_on channel=5 note=72 velocity=0 time=0
EXTRACT: note_on channel=5 note=64 velocity=82 time=0
EXTRACT: note_on channel=5 note=67 velocity=82 time=0
EXTRACT: note_on channel=5 note=69 velocity=82 time=0
EXTRACT: note_on channel=5 note=60 velocity=82 time=0
EXTRACT: note_on channel=9 note=38 velocity=38 time=0
EXTRACT: note_on channel=10 note=69 velocity=0 time=0
EXTRACT: note_on channel=10 note=67 velocity=0 time=0
EXTRACT: note_on channel=10 note=64 velocity=0 time=0
EXTRACT: note_on channel=10 note=72 velocity=0 time=0
EXTRACT: note_on channel=10 note=64 velocity=78 time=0
EXTRACT: note_on channel=10 note=67 velocity=78 time=0
EXTRACT: note_on channel=10 note=69 velocity=78 time=0
EXTRACT: note_on channel=10 note=60 velocity=78 time=0
EXTRACT: note_on channel=11 note=69 velocity=78 time=0
EXTRACT: note_on channel=9 note=38 velocity=0 time=0.005376341666666667
EXTRACT: control_change channel=2 control=64 value=127 time=0.3172041583333334
EXTRACT: note_on channel=2 note=67 velocity=54 time=0
EXTRACT: note_on channel=2 note=64 velocity=54 time=0
EXTRACT: note_on channel=2 note=60 velocity=54 time=0
EXTRACT: note_on channel=2 note=69 velocity=54 time=0
EXTRACT: note_on channel=9 note=38 velocity=58 time=0
EXTRACT: note_on channel=9 note=42 velocity=48 time=0
EXTRACT: note_on channel=9 note=42 velocity=0 time=0.005376341666666667
EXTRACT: note_on channel=9 note=38 velocity=0 time=0
EXTRACT: note_on channel=3 note=59 velocity=58 time=0.005376341666666667
EXTRACT: note_on channel=3 note=55 velocity=63 time=0.005376341666666667
EXTRACT: note_on channel=3 note=48 velocity=45 time=0.010752683333333334
EXTRACT: note_on channel=2 note=69 velocity=0 time=0.16129025
EXTRACT: note_on channel=2 note=60 velocity=0 time=0.010752683333333334
EXTRACT: note_on channel=2 note=67 velocity=0 time=0
EXTRACT: note_on channel=2 note=64 velocity=0 time=0
EXTRACT: note_on channel=1 note=33 velocity=0 time=0.043010733333333336
EXTRACT: note_on channel=3 note=55 velocity=0 time=0.010752683333333334
EXTRACT: note_on channel=3 note=48 velocity=0 time=0.048387075
EXTRACT: note_on channel=4 note=69 velocity=0 time=0.010752683333333334
EXTRACT: note_on channel=11 note=69 velocity=0 time=0
EXTRACT: note_on channel=1 note=33 velocity=83 time=0
EXTRACT: note_on channel=4 note=72 velocity=85 time=0
EXTRACT: note_on channel=5 note=60 velocity=0 time=0
EXTRACT: note_on channel=5 note=64 velocity=0 time=0
EXTRACT: note_on channel=5 note=67 velocity=0 time=0
EXTRACT: note_on channel=5 note=69 velocity=0 time=0
EXTRACT: note_on channel=5 note=72 velocity=82 time=0
EXTRACT: note_on channel=5 note=67 velocity=82 time=0
EXTRACT: note_on channel=5 note=64 velocity=82 time=0
EXTRACT: note_on channel=5 note=69 velocity=82 time=0
EXTRACT: note_on channel=9 note=38 velocity=38 time=0
EXTRACT: note_on channel=10 note=60 velocity=0 time=0
EXTRACT: note_on channel=10 note=64 velocity=0 time=0
EXTRACT: note_on channel=10 note=67 velocity=0 time=0
EXTRACT: note_on channel=10 note=69 velocity=0 time=0
EXTRACT: note_on channel=10 note=72 velocity=78 time=0
EXTRACT: note_on channel=10 note=67 velocity=78 time=0
EXTRACT: note_on channel=10 note=64 velocity=78 time=0
EXTRACT: note_on channel=10 note=69 velocity=78 time=0
EXTRACT: note_on channel=11 note=72 velocity=78 time=0
EXTRACT: note_on channel=3 note=59 velocity=0 time=0.005376341666666667
EXTRACT: note_on channel=9 note=38 velocity=0 time=0
EXTRACT: note_on channel=3 note=45 velocity=0 time=0.11827951666666667
EXTRACT: note_on channel=1 note=40 velocity=74 time=0.19892464166666668
EXTRACT: note_on channel=7 note=33 velocity=0 time=0
EXTRACT: note_on channel=7 note=33 velocity=85 time=0
EXTRACT: note_on channel=9 note=35 velocity=58 time=0
EXTRACT: note_on channel=9 note=38 velocity=58 time=0
EXTRACT: note_on channel=3 note=40 velocity=55 time=0.005376341666666667
EXTRACT: note_on channel=9 note=38 velocity=0 time=0
EXTRACT: note_on channel=9 note=35 velocity=0 time=0
EXTRACT: note_on channel=1 note=33 velocity=0 time=0.03225805
EXTRACT: control_change channel=3 control=64 value=0 time=0.11827951666666667
EXTRACT: note_on channel=4 note=72 velocity=0 time=0.15591390833333335
EXTRACT: note_on channel=11 note=72 velocity=0 time=0
EXTRACT: note_on channel=2 note=67 velocity=54 time=0
EXTRACT: note_on channel=2 note=64 velocity=54 time=0
EXTRACT: note_on channel=2 note=60 velocity=54 time=0
EXTRACT: note_on channel=2 note=69 velocity=54 time=0
EXTRACT: note_on channel=4 note=69 velocity=85 time=0
EXTRACT: note_on channel=5 note=69 velocity=0 time=0
EXTRACT: note_on channel=5 note=72 velocity=0 time=0
EXTRACT: note_on channel=5 note=67 velocity=0 time=0
EXTRACT: note_on channel=5 note=64 velocity=0 time=0
EXTRACT: note_on channel=5 note=69 velocity=82 time=0
EXTRACT: note_on channel=9 note=38 velocity=38 time=0
EXTRACT: note_on channel=10 note=69 velocity=0 time=0
EXTRACT: note_on channel=10 note=72 velocity=0 time=0
EXTRACT: note_on channel=10 note=67 velocity=0 time=0
EXTRACT: note_on channel=10 note=64 velocity=0 time=0
EXTRACT: note_on channel=10 note=69 velocity=78 time=0
EXTRACT: note_on channel=11 note=69 velocity=78 time=0
EXTRACT: note_on channel=9 note=38 velocity=0 time=0.005376341666666667
EXTRACT: note_on channel=3 note=48 velocity=42 time=0.021505366666666668
EXTRACT: note_on channel=3 note=55 velocity=57 time=0.010752683333333334
EXTRACT: note_on channel=3 note=59 velocity=46 time=0
EXTRACT: note_on channel=2 note=60 velocity=0 time=0.145161225
EXTRACT: note_on channel=2 note=64 velocity=0 time=0
EXTRACT: note_on channel=2 note=69 velocity=0 time=0
EXTRACT: note_on channel=2 note=67 velocity=0 time=0
EXTRACT: note_on channel=4 note=69 velocity=0 time=0
EXTRACT: note_on channel=4 note=67 velocity=85 time=0
EXTRACT: note_on channel=5 note=69 velocity=0 time=0
EXTRACT: note_on channel=5 note=67 velocity=82 time=0
EXTRACT: note_on channel=7 note=33 velocity=0 time=0
EXTRACT: note_on channel=7 note=45 velocity=85 time=0
EXTRACT: note_on channel=9 note=38 velocity=48 time=0
EXTRACT: note_on channel=9 note=42 velocity=48 time=0
EXTRACT: note_on channel=10 note=69 velocity=0 time=0
EXTRACT: note_on channel=10 note=67 velocity=78 time=0
EXTRACT: note_on channel=11 note=69 velocity=0 time=0
EXTRACT: note_on channel=11 note=67 velocity=78 time=0
EXTRACT: note_on channel=9 note=42 velocity=0 time=0.005376341666666667
EXTRACT: note_on channel=9 note=38 velocity=0 time=0
EXTRACT: note_on channel=1 note=40 velocity=0 time=0.03763439166666667
EXTRACT: note_on channel=1 note=40 velocity=76 time=0
EXTRACT: note_on channel=4 note=67 velocity=0 time=0
EXTRACT: note_on channel=4 note=69 velocity=85 time=0
EXTRACT: note_on channel=5 note=67 velocity=0 time=0
EXTRACT: note_on channel=5 note=69 velocity=82 time=0
EXTRACT: note_on channel=5 note=59 velocity=82 time=0
EXTRACT: note_on channel=5 note=62 velocity=82 time=0
EXTRACT: note_on channel=9 note=38 velocity=58 time=0
EXTRACT: note_on channel=10 note=67 velocity=0 time=0
EXTRACT: note_on channel=10 note=69 velocity=78 time=0
EXTRACT: note_on channel=10 note=59 velocity=78 time=0
EXTRACT: note_on channel=10 note=62 velocity=78 time=0
EXTRACT: note_on channel=11 note=67 velocity=0 time=0
EXTRACT: note_on channel=11 note=69 velocity=78 time=0
EXTRACT: note_on channel=9 note=38 velocity=0 time=0.005376341666666667
EXTRACT: note_on channel=3 note=55 velocity=0 time=0.016129025
EXTRACT: note_on channel=3 note=48 velocity=0 time=0.048387075
EXTRACT: note_on channel=3 note=40 velocity=0 time=0.021505366666666668
EXTRACT: note_on channel=3 note=59 velocity=0 time=0
EXTRACT: note_on channel=1 note=40 velocity=0 time=0.2311826916666667
EXTRACT: note_on channel=1 note=40 velocity=87 time=0
EXTRACT: note_on channel=2 note=69 velocity=0 time=0
EXTRACT: control_change channel=2 control=64 value=0 time=0
EXTRACT: note_on channel=3 note=40 velocity=56 time=0
EXTRACT: note_on channel=7 note=45 velocity=0 time=0
EXTRACT: note_on channel=7 note=40 velocity=85 time=0
EXTRACT: note_on channel=9 note=35 velocity=58 time=0
EXTRACT: note_on channel=9 note=38 velocity=50 time=0
EXTRACT: note_on channel=9 note=38 velocity=0 time=0.005376341666666667
EXTRACT: note_on channel=9 note=35 velocity=0 time=0
EXTRACT: note_on channel=2 note=64 velocity=55 time=0.005376341666666667
EXTRACT: note_on channel=2 note=62 velocity=55 time=0
EXTRACT: note_on channel=2 note=59 velocity=55 time=0
EXTRACT: note_on channel=2 note=67 velocity=55 time=0
EXTRACT: note_on channel=4 note=69 velocity=0 time=0.30107513333333336
EXTRACT: note_on channel=11 note=69 velocity=0 time=0
EXTRACT: note_on channel=4 note=67 velocity=85 time=0.010752683333333334
EXTRACT: note_on channel=5 note=62 velocity=0 time=0
EXTRACT: note_on channel=5 note=59 velocity=0 time=0
EXTRACT: note_on channel=5 note=69 velocity=0 time=0
EXTRACT: note_on channel=5 note=67 velocity=82 time=0
EXTRACT: note_on channel=9 note=38 velocity=38 time=0
EXTRACT: note_on channel=10 note=62 velocity=0 time=0
EXTRACT: note_on channel=10 note=59 velocity=0 time=0
EXTRACT: note_on channel=10 note=69 velocity=0 time=0
EXTRACT: note_on channel=10 note=67 velocity=78 time=0
EXTRACT: note_on channel=11 note=67 velocity=78 time=0
EXTRACT: note_on channel=9 note=38 velocity=0 time=0.005376341666666667
EXTRACT: control_change channel=3 control=64 value=127 time=0.23655903333333334
EXTRACT: note_on channel=3 note=50 velocity=49 time=0.06989244166666667
EXTRACT: note_on channel=3 note=59 velocity=58 time=0
EXTRACT: note_on channel=4 note=67 velocity=0 time=0.010752683333333334
EXTRACT: note_on channel=5 note=67 velocity=0 time=0
EXTRACT: note_on channel=9 note=38 velocity=58 time=0
EXTRACT: note_on channel=9 note=42 velocity=48 time=0
EXTRACT: note_on channel=10 note=67 velocity=0 time=0
EXTRACT: note_on channel=11 note=67 velocity=0 time=0
EXTRACT: note_on channel=3 note=55 velocity=63 time=0.005376341666666667
EXTRACT: note_on channel=9 note=42 velocity=0 time=0
EXTRACT: note_on channel=9 note=38 velocity=0 time=0
EXTRACT: note_on channel=3 note=55 velocity=0 time=0.28494610833333334
EXTRACT: note_on channel=3 note=50 velocity=0 time=0
EXTRACT: note_on channel=4 note=67 velocity=85 time=0
EXTRACT: note_on channel=5 note=67 velocity=82 time=0
EXTRACT: note_on channel=9 note=38 velocity=38 time=0
EXTRACT: note_on channel=10 note=67 velocity=78 time=0
EXTRACT: note_on channel=11 note=67 velocity=78 time=0
EXTRACT: note_on channel=9 note=38 velocity=0 time=0.005376341666666667
EXTRACT: note_on channel=3 note=59 velocity=0 time=0.048387075
EXTRACT: note_on channel=3 note=40 velocity=0 time=0.005376341666666667
EXTRACT: note_on channel=1 note=35 velocity=79 time=0
EXTRACT: note_on channel=4 note=67 velocity=0 time=0
EXTRACT: note_on channel=4 note=69 velocity=85 time=0
EXTRACT: note_on channel=5 note=67 velocity=0 time=0
EXTRACT: note_on channel=5 note=62 velocity=82 time=0
EXTRACT: note_on channel=5 note=59 velocity=82 time=0
EXTRACT: note_on channel=5 note=69 velocity=82 time=0
EXTRACT: note_on channel=7 note=40 velocity=0 time=0
EXTRACT: note_on channel=7 note=40 velocity=85 time=0
EXTRACT: note_on channel=9 note=35 velocity=58 time=0
EXTRACT: note_on channel=9 note=38 velocity=58 time=0
EXTRACT: note_on channel=10 note=67 velocity=0 time=0
EXTRACT: note_on channel=10 note=62 velocity=78 time=0
EXTRACT: note_on channel=10 note=59 velocity=78 time=0
EXTRACT: note_on channel=10 note=69 velocity=78 time=0
EXTRACT: note_on channel=11 note=67 velocity=0 time=0
EXTRACT: note_on channel=11 note=69 velocity=78 time=0
EXTRACT: note_on channel=9 note=38 velocity=0 time=0.005376341666666667
EXTRACT: note_on channel=9 note=35 velocity=0 time=0
EXTRACT: note_on channel=3 note=35 velocity=45 time=0.03225805
EXTRACT: note_on channel=1 note=40 velocity=0 time=0.12365585833333334
EXTRACT: note_on channel=4 note=69 velocity=0 time=0
EXTRACT: note_on channel=4 note=67 velocity=85 time=0
EXTRACT: note_on channel=5 note=69 velocity=0 time=0
EXTRACT: note_on channel=5 note=59 velocity=0 time=0
EXTRACT: note_on channel=5 note=62 velocity=0 time=0
EXTRACT: note_on channel=5 note=67 velocity=82 time=0
EXTRACT: note_on channel=7 note=40 velocity=0 time=0
EXTRACT: note_on channel=7 note=43 velocity=85 time=0
EXTRACT: note_on channel=9 note=38 velocity=38 time=0
EXTRACT: note_on channel=10 note=69 velocity=0 time=0
EXTRACT: note_on channel=10 note=59 velocity=0 time=0
EXTRACT: note_on channel=10 note=62 velocity=0 time=0
EXTRACT: note_on channel=10 note=67 velocity=78 time=0
EXTRACT: note_on channel=11 note=69 velocity=0 time=0
EXTRACT: note_on channel=11 note=67 velocity=78 time=0
EXTRACT: note_on channel=9 note=38 velocity=0 time=0.005376341666666667
EXTRACT: note_on channel=3 note=59 velocity=55 time=0.010752683333333334
EXTRACT: note_on channel=3 note=55 velocity=55 time=0
EXTRACT: note_on channel=3 note=50 velocity=39 time=0.016129025
EXTRACT: note_on channel=3 note=55 velocity=0 time=0.241935375
EXTRACT: note_on channel=3 note=50 velocity=0 time=0.016129025
EXTRACT: note_on channel=3 note=59 velocity=0 time=0.026881708333333334
EXTRACT: note_on channel=4 note=67 velocity=0 time=0
EXTRACT: note_on channel=4 note=69 velocity=85 time=0
EXTRACT: note_on channel=5 note=67 velocity=0 time=0
EXTRACT: note_on channel=5 note=69 velocity=82 time=0
EXTRACT: note_on channel=9 note=38 velocity=48 time=0
EXTRACT: note_on channel=9 note=42 velocity=48 time=0
EXTRACT: note_on channel=10 note=67 velocity=0 time=0
EXTRACT: note_on channel=10 note=69 velocity=78 time=0
EXTRACT: note_on channel=11 note=67 velocity=0 time=0
EXTRACT: note_on channel=11 note=69 velocity=78 time=0
EXTRACT: note_on channel=9 note=42 velocity=0 time=0.005376341666666667
EXTRACT: note_on channel=9 note=38 velocity=0 time=0
EXTRACT: note_on channel=3 note=35 velocity=0 time=0.03763439166666667
EXTRACT: note_on channel=4 note=69 velocity=0 time=0
EXTRACT: note_on channel=4 note=72 velocity=85 time=0
EXTRACT: note_on channel=5 note=69 velocity=0 time=0
EXTRACT: note_on channel=5 note=65 velocity=82 time=0
EXTRACT: note_on channel=5 note=69 velocity=82 time=0
EXTRACT: note_on channel=5 note=72 velocity=82 time=0
EXTRACT: note_on channel=7 note=43 velocity=0 time=0
EXTRACT: note_on channel=7 note=45 velocity=85 time=0
EXTRACT: note_on channel=9 note=38 velocity=58 time=0
EXTRACT: note_on channel=10 note=69 velocity=0 time=0
EXTRACT: note_on channel=10 note=65 velocity=78 time=0
EXTRACT: note_on channel=10 note=69 velocity=78 time=0
EXTRACT: note_on channel=10 note=72 velocity=78 time=0
EXTRACT: note_on channel=11 note=69 velocity=0 time=0
EXTRACT: note_on channel=11 note=72 velocity=78 time=0
EXTRACT: note_on channel=9 note=38 velocity=0 time=0.005376341666666667
EXTRACT: control_change channel=3 control=64 value=0 time=0.11827951666666667
EXTRACT: note_on channel=1 note=35 velocity=0 time=0.19892464166666668
EXTRACT: note_on channel=1 note=41 velocity=77 time=0
EXTRACT: note_on channel=2 note=67 velocity=0 time=0
EXTRACT: note_on channel=2 note=64 velocity=0 time=0
EXTRACT: note_on channel=2 note=62 velocity=0 time=0
EXTRACT: note_on channel=2 note=59 velocity=0 time=0
EXTRACT: control_change channel=2 control=64 value=127 time=0
EXTRACT: control_change channel=2 control=64 value=0 time=0
EXTRACT: control_change channel=3 control=0 value=0 time=0
EXTRACT: note_on channel=7 note=45 velocity=0 time=0
EXTRACT: note_on channel=7 note=41 velocity=85 time=0
EXTRACT: note_on channel=9 note=35 velocity=58 time=0
EXTRACT: note_on channel=9 note=38 velocity=50 time=0
EXTRACT: note_on channel=3 note=60 velocity=51 time=0.005376341666666667
EXTRACT: note_on channel=9 note=38 velocity=0 time=0
EXTRACT: note_on channel=9 note=35 velocity=0 time=0
EXTRACT: note_on channel=3 note=65 velocity=45 time=0.03225805
EXTRACT: note_on channel=3 note=53 velocity=41 time=0
EXTRACT: note_on channel=3 note=41 velocity=38 time=0
EXTRACT: control_change channel=3 control=64 value=127 time=0.16666659166666667
EXTRACT: note_on channel=3 note=60 velocity=0 time=0.03225805
EXTRACT: note_on channel=3 note=53 velocity=0 time=0.016129025
EXTRACT: note_on channel=3 note=65 velocity=0 time=0.010752683333333334
EXTRACT: note_on channel=4 note=72 velocity=0 time=0.048387075
EXTRACT: note_on channel=11 note=72 velocity=0 time=0
EXTRACT: note_on channel=4 note=69 velocity=85 time=0
EXTRACT: note_on channel=5 note=72 velocity=0 time=0
EXTRACT: note_on channel=5 note=69 velocity=0 time=0
EXTRACT: note_on channel=5 note=65 velocity=0 time=0
EXTRACT: note_on channel=5 note=69 velocity=82 time=0
EXTRACT: note_on channel=5 note=60 velocity=82 time=0
EXTRACT: note_on channel=5 note=65 velocity=82 time=0
EXTRACT: note_on channel=9 note=38 velocity=38 time=0
EXTRACT: note_on channel=10 note=72 velocity=0 time=0
EXTRACT: note_on channel=10 note=69 velocity=0 time=0
EXTRACT: note_on channel=10 note=65 velocity=0 time=0
EXTRACT: note_on channel=10 note=69 velocity=78 time=0
EXTRACT: note_on channel=10 note=60 velocity=78 time=0
EXTRACT: note_on channel=10 note=65 velocity=78 time=0
EXTRACT: note_on channel=11 note=69 velocity=78 time=0
EXTRACT: note_on channel=9 note=38 velocity=0 time=0.005376341666666667
EXTRACT: note_on channel=2 note=65 velocity=55 time=0.3172041583333334
EXTRACT: note_on channel=2 note=60 velocity=55 time=0
EXTRACT: note_on channel=2 note=57 velocity=55 time=0
EXTRACT: note_on channel=9 note=38 velocity=58 time=0
EXTRACT: note_on channel=9 note=42 velocity=48 time=0
EXTRACT: note_on channel=9 note=42 velocity=0 time=0.005376341666666667
EXTRACT: note_on channel=9 note=38 velocity=0 time=0
EXTRACT: note_on channel=3 note=65 velocity=53 time=0.005376341666666667
EXTRACT: note_on channel=3 note=60 velocity=63 time=0.005376341666666667
EXTRACT: note_on channel=3 note=53 velocity=47 time=0.010752683333333334
EXTRACT: note_on channel=3 note=60 velocity=0 time=0.16129025
EXTRACT: note_on channel=3 note=53 velocity=0 time=0.03225805
EXTRACT: note_on channel=1 note=41 velocity=0 time=0.021505366666666668
EXTRACT: note_on channel=3 note=65 velocity=0 time=0
EXTRACT: note_on channel=4 note=69 velocity=0 time=0.06989244166666667
EXTRACT: note_on channel=11 note=69 velocity=0 time=0
EXTRACT: note_on channel=1 note=41 velocity=83 time=0
EXTRACT: control_change channel=2 control=64 value=127 time=0
EXTRACT: note_on channel=4 note=72 velocity=85 time=0
EXTRACT: note_on channel=5 note=65 velocity=0 time=0
EXTRACT: note_on channel=5 note=60 velocity=0 time=0
EXTRACT: note_on channel=5 note=69 velocity=0 time=0
EXTRACT: note_on channel=5 note=72 velocity=82 time=0
EXTRACT: note_on channel=7 note=41 velocity=0 time=0
EXTRACT: note_on channel=7 note=41 velocity=85 time=0
EXTRACT: note_on channel=9 note=38 velocity=38 time=0
EXTRACT: note_on channel=10 note=65 velocity=0 time=0
EXTRACT: note_on channel=10 note=60 velocity=0 time=0
EXTRACT: note_on channel=10 note=69 velocity=0 time=0
EXTRACT: note_on channel=10 note=72 velocity=78 time=0
EXTRACT: note_on channel=11 note=72 velocity=78 time=0
EXTRACT: note_on channel=9 note=38 velocity=0 time=0.005376341666666667
EXTRACT: note_on channel=2 note=57 velocity=0 time=0.07526878333333334
EXTRACT: note_on channel=2 note=60 velocity=0 time=0
EXTRACT: note_on channel=2 note=65 velocity=0 time=0
EXTRACT: control_change channel=3 control=64 value=0 time=0.10752683333333334
EXTRACT: note_on channel=1 note=41 velocity=0 time=0
EXTRACT: note_on channel=1 note=40 velocity=82 time=0
EXTRACT: control_change channel=2 control=64 value=0 time=0
EXTRACT: note_on channel=3 note=41 velocity=0 time=0
EXTRACT: note_on channel=4 note=72 velocity=0 time=0
EXTRACT: note_on channel=4 note=69 velocity=85 time=0
EXTRACT: note_on channel=5 note=72 velocity=0 time=0
EXTRACT: note_on channel=5 note=59 velocity=82 time=0
EXTRACT: note_on channel=5 note=62 velocity=82 time=0
EXTRACT: note_on channel=5 note=69 velocity=82 time=0
EXTRACT: note_on channel=7 note=41 velocity=0 time=0
EXTRACT: note_on channel=7 note=40 velocity=85 time=0
EXTRACT: note_on channel=9 note=35 velocity=58 time=0
EXTRACT: note_on channel=9 note=38 velocity=58 time=0
EXTRACT: note_on channel=10 note=72 velocity=0 time=0
EXTRACT: note_on channel=10 note=59 velocity=78 time=0
EXTRACT: note_on channel=10 note=62 velocity=78 time=0
EXTRACT: note_on channel=10 note=69 velocity=78 time=0
EXTRACT: note_on channel=11 note=72 velocity=0 time=0
EXTRACT: note_on channel=11 note=69 velocity=78 time=0
EXTRACT: note_on channel=9 note=38 velocity=0 time=0.005376341666666667
EXTRACT: note_on channel=9 note=35 velocity=0 time=0
EXTRACT: note_on channel=2 note=64 velocity=63 time=0.005376341666666667
EXTRACT: note_on channel=2 note=62 velocity=63 time=0
EXTRACT: note_on channel=2 note=59 velocity=63 time=0
EXTRACT: note_on channel=2 note=67 velocity=63 time=0
EXTRACT: note_on channel=3 note=55 velocity=62 time=0
EXTRACT: note_on channel=3 note=40 velocity=42 time=0
EXTRACT: note_on channel=3 note=50 velocity=40 time=0.005376341666666667
EXTRACT: note_on channel=3 note=59 velocity=62 time=0.005376341666666667
EXTRACT: note_on channel=2 note=67 velocity=0 time=0.1935483
EXTRACT: note_on channel=2 note=64 velocity=0 time=0
EXTRACT: note_on channel=2 note=62 velocity=0 time=0
EXTRACT: note_on channel=2 note=59 velocity=0 time=0
EXTRACT: control_change channel=3 control=64 value=127 time=0.021505366666666668
EXTRACT: note_on channel=3 note=55 velocity=0 time=0.03225805
EXTRACT: note_on channel=3 note=59 velocity=0 time=0.03225805
EXTRACT: note_on channel=3 note=50 velocity=0 time=0.005376341666666667
EXTRACT: note_on channel=4 note=69 velocity=0 time=0
EXTRACT: note_on channel=4 note=67 velocity=85 time=0
EXTRACT: note_on channel=5 note=69 velocity=0 time=0
EXTRACT: note_on channel=5 note=62 velocity=0 time=0
EXTRACT: note_on channel=5 note=59 velocity=0 time=0
EXTRACT: note_on channel=5 note=67 velocity=82 time=0
EXTRACT: note_on channel=9 note=38 velocity=38 time=0
EXTRACT: note_on channel=10 note=69 velocity=0 time=0
EXTRACT: note_on channel=10 note=62 velocity=0 time=0
EXTRACT: note_on channel=10 note=59 velocity=0 time=0
EXTRACT: note_on channel=10 note=67 velocity=78 time=0
EXTRACT: note_on channel=11 note=69 velocity=0 time=0
EXTRACT: note_on channel=11 note=67 velocity=78 time=0
EXTRACT: note_on channel=9 note=38 velocity=0 time=0.005376341666666667
EXTRACT: note_on channel=2 note=64 velocity=46 time=0.30645147500000003
EXTRACT: note_on channel=2 note=62 velocity=46 time=0
EXTRACT: note_on channel=2 note=59 velocity=46 time=0
EXTRACT: note_on channel=2 note=67 velocity=46 time=0
EXTRACT: note_on channel=4 note=67 velocity=0 time=0
EXTRACT: note_on channel=4 note=64 velocity=85 time=0
EXTRACT: note_on channel=5 note=67 velocity=0 time=0
EXTRACT: note_on channel=5 note=64 velocity=82 time=0
EXTRACT: note_on channel=9 note=38 velocity=48 time=0
EXTRACT: note_on channel=9 note=42 velocity=48 time=0
EXTRACT: note_on channel=10 note=67 velocity=0 time=0
EXTRACT: note_on channel=10 note=64 velocity=78 time=0
EXTRACT: note_on channel=11 note=67 velocity=0 time=0
EXTRACT: note_on channel=11 note=64 velocity=78 time=0
EXTRACT: note_on channel=9 note=42 velocity=0 time=0.005376341666666667
EXTRACT: note_on channel=9 note=38 velocity=0 time=0
EXTRACT: note_on channel=3 note=50 velocity=41 time=0.005376341666666667
EXTRACT: note_on channel=3 note=55 velocity=51 time=0.005376341666666667
EXTRACT: note_on channel=3 note=59 velocity=46 time=0.005376341666666667
EXTRACT: note_on channel=2 note=67 velocity=0 time=0.19892464166666668
EXTRACT: note_on channel=2 note=64 velocity=0 time=0
EXTRACT: note_on channel=2 note=62 velocity=0 time=0
EXTRACT: note_on channel=2 note=59 velocity=0 time=0
EXTRACT: note_on channel=3 note=55 velocity=0 time=0.005376341666666667
EXTRACT: note_on channel=3 note=50 velocity=0 time=0.016129025
EXTRACT: note_on channel=3 note=59 velocity=0 time=0.021505366666666668
EXTRACT: note_on channel=4 note=64 velocity=0 time=0
EXTRACT: note_on channel=4 note=67 velocity=85 time=0
EXTRACT: note_on channel=5 note=64 velocity=0 time=0
EXTRACT: note_on channel=5 note=60 velocity=82 time=0
EXTRACT: note_on channel=5 note=67 velocity=82 time=0
EXTRACT: note_on channel=5 note=64 velocity=82 time=0
EXTRACT: note_on channel=7 note=40 velocity=0 time=0
EXTRACT: note_on channel=7 note=40 velocity=85 time=0
EXTRACT: note_on channel=9 note=38 velocity=58 time=0
EXTRACT: note_on channel=10 note=64 velocity=0 time=0
EXTRACT: note_on channel=10 note=60 velocity=78 time=0
EXTRACT: note_on channel=10 note=67 velocity=78 time=0
EXTRACT: note_on channel=10 note=64 velocity=78 time=0
EXTRACT: note_on channel=11 note=64 velocity=0 time=0
EXTRACT: note_on channel=11 note=67 velocity=78 time=0
EXTRACT: note_on channel=9 note=38 velocity=0 time=0.005376341666666667
EXTRACT: note_on channel=2 note=48 velocity=49 time=0.08602146666666667
EXTRACT: note_on channel=2 note=52 velocity=47 time=0
EXTRACT: note_on channel=2 note=57 velocity=55 time=0
EXTRACT: note_on channel=2 note=60 velocity=51 time=0
EXTRACT: note_on channel=2 note=64 velocity=59 time=0
EXTRACT: note_on channel=3 note=40 velocity=0 time=0.03763439166666667
EXTRACT: note_on channel=1 note=40 velocity=0 time=0.005376341666666667
EXTRACT: control_change channel=3 control=64 value=0 time=0.1290322
EXTRACT: note_on channel=1 note=33 velocity=77 time=0.059139758333333334
EXTRACT: note_on channel=3 note=45 velocity=56 time=0
EXTRACT: note_on channel=7 note=40 velocity=0 time=0
EXTRACT: note_on channel=7 note=33 velocity=85 time=0
EXTRACT: note_on channel=9 note=35 velocity=58 time=0
EXTRACT: note_on channel=9 note=38 velocity=50 time=0
EXTRACT: note_on channel=9 note=38 velocity=0 time=0.005376341666666667
EXTRACT: note_on channel=9 note=35 velocity=0 time=0
EXTRACT: note_on channel=4 note=67 velocity=0 time=0.30645147500000003
EXTRACT: note_on channel=11 note=67 velocity=0 time=0
EXTRACT: note_on channel=4 note=64 velocity=85 time=0
EXTRACT: note_on channel=5 note=64 velocity=0 time=0
EXTRACT: note_on channel=5 note=67 velocity=0 time=0
EXTRACT: note_on channel=5 note=60 velocity=0 time=0
EXTRACT: note_on channel=5 note=64 velocity=82 time=0
EXTRACT: note_on channel=5 note=60 velocity=82 time=0
EXTRACT: note_on channel=5 note=57 velocity=82 time=0
EXTRACT: note_on channel=9 note=38 velocity=38 time=0
EXTRACT: note_on channel=10 note=64 velocity=0 time=0
EXTRACT: note_on channel=10 note=67 velocity=0 time=0
EXTRACT: note_on channel=10 note=60 velocity=0 time=0
EXTRACT: note_on channel=10 note=64 velocity=78 time=0
EXTRACT: note_on channel=10 note=60 velocity=78 time=0
EXTRACT: note_on channel=10 note=57 velocity=78 time=0
EXTRACT: note_on channel=11 note=64 velocity=78 time=0
EXTRACT: note_on channel=9 note=38 velocity=0 time=0.005376341666666667
EXTRACT: control_change channel=3 control=64 value=127 time=0.23655903333333334
EXTRACT: note_on channel=3 note=48 velocity=49 time=0.06989244166666667
EXTRACT: note_on channel=3 note=60 velocity=58 time=0
EXTRACT: note_on channel=9 note=38 velocity=58 time=0.010752683333333334
EXTRACT: note_on channel=9 note=42 velocity=48 time=0
EXTRACT: note_on channel=3 note=57 velocity=63 time=0.005376341666666667
EXTRACT: note_on channel=9 note=42 velocity=0 time=0
EXTRACT: note_on channel=9 note=38 velocity=0 time=0
EXTRACT: note_on channel=1 note=33 velocity=0 time=0.23655903333333334
EXTRACT: note_on channel=3 note=57 velocity=0 time=0.048387075
EXTRACT: note_on channel=3 note=48 velocity=0 time=0
EXTRACT: note_on channel=1 note=33 velocity=83 time=0.03225805
EXTRACT: control_change channel=2 control=64 value=127 time=0
EXTRACT: note_on channel=7 note=33 velocity=0 time=0
EXTRACT: note_on channel=7 note=40 velocity=85 time=0
EXTRACT: note_on channel=9 note=38 velocity=38 time=0
EXTRACT: note_on channel=9 note=38 velocity=0 time=0.005376341666666667
EXTRACT: note_on channel=3 note=60 velocity=0 time=0.048387075
EXTRACT: note_on channel=3 note=45 velocity=0 time=0.005376341666666667
EXTRACT: note_on channel=4 note=64 velocity=0 time=0.08602146666666667
EXTRACT: note_on channel=11 note=64 velocity=0 time=0
EXTRACT: note_on channel=4 note=60 velocity=85 time=0
EXTRACT: note_on channel=5 note=57 velocity=0 time=0
EXTRACT: note_on channel=5 note=60 velocity=0 time=0
EXTRACT: note_on channel=5 note=64 velocity=0 time=0
EXTRACT: note_on channel=5 note=60 velocity=82 time=0
EXTRACT: note_on channel=10 note=57 velocity=0 time=0
EXTRACT: note_on channel=10 note=60 velocity=0 time=0
EXTRACT: note_on channel=10 note=64 velocity=0 time=0
EXTRACT: note_on channel=10 note=60 velocity=78 time=0
EXTRACT: note_on channel=11 note=60 velocity=78 time=0
EXTRACT: note_on channel=1 note=40 velocity=74 time=0
EXTRACT: note_on channel=4 note=60 velocity=0 time=0
EXTRACT: note_on channel=4 note=60 velocity=85 time=0
EXTRACT: note_on channel=5 note=60 velocity=0 time=0
EXTRACT: note_on channel=5 note=60 velocity=82 time=0
EXTRACT: note_on channel=7 note=40 velocity=0 time=0
EXTRACT: note_on channel=7 note=45 velocity=85 time=0
EXTRACT: note_on channel=9 note=35 velocity=58 time=0
EXTRACT: note_on channel=9 note=38 velocity=58 time=0
EXTRACT: note_on channel=10 note=60 velocity=0 time=0
EXTRACT: note_on channel=10 note=60 velocity=78 time=0
EXTRACT: note_on channel=11 note=60 velocity=0 time=0
EXTRACT: note_on channel=11 note=60 velocity=78 time=0
EXTRACT: note_on channel=9 note=38 velocity=0 time=0.005376341666666667
EXTRACT: note_on channel=9 note=35 velocity=0 time=0
EXTRACT: note_on channel=1 note=33 velocity=0 time=0.03225805
EXTRACT: note_on channel=3 note=40 velocity=45 time=0
EXTRACT: control_change channel=2 control=0 value=0 time=0
EXTRACT: note_on channel=4 note=60 velocity=0 time=0
EXTRACT: note_on channel=4 note=62 velocity=85 time=0
EXTRACT: note_on channel=5 note=60 velocity=0 time=0
EXTRACT: note_on channel=5 note=62 velocity=82 time=0
EXTRACT: note_on channel=9 note=38 velocity=38 time=0
EXTRACT: note_on channel=10 note=60 velocity=0 time=0
EXTRACT: note_on channel=10 note=62 velocity=78 time=0
EXTRACT: note_on channel=11 note=60 velocity=0 time=0
EXTRACT: note_on channel=11 note=62 velocity=78 time=0
EXTRACT: note_on channel=9 note=38 velocity=0 time=0.005376341666666667
EXTRACT: note_on channel=3 note=60 velocity=55 time=0.010752683333333334
EXTRACT: note_on channel=3 note=57 velocity=55 time=0
EXTRACT: note_on channel=3 note=48 velocity=39 time=0.016129025
EXTRACT: note_on channel=3 note=57 velocity=0 time=0.241935375
EXTRACT: note_on channel=3 note=48 velocity=0 time=0.016129025
EXTRACT: note_on channel=3 note=60 velocity=0 time=0.026881708333333334
EXTRACT: note_on channel=4 note=62 velocity=0 time=0
EXTRACT: note_on channel=4 note=64 velocity=85 time=0
EXTRACT: note_on channel=5 note=62 velocity=0 time=0
EXTRACT: note_on channel=5 note=64 velocity=82 time=0
EXTRACT: note_on channel=9 note=38 velocity=48 time=0
EXTRACT: note_on channel=9 note=42 velocity=48 time=0
EXTRACT: note_on channel=10 note=62 velocity=0 time=0
EXTRACT: note_on channel=10 note=64 velocity=78 time=0
EXTRACT: note_on channel=11 note=62 velocity=0 time=0
EXTRACT: note_on channel=11 note=64 velocity=78 time=0
EXTRACT: note_on channel=9 note=42 velocity=0 time=0.005376341666666667
EXTRACT: note_on channel=9 note=38 velocity=0 time=0
EXTRACT: note_on channel=1 note=40 velocity=0 time=0.03763439166666667
EXTRACT: note_on channel=3 note=40 velocity=0 time=0
EXTRACT: control_change channel=2 control=0 value=0 time=0.145161225
EXTRACT: note_on channel=1 note=40 velocity=76 time=0
EXTRACT: note_on channel=4 note=64 velocity=0 time=0
EXTRACT: note_on channel=4 note=65 velocity=85 time=0
EXTRACT: note_on channel=5 note=64 velocity=0 time=0
EXTRACT: note_on channel=5 note=65 velocity=82 time=0
EXTRACT: note_on channel=7 note=45 velocity=0 time=0
EXTRACT: note_on channel=7 note=45 velocity=85 time=0
EXTRACT: note_on channel=9 note=38 velocity=58 time=0
EXTRACT: note_on channel=10 note=64 velocity=0 time=0
EXTRACT: note_on channel=10 note=65 velocity=78 time=0
EXTRACT: note_on channel=11 note=64 velocity=0 time=0
EXTRACT: note_on channel=11 note=65 velocity=78 time=0
EXTRACT: note_on channel=9 note=38 velocity=0 time=0.005376341666666667
EXTRACT: note_on channel=2 note=64 velocity=0 time=0.021505366666666668
EXTRACT: note_on channel=2 note=57 velocity=0 time=0
EXTRACT: note_on channel=2 note=48 velocity=0 time=0
EXTRACT: note_on channel=2 note=52 velocity=0 time=0
EXTRACT: note_on channel=2 note=60 velocity=0 time=0
EXTRACT: control_change channel=2 control=0 value=0 time=0.05376341666666667
EXTRACT: control_change channel=2 control=64 value=0 time=0
EXTRACT: note_on channel=2 note=53 velocity=49 time=0.010752683333333334
EXTRACT: note_on channel=2 note=57 velocity=47 time=0
EXTRACT: note_on channel=2 note=60 velocity=55 time=0
EXTRACT: note_on channel=2 note=64 velocity=51 time=0
EXTRACT: note_on channel=2 note=69 velocity=59 time=0
EXTRACT: control_change channel=3 control=64 value=0 time=0.03225805
EXTRACT: note_on channel=1 note=40 velocity=0 time=0
EXTRACT: note_on channel=1 note=43 velocity=87 time=0
EXTRACT: control_change channel=3 control=0 value=0 time=0
EXTRACT: note_on channel=3 note=60 velocity=62 time=0
EXTRACT: note_on channel=4 note=65 velocity=0 time=0
EXTRACT: note_on channel=4 note=64 velocity=85 time=0
EXTRACT: note_on channel=5 note=65 velocity=0 time=0
EXTRACT: note_on channel=5 note=60 velocity=82 time=0
EXTRACT: note_on channel=5 note=55 velocity=82 time=0
EXTRACT: note_on channel=5 note=64 velocity=82 time=0
EXTRACT: note_on channel=7 note=45 velocity=0 time=0
EXTRACT: note_on channel=7 note=31 velocity=85 time=0
EXTRACT: note_on channel=7 note=43 velocity=85 time=0
EXTRACT: note_on channel=9 note=35 velocity=58 time=0
EXTRACT: note_on channel=9 note=38 velocity=50 time=0
EXTRACT: note_on channel=10 note=65 velocity=0 time=0
EXTRACT: note_on channel=10 note=60 velocity=78 time=0
EXTRACT: note_on channel=10 note=55 velocity=78 time=0
EXTRACT: note_on channel=10 note=64 velocity=78 time=0
EXTRACT: note_on channel=11 note=65 velocity=0 time=0
EXTRACT: note_on channel=11 note=64 velocity=78 time=0
EXTRACT: note_on channel=9 note=38 velocity=0 time=0.005376341666666667
EXTRACT: note_on channel=9 note=35 velocity=0 time=0
EXTRACT: note_on channel=3 note=53 velocity=56 time=0.005376341666666667
EXTRACT: note_on channel=3 note=64 velocity=50 time=0
EXTRACT: note_on channel=3 note=43 velocity=40 time=0
EXTRACT: control_change channel=3 control=64 value=127 time=0.22580635000000002
EXTRACT: note_on channel=4 note=64 velocity=0 time=0
EXTRACT: note_on channel=4 note=64 velocity=85 time=0
EXTRACT: note_on channel=5 note=64 velocity=0 time=0
EXTRACT: note_on channel=5 note=55 velocity=0 time=0
EXTRACT: note_on channel=5 note=60 velocity=0 time=0
EXTRACT: note_on channel=5 note=64 velocity=82 time=0
EXTRACT: note_on channel=9 note=38 velocity=38 time=0
EXTRACT: note_on channel=10 note=64 velocity=0 time=0
EXTRACT: note_on channel=10 note=55 velocity=0 time=0
EXTRACT: note_on channel=10 note=60 velocity=0 time=0
EXTRACT: note_on channel=10 note=64 velocity=78 time=0
EXTRACT: note_on channel=11 note=64 velocity=0 time=0
EXTRACT: note_on channel=11 note=64 velocity=78 time=0
EXTRACT: note_on channel=9 note=38 velocity=0 time=0.005376341666666667
EXTRACT: note_on channel=3 note=53 velocity=0 time=0.03225805
EXTRACT: note_on channel=3 note=60 velocity=0 time=0
EXTRACT: note_on channel=2 note=65 velocity=56 time=0.03225805
EXTRACT: note_on channel=3 note=64 velocity=0 time=0.06989244166666667
EXTRACT: note_on channel=4 note=64 velocity=0 time=0
EXTRACT: note_on channel=4 note=64 velocity=85 time=0
EXTRACT: note_on channel=5 note=64 velocity=0 time=0
EXTRACT: note_on channel=5 note=64 velocity=82 time=0
EXTRACT: note_on channel=10 note=64 velocity=0 time=0
EXTRACT: note_on channel=10 note=64 velocity=78 time=0
EXTRACT: note_on channel=11 note=64 velocity=0 time=0
EXTRACT: note_on channel=11 note=64 velocity=78 time=0
EXTRACT: note_on channel=4 note=64 velocity=0 time=0
EXTRACT: note_on channel=4 note=64 velocity=85 time=0
EXTRACT: note_on channel=5 note=64 velocity=0 time=0
EXTRACT: note_on channel=5 note=64 velocity=82 time=0
EXTRACT: note_on channel=9 note=38 velocity=58 time=0
EXTRACT: note_on channel=9 note=42 velocity=48 time=0
EXTRACT: note_on channel=10 note=64 velocity=0 time=0
EXTRACT: note_on channel=10 note=64 velocity=78 time=0
EXTRACT: note_on channel=11 note=64 velocity=0 time=0
EXTRACT: note_on channel=11 note=64 velocity=78 time=0
EXTRACT: note_on channel=9 note=42 velocity=0 time=0.005376341666666667
EXTRACT: note_on channel=9 note=38 velocity=0 time=0
EXTRACT: control_change channel=2 control=64 value=127 time=0
EXTRACT: note_on channel=4 note=64 velocity=0 time=0
EXTRACT: note_on channel=4 note=65 velocity=85 time=0
EXTRACT: note_on channel=5 note=64 velocity=0 time=0
EXTRACT: note_on channel=5 note=65 velocity=82 time=0
EXTRACT: note_on channel=9 note=38 velocity=38 time=0
EXTRACT: note_on channel=10 note=64 velocity=0 time=0
EXTRACT: note_on channel=10 note=65 velocity=78 time=0
EXTRACT: note_on channel=11 note=64 velocity=0 time=0
EXTRACT: note_on channel=11 note=65 velocity=78 time=0
EXTRACT: note_on channel=3 note=53 velocity=54 time=0.005376341666666667
EXTRACT: note_on channel=3 note=60 velocity=70 time=0
EXTRACT: note_on channel=9 note=38 velocity=0 time=0
EXTRACT: note_on channel=3 note=64 velocity=57 time=0.021505366666666668
EXTRACT: note_on channel=3 note=43 velocity=0 time=0.22580635000000002
EXTRACT: note_on channel=1 note=38 velocity=79 time=0
EXTRACT: note_on channel=4 note=65 velocity=0 time=0
EXTRACT: note_on channel=4 note=64 velocity=85 time=0
EXTRACT: note_on channel=5 note=65 velocity=0 time=0
EXTRACT: note_on channel=5 note=64 velocity=82 time=0
EXTRACT: note_on channel=9 note=35 velocity=58 time=0
EXTRACT: note_on channel=9 note=38 velocity=58 time=0
EXTRACT: note_on channel=10 note=65 velocity=0 time=0
EXTRACT: note_on channel=10 note=64 velocity=78 time=0
EXTRACT: note_on channel=11 note=65 velocity=0 time=0
EXTRACT: note_on channel=11 note=64 velocity=78 time=0
EXTRACT: note_on channel=3 note=38 velocity=47 time=0.005376341666666667
EXTRACT: note_on channel=9 note=38 velocity=0 time=0
EXTRACT: note_on channel=9 note=35 velocity=0 time=0
EXTRACT: note_on channel=3 note=60 velocity=0 time=0.005376341666666667
EXTRACT: note_on channel=3 note=53 velocity=0 time=0.03225805
EXTRACT: note_on channel=3 note=64 velocity=0 time=0.10752683333333334
EXTRACT: note_on channel=1 note=43 velocity=0 time=0.010752683333333334
EXTRACT: control_change channel=2 control=0 value=0 time=0
EXTRACT: note_on channel=4 note=64 velocity=0 time=0
EXTRACT: note_on channel=4 note=62 velocity=85 time=0
EXTRACT: note_on channel=5 note=64 velocity=0 time=0
EXTRACT: note_on channel=5 note=62 velocity=82 time=0
EXTRACT: note_on channel=9 note=38 velocity=38 time=0
EXTRACT: note_on channel=10 note=64 velocity=0 time=0
EXTRACT: note_on channel=10 note=62 velocity=78 time=0
EXTRACT: note_on channel=11 note=64 velocity=0 time=0
EXTRACT: note_on channel=11 note=62 velocity=78 time=0
EXTRACT: note_on channel=9 note=38 velocity=0 time=0.005376341666666667
EXTRACT: note_on channel=4 note=62 velocity=0 time=0
EXTRACT: note_on channel=4 note=60 velocity=85 time=0
EXTRACT: note_on channel=5 note=62 velocity=0 time=0
EXTRACT: note_on channel=5 note=60 velocity=82 time=0
EXTRACT: note_on channel=9 note=38 velocity=48 time=0
EXTRACT: note_on channel=9 note=42 velocity=48 time=0
EXTRACT: note_on channel=10 note=62 velocity=0 time=0
EXTRACT: note_on channel=10 note=60 velocity=78 time=0
EXTRACT: note_on channel=11 note=62 velocity=0 time=0
EXTRACT: note_on channel=11 note=60 velocity=78 time=0
EXTRACT: note_on channel=9 note=42 velocity=0 time=0.005376341666666667
EXTRACT: note_on channel=9 note=38 velocity=0 time=0
EXTRACT: note_on channel=3 note=53 velocity=30 time=0.005376341666666667
EXTRACT: note_on channel=3 note=60 velocity=54 time=0.005376341666666667
EXTRACT: note_on channel=3 note=64 velocity=59 time=0.005376341666666667
EXTRACT: note_on channel=3 note=38 velocity=0 time=0.17204293333333334
EXTRACT: control_change channel=2 control=0 value=0 time=0
EXTRACT: note_on channel=4 note=60 velocity=0 time=0
EXTRACT: note_on channel=4 note=60 velocity=85 time=0
EXTRACT: note_on channel=5 note=60 velocity=0 time=0
EXTRACT: note_on channel=5 note=60 velocity=82 time=0
EXTRACT: note_on channel=9 note=38 velocity=58 time=0
EXTRACT: note_on channel=10 note=60 velocity=0 time=0
EXTRACT: note_on channel=10 note=60 velocity=78 time=0
EXTRACT: note_on channel=11 note=60 velocity=0 time=0
EXTRACT: note_on channel=11 note=60 velocity=78 time=0
EXTRACT: note_on channel=9 note=38 velocity=0 time=0.005376341666666667
EXTRACT: note_on channel=3 note=60 velocity=0 time=0.1827956166666667
EXTRACT: note_on channel=3 note=53 velocity=0 time=0.010752683333333334
EXTRACT: note_on channel=3 note=64 velocity=0 time=0.10215049166666668
EXTRACT: note_on channel=1 note=43 velocity=74 time=0
EXTRACT: note_on channel=4 note=60 velocity=0 time=0
EXTRACT: note_on channel=4 note=62 velocity=85 time=0
EXTRACT: note_on channel=5 note=60 velocity=0 time=0
EXTRACT: note_on channel=5 note=57 velocity=82 time=0
EXTRACT: note_on channel=5 note=53 velocity=82 time=0
EXTRACT: note_on channel=5 note=62 velocity=82 time=0
EXTRACT: note_on channel=5 note=60 velocity=82 time=0
EXTRACT: note_on channel=7 note=43 velocity=0 time=0
EXTRACT: note_on channel=7 note=31 velocity=0 time=0
EXTRACT: note_on channel=7 note=31 velocity=85 time=0
EXTRACT: note_on channel=9 note=35 velocity=58 time=0
EXTRACT: note_on channel=9 note=38 velocity=50 time=0
EXTRACT: note_on channel=10 note=60 velocity=0 time=0
EXTRACT: note_on channel=10 note=57 velocity=78 time=0
EXTRACT: note_on channel=10 note=53 velocity=78 time=0
EXTRACT: note_on channel=10 note=62 velocity=78 time=0
EXTRACT: note_on channel=10 note=60 velocity=78 time=0
EXTRACT: note_on channel=11 note=60 velocity=0 time=0
EXTRACT: note_on channel=11 note=62 velocity=78 time=0
EXTRACT: note_on channel=1 note=38 velocity=0 time=0.005376341666666667
EXTRACT: note_on channel=9 note=38 velocity=0 time=0
EXTRACT: note_on channel=9 note=35 velocity=0 time=0
EXTRACT: note_on channel=3 note=43 velocity=49 time=0.059139758333333334
EXTRACT: control_change channel=2 control=0 value=0 time=0.2580644
EXTRACT: note_on channel=4 note=62 velocity=0 time=0
EXTRACT: note_on channel=4 note=62 velocity=85 time=0
EXTRACT: note_on channel=5 note=60 velocity=0 time=0
EXTRACT: note_on channel=5 note=57 velocity=0 time=0
EXTRACT: note_on channel=5 note=53 velocity=0 time=0
EXTRACT: note_on channel=5 note=62 velocity=0 time=0
EXTRACT: note_on channel=5 note=60 velocity=82 time=0
EXTRACT: note_on channel=5 note=62 velocity=82 time=0
EXTRACT: note_on channel=5 note=57 velocity=82 time=0
EXTRACT: note_on channel=5 note=53 velocity=82 time=0
EXTRACT: note_on channel=9 note=38 velocity=38 time=0
EXTRACT: note_on channel=10 note=60 velocity=0 time=0
EXTRACT: note_on channel=10 note=57 velocity=0 time=0
EXTRACT: note_on channel=10 note=53 velocity=0 time=0
EXTRACT: note_on channel=10 note=62 velocity=0 time=0
EXTRACT: note_on channel=10 note=60 velocity=78 time=0
EXTRACT: note_on channel=10 note=62 velocity=78 time=0
EXTRACT: note_on channel=10 note=57 velocity=78 time=0
EXTRACT: note_on channel=10 note=53 velocity=78 time=0
EXTRACT: note_on channel=11 note=62 velocity=0 time=0
EXTRACT: note_on channel=11 note=62 velocity=78 time=0
EXTRACT: note_on channel=9 note=38 velocity=0 time=0.005376341666666667
EXTRACT: control_change channel=3 control=64 value=0 time=0.005376341666666667
EXTRACT: note_on channel=9 note=38 velocity=58 time=0.3118278166666667
EXTRACT: note_on channel=9 note=42 velocity=48 time=0
EXTRACT: note_on channel=9 note=42 velocity=0 time=0.005376341666666667
EXTRACT: note_on channel=9 note=38 velocity=0 time=0
EXTRACT: note_on channel=3 note=53 velocity=42 time=0.005376341666666667
EXTRACT: note_on channel=3 note=60 velocity=54 time=0.016129025
EXTRACT: note_on channel=3 note=64 velocity=52 time=0
EXTRACT: control_change channel=3 control=64 value=127 time=0.1827956166666667
EXTRACT: note_on channel=3 note=53 velocity=0 time=0.09139780833333334
EXTRACT: note_on channel=3 note=60 velocity=0 time=0.010752683333333334
EXTRACT: control_change channel=2 control=0 value=0 time=0.010752683333333334
EXTRACT: note_on channel=7 note=31 velocity=0 time=0
EXTRACT: note_on channel=7 note=38 velocity=85 time=0
EXTRACT: note_on channel=9 note=38 velocity=38 time=0
EXTRACT: note_on channel=9 note=38 velocity=0 time=0.005376341666666667
EXTRACT: note_on channel=3 note=64 velocity=0 time=0.048387075
EXTRACT: note_on channel=2 note=60 velocity=0 time=0.048387075
EXTRACT: note_on channel=2 note=53 velocity=0 time=0.03225805
EXTRACT: note_on channel=2 note=64 velocity=0 time=0.005376341666666667
EXTRACT: note_on channel=2 note=57 velocity=0 time=0
EXTRACT: note_on channel=7 note=38 velocity=0 time=0.021505366666666668
EXTRACT: note_on channel=7 note=38 velocity=85 time=0
EXTRACT: note_on channel=2 note=69 velocity=0 time=0.043010733333333336
EXTRACT: note_on channel=3 note=43 velocity=0 time=0.010752683333333334
EXTRACT: note_on channel=2 note=65 velocity=0 time=0.07526878333333334
EXTRACT: note_on channel=1 note=38 velocity=70 time=0.03225805
EXTRACT: note_on channel=9 note=35 velocity=58 time=0
EXTRACT: note_on channel=9 note=38 velocity=58 time=0
EXTRACT: note_on channel=3 note=38 velocity=52 time=0.005376341666666667
EXTRACT: note_on channel=9 note=38 velocity=0 time=0
EXTRACT: note_on channel=9 note=35 velocity=0 time=0
EXTRACT: note_on channel=1 note=43 velocity=0 time=0.08602146666666667
EXTRACT: control_change channel=2 control=64 value=0 time=0.2311826916666667
EXTRACT: note_on channel=2 note=69 velocity=65 time=0
EXTRACT: note_on channel=2 note=57 velocity=43 time=0
EXTRACT: note_on channel=2 note=62 velocity=53 time=0
EXTRACT: note_on channel=2 note=65 velocity=66 time=0
EXTRACT: note_on channel=2 note=53 velocity=46 time=0
EXTRACT: note_on channel=2 note=60 velocity=70 time=0
EXTRACT: note_on channel=7 note=38 velocity=0 time=0
EXTRACT: note_on channel=7 note=43 velocity=85 time=0
EXTRACT: note_on channel=9 note=38 velocity=38 time=0
EXTRACT: note_on channel=9 note=38 velocity=0 time=0.005376341666666667
EXTRACT: note_on channel=3 note=64 velocity=61 time=0.021505366666666668
EXTRACT: note_on channel=3 note=53 velocity=42 time=0.021505366666666668
EXTRACT: note_on channel=3 note=60 velocity=57 time=0
EXTRACT: note_on channel=7 note=43 velocity=0 time=0.11290317500000001
EXTRACT: note_on channel=7 note=43 velocity=85 time=0
EXTRACT: note_on channel=9 note=38 velocity=48 time=0.16129025
EXTRACT: note_on channel=9 note=42 velocity=48 time=0
EXTRACT: note_on channel=9 note=42 velocity=0 time=0.005376341666666667
EXTRACT: note_on channel=9 note=38 velocity=0 time=0
EXTRACT: note_on channel=3 note=60 velocity=0 time=0.005376341666666667
EXTRACT: note_on channel=3 note=53 velocity=0 time=0.010752683333333334
EXTRACT: note_on channel=3 note=64 velocity=0 time=0.021505366666666668
EXTRACT: note_on channel=3 note=38 velocity=0 time=0.07526878333333334
EXTRACT: note_on channel=7 note=43 velocity=0 time=0.20430098333333335
EXTRACT: note_on channel=7 note=38 velocity=85 time=0
EXTRACT: note_on channel=9 note=38 velocity=58 time=0
EXTRACT: note_on channel=9 note=38 velocity=0 time=0.005376341666666667
EXTRACT: note_on channel=2 note=60 velocity=0 time=0.07526878333333334
EXTRACT: note_on channel=2 note=57 velocity=0 time=0.03763439166666667
EXTRACT: note_on channel=2 note=53 velocity=0 time=0
EXTRACT: note_on channel=2 note=69 velocity=0 time=0.021505366666666668
EXTRACT: note_on channel=2 note=62 velocity=0 time=0.010752683333333334
EXTRACT: note_on channel=2 note=65 velocity=0 time=0
EXTRACT: note_on channel=1 note=38 velocity=0 time=0.03763439166666667
EXTRACT: note_on channel=4 note=62 velocity=0 time=0.043010733333333336
EXTRACT: note_on channel=11 note=62 velocity=0 time=0
EXTRACT: note_on channel=1 note=43 velocity=87 time=0
EXTRACT: note_on channel=2 note=64 velocity=56 time=0
EXTRACT: control_change channel=3 control=64 value=0 time=0
EXTRACT: note_on channel=4 note=65 velocity=85 time=0
EXTRACT: note_on channel=5 note=53 velocity=0 time=0
EXTRACT: note_on channel=5 note=60 velocity=0 time=0
EXTRACT: note_on channel=5 note=62 velocity=0 time=0
EXTRACT: note_on channel=5 note=57 velocity=0 time=0
EXTRACT: note_on channel=5 note=57 velocity=82 time=0
EXTRACT: note_on channel=5 note=62 velocity=82 time=0
EXTRACT: note_on channel=5 note=60 velocity=82 time=0
EXTRACT: note_on channel=5 note=65 velocity=82 time=0
EXTRACT: note_on channel=7 note=38 velocity=0 time=0
EXTRACT: note_on channel=7 note=31 velocity=85 time=0
EXTRACT: note_on channel=7 note=43 velocity=85 time=0
EXTRACT: note_on channel=9 note=35 velocity=58 time=0
EXTRACT: note_on channel=9 note=38 velocity=50 time=0
EXTRACT: note_on channel=10 note=53 velocity=0 time=0
EXTRACT: note_on channel=10 note=60 velocity=0 time=0
EXTRACT: note_on channel=10 note=62 velocity=0 time=0
EXTRACT: note_on channel=10 note=57 velocity=0 time=0
EXTRACT: note_on channel=10 note=57 velocity=78 time=0
EXTRACT: note_on channel=10 note=62 velocity=78 time=0
EXTRACT: note_on channel=10 note=60 velocity=78 time=0
EXTRACT: note_on channel=10 note=65 velocity=78 time=0
EXTRACT: note_on channel=11 note=65 velocity=78 time=0
EXTRACT: note_on channel=3 note=60 velocity=52 time=0.005376341666666667
EXTRACT: note_on channel=9 note=38 velocity=0 time=0
EXTRACT: note_on channel=9 note=35 velocity=0 time=0
EXTRACT: note_on channel=3 note=62 velocity=46 time=0.03225805
EXTRACT: note_on channel=3 note=53 velocity=42 time=0
EXTRACT: note_on channel=3 note=43 velocity=39 time=0
EXTRACT: note_on channel=2 note=60 velocity=67 time=0.010752683333333334
EXTRACT: note_on channel=2 note=53 velocity=39 time=0
EXTRACT: note_on channel=2 note=65 velocity=61 time=0.09677415
EXTRACT: control_change channel=3 control=64 value=127 time=0.059139758333333334
EXTRACT: note_on channel=3 note=60 velocity=0 time=0.03225805
EXTRACT: note_on channel=3 note=53 velocity=0 time=0.016129025
EXTRACT: note_on channel=3 note=62 velocity=0 time=0.010752683333333334
EXTRACT: note_on channel=2 note=69 velocity=52 time=0.026881708333333334
EXTRACT: note_on channel=4 note=65 velocity=0 time=0
EXTRACT: note_on channel=4 note=65 velocity=85 time=0
EXTRACT: note_on channel=5 note=65 velocity=0 time=0
EXTRACT: note_on channel=5 note=57 velocity=0 time=0
EXTRACT: note_on channel=5 note=62 velocity=0 time=0
EXTRACT: note_on channel=5 note=60 velocity=0 time=0
EXTRACT: note_on channel=5 note=65 velocity=82 time=0
EXTRACT: note_on channel=9 note=38 velocity=38 time=0
EXTRACT: note_on channel=10 note=65 velocity=0 time=0
EXTRACT: note_on channel=10 note=57 velocity=0 time=0
EXTRACT: note_on channel=10 note=62 velocity=0 time=0
EXTRACT: note_on channel=10 note=60 velocity=0 time=0
EXTRACT: note_on channel=10 note=65 velocity=78 time=0
EXTRACT: note_on channel=11 note=65 velocity=0 time=0
EXTRACT: note_on channel=11 note=65 velocity=78 time=0
EXTRACT: note_on channel=9 note=38 velocity=0 time=0.005376341666666667
EXTRACT: control_change channel=2 control=64 value=127 time=0
EXTRACT: note_on channel=4 note=65 velocity=0 time=0
EXTRACT: note_on channel=4 note=65 velocity=85 time=0
EXTRACT: note_on channel=5 note=65 velocity=0 time=0
EXTRACT: note_on channel=5 note=65 velocity=82 time=0
EXTRACT: note_on channel=10 note=65 velocity=0 time=0
EXTRACT: note_on channel=10 note=65 velocity=78 time=0
EXTRACT: note_on channel=11 note=65 velocity=0 time=0
EXTRACT: note_on channel=11 note=65 velocity=78 time=0
EXTRACT: note_on channel=4 note=65 velocity=0 time=0
EXTRACT: note_on channel=4 note=65 velocity=85 time=0
EXTRACT: note_on channel=5 note=65 velocity=0 time=0
EXTRACT: note_on channel=5 note=65 velocity=82 time=0
EXTRACT: note_on channel=9 note=38 velocity=58 time=0
EXTRACT: note_on channel=9 note=42 velocity=48 time=0
EXTRACT: note_on channel=10 note=65 velocity=0 time=0
EXTRACT: note_on channel=10 note=65 velocity=78 time=0
EXTRACT: note_on channel=11 note=65 velocity=0 time=0
EXTRACT: note_on channel=11 note=65 velocity=78 time=0
EXTRACT: note_on channel=9 note=42 velocity=0 time=0.005376341666666667
EXTRACT: note_on channel=9 note=38 velocity=0 time=0
EXTRACT: note_on channel=3 note=62 velocity=54 time=0.005376341666666667
EXTRACT: note_on channel=3 note=60 velocity=64 time=0.005376341666666667
EXTRACT: note_on channel=3 note=53 velocity=48 time=0.010752683333333334
EXTRACT: note_on channel=3 note=60 velocity=0 time=0.16129025
EXTRACT: note_on channel=3 note=53 velocity=0 time=0.03225805
EXTRACT: note_on channel=3 note=62 velocity=0 time=0.021505366666666668
EXTRACT: note_on channel=4 note=65 velocity=0 time=0
EXTRACT: note_on channel=4 note=67 velocity=85 time=0
EXTRACT: note_on channel=5 note=65 velocity=0 time=0
EXTRACT: note_on channel=5 note=67 velocity=82 time=0
EXTRACT: note_on channel=9 note=38 velocity=38 time=0
EXTRACT: note_on channel=10 note=65 velocity=0 time=0
EXTRACT: note_on channel=10 note=67 velocity=78 time=0
EXTRACT: note_on channel=11 note=65 velocity=0 time=0
EXTRACT: note_on channel=11 note=67 velocity=78 time=0
EXTRACT: note_on channel=9 note=38 velocity=0 time=0.005376341666666667
EXTRACT: control_change channel=2 control=0 value=0 time=0.15591390833333335
EXTRACT: control_change channel=3 control=64 value=0 time=0.026881708333333334
EXTRACT: note_on channel=1 note=38 velocity=79 time=0
EXTRACT: note_on channel=3 note=64 velocity=51 time=0
EXTRACT: note_on channel=4 note=67 velocity=0 time=0
EXTRACT: note_on channel=4 note=65 velocity=85 time=0
EXTRACT: note_on channel=5 note=67 velocity=0 time=0
EXTRACT: note_on channel=5 note=65 velocity=82 time=0
EXTRACT: note_on channel=9 note=35 velocity=58 time=0
EXTRACT: note_on channel=9 note=38 velocity=58 time=0
EXTRACT: note_on channel=10 note=67 velocity=0 time=0
EXTRACT: note_on channel=10 note=65 velocity=78 time=0
EXTRACT: note_on channel=11 note=67 velocity=0 time=0
EXTRACT: note_on channel=11 note=65 velocity=78 time=0
EXTRACT: note_on channel=9 note=38 velocity=0 time=0.005376341666666667
EXTRACT: note_on channel=9 note=35 velocity=0 time=0
EXTRACT: note_on channel=3 note=38 velocity=51 time=0.005376341666666667
EXTRACT: note_on channel=3 note=60 velocity=58 time=0
EXTRACT: note_on channel=3 note=53 velocity=41 time=0
EXTRACT: note_on channel=3 note=43 velocity=0 time=0.059139758333333334
EXTRACT: note_on channel=1 note=43 velocity=0 time=0.09139780833333334
EXTRACT: control_change channel=3 control=64 value=127 time=0.10752683333333334
EXTRACT: note_on channel=4 note=65 velocity=0 time=0
EXTRACT: note_on channel=4 note=64 velocity=85 time=0
EXTRACT: note_on channel=5 note=65 velocity=0 time=0
EXTRACT: note_on channel=5 note=64 velocity=82 time=0
EXTRACT: note_on channel=9 note=38 velocity=38 time=0
EXTRACT: note_on channel=10 note=65 velocity=0 time=0
EXTRACT: note_on channel=10 note=64 velocity=78 time=0
EXTRACT: note_on channel=11 note=65 velocity=0 time=0
EXTRACT: note_on channel=11 note=64 velocity=78 time=0
EXTRACT: note_on channel=9 note=38 velocity=0 time=0.005376341666666667
EXTRACT: note_on channel=3 note=60 velocity=0 time=0.09139780833333334
EXTRACT: note_on channel=3 note=53 velocity=0 time=0.016129025
EXTRACT: note_on channel=3 note=64 velocity=0 time=0.021505366666666668
EXTRACT: control_change channel=2 control=0 value=0 time=0.026881708333333334
EXTRACT: note_on channel=4 note=64 velocity=0 time=0
EXTRACT: note_on channel=4 note=62 velocity=85 time=0
EXTRACT: note_on channel=5 note=64 velocity=0 time=0
EXTRACT: note_on channel=5 note=62 velocity=82 time=0
EXTRACT: note_on channel=9 note=38 velocity=48 time=0
EXTRACT: note_on channel=9 note=42 velocity=48 time=0
EXTRACT: note_on channel=10 note=64 velocity=0 time=0
EXTRACT: note_on channel=10 note=62 velocity=78 time=0
EXTRACT: note_on channel=11 note=64 velocity=0 time=0
EXTRACT: note_on channel=11 note=62 velocity=78 time=0
EXTRACT: note_on channel=9 note=42 velocity=0 time=0.005376341666666667
EXTRACT: note_on channel=9 note=38 velocity=0 time=0
EXTRACT: note_on channel=3 note=38 velocity=0 time=0.27956976666666666
EXTRACT: note_on channel=4 note=62 velocity=0 time=0
EXTRACT: note_on channel=4 note=64 velocity=85 time=0
EXTRACT: note_on channel=5 note=62 velocity=0 time=0
EXTRACT: note_on channel=5 note=64 velocity=82 time=0
EXTRACT: note_on channel=9 note=38 velocity=58 time=0
EXTRACT: note_on channel=10 note=62 velocity=0 time=0
EXTRACT: note_on channel=10 note=64 velocity=78 time=0
EXTRACT: note_on channel=11 note=62 velocity=0 time=0
EXTRACT: note_on channel=11 note=64 velocity=78 time=0
EXTRACT: note_on channel=9 note=38 velocity=0 time=0.005376341666666667
EXTRACT: note_on channel=3 note=64 velocity=45 time=0.005376341666666667
EXTRACT: note_on channel=3 note=60 velocity=68 time=0.016129025
EXTRACT: note_on channel=3 note=53 velocity=25 time=0.026881708333333334
EXTRACT: note_on channel=3 note=60 velocity=0 time=0.0645161
EXTRACT: note_on channel=3 note=53 velocity=0 time=0.010752683333333334
EXTRACT: note_on channel=3 note=64 velocity=0 time=0.026881708333333334
EXTRACT: control_change channel=2 control=0 value=0 time=0.005376341666666667
EXTRACT: control_change channel=3 control=64 value=0 time=0.10752683333333334
EXTRACT: note_on channel=1 note=43 velocity=74 time=0
EXTRACT: note_on channel=4 note=64 velocity=0 time=0
EXTRACT: note_on channel=4 note=65 velocity=85 time=0
EXTRACT: note_on channel=5 note=64 velocity=0 time=0
EXTRACT: note_on channel=5 note=65 velocity=82 time=0
EXTRACT: note_on channel=5 note=60 velocity=82 time=0
EXTRACT: note_on channel=5 note=57 velocity=82 time=0
EXTRACT: note_on channel=5 note=62 velocity=82 time=0
EXTRACT: note_on channel=7 note=43 velocity=0 time=0
EXTRACT: note_on channel=7 note=31 velocity=0 time=0
EXTRACT: note_on channel=7 note=31 velocity=85 time=0
EXTRACT: note_on channel=9 note=35 velocity=58 time=0
EXTRACT: note_on channel=9 note=38 velocity=50 time=0
EXTRACT: note_on channel=10 note=64 velocity=0 time=0
EXTRACT: note_on channel=10 note=65 velocity=78 time=0
EXTRACT: note_on channel=10 note=60 velocity=78 time=0
EXTRACT: note_on channel=10 note=57 velocity=78 time=0
EXTRACT: note_on channel=10 note=62 velocity=78 time=0
EXTRACT: note_on channel=11 note=64 velocity=0 time=0
EXTRACT: note_on channel=11 note=65 velocity=78 time=0
EXTRACT: note_on channel=1 note=38 velocity=0 time=0.005376341666666667
EXTRACT: note_on channel=3 note=43 velocity=45 time=0
EXTRACT: note_on channel=9 note=38 velocity=0 time=0
EXTRACT: note_on channel=9 note=35 velocity=0 time=0
EXTRACT: note_on channel=3 note=53 velocity=49 time=0.005376341666666667
EXTRACT: note_on channel=3 note=60 velocity=63 time=0.005376341666666667
EXTRACT: note_on channel=3 note=64 velocity=59 time=0.005376341666666667
EXTRACT: note_on channel=3 note=53 velocity=0 time=0.15591390833333335
EXTRACT: note_on channel=3 note=60 velocity=0 time=0.005376341666666667
EXTRACT: note_on channel=3 note=64 velocity=0 time=0.03763439166666667
EXTRACT: note_on channel=4 note=65 velocity=0 time=0
EXTRACT: note_on channel=4 note=65 velocity=85 time=0
EXTRACT: note_on channel=5 note=62 velocity=0 time=0
EXTRACT: note_on channel=5 note=65 velocity=0 time=0
EXTRACT: note_on channel=5 note=60 velocity=0 time=0
EXTRACT: note_on channel=5 note=57 velocity=0 time=0
EXTRACT: note_on channel=5 note=57 velocity=82 time=0
EXTRACT: note_on channel=5 note=65 velocity=82 time=0
EXTRACT: note_on channel=5 note=60 velocity=82 time=0
EXTRACT: note_on channel=5 note=62 velocity=82 time=0
EXTRACT: note_on channel=9 note=38 velocity=38 time=0
EXTRACT: note_on channel=10 note=62 velocity=0 time=0
EXTRACT: note_on channel=10 note=65 velocity=0 time=0
EXTRACT: note_on channel=10 note=60 velocity=0 time=0
EXTRACT: note_on channel=10 note=57 velocity=0 time=0
EXTRACT: note_on channel=10 note=57 velocity=78 time=0
EXTRACT: note_on channel=10 note=65 velocity=78 time=0
EXTRACT: note_on channel=10 note=60 velocity=78 time=0
EXTRACT: note_on channel=10 note=62 velocity=78 time=0
EXTRACT: note_on channel=11 note=65 velocity=0 time=0
EXTRACT: note_on channel=11 note=65 velocity=78 time=0
EXTRACT: note_on channel=9 note=38 velocity=0 time=0.005376341666666667
EXTRACT: note_on channel=3 note=53 velocity=57 time=0.03763439166666667
EXTRACT: note_on channel=3 note=64 velocity=46 time=0.010752683333333334
EXTRACT: note_on channel=3 note=60 velocity=52 time=0.005376341666666667
EXTRACT: control_change channel=3 control=64 value=127 time=0
EXTRACT: control_change channel=2 control=0 value=0 time=0.10215049166666668
EXTRACT: note_on channel=3 note=60 velocity=0 time=0.0645161
EXTRACT: note_on channel=3 note=53 velocity=0 time=0.010752683333333334
EXTRACT: note_on channel=3 note=64 velocity=0 time=0.026881708333333334
EXTRACT: control_change channel=2 control=0 value=0 time=0.059139758333333334
EXTRACT: note_on channel=9 note=38 velocity=58 time=0
EXTRACT: note_on channel=9 note=42 velocity=48 time=0
EXTRACT: note_on channel=9 note=42 velocity=0 time=0.005376341666666667
EXTRACT: note_on channel=9 note=38 velocity=0 time=0
EXTRACT: note_on channel=7 note=31 velocity=0 time=0.3172041583333334
EXTRACT: note_on channel=7 note=38 velocity=85 time=0
EXTRACT: note_on channel=9 note=38 velocity=38 time=0
EXTRACT: note_on channel=9 note=38 velocity=0 time=0.005376341666666667
EXTRACT: note_on channel=3 note=43 velocity=0 time=0.010752683333333334
EXTRACT: note_on channel=3 note=53 velocity=66 time=0.010752683333333334
EXTRACT: note_on channel=3 note=62 velocity=64 time=0
EXTRACT: note_on channel=3 note=60 velocity=71 time=0
EXTRACT: note_on channel=7 note=38 velocity=0 time=0.1344085416666667
EXTRACT: note_on channel=7 note=38 velocity=85 time=0
EXTRACT: note_on channel=3 note=60 velocity=0 time=0.09139780833333334
EXTRACT: note_on channel=3 note=53 velocity=0 time=0.03225805
EXTRACT: control_change channel=3 control=64 value=0 time=0
EXTRACT: note_on channel=3 note=62 velocity=0 time=0.016129025
EXTRACT: note_on channel=1 note=38 velocity=70 time=0.021505366666666668
EXTRACT: control_change channel=2 control=0 value=0 time=0
EXTRACT: note_on channel=9 note=35 velocity=58 time=0
EXTRACT: note_on channel=9 note=38 velocity=58 time=0
EXTRACT: note_on channel=9 note=38 velocity=0 time=0.005376341666666667
EXTRACT: note_on channel=9 note=35 velocity=0 time=0
EXTRACT: note_on channel=3 note=38 velocity=50 time=0.03763439166666667
EXTRACT: note_on channel=1 note=43 velocity=0 time=0.048387075
EXTRACT: note_on channel=7 note=38 velocity=0 time=0.2311826916666667
EXTRACT: note_on channel=7 note=43 velocity=85 time=0
EXTRACT: note_on channel=9 note=38 velocity=38 time=0
EXTRACT: note_on channel=9 note=38 velocity=0 time=0.005376341666666667
EXTRACT: note_on channel=3 note=60 velocity=66 time=0.026881708333333334
EXTRACT: note_on channel=3 note=53 velocity=47 time=0
EXTRACT: note_on channel=3 note=64 velocity=57 time=0.016129025
EXTRACT: note_on channel=7 note=43 velocity=0 time=0.11290317500000001
EXTRACT: note_on channel=7 note=43 velocity=85 time=0
EXTRACT: control_change channel=2 control=0 value=0 time=0.16129025
EXTRACT: note_on channel=9 note=38 velocity=48 time=0
EXTRACT: note_on channel=9 note=42 velocity=48 time=0
EXTRACT: note_on channel=9 note=42 velocity=0 time=0.005376341666666667
EXTRACT: note_on channel=9 note=38 velocity=0 time=0
EXTRACT: note_on channel=7 note=43 velocity=0 time=0.3172041583333334
EXTRACT: note_on channel=7 note=38 velocity=85 time=0
EXTRACT: note_on channel=9 note=38 velocity=58 time=0
EXTRACT: note_on channel=9 note=38 velocity=0 time=0.005376341666666667
EXTRACT: note_on channel=2 note=69 velocity=0 time=0.021505366666666668
EXTRACT: note_on channel=2 note=53 velocity=0 time=0
EXTRACT: note_on channel=2 note=64 velocity=0 time=0
EXTRACT: note_on channel=2 note=60 velocity=0 time=0
EXTRACT: note_on channel=2 note=65 velocity=0 time=0
EXTRACT: control_change channel=2 control=64 value=0 time=0.05376341666666667
EXTRACT: note_on channel=2 note=64 velocity=63 time=0.010752683333333334
EXTRACT: note_on channel=2 note=62 velocity=63 time=0
EXTRACT: note_on channel=2 note=59 velocity=63 time=0
EXTRACT: note_on channel=2 note=67 velocity=63 time=0
EXTRACT: note_on channel=1 note=38 velocity=0 time=0.09677415
EXTRACT: note_on channel=3 note=38 velocity=0 time=0.016129025
EXTRACT: note_on channel=4 note=65 velocity=0 time=0.026881708333333334
EXTRACT: note_on channel=11 note=65 velocity=0 time=0
EXTRACT: note_on channel=3 note=60 velocity=0 time=0.005376341666666667
EXTRACT: note_on channel=3 note=53 velocity=0 time=0.026881708333333334
EXTRACT: note_on channel=1 note=36 velocity=77 time=0.059139758333333334
EXTRACT: note_on channel=3 note=64 velocity=0 time=0
EXTRACT: note_on channel=5 note=62 velocity=0 time=0
EXTRACT: note_on channel=5 note=57 velocity=0 time=0
EXTRACT: note_on channel=5 note=65 velocity=0 time=0
EXTRACT: note_on channel=5 note=60 velocity=0 time=0
EXTRACT: note_on channel=7 note=38 velocity=0 time=0
EXTRACT: note_on channel=7 note=36 velocity=85 time=0
EXTRACT: note_on channel=9 note=35 velocity=58 time=0
EXTRACT: note_on channel=9 note=38 velocity=50 time=0
EXTRACT: note_on channel=10 note=62 velocity=0 time=0
EXTRACT: note_on channel=10 note=57 velocity=0 time=0
EXTRACT: note_on channel=10 note=65 velocity=0 time=0
EXTRACT: note_on channel=10 note=60 velocity=0 time=0
EXTRACT: note_on channel=3 note=52 velocity=47 time=0.005376341666666667
EXTRACT: note_on channel=9 note=38 velocity=0 time=0
EXTRACT: note_on channel=9 note=35 velocity=0 time=0
EXTRACT: note_on channel=3 note=59 velocity=59 time=0.005376341666666667
EXTRACT: note_on channel=3 note=62 velocity=42 time=0.005376341666666667
EXTRACT: control_change channel=3 control=64 value=127 time=0.1827956166666667
EXTRACT: note_on channel=2 note=67 velocity=0 time=0.005376341666666667
EXTRACT: note_on channel=2 note=64 velocity=0 time=0
EXTRACT: note_on channel=2 note=62 velocity=0 time=0
EXTRACT: note_on channel=2 note=59 velocity=0 time=0
EXTRACT: note_on channel=3 note=59 velocity=0 time=0.10752683333333334
EXTRACT: note_on channel=9 note=38 velocity=38 time=0.010752683333333334
EXTRACT: note_on channel=9 note=38 velocity=0 time=0.005376341666666667
EXTRACT: note_on channel=3 note=52 velocity=0 time=0.043010733333333336
EXTRACT: note_on channel=3 note=62 velocity=0 time=0.048387075
EXTRACT: note_on channel=2 note=64 velocity=46 time=0.21505366666666667
EXTRACT: note_on channel=2 note=62 velocity=46 time=0
EXTRACT: note_on channel=2 note=59 velocity=46 time=0
EXTRACT: note_on channel=2 note=67 velocity=46 time=0
EXTRACT: note_on channel=4 note=64 velocity=85 time=0
EXTRACT: note_on channel=5 note=55 velocity=82 time=0
EXTRACT: note_on channel=5 note=59 velocity=82 time=0
EXTRACT: note_on channel=5 note=64 velocity=82 time=0
EXTRACT: note_on channel=9 note=38 velocity=58 time=0
EXTRACT: note_on channel=9 note=42 velocity=48 time=0
EXTRACT: note_on channel=10 note=55 velocity=78 time=0
EXTRACT: note_on channel=10 note=59 velocity=78 time=0
EXTRACT: note_on channel=10 note=64 velocity=78 time=0
EXTRACT: note_on channel=11 note=64 velocity=78 time=0
EXTRACT: note_on channel=9 note=42 velocity=0 time=0.005376341666666667
EXTRACT: note_on channel=9 note=38 velocity=0 time=0
EXTRACT: note_on channel=2 note=67 velocity=0 time=0.21505366666666667
EXTRACT: note_on channel=2 note=64 velocity=0 time=0
EXTRACT: note_on channel=2 note=62 velocity=0 time=0
EXTRACT: note_on channel=2 note=59 velocity=0 time=0
EXTRACT: note_on channel=1 note=36 velocity=0 time=0.021505366666666668
EXTRACT: note_on channel=1 note=36 velocity=83 time=0
EXTRACT: note_on channel=4 note=64 velocity=0 time=0
EXTRACT: note_on channel=4 note=67 velocity=85 time=0
EXTRACT: note_on channel=5 note=64 velocity=0 time=0
EXTRACT: note_on channel=5 note=59 velocity=0 time=0
EXTRACT: note_on channel=5 note=55 velocity=0 time=0
EXTRACT: note_on channel=5 note=59 velocity=82 time=0
EXTRACT: note_on channel=5 note=64 velocity=82 time=0
EXTRACT: note_on channel=5 note=67 velocity=82 time=0
EXTRACT: note_on channel=7 note=36 velocity=0 time=0
EXTRACT: note_on channel=7 note=31 velocity=85 time=0
EXTRACT: note_on channel=9 note=38 velocity=38 time=0
EXTRACT: note_on channel=10 note=64 velocity=0 time=0
EXTRACT: note_on channel=10 note=59 velocity=0 time=0
EXTRACT: note_on channel=10 note=55 velocity=0 time=0
EXTRACT: note_on channel=10 note=59 velocity=78 time=0
EXTRACT: note_on channel=10 note=64 velocity=78 time=0
EXTRACT: note_on channel=10 note=67 velocity=78 time=0
EXTRACT: note_on channel=11 note=64 velocity=0 time=0
EXTRACT: note_on channel=11 note=67 velocity=78 time=0
EXTRACT: note_on channel=9 note=38 velocity=0 time=0.005376341666666667
EXTRACT: note_on channel=3 note=62 velocity=52 time=0.03225805
EXTRACT: note_on channel=3 note=59 velocity=59 time=0.021505366666666668
EXTRACT: note_on channel=3 note=52 velocity=40 time=0.010752683333333334
EXTRACT: note_on channel=3 note=59 velocity=0 time=0.22580635000000002
EXTRACT: note_on channel=1 note=43 velocity=74 time=0.026881708333333334
EXTRACT: note_on channel=7 note=31 velocity=0 time=0
EXTRACT: note_on channel=7 note=36 velocity=85 time=0
EXTRACT: note_on channel=9 note=35 velocity=58 time=0
EXTRACT: note_on channel=9 note=38 velocity=58 time=0
EXTRACT: note_on channel=9 note=38 velocity=0 time=0.005376341666666667
EXTRACT: note_on channel=9 note=35 velocity=0 time=0
EXTRACT: note_on channel=3 note=62 velocity=0 time=0.021505366666666668
EXTRACT: note_on channel=1 note=36 velocity=0 time=0.010752683333333334
EXTRACT: note_on channel=3 note=52 velocity=0 time=0.010752683333333334
EXTRACT: note_on channel=7 note=36 velocity=0 time=0.274193425
EXTRACT: note_on channel=7 note=36 velocity=85 time=0
EXTRACT: note_on channel=9 note=38 velocity=38 time=0
EXTRACT: note_on channel=9 note=38 velocity=0 time=0.005376341666666667
EXTRACT: note_on channel=2 note=64 velocity=58 time=0.043010733333333336
EXTRACT: note_on channel=2 note=62 velocity=58 time=0
EXTRACT: note_on channel=2 note=59 velocity=58 time=0
EXTRACT: note_on channel=2 note=67 velocity=58 time=0
EXTRACT: note_on channel=2 note=67 velocity=0 time=0.24731171666666668
EXTRACT: note_on channel=2 note=64 velocity=0 time=0
EXTRACT: note_on channel=2 note=62 velocity=0 time=0
EXTRACT: note_on channel=2 note=59 velocity=0 time=0
EXTRACT: note_on channel=9 note=38 velocity=48 time=0.026881708333333334
EXTRACT: note_on channel=9 note=42 velocity=48 time=0
EXTRACT: note_on channel=3 note=52 velocity=55 time=0.005376341666666667
EXTRACT: note_on channel=3 note=59 velocity=55 time=0
EXTRACT: note_on channel=3 note=62 velocity=61 time=0
EXTRACT: note_on channel=9 note=42 velocity=0 time=0
EXTRACT: note_on channel=9 note=38 velocity=0 time=0
EXTRACT: note_on channel=1 note=43 velocity=0 time=0.03763439166666667
EXTRACT: note_on channel=3 note=59 velocity=0 time=0.16129025
EXTRACT: note_on channel=3 note=52 velocity=0 time=0.06989244166666667
EXTRACT: note_on channel=3 note=62 velocity=0 time=0.010752683333333334
EXTRACT: note_on channel=1 note=43 velocity=76 time=0.03763439166666667
EXTRACT: note_on channel=7 note=36 velocity=0 time=0
EXTRACT: note_on channel=7 note=31 velocity=85 time=0
EXTRACT: note_on channel=9 note=38 velocity=58 time=0
EXTRACT: note_on channel=9 note=38 velocity=0 time=0.005376341666666667
EXTRACT: note_on channel=1 note=36 velocity=75 time=0.3172041583333334
EXTRACT: note_on channel=6 note=55 velocity=82 time=0
EXTRACT: note_on channel=6 note=59 velocity=82 time=0
EXTRACT: note_on channel=6 note=64 velocity=82 time=0
EXTRACT: note_on channel=7 note=31 velocity=0 time=0
EXTRACT: note_on channel=7 note=36 velocity=85 time=0
EXTRACT: note_on channel=9 note=35 velocity=58 time=0
EXTRACT: note_on channel=9 note=38 velocity=50 time=0
EXTRACT: note_on channel=9 note=38 velocity=0 time=0.005376341666666667
EXTRACT: note_on channel=9 note=35 velocity=0 time=0
EXTRACT: note_on channel=2 note=64 velocity=53 time=0.021505366666666668
EXTRACT: note_on channel=2 note=62 velocity=53 time=0
EXTRACT: note_on channel=2 note=59 velocity=53 time=0
EXTRACT: note_on channel=2 note=67 velocity=53 time=0
EXTRACT: note_on channel=1 note=43 velocity=0 time=0.043010733333333336
EXTRACT: note_on channel=9 note=38 velocity=38 time=0.25268805833333335
EXTRACT: note_on channel=9 note=38 velocity=0 time=0.005376341666666667
EXTRACT: note_on channel=4 note=67 velocity=0 time=0.22580635000000002
EXTRACT: note_on channel=11 note=67 velocity=0 time=0
EXTRACT: note_on channel=5 note=67 velocity=0 time=0.09139780833333334
EXTRACT: note_on channel=5 note=64 velocity=0 time=0
EXTRACT: note_on channel=5 note=59 velocity=0 time=0
EXTRACT: note_on channel=6 note=64 velocity=0 time=0
EXTRACT: note_on channel=6 note=59 velocity=0 time=0
EXTRACT: note_on channel=6 note=55 velocity=0 time=0
EXTRACT: note_on channel=9 note=38 velocity=58 time=0
EXTRACT: note_on channel=9 note=42 velocity=48 time=0
EXTRACT: note_on channel=10 note=67 velocity=0 time=0
EXTRACT: note_on channel=10 note=64 velocity=0 time=0
EXTRACT: note_on channel=10 note=59 velocity=0 time=0
EXTRACT: note_on channel=3 note=62 velocity=51 time=0.005376341666666667
EXTRACT: note_on channel=9 note=42 velocity=0 time=0
EXTRACT: note_on channel=9 note=38 velocity=0 time=0
EXTRACT: note_on channel=3 note=52 velocity=48 time=0.005376341666666667
EXTRACT: note_on channel=3 note=59 velocity=59 time=0
EXTRACT: note_on channel=2 note=67 velocity=0 time=0.03763439166666667
EXTRACT: note_on channel=2 note=64 velocity=0 time=0
EXTRACT: note_on channel=2 note=62 velocity=0 time=0
EXTRACT: note_on channel=2 note=59 velocity=0 time=0
EXTRACT: note_on channel=1 note=36 velocity=0 time=0.08602146666666667
EXTRACT: note_on channel=3 note=59 velocity=0 time=0.10215049166666668
EXTRACT: note_on channel=3 note=62 velocity=0 time=0.03763439166666667
EXTRACT: note_on channel=3 note=52 velocity=0 time=0.026881708333333334
EXTRACT: note_on channel=1 note=36 velocity=80 time=0
EXTRACT: note_on channel=4 note=67 velocity=85 time=0
EXTRACT: note_on channel=5 note=67 velocity=82 time=0
EXTRACT: note_on channel=9 note=38 velocity=38 time=0
EXTRACT: note_on channel=10 note=67 velocity=78 time=0
EXTRACT: note_on channel=11 note=67 velocity=78 time=0
EXTRACT: note_on channel=9 note=38 velocity=0 time=0.005376341666666667
EXTRACT: note_on channel=2 note=64 velocity=59 time=0.03763439166666667
EXTRACT: note_on channel=2 note=62 velocity=59 time=0
EXTRACT: note_on channel=2 note=59 velocity=59 time=0
EXTRACT: note_on channel=2 note=67 velocity=59 time=0
EXTRACT: note_on channel=1 note=43 velocity=74 time=0
EXTRACT: note_on channel=4 note=67 velocity=0 time=0
EXTRACT: note_on channel=4 note=67 velocity=85 time=0
EXTRACT: note_on channel=5 note=67 velocity=0 time=0
EXTRACT: note_on channel=5 note=67 velocity=82 time=0
EXTRACT: note_on channel=6 note=59 velocity=82 time=0
EXTRACT: note_on channel=6 note=64 velocity=82 time=0
EXTRACT: note_on channel=6 note=67 velocity=82 time=0
EXTRACT: note_on channel=9 note=35 velocity=58 time=0
EXTRACT: note_on channel=9 note=38 velocity=58 time=0
EXTRACT: note_on channel=10 note=67 velocity=0 time=0
EXTRACT: note_on channel=10 note=67 velocity=78 time=0
EXTRACT: note_on channel=11 note=67 velocity=0 time=0
EXTRACT: note_on channel=11 note=67 velocity=78 time=0
EXTRACT: note_on channel=9 note=38 velocity=0 time=0.005376341666666667
EXTRACT: note_on channel=9 note=35 velocity=0 time=0
EXTRACT: note_on channel=1 note=36 velocity=0 time=0.016129025
EXTRACT: note_on channel=9 note=38 velocity=38 time=0.30107513333333336
EXTRACT: note_on channel=9 note=48 velocity=50 time=0
EXTRACT: note_on channel=3 note=62 velocity=45 time=0.005376341666666667
EXTRACT: note_on channel=9 note=48 velocity=0 time=0
EXTRACT: note_on channel=9 note=38 velocity=0 time=0
EXTRACT: note_on channel=3 note=59 velocity=60 time=0.021505366666666668
EXTRACT: note_on channel=3 note=52 velocity=49 time=0.010752683333333334
EXTRACT: note_on channel=4 note=67 velocity=0 time=0
EXTRACT: note_on channel=4 note=69 velocity=85 time=0
EXTRACT: note_on channel=5 note=67 velocity=0 time=0
EXTRACT: note_on channel=5 note=69 velocity=82 time=0
EXTRACT: note_on channel=10 note=67 velocity=0 time=0
EXTRACT: note_on channel=10 note=69 velocity=78 time=0
EXTRACT: note_on channel=11 note=67 velocity=0 time=0
EXTRACT: note_on channel=11 note=69 velocity=78 time=0
EXTRACT: note_on channel=3 note=59 velocity=0 time=0.09677415
EXTRACT: note_on channel=3 note=52 velocity=0 time=0.043010733333333336
EXTRACT: note_on channel=3 note=62 velocity=0 time=0
EXTRACT: note_on channel=1 note=43 velocity=0 time=0.07526878333333334
EXTRACT: note_on channel=1 note=36 velocity=83 time=0
EXTRACT: note_on channel=9 note=38 velocity=48 time=0
EXTRACT: note_on channel=9 note=42 velocity=48 time=0
EXTRACT: note_on channel=9 note=45 velocity=50 time=0
EXTRACT: note_on channel=9 note=45 velocity=0 time=0.005376341666666667
EXTRACT: note_on channel=9 note=42 velocity=0 time=0
EXTRACT: note_on channel=9 note=38 velocity=0 time=0
EXTRACT: note_on channel=4 note=69 velocity=0 time=0
EXTRACT: note_on channel=4 note=71 velocity=85 time=0
EXTRACT: note_on channel=5 note=69 velocity=0 time=0
EXTRACT: note_on channel=5 note=71 velocity=82 time=0
EXTRACT: note_on channel=10 note=69 velocity=0 time=0
EXTRACT: note_on channel=10 note=71 velocity=78 time=0
EXTRACT: note_on channel=11 note=69 velocity=0 time=0
EXTRACT: note_on channel=11 note=71 velocity=78 time=0
EXTRACT: control_change channel=3 control=64 value=0 time=0.03763439166666667
EXTRACT: note_on channel=2 note=67 velocity=0 time=0.043010733333333336
EXTRACT: note_on channel=2 note=64 velocity=0 time=0
EXTRACT: note_on channel=2 note=62 velocity=0 time=0
EXTRACT: note_on channel=2 note=59 velocity=0 time=0
EXTRACT: note_on channel=9 note=38 velocity=58 time=0.026881708333333334
EXTRACT: note_on channel=9 note=41 velocity=50 time=0
EXTRACT: note_on channel=9 note=41 velocity=0 time=0.005376341666666667
EXTRACT: note_on channel=9 note=38 velocity=0 time=0
EXTRACT: note_on channel=1 note=36 velocity=0 time=0.2580644
EXTRACT: note_on channel=1 note=38 velocity=87 time=0
EXTRACT: control_change channel=2 control=64 value=127 time=0
EXTRACT: control_change channel=2 control=64 value=0 time=0
EXTRACT: note_on channel=3 note=50 velocity=53 time=0
EXTRACT: note_on channel=3 note=62 velocity=45 time=0
EXTRACT: note_on channel=3 note=60 velocity=59 time=0
EXTRACT: note_on channel=3 note=53 velocity=49 time=0
EXTRACT: note_on channel=4 note=71 velocity=0 time=0
EXTRACT: note_on channel=4 note=69 velocity=85 time=0
EXTRACT: note_on channel=5 note=71 velocity=0 time=0
EXTRACT: note_on channel=5 note=60 velocity=82 time=0
EXTRACT: note_on channel=5 note=65 velocity=82 time=0
EXTRACT: note_on channel=5 note=69 velocity=82 time=0
EXTRACT: note_on channel=6 note=67 velocity=0 time=0
EXTRACT: note_on channel=6 note=64 velocity=0 time=0
EXTRACT: note_on channel=6 note=59 velocity=0 time=0
EXTRACT: note_on channel=7 note=36 velocity=0 time=0
EXTRACT: note_on channel=7 note=38 velocity=85 time=0
EXTRACT: note_on channel=9 note=35 velocity=58 time=0
EXTRACT: note_on channel=9 note=38 velocity=50 time=0
EXTRACT: note_on channel=10 note=71 velocity=0 time=0
EXTRACT: note_on channel=10 note=60 velocity=78 time=0
EXTRACT: note_on channel=10 note=65 velocity=78 time=0
EXTRACT: note_on channel=10 note=69 velocity=78 time=0
EXTRACT: note_on channel=11 note=71 velocity=0 time=0
EXTRACT: note_on channel=11 note=69 velocity=78 time=0
EXTRACT: note_on channel=9 note=38 velocity=0 time=0.005376341666666667
EXTRACT: note_on channel=9 note=35 velocity=0 time=0
EXTRACT: control_change channel=3 control=64 value=127 time=0.22043000833333334
EXTRACT: note_on channel=3 note=60 velocity=0 time=0.010752683333333334
EXTRACT: note_on channel=3 note=53 velocity=0 time=0.06989244166666667
EXTRACT: note_on channel=3 note=62 velocity=0 time=0
EXTRACT: note_on channel=4 note=69 velocity=0 time=0.016129025
EXTRACT: note_on channel=4 note=67 velocity=85 time=0
EXTRACT: note_on channel=5 note=69 velocity=0 time=0
EXTRACT: note_on channel=5 note=65 velocity=0 time=0
EXTRACT: note_on channel=5 note=60 velocity=0 time=0
EXTRACT: note_on channel=5 note=60 velocity=82 time=0
EXTRACT: note_on channel=5 note=65 velocity=82 time=0
EXTRACT: note_on channel=5 note=67 velocity=82 time=0
EXTRACT: note_on channel=9 note=38 velocity=38 time=0
EXTRACT: note_on channel=10 note=69 velocity=0 time=0
EXTRACT: note_on channel=10 note=65 velocity=0 time=0
EXTRACT: note_on channel=10 note=60 velocity=0 time=0
EXTRACT: note_on channel=10 note=60 velocity=78 time=0
EXTRACT: note_on channel=10 note=65 velocity=78 time=0
EXTRACT: note_on channel=10 note=67 velocity=78 time=0
EXTRACT: note_on channel=11 note=69 velocity=0 time=0
EXTRACT: note_on channel=11 note=67 velocity=78 time=0
EXTRACT: note_on channel=9 note=38 velocity=0 time=0.005376341666666667
EXTRACT: note_on channel=2 note=65 velocity=55 time=0.3172041583333334
EXTRACT: note_on channel=2 note=62 velocity=55 time=0
EXTRACT: note_on channel=2 note=60 velocity=55 time=0
EXTRACT: note_on channel=2 note=69 velocity=55 time=0
EXTRACT: note_on channel=9 note=38 velocity=58 time=0
EXTRACT: note_on channel=9 note=42 velocity=48 time=0
EXTRACT: note_on channel=9 note=42 velocity=0 time=0.005376341666666667
EXTRACT: note_on channel=9 note=38 velocity=0 time=0
EXTRACT: note_on channel=3 note=64 velocity=58 time=0.005376341666666667
EXTRACT: note_on channel=3 note=60 velocity=63 time=0.005376341666666667
EXTRACT: note_on channel=3 note=53 velocity=45 time=0.010752683333333334
EXTRACT: note_on channel=3 note=60 velocity=0 time=0.22580635000000002
EXTRACT: note_on channel=3 note=53 velocity=0 time=0.048387075
EXTRACT: note_on channel=4 note=67 velocity=0 time=0.010752683333333334
EXTRACT: note_on channel=11 note=67 velocity=0 time=0
EXTRACT: control_change channel=2 control=64 value=127 time=0.010752683333333334
EXTRACT: note_on channel=5 note=67 velocity=0 time=0
EXTRACT: note_on channel=5 note=65 velocity=0 time=0
EXTRACT: note_on channel=5 note=60 velocity=0 time=0
EXTRACT: note_on channel=7 note=38 velocity=0 time=0
EXTRACT: note_on channel=7 note=33 velocity=85 time=0
EXTRACT: note_on channel=9 note=38 velocity=38 time=0
EXTRACT: note_on channel=10 note=67 velocity=0 time=0
EXTRACT: note_on channel=10 note=65 velocity=0 time=0
EXTRACT: note_on channel=10 note=60 velocity=0 time=0
EXTRACT: note_on channel=3 note=64 velocity=0 time=0.005376341666666667
EXTRACT: note_on channel=9 note=38 velocity=0 time=0
EXTRACT: note_on channel=2 note=69 velocity=0 time=0.07526878333333334
EXTRACT: note_on channel=2 note=65 velocity=0 time=0
EXTRACT: note_on channel=2 note=62 velocity=0 time=0
EXTRACT: note_on channel=2 note=60 velocity=0 time=0
EXTRACT: note_on channel=3 note=50 velocity=0 time=0.043010733333333336
EXTRACT: note_on channel=1 note=33 velocity=79 time=0
EXTRACT: note_on channel=4 note=69 velocity=85 time=0
EXTRACT: note_on channel=5 note=62 velocity=82 time=0
EXTRACT: note_on channel=5 note=65 velocity=82 time=0
EXTRACT: note_on channel=5 note=60 velocity=82 time=0
EXTRACT: note_on channel=5 note=69 velocity=82 time=0
EXTRACT: note_on channel=9 note=35 velocity=58 time=0
EXTRACT: note_on channel=9 note=38 velocity=58 time=0
EXTRACT: note_on channel=10 note=62 velocity=78 time=0
EXTRACT: note_on channel=10 note=65 velocity=78 time=0
EXTRACT: note_on channel=10 note=60 velocity=78 time=0
EXTRACT: note_on channel=10 note=69 velocity=78 time=0
EXTRACT: note_on channel=11 note=69 velocity=78 time=0
EXTRACT: note_on channel=3 note=45 velocity=55 time=0.005376341666666667
EXTRACT: note_on channel=9 note=38 velocity=0 time=0
EXTRACT: note_on channel=9 note=35 velocity=0 time=0
EXTRACT: control_change channel=3 control=64 value=0 time=0.15053756666666668
EXTRACT: note_on channel=1 note=38 velocity=0 time=0.005376341666666667
EXTRACT: note_on channel=2 note=65 velocity=55 time=0
EXTRACT: note_on channel=2 note=62 velocity=55 time=0
EXTRACT: note_on channel=2 note=60 velocity=55 time=0
EXTRACT: note_on channel=2 note=69 velocity=55 time=0
EXTRACT: note_on channel=4 note=69 velocity=0 time=0
EXTRACT: note_on channel=4 note=67 velocity=85 time=0
EXTRACT: note_on channel=5 note=69 velocity=0 time=0
EXTRACT: note_on channel=5 note=62 velocity=0 time=0
EXTRACT: note_on channel=5 note=65 velocity=0 time=0
EXTRACT: note_on channel=5 note=60 velocity=0 time=0
EXTRACT: note_on channel=5 note=67 velocity=82 time=0
EXTRACT: note_on channel=7 note=33 velocity=0 time=0
EXTRACT: note_on channel=7 note=38 velocity=85 time=0
EXTRACT: note_on channel=9 note=38 velocity=38 time=0
EXTRACT: note_on channel=10 note=69 velocity=0 time=0
EXTRACT: note_on channel=10 note=62 velocity=0 time=0
EXTRACT: note_on channel=10 note=65 velocity=0 time=0
EXTRACT: note_on channel=10 note=60 velocity=0 time=0
EXTRACT: note_on channel=10 note=67 velocity=78 time=0
EXTRACT: note_on channel=11 note=69 velocity=0 time=0
EXTRACT: note_on channel=11 note=67 velocity=78 time=0
EXTRACT: note_on channel=9 note=38 velocity=0 time=0.005376341666666667
EXTRACT: note_on channel=3 note=53 velocity=42 time=0.021505366666666668
EXTRACT: note_on channel=3 note=60 velocity=57 time=0.010752683333333334
EXTRACT: note_on channel=3 note=64 velocity=46 time=0
EXTRACT: note_on channel=2 note=69 velocity=0 time=0.09677415
EXTRACT: note_on channel=2 note=65 velocity=0 time=0
EXTRACT: note_on channel=2 note=62 velocity=0 time=0
EXTRACT: note_on channel=2 note=60 velocity=0 time=0
EXTRACT: note_on channel=4 note=67 velocity=0 time=0
EXTRACT: note_on channel=4 note=64 velocity=85 time=0
EXTRACT: note_on channel=5 note=67 velocity=0 time=0
EXTRACT: note_on channel=5 note=64 velocity=82 time=0
EXTRACT: note_on channel=9 note=38 velocity=48 time=0
EXTRACT: note_on channel=9 note=42 velocity=48 time=0
EXTRACT: note_on channel=10 note=67 velocity=0 time=0
EXTRACT: note_on channel=10 note=64 velocity=78 time=0
EXTRACT: note_on channel=11 note=67 velocity=0 time=0
EXTRACT: note_on channel=11 note=64 velocity=78 time=0
EXTRACT: note_on channel=9 note=42 velocity=0 time=0.005376341666666667
EXTRACT: note_on channel=9 note=38 velocity=0 time=0
EXTRACT: note_on channel=4 note=64 velocity=0 time=0
EXTRACT: note_on channel=4 note=67 velocity=85 time=0
EXTRACT: note_on channel=5 note=64 velocity=0 time=0
EXTRACT: note_on channel=5 note=64 velocity=82 time=0
EXTRACT: note_on channel=5 note=67 velocity=82 time=0
EXTRACT: note_on channel=5 note=59 velocity=82 time=0
EXTRACT: note_on channel=7 note=38 velocity=0 time=0
EXTRACT: note_on channel=7 note=43 velocity=85 time=0
EXTRACT: note_on channel=9 note=38 velocity=58 time=0
EXTRACT: note_on channel=10 note=64 velocity=0 time=0
EXTRACT: note_on channel=10 note=64 velocity=78 time=0
EXTRACT: note_on channel=10 note=67 velocity=78 time=0
EXTRACT: note_on channel=10 note=59 velocity=78 time=0
EXTRACT: note_on channel=11 note=64 velocity=0 time=0
EXTRACT: note_on channel=11 note=67 velocity=78 time=0
EXTRACT: note_on channel=9 note=38 velocity=0 time=0.005376341666666667
EXTRACT: note_on channel=3 note=60 velocity=0 time=0.016129025
EXTRACT: note_on channel=3 note=53 velocity=0 time=0.048387075
EXTRACT: control_change channel=2 control=64 value=0 time=0.010752683333333334
EXTRACT: note_on channel=2 note=52 velocity=49 time=0.010752683333333334
EXTRACT: note_on channel=2 note=55 velocity=47 time=0
EXTRACT: note_on channel=2 note=59 velocity=55 time=0
EXTRACT: note_on channel=2 note=60 velocity=51 time=0
EXTRACT: note_on channel=2 note=67 velocity=59 time=0
EXTRACT: note_on channel=3 note=45 velocity=0 time=0
EXTRACT: note_on channel=3 note=64 velocity=0 time=0
EXTRACT: note_on channel=1 note=33 velocity=0 time=0.2311826916666667
EXTRACT: note_on channel=1 note=36 velocity=86 time=0
EXTRACT: note_on channel=7 note=43 velocity=0 time=0
EXTRACT: note_on channel=7 note=36 velocity=85 time=0
EXTRACT: note_on channel=9 note=35 velocity=58 time=0
EXTRACT: note_on channel=9 note=38 velocity=50 time=0
EXTRACT: note_on channel=9 note=38 velocity=0 time=0.005376341666666667
EXTRACT: note_on channel=9 note=35 velocity=0 time=0
EXTRACT: control_change channel=3 control=64 value=127 time=0.16129025
EXTRACT: note_on channel=4 note=67 velocity=0 time=0.145161225
EXTRACT: note_on channel=11 note=67 velocity=0 time=0
EXTRACT: note_on channel=4 note=64 velocity=85 time=0
EXTRACT: note_on channel=5 note=59 velocity=0 time=0
EXTRACT: note_on channel=5 note=67 velocity=0 time=0
EXTRACT: note_on channel=5 note=64 velocity=0 time=0
EXTRACT: note_on channel=5 note=59 velocity=82 time=0
EXTRACT: note_on channel=5 note=64 velocity=82 time=0
EXTRACT: note_on channel=5 note=55 velocity=82 time=0
EXTRACT: note_on channel=9 note=38 velocity=38 time=0
EXTRACT: note_on channel=10 note=59 velocity=0 time=0
EXTRACT: note_on channel=10 note=67 velocity=0 time=0
EXTRACT: note_on channel=10 note=64 velocity=0 time=0
EXTRACT: note_on channel=10 note=59 velocity=78 time=0
EXTRACT: note_on channel=10 note=64 velocity=78 time=0
EXTRACT: note_on channel=10 note=55 velocity=78 time=0
EXTRACT: note_on channel=11 note=64 velocity=78 time=0
EXTRACT: note_on channel=9 note=38 velocity=0 time=0.005376341666666667
EXTRACT: note_on channel=2 note=64 velocity=56 time=0.0645161
EXTRACT: note_on channel=9 note=38 velocity=58 time=0.25268805833333335
EXTRACT: note_on channel=9 note=42 velocity=48 time=0
EXTRACT: note_on channel=9 note=42 velocity=0 time=0.005376341666666667
EXTRACT: note_on channel=9 note=38 velocity=0 time=0
EXTRACT: note_on channel=3 note=59 velocity=63 time=0.03225805
EXTRACT: note_on channel=3 note=62 velocity=48 time=0
EXTRACT: note_on channel=3 note=52 velocity=37 time=0.03225805
EXTRACT: note_on channel=3 note=59 velocity=0 time=0.209677325
EXTRACT: control_change channel=2 control=64 value=127 time=0.043010733333333336
EXTRACT: note_on channel=7 note=36 velocity=0 time=0
EXTRACT: note_on channel=7 note=31 velocity=85 time=0
EXTRACT: note_on channel=9 note=38 velocity=38 time=0
EXTRACT: note_on channel=3 note=62 velocity=0 time=0.005376341666666667
EXTRACT: note_on channel=9 note=38 velocity=0 time=0
EXTRACT: note_on channel=3 note=52 velocity=0 time=0.010752683333333334
EXTRACT: note_on channel=4 note=64 velocity=0 time=0.27956976666666666
EXTRACT: note_on channel=11 note=64 velocity=0 time=0
EXTRACT: note_on channel=1 note=43 velocity=75 time=0
EXTRACT: note_on channel=4 note=67 velocity=85 time=0
EXTRACT: note_on channel=5 note=55 velocity=0 time=0
EXTRACT: note_on channel=5 note=64 velocity=0 time=0
EXTRACT: note_on channel=5 note=59 velocity=0 time=0
EXTRACT: note_on channel=5 note=67 velocity=82 time=0
EXTRACT: note_on channel=5 note=59 velocity=82 time=0
EXTRACT: note_on channel=5 note=64 velocity=82 time=0
EXTRACT: note_on channel=9 note=35 velocity=58 time=0
EXTRACT: note_on channel=9 note=38 velocity=58 time=0
EXTRACT: note_on channel=10 note=55 velocity=0 time=0
EXTRACT: note_on channel=10 note=64 velocity=0 time=0
EXTRACT: note_on channel=10 note=59 velocity=0 time=0
EXTRACT: note_on channel=10 note=67 velocity=78 time=0
EXTRACT: note_on channel=10 note=59 velocity=78 time=0
EXTRACT: note_on channel=10 note=64 velocity=78 time=0
EXTRACT: note_on channel=11 note=67 velocity=78 time=0
EXTRACT: note_on channel=9 note=38 velocity=0 time=0.005376341666666667
EXTRACT: note_on channel=9 note=35 velocity=0 time=0
EXTRACT: note_on channel=1 note=36 velocity=0 time=0.03225805
EXTRACT: control_change channel=2 control=0 value=0 time=0
EXTRACT: note_on channel=3 note=62 velocity=51 time=0
EXTRACT: note_on channel=3 note=52 velocity=46 time=0
EXTRACT: note_on channel=4 note=67 velocity=0 time=0
EXTRACT: note_on channel=4 note=69 velocity=85 time=0
EXTRACT: note_on channel=5 note=64 velocity=0 time=0
EXTRACT: note_on channel=5 note=59 velocity=0 time=0
EXTRACT: note_on channel=5 note=67 velocity=0 time=0
EXTRACT: note_on channel=5 note=69 velocity=82 time=0
EXTRACT: note_on channel=7 note=31 velocity=0 time=0
EXTRACT: note_on channel=7 note=36 velocity=85 time=0
EXTRACT: note_on channel=9 note=38 velocity=38 time=0
EXTRACT: note_on channel=10 note=64 velocity=0 time=0
EXTRACT: note_on channel=10 note=59 velocity=0 time=0
EXTRACT: note_on channel=10 note=67 velocity=0 time=0
EXTRACT: note_on channel=10 note=69 velocity=78 time=0
EXTRACT: note_on channel=11 note=67 velocity=0 time=0
EXTRACT: note_on channel=11 note=69 velocity=78 time=0
EXTRACT: note_on channel=9 note=38 velocity=0 time=0.005376341666666667
EXTRACT: note_on channel=3 note=59 velocity=69 time=0.010752683333333334
EXTRACT: note_on channel=3 note=59 velocity=0 time=0.2311826916666667
EXTRACT: note_on channel=3 note=52 velocity=0 time=0.021505366666666668
EXTRACT: note_on channel=3 note=62 velocity=0 time=0
EXTRACT: note_on channel=4 note=69 velocity=0 time=0
EXTRACT: note_on channel=4 note=71 velocity=85 time=0
EXTRACT: note_on channel=5 note=69 velocity=0 time=0
EXTRACT: note_on channel=5 note=71 velocity=82 time=0
EXTRACT: note_on channel=9 note=38 velocity=48 time=0
EXTRACT: note_on channel=9 note=42 velocity=48 time=0
EXTRACT: note_on channel=10 note=69 velocity=0 time=0
EXTRACT: note_on channel=10 note=71 velocity=78 time=0
EXTRACT: note_on channel=11 note=69 velocity=0 time=0
EXTRACT: note_on channel=11 note=71 velocity=78 time=0
EXTRACT: note_on channel=9 note=42 velocity=0 time=0.005376341666666667
EXTRACT: note_on channel=9 note=38 velocity=0 time=0
EXTRACT: note_on channel=1 note=43 velocity=0 time=0.1344085416666667
EXTRACT: note_on channel=1 note=43 velocity=70 time=0
EXTRACT: control_change channel=2 control=0 value=0 time=0
EXTRACT: note_on channel=4 note=71 velocity=0 time=0
EXTRACT: note_on channel=4 note=69 velocity=85 time=0
EXTRACT: note_on channel=5 note=71 velocity=0 time=0
EXTRACT: note_on channel=5 note=69 velocity=82 time=0
EXTRACT: note_on channel=5 note=60 velocity=82 time=0
EXTRACT: note_on channel=5 note=65 velocity=82 time=0
EXTRACT: note_on channel=7 note=36 velocity=0 time=0
EXTRACT: note_on channel=7 note=31 velocity=85 time=0
EXTRACT: note_on channel=9 note=38 velocity=58 time=0
EXTRACT: note_on channel=10 note=71 velocity=0 time=0
EXTRACT: note_on channel=10 note=69 velocity=78 time=0
EXTRACT: note_on channel=10 note=60 velocity=78 time=0
EXTRACT: note_on channel=10 note=65 velocity=78 time=0
EXTRACT: note_on channel=11 note=71 velocity=0 time=0
EXTRACT: note_on channel=11 note=69 velocity=78 time=0
EXTRACT: note_on channel=9 note=38 velocity=0 time=0.005376341666666667
EXTRACT: note_on channel=1 note=43 velocity=0 time=0.274193425
EXTRACT: note_on channel=2 note=67 velocity=0 time=0.03225805
EXTRACT: note_on channel=2 note=60 velocity=0 time=0
EXTRACT: note_on channel=2 note=59 velocity=0 time=0
EXTRACT: note_on channel=2 note=52 velocity=0 time=0
EXTRACT: note_on channel=2 note=55 velocity=0 time=0
EXTRACT: note_on channel=1 note=38 velocity=77 time=0.010752683333333334
EXTRACT: note_on channel=2 note=64 velocity=0 time=0
EXTRACT: control_change channel=2 control=0 value=0 time=0
EXTRACT: control_change channel=2 control=64 value=0 time=0
EXTRACT: control_change channel=3 control=64 value=0 time=0
EXTRACT: note_on channel=3 note=50 velocity=53 time=0
EXTRACT: note_on channel=3 note=62 velocity=45 time=0
EXTRACT: note_on channel=3 note=60 velocity=59 time=0
EXTRACT: note_on channel=3 note=53 velocity=49 time=0
EXTRACT: note_on channel=7 note=31 velocity=0 time=0
EXTRACT: note_on channel=7 note=38 velocity=85 time=0
EXTRACT: note_on channel=9 note=35 velocity=58 time=0
EXTRACT: note_on channel=9 note=38 velocity=50 time=0
EXTRACT: note_on channel=9 note=38 velocity=0 time=0.005376341666666667
EXTRACT: note_on channel=9 note=35 velocity=0 time=0
EXTRACT: control_change channel=3 control=64 value=127 time=0.22043000833333334
EXTRACT: note_on channel=3 note=60 velocity=0 time=0.010752683333333334
EXTRACT: note_on channel=3 note=53 velocity=0 time=0.06989244166666667
EXTRACT: note_on channel=3 note=62 velocity=0 time=0
EXTRACT: note_on channel=4 note=69 velocity=0 time=0.005376341666666667
EXTRACT: note_on channel=11 note=69 velocity=0 time=0
EXTRACT: note_on channel=4 note=67 velocity=85 time=0
EXTRACT: note_on channel=5 note=65 velocity=0 time=0
EXTRACT: note_on channel=5 note=60 velocity=0 time=0
EXTRACT: note_on channel=5 note=69 velocity=0 time=0
EXTRACT: note_on channel=5 note=67 velocity=82 time=0
EXTRACT: note_on channel=5 note=60 velocity=82 time=0
EXTRACT: note_on channel=5 note=65 velocity=82 time=0
EXTRACT: note_on channel=9 note=38 velocity=38 time=0
EXTRACT: note_on channel=10 note=65 velocity=0 time=0
EXTRACT: note_on channel=10 note=60 velocity=0 time=0
EXTRACT: note_on channel=10 note=69 velocity=0 time=0
EXTRACT: note_on channel=10 note=67 velocity=78 time=0
EXTRACT: note_on channel=10 note=60 velocity=78 time=0
EXTRACT: note_on channel=10 note=65 velocity=78 time=0
EXTRACT: note_on channel=11 note=67 velocity=78 time=0
EXTRACT: note_on channel=9 note=38 velocity=0 time=0.005376341666666667
EXTRACT: note_on channel=9 note=38 velocity=58 time=0.3172041583333334
EXTRACT: note_on channel=9 note=42 velocity=48 time=0
EXTRACT: note_on channel=9 note=42 velocity=0 time=0.005376341666666667
EXTRACT: note_on channel=9 note=38 velocity=0 time=0
EXTRACT: note_on channel=3 note=64 velocity=58 time=0.005376341666666667
EXTRACT: note_on channel=3 note=60 velocity=63 time=0.005376341666666667
EXTRACT: note_on channel=3 note=53 velocity=45 time=0.010752683333333334
EXTRACT: note_on channel=3 note=60 velocity=0 time=0.22580635000000002
EXTRACT: note_on channel=3 note=53 velocity=0 time=0.048387075
EXTRACT: note_on channel=4 note=67 velocity=0 time=0.010752683333333334
EXTRACT: note_on channel=11 note=67 velocity=0 time=0
EXTRACT: note_on channel=1 note=38 velocity=0 time=0
EXTRACT: note_on channel=1 note=45 velocity=71 time=0
EXTRACT: note_on channel=4 note=69 velocity=85 time=0
EXTRACT: note_on channel=5 note=65 velocity=0 time=0
EXTRACT: note_on channel=5 note=60 velocity=0 time=0
EXTRACT: note_on channel=5 note=67 velocity=0 time=0
EXTRACT: note_on channel=5 note=65 velocity=82 time=0
EXTRACT: note_on channel=5 note=60 velocity=82 time=0
EXTRACT: note_on channel=5 note=62 velocity=82 time=0
EXTRACT: note_on channel=5 note=69 velocity=82 time=0
EXTRACT: note_on channel=7 note=38 velocity=0 time=0
EXTRACT: note_on channel=7 note=33 velocity=85 time=0
EXTRACT: note_on channel=9 note=38 velocity=38 time=0
EXTRACT: note_on channel=10 note=65 velocity=0 time=0
EXTRACT: note_on channel=10 note=60 velocity=0 time=0
EXTRACT: note_on channel=10 note=67 velocity=0 time=0
EXTRACT: note_on channel=10 note=65 velocity=78 time=0
EXTRACT: note_on channel=10 note=60 velocity=78 time=0
EXTRACT: note_on channel=10 note=62 velocity=78 time=0
EXTRACT: note_on channel=10 note=69 velocity=78 time=0
EXTRACT: note_on channel=11 note=69 velocity=78 time=0
EXTRACT: note_on channel=3 note=64 velocity=0 time=0.005376341666666667
EXTRACT: note_on channel=9 note=38 velocity=0 time=0
EXTRACT: note_on channel=2 note=65 velocity=55 time=0.021505366666666668
EXTRACT: note_on channel=2 note=62 velocity=55 time=0
EXTRACT: note_on channel=2 note=60 velocity=55 time=0
EXTRACT: note_on channel=2 note=69 velocity=55 time=0
EXTRACT: note_on channel=3 note=50 velocity=0 time=0.09677415
EXTRACT: note_on channel=1 note=45 velocity=0 time=0.043010733333333336
EXTRACT: note_on channel=1 note=45 velocity=81 time=0
EXTRACT: note_on channel=4 note=69 velocity=0 time=0
EXTRACT: note_on channel=4 note=69 velocity=85 time=0
EXTRACT: note_on channel=5 note=69 velocity=0 time=0
EXTRACT: note_on channel=5 note=65 velocity=0 time=0
EXTRACT: note_on channel=5 note=60 velocity=0 time=0
EXTRACT: note_on channel=5 note=62 velocity=0 time=0
EXTRACT: note_on channel=5 note=65 velocity=82 time=0
EXTRACT: note_on channel=5 note=60 velocity=82 time=0
EXTRACT: note_on channel=5 note=62 velocity=82 time=0
EXTRACT: note_on channel=5 note=69 velocity=82 time=0
EXTRACT: note_on channel=9 note=35 velocity=58 time=0
EXTRACT: note_on channel=9 note=38 velocity=58 time=0
EXTRACT: note_on channel=10 note=69 velocity=0 time=0
EXTRACT: note_on channel=10 note=65 velocity=0 time=0
EXTRACT: note_on channel=10 note=60 velocity=0 time=0
EXTRACT: note_on channel=10 note=62 velocity=0 time=0
EXTRACT: note_on channel=10 note=65 velocity=78 time=0
EXTRACT: note_on channel=10 note=60 velocity=78 time=0
EXTRACT: note_on channel=10 note=62 velocity=78 time=0
EXTRACT: note_on channel=10 note=69 velocity=78 time=0
EXTRACT: note_on channel=11 note=69 velocity=0 time=0
EXTRACT: note_on channel=11 note=69 velocity=78 time=0
EXTRACT: note_on channel=3 note=45 velocity=55 time=0.005376341666666667
EXTRACT: note_on channel=9 note=38 velocity=0 time=0
EXTRACT: note_on channel=9 note=35 velocity=0 time=0
EXTRACT: control_change channel=3 control=64 value=0 time=0.15053756666666668
EXTRACT: note_on channel=4 note=69 velocity=0 time=0
EXTRACT: note_on channel=4 note=67 velocity=85 time=0
EXTRACT: note_on channel=5 note=69 velocity=0 time=0
EXTRACT: note_on channel=5 note=65 velocity=0 time=0
EXTRACT: note_on channel=5 note=60 velocity=0 time=0
EXTRACT: note_on channel=5 note=62 velocity=0 time=0
EXTRACT: note_on channel=5 note=67 velocity=82 time=0
EXTRACT: note_on channel=7 note=33 velocity=0 time=0
EXTRACT: note_on channel=7 note=38 velocity=85 time=0
EXTRACT: note_on channel=9 note=38 velocity=38 time=0
EXTRACT: note_on channel=10 note=69 velocity=0 time=0
EXTRACT: note_on channel=10 note=65 velocity=0 time=0
EXTRACT: note_on channel=10 note=60 velocity=0 time=0
EXTRACT: note_on channel=10 note=62 velocity=0 time=0
EXTRACT: note_on channel=10 note=67 velocity=78 time=0
EXTRACT: note_on channel=11 note=69 velocity=0 time=0
EXTRACT: note_on channel=11 note=67 velocity=78 time=0
EXTRACT: note_on channel=9 note=38 velocity=0 time=0.005376341666666667
EXTRACT: note_on channel=3 note=53 velocity=42 time=0.021505366666666668
EXTRACT: note_on channel=3 note=60 velocity=57 time=0.010752683333333334
EXTRACT: note_on channel=3 note=62 velocity=46 time=0
EXTRACT: note_on channel=1 note=45 velocity=0 time=0.20430098333333335
EXTRACT: note_on channel=1 note=38 velocity=81 time=0
EXTRACT: note_on channel=4 note=67 velocity=0 time=0
EXTRACT: note_on channel=4 note=64 velocity=85 time=0
EXTRACT: note_on channel=5 note=67 velocity=0 time=0
EXTRACT: note_on channel=5 note=64 velocity=82 time=0
EXTRACT: note_on channel=9 note=38 velocity=48 time=0
EXTRACT: note_on channel=9 note=42 velocity=48 time=0
EXTRACT: note_on channel=10 note=67 velocity=0 time=0
EXTRACT: note_on channel=10 note=64 velocity=78 time=0
EXTRACT: note_on channel=11 note=67 velocity=0 time=0
EXTRACT: note_on channel=11 note=64 velocity=78 time=0
EXTRACT: note_on channel=9 note=42 velocity=0 time=0.005376341666666667
EXTRACT: note_on channel=9 note=38 velocity=0 time=0
EXTRACT: note_on channel=4 note=64 velocity=0 time=0
EXTRACT: note_on channel=4 note=67 velocity=85 time=0
EXTRACT: note_on channel=5 note=64 velocity=0 time=0
EXTRACT: note_on channel=5 note=67 velocity=82 time=0
EXTRACT: note_on channel=5 note=59 velocity=82 time=0
EXTRACT: note_on channel=5 note=64 velocity=82 time=0
EXTRACT: note_on channel=7 note=38 velocity=0 time=0
EXTRACT: note_on channel=7 note=43 velocity=85 time=0
EXTRACT: note_on channel=9 note=38 velocity=58 time=0
EXTRACT: note_on channel=10 note=64 velocity=0 time=0
EXTRACT: note_on channel=10 note=67 velocity=78 time=0
EXTRACT: note_on channel=10 note=59 velocity=78 time=0
EXTRACT: note_on channel=10 note=64 velocity=78 time=0
EXTRACT: note_on channel=11 note=64 velocity=0 time=0
EXTRACT: note_on channel=11 note=67 velocity=78 time=0
EXTRACT: note_on channel=9 note=38 velocity=0 time=0.005376341666666667
EXTRACT: note_on channel=3 note=60 velocity=0 time=0.016129025
EXTRACT: note_on channel=3 note=53 velocity=0 time=0.048387075
EXTRACT: note_on channel=3 note=45 velocity=0 time=0.021505366666666668
EXTRACT: note_on channel=3 note=62 velocity=0 time=0
EXTRACT: note_on channel=1 note=38 velocity=0 time=0.17741927500000002
EXTRACT: note_on channel=1 note=48 velocity=80 time=0.05376341666666667
EXTRACT: note_on channel=2 note=69 velocity=0 time=0
EXTRACT: note_on channel=2 note=65 velocity=0 time=0
EXTRACT: note_on channel=2 note=62 velocity=0 time=0
EXTRACT: note_on channel=2 note=60 velocity=0 time=0
EXTRACT: note_on channel=3 note=48 velocity=56 time=0
EXTRACT: note_on channel=7 note=43 velocity=0 time=0
EXTRACT: note_on channel=7 note=36 velocity=85 time=0
EXTRACT: note_on channel=9 note=35 velocity=58 time=0
EXTRACT: note_on channel=9 note=38 velocity=50 time=0
EXTRACT: note_on channel=9 note=38 velocity=0 time=0.005376341666666667
EXTRACT: note_on channel=9 note=35 velocity=0 time=0
EXTRACT: note_on channel=2 note=64 velocity=55 time=0.005376341666666667
EXTRACT: note_on channel=2 note=62 velocity=55 time=0
EXTRACT: note_on channel=2 note=59 velocity=55 time=0
EXTRACT: note_on channel=2 note=67 velocity=55 time=0
EXTRACT: note_on channel=9 note=38 velocity=38 time=0.3118278166666667
EXTRACT: note_on channel=9 note=38 velocity=0 time=0.005376341666666667
EXTRACT: control_change channel=3 control=64 value=127 time=0.23655903333333334
EXTRACT: note_on channel=4 note=67 velocity=0 time=0.05376341666666667
EXTRACT: note_on channel=11 note=67 velocity=0 time=0
EXTRACT: note_on channel=3 note=52 velocity=49 time=0.016129025
EXTRACT: note_on channel=3 note=62 velocity=58 time=0
EXTRACT: note_on channel=5 note=64 velocity=0 time=0.010752683333333334
EXTRACT: note_on channel=5 note=59 velocity=0 time=0
EXTRACT: note_on channel=5 note=67 velocity=0 time=0
EXTRACT: note_on channel=9 note=38 velocity=58 time=0
EXTRACT: note_on channel=9 note=42 velocity=48 time=0
EXTRACT: note_on channel=10 note=64 velocity=0 time=0
EXTRACT: note_on channel=10 note=59 velocity=0 time=0
EXTRACT: note_on channel=10 note=67 velocity=0 time=0
EXTRACT: note_on channel=3 note=59 velocity=63 time=0.005376341666666667
EXTRACT: note_on channel=9 note=42 velocity=0 time=0
EXTRACT: note_on channel=9 note=38 velocity=0 time=0
EXTRACT: note_on channel=3 note=59 velocity=0 time=0.28494610833333334
EXTRACT: note_on channel=3 note=52 velocity=0 time=0
EXTRACT: note_on channel=4 note=67 velocity=85 time=0
EXTRACT: note_on channel=5 note=67 velocity=82 time=0
EXTRACT: note_on channel=7 note=36 velocity=0 time=0
EXTRACT: note_on channel=7 note=31 velocity=85 time=0
EXTRACT: note_on channel=9 note=38 velocity=38 time=0
EXTRACT: note_on channel=10 note=67 velocity=78 time=0
EXTRACT: note_on channel=11 note=67 velocity=78 time=0
EXTRACT: note_on channel=9 note=38 velocity=0 time=0.005376341666666667
EXTRACT: note_on channel=3 note=62 velocity=0 time=0.048387075
EXTRACT: note_on channel=3 note=48 velocity=0 time=0.005376341666666667
EXTRACT: note_on channel=1 note=43 velocity=77 time=0
EXTRACT: note_on channel=4 note=67 velocity=0 time=0
EXTRACT: note_on channel=4 note=67 velocity=85 time=0
EXTRACT: note_on channel=5 note=67 velocity=0 time=0
EXTRACT: note_on channel=5 note=64 velocity=82 time=0
EXTRACT: note_on channel=5 note=59 velocity=82 time=0
EXTRACT: note_on channel=5 note=67 velocity=82 time=0
EXTRACT: note_on channel=9 note=35 velocity=58 time=0
EXTRACT: note_on channel=9 note=38 velocity=58 time=0
EXTRACT: note_on channel=10 note=67 velocity=0 time=0
EXTRACT: note_on channel=10 note=64 velocity=78 time=0
EXTRACT: note_on channel=10 note=59 velocity=78 time=0
EXTRACT: note_on channel=10 note=67 velocity=78 time=0
EXTRACT: note_on channel=11 note=67 velocity=0 time=0
EXTRACT: note_on channel=11 note=67 velocity=78 time=0
EXTRACT: note_on channel=9 note=38 velocity=0 time=0.005376341666666667
EXTRACT: note_on channel=9 note=35 velocity=0 time=0
EXTRACT: note_on channel=3 note=43 velocity=45 time=0.03225805
EXTRACT: note_on channel=1 note=48 velocity=0 time=0.048387075
EXTRACT: note_on channel=4 note=67 velocity=0 time=0
EXTRACT: note_on channel=4 note=69 velocity=85 time=0
EXTRACT: note_on channel=5 note=67 velocity=0 time=0
EXTRACT: note_on channel=5 note=59 velocity=0 time=0
EXTRACT: note_on channel=5 note=64 velocity=0 time=0
EXTRACT: note_on channel=5 note=69 velocity=82 time=0
EXTRACT: note_on channel=7 note=31 velocity=0 time=0
EXTRACT: note_on channel=7 note=36 velocity=85 time=0
EXTRACT: note_on channel=9 note=38 velocity=38 time=0
EXTRACT: note_on channel=10 note=67 velocity=0 time=0
EXTRACT: note_on channel=10 note=59 velocity=0 time=0
EXTRACT: note_on channel=10 note=64 velocity=0 time=0
EXTRACT: note_on channel=10 note=69 velocity=78 time=0
EXTRACT: note_on channel=11 note=67 velocity=0 time=0
EXTRACT: note_on channel=11 note=69 velocity=78 time=0
EXTRACT: note_on channel=9 note=38 velocity=0 time=0.005376341666666667
EXTRACT: note_on channel=3 note=62 velocity=55 time=0.010752683333333334
EXTRACT: note_on channel=3 note=59 velocity=55 time=0
EXTRACT: note_on channel=3 note=52 velocity=39 time=0.016129025
EXTRACT: note_on channel=3 note=59 velocity=0 time=0.241935375
EXTRACT: note_on channel=3 note=52 velocity=0 time=0.016129025
EXTRACT: note_on channel=3 note=62 velocity=0 time=0.026881708333333334
EXTRACT: note_on channel=4 note=69 velocity=0 time=0
EXTRACT: note_on channel=4 note=71 velocity=85 time=0
EXTRACT: note_on channel=5 note=69 velocity=0 time=0
EXTRACT: note_on channel=5 note=71 velocity=82 time=0
EXTRACT: note_on channel=9 note=38 velocity=48 time=0
EXTRACT: note_on channel=9 note=42 velocity=48 time=0
EXTRACT: note_on channel=10 note=69 velocity=0 time=0
EXTRACT: note_on channel=10 note=71 velocity=78 time=0
EXTRACT: note_on channel=11 note=69 velocity=0 time=0
EXTRACT: note_on channel=11 note=71 velocity=78 time=0
EXTRACT: note_on channel=9 note=42 velocity=0 time=0.005376341666666667
EXTRACT: note_on channel=9 note=38 velocity=0 time=0
EXTRACT: note_on channel=3 note=43 velocity=0 time=0.03763439166666667
EXTRACT: note_on channel=4 note=71 velocity=0 time=0
EXTRACT: note_on channel=4 note=69 velocity=85 time=0
EXTRACT: note_on channel=5 note=71 velocity=0 time=0
EXTRACT: note_on channel=5 note=60 velocity=82 time=0
EXTRACT: note_on channel=5 note=69 velocity=82 time=0
EXTRACT: note_on channel=5 note=65 velocity=82 time=0
EXTRACT: note_on channel=7 note=36 velocity=0 time=0
EXTRACT: note_on channel=7 note=31 velocity=85 time=0
EXTRACT: note_on channel=9 note=38 velocity=58 time=0
EXTRACT: note_on channel=10 note=71 velocity=0 time=0
EXTRACT: note_on channel=10 note=60 velocity=78 time=0
EXTRACT: note_on channel=10 note=69 velocity=78 time=0
EXTRACT: note_on channel=10 note=65 velocity=78 time=0
EXTRACT: note_on channel=11 note=71 velocity=0 time=0
EXTRACT: note_on channel=11 note=69 velocity=78 time=0
EXTRACT: note_on channel=9 note=38 velocity=0 time=0.005376341666666667
EXTRACT: note_on channel=2 note=67 velocity=0 time=0.021505366666666668
EXTRACT: note_on channel=2 note=64 velocity=0 time=0
EXTRACT: note_on channel=2 note=62 velocity=0 time=0
EXTRACT: note_on channel=2 note=59 velocity=0 time=0
EXTRACT: note_on channel=2 note=53 velocity=49 time=0.0645161
EXTRACT: note_on channel=2 note=57 velocity=47 time=0
EXTRACT: note_on channel=2 note=60 velocity=55 time=0
EXTRACT: note_on channel=2 note=62 velocity=51 time=0
EXTRACT: note_on channel=2 note=69 velocity=59 time=0
EXTRACT: control_change channel=3 control=64 value=0 time=0.03225805
EXTRACT: note_on channel=1 note=43 velocity=0 time=0.19892464166666668
EXTRACT: note_on channel=1 note=38 velocity=77 time=0
EXTRACT: control_change channel=3 control=0 value=0 time=0
EXTRACT: note_on channel=7 note=31 velocity=0 time=0
EXTRACT: note_on channel=7 note=38 velocity=85 time=0
EXTRACT: note_on channel=9 note=35 velocity=58 time=0
EXTRACT: note_on channel=9 note=38 velocity=50 time=0
EXTRACT: note_on channel=3 note=53 velocity=47 time=0.005376341666666667
EXTRACT: note_on channel=9 note=38 velocity=0 time=0
EXTRACT: note_on channel=9 note=35 velocity=0 time=0
EXTRACT: note_on channel=3 note=60 velocity=59 time=0.005376341666666667
EXTRACT: note_on channel=3 note=64 velocity=42 time=0.005376341666666667
EXTRACT: control_change channel=3 control=64 value=127 time=0.1827956166666667
EXTRACT: note_on channel=3 note=60 velocity=0 time=0.11290317500000001
EXTRACT: note_on channel=4 note=69 velocity=0 time=0
EXTRACT: note_on channel=11 note=69 velocity=0 time=0
EXTRACT: note_on channel=4 note=67 velocity=85 time=0
EXTRACT: note_on channel=5 note=65 velocity=0 time=0
EXTRACT: note_on channel=5 note=69 velocity=0 time=0
EXTRACT: note_on channel=5 note=60 velocity=0 time=0
EXTRACT: note_on channel=5 note=60 velocity=82 time=0
EXTRACT: note_on channel=5 note=67 velocity=82 time=0
EXTRACT: note_on channel=5 note=65 velocity=82 time=0
EXTRACT: note_on channel=9 note=38 velocity=38 time=0
EXTRACT: note_on channel=10 note=65 velocity=0 time=0
EXTRACT: note_on channel=10 note=69 velocity=0 time=0
EXTRACT: note_on channel=10 note=60 velocity=0 time=0
EXTRACT: note_on channel=10 note=60 velocity=78 time=0
EXTRACT: note_on channel=10 note=67 velocity=78 time=0
EXTRACT: note_on channel=10 note=65 velocity=78 time=0
EXTRACT: note_on channel=11 note=67 velocity=78 time=0
EXTRACT: note_on channel=9 note=38 velocity=0 time=0.005376341666666667
EXTRACT: note_on channel=3 note=53 velocity=0 time=0.043010733333333336
EXTRACT: note_on channel=2 note=65 velocity=56 time=0.021505366666666668
EXTRACT: note_on channel=3 note=64 velocity=0 time=0.026881708333333334
EXTRACT: note_on channel=9 note=38 velocity=58 time=0.22580635000000002
EXTRACT: note_on channel=9 note=42 velocity=48 time=0
EXTRACT: note_on channel=9 note=42 velocity=0 time=0.005376341666666667
EXTRACT: note_on channel=9 note=38 velocity=0 time=0
EXTRACT: note_on channel=1 note=38 velocity=0 time=0.23655903333333334
EXTRACT: note_on channel=4 note=67 velocity=0 time=0.06989244166666667
EXTRACT: note_on channel=11 note=67 velocity=0 time=0
EXTRACT: note_on channel=1 note=38 velocity=83 time=0
EXTRACT: control_change channel=2 control=64 value=127 time=0
EXTRACT: note_on channel=4 note=69 velocity=85 time=0
EXTRACT: note_on channel=5 note=65 velocity=0 time=0
EXTRACT: note_on channel=5 note=67 velocity=0 time=0
EXTRACT: note_on channel=5 note=60 velocity=0 time=0
EXTRACT: note_on channel=5 note=60 velocity=82 time=0
EXTRACT: note_on channel=5 note=65 velocity=82 time=0
EXTRACT: note_on channel=5 note=69 velocity=82 time=0
EXTRACT: note_on channel=5 note=62 velocity=82 time=0
EXTRACT: note_on channel=7 note=38 velocity=0 time=0
EXTRACT: note_on channel=7 note=33 velocity=85 time=0
EXTRACT: note_on channel=9 note=38 velocity=38 time=0
EXTRACT: note_on channel=10 note=65 velocity=0 time=0
EXTRACT: note_on channel=10 note=67 velocity=0 time=0
EXTRACT: note_on channel=10 note=60 velocity=0 time=0
EXTRACT: note_on channel=10 note=60 velocity=78 time=0
EXTRACT: note_on channel=10 note=65 velocity=78 time=0
EXTRACT: note_on channel=10 note=69 velocity=78 time=0
EXTRACT: note_on channel=10 note=62 velocity=78 time=0
EXTRACT: note_on channel=11 note=69 velocity=78 time=0
EXTRACT: note_on channel=9 note=38 velocity=0 time=0.005376341666666667
EXTRACT: note_on channel=3 note=64 velocity=52 time=0.03225805
EXTRACT: note_on channel=3 note=60 velocity=59 time=0.021505366666666668
EXTRACT: note_on channel=3 note=53 velocity=40 time=0.010752683333333334
EXTRACT: note_on channel=3 note=60 velocity=0 time=0.22580635000000002
EXTRACT: note_on channel=1 note=33 velocity=74 time=0
EXTRACT: note_on channel=4 note=69 velocity=0 time=0
EXTRACT: note_on channel=4 note=69 velocity=85 time=0
EXTRACT: note_on channel=5 note=62 velocity=0 time=0
EXTRACT: note_on channel=5 note=60 velocity=0 time=0
EXTRACT: note_on channel=5 note=65 velocity=0 time=0
EXTRACT: note_on channel=5 note=69 velocity=0 time=0
EXTRACT: note_on channel=5 note=65 velocity=82 time=0
EXTRACT: note_on channel=5 note=69 velocity=82 time=0
EXTRACT: note_on channel=5 note=60 velocity=82 time=0
EXTRACT: note_on channel=5 note=62 velocity=82 time=0
EXTRACT: note_on channel=9 note=35 velocity=58 time=0
EXTRACT: note_on channel=9 note=38 velocity=58 time=0
EXTRACT: note_on channel=10 note=62 velocity=0 time=0
EXTRACT: note_on channel=10 note=60 velocity=0 time=0
EXTRACT: note_on channel=10 note=65 velocity=0 time=0
EXTRACT: note_on channel=10 note=69 velocity=0 time=0
EXTRACT: note_on channel=10 note=65 velocity=78 time=0
EXTRACT: note_on channel=10 note=69 velocity=78 time=0
EXTRACT: note_on channel=10 note=60 velocity=78 time=0
EXTRACT: note_on channel=10 note=62 velocity=78 time=0
EXTRACT: note_on channel=11 note=69 velocity=0 time=0
EXTRACT: note_on channel=11 note=69 velocity=78 time=0
EXTRACT: note_on channel=9 note=38 velocity=0 time=0.005376341666666667
EXTRACT: note_on channel=9 note=35 velocity=0 time=0
EXTRACT: note_on channel=3 note=64 velocity=0 time=0.021505366666666668
EXTRACT: note_on channel=1 note=38 velocity=0 time=0.010752683333333334
EXTRACT: note_on channel=3 note=53 velocity=0 time=0.010752683333333334
EXTRACT: control_change channel=2 control=0 value=0 time=0
EXTRACT: note_on channel=4 note=69 velocity=0 time=0
EXTRACT: note_on channel=4 note=67 velocity=85 time=0
EXTRACT: note_on channel=5 note=62 velocity=0 time=0
EXTRACT: note_on channel=5 note=65 velocity=0 time=0
EXTRACT: note_on channel=5 note=69 velocity=0 time=0
EXTRACT: note_on channel=5 note=60 velocity=0 time=0
EXTRACT: note_on channel=5 note=67 velocity=82 time=0
EXTRACT: note_on channel=7 note=33 velocity=0 time=0
EXTRACT: note_on channel=7 note=38 velocity=85 time=0
EXTRACT: note_on channel=9 note=38 velocity=38 time=0
EXTRACT: note_on channel=10 note=62 velocity=0 time=0
EXTRACT: note_on channel=10 note=65 velocity=0 time=0
EXTRACT: note_on channel=10 note=69 velocity=0 time=0
EXTRACT: note_on channel=10 note=60 velocity=0 time=0
EXTRACT: note_on channel=10 note=67 velocity=78 time=0
EXTRACT: note_on channel=11 note=69 velocity=0 time=0
EXTRACT: note_on channel=11 note=67 velocity=78 time=0
EXTRACT: note_on channel=9 note=38 velocity=0 time=0.005376341666666667
EXTRACT: note_on channel=4 note=67 velocity=0 time=0
EXTRACT: note_on channel=4 note=64 velocity=85 time=0
EXTRACT: note_on channel=5 note=67 velocity=0 time=0
EXTRACT: note_on channel=5 note=64 velocity=82 time=0
EXTRACT: note_on channel=9 note=38 velocity=48 time=0
EXTRACT: note_on channel=9 note=42 velocity=48 time=0
EXTRACT: note_on channel=10 note=67 velocity=0 time=0
EXTRACT: note_on channel=10 note=64 velocity=78 time=0
EXTRACT: note_on channel=11 note=67 velocity=0 time=0
EXTRACT: note_on channel=11 note=64 velocity=78 time=0
EXTRACT: note_on channel=3 note=53 velocity=55 time=0.005376341666666667
EXTRACT: note_on channel=3 note=60 velocity=55 time=0
EXTRACT: note_on channel=3 note=64 velocity=61 time=0
EXTRACT: note_on channel=9 note=42 velocity=0 time=0
EXTRACT: note_on channel=9 note=38 velocity=0 time=0
EXTRACT: note_on channel=1 note=33 velocity=0 time=0.03763439166666667
EXTRACT: note_on channel=3 note=60 velocity=0 time=0.16129025
EXTRACT: note_on channel=3 note=53 velocity=0 time=0.06989244166666667
EXTRACT: note_on channel=3 note=64 velocity=0 time=0.010752683333333334
EXTRACT: note_on channel=1 note=33 velocity=76 time=0
EXTRACT: control_change channel=2 control=0 value=0 time=0
EXTRACT: note_on channel=4 note=64 velocity=0 time=0
EXTRACT: note_on channel=4 note=67 velocity=85 time=0
EXTRACT: note_on channel=5 note=64 velocity=0 time=0
EXTRACT: note_on channel=5 note=59 velocity=82 time=0
EXTRACT: note_on channel=5 note=67 velocity=82 time=0
EXTRACT: note_on channel=5 note=64 velocity=82 time=0
EXTRACT: note_on channel=7 note=38 velocity=0 time=0
EXTRACT: note_on channel=7 note=43 velocity=85 time=0
EXTRACT: note_on channel=9 note=38 velocity=58 time=0
EXTRACT: note_on channel=10 note=64 velocity=0 time=0
EXTRACT: note_on channel=10 note=59 velocity=78 time=0
EXTRACT: note_on channel=10 note=67 velocity=78 time=0
EXTRACT: note_on channel=10 note=64 velocity=78 time=0
EXTRACT: note_on channel=11 note=64 velocity=0 time=0
EXTRACT: note_on channel=11 note=67 velocity=78 time=0
EXTRACT: note_on channel=9 note=38 velocity=0 time=0.005376341666666667
EXTRACT: note_on channel=2 note=69 velocity=0 time=0.30645147500000003
EXTRACT: note_on channel=2 note=62 velocity=0 time=0
EXTRACT: note_on channel=2 note=60 velocity=0 time=0
EXTRACT: note_on channel=2 note=53 velocity=0 time=0
EXTRACT: note_on channel=2 note=57 velocity=0 time=0
EXTRACT: note_on channel=1 note=33 velocity=0 time=0.010752683333333334
EXTRACT: note_on channel=1 note=48 velocity=80 time=0
EXTRACT: note_on channel=2 note=65 velocity=0 time=0
EXTRACT: control_change channel=2 control=0 value=0 time=0
EXTRACT: control_change channel=2 control=64 value=0 time=0
EXTRACT: control_change channel=3 control=64 value=0 time=0
EXTRACT: note_on channel=3 note=48 velocity=53 time=0
EXTRACT: note_on channel=3 note=62 velocity=45 time=0
EXTRACT: note_on channel=3 note=59 velocity=59 time=0
EXTRACT: note_on channel=3 note=52 velocity=49 time=0
EXTRACT: note_on channel=7 note=43 velocity=0 time=0
EXTRACT: note_on channel=7 note=36 velocity=85 time=0
EXTRACT: note_on channel=9 note=35 velocity=58 time=0
EXTRACT: note_on channel=9 note=38 velocity=50 time=0
EXTRACT: note_on channel=9 note=38 velocity=0 time=0.005376341666666667
EXTRACT: note_on channel=9 note=35 velocity=0 time=0
EXTRACT: note_on channel=2 note=52 velocity=49 time=0.005376341666666667
EXTRACT: note_on channel=2 note=55 velocity=47 time=0
EXTRACT: note_on channel=2 note=59 velocity=55 time=0
EXTRACT: note_on channel=2 note=60 velocity=51 time=0
EXTRACT: note_on channel=2 note=67 velocity=59 time=0
EXTRACT: control_change channel=3 control=64 value=127 time=0.21505366666666667
EXTRACT: note_on channel=3 note=59 velocity=0 time=0.010752683333333334
EXTRACT: note_on channel=3 note=52 velocity=0 time=0.06989244166666667
EXTRACT: note_on channel=3 note=62 velocity=0 time=0
EXTRACT: note_on channel=4 note=67 velocity=0 time=0.005376341666666667
EXTRACT: note_on channel=11 note=67 velocity=0 time=0
EXTRACT: note_on channel=4 note=64 velocity=85 time=0
EXTRACT: note_on channel=5 note=64 velocity=0 time=0
EXTRACT: note_on channel=5 note=67 velocity=0 time=0
EXTRACT: note_on channel=5 note=59 velocity=0 time=0
EXTRACT: note_on channel=5 note=55 velocity=82 time=0
EXTRACT: note_on channel=5 note=64 velocity=82 time=0
EXTRACT: note_on channel=5 note=59 velocity=82 time=0
EXTRACT: note_on channel=9 note=38 velocity=38 time=0
EXTRACT: note_on channel=10 note=64 velocity=0 time=0
EXTRACT: note_on channel=10 note=67 velocity=0 time=0
EXTRACT: note_on channel=10 note=59 velocity=0 time=0
EXTRACT: note_on channel=10 note=55 velocity=78 time=0
EXTRACT: note_on channel=10 note=64 velocity=78 time=0
EXTRACT: note_on channel=10 note=59 velocity=78 time=0
EXTRACT: note_on channel=11 note=64 velocity=78 time=0
EXTRACT: note_on channel=9 note=38 velocity=0 time=0.005376341666666667
EXTRACT: note_on channel=2 note=64 velocity=56 time=0.0645161
EXTRACT: note_on channel=9 note=38 velocity=58 time=0.25268805833333335
EXTRACT: note_on channel=9 note=42 velocity=48 time=0
EXTRACT: note_on channel=9 note=42 velocity=0 time=0.005376341666666667
EXTRACT: note_on channel=9 note=38 velocity=0 time=0
EXTRACT: note_on channel=3 note=62 velocity=58 time=0.005376341666666667
EXTRACT: note_on channel=3 note=59 velocity=63 time=0.005376341666666667
EXTRACT: note_on channel=3 note=52 velocity=45 time=0.010752683333333334
EXTRACT: note_on channel=3 note=59 velocity=0 time=0.22580635000000002
EXTRACT: note_on channel=3 note=52 velocity=0 time=0.048387075
EXTRACT: note_on channel=4 note=64 velocity=0 time=0.010752683333333334
EXTRACT: note_on channel=11 note=64 velocity=0 time=0
EXTRACT: control_change channel=2 control=64 value=127 time=0.010752683333333334
EXTRACT: note_on channel=5 note=59 velocity=0 time=0
EXTRACT: note_on channel=5 note=64 velocity=0 time=0
EXTRACT: note_on channel=5 note=55 velocity=0 time=0
EXTRACT: note_on channel=7 note=36 velocity=0 time=0
EXTRACT: note_on channel=7 note=31 velocity=85 time=0
EXTRACT: note_on channel=9 note=38 velocity=38 time=0
EXTRACT: note_on channel=10 note=59 velocity=0 time=0
EXTRACT: note_on channel=10 note=64 velocity=0 time=0
EXTRACT: note_on channel=10 note=55 velocity=0 time=0
EXTRACT: note_on channel=3 note=62 velocity=0 time=0.005376341666666667
EXTRACT: note_on channel=9 note=38 velocity=0 time=0
EXTRACT: note_on channel=3 note=48 velocity=0 time=0.11827951666666667
EXTRACT: note_on channel=1 note=43 velocity=77 time=0
EXTRACT: note_on channel=4 note=64 velocity=85 time=0
EXTRACT: note_on channel=5 note=60 velocity=82 time=0
EXTRACT: note_on channel=9 note=35 velocity=58 time=0
EXTRACT: note_on channel=9 note=38 velocity=58 time=0
EXTRACT: note_on channel=10 note=60 velocity=78 time=0
EXTRACT: note_on channel=11 note=64 velocity=78 time=0
EXTRACT: note_on channel=3 note=43 velocity=55 time=0.005376341666666667
EXTRACT: note_on channel=9 note=38 velocity=0 time=0
EXTRACT: note_on channel=9 note=35 velocity=0 time=0
EXTRACT: note_on channel=1 note=48 velocity=0 time=0.080645125
EXTRACT: control_change channel=3 control=64 value=0 time=0.06989244166666667
EXTRACT: control_change channel=2 control=0 value=0 time=0
EXTRACT: note_on channel=4 note=64 velocity=0 time=0
EXTRACT: note_on channel=4 note=62 velocity=85 time=0
EXTRACT: note_on channel=5 note=60 velocity=0 time=0
EXTRACT: note_on channel=5 note=62 velocity=82 time=0
EXTRACT: note_on channel=7 note=31 velocity=0 time=0
EXTRACT: note_on channel=7 note=36 velocity=85 time=0
EXTRACT: note_on channel=9 note=38 velocity=38 time=0
EXTRACT: note_on channel=10 note=60 velocity=0 time=0
EXTRACT: note_on channel=10 note=62 velocity=78 time=0
EXTRACT: note_on channel=11 note=64 velocity=0 time=0
EXTRACT: note_on channel=11 note=62 velocity=78 time=0
EXTRACT: note_on channel=9 note=38 velocity=0 time=0.005376341666666667
EXTRACT: note_on channel=3 note=52 velocity=42 time=0.021505366666666668
EXTRACT: note_on channel=3 note=59 velocity=57 time=0.010752683333333334
EXTRACT: note_on channel=3 note=62 velocity=46 time=0
EXTRACT: note_on channel=4 note=62 velocity=0 time=0
EXTRACT: note_on channel=4 note=62 velocity=85 time=0
EXTRACT: note_on channel=5 note=62 velocity=0 time=0
EXTRACT: note_on channel=5 note=62 velocity=82 time=0
EXTRACT: note_on channel=10 note=62 velocity=0 time=0
EXTRACT: note_on channel=10 note=62 velocity=78 time=0
EXTRACT: note_on channel=11 note=62 velocity=0 time=0
EXTRACT: note_on channel=11 note=62 velocity=78 time=0
EXTRACT: note_on channel=4 note=62 velocity=0 time=0
EXTRACT: note_on channel=4 note=64 velocity=85 time=0
EXTRACT: note_on channel=5 note=62 velocity=0 time=0
EXTRACT: note_on channel=5 note=64 velocity=82 time=0
EXTRACT: note_on channel=9 note=38 velocity=48 time=0
EXTRACT: note_on channel=9 note=42 velocity=48 time=0
EXTRACT: note_on channel=10 note=62 velocity=0 time=0
EXTRACT: note_on channel=10 note=64 velocity=78 time=0
EXTRACT: note_on channel=11 note=62 velocity=0 time=0
EXTRACT: note_on channel=11 note=64 velocity=78 time=0
EXTRACT: note_on channel=9 note=42 velocity=0 time=0.005376341666666667
EXTRACT: note_on channel=9 note=38 velocity=0 time=0
EXTRACT: control_change channel=2 control=0 value=0 time=0.1827956166666667
EXTRACT: note_on channel=4 note=64 velocity=0 time=0
EXTRACT: note_on channel=4 note=65 velocity=85 time=0
EXTRACT: note_on channel=5 note=64 velocity=0 time=0
EXTRACT: note_on channel=5 note=65 velocity=82 time=0
EXTRACT: note_on channel=7 note=36 velocity=0 time=0
EXTRACT: note_on channel=7 note=36 velocity=85 time=0
EXTRACT: note_on channel=9 note=38 velocity=58 time=0
EXTRACT: note_on channel=10 note=64 velocity=0 time=0
EXTRACT: note_on channel=10 note=65 velocity=78 time=0
EXTRACT: note_on channel=11 note=64 velocity=0 time=0
EXTRACT: note_on channel=11 note=65 velocity=78 time=0
EXTRACT: note_on channel=9 note=38 velocity=0 time=0.005376341666666667
EXTRACT: note_on channel=3 note=59 velocity=0 time=0.016129025
EXTRACT: note_on channel=2 note=64 velocity=0 time=0.005376341666666667
EXTRACT: note_on channel=2 note=55 velocity=0 time=0
EXTRACT: note_on channel=2 note=59 velocity=0 time=0
EXTRACT: note_on channel=2 note=52 velocity=0 time=0
EXTRACT: note_on channel=2 note=67 velocity=0 time=0
EXTRACT: note_on channel=2 note=60 velocity=0 time=0
EXTRACT: note_on channel=3 note=52 velocity=0 time=0.043010733333333336
EXTRACT: control_change channel=2 control=0 value=0 time=0.010752683333333334
EXTRACT: control_change channel=2 control=64 value=0 time=0
EXTRACT: note_on channel=2 note=65 velocity=63 time=0.010752683333333334
EXTRACT: note_on channel=2 note=62 velocity=63 time=0
EXTRACT: note_on channel=2 note=60 velocity=63 time=0
EXTRACT: note_on channel=2 note=69 velocity=63 time=0
EXTRACT: note_on channel=3 note=43 velocity=0 time=0
EXTRACT: note_on channel=3 note=62 velocity=0 time=0
EXTRACT: note_on channel=1 note=43 velocity=0 time=0
EXTRACT: note_on channel=1 note=43 velocity=77 time=0
EXTRACT: note_on channel=4 note=65 velocity=0 time=0
EXTRACT: note_on channel=4 note=64 velocity=85 time=0
EXTRACT: note_on channel=5 note=65 velocity=0 time=0
EXTRACT: note_on channel=5 note=53 velocity=82 time=0
EXTRACT: note_on channel=5 note=64 velocity=82 time=0
EXTRACT: note_on channel=5 note=57 velocity=82 time=0
EXTRACT: note_on channel=5 note=60 velocity=82 time=0
EXTRACT: note_on channel=7 note=36 velocity=0 time=0
EXTRACT: note_on channel=7 note=31 velocity=85 time=0
EXTRACT: note_on channel=9 note=35 velocity=58 time=0
EXTRACT: note_on channel=9 note=38 velocity=50 time=0
EXTRACT: note_on channel=10 note=65 velocity=0 time=0
EXTRACT: note_on channel=10 note=53 velocity=78 time=0
EXTRACT: note_on channel=10 note=64 velocity=78 time=0
EXTRACT: note_on channel=10 note=57 velocity=78 time=0
EXTRACT: note_on channel=10 note=60 velocity=78 time=0
EXTRACT: note_on channel=11 note=65 velocity=0 time=0
EXTRACT: note_on channel=11 note=64 velocity=78 time=0
EXTRACT: note_on channel=9 note=38 velocity=0 time=0.005376341666666667
EXTRACT: note_on channel=9 note=35 velocity=0 time=0
EXTRACT: note_on channel=3 note=43 velocity=50 time=0.005376341666666667
EXTRACT: note_on channel=3 note=60 velocity=70 time=0.005376341666666667
EXTRACT: note_on channel=3 note=53 velocity=48 time=0
EXTRACT: note_on channel=3 note=64 velocity=70 time=0.016129025
EXTRACT: note_on channel=2 note=69 velocity=0 time=0.17204293333333334
EXTRACT: note_on channel=2 note=65 velocity=0 time=0
EXTRACT: note_on channel=2 note=62 velocity=0 time=0
EXTRACT: note_on channel=2 note=60 velocity=0 time=0
EXTRACT: control_change channel=3 control=64 value=127 time=0.03225805
EXTRACT: note_on channel=3 note=60 velocity=0 time=0.03763439166666667
EXTRACT: note_on channel=3 note=53 velocity=0 time=0.03225805
EXTRACT: note_on channel=3 note=64 velocity=0 time=0.005376341666666667
EXTRACT: note_on channel=9 note=38 velocity=38 time=0.010752683333333334
EXTRACT: note_on channel=9 note=38 velocity=0 time=0.005376341666666667
EXTRACT: note_on channel=2 note=65 velocity=46 time=0.30645147500000003
EXTRACT: note_on channel=2 note=62 velocity=46 time=0
EXTRACT: note_on channel=2 note=60 velocity=46 time=0
EXTRACT: note_on channel=2 note=69 velocity=46 time=0
EXTRACT: note_on channel=4 note=64 velocity=0 time=0
EXTRACT: note_on channel=11 note=64 velocity=0 time=0
EXTRACT: note_on channel=4 note=62 velocity=85 time=0
EXTRACT: note_on channel=5 note=60 velocity=0 time=0
EXTRACT: note_on channel=5 note=53 velocity=0 time=0
EXTRACT: note_on channel=5 note=64 velocity=0 time=0
EXTRACT: note_on channel=5 note=57 velocity=0 time=0
EXTRACT: note_on channel=5 note=62 velocity=82 time=0
EXTRACT: note_on channel=9 note=38 velocity=58 time=0
EXTRACT: note_on channel=9 note=42 velocity=48 time=0
EXTRACT: note_on channel=10 note=60 velocity=0 time=0
EXTRACT: note_on channel=10 note=53 velocity=0 time=0
EXTRACT: note_on channel=10 note=64 velocity=0 time=0
EXTRACT: note_on channel=10 note=57 velocity=0 time=0
EXTRACT: note_on channel=10 note=62 velocity=78 time=0
EXTRACT: note_on channel=11 note=62 velocity=78 time=0
EXTRACT: note_on channel=9 note=42 velocity=0 time=0.005376341666666667
EXTRACT: note_on channel=9 note=38 velocity=0 time=0
EXTRACT: note_on channel=3 note=53 velocity=49 time=0.005376341666666667
EXTRACT: note_on channel=3 note=60 velocity=59 time=0.010752683333333334
EXTRACT: note_on channel=3 note=64 velocity=54 time=0.010752683333333334
EXTRACT: note_on channel=2 note=69 velocity=0 time=0.18817195833333333
EXTRACT: note_on channel=2 note=65 velocity=0 time=0
EXTRACT: note_on channel=2 note=62 velocity=0 time=0
EXTRACT: note_on channel=2 note=60 velocity=0 time=0
EXTRACT: note_on channel=3 note=60 velocity=0 time=0.010752683333333334
EXTRACT: note_on channel=1 note=43 velocity=0 time=0.010752683333333334
EXTRACT: note_on channel=3 note=53 velocity=0 time=0
EXTRACT: note_on channel=3 note=64 velocity=0 time=0.03225805
EXTRACT: note_on channel=1 note=43 velocity=83 time=0
EXTRACT: note_on channel=4 note=62 velocity=0 time=0
EXTRACT: note_on channel=4 note=62 velocity=85 time=0
EXTRACT: note_on channel=5 note=62 velocity=0 time=0
EXTRACT: note_on channel=5 note=57 velocity=82 time=0
EXTRACT: note_on channel=5 note=53 velocity=82 time=0
EXTRACT: note_on channel=5 note=60 velocity=82 time=0
EXTRACT: note_on channel=5 note=62 velocity=82 time=0
EXTRACT: note_on channel=7 note=31 velocity=0 time=0
EXTRACT: note_on channel=7 note=38 velocity=85 time=0
EXTRACT: note_on channel=9 note=38 velocity=38 time=0
EXTRACT: note_on channel=10 note=62 velocity=0 time=0
EXTRACT: note_on channel=10 note=57 velocity=78 time=0
EXTRACT: note_on channel=10 note=53 velocity=78 time=0
EXTRACT: note_on channel=10 note=60 velocity=78 time=0
EXTRACT: note_on channel=10 note=62 velocity=78 time=0
EXTRACT: note_on channel=11 note=62 velocity=0 time=0
EXTRACT: note_on channel=11 note=62 velocity=78 time=0
EXTRACT: note_on channel=9 note=38 velocity=0 time=0.005376341666666667
EXTRACT: note_on channel=3 note=43 velocity=0 time=0.12365585833333334
EXTRACT: control_change channel=3 control=64 value=0 time=0.1344085416666667
EXTRACT: note_on channel=1 note=38 velocity=74 time=0.059139758333333334
EXTRACT: note_on channel=9 note=35 velocity=58 time=0
EXTRACT: note_on channel=9 note=38 velocity=58 time=0
EXTRACT: note_on channel=9 note=38 velocity=0 time=0.005376341666666667
EXTRACT: note_on channel=9 note=35 velocity=0 time=0
EXTRACT: note_on channel=3 note=64 velocity=51 time=0.005376341666666667
EXTRACT: note_on channel=1 note=43 velocity=0 time=0.026881708333333334
EXTRACT: note_on channel=3 note=60 velocity=57 time=0.005376341666666667
EXTRACT: note_on channel=3 note=53 velocity=44 time=0
EXTRACT: note_on channel=3 note=38 velocity=44 time=0
EXTRACT: note_on channel=3 note=60 velocity=0 time=0.16666659166666667
EXTRACT: note_on channel=3 note=64 velocity=0 time=0.026881708333333334
EXTRACT: note_on channel=3 note=53 velocity=0 time=0
EXTRACT: note_on channel=7 note=38 velocity=0 time=0.08602146666666667
EXTRACT: note_on channel=7 note=43 velocity=85 time=0
EXTRACT: note_on channel=9 note=38 velocity=38 time=0
EXTRACT: note_on channel=9 note=38 velocity=0 time=0.005376341666666667
EXTRACT: control_change channel=3 control=64 value=127 time=0.005376341666666667
EXTRACT: note_on channel=2 note=65 velocity=58 time=0.03763439166666667
EXTRACT: note_on channel=2 note=62 velocity=58 time=0
EXTRACT: note_on channel=2 note=60 velocity=58 time=0
EXTRACT: note_on channel=2 note=69 velocity=58 time=0
EXTRACT: note_on channel=3 note=64 velocity=50 time=0
EXTRACT: note_on channel=3 note=60 velocity=56 time=0
EXTRACT: note_on channel=3 note=53 velocity=40 time=0.021505366666666668
EXTRACT: note_on channel=3 note=60 velocity=0 time=0.16666659166666667
EXTRACT: note_on channel=3 note=53 velocity=0 time=0.043010733333333336
EXTRACT: note_on channel=3 note=64 velocity=0 time=0
EXTRACT: note_on channel=2 note=69 velocity=0 time=0.016129025
EXTRACT: note_on channel=2 note=65 velocity=0 time=0
EXTRACT: note_on channel=2 note=62 velocity=0 time=0
EXTRACT: note_on channel=2 note=60 velocity=0 time=0
EXTRACT: note_on channel=9 note=38 velocity=48 time=0.026881708333333334
EXTRACT: note_on channel=9 note=42 velocity=48 time=0
EXTRACT: note_on channel=9 note=42 velocity=0 time=0.005376341666666667
EXTRACT: note_on channel=9 note=38 velocity=0 time=0
EXTRACT: note_on channel=1 note=38 velocity=0 time=0.03763439166666667
EXTRACT: note_on channel=3 note=38 velocity=0 time=0.13978488333333333
EXTRACT: note_on channel=4 note=62 velocity=0 time=0.09677415
EXTRACT: note_on channel=11 note=62 velocity=0 time=0
EXTRACT: note_on channel=1 note=38 velocity=76 time=0
EXTRACT: note_on channel=4 note=62 velocity=85 time=0
EXTRACT: note_on channel=5 note=62 velocity=0 time=0
EXTRACT: note_on channel=5 note=57 velocity=0 time=0
EXTRACT: note_on channel=5 note=53 velocity=0 time=0
EXTRACT: note_on channel=5 note=60 velocity=0 time=0
EXTRACT: note_on channel=5 note=62 velocity=82 time=0
EXTRACT: note_on channel=7 note=43 velocity=0 time=0
EXTRACT: note_on channel=7 note=38 velocity=85 time=0
EXTRACT: note_on channel=9 note=38 velocity=58 time=0
EXTRACT: note_on channel=10 note=62 velocity=0 time=0
EXTRACT: note_on channel=10 note=57 velocity=0 time=0
EXTRACT: note_on channel=10 note=53 velocity=0 time=0
EXTRACT: note_on channel=10 note=60 velocity=0 time=0
EXTRACT: note_on channel=10 note=62 velocity=78 time=0
EXTRACT: note_on channel=11 note=62 velocity=78 time=0
EXTRACT: note_on channel=9 note=38 velocity=0 time=0.005376341666666667
EXTRACT: note_on channel=3 note=53 velocity=50 time=0.021505366666666668
EXTRACT: note_on channel=3 note=64 velocity=59 time=0
EXTRACT: note_on channel=3 note=60 velocity=65 time=0.010752683333333334
EXTRACT: note_on channel=4 note=62 velocity=0 time=0
EXTRACT: note_on channel=4 note=64 velocity=85 time=0
EXTRACT: note_on channel=5 note=62 velocity=0 time=0
EXTRACT: note_on channel=5 note=64 velocity=82 time=0
EXTRACT: note_on channel=10 note=62 velocity=0 time=0
EXTRACT: note_on channel=10 note=64 velocity=78 time=0
EXTRACT: note_on channel=11 note=62 velocity=0 time=0
EXTRACT: note_on channel=11 note=64 velocity=78 time=0
EXTRACT: control_change channel=3 control=64 value=0 time=0.043010733333333336
EXTRACT: note_on channel=1 note=43 velocity=75 time=0
EXTRACT: note_on channel=4 note=64 velocity=0 time=0
EXTRACT: note_on channel=4 note=65 velocity=85 time=0
EXTRACT: note_on channel=5 note=64 velocity=0 time=0
EXTRACT: note_on channel=5 note=65 velocity=82 time=0
EXTRACT: note_on channel=6 note=57 velocity=82 time=0
EXTRACT: note_on channel=6 note=60 velocity=82 time=0
EXTRACT: note_on channel=6 note=62 velocity=82 time=0
EXTRACT: note_on channel=7 note=38 velocity=0 time=0
EXTRACT: note_on channel=7 note=31 velocity=85 time=0
EXTRACT: note_on channel=9 note=35 velocity=58 time=0
EXTRACT: note_on channel=9 note=38 velocity=50 time=0
EXTRACT: note_on channel=10 note=64 velocity=0 time=0
EXTRACT: note_on channel=10 note=65 velocity=78 time=0
EXTRACT: note_on channel=11 note=64 velocity=0 time=0
EXTRACT: note_on channel=11 note=65 velocity=78 time=0
EXTRACT: note_on channel=9 note=38 velocity=0 time=0.005376341666666667
EXTRACT: note_on channel=9 note=35 velocity=0 time=0
EXTRACT: note_on channel=2 note=65 velocity=53 time=0.021505366666666668
EXTRACT: note_on channel=2 note=62 velocity=53 time=0
EXTRACT: note_on channel=2 note=60 velocity=53 time=0
EXTRACT: note_on channel=2 note=69 velocity=53 time=0
EXTRACT: note_on channel=3 note=43 velocity=50 time=0.005376341666666667
EXTRACT: note_on channel=1 note=38 velocity=0 time=0.03763439166666667
EXTRACT: note_on channel=3 note=60 velocity=0 time=0.005376341666666667
EXTRACT: note_on channel=3 note=53 velocity=0 time=0.03225805
EXTRACT: note_on channel=3 note=64 velocity=0 time=0.021505366666666668
EXTRACT: control_change channel=3 control=64 value=127 time=0.11290317500000001
EXTRACT: note_on channel=4 note=65 velocity=0 time=0
EXTRACT: note_on channel=4 note=65 velocity=85 time=0
EXTRACT: note_on channel=5 note=65 velocity=0 time=0
EXTRACT: note_on channel=5 note=65 velocity=82 time=0
EXTRACT: note_on channel=9 note=38 velocity=38 time=0
EXTRACT: note_on channel=10 note=65 velocity=0 time=0
EXTRACT: note_on channel=10 note=65 velocity=78 time=0
EXTRACT: note_on channel=11 note=65 velocity=0 time=0
EXTRACT: note_on channel=11 note=65 velocity=78 time=0
EXTRACT: note_on channel=9 note=38 velocity=0 time=0.005376341666666667
EXTRACT: note_on channel=4 note=65 velocity=0 time=0
EXTRACT: note_on channel=4 note=65 velocity=85 time=0
EXTRACT: note_on channel=5 note=65 velocity=0 time=0
EXTRACT: note_on channel=5 note=65 velocity=82 time=0
EXTRACT: note_on channel=10 note=65 velocity=0 time=0
EXTRACT: note_on channel=10 note=65 velocity=78 time=0
EXTRACT: note_on channel=11 note=65 velocity=0 time=0
EXTRACT: note_on channel=11 note=65 velocity=78 time=0
EXTRACT: note_on channel=4 note=65 velocity=0 time=0
EXTRACT: note_on channel=4 note=65 velocity=85 time=0
EXTRACT: note_on channel=5 note=65 velocity=0 time=0
EXTRACT: note_on channel=5 note=65 velocity=82 time=0
EXTRACT: note_on channel=9 note=38 velocity=58 time=0
EXTRACT: note_on channel=9 note=42 velocity=48 time=0
EXTRACT: note_on channel=10 note=65 velocity=0 time=0
EXTRACT: note_on channel=10 note=65 velocity=78 time=0
EXTRACT: note_on channel=11 note=65 velocity=0 time=0
EXTRACT: note_on channel=11 note=65 velocity=78 time=0
EXTRACT: note_on channel=9 note=42 velocity=0 time=0.005376341666666667
EXTRACT: note_on channel=9 note=38 velocity=0 time=0
EXTRACT: note_on channel=3 note=64 velocity=52 time=0.016129025
EXTRACT: note_on channel=3 note=60 velocity=49 time=0.010752683333333334
EXTRACT: note_on channel=3 note=53 velocity=39 time=0
EXTRACT: note_on channel=2 note=69 velocity=0 time=0.016129025
EXTRACT: note_on channel=2 note=65 velocity=0 time=0
EXTRACT: note_on channel=2 note=62 velocity=0 time=0
EXTRACT: note_on channel=2 note=60 velocity=0 time=0
EXTRACT: note_on channel=1 note=43 velocity=0 time=0.08602146666666667
EXTRACT: note_on channel=1 note=43 velocity=80 time=0
EXTRACT: note_on channel=4 note=65 velocity=0 time=0
EXTRACT: note_on channel=4 note=67 velocity=85 time=0
EXTRACT: note_on channel=5 note=65 velocity=0 time=0
EXTRACT: note_on channel=5 note=67 velocity=82 time=0
EXTRACT: note_on channel=6 note=62 velocity=0 time=0
EXTRACT: note_on channel=6 note=60 velocity=0 time=0
EXTRACT: note_on channel=6 note=57 velocity=0 time=0
EXTRACT: note_on channel=6 note=57 velocity=82 time=0
EXTRACT: note_on channel=6 note=60 velocity=82 time=0
EXTRACT: note_on channel=6 note=64 velocity=82 time=0
EXTRACT: note_on channel=7 note=31 velocity=0 time=0
EXTRACT: note_on channel=7 note=38 velocity=85 time=0
EXTRACT: note_on channel=9 note=38 velocity=38 time=0
EXTRACT: note_on channel=10 note=65 velocity=0 time=0
EXTRACT: note_on channel=10 note=67 velocity=78 time=0
EXTRACT: note_on channel=11 note=65 velocity=0 time=0
EXTRACT: note_on channel=11 note=67 velocity=78 time=0
EXTRACT: note_on channel=9 note=38 velocity=0 time=0.005376341666666667
EXTRACT: note_on channel=3 note=53 velocity=0 time=0.010752683333333334
EXTRACT: note_on channel=3 note=60 velocity=0 time=0
EXTRACT: note_on channel=2 note=65 velocity=59 time=0.026881708333333334
EXTRACT: note_on channel=2 note=62 velocity=59 time=0
EXTRACT: note_on channel=2 note=60 velocity=59 time=0
EXTRACT: note_on channel=2 note=69 velocity=59 time=0
EXTRACT: note_on channel=3 note=64 velocity=0 time=0.016129025
EXTRACT: note_on channel=3 note=43 velocity=0 time=0
EXTRACT: note_on channel=1 note=38 velocity=74 time=0
EXTRACT: note_on channel=4 note=67 velocity=0 time=0
EXTRACT: note_on channel=4 note=69 velocity=85 time=0
EXTRACT: note_on channel=5 note=67 velocity=0 time=0
EXTRACT: note_on channel=5 note=69 velocity=82 time=0
EXTRACT: note_on channel=6 note=64 velocity=0 time=0
EXTRACT: note_on channel=6 note=60 velocity=0 time=0
EXTRACT: note_on channel=6 note=57 velocity=0 time=0
EXTRACT: note_on channel=6 note=60 velocity=82 time=0
EXTRACT: note_on channel=6 note=62 velocity=82 time=0
EXTRACT: note_on channel=6 note=65 velocity=82 time=0
EXTRACT: note_on channel=9 note=35 velocity=58 time=0
EXTRACT: note_on channel=9 note=38 velocity=58 time=0
EXTRACT: note_on channel=10 note=67 velocity=0 time=0
EXTRACT: note_on channel=10 note=69 velocity=78 time=0
EXTRACT: note_on channel=11 note=67 velocity=0 time=0
EXTRACT: note_on channel=11 note=69 velocity=78 time=0
EXTRACT: note_on channel=9 note=38 velocity=0 time=0.005376341666666667
EXTRACT: note_on channel=9 note=35 velocity=0 time=0
EXTRACT: note_on channel=1 note=43 velocity=0 time=0.016129025
EXTRACT: note_on channel=3 note=38 velocity=53 time=0.005376341666666667
EXTRACT: control_change channel=3 control=64 value=0 time=0.043010733333333336
EXTRACT: note_on channel=4 note=69 velocity=0 time=0
EXTRACT: note_on channel=4 note=67 velocity=85 time=0
EXTRACT: note_on channel=5 note=69 velocity=0 time=0
EXTRACT: note_on channel=5 note=67 velocity=82 time=0
EXTRACT: note_on channel=6 note=65 velocity=0 time=0
EXTRACT: note_on channel=6 note=62 velocity=0 time=0
EXTRACT: note_on channel=6 note=60 velocity=0 time=0
EXTRACT: note_on channel=7 note=38 velocity=0 time=0
EXTRACT: note_on channel=7 note=43 velocity=85 time=0
EXTRACT: note_on channel=9 note=38 velocity=38 time=0
EXTRACT: note_on channel=10 note=69 velocity=0 time=0
EXTRACT: note_on channel=10 note=67 velocity=78 time=0
EXTRACT: note_on channel=11 note=69 velocity=0 time=0
EXTRACT: note_on channel=11 note=67 velocity=78 time=0
EXTRACT: note_on channel=3 note=64 velocity=51 time=0.005376341666666667
EXTRACT: note_on channel=3 note=53 velocity=38 time=0
EXTRACT: note_on channel=9 note=38 velocity=0 time=0
EXTRACT: note_on channel=3 note=60 velocity=60 time=0.010752683333333334
EXTRACT: control_change channel=3 control=64 value=127 time=0.13978488333333333
EXTRACT: note_on channel=1 note=38 velocity=0 time=0
EXTRACT: note_on channel=1 note=43 velocity=83 time=0
EXTRACT: note_on channel=4 note=67 velocity=0 time=0
EXTRACT: note_on channel=4 note=69 velocity=85 time=0
EXTRACT: note_on channel=5 note=67 velocity=0 time=0
EXTRACT: note_on channel=5 note=69 velocity=82 time=0
EXTRACT: note_on channel=6 note=60 velocity=82 time=0
EXTRACT: note_on channel=6 note=62 velocity=82 time=0
EXTRACT: note_on channel=6 note=65 velocity=82 time=0
EXTRACT: note_on channel=9 note=38 velocity=48 time=0
EXTRACT: note_on channel=9 note=42 velocity=48 time=0
EXTRACT: note_on channel=10 note=67 velocity=0 time=0
EXTRACT: note_on channel=10 note=69 velocity=78 time=0
EXTRACT: note_on channel=11 note=67 velocity=0 time=0
EXTRACT: note_on channel=11 note=69 velocity=78 time=0
EXTRACT: note_on channel=9 note=42 velocity=0 time=0.005376341666666667
EXTRACT: note_on channel=9 note=38 velocity=0 time=0
EXTRACT: note_on channel=3 note=38 velocity=0 time=0.1827956166666667
EXTRACT: note_on channel=2 note=69 velocity=0 time=0.10752683333333334
EXTRACT: note_on channel=2 note=65 velocity=0 time=0
EXTRACT: note_on channel=2 note=62 velocity=0 time=0
EXTRACT: note_on channel=2 note=60 velocity=0 time=0
EXTRACT: note_on channel=4 note=69 velocity=0 time=0
EXTRACT: note_on channel=4 note=71 velocity=85 time=0
EXTRACT: note_on channel=5 note=69 velocity=0 time=0
EXTRACT: note_on channel=5 note=71 velocity=82 time=0
EXTRACT: note_on channel=6 note=65 velocity=0 time=0
EXTRACT: note_on channel=6 note=62 velocity=0 time=0
EXTRACT: note_on channel=6 note=60 velocity=0 time=0
EXTRACT: note_on channel=7 note=43 velocity=0 time=0
EXTRACT: note_on channel=7 note=43 velocity=85 time=0
EXTRACT: note_on channel=9 note=38 velocity=58 time=0
EXTRACT: note_on channel=10 note=69 velocity=0 time=0
EXTRACT: note_on channel=10 note=71 velocity=78 time=0
EXTRACT: note_on channel=11 note=69 velocity=0 time=0
EXTRACT: note_on channel=11 note=71 velocity=78 time=0
EXTRACT: note_on channel=9 note=38 velocity=0 time=0.005376341666666667
EXTRACT: note_on channel=2 note=67 velocity=63 time=0.08602146666666667
EXTRACT: note_on channel=2 note=64 velocity=63 time=0
EXTRACT: note_on channel=2 note=60 velocity=63 time=0
EXTRACT: note_on channel=2 note=69 velocity=63 time=0
EXTRACT: control_change channel=3 control=64 value=0 time=0.021505366666666668
EXTRACT: note_on channel=3 note=64 velocity=0 time=0.08602146666666667
EXTRACT: note_on channel=3 note=60 velocity=0 time=0.010752683333333334
EXTRACT: note_on channel=3 note=53 velocity=0 time=0.005376341666666667
EXTRACT: note_on channel=1 note=43 velocity=0 time=0.048387075
EXTRACT: note_on channel=1 note=33 velocity=87 time=0
EXTRACT: note_on channel=3 note=45 velocity=53 time=0
EXTRACT: note_on channel=3 note=57 velocity=45 time=0
EXTRACT: note_on channel=3 note=55 velocity=59 time=0
EXTRACT: note_on channel=3 note=48 velocity=49 time=0
EXTRACT: note_on channel=4 note=71 velocity=0 time=0
EXTRACT: note_on channel=4 note=72 velocity=85 time=0
EXTRACT: note_on channel=5 note=71 velocity=0 time=0
EXTRACT: note_on channel=5 note=69 velocity=82 time=0
EXTRACT: note_on channel=5 note=64 velocity=82 time=0
EXTRACT: note_on channel=5 note=67 velocity=82 time=0
EXTRACT: note_on channel=5 note=72 velocity=82 time=0
EXTRACT: note_on channel=7 note=43 velocity=0 time=0
EXTRACT: note_on channel=7 note=33 velocity=85 time=0
EXTRACT: note_on channel=9 note=35 velocity=58 time=0
EXTRACT: note_on channel=9 note=38 velocity=50 time=0
EXTRACT: note_on channel=10 note=71 velocity=0 time=0
EXTRACT: note_on channel=10 note=69 velocity=78 time=0
EXTRACT: note_on channel=10 note=64 velocity=78 time=0
EXTRACT: note_on channel=10 note=67 velocity=78 time=0
EXTRACT: note_on channel=10 note=72 velocity=78 time=0
EXTRACT: note_on channel=11 note=71 velocity=0 time=0
EXTRACT: note_on channel=11 note=72 velocity=78 time=0
EXTRACT: note_on channel=9 note=38 velocity=0 time=0.005376341666666667
EXTRACT: note_on channel=9 note=35 velocity=0 time=0
EXTRACT: note_on channel=2 note=69 velocity=0 time=0.19892464166666668
EXTRACT: note_on channel=2 note=67 velocity=0 time=0
EXTRACT: note_on channel=2 note=64 velocity=0 time=0
EXTRACT: note_on channel=2 note=60 velocity=0 time=0
EXTRACT: control_change channel=3 control=64 value=127 time=0.021505366666666668
EXTRACT: note_on channel=3 note=55 velocity=0 time=0.010752683333333334
EXTRACT: note_on channel=3 note=48 velocity=0 time=0.06989244166666667
EXTRACT: note_on channel=3 note=57 velocity=0 time=0
EXTRACT: note_on channel=4 note=72 velocity=0 time=0.016129025
EXTRACT: note_on channel=5 note=72 velocity=0 time=0
EXTRACT: note_on channel=5 note=69 velocity=0 time=0
EXTRACT: note_on channel=5 note=64 velocity=0 time=0
EXTRACT: note_on channel=5 note=67 velocity=0 time=0
EXTRACT: note_on channel=9 note=38 velocity=38 time=0
EXTRACT: note_on channel=10 note=72 velocity=0 time=0
EXTRACT: note_on channel=10 note=69 velocity=0 time=0
EXTRACT: note_on channel=10 note=64 velocity=0 time=0
EXTRACT: note_on channel=10 note=67 velocity=0 time=0
EXTRACT: note_on channel=11 note=72 velocity=0 time=0
EXTRACT: note_on channel=9 note=38 velocity=0 time=0.005376341666666667
EXTRACT: note_on channel=2 note=67 velocity=46 time=0.30645147500000003
EXTRACT: note_on channel=2 note=64 velocity=46 time=0
EXTRACT: note_on channel=2 note=60 velocity=46 time=0
EXTRACT: note_on channel=2 note=69 velocity=46 time=0
EXTRACT: note_on channel=4 note=69 velocity=85 time=0
EXTRACT: note_on channel=5 note=69 velocity=82 time=0
EXTRACT: note_on channel=9 note=38 velocity=58 time=0
EXTRACT: note_on channel=9 note=42 velocity=48 time=0
EXTRACT: note_on channel=10 note=69 velocity=78 time=0
EXTRACT: note_on channel=11 note=69 velocity=78 time=0
EXTRACT: note_on channel=9 note=42 velocity=0 time=0.005376341666666667
EXTRACT: note_on channel=9 note=38 velocity=0 time=0
EXTRACT: note_on channel=3 note=57 velocity=58 time=0.005376341666666667
EXTRACT: note_on channel=3 note=55 velocity=63 time=0.005376341666666667
EXTRACT: note_on channel=3 note=48 velocity=45 time=0.010752683333333334
EXTRACT: note_on channel=2 note=69 velocity=0 time=0.1935483
EXTRACT: note_on channel=2 note=67 velocity=0 time=0
EXTRACT: note_on channel=2 note=64 velocity=0 time=0
EXTRACT: note_on channel=2 note=60 velocity=0 time=0
EXTRACT: note_on channel=3 note=55 velocity=0 time=0.03225805
EXTRACT: note_on channel=3 note=48 velocity=0 time=0.048387075
EXTRACT: note_on channel=4 note=69 velocity=0 time=0
EXTRACT: note_on channel=4 note=69 velocity=85 time=0
EXTRACT: note_on channel=5 note=69 velocity=0 time=0
EXTRACT: note_on channel=5 note=69 velocity=82 time=0
EXTRACT: note_on channel=9 note=38 velocity=38 time=0
EXTRACT: note_on channel=10 note=69 velocity=0 time=0
EXTRACT: note_on channel=10 note=69 velocity=78 time=0
EXTRACT: note_on channel=11 note=69 velocity=0 time=0
EXTRACT: note_on channel=11 note=69 velocity=78 time=0
EXTRACT: note_on channel=3 note=57 velocity=0 time=0.005376341666666667
EXTRACT: note_on channel=9 note=38 velocity=0 time=0
EXTRACT: note_on channel=3 note=45 velocity=0 time=0.11827951666666667
EXTRACT: note_on channel=1 note=40 velocity=79 time=0
EXTRACT: note_on channel=4 note=69 velocity=0 time=0
EXTRACT: note_on channel=4 note=69 velocity=85 time=0
EXTRACT: note_on channel=5 note=69 velocity=0 time=0
EXTRACT: note_on channel=5 note=60 velocity=82 time=0
EXTRACT: note_on channel=5 note=69 velocity=82 time=0
EXTRACT: note_on channel=5 note=64 velocity=82 time=0
EXTRACT: note_on channel=7 note=33 velocity=0 time=0
EXTRACT: note_on channel=7 note=33 velocity=85 time=0
EXTRACT: note_on channel=9 note=35 velocity=58 time=0
EXTRACT: note_on channel=9 note=38 velocity=58 time=0
EXTRACT: note_on channel=10 note=69 velocity=0 time=0
EXTRACT: note_on channel=10 note=60 velocity=78 time=0
EXTRACT: note_on channel=10 note=69 velocity=78 time=0
EXTRACT: note_on channel=10 note=64 velocity=78 time=0
EXTRACT: note_on channel=11 note=69 velocity=0 time=0
EXTRACT: note_on channel=11 note=69 velocity=78 time=0
EXTRACT: note_on channel=3 note=40 velocity=55 time=0.005376341666666667
EXTRACT: note_on channel=9 note=38 velocity=0 time=0
EXTRACT: note_on channel=9 note=35 velocity=0 time=0
EXTRACT: control_change channel=3 control=64 value=0 time=0.15053756666666668
EXTRACT: note_on channel=1 note=33 velocity=0 time=0.005376341666666667
EXTRACT: note_on channel=4 note=69 velocity=0 time=0
EXTRACT: note_on channel=4 note=67 velocity=85 time=0
EXTRACT: note_on channel=5 note=64 velocity=0 time=0
EXTRACT: note_on channel=5 note=69 velocity=0 time=0
EXTRACT: note_on channel=5 note=60 velocity=0 time=0
EXTRACT: note_on channel=5 note=67 velocity=82 time=0
EXTRACT: note_on channel=9 note=38 velocity=38 time=0
EXTRACT: note_on channel=10 note=64 velocity=0 time=0
EXTRACT: note_on channel=10 note=69 velocity=0 time=0
EXTRACT: note_on channel=10 note=60 velocity=0 time=0
EXTRACT: note_on channel=10 note=67 velocity=78 time=0
EXTRACT: note_on channel=11 note=69 velocity=0 time=0
EXTRACT: note_on channel=11 note=67 velocity=78 time=0
EXTRACT: note_on channel=9 note=38 velocity=0 time=0.005376341666666667
EXTRACT: note_on channel=3 note=48 velocity=42 time=0.021505366666666668
EXTRACT: note_on channel=3 note=55 velocity=57 time=0.010752683333333334
EXTRACT: note_on channel=3 note=57 velocity=46 time=0
EXTRACT: note_on channel=2 note=67 velocity=58 time=0.010752683333333334
EXTRACT: note_on channel=2 note=64 velocity=58 time=0
EXTRACT: note_on channel=2 note=60 velocity=58 time=0
EXTRACT: note_on channel=2 note=69 velocity=58 time=0
EXTRACT: note_on channel=2 note=69 velocity=0 time=0.24731171666666668
EXTRACT: note_on channel=2 note=67 velocity=0 time=0
EXTRACT: note_on channel=2 note=64 velocity=0 time=0
EXTRACT: note_on channel=2 note=60 velocity=0 time=0
EXTRACT: note_on channel=4 note=67 velocity=0 time=0
EXTRACT: note_on channel=4 note=64 velocity=85 time=0
EXTRACT: note_on channel=5 note=67 velocity=0 time=0
EXTRACT: note_on channel=5 note=64 velocity=82 time=0
EXTRACT: note_on channel=7 note=33 velocity=0 time=0
EXTRACT: note_on channel=7 note=45 velocity=85 time=0
EXTRACT: note_on channel=9 note=38 velocity=48 time=0
EXTRACT: note_on channel=9 note=42 velocity=48 time=0
EXTRACT: note_on channel=10 note=67 velocity=0 time=0
EXTRACT: note_on channel=10 note=64 velocity=78 time=0
EXTRACT: note_on channel=11 note=67 velocity=0 time=0
EXTRACT: note_on channel=11 note=64 velocity=78 time=0
EXTRACT: note_on channel=9 note=42 velocity=0 time=0.005376341666666667
EXTRACT: note_on channel=9 note=38 velocity=0 time=0
EXTRACT: note_on channel=4 note=64 velocity=0 time=0
EXTRACT: note_on channel=4 note=67 velocity=85 time=0
EXTRACT: note_on channel=5 note=64 velocity=0 time=0
EXTRACT: note_on channel=5 note=59 velocity=82 time=0
EXTRACT: note_on channel=5 note=62 velocity=82 time=0
EXTRACT: note_on channel=5 note=67 velocity=82 time=0
EXTRACT: note_on channel=9 note=38 velocity=58 time=0
EXTRACT: note_on channel=10 note=64 velocity=0 time=0
EXTRACT: note_on channel=10 note=59 velocity=78 time=0
EXTRACT: note_on channel=10 note=62 velocity=78 time=0
EXTRACT: note_on channel=10 note=67 velocity=78 time=0
EXTRACT: note_on channel=11 note=64 velocity=0 time=0
EXTRACT: note_on channel=11 note=67 velocity=78 time=0
EXTRACT: note_on channel=9 note=38 velocity=0 time=0.005376341666666667
EXTRACT: note_on channel=3 note=57 velocity=0 time=0.016129025
EXTRACT: note_on channel=3 note=55 velocity=0 time=0
EXTRACT: note_on channel=3 note=40 velocity=0 time=0
EXTRACT: note_on channel=3 note=48 velocity=0 time=0.048387075
EXTRACT: note_on channel=3 note=40 velocity=53 time=0.005376341666666667
EXTRACT: note_on channel=3 note=59 velocity=45 time=0
EXTRACT: note_on channel=3 note=55 velocity=59 time=0
EXTRACT: note_on channel=3 note=50 velocity=49 time=0
EXTRACT: note_on channel=1 note=40 velocity=0 time=0.24731171666666668
EXTRACT: note_on channel=1 note=40 velocity=86 time=0
EXTRACT: note_on channel=7 note=45 velocity=0 time=0
EXTRACT: note_on channel=7 note=40 velocity=85 time=0
EXTRACT: note_on channel=9 note=35 velocity=58 time=0
EXTRACT: note_on channel=9 note=38 velocity=50 time=0
EXTRACT: note_on channel=9 note=38 velocity=0 time=0.005376341666666667
EXTRACT: note_on channel=9 note=35 velocity=0 time=0
EXTRACT: note_on channel=3 note=55 velocity=0 time=0.22043000833333334
EXTRACT: control_change channel=3 control=64 value=127 time=0
EXTRACT: note_on channel=3 note=50 velocity=0 time=0.06989244166666667
EXTRACT: note_on channel=3 note=59 velocity=0 time=0
EXTRACT: note_on channel=4 note=67 velocity=0 time=0.016129025
EXTRACT: note_on channel=11 note=67 velocity=0 time=0
EXTRACT: note_on channel=4 note=64 velocity=85 time=0
EXTRACT: note_on channel=5 note=67 velocity=0 time=0
EXTRACT: note_on channel=5 note=62 velocity=0 time=0
EXTRACT: note_on channel=5 note=59 velocity=0 time=0
EXTRACT: note_on channel=5 note=64 velocity=82 time=0
EXTRACT: note_on channel=5 note=59 velocity=82 time=0
EXTRACT: note_on channel=5 note=55 velocity=82 time=0
EXTRACT: note_on channel=5 note=62 velocity=82 time=0
EXTRACT: note_on channel=9 note=38 velocity=38 time=0
EXTRACT: note_on channel=10 note=67 velocity=0 time=0
EXTRACT: note_on channel=10 note=62 velocity=0 time=0
EXTRACT: note_on channel=10 note=59 velocity=0 time=0
EXTRACT: note_on channel=10 note=64 velocity=78 time=0
EXTRACT: note_on channel=10 note=59 velocity=78 time=0
EXTRACT: note_on channel=10 note=55 velocity=78 time=0
EXTRACT: note_on channel=10 note=62 velocity=78 time=0
EXTRACT: note_on channel=11 note=64 velocity=78 time=0
EXTRACT: note_on channel=9 note=38 velocity=0 time=0.005376341666666667
EXTRACT: note_on channel=9 note=38 velocity=58 time=0.3172041583333334
EXTRACT: note_on channel=9 note=42 velocity=48 time=0
EXTRACT: note_on channel=9 note=42 velocity=0 time=0.005376341666666667
EXTRACT: note_on channel=9 note=38 velocity=0 time=0
EXTRACT: note_on channel=3 note=59 velocity=58 time=0.005376341666666667
EXTRACT: note_on channel=3 note=55 velocity=63 time=0.005376341666666667
EXTRACT: note_on channel=3 note=50 velocity=45 time=0.010752683333333334
EXTRACT: note_on channel=3 note=55 velocity=0 time=0.22580635000000002
EXTRACT: note_on channel=3 note=50 velocity=0 time=0.048387075
EXTRACT: note_on channel=9 note=38 velocity=38 time=0.021505366666666668
EXTRACT: note_on channel=3 note=59 velocity=0 time=0.005376341666666667
EXTRACT: note_on channel=9 note=38 velocity=0 time=0
EXTRACT: note_on channel=2 note=64 velocity=55 time=0.021505366666666668
EXTRACT: note_on channel=2 note=62 velocity=55 time=0
EXTRACT: note_on channel=2 note=59 velocity=55 time=0
EXTRACT: note_on channel=2 note=67 velocity=55 time=0
EXTRACT: note_on channel=3 note=40 velocity=0 time=0.08602146666666667
EXTRACT: note_on channel=4 note=64 velocity=0 time=0.1827956166666667
EXTRACT: note_on channel=11 note=64 velocity=0 time=0
EXTRACT: note_on channel=1 note=47 velocity=75 time=0
EXTRACT: note_on channel=4 note=69 velocity=85 time=0
EXTRACT: note_on channel=5 note=62 velocity=0 time=0
EXTRACT: note_on channel=5 note=64 velocity=0 time=0
EXTRACT: note_on channel=5 note=59 velocity=0 time=0
EXTRACT: note_on channel=5 note=55 velocity=0 time=0
EXTRACT: note_on channel=5 note=64 velocity=82 time=0
EXTRACT: note_on channel=5 note=59 velocity=82 time=0
EXTRACT: note_on channel=5 note=69 velocity=82 time=0
EXTRACT: note_on channel=7 note=40 velocity=0 time=0
EXTRACT: note_on channel=7 note=40 velocity=85 time=0
EXTRACT: note_on channel=9 note=35 velocity=58 time=0
EXTRACT: note_on channel=9 note=38 velocity=58 time=0
EXTRACT: note_on channel=10 note=62 velocity=0 time=0
EXTRACT: note_on channel=10 note=64 velocity=0 time=0
EXTRACT: note_on channel=10 note=59 velocity=0 time=0
EXTRACT: note_on channel=10 note=55 velocity=0 time=0
EXTRACT: note_on channel=10 note=64 velocity=78 time=0
EXTRACT: note_on channel=10 note=59 velocity=78 time=0
EXTRACT: note_on channel=10 note=69 velocity=78 time=0
EXTRACT: note_on channel=11 note=69 velocity=78 time=0
EXTRACT: note_on channel=3 note=35 velocity=55 time=0.005376341666666667
EXTRACT: note_on channel=9 note=38 velocity=0 time=0
EXTRACT: note_on channel=9 note=35 velocity=0 time=0
EXTRACT: note_on channel=1 note=40 velocity=0 time=0.03225805
EXTRACT: control_change channel=3 control=64 value=0 time=0.11827951666666667
EXTRACT: note_on channel=4 note=69 velocity=0 time=0
EXTRACT: note_on channel=4 note=67 velocity=85 time=0
EXTRACT: note_on channel=5 note=69 velocity=0 time=0
EXTRACT: note_on channel=5 note=59 velocity=0 time=0
EXTRACT: note_on channel=5 note=64 velocity=0 time=0
EXTRACT: note_on channel=5 note=67 velocity=82 time=0
EXTRACT: note_on channel=7 note=40 velocity=0 time=0
EXTRACT: note_on channel=7 note=43 velocity=85 time=0
EXTRACT: note_on channel=9 note=38 velocity=38 time=0
EXTRACT: note_on channel=10 note=69 velocity=0 time=0
EXTRACT: note_on channel=10 note=59 velocity=0 time=0
EXTRACT: note_on channel=10 note=64 velocity=0 time=0
EXTRACT: note_on channel=10 note=67 velocity=78 time=0
EXTRACT: note_on channel=11 note=69 velocity=0 time=0
EXTRACT: note_on channel=11 note=67 velocity=78 time=0
EXTRACT: note_on channel=9 note=38 velocity=0 time=0.005376341666666667
EXTRACT: note_on channel=3 note=50 velocity=42 time=0.021505366666666668
EXTRACT: note_on channel=3 note=55 velocity=57 time=0.010752683333333334
EXTRACT: note_on channel=3 note=59 velocity=46 time=0
EXTRACT: note_on channel=4 note=67 velocity=0 time=0
EXTRACT: note_on channel=4 note=69 velocity=85 time=0
EXTRACT: note_on channel=5 note=67 velocity=0 time=0
EXTRACT: note_on channel=5 note=69 velocity=82 time=0
EXTRACT: note_on channel=9 note=38 velocity=48 time=0
EXTRACT: note_on channel=9 note=42 velocity=48 time=0
EXTRACT: note_on channel=10 note=67 velocity=0 time=0
EXTRACT: note_on channel=10 note=69 velocity=78 time=0
EXTRACT: note_on channel=11 note=67 velocity=0 time=0
EXTRACT: note_on channel=11 note=69 velocity=78 time=0
EXTRACT: note_on channel=9 note=42 velocity=0 time=0.005376341666666667
EXTRACT: note_on channel=9 note=38 velocity=0 time=0
EXTRACT: note_on channel=1 note=47 velocity=0 time=0.1344085416666667
EXTRACT: note_on channel=1 note=47 velocity=70 time=0
EXTRACT: note_on channel=4 note=69 velocity=0 time=0
EXTRACT: note_on channel=4 note=72 velocity=85 time=0
EXTRACT: note_on channel=5 note=69 velocity=0 time=0
EXTRACT: note_on channel=5 note=67 velocity=82 time=0
EXTRACT: note_on channel=5 note=69 velocity=82 time=0
EXTRACT: note_on channel=5 note=64 velocity=82 time=0
EXTRACT: note_on channel=5 note=72 velocity=82 time=0
EXTRACT: note_on channel=7 note=43 velocity=0 time=0
EXTRACT: note_on channel=7 note=45 velocity=85 time=0
EXTRACT: note_on channel=9 note=38 velocity=58 time=0
EXTRACT: note_on channel=10 note=69 velocity=0 time=0
EXTRACT: note_on channel=10 note=67 velocity=78 time=0
EXTRACT: note_on channel=10 note=69 velocity=78 time=0
EXTRACT: note_on channel=10 note=64 velocity=78 time=0
EXTRACT: note_on channel=10 note=72 velocity=78 time=0
EXTRACT: note_on channel=11 note=69 velocity=0 time=0
EXTRACT: note_on channel=11 note=72 velocity=78 time=0
EXTRACT: note_on channel=9 note=38 velocity=0 time=0.005376341666666667
EXTRACT: note_on channel=3 note=55 velocity=0 time=0.016129025
EXTRACT: note_on channel=3 note=50 velocity=0 time=0.048387075
EXTRACT: note_on channel=3 note=35 velocity=0 time=0.021505366666666668
EXTRACT: note_on channel=3 note=59 velocity=0 time=0
EXTRACT: note_on channel=1 note=47 velocity=0 time=0.18817195833333333
EXTRACT: note_on channel=1 note=33 velocity=77 time=0.043010733333333336
EXTRACT: note_on channel=2 note=67 velocity=0 time=0
EXTRACT: note_on channel=2 note=64 velocity=0 time=0
EXTRACT: note_on channel=2 note=62 velocity=0 time=0
EXTRACT: note_on channel=2 note=59 velocity=0 time=0
EXTRACT: note_on channel=7 note=45 velocity=0 time=0
EXTRACT: note_on channel=7 note=33 velocity=85 time=0
EXTRACT: note_on channel=9 note=35 velocity=58 time=0
EXTRACT: note_on channel=9 note=38 velocity=50 time=0
EXTRACT: note_on channel=3 note=48 velocity=47 time=0.005376341666666667
EXTRACT: note_on channel=9 note=38 velocity=0 time=0
EXTRACT: note_on channel=9 note=35 velocity=0 time=0
EXTRACT: note_on channel=2 note=69 velocity=62 time=0.005376341666666667
EXTRACT: note_on channel=3 note=55 velocity=59 time=0
EXTRACT: note_on channel=3 note=57 velocity=42 time=0.005376341666666667
EXTRACT: control_change channel=3 control=64 value=127 time=0.1827956166666667
EXTRACT: note_on channel=3 note=55 velocity=0 time=0.11290317500000001
EXTRACT: note_on channel=4 note=72 velocity=0 time=0
EXTRACT: note_on channel=11 note=72 velocity=0 time=0
EXTRACT: note_on channel=4 note=69 velocity=85 time=0
EXTRACT: note_on channel=5 note=72 velocity=0 time=0
EXTRACT: note_on channel=5 note=67 velocity=0 time=0
EXTRACT: note_on channel=5 note=69 velocity=0 time=0
EXTRACT: note_on channel=5 note=64 velocity=0 time=0
EXTRACT: note_on channel=5 note=69 velocity=82 time=0
EXTRACT: note_on channel=5 note=64 velocity=82 time=0
EXTRACT: note_on channel=5 note=60 velocity=82 time=0
EXTRACT: note_on channel=5 note=67 velocity=82 time=0
EXTRACT: note_on channel=9 note=38 velocity=38 time=0
EXTRACT: note_on channel=10 note=72 velocity=0 time=0
EXTRACT: note_on channel=10 note=67 velocity=0 time=0
EXTRACT: note_on channel=10 note=69 velocity=0 time=0
EXTRACT: note_on channel=10 note=64 velocity=0 time=0
EXTRACT: note_on channel=10 note=69 velocity=78 time=0
EXTRACT: note_on channel=10 note=64 velocity=78 time=0
EXTRACT: note_on channel=10 note=60 velocity=78 time=0
EXTRACT: note_on channel=10 note=67 velocity=78 time=0
EXTRACT: note_on channel=11 note=69 velocity=78 time=0
EXTRACT: note_on channel=9 note=38 velocity=0 time=0.005376341666666667
EXTRACT: note_on channel=3 note=48 velocity=0 time=0.043010733333333336
EXTRACT: note_on channel=3 note=57 velocity=0 time=0.048387075
EXTRACT: control_change channel=2 control=64 value=127 time=0.22580635000000002
EXTRACT: note_on channel=2 note=67 velocity=54 time=0
EXTRACT: note_on channel=2 note=64 velocity=54 time=0
EXTRACT: note_on channel=2 note=60 velocity=54 time=0
EXTRACT: note_on channel=2 note=69 velocity=54 time=0
EXTRACT: note_on channel=9 note=38 velocity=58 time=0
EXTRACT: note_on channel=9 note=42 velocity=48 time=0
EXTRACT: note_on channel=9 note=42 velocity=0 time=0.005376341666666667
EXTRACT: note_on channel=9 note=38 velocity=0 time=0
EXTRACT: note_on channel=2 note=60 velocity=0 time=0.1935483
EXTRACT: note_on channel=2 note=64 velocity=0 time=0
EXTRACT: note_on channel=2 note=69 velocity=0 time=0
EXTRACT: note_on channel=2 note=67 velocity=0 time=0
EXTRACT: note_on channel=1 note=33 velocity=0 time=0.043010733333333336
EXTRACT: note_on channel=4 note=69 velocity=0 time=0.06989244166666667
EXTRACT: note_on channel=11 note=69 velocity=0 time=0
EXTRACT: note_on channel=1 note=33 velocity=83 time=0
EXTRACT: note_on channel=4 note=72 velocity=85 time=0
EXTRACT: note_on channel=5 note=67 velocity=0 time=0
EXTRACT: note_on channel=5 note=69 velocity=0 time=0
EXTRACT: note_on channel=5 note=64 velocity=0 time=0
EXTRACT: note_on channel=5 note=60 velocity=0 time=0
EXTRACT: note_on channel=5 note=69 velocity=82 time=0
EXTRACT: note_on channel=5 note=67 velocity=82 time=0
EXTRACT: note_on channel=5 note=64 velocity=82 time=0
EXTRACT: note_on channel=5 note=72 velocity=82 time=0
EXTRACT: note_on channel=9 note=38 velocity=38 time=0
EXTRACT: note_on channel=10 note=67 velocity=0 time=0
EXTRACT: note_on channel=10 note=69 velocity=0 time=0
EXTRACT: note_on channel=10 note=64 velocity=0 time=0
EXTRACT: note_on channel=10 note=60 velocity=0 time=0
EXTRACT: note_on channel=10 note=69 velocity=78 time=0
EXTRACT: note_on channel=10 note=67 velocity=78 time=0
EXTRACT: note_on channel=10 note=64 velocity=78 time=0
EXTRACT: note_on channel=10 note=72 velocity=78 time=0
EXTRACT: note_on channel=11 note=72 velocity=78 time=0
EXTRACT: note_on channel=9 note=38 velocity=0 time=0.005376341666666667
EXTRACT: note_on channel=3 note=57 velocity=52 time=0.03225805
EXTRACT: note_on channel=3 note=55 velocity=59 time=0.021505366666666668
EXTRACT: note_on channel=3 note=48 velocity=40 time=0.010752683333333334
EXTRACT: note_on channel=3 note=55 velocity=0 time=0.22580635000000002
EXTRACT: note_on channel=1 note=40 velocity=74 time=0.026881708333333334
EXTRACT: note_on channel=7 note=33 velocity=0 time=0
EXTRACT: note_on channel=7 note=33 velocity=85 time=0
EXTRACT: note_on channel=9 note=35 velocity=58 time=0
EXTRACT: note_on channel=9 note=38 velocity=58 time=0
EXTRACT: note_on channel=9 note=38 velocity=0 time=0.005376341666666667
EXTRACT: note_on channel=9 note=35 velocity=0 time=0
EXTRACT: note_on channel=3 note=57 velocity=0 time=0.021505366666666668
EXTRACT: note_on channel=1 note=33 velocity=0 time=0.010752683333333334
EXTRACT: note_on channel=3 note=48 velocity=0 time=0.010752683333333334
EXTRACT: note_on channel=4 note=72 velocity=0 time=0.2634407416666667
EXTRACT: note_on channel=11 note=72 velocity=0 time=0
EXTRACT: note_on channel=2 note=67 velocity=54 time=0
EXTRACT: note_on channel=2 note=64 velocity=54 time=0
EXTRACT: note_on channel=2 note=60 velocity=54 time=0
EXTRACT: note_on channel=2 note=69 velocity=54 time=0
EXTRACT: note_on channel=4 note=69 velocity=85 time=0
EXTRACT: note_on channel=5 note=72 velocity=0 time=0
EXTRACT: note_on channel=5 note=69 velocity=0 time=0
EXTRACT: note_on channel=5 note=67 velocity=0 time=0
EXTRACT: note_on channel=5 note=64 velocity=0 time=0
EXTRACT: note_on channel=5 note=69 velocity=82 time=0
EXTRACT: note_on channel=9 note=38 velocity=38 time=0
EXTRACT: note_on channel=10 note=72 velocity=0 time=0
EXTRACT: note_on channel=10 note=69 velocity=0 time=0
EXTRACT: note_on channel=10 note=67 velocity=0 time=0
EXTRACT: note_on channel=10 note=64 velocity=0 time=0
EXTRACT: note_on channel=10 note=69 velocity=78 time=0
EXTRACT: note_on channel=11 note=69 velocity=78 time=0
EXTRACT: note_on channel=9 note=38 velocity=0 time=0.005376341666666667
EXTRACT: note_on channel=2 note=60 velocity=0 time=0.17741927500000002
EXTRACT: note_on channel=2 note=64 velocity=0 time=0
EXTRACT: note_on channel=2 note=69 velocity=0 time=0
EXTRACT: note_on channel=2 note=67 velocity=0 time=0
EXTRACT: note_on channel=4 note=69 velocity=0 time=0
EXTRACT: note_on channel=4 note=67 velocity=85 time=0
EXTRACT: note_on channel=5 note=69 velocity=0 time=0
EXTRACT: note_on channel=5 note=67 velocity=82 time=0
EXTRACT: note_on channel=7 note=33 velocity=0 time=0
EXTRACT: note_on channel=7 note=45 velocity=85 time=0
EXTRACT: note_on channel=9 note=38 velocity=48 time=0
EXTRACT: note_on channel=9 note=42 velocity=48 time=0
EXTRACT: note_on channel=10 note=69 velocity=0 time=0
EXTRACT: note_on channel=10 note=67 velocity=78 time=0
EXTRACT: note_on channel=11 note=69 velocity=0 time=0
EXTRACT: note_on channel=11 note=67 velocity=78 time=0
EXTRACT: note_on channel=3 note=48 velocity=55 time=0.005376341666666667
EXTRACT: note_on channel=3 note=55 velocity=55 time=0
EXTRACT: note_on channel=3 note=57 velocity=61 time=0
EXTRACT: note_on channel=9 note=42 velocity=0 time=0
EXTRACT: note_on channel=9 note=38 velocity=0 time=0
EXTRACT: note_on channel=1 note=40 velocity=0 time=0.03763439166666667
EXTRACT: note_on channel=3 note=55 velocity=0 time=0.16129025
EXTRACT: note_on channel=3 note=48 velocity=0 time=0.06989244166666667
EXTRACT: note_on channel=3 note=57 velocity=0 time=0.010752683333333334
EXTRACT: note_on channel=1 note=40 velocity=76 time=0
EXTRACT: note_on channel=4 note=67 velocity=0 time=0
EXTRACT: note_on channel=4 note=69 velocity=85 time=0
EXTRACT: note_on channel=5 note=67 velocity=0 time=0
EXTRACT: note_on channel=5 note=69 velocity=82 time=0
EXTRACT: note_on channel=5 note=59 velocity=82 time=0
EXTRACT: note_on channel=5 note=62 velocity=82 time=0
EXTRACT: note_on channel=9 note=38 velocity=58 time=0
EXTRACT: note_on channel=10 note=67 velocity=0 time=0
EXTRACT: note_on channel=10 note=69 velocity=78 time=0
EXTRACT: note_on channel=10 note=59 velocity=78 time=0
EXTRACT: note_on channel=10 note=62 velocity=78 time=0
EXTRACT: note_on channel=11 note=67 velocity=0 time=0
EXTRACT: note_on channel=11 note=69 velocity=78 time=0
EXTRACT: note_on channel=9 note=38 velocity=0 time=0.005376341666666667
EXTRACT: note_on channel=1 note=40 velocity=0 time=0.3172041583333334
EXTRACT: note_on channel=1 note=40 velocity=82 time=0
EXTRACT: note_on channel=2 note=69 velocity=0 time=0
EXTRACT: control_change channel=2 control=64 value=0 time=0
EXTRACT: control_change channel=3 control=64 value=0 time=0
EXTRACT: note_on channel=3 note=40 velocity=56 time=0
EXTRACT: note_on channel=7 note=45 velocity=0 time=0
EXTRACT: note_on channel=7 note=40 velocity=85 time=0
EXTRACT: note_on channel=9 note=35 velocity=58 time=0
EXTRACT: note_on channel=9 note=38 velocity=50 time=0
EXTRACT: note_on channel=9 note=38 velocity=0 time=0.005376341666666667
EXTRACT: note_on channel=9 note=35 velocity=0 time=0
EXTRACT: note_on channel=2 note=64 velocity=55 time=0.005376341666666667
EXTRACT: note_on channel=2 note=62 velocity=55 time=0
EXTRACT: note_on channel=2 note=59 velocity=55 time=0
EXTRACT: note_on channel=2 note=67 velocity=55 time=0
EXTRACT: note_on channel=4 note=69 velocity=0 time=0.30107513333333336
EXTRACT: note_on channel=11 note=69 velocity=0 time=0
EXTRACT: note_on channel=4 note=67 velocity=85 time=0.010752683333333334
EXTRACT: note_on channel=5 note=62 velocity=0 time=0
EXTRACT: note_on channel=5 note=59 velocity=0 time=0
EXTRACT: note_on channel=5 note=69 velocity=0 time=0
EXTRACT: note_on channel=5 note=67 velocity=82 time=0
EXTRACT: note_on channel=9 note=38 velocity=38 time=0
EXTRACT: note_on channel=10 note=62 velocity=0 time=0
EXTRACT: note_on channel=10 note=59 velocity=0 time=0
EXTRACT: note_on channel=10 note=69 velocity=0 time=0
EXTRACT: note_on channel=10 note=67 velocity=78 time=0
EXTRACT: note_on channel=11 note=67 velocity=78 time=0
EXTRACT: note_on channel=9 note=38 velocity=0 time=0.005376341666666667
EXTRACT: control_change channel=3 control=64 value=127 time=0.23655903333333334
EXTRACT: note_on channel=3 note=50 velocity=49 time=0.06989244166666667
EXTRACT: note_on channel=3 note=59 velocity=58 time=0
EXTRACT: note_on channel=4 note=67 velocity=0 time=0.010752683333333334
EXTRACT: note_on channel=5 note=67 velocity=0 time=0
EXTRACT: note_on channel=9 note=38 velocity=58 time=0
EXTRACT: note_on channel=9 note=42 velocity=48 time=0
EXTRACT: note_on channel=10 note=67 velocity=0 time=0
EXTRACT: note_on channel=11 note=67 velocity=0 time=0
EXTRACT: note_on channel=3 note=55 velocity=63 time=0.005376341666666667
EXTRACT: note_on channel=9 note=42 velocity=0 time=0
EXTRACT: note_on channel=9 note=38 velocity=0 time=0
EXTRACT: note_on channel=3 note=55 velocity=0 time=0.28494610833333334
EXTRACT: note_on channel=3 note=50 velocity=0 time=0
EXTRACT: note_on channel=4 note=67 velocity=85 time=0
EXTRACT: note_on channel=5 note=67 velocity=82 time=0
EXTRACT: note_on channel=9 note=38 velocity=38 time=0
EXTRACT: note_on channel=10 note=67 velocity=78 time=0
EXTRACT: note_on channel=11 note=67 velocity=78 time=0
EXTRACT: note_on channel=9 note=38 velocity=0 time=0.005376341666666667
EXTRACT: note_on channel=3 note=59 velocity=0 time=0.048387075
EXTRACT: note_on channel=3 note=40 velocity=0 time=0.005376341666666667
EXTRACT: note_on channel=1 note=40 velocity=0 time=0.07526878333333334
EXTRACT: note_on channel=1 note=40 velocity=81 time=0
EXTRACT: note_on channel=4 note=67 velocity=0 time=0
EXTRACT: note_on channel=4 note=69 velocity=85 time=0
EXTRACT: note_on channel=5 note=67 velocity=0 time=0
EXTRACT: note_on channel=5 note=59 velocity=82 time=0
EXTRACT: note_on channel=5 note=62 velocity=82 time=0
EXTRACT: note_on channel=5 note=69 velocity=82 time=0
EXTRACT: note_on channel=7 note=40 velocity=0 time=0
EXTRACT: note_on channel=7 note=40 velocity=85 time=0
EXTRACT: note_on channel=9 note=35 velocity=58 time=0
EXTRACT: note_on channel=9 note=38 velocity=58 time=0
EXTRACT: note_on channel=10 note=67 velocity=0 time=0
EXTRACT: note_on channel=10 note=59 velocity=78 time=0
EXTRACT: note_on channel=10 note=62 velocity=78 time=0
EXTRACT: note_on channel=10 note=69 velocity=78 time=0
EXTRACT: note_on channel=11 note=67 velocity=0 time=0
EXTRACT: note_on channel=11 note=69 velocity=78 time=0
EXTRACT: note_on channel=9 note=38 velocity=0 time=0.005376341666666667
EXTRACT: note_on channel=9 note=35 velocity=0 time=0
EXTRACT: note_on channel=3 note=35 velocity=45 time=0.03225805
EXTRACT: note_on channel=4 note=69 velocity=0 time=0
EXTRACT: note_on channel=4 note=67 velocity=85 time=0
EXTRACT: note_on channel=5 note=69 velocity=0 time=0
EXTRACT: note_on channel=5 note=62 velocity=0 time=0
EXTRACT: note_on channel=5 note=59 velocity=0 time=0
EXTRACT: note_on channel=5 note=67 velocity=82 time=0
EXTRACT: note_on channel=7 note=40 velocity=0 time=0
EXTRACT: note_on channel=7 note=43 velocity=85 time=0
EXTRACT: note_on channel=9 note=38 velocity=38 time=0
EXTRACT: note_on channel=10 note=69 velocity=0 time=0
EXTRACT: note_on channel=10 note=62 velocity=0 time=0
EXTRACT: note_on channel=10 note=59 velocity=0 time=0
EXTRACT: note_on channel=10 note=67 velocity=78 time=0
EXTRACT: note_on channel=11 note=69 velocity=0 time=0
EXTRACT: note_on channel=11 note=67 velocity=78 time=0
EXTRACT: note_on channel=9 note=38 velocity=0 time=0.005376341666666667
EXTRACT: note_on channel=3 note=59 velocity=55 time=0.010752683333333334
EXTRACT: note_on channel=3 note=55 velocity=55 time=0
EXTRACT: note_on channel=3 note=50 velocity=39 time=0.016129025
EXTRACT: note_on channel=3 note=55 velocity=0 time=0.241935375
EXTRACT: note_on channel=3 note=50 velocity=0 time=0.016129025
EXTRACT: note_on channel=3 note=59 velocity=0 time=0.026881708333333334
EXTRACT: note_on channel=4 note=67 velocity=0 time=0
EXTRACT: note_on channel=4 note=69 velocity=85 time=0
EXTRACT: note_on channel=5 note=67 velocity=0 time=0
EXTRACT: note_on channel=5 note=69 velocity=82 time=0
EXTRACT: note_on channel=9 note=38 velocity=48 time=0
EXTRACT: note_on channel=9 note=42 velocity=48 time=0
EXTRACT: note_on channel=10 note=67 velocity=0 time=0
EXTRACT: note_on channel=10 note=69 velocity=78 time=0
EXTRACT: note_on channel=11 note=67 velocity=0 time=0
EXTRACT: note_on channel=11 note=69 velocity=78 time=0
EXTRACT: note_on channel=9 note=42 velocity=0 time=0.005376341666666667
EXTRACT: note_on channel=9 note=38 velocity=0 time=0
EXTRACT: note_on channel=3 note=35 velocity=0 time=0.03763439166666667
EXTRACT: note_on channel=4 note=69 velocity=0 time=0
EXTRACT: note_on channel=4 note=72 velocity=85 time=0
EXTRACT: note_on channel=5 note=69 velocity=0 time=0
EXTRACT: note_on channel=5 note=72 velocity=82 time=0
EXTRACT: note_on channel=5 note=65 velocity=82 time=0
EXTRACT: note_on channel=5 note=69 velocity=82 time=0
EXTRACT: note_on channel=7 note=43 velocity=0 time=0
EXTRACT: note_on channel=7 note=45 velocity=85 time=0
EXTRACT: note_on channel=9 note=38 velocity=58 time=0
EXTRACT: note_on channel=10 note=69 velocity=0 time=0
EXTRACT: note_on channel=10 note=72 velocity=78 time=0
EXTRACT: note_on channel=10 note=65 velocity=78 time=0
EXTRACT: note_on channel=10 note=69 velocity=78 time=0
EXTRACT: note_on channel=11 note=69 velocity=0 time=0
EXTRACT: note_on channel=11 note=72 velocity=78 time=0
EXTRACT: note_on channel=9 note=38 velocity=0 time=0.005376341666666667
EXTRACT: note_on channel=1 note=40 velocity=0 time=0.048387075
EXTRACT: control_change channel=3 control=64 value=0 time=0.06989244166666667
EXTRACT: note_on channel=1 note=41 velocity=77 time=0.19892464166666668
EXTRACT: note_on channel=2 note=67 velocity=0 time=0
EXTRACT: note_on channel=2 note=64 velocity=0 time=0
EXTRACT: note_on channel=2 note=62 velocity=0 time=0
EXTRACT: note_on channel=2 note=59 velocity=0 time=0
EXTRACT: control_change channel=3 control=0 value=0 time=0
EXTRACT: note_on channel=7 note=45 velocity=0 time=0
EXTRACT: note_on channel=7 note=41 velocity=85 time=0
EXTRACT: note_on channel=9 note=35 velocity=58 time=0
EXTRACT: note_on channel=9 note=38 velocity=50 time=0
EXTRACT: note_on channel=3 note=60 velocity=51 time=0.005376341666666667
EXTRACT: note_on channel=9 note=38 velocity=0 time=0
EXTRACT: note_on channel=9 note=35 velocity=0 time=0
EXTRACT: note_on channel=2 note=65 velocity=63 time=0.005376341666666667
EXTRACT: note_on channel=2 note=60 velocity=63 time=0
EXTRACT: note_on channel=2 note=57 velocity=63 time=0
EXTRACT: note_on channel=3 note=65 velocity=45 time=0.026881708333333334
EXTRACT: note_on channel=3 note=53 velocity=41 time=0
EXTRACT: note_on channel=3 note=41 velocity=38 time=0
EXTRACT: control_change channel=3 control=64 value=127 time=0.16666659166666667
EXTRACT: note_on channel=2 note=57 velocity=0 time=0.010752683333333334
EXTRACT: note_on channel=2 note=60 velocity=0 time=0
EXTRACT: note_on channel=2 note=65 velocity=0 time=0
EXTRACT: note_on channel=3 note=60 velocity=0 time=0.021505366666666668
EXTRACT: note_on channel=3 note=53 velocity=0 time=0.016129025
EXTRACT: note_on channel=3 note=65 velocity=0 time=0.010752683333333334
EXTRACT: note_on channel=4 note=72 velocity=0 time=0.048387075
EXTRACT: note_on channel=11 note=72 velocity=0 time=0
EXTRACT: note_on channel=4 note=69 velocity=85 time=0
EXTRACT: note_on channel=5 note=69 velocity=0 time=0
EXTRACT: note_on channel=5 note=65 velocity=0 time=0
EXTRACT: note_on channel=5 note=72 velocity=0 time=0
EXTRACT: note_on channel=5 note=69 velocity=82 time=0
EXTRACT: note_on channel=5 note=60 velocity=82 time=0
EXTRACT: note_on channel=5 note=65 velocity=82 time=0
EXTRACT: note_on channel=9 note=38 velocity=38 time=0
EXTRACT: note_on channel=10 note=69 velocity=0 time=0
EXTRACT: note_on channel=10 note=65 velocity=0 time=0
EXTRACT: note_on channel=10 note=72 velocity=0 time=0
EXTRACT: note_on channel=10 note=69 velocity=78 time=0
EXTRACT: note_on channel=10 note=60 velocity=78 time=0
EXTRACT: note_on channel=10 note=65 velocity=78 time=0
EXTRACT: note_on channel=11 note=69 velocity=78 time=0
EXTRACT: note_on channel=9 note=38 velocity=0 time=0.005376341666666667
EXTRACT: note_on channel=2 note=65 velocity=46 time=0.30645147500000003
EXTRACT: note_on channel=2 note=60 velocity=46 time=0
EXTRACT: note_on channel=2 note=57 velocity=46 time=0
EXTRACT: note_on channel=9 note=38 velocity=58 time=0.010752683333333334
EXTRACT: note_on channel=9 note=42 velocity=48 time=0
EXTRACT: note_on channel=9 note=42 velocity=0 time=0.005376341666666667
EXTRACT: note_on channel=9 note=38 velocity=0 time=0
EXTRACT: note_on channel=3 note=65 velocity=53 time=0.005376341666666667
EXTRACT: note_on channel=3 note=60 velocity=63 time=0.005376341666666667
EXTRACT: note_on channel=3 note=53 velocity=47 time=0.010752683333333334
EXTRACT: note_on channel=3 note=60 velocity=0 time=0.16129025
EXTRACT: note_on channel=2 note=57 velocity=0 time=0.03225805
EXTRACT: note_on channel=2 note=60 velocity=0 time=0
EXTRACT: note_on channel=2 note=65 velocity=0 time=0
EXTRACT: note_on channel=3 note=53 velocity=0 time=0
EXTRACT: note_on channel=1 note=41 velocity=0 time=0.021505366666666668
EXTRACT: note_on channel=3 note=65 velocity=0 time=0
EXTRACT: note_on channel=4 note=69 velocity=0 time=0.06989244166666667
EXTRACT: note_on channel=11 note=69 velocity=0 time=0
EXTRACT: note_on channel=1 note=41 velocity=83 time=0
EXTRACT: note_on channel=4 note=72 velocity=85 time=0
EXTRACT: note_on channel=5 note=65 velocity=0 time=0
EXTRACT: note_on channel=5 note=60 velocity=0 time=0
EXTRACT: note_on channel=5 note=69 velocity=0 time=0
EXTRACT: note_on channel=5 note=72 velocity=82 time=0
EXTRACT: note_on channel=7 note=41 velocity=0 time=0
EXTRACT: note_on channel=7 note=41 velocity=85 time=0
EXTRACT: note_on channel=9 note=38 velocity=38 time=0
EXTRACT: note_on channel=10 note=65 velocity=0 time=0
EXTRACT: note_on channel=10 note=60 velocity=0 time=0
EXTRACT: note_on channel=10 note=69 velocity=0 time=0
EXTRACT: note_on channel=10 note=72 velocity=78 time=0
EXTRACT: note_on channel=11 note=72 velocity=78 time=0
EXTRACT: note_on channel=9 note=38 velocity=0 time=0.005376341666666667
EXTRACT: note_on channel=2 note=64 velocity=63 time=0.08602146666666667
EXTRACT: note_on channel=2 note=62 velocity=63 time=0
EXTRACT: note_on channel=2 note=59 velocity=63 time=0
EXTRACT: note_on channel=2 note=67 velocity=63 time=0
EXTRACT: control_change channel=3 control=64 value=0 time=0.09677415
EXTRACT: note_on channel=1 note=41 velocity=0 time=0
EXTRACT: note_on channel=1 note=40 velocity=82 time=0
EXTRACT: note_on channel=3 note=41 velocity=0 time=0
EXTRACT: note_on channel=3 note=40 velocity=53 time=0
EXTRACT: note_on channel=3 note=59 velocity=45 time=0
EXTRACT: note_on channel=3 note=55 velocity=59 time=0
EXTRACT: note_on channel=3 note=50 velocity=49 time=0
EXTRACT: note_on channel=4 note=72 velocity=0 time=0
EXTRACT: note_on channel=4 note=69 velocity=85 time=0
EXTRACT: note_on channel=5 note=72 velocity=0 time=0
EXTRACT: note_on channel=5 note=62 velocity=82 time=0
EXTRACT: note_on channel=5 note=59 velocity=82 time=0
EXTRACT: note_on channel=5 note=69 velocity=82 time=0
EXTRACT: note_on channel=7 note=41 velocity=0 time=0
EXTRACT: note_on channel=7 note=40 velocity=85 time=0
EXTRACT: note_on channel=9 note=35 velocity=58 time=0
EXTRACT: note_on channel=9 note=38 velocity=58 time=0
EXTRACT: note_on channel=10 note=72 velocity=0 time=0
EXTRACT: note_on channel=10 note=62 velocity=78 time=0
EXTRACT: note_on channel=10 note=59 velocity=78 time=0
EXTRACT: note_on channel=10 note=69 velocity=78 time=0
EXTRACT: note_on channel=11 note=72 velocity=0 time=0
EXTRACT: note_on channel=11 note=69 velocity=78 time=0
EXTRACT: note_on channel=9 note=38 velocity=0 time=0.005376341666666667
EXTRACT: note_on channel=9 note=35 velocity=0 time=0
EXTRACT: note_on channel=2 note=67 velocity=0 time=0.19892464166666668
EXTRACT: note_on channel=2 note=64 velocity=0 time=0
EXTRACT: note_on channel=2 note=62 velocity=0 time=0
EXTRACT: note_on channel=2 note=59 velocity=0 time=0
EXTRACT: control_change channel=3 control=64 value=127 time=0.021505366666666668
EXTRACT: note_on channel=3 note=55 velocity=0 time=0.010752683333333334
EXTRACT: note_on channel=3 note=50 velocity=0 time=0.06989244166666667
EXTRACT: note_on channel=3 note=59 velocity=0 time=0
EXTRACT: note_on channel=4 note=69 velocity=0 time=0
EXTRACT: note_on channel=4 note=67 velocity=85 time=0
EXTRACT: note_on channel=5 note=69 velocity=0 time=0
EXTRACT: note_on channel=5 note=59 velocity=0 time=0
EXTRACT: note_on channel=5 note=62 velocity=0 time=0
EXTRACT: note_on channel=5 note=67 velocity=82 time=0
EXTRACT: note_on channel=9 note=38 velocity=38 time=0
EXTRACT: note_on channel=10 note=69 velocity=0 time=0
EXTRACT: note_on channel=10 note=59 velocity=0 time=0
EXTRACT: note_on channel=10 note=62 velocity=0 time=0
EXTRACT: note_on channel=10 note=67 velocity=78 time=0
EXTRACT: note_on channel=11 note=69 velocity=0 time=0
EXTRACT: note_on channel=11 note=67 velocity=78 time=0
EXTRACT: note_on channel=9 note=38 velocity=0 time=0.005376341666666667
EXTRACT: note_on channel=2 note=64 velocity=46 time=0.30645147500000003
EXTRACT: note_on channel=2 note=62 velocity=46 time=0
EXTRACT: note_on channel=2 note=59 velocity=46 time=0
EXTRACT: note_on channel=2 note=67 velocity=46 time=0
EXTRACT: note_on channel=4 note=67 velocity=0 time=0
EXTRACT: note_on channel=4 note=64 velocity=85 time=0
EXTRACT: note_on channel=5 note=67 velocity=0 time=0
EXTRACT: note_on channel=5 note=64 velocity=82 time=0
EXTRACT: note_on channel=9 note=38 velocity=48 time=0
EXTRACT: note_on channel=9 note=42 velocity=48 time=0
EXTRACT: note_on channel=10 note=67 velocity=0 time=0
EXTRACT: note_on channel=10 note=64 velocity=78 time=0
EXTRACT: note_on channel=11 note=67 velocity=0 time=0
EXTRACT: note_on channel=11 note=64 velocity=78 time=0
EXTRACT: note_on channel=9 note=42 velocity=0 time=0.005376341666666667
EXTRACT: note_on channel=9 note=38 velocity=0 time=0
EXTRACT: note_on channel=3 note=59 velocity=58 time=0.005376341666666667
EXTRACT: note_on channel=3 note=55 velocity=63 time=0.005376341666666667
EXTRACT: note_on channel=3 note=50 velocity=45 time=0.010752683333333334
EXTRACT: note_on channel=2 note=67 velocity=0 time=0.1935483
EXTRACT: note_on channel=2 note=64 velocity=0 time=0
EXTRACT: note_on channel=2 note=62 velocity=0 time=0
EXTRACT: note_on channel=2 note=59 velocity=0 time=0
EXTRACT: note_on channel=3 note=55 velocity=0 time=0.03225805
EXTRACT: note_on channel=3 note=50 velocity=0 time=0.048387075
EXTRACT: note_on channel=4 note=64 velocity=0 time=0
EXTRACT: note_on channel=4 note=67 velocity=85 time=0
EXTRACT: note_on channel=5 note=64 velocity=0 time=0
EXTRACT: note_on channel=5 note=60 velocity=82 time=0
EXTRACT: note_on channel=5 note=67 velocity=82 time=0
EXTRACT: note_on channel=5 note=64 velocity=82 time=0
EXTRACT: note_on channel=7 note=40 velocity=0 time=0
EXTRACT: note_on channel=7 note=40 velocity=85 time=0
EXTRACT: note_on channel=9 note=38 velocity=58 time=0
EXTRACT: note_on channel=10 note=64 velocity=0 time=0
EXTRACT: note_on channel=10 note=60 velocity=78 time=0
EXTRACT: note_on channel=10 note=67 velocity=78 time=0
EXTRACT: note_on channel=10 note=64 velocity=78 time=0
EXTRACT: note_on channel=11 note=64 velocity=0 time=0
EXTRACT: note_on channel=11 note=67 velocity=78 time=0
EXTRACT: note_on channel=3 note=59 velocity=0 time=0.005376341666666667
EXTRACT: note_on channel=9 note=38 velocity=0 time=0
EXTRACT: note_on channel=3 note=40 velocity=0 time=0.11827951666666667
EXTRACT: note_on channel=1 note=40 velocity=0 time=0.010752683333333334
EXTRACT: note_on channel=1 note=33 velocity=77 time=0.18817195833333333
EXTRACT: control_change channel=3 control=64 value=0 time=0
EXTRACT: note_on channel=3 note=45 velocity=53 time=0
EXTRACT: note_on channel=3 note=60 velocity=45 time=0
EXTRACT: note_on channel=3 note=57 velocity=59 time=0
EXTRACT: note_on channel=3 note=48 velocity=49 time=0
EXTRACT: note_on channel=7 note=40 velocity=0 time=0
EXTRACT: note_on channel=7 note=33 velocity=85 time=0
EXTRACT: note_on channel=9 note=35 velocity=58 time=0
EXTRACT: note_on channel=9 note=38 velocity=50 time=0
EXTRACT: note_on channel=9 note=38 velocity=0 time=0.005376341666666667
EXTRACT: note_on channel=9 note=35 velocity=0 time=0
EXTRACT: control_change channel=3 control=64 value=127 time=0.22043000833333334
EXTRACT: note_on channel=3 note=57 velocity=0 time=0.010752683333333334
EXTRACT: note_on channel=3 note=48 velocity=0 time=0.06989244166666667
EXTRACT: note_on channel=3 note=60 velocity=0 time=0
EXTRACT: note_on channel=4 note=67 velocity=0 time=0.005376341666666667
EXTRACT: note_on channel=11 note=67 velocity=0 time=0
EXTRACT: note_on channel=4 note=64 velocity=85 time=0
EXTRACT: note_on channel=5 note=64 velocity=0 time=0
EXTRACT: note_on channel=5 note=67 velocity=0 time=0
EXTRACT: note_on channel=5 note=60 velocity=0 time=0
EXTRACT: note_on channel=5 note=57 velocity=82 time=0
EXTRACT: note_on channel=5 note=64 velocity=82 time=0
EXTRACT: note_on channel=5 note=60 velocity=82 time=0
EXTRACT: note_on channel=9 note=38 velocity=38 time=0
EXTRACT: note_on channel=10 note=64 velocity=0 time=0
EXTRACT: note_on channel=10 note=67 velocity=0 time=0
EXTRACT: note_on channel=10 note=60 velocity=0 time=0
EXTRACT: note_on channel=10 note=57 velocity=78 time=0
EXTRACT: note_on channel=10 note=64 velocity=78 time=0
EXTRACT: note_on channel=10 note=60 velocity=78 time=0
EXTRACT: note_on channel=11 note=64 velocity=78 time=0
EXTRACT: note_on channel=9 note=38 velocity=0 time=0.005376341666666667
EXTRACT: note_on channel=9 note=38 velocity=58 time=0.3172041583333334
EXTRACT: note_on channel=9 note=42 velocity=48 time=0
EXTRACT: note_on channel=9 note=42 velocity=0 time=0.005376341666666667
EXTRACT: note_on channel=9 note=38 velocity=0 time=0
EXTRACT: note_on channel=3 note=60 velocity=58 time=0.005376341666666667
EXTRACT: note_on channel=3 note=57 velocity=63 time=0.005376341666666667
EXTRACT: note_on channel=3 note=48 velocity=45 time=0.010752683333333334
EXTRACT: note_on channel=3 note=57 velocity=0 time=0.22580635000000002
EXTRACT: note_on channel=3 note=48 velocity=0 time=0.048387075
EXTRACT: note_on channel=1 note=33 velocity=0 time=0.021505366666666668
EXTRACT: note_on channel=1 note=40 velocity=71 time=0
EXTRACT: note_on channel=7 note=33 velocity=0 time=0
EXTRACT: note_on channel=7 note=40 velocity=85 time=0
EXTRACT: note_on channel=9 note=38 velocity=38 time=0
EXTRACT: note_on channel=3 note=60 velocity=0 time=0.005376341666666667
EXTRACT: note_on channel=9 note=38 velocity=0 time=0
EXTRACT: note_on channel=2 note=64 velocity=55 time=0.021505366666666668
EXTRACT: note_on channel=2 note=60 velocity=55 time=0
EXTRACT: note_on channel=2 note=57 velocity=55 time=0
EXTRACT: note_on channel=3 note=45 velocity=0 time=0.09677415
EXTRACT: note_on channel=4 note=64 velocity=0 time=0.021505366666666668
EXTRACT: note_on channel=11 note=64 velocity=0 time=0
EXTRACT: note_on channel=4 note=60 velocity=85 time=0
EXTRACT: note_on channel=5 note=60 velocity=0 time=0
EXTRACT: note_on channel=5 note=64 velocity=0 time=0
EXTRACT: note_on channel=5 note=57 velocity=0 time=0
EXTRACT: note_on channel=5 note=60 velocity=82 time=0
EXTRACT: note_on channel=10 note=60 velocity=0 time=0
EXTRACT: note_on channel=10 note=64 velocity=0 time=0
EXTRACT: note_on channel=10 note=57 velocity=0 time=0
EXTRACT: note_on channel=10 note=60 velocity=78 time=0
EXTRACT: note_on channel=11 note=60 velocity=78 time=0
EXTRACT: note_on channel=1 note=40 velocity=0 time=0.005376341666666667
EXTRACT: note_on channel=1 note=40 velocity=81 time=0
EXTRACT: note_on channel=4 note=60 velocity=0 time=0
EXTRACT: note_on channel=4 note=60 velocity=85 time=0
EXTRACT: note_on channel=5 note=60 velocity=0 time=0
EXTRACT: note_on channel=5 note=60 velocity=82 time=0
EXTRACT: note_on channel=7 note=40 velocity=0 time=0
EXTRACT: note_on channel=7 note=45 velocity=85 time=0
EXTRACT: note_on channel=9 note=35 velocity=58 time=0
EXTRACT: note_on channel=9 note=38 velocity=58 time=0
EXTRACT: note_on channel=10 note=60 velocity=0 time=0
EXTRACT: note_on channel=10 note=60 velocity=78 time=0
EXTRACT: note_on channel=11 note=60 velocity=0 time=0
EXTRACT: note_on channel=11 note=60 velocity=78 time=0
EXTRACT: note_on channel=3 note=40 velocity=55 time=0.005376341666666667
EXTRACT: note_on channel=9 note=38 velocity=0 time=0
EXTRACT: note_on channel=9 note=35 velocity=0 time=0
EXTRACT: control_change channel=3 control=64 value=0 time=0.15053756666666668
EXTRACT: note_on channel=4 note=60 velocity=0 time=0
EXTRACT: note_on channel=4 note=62 velocity=85 time=0
EXTRACT: note_on channel=5 note=60 velocity=0 time=0
EXTRACT: note_on channel=5 note=62 velocity=82 time=0
EXTRACT: note_on channel=9 note=38 velocity=38 time=0
EXTRACT: note_on channel=10 note=60 velocity=0 time=0
EXTRACT: note_on channel=10 note=62 velocity=78 time=0
EXTRACT: note_on channel=11 note=60 velocity=0 time=0
EXTRACT: note_on channel=11 note=62 velocity=78 time=0
EXTRACT: note_on channel=9 note=38 velocity=0 time=0.005376341666666667
EXTRACT: note_on channel=3 note=48 velocity=42 time=0.021505366666666668
EXTRACT: note_on channel=3 note=57 velocity=57 time=0.010752683333333334
EXTRACT: note_on channel=3 note=60 velocity=46 time=0
EXTRACT: note_on channel=1 note=40 velocity=0 time=0.20430098333333335
EXTRACT: note_on channel=1 note=33 velocity=81 time=0
EXTRACT: note_on channel=4 note=62 velocity=0 time=0
EXTRACT: note_on channel=4 note=64 velocity=85 time=0
EXTRACT: note_on channel=5 note=62 velocity=0 time=0
EXTRACT: note_on channel=5 note=64 velocity=82 time=0
EXTRACT: note_on channel=9 note=38 velocity=48 time=0
EXTRACT: note_on channel=9 note=42 velocity=48 time=0
EXTRACT: note_on channel=10 note=62 velocity=0 time=0
EXTRACT: note_on channel=10 note=64 velocity=78 time=0
EXTRACT: note_on channel=11 note=62 velocity=0 time=0
EXTRACT: note_on channel=11 note=64 velocity=78 time=0
EXTRACT: note_on channel=9 note=42 velocity=0 time=0.005376341666666667
EXTRACT: note_on channel=9 note=38 velocity=0 time=0
EXTRACT: note_on channel=4 note=64 velocity=0 time=0
EXTRACT: note_on channel=4 note=65 velocity=85 time=0
EXTRACT: note_on channel=5 note=64 velocity=0 time=0
EXTRACT: note_on channel=5 note=65 velocity=82 time=0
EXTRACT: note_on channel=7 note=45 velocity=0 time=0
EXTRACT: note_on channel=7 note=45 velocity=85 time=0
EXTRACT: note_on channel=9 note=38 velocity=58 time=0
EXTRACT: note_on channel=10 note=64 velocity=0 time=0
EXTRACT: note_on channel=10 note=65 velocity=78 time=0
EXTRACT: note_on channel=11 note=64 velocity=0 time=0
EXTRACT: note_on channel=11 note=65 velocity=78 time=0
EXTRACT: note_on channel=9 note=38 velocity=0 time=0.005376341666666667
EXTRACT: note_on channel=3 note=57 velocity=0 time=0.016129025
EXTRACT: note_on channel=3 note=48 velocity=0 time=0.048387075
EXTRACT: note_on channel=3 note=40 velocity=0 time=0.021505366666666668
EXTRACT: note_on channel=3 note=60 velocity=0 time=0
EXTRACT: note_on channel=1 note=33 velocity=0 time=0.17741927500000002
EXTRACT: note_on channel=1 note=43 velocity=77 time=0
EXTRACT: note_on channel=2 note=57 velocity=0 time=0
EXTRACT: note_on channel=2 note=60 velocity=0 time=0
EXTRACT: note_on channel=2 note=64 velocity=0 time=0
EXTRACT: note_on channel=3 note=60 velocity=62 time=0
EXTRACT: note_on channel=4 note=65 velocity=0 time=0
EXTRACT: note_on channel=4 note=64 velocity=85 time=0
EXTRACT: note_on channel=5 note=65 velocity=0 time=0
EXTRACT: note_on channel=5 note=60 velocity=82 time=0
EXTRACT: note_on channel=5 note=64 velocity=82 time=0
EXTRACT: note_on channel=5 note=55 velocity=82 time=0
EXTRACT: note_on channel=7 note=45 velocity=0 time=0
EXTRACT: note_on channel=7 note=31 velocity=85 time=0
EXTRACT: note_on channel=7 note=43 velocity=85 time=0
EXTRACT: note_on channel=9 note=35 velocity=58 time=0
EXTRACT: note_on channel=9 note=38 velocity=50 time=0
EXTRACT: note_on channel=10 note=65 velocity=0 time=0
EXTRACT: note_on channel=10 note=60 velocity=78 time=0
EXTRACT: note_on channel=10 note=64 velocity=78 time=0
EXTRACT: note_on channel=10 note=55 velocity=78 time=0
EXTRACT: note_on channel=11 note=65 velocity=0 time=0
EXTRACT: note_on channel=11 note=64 velocity=78 time=0
EXTRACT: note_on channel=9 note=38 velocity=0 time=0.005376341666666667
EXTRACT: note_on channel=9 note=35 velocity=0 time=0
EXTRACT: note_on channel=2 note=65 velocity=63 time=0.005376341666666667
EXTRACT: note_on channel=2 note=62 velocity=63 time=0
EXTRACT: note_on channel=2 note=60 velocity=63 time=0
EXTRACT: note_on channel=2 note=69 velocity=63 time=0
EXTRACT: note_on channel=3 note=53 velocity=56 time=0
EXTRACT: note_on channel=3 note=64 velocity=50 time=0
EXTRACT: note_on channel=3 note=43 velocity=40 time=0
EXTRACT: note_on channel=2 note=69 velocity=0 time=0.20430098333333335
EXTRACT: note_on channel=2 note=65 velocity=0 time=0
EXTRACT: note_on channel=2 note=62 velocity=0 time=0
EXTRACT: note_on channel=2 note=60 velocity=0 time=0
EXTRACT: control_change channel=3 control=64 value=127 time=0.021505366666666668
EXTRACT: note_on channel=4 note=64 velocity=0 time=0
EXTRACT: note_on channel=4 note=64 velocity=85 time=0
EXTRACT: note_on channel=5 note=55 velocity=0 time=0
EXTRACT: note_on channel=5 note=64 velocity=0 time=0
EXTRACT: note_on channel=5 note=60 velocity=0 time=0
EXTRACT: note_on channel=5 note=64 velocity=82 time=0
EXTRACT: note_on channel=9 note=38 velocity=38 time=0
EXTRACT: note_on channel=10 note=55 velocity=0 time=0
EXTRACT: note_on channel=10 note=64 velocity=0 time=0
EXTRACT: note_on channel=10 note=60 velocity=0 time=0
EXTRACT: note_on channel=10 note=64 velocity=78 time=0
EXTRACT: note_on channel=11 note=64 velocity=0 time=0
EXTRACT: note_on channel=11 note=64 velocity=78 time=0
EXTRACT: note_on channel=9 note=38 velocity=0 time=0.005376341666666667
EXTRACT: note_on channel=3 note=53 velocity=0 time=0.03225805
EXTRACT: note_on channel=3 note=60 velocity=0 time=0
EXTRACT: note_on channel=3 note=64 velocity=0 time=0.10215049166666668
EXTRACT: note_on channel=4 note=64 velocity=0 time=0
EXTRACT: note_on channel=4 note=64 velocity=85 time=0
EXTRACT: note_on channel=5 note=64 velocity=0 time=0
EXTRACT: note_on channel=5 note=64 velocity=82 time=0
EXTRACT: note_on channel=10 note=64 velocity=0 time=0
EXTRACT: note_on channel=10 note=64 velocity=78 time=0
EXTRACT: note_on channel=11 note=64 velocity=0 time=0
EXTRACT: note_on channel=11 note=64 velocity=78 time=0
EXTRACT: note_on channel=2 note=65 velocity=46 time=0.15053756666666668
EXTRACT: note_on channel=2 note=62 velocity=46 time=0
EXTRACT: note_on channel=2 note=60 velocity=46 time=0
EXTRACT: note_on channel=2 note=69 velocity=46 time=0
EXTRACT: note_on channel=4 note=64 velocity=0 time=0
EXTRACT: note_on channel=4 note=64 velocity=85 time=0
EXTRACT: note_on channel=5 note=64 velocity=0 time=0
EXTRACT: note_on channel=5 note=64 velocity=82 time=0
EXTRACT: note_on channel=9 note=38 velocity=58 time=0
EXTRACT: note_on channel=9 note=42 velocity=48 time=0
EXTRACT: note_on channel=10 note=64 velocity=0 time=0
EXTRACT: note_on channel=10 note=64 velocity=78 time=0
EXTRACT: note_on channel=11 note=64 velocity=0 time=0
EXTRACT: note_on channel=11 note=64 velocity=78 time=0
EXTRACT: note_on channel=9 note=42 velocity=0 time=0.005376341666666667
EXTRACT: note_on channel=9 note=38 velocity=0 time=0
EXTRACT: note_on channel=2 note=69 velocity=0 time=0.21505366666666667
EXTRACT: note_on channel=2 note=65 velocity=0 time=0
EXTRACT: note_on channel=2 note=62 velocity=0 time=0
EXTRACT: note_on channel=2 note=60 velocity=0 time=0
EXTRACT: note_on channel=1 note=43 velocity=0 time=0.021505366666666668
EXTRACT: note_on channel=1 note=43 velocity=83 time=0
EXTRACT: note_on channel=4 note=64 velocity=0 time=0
EXTRACT: note_on channel=4 note=65 velocity=85 time=0
EXTRACT: note_on channel=5 note=64 velocity=0 time=0
EXTRACT: note_on channel=5 note=65 velocity=82 time=0
EXTRACT: note_on channel=9 note=38 velocity=38 time=0
EXTRACT: note_on channel=10 note=64 velocity=0 time=0
EXTRACT: note_on channel=10 note=65 velocity=78 time=0
EXTRACT: note_on channel=11 note=64 velocity=0 time=0
EXTRACT: note_on channel=11 note=65 velocity=78 time=0
EXTRACT: note_on channel=3 note=53 velocity=54 time=0.005376341666666667
EXTRACT: note_on channel=3 note=60 velocity=70 time=0
EXTRACT: note_on channel=9 note=38 velocity=0 time=0
EXTRACT: note_on channel=3 note=64 velocity=57 time=0.021505366666666668
EXTRACT: note_on channel=3 note=43 velocity=0 time=0.22580635000000002
EXTRACT: note_on channel=1 note=38 velocity=74 time=0
EXTRACT: note_on channel=4 note=65 velocity=0 time=0
EXTRACT: note_on channel=4 note=64 velocity=85 time=0
EXTRACT: note_on channel=5 note=65 velocity=0 time=0
EXTRACT: note_on channel=5 note=64 velocity=82 time=0
EXTRACT: note_on channel=9 note=35 velocity=58 time=0
EXTRACT: note_on channel=9 note=38 velocity=58 time=0
EXTRACT: note_on channel=10 note=65 velocity=0 time=0
EXTRACT: note_on channel=10 note=64 velocity=78 time=0
EXTRACT: note_on channel=11 note=65 velocity=0 time=0
EXTRACT: note_on channel=11 note=64 velocity=78 time=0
EXTRACT: note_on channel=3 note=38 velocity=47 time=0.005376341666666667
EXTRACT: note_on channel=9 note=38 velocity=0 time=0
EXTRACT: note_on channel=9 note=35 velocity=0 time=0
EXTRACT: note_on channel=3 note=60 velocity=0 time=0.005376341666666667
EXTRACT: note_on channel=1 note=43 velocity=0 time=0.026881708333333334
EXTRACT: note_on channel=3 note=53 velocity=0 time=0.005376341666666667
EXTRACT: note_on channel=3 note=64 velocity=0 time=0.10752683333333334
EXTRACT: note_on channel=4 note=64 velocity=0 time=0
EXTRACT: note_on channel=4 note=62 velocity=85 time=0
EXTRACT: note_on channel=5 note=64 velocity=0 time=0
EXTRACT: note_on channel=5 note=62 velocity=82 time=0
EXTRACT: note_on channel=9 note=38 velocity=38 time=0
EXTRACT: note_on channel=10 note=64 velocity=0 time=0
EXTRACT: note_on channel=10 note=62 velocity=78 time=0
EXTRACT: note_on channel=11 note=64 velocity=0 time=0
EXTRACT: note_on channel=11 note=62 velocity=78 time=0
EXTRACT: note_on channel=9 note=38 velocity=0 time=0.005376341666666667
EXTRACT: note_on channel=2 note=65 velocity=58 time=0.043010733333333336
EXTRACT: note_on channel=2 note=62 velocity=58 time=0
EXTRACT: note_on channel=2 note=60 velocity=58 time=0
EXTRACT: note_on channel=2 note=69 velocity=58 time=0
EXTRACT: note_on channel=2 note=69 velocity=0 time=0.24731171666666668
EXTRACT: note_on channel=2 note=65 velocity=0 time=0
EXTRACT: note_on channel=2 note=62 velocity=0 time=0
EXTRACT: note_on channel=2 note=60 velocity=0 time=0
EXTRACT: note_on channel=4 note=62 velocity=0 time=0
EXTRACT: note_on channel=4 note=60 velocity=85 time=0
EXTRACT: note_on channel=5 note=62 velocity=0 time=0
EXTRACT: note_on channel=5 note=60 velocity=82 time=0
EXTRACT: note_on channel=9 note=38 velocity=48 time=0
EXTRACT: note_on channel=9 note=42 velocity=48 time=0
EXTRACT: note_on channel=10 note=62 velocity=0 time=0
EXTRACT: note_on channel=10 note=60 velocity=78 time=0
EXTRACT: note_on channel=11 note=62 velocity=0 time=0
EXTRACT: note_on channel=11 note=60 velocity=78 time=0
EXTRACT: note_on channel=9 note=42 velocity=0 time=0.005376341666666667
EXTRACT: note_on channel=9 note=38 velocity=0 time=0
EXTRACT: note_on channel=3 note=53 velocity=30 time=0.005376341666666667
EXTRACT: note_on channel=3 note=60 velocity=54 time=0.005376341666666667
EXTRACT: note_on channel=3 note=64 velocity=59 time=0.005376341666666667
EXTRACT: note_on channel=1 note=38 velocity=0 time=0.021505366666666668
EXTRACT: note_on channel=3 note=38 velocity=0 time=0.15053756666666668
EXTRACT: note_on channel=1 note=38 velocity=76 time=0
EXTRACT: note_on channel=4 note=60 velocity=0 time=0
EXTRACT: note_on channel=4 note=60 velocity=85 time=0
EXTRACT: note_on channel=5 note=60 velocity=0 time=0
EXTRACT: note_on channel=5 note=60 velocity=82 time=0
EXTRACT: note_on channel=9 note=38 velocity=58 time=0
EXTRACT: note_on channel=10 note=60 velocity=0 time=0
EXTRACT: note_on channel=10 note=60 velocity=78 time=0
EXTRACT: note_on channel=11 note=60 velocity=0 time=0
EXTRACT: note_on channel=11 note=60 velocity=78 time=0
EXTRACT: note_on channel=9 note=38 velocity=0 time=0.005376341666666667
EXTRACT: note_on channel=3 note=60 velocity=0 time=0.1827956166666667
EXTRACT: note_on channel=3 note=53 velocity=0 time=0.010752683333333334
EXTRACT: note_on channel=3 note=64 velocity=0 time=0.10215049166666668
EXTRACT: note_on channel=1 note=43 velocity=75 time=0
EXTRACT: note_on channel=4 note=60 velocity=0 time=0
EXTRACT: note_on channel=4 note=62 velocity=85 time=0
EXTRACT: note_on channel=5 note=60 velocity=0 time=0
EXTRACT: note_on channel=5 note=53 velocity=82 time=0
EXTRACT: note_on channel=5 note=62 velocity=82 time=0
EXTRACT: note_on channel=5 note=57 velocity=82 time=0
EXTRACT: note_on channel=5 note=60 velocity=82 time=0
EXTRACT: note_on channel=7 note=43 velocity=0 time=0
EXTRACT: note_on channel=7 note=31 velocity=0 time=0
EXTRACT: note_on channel=7 note=31 velocity=85 time=0
EXTRACT: note_on channel=9 note=35 velocity=58 time=0
EXTRACT: note_on channel=9 note=38 velocity=50 time=0
EXTRACT: note_on channel=10 note=60 velocity=0 time=0
EXTRACT: note_on channel=10 note=53 velocity=78 time=0
EXTRACT: note_on channel=10 note=62 velocity=78 time=0
EXTRACT: note_on channel=10 note=57 velocity=78 time=0
EXTRACT: note_on channel=10 note=60 velocity=78 time=0
EXTRACT: note_on channel=11 note=60 velocity=0 time=0
EXTRACT: note_on channel=11 note=62 velocity=78 time=0
EXTRACT: note_on channel=9 note=38 velocity=0 time=0.005376341666666667
EXTRACT: note_on channel=9 note=35 velocity=0 time=0
EXTRACT: note_on channel=2 note=65 velocity=53 time=0.021505366666666668
EXTRACT: note_on channel=2 note=62 velocity=53 time=0
EXTRACT: note_on channel=2 note=60 velocity=53 time=0
EXTRACT: note_on channel=2 note=69 velocity=53 time=0
EXTRACT: note_on channel=3 note=43 velocity=49 time=0.03763439166666667
EXTRACT: note_on channel=1 note=38 velocity=0 time=0.005376341666666667
EXTRACT: note_on channel=4 note=62 velocity=0 time=0.25268805833333335
EXTRACT: note_on channel=4 note=62 velocity=85 time=0
EXTRACT: note_on channel=5 note=60 velocity=0 time=0
EXTRACT: note_on channel=5 note=53 velocity=0 time=0
EXTRACT: note_on channel=5 note=62 velocity=0 time=0
EXTRACT: note_on channel=5 note=57 velocity=0 time=0
EXTRACT: note_on channel=5 note=57 velocity=82 time=0
EXTRACT: note_on channel=5 note=53 velocity=82 time=0
EXTRACT: note_on channel=5 note=60 velocity=82 time=0
EXTRACT: note_on channel=5 note=62 velocity=82 time=0
EXTRACT: note_on channel=9 note=38 velocity=38 time=0
EXTRACT: note_on channel=10 note=60 velocity=0 time=0
EXTRACT: note_on channel=10 note=53 velocity=0 time=0
EXTRACT: note_on channel=10 note=62 velocity=0 time=0
EXTRACT: note_on channel=10 note=57 velocity=0 time=0
EXTRACT: note_on channel=10 note=57 velocity=78 time=0
EXTRACT: note_on channel=10 note=53 velocity=78 time=0
EXTRACT: note_on channel=10 note=60 velocity=78 time=0
EXTRACT: note_on channel=10 note=62 velocity=78 time=0
EXTRACT: note_on channel=11 note=62 velocity=0 time=0
EXTRACT: note_on channel=11 note=62 velocity=78 time=0
EXTRACT: note_on channel=9 note=38 velocity=0 time=0.005376341666666667
EXTRACT: control_change channel=3 control=64 value=0 time=0.005376341666666667
EXTRACT: note_on channel=9 note=38 velocity=58 time=0.3118278166666667
EXTRACT: note_on channel=9 note=42 velocity=48 time=0
EXTRACT: note_on channel=9 note=42 velocity=0 time=0.005376341666666667
EXTRACT: note_on channel=9 note=38 velocity=0 time=0
EXTRACT: note_on channel=3 note=53 velocity=42 time=0.005376341666666667
EXTRACT: note_on channel=3 note=60 velocity=54 time=0.016129025
EXTRACT: note_on channel=3 note=64 velocity=52 time=0
EXTRACT: note_on channel=2 note=69 velocity=0 time=0.021505366666666668
EXTRACT: note_on channel=2 note=65 velocity=0 time=0
EXTRACT: note_on channel=2 note=62 velocity=0 time=0
EXTRACT: note_on channel=2 note=60 velocity=0 time=0
EXTRACT: note_on channel=1 note=43 velocity=0 time=0.08602146666666667
EXTRACT: control_change channel=3 control=64 value=127 time=0.07526878333333334
EXTRACT: note_on channel=3 note=53 velocity=0 time=0.09139780833333334
EXTRACT: note_on channel=3 note=60 velocity=0 time=0.010752683333333334
EXTRACT: note_on channel=1 note=43 velocity=80 time=0.010752683333333334
EXTRACT: note_on channel=7 note=31 velocity=0 time=0
EXTRACT: note_on channel=7 note=38 velocity=85 time=0
EXTRACT: note_on channel=9 note=38 velocity=38 time=0
EXTRACT: note_on channel=9 note=38 velocity=0 time=0.005376341666666667
EXTRACT: note_on channel=2 note=65 velocity=59 time=0.03763439166666667
EXTRACT: note_on channel=2 note=62 velocity=59 time=0
EXTRACT: note_on channel=2 note=60 velocity=59 time=0
EXTRACT: note_on channel=2 note=69 velocity=59 time=0
EXTRACT: note_on channel=3 note=64 velocity=0 time=0.010752683333333334
EXTRACT: note_on channel=7 note=38 velocity=0 time=0.10752683333333334
EXTRACT: note_on channel=7 note=38 velocity=85 time=0
EXTRACT: note_on channel=3 note=43 velocity=0 time=0.05376341666666667
EXTRACT: note_on channel=1 note=38 velocity=74 time=0.10752683333333334
EXTRACT: note_on channel=9 note=35 velocity=58 time=0
EXTRACT: note_on channel=9 note=38 velocity=58 time=0
EXTRACT: note_on channel=3 note=38 velocity=52 time=0.005376341666666667
EXTRACT: note_on channel=9 note=38 velocity=0 time=0
EXTRACT: note_on channel=9 note=35 velocity=0 time=0
EXTRACT: note_on channel=1 note=43 velocity=0 time=0.016129025
EXTRACT: note_on channel=7 note=38 velocity=0 time=0.30107513333333336
EXTRACT: note_on channel=7 note=43 velocity=85 time=0
EXTRACT: note_on channel=9 note=38 velocity=38 time=0
EXTRACT: note_on channel=9 note=38 velocity=0 time=0.005376341666666667
EXTRACT: note_on channel=3 note=64 velocity=61 time=0.021505366666666668
EXTRACT: note_on channel=3 note=53 velocity=42 time=0.021505366666666668
EXTRACT: note_on channel=3 note=60 velocity=57 time=0
EXTRACT: note_on channel=7 note=43 velocity=0 time=0.11290317500000001
EXTRACT: note_on channel=7 note=43 velocity=85 time=0
EXTRACT: note_on channel=1 note=38 velocity=0 time=0.16129025
EXTRACT: note_on channel=1 note=43 velocity=83 time=0
EXTRACT: note_on channel=9 note=38 velocity=48 time=0
EXTRACT: note_on channel=9 note=42 velocity=48 time=0
EXTRACT: note_on channel=9 note=42 velocity=0 time=0.005376341666666667
EXTRACT: note_on channel=9 note=38 velocity=0 time=0
EXTRACT: note_on channel=3 note=60 velocity=0 time=0.005376341666666667
EXTRACT: note_on channel=3 note=53 velocity=0 time=0.010752683333333334
EXTRACT: note_on channel=3 note=64 velocity=0 time=0.021505366666666668
EXTRACT: note_on channel=3 note=38 velocity=0 time=0.07526878333333334
EXTRACT: note_on channel=2 note=69 velocity=0 time=0.17741927500000002
EXTRACT: note_on channel=2 note=65 velocity=0 time=0
EXTRACT: note_on channel=2 note=62 velocity=0 time=0
EXTRACT: note_on channel=2 note=60 velocity=0 time=0
EXTRACT: note_on channel=7 note=43 velocity=0 time=0.026881708333333334
EXTRACT: note_on channel=7 note=38 velocity=85 time=0
EXTRACT: note_on channel=9 note=38 velocity=58 time=0
EXTRACT: note_on channel=9 note=38 velocity=0 time=0.005376341666666667
EXTRACT: note_on channel=4 note=62 velocity=0 time=0.22580635000000002
EXTRACT: note_on channel=11 note=62 velocity=0 time=0
EXTRACT: note_on channel=1 note=43 velocity=0 time=0.03225805
EXTRACT: note_on channel=1 note=43 velocity=87 time=0
EXTRACT: control_change channel=3 control=64 value=0 time=0
EXTRACT: note_on channel=4 note=65 velocity=85 time=0
EXTRACT: note_on channel=5 note=62 velocity=0 time=0
EXTRACT: note_on channel=5 note=57 velocity=0 time=0
EXTRACT: note_on channel=5 note=53 velocity=0 time=0
EXTRACT: note_on channel=5 note=60 velocity=0 time=0
EXTRACT: note_on channel=5 note=65 velocity=82 time=0
EXTRACT: note_on channel=5 note=57 velocity=82 time=0
EXTRACT: note_on channel=5 note=60 velocity=82 time=0
EXTRACT: note_on channel=5 note=62 velocity=82 time=0
EXTRACT: note_on channel=7 note=38 velocity=0 time=0
EXTRACT: note_on channel=7 note=31 velocity=85 time=0
EXTRACT: note_on channel=7 note=43 velocity=85 time=0
EXTRACT: note_on channel=9 note=35 velocity=58 time=0
EXTRACT: note_on channel=9 note=38 velocity=50 time=0
EXTRACT: note_on channel=10 note=62 velocity=0 time=0
EXTRACT: note_on channel=10 note=57 velocity=0 time=0
EXTRACT: note_on channel=10 note=53 velocity=0 time=0
EXTRACT: note_on channel=10 note=60 velocity=0 time=0
EXTRACT: note_on channel=10 note=65 velocity=78 time=0
EXTRACT: note_on channel=10 note=57 velocity=78 time=0
EXTRACT: note_on channel=10 note=60 velocity=78 time=0
EXTRACT: note_on channel=10 note=62 velocity=78 time=0
EXTRACT: note_on channel=11 note=65 velocity=78 time=0
EXTRACT: note_on channel=3 note=53 velocity=47 time=0.005376341666666667
EXTRACT: note_on channel=9 note=38 velocity=0 time=0
EXTRACT: note_on channel=9 note=35 velocity=0 time=0
EXTRACT: note_on channel=2 note=65 velocity=55 time=0.005376341666666667
EXTRACT: note_on channel=2 note=62 velocity=55 time=0
EXTRACT: note_on channel=2 note=60 velocity=55 time=0
EXTRACT: note_on channel=2 note=69 velocity=55 time=0
EXTRACT: note_on channel=3 note=60 velocity=59 time=0
EXTRACT: note_on channel=3 note=62 velocity=42 time=0.005376341666666667
EXTRACT: control_change channel=3 control=64 value=127 time=0.1827956166666667
EXTRACT: note_on channel=3 note=60 velocity=0 time=0.11290317500000001
EXTRACT: note_on channel=4 note=65 velocity=0 time=0
EXTRACT: note_on channel=4 note=65 velocity=85 time=0
EXTRACT: note_on channel=5 note=62 velocity=0 time=0
EXTRACT: note_on channel=5 note=65 velocity=0 time=0
EXTRACT: note_on channel=5 note=57 velocity=0 time=0
EXTRACT: note_on channel=5 note=60 velocity=0 time=0
EXTRACT: note_on channel=5 note=65 velocity=82 time=0
EXTRACT: note_on channel=9 note=38 velocity=38 time=0
EXTRACT: note_on channel=10 note=62 velocity=0 time=0
EXTRACT: note_on channel=10 note=65 velocity=0 time=0
EXTRACT: note_on channel=10 note=57 velocity=0 time=0
EXTRACT: note_on channel=10 note=60 velocity=0 time=0
EXTRACT: note_on channel=10 note=65 velocity=78 time=0
EXTRACT: note_on channel=11 note=65 velocity=0 time=0
EXTRACT: note_on channel=11 note=65 velocity=78 time=0
EXTRACT: note_on channel=9 note=38 velocity=0 time=0.005376341666666667
EXTRACT: note_on channel=3 note=53 velocity=0 time=0.043010733333333336
EXTRACT: note_on channel=3 note=62 velocity=0 time=0.048387075
EXTRACT: note_on channel=4 note=65 velocity=0 time=0
EXTRACT: note_on channel=4 note=65 velocity=85 time=0
EXTRACT: note_on channel=5 note=65 velocity=0 time=0
EXTRACT: note_on channel=5 note=65 velocity=82 time=0
EXTRACT: note_on channel=10 note=65 velocity=0 time=0
EXTRACT: note_on channel=10 note=65 velocity=78 time=0
EXTRACT: note_on channel=11 note=65 velocity=0 time=0
EXTRACT: note_on channel=11 note=65 velocity=78 time=0
EXTRACT: note_on channel=4 note=65 velocity=0 time=0
EXTRACT: note_on channel=4 note=65 velocity=85 time=0
EXTRACT: note_on channel=5 note=65 velocity=0 time=0
EXTRACT: note_on channel=5 note=65 velocity=82 time=0
EXTRACT: note_on channel=9 note=38 velocity=58 time=0
EXTRACT: note_on channel=9 note=42 velocity=48 time=0
EXTRACT: note_on channel=10 note=65 velocity=0 time=0
EXTRACT: note_on channel=10 note=65 velocity=78 time=0
EXTRACT: note_on channel=11 note=65 velocity=0 time=0
EXTRACT: note_on channel=11 note=65 velocity=78 time=0
EXTRACT: note_on channel=9 note=42 velocity=0 time=0.005376341666666667
EXTRACT: note_on channel=9 note=38 velocity=0 time=0
EXTRACT: note_on channel=4 note=65 velocity=0 time=0
EXTRACT: note_on channel=4 note=67 velocity=85 time=0
EXTRACT: note_on channel=5 note=65 velocity=0 time=0
EXTRACT: note_on channel=5 note=67 velocity=82 time=0
EXTRACT: note_on channel=9 note=38 velocity=38 time=0
EXTRACT: note_on channel=10 note=65 velocity=0 time=0
EXTRACT: note_on channel=10 note=67 velocity=78 time=0
EXTRACT: note_on channel=11 note=65 velocity=0 time=0
EXTRACT: note_on channel=11 note=67 velocity=78 time=0
EXTRACT: note_on channel=9 note=38 velocity=0 time=0.005376341666666667
EXTRACT: note_on channel=3 note=62 velocity=52 time=0.03225805
EXTRACT: note_on channel=3 note=60 velocity=59 time=0.021505366666666668
EXTRACT: note_on channel=3 note=53 velocity=40 time=0.010752683333333334
EXTRACT: note_on channel=3 note=60 velocity=0 time=0.22580635000000002
EXTRACT: note_on channel=1 note=38 velocity=79 time=0
EXTRACT: note_on channel=4 note=67 velocity=0 time=0
EXTRACT: note_on channel=4 note=65 velocity=85 time=0
EXTRACT: note_on channel=5 note=67 velocity=0 time=0
EXTRACT: note_on channel=5 note=65 velocity=82 time=0
EXTRACT: note_on channel=9 note=35 velocity=58 time=0
EXTRACT: note_on channel=9 note=38 velocity=58 time=0
EXTRACT: note_on channel=10 note=67 velocity=0 time=0
EXTRACT: note_on channel=10 note=65 velocity=78 time=0
EXTRACT: note_on channel=11 note=67 velocity=0 time=0
EXTRACT: note_on channel=11 note=65 velocity=78 time=0
EXTRACT: note_on channel=9 note=38 velocity=0 time=0.005376341666666667
EXTRACT: note_on channel=9 note=35 velocity=0 time=0
EXTRACT: note_on channel=3 note=62 velocity=0 time=0.021505366666666668
EXTRACT: note_on channel=3 note=53 velocity=0 time=0.021505366666666668
EXTRACT: note_on channel=1 note=43 velocity=0 time=0.11290317500000001
EXTRACT: note_on channel=4 note=65 velocity=0 time=0
EXTRACT: note_on channel=4 note=64 velocity=85 time=0
EXTRACT: note_on channel=5 note=65 velocity=0 time=0
EXTRACT: note_on channel=5 note=64 velocity=82 time=0
EXTRACT: note_on channel=9 note=38 velocity=38 time=0
EXTRACT: note_on channel=10 note=65 velocity=0 time=0
EXTRACT: note_on channel=10 note=64 velocity=78 time=0
EXTRACT: note_on channel=11 note=65 velocity=0 time=0
EXTRACT: note_on channel=11 note=64 velocity=78 time=0
EXTRACT: note_on channel=9 note=38 velocity=0 time=0.005376341666666667
EXTRACT: note_on channel=4 note=64 velocity=0 time=0
EXTRACT: note_on channel=4 note=62 velocity=85 time=0
EXTRACT: note_on channel=5 note=64 velocity=0 time=0
EXTRACT: note_on channel=5 note=62 velocity=82 time=0
EXTRACT: note_on channel=9 note=38 velocity=48 time=0
EXTRACT: note_on channel=9 note=42 velocity=48 time=0
EXTRACT: note_on channel=10 note=64 velocity=0 time=0
EXTRACT: note_on channel=10 note=62 velocity=78 time=0
EXTRACT: note_on channel=11 note=64 velocity=0 time=0
EXTRACT: note_on channel=11 note=62 velocity=78 time=0
EXTRACT: note_on channel=3 note=53 velocity=55 time=0.005376341666666667
EXTRACT: note_on channel=3 note=60 velocity=55 time=0
EXTRACT: note_on channel=3 note=62 velocity=61 time=0
EXTRACT: note_on channel=9 note=42 velocity=0 time=0
EXTRACT: note_on channel=9 note=38 velocity=0 time=0
EXTRACT: note_on channel=3 note=60 velocity=0 time=0.19892464166666668
EXTRACT: note_on channel=3 note=53 velocity=0 time=0.06989244166666667
EXTRACT: note_on channel=3 note=62 velocity=0 time=0.010752683333333334
EXTRACT: note_on channel=4 note=62 velocity=0 time=0
EXTRACT: note_on channel=4 note=64 velocity=85 time=0
EXTRACT: note_on channel=5 note=62 velocity=0 time=0
EXTRACT: note_on channel=5 note=64 velocity=82 time=0
EXTRACT: note_on channel=9 note=38 velocity=58 time=0
EXTRACT: note_on channel=10 note=62 velocity=0 time=0
EXTRACT: note_on channel=10 note=64 velocity=78 time=0
EXTRACT: note_on channel=11 note=62 velocity=0 time=0
EXTRACT: note_on channel=11 note=64 velocity=78 time=0
EXTRACT: note_on channel=9 note=38 velocity=0 time=0.005376341666666667
EXTRACT: note_on channel=1 note=43 velocity=74 time=0
EXTRACT: note_on channel=4 note=64 velocity=0 time=0
EXTRACT: note_on channel=4 note=65 velocity=85 time=0
EXTRACT: note_on channel=5 note=64 velocity=0 time=0
EXTRACT: note_on channel=5 note=60 velocity=82 time=0
EXTRACT: note_on channel=5 note=57 velocity=82 time=0
EXTRACT: note_on channel=5 note=62 velocity=82 time=0
EXTRACT: note_on channel=5 note=65 velocity=82 time=0
EXTRACT: note_on channel=7 note=43 velocity=0 time=0
EXTRACT: note_on channel=7 note=31 velocity=0 time=0
EXTRACT: note_on channel=7 note=31 velocity=85 time=0
EXTRACT: note_on channel=9 note=35 velocity=58 time=0
EXTRACT: note_on channel=9 note=38 velocity=50 time=0
EXTRACT: note_on channel=10 note=64 velocity=0 time=0
EXTRACT: note_on channel=10 note=60 velocity=78 time=0
EXTRACT: note_on channel=10 note=57 velocity=78 time=0
EXTRACT: note_on channel=10 note=62 velocity=78 time=0
EXTRACT: note_on channel=10 note=65 velocity=78 time=0
EXTRACT: note_on channel=11 note=64 velocity=0 time=0
EXTRACT: note_on channel=11 note=65 velocity=78 time=0
EXTRACT: note_on channel=1 note=38 velocity=0 time=0.005376341666666667
EXTRACT: note_on channel=9 note=38 velocity=0 time=0
EXTRACT: note_on channel=9 note=35 velocity=0 time=0
EXTRACT: note_on channel=4 note=65 velocity=0 time=0
EXTRACT: note_on channel=4 note=65 velocity=85 time=0
EXTRACT: note_on channel=5 note=65 velocity=0 time=0
EXTRACT: note_on channel=5 note=60 velocity=0 time=0
EXTRACT: note_on channel=5 note=57 velocity=0 time=0
EXTRACT: note_on channel=5 note=62 velocity=0 time=0
EXTRACT: note_on channel=5 note=57 velocity=82 time=0
EXTRACT: note_on channel=5 note=65 velocity=82 time=0
EXTRACT: note_on channel=5 note=60 velocity=82 time=0
EXTRACT: note_on channel=5 note=62 velocity=82 time=0
EXTRACT: note_on channel=9 note=38 velocity=38 time=0
EXTRACT: note_on channel=10 note=65 velocity=0 time=0
EXTRACT: note_on channel=10 note=60 velocity=0 time=0
EXTRACT: note_on channel=10 note=57 velocity=0 time=0
EXTRACT: note_on channel=10 note=62 velocity=0 time=0
EXTRACT: note_on channel=10 note=57 velocity=78 time=0
EXTRACT: note_on channel=10 note=65 velocity=78 time=0
EXTRACT: note_on channel=10 note=60 velocity=78 time=0
EXTRACT: note_on channel=10 note=62 velocity=78 time=0
EXTRACT: note_on channel=11 note=65 velocity=0 time=0
EXTRACT: note_on channel=11 note=65 velocity=78 time=0
EXTRACT: note_on channel=9 note=38 velocity=0 time=0.005376341666666667
EXTRACT: note_on channel=9 note=38 velocity=58 time=0.3172041583333334
EXTRACT: note_on channel=9 note=42 velocity=48 time=0
EXTRACT: note_on channel=3 note=62 velocity=51 time=0.005376341666666667
EXTRACT: note_on channel=9 note=42 velocity=0 time=0
EXTRACT: note_on channel=9 note=38 velocity=0 time=0
EXTRACT: note_on channel=3 note=53 velocity=48 time=0.005376341666666667
EXTRACT: note_on channel=3 note=60 velocity=59 time=0
EXTRACT: note_on channel=3 note=60 velocity=0 time=0.22580635000000002
EXTRACT: note_on channel=3 note=62 velocity=0 time=0.03763439166666667
EXTRACT: note_on channel=3 note=53 velocity=0 time=0.026881708333333334
EXTRACT: note_on channel=7 note=31 velocity=0 time=0.021505366666666668
EXTRACT: note_on channel=7 note=38 velocity=85 time=0
EXTRACT: note_on channel=9 note=38 velocity=38 time=0
EXTRACT: note_on channel=9 note=38 velocity=0 time=0.005376341666666667
EXTRACT: note_on channel=7 note=38 velocity=0 time=0.15591390833333335
EXTRACT: note_on channel=7 note=38 velocity=85 time=0
EXTRACT: note_on channel=1 note=38 velocity=70 time=0.16129025
EXTRACT: note_on channel=9 note=35 velocity=58 time=0
EXTRACT: note_on channel=9 note=38 velocity=58 time=0
EXTRACT: note_on channel=9 note=38 velocity=0 time=0.005376341666666667
EXTRACT: note_on channel=9 note=35 velocity=0 time=0
EXTRACT: note_on channel=1 note=43 velocity=0 time=0.08602146666666667
EXTRACT: note_on channel=7 note=38 velocity=0 time=0.2311826916666667
EXTRACT: note_on channel=7 note=43 velocity=85 time=0
EXTRACT: note_on channel=9 note=38 velocity=38 time=0
EXTRACT: note_on channel=3 note=62 velocity=45 time=0.005376341666666667
EXTRACT: note_on channel=9 note=38 velocity=0 time=0
EXTRACT: note_on channel=3 note=60 velocity=60 time=0.021505366666666668
EXTRACT: note_on channel=3 note=53 velocity=49 time=0.010752683333333334
EXTRACT: note_on channel=7 note=43 velocity=0 time=0.12365585833333334
EXTRACT: note_on channel=7 note=43 velocity=85 time=0
EXTRACT: note_on channel=3 note=60 velocity=0 time=0.043010733333333336
EXTRACT: note_on channel=3 note=53 velocity=0 time=0.043010733333333336
EXTRACT: note_on channel=3 note=62 velocity=0 time=0
EXTRACT: note_on channel=9 note=38 velocity=48 time=0.07526878333333334
EXTRACT: note_on channel=9 note=42 velocity=48 time=0
EXTRACT: note_on channel=9 note=42 velocity=0 time=0.005376341666666667
EXTRACT: note_on channel=9 note=38 velocity=0 time=0
EXTRACT: control_change channel=3 control=64 value=0 time=0.24731171666666668
EXTRACT: note_on channel=7 note=43 velocity=0 time=0.06989244166666667
EXTRACT: note_on channel=7 note=38 velocity=85 time=0
EXTRACT: note_on channel=9 note=38 velocity=58 time=0
EXTRACT: note_on channel=9 note=38 velocity=0 time=0.005376341666666667
EXTRACT: note_on channel=1 note=38 velocity=0 time=0.1827956166666667
EXTRACT: note_on channel=4 note=65 velocity=0 time=0.043010733333333336
EXTRACT: note_on channel=11 note=65 velocity=0 time=0
EXTRACT: note_on channel=2 note=69 velocity=0 time=0.059139758333333334
EXTRACT: note_on channel=2 note=65 velocity=0 time=0
EXTRACT: note_on channel=2 note=62 velocity=0 time=0
EXTRACT: note_on channel=2 note=60 velocity=0 time=0
EXTRACT: note_on channel=1 note=36 velocity=77 time=0.03225805
EXTRACT: note_on channel=5 note=62 velocity=0 time=0
EXTRACT: note_on channel=5 note=57 velocity=0 time=0
EXTRACT: note_on channel=5 note=65 velocity=0 time=0
EXTRACT: note_on channel=5 note=60 velocity=0 time=0
EXTRACT: note_on channel=7 note=38 velocity=0 time=0
EXTRACT: note_on channel=7 note=36 velocity=85 time=0
EXTRACT: note_on channel=9 note=35 velocity=58 time=0
EXTRACT: note_on channel=9 note=38 velocity=50 time=0
EXTRACT: note_on channel=10 note=62 velocity=0 time=0
EXTRACT: note_on channel=10 note=57 velocity=0 time=0
EXTRACT: note_on channel=10 note=65 velocity=0 time=0
EXTRACT: note_on channel=10 note=60 velocity=0 time=0
EXTRACT: note_on channel=9 note=38 velocity=0 time=0.005376341666666667
EXTRACT: note_on channel=9 note=35 velocity=0 time=0
EXTRACT: note_on channel=2 note=64 velocity=55 time=0.005376341666666667
EXTRACT: note_on channel=2 note=62 velocity=55 time=0
EXTRACT: note_on channel=2 note=59 velocity=55 time=0
EXTRACT: note_on channel=2 note=67 velocity=55 time=0
EXTRACT: note_on channel=3 note=48 velocity=50 time=0
EXTRACT: note_on channel=3 note=59 velocity=70 time=0.005376341666666667
EXTRACT: note_on channel=3 note=52 velocity=48 time=0
EXTRACT: note_on channel=3 note=62 velocity=70 time=0.016129025
EXTRACT: control_change channel=3 control=64 value=127 time=0.20430098333333335
EXTRACT: note_on channel=3 note=59 velocity=0 time=0.03763439166666667
EXTRACT: note_on channel=3 note=52 velocity=0 time=0.03225805
EXTRACT: note_on channel=3 note=62 velocity=0 time=0.005376341666666667
EXTRACT: note_on channel=4 note=64 velocity=85 time=0
EXTRACT: note_on channel=5 note=64 velocity=82 time=0
EXTRACT: note_on channel=5 note=55 velocity=82 time=0
EXTRACT: note_on channel=5 note=59 velocity=82 time=0
EXTRACT: note_on channel=9 note=38 velocity=38 time=0
EXTRACT: note_on channel=10 note=64 velocity=78 time=0
EXTRACT: note_on channel=10 note=55 velocity=78 time=0
EXTRACT: note_on channel=10 note=59 velocity=78 time=0
EXTRACT: note_on channel=11 note=64 velocity=78 time=0
EXTRACT: note_on channel=9 note=38 velocity=0 time=0.005376341666666667
EXTRACT: note_on channel=4 note=64 velocity=0 time=0
EXTRACT: note_on channel=4 note=67 velocity=85 time=0
EXTRACT: note_on channel=5 note=59 velocity=0 time=0
EXTRACT: note_on channel=5 note=55 velocity=0 time=0
EXTRACT: note_on channel=5 note=64 velocity=0 time=0
EXTRACT: note_on channel=5 note=59 velocity=82 time=0
EXTRACT: note_on channel=5 note=67 velocity=82 time=0
EXTRACT: note_on channel=5 note=64 velocity=82 time=0
EXTRACT: note_on channel=9 note=38 velocity=58 time=0
EXTRACT: note_on channel=9 note=42 velocity=48 time=0
EXTRACT: note_on channel=10 note=59 velocity=0 time=0
EXTRACT: note_on channel=10 note=55 velocity=0 time=0
EXTRACT: note_on channel=10 note=64 velocity=0 time=0
EXTRACT: note_on channel=10 note=59 velocity=78 time=0
EXTRACT: note_on channel=10 note=67 velocity=78 time=0
EXTRACT: note_on channel=10 note=64 velocity=78 time=0
EXTRACT: note_on channel=11 note=64 velocity=0 time=0
EXTRACT: note_on channel=11 note=67 velocity=78 time=0
EXTRACT: note_on channel=9 note=42 velocity=0 time=0.005376341666666667
EXTRACT: note_on channel=9 note=38 velocity=0 time=0
EXTRACT: note_on channel=3 note=52 velocity=49 time=0.005376341666666667
EXTRACT: note_on channel=3 note=59 velocity=59 time=0.010752683333333334
EXTRACT: note_on channel=3 note=62 velocity=54 time=0.010752683333333334
EXTRACT: note_on channel=3 note=59 velocity=0 time=0.19892464166666668
EXTRACT: note_on channel=1 note=36 velocity=0 time=0.010752683333333334
EXTRACT: note_on channel=3 note=52 velocity=0 time=0
EXTRACT: note_on channel=3 note=62 velocity=0 time=0.03225805
EXTRACT: note_on channel=1 note=36 velocity=83 time=0.048387075
EXTRACT: note_on channel=7 note=36 velocity=0 time=0
EXTRACT: note_on channel=7 note=31 velocity=85 time=0
EXTRACT: note_on channel=9 note=38 velocity=38 time=0
EXTRACT: note_on channel=9 note=38 velocity=0 time=0.005376341666666667
EXTRACT: note_on channel=3 note=48 velocity=0 time=0.12365585833333334
EXTRACT: control_change channel=3 control=64 value=0 time=0.1344085416666667
EXTRACT: note_on channel=1 note=43 velocity=74 time=0.059139758333333334
EXTRACT: note_on channel=7 note=31 velocity=0 time=0
EXTRACT: note_on channel=7 note=36 velocity=85 time=0
EXTRACT: note_on channel=9 note=35 velocity=58 time=0
EXTRACT: note_on channel=9 note=38 velocity=58 time=0
EXTRACT: note_on channel=9 note=38 velocity=0 time=0.005376341666666667
EXTRACT: note_on channel=9 note=35 velocity=0 time=0
EXTRACT: note_on channel=3 note=62 velocity=51 time=0.005376341666666667
EXTRACT: note_on channel=1 note=36 velocity=0 time=0.026881708333333334
EXTRACT: note_on channel=3 note=59 velocity=57 time=0.005376341666666667
EXTRACT: note_on channel=3 note=52 velocity=44 time=0
EXTRACT: note_on channel=3 note=43 velocity=44 time=0
EXTRACT: note_on channel=3 note=59 velocity=0 time=0.16666659166666667
EXTRACT: note_on channel=3 note=62 velocity=0 time=0.026881708333333334
EXTRACT: note_on channel=3 note=52 velocity=0 time=0
EXTRACT: note_on channel=7 note=36 velocity=0 time=0.08602146666666667
EXTRACT: note_on channel=7 note=36 velocity=85 time=0
EXTRACT: note_on channel=9 note=38 velocity=38 time=0
EXTRACT: note_on channel=9 note=38 velocity=0 time=0.005376341666666667
EXTRACT: control_change channel=3 control=64 value=127 time=0.005376341666666667
EXTRACT: note_on channel=3 note=62 velocity=50 time=0.03763439166666667
EXTRACT: note_on channel=3 note=59 velocity=56 time=0
EXTRACT: note_on channel=3 note=52 velocity=40 time=0.021505366666666668
EXTRACT: note_on channel=3 note=59 velocity=0 time=0.16666659166666667
EXTRACT: note_on channel=3 note=52 velocity=0 time=0.043010733333333336
EXTRACT: note_on channel=3 note=62 velocity=0 time=0
EXTRACT: note_on channel=9 note=38 velocity=48 time=0.043010733333333336
EXTRACT: note_on channel=9 note=42 velocity=48 time=0
EXTRACT: note_on channel=9 note=42 velocity=0 time=0.005376341666666667
EXTRACT: note_on channel=9 note=38 velocity=0 time=0
EXTRACT: note_on channel=1 note=43 velocity=0 time=0.03763439166666667
EXTRACT: note_on channel=3 note=43 velocity=0 time=0.13978488333333333
EXTRACT: note_on channel=1 note=43 velocity=76 time=0.13978488333333333
EXTRACT: note_on channel=7 note=36 velocity=0 time=0
EXTRACT: note_on channel=7 note=31 velocity=85 time=0
EXTRACT: note_on channel=9 note=38 velocity=58 time=0
EXTRACT: note_on channel=9 note=38 velocity=0 time=0.005376341666666667
EXTRACT: note_on channel=3 note=52 velocity=50 time=0.021505366666666668
EXTRACT: note_on channel=3 note=62 velocity=59 time=0
EXTRACT: note_on channel=3 note=59 velocity=65 time=0.010752683333333334
EXTRACT: control_change channel=3 control=64 value=0 time=0.16666659166666667
EXTRACT: note_on channel=1 note=36 velocity=75 time=0.11827951666666667
EXTRACT: note_on channel=7 note=31 velocity=0 time=0
EXTRACT: note_on channel=7 note=36 velocity=85 time=0
EXTRACT: note_on channel=9 note=35 velocity=58 time=0
EXTRACT: note_on channel=9 note=38 velocity=50 time=0
EXTRACT: note_on channel=9 note=38 velocity=0 time=0.005376341666666667
EXTRACT: note_on channel=9 note=35 velocity=0 time=0
EXTRACT: note_on channel=3 note=48 velocity=50 time=0.026881708333333334
EXTRACT: note_on channel=1 note=43 velocity=0 time=0.03763439166666667
EXTRACT: note_on channel=3 note=59 velocity=0 time=0.005376341666666667
EXTRACT: note_on channel=3 note=52 velocity=0 time=0.03225805
EXTRACT: note_on channel=3 note=62 velocity=0 time=0.021505366666666668
EXTRACT: control_change channel=3 control=64 value=127 time=0.11290317500000001
EXTRACT: note_on channel=9 note=38 velocity=38 time=0.080645125
EXTRACT: note_on channel=9 note=38 velocity=0 time=0.005376341666666667
EXTRACT: note_on channel=9 note=38 velocity=58 time=0.3172041583333334
EXTRACT: note_on channel=9 note=42 velocity=48 time=0
EXTRACT: note_on channel=9 note=42 velocity=0 time=0.005376341666666667
EXTRACT: note_on channel=9 note=38 velocity=0 time=0
EXTRACT: note_on channel=3 note=62 velocity=52 time=0.016129025
EXTRACT: note_on channel=3 note=59 velocity=49 time=0.010752683333333334
EXTRACT: note_on channel=3 note=52 velocity=39 time=0
EXTRACT: note_on channel=1 note=36 velocity=0 time=0.10215049166666668
EXTRACT: note_on channel=1 note=36 velocity=80 time=0.18817195833333333
EXTRACT: note_on channel=7 note=36 velocity=0 time=0
EXTRACT: note_on channel=7 note=31 velocity=85 time=0
EXTRACT: note_on channel=9 note=38 velocity=38 time=0
EXTRACT: note_on channel=9 note=38 velocity=0 time=0.005376341666666667
EXTRACT: note_on channel=3 note=52 velocity=0 time=0.010752683333333334
EXTRACT: note_on channel=3 note=59 velocity=0 time=0
EXTRACT: note_on channel=3 note=62 velocity=0 time=0.043010733333333336
EXTRACT: note_on channel=3 note=48 velocity=0 time=0
EXTRACT: note_on channel=1 note=43 velocity=74 time=0.2634407416666667
EXTRACT: note_on channel=7 note=31 velocity=0 time=0
EXTRACT: note_on channel=7 note=36 velocity=85 time=0
EXTRACT: note_on channel=9 note=35 velocity=58 time=0
EXTRACT: note_on channel=9 note=38 velocity=58 time=0
EXTRACT: note_on channel=9 note=38 velocity=0 time=0.005376341666666667
EXTRACT: note_on channel=9 note=35 velocity=0 time=0
EXTRACT: note_on channel=1 note=36 velocity=0 time=0.016129025
EXTRACT: note_on channel=3 note=43 velocity=53 time=0.005376341666666667
EXTRACT: control_change channel=3 control=64 value=0 time=0.043010733333333336
EXTRACT: note_on channel=7 note=36 velocity=0 time=0.25268805833333335
EXTRACT: note_on channel=7 note=36 velocity=85 time=0
EXTRACT: note_on channel=9 note=38 velocity=38 time=0
EXTRACT: note_on channel=3 note=62 velocity=51 time=0.005376341666666667
EXTRACT: note_on channel=3 note=52 velocity=38 time=0
EXTRACT: note_on channel=9 note=38 velocity=0 time=0
EXTRACT: note_on channel=3 note=59 velocity=60 time=0.010752683333333334
EXTRACT: control_change channel=3 control=64 value=127 time=0.13978488333333333
EXTRACT: note_on channel=1 note=43 velocity=0 time=0.16666659166666667
EXTRACT: note_on channel=1 note=36 velocity=83 time=0
EXTRACT: note_on channel=9 note=38 velocity=48 time=0
EXTRACT: note_on channel=9 note=42 velocity=48 time=0
EXTRACT: note_on channel=9 note=42 velocity=0 time=0.005376341666666667
EXTRACT: note_on channel=9 note=38 velocity=0 time=0
EXTRACT: note_on channel=3 note=43 velocity=0 time=0.1827956166666667
EXTRACT: note_on channel=7 note=36 velocity=0 time=0.1344085416666667
EXTRACT: note_on channel=7 note=36 velocity=85 time=0
EXTRACT: note_on channel=9 note=38 velocity=58 time=0
EXTRACT: note_on channel=9 note=38 velocity=0 time=0.005376341666666667
EXTRACT: control_change channel=3 control=64 value=0 time=0.10752683333333334
EXTRACT: note_on channel=4 note=67 velocity=0 time=0.010752683333333334
EXTRACT: note_on channel=11 note=67 velocity=0 time=0
EXTRACT: note_on channel=7 note=36 velocity=0 time=0.03763439166666667
EXTRACT: note_on channel=7 note=38 velocity=85 time=0
EXTRACT: note_on channel=3 note=62 velocity=0 time=0.03763439166666667
EXTRACT: note_on channel=3 note=59 velocity=0 time=0.010752683333333334
EXTRACT: note_on channel=3 note=52 velocity=0 time=0.005376341666666667
EXTRACT: note_on channel=1 note=36 velocity=0 time=0.048387075
EXTRACT: note_on channel=2 note=67 velocity=0 time=0.026881708333333334
EXTRACT: note_on channel=2 note=64 velocity=0 time=0
EXTRACT: note_on channel=2 note=62 velocity=0 time=0
EXTRACT: note_on channel=2 note=59 velocity=0 time=0
EXTRACT: note_on channel=1 note=43 velocity=87 time=0.03225805
EXTRACT: note_on channel=5 note=64 velocity=0 time=0
EXTRACT: note_on channel=5 note=67 velocity=0 time=0
EXTRACT: note_on channel=5 note=59 velocity=0 time=0
EXTRACT: note_on channel=6 note=53 velocity=82 time=0
EXTRACT: note_on channel=6 note=57 velocity=82 time=0
EXTRACT: note_on channel=6 note=60 velocity=82 time=0
EXTRACT: note_on channel=7 note=38 velocity=0 time=0
EXTRACT: note_on channel=7 note=31 velocity=85 time=0
EXTRACT: note_on channel=9 note=35 velocity=58 time=0
EXTRACT: note_on channel=9 note=38 velocity=50 time=0
EXTRACT: note_on channel=10 note=64 velocity=0 time=0
EXTRACT: note_on channel=10 note=67 velocity=0 time=0
EXTRACT: note_on channel=10 note=59 velocity=0 time=0
EXTRACT: note_on channel=3 note=53 velocity=47 time=0.005376341666666667
EXTRACT: note_on channel=9 note=38 velocity=0 time=0
EXTRACT: note_on channel=9 note=35 velocity=0 time=0
EXTRACT: note_on channel=2 note=53 velocity=49 time=0.005376341666666667
EXTRACT: note_on channel=2 note=57 velocity=47 time=0
EXTRACT: note_on channel=2 note=60 velocity=55 time=0
EXTRACT: note_on channel=2 note=62 velocity=51 time=0
EXTRACT: note_on channel=2 note=69 velocity=59 time=0
EXTRACT: note_on channel=3 note=60 velocity=59 time=0
EXTRACT: note_on channel=3 note=64 velocity=42 time=0.005376341666666667
EXTRACT: control_change channel=3 control=64 value=127 time=0.1827956166666667
EXTRACT: note_on channel=3 note=60 velocity=0 time=0.11290317500000001
EXTRACT: note_on channel=9 note=38 velocity=38 time=0.010752683333333334
EXTRACT: note_on channel=9 note=38 velocity=0 time=0.005376341666666667
EXTRACT: note_on channel=3 note=53 velocity=0 time=0.043010733333333336
EXTRACT: note_on channel=2 note=65 velocity=56 time=0.021505366666666668
EXTRACT: note_on channel=3 note=64 velocity=0 time=0.026881708333333334
EXTRACT: note_on channel=9 note=38 velocity=58 time=0.22580635000000002
EXTRACT: note_on channel=9 note=42 velocity=48 time=0
EXTRACT: note_on channel=9 note=42 velocity=0 time=0.005376341666666667
EXTRACT: note_on channel=9 note=38 velocity=0 time=0
EXTRACT: control_change channel=2 control=64 value=127 time=0.3172041583333334
EXTRACT: note_on channel=7 note=31 velocity=0 time=0
EXTRACT: note_on channel=7 note=38 velocity=85 time=0
EXTRACT: note_on channel=9 note=38 velocity=38 time=0
EXTRACT: note_on channel=9 note=38 velocity=0 time=0.005376341666666667
EXTRACT: note_on channel=3 note=64 velocity=52 time=0.03225805
EXTRACT: note_on channel=3 note=60 velocity=59 time=0.021505366666666668
EXTRACT: note_on channel=3 note=53 velocity=40 time=0.010752683333333334
EXTRACT: note_on channel=3 note=60 velocity=0 time=0.22580635000000002
EXTRACT: note_on channel=1 note=38 velocity=79 time=0.026881708333333334
EXTRACT: note_on channel=7 note=38 velocity=0 time=0
EXTRACT: note_on channel=7 note=43 velocity=85 time=0
EXTRACT: note_on channel=9 note=35 velocity=58 time=0
EXTRACT: note_on channel=9 note=38 velocity=58 time=0
EXTRACT: note_on channel=9 note=38 velocity=0 time=0.005376341666666667
EXTRACT: note_on channel=9 note=35 velocity=0 time=0
EXTRACT: note_on channel=3 note=64 velocity=0 time=0.021505366666666668
EXTRACT: note_on channel=3 note=53 velocity=0 time=0.021505366666666668
EXTRACT: note_on channel=1 note=43 velocity=0 time=0.11290317500000001
EXTRACT: control_change channel=2 control=0 value=0 time=0.16129025
EXTRACT: note_on channel=7 note=43 velocity=0 time=0
EXTRACT: note_on channel=7 note=43 velocity=85 time=0
EXTRACT: note_on channel=9 note=38 velocity=38 time=0
EXTRACT: note_on channel=9 note=38 velocity=0 time=0.005376341666666667
EXTRACT: note_on channel=6 note=60 velocity=0 time=0.3172041583333334
EXTRACT: note_on channel=6 note=57 velocity=0 time=0
EXTRACT: note_on channel=6 note=53 velocity=0 time=0
EXTRACT: note_on channel=7 note=43 velocity=0 time=0
EXTRACT: note_on channel=7 note=43 velocity=85 time=0
EXTRACT: note_on channel=9 note=38 velocity=48 time=0
EXTRACT: note_on channel=9 note=42 velocity=48 time=0
EXTRACT: note_on channel=3 note=53 velocity=55 time=0.005376341666666667
EXTRACT: note_on channel=3 note=60 velocity=55 time=0
EXTRACT: note_on channel=3 note=64 velocity=61 time=0
EXTRACT: note_on channel=9 note=42 velocity=0 time=0
EXTRACT: note_on channel=9 note=38 velocity=0 time=0
EXTRACT: note_on channel=3 note=60 velocity=0 time=0.19892464166666668
EXTRACT: note_on channel=3 note=53 velocity=0 time=0.06989244166666667
EXTRACT: note_on channel=3 note=64 velocity=0 time=0.010752683333333334
EXTRACT: control_change channel=2 control=0 value=0 time=0
EXTRACT: note_on channel=4 note=62 velocity=85 time=0
EXTRACT: note_on channel=5 note=62 velocity=82 time=0
EXTRACT: note_on channel=7 note=43 velocity=0 time=0
EXTRACT: note_on channel=7 note=38 velocity=85 time=0
EXTRACT: note_on channel=9 note=38 velocity=58 time=0
EXTRACT: note_on channel=10 note=62 velocity=78 time=0
EXTRACT: note_on channel=11 note=62 velocity=78 time=0
EXTRACT: note_on channel=9 note=38 velocity=0 time=0.005376341666666667
EXTRACT: note_on channel=4 note=62 velocity=0 time=0
EXTRACT: note_on channel=4 note=64 velocity=85 time=0
EXTRACT: note_on channel=5 note=62 velocity=0 time=0
EXTRACT: note_on channel=5 note=64 velocity=82 time=0
EXTRACT: note_on channel=10 note=62 velocity=0 time=0
EXTRACT: note_on channel=10 note=64 velocity=78 time=0
EXTRACT: note_on channel=11 note=62 velocity=0 time=0
EXTRACT: note_on channel=11 note=64 velocity=78 time=0
EXTRACT: note_on channel=1 note=43 velocity=74 time=0
EXTRACT: note_on channel=4 note=64 velocity=0 time=0
EXTRACT: note_on channel=4 note=65 velocity=85 time=0
EXTRACT: note_on channel=5 note=64 velocity=0 time=0
EXTRACT: note_on channel=5 note=65 velocity=82 time=0
EXTRACT: note_on channel=6 note=57 velocity=82 time=0
EXTRACT: note_on channel=6 note=60 velocity=82 time=0
EXTRACT: note_on channel=6 note=62 velocity=82 time=0
EXTRACT: note_on channel=7 note=38 velocity=0 time=0
EXTRACT: note_on channel=7 note=31 velocity=85 time=0
EXTRACT: note_on channel=9 note=35 velocity=58 time=0
EXTRACT: note_on channel=9 note=38 velocity=50 time=0
EXTRACT: note_on channel=10 note=64 velocity=0 time=0
EXTRACT: note_on channel=10 note=65 velocity=78 time=0
EXTRACT: note_on channel=11 note=64 velocity=0 time=0
EXTRACT: note_on channel=11 note=65 velocity=78 time=0
EXTRACT: note_on channel=1 note=38 velocity=0 time=0.005376341666666667
EXTRACT: note_on channel=9 note=38 velocity=0 time=0
EXTRACT: note_on channel=9 note=35 velocity=0 time=0
EXTRACT: control_change channel=2 control=0 value=0 time=0
EXTRACT: note_on channel=4 note=65 velocity=0 time=0
EXTRACT: note_on channel=4 note=65 velocity=85 time=0
EXTRACT: note_on channel=5 note=65 velocity=0 time=0
EXTRACT: note_on channel=5 note=65 velocity=82 time=0
EXTRACT: note_on channel=9 note=38 velocity=38 time=0
EXTRACT: note_on channel=10 note=65 velocity=0 time=0
EXTRACT: note_on channel=10 note=65 velocity=78 time=0
EXTRACT: note_on channel=11 note=65 velocity=0 time=0
EXTRACT: note_on channel=11 note=65 velocity=78 time=0
EXTRACT: note_on channel=9 note=38 velocity=0 time=0.005376341666666667
EXTRACT: note_on channel=4 note=65 velocity=0 time=0
EXTRACT: note_on channel=4 note=65 velocity=85 time=0
EXTRACT: note_on channel=5 note=65 velocity=0 time=0
EXTRACT: note_on channel=5 note=65 velocity=82 time=0
EXTRACT: note_on channel=10 note=65 velocity=0 time=0
EXTRACT: note_on channel=10 note=65 velocity=78 time=0
EXTRACT: note_on channel=11 note=65 velocity=0 time=0
EXTRACT: note_on channel=11 note=65 velocity=78 time=0
EXTRACT: note_on channel=4 note=65 velocity=0 time=0
EXTRACT: note_on channel=4 note=65 velocity=85 time=0
EXTRACT: note_on channel=5 note=65 velocity=0 time=0
EXTRACT: note_on channel=5 note=65 velocity=82 time=0
EXTRACT: note_on channel=9 note=38 velocity=58 time=0
EXTRACT: note_on channel=9 note=42 velocity=48 time=0
EXTRACT: note_on channel=10 note=65 velocity=0 time=0
EXTRACT: note_on channel=10 note=65 velocity=78 time=0
EXTRACT: note_on channel=11 note=65 velocity=0 time=0
EXTRACT: note_on channel=11 note=65 velocity=78 time=0
EXTRACT: note_on channel=3 note=64 velocity=51 time=0.005376341666666667
EXTRACT: note_on channel=9 note=42 velocity=0 time=0
EXTRACT: note_on channel=9 note=38 velocity=0 time=0
EXTRACT: note_on channel=3 note=53 velocity=48 time=0.005376341666666667
EXTRACT: note_on channel=3 note=60 velocity=59 time=0
EXTRACT: note_on channel=3 note=60 velocity=0 time=0.22580635000000002
EXTRACT: note_on channel=3 note=64 velocity=0 time=0.03763439166666667
EXTRACT: note_on channel=3 note=53 velocity=0 time=0.026881708333333334
EXTRACT: control_change channel=2 control=0 value=0 time=0
EXTRACT: note_on channel=4 note=65 velocity=0 time=0
EXTRACT: note_on channel=4 note=67 velocity=85 time=0
EXTRACT: note_on channel=5 note=65 velocity=0 time=0
EXTRACT: note_on channel=5 note=67 velocity=82 time=0
EXTRACT: note_on channel=6 note=62 velocity=0 time=0
EXTRACT: note_on channel=6 note=60 velocity=0 time=0
EXTRACT: note_on channel=6 note=57 velocity=0 time=0
EXTRACT: note_on channel=6 note=57 velocity=82 time=0
EXTRACT: note_on channel=6 note=60 velocity=82 time=0
EXTRACT: note_on channel=6 note=64 velocity=82 time=0
EXTRACT: note_on channel=7 note=31 velocity=0 time=0
EXTRACT: note_on channel=7 note=38 velocity=85 time=0
EXTRACT: note_on channel=9 note=38 velocity=38 time=0
EXTRACT: note_on channel=10 note=65 velocity=0 time=0
EXTRACT: note_on channel=10 note=67 velocity=78 time=0
EXTRACT: note_on channel=11 note=65 velocity=0 time=0
EXTRACT: note_on channel=11 note=67 velocity=78 time=0
EXTRACT: note_on channel=9 note=38 velocity=0 time=0.005376341666666667
EXTRACT: note_on channel=2 note=60 velocity=0 time=0.10752683333333334
EXTRACT: note_on channel=2 note=53 velocity=0 time=0.03225805
EXTRACT: note_on channel=2 note=62 velocity=0 time=0.005376341666666667
EXTRACT: note_on channel=2 note=57 velocity=0 time=0
EXTRACT: note_on channel=2 note=69 velocity=0 time=0.0645161
EXTRACT: note_on channel=2 note=65 velocity=0 time=0.07526878333333334
EXTRACT: note_on channel=1 note=38 velocity=70 time=0
EXTRACT: note_on channel=4 note=67 velocity=0 time=0
EXTRACT: note_on channel=4 note=69 velocity=85 time=0
EXTRACT: note_on channel=5 note=67 velocity=0 time=0
EXTRACT: note_on channel=5 note=69 velocity=82 time=0
EXTRACT: note_on channel=6 note=64 velocity=0 time=0
EXTRACT: note_on channel=6 note=60 velocity=0 time=0
EXTRACT: note_on channel=6 note=57 velocity=0 time=0
EXTRACT: note_on channel=6 note=60 velocity=82 time=0
EXTRACT: note_on channel=6 note=62 velocity=82 time=0
EXTRACT: note_on channel=6 note=65 velocity=82 time=0
EXTRACT: note_on channel=7 note=38 velocity=0 time=0
EXTRACT: note_on channel=7 note=43 velocity=85 time=0
EXTRACT: note_on channel=9 note=35 velocity=58 time=0
EXTRACT: note_on channel=9 note=38 velocity=58 time=0
EXTRACT: note_on channel=10 note=67 velocity=0 time=0
EXTRACT: note_on channel=10 note=69 velocity=78 time=0
EXTRACT: note_on channel=11 note=67 velocity=0 time=0
EXTRACT: note_on channel=11 note=69 velocity=78 time=0
EXTRACT: note_on channel=9 note=38 velocity=0 time=0.005376341666666667
EXTRACT: note_on channel=9 note=35 velocity=0 time=0
EXTRACT: note_on channel=1 note=43 velocity=0 time=0.08602146666666667
EXTRACT: control_change channel=2 control=64 value=0 time=0
EXTRACT: note_on channel=2 note=69 velocity=65 time=0
EXTRACT: note_on channel=2 note=57 velocity=43 time=0
EXTRACT: note_on channel=2 note=64 velocity=53 time=0
EXTRACT: note_on channel=2 note=65 velocity=66 time=0
EXTRACT: note_on channel=2 note=53 velocity=46 time=0
EXTRACT: note_on channel=2 note=60 velocity=70 time=0
EXTRACT: note_on channel=4 note=69 velocity=0 time=0
EXTRACT: note_on channel=4 note=67 velocity=85 time=0
EXTRACT: note_on channel=5 note=69 velocity=0 time=0
EXTRACT: note_on channel=5 note=67 velocity=82 time=0
EXTRACT: note_on channel=6 note=65 velocity=0 time=0
EXTRACT: note_on channel=6 note=62 velocity=0 time=0
EXTRACT: note_on channel=6 note=60 velocity=0 time=0
EXTRACT: note_on channel=7 note=43 velocity=0 time=0
EXTRACT: note_on channel=7 note=43 velocity=85 time=0
EXTRACT: note_on channel=9 note=38 velocity=38 time=0
EXTRACT: note_on channel=10 note=69 velocity=0 time=0
EXTRACT: note_on channel=10 note=67 velocity=78 time=0
EXTRACT: note_on channel=11 note=69 velocity=0 time=0
EXTRACT: note_on channel=11 note=67 velocity=78 time=0
EXTRACT: note_on channel=3 note=64 velocity=45 time=0.005376341666666667
EXTRACT: note_on channel=9 note=38 velocity=0 time=0
EXTRACT: note_on channel=3 note=60 velocity=60 time=0.021505366666666668
EXTRACT: note_on channel=3 note=53 velocity=49 time=0.010752683333333334
EXTRACT: note_on channel=3 note=60 velocity=0 time=0.16666659166666667
EXTRACT: note_on channel=3 note=53 velocity=0 time=0.043010733333333336
EXTRACT: note_on channel=3 note=64 velocity=0 time=0
EXTRACT: note_on channel=4 note=67 velocity=0 time=0
EXTRACT: note_on channel=4 note=69 velocity=85 time=0
EXTRACT: note_on channel=5 note=67 velocity=0 time=0
EXTRACT: note_on channel=5 note=69 velocity=82 time=0
EXTRACT: note_on channel=6 note=60 velocity=82 time=0
EXTRACT: note_on channel=6 note=62 velocity=82 time=0
EXTRACT: note_on channel=6 note=65 velocity=82 time=0
EXTRACT: note_on channel=7 note=43 velocity=0 time=0
EXTRACT: note_on channel=7 note=43 velocity=85 time=0
EXTRACT: note_on channel=9 note=38 velocity=48 time=0
EXTRACT: note_on channel=9 note=42 velocity=48 time=0
EXTRACT: note_on channel=10 note=67 velocity=0 time=0
EXTRACT: note_on channel=10 note=69 velocity=78 time=0
EXTRACT: note_on channel=11 note=67 velocity=0 time=0
EXTRACT: note_on channel=11 note=69 velocity=78 time=0
EXTRACT: note_on channel=9 note=42 velocity=0 time=0.005376341666666667
EXTRACT: note_on channel=9 note=38 velocity=0 time=0
EXTRACT: control_change channel=3 control=64 value=0 time=0.24731171666666668
EXTRACT: note_on channel=4 note=69 velocity=0 time=0
EXTRACT: note_on channel=4 note=71 velocity=85 time=0
EXTRACT: note_on channel=5 note=69 velocity=0 time=0
EXTRACT: note_on channel=5 note=71 velocity=82 time=0
EXTRACT: note_on channel=6 note=65 velocity=0 time=0
EXTRACT: note_on channel=6 note=62 velocity=0 time=0
EXTRACT: note_on channel=6 note=60 velocity=0 time=0
EXTRACT: note_on channel=7 note=43 velocity=0 time=0
EXTRACT: note_on channel=7 note=43 velocity=85 time=0
EXTRACT: note_on channel=9 note=38 velocity=58 time=0
EXTRACT: note_on channel=10 note=69 velocity=0 time=0
EXTRACT: note_on channel=10 note=71 velocity=78 time=0
EXTRACT: note_on channel=11 note=69 velocity=0 time=0
EXTRACT: note_on channel=11 note=71 velocity=78 time=0
EXTRACT: note_on channel=9 note=38 velocity=0 time=0.005376341666666667
EXTRACT: note_on channel=2 note=60 velocity=0 time=0.07526878333333334
EXTRACT: note_on channel=2 note=57 velocity=0 time=0.03763439166666667
EXTRACT: note_on channel=2 note=53 velocity=0 time=0
EXTRACT: note_on channel=2 note=69 velocity=0 time=0.021505366666666668
EXTRACT: note_on channel=2 note=64 velocity=0 time=0.010752683333333334
EXTRACT: note_on channel=2 note=65 velocity=0 time=0
EXTRACT: note_on channel=1 note=38 velocity=0 time=0.03763439166666667
EXTRACT: note_on channel=1 note=33 velocity=77 time=0
EXTRACT: note_on channel=4 note=71 velocity=0 time=0
EXTRACT: note_on channel=4 note=72 velocity=85 time=0
EXTRACT: note_on channel=5 note=71 velocity=0 time=0
EXTRACT: note_on channel=5 note=69 velocity=82 time=0
EXTRACT: note_on channel=5 note=64 velocity=82 time=0
EXTRACT: note_on channel=5 note=67 velocity=82 time=0
EXTRACT: note_on channel=5 note=72 velocity=82 time=0
EXTRACT: note_on channel=7 note=43 velocity=0 time=0
EXTRACT: note_on channel=7 note=33 velocity=85 time=0
EXTRACT: note_on channel=9 note=35 velocity=58 time=0
EXTRACT: note_on channel=9 note=38 velocity=50 time=0
EXTRACT: note_on channel=10 note=71 velocity=0 time=0
EXTRACT: note_on channel=10 note=69 velocity=78 time=0
EXTRACT: note_on channel=10 note=64 velocity=78 time=0
EXTRACT: note_on channel=10 note=67 velocity=78 time=0
EXTRACT: note_on channel=10 note=72 velocity=78 time=0
EXTRACT: note_on channel=11 note=71 velocity=0 time=0
EXTRACT: note_on channel=11 note=72 velocity=78 time=0
EXTRACT: note_on channel=9 note=38 velocity=0 time=0.005376341666666667
EXTRACT: note_on channel=9 note=35 velocity=0 time=0
EXTRACT: note_on channel=3 note=48 velocity=44 time=0.005376341666666667
EXTRACT: note_on channel=3 note=45 velocity=55 time=0
EXTRACT: note_on channel=3 note=55 velocity=66 time=0
EXTRACT: note_on channel=3 note=59 velocity=64 time=0
EXTRACT: control_change channel=3 control=64 value=127 time=0.1935483
EXTRACT: note_on channel=4 note=72 velocity=0 time=0.11827951666666667
EXTRACT: note_on channel=5 note=72 velocity=0 time=0
EXTRACT: note_on channel=5 note=69 velocity=0 time=0
EXTRACT: note_on channel=5 note=64 velocity=0 time=0
EXTRACT: note_on channel=5 note=67 velocity=0 time=0
EXTRACT: note_on channel=9 note=38 velocity=38 time=0
EXTRACT: note_on channel=10 note=72 velocity=0 time=0
EXTRACT: note_on channel=10 note=69 velocity=0 time=0
EXTRACT: note_on channel=10 note=64 velocity=0 time=0
EXTRACT: note_on channel=10 note=67 velocity=0 time=0
EXTRACT: note_on channel=11 note=72 velocity=0 time=0
EXTRACT: note_on channel=9 note=38 velocity=0 time=0.005376341666666667
EXTRACT: note_on channel=3 note=55 velocity=0 time=0.010752683333333334
EXTRACT: note_on channel=3 note=48 velocity=0 time=0.0645161
EXTRACT: note_on channel=3 note=59 velocity=0 time=0.026881708333333334
EXTRACT: note_on channel=4 note=69 velocity=85 time=0
EXTRACT: note_on channel=5 note=69 velocity=82 time=0
EXTRACT: note_on channel=9 note=38 velocity=58 time=0
EXTRACT: note_on channel=9 note=42 velocity=48 time=0
EXTRACT: note_on channel=10 note=69 velocity=78 time=0
EXTRACT: note_on channel=11 note=69 velocity=78 time=0
EXTRACT: note_on channel=9 note=42 velocity=0 time=0.005376341666666667
EXTRACT: note_on channel=9 note=38 velocity=0 time=0
EXTRACT: note_on channel=3 note=59 velocity=52 time=0.3118278166666667
EXTRACT: note_on channel=3 note=48 velocity=45 time=0
EXTRACT: note_on channel=1 note=33 velocity=0 time=0
EXTRACT: note_on channel=1 note=40 velocity=71 time=0
EXTRACT: note_on channel=4 note=69 velocity=0 time=0
EXTRACT: note_on channel=4 note=69 velocity=85 time=0
EXTRACT: note_on channel=5 note=69 velocity=0 time=0
EXTRACT: note_on channel=5 note=69 velocity=82 time=0
EXTRACT: note_on channel=9 note=38 velocity=38 time=0
EXTRACT: note_on channel=10 note=69 velocity=0 time=0
EXTRACT: note_on channel=10 note=69 velocity=78 time=0
EXTRACT: note_on channel=11 note=69 velocity=0 time=0
EXTRACT: note_on channel=11 note=69 velocity=78 time=0
EXTRACT: note_on channel=3 note=55 velocity=65 time=0.005376341666666667
EXTRACT: note_on channel=9 note=38 velocity=0 time=0
EXTRACT: note_on channel=2 note=67 velocity=55 time=0.021505366666666668
EXTRACT: note_on channel=2 note=64 velocity=55 time=0
EXTRACT: note_on channel=2 note=60 velocity=55 time=0
EXTRACT: note_on channel=2 note=69 velocity=55 time=0
EXTRACT: note_on channel=1 note=40 velocity=0 time=0.13978488333333333
EXTRACT: note_on channel=3 note=45 velocity=0 time=0.010752683333333334
EXTRACT: note_on channel=1 note=40 velocity=81 time=0
EXTRACT: note_on channel=3 note=40 velocity=54 time=0
EXTRACT: note_on channel=4 note=69 velocity=0 time=0
EXTRACT: note_on channel=4 note=69 velocity=85 time=0
EXTRACT: note_on channel=5 note=69 velocity=0 time=0
EXTRACT: note_on channel=5 note=60 velocity=82 time=0
EXTRACT: note_on channel=5 note=69 velocity=82 time=0
EXTRACT: note_on channel=5 note=64 velocity=82 time=0
EXTRACT: note_on channel=7 note=33 velocity=0 time=0
EXTRACT: note_on channel=7 note=33 velocity=85 time=0
EXTRACT: note_on channel=9 note=35 velocity=58 time=0
EXTRACT: note_on channel=9 note=38 velocity=58 time=0
EXTRACT: note_on channel=10 note=69 velocity=0 time=0
EXTRACT: note_on channel=10 note=60 velocity=78 time=0
EXTRACT: note_on channel=10 note=69 velocity=78 time=0
EXTRACT: note_on channel=10 note=64 velocity=78 time=0
EXTRACT: note_on channel=11 note=69 velocity=0 time=0
EXTRACT: note_on channel=11 note=69 velocity=78 time=0
EXTRACT: note_on channel=9 note=38 velocity=0 time=0.005376341666666667
EXTRACT: note_on channel=9 note=35 velocity=0 time=0
EXTRACT: control_change channel=3 control=64 value=0 time=0.11827951666666667
EXTRACT: note_on channel=4 note=69 velocity=0 time=0
EXTRACT: note_on channel=4 note=67 velocity=85 time=0
EXTRACT: note_on channel=5 note=64 velocity=0 time=0
EXTRACT: note_on channel=5 note=69 velocity=0 time=0
EXTRACT: note_on channel=5 note=60 velocity=0 time=0
EXTRACT: note_on channel=5 note=67 velocity=82 time=0
EXTRACT: note_on channel=9 note=38 velocity=38 time=0
EXTRACT: note_on channel=10 note=64 velocity=0 time=0
EXTRACT: note_on channel=10 note=69 velocity=0 time=0
EXTRACT: note_on channel=10 note=60 velocity=0 time=0
EXTRACT: note_on channel=10 note=67 velocity=78 time=0
EXTRACT: note_on channel=11 note=69 velocity=0 time=0
EXTRACT: note_on channel=11 note=67 velocity=78 time=0
EXTRACT: note_on channel=9 note=38 velocity=0 time=0.005376341666666667
EXTRACT: control_change channel=3 control=64 value=127 time=0.16666659166666667
EXTRACT: note_on channel=1 note=40 velocity=0 time=0.06989244166666667
EXTRACT: note_on channel=3 note=55 velocity=0 time=0.03225805
EXTRACT: note_on channel=3 note=59 velocity=0 time=0.016129025
EXTRACT: note_on channel=3 note=48 velocity=0 time=0
EXTRACT: note_on channel=1 note=33 velocity=81 time=0
EXTRACT: note_on channel=4 note=67 velocity=0 time=0
EXTRACT: note_on channel=4 note=64 velocity=85 time=0
EXTRACT: note_on channel=5 note=67 velocity=0 time=0
EXTRACT: note_on channel=5 note=64 velocity=82 time=0
EXTRACT: note_on channel=7 note=33 velocity=0 time=0
EXTRACT: note_on channel=7 note=45 velocity=85 time=0
EXTRACT: note_on channel=9 note=38 velocity=48 time=0
EXTRACT: note_on channel=9 note=42 velocity=48 time=0
EXTRACT: note_on channel=10 note=67 velocity=0 time=0
EXTRACT: note_on channel=10 note=64 velocity=78 time=0
EXTRACT: note_on channel=11 note=67 velocity=0 time=0
EXTRACT: note_on channel=11 note=64 velocity=78 time=0
EXTRACT: note_on channel=9 note=42 velocity=0 time=0.005376341666666667
EXTRACT: note_on channel=9 note=38 velocity=0 time=0
EXTRACT: note_on channel=3 note=48 velocity=45 time=0.010752683333333334
EXTRACT: note_on channel=3 note=55 velocity=45 time=0
EXTRACT: note_on channel=3 note=59 velocity=40 time=0.016129025
EXTRACT: note_on channel=4 note=64 velocity=0 time=0
EXTRACT: note_on channel=4 note=67 velocity=85 time=0
EXTRACT: note_on channel=5 note=64 velocity=0 time=0
EXTRACT: note_on channel=5 note=59 velocity=82 time=0
EXTRACT: note_on channel=5 note=62 velocity=82 time=0
EXTRACT: note_on channel=5 note=67 velocity=82 time=0
EXTRACT: note_on channel=9 note=38 velocity=58 time=0
EXTRACT: note_on channel=10 note=64 velocity=0 time=0
EXTRACT: note_on channel=10 note=59 velocity=78 time=0
EXTRACT: note_on channel=10 note=62 velocity=78 time=0
EXTRACT: note_on channel=10 note=67 velocity=78 time=0
EXTRACT: note_on channel=11 note=64 velocity=0 time=0
EXTRACT: note_on channel=11 note=67 velocity=78 time=0
EXTRACT: note_on channel=9 note=38 velocity=0 time=0.005376341666666667
EXTRACT: note_on channel=3 note=55 velocity=0 time=0.021505366666666668
EXTRACT: note_on channel=3 note=40 velocity=0 time=0.026881708333333334
EXTRACT: note_on channel=3 note=48 velocity=0 time=0
EXTRACT: note_on channel=3 note=59 velocity=0 time=0.10752683333333334
EXTRACT: note_on channel=1 note=33 velocity=0 time=0.10752683333333334
EXTRACT: note_on channel=1 note=40 velocity=77 time=0.05376341666666667
EXTRACT: note_on channel=2 note=69 velocity=0 time=0
EXTRACT: note_on channel=2 note=67 velocity=0 time=0
EXTRACT: note_on channel=2 note=64 velocity=0 time=0
EXTRACT: note_on channel=2 note=60 velocity=0 time=0
EXTRACT: control_change channel=2 control=64 value=127 time=0
EXTRACT: control_change channel=2 control=64 value=0 time=0
EXTRACT: control_change channel=3 control=64 value=0 time=0
EXTRACT: note_on channel=7 note=45 velocity=0 time=0
EXTRACT: note_on channel=7 note=40 velocity=85 time=0
EXTRACT: note_on channel=9 note=35 velocity=58 time=0
EXTRACT: note_on channel=9 note=38 velocity=50 time=0
EXTRACT: note_on channel=9 note=38 velocity=0 time=0.005376341666666667
EXTRACT: note_on channel=9 note=35 velocity=0 time=0
EXTRACT: control_change channel=3 control=64 value=127 time=0.16129025
EXTRACT: note_on channel=4 note=67 velocity=0 time=0.145161225
EXTRACT: note_on channel=11 note=67 velocity=0 time=0
EXTRACT: note_on channel=4 note=64 velocity=85 time=0
EXTRACT: note_on channel=5 note=67 velocity=0 time=0
EXTRACT: note_on channel=5 note=62 velocity=0 time=0
EXTRACT: note_on channel=5 note=59 velocity=0 time=0
EXTRACT: note_on channel=5 note=64 velocity=82 time=0
EXTRACT: note_on channel=5 note=59 velocity=82 time=0
EXTRACT: note_on channel=5 note=55 velocity=82 time=0
EXTRACT: note_on channel=5 note=62 velocity=82 time=0
EXTRACT: note_on channel=9 note=38 velocity=38 time=0
EXTRACT: note_on channel=10 note=67 velocity=0 time=0
EXTRACT: note_on channel=10 note=62 velocity=0 time=0
EXTRACT: note_on channel=10 note=59 velocity=0 time=0
EXTRACT: note_on channel=10 note=64 velocity=78 time=0
EXTRACT: note_on channel=10 note=59 velocity=78 time=0
EXTRACT: note_on channel=10 note=55 velocity=78 time=0
EXTRACT: note_on channel=10 note=62 velocity=78 time=0
EXTRACT: note_on channel=11 note=64 velocity=78 time=0
EXTRACT: note_on channel=9 note=38 velocity=0 time=0.005376341666666667
EXTRACT: note_on channel=2 note=64 velocity=55 time=0.3172041583333334
EXTRACT: note_on channel=2 note=62 velocity=55 time=0
EXTRACT: note_on channel=2 note=59 velocity=55 time=0
EXTRACT: note_on channel=2 note=67 velocity=55 time=0
EXTRACT: note_on channel=9 note=38 velocity=58 time=0
EXTRACT: note_on channel=9 note=42 velocity=48 time=0
EXTRACT: note_on channel=9 note=42 velocity=0 time=0.005376341666666667
EXTRACT: note_on channel=9 note=38 velocity=0 time=0
EXTRACT: note_on channel=3 note=55 velocity=63 time=0.03225805
EXTRACT: note_on channel=3 note=59 velocity=48 time=0
EXTRACT: note_on channel=3 note=50 velocity=37 time=0.03225805
EXTRACT: note_on channel=3 note=55 velocity=0 time=0.209677325
EXTRACT: note_on channel=1 note=40 velocity=0 time=0.043010733333333336
EXTRACT: note_on channel=1 note=47 velocity=71 time=0
EXTRACT: control_change channel=2 control=64 value=127 time=0
EXTRACT: note_on channel=9 note=38 velocity=38 time=0
EXTRACT: note_on channel=3 note=59 velocity=0 time=0.005376341666666667
EXTRACT: note_on channel=9 note=38 velocity=0 time=0
EXTRACT: note_on channel=3 note=50 velocity=0 time=0.010752683333333334
EXTRACT: note_on channel=2 note=67 velocity=0 time=0.0645161
EXTRACT: note_on channel=2 note=64 velocity=0 time=0
EXTRACT: note_on channel=2 note=62 velocity=0 time=0
EXTRACT: note_on channel=2 note=59 velocity=0 time=0
EXTRACT: note_on channel=1 note=47 velocity=0 time=0.08602146666666667
EXTRACT: note_on channel=4 note=64 velocity=0 time=0.1290322
EXTRACT: note_on channel=11 note=64 velocity=0 time=0
EXTRACT: note_on channel=1 note=47 velocity=81 time=0
EXTRACT: note_on channel=4 note=69 velocity=85 time=0
EXTRACT: note_on channel=5 note=62 velocity=0 time=0
EXTRACT: note_on channel=5 note=64 velocity=0 time=0
EXTRACT: note_on channel=5 note=59 velocity=0 time=0
EXTRACT: note_on channel=5 note=55 velocity=0 time=0
EXTRACT: note_on channel=5 note=64 velocity=82 time=0
EXTRACT: note_on channel=5 note=59 velocity=82 time=0
EXTRACT: note_on channel=5 note=69 velocity=82 time=0
EXTRACT: note_on channel=7 note=40 velocity=0 time=0
EXTRACT: note_on channel=7 note=40 velocity=85 time=0
EXTRACT: note_on channel=9 note=35 velocity=58 time=0
EXTRACT: note_on channel=9 note=38 velocity=58 time=0
EXTRACT: note_on channel=10 note=62 velocity=0 time=0
EXTRACT: note_on channel=10 note=64 velocity=0 time=0
EXTRACT: note_on channel=10 note=59 velocity=0 time=0
EXTRACT: note_on channel=10 note=55 velocity=0 time=0
EXTRACT: note_on channel=10 note=64 velocity=78 time=0
EXTRACT: note_on channel=10 note=59 velocity=78 time=0
EXTRACT: note_on channel=10 note=69 velocity=78 time=0
EXTRACT: note_on channel=11 note=69 velocity=78 time=0
EXTRACT: note_on channel=9 note=38 velocity=0 time=0.005376341666666667
EXTRACT: note_on channel=9 note=35 velocity=0 time=0
EXTRACT: note_on channel=2 note=64 velocity=55 time=0
EXTRACT: note_on channel=2 note=62 velocity=55 time=0
EXTRACT: note_on channel=2 note=59 velocity=55 time=0
EXTRACT: note_on channel=2 note=67 velocity=55 time=0
EXTRACT: note_on channel=3 note=59 velocity=51 time=0
EXTRACT: note_on channel=3 note=50 velocity=46 time=0
EXTRACT: note_on channel=4 note=69 velocity=0 time=0
EXTRACT: note_on channel=4 note=67 velocity=85 time=0
EXTRACT: note_on channel=5 note=69 velocity=0 time=0
EXTRACT: note_on channel=5 note=59 velocity=0 time=0
EXTRACT: note_on channel=5 note=64 velocity=0 time=0
EXTRACT: note_on channel=5 note=67 velocity=82 time=0
EXTRACT: note_on channel=7 note=40 velocity=0 time=0
EXTRACT: note_on channel=7 note=43 velocity=85 time=0
EXTRACT: note_on channel=9 note=38 velocity=38 time=0
EXTRACT: note_on channel=10 note=69 velocity=0 time=0
EXTRACT: note_on channel=10 note=59 velocity=0 time=0
EXTRACT: note_on channel=10 note=64 velocity=0 time=0
EXTRACT: note_on channel=10 note=67 velocity=78 time=0
EXTRACT: note_on channel=11 note=69 velocity=0 time=0
EXTRACT: note_on channel=11 note=67 velocity=78 time=0
EXTRACT: note_on channel=9 note=38 velocity=0 time=0.005376341666666667
EXTRACT: note_on channel=3 note=55 velocity=69 time=0.010752683333333334
EXTRACT: note_on channel=2 note=67 velocity=0 time=0.11827951666666667
EXTRACT: note_on channel=2 note=64 velocity=0 time=0
EXTRACT: note_on channel=2 note=62 velocity=0 time=0
EXTRACT: note_on channel=2 note=59 velocity=0 time=0
EXTRACT: note_on channel=1 note=47 velocity=0 time=0.10752683333333334
EXTRACT: note_on channel=3 note=55 velocity=0 time=0.005376341666666667
EXTRACT: note_on channel=3 note=50 velocity=0 time=0.021505366666666668
EXTRACT: note_on channel=3 note=59 velocity=0 time=0
EXTRACT: note_on channel=1 note=40 velocity=81 time=0
EXTRACT: note_on channel=4 note=67 velocity=0 time=0
EXTRACT: note_on channel=4 note=69 velocity=85 time=0
EXTRACT: note_on channel=5 note=67 velocity=0 time=0
EXTRACT: note_on channel=5 note=69 velocity=82 time=0
EXTRACT: note_on channel=9 note=38 velocity=48 time=0
EXTRACT: note_on channel=9 note=42 velocity=48 time=0
EXTRACT: note_on channel=10 note=67 velocity=0 time=0
EXTRACT: note_on channel=10 note=69 velocity=78 time=0
EXTRACT: note_on channel=11 note=67 velocity=0 time=0
EXTRACT: note_on channel=11 note=69 velocity=78 time=0
EXTRACT: note_on channel=9 note=42 velocity=0 time=0.005376341666666667
EXTRACT: note_on channel=9 note=38 velocity=0 time=0
EXTRACT: note_on channel=4 note=69 velocity=0 time=0
EXTRACT: note_on channel=4 note=72 velocity=85 time=0
EXTRACT: note_on channel=5 note=69 velocity=0 time=0
EXTRACT: note_on channel=5 note=67 velocity=82 time=0
EXTRACT: note_on channel=5 note=69 velocity=82 time=0
EXTRACT: note_on channel=5 note=64 velocity=82 time=0
EXTRACT: note_on channel=5 note=72 velocity=82 time=0
EXTRACT: note_on channel=7 note=43 velocity=0 time=0
EXTRACT: note_on channel=7 note=45 velocity=85 time=0
EXTRACT: note_on channel=9 note=38 velocity=58 time=0
EXTRACT: note_on channel=10 note=69 velocity=0 time=0
EXTRACT: note_on channel=10 note=67 velocity=78 time=0
EXTRACT: note_on channel=10 note=69 velocity=78 time=0
EXTRACT: note_on channel=10 note=64 velocity=78 time=0
EXTRACT: note_on channel=10 note=72 velocity=78 time=0
EXTRACT: note_on channel=11 note=69 velocity=0 time=0
EXTRACT: note_on channel=11 note=72 velocity=78 time=0
EXTRACT: note_on channel=9 note=38 velocity=0 time=0.005376341666666667
EXTRACT: note_on channel=1 note=40 velocity=0 time=0.2634407416666667
EXTRACT: note_on channel=1 note=45 velocity=80 time=0.05376341666666667
EXTRACT: control_change channel=2 control=64 value=0 time=0
EXTRACT: control_change channel=2 control=64 value=127 time=0
EXTRACT: control_change channel=2 control=64 value=0 time=0
EXTRACT: control_change channel=3 control=64 value=0 time=0
EXTRACT: note_on channel=3 note=45 velocity=53 time=0
EXTRACT: note_on channel=3 note=57 velocity=45 time=0
EXTRACT: note_on channel=3 note=55 velocity=59 time=0
EXTRACT: note_on channel=3 note=48 velocity=49 time=0
EXTRACT: note_on channel=7 note=45 velocity=0 time=0
EXTRACT: note_on channel=7 note=33 velocity=85 time=0
EXTRACT: note_on channel=9 note=35 velocity=58 time=0
EXTRACT: note_on channel=9 note=38 velocity=50 time=0
EXTRACT: note_on channel=9 note=38 velocity=0 time=0.005376341666666667
EXTRACT: note_on channel=9 note=35 velocity=0 time=0
EXTRACT: control_change channel=3 control=64 value=127 time=0.22043000833333334
EXTRACT: note_on channel=3 note=55 velocity=0 time=0.010752683333333334
EXTRACT: note_on channel=3 note=48 velocity=0 time=0.06989244166666667
EXTRACT: note_on channel=3 note=57 velocity=0 time=0
EXTRACT: note_on channel=4 note=72 velocity=0 time=0.005376341666666667
EXTRACT: note_on channel=11 note=72 velocity=0 time=0
EXTRACT: note_on channel=4 note=69 velocity=85 time=0
EXTRACT: note_on channel=5 note=72 velocity=0 time=0
EXTRACT: note_on channel=5 note=67 velocity=0 time=0
EXTRACT: note_on channel=5 note=69 velocity=0 time=0
EXTRACT: note_on channel=5 note=64 velocity=0 time=0
EXTRACT: note_on channel=5 note=69 velocity=82 time=0
EXTRACT: note_on channel=5 note=64 velocity=82 time=0
EXTRACT: note_on channel=5 note=60 velocity=82 time=0
EXTRACT: note_on channel=5 note=67 velocity=82 time=0
EXTRACT: note_on channel=9 note=38 velocity=38 time=0
EXTRACT: note_on channel=10 note=72 velocity=0 time=0
EXTRACT: note_on channel=10 note=67 velocity=0 time=0
EXTRACT: note_on channel=10 note=69 velocity=0 time=0
EXTRACT: note_on channel=10 note=64 velocity=0 time=0
EXTRACT: note_on channel=10 note=69 velocity=78 time=0
EXTRACT: note_on channel=10 note=64 velocity=78 time=0
EXTRACT: note_on channel=10 note=60 velocity=78 time=0
EXTRACT: note_on channel=10 note=67 velocity=78 time=0
EXTRACT: note_on channel=11 note=69 velocity=78 time=0
EXTRACT: note_on channel=9 note=38 velocity=0 time=0.005376341666666667
EXTRACT: note_on channel=2 note=67 velocity=55 time=0.3172041583333334
EXTRACT: note_on channel=2 note=64 velocity=55 time=0
EXTRACT: note_on channel=2 note=60 velocity=55 time=0
EXTRACT: note_on channel=2 note=69 velocity=55 time=0
EXTRACT: note_on channel=9 note=38 velocity=58 time=0
EXTRACT: note_on channel=9 note=42 velocity=48 time=0
EXTRACT: note_on channel=9 note=42 velocity=0 time=0.005376341666666667
EXTRACT: note_on channel=9 note=38 velocity=0 time=0
EXTRACT: note_on channel=3 note=57 velocity=58 time=0.005376341666666667
EXTRACT: note_on channel=3 note=55 velocity=63 time=0.005376341666666667
EXTRACT: note_on channel=3 note=48 velocity=45 time=0.010752683333333334
EXTRACT: note_on channel=3 note=55 velocity=0 time=0.22580635000000002
EXTRACT: note_on channel=3 note=48 velocity=0 time=0.048387075
EXTRACT: note_on channel=4 note=69 velocity=0 time=0.010752683333333334
EXTRACT: note_on channel=11 note=69 velocity=0 time=0
EXTRACT: control_change channel=2 control=64 value=127 time=0
EXTRACT: note_on channel=4 note=72 velocity=85 time=0
EXTRACT: note_on channel=5 note=67 velocity=0 time=0
EXTRACT: note_on channel=5 note=69 velocity=0 time=0
EXTRACT: note_on channel=5 note=64 velocity=0 time=0
EXTRACT: note_on channel=5 note=60 velocity=0 time=0
EXTRACT: note_on channel=5 note=69 velocity=82 time=0
EXTRACT: note_on channel=5 note=67 velocity=82 time=0
EXTRACT: note_on channel=5 note=64 velocity=82 time=0
EXTRACT: note_on channel=5 note=72 velocity=82 time=0
EXTRACT: note_on channel=9 note=38 velocity=38 time=0
EXTRACT: note_on channel=10 note=67 velocity=0 time=0
EXTRACT: note_on channel=10 note=69 velocity=0 time=0
EXTRACT: note_on channel=10 note=64 velocity=0 time=0
EXTRACT: note_on channel=10 note=60 velocity=0 time=0
EXTRACT: note_on channel=10 note=69 velocity=78 time=0
EXTRACT: note_on channel=10 note=67 velocity=78 time=0
EXTRACT: note_on channel=10 note=64 velocity=78 time=0
EXTRACT: note_on channel=10 note=72 velocity=78 time=0
EXTRACT: note_on channel=11 note=72 velocity=78 time=0
EXTRACT: note_on channel=3 note=57 velocity=0 time=0.005376341666666667
EXTRACT: note_on channel=9 note=38 velocity=0 time=0
EXTRACT: note_on channel=2 note=69 velocity=0 time=0.07526878333333334
EXTRACT: note_on channel=2 note=67 velocity=0 time=0
EXTRACT: note_on channel=2 note=64 velocity=0 time=0
EXTRACT: note_on channel=2 note=60 velocity=0 time=0
EXTRACT: note_on channel=3 note=45 velocity=0 time=0.043010733333333336
EXTRACT: note_on channel=1 note=40 velocity=77 time=0.19892464166666668
EXTRACT: note_on channel=7 note=33 velocity=0 time=0
EXTRACT: note_on channel=7 note=33 velocity=85 time=0
EXTRACT: note_on channel=9 note=35 velocity=58 time=0
EXTRACT: note_on channel=9 note=38 velocity=58 time=0
EXTRACT: note_on channel=3 note=40 velocity=55 time=0.005376341666666667
EXTRACT: note_on channel=9 note=38 velocity=0 time=0
EXTRACT: note_on channel=9 note=35 velocity=0 time=0
EXTRACT: note_on channel=1 note=45 velocity=0 time=0.080645125
EXTRACT: control_change channel=3 control=64 value=0 time=0.06989244166666667
EXTRACT: note_on channel=4 note=72 velocity=0 time=0.15591390833333335
EXTRACT: note_on channel=11 note=72 velocity=0 time=0
EXTRACT: note_on channel=2 note=67 velocity=55 time=0
EXTRACT: note_on channel=2 note=64 velocity=55 time=0
EXTRACT: note_on channel=2 note=60 velocity=55 time=0
EXTRACT: note_on channel=2 note=69 velocity=55 time=0
EXTRACT: note_on channel=4 note=69 velocity=85 time=0
EXTRACT: note_on channel=5 note=72 velocity=0 time=0
EXTRACT: note_on channel=5 note=69 velocity=0 time=0
EXTRACT: note_on channel=5 note=67 velocity=0 time=0
EXTRACT: note_on channel=5 note=64 velocity=0 time=0
EXTRACT: note_on channel=5 note=69 velocity=82 time=0
EXTRACT: note_on channel=9 note=38 velocity=38 time=0
EXTRACT: note_on channel=10 note=72 velocity=0 time=0
EXTRACT: note_on channel=10 note=69 velocity=0 time=0
EXTRACT: note_on channel=10 note=67 velocity=0 time=0
EXTRACT: note_on channel=10 note=64 velocity=0 time=0
EXTRACT: note_on channel=10 note=69 velocity=78 time=0
EXTRACT: note_on channel=11 note=69 velocity=78 time=0
EXTRACT: note_on channel=9 note=38 velocity=0 time=0.005376341666666667
EXTRACT: note_on channel=3 note=48 velocity=42 time=0.021505366666666668
EXTRACT: note_on channel=3 note=55 velocity=57 time=0.010752683333333334
EXTRACT: note_on channel=3 note=57 velocity=46 time=0
EXTRACT: note_on channel=2 note=69 velocity=0 time=0.09677415
EXTRACT: note_on channel=2 note=67 velocity=0 time=0
EXTRACT: note_on channel=2 note=64 velocity=0 time=0
EXTRACT: note_on channel=2 note=60 velocity=0 time=0
EXTRACT: note_on channel=4 note=69 velocity=0 time=0
EXTRACT: note_on channel=4 note=67 velocity=85 time=0
EXTRACT: note_on channel=5 note=69 velocity=0 time=0
EXTRACT: note_on channel=5 note=67 velocity=82 time=0
EXTRACT: note_on channel=7 note=33 velocity=0 time=0
EXTRACT: note_on channel=7 note=45 velocity=85 time=0
EXTRACT: note_on channel=9 note=38 velocity=48 time=0
EXTRACT: note_on channel=9 note=42 velocity=48 time=0
EXTRACT: note_on channel=10 note=69 velocity=0 time=0
EXTRACT: note_on channel=10 note=67 velocity=78 time=0
EXTRACT: note_on channel=11 note=69 velocity=0 time=0
EXTRACT: note_on channel=11 note=67 velocity=78 time=0
EXTRACT: note_on channel=9 note=42 velocity=0 time=0.005376341666666667
EXTRACT: note_on channel=9 note=38 velocity=0 time=0
EXTRACT: note_on channel=4 note=67 velocity=0 time=0
EXTRACT: note_on channel=4 note=69 velocity=85 time=0
EXTRACT: note_on channel=5 note=67 velocity=0 time=0
EXTRACT: note_on channel=5 note=69 velocity=82 time=0
EXTRACT: note_on channel=5 note=59 velocity=82 time=0
EXTRACT: note_on channel=5 note=62 velocity=82 time=0
EXTRACT: note_on channel=9 note=38 velocity=58 time=0
EXTRACT: note_on channel=10 note=67 velocity=0 time=0
EXTRACT: note_on channel=10 note=69 velocity=78 time=0
EXTRACT: note_on channel=10 note=59 velocity=78 time=0
EXTRACT: note_on channel=10 note=62 velocity=78 time=0
EXTRACT: note_on channel=11 note=67 velocity=0 time=0
EXTRACT: note_on channel=11 note=69 velocity=78 time=0
EXTRACT: note_on channel=9 note=38 velocity=0 time=0.005376341666666667
EXTRACT: note_on channel=3 note=55 velocity=0 time=0.016129025
EXTRACT: note_on channel=3 note=48 velocity=0 time=0.048387075
EXTRACT: note_on channel=3 note=40 velocity=0 time=0.021505366666666668
EXTRACT: note_on channel=3 note=57 velocity=0 time=0
EXTRACT: note_on channel=1 note=40 velocity=0 time=0.2311826916666667
EXTRACT: note_on channel=1 note=40 velocity=87 time=0
EXTRACT: control_change channel=2 control=64 value=0 time=0
EXTRACT: note_on channel=3 note=40 velocity=53 time=0
EXTRACT: note_on channel=3 note=59 velocity=45 time=0
EXTRACT: note_on channel=3 note=55 velocity=59 time=0
EXTRACT: note_on channel=3 note=50 velocity=49 time=0
EXTRACT: note_on channel=7 note=45 velocity=0 time=0
EXTRACT: note_on channel=7 note=40 velocity=85 time=0
EXTRACT: note_on channel=9 note=35 velocity=58 time=0
EXTRACT: note_on channel=9 note=38 velocity=50 time=0
EXTRACT: note_on channel=9 note=38 velocity=0 time=0.005376341666666667
EXTRACT: note_on channel=9 note=35 velocity=0 time=0
EXTRACT: control_change channel=3 control=64 value=127 time=0.22043000833333334
EXTRACT: note_on channel=3 note=55 velocity=0 time=0.010752683333333334
EXTRACT: note_on channel=3 note=50 velocity=0 time=0.06989244166666667
EXTRACT: note_on channel=3 note=59 velocity=0 time=0
EXTRACT: note_on channel=4 note=69 velocity=0 time=0.005376341666666667
EXTRACT: note_on channel=11 note=69 velocity=0 time=0
EXTRACT: note_on channel=4 note=67 velocity=85 time=0.010752683333333334
EXTRACT: note_on channel=5 note=62 velocity=0 time=0
EXTRACT: note_on channel=5 note=59 velocity=0 time=0
EXTRACT: note_on channel=5 note=69 velocity=0 time=0
EXTRACT: note_on channel=5 note=67 velocity=82 time=0
EXTRACT: note_on channel=9 note=38 velocity=38 time=0
EXTRACT: note_on channel=10 note=62 velocity=0 time=0
EXTRACT: note_on channel=10 note=59 velocity=0 time=0
EXTRACT: note_on channel=10 note=69 velocity=0 time=0
EXTRACT: note_on channel=10 note=67 velocity=78 time=0
EXTRACT: note_on channel=11 note=67 velocity=78 time=0
EXTRACT: note_on channel=9 note=38 velocity=0 time=0.005376341666666667
EXTRACT: note_on channel=4 note=67 velocity=0 time=0.3172041583333334
EXTRACT: note_on channel=5 note=67 velocity=0 time=0
EXTRACT: note_on channel=9 note=38 velocity=58 time=0
EXTRACT: note_on channel=9 note=42 velocity=48 time=0
EXTRACT: note_on channel=10 note=67 velocity=0 time=0
EXTRACT: note_on channel=11 note=67 velocity=0 time=0
EXTRACT: note_on channel=9 note=42 velocity=0 time=0.005376341666666667
EXTRACT: note_on channel=9 note=38 velocity=0 time=0
EXTRACT: note_on channel=3 note=59 velocity=58 time=0.005376341666666667
EXTRACT: note_on channel=3 note=55 velocity=63 time=0.005376341666666667
EXTRACT: note_on channel=3 note=50 velocity=45 time=0.010752683333333334
EXTRACT: note_on channel=3 note=55 velocity=0 time=0.22580635000000002
EXTRACT: note_on channel=3 note=50 velocity=0 time=0.048387075
EXTRACT: note_on channel=4 note=67 velocity=85 time=0
EXTRACT: note_on channel=5 note=67 velocity=82 time=0
EXTRACT: note_on channel=9 note=38 velocity=38 time=0
EXTRACT: note_on channel=10 note=67 velocity=78 time=0
EXTRACT: note_on channel=11 note=67 velocity=78 time=0
EXTRACT: note_on channel=3 note=59 velocity=0 time=0.005376341666666667
EXTRACT: note_on channel=9 note=38 velocity=0 time=0
EXTRACT: note_on channel=2 note=64 velocity=55 time=0.021505366666666668
EXTRACT: note_on channel=2 note=62 velocity=55 time=0
EXTRACT: note_on channel=2 note=59 velocity=55 time=0
EXTRACT: note_on channel=2 note=67 velocity=55 time=0
EXTRACT: note_on channel=3 note=40 velocity=0 time=0.09677415
EXTRACT: note_on channel=1 note=35 velocity=79 time=0
EXTRACT: note_on channel=4 note=67 velocity=0 time=0
EXTRACT: note_on channel=4 note=69 velocity=85 time=0
EXTRACT: note_on channel=5 note=67 velocity=0 time=0
EXTRACT: note_on channel=5 note=59 velocity=82 time=0
EXTRACT: note_on channel=5 note=62 velocity=82 time=0
EXTRACT: note_on channel=5 note=69 velocity=82 time=0
EXTRACT: note_on channel=7 note=40 velocity=0 time=0
EXTRACT: note_on channel=7 note=40 velocity=85 time=0
EXTRACT: note_on channel=9 note=35 velocity=58 time=0
EXTRACT: note_on channel=9 note=38 velocity=58 time=0
EXTRACT: note_on channel=10 note=67 velocity=0 time=0
EXTRACT: note_on channel=10 note=59 velocity=78 time=0
EXTRACT: note_on channel=10 note=62 velocity=78 time=0
EXTRACT: note_on channel=10 note=69 velocity=78 time=0
EXTRACT: note_on channel=11 note=67 velocity=0 time=0
EXTRACT: note_on channel=11 note=69 velocity=78 time=0
EXTRACT: note_on channel=3 note=35 velocity=55 time=0.005376341666666667
EXTRACT: note_on channel=9 note=38 velocity=0 time=0
EXTRACT: note_on channel=9 note=35 velocity=0 time=0
EXTRACT: control_change channel=3 control=64 value=0 time=0.15053756666666668
EXTRACT: note_on channel=1 note=40 velocity=0 time=0.005376341666666667
EXTRACT: note_on channel=4 note=69 velocity=0 time=0
EXTRACT: note_on channel=4 note=67 velocity=85 time=0
EXTRACT: note_on channel=5 note=69 velocity=0 time=0
EXTRACT: note_on channel=5 note=62 velocity=0 time=0
EXTRACT: note_on channel=5 note=59 velocity=0 time=0
EXTRACT: note_on channel=5 note=67 velocity=82 time=0
EXTRACT: note_on channel=7 note=40 velocity=0 time=0
EXTRACT: note_on channel=7 note=43 velocity=85 time=0
EXTRACT: note_on channel=9 note=38 velocity=38 time=0
EXTRACT: note_on channel=10 note=69 velocity=0 time=0
EXTRACT: note_on channel=10 note=62 velocity=0 time=0
EXTRACT: note_on channel=10 note=59 velocity=0 time=0
EXTRACT: note_on channel=10 note=67 velocity=78 time=0
EXTRACT: note_on channel=11 note=69 velocity=0 time=0
EXTRACT: note_on channel=11 note=67 velocity=78 time=0
EXTRACT: note_on channel=9 note=38 velocity=0 time=0.005376341666666667
EXTRACT: note_on channel=3 note=50 velocity=42 time=0.021505366666666668
EXTRACT: note_on channel=3 note=55 velocity=57 time=0.010752683333333334
EXTRACT: note_on channel=3 note=59 velocity=46 time=0
EXTRACT: note_on channel=4 note=67 velocity=0 time=0
EXTRACT: note_on channel=4 note=69 velocity=85 time=0
EXTRACT: note_on channel=5 note=67 velocity=0 time=0
EXTRACT: note_on channel=5 note=69 velocity=82 time=0
EXTRACT: note_on channel=9 note=38 velocity=48 time=0
EXTRACT: note_on channel=9 note=42 velocity=48 time=0
EXTRACT: note_on channel=10 note=67 velocity=0 time=0
EXTRACT: note_on channel=10 note=69 velocity=78 time=0
EXTRACT: note_on channel=11 note=67 velocity=0 time=0
EXTRACT: note_on channel=11 note=69 velocity=78 time=0
EXTRACT: note_on channel=9 note=42 velocity=0 time=0.005376341666666667
EXTRACT: note_on channel=9 note=38 velocity=0 time=0
EXTRACT: note_on channel=4 note=69 velocity=0 time=0
EXTRACT: note_on channel=4 note=72 velocity=85 time=0
EXTRACT: note_on channel=5 note=69 velocity=0 time=0
EXTRACT: note_on channel=5 note=72 velocity=82 time=0
EXTRACT: note_on channel=5 note=65 velocity=82 time=0
EXTRACT: note_on channel=5 note=69 velocity=82 time=0
EXTRACT: note_on channel=7 note=43 velocity=0 time=0
EXTRACT: note_on channel=7 note=45 velocity=85 time=0
EXTRACT: note_on channel=9 note=38 velocity=58 time=0
EXTRACT: note_on channel=10 note=69 velocity=0 time=0
EXTRACT: note_on channel=10 note=72 velocity=78 time=0
EXTRACT: note_on channel=10 note=65 velocity=78 time=0
EXTRACT: note_on channel=10 note=69 velocity=78 time=0
EXTRACT: note_on channel=11 note=69 velocity=0 time=0
EXTRACT: note_on channel=11 note=72 velocity=78 time=0
EXTRACT: note_on channel=9 note=38 velocity=0 time=0.005376341666666667
EXTRACT: note_on channel=3 note=55 velocity=0 time=0.016129025
EXTRACT: note_on channel=3 note=50 velocity=0 time=0.048387075
EXTRACT: note_on channel=3 note=35 velocity=0 time=0.021505366666666668
EXTRACT: note_on channel=3 note=59 velocity=0 time=0
EXTRACT: note_on channel=1 note=35 velocity=0 time=0.2311826916666667
EXTRACT: note_on channel=1 note=41 velocity=77 time=0
EXTRACT: note_on channel=2 note=67 velocity=0 time=0
EXTRACT: note_on channel=2 note=64 velocity=0 time=0
EXTRACT: note_on channel=2 note=62 velocity=0 time=0
EXTRACT: note_on channel=2 note=59 velocity=0 time=0
EXTRACT: note_on channel=2 note=65 velocity=56 time=0
EXTRACT: note_on channel=7 note=45 velocity=0 time=0
EXTRACT: note_on channel=7 note=41 velocity=85 time=0
EXTRACT: note_on channel=9 note=35 velocity=58 time=0
EXTRACT: note_on channel=9 note=38 velocity=50 time=0
EXTRACT: note_on channel=3 note=53 velocity=47 time=0.005376341666666667
EXTRACT: note_on channel=9 note=38 velocity=0 time=0
EXTRACT: note_on channel=9 note=35 velocity=0 time=0
EXTRACT: note_on channel=3 note=60 velocity=59 time=0.005376341666666667
EXTRACT: note_on channel=3 note=65 velocity=42 time=0.005376341666666667
EXTRACT: note_on channel=2 note=60 velocity=67 time=0.03225805
EXTRACT: note_on channel=2 note=53 velocity=39 time=0
EXTRACT: control_change channel=3 control=64 value=127 time=0.15053756666666668
EXTRACT: note_on channel=2 note=69 velocity=52 time=0.09139780833333334
EXTRACT: note_on channel=3 note=60 velocity=0 time=0.021505366666666668
EXTRACT: note_on channel=4 note=72 velocity=0 time=0
EXTRACT: note_on channel=11 note=72 velocity=0 time=0
EXTRACT: note_on channel=4 note=69 velocity=85 time=0
EXTRACT: note_on channel=5 note=69 velocity=0 time=0
EXTRACT: note_on channel=5 note=65 velocity=0 time=0
EXTRACT: note_on channel=5 note=72 velocity=0 time=0
EXTRACT: note_on channel=5 note=69 velocity=82 time=0
EXTRACT: note_on channel=5 note=60 velocity=82 time=0
EXTRACT: note_on channel=5 note=65 velocity=82 time=0
EXTRACT: note_on channel=9 note=38 velocity=38 time=0
EXTRACT: note_on channel=10 note=69 velocity=0 time=0
EXTRACT: note_on channel=10 note=65 velocity=0 time=0
EXTRACT: note_on channel=10 note=72 velocity=0 time=0
EXTRACT: note_on channel=10 note=69 velocity=78 time=0
EXTRACT: note_on channel=10 note=60 velocity=78 time=0
EXTRACT: note_on channel=10 note=65 velocity=78 time=0
EXTRACT: note_on channel=11 note=69 velocity=78 time=0
EXTRACT: note_on channel=9 note=38 velocity=0 time=0.005376341666666667
EXTRACT: note_on channel=3 note=53 velocity=0 time=0.043010733333333336
EXTRACT: note_on channel=3 note=65 velocity=0 time=0.048387075
EXTRACT: control_change channel=2 control=64 value=127 time=0.0645161
EXTRACT: note_on channel=9 note=38 velocity=58 time=0.16129025
EXTRACT: note_on channel=9 note=42 velocity=48 time=0
EXTRACT: note_on channel=9 note=42 velocity=0 time=0.005376341666666667
EXTRACT: note_on channel=9 note=38 velocity=0 time=0
EXTRACT: note_on channel=1 note=41 velocity=0 time=0.23655903333333334
EXTRACT: note_on channel=4 note=69 velocity=0 time=0.06989244166666667
EXTRACT: note_on channel=11 note=69 velocity=0 time=0
EXTRACT: note_on channel=1 note=41 velocity=83 time=0
EXTRACT: note_on channel=4 note=72 velocity=85 time=0
EXTRACT: note_on channel=5 note=65 velocity=0 time=0
EXTRACT: note_on channel=5 note=60 velocity=0 time=0
EXTRACT: note_on channel=5 note=69 velocity=0 time=0
EXTRACT: note_on channel=5 note=72 velocity=82 time=0
EXTRACT: note_on channel=7 note=41 velocity=0 time=0
EXTRACT: note_on channel=7 note=41 velocity=85 time=0
EXTRACT: note_on channel=9 note=38 velocity=38 time=0
EXTRACT: note_on channel=10 note=65 velocity=0 time=0
EXTRACT: note_on channel=10 note=60 velocity=0 time=0
EXTRACT: note_on channel=10 note=69 velocity=0 time=0
EXTRACT: note_on channel=10 note=72 velocity=78 time=0
EXTRACT: note_on channel=11 note=72 velocity=78 time=0
EXTRACT: note_on channel=9 note=38 velocity=0 time=0.005376341666666667
EXTRACT: control_change channel=3 control=64 value=0 time=0.07526878333333334
EXTRACT: note_on channel=3 note=50 velocity=47 time=0.005376341666666667
EXTRACT: note_on channel=3 note=55 velocity=59 time=0.005376341666666667
EXTRACT: note_on channel=3 note=59 velocity=42 time=0.005376341666666667
EXTRACT: control_change channel=2 control=0 value=0 time=0.0645161
EXTRACT: note_on channel=1 note=41 velocity=0 time=0
EXTRACT: note_on channel=1 note=40 velocity=82 time=0
EXTRACT: note_on channel=2 note=69 velocity=0 time=0
EXTRACT: note_on channel=2 note=65 velocity=0 time=0
EXTRACT: note_on channel=2 note=60 velocity=0 time=0
EXTRACT: note_on channel=2 note=53 velocity=0 time=0
EXTRACT: control_change channel=2 control=0 value=0 time=0
EXTRACT: control_change channel=2 control=64 value=0 time=0
EXTRACT: note_on channel=4 note=72 velocity=0 time=0
EXTRACT: note_on channel=4 note=69 velocity=85 time=0
EXTRACT: note_on channel=5 note=72 velocity=0 time=0
EXTRACT: note_on channel=5 note=62 velocity=82 time=0
EXTRACT: note_on channel=5 note=59 velocity=82 time=0
EXTRACT: note_on channel=5 note=69 velocity=82 time=0
EXTRACT: note_on channel=7 note=41 velocity=0 time=0
EXTRACT: note_on channel=7 note=40 velocity=85 time=0
EXTRACT: note_on channel=9 note=35 velocity=58 time=0
EXTRACT: note_on channel=9 note=38 velocity=58 time=0
EXTRACT: note_on channel=10 note=72 velocity=0 time=0
EXTRACT: note_on channel=10 note=62 velocity=78 time=0
EXTRACT: note_on channel=10 note=59 velocity=78 time=0
EXTRACT: note_on channel=10 note=69 velocity=78 time=0
EXTRACT: note_on channel=11 note=72 velocity=0 time=0
EXTRACT: note_on channel=11 note=69 velocity=78 time=0
EXTRACT: note_on channel=9 note=38 velocity=0 time=0.005376341666666667
EXTRACT: note_on channel=9 note=35 velocity=0 time=0
EXTRACT: note_on channel=2 note=64 velocity=55 time=0.005376341666666667
EXTRACT: note_on channel=2 note=62 velocity=55 time=0
EXTRACT: note_on channel=2 note=59 velocity=55 time=0
EXTRACT: note_on channel=2 note=67 velocity=55 time=0
EXTRACT: control_change channel=3 control=64 value=127 time=0.18817195833333333
EXTRACT: note_on channel=3 note=55 velocity=0 time=0.10215049166666668
EXTRACT: note_on channel=4 note=69 velocity=0 time=0
EXTRACT: note_on channel=4 note=67 velocity=85 time=0
EXTRACT: note_on channel=5 note=69 velocity=0 time=0
EXTRACT: note_on channel=5 note=59 velocity=0 time=0
EXTRACT: note_on channel=5 note=62 velocity=0 time=0
EXTRACT: note_on channel=5 note=67 velocity=82 time=0
EXTRACT: note_on channel=9 note=38 velocity=38 time=0
EXTRACT: note_on channel=10 note=69 velocity=0 time=0
EXTRACT: note_on channel=10 note=59 velocity=0 time=0
EXTRACT: note_on channel=10 note=62 velocity=0 time=0
EXTRACT: note_on channel=10 note=67 velocity=78 time=0
EXTRACT: note_on channel=11 note=69 velocity=0 time=0
EXTRACT: note_on channel=11 note=67 velocity=78 time=0
EXTRACT: note_on channel=9 note=38 velocity=0 time=0.005376341666666667
EXTRACT: note_on channel=3 note=50 velocity=0 time=0.03225805
EXTRACT: note_on channel=3 note=59 velocity=0 time=0.048387075
EXTRACT: note_on channel=4 note=67 velocity=0 time=0
EXTRACT: note_on channel=4 note=64 velocity=85 time=0
EXTRACT: note_on channel=5 note=67 velocity=0 time=0
EXTRACT: note_on channel=5 note=64 velocity=82 time=0
EXTRACT: note_on channel=9 note=38 velocity=48 time=0
EXTRACT: note_on channel=9 note=42 velocity=48 time=0
EXTRACT: note_on channel=10 note=67 velocity=0 time=0
EXTRACT: note_on channel=10 note=64 velocity=78 time=0
EXTRACT: note_on channel=11 note=67 velocity=0 time=0
EXTRACT: note_on channel=11 note=64 velocity=78 time=0
EXTRACT: note_on channel=9 note=42 velocity=0 time=0.005376341666666667
EXTRACT: note_on channel=9 note=38 velocity=0 time=0
EXTRACT: note_on channel=4 note=64 velocity=0 time=0
EXTRACT: note_on channel=4 note=67 velocity=85 time=0
EXTRACT: note_on channel=5 note=64 velocity=0 time=0
EXTRACT: note_on channel=5 note=60 velocity=82 time=0
EXTRACT: note_on channel=5 note=67 velocity=82 time=0
EXTRACT: note_on channel=5 note=64 velocity=82 time=0
EXTRACT: note_on channel=7 note=40 velocity=0 time=0
EXTRACT: note_on channel=7 note=40 velocity=85 time=0
EXTRACT: note_on channel=9 note=38 velocity=58 time=0
EXTRACT: note_on channel=10 note=64 velocity=0 time=0
EXTRACT: note_on channel=10 note=60 velocity=78 time=0
EXTRACT: note_on channel=10 note=67 velocity=78 time=0
EXTRACT: note_on channel=10 note=64 velocity=78 time=0
EXTRACT: note_on channel=11 note=64 velocity=0 time=0
EXTRACT: note_on channel=11 note=67 velocity=78 time=0
EXTRACT: note_on channel=9 note=38 velocity=0 time=0.005376341666666667
EXTRACT: note_on channel=1 note=40 velocity=0 time=0.1290322
EXTRACT: note_on channel=1 note=33 velocity=77 time=0.18817195833333333
EXTRACT: note_on channel=2 note=67 velocity=0 time=0
EXTRACT: note_on channel=2 note=64 velocity=0 time=0
EXTRACT: note_on channel=2 note=62 velocity=0 time=0
EXTRACT: note_on channel=2 note=59 velocity=0 time=0
EXTRACT: control_change channel=3 control=64 value=0 time=0
EXTRACT: note_on channel=3 note=45 velocity=53 time=0
EXTRACT: note_on channel=3 note=60 velocity=45 time=0
EXTRACT: note_on channel=3 note=57 velocity=59 time=0
EXTRACT: note_on channel=3 note=48 velocity=49 time=0
EXTRACT: note_on channel=7 note=40 velocity=0 time=0
EXTRACT: note_on channel=7 note=33 velocity=85 time=0
EXTRACT: note_on channel=9 note=35 velocity=58 time=0
EXTRACT: note_on channel=9 note=38 velocity=50 time=0
EXTRACT: note_on channel=9 note=38 velocity=0 time=0.005376341666666667
EXTRACT: note_on channel=9 note=35 velocity=0 time=0
EXTRACT: note_on channel=2 note=69 velocity=62 time=0.005376341666666667
EXTRACT: control_change channel=3 control=64 value=127 time=0.21505366666666667
EXTRACT: note_on channel=3 note=57 velocity=0 time=0.010752683333333334
EXTRACT: note_on channel=3 note=48 velocity=0 time=0.06989244166666667
EXTRACT: note_on channel=3 note=60 velocity=0 time=0
EXTRACT: note_on channel=4 note=67 velocity=0 time=0.005376341666666667
EXTRACT: note_on channel=11 note=67 velocity=0 time=0
EXTRACT: note_on channel=4 note=64 velocity=85 time=0
EXTRACT: note_on channel=5 note=64 velocity=0 time=0
EXTRACT: note_on channel=5 note=67 velocity=0 time=0
EXTRACT: note_on channel=5 note=60 velocity=0 time=0
EXTRACT: note_on channel=5 note=57 velocity=82 time=0
EXTRACT: note_on channel=5 note=64 velocity=82 time=0
EXTRACT: note_on channel=5 note=60 velocity=82 time=0
EXTRACT: note_on channel=9 note=38 velocity=38 time=0
EXTRACT: note_on channel=10 note=64 velocity=0 time=0
EXTRACT: note_on channel=10 note=67 velocity=0 time=0
EXTRACT: note_on channel=10 note=60 velocity=0 time=0
EXTRACT: note_on channel=10 note=57 velocity=78 time=0
EXTRACT: note_on channel=10 note=64 velocity=78 time=0
EXTRACT: note_on channel=10 note=60 velocity=78 time=0
EXTRACT: note_on channel=11 note=64 velocity=78 time=0
EXTRACT: note_on channel=9 note=38 velocity=0 time=0.005376341666666667
EXTRACT: control_change channel=2 control=64 value=127 time=0.3172041583333334
EXTRACT: note_on channel=2 note=64 velocity=54 time=0
EXTRACT: note_on channel=2 note=60 velocity=54 time=0
EXTRACT: note_on channel=2 note=57 velocity=54 time=0
EXTRACT: note_on channel=9 note=38 velocity=58 time=0
EXTRACT: note_on channel=9 note=42 velocity=48 time=0
EXTRACT: note_on channel=9 note=42 velocity=0 time=0.005376341666666667
EXTRACT: note_on channel=9 note=38 velocity=0 time=0
EXTRACT: note_on channel=3 note=60 velocity=58 time=0.005376341666666667
EXTRACT: note_on channel=3 note=57 velocity=63 time=0.005376341666666667
EXTRACT: note_on channel=3 note=48 velocity=45 time=0.010752683333333334
EXTRACT: note_on channel=2 note=57 velocity=0 time=0.17204293333333334
EXTRACT: note_on channel=2 note=60 velocity=0 time=0
EXTRACT: note_on channel=2 note=64 velocity=0 time=0
EXTRACT: note_on channel=3 note=57 velocity=0 time=0.05376341666666667
EXTRACT: note_on channel=3 note=48 velocity=0 time=0.048387075
EXTRACT: note_on channel=1 note=33 velocity=0 time=0.021505366666666668
EXTRACT: note_on channel=1 note=40 velocity=71 time=0
EXTRACT: note_on channel=7 note=33 velocity=0 time=0
EXTRACT: note_on channel=7 note=40 velocity=85 time=0
EXTRACT: note_on channel=9 note=38 velocity=38 time=0
EXTRACT: note_on channel=3 note=60 velocity=0 time=0.005376341666666667
EXTRACT: note_on channel=9 note=38 velocity=0 time=0
EXTRACT: note_on channel=3 note=45 velocity=0 time=0.11827951666666667
EXTRACT: note_on channel=4 note=64 velocity=0 time=0.021505366666666668
EXTRACT: note_on channel=11 note=64 velocity=0 time=0
EXTRACT: note_on channel=4 note=60 velocity=85 time=0
EXTRACT: note_on channel=5 note=60 velocity=0 time=0
EXTRACT: note_on channel=5 note=64 velocity=0 time=0
EXTRACT: note_on channel=5 note=57 velocity=0 time=0
EXTRACT: note_on channel=5 note=60 velocity=82 time=0
EXTRACT: note_on channel=10 note=60 velocity=0 time=0
EXTRACT: note_on channel=10 note=64 velocity=0 time=0
EXTRACT: note_on channel=10 note=57 velocity=0 time=0
EXTRACT: note_on channel=10 note=60 velocity=78 time=0
EXTRACT: note_on channel=11 note=60 velocity=78 time=0
EXTRACT: note_on channel=1 note=40 velocity=0 time=0.005376341666666667
EXTRACT: note_on channel=1 note=40 velocity=81 time=0
EXTRACT: note_on channel=4 note=60 velocity=0 time=0
EXTRACT: note_on channel=4 note=60 velocity=85 time=0
EXTRACT: note_on channel=5 note=60 velocity=0 time=0
EXTRACT: note_on channel=5 note=60 velocity=82 time=0
EXTRACT: note_on channel=7 note=40 velocity=0 time=0
EXTRACT: note_on channel=7 note=45 velocity=85 time=0
EXTRACT: note_on channel=9 note=35 velocity=58 time=0
EXTRACT: note_on channel=9 note=38 velocity=58 time=0
EXTRACT: note_on channel=10 note=60 velocity=0 time=0
EXTRACT: note_on channel=10 note=60 velocity=78 time=0
EXTRACT: note_on channel=11 note=60 velocity=0 time=0
EXTRACT: note_on channel=11 note=60 velocity=78 time=0
EXTRACT: note_on channel=3 note=40 velocity=55 time=0.005376341666666667
EXTRACT: note_on channel=9 note=38 velocity=0 time=0
EXTRACT: note_on channel=9 note=35 velocity=0 time=0
EXTRACT: control_change channel=3 control=64 value=0 time=0.15053756666666668
EXTRACT: note_on channel=2 note=64 velocity=54 time=0
EXTRACT: note_on channel=2 note=60 velocity=54 time=0
EXTRACT: note_on channel=2 note=57 velocity=54 time=0
EXTRACT: note_on channel=4 note=60 velocity=0 time=0
EXTRACT: note_on channel=4 note=62 velocity=85 time=0
EXTRACT: note_on channel=5 note=60 velocity=0 time=0
EXTRACT: note_on channel=5 note=62 velocity=82 time=0
EXTRACT: note_on channel=9 note=38 velocity=38 time=0
EXTRACT: note_on channel=10 note=60 velocity=0 time=0
EXTRACT: note_on channel=10 note=62 velocity=78 time=0
EXTRACT: note_on channel=11 note=60 velocity=0 time=0
EXTRACT: note_on channel=11 note=62 velocity=78 time=0
EXTRACT: note_on channel=9 note=38 velocity=0 time=0.005376341666666667
EXTRACT: note_on channel=3 note=48 velocity=42 time=0.021505366666666668
EXTRACT: note_on channel=3 note=57 velocity=57 time=0.010752683333333334
EXTRACT: note_on channel=3 note=60 velocity=46 time=0
EXTRACT: note_on channel=2 note=57 velocity=0 time=0.145161225
EXTRACT: note_on channel=2 note=60 velocity=0 time=0
EXTRACT: note_on channel=2 note=64 velocity=0 time=0
EXTRACT: note_on channel=1 note=40 velocity=0 time=0.059139758333333334
EXTRACT: note_on channel=1 note=33 velocity=81 time=0
EXTRACT: note_on channel=4 note=62 velocity=0 time=0
EXTRACT: note_on channel=4 note=64 velocity=85 time=0
EXTRACT: note_on channel=5 note=62 velocity=0 time=0
EXTRACT: note_on channel=5 note=64 velocity=82 time=0
EXTRACT: note_on channel=9 note=38 velocity=48 time=0
EXTRACT: note_on channel=9 note=42 velocity=48 time=0
EXTRACT: note_on channel=10 note=62 velocity=0 time=0
EXTRACT: note_on channel=10 note=64 velocity=78 time=0
EXTRACT: note_on channel=11 note=62 velocity=0 time=0
EXTRACT: note_on channel=11 note=64 velocity=78 time=0
EXTRACT: note_on channel=9 note=42 velocity=0 time=0.005376341666666667
EXTRACT: note_on channel=9 note=38 velocity=0 time=0
EXTRACT: note_on channel=4 note=64 velocity=0 time=0
EXTRACT: note_on channel=4 note=65 velocity=85 time=0
EXTRACT: note_on channel=5 note=64 velocity=0 time=0
EXTRACT: note_on channel=5 note=65 velocity=82 time=0
EXTRACT: note_on channel=7 note=45 velocity=0 time=0
EXTRACT: note_on channel=7 note=45 velocity=85 time=0
EXTRACT: note_on channel=9 note=38 velocity=58 time=0
EXTRACT: note_on channel=10 note=64 velocity=0 time=0
EXTRACT: note_on channel=10 note=65 velocity=78 time=0
EXTRACT: note_on channel=11 note=64 velocity=0 time=0
EXTRACT: note_on channel=11 note=65 velocity=78 time=0
EXTRACT: note_on channel=9 note=38 velocity=0 time=0.005376341666666667
EXTRACT: note_on channel=3 note=57 velocity=0 time=0.016129025
EXTRACT: note_on channel=2 note=69 velocity=0 time=0.005376341666666667
EXTRACT: note_on channel=3 note=48 velocity=0 time=0.043010733333333336
EXTRACT: control_change channel=2 control=64 value=0 time=0.010752683333333334
EXTRACT: note_on channel=2 note=65 velocity=63 time=0.010752683333333334
EXTRACT: note_on channel=2 note=62 velocity=63 time=0
EXTRACT: note_on channel=2 note=60 velocity=63 time=0
EXTRACT: note_on channel=2 note=69 velocity=63 time=0
EXTRACT: note_on channel=3 note=40 velocity=0 time=0
EXTRACT: note_on channel=3 note=60 velocity=0 time=0
EXTRACT: note_on channel=1 note=33 velocity=0 time=0.17741927500000002
EXTRACT: note_on channel=1 note=43 velocity=85 time=0
EXTRACT: note_on channel=3 note=60 velocity=62 time=0
EXTRACT: note_on channel=4 note=65 velocity=0 time=0
EXTRACT: note_on channel=4 note=64 velocity=85 time=0
EXTRACT: note_on channel=5 note=65 velocity=0 time=0
EXTRACT: note_on channel=5 note=60 velocity=82 time=0
EXTRACT: note_on channel=5 note=64 velocity=82 time=0
EXTRACT: note_on channel=5 note=55 velocity=82 time=0
EXTRACT: note_on channel=7 note=45 velocity=0 time=0
EXTRACT: note_on channel=7 note=31 velocity=85 time=0
EXTRACT: note_on channel=7 note=43 velocity=85 time=0
EXTRACT: note_on channel=9 note=35 velocity=58 time=0
EXTRACT: note_on channel=9 note=38 velocity=50 time=0
EXTRACT: note_on channel=10 note=65 velocity=0 time=0
EXTRACT: note_on channel=10 note=60 velocity=78 time=0
EXTRACT: note_on channel=10 note=64 velocity=78 time=0
EXTRACT: note_on channel=10 note=55 velocity=78 time=0
EXTRACT: note_on channel=11 note=65 velocity=0 time=0
EXTRACT: note_on channel=11 note=64 velocity=78 time=0
EXTRACT: note_on channel=9 note=38 velocity=0 time=0.005376341666666667
EXTRACT: note_on channel=9 note=35 velocity=0 time=0
EXTRACT: note_on channel=3 note=53 velocity=56 time=0.005376341666666667
EXTRACT: note_on channel=3 note=62 velocity=50 time=0
EXTRACT: note_on channel=3 note=43 velocity=40 time=0
EXTRACT: note_on channel=2 note=69 velocity=0 time=0.1935483
EXTRACT: note_on channel=2 note=65 velocity=0 time=0
EXTRACT: note_on channel=2 note=62 velocity=0 time=0
EXTRACT: note_on channel=2 note=60 velocity=0 time=0
EXTRACT: control_change channel=3 control=64 value=127 time=0.03225805
EXTRACT: note_on channel=4 note=64 velocity=0 time=0
EXTRACT: note_on channel=4 note=64 velocity=85 time=0
EXTRACT: note_on channel=5 note=55 velocity=0 time=0
EXTRACT: note_on channel=5 note=64 velocity=0 time=0
EXTRACT: note_on channel=5 note=60 velocity=0 time=0
EXTRACT: note_on channel=5 note=64 velocity=82 time=0
EXTRACT: note_on channel=9 note=38 velocity=38 time=0
EXTRACT: note_on channel=10 note=55 velocity=0 time=0
EXTRACT: note_on channel=10 note=64 velocity=0 time=0
EXTRACT: note_on channel=10 note=60 velocity=0 time=0
EXTRACT: note_on channel=10 note=64 velocity=78 time=0
EXTRACT: note_on channel=11 note=64 velocity=0 time=0
EXTRACT: note_on channel=11 note=64 velocity=78 time=0
EXTRACT: note_on channel=9 note=38 velocity=0 time=0.005376341666666667
EXTRACT: note_on channel=3 note=53 velocity=0 time=0.03225805
EXTRACT: note_on channel=3 note=60 velocity=0 time=0
EXTRACT: note_on channel=3 note=62 velocity=0 time=0.10215049166666668
EXTRACT: note_on channel=4 note=64 velocity=0 time=0
EXTRACT: note_on channel=4 note=64 velocity=85 time=0
EXTRACT: note_on channel=5 note=64 velocity=0 time=0
EXTRACT: note_on channel=5 note=64 velocity=82 time=0
EXTRACT: note_on channel=10 note=64 velocity=0 time=0
EXTRACT: note_on channel=10 note=64 velocity=78 time=0
EXTRACT: note_on channel=11 note=64 velocity=0 time=0
EXTRACT: note_on channel=11 note=64 velocity=78 time=0
EXTRACT: note_on channel=2 note=65 velocity=46 time=0.15053756666666668
EXTRACT: note_on channel=2 note=62 velocity=46 time=0
EXTRACT: note_on channel=2 note=60 velocity=46 time=0
EXTRACT: note_on channel=2 note=69 velocity=46 time=0
EXTRACT: note_on channel=4 note=64 velocity=0 time=0
EXTRACT: note_on channel=4 note=64 velocity=85 time=0
EXTRACT: note_on channel=5 note=64 velocity=0 time=0
EXTRACT: note_on channel=5 note=64 velocity=82 time=0
EXTRACT: note_on channel=9 note=38 velocity=58 time=0
EXTRACT: note_on channel=9 note=42 velocity=48 time=0
EXTRACT: note_on channel=10 note=64 velocity=0 time=0
EXTRACT: note_on channel=10 note=64 velocity=78 time=0
EXTRACT: note_on channel=11 note=64 velocity=0 time=0
EXTRACT: note_on channel=11 note=64 velocity=78 time=0
EXTRACT: note_on channel=9 note=42 velocity=0 time=0.005376341666666667
EXTRACT: note_on channel=9 note=38 velocity=0 time=0
EXTRACT: note_on channel=2 note=69 velocity=0 time=0.21505366666666667
EXTRACT: note_on channel=2 note=65 velocity=0 time=0
EXTRACT: note_on channel=2 note=62 velocity=0 time=0
EXTRACT: note_on channel=2 note=60 velocity=0 time=0
EXTRACT: note_on channel=4 note=64 velocity=0 time=0
EXTRACT: note_on channel=4 note=65 velocity=85 time=0
EXTRACT: note_on channel=5 note=64 velocity=0 time=0
EXTRACT: note_on channel=5 note=65 velocity=82 time=0
EXTRACT: note_on channel=9 note=38 velocity=38 time=0
EXTRACT: note_on channel=10 note=64 velocity=0 time=0
EXTRACT: note_on channel=10 note=65 velocity=78 time=0
EXTRACT: note_on channel=11 note=64 velocity=0 time=0
EXTRACT: note_on channel=11 note=65 velocity=78 time=0
EXTRACT: note_on channel=3 note=53 velocity=54 time=0.005376341666666667
EXTRACT: note_on channel=3 note=60 velocity=70 time=0
EXTRACT: note_on channel=9 note=38 velocity=0 time=0
EXTRACT: note_on channel=3 note=62 velocity=57 time=0.021505366666666668
EXTRACT: note_on channel=3 note=43 velocity=0 time=0.22580635000000002
EXTRACT: note_on channel=1 note=50 velocity=83 time=0
EXTRACT: note_on channel=4 note=65 velocity=0 time=0
EXTRACT: note_on channel=4 note=64 velocity=85 time=0
EXTRACT: note_on channel=5 note=65 velocity=0 time=0
EXTRACT: note_on channel=5 note=64 velocity=82 time=0
EXTRACT: note_on channel=9 note=35 velocity=58 time=0
EXTRACT: note_on channel=9 note=38 velocity=58 time=0
EXTRACT: note_on channel=10 note=65 velocity=0 time=0
EXTRACT: note_on channel=10 note=64 velocity=78 time=0
EXTRACT: note_on channel=11 note=65 velocity=0 time=0
EXTRACT: note_on channel=11 note=64 velocity=78 time=0
EXTRACT: note_on channel=3 note=38 velocity=47 time=0.005376341666666667
EXTRACT: note_on channel=9 note=38 velocity=0 time=0
EXTRACT: note_on channel=9 note=35 velocity=0 time=0
EXTRACT: note_on channel=3 note=60 velocity=0 time=0.005376341666666667
EXTRACT: note_on channel=1 note=43 velocity=0 time=0.021505366666666668
EXTRACT: note_on channel=3 note=53 velocity=0 time=0.010752683333333334
EXTRACT: note_on channel=3 note=62 velocity=0 time=0.10752683333333334
EXTRACT: note_on channel=4 note=64 velocity=0 time=0
EXTRACT: note_on channel=4 note=62 velocity=85 time=0
EXTRACT: note_on channel=5 note=64 velocity=0 time=0
EXTRACT: note_on channel=5 note=62 velocity=82 time=0
EXTRACT: note_on channel=9 note=38 velocity=38 time=0
EXTRACT: note_on channel=10 note=64 velocity=0 time=0
EXTRACT: note_on channel=10 note=62 velocity=78 time=0
EXTRACT: note_on channel=11 note=64 velocity=0 time=0
EXTRACT: note_on channel=11 note=62 velocity=78 time=0
EXTRACT: note_on channel=9 note=38 velocity=0 time=0.005376341666666667
EXTRACT: note_on channel=2 note=65 velocity=58 time=0.043010733333333336
EXTRACT: note_on channel=2 note=62 velocity=58 time=0
EXTRACT: note_on channel=2 note=60 velocity=58 time=0
EXTRACT: note_on channel=2 note=69 velocity=58 time=0
EXTRACT: note_on channel=2 note=69 velocity=0 time=0.24731171666666668
EXTRACT: note_on channel=2 note=65 velocity=0 time=0
EXTRACT: note_on channel=2 note=62 velocity=0 time=0
EXTRACT: note_on channel=2 note=60 velocity=0 time=0
EXTRACT: note_on channel=4 note=62 velocity=0 time=0
EXTRACT: note_on channel=4 note=60 velocity=85 time=0
EXTRACT: note_on channel=5 note=62 velocity=0 time=0
EXTRACT: note_on channel=5 note=60 velocity=82 time=0
EXTRACT: note_on channel=9 note=38 velocity=48 time=0
EXTRACT: note_on channel=9 note=42 velocity=48 time=0
EXTRACT: note_on channel=10 note=62 velocity=0 time=0
EXTRACT: note_on channel=10 note=60 velocity=78 time=0
EXTRACT: note_on channel=11 note=62 velocity=0 time=0
EXTRACT: note_on channel=11 note=60 velocity=78 time=0
EXTRACT: note_on channel=9 note=42 velocity=0 time=0.005376341666666667
EXTRACT: note_on channel=9 note=38 velocity=0 time=0
EXTRACT: note_on channel=3 note=53 velocity=30 time=0.005376341666666667
EXTRACT: note_on channel=3 note=60 velocity=54 time=0.005376341666666667
EXTRACT: note_on channel=3 note=62 velocity=59 time=0.005376341666666667
EXTRACT: note_on channel=1 note=50 velocity=0 time=0.09139780833333334
EXTRACT: note_on channel=3 note=38 velocity=0 time=0.080645125
EXTRACT: note_on channel=1 note=50 velocity=77 time=0
EXTRACT: note_on channel=4 note=60 velocity=0 time=0
EXTRACT: note_on channel=4 note=60 velocity=85 time=0
EXTRACT: note_on channel=5 note=60 velocity=0 time=0
EXTRACT: note_on channel=5 note=60 velocity=82 time=0
EXTRACT: note_on channel=9 note=38 velocity=58 time=0
EXTRACT: note_on channel=10 note=60 velocity=0 time=0
EXTRACT: note_on channel=10 note=60 velocity=78 time=0
EXTRACT: note_on channel=11 note=60 velocity=0 time=0
EXTRACT: note_on channel=11 note=60 velocity=78 time=0
EXTRACT: note_on channel=9 note=38 velocity=0 time=0.005376341666666667
EXTRACT: note_on channel=3 note=60 velocity=0 time=0.1827956166666667
EXTRACT: note_on channel=3 note=53 velocity=0 time=0.010752683333333334
EXTRACT: note_on channel=3 note=62 velocity=0 time=0.10215049166666668
EXTRACT: note_on channel=1 note=43 velocity=72 time=0
EXTRACT: note_on channel=4 note=60 velocity=0 time=0
EXTRACT: note_on channel=4 note=62 velocity=85 time=0
EXTRACT: note_on channel=5 note=60 velocity=0 time=0
EXTRACT: note_on channel=5 note=53 velocity=82 time=0
EXTRACT: note_on channel=5 note=62 velocity=82 time=0
EXTRACT: note_on channel=5 note=57 velocity=82 time=0
EXTRACT: note_on channel=5 note=60 velocity=82 time=0
EXTRACT: note_on channel=7 note=43 velocity=0 time=0
EXTRACT: note_on channel=7 note=31 velocity=0 time=0
EXTRACT: note_on channel=7 note=31 velocity=85 time=0
EXTRACT: note_on channel=9 note=35 velocity=58 time=0
EXTRACT: note_on channel=9 note=38 velocity=50 time=0
EXTRACT: note_on channel=10 note=60 velocity=0 time=0
EXTRACT: note_on channel=10 note=53 velocity=78 time=0
EXTRACT: note_on channel=10 note=62 velocity=78 time=0
EXTRACT: note_on channel=10 note=57 velocity=78 time=0
EXTRACT: note_on channel=10 note=60 velocity=78 time=0
EXTRACT: note_on channel=11 note=60 velocity=0 time=0
EXTRACT: note_on channel=11 note=62 velocity=78 time=0
EXTRACT: note_on channel=9 note=38 velocity=0 time=0.005376341666666667
EXTRACT: note_on channel=9 note=35 velocity=0 time=0
EXTRACT: note_on channel=1 note=50 velocity=0 time=0.005376341666666667
EXTRACT: note_on channel=2 note=65 velocity=53 time=0.016129025
EXTRACT: note_on channel=2 note=62 velocity=53 time=0
EXTRACT: note_on channel=2 note=60 velocity=53 time=0
EXTRACT: note_on channel=2 note=69 velocity=53 time=0
EXTRACT: note_on channel=3 note=43 velocity=49 time=0.03763439166666667
EXTRACT: note_on channel=4 note=62 velocity=0 time=0.2580644
EXTRACT: note_on channel=4 note=62 velocity=85 time=0
EXTRACT: note_on channel=5 note=60 velocity=0 time=0
EXTRACT: note_on channel=5 note=53 velocity=0 time=0
EXTRACT: note_on channel=5 note=62 velocity=0 time=0
EXTRACT: note_on channel=5 note=57 velocity=0 time=0
EXTRACT: note_on channel=5 note=57 velocity=82 time=0
EXTRACT: note_on channel=5 note=53 velocity=82 time=0
EXTRACT: note_on channel=5 note=60 velocity=82 time=0
EXTRACT: note_on channel=5 note=62 velocity=82 time=0
EXTRACT: note_on channel=9 note=38 velocity=38 time=0
EXTRACT: note_on channel=10 note=60 velocity=0 time=0
EXTRACT: note_on channel=10 note=53 velocity=0 time=0
EXTRACT: note_on channel=10 note=62 velocity=0 time=0
EXTRACT: note_on channel=10 note=57 velocity=0 time=0
EXTRACT: note_on channel=10 note=57 velocity=78 time=0
EXTRACT: note_on channel=10 note=53 velocity=78 time=0
EXTRACT: note_on channel=10 note=60 velocity=78 time=0
EXTRACT: note_on channel=10 note=62 velocity=78 time=0
EXTRACT: note_on channel=11 note=62 velocity=0 time=0
EXTRACT: note_on channel=11 note=62 velocity=78 time=0
EXTRACT: note_on channel=9 note=38 velocity=0 time=0.005376341666666667
EXTRACT: control_change channel=3 control=64 value=0 time=0.005376341666666667
EXTRACT: note_on channel=9 note=38 velocity=58 time=0.3118278166666667
EXTRACT: note_on channel=9 note=42 velocity=48 time=0
EXTRACT: note_on channel=9 note=42 velocity=0 time=0.005376341666666667
EXTRACT: note_on channel=9 note=38 velocity=0 time=0
EXTRACT: note_on channel=3 note=53 velocity=42 time=0.005376341666666667
EXTRACT: note_on channel=3 note=60 velocity=54 time=0.016129025
EXTRACT: note_on channel=3 note=62 velocity=52 time=0
EXTRACT: note_on channel=2 note=69 velocity=0 time=0.021505366666666668
EXTRACT: note_on channel=2 note=65 velocity=0 time=0
EXTRACT: note_on channel=2 note=62 velocity=0 time=0
EXTRACT: note_on channel=2 note=60 velocity=0 time=0
EXTRACT: note_on channel=1 note=43 velocity=0 time=0.06989244166666667
EXTRACT: control_change channel=3 control=64 value=127 time=0.09139780833333334
EXTRACT: note_on channel=3 note=53 velocity=0 time=0.09139780833333334
EXTRACT: note_on channel=3 note=60 velocity=0 time=0.010752683333333334
EXTRACT: note_on channel=1 note=43 velocity=75 time=0.010752683333333334
EXTRACT: note_on channel=7 note=31 velocity=0 time=0
EXTRACT: note_on channel=7 note=38 velocity=85 time=0
EXTRACT: note_on channel=9 note=38 velocity=38 time=0
EXTRACT: note_on channel=9 note=38 velocity=0 time=0.005376341666666667
EXTRACT: note_on channel=2 note=65 velocity=59 time=0.03763439166666667
EXTRACT: note_on channel=2 note=62 velocity=59 time=0
EXTRACT: note_on channel=2 note=60 velocity=59 time=0
EXTRACT: note_on channel=2 note=69 velocity=59 time=0
EXTRACT: note_on channel=3 note=62 velocity=0 time=0.010752683333333334
EXTRACT: note_on channel=7 note=38 velocity=0 time=0.10752683333333334
EXTRACT: note_on channel=7 note=38 velocity=85 time=0
EXTRACT: note_on channel=3 note=43 velocity=0 time=0.05376341666666667
EXTRACT: note_on channel=1 note=50 velocity=78 time=0.10752683333333334
EXTRACT: note_on channel=9 note=35 velocity=58 time=0
EXTRACT: note_on channel=9 note=38 velocity=58 time=0
EXTRACT: note_on channel=3 note=38 velocity=52 time=0.005376341666666667
EXTRACT: note_on channel=9 note=38 velocity=0 time=0
EXTRACT: note_on channel=9 note=35 velocity=0 time=0
EXTRACT: note_on channel=1 note=43 velocity=0 time=0.03763439166666667
EXTRACT: note_on channel=7 note=38 velocity=0 time=0.27956976666666666
EXTRACT: note_on channel=7 note=43 velocity=85 time=0
EXTRACT: note_on channel=9 note=38 velocity=38 time=0
EXTRACT: note_on channel=9 note=38 velocity=0 time=0.005376341666666667
EXTRACT: note_on channel=3 note=62 velocity=61 time=0.021505366666666668
EXTRACT: note_on channel=3 note=53 velocity=42 time=0.021505366666666668
EXTRACT: note_on channel=3 note=60 velocity=57 time=0
EXTRACT: note_on channel=1 note=50 velocity=0 time=0.05376341666666667
EXTRACT: note_on channel=7 note=43 velocity=0 time=0.059139758333333334
EXTRACT: note_on channel=7 note=43 velocity=85 time=0
EXTRACT: note_on channel=1 note=50 velocity=71 time=0.16129025
EXTRACT: note_on channel=9 note=38 velocity=48 time=0
EXTRACT: note_on channel=9 note=42 velocity=48 time=0
EXTRACT: note_on channel=9 note=42 velocity=0 time=0.005376341666666667
EXTRACT: note_on channel=9 note=38 velocity=0 time=0
EXTRACT: note_on channel=3 note=60 velocity=0 time=0.005376341666666667
EXTRACT: note_on channel=3 note=53 velocity=0 time=0.010752683333333334
EXTRACT: note_on channel=3 note=62 velocity=0 time=0.021505366666666668
EXTRACT: note_on channel=3 note=38 velocity=0 time=0.07526878333333334
EXTRACT: note_on channel=2 note=69 velocity=0 time=0.17741927500000002
EXTRACT: note_on channel=2 note=65 velocity=0 time=0
EXTRACT: note_on channel=2 note=62 velocity=0 time=0
EXTRACT: note_on channel=2 note=60 velocity=0 time=0
EXTRACT: note_on channel=7 note=43 velocity=0 time=0.026881708333333334
EXTRACT: note_on channel=7 note=38 velocity=85 time=0
EXTRACT: note_on channel=9 note=38 velocity=58 time=0
EXTRACT: note_on channel=9 note=38 velocity=0 time=0.005376341666666667
EXTRACT: note_on channel=2 note=65 velocity=63 time=0.08602146666666667
EXTRACT: note_on channel=2 note=62 velocity=63 time=0
EXTRACT: note_on channel=2 note=60 velocity=63 time=0
EXTRACT: note_on channel=2 note=69 velocity=63 time=0
EXTRACT: note_on channel=1 note=50 velocity=0 time=0.09139780833333334
EXTRACT: note_on channel=4 note=62 velocity=0 time=0.048387075
EXTRACT: note_on channel=11 note=62 velocity=0 time=0
EXTRACT: note_on channel=1 note=43 velocity=85 time=0
EXTRACT: control_change channel=3 control=64 value=0 time=0
EXTRACT: note_on channel=4 note=65 velocity=85 time=0
EXTRACT: note_on channel=5 note=62 velocity=0 time=0
EXTRACT: note_on channel=5 note=57 velocity=0 time=0
EXTRACT: note_on channel=5 note=53 velocity=0 time=0
EXTRACT: note_on channel=5 note=60 velocity=0 time=0
EXTRACT: note_on channel=5 note=65 velocity=82 time=0
EXTRACT: note_on channel=5 note=57 velocity=82 time=0
EXTRACT: note_on channel=5 note=60 velocity=82 time=0
EXTRACT: note_on channel=5 note=62 velocity=82 time=0
EXTRACT: note_on channel=7 note=38 velocity=0 time=0
EXTRACT: note_on channel=7 note=31 velocity=85 time=0
EXTRACT: note_on channel=7 note=43 velocity=85 time=0
EXTRACT: note_on channel=9 note=35 velocity=58 time=0
EXTRACT: note_on channel=9 note=38 velocity=50 time=0
EXTRACT: note_on channel=10 note=62 velocity=0 time=0
EXTRACT: note_on channel=10 note=57 velocity=0 time=0
EXTRACT: note_on channel=10 note=53 velocity=0 time=0
EXTRACT: note_on channel=10 note=60 velocity=0 time=0
EXTRACT: note_on channel=10 note=65 velocity=78 time=0
EXTRACT: note_on channel=10 note=57 velocity=78 time=0
EXTRACT: note_on channel=10 note=60 velocity=78 time=0
EXTRACT: note_on channel=10 note=62 velocity=78 time=0
EXTRACT: note_on channel=11 note=65 velocity=78 time=0
EXTRACT: note_on channel=3 note=53 velocity=47 time=0.005376341666666667
EXTRACT: note_on channel=9 note=38 velocity=0 time=0
EXTRACT: note_on channel=9 note=35 velocity=0 time=0
EXTRACT: note_on channel=3 note=60 velocity=59 time=0.005376341666666667
EXTRACT: note_on channel=3 note=64 velocity=42 time=0.005376341666666667
EXTRACT: control_change channel=3 control=64 value=127 time=0.1827956166666667
EXTRACT: note_on channel=2 note=69 velocity=0 time=0.005376341666666667
EXTRACT: note_on channel=2 note=65 velocity=0 time=0
EXTRACT: note_on channel=2 note=62 velocity=0 time=0
EXTRACT: note_on channel=2 note=60 velocity=0 time=0
EXTRACT: note_on channel=3 note=60 velocity=0 time=0.10752683333333334
EXTRACT: note_on channel=4 note=65 velocity=0 time=0
EXTRACT: note_on channel=4 note=65 velocity=85 time=0
EXTRACT: note_on channel=5 note=62 velocity=0 time=0
EXTRACT: note_on channel=5 note=65 velocity=0 time=0
EXTRACT: note_on channel=5 note=57 velocity=0 time=0
EXTRACT: note_on channel=5 note=60 velocity=0 time=0
EXTRACT: note_on channel=5 note=65 velocity=82 time=0
EXTRACT: note_on channel=9 note=38 velocity=38 time=0
EXTRACT: note_on channel=10 note=62 velocity=0 time=0
EXTRACT: note_on channel=10 note=65 velocity=0 time=0
EXTRACT: note_on channel=10 note=57 velocity=0 time=0
EXTRACT: note_on channel=10 note=60 velocity=0 time=0
EXTRACT: note_on channel=10 note=65 velocity=78 time=0
EXTRACT: note_on channel=11 note=65 velocity=0 time=0
EXTRACT: note_on channel=11 note=65 velocity=78 time=0
EXTRACT: note_on channel=9 note=38 velocity=0 time=0.005376341666666667
EXTRACT: note_on channel=3 note=53 velocity=0 time=0.043010733333333336
EXTRACT: note_on channel=3 note=64 velocity=0 time=0.048387075
EXTRACT: note_on channel=4 note=65 velocity=0 time=0
EXTRACT: note_on channel=4 note=65 velocity=85 time=0
EXTRACT: note_on channel=5 note=65 velocity=0 time=0
EXTRACT: note_on channel=5 note=65 velocity=82 time=0
EXTRACT: note_on channel=10 note=65 velocity=0 time=0
EXTRACT: note_on channel=10 note=65 velocity=78 time=0
EXTRACT: note_on channel=11 note=65 velocity=0 time=0
EXTRACT: note_on channel=11 note=65 velocity=78 time=0
EXTRACT: note_on channel=2 note=65 velocity=46 time=0.15053756666666668
EXTRACT: note_on channel=2 note=62 velocity=46 time=0
EXTRACT: note_on channel=2 note=60 velocity=46 time=0
EXTRACT: note_on channel=2 note=69 velocity=46 time=0
EXTRACT: note_on channel=4 note=65 velocity=0 time=0
EXTRACT: note_on channel=4 note=65 velocity=85 time=0
EXTRACT: note_on channel=5 note=65 velocity=0 time=0
EXTRACT: note_on channel=5 note=65 velocity=82 time=0
EXTRACT: note_on channel=9 note=38 velocity=58 time=0
EXTRACT: note_on channel=9 note=42 velocity=48 time=0
EXTRACT: note_on channel=10 note=65 velocity=0 time=0
EXTRACT: note_on channel=10 note=65 velocity=78 time=0
EXTRACT: note_on channel=11 note=65 velocity=0 time=0
EXTRACT: note_on channel=11 note=65 velocity=78 time=0
EXTRACT: note_on channel=9 note=42 velocity=0 time=0.005376341666666667
EXTRACT: note_on channel=9 note=38 velocity=0 time=0
EXTRACT: note_on channel=2 note=69 velocity=0 time=0.21505366666666667
EXTRACT: note_on channel=2 note=65 velocity=0 time=0
EXTRACT: note_on channel=2 note=62 velocity=0 time=0
EXTRACT: note_on channel=2 note=60 velocity=0 time=0
EXTRACT: note_on channel=4 note=65 velocity=0 time=0
EXTRACT: note_on channel=4 note=67 velocity=85 time=0
EXTRACT: note_on channel=5 note=65 velocity=0 time=0
EXTRACT: note_on channel=5 note=67 velocity=82 time=0
EXTRACT: note_on channel=9 note=38 velocity=38 time=0
EXTRACT: note_on channel=10 note=65 velocity=0 time=0
EXTRACT: note_on channel=10 note=67 velocity=78 time=0
EXTRACT: note_on channel=11 note=65 velocity=0 time=0
EXTRACT: note_on channel=11 note=67 velocity=78 time=0
EXTRACT: note_on channel=9 note=38 velocity=0 time=0.005376341666666667
EXTRACT: note_on channel=3 note=64 velocity=52 time=0.03225805
EXTRACT: note_on channel=3 note=60 velocity=59 time=0.021505366666666668
EXTRACT: note_on channel=3 note=53 velocity=40 time=0.010752683333333334
EXTRACT: note_on channel=3 note=60 velocity=0 time=0.22580635000000002
EXTRACT: note_on channel=1 note=50 velocity=83 time=0
EXTRACT: note_on channel=4 note=67 velocity=0 time=0
EXTRACT: note_on channel=4 note=65 velocity=85 time=0
EXTRACT: note_on channel=5 note=67 velocity=0 time=0
EXTRACT: note_on channel=5 note=65 velocity=82 time=0
EXTRACT: note_on channel=9 note=35 velocity=58 time=0
EXTRACT: note_on channel=9 note=38 velocity=58 time=0
EXTRACT: note_on channel=10 note=67 velocity=0 time=0
EXTRACT: note_on channel=10 note=65 velocity=78 time=0
EXTRACT: note_on channel=11 note=67 velocity=0 time=0
EXTRACT: note_on channel=11 note=65 velocity=78 time=0
EXTRACT: note_on channel=9 note=38 velocity=0 time=0.005376341666666667
EXTRACT: note_on channel=9 note=35 velocity=0 time=0
EXTRACT: note_on channel=3 note=64 velocity=0 time=0.021505366666666668
EXTRACT: note_on channel=1 note=43 velocity=0 time=0.005376341666666667
EXTRACT: note_on channel=3 note=53 velocity=0 time=0.016129025
EXTRACT: note_on channel=4 note=65 velocity=0 time=0
EXTRACT: note_on channel=4 note=64 velocity=85 time=0
EXTRACT: note_on channel=5 note=65 velocity=0 time=0
EXTRACT: note_on channel=5 note=64 velocity=82 time=0
EXTRACT: note_on channel=9 note=38 velocity=38 time=0
EXTRACT: note_on channel=10 note=65 velocity=0 time=0
EXTRACT: note_on channel=10 note=64 velocity=78 time=0
EXTRACT: note_on channel=11 note=65 velocity=0 time=0
EXTRACT: note_on channel=11 note=64 velocity=78 time=0
EXTRACT: note_on channel=9 note=38 velocity=0 time=0.005376341666666667
EXTRACT: note_on channel=2 note=65 velocity=58 time=0.043010733333333336
EXTRACT: note_on channel=2 note=62 velocity=58 time=0
EXTRACT: note_on channel=2 note=60 velocity=58 time=0
EXTRACT: note_on channel=2 note=69 velocity=58 time=0
EXTRACT: note_on channel=2 note=69 velocity=0 time=0.24731171666666668
EXTRACT: note_on channel=2 note=65 velocity=0 time=0
EXTRACT: note_on channel=2 note=62 velocity=0 time=0
EXTRACT: note_on channel=2 note=60 velocity=0 time=0
EXTRACT: note_on channel=4 note=64 velocity=0 time=0
EXTRACT: note_on channel=4 note=62 velocity=85 time=0
EXTRACT: note_on channel=5 note=64 velocity=0 time=0
EXTRACT: note_on channel=5 note=62 velocity=82 time=0
EXTRACT: note_on channel=9 note=38 velocity=48 time=0
EXTRACT: note_on channel=9 note=42 velocity=48 time=0
EXTRACT: note_on channel=10 note=64 velocity=0 time=0
EXTRACT: note_on channel=10 note=62 velocity=78 time=0
EXTRACT: note_on channel=11 note=64 velocity=0 time=0
EXTRACT: note_on channel=11 note=62 velocity=78 time=0
EXTRACT: note_on channel=3 note=53 velocity=55 time=0.005376341666666667
EXTRACT: note_on channel=3 note=60 velocity=55 time=0
EXTRACT: note_on channel=3 note=64 velocity=61 time=0
EXTRACT: note_on channel=9 note=42 velocity=0 time=0
EXTRACT: note_on channel=9 note=38 velocity=0 time=0
EXTRACT: note_on channel=1 note=50 velocity=0 time=0.10752683333333334
EXTRACT: note_on channel=3 note=60 velocity=0 time=0.09139780833333334
EXTRACT: note_on channel=3 note=53 velocity=0 time=0.06989244166666667
EXTRACT: note_on channel=3 note=64 velocity=0 time=0.010752683333333334
EXTRACT: note_on channel=1 note=50 velocity=77 time=0
EXTRACT: note_on channel=4 note=62 velocity=0 time=0
EXTRACT: note_on channel=4 note=64 velocity=85 time=0
EXTRACT: note_on channel=5 note=62 velocity=0 time=0
EXTRACT: note_on channel=5 note=64 velocity=82 time=0
EXTRACT: note_on channel=9 note=38 velocity=58 time=0
EXTRACT: note_on channel=10 note=62 velocity=0 time=0
EXTRACT: note_on channel=10 note=64 velocity=78 time=0
EXTRACT: note_on channel=11 note=62 velocity=0 time=0
EXTRACT: note_on channel=11 note=64 velocity=78 time=0
EXTRACT: note_on channel=9 note=38 velocity=0 time=0.005376341666666667
EXTRACT: control_change channel=2 control=7 value=86 time=0.2634407416666667
EXTRACT: control_change channel=4 control=7 value=95 time=0
EXTRACT: control_change channel=9 control=7 value=95 time=0
EXTRACT: control_change channel=11 control=7 value=95 time=0
EXTRACT: note_on channel=1 note=43 velocity=72 time=0
EXTRACT: control_change channel=3 control=7 value=89 time=0
EXTRACT: note_on channel=4 note=64 velocity=0 time=0
EXTRACT: note_on channel=4 note=65 velocity=85 time=0
EXTRACT: note_on channel=5 note=64 velocity=0 time=0
EXTRACT: note_on channel=5 note=60 velocity=82 time=0
EXTRACT: note_on channel=5 note=57 velocity=82 time=0
EXTRACT: note_on channel=5 note=62 velocity=82 time=0
EXTRACT: note_on channel=5 note=65 velocity=82 time=0
EXTRACT: note_on channel=7 note=43 velocity=0 time=0
EXTRACT: note_on channel=7 note=31 velocity=0 time=0
EXTRACT: note_on channel=7 note=31 velocity=85 time=0
EXTRACT: note_on channel=9 note=35 velocity=58 time=0
EXTRACT: note_on channel=9 note=38 velocity=50 time=0
EXTRACT: note_on channel=10 note=64 velocity=0 time=0
EXTRACT: note_on channel=10 note=60 velocity=78 time=0
EXTRACT: note_on channel=10 note=57 velocity=78 time=0
EXTRACT: note_on channel=10 note=62 velocity=78 time=0
EXTRACT: note_on channel=10 note=65 velocity=78 time=0
EXTRACT: note_on channel=11 note=64 velocity=0 time=0
EXTRACT: note_on channel=11 note=65 velocity=78 time=0
EXTRACT: note_on channel=9 note=38 velocity=0 time=0.005376341666666667
EXTRACT: note_on channel=9 note=35 velocity=0 time=0
EXTRACT: note_on channel=1 note=50 velocity=0 time=0.005376341666666667
EXTRACT: note_on channel=2 note=65 velocity=53 time=0.016129025
EXTRACT: note_on channel=2 note=62 velocity=53 time=0
EXTRACT: note_on channel=2 note=60 velocity=53 time=0
EXTRACT: note_on channel=2 note=69 velocity=53 time=0
EXTRACT: control_change channel=1 control=7 value=94 time=0.026881708333333334
EXTRACT: control_change channel=5 control=7 value=93 time=0
EXTRACT: control_change channel=6 control=7 value=91 time=0
EXTRACT: control_change channel=7 control=7 value=88 time=0
EXTRACT: control_change channel=10 control=7 value=93 time=0
EXTRACT: control_change channel=4 control=7 value=94 time=0.05376341666666667
EXTRACT: control_change channel=9 control=7 value=94 time=0
EXTRACT: control_change channel=11 control=7 value=94 time=0
EXTRACT: control_change channel=2 control=7 value=85 time=0.05376341666666667
EXTRACT: control_change channel=1 control=7 value=93 time=0.05376341666666667
EXTRACT: control_change channel=3 control=7 value=88 time=0
EXTRACT: control_change channel=5 control=7 value=92 time=0
EXTRACT: control_change channel=6 control=7 value=90 time=0
EXTRACT: control_change channel=7 control=7 value=87 time=0
EXTRACT: control_change channel=10 control=7 value=92 time=0
EXTRACT: control_change channel=4 control=7 value=93 time=0.05376341666666667
EXTRACT: control_change channel=9 control=7 value=93 time=0
EXTRACT: control_change channel=11 control=7 value=93 time=0
EXTRACT: control_change channel=2 control=7 value=84 time=0
EXTRACT: note_on channel=4 note=65 velocity=0 time=0
EXTRACT: note_on channel=4 note=65 velocity=85 time=0
EXTRACT: note_on channel=5 note=65 velocity=0 time=0
EXTRACT: note_on channel=5 note=60 velocity=0 time=0
EXTRACT: note_on channel=5 note=57 velocity=0 time=0
EXTRACT: note_on channel=5 note=62 velocity=0 time=0
EXTRACT: note_on channel=5 note=57 velocity=82 time=0
EXTRACT: note_on channel=5 note=65 velocity=82 time=0
EXTRACT: note_on channel=5 note=60 velocity=82 time=0
EXTRACT: note_on channel=5 note=62 velocity=82 time=0
EXTRACT: note_on channel=9 note=38 velocity=38 time=0
EXTRACT: note_on channel=10 note=65 velocity=0 time=0
EXTRACT: note_on channel=10 note=60 velocity=0 time=0
EXTRACT: note_on channel=10 note=57 velocity=0 time=0
EXTRACT: note_on channel=10 note=62 velocity=0 time=0
EXTRACT: note_on channel=10 note=57 velocity=78 time=0
EXTRACT: note_on channel=10 note=65 velocity=78 time=0
EXTRACT: note_on channel=10 note=60 velocity=78 time=0
EXTRACT: note_on channel=10 note=62 velocity=78 time=0
EXTRACT: note_on channel=11 note=65 velocity=0 time=0
EXTRACT: note_on channel=11 note=65 velocity=78 time=0
EXTRACT: note_on channel=9 note=38 velocity=0 time=0.005376341666666667
EXTRACT: control_change channel=1 control=7 value=92 time=0.048387075
EXTRACT: control_change channel=3 control=7 value=87 time=0
EXTRACT: control_change channel=5 control=7 value=91 time=0
EXTRACT: control_change channel=6 control=7 value=89 time=0
EXTRACT: control_change channel=7 control=7 value=86 time=0
EXTRACT: control_change channel=10 control=7 value=91 time=0
EXTRACT: control_change channel=4 control=7 value=92 time=0.05376341666666667
EXTRACT: control_change channel=9 control=7 value=92 time=0
EXTRACT: control_change channel=11 control=7 value=92 time=0
EXTRACT: control_change channel=2 control=7 value=83 time=0.05376341666666667
EXTRACT: control_change channel=1 control=7 value=91 time=0.05376341666666667
EXTRACT: control_change channel=3 control=7 value=86 time=0
EXTRACT: control_change channel=4 control=7 value=91 time=0
EXTRACT: control_change channel=5 control=7 value=90 time=0
EXTRACT: control_change channel=6 control=7 value=88 time=0
EXTRACT: control_change channel=7 control=7 value=85 time=0
EXTRACT: control_change channel=10 control=7 value=90 time=0
EXTRACT: control_change channel=11 control=7 value=91 time=0
EXTRACT: control_change channel=9 control=7 value=91 time=0.05376341666666667
EXTRACT: control_change channel=2 control=7 value=82 time=0.05376341666666667
EXTRACT: control_change channel=5 control=7 value=89 time=0
EXTRACT: note_on channel=9 note=38 velocity=58 time=0
EXTRACT: note_on channel=9 note=42 velocity=48 time=0
EXTRACT: control_change channel=10 control=7 value=89 time=0
EXTRACT: note_on channel=3 note=64 velocity=51 time=0.005376341666666667
EXTRACT: note_on channel=9 note=42 velocity=0 time=0
EXTRACT: note_on channel=9 note=38 velocity=0 time=0
EXTRACT: note_on channel=3 note=53 velocity=48 time=0.005376341666666667
EXTRACT: note_on channel=3 note=60 velocity=59 time=0
EXTRACT: note_on channel=2 note=69 velocity=0 time=0.03763439166666667
EXTRACT: note_on channel=2 note=65 velocity=0 time=0
EXTRACT: note_on channel=2 note=62 velocity=0 time=0
EXTRACT: note_on channel=2 note=60 velocity=0 time=0
EXTRACT: control_change channel=1 control=7 value=90 time=0.005376341666666667
EXTRACT: control_change channel=3 control=7 value=85 time=0
EXTRACT: control_change channel=4 control=7 value=90 time=0
EXTRACT: control_change channel=6 control=7 value=87 time=0
EXTRACT: control_change channel=7 control=7 value=84 time=0
EXTRACT: control_change channel=11 control=7 value=90 time=0
EXTRACT: control_change channel=9 control=7 value=90 time=0.05376341666666667
EXTRACT: note_on channel=1 note=43 velocity=0 time=0.010752683333333334
EXTRACT: control_change channel=2 control=7 value=81 time=0.043010733333333336
EXTRACT: control_change channel=5 control=7 value=88 time=0
EXTRACT: control_change channel=6 control=7 value=86 time=0
EXTRACT: control_change channel=10 control=7 value=88 time=0
EXTRACT: control_change channel=1 control=7 value=89 time=0.05376341666666667
EXTRACT: control_change channel=3 control=7 value=84 time=0
EXTRACT: control_change channel=4 control=7 value=89 time=0
EXTRACT: control_change channel=7 control=7 value=83 time=0
EXTRACT: control_change channel=11 control=7 value=89 time=0
EXTRACT: note_on channel=3 note=60 velocity=0 time=0.021505366666666668
EXTRACT: control_change channel=9 control=7 value=89 time=0.03225805
EXTRACT: note_on channel=3 note=64 velocity=0 time=0.005376341666666667
EXTRACT: note_on channel=3 note=53 velocity=0 time=0.026881708333333334
EXTRACT: note_on channel=1 note=43 velocity=75 time=0.021505366666666668
EXTRACT: control_change channel=2 control=7 value=80 time=0
EXTRACT: control_change channel=5 control=7 value=87 time=0
EXTRACT: control_change channel=6 control=7 value=85 time=0
EXTRACT: note_on channel=7 note=31 velocity=0 time=0
EXTRACT: note_on channel=7 note=38 velocity=85 time=0
EXTRACT: note_on channel=9 note=38 velocity=38 time=0
EXTRACT: control_change channel=10 control=7 value=87 time=0
EXTRACT: note_on channel=9 note=38 velocity=0 time=0.005376341666666667
EXTRACT: note_on channel=2 note=65 velocity=59 time=0.03763439166666667
EXTRACT: note_on channel=2 note=62 velocity=59 time=0
EXTRACT: note_on channel=2 note=60 velocity=59 time=0
EXTRACT: note_on channel=2 note=69 velocity=59 time=0
EXTRACT: control_change channel=1 control=7 value=88 time=0.010752683333333334
EXTRACT: control_change channel=3 control=7 value=83 time=0
EXTRACT: control_change channel=4 control=7 value=88 time=0
EXTRACT: control_change channel=7 control=7 value=82 time=0
EXTRACT: control_change channel=11 control=7 value=88 time=0
EXTRACT: control_change channel=9 control=7 value=88 time=0.05376341666666667
EXTRACT: control_change channel=2 control=7 value=79 time=0.05376341666666667
EXTRACT: control_change channel=4 control=7 value=87 time=0
EXTRACT: control_change channel=5 control=7 value=86 time=0
EXTRACT: control_change channel=6 control=7 value=84 time=0
EXTRACT: note_on channel=7 note=38 velocity=0 time=0
EXTRACT: note_on channel=7 note=38 velocity=85 time=0
EXTRACT: control_change channel=10 control=7 value=86 time=0
EXTRACT: control_change channel=11 control=7 value=87 time=0
EXTRACT: control_change channel=1 control=7 value=87 time=0.05376341666666667
EXTRACT: control_change channel=3 control=7 value=82 time=0
EXTRACT: control_change channel=7 control=7 value=81 time=0
EXTRACT: control_change channel=5 control=7 value=85 time=0.05376341666666667
EXTRACT: control_change channel=9 control=7 value=87 time=0
EXTRACT: control_change channel=10 control=7 value=85 time=0
EXTRACT: note_on channel=1 note=50 velocity=78 time=0.05376341666666667
EXTRACT: control_change channel=4 control=7 value=86 time=0
EXTRACT: control_change channel=6 control=7 value=83 time=0
EXTRACT: note_on channel=9 note=35 velocity=58 time=0
EXTRACT: note_on channel=9 note=38 velocity=58 time=0
EXTRACT: control_change channel=11 control=7 value=86 time=0
EXTRACT: note_on channel=9 note=38 velocity=0 time=0.005376341666666667
EXTRACT: note_on channel=9 note=35 velocity=0 time=0
EXTRACT: note_on channel=1 note=43 velocity=0 time=0.03763439166666667
EXTRACT: control_change channel=1 control=7 value=86 time=0.010752683333333334
EXTRACT: control_change channel=2 control=7 value=78 time=0
EXTRACT: control_change channel=3 control=7 value=81 time=0
EXTRACT: control_change channel=7 control=7 value=80 time=0
EXTRACT: control_change channel=5 control=7 value=84 time=0.05376341666666667
EXTRACT: control_change channel=9 control=7 value=86 time=0
EXTRACT: control_change channel=10 control=7 value=84 time=0
EXTRACT: control_change channel=4 control=7 value=85 time=0.05376341666666667
EXTRACT: control_change channel=6 control=7 value=82 time=0
EXTRACT: control_change channel=7 control=7 value=79 time=0
EXTRACT: control_change channel=11 control=7 value=85 time=0
EXTRACT: control_change channel=1 control=7 value=85 time=0.05376341666666667
EXTRACT: control_change channel=2 control=7 value=77 time=0
EXTRACT: control_change channel=3 control=7 value=80 time=0
EXTRACT: control_change channel=5 control=7 value=83 time=0.05376341666666667
EXTRACT: control_change channel=6 control=7 value=81 time=0
EXTRACT: control_change channel=9 control=7 value=85 time=0
EXTRACT: control_change channel=10 control=7 value=83 time=0
EXTRACT: control_change channel=4 control=7 value=84 time=0.05376341666666667
EXTRACT: note_on channel=7 note=38 velocity=0 time=0
EXTRACT: control_change channel=7 control=7 value=78 time=0
EXTRACT: note_on channel=7 note=43 velocity=85 time=0
EXTRACT: note_on channel=9 note=38 velocity=38 time=0
EXTRACT: control_change channel=11 control=7 value=84 time=0
EXTRACT: note_on channel=3 note=64 velocity=45 time=0.005376341666666667
EXTRACT: note_on channel=9 note=38 velocity=0 time=0
EXTRACT: note_on channel=3 note=60 velocity=60 time=0.021505366666666668
EXTRACT: note_on channel=3 note=53 velocity=49 time=0.010752683333333334
EXTRACT: control_change channel=1 control=7 value=84 time=0.016129025
EXTRACT: control_change channel=2 control=7 value=76 time=0
EXTRACT: control_change channel=3 control=7 value=79 time=0
EXTRACT: note_on channel=1 note=50 velocity=0 time=0.048387075
EXTRACT: control_change channel=4 control=7 value=83 time=0.005376341666666667
EXTRACT: control_change channel=5 control=7 value=82 time=0
EXTRACT: control_change channel=6 control=7 value=80 time=0
EXTRACT: control_change channel=9 control=7 value=84 time=0
EXTRACT: control_change channel=10 control=7 value=82 time=0
EXTRACT: control_change channel=11 control=7 value=83 time=0
EXTRACT: control_change channel=1 control=7 value=83 time=0.05376341666666667
EXTRACT: note_on channel=7 note=43 velocity=0 time=0
EXTRACT: control_change channel=7 control=7 value=77 time=0
EXTRACT: note_on channel=7 note=43 velocity=85 time=0
EXTRACT: note_on channel=3 note=60 velocity=0 time=0.043010733333333336
EXTRACT: control_change channel=2 control=7 value=75 time=0.010752683333333334
EXTRACT: control_change channel=3 control=7 value=78 time=0
EXTRACT: control_change channel=5 control=7 value=81 time=0
EXTRACT: control_change channel=10 control=7 value=81 time=0
EXTRACT: note_on channel=3 note=53 velocity=0 time=0.03225805
EXTRACT: note_on channel=3 note=64 velocity=0 time=0
EXTRACT: control_change channel=4 control=7 value=82 time=0.021505366666666668
EXTRACT: control_change channel=6 control=7 value=79 time=0
EXTRACT: control_change channel=9 control=7 value=83 time=0
EXTRACT: control_change channel=11 control=7 value=82 time=0
EXTRACT: control_change channel=1 control=7 value=82 time=0.05376341666666667
EXTRACT: note_on channel=1 note=50 velocity=71 time=0
EXTRACT: control_change channel=7 control=7 value=76 time=0
EXTRACT: note_on channel=9 note=38 velocity=48 time=0
EXTRACT: note_on channel=9 note=42 velocity=48 time=0
EXTRACT: note_on channel=9 note=42 velocity=0 time=0.005376341666666667
EXTRACT: note_on channel=9 note=38 velocity=0 time=0
EXTRACT: control_change channel=2 control=7 value=74 time=0.048387075
EXTRACT: control_change channel=3 control=7 value=77 time=0
EXTRACT: control_change channel=5 control=7 value=80 time=0
EXTRACT: control_change channel=10 control=7 value=80 time=0
EXTRACT: control_change channel=4 control=7 value=81 time=0.05376341666666667
EXTRACT: control_change channel=6 control=7 value=78 time=0
EXTRACT: control_change channel=9 control=7 value=82 time=0
EXTRACT: control_change channel=11 control=7 value=81 time=0
EXTRACT: control_change channel=1 control=7 value=81 time=0.05376341666666667
EXTRACT: control_change channel=7 control=7 value=75 time=0
EXTRACT: control_change channel=2 control=7 value=73 time=0.05376341666666667
EXTRACT: control_change channel=3 control=7 value=76 time=0
EXTRACT: control_change channel=5 control=7 value=79 time=0
EXTRACT: control_change channel=6 control=7 value=77 time=0
EXTRACT: control_change channel=10 control=7 value=79 time=0
EXTRACT: control_change channel=3 control=64 value=0 time=0.03763439166666667
EXTRACT: control_change channel=4 control=7 value=80 time=0.016129025
EXTRACT: control_change channel=9 control=7 value=81 time=0
EXTRACT: control_change channel=11 control=7 value=80 time=0
EXTRACT: note_on channel=2 note=69 velocity=0 time=0.026881708333333334
EXTRACT: note_on channel=2 note=65 velocity=0 time=0
EXTRACT: note_on channel=2 note=62 velocity=0 time=0
EXTRACT: note_on channel=2 note=60 velocity=0 time=0
EXTRACT: control_change channel=1 control=7 value=80 time=0.026881708333333334
EXTRACT: control_change channel=5 control=7 value=78 time=0
EXTRACT: note_on channel=7 note=43 velocity=0 time=0
EXTRACT: control_change channel=7 control=7 value=74 time=0
EXTRACT: note_on channel=7 note=38 velocity=85 time=0
EXTRACT: note_on channel=9 note=38 velocity=58 time=0
EXTRACT: control_change channel=10 control=7 value=78 time=0
EXTRACT: note_on channel=9 note=38 velocity=0 time=0.005376341666666667
EXTRACT: control_change channel=2 control=7 value=72 time=0.048387075
EXTRACT: control_change channel=3 control=7 value=75 time=0
EXTRACT: control_change channel=4 control=7 value=79 time=0
EXTRACT: control_change channel=6 control=7 value=76 time=0
EXTRACT: control_change channel=11 control=7 value=79 time=0
EXTRACT: control_change channel=9 control=7 value=80 time=0.05376341666666667
EXTRACT: control_change channel=1 control=7 value=79 time=0.05376341666666667
EXTRACT: control_change channel=5 control=7 value=77 time=0
EXTRACT: control_change channel=7 control=7 value=73 time=0
EXTRACT: control_change channel=10 control=7 value=77 time=0
EXTRACT: note_on channel=1 note=50 velocity=0 time=0.021505366666666668
EXTRACT: control_change channel=2 control=7 value=71 time=0.03225805
EXTRACT: control_change channel=3 control=7 value=74 time=0
EXTRACT: control_change channel=4 control=7 value=78 time=0
EXTRACT: control_change channel=6 control=7 value=75 time=0
EXTRACT: control_change channel=9 control=7 value=79 time=0
EXTRACT: control_change channel=11 control=7 value=78 time=0
EXTRACT: note_on channel=4 note=65 velocity=0 time=0.016129025
EXTRACT: note_on channel=11 note=65 velocity=0 time=0
EXTRACT: control_change channel=1 control=7 value=78 time=0.09139780833333334
EXTRACT: note_on channel=1 note=36 velocity=85 time=0
EXTRACT: note_on channel=5 note=62 velocity=0 time=0
EXTRACT: note_on channel=5 note=57 velocity=0 time=0
EXTRACT: note_on channel=5 note=65 velocity=0 time=0
EXTRACT: note_on channel=5 note=60 velocity=0 time=0
EXTRACT: control_change channel=5 control=7 value=76 time=0
EXTRACT: note_on channel=7 note=38 velocity=0 time=0
EXTRACT: control_change channel=7 control=7 value=72 time=0
EXTRACT: note_on channel=7 note=36 velocity=85 time=0
EXTRACT: note_on channel=9 note=35 velocity=58 time=0
EXTRACT: note_on channel=9 note=38 velocity=50 time=0
EXTRACT: note_on channel=10 note=62 velocity=0 time=0
EXTRACT: note_on channel=10 note=57 velocity=0 time=0
EXTRACT: note_on channel=10 note=65 velocity=0 time=0
EXTRACT: note_on channel=10 note=60 velocity=0 time=0
EXTRACT: control_change channel=10 control=7 value=76 time=0
EXTRACT: note_on channel=3 note=59 velocity=52 time=0.005376341666666667
EXTRACT: note_on channel=9 note=38 velocity=0 time=0
EXTRACT: note_on channel=9 note=35 velocity=0 time=0
EXTRACT: note_on channel=2 note=52 velocity=49 time=0.005376341666666667
EXTRACT: note_on channel=2 note=55 velocity=47 time=0
EXTRACT: note_on channel=2 note=59 velocity=55 time=0
EXTRACT: note_on channel=2 note=60 velocity=51 time=0
EXTRACT: note_on channel=2 note=67 velocity=59 time=0
EXTRACT: note_on channel=3 note=60 velocity=46 time=0.026881708333333334
EXTRACT: note_on channel=3 note=52 velocity=42 time=0
EXTRACT: note_on channel=3 note=48 velocity=39 time=0
EXTRACT: control_change channel=3 control=7 value=73 time=0.016129025
EXTRACT: control_change channel=4 control=7 value=77 time=0
EXTRACT: control_change channel=6 control=7 value=74 time=0
EXTRACT: control_change channel=9 control=7 value=78 time=0
EXTRACT: control_change channel=11 control=7 value=77 time=0
EXTRACT: control_change channel=2 control=7 value=70 time=0.05376341666666667
EXTRACT: control_change channel=1 control=7 value=77 time=0.05376341666666667
EXTRACT: control_change channel=5 control=7 value=75 time=0
EXTRACT: control_change channel=7 control=7 value=71 time=0
EXTRACT: control_change channel=10 control=7 value=75 time=0
EXTRACT: control_change channel=3 control=64 value=127 time=0.043010733333333336
EXTRACT: control_change channel=3 control=7 value=72 time=0.010752683333333334
EXTRACT: control_change channel=4 control=7 value=76 time=0
EXTRACT: control_change channel=6 control=7 value=73 time=0
EXTRACT: control_change channel=9 control=7 value=77 time=0
EXTRACT: control_change channel=11 control=7 value=76 time=0
EXTRACT: note_on channel=3 note=59 velocity=0 time=0.021505366666666668
EXTRACT: note_on channel=3 note=52 velocity=0 time=0.016129025
EXTRACT: note_on channel=3 note=60 velocity=0 time=0.010752683333333334
EXTRACT: control_change channel=2 control=7 value=69 time=0.005376341666666667
EXTRACT: control_change channel=5 control=7 value=74 time=0
EXTRACT: control_change channel=7 control=7 value=70 time=0
EXTRACT: control_change channel=10 control=7 value=74 time=0
EXTRACT: control_change channel=1 control=7 value=76 time=0
EXTRACT: control_change channel=4 control=7 value=75 time=0
EXTRACT: note_on channel=4 note=64 velocity=85 time=0
EXTRACT: note_on channel=5 note=64 velocity=82 time=0
EXTRACT: note_on channel=5 note=55 velocity=82 time=0
EXTRACT: note_on channel=5 note=59 velocity=82 time=0
EXTRACT: control_change channel=6 control=7 value=72 time=0
EXTRACT: note_on channel=9 note=38 velocity=38 time=0
EXTRACT: note_on channel=10 note=64 velocity=78 time=0
EXTRACT: note_on channel=10 note=55 velocity=78 time=0
EXTRACT: note_on channel=10 note=59 velocity=78 time=0
EXTRACT: control_change channel=11 control=7 value=75 time=0
EXTRACT: note_on channel=11 note=64 velocity=78 time=0
EXTRACT: note_on channel=9 note=38 velocity=0 time=0.005376341666666667
EXTRACT: control_change channel=9 control=7 value=76 time=0.048387075
EXTRACT: note_on channel=2 note=64 velocity=56 time=0.016129025
EXTRACT: control_change channel=2 control=7 value=68 time=0.03763439166666667
EXTRACT: control_change channel=3 control=7 value=71 time=0
EXTRACT: control_change channel=5 control=7 value=73 time=0
EXTRACT: control_change channel=7 control=7 value=69 time=0
EXTRACT: control_change channel=10 control=7 value=73 time=0
EXTRACT: control_change channel=1 control=7 value=75 time=0.05376341666666667
EXTRACT: control_change channel=4 control=7 value=74 time=0
EXTRACT: control_change channel=6 control=7 value=71 time=0
EXTRACT: control_change channel=11 control=7 value=74 time=0
EXTRACT: control_change channel=9 control=7 value=75 time=0.05376341666666667
EXTRACT: control_change channel=2 control=7 value=67 time=0.05376341666666667
EXTRACT: control_change channel=3 control=7 value=70 time=0
EXTRACT: control_change channel=5 control=7 value=72 time=0
EXTRACT: control_change channel=7 control=7 value=68 time=0
EXTRACT: control_change channel=10 control=7 value=72 time=0
EXTRACT: control_change channel=1 control=7 value=74 time=0
EXTRACT: note_on channel=4 note=64 velocity=0 time=0
EXTRACT: control_change channel=4 control=7 value=73 time=0
EXTRACT: note_on channel=4 note=67 velocity=85 time=0
EXTRACT: note_on channel=5 note=59 velocity=0 time=0
EXTRACT: note_on channel=5 note=55 velocity=0 time=0
EXTRACT: note_on channel=5 note=64 velocity=0 time=0
EXTRACT: note_on channel=5 note=59 velocity=82 time=0
EXTRACT: note_on channel=5 note=67 velocity=82 time=0
EXTRACT: note_on channel=5 note=64 velocity=82 time=0
EXTRACT: control_change channel=6 control=7 value=70 time=0
EXTRACT: note_on channel=9 note=38 velocity=58 time=0
EXTRACT: note_on channel=9 note=42 velocity=48 time=0
EXTRACT: note_on channel=10 note=59 velocity=0 time=0
EXTRACT: note_on channel=10 note=55 velocity=0 time=0
EXTRACT: note_on channel=10 note=64 velocity=0 time=0
EXTRACT: note_on channel=10 note=59 velocity=78 time=0
EXTRACT: note_on channel=10 note=67 velocity=78 time=0
EXTRACT: note_on channel=10 note=64 velocity=78 time=0
EXTRACT: note_on channel=11 note=64 velocity=0 time=0
EXTRACT: control_change channel=11 control=7 value=73 time=0
EXTRACT: note_on channel=11 note=67 velocity=78 time=0
EXTRACT: note_on channel=9 note=42 velocity=0 time=0.005376341666666667
EXTRACT: note_on channel=9 note=38 velocity=0 time=0
EXTRACT: note_on channel=3 note=60 velocity=54 time=0.005376341666666667
EXTRACT: note_on channel=3 note=59 velocity=64 time=0.005376341666666667
EXTRACT: note_on channel=3 note=52 velocity=48 time=0.010752683333333334
EXTRACT: control_change channel=9 control=7 value=74 time=0.026881708333333334
EXTRACT: control_change channel=1 control=7 value=73 time=0.05376341666666667
EXTRACT: control_change channel=2 control=7 value=66 time=0
EXTRACT: control_change channel=3 control=7 value=69 time=0
EXTRACT: control_change channel=5 control=7 value=71 time=0
EXTRACT: control_change channel=7 control=7 value=67 time=0
EXTRACT: control_change channel=10 control=7 value=71 time=0
EXTRACT: control_change channel=4 control=7 value=72 time=0.05376341666666667
EXTRACT: control_change channel=6 control=7 value=69 time=0
EXTRACT: control_change channel=11 control=7 value=72 time=0
EXTRACT: note_on channel=3 note=59 velocity=0 time=0.026881708333333334
EXTRACT: control_change channel=5 control=7 value=70 time=0.026881708333333334
EXTRACT: control_change channel=9 control=7 value=73 time=0
EXTRACT: control_change channel=10 control=7 value=70 time=0
EXTRACT: note_on channel=3 note=52 velocity=0 time=0.005376341666666667
EXTRACT: note_on channel=3 note=60 velocity=0 time=0.021505366666666668
EXTRACT: control_change channel=1 control=7 value=72 time=0.026881708333333334
EXTRACT: control_change channel=2 control=7 value=65 time=0
EXTRACT: control_change channel=3 control=7 value=68 time=0
EXTRACT: control_change channel=4 control=7 value=71 time=0
EXTRACT: control_change channel=7 control=7 value=66 time=0
EXTRACT: control_change channel=11 control=7 value=71 time=0
EXTRACT: control_change channel=2 control=64 value=127 time=0.05376341666666667
EXTRACT: control_change channel=6 control=7 value=68 time=0
EXTRACT: note_on channel=7 note=36 velocity=0 time=0
EXTRACT: note_on channel=7 note=31 velocity=85 time=0
EXTRACT: note_on channel=9 note=38 velocity=38 time=0
EXTRACT: note_on channel=9 note=38 velocity=0 time=0.005376341666666667
EXTRACT: control_change channel=5 control=7 value=69 time=0.048387075
EXTRACT: control_change channel=9 control=7 value=72 time=0
EXTRACT: control_change channel=10 control=7 value=69 time=0
EXTRACT: control_change channel=1 control=7 value=71 time=0.05376341666666667
EXTRACT: control_change channel=2 control=7 value=64 time=0
EXTRACT: control_change channel=3 control=7 value=67 time=0
EXTRACT: control_change channel=4 control=7 value=70 time=0
EXTRACT: control_change channel=6 control=7 value=67 time=0
EXTRACT: control_change channel=7 control=7 value=65 time=0
EXTRACT: control_change channel=11 control=7 value=70 time=0
EXTRACT: control_change channel=3 control=64 value=0 time=0.080645125
EXTRACT: control_change channel=5 control=7 value=68 time=0.026881708333333334
EXTRACT: control_change channel=9 control=7 value=71 time=0
EXTRACT: control_change channel=10 control=7 value=68 time=0
EXTRACT: control_change channel=1 control=7 value=70 time=0.05376341666666667
EXTRACT: control_change channel=2 control=7 value=63 time=0
EXTRACT: control_change channel=3 control=7 value=66 time=0
EXTRACT: control_change channel=4 control=7 value=69 time=0
EXTRACT: control_change channel=6 control=7 value=66 time=0
EXTRACT: control_change channel=7 control=7 value=64 time=0
EXTRACT: control_change channel=11 control=7 value=69 time=0
EXTRACT: note_on channel=1 note=43 velocity=83 time=0.05376341666666667
EXTRACT: note_on channel=3 note=60 velocity=51 time=0
EXTRACT: control_change channel=5 control=7 value=67 time=0
EXTRACT: note_on channel=7 note=31 velocity=0 time=0
EXTRACT: note_on channel=7 note=36 velocity=85 time=0
EXTRACT: note_on channel=9 note=35 velocity=58 time=0
EXTRACT: note_on channel=9 note=38 velocity=58 time=0
EXTRACT: control_change channel=10 control=7 value=67 time=0
EXTRACT: note_on channel=9 note=38 velocity=0 time=0.005376341666666667
EXTRACT: note_on channel=9 note=35 velocity=0 time=0
EXTRACT: note_on channel=3 note=43 velocity=51 time=0.005376341666666667
EXTRACT: note_on channel=3 note=59 velocity=58 time=0
EXTRACT: note_on channel=3 note=52 velocity=41 time=0
EXTRACT: note_on channel=1 note=36 velocity=0 time=0.021505366666666668
EXTRACT: control_change channel=9 control=7 value=70 time=0.021505366666666668
EXTRACT: note_on channel=3 note=48 velocity=0 time=0.016129025
EXTRACT: control_change channel=1 control=7 value=69 time=0.03763439166666667
EXTRACT: control_change channel=3 control=7 value=65 time=0
EXTRACT: control_change channel=4 control=7 value=68 time=0
EXTRACT: control_change channel=6 control=7 value=65 time=0
EXTRACT: control_change channel=7 control=7 value=63 time=0
EXTRACT: control_change channel=11 control=7 value=68 time=0
EXTRACT: control_change channel=2 control=7 value=62 time=0.05376341666666667
EXTRACT: control_change channel=5 control=7 value=66 time=0
EXTRACT: control_change channel=10 control=7 value=66 time=0
EXTRACT: control_change channel=4 control=7 value=67 time=0.05376341666666667
EXTRACT: control_change channel=9 control=7 value=69 time=0
EXTRACT: control_change channel=11 control=7 value=67 time=0
EXTRACT: control_change channel=1 control=7 value=68 time=0.05376341666666667
EXTRACT: control_change channel=3 control=7 value=64 time=0
EXTRACT: control_change channel=3 control=64 value=127 time=0
EXTRACT: control_change channel=6 control=7 value=64 time=0
EXTRACT: control_change channel=7 control=7 value=62 time=0
EXTRACT: control_change channel=2 control=7 value=61 time=0.05376341666666667
EXTRACT: control_change channel=2 control=0 value=0 time=0
EXTRACT: control_change channel=5 control=7 value=65 time=0
EXTRACT: note_on channel=7 note=36 velocity=0 time=0
EXTRACT: note_on channel=7 note=36 velocity=85 time=0
EXTRACT: note_on channel=9 note=38 velocity=38 time=0
EXTRACT: control_change channel=10 control=7 value=65 time=0
EXTRACT: note_on channel=9 note=38 velocity=0 time=0.005376341666666667
EXTRACT: control_change channel=4 control=7 value=66 time=0.048387075
EXTRACT: control_change channel=6 control=7 value=63 time=0
EXTRACT: control_change channel=7 control=7 value=61 time=0
EXTRACT: control_change channel=9 control=7 value=68 time=0
EXTRACT: control_change channel=11 control=7 value=66 time=0
EXTRACT: note_on channel=3 note=59 velocity=0 time=0.043010733333333336
EXTRACT: control_change channel=1 control=7 value=67 time=0.010752683333333334
EXTRACT: control_change channel=3 control=7 value=63 time=0
EXTRACT: note_on channel=3 note=52 velocity=0 time=0.005376341666666667
EXTRACT: note_on channel=3 note=60 velocity=0 time=0.021505366666666668
EXTRACT: control_change channel=2 control=7 value=60 time=0.026881708333333334
EXTRACT: control_change channel=5 control=7 value=64 time=0
EXTRACT: control_change channel=10 control=7 value=64 time=0
EXTRACT: control_change channel=4 control=7 value=65 time=0.05376341666666667
EXTRACT: control_change channel=6 control=7 value=62 time=0
EXTRACT: control_change channel=7 control=7 value=60 time=0
EXTRACT: control_change channel=9 control=7 value=67 time=0
EXTRACT: control_change channel=11 control=7 value=65 time=0
EXTRACT: control_change channel=1 control=7 value=66 time=0.05376341666666667
EXTRACT: control_change channel=3 control=7 value=62 time=0
EXTRACT: control_change channel=5 control=7 value=63 time=0
EXTRACT: control_change channel=10 control=7 value=63 time=0
EXTRACT: control_change channel=2 control=7 value=59 time=0.05376341666666667
EXTRACT: note_on channel=9 note=38 velocity=48 time=0
EXTRACT: note_on channel=9 note=42 velocity=48 time=0
EXTRACT: note_on channel=9 note=42 velocity=0 time=0.005376341666666667
EXTRACT: note_on channel=9 note=38 velocity=0 time=0
EXTRACT: control_change channel=4 control=7 value=64 time=0.048387075
EXTRACT: control_change channel=6 control=7 value=61 time=0
EXTRACT: control_change channel=7 control=7 value=59 time=0
EXTRACT: control_change channel=9 control=7 value=66 time=0
EXTRACT: control_change channel=11 control=7 value=64 time=0
EXTRACT: control_change channel=1 control=7 value=65 time=0.05376341666666667
EXTRACT: control_change channel=3 control=7 value=61 time=0
EXTRACT: control_change channel=5 control=7 value=62 time=0
EXTRACT: control_change channel=10 control=7 value=62 time=0
EXTRACT: note_on channel=1 note=43 velocity=0 time=0.005376341666666667
EXTRACT: control_change channel=2 control=7 value=58 time=0.048387075
EXTRACT: control_change channel=4 control=7 value=63 time=0
EXTRACT: control_change channel=11 control=7 value=63 time=0
EXTRACT: control_change channel=6 control=7 value=60 time=0.05376341666666667
EXTRACT: control_change channel=7 control=7 value=58 time=0
EXTRACT: control_change channel=9 control=7 value=65 time=0
EXTRACT: control_change channel=1 control=7 value=64 time=0.05376341666666667
EXTRACT: control_change channel=3 control=7 value=60 time=0
EXTRACT: control_change channel=5 control=7 value=61 time=0
EXTRACT: control_change channel=10 control=7 value=61 time=0
EXTRACT: note_on channel=3 note=43 velocity=0 time=0.016129025
EXTRACT: note_on channel=1 note=43 velocity=77 time=0.03763439166666667
EXTRACT: control_change channel=2 control=7 value=57 time=0
EXTRACT: control_change channel=2 control=0 value=0 time=0
EXTRACT: control_change channel=4 control=7 value=62 time=0
EXTRACT: note_on channel=7 note=36 velocity=0 time=0
EXTRACT: note_on channel=7 note=31 velocity=85 time=0
EXTRACT: control_change channel=9 control=7 value=64 time=0
EXTRACT: note_on channel=9 note=38 velocity=58 time=0
EXTRACT: control_change channel=11 control=7 value=62 time=0
EXTRACT: note_on channel=9 note=38 velocity=0 time=0.005376341666666667
EXTRACT: note_on channel=3 note=60 velocity=45 time=0.005376341666666667
EXTRACT: note_on channel=3 note=59 velocity=68 time=0.016129025
EXTRACT: control_change channel=1 control=7 value=63 time=0.026881708333333334
EXTRACT: note_on channel=3 note=52 velocity=25 time=0
EXTRACT: control_change channel=6 control=7 value=59 time=0
EXTRACT: control_change channel=7 control=7 value=57 time=0
EXTRACT: control_change channel=3 control=7 value=59 time=0.05376341666666667
EXTRACT: control_change channel=5 control=7 value=60 time=0
EXTRACT: control_change channel=10 control=7 value=60 time=0
EXTRACT: note_on channel=3 note=59 velocity=0 time=0.010752683333333334
EXTRACT: note_on channel=3 note=52 velocity=0 time=0.010752683333333334
EXTRACT: note_on channel=3 note=60 velocity=0 time=0.026881708333333334
EXTRACT: control_change channel=2 control=7 value=56 time=0.005376341666666667
EXTRACT: control_change channel=4 control=7 value=61 time=0
EXTRACT: control_change channel=6 control=7 value=58 time=0
EXTRACT: control_change channel=9 control=7 value=63 time=0
EXTRACT: control_change channel=11 control=7 value=61 time=0
EXTRACT: control_change channel=1 control=7 value=62 time=0.05376341666666667
EXTRACT: control_change channel=5 control=7 value=59 time=0
EXTRACT: control_change channel=7 control=7 value=56 time=0
EXTRACT: control_change channel=10 control=7 value=59 time=0
EXTRACT: control_change channel=3 control=7 value=58 time=0.05376341666666667
EXTRACT: control_change channel=3 control=64 value=0 time=0
EXTRACT: note_on channel=1 note=36 velocity=72 time=0.05376341666666667
EXTRACT: control_change channel=2 control=7 value=55 time=0
EXTRACT: control_change channel=4 control=7 value=60 time=0
EXTRACT: control_change channel=6 control=7 value=57 time=0
EXTRACT: note_on channel=7 note=31 velocity=0 time=0
EXTRACT: note_on channel=7 note=36 velocity=85 time=0
EXTRACT: control_change channel=9 control=7 value=62 time=0
EXTRACT: note_on channel=9 note=35 velocity=58 time=0
EXTRACT: note_on channel=9 note=38 velocity=50 time=0
EXTRACT: control_change channel=11 control=7 value=60 time=0
EXTRACT: note_on channel=3 note=48 velocity=45 time=0.005376341666666667
EXTRACT: note_on channel=9 note=38 velocity=0 time=0
EXTRACT: note_on channel=9 note=35 velocity=0 time=0
EXTRACT: note_on channel=1 note=43 velocity=0 time=0.005376341666666667
EXTRACT: note_on channel=3 note=52 velocity=49 time=0
EXTRACT: note_on channel=3 note=59 velocity=63 time=0.005376341666666667
EXTRACT: note_on channel=3 note=60 velocity=59 time=0.005376341666666667
EXTRACT: control_change channel=1 control=7 value=61 time=0.03225805
EXTRACT: control_change channel=5 control=7 value=58 time=0
EXTRACT: control_change channel=7 control=7 value=55 time=0
EXTRACT: control_change channel=10 control=7 value=58 time=0
EXTRACT: control_change channel=3 control=7 value=57 time=0.05376341666666667
EXTRACT: control_change channel=4 control=7 value=59 time=0
EXTRACT: control_change channel=11 control=7 value=59 time=0
EXTRACT: control_change channel=6 control=7 value=56 time=0.05376341666666667
EXTRACT: control_change channel=9 control=7 value=61 time=0
EXTRACT: note_on channel=3 note=52 velocity=0 time=0.016129025
EXTRACT: note_on channel=3 note=59 velocity=0 time=0.005376341666666667
EXTRACT: control_change channel=1 control=7 value=60 time=0.03225805
EXTRACT: control_change channel=2 control=7 value=54 time=0
EXTRACT: control_change channel=5 control=7 value=57 time=0
EXTRACT: control_change channel=7 control=7 value=54 time=0
EXTRACT: control_change channel=10 control=7 value=57 time=0
EXTRACT: note_on channel=3 note=60 velocity=0 time=0.005376341666666667
EXTRACT: control_change channel=3 control=7 value=56 time=0.048387075
EXTRACT: control_change channel=4 control=7 value=58 time=0
EXTRACT: control_change channel=11 control=7 value=58 time=0
EXTRACT: control_change channel=2 control=0 value=0 time=0.05376341666666667
EXTRACT: control_change channel=5 control=7 value=56 time=0
EXTRACT: control_change channel=6 control=7 value=55 time=0
EXTRACT: control_change channel=7 control=7 value=53 time=0
EXTRACT: control_change channel=9 control=7 value=60 time=0
EXTRACT: note_on channel=9 note=38 velocity=38 time=0
EXTRACT: control_change channel=10 control=7 value=56 time=0
EXTRACT: note_on channel=9 note=38 velocity=0 time=0.005376341666666667
EXTRACT: note_on channel=3 note=52 velocity=57 time=0.03763439166666667
EXTRACT: control_change channel=1 control=7 value=59 time=0.010752683333333334
EXTRACT: control_change channel=2 control=7 value=53 time=0
EXTRACT: note_on channel=3 note=60 velocity=46 time=0
EXTRACT: note_on channel=3 note=59 velocity=52 time=0.005376341666666667
EXTRACT: control_change channel=3 control=64 value=127 time=0
EXTRACT: control_change channel=3 control=7 value=55 time=0.048387075
EXTRACT: control_change channel=4 control=7 value=57 time=0
EXTRACT: control_change channel=11 control=7 value=57 time=0
EXTRACT: control_change channel=5 control=7 value=55 time=0.05376341666666667
EXTRACT: control_change channel=6 control=7 value=54 time=0
EXTRACT: control_change channel=7 control=7 value=52 time=0
EXTRACT: control_change channel=9 control=7 value=59 time=0
EXTRACT: control_change channel=10 control=7 value=55 time=0
EXTRACT: control_change channel=1 control=7 value=58 time=0.05376341666666667
EXTRACT: control_change channel=2 control=7 value=52 time=0
EXTRACT: note_on channel=3 note=59 velocity=0 time=0.010752683333333334
EXTRACT: note_on channel=3 note=52 velocity=0 time=0.010752683333333334
EXTRACT: note_on channel=3 note=60 velocity=0 time=0.026881708333333334
EXTRACT: control_change channel=4 control=7 value=56 time=0.005376341666666667
EXTRACT: control_change channel=6 control=7 value=53 time=0
EXTRACT: control_change channel=11 control=7 value=56 time=0
EXTRACT: control_change channel=3 control=7 value=54 time=0.05376341666666667
EXTRACT: control_change channel=5 control=7 value=54 time=0
EXTRACT: control_change channel=7 control=7 value=51 time=0
EXTRACT: control_change channel=9 control=7 value=58 time=0
EXTRACT: note_on channel=9 note=38 velocity=58 time=0
EXTRACT: note_on channel=9 note=42 velocity=48 time=0
EXTRACT: control_change channel=10 control=7 value=54 time=0
EXTRACT: note_on channel=9 note=42 velocity=0 time=0.005376341666666667
EXTRACT: note_on channel=9 note=38 velocity=0 time=0
EXTRACT: control_change channel=1 control=7 value=57 time=0.048387075
EXTRACT: control_change channel=2 control=7 value=51 time=0
EXTRACT: control_change channel=4 control=7 value=55 time=0
EXTRACT: control_change channel=11 control=7 value=55 time=0
EXTRACT: control_change channel=6 control=7 value=52 time=0.05376341666666667
EXTRACT: note_on channel=1 note=36 velocity=0 time=0.010752683333333334
EXTRACT: control_change channel=3 control=7 value=53 time=0.043010733333333336
EXTRACT: control_change channel=5 control=7 value=53 time=0
EXTRACT: control_change channel=7 control=7 value=50 time=0
EXTRACT: control_change channel=9 control=7 value=57 time=0
EXTRACT: control_change channel=10 control=7 value=53 time=0
EXTRACT: control_change channel=1 control=7 value=56 time=0.05376341666666667
EXTRACT: control_change channel=2 control=7 value=50 time=0
EXTRACT: control_change channel=4 control=7 value=54 time=0
EXTRACT: control_change channel=11 control=7 value=54 time=0
EXTRACT: control_change channel=5 control=7 value=52 time=0.05376341666666667
EXTRACT: control_change channel=6 control=7 value=51 time=0
EXTRACT: control_change channel=10 control=7 value=52 time=0
EXTRACT: note_on channel=1 note=36 velocity=75 time=0.05376341666666667
EXTRACT: control_change channel=2 control=0 value=0 time=0
EXTRACT: control_change channel=3 control=7 value=52 time=0
EXTRACT: note_on channel=7 note=36 velocity=0 time=0
EXTRACT: control_change channel=7 control=7 value=49 time=0
EXTRACT: note_on channel=7 note=31 velocity=85 time=0
EXTRACT: control_change channel=9 control=7 value=56 time=0
EXTRACT: note_on channel=9 note=38 velocity=38 time=0
EXTRACT: note_on channel=9 note=38 velocity=0 time=0.005376341666666667
EXTRACT: note_on channel=3 note=48 velocity=0 time=0.010752683333333334
EXTRACT: note_on channel=3 note=52 velocity=66 time=0.010752683333333334
EXTRACT: note_on channel=3 note=60 velocity=64 time=0
EXTRACT: note_on channel=3 note=59 velocity=71 time=0
EXTRACT: control_change channel=1 control=7 value=55 time=0.026881708333333334
EXTRACT: control_change channel=2 control=7 value=49 time=0
EXTRACT: control_change channel=4 control=7 value=53 time=0
EXTRACT: control_change channel=11 control=7 value=53 time=0
EXTRACT: control_change channel=5 control=7 value=51 time=0.05376341666666667
EXTRACT: control_change channel=6 control=7 value=50 time=0
EXTRACT: control_change channel=10 control=7 value=51 time=0
EXTRACT: note_on channel=2 note=59 velocity=0 time=0.005376341666666667
EXTRACT: note_on channel=2 note=52 velocity=0 time=0.03225805
EXTRACT: note_on channel=2 note=60 velocity=0 time=0.005376341666666667
EXTRACT: note_on channel=2 note=55 velocity=0 time=0
EXTRACT: control_change channel=3 control=7 value=51 time=0.010752683333333334
EXTRACT: control_change channel=7 control=7 value=48 time=0
EXTRACT: control_change channel=9 control=7 value=55 time=0
EXTRACT: control_change channel=1 control=7 value=54 time=0.05376341666666667
EXTRACT: note_on channel=2 note=67 velocity=0 time=0
EXTRACT: control_change channel=2 control=7 value=48 time=0
EXTRACT: control_change channel=4 control=7 value=52 time=0
EXTRACT: control_change channel=6 control=7 value=49 time=0
EXTRACT: control_change channel=11 control=7 value=52 time=0
EXTRACT: note_on channel=3 note=59 velocity=0 time=0.03763439166666667
EXTRACT: control_change channel=5 control=7 value=50 time=0.016129025
EXTRACT: control_change channel=10 control=7 value=50 time=0
EXTRACT: note_on channel=3 note=52 velocity=0 time=0.016129025
EXTRACT: control_change channel=3 control=64 value=0 time=0
EXTRACT: note_on channel=2 note=64 velocity=0 time=0.005376341666666667
EXTRACT: note_on channel=3 note=60 velocity=0 time=0.010752683333333334
EXTRACT: control_change channel=1 control=7 value=53 time=0.021505366666666668
EXTRACT: note_on channel=1 note=43 velocity=78 time=0
EXTRACT: control_change channel=3 control=7 value=50 time=0
EXTRACT: control_change channel=4 control=7 value=51 time=0
EXTRACT: note_on channel=7 note=31 velocity=0 time=0
EXTRACT: control_change channel=7 control=7 value=47 time=0
EXTRACT: note_on channel=7 note=36 velocity=85 time=0
EXTRACT: control_change channel=9 control=7 value=54 time=0
EXTRACT: note_on channel=9 note=35 velocity=58 time=0
EXTRACT: note_on channel=9 note=38 velocity=58 time=0
EXTRACT: control_change channel=11 control=7 value=51 time=0
EXTRACT: note_on channel=9 note=38 velocity=0 time=0.005376341666666667
EXTRACT: note_on channel=9 note=35 velocity=0 time=0
EXTRACT: note_on channel=1 note=36 velocity=0 time=0.03763439166666667
EXTRACT: note_on channel=3 note=43 velocity=50 time=0
EXTRACT: control_change channel=2 control=7 value=47 time=0.010752683333333334
EXTRACT: control_change channel=6 control=7 value=48 time=0
EXTRACT: control_change channel=5 control=7 value=49 time=0.05376341666666667
EXTRACT: control_change channel=10 control=7 value=49 time=0
EXTRACT: control_change channel=1 control=7 value=52 time=0.05376341666666667
EXTRACT: control_change channel=3 control=7 value=49 time=0
EXTRACT: control_change channel=4 control=7 value=50 time=0
EXTRACT: control_change channel=7 control=7 value=46 time=0
EXTRACT: control_change channel=9 control=7 value=53 time=0
EXTRACT: control_change channel=11 control=7 value=50 time=0
EXTRACT: control_change channel=5 control=7 value=48 time=0.05376341666666667
EXTRACT: control_change channel=6 control=7 value=47 time=0
EXTRACT: control_change channel=10 control=7 value=48 time=0
EXTRACT: control_change channel=2 control=7 value=46 time=0.05376341666666667
EXTRACT: control_change channel=1 control=7 value=51 time=0.05376341666666667
EXTRACT: control_change channel=2 control=64 value=0 time=0
EXTRACT: note_on channel=2 note=67 velocity=65 time=0
EXTRACT: note_on channel=2 note=55 velocity=43 time=0
EXTRACT: note_on channel=2 note=60 velocity=53 time=0
EXTRACT: note_on channel=2 note=64 velocity=66 time=0
EXTRACT: note_on channel=2 note=52 velocity=46 time=0
EXTRACT: note_on channel=2 note=59 velocity=70 time=0
EXTRACT: control_change channel=3 control=7 value=48 time=0
EXTRACT: control_change channel=4 control=7 value=49 time=0
EXTRACT: note_on channel=7 note=36 velocity=0 time=0
EXTRACT: control_change channel=7 control=7 value=45 time=0
EXTRACT: note_on channel=7 note=36 velocity=85 time=0
EXTRACT: control_change channel=9 control=7 value=52 time=0
EXTRACT: note_on channel=9 note=38 velocity=38 time=0
EXTRACT: control_change channel=11 control=7 value=49 time=0
EXTRACT: note_on channel=9 note=38 velocity=0 time=0.005376341666666667
EXTRACT: note_on channel=3 note=59 velocity=66 time=0.026881708333333334
EXTRACT: note_on channel=3 note=52 velocity=47 time=0
EXTRACT: note_on channel=3 note=60 velocity=57 time=0.016129025
EXTRACT: control_change channel=5 control=7 value=47 time=0.005376341666666667
EXTRACT: control_change channel=6 control=7 value=46 time=0
EXTRACT: control_change channel=10 control=7 value=47 time=0
EXTRACT: note_on channel=1 note=43 velocity=0 time=0.048387075
EXTRACT: control_change channel=2 control=7 value=45 time=0.005376341666666667
EXTRACT: control_change channel=7 control=7 value=44 time=0
EXTRACT: control_change channel=1 control=7 value=50 time=0.05376341666666667
EXTRACT: control_change channel=3 control=7 value=47 time=0
EXTRACT: control_change channel=4 control=7 value=48 time=0
EXTRACT: control_change channel=9 control=7 value=51 time=0
EXTRACT: control_change channel=11 control=7 value=48 time=0
EXTRACT: control_change channel=5 control=7 value=46 time=0.05376341666666667
EXTRACT: control_change channel=6 control=7 value=45 time=0
EXTRACT: control_change channel=10 control=7 value=46 time=0
EXTRACT: control_change channel=2 control=7 value=44 time=0.05376341666666667
EXTRACT: control_change channel=4 control=7 value=47 time=0
EXTRACT: control_change channel=7 control=7 value=43 time=0
EXTRACT: control_change channel=11 control=7 value=47 time=0
EXTRACT: control_change channel=1 control=7 value=49 time=0.05376341666666667
EXTRACT: note_on channel=1 note=43 velocity=71 time=0
EXTRACT: control_change channel=3 control=7 value=46 time=0
EXTRACT: control_change channel=5 control=7 value=45 time=0
EXTRACT: control_change channel=6 control=7 value=44 time=0
EXTRACT: control_change channel=9 control=7 value=50 time=0
EXTRACT: note_on channel=9 note=38 velocity=48 time=0
EXTRACT: note_on channel=9 note=42 velocity=48 time=0
EXTRACT: control_change channel=10 control=7 value=45 time=0
EXTRACT: note_on channel=9 note=42 velocity=0 time=0.005376341666666667
EXTRACT: note_on channel=9 note=38 velocity=0 time=0
EXTRACT: control_change channel=2 control=7 value=43 time=0.10215049166666668
EXTRACT: control_change channel=4 control=7 value=46 time=0
EXTRACT: control_change channel=7 control=7 value=42 time=0
EXTRACT: control_change channel=9 control=7 value=49 time=0
EXTRACT: control_change channel=11 control=7 value=46 time=0
EXTRACT: control_change channel=1 control=7 value=48 time=0.05376341666666667
EXTRACT: control_change channel=3 control=7 value=45 time=0
EXTRACT: control_change channel=5 control=7 value=44 time=0
EXTRACT: control_change channel=6 control=7 value=43 time=0
EXTRACT: control_change channel=10 control=7 value=44 time=0
EXTRACT: control_change channel=2 control=7 value=42 time=0.10752683333333334
EXTRACT: control_change channel=4 control=7 value=45 time=0
EXTRACT: control_change channel=7 control=7 value=41 time=0
EXTRACT: control_change channel=9 control=7 value=48 time=0
EXTRACT: control_change channel=11 control=7 value=45 time=0
EXTRACT: control_change channel=1 control=7 value=47 time=0.05376341666666667
EXTRACT: control_change channel=3 control=7 value=44 time=0
EXTRACT: control_change channel=5 control=7 value=43 time=0
EXTRACT: control_change channel=6 control=7 value=42 time=0
EXTRACT: note_on channel=7 note=36 velocity=0 time=0
EXTRACT: note_on channel=7 note=36 velocity=85 time=0
EXTRACT: note_on channel=9 note=38 velocity=58 time=0
EXTRACT: control_change channel=10 control=7 value=43 time=0
EXTRACT: note_on channel=9 note=38 velocity=0 time=0.005376341666666667
EXTRACT: note_on channel=2 note=59 velocity=0 time=0.07526878333333334
EXTRACT: control_change channel=2 control=7 value=41 time=0.026881708333333334
EXTRACT: control_change channel=4 control=7 value=44 time=0
EXTRACT: control_change channel=7 control=7 value=40 time=0
EXTRACT: control_change channel=9 control=7 value=47 time=0
EXTRACT: control_change channel=11 control=7 value=44 time=0
EXTRACT: note_on channel=2 note=55 velocity=0 time=0.010752683333333334
EXTRACT: note_on channel=2 note=52 velocity=0 time=0
EXTRACT: note_on channel=4 note=67 velocity=0 time=0.005376341666666667
EXTRACT: note_on channel=11 note=67 velocity=0 time=0
EXTRACT: note_on channel=2 note=67 velocity=0 time=0.016129025
EXTRACT: note_on channel=2 note=60 velocity=0 time=0.010752683333333334
EXTRACT: note_on channel=2 note=64 velocity=0 time=0
EXTRACT: control_change channel=1 control=7 value=46 time=0.010752683333333334
EXTRACT: control_change channel=3 control=7 value=43 time=0
EXTRACT: control_change channel=5 control=7 value=42 time=0
EXTRACT: control_change channel=6 control=7 value=41 time=0
EXTRACT: note_on channel=7 note=36 velocity=0 time=0
EXTRACT: note_on channel=7 note=38 velocity=85 time=0
EXTRACT: control_change channel=10 control=7 value=42 time=0
EXTRACT: note_on channel=1 note=43 velocity=0 time=0.021505366666666668
EXTRACT: note_on channel=3 note=43 velocity=0 time=0.021505366666666668
EXTRACT: control_change channel=4 control=7 value=43 time=0.010752683333333334
EXTRACT: control_change channel=11 control=7 value=43 time=0
EXTRACT: note_on channel=3 note=59 velocity=0 time=0.021505366666666668
EXTRACT: note_on channel=3 note=52 velocity=0 time=0.026881708333333334
EXTRACT: control_change channel=2 control=7 value=40 time=0.005376341666666667
EXTRACT: control_change channel=5 control=7 value=41 time=0
EXTRACT: control_change channel=6 control=7 value=40 time=0
EXTRACT: control_change channel=7 control=7 value=39 time=0
EXTRACT: control_change channel=9 control=7 value=46 time=0
EXTRACT: control_change channel=10 control=7 value=41 time=0
EXTRACT: control_change channel=1 control=7 value=45 time=0.05376341666666667
EXTRACT: note_on channel=1 note=43 velocity=86 time=0
EXTRACT: note_on channel=2 note=64 velocity=56 time=0
EXTRACT: note_on channel=3 note=60 velocity=0 time=0
EXTRACT: control_change channel=3 control=7 value=42 time=0
EXTRACT: note_on channel=5 note=64 velocity=0 time=0
EXTRACT: note_on channel=5 note=67 velocity=0 time=0
EXTRACT: note_on channel=5 note=59 velocity=0 time=0
EXTRACT: note_on channel=6 note=53 velocity=82 time=0
EXTRACT: note_on channel=6 note=57 velocity=82 time=0
EXTRACT: note_on channel=6 note=60 velocity=82 time=0
EXTRACT: note_on channel=7 note=38 velocity=0 time=0
EXTRACT: note_on channel=7 note=31 velocity=85 time=0
EXTRACT: note_on channel=9 note=35 velocity=58 time=0
EXTRACT: note_on channel=9 note=38 velocity=50 time=0
EXTRACT: note_on channel=10 note=64 velocity=0 time=0
EXTRACT: note_on channel=10 note=67 velocity=0 time=0
EXTRACT: note_on channel=10 note=59 velocity=0 time=0
EXTRACT: note_on channel=9 note=38 velocity=0 time=0.005376341666666667
EXTRACT: note_on channel=9 note=35 velocity=0 time=0
EXTRACT: note_on channel=3 note=60 velocity=69 time=0.005376341666666667
EXTRACT: note_on channel=3 note=43 velocity=49 time=0
EXTRACT: note_on channel=3 note=53 velocity=47 time=0.005376341666666667
EXTRACT: note_on channel=3 note=64 velocity=69 time=0.005376341666666667
EXTRACT: note_on channel=2 note=60 velocity=67 time=0.026881708333333334
EXTRACT: note_on channel=2 note=53 velocity=39 time=0
EXTRACT: control_change channel=4 control=7 value=42 time=0.005376341666666667
EXTRACT: control_change channel=11 control=7 value=42 time=0
EXTRACT: control_change channel=5 control=7 value=40 time=0.05376341666666667
EXTRACT: control_change channel=6 control=7 value=39 time=0
EXTRACT: control_change channel=7 control=7 value=38 time=0
EXTRACT: control_change channel=9 control=7 value=45 time=0
EXTRACT: control_change channel=10 control=7 value=40 time=0
EXTRACT: note_on channel=2 note=65 velocity=61 time=0.03763439166666667
EXTRACT: control_change channel=1 control=7 value=44 time=0.016129025
EXTRACT: control_change channel=2 control=7 value=39 time=0
EXTRACT: control_change channel=3 control=7 value=41 time=0
EXTRACT: control_change channel=4 control=7 value=41 time=0.05376341666666667
EXTRACT: control_change channel=11 control=7 value=41 time=0
EXTRACT: control_change channel=3 control=64 value=127 time=0.021505366666666668
EXTRACT: control_change channel=1 control=7 value=43 time=0.03225805
EXTRACT: note_on channel=3 note=60 velocity=0 time=0
EXTRACT: control_change channel=5 control=7 value=39 time=0
EXTRACT: control_change channel=6 control=7 value=38 time=0
EXTRACT: control_change channel=7 control=7 value=37 time=0
EXTRACT: control_change channel=9 control=7 value=44 time=0
EXTRACT: control_change channel=10 control=7 value=39 time=0
EXTRACT: note_on channel=2 note=69 velocity=52 time=0.021505366666666668
EXTRACT: note_on channel=3 note=64 velocity=0 time=0.010752683333333334
EXTRACT: note_on channel=3 note=53 velocity=0 time=0.005376341666666667
EXTRACT: control_change channel=2 control=7 value=38 time=0.016129025
EXTRACT: control_change channel=3 control=7 value=40 time=0
EXTRACT: note_on channel=9 note=38 velocity=38 time=0
EXTRACT: note_on channel=9 note=38 velocity=0 time=0.005376341666666667
EXTRACT: control_change channel=4 control=7 value=40 time=0.048387075
EXTRACT: control_change channel=11 control=7 value=40 time=0
EXTRACT: control_change channel=1 control=7 value=42 time=0.05376341666666667
EXTRACT: control_change channel=5 control=7 value=38 time=0
EXTRACT: control_change channel=6 control=7 value=37 time=0
EXTRACT: control_change channel=7 control=7 value=36 time=0
EXTRACT: control_change channel=9 control=7 value=43 time=0
EXTRACT: control_change channel=10 control=7 value=38 time=0
EXTRACT: control_change channel=2 control=7 value=37 time=0.05376341666666667
EXTRACT: control_change channel=2 control=64 value=127 time=0
EXTRACT: control_change channel=3 control=7 value=39 time=0
EXTRACT: control_change channel=4 control=7 value=39 time=0
EXTRACT: control_change channel=11 control=7 value=39 time=0
EXTRACT: control_change channel=5 control=7 value=37 time=0.05376341666666667
EXTRACT: control_change channel=7 control=7 value=35 time=0
EXTRACT: control_change channel=10 control=7 value=37 time=0
EXTRACT: control_change channel=1 control=7 value=41 time=0.05376341666666667
EXTRACT: control_change channel=6 control=7 value=36 time=0
EXTRACT: control_change channel=9 control=7 value=42 time=0
EXTRACT: control_change channel=2 control=7 value=36 time=0.05376341666666667
EXTRACT: control_change channel=3 control=7 value=38 time=0
EXTRACT: control_change channel=4 control=7 value=38 time=0
EXTRACT: note_on channel=9 note=38 velocity=58 time=0
EXTRACT: note_on channel=9 note=42 velocity=48 time=0
EXTRACT: control_change channel=11 control=7 value=38 time=0
EXTRACT: note_on channel=9 note=42 velocity=0 time=0.005376341666666667
EXTRACT: note_on channel=9 note=38 velocity=0 time=0
EXTRACT: note_on channel=3 note=53 velocity=48 time=0.005376341666666667
EXTRACT: note_on channel=3 note=60 velocity=58 time=0.005376341666666667
EXTRACT: note_on channel=3 note=64 velocity=53 time=0.005376341666666667
EXTRACT: control_change channel=5 control=7 value=36 time=0.03225805
EXTRACT: control_change channel=6 control=7 value=35 time=0
EXTRACT: control_change channel=7 control=7 value=34 time=0
EXTRACT: control_change channel=10 control=7 value=36 time=0
EXTRACT: control_change channel=1 control=7 value=40 time=0.05376341666666667
EXTRACT: control_change channel=9 control=7 value=41 time=0
EXTRACT: control_change channel=2 control=7 value=35 time=0.05376341666666667
EXTRACT: control_change channel=3 control=7 value=37 time=0
EXTRACT: control_change channel=4 control=7 value=37 time=0
EXTRACT: control_change channel=11 control=7 value=37 time=0
EXTRACT: control_change channel=5 control=7 value=35 time=0.05376341666666667
EXTRACT: control_change channel=6 control=7 value=34 time=0
EXTRACT: control_change channel=7 control=7 value=33 time=0
EXTRACT: control_change channel=10 control=7 value=35 time=0
EXTRACT: note_on channel=3 note=60 velocity=0 time=0.010752683333333334
EXTRACT: note_on channel=3 note=53 velocity=0 time=0.016129025
EXTRACT: note_on channel=3 note=64 velocity=0 time=0.021505366666666668
EXTRACT: control_change channel=1 control=7 value=39 time=0.005376341666666667
EXTRACT: control_change channel=9 control=7 value=40 time=0
EXTRACT: control_change channel=2 control=7 value=34 time=0.05376341666666667
EXTRACT: control_change channel=4 control=7 value=36 time=0
EXTRACT: control_change channel=5 control=7 value=34 time=0
EXTRACT: note_on channel=7 note=31 velocity=0 time=0
EXTRACT: note_on channel=7 note=38 velocity=85 time=0
EXTRACT: note_on channel=9 note=38 velocity=38 time=0
EXTRACT: control_change channel=10 control=7 value=34 time=0
EXTRACT: control_change channel=11 control=7 value=36 time=0
EXTRACT: note_on channel=9 note=38 velocity=0 time=0.005376341666666667
EXTRACT: control_change channel=3 control=7 value=36 time=0.048387075
EXTRACT: control_change channel=6 control=7 value=33 time=0
EXTRACT: control_change channel=7 control=7 value=32 time=0
EXTRACT: control_change channel=1 control=7 value=38 time=0.05376341666666667
EXTRACT: control_change channel=4 control=7 value=35 time=0
EXTRACT: control_change channel=9 control=7 value=39 time=0
EXTRACT: control_change channel=11 control=7 value=35 time=0
EXTRACT: note_on channel=3 note=43 velocity=0 time=0.021505366666666668
EXTRACT: control_change channel=2 control=7 value=33 time=0.03225805
EXTRACT: control_change channel=2 control=0 value=0 time=0
EXTRACT: control_change channel=5 control=7 value=33 time=0
EXTRACT: control_change channel=10 control=7 value=33 time=0
EXTRACT: control_change channel=3 control=7 value=35 time=0.05376341666666667
EXTRACT: control_change channel=6 control=7 value=32 time=0
EXTRACT: control_change channel=7 control=7 value=31 time=0
EXTRACT: control_change channel=3 control=64 value=0 time=0.048387075
EXTRACT: control_change channel=1 control=7 value=37 time=0.005376341666666667
EXTRACT: control_change channel=4 control=7 value=34 time=0
EXTRACT: control_change channel=9 control=7 value=38 time=0
EXTRACT: control_change channel=11 control=7 value=34 time=0
EXTRACT: note_on channel=1 note=50 velocity=75 time=0.05376341666666667
EXTRACT: control_change channel=2 control=7 value=32 time=0
EXTRACT: control_change channel=5 control=7 value=32 time=0
EXTRACT: note_on channel=7 note=38 velocity=0 time=0
EXTRACT: note_on channel=7 note=43 velocity=85 time=0
EXTRACT: note_on channel=9 note=35 velocity=58 time=0
EXTRACT: note_on channel=9 note=38 velocity=58 time=0
EXTRACT: control_change channel=10 control=7 value=32 time=0
EXTRACT: note_on channel=9 note=38 velocity=0 time=0.005376341666666667
EXTRACT: note_on channel=9 note=35 velocity=0 time=0
EXTRACT: note_on channel=3 note=64 velocity=50 time=0.005376341666666667
EXTRACT: note_on channel=1 note=43 velocity=0 time=0.026881708333333334
EXTRACT: note_on channel=3 note=60 velocity=56 time=0.005376341666666667
EXTRACT: note_on channel=3 note=53 velocity=43 time=0
EXTRACT: note_on channel=3 note=38 velocity=43 time=0
EXTRACT: control_change channel=3 control=7 value=34 time=0.010752683333333334
EXTRACT: control_change channel=6 control=7 value=31 time=0
EXTRACT: control_change channel=7 control=7 value=30 time=0
EXTRACT: control_change channel=1 control=7 value=36 time=0.05376341666666667
EXTRACT: control_change channel=4 control=7 value=33 time=0
EXTRACT: control_change channel=9 control=7 value=37 time=0
EXTRACT: control_change channel=11 control=7 value=33 time=0
EXTRACT: control_change channel=5 control=7 value=31 time=0.05376341666666667
EXTRACT: control_change channel=6 control=7 value=30 time=0
EXTRACT: control_change channel=10 control=7 value=31 time=0
EXTRACT: note_on channel=3 note=60 velocity=0 time=0.048387075
EXTRACT: control_change channel=2 control=7 value=31 time=0.005376341666666667
EXTRACT: control_change channel=3 control=7 value=33 time=0
EXTRACT: control_change channel=7 control=7 value=29 time=0
EXTRACT: note_on channel=3 note=64 velocity=0 time=0.021505366666666668
EXTRACT: note_on channel=3 note=53 velocity=0 time=0
EXTRACT: control_change channel=1 control=7 value=35 time=0.03225805
EXTRACT: control_change channel=4 control=7 value=32 time=0
EXTRACT: control_change channel=5 control=7 value=30 time=0
EXTRACT: control_change channel=9 control=7 value=36 time=0
EXTRACT: control_change channel=10 control=7 value=30 time=0
EXTRACT: control_change channel=11 control=7 value=32 time=0
EXTRACT: control_change channel=6 control=7 value=29 time=0.05376341666666667
EXTRACT: note_on channel=7 note=43 velocity=0 time=0
EXTRACT: note_on channel=7 note=43 velocity=85 time=0
EXTRACT: note_on channel=9 note=38 velocity=38 time=0
EXTRACT: note_on channel=9 note=38 velocity=0 time=0.005376341666666667
EXTRACT: control_change channel=3 control=64 value=127 time=0.005376341666666667
EXTRACT: note_on channel=3 note=64 velocity=49 time=0.03763439166666667
EXTRACT: note_on channel=3 note=60 velocity=55 time=0
EXTRACT: control_change channel=2 control=7 value=30 time=0.005376341666666667
EXTRACT: control_change channel=3 control=7 value=32 time=0
EXTRACT: control_change channel=4 control=7 value=31 time=0
EXTRACT: control_change channel=7 control=7 value=28 time=0
EXTRACT: control_change channel=11 control=7 value=31 time=0
EXTRACT: note_on channel=3 note=53 velocity=39 time=0.016129025
EXTRACT: control_change channel=1 control=7 value=34 time=0.03763439166666667
EXTRACT: control_change channel=5 control=7 value=29 time=0
EXTRACT: control_change channel=9 control=7 value=35 time=0
EXTRACT: control_change channel=10 control=7 value=29 time=0
EXTRACT: control_change channel=2 control=0 value=0 time=0.05376341666666667
EXTRACT: control_change channel=6 control=7 value=28 time=0
EXTRACT: control_change channel=7 control=7 value=27 time=0
EXTRACT: control_change channel=1 control=7 value=33 time=0.05376341666666667
EXTRACT: control_change channel=2 control=7 value=29 time=0
EXTRACT: control_change channel=3 control=7 value=31 time=0
EXTRACT: control_change channel=4 control=7 value=30 time=0
EXTRACT: control_change channel=9 control=7 value=34 time=0
EXTRACT: control_change channel=11 control=7 value=30 time=0
EXTRACT: note_on channel=3 note=60 velocity=0 time=0.021505366666666668
EXTRACT: control_change channel=5 control=7 value=28 time=0.03225805
EXTRACT: control_change channel=10 control=7 value=28 time=0
EXTRACT: note_on channel=3 note=53 velocity=0 time=0.010752683333333334
EXTRACT: note_on channel=3 note=64 velocity=0 time=0
EXTRACT: note_on channel=6 note=60 velocity=0 time=0.043010733333333336
EXTRACT: note_on channel=6 note=57 velocity=0 time=0
EXTRACT: note_on channel=6 note=53 velocity=0 time=0
EXTRACT: control_change channel=6 control=7 value=27 time=0
EXTRACT: note_on channel=7 note=43 velocity=0 time=0
EXTRACT: control_change channel=7 control=7 value=26 time=0
EXTRACT: note_on channel=7 note=43 velocity=85 time=0
EXTRACT: note_on channel=9 note=38 velocity=48 time=0
EXTRACT: note_on channel=9 note=42 velocity=48 time=0
EXTRACT: note_on channel=9 note=42 velocity=0 time=0.005376341666666667
EXTRACT: note_on channel=9 note=38 velocity=0 time=0
EXTRACT: control_change channel=1 control=7 value=32 time=0.048387075
EXTRACT: control_change channel=2 control=7 value=28 time=0
EXTRACT: control_change channel=3 control=7 value=30 time=0
EXTRACT: control_change channel=4 control=7 value=29 time=0
EXTRACT: control_change channel=9 control=7 value=33 time=0
EXTRACT: control_change channel=11 control=7 value=29 time=0
EXTRACT: control_change channel=5 control=7 value=27 time=0.05376341666666667
EXTRACT: control_change channel=6 control=7 value=26 time=0
EXTRACT: control_change channel=10 control=7 value=27 time=0
EXTRACT: note_on channel=1 note=50 velocity=0 time=0.03225805
EXTRACT: control_change channel=7 control=7 value=25 time=0.021505366666666668
EXTRACT: note_on channel=3 note=38 velocity=0 time=0.021505366666666668
EXTRACT: control_change channel=2 control=0 value=0 time=0.005376341666666667
EXTRACT: control_change channel=1 control=7 value=31 time=0.026881708333333334
EXTRACT: control_change channel=2 control=7 value=27 time=0
EXTRACT: control_change channel=3 control=7 value=29 time=0
EXTRACT: control_change channel=4 control=7 value=28 time=0
EXTRACT: control_change channel=5 control=7 value=26 time=0
EXTRACT: control_change channel=9 control=7 value=32 time=0
EXTRACT: control_change channel=10 control=7 value=26 time=0
EXTRACT: control_change channel=11 control=7 value=28 time=0
EXTRACT: control_change channel=6 control=7 value=25 time=0.05376341666666667
EXTRACT: note_on channel=1 note=50 velocity=70 time=0.05376341666666667
EXTRACT: control_change channel=4 control=7 value=27 time=0
EXTRACT: note_on channel=4 note=62 velocity=85 time=0
EXTRACT: note_on channel=5 note=62 velocity=82 time=0
EXTRACT: note_on channel=7 note=43 velocity=0 time=0
EXTRACT: control_change channel=7 control=7 value=24 time=0
EXTRACT: note_on channel=7 note=38 velocity=85 time=0
EXTRACT: note_on channel=9 note=38 velocity=58 time=0
EXTRACT: note_on channel=10 note=62 velocity=78 time=0
EXTRACT: control_change channel=11 control=7 value=27 time=0
EXTRACT: note_on channel=11 note=62 velocity=78 time=0
EXTRACT: note_on channel=9 note=38 velocity=0 time=0.005376341666666667
EXTRACT: note_on channel=2 note=69 velocity=0 time=0.021505366666666668
EXTRACT: note_on channel=2 note=53 velocity=0 time=0
EXTRACT: note_on channel=2 note=64 velocity=0 time=0
EXTRACT: note_on channel=2 note=60 velocity=0 time=0
EXTRACT: note_on channel=2 note=65 velocity=0 time=0
EXTRACT: note_on channel=3 note=53 velocity=49 time=0
EXTRACT: note_on channel=3 note=64 velocity=58 time=0
EXTRACT: note_on channel=3 note=60 velocity=64 time=0.010752683333333334
EXTRACT: control_change channel=1 control=7 value=30 time=0.016129025
EXTRACT: control_change channel=2 control=7 value=26 time=0
EXTRACT: control_change channel=3 control=7 value=28 time=0
EXTRACT: control_change channel=5 control=7 value=25 time=0
EXTRACT: control_change channel=9 control=7 value=31 time=0
EXTRACT: control_change channel=10 control=7 value=25 time=0
EXTRACT: control_change channel=2 control=0 value=0 time=0.026881708333333334
EXTRACT: control_change channel=2 control=64 value=0 time=0
EXTRACT: note_on channel=2 note=76 velocity=62 time=0.010752683333333334
EXTRACT: control_change channel=6 control=7 value=24 time=0.016129025
EXTRACT: note_on channel=4 note=62 velocity=0 time=0.05376341666666667
EXTRACT: control_change channel=4 control=7 value=26 time=0
EXTRACT: note_on channel=4 note=64 velocity=85 time=0
EXTRACT: note_on channel=5 note=62 velocity=0 time=0
EXTRACT: note_on channel=5 note=64 velocity=82 time=0
EXTRACT: control_change channel=7 control=7 value=23 time=0
EXTRACT: note_on channel=10 note=62 velocity=0 time=0
EXTRACT: note_on channel=10 note=64 velocity=78 time=0
EXTRACT: note_on channel=11 note=62 velocity=0 time=0
EXTRACT: control_change channel=11 control=7 value=26 time=0
EXTRACT: note_on channel=11 note=64 velocity=78 time=0
EXTRACT: control_change channel=3 control=64 value=0 time=0.043010733333333336
EXTRACT: control_change channel=1 control=7 value=29 time=0.010752683333333334
EXTRACT: control_change channel=2 control=7 value=25 time=0
EXTRACT: note_on channel=3 note=53 velocity=0 time=0
EXTRACT: control_change channel=3 control=7 value=27 time=0
EXTRACT: control_change channel=5 control=7 value=24 time=0
EXTRACT: control_change channel=9 control=7 value=30 time=0
EXTRACT: control_change channel=10 control=7 value=24 time=0
EXTRACT: note_on channel=3 note=60 velocity=0 time=0.021505366666666668
EXTRACT: note_on channel=3 note=64 velocity=0 time=0
EXTRACT: control_change channel=6 control=7 value=23 time=0.03225805
EXTRACT: note_on channel=1 note=50 velocity=0 time=0.010752683333333334
EXTRACT: note_on channel=1 note=43 velocity=77 time=0.043010733333333336
EXTRACT: control_change channel=3 control=64 value=0 time=0
EXTRACT: control_change channel=3 control=64 value=0 time=0
EXTRACT: note_on channel=3 note=43 velocity=56 time=0
EXTRACT: note_on channel=4 note=64 velocity=0 time=0
EXTRACT: control_change channel=4 control=7 value=25 time=0
EXTRACT: note_on channel=4 note=65 velocity=85 time=0
EXTRACT: note_on channel=5 note=64 velocity=0 time=0
EXTRACT: control_change channel=5 control=7 value=23 time=0
EXTRACT: note_on channel=5 note=65 velocity=82 time=0
EXTRACT: note_on channel=6 note=57 velocity=82 time=0
EXTRACT: note_on channel=6 note=60 velocity=82 time=0
EXTRACT: note_on channel=6 note=62 velocity=82 time=0
EXTRACT: note_on channel=7 note=38 velocity=0 time=0
EXTRACT: control_change channel=7 control=7 value=22 time=0
EXTRACT: note_on channel=7 note=31 velocity=85 time=0
EXTRACT: note_on channel=9 note=35 velocity=58 time=0
EXTRACT: note_on channel=9 note=38 velocity=50 time=0
EXTRACT: note_on channel=10 note=64 velocity=0 time=0
EXTRACT: control_change channel=10 control=7 value=23 time=0
EXTRACT: note_on channel=10 note=65 velocity=78 time=0
EXTRACT: note_on channel=11 note=64 velocity=0 time=0
EXTRACT: control_change channel=11 control=7 value=25 time=0
EXTRACT: note_on channel=11 note=65 velocity=78 time=0
EXTRACT: note_on channel=9 note=38 velocity=0 time=0.005376341666666667
EXTRACT: note_on channel=9 note=35 velocity=0 time=0
EXTRACT: control_change channel=1 control=7 value=28 time=0.048387075
EXTRACT: control_change channel=2 control=7 value=24 time=0
EXTRACT: control_change channel=3 control=7 value=26 time=0
EXTRACT: control_change channel=9 control=7 value=29 time=0
EXTRACT: control_change channel=6 control=7 value=22 time=0.05376341666666667
EXTRACT: control_change channel=4 control=7 value=24 time=0.05376341666666667
EXTRACT: control_change channel=5 control=7 value=22 time=0
EXTRACT: control_change channel=7 control=7 value=21 time=0
EXTRACT: control_change channel=10 control=7 value=22 time=0
EXTRACT: control_change channel=11 control=7 value=24 time=0
EXTRACT: control_change channel=1 control=7 value=27 time=0.05376341666666667
EXTRACT: control_change channel=3 control=7 value=25 time=0
EXTRACT: control_change channel=6 control=7 value=21 time=0
EXTRACT: control_change channel=9 control=7 value=28 time=0
EXTRACT: control_change channel=2 control=7 value=23 time=0.05376341666666667
EXTRACT: control_change channel=4 control=7 value=23 time=0
EXTRACT: control_change channel=11 control=7 value=23 time=0
EXTRACT: note_on channel=4 note=65 velocity=0 time=0.05376341666666667
EXTRACT: note_on channel=4 note=65 velocity=85 time=0
EXTRACT: note_on channel=5 note=65 velocity=0 time=0
EXTRACT: control_change channel=5 control=7 value=21 time=0
EXTRACT: note_on channel=5 note=65 velocity=82 time=0
EXTRACT: control_change channel=7 control=7 value=20 time=0
EXTRACT: note_on channel=9 note=38 velocity=38 time=0
EXTRACT: note_on channel=10 note=65 velocity=0 time=0
EXTRACT: control_change channel=10 control=7 value=21 time=0
EXTRACT: note_on channel=10 note=65 velocity=78 time=0
EXTRACT: note_on channel=11 note=65 velocity=0 time=0
EXTRACT: note_on channel=11 note=65 velocity=78 time=0
EXTRACT: note_on channel=9 note=38 velocity=0 time=0.005376341666666667
EXTRACT: control_change channel=1 control=7 value=26 time=0.048387075
EXTRACT: control_change channel=3 control=7 value=24 time=0
EXTRACT: control_change channel=6 control=7 value=20 time=0
EXTRACT: control_change channel=9 control=7 value=27 time=0
EXTRACT: control_change channel=2 control=7 value=22 time=0.05376341666666667
EXTRACT: control_change channel=4 control=7 value=22 time=0
EXTRACT: control_change channel=11 control=7 value=22 time=0
EXTRACT: note_on channel=4 note=65 velocity=0 time=0.05376341666666667
EXTRACT: note_on channel=4 note=65 velocity=85 time=0
EXTRACT: note_on channel=5 note=65 velocity=0 time=0
EXTRACT: control_change channel=5 control=7 value=20 time=0
EXTRACT: note_on channel=5 note=65 velocity=82 time=0
EXTRACT: control_change channel=7 control=7 value=19 time=0
EXTRACT: note_on channel=10 note=65 velocity=0 time=0
EXTRACT: control_change channel=10 control=7 value=20 time=0
EXTRACT: note_on channel=10 note=65 velocity=78 time=0
EXTRACT: note_on channel=11 note=65 velocity=0 time=0
EXTRACT: note_on channel=11 note=65 velocity=78 time=0
EXTRACT: control_change channel=1 control=7 value=25 time=0.05376341666666667
EXTRACT: control_change channel=3 control=7 value=23 time=0
EXTRACT: control_change channel=6 control=7 value=19 time=0
EXTRACT: control_change channel=9 control=7 value=26 time=0
EXTRACT: control_change channel=3 control=64 value=127 time=0.026881708333333334
EXTRACT: control_change channel=2 control=7 value=21 time=0.026881708333333334
EXTRACT: control_change channel=4 control=7 value=21 time=0
EXTRACT: control_change channel=5 control=7 value=19 time=0
EXTRACT: control_change channel=7 control=7 value=18 time=0
EXTRACT: control_change channel=10 control=7 value=19 time=0
EXTRACT: control_change channel=11 control=7 value=21 time=0
EXTRACT: note_on channel=3 note=53 velocity=49 time=0.043010733333333336
EXTRACT: note_on channel=3 note=62 velocity=58 time=0
EXTRACT: control_change channel=2 control=64 value=127 time=0.010752683333333334
EXTRACT: note_on channel=2 note=65 velocity=54 time=0
EXTRACT: note_on channel=2 note=62 velocity=54 time=0
EXTRACT: note_on channel=2 note=60 velocity=54 time=0
EXTRACT: note_on channel=2 note=69 velocity=54 time=0
EXTRACT: note_on channel=4 note=65 velocity=0 time=0
EXTRACT: note_on channel=4 note=65 velocity=85 time=0
EXTRACT: note_on channel=5 note=65 velocity=0 time=0
EXTRACT: note_on channel=5 note=65 velocity=82 time=0
EXTRACT: note_on channel=9 note=38 velocity=58 time=0
EXTRACT: note_on channel=9 note=42 velocity=48 time=0
EXTRACT: note_on channel=10 note=65 velocity=0 time=0
EXTRACT: note_on channel=10 note=65 velocity=78 time=0
EXTRACT: note_on channel=11 note=65 velocity=0 time=0
EXTRACT: note_on channel=11 note=65 velocity=78 time=0
EXTRACT: note_on channel=3 note=60 velocity=63 time=0.005376341666666667
EXTRACT: note_on channel=9 note=42 velocity=0 time=0
EXTRACT: note_on channel=9 note=38 velocity=0 time=0
EXTRACT: control_change channel=1 control=7 value=24 time=0.048387075
EXTRACT: control_change channel=3 control=7 value=22 time=0
EXTRACT: control_change channel=6 control=7 value=18 time=0
EXTRACT: control_change channel=9 control=7 value=25 time=0
EXTRACT: control_change channel=2 control=7 value=20 time=0.05376341666666667
EXTRACT: control_change channel=4 control=7 value=20 time=0
EXTRACT: control_change channel=5 control=7 value=18 time=0
EXTRACT: control_change channel=7 control=7 value=17 time=0
EXTRACT: control_change channel=10 control=7 value=18 time=0
EXTRACT: control_change channel=11 control=7 value=20 time=0
EXTRACT: control_change channel=1 control=7 value=23 time=0.05376341666666667
EXTRACT: note_on channel=2 note=69 velocity=0 time=0.03763439166666667
EXTRACT: note_on channel=2 note=62 velocity=0 time=0
EXTRACT: note_on channel=2 note=60 velocity=0 time=0
EXTRACT: note_on channel=2 note=65 velocity=0 time=0
EXTRACT: control_change channel=3 control=7 value=21 time=0.016129025
EXTRACT: control_change channel=4 control=7 value=19 time=0
EXTRACT: control_change channel=6 control=7 value=17 time=0
EXTRACT: control_change channel=9 control=7 value=24 time=0
EXTRACT: control_change channel=11 control=7 value=19 time=0
EXTRACT: control_change channel=2 control=7 value=19 time=0.05376341666666667
EXTRACT: control_change channel=5 control=7 value=17 time=0
EXTRACT: control_change channel=7 control=7 value=16 time=0
EXTRACT: control_change channel=10 control=7 value=17 time=0
EXTRACT: note_on channel=3 note=60 velocity=0 time=0.021505366666666668
EXTRACT: note_on channel=3 note=53 velocity=0 time=0
EXTRACT: note_on channel=1 note=43 velocity=0 time=0.03225805
EXTRACT: control_change channel=1 control=7 value=22 time=0
EXTRACT: note_on channel=1 note=50 velocity=71 time=0
EXTRACT: note_on channel=4 note=65 velocity=0 time=0
EXTRACT: note_on channel=4 note=67 velocity=85 time=0
EXTRACT: note_on channel=5 note=65 velocity=0 time=0
EXTRACT: note_on channel=5 note=67 velocity=82 time=0
EXTRACT: note_on channel=6 note=62 velocity=0 time=0
EXTRACT: note_on channel=6 note=60 velocity=0 time=0
EXTRACT: note_on channel=6 note=57 velocity=0 time=0
EXTRACT: control_change channel=6 control=7 value=16 time=0
EXTRACT: note_on channel=6 note=57 velocity=82 time=0
EXTRACT: note_on channel=6 note=60 velocity=82 time=0
EXTRACT: note_on channel=6 note=64 velocity=82 time=0
EXTRACT: note_on channel=7 note=31 velocity=0 time=0
EXTRACT: note_on channel=7 note=38 velocity=85 time=0
EXTRACT: note_on channel=9 note=38 velocity=38 time=0
EXTRACT: note_on channel=10 note=65 velocity=0 time=0
EXTRACT: note_on channel=10 note=67 velocity=78 time=0
EXTRACT: note_on channel=11 note=65 velocity=0 time=0
EXTRACT: note_on channel=11 note=67 velocity=78 time=0
EXTRACT: note_on channel=9 note=38 velocity=0 time=0.005376341666666667
EXTRACT: note_on channel=3 note=62 velocity=0 time=0.048387075
EXTRACT: control_change channel=3 control=7 value=20 time=0
EXTRACT: control_change channel=4 control=7 value=18 time=0
EXTRACT: control_change channel=9 control=7 value=23 time=0
EXTRACT: control_change channel=11 control=7 value=18 time=0
EXTRACT: note_on channel=3 note=43 velocity=0 time=0.005376341666666667
EXTRACT: control_change channel=2 control=7 value=18 time=0.048387075
EXTRACT: control_change channel=5 control=7 value=16 time=0
EXTRACT: control_change channel=7 control=7 value=15 time=0
EXTRACT: control_change channel=10 control=7 value=16 time=0
EXTRACT: control_change channel=1 control=7 value=21 time=0.05376341666666667
EXTRACT: control_change channel=6 control=7 value=15 time=0
EXTRACT: note_on channel=1 note=50 velocity=0 time=0.005376341666666667
EXTRACT: control_change channel=4 control=7 value=17 time=0.048387075
EXTRACT: control_change channel=5 control=7 value=15 time=0
EXTRACT: control_change channel=9 control=7 value=22 time=0
EXTRACT: control_change channel=10 control=7 value=15 time=0
EXTRACT: control_change channel=11 control=7 value=17 time=0
EXTRACT: control_change channel=2 control=7 value=17 time=0.05376341666666667
EXTRACT: control_change channel=3 control=7 value=19 time=0
EXTRACT: control_change channel=7 control=7 value=14 time=0
EXTRACT: control_change channel=1 control=7 value=20 time=0.05376341666666667
EXTRACT: note_on channel=1 note=50 velocity=81 time=0
EXTRACT: note_on channel=4 note=67 velocity=0 time=0
EXTRACT: note_on channel=4 note=69 velocity=85 time=0
EXTRACT: note_on channel=5 note=67 velocity=0 time=0
EXTRACT: note_on channel=5 note=69 velocity=82 time=0
EXTRACT: note_on channel=6 note=64 velocity=0 time=0
EXTRACT: note_on channel=6 note=60 velocity=0 time=0
EXTRACT: note_on channel=6 note=57 velocity=0 time=0
EXTRACT: control_change channel=6 control=7 value=14 time=0
EXTRACT: note_on channel=6 note=60 velocity=82 time=0
EXTRACT: note_on channel=6 note=62 velocity=82 time=0
EXTRACT: note_on channel=6 note=65 velocity=82 time=0
EXTRACT: note_on channel=7 note=38 velocity=0 time=0
EXTRACT: note_on channel=7 note=43 velocity=85 time=0
EXTRACT: note_on channel=9 note=35 velocity=58 time=0
EXTRACT: note_on channel=9 note=38 velocity=58 time=0
EXTRACT: note_on channel=10 note=67 velocity=0 time=0
EXTRACT: note_on channel=10 note=69 velocity=78 time=0
EXTRACT: note_on channel=11 note=67 velocity=0 time=0
EXTRACT: note_on channel=11 note=69 velocity=78 time=0
EXTRACT: note_on channel=9 note=38 velocity=0 time=0.005376341666666667
EXTRACT: note_on channel=9 note=35 velocity=0 time=0
EXTRACT: note_on channel=3 note=38 velocity=45 time=0.03225805
EXTRACT: control_change channel=4 control=7 value=16 time=0.016129025
EXTRACT: control_change channel=5 control=7 value=14 time=0
EXTRACT: control_change channel=9 control=7 value=21 time=0
EXTRACT: control_change channel=10 control=7 value=14 time=0
EXTRACT: control_change channel=11 control=7 value=16 time=0
EXTRACT: control_change channel=2 control=7 value=16 time=0.05376341666666667
EXTRACT: control_change channel=3 control=7 value=18 time=0
EXTRACT: control_change channel=7 control=7 value=13 time=0
EXTRACT: control_change channel=1 control=7 value=19 time=0.05376341666666667
EXTRACT: control_change channel=4 control=7 value=15 time=0
EXTRACT: control_change channel=6 control=7 value=13 time=0
EXTRACT: control_change channel=11 control=7 value=15 time=0
EXTRACT: control_change channel=5 control=7 value=13 time=0.05376341666666667
EXTRACT: control_change channel=9 control=7 value=20 time=0
EXTRACT: control_change channel=10 control=7 value=13 time=0
EXTRACT: control_change channel=3 control=7 value=17 time=0.05376341666666667
EXTRACT: control_change channel=6 control=7 value=12 time=0
EXTRACT: control_change channel=7 control=7 value=12 time=0
EXTRACT: control_change channel=1 control=7 value=18 time=0.05376341666666667
EXTRACT: control_change channel=2 control=7 value=15 time=0
EXTRACT: note_on channel=2 note=65 velocity=54 time=0
EXTRACT: note_on channel=2 note=62 velocity=54 time=0
EXTRACT: note_on channel=2 note=60 velocity=54 time=0
EXTRACT: note_on channel=2 note=69 velocity=54 time=0
EXTRACT: note_on channel=4 note=69 velocity=0 time=0
EXTRACT: control_change channel=4 control=7 value=14 time=0
EXTRACT: note_on channel=4 note=67 velocity=85 time=0
EXTRACT: note_on channel=5 note=69 velocity=0 time=0
EXTRACT: control_change channel=5 control=7 value=12 time=0
EXTRACT: note_on channel=5 note=67 velocity=82 time=0
EXTRACT: note_on channel=6 note=65 velocity=0 time=0
EXTRACT: note_on channel=6 note=62 velocity=0 time=0
EXTRACT: note_on channel=6 note=60 velocity=0 time=0
EXTRACT: note_on channel=7 note=43 velocity=0 time=0
EXTRACT: note_on channel=7 note=43 velocity=85 time=0
EXTRACT: control_change channel=9 control=7 value=19 time=0
EXTRACT: note_on channel=9 note=38 velocity=38 time=0
EXTRACT: note_on channel=9 note=48 velocity=50 time=0
EXTRACT: note_on channel=10 note=69 velocity=0 time=0
EXTRACT: control_change channel=10 control=7 value=12 time=0
EXTRACT: note_on channel=10 note=67 velocity=78 time=0
EXTRACT: note_on channel=11 note=69 velocity=0 time=0
EXTRACT: control_change channel=11 control=7 value=14 time=0
EXTRACT: note_on channel=11 note=67 velocity=78 time=0
EXTRACT: note_on channel=9 note=48 velocity=0 time=0.005376341666666667
EXTRACT: note_on channel=9 note=38 velocity=0 time=0
EXTRACT: note_on channel=3 note=62 velocity=55 time=0.010752683333333334
EXTRACT: note_on channel=3 note=60 velocity=55 time=0
EXTRACT: note_on channel=3 note=53 velocity=39 time=0.016129025
EXTRACT: control_change channel=3 control=7 value=16 time=0.07526878333333334
EXTRACT: control_change channel=6 control=7 value=11 time=0
EXTRACT: control_change channel=7 control=7 value=11 time=0
EXTRACT: control_change channel=1 control=7 value=17 time=0.05376341666666667
EXTRACT: control_change channel=2 control=7 value=14 time=0
EXTRACT: control_change channel=4 control=7 value=13 time=0
EXTRACT: control_change channel=5 control=7 value=11 time=0
EXTRACT: control_change channel=9 control=7 value=18 time=0
EXTRACT: control_change channel=10 control=7 value=11 time=0
EXTRACT: control_change channel=11 control=7 value=13 time=0
EXTRACT: note_on channel=2 note=69 velocity=0 time=0.021505366666666668
EXTRACT: note_on channel=2 note=62 velocity=0 time=0
EXTRACT: note_on channel=2 note=60 velocity=0 time=0
EXTRACT: note_on channel=2 note=65 velocity=0 time=0
EXTRACT: note_on channel=1 note=50 velocity=0 time=0.059139758333333334
EXTRACT: control_change channel=3 control=7 value=15 time=0.026881708333333334
EXTRACT: control_change channel=6 control=7 value=10 time=0
EXTRACT: control_change channel=7 control=7 value=10 time=0
EXTRACT: note_on channel=3 note=60 velocity=0 time=0.005376341666666667
EXTRACT: note_on channel=3 note=53 velocity=0 time=0.016129025
EXTRACT: note_on channel=3 note=62 velocity=0 time=0.026881708333333334
EXTRACT: control_change channel=1 control=7 value=16 time=0.005376341666666667
EXTRACT: note_on channel=1 note=43 velocity=81 time=0
EXTRACT: control_change channel=2 control=7 value=13 time=0
EXTRACT: note_on channel=4 note=67 velocity=0 time=0
EXTRACT: control_change channel=4 control=7 value=12 time=0
EXTRACT: note_on channel=4 note=69 velocity=85 time=0
EXTRACT: note_on channel=5 note=67 velocity=0 time=0
EXTRACT: control_change channel=5 control=7 value=10 time=0
EXTRACT: note_on channel=5 note=69 velocity=82 time=0
EXTRACT: note_on channel=6 note=60 velocity=82 time=0
EXTRACT: note_on channel=6 note=62 velocity=82 time=0
EXTRACT: note_on channel=6 note=65 velocity=82 time=0
EXTRACT: note_on channel=7 note=43 velocity=0 time=0
EXTRACT: note_on channel=7 note=43 velocity=85 time=0
EXTRACT: control_change channel=9 control=7 value=17 time=0
EXTRACT: note_on channel=9 note=38 velocity=48 time=0
EXTRACT: note_on channel=9 note=42 velocity=48 time=0
EXTRACT: note_on channel=9 note=45 velocity=50 time=0
EXTRACT: note_on channel=10 note=67 velocity=0 time=0
EXTRACT: control_change channel=10 control=7 value=10 time=0
EXTRACT: note_on channel=10 note=69 velocity=78 time=0
EXTRACT: note_on channel=11 note=67 velocity=0 time=0
EXTRACT: control_change channel=11 control=7 value=12 time=0
EXTRACT: note_on channel=11 note=69 velocity=78 time=0
EXTRACT: note_on channel=9 note=45 velocity=0 time=0.005376341666666667
EXTRACT: note_on channel=9 note=42 velocity=0 time=0
EXTRACT: note_on channel=9 note=38 velocity=0 time=0
EXTRACT: note_on channel=3 note=38 velocity=0 time=0.03763439166666667
EXTRACT: control_change channel=7 control=7 value=9 time=0.010752683333333334
EXTRACT: control_change channel=3 control=7 value=14 time=0.05376341666666667
EXTRACT: control_change channel=4 control=7 value=11 time=0
EXTRACT: control_change channel=6 control=7 value=9 time=0
EXTRACT: control_change channel=11 control=7 value=11 time=0
EXTRACT: control_change channel=1 control=7 value=15 time=0.05376341666666667
EXTRACT: control_change channel=2 control=7 value=12 time=0
EXTRACT: control_change channel=5 control=7 value=9 time=0
EXTRACT: control_change channel=9 control=7 value=16 time=0
EXTRACT: control_change channel=10 control=7 value=9 time=0
EXTRACT: control_change channel=7 control=7 value=8 time=0.05376341666666667
EXTRACT: control_change channel=3 control=7 value=13 time=0.05376341666666667
EXTRACT: control_change channel=4 control=7 value=10 time=0
EXTRACT: control_change channel=5 control=7 value=8 time=0
EXTRACT: control_change channel=6 control=7 value=8 time=0
EXTRACT: control_change channel=10 control=7 value=8 time=0
EXTRACT: control_change channel=11 control=7 value=10 time=0
EXTRACT: control_change channel=1 control=7 value=14 time=0.05376341666666667
EXTRACT: control_change channel=2 control=7 value=11 time=0
EXTRACT: note_on channel=4 note=69 velocity=0 time=0
EXTRACT: note_on channel=4 note=71 velocity=85 time=0
EXTRACT: note_on channel=5 note=69 velocity=0 time=0
EXTRACT: note_on channel=5 note=71 velocity=82 time=0
EXTRACT: note_on channel=6 note=65 velocity=0 time=0
EXTRACT: note_on channel=6 note=62 velocity=0 time=0
EXTRACT: note_on channel=6 note=60 velocity=0 time=0
EXTRACT: note_on channel=7 note=43 velocity=0 time=0
EXTRACT: note_on channel=7 note=43 velocity=85 time=0
EXTRACT: control_change channel=9 control=7 value=15 time=0
EXTRACT: note_on channel=9 note=38 velocity=58 time=0
EXTRACT: note_on channel=9 note=41 velocity=50 time=0
EXTRACT: note_on channel=10 note=69 velocity=0 time=0
EXTRACT: note_on channel=10 note=71 velocity=78 time=0
EXTRACT: note_on channel=11 note=69 velocity=0 time=0
EXTRACT: note_on channel=11 note=71 velocity=78 time=0
EXTRACT: note_on channel=9 note=41 velocity=0 time=0.005376341666666667
EXTRACT: note_on channel=9 note=38 velocity=0 time=0
EXTRACT: control_change channel=6 control=7 value=7 time=0.048387075
EXTRACT: control_change channel=7 control=7 value=7 time=0
EXTRACT: control_change channel=1 control=7 value=13 time=0.05376341666666667
EXTRACT: control_change channel=3 control=7 value=12 time=0
EXTRACT: control_change channel=4 control=7 value=9 time=0
EXTRACT: control_change channel=5 control=7 value=7 time=0
EXTRACT: control_change channel=10 control=7 value=7 time=0
EXTRACT: control_change channel=11 control=7 value=9 time=0
EXTRACT: control_change channel=3 control=64 value=0 time=0.016129025
EXTRACT: control_change channel=2 control=7 value=10 time=0.03763439166666667
EXTRACT: control_change channel=9 control=7 value=14 time=0
EXTRACT: control_change channel=6 control=7 value=6 time=0.05376341666666667
EXTRACT: control_change channel=7 control=7 value=6 time=0
EXTRACT: note_on channel=1 note=43 velocity=0 time=0.05376341666666667
EXTRACT: control_change channel=1 control=7 value=12 time=0
EXTRACT: control_change channel=3 control=7 value=11 time=0
EXTRACT: control_change channel=4 control=7 value=8 time=0
EXTRACT: control_change channel=5 control=7 value=6 time=0
EXTRACT: control_change channel=10 control=7 value=6 time=0
EXTRACT: control_change channel=11 control=7 value=8 time=0
EXTRACT: note_on channel=2 note=76 velocity=0 time=0.043010733333333336
EXTRACT: control_change channel=2 control=7 value=9 time=0.010752683333333334
EXTRACT: control_change channel=2 control=64 value=0 time=0
EXTRACT: control_change channel=2 control=64 value=0 time=0
EXTRACT: control_change channel=3 control=0 value=0 time=0
EXTRACT: control_change channel=3 control=64 value=0 time=0
EXTRACT: note_on channel=4 note=71 velocity=0 time=0
EXTRACT: note_on channel=5 note=71 velocity=0 time=0
EXTRACT: note_on channel=7 note=43 velocity=0 time=0
EXTRACT: control_change channel=9 control=7 value=13 time=0
EXTRACT: note_on channel=10 note=71 velocity=0 time=0
EXTRACT: note_on channel=11 note=71 velocity=0 time=0
EXTRACT: control_change channel=4 control=7 value=7 time=0.05376341666666667
EXTRACT: control_change channel=6 control=7 value=5 time=0
EXTRACT: control_change channel=7 control=7 value=5 time=0
EXTRACT: control_change channel=11 control=7 value=7 time=0
EXTRACT: control_change channel=1 control=7 value=11 time=0.05376341666666667
EXTRACT: control_change channel=3 control=7 value=10 time=0
EXTRACT: control_change channel=5 control=7 value=5 time=0
EXTRACT: control_change channel=10 control=7 value=5 time=0
EXTRACT: control_change channel=2 control=7 value=8 time=0.05376341666666667
EXTRACT: control_change channel=9 control=7 value=12 time=0
EXTRACT: control_change channel=4 control=7 value=6 time=0.05376341666666667
EXTRACT: control_change channel=5 control=7 value=4 time=0
EXTRACT: control_change channel=6 control=7 value=4 time=0
EXTRACT: control_change channel=7 control=7 value=4 time=0
EXTRACT: control_change channel=10 control=7 value=4 time=0
EXTRACT: control_change channel=11 control=7 value=6 time=0
EXTRACT: control_change channel=1 control=7 value=10 time=0.05376341666666667
EXTRACT: control_change channel=3 control=7 value=9 time=0
EXTRACT: control_change channel=6 control=7 value=3 time=0.05376341666666667
EXTRACT: control_change channel=9 control=7 value=11 time=0
EXTRACT: control_change channel=2 control=7 value=7 time=0.05376341666666667
EXTRACT: control_change channel=4 control=7 value=5 time=0
EXTRACT: control_change channel=5 control=7 value=3 time=0
EXTRACT: control_change channel=7 control=7 value=3 time=0
EXTRACT: control_change channel=10 control=7 value=3 time=0
EXTRACT: control_change channel=11 control=7 value=5 time=0
EXTRACT: control_change channel=1 control=7 value=9 time=0.05376341666666667
EXTRACT: control_change channel=3 control=7 value=8 time=0
EXTRACT: control_change channel=9 control=7 value=10 time=0.05376341666666667
EXTRACT: control_change channel=2 control=7 value=6 time=0.05376341666666667
EXTRACT: control_change channel=4 control=7 value=4 time=0
EXTRACT: control_change channel=5 control=7 value=2 time=0
EXTRACT: control_change channel=7 control=7 value=2 time=0
EXTRACT: control_change channel=10 control=7 value=2 time=0
EXTRACT: control_change channel=11 control=7 value=4 time=0
EXTRACT: control_change channel=1 control=7 value=8 time=0.05376341666666667
EXTRACT: control_change channel=3 control=7 value=7 time=0
EXTRACT: control_change channel=4 control=7 value=3 time=0.05376341666666667
EXTRACT: control_change channel=5 control=7 value=1 time=0
EXTRACT: control_change channel=7 control=7 value=1 time=0
EXTRACT: control_change channel=9 control=7 value=9 time=0
EXTRACT: control_change channel=10 control=7 value=1 time=0
EXTRACT: control_change channel=11 control=7 value=3 time=0
EXTRACT: control_change channel=2 control=7 value=5 time=0.05376341666666667
EXTRACT: control_change channel=1 control=7 value=7 time=0.05376341666666667
EXTRACT: control_change channel=3 control=7 value=6 time=0
EXTRACT: control_change channel=9 control=7 value=8 time=0.05376341666666667
EXTRACT: control_change channel=2 control=7 value=4 time=0.05376341666666667
EXTRACT: control_change channel=1 control=7 value=6 time=0.05376341666666667
EXTRACT: control_change channel=3 control=7 value=5 time=0
EXTRACT: control_change channel=9 control=7 value=7 time=0.05376341666666667
EXTRACT: control_change channel=2 control=7 value=3 time=0.05376341666666667
EXTRACT: control_change channel=1 control=7 value=5 time=0.05376341666666667
EXTRACT: control_change channel=3 control=7 value=4 time=0
EXTRACT: control_change channel=9 control=7 value=6 time=0.05376341666666667
EXTRACT: control_change channel=2 control=7 value=2 time=0.05376341666666667
EXTRACT: control_change channel=1 control=7 value=4 time=0.05376341666666667
EXTRACT: control_change channel=3 control=7 value=3 time=0
EXTRACT: control_change channel=9 control=7 value=5 time=0.05376341666666667
EXTRACT: control_change channel=1 control=7 value=3 time=0.05376341666666667
EXTRACT: control_change channel=2 control=7 value=1 time=0
EXTRACT: control_change channel=3 control=7 value=2 time=0.05376341666666667
EXTRACT: control_change channel=9 control=7 value=4 time=0
EXTRACT: control_change channel=2 control=7 value=0 time=0.10752683333333334
