EXTRACT: control_change channel=0 control=121 value=0 time=0
EXTRACT: program_change channel=0 program=0 time=0
EXTRACT: control_change channel=0 control=7 value=100 time=0
EXTRACT: control_change channel=0 control=10 value=64 time=0
EXTRACT: control_change channel=0 control=91 value=0 time=0
EXTRACT: control_change channel=0 control=93 value=0 time=0
EXTRACT: control_change channel=1 control=121 value=0 time=0
EXTRACT: program_change channel=1 program=4 time=0
EXTRACT: control_change channel=1 control=7 value=100 time=0
EXTRACT: control_change channel=1 control=10 value=64 time=0
EXTRACT: control_change channel=1 control=91 value=0 time=0
EXTRACT: control_change channel=1 control=93 value=0 time=0
EXTRACT: note_on channel=1 note=65 velocity=49 time=0
EXTRACT: note_on channel=1 note=77 velocity=49 time=0
EXTRACT: note_on channel=1 note=41 velocity=49 time=0
EXTRACT: control_change channel=2 control=121 value=0 time=0
EXTRACT: program_change channel=2 program=102 time=0
EXTRACT: control_change channel=2 control=7 value=100 time=0
EXTRACT: control_change channel=2 control=10 value=64 time=0
EXTRACT: control_change channel=2 control=91 value=0 time=0
EXTRACT: control_change channel=2 control=93 value=0 time=0
EXTRACT: note_on channel=2 note=65 velocity=49 time=0
EXTRACT: note_on channel=2 note=77 velocity=49 time=0
EXTRACT: note_on channel=2 note=41 velocity=49 time=0
EXTRACT: control_change channel=3 control=121 value=0 time=0
EXTRACT: program_change channel=3 program=40 time=0
EXTRACT: control_change channel=3 control=7 value=100 time=0
EXTRACT: control_change channel=3 control=10 value=64 time=0
EXTRACT: control_change channel=3 control=91 value=0 time=0
EXTRACT: control_change channel=3 control=93 value=0 time=0
EXTRACT: control_change channel=4 control=121 value=0 time=0
EXTRACT: program_change channel=4 program=45 time=0
EXTRACT: control_change channel=4 control=7 value=100 time=0
EXTRACT: control_change channel=4 control=10 value=64 time=0
EXTRACT: control_change channel=4 control=91 value=0 time=0
EXTRACT: control_change channel=4 control=93 value=0 time=0
EXTRACT: control_change channel=5 control=121 value=0 time=0
EXTRACT: program_change channel=5 program=44 time=0
EXTRACT: control_change channel=5 control=7 value=100 time=0
EXTRACT: control_change channel=5 control=10 value=64 time=0
EXTRACT: control_change channel=5 control=91 value=0 time=0
EXTRACT: control_change channel=5 control=93 value=0 time=0
EXTRACT: control_change channel=9 control=121 value=0 time=0
EXTRACT: program_change channel=9 program=57 time=0
EXTRACT: control_change channel=9 control=7 value=100 time=0
EXTRACT: control_change channel=9 control=10 value=64 time=0
EXTRACT: control_change channel=9 control=91 value=0 time=0
EXTRACT: control_change channel=9 control=93 value=0 time=0
EXTRACT: note_on channel=9 note=24 velocity=126 time=0
EXTRACT: control_change channel=9 control=121 value=0 time=0
EXTRACT: program_change channel=9 program=0 time=0
EXTRACT: control_change channel=9 control=7 value=100 time=0
EXTRACT: control_change channel=9 control=10 value=64 time=0
EXTRACT: control_change channel=9 control=91 value=0 time=0
EXTRACT: control_change channel=9 control=93 value=0 time=0
EXTRACT: control_change channel=9 control=121 value=0 time=0
EXTRACT: program_change channel=9 program=48 time=0
EXTRACT: control_change channel=9 control=7 value=100 time=0
EXTRACT: control_change channel=9 control=10 value=64 time=0
EXTRACT: control_change channel=9 control=91 value=0 time=0
EXTRACT: control_change channel=9 control=93 value=0 time=0
EXTRACT: control_change channel=9 control=121 value=0 time=0
EXTRACT: program_change channel=9 program=56 time=0
EXTRACT: control_change channel=9 control=7 value=100 time=0
EXTRACT: control_change channel=9 control=10 value=64 time=0
EXTRACT: control_change channel=9 control=91 value=0 time=0
EXTRACT: control_change channel=9 control=93 value=0 time=0
EXTRACT: control_change channel=9 control=121 value=0 time=0
EXTRACT: program_change channel=9 program=56 time=0
EXTRACT: control_change channel=9 control=7 value=100 time=0
EXTRACT: control_change channel=9 control=10 value=64 time=0
EXTRACT: control_change channel=9 control=91 value=0 time=0
EXTRACT: control_change channel=9 control=93 value=0 time=0
EXTRACT: control_change channel=9 control=121 value=0 time=0
EXTRACT: program_change channel=9 program=48 time=0
EXTRACT: control_change channel=9 control=7 value=100 time=0
EXTRACT: control_change channel=9 control=10 value=64 time=0
EXTRACT: control_change channel=9 control=91 value=0 time=0
EXTRACT: control_change channel=9 control=93 value=0 time=0
EXTRACT: control_change channel=9 control=121 value=0 time=0
EXTRACT: program_change channel=9 program=0 time=0
EXTRACT: control_change channel=9 control=7 value=100 time=0
EXTRACT: control_change channel=9 control=10 value=64 time=0
EXTRACT: control_change channel=9 control=91 value=0 time=0
EXTRACT: control_change channel=9 control=93 value=0 time=0
EXTRACT: control_change channel=9 control=121 value=0 time=0
EXTRACT: program_change channel=9 program=95 time=0
EXTRACT: control_change channel=9 control=7 value=100 time=0
EXTRACT: control_change channel=9 control=10 value=64 time=0
EXTRACT: control_change channel=9 control=91 value=0 time=0
EXTRACT: control_change channel=9 control=93 value=0 time=0
EXTRACT: note_on channel=1 note=65 velocity=0 time=0.24791666666666667
EXTRACT: note_on channel=1 note=77 velocity=0 time=0
EXTRACT: note_on channel=9 note=24 velocity=0 time=0
EXTRACT: note_on channel=1 note=65 velocity=49 time=0.0020833333333333333
EXTRACT: note_on channel=1 note=77 velocity=49 time=0
EXTRACT: note_on channel=9 note=24 velocity=126 time=0
EXTRACT: note_on channel=1 note=65 velocity=0 time=0.24791666666666667
EXTRACT: note_on channel=1 note=77 velocity=0 time=0
EXTRACT: note_on channel=9 note=24 velocity=0 time=0
EXTRACT: note_on channel=1 note=65 velocity=49 time=0.0020833333333333333
EXTRACT: note_on channel=1 note=77 velocity=49 time=0
EXTRACT: note_on channel=9 note=24 velocity=126 time=0
EXTRACT: note_on channel=1 note=65 velocity=0 time=0.24791666666666667
EXTRACT: note_on channel=1 note=77 velocity=0 time=0
EXTRACT: note_on channel=9 note=24 velocity=0 time=0
EXTRACT: note_on channel=1 note=65 velocity=49 time=0.0020833333333333333
EXTRACT: note_on channel=1 note=77 velocity=49 time=0
EXTRACT: note_on channel=9 note=24 velocity=126 time=0
EXTRACT: note_on channel=1 note=65 velocity=0 time=0.24791666666666667
EXTRACT: note_on channel=1 note=77 velocity=0 time=0
EXTRACT: note_on channel=1 note=41 velocity=0 time=0
EXTRACT: note_on channel=2 note=65 velocity=0 time=0
EXTRACT: note_on channel=2 note=77 velocity=0 time=0
EXTRACT: note_on channel=2 note=41 velocity=0 time=0
EXTRACT: note_on channel=9 note=24 velocity=0 time=0
EXTRACT: note_on channel=1 note=65 velocity=49 time=0.0020833333333333333
EXTRACT: note_on channel=1 note=77 velocity=49 time=0
EXTRACT: note_on channel=1 note=41 velocity=49 time=0
EXTRACT: note_on channel=2 note=65 velocity=49 time=0
EXTRACT: note_on channel=2 note=77 velocity=49 time=0
EXTRACT: note_on channel=2 note=41 velocity=49 time=0
EXTRACT: note_on channel=9 note=24 velocity=126 time=0
EXTRACT: note_on channel=9 note=40 velocity=80 time=0
EXTRACT: note_on channel=1 note=65 velocity=0 time=0.24791666666666667
EXTRACT: note_on channel=1 note=77 velocity=0 time=0
EXTRACT: note_on channel=9 note=24 velocity=0 time=0
EXTRACT: note_on channel=1 note=65 velocity=49 time=0.0020833333333333333
EXTRACT: note_on channel=1 note=77 velocity=49 time=0
EXTRACT: note_on channel=9 note=24 velocity=126 time=0
EXTRACT: note_on channel=1 note=65 velocity=0 time=0.24791666666666667
EXTRACT: note_on channel=1 note=77 velocity=0 time=0
EXTRACT: note_on channel=9 note=24 velocity=0 time=0
EXTRACT: note_on channel=1 note=65 velocity=49 time=0.0020833333333333333
EXTRACT: note_on channel=1 note=77 velocity=49 time=0
EXTRACT: note_on channel=9 note=24 velocity=126 time=0
EXTRACT: note_on channel=1 note=65 velocity=0 time=0.24791666666666667
EXTRACT: note_on channel=1 note=77 velocity=0 time=0
EXTRACT: note_on channel=9 note=24 velocity=0 time=0
EXTRACT: note_on channel=1 note=65 velocity=49 time=0.0020833333333333333
EXTRACT: note_on channel=1 note=77 velocity=49 time=0
EXTRACT: note_on channel=9 note=24 velocity=126 time=0
EXTRACT: note_on channel=1 note=65 velocity=0 time=0.24791666666666667
EXTRACT: note_on channel=1 note=77 velocity=0 time=0
EXTRACT: note_on channel=1 note=41 velocity=0 time=0
EXTRACT: note_on channel=2 note=65 velocity=0 time=0
EXTRACT: note_on channel=2 note=77 velocity=0 time=0
EXTRACT: note_on channel=2 note=41 velocity=0 time=0
EXTRACT: note_on channel=9 note=24 velocity=0 time=0
EXTRACT: note_on channel=9 note=40 velocity=0 time=0
EXTRACT: note_on channel=1 note=69 velocity=49 time=0.0020833333333333333
EXTRACT: note_on channel=1 note=81 velocity=49 time=0
EXTRACT: note_on channel=1 note=45 velocity=49 time=0
EXTRACT: note_on channel=2 note=65 velocity=49 time=0
EXTRACT: note_on channel=2 note=77 velocity=49 time=0
EXTRACT: note_on channel=2 note=41 velocity=49 time=0
EXTRACT: note_on channel=9 note=24 velocity=126 time=0
EXTRACT: note_on channel=1 note=69 velocity=0 time=0.24791666666666667
EXTRACT: note_on channel=1 note=81 velocity=0 time=0
EXTRACT: note_on channel=9 note=24 velocity=0 time=0
EXTRACT: note_on channel=1 note=69 velocity=49 time=0.0020833333333333333
EXTRACT: note_on channel=1 note=81 velocity=49 time=0
EXTRACT: note_on channel=9 note=24 velocity=126 time=0
EXTRACT: note_on channel=1 note=69 velocity=0 time=0.24791666666666667
EXTRACT: note_on channel=1 note=81 velocity=0 time=0
EXTRACT: note_on channel=9 note=24 velocity=0 time=0
EXTRACT: note_on channel=1 note=69 velocity=49 time=0.0020833333333333333
EXTRACT: note_on channel=1 note=81 velocity=49 time=0
EXTRACT: note_on channel=9 note=24 velocity=126 time=0
EXTRACT: note_on channel=1 note=69 velocity=0 time=0.24791666666666667
EXTRACT: note_on channel=1 note=81 velocity=0 time=0
EXTRACT: note_on channel=9 note=24 velocity=0 time=0
EXTRACT: note_on channel=1 note=69 velocity=49 time=0.0020833333333333333
EXTRACT: note_on channel=1 note=81 velocity=49 time=0
EXTRACT: note_on channel=9 note=24 velocity=126 time=0
EXTRACT: note_on channel=1 note=69 velocity=0 time=0.24791666666666667
EXTRACT: note_on channel=1 note=81 velocity=0 time=0
EXTRACT: note_on channel=1 note=45 velocity=0 time=0
EXTRACT: note_on channel=2 note=65 velocity=0 time=0
EXTRACT: note_on channel=2 note=77 velocity=0 time=0
EXTRACT: note_on channel=2 note=41 velocity=0 time=0
EXTRACT: note_on channel=9 note=24 velocity=0 time=0
EXTRACT: note_on channel=1 note=69 velocity=49 time=0.0020833333333333333
EXTRACT: note_on channel=1 note=81 velocity=49 time=0
EXTRACT: note_on channel=1 note=45 velocity=49 time=0
EXTRACT: note_on channel=2 note=65 velocity=49 time=0
EXTRACT: note_on channel=2 note=77 velocity=49 time=0
EXTRACT: note_on channel=2 note=41 velocity=49 time=0
EXTRACT: note_on channel=9 note=24 velocity=126 time=0
EXTRACT: note_on channel=9 note=40 velocity=80 time=0
EXTRACT: note_on channel=1 note=69 velocity=0 time=0.24791666666666667
EXTRACT: note_on channel=1 note=81 velocity=0 time=0
EXTRACT: note_on channel=9 note=24 velocity=0 time=0
EXTRACT: note_on channel=1 note=69 velocity=49 time=0.0020833333333333333
EXTRACT: note_on channel=1 note=81 velocity=49 time=0
EXTRACT: note_on channel=9 note=24 velocity=126 time=0
EXTRACT: note_on channel=1 note=69 velocity=0 time=0.24791666666666667
EXTRACT: note_on channel=1 note=81 velocity=0 time=0
EXTRACT: note_on channel=9 note=24 velocity=0 time=0
EXTRACT: note_on channel=1 note=69 velocity=49 time=0.0020833333333333333
EXTRACT: note_on channel=1 note=81 velocity=49 time=0
EXTRACT: note_on channel=9 note=24 velocity=126 time=0
EXTRACT: note_on channel=1 note=69 velocity=0 time=0.24791666666666667
EXTRACT: note_on channel=1 note=81 velocity=0 time=0
EXTRACT: note_on channel=9 note=24 velocity=0 time=0
EXTRACT: note_on channel=1 note=69 velocity=49 time=0.0020833333333333333
EXTRACT: note_on channel=1 note=81 velocity=49 time=0
EXTRACT: note_on channel=9 note=24 velocity=126 time=0
EXTRACT: note_on channel=1 note=69 velocity=0 time=0.24791666666666667
EXTRACT: note_on channel=1 note=81 velocity=0 time=0
EXTRACT: note_on channel=1 note=45 velocity=0 time=0
EXTRACT: note_on channel=2 note=65 velocity=0 time=0
EXTRACT: note_on channel=2 note=77 velocity=0 time=0
EXTRACT: note_on channel=2 note=41 velocity=0 time=0
EXTRACT: note_on channel=9 note=24 velocity=0 time=0
EXTRACT: note_on channel=9 note=40 velocity=0 time=0
EXTRACT: note_on channel=1 note=65 velocity=49 time=0.0020833333333333333
EXTRACT: note_on channel=1 note=77 velocity=49 time=0
EXTRACT: note_on channel=1 note=41 velocity=49 time=0
EXTRACT: note_on channel=2 note=65 velocity=49 time=0
EXTRACT: note_on channel=2 note=77 velocity=49 time=0
EXTRACT: note_on channel=2 note=41 velocity=49 time=0
EXTRACT: note_on channel=9 note=24 velocity=126 time=0
EXTRACT: note_on channel=1 note=65 velocity=0 time=0.24791666666666667
EXTRACT: note_on channel=1 note=77 velocity=0 time=0
EXTRACT: note_on channel=9 note=24 velocity=0 time=0
EXTRACT: note_on channel=1 note=65 velocity=49 time=0.0020833333333333333
EXTRACT: note_on channel=1 note=77 velocity=49 time=0
EXTRACT: note_on channel=9 note=24 velocity=126 time=0
EXTRACT: note_on channel=1 note=65 velocity=0 time=0.24791666666666667
EXTRACT: note_on channel=1 note=77 velocity=0 time=0
EXTRACT: note_on channel=9 note=24 velocity=0 time=0
EXTRACT: note_on channel=1 note=65 velocity=49 time=0.0020833333333333333
EXTRACT: note_on channel=1 note=77 velocity=49 time=0
EXTRACT: note_on channel=9 note=24 velocity=126 time=0
EXTRACT: note_on channel=1 note=65 velocity=0 time=0.24791666666666667
EXTRACT: note_on channel=1 note=77 velocity=0 time=0
EXTRACT: note_on channel=9 note=24 velocity=0 time=0
EXTRACT: note_on channel=1 note=65 velocity=49 time=0.0020833333333333333
EXTRACT: note_on channel=1 note=77 velocity=49 time=0
EXTRACT: note_on channel=9 note=24 velocity=126 time=0
EXTRACT: note_on channel=1 note=65 velocity=0 time=0.24791666666666667
EXTRACT: note_on channel=1 note=77 velocity=0 time=0
EXTRACT: note_on channel=1 note=41 velocity=0 time=0
EXTRACT: note_on channel=2 note=65 velocity=0 time=0
EXTRACT: note_on channel=2 note=77 velocity=0 time=0
EXTRACT: note_on channel=2 note=41 velocity=0 time=0
EXTRACT: note_on channel=9 note=24 velocity=0 time=0
EXTRACT: note_on channel=1 note=65 velocity=49 time=0.0020833333333333333
EXTRACT: note_on channel=1 note=77 velocity=49 time=0
EXTRACT: note_on channel=1 note=41 velocity=49 time=0
EXTRACT: note_on channel=2 note=65 velocity=49 time=0
EXTRACT: note_on channel=2 note=77 velocity=49 time=0
EXTRACT: note_on channel=2 note=41 velocity=49 time=0
EXTRACT: note_on channel=9 note=24 velocity=126 time=0
EXTRACT: note_on channel=9 note=40 velocity=80 time=0
EXTRACT: note_on channel=1 note=65 velocity=0 time=0.24791666666666667
EXTRACT: note_on channel=1 note=77 velocity=0 time=0
EXTRACT: note_on channel=9 note=24 velocity=0 time=0
EXTRACT: note_on channel=1 note=65 velocity=49 time=0.0020833333333333333
EXTRACT: note_on channel=1 note=77 velocity=49 time=0
EXTRACT: note_on channel=9 note=24 velocity=126 time=0
EXTRACT: note_on channel=1 note=65 velocity=0 time=0.24791666666666667
EXTRACT: note_on channel=1 note=77 velocity=0 time=0
EXTRACT: note_on channel=9 note=24 velocity=0 time=0
EXTRACT: note_on channel=1 note=65 velocity=49 time=0.0020833333333333333
EXTRACT: note_on channel=1 note=77 velocity=49 time=0
EXTRACT: note_on channel=9 note=24 velocity=126 time=0
EXTRACT: note_on channel=1 note=65 velocity=0 time=0.24791666666666667
EXTRACT: note_on channel=1 note=77 velocity=0 time=0
EXTRACT: note_on channel=9 note=24 velocity=0 time=0
EXTRACT: note_on channel=1 note=65 velocity=49 time=0.0020833333333333333
EXTRACT: note_on channel=1 note=77 velocity=49 time=0
EXTRACT: note_on channel=9 note=24 velocity=126 time=0
EXTRACT: note_on channel=1 note=65 velocity=0 time=0.24791666666666667
EXTRACT: note_on channel=1 note=77 velocity=0 time=0
EXTRACT: note_on channel=1 note=41 velocity=0 time=0
EXTRACT: note_on channel=2 note=65 velocity=0 time=0
EXTRACT: note_on channel=2 note=77 velocity=0 time=0
EXTRACT: note_on channel=2 note=41 velocity=0 time=0
EXTRACT: note_on channel=9 note=24 velocity=0 time=0
EXTRACT: note_on channel=9 note=40 velocity=0 time=0
EXTRACT: note_on channel=1 note=69 velocity=49 time=0.0020833333333333333
EXTRACT: note_on channel=1 note=81 velocity=49 time=0
EXTRACT: note_on channel=1 note=45 velocity=49 time=0
EXTRACT: note_on channel=2 note=65 velocity=49 time=0
EXTRACT: note_on channel=2 note=77 velocity=49 time=0
EXTRACT: note_on channel=2 note=41 velocity=49 time=0
EXTRACT: note_on channel=9 note=24 velocity=126 time=0
EXTRACT: note_on channel=1 note=69 velocity=0 time=0.24791666666666667
EXTRACT: note_on channel=1 note=81 velocity=0 time=0
EXTRACT: note_on channel=9 note=24 velocity=0 time=0
EXTRACT: note_on channel=1 note=69 velocity=49 time=0.0020833333333333333
EXTRACT: note_on channel=1 note=81 velocity=49 time=0
EXTRACT: note_on channel=9 note=24 velocity=126 time=0
EXTRACT: note_on channel=1 note=69 velocity=0 time=0.24791666666666667
EXTRACT: note_on channel=1 note=81 velocity=0 time=0
EXTRACT: note_on channel=9 note=24 velocity=0 time=0
EXTRACT: note_on channel=1 note=69 velocity=49 time=0.0020833333333333333
EXTRACT: note_on channel=1 note=81 velocity=49 time=0
EXTRACT: note_on channel=9 note=24 velocity=126 time=0
EXTRACT: note_on channel=9 note=64 velocity=96 time=0
EXTRACT: note_on channel=1 note=69 velocity=0 time=0.24791666666666667
EXTRACT: note_on channel=1 note=81 velocity=0 time=0
EXTRACT: note_on channel=9 note=24 velocity=0 time=0
EXTRACT: note_on channel=9 note=64 velocity=0 time=0
EXTRACT: note_on channel=1 note=69 velocity=49 time=0.0020833333333333333
EXTRACT: note_on channel=1 note=81 velocity=49 time=0
EXTRACT: note_on channel=9 note=24 velocity=126 time=0
EXTRACT: note_on channel=9 note=63 velocity=96 time=0
EXTRACT: note_on channel=1 note=69 velocity=0 time=0.24791666666666667
EXTRACT: note_on channel=1 note=81 velocity=0 time=0
EXTRACT: note_on channel=1 note=45 velocity=0 time=0
EXTRACT: note_on channel=2 note=65 velocity=0 time=0
EXTRACT: note_on channel=2 note=77 velocity=0 time=0
EXTRACT: note_on channel=2 note=41 velocity=0 time=0
EXTRACT: note_on channel=9 note=24 velocity=0 time=0
EXTRACT: note_on channel=9 note=63 velocity=0 time=0
EXTRACT: note_on channel=1 note=69 velocity=49 time=0.0020833333333333333
EXTRACT: note_on channel=1 note=81 velocity=49 time=0
EXTRACT: note_on channel=1 note=45 velocity=49 time=0
EXTRACT: note_on channel=2 note=65 velocity=49 time=0
EXTRACT: note_on channel=2 note=77 velocity=49 time=0
EXTRACT: note_on channel=2 note=41 velocity=49 time=0
EXTRACT: note_on channel=9 note=24 velocity=126 time=0
EXTRACT: note_on channel=9 note=40 velocity=80 time=0
EXTRACT: note_on channel=9 note=62 velocity=96 time=0
EXTRACT: note_on channel=1 note=69 velocity=0 time=0.24791666666666667
EXTRACT: note_on channel=1 note=81 velocity=0 time=0
EXTRACT: note_on channel=9 note=24 velocity=0 time=0
EXTRACT: note_on channel=1 note=69 velocity=49 time=0.0020833333333333333
EXTRACT: note_on channel=1 note=81 velocity=49 time=0
EXTRACT: note_on channel=9 note=24 velocity=126 time=0
EXTRACT: note_on channel=1 note=69 velocity=0 time=0.24791666666666667
EXTRACT: note_on channel=1 note=81 velocity=0 time=0
EXTRACT: note_on channel=9 note=24 velocity=0 time=0
EXTRACT: note_on channel=1 note=69 velocity=49 time=0.0020833333333333333
EXTRACT: note_on channel=1 note=81 velocity=49 time=0
EXTRACT: note_on channel=9 note=24 velocity=126 time=0
EXTRACT: note_on channel=1 note=69 velocity=0 time=0.24791666666666667
EXTRACT: note_on channel=1 note=81 velocity=0 time=0
EXTRACT: note_on channel=9 note=24 velocity=0 time=0
EXTRACT: note_on channel=1 note=69 velocity=49 time=0.0020833333333333333
EXTRACT: note_on channel=1 note=81 velocity=49 time=0
EXTRACT: note_on channel=9 note=24 velocity=126 time=0
EXTRACT: note_on channel=1 note=69 velocity=0 time=0.24791666666666667
EXTRACT: note_on channel=1 note=81 velocity=0 time=0
EXTRACT: note_on channel=1 note=45 velocity=0 time=0
EXTRACT: note_on channel=2 note=65 velocity=0 time=0
EXTRACT: note_on channel=2 note=77 velocity=0 time=0
EXTRACT: note_on channel=2 note=41 velocity=0 time=0
EXTRACT: note_on channel=9 note=24 velocity=0 time=0
EXTRACT: note_on channel=9 note=40 velocity=0 time=0
EXTRACT: note_on channel=9 note=62 velocity=0 time=0
EXTRACT: note_on channel=0 note=74 velocity=64 time=0.0020833333333333333
EXTRACT: note_on channel=0 note=46 velocity=64 time=0
EXTRACT: note_on channel=1 note=65 velocity=49 time=0
EXTRACT: note_on channel=1 note=77 velocity=49 time=0
EXTRACT: note_on channel=1 note=41 velocity=49 time=0
EXTRACT: note_on channel=2 note=65 velocity=49 time=0
EXTRACT: note_on channel=2 note=77 velocity=49 time=0
EXTRACT: note_on channel=2 note=41 velocity=49 time=0
EXTRACT: note_on channel=9 note=24 velocity=126 time=0
EXTRACT: note_on channel=1 note=65 velocity=0 time=0.24791666666666667
EXTRACT: note_on channel=1 note=77 velocity=0 time=0
EXTRACT: note_on channel=9 note=24 velocity=0 time=0
EXTRACT: note_on channel=1 note=65 velocity=49 time=0.0020833333333333333
EXTRACT: note_on channel=1 note=77 velocity=49 time=0
EXTRACT: note_on channel=9 note=24 velocity=126 time=0
EXTRACT: note_on channel=0 note=74 velocity=0 time=0.22291666666666665
EXTRACT: note_on channel=1 note=65 velocity=0 time=0.025
EXTRACT: note_on channel=1 note=77 velocity=0 time=0
EXTRACT: note_on channel=9 note=24 velocity=0 time=0
EXTRACT: note_on channel=0 note=76 velocity=64 time=0.0020833333333333333
EXTRACT: note_on channel=1 note=65 velocity=49 time=0
EXTRACT: note_on channel=1 note=77 velocity=49 time=0
EXTRACT: note_on channel=9 note=24 velocity=126 time=0
EXTRACT: note_on channel=0 note=76 velocity=0 time=0.23541666666666666
EXTRACT: note_on channel=1 note=65 velocity=0 time=0.0125
EXTRACT: note_on channel=1 note=77 velocity=0 time=0
EXTRACT: note_on channel=9 note=24 velocity=0 time=0
EXTRACT: note_on channel=0 note=79 velocity=64 time=0.0020833333333333333
EXTRACT: note_on channel=1 note=65 velocity=49 time=0
EXTRACT: note_on channel=1 note=77 velocity=49 time=0
EXTRACT: note_on channel=9 note=24 velocity=126 time=0
EXTRACT: note_on channel=1 note=65 velocity=0 time=0.24791666666666667
EXTRACT: note_on channel=1 note=77 velocity=0 time=0
EXTRACT: note_on channel=1 note=41 velocity=0 time=0
EXTRACT: note_on channel=2 note=65 velocity=0 time=0
EXTRACT: note_on channel=2 note=77 velocity=0 time=0
EXTRACT: note_on channel=2 note=41 velocity=0 time=0
EXTRACT: note_on channel=9 note=24 velocity=0 time=0
EXTRACT: note_on channel=1 note=65 velocity=49 time=0.0020833333333333333
EXTRACT: note_on channel=1 note=77 velocity=49 time=0
EXTRACT: note_on channel=1 note=41 velocity=49 time=0
EXTRACT: note_on channel=2 note=65 velocity=49 time=0
EXTRACT: note_on channel=2 note=77 velocity=49 time=0
EXTRACT: note_on channel=2 note=41 velocity=49 time=0
EXTRACT: note_on channel=9 note=24 velocity=126 time=0
EXTRACT: note_on channel=9 note=40 velocity=80 time=0
EXTRACT: note_on channel=9 note=38 velocity=80 time=0
EXTRACT: note_on channel=0 note=79 velocity=0 time=0.22291666666666665
EXTRACT: note_on channel=1 note=65 velocity=0 time=0.025
EXTRACT: note_on channel=1 note=77 velocity=0 time=0
EXTRACT: note_on channel=9 note=24 velocity=0 time=0
EXTRACT: note_on channel=0 note=76 velocity=64 time=0.0020833333333333333
EXTRACT: note_on channel=1 note=65 velocity=49 time=0
EXTRACT: note_on channel=1 note=77 velocity=49 time=0
EXTRACT: note_on channel=9 note=24 velocity=126 time=0
EXTRACT: note_on channel=0 note=76 velocity=0 time=0.23541666666666666
EXTRACT: note_on channel=1 note=65 velocity=0 time=0.0125
EXTRACT: note_on channel=1 note=77 velocity=0 time=0
EXTRACT: note_on channel=9 note=24 velocity=0 time=0
EXTRACT: note_on channel=0 note=74 velocity=64 time=0.0020833333333333333
EXTRACT: note_on channel=1 note=65 velocity=49 time=0
EXTRACT: note_on channel=1 note=77 velocity=49 time=0
EXTRACT: note_on channel=9 note=24 velocity=126 time=0
EXTRACT: note_on channel=1 note=65 velocity=0 time=0.24791666666666667
EXTRACT: note_on channel=1 note=77 velocity=0 time=0
EXTRACT: note_on channel=9 note=24 velocity=0 time=0
EXTRACT: note_on channel=1 note=65 velocity=49 time=0.0020833333333333333
EXTRACT: note_on channel=1 note=77 velocity=49 time=0
EXTRACT: note_on channel=9 note=24 velocity=126 time=0
EXTRACT: note_on channel=0 note=46 velocity=0 time=0.14791666666666667
EXTRACT: note_on channel=0 note=74 velocity=0 time=0.075
EXTRACT: note_on channel=1 note=65 velocity=0 time=0.025
EXTRACT: note_on channel=1 note=77 velocity=0 time=0
EXTRACT: note_on channel=1 note=41 velocity=0 time=0
EXTRACT: note_on channel=2 note=65 velocity=0 time=0
EXTRACT: note_on channel=2 note=77 velocity=0 time=0
EXTRACT: note_on channel=2 note=41 velocity=0 time=0
EXTRACT: note_on channel=9 note=24 velocity=0 time=0
EXTRACT: note_on channel=9 note=40 velocity=0 time=0
EXTRACT: note_on channel=9 note=38 velocity=0 time=0
EXTRACT: note_on channel=0 note=76 velocity=64 time=0.0020833333333333333
EXTRACT: note_on channel=0 note=38 velocity=64 time=0
EXTRACT: note_on channel=1 note=69 velocity=49 time=0
EXTRACT: note_on channel=1 note=81 velocity=49 time=0
EXTRACT: note_on channel=1 note=45 velocity=49 time=0
EXTRACT: note_on channel=2 note=65 velocity=49 time=0
EXTRACT: note_on channel=2 note=77 velocity=49 time=0
EXTRACT: note_on channel=2 note=41 velocity=49 time=0
EXTRACT: note_on channel=9 note=24 velocity=126 time=0
EXTRACT: note_on channel=0 note=76 velocity=0 time=0.23541666666666666
EXTRACT: note_on channel=1 note=69 velocity=0 time=0.0125
EXTRACT: note_on channel=1 note=81 velocity=0 time=0
EXTRACT: note_on channel=9 note=24 velocity=0 time=0
EXTRACT: note_on channel=0 note=79 velocity=64 time=0.0020833333333333333
EXTRACT: note_on channel=1 note=69 velocity=49 time=0
EXTRACT: note_on channel=1 note=81 velocity=49 time=0
EXTRACT: note_on channel=9 note=24 velocity=126 time=0
EXTRACT: note_on channel=1 note=69 velocity=0 time=0.24791666666666667
EXTRACT: note_on channel=1 note=81 velocity=0 time=0
EXTRACT: note_on channel=9 note=24 velocity=0 time=0
EXTRACT: note_on channel=1 note=69 velocity=49 time=0.0020833333333333333
EXTRACT: note_on channel=1 note=81 velocity=49 time=0
EXTRACT: note_on channel=9 note=24 velocity=126 time=0
EXTRACT: note_on channel=0 note=79 velocity=0 time=0.22291666666666665
EXTRACT: note_on channel=1 note=69 velocity=0 time=0.025
EXTRACT: note_on channel=1 note=81 velocity=0 time=0
EXTRACT: note_on channel=9 note=24 velocity=0 time=0
EXTRACT: note_on channel=1 note=69 velocity=49 time=0.0020833333333333333
EXTRACT: note_on channel=1 note=81 velocity=49 time=0
EXTRACT: note_on channel=9 note=24 velocity=126 time=0
EXTRACT: note_on channel=1 note=69 velocity=0 time=0.24791666666666667
EXTRACT: note_on channel=1 note=81 velocity=0 time=0
EXTRACT: note_on channel=1 note=45 velocity=0 time=0
EXTRACT: note_on channel=2 note=65 velocity=0 time=0
EXTRACT: note_on channel=2 note=77 velocity=0 time=0
EXTRACT: note_on channel=2 note=41 velocity=0 time=0
EXTRACT: note_on channel=9 note=24 velocity=0 time=0
EXTRACT: note_on channel=1 note=69 velocity=49 time=0.0020833333333333333
EXTRACT: note_on channel=1 note=81 velocity=49 time=0
EXTRACT: note_on channel=1 note=45 velocity=49 time=0
EXTRACT: note_on channel=2 note=65 velocity=49 time=0
EXTRACT: note_on channel=2 note=77 velocity=49 time=0
EXTRACT: note_on channel=2 note=41 velocity=49 time=0
EXTRACT: note_on channel=9 note=24 velocity=126 time=0
EXTRACT: note_on channel=9 note=40 velocity=80 time=0
EXTRACT: note_on channel=9 note=38 velocity=80 time=0
EXTRACT: note_on channel=1 note=69 velocity=0 time=0.24791666666666667
EXTRACT: note_on channel=1 note=81 velocity=0 time=0
EXTRACT: note_on channel=9 note=24 velocity=0 time=0
EXTRACT: note_on channel=1 note=69 velocity=49 time=0.0020833333333333333
EXTRACT: note_on channel=1 note=81 velocity=49 time=0
EXTRACT: note_on channel=9 note=24 velocity=126 time=0
EXTRACT: note_on channel=1 note=69 velocity=0 time=0.24791666666666667
EXTRACT: note_on channel=1 note=81 velocity=0 time=0
EXTRACT: note_on channel=9 note=24 velocity=0 time=0
EXTRACT: note_on channel=0 note=72 velocity=64 time=0.0020833333333333333
EXTRACT: note_on channel=1 note=69 velocity=49 time=0
EXTRACT: note_on channel=1 note=81 velocity=49 time=0
EXTRACT: note_on channel=9 note=24 velocity=126 time=0
EXTRACT: note_on channel=1 note=69 velocity=0 time=0.24791666666666667
EXTRACT: note_on channel=1 note=81 velocity=0 time=0
EXTRACT: note_on channel=9 note=24 velocity=0 time=0
EXTRACT: note_on channel=1 note=69 velocity=49 time=0.0020833333333333333
EXTRACT: note_on channel=1 note=81 velocity=49 time=0
EXTRACT: note_on channel=9 note=24 velocity=126 time=0
EXTRACT: note_on channel=0 note=38 velocity=0 time=0.14791666666666667
EXTRACT: note_on channel=0 note=72 velocity=0 time=0.075
EXTRACT: note_on channel=1 note=69 velocity=0 time=0.025
EXTRACT: note_on channel=1 note=81 velocity=0 time=0
EXTRACT: note_on channel=1 note=45 velocity=0 time=0
EXTRACT: note_on channel=2 note=65 velocity=0 time=0
EXTRACT: note_on channel=2 note=77 velocity=0 time=0
EXTRACT: note_on channel=2 note=41 velocity=0 time=0
EXTRACT: note_on channel=9 note=24 velocity=0 time=0
EXTRACT: note_on channel=9 note=40 velocity=0 time=0
EXTRACT: note_on channel=9 note=38 velocity=0 time=0
EXTRACT: note_on channel=0 note=74 velocity=64 time=0.0020833333333333333
EXTRACT: note_on channel=0 note=46 velocity=64 time=0
EXTRACT: note_on channel=1 note=65 velocity=49 time=0
EXTRACT: note_on channel=1 note=77 velocity=49 time=0
EXTRACT: note_on channel=1 note=41 velocity=49 time=0
EXTRACT: note_on channel=2 note=65 velocity=49 time=0
EXTRACT: note_on channel=2 note=77 velocity=49 time=0
EXTRACT: note_on channel=2 note=41 velocity=49 time=0
EXTRACT: note_on channel=9 note=24 velocity=126 time=0
EXTRACT: note_on channel=1 note=65 velocity=0 time=0.24791666666666667
EXTRACT: note_on channel=1 note=77 velocity=0 time=0
EXTRACT: note_on channel=9 note=24 velocity=0 time=0
EXTRACT: note_on channel=1 note=65 velocity=49 time=0.0020833333333333333
EXTRACT: note_on channel=1 note=77 velocity=49 time=0
EXTRACT: note_on channel=9 note=24 velocity=126 time=0
EXTRACT: note_on channel=0 note=74 velocity=0 time=0.22291666666666665
EXTRACT: note_on channel=1 note=65 velocity=0 time=0.025
EXTRACT: note_on channel=1 note=77 velocity=0 time=0
EXTRACT: note_on channel=9 note=24 velocity=0 time=0
EXTRACT: note_on channel=0 note=76 velocity=64 time=0.0020833333333333333
EXTRACT: note_on channel=1 note=65 velocity=49 time=0
EXTRACT: note_on channel=1 note=77 velocity=49 time=0
EXTRACT: note_on channel=9 note=24 velocity=126 time=0
EXTRACT: note_on channel=0 note=76 velocity=0 time=0.23541666666666666
EXTRACT: note_on channel=1 note=65 velocity=0 time=0.0125
EXTRACT: note_on channel=1 note=77 velocity=0 time=0
EXTRACT: note_on channel=9 note=24 velocity=0 time=0
EXTRACT: note_on channel=0 note=74 velocity=64 time=0.0020833333333333333
EXTRACT: note_on channel=1 note=65 velocity=49 time=0
EXTRACT: note_on channel=1 note=77 velocity=49 time=0
EXTRACT: note_on channel=9 note=24 velocity=126 time=0
EXTRACT: note_on channel=1 note=65 velocity=0 time=0.24791666666666667
EXTRACT: note_on channel=1 note=77 velocity=0 time=0
EXTRACT: note_on channel=1 note=41 velocity=0 time=0
EXTRACT: note_on channel=2 note=65 velocity=0 time=0
EXTRACT: note_on channel=2 note=77 velocity=0 time=0
EXTRACT: note_on channel=2 note=41 velocity=0 time=0
EXTRACT: note_on channel=9 note=24 velocity=0 time=0
EXTRACT: note_on channel=1 note=65 velocity=49 time=0.0020833333333333333
EXTRACT: note_on channel=1 note=77 velocity=49 time=0
EXTRACT: note_on channel=1 note=41 velocity=49 time=0
EXTRACT: note_on channel=2 note=65 velocity=49 time=0
EXTRACT: note_on channel=2 note=77 velocity=49 time=0
EXTRACT: note_on channel=2 note=41 velocity=49 time=0
EXTRACT: note_on channel=9 note=24 velocity=126 time=0
EXTRACT: note_on channel=9 note=40 velocity=80 time=0
EXTRACT: note_on channel=9 note=38 velocity=80 time=0
EXTRACT: note_on channel=0 note=74 velocity=0 time=0.22291666666666665
EXTRACT: note_on channel=1 note=65 velocity=0 time=0.025
EXTRACT: note_on channel=1 note=77 velocity=0 time=0
EXTRACT: note_on channel=9 note=24 velocity=0 time=0
EXTRACT: note_on channel=0 note=72 velocity=64 time=0.0020833333333333333
EXTRACT: note_on channel=1 note=65 velocity=49 time=0
EXTRACT: note_on channel=1 note=77 velocity=49 time=0
EXTRACT: note_on channel=9 note=24 velocity=126 time=0
EXTRACT: note_on channel=0 note=72 velocity=0 time=0.23541666666666666
EXTRACT: note_on channel=1 note=65 velocity=0 time=0.0125
EXTRACT: note_on channel=1 note=77 velocity=0 time=0
EXTRACT: note_on channel=9 note=24 velocity=0 time=0
EXTRACT: note_on channel=0 note=74 velocity=64 time=0.0020833333333333333
EXTRACT: note_on channel=1 note=65 velocity=49 time=0
EXTRACT: note_on channel=1 note=77 velocity=49 time=0
EXTRACT: note_on channel=9 note=24 velocity=126 time=0
EXTRACT: note_on channel=1 note=65 velocity=0 time=0.24791666666666667
EXTRACT: note_on channel=1 note=77 velocity=0 time=0
EXTRACT: note_on channel=9 note=24 velocity=0 time=0
EXTRACT: note_on channel=1 note=65 velocity=49 time=0.0020833333333333333
EXTRACT: note_on channel=1 note=77 velocity=49 time=0
EXTRACT: note_on channel=9 note=24 velocity=126 time=0
EXTRACT: note_on channel=0 note=46 velocity=0 time=0.14791666666666667
EXTRACT: note_on channel=0 note=74 velocity=0 time=0.075
EXTRACT: note_on channel=1 note=65 velocity=0 time=0.025
EXTRACT: note_on channel=1 note=77 velocity=0 time=0
EXTRACT: note_on channel=1 note=41 velocity=0 time=0
EXTRACT: note_on channel=2 note=65 velocity=0 time=0
EXTRACT: note_on channel=2 note=77 velocity=0 time=0
EXTRACT: note_on channel=2 note=41 velocity=0 time=0
EXTRACT: note_on channel=9 note=24 velocity=0 time=0
EXTRACT: note_on channel=9 note=40 velocity=0 time=0
EXTRACT: note_on channel=9 note=38 velocity=0 time=0
EXTRACT: note_on channel=0 note=76 velocity=64 time=0.0020833333333333333
EXTRACT: note_on channel=0 note=38 velocity=64 time=0
EXTRACT: note_on channel=1 note=69 velocity=49 time=0
EXTRACT: note_on channel=1 note=81 velocity=49 time=0
EXTRACT: note_on channel=1 note=45 velocity=49 time=0
EXTRACT: note_on channel=2 note=65 velocity=49 time=0
EXTRACT: note_on channel=2 note=77 velocity=49 time=0
EXTRACT: note_on channel=2 note=41 velocity=49 time=0
EXTRACT: note_on channel=9 note=24 velocity=126 time=0
EXTRACT: note_on channel=1 note=69 velocity=0 time=0.24791666666666667
EXTRACT: note_on channel=1 note=81 velocity=0 time=0
EXTRACT: note_on channel=9 note=24 velocity=0 time=0
EXTRACT: note_on channel=1 note=69 velocity=49 time=0.0020833333333333333
EXTRACT: note_on channel=1 note=81 velocity=49 time=0
EXTRACT: note_on channel=9 note=24 velocity=126 time=0
EXTRACT: note_on channel=1 note=69 velocity=0 time=0.24791666666666667
EXTRACT: note_on channel=1 note=81 velocity=0 time=0
EXTRACT: note_on channel=9 note=24 velocity=0 time=0
EXTRACT: note_on channel=1 note=69 velocity=49 time=0.0020833333333333333
EXTRACT: note_on channel=1 note=81 velocity=49 time=0
EXTRACT: note_on channel=9 note=24 velocity=126 time=0
EXTRACT: note_on channel=9 note=64 velocity=96 time=0
EXTRACT: note_on channel=1 note=69 velocity=0 time=0.24791666666666667
EXTRACT: note_on channel=1 note=81 velocity=0 time=0
EXTRACT: note_on channel=9 note=24 velocity=0 time=0
EXTRACT: note_on channel=9 note=64 velocity=0 time=0
EXTRACT: note_on channel=1 note=69 velocity=49 time=0.0020833333333333333
EXTRACT: note_on channel=1 note=81 velocity=49 time=0
EXTRACT: note_on channel=9 note=24 velocity=126 time=0
EXTRACT: note_on channel=9 note=63 velocity=96 time=0
EXTRACT: note_on channel=0 note=76 velocity=0 time=0.19791666666666666
EXTRACT: note_on channel=1 note=69 velocity=0 time=0.05
EXTRACT: note_on channel=1 note=81 velocity=0 time=0
EXTRACT: note_on channel=1 note=45 velocity=0 time=0
EXTRACT: note_on channel=2 note=65 velocity=0 time=0
EXTRACT: note_on channel=2 note=77 velocity=0 time=0
EXTRACT: note_on channel=2 note=41 velocity=0 time=0
EXTRACT: note_on channel=9 note=24 velocity=0 time=0
EXTRACT: note_on channel=9 note=63 velocity=0 time=0
EXTRACT: note_on channel=1 note=69 velocity=49 time=0.0020833333333333333
EXTRACT: note_on channel=1 note=81 velocity=49 time=0
EXTRACT: note_on channel=1 note=45 velocity=49 time=0
EXTRACT: note_on channel=2 note=65 velocity=49 time=0
EXTRACT: note_on channel=2 note=77 velocity=49 time=0
EXTRACT: note_on channel=2 note=41 velocity=49 time=0
EXTRACT: note_on channel=9 note=24 velocity=126 time=0
EXTRACT: note_on channel=9 note=40 velocity=80 time=0
EXTRACT: note_on channel=9 note=62 velocity=96 time=0
EXTRACT: note_on channel=9 note=38 velocity=80 time=0
EXTRACT: note_on channel=1 note=69 velocity=0 time=0.24791666666666667
EXTRACT: note_on channel=1 note=81 velocity=0 time=0
EXTRACT: note_on channel=9 note=24 velocity=0 time=0
EXTRACT: note_on channel=1 note=69 velocity=49 time=0.0020833333333333333
EXTRACT: note_on channel=1 note=81 velocity=49 time=0
EXTRACT: note_on channel=9 note=24 velocity=126 time=0
EXTRACT: note_on channel=1 note=69 velocity=0 time=0.24791666666666667
EXTRACT: note_on channel=1 note=81 velocity=0 time=0
EXTRACT: note_on channel=9 note=24 velocity=0 time=0
EXTRACT: note_on channel=0 note=72 velocity=64 time=0.0020833333333333333
EXTRACT: note_on channel=1 note=69 velocity=49 time=0
EXTRACT: note_on channel=1 note=81 velocity=49 time=0
EXTRACT: note_on channel=9 note=24 velocity=126 time=0
EXTRACT: note_on channel=1 note=69 velocity=0 time=0.24791666666666667
EXTRACT: note_on channel=1 note=81 velocity=0 time=0
EXTRACT: note_on channel=9 note=24 velocity=0 time=0
EXTRACT: note_on channel=1 note=69 velocity=49 time=0.0020833333333333333
EXTRACT: note_on channel=1 note=81 velocity=49 time=0
EXTRACT: note_on channel=9 note=24 velocity=126 time=0
EXTRACT: note_on channel=0 note=38 velocity=0 time=0.14791666666666667
EXTRACT: note_on channel=0 note=72 velocity=0 time=0.075
EXTRACT: note_on channel=1 note=69 velocity=0 time=0.025
EXTRACT: note_on channel=1 note=81 velocity=0 time=0
EXTRACT: note_on channel=1 note=45 velocity=0 time=0
EXTRACT: note_on channel=2 note=65 velocity=0 time=0
EXTRACT: note_on channel=2 note=77 velocity=0 time=0
EXTRACT: note_on channel=2 note=41 velocity=0 time=0
EXTRACT: note_on channel=9 note=24 velocity=0 time=0
EXTRACT: note_on channel=9 note=40 velocity=0 time=0
EXTRACT: note_on channel=9 note=62 velocity=0 time=0
EXTRACT: note_on channel=9 note=38 velocity=0 time=0
EXTRACT: note_on channel=0 note=74 velocity=64 time=0.0020833333333333333
EXTRACT: note_on channel=0 note=46 velocity=64 time=0
EXTRACT: note_on channel=1 note=65 velocity=49 time=0
EXTRACT: note_on channel=1 note=77 velocity=49 time=0
EXTRACT: note_on channel=1 note=41 velocity=49 time=0
EXTRACT: note_on channel=2 note=65 velocity=49 time=0
EXTRACT: note_on channel=2 note=77 velocity=49 time=0
EXTRACT: note_on channel=2 note=41 velocity=49 time=0
EXTRACT: note_on channel=9 note=24 velocity=126 time=0
EXTRACT: note_on channel=1 note=65 velocity=0 time=0.24791666666666667
EXTRACT: note_on channel=1 note=77 velocity=0 time=0
EXTRACT: note_on channel=9 note=24 velocity=0 time=0
EXTRACT: note_on channel=1 note=65 velocity=49 time=0.0020833333333333333
EXTRACT: note_on channel=1 note=77 velocity=49 time=0
EXTRACT: note_on channel=9 note=24 velocity=126 time=0
EXTRACT: note_on channel=0 note=74 velocity=0 time=0.22291666666666665
EXTRACT: note_on channel=1 note=65 velocity=0 time=0.025
EXTRACT: note_on channel=1 note=77 velocity=0 time=0
EXTRACT: note_on channel=9 note=24 velocity=0 time=0
EXTRACT: note_on channel=0 note=76 velocity=64 time=0.0020833333333333333
EXTRACT: note_on channel=1 note=65 velocity=49 time=0
EXTRACT: note_on channel=1 note=77 velocity=49 time=0
EXTRACT: note_on channel=9 note=24 velocity=126 time=0
EXTRACT: note_on channel=0 note=76 velocity=0 time=0.23541666666666666
EXTRACT: note_on channel=1 note=65 velocity=0 time=0.0125
EXTRACT: note_on channel=1 note=77 velocity=0 time=0
EXTRACT: note_on channel=9 note=24 velocity=0 time=0
EXTRACT: note_on channel=0 note=79 velocity=64 time=0.0020833333333333333
EXTRACT: note_on channel=1 note=65 velocity=49 time=0
EXTRACT: note_on channel=1 note=77 velocity=49 time=0
EXTRACT: note_on channel=9 note=24 velocity=126 time=0
EXTRACT: note_on channel=1 note=65 velocity=0 time=0.24791666666666667
EXTRACT: note_on channel=1 note=77 velocity=0 time=0
EXTRACT: note_on channel=1 note=41 velocity=0 time=0
EXTRACT: note_on channel=2 note=65 velocity=0 time=0
EXTRACT: note_on channel=2 note=77 velocity=0 time=0
EXTRACT: note_on channel=2 note=41 velocity=0 time=0
EXTRACT: note_on channel=9 note=24 velocity=0 time=0
EXTRACT: note_on channel=1 note=65 velocity=49 time=0.0020833333333333333
EXTRACT: note_on channel=1 note=77 velocity=49 time=0
EXTRACT: note_on channel=1 note=41 velocity=49 time=0
EXTRACT: note_on channel=2 note=65 velocity=49 time=0
EXTRACT: note_on channel=2 note=77 velocity=49 time=0
EXTRACT: note_on channel=2 note=41 velocity=49 time=0
EXTRACT: note_on channel=9 note=24 velocity=126 time=0
EXTRACT: note_on channel=9 note=40 velocity=80 time=0
EXTRACT: note_on channel=9 note=38 velocity=80 time=0
EXTRACT: note_on channel=0 note=79 velocity=0 time=0.22291666666666665
EXTRACT: note_on channel=1 note=65 velocity=0 time=0.025
EXTRACT: note_on channel=1 note=77 velocity=0 time=0
EXTRACT: note_on channel=9 note=24 velocity=0 time=0
EXTRACT: note_on channel=0 note=76 velocity=64 time=0.0020833333333333333
EXTRACT: note_on channel=1 note=65 velocity=49 time=0
EXTRACT: note_on channel=1 note=77 velocity=49 time=0
EXTRACT: note_on channel=9 note=24 velocity=126 time=0
EXTRACT: note_on channel=0 note=76 velocity=0 time=0.23541666666666666
EXTRACT: note_on channel=1 note=65 velocity=0 time=0.0125
EXTRACT: note_on channel=1 note=77 velocity=0 time=0
EXTRACT: note_on channel=9 note=24 velocity=0 time=0
EXTRACT: note_on channel=0 note=74 velocity=64 time=0.0020833333333333333
EXTRACT: note_on channel=1 note=65 velocity=49 time=0
EXTRACT: note_on channel=1 note=77 velocity=49 time=0
EXTRACT: note_on channel=9 note=24 velocity=126 time=0
EXTRACT: note_on channel=1 note=65 velocity=0 time=0.24791666666666667
EXTRACT: note_on channel=1 note=77 velocity=0 time=0
EXTRACT: note_on channel=9 note=24 velocity=0 time=0
EXTRACT: note_on channel=1 note=65 velocity=49 time=0.0020833333333333333
EXTRACT: note_on channel=1 note=77 velocity=49 time=0
EXTRACT: note_on channel=9 note=24 velocity=126 time=0
EXTRACT: note_on channel=0 note=46 velocity=0 time=0.14791666666666667
EXTRACT: note_on channel=0 note=74 velocity=0 time=0.075
EXTRACT: note_on channel=1 note=65 velocity=0 time=0.025
EXTRACT: note_on channel=1 note=77 velocity=0 time=0
EXTRACT: note_on channel=1 note=41 velocity=0 time=0
EXTRACT: note_on channel=2 note=65 velocity=0 time=0
EXTRACT: note_on channel=2 note=77 velocity=0 time=0
EXTRACT: note_on channel=2 note=41 velocity=0 time=0
EXTRACT: note_on channel=9 note=24 velocity=0 time=0
EXTRACT: note_on channel=9 note=40 velocity=0 time=0
EXTRACT: note_on channel=9 note=38 velocity=0 time=0
EXTRACT: note_on channel=0 note=76 velocity=64 time=0.0020833333333333333
EXTRACT: note_on channel=0 note=38 velocity=64 time=0
EXTRACT: note_on channel=1 note=69 velocity=49 time=0
EXTRACT: note_on channel=1 note=81 velocity=49 time=0
EXTRACT: note_on channel=1 note=45 velocity=49 time=0
EXTRACT: note_on channel=2 note=65 velocity=49 time=0
EXTRACT: note_on channel=2 note=77 velocity=49 time=0
EXTRACT: note_on channel=2 note=41 velocity=49 time=0
EXTRACT: note_on channel=9 note=24 velocity=126 time=0
EXTRACT: note_on channel=0 note=76 velocity=0 time=0.23541666666666666
EXTRACT: note_on channel=1 note=69 velocity=0 time=0.0125
EXTRACT: note_on channel=1 note=81 velocity=0 time=0
EXTRACT: note_on channel=9 note=24 velocity=0 time=0
EXTRACT: note_on channel=0 note=79 velocity=64 time=0.0020833333333333333
EXTRACT: note_on channel=1 note=69 velocity=49 time=0
EXTRACT: note_on channel=1 note=81 velocity=49 time=0
EXTRACT: note_on channel=9 note=24 velocity=126 time=0
EXTRACT: note_on channel=1 note=69 velocity=0 time=0.24791666666666667
EXTRACT: note_on channel=1 note=81 velocity=0 time=0
EXTRACT: note_on channel=9 note=24 velocity=0 time=0
EXTRACT: note_on channel=1 note=69 velocity=49 time=0.0020833333333333333
EXTRACT: note_on channel=1 note=81 velocity=49 time=0
EXTRACT: note_on channel=9 note=24 velocity=126 time=0
EXTRACT: note_on channel=1 note=69 velocity=0 time=0.24791666666666667
EXTRACT: note_on channel=1 note=81 velocity=0 time=0
EXTRACT: note_on channel=9 note=24 velocity=0 time=0
EXTRACT: note_on channel=1 note=69 velocity=49 time=0.0020833333333333333
EXTRACT: note_on channel=1 note=81 velocity=49 time=0
EXTRACT: note_on channel=9 note=24 velocity=126 time=0
EXTRACT: note_on channel=1 note=69 velocity=0 time=0.24791666666666667
EXTRACT: note_on channel=1 note=81 velocity=0 time=0
EXTRACT: note_on channel=1 note=45 velocity=0 time=0
EXTRACT: note_on channel=2 note=65 velocity=0 time=0
EXTRACT: note_on channel=2 note=77 velocity=0 time=0
EXTRACT: note_on channel=2 note=41 velocity=0 time=0
EXTRACT: note_on channel=9 note=24 velocity=0 time=0
EXTRACT: note_on channel=1 note=69 velocity=49 time=0.0020833333333333333
EXTRACT: note_on channel=1 note=81 velocity=49 time=0
EXTRACT: note_on channel=1 note=45 velocity=49 time=0
EXTRACT: note_on channel=2 note=65 velocity=49 time=0
EXTRACT: note_on channel=2 note=77 velocity=49 time=0
EXTRACT: note_on channel=2 note=41 velocity=49 time=0
EXTRACT: note_on channel=9 note=24 velocity=126 time=0
EXTRACT: note_on channel=9 note=40 velocity=80 time=0
EXTRACT: note_on channel=9 note=38 velocity=80 time=0
EXTRACT: note_on channel=0 note=79 velocity=0 time=0.19791666666666666
EXTRACT: note_on channel=1 note=69 velocity=0 time=0.05
EXTRACT: note_on channel=1 note=81 velocity=0 time=0
EXTRACT: note_on channel=9 note=24 velocity=0 time=0
EXTRACT: note_on channel=1 note=69 velocity=49 time=0.0020833333333333333
EXTRACT: note_on channel=1 note=81 velocity=49 time=0
EXTRACT: note_on channel=9 note=24 velocity=126 time=0
EXTRACT: note_on channel=1 note=69 velocity=0 time=0.24791666666666667
EXTRACT: note_on channel=1 note=81 velocity=0 time=0
EXTRACT: note_on channel=9 note=24 velocity=0 time=0
EXTRACT: note_on channel=0 note=72 velocity=64 time=0.0020833333333333333
EXTRACT: note_on channel=1 note=69 velocity=49 time=0
EXTRACT: note_on channel=1 note=81 velocity=49 time=0
EXTRACT: note_on channel=9 note=24 velocity=126 time=0
EXTRACT: note_on channel=1 note=69 velocity=0 time=0.24791666666666667
EXTRACT: note_on channel=1 note=81 velocity=0 time=0
EXTRACT: note_on channel=9 note=24 velocity=0 time=0
EXTRACT: note_on channel=1 note=69 velocity=49 time=0.0020833333333333333
EXTRACT: note_on channel=1 note=81 velocity=49 time=0
EXTRACT: note_on channel=9 note=24 velocity=126 time=0
EXTRACT: note_on channel=0 note=38 velocity=0 time=0.14791666666666667
EXTRACT: note_on channel=0 note=72 velocity=0 time=0.075
EXTRACT: note_on channel=1 note=69 velocity=0 time=0.025
EXTRACT: note_on channel=1 note=81 velocity=0 time=0
EXTRACT: note_on channel=1 note=45 velocity=0 time=0
EXTRACT: note_on channel=2 note=65 velocity=0 time=0
EXTRACT: note_on channel=2 note=77 velocity=0 time=0
EXTRACT: note_on channel=2 note=41 velocity=0 time=0
EXTRACT: note_on channel=9 note=24 velocity=0 time=0
EXTRACT: note_on channel=9 note=40 velocity=0 time=0
EXTRACT: note_on channel=9 note=38 velocity=0 time=0
EXTRACT: note_on channel=0 note=74 velocity=96 time=0.0020833333333333333
EXTRACT: note_on channel=1 note=74 velocity=64 time=0
EXTRACT: note_on channel=1 note=50 velocity=76 time=0
EXTRACT: note_on channel=1 note=74 velocity=0 time=0.24791666666666667
EXTRACT: note_on channel=1 note=74 velocity=64 time=0.0020833333333333333
EXTRACT: note_on channel=0 note=74 velocity=0 time=0.22291666666666665
EXTRACT: note_on channel=1 note=74 velocity=0 time=0.025
EXTRACT: note_on channel=0 note=76 velocity=96 time=0.0020833333333333333
EXTRACT: note_on channel=1 note=74 velocity=64 time=0
EXTRACT: note_on channel=1 note=50 velocity=0 time=0.16666666666666666
EXTRACT: note_on channel=0 note=76 velocity=0 time=0.06875
EXTRACT: note_on channel=1 note=74 velocity=0 time=0.0125
EXTRACT: note_on channel=0 note=74 velocity=96 time=0.0020833333333333333
EXTRACT: note_on channel=1 note=74 velocity=64 time=0
EXTRACT: note_on channel=1 note=74 velocity=0 time=0.24791666666666667
EXTRACT: note_on channel=1 note=72 velocity=64 time=0.0020833333333333333
EXTRACT: note_on channel=1 note=48 velocity=76 time=0
EXTRACT: note_on channel=0 note=74 velocity=0 time=0.22291666666666665
EXTRACT: note_on channel=1 note=72 velocity=0 time=0.025
EXTRACT: note_on channel=0 note=72 velocity=96 time=0.0020833333333333333
EXTRACT: note_on channel=1 note=72 velocity=64 time=0
EXTRACT: note_on channel=1 note=72 velocity=0 time=0.24791666666666667
EXTRACT: note_on channel=1 note=72 velocity=64 time=0.0020833333333333333
EXTRACT: note_on channel=1 note=48 velocity=0 time=0.16666666666666666
EXTRACT: note_on channel=0 note=72 velocity=0 time=0.05625
EXTRACT: note_on channel=1 note=72 velocity=0 time=0.025
EXTRACT: note_on channel=0 note=74 velocity=96 time=0.0020833333333333333
EXTRACT: note_on channel=1 note=72 velocity=64 time=0
EXTRACT: note_on channel=1 note=72 velocity=0 time=0.24791666666666667
EXTRACT: note_on channel=1 note=77 velocity=64 time=0.0020833333333333333
EXTRACT: note_on channel=1 note=53 velocity=76 time=0
EXTRACT: note_on channel=0 note=74 velocity=0 time=0.22291666666666665
EXTRACT: note_on channel=1 note=77 velocity=0 time=0.025
EXTRACT: note_on channel=0 note=69 velocity=96 time=0.0020833333333333333
EXTRACT: note_on channel=1 note=77 velocity=64 time=0
EXTRACT: note_on channel=1 note=77 velocity=0 time=0.24791666666666667
EXTRACT: note_on channel=1 note=77 velocity=64 time=0.0020833333333333333
EXTRACT: note_on channel=1 note=53 velocity=0 time=0.16666666666666666
EXTRACT: note_on channel=0 note=69 velocity=0 time=0.05625
EXTRACT: note_on channel=1 note=77 velocity=0 time=0.025
EXTRACT: note_on channel=1 note=77 velocity=64 time=0.0020833333333333333
EXTRACT: note_on channel=1 note=77 velocity=0 time=0.24791666666666667
EXTRACT: note_on channel=9 note=48 velocity=80 time=0.0020833333333333333
EXTRACT: note_on channel=9 note=48 velocity=80 time=0
EXTRACT: note_on channel=9 note=48 velocity=0 time=0.4979166666666667
EXTRACT: note_on channel=9 note=48 velocity=0 time=0
EXTRACT: note_on channel=9 note=48 velocity=80 time=0.0020833333333333333
EXTRACT: note_on channel=9 note=48 velocity=80 time=0
EXTRACT: note_on channel=9 note=48 velocity=0 time=0.4979166666666667
EXTRACT: note_on channel=9 note=48 velocity=0 time=0
EXTRACT: note_on channel=0 note=84 velocity=96 time=0.0020833333333333333
EXTRACT: note_on channel=1 note=65 velocity=64 time=0
EXTRACT: note_on channel=1 note=77 velocity=64 time=0
EXTRACT: note_on channel=1 note=41 velocity=64 time=0
EXTRACT: note_on channel=9 note=24 velocity=126 time=0
EXTRACT: note_on channel=9 note=48 velocity=126 time=0
EXTRACT: note_on channel=9 note=40 velocity=80 time=0
EXTRACT: note_on channel=1 note=65 velocity=0 time=0.24791666666666667
EXTRACT: note_on channel=1 note=77 velocity=0 time=0
EXTRACT: note_on channel=9 note=24 velocity=0 time=0
EXTRACT: note_on channel=9 note=48 velocity=0 time=0
EXTRACT: note_on channel=1 note=65 velocity=64 time=0.0020833333333333333
EXTRACT: note_on channel=1 note=77 velocity=64 time=0
EXTRACT: note_on channel=9 note=24 velocity=126 time=0
EXTRACT: note_on channel=1 note=65 velocity=0 time=0.24791666666666667
EXTRACT: note_on channel=1 note=77 velocity=0 time=0
EXTRACT: note_on channel=9 note=24 velocity=0 time=0
EXTRACT: note_on channel=1 note=65 velocity=64 time=0.0020833333333333333
EXTRACT: note_on channel=1 note=77 velocity=64 time=0
EXTRACT: note_on channel=9 note=24 velocity=126 time=0
EXTRACT: note_on channel=1 note=65 velocity=0 time=0.24791666666666667
EXTRACT: note_on channel=1 note=77 velocity=0 time=0
EXTRACT: note_on channel=9 note=24 velocity=0 time=0
EXTRACT: note_on channel=1 note=65 velocity=64 time=0.0020833333333333333
EXTRACT: note_on channel=1 note=77 velocity=64 time=0
EXTRACT: note_on channel=9 note=24 velocity=126 time=0
EXTRACT: note_on channel=1 note=65 velocity=0 time=0.24791666666666667
EXTRACT: note_on channel=1 note=77 velocity=0 time=0
EXTRACT: note_on channel=1 note=41 velocity=0 time=0
EXTRACT: note_on channel=9 note=24 velocity=0 time=0
EXTRACT: note_on channel=9 note=40 velocity=0 time=0
EXTRACT: note_on channel=1 note=65 velocity=64 time=0.0020833333333333333
EXTRACT: note_on channel=1 note=77 velocity=64 time=0
EXTRACT: note_on channel=1 note=41 velocity=64 time=0
EXTRACT: note_on channel=9 note=24 velocity=126 time=0
EXTRACT: note_on channel=9 note=54 velocity=49 time=0
EXTRACT: note_on channel=0 note=84 velocity=0 time=0.18541666666666667
EXTRACT: note_on channel=1 note=65 velocity=0 time=0.0625
EXTRACT: note_on channel=1 note=77 velocity=0 time=0
EXTRACT: note_on channel=9 note=24 velocity=0 time=0
EXTRACT: note_on channel=0 note=86 velocity=96 time=0.0020833333333333333
EXTRACT: note_on channel=1 note=65 velocity=64 time=0
EXTRACT: note_on channel=1 note=77 velocity=64 time=0
EXTRACT: note_on channel=9 note=24 velocity=126 time=0
EXTRACT: note_on channel=0 note=86 velocity=0 time=0.23541666666666666
EXTRACT: note_on channel=1 note=65 velocity=0 time=0.0125
EXTRACT: note_on channel=1 note=77 velocity=0 time=0
EXTRACT: note_on channel=9 note=24 velocity=0 time=0
EXTRACT: note_on channel=0 note=83 velocity=96 time=0.0020833333333333333
EXTRACT: note_on channel=1 note=65 velocity=64 time=0
EXTRACT: note_on channel=1 note=77 velocity=64 time=0
EXTRACT: note_on channel=9 note=24 velocity=126 time=0
EXTRACT: note_on channel=9 note=55 velocity=126 time=0
EXTRACT: note_on channel=0 note=83 velocity=0 time=0.23541666666666666
EXTRACT: note_on channel=1 note=65 velocity=0 time=0.0125
EXTRACT: note_on channel=1 note=77 velocity=0 time=0
EXTRACT: note_on channel=9 note=24 velocity=0 time=0
EXTRACT: note_on channel=9 note=55 velocity=0 time=0
EXTRACT: note_on channel=0 note=84 velocity=96 time=0.0020833333333333333
EXTRACT: note_on channel=1 note=65 velocity=64 time=0
EXTRACT: note_on channel=1 note=77 velocity=64 time=0
EXTRACT: note_on channel=9 note=24 velocity=126 time=0
EXTRACT: note_on channel=9 note=55 velocity=126 time=0
EXTRACT: note_on channel=0 note=84 velocity=0 time=0.23541666666666666
EXTRACT: note_on channel=1 note=65 velocity=0 time=0.0125
EXTRACT: note_on channel=1 note=77 velocity=0 time=0
EXTRACT: note_on channel=1 note=41 velocity=0 time=0
EXTRACT: note_on channel=9 note=24 velocity=0 time=0
EXTRACT: note_on channel=9 note=55 velocity=0 time=0
EXTRACT: note_on channel=9 note=54 velocity=0 time=0
EXTRACT: note_on channel=0 note=81 velocity=96 time=0.0020833333333333333
EXTRACT: note_on channel=1 note=69 velocity=64 time=0
EXTRACT: note_on channel=1 note=81 velocity=64 time=0
EXTRACT: note_on channel=1 note=45 velocity=64 time=0
EXTRACT: note_on channel=9 note=24 velocity=126 time=0
EXTRACT: note_on channel=9 note=48 velocity=126 time=0
EXTRACT: note_on channel=9 note=40 velocity=80 time=0
EXTRACT: note_on channel=0 note=81 velocity=0 time=0.23541666666666666
EXTRACT: note_on channel=1 note=69 velocity=0 time=0.0125
EXTRACT: note_on channel=1 note=81 velocity=0 time=0
EXTRACT: note_on channel=9 note=24 velocity=0 time=0
EXTRACT: note_on channel=9 note=48 velocity=0 time=0
EXTRACT: note_on channel=0 note=83 velocity=96 time=0.0020833333333333333
EXTRACT: note_on channel=1 note=69 velocity=64 time=0
EXTRACT: note_on channel=1 note=81 velocity=64 time=0
EXTRACT: note_on channel=9 note=24 velocity=126 time=0
EXTRACT: note_on channel=0 note=83 velocity=0 time=0.23541666666666666
EXTRACT: note_on channel=1 note=69 velocity=0 time=0.0125
EXTRACT: note_on channel=1 note=81 velocity=0 time=0
EXTRACT: note_on channel=9 note=24 velocity=0 time=0
EXTRACT: note_on channel=0 note=79 velocity=96 time=0.0020833333333333333
EXTRACT: note_on channel=1 note=69 velocity=64 time=0
EXTRACT: note_on channel=1 note=81 velocity=64 time=0
EXTRACT: note_on channel=9 note=24 velocity=126 time=0
EXTRACT: note_on channel=1 note=69 velocity=0 time=0.24791666666666667
EXTRACT: note_on channel=1 note=81 velocity=0 time=0
EXTRACT: note_on channel=9 note=24 velocity=0 time=0
EXTRACT: note_on channel=1 note=69 velocity=64 time=0.0020833333333333333
EXTRACT: note_on channel=1 note=81 velocity=64 time=0
EXTRACT: note_on channel=9 note=24 velocity=126 time=0
EXTRACT: note_on channel=0 note=79 velocity=0 time=0.24791666666666667
EXTRACT: note_on channel=1 note=69 velocity=0 time=0
EXTRACT: note_on channel=1 note=81 velocity=0 time=0
EXTRACT: note_on channel=1 note=45 velocity=0 time=0
EXTRACT: note_on channel=9 note=24 velocity=0 time=0
EXTRACT: note_on channel=9 note=40 velocity=0 time=0
EXTRACT: note_on channel=0 note=81 velocity=96 time=0.0020833333333333333
EXTRACT: note_on channel=1 note=69 velocity=64 time=0
EXTRACT: note_on channel=1 note=81 velocity=64 time=0
EXTRACT: note_on channel=1 note=45 velocity=64 time=0
EXTRACT: note_on channel=9 note=24 velocity=126 time=0
EXTRACT: note_on channel=9 note=54 velocity=49 time=0
EXTRACT: note_on channel=0 note=81 velocity=0 time=0.23541666666666666
EXTRACT: note_on channel=1 note=69 velocity=0 time=0.0125
EXTRACT: note_on channel=1 note=81 velocity=0 time=0
EXTRACT: note_on channel=9 note=24 velocity=0 time=0
EXTRACT: note_on channel=1 note=69 velocity=64 time=0.0020833333333333333
EXTRACT: note_on channel=1 note=81 velocity=64 time=0
EXTRACT: note_on channel=9 note=24 velocity=126 time=0
EXTRACT: note_on channel=1 note=69 velocity=0 time=0.24791666666666667
EXTRACT: note_on channel=1 note=81 velocity=0 time=0
EXTRACT: note_on channel=9 note=24 velocity=0 time=0
EXTRACT: note_on channel=0 note=79 velocity=96 time=0.0020833333333333333
EXTRACT: note_on channel=1 note=69 velocity=64 time=0
EXTRACT: note_on channel=1 note=81 velocity=64 time=0
EXTRACT: note_on channel=9 note=24 velocity=126 time=0
EXTRACT: note_on channel=9 note=55 velocity=126 time=0
EXTRACT: note_on channel=1 note=69 velocity=0 time=0.24791666666666667
EXTRACT: note_on channel=1 note=81 velocity=0 time=0
EXTRACT: note_on channel=9 note=24 velocity=0 time=0
EXTRACT: note_on channel=9 note=55 velocity=0 time=0
EXTRACT: note_on channel=1 note=69 velocity=64 time=0.0020833333333333333
EXTRACT: note_on channel=1 note=81 velocity=64 time=0
EXTRACT: note_on channel=9 note=24 velocity=126 time=0
EXTRACT: note_on channel=9 note=55 velocity=126 time=0
EXTRACT: note_on channel=0 note=79 velocity=0 time=0.22291666666666665
EXTRACT: note_on channel=1 note=69 velocity=0 time=0.025
EXTRACT: note_on channel=1 note=81 velocity=0 time=0
EXTRACT: note_on channel=1 note=45 velocity=0 time=0
EXTRACT: note_on channel=9 note=24 velocity=0 time=0
EXTRACT: note_on channel=9 note=55 velocity=0 time=0
EXTRACT: note_on channel=9 note=54 velocity=0 time=0
EXTRACT: note_on channel=0 note=81 velocity=96 time=0.0020833333333333333
EXTRACT: note_on channel=1 note=65 velocity=64 time=0
EXTRACT: note_on channel=1 note=77 velocity=64 time=0
EXTRACT: note_on channel=1 note=41 velocity=64 time=0
EXTRACT: note_on channel=9 note=24 velocity=126 time=0
EXTRACT: note_on channel=9 note=48 velocity=126 time=0
EXTRACT: note_on channel=9 note=40 velocity=80 time=0
EXTRACT: note_on channel=0 note=81 velocity=0 time=0.23541666666666666
EXTRACT: note_on channel=1 note=65 velocity=0 time=0.0125
EXTRACT: note_on channel=1 note=77 velocity=0 time=0
EXTRACT: note_on channel=9 note=24 velocity=0 time=0
EXTRACT: note_on channel=9 note=48 velocity=0 time=0
EXTRACT: note_on channel=0 note=79 velocity=96 time=0.0020833333333333333
EXTRACT: note_on channel=1 note=65 velocity=64 time=0
EXTRACT: note_on channel=1 note=77 velocity=64 time=0
EXTRACT: note_on channel=9 note=24 velocity=126 time=0
EXTRACT: note_on channel=0 note=79 velocity=0 time=0.23541666666666666
EXTRACT: note_on channel=1 note=65 velocity=0 time=0.0125
EXTRACT: note_on channel=1 note=77 velocity=0 time=0
EXTRACT: note_on channel=9 note=24 velocity=0 time=0
EXTRACT: note_on channel=0 note=79 velocity=96 time=0.0020833333333333333
EXTRACT: note_on channel=1 note=65 velocity=64 time=0
EXTRACT: note_on channel=1 note=77 velocity=64 time=0
EXTRACT: note_on channel=9 note=24 velocity=126 time=0
EXTRACT: note_on channel=1 note=65 velocity=0 time=0.24791666666666667
EXTRACT: note_on channel=1 note=77 velocity=0 time=0
EXTRACT: note_on channel=9 note=24 velocity=0 time=0
EXTRACT: note_on channel=1 note=65 velocity=64 time=0.0020833333333333333
EXTRACT: note_on channel=1 note=77 velocity=64 time=0
EXTRACT: note_on channel=9 note=24 velocity=126 time=0
EXTRACT: note_on channel=0 note=79 velocity=0 time=0.22291666666666665
EXTRACT: note_on channel=1 note=65 velocity=0 time=0.025
EXTRACT: note_on channel=1 note=77 velocity=0 time=0
EXTRACT: note_on channel=1 note=41 velocity=0 time=0
EXTRACT: note_on channel=9 note=24 velocity=0 time=0
EXTRACT: note_on channel=9 note=40 velocity=0 time=0
EXTRACT: note_on channel=0 note=72 velocity=96 time=0.0020833333333333333
EXTRACT: note_on channel=1 note=65 velocity=64 time=0
EXTRACT: note_on channel=1 note=77 velocity=64 time=0
EXTRACT: note_on channel=1 note=41 velocity=64 time=0
EXTRACT: note_on channel=9 note=24 velocity=126 time=0
EXTRACT: note_on channel=9 note=54 velocity=49 time=0
EXTRACT: note_on channel=1 note=65 velocity=0 time=0.24791666666666667
EXTRACT: note_on channel=1 note=77 velocity=0 time=0
EXTRACT: note_on channel=9 note=24 velocity=0 time=0
EXTRACT: note_on channel=1 note=65 velocity=64 time=0.0020833333333333333
EXTRACT: note_on channel=1 note=77 velocity=64 time=0
EXTRACT: note_on channel=9 note=24 velocity=126 time=0
EXTRACT: note_on channel=0 note=72 velocity=0 time=0.22291666666666665
EXTRACT: note_on channel=1 note=65 velocity=0 time=0.025
EXTRACT: note_on channel=1 note=77 velocity=0 time=0
EXTRACT: note_on channel=9 note=24 velocity=0 time=0
EXTRACT: note_on channel=0 note=74 velocity=96 time=0.0020833333333333333
EXTRACT: note_on channel=1 note=65 velocity=64 time=0
EXTRACT: note_on channel=1 note=77 velocity=64 time=0
EXTRACT: note_on channel=9 note=24 velocity=126 time=0
EXTRACT: note_on channel=9 note=55 velocity=126 time=0
EXTRACT: note_on channel=0 note=74 velocity=0 time=0.23541666666666666
EXTRACT: note_on channel=1 note=65 velocity=0 time=0.0125
EXTRACT: note_on channel=1 note=77 velocity=0 time=0
EXTRACT: note_on channel=9 note=24 velocity=0 time=0
EXTRACT: note_on channel=9 note=55 velocity=0 time=0
EXTRACT: note_on channel=0 note=74 velocity=96 time=0.0020833333333333333
EXTRACT: note_on channel=1 note=65 velocity=64 time=0
EXTRACT: note_on channel=1 note=77 velocity=64 time=0
EXTRACT: note_on channel=9 note=24 velocity=126 time=0
EXTRACT: note_on channel=9 note=55 velocity=126 time=0
EXTRACT: note_on channel=0 note=74 velocity=0 time=0.23541666666666666
EXTRACT: note_on channel=1 note=65 velocity=0 time=0.0125
EXTRACT: note_on channel=1 note=77 velocity=0 time=0
EXTRACT: note_on channel=1 note=41 velocity=0 time=0
EXTRACT: note_on channel=9 note=24 velocity=0 time=0
EXTRACT: note_on channel=9 note=55 velocity=0 time=0
EXTRACT: note_on channel=9 note=54 velocity=0 time=0
EXTRACT: note_on channel=0 note=72 velocity=96 time=0.0020833333333333333
EXTRACT: note_on channel=1 note=69 velocity=64 time=0
EXTRACT: note_on channel=1 note=81 velocity=64 time=0
EXTRACT: note_on channel=1 note=45 velocity=64 time=0
EXTRACT: note_on channel=9 note=24 velocity=126 time=0
EXTRACT: note_on channel=9 note=48 velocity=126 time=0
EXTRACT: note_on channel=9 note=40 velocity=80 time=0
EXTRACT: note_on channel=1 note=69 velocity=0 time=0.24791666666666667
EXTRACT: note_on channel=1 note=81 velocity=0 time=0
EXTRACT: note_on channel=9 note=24 velocity=0 time=0
EXTRACT: note_on channel=9 note=48 velocity=0 time=0
EXTRACT: note_on channel=1 note=69 velocity=64 time=0.0020833333333333333
EXTRACT: note_on channel=1 note=81 velocity=64 time=0
EXTRACT: note_on channel=9 note=24 velocity=126 time=0
EXTRACT: note_on channel=0 note=72 velocity=0 time=0.22291666666666665
EXTRACT: note_on channel=1 note=69 velocity=0 time=0.025
EXTRACT: note_on channel=1 note=81 velocity=0 time=0
EXTRACT: note_on channel=9 note=24 velocity=0 time=0
EXTRACT: note_on channel=1 note=69 velocity=64 time=0.0020833333333333333
EXTRACT: note_on channel=1 note=81 velocity=64 time=0
EXTRACT: note_on channel=9 note=24 velocity=126 time=0
EXTRACT: note_on channel=1 note=69 velocity=0 time=0.24791666666666667
EXTRACT: note_on channel=1 note=81 velocity=0 time=0
EXTRACT: note_on channel=9 note=24 velocity=0 time=0
EXTRACT: note_on channel=1 note=69 velocity=64 time=0.0020833333333333333
EXTRACT: note_on channel=1 note=81 velocity=64 time=0
EXTRACT: note_on channel=9 note=24 velocity=126 time=0
EXTRACT: note_on channel=1 note=69 velocity=0 time=0.24791666666666667
EXTRACT: note_on channel=1 note=81 velocity=0 time=0
EXTRACT: note_on channel=1 note=45 velocity=0 time=0
EXTRACT: note_on channel=9 note=24 velocity=0 time=0
EXTRACT: note_on channel=9 note=40 velocity=0 time=0
EXTRACT: note_on channel=1 note=69 velocity=64 time=0.0020833333333333333
EXTRACT: note_on channel=1 note=81 velocity=64 time=0
EXTRACT: note_on channel=1 note=45 velocity=64 time=0
EXTRACT: note_on channel=9 note=24 velocity=126 time=0
EXTRACT: note_on channel=9 note=48 velocity=80 time=0
EXTRACT: note_on channel=9 note=54 velocity=49 time=0
EXTRACT: note_on channel=1 note=69 velocity=0 time=0.24791666666666667
EXTRACT: note_on channel=1 note=81 velocity=0 time=0
EXTRACT: note_on channel=9 note=24 velocity=0 time=0
EXTRACT: note_on channel=1 note=69 velocity=64 time=0.0020833333333333333
EXTRACT: note_on channel=1 note=81 velocity=64 time=0
EXTRACT: note_on channel=9 note=24 velocity=126 time=0
EXTRACT: note_on channel=1 note=69 velocity=0 time=0.24791666666666667
EXTRACT: note_on channel=1 note=81 velocity=0 time=0
EXTRACT: note_on channel=9 note=24 velocity=0 time=0
EXTRACT: note_on channel=9 note=48 velocity=0 time=0
EXTRACT: note_on channel=1 note=69 velocity=64 time=0.0020833333333333333
EXTRACT: note_on channel=1 note=81 velocity=64 time=0
EXTRACT: note_on channel=9 note=24 velocity=126 time=0
EXTRACT: note_on channel=9 note=55 velocity=126 time=0
EXTRACT: note_on channel=9 note=48 velocity=80 time=0
EXTRACT: note_on channel=1 note=69 velocity=0 time=0.24791666666666667
EXTRACT: note_on channel=1 note=81 velocity=0 time=0
EXTRACT: note_on channel=9 note=24 velocity=0 time=0
EXTRACT: note_on channel=9 note=55 velocity=0 time=0
EXTRACT: note_on channel=1 note=69 velocity=64 time=0.0020833333333333333
EXTRACT: note_on channel=1 note=81 velocity=64 time=0
EXTRACT: note_on channel=9 note=24 velocity=126 time=0
EXTRACT: note_on channel=9 note=55 velocity=126 time=0
EXTRACT: note_on channel=1 note=69 velocity=0 time=0.24791666666666667
EXTRACT: note_on channel=1 note=81 velocity=0 time=0
EXTRACT: note_on channel=1 note=45 velocity=0 time=0
EXTRACT: note_on channel=9 note=24 velocity=0 time=0
EXTRACT: note_on channel=9 note=55 velocity=0 time=0
EXTRACT: note_on channel=9 note=48 velocity=0 time=0
EXTRACT: note_on channel=9 note=54 velocity=0 time=0
EXTRACT: note_on channel=0 note=84 velocity=96 time=0.0020833333333333333
EXTRACT: note_on channel=1 note=65 velocity=64 time=0
EXTRACT: note_on channel=1 note=77 velocity=64 time=0
EXTRACT: note_on channel=1 note=41 velocity=64 time=0
EXTRACT: note_on channel=9 note=24 velocity=126 time=0
EXTRACT: note_on channel=9 note=48 velocity=126 time=0
EXTRACT: note_on channel=9 note=40 velocity=80 time=0
EXTRACT: note_on channel=1 note=65 velocity=0 time=0.24791666666666667
EXTRACT: note_on channel=1 note=77 velocity=0 time=0
EXTRACT: note_on channel=9 note=24 velocity=0 time=0
EXTRACT: note_on channel=9 note=48 velocity=0 time=0
EXTRACT: note_on channel=1 note=65 velocity=64 time=0.0020833333333333333
EXTRACT: note_on channel=1 note=77 velocity=64 time=0
EXTRACT: note_on channel=9 note=24 velocity=126 time=0
EXTRACT: note_on channel=1 note=65 velocity=0 time=0.24791666666666667
EXTRACT: note_on channel=1 note=77 velocity=0 time=0
EXTRACT: note_on channel=9 note=24 velocity=0 time=0
EXTRACT: note_on channel=1 note=65 velocity=64 time=0.0020833333333333333
EXTRACT: note_on channel=1 note=77 velocity=64 time=0
EXTRACT: note_on channel=9 note=24 velocity=126 time=0
EXTRACT: note_on channel=1 note=65 velocity=0 time=0.24791666666666667
EXTRACT: note_on channel=1 note=77 velocity=0 time=0
EXTRACT: note_on channel=9 note=24 velocity=0 time=0
EXTRACT: note_on channel=1 note=65 velocity=64 time=0.0020833333333333333
EXTRACT: note_on channel=1 note=77 velocity=64 time=0
EXTRACT: note_on channel=9 note=24 velocity=126 time=0
EXTRACT: note_on channel=1 note=65 velocity=0 time=0.24791666666666667
EXTRACT: note_on channel=1 note=77 velocity=0 time=0
EXTRACT: note_on channel=1 note=41 velocity=0 time=0
EXTRACT: note_on channel=9 note=24 velocity=0 time=0
EXTRACT: note_on channel=9 note=40 velocity=0 time=0
EXTRACT: note_on channel=1 note=65 velocity=64 time=0.0020833333333333333
EXTRACT: note_on channel=1 note=77 velocity=64 time=0
EXTRACT: note_on channel=1 note=41 velocity=64 time=0
EXTRACT: note_on channel=9 note=24 velocity=126 time=0
EXTRACT: note_on channel=9 note=54 velocity=49 time=0
EXTRACT: note_on channel=0 note=84 velocity=0 time=0.18541666666666667
EXTRACT: note_on channel=1 note=65 velocity=0 time=0.0625
EXTRACT: note_on channel=1 note=77 velocity=0 time=0
EXTRACT: note_on channel=9 note=24 velocity=0 time=0
EXTRACT: note_on channel=0 note=86 velocity=96 time=0.0020833333333333333
EXTRACT: note_on channel=1 note=65 velocity=64 time=0
EXTRACT: note_on channel=1 note=77 velocity=64 time=0
EXTRACT: note_on channel=9 note=24 velocity=126 time=0
EXTRACT: note_on channel=0 note=86 velocity=0 time=0.23541666666666666
EXTRACT: note_on channel=1 note=65 velocity=0 time=0.0125
EXTRACT: note_on channel=1 note=77 velocity=0 time=0
EXTRACT: note_on channel=9 note=24 velocity=0 time=0
EXTRACT: note_on channel=0 note=83 velocity=96 time=0.0020833333333333333
EXTRACT: note_on channel=1 note=65 velocity=64 time=0
EXTRACT: note_on channel=1 note=77 velocity=64 time=0
EXTRACT: note_on channel=9 note=24 velocity=126 time=0
EXTRACT: note_on channel=9 note=55 velocity=126 time=0
EXTRACT: note_on channel=0 note=83 velocity=0 time=0.23541666666666666
EXTRACT: note_on channel=1 note=65 velocity=0 time=0.0125
EXTRACT: note_on channel=1 note=77 velocity=0 time=0
EXTRACT: note_on channel=9 note=24 velocity=0 time=0
EXTRACT: note_on channel=9 note=55 velocity=0 time=0
EXTRACT: note_on channel=0 note=84 velocity=96 time=0.0020833333333333333
EXTRACT: note_on channel=1 note=65 velocity=64 time=0
EXTRACT: note_on channel=1 note=77 velocity=64 time=0
EXTRACT: note_on channel=9 note=24 velocity=126 time=0
EXTRACT: note_on channel=9 note=55 velocity=126 time=0
EXTRACT: note_on channel=0 note=84 velocity=0 time=0.23541666666666666
EXTRACT: note_on channel=1 note=65 velocity=0 time=0.0125
EXTRACT: note_on channel=1 note=77 velocity=0 time=0
EXTRACT: note_on channel=1 note=41 velocity=0 time=0
EXTRACT: note_on channel=9 note=24 velocity=0 time=0
EXTRACT: note_on channel=9 note=55 velocity=0 time=0
EXTRACT: note_on channel=9 note=54 velocity=0 time=0
EXTRACT: note_on channel=0 note=81 velocity=96 time=0.0020833333333333333
EXTRACT: note_on channel=1 note=69 velocity=64 time=0
EXTRACT: note_on channel=1 note=81 velocity=64 time=0
EXTRACT: note_on channel=1 note=45 velocity=64 time=0
EXTRACT: note_on channel=9 note=24 velocity=126 time=0
EXTRACT: note_on channel=9 note=48 velocity=126 time=0
EXTRACT: note_on channel=9 note=40 velocity=80 time=0
EXTRACT: note_on channel=0 note=81 velocity=0 time=0.23541666666666666
EXTRACT: note_on channel=1 note=69 velocity=0 time=0.0125
EXTRACT: note_on channel=1 note=81 velocity=0 time=0
EXTRACT: note_on channel=9 note=24 velocity=0 time=0
EXTRACT: note_on channel=9 note=48 velocity=0 time=0
EXTRACT: note_on channel=0 note=83 velocity=96 time=0.0020833333333333333
EXTRACT: note_on channel=1 note=69 velocity=64 time=0
EXTRACT: note_on channel=1 note=81 velocity=64 time=0
EXTRACT: note_on channel=9 note=24 velocity=126 time=0
EXTRACT: note_on channel=0 note=83 velocity=0 time=0.23541666666666666
EXTRACT: note_on channel=1 note=69 velocity=0 time=0.0125
EXTRACT: note_on channel=1 note=81 velocity=0 time=0
EXTRACT: note_on channel=9 note=24 velocity=0 time=0
EXTRACT: note_on channel=0 note=79 velocity=96 time=0.0020833333333333333
EXTRACT: note_on channel=1 note=69 velocity=64 time=0
EXTRACT: note_on channel=1 note=81 velocity=64 time=0
EXTRACT: note_on channel=9 note=24 velocity=126 time=0
EXTRACT: note_on channel=1 note=69 velocity=0 time=0.24791666666666667
EXTRACT: note_on channel=1 note=81 velocity=0 time=0
EXTRACT: note_on channel=9 note=24 velocity=0 time=0
EXTRACT: note_on channel=1 note=69 velocity=64 time=0.0020833333333333333
EXTRACT: note_on channel=1 note=81 velocity=64 time=0
EXTRACT: note_on channel=9 note=24 velocity=126 time=0
EXTRACT: note_on channel=0 note=79 velocity=0 time=0.24791666666666667
EXTRACT: note_on channel=1 note=69 velocity=0 time=0
EXTRACT: note_on channel=1 note=81 velocity=0 time=0
EXTRACT: note_on channel=1 note=45 velocity=0 time=0
EXTRACT: note_on channel=9 note=24 velocity=0 time=0
EXTRACT: note_on channel=9 note=40 velocity=0 time=0
EXTRACT: note_on channel=0 note=81 velocity=96 time=0.0020833333333333333
EXTRACT: note_on channel=1 note=69 velocity=64 time=0
EXTRACT: note_on channel=1 note=81 velocity=64 time=0
EXTRACT: note_on channel=1 note=45 velocity=64 time=0
EXTRACT: note_on channel=9 note=24 velocity=126 time=0
EXTRACT: note_on channel=9 note=54 velocity=49 time=0
EXTRACT: note_on channel=0 note=81 velocity=0 time=0.23541666666666666
EXTRACT: note_on channel=1 note=69 velocity=0 time=0.0125
EXTRACT: note_on channel=1 note=81 velocity=0 time=0
EXTRACT: note_on channel=9 note=24 velocity=0 time=0
EXTRACT: note_on channel=1 note=69 velocity=64 time=0.0020833333333333333
EXTRACT: note_on channel=1 note=81 velocity=64 time=0
EXTRACT: note_on channel=9 note=24 velocity=126 time=0
EXTRACT: note_on channel=1 note=69 velocity=0 time=0.24791666666666667
EXTRACT: note_on channel=1 note=81 velocity=0 time=0
EXTRACT: note_on channel=9 note=24 velocity=0 time=0
EXTRACT: note_on channel=0 note=79 velocity=96 time=0.0020833333333333333
EXTRACT: note_on channel=1 note=69 velocity=64 time=0
EXTRACT: note_on channel=1 note=81 velocity=64 time=0
EXTRACT: note_on channel=9 note=24 velocity=126 time=0
EXTRACT: note_on channel=9 note=55 velocity=126 time=0
EXTRACT: note_on channel=1 note=69 velocity=0 time=0.24791666666666667
EXTRACT: note_on channel=1 note=81 velocity=0 time=0
EXTRACT: note_on channel=9 note=24 velocity=0 time=0
EXTRACT: note_on channel=9 note=55 velocity=0 time=0
EXTRACT: note_on channel=1 note=69 velocity=64 time=0.0020833333333333333
EXTRACT: note_on channel=1 note=81 velocity=64 time=0
EXTRACT: note_on channel=9 note=24 velocity=126 time=0
EXTRACT: note_on channel=9 note=55 velocity=126 time=0
EXTRACT: note_on channel=0 note=79 velocity=0 time=0.22291666666666665
EXTRACT: note_on channel=1 note=69 velocity=0 time=0.025
EXTRACT: note_on channel=1 note=81 velocity=0 time=0
EXTRACT: note_on channel=1 note=45 velocity=0 time=0
EXTRACT: note_on channel=9 note=24 velocity=0 time=0
EXTRACT: note_on channel=9 note=55 velocity=0 time=0
EXTRACT: note_on channel=9 note=54 velocity=0 time=0
EXTRACT: note_on channel=0 note=81 velocity=96 time=0.0020833333333333333
EXTRACT: note_on channel=1 note=74 velocity=64 time=0
EXTRACT: note_on channel=1 note=50 velocity=76 time=0
EXTRACT: note_on channel=2 note=69 velocity=49 time=0
EXTRACT: note_on channel=2 note=45 velocity=49 time=0
EXTRACT: note_on channel=9 note=24 velocity=126 time=0
EXTRACT: note_on channel=9 note=40 velocity=80 time=0
EXTRACT: note_on channel=0 note=81 velocity=0 time=0.23541666666666666
EXTRACT: note_on channel=1 note=74 velocity=0 time=0.0125
EXTRACT: note_on channel=9 note=24 velocity=0 time=0
EXTRACT: note_on channel=0 note=79 velocity=96 time=0.0020833333333333333
EXTRACT: note_on channel=1 note=74 velocity=64 time=0
EXTRACT: note_on channel=9 note=24 velocity=126 time=0
EXTRACT: note_on channel=0 note=79 velocity=0 time=0.23541666666666666
EXTRACT: note_on channel=1 note=74 velocity=0 time=0.0125
EXTRACT: note_on channel=9 note=24 velocity=0 time=0
EXTRACT: note_on channel=0 note=79 velocity=96 time=0.0020833333333333333
EXTRACT: note_on channel=1 note=74 velocity=64 time=0
EXTRACT: note_on channel=9 note=24 velocity=126 time=0
EXTRACT: note_on channel=1 note=50 velocity=0 time=0.16666666666666666
EXTRACT: note_on channel=1 note=74 velocity=0 time=0.08125
EXTRACT: note_on channel=9 note=24 velocity=0 time=0
EXTRACT: note_on channel=1 note=74 velocity=64 time=0.0020833333333333333
EXTRACT: note_on channel=9 note=24 velocity=126 time=0
EXTRACT: note_on channel=0 note=79 velocity=0 time=0.22291666666666665
EXTRACT: note_on channel=1 note=74 velocity=0 time=0.025
EXTRACT: note_on channel=2 note=69 velocity=0 time=0
EXTRACT: note_on channel=2 note=45 velocity=0 time=0
EXTRACT: note_on channel=9 note=24 velocity=0 time=0
EXTRACT: note_on channel=9 note=40 velocity=0 time=0
EXTRACT: note_on channel=0 note=72 velocity=96 time=0.0020833333333333333
EXTRACT: note_on channel=1 note=72 velocity=64 time=0
EXTRACT: note_on channel=1 note=48 velocity=76 time=0
EXTRACT: note_on channel=2 note=67 velocity=49 time=0
EXTRACT: note_on channel=2 note=43 velocity=49 time=0
EXTRACT: note_on channel=9 note=24 velocity=126 time=0
EXTRACT: note_on channel=9 note=54 velocity=49 time=0
EXTRACT: note_on channel=1 note=72 velocity=0 time=0.24791666666666667
EXTRACT: note_on channel=9 note=24 velocity=0 time=0
EXTRACT: note_on channel=1 note=72 velocity=64 time=0.0020833333333333333
EXTRACT: note_on channel=9 note=24 velocity=126 time=0
EXTRACT: note_on channel=0 note=72 velocity=0 time=0.22291666666666665
EXTRACT: note_on channel=1 note=72 velocity=0 time=0.025
EXTRACT: note_on channel=9 note=24 velocity=0 time=0
EXTRACT: note_on channel=0 note=74 velocity=96 time=0.0020833333333333333
EXTRACT: note_on channel=1 note=72 velocity=64 time=0
EXTRACT: note_on channel=9 note=24 velocity=126 time=0
EXTRACT: note_on channel=9 note=55 velocity=126 time=0
EXTRACT: note_on channel=1 note=48 velocity=0 time=0.16666666666666666
EXTRACT: note_on channel=0 note=74 velocity=0 time=0.06875
EXTRACT: note_on channel=1 note=72 velocity=0 time=0.0125
EXTRACT: note_on channel=9 note=24 velocity=0 time=0
EXTRACT: note_on channel=9 note=55 velocity=0 time=0
EXTRACT: note_on channel=0 note=74 velocity=96 time=0.0020833333333333333
EXTRACT: note_on channel=1 note=72 velocity=64 time=0
EXTRACT: note_on channel=9 note=24 velocity=126 time=0
EXTRACT: note_on channel=9 note=55 velocity=126 time=0
EXTRACT: note_on channel=0 note=74 velocity=0 time=0.23541666666666666
EXTRACT: note_on channel=1 note=72 velocity=0 time=0.0125
EXTRACT: note_on channel=2 note=67 velocity=0 time=0
EXTRACT: note_on channel=2 note=43 velocity=0 time=0
EXTRACT: note_on channel=9 note=24 velocity=0 time=0
EXTRACT: note_on channel=9 note=55 velocity=0 time=0
EXTRACT: note_on channel=9 note=54 velocity=0 time=0
EXTRACT: note_on channel=0 note=72 velocity=96 time=0.0020833333333333333
EXTRACT: note_on channel=1 note=77 velocity=64 time=0
EXTRACT: note_on channel=1 note=53 velocity=76 time=0
EXTRACT: note_on channel=2 note=72 velocity=96 time=0
EXTRACT: note_on channel=2 note=48 velocity=96 time=0
EXTRACT: note_on channel=9 note=24 velocity=126 time=0
EXTRACT: note_on channel=9 note=40 velocity=80 time=0
EXTRACT: note_on channel=9 note=24 velocity=0 time=0.24791666666666667
EXTRACT: note_on channel=9 note=24 velocity=126 time=0.0020833333333333333
EXTRACT: note_on channel=0 note=72 velocity=0 time=0.22291666666666665
EXTRACT: note_on channel=9 note=24 velocity=0 time=0.025
EXTRACT: note_on channel=9 note=24 velocity=126 time=0.0020833333333333333
EXTRACT: note_on channel=1 note=53 velocity=0 time=0.16666666666666666
EXTRACT: note_on channel=9 note=24 velocity=0 time=0.08125
EXTRACT: note_on channel=0 note=67 velocity=96 time=0.0020833333333333333
EXTRACT: note_on channel=9 note=24 velocity=126 time=0
EXTRACT: note_on channel=0 note=67 velocity=0 time=0.23541666666666666
EXTRACT: note_on channel=1 note=77 velocity=0 time=0.0125
EXTRACT: note_on channel=9 note=24 velocity=0 time=0
EXTRACT: note_on channel=9 note=40 velocity=0 time=0
EXTRACT: note_on channel=0 note=72 velocity=96 time=0.0020833333333333333
EXTRACT: note_on channel=9 note=24 velocity=126 time=0
EXTRACT: note_on channel=9 note=54 velocity=49 time=0
EXTRACT: note_on channel=9 note=24 velocity=0 time=0.24791666666666667
EXTRACT: note_on channel=9 note=24 velocity=126 time=0.0020833333333333333
EXTRACT: note_on channel=0 note=72 velocity=0 time=0.22291666666666665
EXTRACT: note_on channel=9 note=24 velocity=0 time=0.025
EXTRACT: note_on channel=0 note=67 velocity=96 time=0.0020833333333333333
EXTRACT: note_on channel=9 note=24 velocity=126 time=0
EXTRACT: note_on channel=9 note=55 velocity=126 time=0
EXTRACT: note_on channel=9 note=24 velocity=0 time=0.24791666666666667
EXTRACT: note_on channel=9 note=55 velocity=0 time=0
EXTRACT: note_on channel=9 note=24 velocity=126 time=0.0020833333333333333
EXTRACT: note_on channel=9 note=55 velocity=126 time=0
EXTRACT: note_on channel=0 note=67 velocity=0 time=0.22291666666666665
EXTRACT: note_on channel=2 note=72 velocity=0 time=0.025
EXTRACT: note_on channel=2 note=48 velocity=0 time=0
EXTRACT: note_on channel=9 note=24 velocity=0 time=0
EXTRACT: note_on channel=9 note=55 velocity=0 time=0
EXTRACT: note_on channel=9 note=54 velocity=0 time=0
EXTRACT: note_on channel=0 note=81 velocity=96 time=0.0020833333333333333
EXTRACT: note_on channel=1 note=77 velocity=96 time=0
EXTRACT: note_on channel=1 note=41 velocity=96 time=0
EXTRACT: note_on channel=2 note=77 velocity=126 time=0
EXTRACT: note_on channel=2 note=41 velocity=126 time=0
EXTRACT: note_on channel=0 note=81 velocity=0 time=0.47291666666666665
EXTRACT: note_on channel=0 note=81 velocity=96 time=0.027083333333333334
EXTRACT: note_on channel=0 note=81 velocity=0 time=0.23541666666666666
EXTRACT: note_on channel=0 note=81 velocity=96 time=0.014583333333333334
EXTRACT: note_on channel=0 note=81 velocity=0 time=0.23541666666666666
EXTRACT: note_on channel=0 note=81 velocity=96 time=0.014583333333333334
EXTRACT: note_on channel=0 note=81 velocity=0 time=0.47291666666666665
EXTRACT: note_on channel=0 note=84 velocity=96 time=0.027083333333333334
EXTRACT: note_on channel=0 note=84 velocity=0 time=0.47291666666666665
EXTRACT: note_on channel=1 note=77 velocity=0 time=0.025
EXTRACT: note_on channel=1 note=41 velocity=0 time=0
EXTRACT: note_on channel=2 note=77 velocity=0 time=0
EXTRACT: note_on channel=2 note=41 velocity=0 time=0
EXTRACT: note_on channel=0 note=86 velocity=96 time=0.0020833333333333333
EXTRACT: note_on channel=1 note=76 velocity=96 time=0
EXTRACT: note_on channel=1 note=40 velocity=96 time=0
EXTRACT: note_on channel=2 note=76 velocity=126 time=0
EXTRACT: note_on channel=2 note=40 velocity=126 time=0
EXTRACT: note_on channel=0 note=86 velocity=0 time=0.7104166666666667
EXTRACT: note_on channel=0 note=81 velocity=96 time=0.03958333333333333
EXTRACT: note_on channel=0 note=81 velocity=0 time=0.47291666666666665
EXTRACT: note_on channel=1 note=76 velocity=0 time=0.775
EXTRACT: note_on channel=1 note=40 velocity=0 time=0
EXTRACT: note_on channel=2 note=76 velocity=0 time=0
EXTRACT: note_on channel=2 note=40 velocity=0 time=0
EXTRACT: note_on channel=0 note=81 velocity=96 time=0.0020833333333333333
EXTRACT: note_on channel=1 note=81 velocity=96 time=0
EXTRACT: note_on channel=1 note=33 velocity=96 time=0
EXTRACT: note_on channel=2 note=69 velocity=126 time=0
EXTRACT: note_on channel=2 note=81 velocity=126 time=0
EXTRACT: note_on channel=2 note=45 velocity=126 time=0
EXTRACT: note_on channel=0 note=81 velocity=0 time=0.23541666666666666
EXTRACT: note_on channel=0 note=81 velocity=96 time=0.014583333333333334
EXTRACT: note_on channel=0 note=81 velocity=0 time=0.23541666666666666
EXTRACT: note_on channel=0 note=81 velocity=96 time=0.014583333333333334
EXTRACT: note_on channel=0 note=81 velocity=0 time=0.23541666666666666
EXTRACT: note_on channel=0 note=81 velocity=96 time=0.014583333333333334
EXTRACT: note_on channel=0 note=81 velocity=0 time=0.23541666666666666
EXTRACT: note_on channel=0 note=81 velocity=96 time=0.014583333333333334
EXTRACT: note_on channel=0 note=81 velocity=0 time=0.47291666666666665
EXTRACT: note_on channel=0 note=84 velocity=96 time=0.027083333333333334
EXTRACT: note_on channel=0 note=84 velocity=0 time=0.47291666666666665
EXTRACT: note_on channel=1 note=81 velocity=0 time=0.025
EXTRACT: note_on channel=1 note=33 velocity=0 time=0
EXTRACT: note_on channel=0 note=86 velocity=96 time=0.0020833333333333333
EXTRACT: note_on channel=0 note=86 velocity=0 time=0.47291666666666665
EXTRACT: note_on channel=0 note=81 velocity=96 time=0.027083333333333334
EXTRACT: note_on channel=0 note=81 velocity=0 time=0.47291666666666665
EXTRACT: note_on channel=1 note=57 velocity=96 time=0.027083333333333334
EXTRACT: note_on channel=1 note=33 velocity=96 time=0
EXTRACT: note_on channel=1 note=57 velocity=0 time=0.4979166666666667
EXTRACT: note_on channel=1 note=33 velocity=0 time=0
EXTRACT: note_on channel=1 note=57 velocity=96 time=0.0020833333333333333
EXTRACT: note_on channel=1 note=81 velocity=96 time=0
EXTRACT: note_on channel=1 note=33 velocity=96 time=0
EXTRACT: note_on channel=1 note=57 velocity=96 time=0
EXTRACT: note_on channel=1 note=57 velocity=0 time=0.4979166666666667
EXTRACT: note_on channel=1 note=81 velocity=0 time=0
EXTRACT: note_on channel=1 note=33 velocity=0 time=0
EXTRACT: note_on channel=1 note=57 velocity=0 time=0
EXTRACT: note_on channel=2 note=69 velocity=0 time=0
EXTRACT: note_on channel=2 note=81 velocity=0 time=0
EXTRACT: note_on channel=2 note=45 velocity=0 time=0
EXTRACT: note_on channel=0 note=81 velocity=96 time=0.0020833333333333333
EXTRACT: note_on channel=1 note=53 velocity=96 time=0
EXTRACT: note_on channel=2 note=77 velocity=126 time=0
EXTRACT: note_on channel=0 note=81 velocity=0 time=0.23541666666666666
EXTRACT: note_on channel=0 note=81 velocity=96 time=0.014583333333333334
EXTRACT: note_on channel=0 note=81 velocity=0 time=0.47291666666666665
EXTRACT: note_on channel=0 note=88 velocity=96 time=0.027083333333333334
EXTRACT: note_on channel=0 note=88 velocity=0 time=0.23541666666666666
EXTRACT: note_on channel=0 note=86 velocity=96 time=0.014583333333333334
EXTRACT: note_on channel=0 note=86 velocity=0 time=0.47291666666666665
EXTRACT: note_on channel=0 note=84 velocity=96 time=0.027083333333333334
EXTRACT: note_on channel=0 note=84 velocity=0 time=0.23541666666666666
EXTRACT: note_on channel=0 note=81 velocity=96 time=0.014583333333333334
EXTRACT: note_on channel=0 note=81 velocity=0 time=0.23541666666666666
EXTRACT: note_on channel=1 note=53 velocity=0 time=0.0125
EXTRACT: note_on channel=2 note=77 velocity=0 time=0
EXTRACT: note_on channel=0 note=86 velocity=96 time=0.0020833333333333333
EXTRACT: note_on channel=1 note=48 velocity=96 time=0
EXTRACT: note_on channel=2 note=72 velocity=126 time=0
EXTRACT: note_on channel=0 note=86 velocity=0 time=0.23541666666666666
EXTRACT: note_on channel=0 note=81 velocity=96 time=0.014583333333333334
EXTRACT: note_on channel=0 note=81 velocity=0 time=0.23541666666666666
EXTRACT: note_on channel=0 note=79 velocity=96 time=0.014583333333333334
EXTRACT: note_on channel=0 note=79 velocity=0 time=0.23541666666666666
EXTRACT: note_on channel=0 note=81 velocity=96 time=0.014583333333333334
EXTRACT: note_on channel=0 note=81 velocity=0 time=0.23541666666666666
EXTRACT: note_on channel=0 note=79 velocity=96 time=0.7645833333333333
EXTRACT: note_on channel=0 note=79 velocity=0 time=0.23541666666666666
EXTRACT: note_on channel=1 note=48 velocity=0 time=0.0125
EXTRACT: note_on channel=2 note=72 velocity=0 time=0
EXTRACT: note_on channel=0 note=81 velocity=96 time=0.0020833333333333333
EXTRACT: note_on channel=1 note=50 velocity=96 time=0
EXTRACT: note_on channel=2 note=74 velocity=126 time=0
EXTRACT: note_on channel=0 note=81 velocity=0 time=0.23541666666666666
EXTRACT: note_on channel=0 note=81 velocity=96 time=0.014583333333333334
EXTRACT: note_on channel=0 note=81 velocity=0 time=0.23541666666666666
EXTRACT: note_on channel=0 note=81 velocity=96 time=0.014583333333333334
EXTRACT: note_on channel=0 note=81 velocity=0 time=0.23541666666666666
EXTRACT: note_on channel=0 note=81 velocity=96 time=0.014583333333333334
EXTRACT: note_on channel=0 note=81 velocity=0 time=0.23541666666666666
EXTRACT: note_on channel=1 note=50 velocity=0 time=0.0125
EXTRACT: note_on channel=2 note=74 velocity=0 time=0
EXTRACT: note_on channel=0 note=84 velocity=96 time=0.0020833333333333333
EXTRACT: note_on channel=1 note=48 velocity=96 time=0
EXTRACT: note_on channel=2 note=72 velocity=126 time=0
EXTRACT: note_on channel=0 note=84 velocity=0 time=0.47291666666666665
EXTRACT: note_on channel=0 note=81 velocity=96 time=0.027083333333333334
EXTRACT: note_on channel=0 note=81 velocity=0 time=0.23541666666666666
EXTRACT: note_on channel=0 note=79 velocity=96 time=0.014583333333333334
EXTRACT: note_on channel=0 note=79 velocity=0 time=0.23541666666666666
EXTRACT: note_on channel=1 note=48 velocity=0 time=0.0125
EXTRACT: note_on channel=2 note=72 velocity=0 time=0
EXTRACT: note_on channel=0 note=81 velocity=96 time=0.0020833333333333333
EXTRACT: note_on channel=0 note=93 velocity=96 time=0
EXTRACT: note_on channel=1 note=53 velocity=96 time=0
EXTRACT: note_on channel=2 note=77 velocity=126 time=0
EXTRACT: note_on channel=0 note=81 velocity=0 time=0.23541666666666666
EXTRACT: note_on channel=0 note=93 velocity=0 time=0
EXTRACT: note_on channel=0 note=91 velocity=96 time=0.014583333333333334
EXTRACT: note_on channel=0 note=91 velocity=0 time=0.23541666666666666
EXTRACT: note_on channel=0 note=89 velocity=96 time=0.014583333333333334
EXTRACT: note_on channel=0 note=89 velocity=0 time=0.23541666666666666
EXTRACT: note_on channel=0 note=88 velocity=96 time=0.014583333333333334
EXTRACT: note_on channel=0 note=88 velocity=0 time=0.23541666666666666
EXTRACT: note_on channel=0 note=86 velocity=96 time=0.014583333333333334
EXTRACT: note_on channel=0 note=86 velocity=0 time=0.47291666666666665
EXTRACT: note_on channel=0 note=81 velocity=96 time=0.027083333333333334
EXTRACT: note_on channel=9 note=52 velocity=126 time=0
EXTRACT: note_on channel=0 note=81 velocity=0 time=0.23541666666666666
EXTRACT: note_on channel=0 note=79 velocity=96 time=0.014583333333333334
EXTRACT: note_on channel=0 note=79 velocity=0 time=0.23541666666666666
EXTRACT: note_on channel=1 note=53 velocity=0 time=0.0125
EXTRACT: note_on channel=2 note=77 velocity=0 time=0
EXTRACT: note_on channel=9 note=52 velocity=0 time=0
EXTRACT: note_on channel=0 note=81 velocity=96 time=0.0020833333333333333
EXTRACT: note_on channel=1 note=77 velocity=96 time=0
EXTRACT: note_on channel=1 note=41 velocity=96 time=0
EXTRACT: note_on channel=2 note=77 velocity=126 time=0
EXTRACT: note_on channel=2 note=41 velocity=126 time=0
EXTRACT: note_on channel=9 note=1 velocity=126 time=0
EXTRACT: note_on channel=9 note=1 velocity=0 time=0.24791666666666667
EXTRACT: note_on channel=9 note=1 velocity=126 time=0.0020833333333333333
EXTRACT: note_on channel=0 note=81 velocity=0 time=0.22291666666666665
EXTRACT: note_on channel=9 note=1 velocity=0 time=0.025
EXTRACT: note_on channel=0 note=81 velocity=96 time=0.0020833333333333333
EXTRACT: note_on channel=9 note=1 velocity=126 time=0
EXTRACT: note_on channel=0 note=81 velocity=0 time=0.23541666666666666
EXTRACT: note_on channel=9 note=1 velocity=0 time=0.0125
EXTRACT: note_on channel=0 note=81 velocity=96 time=0.0020833333333333333
EXTRACT: note_on channel=9 note=1 velocity=126 time=0
EXTRACT: note_on channel=0 note=81 velocity=0 time=0.23541666666666666
EXTRACT: note_on channel=9 note=1 velocity=0 time=0.0125
EXTRACT: note_on channel=0 note=81 velocity=96 time=0.0020833333333333333
EXTRACT: note_on channel=9 note=1 velocity=126 time=0
EXTRACT: note_on channel=9 note=40 velocity=80 time=0
EXTRACT: note_on channel=9 note=40 velocity=80 time=0
EXTRACT: note_on channel=9 note=1 velocity=0 time=0.24791666666666667
EXTRACT: note_on channel=9 note=1 velocity=126 time=0.0020833333333333333
EXTRACT: note_on channel=0 note=81 velocity=0 time=0.22291666666666665
EXTRACT: note_on channel=9 note=1 velocity=0 time=0.025
EXTRACT: note_on channel=0 note=84 velocity=96 time=0.0020833333333333333
EXTRACT: note_on channel=9 note=1 velocity=126 time=0
EXTRACT: note_on channel=9 note=1 velocity=0 time=0.24791666666666667
EXTRACT: note_on channel=9 note=1 velocity=126 time=0.0020833333333333333
EXTRACT: note_on channel=0 note=84 velocity=0 time=0.22291666666666665
EXTRACT: note_on channel=1 note=77 velocity=0 time=0.025
EXTRACT: note_on channel=1 note=41 velocity=0 time=0
EXTRACT: note_on channel=2 note=77 velocity=0 time=0
EXTRACT: note_on channel=2 note=41 velocity=0 time=0
EXTRACT: note_on channel=9 note=1 velocity=0 time=0
EXTRACT: note_on channel=9 note=40 velocity=0 time=0
EXTRACT: note_on channel=9 note=40 velocity=0 time=0
EXTRACT: note_on channel=0 note=86 velocity=96 time=0.0020833333333333333
EXTRACT: note_on channel=1 note=76 velocity=96 time=0
EXTRACT: note_on channel=1 note=40 velocity=96 time=0
EXTRACT: note_on channel=2 note=76 velocity=126 time=0
EXTRACT: note_on channel=2 note=40 velocity=126 time=0
EXTRACT: note_on channel=9 note=1 velocity=126 time=0
EXTRACT: note_on channel=9 note=1 velocity=0 time=0.24791666666666667
EXTRACT: note_on channel=9 note=1 velocity=126 time=0.0020833333333333333
EXTRACT: note_on channel=9 note=40 velocity=80 time=0
EXTRACT: note_on channel=9 note=40 velocity=80 time=0
EXTRACT: note_on channel=9 note=1 velocity=0 time=0.24791666666666667
EXTRACT: note_on channel=9 note=40 velocity=0 time=0
EXTRACT: note_on channel=9 note=40 velocity=0 time=0
EXTRACT: note_on channel=9 note=1 velocity=126 time=0.0020833333333333333
EXTRACT: note_on channel=0 note=86 velocity=0 time=0.21041666666666667
EXTRACT: note_on channel=9 note=1 velocity=0 time=0.0375
EXTRACT: note_on channel=0 note=81 velocity=96 time=0.0020833333333333333
EXTRACT: note_on channel=9 note=1 velocity=126 time=0
EXTRACT: note_on channel=9 note=1 velocity=0 time=0.24791666666666667
EXTRACT: note_on channel=9 note=1 velocity=126 time=0.0020833333333333333
EXTRACT: note_on channel=9 note=40 velocity=80 time=0
EXTRACT: note_on channel=9 note=40 velocity=80 time=0
EXTRACT: note_on channel=0 note=81 velocity=0 time=0.22291666666666665
EXTRACT: note_on channel=9 note=1 velocity=0 time=0.025
EXTRACT: note_on channel=9 note=1 velocity=126 time=0.0020833333333333333
EXTRACT: note_on channel=9 note=1 velocity=0 time=0.24791666666666667
EXTRACT: note_on channel=9 note=1 velocity=126 time=0.0020833333333333333
EXTRACT: note_on channel=9 note=1 velocity=0 time=0.24791666666666667
EXTRACT: note_on channel=9 note=1 velocity=126 time=0.0020833333333333333
EXTRACT: note_on channel=1 note=76 velocity=0 time=0.24791666666666667
EXTRACT: note_on channel=1 note=40 velocity=0 time=0
EXTRACT: note_on channel=2 note=76 velocity=0 time=0
EXTRACT: note_on channel=2 note=40 velocity=0 time=0
EXTRACT: note_on channel=9 note=1 velocity=0 time=0
EXTRACT: note_on channel=9 note=40 velocity=0 time=0
EXTRACT: note_on channel=9 note=40 velocity=0 time=0
EXTRACT: note_on channel=0 note=81 velocity=96 time=0.0020833333333333333
EXTRACT: note_on channel=1 note=81 velocity=96 time=0
EXTRACT: note_on channel=1 note=33 velocity=96 time=0
EXTRACT: note_on channel=2 note=81 velocity=126 time=0
EXTRACT: note_on channel=2 note=45 velocity=126 time=0
EXTRACT: note_on channel=9 note=1 velocity=126 time=0
EXTRACT: note_on channel=0 note=81 velocity=0 time=0.23541666666666666
EXTRACT: note_on channel=9 note=1 velocity=0 time=0.0125
EXTRACT: note_on channel=0 note=81 velocity=96 time=0.0020833333333333333
EXTRACT: note_on channel=9 note=1 velocity=126 time=0
EXTRACT: note_on channel=0 note=81 velocity=0 time=0.23541666666666666
EXTRACT: note_on channel=9 note=1 velocity=0 time=0.0125
EXTRACT: note_on channel=0 note=81 velocity=96 time=0.0020833333333333333
EXTRACT: note_on channel=9 note=1 velocity=126 time=0
EXTRACT: note_on channel=9 note=1 velocity=0 time=0.24791666666666667
EXTRACT: note_on channel=9 note=1 velocity=126 time=0.0020833333333333333
EXTRACT: note_on channel=0 note=81 velocity=0 time=0.22291666666666665
EXTRACT: note_on channel=9 note=1 velocity=0 time=0.025
EXTRACT: note_on channel=0 note=84 velocity=96 time=0.0020833333333333333
EXTRACT: note_on channel=9 note=1 velocity=126 time=0
EXTRACT: note_on channel=9 note=40 velocity=80 time=0
EXTRACT: note_on channel=9 note=40 velocity=80 time=0
EXTRACT: note_on channel=9 note=1 velocity=0 time=0.24791666666666667
EXTRACT: note_on channel=9 note=1 velocity=126 time=0.0020833333333333333
EXTRACT: note_on channel=0 note=84 velocity=0 time=0.22291666666666665
EXTRACT: note_on channel=9 note=1 velocity=0 time=0.025
EXTRACT: note_on channel=0 note=86 velocity=96 time=0.0020833333333333333
EXTRACT: note_on channel=9 note=1 velocity=126 time=0
EXTRACT: note_on channel=9 note=1 velocity=0 time=0.24791666666666667
EXTRACT: note_on channel=9 note=1 velocity=126 time=0.0020833333333333333
EXTRACT: note_on channel=0 note=86 velocity=0 time=0.22291666666666665
EXTRACT: note_on channel=1 note=81 velocity=0 time=0.025
EXTRACT: note_on channel=1 note=33 velocity=0 time=0
EXTRACT: note_on channel=9 note=1 velocity=0 time=0
EXTRACT: note_on channel=9 note=40 velocity=0 time=0
EXTRACT: note_on channel=9 note=40 velocity=0 time=0
EXTRACT: note_on channel=0 note=81 velocity=96 time=0.0020833333333333333
EXTRACT: note_on channel=9 note=1 velocity=126 time=0
EXTRACT: note_on channel=9 note=1 velocity=0 time=0.24791666666666667
EXTRACT: note_on channel=9 note=1 velocity=126 time=0.0020833333333333333
EXTRACT: note_on channel=9 note=40 velocity=80 time=0
EXTRACT: note_on channel=9 note=40 velocity=80 time=0
EXTRACT: note_on channel=0 note=81 velocity=0 time=0.22291666666666665
EXTRACT: note_on channel=9 note=1 velocity=0 time=0.025
EXTRACT: note_on channel=9 note=40 velocity=0 time=0
EXTRACT: note_on channel=9 note=40 velocity=0 time=0
EXTRACT: note_on channel=9 note=1 velocity=126 time=0.0020833333333333333
EXTRACT: note_on channel=9 note=1 velocity=0 time=0.24791666666666667
EXTRACT: note_on channel=9 note=1 velocity=126 time=0.0020833333333333333
EXTRACT: note_on channel=9 note=1 velocity=0 time=0.24791666666666667
EXTRACT: note_on channel=1 note=82 velocity=96 time=0.0020833333333333333
EXTRACT: note_on channel=1 note=58 velocity=96 time=0
EXTRACT: note_on channel=9 note=1 velocity=126 time=0
EXTRACT: note_on channel=9 note=40 velocity=80 time=0
EXTRACT: note_on channel=9 note=40 velocity=80 time=0
EXTRACT: note_on channel=1 note=82 velocity=0 time=0.12291666666666666
EXTRACT: note_on channel=1 note=58 velocity=0 time=0
EXTRACT: note_on channel=1 note=82 velocity=96 time=0.0020833333333333333
EXTRACT: note_on channel=1 note=58 velocity=96 time=0
EXTRACT: note_on channel=9 note=1 velocity=0 time=0.12291666666666666
EXTRACT: note_on channel=9 note=1 velocity=126 time=0.0020833333333333333
EXTRACT: note_on channel=1 note=82 velocity=0 time=0.24791666666666667
EXTRACT: note_on channel=1 note=58 velocity=0 time=0
EXTRACT: note_on channel=9 note=1 velocity=0 time=0
EXTRACT: note_on channel=1 note=70 velocity=96 time=0.0020833333333333333
EXTRACT: note_on channel=1 note=46 velocity=96 time=0
EXTRACT: note_on channel=9 note=1 velocity=126 time=0
EXTRACT: note_on channel=9 note=1 velocity=0 time=0.24791666666666667
EXTRACT: note_on channel=9 note=1 velocity=126 time=0.0020833333333333333
EXTRACT: note_on channel=1 note=70 velocity=0 time=0.24791666666666667
EXTRACT: note_on channel=1 note=46 velocity=0 time=0
EXTRACT: note_on channel=2 note=81 velocity=0 time=0
EXTRACT: note_on channel=2 note=45 velocity=0 time=0
EXTRACT: note_on channel=9 note=1 velocity=0 time=0
EXTRACT: note_on channel=9 note=40 velocity=0 time=0
EXTRACT: note_on channel=9 note=40 velocity=0 time=0
EXTRACT: note_on channel=0 note=81 velocity=96 time=0.0020833333333333333
EXTRACT: note_on channel=1 note=53 velocity=96 time=0
EXTRACT: note_on channel=2 note=77 velocity=126 time=0
EXTRACT: note_on channel=2 note=41 velocity=126 time=0
EXTRACT: note_on channel=9 note=1 velocity=126 time=0
EXTRACT: note_on channel=0 note=81 velocity=0 time=0.23541666666666666
EXTRACT: note_on channel=1 note=53 velocity=0 time=0.0125
EXTRACT: note_on channel=9 note=1 velocity=0 time=0
EXTRACT: note_on channel=0 note=81 velocity=96 time=0.0020833333333333333
EXTRACT: note_on channel=1 note=53 velocity=96 time=0
EXTRACT: note_on channel=9 note=1 velocity=126 time=0
EXTRACT: note_on channel=1 note=53 velocity=0 time=0.24791666666666667
EXTRACT: note_on channel=9 note=1 velocity=0 time=0
EXTRACT: note_on channel=1 note=53 velocity=96 time=0.0020833333333333333
EXTRACT: note_on channel=9 note=1 velocity=126 time=0
EXTRACT: note_on channel=0 note=81 velocity=0 time=0.22291666666666665
EXTRACT: note_on channel=1 note=53 velocity=0 time=0.025
EXTRACT: note_on channel=9 note=1 velocity=0 time=0
EXTRACT: note_on channel=0 note=88 velocity=96 time=0.0020833333333333333
EXTRACT: note_on channel=1 note=53 velocity=96 time=0
EXTRACT: note_on channel=9 note=1 velocity=126 time=0
EXTRACT: note_on channel=0 note=88 velocity=0 time=0.23541666666666666
EXTRACT: note_on channel=1 note=53 velocity=0 time=0.0125
EXTRACT: note_on channel=9 note=1 velocity=0 time=0
EXTRACT: note_on channel=0 note=86 velocity=96 time=0.0020833333333333333
EXTRACT: note_on channel=1 note=53 velocity=96 time=0
EXTRACT: note_on channel=9 note=1 velocity=126 time=0
EXTRACT: note_on channel=9 note=40 velocity=80 time=0
EXTRACT: note_on channel=9 note=40 velocity=80 time=0
EXTRACT: note_on channel=1 note=53 velocity=0 time=0.24791666666666667
EXTRACT: note_on channel=9 note=1 velocity=0 time=0
EXTRACT: note_on channel=1 note=53 velocity=96 time=0.0020833333333333333
EXTRACT: note_on channel=9 note=1 velocity=126 time=0
EXTRACT: note_on channel=0 note=86 velocity=0 time=0.22291666666666665
EXTRACT: note_on channel=1 note=53 velocity=0 time=0.025
EXTRACT: note_on channel=9 note=1 velocity=0 time=0
EXTRACT: note_on channel=0 note=84 velocity=96 time=0.0020833333333333333
EXTRACT: note_on channel=1 note=53 velocity=96 time=0
EXTRACT: note_on channel=9 note=1 velocity=126 time=0
EXTRACT: note_on channel=0 note=84 velocity=0 time=0.23541666666666666
EXTRACT: note_on channel=1 note=53 velocity=0 time=0.0125
EXTRACT: note_on channel=9 note=1 velocity=0 time=0
EXTRACT: note_on channel=0 note=81 velocity=96 time=0.0020833333333333333
EXTRACT: note_on channel=1 note=53 velocity=96 time=0
EXTRACT: note_on channel=9 note=1 velocity=126 time=0
EXTRACT: note_on channel=0 note=81 velocity=0 time=0.23541666666666666
EXTRACT: note_on channel=1 note=53 velocity=0 time=0.0125
EXTRACT: note_on channel=2 note=77 velocity=0 time=0
EXTRACT: note_on channel=2 note=41 velocity=0 time=0
EXTRACT: note_on channel=9 note=1 velocity=0 time=0
EXTRACT: note_on channel=9 note=40 velocity=0 time=0
EXTRACT: note_on channel=9 note=40 velocity=0 time=0
EXTRACT: note_on channel=0 note=86 velocity=96 time=0.0020833333333333333
EXTRACT: note_on channel=1 note=48 velocity=96 time=0
EXTRACT: note_on channel=2 note=72 velocity=126 time=0
EXTRACT: note_on channel=2 note=48 velocity=126 time=0
EXTRACT: note_on channel=9 note=1 velocity=126 time=0
EXTRACT: note_on channel=0 note=86 velocity=0 time=0.23541666666666666
EXTRACT: note_on channel=1 note=48 velocity=0 time=0.0125
EXTRACT: note_on channel=9 note=1 velocity=0 time=0
EXTRACT: note_on channel=0 note=81 velocity=96 time=0.0020833333333333333
EXTRACT: note_on channel=1 note=48 velocity=96 time=0
EXTRACT: note_on channel=9 note=1 velocity=126 time=0
EXTRACT: note_on channel=9 note=40 velocity=80 time=0
EXTRACT: note_on channel=9 note=40 velocity=80 time=0
EXTRACT: note_on channel=0 note=81 velocity=0 time=0.23541666666666666
EXTRACT: note_on channel=1 note=48 velocity=0 time=0.0125
EXTRACT: note_on channel=9 note=1 velocity=0 time=0
EXTRACT: note_on channel=9 note=40 velocity=0 time=0
EXTRACT: note_on channel=9 note=40 velocity=0 time=0
EXTRACT: note_on channel=0 note=79 velocity=96 time=0.0020833333333333333
EXTRACT: note_on channel=1 note=48 velocity=96 time=0
EXTRACT: note_on channel=9 note=1 velocity=126 time=0
EXTRACT: note_on channel=0 note=79 velocity=0 time=0.23541666666666666
EXTRACT: note_on channel=1 note=48 velocity=0 time=0.0125
EXTRACT: note_on channel=9 note=1 velocity=0 time=0
EXTRACT: note_on channel=0 note=81 velocity=96 time=0.0020833333333333333
EXTRACT: note_on channel=1 note=48 velocity=96 time=0
EXTRACT: note_on channel=9 note=1 velocity=126 time=0
EXTRACT: note_on channel=0 note=81 velocity=0 time=0.23541666666666666
EXTRACT: note_on channel=1 note=48 velocity=0 time=0.0125
EXTRACT: note_on channel=9 note=1 velocity=0 time=0
EXTRACT: note_on channel=1 note=48 velocity=96 time=0.0020833333333333333
EXTRACT: note_on channel=9 note=1 velocity=126 time=0
EXTRACT: note_on channel=9 note=40 velocity=80 time=0
EXTRACT: note_on channel=9 note=40 velocity=80 time=0
EXTRACT: note_on channel=1 note=48 velocity=0 time=0.24791666666666667
EXTRACT: note_on channel=9 note=1 velocity=0 time=0
EXTRACT: note_on channel=1 note=48 velocity=96 time=0.0020833333333333333
EXTRACT: note_on channel=9 note=1 velocity=126 time=0
EXTRACT: note_on channel=1 note=48 velocity=0 time=0.24791666666666667
EXTRACT: note_on channel=9 note=1 velocity=0 time=0
EXTRACT: note_on channel=1 note=48 velocity=96 time=0.0020833333333333333
EXTRACT: note_on channel=9 note=1 velocity=126 time=0
EXTRACT: note_on channel=1 note=48 velocity=0 time=0.24791666666666667
EXTRACT: note_on channel=9 note=1 velocity=0 time=0
EXTRACT: note_on channel=0 note=79 velocity=96 time=0.0020833333333333333
EXTRACT: note_on channel=1 note=48 velocity=96 time=0
EXTRACT: note_on channel=9 note=1 velocity=126 time=0
EXTRACT: note_on channel=0 note=79 velocity=0 time=0.23541666666666666
EXTRACT: note_on channel=1 note=48 velocity=0 time=0.0125
EXTRACT: note_on channel=2 note=72 velocity=0 time=0
EXTRACT: note_on channel=2 note=48 velocity=0 time=0
EXTRACT: note_on channel=9 note=1 velocity=0 time=0
EXTRACT: note_on channel=9 note=40 velocity=0 time=0
EXTRACT: note_on channel=9 note=40 velocity=0 time=0
EXTRACT: note_on channel=0 note=81 velocity=96 time=0.0020833333333333333
EXTRACT: note_on channel=1 note=74 velocity=96 time=0
EXTRACT: note_on channel=2 note=74 velocity=126 time=0
EXTRACT: note_on channel=2 note=50 velocity=126 time=0
EXTRACT: note_on channel=9 note=1 velocity=126 time=0
EXTRACT: note_on channel=0 note=81 velocity=0 time=0.23541666666666666
EXTRACT: note_on channel=1 note=74 velocity=0 time=0.0125
EXTRACT: note_on channel=9 note=1 velocity=0 time=0
EXTRACT: note_on channel=0 note=81 velocity=96 time=0.0020833333333333333
EXTRACT: note_on channel=1 note=74 velocity=96 time=0
EXTRACT: note_on channel=9 note=1 velocity=126 time=0
EXTRACT: note_on channel=0 note=81 velocity=0 time=0.23541666666666666
EXTRACT: note_on channel=1 note=74 velocity=0 time=0.0125
EXTRACT: note_on channel=9 note=1 velocity=0 time=0
EXTRACT: note_on channel=0 note=81 velocity=96 time=0.0020833333333333333
EXTRACT: note_on channel=1 note=74 velocity=96 time=0
EXTRACT: note_on channel=9 note=1 velocity=126 time=0
EXTRACT: note_on channel=0 note=81 velocity=0 time=0.23541666666666666
EXTRACT: note_on channel=1 note=74 velocity=0 time=0.0125
EXTRACT: note_on channel=9 note=1 velocity=0 time=0
EXTRACT: note_on channel=0 note=81 velocity=96 time=0.0020833333333333333
EXTRACT: note_on channel=1 note=74 velocity=96 time=0
EXTRACT: note_on channel=9 note=1 velocity=126 time=0
EXTRACT: note_on channel=0 note=81 velocity=0 time=0.23541666666666666
EXTRACT: note_on channel=1 note=74 velocity=0 time=0.0125
EXTRACT: note_on channel=2 note=74 velocity=0 time=0
EXTRACT: note_on channel=2 note=50 velocity=0 time=0
EXTRACT: note_on channel=9 note=1 velocity=0 time=0
EXTRACT: note_on channel=0 note=84 velocity=96 time=0.0020833333333333333
EXTRACT: note_on channel=1 note=72 velocity=96 time=0
EXTRACT: note_on channel=2 note=72 velocity=126 time=0
EXTRACT: note_on channel=2 note=48 velocity=126 time=0
EXTRACT: note_on channel=9 note=1 velocity=126 time=0
EXTRACT: note_on channel=9 note=40 velocity=80 time=0
EXTRACT: note_on channel=9 note=40 velocity=80 time=0
EXTRACT: note_on channel=1 note=72 velocity=0 time=0.24791666666666667
EXTRACT: note_on channel=9 note=1 velocity=0 time=0
EXTRACT: note_on channel=1 note=72 velocity=96 time=0.0020833333333333333
EXTRACT: note_on channel=9 note=1 velocity=126 time=0
EXTRACT: note_on channel=0 note=84 velocity=0 time=0.22291666666666665
EXTRACT: note_on channel=1 note=72 velocity=0 time=0.025
EXTRACT: note_on channel=9 note=1 velocity=0 time=0
EXTRACT: note_on channel=0 note=81 velocity=96 time=0.0020833333333333333
EXTRACT: note_on channel=1 note=72 velocity=96 time=0
EXTRACT: note_on channel=9 note=1 velocity=126 time=0
EXTRACT: note_on channel=0 note=81 velocity=0 time=0.23541666666666666
EXTRACT: note_on channel=1 note=72 velocity=0 time=0.0125
EXTRACT: note_on channel=9 note=1 velocity=0 time=0
EXTRACT: note_on channel=0 note=79 velocity=96 time=0.0020833333333333333
EXTRACT: note_on channel=1 note=72 velocity=96 time=0
EXTRACT: note_on channel=9 note=1 velocity=126 time=0
EXTRACT: note_on channel=0 note=79 velocity=0 time=0.23541666666666666
EXTRACT: note_on channel=1 note=72 velocity=0 time=0.0125
EXTRACT: note_on channel=2 note=72 velocity=0 time=0
EXTRACT: note_on channel=2 note=48 velocity=0 time=0
EXTRACT: note_on channel=9 note=1 velocity=0 time=0
EXTRACT: note_on channel=9 note=40 velocity=0 time=0
EXTRACT: note_on channel=9 note=40 velocity=0 time=0
EXTRACT: note_on channel=0 note=81 velocity=96 time=0.0020833333333333333
EXTRACT: note_on channel=0 note=93 velocity=96 time=0
EXTRACT: note_on channel=1 note=77 velocity=96 time=0
EXTRACT: note_on channel=2 note=77 velocity=126 time=0
EXTRACT: note_on channel=2 note=53 velocity=126 time=0
EXTRACT: note_on channel=3 note=93 velocity=80 time=0
EXTRACT: note_on channel=9 note=1 velocity=126 time=0
EXTRACT: note_on channel=0 note=81 velocity=0 time=0.23541666666666666
EXTRACT: note_on channel=0 note=93 velocity=0 time=0
EXTRACT: note_on channel=1 note=77 velocity=0 time=0.0125
EXTRACT: note_on channel=9 note=1 velocity=0 time=0
EXTRACT: note_on channel=0 note=91 velocity=96 time=0.0020833333333333333
EXTRACT: note_on channel=1 note=77 velocity=96 time=0
EXTRACT: note_on channel=9 note=1 velocity=126 time=0
EXTRACT: note_on channel=9 note=40 velocity=80 time=0
EXTRACT: note_on channel=9 note=40 velocity=80 time=0
EXTRACT: note_on channel=0 note=91 velocity=0 time=0.23541666666666666
EXTRACT: note_on channel=1 note=77 velocity=0 time=0.0125
EXTRACT: note_on channel=9 note=1 velocity=0 time=0
EXTRACT: note_on channel=9 note=40 velocity=0 time=0
EXTRACT: note_on channel=9 note=40 velocity=0 time=0
EXTRACT: note_on channel=0 note=89 velocity=96 time=0.0020833333333333333
EXTRACT: note_on channel=1 note=77 velocity=96 time=0
EXTRACT: note_on channel=9 note=1 velocity=126 time=0
EXTRACT: note_on channel=0 note=89 velocity=0 time=0.23541666666666666
EXTRACT: note_on channel=1 note=77 velocity=0 time=0.0125
EXTRACT: note_on channel=9 note=1 velocity=0 time=0
EXTRACT: note_on channel=0 note=88 velocity=96 time=0.0020833333333333333
EXTRACT: note_on channel=1 note=77 velocity=96 time=0
EXTRACT: note_on channel=9 note=1 velocity=126 time=0
EXTRACT: note_on channel=0 note=88 velocity=0 time=0.23541666666666666
EXTRACT: note_on channel=1 note=77 velocity=0 time=0.0125
EXTRACT: note_on channel=9 note=1 velocity=0 time=0
EXTRACT: note_on channel=0 note=86 velocity=96 time=0.0020833333333333333
EXTRACT: note_on channel=1 note=77 velocity=96 time=0
EXTRACT: note_on channel=9 note=1 velocity=126 time=0
EXTRACT: note_on channel=9 note=40 velocity=80 time=0
EXTRACT: note_on channel=9 note=40 velocity=80 time=0
EXTRACT: note_on channel=1 note=77 velocity=0 time=0.24791666666666667
EXTRACT: note_on channel=9 note=1 velocity=0 time=0
EXTRACT: note_on channel=1 note=77 velocity=96 time=0.0020833333333333333
EXTRACT: note_on channel=9 note=1 velocity=126 time=0
EXTRACT: note_on channel=0 note=86 velocity=0 time=0.22291666666666665
EXTRACT: note_on channel=1 note=77 velocity=0 time=0.025
EXTRACT: note_on channel=9 note=1 velocity=0 time=0
EXTRACT: note_on channel=0 note=86 velocity=96 time=0.0020833333333333333
EXTRACT: note_on channel=1 note=77 velocity=96 time=0
EXTRACT: note_on channel=9 note=1 velocity=126 time=0
EXTRACT: note_on channel=1 note=77 velocity=0 time=0.24791666666666667
EXTRACT: note_on channel=9 note=1 velocity=0 time=0
EXTRACT: note_on channel=1 note=77 velocity=96 time=0.0020833333333333333
EXTRACT: note_on channel=9 note=1 velocity=126 time=0
EXTRACT: note_on channel=0 note=86 velocity=0 time=0.22291666666666665
EXTRACT: note_on channel=1 note=77 velocity=0 time=0.025
EXTRACT: note_on channel=2 note=77 velocity=0 time=0
EXTRACT: note_on channel=2 note=53 velocity=0 time=0
EXTRACT: note_on channel=3 note=93 velocity=0 time=0
EXTRACT: note_on channel=9 note=1 velocity=0 time=0
EXTRACT: note_on channel=9 note=40 velocity=0 time=0
EXTRACT: note_on channel=9 note=40 velocity=0 time=0
EXTRACT: note_on channel=0 note=88 velocity=80 time=0.0020833333333333333
EXTRACT: note_on channel=0 note=57 velocity=80 time=0
EXTRACT: note_on channel=2 note=81 velocity=126 time=0
EXTRACT: note_on channel=2 note=45 velocity=126 time=0
EXTRACT: note_on channel=3 note=81 velocity=49 time=0
EXTRACT: note_on channel=3 note=93 velocity=49 time=0
EXTRACT: note_on channel=9 note=38 velocity=80 time=0
EXTRACT: note_on channel=9 note=48 velocity=96 time=0
EXTRACT: note_on channel=0 note=88 velocity=0 time=0.23541666666666666
EXTRACT: note_on channel=0 note=86 velocity=80 time=0.014583333333333334
EXTRACT: note_on channel=0 note=86 velocity=0 time=0.23541666666666666
EXTRACT: note_on channel=0 note=84 velocity=80 time=0.014583333333333334
EXTRACT: note_on channel=9 note=38 velocity=0 time=0.4979166666666667
EXTRACT: note_on channel=9 note=48 velocity=0 time=0
EXTRACT: note_on channel=9 note=40 velocity=96 time=0.0020833333333333333
EXTRACT: note_on channel=9 note=60 velocity=126 time=0
EXTRACT: note_on channel=9 note=50 velocity=80 time=0
EXTRACT: note_on channel=9 note=38 velocity=80 time=0
EXTRACT: note_on channel=9 note=72 velocity=96 time=0
EXTRACT: note_on channel=0 note=84 velocity=0 time=0.4479166666666667
EXTRACT: note_on channel=0 note=86 velocity=80 time=0.052083333333333336
EXTRACT: note_on channel=0 note=57 velocity=0 time=0.39791666666666664
EXTRACT: note_on channel=0 note=86 velocity=0 time=0.075
EXTRACT: note_on channel=2 note=81 velocity=0 time=0.025
EXTRACT: note_on channel=2 note=45 velocity=0 time=0
EXTRACT: note_on channel=3 note=81 velocity=0 time=0
EXTRACT: note_on channel=3 note=93 velocity=0 time=0
EXTRACT: note_on channel=9 note=40 velocity=0 time=0
EXTRACT: note_on channel=9 note=60 velocity=0 time=0
EXTRACT: note_on channel=9 note=50 velocity=0 time=0
EXTRACT: note_on channel=9 note=38 velocity=0 time=0
EXTRACT: note_on channel=9 note=72 velocity=0 time=0
EXTRACT: note_on channel=0 note=88 velocity=80 time=0.0020833333333333333
EXTRACT: note_on channel=0 note=52 velocity=80 time=0
EXTRACT: note_on channel=2 note=76 velocity=126 time=0
EXTRACT: note_on channel=2 note=40 velocity=126 time=0
EXTRACT: note_on channel=3 note=76 velocity=49 time=0
EXTRACT: note_on channel=3 note=88 velocity=49 time=0
EXTRACT: note_on channel=0 note=88 velocity=0 time=0.23541666666666666
EXTRACT: note_on channel=0 note=86 velocity=80 time=0.014583333333333334
EXTRACT: note_on channel=9 note=38 velocity=80 time=0.25
EXTRACT: note_on channel=9 note=48 velocity=96 time=0
EXTRACT: note_on channel=9 note=38 velocity=0 time=0.4979166666666667
EXTRACT: note_on channel=9 note=48 velocity=0 time=0
EXTRACT: note_on channel=9 note=40 velocity=96 time=0.0020833333333333333
EXTRACT: note_on channel=9 note=60 velocity=126 time=0
EXTRACT: note_on channel=9 note=50 velocity=80 time=0
EXTRACT: note_on channel=9 note=38 velocity=80 time=0
EXTRACT: note_on channel=9 note=72 velocity=96 time=0
EXTRACT: note_on channel=0 note=86 velocity=0 time=0.19791666666666666
EXTRACT: note_on channel=0 note=86 velocity=80 time=0.3020833333333333
EXTRACT: note_on channel=0 note=52 velocity=0 time=0.39791666666666664
EXTRACT: note_on channel=0 note=86 velocity=0 time=0.075
EXTRACT: note_on channel=2 note=76 velocity=0 time=0.025
EXTRACT: note_on channel=2 note=40 velocity=0 time=0
EXTRACT: note_on channel=3 note=76 velocity=0 time=0
EXTRACT: note_on channel=3 note=88 velocity=0 time=0
EXTRACT: note_on channel=9 note=40 velocity=0 time=0
EXTRACT: note_on channel=9 note=60 velocity=0 time=0
EXTRACT: note_on channel=9 note=50 velocity=0 time=0
EXTRACT: note_on channel=9 note=38 velocity=0 time=0
EXTRACT: note_on channel=9 note=72 velocity=0 time=0
EXTRACT: note_on channel=0 note=88 velocity=80 time=0.0020833333333333333
EXTRACT: note_on channel=0 note=48 velocity=80 time=0
EXTRACT: note_on channel=2 note=72 velocity=126 time=0
EXTRACT: note_on channel=2 note=48 velocity=126 time=0
EXTRACT: note_on channel=3 note=72 velocity=49 time=0
EXTRACT: note_on channel=3 note=84 velocity=49 time=0
EXTRACT: note_on channel=9 note=38 velocity=80 time=0
EXTRACT: note_on channel=9 note=48 velocity=96 time=0
EXTRACT: note_on channel=0 note=88 velocity=0 time=0.23541666666666666
EXTRACT: note_on channel=0 note=86 velocity=80 time=0.014583333333333334
EXTRACT: note_on channel=0 note=86 velocity=0 time=0.23541666666666666
EXTRACT: note_on channel=0 note=84 velocity=80 time=0.014583333333333334
EXTRACT: note_on channel=9 note=38 velocity=0 time=0.4979166666666667
EXTRACT: note_on channel=9 note=48 velocity=0 time=0
EXTRACT: note_on channel=9 note=40 velocity=96 time=0.0020833333333333333
EXTRACT: note_on channel=9 note=60 velocity=126 time=0
EXTRACT: note_on channel=9 note=50 velocity=80 time=0
EXTRACT: note_on channel=9 note=38 velocity=80 time=0
EXTRACT: note_on channel=9 note=72 velocity=96 time=0
EXTRACT: note_on channel=0 note=84 velocity=0 time=0.4479166666666667
EXTRACT: note_on channel=0 note=86 velocity=80 time=0.052083333333333336
EXTRACT: note_on channel=0 note=48 velocity=0 time=0.39791666666666664
EXTRACT: note_on channel=0 note=86 velocity=0 time=0.075
EXTRACT: note_on channel=2 note=72 velocity=0 time=0.025
EXTRACT: note_on channel=2 note=48 velocity=0 time=0
EXTRACT: note_on channel=3 note=72 velocity=0 time=0
EXTRACT: note_on channel=3 note=84 velocity=0 time=0
EXTRACT: note_on channel=9 note=40 velocity=0 time=0
EXTRACT: note_on channel=9 note=60 velocity=0 time=0
EXTRACT: note_on channel=9 note=50 velocity=0 time=0
EXTRACT: note_on channel=9 note=38 velocity=0 time=0
EXTRACT: note_on channel=9 note=72 velocity=0 time=0
EXTRACT: note_on channel=0 note=88 velocity=80 time=0.0020833333333333333
EXTRACT: note_on channel=0 note=50 velocity=80 time=0
EXTRACT: note_on channel=2 note=74 velocity=126 time=0
EXTRACT: note_on channel=2 note=50 velocity=126 time=0
EXTRACT: note_on channel=3 note=69 velocity=49 time=0
EXTRACT: note_on channel=3 note=81 velocity=49 time=0
EXTRACT: note_on channel=0 note=88 velocity=0 time=0.23541666666666666
EXTRACT: note_on channel=0 note=86 velocity=80 time=0.014583333333333334
EXTRACT: note_on channel=9 note=38 velocity=80 time=0.25
EXTRACT: note_on channel=9 note=48 velocity=96 time=0
EXTRACT: note_on channel=9 note=38 velocity=0 time=0.4979166666666667
EXTRACT: note_on channel=9 note=48 velocity=0 time=0
EXTRACT: note_on channel=1 note=81 velocity=96 time=0.0020833333333333333
EXTRACT: note_on channel=1 note=57 velocity=96 time=0
EXTRACT: note_on channel=9 note=40 velocity=96 time=0
EXTRACT: note_on channel=9 note=60 velocity=126 time=0
EXTRACT: note_on channel=9 note=50 velocity=80 time=0
EXTRACT: note_on channel=9 note=38 velocity=80 time=0
EXTRACT: note_on channel=9 note=72 velocity=96 time=0
EXTRACT: note_on channel=0 note=86 velocity=0 time=0.19791666666666666
EXTRACT: note_on channel=1 note=81 velocity=0 time=0.05
EXTRACT: note_on channel=1 note=57 velocity=0 time=0
EXTRACT: note_on channel=1 note=81 velocity=96 time=0.0020833333333333333
EXTRACT: note_on channel=1 note=57 velocity=96 time=0
EXTRACT: note_on channel=1 note=81 velocity=0 time=0.24791666666666667
EXTRACT: note_on channel=1 note=57 velocity=0 time=0
EXTRACT: note_on channel=0 note=69 velocity=80 time=0.0020833333333333333
EXTRACT: note_on channel=0 note=81 velocity=80 time=0
EXTRACT: note_on channel=1 note=69 velocity=96 time=0
EXTRACT: note_on channel=1 note=45 velocity=96 time=0
EXTRACT: note_on channel=0 note=50 velocity=0 time=0.39791666666666664
EXTRACT: note_on channel=0 note=69 velocity=0 time=0.075
EXTRACT: note_on channel=0 note=81 velocity=0 time=0
EXTRACT: note_on channel=1 note=69 velocity=0 time=0.025
EXTRACT: note_on channel=1 note=45 velocity=0 time=0
EXTRACT: note_on channel=2 note=74 velocity=0 time=0
EXTRACT: note_on channel=2 note=50 velocity=0 time=0
EXTRACT: note_on channel=3 note=69 velocity=0 time=0
EXTRACT: note_on channel=3 note=81 velocity=0 time=0
EXTRACT: note_on channel=9 note=40 velocity=0 time=0
EXTRACT: note_on channel=9 note=60 velocity=0 time=0
EXTRACT: note_on channel=9 note=50 velocity=0 time=0
EXTRACT: note_on channel=9 note=38 velocity=0 time=0
EXTRACT: note_on channel=9 note=72 velocity=0 time=0
EXTRACT: note_on channel=0 note=69 velocity=96 time=0.0020833333333333333
EXTRACT: note_on channel=0 note=81 velocity=96 time=0
EXTRACT: note_on channel=0 note=41 velocity=96 time=0
EXTRACT: note_on channel=1 note=77 velocity=96 time=0
EXTRACT: note_on channel=1 note=53 velocity=96 time=0
EXTRACT: note_on channel=2 note=81 velocity=126 time=0
EXTRACT: note_on channel=2 note=45 velocity=126 time=0
EXTRACT: note_on channel=3 note=81 velocity=49 time=0
EXTRACT: note_on channel=3 note=93 velocity=49 time=0
EXTRACT: note_on channel=9 note=38 velocity=80 time=0
EXTRACT: note_on channel=9 note=48 velocity=96 time=0
EXTRACT: note_on channel=0 note=69 velocity=0 time=0.23541666666666666
EXTRACT: note_on channel=0 note=81 velocity=0 time=0
EXTRACT: note_on channel=1 note=77 velocity=0 time=0.0125
EXTRACT: note_on channel=1 note=53 velocity=0 time=0
EXTRACT: note_on channel=0 note=69 velocity=96 time=0.0020833333333333333
EXTRACT: note_on channel=0 note=81 velocity=96 time=0
EXTRACT: note_on channel=1 note=77 velocity=96 time=0
EXTRACT: note_on channel=1 note=53 velocity=96 time=0
EXTRACT: note_on channel=1 note=77 velocity=0 time=0.24791666666666667
EXTRACT: note_on channel=1 note=53 velocity=0 time=0
EXTRACT: note_on channel=1 note=77 velocity=96 time=0.0020833333333333333
EXTRACT: note_on channel=1 note=53 velocity=96 time=0
EXTRACT: note_on channel=0 note=69 velocity=0 time=0.22291666666666665
EXTRACT: note_on channel=0 note=81 velocity=0 time=0
EXTRACT: note_on channel=1 note=77 velocity=0 time=0.025
EXTRACT: note_on channel=1 note=53 velocity=0 time=0
EXTRACT: note_on channel=0 note=76 velocity=96 time=0.0020833333333333333
EXTRACT: note_on channel=0 note=88 velocity=96 time=0
EXTRACT: note_on channel=1 note=77 velocity=96 time=0
EXTRACT: note_on channel=1 note=53 velocity=96 time=0
EXTRACT: note_on channel=0 note=76 velocity=0 time=0.23541666666666666
EXTRACT: note_on channel=0 note=88 velocity=0 time=0
EXTRACT: note_on channel=1 note=77 velocity=0 time=0.0125
EXTRACT: note_on channel=1 note=53 velocity=0 time=0
EXTRACT: note_on channel=9 note=38 velocity=0 time=0
EXTRACT: note_on channel=9 note=48 velocity=0 time=0
EXTRACT: note_on channel=0 note=74 velocity=96 time=0.0020833333333333333
EXTRACT: note_on channel=0 note=86 velocity=96 time=0
EXTRACT: note_on channel=1 note=77 velocity=96 time=0
EXTRACT: note_on channel=1 note=53 velocity=96 time=0
EXTRACT: note_on channel=9 note=40 velocity=96 time=0
EXTRACT: note_on channel=9 note=60 velocity=126 time=0
EXTRACT: note_on channel=9 note=50 velocity=80 time=0
EXTRACT: note_on channel=9 note=38 velocity=80 time=0
EXTRACT: note_on channel=9 note=72 velocity=124 time=0
EXTRACT: note_on channel=1 note=77 velocity=0 time=0.24791666666666667
EXTRACT: note_on channel=1 note=53 velocity=0 time=0
EXTRACT: note_on channel=1 note=77 velocity=96 time=0.0020833333333333333
EXTRACT: note_on channel=1 note=53 velocity=96 time=0
EXTRACT: note_on channel=0 note=74 velocity=0 time=0.22291666666666665
EXTRACT: note_on channel=0 note=86 velocity=0 time=0
EXTRACT: note_on channel=1 note=77 velocity=0 time=0.025
EXTRACT: note_on channel=1 note=53 velocity=0 time=0
EXTRACT: note_on channel=0 note=72 velocity=96 time=0.0020833333333333333
EXTRACT: note_on channel=0 note=84 velocity=96 time=0
EXTRACT: note_on channel=1 note=77 velocity=96 time=0
EXTRACT: note_on channel=1 note=53 velocity=96 time=0
EXTRACT: note_on channel=0 note=72 velocity=0 time=0.23541666666666666
EXTRACT: note_on channel=0 note=84 velocity=0 time=0
EXTRACT: note_on channel=1 note=77 velocity=0 time=0.0125
EXTRACT: note_on channel=1 note=53 velocity=0 time=0
EXTRACT: note_on channel=0 note=69 velocity=96 time=0.0020833333333333333
EXTRACT: note_on channel=0 note=81 velocity=96 time=0
EXTRACT: note_on channel=1 note=77 velocity=96 time=0
EXTRACT: note_on channel=1 note=53 velocity=96 time=0
EXTRACT: note_on channel=0 note=41 velocity=0 time=0.14791666666666667
EXTRACT: note_on channel=0 note=69 velocity=0 time=0.0875
EXTRACT: note_on channel=0 note=81 velocity=0 time=0
EXTRACT: note_on channel=1 note=77 velocity=0 time=0.0125
EXTRACT: note_on channel=1 note=53 velocity=0 time=0
EXTRACT: note_on channel=2 note=81 velocity=0 time=0
EXTRACT: note_on channel=2 note=45 velocity=0 time=0
EXTRACT: note_on channel=3 note=81 velocity=0 time=0
EXTRACT: note_on channel=3 note=93 velocity=0 time=0
EXTRACT: note_on channel=9 note=40 velocity=0 time=0
EXTRACT: note_on channel=9 note=60 velocity=0 time=0
EXTRACT: note_on channel=9 note=50 velocity=0 time=0
EXTRACT: note_on channel=9 note=38 velocity=0 time=0
EXTRACT: note_on channel=9 note=72 velocity=0 time=0
EXTRACT: note_on channel=0 note=74 velocity=96 time=0.0020833333333333333
EXTRACT: note_on channel=0 note=86 velocity=96 time=0
EXTRACT: note_on channel=0 note=33 velocity=96 time=0
EXTRACT: note_on channel=1 note=57 velocity=96 time=0
EXTRACT: note_on channel=1 note=45 velocity=96 time=0
EXTRACT: note_on channel=2 note=76 velocity=126 time=0
EXTRACT: note_on channel=2 note=40 velocity=126 time=0
EXTRACT: note_on channel=3 note=76 velocity=49 time=0
EXTRACT: note_on channel=3 note=88 velocity=49 time=0
EXTRACT: note_on channel=0 note=74 velocity=0 time=0.23541666666666666
EXTRACT: note_on channel=0 note=86 velocity=0 time=0
EXTRACT: note_on channel=1 note=57 velocity=0 time=0.0125
EXTRACT: note_on channel=1 note=45 velocity=0 time=0
EXTRACT: note_on channel=0 note=69 velocity=96 time=0.0020833333333333333
EXTRACT: note_on channel=0 note=81 velocity=96 time=0
EXTRACT: note_on channel=1 note=57 velocity=96 time=0
EXTRACT: note_on channel=1 note=45 velocity=96 time=0
EXTRACT: note_on channel=0 note=69 velocity=0 time=0.23541666666666666
EXTRACT: note_on channel=0 note=81 velocity=0 time=0
EXTRACT: note_on channel=1 note=57 velocity=0 time=0.0125
EXTRACT: note_on channel=1 note=45 velocity=0 time=0
EXTRACT: note_on channel=0 note=67 velocity=96 time=0.0020833333333333333
EXTRACT: note_on channel=0 note=79 velocity=96 time=0
EXTRACT: note_on channel=1 note=57 velocity=96 time=0
EXTRACT: note_on channel=1 note=45 velocity=96 time=0
EXTRACT: note_on channel=9 note=38 velocity=80 time=0
EXTRACT: note_on channel=9 note=48 velocity=96 time=0
EXTRACT: note_on channel=0 note=67 velocity=0 time=0.23541666666666666
EXTRACT: note_on channel=0 note=79 velocity=0 time=0
EXTRACT: note_on channel=1 note=57 velocity=0 time=0.0125
EXTRACT: note_on channel=1 note=45 velocity=0 time=0
EXTRACT: note_on channel=0 note=69 velocity=96 time=0.0020833333333333333
EXTRACT: note_on channel=0 note=81 velocity=96 time=0
EXTRACT: note_on channel=1 note=57 velocity=96 time=0
EXTRACT: note_on channel=1 note=45 velocity=96 time=0
EXTRACT: note_on channel=1 note=57 velocity=0 time=0.24791666666666667
EXTRACT: note_on channel=1 note=45 velocity=0 time=0
EXTRACT: note_on channel=9 note=38 velocity=0 time=0
EXTRACT: note_on channel=9 note=48 velocity=0 time=0
EXTRACT: note_on channel=1 note=57 velocity=96 time=0.0020833333333333333
EXTRACT: note_on channel=1 note=45 velocity=96 time=0
EXTRACT: note_on channel=9 note=40 velocity=96 time=0
EXTRACT: note_on channel=9 note=60 velocity=126 time=0
EXTRACT: note_on channel=9 note=50 velocity=80 time=0
EXTRACT: note_on channel=9 note=38 velocity=80 time=0
EXTRACT: note_on channel=9 note=72 velocity=124 time=0
EXTRACT: note_on channel=0 note=69 velocity=0 time=0.22291666666666665
EXTRACT: note_on channel=0 note=81 velocity=0 time=0
EXTRACT: note_on channel=1 note=57 velocity=0 time=0.025
EXTRACT: note_on channel=1 note=45 velocity=0 time=0
EXTRACT: note_on channel=1 note=57 velocity=96 time=0.0020833333333333333
EXTRACT: note_on channel=1 note=45 velocity=96 time=0
EXTRACT: note_on channel=1 note=57 velocity=0 time=0.24791666666666667
EXTRACT: note_on channel=1 note=45 velocity=0 time=0
EXTRACT: note_on channel=1 note=57 velocity=96 time=0.0020833333333333333
EXTRACT: note_on channel=1 note=45 velocity=96 time=0
EXTRACT: note_on channel=1 note=57 velocity=0 time=0.24791666666666667
EXTRACT: note_on channel=1 note=45 velocity=0 time=0
EXTRACT: note_on channel=0 note=67 velocity=96 time=0.0020833333333333333
EXTRACT: note_on channel=0 note=79 velocity=96 time=0
EXTRACT: note_on channel=1 note=57 velocity=96 time=0
EXTRACT: note_on channel=1 note=45 velocity=96 time=0
EXTRACT: note_on channel=0 note=33 velocity=0 time=0.14791666666666667
EXTRACT: note_on channel=0 note=67 velocity=0 time=0.0875
EXTRACT: note_on channel=0 note=79 velocity=0 time=0
EXTRACT: note_on channel=1 note=57 velocity=0 time=0.0125
EXTRACT: note_on channel=1 note=45 velocity=0 time=0
EXTRACT: note_on channel=2 note=76 velocity=0 time=0
EXTRACT: note_on channel=2 note=40 velocity=0 time=0
EXTRACT: note_on channel=3 note=76 velocity=0 time=0
EXTRACT: note_on channel=3 note=88 velocity=0 time=0
EXTRACT: note_on channel=9 note=40 velocity=0 time=0
EXTRACT: note_on channel=9 note=60 velocity=0 time=0
EXTRACT: note_on channel=9 note=50 velocity=0 time=0
EXTRACT: note_on channel=9 note=38 velocity=0 time=0
EXTRACT: note_on channel=9 note=72 velocity=0 time=0
EXTRACT: note_on channel=0 note=69 velocity=96 time=0.0020833333333333333
EXTRACT: note_on channel=0 note=81 velocity=96 time=0
EXTRACT: note_on channel=0 note=50 velocity=96 time=0
EXTRACT: note_on channel=1 note=74 velocity=96 time=0
EXTRACT: note_on channel=1 note=50 velocity=96 time=0
EXTRACT: note_on channel=2 note=74 velocity=126 time=0
EXTRACT: note_on channel=2 note=50 velocity=126 time=0
EXTRACT: note_on channel=3 note=77 velocity=49 time=0
EXTRACT: note_on channel=9 note=38 velocity=80 time=0
EXTRACT: note_on channel=9 note=48 velocity=96 time=0
EXTRACT: note_on channel=0 note=69 velocity=0 time=0.23541666666666666
EXTRACT: note_on channel=0 note=81 velocity=0 time=0
EXTRACT: note_on channel=0 note=50 velocity=0 time=0
EXTRACT: note_on channel=1 note=74 velocity=0 time=0.0125
EXTRACT: note_on channel=1 note=50 velocity=0 time=0
EXTRACT: note_on channel=0 note=69 velocity=96 time=0.0020833333333333333
EXTRACT: note_on channel=0 note=81 velocity=96 time=0
EXTRACT: note_on channel=0 note=53 velocity=96 time=0
EXTRACT: note_on channel=1 note=74 velocity=96 time=0
EXTRACT: note_on channel=1 note=50 velocity=96 time=0
EXTRACT: note_on channel=0 note=69 velocity=0 time=0.23541666666666666
EXTRACT: note_on channel=0 note=81 velocity=0 time=0
EXTRACT: note_on channel=0 note=53 velocity=0 time=0
EXTRACT: note_on channel=1 note=74 velocity=0 time=0.0125
EXTRACT: note_on channel=1 note=50 velocity=0 time=0
EXTRACT: note_on channel=0 note=69 velocity=96 time=0.0020833333333333333
EXTRACT: note_on channel=0 note=81 velocity=96 time=0
EXTRACT: note_on channel=0 note=57 velocity=96 time=0
EXTRACT: note_on channel=1 note=74 velocity=96 time=0
EXTRACT: note_on channel=1 note=50 velocity=96 time=0
EXTRACT: note_on channel=0 note=69 velocity=0 time=0.23541666666666666
EXTRACT: note_on channel=0 note=81 velocity=0 time=0
EXTRACT: note_on channel=0 note=57 velocity=0 time=0
EXTRACT: note_on channel=1 note=74 velocity=0 time=0.0125
EXTRACT: note_on channel=1 note=50 velocity=0 time=0
EXTRACT: note_on channel=0 note=69 velocity=96 time=0.0020833333333333333
EXTRACT: note_on channel=0 note=81 velocity=96 time=0
EXTRACT: note_on channel=0 note=53 velocity=96 time=0
EXTRACT: note_on channel=1 note=74 velocity=96 time=0
EXTRACT: note_on channel=1 note=50 velocity=96 time=0
EXTRACT: note_on channel=0 note=69 velocity=0 time=0.23541666666666666
EXTRACT: note_on channel=0 note=81 velocity=0 time=0
EXTRACT: note_on channel=0 note=53 velocity=0 time=0
EXTRACT: note_on channel=1 note=74 velocity=0 time=0.0125
EXTRACT: note_on channel=1 note=50 velocity=0 time=0
EXTRACT: note_on channel=2 note=74 velocity=0 time=0
EXTRACT: note_on channel=2 note=50 velocity=0 time=0
EXTRACT: note_on channel=3 note=77 velocity=0 time=0
EXTRACT: note_on channel=9 note=38 velocity=0 time=0
EXTRACT: note_on channel=9 note=48 velocity=0 time=0
EXTRACT: note_on channel=0 note=72 velocity=96 time=0.0020833333333333333
EXTRACT: note_on channel=0 note=84 velocity=96 time=0
EXTRACT: note_on channel=0 note=48 velocity=96 time=0
EXTRACT: note_on channel=1 note=72 velocity=96 time=0
EXTRACT: note_on channel=1 note=48 velocity=96 time=0
EXTRACT: note_on channel=2 note=72 velocity=126 time=0
EXTRACT: note_on channel=2 note=48 velocity=126 time=0
EXTRACT: note_on channel=3 note=76 velocity=49 time=0
EXTRACT: note_on channel=9 note=40 velocity=96 time=0
EXTRACT: note_on channel=9 note=60 velocity=126 time=0
EXTRACT: note_on channel=9 note=60 velocity=80 time=0
EXTRACT: note_on channel=9 note=38 velocity=80 time=0
EXTRACT: note_on channel=9 note=72 velocity=124 time=0
EXTRACT: note_on channel=0 note=48 velocity=0 time=0.23541666666666666
EXTRACT: note_on channel=1 note=72 velocity=0 time=0.0125
EXTRACT: note_on channel=1 note=48 velocity=0 time=0
EXTRACT: note_on channel=0 note=52 velocity=96 time=0.0020833333333333333
EXTRACT: note_on channel=1 note=72 velocity=96 time=0
EXTRACT: note_on channel=1 note=48 velocity=96 time=0
EXTRACT: note_on channel=0 note=72 velocity=0 time=0.22291666666666665
EXTRACT: note_on channel=0 note=84 velocity=0 time=0
EXTRACT: note_on channel=0 note=52 velocity=0 time=0.0125
EXTRACT: note_on channel=1 note=72 velocity=0 time=0.0125
EXTRACT: note_on channel=1 note=48 velocity=0 time=0
EXTRACT: note_on channel=0 note=69 velocity=96 time=0.0020833333333333333
EXTRACT: note_on channel=0 note=81 velocity=96 time=0
EXTRACT: note_on channel=0 note=55 velocity=96 time=0
EXTRACT: note_on channel=1 note=72 velocity=96 time=0
EXTRACT: note_on channel=1 note=48 velocity=96 time=0
EXTRACT: note_on channel=0 note=69 velocity=0 time=0.23541666666666666
EXTRACT: note_on channel=0 note=81 velocity=0 time=0
EXTRACT: note_on channel=0 note=55 velocity=0 time=0
EXTRACT: note_on channel=1 note=72 velocity=0 time=0.0125
EXTRACT: note_on channel=1 note=48 velocity=0 time=0
EXTRACT: note_on channel=0 note=67 velocity=96 time=0.0020833333333333333
EXTRACT: note_on channel=0 note=79 velocity=96 time=0
EXTRACT: note_on channel=0 note=52 velocity=96 time=0
EXTRACT: note_on channel=1 note=72 velocity=96 time=0
EXTRACT: note_on channel=1 note=48 velocity=96 time=0
EXTRACT: note_on channel=0 note=67 velocity=0 time=0.23541666666666666
EXTRACT: note_on channel=0 note=79 velocity=0 time=0
EXTRACT: note_on channel=0 note=52 velocity=0 time=0
EXTRACT: note_on channel=1 note=72 velocity=0 time=0.0125
EXTRACT: note_on channel=1 note=48 velocity=0 time=0
EXTRACT: note_on channel=2 note=72 velocity=0 time=0
EXTRACT: note_on channel=2 note=48 velocity=0 time=0
EXTRACT: note_on channel=3 note=76 velocity=0 time=0
EXTRACT: note_on channel=9 note=40 velocity=0 time=0
EXTRACT: note_on channel=9 note=60 velocity=0 time=0
EXTRACT: note_on channel=9 note=60 velocity=0 time=0
EXTRACT: note_on channel=9 note=38 velocity=0 time=0
EXTRACT: note_on channel=9 note=72 velocity=0 time=0
EXTRACT: note_on channel=0 note=69 velocity=96 time=0.0020833333333333333
EXTRACT: note_on channel=0 note=81 velocity=96 time=0
EXTRACT: note_on channel=0 note=65 velocity=96 time=0
EXTRACT: note_on channel=1 note=77 velocity=96 time=0
EXTRACT: note_on channel=1 note=53 velocity=96 time=0
EXTRACT: note_on channel=2 note=77 velocity=126 time=0
EXTRACT: note_on channel=2 note=53 velocity=126 time=0
EXTRACT: note_on channel=3 note=93 velocity=49 time=0
EXTRACT: note_on channel=0 note=69 velocity=0 time=0.23541666666666666
EXTRACT: note_on channel=0 note=81 velocity=0 time=0
EXTRACT: note_on channel=9 note=38 velocity=80 time=0.26458333333333334
EXTRACT: note_on channel=9 note=48 velocity=96 time=0
EXTRACT: note_on channel=9 note=38 velocity=0 time=0.4979166666666667
EXTRACT: note_on channel=9 note=48 velocity=0 time=0
EXTRACT: note_on channel=9 note=40 velocity=96 time=0.0020833333333333333
EXTRACT: note_on channel=9 note=52 velocity=126 time=0
EXTRACT: note_on channel=9 note=52 velocity=80 time=0
EXTRACT: note_on channel=9 note=38 velocity=80 time=0
EXTRACT: note_on channel=9 note=72 velocity=124 time=0
EXTRACT: note_on channel=9 note=52 velocity=0 time=0.4979166666666667
EXTRACT: note_on channel=9 note=52 velocity=0 time=0
EXTRACT: note_on channel=9 note=52 velocity=126 time=0.0020833333333333333
EXTRACT: note_on channel=9 note=52 velocity=80 time=0
EXTRACT: note_on channel=0 note=65 velocity=0 time=0.39791666666666664
EXTRACT: note_on channel=1 note=77 velocity=0 time=0.1
EXTRACT: note_on channel=1 note=53 velocity=0 time=0
EXTRACT: note_on channel=2 note=77 velocity=0 time=0
EXTRACT: note_on channel=2 note=53 velocity=0 time=0
EXTRACT: note_on channel=3 note=93 velocity=0 time=0
EXTRACT: note_on channel=9 note=40 velocity=0 time=0
EXTRACT: note_on channel=9 note=52 velocity=0 time=0
EXTRACT: note_on channel=9 note=52 velocity=0 time=0
EXTRACT: note_on channel=9 note=38 velocity=0 time=0
EXTRACT: note_on channel=9 note=72 velocity=0 time=0
EXTRACT: note_on channel=0 note=60 velocity=126 time=0.0020833333333333333
EXTRACT: note_on channel=1 note=65 velocity=96 time=0
EXTRACT: note_on channel=1 note=41 velocity=96 time=0
EXTRACT: note_on channel=2 note=77 velocity=126 time=0
EXTRACT: note_on channel=2 note=53 velocity=126 time=0
EXTRACT: note_on channel=9 note=38 velocity=80 time=0
EXTRACT: note_on channel=9 note=48 velocity=96 time=0
EXTRACT: note_on channel=2 note=77 velocity=0 time=0.24791666666666667
EXTRACT: note_on channel=2 note=53 velocity=0 time=0
EXTRACT: note_on channel=2 note=81 velocity=126 time=0.0020833333333333333
EXTRACT: note_on channel=2 note=57 velocity=126 time=0
EXTRACT: note_on channel=2 note=81 velocity=0 time=0.24791666666666667
EXTRACT: note_on channel=2 note=57 velocity=0 time=0
EXTRACT: note_on channel=2 note=84 velocity=126 time=0.0020833333333333333
EXTRACT: note_on channel=2 note=60 velocity=126 time=0
EXTRACT: note_on channel=2 note=84 velocity=0 time=0.24791666666666667
EXTRACT: note_on channel=2 note=60 velocity=0 time=0
EXTRACT: note_on channel=2 note=81 velocity=126 time=0.0020833333333333333
EXTRACT: note_on channel=2 note=57 velocity=126 time=0
EXTRACT: note_on channel=2 note=81 velocity=0 time=0.24791666666666667
EXTRACT: note_on channel=2 note=57 velocity=0 time=0
EXTRACT: note_on channel=9 note=38 velocity=0 time=0
EXTRACT: note_on channel=9 note=48 velocity=0 time=0
EXTRACT: note_on channel=9 note=40 velocity=96 time=0.0020833333333333333
EXTRACT: note_on channel=9 note=60 velocity=126 time=0
EXTRACT: note_on channel=9 note=60 velocity=80 time=0
EXTRACT: note_on channel=9 note=38 velocity=80 time=0
EXTRACT: note_on channel=0 note=60 velocity=0 time=0.18541666666666667
EXTRACT: note_on channel=0 note=62 velocity=126 time=0.06458333333333333
EXTRACT: note_on channel=0 note=62 velocity=0 time=0.23541666666666666
EXTRACT: note_on channel=9 note=60 velocity=0 time=0.0125
EXTRACT: note_on channel=9 note=60 velocity=0 time=0
EXTRACT: note_on channel=0 note=59 velocity=126 time=0.0020833333333333333
EXTRACT: note_on channel=9 note=55 velocity=126 time=0
EXTRACT: note_on channel=9 note=55 velocity=80 time=0
EXTRACT: note_on channel=0 note=59 velocity=0 time=0.23541666666666666
EXTRACT: note_on channel=9 note=55 velocity=0 time=0.0125
EXTRACT: note_on channel=9 note=55 velocity=0 time=0
EXTRACT: note_on channel=0 note=60 velocity=126 time=0.0020833333333333333
EXTRACT: note_on channel=9 note=55 velocity=126 time=0
EXTRACT: note_on channel=9 note=55 velocity=80 time=0
EXTRACT: note_on channel=0 note=60 velocity=0 time=0.23541666666666666
EXTRACT: note_on channel=1 note=65 velocity=0 time=0.0125
EXTRACT: note_on channel=1 note=41 velocity=0 time=0
EXTRACT: note_on channel=9 note=40 velocity=0 time=0
EXTRACT: note_on channel=9 note=55 velocity=0 time=0
EXTRACT: note_on channel=9 note=55 velocity=0 time=0
EXTRACT: note_on channel=9 note=38 velocity=0 time=0
EXTRACT: note_on channel=0 note=57 velocity=126 time=0.0020833333333333333
EXTRACT: note_on channel=1 note=69 velocity=96 time=0
EXTRACT: note_on channel=1 note=45 velocity=96 time=0
EXTRACT: note_on channel=0 note=57 velocity=0 time=0.23541666666666666
EXTRACT: note_on channel=0 note=59 velocity=126 time=0.014583333333333334
EXTRACT: note_on channel=0 note=59 velocity=0 time=0.23541666666666666
EXTRACT: note_on channel=0 note=55 velocity=126 time=0.014583333333333334
EXTRACT: note_on channel=9 note=38 velocity=80 time=0
EXTRACT: note_on channel=9 note=48 velocity=96 time=0
EXTRACT: note_on channel=0 note=55 velocity=0 time=0.47291666666666665
EXTRACT: note_on channel=9 note=38 velocity=0 time=0.025
EXTRACT: note_on channel=9 note=48 velocity=0 time=0
EXTRACT: note_on channel=0 note=57 velocity=126 time=0.0020833333333333333
EXTRACT: note_on channel=9 note=40 velocity=96 time=0
EXTRACT: note_on channel=9 note=60 velocity=126 time=0
EXTRACT: note_on channel=9 note=60 velocity=80 time=0
EXTRACT: note_on channel=9 note=38 velocity=80 time=0
EXTRACT: note_on channel=0 note=57 velocity=0 time=0.47291666666666665
EXTRACT: note_on channel=9 note=60 velocity=0 time=0.025
EXTRACT: note_on channel=9 note=60 velocity=0 time=0
EXTRACT: note_on channel=9 note=55 velocity=126 time=0.0020833333333333333
EXTRACT: note_on channel=9 note=55 velocity=80 time=0
EXTRACT: note_on channel=9 note=55 velocity=0 time=0.24791666666666667
EXTRACT: note_on channel=9 note=55 velocity=0 time=0
EXTRACT: note_on channel=0 note=55 velocity=126 time=0.0020833333333333333
EXTRACT: note_on channel=9 note=55 velocity=126 time=0
EXTRACT: note_on channel=9 note=55 velocity=80 time=0
EXTRACT: note_on channel=0 note=55 velocity=0 time=0.23541666666666666
EXTRACT: note_on channel=1 note=69 velocity=0 time=0.0125
EXTRACT: note_on channel=1 note=45 velocity=0 time=0
EXTRACT: note_on channel=9 note=40 velocity=0 time=0
EXTRACT: note_on channel=9 note=55 velocity=0 time=0
EXTRACT: note_on channel=9 note=55 velocity=0 time=0
EXTRACT: note_on channel=9 note=38 velocity=0 time=0
EXTRACT: note_on channel=0 note=57 velocity=126 time=0.0020833333333333333
EXTRACT: note_on channel=1 note=65 velocity=96 time=0
EXTRACT: note_on channel=1 note=41 velocity=96 time=0
EXTRACT: note_on channel=2 note=69 velocity=126 time=0
EXTRACT: note_on channel=9 note=1 velocity=126 time=0
EXTRACT: note_on channel=9 note=38 velocity=80 time=0
EXTRACT: note_on channel=9 note=48 velocity=96 time=0
EXTRACT: note_on channel=2 note=69 velocity=0 time=0.24791666666666667
EXTRACT: note_on channel=2 note=72 velocity=126 time=0.0020833333333333333
EXTRACT: note_on channel=0 note=57 velocity=0 time=0.22291666666666665
EXTRACT: note_on channel=2 note=72 velocity=0 time=0.025
EXTRACT: note_on channel=0 note=57 velocity=126 time=0.0020833333333333333
EXTRACT: note_on channel=2 note=74 velocity=126 time=0
EXTRACT: note_on channel=0 note=57 velocity=0 time=0.23541666666666666
EXTRACT: note_on channel=2 note=74 velocity=0 time=0.0125
EXTRACT: note_on channel=0 note=59 velocity=126 time=0.0020833333333333333
EXTRACT: note_on channel=2 note=77 velocity=126 time=0
EXTRACT: note_on channel=2 note=77 velocity=0 time=0.24791666666666667
EXTRACT: note_on channel=9 note=38 velocity=0 time=0
EXTRACT: note_on channel=9 note=48 velocity=0 time=0
EXTRACT: note_on channel=9 note=40 velocity=96 time=0.0020833333333333333
EXTRACT: note_on channel=9 note=60 velocity=126 time=0
EXTRACT: note_on channel=9 note=60 velocity=80 time=0
EXTRACT: note_on channel=9 note=38 velocity=80 time=0
EXTRACT: note_on channel=0 note=59 velocity=0 time=0.22291666666666665
EXTRACT: note_on channel=0 note=59 velocity=126 time=0.027083333333333334
EXTRACT: note_on channel=9 note=60 velocity=0 time=0.24791666666666667
EXTRACT: note_on channel=9 note=60 velocity=0 time=0
EXTRACT: note_on channel=9 note=55 velocity=126 time=0.0020833333333333333
EXTRACT: note_on channel=9 note=55 velocity=80 time=0
EXTRACT: note_on channel=0 note=59 velocity=0 time=0.22291666666666665
EXTRACT: note_on channel=9 note=55 velocity=0 time=0.025
EXTRACT: note_on channel=9 note=55 velocity=0 time=0
EXTRACT: note_on channel=0 note=60 velocity=126 time=0.0020833333333333333
EXTRACT: note_on channel=9 note=55 velocity=126 time=0
EXTRACT: note_on channel=9 note=55 velocity=80 time=0
EXTRACT: note_on channel=1 note=65 velocity=0 time=0.24791666666666667
EXTRACT: note_on channel=1 note=41 velocity=0 time=0
EXTRACT: note_on channel=9 note=1 velocity=0 time=0
EXTRACT: note_on channel=9 note=40 velocity=0 time=0
EXTRACT: note_on channel=9 note=55 velocity=0 time=0
EXTRACT: note_on channel=9 note=55 velocity=0 time=0
EXTRACT: note_on channel=9 note=38 velocity=0 time=0
EXTRACT: note_on channel=1 note=69 velocity=96 time=0.0020833333333333333
EXTRACT: note_on channel=1 note=45 velocity=96 time=0
EXTRACT: note_on channel=9 note=48 velocity=126 time=0
EXTRACT: note_on channel=0 note=60 velocity=0 time=0.22291666666666665
EXTRACT: note_on channel=0 note=57 velocity=126 time=0.027083333333333334
EXTRACT: note_on channel=9 note=38 velocity=80 time=0.25
EXTRACT: note_on channel=9 note=48 velocity=96 time=0
EXTRACT: note_on channel=0 note=57 velocity=0 time=0.22291666666666665
EXTRACT: note_on channel=9 note=38 velocity=0 time=0.275
EXTRACT: note_on channel=9 note=48 velocity=0 time=0
EXTRACT: note_on channel=9 note=40 velocity=96 time=0.0020833333333333333
EXTRACT: note_on channel=9 note=60 velocity=126 time=0
EXTRACT: note_on channel=9 note=60 velocity=80 time=0
EXTRACT: note_on channel=9 note=38 velocity=80 time=0
EXTRACT: note_on channel=9 note=60 velocity=0 time=0.4979166666666667
EXTRACT: note_on channel=9 note=60 velocity=0 time=0
EXTRACT: note_on channel=9 note=55 velocity=126 time=0.0020833333333333333
EXTRACT: note_on channel=9 note=55 velocity=80 time=0
EXTRACT: note_on channel=9 note=55 velocity=0 time=0.24791666666666667
EXTRACT: note_on channel=9 note=55 velocity=0 time=0
EXTRACT: note_on channel=9 note=55 velocity=126 time=0.0020833333333333333
EXTRACT: note_on channel=9 note=55 velocity=80 time=0
EXTRACT: note_on channel=1 note=69 velocity=0 time=0.24791666666666667
EXTRACT: note_on channel=1 note=45 velocity=0 time=0
EXTRACT: note_on channel=9 note=48 velocity=0 time=0
EXTRACT: note_on channel=9 note=40 velocity=0 time=0
EXTRACT: note_on channel=9 note=55 velocity=0 time=0
EXTRACT: note_on channel=9 note=55 velocity=0 time=0
EXTRACT: note_on channel=9 note=38 velocity=0 time=0
EXTRACT: note_on channel=0 note=60 velocity=126 time=0.0020833333333333333
EXTRACT: note_on channel=1 note=65 velocity=96 time=0
EXTRACT: note_on channel=1 note=41 velocity=96 time=0
EXTRACT: note_on channel=2 note=77 velocity=126 time=0
EXTRACT: note_on channel=2 note=53 velocity=126 time=0
EXTRACT: note_on channel=9 note=38 velocity=80 time=0
EXTRACT: note_on channel=9 note=48 velocity=96 time=0
EXTRACT: note_on channel=2 note=77 velocity=0 time=0.24791666666666667
EXTRACT: note_on channel=2 note=53 velocity=0 time=0
EXTRACT: note_on channel=2 note=81 velocity=126 time=0.0020833333333333333
EXTRACT: note_on channel=2 note=57 velocity=126 time=0
EXTRACT: note_on channel=2 note=81 velocity=0 time=0.24791666666666667
EXTRACT: note_on channel=2 note=57 velocity=0 time=0
EXTRACT: note_on channel=2 note=84 velocity=126 time=0.0020833333333333333
EXTRACT: note_on channel=2 note=60 velocity=126 time=0
EXTRACT: note_on channel=2 note=84 velocity=0 time=0.24791666666666667
EXTRACT: note_on channel=2 note=60 velocity=0 time=0
EXTRACT: note_on channel=2 note=81 velocity=126 time=0.0020833333333333333
EXTRACT: note_on channel=2 note=57 velocity=126 time=0
EXTRACT: note_on channel=2 note=81 velocity=0 time=0.24791666666666667
EXTRACT: note_on channel=2 note=57 velocity=0 time=0
EXTRACT: note_on channel=9 note=38 velocity=0 time=0
EXTRACT: note_on channel=9 note=48 velocity=0 time=0
EXTRACT: note_on channel=9 note=40 velocity=96 time=0.0020833333333333333
EXTRACT: note_on channel=9 note=60 velocity=126 time=0
EXTRACT: note_on channel=9 note=60 velocity=80 time=0
EXTRACT: note_on channel=9 note=38 velocity=80 time=0
EXTRACT: note_on channel=0 note=60 velocity=0 time=0.18541666666666667
EXTRACT: note_on channel=0 note=62 velocity=126 time=0.06458333333333333
EXTRACT: note_on channel=0 note=62 velocity=0 time=0.23541666666666666
EXTRACT: note_on channel=9 note=60 velocity=0 time=0.0125
EXTRACT: note_on channel=9 note=60 velocity=0 time=0
EXTRACT: note_on channel=0 note=59 velocity=126 time=0.0020833333333333333
EXTRACT: note_on channel=9 note=55 velocity=126 time=0
EXTRACT: note_on channel=9 note=55 velocity=80 time=0
EXTRACT: note_on channel=0 note=59 velocity=0 time=0.23541666666666666
EXTRACT: note_on channel=9 note=55 velocity=0 time=0.0125
EXTRACT: note_on channel=9 note=55 velocity=0 time=0
EXTRACT: note_on channel=0 note=60 velocity=126 time=0.0020833333333333333
EXTRACT: note_on channel=9 note=55 velocity=126 time=0
EXTRACT: note_on channel=9 note=55 velocity=80 time=0
EXTRACT: note_on channel=0 note=60 velocity=0 time=0.23541666666666666
EXTRACT: note_on channel=1 note=65 velocity=0 time=0.0125
EXTRACT: note_on channel=1 note=41 velocity=0 time=0
EXTRACT: note_on channel=9 note=40 velocity=0 time=0
EXTRACT: note_on channel=9 note=55 velocity=0 time=0
EXTRACT: note_on channel=9 note=55 velocity=0 time=0
EXTRACT: note_on channel=9 note=38 velocity=0 time=0
EXTRACT: note_on channel=0 note=57 velocity=126 time=0.0020833333333333333
EXTRACT: note_on channel=1 note=69 velocity=96 time=0
EXTRACT: note_on channel=1 note=45 velocity=96 time=0
EXTRACT: note_on channel=0 note=57 velocity=0 time=0.23541666666666666
EXTRACT: note_on channel=0 note=59 velocity=126 time=0.014583333333333334
EXTRACT: note_on channel=0 note=59 velocity=0 time=0.23541666666666666
EXTRACT: note_on channel=0 note=55 velocity=126 time=0.014583333333333334
EXTRACT: note_on channel=9 note=38 velocity=80 time=0
EXTRACT: note_on channel=9 note=48 velocity=96 time=0
EXTRACT: note_on channel=0 note=55 velocity=0 time=0.47291666666666665
EXTRACT: note_on channel=9 note=38 velocity=0 time=0.025
EXTRACT: note_on channel=9 note=48 velocity=0 time=0
EXTRACT: note_on channel=0 note=57 velocity=126 time=0.0020833333333333333
EXTRACT: note_on channel=9 note=40 velocity=96 time=0
EXTRACT: note_on channel=9 note=60 velocity=126 time=0
EXTRACT: note_on channel=9 note=60 velocity=80 time=0
EXTRACT: note_on channel=9 note=38 velocity=80 time=0
EXTRACT: note_on channel=0 note=57 velocity=0 time=0.47291666666666665
EXTRACT: note_on channel=9 note=60 velocity=0 time=0.025
EXTRACT: note_on channel=9 note=60 velocity=0 time=0
EXTRACT: note_on channel=9 note=55 velocity=126 time=0.0020833333333333333
EXTRACT: note_on channel=9 note=55 velocity=80 time=0
EXTRACT: note_on channel=9 note=55 velocity=0 time=0.24791666666666667
EXTRACT: note_on channel=9 note=55 velocity=0 time=0
EXTRACT: note_on channel=0 note=55 velocity=126 time=0.0020833333333333333
EXTRACT: note_on channel=9 note=55 velocity=126 time=0
EXTRACT: note_on channel=9 note=55 velocity=80 time=0
EXTRACT: note_on channel=0 note=55 velocity=0 time=0.23541666666666666
EXTRACT: note_on channel=1 note=69 velocity=0 time=0.0125
EXTRACT: note_on channel=1 note=45 velocity=0 time=0
EXTRACT: note_on channel=9 note=40 velocity=0 time=0
EXTRACT: note_on channel=9 note=55 velocity=0 time=0
EXTRACT: note_on channel=9 note=55 velocity=0 time=0
EXTRACT: note_on channel=9 note=38 velocity=0 time=0
EXTRACT: note_on channel=0 note=57 velocity=126 time=0.0020833333333333333
EXTRACT: note_on channel=1 note=65 velocity=96 time=0
EXTRACT: note_on channel=1 note=41 velocity=96 time=0
EXTRACT: note_on channel=2 note=69 velocity=126 time=0
EXTRACT: note_on channel=9 note=1 velocity=126 time=0
EXTRACT: note_on channel=9 note=38 velocity=80 time=0
EXTRACT: note_on channel=9 note=48 velocity=96 time=0
EXTRACT: note_on channel=2 note=69 velocity=0 time=0.24791666666666667
EXTRACT: note_on channel=2 note=72 velocity=126 time=0.0020833333333333333
EXTRACT: note_on channel=0 note=57 velocity=0 time=0.22291666666666665
EXTRACT: note_on channel=2 note=72 velocity=0 time=0.025
EXTRACT: note_on channel=0 note=57 velocity=126 time=0.0020833333333333333
EXTRACT: note_on channel=2 note=74 velocity=126 time=0
EXTRACT: note_on channel=0 note=57 velocity=0 time=0.23541666666666666
EXTRACT: note_on channel=2 note=74 velocity=0 time=0.0125
EXTRACT: note_on channel=0 note=59 velocity=126 time=0.0020833333333333333
EXTRACT: note_on channel=2 note=77 velocity=126 time=0
EXTRACT: note_on channel=2 note=77 velocity=0 time=0.24791666666666667
EXTRACT: note_on channel=9 note=38 velocity=0 time=0
EXTRACT: note_on channel=9 note=48 velocity=0 time=0
EXTRACT: note_on channel=9 note=40 velocity=96 time=0.0020833333333333333
EXTRACT: note_on channel=9 note=60 velocity=126 time=0
EXTRACT: note_on channel=9 note=60 velocity=80 time=0
EXTRACT: note_on channel=9 note=38 velocity=80 time=0
EXTRACT: note_on channel=0 note=59 velocity=0 time=0.22291666666666665
EXTRACT: note_on channel=0 note=59 velocity=126 time=0.027083333333333334
EXTRACT: note_on channel=9 note=60 velocity=0 time=0.24791666666666667
EXTRACT: note_on channel=9 note=60 velocity=0 time=0
EXTRACT: note_on channel=9 note=55 velocity=126 time=0.0020833333333333333
EXTRACT: note_on channel=9 note=55 velocity=80 time=0
EXTRACT: note_on channel=0 note=59 velocity=0 time=0.22291666666666665
EXTRACT: note_on channel=9 note=55 velocity=0 time=0.025
EXTRACT: note_on channel=9 note=55 velocity=0 time=0
EXTRACT: note_on channel=0 note=60 velocity=126 time=0.0020833333333333333
EXTRACT: note_on channel=9 note=55 velocity=126 time=0
EXTRACT: note_on channel=9 note=55 velocity=80 time=0
EXTRACT: note_on channel=1 note=65 velocity=0 time=0.24791666666666667
EXTRACT: note_on channel=1 note=41 velocity=0 time=0
EXTRACT: note_on channel=9 note=1 velocity=0 time=0
EXTRACT: note_on channel=9 note=40 velocity=0 time=0
EXTRACT: note_on channel=9 note=55 velocity=0 time=0
EXTRACT: note_on channel=9 note=55 velocity=0 time=0
EXTRACT: note_on channel=9 note=38 velocity=0 time=0
EXTRACT: note_on channel=1 note=69 velocity=96 time=0.0020833333333333333
EXTRACT: note_on channel=1 note=45 velocity=96 time=0
EXTRACT: note_on channel=9 note=48 velocity=126 time=0
EXTRACT: note_on channel=0 note=60 velocity=0 time=0.22291666666666665
EXTRACT: note_on channel=0 note=57 velocity=126 time=0.027083333333333334
EXTRACT: note_on channel=9 note=38 velocity=80 time=0.25
EXTRACT: note_on channel=9 note=48 velocity=96 time=0
EXTRACT: note_on channel=0 note=57 velocity=0 time=0.22291666666666665
EXTRACT: note_on channel=9 note=38 velocity=0 time=0.275
EXTRACT: note_on channel=9 note=48 velocity=0 time=0
EXTRACT: note_on channel=9 note=40 velocity=96 time=0.0020833333333333333
EXTRACT: note_on channel=9 note=60 velocity=126 time=0
EXTRACT: note_on channel=9 note=60 velocity=80 time=0
EXTRACT: note_on channel=9 note=38 velocity=80 time=0
EXTRACT: note_on channel=9 note=60 velocity=0 time=0.4979166666666667
EXTRACT: note_on channel=9 note=60 velocity=0 time=0
EXTRACT: note_on channel=9 note=55 velocity=126 time=0.0020833333333333333
EXTRACT: note_on channel=9 note=55 velocity=80 time=0
EXTRACT: note_on channel=9 note=55 velocity=0 time=0.24791666666666667
EXTRACT: note_on channel=9 note=55 velocity=0 time=0
EXTRACT: note_on channel=9 note=55 velocity=126 time=0.0020833333333333333
EXTRACT: note_on channel=9 note=55 velocity=80 time=0
EXTRACT: note_on channel=1 note=69 velocity=0 time=0.24791666666666667
EXTRACT: note_on channel=1 note=45 velocity=0 time=0
EXTRACT: note_on channel=9 note=48 velocity=0 time=0
EXTRACT: note_on channel=9 note=40 velocity=0 time=0
EXTRACT: note_on channel=9 note=55 velocity=0 time=0
EXTRACT: note_on channel=9 note=55 velocity=0 time=0
EXTRACT: note_on channel=9 note=38 velocity=0 time=0
EXTRACT: note_on channel=0 note=60 velocity=126 time=0.0020833333333333333
EXTRACT: note_on channel=1 note=41 velocity=126 time=0
EXTRACT: note_on channel=2 note=77 velocity=126 time=0
EXTRACT: note_on channel=2 note=53 velocity=126 time=0
EXTRACT: note_on channel=9 note=40 velocity=96 time=0
EXTRACT: note_on channel=9 note=48 velocity=126 time=0
EXTRACT: note_on channel=9 note=50 velocity=80 time=0
EXTRACT: note_on channel=2 note=77 velocity=0 time=0.24791666666666667
EXTRACT: note_on channel=2 note=53 velocity=0 time=0
EXTRACT: note_on channel=2 note=81 velocity=126 time=0.0020833333333333333
EXTRACT: note_on channel=2 note=57 velocity=126 time=0
EXTRACT: note_on channel=2 note=81 velocity=0 time=0.24791666666666667
EXTRACT: note_on channel=2 note=57 velocity=0 time=0
EXTRACT: note_on channel=2 note=84 velocity=126 time=0.0020833333333333333
EXTRACT: note_on channel=2 note=60 velocity=126 time=0
EXTRACT: note_on channel=2 note=84 velocity=0 time=0.24791666666666667
EXTRACT: note_on channel=2 note=60 velocity=0 time=0
EXTRACT: note_on channel=2 note=81 velocity=126 time=0.0020833333333333333
EXTRACT: note_on channel=2 note=57 velocity=126 time=0
EXTRACT: note_on channel=2 note=81 velocity=0 time=0.24791666666666667
EXTRACT: note_on channel=2 note=57 velocity=0 time=0
EXTRACT: note_on channel=9 note=40 velocity=0 time=0
EXTRACT: note_on channel=9 note=48 velocity=0 time=0
EXTRACT: note_on channel=9 note=50 velocity=0 time=0
EXTRACT: note_on channel=9 note=38 velocity=80 time=0.0020833333333333333
EXTRACT: note_on channel=9 note=51 velocity=96 time=0
EXTRACT: note_on channel=0 note=60 velocity=0 time=0.18541666666666667
EXTRACT: note_on channel=0 note=59 velocity=126 time=0.06458333333333333
EXTRACT: note_on channel=0 note=59 velocity=0 time=0.47291666666666665
EXTRACT: note_on channel=0 note=59 velocity=126 time=0.027083333333333334
EXTRACT: note_on channel=1 note=41 velocity=0 time=0.24791666666666667
EXTRACT: note_on channel=9 note=38 velocity=0 time=0
EXTRACT: note_on channel=9 note=51 velocity=0 time=0
EXTRACT: note_on channel=1 note=33 velocity=126 time=0.0020833333333333333
EXTRACT: note_on channel=0 note=59 velocity=0 time=0.22291666666666665
EXTRACT: note_on channel=0 note=57 velocity=126 time=0.027083333333333334
EXTRACT: note_on channel=9 note=40 velocity=96 time=0.25
EXTRACT: note_on channel=9 note=48 velocity=126 time=0
EXTRACT: note_on channel=9 note=50 velocity=80 time=0
EXTRACT: note_on channel=0 note=57 velocity=0 time=0.22291666666666665
EXTRACT: note_on channel=0 note=57 velocity=126 time=0.027083333333333334
EXTRACT: note_on channel=9 note=40 velocity=0 time=0.24791666666666667
EXTRACT: note_on channel=9 note=48 velocity=0 time=0
EXTRACT: note_on channel=9 note=50 velocity=0 time=0
EXTRACT: note_on channel=9 note=38 velocity=80 time=0.0020833333333333333
EXTRACT: note_on channel=9 note=51 velocity=96 time=0
EXTRACT: note_on channel=0 note=57 velocity=0 time=0.22291666666666665
EXTRACT: note_on channel=0 note=55 velocity=126 time=0.027083333333333334
EXTRACT: note_on channel=0 note=55 velocity=0 time=0.7104166666666667
EXTRACT: note_on channel=1 note=33 velocity=0 time=0.0375
EXTRACT: note_on channel=9 note=38 velocity=0 time=0
EXTRACT: note_on channel=9 note=51 velocity=0 time=0
EXTRACT: note_on channel=0 note=60 velocity=126 time=0.0020833333333333333
EXTRACT: note_on channel=1 note=29 velocity=126 time=0
EXTRACT: note_on channel=9 note=40 velocity=96 time=0
EXTRACT: note_on channel=9 note=48 velocity=126 time=0
EXTRACT: note_on channel=9 note=50 velocity=80 time=0
EXTRACT: note_on channel=0 note=60 velocity=0 time=0.47291666666666665
EXTRACT: note_on channel=0 note=60 velocity=126 time=0.027083333333333334
EXTRACT: note_on channel=0 note=60 velocity=0 time=0.23541666666666666
EXTRACT: note_on channel=0 note=60 velocity=126 time=0.014583333333333334
EXTRACT: note_on channel=9 note=40 velocity=0 time=0.24791666666666667
EXTRACT: note_on channel=9 note=48 velocity=0 time=0
EXTRACT: note_on channel=9 note=50 velocity=0 time=0
EXTRACT: note_on channel=9 note=38 velocity=80 time=0.0020833333333333333
EXTRACT: note_on channel=9 note=51 velocity=96 time=0
EXTRACT: note_on channel=0 note=60 velocity=0 time=0.22291666666666665
EXTRACT: note_on channel=0 note=62 velocity=126 time=0.027083333333333334
EXTRACT: note_on channel=0 note=62 velocity=0 time=0.47291666666666665
EXTRACT: note_on channel=0 note=59 velocity=126 time=0.027083333333333334
EXTRACT: note_on channel=1 note=29 velocity=0 time=0.24791666666666667
EXTRACT: note_on channel=9 note=38 velocity=0 time=0
EXTRACT: note_on channel=9 note=51 velocity=0 time=0
EXTRACT: note_on channel=1 note=45 velocity=126 time=0.0020833333333333333
EXTRACT: note_on channel=0 note=59 velocity=0 time=0.22291666666666665
EXTRACT: note_on channel=0 note=57 velocity=126 time=0.027083333333333334
EXTRACT: note_on channel=9 note=40 velocity=96 time=0.25
EXTRACT: note_on channel=9 note=48 velocity=126 time=0
EXTRACT: note_on channel=9 note=50 velocity=80 time=0
EXTRACT: note_on channel=0 note=57 velocity=0 time=0.22291666666666665
EXTRACT: note_on channel=9 note=40 velocity=0 time=0.275
EXTRACT: note_on channel=9 note=48 velocity=0 time=0
EXTRACT: note_on channel=9 note=50 velocity=0 time=0
EXTRACT: note_on channel=9 note=38 velocity=80 time=0.0020833333333333333
EXTRACT: note_on channel=9 note=51 velocity=96 time=0
EXTRACT: note_on channel=0 note=69 velocity=126 time=0.25
EXTRACT: note_on channel=0 note=69 velocity=0 time=0.23541666666666666
EXTRACT: note_on channel=0 note=81 velocity=126 time=0.014583333333333334
EXTRACT: note_on channel=0 note=81 velocity=0 time=0.23541666666666666
EXTRACT: note_on channel=1 note=45 velocity=0 time=0.2625
EXTRACT: note_on channel=9 note=38 velocity=0 time=0
EXTRACT: note_on channel=9 note=51 velocity=0 time=0
EXTRACT: note_on channel=0 note=60 velocity=126 time=0.0020833333333333333
EXTRACT: note_on channel=1 note=41 velocity=126 time=0
EXTRACT: note_on channel=2 note=77 velocity=126 time=0
EXTRACT: note_on channel=2 note=53 velocity=126 time=0
EXTRACT: note_on channel=9 note=40 velocity=96 time=0
EXTRACT: note_on channel=9 note=48 velocity=126 time=0
EXTRACT: note_on channel=9 note=50 velocity=80 time=0
EXTRACT: note_on channel=2 note=77 velocity=0 time=0.24791666666666667
EXTRACT: note_on channel=2 note=53 velocity=0 time=0
EXTRACT: note_on channel=2 note=81 velocity=126 time=0.0020833333333333333
EXTRACT: note_on channel=2 note=57 velocity=126 time=0
EXTRACT: note_on channel=2 note=81 velocity=0 time=0.24791666666666667
EXTRACT: note_on channel=2 note=57 velocity=0 time=0
EXTRACT: note_on channel=2 note=84 velocity=126 time=0.0020833333333333333
EXTRACT: note_on channel=2 note=60 velocity=126 time=0
EXTRACT: note_on channel=2 note=84 velocity=0 time=0.24791666666666667
EXTRACT: note_on channel=2 note=60 velocity=0 time=0
EXTRACT: note_on channel=2 note=81 velocity=126 time=0.0020833333333333333
EXTRACT: note_on channel=2 note=57 velocity=126 time=0
EXTRACT: note_on channel=2 note=81 velocity=0 time=0.24791666666666667
EXTRACT: note_on channel=2 note=57 velocity=0 time=0
EXTRACT: note_on channel=9 note=40 velocity=0 time=0
EXTRACT: note_on channel=9 note=48 velocity=0 time=0
EXTRACT: note_on channel=9 note=50 velocity=0 time=0
EXTRACT: note_on channel=9 note=38 velocity=80 time=0.0020833333333333333
EXTRACT: note_on channel=9 note=51 velocity=96 time=0
EXTRACT: note_on channel=0 note=60 velocity=0 time=0.18541666666666667
EXTRACT: note_on channel=0 note=59 velocity=126 time=0.06458333333333333
EXTRACT: note_on channel=0 note=59 velocity=0 time=0.47291666666666665
EXTRACT: note_on channel=0 note=59 velocity=126 time=0.027083333333333334
EXTRACT: note_on channel=1 note=41 velocity=0 time=0.24791666666666667
EXTRACT: note_on channel=9 note=38 velocity=0 time=0
EXTRACT: note_on channel=9 note=51 velocity=0 time=0
EXTRACT: note_on channel=1 note=33 velocity=126 time=0.0020833333333333333
EXTRACT: note_on channel=0 note=59 velocity=0 time=0.22291666666666665
EXTRACT: note_on channel=0 note=57 velocity=126 time=0.027083333333333334
EXTRACT: note_on channel=9 note=40 velocity=96 time=0.25
EXTRACT: note_on channel=9 note=48 velocity=126 time=0
EXTRACT: note_on channel=9 note=50 velocity=80 time=0
EXTRACT: note_on channel=0 note=57 velocity=0 time=0.22291666666666665
EXTRACT: note_on channel=0 note=57 velocity=126 time=0.027083333333333334
EXTRACT: note_on channel=9 note=40 velocity=0 time=0.24791666666666667
EXTRACT: note_on channel=9 note=48 velocity=0 time=0
EXTRACT: note_on channel=9 note=50 velocity=0 time=0
EXTRACT: note_on channel=9 note=38 velocity=80 time=0.0020833333333333333
EXTRACT: note_on channel=9 note=51 velocity=96 time=0
EXTRACT: note_on channel=0 note=57 velocity=0 time=0.22291666666666665
EXTRACT: note_on channel=0 note=55 velocity=126 time=0.027083333333333334
EXTRACT: note_on channel=0 note=55 velocity=0 time=0.7104166666666667
EXTRACT: note_on channel=1 note=33 velocity=0 time=0.0375
EXTRACT: note_on channel=9 note=38 velocity=0 time=0
EXTRACT: note_on channel=9 note=51 velocity=0 time=0
EXTRACT: note_on channel=0 note=60 velocity=126 time=0.0020833333333333333
EXTRACT: note_on channel=1 note=74 velocity=126 time=0
EXTRACT: note_on channel=1 note=38 velocity=126 time=0
EXTRACT: note_on channel=2 note=74 velocity=126 time=0
EXTRACT: note_on channel=2 note=38 velocity=126 time=0
EXTRACT: note_on channel=0 note=60 velocity=0 time=0.47291666666666665
EXTRACT: note_on channel=0 note=60 velocity=126 time=0.027083333333333334
EXTRACT: note_on channel=0 note=60 velocity=0 time=0.23541666666666666
EXTRACT: note_on channel=0 note=60 velocity=126 time=0.014583333333333334
EXTRACT: note_on channel=1 note=74 velocity=0 time=0.24791666666666667
EXTRACT: note_on channel=1 note=38 velocity=0 time=0
EXTRACT: note_on channel=2 note=74 velocity=0 time=0
EXTRACT: note_on channel=2 note=38 velocity=0 time=0
EXTRACT: note_on channel=1 note=72 velocity=126 time=0.0020833333333333333
EXTRACT: note_on channel=1 note=36 velocity=126 time=0
EXTRACT: note_on channel=2 note=72 velocity=126 time=0
EXTRACT: note_on channel=2 note=36 velocity=126 time=0
EXTRACT: note_on channel=0 note=60 velocity=0 time=0.22291666666666665
EXTRACT: note_on channel=0 note=62 velocity=126 time=0.027083333333333334
EXTRACT: note_on channel=0 note=62 velocity=0 time=0.47291666666666665
EXTRACT: note_on channel=0 note=59 velocity=126 time=0.027083333333333334
EXTRACT: note_on channel=1 note=72 velocity=0 time=0.24791666666666667
EXTRACT: note_on channel=1 note=36 velocity=0 time=0
EXTRACT: note_on channel=2 note=72 velocity=0 time=0
EXTRACT: note_on channel=2 note=36 velocity=0 time=0
EXTRACT: note_on channel=1 note=77 velocity=126 time=0.0020833333333333333
EXTRACT: note_on channel=1 note=41 velocity=126 time=0
EXTRACT: note_on channel=2 note=77 velocity=126 time=0
EXTRACT: note_on channel=2 note=41 velocity=126 time=0
EXTRACT: note_on channel=0 note=59 velocity=0 time=0.22291666666666665
EXTRACT: note_on channel=0 note=57 velocity=126 time=0.027083333333333334
EXTRACT: note_on channel=0 note=57 velocity=0 time=0.47291666666666665
EXTRACT: note_on channel=0 note=86 velocity=126 time=0.27708333333333335
EXTRACT: note_on channel=9 note=26 velocity=126 time=0
EXTRACT: note_on channel=9 note=40 velocity=96 time=0
EXTRACT: note_on channel=9 note=62 velocity=96 time=0
EXTRACT: note_on channel=9 note=57 velocity=126 time=0
EXTRACT: note_on channel=9 note=52 velocity=80 time=0
EXTRACT: note_on channel=9 note=38 velocity=80 time=0
EXTRACT: note_on channel=9 note=75 velocity=96 time=0
EXTRACT: note_on channel=0 note=86 velocity=0 time=0.47291666666666665
EXTRACT: note_on channel=0 note=72 velocity=126 time=0.027083333333333334
EXTRACT: note_on channel=0 note=72 velocity=0 time=0.23541666666666666
EXTRACT: note_on channel=0 note=72 velocity=126 time=0.014583333333333334
EXTRACT: note_on channel=0 note=72 velocity=0 time=0.23541666666666666
EXTRACT: note_on channel=1 note=77 velocity=0 time=0.0125
EXTRACT: note_on channel=1 note=41 velocity=0 time=0
EXTRACT: note_on channel=2 note=77 velocity=0 time=0
EXTRACT: note_on channel=2 note=41 velocity=0 time=0
EXTRACT: note_on channel=9 note=26 velocity=0 time=0
EXTRACT: note_on channel=9 note=40 velocity=0 time=0
EXTRACT: note_on channel=9 note=62 velocity=0 time=0
EXTRACT: note_on channel=9 note=57 velocity=0 time=0
EXTRACT: note_on channel=9 note=52 velocity=0 time=0
EXTRACT: note_on channel=9 note=38 velocity=0 time=0
EXTRACT: note_on channel=9 note=75 velocity=0 time=0
EXTRACT: note_on channel=0 note=69 velocity=126 time=0.0020833333333333333
EXTRACT: note_on channel=0 note=81 velocity=126 time=0
EXTRACT: note_on channel=1 note=77 velocity=126 time=0
EXTRACT: note_on channel=1 note=41 velocity=126 time=0
EXTRACT: note_on channel=2 note=77 velocity=126 time=0
EXTRACT: note_on channel=2 note=41 velocity=126 time=0
EXTRACT: note_on channel=9 note=96 velocity=126 time=0
EXTRACT: note_on channel=9 note=40 velocity=96 time=0
EXTRACT: note_on channel=9 note=48 velocity=80 time=0
EXTRACT: note_on channel=9 note=38 velocity=80 time=0
EXTRACT: note_on channel=9 note=51 velocity=126 time=0
EXTRACT: note_on channel=0 note=69 velocity=0 time=0.47291666666666665
EXTRACT: note_on channel=0 note=81 velocity=0 time=0
EXTRACT: note_on channel=0 note=69 velocity=126 time=0.027083333333333334
EXTRACT: note_on channel=0 note=81 velocity=126 time=0
EXTRACT: note_on channel=0 note=69 velocity=0 time=0.23541666666666666
EXTRACT: note_on channel=0 note=81 velocity=0 time=0
EXTRACT: note_on channel=0 note=69 velocity=126 time=0.014583333333333334
EXTRACT: note_on channel=0 note=81 velocity=126 time=0
EXTRACT: note_on channel=0 note=69 velocity=0 time=0.23541666666666666
EXTRACT: note_on channel=0 note=81 velocity=0 time=0
EXTRACT: note_on channel=9 note=96 velocity=0 time=0.0125
EXTRACT: note_on channel=9 note=40 velocity=0 time=0
EXTRACT: note_on channel=9 note=48 velocity=0 time=0
EXTRACT: note_on channel=9 note=38 velocity=0 time=0
EXTRACT: note_on channel=9 note=51 velocity=0 time=0
EXTRACT: note_on channel=0 note=69 velocity=126 time=0.0020833333333333333
EXTRACT: note_on channel=0 note=81 velocity=126 time=0
EXTRACT: note_on channel=9 note=96 velocity=126 time=0
EXTRACT: note_on channel=9 note=40 velocity=96 time=0
EXTRACT: note_on channel=9 note=62 velocity=96 time=0
EXTRACT: note_on channel=9 note=57 velocity=126 time=0
EXTRACT: note_on channel=9 note=48 velocity=80 time=0
EXTRACT: note_on channel=9 note=38 velocity=80 time=0
EXTRACT: note_on channel=9 note=54 velocity=126 time=0
EXTRACT: note_on channel=9 note=51 velocity=126 time=0
EXTRACT: note_on channel=0 note=69 velocity=0 time=0.47291666666666665
EXTRACT: note_on channel=0 note=81 velocity=0 time=0
EXTRACT: note_on channel=0 note=72 velocity=126 time=0.027083333333333334
EXTRACT: note_on channel=0 note=84 velocity=126 time=0
EXTRACT: note_on channel=0 note=72 velocity=0 time=0.47291666666666665
EXTRACT: note_on channel=0 note=84 velocity=0 time=0
EXTRACT: note_on channel=1 note=77 velocity=0 time=0.025
EXTRACT: note_on channel=1 note=41 velocity=0 time=0
EXTRACT: note_on channel=2 note=77 velocity=0 time=0
EXTRACT: note_on channel=2 note=41 velocity=0 time=0
EXTRACT: note_on channel=9 note=96 velocity=0 time=0
EXTRACT: note_on channel=9 note=40 velocity=0 time=0
EXTRACT: note_on channel=9 note=62 velocity=0 time=0
EXTRACT: note_on channel=9 note=57 velocity=0 time=0
EXTRACT: note_on channel=9 note=48 velocity=0 time=0
EXTRACT: note_on channel=9 note=38 velocity=0 time=0
EXTRACT: note_on channel=9 note=54 velocity=0 time=0
EXTRACT: note_on channel=9 note=51 velocity=0 time=0
EXTRACT: note_on channel=0 note=74 velocity=126 time=0.0020833333333333333
EXTRACT: note_on channel=0 note=86 velocity=126 time=0
EXTRACT: note_on channel=1 note=76 velocity=126 time=0
EXTRACT: note_on channel=1 note=40 velocity=126 time=0
EXTRACT: note_on channel=2 note=76 velocity=126 time=0
EXTRACT: note_on channel=2 note=40 velocity=126 time=0
EXTRACT: note_on channel=9 note=96 velocity=126 time=0
EXTRACT: note_on channel=9 note=40 velocity=96 time=0
EXTRACT: note_on channel=9 note=48 velocity=80 time=0
EXTRACT: note_on channel=9 note=38 velocity=80 time=0
EXTRACT: note_on channel=9 note=51 velocity=126 time=0
EXTRACT: note_on channel=0 note=74 velocity=0 time=0.7104166666666667
EXTRACT: note_on channel=0 note=86 velocity=0 time=0
EXTRACT: note_on channel=0 note=69 velocity=126 time=0.03958333333333333
EXTRACT: note_on channel=0 note=81 velocity=126 time=0
EXTRACT: note_on channel=9 note=96 velocity=0 time=0.24791666666666667
EXTRACT: note_on channel=9 note=40 velocity=0 time=0
EXTRACT: note_on channel=9 note=48 velocity=0 time=0
EXTRACT: note_on channel=9 note=38 velocity=0 time=0
EXTRACT: note_on channel=9 note=51 velocity=0 time=0
EXTRACT: note_on channel=9 note=96 velocity=126 time=0.0020833333333333333
EXTRACT: note_on channel=9 note=40 velocity=96 time=0
EXTRACT: note_on channel=9 note=62 velocity=96 time=0
EXTRACT: note_on channel=9 note=57 velocity=126 time=0
EXTRACT: note_on channel=9 note=48 velocity=80 time=0
EXTRACT: note_on channel=9 note=38 velocity=80 time=0
EXTRACT: note_on channel=9 note=54 velocity=126 time=0
EXTRACT: note_on channel=9 note=51 velocity=126 time=0
EXTRACT: note_on channel=0 note=69 velocity=0 time=0.22291666666666665
EXTRACT: note_on channel=0 note=81 velocity=0 time=0
EXTRACT: note_on channel=1 note=76 velocity=0 time=0.775
EXTRACT: note_on channel=1 note=40 velocity=0 time=0
EXTRACT: note_on channel=2 note=76 velocity=0 time=0
EXTRACT: note_on channel=2 note=40 velocity=0 time=0
EXTRACT: note_on channel=9 note=96 velocity=0 time=0
EXTRACT: note_on channel=9 note=40 velocity=0 time=0
EXTRACT: note_on channel=9 note=62 velocity=0 time=0
EXTRACT: note_on channel=9 note=57 velocity=0 time=0
EXTRACT: note_on channel=9 note=48 velocity=0 time=0
EXTRACT: note_on channel=9 note=38 velocity=0 time=0
EXTRACT: note_on channel=9 note=54 velocity=0 time=0
EXTRACT: note_on channel=9 note=51 velocity=0 time=0
EXTRACT: note_on channel=0 note=69 velocity=126 time=0.0020833333333333333
EXTRACT: note_on channel=0 note=81 velocity=126 time=0
EXTRACT: note_on channel=1 note=81 velocity=126 time=0
EXTRACT: note_on channel=1 note=33 velocity=126 time=0
EXTRACT: note_on channel=2 note=69 velocity=126 time=0
EXTRACT: note_on channel=2 note=81 velocity=126 time=0
EXTRACT: note_on channel=2 note=45 velocity=126 time=0
EXTRACT: note_on channel=9 note=96 velocity=126 time=0
EXTRACT: note_on channel=9 note=40 velocity=96 time=0
EXTRACT: note_on channel=9 note=48 velocity=80 time=0
EXTRACT: note_on channel=9 note=38 velocity=80 time=0
EXTRACT: note_on channel=9 note=51 velocity=126 time=0
EXTRACT: note_on channel=0 note=69 velocity=0 time=0.23541666666666666
EXTRACT: note_on channel=0 note=81 velocity=0 time=0
EXTRACT: note_on channel=0 note=69 velocity=126 time=0.014583333333333334
EXTRACT: note_on channel=0 note=81 velocity=126 time=0
EXTRACT: note_on channel=0 note=69 velocity=0 time=0.23541666666666666
EXTRACT: note_on channel=0 note=81 velocity=0 time=0
EXTRACT: note_on channel=0 note=69 velocity=126 time=0.014583333333333334
EXTRACT: note_on channel=0 note=81 velocity=126 time=0
EXTRACT: note_on channel=0 note=69 velocity=0 time=0.23541666666666666
EXTRACT: note_on channel=0 note=81 velocity=0 time=0
EXTRACT: note_on channel=0 note=69 velocity=126 time=0.014583333333333334
EXTRACT: note_on channel=0 note=81 velocity=126 time=0
EXTRACT: note_on channel=0 note=69 velocity=0 time=0.23541666666666666
EXTRACT: note_on channel=0 note=81 velocity=0 time=0
EXTRACT: note_on channel=9 note=96 velocity=0 time=0.0125
EXTRACT: note_on channel=9 note=40 velocity=0 time=0
EXTRACT: note_on channel=9 note=48 velocity=0 time=0
EXTRACT: note_on channel=9 note=38 velocity=0 time=0
EXTRACT: note_on channel=9 note=51 velocity=0 time=0
EXTRACT: note_on channel=0 note=69 velocity=126 time=0.0020833333333333333
EXTRACT: note_on channel=0 note=81 velocity=126 time=0
EXTRACT: note_on channel=9 note=96 velocity=126 time=0
EXTRACT: note_on channel=9 note=40 velocity=96 time=0
EXTRACT: note_on channel=9 note=62 velocity=96 time=0
EXTRACT: note_on channel=9 note=57 velocity=126 time=0
EXTRACT: note_on channel=9 note=48 velocity=80 time=0
EXTRACT: note_on channel=9 note=38 velocity=80 time=0
EXTRACT: note_on channel=9 note=54 velocity=126 time=0
EXTRACT: note_on channel=9 note=51 velocity=126 time=0
EXTRACT: note_on channel=0 note=69 velocity=0 time=0.47291666666666665
EXTRACT: note_on channel=0 note=81 velocity=0 time=0
EXTRACT: note_on channel=0 note=72 velocity=126 time=0.027083333333333334
EXTRACT: note_on channel=0 note=84 velocity=126 time=0
EXTRACT: note_on channel=0 note=72 velocity=0 time=0.47291666666666665
EXTRACT: note_on channel=0 note=84 velocity=0 time=0
EXTRACT: note_on channel=1 note=81 velocity=0 time=0.025
EXTRACT: note_on channel=1 note=33 velocity=0 time=0
EXTRACT: note_on channel=9 note=96 velocity=0 time=0
EXTRACT: note_on channel=9 note=40 velocity=0 time=0
EXTRACT: note_on channel=9 note=62 velocity=0 time=0
EXTRACT: note_on channel=9 note=57 velocity=0 time=0
EXTRACT: note_on channel=9 note=48 velocity=0 time=0
EXTRACT: note_on channel=9 note=38 velocity=0 time=0
EXTRACT: note_on channel=9 note=54 velocity=0 time=0
EXTRACT: note_on channel=9 note=51 velocity=0 time=0
EXTRACT: note_on channel=0 note=74 velocity=126 time=0.0020833333333333333
EXTRACT: note_on channel=0 note=86 velocity=126 time=0
EXTRACT: note_on channel=9 note=96 velocity=126 time=0
EXTRACT: note_on channel=9 note=40 velocity=96 time=0
EXTRACT: note_on channel=9 note=48 velocity=80 time=0
EXTRACT: note_on channel=9 note=38 velocity=80 time=0
EXTRACT: note_on channel=9 note=51 velocity=126 time=0
EXTRACT: note_on channel=0 note=74 velocity=0 time=0.47291666666666665
EXTRACT: note_on channel=0 note=86 velocity=0 time=0
EXTRACT: note_on channel=0 note=69 velocity=126 time=0.027083333333333334
EXTRACT: note_on channel=0 note=81 velocity=126 time=0
EXTRACT: note_on channel=0 note=69 velocity=0 time=0.47291666666666665
EXTRACT: note_on channel=0 note=81 velocity=0 time=0
EXTRACT: note_on channel=9 note=96 velocity=0 time=0.025
EXTRACT: note_on channel=9 note=40 velocity=0 time=0
EXTRACT: note_on channel=9 note=48 velocity=0 time=0
EXTRACT: note_on channel=9 note=38 velocity=0 time=0
EXTRACT: note_on channel=9 note=51 velocity=0 time=0
EXTRACT: note_on channel=1 note=57 velocity=126 time=0.0020833333333333333
EXTRACT: note_on channel=1 note=33 velocity=126 time=0
EXTRACT: note_on channel=9 note=96 velocity=126 time=0
EXTRACT: note_on channel=9 note=40 velocity=96 time=0
EXTRACT: note_on channel=9 note=62 velocity=96 time=0
EXTRACT: note_on channel=9 note=57 velocity=126 time=0
EXTRACT: note_on channel=9 note=48 velocity=80 time=0
EXTRACT: note_on channel=9 note=38 velocity=80 time=0
EXTRACT: note_on channel=9 note=54 velocity=126 time=0
EXTRACT: note_on channel=9 note=51 velocity=126 time=0
EXTRACT: note_on channel=1 note=57 velocity=0 time=0.4979166666666667
EXTRACT: note_on channel=1 note=33 velocity=0 time=0
EXTRACT: note_on channel=1 note=57 velocity=126 time=0.0020833333333333333
EXTRACT: note_on channel=1 note=81 velocity=126 time=0
EXTRACT: note_on channel=1 note=33 velocity=126 time=0
EXTRACT: note_on channel=1 note=57 velocity=126 time=0
EXTRACT: note_on channel=1 note=57 velocity=0 time=0.4979166666666667
EXTRACT: note_on channel=1 note=81 velocity=0 time=0
EXTRACT: note_on channel=1 note=33 velocity=0 time=0
EXTRACT: note_on channel=1 note=57 velocity=0 time=0
EXTRACT: note_on channel=2 note=69 velocity=0 time=0
EXTRACT: note_on channel=2 note=81 velocity=0 time=0
EXTRACT: note_on channel=2 note=45 velocity=0 time=0
EXTRACT: note_on channel=9 note=96 velocity=0 time=0
EXTRACT: note_on channel=9 note=40 velocity=0 time=0
EXTRACT: note_on channel=9 note=62 velocity=0 time=0
EXTRACT: note_on channel=9 note=57 velocity=0 time=0
EXTRACT: note_on channel=9 note=48 velocity=0 time=0
EXTRACT: note_on channel=9 note=38 velocity=0 time=0
EXTRACT: note_on channel=9 note=54 velocity=0 time=0
EXTRACT: note_on channel=9 note=51 velocity=0 time=0
EXTRACT: note_on channel=0 note=69 velocity=96 time=0.0020833333333333333
EXTRACT: note_on channel=0 note=81 velocity=96 time=0
EXTRACT: note_on channel=0 note=41 velocity=96 time=0
EXTRACT: note_on channel=1 note=77 velocity=80 time=0
EXTRACT: note_on channel=1 note=53 velocity=80 time=0
EXTRACT: note_on channel=2 note=81 velocity=126 time=0
EXTRACT: note_on channel=2 note=45 velocity=126 time=0
EXTRACT: note_on channel=3 note=81 velocity=80 time=0
EXTRACT: note_on channel=3 note=93 velocity=80 time=0
EXTRACT: note_on channel=9 note=96 velocity=126 time=0
EXTRACT: note_on channel=9 note=40 velocity=96 time=0
EXTRACT: note_on channel=9 note=48 velocity=80 time=0
EXTRACT: note_on channel=9 note=38 velocity=80 time=0
EXTRACT: note_on channel=9 note=51 velocity=126 time=0
EXTRACT: note_on channel=0 note=69 velocity=0 time=0.23541666666666666
EXTRACT: note_on channel=0 note=81 velocity=0 time=0
EXTRACT: note_on channel=1 note=77 velocity=0 time=0.0125
EXTRACT: note_on channel=1 note=53 velocity=0 time=0
EXTRACT: note_on channel=0 note=69 velocity=96 time=0.0020833333333333333
EXTRACT: note_on channel=0 note=81 velocity=96 time=0
EXTRACT: note_on channel=1 note=77 velocity=80 time=0
EXTRACT: note_on channel=1 note=53 velocity=80 time=0
EXTRACT: note_on channel=1 note=77 velocity=0 time=0.24791666666666667
EXTRACT: note_on channel=1 note=53 velocity=0 time=0
EXTRACT: note_on channel=1 note=77 velocity=80 time=0.0020833333333333333
EXTRACT: note_on channel=1 note=53 velocity=80 time=0
EXTRACT: note_on channel=0 note=69 velocity=0 time=0.22291666666666665
EXTRACT: note_on channel=0 note=81 velocity=0 time=0
EXTRACT: note_on channel=1 note=77 velocity=0 time=0.025
EXTRACT: note_on channel=1 note=53 velocity=0 time=0
EXTRACT: note_on channel=0 note=76 velocity=96 time=0.0020833333333333333
EXTRACT: note_on channel=0 note=88 velocity=96 time=0
EXTRACT: note_on channel=1 note=77 velocity=80 time=0
EXTRACT: note_on channel=1 note=53 velocity=80 time=0
EXTRACT: note_on channel=0 note=76 velocity=0 time=0.23541666666666666
EXTRACT: note_on channel=0 note=88 velocity=0 time=0
EXTRACT: note_on channel=1 note=77 velocity=0 time=0.0125
EXTRACT: note_on channel=1 note=53 velocity=0 time=0
EXTRACT: note_on channel=9 note=96 velocity=0 time=0
EXTRACT: note_on channel=9 note=40 velocity=0 time=0
EXTRACT: note_on channel=9 note=48 velocity=0 time=0
EXTRACT: note_on channel=9 note=38 velocity=0 time=0
EXTRACT: note_on channel=9 note=51 velocity=0 time=0
EXTRACT: note_on channel=0 note=74 velocity=96 time=0.0020833333333333333
EXTRACT: note_on channel=0 note=86 velocity=96 time=0
EXTRACT: note_on channel=1 note=77 velocity=80 time=0
EXTRACT: note_on channel=1 note=53 velocity=80 time=0
EXTRACT: note_on channel=9 note=96 velocity=126 time=0
EXTRACT: note_on channel=9 note=40 velocity=96 time=0
EXTRACT: note_on channel=9 note=62 velocity=96 time=0
EXTRACT: note_on channel=9 note=57 velocity=126 time=0
EXTRACT: note_on channel=9 note=48 velocity=80 time=0
EXTRACT: note_on channel=9 note=38 velocity=80 time=0
EXTRACT: note_on channel=9 note=54 velocity=126 time=0
EXTRACT: note_on channel=9 note=51 velocity=126 time=0
EXTRACT: note_on channel=1 note=77 velocity=0 time=0.24791666666666667
EXTRACT: note_on channel=1 note=53 velocity=0 time=0
EXTRACT: note_on channel=1 note=77 velocity=80 time=0.0020833333333333333
EXTRACT: note_on channel=1 note=53 velocity=80 time=0
EXTRACT: note_on channel=0 note=74 velocity=0 time=0.22291666666666665
EXTRACT: note_on channel=0 note=86 velocity=0 time=0
EXTRACT: note_on channel=1 note=77 velocity=0 time=0.025
EXTRACT: note_on channel=1 note=53 velocity=0 time=0
EXTRACT: note_on channel=0 note=72 velocity=96 time=0.0020833333333333333
EXTRACT: note_on channel=0 note=84 velocity=96 time=0
EXTRACT: note_on channel=1 note=77 velocity=80 time=0
EXTRACT: note_on channel=1 note=53 velocity=80 time=0
EXTRACT: note_on channel=0 note=72 velocity=0 time=0.23541666666666666
EXTRACT: note_on channel=0 note=84 velocity=0 time=0
EXTRACT: note_on channel=1 note=77 velocity=0 time=0.0125
EXTRACT: note_on channel=1 note=53 velocity=0 time=0
EXTRACT: note_on channel=0 note=69 velocity=96 time=0.0020833333333333333
EXTRACT: note_on channel=0 note=81 velocity=96 time=0
EXTRACT: note_on channel=1 note=77 velocity=80 time=0
EXTRACT: note_on channel=1 note=53 velocity=80 time=0
EXTRACT: note_on channel=0 note=41 velocity=0 time=0.14791666666666667
EXTRACT: note_on channel=0 note=69 velocity=0 time=0.0875
EXTRACT: note_on channel=0 note=81 velocity=0 time=0
EXTRACT: note_on channel=1 note=77 velocity=0 time=0.0125
EXTRACT: note_on channel=1 note=53 velocity=0 time=0
EXTRACT: note_on channel=2 note=81 velocity=0 time=0
EXTRACT: note_on channel=2 note=45 velocity=0 time=0
EXTRACT: note_on channel=3 note=81 velocity=0 time=0
EXTRACT: note_on channel=3 note=93 velocity=0 time=0
EXTRACT: note_on channel=9 note=96 velocity=0 time=0
EXTRACT: note_on channel=9 note=40 velocity=0 time=0
EXTRACT: note_on channel=9 note=62 velocity=0 time=0
EXTRACT: note_on channel=9 note=57 velocity=0 time=0
EXTRACT: note_on channel=9 note=48 velocity=0 time=0
EXTRACT: note_on channel=9 note=38 velocity=0 time=0
EXTRACT: note_on channel=9 note=54 velocity=0 time=0
EXTRACT: note_on channel=9 note=51 velocity=0 time=0
EXTRACT: note_on channel=0 note=74 velocity=96 time=0.0020833333333333333
EXTRACT: note_on channel=0 note=86 velocity=96 time=0
EXTRACT: note_on channel=0 note=33 velocity=96 time=0
EXTRACT: note_on channel=1 note=57 velocity=80 time=0
EXTRACT: note_on channel=1 note=45 velocity=80 time=0
EXTRACT: note_on channel=2 note=76 velocity=126 time=0
EXTRACT: note_on channel=2 note=40 velocity=126 time=0
EXTRACT: note_on channel=3 note=76 velocity=80 time=0
EXTRACT: note_on channel=3 note=88 velocity=80 time=0
EXTRACT: note_on channel=9 note=96 velocity=126 time=0
EXTRACT: note_on channel=9 note=40 velocity=96 time=0
EXTRACT: note_on channel=9 note=48 velocity=80 time=0
EXTRACT: note_on channel=9 note=38 velocity=80 time=0
EXTRACT: note_on channel=9 note=51 velocity=126 time=0
EXTRACT: note_on channel=0 note=74 velocity=0 time=0.23541666666666666
EXTRACT: note_on channel=0 note=86 velocity=0 time=0
EXTRACT: note_on channel=1 note=57 velocity=0 time=0.0125
EXTRACT: note_on channel=1 note=45 velocity=0 time=0
EXTRACT: note_on channel=0 note=69 velocity=96 time=0.0020833333333333333
EXTRACT: note_on channel=0 note=81 velocity=96 time=0
EXTRACT: note_on channel=1 note=57 velocity=80 time=0
EXTRACT: note_on channel=1 note=45 velocity=80 time=0
EXTRACT: note_on channel=0 note=69 velocity=0 time=0.23541666666666666
EXTRACT: note_on channel=0 note=81 velocity=0 time=0
EXTRACT: note_on channel=1 note=57 velocity=0 time=0.0125
EXTRACT: note_on channel=1 note=45 velocity=0 time=0
EXTRACT: note_on channel=0 note=67 velocity=96 time=0.0020833333333333333
EXTRACT: note_on channel=0 note=79 velocity=96 time=0
EXTRACT: note_on channel=1 note=57 velocity=80 time=0
EXTRACT: note_on channel=1 note=45 velocity=80 time=0
EXTRACT: note_on channel=0 note=67 velocity=0 time=0.23541666666666666
EXTRACT: note_on channel=0 note=79 velocity=0 time=0
EXTRACT: note_on channel=1 note=57 velocity=0 time=0.0125
EXTRACT: note_on channel=1 note=45 velocity=0 time=0
EXTRACT: note_on channel=0 note=69 velocity=96 time=0.0020833333333333333
EXTRACT: note_on channel=0 note=81 velocity=96 time=0
EXTRACT: note_on channel=1 note=57 velocity=80 time=0
EXTRACT: note_on channel=1 note=45 velocity=80 time=0
EXTRACT: note_on channel=1 note=57 velocity=0 time=0.24791666666666667
EXTRACT: note_on channel=1 note=45 velocity=0 time=0
EXTRACT: note_on channel=9 note=96 velocity=0 time=0
EXTRACT: note_on channel=9 note=40 velocity=0 time=0
EXTRACT: note_on channel=9 note=48 velocity=0 time=0
EXTRACT: note_on channel=9 note=38 velocity=0 time=0
EXTRACT: note_on channel=9 note=51 velocity=0 time=0
EXTRACT: note_on channel=1 note=57 velocity=80 time=0.0020833333333333333
EXTRACT: note_on channel=1 note=45 velocity=80 time=0
EXTRACT: note_on channel=9 note=96 velocity=126 time=0
EXTRACT: note_on channel=9 note=40 velocity=96 time=0
EXTRACT: note_on channel=9 note=62 velocity=96 time=0
EXTRACT: note_on channel=9 note=57 velocity=126 time=0
EXTRACT: note_on channel=9 note=48 velocity=80 time=0
EXTRACT: note_on channel=9 note=38 velocity=80 time=0
EXTRACT: note_on channel=9 note=54 velocity=126 time=0
EXTRACT: note_on channel=9 note=51 velocity=126 time=0
EXTRACT: note_on channel=0 note=69 velocity=0 time=0.22291666666666665
EXTRACT: note_on channel=0 note=81 velocity=0 time=0
EXTRACT: note_on channel=1 note=57 velocity=0 time=0.025
EXTRACT: note_on channel=1 note=45 velocity=0 time=0
EXTRACT: note_on channel=1 note=57 velocity=80 time=0.0020833333333333333
EXTRACT: note_on channel=1 note=45 velocity=80 time=0
EXTRACT: note_on channel=1 note=57 velocity=0 time=0.24791666666666667
EXTRACT: note_on channel=1 note=45 velocity=0 time=0
EXTRACT: note_on channel=1 note=57 velocity=80 time=0.0020833333333333333
EXTRACT: note_on channel=1 note=45 velocity=80 time=0
EXTRACT: note_on channel=1 note=57 velocity=0 time=0.24791666666666667
EXTRACT: note_on channel=1 note=45 velocity=0 time=0
EXTRACT: note_on channel=0 note=67 velocity=96 time=0.0020833333333333333
EXTRACT: note_on channel=0 note=79 velocity=96 time=0
EXTRACT: note_on channel=1 note=57 velocity=80 time=0
EXTRACT: note_on channel=1 note=45 velocity=80 time=0
EXTRACT: note_on channel=0 note=33 velocity=0 time=0.14791666666666667
EXTRACT: note_on channel=0 note=67 velocity=0 time=0.0875
EXTRACT: note_on channel=0 note=79 velocity=0 time=0
EXTRACT: note_on channel=1 note=57 velocity=0 time=0.0125
EXTRACT: note_on channel=1 note=45 velocity=0 time=0
EXTRACT: note_on channel=2 note=76 velocity=0 time=0
EXTRACT: note_on channel=2 note=40 velocity=0 time=0
EXTRACT: note_on channel=3 note=76 velocity=0 time=0
EXTRACT: note_on channel=3 note=88 velocity=0 time=0
EXTRACT: note_on channel=9 note=96 velocity=0 time=0
EXTRACT: note_on channel=9 note=40 velocity=0 time=0
EXTRACT: note_on channel=9 note=62 velocity=0 time=0
EXTRACT: note_on channel=9 note=57 velocity=0 time=0
EXTRACT: note_on channel=9 note=48 velocity=0 time=0
EXTRACT: note_on channel=9 note=38 velocity=0 time=0
EXTRACT: note_on channel=9 note=54 velocity=0 time=0
EXTRACT: note_on channel=9 note=51 velocity=0 time=0
EXTRACT: note_on channel=0 note=69 velocity=96 time=0.0020833333333333333
EXTRACT: note_on channel=0 note=81 velocity=96 time=0
EXTRACT: note_on channel=1 note=74 velocity=80 time=0
EXTRACT: note_on channel=1 note=50 velocity=80 time=0
EXTRACT: note_on channel=2 note=77 velocity=126 time=0
EXTRACT: note_on channel=2 note=41 velocity=126 time=0
EXTRACT: note_on channel=3 note=77 velocity=80 time=0
EXTRACT: note_on channel=3 note=89 velocity=80 time=0
EXTRACT: note_on channel=9 note=96 velocity=126 time=0
EXTRACT: note_on channel=9 note=40 velocity=96 time=0
EXTRACT: note_on channel=9 note=48 velocity=80 time=0
EXTRACT: note_on channel=9 note=38 velocity=80 time=0
EXTRACT: note_on channel=9 note=51 velocity=126 time=0
EXTRACT: note_on channel=0 note=69 velocity=0 time=0.23541666666666666
EXTRACT: note_on channel=0 note=81 velocity=0 time=0
EXTRACT: note_on channel=1 note=74 velocity=0 time=0.0125
EXTRACT: note_on channel=1 note=50 velocity=0 time=0
EXTRACT: note_on channel=0 note=69 velocity=96 time=0.0020833333333333333
EXTRACT: note_on channel=0 note=81 velocity=96 time=0
EXTRACT: note_on channel=1 note=74 velocity=80 time=0
EXTRACT: note_on channel=1 note=50 velocity=80 time=0
EXTRACT: note_on channel=0 note=69 velocity=0 time=0.23541666666666666
EXTRACT: note_on channel=0 note=81 velocity=0 time=0
EXTRACT: note_on channel=1 note=74 velocity=0 time=0.0125
EXTRACT: note_on channel=1 note=50 velocity=0 time=0
EXTRACT: note_on channel=0 note=69 velocity=96 time=0.0020833333333333333
EXTRACT: note_on channel=0 note=81 velocity=96 time=0
EXTRACT: note_on channel=1 note=74 velocity=80 time=0
EXTRACT: note_on channel=1 note=50 velocity=80 time=0
EXTRACT: note_on channel=0 note=69 velocity=0 time=0.23541666666666666
EXTRACT: note_on channel=0 note=81 velocity=0 time=0
EXTRACT: note_on channel=1 note=74 velocity=0 time=0.0125
EXTRACT: note_on channel=1 note=50 velocity=0 time=0
EXTRACT: note_on channel=0 note=69 velocity=96 time=0.0020833333333333333
EXTRACT: note_on channel=0 note=81 velocity=96 time=0
EXTRACT: note_on channel=1 note=74 velocity=80 time=0
EXTRACT: note_on channel=1 note=50 velocity=80 time=0
EXTRACT: note_on channel=0 note=69 velocity=0 time=0.23541666666666666
EXTRACT: note_on channel=0 note=81 velocity=0 time=0
EXTRACT: note_on channel=1 note=74 velocity=0 time=0.0125
EXTRACT: note_on channel=1 note=50 velocity=0 time=0
EXTRACT: note_on channel=2 note=77 velocity=0 time=0
EXTRACT: note_on channel=2 note=41 velocity=0 time=0
EXTRACT: note_on channel=3 note=77 velocity=0 time=0
EXTRACT: note_on channel=3 note=89 velocity=0 time=0
EXTRACT: note_on channel=9 note=96 velocity=0 time=0
EXTRACT: note_on channel=9 note=40 velocity=0 time=0
EXTRACT: note_on channel=9 note=48 velocity=0 time=0
EXTRACT: note_on channel=9 note=38 velocity=0 time=0
EXTRACT: note_on channel=9 note=51 velocity=0 time=0
EXTRACT: note_on channel=0 note=72 velocity=96 time=0.0020833333333333333
EXTRACT: note_on channel=0 note=84 velocity=96 time=0
EXTRACT: note_on channel=1 note=72 velocity=80 time=0
EXTRACT: note_on channel=1 note=48 velocity=80 time=0
EXTRACT: note_on channel=2 note=76 velocity=126 time=0
EXTRACT: note_on channel=2 note=40 velocity=126 time=0
EXTRACT: note_on channel=3 note=76 velocity=80 time=0
EXTRACT: note_on channel=3 note=88 velocity=80 time=0
EXTRACT: note_on channel=9 note=96 velocity=126 time=0
EXTRACT: note_on channel=9 note=40 velocity=96 time=0
EXTRACT: note_on channel=9 note=62 velocity=96 time=0
EXTRACT: note_on channel=9 note=57 velocity=126 time=0
EXTRACT: note_on channel=9 note=48 velocity=80 time=0
EXTRACT: note_on channel=9 note=38 velocity=80 time=0
EXTRACT: note_on channel=9 note=54 velocity=126 time=0
EXTRACT: note_on channel=9 note=51 velocity=126 time=0
EXTRACT: note_on channel=1 note=72 velocity=0 time=0.24791666666666667
EXTRACT: note_on channel=1 note=48 velocity=0 time=0
EXTRACT: note_on channel=1 note=72 velocity=80 time=0.0020833333333333333
EXTRACT: note_on channel=1 note=48 velocity=80 time=0
EXTRACT: note_on channel=0 note=72 velocity=0 time=0.22291666666666665
EXTRACT: note_on channel=0 note=84 velocity=0 time=0
EXTRACT: note_on channel=1 note=72 velocity=0 time=0.025
EXTRACT: note_on channel=1 note=48 velocity=0 time=0
EXTRACT: note_on channel=0 note=69 velocity=96 time=0.0020833333333333333
EXTRACT: note_on channel=0 note=81 velocity=96 time=0
EXTRACT: note_on channel=1 note=72 velocity=80 time=0
EXTRACT: note_on channel=1 note=48 velocity=80 time=0
EXTRACT: note_on channel=0 note=69 velocity=0 time=0.23541666666666666
EXTRACT: note_on channel=0 note=81 velocity=0 time=0
EXTRACT: note_on channel=1 note=72 velocity=0 time=0.0125
EXTRACT: note_on channel=1 note=48 velocity=0 time=0
EXTRACT: note_on channel=0 note=67 velocity=96 time=0.0020833333333333333
EXTRACT: note_on channel=0 note=79 velocity=96 time=0
EXTRACT: note_on channel=1 note=72 velocity=80 time=0
EXTRACT: note_on channel=1 note=48 velocity=80 time=0
EXTRACT: note_on channel=0 note=67 velocity=0 time=0.23541666666666666
EXTRACT: note_on channel=0 note=79 velocity=0 time=0
EXTRACT: note_on channel=1 note=72 velocity=0 time=0.0125
EXTRACT: note_on channel=1 note=48 velocity=0 time=0
EXTRACT: note_on channel=2 note=76 velocity=0 time=0
EXTRACT: note_on channel=2 note=40 velocity=0 time=0
EXTRACT: note_on channel=3 note=76 velocity=0 time=0
EXTRACT: note_on channel=3 note=88 velocity=0 time=0
EXTRACT: note_on channel=9 note=96 velocity=0 time=0
EXTRACT: note_on channel=9 note=40 velocity=0 time=0
EXTRACT: note_on channel=9 note=62 velocity=0 time=0
EXTRACT: note_on channel=9 note=57 velocity=0 time=0
EXTRACT: note_on channel=9 note=48 velocity=0 time=0
EXTRACT: note_on channel=9 note=38 velocity=0 time=0
EXTRACT: note_on channel=9 note=54 velocity=0 time=0
EXTRACT: note_on channel=9 note=51 velocity=0 time=0
EXTRACT: note_on channel=0 note=69 velocity=96 time=0.0020833333333333333
EXTRACT: note_on channel=0 note=81 velocity=96 time=0
EXTRACT: note_on channel=0 note=93 velocity=96 time=0
EXTRACT: note_on channel=1 note=77 velocity=80 time=0
EXTRACT: note_on channel=1 note=53 velocity=80 time=0
EXTRACT: note_on channel=2 note=81 velocity=126 time=0
EXTRACT: note_on channel=2 note=45 velocity=126 time=0
EXTRACT: note_on channel=3 note=81 velocity=80 time=0
EXTRACT: note_on channel=3 note=93 velocity=80 time=0
EXTRACT: note_on channel=9 note=96 velocity=126 time=0
EXTRACT: note_on channel=9 note=40 velocity=96 time=0
EXTRACT: note_on channel=9 note=48 velocity=80 time=0
EXTRACT: note_on channel=9 note=38 velocity=80 time=0
EXTRACT: note_on channel=9 note=51 velocity=126 time=0
EXTRACT: note_on channel=0 note=69 velocity=0 time=0.23541666666666666
EXTRACT: note_on channel=0 note=81 velocity=0 time=0
EXTRACT: note_on channel=0 note=93 velocity=0 time=0
EXTRACT: note_on channel=1 note=77 velocity=0 time=0.0125
EXTRACT: note_on channel=1 note=53 velocity=0 time=0
EXTRACT: note_on channel=0 note=91 velocity=96 time=0.0020833333333333333
EXTRACT: note_on channel=1 note=77 velocity=80 time=0
EXTRACT: note_on channel=1 note=53 velocity=80 time=0
EXTRACT: note_on channel=0 note=91 velocity=0 time=0.23541666666666666
EXTRACT: note_on channel=1 note=77 velocity=0 time=0.0125
EXTRACT: note_on channel=1 note=53 velocity=0 time=0
EXTRACT: note_on channel=0 note=89 velocity=96 time=0.0020833333333333333
EXTRACT: note_on channel=1 note=77 velocity=80 time=0
EXTRACT: note_on channel=1 note=53 velocity=80 time=0
EXTRACT: note_on channel=0 note=89 velocity=0 time=0.23541666666666666
EXTRACT: note_on channel=1 note=77 velocity=0 time=0.0125
EXTRACT: note_on channel=1 note=53 velocity=0 time=0
EXTRACT: note_on channel=0 note=88 velocity=96 time=0.0020833333333333333
EXTRACT: note_on channel=1 note=77 velocity=80 time=0
EXTRACT: note_on channel=1 note=53 velocity=80 time=0
EXTRACT: note_on channel=0 note=88 velocity=0 time=0.23541666666666666
EXTRACT: note_on channel=1 note=77 velocity=0 time=0.0125
EXTRACT: note_on channel=1 note=53 velocity=0 time=0
EXTRACT: note_on channel=9 note=96 velocity=0 time=0
EXTRACT: note_on channel=9 note=40 velocity=0 time=0
EXTRACT: note_on channel=9 note=48 velocity=0 time=0
EXTRACT: note_on channel=9 note=38 velocity=0 time=0
EXTRACT: note_on channel=9 note=51 velocity=0 time=0
EXTRACT: note_on channel=0 note=86 velocity=96 time=0.0020833333333333333
EXTRACT: note_on channel=1 note=77 velocity=80 time=0
EXTRACT: note_on channel=1 note=53 velocity=80 time=0
EXTRACT: note_on channel=9 note=96 velocity=126 time=0
EXTRACT: note_on channel=9 note=40 velocity=96 time=0
EXTRACT: note_on channel=9 note=62 velocity=96 time=0
EXTRACT: note_on channel=9 note=57 velocity=126 time=0
EXTRACT: note_on channel=9 note=48 velocity=80 time=0
EXTRACT: note_on channel=9 note=38 velocity=80 time=0
EXTRACT: note_on channel=9 note=54 velocity=126 time=0
EXTRACT: note_on channel=9 note=51 velocity=126 time=0
EXTRACT: note_on channel=1 note=77 velocity=0 time=0.24791666666666667
EXTRACT: note_on channel=1 note=53 velocity=0 time=0
EXTRACT: note_on channel=1 note=77 velocity=80 time=0.0020833333333333333
EXTRACT: note_on channel=1 note=53 velocity=80 time=0
EXTRACT: note_on channel=0 note=86 velocity=0 time=0.22291666666666665
EXTRACT: note_on channel=1 note=77 velocity=0 time=0.025
EXTRACT: note_on channel=1 note=53 velocity=0 time=0
EXTRACT: note_on channel=0 note=81 velocity=96 time=0.0020833333333333333
EXTRACT: note_on channel=1 note=77 velocity=80 time=0
EXTRACT: note_on channel=1 note=53 velocity=80 time=0
EXTRACT: note_on channel=0 note=81 velocity=0 time=0.23541666666666666
EXTRACT: note_on channel=1 note=77 velocity=0 time=0.0125
EXTRACT: note_on channel=1 note=53 velocity=0 time=0
EXTRACT: note_on channel=9 note=38 velocity=0 time=0
EXTRACT: note_on channel=0 note=79 velocity=96 time=0.0020833333333333333
EXTRACT: note_on channel=1 note=77 velocity=80 time=0
EXTRACT: note_on channel=1 note=53 velocity=80 time=0
EXTRACT: note_on channel=9 note=38 velocity=126 time=0
EXTRACT: note_on channel=0 note=79 velocity=0 time=0.23541666666666666
EXTRACT: note_on channel=1 note=77 velocity=0 time=0.0125
EXTRACT: note_on channel=1 note=53 velocity=0 time=0
EXTRACT: note_on channel=2 note=81 velocity=0 time=0
EXTRACT: note_on channel=2 note=45 velocity=0 time=0
EXTRACT: note_on channel=3 note=81 velocity=0 time=0
EXTRACT: note_on channel=3 note=93 velocity=0 time=0
EXTRACT: note_on channel=9 note=96 velocity=0 time=0
EXTRACT: note_on channel=9 note=40 velocity=0 time=0
EXTRACT: note_on channel=9 note=62 velocity=0 time=0
EXTRACT: note_on channel=9 note=57 velocity=0 time=0
EXTRACT: note_on channel=9 note=48 velocity=0 time=0
EXTRACT: note_on channel=9 note=38 velocity=0 time=0
EXTRACT: note_on channel=9 note=54 velocity=0 time=0
EXTRACT: note_on channel=9 note=51 velocity=0 time=0
EXTRACT: note_on channel=0 note=69 velocity=96 time=0.0020833333333333333
EXTRACT: note_on channel=0 note=81 velocity=96 time=0
EXTRACT: note_on channel=1 note=77 velocity=80 time=0
EXTRACT: note_on channel=1 note=41 velocity=80 time=0
EXTRACT: note_on channel=2 note=77 velocity=126 time=0
EXTRACT: note_on channel=2 note=41 velocity=126 time=0
EXTRACT: note_on channel=9 note=96 velocity=126 time=0
EXTRACT: note_on channel=9 note=38 velocity=126 time=0
EXTRACT: note_on channel=9 note=48 velocity=126 time=0
EXTRACT: note_on channel=0 note=69 velocity=0 time=0.47291666666666665
EXTRACT: note_on channel=0 note=81 velocity=0 time=0
EXTRACT: note_on channel=0 note=69 velocity=96 time=0.027083333333333334
EXTRACT: note_on channel=0 note=81 velocity=96 time=0
EXTRACT: note_on channel=0 note=69 velocity=0 time=0.23541666666666666
EXTRACT: note_on channel=0 note=81 velocity=0 time=0
EXTRACT: note_on channel=0 note=69 velocity=96 time=0.014583333333333334
EXTRACT: note_on channel=0 note=81 velocity=96 time=0
EXTRACT: note_on channel=0 note=69 velocity=0 time=0.23541666666666666
EXTRACT: note_on channel=0 note=81 velocity=0 time=0
EXTRACT: note_on channel=9 note=96 velocity=0 time=0.0125
EXTRACT: note_on channel=9 note=38 velocity=0 time=0
EXTRACT: note_on channel=9 note=48 velocity=0 time=0
EXTRACT: note_on channel=0 note=69 velocity=96 time=0.0020833333333333333
EXTRACT: note_on channel=0 note=81 velocity=96 time=0
EXTRACT: note_on channel=9 note=96 velocity=126 time=0
EXTRACT: note_on channel=9 note=40 velocity=96 time=0
EXTRACT: note_on channel=9 note=62 velocity=96 time=0
EXTRACT: note_on channel=9 note=60 velocity=126 time=0
EXTRACT: note_on channel=9 note=50 velocity=80 time=0
EXTRACT: note_on channel=9 note=38 velocity=126 time=0
EXTRACT: note_on channel=9 note=54 velocity=126 time=0
EXTRACT: note_on channel=9 note=72 velocity=126 time=0
EXTRACT: note_on channel=0 note=69 velocity=0 time=0.47291666666666665
EXTRACT: note_on channel=0 note=81 velocity=0 time=0
EXTRACT: note_on channel=0 note=72 velocity=96 time=0.027083333333333334
EXTRACT: note_on channel=0 note=84 velocity=96 time=0
EXTRACT: note_on channel=0 note=72 velocity=0 time=0.47291666666666665
EXTRACT: note_on channel=0 note=84 velocity=0 time=0
EXTRACT: note_on channel=1 note=77 velocity=0 time=0.025
EXTRACT: note_on channel=1 note=41 velocity=0 time=0
EXTRACT: note_on channel=2 note=77 velocity=0 time=0
EXTRACT: note_on channel=2 note=41 velocity=0 time=0
EXTRACT: note_on channel=9 note=96 velocity=0 time=0
EXTRACT: note_on channel=9 note=40 velocity=0 time=0
EXTRACT: note_on channel=9 note=62 velocity=0 time=0
EXTRACT: note_on channel=9 note=60 velocity=0 time=0
EXTRACT: note_on channel=9 note=50 velocity=0 time=0
EXTRACT: note_on channel=9 note=38 velocity=0 time=0
EXTRACT: note_on channel=9 note=54 velocity=0 time=0
EXTRACT: note_on channel=9 note=72 velocity=0 time=0
EXTRACT: note_on channel=0 note=74 velocity=96 time=0.0020833333333333333
EXTRACT: note_on channel=0 note=86 velocity=96 time=0
EXTRACT: note_on channel=1 note=76 velocity=80 time=0
EXTRACT: note_on channel=1 note=40 velocity=80 time=0
EXTRACT: note_on channel=2 note=76 velocity=126 time=0
EXTRACT: note_on channel=2 note=40 velocity=126 time=0
EXTRACT: note_on channel=9 note=96 velocity=126 time=0
EXTRACT: note_on channel=9 note=38 velocity=126 time=0.5
EXTRACT: note_on channel=9 note=48 velocity=126 time=0
EXTRACT: note_on channel=0 note=74 velocity=0 time=0.21041666666666667
EXTRACT: note_on channel=0 note=86 velocity=0 time=0
EXTRACT: note_on channel=0 note=69 velocity=96 time=0.03958333333333333
EXTRACT: note_on channel=0 note=81 velocity=96 time=0
EXTRACT: note_on channel=9 note=96 velocity=0 time=0.24791666666666667
EXTRACT: note_on channel=9 note=38 velocity=0 time=0
EXTRACT: note_on channel=9 note=48 velocity=0 time=0
EXTRACT: note_on channel=9 note=96 velocity=126 time=0.0020833333333333333
EXTRACT: note_on channel=9 note=40 velocity=96 time=0
EXTRACT: note_on channel=9 note=62 velocity=96 time=0
EXTRACT: note_on channel=9 note=60 velocity=126 time=0
EXTRACT: note_on channel=9 note=50 velocity=80 time=0
EXTRACT: note_on channel=9 note=38 velocity=126 time=0
EXTRACT: note_on channel=9 note=54 velocity=126 time=0
EXTRACT: note_on channel=9 note=72 velocity=126 time=0
EXTRACT: note_on channel=0 note=69 velocity=0 time=0.22291666666666665
EXTRACT: note_on channel=0 note=81 velocity=0 time=0
EXTRACT: note_on channel=0 note=57 velocity=96 time=0.5270833333333333
EXTRACT: note_on channel=0 note=69 velocity=96 time=0
EXTRACT: note_on channel=0 note=57 velocity=0 time=0.23541666666666666
EXTRACT: note_on channel=0 note=69 velocity=0 time=0
EXTRACT: note_on channel=1 note=76 velocity=0 time=0.0125
EXTRACT: note_on channel=1 note=40 velocity=0 time=0
EXTRACT: note_on channel=2 note=76 velocity=0 time=0
EXTRACT: note_on channel=2 note=40 velocity=0 time=0
EXTRACT: note_on channel=9 note=96 velocity=0 time=0
EXTRACT: note_on channel=9 note=40 velocity=0 time=0
EXTRACT: note_on channel=9 note=62 velocity=0 time=0
EXTRACT: note_on channel=9 note=60 velocity=0 time=0
EXTRACT: note_on channel=9 note=50 velocity=0 time=0
EXTRACT: note_on channel=9 note=38 velocity=0 time=0
EXTRACT: note_on channel=9 note=54 velocity=0 time=0
EXTRACT: note_on channel=9 note=72 velocity=0 time=0
EXTRACT: note_on channel=0 note=69 velocity=96 time=0.0020833333333333333
EXTRACT: note_on channel=0 note=81 velocity=96 time=0
EXTRACT: note_on channel=1 note=81 velocity=80 time=0
EXTRACT: note_on channel=1 note=33 velocity=80 time=0
EXTRACT: note_on channel=2 note=81 velocity=80 time=0
EXTRACT: note_on channel=2 note=45 velocity=80 time=0
EXTRACT: note_on channel=9 note=96 velocity=126 time=0
EXTRACT: note_on channel=9 note=38 velocity=126 time=0
EXTRACT: note_on channel=9 note=48 velocity=126 time=0
EXTRACT: note_on channel=0 note=69 velocity=0 time=0.23541666666666666
EXTRACT: note_on channel=0 note=81 velocity=0 time=0
EXTRACT: note_on channel=0 note=69 velocity=96 time=0.014583333333333334
EXTRACT: note_on channel=0 note=81 velocity=96 time=0
EXTRACT: note_on channel=0 note=69 velocity=0 time=0.23541666666666666
EXTRACT: note_on channel=0 note=81 velocity=0 time=0
EXTRACT: note_on channel=0 note=69 velocity=96 time=0.014583333333333334
EXTRACT: note_on channel=0 note=81 velocity=96 time=0
EXTRACT: note_on channel=0 note=69 velocity=0 time=0.23541666666666666
EXTRACT: note_on channel=0 note=81 velocity=0 time=0
EXTRACT: note_on channel=0 note=69 velocity=96 time=0.014583333333333334
EXTRACT: note_on channel=0 note=81 velocity=96 time=0
EXTRACT: note_on channel=0 note=69 velocity=0 time=0.23541666666666666
EXTRACT: note_on channel=0 note=81 velocity=0 time=0
EXTRACT: note_on channel=9 note=96 velocity=0 time=0.0125
EXTRACT: note_on channel=9 note=38 velocity=0 time=0
EXTRACT: note_on channel=9 note=48 velocity=0 time=0
EXTRACT: note_on channel=0 note=69 velocity=96 time=0.0020833333333333333
EXTRACT: note_on channel=0 note=81 velocity=96 time=0
EXTRACT: note_on channel=9 note=96 velocity=126 time=0
EXTRACT: note_on channel=9 note=40 velocity=96 time=0
EXTRACT: note_on channel=9 note=60 velocity=126 time=0
EXTRACT: note_on channel=9 note=50 velocity=80 time=0
EXTRACT: note_on channel=9 note=38 velocity=126 time=0
EXTRACT: note_on channel=9 note=54 velocity=126 time=0
EXTRACT: note_on channel=9 note=72 velocity=126 time=0
EXTRACT: note_on channel=0 note=69 velocity=0 time=0.47291666666666665
EXTRACT: note_on channel=0 note=81 velocity=0 time=0
EXTRACT: note_on channel=0 note=72 velocity=96 time=0.027083333333333334
EXTRACT: note_on channel=0 note=84 velocity=96 time=0
EXTRACT: note_on channel=0 note=72 velocity=0 time=0.47291666666666665
EXTRACT: note_on channel=0 note=84 velocity=0 time=0
EXTRACT: note_on channel=1 note=81 velocity=0 time=0.025
EXTRACT: note_on channel=1 note=33 velocity=0 time=0
EXTRACT: note_on channel=9 note=96 velocity=0 time=0
EXTRACT: note_on channel=9 note=40 velocity=0 time=0
EXTRACT: note_on channel=9 note=60 velocity=0 time=0
EXTRACT: note_on channel=9 note=50 velocity=0 time=0
EXTRACT: note_on channel=9 note=38 velocity=0 time=0
EXTRACT: note_on channel=9 note=54 velocity=0 time=0
EXTRACT: note_on channel=9 note=72 velocity=0 time=0
EXTRACT: note_on channel=0 note=74 velocity=96 time=0.0020833333333333333
EXTRACT: note_on channel=0 note=86 velocity=96 time=0
EXTRACT: note_on channel=9 note=96 velocity=126 time=0
EXTRACT: note_on channel=9 note=62 velocity=126 time=0
EXTRACT: note_on channel=0 note=74 velocity=0 time=0.47291666666666665
EXTRACT: note_on channel=0 note=86 velocity=0 time=0
EXTRACT: note_on channel=9 note=62 velocity=0 time=0.025
EXTRACT: note_on channel=0 note=69 velocity=96 time=0.0020833333333333333
EXTRACT: note_on channel=0 note=81 velocity=96 time=0
EXTRACT: note_on channel=9 note=62 velocity=126 time=0
EXTRACT: note_on channel=0 note=69 velocity=0 time=0.47291666666666665
EXTRACT: note_on channel=0 note=81 velocity=0 time=0
EXTRACT: note_on channel=9 note=96 velocity=0 time=0.025
EXTRACT: note_on channel=9 note=62 velocity=0 time=0
EXTRACT: note_on channel=1 note=82 velocity=96 time=0.0020833333333333333
EXTRACT: note_on channel=1 note=58 velocity=96 time=0
EXTRACT: note_on channel=9 note=96 velocity=126 time=0
EXTRACT: note_on channel=9 note=40 velocity=96 time=0
EXTRACT: note_on channel=9 note=60 velocity=126 time=0
EXTRACT: note_on channel=9 note=50 velocity=80 time=0
EXTRACT: note_on channel=9 note=38 velocity=126 time=0
EXTRACT: note_on channel=9 note=54 velocity=126 time=0
EXTRACT: note_on channel=9 note=72 velocity=126 time=0
EXTRACT: note_on channel=1 note=82 velocity=0 time=0.12291666666666666
EXTRACT: note_on channel=1 note=58 velocity=0 time=0
EXTRACT: note_on channel=1 note=82 velocity=96 time=0.0020833333333333333
EXTRACT: note_on channel=1 note=58 velocity=96 time=0
EXTRACT: note_on channel=1 note=82 velocity=0 time=0.3729166666666667
EXTRACT: note_on channel=1 note=58 velocity=0 time=0
EXTRACT: note_on channel=1 note=70 velocity=96 time=0.0020833333333333333
EXTRACT: note_on channel=1 note=46 velocity=96 time=0
EXTRACT: note_on channel=1 note=70 velocity=0 time=0.4979166666666667
EXTRACT: note_on channel=1 note=46 velocity=0 time=0
EXTRACT: note_on channel=2 note=81 velocity=0 time=0
EXTRACT: note_on channel=2 note=45 velocity=0 time=0
EXTRACT: note_on channel=9 note=96 velocity=0 time=0
EXTRACT: note_on channel=9 note=40 velocity=0 time=0
EXTRACT: note_on channel=9 note=60 velocity=0 time=0
EXTRACT: note_on channel=9 note=50 velocity=0 time=0
EXTRACT: note_on channel=9 note=38 velocity=0 time=0
EXTRACT: note_on channel=9 note=54 velocity=0 time=0
EXTRACT: note_on channel=9 note=72 velocity=0 time=0
EXTRACT: note_on channel=0 note=69 velocity=96 time=0.0020833333333333333
EXTRACT: note_on channel=0 note=81 velocity=96 time=0
EXTRACT: note_on channel=0 note=41 velocity=96 time=0
EXTRACT: note_on channel=1 note=77 velocity=80 time=0
EXTRACT: note_on channel=1 note=41 velocity=80 time=0
EXTRACT: note_on channel=2 note=77 velocity=96 time=0
EXTRACT: note_on channel=2 note=53 velocity=96 time=0
EXTRACT: note_on channel=9 note=96 velocity=126 time=0
EXTRACT: note_on channel=9 note=38 velocity=126 time=0
EXTRACT: note_on channel=9 note=48 velocity=126 time=0
EXTRACT: note_on channel=0 note=69 velocity=0 time=0.23541666666666666
EXTRACT: note_on channel=0 note=81 velocity=0 time=0
EXTRACT: note_on channel=1 note=77 velocity=0 time=0.0125
EXTRACT: note_on channel=1 note=41 velocity=0 time=0
EXTRACT: note_on channel=0 note=69 velocity=96 time=0.0020833333333333333
EXTRACT: note_on channel=0 note=81 velocity=96 time=0
EXTRACT: note_on channel=1 note=77 velocity=80 time=0
EXTRACT: note_on channel=1 note=41 velocity=80 time=0
EXTRACT: note_on channel=1 note=77 velocity=0 time=0.24791666666666667
EXTRACT: note_on channel=1 note=41 velocity=0 time=0
EXTRACT: note_on channel=1 note=77 velocity=80 time=0.0020833333333333333
EXTRACT: note_on channel=1 note=41 velocity=80 time=0
EXTRACT: note_on channel=0 note=69 velocity=0 time=0.22291666666666665
EXTRACT: note_on channel=0 note=81 velocity=0 time=0
EXTRACT: note_on channel=1 note=77 velocity=0 time=0.025
EXTRACT: note_on channel=1 note=41 velocity=0 time=0
EXTRACT: note_on channel=0 note=76 velocity=96 time=0.0020833333333333333
EXTRACT: note_on channel=0 note=88 velocity=96 time=0
EXTRACT: note_on channel=1 note=77 velocity=80 time=0
EXTRACT: note_on channel=1 note=41 velocity=80 time=0
EXTRACT: note_on channel=0 note=76 velocity=0 time=0.23541666666666666
EXTRACT: note_on channel=0 note=88 velocity=0 time=0
EXTRACT: note_on channel=1 note=77 velocity=0 time=0.0125
EXTRACT: note_on channel=1 note=41 velocity=0 time=0
EXTRACT: note_on channel=9 note=96 velocity=0 time=0
EXTRACT: note_on channel=9 note=38 velocity=0 time=0
EXTRACT: note_on channel=9 note=48 velocity=0 time=0
EXTRACT: note_on channel=0 note=74 velocity=96 time=0.0020833333333333333
EXTRACT: note_on channel=0 note=86 velocity=96 time=0
EXTRACT: note_on channel=1 note=77 velocity=80 time=0
EXTRACT: note_on channel=1 note=41 velocity=80 time=0
EXTRACT: note_on channel=9 note=96 velocity=126 time=0
EXTRACT: note_on channel=9 note=40 velocity=96 time=0
EXTRACT: note_on channel=9 note=62 velocity=126 time=0
EXTRACT: note_on channel=9 note=60 velocity=126 time=0
EXTRACT: note_on channel=9 note=50 velocity=80 time=0
EXTRACT: note_on channel=9 note=38 velocity=126 time=0
EXTRACT: note_on channel=9 note=54 velocity=126 time=0
EXTRACT: note_on channel=9 note=72 velocity=126 time=0
EXTRACT: note_on channel=1 note=77 velocity=0 time=0.24791666666666667
EXTRACT: note_on channel=1 note=41 velocity=0 time=0
EXTRACT: note_on channel=1 note=77 velocity=80 time=0.0020833333333333333
EXTRACT: note_on channel=1 note=41 velocity=80 time=0
EXTRACT: note_on channel=0 note=74 velocity=0 time=0.22291666666666665
EXTRACT: note_on channel=0 note=86 velocity=0 time=0
EXTRACT: note_on channel=1 note=77 velocity=0 time=0.025
EXTRACT: note_on channel=1 note=41 velocity=0 time=0
EXTRACT: note_on channel=0 note=72 velocity=96 time=0.0020833333333333333
EXTRACT: note_on channel=0 note=84 velocity=96 time=0
EXTRACT: note_on channel=1 note=77 velocity=80 time=0
EXTRACT: note_on channel=1 note=41 velocity=80 time=0
EXTRACT: note_on channel=0 note=72 velocity=0 time=0.23541666666666666
EXTRACT: note_on channel=0 note=84 velocity=0 time=0
EXTRACT: note_on channel=1 note=77 velocity=0 time=0.0125
EXTRACT: note_on channel=1 note=41 velocity=0 time=0
EXTRACT: note_on channel=0 note=69 velocity=96 time=0.0020833333333333333
EXTRACT: note_on channel=0 note=81 velocity=96 time=0
EXTRACT: note_on channel=1 note=77 velocity=80 time=0
EXTRACT: note_on channel=1 note=41 velocity=80 time=0
EXTRACT: note_on channel=0 note=41 velocity=0 time=0.14791666666666667
EXTRACT: note_on channel=0 note=69 velocity=0 time=0.0875
EXTRACT: note_on channel=0 note=81 velocity=0 time=0
EXTRACT: note_on channel=1 note=77 velocity=0 time=0.0125
EXTRACT: note_on channel=1 note=41 velocity=0 time=0
EXTRACT: note_on channel=2 note=77 velocity=0 time=0
EXTRACT: note_on channel=2 note=53 velocity=0 time=0
EXTRACT: note_on channel=9 note=96 velocity=0 time=0
EXTRACT: note_on channel=9 note=40 velocity=0 time=0
EXTRACT: note_on channel=9 note=62 velocity=0 time=0
EXTRACT: note_on channel=9 note=60 velocity=0 time=0
EXTRACT: note_on channel=9 note=50 velocity=0 time=0
EXTRACT: note_on channel=9 note=38 velocity=0 time=0
EXTRACT: note_on channel=9 note=54 velocity=0 time=0
EXTRACT: note_on channel=9 note=72 velocity=0 time=0
EXTRACT: note_on channel=0 note=74 velocity=96 time=0.0020833333333333333
EXTRACT: note_on channel=0 note=86 velocity=96 time=0
EXTRACT: note_on channel=0 note=33 velocity=96 time=0
EXTRACT: note_on channel=1 note=69 velocity=80 time=0
EXTRACT: note_on channel=1 note=36 velocity=80 time=0
EXTRACT: note_on channel=2 note=69 velocity=96 time=0
EXTRACT: note_on channel=2 note=45 velocity=96 time=0
EXTRACT: note_on channel=9 note=96 velocity=126 time=0
EXTRACT: note_on channel=0 note=74 velocity=0 time=0.23541666666666666
EXTRACT: note_on channel=0 note=86 velocity=0 time=0
EXTRACT: note_on channel=1 note=69 velocity=0 time=0.0125
EXTRACT: note_on channel=1 note=36 velocity=0 time=0
EXTRACT: note_on channel=0 note=69 velocity=96 time=0.0020833333333333333
EXTRACT: note_on channel=0 note=81 velocity=96 time=0
EXTRACT: note_on channel=1 note=69 velocity=80 time=0
EXTRACT: note_on channel=1 note=36 velocity=80 time=0
EXTRACT: note_on channel=0 note=69 velocity=0 time=0.23541666666666666
EXTRACT: note_on channel=0 note=81 velocity=0 time=0
EXTRACT: note_on channel=1 note=69 velocity=0 time=0.0125
EXTRACT: note_on channel=1 note=36 velocity=0 time=0
EXTRACT: note_on channel=0 note=67 velocity=96 time=0.0020833333333333333
EXTRACT: note_on channel=0 note=79 velocity=96 time=0
EXTRACT: note_on channel=1 note=69 velocity=80 time=0
EXTRACT: note_on channel=1 note=36 velocity=80 time=0
EXTRACT: note_on channel=9 note=38 velocity=126 time=0
EXTRACT: note_on channel=9 note=48 velocity=126 time=0
EXTRACT: note_on channel=0 note=67 velocity=0 time=0.23541666666666666
EXTRACT: note_on channel=0 note=79 velocity=0 time=0
EXTRACT: note_on channel=1 note=69 velocity=0 time=0.0125
EXTRACT: note_on channel=1 note=36 velocity=0 time=0
EXTRACT: note_on channel=0 note=69 velocity=96 time=0.0020833333333333333
EXTRACT: note_on channel=0 note=81 velocity=96 time=0
EXTRACT: note_on channel=1 note=69 velocity=80 time=0
EXTRACT: note_on channel=1 note=36 velocity=80 time=0
EXTRACT: note_on channel=1 note=69 velocity=0 time=0.24791666666666667
EXTRACT: note_on channel=1 note=36 velocity=0 time=0
EXTRACT: note_on channel=9 note=96 velocity=0 time=0
EXTRACT: note_on channel=9 note=38 velocity=0 time=0
EXTRACT: note_on channel=9 note=48 velocity=0 time=0
EXTRACT: note_on channel=1 note=69 velocity=80 time=0.0020833333333333333
EXTRACT: note_on channel=1 note=36 velocity=80 time=0
EXTRACT: note_on channel=9 note=96 velocity=126 time=0
EXTRACT: note_on channel=9 note=40 velocity=96 time=0
EXTRACT: note_on channel=9 note=62 velocity=126 time=0
EXTRACT: note_on channel=9 note=60 velocity=126 time=0
EXTRACT: note_on channel=9 note=50 velocity=80 time=0
EXTRACT: note_on channel=9 note=38 velocity=126 time=0
EXTRACT: note_on channel=9 note=54 velocity=126 time=0
EXTRACT: note_on channel=9 note=72 velocity=126 time=0
EXTRACT: note_on channel=0 note=69 velocity=0 time=0.22291666666666665
EXTRACT: note_on channel=0 note=81 velocity=0 time=0
EXTRACT: note_on channel=1 note=69 velocity=0 time=0.025
EXTRACT: note_on channel=1 note=36 velocity=0 time=0
EXTRACT: note_on channel=1 note=69 velocity=80 time=0.0020833333333333333
EXTRACT: note_on channel=1 note=36 velocity=80 time=0
EXTRACT: note_on channel=1 note=69 velocity=0 time=0.24791666666666667
EXTRACT: note_on channel=1 note=36 velocity=0 time=0
EXTRACT: note_on channel=1 note=69 velocity=80 time=0.0020833333333333333
EXTRACT: note_on channel=1 note=36 velocity=80 time=0
EXTRACT: note_on channel=1 note=69 velocity=0 time=0.24791666666666667
EXTRACT: note_on channel=1 note=36 velocity=0 time=0
EXTRACT: note_on channel=0 note=67 velocity=96 time=0.0020833333333333333
EXTRACT: note_on channel=0 note=79 velocity=96 time=0
EXTRACT: note_on channel=1 note=69 velocity=80 time=0
EXTRACT: note_on channel=1 note=36 velocity=80 time=0
EXTRACT: note_on channel=0 note=33 velocity=0 time=0.14791666666666667
EXTRACT: note_on channel=0 note=67 velocity=0 time=0.0875
EXTRACT: note_on channel=0 note=79 velocity=0 time=0
EXTRACT: note_on channel=1 note=69 velocity=0 time=0.0125
EXTRACT: note_on channel=1 note=36 velocity=0 time=0
EXTRACT: note_on channel=2 note=69 velocity=0 time=0
EXTRACT: note_on channel=2 note=45 velocity=0 time=0
EXTRACT: note_on channel=9 note=96 velocity=0 time=0
EXTRACT: note_on channel=9 note=40 velocity=0 time=0
EXTRACT: note_on channel=9 note=62 velocity=0 time=0
EXTRACT: note_on channel=9 note=60 velocity=0 time=0
EXTRACT: note_on channel=9 note=50 velocity=0 time=0
EXTRACT: note_on channel=9 note=38 velocity=0 time=0
EXTRACT: note_on channel=9 note=54 velocity=0 time=0
EXTRACT: note_on channel=9 note=72 velocity=0 time=0
EXTRACT: note_on channel=0 note=81 velocity=126 time=0.0020833333333333333
EXTRACT: note_on channel=1 note=74 velocity=80 time=0
EXTRACT: note_on channel=1 note=38 velocity=80 time=0
EXTRACT: note_on channel=2 note=74 velocity=96 time=0
EXTRACT: note_on channel=2 note=50 velocity=96 time=0
EXTRACT: note_on channel=9 note=96 velocity=126 time=0
EXTRACT: note_on channel=9 note=38 velocity=126 time=0
EXTRACT: note_on channel=9 note=48 velocity=126 time=0
EXTRACT: note_on channel=0 note=81 velocity=0 time=0.23541666666666666
EXTRACT: note_on channel=1 note=74 velocity=0 time=0.0125
EXTRACT: note_on channel=1 note=38 velocity=0 time=0
EXTRACT: note_on channel=0 note=81 velocity=126 time=0.0020833333333333333
EXTRACT: note_on channel=1 note=74 velocity=80 time=0
EXTRACT: note_on channel=1 note=38 velocity=80 time=0
EXTRACT: note_on channel=0 note=81 velocity=0 time=0.23541666666666666
EXTRACT: note_on channel=1 note=74 velocity=0 time=0.0125
EXTRACT: note_on channel=1 note=38 velocity=0 time=0
EXTRACT: note_on channel=0 note=81 velocity=126 time=0.0020833333333333333
EXTRACT: note_on channel=1 note=74 velocity=80 time=0
EXTRACT: note_on channel=1 note=38 velocity=80 time=0
EXTRACT: note_on channel=0 note=81 velocity=0 time=0.23541666666666666
EXTRACT: note_on channel=1 note=74 velocity=0 time=0.0125
EXTRACT: note_on channel=1 note=38 velocity=0 time=0
EXTRACT: note_on channel=0 note=81 velocity=126 time=0.0020833333333333333
EXTRACT: note_on channel=1 note=74 velocity=80 time=0
EXTRACT: note_on channel=1 note=38 velocity=80 time=0
EXTRACT: note_on channel=0 note=81 velocity=0 time=0.23541666666666666
EXTRACT: note_on channel=1 note=74 velocity=0 time=0.0125
EXTRACT: note_on channel=1 note=38 velocity=0 time=0
EXTRACT: note_on channel=2 note=74 velocity=0 time=0
EXTRACT: note_on channel=2 note=50 velocity=0 time=0
EXTRACT: note_on channel=9 note=96 velocity=0 time=0
EXTRACT: note_on channel=9 note=38 velocity=0 time=0
EXTRACT: note_on channel=9 note=48 velocity=0 time=0
EXTRACT: note_on channel=0 note=84 velocity=126 time=0.0020833333333333333
EXTRACT: note_on channel=1 note=72 velocity=80 time=0
EXTRACT: note_on channel=1 note=36 velocity=80 time=0
EXTRACT: note_on channel=2 note=72 velocity=96 time=0
EXTRACT: note_on channel=2 note=48 velocity=96 time=0
EXTRACT: note_on channel=9 note=96 velocity=126 time=0
EXTRACT: note_on channel=9 note=40 velocity=96 time=0
EXTRACT: note_on channel=9 note=62 velocity=126 time=0
EXTRACT: note_on channel=9 note=60 velocity=126 time=0
EXTRACT: note_on channel=9 note=50 velocity=80 time=0
EXTRACT: note_on channel=9 note=38 velocity=126 time=0
EXTRACT: note_on channel=9 note=54 velocity=126 time=0
EXTRACT: note_on channel=9 note=72 velocity=126 time=0
EXTRACT: note_on channel=1 note=72 velocity=0 time=0.24791666666666667
EXTRACT: note_on channel=1 note=36 velocity=0 time=0
EXTRACT: note_on channel=1 note=72 velocity=80 time=0.0020833333333333333
EXTRACT: note_on channel=1 note=36 velocity=80 time=0
EXTRACT: note_on channel=0 note=84 velocity=0 time=0.22291666666666665
EXTRACT: note_on channel=1 note=72 velocity=0 time=0.025
EXTRACT: note_on channel=1 note=36 velocity=0 time=0
EXTRACT: note_on channel=0 note=81 velocity=126 time=0.0020833333333333333
EXTRACT: note_on channel=1 note=72 velocity=80 time=0
EXTRACT: note_on channel=1 note=36 velocity=80 time=0
EXTRACT: note_on channel=0 note=81 velocity=0 time=0.23541666666666666
EXTRACT: note_on channel=1 note=72 velocity=0 time=0.0125
EXTRACT: note_on channel=1 note=36 velocity=0 time=0
EXTRACT: note_on channel=0 note=79 velocity=126 time=0.0020833333333333333
EXTRACT: note_on channel=1 note=72 velocity=80 time=0
EXTRACT: note_on channel=1 note=36 velocity=80 time=0
EXTRACT: note_on channel=0 note=79 velocity=0 time=0.23541666666666666
EXTRACT: note_on channel=1 note=72 velocity=0 time=0.0125
EXTRACT: note_on channel=1 note=36 velocity=0 time=0
EXTRACT: note_on channel=2 note=72 velocity=0 time=0
EXTRACT: note_on channel=2 note=48 velocity=0 time=0
EXTRACT: note_on channel=9 note=96 velocity=0 time=0
EXTRACT: note_on channel=9 note=40 velocity=0 time=0
EXTRACT: note_on channel=9 note=62 velocity=0 time=0
EXTRACT: note_on channel=9 note=60 velocity=0 time=0
EXTRACT: note_on channel=9 note=50 velocity=0 time=0
EXTRACT: note_on channel=9 note=38 velocity=0 time=0
EXTRACT: note_on channel=9 note=54 velocity=0 time=0
EXTRACT: note_on channel=9 note=72 velocity=0 time=0
EXTRACT: note_on channel=0 note=81 velocity=126 time=0.0020833333333333333
EXTRACT: note_on channel=0 note=93 velocity=126 time=0
EXTRACT: note_on channel=1 note=77 velocity=80 time=0
EXTRACT: note_on channel=1 note=41 velocity=80 time=0
EXTRACT: note_on channel=2 note=77 velocity=96 time=0
EXTRACT: note_on channel=2 note=53 velocity=96 time=0
EXTRACT: note_on channel=0 note=81 velocity=0 time=0.23541666666666666
EXTRACT: note_on channel=0 note=93 velocity=0 time=0
EXTRACT: note_on channel=1 note=77 velocity=0 time=0.0125
EXTRACT: note_on channel=1 note=41 velocity=0 time=0
EXTRACT: note_on channel=0 note=91 velocity=126 time=0.0020833333333333333
EXTRACT: note_on channel=1 note=77 velocity=80 time=0
EXTRACT: note_on channel=1 note=41 velocity=80 time=0
EXTRACT: note_on channel=0 note=91 velocity=0 time=0.23541666666666666
EXTRACT: note_on channel=1 note=77 velocity=0 time=0.0125
EXTRACT: note_on channel=1 note=41 velocity=0 time=0
EXTRACT: note_on channel=0 note=89 velocity=126 time=0.0020833333333333333
EXTRACT: note_on channel=1 note=77 velocity=80 time=0
EXTRACT: note_on channel=1 note=41 velocity=80 time=0
EXTRACT: note_on channel=9 note=40 velocity=126 time=0
EXTRACT: note_on channel=0 note=89 velocity=0 time=0.23541666666666666
EXTRACT: note_on channel=1 note=77 velocity=0 time=0.0125
EXTRACT: note_on channel=1 note=41 velocity=0 time=0
EXTRACT: note_on channel=0 note=88 velocity=126 time=0.0020833333333333333
EXTRACT: note_on channel=1 note=77 velocity=80 time=0
EXTRACT: note_on channel=1 note=41 velocity=80 time=0
EXTRACT: note_on channel=0 note=88 velocity=0 time=0.23541666666666666
EXTRACT: note_on channel=1 note=77 velocity=0 time=0.0125
EXTRACT: note_on channel=1 note=41 velocity=0 time=0
EXTRACT: note_on channel=9 note=40 velocity=0 time=0
EXTRACT: note_on channel=0 note=86 velocity=126 time=0.0020833333333333333
EXTRACT: note_on channel=1 note=77 velocity=80 time=0
EXTRACT: note_on channel=1 note=41 velocity=80 time=0
EXTRACT: note_on channel=9 note=38 velocity=126 time=0
EXTRACT: note_on channel=9 note=72 velocity=126 time=0
EXTRACT: note_on channel=1 note=77 velocity=0 time=0.24791666666666667
EXTRACT: note_on channel=1 note=41 velocity=0 time=0
EXTRACT: note_on channel=9 note=38 velocity=0 time=0
EXTRACT: note_on channel=9 note=72 velocity=0 time=0
EXTRACT: note_on channel=1 note=77 velocity=80 time=0.0020833333333333333
EXTRACT: note_on channel=1 note=41 velocity=80 time=0
EXTRACT: note_on channel=9 note=38 velocity=126 time=0
EXTRACT: note_on channel=9 note=48 velocity=126 time=0
EXTRACT: note_on channel=0 note=86 velocity=0 time=0.22291666666666665
EXTRACT: note_on channel=1 note=77 velocity=0 time=0.025
EXTRACT: note_on channel=1 note=41 velocity=0 time=0
EXTRACT: note_on channel=9 note=38 velocity=0 time=0
EXTRACT: note_on channel=9 note=48 velocity=0 time=0
EXTRACT: note_on channel=0 note=86 velocity=126 time=0.0020833333333333333
EXTRACT: note_on channel=1 note=77 velocity=80 time=0
EXTRACT: note_on channel=1 note=41 velocity=80 time=0
EXTRACT: note_on channel=9 note=38 velocity=126 time=0
EXTRACT: note_on channel=9 note=72 velocity=126 time=0
EXTRACT: note_on channel=1 note=77 velocity=0 time=0.24791666666666667
EXTRACT: note_on channel=1 note=41 velocity=0 time=0
EXTRACT: note_on channel=1 note=77 velocity=80 time=0.0020833333333333333
EXTRACT: note_on channel=1 note=41 velocity=80 time=0
EXTRACT: note_on channel=0 note=86 velocity=0 time=0.22291666666666665
EXTRACT: note_on channel=1 note=77 velocity=0 time=0.025
EXTRACT: note_on channel=1 note=41 velocity=0 time=0
EXTRACT: note_on channel=2 note=77 velocity=0 time=0
EXTRACT: note_on channel=2 note=53 velocity=0 time=0
EXTRACT: note_on channel=9 note=38 velocity=0 time=0
EXTRACT: note_on channel=9 note=72 velocity=0 time=0
EXTRACT: note_on channel=0 note=76 velocity=126 time=0.0020833333333333333
EXTRACT: note_on channel=0 note=88 velocity=126 time=0
EXTRACT: note_on channel=0 note=57 velocity=126 time=0
EXTRACT: note_on channel=2 note=81 velocity=96 time=0
EXTRACT: note_on channel=2 note=45 velocity=96 time=0
EXTRACT: note_on channel=3 note=81 velocity=80 time=0
EXTRACT: note_on channel=3 note=93 velocity=80 time=0
EXTRACT: note_on channel=9 note=74 velocity=126 time=0
EXTRACT: note_on channel=9 note=74 velocity=80 time=0
EXTRACT: note_on channel=9 note=38 velocity=126 time=0
EXTRACT: note_on channel=9 note=72 velocity=96 time=0
EXTRACT: note_on channel=0 note=76 velocity=0 time=0.23541666666666666
EXTRACT: note_on channel=0 note=88 velocity=0 time=0
EXTRACT: note_on channel=0 note=74 velocity=126 time=0.014583333333333334
EXTRACT: note_on channel=0 note=86 velocity=126 time=0
EXTRACT: note_on channel=0 note=74 velocity=0 time=0.23541666666666666
EXTRACT: note_on channel=0 note=86 velocity=0 time=0
EXTRACT: note_on channel=0 note=72 velocity=126 time=0.014583333333333334
EXTRACT: note_on channel=0 note=84 velocity=126 time=0
EXTRACT: note_on channel=9 note=74 velocity=0 time=0.4979166666666667
EXTRACT: note_on channel=9 note=74 velocity=0 time=0
EXTRACT: note_on channel=9 note=38 velocity=0 time=0
EXTRACT: note_on channel=9 note=72 velocity=0 time=0
EXTRACT: note_on channel=9 note=40 velocity=96 time=0.0020833333333333333
EXTRACT: note_on channel=9 note=60 velocity=126 time=0
EXTRACT: note_on channel=9 note=50 velocity=80 time=0
EXTRACT: note_on channel=9 note=38 velocity=126 time=0
EXTRACT: note_on channel=9 note=72 velocity=96 time=0
EXTRACT: note_on channel=0 note=72 velocity=0 time=0.4479166666666667
EXTRACT: note_on channel=0 note=84 velocity=0 time=0
EXTRACT: note_on channel=0 note=74 velocity=126 time=0.052083333333333336
EXTRACT: note_on channel=0 note=86 velocity=126 time=0
EXTRACT: note_on channel=0 note=57 velocity=0 time=0.39791666666666664
EXTRACT: note_on channel=0 note=74 velocity=0 time=0.075
EXTRACT: note_on channel=0 note=86 velocity=0 time=0
EXTRACT: note_on channel=2 note=81 velocity=0 time=0.025
EXTRACT: note_on channel=2 note=45 velocity=0 time=0
EXTRACT: note_on channel=3 note=81 velocity=0 time=0
EXTRACT: note_on channel=3 note=93 velocity=0 time=0
EXTRACT: note_on channel=9 note=40 velocity=0 time=0
EXTRACT: note_on channel=9 note=60 velocity=0 time=0
EXTRACT: note_on channel=9 note=50 velocity=0 time=0
EXTRACT: note_on channel=9 note=38 velocity=0 time=0
EXTRACT: note_on channel=9 note=72 velocity=0 time=0
EXTRACT: note_on channel=0 note=76 velocity=126 time=0.0020833333333333333
EXTRACT: note_on channel=0 note=88 velocity=126 time=0
EXTRACT: note_on channel=0 note=52 velocity=126 time=0
EXTRACT: note_on channel=2 note=76 velocity=96 time=0
EXTRACT: note_on channel=2 note=40 velocity=96 time=0
EXTRACT: note_on channel=3 note=76 velocity=80 time=0
EXTRACT: note_on channel=3 note=88 velocity=80 time=0
EXTRACT: note_on channel=0 note=76 velocity=0 time=0.23541666666666666
EXTRACT: note_on channel=0 note=88 velocity=0 time=0
EXTRACT: note_on channel=0 note=74 velocity=126 time=0.014583333333333334
EXTRACT: note_on channel=0 note=86 velocity=126 time=0
EXTRACT: note_on channel=9 note=38 velocity=126 time=0.25
EXTRACT: note_on channel=9 note=48 velocity=96 time=0
EXTRACT: note_on channel=9 note=38 velocity=0 time=0.4979166666666667
EXTRACT: note_on channel=9 note=48 velocity=0 time=0
EXTRACT: note_on channel=9 note=40 velocity=96 time=0.0020833333333333333
EXTRACT: note_on channel=9 note=60 velocity=126 time=0
EXTRACT: note_on channel=9 note=50 velocity=80 time=0
EXTRACT: note_on channel=9 note=38 velocity=126 time=0
EXTRACT: note_on channel=9 note=72 velocity=96 time=0
EXTRACT: note_on channel=0 note=74 velocity=0 time=0.19791666666666666
EXTRACT: note_on channel=0 note=86 velocity=0 time=0
EXTRACT: note_on channel=0 note=74 velocity=126 time=0.3020833333333333
EXTRACT: note_on channel=0 note=86 velocity=126 time=0
EXTRACT: note_on channel=0 note=52 velocity=0 time=0.39791666666666664
EXTRACT: note_on channel=0 note=74 velocity=0 time=0.075
EXTRACT: note_on channel=0 note=86 velocity=0 time=0
EXTRACT: note_on channel=2 note=76 velocity=0 time=0.025
EXTRACT: note_on channel=2 note=40 velocity=0 time=0
EXTRACT: note_on channel=3 note=76 velocity=0 time=0
EXTRACT: note_on channel=3 note=88 velocity=0 time=0
EXTRACT: note_on channel=9 note=40 velocity=0 time=0
EXTRACT: note_on channel=9 note=60 velocity=0 time=0
EXTRACT: note_on channel=9 note=50 velocity=0 time=0
EXTRACT: note_on channel=9 note=38 velocity=0 time=0
EXTRACT: note_on channel=9 note=72 velocity=0 time=0
EXTRACT: note_on channel=0 note=76 velocity=126 time=0.0020833333333333333
EXTRACT: note_on channel=0 note=88 velocity=126 time=0
EXTRACT: note_on channel=0 note=48 velocity=126 time=0
EXTRACT: note_on channel=2 note=72 velocity=96 time=0
EXTRACT: note_on channel=3 note=79 velocity=80 time=0
EXTRACT: note_on channel=3 note=91 velocity=80 time=0
EXTRACT: note_on channel=9 note=38 velocity=126 time=0
EXTRACT: note_on channel=9 note=72 velocity=96 time=0
EXTRACT: note_on channel=0 note=76 velocity=0 time=0.23541666666666666
EXTRACT: note_on channel=0 note=88 velocity=0 time=0
EXTRACT: note_on channel=0 note=74 velocity=126 time=0.014583333333333334
EXTRACT: note_on channel=0 note=86 velocity=126 time=0
EXTRACT: note_on channel=0 note=74 velocity=0 time=0.23541666666666666
EXTRACT: note_on channel=0 note=86 velocity=0 time=0
EXTRACT: note_on channel=0 note=72 velocity=126 time=0.014583333333333334
EXTRACT: note_on channel=0 note=84 velocity=126 time=0
EXTRACT: note_on channel=9 note=38 velocity=0 time=0.4979166666666667
EXTRACT: note_on channel=9 note=72 velocity=0 time=0
EXTRACT: note_on channel=9 note=40 velocity=96 time=0.0020833333333333333
EXTRACT: note_on channel=9 note=60 velocity=126 time=0
EXTRACT: note_on channel=9 note=50 velocity=80 time=0
EXTRACT: note_on channel=9 note=38 velocity=126 time=0
EXTRACT: note_on channel=9 note=72 velocity=96 time=0
EXTRACT: note_on channel=0 note=72 velocity=0 time=0.4479166666666667
EXTRACT: note_on channel=0 note=84 velocity=0 time=0
EXTRACT: note_on channel=0 note=74 velocity=126 time=0.052083333333333336
EXTRACT: note_on channel=0 note=86 velocity=126 time=0
EXTRACT: note_on channel=0 note=48 velocity=0 time=0.39791666666666664
EXTRACT: note_on channel=0 note=74 velocity=0 time=0.075
EXTRACT: note_on channel=0 note=86 velocity=0 time=0
EXTRACT: note_on channel=2 note=72 velocity=0 time=0.025
EXTRACT: note_on channel=3 note=79 velocity=0 time=0
EXTRACT: note_on channel=3 note=91 velocity=0 time=0
EXTRACT: note_on channel=9 note=40 velocity=0 time=0
EXTRACT: note_on channel=9 note=60 velocity=0 time=0
EXTRACT: note_on channel=9 note=50 velocity=0 time=0
EXTRACT: note_on channel=9 note=38 velocity=0 time=0
EXTRACT: note_on channel=9 note=72 velocity=0 time=0
EXTRACT: note_on channel=0 note=76 velocity=126 time=0.0020833333333333333
EXTRACT: note_on channel=0 note=88 velocity=126 time=0
EXTRACT: note_on channel=0 note=50 velocity=126 time=0
EXTRACT: note_on channel=2 note=74 velocity=96 time=0
EXTRACT: note_on channel=3 note=78 velocity=80 time=0
EXTRACT: note_on channel=3 note=90 velocity=80 time=0
EXTRACT: note_on channel=0 note=76 velocity=0 time=0.23541666666666666
EXTRACT: note_on channel=0 note=88 velocity=0 time=0
EXTRACT: note_on channel=0 note=74 velocity=126 time=0.014583333333333334
EXTRACT: note_on channel=0 note=86 velocity=126 time=0
EXTRACT: note_on channel=9 note=38 velocity=126 time=0.25
EXTRACT: note_on channel=9 note=48 velocity=96 time=0
EXTRACT: note_on channel=9 note=38 velocity=0 time=0.4979166666666667
EXTRACT: note_on channel=9 note=48 velocity=0 time=0
EXTRACT: note_on channel=1 note=81 velocity=126 time=0.0020833333333333333
EXTRACT: note_on channel=1 note=57 velocity=126 time=0
EXTRACT: note_on channel=9 note=40 velocity=96 time=0
EXTRACT: note_on channel=9 note=60 velocity=126 time=0
EXTRACT: note_on channel=9 note=50 velocity=80 time=0
EXTRACT: note_on channel=9 note=38 velocity=126 time=0
EXTRACT: note_on channel=9 note=72 velocity=96 time=0
EXTRACT: note_on channel=0 note=74 velocity=0 time=0.19791666666666666
EXTRACT: note_on channel=0 note=86 velocity=0 time=0
EXTRACT: note_on channel=1 note=81 velocity=0 time=0.05
EXTRACT: note_on channel=1 note=57 velocity=0 time=0
EXTRACT: note_on channel=1 note=81 velocity=126 time=0.0020833333333333333
EXTRACT: note_on channel=1 note=57 velocity=126 time=0
EXTRACT: note_on channel=1 note=81 velocity=0 time=0.24791666666666667
EXTRACT: note_on channel=1 note=57 velocity=0 time=0
EXTRACT: note_on channel=0 note=69 velocity=126 time=0.0020833333333333333
EXTRACT: note_on channel=0 note=81 velocity=126 time=0
EXTRACT: note_on channel=1 note=69 velocity=126 time=0
EXTRACT: note_on channel=1 note=45 velocity=126 time=0
EXTRACT: note_on channel=0 note=50 velocity=0 time=0.39791666666666664
EXTRACT: note_on channel=0 note=69 velocity=0 time=0.075
EXTRACT: note_on channel=0 note=81 velocity=0 time=0
EXTRACT: note_on channel=1 note=69 velocity=0 time=0.025
EXTRACT: note_on channel=1 note=45 velocity=0 time=0
EXTRACT: note_on channel=2 note=74 velocity=0 time=0
EXTRACT: note_on channel=3 note=78 velocity=0 time=0
EXTRACT: note_on channel=3 note=90 velocity=0 time=0
EXTRACT: note_on channel=9 note=40 velocity=0 time=0
EXTRACT: note_on channel=9 note=60 velocity=0 time=0
EXTRACT: note_on channel=9 note=50 velocity=0 time=0
EXTRACT: note_on channel=9 note=38 velocity=0 time=0
EXTRACT: note_on channel=9 note=72 velocity=0 time=0
EXTRACT: note_on channel=0 note=69 velocity=126 time=0.0020833333333333333
EXTRACT: note_on channel=0 note=81 velocity=126 time=0
EXTRACT: note_on channel=1 note=77 velocity=126 time=0
EXTRACT: note_on channel=1 note=41 velocity=126 time=0
EXTRACT: note_on channel=3 note=81 velocity=80 time=0
EXTRACT: note_on channel=3 note=93 velocity=80 time=0
EXTRACT: note_on channel=9 note=38 velocity=126 time=0
EXTRACT: note_on channel=9 note=72 velocity=96 time=0
EXTRACT: note_on channel=0 note=69 velocity=0 time=0.23541666666666666
EXTRACT: note_on channel=0 note=81 velocity=0 time=0
EXTRACT: note_on channel=1 note=77 velocity=0 time=0.0125
EXTRACT: note_on channel=1 note=41 velocity=0 time=0
EXTRACT: note_on channel=0 note=69 velocity=126 time=0.0020833333333333333
EXTRACT: note_on channel=0 note=81 velocity=126 time=0
EXTRACT: note_on channel=1 note=77 velocity=126 time=0
EXTRACT: note_on channel=1 note=41 velocity=126 time=0
EXTRACT: note_on channel=1 note=77 velocity=0 time=0.24791666666666667
EXTRACT: note_on channel=1 note=41 velocity=0 time=0
EXTRACT: note_on channel=1 note=77 velocity=126 time=0.0020833333333333333
EXTRACT: note_on channel=1 note=41 velocity=126 time=0
EXTRACT: note_on channel=0 note=69 velocity=0 time=0.22291666666666665
EXTRACT: note_on channel=0 note=81 velocity=0 time=0
EXTRACT: note_on channel=1 note=77 velocity=0 time=0.025
EXTRACT: note_on channel=1 note=41 velocity=0 time=0
EXTRACT: note_on channel=0 note=76 velocity=126 time=0.0020833333333333333
EXTRACT: note_on channel=0 note=88 velocity=126 time=0
EXTRACT: note_on channel=1 note=77 velocity=126 time=0
EXTRACT: note_on channel=1 note=41 velocity=126 time=0
EXTRACT: note_on channel=0 note=76 velocity=0 time=0.23541666666666666
EXTRACT: note_on channel=0 note=88 velocity=0 time=0
EXTRACT: note_on channel=1 note=77 velocity=0 time=0.0125
EXTRACT: note_on channel=1 note=41 velocity=0 time=0
EXTRACT: note_on channel=9 note=38 velocity=0 time=0
EXTRACT: note_on channel=9 note=72 velocity=0 time=0
EXTRACT: note_on channel=0 note=74 velocity=126 time=0.0020833333333333333
EXTRACT: note_on channel=0 note=86 velocity=126 time=0
EXTRACT: note_on channel=1 note=77 velocity=126 time=0
EXTRACT: note_on channel=1 note=41 velocity=126 time=0
EXTRACT: note_on channel=9 note=40 velocity=96 time=0
EXTRACT: note_on channel=9 note=60 velocity=126 time=0
EXTRACT: note_on channel=9 note=50 velocity=80 time=0
EXTRACT: note_on channel=9 note=38 velocity=126 time=0
EXTRACT: note_on channel=9 note=72 velocity=96 time=0
EXTRACT: note_on channel=1 note=77 velocity=0 time=0.24791666666666667
EXTRACT: note_on channel=1 note=41 velocity=0 time=0
EXTRACT: note_on channel=1 note=77 velocity=126 time=0.0020833333333333333
EXTRACT: note_on channel=1 note=41 velocity=126 time=0
EXTRACT: note_on channel=0 note=74 velocity=0 time=0.22291666666666665
EXTRACT: note_on channel=0 note=86 velocity=0 time=0
EXTRACT: note_on channel=1 note=77 velocity=0 time=0.025
EXTRACT: note_on channel=1 note=41 velocity=0 time=0
EXTRACT: note_on channel=0 note=72 velocity=126 time=0.0020833333333333333
EXTRACT: note_on channel=0 note=84 velocity=126 time=0
EXTRACT: note_on channel=1 note=77 velocity=126 time=0
EXTRACT: note_on channel=1 note=41 velocity=126 time=0
EXTRACT: note_on channel=0 note=72 velocity=0 time=0.23541666666666666
EXTRACT: note_on channel=0 note=84 velocity=0 time=0
EXTRACT: note_on channel=1 note=77 velocity=0 time=0.0125
EXTRACT: note_on channel=1 note=41 velocity=0 time=0
EXTRACT: note_on channel=0 note=69 velocity=126 time=0.0020833333333333333
EXTRACT: note_on channel=0 note=81 velocity=126 time=0
EXTRACT: note_on channel=1 note=77 velocity=126 time=0
EXTRACT: note_on channel=1 note=41 velocity=126 time=0
EXTRACT: note_on channel=0 note=69 velocity=0 time=0.23541666666666666
EXTRACT: note_on channel=0 note=81 velocity=0 time=0
EXTRACT: note_on channel=1 note=77 velocity=0 time=0.0125
EXTRACT: note_on channel=1 note=41 velocity=0 time=0
EXTRACT: note_on channel=3 note=81 velocity=0 time=0
EXTRACT: note_on channel=3 note=93 velocity=0 time=0
EXTRACT: note_on channel=9 note=40 velocity=0 time=0
EXTRACT: note_on channel=9 note=60 velocity=0 time=0
EXTRACT: note_on channel=9 note=50 velocity=0 time=0
EXTRACT: note_on channel=9 note=38 velocity=0 time=0
EXTRACT: note_on channel=9 note=72 velocity=0 time=0
EXTRACT: note_on channel=0 note=74 velocity=126 time=0.0020833333333333333
EXTRACT: note_on channel=0 note=86 velocity=126 time=0
EXTRACT: note_on channel=1 note=69 velocity=126 time=0
EXTRACT: note_on channel=1 note=33 velocity=126 time=0
EXTRACT: note_on channel=3 note=76 velocity=80 time=0
EXTRACT: note_on channel=3 note=88 velocity=80 time=0
EXTRACT: note_on channel=0 note=74 velocity=0 time=0.23541666666666666
EXTRACT: note_on channel=0 note=86 velocity=0 time=0
EXTRACT: note_on channel=1 note=69 velocity=0 time=0.0125
EXTRACT: note_on channel=1 note=33 velocity=0 time=0
EXTRACT: note_on channel=0 note=69 velocity=126 time=0.0020833333333333333
EXTRACT: note_on channel=0 note=81 velocity=126 time=0
EXTRACT: note_on channel=1 note=69 velocity=126 time=0
EXTRACT: note_on channel=1 note=33 velocity=126 time=0
EXTRACT: note_on channel=0 note=69 velocity=0 time=0.23541666666666666
EXTRACT: note_on channel=0 note=81 velocity=0 time=0
EXTRACT: note_on channel=1 note=69 velocity=0 time=0.0125
EXTRACT: note_on channel=1 note=33 velocity=0 time=0
EXTRACT: note_on channel=0 note=67 velocity=126 time=0.0020833333333333333
EXTRACT: note_on channel=0 note=79 velocity=126 time=0
EXTRACT: note_on channel=1 note=69 velocity=126 time=0
EXTRACT: note_on channel=1 note=33 velocity=126 time=0
EXTRACT: note_on channel=9 note=38 velocity=126 time=0
EXTRACT: note_on channel=9 note=48 velocity=96 time=0
EXTRACT: note_on channel=0 note=67 velocity=0 time=0.23541666666666666
EXTRACT: note_on channel=0 note=79 velocity=0 time=0
EXTRACT: note_on channel=1 note=69 velocity=0 time=0.0125
EXTRACT: note_on channel=1 note=33 velocity=0 time=0
EXTRACT: note_on channel=0 note=69 velocity=126 time=0.0020833333333333333
EXTRACT: note_on channel=0 note=81 velocity=126 time=0
EXTRACT: note_on channel=1 note=69 velocity=126 time=0
EXTRACT: note_on channel=1 note=33 velocity=126 time=0
EXTRACT: note_on channel=1 note=69 velocity=0 time=0.24791666666666667
EXTRACT: note_on channel=1 note=33 velocity=0 time=0
EXTRACT: note_on channel=9 note=38 velocity=0 time=0
EXTRACT: note_on channel=9 note=48 velocity=0 time=0
EXTRACT: note_on channel=1 note=69 velocity=126 time=0.0020833333333333333
EXTRACT: note_on channel=1 note=33 velocity=126 time=0
EXTRACT: note_on channel=9 note=40 velocity=96 time=0
EXTRACT: note_on channel=9 note=60 velocity=126 time=0
EXTRACT: note_on channel=9 note=50 velocity=80 time=0
EXTRACT: note_on channel=9 note=38 velocity=126 time=0
EXTRACT: note_on channel=9 note=72 velocity=96 time=0
EXTRACT: note_on channel=0 note=69 velocity=0 time=0.22291666666666665
EXTRACT: note_on channel=0 note=81 velocity=0 time=0
EXTRACT: note_on channel=1 note=69 velocity=0 time=0.025
EXTRACT: note_on channel=1 note=33 velocity=0 time=0
EXTRACT: note_on channel=1 note=69 velocity=126 time=0.0020833333333333333
EXTRACT: note_on channel=1 note=33 velocity=126 time=0
EXTRACT: note_on channel=1 note=69 velocity=0 time=0.24791666666666667
EXTRACT: note_on channel=1 note=33 velocity=0 time=0
EXTRACT: note_on channel=1 note=69 velocity=126 time=0.0020833333333333333
EXTRACT: note_on channel=1 note=33 velocity=126 time=0
EXTRACT: note_on channel=1 note=69 velocity=0 time=0.24791666666666667
EXTRACT: note_on channel=1 note=33 velocity=0 time=0
EXTRACT: note_on channel=0 note=67 velocity=126 time=0.0020833333333333333
EXTRACT: note_on channel=0 note=79 velocity=126 time=0
EXTRACT: note_on channel=1 note=69 velocity=126 time=0
EXTRACT: note_on channel=1 note=33 velocity=126 time=0
EXTRACT: note_on channel=0 note=67 velocity=0 time=0.23541666666666666
EXTRACT: note_on channel=0 note=79 velocity=0 time=0
EXTRACT: note_on channel=1 note=69 velocity=0 time=0.0125
EXTRACT: note_on channel=1 note=33 velocity=0 time=0
EXTRACT: note_on channel=3 note=76 velocity=0 time=0
EXTRACT: note_on channel=3 note=88 velocity=0 time=0
EXTRACT: note_on channel=9 note=40 velocity=0 time=0
EXTRACT: note_on channel=9 note=60 velocity=0 time=0
EXTRACT: note_on channel=9 note=50 velocity=0 time=0
EXTRACT: note_on channel=9 note=38 velocity=0 time=0
EXTRACT: note_on channel=9 note=72 velocity=0 time=0
EXTRACT: note_on channel=0 note=69 velocity=126 time=0.0020833333333333333
EXTRACT: note_on channel=0 note=81 velocity=126 time=0
EXTRACT: note_on channel=1 note=74 velocity=126 time=0
EXTRACT: note_on channel=1 note=38 velocity=126 time=0
EXTRACT: note_on channel=2 note=77 velocity=96 time=0
EXTRACT: note_on channel=3 note=77 velocity=80 time=0
EXTRACT: note_on channel=3 note=89 velocity=80 time=0
EXTRACT: note_on channel=9 note=38 velocity=126 time=0
EXTRACT: note_on channel=9 note=72 velocity=96 time=0
EXTRACT: note_on channel=0 note=69 velocity=0 time=0.23541666666666666
EXTRACT: note_on channel=0 note=81 velocity=0 time=0
EXTRACT: note_on channel=1 note=74 velocity=0 time=0.0125
EXTRACT: note_on channel=1 note=38 velocity=0 time=0
EXTRACT: note_on channel=2 note=77 velocity=0 time=0
EXTRACT: note_on channel=0 note=69 velocity=126 time=0.0020833333333333333
EXTRACT: note_on channel=0 note=81 velocity=126 time=0
EXTRACT: note_on channel=1 note=74 velocity=126 time=0
EXTRACT: note_on channel=1 note=38 velocity=126 time=0
EXTRACT: note_on channel=2 note=81 velocity=96 time=0
EXTRACT: note_on channel=0 note=69 velocity=0 time=0.23541666666666666
EXTRACT: note_on channel=0 note=81 velocity=0 time=0
EXTRACT: note_on channel=1 note=74 velocity=0 time=0.0125
EXTRACT: note_on channel=1 note=38 velocity=0 time=0
EXTRACT: note_on channel=2 note=81 velocity=0 time=0
EXTRACT: note_on channel=0 note=69 velocity=126 time=0.0020833333333333333
EXTRACT: note_on channel=0 note=81 velocity=126 time=0
EXTRACT: note_on channel=1 note=74 velocity=126 time=0
EXTRACT: note_on channel=1 note=38 velocity=126 time=0
EXTRACT: note_on channel=2 note=84 velocity=96 time=0
EXTRACT: note_on channel=0 note=69 velocity=0 time=0.23541666666666666
EXTRACT: note_on channel=0 note=81 velocity=0 time=0
EXTRACT: note_on channel=1 note=74 velocity=0 time=0.0125
EXTRACT: note_on channel=1 note=38 velocity=0 time=0
EXTRACT: note_on channel=2 note=84 velocity=0 time=0
EXTRACT: note_on channel=0 note=69 velocity=126 time=0.0020833333333333333
EXTRACT: note_on channel=0 note=81 velocity=126 time=0
EXTRACT: note_on channel=1 note=74 velocity=126 time=0
EXTRACT: note_on channel=1 note=38 velocity=126 time=0
EXTRACT: note_on channel=2 note=81 velocity=96 time=0
EXTRACT: note_on channel=0 note=69 velocity=0 time=0.23541666666666666
EXTRACT: note_on channel=0 note=81 velocity=0 time=0
EXTRACT: note_on channel=1 note=74 velocity=0 time=0.0125
EXTRACT: note_on channel=1 note=38 velocity=0 time=0
EXTRACT: note_on channel=2 note=81 velocity=0 time=0
EXTRACT: note_on channel=3 note=77 velocity=0 time=0
EXTRACT: note_on channel=3 note=89 velocity=0 time=0
EXTRACT: note_on channel=9 note=38 velocity=0 time=0
EXTRACT: note_on channel=9 note=72 velocity=0 time=0
EXTRACT: note_on channel=0 note=72 velocity=126 time=0.0020833333333333333
EXTRACT: note_on channel=0 note=84 velocity=126 time=0
EXTRACT: note_on channel=1 note=72 velocity=126 time=0
EXTRACT: note_on channel=1 note=36 velocity=126 time=0
EXTRACT: note_on channel=2 note=76 velocity=96 time=0
EXTRACT: note_on channel=3 note=76 velocity=80 time=0
EXTRACT: note_on channel=3 note=88 velocity=80 time=0
EXTRACT: note_on channel=9 note=40 velocity=96 time=0
EXTRACT: note_on channel=9 note=60 velocity=126 time=0
EXTRACT: note_on channel=9 note=50 velocity=80 time=0
EXTRACT: note_on channel=9 note=38 velocity=126 time=0
EXTRACT: note_on channel=9 note=72 velocity=96 time=0
EXTRACT: note_on channel=1 note=72 velocity=0 time=0.24791666666666667
EXTRACT: note_on channel=1 note=36 velocity=0 time=0
EXTRACT: note_on channel=2 note=76 velocity=0 time=0
EXTRACT: note_on channel=1 note=72 velocity=126 time=0.0020833333333333333
EXTRACT: note_on channel=1 note=36 velocity=126 time=0
EXTRACT: note_on channel=2 note=81 velocity=96 time=0
EXTRACT: note_on channel=0 note=72 velocity=0 time=0.22291666666666665
EXTRACT: note_on channel=0 note=84 velocity=0 time=0
EXTRACT: note_on channel=1 note=72 velocity=0 time=0.025
EXTRACT: note_on channel=1 note=36 velocity=0 time=0
EXTRACT: note_on channel=2 note=81 velocity=0 time=0
EXTRACT: note_on channel=0 note=69 velocity=126 time=0.0020833333333333333
EXTRACT: note_on channel=0 note=81 velocity=126 time=0
EXTRACT: note_on channel=1 note=72 velocity=126 time=0
EXTRACT: note_on channel=1 note=36 velocity=126 time=0
EXTRACT: note_on channel=2 note=83 velocity=96 time=0
EXTRACT: note_on channel=0 note=69 velocity=0 time=0.23541666666666666
EXTRACT: note_on channel=0 note=81 velocity=0 time=0
EXTRACT: note_on channel=1 note=72 velocity=0 time=0.0125
EXTRACT: note_on channel=1 note=36 velocity=0 time=0
EXTRACT: note_on channel=2 note=83 velocity=0 time=0
EXTRACT: note_on channel=0 note=67 velocity=126 time=0.0020833333333333333
EXTRACT: note_on channel=0 note=79 velocity=126 time=0
EXTRACT: note_on channel=1 note=72 velocity=126 time=0
EXTRACT: note_on channel=1 note=36 velocity=126 time=0
EXTRACT: note_on channel=2 note=81 velocity=96 time=0
EXTRACT: note_on channel=0 note=67 velocity=0 time=0.23541666666666666
EXTRACT: note_on channel=0 note=79 velocity=0 time=0
EXTRACT: note_on channel=1 note=72 velocity=0 time=0.0125
EXTRACT: note_on channel=1 note=36 velocity=0 time=0
EXTRACT: note_on channel=2 note=81 velocity=0 time=0
EXTRACT: note_on channel=3 note=76 velocity=0 time=0
EXTRACT: note_on channel=3 note=88 velocity=0 time=0
EXTRACT: note_on channel=9 note=40 velocity=0 time=0
EXTRACT: note_on channel=9 note=60 velocity=0 time=0
EXTRACT: note_on channel=9 note=50 velocity=0 time=0
EXTRACT: note_on channel=9 note=38 velocity=0 time=0
EXTRACT: note_on channel=9 note=72 velocity=0 time=0
EXTRACT: note_on channel=0 note=69 velocity=126 time=0.0020833333333333333
EXTRACT: note_on channel=0 note=81 velocity=126 time=0
EXTRACT: note_on channel=0 note=93 velocity=126 time=0
EXTRACT: note_on channel=1 note=77 velocity=126 time=0
EXTRACT: note_on channel=1 note=41 velocity=126 time=0
EXTRACT: note_on channel=2 note=77 velocity=96 time=0
EXTRACT: note_on channel=3 note=81 velocity=80 time=0
EXTRACT: note_on channel=3 note=93 velocity=80 time=0
EXTRACT: note_on channel=0 note=69 velocity=0 time=0.23541666666666666
EXTRACT: note_on channel=0 note=81 velocity=0 time=0
EXTRACT: note_on channel=0 note=93 velocity=0 time=0
EXTRACT: note_on channel=1 note=77 velocity=0 time=0.0125
EXTRACT: note_on channel=1 note=41 velocity=0 time=0
EXTRACT: note_on channel=2 note=77 velocity=0 time=0
EXTRACT: note_on channel=0 note=91 velocity=126 time=0.0020833333333333333
EXTRACT: note_on channel=1 note=77 velocity=126 time=0
EXTRACT: note_on channel=1 note=41 velocity=126 time=0
EXTRACT: note_on channel=2 note=81 velocity=96 time=0
EXTRACT: note_on channel=0 note=91 velocity=0 time=0.23541666666666666
EXTRACT: note_on channel=1 note=77 velocity=0 time=0.0125
EXTRACT: note_on channel=1 note=41 velocity=0 time=0
EXTRACT: note_on channel=2 note=81 velocity=0 time=0
EXTRACT: note_on channel=0 note=89 velocity=126 time=0.0020833333333333333
EXTRACT: note_on channel=1 note=77 velocity=126 time=0
EXTRACT: note_on channel=1 note=41 velocity=126 time=0
EXTRACT: note_on channel=2 note=84 velocity=96 time=0
EXTRACT: note_on channel=9 note=38 velocity=126 time=0
EXTRACT: note_on channel=9 note=48 velocity=96 time=0
EXTRACT: note_on channel=0 note=89 velocity=0 time=0.23541666666666666
EXTRACT: note_on channel=1 note=77 velocity=0 time=0.0125
EXTRACT: note_on channel=1 note=41 velocity=0 time=0
EXTRACT: note_on channel=2 note=84 velocity=0 time=0
EXTRACT: note_on channel=0 note=88 velocity=126 time=0.0020833333333333333
EXTRACT: note_on channel=1 note=77 velocity=126 time=0
EXTRACT: note_on channel=1 note=41 velocity=126 time=0
EXTRACT: note_on channel=2 note=89 velocity=96 time=0
EXTRACT: note_on channel=0 note=88 velocity=0 time=0.23541666666666666
EXTRACT: note_on channel=1 note=77 velocity=0 time=0.0125
EXTRACT: note_on channel=1 note=41 velocity=0 time=0
EXTRACT: note_on channel=2 note=89 velocity=0 time=0
EXTRACT: note_on channel=9 note=38 velocity=0 time=0
EXTRACT: note_on channel=9 note=48 velocity=0 time=0
EXTRACT: note_on channel=0 note=86 velocity=126 time=0.0020833333333333333
EXTRACT: note_on channel=1 note=77 velocity=126 time=0
EXTRACT: note_on channel=1 note=41 velocity=126 time=0
EXTRACT: note_on channel=2 note=81 velocity=96 time=0
EXTRACT: note_on channel=9 note=40 velocity=96 time=0
EXTRACT: note_on channel=9 note=60 velocity=126 time=0
EXTRACT: note_on channel=9 note=50 velocity=80 time=0
EXTRACT: note_on channel=9 note=38 velocity=126 time=0
EXTRACT: note_on channel=9 note=72 velocity=96 time=0
EXTRACT: note_on channel=1 note=77 velocity=0 time=0.24791666666666667
EXTRACT: note_on channel=1 note=41 velocity=0 time=0
EXTRACT: note_on channel=1 note=77 velocity=126 time=0.0020833333333333333
EXTRACT: note_on channel=1 note=41 velocity=126 time=0
EXTRACT: note_on channel=0 note=86 velocity=0 time=0.22291666666666665
EXTRACT: note_on channel=1 note=77 velocity=0 time=0.025
EXTRACT: note_on channel=1 note=41 velocity=0 time=0
EXTRACT: note_on channel=0 note=81 velocity=126 time=0.0020833333333333333
EXTRACT: note_on channel=1 note=77 velocity=126 time=0
EXTRACT: note_on channel=1 note=41 velocity=126 time=0
EXTRACT: note_on channel=0 note=81 velocity=0 time=0.23541666666666666
EXTRACT: note_on channel=1 note=77 velocity=0 time=0.0125
EXTRACT: note_on channel=1 note=41 velocity=0 time=0
EXTRACT: note_on channel=0 note=79 velocity=126 time=0.0020833333333333333
EXTRACT: note_on channel=1 note=77 velocity=126 time=0
EXTRACT: note_on channel=1 note=41 velocity=126 time=0
EXTRACT: note_on channel=0 note=79 velocity=0 time=0.23541666666666666
EXTRACT: note_on channel=1 note=77 velocity=0 time=0.0125
EXTRACT: note_on channel=1 note=41 velocity=0 time=0
EXTRACT: note_on channel=3 note=81 velocity=0 time=0
EXTRACT: note_on channel=3 note=93 velocity=0 time=0
EXTRACT: note_on channel=9 note=40 velocity=0 time=0
EXTRACT: note_on channel=9 note=60 velocity=0 time=0
EXTRACT: note_on channel=9 note=50 velocity=0 time=0
EXTRACT: note_on channel=9 note=38 velocity=0 time=0
EXTRACT: note_on channel=9 note=72 velocity=0 time=0
EXTRACT: note_on channel=0 note=76 velocity=126 time=0.0020833333333333333
EXTRACT: note_on channel=0 note=88 velocity=126 time=0
EXTRACT: note_on channel=0 note=57 velocity=126 time=0
EXTRACT: note_on channel=2 note=81 velocity=96 time=0
EXTRACT: note_on channel=2 note=45 velocity=96 time=0
EXTRACT: note_on channel=3 note=81 velocity=80 time=0
EXTRACT: note_on channel=3 note=93 velocity=80 time=0
EXTRACT: note_on channel=9 note=74 velocity=126 time=0
EXTRACT: note_on channel=9 note=74 velocity=80 time=0
EXTRACT: note_on channel=9 note=38 velocity=126 time=0
EXTRACT: note_on channel=9 note=72 velocity=96 time=0
EXTRACT: note_on channel=0 note=76 velocity=0 time=0.23541666666666666
EXTRACT: note_on channel=0 note=88 velocity=0 time=0
EXTRACT: note_on channel=0 note=74 velocity=126 time=0.014583333333333334
EXTRACT: note_on channel=0 note=86 velocity=126 time=0
EXTRACT: note_on channel=0 note=74 velocity=0 time=0.23541666666666666
EXTRACT: note_on channel=0 note=86 velocity=0 time=0
EXTRACT: note_on channel=0 note=72 velocity=126 time=0.014583333333333334
EXTRACT: note_on channel=0 note=84 velocity=126 time=0
EXTRACT: note_on channel=9 note=74 velocity=0 time=0.4979166666666667
EXTRACT: note_on channel=9 note=74 velocity=0 time=0
EXTRACT: note_on channel=9 note=38 velocity=0 time=0
EXTRACT: note_on channel=9 note=72 velocity=0 time=0
EXTRACT: note_on channel=9 note=40 velocity=96 time=0.0020833333333333333
EXTRACT: note_on channel=9 note=60 velocity=126 time=0
EXTRACT: note_on channel=9 note=50 velocity=80 time=0
EXTRACT: note_on channel=9 note=38 velocity=126 time=0
EXTRACT: note_on channel=9 note=72 velocity=96 time=0
EXTRACT: note_on channel=0 note=72 velocity=0 time=0.4479166666666667
EXTRACT: note_on channel=0 note=84 velocity=0 time=0
EXTRACT: note_on channel=0 note=74 velocity=126 time=0.052083333333333336
EXTRACT: note_on channel=0 note=86 velocity=126 time=0
EXTRACT: note_on channel=0 note=57 velocity=0 time=0.39791666666666664
EXTRACT: note_on channel=0 note=74 velocity=0 time=0.075
EXTRACT: note_on channel=0 note=86 velocity=0 time=0
EXTRACT: note_on channel=2 note=81 velocity=0 time=0.025
EXTRACT: note_on channel=2 note=45 velocity=0 time=0
EXTRACT: note_on channel=3 note=81 velocity=0 time=0
EXTRACT: note_on channel=3 note=93 velocity=0 time=0
EXTRACT: note_on channel=9 note=40 velocity=0 time=0
EXTRACT: note_on channel=9 note=60 velocity=0 time=0
EXTRACT: note_on channel=9 note=50 velocity=0 time=0
EXTRACT: note_on channel=9 note=38 velocity=0 time=0
EXTRACT: note_on channel=9 note=72 velocity=0 time=0
EXTRACT: note_on channel=0 note=76 velocity=126 time=0.0020833333333333333
EXTRACT: note_on channel=0 note=88 velocity=126 time=0
EXTRACT: note_on channel=0 note=52 velocity=126 time=0
EXTRACT: note_on channel=2 note=76 velocity=96 time=0
EXTRACT: note_on channel=2 note=40 velocity=96 time=0
EXTRACT: note_on channel=3 note=76 velocity=80 time=0
EXTRACT: note_on channel=3 note=88 velocity=80 time=0
EXTRACT: note_on channel=0 note=76 velocity=0 time=0.23541666666666666
EXTRACT: note_on channel=0 note=88 velocity=0 time=0
EXTRACT: note_on channel=0 note=74 velocity=126 time=0.014583333333333334
EXTRACT: note_on channel=0 note=86 velocity=126 time=0
EXTRACT: note_on channel=9 note=38 velocity=126 time=0.25
EXTRACT: note_on channel=9 note=48 velocity=96 time=0
EXTRACT: note_on channel=9 note=38 velocity=0 time=0.4979166666666667
EXTRACT: note_on channel=9 note=48 velocity=0 time=0
EXTRACT: note_on channel=9 note=40 velocity=96 time=0.0020833333333333333
EXTRACT: note_on channel=9 note=60 velocity=126 time=0
EXTRACT: note_on channel=9 note=50 velocity=80 time=0
EXTRACT: note_on channel=9 note=38 velocity=126 time=0
EXTRACT: note_on channel=9 note=72 velocity=96 time=0
EXTRACT: note_on channel=0 note=74 velocity=0 time=0.19791666666666666
EXTRACT: note_on channel=0 note=86 velocity=0 time=0
EXTRACT: note_on channel=0 note=74 velocity=126 time=0.3020833333333333
EXTRACT: note_on channel=0 note=86 velocity=126 time=0
EXTRACT: note_on channel=0 note=52 velocity=0 time=0.39791666666666664
EXTRACT: note_on channel=0 note=74 velocity=0 time=0.075
EXTRACT: note_on channel=0 note=86 velocity=0 time=0
EXTRACT: note_on channel=2 note=76 velocity=0 time=0.025
EXTRACT: note_on channel=2 note=40 velocity=0 time=0
EXTRACT: note_on channel=3 note=76 velocity=0 time=0
EXTRACT: note_on channel=3 note=88 velocity=0 time=0
EXTRACT: note_on channel=9 note=40 velocity=0 time=0
EXTRACT: note_on channel=9 note=60 velocity=0 time=0
EXTRACT: note_on channel=9 note=50 velocity=0 time=0
EXTRACT: note_on channel=9 note=38 velocity=0 time=0
EXTRACT: note_on channel=9 note=72 velocity=0 time=0
EXTRACT: note_on channel=0 note=76 velocity=126 time=0.0020833333333333333
EXTRACT: note_on channel=0 note=88 velocity=126 time=0
EXTRACT: note_on channel=0 note=48 velocity=126 time=0
EXTRACT: note_on channel=2 note=72 velocity=96 time=0
EXTRACT: note_on channel=3 note=79 velocity=80 time=0
EXTRACT: note_on channel=3 note=91 velocity=80 time=0
EXTRACT: note_on channel=9 note=38 velocity=126 time=0
EXTRACT: note_on channel=9 note=72 velocity=96 time=0
EXTRACT: note_on channel=0 note=76 velocity=0 time=0.23541666666666666
EXTRACT: note_on channel=0 note=88 velocity=0 time=0
EXTRACT: note_on channel=0 note=74 velocity=126 time=0.014583333333333334
EXTRACT: note_on channel=0 note=86 velocity=126 time=0
EXTRACT: note_on channel=0 note=74 velocity=0 time=0.23541666666666666
EXTRACT: note_on channel=0 note=86 velocity=0 time=0
EXTRACT: note_on channel=0 note=72 velocity=126 time=0.014583333333333334
EXTRACT: note_on channel=0 note=84 velocity=126 time=0
EXTRACT: note_on channel=9 note=38 velocity=0 time=0.4979166666666667
EXTRACT: note_on channel=9 note=72 velocity=0 time=0
EXTRACT: note_on channel=9 note=40 velocity=96 time=0.0020833333333333333
EXTRACT: note_on channel=9 note=60 velocity=126 time=0
EXTRACT: note_on channel=9 note=50 velocity=80 time=0
EXTRACT: note_on channel=9 note=38 velocity=126 time=0
EXTRACT: note_on channel=9 note=72 velocity=96 time=0
EXTRACT: note_on channel=0 note=72 velocity=0 time=0.4479166666666667
EXTRACT: note_on channel=0 note=84 velocity=0 time=0
EXTRACT: note_on channel=0 note=74 velocity=126 time=0.052083333333333336
EXTRACT: note_on channel=0 note=86 velocity=126 time=0
EXTRACT: note_on channel=0 note=48 velocity=0 time=0.39791666666666664
EXTRACT: note_on channel=0 note=74 velocity=0 time=0.075
EXTRACT: note_on channel=0 note=86 velocity=0 time=0
EXTRACT: note_on channel=2 note=72 velocity=0 time=0.025
EXTRACT: note_on channel=3 note=79 velocity=0 time=0
EXTRACT: note_on channel=3 note=91 velocity=0 time=0
EXTRACT: note_on channel=9 note=40 velocity=0 time=0
EXTRACT: note_on channel=9 note=60 velocity=0 time=0
EXTRACT: note_on channel=9 note=50 velocity=0 time=0
EXTRACT: note_on channel=9 note=38 velocity=0 time=0
EXTRACT: note_on channel=9 note=72 velocity=0 time=0
EXTRACT: note_on channel=0 note=76 velocity=126 time=0.0020833333333333333
EXTRACT: note_on channel=0 note=88 velocity=126 time=0
EXTRACT: note_on channel=0 note=50 velocity=126 time=0
EXTRACT: note_on channel=2 note=74 velocity=96 time=0
EXTRACT: note_on channel=3 note=78 velocity=80 time=0
EXTRACT: note_on channel=3 note=90 velocity=80 time=0
EXTRACT: note_on channel=0 note=76 velocity=0 time=0.23541666666666666
EXTRACT: note_on channel=0 note=88 velocity=0 time=0
EXTRACT: note_on channel=0 note=74 velocity=126 time=0.014583333333333334
EXTRACT: note_on channel=0 note=86 velocity=126 time=0
EXTRACT: note_on channel=9 note=38 velocity=126 time=0.25
EXTRACT: note_on channel=9 note=48 velocity=96 time=0
EXTRACT: note_on channel=9 note=38 velocity=0 time=0.4979166666666667
EXTRACT: note_on channel=9 note=48 velocity=0 time=0
EXTRACT: note_on channel=1 note=81 velocity=126 time=0.0020833333333333333
EXTRACT: note_on channel=1 note=57 velocity=126 time=0
EXTRACT: note_on channel=9 note=40 velocity=96 time=0
EXTRACT: note_on channel=9 note=60 velocity=126 time=0
EXTRACT: note_on channel=9 note=50 velocity=80 time=0
EXTRACT: note_on channel=9 note=38 velocity=126 time=0
EXTRACT: note_on channel=9 note=72 velocity=96 time=0
EXTRACT: note_on channel=0 note=74 velocity=0 time=0.19791666666666666
EXTRACT: note_on channel=0 note=86 velocity=0 time=0
EXTRACT: note_on channel=1 note=81 velocity=0 time=0.05
EXTRACT: note_on channel=1 note=57 velocity=0 time=0
EXTRACT: note_on channel=1 note=81 velocity=126 time=0.0020833333333333333
EXTRACT: note_on channel=1 note=57 velocity=126 time=0
EXTRACT: note_on channel=1 note=81 velocity=0 time=0.24791666666666667
EXTRACT: note_on channel=1 note=57 velocity=0 time=0
EXTRACT: note_on channel=0 note=69 velocity=126 time=0.0020833333333333333
EXTRACT: note_on channel=0 note=81 velocity=126 time=0
EXTRACT: note_on channel=1 note=69 velocity=126 time=0
EXTRACT: note_on channel=1 note=45 velocity=126 time=0
EXTRACT: note_on channel=0 note=50 velocity=0 time=0.39791666666666664
EXTRACT: note_on channel=0 note=69 velocity=0 time=0.075
EXTRACT: note_on channel=0 note=81 velocity=0 time=0
EXTRACT: note_on channel=1 note=69 velocity=0 time=0.025
EXTRACT: note_on channel=1 note=45 velocity=0 time=0
EXTRACT: note_on channel=2 note=81 velocity=0 time=0
EXTRACT: note_on channel=2 note=74 velocity=0 time=0
EXTRACT: note_on channel=3 note=78 velocity=0 time=0
EXTRACT: note_on channel=3 note=90 velocity=0 time=0
EXTRACT: note_on channel=9 note=40 velocity=0 time=0
EXTRACT: note_on channel=9 note=60 velocity=0 time=0
EXTRACT: note_on channel=9 note=50 velocity=0 time=0
EXTRACT: note_on channel=9 note=38 velocity=0 time=0
EXTRACT: note_on channel=9 note=72 velocity=0 time=0
EXTRACT: note_on channel=0 note=69 velocity=126 time=0.0020833333333333333
EXTRACT: note_on channel=0 note=81 velocity=126 time=0
EXTRACT: note_on channel=1 note=77 velocity=126 time=0
EXTRACT: note_on channel=1 note=41 velocity=126 time=0
EXTRACT: note_on channel=3 note=81 velocity=80 time=0
EXTRACT: note_on channel=3 note=93 velocity=80 time=0
EXTRACT: note_on channel=9 note=38 velocity=126 time=0
EXTRACT: note_on channel=9 note=72 velocity=96 time=0
EXTRACT: note_on channel=0 note=69 velocity=0 time=0.23541666666666666
EXTRACT: note_on channel=0 note=81 velocity=0 time=0
EXTRACT: note_on channel=1 note=77 velocity=0 time=0.0125
EXTRACT: note_on channel=1 note=41 velocity=0 time=0
EXTRACT: note_on channel=0 note=69 velocity=126 time=0.0020833333333333333
EXTRACT: note_on channel=0 note=81 velocity=126 time=0
EXTRACT: note_on channel=1 note=77 velocity=126 time=0
EXTRACT: note_on channel=1 note=41 velocity=126 time=0
EXTRACT: note_on channel=1 note=77 velocity=0 time=0.24791666666666667
EXTRACT: note_on channel=1 note=41 velocity=0 time=0
EXTRACT: note_on channel=1 note=77 velocity=126 time=0.0020833333333333333
EXTRACT: note_on channel=1 note=41 velocity=126 time=0
EXTRACT: note_on channel=0 note=69 velocity=0 time=0.22291666666666665
EXTRACT: note_on channel=0 note=81 velocity=0 time=0
EXTRACT: note_on channel=1 note=77 velocity=0 time=0.025
EXTRACT: note_on channel=1 note=41 velocity=0 time=0
EXTRACT: note_on channel=0 note=76 velocity=126 time=0.0020833333333333333
EXTRACT: note_on channel=0 note=88 velocity=126 time=0
EXTRACT: note_on channel=1 note=77 velocity=126 time=0
EXTRACT: note_on channel=1 note=41 velocity=126 time=0
EXTRACT: note_on channel=0 note=76 velocity=0 time=0.23541666666666666
EXTRACT: note_on channel=0 note=88 velocity=0 time=0
EXTRACT: note_on channel=1 note=77 velocity=0 time=0.0125
EXTRACT: note_on channel=1 note=41 velocity=0 time=0
EXTRACT: note_on channel=9 note=38 velocity=0 time=0
EXTRACT: note_on channel=9 note=72 velocity=0 time=0
EXTRACT: note_on channel=0 note=74 velocity=126 time=0.0020833333333333333
EXTRACT: note_on channel=0 note=86 velocity=126 time=0
EXTRACT: note_on channel=1 note=77 velocity=126 time=0
EXTRACT: note_on channel=1 note=41 velocity=126 time=0
EXTRACT: note_on channel=9 note=40 velocity=96 time=0
EXTRACT: note_on channel=9 note=60 velocity=126 time=0
EXTRACT: note_on channel=9 note=50 velocity=80 time=0
EXTRACT: note_on channel=9 note=38 velocity=126 time=0
EXTRACT: note_on channel=9 note=72 velocity=96 time=0
EXTRACT: note_on channel=1 note=77 velocity=0 time=0.24791666666666667
EXTRACT: note_on channel=1 note=41 velocity=0 time=0
EXTRACT: note_on channel=1 note=77 velocity=126 time=0.0020833333333333333
EXTRACT: note_on channel=1 note=41 velocity=126 time=0
EXTRACT: note_on channel=0 note=74 velocity=0 time=0.22291666666666665
EXTRACT: note_on channel=0 note=86 velocity=0 time=0
EXTRACT: note_on channel=1 note=77 velocity=0 time=0.025
EXTRACT: note_on channel=1 note=41 velocity=0 time=0
EXTRACT: note_on channel=0 note=72 velocity=126 time=0.0020833333333333333
EXTRACT: note_on channel=0 note=84 velocity=126 time=0
EXTRACT: note_on channel=1 note=77 velocity=126 time=0
EXTRACT: note_on channel=1 note=41 velocity=126 time=0
EXTRACT: note_on channel=0 note=72 velocity=0 time=0.23541666666666666
EXTRACT: note_on channel=0 note=84 velocity=0 time=0
EXTRACT: note_on channel=1 note=77 velocity=0 time=0.0125
EXTRACT: note_on channel=1 note=41 velocity=0 time=0
EXTRACT: note_on channel=0 note=69 velocity=126 time=0.0020833333333333333
EXTRACT: note_on channel=0 note=81 velocity=126 time=0
EXTRACT: note_on channel=1 note=77 velocity=126 time=0
EXTRACT: note_on channel=1 note=41 velocity=126 time=0
EXTRACT: note_on channel=0 note=69 velocity=0 time=0.23541666666666666
EXTRACT: note_on channel=0 note=81 velocity=0 time=0
EXTRACT: note_on channel=1 note=77 velocity=0 time=0.0125
EXTRACT: note_on channel=1 note=41 velocity=0 time=0
EXTRACT: note_on channel=3 note=81 velocity=0 time=0
EXTRACT: note_on channel=3 note=93 velocity=0 time=0
EXTRACT: note_on channel=9 note=40 velocity=0 time=0
EXTRACT: note_on channel=9 note=60 velocity=0 time=0
EXTRACT: note_on channel=9 note=50 velocity=0 time=0
EXTRACT: note_on channel=9 note=38 velocity=0 time=0
EXTRACT: note_on channel=9 note=72 velocity=0 time=0
EXTRACT: note_on channel=0 note=74 velocity=126 time=0.0020833333333333333
EXTRACT: note_on channel=0 note=86 velocity=126 time=0
EXTRACT: note_on channel=1 note=69 velocity=126 time=0
EXTRACT: note_on channel=1 note=33 velocity=126 time=0
EXTRACT: note_on channel=3 note=76 velocity=80 time=0
EXTRACT: note_on channel=3 note=88 velocity=80 time=0
EXTRACT: note_on channel=0 note=74 velocity=0 time=0.23541666666666666
EXTRACT: note_on channel=0 note=86 velocity=0 time=0
EXTRACT: note_on channel=1 note=69 velocity=0 time=0.0125
EXTRACT: note_on channel=1 note=33 velocity=0 time=0
EXTRACT: note_on channel=0 note=69 velocity=126 time=0.0020833333333333333
EXTRACT: note_on channel=0 note=81 velocity=126 time=0
EXTRACT: note_on channel=1 note=69 velocity=126 time=0
EXTRACT: note_on channel=1 note=33 velocity=126 time=0
EXTRACT: note_on channel=0 note=69 velocity=0 time=0.23541666666666666
EXTRACT: note_on channel=0 note=81 velocity=0 time=0
EXTRACT: note_on channel=1 note=69 velocity=0 time=0.0125
EXTRACT: note_on channel=1 note=33 velocity=0 time=0
EXTRACT: note_on channel=0 note=67 velocity=126 time=0.0020833333333333333
EXTRACT: note_on channel=0 note=79 velocity=126 time=0
EXTRACT: note_on channel=1 note=69 velocity=126 time=0
EXTRACT: note_on channel=1 note=33 velocity=126 time=0
EXTRACT: note_on channel=9 note=38 velocity=126 time=0
EXTRACT: note_on channel=9 note=48 velocity=96 time=0
EXTRACT: note_on channel=0 note=67 velocity=0 time=0.23541666666666666
EXTRACT: note_on channel=0 note=79 velocity=0 time=0
EXTRACT: note_on channel=1 note=69 velocity=0 time=0.0125
EXTRACT: note_on channel=1 note=33 velocity=0 time=0
EXTRACT: note_on channel=0 note=69 velocity=126 time=0.0020833333333333333
EXTRACT: note_on channel=0 note=81 velocity=126 time=0
EXTRACT: note_on channel=1 note=69 velocity=126 time=0
EXTRACT: note_on channel=1 note=33 velocity=126 time=0
EXTRACT: note_on channel=1 note=69 velocity=0 time=0.24791666666666667
EXTRACT: note_on channel=1 note=33 velocity=0 time=0
EXTRACT: note_on channel=9 note=38 velocity=0 time=0
EXTRACT: note_on channel=9 note=48 velocity=0 time=0
EXTRACT: note_on channel=1 note=69 velocity=126 time=0.0020833333333333333
EXTRACT: note_on channel=1 note=33 velocity=126 time=0
EXTRACT: note_on channel=9 note=40 velocity=96 time=0
EXTRACT: note_on channel=9 note=60 velocity=126 time=0
EXTRACT: note_on channel=9 note=50 velocity=80 time=0
EXTRACT: note_on channel=9 note=38 velocity=126 time=0
EXTRACT: note_on channel=9 note=72 velocity=96 time=0
EXTRACT: note_on channel=0 note=69 velocity=0 time=0.22291666666666665
EXTRACT: note_on channel=0 note=81 velocity=0 time=0
EXTRACT: note_on channel=1 note=69 velocity=0 time=0.025
EXTRACT: note_on channel=1 note=33 velocity=0 time=0
EXTRACT: note_on channel=1 note=69 velocity=126 time=0.0020833333333333333
EXTRACT: note_on channel=1 note=33 velocity=126 time=0
EXTRACT: note_on channel=1 note=69 velocity=0 time=0.24791666666666667
EXTRACT: note_on channel=1 note=33 velocity=0 time=0
EXTRACT: note_on channel=1 note=69 velocity=126 time=0.0020833333333333333
EXTRACT: note_on channel=1 note=33 velocity=126 time=0
EXTRACT: note_on channel=1 note=69 velocity=0 time=0.24791666666666667
EXTRACT: note_on channel=1 note=33 velocity=0 time=0
EXTRACT: note_on channel=0 note=67 velocity=126 time=0.0020833333333333333
EXTRACT: note_on channel=0 note=79 velocity=126 time=0
EXTRACT: note_on channel=1 note=69 velocity=126 time=0
EXTRACT: note_on channel=1 note=33 velocity=126 time=0
EXTRACT: note_on channel=0 note=67 velocity=0 time=0.23541666666666666
EXTRACT: note_on channel=0 note=79 velocity=0 time=0
EXTRACT: note_on channel=1 note=69 velocity=0 time=0.0125
EXTRACT: note_on channel=1 note=33 velocity=0 time=0
EXTRACT: note_on channel=3 note=76 velocity=0 time=0
EXTRACT: note_on channel=3 note=88 velocity=0 time=0
EXTRACT: note_on channel=9 note=40 velocity=0 time=0
EXTRACT: note_on channel=9 note=60 velocity=0 time=0
EXTRACT: note_on channel=9 note=50 velocity=0 time=0
EXTRACT: note_on channel=9 note=38 velocity=0 time=0
EXTRACT: note_on channel=9 note=72 velocity=0 time=0
EXTRACT: note_on channel=0 note=69 velocity=126 time=0.0020833333333333333
EXTRACT: note_on channel=0 note=81 velocity=126 time=0
EXTRACT: note_on channel=1 note=74 velocity=126 time=0
EXTRACT: note_on channel=1 note=38 velocity=126 time=0
EXTRACT: note_on channel=2 note=77 velocity=96 time=0
EXTRACT: note_on channel=3 note=77 velocity=80 time=0
EXTRACT: note_on channel=3 note=89 velocity=80 time=0
EXTRACT: note_on channel=9 note=38 velocity=126 time=0
EXTRACT: note_on channel=9 note=72 velocity=96 time=0
EXTRACT: note_on channel=0 note=69 velocity=0 time=0.23541666666666666
EXTRACT: note_on channel=0 note=81 velocity=0 time=0
EXTRACT: note_on channel=1 note=74 velocity=0 time=0.0125
EXTRACT: note_on channel=1 note=38 velocity=0 time=0
EXTRACT: note_on channel=2 note=77 velocity=0 time=0
EXTRACT: note_on channel=0 note=69 velocity=126 time=0.0020833333333333333
EXTRACT: note_on channel=0 note=81 velocity=126 time=0
EXTRACT: note_on channel=1 note=74 velocity=126 time=0
EXTRACT: note_on channel=1 note=38 velocity=126 time=0
EXTRACT: note_on channel=2 note=81 velocity=96 time=0
EXTRACT: note_on channel=0 note=69 velocity=0 time=0.23541666666666666
EXTRACT: note_on channel=0 note=81 velocity=0 time=0
EXTRACT: note_on channel=1 note=74 velocity=0 time=0.0125
EXTRACT: note_on channel=1 note=38 velocity=0 time=0
EXTRACT: note_on channel=2 note=81 velocity=0 time=0
EXTRACT: note_on channel=0 note=69 velocity=126 time=0.0020833333333333333
EXTRACT: note_on channel=0 note=81 velocity=126 time=0
EXTRACT: note_on channel=1 note=74 velocity=126 time=0
EXTRACT: note_on channel=1 note=38 velocity=126 time=0
EXTRACT: note_on channel=2 note=84 velocity=96 time=0
EXTRACT: note_on channel=0 note=69 velocity=0 time=0.23541666666666666
EXTRACT: note_on channel=0 note=81 velocity=0 time=0
EXTRACT: note_on channel=1 note=74 velocity=0 time=0.0125
EXTRACT: note_on channel=1 note=38 velocity=0 time=0
EXTRACT: note_on channel=2 note=84 velocity=0 time=0
EXTRACT: note_on channel=0 note=69 velocity=126 time=0.0020833333333333333
EXTRACT: note_on channel=0 note=81 velocity=126 time=0
EXTRACT: note_on channel=1 note=74 velocity=126 time=0
EXTRACT: note_on channel=1 note=38 velocity=126 time=0
EXTRACT: note_on channel=2 note=81 velocity=96 time=0
EXTRACT: note_on channel=0 note=69 velocity=0 time=0.23541666666666666
EXTRACT: note_on channel=0 note=81 velocity=0 time=0
EXTRACT: note_on channel=1 note=74 velocity=0 time=0.0125
EXTRACT: note_on channel=1 note=38 velocity=0 time=0
EXTRACT: note_on channel=2 note=81 velocity=0 time=0
EXTRACT: note_on channel=3 note=77 velocity=0 time=0
EXTRACT: note_on channel=3 note=89 velocity=0 time=0
EXTRACT: note_on channel=9 note=38 velocity=0 time=0
EXTRACT: note_on channel=9 note=72 velocity=0 time=0
EXTRACT: note_on channel=0 note=72 velocity=126 time=0.0020833333333333333
EXTRACT: note_on channel=0 note=84 velocity=126 time=0
EXTRACT: note_on channel=1 note=72 velocity=126 time=0
EXTRACT: note_on channel=1 note=36 velocity=126 time=0
EXTRACT: note_on channel=2 note=76 velocity=96 time=0
EXTRACT: note_on channel=3 note=76 velocity=80 time=0
EXTRACT: note_on channel=3 note=88 velocity=80 time=0
EXTRACT: note_on channel=9 note=40 velocity=96 time=0
EXTRACT: note_on channel=9 note=60 velocity=126 time=0
EXTRACT: note_on channel=9 note=50 velocity=80 time=0
EXTRACT: note_on channel=9 note=38 velocity=126 time=0
EXTRACT: note_on channel=9 note=72 velocity=96 time=0
EXTRACT: note_on channel=1 note=72 velocity=0 time=0.24791666666666667
EXTRACT: note_on channel=1 note=36 velocity=0 time=0
EXTRACT: note_on channel=2 note=76 velocity=0 time=0
EXTRACT: note_on channel=1 note=72 velocity=126 time=0.0020833333333333333
EXTRACT: note_on channel=1 note=36 velocity=126 time=0
EXTRACT: note_on channel=2 note=81 velocity=96 time=0
EXTRACT: note_on channel=0 note=72 velocity=0 time=0.22291666666666665
EXTRACT: note_on channel=0 note=84 velocity=0 time=0
EXTRACT: note_on channel=1 note=72 velocity=0 time=0.025
EXTRACT: note_on channel=1 note=36 velocity=0 time=0
EXTRACT: note_on channel=2 note=81 velocity=0 time=0
EXTRACT: note_on channel=0 note=69 velocity=126 time=0.0020833333333333333
EXTRACT: note_on channel=0 note=81 velocity=126 time=0
EXTRACT: note_on channel=1 note=72 velocity=126 time=0
EXTRACT: note_on channel=1 note=36 velocity=126 time=0
EXTRACT: note_on channel=2 note=83 velocity=96 time=0
EXTRACT: note_on channel=0 note=69 velocity=0 time=0.23541666666666666
EXTRACT: note_on channel=0 note=81 velocity=0 time=0
EXTRACT: note_on channel=1 note=72 velocity=0 time=0.0125
EXTRACT: note_on channel=1 note=36 velocity=0 time=0
EXTRACT: note_on channel=2 note=83 velocity=0 time=0
EXTRACT: note_on channel=0 note=67 velocity=126 time=0.0020833333333333333
EXTRACT: note_on channel=0 note=79 velocity=126 time=0
EXTRACT: note_on channel=1 note=72 velocity=126 time=0
EXTRACT: note_on channel=1 note=36 velocity=126 time=0
EXTRACT: note_on channel=2 note=81 velocity=96 time=0
EXTRACT: note_on channel=0 note=67 velocity=0 time=0.23541666666666666
EXTRACT: note_on channel=0 note=79 velocity=0 time=0
EXTRACT: note_on channel=1 note=72 velocity=0 time=0.0125
EXTRACT: note_on channel=1 note=36 velocity=0 time=0
EXTRACT: note_on channel=2 note=81 velocity=0 time=0
EXTRACT: note_on channel=3 note=76 velocity=0 time=0
EXTRACT: note_on channel=3 note=88 velocity=0 time=0
EXTRACT: note_on channel=9 note=40 velocity=0 time=0
EXTRACT: note_on channel=9 note=60 velocity=0 time=0
EXTRACT: note_on channel=9 note=50 velocity=0 time=0
EXTRACT: note_on channel=9 note=38 velocity=0 time=0
EXTRACT: note_on channel=9 note=72 velocity=0 time=0
EXTRACT: note_on channel=0 note=69 velocity=126 time=0.0020833333333333333
EXTRACT: note_on channel=0 note=81 velocity=126 time=0
EXTRACT: note_on channel=0 note=93 velocity=126 time=0
EXTRACT: note_on channel=1 note=77 velocity=126 time=0
EXTRACT: note_on channel=1 note=41 velocity=126 time=0
EXTRACT: note_on channel=2 note=77 velocity=96 time=0
EXTRACT: note_on channel=3 note=81 velocity=80 time=0
EXTRACT: note_on channel=3 note=93 velocity=80 time=0
EXTRACT: note_on channel=0 note=69 velocity=0 time=0.23541666666666666
EXTRACT: note_on channel=0 note=81 velocity=0 time=0
EXTRACT: note_on channel=0 note=93 velocity=0 time=0
EXTRACT: note_on channel=1 note=77 velocity=0 time=0.0125
EXTRACT: note_on channel=1 note=41 velocity=0 time=0
EXTRACT: note_on channel=2 note=77 velocity=0 time=0
EXTRACT: note_on channel=0 note=91 velocity=126 time=0.0020833333333333333
EXTRACT: note_on channel=1 note=77 velocity=126 time=0
EXTRACT: note_on channel=1 note=41 velocity=126 time=0
EXTRACT: note_on channel=2 note=81 velocity=96 time=0
EXTRACT: note_on channel=0 note=91 velocity=0 time=0.23541666666666666
EXTRACT: note_on channel=1 note=77 velocity=0 time=0.0125
EXTRACT: note_on channel=1 note=41 velocity=0 time=0
EXTRACT: note_on channel=2 note=81 velocity=0 time=0
EXTRACT: note_on channel=0 note=89 velocity=126 time=0.0020833333333333333
EXTRACT: note_on channel=1 note=77 velocity=126 time=0
EXTRACT: note_on channel=1 note=41 velocity=126 time=0
EXTRACT: note_on channel=2 note=84 velocity=96 time=0
EXTRACT: note_on channel=9 note=38 velocity=126 time=0
EXTRACT: note_on channel=9 note=48 velocity=96 time=0
EXTRACT: note_on channel=0 note=89 velocity=0 time=0.23541666666666666
EXTRACT: note_on channel=1 note=77 velocity=0 time=0.0125
EXTRACT: note_on channel=1 note=41 velocity=0 time=0
EXTRACT: note_on channel=2 note=84 velocity=0 time=0
EXTRACT: note_on channel=0 note=88 velocity=126 time=0.0020833333333333333
EXTRACT: note_on channel=1 note=77 velocity=126 time=0
EXTRACT: note_on channel=1 note=41 velocity=126 time=0
EXTRACT: note_on channel=2 note=89 velocity=96 time=0
EXTRACT: note_on channel=0 note=88 velocity=0 time=0.23541666666666666
EXTRACT: note_on channel=1 note=77 velocity=0 time=0.0125
EXTRACT: note_on channel=1 note=41 velocity=0 time=0
EXTRACT: note_on channel=2 note=89 velocity=0 time=0
EXTRACT: note_on channel=9 note=38 velocity=0 time=0
EXTRACT: note_on channel=9 note=48 velocity=0 time=0
EXTRACT: note_on channel=0 note=86 velocity=126 time=0.0020833333333333333
EXTRACT: note_on channel=1 note=77 velocity=126 time=0
EXTRACT: note_on channel=1 note=41 velocity=126 time=0
EXTRACT: note_on channel=2 note=81 velocity=96 time=0
EXTRACT: note_on channel=9 note=40 velocity=96 time=0
EXTRACT: note_on channel=9 note=60 velocity=126 time=0
EXTRACT: note_on channel=9 note=50 velocity=80 time=0
EXTRACT: note_on channel=9 note=38 velocity=126 time=0
EXTRACT: note_on channel=9 note=72 velocity=96 time=0
EXTRACT: note_on channel=1 note=77 velocity=0 time=0.24791666666666667
EXTRACT: note_on channel=1 note=41 velocity=0 time=0
EXTRACT: note_on channel=1 note=77 velocity=126 time=0.0020833333333333333
EXTRACT: note_on channel=1 note=41 velocity=126 time=0
EXTRACT: note_on channel=0 note=86 velocity=0 time=0.22291666666666665
EXTRACT: note_on channel=1 note=77 velocity=0 time=0.025
EXTRACT: note_on channel=1 note=41 velocity=0 time=0
EXTRACT: note_on channel=0 note=81 velocity=126 time=0.0020833333333333333
EXTRACT: note_on channel=1 note=77 velocity=126 time=0
EXTRACT: note_on channel=1 note=41 velocity=126 time=0
EXTRACT: note_on channel=0 note=81 velocity=0 time=0.23541666666666666
EXTRACT: note_on channel=1 note=77 velocity=0 time=0.0125
EXTRACT: note_on channel=1 note=41 velocity=0 time=0
EXTRACT: note_on channel=0 note=79 velocity=126 time=0.0020833333333333333
EXTRACT: note_on channel=1 note=77 velocity=126 time=0
EXTRACT: note_on channel=1 note=41 velocity=126 time=0
EXTRACT: note_on channel=0 note=79 velocity=0 time=0.23541666666666666
EXTRACT: note_on channel=1 note=77 velocity=0 time=0.0125
EXTRACT: note_on channel=1 note=41 velocity=0 time=0
EXTRACT: note_on channel=3 note=81 velocity=0 time=0
EXTRACT: note_on channel=3 note=93 velocity=0 time=0
EXTRACT: note_on channel=9 note=40 velocity=0 time=0
EXTRACT: note_on channel=9 note=60 velocity=0 time=0
EXTRACT: note_on channel=9 note=50 velocity=0 time=0
EXTRACT: note_on channel=9 note=38 velocity=0 time=0
EXTRACT: note_on channel=9 note=72 velocity=0 time=0
EXTRACT: note_on channel=0 note=69 velocity=49 time=0.0020833333333333333
EXTRACT: note_on channel=0 note=81 velocity=49 time=0
EXTRACT: note_on channel=0 note=45 velocity=49 time=0
EXTRACT: note_on channel=0 note=57 velocity=49 time=0
EXTRACT: note_on channel=1 note=69 velocity=49 time=0
EXTRACT: note_on channel=1 note=81 velocity=49 time=0
EXTRACT: note_on channel=1 note=45 velocity=49 time=0
EXTRACT: note_on channel=1 note=57 velocity=49 time=0
EXTRACT: note_on channel=3 note=93 velocity=96 time=0
EXTRACT: note_on channel=9 note=40 velocity=80 time=0
EXTRACT: note_on channel=0 note=69 velocity=0 time=0.9479166666666666
EXTRACT: note_on channel=0 note=81 velocity=0 time=0
EXTRACT: note_on channel=0 note=45 velocity=0 time=0
EXTRACT: note_on channel=0 note=57 velocity=0 time=0
EXTRACT: note_on channel=1 note=69 velocity=0 time=0.05
EXTRACT: note_on channel=1 note=81 velocity=0 time=0
EXTRACT: note_on channel=1 note=45 velocity=0 time=0
EXTRACT: note_on channel=1 note=57 velocity=0 time=0
EXTRACT: note_on channel=3 note=93 velocity=0 time=0
EXTRACT: note_on channel=9 note=40 velocity=0 time=0
EXTRACT: note_on channel=0 note=69 velocity=49 time=0.0020833333333333333
EXTRACT: note_on channel=0 note=81 velocity=49 time=0
EXTRACT: note_on channel=0 note=45 velocity=49 time=0
EXTRACT: note_on channel=0 note=57 velocity=49 time=0
EXTRACT: note_on channel=1 note=69 velocity=49 time=0
EXTRACT: note_on channel=1 note=81 velocity=49 time=0
EXTRACT: note_on channel=1 note=45 velocity=49 time=0
EXTRACT: note_on channel=1 note=57 velocity=49 time=0
EXTRACT: note_on channel=3 note=93 velocity=96 time=0
EXTRACT: note_on channel=9 note=40 velocity=80 time=0
EXTRACT: note_on channel=0 note=69 velocity=0 time=0.9479166666666666
EXTRACT: note_on channel=0 note=81 velocity=0 time=0
EXTRACT: note_on channel=0 note=45 velocity=0 time=0
EXTRACT: note_on channel=0 note=57 velocity=0 time=0
EXTRACT: note_on channel=1 note=69 velocity=0 time=0.05
EXTRACT: note_on channel=1 note=81 velocity=0 time=0
EXTRACT: note_on channel=1 note=45 velocity=0 time=0
EXTRACT: note_on channel=1 note=57 velocity=0 time=0
EXTRACT: note_on channel=3 note=93 velocity=0 time=0
EXTRACT: note_on channel=9 note=40 velocity=0 time=0
EXTRACT: note_on channel=0 note=69 velocity=49 time=0.0020833333333333333
EXTRACT: note_on channel=0 note=81 velocity=49 time=0
EXTRACT: note_on channel=0 note=45 velocity=49 time=0
EXTRACT: note_on channel=0 note=57 velocity=49 time=0
EXTRACT: note_on channel=1 note=69 velocity=49 time=0
EXTRACT: note_on channel=1 note=81 velocity=49 time=0
EXTRACT: note_on channel=1 note=45 velocity=49 time=0
EXTRACT: note_on channel=1 note=57 velocity=49 time=0
EXTRACT: note_on channel=3 note=88 velocity=96 time=0
EXTRACT: note_on channel=9 note=40 velocity=80 time=0
EXTRACT: note_on channel=0 note=69 velocity=0 time=0.9479166666666666
EXTRACT: note_on channel=0 note=81 velocity=0 time=0
EXTRACT: note_on channel=0 note=45 velocity=0 time=0
EXTRACT: note_on channel=0 note=57 velocity=0 time=0
EXTRACT: note_on channel=1 note=69 velocity=0 time=0.05
EXTRACT: note_on channel=1 note=81 velocity=0 time=0
EXTRACT: note_on channel=1 note=45 velocity=0 time=0
EXTRACT: note_on channel=1 note=57 velocity=0 time=0
EXTRACT: note_on channel=3 note=88 velocity=0 time=0
EXTRACT: note_on channel=9 note=40 velocity=0 time=0
EXTRACT: note_on channel=0 note=69 velocity=49 time=0.0020833333333333333
EXTRACT: note_on channel=0 note=81 velocity=49 time=0
EXTRACT: note_on channel=0 note=45 velocity=49 time=0
EXTRACT: note_on channel=0 note=57 velocity=49 time=0
EXTRACT: note_on channel=1 note=69 velocity=49 time=0
EXTRACT: note_on channel=1 note=81 velocity=49 time=0
EXTRACT: note_on channel=1 note=45 velocity=49 time=0
EXTRACT: note_on channel=1 note=57 velocity=49 time=0
EXTRACT: note_on channel=3 note=88 velocity=96 time=0
EXTRACT: note_on channel=9 note=40 velocity=80 time=0
EXTRACT: note_on channel=0 note=69 velocity=0 time=0.9479166666666666
EXTRACT: note_on channel=0 note=81 velocity=0 time=0
EXTRACT: note_on channel=0 note=45 velocity=0 time=0
EXTRACT: note_on channel=0 note=57 velocity=0 time=0
EXTRACT: note_on channel=1 note=69 velocity=0 time=0.05
EXTRACT: note_on channel=1 note=81 velocity=0 time=0
EXTRACT: note_on channel=1 note=45 velocity=0 time=0
EXTRACT: note_on channel=1 note=57 velocity=0 time=0
EXTRACT: note_on channel=3 note=88 velocity=0 time=0
EXTRACT: note_on channel=9 note=40 velocity=0 time=0
EXTRACT: note_on channel=0 note=69 velocity=49 time=0.0020833333333333333
EXTRACT: note_on channel=0 note=81 velocity=49 time=0
EXTRACT: note_on channel=0 note=45 velocity=49 time=0
EXTRACT: note_on channel=0 note=57 velocity=49 time=0
EXTRACT: note_on channel=1 note=69 velocity=49 time=0
EXTRACT: note_on channel=1 note=81 velocity=49 time=0
EXTRACT: note_on channel=1 note=45 velocity=49 time=0
EXTRACT: note_on channel=1 note=57 velocity=49 time=0
EXTRACT: note_on channel=3 note=88 velocity=96 time=0
EXTRACT: note_on channel=9 note=40 velocity=80 time=0
EXTRACT: note_on channel=0 note=69 velocity=0 time=0.9479166666666666
EXTRACT: note_on channel=0 note=81 velocity=0 time=0
EXTRACT: note_on channel=0 note=45 velocity=0 time=0
EXTRACT: note_on channel=0 note=57 velocity=0 time=0
EXTRACT: note_on channel=1 note=69 velocity=0 time=0.05
EXTRACT: note_on channel=1 note=81 velocity=0 time=0
EXTRACT: note_on channel=1 note=45 velocity=0 time=0
EXTRACT: note_on channel=1 note=57 velocity=0 time=0
EXTRACT: note_on channel=3 note=88 velocity=0 time=0
EXTRACT: note_on channel=9 note=40 velocity=0 time=0
EXTRACT: note_on channel=0 note=69 velocity=49 time=0.0020833333333333333
EXTRACT: note_on channel=0 note=81 velocity=49 time=0
EXTRACT: note_on channel=0 note=45 velocity=49 time=0
EXTRACT: note_on channel=0 note=57 velocity=49 time=0
EXTRACT: note_on channel=1 note=69 velocity=49 time=0
EXTRACT: note_on channel=1 note=81 velocity=49 time=0
EXTRACT: note_on channel=1 note=45 velocity=49 time=0
EXTRACT: note_on channel=1 note=57 velocity=49 time=0
EXTRACT: note_on channel=3 note=86 velocity=96 time=0
EXTRACT: note_on channel=9 note=40 velocity=80 time=0
EXTRACT: note_on channel=0 note=69 velocity=0 time=0.9479166666666666
EXTRACT: note_on channel=0 note=81 velocity=0 time=0
EXTRACT: note_on channel=0 note=45 velocity=0 time=0
EXTRACT: note_on channel=0 note=57 velocity=0 time=0
EXTRACT: note_on channel=1 note=69 velocity=0 time=0.05
EXTRACT: note_on channel=1 note=81 velocity=0 time=0
EXTRACT: note_on channel=1 note=45 velocity=0 time=0
EXTRACT: note_on channel=1 note=57 velocity=0 time=0
EXTRACT: note_on channel=3 note=86 velocity=0 time=0
EXTRACT: note_on channel=9 note=40 velocity=0 time=0
EXTRACT: note_on channel=0 note=69 velocity=49 time=0.0020833333333333333
EXTRACT: note_on channel=0 note=81 velocity=49 time=0
EXTRACT: note_on channel=0 note=45 velocity=49 time=0
EXTRACT: note_on channel=0 note=57 velocity=49 time=0
EXTRACT: note_on channel=1 note=69 velocity=49 time=0
EXTRACT: note_on channel=1 note=81 velocity=49 time=0
EXTRACT: note_on channel=1 note=45 velocity=49 time=0
EXTRACT: note_on channel=1 note=57 velocity=49 time=0
EXTRACT: note_on channel=3 note=93 velocity=96 time=0
EXTRACT: note_on channel=9 note=40 velocity=80 time=0
EXTRACT: note_on channel=0 note=69 velocity=0 time=0.9479166666666666
EXTRACT: note_on channel=0 note=81 velocity=0 time=0
EXTRACT: note_on channel=0 note=45 velocity=0 time=0
EXTRACT: note_on channel=0 note=57 velocity=0 time=0
EXTRACT: note_on channel=1 note=69 velocity=0 time=0.05
EXTRACT: note_on channel=1 note=81 velocity=0 time=0
EXTRACT: note_on channel=1 note=45 velocity=0 time=0
EXTRACT: note_on channel=1 note=57 velocity=0 time=0
EXTRACT: note_on channel=9 note=40 velocity=0 time=0
EXTRACT: note_on channel=2 note=81 velocity=0 time=1.0
EXTRACT: note_on channel=3 note=93 velocity=0 time=0
MUSIC38 - Again-_Noah_Cyrus_ft._XXXTENTACION.mid
INTERVALS38 - Again-_Noah_Cyrus_ft._XXXTENTACION.mid
unison271
2m14
2M112
3m7
3M34
4m24
4M0
5m11
5M0
6m7
7m29
7M0
