EXTRACT: program_change channel=11 program=66 time=0
EXTRACT: program_change channel=0 program=25 time=0
EXTRACT: program_change channel=6 program=29 time=0
EXTRACT: program_change channel=4 program=33 time=0
EXTRACT: program_change channel=2 program=1 time=0
EXTRACT: program_change channel=2 program=1 time=0
EXTRACT: program_change channel=8 program=81 time=0
EXTRACT: program_change channel=9 program=0 time=0
EXTRACT: program_change channel=9 program=0 time=0
EXTRACT: program_change channel=9 program=0 time=0
EXTRACT: note_on channel=0 note=66 velocity=72 time=1.9999979999999997
EXTRACT: note_on channel=0 note=61 velocity=72 time=0
EXTRACT: note_on channel=0 note=57 velocity=72 time=0
EXTRACT: note_off channel=0 note=66 velocity=64 time=0.14285699999999998
EXTRACT: note_off channel=0 note=61 velocity=64 time=0
EXTRACT: note_off channel=0 note=57 velocity=64 time=0
EXTRACT: note_on channel=0 note=66 velocity=72 time=0
EXTRACT: note_on channel=0 note=61 velocity=72 time=0
EXTRACT: note_on channel=0 note=57 velocity=72 time=0
EXTRACT: note_off channel=0 note=66 velocity=64 time=0.14285699999999998
EXTRACT: note_off channel=0 note=61 velocity=64 time=0
EXTRACT: note_off channel=0 note=57 velocity=64 time=0
EXTRACT: note_on channel=0 note=66 velocity=72 time=0
EXTRACT: note_on channel=0 note=61 velocity=72 time=0
EXTRACT: note_on channel=0 note=57 velocity=72 time=0
EXTRACT: note_on channel=0 note=52 velocity=72 time=0
EXTRACT: note_on channel=0 note=47 velocity=72 time=0
EXTRACT: note_off channel=0 note=66 velocity=64 time=0.14285699999999998
EXTRACT: note_off channel=0 note=61 velocity=64 time=0
EXTRACT: note_off channel=0 note=57 velocity=64 time=0
EXTRACT: note_off channel=0 note=52 velocity=64 time=0
EXTRACT: note_off channel=0 note=47 velocity=64 time=0
EXTRACT: note_on channel=0 note=62 velocity=72 time=0
EXTRACT: note_on channel=0 note=54 velocity=72 time=0
EXTRACT: note_off channel=0 note=62 velocity=64 time=0.28571399999999997
EXTRACT: note_off channel=0 note=54 velocity=64 time=0
EXTRACT: note_on channel=0 note=66 velocity=72 time=0
EXTRACT: note_on channel=0 note=62 velocity=72 time=0
EXTRACT: note_on channel=0 note=57 velocity=72 time=0
EXTRACT: note_on channel=0 note=54 velocity=72 time=0
EXTRACT: note_on channel=0 note=47 velocity=72 time=0
EXTRACT: note_off channel=0 note=66 velocity=64 time=0.14285699999999998
EXTRACT: note_off channel=0 note=62 velocity=64 time=0
EXTRACT: note_off channel=0 note=57 velocity=64 time=0
EXTRACT: note_off channel=0 note=54 velocity=64 time=0
EXTRACT: note_off channel=0 note=47 velocity=64 time=0
EXTRACT: note_on channel=0 note=66 velocity=72 time=0
EXTRACT: note_on channel=0 note=62 velocity=72 time=0
EXTRACT: note_on channel=0 note=57 velocity=72 time=0
EXTRACT: note_off channel=0 note=66 velocity=64 time=0.14285699999999998
EXTRACT: note_off channel=0 note=62 velocity=64 time=0
EXTRACT: note_off channel=0 note=57 velocity=64 time=0
EXTRACT: note_on channel=0 note=66 velocity=72 time=0
EXTRACT: note_on channel=0 note=62 velocity=72 time=0
EXTRACT: note_on channel=0 note=57 velocity=72 time=0
EXTRACT: note_off channel=0 note=66 velocity=64 time=0.14285699999999998
EXTRACT: note_off channel=0 note=62 velocity=64 time=0
EXTRACT: note_off channel=0 note=57 velocity=64 time=0
EXTRACT: note_on channel=0 note=66 velocity=72 time=0
EXTRACT: note_on channel=0 note=61 velocity=72 time=0
EXTRACT: note_on channel=0 note=57 velocity=72 time=0
EXTRACT: note_on channel=0 note=52 velocity=72 time=0
EXTRACT: note_on channel=0 note=49 velocity=72 time=0
EXTRACT: note_off channel=0 note=66 velocity=64 time=0.28571399999999997
EXTRACT: note_off channel=0 note=61 velocity=64 time=0
EXTRACT: note_off channel=0 note=57 velocity=64 time=0
EXTRACT: note_off channel=0 note=52 velocity=64 time=0
EXTRACT: note_off channel=0 note=49 velocity=64 time=0
EXTRACT: note_on channel=0 note=66 velocity=72 time=0.14285699999999998
EXTRACT: note_on channel=0 note=61 velocity=72 time=0
EXTRACT: note_on channel=0 note=57 velocity=72 time=0
EXTRACT: note_off channel=0 note=66 velocity=64 time=0.14285699999999998
EXTRACT: note_off channel=0 note=61 velocity=64 time=0
EXTRACT: note_off channel=0 note=57 velocity=64 time=0
EXTRACT: note_on channel=0 note=61 velocity=72 time=0
EXTRACT: note_on channel=0 note=57 velocity=72 time=0
EXTRACT: note_on channel=0 note=52 velocity=72 time=0
EXTRACT: note_on channel=0 note=49 velocity=72 time=0
EXTRACT: note_off channel=0 note=61 velocity=64 time=0.28571399999999997
EXTRACT: note_off channel=0 note=57 velocity=64 time=0
EXTRACT: note_off channel=0 note=52 velocity=64 time=0
EXTRACT: note_off channel=0 note=49 velocity=64 time=0
EXTRACT: note_on channel=0 note=66 velocity=72 time=0
EXTRACT: note_on channel=0 note=61 velocity=72 time=0
EXTRACT: note_on channel=0 note=57 velocity=72 time=0
EXTRACT: note_on channel=0 note=52 velocity=72 time=0
EXTRACT: note_on channel=0 note=49 velocity=72 time=0
EXTRACT: note_off channel=0 note=66 velocity=64 time=0.28571399999999997
EXTRACT: note_off channel=0 note=61 velocity=64 time=0
EXTRACT: note_off channel=0 note=57 velocity=64 time=0
EXTRACT: note_off channel=0 note=52 velocity=64 time=0
EXTRACT: note_off channel=0 note=49 velocity=64 time=0
EXTRACT: note_on channel=0 note=66 velocity=72 time=0
EXTRACT: note_on channel=0 note=61 velocity=72 time=0
EXTRACT: note_on channel=0 note=57 velocity=72 time=0
EXTRACT: note_off channel=0 note=66 velocity=64 time=0.14285699999999998
EXTRACT: note_off channel=0 note=61 velocity=64 time=0
EXTRACT: note_off channel=0 note=57 velocity=64 time=0
EXTRACT: note_on channel=0 note=66 velocity=72 time=0
EXTRACT: note_on channel=0 note=61 velocity=72 time=0
EXTRACT: note_on channel=0 note=57 velocity=72 time=0
EXTRACT: note_off channel=0 note=66 velocity=64 time=0.14285699999999998
EXTRACT: note_off channel=0 note=61 velocity=64 time=0
EXTRACT: note_off channel=0 note=57 velocity=64 time=0
EXTRACT: note_on channel=0 note=66 velocity=72 time=0
EXTRACT: note_on channel=0 note=61 velocity=72 time=0
EXTRACT: note_on channel=0 note=57 velocity=72 time=0
EXTRACT: note_on channel=0 note=52 velocity=72 time=0
EXTRACT: note_on channel=0 note=47 velocity=72 time=0
EXTRACT: note_off channel=0 note=66 velocity=64 time=0.14285699999999998
EXTRACT: note_off channel=0 note=61 velocity=64 time=0
EXTRACT: note_off channel=0 note=57 velocity=64 time=0
EXTRACT: note_off channel=0 note=52 velocity=64 time=0
EXTRACT: note_off channel=0 note=47 velocity=64 time=0
EXTRACT: note_on channel=0 note=62 velocity=72 time=0
EXTRACT: note_on channel=0 note=54 velocity=72 time=0
EXTRACT: note_off channel=0 note=62 velocity=64 time=0.28571399999999997
EXTRACT: note_off channel=0 note=54 velocity=64 time=0
EXTRACT: note_on channel=0 note=66 velocity=72 time=0
EXTRACT: note_on channel=0 note=62 velocity=72 time=0
EXTRACT: note_on channel=0 note=57 velocity=72 time=0
EXTRACT: note_on channel=0 note=54 velocity=72 time=0
EXTRACT: note_on channel=0 note=47 velocity=72 time=0
EXTRACT: note_off channel=0 note=66 velocity=64 time=0.14285699999999998
EXTRACT: note_off channel=0 note=62 velocity=64 time=0
EXTRACT: note_off channel=0 note=57 velocity=64 time=0
EXTRACT: note_off channel=0 note=54 velocity=64 time=0
EXTRACT: note_off channel=0 note=47 velocity=64 time=0
EXTRACT: note_on channel=0 note=66 velocity=72 time=0
EXTRACT: note_on channel=0 note=62 velocity=72 time=0
EXTRACT: note_on channel=0 note=57 velocity=72 time=0
EXTRACT: note_off channel=0 note=66 velocity=64 time=0.14285699999999998
EXTRACT: note_off channel=0 note=62 velocity=64 time=0
EXTRACT: note_off channel=0 note=57 velocity=64 time=0
EXTRACT: note_on channel=0 note=66 velocity=72 time=0
EXTRACT: note_on channel=0 note=62 velocity=72 time=0
EXTRACT: note_on channel=0 note=57 velocity=72 time=0
EXTRACT: note_off channel=0 note=66 velocity=64 time=0.14285699999999998
EXTRACT: note_off channel=0 note=62 velocity=64 time=0
EXTRACT: note_off channel=0 note=57 velocity=64 time=0
EXTRACT: note_on channel=0 note=66 velocity=72 time=0
EXTRACT: note_on channel=0 note=61 velocity=72 time=0
EXTRACT: note_on channel=0 note=57 velocity=72 time=0
EXTRACT: note_on channel=0 note=52 velocity=72 time=0
EXTRACT: note_on channel=0 note=49 velocity=72 time=0
EXTRACT: note_off channel=0 note=66 velocity=64 time=0.28571399999999997
EXTRACT: note_off channel=0 note=61 velocity=64 time=0
EXTRACT: note_off channel=0 note=57 velocity=64 time=0
EXTRACT: note_off channel=0 note=52 velocity=64 time=0
EXTRACT: note_off channel=0 note=49 velocity=64 time=0
EXTRACT: note_on channel=0 note=66 velocity=72 time=0.14285699999999998
EXTRACT: note_on channel=0 note=61 velocity=72 time=0
EXTRACT: note_on channel=0 note=57 velocity=72 time=0
EXTRACT: note_off channel=0 note=66 velocity=64 time=0.14285699999999998
EXTRACT: note_off channel=0 note=61 velocity=64 time=0
EXTRACT: note_off channel=0 note=57 velocity=64 time=0
EXTRACT: note_on channel=0 note=61 velocity=72 time=0
EXTRACT: note_on channel=0 note=57 velocity=72 time=0
EXTRACT: note_on channel=0 note=52 velocity=72 time=0
EXTRACT: note_on channel=0 note=49 velocity=72 time=0
EXTRACT: note_off channel=0 note=61 velocity=64 time=0.28571399999999997
EXTRACT: note_off channel=0 note=57 velocity=64 time=0
EXTRACT: note_off channel=0 note=52 velocity=64 time=0
EXTRACT: note_off channel=0 note=49 velocity=64 time=0
EXTRACT: note_on channel=0 note=66 velocity=72 time=0
EXTRACT: note_on channel=0 note=61 velocity=72 time=0
EXTRACT: note_on channel=0 note=57 velocity=72 time=0
EXTRACT: note_on channel=0 note=52 velocity=72 time=0
EXTRACT: note_on channel=0 note=49 velocity=72 time=0
EXTRACT: note_off channel=0 note=66 velocity=64 time=0.28571399999999997
EXTRACT: note_off channel=0 note=61 velocity=64 time=0
EXTRACT: note_off channel=0 note=57 velocity=64 time=0
EXTRACT: note_off channel=0 note=52 velocity=64 time=0
EXTRACT: note_off channel=0 note=49 velocity=64 time=0
EXTRACT: note_on channel=0 note=66 velocity=72 time=0
EXTRACT: note_on channel=0 note=61 velocity=72 time=0
EXTRACT: note_on channel=0 note=57 velocity=72 time=0
EXTRACT: note_off channel=0 note=66 velocity=64 time=0.14285699999999998
EXTRACT: note_off channel=0 note=61 velocity=64 time=0
EXTRACT: note_off channel=0 note=57 velocity=64 time=0
EXTRACT: note_on channel=0 note=66 velocity=72 time=0
EXTRACT: note_on channel=0 note=61 velocity=72 time=0
EXTRACT: note_on channel=0 note=57 velocity=72 time=0
EXTRACT: note_off channel=0 note=66 velocity=64 time=0.14285699999999998
EXTRACT: note_off channel=0 note=61 velocity=64 time=0
EXTRACT: note_off channel=0 note=57 velocity=64 time=0
EXTRACT: note_on channel=0 note=60 velocity=72 time=0
EXTRACT: note_on channel=0 note=57 velocity=72 time=0
EXTRACT: note_on channel=0 note=52 velocity=72 time=0
EXTRACT: note_on channel=0 note=41 velocity=72 time=0
EXTRACT: note_off channel=0 note=60 velocity=64 time=0.4285709999999999
EXTRACT: note_off channel=0 note=57 velocity=64 time=0
EXTRACT: note_off channel=0 note=52 velocity=64 time=0
EXTRACT: note_off channel=0 note=41 velocity=64 time=0
EXTRACT: note_on channel=0 note=60 velocity=72 time=0
EXTRACT: note_on channel=0 note=57 velocity=72 time=0
EXTRACT: note_on channel=0 note=52 velocity=72 time=0
EXTRACT: note_on channel=0 note=41 velocity=72 time=0
EXTRACT: note_off channel=0 note=60 velocity=64 time=0.14285699999999998
EXTRACT: note_off channel=0 note=57 velocity=64 time=0
EXTRACT: note_off channel=0 note=52 velocity=64 time=0
EXTRACT: note_off channel=0 note=41 velocity=64 time=0
EXTRACT: note_on channel=0 note=60 velocity=72 time=0
EXTRACT: note_on channel=0 note=57 velocity=72 time=0
EXTRACT: note_on channel=0 note=52 velocity=72 time=0
EXTRACT: note_off channel=0 note=60 velocity=64 time=0.14285699999999998
EXTRACT: note_off channel=0 note=57 velocity=64 time=0
EXTRACT: note_off channel=0 note=52 velocity=64 time=0
EXTRACT: note_on channel=0 note=60 velocity=72 time=0
EXTRACT: note_on channel=0 note=57 velocity=72 time=0
EXTRACT: note_on channel=0 note=52 velocity=72 time=0
EXTRACT: note_off channel=0 note=60 velocity=64 time=0.14285699999999998
EXTRACT: note_off channel=0 note=57 velocity=64 time=0
EXTRACT: note_off channel=0 note=52 velocity=64 time=0
EXTRACT: note_on channel=0 note=62 velocity=72 time=0
EXTRACT: note_on channel=0 note=59 velocity=72 time=0
EXTRACT: note_on channel=0 note=54 velocity=72 time=0
EXTRACT: note_on channel=0 note=43 velocity=72 time=0
EXTRACT: note_off channel=0 note=62 velocity=64 time=0.28571399999999997
EXTRACT: note_off channel=0 note=59 velocity=64 time=0
EXTRACT: note_off channel=0 note=54 velocity=64 time=0
EXTRACT: note_off channel=0 note=43 velocity=64 time=0
EXTRACT: note_on channel=0 note=62 velocity=72 time=0.14285699999999998
EXTRACT: note_on channel=0 note=59 velocity=72 time=0
EXTRACT: note_on channel=0 note=54 velocity=72 time=0
EXTRACT: note_off channel=0 note=62 velocity=64 time=0.14285699999999998
EXTRACT: note_off channel=0 note=59 velocity=64 time=0
EXTRACT: note_off channel=0 note=54 velocity=64 time=0
EXTRACT: note_on channel=0 note=62 velocity=72 time=0
EXTRACT: note_on channel=0 note=59 velocity=72 time=0
EXTRACT: note_on channel=0 note=54 velocity=72 time=0
EXTRACT: note_on channel=0 note=43 velocity=72 time=0
EXTRACT: note_off channel=0 note=62 velocity=64 time=0.28571399999999997
EXTRACT: note_off channel=0 note=59 velocity=64 time=0
EXTRACT: note_off channel=0 note=54 velocity=64 time=0
EXTRACT: note_off channel=0 note=43 velocity=64 time=0
EXTRACT: note_on channel=0 note=62 velocity=72 time=0
EXTRACT: note_on channel=0 note=59 velocity=72 time=0
EXTRACT: note_on channel=0 note=54 velocity=72 time=0
EXTRACT: note_on channel=0 note=43 velocity=72 time=0
EXTRACT: note_off channel=0 note=62 velocity=64 time=0.28571399999999997
EXTRACT: note_off channel=0 note=59 velocity=64 time=0
EXTRACT: note_off channel=0 note=54 velocity=64 time=0
EXTRACT: note_off channel=0 note=43 velocity=64 time=0
EXTRACT: note_on channel=0 note=62 velocity=72 time=0
EXTRACT: note_on channel=0 note=59 velocity=72 time=0
EXTRACT: note_on channel=0 note=54 velocity=72 time=0
EXTRACT: note_off channel=0 note=62 velocity=64 time=0.14285699999999998
EXTRACT: note_off channel=0 note=59 velocity=64 time=0
EXTRACT: note_off channel=0 note=54 velocity=64 time=0
EXTRACT: note_on channel=0 note=62 velocity=72 time=0
EXTRACT: note_on channel=0 note=59 velocity=72 time=0
EXTRACT: note_on channel=0 note=54 velocity=72 time=0
EXTRACT: note_off channel=0 note=62 velocity=64 time=0.14285699999999998
EXTRACT: note_off channel=0 note=59 velocity=64 time=0
EXTRACT: note_off channel=0 note=54 velocity=64 time=0
EXTRACT: note_on channel=0 note=64 velocity=72 time=0
EXTRACT: note_on channel=0 note=61 velocity=72 time=0
EXTRACT: note_on channel=0 note=56 velocity=72 time=0
EXTRACT: note_on channel=0 note=45 velocity=72 time=0
EXTRACT: note_off channel=0 note=64 velocity=64 time=0.4285709999999999
EXTRACT: note_off channel=0 note=61 velocity=64 time=0
EXTRACT: note_off channel=0 note=56 velocity=64 time=0
EXTRACT: note_off channel=0 note=45 velocity=64 time=0
EXTRACT: note_on channel=0 note=64 velocity=72 time=0
EXTRACT: note_on channel=0 note=61 velocity=72 time=0
EXTRACT: note_on channel=0 note=56 velocity=72 time=0
EXTRACT: note_on channel=0 note=45 velocity=72 time=0
EXTRACT: note_off channel=0 note=64 velocity=64 time=0.14285699999999998
EXTRACT: note_off channel=0 note=61 velocity=64 time=0
EXTRACT: note_off channel=0 note=56 velocity=64 time=0
EXTRACT: note_off channel=0 note=45 velocity=64 time=0
EXTRACT: note_on channel=0 note=64 velocity=72 time=0
EXTRACT: note_on channel=0 note=61 velocity=72 time=0
EXTRACT: note_on channel=0 note=56 velocity=72 time=0
EXTRACT: note_off channel=0 note=64 velocity=64 time=0.14285699999999998
EXTRACT: note_off channel=0 note=61 velocity=64 time=0
EXTRACT: note_off channel=0 note=56 velocity=64 time=0
EXTRACT: note_on channel=0 note=64 velocity=72 time=0
EXTRACT: note_on channel=0 note=61 velocity=72 time=0
EXTRACT: note_on channel=0 note=56 velocity=72 time=0
EXTRACT: note_off channel=0 note=64 velocity=64 time=0.14285699999999998
EXTRACT: note_off channel=0 note=61 velocity=64 time=0
EXTRACT: note_off channel=0 note=56 velocity=64 time=0
EXTRACT: note_on channel=0 note=69 velocity=72 time=0
EXTRACT: note_on channel=0 note=64 velocity=72 time=0
EXTRACT: note_on channel=0 note=60 velocity=72 time=0
EXTRACT: note_on channel=0 note=55 velocity=72 time=0
EXTRACT: note_on channel=0 note=50 velocity=72 time=0
EXTRACT: note_off channel=0 note=69 velocity=64 time=0.28571399999999997
EXTRACT: note_off channel=0 note=64 velocity=64 time=0
EXTRACT: note_off channel=0 note=60 velocity=64 time=0
EXTRACT: note_off channel=0 note=55 velocity=64 time=0
EXTRACT: note_off channel=0 note=50 velocity=64 time=0
EXTRACT: note_on channel=0 note=69 velocity=72 time=0.14285699999999998
EXTRACT: note_on channel=0 note=64 velocity=72 time=0
EXTRACT: note_on channel=0 note=60 velocity=72 time=0
EXTRACT: note_off channel=0 note=69 velocity=64 time=0.14285699999999998
EXTRACT: note_off channel=0 note=64 velocity=64 time=0
EXTRACT: note_off channel=0 note=60 velocity=64 time=0
EXTRACT: note_on channel=0 note=64 velocity=72 time=0
EXTRACT: note_on channel=0 note=60 velocity=72 time=0
EXTRACT: note_on channel=0 note=55 velocity=72 time=0
EXTRACT: note_on channel=0 note=50 velocity=72 time=0
EXTRACT: note_on channel=2 note=62 velocity=72 time=0
EXTRACT: note_off channel=0 note=64 velocity=64 time=0.28571399999999997
EXTRACT: note_off channel=0 note=60 velocity=64 time=0
EXTRACT: note_off channel=0 note=55 velocity=64 time=0
EXTRACT: note_off channel=0 note=50 velocity=64 time=0
EXTRACT: note_on channel=0 note=69 velocity=72 time=0
EXTRACT: note_on channel=0 note=64 velocity=72 time=0
EXTRACT: note_on channel=0 note=60 velocity=72 time=0
EXTRACT: note_on channel=0 note=55 velocity=72 time=0
EXTRACT: note_on channel=0 note=50 velocity=72 time=0
EXTRACT: note_on channel=4 note=42 velocity=80 time=0
EXTRACT: note_off channel=2 note=62 velocity=64 time=0
EXTRACT: note_on channel=2 note=64 velocity=72 time=0.14285699999999998
EXTRACT: note_off channel=0 note=69 velocity=64 time=0.14285699999999998
EXTRACT: note_off channel=0 note=64 velocity=64 time=0
EXTRACT: note_off channel=0 note=60 velocity=64 time=0
EXTRACT: note_off channel=0 note=55 velocity=64 time=0
EXTRACT: note_off channel=0 note=50 velocity=64 time=0
EXTRACT: note_on channel=0 note=66 velocity=72 time=0
EXTRACT: note_on channel=0 note=61 velocity=72 time=0
EXTRACT: note_on channel=0 note=57 velocity=72 time=0
EXTRACT: note_off channel=0 note=66 velocity=64 time=0.14285699999999998
EXTRACT: note_off channel=0 note=61 velocity=64 time=0
EXTRACT: note_off channel=0 note=57 velocity=64 time=0
EXTRACT: note_on channel=0 note=66 velocity=72 time=0
EXTRACT: note_on channel=0 note=61 velocity=72 time=0
EXTRACT: note_on channel=0 note=57 velocity=72 time=0
EXTRACT: note_off channel=0 note=66 velocity=64 time=0.14285699999999998
EXTRACT: note_off channel=0 note=61 velocity=64 time=0
EXTRACT: note_off channel=0 note=57 velocity=64 time=0
EXTRACT: note_on channel=0 note=66 velocity=72 time=0
EXTRACT: note_on channel=0 note=61 velocity=72 time=0
EXTRACT: note_on channel=0 note=57 velocity=72 time=0
EXTRACT: note_on channel=0 note=52 velocity=72 time=0
EXTRACT: note_on channel=0 note=47 velocity=72 time=0
EXTRACT: note_off channel=4 note=42 velocity=64 time=0
EXTRACT: note_on channel=4 note=35 velocity=80 time=0
EXTRACT: note_off channel=2 note=64 velocity=64 time=0
EXTRACT: note_on channel=2 note=66 velocity=72 time=0
EXTRACT: note_on channel=2 note=62 velocity=72 time=0
EXTRACT: note_on channel=2 note=57 velocity=72 time=0
EXTRACT: note_off channel=0 note=66 velocity=64 time=0.14285699999999998
EXTRACT: note_off channel=0 note=61 velocity=64 time=0
EXTRACT: note_off channel=0 note=57 velocity=64 time=0
EXTRACT: note_off channel=0 note=52 velocity=64 time=0
EXTRACT: note_off channel=0 note=47 velocity=64 time=0
EXTRACT: note_on channel=0 note=62 velocity=72 time=0
EXTRACT: note_on channel=0 note=54 velocity=72 time=0
EXTRACT: note_off channel=0 note=62 velocity=64 time=0.28571399999999997
EXTRACT: note_off channel=0 note=54 velocity=64 time=0
EXTRACT: note_on channel=0 note=66 velocity=72 time=0
EXTRACT: note_on channel=0 note=62 velocity=72 time=0
EXTRACT: note_on channel=0 note=57 velocity=72 time=0
EXTRACT: note_on channel=0 note=54 velocity=72 time=0
EXTRACT: note_on channel=0 note=47 velocity=72 time=0
EXTRACT: note_off channel=0 note=66 velocity=64 time=0.14285699999999998
EXTRACT: note_off channel=0 note=62 velocity=64 time=0
EXTRACT: note_off channel=0 note=57 velocity=64 time=0
EXTRACT: note_off channel=0 note=54 velocity=64 time=0
EXTRACT: note_off channel=0 note=47 velocity=64 time=0
EXTRACT: note_on channel=0 note=66 velocity=72 time=0
EXTRACT: note_on channel=0 note=62 velocity=72 time=0
EXTRACT: note_on channel=0 note=57 velocity=72 time=0
EXTRACT: note_off channel=0 note=66 velocity=64 time=0.14285699999999998
EXTRACT: note_off channel=0 note=62 velocity=64 time=0
EXTRACT: note_off channel=0 note=57 velocity=64 time=0
EXTRACT: note_on channel=0 note=66 velocity=72 time=0
EXTRACT: note_on channel=0 note=62 velocity=72 time=0
EXTRACT: note_on channel=0 note=57 velocity=72 time=0
EXTRACT: note_off channel=0 note=66 velocity=64 time=0.14285699999999998
EXTRACT: note_off channel=0 note=62 velocity=64 time=0
EXTRACT: note_off channel=0 note=57 velocity=64 time=0
EXTRACT: note_on channel=0 note=66 velocity=72 time=0
EXTRACT: note_on channel=0 note=61 velocity=72 time=0
EXTRACT: note_on channel=0 note=57 velocity=72 time=0
EXTRACT: note_on channel=0 note=52 velocity=72 time=0
EXTRACT: note_on channel=0 note=49 velocity=72 time=0
EXTRACT: note_off channel=4 note=35 velocity=64 time=0
EXTRACT: note_on channel=4 note=30 velocity=80 time=0
EXTRACT: note_off channel=2 note=66 velocity=64 time=0
EXTRACT: note_off channel=2 note=62 velocity=64 time=0
EXTRACT: note_off channel=2 note=57 velocity=64 time=0
EXTRACT: note_on channel=2 note=69 velocity=72 time=0
EXTRACT: note_on channel=2 note=64 velocity=72 time=0
EXTRACT: note_on channel=2 note=61 velocity=72 time=0
EXTRACT: note_on channel=2 note=57 velocity=72 time=0
EXTRACT: note_off channel=0 note=66 velocity=64 time=0.28571399999999997
EXTRACT: note_off channel=0 note=61 velocity=64 time=0
EXTRACT: note_off channel=0 note=57 velocity=64 time=0
EXTRACT: note_off channel=0 note=52 velocity=64 time=0
EXTRACT: note_off channel=0 note=49 velocity=64 time=0
EXTRACT: note_off channel=4 note=30 velocity=64 time=0
EXTRACT: note_off channel=2 note=69 velocity=64 time=0
EXTRACT: note_off channel=2 note=64 velocity=64 time=0
EXTRACT: note_off channel=2 note=61 velocity=64 time=0
EXTRACT: note_off channel=2 note=57 velocity=64 time=0
EXTRACT: note_on channel=0 note=66 velocity=72 time=0.14285699999999998
EXTRACT: note_on channel=0 note=61 velocity=72 time=0
EXTRACT: note_on channel=0 note=57 velocity=72 time=0
EXTRACT: note_off channel=0 note=66 velocity=64 time=0.14285699999999998
EXTRACT: note_off channel=0 note=61 velocity=64 time=0
EXTRACT: note_off channel=0 note=57 velocity=64 time=0
EXTRACT: note_on channel=0 note=61 velocity=72 time=0
EXTRACT: note_on channel=0 note=57 velocity=72 time=0
EXTRACT: note_on channel=0 note=52 velocity=72 time=0
EXTRACT: note_on channel=0 note=49 velocity=72 time=0
EXTRACT: note_off channel=0 note=61 velocity=64 time=0.28571399999999997
EXTRACT: note_off channel=0 note=57 velocity=64 time=0
EXTRACT: note_off channel=0 note=52 velocity=64 time=0
EXTRACT: note_off channel=0 note=49 velocity=64 time=0
EXTRACT: note_on channel=0 note=66 velocity=72 time=0
EXTRACT: note_on channel=0 note=61 velocity=72 time=0
EXTRACT: note_on channel=0 note=57 velocity=72 time=0
EXTRACT: note_on channel=0 note=52 velocity=72 time=0
EXTRACT: note_on channel=0 note=49 velocity=72 time=0
EXTRACT: note_off channel=0 note=66 velocity=64 time=0.28571399999999997
EXTRACT: note_off channel=0 note=61 velocity=64 time=0
EXTRACT: note_off channel=0 note=57 velocity=64 time=0
EXTRACT: note_off channel=0 note=52 velocity=64 time=0
EXTRACT: note_off channel=0 note=49 velocity=64 time=0
EXTRACT: note_on channel=0 note=66 velocity=72 time=0
EXTRACT: note_on channel=0 note=61 velocity=72 time=0
EXTRACT: note_on channel=0 note=57 velocity=72 time=0
EXTRACT: note_off channel=0 note=66 velocity=64 time=0.14285699999999998
EXTRACT: note_off channel=0 note=61 velocity=64 time=0
EXTRACT: note_off channel=0 note=57 velocity=64 time=0
EXTRACT: note_on channel=0 note=66 velocity=72 time=0
EXTRACT: note_on channel=0 note=61 velocity=72 time=0
EXTRACT: note_on channel=0 note=57 velocity=72 time=0
EXTRACT: note_off channel=0 note=66 velocity=64 time=0.14285699999999998
EXTRACT: note_off channel=0 note=61 velocity=64 time=0
EXTRACT: note_off channel=0 note=57 velocity=64 time=0
EXTRACT: note_on channel=0 note=66 velocity=72 time=0
EXTRACT: note_on channel=0 note=61 velocity=72 time=0
EXTRACT: note_on channel=0 note=57 velocity=72 time=0
EXTRACT: note_on channel=0 note=52 velocity=72 time=0
EXTRACT: note_on channel=0 note=47 velocity=72 time=0
EXTRACT: note_on channel=4 note=35 velocity=80 time=0
EXTRACT: note_on channel=2 note=66 velocity=72 time=0
EXTRACT: note_on channel=2 note=62 velocity=72 time=0
EXTRACT: note_on channel=2 note=57 velocity=72 time=0
EXTRACT: note_off channel=0 note=66 velocity=64 time=0.14285699999999998
EXTRACT: note_off channel=0 note=61 velocity=64 time=0
EXTRACT: note_off channel=0 note=57 velocity=64 time=0
EXTRACT: note_off channel=0 note=52 velocity=64 time=0
EXTRACT: note_off channel=0 note=47 velocity=64 time=0
EXTRACT: note_on channel=0 note=62 velocity=72 time=0
EXTRACT: note_on channel=0 note=54 velocity=72 time=0
EXTRACT: note_off channel=0 note=62 velocity=64 time=0.28571399999999997
EXTRACT: note_off channel=0 note=54 velocity=64 time=0
EXTRACT: note_on channel=0 note=66 velocity=72 time=0
EXTRACT: note_on channel=0 note=62 velocity=72 time=0
EXTRACT: note_on channel=0 note=57 velocity=72 time=0
EXTRACT: note_on channel=0 note=54 velocity=72 time=0
EXTRACT: note_on channel=0 note=47 velocity=72 time=0
EXTRACT: note_off channel=0 note=66 velocity=64 time=0.14285699999999998
EXTRACT: note_off channel=0 note=62 velocity=64 time=0
EXTRACT: note_off channel=0 note=57 velocity=64 time=0
EXTRACT: note_off channel=0 note=54 velocity=64 time=0
EXTRACT: note_off channel=0 note=47 velocity=64 time=0
EXTRACT: note_on channel=0 note=66 velocity=72 time=0
EXTRACT: note_on channel=0 note=62 velocity=72 time=0
EXTRACT: note_on channel=0 note=57 velocity=72 time=0
EXTRACT: note_off channel=0 note=66 velocity=64 time=0.14285699999999998
EXTRACT: note_off channel=0 note=62 velocity=64 time=0
EXTRACT: note_off channel=0 note=57 velocity=64 time=0
EXTRACT: note_on channel=0 note=66 velocity=72 time=0
EXTRACT: note_on channel=0 note=62 velocity=72 time=0
EXTRACT: note_on channel=0 note=57 velocity=72 time=0
EXTRACT: note_off channel=0 note=66 velocity=64 time=0.14285699999999998
EXTRACT: note_off channel=0 note=62 velocity=64 time=0
EXTRACT: note_off channel=0 note=57 velocity=64 time=0
EXTRACT: note_on channel=0 note=66 velocity=72 time=0
EXTRACT: note_on channel=0 note=61 velocity=72 time=0
EXTRACT: note_on channel=0 note=57 velocity=72 time=0
EXTRACT: note_on channel=0 note=52 velocity=72 time=0
EXTRACT: note_on channel=0 note=49 velocity=72 time=0
EXTRACT: note_off channel=4 note=35 velocity=64 time=0
EXTRACT: note_on channel=4 note=30 velocity=80 time=0
EXTRACT: note_off channel=2 note=66 velocity=64 time=0
EXTRACT: note_off channel=2 note=62 velocity=64 time=0
EXTRACT: note_off channel=2 note=57 velocity=64 time=0
EXTRACT: note_on channel=2 note=69 velocity=72 time=0
EXTRACT: note_on channel=2 note=64 velocity=72 time=0
EXTRACT: note_on channel=2 note=61 velocity=72 time=0
EXTRACT: note_on channel=2 note=57 velocity=72 time=0
EXTRACT: note_off channel=0 note=66 velocity=64 time=0.28571399999999997
EXTRACT: note_off channel=0 note=61 velocity=64 time=0
EXTRACT: note_off channel=0 note=57 velocity=64 time=0
EXTRACT: note_off channel=0 note=52 velocity=64 time=0
EXTRACT: note_off channel=0 note=49 velocity=64 time=0
EXTRACT: note_off channel=4 note=30 velocity=64 time=0
EXTRACT: note_off channel=2 note=69 velocity=64 time=0
EXTRACT: note_off channel=2 note=64 velocity=64 time=0
EXTRACT: note_off channel=2 note=61 velocity=64 time=0
EXTRACT: note_off channel=2 note=57 velocity=64 time=0
EXTRACT: note_on channel=0 note=66 velocity=72 time=0.14285699999999998
EXTRACT: note_on channel=0 note=61 velocity=72 time=0
EXTRACT: note_on channel=0 note=57 velocity=72 time=0
EXTRACT: note_off channel=0 note=66 velocity=64 time=0.14285699999999998
EXTRACT: note_off channel=0 note=61 velocity=64 time=0
EXTRACT: note_off channel=0 note=57 velocity=64 time=0
EXTRACT: note_on channel=0 note=61 velocity=72 time=0
EXTRACT: note_on channel=0 note=57 velocity=72 time=0
EXTRACT: note_on channel=0 note=52 velocity=72 time=0
EXTRACT: note_on channel=0 note=49 velocity=72 time=0
EXTRACT: note_off channel=0 note=61 velocity=64 time=0.28571399999999997
EXTRACT: note_off channel=0 note=57 velocity=64 time=0
EXTRACT: note_off channel=0 note=52 velocity=64 time=0
EXTRACT: note_off channel=0 note=49 velocity=64 time=0
EXTRACT: note_on channel=0 note=66 velocity=72 time=0
EXTRACT: note_on channel=0 note=61 velocity=72 time=0
EXTRACT: note_on channel=0 note=57 velocity=72 time=0
EXTRACT: note_on channel=0 note=52 velocity=72 time=0
EXTRACT: note_on channel=0 note=49 velocity=72 time=0
EXTRACT: note_off channel=0 note=66 velocity=64 time=0.28571399999999997
EXTRACT: note_off channel=0 note=61 velocity=64 time=0
EXTRACT: note_off channel=0 note=57 velocity=64 time=0
EXTRACT: note_off channel=0 note=52 velocity=64 time=0
EXTRACT: note_off channel=0 note=49 velocity=64 time=0
EXTRACT: note_on channel=0 note=66 velocity=72 time=0
EXTRACT: note_on channel=0 note=61 velocity=72 time=0
EXTRACT: note_on channel=0 note=57 velocity=72 time=0
EXTRACT: note_off channel=0 note=66 velocity=64 time=0.14285699999999998
EXTRACT: note_off channel=0 note=61 velocity=64 time=0
EXTRACT: note_off channel=0 note=57 velocity=64 time=0
EXTRACT: note_on channel=0 note=66 velocity=72 time=0
EXTRACT: note_on channel=0 note=61 velocity=72 time=0
EXTRACT: note_on channel=0 note=57 velocity=72 time=0
EXTRACT: note_on channel=4 note=30 velocity=80 time=0
EXTRACT: note_off channel=0 note=66 velocity=64 time=0.14285699999999998
EXTRACT: note_off channel=0 note=61 velocity=64 time=0
EXTRACT: note_off channel=0 note=57 velocity=64 time=0
EXTRACT: note_on channel=0 note=60 velocity=72 time=0
EXTRACT: note_on channel=0 note=57 velocity=72 time=0
EXTRACT: note_on channel=0 note=52 velocity=72 time=0
EXTRACT: note_on channel=0 note=41 velocity=72 time=0
EXTRACT: note_off channel=4 note=30 velocity=64 time=0
EXTRACT: note_on channel=4 note=29 velocity=80 time=0
EXTRACT: note_on channel=2 note=60 velocity=72 time=0
EXTRACT: note_on channel=2 note=57 velocity=72 time=0
EXTRACT: note_on channel=2 note=55 velocity=72 time=0
EXTRACT: note_on channel=2 note=52 velocity=72 time=0
EXTRACT: note_off channel=0 note=60 velocity=64 time=0.4285709999999999
EXTRACT: note_off channel=0 note=57 velocity=64 time=0
EXTRACT: note_off channel=0 note=52 velocity=64 time=0
EXTRACT: note_off channel=0 note=41 velocity=64 time=0
EXTRACT: note_on channel=0 note=60 velocity=72 time=0
EXTRACT: note_on channel=0 note=57 velocity=72 time=0
EXTRACT: note_on channel=0 note=52 velocity=72 time=0
EXTRACT: note_on channel=0 note=41 velocity=72 time=0
EXTRACT: note_off channel=0 note=60 velocity=64 time=0.14285699999999998
EXTRACT: note_off channel=0 note=57 velocity=64 time=0
EXTRACT: note_off channel=0 note=52 velocity=64 time=0
EXTRACT: note_off channel=0 note=41 velocity=64 time=0
EXTRACT: note_on channel=0 note=60 velocity=72 time=0
EXTRACT: note_on channel=0 note=57 velocity=72 time=0
EXTRACT: note_on channel=0 note=52 velocity=72 time=0
EXTRACT: note_off channel=0 note=60 velocity=64 time=0.14285699999999998
EXTRACT: note_off channel=0 note=57 velocity=64 time=0
EXTRACT: note_off channel=0 note=52 velocity=64 time=0
EXTRACT: note_on channel=0 note=60 velocity=72 time=0
EXTRACT: note_on channel=0 note=57 velocity=72 time=0
EXTRACT: note_on channel=0 note=52 velocity=72 time=0
EXTRACT: note_off channel=0 note=60 velocity=64 time=0.14285699999999998
EXTRACT: note_off channel=0 note=57 velocity=64 time=0
EXTRACT: note_off channel=0 note=52 velocity=64 time=0
EXTRACT: note_on channel=0 note=62 velocity=72 time=0
EXTRACT: note_on channel=0 note=59 velocity=72 time=0
EXTRACT: note_on channel=0 note=54 velocity=72 time=0
EXTRACT: note_on channel=0 note=43 velocity=72 time=0
EXTRACT: note_off channel=4 note=29 velocity=64 time=0
EXTRACT: note_on channel=4 note=31 velocity=80 time=0
EXTRACT: note_off channel=2 note=60 velocity=64 time=0
EXTRACT: note_off channel=2 note=57 velocity=64 time=0
EXTRACT: note_off channel=2 note=55 velocity=64 time=0
EXTRACT: note_on channel=2 note=62 velocity=72 time=0
EXTRACT: note_on channel=2 note=59 velocity=72 time=0
EXTRACT: note_on channel=2 note=57 velocity=72 time=0
EXTRACT: note_on channel=2 note=54 velocity=72 time=0
EXTRACT: note_off channel=2 note=52 velocity=64 time=0
EXTRACT: note_off channel=0 note=62 velocity=64 time=0.28571399999999997
EXTRACT: note_off channel=0 note=59 velocity=64 time=0
EXTRACT: note_off channel=0 note=54 velocity=64 time=0
EXTRACT: note_off channel=0 note=43 velocity=64 time=0
EXTRACT: note_off channel=4 note=31 velocity=64 time=0
EXTRACT: note_off channel=2 note=62 velocity=64 time=0
EXTRACT: note_off channel=2 note=59 velocity=64 time=0
EXTRACT: note_off channel=2 note=57 velocity=64 time=0
EXTRACT: note_off channel=2 note=54 velocity=64 time=0
EXTRACT: note_on channel=0 note=62 velocity=72 time=0.14285699999999998
EXTRACT: note_on channel=0 note=59 velocity=72 time=0
EXTRACT: note_on channel=0 note=54 velocity=72 time=0
EXTRACT: note_off channel=0 note=62 velocity=64 time=0.14285699999999998
EXTRACT: note_off channel=0 note=59 velocity=64 time=0
EXTRACT: note_off channel=0 note=54 velocity=64 time=0
EXTRACT: note_on channel=0 note=62 velocity=72 time=0
EXTRACT: note_on channel=0 note=59 velocity=72 time=0
EXTRACT: note_on channel=0 note=54 velocity=72 time=0
EXTRACT: note_on channel=0 note=43 velocity=72 time=0
EXTRACT: note_off channel=0 note=62 velocity=64 time=0.28571399999999997
EXTRACT: note_off channel=0 note=59 velocity=64 time=0
EXTRACT: note_off channel=0 note=54 velocity=64 time=0
EXTRACT: note_off channel=0 note=43 velocity=64 time=0
EXTRACT: note_on channel=0 note=62 velocity=72 time=0
EXTRACT: note_on channel=0 note=59 velocity=72 time=0
EXTRACT: note_on channel=0 note=54 velocity=72 time=0
EXTRACT: note_on channel=0 note=43 velocity=72 time=0
EXTRACT: note_off channel=0 note=62 velocity=64 time=0.28571399999999997
EXTRACT: note_off channel=0 note=59 velocity=64 time=0
EXTRACT: note_off channel=0 note=54 velocity=64 time=0
EXTRACT: note_off channel=0 note=43 velocity=64 time=0
EXTRACT: note_on channel=0 note=62 velocity=72 time=0
EXTRACT: note_on channel=0 note=59 velocity=72 time=0
EXTRACT: note_on channel=0 note=54 velocity=72 time=0
EXTRACT: note_off channel=0 note=62 velocity=64 time=0.14285699999999998
EXTRACT: note_off channel=0 note=59 velocity=64 time=0
EXTRACT: note_off channel=0 note=54 velocity=64 time=0
EXTRACT: note_on channel=0 note=62 velocity=72 time=0
EXTRACT: note_on channel=0 note=59 velocity=72 time=0
EXTRACT: note_on channel=0 note=54 velocity=72 time=0
EXTRACT: note_on channel=4 note=32 velocity=80 time=0
EXTRACT: note_off channel=0 note=62 velocity=64 time=0.14285699999999998
EXTRACT: note_off channel=0 note=59 velocity=64 time=0
EXTRACT: note_off channel=0 note=54 velocity=64 time=0
EXTRACT: note_on channel=0 note=64 velocity=72 time=0
EXTRACT: note_on channel=0 note=61 velocity=72 time=0
EXTRACT: note_on channel=0 note=56 velocity=72 time=0
EXTRACT: note_on channel=0 note=45 velocity=72 time=0
EXTRACT: note_off channel=4 note=32 velocity=64 time=0
EXTRACT: note_on channel=4 note=33 velocity=80 time=0
EXTRACT: note_on channel=2 note=68 velocity=72 time=0
EXTRACT: note_on channel=2 note=64 velocity=72 time=0
EXTRACT: note_on channel=2 note=61 velocity=72 time=0
EXTRACT: note_on channel=2 note=59 velocity=72 time=0
EXTRACT: note_off channel=0 note=64 velocity=64 time=0.4285709999999999
EXTRACT: note_off channel=0 note=61 velocity=64 time=0
EXTRACT: note_off channel=0 note=56 velocity=64 time=0
EXTRACT: note_off channel=0 note=45 velocity=64 time=0
EXTRACT: note_on channel=0 note=64 velocity=72 time=0
EXTRACT: note_on channel=0 note=61 velocity=72 time=0
EXTRACT: note_on channel=0 note=56 velocity=72 time=0
EXTRACT: note_on channel=0 note=45 velocity=72 time=0
EXTRACT: note_off channel=0 note=64 velocity=64 time=0.14285699999999998
EXTRACT: note_off channel=0 note=61 velocity=64 time=0
EXTRACT: note_off channel=0 note=56 velocity=64 time=0
EXTRACT: note_off channel=0 note=45 velocity=64 time=0
EXTRACT: note_on channel=0 note=64 velocity=72 time=0
EXTRACT: note_on channel=0 note=61 velocity=72 time=0
EXTRACT: note_on channel=0 note=56 velocity=72 time=0
EXTRACT: note_off channel=0 note=64 velocity=64 time=0.14285699999999998
EXTRACT: note_off channel=0 note=61 velocity=64 time=0
EXTRACT: note_off channel=0 note=56 velocity=64 time=0
EXTRACT: note_on channel=0 note=64 velocity=72 time=0
EXTRACT: note_on channel=0 note=61 velocity=72 time=0
EXTRACT: note_on channel=0 note=56 velocity=72 time=0
EXTRACT: note_off channel=0 note=64 velocity=64 time=0.14285699999999998
EXTRACT: note_off channel=0 note=61 velocity=64 time=0
EXTRACT: note_off channel=0 note=56 velocity=64 time=0
EXTRACT: note_on channel=0 note=69 velocity=72 time=0
EXTRACT: note_on channel=0 note=64 velocity=72 time=0
EXTRACT: note_on channel=0 note=60 velocity=72 time=0
EXTRACT: note_on channel=0 note=55 velocity=72 time=0
EXTRACT: note_on channel=0 note=50 velocity=72 time=0
EXTRACT: note_off channel=4 note=33 velocity=64 time=0
EXTRACT: note_on channel=4 note=38 velocity=80 time=0
EXTRACT: note_off channel=2 note=68 velocity=64 time=0
EXTRACT: note_off channel=2 note=64 velocity=64 time=0
EXTRACT: note_off channel=2 note=61 velocity=64 time=0
EXTRACT: note_off channel=2 note=59 velocity=64 time=0
EXTRACT: note_on channel=2 note=64 velocity=72 time=0
EXTRACT: note_on channel=2 note=60 velocity=72 time=0
EXTRACT: note_on channel=2 note=59 velocity=72 time=0
EXTRACT: note_on channel=2 note=55 velocity=72 time=0
EXTRACT: note_off channel=0 note=69 velocity=64 time=0.28571399999999997
EXTRACT: note_off channel=0 note=64 velocity=64 time=0
EXTRACT: note_off channel=0 note=60 velocity=64 time=0
EXTRACT: note_off channel=0 note=55 velocity=64 time=0
EXTRACT: note_off channel=0 note=50 velocity=64 time=0
EXTRACT: note_off channel=4 note=38 velocity=64 time=0
EXTRACT: note_off channel=2 note=64 velocity=64 time=0
EXTRACT: note_off channel=2 note=60 velocity=64 time=0
EXTRACT: note_off channel=2 note=59 velocity=64 time=0
EXTRACT: note_off channel=2 note=55 velocity=64 time=0
EXTRACT: note_on channel=9 note=38 velocity=80 time=0.5714279999999999
EXTRACT: note_on channel=4 note=33 velocity=80 time=0.5714279999999999
EXTRACT: note_on channel=2 note=64 velocity=72 time=0
EXTRACT: note_on channel=2 note=60 velocity=72 time=0
EXTRACT: note_on channel=2 note=57 velocity=72 time=0
EXTRACT: note_on channel=2 note=55 velocity=72 time=0
EXTRACT: note_off channel=9 note=38 velocity=64 time=0
EXTRACT: note_on channel=9 note=42 velocity=72 time=0
EXTRACT: note_on channel=9 note=35 velocity=72 time=0
EXTRACT: note_off channel=9 note=42 velocity=64 time=0.28571399999999997
EXTRACT: note_off channel=9 note=35 velocity=64 time=0
EXTRACT: note_on channel=9 note=42 velocity=72 time=0
EXTRACT: note_off channel=4 note=33 velocity=64 time=0.28571399999999997
EXTRACT: note_off channel=2 note=64 velocity=64 time=0
EXTRACT: note_off channel=2 note=60 velocity=64 time=0
EXTRACT: note_off channel=2 note=57 velocity=64 time=0
EXTRACT: note_off channel=2 note=55 velocity=64 time=0
EXTRACT: note_on channel=2 note=64 velocity=72 time=0
EXTRACT: note_on channel=2 note=60 velocity=72 time=0
EXTRACT: note_on channel=2 note=57 velocity=72 time=0
EXTRACT: note_on channel=2 note=55 velocity=72 time=0
EXTRACT: note_off channel=9 note=42 velocity=64 time=0
EXTRACT: note_on channel=9 note=42 velocity=72 time=0
EXTRACT: note_on channel=9 note=38 velocity=72 time=0
EXTRACT: note_on channel=11 note=57 velocity=80 time=0.28571399999999997
EXTRACT: note_off channel=9 note=42 velocity=64 time=0
EXTRACT: note_off channel=9 note=38 velocity=64 time=0
EXTRACT: note_on channel=9 note=42 velocity=72 time=0
EXTRACT: note_off channel=11 note=57 velocity=64 time=0.14285699999999998
EXTRACT: note_on channel=11 note=64 velocity=80 time=0
EXTRACT: note_on channel=4 note=33 velocity=80 time=0
EXTRACT: note_off channel=9 note=42 velocity=64 time=0
EXTRACT: note_on channel=9 note=35 velocity=72 time=0
EXTRACT: note_off channel=11 note=64 velocity=64 time=0.14285699999999998
EXTRACT: note_off channel=4 note=33 velocity=64 time=0
EXTRACT: note_off channel=2 note=64 velocity=64 time=0
EXTRACT: note_off channel=2 note=60 velocity=64 time=0
EXTRACT: note_off channel=2 note=57 velocity=64 time=0
EXTRACT: note_off channel=2 note=55 velocity=64 time=0
EXTRACT: note_off channel=9 note=35 velocity=64 time=0
EXTRACT: note_on channel=9 note=42 velocity=72 time=0
EXTRACT: note_on channel=11 note=62 velocity=80 time=0.14285699999999998
EXTRACT: note_on channel=2 note=64 velocity=72 time=0.14285699999999998
EXTRACT: note_on channel=2 note=60 velocity=72 time=0
EXTRACT: note_on channel=2 note=57 velocity=72 time=0
EXTRACT: note_on channel=2 note=55 velocity=72 time=0
EXTRACT: note_off channel=9 note=42 velocity=64 time=0
EXTRACT: note_on channel=9 note=42 velocity=72 time=0
EXTRACT: note_off channel=11 note=62 velocity=64 time=0.14285699999999998
EXTRACT: note_on channel=11 note=60 velocity=80 time=0
EXTRACT: note_off channel=11 note=60 velocity=64 time=0.14285699999999998
EXTRACT: note_off channel=2 note=64 velocity=64 time=0
EXTRACT: note_off channel=2 note=60 velocity=64 time=0
EXTRACT: note_off channel=2 note=57 velocity=64 time=0
EXTRACT: note_off channel=2 note=55 velocity=64 time=0
EXTRACT: note_off channel=9 note=42 velocity=64 time=0
EXTRACT: note_on channel=9 note=42 velocity=72 time=0
EXTRACT: note_on channel=9 note=38 velocity=72 time=0
EXTRACT: note_on channel=11 note=60 velocity=80 time=0.14285699999999998
EXTRACT: note_on channel=2 note=64 velocity=72 time=0
EXTRACT: note_on channel=2 note=60 velocity=72 time=0
EXTRACT: note_on channel=2 note=57 velocity=72 time=0
EXTRACT: note_on channel=2 note=55 velocity=72 time=0
EXTRACT: note_off channel=11 note=60 velocity=64 time=0.14285699999999998
EXTRACT: note_on channel=11 note=62 velocity=80 time=0
EXTRACT: note_off channel=9 note=42 velocity=64 time=0
EXTRACT: note_off channel=9 note=38 velocity=64 time=0
EXTRACT: note_on channel=9 note=42 velocity=72 time=0
EXTRACT: note_off channel=11 note=62 velocity=64 time=0.28571399999999997
EXTRACT: note_on channel=11 note=57 velocity=80 time=0
EXTRACT: note_on channel=4 note=30 velocity=80 time=0
EXTRACT: note_off channel=2 note=64 velocity=64 time=0
EXTRACT: note_off channel=2 note=60 velocity=64 time=0
EXTRACT: note_off channel=2 note=57 velocity=64 time=0
EXTRACT: note_off channel=2 note=55 velocity=64 time=0
EXTRACT: note_on channel=2 note=64 velocity=72 time=0
EXTRACT: note_on channel=2 note=61 velocity=72 time=0
EXTRACT: note_on channel=2 note=57 velocity=72 time=0
EXTRACT: note_on channel=2 note=54 velocity=72 time=0
EXTRACT: note_off channel=9 note=42 velocity=64 time=0
EXTRACT: note_on channel=9 note=42 velocity=72 time=0
EXTRACT: note_on channel=9 note=35 velocity=72 time=0
EXTRACT: note_off channel=9 note=42 velocity=64 time=0.28571399999999997
EXTRACT: note_off channel=9 note=35 velocity=64 time=0
EXTRACT: note_on channel=9 note=42 velocity=72 time=0
EXTRACT: note_off channel=11 note=57 velocity=64 time=0.28571399999999997
EXTRACT: note_off channel=4 note=30 velocity=64 time=0
EXTRACT: note_off channel=2 note=64 velocity=64 time=0
EXTRACT: note_off channel=2 note=61 velocity=64 time=0
EXTRACT: note_off channel=2 note=57 velocity=64 time=0
EXTRACT: note_off channel=2 note=54 velocity=64 time=0
EXTRACT: note_on channel=2 note=64 velocity=72 time=0
EXTRACT: note_on channel=2 note=61 velocity=72 time=0
EXTRACT: note_on channel=2 note=57 velocity=72 time=0
EXTRACT: note_on channel=2 note=54 velocity=72 time=0
EXTRACT: note_off channel=9 note=42 velocity=64 time=0
EXTRACT: note_on channel=9 note=42 velocity=72 time=0
EXTRACT: note_on channel=9 note=38 velocity=72 time=0
EXTRACT: note_off channel=9 note=42 velocity=64 time=0.28571399999999997
EXTRACT: note_off channel=9 note=38 velocity=64 time=0
EXTRACT: note_on channel=9 note=42 velocity=72 time=0
EXTRACT: note_on channel=11 note=62 velocity=80 time=0.14285699999999998
EXTRACT: note_on channel=4 note=30 velocity=80 time=0
EXTRACT: note_off channel=9 note=42 velocity=64 time=0
EXTRACT: note_on channel=9 note=35 velocity=72 time=0
EXTRACT: note_off channel=11 note=62 velocity=64 time=0.14285699999999998
EXTRACT: note_on channel=11 note=64 velocity=80 time=0
EXTRACT: note_off channel=4 note=30 velocity=64 time=0
EXTRACT: note_off channel=2 note=64 velocity=64 time=0
EXTRACT: note_off channel=2 note=61 velocity=64 time=0
EXTRACT: note_off channel=2 note=57 velocity=64 time=0
EXTRACT: note_off channel=2 note=54 velocity=64 time=0
EXTRACT: note_off channel=9 note=35 velocity=64 time=0
EXTRACT: note_on channel=9 note=42 velocity=72 time=0
EXTRACT: note_off channel=11 note=64 velocity=64 time=0.28571399999999997
EXTRACT: note_on channel=11 note=62 velocity=80 time=0
EXTRACT: note_on channel=2 note=64 velocity=72 time=0
EXTRACT: note_on channel=2 note=61 velocity=72 time=0
EXTRACT: note_on channel=2 note=57 velocity=72 time=0
EXTRACT: note_on channel=2 note=54 velocity=72 time=0
EXTRACT: note_off channel=9 note=42 velocity=64 time=0
EXTRACT: note_on channel=9 note=42 velocity=72 time=0
EXTRACT: note_off channel=11 note=62 velocity=64 time=0.14285699999999998
EXTRACT: note_on channel=11 note=60 velocity=80 time=0
EXTRACT: note_off channel=11 note=60 velocity=64 time=0.14285699999999998
EXTRACT: note_off channel=2 note=64 velocity=64 time=0
EXTRACT: note_off channel=2 note=61 velocity=64 time=0
EXTRACT: note_off channel=2 note=57 velocity=64 time=0
EXTRACT: note_off channel=2 note=54 velocity=64 time=0
EXTRACT: note_off channel=9 note=42 velocity=64 time=0
EXTRACT: note_on channel=9 note=42 velocity=72 time=0
EXTRACT: note_on channel=9 note=38 velocity=72 time=0
EXTRACT: note_on channel=11 note=60 velocity=80 time=0.14285699999999998
EXTRACT: note_on channel=4 note=30 velocity=80 time=0
EXTRACT: note_on channel=2 note=64 velocity=72 time=0
EXTRACT: note_on channel=2 note=61 velocity=72 time=0
EXTRACT: note_on channel=2 note=57 velocity=72 time=0
EXTRACT: note_on channel=2 note=54 velocity=72 time=0
EXTRACT: note_off channel=11 note=60 velocity=64 time=0.14285699999999998
EXTRACT: note_on channel=11 note=62 velocity=80 time=0
EXTRACT: note_off channel=4 note=30 velocity=64 time=0
EXTRACT: note_on channel=4 note=33 velocity=80 time=0
EXTRACT: note_off channel=9 note=42 velocity=64 time=0
EXTRACT: note_off channel=9 note=38 velocity=64 time=0
EXTRACT: note_on channel=9 note=42 velocity=72 time=0
EXTRACT: note_off channel=11 note=62 velocity=64 time=0.28571399999999997
EXTRACT: note_on channel=11 note=57 velocity=80 time=0
EXTRACT: note_off channel=4 note=33 velocity=64 time=0
EXTRACT: note_on channel=4 note=38 velocity=80 time=0
EXTRACT: note_off channel=2 note=64 velocity=64 time=0
EXTRACT: note_off channel=2 note=61 velocity=64 time=0
EXTRACT: note_off channel=2 note=57 velocity=64 time=0
EXTRACT: note_off channel=2 note=54 velocity=64 time=0
EXTRACT: note_on channel=2 note=60 velocity=72 time=0
EXTRACT: note_on channel=2 note=57 velocity=72 time=0
EXTRACT: note_on channel=2 note=53 velocity=72 time=0
EXTRACT: note_off channel=9 note=42 velocity=64 time=0
EXTRACT: note_on channel=9 note=42 velocity=72 time=0
EXTRACT: note_on channel=9 note=35 velocity=72 time=0
EXTRACT: note_off channel=9 note=42 velocity=64 time=0.28571399999999997
EXTRACT: note_off channel=9 note=35 velocity=64 time=0
EXTRACT: note_on channel=9 note=42 velocity=72 time=0
EXTRACT: note_off channel=11 note=57 velocity=64 time=0.28571399999999997
EXTRACT: note_off channel=4 note=38 velocity=64 time=0
EXTRACT: note_off channel=2 note=60 velocity=64 time=0
EXTRACT: note_off channel=2 note=57 velocity=64 time=0
EXTRACT: note_off channel=2 note=53 velocity=64 time=0
EXTRACT: note_on channel=2 note=60 velocity=72 time=0
EXTRACT: note_on channel=2 note=57 velocity=72 time=0
EXTRACT: note_on channel=2 note=53 velocity=72 time=0
EXTRACT: note_off channel=9 note=42 velocity=64 time=0
EXTRACT: note_on channel=9 note=42 velocity=72 time=0
EXTRACT: note_on channel=9 note=38 velocity=72 time=0
EXTRACT: note_on channel=11 note=64 velocity=80 time=0.28571399999999997
EXTRACT: note_off channel=9 note=42 velocity=64 time=0
EXTRACT: note_off channel=9 note=38 velocity=64 time=0
EXTRACT: note_on channel=9 note=42 velocity=72 time=0
EXTRACT: note_on channel=4 note=38 velocity=80 time=0.14285699999999998
EXTRACT: note_off channel=9 note=42 velocity=64 time=0
EXTRACT: note_on channel=9 note=35 velocity=72 time=0
EXTRACT: note_off channel=11 note=64 velocity=64 time=0.14285699999999998
EXTRACT: note_on channel=11 note=64 velocity=80 time=0
EXTRACT: note_off channel=4 note=38 velocity=64 time=0
EXTRACT: note_off channel=2 note=60 velocity=64 time=0
EXTRACT: note_off channel=2 note=57 velocity=64 time=0
EXTRACT: note_off channel=2 note=53 velocity=64 time=0
EXTRACT: note_off channel=9 note=35 velocity=64 time=0
EXTRACT: note_on channel=9 note=42 velocity=72 time=0
EXTRACT: note_off channel=11 note=64 velocity=64 time=0.28571399999999997
EXTRACT: note_on channel=11 note=62 velocity=80 time=0
EXTRACT: note_on channel=2 note=60 velocity=72 time=0
EXTRACT: note_on channel=2 note=57 velocity=72 time=0
EXTRACT: note_on channel=2 note=53 velocity=72 time=0
EXTRACT: note_off channel=9 note=42 velocity=64 time=0
EXTRACT: note_on channel=9 note=42 velocity=72 time=0
EXTRACT: note_off channel=11 note=62 velocity=64 time=0.14285699999999998
EXTRACT: note_on channel=11 note=60 velocity=80 time=0
EXTRACT: note_off channel=11 note=60 velocity=64 time=0.14285699999999998
EXTRACT: note_off channel=2 note=60 velocity=64 time=0
EXTRACT: note_off channel=2 note=57 velocity=64 time=0
EXTRACT: note_off channel=2 note=53 velocity=64 time=0
EXTRACT: note_off channel=9 note=42 velocity=64 time=0
EXTRACT: note_on channel=9 note=42 velocity=72 time=0
EXTRACT: note_on channel=9 note=38 velocity=72 time=0
EXTRACT: note_on channel=11 note=62 velocity=80 time=0.14285699999999998
EXTRACT: note_on channel=4 note=38 velocity=80 time=0
EXTRACT: note_on channel=2 note=60 velocity=72 time=0
EXTRACT: note_on channel=2 note=57 velocity=72 time=0
EXTRACT: note_on channel=2 note=53 velocity=72 time=0
EXTRACT: note_off channel=4 note=38 velocity=64 time=0.14285699999999998
EXTRACT: note_on channel=4 note=33 velocity=80 time=0
EXTRACT: note_off channel=9 note=42 velocity=64 time=0
EXTRACT: note_off channel=9 note=38 velocity=64 time=0
EXTRACT: note_on channel=9 note=42 velocity=72 time=0
EXTRACT: note_off channel=11 note=62 velocity=64 time=0.14285699999999998
EXTRACT: note_on channel=11 note=62 velocity=80 time=0
EXTRACT: note_off channel=4 note=33 velocity=64 time=0
EXTRACT: note_on channel=4 note=32 velocity=80 time=0
EXTRACT: note_off channel=11 note=62 velocity=64 time=0.14285699999999998
EXTRACT: note_on channel=11 note=64 velocity=80 time=0
EXTRACT: note_off channel=4 note=32 velocity=64 time=0
EXTRACT: note_on channel=4 note=31 velocity=80 time=0
EXTRACT: note_off channel=2 note=60 velocity=64 time=0
EXTRACT: note_off channel=2 note=57 velocity=64 time=0
EXTRACT: note_off channel=2 note=53 velocity=64 time=0
EXTRACT: note_on channel=2 note=60 velocity=72 time=0
EXTRACT: note_on channel=2 note=57 velocity=72 time=0
EXTRACT: note_on channel=2 note=53 velocity=72 time=0
EXTRACT: note_on channel=2 note=50 velocity=72 time=0
EXTRACT: note_off channel=9 note=42 velocity=64 time=0
EXTRACT: note_on channel=9 note=42 velocity=72 time=0
EXTRACT: note_on channel=9 note=35 velocity=72 time=0
EXTRACT: note_off channel=11 note=64 velocity=64 time=0.28571399999999997
EXTRACT: note_on channel=11 note=62 velocity=80 time=0
EXTRACT: note_off channel=9 note=42 velocity=64 time=0
EXTRACT: note_off channel=9 note=35 velocity=64 time=0
EXTRACT: note_on channel=9 note=42 velocity=72 time=0
EXTRACT: note_off channel=11 note=62 velocity=64 time=0.14285699999999998
EXTRACT: note_on channel=11 note=60 velocity=80 time=0
EXTRACT: note_off channel=11 note=60 velocity=64 time=0.14285699999999998
EXTRACT: note_off channel=4 note=31 velocity=64 time=0
EXTRACT: note_off channel=2 note=60 velocity=64 time=0
EXTRACT: note_off channel=2 note=57 velocity=64 time=0
EXTRACT: note_off channel=2 note=53 velocity=64 time=0
EXTRACT: note_on channel=2 note=60 velocity=72 time=0
EXTRACT: note_on channel=2 note=57 velocity=72 time=0
EXTRACT: note_on channel=2 note=53 velocity=72 time=0
EXTRACT: note_off channel=2 note=50 velocity=64 time=0
EXTRACT: note_on channel=2 note=50 velocity=72 time=0
EXTRACT: note_off channel=9 note=42 velocity=64 time=0
EXTRACT: note_on channel=9 note=42 velocity=72 time=0
EXTRACT: note_on channel=9 note=38 velocity=72 time=0
EXTRACT: note_on channel=11 note=62 velocity=80 time=0.14285699999999998
EXTRACT: note_off channel=9 note=42 velocity=64 time=0.14285699999999998
EXTRACT: note_off channel=9 note=38 velocity=64 time=0
EXTRACT: note_on channel=9 note=42 velocity=72 time=0
EXTRACT: note_off channel=11 note=62 velocity=64 time=0.14285699999999998
EXTRACT: note_on channel=11 note=62 velocity=80 time=0
EXTRACT: note_on channel=4 note=31 velocity=80 time=0
EXTRACT: note_off channel=9 note=42 velocity=64 time=0
EXTRACT: note_on channel=9 note=35 velocity=72 time=0
EXTRACT: note_off channel=11 note=62 velocity=64 time=0.14285699999999998
EXTRACT: note_on channel=11 note=64 velocity=80 time=0
EXTRACT: note_off channel=4 note=31 velocity=64 time=0
EXTRACT: note_off channel=2 note=60 velocity=64 time=0
EXTRACT: note_off channel=2 note=57 velocity=64 time=0
EXTRACT: note_off channel=2 note=53 velocity=64 time=0
EXTRACT: note_off channel=2 note=50 velocity=64 time=0
EXTRACT: note_off channel=9 note=35 velocity=64 time=0
EXTRACT: note_on channel=9 note=42 velocity=72 time=0
EXTRACT: note_off channel=11 note=64 velocity=64 time=0.28571399999999997
EXTRACT: note_on channel=11 note=62 velocity=80 time=0
EXTRACT: note_on channel=4 note=28 velocity=80 time=0
EXTRACT: note_on channel=2 note=60 velocity=72 time=0
EXTRACT: note_on channel=2 note=57 velocity=72 time=0
EXTRACT: note_on channel=2 note=53 velocity=72 time=0
EXTRACT: note_off channel=9 note=42 velocity=64 time=0
EXTRACT: note_on channel=9 note=42 velocity=72 time=0
EXTRACT: note_off channel=11 note=62 velocity=64 time=0.14285699999999998
EXTRACT: note_on channel=11 note=60 velocity=80 time=0
EXTRACT: note_off channel=11 note=60 velocity=64 time=0.14285699999999998
EXTRACT: note_on channel=11 note=57 velocity=80 time=0
EXTRACT: note_off channel=4 note=28 velocity=64 time=0
EXTRACT: note_off channel=2 note=60 velocity=64 time=0
EXTRACT: note_off channel=2 note=57 velocity=64 time=0
EXTRACT: note_off channel=2 note=53 velocity=64 time=0
EXTRACT: note_off channel=9 note=42 velocity=64 time=0
EXTRACT: note_on channel=9 note=42 velocity=72 time=0
EXTRACT: note_on channel=9 note=38 velocity=72 time=0
EXTRACT: note_off channel=11 note=57 velocity=64 time=0.14285699999999998
EXTRACT: note_on channel=11 note=57 velocity=80 time=0
EXTRACT: note_on channel=4 note=31 velocity=80 time=0
EXTRACT: note_on channel=2 note=62 velocity=72 time=0
EXTRACT: note_on channel=2 note=57 velocity=72 time=0
EXTRACT: note_on channel=2 note=53 velocity=72 time=0
EXTRACT: note_off channel=9 note=42 velocity=64 time=0.14285699999999998
EXTRACT: note_off channel=9 note=38 velocity=64 time=0
EXTRACT: note_on channel=9 note=42 velocity=72 time=0
EXTRACT: note_off channel=11 note=57 velocity=64 time=0.28571399999999997
EXTRACT: note_off channel=4 note=31 velocity=64 time=0
EXTRACT: note_on channel=4 note=33 velocity=80 time=0
EXTRACT: note_off channel=2 note=62 velocity=64 time=0
EXTRACT: note_off channel=2 note=57 velocity=64 time=0
EXTRACT: note_off channel=2 note=53 velocity=64 time=0
EXTRACT: note_on channel=2 note=64 velocity=72 time=0
EXTRACT: note_on channel=2 note=60 velocity=72 time=0
EXTRACT: note_on channel=2 note=57 velocity=72 time=0
EXTRACT: note_on channel=2 note=55 velocity=72 time=0
EXTRACT: note_off channel=9 note=42 velocity=64 time=0
EXTRACT: note_on channel=9 note=42 velocity=72 time=0
EXTRACT: note_on channel=9 note=35 velocity=72 time=0
EXTRACT: note_off channel=9 note=42 velocity=64 time=0.28571399999999997
EXTRACT: note_off channel=9 note=35 velocity=64 time=0
EXTRACT: note_on channel=9 note=42 velocity=72 time=0
EXTRACT: note_off channel=4 note=33 velocity=64 time=0.28571399999999997
EXTRACT: note_off channel=2 note=64 velocity=64 time=0
EXTRACT: note_off channel=2 note=60 velocity=64 time=0
EXTRACT: note_off channel=2 note=57 velocity=64 time=0
EXTRACT: note_off channel=2 note=55 velocity=64 time=0
EXTRACT: note_on channel=2 note=64 velocity=72 time=0
EXTRACT: note_on channel=2 note=60 velocity=72 time=0
EXTRACT: note_on channel=2 note=57 velocity=72 time=0
EXTRACT: note_on channel=2 note=55 velocity=72 time=0
EXTRACT: note_off channel=9 note=42 velocity=64 time=0
EXTRACT: note_on channel=9 note=42 velocity=72 time=0
EXTRACT: note_on channel=9 note=38 velocity=72 time=0
EXTRACT: note_on channel=11 note=57 velocity=80 time=0.28571399999999997
EXTRACT: note_off channel=9 note=42 velocity=64 time=0
EXTRACT: note_off channel=9 note=38 velocity=64 time=0
EXTRACT: note_on channel=9 note=42 velocity=72 time=0
EXTRACT: note_off channel=11 note=57 velocity=64 time=0.14285699999999998
EXTRACT: note_on channel=11 note=57 velocity=80 time=0
EXTRACT: note_on channel=4 note=33 velocity=80 time=0
EXTRACT: note_off channel=9 note=42 velocity=64 time=0
EXTRACT: note_on channel=9 note=35 velocity=72 time=0
EXTRACT: note_off channel=11 note=57 velocity=64 time=0.14285699999999998
EXTRACT: note_on channel=11 note=64 velocity=80 time=0
EXTRACT: note_off channel=4 note=33 velocity=64 time=0
EXTRACT: note_off channel=2 note=64 velocity=64 time=0
EXTRACT: note_off channel=2 note=60 velocity=64 time=0
EXTRACT: note_off channel=2 note=57 velocity=64 time=0
EXTRACT: note_off channel=2 note=55 velocity=64 time=0
EXTRACT: note_off channel=9 note=35 velocity=64 time=0
EXTRACT: note_on channel=9 note=42 velocity=72 time=0
EXTRACT: note_off channel=11 note=64 velocity=64 time=0.14285699999999998
EXTRACT: note_on channel=11 note=62 velocity=80 time=0
EXTRACT: note_on channel=2 note=64 velocity=72 time=0.14285699999999998
EXTRACT: note_on channel=2 note=60 velocity=72 time=0
EXTRACT: note_on channel=2 note=57 velocity=72 time=0
EXTRACT: note_on channel=2 note=55 velocity=72 time=0
EXTRACT: note_off channel=9 note=42 velocity=64 time=0
EXTRACT: note_on channel=9 note=42 velocity=72 time=0
EXTRACT: note_off channel=11 note=62 velocity=64 time=0.14285699999999998
EXTRACT: note_on channel=11 note=60 velocity=80 time=0
EXTRACT: note_off channel=11 note=60 velocity=64 time=0.14285699999999998
EXTRACT: note_off channel=2 note=64 velocity=64 time=0
EXTRACT: note_off channel=2 note=60 velocity=64 time=0
EXTRACT: note_off channel=2 note=57 velocity=64 time=0
EXTRACT: note_off channel=2 note=55 velocity=64 time=0
EXTRACT: note_off channel=9 note=42 velocity=64 time=0
EXTRACT: note_on channel=9 note=42 velocity=72 time=0
EXTRACT: note_on channel=9 note=38 velocity=72 time=0
EXTRACT: note_on channel=11 note=60 velocity=80 time=0.14285699999999998
EXTRACT: note_on channel=4 note=33 velocity=80 time=0
EXTRACT: note_on channel=2 note=64 velocity=72 time=0
EXTRACT: note_on channel=2 note=60 velocity=72 time=0
EXTRACT: note_on channel=2 note=57 velocity=72 time=0
EXTRACT: note_on channel=2 note=55 velocity=72 time=0
EXTRACT: note_off channel=11 note=60 velocity=64 time=0.14285699999999998
EXTRACT: note_on channel=11 note=62 velocity=80 time=0
EXTRACT: note_off channel=9 note=42 velocity=64 time=0
EXTRACT: note_off channel=9 note=38 velocity=64 time=0
EXTRACT: note_on channel=9 note=42 velocity=72 time=0
EXTRACT: note_off channel=11 note=62 velocity=64 time=0.28571399999999997
EXTRACT: note_on channel=11 note=57 velocity=80 time=0
EXTRACT: note_off channel=4 note=33 velocity=64 time=0
EXTRACT: note_on channel=4 note=30 velocity=80 time=0
EXTRACT: note_off channel=2 note=64 velocity=64 time=0
EXTRACT: note_off channel=2 note=60 velocity=64 time=0
EXTRACT: note_off channel=2 note=57 velocity=64 time=0
EXTRACT: note_off channel=2 note=55 velocity=64 time=0
EXTRACT: note_on channel=2 note=64 velocity=72 time=0
EXTRACT: note_on channel=2 note=61 velocity=72 time=0
EXTRACT: note_on channel=2 note=57 velocity=72 time=0
EXTRACT: note_on channel=2 note=54 velocity=72 time=0
EXTRACT: note_off channel=9 note=42 velocity=64 time=0
EXTRACT: note_on channel=9 note=42 velocity=72 time=0
EXTRACT: note_on channel=9 note=35 velocity=72 time=0
EXTRACT: note_off channel=9 note=42 velocity=64 time=0.28571399999999997
EXTRACT: note_off channel=9 note=35 velocity=64 time=0
EXTRACT: note_on channel=9 note=42 velocity=72 time=0
EXTRACT: note_off channel=11 note=57 velocity=64 time=0.28571399999999997
EXTRACT: note_off channel=4 note=30 velocity=64 time=0
EXTRACT: note_off channel=2 note=64 velocity=64 time=0
EXTRACT: note_off channel=2 note=61 velocity=64 time=0
EXTRACT: note_off channel=2 note=57 velocity=64 time=0
EXTRACT: note_off channel=2 note=54 velocity=64 time=0
EXTRACT: note_on channel=2 note=64 velocity=72 time=0
EXTRACT: note_on channel=2 note=61 velocity=72 time=0
EXTRACT: note_on channel=2 note=57 velocity=72 time=0
EXTRACT: note_on channel=2 note=54 velocity=72 time=0
EXTRACT: note_off channel=9 note=42 velocity=64 time=0
EXTRACT: note_on channel=9 note=42 velocity=72 time=0
EXTRACT: note_on channel=9 note=38 velocity=72 time=0
EXTRACT: note_on channel=11 note=64 velocity=80 time=0.28571399999999997
EXTRACT: note_off channel=9 note=42 velocity=64 time=0
EXTRACT: note_off channel=9 note=38 velocity=64 time=0
EXTRACT: note_on channel=9 note=42 velocity=72 time=0
EXTRACT: note_on channel=4 note=30 velocity=80 time=0.14285699999999998
EXTRACT: note_off channel=9 note=42 velocity=64 time=0
EXTRACT: note_on channel=9 note=35 velocity=72 time=0
EXTRACT: note_off channel=11 note=64 velocity=64 time=0.14285699999999998
EXTRACT: note_on channel=11 note=64 velocity=80 time=0
EXTRACT: note_off channel=4 note=30 velocity=64 time=0
EXTRACT: note_off channel=2 note=64 velocity=64 time=0
EXTRACT: note_off channel=2 note=61 velocity=64 time=0
EXTRACT: note_off channel=2 note=57 velocity=64 time=0
EXTRACT: note_off channel=2 note=54 velocity=64 time=0
EXTRACT: note_off channel=9 note=35 velocity=64 time=0
EXTRACT: note_on channel=9 note=42 velocity=72 time=0
EXTRACT: note_off channel=11 note=64 velocity=64 time=0.28571399999999997
EXTRACT: note_on channel=11 note=64 velocity=80 time=0
EXTRACT: note_on channel=2 note=64 velocity=72 time=0
EXTRACT: note_on channel=2 note=61 velocity=72 time=0
EXTRACT: note_on channel=2 note=57 velocity=72 time=0
EXTRACT: note_on channel=2 note=54 velocity=72 time=0
EXTRACT: note_off channel=9 note=42 velocity=64 time=0
EXTRACT: note_on channel=9 note=42 velocity=72 time=0
EXTRACT: note_off channel=11 note=64 velocity=64 time=0.28571399999999997
EXTRACT: note_on channel=11 note=64 velocity=80 time=0
EXTRACT: note_off channel=2 note=64 velocity=64 time=0
EXTRACT: note_off channel=2 note=61 velocity=64 time=0
EXTRACT: note_off channel=2 note=57 velocity=64 time=0
EXTRACT: note_off channel=2 note=54 velocity=64 time=0
EXTRACT: note_off channel=9 note=42 velocity=64 time=0
EXTRACT: note_on channel=9 note=42 velocity=72 time=0
EXTRACT: note_on channel=9 note=38 velocity=72 time=0
EXTRACT: note_off channel=11 note=64 velocity=64 time=0.14285699999999998
EXTRACT: note_on channel=11 note=64 velocity=80 time=0
EXTRACT: note_on channel=4 note=30 velocity=80 time=0
EXTRACT: note_on channel=2 note=64 velocity=72 time=0
EXTRACT: note_on channel=2 note=61 velocity=72 time=0
EXTRACT: note_on channel=2 note=57 velocity=72 time=0
EXTRACT: note_on channel=2 note=54 velocity=72 time=0
EXTRACT: note_off channel=4 note=30 velocity=64 time=0.14285699999999998
EXTRACT: note_on channel=4 note=33 velocity=80 time=0
EXTRACT: note_off channel=9 note=42 velocity=64 time=0
EXTRACT: note_off channel=9 note=38 velocity=64 time=0
EXTRACT: note_on channel=9 note=42 velocity=72 time=0
EXTRACT: note_off channel=11 note=64 velocity=64 time=0.07142849999999999
EXTRACT: note_on channel=11 note=64 velocity=72 time=0
EXTRACT: note_off channel=11 note=64 velocity=64 time=0.07142849999999999
EXTRACT: note_on channel=11 note=65 velocity=80 time=0
EXTRACT: note_off channel=4 note=33 velocity=64 time=0
EXTRACT: note_on channel=4 note=35 velocity=80 time=0
EXTRACT: note_off channel=11 note=65 velocity=64 time=0.14285699999999998
EXTRACT: note_on channel=11 note=64 velocity=80 time=0
EXTRACT: note_off channel=4 note=35 velocity=64 time=0
EXTRACT: note_on channel=4 note=38 velocity=80 time=0
EXTRACT: note_off channel=2 note=64 velocity=64 time=0
EXTRACT: note_off channel=2 note=61 velocity=64 time=0
EXTRACT: note_off channel=2 note=57 velocity=64 time=0
EXTRACT: note_off channel=2 note=54 velocity=64 time=0
EXTRACT: note_on channel=2 note=60 velocity=72 time=0
EXTRACT: note_on channel=2 note=57 velocity=72 time=0
EXTRACT: note_on channel=2 note=53 velocity=72 time=0
EXTRACT: note_off channel=9 note=42 velocity=64 time=0
EXTRACT: note_on channel=9 note=42 velocity=72 time=0
EXTRACT: note_on channel=9 note=35 velocity=72 time=0
EXTRACT: note_off channel=9 note=42 velocity=64 time=0.28571399999999997
EXTRACT: note_off channel=9 note=35 velocity=64 time=0
EXTRACT: note_on channel=9 note=42 velocity=72 time=0
EXTRACT: note_off channel=11 note=64 velocity=64 time=0.28571399999999997
EXTRACT: note_off channel=4 note=38 velocity=64 time=0
EXTRACT: note_off channel=2 note=60 velocity=64 time=0
EXTRACT: note_off channel=2 note=57 velocity=64 time=0
EXTRACT: note_off channel=2 note=53 velocity=64 time=0
EXTRACT: note_on channel=2 note=60 velocity=72 time=0
EXTRACT: note_on channel=2 note=57 velocity=72 time=0
EXTRACT: note_on channel=2 note=53 velocity=72 time=0
EXTRACT: note_off channel=9 note=42 velocity=64 time=0
EXTRACT: note_on channel=9 note=42 velocity=72 time=0
EXTRACT: note_on channel=9 note=38 velocity=72 time=0
EXTRACT: note_on channel=11 note=57 velocity=80 time=0.28571399999999997
EXTRACT: note_off channel=9 note=42 velocity=64 time=0
EXTRACT: note_off channel=9 note=38 velocity=64 time=0
EXTRACT: note_on channel=9 note=42 velocity=72 time=0
EXTRACT: note_off channel=11 note=57 velocity=64 time=0.14285699999999998
EXTRACT: note_on channel=11 note=57 velocity=80 time=0
EXTRACT: note_on channel=4 note=38 velocity=80 time=0
EXTRACT: note_off channel=9 note=42 velocity=64 time=0
EXTRACT: note_on channel=9 note=35 velocity=72 time=0
EXTRACT: note_off channel=11 note=57 velocity=64 time=0.14285699999999998
EXTRACT: note_off channel=4 note=38 velocity=64 time=0
EXTRACT: note_off channel=2 note=60 velocity=64 time=0
EXTRACT: note_off channel=2 note=57 velocity=64 time=0
EXTRACT: note_off channel=2 note=53 velocity=64 time=0
EXTRACT: note_off channel=9 note=35 velocity=64 time=0
EXTRACT: note_on channel=9 note=42 velocity=72 time=0
EXTRACT: note_on channel=11 note=59 velocity=80 time=0.14285699999999998
EXTRACT: note_on channel=2 note=60 velocity=72 time=0.14285699999999998
EXTRACT: note_on channel=2 note=57 velocity=72 time=0
EXTRACT: note_on channel=2 note=53 velocity=72 time=0
EXTRACT: note_off channel=9 note=42 velocity=64 time=0
EXTRACT: note_on channel=9 note=42 velocity=72 time=0
EXTRACT: note_off channel=11 note=59 velocity=64 time=0.14285699999999998
EXTRACT: note_on channel=11 note=60 velocity=80 time=0
EXTRACT: note_off channel=11 note=60 velocity=64 time=0.14285699999999998
EXTRACT: note_off channel=2 note=60 velocity=64 time=0
EXTRACT: note_off channel=2 note=57 velocity=64 time=0
EXTRACT: note_off channel=2 note=53 velocity=64 time=0
EXTRACT: note_off channel=9 note=42 velocity=64 time=0
EXTRACT: note_on channel=9 note=42 velocity=72 time=0
EXTRACT: note_on channel=9 note=38 velocity=72 time=0
EXTRACT: note_on channel=11 note=62 velocity=80 time=0.14285699999999998
EXTRACT: note_on channel=4 note=38 velocity=80 time=0
EXTRACT: note_on channel=2 note=60 velocity=72 time=0
EXTRACT: note_on channel=2 note=57 velocity=72 time=0
EXTRACT: note_on channel=2 note=53 velocity=72 time=0
EXTRACT: note_off channel=4 note=38 velocity=64 time=0.14285699999999998
EXTRACT: note_on channel=4 note=33 velocity=80 time=0
EXTRACT: note_off channel=9 note=42 velocity=64 time=0
EXTRACT: note_off channel=9 note=38 velocity=64 time=0
EXTRACT: note_on channel=9 note=42 velocity=72 time=0
EXTRACT: note_off channel=11 note=62 velocity=64 time=0.14285699999999998
EXTRACT: note_on channel=11 note=62 velocity=80 time=0
EXTRACT: note_off channel=4 note=33 velocity=64 time=0
EXTRACT: note_on channel=4 note=32 velocity=80 time=0
EXTRACT: note_off channel=11 note=62 velocity=64 time=0.14285699999999998
EXTRACT: note_on channel=11 note=64 velocity=80 time=0
EXTRACT: note_off channel=4 note=32 velocity=64 time=0
EXTRACT: note_on channel=4 note=31 velocity=80 time=0
EXTRACT: note_off channel=2 note=60 velocity=64 time=0
EXTRACT: note_off channel=2 note=57 velocity=64 time=0
EXTRACT: note_off channel=2 note=53 velocity=64 time=0
EXTRACT: note_on channel=2 note=60 velocity=72 time=0
EXTRACT: note_on channel=2 note=57 velocity=72 time=0
EXTRACT: note_on channel=2 note=53 velocity=72 time=0
EXTRACT: note_on channel=2 note=50 velocity=72 time=0
EXTRACT: note_off channel=9 note=42 velocity=64 time=0
EXTRACT: note_on channel=9 note=42 velocity=72 time=0
EXTRACT: note_on channel=9 note=35 velocity=72 time=0
EXTRACT: note_off channel=11 note=64 velocity=64 time=0.28571399999999997
EXTRACT: note_on channel=11 note=62 velocity=80 time=0
EXTRACT: note_off channel=9 note=42 velocity=64 time=0
EXTRACT: note_off channel=9 note=35 velocity=64 time=0
EXTRACT: note_on channel=9 note=42 velocity=72 time=0
EXTRACT: note_off channel=11 note=62 velocity=64 time=0.14285699999999998
EXTRACT: note_on channel=11 note=60 velocity=80 time=0
EXTRACT: note_off channel=11 note=60 velocity=64 time=0.14285699999999998
EXTRACT: note_off channel=4 note=31 velocity=64 time=0
EXTRACT: note_off channel=2 note=60 velocity=64 time=0
EXTRACT: note_off channel=2 note=57 velocity=64 time=0
EXTRACT: note_off channel=2 note=53 velocity=64 time=0
EXTRACT: note_on channel=2 note=60 velocity=72 time=0
EXTRACT: note_on channel=2 note=57 velocity=72 time=0
EXTRACT: note_on channel=2 note=53 velocity=72 time=0
EXTRACT: note_off channel=2 note=50 velocity=64 time=0
EXTRACT: note_on channel=2 note=50 velocity=72 time=0
EXTRACT: note_off channel=9 note=42 velocity=64 time=0
EXTRACT: note_on channel=9 note=42 velocity=72 time=0
EXTRACT: note_on channel=9 note=38 velocity=72 time=0
EXTRACT: note_on channel=11 note=62 velocity=80 time=0.14285699999999998
EXTRACT: note_off channel=9 note=42 velocity=64 time=0.14285699999999998
EXTRACT: note_off channel=9 note=38 velocity=64 time=0
EXTRACT: note_on channel=9 note=42 velocity=72 time=0
EXTRACT: note_off channel=11 note=62 velocity=64 time=0.14285699999999998
EXTRACT: note_on channel=11 note=62 velocity=80 time=0
EXTRACT: note_on channel=4 note=31 velocity=80 time=0
EXTRACT: note_off channel=9 note=42 velocity=64 time=0
EXTRACT: note_on channel=9 note=35 velocity=72 time=0
EXTRACT: note_off channel=11 note=62 velocity=64 time=0.14285699999999998
EXTRACT: note_on channel=11 note=64 velocity=80 time=0
EXTRACT: note_off channel=4 note=31 velocity=64 time=0
EXTRACT: note_off channel=2 note=60 velocity=64 time=0
EXTRACT: note_off channel=2 note=57 velocity=64 time=0
EXTRACT: note_off channel=2 note=53 velocity=64 time=0
EXTRACT: note_off channel=2 note=50 velocity=64 time=0
EXTRACT: note_off channel=9 note=35 velocity=64 time=0
EXTRACT: note_on channel=9 note=42 velocity=72 time=0
EXTRACT: note_off channel=9 note=42 velocity=64 time=0.14285699999999998
EXTRACT: note_on channel=9 note=38 velocity=80 time=0
EXTRACT: note_off channel=11 note=64 velocity=64 time=0.14285699999999998
EXTRACT: note_on channel=11 note=62 velocity=80 time=0
EXTRACT: note_on channel=4 note=31 velocity=80 time=0
EXTRACT: note_on channel=2 note=60 velocity=72 time=0
EXTRACT: note_on channel=2 note=57 velocity=72 time=0
EXTRACT: note_on channel=2 note=53 velocity=72 time=0
EXTRACT: note_off channel=9 note=38 velocity=64 time=0
EXTRACT: note_on channel=9 note=46 velocity=80 time=0
EXTRACT: note_on channel=9 note=35 velocity=80 time=0
EXTRACT: note_off channel=11 note=62 velocity=64 time=0.14285699999999998
EXTRACT: note_on channel=11 note=60 velocity=80 time=0
EXTRACT: note_off channel=11 note=60 velocity=64 time=0.14285699999999998
EXTRACT: note_on channel=11 note=57 velocity=80 time=0
EXTRACT: note_off channel=4 note=31 velocity=64 time=0
EXTRACT: note_off channel=2 note=60 velocity=64 time=0
EXTRACT: note_off channel=2 note=57 velocity=64 time=0
EXTRACT: note_off channel=2 note=53 velocity=64 time=0
EXTRACT: note_on channel=8 note=71 velocity=80 time=0
EXTRACT: note_off channel=9 note=46 velocity=64 time=0
EXTRACT: note_off channel=9 note=35 velocity=64 time=0
EXTRACT: note_on channel=9 note=38 velocity=80 time=0
EXTRACT: note_off channel=11 note=57 velocity=64 time=0.14285699999999998
EXTRACT: note_on channel=11 note=57 velocity=80 time=0
EXTRACT: note_on channel=4 note=31 velocity=80 time=0
EXTRACT: note_on channel=2 note=62 velocity=72 time=0
EXTRACT: note_on channel=2 note=57 velocity=72 time=0
EXTRACT: note_on channel=2 note=53 velocity=72 time=0
EXTRACT: note_off channel=9 note=38 velocity=64 time=0
EXTRACT: note_on channel=9 note=38 velocity=80 time=0
EXTRACT: note_off channel=9 note=38 velocity=64 time=0.14285699999999998
EXTRACT: note_on channel=9 note=46 velocity=80 time=0
EXTRACT: note_on channel=9 note=35 velocity=80 time=0
EXTRACT: note_off channel=11 note=57 velocity=64 time=0.14285699999999998
EXTRACT: note_on channel=11 note=66 velocity=80 time=0.14285699999999998
EXTRACT: note_on channel=6 note=69 velocity=80 time=0
EXTRACT: note_on channel=6 note=64 velocity=80 time=0
EXTRACT: note_off channel=4 note=31 velocity=64 time=0
EXTRACT: note_on channel=4 note=35 velocity=80 time=0
EXTRACT: note_off channel=2 note=62 velocity=64 time=0
EXTRACT: note_off channel=2 note=57 velocity=64 time=0
EXTRACT: note_off channel=2 note=53 velocity=64 time=0
EXTRACT: note_on channel=2 note=66 velocity=72 time=0
EXTRACT: note_on channel=2 note=62 velocity=72 time=0
EXTRACT: note_on channel=2 note=57 velocity=72 time=0
EXTRACT: note_off channel=8 note=71 velocity=64 time=0
EXTRACT: note_on channel=8 note=73 velocity=72 time=0
EXTRACT: note_on channel=9 note=82 velocity=64 time=0
EXTRACT: note_off channel=9 note=46 velocity=64 time=0
EXTRACT: note_off channel=9 note=35 velocity=64 time=0
EXTRACT: note_on channel=9 note=49 velocity=80 time=0
EXTRACT: note_on channel=9 note=57 velocity=80 time=0
EXTRACT: note_on channel=9 note=35 velocity=80 time=0
EXTRACT: note_off channel=6 note=69 velocity=64 time=0.14285699999999998
EXTRACT: note_off channel=6 note=64 velocity=64 time=0
EXTRACT: note_on channel=6 note=69 velocity=80 time=0
EXTRACT: note_on channel=6 note=64 velocity=80 time=0
EXTRACT: note_off channel=9 note=82 velocity=64 time=0
EXTRACT: note_on channel=9 note=82 velocity=64 time=0
EXTRACT: note_off channel=6 note=69 velocity=64 time=0.14285699999999998
EXTRACT: note_off channel=6 note=64 velocity=64 time=0
EXTRACT: note_on channel=6 note=69 velocity=80 time=0
EXTRACT: note_on channel=6 note=64 velocity=80 time=0
EXTRACT: note_off channel=4 note=35 velocity=64 time=0
EXTRACT: note_off channel=8 note=73 velocity=64 time=0
EXTRACT: note_on channel=8 note=71 velocity=72 time=0
EXTRACT: note_off channel=9 note=82 velocity=64 time=0
EXTRACT: note_on channel=9 note=82 velocity=64 time=0
EXTRACT: note_off channel=9 note=49 velocity=64 time=0
EXTRACT: note_off channel=9 note=57 velocity=64 time=0
EXTRACT: note_off channel=9 note=35 velocity=64 time=0
EXTRACT: note_on channel=9 note=42 velocity=80 time=0
EXTRACT: note_off channel=6 note=69 velocity=64 time=0.14285699999999998
EXTRACT: note_off channel=6 note=64 velocity=64 time=0
EXTRACT: note_on channel=6 note=69 velocity=80 time=0
EXTRACT: note_on channel=6 note=64 velocity=80 time=0
EXTRACT: note_on channel=4 note=35 velocity=80 time=0
EXTRACT: note_off channel=2 note=66 velocity=64 time=0
EXTRACT: note_off channel=2 note=62 velocity=64 time=0
EXTRACT: note_off channel=2 note=57 velocity=64 time=0
EXTRACT: note_on channel=2 note=66 velocity=72 time=0
EXTRACT: note_on channel=2 note=62 velocity=72 time=0
EXTRACT: note_on channel=2 note=57 velocity=72 time=0
EXTRACT: note_off channel=11 note=66 velocity=64 time=0.14285699999999998
EXTRACT: note_on channel=11 note=61 velocity=80 time=0
EXTRACT: note_off channel=6 note=69 velocity=64 time=0
EXTRACT: note_off channel=6 note=64 velocity=64 time=0
EXTRACT: note_on channel=6 note=69 velocity=80 time=0
EXTRACT: note_on channel=6 note=64 velocity=80 time=0
EXTRACT: note_off channel=4 note=35 velocity=64 time=0
EXTRACT: note_off channel=2 note=66 velocity=64 time=0
EXTRACT: note_off channel=2 note=62 velocity=64 time=0
EXTRACT: note_off channel=2 note=57 velocity=64 time=0
EXTRACT: note_off channel=8 note=71 velocity=64 time=0
EXTRACT: note_on channel=8 note=73 velocity=72 time=0
EXTRACT: note_off channel=9 note=82 velocity=64 time=0
EXTRACT: note_off channel=9 note=42 velocity=64 time=0
EXTRACT: note_on channel=9 note=42 velocity=80 time=0
EXTRACT: note_on channel=9 note=57 velocity=80 time=0
EXTRACT: note_on channel=9 note=38 velocity=80 time=0
EXTRACT: note_off channel=6 note=69 velocity=64 time=0.14285699999999998
EXTRACT: note_off channel=6 note=64 velocity=64 time=0
EXTRACT: note_on channel=6 note=69 velocity=80 time=0
EXTRACT: note_on channel=6 note=64 velocity=80 time=0
EXTRACT: note_off channel=6 note=69 velocity=64 time=0.14285699999999998
EXTRACT: note_off channel=6 note=64 velocity=64 time=0
EXTRACT: note_on channel=6 note=69 velocity=80 time=0
EXTRACT: note_on channel=6 note=64 velocity=80 time=0
EXTRACT: note_on channel=4 note=30 velocity=80 time=0
EXTRACT: note_on channel=2 note=69 velocity=72 time=0
EXTRACT: note_on channel=2 note=64 velocity=72 time=0
EXTRACT: note_on channel=2 note=61 velocity=72 time=0
EXTRACT: note_on channel=2 note=57 velocity=72 time=0
EXTRACT: note_off channel=8 note=73 velocity=64 time=0
EXTRACT: note_on channel=8 note=71 velocity=72 time=0
EXTRACT: note_off channel=9 note=42 velocity=64 time=0
EXTRACT: note_off channel=9 note=57 velocity=64 time=0
EXTRACT: note_off channel=9 note=38 velocity=64 time=0
EXTRACT: note_on channel=9 note=42 velocity=80 time=0
EXTRACT: note_on channel=9 note=35 velocity=80 time=0
EXTRACT: note_off channel=6 note=69 velocity=64 time=0.14285699999999998
EXTRACT: note_off channel=6 note=64 velocity=64 time=0
EXTRACT: note_on channel=6 note=69 velocity=80 time=0
EXTRACT: note_on channel=6 note=64 velocity=80 time=0
EXTRACT: note_off channel=8 note=71 velocity=64 time=0
EXTRACT: note_on channel=8 note=73 velocity=72 time=0
EXTRACT: note_off channel=6 note=69 velocity=64 time=0.14285699999999998
EXTRACT: note_off channel=6 note=64 velocity=64 time=0
EXTRACT: note_on channel=6 note=69 velocity=80 time=0
EXTRACT: note_on channel=6 note=64 velocity=80 time=0
EXTRACT: note_off channel=4 note=30 velocity=64 time=0
EXTRACT: note_off channel=2 note=69 velocity=64 time=0
EXTRACT: note_off channel=2 note=64 velocity=64 time=0
EXTRACT: note_off channel=2 note=61 velocity=64 time=0
EXTRACT: note_off channel=2 note=57 velocity=64 time=0
EXTRACT: note_off channel=8 note=73 velocity=64 time=0
EXTRACT: note_on channel=9 note=82 velocity=64 time=0
EXTRACT: note_off channel=9 note=42 velocity=64 time=0
EXTRACT: note_off channel=9 note=35 velocity=64 time=0
EXTRACT: note_on channel=9 note=42 velocity=80 time=0
EXTRACT: note_on channel=9 note=57 velocity=80 time=0
EXTRACT: note_on channel=8 note=71 velocity=72 time=0.14285699999999998
EXTRACT: note_off channel=9 note=82 velocity=64 time=0
EXTRACT: note_on channel=9 note=82 velocity=64 time=0
EXTRACT: note_off channel=6 note=69 velocity=64 time=0.14285699999999998
EXTRACT: note_off channel=6 note=64 velocity=64 time=0
EXTRACT: note_on channel=6 note=69 velocity=80 time=0
EXTRACT: note_on channel=6 note=64 velocity=80 time=0
EXTRACT: note_off channel=8 note=71 velocity=64 time=0
EXTRACT: note_on channel=8 note=73 velocity=72 time=0
EXTRACT: note_off channel=9 note=82 velocity=64 time=0
EXTRACT: note_on channel=9 note=82 velocity=64 time=0
EXTRACT: note_off channel=9 note=42 velocity=64 time=0
EXTRACT: note_off channel=9 note=57 velocity=64 time=0
EXTRACT: note_on channel=9 note=42 velocity=80 time=0
EXTRACT: note_on channel=4 note=37 velocity=80 time=0.14285699999999998
EXTRACT: note_off channel=11 note=61 velocity=64 time=0.14285699999999998
EXTRACT: note_off channel=6 note=69 velocity=64 time=0
EXTRACT: note_off channel=6 note=64 velocity=64 time=0
EXTRACT: note_on channel=6 note=69 velocity=80 time=0
EXTRACT: note_on channel=6 note=64 velocity=80 time=0
EXTRACT: note_off channel=4 note=37 velocity=64 time=0
EXTRACT: note_on channel=4 note=40 velocity=80 time=0
EXTRACT: note_on channel=2 note=69 velocity=72 time=0
EXTRACT: note_on channel=2 note=64 velocity=72 time=0
EXTRACT: note_on channel=2 note=61 velocity=72 time=0
EXTRACT: note_on channel=2 note=57 velocity=72 time=0
EXTRACT: note_off channel=8 note=73 velocity=64 time=0
EXTRACT: note_on channel=8 note=71 velocity=72 time=0
EXTRACT: note_off channel=9 note=82 velocity=64 time=0
EXTRACT: note_off channel=9 note=42 velocity=64 time=0
EXTRACT: note_on channel=9 note=42 velocity=80 time=0
EXTRACT: note_on channel=9 note=57 velocity=80 time=0
EXTRACT: note_on channel=9 note=38 velocity=80 time=0
EXTRACT: note_off channel=6 note=69 velocity=64 time=0.14285699999999998
EXTRACT: note_off channel=6 note=64 velocity=64 time=0
EXTRACT: note_on channel=6 note=69 velocity=80 time=0
EXTRACT: note_on channel=6 note=64 velocity=80 time=0
EXTRACT: note_off channel=4 note=40 velocity=64 time=0
EXTRACT: note_on channel=4 note=42 velocity=80 time=0
EXTRACT: note_off channel=8 note=71 velocity=64 time=0
EXTRACT: note_on channel=8 note=73 velocity=72 time=0
EXTRACT: note_off channel=6 note=69 velocity=64 time=0.14285699999999998
EXTRACT: note_off channel=6 note=64 velocity=64 time=0
EXTRACT: note_on channel=6 note=69 velocity=80 time=0
EXTRACT: note_on channel=6 note=64 velocity=80 time=0
EXTRACT: note_off channel=4 note=42 velocity=64 time=0
EXTRACT: note_off channel=9 note=42 velocity=64 time=0
EXTRACT: note_off channel=9 note=57 velocity=64 time=0
EXTRACT: note_off channel=9 note=38 velocity=64 time=0
EXTRACT: note_on channel=9 note=42 velocity=80 time=0
EXTRACT: note_on channel=11 note=59 velocity=80 time=0.14285699999999998
EXTRACT: note_off channel=6 note=69 velocity=64 time=0
EXTRACT: note_off channel=6 note=64 velocity=64 time=0
EXTRACT: note_on channel=6 note=69 velocity=80 time=0
EXTRACT: note_on channel=6 note=64 velocity=80 time=0
EXTRACT: note_off channel=8 note=73 velocity=64 time=0
EXTRACT: note_on channel=8 note=71 velocity=72 time=0
EXTRACT: note_off channel=11 note=59 velocity=64 time=0.14285699999999998
EXTRACT: note_on channel=11 note=61 velocity=80 time=0
EXTRACT: note_off channel=6 note=69 velocity=64 time=0
EXTRACT: note_off channel=6 note=64 velocity=64 time=0
EXTRACT: note_on channel=6 note=69 velocity=80 time=0
EXTRACT: note_on channel=6 note=64 velocity=80 time=0
EXTRACT: note_on channel=4 note=35 velocity=80 time=0
EXTRACT: note_off channel=2 note=69 velocity=64 time=0
EXTRACT: note_off channel=2 note=64 velocity=64 time=0
EXTRACT: note_off channel=2 note=61 velocity=64 time=0
EXTRACT: note_off channel=2 note=57 velocity=64 time=0
EXTRACT: note_on channel=2 note=66 velocity=72 time=0
EXTRACT: note_on channel=2 note=62 velocity=72 time=0
EXTRACT: note_on channel=2 note=57 velocity=72 time=0
EXTRACT: note_off channel=8 note=71 velocity=64 time=0
EXTRACT: note_on channel=8 note=73 velocity=72 time=0
EXTRACT: note_on channel=9 note=82 velocity=64 time=0
EXTRACT: note_off channel=9 note=42 velocity=64 time=0
EXTRACT: note_on channel=9 note=42 velocity=80 time=0
EXTRACT: note_on channel=9 note=57 velocity=80 time=0
EXTRACT: note_on channel=9 note=35 velocity=80 time=0
EXTRACT: note_off channel=11 note=61 velocity=64 time=0.14285699999999998
EXTRACT: note_on channel=11 note=61 velocity=80 time=0
EXTRACT: note_off channel=6 note=69 velocity=64 time=0
EXTRACT: note_off channel=6 note=64 velocity=64 time=0
EXTRACT: note_on channel=6 note=69 velocity=80 time=0
EXTRACT: note_on channel=6 note=64 velocity=80 time=0
EXTRACT: note_off channel=9 note=82 velocity=64 time=0
EXTRACT: note_on channel=9 note=82 velocity=64 time=0
EXTRACT: note_off channel=11 note=61 velocity=64 time=0.14285699999999998
EXTRACT: note_on channel=11 note=61 velocity=80 time=0
EXTRACT: note_off channel=6 note=69 velocity=64 time=0
EXTRACT: note_off channel=6 note=64 velocity=64 time=0
EXTRACT: note_on channel=6 note=69 velocity=80 time=0
EXTRACT: note_on channel=6 note=64 velocity=80 time=0
EXTRACT: note_off channel=4 note=35 velocity=64 time=0
EXTRACT: note_off channel=8 note=73 velocity=64 time=0
EXTRACT: note_on channel=8 note=71 velocity=72 time=0
EXTRACT: note_off channel=9 note=82 velocity=64 time=0
EXTRACT: note_on channel=9 note=82 velocity=64 time=0
EXTRACT: note_off channel=9 note=42 velocity=64 time=0
EXTRACT: note_off channel=9 note=57 velocity=64 time=0
EXTRACT: note_off channel=9 note=35 velocity=64 time=0
EXTRACT: note_on channel=9 note=42 velocity=80 time=0
EXTRACT: note_off channel=6 note=69 velocity=64 time=0.14285699999999998
EXTRACT: note_off channel=6 note=64 velocity=64 time=0
EXTRACT: note_on channel=6 note=69 velocity=80 time=0
EXTRACT: note_on channel=6 note=64 velocity=80 time=0
EXTRACT: note_on channel=4 note=35 velocity=80 time=0
EXTRACT: note_off channel=2 note=66 velocity=64 time=0
EXTRACT: note_off channel=2 note=62 velocity=64 time=0
EXTRACT: note_off channel=2 note=57 velocity=64 time=0
EXTRACT: note_on channel=2 note=66 velocity=72 time=0
EXTRACT: note_on channel=2 note=62 velocity=72 time=0
EXTRACT: note_on channel=2 note=57 velocity=72 time=0
EXTRACT: note_off channel=11 note=61 velocity=64 time=0.14285699999999998
EXTRACT: note_on channel=11 note=61 velocity=80 time=0
EXTRACT: note_off channel=6 note=69 velocity=64 time=0
EXTRACT: note_off channel=6 note=64 velocity=64 time=0
EXTRACT: note_on channel=6 note=69 velocity=80 time=0
EXTRACT: note_on channel=6 note=64 velocity=80 time=0
EXTRACT: note_off channel=4 note=35 velocity=64 time=0
EXTRACT: note_off channel=2 note=66 velocity=64 time=0
EXTRACT: note_off channel=2 note=62 velocity=64 time=0
EXTRACT: note_off channel=2 note=57 velocity=64 time=0
EXTRACT: note_off channel=8 note=71 velocity=64 time=0
EXTRACT: note_on channel=8 note=74 velocity=80 time=0
EXTRACT: note_off channel=9 note=82 velocity=64 time=0
EXTRACT: note_off channel=9 note=42 velocity=64 time=0
EXTRACT: note_on channel=9 note=42 velocity=80 time=0
EXTRACT: note_on channel=9 note=57 velocity=80 time=0
EXTRACT: note_on channel=9 note=38 velocity=80 time=0
EXTRACT: note_off channel=6 note=69 velocity=64 time=0.14285699999999998
EXTRACT: note_off channel=6 note=64 velocity=64 time=0
EXTRACT: note_on channel=6 note=69 velocity=80 time=0
EXTRACT: note_on channel=6 note=64 velocity=80 time=0
EXTRACT: note_off channel=11 note=61 velocity=64 time=0.14285699999999998
EXTRACT: note_on channel=11 note=59 velocity=80 time=0
EXTRACT: note_off channel=6 note=69 velocity=64 time=0
EXTRACT: note_off channel=6 note=64 velocity=64 time=0
EXTRACT: note_on channel=6 note=69 velocity=80 time=0
EXTRACT: note_on channel=6 note=64 velocity=80 time=0
EXTRACT: note_on channel=4 note=30 velocity=80 time=0
EXTRACT: note_on channel=2 note=69 velocity=72 time=0
EXTRACT: note_on channel=2 note=64 velocity=72 time=0
EXTRACT: note_on channel=2 note=61 velocity=72 time=0
EXTRACT: note_on channel=2 note=57 velocity=72 time=0
EXTRACT: note_off channel=8 note=74 velocity=64 time=0
EXTRACT: note_on channel=8 note=73 velocity=80 time=0
EXTRACT: note_off channel=9 note=42 velocity=64 time=0
EXTRACT: note_off channel=9 note=57 velocity=64 time=0
EXTRACT: note_off channel=9 note=38 velocity=64 time=0
EXTRACT: note_on channel=9 note=42 velocity=80 time=0
EXTRACT: note_on channel=9 note=35 velocity=80 time=0
EXTRACT: note_off channel=11 note=59 velocity=64 time=0.14285699999999998
EXTRACT: note_on channel=11 note=61 velocity=80 time=0
EXTRACT: note_off channel=6 note=69 velocity=64 time=0
EXTRACT: note_off channel=6 note=64 velocity=64 time=0
EXTRACT: note_on channel=6 note=69 velocity=80 time=0
EXTRACT: note_on channel=6 note=64 velocity=80 time=0
EXTRACT: note_off channel=11 note=61 velocity=64 time=0.14285699999999998
EXTRACT: note_off channel=6 note=69 velocity=64 time=0
EXTRACT: note_off channel=6 note=64 velocity=64 time=0
EXTRACT: note_on channel=6 note=69 velocity=80 time=0
EXTRACT: note_on channel=6 note=64 velocity=80 time=0
EXTRACT: note_off channel=4 note=30 velocity=64 time=0
EXTRACT: note_off channel=2 note=69 velocity=64 time=0
EXTRACT: note_off channel=2 note=64 velocity=64 time=0
EXTRACT: note_off channel=2 note=61 velocity=64 time=0
EXTRACT: note_off channel=2 note=57 velocity=64 time=0
EXTRACT: note_off channel=8 note=73 velocity=64 time=0
EXTRACT: note_on channel=9 note=82 velocity=64 time=0
EXTRACT: note_off channel=9 note=42 velocity=64 time=0
EXTRACT: note_off channel=9 note=35 velocity=64 time=0
EXTRACT: note_on channel=9 note=42 velocity=80 time=0
EXTRACT: note_on channel=9 note=57 velocity=80 time=0
EXTRACT: note_off channel=9 note=82 velocity=64 time=0.14285699999999998
EXTRACT: note_on channel=9 note=82 velocity=64 time=0
EXTRACT: note_off channel=6 note=69 velocity=64 time=0.14285699999999998
EXTRACT: note_off channel=6 note=64 velocity=64 time=0
EXTRACT: note_on channel=6 note=69 velocity=80 time=0
EXTRACT: note_on channel=6 note=64 velocity=80 time=0
EXTRACT: note_on channel=8 note=71 velocity=80 time=0
EXTRACT: note_off channel=9 note=82 velocity=64 time=0
EXTRACT: note_on channel=9 note=82 velocity=64 time=0
EXTRACT: note_off channel=9 note=42 velocity=64 time=0
EXTRACT: note_off channel=9 note=57 velocity=64 time=0
EXTRACT: note_on channel=9 note=42 velocity=80 time=0
EXTRACT: note_off channel=6 note=69 velocity=64 time=0.28571399999999997
EXTRACT: note_off channel=6 note=64 velocity=64 time=0
EXTRACT: note_on channel=6 note=69 velocity=80 time=0
EXTRACT: note_on channel=6 note=64 velocity=80 time=0
EXTRACT: note_on channel=2 note=69 velocity=72 time=0
EXTRACT: note_on channel=2 note=64 velocity=72 time=0
EXTRACT: note_on channel=2 note=61 velocity=72 time=0
EXTRACT: note_on channel=2 note=57 velocity=72 time=0
EXTRACT: note_off channel=8 note=71 velocity=64 time=0
EXTRACT: note_on channel=8 note=73 velocity=80 time=0
EXTRACT: note_off channel=9 note=82 velocity=64 time=0
EXTRACT: note_off channel=9 note=42 velocity=64 time=0
EXTRACT: note_on channel=9 note=42 velocity=80 time=0
EXTRACT: note_on channel=9 note=57 velocity=80 time=0
EXTRACT: note_on channel=9 note=38 velocity=80 time=0
EXTRACT: note_off channel=6 note=69 velocity=64 time=0.14285699999999998
EXTRACT: note_off channel=6 note=64 velocity=64 time=0
EXTRACT: note_on channel=6 note=69 velocity=80 time=0
EXTRACT: note_on channel=6 note=64 velocity=80 time=0
EXTRACT: note_on channel=4 note=42 velocity=80 time=0
EXTRACT: note_off channel=6 note=69 velocity=64 time=0.14285699999999998
EXTRACT: note_off channel=6 note=64 velocity=64 time=0
EXTRACT: note_on channel=6 note=69 velocity=80 time=0
EXTRACT: note_on channel=6 note=64 velocity=80 time=0
EXTRACT: note_off channel=4 note=42 velocity=64 time=0
EXTRACT: note_on channel=4 note=37 velocity=80 time=0
EXTRACT: note_off channel=8 note=73 velocity=64 time=0
EXTRACT: note_on channel=8 note=71 velocity=80 time=0
EXTRACT: note_off channel=9 note=42 velocity=64 time=0
EXTRACT: note_off channel=9 note=57 velocity=64 time=0
EXTRACT: note_off channel=9 note=38 velocity=64 time=0
EXTRACT: note_on channel=9 note=42 velocity=80 time=0
EXTRACT: note_off channel=6 note=69 velocity=64 time=0.14285699999999998
EXTRACT: note_off channel=6 note=64 velocity=64 time=0
EXTRACT: note_on channel=6 note=69 velocity=80 time=0
EXTRACT: note_on channel=6 note=64 velocity=80 time=0
EXTRACT: note_off channel=4 note=37 velocity=64 time=0
EXTRACT: note_on channel=4 note=30 velocity=80 time=0
EXTRACT: note_on channel=11 note=64 velocity=80 time=0.14285699999999998
EXTRACT: note_off channel=6 note=69 velocity=64 time=0
EXTRACT: note_off channel=6 note=64 velocity=64 time=0
EXTRACT: note_on channel=6 note=67 velocity=80 time=0
EXTRACT: note_on channel=6 note=62 velocity=80 time=0
EXTRACT: note_off channel=4 note=30 velocity=64 time=0
EXTRACT: note_on channel=4 note=29 velocity=80 time=0
EXTRACT: note_off channel=2 note=69 velocity=64 time=0
EXTRACT: note_off channel=2 note=64 velocity=64 time=0
EXTRACT: note_off channel=2 note=61 velocity=64 time=0
EXTRACT: note_off channel=2 note=57 velocity=64 time=0
EXTRACT: note_on channel=2 note=64 velocity=72 time=0
EXTRACT: note_on channel=2 note=60 velocity=72 time=0
EXTRACT: note_on channel=2 note=57 velocity=72 time=0
EXTRACT: note_on channel=2 note=55 velocity=72 time=0
EXTRACT: note_off channel=8 note=71 velocity=64 time=0
EXTRACT: note_on channel=8 note=69 velocity=80 time=0
EXTRACT: note_on channel=9 note=82 velocity=64 time=0
EXTRACT: note_off channel=9 note=42 velocity=64 time=0
EXTRACT: note_on channel=9 note=42 velocity=80 time=0
EXTRACT: note_on channel=9 note=57 velocity=80 time=0
EXTRACT: note_on channel=9 note=35 velocity=80 time=0
EXTRACT: note_off channel=11 note=64 velocity=64 time=0.14285699999999998
EXTRACT: note_on channel=11 note=62 velocity=80 time=0
EXTRACT: note_off channel=6 note=67 velocity=64 time=0
EXTRACT: note_off channel=6 note=62 velocity=64 time=0
EXTRACT: note_on channel=6 note=67 velocity=80 time=0
EXTRACT: note_on channel=6 note=62 velocity=80 time=0
EXTRACT: note_off channel=9 note=82 velocity=64 time=0
EXTRACT: note_on channel=9 note=82 velocity=64 time=0
EXTRACT: note_off channel=6 note=67 velocity=64 time=0.14285699999999998
EXTRACT: note_off channel=6 note=62 velocity=64 time=0
EXTRACT: note_on channel=6 note=67 velocity=80 time=0
EXTRACT: note_on channel=6 note=62 velocity=80 time=0
EXTRACT: note_off channel=9 note=82 velocity=64 time=0
EXTRACT: note_on channel=9 note=82 velocity=64 time=0
EXTRACT: note_off channel=9 note=42 velocity=64 time=0
EXTRACT: note_off channel=9 note=57 velocity=64 time=0
EXTRACT: note_off channel=9 note=35 velocity=64 time=0
EXTRACT: note_on channel=9 note=42 velocity=80 time=0
EXTRACT: note_off channel=11 note=62 velocity=64 time=0.14285699999999998
EXTRACT: note_on channel=11 note=64 velocity=80 time=0
EXTRACT: note_off channel=6 note=67 velocity=64 time=0
EXTRACT: note_off channel=6 note=62 velocity=64 time=0
EXTRACT: note_on channel=6 note=67 velocity=80 time=0
EXTRACT: note_on channel=6 note=62 velocity=80 time=0
EXTRACT: note_off channel=4 note=29 velocity=64 time=0
EXTRACT: note_on channel=4 note=29 velocity=80 time=0
EXTRACT: note_off channel=2 note=64 velocity=64 time=0
EXTRACT: note_off channel=2 note=60 velocity=64 time=0
EXTRACT: note_off channel=2 note=57 velocity=64 time=0
EXTRACT: note_off channel=2 note=55 velocity=64 time=0
EXTRACT: note_on channel=2 note=64 velocity=72 time=0
EXTRACT: note_on channel=2 note=60 velocity=72 time=0
EXTRACT: note_on channel=2 note=57 velocity=72 time=0
EXTRACT: note_on channel=2 note=55 velocity=72 time=0
EXTRACT: note_off channel=11 note=64 velocity=64 time=0.14285699999999998
EXTRACT: note_off channel=6 note=67 velocity=64 time=0
EXTRACT: note_off channel=6 note=62 velocity=64 time=0
EXTRACT: note_on channel=6 note=67 velocity=80 time=0
EXTRACT: note_on channel=6 note=62 velocity=80 time=0
EXTRACT: note_off channel=4 note=29 velocity=64 time=0
EXTRACT: note_off channel=2 note=64 velocity=64 time=0
EXTRACT: note_off channel=2 note=60 velocity=64 time=0
EXTRACT: note_off channel=2 note=57 velocity=64 time=0
EXTRACT: note_off channel=2 note=55 velocity=64 time=0
EXTRACT: note_off channel=9 note=82 velocity=64 time=0
EXTRACT: note_off channel=9 note=42 velocity=64 time=0
EXTRACT: note_on channel=9 note=42 velocity=80 time=0
EXTRACT: note_on channel=9 note=57 velocity=80 time=0
EXTRACT: note_on channel=9 note=38 velocity=80 time=0
EXTRACT: note_off channel=6 note=67 velocity=64 time=0.14285699999999998
EXTRACT: note_off channel=6 note=62 velocity=64 time=0
EXTRACT: note_on channel=6 note=67 velocity=80 time=0
EXTRACT: note_on channel=6 note=62 velocity=80 time=0
EXTRACT: note_on channel=4 note=29 velocity=80 time=0
EXTRACT: note_on channel=11 note=62 velocity=80 time=0.14285699999999998
EXTRACT: note_off channel=6 note=67 velocity=64 time=0
EXTRACT: note_off channel=6 note=62 velocity=64 time=0
EXTRACT: note_on channel=6 note=67 velocity=80 time=0
EXTRACT: note_on channel=6 note=62 velocity=80 time=0
EXTRACT: note_off channel=4 note=29 velocity=64 time=0
EXTRACT: note_on channel=4 note=31 velocity=80 time=0
EXTRACT: note_on channel=2 note=66 velocity=72 time=0
EXTRACT: note_on channel=2 note=62 velocity=72 time=0
EXTRACT: note_on channel=2 note=59 velocity=72 time=0
EXTRACT: note_on channel=2 note=57 velocity=72 time=0
EXTRACT: note_off channel=8 note=69 velocity=64 time=0
EXTRACT: note_on channel=8 note=76 velocity=80 time=0
EXTRACT: note_off channel=9 note=42 velocity=64 time=0
EXTRACT: note_off channel=9 note=57 velocity=64 time=0
EXTRACT: note_off channel=9 note=38 velocity=64 time=0
EXTRACT: note_on channel=9 note=42 velocity=80 time=0
EXTRACT: note_on channel=9 note=35 velocity=80 time=0
EXTRACT: note_off channel=6 note=67 velocity=64 time=0.14285699999999998
EXTRACT: note_off channel=6 note=62 velocity=64 time=0
EXTRACT: note_on channel=6 note=67 velocity=80 time=0
EXTRACT: note_on channel=6 note=62 velocity=80 time=0
EXTRACT: note_off channel=11 note=62 velocity=64 time=0.14285699999999998
EXTRACT: note_on channel=11 note=64 velocity=80 time=0
EXTRACT: note_off channel=6 note=67 velocity=64 time=0
EXTRACT: note_off channel=6 note=62 velocity=64 time=0
EXTRACT: note_on channel=6 note=67 velocity=80 time=0
EXTRACT: note_on channel=6 note=62 velocity=80 time=0
EXTRACT: note_off channel=4 note=31 velocity=64 time=0
EXTRACT: note_off channel=2 note=66 velocity=64 time=0
EXTRACT: note_off channel=2 note=62 velocity=64 time=0
EXTRACT: note_off channel=2 note=59 velocity=64 time=0
EXTRACT: note_off channel=2 note=57 velocity=64 time=0
EXTRACT: note_off channel=8 note=76 velocity=64 time=0
EXTRACT: note_on channel=9 note=82 velocity=64 time=0
EXTRACT: note_off channel=9 note=42 velocity=64 time=0
EXTRACT: note_off channel=9 note=35 velocity=64 time=0
EXTRACT: note_on channel=9 note=42 velocity=80 time=0
EXTRACT: note_on channel=9 note=57 velocity=80 time=0
EXTRACT: note_off channel=11 note=64 velocity=64 time=0.14285699999999998
EXTRACT: note_on channel=11 note=62 velocity=80 time=0
EXTRACT: note_off channel=6 note=67 velocity=64 time=0
EXTRACT: note_off channel=6 note=62 velocity=64 time=0
EXTRACT: note_on channel=6 note=67 velocity=80 time=0
EXTRACT: note_on channel=6 note=62 velocity=80 time=0
EXTRACT: note_off channel=9 note=82 velocity=64 time=0
EXTRACT: note_on channel=9 note=82 velocity=64 time=0
EXTRACT: note_off channel=6 note=67 velocity=64 time=0.14285699999999998
EXTRACT: note_off channel=6 note=62 velocity=64 time=0
EXTRACT: note_on channel=6 note=67 velocity=80 time=0
EXTRACT: note_on channel=6 note=62 velocity=80 time=0
EXTRACT: note_off channel=9 note=82 velocity=64 time=0
EXTRACT: note_on channel=9 note=82 velocity=64 time=0
EXTRACT: note_off channel=9 note=42 velocity=64 time=0
EXTRACT: note_off channel=9 note=57 velocity=64 time=0
EXTRACT: note_on channel=9 note=42 velocity=80 time=0
EXTRACT: note_off channel=11 note=62 velocity=64 time=0.14285699999999998
EXTRACT: note_on channel=11 note=66 velocity=80 time=0
EXTRACT: note_off channel=6 note=67 velocity=64 time=0
EXTRACT: note_off channel=6 note=62 velocity=64 time=0
EXTRACT: note_on channel=6 note=67 velocity=80 time=0
EXTRACT: note_on channel=6 note=62 velocity=80 time=0
EXTRACT: note_off channel=11 note=66 velocity=64 time=0.14285699999999998
EXTRACT: note_on channel=11 note=64 velocity=80 time=0
EXTRACT: note_off channel=6 note=67 velocity=64 time=0
EXTRACT: note_off channel=6 note=62 velocity=64 time=0
EXTRACT: note_on channel=6 note=67 velocity=80 time=0
EXTRACT: note_on channel=6 note=62 velocity=80 time=0
EXTRACT: note_on channel=2 note=66 velocity=72 time=0
EXTRACT: note_on channel=2 note=62 velocity=72 time=0
EXTRACT: note_on channel=2 note=59 velocity=72 time=0
EXTRACT: note_on channel=2 note=57 velocity=72 time=0
EXTRACT: note_off channel=9 note=82 velocity=64 time=0
EXTRACT: note_off channel=9 note=42 velocity=64 time=0
EXTRACT: note_on channel=9 note=42 velocity=80 time=0
EXTRACT: note_on channel=9 note=57 velocity=80 time=0
EXTRACT: note_on channel=9 note=38 velocity=80 time=0
EXTRACT: note_off channel=11 note=64 velocity=64 time=0.14285699999999998
EXTRACT: note_on channel=11 note=66 velocity=80 time=0
EXTRACT: note_off channel=6 note=67 velocity=64 time=0
EXTRACT: note_off channel=6 note=62 velocity=64 time=0
EXTRACT: note_on channel=6 note=67 velocity=80 time=0
EXTRACT: note_on channel=6 note=62 velocity=80 time=0
EXTRACT: note_off channel=11 note=66 velocity=64 time=0.14285699999999998
EXTRACT: note_off channel=6 note=67 velocity=64 time=0
EXTRACT: note_off channel=6 note=62 velocity=64 time=0
EXTRACT: note_on channel=6 note=67 velocity=80 time=0
EXTRACT: note_on channel=6 note=62 velocity=80 time=0
EXTRACT: note_on channel=4 note=31 velocity=80 time=0
EXTRACT: note_off channel=9 note=42 velocity=64 time=0
EXTRACT: note_off channel=9 note=57 velocity=64 time=0
EXTRACT: note_off channel=9 note=38 velocity=64 time=0
EXTRACT: note_on channel=9 note=42 velocity=80 time=0
EXTRACT: note_off channel=6 note=67 velocity=64 time=0.14285699999999998
EXTRACT: note_off channel=6 note=62 velocity=64 time=0
EXTRACT: note_on channel=6 note=67 velocity=80 time=0
EXTRACT: note_on channel=6 note=62 velocity=80 time=0
EXTRACT: note_off channel=4 note=31 velocity=64 time=0
EXTRACT: note_on channel=4 note=32 velocity=80 time=0
EXTRACT: note_on channel=11 note=60 velocity=80 time=0.14285699999999998
EXTRACT: note_off channel=6 note=67 velocity=64 time=0
EXTRACT: note_off channel=6 note=62 velocity=64 time=0
EXTRACT: note_on channel=6 note=67 velocity=80 time=0
EXTRACT: note_on channel=6 note=62 velocity=80 time=0
EXTRACT: note_off channel=4 note=32 velocity=64 time=0
EXTRACT: note_on channel=4 note=33 velocity=80 time=0
EXTRACT: note_off channel=2 note=66 velocity=64 time=0
EXTRACT: note_off channel=2 note=62 velocity=64 time=0
EXTRACT: note_off channel=2 note=59 velocity=64 time=0
EXTRACT: note_off channel=2 note=57 velocity=64 time=0
EXTRACT: note_on channel=2 note=68 velocity=72 time=0
EXTRACT: note_on channel=2 note=64 velocity=72 time=0
EXTRACT: note_on channel=2 note=61 velocity=72 time=0
EXTRACT: note_on channel=2 note=59 velocity=72 time=0
EXTRACT: note_on channel=8 note=83 velocity=80 time=0
EXTRACT: note_on channel=9 note=82 velocity=64 time=0
EXTRACT: note_off channel=9 note=42 velocity=64 time=0
EXTRACT: note_on channel=9 note=42 velocity=80 time=0
EXTRACT: note_on channel=9 note=57 velocity=80 time=0
EXTRACT: note_on channel=9 note=35 velocity=80 time=0
EXTRACT: note_off channel=11 note=60 velocity=64 time=0.14285699999999998
EXTRACT: note_on channel=11 note=60 velocity=80 time=0
EXTRACT: note_off channel=6 note=67 velocity=64 time=0
EXTRACT: note_off channel=6 note=62 velocity=64 time=0
EXTRACT: note_on channel=6 note=67 velocity=80 time=0
EXTRACT: note_on channel=6 note=62 velocity=80 time=0
EXTRACT: note_off channel=9 note=82 velocity=64 time=0
EXTRACT: note_on channel=9 note=82 velocity=64 time=0
EXTRACT: note_off channel=11 note=60 velocity=64 time=0.14285699999999998
EXTRACT: note_on channel=11 note=60 velocity=80 time=0
EXTRACT: note_off channel=6 note=67 velocity=64 time=0
EXTRACT: note_off channel=6 note=62 velocity=64 time=0
EXTRACT: note_on channel=6 note=67 velocity=80 time=0
EXTRACT: note_on channel=6 note=62 velocity=80 time=0
EXTRACT: note_off channel=9 note=82 velocity=64 time=0
EXTRACT: note_on channel=9 note=82 velocity=64 time=0
EXTRACT: note_off channel=9 note=42 velocity=64 time=0
EXTRACT: note_off channel=9 note=57 velocity=64 time=0
EXTRACT: note_off channel=9 note=35 velocity=64 time=0
EXTRACT: note_on channel=9 note=42 velocity=80 time=0
EXTRACT: note_off channel=4 note=33 velocity=64 time=0.07142849999999999
EXTRACT: note_on channel=4 note=38 velocity=72 time=0
EXTRACT: note_off channel=11 note=60 velocity=64 time=0.07142849999999999
EXTRACT: note_on channel=11 note=57 velocity=80 time=0
EXTRACT: note_off channel=6 note=67 velocity=64 time=0
EXTRACT: note_off channel=6 note=62 velocity=64 time=0
EXTRACT: note_on channel=6 note=67 velocity=80 time=0
EXTRACT: note_on channel=6 note=62 velocity=80 time=0
EXTRACT: note_off channel=4 note=38 velocity=64 time=0
EXTRACT: note_on channel=4 note=40 velocity=80 time=0
EXTRACT: note_off channel=2 note=68 velocity=64 time=0
EXTRACT: note_off channel=2 note=64 velocity=64 time=0
EXTRACT: note_off channel=2 note=61 velocity=64 time=0
EXTRACT: note_off channel=2 note=59 velocity=64 time=0
EXTRACT: note_on channel=2 note=68 velocity=72 time=0
EXTRACT: note_on channel=2 note=64 velocity=72 time=0
EXTRACT: note_on channel=2 note=61 velocity=72 time=0
EXTRACT: note_on channel=2 note=59 velocity=72 time=0
EXTRACT: note_off channel=11 note=57 velocity=64 time=0.14285699999999998
EXTRACT: note_on channel=11 note=60 velocity=80 time=0
EXTRACT: note_off channel=6 note=67 velocity=64 time=0
EXTRACT: note_off channel=6 note=62 velocity=64 time=0
EXTRACT: note_on channel=6 note=67 velocity=80 time=0
EXTRACT: note_on channel=6 note=62 velocity=80 time=0
EXTRACT: note_off channel=4 note=40 velocity=64 time=0
EXTRACT: note_off channel=2 note=68 velocity=64 time=0
EXTRACT: note_off channel=2 note=64 velocity=64 time=0
EXTRACT: note_off channel=2 note=61 velocity=64 time=0
EXTRACT: note_off channel=2 note=59 velocity=64 time=0
EXTRACT: note_off channel=9 note=82 velocity=64 time=0
EXTRACT: note_off channel=9 note=42 velocity=64 time=0
EXTRACT: note_on channel=9 note=42 velocity=80 time=0
EXTRACT: note_on channel=9 note=57 velocity=80 time=0
EXTRACT: note_on channel=9 note=38 velocity=80 time=0
EXTRACT: note_off channel=11 note=60 velocity=64 time=0.14285699999999998
EXTRACT: note_on channel=11 note=54 velocity=80 time=0
EXTRACT: note_off channel=6 note=67 velocity=64 time=0
EXTRACT: note_off channel=6 note=62 velocity=64 time=0
EXTRACT: note_on channel=6 note=67 velocity=80 time=0
EXTRACT: note_on channel=6 note=62 velocity=80 time=0
EXTRACT: note_on channel=4 note=33 velocity=80 time=0
EXTRACT: note_off channel=11 note=54 velocity=64 time=0.14285699999999998
EXTRACT: note_on channel=11 note=54 velocity=80 time=0
EXTRACT: note_off channel=6 note=67 velocity=64 time=0
EXTRACT: note_off channel=6 note=62 velocity=64 time=0
EXTRACT: note_on channel=6 note=67 velocity=80 time=0
EXTRACT: note_on channel=6 note=62 velocity=80 time=0
EXTRACT: note_off channel=4 note=33 velocity=64 time=0
EXTRACT: note_on channel=4 note=38 velocity=80 time=0
EXTRACT: note_on channel=2 note=64 velocity=72 time=0
EXTRACT: note_on channel=2 note=60 velocity=72 time=0
EXTRACT: note_on channel=2 note=59 velocity=72 time=0
EXTRACT: note_on channel=2 note=55 velocity=72 time=0
EXTRACT: note_off channel=8 note=83 velocity=64 time=0
EXTRACT: note_on channel=8 note=69 velocity=80 time=0
EXTRACT: note_off channel=9 note=42 velocity=64 time=0
EXTRACT: note_off channel=9 note=57 velocity=64 time=0
EXTRACT: note_off channel=9 note=38 velocity=64 time=0
EXTRACT: note_on channel=9 note=42 velocity=80 time=0
EXTRACT: note_on channel=9 note=35 velocity=80 time=0
EXTRACT: note_off channel=11 note=54 velocity=64 time=0.14285699999999998
EXTRACT: note_on channel=11 note=57 velocity=80 time=0
EXTRACT: note_off channel=6 note=67 velocity=64 time=0
EXTRACT: note_off channel=6 note=62 velocity=64 time=0
EXTRACT: note_on channel=6 note=67 velocity=80 time=0
EXTRACT: note_on channel=6 note=62 velocity=80 time=0
EXTRACT: note_off channel=11 note=57 velocity=64 time=0.14285699999999998
EXTRACT: note_off channel=6 note=67 velocity=64 time=0
EXTRACT: note_off channel=6 note=62 velocity=64 time=0
EXTRACT: note_on channel=6 note=67 velocity=80 time=0
EXTRACT: note_on channel=6 note=62 velocity=80 time=0
EXTRACT: note_off channel=4 note=38 velocity=64 time=0
EXTRACT: note_off channel=2 note=64 velocity=64 time=0
EXTRACT: note_off channel=2 note=60 velocity=64 time=0
EXTRACT: note_off channel=2 note=59 velocity=64 time=0
EXTRACT: note_off channel=2 note=55 velocity=64 time=0
EXTRACT: note_off channel=8 note=69 velocity=64 time=0
EXTRACT: note_on channel=9 note=82 velocity=64 time=0
EXTRACT: note_off channel=9 note=42 velocity=64 time=0
EXTRACT: note_off channel=9 note=35 velocity=64 time=0
EXTRACT: note_on channel=9 note=42 velocity=80 time=0
EXTRACT: note_on channel=9 note=57 velocity=80 time=0
EXTRACT: note_off channel=6 note=67 velocity=64 time=0.14285699999999998
EXTRACT: note_off channel=6 note=62 velocity=64 time=0
EXTRACT: note_on channel=6 note=67 velocity=80 time=0
EXTRACT: note_on channel=6 note=62 velocity=80 time=0
EXTRACT: note_on channel=2 note=64 velocity=72 time=0
EXTRACT: note_on channel=2 note=60 velocity=72 time=0
EXTRACT: note_on channel=2 note=59 velocity=72 time=0
EXTRACT: note_on channel=2 note=55 velocity=72 time=0
EXTRACT: note_off channel=9 note=82 velocity=64 time=0
EXTRACT: note_on channel=9 note=82 velocity=64 time=0
EXTRACT: note_off channel=6 note=67 velocity=64 time=0.14285699999999998
EXTRACT: note_off channel=6 note=62 velocity=64 time=0
EXTRACT: note_on channel=6 note=67 velocity=80 time=0
EXTRACT: note_on channel=6 note=62 velocity=80 time=0
EXTRACT: note_off channel=2 note=64 velocity=64 time=0
EXTRACT: note_off channel=2 note=60 velocity=64 time=0
EXTRACT: note_off channel=2 note=59 velocity=64 time=0
EXTRACT: note_off channel=2 note=55 velocity=64 time=0
EXTRACT: note_on channel=2 note=64 velocity=72 time=0
EXTRACT: note_on channel=2 note=60 velocity=72 time=0
EXTRACT: note_on channel=2 note=59 velocity=72 time=0
EXTRACT: note_on channel=2 note=55 velocity=72 time=0
EXTRACT: note_off channel=9 note=82 velocity=64 time=0
EXTRACT: note_on channel=9 note=82 velocity=64 time=0
EXTRACT: note_off channel=9 note=42 velocity=64 time=0
EXTRACT: note_off channel=9 note=57 velocity=64 time=0
EXTRACT: note_on channel=9 note=42 velocity=80 time=0
EXTRACT: note_off channel=6 note=67 velocity=64 time=0.14285699999999998
EXTRACT: note_off channel=6 note=62 velocity=64 time=0
EXTRACT: note_on channel=6 note=67 velocity=80 time=0
EXTRACT: note_on channel=6 note=62 velocity=80 time=0
EXTRACT: note_on channel=4 note=33 velocity=80 time=0
EXTRACT: note_off channel=6 note=67 velocity=64 time=0.14285699999999998
EXTRACT: note_off channel=6 note=62 velocity=64 time=0
EXTRACT: note_on channel=6 note=67 velocity=80 time=0
EXTRACT: note_on channel=6 note=62 velocity=80 time=0
EXTRACT: note_off channel=4 note=33 velocity=64 time=0
EXTRACT: note_on channel=4 note=38 velocity=80 time=0
EXTRACT: note_off channel=2 note=64 velocity=64 time=0
EXTRACT: note_off channel=2 note=60 velocity=64 time=0
EXTRACT: note_off channel=2 note=59 velocity=64 time=0
EXTRACT: note_off channel=2 note=55 velocity=64 time=0
EXTRACT: note_on channel=2 note=64 velocity=72 time=0
EXTRACT: note_on channel=2 note=60 velocity=72 time=0
EXTRACT: note_on channel=2 note=59 velocity=72 time=0
EXTRACT: note_on channel=2 note=55 velocity=72 time=0
EXTRACT: note_off channel=9 note=82 velocity=64 time=0
EXTRACT: note_off channel=9 note=42 velocity=64 time=0
EXTRACT: note_on channel=9 note=42 velocity=80 time=0
EXTRACT: note_on channel=9 note=57 velocity=80 time=0
EXTRACT: note_on channel=9 note=38 velocity=80 time=0
EXTRACT: note_off channel=6 note=67 velocity=64 time=0.14285699999999998
EXTRACT: note_off channel=6 note=62 velocity=64 time=0
EXTRACT: note_on channel=6 note=67 velocity=80 time=0
EXTRACT: note_on channel=6 note=62 velocity=80 time=0
EXTRACT: note_off channel=4 note=38 velocity=64 time=0
EXTRACT: note_on channel=4 note=33 velocity=80 time=0
EXTRACT: note_off channel=6 note=67 velocity=64 time=0.14285699999999998
EXTRACT: note_off channel=6 note=62 velocity=64 time=0
EXTRACT: note_on channel=6 note=67 velocity=80 time=0
EXTRACT: note_on channel=6 note=62 velocity=80 time=0
EXTRACT: note_off channel=4 note=33 velocity=64 time=0
EXTRACT: note_on channel=4 note=37 velocity=80 time=0
EXTRACT: note_off channel=9 note=42 velocity=64 time=0
EXTRACT: note_off channel=9 note=57 velocity=64 time=0
EXTRACT: note_off channel=9 note=38 velocity=64 time=0
EXTRACT: note_on channel=9 note=42 velocity=80 time=0
EXTRACT: note_off channel=6 note=67 velocity=64 time=0.14285699999999998
EXTRACT: note_off channel=6 note=62 velocity=64 time=0
EXTRACT: note_on channel=6 note=67 velocity=80 time=0
EXTRACT: note_on channel=6 note=62 velocity=80 time=0
EXTRACT: note_on channel=11 note=66 velocity=80 time=0.14285699999999998
EXTRACT: note_off channel=6 note=67 velocity=64 time=0
EXTRACT: note_off channel=6 note=62 velocity=64 time=0
EXTRACT: note_on channel=6 note=69 velocity=80 time=0
EXTRACT: note_on channel=6 note=64 velocity=80 time=0
EXTRACT: note_off channel=4 note=37 velocity=64 time=0
EXTRACT: note_on channel=4 note=35 velocity=80 time=0
EXTRACT: note_off channel=2 note=64 velocity=64 time=0
EXTRACT: note_off channel=2 note=60 velocity=64 time=0
EXTRACT: note_off channel=2 note=59 velocity=64 time=0
EXTRACT: note_off channel=2 note=55 velocity=64 time=0
EXTRACT: note_on channel=2 note=66 velocity=72 time=0
EXTRACT: note_on channel=2 note=62 velocity=72 time=0
EXTRACT: note_on channel=2 note=57 velocity=72 time=0
EXTRACT: note_on channel=8 note=73 velocity=72 time=0
EXTRACT: note_on channel=9 note=82 velocity=64 time=0
EXTRACT: note_off channel=9 note=42 velocity=64 time=0
EXTRACT: note_on channel=9 note=42 velocity=80 time=0
EXTRACT: note_on channel=9 note=57 velocity=80 time=0
EXTRACT: note_on channel=9 note=35 velocity=80 time=0
EXTRACT: note_off channel=6 note=69 velocity=64 time=0.14285699999999998
EXTRACT: note_off channel=6 note=64 velocity=64 time=0
EXTRACT: note_on channel=6 note=69 velocity=80 time=0
EXTRACT: note_on channel=6 note=64 velocity=80 time=0
EXTRACT: note_off channel=9 note=82 velocity=64 time=0
EXTRACT: note_on channel=9 note=82 velocity=64 time=0
EXTRACT: note_off channel=6 note=69 velocity=64 time=0.14285699999999998
EXTRACT: note_off channel=6 note=64 velocity=64 time=0
EXTRACT: note_on channel=6 note=69 velocity=80 time=0
EXTRACT: note_on channel=6 note=64 velocity=80 time=0
EXTRACT: note_off channel=4 note=35 velocity=64 time=0
EXTRACT: note_off channel=8 note=73 velocity=64 time=0
EXTRACT: note_on channel=8 note=71 velocity=72 time=0
EXTRACT: note_off channel=9 note=82 velocity=64 time=0
EXTRACT: note_on channel=9 note=82 velocity=64 time=0
EXTRACT: note_off channel=9 note=42 velocity=64 time=0
EXTRACT: note_off channel=9 note=57 velocity=64 time=0
EXTRACT: note_off channel=9 note=35 velocity=64 time=0
EXTRACT: note_on channel=9 note=42 velocity=80 time=0
EXTRACT: note_off channel=6 note=69 velocity=64 time=0.14285699999999998
EXTRACT: note_off channel=6 note=64 velocity=64 time=0
EXTRACT: note_on channel=6 note=69 velocity=80 time=0
EXTRACT: note_on channel=6 note=64 velocity=80 time=0
EXTRACT: note_on channel=4 note=35 velocity=80 time=0
EXTRACT: note_off channel=2 note=66 velocity=64 time=0
EXTRACT: note_off channel=2 note=62 velocity=64 time=0
EXTRACT: note_off channel=2 note=57 velocity=64 time=0
EXTRACT: note_on channel=2 note=66 velocity=72 time=0
EXTRACT: note_on channel=2 note=62 velocity=72 time=0
EXTRACT: note_on channel=2 note=57 velocity=72 time=0
EXTRACT: note_off channel=11 note=66 velocity=64 time=0.14285699999999998
EXTRACT: note_on channel=11 note=61 velocity=80 time=0
EXTRACT: note_off channel=6 note=69 velocity=64 time=0
EXTRACT: note_off channel=6 note=64 velocity=64 time=0
EXTRACT: note_on channel=6 note=69 velocity=80 time=0
EXTRACT: note_on channel=6 note=64 velocity=80 time=0
EXTRACT: note_off channel=4 note=35 velocity=64 time=0
EXTRACT: note_off channel=2 note=66 velocity=64 time=0
EXTRACT: note_off channel=2 note=62 velocity=64 time=0
EXTRACT: note_off channel=2 note=57 velocity=64 time=0
EXTRACT: note_off channel=8 note=71 velocity=64 time=0
EXTRACT: note_on channel=8 note=73 velocity=72 time=0
EXTRACT: note_off channel=9 note=82 velocity=64 time=0
EXTRACT: note_off channel=9 note=42 velocity=64 time=0
EXTRACT: note_on channel=9 note=42 velocity=80 time=0
EXTRACT: note_on channel=9 note=57 velocity=80 time=0
EXTRACT: note_on channel=9 note=38 velocity=80 time=0
EXTRACT: note_off channel=6 note=69 velocity=64 time=0.14285699999999998
EXTRACT: note_off channel=6 note=64 velocity=64 time=0
EXTRACT: note_on channel=6 note=69 velocity=80 time=0
EXTRACT: note_on channel=6 note=64 velocity=80 time=0
EXTRACT: note_off channel=11 note=61 velocity=64 time=0.14285699999999998
EXTRACT: note_on channel=11 note=61 velocity=80 time=0
EXTRACT: note_off channel=6 note=69 velocity=64 time=0
EXTRACT: note_off channel=6 note=64 velocity=64 time=0
EXTRACT: note_on channel=6 note=69 velocity=80 time=0
EXTRACT: note_on channel=6 note=64 velocity=80 time=0
EXTRACT: note_on channel=4 note=30 velocity=80 time=0
EXTRACT: note_on channel=2 note=69 velocity=72 time=0
EXTRACT: note_on channel=2 note=64 velocity=72 time=0
EXTRACT: note_on channel=2 note=61 velocity=72 time=0
EXTRACT: note_on channel=2 note=57 velocity=72 time=0
EXTRACT: note_off channel=8 note=73 velocity=64 time=0
EXTRACT: note_on channel=8 note=71 velocity=72 time=0
EXTRACT: note_off channel=9 note=42 velocity=64 time=0
EXTRACT: note_off channel=9 note=57 velocity=64 time=0
EXTRACT: note_off channel=9 note=38 velocity=64 time=0
EXTRACT: note_on channel=9 note=42 velocity=80 time=0
EXTRACT: note_on channel=9 note=35 velocity=80 time=0
EXTRACT: note_off channel=6 note=69 velocity=64 time=0.14285699999999998
EXTRACT: note_off channel=6 note=64 velocity=64 time=0
EXTRACT: note_on channel=6 note=69 velocity=80 time=0
EXTRACT: note_on channel=6 note=64 velocity=80 time=0
EXTRACT: note_off channel=8 note=71 velocity=64 time=0
EXTRACT: note_on channel=8 note=73 velocity=72 time=0
EXTRACT: note_off channel=11 note=61 velocity=64 time=0.14285699999999998
EXTRACT: note_off channel=6 note=69 velocity=64 time=0
EXTRACT: note_off channel=6 note=64 velocity=64 time=0
EXTRACT: note_on channel=6 note=69 velocity=80 time=0
EXTRACT: note_on channel=6 note=64 velocity=80 time=0
EXTRACT: note_off channel=4 note=30 velocity=64 time=0
EXTRACT: note_off channel=2 note=69 velocity=64 time=0
EXTRACT: note_off channel=2 note=64 velocity=64 time=0
EXTRACT: note_off channel=2 note=61 velocity=64 time=0
EXTRACT: note_off channel=2 note=57 velocity=64 time=0
EXTRACT: note_off channel=8 note=73 velocity=64 time=0
EXTRACT: note_on channel=9 note=82 velocity=64 time=0
EXTRACT: note_off channel=9 note=42 velocity=64 time=0
EXTRACT: note_off channel=9 note=35 velocity=64 time=0
EXTRACT: note_on channel=9 note=42 velocity=80 time=0
EXTRACT: note_on channel=9 note=57 velocity=80 time=0
EXTRACT: note_on channel=8 note=71 velocity=72 time=0.14285699999999998
EXTRACT: note_off channel=9 note=82 velocity=64 time=0
EXTRACT: note_on channel=9 note=82 velocity=64 time=0
EXTRACT: note_off channel=6 note=69 velocity=64 time=0.14285699999999998
EXTRACT: note_off channel=6 note=64 velocity=64 time=0
EXTRACT: note_on channel=6 note=69 velocity=80 time=0
EXTRACT: note_on channel=6 note=64 velocity=80 time=0
EXTRACT: note_off channel=8 note=71 velocity=64 time=0
EXTRACT: note_on channel=8 note=73 velocity=72 time=0
EXTRACT: note_off channel=9 note=82 velocity=64 time=0
EXTRACT: note_on channel=9 note=82 velocity=64 time=0
EXTRACT: note_off channel=9 note=42 velocity=64 time=0
EXTRACT: note_off channel=9 note=57 velocity=64 time=0
EXTRACT: note_on channel=9 note=42 velocity=80 time=0
EXTRACT: note_off channel=6 note=69 velocity=64 time=0.28571399999999997
EXTRACT: note_off channel=6 note=64 velocity=64 time=0
EXTRACT: note_on channel=6 note=69 velocity=80 time=0
EXTRACT: note_on channel=6 note=64 velocity=80 time=0
EXTRACT: note_on channel=2 note=69 velocity=72 time=0
EXTRACT: note_on channel=2 note=64 velocity=72 time=0
EXTRACT: note_on channel=2 note=61 velocity=72 time=0
EXTRACT: note_on channel=2 note=57 velocity=72 time=0
EXTRACT: note_off channel=8 note=73 velocity=64 time=0
EXTRACT: note_on channel=8 note=71 velocity=72 time=0
EXTRACT: note_off channel=9 note=82 velocity=64 time=0
EXTRACT: note_off channel=9 note=42 velocity=64 time=0
EXTRACT: note_on channel=9 note=42 velocity=80 time=0
EXTRACT: note_on channel=9 note=57 velocity=80 time=0
EXTRACT: note_on channel=9 note=38 velocity=80 time=0
EXTRACT: note_on channel=11 note=66 velocity=80 time=0.14285699999999998
EXTRACT: note_off channel=6 note=69 velocity=64 time=0
EXTRACT: note_off channel=6 note=64 velocity=64 time=0
EXTRACT: note_on channel=6 note=69 velocity=80 time=0
EXTRACT: note_on channel=6 note=64 velocity=80 time=0
EXTRACT: note_off channel=8 note=71 velocity=64 time=0
EXTRACT: note_on channel=8 note=73 velocity=72 time=0
EXTRACT: note_off channel=11 note=66 velocity=64 time=0.14285699999999998
EXTRACT: note_on channel=11 note=68 velocity=80 time=0
EXTRACT: note_off channel=6 note=69 velocity=64 time=0
EXTRACT: note_off channel=6 note=64 velocity=64 time=0
EXTRACT: note_on channel=6 note=69 velocity=80 time=0
EXTRACT: note_on channel=6 note=64 velocity=80 time=0
EXTRACT: note_off channel=9 note=42 velocity=64 time=0
EXTRACT: note_off channel=9 note=57 velocity=64 time=0
EXTRACT: note_off channel=9 note=38 velocity=64 time=0
EXTRACT: note_on channel=9 note=42 velocity=80 time=0
EXTRACT: note_off channel=6 note=69 velocity=64 time=0.14285699999999998
EXTRACT: note_off channel=6 note=64 velocity=64 time=0
EXTRACT: note_on channel=6 note=69 velocity=80 time=0
EXTRACT: note_on channel=6 note=64 velocity=80 time=0
EXTRACT: note_on channel=4 note=30 velocity=80 time=0
EXTRACT: note_off channel=8 note=73 velocity=64 time=0
EXTRACT: note_on channel=8 note=71 velocity=72 time=0
EXTRACT: note_off channel=11 note=68 velocity=64 time=0.14285699999999998
EXTRACT: note_on channel=11 note=66 velocity=80 time=0
EXTRACT: note_off channel=6 note=69 velocity=64 time=0
EXTRACT: note_off channel=6 note=64 velocity=64 time=0
EXTRACT: note_on channel=6 note=69 velocity=80 time=0
EXTRACT: note_on channel=6 note=64 velocity=80 time=0
EXTRACT: note_off channel=4 note=30 velocity=64 time=0
EXTRACT: note_on channel=4 note=35 velocity=80 time=0
EXTRACT: note_off channel=2 note=69 velocity=64 time=0
EXTRACT: note_off channel=2 note=64 velocity=64 time=0
EXTRACT: note_off channel=2 note=61 velocity=64 time=0
EXTRACT: note_off channel=2 note=57 velocity=64 time=0
EXTRACT: note_on channel=2 note=66 velocity=72 time=0
EXTRACT: note_on channel=2 note=62 velocity=72 time=0
EXTRACT: note_on channel=2 note=57 velocity=72 time=0
EXTRACT: note_off channel=8 note=71 velocity=64 time=0
EXTRACT: note_on channel=8 note=73 velocity=72 time=0
EXTRACT: note_on channel=9 note=82 velocity=64 time=0
EXTRACT: note_off channel=9 note=42 velocity=64 time=0
EXTRACT: note_on channel=9 note=42 velocity=80 time=0
EXTRACT: note_on channel=9 note=57 velocity=80 time=0
EXTRACT: note_on channel=9 note=35 velocity=80 time=0
EXTRACT: note_off channel=6 note=69 velocity=64 time=0.14285699999999998
EXTRACT: note_off channel=6 note=64 velocity=64 time=0
EXTRACT: note_on channel=6 note=69 velocity=80 time=0
EXTRACT: note_on channel=6 note=64 velocity=80 time=0
EXTRACT: note_off channel=9 note=82 velocity=64 time=0
EXTRACT: note_on channel=9 note=82 velocity=64 time=0
EXTRACT: note_off channel=11 note=66 velocity=64 time=0.14285699999999998
EXTRACT: note_on channel=11 note=64 velocity=80 time=0
EXTRACT: note_off channel=6 note=69 velocity=64 time=0
EXTRACT: note_off channel=6 note=64 velocity=64 time=0
EXTRACT: note_on channel=6 note=69 velocity=80 time=0
EXTRACT: note_on channel=6 note=64 velocity=80 time=0
EXTRACT: note_off channel=4 note=35 velocity=64 time=0
EXTRACT: note_off channel=8 note=73 velocity=64 time=0
EXTRACT: note_on channel=8 note=71 velocity=72 time=0
EXTRACT: note_off channel=9 note=82 velocity=64 time=0
EXTRACT: note_on channel=9 note=82 velocity=64 time=0
EXTRACT: note_off channel=9 note=42 velocity=64 time=0
EXTRACT: note_off channel=9 note=57 velocity=64 time=0
EXTRACT: note_off channel=9 note=35 velocity=64 time=0
EXTRACT: note_on channel=9 note=42 velocity=80 time=0
EXTRACT: note_off channel=6 note=69 velocity=64 time=0.14285699999999998
EXTRACT: note_off channel=6 note=64 velocity=64 time=0
EXTRACT: note_on channel=6 note=69 velocity=80 time=0
EXTRACT: note_on channel=6 note=64 velocity=80 time=0
EXTRACT: note_on channel=4 note=35 velocity=80 time=0
EXTRACT: note_off channel=2 note=66 velocity=64 time=0
EXTRACT: note_off channel=2 note=62 velocity=64 time=0
EXTRACT: note_off channel=2 note=57 velocity=64 time=0
EXTRACT: note_on channel=2 note=66 velocity=72 time=0
EXTRACT: note_on channel=2 note=62 velocity=72 time=0
EXTRACT: note_on channel=2 note=57 velocity=72 time=0
EXTRACT: note_off channel=11 note=64 velocity=64 time=0.14285699999999998
EXTRACT: note_on channel=11 note=61 velocity=80 time=0
EXTRACT: note_off channel=6 note=69 velocity=64 time=0
EXTRACT: note_off channel=6 note=64 velocity=64 time=0
EXTRACT: note_on channel=6 note=69 velocity=80 time=0
EXTRACT: note_on channel=6 note=64 velocity=80 time=0
EXTRACT: note_off channel=4 note=35 velocity=64 time=0
EXTRACT: note_off channel=2 note=66 velocity=64 time=0
EXTRACT: note_off channel=2 note=62 velocity=64 time=0
EXTRACT: note_off channel=2 note=57 velocity=64 time=0
EXTRACT: note_off channel=8 note=71 velocity=64 time=0
EXTRACT: note_on channel=8 note=74 velocity=80 time=0
EXTRACT: note_off channel=9 note=82 velocity=64 time=0
EXTRACT: note_off channel=9 note=42 velocity=64 time=0
EXTRACT: note_on channel=9 note=42 velocity=80 time=0
EXTRACT: note_on channel=9 note=57 velocity=80 time=0
EXTRACT: note_on channel=9 note=38 velocity=80 time=0
EXTRACT: note_off channel=6 note=69 velocity=64 time=0.14285699999999998
EXTRACT: note_off channel=6 note=64 velocity=64 time=0
EXTRACT: note_on channel=6 note=69 velocity=80 time=0
EXTRACT: note_on channel=6 note=64 velocity=80 time=0
EXTRACT: note_off channel=11 note=61 velocity=64 time=0.14285699999999998
EXTRACT: note_on channel=11 note=59 velocity=80 time=0
EXTRACT: note_off channel=6 note=69 velocity=64 time=0
EXTRACT: note_off channel=6 note=64 velocity=64 time=0
EXTRACT: note_on channel=6 note=69 velocity=80 time=0
EXTRACT: note_on channel=6 note=64 velocity=80 time=0
EXTRACT: note_on channel=4 note=30 velocity=80 time=0
EXTRACT: note_on channel=2 note=69 velocity=72 time=0
EXTRACT: note_on channel=2 note=64 velocity=72 time=0
EXTRACT: note_on channel=2 note=61 velocity=72 time=0
EXTRACT: note_on channel=2 note=57 velocity=72 time=0
EXTRACT: note_off channel=8 note=74 velocity=64 time=0
EXTRACT: note_on channel=8 note=73 velocity=80 time=0
EXTRACT: note_off channel=9 note=42 velocity=64 time=0
EXTRACT: note_off channel=9 note=57 velocity=64 time=0
EXTRACT: note_off channel=9 note=38 velocity=64 time=0
EXTRACT: note_on channel=9 note=42 velocity=80 time=0
EXTRACT: note_on channel=9 note=35 velocity=80 time=0
EXTRACT: note_off channel=11 note=59 velocity=64 time=0.14285699999999998
EXTRACT: note_on channel=11 note=61 velocity=80 time=0
EXTRACT: note_off channel=6 note=69 velocity=64 time=0
EXTRACT: note_off channel=6 note=64 velocity=64 time=0
EXTRACT: note_on channel=6 note=69 velocity=80 time=0
EXTRACT: note_on channel=6 note=64 velocity=80 time=0
EXTRACT: note_off channel=11 note=61 velocity=64 time=0.14285699999999998
EXTRACT: note_off channel=6 note=69 velocity=64 time=0
EXTRACT: note_off channel=6 note=64 velocity=64 time=0
EXTRACT: note_on channel=6 note=69 velocity=80 time=0
EXTRACT: note_on channel=6 note=64 velocity=80 time=0
EXTRACT: note_off channel=4 note=30 velocity=64 time=0
EXTRACT: note_off channel=2 note=69 velocity=64 time=0
EXTRACT: note_off channel=2 note=64 velocity=64 time=0
EXTRACT: note_off channel=2 note=61 velocity=64 time=0
EXTRACT: note_off channel=2 note=57 velocity=64 time=0
EXTRACT: note_off channel=8 note=73 velocity=64 time=0
EXTRACT: note_on channel=9 note=82 velocity=64 time=0
EXTRACT: note_off channel=9 note=42 velocity=64 time=0
EXTRACT: note_off channel=9 note=35 velocity=64 time=0
EXTRACT: note_on channel=9 note=42 velocity=80 time=0
EXTRACT: note_on channel=9 note=57 velocity=80 time=0
EXTRACT: note_off channel=9 note=82 velocity=64 time=0.14285699999999998
EXTRACT: note_on channel=9 note=82 velocity=64 time=0
EXTRACT: note_off channel=6 note=69 velocity=64 time=0.14285699999999998
EXTRACT: note_off channel=6 note=64 velocity=64 time=0
EXTRACT: note_on channel=6 note=69 velocity=80 time=0
EXTRACT: note_on channel=6 note=64 velocity=80 time=0
EXTRACT: note_on channel=8 note=71 velocity=80 time=0
EXTRACT: note_off channel=9 note=82 velocity=64 time=0
EXTRACT: note_on channel=9 note=82 velocity=64 time=0
EXTRACT: note_off channel=9 note=42 velocity=64 time=0
EXTRACT: note_off channel=9 note=57 velocity=64 time=0
EXTRACT: note_on channel=9 note=42 velocity=80 time=0
EXTRACT: note_off channel=6 note=69 velocity=64 time=0.28571399999999997
EXTRACT: note_off channel=6 note=64 velocity=64 time=0
EXTRACT: note_on channel=6 note=69 velocity=80 time=0
EXTRACT: note_on channel=6 note=64 velocity=80 time=0
EXTRACT: note_on channel=4 note=42 velocity=80 time=0
EXTRACT: note_on channel=2 note=69 velocity=72 time=0
EXTRACT: note_on channel=2 note=64 velocity=72 time=0
EXTRACT: note_on channel=2 note=61 velocity=72 time=0
EXTRACT: note_on channel=2 note=57 velocity=72 time=0
EXTRACT: note_off channel=8 note=71 velocity=64 time=0
EXTRACT: note_on channel=8 note=73 velocity=80 time=0
EXTRACT: note_off channel=9 note=82 velocity=64 time=0
EXTRACT: note_off channel=9 note=42 velocity=64 time=0
EXTRACT: note_on channel=9 note=42 velocity=80 time=0
EXTRACT: note_on channel=9 note=57 velocity=80 time=0
EXTRACT: note_on channel=9 note=38 velocity=80 time=0
EXTRACT: note_off channel=6 note=69 velocity=64 time=0.14285699999999998
EXTRACT: note_off channel=6 note=64 velocity=64 time=0
EXTRACT: note_on channel=6 note=69 velocity=80 time=0
EXTRACT: note_on channel=6 note=64 velocity=80 time=0
EXTRACT: note_off channel=6 note=69 velocity=64 time=0.14285699999999998
EXTRACT: note_off channel=6 note=64 velocity=64 time=0
EXTRACT: note_on channel=6 note=69 velocity=80 time=0
EXTRACT: note_on channel=6 note=64 velocity=80 time=0
EXTRACT: note_off channel=4 note=42 velocity=64 time=0
EXTRACT: note_on channel=4 note=35 velocity=80 time=0
EXTRACT: note_off channel=2 note=69 velocity=64 time=0
EXTRACT: note_off channel=2 note=64 velocity=64 time=0
EXTRACT: note_off channel=2 note=61 velocity=64 time=0
EXTRACT: note_off channel=2 note=57 velocity=64 time=0
EXTRACT: note_on channel=2 note=69 velocity=72 time=0
EXTRACT: note_on channel=2 note=64 velocity=72 time=0
EXTRACT: note_on channel=2 note=61 velocity=72 time=0
EXTRACT: note_on channel=2 note=57 velocity=72 time=0
EXTRACT: note_off channel=8 note=73 velocity=64 time=0
EXTRACT: note_on channel=8 note=71 velocity=80 time=0
EXTRACT: note_off channel=9 note=42 velocity=64 time=0
EXTRACT: note_off channel=9 note=57 velocity=64 time=0
EXTRACT: note_off channel=9 note=38 velocity=64 time=0
EXTRACT: note_on channel=9 note=42 velocity=80 time=0
EXTRACT: note_off channel=6 note=69 velocity=64 time=0.14285699999999998
EXTRACT: note_off channel=6 note=64 velocity=64 time=0
EXTRACT: note_on channel=6 note=69 velocity=80 time=0
EXTRACT: note_on channel=6 note=64 velocity=80 time=0
EXTRACT: note_off channel=4 note=35 velocity=64 time=0
EXTRACT: note_on channel=4 note=30 velocity=80 time=0
EXTRACT: note_on channel=11 note=60 velocity=80 time=0.14285699999999998
EXTRACT: note_off channel=6 note=69 velocity=64 time=0
EXTRACT: note_off channel=6 note=64 velocity=64 time=0
EXTRACT: note_on channel=6 note=67 velocity=80 time=0
EXTRACT: note_on channel=6 note=62 velocity=80 time=0
EXTRACT: note_off channel=4 note=30 velocity=64 time=0
EXTRACT: note_on channel=4 note=29 velocity=80 time=0
EXTRACT: note_off channel=2 note=69 velocity=64 time=0
EXTRACT: note_off channel=2 note=64 velocity=64 time=0
EXTRACT: note_off channel=2 note=61 velocity=64 time=0
EXTRACT: note_off channel=2 note=57 velocity=64 time=0
EXTRACT: note_on channel=2 note=64 velocity=72 time=0
EXTRACT: note_on channel=2 note=60 velocity=72 time=0
EXTRACT: note_on channel=2 note=57 velocity=72 time=0
EXTRACT: note_on channel=2 note=55 velocity=72 time=0
EXTRACT: note_off channel=8 note=71 velocity=64 time=0
EXTRACT: note_on channel=8 note=69 velocity=80 time=0
EXTRACT: note_on channel=9 note=82 velocity=64 time=0
EXTRACT: note_off channel=9 note=42 velocity=64 time=0
EXTRACT: note_on channel=9 note=42 velocity=80 time=0
EXTRACT: note_on channel=9 note=57 velocity=80 time=0
EXTRACT: note_on channel=9 note=35 velocity=80 time=0
EXTRACT: note_off channel=6 note=67 velocity=64 time=0.14285699999999998
EXTRACT: note_off channel=6 note=62 velocity=64 time=0
EXTRACT: note_on channel=6 note=67 velocity=80 time=0
EXTRACT: note_on channel=6 note=62 velocity=80 time=0
EXTRACT: note_off channel=9 note=82 velocity=64 time=0
EXTRACT: note_on channel=9 note=82 velocity=64 time=0
EXTRACT: note_off channel=6 note=67 velocity=64 time=0.14285699999999998
EXTRACT: note_off channel=6 note=62 velocity=64 time=0
EXTRACT: note_on channel=6 note=67 velocity=80 time=0
EXTRACT: note_on channel=6 note=62 velocity=80 time=0
EXTRACT: note_off channel=9 note=82 velocity=64 time=0
EXTRACT: note_on channel=9 note=82 velocity=64 time=0
EXTRACT: note_off channel=9 note=42 velocity=64 time=0
EXTRACT: note_off channel=9 note=57 velocity=64 time=0
EXTRACT: note_off channel=9 note=35 velocity=64 time=0
EXTRACT: note_on channel=9 note=42 velocity=80 time=0
EXTRACT: note_off channel=6 note=67 velocity=64 time=0.14285699999999998
EXTRACT: note_off channel=6 note=62 velocity=64 time=0
EXTRACT: note_on channel=6 note=67 velocity=80 time=0
EXTRACT: note_on channel=6 note=62 velocity=80 time=0
EXTRACT: note_off channel=4 note=29 velocity=64 time=0
EXTRACT: note_on channel=4 note=29 velocity=80 time=0
EXTRACT: note_off channel=2 note=64 velocity=64 time=0
EXTRACT: note_off channel=2 note=60 velocity=64 time=0
EXTRACT: note_off channel=2 note=57 velocity=64 time=0
EXTRACT: note_off channel=2 note=55 velocity=64 time=0
EXTRACT: note_on channel=2 note=64 velocity=72 time=0
EXTRACT: note_on channel=2 note=60 velocity=72 time=0
EXTRACT: note_on channel=2 note=57 velocity=72 time=0
EXTRACT: note_on channel=2 note=55 velocity=72 time=0
EXTRACT: note_off channel=11 note=60 velocity=64 time=0.14285699999999998
EXTRACT: note_on channel=11 note=60 velocity=80 time=0
EXTRACT: note_off channel=6 note=67 velocity=64 time=0
EXTRACT: note_off channel=6 note=62 velocity=64 time=0
EXTRACT: note_on channel=6 note=67 velocity=80 time=0
EXTRACT: note_on channel=6 note=62 velocity=80 time=0
EXTRACT: note_off channel=4 note=29 velocity=64 time=0
EXTRACT: note_off channel=2 note=64 velocity=64 time=0
EXTRACT: note_off channel=2 note=60 velocity=64 time=0
EXTRACT: note_off channel=2 note=57 velocity=64 time=0
EXTRACT: note_off channel=2 note=55 velocity=64 time=0
EXTRACT: note_off channel=9 note=82 velocity=64 time=0
EXTRACT: note_off channel=9 note=42 velocity=64 time=0
EXTRACT: note_on channel=9 note=42 velocity=80 time=0
EXTRACT: note_on channel=9 note=57 velocity=80 time=0
EXTRACT: note_on channel=9 note=38 velocity=80 time=0
EXTRACT: note_off channel=6 note=67 velocity=64 time=0.14285699999999998
EXTRACT: note_off channel=6 note=62 velocity=64 time=0
EXTRACT: note_on channel=6 note=67 velocity=80 time=0
EXTRACT: note_on channel=6 note=62 velocity=80 time=0
EXTRACT: note_on channel=4 note=29 velocity=80 time=0
EXTRACT: note_off channel=6 note=67 velocity=64 time=0.14285699999999998
EXTRACT: note_off channel=6 note=62 velocity=64 time=0
EXTRACT: note_on channel=6 note=67 velocity=80 time=0
EXTRACT: note_on channel=6 note=62 velocity=80 time=0
EXTRACT: note_off channel=4 note=29 velocity=64 time=0
EXTRACT: note_on channel=4 note=31 velocity=80 time=0
EXTRACT: note_on channel=2 note=66 velocity=72 time=0
EXTRACT: note_on channel=2 note=62 velocity=72 time=0
EXTRACT: note_on channel=2 note=59 velocity=72 time=0
EXTRACT: note_on channel=2 note=57 velocity=72 time=0
EXTRACT: note_off channel=8 note=69 velocity=64 time=0
EXTRACT: note_on channel=8 note=67 velocity=80 time=0
EXTRACT: note_off channel=9 note=42 velocity=64 time=0
EXTRACT: note_off channel=9 note=57 velocity=64 time=0
EXTRACT: note_off channel=9 note=38 velocity=64 time=0
EXTRACT: note_on channel=9 note=42 velocity=80 time=0
EXTRACT: note_on channel=9 note=35 velocity=80 time=0
EXTRACT: note_off channel=6 note=67 velocity=64 time=0.14285699999999998
EXTRACT: note_off channel=6 note=62 velocity=64 time=0
EXTRACT: note_on channel=6 note=67 velocity=80 time=0
EXTRACT: note_on channel=6 note=62 velocity=80 time=0
EXTRACT: note_off channel=11 note=60 velocity=64 time=0.14285699999999998
EXTRACT: note_on channel=11 note=60 velocity=80 time=0
EXTRACT: note_off channel=6 note=67 velocity=64 time=0
EXTRACT: note_off channel=6 note=62 velocity=64 time=0
EXTRACT: note_on channel=6 note=67 velocity=80 time=0
EXTRACT: note_on channel=6 note=62 velocity=80 time=0
EXTRACT: note_off channel=4 note=31 velocity=64 time=0
EXTRACT: note_off channel=2 note=66 velocity=64 time=0
EXTRACT: note_off channel=2 note=62 velocity=64 time=0
EXTRACT: note_off channel=2 note=59 velocity=64 time=0
EXTRACT: note_off channel=2 note=57 velocity=64 time=0
EXTRACT: note_off channel=8 note=67 velocity=64 time=0
EXTRACT: note_on channel=9 note=82 velocity=64 time=0
EXTRACT: note_off channel=9 note=42 velocity=64 time=0
EXTRACT: note_off channel=9 note=35 velocity=64 time=0
EXTRACT: note_on channel=9 note=42 velocity=80 time=0
EXTRACT: note_on channel=9 note=57 velocity=80 time=0
EXTRACT: note_off channel=6 note=67 velocity=64 time=0.14285699999999998
EXTRACT: note_off channel=6 note=62 velocity=64 time=0
EXTRACT: note_on channel=6 note=67 velocity=80 time=0
EXTRACT: note_on channel=6 note=62 velocity=80 time=0
EXTRACT: note_on channel=2 note=66 velocity=72 time=0
EXTRACT: note_on channel=2 note=62 velocity=72 time=0
EXTRACT: note_on channel=2 note=59 velocity=72 time=0
EXTRACT: note_on channel=2 note=57 velocity=72 time=0
EXTRACT: note_off channel=9 note=82 velocity=64 time=0
EXTRACT: note_on channel=9 note=82 velocity=64 time=0
EXTRACT: note_off channel=6 note=67 velocity=64 time=0.14285699999999998
EXTRACT: note_off channel=6 note=62 velocity=64 time=0
EXTRACT: note_on channel=6 note=67 velocity=80 time=0
EXTRACT: note_on channel=6 note=62 velocity=80 time=0
EXTRACT: note_off channel=9 note=82 velocity=64 time=0
EXTRACT: note_on channel=9 note=82 velocity=64 time=0
EXTRACT: note_off channel=9 note=42 velocity=64 time=0
EXTRACT: note_off channel=9 note=57 velocity=64 time=0
EXTRACT: note_on channel=9 note=42 velocity=80 time=0
EXTRACT: note_off channel=6 note=67 velocity=64 time=0.14285699999999998
EXTRACT: note_off channel=6 note=62 velocity=64 time=0
EXTRACT: note_on channel=6 note=67 velocity=80 time=0
EXTRACT: note_on channel=6 note=62 velocity=80 time=0
EXTRACT: note_off channel=11 note=60 velocity=64 time=0.14285699999999998
EXTRACT: note_on channel=11 note=57 velocity=80 time=0
EXTRACT: note_off channel=6 note=67 velocity=64 time=0
EXTRACT: note_off channel=6 note=62 velocity=64 time=0
EXTRACT: note_on channel=6 note=67 velocity=80 time=0
EXTRACT: note_on channel=6 note=62 velocity=80 time=0
EXTRACT: note_off channel=2 note=66 velocity=64 time=0
EXTRACT: note_off channel=2 note=62 velocity=64 time=0
EXTRACT: note_off channel=2 note=59 velocity=64 time=0
EXTRACT: note_off channel=2 note=57 velocity=64 time=0
EXTRACT: note_on channel=2 note=66 velocity=72 time=0
EXTRACT: note_on channel=2 note=62 velocity=72 time=0
EXTRACT: note_on channel=2 note=59 velocity=72 time=0
EXTRACT: note_on channel=2 note=57 velocity=72 time=0
EXTRACT: note_off channel=9 note=82 velocity=64 time=0
EXTRACT: note_off channel=9 note=42 velocity=64 time=0
EXTRACT: note_on channel=9 note=42 velocity=80 time=0
EXTRACT: note_on channel=9 note=57 velocity=80 time=0
EXTRACT: note_on channel=9 note=38 velocity=80 time=0
EXTRACT: note_off channel=6 note=67 velocity=64 time=0.14285699999999998
EXTRACT: note_off channel=6 note=62 velocity=64 time=0
EXTRACT: note_on channel=6 note=67 velocity=80 time=0
EXTRACT: note_on channel=6 note=62 velocity=80 time=0
EXTRACT: note_off channel=6 note=67 velocity=64 time=0.14285699999999998
EXTRACT: note_off channel=6 note=62 velocity=64 time=0
EXTRACT: note_on channel=6 note=67 velocity=80 time=0
EXTRACT: note_on channel=6 note=62 velocity=80 time=0
EXTRACT: note_off channel=9 note=42 velocity=64 time=0
EXTRACT: note_off channel=9 note=57 velocity=64 time=0
EXTRACT: note_off channel=9 note=38 velocity=64 time=0
EXTRACT: note_on channel=9 note=42 velocity=80 time=0
EXTRACT: note_off channel=6 note=67 velocity=64 time=0.14285699999999998
EXTRACT: note_off channel=6 note=62 velocity=64 time=0
EXTRACT: note_on channel=6 note=67 velocity=80 time=0
EXTRACT: note_on channel=6 note=62 velocity=80 time=0
EXTRACT: note_on channel=4 note=31 velocity=80 time=0
EXTRACT: note_off channel=11 note=57 velocity=64 time=0.14285699999999998
EXTRACT: note_on channel=11 note=60 velocity=80 time=0
EXTRACT: note_off channel=6 note=67 velocity=64 time=0
EXTRACT: note_off channel=6 note=62 velocity=64 time=0
EXTRACT: note_on channel=6 note=67 velocity=80 time=0
EXTRACT: note_on channel=6 note=62 velocity=80 time=0
EXTRACT: note_off channel=4 note=31 velocity=64 time=0
EXTRACT: note_on channel=4 note=33 velocity=80 time=0
EXTRACT: note_off channel=2 note=66 velocity=64 time=0
EXTRACT: note_off channel=2 note=62 velocity=64 time=0
EXTRACT: note_off channel=2 note=59 velocity=64 time=0
EXTRACT: note_off channel=2 note=57 velocity=64 time=0
EXTRACT: note_on channel=2 note=68 velocity=72 time=0
EXTRACT: note_on channel=2 note=64 velocity=72 time=0
EXTRACT: note_on channel=2 note=61 velocity=72 time=0
EXTRACT: note_on channel=2 note=59 velocity=72 time=0
EXTRACT: note_on channel=8 note=68 velocity=80 time=0
EXTRACT: note_on channel=9 note=82 velocity=64 time=0
EXTRACT: note_off channel=9 note=42 velocity=64 time=0
EXTRACT: note_on channel=9 note=42 velocity=80 time=0
EXTRACT: note_on channel=9 note=57 velocity=80 time=0
EXTRACT: note_on channel=9 note=35 velocity=80 time=0
EXTRACT: note_off channel=6 note=67 velocity=64 time=0.14285699999999998
EXTRACT: note_off channel=6 note=62 velocity=64 time=0
EXTRACT: note_on channel=6 note=67 velocity=80 time=0
EXTRACT: note_on channel=6 note=62 velocity=80 time=0
EXTRACT: note_off channel=9 note=82 velocity=64 time=0
EXTRACT: note_on channel=9 note=82 velocity=64 time=0
EXTRACT: note_off channel=6 note=67 velocity=64 time=0.14285699999999998
EXTRACT: note_off channel=6 note=62 velocity=64 time=0
EXTRACT: note_on channel=6 note=67 velocity=80 time=0
EXTRACT: note_on channel=6 note=62 velocity=80 time=0
EXTRACT: note_off channel=9 note=82 velocity=64 time=0
EXTRACT: note_on channel=9 note=82 velocity=64 time=0
EXTRACT: note_off channel=9 note=42 velocity=64 time=0
EXTRACT: note_off channel=9 note=57 velocity=64 time=0
EXTRACT: note_off channel=9 note=35 velocity=64 time=0
EXTRACT: note_on channel=9 note=42 velocity=80 time=0
EXTRACT: note_off channel=6 note=67 velocity=64 time=0.14285699999999998
EXTRACT: note_off channel=6 note=62 velocity=64 time=0
EXTRACT: note_on channel=6 note=67 velocity=80 time=0
EXTRACT: note_on channel=6 note=62 velocity=80 time=0
EXTRACT: note_off channel=4 note=33 velocity=64 time=0
EXTRACT: note_on channel=4 note=33 velocity=80 time=0
EXTRACT: note_off channel=2 note=68 velocity=64 time=0
EXTRACT: note_off channel=2 note=64 velocity=64 time=0
EXTRACT: note_off channel=2 note=61 velocity=64 time=0
EXTRACT: note_off channel=2 note=59 velocity=64 time=0
EXTRACT: note_on channel=2 note=68 velocity=72 time=0
EXTRACT: note_on channel=2 note=64 velocity=72 time=0
EXTRACT: note_on channel=2 note=61 velocity=72 time=0
EXTRACT: note_on channel=2 note=59 velocity=72 time=0
EXTRACT: note_off channel=11 note=60 velocity=64 time=0.14285699999999998
EXTRACT: note_on channel=11 note=62 velocity=80 time=0
EXTRACT: note_off channel=6 note=67 velocity=64 time=0
EXTRACT: note_off channel=6 note=62 velocity=64 time=0
EXTRACT: note_on channel=6 note=67 velocity=80 time=0
EXTRACT: note_on channel=6 note=62 velocity=80 time=0
EXTRACT: note_off channel=4 note=33 velocity=64 time=0
EXTRACT: note_off channel=2 note=68 velocity=64 time=0
EXTRACT: note_off channel=2 note=64 velocity=64 time=0
EXTRACT: note_off channel=2 note=61 velocity=64 time=0
EXTRACT: note_off channel=2 note=59 velocity=64 time=0
EXTRACT: note_off channel=9 note=82 velocity=64 time=0
EXTRACT: note_off channel=9 note=42 velocity=64 time=0
EXTRACT: note_on channel=9 note=42 velocity=80 time=0
EXTRACT: note_on channel=9 note=57 velocity=80 time=0
EXTRACT: note_on channel=9 note=38 velocity=80 time=0
EXTRACT: note_off channel=6 note=67 velocity=64 time=0.14285699999999998
EXTRACT: note_off channel=6 note=62 velocity=64 time=0
EXTRACT: note_on channel=6 note=67 velocity=80 time=0
EXTRACT: note_on channel=6 note=62 velocity=80 time=0
EXTRACT: note_on channel=4 note=33 velocity=80 time=0
EXTRACT: note_off channel=6 note=67 velocity=64 time=0.14285699999999998
EXTRACT: note_off channel=6 note=62 velocity=64 time=0
EXTRACT: note_on channel=6 note=67 velocity=80 time=0
EXTRACT: note_on channel=6 note=62 velocity=80 time=0
EXTRACT: note_off channel=4 note=33 velocity=64 time=0
EXTRACT: note_on channel=4 note=38 velocity=80 time=0
EXTRACT: note_on channel=2 note=64 velocity=72 time=0
EXTRACT: note_on channel=2 note=60 velocity=72 time=0
EXTRACT: note_on channel=2 note=59 velocity=72 time=0
EXTRACT: note_on channel=2 note=55 velocity=72 time=0
EXTRACT: note_off channel=8 note=68 velocity=64 time=0
EXTRACT: note_on channel=8 note=69 velocity=80 time=0
EXTRACT: note_off channel=9 note=42 velocity=64 time=0
EXTRACT: note_off channel=9 note=57 velocity=64 time=0
EXTRACT: note_off channel=9 note=38 velocity=64 time=0
EXTRACT: note_on channel=9 note=42 velocity=80 time=0
EXTRACT: note_on channel=9 note=35 velocity=80 time=0
EXTRACT: note_off channel=6 note=67 velocity=64 time=0.14285699999999998
EXTRACT: note_off channel=6 note=62 velocity=64 time=0
EXTRACT: note_on channel=6 note=67 velocity=80 time=0
EXTRACT: note_on channel=6 note=62 velocity=80 time=0
EXTRACT: note_off channel=11 note=62 velocity=64 time=0.14285699999999998
EXTRACT: note_on channel=11 note=57 velocity=80 time=0
EXTRACT: note_off channel=6 note=67 velocity=64 time=0
EXTRACT: note_off channel=6 note=62 velocity=64 time=0
EXTRACT: note_on channel=6 note=67 velocity=80 time=0
EXTRACT: note_on channel=6 note=62 velocity=80 time=0
EXTRACT: note_off channel=4 note=38 velocity=64 time=0
EXTRACT: note_off channel=2 note=64 velocity=64 time=0
EXTRACT: note_off channel=2 note=60 velocity=64 time=0
EXTRACT: note_off channel=2 note=59 velocity=64 time=0
EXTRACT: note_off channel=2 note=55 velocity=64 time=0
EXTRACT: note_off channel=8 note=69 velocity=64 time=0
EXTRACT: note_on channel=9 note=82 velocity=64 time=0
EXTRACT: note_off channel=9 note=42 velocity=64 time=0
EXTRACT: note_off channel=9 note=35 velocity=64 time=0
EXTRACT: note_on channel=9 note=42 velocity=80 time=0
EXTRACT: note_on channel=9 note=57 velocity=80 time=0
EXTRACT: note_off channel=11 note=57 velocity=64 time=0.14285699999999998
EXTRACT: note_on channel=11 note=55 velocity=80 time=0
EXTRACT: note_off channel=6 note=67 velocity=64 time=0
EXTRACT: note_off channel=6 note=62 velocity=64 time=0
EXTRACT: note_on channel=6 note=67 velocity=80 time=0
EXTRACT: note_on channel=6 note=62 velocity=80 time=0
EXTRACT: note_off channel=9 note=82 velocity=64 time=0
EXTRACT: note_on channel=9 note=82 velocity=64 time=0
EXTRACT: note_off channel=9 note=42 velocity=64 time=0
EXTRACT: note_off channel=9 note=57 velocity=64 time=0
EXTRACT: note_on channel=9 note=38 velocity=80 time=0
EXTRACT: note_off channel=6 note=67 velocity=64 time=0.14285699999999998
EXTRACT: note_off channel=6 note=62 velocity=64 time=0
EXTRACT: note_on channel=6 note=67 velocity=80 time=0
EXTRACT: note_on channel=6 note=62 velocity=80 time=0
EXTRACT: note_off channel=9 note=82 velocity=64 time=0
EXTRACT: note_on channel=9 note=82 velocity=64 time=0
EXTRACT: note_off channel=9 note=38 velocity=64 time=0
EXTRACT: note_on channel=9 note=46 velocity=80 time=0
EXTRACT: note_on channel=9 note=35 velocity=80 time=0
EXTRACT: note_off channel=6 note=67 velocity=64 time=0.14285699999999998
EXTRACT: note_off channel=6 note=62 velocity=64 time=0
EXTRACT: note_on channel=6 note=67 velocity=80 time=0
EXTRACT: note_on channel=6 note=62 velocity=80 time=0
EXTRACT: note_off channel=11 note=55 velocity=64 time=0.14285699999999998
EXTRACT: note_on channel=11 note=55 velocity=80 time=0
EXTRACT: note_off channel=6 note=67 velocity=64 time=0
EXTRACT: note_off channel=6 note=62 velocity=64 time=0
EXTRACT: note_on channel=6 note=67 velocity=80 time=0
EXTRACT: note_on channel=6 note=62 velocity=80 time=0
EXTRACT: note_on channel=2 note=64 velocity=72 time=0
EXTRACT: note_on channel=2 note=60 velocity=72 time=0
EXTRACT: note_on channel=2 note=59 velocity=72 time=0
EXTRACT: note_on channel=2 note=55 velocity=72 time=0
EXTRACT: note_off channel=9 note=82 velocity=64 time=0
EXTRACT: note_off channel=9 note=46 velocity=64 time=0
EXTRACT: note_off channel=9 note=35 velocity=64 time=0
EXTRACT: note_on channel=9 note=38 velocity=80 time=0
EXTRACT: note_off channel=6 note=67 velocity=64 time=0.14285699999999998
EXTRACT: note_off channel=6 note=62 velocity=64 time=0
EXTRACT: note_on channel=6 note=67 velocity=80 time=0
EXTRACT: note_on channel=6 note=62 velocity=80 time=0
EXTRACT: note_off channel=9 note=38 velocity=64 time=0
EXTRACT: note_on channel=9 note=38 velocity=80 time=0
EXTRACT: note_off channel=6 note=67 velocity=64 time=0.14285699999999998
EXTRACT: note_off channel=6 note=62 velocity=64 time=0
EXTRACT: note_on channel=6 note=67 velocity=80 time=0
EXTRACT: note_on channel=6 note=62 velocity=80 time=0
EXTRACT: note_off channel=9 note=38 velocity=64 time=0
EXTRACT: note_on channel=9 note=46 velocity=80 time=0
EXTRACT: note_on channel=9 note=35 velocity=80 time=0
EXTRACT: note_off channel=6 note=67 velocity=64 time=0.14285699999999998
EXTRACT: note_off channel=6 note=62 velocity=64 time=0
EXTRACT: note_on channel=6 note=67 velocity=80 time=0
EXTRACT: note_on channel=6 note=62 velocity=80 time=0
EXTRACT: note_off channel=11 note=55 velocity=64 time=0.14285699999999998
EXTRACT: note_on channel=11 note=57 velocity=80 time=0
EXTRACT: note_off channel=6 note=67 velocity=64 time=0
EXTRACT: note_off channel=6 note=62 velocity=64 time=0
EXTRACT: note_on channel=6 note=69 velocity=80 time=0
EXTRACT: note_on channel=6 note=64 velocity=80 time=0
EXTRACT: note_on channel=4 note=33 velocity=80 time=0
EXTRACT: note_off channel=2 note=64 velocity=64 time=0
EXTRACT: note_off channel=2 note=60 velocity=64 time=0
EXTRACT: note_off channel=2 note=59 velocity=64 time=0
EXTRACT: note_off channel=2 note=55 velocity=64 time=0
EXTRACT: note_on channel=2 note=88 velocity=72 time=0
EXTRACT: note_on channel=2 note=84 velocity=72 time=0
EXTRACT: note_on channel=2 note=81 velocity=72 time=0
EXTRACT: note_on channel=9 note=70 velocity=80 time=0
EXTRACT: note_off channel=9 note=46 velocity=64 time=0
EXTRACT: note_off channel=9 note=35 velocity=64 time=0
EXTRACT: note_on channel=9 note=42 velocity=72 time=0
EXTRACT: note_on channel=9 note=35 velocity=72 time=0
EXTRACT: note_off channel=9 note=70 velocity=64 time=0.14285699999999998
EXTRACT: note_on channel=9 note=70 velocity=80 time=0
EXTRACT: note_off channel=11 note=57 velocity=64 time=0.14285699999999998
EXTRACT: note_off channel=2 note=88 velocity=64 time=0
EXTRACT: note_off channel=2 note=84 velocity=64 time=0
EXTRACT: note_off channel=2 note=81 velocity=64 time=0
EXTRACT: note_on channel=2 note=88 velocity=72 time=0
EXTRACT: note_on channel=2 note=84 velocity=72 time=0
EXTRACT: note_on channel=2 note=81 velocity=72 time=0
EXTRACT: note_off channel=9 note=70 velocity=64 time=0
EXTRACT: note_on channel=9 note=70 velocity=80 time=0
EXTRACT: note_off channel=9 note=42 velocity=64 time=0
EXTRACT: note_off channel=9 note=35 velocity=64 time=0
EXTRACT: note_on channel=9 note=42 velocity=72 time=0
EXTRACT: note_off channel=6 note=69 velocity=64 time=0.28571399999999997
EXTRACT: note_off channel=6 note=64 velocity=64 time=0
EXTRACT: note_off channel=4 note=33 velocity=64 time=0
EXTRACT: note_off channel=2 note=88 velocity=64 time=0
EXTRACT: note_off channel=2 note=84 velocity=64 time=0
EXTRACT: note_off channel=2 note=81 velocity=64 time=0
EXTRACT: note_on channel=2 note=88 velocity=72 time=0
EXTRACT: note_on channel=2 note=84 velocity=72 time=0
EXTRACT: note_on channel=2 note=81 velocity=72 time=0
EXTRACT: note_off channel=9 note=70 velocity=64 time=0
EXTRACT: note_on channel=9 note=70 velocity=80 time=0
EXTRACT: note_off channel=9 note=42 velocity=64 time=0
EXTRACT: note_on channel=9 note=42 velocity=72 time=0
EXTRACT: note_on channel=9 note=38 velocity=72 time=0
EXTRACT: note_on channel=11 note=64 velocity=80 time=0.28571399999999997
EXTRACT: note_off channel=2 note=88 velocity=64 time=0
EXTRACT: note_off channel=2 note=84 velocity=64 time=0
EXTRACT: note_off channel=2 note=81 velocity=64 time=0
EXTRACT: note_on channel=2 note=88 velocity=72 time=0
EXTRACT: note_on channel=2 note=84 velocity=72 time=0
EXTRACT: note_on channel=2 note=81 velocity=72 time=0
EXTRACT: note_off channel=9 note=70 velocity=64 time=0
EXTRACT: note_on channel=9 note=70 velocity=80 time=0
EXTRACT: note_off channel=9 note=42 velocity=64 time=0
EXTRACT: note_off channel=9 note=38 velocity=64 time=0
EXTRACT: note_on channel=9 note=42 velocity=72 time=0
EXTRACT: note_on channel=4 note=33 velocity=80 time=0.14285699999999998
EXTRACT: note_off channel=9 note=42 velocity=64 time=0
EXTRACT: note_on channel=9 note=35 velocity=72 time=0
EXTRACT: note_off channel=11 note=64 velocity=64 time=0.14285699999999998
EXTRACT: note_off channel=4 note=33 velocity=64 time=0
EXTRACT: note_off channel=2 note=88 velocity=64 time=0
EXTRACT: note_off channel=2 note=84 velocity=64 time=0
EXTRACT: note_off channel=2 note=81 velocity=64 time=0
EXTRACT: note_on channel=2 note=88 velocity=72 time=0
EXTRACT: note_on channel=2 note=84 velocity=72 time=0
EXTRACT: note_on channel=2 note=81 velocity=72 time=0
EXTRACT: note_off channel=9 note=70 velocity=64 time=0
EXTRACT: note_on channel=9 note=70 velocity=80 time=0
EXTRACT: note_off channel=9 note=35 velocity=64 time=0
EXTRACT: note_on channel=9 note=42 velocity=72 time=0
EXTRACT: note_off channel=9 note=70 velocity=64 time=0.14285699999999998
EXTRACT: note_on channel=9 note=70 velocity=80 time=0
EXTRACT: note_off channel=2 note=88 velocity=64 time=0.14285699999999998
EXTRACT: note_off channel=2 note=84 velocity=64 time=0
EXTRACT: note_off channel=2 note=81 velocity=64 time=0
EXTRACT: note_on channel=2 note=88 velocity=72 time=0
EXTRACT: note_on channel=2 note=84 velocity=72 time=0
EXTRACT: note_on channel=2 note=81 velocity=72 time=0
EXTRACT: note_off channel=9 note=70 velocity=64 time=0
EXTRACT: note_on channel=9 note=70 velocity=80 time=0
EXTRACT: note_off channel=9 note=42 velocity=64 time=0
EXTRACT: note_on channel=9 note=42 velocity=72 time=0
EXTRACT: note_on channel=11 note=60 velocity=80 time=0.28571399999999997
EXTRACT: note_off channel=2 note=88 velocity=64 time=0
EXTRACT: note_off channel=2 note=84 velocity=64 time=0
EXTRACT: note_off channel=2 note=81 velocity=64 time=0
EXTRACT: note_on channel=2 note=88 velocity=72 time=0
EXTRACT: note_on channel=2 note=84 velocity=72 time=0
EXTRACT: note_on channel=2 note=81 velocity=72 time=0
EXTRACT: note_off channel=9 note=70 velocity=64 time=0
EXTRACT: note_on channel=9 note=70 velocity=80 time=0
EXTRACT: note_off channel=9 note=42 velocity=64 time=0
EXTRACT: note_on channel=9 note=42 velocity=72 time=0
EXTRACT: note_on channel=9 note=38 velocity=72 time=0
EXTRACT: note_off channel=11 note=60 velocity=64 time=0.28571399999999997
EXTRACT: note_off channel=2 note=88 velocity=64 time=0
EXTRACT: note_off channel=2 note=84 velocity=64 time=0
EXTRACT: note_off channel=2 note=81 velocity=64 time=0
EXTRACT: note_on channel=2 note=88 velocity=72 time=0
EXTRACT: note_on channel=2 note=84 velocity=72 time=0
EXTRACT: note_on channel=2 note=81 velocity=72 time=0
EXTRACT: note_off channel=9 note=70 velocity=64 time=0
EXTRACT: note_on channel=9 note=70 velocity=80 time=0
EXTRACT: note_off channel=9 note=42 velocity=64 time=0
EXTRACT: note_off channel=9 note=38 velocity=64 time=0
EXTRACT: note_on channel=9 note=42 velocity=72 time=0
EXTRACT: note_on channel=11 note=59 velocity=80 time=0.28571399999999997
EXTRACT: note_on channel=4 note=30 velocity=80 time=0
EXTRACT: note_off channel=2 note=88 velocity=64 time=0
EXTRACT: note_off channel=2 note=84 velocity=64 time=0
EXTRACT: note_off channel=2 note=81 velocity=64 time=0
EXTRACT: note_on channel=2 note=88 velocity=72 time=0
EXTRACT: note_on channel=2 note=85 velocity=72 time=0
EXTRACT: note_on channel=2 note=81 velocity=72 time=0
EXTRACT: note_off channel=9 note=70 velocity=64 time=0
EXTRACT: note_on channel=9 note=70 velocity=80 time=0
EXTRACT: note_off channel=9 note=42 velocity=64 time=0
EXTRACT: note_on channel=9 note=42 velocity=72 time=0
EXTRACT: note_on channel=9 note=35 velocity=72 time=0
EXTRACT: note_off channel=9 note=70 velocity=64 time=0.14285699999999998
EXTRACT: note_on channel=9 note=70 velocity=80 time=0
EXTRACT: note_off channel=11 note=59 velocity=64 time=0.14285699999999998
EXTRACT: note_off channel=2 note=88 velocity=64 time=0
EXTRACT: note_off channel=2 note=85 velocity=64 time=0
EXTRACT: note_off channel=2 note=81 velocity=64 time=0
EXTRACT: note_on channel=2 note=88 velocity=72 time=0
EXTRACT: note_on channel=2 note=85 velocity=72 time=0
EXTRACT: note_on channel=2 note=81 velocity=72 time=0
EXTRACT: note_off channel=9 note=70 velocity=64 time=0
EXTRACT: note_on channel=9 note=70 velocity=80 time=0
EXTRACT: note_off channel=9 note=42 velocity=64 time=0
EXTRACT: note_off channel=9 note=35 velocity=64 time=0
EXTRACT: note_on channel=9 note=42 velocity=72 time=0
EXTRACT: note_off channel=4 note=30 velocity=64 time=0.28571399999999997
EXTRACT: note_off channel=2 note=88 velocity=64 time=0
EXTRACT: note_off channel=2 note=85 velocity=64 time=0
EXTRACT: note_off channel=2 note=81 velocity=64 time=0
EXTRACT: note_on channel=2 note=88 velocity=72 time=0
EXTRACT: note_on channel=2 note=85 velocity=72 time=0
EXTRACT: note_on channel=2 note=81 velocity=72 time=0
EXTRACT: note_off channel=9 note=70 velocity=64 time=0
EXTRACT: note_on channel=9 note=70 velocity=80 time=0
EXTRACT: note_off channel=9 note=42 velocity=64 time=0
EXTRACT: note_on channel=9 note=42 velocity=72 time=0
EXTRACT: note_on channel=9 note=38 velocity=72 time=0
EXTRACT: note_on channel=11 note=52 velocity=80 time=0.28571399999999997
EXTRACT: note_off channel=2 note=88 velocity=64 time=0
EXTRACT: note_off channel=2 note=85 velocity=64 time=0
EXTRACT: note_off channel=2 note=81 velocity=64 time=0
EXTRACT: note_on channel=2 note=88 velocity=72 time=0
EXTRACT: note_on channel=2 note=85 velocity=72 time=0
EXTRACT: note_on channel=2 note=81 velocity=72 time=0
EXTRACT: note_off channel=9 note=70 velocity=64 time=0
EXTRACT: note_on channel=9 note=70 velocity=80 time=0
EXTRACT: note_off channel=9 note=42 velocity=64 time=0
EXTRACT: note_off channel=9 note=38 velocity=64 time=0
EXTRACT: note_on channel=9 note=42 velocity=72 time=0
EXTRACT: note_on channel=4 note=30 velocity=80 time=0.14285699999999998
EXTRACT: note_off channel=9 note=42 velocity=64 time=0
EXTRACT: note_on channel=9 note=35 velocity=72 time=0
EXTRACT: note_off channel=11 note=52 velocity=64 time=0.14285699999999998
EXTRACT: note_off channel=4 note=30 velocity=64 time=0
EXTRACT: note_off channel=2 note=88 velocity=64 time=0
EXTRACT: note_off channel=2 note=85 velocity=64 time=0
EXTRACT: note_off channel=2 note=81 velocity=64 time=0
EXTRACT: note_on channel=2 note=88 velocity=72 time=0
EXTRACT: note_on channel=2 note=85 velocity=72 time=0
EXTRACT: note_on channel=2 note=81 velocity=72 time=0
EXTRACT: note_off channel=9 note=70 velocity=64 time=0
EXTRACT: note_on channel=9 note=70 velocity=80 time=0
EXTRACT: note_off channel=9 note=35 velocity=64 time=0
EXTRACT: note_on channel=9 note=42 velocity=72 time=0
EXTRACT: note_off channel=9 note=70 velocity=64 time=0.14285699999999998
EXTRACT: note_on channel=9 note=70 velocity=80 time=0
EXTRACT: note_off channel=2 note=88 velocity=64 time=0.14285699999999998
EXTRACT: note_off channel=2 note=85 velocity=64 time=0
EXTRACT: note_off channel=2 note=81 velocity=64 time=0
EXTRACT: note_on channel=2 note=88 velocity=72 time=0
EXTRACT: note_on channel=2 note=85 velocity=72 time=0
EXTRACT: note_on channel=2 note=81 velocity=72 time=0
EXTRACT: note_off channel=9 note=70 velocity=64 time=0
EXTRACT: note_on channel=9 note=70 velocity=80 time=0
EXTRACT: note_off channel=9 note=42 velocity=64 time=0
EXTRACT: note_on channel=9 note=42 velocity=72 time=0
EXTRACT: note_on channel=11 note=60 velocity=80 time=0.28571399999999997
EXTRACT: note_off channel=2 note=88 velocity=64 time=0
EXTRACT: note_off channel=2 note=85 velocity=64 time=0
EXTRACT: note_off channel=2 note=81 velocity=64 time=0
EXTRACT: note_on channel=2 note=88 velocity=72 time=0
EXTRACT: note_on channel=2 note=85 velocity=72 time=0
EXTRACT: note_on channel=2 note=81 velocity=72 time=0
EXTRACT: note_off channel=9 note=70 velocity=64 time=0
EXTRACT: note_on channel=9 note=70 velocity=80 time=0
EXTRACT: note_off channel=9 note=42 velocity=64 time=0
EXTRACT: note_on channel=9 note=42 velocity=72 time=0
EXTRACT: note_on channel=9 note=38 velocity=72 time=0
EXTRACT: note_on channel=4 note=30 velocity=80 time=0.14285699999999998
EXTRACT: note_off channel=11 note=60 velocity=64 time=0.14285699999999998
EXTRACT: note_off channel=4 note=30 velocity=64 time=0
EXTRACT: note_on channel=4 note=33 velocity=80 time=0
EXTRACT: note_off channel=2 note=88 velocity=64 time=0
EXTRACT: note_off channel=2 note=85 velocity=64 time=0
EXTRACT: note_off channel=2 note=81 velocity=64 time=0
EXTRACT: note_on channel=2 note=88 velocity=72 time=0
EXTRACT: note_on channel=2 note=85 velocity=72 time=0
EXTRACT: note_on channel=2 note=81 velocity=72 time=0
EXTRACT: note_off channel=9 note=70 velocity=64 time=0
EXTRACT: note_on channel=9 note=70 velocity=80 time=0
EXTRACT: note_off channel=9 note=42 velocity=64 time=0
EXTRACT: note_off channel=9 note=38 velocity=64 time=0
EXTRACT: note_on channel=9 note=42 velocity=72 time=0
EXTRACT: note_off channel=4 note=33 velocity=64 time=0.14285699999999998
EXTRACT: note_on channel=4 note=35 velocity=80 time=0
EXTRACT: note_on channel=11 note=57 velocity=80 time=0.14285699999999998
EXTRACT: note_off channel=4 note=35 velocity=64 time=0
EXTRACT: note_on channel=4 note=38 velocity=80 time=0
EXTRACT: note_off channel=2 note=88 velocity=64 time=0
EXTRACT: note_off channel=2 note=85 velocity=64 time=0
EXTRACT: note_off channel=2 note=81 velocity=64 time=0
EXTRACT: note_on channel=2 note=88 velocity=72 time=0
EXTRACT: note_on channel=2 note=84 velocity=72 time=0
EXTRACT: note_on channel=2 note=81 velocity=72 time=0
EXTRACT: note_off channel=9 note=70 velocity=64 time=0
EXTRACT: note_on channel=9 note=70 velocity=80 time=0
EXTRACT: note_off channel=9 note=42 velocity=64 time=0
EXTRACT: note_on channel=9 note=42 velocity=72 time=0
EXTRACT: note_on channel=9 note=35 velocity=72 time=0
EXTRACT: note_off channel=9 note=70 velocity=64 time=0.14285699999999998
EXTRACT: note_on channel=9 note=70 velocity=80 time=0
EXTRACT: note_off channel=11 note=57 velocity=64 time=0.14285699999999998
EXTRACT: note_off channel=2 note=88 velocity=64 time=0
EXTRACT: note_off channel=2 note=84 velocity=64 time=0
EXTRACT: note_off channel=2 note=81 velocity=64 time=0
EXTRACT: note_on channel=2 note=88 velocity=72 time=0
EXTRACT: note_on channel=2 note=84 velocity=72 time=0
EXTRACT: note_on channel=2 note=81 velocity=72 time=0
EXTRACT: note_off channel=9 note=70 velocity=64 time=0
EXTRACT: note_on channel=9 note=70 velocity=80 time=0
EXTRACT: note_off channel=9 note=42 velocity=64 time=0
EXTRACT: note_off channel=9 note=35 velocity=64 time=0
EXTRACT: note_on channel=9 note=42 velocity=72 time=0
EXTRACT: note_off channel=4 note=38 velocity=64 time=0.28571399999999997
EXTRACT: note_off channel=2 note=88 velocity=64 time=0
EXTRACT: note_off channel=2 note=84 velocity=64 time=0
EXTRACT: note_off channel=2 note=81 velocity=64 time=0
EXTRACT: note_on channel=2 note=88 velocity=72 time=0
EXTRACT: note_on channel=2 note=84 velocity=72 time=0
EXTRACT: note_on channel=2 note=81 velocity=72 time=0
EXTRACT: note_off channel=9 note=70 velocity=64 time=0
EXTRACT: note_on channel=9 note=70 velocity=80 time=0
EXTRACT: note_off channel=9 note=42 velocity=64 time=0
EXTRACT: note_on channel=9 note=42 velocity=72 time=0
EXTRACT: note_on channel=9 note=38 velocity=72 time=0
EXTRACT: note_off channel=2 note=88 velocity=64 time=0.28571399999999997
EXTRACT: note_off channel=2 note=84 velocity=64 time=0
EXTRACT: note_off channel=2 note=81 velocity=64 time=0
EXTRACT: note_on channel=2 note=88 velocity=72 time=0
EXTRACT: note_on channel=2 note=84 velocity=72 time=0
EXTRACT: note_on channel=2 note=81 velocity=72 time=0
EXTRACT: note_off channel=9 note=70 velocity=64 time=0
EXTRACT: note_on channel=9 note=70 velocity=80 time=0
EXTRACT: note_off channel=9 note=42 velocity=64 time=0
EXTRACT: note_off channel=9 note=38 velocity=64 time=0
EXTRACT: note_on channel=9 note=42 velocity=72 time=0
EXTRACT: note_on channel=4 note=38 velocity=80 time=0.14285699999999998
EXTRACT: note_off channel=9 note=42 velocity=64 time=0
EXTRACT: note_on channel=9 note=35 velocity=72 time=0
EXTRACT: note_off channel=4 note=38 velocity=64 time=0.14285699999999998
EXTRACT: note_off channel=2 note=88 velocity=64 time=0
EXTRACT: note_off channel=2 note=84 velocity=64 time=0
EXTRACT: note_off channel=2 note=81 velocity=64 time=0
EXTRACT: note_on channel=2 note=88 velocity=72 time=0
EXTRACT: note_on channel=2 note=84 velocity=72 time=0
EXTRACT: note_on channel=2 note=81 velocity=72 time=0
EXTRACT: note_off channel=9 note=70 velocity=64 time=0
EXTRACT: note_on channel=9 note=70 velocity=80 time=0
EXTRACT: note_off channel=9 note=35 velocity=64 time=0
EXTRACT: note_on channel=9 note=42 velocity=72 time=0
EXTRACT: note_off channel=9 note=70 velocity=64 time=0.14285699999999998
EXTRACT: note_on channel=9 note=70 velocity=80 time=0
EXTRACT: note_off channel=2 note=88 velocity=64 time=0.14285699999999998
EXTRACT: note_off channel=2 note=84 velocity=64 time=0
EXTRACT: note_off channel=2 note=81 velocity=64 time=0
EXTRACT: note_on channel=2 note=88 velocity=72 time=0
EXTRACT: note_on channel=2 note=84 velocity=72 time=0
EXTRACT: note_on channel=2 note=81 velocity=72 time=0
EXTRACT: note_off channel=9 note=70 velocity=64 time=0
EXTRACT: note_on channel=9 note=70 velocity=80 time=0
EXTRACT: note_off channel=9 note=42 velocity=64 time=0
EXTRACT: note_on channel=9 note=42 velocity=72 time=0
EXTRACT: note_off channel=2 note=88 velocity=64 time=0.28571399999999997
EXTRACT: note_off channel=2 note=84 velocity=64 time=0
EXTRACT: note_off channel=2 note=81 velocity=64 time=0
EXTRACT: note_on channel=2 note=88 velocity=72 time=0
EXTRACT: note_on channel=2 note=84 velocity=72 time=0
EXTRACT: note_on channel=2 note=81 velocity=72 time=0
EXTRACT: note_off channel=9 note=70 velocity=64 time=0
EXTRACT: note_on channel=9 note=70 velocity=80 time=0
EXTRACT: note_off channel=9 note=42 velocity=64 time=0
EXTRACT: note_on channel=9 note=42 velocity=72 time=0
EXTRACT: note_on channel=9 note=38 velocity=72 time=0
EXTRACT: note_off channel=2 note=88 velocity=64 time=0.28571399999999997
EXTRACT: note_off channel=2 note=84 velocity=64 time=0
EXTRACT: note_off channel=2 note=81 velocity=64 time=0
EXTRACT: note_on channel=2 note=88 velocity=72 time=0
EXTRACT: note_on channel=2 note=84 velocity=72 time=0
EXTRACT: note_on channel=2 note=81 velocity=72 time=0
EXTRACT: note_off channel=9 note=70 velocity=64 time=0
EXTRACT: note_on channel=9 note=70 velocity=80 time=0
EXTRACT: note_off channel=9 note=42 velocity=64 time=0
EXTRACT: note_off channel=9 note=38 velocity=64 time=0
EXTRACT: note_on channel=9 note=42 velocity=72 time=0
EXTRACT: note_on channel=4 note=33 velocity=80 time=0.14285699999999998
EXTRACT: note_off channel=4 note=33 velocity=64 time=0.14285699999999998
EXTRACT: note_on channel=4 note=31 velocity=80 time=0
EXTRACT: note_off channel=2 note=88 velocity=64 time=0
EXTRACT: note_off channel=2 note=84 velocity=64 time=0
EXTRACT: note_off channel=2 note=81 velocity=64 time=0
EXTRACT: note_on channel=2 note=88 velocity=72 time=0
EXTRACT: note_on channel=2 note=84 velocity=72 time=0
EXTRACT: note_on channel=2 note=81 velocity=72 time=0
EXTRACT: note_off channel=9 note=70 velocity=64 time=0
EXTRACT: note_on channel=9 note=70 velocity=80 time=0
EXTRACT: note_off channel=9 note=42 velocity=64 time=0
EXTRACT: note_on channel=9 note=42 velocity=72 time=0
EXTRACT: note_on channel=9 note=35 velocity=72 time=0
EXTRACT: note_off channel=9 note=70 velocity=64 time=0.14285699999999998
EXTRACT: note_on channel=9 note=70 velocity=80 time=0
EXTRACT: note_off channel=2 note=88 velocity=64 time=0.14285699999999998
EXTRACT: note_off channel=2 note=84 velocity=64 time=0
EXTRACT: note_off channel=2 note=81 velocity=64 time=0
EXTRACT: note_on channel=2 note=88 velocity=72 time=0
EXTRACT: note_on channel=2 note=84 velocity=72 time=0
EXTRACT: note_on channel=2 note=81 velocity=72 time=0
EXTRACT: note_off channel=9 note=70 velocity=64 time=0
EXTRACT: note_on channel=9 note=70 velocity=80 time=0
EXTRACT: note_off channel=9 note=42 velocity=64 time=0
EXTRACT: note_off channel=9 note=35 velocity=64 time=0
EXTRACT: note_on channel=9 note=42 velocity=72 time=0
EXTRACT: note_off channel=4 note=31 velocity=64 time=0.28571399999999997
EXTRACT: note_off channel=2 note=88 velocity=64 time=0
EXTRACT: note_off channel=2 note=84 velocity=64 time=0
EXTRACT: note_off channel=2 note=81 velocity=64 time=0
EXTRACT: note_on channel=2 note=88 velocity=72 time=0
EXTRACT: note_on channel=2 note=84 velocity=72 time=0
EXTRACT: note_on channel=2 note=81 velocity=72 time=0
EXTRACT: note_off channel=9 note=70 velocity=64 time=0
EXTRACT: note_on channel=9 note=70 velocity=80 time=0
EXTRACT: note_off channel=9 note=42 velocity=64 time=0
EXTRACT: note_on channel=9 note=42 velocity=72 time=0
EXTRACT: note_on channel=9 note=38 velocity=72 time=0
EXTRACT: note_off channel=2 note=88 velocity=64 time=0.28571399999999997
EXTRACT: note_off channel=2 note=84 velocity=64 time=0
EXTRACT: note_off channel=2 note=81 velocity=64 time=0
EXTRACT: note_on channel=2 note=88 velocity=72 time=0
EXTRACT: note_on channel=2 note=84 velocity=72 time=0
EXTRACT: note_on channel=2 note=81 velocity=72 time=0
EXTRACT: note_off channel=9 note=70 velocity=64 time=0
EXTRACT: note_on channel=9 note=70 velocity=80 time=0
EXTRACT: note_off channel=9 note=42 velocity=64 time=0
EXTRACT: note_off channel=9 note=38 velocity=64 time=0
EXTRACT: note_on channel=9 note=42 velocity=72 time=0
EXTRACT: note_on channel=4 note=31 velocity=80 time=0.14285699999999998
EXTRACT: note_off channel=9 note=42 velocity=64 time=0
EXTRACT: note_on channel=9 note=35 velocity=72 time=0
EXTRACT: note_off channel=4 note=31 velocity=64 time=0.14285699999999998
EXTRACT: note_off channel=2 note=88 velocity=64 time=0
EXTRACT: note_off channel=2 note=84 velocity=64 time=0
EXTRACT: note_off channel=2 note=81 velocity=64 time=0
EXTRACT: note_on channel=2 note=88 velocity=72 time=0
EXTRACT: note_on channel=2 note=84 velocity=72 time=0
EXTRACT: note_on channel=2 note=81 velocity=72 time=0
EXTRACT: note_off channel=9 note=70 velocity=64 time=0
EXTRACT: note_on channel=9 note=70 velocity=80 time=0
EXTRACT: note_off channel=9 note=35 velocity=64 time=0
EXTRACT: note_on channel=9 note=42 velocity=72 time=0
EXTRACT: note_off channel=9 note=70 velocity=64 time=0.14285699999999998
EXTRACT: note_on channel=9 note=70 velocity=80 time=0
EXTRACT: note_on channel=4 note=28 velocity=80 time=0.14285699999999998
EXTRACT: note_off channel=2 note=88 velocity=64 time=0
EXTRACT: note_off channel=2 note=84 velocity=64 time=0
EXTRACT: note_off channel=2 note=81 velocity=64 time=0
EXTRACT: note_on channel=2 note=88 velocity=72 time=0
EXTRACT: note_on channel=2 note=84 velocity=72 time=0
EXTRACT: note_on channel=2 note=81 velocity=72 time=0
EXTRACT: note_off channel=9 note=70 velocity=64 time=0
EXTRACT: note_on channel=9 note=70 velocity=80 time=0
EXTRACT: note_off channel=9 note=42 velocity=64 time=0
EXTRACT: note_on channel=9 note=42 velocity=72 time=0
EXTRACT: note_off channel=4 note=28 velocity=64 time=0.28571399999999997
EXTRACT: note_off channel=2 note=88 velocity=64 time=0
EXTRACT: note_off channel=2 note=84 velocity=64 time=0
EXTRACT: note_off channel=2 note=81 velocity=64 time=0
EXTRACT: note_on channel=2 note=88 velocity=72 time=0
EXTRACT: note_on channel=2 note=84 velocity=72 time=0
EXTRACT: note_on channel=2 note=79 velocity=72 time=0
EXTRACT: note_on channel=8 note=69 velocity=72 time=0
EXTRACT: note_off channel=9 note=70 velocity=64 time=0
EXTRACT: note_on channel=9 note=70 velocity=80 time=0
EXTRACT: note_off channel=9 note=42 velocity=64 time=0
EXTRACT: note_on channel=9 note=42 velocity=72 time=0
EXTRACT: note_on channel=9 note=38 velocity=72 time=0
EXTRACT: note_on channel=4 note=31 velocity=80 time=0.14285699999999998
EXTRACT: note_off channel=2 note=88 velocity=64 time=0.14285699999999998
EXTRACT: note_off channel=2 note=84 velocity=64 time=0
EXTRACT: note_off channel=2 note=79 velocity=64 time=0
EXTRACT: note_on channel=2 note=88 velocity=72 time=0
EXTRACT: note_on channel=2 note=84 velocity=72 time=0
EXTRACT: note_on channel=2 note=79 velocity=72 time=0
EXTRACT: note_off channel=9 note=70 velocity=64 time=0
EXTRACT: note_on channel=9 note=70 velocity=80 time=0
EXTRACT: note_off channel=9 note=42 velocity=64 time=0
EXTRACT: note_off channel=9 note=38 velocity=64 time=0
EXTRACT: note_on channel=9 note=42 velocity=72 time=0
EXTRACT: note_off channel=4 note=31 velocity=64 time=0.14285699999999998
EXTRACT: note_on channel=4 note=32 velocity=80 time=0
EXTRACT: note_on channel=11 note=59 velocity=80 time=0.14285699999999998
EXTRACT: note_off channel=4 note=32 velocity=64 time=0
EXTRACT: note_on channel=4 note=33 velocity=80 time=0
EXTRACT: note_off channel=2 note=88 velocity=64 time=0
EXTRACT: note_off channel=2 note=84 velocity=64 time=0
EXTRACT: note_off channel=2 note=79 velocity=64 time=0
EXTRACT: note_on channel=2 note=88 velocity=72 time=0
EXTRACT: note_on channel=2 note=84 velocity=72 time=0
EXTRACT: note_on channel=2 note=81 velocity=72 time=0
EXTRACT: note_off channel=8 note=69 velocity=64 time=0
EXTRACT: note_on channel=8 note=71 velocity=72 time=0
EXTRACT: note_off channel=9 note=70 velocity=64 time=0
EXTRACT: note_on channel=9 note=70 velocity=80 time=0
EXTRACT: note_off channel=9 note=42 velocity=64 time=0
EXTRACT: note_on channel=9 note=42 velocity=72 time=0
EXTRACT: note_on channel=9 note=35 velocity=72 time=0
EXTRACT: note_off channel=9 note=70 velocity=64 time=0.14285699999999998
EXTRACT: note_on channel=9 note=70 velocity=80 time=0
EXTRACT: note_off channel=11 note=59 velocity=64 time=0.14285699999999998
EXTRACT: note_off channel=2 note=88 velocity=64 time=0
EXTRACT: note_off channel=2 note=84 velocity=64 time=0
EXTRACT: note_off channel=2 note=81 velocity=64 time=0
EXTRACT: note_on channel=2 note=88 velocity=72 time=0
EXTRACT: note_on channel=2 note=84 velocity=72 time=0
EXTRACT: note_on channel=2 note=81 velocity=72 time=0
EXTRACT: note_off channel=8 note=71 velocity=64 time=0
EXTRACT: note_on channel=8 note=69 velocity=72 time=0
EXTRACT: note_off channel=9 note=70 velocity=64 time=0
EXTRACT: note_on channel=9 note=70 velocity=80 time=0
EXTRACT: note_off channel=9 note=42 velocity=64 time=0
EXTRACT: note_off channel=9 note=35 velocity=64 time=0
EXTRACT: note_on channel=9 note=42 velocity=72 time=0
EXTRACT: note_off channel=4 note=33 velocity=64 time=0.28571399999999997
EXTRACT: note_off channel=2 note=88 velocity=64 time=0
EXTRACT: note_off channel=2 note=84 velocity=64 time=0
EXTRACT: note_off channel=2 note=81 velocity=64 time=0
EXTRACT: note_on channel=2 note=88 velocity=72 time=0
EXTRACT: note_on channel=2 note=84 velocity=72 time=0
EXTRACT: note_on channel=2 note=81 velocity=72 time=0
EXTRACT: note_off channel=8 note=69 velocity=64 time=0
EXTRACT: note_on channel=8 note=71 velocity=72 time=0
EXTRACT: note_off channel=9 note=70 velocity=64 time=0
EXTRACT: note_on channel=9 note=70 velocity=80 time=0
EXTRACT: note_off channel=9 note=42 velocity=64 time=0
EXTRACT: note_on channel=9 note=42 velocity=72 time=0
EXTRACT: note_on channel=9 note=38 velocity=72 time=0
EXTRACT: note_on channel=11 note=57 velocity=80 time=0.28571399999999997
EXTRACT: note_off channel=2 note=88 velocity=64 time=0
EXTRACT: note_off channel=2 note=84 velocity=64 time=0
EXTRACT: note_off channel=2 note=81 velocity=64 time=0
EXTRACT: note_on channel=2 note=88 velocity=72 time=0
EXTRACT: note_on channel=2 note=84 velocity=72 time=0
EXTRACT: note_on channel=2 note=81 velocity=72 time=0
EXTRACT: note_off channel=8 note=71 velocity=64 time=0
EXTRACT: note_on channel=8 note=69 velocity=72 time=0
EXTRACT: note_off channel=9 note=70 velocity=64 time=0
EXTRACT: note_on channel=9 note=70 velocity=80 time=0
EXTRACT: note_off channel=9 note=42 velocity=64 time=0
EXTRACT: note_off channel=9 note=38 velocity=64 time=0
EXTRACT: note_on channel=9 note=42 velocity=72 time=0
EXTRACT: note_on channel=4 note=33 velocity=80 time=0.14285699999999998
EXTRACT: note_off channel=8 note=69 velocity=64 time=0
EXTRACT: note_on channel=8 note=71 velocity=72 time=0
EXTRACT: note_off channel=9 note=42 velocity=64 time=0
EXTRACT: note_on channel=9 note=35 velocity=72 time=0
EXTRACT: note_off channel=11 note=57 velocity=64 time=0.14285699999999998
EXTRACT: note_off channel=4 note=33 velocity=64 time=0
EXTRACT: note_off channel=2 note=88 velocity=64 time=0
EXTRACT: note_off channel=2 note=84 velocity=64 time=0
EXTRACT: note_off channel=2 note=81 velocity=64 time=0
EXTRACT: note_on channel=2 note=88 velocity=72 time=0
EXTRACT: note_on channel=2 note=84 velocity=72 time=0
EXTRACT: note_on channel=2 note=81 velocity=72 time=0
EXTRACT: note_off channel=8 note=71 velocity=64 time=0
EXTRACT: note_off channel=9 note=70 velocity=64 time=0
EXTRACT: note_on channel=9 note=70 velocity=80 time=0
EXTRACT: note_off channel=9 note=35 velocity=64 time=0
EXTRACT: note_on channel=9 note=42 velocity=72 time=0
EXTRACT: note_on channel=8 note=69 velocity=72 time=0.14285699999999998
EXTRACT: note_off channel=9 note=70 velocity=64 time=0
EXTRACT: note_on channel=9 note=70 velocity=80 time=0
EXTRACT: note_off channel=2 note=88 velocity=64 time=0.14285699999999998
EXTRACT: note_off channel=2 note=84 velocity=64 time=0
EXTRACT: note_off channel=2 note=81 velocity=64 time=0
EXTRACT: note_on channel=2 note=88 velocity=72 time=0
EXTRACT: note_on channel=2 note=84 velocity=72 time=0
EXTRACT: note_on channel=2 note=81 velocity=72 time=0
EXTRACT: note_off channel=8 note=69 velocity=64 time=0
EXTRACT: note_on channel=8 note=71 velocity=72 time=0
EXTRACT: note_off channel=9 note=70 velocity=64 time=0
EXTRACT: note_on channel=9 note=70 velocity=80 time=0
EXTRACT: note_off channel=9 note=42 velocity=64 time=0
EXTRACT: note_on channel=9 note=42 velocity=72 time=0
EXTRACT: note_on channel=11 note=60 velocity=80 time=0.28571399999999997
EXTRACT: note_off channel=2 note=88 velocity=64 time=0
EXTRACT: note_off channel=2 note=84 velocity=64 time=0
EXTRACT: note_off channel=2 note=81 velocity=64 time=0
EXTRACT: note_on channel=2 note=88 velocity=72 time=0
EXTRACT: note_on channel=2 note=84 velocity=72 time=0
EXTRACT: note_on channel=2 note=81 velocity=72 time=0
EXTRACT: note_off channel=8 note=71 velocity=64 time=0
EXTRACT: note_on channel=8 note=69 velocity=72 time=0
EXTRACT: note_off channel=9 note=70 velocity=64 time=0
EXTRACT: note_on channel=9 note=70 velocity=80 time=0
EXTRACT: note_off channel=9 note=42 velocity=64 time=0
EXTRACT: note_on channel=9 note=42 velocity=72 time=0
EXTRACT: note_on channel=9 note=38 velocity=72 time=0
EXTRACT: note_off channel=8 note=69 velocity=64 time=0.14285699999999998
EXTRACT: note_on channel=8 note=71 velocity=72 time=0
EXTRACT: note_off channel=11 note=60 velocity=64 time=0.14285699999999998
EXTRACT: note_off channel=2 note=88 velocity=64 time=0
EXTRACT: note_off channel=2 note=84 velocity=64 time=0
EXTRACT: note_off channel=2 note=81 velocity=64 time=0
EXTRACT: note_on channel=2 note=88 velocity=72 time=0
EXTRACT: note_on channel=2 note=84 velocity=72 time=0
EXTRACT: note_on channel=2 note=81 velocity=72 time=0
EXTRACT: note_off channel=9 note=70 velocity=64 time=0
EXTRACT: note_on channel=9 note=70 velocity=80 time=0
EXTRACT: note_off channel=9 note=42 velocity=64 time=0
EXTRACT: note_off channel=9 note=38 velocity=64 time=0
EXTRACT: note_on channel=9 note=42 velocity=72 time=0
EXTRACT: note_off channel=8 note=71 velocity=64 time=0.14285699999999998
EXTRACT: note_on channel=8 note=69 velocity=72 time=0
EXTRACT: note_on channel=11 note=59 velocity=80 time=0.14285699999999998
EXTRACT: note_on channel=4 note=30 velocity=80 time=0
EXTRACT: note_off channel=2 note=88 velocity=64 time=0
EXTRACT: note_off channel=2 note=84 velocity=64 time=0
EXTRACT: note_off channel=2 note=81 velocity=64 time=0
EXTRACT: note_on channel=2 note=88 velocity=72 time=0
EXTRACT: note_on channel=2 note=85 velocity=72 time=0
EXTRACT: note_on channel=2 note=81 velocity=72 time=0
EXTRACT: note_off channel=8 note=69 velocity=64 time=0
EXTRACT: note_on channel=8 note=71 velocity=72 time=0
EXTRACT: note_off channel=9 note=70 velocity=64 time=0
EXTRACT: note_on channel=9 note=70 velocity=80 time=0
EXTRACT: note_off channel=9 note=42 velocity=64 time=0
EXTRACT: note_on channel=9 note=42 velocity=72 time=0
EXTRACT: note_on channel=9 note=35 velocity=72 time=0
EXTRACT: note_off channel=9 note=70 velocity=64 time=0.14285699999999998
EXTRACT: note_on channel=9 note=70 velocity=80 time=0
EXTRACT: note_off channel=11 note=59 velocity=64 time=0.14285699999999998
EXTRACT: note_off channel=2 note=88 velocity=64 time=0
EXTRACT: note_off channel=2 note=85 velocity=64 time=0
EXTRACT: note_off channel=2 note=81 velocity=64 time=0
EXTRACT: note_on channel=2 note=88 velocity=72 time=0
EXTRACT: note_on channel=2 note=85 velocity=72 time=0
EXTRACT: note_on channel=2 note=81 velocity=72 time=0
EXTRACT: note_off channel=8 note=71 velocity=64 time=0
EXTRACT: note_on channel=8 note=69 velocity=72 time=0
EXTRACT: note_off channel=9 note=70 velocity=64 time=0
EXTRACT: note_on channel=9 note=70 velocity=80 time=0
EXTRACT: note_off channel=9 note=42 velocity=64 time=0
EXTRACT: note_off channel=9 note=35 velocity=64 time=0
EXTRACT: note_on channel=9 note=42 velocity=72 time=0
EXTRACT: note_off channel=4 note=30 velocity=64 time=0.28571399999999997
EXTRACT: note_off channel=2 note=88 velocity=64 time=0
EXTRACT: note_off channel=2 note=85 velocity=64 time=0
EXTRACT: note_off channel=2 note=81 velocity=64 time=0
EXTRACT: note_on channel=2 note=88 velocity=72 time=0
EXTRACT: note_on channel=2 note=85 velocity=72 time=0
EXTRACT: note_on channel=2 note=81 velocity=72 time=0
EXTRACT: note_off channel=8 note=69 velocity=64 time=0
EXTRACT: note_on channel=8 note=71 velocity=72 time=0
EXTRACT: note_off channel=9 note=70 velocity=64 time=0
EXTRACT: note_on channel=9 note=70 velocity=80 time=0
EXTRACT: note_off channel=9 note=42 velocity=64 time=0
EXTRACT: note_on channel=9 note=42 velocity=72 time=0
EXTRACT: note_on channel=9 note=38 velocity=72 time=0
EXTRACT: note_on channel=11 note=52 velocity=80 time=0.28571399999999997
EXTRACT: note_off channel=2 note=88 velocity=64 time=0
EXTRACT: note_off channel=2 note=85 velocity=64 time=0
EXTRACT: note_off channel=2 note=81 velocity=64 time=0
EXTRACT: note_on channel=2 note=88 velocity=72 time=0
EXTRACT: note_on channel=2 note=85 velocity=72 time=0
EXTRACT: note_on channel=2 note=81 velocity=72 time=0
EXTRACT: note_off channel=8 note=71 velocity=64 time=0
EXTRACT: note_on channel=8 note=69 velocity=72 time=0
EXTRACT: note_off channel=9 note=70 velocity=64 time=0
EXTRACT: note_on channel=9 note=70 velocity=80 time=0
EXTRACT: note_off channel=9 note=42 velocity=64 time=0
EXTRACT: note_off channel=9 note=38 velocity=64 time=0
EXTRACT: note_on channel=9 note=42 velocity=72 time=0
EXTRACT: note_on channel=4 note=30 velocity=80 time=0.14285699999999998
EXTRACT: note_off channel=8 note=69 velocity=64 time=0
EXTRACT: note_on channel=8 note=71 velocity=72 time=0
EXTRACT: note_off channel=9 note=42 velocity=64 time=0
EXTRACT: note_on channel=9 note=35 velocity=72 time=0
EXTRACT: note_off channel=11 note=52 velocity=64 time=0.14285699999999998
EXTRACT: note_off channel=4 note=30 velocity=64 time=0
EXTRACT: note_off channel=2 note=88 velocity=64 time=0
EXTRACT: note_off channel=2 note=85 velocity=64 time=0
EXTRACT: note_off channel=2 note=81 velocity=64 time=0
EXTRACT: note_on channel=2 note=88 velocity=72 time=0
EXTRACT: note_on channel=2 note=85 velocity=72 time=0
EXTRACT: note_on channel=2 note=81 velocity=72 time=0
EXTRACT: note_off channel=8 note=71 velocity=64 time=0
EXTRACT: note_off channel=9 note=70 velocity=64 time=0
EXTRACT: note_on channel=9 note=70 velocity=80 time=0
EXTRACT: note_off channel=9 note=35 velocity=64 time=0
EXTRACT: note_on channel=9 note=42 velocity=72 time=0
EXTRACT: note_on channel=8 note=69 velocity=72 time=0.14285699999999998
EXTRACT: note_off channel=9 note=70 velocity=64 time=0
EXTRACT: note_on channel=9 note=70 velocity=80 time=0
EXTRACT: note_off channel=2 note=88 velocity=64 time=0.14285699999999998
EXTRACT: note_off channel=2 note=85 velocity=64 time=0
EXTRACT: note_off channel=2 note=81 velocity=64 time=0
EXTRACT: note_on channel=2 note=88 velocity=72 time=0
EXTRACT: note_on channel=2 note=85 velocity=72 time=0
EXTRACT: note_on channel=2 note=81 velocity=72 time=0
EXTRACT: note_off channel=8 note=69 velocity=64 time=0
EXTRACT: note_on channel=8 note=71 velocity=72 time=0
EXTRACT: note_off channel=9 note=70 velocity=64 time=0
EXTRACT: note_on channel=9 note=70 velocity=80 time=0
EXTRACT: note_off channel=9 note=42 velocity=64 time=0
EXTRACT: note_on channel=9 note=42 velocity=72 time=0
EXTRACT: note_on channel=11 note=60 velocity=80 time=0.28571399999999997
EXTRACT: note_off channel=2 note=88 velocity=64 time=0
EXTRACT: note_off channel=2 note=85 velocity=64 time=0
EXTRACT: note_off channel=2 note=81 velocity=64 time=0
EXTRACT: note_on channel=2 note=88 velocity=72 time=0
EXTRACT: note_on channel=2 note=85 velocity=72 time=0
EXTRACT: note_on channel=2 note=81 velocity=72 time=0
EXTRACT: note_off channel=8 note=71 velocity=64 time=0
EXTRACT: note_on channel=8 note=69 velocity=72 time=0
EXTRACT: note_off channel=9 note=70 velocity=64 time=0
EXTRACT: note_on channel=9 note=70 velocity=80 time=0
EXTRACT: note_off channel=9 note=42 velocity=64 time=0
EXTRACT: note_on channel=9 note=42 velocity=72 time=0
EXTRACT: note_on channel=9 note=38 velocity=72 time=0
EXTRACT: note_on channel=4 note=33 velocity=80 time=0.14285699999999998
EXTRACT: note_off channel=8 note=69 velocity=64 time=0
EXTRACT: note_on channel=8 note=71 velocity=72 time=0
EXTRACT: note_off channel=11 note=60 velocity=64 time=0.14285699999999998
EXTRACT: note_off channel=4 note=33 velocity=64 time=0
EXTRACT: note_on channel=4 note=40 velocity=80 time=0
EXTRACT: note_off channel=2 note=88 velocity=64 time=0
EXTRACT: note_off channel=2 note=85 velocity=64 time=0
EXTRACT: note_off channel=2 note=81 velocity=64 time=0
EXTRACT: note_on channel=2 note=88 velocity=72 time=0
EXTRACT: note_on channel=2 note=85 velocity=72 time=0
EXTRACT: note_on channel=2 note=81 velocity=72 time=0
EXTRACT: note_off channel=9 note=70 velocity=64 time=0
EXTRACT: note_on channel=9 note=70 velocity=80 time=0
EXTRACT: note_off channel=9 note=42 velocity=64 time=0
EXTRACT: note_off channel=9 note=38 velocity=64 time=0
EXTRACT: note_on channel=9 note=42 velocity=72 time=0
EXTRACT: note_off channel=4 note=40 velocity=64 time=0.14285699999999998
EXTRACT: note_on channel=4 note=39 velocity=80 time=0
EXTRACT: note_off channel=8 note=71 velocity=64 time=0
EXTRACT: note_on channel=8 note=69 velocity=72 time=0
EXTRACT: note_on channel=11 note=57 velocity=80 time=0.14285699999999998
EXTRACT: note_off channel=4 note=39 velocity=64 time=0
EXTRACT: note_on channel=4 note=38 velocity=80 time=0
EXTRACT: note_off channel=2 note=88 velocity=64 time=0
EXTRACT: note_off channel=2 note=85 velocity=64 time=0
EXTRACT: note_off channel=2 note=81 velocity=64 time=0
EXTRACT: note_on channel=2 note=88 velocity=72 time=0
EXTRACT: note_on channel=2 note=84 velocity=72 time=0
EXTRACT: note_on channel=2 note=81 velocity=72 time=0
EXTRACT: note_off channel=8 note=69 velocity=64 time=0
EXTRACT: note_on channel=8 note=71 velocity=72 time=0
EXTRACT: note_off channel=9 note=70 velocity=64 time=0
EXTRACT: note_on channel=9 note=70 velocity=80 time=0
EXTRACT: note_off channel=9 note=42 velocity=64 time=0
EXTRACT: note_on channel=9 note=42 velocity=72 time=0
EXTRACT: note_on channel=9 note=35 velocity=72 time=0
EXTRACT: note_off channel=9 note=70 velocity=64 time=0.14285699999999998
EXTRACT: note_on channel=9 note=70 velocity=80 time=0
EXTRACT: note_off channel=11 note=57 velocity=64 time=0.14285699999999998
EXTRACT: note_off channel=2 note=88 velocity=64 time=0
EXTRACT: note_off channel=2 note=84 velocity=64 time=0
EXTRACT: note_off channel=2 note=81 velocity=64 time=0
EXTRACT: note_on channel=2 note=88 velocity=72 time=0
EXTRACT: note_on channel=2 note=84 velocity=72 time=0
EXTRACT: note_on channel=2 note=81 velocity=72 time=0
EXTRACT: note_off channel=8 note=71 velocity=64 time=0
EXTRACT: note_on channel=8 note=69 velocity=72 time=0
EXTRACT: note_off channel=9 note=70 velocity=64 time=0
EXTRACT: note_on channel=9 note=70 velocity=80 time=0
EXTRACT: note_off channel=9 note=42 velocity=64 time=0
EXTRACT: note_off channel=9 note=35 velocity=64 time=0
EXTRACT: note_on channel=9 note=42 velocity=72 time=0
EXTRACT: note_off channel=4 note=38 velocity=64 time=0.28571399999999997
EXTRACT: note_off channel=2 note=88 velocity=64 time=0
EXTRACT: note_off channel=2 note=84 velocity=64 time=0
EXTRACT: note_off channel=2 note=81 velocity=64 time=0
EXTRACT: note_on channel=2 note=88 velocity=72 time=0
EXTRACT: note_on channel=2 note=84 velocity=72 time=0
EXTRACT: note_on channel=2 note=81 velocity=72 time=0
EXTRACT: note_off channel=8 note=69 velocity=64 time=0
EXTRACT: note_on channel=8 note=71 velocity=72 time=0
EXTRACT: note_off channel=9 note=70 velocity=64 time=0
EXTRACT: note_on channel=9 note=70 velocity=80 time=0
EXTRACT: note_off channel=9 note=42 velocity=64 time=0
EXTRACT: note_on channel=9 note=42 velocity=72 time=0
EXTRACT: note_on channel=9 note=38 velocity=72 time=0
EXTRACT: note_off channel=2 note=88 velocity=64 time=0.28571399999999997
EXTRACT: note_off channel=2 note=84 velocity=64 time=0
EXTRACT: note_off channel=2 note=81 velocity=64 time=0
EXTRACT: note_on channel=2 note=88 velocity=72 time=0
EXTRACT: note_on channel=2 note=84 velocity=72 time=0
EXTRACT: note_on channel=2 note=81 velocity=72 time=0
EXTRACT: note_off channel=8 note=71 velocity=64 time=0
EXTRACT: note_on channel=8 note=69 velocity=72 time=0
EXTRACT: note_off channel=9 note=70 velocity=64 time=0
EXTRACT: note_on channel=9 note=70 velocity=80 time=0
EXTRACT: note_off channel=9 note=42 velocity=64 time=0
EXTRACT: note_off channel=9 note=38 velocity=64 time=0
EXTRACT: note_on channel=9 note=42 velocity=72 time=0
EXTRACT: note_on channel=4 note=38 velocity=80 time=0.14285699999999998
EXTRACT: note_off channel=8 note=69 velocity=64 time=0
EXTRACT: note_on channel=8 note=71 velocity=72 time=0
EXTRACT: note_off channel=9 note=42 velocity=64 time=0
EXTRACT: note_on channel=9 note=35 velocity=72 time=0
EXTRACT: note_off channel=4 note=38 velocity=64 time=0.14285699999999998
EXTRACT: note_off channel=2 note=88 velocity=64 time=0
EXTRACT: note_off channel=2 note=84 velocity=64 time=0
EXTRACT: note_off channel=2 note=81 velocity=64 time=0
EXTRACT: note_on channel=2 note=88 velocity=72 time=0
EXTRACT: note_on channel=2 note=84 velocity=72 time=0
EXTRACT: note_on channel=2 note=81 velocity=72 time=0
EXTRACT: note_off channel=8 note=71 velocity=64 time=0
EXTRACT: note_off channel=9 note=70 velocity=64 time=0
EXTRACT: note_on channel=9 note=70 velocity=80 time=0
EXTRACT: note_off channel=9 note=35 velocity=64 time=0
EXTRACT: note_on channel=9 note=42 velocity=72 time=0
EXTRACT: note_on channel=4 note=38 velocity=80 time=0.14285699999999998
EXTRACT: note_on channel=8 note=69 velocity=72 time=0
EXTRACT: note_off channel=9 note=70 velocity=64 time=0
EXTRACT: note_on channel=9 note=70 velocity=80 time=0
EXTRACT: note_off channel=4 note=38 velocity=64 time=0.14285699999999998
EXTRACT: note_on channel=4 note=33 velocity=80 time=0
EXTRACT: note_off channel=2 note=88 velocity=64 time=0
EXTRACT: note_off channel=2 note=84 velocity=64 time=0
EXTRACT: note_off channel=2 note=81 velocity=64 time=0
EXTRACT: note_on channel=2 note=88 velocity=72 time=0
EXTRACT: note_on channel=2 note=84 velocity=72 time=0
EXTRACT: note_on channel=2 note=81 velocity=72 time=0
EXTRACT: note_off channel=8 note=69 velocity=64 time=0
EXTRACT: note_on channel=8 note=71 velocity=72 time=0
EXTRACT: note_off channel=9 note=70 velocity=64 time=0
EXTRACT: note_on channel=9 note=70 velocity=80 time=0
EXTRACT: note_off channel=9 note=42 velocity=64 time=0
EXTRACT: note_on channel=9 note=42 velocity=72 time=0
EXTRACT: note_off channel=4 note=33 velocity=64 time=0.28571399999999997
EXTRACT: note_off channel=2 note=88 velocity=64 time=0
EXTRACT: note_off channel=2 note=84 velocity=64 time=0
EXTRACT: note_off channel=2 note=81 velocity=64 time=0
EXTRACT: note_on channel=2 note=88 velocity=72 time=0
EXTRACT: note_on channel=2 note=84 velocity=72 time=0
EXTRACT: note_on channel=2 note=81 velocity=72 time=0
EXTRACT: note_off channel=8 note=71 velocity=64 time=0
EXTRACT: note_on channel=8 note=69 velocity=72 time=0
EXTRACT: note_off channel=9 note=70 velocity=64 time=0
EXTRACT: note_on channel=9 note=70 velocity=80 time=0
EXTRACT: note_off channel=9 note=42 velocity=64 time=0
EXTRACT: note_on channel=9 note=42 velocity=72 time=0
EXTRACT: note_on channel=9 note=38 velocity=72 time=0
EXTRACT: note_on channel=4 note=38 velocity=80 time=0.14285699999999998
EXTRACT: note_off channel=8 note=69 velocity=64 time=0
EXTRACT: note_on channel=8 note=71 velocity=72 time=0
EXTRACT: note_off channel=2 note=88 velocity=64 time=0.14285699999999998
EXTRACT: note_off channel=2 note=84 velocity=64 time=0
EXTRACT: note_off channel=2 note=81 velocity=64 time=0
EXTRACT: note_on channel=2 note=88 velocity=72 time=0
EXTRACT: note_on channel=2 note=84 velocity=72 time=0
EXTRACT: note_on channel=2 note=81 velocity=72 time=0
EXTRACT: note_off channel=9 note=70 velocity=64 time=0
EXTRACT: note_on channel=9 note=70 velocity=80 time=0
EXTRACT: note_off channel=9 note=42 velocity=64 time=0
EXTRACT: note_off channel=9 note=38 velocity=64 time=0
EXTRACT: note_on channel=9 note=42 velocity=72 time=0
EXTRACT: note_off channel=4 note=38 velocity=64 time=0.14285699999999998
EXTRACT: note_on channel=4 note=33 velocity=80 time=0
EXTRACT: note_off channel=8 note=71 velocity=64 time=0
EXTRACT: note_on channel=8 note=69 velocity=72 time=0
EXTRACT: note_off channel=4 note=33 velocity=64 time=0.14285699999999998
EXTRACT: note_on channel=4 note=31 velocity=80 time=0
EXTRACT: note_off channel=2 note=88 velocity=64 time=0
EXTRACT: note_off channel=2 note=84 velocity=64 time=0
EXTRACT: note_off channel=2 note=81 velocity=64 time=0
EXTRACT: note_on channel=2 note=88 velocity=72 time=0
EXTRACT: note_on channel=2 note=84 velocity=72 time=0
EXTRACT: note_on channel=2 note=81 velocity=72 time=0
EXTRACT: note_off channel=8 note=69 velocity=64 time=0
EXTRACT: note_on channel=8 note=71 velocity=72 time=0
EXTRACT: note_off channel=9 note=70 velocity=64 time=0
EXTRACT: note_on channel=9 note=70 velocity=80 time=0
EXTRACT: note_off channel=9 note=42 velocity=64 time=0
EXTRACT: note_on channel=9 note=42 velocity=72 time=0
EXTRACT: note_on channel=9 note=35 velocity=72 time=0
EXTRACT: note_off channel=9 note=70 velocity=64 time=0.14285699999999998
EXTRACT: note_on channel=9 note=70 velocity=80 time=0
EXTRACT: note_off channel=2 note=88 velocity=64 time=0.14285699999999998
EXTRACT: note_off channel=2 note=84 velocity=64 time=0
EXTRACT: note_off channel=2 note=81 velocity=64 time=0
EXTRACT: note_on channel=2 note=88 velocity=72 time=0
EXTRACT: note_on channel=2 note=84 velocity=72 time=0
EXTRACT: note_on channel=2 note=81 velocity=72 time=0
EXTRACT: note_off channel=8 note=71 velocity=64 time=0
EXTRACT: note_on channel=8 note=69 velocity=72 time=0
EXTRACT: note_off channel=9 note=70 velocity=64 time=0
EXTRACT: note_on channel=9 note=70 velocity=80 time=0
EXTRACT: note_off channel=9 note=42 velocity=64 time=0
EXTRACT: note_off channel=9 note=35 velocity=64 time=0
EXTRACT: note_on channel=9 note=42 velocity=72 time=0
EXTRACT: note_off channel=4 note=31 velocity=64 time=0.28571399999999997
EXTRACT: note_off channel=2 note=88 velocity=64 time=0
EXTRACT: note_off channel=2 note=84 velocity=64 time=0
EXTRACT: note_off channel=2 note=81 velocity=64 time=0
EXTRACT: note_on channel=2 note=88 velocity=72 time=0
EXTRACT: note_on channel=2 note=84 velocity=72 time=0
EXTRACT: note_on channel=2 note=81 velocity=72 time=0
EXTRACT: note_off channel=8 note=69 velocity=64 time=0
EXTRACT: note_on channel=8 note=71 velocity=72 time=0
EXTRACT: note_off channel=9 note=70 velocity=64 time=0
EXTRACT: note_on channel=9 note=70 velocity=80 time=0
EXTRACT: note_off channel=9 note=42 velocity=64 time=0
EXTRACT: note_on channel=9 note=42 velocity=72 time=0
EXTRACT: note_on channel=9 note=38 velocity=72 time=0
EXTRACT: note_off channel=2 note=88 velocity=64 time=0.28571399999999997
EXTRACT: note_off channel=2 note=84 velocity=64 time=0
EXTRACT: note_off channel=2 note=81 velocity=64 time=0
EXTRACT: note_on channel=2 note=88 velocity=72 time=0
EXTRACT: note_on channel=2 note=84 velocity=72 time=0
EXTRACT: note_on channel=2 note=81 velocity=72 time=0
EXTRACT: note_off channel=8 note=71 velocity=64 time=0
EXTRACT: note_on channel=8 note=69 velocity=72 time=0
EXTRACT: note_off channel=9 note=70 velocity=64 time=0
EXTRACT: note_on channel=9 note=70 velocity=80 time=0
EXTRACT: note_off channel=9 note=42 velocity=64 time=0
EXTRACT: note_off channel=9 note=38 velocity=64 time=0
EXTRACT: note_on channel=9 note=42 velocity=72 time=0
EXTRACT: note_on channel=4 note=31 velocity=80 time=0.14285699999999998
EXTRACT: note_off channel=8 note=69 velocity=64 time=0
EXTRACT: note_on channel=8 note=71 velocity=72 time=0
EXTRACT: note_off channel=9 note=42 velocity=64 time=0
EXTRACT: note_on channel=9 note=35 velocity=72 time=0
EXTRACT: note_off channel=4 note=31 velocity=64 time=0.14285699999999998
EXTRACT: note_off channel=2 note=88 velocity=64 time=0
EXTRACT: note_off channel=2 note=84 velocity=64 time=0
EXTRACT: note_off channel=2 note=81 velocity=64 time=0
EXTRACT: note_on channel=2 note=88 velocity=72 time=0
EXTRACT: note_on channel=2 note=84 velocity=72 time=0
EXTRACT: note_on channel=2 note=81 velocity=72 time=0
EXTRACT: note_off channel=8 note=71 velocity=64 time=0
EXTRACT: note_off channel=9 note=70 velocity=64 time=0
EXTRACT: note_on channel=9 note=70 velocity=80 time=0
EXTRACT: note_off channel=9 note=35 velocity=64 time=0
EXTRACT: note_on channel=9 note=42 velocity=72 time=0
EXTRACT: note_on channel=8 note=69 velocity=72 time=0.14285699999999998
EXTRACT: note_off channel=9 note=70 velocity=64 time=0
EXTRACT: note_on channel=9 note=70 velocity=80 time=0
EXTRACT: note_on channel=4 note=28 velocity=80 time=0.14285699999999998
EXTRACT: note_off channel=2 note=88 velocity=64 time=0
EXTRACT: note_off channel=2 note=84 velocity=64 time=0
EXTRACT: note_off channel=2 note=81 velocity=64 time=0
EXTRACT: note_on channel=2 note=88 velocity=72 time=0
EXTRACT: note_on channel=2 note=84 velocity=72 time=0
EXTRACT: note_on channel=2 note=81 velocity=72 time=0
EXTRACT: note_off channel=8 note=69 velocity=64 time=0
EXTRACT: note_on channel=8 note=71 velocity=72 time=0
EXTRACT: note_off channel=9 note=70 velocity=64 time=0
EXTRACT: note_on channel=9 note=70 velocity=80 time=0
EXTRACT: note_off channel=9 note=42 velocity=64 time=0
EXTRACT: note_on channel=9 note=42 velocity=72 time=0
EXTRACT: note_off channel=4 note=28 velocity=64 time=0.28571399999999997
EXTRACT: note_off channel=2 note=88 velocity=64 time=0
EXTRACT: note_off channel=2 note=84 velocity=64 time=0
EXTRACT: note_off channel=2 note=81 velocity=64 time=0
EXTRACT: note_on channel=2 note=88 velocity=72 time=0
EXTRACT: note_on channel=2 note=84 velocity=72 time=0
EXTRACT: note_on channel=2 note=79 velocity=72 time=0
EXTRACT: note_off channel=8 note=71 velocity=64 time=0
EXTRACT: note_on channel=8 note=69 velocity=72 time=0
EXTRACT: note_off channel=9 note=70 velocity=64 time=0
EXTRACT: note_on channel=9 note=70 velocity=80 time=0
EXTRACT: note_off channel=9 note=42 velocity=64 time=0
EXTRACT: note_on channel=9 note=42 velocity=72 time=0
EXTRACT: note_on channel=9 note=38 velocity=72 time=0
EXTRACT: note_on channel=4 note=31 velocity=80 time=0.14285699999999998
EXTRACT: note_off channel=8 note=69 velocity=64 time=0
EXTRACT: note_on channel=8 note=71 velocity=72 time=0
EXTRACT: note_off channel=2 note=88 velocity=64 time=0.14285699999999998
EXTRACT: note_off channel=2 note=84 velocity=64 time=0
EXTRACT: note_off channel=2 note=79 velocity=64 time=0
EXTRACT: note_on channel=2 note=88 velocity=72 time=0
EXTRACT: note_on channel=2 note=84 velocity=72 time=0
EXTRACT: note_on channel=2 note=79 velocity=72 time=0
EXTRACT: note_off channel=9 note=70 velocity=64 time=0
EXTRACT: note_on channel=9 note=70 velocity=80 time=0
EXTRACT: note_off channel=9 note=42 velocity=64 time=0
EXTRACT: note_off channel=9 note=38 velocity=64 time=0
EXTRACT: note_on channel=9 note=42 velocity=72 time=0
EXTRACT: note_off channel=4 note=31 velocity=64 time=0.14285699999999998
EXTRACT: note_on channel=4 note=32 velocity=80 time=0
EXTRACT: note_off channel=8 note=71 velocity=64 time=0
EXTRACT: note_on channel=8 note=69 velocity=72 time=0
EXTRACT: note_off channel=4 note=32 velocity=64 time=0.14285699999999998
EXTRACT: note_on channel=4 note=33 velocity=80 time=0
EXTRACT: note_off channel=2 note=88 velocity=64 time=0
EXTRACT: note_off channel=2 note=84 velocity=64 time=0
EXTRACT: note_off channel=2 note=79 velocity=64 time=0
EXTRACT: note_on channel=2 note=64 velocity=80 time=0
EXTRACT: note_on channel=2 note=60 velocity=80 time=0
EXTRACT: note_on channel=2 note=57 velocity=80 time=0
EXTRACT: note_on channel=2 note=55 velocity=80 time=0
EXTRACT: note_off channel=8 note=69 velocity=64 time=0
EXTRACT: note_off channel=9 note=70 velocity=64 time=0
EXTRACT: note_off channel=9 note=42 velocity=64 time=0
EXTRACT: note_on channel=9 note=42 velocity=72 time=0
EXTRACT: note_on channel=9 note=35 velocity=72 time=0
EXTRACT: note_off channel=9 note=42 velocity=64 time=0.28571399999999997
EXTRACT: note_off channel=9 note=35 velocity=64 time=0
EXTRACT: note_on channel=9 note=42 velocity=72 time=0
EXTRACT: note_off channel=4 note=33 velocity=64 time=0.28571399999999997
EXTRACT: note_off channel=2 note=64 velocity=64 time=0
EXTRACT: note_off channel=2 note=60 velocity=64 time=0
EXTRACT: note_off channel=2 note=57 velocity=64 time=0
EXTRACT: note_off channel=2 note=55 velocity=64 time=0
EXTRACT: note_on channel=2 note=64 velocity=80 time=0
EXTRACT: note_on channel=2 note=60 velocity=80 time=0
EXTRACT: note_on channel=2 note=57 velocity=80 time=0
EXTRACT: note_on channel=2 note=55 velocity=80 time=0
EXTRACT: note_off channel=9 note=42 velocity=64 time=0
EXTRACT: note_on channel=9 note=42 velocity=72 time=0
EXTRACT: note_on channel=9 note=38 velocity=72 time=0
EXTRACT: note_on channel=11 note=64 velocity=80 time=0.28571399999999997
EXTRACT: note_off channel=9 note=42 velocity=64 time=0
EXTRACT: note_off channel=9 note=38 velocity=64 time=0
EXTRACT: note_on channel=9 note=42 velocity=72 time=0
EXTRACT: note_off channel=11 note=64 velocity=64 time=0.14285699999999998
EXTRACT: note_on channel=11 note=64 velocity=80 time=0
EXTRACT: note_on channel=4 note=33 velocity=80 time=0
EXTRACT: note_off channel=9 note=42 velocity=64 time=0
EXTRACT: note_on channel=9 note=35 velocity=72 time=0
EXTRACT: note_off channel=11 note=64 velocity=64 time=0.14285699999999998
EXTRACT: note_on channel=11 note=64 velocity=80 time=0
EXTRACT: note_off channel=4 note=33 velocity=64 time=0
EXTRACT: note_off channel=2 note=64 velocity=64 time=0
EXTRACT: note_off channel=2 note=60 velocity=64 time=0
EXTRACT: note_off channel=2 note=57 velocity=64 time=0
EXTRACT: note_off channel=2 note=55 velocity=64 time=0
EXTRACT: note_off channel=9 note=35 velocity=64 time=0
EXTRACT: note_on channel=9 note=42 velocity=72 time=0
EXTRACT: note_off channel=11 note=64 velocity=64 time=0.28571399999999997
EXTRACT: note_on channel=11 note=62 velocity=80 time=0
EXTRACT: note_on channel=2 note=64 velocity=80 time=0
EXTRACT: note_on channel=2 note=60 velocity=80 time=0
EXTRACT: note_on channel=2 note=57 velocity=80 time=0
EXTRACT: note_on channel=2 note=55 velocity=80 time=0
EXTRACT: note_off channel=9 note=42 velocity=64 time=0
EXTRACT: note_on channel=9 note=42 velocity=72 time=0
EXTRACT: note_off channel=11 note=62 velocity=64 time=0.14285699999999998
EXTRACT: note_on channel=11 note=60 velocity=80 time=0
EXTRACT: note_off channel=11 note=60 velocity=64 time=0.14285699999999998
EXTRACT: note_off channel=2 note=64 velocity=64 time=0
EXTRACT: note_off channel=2 note=60 velocity=64 time=0
EXTRACT: note_off channel=2 note=57 velocity=64 time=0
EXTRACT: note_off channel=2 note=55 velocity=64 time=0
EXTRACT: note_off channel=9 note=42 velocity=64 time=0
EXTRACT: note_on channel=9 note=42 velocity=72 time=0
EXTRACT: note_on channel=9 note=38 velocity=72 time=0
EXTRACT: note_on channel=11 note=57 velocity=80 time=0.14285699999999998
EXTRACT: note_on channel=2 note=64 velocity=80 time=0
EXTRACT: note_on channel=2 note=60 velocity=80 time=0
EXTRACT: note_on channel=2 note=57 velocity=80 time=0
EXTRACT: note_on channel=2 note=55 velocity=80 time=0
EXTRACT: note_off channel=9 note=42 velocity=64 time=0.14285699999999998
EXTRACT: note_off channel=9 note=38 velocity=64 time=0
EXTRACT: note_on channel=9 note=42 velocity=72 time=0
EXTRACT: note_off channel=11 note=57 velocity=64 time=0.14285699999999998
EXTRACT: note_on channel=11 note=60 velocity=80 time=0
EXTRACT: note_off channel=11 note=60 velocity=64 time=0.14285699999999998
EXTRACT: note_on channel=11 note=62 velocity=80 time=0
EXTRACT: note_on channel=4 note=30 velocity=80 time=0
EXTRACT: note_off channel=2 note=64 velocity=64 time=0
EXTRACT: note_off channel=2 note=60 velocity=64 time=0
EXTRACT: note_off channel=2 note=57 velocity=64 time=0
EXTRACT: note_off channel=2 note=55 velocity=64 time=0
EXTRACT: note_on channel=2 note=64 velocity=80 time=0
EXTRACT: note_on channel=2 note=61 velocity=80 time=0
EXTRACT: note_on channel=2 note=57 velocity=80 time=0
EXTRACT: note_on channel=2 note=54 velocity=80 time=0
EXTRACT: note_off channel=9 note=42 velocity=64 time=0
EXTRACT: note_on channel=9 note=42 velocity=72 time=0
EXTRACT: note_on channel=9 note=35 velocity=72 time=0
EXTRACT: note_off channel=11 note=62 velocity=64 time=0.28571399999999997
EXTRACT: note_off channel=9 note=42 velocity=64 time=0
EXTRACT: note_off channel=9 note=35 velocity=64 time=0
EXTRACT: note_on channel=9 note=42 velocity=72 time=0
EXTRACT: note_off channel=4 note=30 velocity=64 time=0.28571399999999997
EXTRACT: note_off channel=2 note=64 velocity=64 time=0
EXTRACT: note_off channel=2 note=61 velocity=64 time=0
EXTRACT: note_off channel=2 note=57 velocity=64 time=0
EXTRACT: note_off channel=2 note=54 velocity=64 time=0
EXTRACT: note_on channel=2 note=64 velocity=80 time=0
EXTRACT: note_on channel=2 note=61 velocity=80 time=0
EXTRACT: note_on channel=2 note=57 velocity=80 time=0
EXTRACT: note_on channel=2 note=54 velocity=80 time=0
EXTRACT: note_off channel=9 note=42 velocity=64 time=0
EXTRACT: note_on channel=9 note=42 velocity=72 time=0
EXTRACT: note_on channel=9 note=38 velocity=72 time=0
EXTRACT: note_on channel=11 note=57 velocity=80 time=0.28571399999999997
EXTRACT: note_off channel=9 note=42 velocity=64 time=0
EXTRACT: note_off channel=9 note=38 velocity=64 time=0
EXTRACT: note_on channel=9 note=42 velocity=72 time=0
EXTRACT: note_off channel=11 note=57 velocity=64 time=0.14285699999999998
EXTRACT: note_on channel=11 note=57 velocity=80 time=0
EXTRACT: note_on channel=4 note=30 velocity=80 time=0
EXTRACT: note_off channel=9 note=42 velocity=64 time=0
EXTRACT: note_on channel=9 note=35 velocity=72 time=0
EXTRACT: note_off channel=11 note=57 velocity=64 time=0.14285699999999998
EXTRACT: note_off channel=4 note=30 velocity=64 time=0
EXTRACT: note_off channel=2 note=64 velocity=64 time=0
EXTRACT: note_off channel=2 note=61 velocity=64 time=0
EXTRACT: note_off channel=2 note=57 velocity=64 time=0
EXTRACT: note_off channel=2 note=54 velocity=64 time=0
EXTRACT: note_off channel=9 note=35 velocity=64 time=0
EXTRACT: note_on channel=9 note=42 velocity=72 time=0
EXTRACT: note_on channel=11 note=59 velocity=80 time=0.14285699999999998
EXTRACT: note_on channel=2 note=64 velocity=80 time=0.14285699999999998
EXTRACT: note_on channel=2 note=61 velocity=80 time=0
EXTRACT: note_on channel=2 note=57 velocity=80 time=0
EXTRACT: note_on channel=2 note=54 velocity=80 time=0
EXTRACT: note_off channel=9 note=42 velocity=64 time=0
EXTRACT: note_on channel=9 note=42 velocity=72 time=0
EXTRACT: note_off channel=11 note=59 velocity=64 time=0.14285699999999998
EXTRACT: note_on channel=11 note=60 velocity=80 time=0
EXTRACT: note_off channel=11 note=60 velocity=64 time=0.14285699999999998
EXTRACT: note_off channel=2 note=64 velocity=64 time=0
EXTRACT: note_off channel=2 note=61 velocity=64 time=0
EXTRACT: note_off channel=2 note=57 velocity=64 time=0
EXTRACT: note_off channel=2 note=54 velocity=64 time=0
EXTRACT: note_off channel=9 note=42 velocity=64 time=0
EXTRACT: note_on channel=9 note=42 velocity=72 time=0
EXTRACT: note_on channel=9 note=38 velocity=72 time=0
EXTRACT: note_on channel=11 note=65 velocity=80 time=0.14285699999999998
EXTRACT: note_on channel=4 note=30 velocity=80 time=0
EXTRACT: note_on channel=2 note=64 velocity=80 time=0
EXTRACT: note_on channel=2 note=61 velocity=80 time=0
EXTRACT: note_on channel=2 note=57 velocity=80 time=0
EXTRACT: note_on channel=2 note=54 velocity=80 time=0
EXTRACT: note_off channel=11 note=65 velocity=64 time=0.14285699999999998
EXTRACT: note_on channel=11 note=67 velocity=80 time=0
EXTRACT: note_off channel=4 note=30 velocity=64 time=0
EXTRACT: note_on channel=4 note=33 velocity=80 time=0
EXTRACT: note_off channel=9 note=42 velocity=64 time=0
EXTRACT: note_off channel=9 note=38 velocity=64 time=0
EXTRACT: note_on channel=9 note=42 velocity=72 time=0
EXTRACT: note_off channel=11 note=67 velocity=64 time=0.28571399999999997
EXTRACT: note_on channel=11 note=64 velocity=80 time=0
EXTRACT: note_off channel=4 note=33 velocity=64 time=0
EXTRACT: note_on channel=4 note=38 velocity=80 time=0
EXTRACT: note_off channel=2 note=64 velocity=64 time=0
EXTRACT: note_off channel=2 note=61 velocity=64 time=0
EXTRACT: note_off channel=2 note=57 velocity=64 time=0
EXTRACT: note_off channel=2 note=54 velocity=64 time=0
EXTRACT: note_on channel=2 note=60 velocity=80 time=0
EXTRACT: note_on channel=2 note=57 velocity=80 time=0
EXTRACT: note_on channel=2 note=53 velocity=80 time=0
EXTRACT: note_off channel=9 note=42 velocity=64 time=0
EXTRACT: note_on channel=9 note=42 velocity=72 time=0
EXTRACT: note_on channel=9 note=35 velocity=72 time=0
EXTRACT: note_off channel=9 note=42 velocity=64 time=0.28571399999999997
EXTRACT: note_off channel=9 note=35 velocity=64 time=0
EXTRACT: note_on channel=9 note=42 velocity=72 time=0
EXTRACT: note_off channel=11 note=64 velocity=64 time=0.28571399999999997
EXTRACT: note_off channel=4 note=38 velocity=64 time=0
EXTRACT: note_off channel=2 note=60 velocity=64 time=0
EXTRACT: note_off channel=2 note=57 velocity=64 time=0
EXTRACT: note_off channel=2 note=53 velocity=64 time=0
EXTRACT: note_on channel=2 note=60 velocity=80 time=0
EXTRACT: note_on channel=2 note=57 velocity=80 time=0
EXTRACT: note_on channel=2 note=53 velocity=80 time=0
EXTRACT: note_off channel=9 note=42 velocity=64 time=0
EXTRACT: note_on channel=9 note=42 velocity=72 time=0
EXTRACT: note_on channel=9 note=38 velocity=72 time=0
EXTRACT: note_on channel=11 note=55 velocity=80 time=0.28571399999999997
EXTRACT: note_off channel=9 note=42 velocity=64 time=0
EXTRACT: note_off channel=9 note=38 velocity=64 time=0
EXTRACT: note_on channel=9 note=42 velocity=72 time=0
EXTRACT: note_off channel=11 note=55 velocity=64 time=0.14285699999999998
EXTRACT: note_on channel=11 note=64 velocity=80 time=0
EXTRACT: note_on channel=4 note=38 velocity=80 time=0
EXTRACT: note_off channel=9 note=42 velocity=64 time=0
EXTRACT: note_on channel=9 note=35 velocity=72 time=0
EXTRACT: note_off channel=11 note=64 velocity=64 time=0.14285699999999998
EXTRACT: note_off channel=4 note=38 velocity=64 time=0
EXTRACT: note_off channel=2 note=60 velocity=64 time=0
EXTRACT: note_off channel=2 note=57 velocity=64 time=0
EXTRACT: note_off channel=2 note=53 velocity=64 time=0
EXTRACT: note_off channel=9 note=35 velocity=64 time=0
EXTRACT: note_on channel=9 note=42 velocity=72 time=0
EXTRACT: note_on channel=11 note=62 velocity=80 time=0.28571399999999997
EXTRACT: note_on channel=2 note=60 velocity=80 time=0
EXTRACT: note_on channel=2 note=57 velocity=80 time=0
EXTRACT: note_on channel=2 note=53 velocity=80 time=0
EXTRACT: note_off channel=9 note=42 velocity=64 time=0
EXTRACT: note_on channel=9 note=42 velocity=72 time=0
EXTRACT: note_off channel=11 note=62 velocity=64 time=0.28571399999999997
EXTRACT: note_on channel=11 note=60 velocity=80 time=0
EXTRACT: note_off channel=2 note=60 velocity=64 time=0
EXTRACT: note_off channel=2 note=57 velocity=64 time=0
EXTRACT: note_off channel=2 note=53 velocity=64 time=0
EXTRACT: note_off channel=9 note=42 velocity=64 time=0
EXTRACT: note_on channel=9 note=42 velocity=72 time=0
EXTRACT: note_on channel=9 note=38 velocity=72 time=0
EXTRACT: note_on channel=4 note=38 velocity=80 time=0.14285699999999998
EXTRACT: note_on channel=2 note=60 velocity=80 time=0
EXTRACT: note_on channel=2 note=57 velocity=80 time=0
EXTRACT: note_on channel=2 note=53 velocity=80 time=0
EXTRACT: note_off channel=11 note=60 velocity=64 time=0.14285699999999998
EXTRACT: note_on channel=11 note=62 velocity=80 time=0
EXTRACT: note_off channel=4 note=38 velocity=64 time=0
EXTRACT: note_on channel=4 note=33 velocity=80 time=0
EXTRACT: note_off channel=9 note=42 velocity=64 time=0
EXTRACT: note_off channel=9 note=38 velocity=64 time=0
EXTRACT: note_on channel=9 note=42 velocity=72 time=0
EXTRACT: note_off channel=11 note=62 velocity=64 time=0.14285699999999998
EXTRACT: note_on channel=11 note=64 velocity=80 time=0
EXTRACT: note_off channel=4 note=33 velocity=64 time=0
EXTRACT: note_on channel=4 note=32 velocity=80 time=0
EXTRACT: note_off channel=11 note=64 velocity=64 time=0.14285699999999998
EXTRACT: note_off channel=4 note=32 velocity=64 time=0
EXTRACT: note_on channel=4 note=31 velocity=80 time=0
EXTRACT: note_off channel=2 note=60 velocity=64 time=0
EXTRACT: note_off channel=2 note=57 velocity=64 time=0
EXTRACT: note_off channel=2 note=53 velocity=64 time=0
EXTRACT: note_on channel=2 note=60 velocity=80 time=0
EXTRACT: note_on channel=2 note=57 velocity=80 time=0
EXTRACT: note_on channel=2 note=53 velocity=80 time=0
EXTRACT: note_off channel=9 note=42 velocity=64 time=0
EXTRACT: note_on channel=9 note=42 velocity=72 time=0
EXTRACT: note_on channel=9 note=35 velocity=72 time=0
EXTRACT: note_on channel=11 note=62 velocity=80 time=0.28571399999999997
EXTRACT: note_off channel=9 note=42 velocity=64 time=0
EXTRACT: note_off channel=9 note=35 velocity=64 time=0
EXTRACT: note_on channel=9 note=42 velocity=72 time=0
EXTRACT: note_off channel=11 note=62 velocity=64 time=0.28571399999999997
EXTRACT: note_on channel=11 note=60 velocity=80 time=0
EXTRACT: note_off channel=4 note=31 velocity=64 time=0
EXTRACT: note_off channel=2 note=60 velocity=64 time=0
EXTRACT: note_off channel=2 note=57 velocity=64 time=0
EXTRACT: note_off channel=2 note=53 velocity=64 time=0
EXTRACT: note_on channel=2 note=60 velocity=80 time=0
EXTRACT: note_on channel=2 note=57 velocity=80 time=0
EXTRACT: note_on channel=2 note=53 velocity=80 time=0
EXTRACT: note_off channel=9 note=42 velocity=64 time=0
EXTRACT: note_on channel=9 note=42 velocity=72 time=0
EXTRACT: note_on channel=9 note=38 velocity=72 time=0
EXTRACT: note_off channel=11 note=60 velocity=64 time=0.28571399999999997
EXTRACT: note_on channel=11 note=57 velocity=80 time=0
EXTRACT: note_off channel=9 note=42 velocity=64 time=0
EXTRACT: note_off channel=9 note=38 velocity=64 time=0
EXTRACT: note_on channel=9 note=42 velocity=72 time=0
EXTRACT: note_off channel=11 note=57 velocity=64 time=0.14285699999999998
EXTRACT: note_on channel=11 note=60 velocity=80 time=0
EXTRACT: note_on channel=4 note=31 velocity=80 time=0
EXTRACT: note_off channel=9 note=42 velocity=64 time=0
EXTRACT: note_on channel=9 note=35 velocity=72 time=0
EXTRACT: note_off channel=11 note=60 velocity=64 time=0.14285699999999998
EXTRACT: note_off channel=4 note=31 velocity=64 time=0
EXTRACT: note_off channel=2 note=60 velocity=64 time=0
EXTRACT: note_off channel=2 note=57 velocity=64 time=0
EXTRACT: note_off channel=2 note=53 velocity=64 time=0
EXTRACT: note_off channel=9 note=35 velocity=64 time=0
EXTRACT: note_on channel=9 note=42 velocity=72 time=0
EXTRACT: note_on channel=11 note=57 velocity=80 time=0.14285699999999998
EXTRACT: note_on channel=4 note=28 velocity=80 time=0
EXTRACT: note_off channel=4 note=28 velocity=64 time=0.14285699999999998
EXTRACT: note_on channel=4 note=28 velocity=80 time=0
EXTRACT: note_on channel=2 note=60 velocity=80 time=0
EXTRACT: note_on channel=2 note=57 velocity=80 time=0
EXTRACT: note_on channel=2 note=53 velocity=80 time=0
EXTRACT: note_off channel=9 note=42 velocity=64 time=0
EXTRACT: note_on channel=9 note=42 velocity=72 time=0
EXTRACT: note_off channel=11 note=57 velocity=64 time=0.14285699999999998
EXTRACT: note_on channel=11 note=60 velocity=80 time=0
EXTRACT: note_off channel=11 note=60 velocity=64 time=0.14285699999999998
EXTRACT: note_on channel=11 note=62 velocity=80 time=0
EXTRACT: note_off channel=4 note=28 velocity=64 time=0
EXTRACT: note_off channel=2 note=60 velocity=64 time=0
EXTRACT: note_off channel=2 note=57 velocity=64 time=0
EXTRACT: note_off channel=2 note=53 velocity=64 time=0
EXTRACT: note_on channel=8 note=67 velocity=80 time=0
EXTRACT: note_off channel=9 note=42 velocity=64 time=0
EXTRACT: note_on channel=9 note=42 velocity=72 time=0
EXTRACT: note_on channel=9 note=38 velocity=72 time=0
EXTRACT: note_on channel=4 note=31 velocity=80 time=0.14285699999999998
EXTRACT: note_on channel=2 note=62 velocity=80 time=0
EXTRACT: note_on channel=2 note=57 velocity=80 time=0
EXTRACT: note_on channel=2 note=53 velocity=80 time=0
EXTRACT: note_off channel=11 note=62 velocity=64 time=0.14285699999999998
EXTRACT: note_off channel=8 note=67 velocity=64 time=0
EXTRACT: note_on channel=8 note=55 velocity=80 time=0
EXTRACT: note_off channel=9 note=42 velocity=64 time=0
EXTRACT: note_off channel=9 note=38 velocity=64 time=0
EXTRACT: note_on channel=9 note=42 velocity=72 time=0
EXTRACT: note_off channel=4 note=31 velocity=64 time=0.14285699999999998
EXTRACT: note_on channel=4 note=32 velocity=80 time=0
EXTRACT: note_off channel=8 note=55 velocity=64 time=0
EXTRACT: note_on channel=8 note=56 velocity=80 time=0
EXTRACT: note_off channel=4 note=32 velocity=64 time=0.14285699999999998
EXTRACT: note_on channel=4 note=33 velocity=80 time=0
EXTRACT: note_off channel=2 note=62 velocity=64 time=0
EXTRACT: note_off channel=2 note=57 velocity=64 time=0
EXTRACT: note_off channel=2 note=53 velocity=64 time=0
EXTRACT: note_on channel=2 note=64 velocity=80 time=0
EXTRACT: note_on channel=2 note=60 velocity=80 time=0
EXTRACT: note_on channel=2 note=57 velocity=80 time=0
EXTRACT: note_on channel=2 note=55 velocity=80 time=0
EXTRACT: note_off channel=8 note=56 velocity=64 time=0
EXTRACT: note_on channel=8 note=57 velocity=80 time=0
EXTRACT: note_off channel=9 note=42 velocity=64 time=0
EXTRACT: note_on channel=9 note=42 velocity=72 time=0
EXTRACT: note_on channel=9 note=35 velocity=72 time=0
EXTRACT: note_off channel=8 note=57 velocity=64 time=0.28571399999999997
EXTRACT: note_off channel=9 note=42 velocity=64 time=0
EXTRACT: note_off channel=9 note=35 velocity=64 time=0
EXTRACT: note_on channel=9 note=42 velocity=72 time=0
EXTRACT: note_off channel=4 note=33 velocity=64 time=0.28571399999999997
EXTRACT: note_off channel=2 note=64 velocity=64 time=0
EXTRACT: note_off channel=2 note=60 velocity=64 time=0
EXTRACT: note_off channel=2 note=57 velocity=64 time=0
EXTRACT: note_off channel=2 note=55 velocity=64 time=0
EXTRACT: note_on channel=2 note=64 velocity=80 time=0
EXTRACT: note_on channel=2 note=60 velocity=80 time=0
EXTRACT: note_on channel=2 note=57 velocity=80 time=0
EXTRACT: note_on channel=2 note=55 velocity=80 time=0
EXTRACT: note_on channel=8 note=57 velocity=80 time=0
EXTRACT: note_off channel=9 note=42 velocity=64 time=0
EXTRACT: note_on channel=9 note=42 velocity=72 time=0
EXTRACT: note_on channel=9 note=38 velocity=72 time=0
EXTRACT: note_on channel=11 note=57 velocity=80 time=0.28571399999999997
EXTRACT: note_off channel=8 note=57 velocity=64 time=0
EXTRACT: note_off channel=9 note=42 velocity=64 time=0
EXTRACT: note_off channel=9 note=38 velocity=64 time=0
EXTRACT: note_on channel=9 note=42 velocity=72 time=0
EXTRACT: note_off channel=11 note=57 velocity=64 time=0.14285699999999998
EXTRACT: note_on channel=11 note=64 velocity=80 time=0
EXTRACT: note_on channel=4 note=33 velocity=80 time=0
EXTRACT: note_off channel=9 note=42 velocity=64 time=0
EXTRACT: note_on channel=9 note=35 velocity=72 time=0
EXTRACT: note_off channel=11 note=64 velocity=64 time=0.14285699999999998
EXTRACT: note_off channel=4 note=33 velocity=64 time=0
EXTRACT: note_off channel=2 note=64 velocity=64 time=0
EXTRACT: note_off channel=2 note=60 velocity=64 time=0
EXTRACT: note_off channel=2 note=57 velocity=64 time=0
EXTRACT: note_off channel=2 note=55 velocity=64 time=0
EXTRACT: note_off channel=9 note=35 velocity=64 time=0
EXTRACT: note_on channel=9 note=42 velocity=72 time=0
EXTRACT: note_on channel=11 note=62 velocity=80 time=0.14285699999999998
EXTRACT: note_on channel=8 note=57 velocity=80 time=0
EXTRACT: note_on channel=2 note=64 velocity=80 time=0.14285699999999998
EXTRACT: note_on channel=2 note=60 velocity=80 time=0
EXTRACT: note_on channel=2 note=57 velocity=80 time=0
EXTRACT: note_on channel=2 note=55 velocity=80 time=0
EXTRACT: note_off channel=9 note=42 velocity=64 time=0
EXTRACT: note_on channel=9 note=42 velocity=72 time=0
EXTRACT: note_off channel=11 note=62 velocity=64 time=0.14285699999999998
EXTRACT: note_on channel=11 note=60 velocity=80 time=0
EXTRACT: note_off channel=8 note=57 velocity=64 time=0
EXTRACT: note_off channel=11 note=60 velocity=64 time=0.14285699999999998
EXTRACT: note_off channel=2 note=64 velocity=64 time=0
EXTRACT: note_off channel=2 note=60 velocity=64 time=0
EXTRACT: note_off channel=2 note=57 velocity=64 time=0
EXTRACT: note_off channel=2 note=55 velocity=64 time=0
EXTRACT: note_on channel=8 note=57 velocity=80 time=0
EXTRACT: note_off channel=9 note=42 velocity=64 time=0
EXTRACT: note_on channel=9 note=42 velocity=72 time=0
EXTRACT: note_on channel=9 note=38 velocity=72 time=0
EXTRACT: note_on channel=11 note=62 velocity=80 time=0.14285699999999998
EXTRACT: note_on channel=2 note=64 velocity=80 time=0
EXTRACT: note_on channel=2 note=60 velocity=80 time=0
EXTRACT: note_on channel=2 note=57 velocity=80 time=0
EXTRACT: note_on channel=2 note=55 velocity=80 time=0
EXTRACT: note_off channel=8 note=57 velocity=64 time=0.14285699999999998
EXTRACT: note_on channel=8 note=57 velocity=80 time=0
EXTRACT: note_off channel=9 note=42 velocity=64 time=0
EXTRACT: note_off channel=9 note=38 velocity=64 time=0
EXTRACT: note_on channel=9 note=42 velocity=72 time=0
EXTRACT: note_off channel=8 note=57 velocity=64 time=0.14285699999999998
EXTRACT: note_on channel=8 note=57 velocity=80 time=0
EXTRACT: note_off channel=11 note=62 velocity=64 time=0.14285699999999998
EXTRACT: note_on channel=11 note=62 velocity=80 time=0
EXTRACT: note_on channel=4 note=30 velocity=80 time=0
EXTRACT: note_off channel=2 note=64 velocity=64 time=0
EXTRACT: note_off channel=2 note=60 velocity=64 time=0
EXTRACT: note_off channel=2 note=57 velocity=64 time=0
EXTRACT: note_off channel=2 note=55 velocity=64 time=0
EXTRACT: note_on channel=2 note=64 velocity=80 time=0
EXTRACT: note_on channel=2 note=61 velocity=80 time=0
EXTRACT: note_on channel=2 note=57 velocity=80 time=0
EXTRACT: note_on channel=2 note=54 velocity=80 time=0
EXTRACT: note_off channel=8 note=57 velocity=64 time=0
EXTRACT: note_off channel=9 note=42 velocity=64 time=0
EXTRACT: note_on channel=9 note=42 velocity=72 time=0
EXTRACT: note_on channel=9 note=35 velocity=72 time=0
EXTRACT: note_off channel=9 note=42 velocity=64 time=0.28571399999999997
EXTRACT: note_off channel=9 note=35 velocity=64 time=0
EXTRACT: note_on channel=9 note=42 velocity=72 time=0
EXTRACT: note_off channel=11 note=62 velocity=64 time=0.28571399999999997
EXTRACT: note_off channel=4 note=30 velocity=64 time=0
EXTRACT: note_off channel=2 note=64 velocity=64 time=0
EXTRACT: note_off channel=2 note=61 velocity=64 time=0
EXTRACT: note_off channel=2 note=57 velocity=64 time=0
EXTRACT: note_off channel=2 note=54 velocity=64 time=0
EXTRACT: note_on channel=2 note=64 velocity=80 time=0
EXTRACT: note_on channel=2 note=61 velocity=80 time=0
EXTRACT: note_on channel=2 note=57 velocity=80 time=0
EXTRACT: note_on channel=2 note=54 velocity=80 time=0
EXTRACT: note_on channel=8 note=54 velocity=80 time=0
EXTRACT: note_off channel=9 note=42 velocity=64 time=0
EXTRACT: note_on channel=9 note=42 velocity=72 time=0
EXTRACT: note_on channel=9 note=38 velocity=72 time=0
EXTRACT: note_on channel=11 note=57 velocity=80 time=0.28571399999999997
EXTRACT: note_off channel=8 note=54 velocity=64 time=0
EXTRACT: note_off channel=9 note=42 velocity=64 time=0
EXTRACT: note_off channel=9 note=38 velocity=64 time=0
EXTRACT: note_on channel=9 note=42 velocity=72 time=0
EXTRACT: note_off channel=11 note=57 velocity=64 time=0.14285699999999998
EXTRACT: note_on channel=11 note=57 velocity=80 time=0
EXTRACT: note_on channel=4 note=30 velocity=80 time=0
EXTRACT: note_off channel=9 note=42 velocity=64 time=0
EXTRACT: note_on channel=9 note=35 velocity=72 time=0
EXTRACT: note_off channel=11 note=57 velocity=64 time=0.14285699999999998
EXTRACT: note_off channel=4 note=30 velocity=64 time=0
EXTRACT: note_off channel=2 note=64 velocity=64 time=0
EXTRACT: note_off channel=2 note=61 velocity=64 time=0
EXTRACT: note_off channel=2 note=57 velocity=64 time=0
EXTRACT: note_off channel=2 note=54 velocity=64 time=0
EXTRACT: note_off channel=9 note=35 velocity=64 time=0
EXTRACT: note_on channel=9 note=42 velocity=72 time=0
EXTRACT: note_on channel=11 note=59 velocity=80 time=0.14285699999999998
EXTRACT: note_on channel=2 note=64 velocity=80 time=0.14285699999999998
EXTRACT: note_on channel=2 note=61 velocity=80 time=0
EXTRACT: note_on channel=2 note=57 velocity=80 time=0
EXTRACT: note_on channel=2 note=54 velocity=80 time=0
EXTRACT: note_on channel=8 note=54 velocity=80 time=0
EXTRACT: note_off channel=9 note=42 velocity=64 time=0
EXTRACT: note_on channel=9 note=42 velocity=72 time=0
EXTRACT: note_off channel=11 note=59 velocity=64 time=0.14285699999999998
EXTRACT: note_on channel=11 note=60 velocity=80 time=0
EXTRACT: note_off channel=11 note=60 velocity=64 time=0.14285699999999998
EXTRACT: note_off channel=2 note=64 velocity=64 time=0
EXTRACT: note_off channel=2 note=61 velocity=64 time=0
EXTRACT: note_off channel=2 note=57 velocity=64 time=0
EXTRACT: note_off channel=2 note=54 velocity=64 time=0
EXTRACT: note_off channel=8 note=54 velocity=64 time=0
EXTRACT: note_off channel=9 note=42 velocity=64 time=0
EXTRACT: note_on channel=9 note=42 velocity=72 time=0
EXTRACT: note_on channel=9 note=38 velocity=72 time=0
EXTRACT: note_on channel=11 note=65 velocity=72 time=0.07142849999999999
EXTRACT: note_off channel=11 note=65 velocity=64 time=0.07142849999999999
EXTRACT: note_on channel=11 note=67 velocity=80 time=0
EXTRACT: note_on channel=4 note=30 velocity=80 time=0
EXTRACT: note_on channel=2 note=64 velocity=80 time=0
EXTRACT: note_on channel=2 note=61 velocity=80 time=0
EXTRACT: note_on channel=2 note=57 velocity=80 time=0
EXTRACT: note_on channel=2 note=54 velocity=80 time=0
EXTRACT: note_off channel=4 note=30 velocity=64 time=0.14285699999999998
EXTRACT: note_on channel=4 note=33 velocity=80 time=0
EXTRACT: note_off channel=9 note=42 velocity=64 time=0
EXTRACT: note_off channel=9 note=38 velocity=64 time=0
EXTRACT: note_on channel=9 note=42 velocity=72 time=0
EXTRACT: note_off channel=4 note=33 velocity=64 time=0.14285699999999998
EXTRACT: note_on channel=4 note=40 velocity=80 time=0
EXTRACT: note_off channel=11 note=67 velocity=64 time=0.14285699999999998
EXTRACT: note_on channel=11 note=64 velocity=80 time=0
EXTRACT: note_off channel=4 note=40 velocity=64 time=0
EXTRACT: note_on channel=4 note=38 velocity=80 time=0
EXTRACT: note_off channel=2 note=64 velocity=64 time=0
EXTRACT: note_off channel=2 note=61 velocity=64 time=0
EXTRACT: note_off channel=2 note=57 velocity=64 time=0
EXTRACT: note_off channel=2 note=54 velocity=64 time=0
EXTRACT: note_on channel=2 note=60 velocity=80 time=0
EXTRACT: note_on channel=2 note=57 velocity=80 time=0
EXTRACT: note_on channel=2 note=53 velocity=80 time=0
EXTRACT: note_off channel=9 note=42 velocity=64 time=0
EXTRACT: note_on channel=9 note=42 velocity=72 time=0
EXTRACT: note_on channel=9 note=35 velocity=72 time=0
EXTRACT: note_off channel=9 note=42 velocity=64 time=0.28571399999999997
EXTRACT: note_off channel=9 note=35 velocity=64 time=0
EXTRACT: note_on channel=9 note=42 velocity=72 time=0
EXTRACT: note_off channel=11 note=64 velocity=64 time=0.28571399999999997
EXTRACT: note_off channel=4 note=38 velocity=64 time=0
EXTRACT: note_off channel=2 note=60 velocity=64 time=0
EXTRACT: note_off channel=2 note=57 velocity=64 time=0
EXTRACT: note_off channel=2 note=53 velocity=64 time=0
EXTRACT: note_on channel=2 note=60 velocity=80 time=0
EXTRACT: note_on channel=2 note=57 velocity=80 time=0
EXTRACT: note_on channel=2 note=53 velocity=80 time=0
EXTRACT: note_off channel=9 note=42 velocity=64 time=0
EXTRACT: note_on channel=9 note=42 velocity=72 time=0
EXTRACT: note_on channel=9 note=38 velocity=72 time=0
EXTRACT: note_on channel=11 note=57 velocity=80 time=0.28571399999999997
EXTRACT: note_off channel=9 note=42 velocity=64 time=0
EXTRACT: note_off channel=9 note=38 velocity=64 time=0
EXTRACT: note_on channel=9 note=42 velocity=72 time=0
EXTRACT: note_off channel=11 note=57 velocity=64 time=0.14285699999999998
EXTRACT: note_on channel=11 note=57 velocity=80 time=0
EXTRACT: note_on channel=4 note=38 velocity=80 time=0
EXTRACT: note_off channel=9 note=42 velocity=64 time=0
EXTRACT: note_on channel=9 note=35 velocity=72 time=0
EXTRACT: note_off channel=11 note=57 velocity=64 time=0.14285699999999998
EXTRACT: note_off channel=4 note=38 velocity=64 time=0
EXTRACT: note_off channel=2 note=60 velocity=64 time=0
EXTRACT: note_off channel=2 note=57 velocity=64 time=0
EXTRACT: note_off channel=2 note=53 velocity=64 time=0
EXTRACT: note_off channel=9 note=35 velocity=64 time=0
EXTRACT: note_on channel=9 note=42 velocity=72 time=0
EXTRACT: note_on channel=11 note=59 velocity=80 time=0.14285699999999998
EXTRACT: note_on channel=2 note=60 velocity=80 time=0.14285699999999998
EXTRACT: note_on channel=2 note=57 velocity=80 time=0
EXTRACT: note_on channel=2 note=53 velocity=80 time=0
EXTRACT: note_off channel=9 note=42 velocity=64 time=0
EXTRACT: note_on channel=9 note=42 velocity=72 time=0
EXTRACT: note_off channel=11 note=59 velocity=64 time=0.14285699999999998
EXTRACT: note_on channel=11 note=60 velocity=80 time=0
EXTRACT: note_off channel=11 note=60 velocity=64 time=0.14285699999999998
EXTRACT: note_off channel=2 note=60 velocity=64 time=0
EXTRACT: note_off channel=2 note=57 velocity=64 time=0
EXTRACT: note_off channel=2 note=53 velocity=64 time=0
EXTRACT: note_off channel=9 note=42 velocity=64 time=0
EXTRACT: note_on channel=9 note=42 velocity=72 time=0
EXTRACT: note_on channel=9 note=38 velocity=72 time=0
EXTRACT: note_on channel=11 note=62 velocity=80 time=0.14285699999999998
EXTRACT: note_on channel=4 note=38 velocity=80 time=0
EXTRACT: note_on channel=2 note=60 velocity=80 time=0
EXTRACT: note_on channel=2 note=57 velocity=80 time=0
EXTRACT: note_on channel=2 note=53 velocity=80 time=0
EXTRACT: note_off channel=4 note=38 velocity=64 time=0.14285699999999998
EXTRACT: note_off channel=9 note=42 velocity=64 time=0
EXTRACT: note_off channel=9 note=38 velocity=64 time=0
EXTRACT: note_on channel=9 note=42 velocity=72 time=0
EXTRACT: note_off channel=11 note=62 velocity=64 time=0.14285699999999998
EXTRACT: note_on channel=11 note=62 velocity=80 time=0
EXTRACT: note_on channel=4 note=38 velocity=80 time=0
EXTRACT: note_off channel=11 note=62 velocity=64 time=0.14285699999999998
EXTRACT: note_on channel=11 note=64 velocity=80 time=0
EXTRACT: note_off channel=4 note=38 velocity=64 time=0
EXTRACT: note_on channel=4 note=31 velocity=80 time=0
EXTRACT: note_off channel=2 note=60 velocity=64 time=0
EXTRACT: note_off channel=2 note=57 velocity=64 time=0
EXTRACT: note_off channel=2 note=53 velocity=64 time=0
EXTRACT: note_on channel=2 note=60 velocity=80 time=0
EXTRACT: note_on channel=2 note=57 velocity=80 time=0
EXTRACT: note_on channel=2 note=53 velocity=80 time=0
EXTRACT: note_off channel=9 note=42 velocity=64 time=0
EXTRACT: note_on channel=9 note=42 velocity=72 time=0
EXTRACT: note_on channel=9 note=35 velocity=72 time=0
EXTRACT: note_off channel=11 note=64 velocity=64 time=0.28571399999999997
EXTRACT: note_on channel=11 note=67 velocity=80 time=0
EXTRACT: note_off channel=9 note=42 velocity=64 time=0
EXTRACT: note_off channel=9 note=35 velocity=64 time=0
EXTRACT: note_on channel=9 note=42 velocity=72 time=0
EXTRACT: note_off channel=11 note=67 velocity=64 time=0.28571399999999997
EXTRACT: note_on channel=11 note=62 velocity=80 time=0
EXTRACT: note_off channel=4 note=31 velocity=64 time=0
EXTRACT: note_off channel=2 note=60 velocity=64 time=0
EXTRACT: note_off channel=2 note=57 velocity=64 time=0
EXTRACT: note_off channel=2 note=53 velocity=64 time=0
EXTRACT: note_on channel=2 note=60 velocity=80 time=0
EXTRACT: note_on channel=2 note=57 velocity=80 time=0
EXTRACT: note_on channel=2 note=53 velocity=80 time=0
EXTRACT: note_off channel=9 note=42 velocity=64 time=0
EXTRACT: note_on channel=9 note=42 velocity=72 time=0
EXTRACT: note_on channel=9 note=38 velocity=72 time=0
EXTRACT: note_off channel=11 note=62 velocity=64 time=0.28571399999999997
EXTRACT: note_on channel=11 note=60 velocity=80 time=0
EXTRACT: note_on channel=4 note=31 velocity=80 time=0
EXTRACT: note_off channel=9 note=42 velocity=64 time=0
EXTRACT: note_off channel=9 note=38 velocity=64 time=0
EXTRACT: note_on channel=9 note=42 velocity=72 time=0
EXTRACT: note_off channel=11 note=60 velocity=64 time=0.14285699999999998
EXTRACT: note_on channel=11 note=62 velocity=80 time=0
EXTRACT: note_off channel=4 note=31 velocity=64 time=0
EXTRACT: note_on channel=4 note=31 velocity=80 time=0
EXTRACT: note_off channel=9 note=42 velocity=64 time=0
EXTRACT: note_on channel=9 note=35 velocity=72 time=0
EXTRACT: note_off channel=11 note=62 velocity=64 time=0.14285699999999998
EXTRACT: note_off channel=4 note=31 velocity=64 time=0
EXTRACT: note_off channel=2 note=60 velocity=64 time=0
EXTRACT: note_off channel=2 note=57 velocity=64 time=0
EXTRACT: note_off channel=2 note=53 velocity=64 time=0
EXTRACT: note_off channel=9 note=35 velocity=64 time=0
EXTRACT: note_on channel=9 note=42 velocity=72 time=0
EXTRACT: note_on channel=11 note=60 velocity=80 time=0.14285699999999998
EXTRACT: note_on channel=4 note=31 velocity=80 time=0
EXTRACT: note_off channel=4 note=31 velocity=64 time=0.14285699999999998
EXTRACT: note_on channel=4 note=31 velocity=80 time=0
EXTRACT: note_on channel=2 note=60 velocity=80 time=0
EXTRACT: note_on channel=2 note=57 velocity=80 time=0
EXTRACT: note_on channel=2 note=53 velocity=80 time=0
EXTRACT: note_off channel=9 note=42 velocity=64 time=0
EXTRACT: note_on channel=9 note=42 velocity=72 time=0
EXTRACT: note_off channel=11 note=60 velocity=64 time=0.14285699999999998
EXTRACT: note_on channel=11 note=63 velocity=80 time=0
EXTRACT: note_off channel=4 note=31 velocity=64 time=0
EXTRACT: note_on channel=4 note=31 velocity=80 time=0
EXTRACT: note_off channel=11 note=63 velocity=64 time=0.14285699999999998
EXTRACT: note_on channel=11 note=62 velocity=80 time=0
EXTRACT: note_off channel=4 note=31 velocity=64 time=0
EXTRACT: note_off channel=2 note=60 velocity=64 time=0
EXTRACT: note_off channel=2 note=57 velocity=64 time=0
EXTRACT: note_off channel=2 note=53 velocity=64 time=0
EXTRACT: note_on channel=8 note=71 velocity=80 time=0
EXTRACT: note_off channel=9 note=42 velocity=64 time=0
EXTRACT: note_on channel=9 note=46 velocity=80 time=0
EXTRACT: note_on channel=4 note=31 velocity=80 time=0.14285699999999998
EXTRACT: note_on channel=2 note=62 velocity=80 time=0
EXTRACT: note_on channel=2 note=57 velocity=80 time=0
EXTRACT: note_on channel=2 note=53 velocity=80 time=0
EXTRACT: note_off channel=4 note=31 velocity=64 time=0.14285699999999998
EXTRACT: note_on channel=4 note=31 velocity=80 time=0
EXTRACT: note_off channel=9 note=46 velocity=64 time=0
EXTRACT: note_on channel=9 note=38 velocity=80 time=0
EXTRACT: note_off channel=11 note=62 velocity=64 time=0.14285699999999998
EXTRACT: note_off channel=9 note=38 velocity=64 time=0
EXTRACT: note_on channel=9 note=38 velocity=80 time=0
EXTRACT: note_on channel=11 note=66 velocity=80 time=0.14285699999999998
EXTRACT: note_on channel=6 note=69 velocity=80 time=0
EXTRACT: note_on channel=6 note=64 velocity=80 time=0
EXTRACT: note_off channel=4 note=31 velocity=64 time=0
EXTRACT: note_on channel=4 note=35 velocity=80 time=0
EXTRACT: note_off channel=2 note=62 velocity=64 time=0
EXTRACT: note_off channel=2 note=57 velocity=64 time=0
EXTRACT: note_off channel=2 note=53 velocity=64 time=0
EXTRACT: note_on channel=2 note=66 velocity=80 time=0
EXTRACT: note_on channel=2 note=62 velocity=80 time=0
EXTRACT: note_on channel=2 note=57 velocity=80 time=0
EXTRACT: note_off channel=8 note=71 velocity=64 time=0
EXTRACT: note_on channel=8 note=73 velocity=72 time=0
EXTRACT: note_on channel=9 note=82 velocity=64 time=0
EXTRACT: note_off channel=9 note=38 velocity=64 time=0
EXTRACT: note_on channel=9 note=49 velocity=80 time=0
EXTRACT: note_on channel=9 note=57 velocity=80 time=0
EXTRACT: note_on channel=9 note=35 velocity=80 time=0
EXTRACT: note_off channel=6 note=69 velocity=64 time=0.14285699999999998
EXTRACT: note_off channel=6 note=64 velocity=64 time=0
EXTRACT: note_on channel=6 note=69 velocity=80 time=0
EXTRACT: note_on channel=6 note=64 velocity=80 time=0
EXTRACT: note_off channel=9 note=82 velocity=64 time=0
EXTRACT: note_on channel=9 note=82 velocity=64 time=0
EXTRACT: note_off channel=6 note=69 velocity=64 time=0.14285699999999998
EXTRACT: note_off channel=6 note=64 velocity=64 time=0
EXTRACT: note_on channel=6 note=69 velocity=80 time=0
EXTRACT: note_on channel=6 note=64 velocity=80 time=0
EXTRACT: note_off channel=4 note=35 velocity=64 time=0
EXTRACT: note_off channel=8 note=73 velocity=64 time=0
EXTRACT: note_on channel=8 note=71 velocity=72 time=0
EXTRACT: note_off channel=9 note=82 velocity=64 time=0
EXTRACT: note_on channel=9 note=82 velocity=64 time=0
EXTRACT: note_off channel=9 note=49 velocity=64 time=0
EXTRACT: note_off channel=9 note=57 velocity=64 time=0
EXTRACT: note_off channel=9 note=35 velocity=64 time=0
EXTRACT: note_on channel=9 note=42 velocity=80 time=0
EXTRACT: note_off channel=6 note=69 velocity=64 time=0.14285699999999998
EXTRACT: note_off channel=6 note=64 velocity=64 time=0
EXTRACT: note_on channel=6 note=69 velocity=80 time=0
EXTRACT: note_on channel=6 note=64 velocity=80 time=0
EXTRACT: note_on channel=4 note=35 velocity=80 time=0
EXTRACT: note_off channel=2 note=66 velocity=64 time=0
EXTRACT: note_off channel=2 note=62 velocity=64 time=0
EXTRACT: note_off channel=2 note=57 velocity=64 time=0
EXTRACT: note_on channel=2 note=66 velocity=80 time=0
EXTRACT: note_on channel=2 note=62 velocity=80 time=0
EXTRACT: note_on channel=2 note=57 velocity=80 time=0
EXTRACT: note_off channel=11 note=66 velocity=64 time=0.14285699999999998
EXTRACT: note_on channel=11 note=61 velocity=80 time=0
EXTRACT: note_off channel=6 note=69 velocity=64 time=0
EXTRACT: note_off channel=6 note=64 velocity=64 time=0
EXTRACT: note_on channel=6 note=69 velocity=80 time=0
EXTRACT: note_on channel=6 note=64 velocity=80 time=0
EXTRACT: note_off channel=4 note=35 velocity=64 time=0
EXTRACT: note_off channel=2 note=66 velocity=64 time=0
EXTRACT: note_off channel=2 note=62 velocity=64 time=0
EXTRACT: note_off channel=2 note=57 velocity=64 time=0
EXTRACT: note_off channel=8 note=71 velocity=64 time=0
EXTRACT: note_on channel=8 note=73 velocity=72 time=0
EXTRACT: note_off channel=9 note=82 velocity=64 time=0
EXTRACT: note_off channel=9 note=42 velocity=64 time=0
EXTRACT: note_on channel=9 note=42 velocity=80 time=0
EXTRACT: note_on channel=9 note=57 velocity=80 time=0
EXTRACT: note_on channel=9 note=38 velocity=80 time=0
EXTRACT: note_off channel=6 note=69 velocity=64 time=0.14285699999999998
EXTRACT: note_off channel=6 note=64 velocity=64 time=0
EXTRACT: note_on channel=6 note=69 velocity=80 time=0
EXTRACT: note_on channel=6 note=64 velocity=80 time=0
EXTRACT: note_off channel=6 note=69 velocity=64 time=0.14285699999999998
EXTRACT: note_off channel=6 note=64 velocity=64 time=0
EXTRACT: note_on channel=6 note=69 velocity=80 time=0
EXTRACT: note_on channel=6 note=64 velocity=80 time=0
EXTRACT: note_on channel=4 note=30 velocity=80 time=0
EXTRACT: note_on channel=2 note=69 velocity=80 time=0
EXTRACT: note_on channel=2 note=64 velocity=80 time=0
EXTRACT: note_on channel=2 note=61 velocity=80 time=0
EXTRACT: note_on channel=2 note=57 velocity=80 time=0
EXTRACT: note_off channel=8 note=73 velocity=64 time=0
EXTRACT: note_on channel=8 note=71 velocity=72 time=0
EXTRACT: note_off channel=9 note=42 velocity=64 time=0
EXTRACT: note_off channel=9 note=57 velocity=64 time=0
EXTRACT: note_off channel=9 note=38 velocity=64 time=0
EXTRACT: note_on channel=9 note=42 velocity=80 time=0
EXTRACT: note_on channel=9 note=35 velocity=80 time=0
EXTRACT: note_off channel=6 note=69 velocity=64 time=0.14285699999999998
EXTRACT: note_off channel=6 note=64 velocity=64 time=0
EXTRACT: note_on channel=6 note=69 velocity=80 time=0
EXTRACT: note_on channel=6 note=64 velocity=80 time=0
EXTRACT: note_off channel=8 note=71 velocity=64 time=0
EXTRACT: note_on channel=8 note=73 velocity=72 time=0
EXTRACT: note_off channel=6 note=69 velocity=64 time=0.14285699999999998
EXTRACT: note_off channel=6 note=64 velocity=64 time=0
EXTRACT: note_on channel=6 note=69 velocity=80 time=0
EXTRACT: note_on channel=6 note=64 velocity=80 time=0
EXTRACT: note_off channel=4 note=30 velocity=64 time=0
EXTRACT: note_off channel=2 note=69 velocity=64 time=0
EXTRACT: note_off channel=2 note=64 velocity=64 time=0
EXTRACT: note_off channel=2 note=61 velocity=64 time=0
EXTRACT: note_off channel=2 note=57 velocity=64 time=0
EXTRACT: note_off channel=8 note=73 velocity=64 time=0
EXTRACT: note_on channel=9 note=82 velocity=64 time=0
EXTRACT: note_off channel=9 note=42 velocity=64 time=0
EXTRACT: note_off channel=9 note=35 velocity=64 time=0
EXTRACT: note_on channel=9 note=42 velocity=80 time=0
EXTRACT: note_on channel=9 note=57 velocity=80 time=0
EXTRACT: note_on channel=8 note=71 velocity=72 time=0.14285699999999998
EXTRACT: note_off channel=9 note=82 velocity=64 time=0
EXTRACT: note_on channel=9 note=82 velocity=64 time=0
EXTRACT: note_off channel=6 note=69 velocity=64 time=0.14285699999999998
EXTRACT: note_off channel=6 note=64 velocity=64 time=0
EXTRACT: note_on channel=6 note=69 velocity=80 time=0
EXTRACT: note_on channel=6 note=64 velocity=80 time=0
EXTRACT: note_off channel=8 note=71 velocity=64 time=0
EXTRACT: note_on channel=8 note=73 velocity=72 time=0
EXTRACT: note_off channel=9 note=82 velocity=64 time=0
EXTRACT: note_on channel=9 note=82 velocity=64 time=0
EXTRACT: note_off channel=9 note=42 velocity=64 time=0
EXTRACT: note_off channel=9 note=57 velocity=64 time=0
EXTRACT: note_on channel=9 note=42 velocity=80 time=0
EXTRACT: note_off channel=11 note=61 velocity=64 time=0.28571399999999997
EXTRACT: note_off channel=6 note=69 velocity=64 time=0
EXTRACT: note_off channel=6 note=64 velocity=64 time=0
EXTRACT: note_on channel=6 note=69 velocity=80 time=0
EXTRACT: note_on channel=6 note=64 velocity=80 time=0
EXTRACT: note_on channel=2 note=69 velocity=80 time=0
EXTRACT: note_on channel=2 note=64 velocity=80 time=0
EXTRACT: note_on channel=2 note=61 velocity=80 time=0
EXTRACT: note_on channel=2 note=57 velocity=80 time=0
EXTRACT: note_off channel=8 note=73 velocity=64 time=0
EXTRACT: note_on channel=8 note=71 velocity=72 time=0
EXTRACT: note_off channel=9 note=82 velocity=64 time=0
EXTRACT: note_off channel=9 note=42 velocity=64 time=0
EXTRACT: note_on channel=9 note=42 velocity=80 time=0
EXTRACT: note_on channel=9 note=57 velocity=80 time=0
EXTRACT: note_on channel=9 note=38 velocity=80 time=0
EXTRACT: note_off channel=6 note=69 velocity=64 time=0.14285699999999998
EXTRACT: note_off channel=6 note=64 velocity=64 time=0
EXTRACT: note_on channel=6 note=69 velocity=80 time=0
EXTRACT: note_on channel=6 note=64 velocity=80 time=0
EXTRACT: note_on channel=4 note=42 velocity=80 time=0
EXTRACT: note_off channel=8 note=71 velocity=64 time=0
EXTRACT: note_on channel=8 note=73 velocity=72 time=0
EXTRACT: note_off channel=6 note=69 velocity=64 time=0.14285699999999998
EXTRACT: note_off channel=6 note=64 velocity=64 time=0
EXTRACT: note_on channel=6 note=69 velocity=80 time=0
EXTRACT: note_on channel=6 note=64 velocity=80 time=0
EXTRACT: note_off channel=4 note=42 velocity=64 time=0
EXTRACT: note_on channel=4 note=37 velocity=80 time=0
EXTRACT: note_off channel=9 note=42 velocity=64 time=0
EXTRACT: note_off channel=9 note=57 velocity=64 time=0
EXTRACT: note_off channel=9 note=38 velocity=64 time=0
EXTRACT: note_on channel=9 note=42 velocity=80 time=0
EXTRACT: note_on channel=11 note=59 velocity=80 time=0.14285699999999998
EXTRACT: note_off channel=6 note=69 velocity=64 time=0
EXTRACT: note_off channel=6 note=64 velocity=64 time=0
EXTRACT: note_on channel=6 note=69 velocity=80 time=0
EXTRACT: note_on channel=6 note=64 velocity=80 time=0
EXTRACT: note_off channel=4 note=37 velocity=64 time=0
EXTRACT: note_on channel=4 note=30 velocity=80 time=0
EXTRACT: note_off channel=8 note=73 velocity=64 time=0
EXTRACT: note_on channel=8 note=71 velocity=72 time=0
EXTRACT: note_off channel=11 note=59 velocity=64 time=0.14285699999999998
EXTRACT: note_on channel=11 note=61 velocity=80 time=0
EXTRACT: note_off channel=6 note=69 velocity=64 time=0
EXTRACT: note_off channel=6 note=64 velocity=64 time=0
EXTRACT: note_on channel=6 note=69 velocity=80 time=0
EXTRACT: note_on channel=6 note=64 velocity=80 time=0
EXTRACT: note_off channel=4 note=30 velocity=64 time=0
EXTRACT: note_on channel=4 note=35 velocity=80 time=0
EXTRACT: note_off channel=2 note=69 velocity=64 time=0
EXTRACT: note_off channel=2 note=64 velocity=64 time=0
EXTRACT: note_off channel=2 note=61 velocity=64 time=0
EXTRACT: note_off channel=2 note=57 velocity=64 time=0
EXTRACT: note_on channel=2 note=66 velocity=80 time=0
EXTRACT: note_on channel=2 note=62 velocity=80 time=0
EXTRACT: note_on channel=2 note=57 velocity=80 time=0
EXTRACT: note_off channel=8 note=71 velocity=64 time=0
EXTRACT: note_on channel=8 note=73 velocity=72 time=0
EXTRACT: note_on channel=9 note=82 velocity=64 time=0
EXTRACT: note_off channel=9 note=42 velocity=64 time=0
EXTRACT: note_on channel=9 note=42 velocity=80 time=0
EXTRACT: note_on channel=9 note=57 velocity=80 time=0
EXTRACT: note_on channel=9 note=35 velocity=80 time=0
EXTRACT: note_off channel=11 note=61 velocity=64 time=0.14285699999999998
EXTRACT: note_on channel=11 note=61 velocity=80 time=0
EXTRACT: note_off channel=6 note=69 velocity=64 time=0
EXTRACT: note_off channel=6 note=64 velocity=64 time=0
EXTRACT: note_on channel=6 note=69 velocity=80 time=0
EXTRACT: note_on channel=6 note=64 velocity=80 time=0
EXTRACT: note_off channel=9 note=82 velocity=64 time=0
EXTRACT: note_on channel=9 note=82 velocity=64 time=0
EXTRACT: note_off channel=11 note=61 velocity=64 time=0.14285699999999998
EXTRACT: note_on channel=11 note=61 velocity=80 time=0
EXTRACT: note_off channel=6 note=69 velocity=64 time=0
EXTRACT: note_off channel=6 note=64 velocity=64 time=0
EXTRACT: note_on channel=6 note=69 velocity=80 time=0
EXTRACT: note_on channel=6 note=64 velocity=80 time=0
EXTRACT: note_off channel=4 note=35 velocity=64 time=0
EXTRACT: note_off channel=8 note=73 velocity=64 time=0
EXTRACT: note_on channel=8 note=71 velocity=72 time=0
EXTRACT: note_off channel=9 note=82 velocity=64 time=0
EXTRACT: note_on channel=9 note=82 velocity=64 time=0
EXTRACT: note_off channel=9 note=42 velocity=64 time=0
EXTRACT: note_off channel=9 note=57 velocity=64 time=0
EXTRACT: note_off channel=9 note=35 velocity=64 time=0
EXTRACT: note_on channel=9 note=42 velocity=80 time=0
EXTRACT: note_off channel=6 note=69 velocity=64 time=0.14285699999999998
EXTRACT: note_off channel=6 note=64 velocity=64 time=0
EXTRACT: note_on channel=6 note=69 velocity=80 time=0
EXTRACT: note_on channel=6 note=64 velocity=80 time=0
EXTRACT: note_on channel=4 note=35 velocity=80 time=0
EXTRACT: note_off channel=2 note=66 velocity=64 time=0
EXTRACT: note_off channel=2 note=62 velocity=64 time=0
EXTRACT: note_off channel=2 note=57 velocity=64 time=0
EXTRACT: note_on channel=2 note=66 velocity=80 time=0
EXTRACT: note_on channel=2 note=62 velocity=80 time=0
EXTRACT: note_on channel=2 note=57 velocity=80 time=0
EXTRACT: note_off channel=11 note=61 velocity=64 time=0.14285699999999998
EXTRACT: note_on channel=11 note=61 velocity=80 time=0
EXTRACT: note_off channel=6 note=69 velocity=64 time=0
EXTRACT: note_off channel=6 note=64 velocity=64 time=0
EXTRACT: note_on channel=6 note=69 velocity=80 time=0
EXTRACT: note_on channel=6 note=64 velocity=80 time=0
EXTRACT: note_off channel=4 note=35 velocity=64 time=0
EXTRACT: note_off channel=2 note=66 velocity=64 time=0
EXTRACT: note_off channel=2 note=62 velocity=64 time=0
EXTRACT: note_off channel=2 note=57 velocity=64 time=0
EXTRACT: note_off channel=8 note=71 velocity=64 time=0
EXTRACT: note_on channel=8 note=74 velocity=80 time=0
EXTRACT: note_off channel=9 note=82 velocity=64 time=0
EXTRACT: note_off channel=9 note=42 velocity=64 time=0
EXTRACT: note_on channel=9 note=42 velocity=80 time=0
EXTRACT: note_on channel=9 note=57 velocity=80 time=0
EXTRACT: note_on channel=9 note=38 velocity=80 time=0
EXTRACT: note_off channel=6 note=69 velocity=64 time=0.14285699999999998
EXTRACT: note_off channel=6 note=64 velocity=64 time=0
EXTRACT: note_on channel=6 note=69 velocity=80 time=0
EXTRACT: note_on channel=6 note=64 velocity=80 time=0
EXTRACT: note_off channel=11 note=61 velocity=64 time=0.14285699999999998
EXTRACT: note_on channel=11 note=59 velocity=80 time=0
EXTRACT: note_off channel=6 note=69 velocity=64 time=0
EXTRACT: note_off channel=6 note=64 velocity=64 time=0
EXTRACT: note_on channel=6 note=69 velocity=80 time=0
EXTRACT: note_on channel=6 note=64 velocity=80 time=0
EXTRACT: note_on channel=4 note=30 velocity=80 time=0
EXTRACT: note_on channel=2 note=69 velocity=80 time=0
EXTRACT: note_on channel=2 note=64 velocity=80 time=0
EXTRACT: note_on channel=2 note=61 velocity=80 time=0
EXTRACT: note_on channel=2 note=57 velocity=80 time=0
EXTRACT: note_off channel=8 note=74 velocity=64 time=0
EXTRACT: note_on channel=8 note=73 velocity=80 time=0
EXTRACT: note_off channel=9 note=42 velocity=64 time=0
EXTRACT: note_off channel=9 note=57 velocity=64 time=0
EXTRACT: note_off channel=9 note=38 velocity=64 time=0
EXTRACT: note_on channel=9 note=42 velocity=80 time=0
EXTRACT: note_on channel=9 note=35 velocity=80 time=0
EXTRACT: note_off channel=11 note=59 velocity=64 time=0.14285699999999998
EXTRACT: note_on channel=11 note=61 velocity=80 time=0
EXTRACT: note_off channel=6 note=69 velocity=64 time=0
EXTRACT: note_off channel=6 note=64 velocity=64 time=0
EXTRACT: note_on channel=6 note=69 velocity=80 time=0
EXTRACT: note_on channel=6 note=64 velocity=80 time=0
EXTRACT: note_off channel=11 note=61 velocity=64 time=0.14285699999999998
EXTRACT: note_off channel=6 note=69 velocity=64 time=0
EXTRACT: note_off channel=6 note=64 velocity=64 time=0
EXTRACT: note_on channel=6 note=69 velocity=80 time=0
EXTRACT: note_on channel=6 note=64 velocity=80 time=0
EXTRACT: note_off channel=4 note=30 velocity=64 time=0
EXTRACT: note_off channel=2 note=69 velocity=64 time=0
EXTRACT: note_off channel=2 note=64 velocity=64 time=0
EXTRACT: note_off channel=2 note=61 velocity=64 time=0
EXTRACT: note_off channel=2 note=57 velocity=64 time=0
EXTRACT: note_off channel=8 note=73 velocity=64 time=0
EXTRACT: note_on channel=9 note=82 velocity=64 time=0
EXTRACT: note_off channel=9 note=42 velocity=64 time=0
EXTRACT: note_off channel=9 note=35 velocity=64 time=0
EXTRACT: note_on channel=9 note=42 velocity=80 time=0
EXTRACT: note_on channel=9 note=57 velocity=80 time=0
EXTRACT: note_off channel=9 note=82 velocity=64 time=0.14285699999999998
EXTRACT: note_on channel=9 note=82 velocity=64 time=0
EXTRACT: note_off channel=6 note=69 velocity=64 time=0.14285699999999998
EXTRACT: note_off channel=6 note=64 velocity=64 time=0
EXTRACT: note_on channel=6 note=69 velocity=80 time=0
EXTRACT: note_on channel=6 note=64 velocity=80 time=0
EXTRACT: note_on channel=8 note=71 velocity=80 time=0
EXTRACT: note_off channel=9 note=82 velocity=64 time=0
EXTRACT: note_on channel=9 note=82 velocity=64 time=0
EXTRACT: note_off channel=9 note=42 velocity=64 time=0
EXTRACT: note_off channel=9 note=57 velocity=64 time=0
EXTRACT: note_on channel=9 note=42 velocity=80 time=0
EXTRACT: note_off channel=6 note=69 velocity=64 time=0.28571399999999997
EXTRACT: note_off channel=6 note=64 velocity=64 time=0
EXTRACT: note_on channel=6 note=69 velocity=80 time=0
EXTRACT: note_on channel=6 note=64 velocity=80 time=0
EXTRACT: note_on channel=2 note=69 velocity=80 time=0
EXTRACT: note_on channel=2 note=64 velocity=80 time=0
EXTRACT: note_on channel=2 note=61 velocity=80 time=0
EXTRACT: note_on channel=2 note=57 velocity=80 time=0
EXTRACT: note_off channel=8 note=71 velocity=64 time=0
EXTRACT: note_on channel=8 note=73 velocity=80 time=0
EXTRACT: note_off channel=9 note=82 velocity=64 time=0
EXTRACT: note_off channel=9 note=42 velocity=64 time=0
EXTRACT: note_on channel=9 note=42 velocity=80 time=0
EXTRACT: note_on channel=9 note=57 velocity=80 time=0
EXTRACT: note_on channel=9 note=38 velocity=80 time=0
EXTRACT: note_off channel=6 note=69 velocity=64 time=0.14285699999999998
EXTRACT: note_off channel=6 note=64 velocity=64 time=0
EXTRACT: note_on channel=6 note=69 velocity=80 time=0
EXTRACT: note_on channel=6 note=64 velocity=80 time=0
EXTRACT: note_off channel=6 note=69 velocity=64 time=0.14285699999999998
EXTRACT: note_off channel=6 note=64 velocity=64 time=0
EXTRACT: note_on channel=6 note=69 velocity=80 time=0
EXTRACT: note_on channel=6 note=64 velocity=80 time=0
EXTRACT: note_off channel=8 note=73 velocity=64 time=0
EXTRACT: note_on channel=8 note=71 velocity=80 time=0
EXTRACT: note_off channel=9 note=42 velocity=64 time=0
EXTRACT: note_off channel=9 note=57 velocity=64 time=0
EXTRACT: note_off channel=9 note=38 velocity=64 time=0
EXTRACT: note_on channel=9 note=42 velocity=80 time=0
EXTRACT: note_off channel=6 note=69 velocity=64 time=0.14285699999999998
EXTRACT: note_off channel=6 note=64 velocity=64 time=0
EXTRACT: note_on channel=6 note=69 velocity=80 time=0
EXTRACT: note_on channel=6 note=64 velocity=80 time=0
EXTRACT: note_on channel=4 note=30 velocity=80 time=0
EXTRACT: note_on channel=11 note=64 velocity=80 time=0.14285699999999998
EXTRACT: note_off channel=6 note=69 velocity=64 time=0
EXTRACT: note_off channel=6 note=64 velocity=64 time=0
EXTRACT: note_on channel=6 note=67 velocity=80 time=0
EXTRACT: note_on channel=6 note=62 velocity=80 time=0
EXTRACT: note_off channel=4 note=30 velocity=64 time=0
EXTRACT: note_on channel=4 note=29 velocity=80 time=0
EXTRACT: note_off channel=2 note=69 velocity=64 time=0
EXTRACT: note_off channel=2 note=64 velocity=64 time=0
EXTRACT: note_off channel=2 note=61 velocity=64 time=0
EXTRACT: note_off channel=2 note=57 velocity=64 time=0
EXTRACT: note_on channel=2 note=64 velocity=80 time=0
EXTRACT: note_on channel=2 note=60 velocity=80 time=0
EXTRACT: note_on channel=2 note=57 velocity=80 time=0
EXTRACT: note_on channel=2 note=55 velocity=80 time=0
EXTRACT: note_off channel=8 note=71 velocity=64 time=0
EXTRACT: note_on channel=8 note=69 velocity=80 time=0
EXTRACT: note_on channel=9 note=82 velocity=64 time=0
EXTRACT: note_off channel=9 note=42 velocity=64 time=0
EXTRACT: note_on channel=9 note=42 velocity=80 time=0
EXTRACT: note_on channel=9 note=57 velocity=80 time=0
EXTRACT: note_on channel=9 note=35 velocity=80 time=0
EXTRACT: note_off channel=11 note=64 velocity=64 time=0.14285699999999998
EXTRACT: note_on channel=11 note=62 velocity=80 time=0
EXTRACT: note_off channel=6 note=67 velocity=64 time=0
EXTRACT: note_off channel=6 note=62 velocity=64 time=0
EXTRACT: note_on channel=6 note=67 velocity=80 time=0
EXTRACT: note_on channel=6 note=62 velocity=80 time=0
EXTRACT: note_off channel=9 note=82 velocity=64 time=0
EXTRACT: note_on channel=9 note=82 velocity=64 time=0
EXTRACT: note_off channel=6 note=67 velocity=64 time=0.14285699999999998
EXTRACT: note_off channel=6 note=62 velocity=64 time=0
EXTRACT: note_on channel=6 note=67 velocity=80 time=0
EXTRACT: note_on channel=6 note=62 velocity=80 time=0
EXTRACT: note_off channel=9 note=82 velocity=64 time=0
EXTRACT: note_on channel=9 note=82 velocity=64 time=0
EXTRACT: note_off channel=9 note=42 velocity=64 time=0
EXTRACT: note_off channel=9 note=57 velocity=64 time=0
EXTRACT: note_off channel=9 note=35 velocity=64 time=0
EXTRACT: note_on channel=9 note=42 velocity=80 time=0
EXTRACT: note_off channel=11 note=62 velocity=64 time=0.14285699999999998
EXTRACT: note_on channel=11 note=64 velocity=80 time=0
EXTRACT: note_off channel=6 note=67 velocity=64 time=0
EXTRACT: note_off channel=6 note=62 velocity=64 time=0
EXTRACT: note_on channel=6 note=67 velocity=80 time=0
EXTRACT: note_on channel=6 note=62 velocity=80 time=0
EXTRACT: note_off channel=4 note=29 velocity=64 time=0
EXTRACT: note_on channel=4 note=29 velocity=80 time=0
EXTRACT: note_off channel=2 note=64 velocity=64 time=0
EXTRACT: note_off channel=2 note=60 velocity=64 time=0
EXTRACT: note_off channel=2 note=57 velocity=64 time=0
EXTRACT: note_off channel=2 note=55 velocity=64 time=0
EXTRACT: note_on channel=2 note=64 velocity=80 time=0
EXTRACT: note_on channel=2 note=60 velocity=80 time=0
EXTRACT: note_on channel=2 note=57 velocity=80 time=0
EXTRACT: note_on channel=2 note=55 velocity=80 time=0
EXTRACT: note_off channel=11 note=64 velocity=64 time=0.14285699999999998
EXTRACT: note_off channel=6 note=67 velocity=64 time=0
EXTRACT: note_off channel=6 note=62 velocity=64 time=0
EXTRACT: note_on channel=6 note=67 velocity=80 time=0
EXTRACT: note_on channel=6 note=62 velocity=80 time=0
EXTRACT: note_off channel=4 note=29 velocity=64 time=0
EXTRACT: note_off channel=2 note=64 velocity=64 time=0
EXTRACT: note_off channel=2 note=60 velocity=64 time=0
EXTRACT: note_off channel=2 note=57 velocity=64 time=0
EXTRACT: note_off channel=2 note=55 velocity=64 time=0
EXTRACT: note_off channel=9 note=82 velocity=64 time=0
EXTRACT: note_off channel=9 note=42 velocity=64 time=0
EXTRACT: note_on channel=9 note=42 velocity=80 time=0
EXTRACT: note_on channel=9 note=57 velocity=80 time=0
EXTRACT: note_on channel=9 note=38 velocity=80 time=0
EXTRACT: note_off channel=6 note=67 velocity=64 time=0.14285699999999998
EXTRACT: note_off channel=6 note=62 velocity=64 time=0
EXTRACT: note_on channel=6 note=67 velocity=80 time=0
EXTRACT: note_on channel=6 note=62 velocity=80 time=0
EXTRACT: note_on channel=4 note=29 velocity=80 time=0
EXTRACT: note_on channel=11 note=62 velocity=80 time=0.14285699999999998
EXTRACT: note_off channel=6 note=67 velocity=64 time=0
EXTRACT: note_off channel=6 note=62 velocity=64 time=0
EXTRACT: note_on channel=6 note=67 velocity=80 time=0
EXTRACT: note_on channel=6 note=62 velocity=80 time=0
EXTRACT: note_off channel=4 note=29 velocity=64 time=0
EXTRACT: note_on channel=4 note=31 velocity=80 time=0
EXTRACT: note_on channel=2 note=66 velocity=80 time=0
EXTRACT: note_on channel=2 note=62 velocity=80 time=0
EXTRACT: note_on channel=2 note=59 velocity=80 time=0
EXTRACT: note_on channel=2 note=57 velocity=80 time=0
EXTRACT: note_off channel=8 note=69 velocity=64 time=0
EXTRACT: note_on channel=8 note=76 velocity=80 time=0
EXTRACT: note_off channel=9 note=42 velocity=64 time=0
EXTRACT: note_off channel=9 note=57 velocity=64 time=0
EXTRACT: note_off channel=9 note=38 velocity=64 time=0
EXTRACT: note_on channel=9 note=42 velocity=80 time=0
EXTRACT: note_on channel=9 note=35 velocity=80 time=0
EXTRACT: note_off channel=6 note=67 velocity=64 time=0.14285699999999998
EXTRACT: note_off channel=6 note=62 velocity=64 time=0
EXTRACT: note_on channel=6 note=67 velocity=80 time=0
EXTRACT: note_on channel=6 note=62 velocity=80 time=0
EXTRACT: note_off channel=11 note=62 velocity=64 time=0.14285699999999998
EXTRACT: note_on channel=11 note=64 velocity=80 time=0
EXTRACT: note_off channel=6 note=67 velocity=64 time=0
EXTRACT: note_off channel=6 note=62 velocity=64 time=0
EXTRACT: note_on channel=6 note=67 velocity=80 time=0
EXTRACT: note_on channel=6 note=62 velocity=80 time=0
EXTRACT: note_off channel=4 note=31 velocity=64 time=0
EXTRACT: note_off channel=2 note=66 velocity=64 time=0
EXTRACT: note_off channel=2 note=62 velocity=64 time=0
EXTRACT: note_off channel=2 note=59 velocity=64 time=0
EXTRACT: note_off channel=2 note=57 velocity=64 time=0
EXTRACT: note_off channel=8 note=76 velocity=64 time=0
EXTRACT: note_on channel=9 note=82 velocity=64 time=0
EXTRACT: note_off channel=9 note=42 velocity=64 time=0
EXTRACT: note_off channel=9 note=35 velocity=64 time=0
EXTRACT: note_on channel=9 note=42 velocity=80 time=0
EXTRACT: note_on channel=9 note=57 velocity=80 time=0
EXTRACT: note_off channel=11 note=64 velocity=64 time=0.14285699999999998
EXTRACT: note_on channel=11 note=62 velocity=80 time=0
EXTRACT: note_off channel=6 note=67 velocity=64 time=0
EXTRACT: note_off channel=6 note=62 velocity=64 time=0
EXTRACT: note_on channel=6 note=67 velocity=80 time=0
EXTRACT: note_on channel=6 note=62 velocity=80 time=0
EXTRACT: note_off channel=9 note=82 velocity=64 time=0
EXTRACT: note_on channel=9 note=82 velocity=64 time=0
EXTRACT: note_off channel=6 note=67 velocity=64 time=0.14285699999999998
EXTRACT: note_off channel=6 note=62 velocity=64 time=0
EXTRACT: note_on channel=6 note=67 velocity=80 time=0
EXTRACT: note_on channel=6 note=62 velocity=80 time=0
EXTRACT: note_off channel=9 note=82 velocity=64 time=0
EXTRACT: note_on channel=9 note=82 velocity=64 time=0
EXTRACT: note_off channel=9 note=42 velocity=64 time=0
EXTRACT: note_off channel=9 note=57 velocity=64 time=0
EXTRACT: note_on channel=9 note=42 velocity=80 time=0
EXTRACT: note_off channel=11 note=62 velocity=64 time=0.14285699999999998
EXTRACT: note_on channel=11 note=66 velocity=80 time=0
EXTRACT: note_off channel=6 note=67 velocity=64 time=0
EXTRACT: note_off channel=6 note=62 velocity=64 time=0
EXTRACT: note_on channel=6 note=67 velocity=80 time=0
EXTRACT: note_on channel=6 note=62 velocity=80 time=0
EXTRACT: note_on channel=4 note=38 velocity=80 time=0
EXTRACT: note_off channel=11 note=66 velocity=64 time=0.14285699999999998
EXTRACT: note_on channel=11 note=64 velocity=80 time=0
EXTRACT: note_off channel=6 note=67 velocity=64 time=0
EXTRACT: note_off channel=6 note=62 velocity=64 time=0
EXTRACT: note_on channel=6 note=67 velocity=80 time=0
EXTRACT: note_on channel=6 note=62 velocity=80 time=0
EXTRACT: note_off channel=4 note=38 velocity=64 time=0
EXTRACT: note_on channel=4 note=43 velocity=80 time=0
EXTRACT: note_on channel=2 note=66 velocity=80 time=0
EXTRACT: note_on channel=2 note=62 velocity=80 time=0
EXTRACT: note_on channel=2 note=59 velocity=80 time=0
EXTRACT: note_on channel=2 note=57 velocity=80 time=0
EXTRACT: note_off channel=9 note=82 velocity=64 time=0
EXTRACT: note_off channel=9 note=42 velocity=64 time=0
EXTRACT: note_on channel=9 note=42 velocity=80 time=0
EXTRACT: note_on channel=9 note=57 velocity=80 time=0
EXTRACT: note_on channel=9 note=38 velocity=80 time=0
EXTRACT: note_off channel=11 note=64 velocity=64 time=0.14285699999999998
EXTRACT: note_on channel=11 note=66 velocity=80 time=0
EXTRACT: note_off channel=6 note=67 velocity=64 time=0
EXTRACT: note_off channel=6 note=62 velocity=64 time=0
EXTRACT: note_on channel=6 note=67 velocity=80 time=0
EXTRACT: note_on channel=6 note=62 velocity=80 time=0
EXTRACT: note_off channel=4 note=43 velocity=64 time=0
EXTRACT: note_on channel=4 note=38 velocity=80 time=0
EXTRACT: note_off channel=11 note=66 velocity=64 time=0.14285699999999998
EXTRACT: note_off channel=6 note=67 velocity=64 time=0
EXTRACT: note_off channel=6 note=62 velocity=64 time=0
EXTRACT: note_on channel=6 note=67 velocity=80 time=0
EXTRACT: note_on channel=6 note=62 velocity=80 time=0
EXTRACT: note_off channel=4 note=38 velocity=64 time=0
EXTRACT: note_on channel=4 note=31 velocity=80 time=0
EXTRACT: note_off channel=9 note=42 velocity=64 time=0
EXTRACT: note_off channel=9 note=57 velocity=64 time=0
EXTRACT: note_off channel=9 note=38 velocity=64 time=0
EXTRACT: note_on channel=9 note=42 velocity=80 time=0
EXTRACT: note_off channel=6 note=67 velocity=64 time=0.14285699999999998
EXTRACT: note_off channel=6 note=62 velocity=64 time=0
EXTRACT: note_on channel=6 note=67 velocity=80 time=0
EXTRACT: note_on channel=6 note=62 velocity=80 time=0
EXTRACT: note_off channel=4 note=31 velocity=64 time=0
EXTRACT: note_on channel=4 note=32 velocity=80 time=0
EXTRACT: note_on channel=11 note=60 velocity=80 time=0.14285699999999998
EXTRACT: note_off channel=6 note=67 velocity=64 time=0
EXTRACT: note_off channel=6 note=62 velocity=64 time=0
EXTRACT: note_on channel=6 note=67 velocity=80 time=0
EXTRACT: note_on channel=6 note=62 velocity=80 time=0
EXTRACT: note_off channel=4 note=32 velocity=64 time=0
EXTRACT: note_on channel=4 note=33 velocity=80 time=0
EXTRACT: note_off channel=2 note=66 velocity=64 time=0
EXTRACT: note_off channel=2 note=62 velocity=64 time=0
EXTRACT: note_off channel=2 note=59 velocity=64 time=0
EXTRACT: note_off channel=2 note=57 velocity=64 time=0
EXTRACT: note_on channel=2 note=68 velocity=80 time=0
EXTRACT: note_on channel=2 note=64 velocity=80 time=0
EXTRACT: note_on channel=2 note=61 velocity=80 time=0
EXTRACT: note_on channel=2 note=59 velocity=80 time=0
EXTRACT: note_on channel=8 note=83 velocity=80 time=0
EXTRACT: note_on channel=9 note=82 velocity=64 time=0
EXTRACT: note_off channel=9 note=42 velocity=64 time=0
EXTRACT: note_on channel=9 note=42 velocity=80 time=0
EXTRACT: note_on channel=9 note=57 velocity=80 time=0
EXTRACT: note_on channel=9 note=35 velocity=80 time=0
EXTRACT: note_off channel=11 note=60 velocity=64 time=0.14285699999999998
EXTRACT: note_on channel=11 note=60 velocity=80 time=0
EXTRACT: note_off channel=6 note=67 velocity=64 time=0
EXTRACT: note_off channel=6 note=62 velocity=64 time=0
EXTRACT: note_on channel=6 note=67 velocity=80 time=0
EXTRACT: note_on channel=6 note=62 velocity=80 time=0
EXTRACT: note_off channel=9 note=82 velocity=64 time=0
EXTRACT: note_on channel=9 note=82 velocity=64 time=0
EXTRACT: note_off channel=11 note=60 velocity=64 time=0.14285699999999998
EXTRACT: note_on channel=11 note=60 velocity=80 time=0
EXTRACT: note_off channel=6 note=67 velocity=64 time=0
EXTRACT: note_off channel=6 note=62 velocity=64 time=0
EXTRACT: note_on channel=6 note=67 velocity=80 time=0
EXTRACT: note_on channel=6 note=62 velocity=80 time=0
EXTRACT: note_off channel=9 note=82 velocity=64 time=0
EXTRACT: note_on channel=9 note=82 velocity=64 time=0
EXTRACT: note_off channel=9 note=42 velocity=64 time=0
EXTRACT: note_off channel=9 note=57 velocity=64 time=0
EXTRACT: note_off channel=9 note=35 velocity=64 time=0
EXTRACT: note_on channel=9 note=42 velocity=80 time=0
EXTRACT: note_off channel=11 note=60 velocity=64 time=0.14285699999999998
EXTRACT: note_on channel=11 note=57 velocity=80 time=0
EXTRACT: note_off channel=6 note=67 velocity=64 time=0
EXTRACT: note_off channel=6 note=62 velocity=64 time=0
EXTRACT: note_on channel=6 note=67 velocity=80 time=0
EXTRACT: note_on channel=6 note=62 velocity=80 time=0
EXTRACT: note_off channel=4 note=33 velocity=64 time=0
EXTRACT: note_on channel=4 note=33 velocity=80 time=0
EXTRACT: note_off channel=2 note=68 velocity=64 time=0
EXTRACT: note_off channel=2 note=64 velocity=64 time=0
EXTRACT: note_off channel=2 note=61 velocity=64 time=0
EXTRACT: note_off channel=2 note=59 velocity=64 time=0
EXTRACT: note_on channel=2 note=68 velocity=80 time=0
EXTRACT: note_on channel=2 note=64 velocity=80 time=0
EXTRACT: note_on channel=2 note=61 velocity=80 time=0
EXTRACT: note_on channel=2 note=59 velocity=80 time=0
EXTRACT: note_off channel=11 note=57 velocity=64 time=0.14285699999999998
EXTRACT: note_on channel=11 note=60 velocity=80 time=0
EXTRACT: note_off channel=6 note=67 velocity=64 time=0
EXTRACT: note_off channel=6 note=62 velocity=64 time=0
EXTRACT: note_on channel=6 note=67 velocity=80 time=0
EXTRACT: note_on channel=6 note=62 velocity=80 time=0
EXTRACT: note_off channel=4 note=33 velocity=64 time=0
EXTRACT: note_off channel=2 note=68 velocity=64 time=0
EXTRACT: note_off channel=2 note=64 velocity=64 time=0
EXTRACT: note_off channel=2 note=61 velocity=64 time=0
EXTRACT: note_off channel=2 note=59 velocity=64 time=0
EXTRACT: note_off channel=9 note=82 velocity=64 time=0
EXTRACT: note_off channel=9 note=42 velocity=64 time=0
EXTRACT: note_on channel=9 note=42 velocity=80 time=0
EXTRACT: note_on channel=9 note=57 velocity=80 time=0
EXTRACT: note_on channel=9 note=38 velocity=80 time=0
EXTRACT: note_off channel=11 note=60 velocity=64 time=0.14285699999999998
EXTRACT: note_on channel=11 note=54 velocity=80 time=0
EXTRACT: note_off channel=6 note=67 velocity=64 time=0
EXTRACT: note_off channel=6 note=62 velocity=64 time=0
EXTRACT: note_on channel=6 note=67 velocity=80 time=0
EXTRACT: note_on channel=6 note=62 velocity=80 time=0
EXTRACT: note_off channel=11 note=54 velocity=64 time=0.14285699999999998
EXTRACT: note_on channel=11 note=54 velocity=80 time=0
EXTRACT: note_off channel=6 note=67 velocity=64 time=0
EXTRACT: note_off channel=6 note=62 velocity=64 time=0
EXTRACT: note_on channel=6 note=67 velocity=80 time=0
EXTRACT: note_on channel=6 note=62 velocity=80 time=0
EXTRACT: note_on channel=4 note=38 velocity=80 time=0
EXTRACT: note_on channel=2 note=64 velocity=80 time=0
EXTRACT: note_on channel=2 note=60 velocity=80 time=0
EXTRACT: note_on channel=2 note=59 velocity=80 time=0
EXTRACT: note_on channel=2 note=55 velocity=80 time=0
EXTRACT: note_off channel=8 note=83 velocity=64 time=0
EXTRACT: note_on channel=8 note=69 velocity=80 time=0
EXTRACT: note_off channel=9 note=42 velocity=64 time=0
EXTRACT: note_off channel=9 note=57 velocity=64 time=0
EXTRACT: note_off channel=9 note=38 velocity=64 time=0
EXTRACT: note_on channel=9 note=42 velocity=80 time=0
EXTRACT: note_on channel=9 note=35 velocity=80 time=0
EXTRACT: note_off channel=11 note=54 velocity=64 time=0.14285699999999998
EXTRACT: note_on channel=11 note=57 velocity=80 time=0
EXTRACT: note_off channel=6 note=67 velocity=64 time=0
EXTRACT: note_off channel=6 note=62 velocity=64 time=0
EXTRACT: note_on channel=6 note=67 velocity=80 time=0
EXTRACT: note_on channel=6 note=62 velocity=80 time=0
EXTRACT: note_off channel=11 note=57 velocity=64 time=0.14285699999999998
EXTRACT: note_off channel=6 note=67 velocity=64 time=0
EXTRACT: note_off channel=6 note=62 velocity=64 time=0
EXTRACT: note_on channel=6 note=67 velocity=80 time=0
EXTRACT: note_on channel=6 note=62 velocity=80 time=0
EXTRACT: note_off channel=4 note=38 velocity=64 time=0
EXTRACT: note_off channel=2 note=64 velocity=64 time=0
EXTRACT: note_off channel=2 note=60 velocity=64 time=0
EXTRACT: note_off channel=2 note=59 velocity=64 time=0
EXTRACT: note_off channel=2 note=55 velocity=64 time=0
EXTRACT: note_off channel=8 note=69 velocity=64 time=0
EXTRACT: note_on channel=9 note=82 velocity=64 time=0
EXTRACT: note_off channel=9 note=42 velocity=64 time=0
EXTRACT: note_off channel=9 note=35 velocity=64 time=0
EXTRACT: note_on channel=9 note=42 velocity=80 time=0
EXTRACT: note_on channel=9 note=57 velocity=80 time=0
EXTRACT: note_off channel=6 note=67 velocity=64 time=0.14285699999999998
EXTRACT: note_off channel=6 note=62 velocity=64 time=0
EXTRACT: note_on channel=6 note=67 velocity=80 time=0
EXTRACT: note_on channel=6 note=62 velocity=80 time=0
EXTRACT: note_on channel=2 note=64 velocity=80 time=0
EXTRACT: note_on channel=2 note=60 velocity=80 time=0
EXTRACT: note_on channel=2 note=59 velocity=80 time=0
EXTRACT: note_on channel=2 note=55 velocity=80 time=0
EXTRACT: note_off channel=9 note=82 velocity=64 time=0
EXTRACT: note_on channel=9 note=82 velocity=64 time=0
EXTRACT: note_off channel=6 note=67 velocity=64 time=0.14285699999999998
EXTRACT: note_off channel=6 note=62 velocity=64 time=0
EXTRACT: note_on channel=6 note=67 velocity=80 time=0
EXTRACT: note_on channel=6 note=62 velocity=80 time=0
EXTRACT: note_off channel=2 note=64 velocity=64 time=0
EXTRACT: note_off channel=2 note=60 velocity=64 time=0
EXTRACT: note_off channel=2 note=59 velocity=64 time=0
EXTRACT: note_off channel=2 note=55 velocity=64 time=0
EXTRACT: note_on channel=2 note=64 velocity=80 time=0
EXTRACT: note_on channel=2 note=60 velocity=80 time=0
EXTRACT: note_on channel=2 note=59 velocity=80 time=0
EXTRACT: note_on channel=2 note=55 velocity=80 time=0
EXTRACT: note_off channel=9 note=82 velocity=64 time=0
EXTRACT: note_on channel=9 note=82 velocity=64 time=0
EXTRACT: note_off channel=9 note=42 velocity=64 time=0
EXTRACT: note_off channel=9 note=57 velocity=64 time=0
EXTRACT: note_on channel=9 note=42 velocity=80 time=0
EXTRACT: note_off channel=6 note=67 velocity=64 time=0.14285699999999998
EXTRACT: note_off channel=6 note=62 velocity=64 time=0
EXTRACT: note_on channel=6 note=67 velocity=80 time=0
EXTRACT: note_on channel=6 note=62 velocity=80 time=0
EXTRACT: note_off channel=6 note=67 velocity=64 time=0.14285699999999998
EXTRACT: note_off channel=6 note=62 velocity=64 time=0
EXTRACT: note_on channel=6 note=67 velocity=80 time=0
EXTRACT: note_on channel=6 note=62 velocity=80 time=0
EXTRACT: note_off channel=2 note=64 velocity=64 time=0
EXTRACT: note_off channel=2 note=60 velocity=64 time=0
EXTRACT: note_off channel=2 note=59 velocity=64 time=0
EXTRACT: note_off channel=2 note=55 velocity=64 time=0
EXTRACT: note_on channel=2 note=64 velocity=80 time=0
EXTRACT: note_on channel=2 note=60 velocity=80 time=0
EXTRACT: note_on channel=2 note=59 velocity=80 time=0
EXTRACT: note_on channel=2 note=55 velocity=80 time=0
EXTRACT: note_off channel=9 note=82 velocity=64 time=0
EXTRACT: note_off channel=9 note=42 velocity=64 time=0
EXTRACT: note_on channel=9 note=42 velocity=80 time=0
EXTRACT: note_on channel=9 note=57 velocity=80 time=0
EXTRACT: note_on channel=9 note=38 velocity=80 time=0
EXTRACT: note_off channel=6 note=67 velocity=64 time=0.14285699999999998
EXTRACT: note_off channel=6 note=62 velocity=64 time=0
EXTRACT: note_on channel=6 note=67 velocity=80 time=0
EXTRACT: note_on channel=6 note=62 velocity=80 time=0
EXTRACT: note_on channel=4 note=33 velocity=80 time=0
EXTRACT: note_off channel=6 note=67 velocity=64 time=0.14285699999999998
EXTRACT: note_off channel=6 note=62 velocity=64 time=0
EXTRACT: note_on channel=6 note=67 velocity=80 time=0
EXTRACT: note_on channel=6 note=62 velocity=80 time=0
EXTRACT: note_off channel=4 note=33 velocity=64 time=0
EXTRACT: note_on channel=4 note=38 velocity=80 time=0
EXTRACT: note_off channel=9 note=42 velocity=64 time=0
EXTRACT: note_off channel=9 note=57 velocity=64 time=0
EXTRACT: note_off channel=9 note=38 velocity=64 time=0
EXTRACT: note_on channel=9 note=42 velocity=80 time=0
EXTRACT: note_off channel=6 note=67 velocity=64 time=0.14285699999999998
EXTRACT: note_off channel=6 note=62 velocity=64 time=0
EXTRACT: note_on channel=6 note=67 velocity=80 time=0
EXTRACT: note_on channel=6 note=62 velocity=80 time=0
EXTRACT: note_on channel=11 note=66 velocity=80 time=0.14285699999999998
EXTRACT: note_off channel=6 note=67 velocity=64 time=0
EXTRACT: note_off channel=6 note=62 velocity=64 time=0
EXTRACT: note_on channel=6 note=69 velocity=80 time=0
EXTRACT: note_on channel=6 note=64 velocity=80 time=0
EXTRACT: note_off channel=4 note=38 velocity=64 time=0
EXTRACT: note_on channel=4 note=35 velocity=80 time=0
EXTRACT: note_off channel=2 note=64 velocity=64 time=0
EXTRACT: note_off channel=2 note=60 velocity=64 time=0
EXTRACT: note_off channel=2 note=59 velocity=64 time=0
EXTRACT: note_off channel=2 note=55 velocity=64 time=0
EXTRACT: note_on channel=2 note=66 velocity=80 time=0
EXTRACT: note_on channel=2 note=62 velocity=80 time=0
EXTRACT: note_on channel=2 note=57 velocity=80 time=0
EXTRACT: note_on channel=8 note=73 velocity=72 time=0
EXTRACT: note_on channel=9 note=82 velocity=64 time=0
EXTRACT: note_off channel=9 note=42 velocity=64 time=0
EXTRACT: note_on channel=9 note=42 velocity=80 time=0
EXTRACT: note_on channel=9 note=57 velocity=80 time=0
EXTRACT: note_on channel=9 note=35 velocity=80 time=0
EXTRACT: note_off channel=6 note=69 velocity=64 time=0.14285699999999998
EXTRACT: note_off channel=6 note=64 velocity=64 time=0
EXTRACT: note_on channel=6 note=69 velocity=80 time=0
EXTRACT: note_on channel=6 note=64 velocity=80 time=0
EXTRACT: note_off channel=9 note=82 velocity=64 time=0
EXTRACT: note_on channel=9 note=82 velocity=64 time=0
EXTRACT: note_off channel=6 note=69 velocity=64 time=0.14285699999999998
EXTRACT: note_off channel=6 note=64 velocity=64 time=0
EXTRACT: note_on channel=6 note=69 velocity=80 time=0
EXTRACT: note_on channel=6 note=64 velocity=80 time=0
EXTRACT: note_off channel=4 note=35 velocity=64 time=0
EXTRACT: note_off channel=8 note=73 velocity=64 time=0
EXTRACT: note_on channel=8 note=71 velocity=72 time=0
EXTRACT: note_off channel=9 note=82 velocity=64 time=0
EXTRACT: note_on channel=9 note=82 velocity=64 time=0
EXTRACT: note_off channel=9 note=42 velocity=64 time=0
EXTRACT: note_off channel=9 note=57 velocity=64 time=0
EXTRACT: note_off channel=9 note=35 velocity=64 time=0
EXTRACT: note_on channel=9 note=42 velocity=80 time=0
EXTRACT: note_off channel=6 note=69 velocity=64 time=0.14285699999999998
EXTRACT: note_off channel=6 note=64 velocity=64 time=0
EXTRACT: note_on channel=6 note=69 velocity=80 time=0
EXTRACT: note_on channel=6 note=64 velocity=80 time=0
EXTRACT: note_on channel=4 note=35 velocity=80 time=0
EXTRACT: note_off channel=2 note=66 velocity=64 time=0
EXTRACT: note_off channel=2 note=62 velocity=64 time=0
EXTRACT: note_off channel=2 note=57 velocity=64 time=0
EXTRACT: note_on channel=2 note=66 velocity=80 time=0
EXTRACT: note_on channel=2 note=62 velocity=80 time=0
EXTRACT: note_on channel=2 note=57 velocity=80 time=0
EXTRACT: note_off channel=11 note=66 velocity=64 time=0.14285699999999998
EXTRACT: note_on channel=11 note=61 velocity=80 time=0
EXTRACT: note_off channel=6 note=69 velocity=64 time=0
EXTRACT: note_off channel=6 note=64 velocity=64 time=0
EXTRACT: note_on channel=6 note=69 velocity=80 time=0
EXTRACT: note_on channel=6 note=64 velocity=80 time=0
EXTRACT: note_off channel=4 note=35 velocity=64 time=0
EXTRACT: note_off channel=2 note=66 velocity=64 time=0
EXTRACT: note_off channel=2 note=62 velocity=64 time=0
EXTRACT: note_off channel=2 note=57 velocity=64 time=0
EXTRACT: note_off channel=8 note=71 velocity=64 time=0
EXTRACT: note_on channel=8 note=73 velocity=72 time=0
EXTRACT: note_off channel=9 note=82 velocity=64 time=0
EXTRACT: note_off channel=9 note=42 velocity=64 time=0
EXTRACT: note_on channel=9 note=42 velocity=80 time=0
EXTRACT: note_on channel=9 note=57 velocity=80 time=0
EXTRACT: note_on channel=9 note=38 velocity=80 time=0
EXTRACT: note_off channel=6 note=69 velocity=64 time=0.14285699999999998
EXTRACT: note_off channel=6 note=64 velocity=64 time=0
EXTRACT: note_on channel=6 note=69 velocity=80 time=0
EXTRACT: note_on channel=6 note=64 velocity=80 time=0
EXTRACT: note_off channel=11 note=61 velocity=64 time=0.14285699999999998
EXTRACT: note_on channel=11 note=61 velocity=80 time=0
EXTRACT: note_off channel=6 note=69 velocity=64 time=0
EXTRACT: note_off channel=6 note=64 velocity=64 time=0
EXTRACT: note_on channel=6 note=69 velocity=80 time=0
EXTRACT: note_on channel=6 note=64 velocity=80 time=0
EXTRACT: note_on channel=4 note=30 velocity=80 time=0
EXTRACT: note_on channel=2 note=69 velocity=80 time=0
EXTRACT: note_on channel=2 note=64 velocity=80 time=0
EXTRACT: note_on channel=2 note=61 velocity=80 time=0
EXTRACT: note_on channel=2 note=57 velocity=80 time=0
EXTRACT: note_off channel=8 note=73 velocity=64 time=0
EXTRACT: note_on channel=8 note=71 velocity=72 time=0
EXTRACT: note_off channel=9 note=42 velocity=64 time=0
EXTRACT: note_off channel=9 note=57 velocity=64 time=0
EXTRACT: note_off channel=9 note=38 velocity=64 time=0
EXTRACT: note_on channel=9 note=42 velocity=80 time=0
EXTRACT: note_on channel=9 note=35 velocity=80 time=0
EXTRACT: note_off channel=6 note=69 velocity=64 time=0.14285699999999998
EXTRACT: note_off channel=6 note=64 velocity=64 time=0
EXTRACT: note_on channel=6 note=69 velocity=80 time=0
EXTRACT: note_on channel=6 note=64 velocity=80 time=0
EXTRACT: note_off channel=8 note=71 velocity=64 time=0
EXTRACT: note_on channel=8 note=73 velocity=72 time=0
EXTRACT: note_off channel=11 note=61 velocity=64 time=0.14285699999999998
EXTRACT: note_off channel=6 note=69 velocity=64 time=0
EXTRACT: note_off channel=6 note=64 velocity=64 time=0
EXTRACT: note_on channel=6 note=69 velocity=80 time=0
EXTRACT: note_on channel=6 note=64 velocity=80 time=0
EXTRACT: note_off channel=4 note=30 velocity=64 time=0
EXTRACT: note_off channel=2 note=69 velocity=64 time=0
EXTRACT: note_off channel=2 note=64 velocity=64 time=0
EXTRACT: note_off channel=2 note=61 velocity=64 time=0
EXTRACT: note_off channel=2 note=57 velocity=64 time=0
EXTRACT: note_off channel=8 note=73 velocity=64 time=0
EXTRACT: note_on channel=9 note=82 velocity=64 time=0
EXTRACT: note_off channel=9 note=42 velocity=64 time=0
EXTRACT: note_off channel=9 note=35 velocity=64 time=0
EXTRACT: note_on channel=9 note=42 velocity=80 time=0
EXTRACT: note_on channel=9 note=57 velocity=80 time=0
EXTRACT: note_on channel=8 note=71 velocity=72 time=0.14285699999999998
EXTRACT: note_off channel=9 note=82 velocity=64 time=0
EXTRACT: note_on channel=9 note=82 velocity=64 time=0
EXTRACT: note_off channel=6 note=69 velocity=64 time=0.14285699999999998
EXTRACT: note_off channel=6 note=64 velocity=64 time=0
EXTRACT: note_on channel=6 note=69 velocity=80 time=0
EXTRACT: note_on channel=6 note=64 velocity=80 time=0
EXTRACT: note_off channel=8 note=71 velocity=64 time=0
EXTRACT: note_on channel=8 note=73 velocity=72 time=0
EXTRACT: note_off channel=9 note=82 velocity=64 time=0
EXTRACT: note_on channel=9 note=82 velocity=64 time=0
EXTRACT: note_off channel=9 note=42 velocity=64 time=0
EXTRACT: note_off channel=9 note=57 velocity=64 time=0
EXTRACT: note_on channel=9 note=42 velocity=80 time=0
EXTRACT: note_off channel=6 note=69 velocity=64 time=0.28571399999999997
EXTRACT: note_off channel=6 note=64 velocity=64 time=0
EXTRACT: note_on channel=6 note=69 velocity=80 time=0
EXTRACT: note_on channel=6 note=64 velocity=80 time=0
EXTRACT: note_on channel=2 note=69 velocity=80 time=0
EXTRACT: note_on channel=2 note=64 velocity=80 time=0
EXTRACT: note_on channel=2 note=61 velocity=80 time=0
EXTRACT: note_on channel=2 note=57 velocity=80 time=0
EXTRACT: note_off channel=8 note=73 velocity=64 time=0
EXTRACT: note_on channel=8 note=71 velocity=72 time=0
EXTRACT: note_off channel=9 note=82 velocity=64 time=0
EXTRACT: note_off channel=9 note=42 velocity=64 time=0
EXTRACT: note_on channel=9 note=42 velocity=80 time=0
EXTRACT: note_on channel=9 note=57 velocity=80 time=0
EXTRACT: note_on channel=9 note=38 velocity=80 time=0
EXTRACT: note_on channel=11 note=66 velocity=80 time=0.14285699999999998
EXTRACT: note_off channel=6 note=69 velocity=64 time=0
EXTRACT: note_off channel=6 note=64 velocity=64 time=0
EXTRACT: note_on channel=6 note=69 velocity=80 time=0
EXTRACT: note_on channel=6 note=64 velocity=80 time=0
EXTRACT: note_off channel=8 note=71 velocity=64 time=0
EXTRACT: note_on channel=8 note=73 velocity=72 time=0
EXTRACT: note_off channel=11 note=66 velocity=64 time=0.14285699999999998
EXTRACT: note_on channel=11 note=68 velocity=80 time=0
EXTRACT: note_off channel=6 note=69 velocity=64 time=0
EXTRACT: note_off channel=6 note=64 velocity=64 time=0
EXTRACT: note_on channel=6 note=69 velocity=80 time=0
EXTRACT: note_on channel=6 note=64 velocity=80 time=0
EXTRACT: note_on channel=4 note=35 velocity=80 time=0
EXTRACT: note_off channel=9 note=42 velocity=64 time=0
EXTRACT: note_off channel=9 note=57 velocity=64 time=0
EXTRACT: note_off channel=9 note=38 velocity=64 time=0
EXTRACT: note_on channel=9 note=42 velocity=80 time=0
EXTRACT: note_off channel=6 note=69 velocity=64 time=0.14285699999999998
EXTRACT: note_off channel=6 note=64 velocity=64 time=0
EXTRACT: note_on channel=6 note=69 velocity=80 time=0
EXTRACT: note_on channel=6 note=64 velocity=80 time=0
EXTRACT: note_off channel=4 note=35 velocity=64 time=0
EXTRACT: note_on channel=4 note=37 velocity=80 time=0
EXTRACT: note_off channel=8 note=73 velocity=64 time=0
EXTRACT: note_on channel=8 note=71 velocity=72 time=0
EXTRACT: note_off channel=11 note=68 velocity=64 time=0.14285699999999998
EXTRACT: note_on channel=11 note=66 velocity=80 time=0
EXTRACT: note_off channel=6 note=69 velocity=64 time=0
EXTRACT: note_off channel=6 note=64 velocity=64 time=0
EXTRACT: note_on channel=6 note=69 velocity=80 time=0
EXTRACT: note_on channel=6 note=64 velocity=80 time=0
EXTRACT: note_off channel=4 note=37 velocity=64 time=0
EXTRACT: note_on channel=4 note=35 velocity=80 time=0
EXTRACT: note_off channel=2 note=69 velocity=64 time=0
EXTRACT: note_off channel=2 note=64 velocity=64 time=0
EXTRACT: note_off channel=2 note=61 velocity=64 time=0
EXTRACT: note_off channel=2 note=57 velocity=64 time=0
EXTRACT: note_on channel=2 note=66 velocity=80 time=0
EXTRACT: note_on channel=2 note=62 velocity=80 time=0
EXTRACT: note_on channel=2 note=57 velocity=80 time=0
EXTRACT: note_off channel=8 note=71 velocity=64 time=0
EXTRACT: note_on channel=8 note=73 velocity=72 time=0
EXTRACT: note_on channel=9 note=82 velocity=64 time=0
EXTRACT: note_off channel=9 note=42 velocity=64 time=0
EXTRACT: note_on channel=9 note=42 velocity=80 time=0
EXTRACT: note_on channel=9 note=57 velocity=80 time=0
EXTRACT: note_on channel=9 note=35 velocity=80 time=0
EXTRACT: note_off channel=6 note=69 velocity=64 time=0.14285699999999998
EXTRACT: note_off channel=6 note=64 velocity=64 time=0
EXTRACT: note_on channel=6 note=69 velocity=80 time=0
EXTRACT: note_on channel=6 note=64 velocity=80 time=0
EXTRACT: note_off channel=9 note=82 velocity=64 time=0
EXTRACT: note_on channel=9 note=82 velocity=64 time=0
EXTRACT: note_off channel=11 note=66 velocity=64 time=0.14285699999999998
EXTRACT: note_on channel=11 note=64 velocity=80 time=0
EXTRACT: note_off channel=6 note=69 velocity=64 time=0
EXTRACT: note_off channel=6 note=64 velocity=64 time=0
EXTRACT: note_on channel=6 note=69 velocity=80 time=0
EXTRACT: note_on channel=6 note=64 velocity=80 time=0
EXTRACT: note_off channel=4 note=35 velocity=64 time=0
EXTRACT: note_off channel=8 note=73 velocity=64 time=0
EXTRACT: note_on channel=8 note=71 velocity=72 time=0
EXTRACT: note_off channel=9 note=82 velocity=64 time=0
EXTRACT: note_on channel=9 note=82 velocity=64 time=0
EXTRACT: note_off channel=9 note=42 velocity=64 time=0
EXTRACT: note_off channel=9 note=57 velocity=64 time=0
EXTRACT: note_off channel=9 note=35 velocity=64 time=0
EXTRACT: note_on channel=9 note=42 velocity=80 time=0
EXTRACT: note_off channel=6 note=69 velocity=64 time=0.14285699999999998
EXTRACT: note_off channel=6 note=64 velocity=64 time=0
EXTRACT: note_on channel=6 note=69 velocity=80 time=0
EXTRACT: note_on channel=6 note=64 velocity=80 time=0
EXTRACT: note_on channel=4 note=35 velocity=80 time=0
EXTRACT: note_off channel=2 note=66 velocity=64 time=0
EXTRACT: note_off channel=2 note=62 velocity=64 time=0
EXTRACT: note_off channel=2 note=57 velocity=64 time=0
EXTRACT: note_on channel=2 note=66 velocity=80 time=0
EXTRACT: note_on channel=2 note=62 velocity=80 time=0
EXTRACT: note_on channel=2 note=57 velocity=80 time=0
EXTRACT: note_off channel=11 note=64 velocity=64 time=0.14285699999999998
EXTRACT: note_on channel=11 note=61 velocity=80 time=0
EXTRACT: note_off channel=6 note=69 velocity=64 time=0
EXTRACT: note_off channel=6 note=64 velocity=64 time=0
EXTRACT: note_on channel=6 note=69 velocity=80 time=0
EXTRACT: note_on channel=6 note=64 velocity=80 time=0
EXTRACT: note_off channel=4 note=35 velocity=64 time=0
EXTRACT: note_off channel=2 note=66 velocity=64 time=0
EXTRACT: note_off channel=2 note=62 velocity=64 time=0
EXTRACT: note_off channel=2 note=57 velocity=64 time=0
EXTRACT: note_off channel=8 note=71 velocity=64 time=0
EXTRACT: note_on channel=8 note=74 velocity=80 time=0
EXTRACT: note_off channel=9 note=82 velocity=64 time=0
EXTRACT: note_off channel=9 note=42 velocity=64 time=0
EXTRACT: note_on channel=9 note=42 velocity=80 time=0
EXTRACT: note_on channel=9 note=57 velocity=80 time=0
EXTRACT: note_on channel=9 note=38 velocity=80 time=0
EXTRACT: note_off channel=6 note=69 velocity=64 time=0.14285699999999998
EXTRACT: note_off channel=6 note=64 velocity=64 time=0
EXTRACT: note_on channel=6 note=69 velocity=80 time=0
EXTRACT: note_on channel=6 note=64 velocity=80 time=0
EXTRACT: note_off channel=11 note=61 velocity=64 time=0.14285699999999998
EXTRACT: note_on channel=11 note=59 velocity=80 time=0
EXTRACT: note_off channel=6 note=69 velocity=64 time=0
EXTRACT: note_off channel=6 note=64 velocity=64 time=0
EXTRACT: note_on channel=6 note=69 velocity=80 time=0
EXTRACT: note_on channel=6 note=64 velocity=80 time=0
EXTRACT: note_on channel=4 note=30 velocity=80 time=0
EXTRACT: note_on channel=2 note=69 velocity=80 time=0
EXTRACT: note_on channel=2 note=64 velocity=80 time=0
EXTRACT: note_on channel=2 note=61 velocity=80 time=0
EXTRACT: note_on channel=2 note=57 velocity=80 time=0
EXTRACT: note_off channel=8 note=74 velocity=64 time=0
EXTRACT: note_on channel=8 note=73 velocity=80 time=0
EXTRACT: note_off channel=9 note=42 velocity=64 time=0
EXTRACT: note_off channel=9 note=57 velocity=64 time=0
EXTRACT: note_off channel=9 note=38 velocity=64 time=0
EXTRACT: note_on channel=9 note=42 velocity=80 time=0
EXTRACT: note_on channel=9 note=35 velocity=80 time=0
EXTRACT: note_off channel=11 note=59 velocity=64 time=0.14285699999999998
EXTRACT: note_on channel=11 note=61 velocity=80 time=0
EXTRACT: note_off channel=6 note=69 velocity=64 time=0
EXTRACT: note_off channel=6 note=64 velocity=64 time=0
EXTRACT: note_on channel=6 note=69 velocity=80 time=0
EXTRACT: note_on channel=6 note=64 velocity=80 time=0
EXTRACT: note_off channel=11 note=61 velocity=64 time=0.14285699999999998
EXTRACT: note_off channel=6 note=69 velocity=64 time=0
EXTRACT: note_off channel=6 note=64 velocity=64 time=0
EXTRACT: note_on channel=6 note=69 velocity=80 time=0
EXTRACT: note_on channel=6 note=64 velocity=80 time=0
EXTRACT: note_off channel=4 note=30 velocity=64 time=0
EXTRACT: note_off channel=2 note=69 velocity=64 time=0
EXTRACT: note_off channel=2 note=64 velocity=64 time=0
EXTRACT: note_off channel=2 note=61 velocity=64 time=0
EXTRACT: note_off channel=2 note=57 velocity=64 time=0
EXTRACT: note_off channel=8 note=73 velocity=64 time=0
EXTRACT: note_on channel=9 note=82 velocity=64 time=0
EXTRACT: note_off channel=9 note=42 velocity=64 time=0
EXTRACT: note_off channel=9 note=35 velocity=64 time=0
EXTRACT: note_on channel=9 note=42 velocity=80 time=0
EXTRACT: note_on channel=9 note=57 velocity=80 time=0
EXTRACT: note_off channel=9 note=82 velocity=64 time=0.14285699999999998
EXTRACT: note_on channel=9 note=82 velocity=64 time=0
EXTRACT: note_off channel=6 note=69 velocity=64 time=0.14285699999999998
EXTRACT: note_off channel=6 note=64 velocity=64 time=0
EXTRACT: note_on channel=6 note=69 velocity=80 time=0
EXTRACT: note_on channel=6 note=64 velocity=80 time=0
EXTRACT: note_on channel=8 note=71 velocity=80 time=0
EXTRACT: note_off channel=9 note=82 velocity=64 time=0
EXTRACT: note_on channel=9 note=82 velocity=64 time=0
EXTRACT: note_off channel=9 note=42 velocity=64 time=0
EXTRACT: note_off channel=9 note=57 velocity=64 time=0
EXTRACT: note_on channel=9 note=42 velocity=80 time=0
EXTRACT: note_off channel=6 note=69 velocity=64 time=0.28571399999999997
EXTRACT: note_off channel=6 note=64 velocity=64 time=0
EXTRACT: note_on channel=6 note=69 velocity=80 time=0
EXTRACT: note_on channel=6 note=64 velocity=80 time=0
EXTRACT: note_on channel=2 note=69 velocity=80 time=0
EXTRACT: note_on channel=2 note=64 velocity=80 time=0
EXTRACT: note_on channel=2 note=61 velocity=80 time=0
EXTRACT: note_on channel=2 note=57 velocity=80 time=0
EXTRACT: note_off channel=8 note=71 velocity=64 time=0
EXTRACT: note_on channel=8 note=73 velocity=80 time=0
EXTRACT: note_off channel=9 note=82 velocity=64 time=0
EXTRACT: note_off channel=9 note=42 velocity=64 time=0
EXTRACT: note_on channel=9 note=42 velocity=80 time=0
EXTRACT: note_on channel=9 note=57 velocity=80 time=0
EXTRACT: note_on channel=9 note=38 velocity=80 time=0
EXTRACT: note_off channel=6 note=69 velocity=64 time=0.14285699999999998
EXTRACT: note_off channel=6 note=64 velocity=64 time=0
EXTRACT: note_on channel=6 note=69 velocity=80 time=0
EXTRACT: note_on channel=6 note=64 velocity=80 time=0
EXTRACT: note_off channel=6 note=69 velocity=64 time=0.14285699999999998
EXTRACT: note_off channel=6 note=64 velocity=64 time=0
EXTRACT: note_on channel=6 note=69 velocity=80 time=0
EXTRACT: note_on channel=6 note=64 velocity=80 time=0
EXTRACT: note_on channel=4 note=35 velocity=80 time=0
EXTRACT: note_off channel=2 note=69 velocity=64 time=0
EXTRACT: note_off channel=2 note=64 velocity=64 time=0
EXTRACT: note_off channel=2 note=61 velocity=64 time=0
EXTRACT: note_off channel=2 note=57 velocity=64 time=0
EXTRACT: note_on channel=2 note=69 velocity=80 time=0
EXTRACT: note_on channel=2 note=64 velocity=80 time=0
EXTRACT: note_on channel=2 note=61 velocity=80 time=0
EXTRACT: note_on channel=2 note=57 velocity=80 time=0
EXTRACT: note_off channel=8 note=73 velocity=64 time=0
EXTRACT: note_on channel=8 note=71 velocity=80 time=0
EXTRACT: note_off channel=9 note=42 velocity=64 time=0
EXTRACT: note_off channel=9 note=57 velocity=64 time=0
EXTRACT: note_off channel=9 note=38 velocity=64 time=0
EXTRACT: note_on channel=9 note=42 velocity=80 time=0
EXTRACT: note_off channel=6 note=69 velocity=64 time=0.14285699999999998
EXTRACT: note_off channel=6 note=64 velocity=64 time=0
EXTRACT: note_on channel=6 note=69 velocity=80 time=0
EXTRACT: note_on channel=6 note=64 velocity=80 time=0
EXTRACT: note_off channel=4 note=35 velocity=64 time=0
EXTRACT: note_on channel=4 note=30 velocity=80 time=0
EXTRACT: note_on channel=11 note=60 velocity=80 time=0.14285699999999998
EXTRACT: note_off channel=6 note=69 velocity=64 time=0
EXTRACT: note_off channel=6 note=64 velocity=64 time=0
EXTRACT: note_on channel=6 note=67 velocity=80 time=0
EXTRACT: note_on channel=6 note=62 velocity=80 time=0
EXTRACT: note_off channel=4 note=30 velocity=64 time=0
EXTRACT: note_on channel=4 note=29 velocity=80 time=0
EXTRACT: note_off channel=2 note=69 velocity=64 time=0
EXTRACT: note_off channel=2 note=64 velocity=64 time=0
EXTRACT: note_off channel=2 note=61 velocity=64 time=0
EXTRACT: note_off channel=2 note=57 velocity=64 time=0
EXTRACT: note_on channel=2 note=64 velocity=80 time=0
EXTRACT: note_on channel=2 note=60 velocity=80 time=0
EXTRACT: note_on channel=2 note=57 velocity=80 time=0
EXTRACT: note_on channel=2 note=55 velocity=80 time=0
EXTRACT: note_off channel=8 note=71 velocity=64 time=0
EXTRACT: note_on channel=8 note=69 velocity=80 time=0
EXTRACT: note_on channel=9 note=82 velocity=64 time=0
EXTRACT: note_off channel=9 note=42 velocity=64 time=0
EXTRACT: note_on channel=9 note=42 velocity=80 time=0
EXTRACT: note_on channel=9 note=57 velocity=80 time=0
EXTRACT: note_on channel=9 note=35 velocity=80 time=0
EXTRACT: note_off channel=6 note=67 velocity=64 time=0.14285699999999998
EXTRACT: note_off channel=6 note=62 velocity=64 time=0
EXTRACT: note_on channel=6 note=67 velocity=80 time=0
EXTRACT: note_on channel=6 note=62 velocity=80 time=0
EXTRACT: note_off channel=9 note=82 velocity=64 time=0
EXTRACT: note_on channel=9 note=82 velocity=64 time=0
EXTRACT: note_off channel=6 note=67 velocity=64 time=0.14285699999999998
EXTRACT: note_off channel=6 note=62 velocity=64 time=0
EXTRACT: note_on channel=6 note=67 velocity=80 time=0
EXTRACT: note_on channel=6 note=62 velocity=80 time=0
EXTRACT: note_off channel=9 note=82 velocity=64 time=0
EXTRACT: note_on channel=9 note=82 velocity=64 time=0
EXTRACT: note_off channel=9 note=42 velocity=64 time=0
EXTRACT: note_off channel=9 note=57 velocity=64 time=0
EXTRACT: note_off channel=9 note=35 velocity=64 time=0
EXTRACT: note_on channel=9 note=42 velocity=80 time=0
EXTRACT: note_off channel=6 note=67 velocity=64 time=0.14285699999999998
EXTRACT: note_off channel=6 note=62 velocity=64 time=0
EXTRACT: note_on channel=6 note=67 velocity=80 time=0
EXTRACT: note_on channel=6 note=62 velocity=80 time=0
EXTRACT: note_off channel=4 note=29 velocity=64 time=0
EXTRACT: note_on channel=4 note=36 velocity=80 time=0
EXTRACT: note_off channel=2 note=64 velocity=64 time=0
EXTRACT: note_off channel=2 note=60 velocity=64 time=0
EXTRACT: note_off channel=2 note=57 velocity=64 time=0
EXTRACT: note_off channel=2 note=55 velocity=64 time=0
EXTRACT: note_on channel=2 note=64 velocity=80 time=0
EXTRACT: note_on channel=2 note=60 velocity=80 time=0
EXTRACT: note_on channel=2 note=57 velocity=80 time=0
EXTRACT: note_on channel=2 note=55 velocity=80 time=0
EXTRACT: note_off channel=11 note=60 velocity=64 time=0.14285699999999998
EXTRACT: note_on channel=11 note=60 velocity=80 time=0
EXTRACT: note_off channel=6 note=67 velocity=64 time=0
EXTRACT: note_off channel=6 note=62 velocity=64 time=0
EXTRACT: note_on channel=6 note=67 velocity=80 time=0
EXTRACT: note_on channel=6 note=62 velocity=80 time=0
EXTRACT: note_off channel=4 note=36 velocity=64 time=0
EXTRACT: note_off channel=2 note=64 velocity=64 time=0
EXTRACT: note_off channel=2 note=60 velocity=64 time=0
EXTRACT: note_off channel=2 note=57 velocity=64 time=0
EXTRACT: note_off channel=2 note=55 velocity=64 time=0
EXTRACT: note_off channel=9 note=82 velocity=64 time=0
EXTRACT: note_off channel=9 note=42 velocity=64 time=0
EXTRACT: note_on channel=9 note=42 velocity=80 time=0
EXTRACT: note_on channel=9 note=57 velocity=80 time=0
EXTRACT: note_on channel=9 note=38 velocity=80 time=0
EXTRACT: note_off channel=6 note=67 velocity=64 time=0.14285699999999998
EXTRACT: note_off channel=6 note=62 velocity=64 time=0
EXTRACT: note_on channel=6 note=67 velocity=80 time=0
EXTRACT: note_on channel=6 note=62 velocity=80 time=0
EXTRACT: note_on channel=4 note=29 velocity=80 time=0
EXTRACT: note_off channel=6 note=67 velocity=64 time=0.14285699999999998
EXTRACT: note_off channel=6 note=62 velocity=64 time=0
EXTRACT: note_on channel=6 note=67 velocity=80 time=0
EXTRACT: note_on channel=6 note=62 velocity=80 time=0
EXTRACT: note_off channel=4 note=29 velocity=64 time=0
EXTRACT: note_on channel=4 note=31 velocity=80 time=0
EXTRACT: note_on channel=2 note=66 velocity=80 time=0
EXTRACT: note_on channel=2 note=62 velocity=80 time=0
EXTRACT: note_on channel=2 note=59 velocity=80 time=0
EXTRACT: note_on channel=2 note=57 velocity=80 time=0
EXTRACT: note_off channel=8 note=69 velocity=64 time=0
EXTRACT: note_on channel=8 note=67 velocity=80 time=0
EXTRACT: note_off channel=9 note=42 velocity=64 time=0
EXTRACT: note_off channel=9 note=57 velocity=64 time=0
EXTRACT: note_off channel=9 note=38 velocity=64 time=0
EXTRACT: note_on channel=9 note=42 velocity=80 time=0
EXTRACT: note_on channel=9 note=35 velocity=80 time=0
EXTRACT: note_off channel=6 note=67 velocity=64 time=0.14285699999999998
EXTRACT: note_off channel=6 note=62 velocity=64 time=0
EXTRACT: note_on channel=6 note=67 velocity=80 time=0
EXTRACT: note_on channel=6 note=62 velocity=80 time=0
EXTRACT: note_off channel=11 note=60 velocity=64 time=0.14285699999999998
EXTRACT: note_on channel=11 note=60 velocity=80 time=0
EXTRACT: note_off channel=6 note=67 velocity=64 time=0
EXTRACT: note_off channel=6 note=62 velocity=64 time=0
EXTRACT: note_on channel=6 note=67 velocity=80 time=0
EXTRACT: note_on channel=6 note=62 velocity=80 time=0
EXTRACT: note_off channel=4 note=31 velocity=64 time=0
EXTRACT: note_off channel=2 note=66 velocity=64 time=0
EXTRACT: note_off channel=2 note=62 velocity=64 time=0
EXTRACT: note_off channel=2 note=59 velocity=64 time=0
EXTRACT: note_off channel=2 note=57 velocity=64 time=0
EXTRACT: note_off channel=8 note=67 velocity=64 time=0
EXTRACT: note_on channel=9 note=82 velocity=64 time=0
EXTRACT: note_off channel=9 note=42 velocity=64 time=0
EXTRACT: note_off channel=9 note=35 velocity=64 time=0
EXTRACT: note_on channel=9 note=42 velocity=80 time=0
EXTRACT: note_on channel=9 note=57 velocity=80 time=0
EXTRACT: note_off channel=6 note=67 velocity=64 time=0.14285699999999998
EXTRACT: note_off channel=6 note=62 velocity=64 time=0
EXTRACT: note_on channel=6 note=67 velocity=80 time=0
EXTRACT: note_on channel=6 note=62 velocity=80 time=0
EXTRACT: note_on channel=2 note=66 velocity=80 time=0
EXTRACT: note_on channel=2 note=62 velocity=80 time=0
EXTRACT: note_on channel=2 note=59 velocity=80 time=0
EXTRACT: note_on channel=2 note=57 velocity=80 time=0
EXTRACT: note_off channel=9 note=82 velocity=64 time=0
EXTRACT: note_on channel=9 note=82 velocity=64 time=0
EXTRACT: note_off channel=6 note=67 velocity=64 time=0.14285699999999998
EXTRACT: note_off channel=6 note=62 velocity=64 time=0
EXTRACT: note_on channel=6 note=67 velocity=80 time=0
EXTRACT: note_on channel=6 note=62 velocity=80 time=0
EXTRACT: note_off channel=9 note=82 velocity=64 time=0
EXTRACT: note_on channel=9 note=82 velocity=64 time=0
EXTRACT: note_off channel=9 note=42 velocity=64 time=0
EXTRACT: note_off channel=9 note=57 velocity=64 time=0
EXTRACT: note_on channel=9 note=42 velocity=80 time=0
EXTRACT: note_off channel=6 note=67 velocity=64 time=0.14285699999999998
EXTRACT: note_off channel=6 note=62 velocity=64 time=0
EXTRACT: note_on channel=6 note=67 velocity=80 time=0
EXTRACT: note_on channel=6 note=62 velocity=80 time=0
EXTRACT: note_on channel=4 note=38 velocity=80 time=0
EXTRACT: note_off channel=11 note=60 velocity=64 time=0.14285699999999998
EXTRACT: note_on channel=11 note=57 velocity=80 time=0
EXTRACT: note_off channel=6 note=67 velocity=64 time=0
EXTRACT: note_off channel=6 note=62 velocity=64 time=0
EXTRACT: note_on channel=6 note=67 velocity=80 time=0
EXTRACT: note_on channel=6 note=62 velocity=80 time=0
EXTRACT: note_off channel=4 note=38 velocity=64 time=0
EXTRACT: note_on channel=4 note=43 velocity=80 time=0
EXTRACT: note_off channel=2 note=66 velocity=64 time=0
EXTRACT: note_off channel=2 note=62 velocity=64 time=0
EXTRACT: note_off channel=2 note=59 velocity=64 time=0
EXTRACT: note_off channel=2 note=57 velocity=64 time=0
EXTRACT: note_on channel=2 note=66 velocity=80 time=0
EXTRACT: note_on channel=2 note=62 velocity=80 time=0
EXTRACT: note_on channel=2 note=59 velocity=80 time=0
EXTRACT: note_on channel=2 note=57 velocity=80 time=0
EXTRACT: note_off channel=9 note=82 velocity=64 time=0
EXTRACT: note_off channel=9 note=42 velocity=64 time=0
EXTRACT: note_on channel=9 note=42 velocity=80 time=0
EXTRACT: note_on channel=9 note=57 velocity=80 time=0
EXTRACT: note_on channel=9 note=38 velocity=80 time=0
EXTRACT: note_off channel=6 note=67 velocity=64 time=0.14285699999999998
EXTRACT: note_off channel=6 note=62 velocity=64 time=0
EXTRACT: note_on channel=6 note=67 velocity=80 time=0
EXTRACT: note_on channel=6 note=62 velocity=80 time=0
EXTRACT: note_off channel=4 note=43 velocity=64 time=0
EXTRACT: note_on channel=4 note=38 velocity=80 time=0
EXTRACT: note_off channel=6 note=67 velocity=64 time=0.14285699999999998
EXTRACT: note_off channel=6 note=62 velocity=64 time=0
EXTRACT: note_on channel=6 note=67 velocity=80 time=0
EXTRACT: note_on channel=6 note=62 velocity=80 time=0
EXTRACT: note_off channel=4 note=38 velocity=64 time=0
EXTRACT: note_on channel=4 note=31 velocity=80 time=0
EXTRACT: note_off channel=9 note=42 velocity=64 time=0
EXTRACT: note_off channel=9 note=57 velocity=64 time=0
EXTRACT: note_off channel=9 note=38 velocity=64 time=0
EXTRACT: note_on channel=9 note=42 velocity=80 time=0
EXTRACT: note_off channel=6 note=67 velocity=64 time=0.14285699999999998
EXTRACT: note_off channel=6 note=62 velocity=64 time=0
EXTRACT: note_on channel=6 note=67 velocity=80 time=0
EXTRACT: note_on channel=6 note=62 velocity=80 time=0
EXTRACT: note_off channel=4 note=31 velocity=64 time=0
EXTRACT: note_on channel=4 note=32 velocity=80 time=0
EXTRACT: note_off channel=11 note=57 velocity=64 time=0.14285699999999998
EXTRACT: note_on channel=11 note=60 velocity=80 time=0
EXTRACT: note_off channel=6 note=67 velocity=64 time=0
EXTRACT: note_off channel=6 note=62 velocity=64 time=0
EXTRACT: note_on channel=6 note=67 velocity=80 time=0
EXTRACT: note_on channel=6 note=62 velocity=80 time=0
EXTRACT: note_off channel=4 note=32 velocity=64 time=0
EXTRACT: note_on channel=4 note=33 velocity=80 time=0
EXTRACT: note_off channel=2 note=66 velocity=64 time=0
EXTRACT: note_off channel=2 note=62 velocity=64 time=0
EXTRACT: note_off channel=2 note=59 velocity=64 time=0
EXTRACT: note_off channel=2 note=57 velocity=64 time=0
EXTRACT: note_on channel=2 note=68 velocity=80 time=0
EXTRACT: note_on channel=2 note=64 velocity=80 time=0
EXTRACT: note_on channel=2 note=61 velocity=80 time=0
EXTRACT: note_on channel=2 note=59 velocity=80 time=0
EXTRACT: note_on channel=8 note=68 velocity=80 time=0
EXTRACT: note_on channel=9 note=82 velocity=64 time=0
EXTRACT: note_off channel=9 note=42 velocity=64 time=0
EXTRACT: note_on channel=9 note=42 velocity=80 time=0
EXTRACT: note_on channel=9 note=57 velocity=80 time=0
EXTRACT: note_on channel=9 note=35 velocity=80 time=0
EXTRACT: note_off channel=6 note=67 velocity=64 time=0.14285699999999998
EXTRACT: note_off channel=6 note=62 velocity=64 time=0
EXTRACT: note_on channel=6 note=67 velocity=80 time=0
EXTRACT: note_on channel=6 note=62 velocity=80 time=0
EXTRACT: note_off channel=9 note=82 velocity=64 time=0
EXTRACT: note_on channel=9 note=82 velocity=64 time=0
EXTRACT: note_off channel=6 note=67 velocity=64 time=0.14285699999999998
EXTRACT: note_off channel=6 note=62 velocity=64 time=0
EXTRACT: note_on channel=6 note=67 velocity=80 time=0
EXTRACT: note_on channel=6 note=62 velocity=80 time=0
EXTRACT: note_off channel=9 note=82 velocity=64 time=0
EXTRACT: note_on channel=9 note=82 velocity=64 time=0
EXTRACT: note_off channel=9 note=42 velocity=64 time=0
EXTRACT: note_off channel=9 note=57 velocity=64 time=0
EXTRACT: note_off channel=9 note=35 velocity=64 time=0
EXTRACT: note_on channel=9 note=42 velocity=80 time=0
EXTRACT: note_off channel=6 note=67 velocity=64 time=0.14285699999999998
EXTRACT: note_off channel=6 note=62 velocity=64 time=0
EXTRACT: note_on channel=6 note=67 velocity=80 time=0
EXTRACT: note_on channel=6 note=62 velocity=80 time=0
EXTRACT: note_off channel=4 note=33 velocity=64 time=0
EXTRACT: note_on channel=4 note=40 velocity=80 time=0
EXTRACT: note_off channel=2 note=68 velocity=64 time=0
EXTRACT: note_off channel=2 note=64 velocity=64 time=0
EXTRACT: note_off channel=2 note=61 velocity=64 time=0
EXTRACT: note_off channel=2 note=59 velocity=64 time=0
EXTRACT: note_on channel=2 note=68 velocity=80 time=0
EXTRACT: note_on channel=2 note=64 velocity=80 time=0
EXTRACT: note_on channel=2 note=61 velocity=80 time=0
EXTRACT: note_on channel=2 note=59 velocity=80 time=0
EXTRACT: note_off channel=11 note=60 velocity=64 time=0.14285699999999998
EXTRACT: note_on channel=11 note=62 velocity=80 time=0
EXTRACT: note_off channel=6 note=67 velocity=64 time=0
EXTRACT: note_off channel=6 note=62 velocity=64 time=0
EXTRACT: note_on channel=6 note=67 velocity=80 time=0
EXTRACT: note_on channel=6 note=62 velocity=80 time=0
EXTRACT: note_off channel=4 note=40 velocity=64 time=0
EXTRACT: note_off channel=2 note=68 velocity=64 time=0
EXTRACT: note_off channel=2 note=64 velocity=64 time=0
EXTRACT: note_off channel=2 note=61 velocity=64 time=0
EXTRACT: note_off channel=2 note=59 velocity=64 time=0
EXTRACT: note_off channel=9 note=82 velocity=64 time=0
EXTRACT: note_off channel=9 note=42 velocity=64 time=0
EXTRACT: note_on channel=9 note=42 velocity=80 time=0
EXTRACT: note_on channel=9 note=57 velocity=80 time=0
EXTRACT: note_on channel=9 note=38 velocity=80 time=0
EXTRACT: note_off channel=6 note=67 velocity=64 time=0.14285699999999998
EXTRACT: note_off channel=6 note=62 velocity=64 time=0
EXTRACT: note_on channel=6 note=67 velocity=80 time=0
EXTRACT: note_on channel=6 note=62 velocity=80 time=0
EXTRACT: note_on channel=4 note=33 velocity=80 time=0
EXTRACT: note_off channel=6 note=67 velocity=64 time=0.14285699999999998
EXTRACT: note_off channel=6 note=62 velocity=64 time=0
EXTRACT: note_on channel=6 note=67 velocity=80 time=0
EXTRACT: note_on channel=6 note=62 velocity=80 time=0
EXTRACT: note_off channel=4 note=33 velocity=64 time=0
EXTRACT: note_on channel=4 note=38 velocity=80 time=0
EXTRACT: note_on channel=2 note=64 velocity=80 time=0
EXTRACT: note_on channel=2 note=60 velocity=80 time=0
EXTRACT: note_on channel=2 note=59 velocity=80 time=0
EXTRACT: note_on channel=2 note=55 velocity=80 time=0
EXTRACT: note_off channel=8 note=68 velocity=64 time=0
EXTRACT: note_on channel=8 note=69 velocity=80 time=0
EXTRACT: note_off channel=9 note=42 velocity=64 time=0
EXTRACT: note_off channel=9 note=57 velocity=64 time=0
EXTRACT: note_off channel=9 note=38 velocity=64 time=0
EXTRACT: note_on channel=9 note=42 velocity=80 time=0
EXTRACT: note_on channel=9 note=35 velocity=80 time=0
EXTRACT: note_off channel=6 note=67 velocity=64 time=0.14285699999999998
EXTRACT: note_off channel=6 note=62 velocity=64 time=0
EXTRACT: note_on channel=6 note=67 velocity=80 time=0
EXTRACT: note_on channel=6 note=62 velocity=80 time=0
EXTRACT: note_off channel=11 note=62 velocity=64 time=0.14285699999999998
EXTRACT: note_on channel=11 note=57 velocity=80 time=0
EXTRACT: note_off channel=6 note=67 velocity=64 time=0
EXTRACT: note_off channel=6 note=62 velocity=64 time=0
EXTRACT: note_on channel=6 note=67 velocity=80 time=0
EXTRACT: note_on channel=6 note=62 velocity=80 time=0
EXTRACT: note_off channel=4 note=38 velocity=64 time=0
EXTRACT: note_off channel=2 note=64 velocity=64 time=0
EXTRACT: note_off channel=2 note=60 velocity=64 time=0
EXTRACT: note_off channel=2 note=59 velocity=64 time=0
EXTRACT: note_off channel=2 note=55 velocity=64 time=0
EXTRACT: note_off channel=8 note=69 velocity=64 time=0
EXTRACT: note_on channel=9 note=82 velocity=64 time=0
EXTRACT: note_off channel=9 note=42 velocity=64 time=0
EXTRACT: note_off channel=9 note=35 velocity=64 time=0
EXTRACT: note_on channel=9 note=42 velocity=80 time=0
EXTRACT: note_on channel=9 note=57 velocity=80 time=0
EXTRACT: note_off channel=11 note=57 velocity=64 time=0.14285699999999998
EXTRACT: note_on channel=11 note=55 velocity=80 time=0
EXTRACT: note_off channel=6 note=67 velocity=64 time=0
EXTRACT: note_off channel=6 note=62 velocity=64 time=0
EXTRACT: note_on channel=6 note=67 velocity=80 time=0
EXTRACT: note_on channel=6 note=62 velocity=80 time=0
EXTRACT: note_off channel=9 note=82 velocity=64 time=0
EXTRACT: note_on channel=9 note=82 velocity=64 time=0
EXTRACT: note_off channel=6 note=67 velocity=64 time=0.14285699999999998
EXTRACT: note_off channel=6 note=62 velocity=64 time=0
EXTRACT: note_on channel=6 note=67 velocity=80 time=0
EXTRACT: note_on channel=6 note=62 velocity=80 time=0
EXTRACT: note_off channel=9 note=82 velocity=64 time=0
EXTRACT: note_on channel=9 note=82 velocity=64 time=0
EXTRACT: note_off channel=9 note=42 velocity=64 time=0
EXTRACT: note_off channel=9 note=57 velocity=64 time=0
EXTRACT: note_on channel=9 note=42 velocity=80 time=0
EXTRACT: note_off channel=6 note=67 velocity=64 time=0.14285699999999998
EXTRACT: note_off channel=6 note=62 velocity=64 time=0
EXTRACT: note_on channel=6 note=67 velocity=80 time=0
EXTRACT: note_on channel=6 note=62 velocity=80 time=0
EXTRACT: note_on channel=4 note=33 velocity=80 time=0
EXTRACT: note_off channel=11 note=55 velocity=64 time=0.14285699999999998
EXTRACT: note_on channel=11 note=55 velocity=80 time=0
EXTRACT: note_off channel=6 note=67 velocity=64 time=0
EXTRACT: note_off channel=6 note=62 velocity=64 time=0
EXTRACT: note_on channel=6 note=67 velocity=80 time=0
EXTRACT: note_on channel=6 note=62 velocity=80 time=0
EXTRACT: note_off channel=4 note=33 velocity=64 time=0
EXTRACT: note_on channel=4 note=38 velocity=80 time=0
EXTRACT: note_on channel=2 note=64 velocity=80 time=0
EXTRACT: note_on channel=2 note=60 velocity=80 time=0
EXTRACT: note_on channel=2 note=59 velocity=80 time=0
EXTRACT: note_on channel=2 note=55 velocity=80 time=0
EXTRACT: note_off channel=9 note=82 velocity=64 time=0
EXTRACT: note_off channel=9 note=42 velocity=64 time=0
EXTRACT: note_on channel=9 note=42 velocity=80 time=0
EXTRACT: note_on channel=9 note=57 velocity=80 time=0
EXTRACT: note_on channel=9 note=38 velocity=80 time=0
EXTRACT: note_off channel=6 note=67 velocity=64 time=0.14285699999999998
EXTRACT: note_off channel=6 note=62 velocity=64 time=0
EXTRACT: note_on channel=6 note=67 velocity=80 time=0
EXTRACT: note_on channel=6 note=62 velocity=80 time=0
EXTRACT: note_off channel=4 note=38 velocity=64 time=0
EXTRACT: note_on channel=4 note=33 velocity=80 time=0
EXTRACT: note_off channel=6 note=67 velocity=64 time=0.14285699999999998
EXTRACT: note_off channel=6 note=62 velocity=64 time=0
EXTRACT: note_on channel=6 note=67 velocity=80 time=0
EXTRACT: note_on channel=6 note=62 velocity=80 time=0
EXTRACT: note_off channel=4 note=33 velocity=64 time=0
EXTRACT: note_on channel=4 note=37 velocity=80 time=0
EXTRACT: note_off channel=9 note=42 velocity=64 time=0
EXTRACT: note_off channel=9 note=57 velocity=64 time=0
EXTRACT: note_off channel=9 note=38 velocity=64 time=0
EXTRACT: note_on channel=9 note=42 velocity=80 time=0
EXTRACT: note_on channel=9 note=35 velocity=80 time=0
EXTRACT: note_off channel=6 note=67 velocity=64 time=0.14285699999999998
EXTRACT: note_off channel=6 note=62 velocity=64 time=0
EXTRACT: note_on channel=6 note=67 velocity=80 time=0
EXTRACT: note_on channel=6 note=62 velocity=80 time=0
EXTRACT: note_off channel=9 note=42 velocity=64 time=0
EXTRACT: note_off channel=9 note=35 velocity=64 time=0
EXTRACT: note_on channel=9 note=38 velocity=80 time=0
EXTRACT: note_off channel=11 note=55 velocity=64 time=0.14285699999999998
EXTRACT: note_on channel=11 note=66 velocity=80 time=0
EXTRACT: note_off channel=6 note=67 velocity=64 time=0
EXTRACT: note_off channel=6 note=62 velocity=64 time=0
EXTRACT: note_on channel=6 note=69 velocity=80 time=0
EXTRACT: note_on channel=6 note=64 velocity=80 time=0
EXTRACT: note_off channel=4 note=37 velocity=64 time=0
EXTRACT: note_on channel=4 note=35 velocity=80 time=0
EXTRACT: note_off channel=2 note=64 velocity=64 time=0
EXTRACT: note_off channel=2 note=60 velocity=64 time=0
EXTRACT: note_off channel=2 note=59 velocity=64 time=0
EXTRACT: note_off channel=2 note=55 velocity=64 time=0
EXTRACT: note_on channel=2 note=66 velocity=80 time=0
EXTRACT: note_on channel=2 note=62 velocity=80 time=0
EXTRACT: note_on channel=2 note=57 velocity=80 time=0
EXTRACT: note_on channel=8 note=73 velocity=72 time=0
EXTRACT: note_on channel=9 note=82 velocity=64 time=0
EXTRACT: note_off channel=9 note=38 velocity=64 time=0
EXTRACT: note_on channel=9 note=49 velocity=80 time=0
EXTRACT: note_on channel=9 note=57 velocity=80 time=0
EXTRACT: note_on channel=9 note=35 velocity=80 time=0
EXTRACT: note_off channel=6 note=69 velocity=64 time=0.14285699999999998
EXTRACT: note_off channel=6 note=64 velocity=64 time=0
EXTRACT: note_on channel=6 note=69 velocity=80 time=0
EXTRACT: note_on channel=6 note=64 velocity=80 time=0
EXTRACT: note_off channel=9 note=82 velocity=64 time=0
EXTRACT: note_on channel=9 note=82 velocity=64 time=0
EXTRACT: note_off channel=6 note=69 velocity=64 time=0.14285699999999998
EXTRACT: note_off channel=6 note=64 velocity=64 time=0
EXTRACT: note_on channel=6 note=69 velocity=80 time=0
EXTRACT: note_on channel=6 note=64 velocity=80 time=0
EXTRACT: note_off channel=4 note=35 velocity=64 time=0
EXTRACT: note_off channel=8 note=73 velocity=64 time=0
EXTRACT: note_on channel=8 note=71 velocity=72 time=0
EXTRACT: note_off channel=9 note=82 velocity=64 time=0
EXTRACT: note_on channel=9 note=82 velocity=64 time=0
EXTRACT: note_off channel=9 note=49 velocity=64 time=0
EXTRACT: note_off channel=9 note=57 velocity=64 time=0
EXTRACT: note_off channel=9 note=35 velocity=64 time=0
EXTRACT: note_on channel=9 note=42 velocity=80 time=0
EXTRACT: note_off channel=6 note=69 velocity=64 time=0.14285699999999998
EXTRACT: note_off channel=6 note=64 velocity=64 time=0
EXTRACT: note_on channel=6 note=69 velocity=80 time=0
EXTRACT: note_on channel=6 note=64 velocity=80 time=0
EXTRACT: note_on channel=4 note=35 velocity=80 time=0
EXTRACT: note_off channel=2 note=66 velocity=64 time=0
EXTRACT: note_off channel=2 note=62 velocity=64 time=0
EXTRACT: note_off channel=2 note=57 velocity=64 time=0
EXTRACT: note_on channel=2 note=66 velocity=80 time=0
EXTRACT: note_on channel=2 note=62 velocity=80 time=0
EXTRACT: note_on channel=2 note=57 velocity=80 time=0
EXTRACT: note_off channel=11 note=66 velocity=64 time=0.14285699999999998
EXTRACT: note_on channel=11 note=61 velocity=80 time=0
EXTRACT: note_off channel=6 note=69 velocity=64 time=0
EXTRACT: note_off channel=6 note=64 velocity=64 time=0
EXTRACT: note_on channel=6 note=69 velocity=80 time=0
EXTRACT: note_on channel=6 note=64 velocity=80 time=0
EXTRACT: note_off channel=4 note=35 velocity=64 time=0
EXTRACT: note_off channel=2 note=66 velocity=64 time=0
EXTRACT: note_off channel=2 note=62 velocity=64 time=0
EXTRACT: note_off channel=2 note=57 velocity=64 time=0
EXTRACT: note_off channel=8 note=71 velocity=64 time=0
EXTRACT: note_on channel=8 note=73 velocity=72 time=0
EXTRACT: note_off channel=9 note=82 velocity=64 time=0
EXTRACT: note_off channel=9 note=42 velocity=64 time=0
EXTRACT: note_on channel=9 note=42 velocity=80 time=0
EXTRACT: note_on channel=9 note=57 velocity=80 time=0
EXTRACT: note_on channel=9 note=38 velocity=80 time=0
EXTRACT: note_off channel=6 note=69 velocity=64 time=0.14285699999999998
EXTRACT: note_off channel=6 note=64 velocity=64 time=0
EXTRACT: note_on channel=6 note=69 velocity=80 time=0
EXTRACT: note_on channel=6 note=64 velocity=80 time=0
EXTRACT: note_off channel=6 note=69 velocity=64 time=0.14285699999999998
EXTRACT: note_off channel=6 note=64 velocity=64 time=0
EXTRACT: note_on channel=6 note=69 velocity=80 time=0
EXTRACT: note_on channel=6 note=64 velocity=80 time=0
EXTRACT: note_on channel=4 note=30 velocity=80 time=0
EXTRACT: note_on channel=2 note=69 velocity=80 time=0
EXTRACT: note_on channel=2 note=64 velocity=80 time=0
EXTRACT: note_on channel=2 note=61 velocity=80 time=0
EXTRACT: note_on channel=2 note=57 velocity=80 time=0
EXTRACT: note_off channel=8 note=73 velocity=64 time=0
EXTRACT: note_on channel=8 note=71 velocity=72 time=0
EXTRACT: note_off channel=9 note=42 velocity=64 time=0
EXTRACT: note_off channel=9 note=57 velocity=64 time=0
EXTRACT: note_off channel=9 note=38 velocity=64 time=0
EXTRACT: note_on channel=9 note=42 velocity=80 time=0
EXTRACT: note_on channel=9 note=35 velocity=80 time=0
EXTRACT: note_off channel=6 note=69 velocity=64 time=0.14285699999999998
EXTRACT: note_off channel=6 note=64 velocity=64 time=0
EXTRACT: note_on channel=6 note=69 velocity=80 time=0
EXTRACT: note_on channel=6 note=64 velocity=80 time=0
EXTRACT: note_off channel=8 note=71 velocity=64 time=0
EXTRACT: note_on channel=8 note=73 velocity=72 time=0
EXTRACT: note_off channel=6 note=69 velocity=64 time=0.14285699999999998
EXTRACT: note_off channel=6 note=64 velocity=64 time=0
EXTRACT: note_on channel=6 note=69 velocity=80 time=0
EXTRACT: note_on channel=6 note=64 velocity=80 time=0
EXTRACT: note_off channel=4 note=30 velocity=64 time=0
EXTRACT: note_off channel=2 note=69 velocity=64 time=0
EXTRACT: note_off channel=2 note=64 velocity=64 time=0
EXTRACT: note_off channel=2 note=61 velocity=64 time=0
EXTRACT: note_off channel=2 note=57 velocity=64 time=0
EXTRACT: note_off channel=8 note=73 velocity=64 time=0
EXTRACT: note_on channel=9 note=82 velocity=64 time=0
EXTRACT: note_off channel=9 note=42 velocity=64 time=0
EXTRACT: note_off channel=9 note=35 velocity=64 time=0
EXTRACT: note_on channel=9 note=42 velocity=80 time=0
EXTRACT: note_on channel=9 note=57 velocity=80 time=0
EXTRACT: note_on channel=8 note=71 velocity=72 time=0.14285699999999998
EXTRACT: note_off channel=9 note=82 velocity=64 time=0
EXTRACT: note_on channel=9 note=82 velocity=64 time=0
EXTRACT: note_off channel=6 note=69 velocity=64 time=0.14285699999999998
EXTRACT: note_off channel=6 note=64 velocity=64 time=0
EXTRACT: note_on channel=6 note=69 velocity=80 time=0
EXTRACT: note_on channel=6 note=64 velocity=80 time=0
EXTRACT: note_on channel=2 note=69 velocity=80 time=0
EXTRACT: note_on channel=2 note=64 velocity=80 time=0
EXTRACT: note_on channel=2 note=61 velocity=80 time=0
EXTRACT: note_on channel=2 note=57 velocity=80 time=0
EXTRACT: note_off channel=8 note=71 velocity=64 time=0
EXTRACT: note_on channel=8 note=73 velocity=72 time=0
EXTRACT: note_off channel=9 note=82 velocity=64 time=0
EXTRACT: note_on channel=9 note=82 velocity=64 time=0
EXTRACT: note_off channel=9 note=42 velocity=64 time=0
EXTRACT: note_off channel=9 note=57 velocity=64 time=0
EXTRACT: note_on channel=9 note=42 velocity=80 time=0
EXTRACT: note_off channel=11 note=61 velocity=64 time=0.28571399999999997
EXTRACT: note_off channel=6 note=69 velocity=64 time=0
EXTRACT: note_off channel=6 note=64 velocity=64 time=0
EXTRACT: note_on channel=6 note=69 velocity=80 time=0
EXTRACT: note_on channel=6 note=64 velocity=80 time=0
EXTRACT: note_off channel=2 note=69 velocity=64 time=0
EXTRACT: note_off channel=2 note=64 velocity=64 time=0
EXTRACT: note_off channel=2 note=61 velocity=64 time=0
EXTRACT: note_off channel=2 note=57 velocity=64 time=0
EXTRACT: note_on channel=2 note=69 velocity=80 time=0
EXTRACT: note_on channel=2 note=64 velocity=80 time=0
EXTRACT: note_on channel=2 note=61 velocity=80 time=0
EXTRACT: note_on channel=2 note=57 velocity=80 time=0
EXTRACT: note_off channel=8 note=73 velocity=64 time=0
EXTRACT: note_on channel=8 note=71 velocity=72 time=0
EXTRACT: note_off channel=9 note=82 velocity=64 time=0
EXTRACT: note_off channel=9 note=42 velocity=64 time=0
EXTRACT: note_on channel=9 note=42 velocity=80 time=0
EXTRACT: note_on channel=9 note=57 velocity=80 time=0
EXTRACT: note_on channel=9 note=38 velocity=80 time=0
EXTRACT: note_off channel=6 note=69 velocity=64 time=0.14285699999999998
EXTRACT: note_off channel=6 note=64 velocity=64 time=0
EXTRACT: note_on channel=6 note=69 velocity=80 time=0
EXTRACT: note_on channel=6 note=64 velocity=80 time=0
EXTRACT: note_on channel=4 note=37 velocity=80 time=0
EXTRACT: note_off channel=8 note=71 velocity=64 time=0
EXTRACT: note_on channel=8 note=73 velocity=72 time=0
EXTRACT: note_off channel=6 note=69 velocity=64 time=0.14285699999999998
EXTRACT: note_off channel=6 note=64 velocity=64 time=0
EXTRACT: note_on channel=6 note=69 velocity=80 time=0
EXTRACT: note_on channel=6 note=64 velocity=80 time=0
EXTRACT: note_off channel=4 note=37 velocity=64 time=0
EXTRACT: note_on channel=4 note=30 velocity=80 time=0
EXTRACT: note_off channel=9 note=42 velocity=64 time=0
EXTRACT: note_off channel=9 note=57 velocity=64 time=0
EXTRACT: note_off channel=9 note=38 velocity=64 time=0
EXTRACT: note_on channel=9 note=42 velocity=80 time=0
EXTRACT: note_on channel=11 note=59 velocity=80 time=0.14285699999999998
EXTRACT: note_off channel=6 note=69 velocity=64 time=0
EXTRACT: note_off channel=6 note=64 velocity=64 time=0
EXTRACT: note_on channel=6 note=69 velocity=80 time=0
EXTRACT: note_on channel=6 note=64 velocity=80 time=0
EXTRACT: note_off channel=8 note=73 velocity=64 time=0
EXTRACT: note_on channel=8 note=71 velocity=72 time=0
EXTRACT: note_off channel=11 note=59 velocity=64 time=0.14285699999999998
EXTRACT: note_on channel=11 note=61 velocity=80 time=0
EXTRACT: note_off channel=6 note=69 velocity=64 time=0
EXTRACT: note_off channel=6 note=64 velocity=64 time=0
EXTRACT: note_on channel=6 note=69 velocity=80 time=0
EXTRACT: note_on channel=6 note=64 velocity=80 time=0
EXTRACT: note_off channel=4 note=30 velocity=64 time=0
EXTRACT: note_on channel=4 note=35 velocity=80 time=0
EXTRACT: note_off channel=2 note=69 velocity=64 time=0
EXTRACT: note_off channel=2 note=64 velocity=64 time=0
EXTRACT: note_off channel=2 note=61 velocity=64 time=0
EXTRACT: note_off channel=2 note=57 velocity=64 time=0
EXTRACT: note_on channel=2 note=66 velocity=80 time=0
EXTRACT: note_on channel=2 note=62 velocity=80 time=0
EXTRACT: note_on channel=2 note=57 velocity=80 time=0
EXTRACT: note_off channel=8 note=71 velocity=64 time=0
EXTRACT: note_on channel=8 note=73 velocity=72 time=0
EXTRACT: note_on channel=9 note=82 velocity=64 time=0
EXTRACT: note_off channel=9 note=42 velocity=64 time=0
EXTRACT: note_on channel=9 note=42 velocity=80 time=0
EXTRACT: note_on channel=9 note=57 velocity=80 time=0
EXTRACT: note_on channel=9 note=35 velocity=80 time=0
EXTRACT: note_off channel=11 note=61 velocity=64 time=0.14285699999999998
EXTRACT: note_on channel=11 note=61 velocity=80 time=0
EXTRACT: note_off channel=6 note=69 velocity=64 time=0
EXTRACT: note_off channel=6 note=64 velocity=64 time=0
EXTRACT: note_on channel=6 note=69 velocity=80 time=0
EXTRACT: note_on channel=6 note=64 velocity=80 time=0
EXTRACT: note_off channel=9 note=82 velocity=64 time=0
EXTRACT: note_on channel=9 note=82 velocity=64 time=0
EXTRACT: note_off channel=11 note=61 velocity=64 time=0.14285699999999998
EXTRACT: note_on channel=11 note=61 velocity=80 time=0
EXTRACT: note_off channel=6 note=69 velocity=64 time=0
EXTRACT: note_off channel=6 note=64 velocity=64 time=0
EXTRACT: note_on channel=6 note=69 velocity=80 time=0
EXTRACT: note_on channel=6 note=64 velocity=80 time=0
EXTRACT: note_off channel=4 note=35 velocity=64 time=0
EXTRACT: note_off channel=8 note=73 velocity=64 time=0
EXTRACT: note_on channel=8 note=71 velocity=72 time=0
EXTRACT: note_off channel=9 note=82 velocity=64 time=0
EXTRACT: note_on channel=9 note=82 velocity=64 time=0
EXTRACT: note_off channel=9 note=42 velocity=64 time=0
EXTRACT: note_off channel=9 note=57 velocity=64 time=0
EXTRACT: note_off channel=9 note=35 velocity=64 time=0
EXTRACT: note_on channel=9 note=42 velocity=80 time=0
EXTRACT: note_off channel=6 note=69 velocity=64 time=0.14285699999999998
EXTRACT: note_off channel=6 note=64 velocity=64 time=0
EXTRACT: note_on channel=6 note=69 velocity=80 time=0
EXTRACT: note_on channel=6 note=64 velocity=80 time=0
EXTRACT: note_on channel=4 note=35 velocity=80 time=0
EXTRACT: note_off channel=2 note=66 velocity=64 time=0
EXTRACT: note_off channel=2 note=62 velocity=64 time=0
EXTRACT: note_off channel=2 note=57 velocity=64 time=0
EXTRACT: note_on channel=2 note=66 velocity=80 time=0
EXTRACT: note_on channel=2 note=62 velocity=80 time=0
EXTRACT: note_on channel=2 note=57 velocity=80 time=0
EXTRACT: note_off channel=11 note=61 velocity=64 time=0.14285699999999998
EXTRACT: note_on channel=11 note=61 velocity=80 time=0
EXTRACT: note_off channel=6 note=69 velocity=64 time=0
EXTRACT: note_off channel=6 note=64 velocity=64 time=0
EXTRACT: note_on channel=6 note=69 velocity=80 time=0
EXTRACT: note_on channel=6 note=64 velocity=80 time=0
EXTRACT: note_off channel=4 note=35 velocity=64 time=0
EXTRACT: note_off channel=2 note=66 velocity=64 time=0
EXTRACT: note_off channel=2 note=62 velocity=64 time=0
EXTRACT: note_off channel=2 note=57 velocity=64 time=0
EXTRACT: note_off channel=8 note=71 velocity=64 time=0
EXTRACT: note_on channel=8 note=74 velocity=80 time=0
EXTRACT: note_off channel=9 note=82 velocity=64 time=0
EXTRACT: note_off channel=9 note=42 velocity=64 time=0
EXTRACT: note_on channel=9 note=42 velocity=80 time=0
EXTRACT: note_on channel=9 note=57 velocity=80 time=0
EXTRACT: note_on channel=9 note=38 velocity=80 time=0
EXTRACT: note_off channel=6 note=69 velocity=64 time=0.14285699999999998
EXTRACT: note_off channel=6 note=64 velocity=64 time=0
EXTRACT: note_on channel=6 note=69 velocity=80 time=0
EXTRACT: note_on channel=6 note=64 velocity=80 time=0
EXTRACT: note_off channel=11 note=61 velocity=64 time=0.14285699999999998
EXTRACT: note_on channel=11 note=59 velocity=80 time=0
EXTRACT: note_off channel=6 note=69 velocity=64 time=0
EXTRACT: note_off channel=6 note=64 velocity=64 time=0
EXTRACT: note_on channel=6 note=69 velocity=80 time=0
EXTRACT: note_on channel=6 note=64 velocity=80 time=0
EXTRACT: note_on channel=4 note=30 velocity=80 time=0
EXTRACT: note_on channel=2 note=69 velocity=80 time=0
EXTRACT: note_on channel=2 note=64 velocity=80 time=0
EXTRACT: note_on channel=2 note=61 velocity=80 time=0
EXTRACT: note_on channel=2 note=57 velocity=80 time=0
EXTRACT: note_off channel=8 note=74 velocity=64 time=0
EXTRACT: note_on channel=8 note=73 velocity=80 time=0
EXTRACT: note_off channel=9 note=42 velocity=64 time=0
EXTRACT: note_off channel=9 note=57 velocity=64 time=0
EXTRACT: note_off channel=9 note=38 velocity=64 time=0
EXTRACT: note_on channel=9 note=42 velocity=80 time=0
EXTRACT: note_on channel=9 note=35 velocity=80 time=0
EXTRACT: note_off channel=11 note=59 velocity=64 time=0.14285699999999998
EXTRACT: note_on channel=11 note=61 velocity=80 time=0
EXTRACT: note_off channel=6 note=69 velocity=64 time=0
EXTRACT: note_off channel=6 note=64 velocity=64 time=0
EXTRACT: note_on channel=6 note=69 velocity=80 time=0
EXTRACT: note_on channel=6 note=64 velocity=80 time=0
EXTRACT: note_off channel=11 note=61 velocity=64 time=0.14285699999999998
EXTRACT: note_off channel=6 note=69 velocity=64 time=0
EXTRACT: note_off channel=6 note=64 velocity=64 time=0
EXTRACT: note_on channel=6 note=69 velocity=80 time=0
EXTRACT: note_on channel=6 note=64 velocity=80 time=0
EXTRACT: note_off channel=4 note=30 velocity=64 time=0
EXTRACT: note_off channel=2 note=69 velocity=64 time=0
EXTRACT: note_off channel=2 note=64 velocity=64 time=0
EXTRACT: note_off channel=2 note=61 velocity=64 time=0
EXTRACT: note_off channel=2 note=57 velocity=64 time=0
EXTRACT: note_off channel=8 note=73 velocity=64 time=0
EXTRACT: note_on channel=9 note=82 velocity=64 time=0
EXTRACT: note_off channel=9 note=42 velocity=64 time=0
EXTRACT: note_off channel=9 note=35 velocity=64 time=0
EXTRACT: note_on channel=9 note=42 velocity=80 time=0
EXTRACT: note_on channel=9 note=57 velocity=80 time=0
EXTRACT: note_off channel=9 note=82 velocity=64 time=0.14285699999999998
EXTRACT: note_on channel=9 note=82 velocity=64 time=0
EXTRACT: note_off channel=6 note=69 velocity=64 time=0.14285699999999998
EXTRACT: note_off channel=6 note=64 velocity=64 time=0
EXTRACT: note_on channel=6 note=69 velocity=80 time=0
EXTRACT: note_on channel=6 note=64 velocity=80 time=0
EXTRACT: note_on channel=8 note=71 velocity=80 time=0
EXTRACT: note_off channel=9 note=82 velocity=64 time=0
EXTRACT: note_on channel=9 note=82 velocity=64 time=0
EXTRACT: note_off channel=9 note=42 velocity=64 time=0
EXTRACT: note_off channel=9 note=57 velocity=64 time=0
EXTRACT: note_on channel=9 note=42 velocity=80 time=0
EXTRACT: note_off channel=6 note=69 velocity=64 time=0.28571399999999997
EXTRACT: note_off channel=6 note=64 velocity=64 time=0
EXTRACT: note_on channel=6 note=69 velocity=80 time=0
EXTRACT: note_on channel=6 note=64 velocity=80 time=0
EXTRACT: note_on channel=2 note=69 velocity=80 time=0
EXTRACT: note_on channel=2 note=64 velocity=80 time=0
EXTRACT: note_on channel=2 note=61 velocity=80 time=0
EXTRACT: note_on channel=2 note=57 velocity=80 time=0
EXTRACT: note_off channel=8 note=71 velocity=64 time=0
EXTRACT: note_on channel=8 note=73 velocity=80 time=0
EXTRACT: note_off channel=9 note=82 velocity=64 time=0
EXTRACT: note_off channel=9 note=42 velocity=64 time=0
EXTRACT: note_on channel=9 note=42 velocity=80 time=0
EXTRACT: note_on channel=9 note=57 velocity=80 time=0
EXTRACT: note_on channel=9 note=38 velocity=80 time=0
EXTRACT: note_off channel=6 note=69 velocity=64 time=0.14285699999999998
EXTRACT: note_off channel=6 note=64 velocity=64 time=0
EXTRACT: note_on channel=6 note=69 velocity=80 time=0
EXTRACT: note_on channel=6 note=64 velocity=80 time=0
EXTRACT: note_off channel=6 note=69 velocity=64 time=0.14285699999999998
EXTRACT: note_off channel=6 note=64 velocity=64 time=0
EXTRACT: note_on channel=6 note=69 velocity=80 time=0
EXTRACT: note_on channel=6 note=64 velocity=80 time=0
EXTRACT: note_off channel=8 note=73 velocity=64 time=0
EXTRACT: note_on channel=8 note=71 velocity=80 time=0
EXTRACT: note_off channel=9 note=42 velocity=64 time=0
EXTRACT: note_off channel=9 note=57 velocity=64 time=0
EXTRACT: note_off channel=9 note=38 velocity=64 time=0
EXTRACT: note_on channel=9 note=42 velocity=80 time=0
EXTRACT: note_off channel=6 note=69 velocity=64 time=0.14285699999999998
EXTRACT: note_off channel=6 note=64 velocity=64 time=0
EXTRACT: note_on channel=6 note=69 velocity=80 time=0
EXTRACT: note_on channel=6 note=64 velocity=80 time=0
EXTRACT: note_on channel=4 note=30 velocity=80 time=0
EXTRACT: note_on channel=11 note=64 velocity=80 time=0.14285699999999998
EXTRACT: note_off channel=6 note=69 velocity=64 time=0
EXTRACT: note_off channel=6 note=64 velocity=64 time=0
EXTRACT: note_on channel=6 note=67 velocity=80 time=0
EXTRACT: note_on channel=6 note=62 velocity=80 time=0
EXTRACT: note_off channel=4 note=30 velocity=64 time=0
EXTRACT: note_on channel=4 note=29 velocity=80 time=0
EXTRACT: note_off channel=2 note=69 velocity=64 time=0
EXTRACT: note_off channel=2 note=64 velocity=64 time=0
EXTRACT: note_off channel=2 note=61 velocity=64 time=0
EXTRACT: note_off channel=2 note=57 velocity=64 time=0
EXTRACT: note_on channel=2 note=64 velocity=80 time=0
EXTRACT: note_on channel=2 note=60 velocity=80 time=0
EXTRACT: note_on channel=2 note=57 velocity=80 time=0
EXTRACT: note_on channel=2 note=55 velocity=80 time=0
EXTRACT: note_off channel=8 note=71 velocity=64 time=0
EXTRACT: note_on channel=8 note=69 velocity=80 time=0
EXTRACT: note_on channel=9 note=82 velocity=64 time=0
EXTRACT: note_off channel=9 note=42 velocity=64 time=0
EXTRACT: note_on channel=9 note=42 velocity=80 time=0
EXTRACT: note_on channel=9 note=57 velocity=80 time=0
EXTRACT: note_on channel=9 note=35 velocity=80 time=0
EXTRACT: note_off channel=11 note=64 velocity=64 time=0.14285699999999998
EXTRACT: note_on channel=11 note=62 velocity=80 time=0
EXTRACT: note_off channel=6 note=67 velocity=64 time=0
EXTRACT: note_off channel=6 note=62 velocity=64 time=0
EXTRACT: note_on channel=6 note=67 velocity=80 time=0
EXTRACT: note_on channel=6 note=62 velocity=80 time=0
EXTRACT: note_off channel=9 note=82 velocity=64 time=0
EXTRACT: note_on channel=9 note=82 velocity=64 time=0
EXTRACT: note_off channel=6 note=67 velocity=64 time=0.14285699999999998
EXTRACT: note_off channel=6 note=62 velocity=64 time=0
EXTRACT: note_on channel=6 note=67 velocity=80 time=0
EXTRACT: note_on channel=6 note=62 velocity=80 time=0
EXTRACT: note_off channel=9 note=82 velocity=64 time=0
EXTRACT: note_on channel=9 note=82 velocity=64 time=0
EXTRACT: note_off channel=9 note=42 velocity=64 time=0
EXTRACT: note_off channel=9 note=57 velocity=64 time=0
EXTRACT: note_off channel=9 note=35 velocity=64 time=0
EXTRACT: note_on channel=9 note=42 velocity=80 time=0
EXTRACT: note_off channel=11 note=62 velocity=64 time=0.14285699999999998
EXTRACT: note_on channel=11 note=64 velocity=80 time=0
EXTRACT: note_off channel=6 note=67 velocity=64 time=0
EXTRACT: note_off channel=6 note=62 velocity=64 time=0
EXTRACT: note_on channel=6 note=67 velocity=80 time=0
EXTRACT: note_on channel=6 note=62 velocity=80 time=0
EXTRACT: note_off channel=4 note=29 velocity=64 time=0
EXTRACT: note_on channel=4 note=29 velocity=80 time=0
EXTRACT: note_off channel=2 note=64 velocity=64 time=0
EXTRACT: note_off channel=2 note=60 velocity=64 time=0
EXTRACT: note_off channel=2 note=57 velocity=64 time=0
EXTRACT: note_off channel=2 note=55 velocity=64 time=0
EXTRACT: note_on channel=2 note=64 velocity=80 time=0
EXTRACT: note_on channel=2 note=60 velocity=80 time=0
EXTRACT: note_on channel=2 note=57 velocity=80 time=0
EXTRACT: note_on channel=2 note=55 velocity=80 time=0
EXTRACT: note_off channel=11 note=64 velocity=64 time=0.14285699999999998
EXTRACT: note_off channel=6 note=67 velocity=64 time=0
EXTRACT: note_off channel=6 note=62 velocity=64 time=0
EXTRACT: note_on channel=6 note=67 velocity=80 time=0
EXTRACT: note_on channel=6 note=62 velocity=80 time=0
EXTRACT: note_off channel=4 note=29 velocity=64 time=0
EXTRACT: note_off channel=2 note=64 velocity=64 time=0
EXTRACT: note_off channel=2 note=60 velocity=64 time=0
EXTRACT: note_off channel=2 note=57 velocity=64 time=0
EXTRACT: note_off channel=2 note=55 velocity=64 time=0
EXTRACT: note_off channel=9 note=82 velocity=64 time=0
EXTRACT: note_off channel=9 note=42 velocity=64 time=0
EXTRACT: note_on channel=9 note=42 velocity=80 time=0
EXTRACT: note_on channel=9 note=57 velocity=80 time=0
EXTRACT: note_on channel=9 note=38 velocity=80 time=0
EXTRACT: note_off channel=6 note=67 velocity=64 time=0.14285699999999998
EXTRACT: note_off channel=6 note=62 velocity=64 time=0
EXTRACT: note_on channel=6 note=67 velocity=80 time=0
EXTRACT: note_on channel=6 note=62 velocity=80 time=0
EXTRACT: note_on channel=4 note=29 velocity=80 time=0
EXTRACT: note_on channel=11 note=62 velocity=80 time=0.14285699999999998
EXTRACT: note_off channel=6 note=67 velocity=64 time=0
EXTRACT: note_off channel=6 note=62 velocity=64 time=0
EXTRACT: note_on channel=6 note=67 velocity=80 time=0
EXTRACT: note_on channel=6 note=62 velocity=80 time=0
EXTRACT: note_off channel=4 note=29 velocity=64 time=0
EXTRACT: note_on channel=4 note=31 velocity=80 time=0
EXTRACT: note_on channel=2 note=66 velocity=80 time=0
EXTRACT: note_on channel=2 note=62 velocity=80 time=0
EXTRACT: note_on channel=2 note=59 velocity=80 time=0
EXTRACT: note_on channel=2 note=57 velocity=80 time=0
EXTRACT: note_off channel=8 note=69 velocity=64 time=0
EXTRACT: note_on channel=8 note=76 velocity=80 time=0
EXTRACT: note_off channel=9 note=42 velocity=64 time=0
EXTRACT: note_off channel=9 note=57 velocity=64 time=0
EXTRACT: note_off channel=9 note=38 velocity=64 time=0
EXTRACT: note_on channel=9 note=42 velocity=80 time=0
EXTRACT: note_on channel=9 note=35 velocity=80 time=0
EXTRACT: note_off channel=6 note=67 velocity=64 time=0.14285699999999998
EXTRACT: note_off channel=6 note=62 velocity=64 time=0
EXTRACT: note_on channel=6 note=67 velocity=80 time=0
EXTRACT: note_on channel=6 note=62 velocity=80 time=0
EXTRACT: note_off channel=11 note=62 velocity=64 time=0.14285699999999998
EXTRACT: note_on channel=11 note=64 velocity=80 time=0
EXTRACT: note_off channel=6 note=67 velocity=64 time=0
EXTRACT: note_off channel=6 note=62 velocity=64 time=0
EXTRACT: note_on channel=6 note=67 velocity=80 time=0
EXTRACT: note_on channel=6 note=62 velocity=80 time=0
EXTRACT: note_off channel=4 note=31 velocity=64 time=0
EXTRACT: note_off channel=2 note=66 velocity=64 time=0
EXTRACT: note_off channel=2 note=62 velocity=64 time=0
EXTRACT: note_off channel=2 note=59 velocity=64 time=0
EXTRACT: note_off channel=2 note=57 velocity=64 time=0
EXTRACT: note_off channel=8 note=76 velocity=64 time=0
EXTRACT: note_on channel=9 note=82 velocity=64 time=0
EXTRACT: note_off channel=9 note=42 velocity=64 time=0
EXTRACT: note_off channel=9 note=35 velocity=64 time=0
EXTRACT: note_on channel=9 note=42 velocity=80 time=0
EXTRACT: note_on channel=9 note=57 velocity=80 time=0
EXTRACT: note_off channel=11 note=64 velocity=64 time=0.14285699999999998
EXTRACT: note_on channel=11 note=62 velocity=80 time=0
EXTRACT: note_off channel=6 note=67 velocity=64 time=0
EXTRACT: note_off channel=6 note=62 velocity=64 time=0
EXTRACT: note_on channel=6 note=67 velocity=80 time=0
EXTRACT: note_on channel=6 note=62 velocity=80 time=0
EXTRACT: note_off channel=9 note=82 velocity=64 time=0
EXTRACT: note_on channel=9 note=82 velocity=64 time=0
EXTRACT: note_off channel=6 note=67 velocity=64 time=0.14285699999999998
EXTRACT: note_off channel=6 note=62 velocity=64 time=0
EXTRACT: note_on channel=6 note=67 velocity=80 time=0
EXTRACT: note_on channel=6 note=62 velocity=80 time=0
EXTRACT: note_off channel=9 note=82 velocity=64 time=0
EXTRACT: note_on channel=9 note=82 velocity=64 time=0
EXTRACT: note_off channel=9 note=42 velocity=64 time=0
EXTRACT: note_off channel=9 note=57 velocity=64 time=0
EXTRACT: note_on channel=9 note=42 velocity=80 time=0
EXTRACT: note_off channel=11 note=62 velocity=64 time=0.14285699999999998
EXTRACT: note_on channel=11 note=66 velocity=80 time=0
EXTRACT: note_off channel=6 note=67 velocity=64 time=0
EXTRACT: note_off channel=6 note=62 velocity=64 time=0
EXTRACT: note_on channel=6 note=67 velocity=80 time=0
EXTRACT: note_on channel=6 note=62 velocity=80 time=0
EXTRACT: note_off channel=11 note=66 velocity=64 time=0.14285699999999998
EXTRACT: note_on channel=11 note=64 velocity=80 time=0
EXTRACT: note_off channel=6 note=67 velocity=64 time=0
EXTRACT: note_off channel=6 note=62 velocity=64 time=0
EXTRACT: note_on channel=6 note=67 velocity=80 time=0
EXTRACT: note_on channel=6 note=62 velocity=80 time=0
EXTRACT: note_on channel=2 note=66 velocity=80 time=0
EXTRACT: note_on channel=2 note=62 velocity=80 time=0
EXTRACT: note_on channel=2 note=59 velocity=80 time=0
EXTRACT: note_on channel=2 note=57 velocity=80 time=0
EXTRACT: note_off channel=9 note=82 velocity=64 time=0
EXTRACT: note_off channel=9 note=42 velocity=64 time=0
EXTRACT: note_on channel=9 note=42 velocity=80 time=0
EXTRACT: note_on channel=9 note=57 velocity=80 time=0
EXTRACT: note_on channel=9 note=38 velocity=80 time=0
EXTRACT: note_off channel=11 note=64 velocity=64 time=0.14285699999999998
EXTRACT: note_on channel=11 note=66 velocity=80 time=0
EXTRACT: note_off channel=6 note=67 velocity=64 time=0
EXTRACT: note_off channel=6 note=62 velocity=64 time=0
EXTRACT: note_on channel=6 note=67 velocity=80 time=0
EXTRACT: note_on channel=6 note=62 velocity=80 time=0
EXTRACT: note_off channel=11 note=66 velocity=64 time=0.14285699999999998
EXTRACT: note_off channel=6 note=67 velocity=64 time=0
EXTRACT: note_off channel=6 note=62 velocity=64 time=0
EXTRACT: note_on channel=6 note=67 velocity=80 time=0
EXTRACT: note_on channel=6 note=62 velocity=80 time=0
EXTRACT: note_on channel=4 note=31 velocity=80 time=0
EXTRACT: note_off channel=9 note=42 velocity=64 time=0
EXTRACT: note_off channel=9 note=57 velocity=64 time=0
EXTRACT: note_off channel=9 note=38 velocity=64 time=0
EXTRACT: note_on channel=9 note=42 velocity=80 time=0
EXTRACT: note_off channel=6 note=67 velocity=64 time=0.14285699999999998
EXTRACT: note_off channel=6 note=62 velocity=64 time=0
EXTRACT: note_on channel=6 note=67 velocity=80 time=0
EXTRACT: note_on channel=6 note=62 velocity=80 time=0
EXTRACT: note_off channel=4 note=31 velocity=64 time=0
EXTRACT: note_on channel=4 note=32 velocity=80 time=0
EXTRACT: note_on channel=11 note=60 velocity=80 time=0.14285699999999998
EXTRACT: note_off channel=6 note=67 velocity=64 time=0
EXTRACT: note_off channel=6 note=62 velocity=64 time=0
EXTRACT: note_on channel=6 note=67 velocity=80 time=0
EXTRACT: note_on channel=6 note=62 velocity=80 time=0
EXTRACT: note_off channel=4 note=32 velocity=64 time=0
EXTRACT: note_on channel=4 note=33 velocity=80 time=0
EXTRACT: note_off channel=2 note=66 velocity=64 time=0
EXTRACT: note_off channel=2 note=62 velocity=64 time=0
EXTRACT: note_off channel=2 note=59 velocity=64 time=0
EXTRACT: note_off channel=2 note=57 velocity=64 time=0
EXTRACT: note_on channel=2 note=68 velocity=80 time=0
EXTRACT: note_on channel=2 note=64 velocity=80 time=0
EXTRACT: note_on channel=2 note=61 velocity=80 time=0
EXTRACT: note_on channel=2 note=59 velocity=80 time=0
EXTRACT: note_on channel=8 note=83 velocity=80 time=0
EXTRACT: note_on channel=9 note=82 velocity=64 time=0
EXTRACT: note_off channel=9 note=42 velocity=64 time=0
EXTRACT: note_on channel=9 note=42 velocity=80 time=0
EXTRACT: note_on channel=9 note=57 velocity=80 time=0
EXTRACT: note_on channel=9 note=35 velocity=80 time=0
EXTRACT: note_off channel=11 note=60 velocity=64 time=0.14285699999999998
EXTRACT: note_on channel=11 note=60 velocity=80 time=0
EXTRACT: note_off channel=6 note=67 velocity=64 time=0
EXTRACT: note_off channel=6 note=62 velocity=64 time=0
EXTRACT: note_on channel=6 note=67 velocity=80 time=0
EXTRACT: note_on channel=6 note=62 velocity=80 time=0
EXTRACT: note_off channel=9 note=82 velocity=64 time=0
EXTRACT: note_on channel=9 note=82 velocity=64 time=0
EXTRACT: note_off channel=11 note=60 velocity=64 time=0.14285699999999998
EXTRACT: note_on channel=11 note=60 velocity=80 time=0
EXTRACT: note_off channel=6 note=67 velocity=64 time=0
EXTRACT: note_off channel=6 note=62 velocity=64 time=0
EXTRACT: note_on channel=6 note=67 velocity=80 time=0
EXTRACT: note_on channel=6 note=62 velocity=80 time=0
EXTRACT: note_off channel=4 note=33 velocity=64 time=0
EXTRACT: note_on channel=4 note=40 velocity=80 time=0
EXTRACT: note_off channel=9 note=82 velocity=64 time=0
EXTRACT: note_on channel=9 note=82 velocity=64 time=0
EXTRACT: note_off channel=9 note=42 velocity=64 time=0
EXTRACT: note_off channel=9 note=57 velocity=64 time=0
EXTRACT: note_off channel=9 note=35 velocity=64 time=0
EXTRACT: note_on channel=9 note=42 velocity=80 time=0
EXTRACT: note_off channel=11 note=60 velocity=64 time=0.14285699999999998
EXTRACT: note_on channel=11 note=57 velocity=80 time=0
EXTRACT: note_off channel=6 note=67 velocity=64 time=0
EXTRACT: note_off channel=6 note=62 velocity=64 time=0
EXTRACT: note_on channel=6 note=67 velocity=80 time=0
EXTRACT: note_on channel=6 note=62 velocity=80 time=0
EXTRACT: note_off channel=4 note=40 velocity=64 time=0
EXTRACT: note_on channel=4 note=45 velocity=80 time=0
EXTRACT: note_off channel=2 note=68 velocity=64 time=0
EXTRACT: note_off channel=2 note=64 velocity=64 time=0
EXTRACT: note_off channel=2 note=61 velocity=64 time=0
EXTRACT: note_off channel=2 note=59 velocity=64 time=0
EXTRACT: note_on channel=2 note=68 velocity=80 time=0
EXTRACT: note_on channel=2 note=64 velocity=80 time=0
EXTRACT: note_on channel=2 note=61 velocity=80 time=0
EXTRACT: note_on channel=2 note=59 velocity=80 time=0
EXTRACT: note_off channel=11 note=57 velocity=64 time=0.14285699999999998
EXTRACT: note_on channel=11 note=60 velocity=80 time=0
EXTRACT: note_off channel=6 note=67 velocity=64 time=0
EXTRACT: note_off channel=6 note=62 velocity=64 time=0
EXTRACT: note_on channel=6 note=67 velocity=80 time=0
EXTRACT: note_on channel=6 note=62 velocity=80 time=0
EXTRACT: note_off channel=4 note=45 velocity=64 time=0
EXTRACT: note_off channel=2 note=68 velocity=64 time=0
EXTRACT: note_off channel=2 note=64 velocity=64 time=0
EXTRACT: note_off channel=2 note=61 velocity=64 time=0
EXTRACT: note_off channel=2 note=59 velocity=64 time=0
EXTRACT: note_off channel=9 note=82 velocity=64 time=0
EXTRACT: note_off channel=9 note=42 velocity=64 time=0
EXTRACT: note_on channel=9 note=42 velocity=80 time=0
EXTRACT: note_on channel=9 note=57 velocity=80 time=0
EXTRACT: note_on channel=9 note=38 velocity=80 time=0
EXTRACT: note_off channel=11 note=60 velocity=64 time=0.14285699999999998
EXTRACT: note_on channel=11 note=54 velocity=80 time=0
EXTRACT: note_off channel=6 note=67 velocity=64 time=0
EXTRACT: note_off channel=6 note=62 velocity=64 time=0
EXTRACT: note_on channel=6 note=67 velocity=80 time=0
EXTRACT: note_on channel=6 note=62 velocity=80 time=0
EXTRACT: note_off channel=11 note=54 velocity=64 time=0.14285699999999998
EXTRACT: note_on channel=11 note=54 velocity=80 time=0
EXTRACT: note_off channel=6 note=67 velocity=64 time=0
EXTRACT: note_off channel=6 note=62 velocity=64 time=0
EXTRACT: note_on channel=6 note=67 velocity=80 time=0
EXTRACT: note_on channel=6 note=62 velocity=80 time=0
EXTRACT: note_on channel=4 note=38 velocity=80 time=0
EXTRACT: note_on channel=2 note=64 velocity=80 time=0
EXTRACT: note_on channel=2 note=60 velocity=80 time=0
EXTRACT: note_on channel=2 note=59 velocity=80 time=0
EXTRACT: note_on channel=2 note=55 velocity=80 time=0
EXTRACT: note_off channel=8 note=83 velocity=64 time=0
EXTRACT: note_on channel=8 note=69 velocity=80 time=0
EXTRACT: note_off channel=9 note=42 velocity=64 time=0
EXTRACT: note_off channel=9 note=57 velocity=64 time=0
EXTRACT: note_off channel=9 note=38 velocity=64 time=0
EXTRACT: note_on channel=9 note=42 velocity=80 time=0
EXTRACT: note_on channel=9 note=35 velocity=80 time=0
EXTRACT: note_off channel=11 note=54 velocity=64 time=0.14285699999999998
EXTRACT: note_on channel=11 note=57 velocity=80 time=0
EXTRACT: note_off channel=6 note=67 velocity=64 time=0
EXTRACT: note_off channel=6 note=62 velocity=64 time=0
EXTRACT: note_on channel=6 note=67 velocity=80 time=0
EXTRACT: note_on channel=6 note=62 velocity=80 time=0
EXTRACT: note_off channel=11 note=57 velocity=64 time=0.14285699999999998
EXTRACT: note_off channel=6 note=67 velocity=64 time=0
EXTRACT: note_off channel=6 note=62 velocity=64 time=0
EXTRACT: note_on channel=6 note=67 velocity=80 time=0
EXTRACT: note_on channel=6 note=62 velocity=80 time=0
EXTRACT: note_off channel=4 note=38 velocity=64 time=0
EXTRACT: note_off channel=2 note=64 velocity=64 time=0
EXTRACT: note_off channel=2 note=60 velocity=64 time=0
EXTRACT: note_off channel=2 note=59 velocity=64 time=0
EXTRACT: note_off channel=2 note=55 velocity=64 time=0
EXTRACT: note_off channel=8 note=69 velocity=64 time=0
EXTRACT: note_on channel=9 note=82 velocity=64 time=0
EXTRACT: note_off channel=9 note=42 velocity=64 time=0
EXTRACT: note_off channel=9 note=35 velocity=64 time=0
EXTRACT: note_on channel=9 note=42 velocity=80 time=0
EXTRACT: note_on channel=9 note=57 velocity=80 time=0
EXTRACT: note_off channel=6 note=67 velocity=64 time=0.14285699999999998
EXTRACT: note_off channel=6 note=62 velocity=64 time=0
EXTRACT: note_on channel=6 note=67 velocity=80 time=0
EXTRACT: note_on channel=6 note=62 velocity=80 time=0
EXTRACT: note_on channel=2 note=64 velocity=80 time=0
EXTRACT: note_on channel=2 note=60 velocity=80 time=0
EXTRACT: note_on channel=2 note=59 velocity=80 time=0
EXTRACT: note_on channel=2 note=55 velocity=80 time=0
EXTRACT: note_off channel=9 note=82 velocity=64 time=0
EXTRACT: note_on channel=9 note=82 velocity=64 time=0
EXTRACT: note_off channel=6 note=67 velocity=64 time=0.14285699999999998
EXTRACT: note_off channel=6 note=62 velocity=64 time=0
EXTRACT: note_on channel=6 note=67 velocity=80 time=0
EXTRACT: note_on channel=6 note=62 velocity=80 time=0
EXTRACT: note_off channel=2 note=64 velocity=64 time=0
EXTRACT: note_off channel=2 note=60 velocity=64 time=0
EXTRACT: note_off channel=2 note=59 velocity=64 time=0
EXTRACT: note_off channel=2 note=55 velocity=64 time=0
EXTRACT: note_on channel=2 note=64 velocity=80 time=0
EXTRACT: note_on channel=2 note=60 velocity=80 time=0
EXTRACT: note_on channel=2 note=59 velocity=80 time=0
EXTRACT: note_on channel=2 note=55 velocity=80 time=0
EXTRACT: note_off channel=9 note=82 velocity=64 time=0
EXTRACT: note_on channel=9 note=82 velocity=64 time=0
EXTRACT: note_off channel=9 note=42 velocity=64 time=0
EXTRACT: note_off channel=9 note=57 velocity=64 time=0
EXTRACT: note_on channel=9 note=42 velocity=80 time=0
EXTRACT: note_off channel=6 note=67 velocity=64 time=0.14285699999999998
EXTRACT: note_off channel=6 note=62 velocity=64 time=0
EXTRACT: note_on channel=6 note=67 velocity=80 time=0
EXTRACT: note_on channel=6 note=62 velocity=80 time=0
EXTRACT: note_off channel=6 note=67 velocity=64 time=0.14285699999999998
EXTRACT: note_off channel=6 note=62 velocity=64 time=0
EXTRACT: note_on channel=6 note=67 velocity=80 time=0
EXTRACT: note_on channel=6 note=62 velocity=80 time=0
EXTRACT: note_off channel=2 note=64 velocity=64 time=0
EXTRACT: note_off channel=2 note=60 velocity=64 time=0
EXTRACT: note_off channel=2 note=59 velocity=64 time=0
EXTRACT: note_off channel=2 note=55 velocity=64 time=0
EXTRACT: note_on channel=2 note=64 velocity=80 time=0
EXTRACT: note_on channel=2 note=60 velocity=80 time=0
EXTRACT: note_on channel=2 note=59 velocity=80 time=0
EXTRACT: note_on channel=2 note=55 velocity=80 time=0
EXTRACT: note_off channel=9 note=82 velocity=64 time=0
EXTRACT: note_off channel=9 note=42 velocity=64 time=0
EXTRACT: note_on channel=9 note=42 velocity=80 time=0
EXTRACT: note_on channel=9 note=57 velocity=80 time=0
EXTRACT: note_on channel=9 note=38 velocity=80 time=0
EXTRACT: note_off channel=6 note=67 velocity=64 time=0.14285699999999998
EXTRACT: note_off channel=6 note=62 velocity=64 time=0
EXTRACT: note_on channel=6 note=67 velocity=80 time=0
EXTRACT: note_on channel=6 note=62 velocity=80 time=0
EXTRACT: note_off channel=6 note=67 velocity=64 time=0.14285699999999998
EXTRACT: note_off channel=6 note=62 velocity=64 time=0
EXTRACT: note_on channel=6 note=67 velocity=80 time=0
EXTRACT: note_on channel=6 note=62 velocity=80 time=0
EXTRACT: note_on channel=4 note=37 velocity=80 time=0
EXTRACT: note_off channel=9 note=42 velocity=64 time=0
EXTRACT: note_off channel=9 note=57 velocity=64 time=0
EXTRACT: note_off channel=9 note=38 velocity=64 time=0
EXTRACT: note_on channel=9 note=42 velocity=80 time=0
EXTRACT: note_off channel=6 note=67 velocity=64 time=0.14285699999999998
EXTRACT: note_off channel=6 note=62 velocity=64 time=0
EXTRACT: note_on channel=6 note=67 velocity=80 time=0
EXTRACT: note_on channel=6 note=62 velocity=80 time=0
EXTRACT: note_off channel=4 note=37 velocity=64 time=0
EXTRACT: note_on channel=4 note=36 velocity=80 time=0
EXTRACT: note_on channel=11 note=66 velocity=80 time=0.14285699999999998
EXTRACT: note_off channel=6 note=67 velocity=64 time=0
EXTRACT: note_off channel=6 note=62 velocity=64 time=0
EXTRACT: note_on channel=6 note=69 velocity=80 time=0
EXTRACT: note_on channel=6 note=64 velocity=80 time=0
EXTRACT: note_off channel=4 note=36 velocity=64 time=0
EXTRACT: note_on channel=4 note=35 velocity=80 time=0
EXTRACT: note_off channel=2 note=64 velocity=64 time=0
EXTRACT: note_off channel=2 note=60 velocity=64 time=0
EXTRACT: note_off channel=2 note=59 velocity=64 time=0
EXTRACT: note_off channel=2 note=55 velocity=64 time=0
EXTRACT: note_on channel=2 note=66 velocity=80 time=0
EXTRACT: note_on channel=2 note=62 velocity=80 time=0
EXTRACT: note_on channel=2 note=57 velocity=80 time=0
EXTRACT: note_on channel=8 note=73 velocity=72 time=0
EXTRACT: note_on channel=9 note=82 velocity=64 time=0
EXTRACT: note_off channel=9 note=42 velocity=64 time=0
EXTRACT: note_on channel=9 note=42 velocity=80 time=0
EXTRACT: note_on channel=9 note=57 velocity=80 time=0
EXTRACT: note_on channel=9 note=35 velocity=80 time=0
EXTRACT: note_off channel=6 note=69 velocity=64 time=0.14285699999999998
EXTRACT: note_off channel=6 note=64 velocity=64 time=0
EXTRACT: note_on channel=6 note=69 velocity=80 time=0
EXTRACT: note_on channel=6 note=64 velocity=80 time=0
EXTRACT: note_off channel=9 note=82 velocity=64 time=0
EXTRACT: note_on channel=9 note=82 velocity=64 time=0
EXTRACT: note_off channel=6 note=69 velocity=64 time=0.14285699999999998
EXTRACT: note_off channel=6 note=64 velocity=64 time=0
EXTRACT: note_on channel=6 note=69 velocity=80 time=0
EXTRACT: note_on channel=6 note=64 velocity=80 time=0
EXTRACT: note_off channel=4 note=35 velocity=64 time=0
EXTRACT: note_off channel=8 note=73 velocity=64 time=0
EXTRACT: note_on channel=8 note=71 velocity=72 time=0
EXTRACT: note_off channel=9 note=82 velocity=64 time=0
EXTRACT: note_on channel=9 note=82 velocity=64 time=0
EXTRACT: note_off channel=9 note=42 velocity=64 time=0
EXTRACT: note_off channel=9 note=57 velocity=64 time=0
EXTRACT: note_off channel=9 note=35 velocity=64 time=0
EXTRACT: note_on channel=9 note=42 velocity=80 time=0
EXTRACT: note_off channel=6 note=69 velocity=64 time=0.14285699999999998
EXTRACT: note_off channel=6 note=64 velocity=64 time=0
EXTRACT: note_on channel=6 note=69 velocity=80 time=0
EXTRACT: note_on channel=6 note=64 velocity=80 time=0
EXTRACT: note_on channel=4 note=35 velocity=80 time=0
EXTRACT: note_off channel=2 note=66 velocity=64 time=0
EXTRACT: note_off channel=2 note=62 velocity=64 time=0
EXTRACT: note_off channel=2 note=57 velocity=64 time=0
EXTRACT: note_on channel=2 note=66 velocity=80 time=0
EXTRACT: note_on channel=2 note=62 velocity=80 time=0
EXTRACT: note_on channel=2 note=57 velocity=80 time=0
EXTRACT: note_off channel=11 note=66 velocity=64 time=0.14285699999999998
EXTRACT: note_on channel=11 note=61 velocity=80 time=0
EXTRACT: note_off channel=6 note=69 velocity=64 time=0
EXTRACT: note_off channel=6 note=64 velocity=64 time=0
EXTRACT: note_on channel=6 note=69 velocity=80 time=0
EXTRACT: note_on channel=6 note=64 velocity=80 time=0
EXTRACT: note_off channel=4 note=35 velocity=64 time=0
EXTRACT: note_off channel=2 note=66 velocity=64 time=0
EXTRACT: note_off channel=2 note=62 velocity=64 time=0
EXTRACT: note_off channel=2 note=57 velocity=64 time=0
EXTRACT: note_off channel=8 note=71 velocity=64 time=0
EXTRACT: note_on channel=8 note=73 velocity=72 time=0
EXTRACT: note_off channel=9 note=82 velocity=64 time=0
EXTRACT: note_off channel=9 note=42 velocity=64 time=0
EXTRACT: note_on channel=9 note=42 velocity=80 time=0
EXTRACT: note_on channel=9 note=57 velocity=80 time=0
EXTRACT: note_on channel=9 note=38 velocity=80 time=0
EXTRACT: note_off channel=6 note=69 velocity=64 time=0.14285699999999998
EXTRACT: note_off channel=6 note=64 velocity=64 time=0
EXTRACT: note_on channel=6 note=69 velocity=80 time=0
EXTRACT: note_on channel=6 note=64 velocity=80 time=0
EXTRACT: note_off channel=11 note=61 velocity=64 time=0.14285699999999998
EXTRACT: note_on channel=11 note=61 velocity=80 time=0
EXTRACT: note_off channel=6 note=69 velocity=64 time=0
EXTRACT: note_off channel=6 note=64 velocity=64 time=0
EXTRACT: note_on channel=6 note=69 velocity=80 time=0
EXTRACT: note_on channel=6 note=64 velocity=80 time=0
EXTRACT: note_on channel=4 note=30 velocity=80 time=0
EXTRACT: note_on channel=2 note=69 velocity=80 time=0
EXTRACT: note_on channel=2 note=64 velocity=80 time=0
EXTRACT: note_on channel=2 note=61 velocity=80 time=0
EXTRACT: note_on channel=2 note=57 velocity=80 time=0
EXTRACT: note_off channel=8 note=73 velocity=64 time=0
EXTRACT: note_on channel=8 note=71 velocity=72 time=0
EXTRACT: note_off channel=9 note=42 velocity=64 time=0
EXTRACT: note_off channel=9 note=57 velocity=64 time=0
EXTRACT: note_off channel=9 note=38 velocity=64 time=0
EXTRACT: note_on channel=9 note=42 velocity=80 time=0
EXTRACT: note_on channel=9 note=35 velocity=80 time=0
EXTRACT: note_off channel=6 note=69 velocity=64 time=0.14285699999999998
EXTRACT: note_off channel=6 note=64 velocity=64 time=0
EXTRACT: note_on channel=6 note=69 velocity=80 time=0
EXTRACT: note_on channel=6 note=64 velocity=80 time=0
EXTRACT: note_off channel=8 note=71 velocity=64 time=0
EXTRACT: note_on channel=8 note=73 velocity=72 time=0
EXTRACT: note_off channel=11 note=61 velocity=64 time=0.14285699999999998
EXTRACT: note_off channel=6 note=69 velocity=64 time=0
EXTRACT: note_off channel=6 note=64 velocity=64 time=0
EXTRACT: note_on channel=6 note=69 velocity=80 time=0
EXTRACT: note_on channel=6 note=64 velocity=80 time=0
EXTRACT: note_off channel=4 note=30 velocity=64 time=0
EXTRACT: note_off channel=2 note=69 velocity=64 time=0
EXTRACT: note_off channel=2 note=64 velocity=64 time=0
EXTRACT: note_off channel=2 note=61 velocity=64 time=0
EXTRACT: note_off channel=2 note=57 velocity=64 time=0
EXTRACT: note_off channel=8 note=73 velocity=64 time=0
EXTRACT: note_on channel=9 note=82 velocity=64 time=0
EXTRACT: note_off channel=9 note=42 velocity=64 time=0
EXTRACT: note_off channel=9 note=35 velocity=64 time=0
EXTRACT: note_on channel=9 note=42 velocity=80 time=0
EXTRACT: note_on channel=9 note=57 velocity=80 time=0
EXTRACT: note_on channel=2 note=69 velocity=80 time=0.14285699999999998
EXTRACT: note_on channel=2 note=64 velocity=80 time=0
EXTRACT: note_on channel=2 note=61 velocity=80 time=0
EXTRACT: note_on channel=2 note=57 velocity=80 time=0
EXTRACT: note_on channel=8 note=71 velocity=72 time=0
EXTRACT: note_off channel=9 note=82 velocity=64 time=0
EXTRACT: note_on channel=9 note=82 velocity=64 time=0
EXTRACT: note_off channel=6 note=69 velocity=64 time=0.14285699999999998
EXTRACT: note_off channel=6 note=64 velocity=64 time=0
EXTRACT: note_on channel=6 note=69 velocity=80 time=0
EXTRACT: note_on channel=6 note=64 velocity=80 time=0
EXTRACT: note_off channel=8 note=71 velocity=64 time=0
EXTRACT: note_on channel=8 note=73 velocity=72 time=0
EXTRACT: note_off channel=9 note=82 velocity=64 time=0
EXTRACT: note_on channel=9 note=82 velocity=64 time=0
EXTRACT: note_off channel=9 note=42 velocity=64 time=0
EXTRACT: note_off channel=9 note=57 velocity=64 time=0
EXTRACT: note_on channel=9 note=42 velocity=80 time=0
EXTRACT: note_off channel=6 note=69 velocity=64 time=0.28571399999999997
EXTRACT: note_off channel=6 note=64 velocity=64 time=0
EXTRACT: note_on channel=6 note=69 velocity=80 time=0
EXTRACT: note_on channel=6 note=64 velocity=80 time=0
EXTRACT: note_on channel=4 note=42 velocity=80 time=0
EXTRACT: note_off channel=2 note=69 velocity=64 time=0
EXTRACT: note_off channel=2 note=64 velocity=64 time=0
EXTRACT: note_off channel=2 note=61 velocity=64 time=0
EXTRACT: note_off channel=2 note=57 velocity=64 time=0
EXTRACT: note_on channel=2 note=69 velocity=80 time=0
EXTRACT: note_on channel=2 note=64 velocity=80 time=0
EXTRACT: note_on channel=2 note=61 velocity=80 time=0
EXTRACT: note_on channel=2 note=57 velocity=80 time=0
EXTRACT: note_off channel=8 note=73 velocity=64 time=0
EXTRACT: note_on channel=8 note=71 velocity=72 time=0
EXTRACT: note_off channel=9 note=82 velocity=64 time=0
EXTRACT: note_off channel=9 note=42 velocity=64 time=0
EXTRACT: note_on channel=9 note=42 velocity=80 time=0
EXTRACT: note_on channel=9 note=57 velocity=80 time=0
EXTRACT: note_on channel=9 note=38 velocity=80 time=0
EXTRACT: note_on channel=11 note=66 velocity=80 time=0.14285699999999998
EXTRACT: note_off channel=6 note=69 velocity=64 time=0
EXTRACT: note_off channel=6 note=64 velocity=64 time=0
EXTRACT: note_on channel=6 note=69 velocity=80 time=0
EXTRACT: note_on channel=6 note=64 velocity=80 time=0
EXTRACT: note_off channel=4 note=42 velocity=64 time=0
EXTRACT: note_on channel=4 note=40 velocity=80 time=0
EXTRACT: note_off channel=8 note=71 velocity=64 time=0
EXTRACT: note_on channel=8 note=73 velocity=72 time=0
EXTRACT: note_off channel=11 note=66 velocity=64 time=0.14285699999999998
EXTRACT: note_on channel=11 note=68 velocity=80 time=0
EXTRACT: note_off channel=6 note=69 velocity=64 time=0
EXTRACT: note_off channel=6 note=64 velocity=64 time=0
EXTRACT: note_on channel=6 note=69 velocity=80 time=0
EXTRACT: note_on channel=6 note=64 velocity=80 time=0
EXTRACT: note_off channel=4 note=40 velocity=64 time=0
EXTRACT: note_on channel=4 note=37 velocity=80 time=0
EXTRACT: note_off channel=9 note=42 velocity=64 time=0
EXTRACT: note_off channel=9 note=57 velocity=64 time=0
EXTRACT: note_off channel=9 note=38 velocity=64 time=0
EXTRACT: note_on channel=9 note=42 velocity=80 time=0
EXTRACT: note_off channel=6 note=69 velocity=64 time=0.14285699999999998
EXTRACT: note_off channel=6 note=64 velocity=64 time=0
EXTRACT: note_on channel=6 note=69 velocity=80 time=0
EXTRACT: note_on channel=6 note=64 velocity=80 time=0
EXTRACT: note_off channel=4 note=37 velocity=64 time=0
EXTRACT: note_on channel=4 note=33 velocity=80 time=0
EXTRACT: note_off channel=8 note=73 velocity=64 time=0
EXTRACT: note_on channel=8 note=71 velocity=72 time=0
EXTRACT: note_off channel=11 note=68 velocity=64 time=0.14285699999999998
EXTRACT: note_on channel=11 note=66 velocity=80 time=0
EXTRACT: note_off channel=6 note=69 velocity=64 time=0
EXTRACT: note_off channel=6 note=64 velocity=64 time=0
EXTRACT: note_on channel=6 note=69 velocity=80 time=0
EXTRACT: note_on channel=6 note=64 velocity=80 time=0
EXTRACT: note_off channel=4 note=33 velocity=64 time=0
EXTRACT: note_on channel=4 note=35 velocity=80 time=0
EXTRACT: note_off channel=2 note=69 velocity=64 time=0
EXTRACT: note_off channel=2 note=64 velocity=64 time=0
EXTRACT: note_off channel=2 note=61 velocity=64 time=0
EXTRACT: note_off channel=2 note=57 velocity=64 time=0
EXTRACT: note_on channel=2 note=66 velocity=80 time=0
EXTRACT: note_on channel=2 note=62 velocity=80 time=0
EXTRACT: note_on channel=2 note=57 velocity=80 time=0
EXTRACT: note_off channel=8 note=71 velocity=64 time=0
EXTRACT: note_on channel=8 note=73 velocity=72 time=0
EXTRACT: note_on channel=9 note=82 velocity=64 time=0
EXTRACT: note_off channel=9 note=42 velocity=64 time=0
EXTRACT: note_on channel=9 note=42 velocity=80 time=0
EXTRACT: note_on channel=9 note=57 velocity=80 time=0
EXTRACT: note_on channel=9 note=35 velocity=80 time=0
EXTRACT: note_off channel=6 note=69 velocity=64 time=0.14285699999999998
EXTRACT: note_off channel=6 note=64 velocity=64 time=0
EXTRACT: note_on channel=6 note=69 velocity=80 time=0
EXTRACT: note_on channel=6 note=64 velocity=80 time=0
EXTRACT: note_off channel=9 note=82 velocity=64 time=0
EXTRACT: note_on channel=9 note=82 velocity=64 time=0
EXTRACT: note_off channel=11 note=66 velocity=64 time=0.14285699999999998
EXTRACT: note_on channel=11 note=64 velocity=80 time=0
EXTRACT: note_off channel=6 note=69 velocity=64 time=0
EXTRACT: note_off channel=6 note=64 velocity=64 time=0
EXTRACT: note_on channel=6 note=69 velocity=80 time=0
EXTRACT: note_on channel=6 note=64 velocity=80 time=0
EXTRACT: note_off channel=4 note=35 velocity=64 time=0
EXTRACT: note_off channel=8 note=73 velocity=64 time=0
EXTRACT: note_on channel=8 note=71 velocity=72 time=0
EXTRACT: note_off channel=9 note=82 velocity=64 time=0
EXTRACT: note_on channel=9 note=82 velocity=64 time=0
EXTRACT: note_off channel=9 note=42 velocity=64 time=0
EXTRACT: note_off channel=9 note=57 velocity=64 time=0
EXTRACT: note_off channel=9 note=35 velocity=64 time=0
EXTRACT: note_on channel=9 note=42 velocity=80 time=0
EXTRACT: note_off channel=6 note=69 velocity=64 time=0.14285699999999998
EXTRACT: note_off channel=6 note=64 velocity=64 time=0
EXTRACT: note_on channel=6 note=69 velocity=80 time=0
EXTRACT: note_on channel=6 note=64 velocity=80 time=0
EXTRACT: note_on channel=4 note=35 velocity=80 time=0
EXTRACT: note_off channel=2 note=66 velocity=64 time=0
EXTRACT: note_off channel=2 note=62 velocity=64 time=0
EXTRACT: note_off channel=2 note=57 velocity=64 time=0
EXTRACT: note_on channel=2 note=66 velocity=80 time=0
EXTRACT: note_on channel=2 note=62 velocity=80 time=0
EXTRACT: note_on channel=2 note=57 velocity=80 time=0
EXTRACT: note_off channel=11 note=64 velocity=64 time=0.14285699999999998
EXTRACT: note_on channel=11 note=61 velocity=80 time=0
EXTRACT: note_off channel=6 note=69 velocity=64 time=0
EXTRACT: note_off channel=6 note=64 velocity=64 time=0
EXTRACT: note_on channel=6 note=69 velocity=80 time=0
EXTRACT: note_on channel=6 note=64 velocity=80 time=0
EXTRACT: note_off channel=4 note=35 velocity=64 time=0
EXTRACT: note_off channel=2 note=66 velocity=64 time=0
EXTRACT: note_off channel=2 note=62 velocity=64 time=0
EXTRACT: note_off channel=2 note=57 velocity=64 time=0
EXTRACT: note_off channel=8 note=71 velocity=64 time=0
EXTRACT: note_on channel=8 note=74 velocity=80 time=0
EXTRACT: note_off channel=9 note=82 velocity=64 time=0
EXTRACT: note_off channel=9 note=42 velocity=64 time=0
EXTRACT: note_on channel=9 note=42 velocity=80 time=0
EXTRACT: note_on channel=9 note=57 velocity=80 time=0
EXTRACT: note_on channel=9 note=38 velocity=80 time=0
EXTRACT: note_off channel=6 note=69 velocity=64 time=0.14285699999999998
EXTRACT: note_off channel=6 note=64 velocity=64 time=0
EXTRACT: note_on channel=6 note=69 velocity=80 time=0
EXTRACT: note_on channel=6 note=64 velocity=80 time=0
EXTRACT: note_off channel=11 note=61 velocity=64 time=0.14285699999999998
EXTRACT: note_on channel=11 note=59 velocity=80 time=0
EXTRACT: note_off channel=6 note=69 velocity=64 time=0
EXTRACT: note_off channel=6 note=64 velocity=64 time=0
EXTRACT: note_on channel=6 note=69 velocity=80 time=0
EXTRACT: note_on channel=6 note=64 velocity=80 time=0
EXTRACT: note_on channel=4 note=30 velocity=80 time=0
EXTRACT: note_on channel=2 note=69 velocity=80 time=0
EXTRACT: note_on channel=2 note=64 velocity=80 time=0
EXTRACT: note_on channel=2 note=61 velocity=80 time=0
EXTRACT: note_on channel=2 note=57 velocity=80 time=0
EXTRACT: note_off channel=8 note=74 velocity=64 time=0
EXTRACT: note_on channel=8 note=73 velocity=80 time=0
EXTRACT: note_off channel=9 note=42 velocity=64 time=0
EXTRACT: note_off channel=9 note=57 velocity=64 time=0
EXTRACT: note_off channel=9 note=38 velocity=64 time=0
EXTRACT: note_on channel=9 note=42 velocity=80 time=0
EXTRACT: note_on channel=9 note=35 velocity=80 time=0
EXTRACT: note_off channel=11 note=59 velocity=64 time=0.14285699999999998
EXTRACT: note_on channel=11 note=61 velocity=80 time=0
EXTRACT: note_off channel=6 note=69 velocity=64 time=0
EXTRACT: note_off channel=6 note=64 velocity=64 time=0
EXTRACT: note_on channel=6 note=69 velocity=80 time=0
EXTRACT: note_on channel=6 note=64 velocity=80 time=0
EXTRACT: note_off channel=11 note=61 velocity=64 time=0.14285699999999998
EXTRACT: note_off channel=6 note=69 velocity=64 time=0
EXTRACT: note_off channel=6 note=64 velocity=64 time=0
EXTRACT: note_on channel=6 note=69 velocity=80 time=0
EXTRACT: note_on channel=6 note=64 velocity=80 time=0
EXTRACT: note_off channel=4 note=30 velocity=64 time=0
EXTRACT: note_off channel=2 note=69 velocity=64 time=0
EXTRACT: note_off channel=2 note=64 velocity=64 time=0
EXTRACT: note_off channel=2 note=61 velocity=64 time=0
EXTRACT: note_off channel=2 note=57 velocity=64 time=0
EXTRACT: note_off channel=8 note=73 velocity=64 time=0
EXTRACT: note_on channel=9 note=82 velocity=64 time=0
EXTRACT: note_off channel=9 note=42 velocity=64 time=0
EXTRACT: note_off channel=9 note=35 velocity=64 time=0
EXTRACT: note_on channel=9 note=42 velocity=80 time=0
EXTRACT: note_on channel=9 note=57 velocity=80 time=0
EXTRACT: note_off channel=9 note=82 velocity=64 time=0.14285699999999998
EXTRACT: note_on channel=9 note=82 velocity=64 time=0
EXTRACT: note_off channel=6 note=69 velocity=64 time=0.14285699999999998
EXTRACT: note_off channel=6 note=64 velocity=64 time=0
EXTRACT: note_on channel=6 note=69 velocity=80 time=0
EXTRACT: note_on channel=6 note=64 velocity=80 time=0
EXTRACT: note_on channel=8 note=71 velocity=80 time=0
EXTRACT: note_off channel=9 note=82 velocity=64 time=0
EXTRACT: note_on channel=9 note=82 velocity=64 time=0
EXTRACT: note_off channel=9 note=42 velocity=64 time=0
EXTRACT: note_off channel=9 note=57 velocity=64 time=0
EXTRACT: note_on channel=9 note=42 velocity=80 time=0
EXTRACT: note_off channel=6 note=69 velocity=64 time=0.28571399999999997
EXTRACT: note_off channel=6 note=64 velocity=64 time=0
EXTRACT: note_on channel=6 note=69 velocity=80 time=0
EXTRACT: note_on channel=6 note=64 velocity=80 time=0
EXTRACT: note_on channel=4 note=45 velocity=80 time=0
EXTRACT: note_on channel=2 note=64 velocity=80 time=0
EXTRACT: note_on channel=2 note=61 velocity=80 time=0
EXTRACT: note_on channel=2 note=57 velocity=80 time=0
EXTRACT: note_off channel=8 note=71 velocity=64 time=0
EXTRACT: note_on channel=8 note=73 velocity=80 time=0
EXTRACT: note_off channel=9 note=82 velocity=64 time=0
EXTRACT: note_off channel=9 note=42 velocity=64 time=0
EXTRACT: note_on channel=9 note=42 velocity=80 time=0
EXTRACT: note_on channel=9 note=57 velocity=80 time=0
EXTRACT: note_on channel=9 note=38 velocity=80 time=0
EXTRACT: note_off channel=6 note=69 velocity=64 time=0.14285699999999998
EXTRACT: note_off channel=6 note=64 velocity=64 time=0
EXTRACT: note_on channel=6 note=69 velocity=80 time=0
EXTRACT: note_on channel=6 note=64 velocity=80 time=0
EXTRACT: note_off channel=4 note=45 velocity=64 time=0
EXTRACT: note_off channel=6 note=69 velocity=64 time=0.14285699999999998
EXTRACT: note_off channel=6 note=64 velocity=64 time=0
EXTRACT: note_on channel=6 note=69 velocity=80 time=0
EXTRACT: note_on channel=6 note=64 velocity=80 time=0
EXTRACT: note_off channel=8 note=73 velocity=64 time=0
EXTRACT: note_on channel=8 note=71 velocity=80 time=0
EXTRACT: note_off channel=9 note=42 velocity=64 time=0
EXTRACT: note_off channel=9 note=57 velocity=64 time=0
EXTRACT: note_off channel=9 note=38 velocity=64 time=0
EXTRACT: note_on channel=9 note=42 velocity=80 time=0
EXTRACT: note_off channel=6 note=69 velocity=64 time=0.14285699999999998
EXTRACT: note_off channel=6 note=64 velocity=64 time=0
EXTRACT: note_on channel=6 note=69 velocity=80 time=0
EXTRACT: note_on channel=6 note=64 velocity=80 time=0
EXTRACT: note_on channel=4 note=30 velocity=80 time=0
EXTRACT: note_on channel=11 note=60 velocity=80 time=0.14285699999999998
EXTRACT: note_off channel=6 note=69 velocity=64 time=0
EXTRACT: note_off channel=6 note=64 velocity=64 time=0
EXTRACT: note_on channel=6 note=67 velocity=80 time=0
EXTRACT: note_on channel=6 note=62 velocity=80 time=0
EXTRACT: note_off channel=4 note=30 velocity=64 time=0
EXTRACT: note_on channel=4 note=29 velocity=80 time=0
EXTRACT: note_off channel=2 note=64 velocity=64 time=0
EXTRACT: note_off channel=2 note=61 velocity=64 time=0
EXTRACT: note_off channel=2 note=57 velocity=64 time=0
EXTRACT: note_on channel=2 note=64 velocity=80 time=0
EXTRACT: note_on channel=2 note=60 velocity=80 time=0
EXTRACT: note_on channel=2 note=57 velocity=80 time=0
EXTRACT: note_on channel=2 note=55 velocity=80 time=0
EXTRACT: note_off channel=8 note=71 velocity=64 time=0
EXTRACT: note_on channel=8 note=69 velocity=80 time=0
EXTRACT: note_on channel=9 note=82 velocity=64 time=0
EXTRACT: note_off channel=9 note=42 velocity=64 time=0
EXTRACT: note_on channel=9 note=42 velocity=80 time=0
EXTRACT: note_on channel=9 note=57 velocity=80 time=0
EXTRACT: note_on channel=9 note=35 velocity=80 time=0
EXTRACT: note_off channel=6 note=67 velocity=64 time=0.14285699999999998
EXTRACT: note_off channel=6 note=62 velocity=64 time=0
EXTRACT: note_on channel=6 note=67 velocity=80 time=0
EXTRACT: note_on channel=6 note=62 velocity=80 time=0
EXTRACT: note_off channel=9 note=82 velocity=64 time=0
EXTRACT: note_on channel=9 note=82 velocity=64 time=0
EXTRACT: note_off channel=6 note=67 velocity=64 time=0.14285699999999998
EXTRACT: note_off channel=6 note=62 velocity=64 time=0
EXTRACT: note_on channel=6 note=67 velocity=80 time=0
EXTRACT: note_on channel=6 note=62 velocity=80 time=0
EXTRACT: note_off channel=9 note=82 velocity=64 time=0
EXTRACT: note_on channel=9 note=82 velocity=64 time=0
EXTRACT: note_off channel=9 note=42 velocity=64 time=0
EXTRACT: note_off channel=9 note=57 velocity=64 time=0
EXTRACT: note_off channel=9 note=35 velocity=64 time=0
EXTRACT: note_on channel=9 note=42 velocity=80 time=0
EXTRACT: note_off channel=6 note=67 velocity=64 time=0.14285699999999998
EXTRACT: note_off channel=6 note=62 velocity=64 time=0
EXTRACT: note_on channel=6 note=67 velocity=80 time=0
EXTRACT: note_on channel=6 note=62 velocity=80 time=0
EXTRACT: note_off channel=4 note=29 velocity=64 time=0
EXTRACT: note_on channel=4 note=29 velocity=80 time=0
EXTRACT: note_off channel=2 note=64 velocity=64 time=0
EXTRACT: note_off channel=2 note=60 velocity=64 time=0
EXTRACT: note_off channel=2 note=57 velocity=64 time=0
EXTRACT: note_off channel=2 note=55 velocity=64 time=0
EXTRACT: note_on channel=2 note=64 velocity=80 time=0
EXTRACT: note_on channel=2 note=60 velocity=80 time=0
EXTRACT: note_on channel=2 note=57 velocity=80 time=0
EXTRACT: note_on channel=2 note=55 velocity=80 time=0
EXTRACT: note_off channel=11 note=60 velocity=64 time=0.14285699999999998
EXTRACT: note_on channel=11 note=60 velocity=80 time=0
EXTRACT: note_off channel=6 note=67 velocity=64 time=0
EXTRACT: note_off channel=6 note=62 velocity=64 time=0
EXTRACT: note_on channel=6 note=67 velocity=80 time=0
EXTRACT: note_on channel=6 note=62 velocity=80 time=0
EXTRACT: note_off channel=4 note=29 velocity=64 time=0
EXTRACT: note_off channel=2 note=64 velocity=64 time=0
EXTRACT: note_off channel=2 note=60 velocity=64 time=0
EXTRACT: note_off channel=2 note=57 velocity=64 time=0
EXTRACT: note_off channel=2 note=55 velocity=64 time=0
EXTRACT: note_off channel=9 note=82 velocity=64 time=0
EXTRACT: note_off channel=9 note=42 velocity=64 time=0
EXTRACT: note_on channel=9 note=42 velocity=80 time=0
EXTRACT: note_on channel=9 note=57 velocity=80 time=0
EXTRACT: note_on channel=9 note=38 velocity=80 time=0
EXTRACT: note_off channel=6 note=67 velocity=64 time=0.14285699999999998
EXTRACT: note_off channel=6 note=62 velocity=64 time=0
EXTRACT: note_on channel=6 note=67 velocity=80 time=0
EXTRACT: note_on channel=6 note=62 velocity=80 time=0
EXTRACT: note_on channel=4 note=29 velocity=80 time=0
EXTRACT: note_off channel=6 note=67 velocity=64 time=0.14285699999999998
EXTRACT: note_off channel=6 note=62 velocity=64 time=0
EXTRACT: note_on channel=6 note=67 velocity=80 time=0
EXTRACT: note_on channel=6 note=62 velocity=80 time=0
EXTRACT: note_off channel=4 note=29 velocity=64 time=0
EXTRACT: note_on channel=4 note=31 velocity=80 time=0
EXTRACT: note_on channel=2 note=66 velocity=80 time=0
EXTRACT: note_on channel=2 note=62 velocity=80 time=0
EXTRACT: note_on channel=2 note=59 velocity=80 time=0
EXTRACT: note_on channel=2 note=57 velocity=80 time=0
EXTRACT: note_off channel=8 note=69 velocity=64 time=0
EXTRACT: note_on channel=8 note=67 velocity=80 time=0
EXTRACT: note_off channel=9 note=42 velocity=64 time=0
EXTRACT: note_off channel=9 note=57 velocity=64 time=0
EXTRACT: note_off channel=9 note=38 velocity=64 time=0
EXTRACT: note_on channel=9 note=42 velocity=80 time=0
EXTRACT: note_on channel=9 note=35 velocity=80 time=0
EXTRACT: note_off channel=6 note=67 velocity=64 time=0.14285699999999998
EXTRACT: note_off channel=6 note=62 velocity=64 time=0
EXTRACT: note_on channel=6 note=67 velocity=80 time=0
EXTRACT: note_on channel=6 note=62 velocity=80 time=0
EXTRACT: note_off channel=11 note=60 velocity=64 time=0.14285699999999998
EXTRACT: note_on channel=11 note=60 velocity=80 time=0
EXTRACT: note_off channel=6 note=67 velocity=64 time=0
EXTRACT: note_off channel=6 note=62 velocity=64 time=0
EXTRACT: note_on channel=6 note=67 velocity=80 time=0
EXTRACT: note_on channel=6 note=62 velocity=80 time=0
EXTRACT: note_off channel=4 note=31 velocity=64 time=0
EXTRACT: note_off channel=2 note=66 velocity=64 time=0
EXTRACT: note_off channel=2 note=62 velocity=64 time=0
EXTRACT: note_off channel=2 note=59 velocity=64 time=0
EXTRACT: note_off channel=2 note=57 velocity=64 time=0
EXTRACT: note_off channel=8 note=67 velocity=64 time=0
EXTRACT: note_on channel=9 note=82 velocity=64 time=0
EXTRACT: note_off channel=9 note=42 velocity=64 time=0
EXTRACT: note_off channel=9 note=35 velocity=64 time=0
EXTRACT: note_on channel=9 note=42 velocity=80 time=0
EXTRACT: note_on channel=9 note=57 velocity=80 time=0
EXTRACT: note_off channel=6 note=67 velocity=64 time=0.14285699999999998
EXTRACT: note_off channel=6 note=62 velocity=64 time=0
EXTRACT: note_on channel=6 note=67 velocity=80 time=0
EXTRACT: note_on channel=6 note=62 velocity=80 time=0
EXTRACT: note_on channel=2 note=66 velocity=80 time=0
EXTRACT: note_on channel=2 note=62 velocity=80 time=0
EXTRACT: note_on channel=2 note=59 velocity=80 time=0
EXTRACT: note_on channel=2 note=57 velocity=80 time=0
EXTRACT: note_off channel=9 note=82 velocity=64 time=0
EXTRACT: note_on channel=9 note=82 velocity=64 time=0
EXTRACT: note_off channel=6 note=67 velocity=64 time=0.14285699999999998
EXTRACT: note_off channel=6 note=62 velocity=64 time=0
EXTRACT: note_on channel=6 note=67 velocity=80 time=0
EXTRACT: note_on channel=6 note=62 velocity=80 time=0
EXTRACT: note_off channel=9 note=82 velocity=64 time=0
EXTRACT: note_on channel=9 note=82 velocity=64 time=0
EXTRACT: note_off channel=9 note=42 velocity=64 time=0
EXTRACT: note_off channel=9 note=57 velocity=64 time=0
EXTRACT: note_on channel=9 note=42 velocity=80 time=0
EXTRACT: note_off channel=6 note=67 velocity=64 time=0.14285699999999998
EXTRACT: note_off channel=6 note=62 velocity=64 time=0
EXTRACT: note_on channel=6 note=67 velocity=80 time=0
EXTRACT: note_on channel=6 note=62 velocity=80 time=0
EXTRACT: note_off channel=11 note=60 velocity=64 time=0.14285699999999998
EXTRACT: note_on channel=11 note=57 velocity=80 time=0
EXTRACT: note_off channel=6 note=67 velocity=64 time=0
EXTRACT: note_off channel=6 note=62 velocity=64 time=0
EXTRACT: note_on channel=6 note=67 velocity=80 time=0
EXTRACT: note_on channel=6 note=62 velocity=80 time=0
EXTRACT: note_off channel=2 note=66 velocity=64 time=0
EXTRACT: note_off channel=2 note=62 velocity=64 time=0
EXTRACT: note_off channel=2 note=59 velocity=64 time=0
EXTRACT: note_off channel=2 note=57 velocity=64 time=0
EXTRACT: note_on channel=2 note=66 velocity=80 time=0
EXTRACT: note_on channel=2 note=62 velocity=80 time=0
EXTRACT: note_on channel=2 note=59 velocity=80 time=0
EXTRACT: note_on channel=2 note=57 velocity=80 time=0
EXTRACT: note_off channel=9 note=82 velocity=64 time=0
EXTRACT: note_off channel=9 note=42 velocity=64 time=0
EXTRACT: note_on channel=9 note=42 velocity=80 time=0
EXTRACT: note_on channel=9 note=57 velocity=80 time=0
EXTRACT: note_on channel=9 note=38 velocity=80 time=0
EXTRACT: note_off channel=6 note=67 velocity=64 time=0.14285699999999998
EXTRACT: note_off channel=6 note=62 velocity=64 time=0
EXTRACT: note_on channel=6 note=67 velocity=80 time=0
EXTRACT: note_on channel=6 note=62 velocity=80 time=0
EXTRACT: note_off channel=6 note=67 velocity=64 time=0.14285699999999998
EXTRACT: note_off channel=6 note=62 velocity=64 time=0
EXTRACT: note_on channel=6 note=67 velocity=80 time=0
EXTRACT: note_on channel=6 note=62 velocity=80 time=0
EXTRACT: note_off channel=9 note=42 velocity=64 time=0
EXTRACT: note_off channel=9 note=57 velocity=64 time=0
EXTRACT: note_off channel=9 note=38 velocity=64 time=0
EXTRACT: note_on channel=9 note=42 velocity=80 time=0
EXTRACT: note_off channel=6 note=67 velocity=64 time=0.14285699999999998
EXTRACT: note_off channel=6 note=62 velocity=64 time=0
EXTRACT: note_on channel=6 note=67 velocity=80 time=0
EXTRACT: note_on channel=6 note=62 velocity=80 time=0
EXTRACT: note_on channel=4 note=32 velocity=80 time=0
EXTRACT: note_off channel=11 note=57 velocity=64 time=0.14285699999999998
EXTRACT: note_on channel=11 note=60 velocity=80 time=0
EXTRACT: note_off channel=6 note=67 velocity=64 time=0
EXTRACT: note_off channel=6 note=62 velocity=64 time=0
EXTRACT: note_on channel=6 note=67 velocity=80 time=0
EXTRACT: note_on channel=6 note=62 velocity=80 time=0
EXTRACT: note_off channel=4 note=32 velocity=64 time=0
EXTRACT: note_on channel=4 note=33 velocity=80 time=0
EXTRACT: note_off channel=2 note=66 velocity=64 time=0
EXTRACT: note_off channel=2 note=62 velocity=64 time=0
EXTRACT: note_off channel=2 note=59 velocity=64 time=0
EXTRACT: note_off channel=2 note=57 velocity=64 time=0
EXTRACT: note_on channel=2 note=68 velocity=80 time=0
EXTRACT: note_on channel=2 note=64 velocity=80 time=0
EXTRACT: note_on channel=2 note=61 velocity=80 time=0
EXTRACT: note_on channel=2 note=59 velocity=80 time=0
EXTRACT: note_on channel=8 note=68 velocity=80 time=0
EXTRACT: note_on channel=9 note=82 velocity=64 time=0
EXTRACT: note_off channel=9 note=42 velocity=64 time=0
EXTRACT: note_on channel=9 note=42 velocity=80 time=0
EXTRACT: note_on channel=9 note=57 velocity=80 time=0
EXTRACT: note_on channel=9 note=35 velocity=80 time=0
EXTRACT: note_off channel=6 note=67 velocity=64 time=0.14285699999999998
EXTRACT: note_off channel=6 note=62 velocity=64 time=0
EXTRACT: note_on channel=6 note=67 velocity=80 time=0
EXTRACT: note_on channel=6 note=62 velocity=80 time=0
EXTRACT: note_off channel=9 note=82 velocity=64 time=0
EXTRACT: note_on channel=9 note=82 velocity=64 time=0
EXTRACT: note_off channel=6 note=67 velocity=64 time=0.14285699999999998
EXTRACT: note_off channel=6 note=62 velocity=64 time=0
EXTRACT: note_on channel=6 note=67 velocity=80 time=0
EXTRACT: note_on channel=6 note=62 velocity=80 time=0
EXTRACT: note_off channel=4 note=33 velocity=64 time=0
EXTRACT: note_off channel=9 note=82 velocity=64 time=0
EXTRACT: note_on channel=9 note=82 velocity=64 time=0
EXTRACT: note_off channel=9 note=42 velocity=64 time=0
EXTRACT: note_off channel=9 note=57 velocity=64 time=0
EXTRACT: note_off channel=9 note=35 velocity=64 time=0
EXTRACT: note_on channel=9 note=42 velocity=80 time=0
EXTRACT: note_off channel=6 note=67 velocity=64 time=0.14285699999999998
EXTRACT: note_off channel=6 note=62 velocity=64 time=0
EXTRACT: note_on channel=6 note=67 velocity=80 time=0
EXTRACT: note_on channel=6 note=62 velocity=80 time=0
EXTRACT: note_on channel=4 note=33 velocity=80 time=0
EXTRACT: note_off channel=2 note=68 velocity=64 time=0
EXTRACT: note_off channel=2 note=64 velocity=64 time=0
EXTRACT: note_off channel=2 note=61 velocity=64 time=0
EXTRACT: note_off channel=2 note=59 velocity=64 time=0
EXTRACT: note_on channel=2 note=68 velocity=80 time=0
EXTRACT: note_on channel=2 note=64 velocity=80 time=0
EXTRACT: note_on channel=2 note=61 velocity=80 time=0
EXTRACT: note_on channel=2 note=59 velocity=80 time=0
EXTRACT: note_off channel=11 note=60 velocity=64 time=0.14285699999999998
EXTRACT: note_on channel=11 note=62 velocity=80 time=0
EXTRACT: note_off channel=6 note=67 velocity=64 time=0
EXTRACT: note_off channel=6 note=62 velocity=64 time=0
EXTRACT: note_on channel=6 note=67 velocity=80 time=0
EXTRACT: note_on channel=6 note=62 velocity=80 time=0
EXTRACT: note_off channel=4 note=33 velocity=64 time=0
EXTRACT: note_off channel=2 note=68 velocity=64 time=0
EXTRACT: note_off channel=2 note=64 velocity=64 time=0
EXTRACT: note_off channel=2 note=61 velocity=64 time=0
EXTRACT: note_off channel=2 note=59 velocity=64 time=0
EXTRACT: note_off channel=9 note=82 velocity=64 time=0
EXTRACT: note_off channel=9 note=42 velocity=64 time=0
EXTRACT: note_on channel=9 note=42 velocity=80 time=0
EXTRACT: note_on channel=9 note=57 velocity=80 time=0
EXTRACT: note_on channel=9 note=38 velocity=80 time=0
EXTRACT: note_off channel=6 note=67 velocity=64 time=0.14285699999999998
EXTRACT: note_off channel=6 note=62 velocity=64 time=0
EXTRACT: note_on channel=6 note=67 velocity=80 time=0
EXTRACT: note_on channel=6 note=62 velocity=80 time=0
EXTRACT: note_off channel=6 note=67 velocity=64 time=0.14285699999999998
EXTRACT: note_off channel=6 note=62 velocity=64 time=0
EXTRACT: note_on channel=6 note=67 velocity=80 time=0
EXTRACT: note_on channel=6 note=62 velocity=80 time=0
EXTRACT: note_on channel=4 note=38 velocity=80 time=0
EXTRACT: note_on channel=2 note=64 velocity=80 time=0
EXTRACT: note_on channel=2 note=60 velocity=80 time=0
EXTRACT: note_on channel=2 note=59 velocity=80 time=0
EXTRACT: note_on channel=2 note=55 velocity=80 time=0
EXTRACT: note_off channel=8 note=68 velocity=64 time=0
EXTRACT: note_on channel=8 note=69 velocity=80 time=0
EXTRACT: note_off channel=9 note=42 velocity=64 time=0
EXTRACT: note_off channel=9 note=57 velocity=64 time=0
EXTRACT: note_off channel=9 note=38 velocity=64 time=0
EXTRACT: note_on channel=9 note=42 velocity=80 time=0
EXTRACT: note_on channel=9 note=35 velocity=80 time=0
EXTRACT: note_off channel=6 note=67 velocity=64 time=0.14285699999999998
EXTRACT: note_off channel=6 note=62 velocity=64 time=0
EXTRACT: note_on channel=6 note=67 velocity=80 time=0
EXTRACT: note_on channel=6 note=62 velocity=80 time=0
EXTRACT: note_off channel=11 note=62 velocity=64 time=0.14285699999999998
EXTRACT: note_on channel=11 note=57 velocity=80 time=0
EXTRACT: note_off channel=6 note=67 velocity=64 time=0
EXTRACT: note_off channel=6 note=62 velocity=64 time=0
EXTRACT: note_on channel=6 note=67 velocity=80 time=0
EXTRACT: note_on channel=6 note=62 velocity=80 time=0
EXTRACT: note_off channel=4 note=38 velocity=64 time=0
EXTRACT: note_off channel=2 note=64 velocity=64 time=0
EXTRACT: note_off channel=2 note=60 velocity=64 time=0
EXTRACT: note_off channel=2 note=59 velocity=64 time=0
EXTRACT: note_off channel=2 note=55 velocity=64 time=0
EXTRACT: note_off channel=8 note=69 velocity=64 time=0
EXTRACT: note_on channel=9 note=82 velocity=64 time=0
EXTRACT: note_off channel=9 note=42 velocity=64 time=0
EXTRACT: note_off channel=9 note=35 velocity=64 time=0
EXTRACT: note_on channel=9 note=42 velocity=80 time=0
EXTRACT: note_on channel=9 note=57 velocity=80 time=0
EXTRACT: note_off channel=11 note=57 velocity=64 time=0.14285699999999998
EXTRACT: note_on channel=11 note=55 velocity=80 time=0
EXTRACT: note_off channel=6 note=67 velocity=64 time=0
EXTRACT: note_off channel=6 note=62 velocity=64 time=0
EXTRACT: note_on channel=6 note=67 velocity=80 time=0
EXTRACT: note_on channel=6 note=62 velocity=80 time=0
EXTRACT: note_off channel=9 note=82 velocity=64 time=0
EXTRACT: note_on channel=9 note=82 velocity=64 time=0
EXTRACT: note_off channel=9 note=42 velocity=64 time=0
EXTRACT: note_off channel=9 note=57 velocity=64 time=0
EXTRACT: note_on channel=9 note=38 velocity=80 time=0
EXTRACT: note_off channel=6 note=67 velocity=64 time=0.14285699999999998
EXTRACT: note_off channel=6 note=62 velocity=64 time=0
EXTRACT: note_on channel=6 note=67 velocity=80 time=0
EXTRACT: note_on channel=6 note=62 velocity=80 time=0
EXTRACT: note_off channel=9 note=82 velocity=64 time=0
EXTRACT: note_on channel=9 note=82 velocity=64 time=0
EXTRACT: note_off channel=9 note=38 velocity=64 time=0
EXTRACT: note_on channel=9 note=46 velocity=80 time=0
EXTRACT: note_on channel=9 note=35 velocity=80 time=0
EXTRACT: note_off channel=6 note=67 velocity=64 time=0.14285699999999998
EXTRACT: note_off channel=6 note=62 velocity=64 time=0
EXTRACT: note_on channel=6 note=67 velocity=80 time=0
EXTRACT: note_on channel=6 note=62 velocity=80 time=0
EXTRACT: note_off channel=11 note=55 velocity=64 time=0.14285699999999998
EXTRACT: note_on channel=11 note=55 velocity=80 time=0
EXTRACT: note_off channel=6 note=67 velocity=64 time=0
EXTRACT: note_off channel=6 note=62 velocity=64 time=0
EXTRACT: note_on channel=6 note=67 velocity=80 time=0
EXTRACT: note_on channel=6 note=62 velocity=80 time=0
EXTRACT: note_on channel=2 note=64 velocity=80 time=0
EXTRACT: note_on channel=2 note=60 velocity=80 time=0
EXTRACT: note_on channel=2 note=59 velocity=80 time=0
EXTRACT: note_on channel=2 note=55 velocity=80 time=0
EXTRACT: note_off channel=9 note=82 velocity=64 time=0
EXTRACT: note_off channel=9 note=46 velocity=64 time=0
EXTRACT: note_off channel=9 note=35 velocity=64 time=0
EXTRACT: note_on channel=9 note=38 velocity=80 time=0
EXTRACT: note_off channel=6 note=67 velocity=64 time=0.14285699999999998
EXTRACT: note_off channel=6 note=62 velocity=64 time=0
EXTRACT: note_on channel=6 note=67 velocity=80 time=0
EXTRACT: note_on channel=6 note=62 velocity=80 time=0
EXTRACT: note_off channel=9 note=38 velocity=64 time=0
EXTRACT: note_on channel=9 note=38 velocity=80 time=0
EXTRACT: note_off channel=6 note=67 velocity=64 time=0.14285699999999998
EXTRACT: note_off channel=6 note=62 velocity=64 time=0
EXTRACT: note_on channel=6 note=67 velocity=80 time=0
EXTRACT: note_on channel=6 note=62 velocity=80 time=0
EXTRACT: note_off channel=9 note=38 velocity=64 time=0
EXTRACT: note_on channel=9 note=46 velocity=80 time=0
EXTRACT: note_on channel=9 note=35 velocity=80 time=0
EXTRACT: note_off channel=6 note=67 velocity=64 time=0.14285699999999998
EXTRACT: note_off channel=6 note=62 velocity=64 time=0
EXTRACT: note_on channel=6 note=67 velocity=80 time=0
EXTRACT: note_on channel=6 note=62 velocity=80 time=0
EXTRACT: note_off channel=11 note=55 velocity=64 time=0.14285699999999998
EXTRACT: note_on channel=11 note=57 velocity=80 time=0
EXTRACT: note_off channel=6 note=67 velocity=64 time=0
EXTRACT: note_off channel=6 note=62 velocity=64 time=0
EXTRACT: note_off channel=2 note=64 velocity=64 time=0
EXTRACT: note_off channel=2 note=60 velocity=64 time=0
EXTRACT: note_off channel=2 note=59 velocity=64 time=0
EXTRACT: note_off channel=2 note=55 velocity=64 time=0
EXTRACT: note_on channel=2 note=64 velocity=80 time=0
EXTRACT: note_on channel=2 note=60 velocity=80 time=0
EXTRACT: note_on channel=2 note=57 velocity=80 time=0
EXTRACT: note_on channel=2 note=55 velocity=80 time=0
EXTRACT: note_on channel=2 note=45 velocity=72 time=0
EXTRACT: note_on channel=2 note=33 velocity=72 time=0
EXTRACT: note_off channel=9 note=46 velocity=64 time=0
EXTRACT: note_off channel=9 note=35 velocity=64 time=0
EXTRACT: note_on channel=9 note=44 velocity=80 time=0
EXTRACT: note_off channel=11 note=57 velocity=64 time=0.28571399999999997
EXTRACT: note_on channel=11 note=52 velocity=80 time=0.28571399999999997
EXTRACT: note_off channel=9 note=44 velocity=64 time=0
EXTRACT: note_off channel=11 note=52 velocity=64 time=0.14285699999999998
EXTRACT: note_on channel=11 note=54 velocity=80 time=0
EXTRACT: note_off channel=11 note=54 velocity=64 time=0.14285699999999998
EXTRACT: note_on channel=11 note=57 velocity=80 time=0
EXTRACT: note_off channel=11 note=57 velocity=64 time=0.14285699999999998
EXTRACT: note_on channel=11 note=59 velocity=80 time=0
EXTRACT: note_off channel=11 note=59 velocity=64 time=0.14285699999999998
EXTRACT: note_off channel=2 note=64 velocity=64 time=0
EXTRACT: note_off channel=2 note=60 velocity=64 time=0
EXTRACT: note_off channel=2 note=57 velocity=64 time=0
EXTRACT: note_off channel=2 note=55 velocity=64 time=0
EXTRACT: note_on channel=2 note=60 velocity=80 time=0.28571399999999997
EXTRACT: note_off channel=2 note=60 velocity=64 time=0.28571399999999997
EXTRACT: note_on channel=2 note=62 velocity=80 time=0.14285699999999998
EXTRACT: note_on channel=11 note=57 velocity=80 time=0.14285699999999998
EXTRACT: note_off channel=11 note=57 velocity=64 time=0.14285699999999998
EXTRACT: note_on channel=11 note=60 velocity=80 time=0
EXTRACT: note_off channel=11 note=60 velocity=64 time=0.14285699999999998
EXTRACT: note_off channel=2 note=62 velocity=64 time=0
EXTRACT: note_on channel=2 note=64 velocity=80 time=0
EXTRACT: note_on channel=2 note=61 velocity=80 time=0
EXTRACT: note_on channel=2 note=57 velocity=80 time=0
EXTRACT: note_on channel=2 note=54 velocity=80 time=0
EXTRACT: note_off channel=2 note=45 velocity=64 time=0
EXTRACT: note_off channel=2 note=33 velocity=64 time=0
EXTRACT: note_on channel=2 note=42 velocity=72 time=0
EXTRACT: note_on channel=2 note=30 velocity=72 time=0
EXTRACT: note_on channel=11 note=59 velocity=80 time=0.14285699999999998
EXTRACT: note_off channel=11 note=59 velocity=64 time=0.28571399999999997
EXTRACT: note_on channel=11 note=57 velocity=80 time=0
EXTRACT: note_off channel=11 note=57 velocity=64 time=0.14285699999999998
EXTRACT: note_on channel=11 note=62 velocity=80 time=0.14285699999999998
EXTRACT: note_off channel=11 note=62 velocity=64 time=0.28571399999999997
EXTRACT: note_on channel=11 note=60 velocity=80 time=0
EXTRACT: note_off channel=2 note=64 velocity=64 time=0.07142849999999999
EXTRACT: note_off channel=2 note=61 velocity=64 time=0
EXTRACT: note_off channel=2 note=57 velocity=64 time=0
EXTRACT: note_off channel=2 note=54 velocity=64 time=0
EXTRACT: note_on channel=2 note=59 velocity=64 time=0
EXTRACT: note_off channel=11 note=60 velocity=64 time=0.07142849999999999
EXTRACT: note_off channel=2 note=59 velocity=64 time=0
EXTRACT: note_on channel=2 note=64 velocity=80 time=0
EXTRACT: note_on channel=2 note=61 velocity=80 time=0
EXTRACT: note_off channel=2 note=64 velocity=64 time=0.28571399999999997
EXTRACT: note_off channel=2 note=61 velocity=64 time=0
EXTRACT: note_on channel=2 note=64 velocity=80 time=0
EXTRACT: note_on channel=2 note=59 velocity=80 time=0
EXTRACT: note_on channel=11 note=55 velocity=80 time=0.28571399999999997
EXTRACT: note_off channel=2 note=64 velocity=64 time=0
EXTRACT: note_off channel=2 note=59 velocity=64 time=0
EXTRACT: note_off channel=11 note=55 velocity=64 time=0.14285699999999998
EXTRACT: note_on channel=11 note=57 velocity=80 time=0
EXTRACT: note_on channel=2 note=64 velocity=80 time=0
EXTRACT: note_on channel=2 note=57 velocity=80 time=0
EXTRACT: note_off channel=11 note=57 velocity=64 time=0.28571399999999997
EXTRACT: note_on channel=11 note=60 velocity=80 time=0
EXTRACT: note_off channel=11 note=60 velocity=64 time=0.14285699999999998
EXTRACT: note_off channel=2 note=64 velocity=64 time=0
EXTRACT: note_off channel=2 note=57 velocity=64 time=0
EXTRACT: note_on channel=2 note=64 velocity=80 time=0
EXTRACT: note_on channel=2 note=60 velocity=80 time=0
EXTRACT: note_on channel=2 note=57 velocity=80 time=0
EXTRACT: note_on channel=2 note=53 velocity=80 time=0
EXTRACT: note_off channel=2 note=42 velocity=64 time=0
EXTRACT: note_off channel=2 note=30 velocity=64 time=0
EXTRACT: note_on channel=2 note=41 velocity=72 time=0
EXTRACT: note_on channel=2 note=29 velocity=72 time=0
EXTRACT: note_on channel=11 note=59 velocity=80 time=0.14285699999999998
EXTRACT: note_off channel=11 note=59 velocity=64 time=0.28571399999999997
EXTRACT: note_on channel=11 note=57 velocity=80 time=0
EXTRACT: note_off channel=11 note=57 velocity=64 time=0.14285699999999998
EXTRACT: note_on channel=11 note=55 velocity=80 time=1.1428559999999999
EXTRACT: note_off channel=11 note=55 velocity=64 time=0.14285699999999998
EXTRACT: note_on channel=11 note=57 velocity=80 time=0
EXTRACT: note_off channel=11 note=57 velocity=64 time=0.14285699999999998
EXTRACT: note_on channel=11 note=55 velocity=80 time=0
EXTRACT: note_off channel=11 note=55 velocity=64 time=0.14285699999999998
EXTRACT: note_on channel=11 note=60 velocity=80 time=0
EXTRACT: note_off channel=11 note=60 velocity=64 time=0.14285699999999998
EXTRACT: note_off channel=2 note=64 velocity=64 time=0
EXTRACT: note_off channel=2 note=60 velocity=64 time=0
EXTRACT: note_off channel=2 note=57 velocity=64 time=0
EXTRACT: note_off channel=2 note=53 velocity=64 time=0
EXTRACT: note_off channel=2 note=41 velocity=64 time=0
EXTRACT: note_off channel=2 note=29 velocity=64 time=0
EXTRACT: note_on channel=11 note=57 velocity=80 time=0.14285699999999998
EXTRACT: note_off channel=11 note=57 velocity=64 time=0.4285709999999999
EXTRACT: note_on channel=11 note=66 velocity=80 time=1.42857
EXTRACT: note_off channel=11 note=66 velocity=64 time=0.14285699999999998
EXTRACT: note_on channel=11 note=66 velocity=80 time=0
EXTRACT: note_off channel=11 note=66 velocity=64 time=0.14285699999999998
EXTRACT: note_on channel=11 note=66 velocity=80 time=0
EXTRACT: note_on channel=0 note=66 velocity=72 time=0
EXTRACT: note_on channel=0 note=62 velocity=72 time=0
EXTRACT: note_on channel=0 note=57 velocity=72 time=0
EXTRACT: note_on channel=0 note=54 velocity=72 time=0
EXTRACT: note_on channel=0 note=47 velocity=72 time=0
EXTRACT: note_on channel=2 note=66 velocity=80 time=0
EXTRACT: note_on channel=2 note=62 velocity=80 time=0
EXTRACT: note_on channel=2 note=57 velocity=80 time=0
EXTRACT: note_on channel=9 note=44 velocity=80 time=0
EXTRACT: note_off channel=11 note=66 velocity=64 time=0.28571399999999997
EXTRACT: note_on channel=11 note=64 velocity=80 time=0
EXTRACT: note_off channel=0 note=66 velocity=64 time=0.14285699999999998
EXTRACT: note_off channel=0 note=62 velocity=64 time=0
EXTRACT: note_off channel=0 note=57 velocity=64 time=0
EXTRACT: note_off channel=0 note=54 velocity=64 time=0
EXTRACT: note_off channel=0 note=47 velocity=64 time=0
EXTRACT: note_on channel=0 note=66 velocity=72 time=0
EXTRACT: note_on channel=0 note=62 velocity=72 time=0
EXTRACT: note_on channel=0 note=57 velocity=72 time=0
EXTRACT: note_on channel=0 note=54 velocity=72 time=0
EXTRACT: note_on channel=0 note=47 velocity=72 time=0
EXTRACT: note_off channel=11 note=64 velocity=64 time=0.14285699999999998
EXTRACT: note_on channel=11 note=64 velocity=80 time=0
EXTRACT: note_off channel=0 note=66 velocity=64 time=0
EXTRACT: note_off channel=0 note=62 velocity=64 time=0
EXTRACT: note_off channel=0 note=57 velocity=64 time=0
EXTRACT: note_off channel=0 note=54 velocity=64 time=0
EXTRACT: note_off channel=0 note=47 velocity=64 time=0
EXTRACT: note_on channel=0 note=66 velocity=72 time=0
EXTRACT: note_on channel=0 note=62 velocity=72 time=0
EXTRACT: note_on channel=0 note=57 velocity=72 time=0
EXTRACT: note_off channel=9 note=44 velocity=64 time=0
EXTRACT: note_on channel=9 note=44 velocity=80 time=0
EXTRACT: note_off channel=11 note=64 velocity=64 time=0.14285699999999998
EXTRACT: note_on channel=11 note=61 velocity=80 time=0
EXTRACT: note_off channel=0 note=66 velocity=64 time=0
EXTRACT: note_off channel=0 note=62 velocity=64 time=0
EXTRACT: note_off channel=0 note=57 velocity=64 time=0
EXTRACT: note_on channel=0 note=66 velocity=72 time=0
EXTRACT: note_on channel=0 note=62 velocity=72 time=0
EXTRACT: note_on channel=0 note=57 velocity=72 time=0
EXTRACT: note_off channel=11 note=61 velocity=64 time=0.14285699999999998
EXTRACT: note_on channel=11 note=64 velocity=80 time=0
EXTRACT: note_off channel=0 note=66 velocity=64 time=0
EXTRACT: note_off channel=0 note=62 velocity=64 time=0
EXTRACT: note_off channel=0 note=57 velocity=64 time=0
EXTRACT: note_on channel=0 note=66 velocity=72 time=0
EXTRACT: note_on channel=0 note=61 velocity=72 time=0
EXTRACT: note_on channel=0 note=57 velocity=72 time=0
EXTRACT: note_on channel=0 note=52 velocity=72 time=0
EXTRACT: note_on channel=0 note=49 velocity=72 time=0
EXTRACT: note_off channel=2 note=66 velocity=64 time=0
EXTRACT: note_off channel=2 note=62 velocity=64 time=0
EXTRACT: note_off channel=2 note=57 velocity=64 time=0
EXTRACT: note_on channel=2 note=69 velocity=80 time=0
EXTRACT: note_on channel=2 note=64 velocity=80 time=0
EXTRACT: note_on channel=2 note=61 velocity=80 time=0
EXTRACT: note_on channel=2 note=57 velocity=80 time=0
EXTRACT: note_off channel=11 note=64 velocity=64 time=0.28571399999999997
EXTRACT: note_off channel=0 note=66 velocity=64 time=0
EXTRACT: note_off channel=0 note=61 velocity=64 time=0
EXTRACT: note_off channel=0 note=57 velocity=64 time=0
EXTRACT: note_off channel=0 note=52 velocity=64 time=0
EXTRACT: note_off channel=0 note=49 velocity=64 time=0
EXTRACT: note_off channel=2 note=69 velocity=64 time=0
EXTRACT: note_off channel=2 note=64 velocity=64 time=0
EXTRACT: note_off channel=2 note=61 velocity=64 time=0
EXTRACT: note_off channel=2 note=57 velocity=64 time=0
EXTRACT: note_off channel=9 note=44 velocity=64 time=0
EXTRACT: note_on channel=9 note=44 velocity=80 time=0
EXTRACT: note_on channel=0 note=66 velocity=72 time=0.14285699999999998
EXTRACT: note_on channel=0 note=61 velocity=72 time=0
EXTRACT: note_on channel=0 note=57 velocity=72 time=0
EXTRACT: note_off channel=0 note=66 velocity=64 time=0.14285699999999998
EXTRACT: note_off channel=0 note=61 velocity=64 time=0
EXTRACT: note_off channel=0 note=57 velocity=64 time=0
EXTRACT: note_on channel=0 note=61 velocity=72 time=0
EXTRACT: note_on channel=0 note=57 velocity=72 time=0
EXTRACT: note_on channel=0 note=52 velocity=72 time=0
EXTRACT: note_on channel=0 note=49 velocity=72 time=0
EXTRACT: note_off channel=0 note=61 velocity=64 time=0.28571399999999997
EXTRACT: note_off channel=0 note=57 velocity=64 time=0
EXTRACT: note_off channel=0 note=52 velocity=64 time=0
EXTRACT: note_off channel=0 note=49 velocity=64 time=0
EXTRACT: note_on channel=0 note=66 velocity=72 time=0
EXTRACT: note_on channel=0 note=61 velocity=72 time=0
EXTRACT: note_on channel=0 note=57 velocity=72 time=0
EXTRACT: note_on channel=0 note=52 velocity=72 time=0
EXTRACT: note_on channel=0 note=49 velocity=72 time=0
EXTRACT: note_off channel=9 note=44 velocity=64 time=0
EXTRACT: note_on channel=9 note=44 velocity=80 time=0
EXTRACT: note_on channel=11 note=54 velocity=80 time=0.28571399999999997
EXTRACT: note_off channel=0 note=66 velocity=64 time=0
EXTRACT: note_off channel=0 note=61 velocity=64 time=0
EXTRACT: note_off channel=0 note=57 velocity=64 time=0
EXTRACT: note_off channel=0 note=52 velocity=64 time=0
EXTRACT: note_off channel=0 note=49 velocity=64 time=0
EXTRACT: note_on channel=0 note=66 velocity=72 time=0
EXTRACT: note_on channel=0 note=61 velocity=72 time=0
EXTRACT: note_on channel=0 note=57 velocity=72 time=0
EXTRACT: note_off channel=11 note=54 velocity=64 time=0.14285699999999998
EXTRACT: note_on channel=11 note=66 velocity=80 time=0
EXTRACT: note_off channel=0 note=66 velocity=64 time=0
EXTRACT: note_off channel=0 note=61 velocity=64 time=0
EXTRACT: note_off channel=0 note=57 velocity=64 time=0
EXTRACT: note_on channel=0 note=66 velocity=72 time=0
EXTRACT: note_on channel=0 note=61 velocity=72 time=0
EXTRACT: note_on channel=0 note=57 velocity=72 time=0
EXTRACT: note_off channel=11 note=66 velocity=64 time=0.14285699999999998
EXTRACT: note_on channel=11 note=68 velocity=80 time=0
EXTRACT: note_off channel=0 note=66 velocity=64 time=0
EXTRACT: note_off channel=0 note=61 velocity=64 time=0
EXTRACT: note_off channel=0 note=57 velocity=64 time=0
EXTRACT: note_on channel=0 note=66 velocity=72 time=0
EXTRACT: note_on channel=0 note=62 velocity=72 time=0
EXTRACT: note_on channel=0 note=57 velocity=72 time=0
EXTRACT: note_on channel=0 note=54 velocity=72 time=0
EXTRACT: note_on channel=0 note=47 velocity=72 time=0
EXTRACT: note_on channel=2 note=66 velocity=80 time=0
EXTRACT: note_on channel=2 note=62 velocity=80 time=0
EXTRACT: note_on channel=2 note=57 velocity=80 time=0
EXTRACT: note_off channel=9 note=44 velocity=64 time=0
EXTRACT: note_on channel=9 note=44 velocity=80 time=0
EXTRACT: note_off channel=11 note=68 velocity=64 time=0.28571399999999997
EXTRACT: note_on channel=11 note=66 velocity=80 time=0
EXTRACT: note_off channel=11 note=66 velocity=64 time=0.14285699999999998
EXTRACT: note_on channel=11 note=66 velocity=80 time=0
EXTRACT: note_off channel=0 note=66 velocity=64 time=0
EXTRACT: note_off channel=0 note=62 velocity=64 time=0
EXTRACT: note_off channel=0 note=57 velocity=64 time=0
EXTRACT: note_off channel=0 note=54 velocity=64 time=0
EXTRACT: note_off channel=0 note=47 velocity=64 time=0
EXTRACT: note_on channel=0 note=66 velocity=72 time=0
EXTRACT: note_on channel=0 note=62 velocity=72 time=0
EXTRACT: note_on channel=0 note=57 velocity=72 time=0
EXTRACT: note_on channel=0 note=54 velocity=72 time=0
EXTRACT: note_on channel=0 note=47 velocity=72 time=0
EXTRACT: note_off channel=11 note=66 velocity=64 time=0.14285699999999998
EXTRACT: note_off channel=0 note=66 velocity=64 time=0
EXTRACT: note_off channel=0 note=62 velocity=64 time=0
EXTRACT: note_off channel=0 note=57 velocity=64 time=0
EXTRACT: note_off channel=0 note=54 velocity=64 time=0
EXTRACT: note_off channel=0 note=47 velocity=64 time=0
EXTRACT: note_on channel=0 note=66 velocity=72 time=0
EXTRACT: note_on channel=0 note=62 velocity=72 time=0
EXTRACT: note_on channel=0 note=57 velocity=72 time=0
EXTRACT: note_off channel=9 note=44 velocity=64 time=0
EXTRACT: note_on channel=9 note=44 velocity=80 time=0
EXTRACT: note_on channel=11 note=64 velocity=80 time=0.14285699999999998
EXTRACT: note_off channel=0 note=66 velocity=64 time=0
EXTRACT: note_off channel=0 note=62 velocity=64 time=0
EXTRACT: note_off channel=0 note=57 velocity=64 time=0
EXTRACT: note_on channel=0 note=66 velocity=72 time=0
EXTRACT: note_on channel=0 note=62 velocity=72 time=0
EXTRACT: note_on channel=0 note=57 velocity=72 time=0
EXTRACT: note_off channel=11 note=64 velocity=64 time=0.14285699999999998
EXTRACT: note_on channel=11 note=66 velocity=80 time=0
EXTRACT: note_off channel=0 note=66 velocity=64 time=0
EXTRACT: note_off channel=0 note=62 velocity=64 time=0
EXTRACT: note_off channel=0 note=57 velocity=64 time=0
EXTRACT: note_on channel=0 note=66 velocity=72 time=0
EXTRACT: note_on channel=0 note=61 velocity=72 time=0
EXTRACT: note_on channel=0 note=57 velocity=72 time=0
EXTRACT: note_on channel=0 note=52 velocity=72 time=0
EXTRACT: note_on channel=0 note=49 velocity=72 time=0
EXTRACT: note_off channel=2 note=66 velocity=64 time=0
EXTRACT: note_off channel=2 note=62 velocity=64 time=0
EXTRACT: note_off channel=2 note=57 velocity=64 time=0
EXTRACT: note_on channel=2 note=69 velocity=80 time=0
EXTRACT: note_on channel=2 note=64 velocity=80 time=0
EXTRACT: note_on channel=2 note=61 velocity=80 time=0
EXTRACT: note_on channel=2 note=57 velocity=80 time=0
EXTRACT: note_off channel=11 note=66 velocity=64 time=0.14285699999999998
EXTRACT: note_on channel=11 note=64 velocity=80 time=0
EXTRACT: note_off channel=11 note=64 velocity=64 time=0.14285699999999998
EXTRACT: note_on channel=11 note=66 velocity=80 time=0
EXTRACT: note_off channel=0 note=66 velocity=64 time=0
EXTRACT: note_off channel=0 note=61 velocity=64 time=0
EXTRACT: note_off channel=0 note=57 velocity=64 time=0
EXTRACT: note_off channel=0 note=52 velocity=64 time=0
EXTRACT: note_off channel=0 note=49 velocity=64 time=0
EXTRACT: note_off channel=2 note=69 velocity=64 time=0
EXTRACT: note_off channel=2 note=64 velocity=64 time=0
EXTRACT: note_off channel=2 note=61 velocity=64 time=0
EXTRACT: note_off channel=2 note=57 velocity=64 time=0
EXTRACT: note_off channel=9 note=44 velocity=64 time=0
EXTRACT: note_on channel=9 note=44 velocity=80 time=0
EXTRACT: note_on channel=0 note=66 velocity=72 time=0.14285699999999998
EXTRACT: note_on channel=0 note=61 velocity=72 time=0
EXTRACT: note_on channel=0 note=57 velocity=72 time=0
EXTRACT: note_off channel=11 note=66 velocity=64 time=0.14285699999999998
EXTRACT: note_off channel=0 note=66 velocity=64 time=0
EXTRACT: note_off channel=0 note=61 velocity=64 time=0
EXTRACT: note_off channel=0 note=57 velocity=64 time=0
EXTRACT: note_on channel=0 note=61 velocity=72 time=0
EXTRACT: note_on channel=0 note=57 velocity=72 time=0
EXTRACT: note_on channel=0 note=52 velocity=72 time=0
EXTRACT: note_on channel=0 note=49 velocity=72 time=0
EXTRACT: note_off channel=0 note=61 velocity=64 time=0.28571399999999997
EXTRACT: note_off channel=0 note=57 velocity=64 time=0
EXTRACT: note_off channel=0 note=52 velocity=64 time=0
EXTRACT: note_off channel=0 note=49 velocity=64 time=0
EXTRACT: note_on channel=0 note=66 velocity=72 time=0
EXTRACT: note_on channel=0 note=61 velocity=72 time=0
EXTRACT: note_on channel=0 note=57 velocity=72 time=0
EXTRACT: note_on channel=0 note=52 velocity=72 time=0
EXTRACT: note_on channel=0 note=49 velocity=72 time=0
EXTRACT: note_off channel=9 note=44 velocity=64 time=0
EXTRACT: note_on channel=9 note=44 velocity=80 time=0
EXTRACT: note_off channel=0 note=66 velocity=64 time=0.28571399999999997
EXTRACT: note_off channel=0 note=61 velocity=64 time=0
EXTRACT: note_off channel=0 note=57 velocity=64 time=0
EXTRACT: note_off channel=0 note=52 velocity=64 time=0
EXTRACT: note_off channel=0 note=49 velocity=64 time=0
EXTRACT: note_on channel=0 note=66 velocity=72 time=0
EXTRACT: note_on channel=0 note=61 velocity=72 time=0
EXTRACT: note_on channel=0 note=57 velocity=72 time=0
EXTRACT: note_off channel=0 note=66 velocity=64 time=0.14285699999999998
EXTRACT: note_off channel=0 note=61 velocity=64 time=0
EXTRACT: note_off channel=0 note=57 velocity=64 time=0
EXTRACT: note_on channel=0 note=66 velocity=72 time=0
EXTRACT: note_on channel=0 note=61 velocity=72 time=0
EXTRACT: note_on channel=0 note=57 velocity=72 time=0
EXTRACT: note_on channel=11 note=60 velocity=80 time=0.14285699999999998
EXTRACT: note_off channel=0 note=66 velocity=64 time=0
EXTRACT: note_off channel=0 note=61 velocity=64 time=0
EXTRACT: note_off channel=0 note=57 velocity=64 time=0
EXTRACT: note_on channel=0 note=60 velocity=72 time=0
EXTRACT: note_on channel=0 note=57 velocity=72 time=0
EXTRACT: note_on channel=0 note=52 velocity=72 time=0
EXTRACT: note_on channel=0 note=41 velocity=72 time=0
EXTRACT: note_on channel=2 note=60 velocity=80 time=0
EXTRACT: note_on channel=2 note=57 velocity=80 time=0
EXTRACT: note_on channel=2 note=55 velocity=80 time=0
EXTRACT: note_on channel=2 note=52 velocity=72 time=0
EXTRACT: note_off channel=9 note=44 velocity=64 time=0
EXTRACT: note_on channel=9 note=44 velocity=80 time=0
EXTRACT: note_off channel=11 note=60 velocity=64 time=0.14285699999999998
EXTRACT: note_on channel=11 note=60 velocity=80 time=0
EXTRACT: note_off channel=11 note=60 velocity=64 time=0.28571399999999997
EXTRACT: note_on channel=11 note=60 velocity=80 time=0
EXTRACT: note_off channel=0 note=60 velocity=64 time=0
EXTRACT: note_off channel=0 note=57 velocity=64 time=0
EXTRACT: note_off channel=0 note=52 velocity=64 time=0
EXTRACT: note_off channel=0 note=41 velocity=64 time=0
EXTRACT: note_on channel=0 note=60 velocity=72 time=0
EXTRACT: note_on channel=0 note=57 velocity=72 time=0
EXTRACT: note_on channel=0 note=52 velocity=72 time=0
EXTRACT: note_on channel=0 note=41 velocity=72 time=0
EXTRACT: note_off channel=11 note=60 velocity=64 time=0.14285699999999998
EXTRACT: note_off channel=0 note=60 velocity=64 time=0
EXTRACT: note_off channel=0 note=57 velocity=64 time=0
EXTRACT: note_off channel=0 note=52 velocity=64 time=0
EXTRACT: note_off channel=0 note=41 velocity=64 time=0
EXTRACT: note_on channel=0 note=60 velocity=72 time=0
EXTRACT: note_on channel=0 note=57 velocity=72 time=0
EXTRACT: note_on channel=0 note=52 velocity=72 time=0
EXTRACT: note_off channel=9 note=44 velocity=64 time=0
EXTRACT: note_on channel=9 note=44 velocity=80 time=0
EXTRACT: note_on channel=11 note=60 velocity=80 time=0.14285699999999998
EXTRACT: note_off channel=0 note=60 velocity=64 time=0
EXTRACT: note_off channel=0 note=57 velocity=64 time=0
EXTRACT: note_off channel=0 note=52 velocity=64 time=0
EXTRACT: note_on channel=0 note=60 velocity=72 time=0
EXTRACT: note_on channel=0 note=57 velocity=72 time=0
EXTRACT: note_on channel=0 note=52 velocity=72 time=0
EXTRACT: note_off channel=0 note=60 velocity=64 time=0.14285699999999998
EXTRACT: note_off channel=0 note=57 velocity=64 time=0
EXTRACT: note_off channel=0 note=52 velocity=64 time=0
EXTRACT: note_on channel=0 note=62 velocity=72 time=0
EXTRACT: note_on channel=0 note=59 velocity=72 time=0
EXTRACT: note_on channel=0 note=54 velocity=72 time=0
EXTRACT: note_on channel=0 note=43 velocity=72 time=0
EXTRACT: note_off channel=2 note=60 velocity=64 time=0
EXTRACT: note_off channel=2 note=57 velocity=64 time=0
EXTRACT: note_off channel=2 note=55 velocity=64 time=0
EXTRACT: note_on channel=2 note=62 velocity=80 time=0
EXTRACT: note_on channel=2 note=59 velocity=80 time=0
EXTRACT: note_on channel=2 note=57 velocity=80 time=0
EXTRACT: note_on channel=2 note=54 velocity=80 time=0
EXTRACT: note_off channel=2 note=52 velocity=64 time=0
EXTRACT: note_off channel=11 note=60 velocity=64 time=0.14285699999999998
EXTRACT: note_on channel=11 note=60 velocity=80 time=0
EXTRACT: note_off channel=11 note=60 velocity=64 time=0.14285699999999998
EXTRACT: note_on channel=11 note=62 velocity=80 time=0
EXTRACT: note_off channel=0 note=62 velocity=64 time=0
EXTRACT: note_off channel=0 note=59 velocity=64 time=0
EXTRACT: note_off channel=0 note=54 velocity=64 time=0
EXTRACT: note_off channel=0 note=43 velocity=64 time=0
EXTRACT: note_off channel=2 note=62 velocity=64 time=0
EXTRACT: note_off channel=2 note=59 velocity=64 time=0
EXTRACT: note_off channel=2 note=57 velocity=64 time=0
EXTRACT: note_off channel=2 note=54 velocity=64 time=0
EXTRACT: note_off channel=9 note=44 velocity=64 time=0
EXTRACT: note_on channel=9 note=44 velocity=80 time=0
EXTRACT: note_off channel=11 note=62 velocity=64 time=0.14285699999999998
EXTRACT: note_on channel=11 note=62 velocity=80 time=0
EXTRACT: note_on channel=0 note=62 velocity=72 time=0
EXTRACT: note_on channel=0 note=59 velocity=72 time=0
EXTRACT: note_on channel=0 note=54 velocity=72 time=0
EXTRACT: note_off channel=0 note=62 velocity=64 time=0.14285699999999998
EXTRACT: note_off channel=0 note=59 velocity=64 time=0
EXTRACT: note_off channel=0 note=54 velocity=64 time=0
EXTRACT: note_on channel=0 note=62 velocity=72 time=0
EXTRACT: note_on channel=0 note=59 velocity=72 time=0
EXTRACT: note_on channel=0 note=54 velocity=72 time=0
EXTRACT: note_on channel=0 note=43 velocity=72 time=0
EXTRACT: note_off channel=11 note=62 velocity=64 time=0.14285699999999998
EXTRACT: note_on channel=11 note=62 velocity=80 time=0
EXTRACT: note_off channel=11 note=62 velocity=64 time=0.14285699999999998
EXTRACT: note_off channel=0 note=62 velocity=64 time=0
EXTRACT: note_off channel=0 note=59 velocity=64 time=0
EXTRACT: note_off channel=0 note=54 velocity=64 time=0
EXTRACT: note_off channel=0 note=43 velocity=64 time=0
EXTRACT: note_on channel=0 note=62 velocity=72 time=0
EXTRACT: note_on channel=0 note=59 velocity=72 time=0
EXTRACT: note_on channel=0 note=54 velocity=72 time=0
EXTRACT: note_on channel=0 note=43 velocity=72 time=0
EXTRACT: note_off channel=9 note=44 velocity=64 time=0
EXTRACT: note_on channel=9 note=44 velocity=80 time=0
EXTRACT: note_on channel=11 note=60 velocity=80 time=0.28571399999999997
EXTRACT: note_off channel=0 note=62 velocity=64 time=0
EXTRACT: note_off channel=0 note=59 velocity=64 time=0
EXTRACT: note_off channel=0 note=54 velocity=64 time=0
EXTRACT: note_off channel=0 note=43 velocity=64 time=0
EXTRACT: note_on channel=0 note=62 velocity=72 time=0
EXTRACT: note_on channel=0 note=59 velocity=72 time=0
EXTRACT: note_on channel=0 note=54 velocity=72 time=0
EXTRACT: note_off channel=11 note=60 velocity=64 time=0.14285699999999998
EXTRACT: note_on channel=11 note=62 velocity=80 time=0
EXTRACT: note_off channel=0 note=62 velocity=64 time=0
EXTRACT: note_off channel=0 note=59 velocity=64 time=0
EXTRACT: note_off channel=0 note=54 velocity=64 time=0
EXTRACT: note_on channel=0 note=62 velocity=72 time=0
EXTRACT: note_on channel=0 note=59 velocity=72 time=0
EXTRACT: note_on channel=0 note=54 velocity=72 time=0
EXTRACT: note_off channel=11 note=62 velocity=64 time=0.14285699999999998
EXTRACT: note_on channel=11 note=64 velocity=80 time=0
EXTRACT: note_off channel=0 note=62 velocity=64 time=0
EXTRACT: note_off channel=0 note=59 velocity=64 time=0
EXTRACT: note_off channel=0 note=54 velocity=64 time=0
EXTRACT: note_on channel=0 note=64 velocity=72 time=0
EXTRACT: note_on channel=0 note=61 velocity=72 time=0
EXTRACT: note_on channel=0 note=56 velocity=72 time=0
EXTRACT: note_on channel=0 note=45 velocity=72 time=0
EXTRACT: note_on channel=2 note=68 velocity=80 time=0
EXTRACT: note_on channel=2 note=64 velocity=80 time=0
EXTRACT: note_on channel=2 note=61 velocity=80 time=0
EXTRACT: note_on channel=2 note=57 velocity=80 time=0
EXTRACT: note_off channel=9 note=44 velocity=64 time=0
EXTRACT: note_on channel=9 note=44 velocity=80 time=0
EXTRACT: note_off channel=11 note=64 velocity=64 time=0.28571399999999997
EXTRACT: note_on channel=11 note=64 velocity=80 time=0
EXTRACT: note_off channel=0 note=64 velocity=64 time=0.14285699999999998
EXTRACT: note_off channel=0 note=61 velocity=64 time=0
EXTRACT: note_off channel=0 note=56 velocity=64 time=0
EXTRACT: note_off channel=0 note=45 velocity=64 time=0
EXTRACT: note_on channel=0 note=64 velocity=72 time=0
EXTRACT: note_on channel=0 note=61 velocity=72 time=0
EXTRACT: note_on channel=0 note=56 velocity=72 time=0
EXTRACT: note_on channel=0 note=45 velocity=72 time=0
EXTRACT: note_off channel=11 note=64 velocity=64 time=0.14285699999999998
EXTRACT: note_off channel=0 note=64 velocity=64 time=0
EXTRACT: note_off channel=0 note=61 velocity=64 time=0
EXTRACT: note_off channel=0 note=56 velocity=64 time=0
EXTRACT: note_off channel=0 note=45 velocity=64 time=0
EXTRACT: note_on channel=0 note=64 velocity=72 time=0
EXTRACT: note_on channel=0 note=61 velocity=72 time=0
EXTRACT: note_on channel=0 note=56 velocity=72 time=0
EXTRACT: note_off channel=9 note=44 velocity=64 time=0
EXTRACT: note_on channel=9 note=44 velocity=80 time=0
EXTRACT: note_on channel=11 note=64 velocity=80 time=0.14285699999999998
EXTRACT: note_off channel=0 note=64 velocity=64 time=0
EXTRACT: note_off channel=0 note=61 velocity=64 time=0
EXTRACT: note_off channel=0 note=56 velocity=64 time=0
EXTRACT: note_on channel=0 note=64 velocity=72 time=0
EXTRACT: note_on channel=0 note=61 velocity=72 time=0
EXTRACT: note_on channel=0 note=56 velocity=72 time=0
EXTRACT: note_off channel=11 note=64 velocity=64 time=0.14285699999999998
EXTRACT: note_on channel=11 note=66 velocity=80 time=0
EXTRACT: note_off channel=0 note=64 velocity=64 time=0
EXTRACT: note_off channel=0 note=61 velocity=64 time=0
EXTRACT: note_off channel=0 note=56 velocity=64 time=0
EXTRACT: note_on channel=0 note=69 velocity=72 time=0
EXTRACT: note_on channel=0 note=64 velocity=72 time=0
EXTRACT: note_on channel=0 note=60 velocity=72 time=0
EXTRACT: note_on channel=0 note=55 velocity=72 time=0
EXTRACT: note_on channel=0 note=50 velocity=72 time=0
EXTRACT: note_off channel=2 note=68 velocity=64 time=0
EXTRACT: note_off channel=2 note=64 velocity=64 time=0
EXTRACT: note_off channel=2 note=61 velocity=64 time=0
EXTRACT: note_off channel=2 note=57 velocity=64 time=0
EXTRACT: note_on channel=2 note=64 velocity=80 time=0
EXTRACT: note_on channel=2 note=60 velocity=80 time=0
EXTRACT: note_on channel=2 note=57 velocity=80 time=0
EXTRACT: note_on channel=2 note=55 velocity=80 time=0
EXTRACT: note_off channel=11 note=66 velocity=64 time=0.28571399999999997
EXTRACT: note_off channel=0 note=69 velocity=64 time=0
EXTRACT: note_off channel=0 note=64 velocity=64 time=0
EXTRACT: note_off channel=0 note=60 velocity=64 time=0
EXTRACT: note_off channel=0 note=55 velocity=64 time=0
EXTRACT: note_off channel=0 note=50 velocity=64 time=0
EXTRACT: note_off channel=2 note=64 velocity=64 time=0
EXTRACT: note_off channel=2 note=60 velocity=64 time=0
EXTRACT: note_off channel=2 note=57 velocity=64 time=0
EXTRACT: note_off channel=2 note=55 velocity=64 time=0
EXTRACT: note_off channel=9 note=44 velocity=64 time=0
EXTRACT: note_on channel=9 note=44 velocity=80 time=0
EXTRACT: note_on channel=0 note=69 velocity=72 time=0.14285699999999998
EXTRACT: note_on channel=0 note=64 velocity=72 time=0
EXTRACT: note_on channel=0 note=60 velocity=72 time=0
EXTRACT: note_off channel=0 note=69 velocity=64 time=0.14285699999999998
EXTRACT: note_off channel=0 note=64 velocity=64 time=0
EXTRACT: note_off channel=0 note=60 velocity=64 time=0
EXTRACT: note_on channel=0 note=64 velocity=72 time=0
EXTRACT: note_on channel=0 note=60 velocity=72 time=0
EXTRACT: note_on channel=0 note=55 velocity=72 time=0
EXTRACT: note_on channel=0 note=50 velocity=72 time=0
EXTRACT: note_on channel=11 note=60 velocity=80 time=0.28571399999999997
EXTRACT: note_off channel=0 note=64 velocity=64 time=0
EXTRACT: note_off channel=0 note=60 velocity=64 time=0
EXTRACT: note_off channel=0 note=55 velocity=64 time=0
EXTRACT: note_off channel=0 note=50 velocity=64 time=0
EXTRACT: note_on channel=0 note=69 velocity=72 time=0
EXTRACT: note_on channel=0 note=64 velocity=72 time=0
EXTRACT: note_on channel=0 note=60 velocity=72 time=0
EXTRACT: note_on channel=0 note=55 velocity=72 time=0
EXTRACT: note_on channel=0 note=50 velocity=72 time=0
EXTRACT: note_on channel=4 note=42 velocity=80 time=0
EXTRACT: note_off channel=9 note=44 velocity=64 time=0
EXTRACT: note_on channel=9 note=44 velocity=80 time=0
EXTRACT: note_off channel=11 note=60 velocity=64 time=0.28571399999999997
EXTRACT: note_on channel=11 note=59 velocity=80 time=0
EXTRACT: note_off channel=0 note=69 velocity=64 time=0
EXTRACT: note_off channel=0 note=64 velocity=64 time=0
EXTRACT: note_off channel=0 note=60 velocity=64 time=0
EXTRACT: note_off channel=0 note=55 velocity=64 time=0
EXTRACT: note_off channel=0 note=50 velocity=64 time=0
EXTRACT: note_on channel=0 note=66 velocity=72 time=0
EXTRACT: note_on channel=0 note=61 velocity=72 time=0
EXTRACT: note_on channel=0 note=57 velocity=72 time=0
EXTRACT: note_off channel=11 note=59 velocity=64 time=0.14285699999999998
EXTRACT: note_on channel=11 note=57 velocity=80 time=0
EXTRACT: note_off channel=0 note=66 velocity=64 time=0
EXTRACT: note_off channel=0 note=61 velocity=64 time=0
EXTRACT: note_off channel=0 note=57 velocity=64 time=0
EXTRACT: note_on channel=0 note=66 velocity=72 time=0
EXTRACT: note_on channel=0 note=61 velocity=72 time=0
EXTRACT: note_on channel=0 note=57 velocity=72 time=0
EXTRACT: note_off channel=11 note=57 velocity=64 time=0.14285699999999998
EXTRACT: note_off channel=0 note=66 velocity=64 time=0
EXTRACT: note_off channel=0 note=61 velocity=64 time=0
EXTRACT: note_off channel=0 note=57 velocity=64 time=0
EXTRACT: note_on channel=0 note=66 velocity=72 time=0
EXTRACT: note_on channel=0 note=62 velocity=72 time=0
EXTRACT: note_on channel=0 note=57 velocity=72 time=0
EXTRACT: note_on channel=0 note=54 velocity=72 time=0
EXTRACT: note_on channel=0 note=47 velocity=72 time=0
EXTRACT: note_off channel=4 note=42 velocity=64 time=0
EXTRACT: note_on channel=4 note=35 velocity=80 time=0
EXTRACT: note_on channel=2 note=66 velocity=80 time=0
EXTRACT: note_on channel=2 note=62 velocity=80 time=0
EXTRACT: note_on channel=2 note=57 velocity=80 time=0
EXTRACT: note_off channel=9 note=44 velocity=64 time=0
EXTRACT: note_on channel=9 note=49 velocity=72 time=0
EXTRACT: note_on channel=9 note=35 velocity=72 time=0
EXTRACT: note_off channel=0 note=66 velocity=64 time=0.4285709999999999
EXTRACT: note_off channel=0 note=62 velocity=64 time=0
EXTRACT: note_off channel=0 note=57 velocity=64 time=0
EXTRACT: note_off channel=0 note=54 velocity=64 time=0
EXTRACT: note_off channel=0 note=47 velocity=64 time=0
EXTRACT: note_on channel=0 note=66 velocity=72 time=0
EXTRACT: note_on channel=0 note=62 velocity=72 time=0
EXTRACT: note_on channel=0 note=57 velocity=72 time=0
EXTRACT: note_on channel=0 note=54 velocity=72 time=0
EXTRACT: note_on channel=0 note=47 velocity=72 time=0
EXTRACT: note_off channel=0 note=66 velocity=64 time=0.14285699999999998
EXTRACT: note_off channel=0 note=62 velocity=64 time=0
EXTRACT: note_off channel=0 note=57 velocity=64 time=0
EXTRACT: note_off channel=0 note=54 velocity=64 time=0
EXTRACT: note_off channel=0 note=47 velocity=64 time=0
EXTRACT: note_on channel=0 note=66 velocity=72 time=0
EXTRACT: note_on channel=0 note=62 velocity=72 time=0
EXTRACT: note_on channel=0 note=57 velocity=72 time=0
EXTRACT: note_off channel=9 note=49 velocity=64 time=0
EXTRACT: note_off channel=9 note=35 velocity=64 time=0
EXTRACT: note_on channel=9 note=44 velocity=80 time=0
EXTRACT: note_off channel=0 note=66 velocity=64 time=0.14285699999999998
EXTRACT: note_off channel=0 note=62 velocity=64 time=0
EXTRACT: note_off channel=0 note=57 velocity=64 time=0
EXTRACT: note_on channel=0 note=66 velocity=72 time=0
EXTRACT: note_on channel=0 note=62 velocity=72 time=0
EXTRACT: note_on channel=0 note=57 velocity=72 time=0
EXTRACT: note_off channel=0 note=66 velocity=64 time=0.14285699999999998
EXTRACT: note_off channel=0 note=62 velocity=64 time=0
EXTRACT: note_off channel=0 note=57 velocity=64 time=0
EXTRACT: note_on channel=0 note=66 velocity=72 time=0
EXTRACT: note_on channel=0 note=61 velocity=72 time=0
EXTRACT: note_on channel=0 note=57 velocity=72 time=0
EXTRACT: note_on channel=0 note=52 velocity=72 time=0
EXTRACT: note_on channel=0 note=49 velocity=72 time=0
EXTRACT: note_off channel=4 note=35 velocity=64 time=0
EXTRACT: note_on channel=4 note=30 velocity=80 time=0
EXTRACT: note_off channel=2 note=66 velocity=64 time=0
EXTRACT: note_off channel=2 note=62 velocity=64 time=0
EXTRACT: note_off channel=2 note=57 velocity=64 time=0
EXTRACT: note_on channel=2 note=69 velocity=80 time=0
EXTRACT: note_on channel=2 note=64 velocity=80 time=0
EXTRACT: note_on channel=2 note=61 velocity=80 time=0
EXTRACT: note_on channel=2 note=57 velocity=80 time=0
EXTRACT: note_off channel=0 note=66 velocity=64 time=0.28571399999999997
EXTRACT: note_off channel=0 note=61 velocity=64 time=0
EXTRACT: note_off channel=0 note=57 velocity=64 time=0
EXTRACT: note_off channel=0 note=52 velocity=64 time=0
EXTRACT: note_off channel=0 note=49 velocity=64 time=0
EXTRACT: note_off channel=4 note=30 velocity=64 time=0
EXTRACT: note_off channel=2 note=69 velocity=64 time=0
EXTRACT: note_off channel=2 note=64 velocity=64 time=0
EXTRACT: note_off channel=2 note=61 velocity=64 time=0
EXTRACT: note_off channel=2 note=57 velocity=64 time=0
EXTRACT: note_off channel=9 note=44 velocity=64 time=0
EXTRACT: note_on channel=9 note=44 velocity=80 time=0
EXTRACT: note_on channel=0 note=66 velocity=72 time=0.14285699999999998
EXTRACT: note_on channel=0 note=61 velocity=72 time=0
EXTRACT: note_on channel=0 note=57 velocity=72 time=0
EXTRACT: note_on channel=11 note=54 velocity=80 time=0.047618999999999995
EXTRACT: note_off channel=0 note=66 velocity=64 time=0.09523799999999999
EXTRACT: note_off channel=0 note=61 velocity=64 time=0
EXTRACT: note_off channel=0 note=57 velocity=64 time=0
EXTRACT: note_on channel=0 note=61 velocity=72 time=0
EXTRACT: note_on channel=0 note=57 velocity=72 time=0
EXTRACT: note_on channel=0 note=52 velocity=72 time=0
EXTRACT: note_on channel=0 note=49 velocity=72 time=0
EXTRACT: note_off channel=11 note=54 velocity=64 time=0.09523799999999999
EXTRACT: note_on channel=11 note=57 velocity=80 time=0
EXTRACT: note_off channel=11 note=57 velocity=64 time=0.19047599999999998
EXTRACT: note_on channel=11 note=59 velocity=80 time=0
EXTRACT: note_off channel=0 note=61 velocity=64 time=0
EXTRACT: note_off channel=0 note=57 velocity=64 time=0
EXTRACT: note_off channel=0 note=52 velocity=64 time=0
EXTRACT: note_off channel=0 note=49 velocity=64 time=0
EXTRACT: note_on channel=0 note=66 velocity=72 time=0
EXTRACT: note_on channel=0 note=61 velocity=72 time=0
EXTRACT: note_on channel=0 note=57 velocity=72 time=0
EXTRACT: note_on channel=0 note=52 velocity=72 time=0
EXTRACT: note_on channel=0 note=49 velocity=72 time=0
EXTRACT: note_off channel=9 note=44 velocity=64 time=0
EXTRACT: note_on channel=9 note=44 velocity=80 time=0
EXTRACT: note_off channel=11 note=59 velocity=64 time=0.19047599999999998
EXTRACT: note_on channel=11 note=59 velocity=80 time=0
EXTRACT: note_off channel=0 note=66 velocity=64 time=0.09523799999999999
EXTRACT: note_off channel=0 note=61 velocity=64 time=0
EXTRACT: note_off channel=0 note=57 velocity=64 time=0
EXTRACT: note_off channel=0 note=52 velocity=64 time=0
EXTRACT: note_off channel=0 note=49 velocity=64 time=0
EXTRACT: note_on channel=0 note=66 velocity=72 time=0
EXTRACT: note_on channel=0 note=61 velocity=72 time=0
EXTRACT: note_on channel=0 note=57 velocity=72 time=0
EXTRACT: note_off channel=11 note=59 velocity=64 time=0.09523799999999999
EXTRACT: note_on channel=11 note=61 velocity=80 time=0
EXTRACT: note_off channel=0 note=66 velocity=64 time=0.047618999999999995
EXTRACT: note_off channel=0 note=61 velocity=64 time=0
EXTRACT: note_off channel=0 note=57 velocity=64 time=0
EXTRACT: note_on channel=0 note=66 velocity=72 time=0
EXTRACT: note_on channel=0 note=61 velocity=72 time=0
EXTRACT: note_on channel=0 note=57 velocity=72 time=0
EXTRACT: note_off channel=11 note=61 velocity=64 time=0.14285699999999998
EXTRACT: note_on channel=11 note=57 velocity=80 time=0
EXTRACT: note_off channel=0 note=66 velocity=64 time=0
EXTRACT: note_off channel=0 note=61 velocity=64 time=0
EXTRACT: note_off channel=0 note=57 velocity=64 time=0
EXTRACT: note_on channel=0 note=66 velocity=72 time=0
EXTRACT: note_on channel=0 note=62 velocity=72 time=0
EXTRACT: note_on channel=0 note=57 velocity=72 time=0
EXTRACT: note_on channel=0 note=54 velocity=72 time=0
EXTRACT: note_on channel=0 note=47 velocity=72 time=0
EXTRACT: note_on channel=4 note=35 velocity=80 time=0
EXTRACT: note_on channel=2 note=66 velocity=80 time=0
EXTRACT: note_on channel=2 note=62 velocity=80 time=0
EXTRACT: note_on channel=2 note=57 velocity=80 time=0
EXTRACT: note_off channel=9 note=44 velocity=64 time=0
EXTRACT: note_on channel=9 note=44 velocity=80 time=0
EXTRACT: note_off channel=11 note=57 velocity=64 time=0.28571399999999997
EXTRACT: note_on channel=11 note=57 velocity=80 time=0
EXTRACT: note_off channel=0 note=66 velocity=64 time=0.14285699999999998
EXTRACT: note_off channel=0 note=62 velocity=64 time=0
EXTRACT: note_off channel=0 note=57 velocity=64 time=0
EXTRACT: note_off channel=0 note=54 velocity=64 time=0
EXTRACT: note_off channel=0 note=47 velocity=64 time=0
EXTRACT: note_on channel=0 note=66 velocity=72 time=0
EXTRACT: note_on channel=0 note=62 velocity=72 time=0
EXTRACT: note_on channel=0 note=57 velocity=72 time=0
EXTRACT: note_on channel=0 note=54 velocity=72 time=0
EXTRACT: note_on channel=0 note=47 velocity=72 time=0
EXTRACT: note_off channel=11 note=57 velocity=64 time=0.14285699999999998
EXTRACT: note_off channel=0 note=66 velocity=64 time=0
EXTRACT: note_off channel=0 note=62 velocity=64 time=0
EXTRACT: note_off channel=0 note=57 velocity=64 time=0
EXTRACT: note_off channel=0 note=54 velocity=64 time=0
EXTRACT: note_off channel=0 note=47 velocity=64 time=0
EXTRACT: note_on channel=0 note=66 velocity=72 time=0
EXTRACT: note_on channel=0 note=62 velocity=72 time=0
EXTRACT: note_on channel=0 note=57 velocity=72 time=0
EXTRACT: note_off channel=9 note=44 velocity=64 time=0
EXTRACT: note_on channel=9 note=44 velocity=80 time=0
EXTRACT: note_off channel=0 note=66 velocity=64 time=0.14285699999999998
EXTRACT: note_off channel=0 note=62 velocity=64 time=0
EXTRACT: note_off channel=0 note=57 velocity=64 time=0
EXTRACT: note_on channel=0 note=66 velocity=72 time=0
EXTRACT: note_on channel=0 note=62 velocity=72 time=0
EXTRACT: note_on channel=0 note=57 velocity=72 time=0
EXTRACT: note_off channel=0 note=66 velocity=64 time=0.14285699999999998
EXTRACT: note_off channel=0 note=62 velocity=64 time=0
EXTRACT: note_off channel=0 note=57 velocity=64 time=0
EXTRACT: note_on channel=0 note=66 velocity=72 time=0
EXTRACT: note_on channel=0 note=61 velocity=72 time=0
EXTRACT: note_on channel=0 note=57 velocity=72 time=0
EXTRACT: note_on channel=0 note=52 velocity=72 time=0
EXTRACT: note_on channel=0 note=49 velocity=72 time=0
EXTRACT: note_off channel=4 note=35 velocity=64 time=0
EXTRACT: note_on channel=4 note=30 velocity=80 time=0
EXTRACT: note_off channel=2 note=66 velocity=64 time=0
EXTRACT: note_off channel=2 note=62 velocity=64 time=0
EXTRACT: note_off channel=2 note=57 velocity=64 time=0
EXTRACT: note_on channel=2 note=69 velocity=80 time=0
EXTRACT: note_on channel=2 note=64 velocity=80 time=0
EXTRACT: note_on channel=2 note=61 velocity=80 time=0
EXTRACT: note_on channel=2 note=57 velocity=80 time=0
EXTRACT: note_off channel=0 note=66 velocity=64 time=0.28571399999999997
EXTRACT: note_off channel=0 note=61 velocity=64 time=0
EXTRACT: note_off channel=0 note=57 velocity=64 time=0
EXTRACT: note_off channel=0 note=52 velocity=64 time=0
EXTRACT: note_off channel=0 note=49 velocity=64 time=0
EXTRACT: note_off channel=4 note=30 velocity=64 time=0
EXTRACT: note_off channel=2 note=69 velocity=64 time=0
EXTRACT: note_off channel=2 note=64 velocity=64 time=0
EXTRACT: note_off channel=2 note=61 velocity=64 time=0
EXTRACT: note_off channel=2 note=57 velocity=64 time=0
EXTRACT: note_off channel=9 note=44 velocity=64 time=0
EXTRACT: note_on channel=9 note=44 velocity=80 time=0
EXTRACT: note_on channel=0 note=66 velocity=72 time=0.14285699999999998
EXTRACT: note_on channel=0 note=61 velocity=72 time=0
EXTRACT: note_on channel=0 note=57 velocity=72 time=0
EXTRACT: note_off channel=0 note=66 velocity=64 time=0.14285699999999998
EXTRACT: note_off channel=0 note=61 velocity=64 time=0
EXTRACT: note_off channel=0 note=57 velocity=64 time=0
EXTRACT: note_on channel=0 note=61 velocity=72 time=0
EXTRACT: note_on channel=0 note=57 velocity=72 time=0
EXTRACT: note_on channel=0 note=52 velocity=72 time=0
EXTRACT: note_on channel=0 note=49 velocity=72 time=0
EXTRACT: note_off channel=0 note=61 velocity=64 time=0.28571399999999997
EXTRACT: note_off channel=0 note=57 velocity=64 time=0
EXTRACT: note_off channel=0 note=52 velocity=64 time=0
EXTRACT: note_off channel=0 note=49 velocity=64 time=0
EXTRACT: note_on channel=0 note=66 velocity=72 time=0
EXTRACT: note_on channel=0 note=61 velocity=72 time=0
EXTRACT: note_on channel=0 note=57 velocity=72 time=0
EXTRACT: note_on channel=0 note=52 velocity=72 time=0
EXTRACT: note_on channel=0 note=49 velocity=72 time=0
EXTRACT: note_off channel=9 note=44 velocity=64 time=0
EXTRACT: note_on channel=9 note=44 velocity=80 time=0
EXTRACT: note_off channel=0 note=66 velocity=64 time=0.28571399999999997
EXTRACT: note_off channel=0 note=61 velocity=64 time=0
EXTRACT: note_off channel=0 note=57 velocity=64 time=0
EXTRACT: note_off channel=0 note=52 velocity=64 time=0
EXTRACT: note_off channel=0 note=49 velocity=64 time=0
EXTRACT: note_on channel=0 note=66 velocity=72 time=0
EXTRACT: note_on channel=0 note=61 velocity=72 time=0
EXTRACT: note_on channel=0 note=57 velocity=72 time=0
EXTRACT: note_off channel=0 note=66 velocity=64 time=0.14285699999999998
EXTRACT: note_off channel=0 note=61 velocity=64 time=0
EXTRACT: note_off channel=0 note=57 velocity=64 time=0
EXTRACT: note_on channel=0 note=66 velocity=72 time=0
EXTRACT: note_on channel=0 note=61 velocity=72 time=0
EXTRACT: note_on channel=0 note=57 velocity=72 time=0
EXTRACT: note_on channel=4 note=30 velocity=80 time=0
EXTRACT: note_off channel=0 note=66 velocity=64 time=0.14285699999999998
EXTRACT: note_off channel=0 note=61 velocity=64 time=0
EXTRACT: note_off channel=0 note=57 velocity=64 time=0
EXTRACT: note_on channel=0 note=60 velocity=72 time=0
EXTRACT: note_on channel=0 note=57 velocity=72 time=0
EXTRACT: note_on channel=0 note=52 velocity=72 time=0
EXTRACT: note_on channel=0 note=41 velocity=72 time=0
EXTRACT: note_off channel=4 note=30 velocity=64 time=0
EXTRACT: note_on channel=4 note=29 velocity=80 time=0
EXTRACT: note_on channel=2 note=72 velocity=80 time=0
EXTRACT: note_on channel=2 note=69 velocity=80 time=0
EXTRACT: note_on channel=2 note=65 velocity=80 time=0
EXTRACT: note_on channel=2 note=64 velocity=80 time=0
EXTRACT: note_off channel=9 note=44 velocity=64 time=0
EXTRACT: note_on channel=9 note=44 velocity=80 time=0
EXTRACT: note_off channel=0 note=60 velocity=64 time=0.4285709999999999
EXTRACT: note_off channel=0 note=57 velocity=64 time=0
EXTRACT: note_off channel=0 note=52 velocity=64 time=0
EXTRACT: note_off channel=0 note=41 velocity=64 time=0
EXTRACT: note_on channel=0 note=60 velocity=72 time=0
EXTRACT: note_on channel=0 note=57 velocity=72 time=0
EXTRACT: note_on channel=0 note=52 velocity=72 time=0
EXTRACT: note_on channel=0 note=41 velocity=72 time=0
EXTRACT: note_off channel=0 note=60 velocity=64 time=0.14285699999999998
EXTRACT: note_off channel=0 note=57 velocity=64 time=0
EXTRACT: note_off channel=0 note=52 velocity=64 time=0
EXTRACT: note_off channel=0 note=41 velocity=64 time=0
EXTRACT: note_on channel=0 note=60 velocity=72 time=0
EXTRACT: note_on channel=0 note=57 velocity=72 time=0
EXTRACT: note_on channel=0 note=52 velocity=72 time=0
EXTRACT: note_off channel=9 note=44 velocity=64 time=0
EXTRACT: note_on channel=9 note=44 velocity=80 time=0
EXTRACT: note_off channel=0 note=60 velocity=64 time=0.14285699999999998
EXTRACT: note_off channel=0 note=57 velocity=64 time=0
EXTRACT: note_off channel=0 note=52 velocity=64 time=0
EXTRACT: note_on channel=0 note=60 velocity=72 time=0
EXTRACT: note_on channel=0 note=57 velocity=72 time=0
EXTRACT: note_on channel=0 note=52 velocity=72 time=0
EXTRACT: note_off channel=0 note=60 velocity=64 time=0.14285699999999998
EXTRACT: note_off channel=0 note=57 velocity=64 time=0
EXTRACT: note_off channel=0 note=52 velocity=64 time=0
EXTRACT: note_on channel=0 note=62 velocity=72 time=0
EXTRACT: note_on channel=0 note=59 velocity=72 time=0
EXTRACT: note_on channel=0 note=54 velocity=72 time=0
EXTRACT: note_on channel=0 note=43 velocity=72 time=0
EXTRACT: note_off channel=4 note=29 velocity=64 time=0
EXTRACT: note_on channel=4 note=31 velocity=80 time=0
EXTRACT: note_off channel=2 note=72 velocity=64 time=0
EXTRACT: note_off channel=2 note=69 velocity=64 time=0
EXTRACT: note_off channel=2 note=65 velocity=64 time=0
EXTRACT: note_off channel=2 note=64 velocity=64 time=0
EXTRACT: note_on channel=2 note=71 velocity=80 time=0
EXTRACT: note_on channel=2 note=67 velocity=80 time=0
EXTRACT: note_on channel=2 note=66 velocity=80 time=0
EXTRACT: note_on channel=2 note=62 velocity=80 time=0
EXTRACT: note_off channel=0 note=62 velocity=64 time=0.28571399999999997
EXTRACT: note_off channel=0 note=59 velocity=64 time=0
EXTRACT: note_off channel=0 note=54 velocity=64 time=0
EXTRACT: note_off channel=0 note=43 velocity=64 time=0
EXTRACT: note_off channel=4 note=31 velocity=64 time=0
EXTRACT: note_off channel=2 note=71 velocity=64 time=0
EXTRACT: note_off channel=2 note=67 velocity=64 time=0
EXTRACT: note_off channel=2 note=66 velocity=64 time=0
EXTRACT: note_off channel=2 note=62 velocity=64 time=0
EXTRACT: note_off channel=9 note=44 velocity=64 time=0
EXTRACT: note_on channel=9 note=44 velocity=80 time=0
EXTRACT: note_on channel=0 note=62 velocity=72 time=0.14285699999999998
EXTRACT: note_on channel=0 note=59 velocity=72 time=0
EXTRACT: note_on channel=0 note=54 velocity=72 time=0
EXTRACT: note_off channel=0 note=62 velocity=64 time=0.14285699999999998
EXTRACT: note_off channel=0 note=59 velocity=64 time=0
EXTRACT: note_off channel=0 note=54 velocity=64 time=0
EXTRACT: note_on channel=0 note=62 velocity=72 time=0
EXTRACT: note_on channel=0 note=59 velocity=72 time=0
EXTRACT: note_on channel=0 note=54 velocity=72 time=0
EXTRACT: note_on channel=0 note=43 velocity=72 time=0
EXTRACT: note_off channel=0 note=62 velocity=64 time=0.28571399999999997
EXTRACT: note_off channel=0 note=59 velocity=64 time=0
EXTRACT: note_off channel=0 note=54 velocity=64 time=0
EXTRACT: note_off channel=0 note=43 velocity=64 time=0
EXTRACT: note_on channel=0 note=62 velocity=72 time=0
EXTRACT: note_on channel=0 note=59 velocity=72 time=0
EXTRACT: note_on channel=0 note=54 velocity=72 time=0
EXTRACT: note_on channel=0 note=43 velocity=72 time=0
EXTRACT: note_off channel=9 note=44 velocity=64 time=0
EXTRACT: note_on channel=9 note=44 velocity=80 time=0
EXTRACT: note_off channel=0 note=62 velocity=64 time=0.28571399999999997
EXTRACT: note_off channel=0 note=59 velocity=64 time=0
EXTRACT: note_off channel=0 note=54 velocity=64 time=0
EXTRACT: note_off channel=0 note=43 velocity=64 time=0
EXTRACT: note_on channel=0 note=62 velocity=72 time=0
EXTRACT: note_on channel=0 note=59 velocity=72 time=0
EXTRACT: note_on channel=0 note=54 velocity=72 time=0
EXTRACT: note_off channel=0 note=62 velocity=64 time=0.14285699999999998
EXTRACT: note_off channel=0 note=59 velocity=64 time=0
EXTRACT: note_off channel=0 note=54 velocity=64 time=0
EXTRACT: note_on channel=0 note=62 velocity=72 time=0
EXTRACT: note_on channel=0 note=59 velocity=72 time=0
EXTRACT: note_on channel=0 note=54 velocity=72 time=0
EXTRACT: note_on channel=11 note=59 velocity=72 time=0.07142849999999999
EXTRACT: note_off channel=11 note=59 velocity=64 time=0.07142849999999999
EXTRACT: note_on channel=11 note=61 velocity=80 time=0
EXTRACT: note_off channel=0 note=62 velocity=64 time=0
EXTRACT: note_off channel=0 note=59 velocity=64 time=0
EXTRACT: note_off channel=0 note=54 velocity=64 time=0
EXTRACT: note_on channel=0 note=64 velocity=72 time=0
EXTRACT: note_on channel=0 note=61 velocity=72 time=0
EXTRACT: note_on channel=0 note=56 velocity=72 time=0
EXTRACT: note_on channel=0 note=45 velocity=72 time=0
EXTRACT: note_on channel=4 note=33 velocity=80 time=0
EXTRACT: note_on channel=2 note=76 velocity=80 time=0
EXTRACT: note_on channel=2 note=73 velocity=80 time=0
EXTRACT: note_on channel=2 note=69 velocity=80 time=0
EXTRACT: note_on channel=2 note=68 velocity=80 time=0
EXTRACT: note_off channel=9 note=44 velocity=64 time=0
EXTRACT: note_on channel=9 note=38 velocity=80 time=0
EXTRACT: note_on channel=9 note=44 velocity=80 time=0
EXTRACT: note_off channel=9 note=38 velocity=64 time=0.14285699999999998
EXTRACT: note_off channel=9 note=44 velocity=64 time=0
EXTRACT: note_on channel=9 note=35 velocity=80 time=0
EXTRACT: note_off channel=11 note=61 velocity=64 time=0.14285699999999998
EXTRACT: note_on channel=11 note=59 velocity=80 time=0
EXTRACT: note_off channel=9 note=35 velocity=64 time=0
EXTRACT: note_on channel=9 note=35 velocity=80 time=0
EXTRACT: note_off channel=0 note=64 velocity=64 time=0.14285699999999998
EXTRACT: note_off channel=0 note=61 velocity=64 time=0
EXTRACT: note_off channel=0 note=56 velocity=64 time=0
EXTRACT: note_off channel=0 note=45 velocity=64 time=0
EXTRACT: note_on channel=0 note=64 velocity=72 time=0
EXTRACT: note_on channel=0 note=61 velocity=72 time=0
EXTRACT: note_on channel=0 note=56 velocity=72 time=0
EXTRACT: note_on channel=0 note=45 velocity=72 time=0
EXTRACT: note_off channel=9 note=35 velocity=64 time=0
EXTRACT: note_on channel=9 note=38 velocity=80 time=0
EXTRACT: note_off channel=11 note=59 velocity=64 time=0.14285699999999998
EXTRACT: note_on channel=11 note=57 velocity=80 time=0
EXTRACT: note_off channel=0 note=64 velocity=64 time=0
EXTRACT: note_off channel=0 note=61 velocity=64 time=0
EXTRACT: note_off channel=0 note=56 velocity=64 time=0
EXTRACT: note_off channel=0 note=45 velocity=64 time=0
EXTRACT: note_on channel=0 note=64 velocity=72 time=0
EXTRACT: note_on channel=0 note=61 velocity=72 time=0
EXTRACT: note_on channel=0 note=56 velocity=72 time=0
EXTRACT: note_off channel=9 note=38 velocity=64 time=0
EXTRACT: note_on channel=9 note=44 velocity=80 time=0
EXTRACT: note_off channel=0 note=64 velocity=64 time=0.14285699999999998
EXTRACT: note_off channel=0 note=61 velocity=64 time=0
EXTRACT: note_off channel=0 note=56 velocity=64 time=0
EXTRACT: note_on channel=0 note=64 velocity=72 time=0
EXTRACT: note_on channel=0 note=61 velocity=72 time=0
EXTRACT: note_on channel=0 note=56 velocity=72 time=0
EXTRACT: note_off channel=9 note=44 velocity=64 time=0
EXTRACT: note_on channel=9 note=38 velocity=80 time=0
EXTRACT: note_off channel=11 note=57 velocity=64 time=0.14285699999999998
EXTRACT: note_on channel=11 note=60 velocity=80 time=0
EXTRACT: note_off channel=0 note=64 velocity=64 time=0
EXTRACT: note_off channel=0 note=61 velocity=64 time=0
EXTRACT: note_off channel=0 note=56 velocity=64 time=0
EXTRACT: note_on channel=0 note=69 velocity=72 time=0
EXTRACT: note_on channel=0 note=64 velocity=72 time=0
EXTRACT: note_on channel=0 note=60 velocity=72 time=0
EXTRACT: note_on channel=0 note=55 velocity=72 time=0
EXTRACT: note_on channel=0 note=50 velocity=72 time=0
EXTRACT: note_off channel=4 note=33 velocity=64 time=0
EXTRACT: note_on channel=4 note=38 velocity=80 time=0
EXTRACT: note_off channel=2 note=76 velocity=64 time=0
EXTRACT: note_off channel=2 note=73 velocity=64 time=0
EXTRACT: note_off channel=2 note=69 velocity=64 time=0
EXTRACT: note_off channel=2 note=68 velocity=64 time=0
EXTRACT: note_on channel=2 note=76 velocity=80 time=0
EXTRACT: note_on channel=2 note=72 velocity=80 time=0
EXTRACT: note_on channel=2 note=69 velocity=80 time=0
EXTRACT: note_on channel=2 note=67 velocity=80 time=0
EXTRACT: note_off channel=9 note=38 velocity=64 time=0
EXTRACT: note_on channel=9 note=38 velocity=72 time=0
EXTRACT: note_off channel=9 note=38 velocity=64 time=0.07142849999999999
EXTRACT: note_on channel=9 note=38 velocity=72 time=0
EXTRACT: note_off channel=9 note=38 velocity=64 time=0.07142849999999999
EXTRACT: note_on channel=9 note=38 velocity=72 time=0
EXTRACT: note_off channel=9 note=38 velocity=64 time=0.07142849999999999
EXTRACT: note_on channel=9 note=38 velocity=72 time=0
EXTRACT: note_off channel=11 note=60 velocity=64 time=0.07142849999999999
EXTRACT: note_on channel=11 note=59 velocity=80 time=0
EXTRACT: note_off channel=0 note=69 velocity=64 time=0
EXTRACT: note_off channel=0 note=64 velocity=64 time=0
EXTRACT: note_off channel=0 note=60 velocity=64 time=0
EXTRACT: note_off channel=0 note=55 velocity=64 time=0
EXTRACT: note_off channel=0 note=50 velocity=64 time=0
EXTRACT: note_off channel=4 note=38 velocity=64 time=0
EXTRACT: note_off channel=2 note=76 velocity=64 time=0
EXTRACT: note_off channel=2 note=72 velocity=64 time=0
EXTRACT: note_off channel=2 note=69 velocity=64 time=0
EXTRACT: note_off channel=2 note=67 velocity=64 time=0
EXTRACT: note_off channel=9 note=38 velocity=64 time=0
EXTRACT: note_on channel=9 note=46 velocity=80 time=0
EXTRACT: note_on channel=9 note=35 velocity=80 time=0
EXTRACT: note_on channel=0 note=69 velocity=72 time=0.14285699999999998
EXTRACT: note_on channel=0 note=64 velocity=72 time=0
EXTRACT: note_on channel=0 note=60 velocity=72 time=0
EXTRACT: note_off channel=9 note=46 velocity=64 time=0
EXTRACT: note_off channel=9 note=35 velocity=64 time=0
EXTRACT: note_on channel=9 note=38 velocity=72 time=0
EXTRACT: note_off channel=11 note=59 velocity=64 time=0.14285699999999998
EXTRACT: note_on channel=11 note=57 velocity=80 time=0
EXTRACT: note_off channel=0 note=69 velocity=64 time=0
EXTRACT: note_off channel=0 note=64 velocity=64 time=0
EXTRACT: note_off channel=0 note=60 velocity=64 time=0
EXTRACT: note_on channel=0 note=64 velocity=72 time=0
EXTRACT: note_on channel=0 note=60 velocity=72 time=0
EXTRACT: note_on channel=0 note=55 velocity=72 time=0
EXTRACT: note_on channel=0 note=50 velocity=72 time=0
EXTRACT: note_off channel=9 note=38 velocity=64 time=0
EXTRACT: note_on channel=9 note=38 velocity=80 time=0
EXTRACT: note_off channel=9 note=38 velocity=64 time=0.14285699999999998
EXTRACT: note_on channel=9 note=38 velocity=80 time=0
EXTRACT: note_off channel=11 note=57 velocity=64 time=0.14285699999999998
EXTRACT: note_on channel=11 note=57 velocity=80 time=0
EXTRACT: note_off channel=0 note=64 velocity=64 time=0
EXTRACT: note_off channel=0 note=60 velocity=64 time=0
EXTRACT: note_off channel=0 note=55 velocity=64 time=0
EXTRACT: note_off channel=0 note=50 velocity=64 time=0
EXTRACT: note_on channel=0 note=69 velocity=72 time=0
EXTRACT: note_on channel=0 note=64 velocity=72 time=0
EXTRACT: note_on channel=0 note=60 velocity=72 time=0
EXTRACT: note_on channel=0 note=55 velocity=72 time=0
EXTRACT: note_on channel=0 note=50 velocity=72 time=0
EXTRACT: note_on channel=8 note=71 velocity=80 time=0
EXTRACT: note_off channel=9 note=38 velocity=64 time=0
EXTRACT: note_on channel=9 note=38 velocity=80 time=0
EXTRACT: note_off channel=9 note=38 velocity=64 time=0.14285699999999998
EXTRACT: note_on channel=9 note=47 velocity=80 time=0
EXTRACT: note_off channel=11 note=57 velocity=64 time=0.14285699999999998
EXTRACT: note_on channel=11 note=54 velocity=80 time=0
EXTRACT: note_off channel=0 note=69 velocity=64 time=0
EXTRACT: note_off channel=0 note=64 velocity=64 time=0
EXTRACT: note_off channel=0 note=60 velocity=64 time=0
EXTRACT: note_off channel=0 note=55 velocity=64 time=0
EXTRACT: note_off channel=0 note=50 velocity=64 time=0
EXTRACT: note_on channel=0 note=66 velocity=72 time=0
EXTRACT: note_on channel=0 note=61 velocity=72 time=0
EXTRACT: note_on channel=0 note=57 velocity=72 time=0
EXTRACT: note_off channel=9 note=47 velocity=64 time=0
EXTRACT: note_on channel=9 note=35 velocity=80 time=0
EXTRACT: note_off channel=0 note=66 velocity=64 time=0.14285699999999998
EXTRACT: note_off channel=0 note=61 velocity=64 time=0
EXTRACT: note_off channel=0 note=57 velocity=64 time=0
EXTRACT: note_on channel=0 note=66 velocity=72 time=0
EXTRACT: note_on channel=0 note=61 velocity=72 time=0
EXTRACT: note_on channel=0 note=57 velocity=72 time=0
EXTRACT: note_off channel=11 note=54 velocity=64 time=0.14285699999999998
EXTRACT: note_on channel=11 note=66 velocity=80 time=0
EXTRACT: note_off channel=0 note=66 velocity=64 time=0
EXTRACT: note_off channel=0 note=61 velocity=64 time=0
EXTRACT: note_off channel=0 note=57 velocity=64 time=0
EXTRACT: note_on channel=0 note=66 velocity=72 time=0
EXTRACT: note_on channel=0 note=62 velocity=72 time=0
EXTRACT: note_on channel=0 note=57 velocity=72 time=0
EXTRACT: note_on channel=0 note=54 velocity=72 time=0
EXTRACT: note_on channel=0 note=47 velocity=72 time=0
EXTRACT: note_on channel=6 note=69 velocity=80 time=0
EXTRACT: note_on channel=6 note=64 velocity=80 time=0
EXTRACT: note_on channel=4 note=35 velocity=80 time=0
EXTRACT: note_on channel=2 note=66 velocity=80 time=0
EXTRACT: note_on channel=2 note=62 velocity=80 time=0
EXTRACT: note_on channel=2 note=57 velocity=80 time=0
EXTRACT: note_off channel=8 note=71 velocity=64 time=0
EXTRACT: note_on channel=8 note=73 velocity=72 time=0
EXTRACT: note_on channel=9 note=82 velocity=64 time=0
EXTRACT: note_off channel=9 note=35 velocity=64 time=0
EXTRACT: note_on channel=9 note=49 velocity=80 time=0
EXTRACT: note_on channel=9 note=57 velocity=80 time=0
EXTRACT: note_on channel=9 note=35 velocity=80 time=0
EXTRACT: note_off channel=6 note=69 velocity=64 time=0.14285699999999998
EXTRACT: note_off channel=6 note=64 velocity=64 time=0
EXTRACT: note_on channel=6 note=69 velocity=80 time=0
EXTRACT: note_on channel=6 note=64 velocity=80 time=0
EXTRACT: note_off channel=9 note=82 velocity=64 time=0
EXTRACT: note_on channel=9 note=82 velocity=64 time=0
EXTRACT: note_off channel=6 note=69 velocity=64 time=0.14285699999999998
EXTRACT: note_off channel=6 note=64 velocity=64 time=0
EXTRACT: note_on channel=6 note=69 velocity=80 time=0
EXTRACT: note_on channel=6 note=64 velocity=80 time=0
EXTRACT: note_off channel=8 note=73 velocity=64 time=0
EXTRACT: note_on channel=8 note=71 velocity=72 time=0
EXTRACT: note_off channel=9 note=82 velocity=64 time=0
EXTRACT: note_on channel=9 note=82 velocity=64 time=0
EXTRACT: note_off channel=9 note=49 velocity=64 time=0
EXTRACT: note_off channel=9 note=57 velocity=64 time=0
EXTRACT: note_off channel=9 note=35 velocity=64 time=0
EXTRACT: note_on channel=9 note=42 velocity=80 time=0
EXTRACT: note_off channel=0 note=66 velocity=64 time=0.14285699999999998
EXTRACT: note_off channel=0 note=62 velocity=64 time=0
EXTRACT: note_off channel=0 note=57 velocity=64 time=0
EXTRACT: note_off channel=0 note=54 velocity=64 time=0
EXTRACT: note_off channel=0 note=47 velocity=64 time=0
EXTRACT: note_on channel=0 note=66 velocity=72 time=0
EXTRACT: note_on channel=0 note=62 velocity=72 time=0
EXTRACT: note_on channel=0 note=57 velocity=72 time=0
EXTRACT: note_on channel=0 note=54 velocity=72 time=0
EXTRACT: note_on channel=0 note=47 velocity=72 time=0
EXTRACT: note_off channel=6 note=69 velocity=64 time=0
EXTRACT: note_off channel=6 note=64 velocity=64 time=0
EXTRACT: note_on channel=6 note=69 velocity=80 time=0
EXTRACT: note_on channel=6 note=64 velocity=80 time=0
EXTRACT: note_off channel=4 note=35 velocity=64 time=0
EXTRACT: note_on channel=4 note=35 velocity=80 time=0
EXTRACT: note_off channel=2 note=66 velocity=64 time=0
EXTRACT: note_off channel=2 note=62 velocity=64 time=0
EXTRACT: note_off channel=2 note=57 velocity=64 time=0
EXTRACT: note_on channel=2 note=66 velocity=80 time=0
EXTRACT: note_on channel=2 note=62 velocity=80 time=0
EXTRACT: note_on channel=2 note=57 velocity=80 time=0
EXTRACT: note_off channel=11 note=66 velocity=64 time=0.14285699999999998
EXTRACT: note_on channel=11 note=61 velocity=80 time=0
EXTRACT: note_off channel=0 note=66 velocity=64 time=0
EXTRACT: note_off channel=0 note=62 velocity=64 time=0
EXTRACT: note_off channel=0 note=57 velocity=64 time=0
EXTRACT: note_off channel=0 note=54 velocity=64 time=0
EXTRACT: note_off channel=0 note=47 velocity=64 time=0
EXTRACT: note_on channel=0 note=66 velocity=72 time=0
EXTRACT: note_on channel=0 note=62 velocity=72 time=0
EXTRACT: note_on channel=0 note=57 velocity=72 time=0
EXTRACT: note_off channel=6 note=69 velocity=64 time=0
EXTRACT: note_off channel=6 note=64 velocity=64 time=0
EXTRACT: note_on channel=6 note=69 velocity=80 time=0
EXTRACT: note_on channel=6 note=64 velocity=80 time=0
EXTRACT: note_off channel=4 note=35 velocity=64 time=0
EXTRACT: note_off channel=2 note=66 velocity=64 time=0
EXTRACT: note_off channel=2 note=62 velocity=64 time=0
EXTRACT: note_off channel=2 note=57 velocity=64 time=0
EXTRACT: note_off channel=8 note=71 velocity=64 time=0
EXTRACT: note_on channel=8 note=73 velocity=72 time=0
EXTRACT: note_off channel=9 note=82 velocity=64 time=0
EXTRACT: note_off channel=9 note=42 velocity=64 time=0
EXTRACT: note_on channel=9 note=42 velocity=80 time=0
EXTRACT: note_on channel=9 note=57 velocity=80 time=0
EXTRACT: note_on channel=9 note=38 velocity=80 time=0
EXTRACT: note_off channel=0 note=66 velocity=64 time=0.14285699999999998
EXTRACT: note_off channel=0 note=62 velocity=64 time=0
EXTRACT: note_off channel=0 note=57 velocity=64 time=0
EXTRACT: note_on channel=0 note=66 velocity=72 time=0
EXTRACT: note_on channel=0 note=62 velocity=72 time=0
EXTRACT: note_on channel=0 note=57 velocity=72 time=0
EXTRACT: note_off channel=6 note=69 velocity=64 time=0
EXTRACT: note_off channel=6 note=64 velocity=64 time=0
EXTRACT: note_on channel=6 note=69 velocity=80 time=0
EXTRACT: note_on channel=6 note=64 velocity=80 time=0
EXTRACT: note_off channel=0 note=66 velocity=64 time=0.14285699999999998
EXTRACT: note_off channel=0 note=62 velocity=64 time=0
EXTRACT: note_off channel=0 note=57 velocity=64 time=0
EXTRACT: note_on channel=0 note=66 velocity=72 time=0
EXTRACT: note_on channel=0 note=61 velocity=72 time=0
EXTRACT: note_on channel=0 note=57 velocity=72 time=0
EXTRACT: note_on channel=0 note=52 velocity=72 time=0
EXTRACT: note_on channel=0 note=49 velocity=72 time=0
EXTRACT: note_off channel=6 note=69 velocity=64 time=0
EXTRACT: note_off channel=6 note=64 velocity=64 time=0
EXTRACT: note_on channel=6 note=69 velocity=80 time=0
EXTRACT: note_on channel=6 note=64 velocity=80 time=0
EXTRACT: note_on channel=4 note=30 velocity=80 time=0
EXTRACT: note_on channel=2 note=69 velocity=80 time=0
EXTRACT: note_on channel=2 note=64 velocity=80 time=0
EXTRACT: note_on channel=2 note=61 velocity=80 time=0
EXTRACT: note_on channel=2 note=57 velocity=80 time=0
EXTRACT: note_off channel=8 note=73 velocity=64 time=0
EXTRACT: note_on channel=8 note=71 velocity=72 time=0
EXTRACT: note_off channel=9 note=42 velocity=64 time=0
EXTRACT: note_off channel=9 note=57 velocity=64 time=0
EXTRACT: note_off channel=9 note=38 velocity=64 time=0
EXTRACT: note_on channel=9 note=42 velocity=80 time=0
EXTRACT: note_on channel=9 note=35 velocity=80 time=0
EXTRACT: note_off channel=6 note=69 velocity=64 time=0.14285699999999998
EXTRACT: note_off channel=6 note=64 velocity=64 time=0
EXTRACT: note_on channel=6 note=69 velocity=80 time=0
EXTRACT: note_on channel=6 note=64 velocity=80 time=0
EXTRACT: note_off channel=8 note=71 velocity=64 time=0
EXTRACT: note_on channel=8 note=73 velocity=72 time=0
EXTRACT: note_off channel=0 note=66 velocity=64 time=0.14285699999999998
EXTRACT: note_off channel=0 note=61 velocity=64 time=0
EXTRACT: note_off channel=0 note=57 velocity=64 time=0
EXTRACT: note_off channel=0 note=52 velocity=64 time=0
EXTRACT: note_off channel=0 note=49 velocity=64 time=0
EXTRACT: note_off channel=6 note=69 velocity=64 time=0
EXTRACT: note_off channel=6 note=64 velocity=64 time=0
EXTRACT: note_on channel=6 note=69 velocity=80 time=0
EXTRACT: note_on channel=6 note=64 velocity=80 time=0
EXTRACT: note_off channel=4 note=30 velocity=64 time=0
EXTRACT: note_off channel=2 note=69 velocity=64 time=0
EXTRACT: note_off channel=2 note=64 velocity=64 time=0
EXTRACT: note_off channel=2 note=61 velocity=64 time=0
EXTRACT: note_off channel=2 note=57 velocity=64 time=0
EXTRACT: note_off channel=8 note=73 velocity=64 time=0
EXTRACT: note_on channel=9 note=82 velocity=64 time=0
EXTRACT: note_off channel=9 note=42 velocity=64 time=0
EXTRACT: note_off channel=9 note=35 velocity=64 time=0
EXTRACT: note_on channel=9 note=42 velocity=80 time=0
EXTRACT: note_on channel=9 note=57 velocity=80 time=0
EXTRACT: note_on channel=0 note=66 velocity=72 time=0.14285699999999998
EXTRACT: note_on channel=0 note=61 velocity=72 time=0
EXTRACT: note_on channel=0 note=57 velocity=72 time=0
EXTRACT: note_on channel=8 note=71 velocity=72 time=0
EXTRACT: note_off channel=9 note=82 velocity=64 time=0
EXTRACT: note_on channel=9 note=82 velocity=64 time=0
EXTRACT: note_off channel=0 note=66 velocity=64 time=0.14285699999999998
EXTRACT: note_off channel=0 note=61 velocity=64 time=0
EXTRACT: note_off channel=0 note=57 velocity=64 time=0
EXTRACT: note_on channel=0 note=61 velocity=72 time=0
EXTRACT: note_on channel=0 note=57 velocity=72 time=0
EXTRACT: note_on channel=0 note=52 velocity=72 time=0
EXTRACT: note_on channel=0 note=49 velocity=72 time=0
EXTRACT: note_off channel=6 note=69 velocity=64 time=0
EXTRACT: note_off channel=6 note=64 velocity=64 time=0
EXTRACT: note_on channel=6 note=69 velocity=80 time=0
EXTRACT: note_on channel=6 note=64 velocity=80 time=0
EXTRACT: note_on channel=2 note=69 velocity=80 time=0
EXTRACT: note_on channel=2 note=64 velocity=80 time=0
EXTRACT: note_on channel=2 note=61 velocity=80 time=0
EXTRACT: note_on channel=2 note=57 velocity=80 time=0
EXTRACT: note_off channel=8 note=71 velocity=64 time=0
EXTRACT: note_on channel=8 note=73 velocity=72 time=0
EXTRACT: note_off channel=9 note=82 velocity=64 time=0
EXTRACT: note_on channel=9 note=82 velocity=64 time=0
EXTRACT: note_off channel=9 note=42 velocity=64 time=0
EXTRACT: note_off channel=9 note=57 velocity=64 time=0
EXTRACT: note_on channel=9 note=42 velocity=80 time=0
EXTRACT: note_off channel=11 note=61 velocity=64 time=0.28571399999999997
EXTRACT: note_off channel=0 note=61 velocity=64 time=0
EXTRACT: note_off channel=0 note=57 velocity=64 time=0
EXTRACT: note_off channel=0 note=52 velocity=64 time=0
EXTRACT: note_off channel=0 note=49 velocity=64 time=0
EXTRACT: note_on channel=0 note=66 velocity=72 time=0
EXTRACT: note_on channel=0 note=61 velocity=72 time=0
EXTRACT: note_on channel=0 note=57 velocity=72 time=0
EXTRACT: note_on channel=0 note=52 velocity=72 time=0
EXTRACT: note_on channel=0 note=49 velocity=72 time=0
EXTRACT: note_off channel=6 note=69 velocity=64 time=0
EXTRACT: note_off channel=6 note=64 velocity=64 time=0
EXTRACT: note_on channel=6 note=69 velocity=80 time=0
EXTRACT: note_on channel=6 note=64 velocity=80 time=0
EXTRACT: note_off channel=2 note=69 velocity=64 time=0
EXTRACT: note_off channel=2 note=64 velocity=64 time=0
EXTRACT: note_off channel=2 note=61 velocity=64 time=0
EXTRACT: note_off channel=2 note=57 velocity=64 time=0
EXTRACT: note_on channel=2 note=69 velocity=80 time=0
EXTRACT: note_on channel=2 note=64 velocity=80 time=0
EXTRACT: note_on channel=2 note=61 velocity=80 time=0
EXTRACT: note_on channel=2 note=57 velocity=80 time=0
EXTRACT: note_off channel=8 note=73 velocity=64 time=0
EXTRACT: note_on channel=8 note=71 velocity=72 time=0
EXTRACT: note_off channel=9 note=82 velocity=64 time=0
EXTRACT: note_off channel=9 note=42 velocity=64 time=0
EXTRACT: note_on channel=9 note=42 velocity=80 time=0
EXTRACT: note_on channel=9 note=57 velocity=80 time=0
EXTRACT: note_on channel=9 note=38 velocity=80 time=0
EXTRACT: note_off channel=6 note=69 velocity=64 time=0.14285699999999998
EXTRACT: note_off channel=6 note=64 velocity=64 time=0
EXTRACT: note_on channel=6 note=69 velocity=80 time=0
EXTRACT: note_on channel=6 note=64 velocity=80 time=0
EXTRACT: note_off channel=8 note=71 velocity=64 time=0
EXTRACT: note_on channel=8 note=73 velocity=72 time=0
EXTRACT: note_off channel=0 note=66 velocity=64 time=0.14285699999999998
EXTRACT: note_off channel=0 note=61 velocity=64 time=0
EXTRACT: note_off channel=0 note=57 velocity=64 time=0
EXTRACT: note_off channel=0 note=52 velocity=64 time=0
EXTRACT: note_off channel=0 note=49 velocity=64 time=0
EXTRACT: note_on channel=0 note=66 velocity=72 time=0
EXTRACT: note_on channel=0 note=61 velocity=72 time=0
EXTRACT: note_on channel=0 note=57 velocity=72 time=0
EXTRACT: note_off channel=6 note=69 velocity=64 time=0
EXTRACT: note_off channel=6 note=64 velocity=64 time=0
EXTRACT: note_on channel=6 note=69 velocity=80 time=0
EXTRACT: note_on channel=6 note=64 velocity=80 time=0
EXTRACT: note_off channel=9 note=42 velocity=64 time=0
EXTRACT: note_off channel=9 note=57 velocity=64 time=0
EXTRACT: note_off channel=9 note=38 velocity=64 time=0
EXTRACT: note_on channel=9 note=42 velocity=80 time=0
EXTRACT: note_on channel=11 note=59 velocity=80 time=0.14285699999999998
EXTRACT: note_off channel=0 note=66 velocity=64 time=0
EXTRACT: note_off channel=0 note=61 velocity=64 time=0
EXTRACT: note_off channel=0 note=57 velocity=64 time=0
EXTRACT: note_on channel=0 note=66 velocity=72 time=0
EXTRACT: note_on channel=0 note=61 velocity=72 time=0
EXTRACT: note_on channel=0 note=57 velocity=72 time=0
EXTRACT: note_off channel=6 note=69 velocity=64 time=0
EXTRACT: note_off channel=6 note=64 velocity=64 time=0
EXTRACT: note_on channel=6 note=69 velocity=80 time=0
EXTRACT: note_on channel=6 note=64 velocity=80 time=0
EXTRACT: note_off channel=8 note=73 velocity=64 time=0
EXTRACT: note_on channel=8 note=71 velocity=72 time=0
EXTRACT: note_off channel=11 note=59 velocity=64 time=0.14285699999999998
EXTRACT: note_on channel=11 note=61 velocity=80 time=0
EXTRACT: note_off channel=0 note=66 velocity=64 time=0
EXTRACT: note_off channel=0 note=61 velocity=64 time=0
EXTRACT: note_off channel=0 note=57 velocity=64 time=0
EXTRACT: note_on channel=0 note=66 velocity=72 time=0
EXTRACT: note_on channel=0 note=62 velocity=72 time=0
EXTRACT: note_on channel=0 note=57 velocity=72 time=0
EXTRACT: note_on channel=0 note=54 velocity=72 time=0
EXTRACT: note_on channel=0 note=47 velocity=72 time=0
EXTRACT: note_off channel=6 note=69 velocity=64 time=0
EXTRACT: note_off channel=6 note=64 velocity=64 time=0
EXTRACT: note_on channel=6 note=69 velocity=80 time=0
EXTRACT: note_on channel=6 note=64 velocity=80 time=0
EXTRACT: note_on channel=4 note=35 velocity=80 time=0
EXTRACT: note_off channel=2 note=69 velocity=64 time=0
EXTRACT: note_off channel=2 note=64 velocity=64 time=0
EXTRACT: note_off channel=2 note=61 velocity=64 time=0
EXTRACT: note_off channel=2 note=57 velocity=64 time=0
EXTRACT: note_on channel=2 note=66 velocity=80 time=0
EXTRACT: note_on channel=2 note=62 velocity=80 time=0
EXTRACT: note_on channel=2 note=57 velocity=80 time=0
EXTRACT: note_off channel=8 note=71 velocity=64 time=0
EXTRACT: note_on channel=8 note=73 velocity=72 time=0
EXTRACT: note_on channel=9 note=82 velocity=64 time=0
EXTRACT: note_off channel=9 note=42 velocity=64 time=0
EXTRACT: note_on channel=9 note=42 velocity=80 time=0
EXTRACT: note_on channel=9 note=57 velocity=80 time=0
EXTRACT: note_on channel=9 note=35 velocity=80 time=0
EXTRACT: note_off channel=11 note=61 velocity=64 time=0.14285699999999998
EXTRACT: note_on channel=11 note=61 velocity=80 time=0
EXTRACT: note_off channel=6 note=69 velocity=64 time=0
EXTRACT: note_off channel=6 note=64 velocity=64 time=0
EXTRACT: note_on channel=6 note=69 velocity=80 time=0
EXTRACT: note_on channel=6 note=64 velocity=80 time=0
EXTRACT: note_off channel=9 note=82 velocity=64 time=0
EXTRACT: note_on channel=9 note=82 velocity=64 time=0
EXTRACT: note_off channel=11 note=61 velocity=64 time=0.14285699999999998
EXTRACT: note_on channel=11 note=61 velocity=80 time=0
EXTRACT: note_off channel=6 note=69 velocity=64 time=0
EXTRACT: note_off channel=6 note=64 velocity=64 time=0
EXTRACT: note_on channel=6 note=69 velocity=80 time=0
EXTRACT: note_on channel=6 note=64 velocity=80 time=0
EXTRACT: note_off channel=4 note=35 velocity=64 time=0
EXTRACT: note_off channel=8 note=73 velocity=64 time=0
EXTRACT: note_on channel=8 note=71 velocity=72 time=0
EXTRACT: note_off channel=9 note=82 velocity=64 time=0
EXTRACT: note_on channel=9 note=82 velocity=64 time=0
EXTRACT: note_off channel=9 note=42 velocity=64 time=0
EXTRACT: note_off channel=9 note=57 velocity=64 time=0
EXTRACT: note_off channel=9 note=35 velocity=64 time=0
EXTRACT: note_on channel=9 note=42 velocity=80 time=0
EXTRACT: note_off channel=0 note=66 velocity=64 time=0.14285699999999998
EXTRACT: note_off channel=0 note=62 velocity=64 time=0
EXTRACT: note_off channel=0 note=57 velocity=64 time=0
EXTRACT: note_off channel=0 note=54 velocity=64 time=0
EXTRACT: note_off channel=0 note=47 velocity=64 time=0
EXTRACT: note_on channel=0 note=66 velocity=72 time=0
EXTRACT: note_on channel=0 note=62 velocity=72 time=0
EXTRACT: note_on channel=0 note=57 velocity=72 time=0
EXTRACT: note_on channel=0 note=54 velocity=72 time=0
EXTRACT: note_on channel=0 note=47 velocity=72 time=0
EXTRACT: note_off channel=6 note=69 velocity=64 time=0
EXTRACT: note_off channel=6 note=64 velocity=64 time=0
EXTRACT: note_on channel=6 note=69 velocity=80 time=0
EXTRACT: note_on channel=6 note=64 velocity=80 time=0
EXTRACT: note_on channel=4 note=35 velocity=80 time=0
EXTRACT: note_off channel=2 note=66 velocity=64 time=0
EXTRACT: note_off channel=2 note=62 velocity=64 time=0
EXTRACT: note_off channel=2 note=57 velocity=64 time=0
EXTRACT: note_on channel=2 note=66 velocity=80 time=0
EXTRACT: note_on channel=2 note=62 velocity=80 time=0
EXTRACT: note_on channel=2 note=57 velocity=80 time=0
EXTRACT: note_off channel=11 note=61 velocity=64 time=0.14285699999999998
EXTRACT: note_on channel=11 note=61 velocity=80 time=0
EXTRACT: note_off channel=0 note=66 velocity=64 time=0
EXTRACT: note_off channel=0 note=62 velocity=64 time=0
EXTRACT: note_off channel=0 note=57 velocity=64 time=0
EXTRACT: note_off channel=0 note=54 velocity=64 time=0
EXTRACT: note_off channel=0 note=47 velocity=64 time=0
EXTRACT: note_on channel=0 note=66 velocity=72 time=0
EXTRACT: note_on channel=0 note=62 velocity=72 time=0
EXTRACT: note_on channel=0 note=57 velocity=72 time=0
EXTRACT: note_off channel=6 note=69 velocity=64 time=0
EXTRACT: note_off channel=6 note=64 velocity=64 time=0
EXTRACT: note_on channel=6 note=69 velocity=80 time=0
EXTRACT: note_on channel=6 note=64 velocity=80 time=0
EXTRACT: note_off channel=4 note=35 velocity=64 time=0
EXTRACT: note_off channel=2 note=66 velocity=64 time=0
EXTRACT: note_off channel=2 note=62 velocity=64 time=0
EXTRACT: note_off channel=2 note=57 velocity=64 time=0
EXTRACT: note_off channel=8 note=71 velocity=64 time=0
EXTRACT: note_on channel=8 note=74 velocity=80 time=0
EXTRACT: note_off channel=9 note=82 velocity=64 time=0
EXTRACT: note_off channel=9 note=42 velocity=64 time=0
EXTRACT: note_on channel=9 note=42 velocity=80 time=0
EXTRACT: note_on channel=9 note=57 velocity=80 time=0
EXTRACT: note_on channel=9 note=38 velocity=80 time=0
EXTRACT: note_off channel=0 note=66 velocity=64 time=0.14285699999999998
EXTRACT: note_off channel=0 note=62 velocity=64 time=0
EXTRACT: note_off channel=0 note=57 velocity=64 time=0
EXTRACT: note_on channel=0 note=66 velocity=72 time=0
EXTRACT: note_on channel=0 note=62 velocity=72 time=0
EXTRACT: note_on channel=0 note=57 velocity=72 time=0
EXTRACT: note_off channel=6 note=69 velocity=64 time=0
EXTRACT: note_off channel=6 note=64 velocity=64 time=0
EXTRACT: note_on channel=6 note=69 velocity=80 time=0
EXTRACT: note_on channel=6 note=64 velocity=80 time=0
EXTRACT: note_off channel=11 note=61 velocity=64 time=0.14285699999999998
EXTRACT: note_on channel=11 note=59 velocity=80 time=0
EXTRACT: note_off channel=0 note=66 velocity=64 time=0
EXTRACT: note_off channel=0 note=62 velocity=64 time=0
EXTRACT: note_off channel=0 note=57 velocity=64 time=0
EXTRACT: note_on channel=0 note=66 velocity=72 time=0
EXTRACT: note_on channel=0 note=61 velocity=72 time=0
EXTRACT: note_on channel=0 note=57 velocity=72 time=0
EXTRACT: note_on channel=0 note=52 velocity=72 time=0
EXTRACT: note_on channel=0 note=49 velocity=72 time=0
EXTRACT: note_off channel=6 note=69 velocity=64 time=0
EXTRACT: note_off channel=6 note=64 velocity=64 time=0
EXTRACT: note_on channel=6 note=69 velocity=80 time=0
EXTRACT: note_on channel=6 note=64 velocity=80 time=0
EXTRACT: note_on channel=4 note=30 velocity=80 time=0
EXTRACT: note_on channel=2 note=69 velocity=80 time=0
EXTRACT: note_on channel=2 note=64 velocity=80 time=0
EXTRACT: note_on channel=2 note=61 velocity=80 time=0
EXTRACT: note_on channel=2 note=57 velocity=80 time=0
EXTRACT: note_off channel=8 note=74 velocity=64 time=0
EXTRACT: note_on channel=8 note=73 velocity=80 time=0
EXTRACT: note_off channel=9 note=42 velocity=64 time=0
EXTRACT: note_off channel=9 note=57 velocity=64 time=0
EXTRACT: note_off channel=9 note=38 velocity=64 time=0
EXTRACT: note_on channel=9 note=42 velocity=80 time=0
EXTRACT: note_on channel=9 note=35 velocity=80 time=0
EXTRACT: note_off channel=11 note=59 velocity=64 time=0.14285699999999998
EXTRACT: note_on channel=11 note=61 velocity=80 time=0
EXTRACT: note_off channel=6 note=69 velocity=64 time=0
EXTRACT: note_off channel=6 note=64 velocity=64 time=0
EXTRACT: note_on channel=6 note=69 velocity=80 time=0
EXTRACT: note_on channel=6 note=64 velocity=80 time=0
EXTRACT: note_off channel=11 note=61 velocity=64 time=0.14285699999999998
EXTRACT: note_off channel=0 note=66 velocity=64 time=0
EXTRACT: note_off channel=0 note=61 velocity=64 time=0
EXTRACT: note_off channel=0 note=57 velocity=64 time=0
EXTRACT: note_off channel=0 note=52 velocity=64 time=0
EXTRACT: note_off channel=0 note=49 velocity=64 time=0
EXTRACT: note_off channel=6 note=69 velocity=64 time=0
EXTRACT: note_off channel=6 note=64 velocity=64 time=0
EXTRACT: note_on channel=6 note=69 velocity=80 time=0
EXTRACT: note_on channel=6 note=64 velocity=80 time=0
EXTRACT: note_off channel=4 note=30 velocity=64 time=0
EXTRACT: note_off channel=2 note=69 velocity=64 time=0
EXTRACT: note_off channel=2 note=64 velocity=64 time=0
EXTRACT: note_off channel=2 note=61 velocity=64 time=0
EXTRACT: note_off channel=2 note=57 velocity=64 time=0
EXTRACT: note_off channel=8 note=73 velocity=64 time=0
EXTRACT: note_on channel=9 note=82 velocity=64 time=0
EXTRACT: note_off channel=9 note=42 velocity=64 time=0
EXTRACT: note_off channel=9 note=35 velocity=64 time=0
EXTRACT: note_on channel=9 note=42 velocity=80 time=0
EXTRACT: note_on channel=9 note=57 velocity=80 time=0
EXTRACT: note_on channel=0 note=66 velocity=72 time=0.14285699999999998
EXTRACT: note_on channel=0 note=61 velocity=72 time=0
EXTRACT: note_on channel=0 note=57 velocity=72 time=0
EXTRACT: note_off channel=9 note=82 velocity=64 time=0
EXTRACT: note_on channel=9 note=82 velocity=64 time=0
EXTRACT: note_off channel=0 note=66 velocity=64 time=0.14285699999999998
EXTRACT: note_off channel=0 note=61 velocity=64 time=0
EXTRACT: note_off channel=0 note=57 velocity=64 time=0
EXTRACT: note_on channel=0 note=61 velocity=72 time=0
EXTRACT: note_on channel=0 note=57 velocity=72 time=0
EXTRACT: note_on channel=0 note=52 velocity=72 time=0
EXTRACT: note_on channel=0 note=49 velocity=72 time=0
EXTRACT: note_off channel=6 note=69 velocity=64 time=0
EXTRACT: note_off channel=6 note=64 velocity=64 time=0
EXTRACT: note_on channel=6 note=69 velocity=80 time=0
EXTRACT: note_on channel=6 note=64 velocity=80 time=0
EXTRACT: note_on channel=8 note=71 velocity=80 time=0
EXTRACT: note_off channel=9 note=82 velocity=64 time=0
EXTRACT: note_on channel=9 note=82 velocity=64 time=0
EXTRACT: note_off channel=9 note=42 velocity=64 time=0
EXTRACT: note_off channel=9 note=57 velocity=64 time=0
EXTRACT: note_on channel=9 note=42 velocity=80 time=0
EXTRACT: note_off channel=0 note=61 velocity=64 time=0.28571399999999997
EXTRACT: note_off channel=0 note=57 velocity=64 time=0
EXTRACT: note_off channel=0 note=52 velocity=64 time=0
EXTRACT: note_off channel=0 note=49 velocity=64 time=0
EXTRACT: note_on channel=0 note=66 velocity=72 time=0
EXTRACT: note_on channel=0 note=61 velocity=72 time=0
EXTRACT: note_on channel=0 note=57 velocity=72 time=0
EXTRACT: note_on channel=0 note=52 velocity=72 time=0
EXTRACT: note_on channel=0 note=49 velocity=72 time=0
EXTRACT: note_off channel=6 note=69 velocity=64 time=0
EXTRACT: note_off channel=6 note=64 velocity=64 time=0
EXTRACT: note_on channel=6 note=69 velocity=80 time=0
EXTRACT: note_on channel=6 note=64 velocity=80 time=0
EXTRACT: note_on channel=2 note=69 velocity=80 time=0
EXTRACT: note_on channel=2 note=64 velocity=80 time=0
EXTRACT: note_on channel=2 note=61 velocity=80 time=0
EXTRACT: note_on channel=2 note=57 velocity=80 time=0
EXTRACT: note_off channel=8 note=71 velocity=64 time=0
EXTRACT: note_on channel=8 note=73 velocity=80 time=0
EXTRACT: note_off channel=9 note=82 velocity=64 time=0
EXTRACT: note_off channel=9 note=42 velocity=64 time=0
EXTRACT: note_on channel=9 note=42 velocity=80 time=0
EXTRACT: note_on channel=9 note=57 velocity=80 time=0
EXTRACT: note_on channel=9 note=38 velocity=80 time=0
EXTRACT: note_off channel=6 note=69 velocity=64 time=0.14285699999999998
EXTRACT: note_off channel=6 note=64 velocity=64 time=0
EXTRACT: note_on channel=6 note=69 velocity=80 time=0
EXTRACT: note_on channel=6 note=64 velocity=80 time=0
EXTRACT: note_off channel=0 note=66 velocity=64 time=0.14285699999999998
EXTRACT: note_off channel=0 note=61 velocity=64 time=0
EXTRACT: note_off channel=0 note=57 velocity=64 time=0
EXTRACT: note_off channel=0 note=52 velocity=64 time=0
EXTRACT: note_off channel=0 note=49 velocity=64 time=0
EXTRACT: note_on channel=0 note=66 velocity=72 time=0
EXTRACT: note_on channel=0 note=61 velocity=72 time=0
EXTRACT: note_on channel=0 note=57 velocity=72 time=0
EXTRACT: note_off channel=6 note=69 velocity=64 time=0
EXTRACT: note_off channel=6 note=64 velocity=64 time=0
EXTRACT: note_on channel=6 note=69 velocity=80 time=0
EXTRACT: note_on channel=6 note=64 velocity=80 time=0
EXTRACT: note_on channel=4 note=33 velocity=80 time=0
EXTRACT: note_off channel=8 note=73 velocity=64 time=0
EXTRACT: note_on channel=8 note=71 velocity=80 time=0
EXTRACT: note_off channel=9 note=42 velocity=64 time=0
EXTRACT: note_off channel=9 note=57 velocity=64 time=0
EXTRACT: note_off channel=9 note=38 velocity=64 time=0
EXTRACT: note_on channel=9 note=42 velocity=80 time=0
EXTRACT: note_off channel=0 note=66 velocity=64 time=0.14285699999999998
EXTRACT: note_off channel=0 note=61 velocity=64 time=0
EXTRACT: note_off channel=0 note=57 velocity=64 time=0
EXTRACT: note_on channel=0 note=66 velocity=72 time=0
EXTRACT: note_on channel=0 note=61 velocity=72 time=0
EXTRACT: note_on channel=0 note=57 velocity=72 time=0
EXTRACT: note_off channel=6 note=69 velocity=64 time=0
EXTRACT: note_off channel=6 note=64 velocity=64 time=0
EXTRACT: note_on channel=6 note=69 velocity=80 time=0
EXTRACT: note_on channel=6 note=64 velocity=80 time=0
EXTRACT: note_off channel=4 note=33 velocity=64 time=0
EXTRACT: note_on channel=4 note=30 velocity=80 time=0
EXTRACT: note_on channel=11 note=64 velocity=80 time=0.14285699999999998
EXTRACT: note_off channel=0 note=66 velocity=64 time=0
EXTRACT: note_off channel=0 note=61 velocity=64 time=0
EXTRACT: note_off channel=0 note=57 velocity=64 time=0
EXTRACT: note_on channel=0 note=60 velocity=72 time=0
EXTRACT: note_on channel=0 note=57 velocity=72 time=0
EXTRACT: note_on channel=0 note=52 velocity=72 time=0
EXTRACT: note_on channel=0 note=41 velocity=72 time=0
EXTRACT: note_off channel=6 note=69 velocity=64 time=0
EXTRACT: note_off channel=6 note=64 velocity=64 time=0
EXTRACT: note_on channel=6 note=67 velocity=80 time=0
EXTRACT: note_on channel=6 note=62 velocity=80 time=0
EXTRACT: note_off channel=4 note=30 velocity=64 time=0
EXTRACT: note_on channel=4 note=29 velocity=80 time=0
EXTRACT: note_off channel=2 note=69 velocity=64 time=0
EXTRACT: note_off channel=2 note=64 velocity=64 time=0
EXTRACT: note_off channel=2 note=61 velocity=64 time=0
EXTRACT: note_off channel=2 note=57 velocity=64 time=0
EXTRACT: note_on channel=2 note=64 velocity=80 time=0
EXTRACT: note_on channel=2 note=60 velocity=80 time=0
EXTRACT: note_on channel=2 note=57 velocity=80 time=0
EXTRACT: note_on channel=2 note=55 velocity=80 time=0
EXTRACT: note_off channel=8 note=71 velocity=64 time=0
EXTRACT: note_on channel=8 note=69 velocity=80 time=0
EXTRACT: note_on channel=9 note=82 velocity=64 time=0
EXTRACT: note_off channel=9 note=42 velocity=64 time=0
EXTRACT: note_on channel=9 note=42 velocity=80 time=0
EXTRACT: note_on channel=9 note=57 velocity=80 time=0
EXTRACT: note_on channel=9 note=35 velocity=80 time=0
EXTRACT: note_off channel=11 note=64 velocity=64 time=0.14285699999999998
EXTRACT: note_on channel=11 note=62 velocity=80 time=0
EXTRACT: note_off channel=6 note=67 velocity=64 time=0
EXTRACT: note_off channel=6 note=62 velocity=64 time=0
EXTRACT: note_on channel=6 note=67 velocity=80 time=0
EXTRACT: note_on channel=6 note=62 velocity=80 time=0
EXTRACT: note_off channel=9 note=82 velocity=64 time=0
EXTRACT: note_on channel=9 note=82 velocity=64 time=0
EXTRACT: note_off channel=6 note=67 velocity=64 time=0.14285699999999998
EXTRACT: note_off channel=6 note=62 velocity=64 time=0
EXTRACT: note_on channel=6 note=67 velocity=80 time=0
EXTRACT: note_on channel=6 note=62 velocity=80 time=0
EXTRACT: note_off channel=9 note=82 velocity=64 time=0
EXTRACT: note_on channel=9 note=82 velocity=64 time=0
EXTRACT: note_off channel=9 note=42 velocity=64 time=0
EXTRACT: note_off channel=9 note=57 velocity=64 time=0
EXTRACT: note_off channel=9 note=35 velocity=64 time=0
EXTRACT: note_on channel=9 note=42 velocity=80 time=0
EXTRACT: note_off channel=11 note=62 velocity=64 time=0.14285699999999998
EXTRACT: note_on channel=11 note=64 velocity=80 time=0
EXTRACT: note_off channel=0 note=60 velocity=64 time=0
EXTRACT: note_off channel=0 note=57 velocity=64 time=0
EXTRACT: note_off channel=0 note=52 velocity=64 time=0
EXTRACT: note_off channel=0 note=41 velocity=64 time=0
EXTRACT: note_on channel=0 note=60 velocity=72 time=0
EXTRACT: note_on channel=0 note=57 velocity=72 time=0
EXTRACT: note_on channel=0 note=52 velocity=72 time=0
EXTRACT: note_on channel=0 note=41 velocity=72 time=0
EXTRACT: note_off channel=6 note=67 velocity=64 time=0
EXTRACT: note_off channel=6 note=62 velocity=64 time=0
EXTRACT: note_on channel=6 note=67 velocity=80 time=0
EXTRACT: note_on channel=6 note=62 velocity=80 time=0
EXTRACT: note_off channel=4 note=29 velocity=64 time=0
EXTRACT: note_on channel=4 note=29 velocity=80 time=0
EXTRACT: note_off channel=2 note=64 velocity=64 time=0
EXTRACT: note_off channel=2 note=60 velocity=64 time=0
EXTRACT: note_off channel=2 note=57 velocity=64 time=0
EXTRACT: note_off channel=2 note=55 velocity=64 time=0
EXTRACT: note_on channel=2 note=64 velocity=80 time=0
EXTRACT: note_on channel=2 note=60 velocity=80 time=0
EXTRACT: note_on channel=2 note=57 velocity=80 time=0
EXTRACT: note_on channel=2 note=55 velocity=80 time=0
EXTRACT: note_off channel=11 note=64 velocity=64 time=0.14285699999999998
EXTRACT: note_off channel=0 note=60 velocity=64 time=0
EXTRACT: note_off channel=0 note=57 velocity=64 time=0
EXTRACT: note_off channel=0 note=52 velocity=64 time=0
EXTRACT: note_off channel=0 note=41 velocity=64 time=0
EXTRACT: note_on channel=0 note=60 velocity=72 time=0
EXTRACT: note_on channel=0 note=57 velocity=72 time=0
EXTRACT: note_on channel=0 note=52 velocity=72 time=0
EXTRACT: note_off channel=6 note=67 velocity=64 time=0
EXTRACT: note_off channel=6 note=62 velocity=64 time=0
EXTRACT: note_on channel=6 note=67 velocity=80 time=0
EXTRACT: note_on channel=6 note=62 velocity=80 time=0
EXTRACT: note_off channel=4 note=29 velocity=64 time=0
EXTRACT: note_off channel=2 note=64 velocity=64 time=0
EXTRACT: note_off channel=2 note=60 velocity=64 time=0
EXTRACT: note_off channel=2 note=57 velocity=64 time=0
EXTRACT: note_off channel=2 note=55 velocity=64 time=0
EXTRACT: note_off channel=9 note=82 velocity=64 time=0
EXTRACT: note_off channel=9 note=42 velocity=64 time=0
EXTRACT: note_on channel=9 note=42 velocity=80 time=0
EXTRACT: note_on channel=9 note=57 velocity=80 time=0
EXTRACT: note_on channel=9 note=38 velocity=80 time=0
EXTRACT: note_off channel=0 note=60 velocity=64 time=0.14285699999999998
EXTRACT: note_off channel=0 note=57 velocity=64 time=0
EXTRACT: note_off channel=0 note=52 velocity=64 time=0
EXTRACT: note_on channel=0 note=60 velocity=72 time=0
EXTRACT: note_on channel=0 note=57 velocity=72 time=0
EXTRACT: note_on channel=0 note=52 velocity=72 time=0
EXTRACT: note_off channel=6 note=67 velocity=64 time=0
EXTRACT: note_off channel=6 note=62 velocity=64 time=0
EXTRACT: note_on channel=6 note=67 velocity=80 time=0
EXTRACT: note_on channel=6 note=62 velocity=80 time=0
EXTRACT: note_on channel=4 note=29 velocity=80 time=0
EXTRACT: note_on channel=11 note=62 velocity=80 time=0.14285699999999998
EXTRACT: note_off channel=0 note=60 velocity=64 time=0
EXTRACT: note_off channel=0 note=57 velocity=64 time=0
EXTRACT: note_off channel=0 note=52 velocity=64 time=0
EXTRACT: note_on channel=0 note=62 velocity=72 time=0
EXTRACT: note_on channel=0 note=59 velocity=72 time=0
EXTRACT: note_on channel=0 note=54 velocity=72 time=0
EXTRACT: note_on channel=0 note=43 velocity=72 time=0
EXTRACT: note_off channel=6 note=67 velocity=64 time=0
EXTRACT: note_off channel=6 note=62 velocity=64 time=0
EXTRACT: note_on channel=6 note=67 velocity=80 time=0
EXTRACT: note_on channel=6 note=62 velocity=80 time=0
EXTRACT: note_off channel=4 note=29 velocity=64 time=0
EXTRACT: note_on channel=4 note=31 velocity=80 time=0
EXTRACT: note_on channel=2 note=66 velocity=80 time=0
EXTRACT: note_on channel=2 note=62 velocity=80 time=0
EXTRACT: note_on channel=2 note=59 velocity=80 time=0
EXTRACT: note_on channel=2 note=57 velocity=80 time=0
EXTRACT: note_off channel=8 note=69 velocity=64 time=0
EXTRACT: note_on channel=8 note=76 velocity=80 time=0
EXTRACT: note_off channel=9 note=42 velocity=64 time=0
EXTRACT: note_off channel=9 note=57 velocity=64 time=0
EXTRACT: note_off channel=9 note=38 velocity=64 time=0
EXTRACT: note_on channel=9 note=42 velocity=80 time=0
EXTRACT: note_on channel=9 note=35 velocity=80 time=0
EXTRACT: note_off channel=6 note=67 velocity=64 time=0.14285699999999998
EXTRACT: note_off channel=6 note=62 velocity=64 time=0
EXTRACT: note_on channel=6 note=67 velocity=80 time=0
EXTRACT: note_on channel=6 note=62 velocity=80 time=0
EXTRACT: note_off channel=11 note=62 velocity=64 time=0.14285699999999998
EXTRACT: note_on channel=11 note=64 velocity=80 time=0
EXTRACT: note_off channel=0 note=62 velocity=64 time=0
EXTRACT: note_off channel=0 note=59 velocity=64 time=0
EXTRACT: note_off channel=0 note=54 velocity=64 time=0
EXTRACT: note_off channel=0 note=43 velocity=64 time=0
EXTRACT: note_off channel=6 note=67 velocity=64 time=0
EXTRACT: note_off channel=6 note=62 velocity=64 time=0
EXTRACT: note_on channel=6 note=67 velocity=80 time=0
EXTRACT: note_on channel=6 note=62 velocity=80 time=0
EXTRACT: note_off channel=4 note=31 velocity=64 time=0
EXTRACT: note_off channel=2 note=66 velocity=64 time=0
EXTRACT: note_off channel=2 note=62 velocity=64 time=0
EXTRACT: note_off channel=2 note=59 velocity=64 time=0
EXTRACT: note_off channel=2 note=57 velocity=64 time=0
EXTRACT: note_off channel=8 note=76 velocity=64 time=0
EXTRACT: note_on channel=9 note=82 velocity=64 time=0
EXTRACT: note_off channel=9 note=42 velocity=64 time=0
EXTRACT: note_off channel=9 note=35 velocity=64 time=0
EXTRACT: note_on channel=9 note=42 velocity=80 time=0
EXTRACT: note_on channel=9 note=57 velocity=80 time=0
EXTRACT: note_off channel=11 note=64 velocity=64 time=0.14285699999999998
EXTRACT: note_on channel=11 note=62 velocity=80 time=0
EXTRACT: note_on channel=0 note=62 velocity=72 time=0
EXTRACT: note_on channel=0 note=59 velocity=72 time=0
EXTRACT: note_on channel=0 note=54 velocity=72 time=0
EXTRACT: note_off channel=6 note=67 velocity=64 time=0
EXTRACT: note_off channel=6 note=62 velocity=64 time=0
EXTRACT: note_on channel=6 note=67 velocity=80 time=0
EXTRACT: note_on channel=6 note=62 velocity=80 time=0
EXTRACT: note_off channel=9 note=82 velocity=64 time=0
EXTRACT: note_on channel=9 note=82 velocity=64 time=0
EXTRACT: note_off channel=0 note=62 velocity=64 time=0.14285699999999998
EXTRACT: note_off channel=0 note=59 velocity=64 time=0
EXTRACT: note_off channel=0 note=54 velocity=64 time=0
EXTRACT: note_on channel=0 note=62 velocity=72 time=0
EXTRACT: note_on channel=0 note=59 velocity=72 time=0
EXTRACT: note_on channel=0 note=54 velocity=72 time=0
EXTRACT: note_on channel=0 note=43 velocity=72 time=0
EXTRACT: note_off channel=6 note=67 velocity=64 time=0
EXTRACT: note_off channel=6 note=62 velocity=64 time=0
EXTRACT: note_on channel=6 note=67 velocity=80 time=0
EXTRACT: note_on channel=6 note=62 velocity=80 time=0
EXTRACT: note_on channel=4 note=36 velocity=80 time=0
EXTRACT: note_off channel=9 note=82 velocity=64 time=0
EXTRACT: note_on channel=9 note=82 velocity=64 time=0
EXTRACT: note_off channel=9 note=42 velocity=64 time=0
EXTRACT: note_off channel=9 note=57 velocity=64 time=0
EXTRACT: note_on channel=9 note=42 velocity=80 time=0
EXTRACT: note_off channel=11 note=62 velocity=64 time=0.14285699999999998
EXTRACT: note_on channel=11 note=66 velocity=80 time=0
EXTRACT: note_off channel=6 note=67 velocity=64 time=0
EXTRACT: note_off channel=6 note=62 velocity=64 time=0
EXTRACT: note_on channel=6 note=67 velocity=80 time=0
EXTRACT: note_on channel=6 note=62 velocity=80 time=0
EXTRACT: note_off channel=4 note=36 velocity=64 time=0
EXTRACT: note_on channel=4 note=38 velocity=80 time=0
EXTRACT: note_off channel=11 note=66 velocity=64 time=0.14285699999999998
EXTRACT: note_on channel=11 note=64 velocity=80 time=0
EXTRACT: note_off channel=0 note=62 velocity=64 time=0
EXTRACT: note_off channel=0 note=59 velocity=64 time=0
EXTRACT: note_off channel=0 note=54 velocity=64 time=0
EXTRACT: note_off channel=0 note=43 velocity=64 time=0
EXTRACT: note_on channel=0 note=62 velocity=72 time=0
EXTRACT: note_on channel=0 note=59 velocity=72 time=0
EXTRACT: note_on channel=0 note=54 velocity=72 time=0
EXTRACT: note_on channel=0 note=43 velocity=72 time=0
EXTRACT: note_off channel=6 note=67 velocity=64 time=0
EXTRACT: note_off channel=6 note=62 velocity=64 time=0
EXTRACT: note_on channel=6 note=67 velocity=80 time=0
EXTRACT: note_on channel=6 note=62 velocity=80 time=0
EXTRACT: note_off channel=4 note=38 velocity=64 time=0
EXTRACT: note_on channel=4 note=43 velocity=80 time=0
EXTRACT: note_on channel=2 note=66 velocity=80 time=0
EXTRACT: note_on channel=2 note=62 velocity=80 time=0
EXTRACT: note_on channel=2 note=59 velocity=80 time=0
EXTRACT: note_on channel=2 note=57 velocity=80 time=0
EXTRACT: note_off channel=9 note=82 velocity=64 time=0
EXTRACT: note_off channel=9 note=42 velocity=64 time=0
EXTRACT: note_on channel=9 note=42 velocity=80 time=0
EXTRACT: note_on channel=9 note=57 velocity=80 time=0
EXTRACT: note_on channel=9 note=38 velocity=80 time=0
EXTRACT: note_off channel=11 note=64 velocity=64 time=0.14285699999999998
EXTRACT: note_on channel=11 note=66 velocity=80 time=0
EXTRACT: note_off channel=6 note=67 velocity=64 time=0
EXTRACT: note_off channel=6 note=62 velocity=64 time=0
EXTRACT: note_on channel=6 note=67 velocity=80 time=0
EXTRACT: note_on channel=6 note=62 velocity=80 time=0
EXTRACT: note_off channel=11 note=66 velocity=64 time=0.14285699999999998
EXTRACT: note_off channel=0 note=62 velocity=64 time=0
EXTRACT: note_off channel=0 note=59 velocity=64 time=0
EXTRACT: note_off channel=0 note=54 velocity=64 time=0
EXTRACT: note_off channel=0 note=43 velocity=64 time=0
EXTRACT: note_on channel=0 note=62 velocity=72 time=0
EXTRACT: note_on channel=0 note=59 velocity=72 time=0
EXTRACT: note_on channel=0 note=54 velocity=72 time=0
EXTRACT: note_off channel=6 note=67 velocity=64 time=0
EXTRACT: note_off channel=6 note=62 velocity=64 time=0
EXTRACT: note_on channel=6 note=67 velocity=80 time=0
EXTRACT: note_on channel=6 note=62 velocity=80 time=0
EXTRACT: note_off channel=9 note=42 velocity=64 time=0
EXTRACT: note_off channel=9 note=57 velocity=64 time=0
EXTRACT: note_off channel=9 note=38 velocity=64 time=0
EXTRACT: note_on channel=9 note=42 velocity=80 time=0
EXTRACT: note_off channel=0 note=62 velocity=64 time=0.14285699999999998
EXTRACT: note_off channel=0 note=59 velocity=64 time=0
EXTRACT: note_off channel=0 note=54 velocity=64 time=0
EXTRACT: note_on channel=0 note=62 velocity=72 time=0
EXTRACT: note_on channel=0 note=59 velocity=72 time=0
EXTRACT: note_on channel=0 note=54 velocity=72 time=0
EXTRACT: note_off channel=6 note=67 velocity=64 time=0
EXTRACT: note_off channel=6 note=62 velocity=64 time=0
EXTRACT: note_on channel=6 note=67 velocity=80 time=0
EXTRACT: note_on channel=6 note=62 velocity=80 time=0
EXTRACT: note_on channel=11 note=60 velocity=80 time=0.14285699999999998
EXTRACT: note_off channel=0 note=62 velocity=64 time=0
EXTRACT: note_off channel=0 note=59 velocity=64 time=0
EXTRACT: note_off channel=0 note=54 velocity=64 time=0
EXTRACT: note_on channel=0 note=64 velocity=72 time=0
EXTRACT: note_on channel=0 note=61 velocity=72 time=0
EXTRACT: note_on channel=0 note=56 velocity=72 time=0
EXTRACT: note_on channel=0 note=45 velocity=72 time=0
EXTRACT: note_off channel=6 note=67 velocity=64 time=0
EXTRACT: note_off channel=6 note=62 velocity=64 time=0
EXTRACT: note_on channel=6 note=67 velocity=80 time=0
EXTRACT: note_on channel=6 note=62 velocity=80 time=0
EXTRACT: note_off channel=4 note=43 velocity=64 time=0
EXTRACT: note_on channel=4 note=33 velocity=80 time=0
EXTRACT: note_off channel=2 note=66 velocity=64 time=0
EXTRACT: note_off channel=2 note=62 velocity=64 time=0
EXTRACT: note_off channel=2 note=59 velocity=64 time=0
EXTRACT: note_off channel=2 note=57 velocity=64 time=0
EXTRACT: note_on channel=2 note=68 velocity=80 time=0
EXTRACT: note_on channel=2 note=64 velocity=80 time=0
EXTRACT: note_on channel=2 note=61 velocity=80 time=0
EXTRACT: note_on channel=2 note=59 velocity=80 time=0
EXTRACT: note_on channel=8 note=83 velocity=80 time=0
EXTRACT: note_on channel=9 note=82 velocity=64 time=0
EXTRACT: note_off channel=9 note=42 velocity=64 time=0
EXTRACT: note_on channel=9 note=42 velocity=80 time=0
EXTRACT: note_on channel=9 note=57 velocity=80 time=0
EXTRACT: note_on channel=9 note=35 velocity=80 time=0
EXTRACT: note_off channel=11 note=60 velocity=64 time=0.14285699999999998
EXTRACT: note_on channel=11 note=60 velocity=80 time=0
EXTRACT: note_off channel=6 note=67 velocity=64 time=0
EXTRACT: note_off channel=6 note=62 velocity=64 time=0
EXTRACT: note_on channel=6 note=67 velocity=80 time=0
EXTRACT: note_on channel=6 note=62 velocity=80 time=0
EXTRACT: note_off channel=9 note=82 velocity=64 time=0
EXTRACT: note_on channel=9 note=82 velocity=64 time=0
EXTRACT: note_off channel=11 note=60 velocity=64 time=0.14285699999999998
EXTRACT: note_on channel=11 note=60 velocity=80 time=0
EXTRACT: note_off channel=6 note=67 velocity=64 time=0
EXTRACT: note_off channel=6 note=62 velocity=64 time=0
EXTRACT: note_on channel=6 note=67 velocity=80 time=0
EXTRACT: note_on channel=6 note=62 velocity=80 time=0
EXTRACT: note_off channel=9 note=82 velocity=64 time=0
EXTRACT: note_on channel=9 note=82 velocity=64 time=0
EXTRACT: note_off channel=9 note=42 velocity=64 time=0
EXTRACT: note_off channel=9 note=57 velocity=64 time=0
EXTRACT: note_off channel=9 note=35 velocity=64 time=0
EXTRACT: note_on channel=9 note=42 velocity=80 time=0
EXTRACT: note_off channel=11 note=60 velocity=64 time=0.14285699999999998
EXTRACT: note_on channel=11 note=57 velocity=80 time=0
EXTRACT: note_off channel=0 note=64 velocity=64 time=0
EXTRACT: note_off channel=0 note=61 velocity=64 time=0
EXTRACT: note_off channel=0 note=56 velocity=64 time=0
EXTRACT: note_off channel=0 note=45 velocity=64 time=0
EXTRACT: note_on channel=0 note=64 velocity=72 time=0
EXTRACT: note_on channel=0 note=61 velocity=72 time=0
EXTRACT: note_on channel=0 note=56 velocity=72 time=0
EXTRACT: note_on channel=0 note=45 velocity=72 time=0
EXTRACT: note_off channel=6 note=67 velocity=64 time=0
EXTRACT: note_off channel=6 note=62 velocity=64 time=0
EXTRACT: note_on channel=6 note=67 velocity=80 time=0
EXTRACT: note_on channel=6 note=62 velocity=80 time=0
EXTRACT: note_off channel=4 note=33 velocity=64 time=0
EXTRACT: note_on channel=4 note=40 velocity=80 time=0
EXTRACT: note_off channel=2 note=68 velocity=64 time=0
EXTRACT: note_off channel=2 note=64 velocity=64 time=0
EXTRACT: note_off channel=2 note=61 velocity=64 time=0
EXTRACT: note_off channel=2 note=59 velocity=64 time=0
EXTRACT: note_on channel=2 note=68 velocity=80 time=0
EXTRACT: note_on channel=2 note=64 velocity=80 time=0
EXTRACT: note_on channel=2 note=61 velocity=80 time=0
EXTRACT: note_on channel=2 note=59 velocity=80 time=0
EXTRACT: note_off channel=11 note=57 velocity=64 time=0.14285699999999998
EXTRACT: note_on channel=11 note=60 velocity=80 time=0
EXTRACT: note_off channel=0 note=64 velocity=64 time=0
EXTRACT: note_off channel=0 note=61 velocity=64 time=0
EXTRACT: note_off channel=0 note=56 velocity=64 time=0
EXTRACT: note_off channel=0 note=45 velocity=64 time=0
EXTRACT: note_on channel=0 note=64 velocity=72 time=0
EXTRACT: note_on channel=0 note=61 velocity=72 time=0
EXTRACT: note_on channel=0 note=56 velocity=72 time=0
EXTRACT: note_off channel=6 note=67 velocity=64 time=0
EXTRACT: note_off channel=6 note=62 velocity=64 time=0
EXTRACT: note_on channel=6 note=67 velocity=80 time=0
EXTRACT: note_on channel=6 note=62 velocity=80 time=0
EXTRACT: note_off channel=4 note=40 velocity=64 time=0
EXTRACT: note_off channel=2 note=68 velocity=64 time=0
EXTRACT: note_off channel=2 note=64 velocity=64 time=0
EXTRACT: note_off channel=2 note=61 velocity=64 time=0
EXTRACT: note_off channel=2 note=59 velocity=64 time=0
EXTRACT: note_off channel=9 note=82 velocity=64 time=0
EXTRACT: note_off channel=9 note=42 velocity=64 time=0
EXTRACT: note_on channel=9 note=42 velocity=80 time=0
EXTRACT: note_on channel=9 note=57 velocity=80 time=0
EXTRACT: note_on channel=9 note=38 velocity=80 time=0
EXTRACT: note_off channel=11 note=60 velocity=64 time=0.14285699999999998
EXTRACT: note_on channel=11 note=54 velocity=80 time=0
EXTRACT: note_off channel=0 note=64 velocity=64 time=0
EXTRACT: note_off channel=0 note=61 velocity=64 time=0
EXTRACT: note_off channel=0 note=56 velocity=64 time=0
EXTRACT: note_on channel=0 note=64 velocity=72 time=0
EXTRACT: note_on channel=0 note=61 velocity=72 time=0
EXTRACT: note_on channel=0 note=56 velocity=72 time=0
EXTRACT: note_off channel=6 note=67 velocity=64 time=0
EXTRACT: note_off channel=6 note=62 velocity=64 time=0
EXTRACT: note_on channel=6 note=67 velocity=80 time=0
EXTRACT: note_on channel=6 note=62 velocity=80 time=0
EXTRACT: note_on channel=4 note=33 velocity=80 time=0
EXTRACT: note_off channel=11 note=54 velocity=64 time=0.14285699999999998
EXTRACT: note_on channel=11 note=54 velocity=80 time=0
EXTRACT: note_off channel=0 note=64 velocity=64 time=0
EXTRACT: note_off channel=0 note=61 velocity=64 time=0
EXTRACT: note_off channel=0 note=56 velocity=64 time=0
EXTRACT: note_on channel=0 note=69 velocity=72 time=0
EXTRACT: note_on channel=0 note=64 velocity=72 time=0
EXTRACT: note_on channel=0 note=60 velocity=72 time=0
EXTRACT: note_on channel=0 note=55 velocity=72 time=0
EXTRACT: note_on channel=0 note=50 velocity=72 time=0
EXTRACT: note_off channel=6 note=67 velocity=64 time=0
EXTRACT: note_off channel=6 note=62 velocity=64 time=0
EXTRACT: note_on channel=6 note=67 velocity=80 time=0
EXTRACT: note_on channel=6 note=62 velocity=80 time=0
EXTRACT: note_off channel=4 note=33 velocity=64 time=0
EXTRACT: note_on channel=4 note=38 velocity=80 time=0
EXTRACT: note_on channel=2 note=64 velocity=80 time=0
EXTRACT: note_on channel=2 note=60 velocity=80 time=0
EXTRACT: note_on channel=2 note=59 velocity=80 time=0
EXTRACT: note_on channel=2 note=55 velocity=80 time=0
EXTRACT: note_off channel=8 note=83 velocity=64 time=0
EXTRACT: note_on channel=8 note=69 velocity=80 time=0
EXTRACT: note_off channel=9 note=42 velocity=64 time=0
EXTRACT: note_off channel=9 note=57 velocity=64 time=0
EXTRACT: note_off channel=9 note=38 velocity=64 time=0
EXTRACT: note_on channel=9 note=42 velocity=80 time=0
EXTRACT: note_on channel=9 note=35 velocity=80 time=0
EXTRACT: note_off channel=11 note=54 velocity=64 time=0.14285699999999998
EXTRACT: note_on channel=11 note=57 velocity=80 time=0
EXTRACT: note_off channel=6 note=67 velocity=64 time=0
EXTRACT: note_off channel=6 note=62 velocity=64 time=0
EXTRACT: note_on channel=6 note=67 velocity=80 time=0
EXTRACT: note_on channel=6 note=62 velocity=80 time=0
EXTRACT: note_off channel=11 note=57 velocity=64 time=0.14285699999999998
EXTRACT: note_off channel=0 note=69 velocity=64 time=0
EXTRACT: note_off channel=0 note=64 velocity=64 time=0
EXTRACT: note_off channel=0 note=60 velocity=64 time=0
EXTRACT: note_off channel=0 note=55 velocity=64 time=0
EXTRACT: note_off channel=0 note=50 velocity=64 time=0
EXTRACT: note_off channel=6 note=67 velocity=64 time=0
EXTRACT: note_off channel=6 note=62 velocity=64 time=0
EXTRACT: note_on channel=6 note=67 velocity=80 time=0
EXTRACT: note_on channel=6 note=62 velocity=80 time=0
EXTRACT: note_off channel=4 note=38 velocity=64 time=0
EXTRACT: note_off channel=2 note=64 velocity=64 time=0
EXTRACT: note_off channel=2 note=60 velocity=64 time=0
EXTRACT: note_off channel=2 note=59 velocity=64 time=0
EXTRACT: note_off channel=2 note=55 velocity=64 time=0
EXTRACT: note_off channel=8 note=69 velocity=64 time=0
EXTRACT: note_on channel=9 note=82 velocity=64 time=0
EXTRACT: note_off channel=9 note=42 velocity=64 time=0
EXTRACT: note_off channel=9 note=35 velocity=64 time=0
EXTRACT: note_on channel=9 note=42 velocity=80 time=0
EXTRACT: note_on channel=9 note=57 velocity=80 time=0
EXTRACT: note_on channel=0 note=69 velocity=72 time=0.14285699999999998
EXTRACT: note_on channel=0 note=64 velocity=72 time=0
EXTRACT: note_on channel=0 note=60 velocity=72 time=0
EXTRACT: note_off channel=6 note=67 velocity=64 time=0
EXTRACT: note_off channel=6 note=62 velocity=64 time=0
EXTRACT: note_on channel=6 note=67 velocity=80 time=0
EXTRACT: note_on channel=6 note=62 velocity=80 time=0
EXTRACT: note_on channel=2 note=64 velocity=80 time=0
EXTRACT: note_on channel=2 note=60 velocity=80 time=0
EXTRACT: note_on channel=2 note=59 velocity=80 time=0
EXTRACT: note_on channel=2 note=55 velocity=80 time=0
EXTRACT: note_off channel=9 note=82 velocity=64 time=0
EXTRACT: note_on channel=9 note=82 velocity=64 time=0
EXTRACT: note_off channel=0 note=69 velocity=64 time=0.14285699999999998
EXTRACT: note_off channel=0 note=64 velocity=64 time=0
EXTRACT: note_off channel=0 note=60 velocity=64 time=0
EXTRACT: note_on channel=0 note=64 velocity=72 time=0
EXTRACT: note_on channel=0 note=60 velocity=72 time=0
EXTRACT: note_on channel=0 note=55 velocity=72 time=0
EXTRACT: note_on channel=0 note=50 velocity=72 time=0
EXTRACT: note_off channel=6 note=67 velocity=64 time=0
EXTRACT: note_off channel=6 note=62 velocity=64 time=0
EXTRACT: note_on channel=6 note=67 velocity=80 time=0
EXTRACT: note_on channel=6 note=62 velocity=80 time=0
EXTRACT: note_on channel=4 note=45 velocity=80 time=0
EXTRACT: note_off channel=2 note=64 velocity=64 time=0
EXTRACT: note_off channel=2 note=60 velocity=64 time=0
EXTRACT: note_off channel=2 note=59 velocity=64 time=0
EXTRACT: note_off channel=2 note=55 velocity=64 time=0
EXTRACT: note_on channel=2 note=64 velocity=80 time=0
EXTRACT: note_on channel=2 note=60 velocity=80 time=0
EXTRACT: note_on channel=2 note=59 velocity=80 time=0
EXTRACT: note_on channel=2 note=55 velocity=80 time=0
EXTRACT: note_off channel=9 note=82 velocity=64 time=0
EXTRACT: note_on channel=9 note=82 velocity=64 time=0
EXTRACT: note_off channel=9 note=42 velocity=64 time=0
EXTRACT: note_off channel=9 note=57 velocity=64 time=0
EXTRACT: note_on channel=9 note=42 velocity=80 time=0
EXTRACT: note_off channel=6 note=67 velocity=64 time=0.14285699999999998
EXTRACT: note_off channel=6 note=62 velocity=64 time=0
EXTRACT: note_on channel=6 note=67 velocity=80 time=0
EXTRACT: note_on channel=6 note=62 velocity=80 time=0
EXTRACT: note_off channel=4 note=45 velocity=64 time=0
EXTRACT: note_on channel=4 note=52 velocity=80 time=0
EXTRACT: note_off channel=0 note=64 velocity=64 time=0.14285699999999998
EXTRACT: note_off channel=0 note=60 velocity=64 time=0
EXTRACT: note_off channel=0 note=55 velocity=64 time=0
EXTRACT: note_off channel=0 note=50 velocity=64 time=0
EXTRACT: note_on channel=0 note=69 velocity=72 time=0
EXTRACT: note_on channel=0 note=64 velocity=72 time=0
EXTRACT: note_on channel=0 note=60 velocity=72 time=0
EXTRACT: note_on channel=0 note=55 velocity=72 time=0
EXTRACT: note_on channel=0 note=50 velocity=72 time=0
EXTRACT: note_off channel=6 note=67 velocity=64 time=0
EXTRACT: note_off channel=6 note=62 velocity=64 time=0
EXTRACT: note_on channel=6 note=67 velocity=80 time=0
EXTRACT: note_on channel=6 note=62 velocity=80 time=0
EXTRACT: note_off channel=4 note=52 velocity=64 time=0
EXTRACT: note_off channel=2 note=64 velocity=64 time=0
EXTRACT: note_off channel=2 note=60 velocity=64 time=0
EXTRACT: note_off channel=2 note=59 velocity=64 time=0
EXTRACT: note_off channel=2 note=55 velocity=64 time=0
EXTRACT: note_on channel=2 note=64 velocity=80 time=0
EXTRACT: note_on channel=2 note=60 velocity=80 time=0
EXTRACT: note_on channel=2 note=59 velocity=80 time=0
EXTRACT: note_on channel=2 note=55 velocity=80 time=0
EXTRACT: note_off channel=9 note=82 velocity=64 time=0
EXTRACT: note_off channel=9 note=42 velocity=64 time=0
EXTRACT: note_on channel=9 note=42 velocity=80 time=0
EXTRACT: note_on channel=9 note=57 velocity=80 time=0
EXTRACT: note_on channel=9 note=38 velocity=80 time=0
EXTRACT: note_off channel=6 note=67 velocity=64 time=0.14285699999999998
EXTRACT: note_off channel=6 note=62 velocity=64 time=0
EXTRACT: note_on channel=6 note=67 velocity=80 time=0
EXTRACT: note_on channel=6 note=62 velocity=80 time=0
EXTRACT: note_on channel=4 note=50 velocity=80 time=0
EXTRACT: note_off channel=0 note=69 velocity=64 time=0.14285699999999998
EXTRACT: note_off channel=0 note=64 velocity=64 time=0
EXTRACT: note_off channel=0 note=60 velocity=64 time=0
EXTRACT: note_off channel=0 note=55 velocity=64 time=0
EXTRACT: note_off channel=0 note=50 velocity=64 time=0
EXTRACT: note_on channel=0 note=66 velocity=72 time=0
EXTRACT: note_on channel=0 note=61 velocity=72 time=0
EXTRACT: note_on channel=0 note=57 velocity=72 time=0
EXTRACT: note_off channel=6 note=67 velocity=64 time=0
EXTRACT: note_off channel=6 note=62 velocity=64 time=0
EXTRACT: note_on channel=6 note=67 velocity=80 time=0
EXTRACT: note_on channel=6 note=62 velocity=80 time=0
EXTRACT: note_off channel=9 note=42 velocity=64 time=0
EXTRACT: note_off channel=9 note=57 velocity=64 time=0
EXTRACT: note_off channel=9 note=38 velocity=64 time=0
EXTRACT: note_on channel=9 note=42 velocity=80 time=0
EXTRACT: note_on channel=9 note=35 velocity=80 time=0
EXTRACT: note_off channel=0 note=66 velocity=64 time=0.14285699999999998
EXTRACT: note_off channel=0 note=61 velocity=64 time=0
EXTRACT: note_off channel=0 note=57 velocity=64 time=0
EXTRACT: note_on channel=0 note=66 velocity=72 time=0
EXTRACT: note_on channel=0 note=61 velocity=72 time=0
EXTRACT: note_on channel=0 note=57 velocity=72 time=0
EXTRACT: note_off channel=6 note=67 velocity=64 time=0
EXTRACT: note_off channel=6 note=62 velocity=64 time=0
EXTRACT: note_on channel=6 note=67 velocity=80 time=0
EXTRACT: note_on channel=6 note=62 velocity=80 time=0
EXTRACT: note_off channel=9 note=42 velocity=64 time=0
EXTRACT: note_off channel=9 note=35 velocity=64 time=0
EXTRACT: note_on channel=9 note=38 velocity=80 time=0
EXTRACT: note_on channel=11 note=66 velocity=80 time=0.14285699999999998
EXTRACT: note_off channel=0 note=66 velocity=64 time=0
EXTRACT: note_off channel=0 note=61 velocity=64 time=0
EXTRACT: note_off channel=0 note=57 velocity=64 time=0
EXTRACT: note_on channel=0 note=66 velocity=72 time=0
EXTRACT: note_on channel=0 note=62 velocity=72 time=0
EXTRACT: note_on channel=0 note=57 velocity=72 time=0
EXTRACT: note_on channel=0 note=54 velocity=72 time=0
EXTRACT: note_on channel=0 note=47 velocity=72 time=0
EXTRACT: note_off channel=6 note=67 velocity=64 time=0
EXTRACT: note_off channel=6 note=62 velocity=64 time=0
EXTRACT: note_on channel=6 note=69 velocity=80 time=0
EXTRACT: note_on channel=6 note=64 velocity=80 time=0
EXTRACT: note_off channel=4 note=50 velocity=64 time=0
EXTRACT: note_on channel=4 note=35 velocity=80 time=0
EXTRACT: note_off channel=2 note=64 velocity=64 time=0
EXTRACT: note_off channel=2 note=60 velocity=64 time=0
EXTRACT: note_off channel=2 note=59 velocity=64 time=0
EXTRACT: note_off channel=2 note=55 velocity=64 time=0
EXTRACT: note_on channel=2 note=66 velocity=80 time=0
EXTRACT: note_on channel=2 note=62 velocity=80 time=0
EXTRACT: note_on channel=2 note=57 velocity=80 time=0
EXTRACT: note_on channel=8 note=73 velocity=72 time=0
EXTRACT: note_on channel=9 note=82 velocity=64 time=0
EXTRACT: note_off channel=9 note=38 velocity=64 time=0
EXTRACT: note_on channel=9 note=42 velocity=80 time=0
EXTRACT: note_on channel=9 note=57 velocity=80 time=0
EXTRACT: note_on channel=9 note=35 velocity=80 time=0
EXTRACT: note_off channel=6 note=69 velocity=64 time=0.14285699999999998
EXTRACT: note_off channel=6 note=64 velocity=64 time=0
EXTRACT: note_on channel=6 note=69 velocity=80 time=0
EXTRACT: note_on channel=6 note=64 velocity=80 time=0
EXTRACT: note_off channel=9 note=82 velocity=64 time=0
EXTRACT: note_on channel=9 note=82 velocity=64 time=0
EXTRACT: note_off channel=6 note=69 velocity=64 time=0.14285699999999998
EXTRACT: note_off channel=6 note=64 velocity=64 time=0
EXTRACT: note_on channel=6 note=69 velocity=80 time=0
EXTRACT: note_on channel=6 note=64 velocity=80 time=0
EXTRACT: note_off channel=4 note=35 velocity=64 time=0
EXTRACT: note_off channel=8 note=73 velocity=64 time=0
EXTRACT: note_on channel=8 note=71 velocity=72 time=0
EXTRACT: note_off channel=9 note=82 velocity=64 time=0
EXTRACT: note_on channel=9 note=82 velocity=64 time=0
EXTRACT: note_off channel=9 note=42 velocity=64 time=0
EXTRACT: note_off channel=9 note=57 velocity=64 time=0
EXTRACT: note_off channel=9 note=35 velocity=64 time=0
EXTRACT: note_on channel=9 note=42 velocity=80 time=0
EXTRACT: note_off channel=0 note=66 velocity=64 time=0.14285699999999998
EXTRACT: note_off channel=0 note=62 velocity=64 time=0
EXTRACT: note_off channel=0 note=57 velocity=64 time=0
EXTRACT: note_off channel=0 note=54 velocity=64 time=0
EXTRACT: note_off channel=0 note=47 velocity=64 time=0
EXTRACT: note_on channel=0 note=66 velocity=72 time=0
EXTRACT: note_on channel=0 note=62 velocity=72 time=0
EXTRACT: note_on channel=0 note=57 velocity=72 time=0
EXTRACT: note_on channel=0 note=54 velocity=72 time=0
EXTRACT: note_on channel=0 note=47 velocity=72 time=0
EXTRACT: note_off channel=6 note=69 velocity=64 time=0
EXTRACT: note_off channel=6 note=64 velocity=64 time=0
EXTRACT: note_on channel=6 note=69 velocity=80 time=0
EXTRACT: note_on channel=6 note=64 velocity=80 time=0
EXTRACT: note_on channel=4 note=35 velocity=80 time=0
EXTRACT: note_off channel=2 note=66 velocity=64 time=0
EXTRACT: note_off channel=2 note=62 velocity=64 time=0
EXTRACT: note_off channel=2 note=57 velocity=64 time=0
EXTRACT: note_on channel=2 note=66 velocity=80 time=0
EXTRACT: note_on channel=2 note=62 velocity=80 time=0
EXTRACT: note_on channel=2 note=57 velocity=80 time=0
EXTRACT: note_off channel=11 note=66 velocity=64 time=0.14285699999999998
EXTRACT: note_on channel=11 note=61 velocity=80 time=0
EXTRACT: note_off channel=0 note=66 velocity=64 time=0
EXTRACT: note_off channel=0 note=62 velocity=64 time=0
EXTRACT: note_off channel=0 note=57 velocity=64 time=0
EXTRACT: note_off channel=0 note=54 velocity=64 time=0
EXTRACT: note_off channel=0 note=47 velocity=64 time=0
EXTRACT: note_on channel=0 note=66 velocity=72 time=0
EXTRACT: note_on channel=0 note=62 velocity=72 time=0
EXTRACT: note_on channel=0 note=57 velocity=72 time=0
EXTRACT: note_off channel=6 note=69 velocity=64 time=0
EXTRACT: note_off channel=6 note=64 velocity=64 time=0
EXTRACT: note_on channel=6 note=69 velocity=80 time=0
EXTRACT: note_on channel=6 note=64 velocity=80 time=0
EXTRACT: note_off channel=4 note=35 velocity=64 time=0
EXTRACT: note_off channel=2 note=66 velocity=64 time=0
EXTRACT: note_off channel=2 note=62 velocity=64 time=0
EXTRACT: note_off channel=2 note=57 velocity=64 time=0
EXTRACT: note_off channel=8 note=71 velocity=64 time=0
EXTRACT: note_on channel=8 note=73 velocity=72 time=0
EXTRACT: note_off channel=9 note=82 velocity=64 time=0
EXTRACT: note_off channel=9 note=42 velocity=64 time=0
EXTRACT: note_on channel=9 note=42 velocity=80 time=0
EXTRACT: note_on channel=9 note=57 velocity=80 time=0
EXTRACT: note_on channel=9 note=38 velocity=80 time=0
EXTRACT: note_off channel=0 note=66 velocity=64 time=0.14285699999999998
EXTRACT: note_off channel=0 note=62 velocity=64 time=0
EXTRACT: note_off channel=0 note=57 velocity=64 time=0
EXTRACT: note_on channel=0 note=66 velocity=72 time=0
EXTRACT: note_on channel=0 note=62 velocity=72 time=0
EXTRACT: note_on channel=0 note=57 velocity=72 time=0
EXTRACT: note_off channel=6 note=69 velocity=64 time=0
EXTRACT: note_off channel=6 note=64 velocity=64 time=0
EXTRACT: note_on channel=6 note=69 velocity=80 time=0
EXTRACT: note_on channel=6 note=64 velocity=80 time=0
EXTRACT: note_off channel=11 note=61 velocity=64 time=0.14285699999999998
EXTRACT: note_on channel=11 note=61 velocity=80 time=0
EXTRACT: note_off channel=0 note=66 velocity=64 time=0
EXTRACT: note_off channel=0 note=62 velocity=64 time=0
EXTRACT: note_off channel=0 note=57 velocity=64 time=0
EXTRACT: note_on channel=0 note=66 velocity=72 time=0
EXTRACT: note_on channel=0 note=61 velocity=72 time=0
EXTRACT: note_on channel=0 note=57 velocity=72 time=0
EXTRACT: note_on channel=0 note=52 velocity=72 time=0
EXTRACT: note_on channel=0 note=49 velocity=72 time=0
EXTRACT: note_off channel=6 note=69 velocity=64 time=0
EXTRACT: note_off channel=6 note=64 velocity=64 time=0
EXTRACT: note_on channel=6 note=69 velocity=80 time=0
EXTRACT: note_on channel=6 note=64 velocity=80 time=0
EXTRACT: note_on channel=4 note=30 velocity=80 time=0
EXTRACT: note_on channel=2 note=69 velocity=80 time=0
EXTRACT: note_on channel=2 note=64 velocity=80 time=0
EXTRACT: note_on channel=2 note=61 velocity=80 time=0
EXTRACT: note_on channel=2 note=57 velocity=80 time=0
EXTRACT: note_off channel=8 note=73 velocity=64 time=0
EXTRACT: note_on channel=8 note=71 velocity=72 time=0
EXTRACT: note_off channel=9 note=42 velocity=64 time=0
EXTRACT: note_off channel=9 note=57 velocity=64 time=0
EXTRACT: note_off channel=9 note=38 velocity=64 time=0
EXTRACT: note_on channel=9 note=42 velocity=80 time=0
EXTRACT: note_on channel=9 note=35 velocity=80 time=0
EXTRACT: note_off channel=6 note=69 velocity=64 time=0.14285699999999998
EXTRACT: note_off channel=6 note=64 velocity=64 time=0
EXTRACT: note_on channel=6 note=69 velocity=80 time=0
EXTRACT: note_on channel=6 note=64 velocity=80 time=0
EXTRACT: note_off channel=8 note=71 velocity=64 time=0
EXTRACT: note_on channel=8 note=73 velocity=72 time=0
EXTRACT: note_off channel=11 note=61 velocity=64 time=0.14285699999999998
EXTRACT: note_off channel=0 note=66 velocity=64 time=0
EXTRACT: note_off channel=0 note=61 velocity=64 time=0
EXTRACT: note_off channel=0 note=57 velocity=64 time=0
EXTRACT: note_off channel=0 note=52 velocity=64 time=0
EXTRACT: note_off channel=0 note=49 velocity=64 time=0
EXTRACT: note_off channel=6 note=69 velocity=64 time=0
EXTRACT: note_off channel=6 note=64 velocity=64 time=0
EXTRACT: note_on channel=6 note=69 velocity=80 time=0
EXTRACT: note_on channel=6 note=64 velocity=80 time=0
EXTRACT: note_off channel=4 note=30 velocity=64 time=0
EXTRACT: note_off channel=2 note=69 velocity=64 time=0
EXTRACT: note_off channel=2 note=64 velocity=64 time=0
EXTRACT: note_off channel=2 note=61 velocity=64 time=0
EXTRACT: note_off channel=2 note=57 velocity=64 time=0
EXTRACT: note_off channel=8 note=73 velocity=64 time=0
EXTRACT: note_on channel=9 note=82 velocity=64 time=0
EXTRACT: note_off channel=9 note=42 velocity=64 time=0
EXTRACT: note_off channel=9 note=35 velocity=64 time=0
EXTRACT: note_on channel=9 note=42 velocity=80 time=0
EXTRACT: note_on channel=9 note=57 velocity=80 time=0
EXTRACT: note_on channel=0 note=66 velocity=72 time=0.14285699999999998
EXTRACT: note_on channel=0 note=61 velocity=72 time=0
EXTRACT: note_on channel=0 note=57 velocity=72 time=0
EXTRACT: note_on channel=4 note=37 velocity=80 time=0
EXTRACT: note_on channel=2 note=69 velocity=80 time=0
EXTRACT: note_on channel=2 note=64 velocity=80 time=0
EXTRACT: note_on channel=2 note=61 velocity=80 time=0
EXTRACT: note_on channel=2 note=57 velocity=80 time=0
EXTRACT: note_on channel=8 note=71 velocity=72 time=0
EXTRACT: note_off channel=9 note=82 velocity=64 time=0
EXTRACT: note_on channel=9 note=82 velocity=64 time=0
EXTRACT: note_off channel=0 note=66 velocity=64 time=0.14285699999999998
EXTRACT: note_off channel=0 note=61 velocity=64 time=0
EXTRACT: note_off channel=0 note=57 velocity=64 time=0
EXTRACT: note_on channel=0 note=61 velocity=72 time=0
EXTRACT: note_on channel=0 note=57 velocity=72 time=0
EXTRACT: note_on channel=0 note=52 velocity=72 time=0
EXTRACT: note_on channel=0 note=49 velocity=72 time=0
EXTRACT: note_off channel=6 note=69 velocity=64 time=0
EXTRACT: note_off channel=6 note=64 velocity=64 time=0
EXTRACT: note_on channel=6 note=69 velocity=80 time=0
EXTRACT: note_on channel=6 note=64 velocity=80 time=0
EXTRACT: note_off channel=4 note=37 velocity=64 time=0
EXTRACT: note_on channel=4 note=40 velocity=80 time=0
EXTRACT: note_off channel=8 note=71 velocity=64 time=0
EXTRACT: note_on channel=8 note=73 velocity=72 time=0
EXTRACT: note_off channel=9 note=82 velocity=64 time=0
EXTRACT: note_on channel=9 note=82 velocity=64 time=0
EXTRACT: note_off channel=9 note=42 velocity=64 time=0
EXTRACT: note_off channel=9 note=57 velocity=64 time=0
EXTRACT: note_on channel=9 note=42 velocity=80 time=0
EXTRACT: note_off channel=4 note=40 velocity=64 time=0.14285699999999998
EXTRACT: note_on channel=4 note=42 velocity=80 time=0
EXTRACT: note_off channel=0 note=61 velocity=64 time=0.14285699999999998
EXTRACT: note_off channel=0 note=57 velocity=64 time=0
EXTRACT: note_off channel=0 note=52 velocity=64 time=0
EXTRACT: note_off channel=0 note=49 velocity=64 time=0
EXTRACT: note_on channel=0 note=66 velocity=72 time=0
EXTRACT: note_on channel=0 note=61 velocity=72 time=0
EXTRACT: note_on channel=0 note=57 velocity=72 time=0
EXTRACT: note_on channel=0 note=52 velocity=72 time=0
EXTRACT: note_on channel=0 note=49 velocity=72 time=0
EXTRACT: note_off channel=6 note=69 velocity=64 time=0
EXTRACT: note_off channel=6 note=64 velocity=64 time=0
EXTRACT: note_on channel=6 note=69 velocity=80 time=0
EXTRACT: note_on channel=6 note=64 velocity=80 time=0
EXTRACT: note_off channel=4 note=42 velocity=64 time=0
EXTRACT: note_off channel=2 note=69 velocity=64 time=0
EXTRACT: note_off channel=2 note=64 velocity=64 time=0
EXTRACT: note_off channel=2 note=61 velocity=64 time=0
EXTRACT: note_off channel=2 note=57 velocity=64 time=0
EXTRACT: note_on channel=2 note=69 velocity=80 time=0
EXTRACT: note_on channel=2 note=64 velocity=80 time=0
EXTRACT: note_on channel=2 note=61 velocity=80 time=0
EXTRACT: note_on channel=2 note=57 velocity=80 time=0
EXTRACT: note_off channel=8 note=73 velocity=64 time=0
EXTRACT: note_on channel=8 note=71 velocity=72 time=0
EXTRACT: note_off channel=9 note=82 velocity=64 time=0
EXTRACT: note_off channel=9 note=42 velocity=64 time=0
EXTRACT: note_on channel=9 note=42 velocity=80 time=0
EXTRACT: note_on channel=9 note=57 velocity=80 time=0
EXTRACT: note_on channel=9 note=38 velocity=80 time=0
EXTRACT: note_on channel=11 note=66 velocity=80 time=0.14285699999999998
EXTRACT: note_off channel=6 note=69 velocity=64 time=0
EXTRACT: note_off channel=6 note=64 velocity=64 time=0
EXTRACT: note_on channel=6 note=69 velocity=80 time=0
EXTRACT: note_on channel=6 note=64 velocity=80 time=0
EXTRACT: note_on channel=4 note=40 velocity=80 time=0
EXTRACT: note_off channel=8 note=71 velocity=64 time=0
EXTRACT: note_on channel=8 note=73 velocity=72 time=0
EXTRACT: note_off channel=11 note=66 velocity=64 time=0.14285699999999998
EXTRACT: note_on channel=11 note=68 velocity=80 time=0
EXTRACT: note_off channel=0 note=66 velocity=64 time=0
EXTRACT: note_off channel=0 note=61 velocity=64 time=0
EXTRACT: note_off channel=0 note=57 velocity=64 time=0
EXTRACT: note_off channel=0 note=52 velocity=64 time=0
EXTRACT: note_off channel=0 note=49 velocity=64 time=0
EXTRACT: note_on channel=0 note=66 velocity=72 time=0
EXTRACT: note_on channel=0 note=61 velocity=72 time=0
EXTRACT: note_on channel=0 note=57 velocity=72 time=0
EXTRACT: note_off channel=6 note=69 velocity=64 time=0
EXTRACT: note_off channel=6 note=64 velocity=64 time=0
EXTRACT: note_on channel=6 note=69 velocity=80 time=0
EXTRACT: note_on channel=6 note=64 velocity=80 time=0
EXTRACT: note_off channel=4 note=40 velocity=64 time=0
EXTRACT: note_on channel=4 note=37 velocity=80 time=0
EXTRACT: note_off channel=9 note=42 velocity=64 time=0
EXTRACT: note_off channel=9 note=57 velocity=64 time=0
EXTRACT: note_off channel=9 note=38 velocity=64 time=0
EXTRACT: note_on channel=9 note=42 velocity=80 time=0
EXTRACT: note_off channel=0 note=66 velocity=64 time=0.14285699999999998
EXTRACT: note_off channel=0 note=61 velocity=64 time=0
EXTRACT: note_off channel=0 note=57 velocity=64 time=0
EXTRACT: note_on channel=0 note=66 velocity=72 time=0
EXTRACT: note_on channel=0 note=61 velocity=72 time=0
EXTRACT: note_on channel=0 note=57 velocity=72 time=0
EXTRACT: note_off channel=6 note=69 velocity=64 time=0
EXTRACT: note_off channel=6 note=64 velocity=64 time=0
EXTRACT: note_on channel=6 note=69 velocity=80 time=0
EXTRACT: note_on channel=6 note=64 velocity=80 time=0
EXTRACT: note_off channel=4 note=37 velocity=64 time=0
EXTRACT: note_on channel=4 note=30 velocity=80 time=0
EXTRACT: note_off channel=8 note=73 velocity=64 time=0
EXTRACT: note_on channel=8 note=71 velocity=72 time=0
EXTRACT: note_off channel=11 note=68 velocity=64 time=0.14285699999999998
EXTRACT: note_on channel=11 note=66 velocity=80 time=0
EXTRACT: note_off channel=0 note=66 velocity=64 time=0
EXTRACT: note_off channel=0 note=61 velocity=64 time=0
EXTRACT: note_off channel=0 note=57 velocity=64 time=0
EXTRACT: note_on channel=0 note=66 velocity=72 time=0
EXTRACT: note_on channel=0 note=62 velocity=72 time=0
EXTRACT: note_on channel=0 note=57 velocity=72 time=0
EXTRACT: note_on channel=0 note=54 velocity=72 time=0
EXTRACT: note_on channel=0 note=47 velocity=72 time=0
EXTRACT: note_off channel=6 note=69 velocity=64 time=0
EXTRACT: note_off channel=6 note=64 velocity=64 time=0
EXTRACT: note_on channel=6 note=69 velocity=80 time=0
EXTRACT: note_on channel=6 note=64 velocity=80 time=0
EXTRACT: note_off channel=4 note=30 velocity=64 time=0
EXTRACT: note_on channel=4 note=35 velocity=80 time=0
EXTRACT: note_off channel=2 note=69 velocity=64 time=0
EXTRACT: note_off channel=2 note=64 velocity=64 time=0
EXTRACT: note_off channel=2 note=61 velocity=64 time=0
EXTRACT: note_off channel=2 note=57 velocity=64 time=0
EXTRACT: note_on channel=2 note=66 velocity=80 time=0
EXTRACT: note_on channel=2 note=62 velocity=80 time=0
EXTRACT: note_on channel=2 note=57 velocity=80 time=0
EXTRACT: note_off channel=8 note=71 velocity=64 time=0
EXTRACT: note_on channel=8 note=73 velocity=72 time=0
EXTRACT: note_on channel=9 note=82 velocity=64 time=0
EXTRACT: note_off channel=9 note=42 velocity=64 time=0
EXTRACT: note_on channel=9 note=42 velocity=80 time=0
EXTRACT: note_on channel=9 note=57 velocity=80 time=0
EXTRACT: note_on channel=9 note=35 velocity=80 time=0
EXTRACT: note_off channel=6 note=69 velocity=64 time=0.14285699999999998
EXTRACT: note_off channel=6 note=64 velocity=64 time=0
EXTRACT: note_on channel=6 note=69 velocity=80 time=0
EXTRACT: note_on channel=6 note=64 velocity=80 time=0
EXTRACT: note_off channel=9 note=82 velocity=64 time=0
EXTRACT: note_on channel=9 note=82 velocity=64 time=0
EXTRACT: note_off channel=11 note=66 velocity=64 time=0.14285699999999998
EXTRACT: note_on channel=11 note=64 velocity=80 time=0
EXTRACT: note_off channel=6 note=69 velocity=64 time=0
EXTRACT: note_off channel=6 note=64 velocity=64 time=0
EXTRACT: note_on channel=6 note=69 velocity=80 time=0
EXTRACT: note_on channel=6 note=64 velocity=80 time=0
EXTRACT: note_off channel=4 note=35 velocity=64 time=0
EXTRACT: note_off channel=8 note=73 velocity=64 time=0
EXTRACT: note_on channel=8 note=71 velocity=72 time=0
EXTRACT: note_off channel=9 note=82 velocity=64 time=0
EXTRACT: note_on channel=9 note=82 velocity=64 time=0
EXTRACT: note_off channel=9 note=42 velocity=64 time=0
EXTRACT: note_off channel=9 note=57 velocity=64 time=0
EXTRACT: note_off channel=9 note=35 velocity=64 time=0
EXTRACT: note_on channel=9 note=42 velocity=80 time=0
EXTRACT: note_off channel=0 note=66 velocity=64 time=0.14285699999999998
EXTRACT: note_off channel=0 note=62 velocity=64 time=0
EXTRACT: note_off channel=0 note=57 velocity=64 time=0
EXTRACT: note_off channel=0 note=54 velocity=64 time=0
EXTRACT: note_off channel=0 note=47 velocity=64 time=0
EXTRACT: note_on channel=0 note=66 velocity=72 time=0
EXTRACT: note_on channel=0 note=62 velocity=72 time=0
EXTRACT: note_on channel=0 note=57 velocity=72 time=0
EXTRACT: note_on channel=0 note=54 velocity=72 time=0
EXTRACT: note_on channel=0 note=47 velocity=72 time=0
EXTRACT: note_off channel=6 note=69 velocity=64 time=0
EXTRACT: note_off channel=6 note=64 velocity=64 time=0
EXTRACT: note_on channel=6 note=69 velocity=80 time=0
EXTRACT: note_on channel=6 note=64 velocity=80 time=0
EXTRACT: note_on channel=4 note=35 velocity=80 time=0
EXTRACT: note_off channel=2 note=66 velocity=64 time=0
EXTRACT: note_off channel=2 note=62 velocity=64 time=0
EXTRACT: note_off channel=2 note=57 velocity=64 time=0
EXTRACT: note_on channel=2 note=66 velocity=80 time=0
EXTRACT: note_on channel=2 note=62 velocity=80 time=0
EXTRACT: note_on channel=2 note=57 velocity=80 time=0
EXTRACT: note_off channel=11 note=64 velocity=64 time=0.14285699999999998
EXTRACT: note_on channel=11 note=61 velocity=80 time=0
EXTRACT: note_off channel=0 note=66 velocity=64 time=0
EXTRACT: note_off channel=0 note=62 velocity=64 time=0
EXTRACT: note_off channel=0 note=57 velocity=64 time=0
EXTRACT: note_off channel=0 note=54 velocity=64 time=0
EXTRACT: note_off channel=0 note=47 velocity=64 time=0
EXTRACT: note_on channel=0 note=66 velocity=72 time=0
EXTRACT: note_on channel=0 note=62 velocity=72 time=0
EXTRACT: note_on channel=0 note=57 velocity=72 time=0
EXTRACT: note_off channel=6 note=69 velocity=64 time=0
EXTRACT: note_off channel=6 note=64 velocity=64 time=0
EXTRACT: note_on channel=6 note=69 velocity=80 time=0
EXTRACT: note_on channel=6 note=64 velocity=80 time=0
EXTRACT: note_off channel=4 note=35 velocity=64 time=0
EXTRACT: note_off channel=2 note=66 velocity=64 time=0
EXTRACT: note_off channel=2 note=62 velocity=64 time=0
EXTRACT: note_off channel=2 note=57 velocity=64 time=0
EXTRACT: note_off channel=8 note=71 velocity=64 time=0
EXTRACT: note_on channel=8 note=74 velocity=80 time=0
EXTRACT: note_off channel=9 note=82 velocity=64 time=0
EXTRACT: note_off channel=9 note=42 velocity=64 time=0
EXTRACT: note_on channel=9 note=42 velocity=80 time=0
EXTRACT: note_on channel=9 note=57 velocity=80 time=0
EXTRACT: note_on channel=9 note=38 velocity=80 time=0
EXTRACT: note_off channel=0 note=66 velocity=64 time=0.14285699999999998
EXTRACT: note_off channel=0 note=62 velocity=64 time=0
EXTRACT: note_off channel=0 note=57 velocity=64 time=0
EXTRACT: note_on channel=0 note=66 velocity=72 time=0
EXTRACT: note_on channel=0 note=62 velocity=72 time=0
EXTRACT: note_on channel=0 note=57 velocity=72 time=0
EXTRACT: note_off channel=6 note=69 velocity=64 time=0
EXTRACT: note_off channel=6 note=64 velocity=64 time=0
EXTRACT: note_on channel=6 note=69 velocity=80 time=0
EXTRACT: note_on channel=6 note=64 velocity=80 time=0
EXTRACT: note_off channel=11 note=61 velocity=64 time=0.14285699999999998
EXTRACT: note_on channel=11 note=59 velocity=80 time=0
EXTRACT: note_off channel=0 note=66 velocity=64 time=0
EXTRACT: note_off channel=0 note=62 velocity=64 time=0
EXTRACT: note_off channel=0 note=57 velocity=64 time=0
EXTRACT: note_on channel=0 note=66 velocity=72 time=0
EXTRACT: note_on channel=0 note=61 velocity=72 time=0
EXTRACT: note_on channel=0 note=57 velocity=72 time=0
EXTRACT: note_on channel=0 note=52 velocity=72 time=0
EXTRACT: note_on channel=0 note=49 velocity=72 time=0
EXTRACT: note_off channel=6 note=69 velocity=64 time=0
EXTRACT: note_off channel=6 note=64 velocity=64 time=0
EXTRACT: note_on channel=6 note=69 velocity=80 time=0
EXTRACT: note_on channel=6 note=64 velocity=80 time=0
EXTRACT: note_on channel=4 note=30 velocity=80 time=0
EXTRACT: note_on channel=2 note=69 velocity=80 time=0
EXTRACT: note_on channel=2 note=64 velocity=80 time=0
EXTRACT: note_on channel=2 note=61 velocity=80 time=0
EXTRACT: note_on channel=2 note=57 velocity=80 time=0
EXTRACT: note_off channel=8 note=74 velocity=64 time=0
EXTRACT: note_on channel=8 note=73 velocity=80 time=0
EXTRACT: note_off channel=9 note=42 velocity=64 time=0
EXTRACT: note_off channel=9 note=57 velocity=64 time=0
EXTRACT: note_off channel=9 note=38 velocity=64 time=0
EXTRACT: note_on channel=9 note=42 velocity=80 time=0
EXTRACT: note_on channel=9 note=35 velocity=80 time=0
EXTRACT: note_off channel=11 note=59 velocity=64 time=0.14285699999999998
EXTRACT: note_on channel=11 note=61 velocity=80 time=0
EXTRACT: note_off channel=6 note=69 velocity=64 time=0
EXTRACT: note_off channel=6 note=64 velocity=64 time=0
EXTRACT: note_on channel=6 note=69 velocity=80 time=0
EXTRACT: note_on channel=6 note=64 velocity=80 time=0
EXTRACT: note_off channel=11 note=61 velocity=64 time=0.14285699999999998
EXTRACT: note_off channel=0 note=66 velocity=64 time=0
EXTRACT: note_off channel=0 note=61 velocity=64 time=0
EXTRACT: note_off channel=0 note=57 velocity=64 time=0
EXTRACT: note_off channel=0 note=52 velocity=64 time=0
EXTRACT: note_off channel=0 note=49 velocity=64 time=0
EXTRACT: note_off channel=6 note=69 velocity=64 time=0
EXTRACT: note_off channel=6 note=64 velocity=64 time=0
EXTRACT: note_on channel=6 note=69 velocity=80 time=0
EXTRACT: note_on channel=6 note=64 velocity=80 time=0
EXTRACT: note_off channel=4 note=30 velocity=64 time=0
EXTRACT: note_off channel=2 note=69 velocity=64 time=0
EXTRACT: note_off channel=2 note=64 velocity=64 time=0
EXTRACT: note_off channel=2 note=61 velocity=64 time=0
EXTRACT: note_off channel=2 note=57 velocity=64 time=0
EXTRACT: note_off channel=8 note=73 velocity=64 time=0
EXTRACT: note_on channel=9 note=82 velocity=64 time=0
EXTRACT: note_off channel=9 note=42 velocity=64 time=0
EXTRACT: note_off channel=9 note=35 velocity=64 time=0
EXTRACT: note_on channel=9 note=42 velocity=80 time=0
EXTRACT: note_on channel=9 note=57 velocity=80 time=0
EXTRACT: note_on channel=0 note=66 velocity=72 time=0.14285699999999998
EXTRACT: note_on channel=0 note=61 velocity=72 time=0
EXTRACT: note_on channel=0 note=57 velocity=72 time=0
EXTRACT: note_off channel=9 note=82 velocity=64 time=0
EXTRACT: note_on channel=9 note=82 velocity=64 time=0
EXTRACT: note_off channel=0 note=66 velocity=64 time=0.14285699999999998
EXTRACT: note_off channel=0 note=61 velocity=64 time=0
EXTRACT: note_off channel=0 note=57 velocity=64 time=0
EXTRACT: note_on channel=0 note=61 velocity=72 time=0
EXTRACT: note_on channel=0 note=57 velocity=72 time=0
EXTRACT: note_on channel=0 note=52 velocity=72 time=0
EXTRACT: note_on channel=0 note=49 velocity=72 time=0
EXTRACT: note_off channel=6 note=69 velocity=64 time=0
EXTRACT: note_off channel=6 note=64 velocity=64 time=0
EXTRACT: note_on channel=6 note=69 velocity=80 time=0
EXTRACT: note_on channel=6 note=64 velocity=80 time=0
EXTRACT: note_on channel=8 note=71 velocity=80 time=0
EXTRACT: note_off channel=9 note=82 velocity=64 time=0
EXTRACT: note_on channel=9 note=82 velocity=64 time=0
EXTRACT: note_off channel=9 note=42 velocity=64 time=0
EXTRACT: note_off channel=9 note=57 velocity=64 time=0
EXTRACT: note_on channel=9 note=42 velocity=80 time=0
EXTRACT: note_off channel=0 note=61 velocity=64 time=0.28571399999999997
EXTRACT: note_off channel=0 note=57 velocity=64 time=0
EXTRACT: note_off channel=0 note=52 velocity=64 time=0
EXTRACT: note_off channel=0 note=49 velocity=64 time=0
EXTRACT: note_on channel=0 note=66 velocity=72 time=0
EXTRACT: note_on channel=0 note=61 velocity=72 time=0
EXTRACT: note_on channel=0 note=57 velocity=72 time=0
EXTRACT: note_on channel=0 note=52 velocity=72 time=0
EXTRACT: note_on channel=0 note=49 velocity=72 time=0
EXTRACT: note_off channel=6 note=69 velocity=64 time=0
EXTRACT: note_off channel=6 note=64 velocity=64 time=0
EXTRACT: note_on channel=6 note=69 velocity=80 time=0
EXTRACT: note_on channel=6 note=64 velocity=80 time=0
EXTRACT: note_on channel=2 note=64 velocity=80 time=0
EXTRACT: note_on channel=2 note=61 velocity=80 time=0
EXTRACT: note_on channel=2 note=57 velocity=80 time=0
EXTRACT: note_off channel=8 note=71 velocity=64 time=0
EXTRACT: note_on channel=8 note=73 velocity=80 time=0
EXTRACT: note_off channel=9 note=82 velocity=64 time=0
EXTRACT: note_off channel=9 note=42 velocity=64 time=0
EXTRACT: note_on channel=9 note=42 velocity=80 time=0
EXTRACT: note_on channel=9 note=57 velocity=80 time=0
EXTRACT: note_on channel=9 note=38 velocity=80 time=0
EXTRACT: note_off channel=6 note=69 velocity=64 time=0.14285699999999998
EXTRACT: note_off channel=6 note=64 velocity=64 time=0
EXTRACT: note_on channel=6 note=69 velocity=80 time=0
EXTRACT: note_on channel=6 note=64 velocity=80 time=0
EXTRACT: note_off channel=0 note=66 velocity=64 time=0.14285699999999998
EXTRACT: note_off channel=0 note=61 velocity=64 time=0
EXTRACT: note_off channel=0 note=57 velocity=64 time=0
EXTRACT: note_off channel=0 note=52 velocity=64 time=0
EXTRACT: note_off channel=0 note=49 velocity=64 time=0
EXTRACT: note_on channel=0 note=66 velocity=72 time=0
EXTRACT: note_on channel=0 note=61 velocity=72 time=0
EXTRACT: note_on channel=0 note=57 velocity=72 time=0
EXTRACT: note_off channel=6 note=69 velocity=64 time=0
EXTRACT: note_off channel=6 note=64 velocity=64 time=0
EXTRACT: note_on channel=6 note=69 velocity=80 time=0
EXTRACT: note_on channel=6 note=64 velocity=80 time=0
EXTRACT: note_on channel=4 note=33 velocity=80 time=0
EXTRACT: note_off channel=8 note=73 velocity=64 time=0
EXTRACT: note_on channel=8 note=71 velocity=80 time=0
EXTRACT: note_off channel=9 note=42 velocity=64 time=0
EXTRACT: note_off channel=9 note=57 velocity=64 time=0
EXTRACT: note_off channel=9 note=38 velocity=64 time=0
EXTRACT: note_on channel=9 note=42 velocity=80 time=0
EXTRACT: note_off channel=0 note=66 velocity=64 time=0.14285699999999998
EXTRACT: note_off channel=0 note=61 velocity=64 time=0
EXTRACT: note_off channel=0 note=57 velocity=64 time=0
EXTRACT: note_on channel=0 note=66 velocity=72 time=0
EXTRACT: note_on channel=0 note=61 velocity=72 time=0
EXTRACT: note_on channel=0 note=57 velocity=72 time=0
EXTRACT: note_off channel=6 note=69 velocity=64 time=0
EXTRACT: note_off channel=6 note=64 velocity=64 time=0
EXTRACT: note_on channel=6 note=69 velocity=80 time=0
EXTRACT: note_on channel=6 note=64 velocity=80 time=0
EXTRACT: note_off channel=4 note=33 velocity=64 time=0
EXTRACT: note_on channel=4 note=30 velocity=80 time=0
EXTRACT: note_on channel=11 note=60 velocity=80 time=0.14285699999999998
EXTRACT: note_off channel=0 note=66 velocity=64 time=0
EXTRACT: note_off channel=0 note=61 velocity=64 time=0
EXTRACT: note_off channel=0 note=57 velocity=64 time=0
EXTRACT: note_on channel=0 note=60 velocity=72 time=0
EXTRACT: note_on channel=0 note=57 velocity=72 time=0
EXTRACT: note_on channel=0 note=52 velocity=72 time=0
EXTRACT: note_on channel=0 note=41 velocity=72 time=0
EXTRACT: note_off channel=6 note=69 velocity=64 time=0
EXTRACT: note_off channel=6 note=64 velocity=64 time=0
EXTRACT: note_on channel=6 note=67 velocity=80 time=0
EXTRACT: note_on channel=6 note=62 velocity=80 time=0
EXTRACT: note_off channel=4 note=30 velocity=64 time=0
EXTRACT: note_on channel=4 note=29 velocity=80 time=0
EXTRACT: note_off channel=2 note=64 velocity=64 time=0
EXTRACT: note_off channel=2 note=61 velocity=64 time=0
EXTRACT: note_off channel=2 note=57 velocity=64 time=0
EXTRACT: note_on channel=2 note=64 velocity=80 time=0
EXTRACT: note_on channel=2 note=60 velocity=80 time=0
EXTRACT: note_on channel=2 note=57 velocity=80 time=0
EXTRACT: note_on channel=2 note=55 velocity=80 time=0
EXTRACT: note_off channel=8 note=71 velocity=64 time=0
EXTRACT: note_on channel=8 note=69 velocity=80 time=0
EXTRACT: note_on channel=9 note=82 velocity=64 time=0
EXTRACT: note_off channel=9 note=42 velocity=64 time=0
EXTRACT: note_on channel=9 note=42 velocity=80 time=0
EXTRACT: note_on channel=9 note=57 velocity=80 time=0
EXTRACT: note_on channel=9 note=35 velocity=80 time=0
EXTRACT: note_off channel=6 note=67 velocity=64 time=0.14285699999999998
EXTRACT: note_off channel=6 note=62 velocity=64 time=0
EXTRACT: note_on channel=6 note=67 velocity=80 time=0
EXTRACT: note_on channel=6 note=62 velocity=80 time=0
EXTRACT: note_off channel=9 note=82 velocity=64 time=0
EXTRACT: note_on channel=9 note=82 velocity=64 time=0
EXTRACT: note_off channel=6 note=67 velocity=64 time=0.14285699999999998
EXTRACT: note_off channel=6 note=62 velocity=64 time=0
EXTRACT: note_on channel=6 note=67 velocity=80 time=0
EXTRACT: note_on channel=6 note=62 velocity=80 time=0
EXTRACT: note_off channel=9 note=82 velocity=64 time=0
EXTRACT: note_on channel=9 note=82 velocity=64 time=0
EXTRACT: note_off channel=9 note=42 velocity=64 time=0
EXTRACT: note_off channel=9 note=57 velocity=64 time=0
EXTRACT: note_off channel=9 note=35 velocity=64 time=0
EXTRACT: note_on channel=9 note=42 velocity=80 time=0
EXTRACT: note_off channel=0 note=60 velocity=64 time=0.14285699999999998
EXTRACT: note_off channel=0 note=57 velocity=64 time=0
EXTRACT: note_off channel=0 note=52 velocity=64 time=0
EXTRACT: note_off channel=0 note=41 velocity=64 time=0
EXTRACT: note_on channel=0 note=60 velocity=72 time=0
EXTRACT: note_on channel=0 note=57 velocity=72 time=0
EXTRACT: note_on channel=0 note=52 velocity=72 time=0
EXTRACT: note_on channel=0 note=41 velocity=72 time=0
EXTRACT: note_off channel=6 note=67 velocity=64 time=0
EXTRACT: note_off channel=6 note=62 velocity=64 time=0
EXTRACT: note_on channel=6 note=67 velocity=80 time=0
EXTRACT: note_on channel=6 note=62 velocity=80 time=0
EXTRACT: note_off channel=4 note=29 velocity=64 time=0
EXTRACT: note_on channel=4 note=29 velocity=80 time=0
EXTRACT: note_off channel=2 note=64 velocity=64 time=0
EXTRACT: note_off channel=2 note=60 velocity=64 time=0
EXTRACT: note_off channel=2 note=57 velocity=64 time=0
EXTRACT: note_off channel=2 note=55 velocity=64 time=0
EXTRACT: note_on channel=2 note=64 velocity=80 time=0
EXTRACT: note_on channel=2 note=60 velocity=80 time=0
EXTRACT: note_on channel=2 note=57 velocity=80 time=0
EXTRACT: note_on channel=2 note=55 velocity=80 time=0
EXTRACT: note_off channel=11 note=60 velocity=64 time=0.14285699999999998
EXTRACT: note_on channel=11 note=60 velocity=80 time=0
EXTRACT: note_off channel=0 note=60 velocity=64 time=0
EXTRACT: note_off channel=0 note=57 velocity=64 time=0
EXTRACT: note_off channel=0 note=52 velocity=64 time=0
EXTRACT: note_off channel=0 note=41 velocity=64 time=0
EXTRACT: note_on channel=0 note=60 velocity=72 time=0
EXTRACT: note_on channel=0 note=57 velocity=72 time=0
EXTRACT: note_on channel=0 note=52 velocity=72 time=0
EXTRACT: note_off channel=6 note=67 velocity=64 time=0
EXTRACT: note_off channel=6 note=62 velocity=64 time=0
EXTRACT: note_on channel=6 note=67 velocity=80 time=0
EXTRACT: note_on channel=6 note=62 velocity=80 time=0
EXTRACT: note_off channel=4 note=29 velocity=64 time=0
EXTRACT: note_off channel=2 note=64 velocity=64 time=0
EXTRACT: note_off channel=2 note=60 velocity=64 time=0
EXTRACT: note_off channel=2 note=57 velocity=64 time=0
EXTRACT: note_off channel=2 note=55 velocity=64 time=0
EXTRACT: note_off channel=9 note=82 velocity=64 time=0
EXTRACT: note_off channel=9 note=42 velocity=64 time=0
EXTRACT: note_on channel=9 note=42 velocity=80 time=0
EXTRACT: note_on channel=9 note=57 velocity=80 time=0
EXTRACT: note_on channel=9 note=38 velocity=80 time=0
EXTRACT: note_off channel=0 note=60 velocity=64 time=0.14285699999999998
EXTRACT: note_off channel=0 note=57 velocity=64 time=0
EXTRACT: note_off channel=0 note=52 velocity=64 time=0
EXTRACT: note_on channel=0 note=60 velocity=72 time=0
EXTRACT: note_on channel=0 note=57 velocity=72 time=0
EXTRACT: note_on channel=0 note=52 velocity=72 time=0
EXTRACT: note_off channel=6 note=67 velocity=64 time=0
EXTRACT: note_off channel=6 note=62 velocity=64 time=0
EXTRACT: note_on channel=6 note=67 velocity=80 time=0
EXTRACT: note_on channel=6 note=62 velocity=80 time=0
EXTRACT: note_on channel=4 note=29 velocity=80 time=0
EXTRACT: note_off channel=0 note=60 velocity=64 time=0.14285699999999998
EXTRACT: note_off channel=0 note=57 velocity=64 time=0
EXTRACT: note_off channel=0 note=52 velocity=64 time=0
EXTRACT: note_on channel=0 note=62 velocity=72 time=0
EXTRACT: note_on channel=0 note=59 velocity=72 time=0
EXTRACT: note_on channel=0 note=54 velocity=72 time=0
EXTRACT: note_on channel=0 note=43 velocity=72 time=0
EXTRACT: note_off channel=6 note=67 velocity=64 time=0
EXTRACT: note_off channel=6 note=62 velocity=64 time=0
EXTRACT: note_on channel=6 note=67 velocity=80 time=0
EXTRACT: note_on channel=6 note=62 velocity=80 time=0
EXTRACT: note_off channel=4 note=29 velocity=64 time=0
EXTRACT: note_on channel=4 note=31 velocity=80 time=0
EXTRACT: note_on channel=2 note=66 velocity=80 time=0
EXTRACT: note_on channel=2 note=62 velocity=80 time=0
EXTRACT: note_on channel=2 note=59 velocity=80 time=0
EXTRACT: note_on channel=2 note=57 velocity=80 time=0
EXTRACT: note_off channel=8 note=69 velocity=64 time=0
EXTRACT: note_on channel=8 note=67 velocity=80 time=0
EXTRACT: note_off channel=9 note=42 velocity=64 time=0
EXTRACT: note_off channel=9 note=57 velocity=64 time=0
EXTRACT: note_off channel=9 note=38 velocity=64 time=0
EXTRACT: note_on channel=9 note=42 velocity=80 time=0
EXTRACT: note_on channel=9 note=35 velocity=80 time=0
EXTRACT: note_off channel=6 note=67 velocity=64 time=0.14285699999999998
EXTRACT: note_off channel=6 note=62 velocity=64 time=0
EXTRACT: note_on channel=6 note=67 velocity=80 time=0
EXTRACT: note_on channel=6 note=62 velocity=80 time=0
EXTRACT: note_off channel=11 note=60 velocity=64 time=0.14285699999999998
EXTRACT: note_on channel=11 note=60 velocity=80 time=0
EXTRACT: note_off channel=0 note=62 velocity=64 time=0
EXTRACT: note_off channel=0 note=59 velocity=64 time=0
EXTRACT: note_off channel=0 note=54 velocity=64 time=0
EXTRACT: note_off channel=0 note=43 velocity=64 time=0
EXTRACT: note_off channel=6 note=67 velocity=64 time=0
EXTRACT: note_off channel=6 note=62 velocity=64 time=0
EXTRACT: note_on channel=6 note=67 velocity=80 time=0
EXTRACT: note_on channel=6 note=62 velocity=80 time=0
EXTRACT: note_off channel=4 note=31 velocity=64 time=0
EXTRACT: note_off channel=2 note=66 velocity=64 time=0
EXTRACT: note_off channel=2 note=62 velocity=64 time=0
EXTRACT: note_off channel=2 note=59 velocity=64 time=0
EXTRACT: note_off channel=2 note=57 velocity=64 time=0
EXTRACT: note_off channel=8 note=67 velocity=64 time=0
EXTRACT: note_on channel=9 note=82 velocity=64 time=0
EXTRACT: note_off channel=9 note=42 velocity=64 time=0
EXTRACT: note_off channel=9 note=35 velocity=64 time=0
EXTRACT: note_on channel=9 note=42 velocity=80 time=0
EXTRACT: note_on channel=9 note=57 velocity=80 time=0
EXTRACT: note_on channel=0 note=62 velocity=72 time=0.14285699999999998
EXTRACT: note_on channel=0 note=59 velocity=72 time=0
EXTRACT: note_on channel=0 note=54 velocity=72 time=0
EXTRACT: note_off channel=6 note=67 velocity=64 time=0
EXTRACT: note_off channel=6 note=62 velocity=64 time=0
EXTRACT: note_on channel=6 note=67 velocity=80 time=0
EXTRACT: note_on channel=6 note=62 velocity=80 time=0
EXTRACT: note_on channel=2 note=66 velocity=80 time=0
EXTRACT: note_on channel=2 note=62 velocity=80 time=0
EXTRACT: note_on channel=2 note=59 velocity=80 time=0
EXTRACT: note_on channel=2 note=57 velocity=80 time=0
EXTRACT: note_off channel=9 note=82 velocity=64 time=0
EXTRACT: note_on channel=9 note=82 velocity=64 time=0
EXTRACT: note_off channel=0 note=62 velocity=64 time=0.14285699999999998
EXTRACT: note_off channel=0 note=59 velocity=64 time=0
EXTRACT: note_off channel=0 note=54 velocity=64 time=0
EXTRACT: note_on channel=0 note=62 velocity=72 time=0
EXTRACT: note_on channel=0 note=59 velocity=72 time=0
EXTRACT: note_on channel=0 note=54 velocity=72 time=0
EXTRACT: note_on channel=0 note=43 velocity=72 time=0
EXTRACT: note_off channel=6 note=67 velocity=64 time=0
EXTRACT: note_off channel=6 note=62 velocity=64 time=0
EXTRACT: note_on channel=6 note=67 velocity=80 time=0
EXTRACT: note_on channel=6 note=62 velocity=80 time=0
EXTRACT: note_on channel=4 note=38 velocity=80 time=0
EXTRACT: note_off channel=9 note=82 velocity=64 time=0
EXTRACT: note_on channel=9 note=82 velocity=64 time=0
EXTRACT: note_off channel=9 note=42 velocity=64 time=0
EXTRACT: note_off channel=9 note=57 velocity=64 time=0
EXTRACT: note_on channel=9 note=42 velocity=80 time=0
EXTRACT: note_off channel=6 note=67 velocity=64 time=0.14285699999999998
EXTRACT: note_off channel=6 note=62 velocity=64 time=0
EXTRACT: note_on channel=6 note=67 velocity=80 time=0
EXTRACT: note_on channel=6 note=62 velocity=80 time=0
EXTRACT: note_off channel=11 note=60 velocity=64 time=0.14285699999999998
EXTRACT: note_on channel=11 note=57 velocity=80 time=0
EXTRACT: note_off channel=0 note=62 velocity=64 time=0
EXTRACT: note_off channel=0 note=59 velocity=64 time=0
EXTRACT: note_off channel=0 note=54 velocity=64 time=0
EXTRACT: note_off channel=0 note=43 velocity=64 time=0
EXTRACT: note_on channel=0 note=62 velocity=72 time=0
EXTRACT: note_on channel=0 note=59 velocity=72 time=0
EXTRACT: note_on channel=0 note=54 velocity=72 time=0
EXTRACT: note_on channel=0 note=43 velocity=72 time=0
EXTRACT: note_off channel=6 note=67 velocity=64 time=0
EXTRACT: note_off channel=6 note=62 velocity=64 time=0
EXTRACT: note_on channel=6 note=67 velocity=80 time=0
EXTRACT: note_on channel=6 note=62 velocity=80 time=0
EXTRACT: note_off channel=4 note=38 velocity=64 time=0
EXTRACT: note_on channel=4 note=43 velocity=80 time=0
EXTRACT: note_off channel=2 note=66 velocity=64 time=0
EXTRACT: note_off channel=2 note=62 velocity=64 time=0
EXTRACT: note_off channel=2 note=59 velocity=64 time=0
EXTRACT: note_off channel=2 note=57 velocity=64 time=0
EXTRACT: note_on channel=2 note=66 velocity=80 time=0
EXTRACT: note_on channel=2 note=62 velocity=80 time=0
EXTRACT: note_on channel=2 note=59 velocity=80 time=0
EXTRACT: note_on channel=2 note=57 velocity=80 time=0
EXTRACT: note_off channel=9 note=82 velocity=64 time=0
EXTRACT: note_off channel=9 note=42 velocity=64 time=0
EXTRACT: note_on channel=9 note=42 velocity=80 time=0
EXTRACT: note_on channel=9 note=57 velocity=80 time=0
EXTRACT: note_on channel=9 note=38 velocity=80 time=0
EXTRACT: note_off channel=6 note=67 velocity=64 time=0.14285699999999998
EXTRACT: note_off channel=6 note=62 velocity=64 time=0
EXTRACT: note_on channel=6 note=67 velocity=80 time=0
EXTRACT: note_on channel=6 note=62 velocity=80 time=0
EXTRACT: note_off channel=4 note=43 velocity=64 time=0
EXTRACT: note_on channel=4 note=38 velocity=80 time=0
EXTRACT: note_off channel=0 note=62 velocity=64 time=0.14285699999999998
EXTRACT: note_off channel=0 note=59 velocity=64 time=0
EXTRACT: note_off channel=0 note=54 velocity=64 time=0
EXTRACT: note_off channel=0 note=43 velocity=64 time=0
EXTRACT: note_on channel=0 note=62 velocity=72 time=0
EXTRACT: note_on channel=0 note=59 velocity=72 time=0
EXTRACT: note_on channel=0 note=54 velocity=72 time=0
EXTRACT: note_off channel=6 note=67 velocity=64 time=0
EXTRACT: note_off channel=6 note=62 velocity=64 time=0
EXTRACT: note_on channel=6 note=67 velocity=80 time=0
EXTRACT: note_on channel=6 note=62 velocity=80 time=0
EXTRACT: note_off channel=4 note=38 velocity=64 time=0
EXTRACT: note_on channel=4 note=31 velocity=80 time=0
EXTRACT: note_off channel=9 note=42 velocity=64 time=0
EXTRACT: note_off channel=9 note=57 velocity=64 time=0
EXTRACT: note_off channel=9 note=38 velocity=64 time=0
EXTRACT: note_on channel=9 note=42 velocity=80 time=0
EXTRACT: note_off channel=0 note=62 velocity=64 time=0.14285699999999998
EXTRACT: note_off channel=0 note=59 velocity=64 time=0
EXTRACT: note_off channel=0 note=54 velocity=64 time=0
EXTRACT: note_on channel=0 note=62 velocity=72 time=0
EXTRACT: note_on channel=0 note=59 velocity=72 time=0
EXTRACT: note_on channel=0 note=54 velocity=72 time=0
EXTRACT: note_off channel=6 note=67 velocity=64 time=0
EXTRACT: note_off channel=6 note=62 velocity=64 time=0
EXTRACT: note_on channel=6 note=67 velocity=80 time=0
EXTRACT: note_on channel=6 note=62 velocity=80 time=0
EXTRACT: note_off channel=4 note=31 velocity=64 time=0
EXTRACT: note_on channel=4 note=32 velocity=80 time=0
EXTRACT: note_off channel=11 note=57 velocity=64 time=0.14285699999999998
EXTRACT: note_on channel=11 note=60 velocity=80 time=0
EXTRACT: note_off channel=0 note=62 velocity=64 time=0
EXTRACT: note_off channel=0 note=59 velocity=64 time=0
EXTRACT: note_off channel=0 note=54 velocity=64 time=0
EXTRACT: note_on channel=0 note=64 velocity=72 time=0
EXTRACT: note_on channel=0 note=61 velocity=72 time=0
EXTRACT: note_on channel=0 note=56 velocity=72 time=0
EXTRACT: note_on channel=0 note=45 velocity=72 time=0
EXTRACT: note_off channel=6 note=67 velocity=64 time=0
EXTRACT: note_off channel=6 note=62 velocity=64 time=0
EXTRACT: note_on channel=6 note=67 velocity=80 time=0
EXTRACT: note_on channel=6 note=62 velocity=80 time=0
EXTRACT: note_off channel=4 note=32 velocity=64 time=0
EXTRACT: note_on channel=4 note=33 velocity=80 time=0
EXTRACT: note_off channel=2 note=66 velocity=64 time=0
EXTRACT: note_off channel=2 note=62 velocity=64 time=0
EXTRACT: note_off channel=2 note=59 velocity=64 time=0
EXTRACT: note_off channel=2 note=57 velocity=64 time=0
EXTRACT: note_on channel=2 note=68 velocity=80 time=0
EXTRACT: note_on channel=2 note=64 velocity=80 time=0
EXTRACT: note_on channel=2 note=61 velocity=80 time=0
EXTRACT: note_on channel=2 note=59 velocity=80 time=0
EXTRACT: note_on channel=8 note=68 velocity=80 time=0
EXTRACT: note_on channel=9 note=82 velocity=64 time=0
EXTRACT: note_off channel=9 note=42 velocity=64 time=0
EXTRACT: note_on channel=9 note=42 velocity=80 time=0
EXTRACT: note_on channel=9 note=57 velocity=80 time=0
EXTRACT: note_on channel=9 note=35 velocity=80 time=0
EXTRACT: note_off channel=6 note=67 velocity=64 time=0.14285699999999998
EXTRACT: note_off channel=6 note=62 velocity=64 time=0
EXTRACT: note_on channel=6 note=67 velocity=80 time=0
EXTRACT: note_on channel=6 note=62 velocity=80 time=0
EXTRACT: note_off channel=9 note=82 velocity=64 time=0
EXTRACT: note_on channel=9 note=82 velocity=64 time=0
EXTRACT: note_off channel=6 note=67 velocity=64 time=0.14285699999999998
EXTRACT: note_off channel=6 note=62 velocity=64 time=0
EXTRACT: note_on channel=6 note=67 velocity=80 time=0
EXTRACT: note_on channel=6 note=62 velocity=80 time=0
EXTRACT: note_off channel=9 note=82 velocity=64 time=0
EXTRACT: note_on channel=9 note=82 velocity=64 time=0
EXTRACT: note_off channel=9 note=42 velocity=64 time=0
EXTRACT: note_off channel=9 note=57 velocity=64 time=0
EXTRACT: note_off channel=9 note=35 velocity=64 time=0
EXTRACT: note_on channel=9 note=42 velocity=80 time=0
EXTRACT: note_off channel=0 note=64 velocity=64 time=0.14285699999999998
EXTRACT: note_off channel=0 note=61 velocity=64 time=0
EXTRACT: note_off channel=0 note=56 velocity=64 time=0
EXTRACT: note_off channel=0 note=45 velocity=64 time=0
EXTRACT: note_on channel=0 note=64 velocity=72 time=0
EXTRACT: note_on channel=0 note=61 velocity=72 time=0
EXTRACT: note_on channel=0 note=56 velocity=72 time=0
EXTRACT: note_on channel=0 note=45 velocity=72 time=0
EXTRACT: note_off channel=6 note=67 velocity=64 time=0
EXTRACT: note_off channel=6 note=62 velocity=64 time=0
EXTRACT: note_on channel=6 note=67 velocity=80 time=0
EXTRACT: note_on channel=6 note=62 velocity=80 time=0
EXTRACT: note_off channel=4 note=33 velocity=64 time=0
EXTRACT: note_on channel=4 note=40 velocity=80 time=0
EXTRACT: note_off channel=2 note=68 velocity=64 time=0
EXTRACT: note_off channel=2 note=64 velocity=64 time=0
EXTRACT: note_off channel=2 note=61 velocity=64 time=0
EXTRACT: note_off channel=2 note=59 velocity=64 time=0
EXTRACT: note_on channel=2 note=68 velocity=80 time=0
EXTRACT: note_on channel=2 note=64 velocity=80 time=0
EXTRACT: note_on channel=2 note=61 velocity=80 time=0
EXTRACT: note_on channel=2 note=59 velocity=80 time=0
EXTRACT: note_off channel=11 note=60 velocity=64 time=0.14285699999999998
EXTRACT: note_on channel=11 note=62 velocity=80 time=0
EXTRACT: note_off channel=0 note=64 velocity=64 time=0
EXTRACT: note_off channel=0 note=61 velocity=64 time=0
EXTRACT: note_off channel=0 note=56 velocity=64 time=0
EXTRACT: note_off channel=0 note=45 velocity=64 time=0
EXTRACT: note_on channel=0 note=64 velocity=72 time=0
EXTRACT: note_on channel=0 note=61 velocity=72 time=0
EXTRACT: note_on channel=0 note=56 velocity=72 time=0
EXTRACT: note_off channel=6 note=67 velocity=64 time=0
EXTRACT: note_off channel=6 note=62 velocity=64 time=0
EXTRACT: note_on channel=6 note=67 velocity=80 time=0
EXTRACT: note_on channel=6 note=62 velocity=80 time=0
EXTRACT: note_off channel=4 note=40 velocity=64 time=0
EXTRACT: note_off channel=2 note=68 velocity=64 time=0
EXTRACT: note_off channel=2 note=64 velocity=64 time=0
EXTRACT: note_off channel=2 note=61 velocity=64 time=0
EXTRACT: note_off channel=2 note=59 velocity=64 time=0
EXTRACT: note_off channel=9 note=82 velocity=64 time=0
EXTRACT: note_off channel=9 note=42 velocity=64 time=0
EXTRACT: note_on channel=9 note=42 velocity=80 time=0
EXTRACT: note_on channel=9 note=57 velocity=80 time=0
EXTRACT: note_on channel=9 note=38 velocity=80 time=0
EXTRACT: note_off channel=0 note=64 velocity=64 time=0.14285699999999998
EXTRACT: note_off channel=0 note=61 velocity=64 time=0
EXTRACT: note_off channel=0 note=56 velocity=64 time=0
EXTRACT: note_on channel=0 note=64 velocity=72 time=0
EXTRACT: note_on channel=0 note=61 velocity=72 time=0
EXTRACT: note_on channel=0 note=56 velocity=72 time=0
EXTRACT: note_off channel=6 note=67 velocity=64 time=0
EXTRACT: note_off channel=6 note=62 velocity=64 time=0
EXTRACT: note_on channel=6 note=67 velocity=80 time=0
EXTRACT: note_on channel=6 note=62 velocity=80 time=0
EXTRACT: note_on channel=4 note=33 velocity=80 time=0
EXTRACT: note_off channel=0 note=64 velocity=64 time=0.14285699999999998
EXTRACT: note_off channel=0 note=61 velocity=64 time=0
EXTRACT: note_off channel=0 note=56 velocity=64 time=0
EXTRACT: note_on channel=0 note=69 velocity=72 time=0
EXTRACT: note_on channel=0 note=64 velocity=72 time=0
EXTRACT: note_on channel=0 note=60 velocity=72 time=0
EXTRACT: note_on channel=0 note=55 velocity=72 time=0
EXTRACT: note_on channel=0 note=50 velocity=72 time=0
EXTRACT: note_off channel=6 note=67 velocity=64 time=0
EXTRACT: note_off channel=6 note=62 velocity=64 time=0
EXTRACT: note_on channel=6 note=67 velocity=80 time=0
EXTRACT: note_on channel=6 note=62 velocity=80 time=0
EXTRACT: note_off channel=4 note=33 velocity=64 time=0
EXTRACT: note_on channel=4 note=38 velocity=80 time=0
EXTRACT: note_on channel=2 note=64 velocity=80 time=0
EXTRACT: note_on channel=2 note=60 velocity=80 time=0
EXTRACT: note_on channel=2 note=59 velocity=80 time=0
EXTRACT: note_on channel=2 note=55 velocity=80 time=0
EXTRACT: note_off channel=8 note=68 velocity=64 time=0
EXTRACT: note_on channel=8 note=69 velocity=80 time=0
EXTRACT: note_off channel=9 note=42 velocity=64 time=0
EXTRACT: note_off channel=9 note=57 velocity=64 time=0
EXTRACT: note_off channel=9 note=38 velocity=64 time=0
EXTRACT: note_on channel=9 note=42 velocity=80 time=0
EXTRACT: note_on channel=9 note=35 velocity=80 time=0
EXTRACT: note_off channel=6 note=67 velocity=64 time=0.14285699999999998
EXTRACT: note_off channel=6 note=62 velocity=64 time=0
EXTRACT: note_on channel=6 note=67 velocity=80 time=0
EXTRACT: note_on channel=6 note=62 velocity=80 time=0
EXTRACT: note_off channel=11 note=62 velocity=64 time=0.14285699999999998
EXTRACT: note_on channel=11 note=57 velocity=80 time=0
EXTRACT: note_off channel=0 note=69 velocity=64 time=0
EXTRACT: note_off channel=0 note=64 velocity=64 time=0
EXTRACT: note_off channel=0 note=60 velocity=64 time=0
EXTRACT: note_off channel=0 note=55 velocity=64 time=0
EXTRACT: note_off channel=0 note=50 velocity=64 time=0
EXTRACT: note_off channel=6 note=67 velocity=64 time=0
EXTRACT: note_off channel=6 note=62 velocity=64 time=0
EXTRACT: note_on channel=6 note=67 velocity=80 time=0
EXTRACT: note_on channel=6 note=62 velocity=80 time=0
EXTRACT: note_off channel=4 note=38 velocity=64 time=0
EXTRACT: note_off channel=2 note=64 velocity=64 time=0
EXTRACT: note_off channel=2 note=60 velocity=64 time=0
EXTRACT: note_off channel=2 note=59 velocity=64 time=0
EXTRACT: note_off channel=2 note=55 velocity=64 time=0
EXTRACT: note_off channel=8 note=69 velocity=64 time=0
EXTRACT: note_on channel=9 note=82 velocity=64 time=0
EXTRACT: note_off channel=9 note=42 velocity=64 time=0
EXTRACT: note_off channel=9 note=35 velocity=64 time=0
EXTRACT: note_on channel=9 note=42 velocity=80 time=0
EXTRACT: note_on channel=9 note=57 velocity=80 time=0
EXTRACT: note_off channel=11 note=57 velocity=64 time=0.14285699999999998
EXTRACT: note_on channel=11 note=55 velocity=80 time=0
EXTRACT: note_on channel=0 note=69 velocity=72 time=0
EXTRACT: note_on channel=0 note=64 velocity=72 time=0
EXTRACT: note_on channel=0 note=60 velocity=72 time=0
EXTRACT: note_off channel=6 note=67 velocity=64 time=0
EXTRACT: note_off channel=6 note=62 velocity=64 time=0
EXTRACT: note_on channel=6 note=67 velocity=80 time=0
EXTRACT: note_on channel=6 note=62 velocity=80 time=0
EXTRACT: note_off channel=9 note=82 velocity=64 time=0
EXTRACT: note_on channel=9 note=82 velocity=64 time=0
EXTRACT: note_off channel=0 note=69 velocity=64 time=0.14285699999999998
EXTRACT: note_off channel=0 note=64 velocity=64 time=0
EXTRACT: note_off channel=0 note=60 velocity=64 time=0
EXTRACT: note_on channel=0 note=64 velocity=72 time=0
EXTRACT: note_on channel=0 note=60 velocity=72 time=0
EXTRACT: note_on channel=0 note=55 velocity=72 time=0
EXTRACT: note_on channel=0 note=50 velocity=72 time=0
EXTRACT: note_off channel=6 note=67 velocity=64 time=0
EXTRACT: note_off channel=6 note=62 velocity=64 time=0
EXTRACT: note_on channel=6 note=67 velocity=80 time=0
EXTRACT: note_on channel=6 note=62 velocity=80 time=0
EXTRACT: note_on channel=2 note=64 velocity=80 time=0
EXTRACT: note_on channel=2 note=60 velocity=80 time=0
EXTRACT: note_on channel=2 note=59 velocity=80 time=0
EXTRACT: note_on channel=2 note=55 velocity=80 time=0
EXTRACT: note_off channel=9 note=82 velocity=64 time=0
EXTRACT: note_on channel=9 note=82 velocity=64 time=0
EXTRACT: note_off channel=9 note=42 velocity=64 time=0
EXTRACT: note_off channel=9 note=57 velocity=64 time=0
EXTRACT: note_on channel=9 note=42 velocity=80 time=0
EXTRACT: note_off channel=6 note=67 velocity=64 time=0.14285699999999998
EXTRACT: note_off channel=6 note=62 velocity=64 time=0
EXTRACT: note_on channel=6 note=67 velocity=80 time=0
EXTRACT: note_on channel=6 note=62 velocity=80 time=0
EXTRACT: note_on channel=4 note=33 velocity=80 time=0
EXTRACT: note_off channel=11 note=55 velocity=64 time=0.14285699999999998
EXTRACT: note_on channel=11 note=55 velocity=80 time=0
EXTRACT: note_off channel=0 note=64 velocity=64 time=0
EXTRACT: note_off channel=0 note=60 velocity=64 time=0
EXTRACT: note_off channel=0 note=55 velocity=64 time=0
EXTRACT: note_off channel=0 note=50 velocity=64 time=0
EXTRACT: note_on channel=0 note=69 velocity=72 time=0
EXTRACT: note_on channel=0 note=64 velocity=72 time=0
EXTRACT: note_on channel=0 note=60 velocity=72 time=0
EXTRACT: note_on channel=0 note=55 velocity=72 time=0
EXTRACT: note_on channel=0 note=50 velocity=72 time=0
EXTRACT: note_off channel=6 note=67 velocity=64 time=0
EXTRACT: note_off channel=6 note=62 velocity=64 time=0
EXTRACT: note_on channel=6 note=67 velocity=80 time=0
EXTRACT: note_on channel=6 note=62 velocity=80 time=0
EXTRACT: note_off channel=4 note=33 velocity=64 time=0
EXTRACT: note_on channel=4 note=38 velocity=80 time=0
EXTRACT: note_off channel=2 note=64 velocity=64 time=0
EXTRACT: note_off channel=2 note=60 velocity=64 time=0
EXTRACT: note_off channel=2 note=59 velocity=64 time=0
EXTRACT: note_off channel=2 note=55 velocity=64 time=0
EXTRACT: note_on channel=2 note=64 velocity=80 time=0
EXTRACT: note_on channel=2 note=60 velocity=80 time=0
EXTRACT: note_on channel=2 note=59 velocity=80 time=0
EXTRACT: note_on channel=2 note=55 velocity=80 time=0
EXTRACT: note_off channel=9 note=82 velocity=64 time=0
EXTRACT: note_off channel=9 note=42 velocity=64 time=0
EXTRACT: note_on channel=9 note=42 velocity=80 time=0
EXTRACT: note_on channel=9 note=57 velocity=80 time=0
EXTRACT: note_on channel=9 note=38 velocity=80 time=0
EXTRACT: note_off channel=6 note=67 velocity=64 time=0.14285699999999998
EXTRACT: note_off channel=6 note=62 velocity=64 time=0
EXTRACT: note_on channel=6 note=67 velocity=80 time=0
EXTRACT: note_on channel=6 note=62 velocity=80 time=0
EXTRACT: note_off channel=4 note=38 velocity=64 time=0
EXTRACT: note_on channel=4 note=33 velocity=80 time=0
EXTRACT: note_off channel=0 note=69 velocity=64 time=0.14285699999999998
EXTRACT: note_off channel=0 note=64 velocity=64 time=0
EXTRACT: note_off channel=0 note=60 velocity=64 time=0
EXTRACT: note_off channel=0 note=55 velocity=64 time=0
EXTRACT: note_off channel=0 note=50 velocity=64 time=0
EXTRACT: note_on channel=0 note=66 velocity=72 time=0
EXTRACT: note_on channel=0 note=61 velocity=72 time=0
EXTRACT: note_on channel=0 note=57 velocity=72 time=0
EXTRACT: note_off channel=6 note=67 velocity=64 time=0
EXTRACT: note_off channel=6 note=62 velocity=64 time=0
EXTRACT: note_on channel=6 note=67 velocity=80 time=0
EXTRACT: note_on channel=6 note=62 velocity=80 time=0
EXTRACT: note_off channel=4 note=33 velocity=64 time=0
EXTRACT: note_on channel=4 note=37 velocity=80 time=0
EXTRACT: note_off channel=9 note=42 velocity=64 time=0
EXTRACT: note_off channel=9 note=57 velocity=64 time=0
EXTRACT: note_off channel=9 note=38 velocity=64 time=0
EXTRACT: note_on channel=9 note=42 velocity=80 time=0
EXTRACT: note_on channel=9 note=35 velocity=80 time=0
EXTRACT: note_off channel=0 note=66 velocity=64 time=0.14285699999999998
EXTRACT: note_off channel=0 note=61 velocity=64 time=0
EXTRACT: note_off channel=0 note=57 velocity=64 time=0
EXTRACT: note_on channel=0 note=66 velocity=72 time=0
EXTRACT: note_on channel=0 note=61 velocity=72 time=0
EXTRACT: note_on channel=0 note=57 velocity=72 time=0
EXTRACT: note_off channel=6 note=67 velocity=64 time=0
EXTRACT: note_off channel=6 note=62 velocity=64 time=0
EXTRACT: note_on channel=6 note=67 velocity=80 time=0
EXTRACT: note_on channel=6 note=62 velocity=80 time=0
EXTRACT: note_off channel=9 note=42 velocity=64 time=0
EXTRACT: note_off channel=9 note=35 velocity=64 time=0
EXTRACT: note_on channel=9 note=38 velocity=80 time=0
EXTRACT: note_off channel=11 note=55 velocity=64 time=0.14285699999999998
EXTRACT: note_on channel=11 note=57 velocity=80 time=0
EXTRACT: note_off channel=0 note=66 velocity=64 time=0
EXTRACT: note_off channel=0 note=61 velocity=64 time=0
EXTRACT: note_off channel=0 note=57 velocity=64 time=0
EXTRACT: note_on channel=0 note=66 velocity=72 time=0
EXTRACT: note_on channel=0 note=62 velocity=72 time=0
EXTRACT: note_on channel=0 note=57 velocity=72 time=0
EXTRACT: note_on channel=0 note=54 velocity=72 time=0
EXTRACT: note_on channel=0 note=47 velocity=72 time=0
EXTRACT: note_off channel=6 note=67 velocity=64 time=0
EXTRACT: note_off channel=6 note=62 velocity=64 time=0
EXTRACT: note_on channel=6 note=69 velocity=80 time=0
EXTRACT: note_on channel=6 note=64 velocity=80 time=0
EXTRACT: note_off channel=4 note=37 velocity=64 time=0
EXTRACT: note_on channel=4 note=35 velocity=80 time=0
EXTRACT: note_off channel=2 note=64 velocity=64 time=0
EXTRACT: note_off channel=2 note=60 velocity=64 time=0
EXTRACT: note_off channel=2 note=59 velocity=64 time=0
EXTRACT: note_off channel=2 note=55 velocity=64 time=0
EXTRACT: note_on channel=2 note=66 velocity=80 time=0
EXTRACT: note_on channel=2 note=62 velocity=80 time=0
EXTRACT: note_on channel=2 note=57 velocity=80 time=0
EXTRACT: note_on channel=9 note=82 velocity=64 time=0
EXTRACT: note_off channel=9 note=38 velocity=64 time=0
EXTRACT: note_on channel=9 note=49 velocity=80 time=0
EXTRACT: note_on channel=9 note=57 velocity=80 time=0
EXTRACT: note_on channel=9 note=35 velocity=80 time=0
EXTRACT: note_off channel=6 note=69 velocity=64 time=0.14285699999999998
EXTRACT: note_off channel=6 note=64 velocity=64 time=0
EXTRACT: note_on channel=6 note=69 velocity=80 time=0
EXTRACT: note_on channel=6 note=64 velocity=80 time=0
EXTRACT: note_off channel=9 note=82 velocity=64 time=0
EXTRACT: note_on channel=9 note=82 velocity=64 time=0
EXTRACT: note_off channel=11 note=57 velocity=64 time=0.14285699999999998
EXTRACT: note_off channel=6 note=69 velocity=64 time=0
EXTRACT: note_off channel=6 note=64 velocity=64 time=0
EXTRACT: note_on channel=6 note=69 velocity=80 time=0
EXTRACT: note_on channel=6 note=64 velocity=80 time=0
EXTRACT: note_off channel=4 note=35 velocity=64 time=0
EXTRACT: note_off channel=9 note=82 velocity=64 time=0
EXTRACT: note_on channel=9 note=82 velocity=64 time=0
EXTRACT: note_off channel=9 note=49 velocity=64 time=0
EXTRACT: note_off channel=9 note=57 velocity=64 time=0
EXTRACT: note_off channel=9 note=35 velocity=64 time=0
EXTRACT: note_on channel=9 note=42 velocity=80 time=0
EXTRACT: note_off channel=0 note=66 velocity=64 time=0.14285699999999998
EXTRACT: note_off channel=0 note=62 velocity=64 time=0
EXTRACT: note_off channel=0 note=57 velocity=64 time=0
EXTRACT: note_off channel=0 note=54 velocity=64 time=0
EXTRACT: note_off channel=0 note=47 velocity=64 time=0
EXTRACT: note_on channel=0 note=66 velocity=72 time=0
EXTRACT: note_on channel=0 note=62 velocity=72 time=0
EXTRACT: note_on channel=0 note=57 velocity=72 time=0
EXTRACT: note_on channel=0 note=54 velocity=72 time=0
EXTRACT: note_on channel=0 note=47 velocity=72 time=0
EXTRACT: note_off channel=6 note=69 velocity=64 time=0
EXTRACT: note_off channel=6 note=64 velocity=64 time=0
EXTRACT: note_on channel=6 note=69 velocity=80 time=0
EXTRACT: note_on channel=6 note=64 velocity=80 time=0
EXTRACT: note_on channel=4 note=35 velocity=80 time=0
EXTRACT: note_off channel=2 note=66 velocity=64 time=0
EXTRACT: note_off channel=2 note=62 velocity=64 time=0
EXTRACT: note_off channel=2 note=57 velocity=64 time=0
EXTRACT: note_on channel=2 note=66 velocity=80 time=0
EXTRACT: note_on channel=2 note=62 velocity=80 time=0
EXTRACT: note_on channel=2 note=57 velocity=80 time=0
EXTRACT: note_off channel=0 note=66 velocity=64 time=0.14285699999999998
EXTRACT: note_off channel=0 note=62 velocity=64 time=0
EXTRACT: note_off channel=0 note=57 velocity=64 time=0
EXTRACT: note_off channel=0 note=54 velocity=64 time=0
EXTRACT: note_off channel=0 note=47 velocity=64 time=0
EXTRACT: note_on channel=0 note=66 velocity=72 time=0
EXTRACT: note_on channel=0 note=62 velocity=72 time=0
EXTRACT: note_on channel=0 note=57 velocity=72 time=0
EXTRACT: note_off channel=6 note=69 velocity=64 time=0
EXTRACT: note_off channel=6 note=64 velocity=64 time=0
EXTRACT: note_on channel=6 note=69 velocity=80 time=0
EXTRACT: note_on channel=6 note=64 velocity=80 time=0
EXTRACT: note_off channel=4 note=35 velocity=64 time=0
EXTRACT: note_off channel=2 note=66 velocity=64 time=0
EXTRACT: note_off channel=2 note=62 velocity=64 time=0
EXTRACT: note_off channel=2 note=57 velocity=64 time=0
EXTRACT: note_off channel=9 note=82 velocity=64 time=0
EXTRACT: note_off channel=9 note=42 velocity=64 time=0
EXTRACT: note_on channel=9 note=42 velocity=80 time=0
EXTRACT: note_on channel=9 note=57 velocity=80 time=0
EXTRACT: note_on channel=9 note=38 velocity=80 time=0
EXTRACT: note_off channel=0 note=66 velocity=64 time=0.14285699999999998
EXTRACT: note_off channel=0 note=62 velocity=64 time=0
EXTRACT: note_off channel=0 note=57 velocity=64 time=0
EXTRACT: note_on channel=0 note=66 velocity=72 time=0
EXTRACT: note_on channel=0 note=62 velocity=72 time=0
EXTRACT: note_on channel=0 note=57 velocity=72 time=0
EXTRACT: note_off channel=6 note=69 velocity=64 time=0
EXTRACT: note_off channel=6 note=64 velocity=64 time=0
EXTRACT: note_on channel=6 note=69 velocity=80 time=0
EXTRACT: note_on channel=6 note=64 velocity=80 time=0
EXTRACT: note_off channel=0 note=66 velocity=64 time=0.14285699999999998
EXTRACT: note_off channel=0 note=62 velocity=64 time=0
EXTRACT: note_off channel=0 note=57 velocity=64 time=0
EXTRACT: note_on channel=0 note=66 velocity=72 time=0
EXTRACT: note_on channel=0 note=61 velocity=72 time=0
EXTRACT: note_on channel=0 note=57 velocity=72 time=0
EXTRACT: note_on channel=0 note=52 velocity=72 time=0
EXTRACT: note_on channel=0 note=49 velocity=72 time=0
EXTRACT: note_off channel=6 note=69 velocity=64 time=0
EXTRACT: note_off channel=6 note=64 velocity=64 time=0
EXTRACT: note_on channel=6 note=69 velocity=80 time=0
EXTRACT: note_on channel=6 note=64 velocity=80 time=0
EXTRACT: note_on channel=4 note=30 velocity=80 time=0
EXTRACT: note_on channel=2 note=69 velocity=80 time=0
EXTRACT: note_on channel=2 note=64 velocity=80 time=0
EXTRACT: note_on channel=2 note=61 velocity=80 time=0
EXTRACT: note_on channel=2 note=57 velocity=80 time=0
EXTRACT: note_off channel=9 note=42 velocity=64 time=0
EXTRACT: note_off channel=9 note=57 velocity=64 time=0
EXTRACT: note_off channel=9 note=38 velocity=64 time=0
EXTRACT: note_on channel=9 note=42 velocity=80 time=0
EXTRACT: note_on channel=9 note=35 velocity=80 time=0
EXTRACT: note_on channel=11 note=57 velocity=80 time=0.14285699999999998
EXTRACT: note_off channel=6 note=69 velocity=64 time=0
EXTRACT: note_off channel=6 note=64 velocity=64 time=0
EXTRACT: note_on channel=6 note=69 velocity=80 time=0
EXTRACT: note_on channel=6 note=64 velocity=80 time=0
EXTRACT: note_off channel=11 note=57 velocity=64 time=0.14285699999999998
EXTRACT: note_on channel=11 note=59 velocity=80 time=0
EXTRACT: note_off channel=0 note=66 velocity=64 time=0
EXTRACT: note_off channel=0 note=61 velocity=64 time=0
EXTRACT: note_off channel=0 note=57 velocity=64 time=0
EXTRACT: note_off channel=0 note=52 velocity=64 time=0
EXTRACT: note_off channel=0 note=49 velocity=64 time=0
EXTRACT: note_off channel=6 note=69 velocity=64 time=0
EXTRACT: note_off channel=6 note=64 velocity=64 time=0
EXTRACT: note_on channel=6 note=69 velocity=80 time=0
EXTRACT: note_on channel=6 note=64 velocity=80 time=0
EXTRACT: note_off channel=4 note=30 velocity=64 time=0
EXTRACT: note_off channel=2 note=69 velocity=64 time=0
EXTRACT: note_off channel=2 note=64 velocity=64 time=0
EXTRACT: note_off channel=2 note=61 velocity=64 time=0
EXTRACT: note_off channel=2 note=57 velocity=64 time=0
EXTRACT: note_on channel=9 note=82 velocity=64 time=0
EXTRACT: note_off channel=9 note=42 velocity=64 time=0
EXTRACT: note_off channel=9 note=35 velocity=64 time=0
EXTRACT: note_on channel=9 note=42 velocity=80 time=0
EXTRACT: note_on channel=9 note=57 velocity=80 time=0
EXTRACT: note_off channel=11 note=59 velocity=64 time=0.14285699999999998
EXTRACT: note_on channel=11 note=57 velocity=80 time=0
EXTRACT: note_on channel=0 note=66 velocity=72 time=0
EXTRACT: note_on channel=0 note=61 velocity=72 time=0
EXTRACT: note_on channel=0 note=57 velocity=72 time=0
EXTRACT: note_off channel=9 note=82 velocity=64 time=0
EXTRACT: note_on channel=9 note=82 velocity=64 time=0
EXTRACT: note_off channel=0 note=66 velocity=64 time=0.14285699999999998
EXTRACT: note_off channel=0 note=61 velocity=64 time=0
EXTRACT: note_off channel=0 note=57 velocity=64 time=0
EXTRACT: note_on channel=0 note=61 velocity=72 time=0
EXTRACT: note_on channel=0 note=57 velocity=72 time=0
EXTRACT: note_on channel=0 note=52 velocity=72 time=0
EXTRACT: note_on channel=0 note=49 velocity=72 time=0
EXTRACT: note_off channel=6 note=69 velocity=64 time=0
EXTRACT: note_off channel=6 note=64 velocity=64 time=0
EXTRACT: note_on channel=6 note=69 velocity=80 time=0
EXTRACT: note_on channel=6 note=64 velocity=80 time=0
EXTRACT: note_off channel=9 note=82 velocity=64 time=0
EXTRACT: note_on channel=9 note=82 velocity=64 time=0
EXTRACT: note_off channel=9 note=42 velocity=64 time=0
EXTRACT: note_off channel=9 note=57 velocity=64 time=0
EXTRACT: note_on channel=9 note=42 velocity=80 time=0
EXTRACT: note_off channel=11 note=57 velocity=64 time=0.14285699999999998
EXTRACT: note_on channel=11 note=59 velocity=80 time=0
EXTRACT: note_off channel=11 note=59 velocity=64 time=0.14285699999999998
EXTRACT: note_off channel=0 note=61 velocity=64 time=0
EXTRACT: note_off channel=0 note=57 velocity=64 time=0
EXTRACT: note_off channel=0 note=52 velocity=64 time=0
EXTRACT: note_off channel=0 note=49 velocity=64 time=0
EXTRACT: note_on channel=0 note=66 velocity=72 time=0
EXTRACT: note_on channel=0 note=61 velocity=72 time=0
EXTRACT: note_on channel=0 note=57 velocity=72 time=0
EXTRACT: note_on channel=0 note=52 velocity=72 time=0
EXTRACT: note_on channel=0 note=49 velocity=72 time=0
EXTRACT: note_off channel=6 note=69 velocity=64 time=0
EXTRACT: note_off channel=6 note=64 velocity=64 time=0
EXTRACT: note_on channel=6 note=69 velocity=80 time=0
EXTRACT: note_on channel=6 note=64 velocity=80 time=0
EXTRACT: note_on channel=4 note=37 velocity=80 time=0
EXTRACT: note_on channel=2 note=69 velocity=80 time=0
EXTRACT: note_on channel=2 note=64 velocity=80 time=0
EXTRACT: note_on channel=2 note=61 velocity=80 time=0
EXTRACT: note_on channel=2 note=57 velocity=80 time=0
EXTRACT: note_off channel=9 note=82 velocity=64 time=0
EXTRACT: note_off channel=9 note=42 velocity=64 time=0
EXTRACT: note_on channel=9 note=42 velocity=80 time=0
EXTRACT: note_on channel=9 note=57 velocity=80 time=0
EXTRACT: note_on channel=9 note=38 velocity=80 time=0
EXTRACT: note_on channel=11 note=59 velocity=80 time=0.14285699999999998
EXTRACT: note_off channel=6 note=69 velocity=64 time=0
EXTRACT: note_off channel=6 note=64 velocity=64 time=0
EXTRACT: note_on channel=6 note=69 velocity=80 time=0
EXTRACT: note_on channel=6 note=64 velocity=80 time=0
EXTRACT: note_off channel=4 note=37 velocity=64 time=0
EXTRACT: note_on channel=4 note=42 velocity=80 time=0
EXTRACT: note_off channel=11 note=59 velocity=64 time=0.14285699999999998
EXTRACT: note_on channel=11 note=61 velocity=80 time=0
EXTRACT: note_off channel=0 note=66 velocity=64 time=0
EXTRACT: note_off channel=0 note=61 velocity=64 time=0
EXTRACT: note_off channel=0 note=57 velocity=64 time=0
EXTRACT: note_off channel=0 note=52 velocity=64 time=0
EXTRACT: note_off channel=0 note=49 velocity=64 time=0
EXTRACT: note_on channel=0 note=66 velocity=72 time=0
EXTRACT: note_on channel=0 note=61 velocity=72 time=0
EXTRACT: note_on channel=0 note=57 velocity=72 time=0
EXTRACT: note_off channel=6 note=69 velocity=64 time=0
EXTRACT: note_off channel=6 note=64 velocity=64 time=0
EXTRACT: note_on channel=6 note=69 velocity=80 time=0
EXTRACT: note_on channel=6 note=64 velocity=80 time=0
EXTRACT: note_off channel=4 note=42 velocity=64 time=0
EXTRACT: note_off channel=9 note=42 velocity=64 time=0
EXTRACT: note_off channel=9 note=57 velocity=64 time=0
EXTRACT: note_off channel=9 note=38 velocity=64 time=0
EXTRACT: note_on channel=9 note=42 velocity=80 time=0
EXTRACT: note_off channel=0 note=66 velocity=64 time=0.14285699999999998
EXTRACT: note_off channel=0 note=61 velocity=64 time=0
EXTRACT: note_off channel=0 note=57 velocity=64 time=0
EXTRACT: note_on channel=0 note=66 velocity=72 time=0
EXTRACT: note_on channel=0 note=61 velocity=72 time=0
EXTRACT: note_on channel=0 note=57 velocity=72 time=0
EXTRACT: note_off channel=6 note=69 velocity=64 time=0
EXTRACT: note_off channel=6 note=64 velocity=64 time=0
EXTRACT: note_on channel=6 note=69 velocity=80 time=0
EXTRACT: note_on channel=6 note=64 velocity=80 time=0
EXTRACT: note_off channel=11 note=61 velocity=64 time=0.14285699999999998
EXTRACT: note_on channel=11 note=59 velocity=80 time=0
EXTRACT: note_off channel=0 note=66 velocity=64 time=0
EXTRACT: note_off channel=0 note=61 velocity=64 time=0
EXTRACT: note_off channel=0 note=57 velocity=64 time=0
EXTRACT: note_on channel=0 note=66 velocity=72 time=0
EXTRACT: note_on channel=0 note=62 velocity=72 time=0
EXTRACT: note_on channel=0 note=57 velocity=72 time=0
EXTRACT: note_on channel=0 note=54 velocity=72 time=0
EXTRACT: note_on channel=0 note=47 velocity=72 time=0
EXTRACT: note_off channel=6 note=69 velocity=64 time=0
EXTRACT: note_off channel=6 note=64 velocity=64 time=0
EXTRACT: note_on channel=6 note=69 velocity=80 time=0
EXTRACT: note_on channel=6 note=64 velocity=80 time=0
EXTRACT: note_on channel=4 note=35 velocity=80 time=0
EXTRACT: note_off channel=2 note=69 velocity=64 time=0
EXTRACT: note_off channel=2 note=64 velocity=64 time=0
EXTRACT: note_off channel=2 note=61 velocity=64 time=0
EXTRACT: note_off channel=2 note=57 velocity=64 time=0
EXTRACT: note_on channel=2 note=66 velocity=80 time=0
EXTRACT: note_on channel=2 note=62 velocity=80 time=0
EXTRACT: note_on channel=2 note=57 velocity=80 time=0
EXTRACT: note_on channel=9 note=82 velocity=64 time=0
EXTRACT: note_off channel=9 note=42 velocity=64 time=0
EXTRACT: note_on channel=9 note=42 velocity=80 time=0
EXTRACT: note_on channel=9 note=57 velocity=80 time=0
EXTRACT: note_on channel=9 note=35 velocity=80 time=0
EXTRACT: note_off channel=6 note=69 velocity=64 time=0.14285699999999998
EXTRACT: note_off channel=6 note=64 velocity=64 time=0
EXTRACT: note_on channel=6 note=69 velocity=80 time=0
EXTRACT: note_on channel=6 note=64 velocity=80 time=0
EXTRACT: note_off channel=9 note=82 velocity=64 time=0
EXTRACT: note_on channel=9 note=82 velocity=64 time=0
EXTRACT: note_off channel=11 note=59 velocity=64 time=0.14285699999999998
EXTRACT: note_on channel=11 note=59 velocity=80 time=0
EXTRACT: note_off channel=6 note=69 velocity=64 time=0
EXTRACT: note_off channel=6 note=64 velocity=64 time=0
EXTRACT: note_on channel=6 note=69 velocity=80 time=0
EXTRACT: note_on channel=6 note=64 velocity=80 time=0
EXTRACT: note_off channel=4 note=35 velocity=64 time=0
EXTRACT: note_off channel=9 note=82 velocity=64 time=0
EXTRACT: note_on channel=9 note=82 velocity=64 time=0
EXTRACT: note_off channel=9 note=42 velocity=64 time=0
EXTRACT: note_off channel=9 note=57 velocity=64 time=0
EXTRACT: note_off channel=9 note=35 velocity=64 time=0
EXTRACT: note_on channel=9 note=42 velocity=80 time=0
EXTRACT: note_off channel=0 note=66 velocity=64 time=0.14285699999999998
EXTRACT: note_off channel=0 note=62 velocity=64 time=0
EXTRACT: note_off channel=0 note=57 velocity=64 time=0
EXTRACT: note_off channel=0 note=54 velocity=64 time=0
EXTRACT: note_off channel=0 note=47 velocity=64 time=0
EXTRACT: note_on channel=0 note=66 velocity=72 time=0
EXTRACT: note_on channel=0 note=62 velocity=72 time=0
EXTRACT: note_on channel=0 note=57 velocity=72 time=0
EXTRACT: note_on channel=0 note=54 velocity=72 time=0
EXTRACT: note_on channel=0 note=47 velocity=72 time=0
EXTRACT: note_off channel=6 note=69 velocity=64 time=0
EXTRACT: note_off channel=6 note=64 velocity=64 time=0
EXTRACT: note_on channel=6 note=69 velocity=80 time=0
EXTRACT: note_on channel=6 note=64 velocity=80 time=0
EXTRACT: note_on channel=4 note=35 velocity=80 time=0
EXTRACT: note_off channel=2 note=66 velocity=64 time=0
EXTRACT: note_off channel=2 note=62 velocity=64 time=0
EXTRACT: note_off channel=2 note=57 velocity=64 time=0
EXTRACT: note_on channel=2 note=66 velocity=80 time=0
EXTRACT: note_on channel=2 note=62 velocity=80 time=0
EXTRACT: note_on channel=2 note=57 velocity=80 time=0
EXTRACT: note_off channel=11 note=59 velocity=64 time=0.14285699999999998
EXTRACT: note_on channel=11 note=59 velocity=80 time=0
EXTRACT: note_off channel=0 note=66 velocity=64 time=0
EXTRACT: note_off channel=0 note=62 velocity=64 time=0
EXTRACT: note_off channel=0 note=57 velocity=64 time=0
EXTRACT: note_off channel=0 note=54 velocity=64 time=0
EXTRACT: note_off channel=0 note=47 velocity=64 time=0
EXTRACT: note_on channel=0 note=66 velocity=72 time=0
EXTRACT: note_on channel=0 note=62 velocity=72 time=0
EXTRACT: note_on channel=0 note=57 velocity=72 time=0
EXTRACT: note_off channel=6 note=69 velocity=64 time=0
EXTRACT: note_off channel=6 note=64 velocity=64 time=0
EXTRACT: note_on channel=6 note=69 velocity=80 time=0
EXTRACT: note_on channel=6 note=64 velocity=80 time=0
EXTRACT: note_off channel=4 note=35 velocity=64 time=0
EXTRACT: note_off channel=2 note=66 velocity=64 time=0
EXTRACT: note_off channel=2 note=62 velocity=64 time=0
EXTRACT: note_off channel=2 note=57 velocity=64 time=0
EXTRACT: note_off channel=9 note=82 velocity=64 time=0
EXTRACT: note_off channel=9 note=42 velocity=64 time=0
EXTRACT: note_on channel=9 note=42 velocity=80 time=0
EXTRACT: note_on channel=9 note=57 velocity=80 time=0
EXTRACT: note_on channel=9 note=38 velocity=80 time=0
EXTRACT: note_off channel=0 note=66 velocity=64 time=0.14285699999999998
EXTRACT: note_off channel=0 note=62 velocity=64 time=0
EXTRACT: note_off channel=0 note=57 velocity=64 time=0
EXTRACT: note_on channel=0 note=66 velocity=72 time=0
EXTRACT: note_on channel=0 note=62 velocity=72 time=0
EXTRACT: note_on channel=0 note=57 velocity=72 time=0
EXTRACT: note_off channel=6 note=69 velocity=64 time=0
EXTRACT: note_off channel=6 note=64 velocity=64 time=0
EXTRACT: note_on channel=6 note=69 velocity=80 time=0
EXTRACT: note_on channel=6 note=64 velocity=80 time=0
EXTRACT: note_off channel=11 note=59 velocity=64 time=0.14285699999999998
EXTRACT: note_on channel=11 note=57 velocity=80 time=0
EXTRACT: note_off channel=0 note=66 velocity=64 time=0
EXTRACT: note_off channel=0 note=62 velocity=64 time=0
EXTRACT: note_off channel=0 note=57 velocity=64 time=0
EXTRACT: note_on channel=0 note=66 velocity=72 time=0
EXTRACT: note_on channel=0 note=61 velocity=72 time=0
EXTRACT: note_on channel=0 note=57 velocity=72 time=0
EXTRACT: note_on channel=0 note=52 velocity=72 time=0
EXTRACT: note_on channel=0 note=49 velocity=72 time=0
EXTRACT: note_off channel=6 note=69 velocity=64 time=0
EXTRACT: note_off channel=6 note=64 velocity=64 time=0
EXTRACT: note_on channel=6 note=69 velocity=80 time=0
EXTRACT: note_on channel=6 note=64 velocity=80 time=0
EXTRACT: note_on channel=4 note=30 velocity=80 time=0
EXTRACT: note_on channel=2 note=69 velocity=80 time=0
EXTRACT: note_on channel=2 note=64 velocity=80 time=0
EXTRACT: note_on channel=2 note=61 velocity=80 time=0
EXTRACT: note_on channel=2 note=57 velocity=80 time=0
EXTRACT: note_off channel=9 note=42 velocity=64 time=0
EXTRACT: note_off channel=9 note=57 velocity=64 time=0
EXTRACT: note_off channel=9 note=38 velocity=64 time=0
EXTRACT: note_on channel=9 note=42 velocity=80 time=0
EXTRACT: note_on channel=9 note=35 velocity=80 time=0
EXTRACT: note_off channel=11 note=57 velocity=64 time=0.14285699999999998
EXTRACT: note_on channel=11 note=59 velocity=80 time=0
EXTRACT: note_off channel=6 note=69 velocity=64 time=0
EXTRACT: note_off channel=6 note=64 velocity=64 time=0
EXTRACT: note_on channel=6 note=69 velocity=80 time=0
EXTRACT: note_on channel=6 note=64 velocity=80 time=0
EXTRACT: note_off channel=11 note=59 velocity=64 time=0.14285699999999998
EXTRACT: note_on channel=11 note=57 velocity=80 time=0
EXTRACT: note_off channel=0 note=66 velocity=64 time=0
EXTRACT: note_off channel=0 note=61 velocity=64 time=0
EXTRACT: note_off channel=0 note=57 velocity=64 time=0
EXTRACT: note_off channel=0 note=52 velocity=64 time=0
EXTRACT: note_off channel=0 note=49 velocity=64 time=0
EXTRACT: note_off channel=6 note=69 velocity=64 time=0
EXTRACT: note_off channel=6 note=64 velocity=64 time=0
EXTRACT: note_on channel=6 note=69 velocity=80 time=0
EXTRACT: note_on channel=6 note=64 velocity=80 time=0
EXTRACT: note_off channel=4 note=30 velocity=64 time=0
EXTRACT: note_off channel=2 note=69 velocity=64 time=0
EXTRACT: note_off channel=2 note=64 velocity=64 time=0
EXTRACT: note_off channel=2 note=61 velocity=64 time=0
EXTRACT: note_off channel=2 note=57 velocity=64 time=0
EXTRACT: note_on channel=9 note=82 velocity=64 time=0
EXTRACT: note_off channel=9 note=42 velocity=64 time=0
EXTRACT: note_off channel=9 note=35 velocity=64 time=0
EXTRACT: note_on channel=9 note=42 velocity=80 time=0
EXTRACT: note_on channel=9 note=57 velocity=80 time=0
EXTRACT: note_off channel=11 note=57 velocity=64 time=0.14285699999999998
EXTRACT: note_on channel=11 note=57 velocity=80 time=0
EXTRACT: note_on channel=0 note=66 velocity=72 time=0
EXTRACT: note_on channel=0 note=61 velocity=72 time=0
EXTRACT: note_on channel=0 note=57 velocity=72 time=0
EXTRACT: note_off channel=9 note=82 velocity=64 time=0
EXTRACT: note_on channel=9 note=82 velocity=64 time=0
EXTRACT: note_off channel=11 note=57 velocity=64 time=0.14285699999999998
EXTRACT: note_off channel=0 note=66 velocity=64 time=0
EXTRACT: note_off channel=0 note=61 velocity=64 time=0
EXTRACT: note_off channel=0 note=57 velocity=64 time=0
EXTRACT: note_on channel=0 note=61 velocity=72 time=0
EXTRACT: note_on channel=0 note=57 velocity=72 time=0
EXTRACT: note_on channel=0 note=52 velocity=72 time=0
EXTRACT: note_on channel=0 note=49 velocity=72 time=0
EXTRACT: note_off channel=6 note=69 velocity=64 time=0
EXTRACT: note_off channel=6 note=64 velocity=64 time=0
EXTRACT: note_on channel=6 note=69 velocity=80 time=0
EXTRACT: note_on channel=6 note=64 velocity=80 time=0
EXTRACT: note_off channel=9 note=82 velocity=64 time=0
EXTRACT: note_on channel=9 note=82 velocity=64 time=0
EXTRACT: note_off channel=9 note=42 velocity=64 time=0
EXTRACT: note_off channel=9 note=57 velocity=64 time=0
EXTRACT: note_on channel=9 note=42 velocity=80 time=0
EXTRACT: note_on channel=11 note=52 velocity=80 time=0.28571399999999997
EXTRACT: note_off channel=0 note=61 velocity=64 time=0
EXTRACT: note_off channel=0 note=57 velocity=64 time=0
EXTRACT: note_off channel=0 note=52 velocity=64 time=0
EXTRACT: note_off channel=0 note=49 velocity=64 time=0
EXTRACT: note_on channel=0 note=66 velocity=72 time=0
EXTRACT: note_on channel=0 note=61 velocity=72 time=0
EXTRACT: note_on channel=0 note=57 velocity=72 time=0
EXTRACT: note_on channel=0 note=52 velocity=72 time=0
EXTRACT: note_on channel=0 note=49 velocity=72 time=0
EXTRACT: note_off channel=6 note=69 velocity=64 time=0
EXTRACT: note_off channel=6 note=64 velocity=64 time=0
EXTRACT: note_on channel=6 note=69 velocity=80 time=0
EXTRACT: note_on channel=6 note=64 velocity=80 time=0
EXTRACT: note_on channel=2 note=69 velocity=80 time=0
EXTRACT: note_on channel=2 note=64 velocity=80 time=0
EXTRACT: note_on channel=2 note=61 velocity=80 time=0
EXTRACT: note_on channel=2 note=57 velocity=80 time=0
EXTRACT: note_off channel=9 note=82 velocity=64 time=0
EXTRACT: note_off channel=9 note=42 velocity=64 time=0
EXTRACT: note_on channel=9 note=42 velocity=80 time=0
EXTRACT: note_on channel=9 note=57 velocity=80 time=0
EXTRACT: note_on channel=9 note=38 velocity=80 time=0
EXTRACT: note_off channel=11 note=52 velocity=64 time=0.14285699999999998
EXTRACT: note_on channel=11 note=54 velocity=80 time=0
EXTRACT: note_off channel=6 note=69 velocity=64 time=0
EXTRACT: note_off channel=6 note=64 velocity=64 time=0
EXTRACT: note_on channel=6 note=69 velocity=80 time=0
EXTRACT: note_on channel=6 note=64 velocity=80 time=0
EXTRACT: note_off channel=11 note=54 velocity=64 time=0.14285699999999998
EXTRACT: note_on channel=11 note=57 velocity=80 time=0
EXTRACT: note_off channel=0 note=66 velocity=64 time=0
EXTRACT: note_off channel=0 note=61 velocity=64 time=0
EXTRACT: note_off channel=0 note=57 velocity=64 time=0
EXTRACT: note_off channel=0 note=52 velocity=64 time=0
EXTRACT: note_off channel=0 note=49 velocity=64 time=0
EXTRACT: note_on channel=0 note=66 velocity=72 time=0
EXTRACT: note_on channel=0 note=61 velocity=72 time=0
EXTRACT: note_on channel=0 note=57 velocity=72 time=0
EXTRACT: note_off channel=6 note=69 velocity=64 time=0
EXTRACT: note_off channel=6 note=64 velocity=64 time=0
EXTRACT: note_on channel=6 note=69 velocity=80 time=0
EXTRACT: note_on channel=6 note=64 velocity=80 time=0
EXTRACT: note_on channel=4 note=33 velocity=80 time=0
EXTRACT: note_off channel=9 note=42 velocity=64 time=0
EXTRACT: note_off channel=9 note=57 velocity=64 time=0
EXTRACT: note_off channel=9 note=38 velocity=64 time=0
EXTRACT: note_on channel=9 note=42 velocity=80 time=0
EXTRACT: note_off channel=11 note=57 velocity=64 time=0.14285699999999998
EXTRACT: note_on channel=11 note=59 velocity=80 time=0
EXTRACT: note_off channel=0 note=66 velocity=64 time=0
EXTRACT: note_off channel=0 note=61 velocity=64 time=0
EXTRACT: note_off channel=0 note=57 velocity=64 time=0
EXTRACT: note_on channel=0 note=66 velocity=72 time=0
EXTRACT: note_on channel=0 note=61 velocity=72 time=0
EXTRACT: note_on channel=0 note=57 velocity=72 time=0
EXTRACT: note_off channel=6 note=69 velocity=64 time=0
EXTRACT: note_off channel=6 note=64 velocity=64 time=0
EXTRACT: note_on channel=6 note=69 velocity=80 time=0
EXTRACT: note_on channel=6 note=64 velocity=80 time=0
EXTRACT: note_off channel=4 note=33 velocity=64 time=0
EXTRACT: note_on channel=4 note=30 velocity=80 time=0
EXTRACT: note_off channel=11 note=59 velocity=64 time=0.14285699999999998
EXTRACT: note_off channel=0 note=66 velocity=64 time=0
EXTRACT: note_off channel=0 note=61 velocity=64 time=0
EXTRACT: note_off channel=0 note=57 velocity=64 time=0
EXTRACT: note_on channel=0 note=60 velocity=72 time=0
EXTRACT: note_on channel=0 note=57 velocity=72 time=0
EXTRACT: note_on channel=0 note=52 velocity=72 time=0
EXTRACT: note_on channel=0 note=41 velocity=72 time=0
EXTRACT: note_off channel=6 note=69 velocity=64 time=0
EXTRACT: note_off channel=6 note=64 velocity=64 time=0
EXTRACT: note_on channel=6 note=67 velocity=80 time=0
EXTRACT: note_on channel=6 note=62 velocity=80 time=0
EXTRACT: note_off channel=4 note=30 velocity=64 time=0
EXTRACT: note_on channel=4 note=29 velocity=80 time=0
EXTRACT: note_off channel=2 note=69 velocity=64 time=0
EXTRACT: note_off channel=2 note=64 velocity=64 time=0
EXTRACT: note_off channel=2 note=61 velocity=64 time=0
EXTRACT: note_off channel=2 note=57 velocity=64 time=0
EXTRACT: note_on channel=2 note=64 velocity=80 time=0
EXTRACT: note_on channel=2 note=60 velocity=80 time=0
EXTRACT: note_on channel=2 note=57 velocity=80 time=0
EXTRACT: note_on channel=2 note=55 velocity=80 time=0
EXTRACT: note_on channel=9 note=82 velocity=64 time=0
EXTRACT: note_off channel=9 note=42 velocity=64 time=0
EXTRACT: note_on channel=9 note=42 velocity=80 time=0
EXTRACT: note_on channel=9 note=57 velocity=80 time=0
EXTRACT: note_on channel=9 note=35 velocity=80 time=0
EXTRACT: note_off channel=6 note=67 velocity=64 time=0.14285699999999998
EXTRACT: note_off channel=6 note=62 velocity=64 time=0
EXTRACT: note_on channel=6 note=67 velocity=80 time=0
EXTRACT: note_on channel=6 note=62 velocity=80 time=0
EXTRACT: note_off channel=9 note=82 velocity=64 time=0
EXTRACT: note_on channel=9 note=82 velocity=64 time=0
EXTRACT: note_off channel=6 note=67 velocity=64 time=0.14285699999999998
EXTRACT: note_off channel=6 note=62 velocity=64 time=0
EXTRACT: note_on channel=6 note=67 velocity=80 time=0
EXTRACT: note_on channel=6 note=62 velocity=80 time=0
EXTRACT: note_off channel=9 note=82 velocity=64 time=0
EXTRACT: note_on channel=9 note=82 velocity=64 time=0
EXTRACT: note_off channel=9 note=42 velocity=64 time=0
EXTRACT: note_off channel=9 note=57 velocity=64 time=0
EXTRACT: note_off channel=9 note=35 velocity=64 time=0
EXTRACT: note_on channel=9 note=42 velocity=80 time=0
EXTRACT: note_off channel=0 note=60 velocity=64 time=0.14285699999999998
EXTRACT: note_off channel=0 note=57 velocity=64 time=0
EXTRACT: note_off channel=0 note=52 velocity=64 time=0
EXTRACT: note_off channel=0 note=41 velocity=64 time=0
EXTRACT: note_on channel=0 note=60 velocity=72 time=0
EXTRACT: note_on channel=0 note=57 velocity=72 time=0
EXTRACT: note_on channel=0 note=52 velocity=72 time=0
EXTRACT: note_on channel=0 note=41 velocity=72 time=0
EXTRACT: note_off channel=6 note=67 velocity=64 time=0
EXTRACT: note_off channel=6 note=62 velocity=64 time=0
EXTRACT: note_on channel=6 note=67 velocity=80 time=0
EXTRACT: note_on channel=6 note=62 velocity=80 time=0
EXTRACT: note_off channel=4 note=29 velocity=64 time=0
EXTRACT: note_on channel=4 note=29 velocity=80 time=0
EXTRACT: note_off channel=2 note=64 velocity=64 time=0
EXTRACT: note_off channel=2 note=60 velocity=64 time=0
EXTRACT: note_off channel=2 note=57 velocity=64 time=0
EXTRACT: note_off channel=2 note=55 velocity=64 time=0
EXTRACT: note_on channel=2 note=64 velocity=80 time=0
EXTRACT: note_on channel=2 note=60 velocity=80 time=0
EXTRACT: note_on channel=2 note=57 velocity=80 time=0
EXTRACT: note_on channel=2 note=55 velocity=80 time=0
EXTRACT: note_off channel=0 note=60 velocity=64 time=0.14285699999999998
EXTRACT: note_off channel=0 note=57 velocity=64 time=0
EXTRACT: note_off channel=0 note=52 velocity=64 time=0
EXTRACT: note_off channel=0 note=41 velocity=64 time=0
EXTRACT: note_on channel=0 note=60 velocity=72 time=0
EXTRACT: note_on channel=0 note=57 velocity=72 time=0
EXTRACT: note_on channel=0 note=52 velocity=72 time=0
EXTRACT: note_off channel=6 note=67 velocity=64 time=0
EXTRACT: note_off channel=6 note=62 velocity=64 time=0
EXTRACT: note_on channel=6 note=67 velocity=80 time=0
EXTRACT: note_on channel=6 note=62 velocity=80 time=0
EXTRACT: note_off channel=4 note=29 velocity=64 time=0
EXTRACT: note_off channel=2 note=64 velocity=64 time=0
EXTRACT: note_off channel=2 note=60 velocity=64 time=0
EXTRACT: note_off channel=2 note=57 velocity=64 time=0
EXTRACT: note_off channel=2 note=55 velocity=64 time=0
EXTRACT: note_off channel=9 note=82 velocity=64 time=0
EXTRACT: note_off channel=9 note=42 velocity=64 time=0
EXTRACT: note_on channel=9 note=42 velocity=80 time=0
EXTRACT: note_on channel=9 note=57 velocity=80 time=0
EXTRACT: note_on channel=9 note=38 velocity=80 time=0
EXTRACT: note_off channel=0 note=60 velocity=64 time=0.14285699999999998
EXTRACT: note_off channel=0 note=57 velocity=64 time=0
EXTRACT: note_off channel=0 note=52 velocity=64 time=0
EXTRACT: note_on channel=0 note=60 velocity=72 time=0
EXTRACT: note_on channel=0 note=57 velocity=72 time=0
EXTRACT: note_on channel=0 note=52 velocity=72 time=0
EXTRACT: note_off channel=6 note=67 velocity=64 time=0
EXTRACT: note_off channel=6 note=62 velocity=64 time=0
EXTRACT: note_on channel=6 note=67 velocity=80 time=0
EXTRACT: note_on channel=6 note=62 velocity=80 time=0
EXTRACT: note_on channel=4 note=29 velocity=80 time=0
EXTRACT: note_off channel=0 note=60 velocity=64 time=0.14285699999999998
EXTRACT: note_off channel=0 note=57 velocity=64 time=0
EXTRACT: note_off channel=0 note=52 velocity=64 time=0
EXTRACT: note_on channel=0 note=62 velocity=72 time=0
EXTRACT: note_on channel=0 note=59 velocity=72 time=0
EXTRACT: note_on channel=0 note=54 velocity=72 time=0
EXTRACT: note_on channel=0 note=43 velocity=72 time=0
EXTRACT: note_off channel=6 note=67 velocity=64 time=0
EXTRACT: note_off channel=6 note=62 velocity=64 time=0
EXTRACT: note_on channel=6 note=67 velocity=80 time=0
EXTRACT: note_on channel=6 note=62 velocity=80 time=0
EXTRACT: note_off channel=4 note=29 velocity=64 time=0
EXTRACT: note_on channel=4 note=31 velocity=80 time=0
EXTRACT: note_on channel=2 note=66 velocity=80 time=0
EXTRACT: note_on channel=2 note=62 velocity=80 time=0
EXTRACT: note_on channel=2 note=59 velocity=80 time=0
EXTRACT: note_on channel=2 note=57 velocity=80 time=0
EXTRACT: note_off channel=9 note=42 velocity=64 time=0
EXTRACT: note_off channel=9 note=57 velocity=64 time=0
EXTRACT: note_off channel=9 note=38 velocity=64 time=0
EXTRACT: note_on channel=9 note=42 velocity=80 time=0
EXTRACT: note_on channel=9 note=35 velocity=80 time=0
EXTRACT: note_on channel=11 note=57 velocity=80 time=0.14285699999999998
EXTRACT: note_off channel=6 note=67 velocity=64 time=0
EXTRACT: note_off channel=6 note=62 velocity=64 time=0
EXTRACT: note_on channel=6 note=67 velocity=80 time=0
EXTRACT: note_on channel=6 note=62 velocity=80 time=0
EXTRACT: note_off channel=11 note=57 velocity=64 time=0.14285699999999998
EXTRACT: note_on channel=11 note=59 velocity=80 time=0
EXTRACT: note_off channel=0 note=62 velocity=64 time=0
EXTRACT: note_off channel=0 note=59 velocity=64 time=0
EXTRACT: note_off channel=0 note=54 velocity=64 time=0
EXTRACT: note_off channel=0 note=43 velocity=64 time=0
EXTRACT: note_off channel=6 note=67 velocity=64 time=0
EXTRACT: note_off channel=6 note=62 velocity=64 time=0
EXTRACT: note_on channel=6 note=67 velocity=80 time=0
EXTRACT: note_on channel=6 note=62 velocity=80 time=0
EXTRACT: note_off channel=4 note=31 velocity=64 time=0
EXTRACT: note_off channel=2 note=66 velocity=64 time=0
EXTRACT: note_off channel=2 note=62 velocity=64 time=0
EXTRACT: note_off channel=2 note=59 velocity=64 time=0
EXTRACT: note_off channel=2 note=57 velocity=64 time=0
EXTRACT: note_on channel=9 note=82 velocity=64 time=0
EXTRACT: note_off channel=9 note=42 velocity=64 time=0
EXTRACT: note_off channel=9 note=35 velocity=64 time=0
EXTRACT: note_on channel=9 note=42 velocity=80 time=0
EXTRACT: note_on channel=9 note=57 velocity=80 time=0
EXTRACT: note_off channel=11 note=59 velocity=64 time=0.14285699999999998
EXTRACT: note_on channel=11 note=57 velocity=80 time=0
EXTRACT: note_on channel=0 note=62 velocity=72 time=0
EXTRACT: note_on channel=0 note=59 velocity=72 time=0
EXTRACT: note_on channel=0 note=54 velocity=72 time=0
EXTRACT: note_off channel=6 note=67 velocity=64 time=0
EXTRACT: note_off channel=6 note=62 velocity=64 time=0
EXTRACT: note_on channel=6 note=67 velocity=80 time=0
EXTRACT: note_on channel=6 note=62 velocity=80 time=0
EXTRACT: note_off channel=9 note=82 velocity=64 time=0
EXTRACT: note_on channel=9 note=82 velocity=64 time=0
EXTRACT: note_off channel=0 note=62 velocity=64 time=0.14285699999999998
EXTRACT: note_off channel=0 note=59 velocity=64 time=0
EXTRACT: note_off channel=0 note=54 velocity=64 time=0
EXTRACT: note_on channel=0 note=62 velocity=72 time=0
EXTRACT: note_on channel=0 note=59 velocity=72 time=0
EXTRACT: note_on channel=0 note=54 velocity=72 time=0
EXTRACT: note_on channel=0 note=43 velocity=72 time=0
EXTRACT: note_off channel=6 note=67 velocity=64 time=0
EXTRACT: note_off channel=6 note=62 velocity=64 time=0
EXTRACT: note_on channel=6 note=67 velocity=80 time=0
EXTRACT: note_on channel=6 note=62 velocity=80 time=0
EXTRACT: note_on channel=4 note=38 velocity=80 time=0
EXTRACT: note_on channel=2 note=66 velocity=80 time=0
EXTRACT: note_on channel=2 note=62 velocity=80 time=0
EXTRACT: note_on channel=2 note=59 velocity=80 time=0
EXTRACT: note_on channel=2 note=57 velocity=80 time=0
EXTRACT: note_off channel=9 note=82 velocity=64 time=0
EXTRACT: note_on channel=9 note=82 velocity=64 time=0
EXTRACT: note_off channel=9 note=42 velocity=64 time=0
EXTRACT: note_off channel=9 note=57 velocity=64 time=0
EXTRACT: note_on channel=9 note=42 velocity=80 time=0
EXTRACT: note_off channel=11 note=57 velocity=64 time=0.14285699999999998
EXTRACT: note_on channel=11 note=59 velocity=80 time=0
EXTRACT: note_off channel=6 note=67 velocity=64 time=0
EXTRACT: note_off channel=6 note=62 velocity=64 time=0
EXTRACT: note_on channel=6 note=67 velocity=80 time=0
EXTRACT: note_on channel=6 note=62 velocity=80 time=0
EXTRACT: note_off channel=11 note=59 velocity=64 time=0.14285699999999998
EXTRACT: note_off channel=0 note=62 velocity=64 time=0
EXTRACT: note_off channel=0 note=59 velocity=64 time=0
EXTRACT: note_off channel=0 note=54 velocity=64 time=0
EXTRACT: note_off channel=0 note=43 velocity=64 time=0
EXTRACT: note_on channel=0 note=62 velocity=72 time=0
EXTRACT: note_on channel=0 note=59 velocity=72 time=0
EXTRACT: note_on channel=0 note=54 velocity=72 time=0
EXTRACT: note_on channel=0 note=43 velocity=72 time=0
EXTRACT: note_off channel=6 note=67 velocity=64 time=0
EXTRACT: note_off channel=6 note=62 velocity=64 time=0
EXTRACT: note_on channel=6 note=67 velocity=80 time=0
EXTRACT: note_on channel=6 note=62 velocity=80 time=0
EXTRACT: note_off channel=4 note=38 velocity=64 time=0
EXTRACT: note_on channel=4 note=43 velocity=80 time=0
EXTRACT: note_off channel=2 note=66 velocity=64 time=0
EXTRACT: note_off channel=2 note=62 velocity=64 time=0
EXTRACT: note_off channel=2 note=59 velocity=64 time=0
EXTRACT: note_off channel=2 note=57 velocity=64 time=0
EXTRACT: note_on channel=2 note=66 velocity=80 time=0
EXTRACT: note_on channel=2 note=62 velocity=80 time=0
EXTRACT: note_on channel=2 note=59 velocity=80 time=0
EXTRACT: note_on channel=2 note=57 velocity=80 time=0
EXTRACT: note_off channel=9 note=82 velocity=64 time=0
EXTRACT: note_off channel=9 note=42 velocity=64 time=0
EXTRACT: note_on channel=9 note=42 velocity=80 time=0
EXTRACT: note_on channel=9 note=57 velocity=80 time=0
EXTRACT: note_on channel=9 note=38 velocity=80 time=0
EXTRACT: note_on channel=11 note=57 velocity=80 time=0.14285699999999998
EXTRACT: note_off channel=6 note=67 velocity=64 time=0
EXTRACT: note_off channel=6 note=62 velocity=64 time=0
EXTRACT: note_on channel=6 note=67 velocity=80 time=0
EXTRACT: note_on channel=6 note=62 velocity=80 time=0
EXTRACT: note_off channel=0 note=62 velocity=64 time=0.14285699999999998
EXTRACT: note_off channel=0 note=59 velocity=64 time=0
EXTRACT: note_off channel=0 note=54 velocity=64 time=0
EXTRACT: note_off channel=0 note=43 velocity=64 time=0
EXTRACT: note_on channel=0 note=62 velocity=72 time=0
EXTRACT: note_on channel=0 note=59 velocity=72 time=0
EXTRACT: note_on channel=0 note=54 velocity=72 time=0
EXTRACT: note_off channel=6 note=67 velocity=64 time=0
EXTRACT: note_off channel=6 note=62 velocity=64 time=0
EXTRACT: note_on channel=6 note=67 velocity=80 time=0
EXTRACT: note_on channel=6 note=62 velocity=80 time=0
EXTRACT: note_off channel=9 note=42 velocity=64 time=0
EXTRACT: note_off channel=9 note=57 velocity=64 time=0
EXTRACT: note_off channel=9 note=38 velocity=64 time=0
EXTRACT: note_on channel=9 note=42 velocity=80 time=0
EXTRACT: note_off channel=11 note=57 velocity=64 time=0.14285699999999998
EXTRACT: note_on channel=11 note=62 velocity=80 time=0
EXTRACT: note_off channel=0 note=62 velocity=64 time=0
EXTRACT: note_off channel=0 note=59 velocity=64 time=0
EXTRACT: note_off channel=0 note=54 velocity=64 time=0
EXTRACT: note_on channel=0 note=62 velocity=72 time=0
EXTRACT: note_on channel=0 note=59 velocity=72 time=0
EXTRACT: note_on channel=0 note=54 velocity=72 time=0
EXTRACT: note_off channel=6 note=67 velocity=64 time=0
EXTRACT: note_off channel=6 note=62 velocity=64 time=0
EXTRACT: note_on channel=6 note=67 velocity=80 time=0
EXTRACT: note_on channel=6 note=62 velocity=80 time=0
EXTRACT: note_off channel=11 note=62 velocity=64 time=0.14285699999999998
EXTRACT: note_on channel=11 note=64 velocity=80 time=0
EXTRACT: note_off channel=0 note=62 velocity=64 time=0
EXTRACT: note_off channel=0 note=59 velocity=64 time=0
EXTRACT: note_off channel=0 note=54 velocity=64 time=0
EXTRACT: note_on channel=0 note=64 velocity=72 time=0
EXTRACT: note_on channel=0 note=61 velocity=72 time=0
EXTRACT: note_on channel=0 note=56 velocity=72 time=0
EXTRACT: note_on channel=0 note=45 velocity=72 time=0
EXTRACT: note_off channel=6 note=67 velocity=64 time=0
EXTRACT: note_off channel=6 note=62 velocity=64 time=0
EXTRACT: note_on channel=6 note=67 velocity=80 time=0
EXTRACT: note_on channel=6 note=62 velocity=80 time=0
EXTRACT: note_off channel=4 note=43 velocity=64 time=0
EXTRACT: note_on channel=4 note=33 velocity=80 time=0
EXTRACT: note_off channel=2 note=66 velocity=64 time=0
EXTRACT: note_off channel=2 note=62 velocity=64 time=0
EXTRACT: note_off channel=2 note=59 velocity=64 time=0
EXTRACT: note_off channel=2 note=57 velocity=64 time=0
EXTRACT: note_on channel=2 note=68 velocity=80 time=0
EXTRACT: note_on channel=2 note=64 velocity=80 time=0
EXTRACT: note_on channel=2 note=61 velocity=80 time=0
EXTRACT: note_on channel=2 note=59 velocity=80 time=0
EXTRACT: note_on channel=9 note=82 velocity=64 time=0
EXTRACT: note_off channel=9 note=42 velocity=64 time=0
EXTRACT: note_on channel=9 note=42 velocity=80 time=0
EXTRACT: note_on channel=9 note=57 velocity=80 time=0
EXTRACT: note_on channel=9 note=35 velocity=80 time=0
EXTRACT: note_off channel=6 note=67 velocity=64 time=0.14285699999999998
EXTRACT: note_off channel=6 note=62 velocity=64 time=0
EXTRACT: note_on channel=6 note=67 velocity=80 time=0
EXTRACT: note_on channel=6 note=62 velocity=80 time=0
EXTRACT: note_off channel=9 note=82 velocity=64 time=0
EXTRACT: note_on channel=9 note=82 velocity=64 time=0
EXTRACT: note_off channel=11 note=64 velocity=64 time=0.14285699999999998
EXTRACT: note_on channel=11 note=64 velocity=80 time=0
EXTRACT: note_off channel=6 note=67 velocity=64 time=0
EXTRACT: note_off channel=6 note=62 velocity=64 time=0
EXTRACT: note_on channel=6 note=67 velocity=80 time=0
EXTRACT: note_on channel=6 note=62 velocity=80 time=0
EXTRACT: note_off channel=9 note=82 velocity=64 time=0
EXTRACT: note_on channel=9 note=82 velocity=64 time=0
EXTRACT: note_off channel=9 note=42 velocity=64 time=0
EXTRACT: note_off channel=9 note=57 velocity=64 time=0
EXTRACT: note_off channel=9 note=35 velocity=64 time=0
EXTRACT: note_on channel=9 note=42 velocity=80 time=0
EXTRACT: note_off channel=0 note=64 velocity=64 time=0.14285699999999998
EXTRACT: note_off channel=0 note=61 velocity=64 time=0
EXTRACT: note_off channel=0 note=56 velocity=64 time=0
EXTRACT: note_off channel=0 note=45 velocity=64 time=0
EXTRACT: note_on channel=0 note=64 velocity=72 time=0
EXTRACT: note_on channel=0 note=61 velocity=72 time=0
EXTRACT: note_on channel=0 note=56 velocity=72 time=0
EXTRACT: note_on channel=0 note=45 velocity=72 time=0
EXTRACT: note_off channel=6 note=67 velocity=64 time=0
EXTRACT: note_off channel=6 note=62 velocity=64 time=0
EXTRACT: note_on channel=6 note=67 velocity=80 time=0
EXTRACT: note_on channel=6 note=62 velocity=80 time=0
EXTRACT: note_off channel=4 note=33 velocity=64 time=0
EXTRACT: note_on channel=4 note=40 velocity=80 time=0
EXTRACT: note_off channel=2 note=68 velocity=64 time=0
EXTRACT: note_off channel=2 note=64 velocity=64 time=0
EXTRACT: note_off channel=2 note=61 velocity=64 time=0
EXTRACT: note_off channel=2 note=59 velocity=64 time=0
EXTRACT: note_on channel=2 note=68 velocity=80 time=0
EXTRACT: note_on channel=2 note=64 velocity=80 time=0
EXTRACT: note_on channel=2 note=61 velocity=80 time=0
EXTRACT: note_on channel=2 note=59 velocity=80 time=0
EXTRACT: note_off channel=11 note=64 velocity=64 time=0.14285699999999998
EXTRACT: note_on channel=11 note=64 velocity=80 time=0
EXTRACT: note_off channel=0 note=64 velocity=64 time=0
EXTRACT: note_off channel=0 note=61 velocity=64 time=0
EXTRACT: note_off channel=0 note=56 velocity=64 time=0
EXTRACT: note_off channel=0 note=45 velocity=64 time=0
EXTRACT: note_on channel=0 note=64 velocity=72 time=0
EXTRACT: note_on channel=0 note=61 velocity=72 time=0
EXTRACT: note_on channel=0 note=56 velocity=72 time=0
EXTRACT: note_off channel=6 note=67 velocity=64 time=0
EXTRACT: note_off channel=6 note=62 velocity=64 time=0
EXTRACT: note_on channel=6 note=67 velocity=80 time=0
EXTRACT: note_on channel=6 note=62 velocity=80 time=0
EXTRACT: note_off channel=4 note=40 velocity=64 time=0
EXTRACT: note_off channel=2 note=68 velocity=64 time=0
EXTRACT: note_off channel=2 note=64 velocity=64 time=0
EXTRACT: note_off channel=2 note=61 velocity=64 time=0
EXTRACT: note_off channel=2 note=59 velocity=64 time=0
EXTRACT: note_off channel=9 note=82 velocity=64 time=0
EXTRACT: note_off channel=9 note=42 velocity=64 time=0
EXTRACT: note_on channel=9 note=42 velocity=80 time=0
EXTRACT: note_on channel=9 note=57 velocity=80 time=0
EXTRACT: note_on channel=9 note=38 velocity=80 time=0
EXTRACT: note_off channel=11 note=64 velocity=64 time=0.14285699999999998
EXTRACT: note_on channel=11 note=60 velocity=80 time=0
EXTRACT: note_off channel=0 note=64 velocity=64 time=0
EXTRACT: note_off channel=0 note=61 velocity=64 time=0
EXTRACT: note_off channel=0 note=56 velocity=64 time=0
EXTRACT: note_on channel=0 note=64 velocity=72 time=0
EXTRACT: note_on channel=0 note=61 velocity=72 time=0
EXTRACT: note_on channel=0 note=56 velocity=72 time=0
EXTRACT: note_off channel=6 note=67 velocity=64 time=0
EXTRACT: note_off channel=6 note=62 velocity=64 time=0
EXTRACT: note_on channel=6 note=67 velocity=80 time=0
EXTRACT: note_on channel=6 note=62 velocity=80 time=0
EXTRACT: note_on channel=4 note=33 velocity=80 time=0
EXTRACT: note_off channel=0 note=64 velocity=64 time=0.14285699999999998
EXTRACT: note_off channel=0 note=61 velocity=64 time=0
EXTRACT: note_off channel=0 note=56 velocity=64 time=0
EXTRACT: note_on channel=0 note=69 velocity=72 time=0
EXTRACT: note_on channel=0 note=64 velocity=72 time=0
EXTRACT: note_on channel=0 note=60 velocity=72 time=0
EXTRACT: note_on channel=0 note=55 velocity=72 time=0
EXTRACT: note_on channel=0 note=50 velocity=72 time=0
EXTRACT: note_off channel=6 note=67 velocity=64 time=0
EXTRACT: note_off channel=6 note=62 velocity=64 time=0
EXTRACT: note_on channel=6 note=67 velocity=80 time=0
EXTRACT: note_on channel=6 note=62 velocity=80 time=0
EXTRACT: note_off channel=4 note=33 velocity=64 time=0
EXTRACT: note_on channel=4 note=38 velocity=80 time=0
EXTRACT: note_on channel=2 note=64 velocity=80 time=0
EXTRACT: note_on channel=2 note=60 velocity=80 time=0
EXTRACT: note_on channel=2 note=59 velocity=80 time=0
EXTRACT: note_on channel=2 note=55 velocity=80 time=0
EXTRACT: note_off channel=9 note=42 velocity=64 time=0
EXTRACT: note_off channel=9 note=57 velocity=64 time=0
EXTRACT: note_off channel=9 note=38 velocity=64 time=0
EXTRACT: note_on channel=9 note=42 velocity=80 time=0
EXTRACT: note_on channel=9 note=35 velocity=80 time=0
EXTRACT: note_off channel=11 note=60 velocity=64 time=0.14285699999999998
EXTRACT: note_on channel=11 note=59 velocity=80 time=0
EXTRACT: note_off channel=6 note=67 velocity=64 time=0
EXTRACT: note_off channel=6 note=62 velocity=64 time=0
EXTRACT: note_on channel=6 note=67 velocity=80 time=0
EXTRACT: note_on channel=6 note=62 velocity=80 time=0
EXTRACT: note_off channel=11 note=59 velocity=64 time=0.14285699999999998
EXTRACT: note_on channel=11 note=57 velocity=80 time=0
EXTRACT: note_off channel=0 note=69 velocity=64 time=0
EXTRACT: note_off channel=0 note=64 velocity=64 time=0
EXTRACT: note_off channel=0 note=60 velocity=64 time=0
EXTRACT: note_off channel=0 note=55 velocity=64 time=0
EXTRACT: note_off channel=0 note=50 velocity=64 time=0
EXTRACT: note_off channel=6 note=67 velocity=64 time=0
EXTRACT: note_off channel=6 note=62 velocity=64 time=0
EXTRACT: note_on channel=6 note=67 velocity=80 time=0
EXTRACT: note_on channel=6 note=62 velocity=80 time=0
EXTRACT: note_off channel=4 note=38 velocity=64 time=0
EXTRACT: note_off channel=2 note=64 velocity=64 time=0
EXTRACT: note_off channel=2 note=60 velocity=64 time=0
EXTRACT: note_off channel=2 note=59 velocity=64 time=0
EXTRACT: note_off channel=2 note=55 velocity=64 time=0
EXTRACT: note_on channel=9 note=82 velocity=64 time=0
EXTRACT: note_off channel=9 note=42 velocity=64 time=0
EXTRACT: note_off channel=9 note=35 velocity=64 time=0
EXTRACT: note_on channel=9 note=42 velocity=80 time=0
EXTRACT: note_on channel=9 note=57 velocity=80 time=0
EXTRACT: note_off channel=11 note=57 velocity=64 time=0.14285699999999998
EXTRACT: note_on channel=11 note=57 velocity=80 time=0
EXTRACT: note_on channel=0 note=69 velocity=72 time=0
EXTRACT: note_on channel=0 note=64 velocity=72 time=0
EXTRACT: note_on channel=0 note=60 velocity=72 time=0
EXTRACT: note_off channel=6 note=67 velocity=64 time=0
EXTRACT: note_off channel=6 note=62 velocity=64 time=0
EXTRACT: note_on channel=6 note=67 velocity=80 time=0
EXTRACT: note_on channel=6 note=62 velocity=80 time=0
EXTRACT: note_off channel=9 note=82 velocity=64 time=0
EXTRACT: note_on channel=9 note=82 velocity=64 time=0
EXTRACT: note_off channel=11 note=57 velocity=64 time=0.14285699999999998
EXTRACT: note_off channel=0 note=69 velocity=64 time=0
EXTRACT: note_off channel=0 note=64 velocity=64 time=0
EXTRACT: note_off channel=0 note=60 velocity=64 time=0
EXTRACT: note_on channel=0 note=64 velocity=72 time=0
EXTRACT: note_on channel=0 note=60 velocity=72 time=0
EXTRACT: note_on channel=0 note=55 velocity=72 time=0
EXTRACT: note_on channel=0 note=50 velocity=72 time=0
EXTRACT: note_off channel=6 note=67 velocity=64 time=0
EXTRACT: note_off channel=6 note=62 velocity=64 time=0
EXTRACT: note_on channel=6 note=67 velocity=80 time=0
EXTRACT: note_on channel=6 note=62 velocity=80 time=0
EXTRACT: note_on channel=2 note=64 velocity=80 time=0
EXTRACT: note_on channel=2 note=60 velocity=80 time=0
EXTRACT: note_on channel=2 note=59 velocity=80 time=0
EXTRACT: note_on channel=2 note=55 velocity=80 time=0
EXTRACT: note_off channel=9 note=82 velocity=64 time=0
EXTRACT: note_on channel=9 note=82 velocity=64 time=0
EXTRACT: note_off channel=9 note=42 velocity=64 time=0
EXTRACT: note_off channel=9 note=57 velocity=64 time=0
EXTRACT: note_on channel=9 note=42 velocity=80 time=0
EXTRACT: note_off channel=6 note=67 velocity=64 time=0.14285699999999998
EXTRACT: note_off channel=6 note=62 velocity=64 time=0
EXTRACT: note_on channel=6 note=67 velocity=80 time=0
EXTRACT: note_on channel=6 note=62 velocity=80 time=0
EXTRACT: note_on channel=4 note=33 velocity=80 time=0
EXTRACT: note_on channel=11 note=52 velocity=80 time=0.14285699999999998
EXTRACT: note_off channel=0 note=64 velocity=64 time=0
EXTRACT: note_off channel=0 note=60 velocity=64 time=0
EXTRACT: note_off channel=0 note=55 velocity=64 time=0
EXTRACT: note_off channel=0 note=50 velocity=64 time=0
EXTRACT: note_on channel=0 note=69 velocity=72 time=0
EXTRACT: note_on channel=0 note=64 velocity=72 time=0
EXTRACT: note_on channel=0 note=60 velocity=72 time=0
EXTRACT: note_on channel=0 note=55 velocity=72 time=0
EXTRACT: note_on channel=0 note=50 velocity=72 time=0
EXTRACT: note_off channel=6 note=67 velocity=64 time=0
EXTRACT: note_off channel=6 note=62 velocity=64 time=0
EXTRACT: note_on channel=6 note=67 velocity=80 time=0
EXTRACT: note_on channel=6 note=62 velocity=80 time=0
EXTRACT: note_off channel=4 note=33 velocity=64 time=0
EXTRACT: note_on channel=4 note=38 velocity=80 time=0
EXTRACT: note_off channel=2 note=64 velocity=64 time=0
EXTRACT: note_off channel=2 note=60 velocity=64 time=0
EXTRACT: note_off channel=2 note=59 velocity=64 time=0
EXTRACT: note_off channel=2 note=55 velocity=64 time=0
EXTRACT: note_on channel=2 note=64 velocity=80 time=0
EXTRACT: note_on channel=2 note=60 velocity=80 time=0
EXTRACT: note_on channel=2 note=59 velocity=80 time=0
EXTRACT: note_on channel=2 note=55 velocity=80 time=0
EXTRACT: note_off channel=9 note=82 velocity=64 time=0
EXTRACT: note_off channel=9 note=42 velocity=64 time=0
EXTRACT: note_on channel=9 note=42 velocity=80 time=0
EXTRACT: note_on channel=9 note=57 velocity=80 time=0
EXTRACT: note_on channel=9 note=38 velocity=80 time=0
EXTRACT: note_off channel=11 note=52 velocity=64 time=0.14285699999999998
EXTRACT: note_on channel=11 note=54 velocity=80 time=0
EXTRACT: note_off channel=6 note=67 velocity=64 time=0
EXTRACT: note_off channel=6 note=62 velocity=64 time=0
EXTRACT: note_on channel=6 note=67 velocity=80 time=0
EXTRACT: note_on channel=6 note=62 velocity=80 time=0
EXTRACT: note_off channel=4 note=38 velocity=64 time=0
EXTRACT: note_on channel=4 note=33 velocity=80 time=0
EXTRACT: note_off channel=11 note=54 velocity=64 time=0.14285699999999998
EXTRACT: note_on channel=11 note=57 velocity=80 time=0
EXTRACT: note_off channel=0 note=69 velocity=64 time=0
EXTRACT: note_off channel=0 note=64 velocity=64 time=0
EXTRACT: note_off channel=0 note=60 velocity=64 time=0
EXTRACT: note_off channel=0 note=55 velocity=64 time=0
EXTRACT: note_off channel=0 note=50 velocity=64 time=0
EXTRACT: note_on channel=0 note=66 velocity=72 time=0
EXTRACT: note_on channel=0 note=61 velocity=72 time=0
EXTRACT: note_on channel=0 note=57 velocity=72 time=0
EXTRACT: note_off channel=6 note=67 velocity=64 time=0
EXTRACT: note_off channel=6 note=62 velocity=64 time=0
EXTRACT: note_on channel=6 note=67 velocity=80 time=0
EXTRACT: note_on channel=6 note=62 velocity=80 time=0
EXTRACT: note_off channel=4 note=33 velocity=64 time=0
EXTRACT: note_on channel=4 note=37 velocity=80 time=0
EXTRACT: note_off channel=9 note=42 velocity=64 time=0
EXTRACT: note_off channel=9 note=57 velocity=64 time=0
EXTRACT: note_off channel=9 note=38 velocity=64 time=0
EXTRACT: note_on channel=9 note=42 velocity=80 time=0
EXTRACT: note_off channel=11 note=57 velocity=64 time=0.14285699999999998
EXTRACT: note_on channel=11 note=59 velocity=80 time=0
EXTRACT: note_off channel=0 note=66 velocity=64 time=0
EXTRACT: note_off channel=0 note=61 velocity=64 time=0
EXTRACT: note_off channel=0 note=57 velocity=64 time=0
EXTRACT: note_on channel=0 note=66 velocity=72 time=0
EXTRACT: note_on channel=0 note=61 velocity=72 time=0
EXTRACT: note_on channel=0 note=57 velocity=72 time=0
EXTRACT: note_off channel=6 note=67 velocity=64 time=0
EXTRACT: note_off channel=6 note=62 velocity=64 time=0
EXTRACT: note_on channel=6 note=67 velocity=80 time=0
EXTRACT: note_on channel=6 note=62 velocity=80 time=0
EXTRACT: note_off channel=11 note=59 velocity=64 time=0.14285699999999998
EXTRACT: note_off channel=0 note=66 velocity=64 time=0
EXTRACT: note_off channel=0 note=61 velocity=64 time=0
EXTRACT: note_off channel=0 note=57 velocity=64 time=0
EXTRACT: note_on channel=0 note=66 velocity=72 time=0
EXTRACT: note_on channel=0 note=62 velocity=72 time=0
EXTRACT: note_on channel=0 note=57 velocity=72 time=0
EXTRACT: note_on channel=0 note=54 velocity=72 time=0
EXTRACT: note_on channel=0 note=47 velocity=72 time=0
EXTRACT: note_off channel=6 note=67 velocity=64 time=0
EXTRACT: note_off channel=6 note=62 velocity=64 time=0
EXTRACT: note_on channel=6 note=69 velocity=80 time=0
EXTRACT: note_on channel=6 note=64 velocity=80 time=0
EXTRACT: note_off channel=4 note=37 velocity=64 time=0
EXTRACT: note_on channel=4 note=35 velocity=80 time=0
EXTRACT: note_off channel=2 note=64 velocity=64 time=0
EXTRACT: note_off channel=2 note=60 velocity=64 time=0
EXTRACT: note_off channel=2 note=59 velocity=64 time=0
EXTRACT: note_off channel=2 note=55 velocity=64 time=0
EXTRACT: note_on channel=2 note=66 velocity=80 time=0
EXTRACT: note_on channel=2 note=62 velocity=80 time=0
EXTRACT: note_on channel=2 note=57 velocity=80 time=0
EXTRACT: note_on channel=9 note=82 velocity=64 time=0
EXTRACT: note_off channel=9 note=42 velocity=64 time=0
EXTRACT: note_on channel=9 note=49 velocity=80 time=0
EXTRACT: note_on channel=9 note=57 velocity=80 time=0
EXTRACT: note_on channel=9 note=35 velocity=80 time=0
EXTRACT: note_off channel=6 note=69 velocity=64 time=0.14285699999999998
EXTRACT: note_off channel=6 note=64 velocity=64 time=0
EXTRACT: note_on channel=6 note=69 velocity=80 time=0
EXTRACT: note_on channel=6 note=64 velocity=80 time=0
EXTRACT: note_off channel=9 note=82 velocity=64 time=0
EXTRACT: note_on channel=9 note=82 velocity=64 time=0
EXTRACT: note_off channel=6 note=69 velocity=64 time=0.14285699999999998
EXTRACT: note_off channel=6 note=64 velocity=64 time=0
EXTRACT: note_on channel=6 note=69 velocity=80 time=0
EXTRACT: note_on channel=6 note=64 velocity=80 time=0
EXTRACT: note_off channel=4 note=35 velocity=64 time=0
EXTRACT: note_off channel=9 note=82 velocity=64 time=0
EXTRACT: note_on channel=9 note=82 velocity=64 time=0
EXTRACT: note_off channel=9 note=49 velocity=64 time=0
EXTRACT: note_off channel=9 note=57 velocity=64 time=0
EXTRACT: note_off channel=9 note=35 velocity=64 time=0
EXTRACT: note_on channel=9 note=42 velocity=80 time=0
EXTRACT: note_off channel=0 note=66 velocity=64 time=0.14285699999999998
EXTRACT: note_off channel=0 note=62 velocity=64 time=0
EXTRACT: note_off channel=0 note=57 velocity=64 time=0
EXTRACT: note_off channel=0 note=54 velocity=64 time=0
EXTRACT: note_off channel=0 note=47 velocity=64 time=0
EXTRACT: note_on channel=0 note=66 velocity=72 time=0
EXTRACT: note_on channel=0 note=62 velocity=72 time=0
EXTRACT: note_on channel=0 note=57 velocity=72 time=0
EXTRACT: note_on channel=0 note=54 velocity=72 time=0
EXTRACT: note_on channel=0 note=47 velocity=72 time=0
EXTRACT: note_off channel=6 note=69 velocity=64 time=0
EXTRACT: note_off channel=6 note=64 velocity=64 time=0
EXTRACT: note_on channel=6 note=69 velocity=80 time=0
EXTRACT: note_on channel=6 note=64 velocity=80 time=0
EXTRACT: note_on channel=4 note=35 velocity=80 time=0
EXTRACT: note_off channel=2 note=66 velocity=64 time=0
EXTRACT: note_off channel=2 note=62 velocity=64 time=0
EXTRACT: note_off channel=2 note=57 velocity=64 time=0
EXTRACT: note_on channel=2 note=66 velocity=80 time=0
EXTRACT: note_on channel=2 note=62 velocity=80 time=0
EXTRACT: note_on channel=2 note=57 velocity=80 time=0
EXTRACT: note_off channel=0 note=66 velocity=64 time=0.14285699999999998
EXTRACT: note_off channel=0 note=62 velocity=64 time=0
EXTRACT: note_off channel=0 note=57 velocity=64 time=0
EXTRACT: note_off channel=0 note=54 velocity=64 time=0
EXTRACT: note_off channel=0 note=47 velocity=64 time=0
EXTRACT: note_on channel=0 note=66 velocity=72 time=0
EXTRACT: note_on channel=0 note=62 velocity=72 time=0
EXTRACT: note_on channel=0 note=57 velocity=72 time=0
EXTRACT: note_off channel=6 note=69 velocity=64 time=0
EXTRACT: note_off channel=6 note=64 velocity=64 time=0
EXTRACT: note_on channel=6 note=69 velocity=80 time=0
EXTRACT: note_on channel=6 note=64 velocity=80 time=0
EXTRACT: note_off channel=4 note=35 velocity=64 time=0
EXTRACT: note_off channel=2 note=66 velocity=64 time=0
EXTRACT: note_off channel=2 note=62 velocity=64 time=0
EXTRACT: note_off channel=2 note=57 velocity=64 time=0
EXTRACT: note_off channel=9 note=82 velocity=64 time=0
EXTRACT: note_off channel=9 note=42 velocity=64 time=0
EXTRACT: note_on channel=9 note=42 velocity=80 time=0
EXTRACT: note_on channel=9 note=57 velocity=80 time=0
EXTRACT: note_on channel=9 note=38 velocity=80 time=0
EXTRACT: note_off channel=0 note=66 velocity=64 time=0.14285699999999998
EXTRACT: note_off channel=0 note=62 velocity=64 time=0
EXTRACT: note_off channel=0 note=57 velocity=64 time=0
EXTRACT: note_on channel=0 note=66 velocity=72 time=0
EXTRACT: note_on channel=0 note=62 velocity=72 time=0
EXTRACT: note_on channel=0 note=57 velocity=72 time=0
EXTRACT: note_off channel=6 note=69 velocity=64 time=0
EXTRACT: note_off channel=6 note=64 velocity=64 time=0
EXTRACT: note_on channel=6 note=69 velocity=80 time=0
EXTRACT: note_on channel=6 note=64 velocity=80 time=0
EXTRACT: note_off channel=0 note=66 velocity=64 time=0.14285699999999998
EXTRACT: note_off channel=0 note=62 velocity=64 time=0
EXTRACT: note_off channel=0 note=57 velocity=64 time=0
EXTRACT: note_on channel=0 note=66 velocity=72 time=0
EXTRACT: note_on channel=0 note=61 velocity=72 time=0
EXTRACT: note_on channel=0 note=57 velocity=72 time=0
EXTRACT: note_on channel=0 note=52 velocity=72 time=0
EXTRACT: note_on channel=0 note=49 velocity=72 time=0
EXTRACT: note_off channel=6 note=69 velocity=64 time=0
EXTRACT: note_off channel=6 note=64 velocity=64 time=0
EXTRACT: note_on channel=6 note=69 velocity=80 time=0
EXTRACT: note_on channel=6 note=64 velocity=80 time=0
EXTRACT: note_on channel=4 note=30 velocity=80 time=0
EXTRACT: note_on channel=2 note=69 velocity=80 time=0
EXTRACT: note_on channel=2 note=64 velocity=80 time=0
EXTRACT: note_on channel=2 note=61 velocity=80 time=0
EXTRACT: note_on channel=2 note=57 velocity=80 time=0
EXTRACT: note_off channel=9 note=42 velocity=64 time=0
EXTRACT: note_off channel=9 note=57 velocity=64 time=0
EXTRACT: note_off channel=9 note=38 velocity=64 time=0
EXTRACT: note_on channel=9 note=42 velocity=80 time=0
EXTRACT: note_on channel=9 note=35 velocity=80 time=0
EXTRACT: note_on channel=11 note=57 velocity=80 time=0.14285699999999998
EXTRACT: note_off channel=6 note=69 velocity=64 time=0
EXTRACT: note_off channel=6 note=64 velocity=64 time=0
EXTRACT: note_on channel=6 note=69 velocity=80 time=0
EXTRACT: note_on channel=6 note=64 velocity=80 time=0
EXTRACT: note_off channel=11 note=57 velocity=64 time=0.14285699999999998
EXTRACT: note_on channel=11 note=59 velocity=80 time=0
EXTRACT: note_off channel=0 note=66 velocity=64 time=0
EXTRACT: note_off channel=0 note=61 velocity=64 time=0
EXTRACT: note_off channel=0 note=57 velocity=64 time=0
EXTRACT: note_off channel=0 note=52 velocity=64 time=0
EXTRACT: note_off channel=0 note=49 velocity=64 time=0
EXTRACT: note_off channel=6 note=69 velocity=64 time=0
EXTRACT: note_off channel=6 note=64 velocity=64 time=0
EXTRACT: note_on channel=6 note=69 velocity=80 time=0
EXTRACT: note_on channel=6 note=64 velocity=80 time=0
EXTRACT: note_off channel=4 note=30 velocity=64 time=0
EXTRACT: note_off channel=2 note=69 velocity=64 time=0
EXTRACT: note_off channel=2 note=64 velocity=64 time=0
EXTRACT: note_off channel=2 note=61 velocity=64 time=0
EXTRACT: note_off channel=2 note=57 velocity=64 time=0
EXTRACT: note_on channel=9 note=82 velocity=64 time=0
EXTRACT: note_off channel=9 note=42 velocity=64 time=0
EXTRACT: note_off channel=9 note=35 velocity=64 time=0
EXTRACT: note_on channel=9 note=42 velocity=80 time=0
EXTRACT: note_on channel=9 note=57 velocity=80 time=0
EXTRACT: note_off channel=11 note=59 velocity=64 time=0.14285699999999998
EXTRACT: note_on channel=11 note=57 velocity=80 time=0
EXTRACT: note_on channel=0 note=66 velocity=72 time=0
EXTRACT: note_on channel=0 note=61 velocity=72 time=0
EXTRACT: note_on channel=0 note=57 velocity=72 time=0
EXTRACT: note_off channel=9 note=82 velocity=64 time=0
EXTRACT: note_on channel=9 note=82 velocity=64 time=0
EXTRACT: note_off channel=0 note=66 velocity=64 time=0.14285699999999998
EXTRACT: note_off channel=0 note=61 velocity=64 time=0
EXTRACT: note_off channel=0 note=57 velocity=64 time=0
EXTRACT: note_on channel=0 note=61 velocity=72 time=0
EXTRACT: note_on channel=0 note=57 velocity=72 time=0
EXTRACT: note_on channel=0 note=52 velocity=72 time=0
EXTRACT: note_on channel=0 note=49 velocity=72 time=0
EXTRACT: note_off channel=6 note=69 velocity=64 time=0
EXTRACT: note_off channel=6 note=64 velocity=64 time=0
EXTRACT: note_on channel=6 note=69 velocity=80 time=0
EXTRACT: note_on channel=6 note=64 velocity=80 time=0
EXTRACT: note_off channel=9 note=82 velocity=64 time=0
EXTRACT: note_on channel=9 note=82 velocity=64 time=0
EXTRACT: note_off channel=9 note=42 velocity=64 time=0
EXTRACT: note_off channel=9 note=57 velocity=64 time=0
EXTRACT: note_on channel=9 note=42 velocity=80 time=0
EXTRACT: note_off channel=11 note=57 velocity=64 time=0.14285699999999998
EXTRACT: note_on channel=11 note=59 velocity=80 time=0
EXTRACT: note_off channel=11 note=59 velocity=64 time=0.14285699999999998
EXTRACT: note_off channel=0 note=61 velocity=64 time=0
EXTRACT: note_off channel=0 note=57 velocity=64 time=0
EXTRACT: note_off channel=0 note=52 velocity=64 time=0
EXTRACT: note_off channel=0 note=49 velocity=64 time=0
EXTRACT: note_on channel=0 note=66 velocity=72 time=0
EXTRACT: note_on channel=0 note=61 velocity=72 time=0
EXTRACT: note_on channel=0 note=57 velocity=72 time=0
EXTRACT: note_on channel=0 note=52 velocity=72 time=0
EXTRACT: note_on channel=0 note=49 velocity=72 time=0
EXTRACT: note_off channel=6 note=69 velocity=64 time=0
EXTRACT: note_off channel=6 note=64 velocity=64 time=0
EXTRACT: note_on channel=6 note=69 velocity=80 time=0
EXTRACT: note_on channel=6 note=64 velocity=80 time=0
EXTRACT: note_on channel=4 note=37 velocity=80 time=0
EXTRACT: note_on channel=2 note=69 velocity=80 time=0
EXTRACT: note_on channel=2 note=64 velocity=80 time=0
EXTRACT: note_on channel=2 note=61 velocity=80 time=0
EXTRACT: note_on channel=2 note=57 velocity=80 time=0
EXTRACT: note_off channel=9 note=82 velocity=64 time=0
EXTRACT: note_off channel=9 note=42 velocity=64 time=0
EXTRACT: note_on channel=9 note=42 velocity=80 time=0
EXTRACT: note_on channel=9 note=57 velocity=80 time=0
EXTRACT: note_on channel=9 note=38 velocity=80 time=0
EXTRACT: note_on channel=11 note=57 velocity=80 time=0.14285699999999998
EXTRACT: note_off channel=6 note=69 velocity=64 time=0
EXTRACT: note_off channel=6 note=64 velocity=64 time=0
EXTRACT: note_on channel=6 note=69 velocity=80 time=0
EXTRACT: note_on channel=6 note=64 velocity=80 time=0
EXTRACT: note_off channel=4 note=37 velocity=64 time=0
EXTRACT: note_on channel=4 note=42 velocity=80 time=0
EXTRACT: note_off channel=0 note=66 velocity=64 time=0.14285699999999998
EXTRACT: note_off channel=0 note=61 velocity=64 time=0
EXTRACT: note_off channel=0 note=57 velocity=64 time=0
EXTRACT: note_off channel=0 note=52 velocity=64 time=0
EXTRACT: note_off channel=0 note=49 velocity=64 time=0
EXTRACT: note_on channel=0 note=66 velocity=72 time=0
EXTRACT: note_on channel=0 note=61 velocity=72 time=0
EXTRACT: note_on channel=0 note=57 velocity=72 time=0
EXTRACT: note_off channel=6 note=69 velocity=64 time=0
EXTRACT: note_off channel=6 note=64 velocity=64 time=0
EXTRACT: note_on channel=6 note=69 velocity=80 time=0
EXTRACT: note_on channel=6 note=64 velocity=80 time=0
EXTRACT: note_off channel=4 note=42 velocity=64 time=0
EXTRACT: note_off channel=9 note=42 velocity=64 time=0
EXTRACT: note_off channel=9 note=57 velocity=64 time=0
EXTRACT: note_off channel=9 note=38 velocity=64 time=0
EXTRACT: note_on channel=9 note=42 velocity=80 time=0
EXTRACT: note_off channel=11 note=57 velocity=64 time=0.14285699999999998
EXTRACT: note_on channel=11 note=59 velocity=80 time=0
EXTRACT: note_off channel=0 note=66 velocity=64 time=0
EXTRACT: note_off channel=0 note=61 velocity=64 time=0
EXTRACT: note_off channel=0 note=57 velocity=64 time=0
EXTRACT: note_on channel=0 note=66 velocity=72 time=0
EXTRACT: note_on channel=0 note=61 velocity=72 time=0
EXTRACT: note_on channel=0 note=57 velocity=72 time=0
EXTRACT: note_off channel=6 note=69 velocity=64 time=0
EXTRACT: note_off channel=6 note=64 velocity=64 time=0
EXTRACT: note_on channel=6 note=69 velocity=80 time=0
EXTRACT: note_on channel=6 note=64 velocity=80 time=0
EXTRACT: note_off channel=11 note=59 velocity=64 time=0.14285699999999998
EXTRACT: note_on channel=11 note=60 velocity=80 time=0
EXTRACT: note_off channel=0 note=66 velocity=64 time=0
EXTRACT: note_off channel=0 note=61 velocity=64 time=0
EXTRACT: note_off channel=0 note=57 velocity=64 time=0
EXTRACT: note_on channel=0 note=66 velocity=72 time=0
EXTRACT: note_on channel=0 note=62 velocity=72 time=0
EXTRACT: note_on channel=0 note=57 velocity=72 time=0
EXTRACT: note_on channel=0 note=54 velocity=72 time=0
EXTRACT: note_on channel=0 note=47 velocity=72 time=0
EXTRACT: note_off channel=6 note=69 velocity=64 time=0
EXTRACT: note_off channel=6 note=64 velocity=64 time=0
EXTRACT: note_on channel=6 note=69 velocity=80 time=0
EXTRACT: note_on channel=6 note=64 velocity=80 time=0
EXTRACT: note_on channel=4 note=35 velocity=80 time=0
EXTRACT: note_off channel=2 note=69 velocity=64 time=0
EXTRACT: note_off channel=2 note=64 velocity=64 time=0
EXTRACT: note_off channel=2 note=61 velocity=64 time=0
EXTRACT: note_off channel=2 note=57 velocity=64 time=0
EXTRACT: note_on channel=2 note=66 velocity=80 time=0
EXTRACT: note_on channel=2 note=62 velocity=80 time=0
EXTRACT: note_on channel=2 note=57 velocity=80 time=0
EXTRACT: note_on channel=9 note=82 velocity=64 time=0
EXTRACT: note_off channel=9 note=42 velocity=64 time=0
EXTRACT: note_on channel=9 note=42 velocity=80 time=0
EXTRACT: note_on channel=9 note=57 velocity=80 time=0
EXTRACT: note_on channel=9 note=35 velocity=80 time=0
EXTRACT: note_off channel=11 note=60 velocity=64 time=0.14285699999999998
EXTRACT: note_on channel=11 note=59 velocity=80 time=0
EXTRACT: note_off channel=6 note=69 velocity=64 time=0
EXTRACT: note_off channel=6 note=64 velocity=64 time=0
EXTRACT: note_on channel=6 note=69 velocity=80 time=0
EXTRACT: note_on channel=6 note=64 velocity=80 time=0
EXTRACT: note_off channel=9 note=82 velocity=64 time=0
EXTRACT: note_on channel=9 note=82 velocity=64 time=0
EXTRACT: note_off channel=11 note=59 velocity=64 time=0.14285699999999998
EXTRACT: note_on channel=11 note=59 velocity=80 time=0
EXTRACT: note_off channel=6 note=69 velocity=64 time=0
EXTRACT: note_off channel=6 note=64 velocity=64 time=0
EXTRACT: note_on channel=6 note=69 velocity=80 time=0
EXTRACT: note_on channel=6 note=64 velocity=80 time=0
EXTRACT: note_off channel=4 note=35 velocity=64 time=0
EXTRACT: note_off channel=9 note=82 velocity=64 time=0
EXTRACT: note_on channel=9 note=82 velocity=64 time=0
EXTRACT: note_off channel=9 note=42 velocity=64 time=0
EXTRACT: note_off channel=9 note=57 velocity=64 time=0
EXTRACT: note_off channel=9 note=35 velocity=64 time=0
EXTRACT: note_on channel=9 note=42 velocity=80 time=0
EXTRACT: note_off channel=11 note=59 velocity=64 time=0.14285699999999998
EXTRACT: note_on channel=11 note=59 velocity=80 time=0
EXTRACT: note_off channel=0 note=66 velocity=64 time=0
EXTRACT: note_off channel=0 note=62 velocity=64 time=0
EXTRACT: note_off channel=0 note=57 velocity=64 time=0
EXTRACT: note_off channel=0 note=54 velocity=64 time=0
EXTRACT: note_off channel=0 note=47 velocity=64 time=0
EXTRACT: note_on channel=0 note=66 velocity=72 time=0
EXTRACT: note_on channel=0 note=62 velocity=72 time=0
EXTRACT: note_on channel=0 note=57 velocity=72 time=0
EXTRACT: note_on channel=0 note=54 velocity=72 time=0
EXTRACT: note_on channel=0 note=47 velocity=72 time=0
EXTRACT: note_off channel=6 note=69 velocity=64 time=0
EXTRACT: note_off channel=6 note=64 velocity=64 time=0
EXTRACT: note_on channel=6 note=69 velocity=80 time=0
EXTRACT: note_on channel=6 note=64 velocity=80 time=0
EXTRACT: note_on channel=4 note=35 velocity=80 time=0
EXTRACT: note_off channel=2 note=66 velocity=64 time=0
EXTRACT: note_off channel=2 note=62 velocity=64 time=0
EXTRACT: note_off channel=2 note=57 velocity=64 time=0
EXTRACT: note_on channel=2 note=66 velocity=80 time=0
EXTRACT: note_on channel=2 note=62 velocity=80 time=0
EXTRACT: note_on channel=2 note=57 velocity=80 time=0
EXTRACT: note_off channel=11 note=59 velocity=64 time=0.14285699999999998
EXTRACT: note_off channel=0 note=66 velocity=64 time=0
EXTRACT: note_off channel=0 note=62 velocity=64 time=0
EXTRACT: note_off channel=0 note=57 velocity=64 time=0
EXTRACT: note_off channel=0 note=54 velocity=64 time=0
EXTRACT: note_off channel=0 note=47 velocity=64 time=0
EXTRACT: note_on channel=0 note=66 velocity=72 time=0
EXTRACT: note_on channel=0 note=62 velocity=72 time=0
EXTRACT: note_on channel=0 note=57 velocity=72 time=0
EXTRACT: note_off channel=6 note=69 velocity=64 time=0
EXTRACT: note_off channel=6 note=64 velocity=64 time=0
EXTRACT: note_on channel=6 note=69 velocity=80 time=0
EXTRACT: note_on channel=6 note=64 velocity=80 time=0
EXTRACT: note_off channel=4 note=35 velocity=64 time=0
EXTRACT: note_off channel=2 note=66 velocity=64 time=0
EXTRACT: note_off channel=2 note=62 velocity=64 time=0
EXTRACT: note_off channel=2 note=57 velocity=64 time=0
EXTRACT: note_off channel=9 note=82 velocity=64 time=0
EXTRACT: note_off channel=9 note=42 velocity=64 time=0
EXTRACT: note_on channel=9 note=42 velocity=80 time=0
EXTRACT: note_on channel=9 note=57 velocity=80 time=0
EXTRACT: note_on channel=9 note=38 velocity=80 time=0
EXTRACT: note_on channel=11 note=57 velocity=80 time=0.14285699999999998
EXTRACT: note_off channel=0 note=66 velocity=64 time=0
EXTRACT: note_off channel=0 note=62 velocity=64 time=0
EXTRACT: note_off channel=0 note=57 velocity=64 time=0
EXTRACT: note_on channel=0 note=66 velocity=72 time=0
EXTRACT: note_on channel=0 note=62 velocity=72 time=0
EXTRACT: note_on channel=0 note=57 velocity=72 time=0
EXTRACT: note_off channel=6 note=69 velocity=64 time=0
EXTRACT: note_off channel=6 note=64 velocity=64 time=0
EXTRACT: note_on channel=6 note=69 velocity=80 time=0
EXTRACT: note_on channel=6 note=64 velocity=80 time=0
EXTRACT: note_off channel=0 note=66 velocity=64 time=0.14285699999999998
EXTRACT: note_off channel=0 note=62 velocity=64 time=0
EXTRACT: note_off channel=0 note=57 velocity=64 time=0
EXTRACT: note_on channel=0 note=66 velocity=72 time=0
EXTRACT: note_on channel=0 note=61 velocity=72 time=0
EXTRACT: note_on channel=0 note=57 velocity=72 time=0
EXTRACT: note_on channel=0 note=52 velocity=72 time=0
EXTRACT: note_on channel=0 note=49 velocity=72 time=0
EXTRACT: note_off channel=6 note=69 velocity=64 time=0
EXTRACT: note_off channel=6 note=64 velocity=64 time=0
EXTRACT: note_on channel=6 note=69 velocity=80 time=0
EXTRACT: note_on channel=6 note=64 velocity=80 time=0
EXTRACT: note_on channel=4 note=30 velocity=80 time=0
EXTRACT: note_on channel=2 note=69 velocity=80 time=0
EXTRACT: note_on channel=2 note=64 velocity=80 time=0
EXTRACT: note_on channel=2 note=61 velocity=80 time=0
EXTRACT: note_on channel=2 note=57 velocity=80 time=0
EXTRACT: note_off channel=9 note=42 velocity=64 time=0
EXTRACT: note_off channel=9 note=57 velocity=64 time=0
EXTRACT: note_off channel=9 note=38 velocity=64 time=0
EXTRACT: note_on channel=9 note=42 velocity=80 time=0
EXTRACT: note_on channel=9 note=35 velocity=80 time=0
EXTRACT: note_off channel=11 note=57 velocity=64 time=0.14285699999999998
EXTRACT: note_on channel=11 note=59 velocity=80 time=0
EXTRACT: note_off channel=6 note=69 velocity=64 time=0
EXTRACT: note_off channel=6 note=64 velocity=64 time=0
EXTRACT: note_on channel=6 note=69 velocity=80 time=0
EXTRACT: note_on channel=6 note=64 velocity=80 time=0
EXTRACT: note_off channel=11 note=59 velocity=64 time=0.14285699999999998
EXTRACT: note_on channel=11 note=57 velocity=80 time=0
EXTRACT: note_off channel=0 note=66 velocity=64 time=0
EXTRACT: note_off channel=0 note=61 velocity=64 time=0
EXTRACT: note_off channel=0 note=57 velocity=64 time=0
EXTRACT: note_off channel=0 note=52 velocity=64 time=0
EXTRACT: note_off channel=0 note=49 velocity=64 time=0
EXTRACT: note_off channel=6 note=69 velocity=64 time=0
EXTRACT: note_off channel=6 note=64 velocity=64 time=0
EXTRACT: note_on channel=6 note=69 velocity=80 time=0
EXTRACT: note_on channel=6 note=64 velocity=80 time=0
EXTRACT: note_off channel=4 note=30 velocity=64 time=0
EXTRACT: note_off channel=2 note=69 velocity=64 time=0
EXTRACT: note_off channel=2 note=64 velocity=64 time=0
EXTRACT: note_off channel=2 note=61 velocity=64 time=0
EXTRACT: note_off channel=2 note=57 velocity=64 time=0
EXTRACT: note_on channel=9 note=82 velocity=64 time=0
EXTRACT: note_off channel=9 note=42 velocity=64 time=0
EXTRACT: note_off channel=9 note=35 velocity=64 time=0
EXTRACT: note_on channel=9 note=42 velocity=80 time=0
EXTRACT: note_on channel=9 note=57 velocity=80 time=0
EXTRACT: note_off channel=11 note=57 velocity=64 time=0.14285699999999998
EXTRACT: note_on channel=11 note=57 velocity=80 time=0
EXTRACT: note_on channel=0 note=66 velocity=72 time=0
EXTRACT: note_on channel=0 note=61 velocity=72 time=0
EXTRACT: note_on channel=0 note=57 velocity=72 time=0
EXTRACT: note_off channel=9 note=82 velocity=64 time=0
EXTRACT: note_on channel=9 note=82 velocity=64 time=0
EXTRACT: note_off channel=11 note=57 velocity=64 time=0.14285699999999998
EXTRACT: note_off channel=0 note=66 velocity=64 time=0
EXTRACT: note_off channel=0 note=61 velocity=64 time=0
EXTRACT: note_off channel=0 note=57 velocity=64 time=0
EXTRACT: note_on channel=0 note=61 velocity=72 time=0
EXTRACT: note_on channel=0 note=57 velocity=72 time=0
EXTRACT: note_on channel=0 note=52 velocity=72 time=0
EXTRACT: note_on channel=0 note=49 velocity=72 time=0
EXTRACT: note_off channel=6 note=69 velocity=64 time=0
EXTRACT: note_off channel=6 note=64 velocity=64 time=0
EXTRACT: note_on channel=6 note=69 velocity=80 time=0
EXTRACT: note_on channel=6 note=64 velocity=80 time=0
EXTRACT: note_on channel=2 note=69 velocity=80 time=0
EXTRACT: note_on channel=2 note=64 velocity=80 time=0
EXTRACT: note_on channel=2 note=61 velocity=80 time=0
EXTRACT: note_on channel=2 note=57 velocity=80 time=0
EXTRACT: note_off channel=9 note=82 velocity=64 time=0
EXTRACT: note_on channel=9 note=82 velocity=64 time=0
EXTRACT: note_off channel=9 note=42 velocity=64 time=0
EXTRACT: note_off channel=9 note=57 velocity=64 time=0
EXTRACT: note_on channel=9 note=42 velocity=80 time=0
EXTRACT: note_on channel=11 note=52 velocity=80 time=0.28571399999999997
EXTRACT: note_off channel=0 note=61 velocity=64 time=0
EXTRACT: note_off channel=0 note=57 velocity=64 time=0
EXTRACT: note_off channel=0 note=52 velocity=64 time=0
EXTRACT: note_off channel=0 note=49 velocity=64 time=0
EXTRACT: note_on channel=0 note=66 velocity=72 time=0
EXTRACT: note_on channel=0 note=61 velocity=72 time=0
EXTRACT: note_on channel=0 note=57 velocity=72 time=0
EXTRACT: note_on channel=0 note=52 velocity=72 time=0
EXTRACT: note_on channel=0 note=49 velocity=72 time=0
EXTRACT: note_off channel=6 note=69 velocity=64 time=0
EXTRACT: note_off channel=6 note=64 velocity=64 time=0
EXTRACT: note_on channel=6 note=69 velocity=80 time=0
EXTRACT: note_on channel=6 note=64 velocity=80 time=0
EXTRACT: note_off channel=2 note=69 velocity=64 time=0
EXTRACT: note_off channel=2 note=64 velocity=64 time=0
EXTRACT: note_off channel=2 note=61 velocity=64 time=0
EXTRACT: note_off channel=2 note=57 velocity=64 time=0
EXTRACT: note_on channel=2 note=69 velocity=80 time=0
EXTRACT: note_on channel=2 note=64 velocity=80 time=0
EXTRACT: note_on channel=2 note=61 velocity=80 time=0
EXTRACT: note_on channel=2 note=57 velocity=80 time=0
EXTRACT: note_off channel=9 note=82 velocity=64 time=0
EXTRACT: note_off channel=9 note=42 velocity=64 time=0
EXTRACT: note_on channel=9 note=42 velocity=80 time=0
EXTRACT: note_on channel=9 note=57 velocity=80 time=0
EXTRACT: note_on channel=9 note=38 velocity=80 time=0
EXTRACT: note_off channel=11 note=52 velocity=64 time=0.14285699999999998
EXTRACT: note_on channel=11 note=54 velocity=80 time=0
EXTRACT: note_off channel=6 note=69 velocity=64 time=0
EXTRACT: note_off channel=6 note=64 velocity=64 time=0
EXTRACT: note_on channel=6 note=69 velocity=80 time=0
EXTRACT: note_on channel=6 note=64 velocity=80 time=0
EXTRACT: note_off channel=11 note=54 velocity=64 time=0.14285699999999998
EXTRACT: note_on channel=11 note=57 velocity=80 time=0
EXTRACT: note_off channel=0 note=66 velocity=64 time=0
EXTRACT: note_off channel=0 note=61 velocity=64 time=0
EXTRACT: note_off channel=0 note=57 velocity=64 time=0
EXTRACT: note_off channel=0 note=52 velocity=64 time=0
EXTRACT: note_off channel=0 note=49 velocity=64 time=0
EXTRACT: note_on channel=0 note=66 velocity=72 time=0
EXTRACT: note_on channel=0 note=61 velocity=72 time=0
EXTRACT: note_on channel=0 note=57 velocity=72 time=0
EXTRACT: note_off channel=6 note=69 velocity=64 time=0
EXTRACT: note_off channel=6 note=64 velocity=64 time=0
EXTRACT: note_on channel=6 note=69 velocity=80 time=0
EXTRACT: note_on channel=6 note=64 velocity=80 time=0
EXTRACT: note_on channel=4 note=33 velocity=80 time=0
EXTRACT: note_off channel=9 note=42 velocity=64 time=0
EXTRACT: note_off channel=9 note=57 velocity=64 time=0
EXTRACT: note_off channel=9 note=38 velocity=64 time=0
EXTRACT: note_on channel=9 note=42 velocity=80 time=0
EXTRACT: note_off channel=11 note=57 velocity=64 time=0.14285699999999998
EXTRACT: note_on channel=11 note=59 velocity=80 time=0
EXTRACT: note_off channel=0 note=66 velocity=64 time=0
EXTRACT: note_off channel=0 note=61 velocity=64 time=0
EXTRACT: note_off channel=0 note=57 velocity=64 time=0
EXTRACT: note_on channel=0 note=66 velocity=72 time=0
EXTRACT: note_on channel=0 note=61 velocity=72 time=0
EXTRACT: note_on channel=0 note=57 velocity=72 time=0
EXTRACT: note_off channel=6 note=69 velocity=64 time=0
EXTRACT: note_off channel=6 note=64 velocity=64 time=0
EXTRACT: note_on channel=6 note=69 velocity=80 time=0
EXTRACT: note_on channel=6 note=64 velocity=80 time=0
EXTRACT: note_off channel=4 note=33 velocity=64 time=0
EXTRACT: note_on channel=4 note=30 velocity=80 time=0
EXTRACT: note_off channel=11 note=59 velocity=64 time=0.14285699999999998
EXTRACT: note_off channel=0 note=66 velocity=64 time=0
EXTRACT: note_off channel=0 note=61 velocity=64 time=0
EXTRACT: note_off channel=0 note=57 velocity=64 time=0
EXTRACT: note_on channel=0 note=60 velocity=72 time=0
EXTRACT: note_on channel=0 note=57 velocity=72 time=0
EXTRACT: note_on channel=0 note=52 velocity=72 time=0
EXTRACT: note_on channel=0 note=41 velocity=72 time=0
EXTRACT: note_off channel=6 note=69 velocity=64 time=0
EXTRACT: note_off channel=6 note=64 velocity=64 time=0
EXTRACT: note_on channel=6 note=67 velocity=80 time=0
EXTRACT: note_on channel=6 note=62 velocity=80 time=0
EXTRACT: note_off channel=4 note=30 velocity=64 time=0
EXTRACT: note_on channel=4 note=29 velocity=80 time=0
EXTRACT: note_off channel=2 note=69 velocity=64 time=0
EXTRACT: note_off channel=2 note=64 velocity=64 time=0
EXTRACT: note_off channel=2 note=61 velocity=64 time=0
EXTRACT: note_off channel=2 note=57 velocity=64 time=0
EXTRACT: note_on channel=2 note=69 velocity=80 time=0
EXTRACT: note_on channel=2 note=64 velocity=80 time=0
EXTRACT: note_on channel=2 note=60 velocity=80 time=0
EXTRACT: note_on channel=2 note=57 velocity=80 time=0
EXTRACT: note_on channel=9 note=82 velocity=64 time=0
EXTRACT: note_off channel=9 note=42 velocity=64 time=0
EXTRACT: note_on channel=9 note=42 velocity=80 time=0
EXTRACT: note_on channel=9 note=57 velocity=80 time=0
EXTRACT: note_on channel=9 note=35 velocity=80 time=0
EXTRACT: note_off channel=6 note=67 velocity=64 time=0.14285699999999998
EXTRACT: note_off channel=6 note=62 velocity=64 time=0
EXTRACT: note_on channel=6 note=67 velocity=80 time=0
EXTRACT: note_on channel=6 note=62 velocity=80 time=0
EXTRACT: note_off channel=9 note=82 velocity=64 time=0
EXTRACT: note_on channel=9 note=82 velocity=64 time=0
EXTRACT: note_off channel=6 note=67 velocity=64 time=0.14285699999999998
EXTRACT: note_off channel=6 note=62 velocity=64 time=0
EXTRACT: note_on channel=6 note=67 velocity=80 time=0
EXTRACT: note_on channel=6 note=62 velocity=80 time=0
EXTRACT: note_off channel=9 note=82 velocity=64 time=0
EXTRACT: note_on channel=9 note=82 velocity=64 time=0
EXTRACT: note_off channel=9 note=42 velocity=64 time=0
EXTRACT: note_off channel=9 note=57 velocity=64 time=0
EXTRACT: note_off channel=9 note=35 velocity=64 time=0
EXTRACT: note_on channel=9 note=42 velocity=80 time=0
EXTRACT: note_off channel=0 note=60 velocity=64 time=0.14285699999999998
EXTRACT: note_off channel=0 note=57 velocity=64 time=0
EXTRACT: note_off channel=0 note=52 velocity=64 time=0
EXTRACT: note_off channel=0 note=41 velocity=64 time=0
EXTRACT: note_on channel=0 note=60 velocity=72 time=0
EXTRACT: note_on channel=0 note=57 velocity=72 time=0
EXTRACT: note_on channel=0 note=52 velocity=72 time=0
EXTRACT: note_on channel=0 note=41 velocity=72 time=0
EXTRACT: note_off channel=6 note=67 velocity=64 time=0
EXTRACT: note_off channel=6 note=62 velocity=64 time=0
EXTRACT: note_on channel=6 note=67 velocity=80 time=0
EXTRACT: note_on channel=6 note=62 velocity=80 time=0
EXTRACT: note_off channel=4 note=29 velocity=64 time=0
EXTRACT: note_on channel=4 note=29 velocity=80 time=0
EXTRACT: note_off channel=2 note=69 velocity=64 time=0
EXTRACT: note_off channel=2 note=64 velocity=64 time=0
EXTRACT: note_off channel=2 note=60 velocity=64 time=0
EXTRACT: note_off channel=2 note=57 velocity=64 time=0
EXTRACT: note_on channel=2 note=69 velocity=80 time=0
EXTRACT: note_on channel=2 note=64 velocity=80 time=0
EXTRACT: note_on channel=2 note=60 velocity=80 time=0
EXTRACT: note_on channel=2 note=57 velocity=80 time=0
EXTRACT: note_off channel=0 note=60 velocity=64 time=0.14285699999999998
EXTRACT: note_off channel=0 note=57 velocity=64 time=0
EXTRACT: note_off channel=0 note=52 velocity=64 time=0
EXTRACT: note_off channel=0 note=41 velocity=64 time=0
EXTRACT: note_on channel=0 note=60 velocity=72 time=0
EXTRACT: note_on channel=0 note=57 velocity=72 time=0
EXTRACT: note_on channel=0 note=52 velocity=72 time=0
EXTRACT: note_off channel=6 note=67 velocity=64 time=0
EXTRACT: note_off channel=6 note=62 velocity=64 time=0
EXTRACT: note_on channel=6 note=67 velocity=80 time=0
EXTRACT: note_on channel=6 note=62 velocity=80 time=0
EXTRACT: note_off channel=4 note=29 velocity=64 time=0
EXTRACT: note_off channel=2 note=69 velocity=64 time=0
EXTRACT: note_off channel=2 note=64 velocity=64 time=0
EXTRACT: note_off channel=2 note=60 velocity=64 time=0
EXTRACT: note_off channel=2 note=57 velocity=64 time=0
EXTRACT: note_off channel=9 note=82 velocity=64 time=0
EXTRACT: note_off channel=9 note=42 velocity=64 time=0
EXTRACT: note_on channel=9 note=42 velocity=80 time=0
EXTRACT: note_on channel=9 note=57 velocity=80 time=0
EXTRACT: note_on channel=9 note=38 velocity=80 time=0
EXTRACT: note_off channel=0 note=60 velocity=64 time=0.14285699999999998
EXTRACT: note_off channel=0 note=57 velocity=64 time=0
EXTRACT: note_off channel=0 note=52 velocity=64 time=0
EXTRACT: note_on channel=0 note=60 velocity=72 time=0
EXTRACT: note_on channel=0 note=57 velocity=72 time=0
EXTRACT: note_on channel=0 note=52 velocity=72 time=0
EXTRACT: note_off channel=6 note=67 velocity=64 time=0
EXTRACT: note_off channel=6 note=62 velocity=64 time=0
EXTRACT: note_on channel=6 note=67 velocity=80 time=0
EXTRACT: note_on channel=6 note=62 velocity=80 time=0
EXTRACT: note_on channel=4 note=29 velocity=80 time=0
EXTRACT: note_off channel=0 note=60 velocity=64 time=0.14285699999999998
EXTRACT: note_off channel=0 note=57 velocity=64 time=0
EXTRACT: note_off channel=0 note=52 velocity=64 time=0
EXTRACT: note_on channel=0 note=62 velocity=72 time=0
EXTRACT: note_on channel=0 note=59 velocity=72 time=0
EXTRACT: note_on channel=0 note=54 velocity=72 time=0
EXTRACT: note_on channel=0 note=43 velocity=72 time=0
EXTRACT: note_off channel=6 note=67 velocity=64 time=0
EXTRACT: note_off channel=6 note=62 velocity=64 time=0
EXTRACT: note_on channel=6 note=67 velocity=80 time=0
EXTRACT: note_on channel=6 note=62 velocity=80 time=0
EXTRACT: note_off channel=4 note=29 velocity=64 time=0
EXTRACT: note_on channel=4 note=31 velocity=80 time=0
EXTRACT: note_on channel=2 note=71 velocity=80 time=0
EXTRACT: note_on channel=2 note=66 velocity=80 time=0
EXTRACT: note_on channel=2 note=62 velocity=80 time=0
EXTRACT: note_on channel=2 note=59 velocity=80 time=0
EXTRACT: note_off channel=9 note=42 velocity=64 time=0
EXTRACT: note_off channel=9 note=57 velocity=64 time=0
EXTRACT: note_off channel=9 note=38 velocity=64 time=0
EXTRACT: note_on channel=9 note=42 velocity=80 time=0
EXTRACT: note_on channel=9 note=35 velocity=80 time=0
EXTRACT: note_on channel=11 note=57 velocity=80 time=0.14285699999999998
EXTRACT: note_off channel=6 note=67 velocity=64 time=0
EXTRACT: note_off channel=6 note=62 velocity=64 time=0
EXTRACT: note_on channel=6 note=67 velocity=80 time=0
EXTRACT: note_on channel=6 note=62 velocity=80 time=0
EXTRACT: note_off channel=11 note=57 velocity=64 time=0.14285699999999998
EXTRACT: note_on channel=11 note=59 velocity=80 time=0
EXTRACT: note_off channel=0 note=62 velocity=64 time=0
EXTRACT: note_off channel=0 note=59 velocity=64 time=0
EXTRACT: note_off channel=0 note=54 velocity=64 time=0
EXTRACT: note_off channel=0 note=43 velocity=64 time=0
EXTRACT: note_off channel=6 note=67 velocity=64 time=0
EXTRACT: note_off channel=6 note=62 velocity=64 time=0
EXTRACT: note_on channel=6 note=67 velocity=80 time=0
EXTRACT: note_on channel=6 note=62 velocity=80 time=0
EXTRACT: note_off channel=4 note=31 velocity=64 time=0
EXTRACT: note_off channel=2 note=71 velocity=64 time=0
EXTRACT: note_off channel=2 note=66 velocity=64 time=0
EXTRACT: note_off channel=2 note=62 velocity=64 time=0
EXTRACT: note_off channel=2 note=59 velocity=64 time=0
EXTRACT: note_on channel=9 note=82 velocity=64 time=0
EXTRACT: note_off channel=9 note=42 velocity=64 time=0
EXTRACT: note_off channel=9 note=35 velocity=64 time=0
EXTRACT: note_on channel=9 note=42 velocity=80 time=0
EXTRACT: note_on channel=9 note=57 velocity=80 time=0
EXTRACT: note_off channel=11 note=59 velocity=64 time=0.14285699999999998
EXTRACT: note_on channel=11 note=57 velocity=80 time=0
EXTRACT: note_on channel=0 note=62 velocity=72 time=0
EXTRACT: note_on channel=0 note=59 velocity=72 time=0
EXTRACT: note_on channel=0 note=54 velocity=72 time=0
EXTRACT: note_off channel=6 note=67 velocity=64 time=0
EXTRACT: note_off channel=6 note=62 velocity=64 time=0
EXTRACT: note_on channel=6 note=67 velocity=80 time=0
EXTRACT: note_on channel=6 note=62 velocity=80 time=0
EXTRACT: note_off channel=9 note=82 velocity=64 time=0
EXTRACT: note_on channel=9 note=82 velocity=64 time=0
EXTRACT: note_off channel=0 note=62 velocity=64 time=0.14285699999999998
EXTRACT: note_off channel=0 note=59 velocity=64 time=0
EXTRACT: note_off channel=0 note=54 velocity=64 time=0
EXTRACT: note_on channel=0 note=62 velocity=72 time=0
EXTRACT: note_on channel=0 note=59 velocity=72 time=0
EXTRACT: note_on channel=0 note=54 velocity=72 time=0
EXTRACT: note_on channel=0 note=43 velocity=72 time=0
EXTRACT: note_off channel=6 note=67 velocity=64 time=0
EXTRACT: note_off channel=6 note=62 velocity=64 time=0
EXTRACT: note_on channel=6 note=67 velocity=80 time=0
EXTRACT: note_on channel=6 note=62 velocity=80 time=0
EXTRACT: note_on channel=4 note=38 velocity=80 time=0
EXTRACT: note_on channel=2 note=71 velocity=80 time=0
EXTRACT: note_on channel=2 note=66 velocity=80 time=0
EXTRACT: note_on channel=2 note=62 velocity=80 time=0
EXTRACT: note_on channel=2 note=59 velocity=80 time=0
EXTRACT: note_off channel=9 note=82 velocity=64 time=0
EXTRACT: note_on channel=9 note=82 velocity=64 time=0
EXTRACT: note_off channel=9 note=42 velocity=64 time=0
EXTRACT: note_off channel=9 note=57 velocity=64 time=0
EXTRACT: note_on channel=9 note=42 velocity=80 time=0
EXTRACT: note_off channel=11 note=57 velocity=64 time=0.14285699999999998
EXTRACT: note_on channel=11 note=59 velocity=80 time=0
EXTRACT: note_off channel=6 note=67 velocity=64 time=0
EXTRACT: note_off channel=6 note=62 velocity=64 time=0
EXTRACT: note_on channel=6 note=67 velocity=80 time=0
EXTRACT: note_on channel=6 note=62 velocity=80 time=0
EXTRACT: note_off channel=11 note=59 velocity=64 time=0.14285699999999998
EXTRACT: note_off channel=0 note=62 velocity=64 time=0
EXTRACT: note_off channel=0 note=59 velocity=64 time=0
EXTRACT: note_off channel=0 note=54 velocity=64 time=0
EXTRACT: note_off channel=0 note=43 velocity=64 time=0
EXTRACT: note_on channel=0 note=62 velocity=72 time=0
EXTRACT: note_on channel=0 note=59 velocity=72 time=0
EXTRACT: note_on channel=0 note=54 velocity=72 time=0
EXTRACT: note_on channel=0 note=43 velocity=72 time=0
EXTRACT: note_off channel=6 note=67 velocity=64 time=0
EXTRACT: note_off channel=6 note=62 velocity=64 time=0
EXTRACT: note_on channel=6 note=67 velocity=80 time=0
EXTRACT: note_on channel=6 note=62 velocity=80 time=0
EXTRACT: note_off channel=4 note=38 velocity=64 time=0
EXTRACT: note_on channel=4 note=43 velocity=80 time=0
EXTRACT: note_off channel=2 note=71 velocity=64 time=0
EXTRACT: note_off channel=2 note=66 velocity=64 time=0
EXTRACT: note_off channel=2 note=62 velocity=64 time=0
EXTRACT: note_off channel=2 note=59 velocity=64 time=0
EXTRACT: note_on channel=2 note=71 velocity=80 time=0
EXTRACT: note_on channel=2 note=66 velocity=80 time=0
EXTRACT: note_on channel=2 note=62 velocity=80 time=0
EXTRACT: note_on channel=2 note=59 velocity=80 time=0
EXTRACT: note_off channel=9 note=82 velocity=64 time=0
EXTRACT: note_off channel=9 note=42 velocity=64 time=0
EXTRACT: note_on channel=9 note=42 velocity=80 time=0
EXTRACT: note_on channel=9 note=57 velocity=80 time=0
EXTRACT: note_on channel=9 note=38 velocity=80 time=0
EXTRACT: note_on channel=11 note=57 velocity=80 time=0.14285699999999998
EXTRACT: note_off channel=6 note=67 velocity=64 time=0
EXTRACT: note_off channel=6 note=62 velocity=64 time=0
EXTRACT: note_on channel=6 note=67 velocity=80 time=0
EXTRACT: note_on channel=6 note=62 velocity=80 time=0
EXTRACT: note_off channel=4 note=43 velocity=64 time=0
EXTRACT: note_on channel=4 note=38 velocity=80 time=0
EXTRACT: note_off channel=0 note=62 velocity=64 time=0.14285699999999998
EXTRACT: note_off channel=0 note=59 velocity=64 time=0
EXTRACT: note_off channel=0 note=54 velocity=64 time=0
EXTRACT: note_off channel=0 note=43 velocity=64 time=0
EXTRACT: note_on channel=0 note=62 velocity=72 time=0
EXTRACT: note_on channel=0 note=59 velocity=72 time=0
EXTRACT: note_on channel=0 note=54 velocity=72 time=0
EXTRACT: note_off channel=6 note=67 velocity=64 time=0
EXTRACT: note_off channel=6 note=62 velocity=64 time=0
EXTRACT: note_on channel=6 note=67 velocity=80 time=0
EXTRACT: note_on channel=6 note=62 velocity=80 time=0
EXTRACT: note_off channel=4 note=38 velocity=64 time=0
EXTRACT: note_on channel=4 note=31 velocity=80 time=0
EXTRACT: note_off channel=9 note=42 velocity=64 time=0
EXTRACT: note_off channel=9 note=57 velocity=64 time=0
EXTRACT: note_off channel=9 note=38 velocity=64 time=0
EXTRACT: note_on channel=9 note=42 velocity=80 time=0
EXTRACT: note_off channel=11 note=57 velocity=64 time=0.14285699999999998
EXTRACT: note_on channel=11 note=62 velocity=80 time=0
EXTRACT: note_off channel=0 note=62 velocity=64 time=0
EXTRACT: note_off channel=0 note=59 velocity=64 time=0
EXTRACT: note_off channel=0 note=54 velocity=64 time=0
EXTRACT: note_on channel=0 note=62 velocity=72 time=0
EXTRACT: note_on channel=0 note=59 velocity=72 time=0
EXTRACT: note_on channel=0 note=54 velocity=72 time=0
EXTRACT: note_off channel=6 note=67 velocity=64 time=0
EXTRACT: note_off channel=6 note=62 velocity=64 time=0
EXTRACT: note_on channel=6 note=67 velocity=80 time=0
EXTRACT: note_on channel=6 note=62 velocity=80 time=0
EXTRACT: note_off channel=4 note=31 velocity=64 time=0
EXTRACT: note_on channel=4 note=32 velocity=80 time=0
EXTRACT: note_off channel=11 note=62 velocity=64 time=0.14285699999999998
EXTRACT: note_on channel=11 note=64 velocity=80 time=0
EXTRACT: note_off channel=0 note=62 velocity=64 time=0
EXTRACT: note_off channel=0 note=59 velocity=64 time=0
EXTRACT: note_off channel=0 note=54 velocity=64 time=0
EXTRACT: note_on channel=0 note=64 velocity=72 time=0
EXTRACT: note_on channel=0 note=61 velocity=72 time=0
EXTRACT: note_on channel=0 note=56 velocity=72 time=0
EXTRACT: note_on channel=0 note=45 velocity=72 time=0
EXTRACT: note_off channel=6 note=67 velocity=64 time=0
EXTRACT: note_off channel=6 note=62 velocity=64 time=0
EXTRACT: note_on channel=6 note=67 velocity=80 time=0
EXTRACT: note_on channel=6 note=62 velocity=80 time=0
EXTRACT: note_off channel=4 note=32 velocity=64 time=0
EXTRACT: note_on channel=4 note=33 velocity=80 time=0
EXTRACT: note_off channel=2 note=71 velocity=64 time=0
EXTRACT: note_off channel=2 note=66 velocity=64 time=0
EXTRACT: note_off channel=2 note=62 velocity=64 time=0
EXTRACT: note_off channel=2 note=59 velocity=64 time=0
EXTRACT: note_on channel=2 note=68 velocity=80 time=0
EXTRACT: note_on channel=2 note=64 velocity=80 time=0
EXTRACT: note_on channel=2 note=61 velocity=80 time=0
EXTRACT: note_on channel=2 note=59 velocity=80 time=0
EXTRACT: note_on channel=9 note=82 velocity=64 time=0
EXTRACT: note_off channel=9 note=42 velocity=64 time=0
EXTRACT: note_on channel=9 note=42 velocity=80 time=0
EXTRACT: note_on channel=9 note=57 velocity=80 time=0
EXTRACT: note_on channel=9 note=35 velocity=80 time=0
EXTRACT: note_off channel=6 note=67 velocity=64 time=0.14285699999999998
EXTRACT: note_off channel=6 note=62 velocity=64 time=0
EXTRACT: note_on channel=6 note=67 velocity=80 time=0
EXTRACT: note_on channel=6 note=62 velocity=80 time=0
EXTRACT: note_off channel=9 note=82 velocity=64 time=0
EXTRACT: note_on channel=9 note=82 velocity=64 time=0
EXTRACT: note_off channel=11 note=64 velocity=64 time=0.14285699999999998
EXTRACT: note_on channel=11 note=64 velocity=80 time=0
EXTRACT: note_off channel=6 note=67 velocity=64 time=0
EXTRACT: note_off channel=6 note=62 velocity=64 time=0
EXTRACT: note_on channel=6 note=67 velocity=80 time=0
EXTRACT: note_on channel=6 note=62 velocity=80 time=0
EXTRACT: note_off channel=9 note=82 velocity=64 time=0
EXTRACT: note_on channel=9 note=82 velocity=64 time=0
EXTRACT: note_off channel=9 note=42 velocity=64 time=0
EXTRACT: note_off channel=9 note=57 velocity=64 time=0
EXTRACT: note_off channel=9 note=35 velocity=64 time=0
EXTRACT: note_on channel=9 note=42 velocity=80 time=0
EXTRACT: note_off channel=0 note=64 velocity=64 time=0.14285699999999998
EXTRACT: note_off channel=0 note=61 velocity=64 time=0
EXTRACT: note_off channel=0 note=56 velocity=64 time=0
EXTRACT: note_off channel=0 note=45 velocity=64 time=0
EXTRACT: note_on channel=0 note=64 velocity=72 time=0
EXTRACT: note_on channel=0 note=61 velocity=72 time=0
EXTRACT: note_on channel=0 note=56 velocity=72 time=0
EXTRACT: note_on channel=0 note=45 velocity=72 time=0
EXTRACT: note_off channel=6 note=67 velocity=64 time=0
EXTRACT: note_off channel=6 note=62 velocity=64 time=0
EXTRACT: note_on channel=6 note=67 velocity=80 time=0
EXTRACT: note_on channel=6 note=62 velocity=80 time=0
EXTRACT: note_off channel=4 note=33 velocity=64 time=0
EXTRACT: note_on channel=4 note=40 velocity=80 time=0
EXTRACT: note_off channel=2 note=68 velocity=64 time=0
EXTRACT: note_off channel=2 note=64 velocity=64 time=0
EXTRACT: note_off channel=2 note=61 velocity=64 time=0
EXTRACT: note_off channel=2 note=59 velocity=64 time=0
EXTRACT: note_on channel=2 note=68 velocity=80 time=0
EXTRACT: note_on channel=2 note=64 velocity=80 time=0
EXTRACT: note_on channel=2 note=61 velocity=80 time=0
EXTRACT: note_on channel=2 note=59 velocity=80 time=0
EXTRACT: note_off channel=11 note=64 velocity=64 time=0.14285699999999998
EXTRACT: note_on channel=11 note=64 velocity=80 time=0
EXTRACT: note_off channel=0 note=64 velocity=64 time=0
EXTRACT: note_off channel=0 note=61 velocity=64 time=0
EXTRACT: note_off channel=0 note=56 velocity=64 time=0
EXTRACT: note_off channel=0 note=45 velocity=64 time=0
EXTRACT: note_on channel=0 note=64 velocity=72 time=0
EXTRACT: note_on channel=0 note=61 velocity=72 time=0
EXTRACT: note_on channel=0 note=56 velocity=72 time=0
EXTRACT: note_off channel=6 note=67 velocity=64 time=0
EXTRACT: note_off channel=6 note=62 velocity=64 time=0
EXTRACT: note_on channel=6 note=67 velocity=80 time=0
EXTRACT: note_on channel=6 note=62 velocity=80 time=0
EXTRACT: note_off channel=4 note=40 velocity=64 time=0
EXTRACT: note_off channel=2 note=68 velocity=64 time=0
EXTRACT: note_off channel=2 note=64 velocity=64 time=0
EXTRACT: note_off channel=2 note=61 velocity=64 time=0
EXTRACT: note_off channel=2 note=59 velocity=64 time=0
EXTRACT: note_off channel=9 note=82 velocity=64 time=0
EXTRACT: note_off channel=9 note=42 velocity=64 time=0
EXTRACT: note_on channel=9 note=42 velocity=80 time=0
EXTRACT: note_on channel=9 note=57 velocity=80 time=0
EXTRACT: note_on channel=9 note=38 velocity=80 time=0
EXTRACT: note_off channel=11 note=64 velocity=64 time=0.14285699999999998
EXTRACT: note_on channel=11 note=61 velocity=80 time=0
EXTRACT: note_off channel=0 note=64 velocity=64 time=0
EXTRACT: note_off channel=0 note=61 velocity=64 time=0
EXTRACT: note_off channel=0 note=56 velocity=64 time=0
EXTRACT: note_on channel=0 note=64 velocity=72 time=0
EXTRACT: note_on channel=0 note=61 velocity=72 time=0
EXTRACT: note_on channel=0 note=56 velocity=72 time=0
EXTRACT: note_off channel=6 note=67 velocity=64 time=0
EXTRACT: note_off channel=6 note=62 velocity=64 time=0
EXTRACT: note_on channel=6 note=67 velocity=80 time=0
EXTRACT: note_on channel=6 note=62 velocity=80 time=0
EXTRACT: note_on channel=4 note=33 velocity=80 time=0
EXTRACT: note_off channel=0 note=64 velocity=64 time=0.14285699999999998
EXTRACT: note_off channel=0 note=61 velocity=64 time=0
EXTRACT: note_off channel=0 note=56 velocity=64 time=0
EXTRACT: note_on channel=0 note=69 velocity=72 time=0
EXTRACT: note_on channel=0 note=64 velocity=72 time=0
EXTRACT: note_on channel=0 note=60 velocity=72 time=0
EXTRACT: note_on channel=0 note=55 velocity=72 time=0
EXTRACT: note_on channel=0 note=50 velocity=72 time=0
EXTRACT: note_off channel=6 note=67 velocity=64 time=0
EXTRACT: note_off channel=6 note=62 velocity=64 time=0
EXTRACT: note_on channel=6 note=67 velocity=80 time=0
EXTRACT: note_on channel=6 note=62 velocity=80 time=0
EXTRACT: note_off channel=4 note=33 velocity=64 time=0
EXTRACT: note_on channel=4 note=38 velocity=80 time=0
EXTRACT: note_on channel=2 note=64 velocity=80 time=0
EXTRACT: note_on channel=2 note=60 velocity=80 time=0
EXTRACT: note_on channel=2 note=59 velocity=80 time=0
EXTRACT: note_on channel=2 note=55 velocity=80 time=0
EXTRACT: note_off channel=9 note=42 velocity=64 time=0
EXTRACT: note_off channel=9 note=57 velocity=64 time=0
EXTRACT: note_off channel=9 note=38 velocity=64 time=0
EXTRACT: note_on channel=9 note=42 velocity=80 time=0
EXTRACT: note_on channel=9 note=35 velocity=80 time=0
EXTRACT: note_off channel=11 note=61 velocity=64 time=0.14285699999999998
EXTRACT: note_on channel=11 note=66 velocity=80 time=0
EXTRACT: note_off channel=6 note=67 velocity=64 time=0
EXTRACT: note_off channel=6 note=62 velocity=64 time=0
EXTRACT: note_on channel=6 note=67 velocity=80 time=0
EXTRACT: note_on channel=6 note=62 velocity=80 time=0
EXTRACT: note_off channel=11 note=66 velocity=64 time=0.14285699999999998
EXTRACT: note_off channel=0 note=69 velocity=64 time=0
EXTRACT: note_off channel=0 note=64 velocity=64 time=0
EXTRACT: note_off channel=0 note=60 velocity=64 time=0
EXTRACT: note_off channel=0 note=55 velocity=64 time=0
EXTRACT: note_off channel=0 note=50 velocity=64 time=0
EXTRACT: note_off channel=6 note=67 velocity=64 time=0
EXTRACT: note_off channel=6 note=62 velocity=64 time=0
EXTRACT: note_on channel=6 note=67 velocity=80 time=0
EXTRACT: note_on channel=6 note=62 velocity=80 time=0
EXTRACT: note_off channel=4 note=38 velocity=64 time=0
EXTRACT: note_on channel=4 note=38 velocity=80 time=0
EXTRACT: note_off channel=2 note=64 velocity=64 time=0
EXTRACT: note_off channel=2 note=60 velocity=64 time=0
EXTRACT: note_off channel=2 note=59 velocity=64 time=0
EXTRACT: note_off channel=2 note=55 velocity=64 time=0
EXTRACT: note_on channel=9 note=82 velocity=64 time=0
EXTRACT: note_off channel=9 note=42 velocity=64 time=0
EXTRACT: note_off channel=9 note=35 velocity=64 time=0
EXTRACT: note_on channel=9 note=38 velocity=80 time=0
EXTRACT: note_on channel=0 note=69 velocity=72 time=0.14285699999999998
EXTRACT: note_on channel=0 note=64 velocity=72 time=0
EXTRACT: note_on channel=0 note=60 velocity=72 time=0
EXTRACT: note_off channel=6 note=67 velocity=64 time=0
EXTRACT: note_off channel=6 note=62 velocity=64 time=0
EXTRACT: note_on channel=6 note=67 velocity=80 time=0
EXTRACT: note_on channel=6 note=62 velocity=80 time=0
EXTRACT: note_off channel=4 note=38 velocity=64 time=0
EXTRACT: note_on channel=2 note=64 velocity=80 time=0
EXTRACT: note_on channel=2 note=60 velocity=80 time=0
EXTRACT: note_on channel=2 note=59 velocity=80 time=0
EXTRACT: note_on channel=2 note=55 velocity=80 time=0
EXTRACT: note_off channel=9 note=82 velocity=64 time=0
EXTRACT: note_on channel=9 note=82 velocity=64 time=0
EXTRACT: note_off channel=9 note=38 velocity=64 time=0
EXTRACT: note_on channel=9 note=38 velocity=80 time=0
EXTRACT: note_on channel=11 note=64 velocity=80 time=0.14285699999999998
EXTRACT: note_off channel=0 note=69 velocity=64 time=0
EXTRACT: note_off channel=0 note=64 velocity=64 time=0
EXTRACT: note_off channel=0 note=60 velocity=64 time=0
EXTRACT: note_on channel=0 note=64 velocity=72 time=0
EXTRACT: note_on channel=0 note=60 velocity=72 time=0
EXTRACT: note_on channel=0 note=55 velocity=72 time=0
EXTRACT: note_on channel=0 note=50 velocity=72 time=0
EXTRACT: note_off channel=6 note=67 velocity=64 time=0
EXTRACT: note_off channel=6 note=62 velocity=64 time=0
EXTRACT: note_on channel=6 note=67 velocity=80 time=0
EXTRACT: note_on channel=6 note=62 velocity=80 time=0
EXTRACT: note_on channel=4 note=38 velocity=80 time=0
EXTRACT: note_off channel=9 note=82 velocity=64 time=0
EXTRACT: note_on channel=9 note=82 velocity=64 time=0
EXTRACT: note_off channel=9 note=38 velocity=64 time=0
EXTRACT: note_on channel=9 note=46 velocity=80 time=0
EXTRACT: note_on channel=9 note=35 velocity=80 time=0
EXTRACT: note_off channel=11 note=64 velocity=64 time=0.14285699999999998
EXTRACT: note_on channel=11 note=66 velocity=80 time=0
EXTRACT: note_off channel=6 note=67 velocity=64 time=0
EXTRACT: note_off channel=6 note=62 velocity=64 time=0
EXTRACT: note_on channel=6 note=67 velocity=80 time=0
EXTRACT: note_on channel=6 note=62 velocity=80 time=0
EXTRACT: note_off channel=4 note=38 velocity=64 time=0
EXTRACT: note_on channel=4 note=33 velocity=80 time=0
EXTRACT: note_off channel=9 note=46 velocity=64 time=0
EXTRACT: note_off channel=9 note=35 velocity=64 time=0
EXTRACT: note_on channel=9 note=38 velocity=80 time=0
EXTRACT: note_off channel=11 note=66 velocity=64 time=0.14285699999999998
EXTRACT: note_off channel=0 note=64 velocity=64 time=0
EXTRACT: note_off channel=0 note=60 velocity=64 time=0
EXTRACT: note_off channel=0 note=55 velocity=64 time=0
EXTRACT: note_off channel=0 note=50 velocity=64 time=0
EXTRACT: note_on channel=0 note=69 velocity=72 time=0
EXTRACT: note_on channel=0 note=64 velocity=72 time=0
EXTRACT: note_on channel=0 note=60 velocity=72 time=0
EXTRACT: note_on channel=0 note=55 velocity=72 time=0
EXTRACT: note_on channel=0 note=50 velocity=72 time=0
EXTRACT: note_off channel=6 note=67 velocity=64 time=0
EXTRACT: note_off channel=6 note=62 velocity=64 time=0
EXTRACT: note_on channel=6 note=67 velocity=80 time=0
EXTRACT: note_on channel=6 note=62 velocity=80 time=0
EXTRACT: note_off channel=4 note=33 velocity=64 time=0
EXTRACT: note_on channel=4 note=38 velocity=80 time=0
EXTRACT: note_off channel=2 note=64 velocity=64 time=0
EXTRACT: note_off channel=2 note=60 velocity=64 time=0
EXTRACT: note_off channel=2 note=59 velocity=64 time=0
EXTRACT: note_off channel=2 note=55 velocity=64 time=0
EXTRACT: note_on channel=2 note=64 velocity=80 time=0
EXTRACT: note_on channel=2 note=60 velocity=80 time=0
EXTRACT: note_on channel=2 note=59 velocity=80 time=0
EXTRACT: note_on channel=2 note=55 velocity=80 time=0
EXTRACT: note_on channel=8 note=71 velocity=80 time=0
EXTRACT: note_off channel=9 note=82 velocity=64 time=0
EXTRACT: note_off channel=9 note=38 velocity=64 time=0
EXTRACT: note_on channel=9 note=38 velocity=80 time=0
EXTRACT: note_off channel=6 note=67 velocity=64 time=0.14285699999999998
EXTRACT: note_off channel=6 note=62 velocity=64 time=0
EXTRACT: note_on channel=6 note=67 velocity=80 time=0
EXTRACT: note_on channel=6 note=62 velocity=80 time=0
EXTRACT: note_off channel=4 note=38 velocity=64 time=0
EXTRACT: note_on channel=4 note=33 velocity=80 time=0
EXTRACT: note_off channel=9 note=38 velocity=64 time=0
EXTRACT: note_on channel=9 note=46 velocity=80 time=0
EXTRACT: note_on channel=9 note=35 velocity=80 time=0
EXTRACT: note_off channel=0 note=69 velocity=64 time=0.14285699999999998
EXTRACT: note_off channel=0 note=64 velocity=64 time=0
EXTRACT: note_off channel=0 note=60 velocity=64 time=0
EXTRACT: note_off channel=0 note=55 velocity=64 time=0
EXTRACT: note_off channel=0 note=50 velocity=64 time=0
EXTRACT: note_on channel=0 note=66 velocity=72 time=0
EXTRACT: note_on channel=0 note=61 velocity=72 time=0
EXTRACT: note_on channel=0 note=57 velocity=72 time=0
EXTRACT: note_off channel=6 note=67 velocity=64 time=0
EXTRACT: note_off channel=6 note=62 velocity=64 time=0
EXTRACT: note_on channel=6 note=67 velocity=80 time=0
EXTRACT: note_on channel=6 note=62 velocity=80 time=0
EXTRACT: note_off channel=4 note=33 velocity=64 time=0
EXTRACT: note_on channel=4 note=37 velocity=80 time=0
EXTRACT: note_off channel=9 note=46 velocity=64 time=0
EXTRACT: note_off channel=9 note=35 velocity=64 time=0
EXTRACT: note_on channel=9 note=38 velocity=80 time=0
EXTRACT: note_off channel=0 note=66 velocity=64 time=0.14285699999999998
EXTRACT: note_off channel=0 note=61 velocity=64 time=0
EXTRACT: note_off channel=0 note=57 velocity=64 time=0
EXTRACT: note_on channel=0 note=66 velocity=72 time=0
EXTRACT: note_on channel=0 note=61 velocity=72 time=0
EXTRACT: note_on channel=0 note=57 velocity=72 time=0
EXTRACT: note_off channel=6 note=67 velocity=64 time=0
EXTRACT: note_off channel=6 note=62 velocity=64 time=0
EXTRACT: note_on channel=6 note=67 velocity=80 time=0
EXTRACT: note_on channel=6 note=62 velocity=80 time=0
EXTRACT: note_off channel=4 note=37 velocity=64 time=0
EXTRACT: note_on channel=4 note=33 velocity=80 time=0
EXTRACT: note_off channel=9 note=38 velocity=64 time=0
EXTRACT: note_on channel=9 note=38 velocity=80 time=0
EXTRACT: note_off channel=0 note=66 velocity=64 time=0.14285699999999998
EXTRACT: note_off channel=0 note=61 velocity=64 time=0
EXTRACT: note_off channel=0 note=57 velocity=64 time=0
EXTRACT: note_on channel=0 note=66 velocity=72 time=0
EXTRACT: note_on channel=0 note=62 velocity=72 time=0
EXTRACT: note_on channel=0 note=57 velocity=72 time=0
EXTRACT: note_on channel=0 note=54 velocity=72 time=0
EXTRACT: note_on channel=0 note=47 velocity=72 time=0
EXTRACT: note_off channel=6 note=67 velocity=64 time=0
EXTRACT: note_off channel=6 note=62 velocity=64 time=0
EXTRACT: note_off channel=4 note=33 velocity=64 time=0
EXTRACT: note_on channel=4 note=35 velocity=80 time=0
EXTRACT: note_off channel=2 note=64 velocity=64 time=0
EXTRACT: note_off channel=2 note=60 velocity=64 time=0
EXTRACT: note_off channel=2 note=59 velocity=64 time=0
EXTRACT: note_off channel=2 note=55 velocity=64 time=0
EXTRACT: note_on channel=2 note=81 velocity=80 time=0
EXTRACT: note_on channel=2 note=78 velocity=80 time=0
EXTRACT: note_on channel=2 note=74 velocity=80 time=0
EXTRACT: note_on channel=2 note=71 velocity=80 time=0
EXTRACT: note_off channel=8 note=71 velocity=64 time=0
EXTRACT: note_on channel=8 note=73 velocity=72 time=0
EXTRACT: note_on channel=9 note=82 velocity=64 time=0
EXTRACT: note_off channel=9 note=38 velocity=64 time=0
EXTRACT: note_on channel=9 note=49 velocity=80 time=0
EXTRACT: note_on channel=9 note=57 velocity=80 time=0
EXTRACT: note_on channel=9 note=35 velocity=80 time=0
EXTRACT: note_off channel=9 note=82 velocity=64 time=0.14285699999999998
EXTRACT: note_on channel=9 note=82 velocity=64 time=0
EXTRACT: note_on channel=11 note=66 velocity=80 time=0.14285699999999998
EXTRACT: note_off channel=4 note=35 velocity=64 time=0
EXTRACT: note_off channel=2 note=81 velocity=64 time=0
EXTRACT: note_off channel=2 note=78 velocity=64 time=0
EXTRACT: note_off channel=2 note=74 velocity=64 time=0
EXTRACT: note_off channel=2 note=71 velocity=64 time=0
EXTRACT: note_on channel=2 note=78 velocity=80 time=0
EXTRACT: note_on channel=2 note=74 velocity=80 time=0
EXTRACT: note_on channel=2 note=71 velocity=80 time=0
EXTRACT: note_off channel=8 note=73 velocity=64 time=0
EXTRACT: note_on channel=8 note=71 velocity=72 time=0
EXTRACT: note_off channel=9 note=82 velocity=64 time=0
EXTRACT: note_on channel=9 note=82 velocity=64 time=0
EXTRACT: note_off channel=9 note=49 velocity=64 time=0
EXTRACT: note_off channel=9 note=57 velocity=64 time=0
EXTRACT: note_off channel=9 note=35 velocity=64 time=0
EXTRACT: note_on channel=9 note=42 velocity=80 time=0
EXTRACT: note_off channel=0 note=66 velocity=64 time=0.14285699999999998
EXTRACT: note_off channel=0 note=62 velocity=64 time=0
EXTRACT: note_off channel=0 note=57 velocity=64 time=0
EXTRACT: note_off channel=0 note=54 velocity=64 time=0
EXTRACT: note_off channel=0 note=47 velocity=64 time=0
EXTRACT: note_on channel=0 note=66 velocity=72 time=0
EXTRACT: note_on channel=0 note=62 velocity=72 time=0
EXTRACT: note_on channel=0 note=57 velocity=72 time=0
EXTRACT: note_on channel=0 note=54 velocity=72 time=0
EXTRACT: note_on channel=0 note=47 velocity=72 time=0
EXTRACT: note_on channel=4 note=35 velocity=80 time=0
EXTRACT: note_off channel=11 note=66 velocity=64 time=0.14285699999999998
EXTRACT: note_on channel=11 note=69 velocity=80 time=0
EXTRACT: note_off channel=0 note=66 velocity=64 time=0
EXTRACT: note_off channel=0 note=62 velocity=64 time=0
EXTRACT: note_off channel=0 note=57 velocity=64 time=0
EXTRACT: note_off channel=0 note=54 velocity=64 time=0
EXTRACT: note_off channel=0 note=47 velocity=64 time=0
EXTRACT: note_on channel=0 note=66 velocity=72 time=0
EXTRACT: note_on channel=0 note=62 velocity=72 time=0
EXTRACT: note_on channel=0 note=57 velocity=72 time=0
EXTRACT: note_off channel=4 note=35 velocity=64 time=0
EXTRACT: note_off channel=2 note=78 velocity=64 time=0
EXTRACT: note_off channel=2 note=74 velocity=64 time=0
EXTRACT: note_off channel=2 note=71 velocity=64 time=0
EXTRACT: note_on channel=2 note=81 velocity=80 time=0
EXTRACT: note_on channel=2 note=78 velocity=80 time=0
EXTRACT: note_on channel=2 note=74 velocity=80 time=0
EXTRACT: note_on channel=2 note=71 velocity=80 time=0
EXTRACT: note_off channel=8 note=71 velocity=64 time=0
EXTRACT: note_on channel=8 note=73 velocity=72 time=0
EXTRACT: note_off channel=9 note=82 velocity=64 time=0
EXTRACT: note_off channel=9 note=42 velocity=64 time=0
EXTRACT: note_on channel=9 note=42 velocity=80 time=0
EXTRACT: note_on channel=9 note=57 velocity=80 time=0
EXTRACT: note_on channel=9 note=38 velocity=80 time=0
EXTRACT: note_off channel=0 note=66 velocity=64 time=0.14285699999999998
EXTRACT: note_off channel=0 note=62 velocity=64 time=0
EXTRACT: note_off channel=0 note=57 velocity=64 time=0
EXTRACT: note_on channel=0 note=66 velocity=72 time=0
EXTRACT: note_on channel=0 note=62 velocity=72 time=0
EXTRACT: note_on channel=0 note=57 velocity=72 time=0
EXTRACT: note_off channel=11 note=69 velocity=64 time=0.14285699999999998
EXTRACT: note_on channel=11 note=66 velocity=80 time=0
EXTRACT: note_off channel=0 note=66 velocity=64 time=0
EXTRACT: note_off channel=0 note=62 velocity=64 time=0
EXTRACT: note_off channel=0 note=57 velocity=64 time=0
EXTRACT: note_on channel=0 note=66 velocity=72 time=0
EXTRACT: note_on channel=0 note=61 velocity=72 time=0
EXTRACT: note_on channel=0 note=57 velocity=72 time=0
EXTRACT: note_on channel=0 note=52 velocity=72 time=0
EXTRACT: note_on channel=0 note=49 velocity=72 time=0
EXTRACT: note_on channel=4 note=30 velocity=80 time=0
EXTRACT: note_off channel=2 note=81 velocity=64 time=0
EXTRACT: note_off channel=2 note=78 velocity=64 time=0
EXTRACT: note_off channel=2 note=74 velocity=64 time=0
EXTRACT: note_off channel=2 note=71 velocity=64 time=0
EXTRACT: note_on channel=2 note=78 velocity=80 time=0
EXTRACT: note_on channel=2 note=74 velocity=80 time=0
EXTRACT: note_on channel=2 note=71 velocity=80 time=0
EXTRACT: note_off channel=8 note=73 velocity=64 time=0
EXTRACT: note_on channel=8 note=71 velocity=72 time=0
EXTRACT: note_off channel=9 note=42 velocity=64 time=0
EXTRACT: note_off channel=9 note=57 velocity=64 time=0
EXTRACT: note_off channel=9 note=38 velocity=64 time=0
EXTRACT: note_on channel=9 note=42 velocity=80 time=0
EXTRACT: note_on channel=9 note=35 velocity=80 time=0
EXTRACT: note_off channel=11 note=66 velocity=64 time=0.14285699999999998
EXTRACT: note_on channel=11 note=69 velocity=80 time=0
EXTRACT: note_off channel=2 note=78 velocity=64 time=0
EXTRACT: note_off channel=2 note=74 velocity=64 time=0
EXTRACT: note_off channel=2 note=71 velocity=64 time=0
EXTRACT: note_on channel=2 note=81 velocity=80 time=0
EXTRACT: note_on channel=2 note=76 velocity=80 time=0
EXTRACT: note_on channel=2 note=73 velocity=80 time=0
EXTRACT: note_on channel=2 note=69 velocity=80 time=0
EXTRACT: note_off channel=8 note=71 velocity=64 time=0
EXTRACT: note_on channel=8 note=73 velocity=72 time=0
EXTRACT: note_off channel=11 note=69 velocity=64 time=0.14285699999999998
EXTRACT: note_off channel=0 note=66 velocity=64 time=0
EXTRACT: note_off channel=0 note=61 velocity=64 time=0
EXTRACT: note_off channel=0 note=57 velocity=64 time=0
EXTRACT: note_off channel=0 note=52 velocity=64 time=0
EXTRACT: note_off channel=0 note=49 velocity=64 time=0
EXTRACT: note_off channel=4 note=30 velocity=64 time=0
EXTRACT: note_off channel=2 note=81 velocity=64 time=0
EXTRACT: note_off channel=2 note=76 velocity=64 time=0
EXTRACT: note_off channel=2 note=73 velocity=64 time=0
EXTRACT: note_off channel=2 note=69 velocity=64 time=0
EXTRACT: note_off channel=8 note=73 velocity=64 time=0
EXTRACT: note_on channel=9 note=82 velocity=64 time=0
EXTRACT: note_off channel=9 note=42 velocity=64 time=0
EXTRACT: note_off channel=9 note=35 velocity=64 time=0
EXTRACT: note_on channel=9 note=42 velocity=80 time=0
EXTRACT: note_on channel=9 note=57 velocity=80 time=0
EXTRACT: note_on channel=11 note=66 velocity=80 time=0.14285699999999998
EXTRACT: note_on channel=0 note=66 velocity=72 time=0
EXTRACT: note_on channel=0 note=61 velocity=72 time=0
EXTRACT: note_on channel=0 note=57 velocity=72 time=0
EXTRACT: note_on channel=8 note=71 velocity=72 time=0
EXTRACT: note_off channel=9 note=82 velocity=64 time=0
EXTRACT: note_on channel=9 note=82 velocity=64 time=0
EXTRACT: note_off channel=9 note=42 velocity=64 time=0
EXTRACT: note_off channel=9 note=57 velocity=64 time=0
EXTRACT: note_on channel=9 note=38 velocity=80 time=0
EXTRACT: note_off channel=11 note=66 velocity=64 time=0.14285699999999998
EXTRACT: note_on channel=11 note=69 velocity=80 time=0
EXTRACT: note_off channel=0 note=66 velocity=64 time=0
EXTRACT: note_off channel=0 note=61 velocity=64 time=0
EXTRACT: note_off channel=0 note=57 velocity=64 time=0
EXTRACT: note_on channel=0 note=61 velocity=72 time=0
EXTRACT: note_on channel=0 note=57 velocity=72 time=0
EXTRACT: note_on channel=0 note=52 velocity=72 time=0
EXTRACT: note_on channel=0 note=49 velocity=72 time=0
EXTRACT: note_on channel=2 note=81 velocity=80 time=0
EXTRACT: note_on channel=2 note=76 velocity=80 time=0
EXTRACT: note_on channel=2 note=73 velocity=80 time=0
EXTRACT: note_on channel=2 note=69 velocity=80 time=0
EXTRACT: note_off channel=8 note=71 velocity=64 time=0
EXTRACT: note_on channel=8 note=73 velocity=72 time=0
EXTRACT: note_off channel=9 note=82 velocity=64 time=0
EXTRACT: note_on channel=9 note=82 velocity=64 time=0
EXTRACT: note_off channel=9 note=38 velocity=64 time=0
EXTRACT: note_on channel=9 note=42 velocity=80 time=0
EXTRACT: note_off channel=11 note=69 velocity=64 time=0.28571399999999997
EXTRACT: note_on channel=11 note=64 velocity=80 time=0
EXTRACT: note_off channel=0 note=61 velocity=64 time=0
EXTRACT: note_off channel=0 note=57 velocity=64 time=0
EXTRACT: note_off channel=0 note=52 velocity=64 time=0
EXTRACT: note_off channel=0 note=49 velocity=64 time=0
EXTRACT: note_on channel=0 note=66 velocity=72 time=0
EXTRACT: note_on channel=0 note=61 velocity=72 time=0
EXTRACT: note_on channel=0 note=57 velocity=72 time=0
EXTRACT: note_on channel=0 note=52 velocity=72 time=0
EXTRACT: note_on channel=0 note=49 velocity=72 time=0
EXTRACT: note_on channel=4 note=37 velocity=80 time=0
EXTRACT: note_off channel=2 note=81 velocity=64 time=0
EXTRACT: note_off channel=2 note=76 velocity=64 time=0
EXTRACT: note_off channel=2 note=73 velocity=64 time=0
EXTRACT: note_off channel=2 note=69 velocity=64 time=0
EXTRACT: note_on channel=2 note=78 velocity=80 time=0
EXTRACT: note_on channel=2 note=73 velocity=80 time=0
EXTRACT: note_on channel=2 note=69 velocity=80 time=0
EXTRACT: note_off channel=8 note=73 velocity=64 time=0
EXTRACT: note_on channel=8 note=71 velocity=72 time=0
EXTRACT: note_off channel=9 note=82 velocity=64 time=0
EXTRACT: note_off channel=9 note=42 velocity=64 time=0
EXTRACT: note_on channel=9 note=42 velocity=80 time=0
EXTRACT: note_on channel=9 note=57 velocity=80 time=0
EXTRACT: note_on channel=9 note=38 velocity=80 time=0
EXTRACT: note_off channel=11 note=64 velocity=64 time=0.14285699999999998
EXTRACT: note_on channel=11 note=66 velocity=80 time=0
EXTRACT: note_off channel=4 note=37 velocity=64 time=0
EXTRACT: note_on channel=4 note=42 velocity=80 time=0
EXTRACT: note_off channel=8 note=71 velocity=64 time=0
EXTRACT: note_on channel=8 note=73 velocity=72 time=0
EXTRACT: note_off channel=0 note=66 velocity=64 time=0.14285699999999998
EXTRACT: note_off channel=0 note=61 velocity=64 time=0
EXTRACT: note_off channel=0 note=57 velocity=64 time=0
EXTRACT: note_off channel=0 note=52 velocity=64 time=0
EXTRACT: note_off channel=0 note=49 velocity=64 time=0
EXTRACT: note_on channel=0 note=66 velocity=72 time=0
EXTRACT: note_on channel=0 note=61 velocity=72 time=0
EXTRACT: note_on channel=0 note=57 velocity=72 time=0
EXTRACT: note_off channel=4 note=42 velocity=64 time=0
EXTRACT: note_off channel=9 note=42 velocity=64 time=0
EXTRACT: note_off channel=9 note=57 velocity=64 time=0
EXTRACT: note_off channel=9 note=38 velocity=64 time=0
EXTRACT: note_on channel=9 note=42 velocity=80 time=0
EXTRACT: note_off channel=0 note=66 velocity=64 time=0.14285699999999998
EXTRACT: note_off channel=0 note=61 velocity=64 time=0
EXTRACT: note_off channel=0 note=57 velocity=64 time=0
EXTRACT: note_on channel=0 note=66 velocity=72 time=0
EXTRACT: note_on channel=0 note=61 velocity=72 time=0
EXTRACT: note_on channel=0 note=57 velocity=72 time=0
EXTRACT: note_off channel=8 note=73 velocity=64 time=0
EXTRACT: note_on channel=8 note=71 velocity=72 time=0
EXTRACT: note_off channel=11 note=66 velocity=64 time=0.14285699999999998
EXTRACT: note_off channel=0 note=66 velocity=64 time=0
EXTRACT: note_off channel=0 note=61 velocity=64 time=0
EXTRACT: note_off channel=0 note=57 velocity=64 time=0
EXTRACT: note_on channel=0 note=66 velocity=72 time=0
EXTRACT: note_on channel=0 note=62 velocity=72 time=0
EXTRACT: note_on channel=0 note=57 velocity=72 time=0
EXTRACT: note_on channel=0 note=54 velocity=72 time=0
EXTRACT: note_on channel=0 note=47 velocity=72 time=0
EXTRACT: note_on channel=4 note=35 velocity=80 time=0
EXTRACT: note_off channel=2 note=78 velocity=64 time=0
EXTRACT: note_off channel=2 note=73 velocity=64 time=0
EXTRACT: note_off channel=2 note=69 velocity=64 time=0
EXTRACT: note_on channel=2 note=81 velocity=80 time=0
EXTRACT: note_on channel=2 note=78 velocity=80 time=0
EXTRACT: note_off channel=8 note=71 velocity=64 time=0
EXTRACT: note_on channel=8 note=73 velocity=72 time=0
EXTRACT: note_on channel=9 note=82 velocity=64 time=0
EXTRACT: note_off channel=9 note=42 velocity=64 time=0
EXTRACT: note_on channel=9 note=42 velocity=80 time=0
EXTRACT: note_on channel=9 note=57 velocity=80 time=0
EXTRACT: note_on channel=9 note=35 velocity=80 time=0
EXTRACT: note_off channel=9 note=82 velocity=64 time=0.14285699999999998
EXTRACT: note_on channel=9 note=82 velocity=64 time=0
EXTRACT: note_off channel=4 note=35 velocity=64 time=0.14285699999999998
EXTRACT: note_off channel=2 note=81 velocity=64 time=0
EXTRACT: note_off channel=2 note=78 velocity=64 time=0
EXTRACT: note_on channel=2 note=81 velocity=80 time=0
EXTRACT: note_on channel=2 note=78 velocity=80 time=0
EXTRACT: note_on channel=2 note=76 velocity=80 time=0
EXTRACT: note_off channel=8 note=73 velocity=64 time=0
EXTRACT: note_on channel=8 note=71 velocity=72 time=0
EXTRACT: note_off channel=9 note=82 velocity=64 time=0
EXTRACT: note_on channel=9 note=82 velocity=64 time=0
EXTRACT: note_off channel=9 note=42 velocity=64 time=0
EXTRACT: note_off channel=9 note=57 velocity=64 time=0
EXTRACT: note_off channel=9 note=35 velocity=64 time=0
EXTRACT: note_on channel=9 note=42 velocity=80 time=0
EXTRACT: note_off channel=0 note=66 velocity=64 time=0.14285699999999998
EXTRACT: note_off channel=0 note=62 velocity=64 time=0
EXTRACT: note_off channel=0 note=57 velocity=64 time=0
EXTRACT: note_off channel=0 note=54 velocity=64 time=0
EXTRACT: note_off channel=0 note=47 velocity=64 time=0
EXTRACT: note_on channel=0 note=66 velocity=72 time=0
EXTRACT: note_on channel=0 note=62 velocity=72 time=0
EXTRACT: note_on channel=0 note=57 velocity=72 time=0
EXTRACT: note_on channel=0 note=54 velocity=72 time=0
EXTRACT: note_on channel=0 note=47 velocity=72 time=0
EXTRACT: note_on channel=4 note=35 velocity=80 time=0
EXTRACT: note_off channel=0 note=66 velocity=64 time=0.14285699999999998
EXTRACT: note_off channel=0 note=62 velocity=64 time=0
EXTRACT: note_off channel=0 note=57 velocity=64 time=0
EXTRACT: note_off channel=0 note=54 velocity=64 time=0
EXTRACT: note_off channel=0 note=47 velocity=64 time=0
EXTRACT: note_on channel=0 note=66 velocity=72 time=0
EXTRACT: note_on channel=0 note=62 velocity=72 time=0
EXTRACT: note_on channel=0 note=57 velocity=72 time=0
EXTRACT: note_off channel=4 note=35 velocity=64 time=0
EXTRACT: note_off channel=2 note=81 velocity=64 time=0
EXTRACT: note_off channel=2 note=78 velocity=64 time=0
EXTRACT: note_off channel=2 note=76 velocity=64 time=0
EXTRACT: note_on channel=2 note=81 velocity=80 time=0
EXTRACT: note_on channel=2 note=78 velocity=80 time=0
EXTRACT: note_on channel=2 note=74 velocity=80 time=0
EXTRACT: note_off channel=8 note=71 velocity=64 time=0
EXTRACT: note_on channel=8 note=74 velocity=80 time=0
EXTRACT: note_off channel=9 note=82 velocity=64 time=0
EXTRACT: note_off channel=9 note=42 velocity=64 time=0
EXTRACT: note_on channel=9 note=42 velocity=80 time=0
EXTRACT: note_on channel=9 note=57 velocity=80 time=0
EXTRACT: note_on channel=9 note=38 velocity=80 time=0
EXTRACT: note_on channel=11 note=64 velocity=80 time=0.14285699999999998
EXTRACT: note_off channel=0 note=66 velocity=64 time=0
EXTRACT: note_off channel=0 note=62 velocity=64 time=0
EXTRACT: note_off channel=0 note=57 velocity=64 time=0
EXTRACT: note_on channel=0 note=66 velocity=72 time=0
EXTRACT: note_on channel=0 note=62 velocity=72 time=0
EXTRACT: note_on channel=0 note=57 velocity=72 time=0
EXTRACT: note_off channel=11 note=64 velocity=64 time=0.14285699999999998
EXTRACT: note_on channel=11 note=64 velocity=80 time=0
EXTRACT: note_off channel=0 note=66 velocity=64 time=0
EXTRACT: note_off channel=0 note=62 velocity=64 time=0
EXTRACT: note_off channel=0 note=57 velocity=64 time=0
EXTRACT: note_on channel=0 note=66 velocity=72 time=0
EXTRACT: note_on channel=0 note=61 velocity=72 time=0
EXTRACT: note_on channel=0 note=57 velocity=72 time=0
EXTRACT: note_on channel=0 note=52 velocity=72 time=0
EXTRACT: note_on channel=0 note=49 velocity=72 time=0
EXTRACT: note_on channel=4 note=30 velocity=80 time=0
EXTRACT: note_off channel=2 note=81 velocity=64 time=0
EXTRACT: note_off channel=2 note=78 velocity=64 time=0
EXTRACT: note_off channel=2 note=74 velocity=64 time=0
EXTRACT: note_on channel=2 note=78 velocity=80 time=0
EXTRACT: note_on channel=2 note=73 velocity=80 time=0
EXTRACT: note_on channel=2 note=69 velocity=80 time=0
EXTRACT: note_off channel=8 note=74 velocity=64 time=0
EXTRACT: note_on channel=8 note=73 velocity=80 time=0
EXTRACT: note_off channel=9 note=42 velocity=64 time=0
EXTRACT: note_off channel=9 note=57 velocity=64 time=0
EXTRACT: note_off channel=9 note=38 velocity=64 time=0
EXTRACT: note_on channel=9 note=42 velocity=80 time=0
EXTRACT: note_on channel=9 note=35 velocity=80 time=0
EXTRACT: note_off channel=11 note=64 velocity=64 time=0.14285699999999998
EXTRACT: note_on channel=11 note=64 velocity=80 time=0
EXTRACT: note_off channel=11 note=64 velocity=64 time=0.14285699999999998
EXTRACT: note_on channel=11 note=67 velocity=80 time=0
EXTRACT: note_off channel=0 note=66 velocity=64 time=0
EXTRACT: note_off channel=0 note=61 velocity=64 time=0
EXTRACT: note_off channel=0 note=57 velocity=64 time=0
EXTRACT: note_off channel=0 note=52 velocity=64 time=0
EXTRACT: note_off channel=0 note=49 velocity=64 time=0
EXTRACT: note_off channel=4 note=30 velocity=64 time=0
EXTRACT: note_off channel=2 note=78 velocity=64 time=0
EXTRACT: note_off channel=2 note=73 velocity=64 time=0
EXTRACT: note_off channel=2 note=69 velocity=64 time=0
EXTRACT: note_off channel=8 note=73 velocity=64 time=0
EXTRACT: note_on channel=9 note=82 velocity=64 time=0
EXTRACT: note_off channel=9 note=42 velocity=64 time=0
EXTRACT: note_off channel=9 note=35 velocity=64 time=0
EXTRACT: note_on channel=9 note=42 velocity=80 time=0
EXTRACT: note_on channel=9 note=57 velocity=80 time=0
EXTRACT: note_on channel=0 note=66 velocity=72 time=0.14285699999999998
EXTRACT: note_on channel=0 note=61 velocity=72 time=0
EXTRACT: note_on channel=0 note=57 velocity=72 time=0
EXTRACT: note_off channel=9 note=82 velocity=64 time=0
EXTRACT: note_on channel=9 note=82 velocity=64 time=0
EXTRACT: note_off channel=9 note=42 velocity=64 time=0
EXTRACT: note_off channel=9 note=57 velocity=64 time=0
EXTRACT: note_on channel=9 note=38 velocity=80 time=0
EXTRACT: note_off channel=11 note=67 velocity=64 time=0.14285699999999998
EXTRACT: note_on channel=11 note=62 velocity=80 time=0
EXTRACT: note_off channel=0 note=66 velocity=64 time=0
EXTRACT: note_off channel=0 note=61 velocity=64 time=0
EXTRACT: note_off channel=0 note=57 velocity=64 time=0
EXTRACT: note_on channel=0 note=61 velocity=72 time=0
EXTRACT: note_on channel=0 note=57 velocity=72 time=0
EXTRACT: note_on channel=0 note=52 velocity=72 time=0
EXTRACT: note_on channel=0 note=49 velocity=72 time=0
EXTRACT: note_on channel=8 note=71 velocity=80 time=0
EXTRACT: note_off channel=9 note=82 velocity=64 time=0
EXTRACT: note_on channel=9 note=82 velocity=64 time=0
EXTRACT: note_off channel=9 note=38 velocity=64 time=0
EXTRACT: note_on channel=9 note=42 velocity=80 time=0
EXTRACT: note_off channel=11 note=62 velocity=64 time=0.14285699999999998
EXTRACT: note_on channel=11 note=64 velocity=80 time=0
EXTRACT: note_off channel=11 note=64 velocity=64 time=0.14285699999999998
EXTRACT: note_on channel=11 note=62 velocity=80 time=0
EXTRACT: note_off channel=0 note=61 velocity=64 time=0
EXTRACT: note_off channel=0 note=57 velocity=64 time=0
EXTRACT: note_off channel=0 note=52 velocity=64 time=0
EXTRACT: note_off channel=0 note=49 velocity=64 time=0
EXTRACT: note_on channel=0 note=66 velocity=72 time=0
EXTRACT: note_on channel=0 note=61 velocity=72 time=0
EXTRACT: note_on channel=0 note=57 velocity=72 time=0
EXTRACT: note_on channel=0 note=52 velocity=72 time=0
EXTRACT: note_on channel=0 note=49 velocity=72 time=0
EXTRACT: note_on channel=2 note=78 velocity=80 time=0
EXTRACT: note_on channel=2 note=73 velocity=80 time=0
EXTRACT: note_on channel=2 note=69 velocity=80 time=0
EXTRACT: note_off channel=8 note=71 velocity=64 time=0
EXTRACT: note_on channel=8 note=73 velocity=80 time=0
EXTRACT: note_off channel=9 note=82 velocity=64 time=0
EXTRACT: note_off channel=9 note=42 velocity=64 time=0
EXTRACT: note_on channel=9 note=42 velocity=80 time=0
EXTRACT: note_on channel=9 note=57 velocity=80 time=0
EXTRACT: note_on channel=9 note=38 velocity=80 time=0
EXTRACT: note_off channel=11 note=62 velocity=64 time=0.28571399999999997
EXTRACT: note_on channel=11 note=60 velocity=80 time=0
EXTRACT: note_off channel=0 note=66 velocity=64 time=0
EXTRACT: note_off channel=0 note=61 velocity=64 time=0
EXTRACT: note_off channel=0 note=57 velocity=64 time=0
EXTRACT: note_off channel=0 note=52 velocity=64 time=0
EXTRACT: note_off channel=0 note=49 velocity=64 time=0
EXTRACT: note_on channel=0 note=66 velocity=72 time=0
EXTRACT: note_on channel=0 note=61 velocity=72 time=0
EXTRACT: note_on channel=0 note=57 velocity=72 time=0
EXTRACT: note_on channel=4 note=33 velocity=80 time=0
EXTRACT: note_off channel=2 note=78 velocity=64 time=0
EXTRACT: note_off channel=2 note=73 velocity=64 time=0
EXTRACT: note_off channel=2 note=69 velocity=64 time=0
EXTRACT: note_on channel=2 note=78 velocity=80 time=0
EXTRACT: note_on channel=2 note=73 velocity=80 time=0
EXTRACT: note_on channel=2 note=69 velocity=80 time=0
EXTRACT: note_off channel=8 note=73 velocity=64 time=0
EXTRACT: note_on channel=8 note=71 velocity=80 time=0
EXTRACT: note_off channel=9 note=42 velocity=64 time=0
EXTRACT: note_off channel=9 note=57 velocity=64 time=0
EXTRACT: note_off channel=9 note=38 velocity=64 time=0
EXTRACT: note_on channel=9 note=42 velocity=80 time=0
EXTRACT: note_off channel=11 note=60 velocity=64 time=0.14285699999999998
EXTRACT: note_on channel=11 note=62 velocity=80 time=0
EXTRACT: note_off channel=0 note=66 velocity=64 time=0
EXTRACT: note_off channel=0 note=61 velocity=64 time=0
EXTRACT: note_off channel=0 note=57 velocity=64 time=0
EXTRACT: note_on channel=0 note=66 velocity=72 time=0
EXTRACT: note_on channel=0 note=61 velocity=72 time=0
EXTRACT: note_on channel=0 note=57 velocity=72 time=0
EXTRACT: note_off channel=4 note=33 velocity=64 time=0
EXTRACT: note_on channel=4 note=30 velocity=80 time=0
EXTRACT: note_off channel=11 note=62 velocity=64 time=0.14285699999999998
EXTRACT: note_on channel=11 note=60 velocity=80 time=0
EXTRACT: note_off channel=0 note=66 velocity=64 time=0
EXTRACT: note_off channel=0 note=61 velocity=64 time=0
EXTRACT: note_off channel=0 note=57 velocity=64 time=0
EXTRACT: note_on channel=0 note=60 velocity=72 time=0
EXTRACT: note_on channel=0 note=57 velocity=72 time=0
EXTRACT: note_on channel=0 note=52 velocity=72 time=0
EXTRACT: note_on channel=0 note=41 velocity=72 time=0
EXTRACT: note_off channel=4 note=30 velocity=64 time=0
EXTRACT: note_on channel=4 note=29 velocity=80 time=0
EXTRACT: note_off channel=2 note=78 velocity=64 time=0
EXTRACT: note_off channel=2 note=73 velocity=64 time=0
EXTRACT: note_off channel=2 note=69 velocity=64 time=0
EXTRACT: note_on channel=2 note=76 velocity=80 time=0
EXTRACT: note_on channel=2 note=72 velocity=80 time=0
EXTRACT: note_on channel=2 note=69 velocity=80 time=0
EXTRACT: note_on channel=2 note=67 velocity=80 time=0
EXTRACT: note_off channel=8 note=71 velocity=64 time=0
EXTRACT: note_on channel=8 note=69 velocity=80 time=0
EXTRACT: note_on channel=9 note=82 velocity=64 time=0
EXTRACT: note_off channel=9 note=42 velocity=64 time=0
EXTRACT: note_on channel=9 note=42 velocity=80 time=0
EXTRACT: note_on channel=9 note=57 velocity=80 time=0
EXTRACT: note_on channel=9 note=35 velocity=80 time=0
EXTRACT: note_off channel=11 note=60 velocity=64 time=0.14285699999999998
EXTRACT: note_on channel=11 note=57 velocity=80 time=0
EXTRACT: note_off channel=9 note=82 velocity=64 time=0
EXTRACT: note_on channel=9 note=82 velocity=64 time=0
EXTRACT: note_off channel=11 note=57 velocity=64 time=0.14285699999999998
EXTRACT: note_on channel=11 note=55 velocity=80 time=0
EXTRACT: note_off channel=9 note=82 velocity=64 time=0
EXTRACT: note_on channel=9 note=82 velocity=64 time=0
EXTRACT: note_off channel=9 note=42 velocity=64 time=0
EXTRACT: note_off channel=9 note=57 velocity=64 time=0
EXTRACT: note_off channel=9 note=35 velocity=64 time=0
EXTRACT: note_on channel=9 note=42 velocity=80 time=0
EXTRACT: note_off channel=11 note=55 velocity=64 time=0.14285699999999998
EXTRACT: note_on channel=11 note=57 velocity=80 time=0
EXTRACT: note_off channel=0 note=60 velocity=64 time=0
EXTRACT: note_off channel=0 note=57 velocity=64 time=0
EXTRACT: note_off channel=0 note=52 velocity=64 time=0
EXTRACT: note_off channel=0 note=41 velocity=64 time=0
EXTRACT: note_on channel=0 note=60 velocity=72 time=0
EXTRACT: note_on channel=0 note=57 velocity=72 time=0
EXTRACT: note_on channel=0 note=52 velocity=72 time=0
EXTRACT: note_on channel=0 note=41 velocity=72 time=0
EXTRACT: note_off channel=4 note=29 velocity=64 time=0
EXTRACT: note_on channel=4 note=29 velocity=80 time=0
EXTRACT: note_off channel=2 note=76 velocity=64 time=0
EXTRACT: note_off channel=2 note=72 velocity=64 time=0
EXTRACT: note_off channel=2 note=69 velocity=64 time=0
EXTRACT: note_off channel=2 note=67 velocity=64 time=0
EXTRACT: note_on channel=2 note=76 velocity=80 time=0
EXTRACT: note_on channel=2 note=72 velocity=80 time=0
EXTRACT: note_on channel=2 note=69 velocity=80 time=0
EXTRACT: note_on channel=2 note=67 velocity=80 time=0
EXTRACT: note_off channel=11 note=57 velocity=64 time=0.14285699999999998
EXTRACT: note_off channel=0 note=60 velocity=64 time=0
EXTRACT: note_off channel=0 note=57 velocity=64 time=0
EXTRACT: note_off channel=0 note=52 velocity=64 time=0
EXTRACT: note_off channel=0 note=41 velocity=64 time=0
EXTRACT: note_on channel=0 note=60 velocity=72 time=0
EXTRACT: note_on channel=0 note=57 velocity=72 time=0
EXTRACT: note_on channel=0 note=52 velocity=72 time=0
EXTRACT: note_off channel=4 note=29 velocity=64 time=0
EXTRACT: note_off channel=2 note=76 velocity=64 time=0
EXTRACT: note_off channel=2 note=72 velocity=64 time=0
EXTRACT: note_off channel=2 note=69 velocity=64 time=0
EXTRACT: note_off channel=2 note=67 velocity=64 time=0
EXTRACT: note_off channel=9 note=82 velocity=64 time=0
EXTRACT: note_off channel=9 note=42 velocity=64 time=0
EXTRACT: note_on channel=9 note=42 velocity=80 time=0
EXTRACT: note_on channel=9 note=57 velocity=80 time=0
EXTRACT: note_on channel=9 note=38 velocity=80 time=0
EXTRACT: note_off channel=0 note=60 velocity=64 time=0.14285699999999998
EXTRACT: note_off channel=0 note=57 velocity=64 time=0
EXTRACT: note_off channel=0 note=52 velocity=64 time=0
EXTRACT: note_on channel=0 note=60 velocity=72 time=0
EXTRACT: note_on channel=0 note=57 velocity=72 time=0
EXTRACT: note_on channel=0 note=52 velocity=72 time=0
EXTRACT: note_on channel=4 note=29 velocity=80 time=0
EXTRACT: note_off channel=0 note=60 velocity=64 time=0.14285699999999998
EXTRACT: note_off channel=0 note=57 velocity=64 time=0
EXTRACT: note_off channel=0 note=52 velocity=64 time=0
EXTRACT: note_on channel=0 note=62 velocity=72 time=0
EXTRACT: note_on channel=0 note=59 velocity=72 time=0
EXTRACT: note_on channel=0 note=54 velocity=72 time=0
EXTRACT: note_on channel=0 note=43 velocity=72 time=0
EXTRACT: note_off channel=4 note=29 velocity=64 time=0
EXTRACT: note_on channel=4 note=31 velocity=80 time=0
EXTRACT: note_on channel=2 note=78 velocity=80 time=0
EXTRACT: note_on channel=2 note=74 velocity=80 time=0
EXTRACT: note_on channel=2 note=71 velocity=80 time=0
EXTRACT: note_on channel=2 note=69 velocity=80 time=0
EXTRACT: note_off channel=8 note=69 velocity=64 time=0
EXTRACT: note_on channel=8 note=76 velocity=80 time=0
EXTRACT: note_off channel=9 note=42 velocity=64 time=0
EXTRACT: note_off channel=9 note=57 velocity=64 time=0
EXTRACT: note_off channel=9 note=38 velocity=64 time=0
EXTRACT: note_on channel=9 note=42 velocity=80 time=0
EXTRACT: note_on channel=9 note=35 velocity=80 time=0
EXTRACT: note_off channel=0 note=62 velocity=64 time=0.28571399999999997
EXTRACT: note_off channel=0 note=59 velocity=64 time=0
EXTRACT: note_off channel=0 note=54 velocity=64 time=0
EXTRACT: note_off channel=0 note=43 velocity=64 time=0
EXTRACT: note_off channel=4 note=31 velocity=64 time=0
EXTRACT: note_off channel=2 note=78 velocity=64 time=0
EXTRACT: note_off channel=2 note=74 velocity=64 time=0
EXTRACT: note_off channel=2 note=71 velocity=64 time=0
EXTRACT: note_off channel=2 note=69 velocity=64 time=0
EXTRACT: note_off channel=8 note=76 velocity=64 time=0
EXTRACT: note_on channel=9 note=82 velocity=64 time=0
EXTRACT: note_off channel=9 note=42 velocity=64 time=0
EXTRACT: note_off channel=9 note=35 velocity=64 time=0
EXTRACT: note_on channel=9 note=42 velocity=80 time=0
EXTRACT: note_on channel=9 note=57 velocity=80 time=0
EXTRACT: note_on channel=0 note=62 velocity=72 time=0.14285699999999998
EXTRACT: note_on channel=0 note=59 velocity=72 time=0
EXTRACT: note_on channel=0 note=54 velocity=72 time=0
EXTRACT: note_off channel=9 note=82 velocity=64 time=0
EXTRACT: note_on channel=9 note=82 velocity=64 time=0
EXTRACT: note_off channel=9 note=42 velocity=64 time=0
EXTRACT: note_off channel=9 note=57 velocity=64 time=0
EXTRACT: note_on channel=9 note=38 velocity=80 time=0
EXTRACT: note_off channel=0 note=62 velocity=64 time=0.14285699999999998
EXTRACT: note_off channel=0 note=59 velocity=64 time=0
EXTRACT: note_off channel=0 note=54 velocity=64 time=0
EXTRACT: note_on channel=0 note=62 velocity=72 time=0
EXTRACT: note_on channel=0 note=59 velocity=72 time=0
EXTRACT: note_on channel=0 note=54 velocity=72 time=0
EXTRACT: note_on channel=0 note=43 velocity=72 time=0
EXTRACT: note_on channel=4 note=38 velocity=80 time=0
EXTRACT: note_off channel=9 note=82 velocity=64 time=0
EXTRACT: note_on channel=9 note=82 velocity=64 time=0
EXTRACT: note_off channel=9 note=38 velocity=64 time=0
EXTRACT: note_on channel=9 note=42 velocity=80 time=0
EXTRACT: note_off channel=0 note=62 velocity=64 time=0.28571399999999997
EXTRACT: note_off channel=0 note=59 velocity=64 time=0
EXTRACT: note_off channel=0 note=54 velocity=64 time=0
EXTRACT: note_off channel=0 note=43 velocity=64 time=0
EXTRACT: note_on channel=0 note=62 velocity=72 time=0
EXTRACT: note_on channel=0 note=59 velocity=72 time=0
EXTRACT: note_on channel=0 note=54 velocity=72 time=0
EXTRACT: note_on channel=0 note=43 velocity=72 time=0
EXTRACT: note_off channel=4 note=38 velocity=64 time=0
EXTRACT: note_on channel=4 note=43 velocity=80 time=0
EXTRACT: note_on channel=2 note=78 velocity=80 time=0
EXTRACT: note_on channel=2 note=74 velocity=80 time=0
EXTRACT: note_on channel=2 note=71 velocity=80 time=0
EXTRACT: note_on channel=2 note=69 velocity=80 time=0
EXTRACT: note_off channel=9 note=82 velocity=64 time=0
EXTRACT: note_off channel=9 note=42 velocity=64 time=0
EXTRACT: note_on channel=9 note=42 velocity=80 time=0
EXTRACT: note_on channel=9 note=57 velocity=80 time=0
EXTRACT: note_on channel=9 note=38 velocity=80 time=0
EXTRACT: note_off channel=4 note=43 velocity=64 time=0.14285699999999998
EXTRACT: note_on channel=4 note=38 velocity=80 time=0
EXTRACT: note_off channel=0 note=62 velocity=64 time=0.14285699999999998
EXTRACT: note_off channel=0 note=59 velocity=64 time=0
EXTRACT: note_off channel=0 note=54 velocity=64 time=0
EXTRACT: note_off channel=0 note=43 velocity=64 time=0
EXTRACT: note_on channel=0 note=62 velocity=72 time=0
EXTRACT: note_on channel=0 note=59 velocity=72 time=0
EXTRACT: note_on channel=0 note=54 velocity=72 time=0
EXTRACT: note_off channel=4 note=38 velocity=64 time=0
EXTRACT: note_on channel=4 note=31 velocity=80 time=0
EXTRACT: note_off channel=9 note=42 velocity=64 time=0
EXTRACT: note_off channel=9 note=57 velocity=64 time=0
EXTRACT: note_off channel=9 note=38 velocity=64 time=0
EXTRACT: note_on channel=9 note=42 velocity=80 time=0
EXTRACT: note_off channel=0 note=62 velocity=64 time=0.14285699999999998
EXTRACT: note_off channel=0 note=59 velocity=64 time=0
EXTRACT: note_off channel=0 note=54 velocity=64 time=0
EXTRACT: note_on channel=0 note=62 velocity=72 time=0
EXTRACT: note_on channel=0 note=59 velocity=72 time=0
EXTRACT: note_on channel=0 note=54 velocity=72 time=0
EXTRACT: note_off channel=4 note=31 velocity=64 time=0
EXTRACT: note_on channel=4 note=32 velocity=80 time=0
EXTRACT: note_off channel=0 note=62 velocity=64 time=0.14285699999999998
EXTRACT: note_off channel=0 note=59 velocity=64 time=0
EXTRACT: note_off channel=0 note=54 velocity=64 time=0
EXTRACT: note_on channel=0 note=64 velocity=72 time=0
EXTRACT: note_on channel=0 note=61 velocity=72 time=0
EXTRACT: note_on channel=0 note=56 velocity=72 time=0
EXTRACT: note_on channel=0 note=45 velocity=72 time=0
EXTRACT: note_off channel=4 note=32 velocity=64 time=0
EXTRACT: note_on channel=4 note=33 velocity=80 time=0
EXTRACT: note_off channel=2 note=78 velocity=64 time=0
EXTRACT: note_off channel=2 note=74 velocity=64 time=0
EXTRACT: note_off channel=2 note=71 velocity=64 time=0
EXTRACT: note_off channel=2 note=69 velocity=64 time=0
EXTRACT: note_on channel=2 note=80 velocity=80 time=0
EXTRACT: note_on channel=2 note=76 velocity=80 time=0
EXTRACT: note_on channel=2 note=73 velocity=80 time=0
EXTRACT: note_on channel=2 note=71 velocity=80 time=0
EXTRACT: note_on channel=8 note=83 velocity=80 time=0
EXTRACT: note_on channel=9 note=82 velocity=64 time=0
EXTRACT: note_off channel=9 note=42 velocity=64 time=0
EXTRACT: note_on channel=9 note=42 velocity=80 time=0
EXTRACT: note_on channel=9 note=57 velocity=80 time=0
EXTRACT: note_on channel=9 note=35 velocity=80 time=0
EXTRACT: note_off channel=9 note=82 velocity=64 time=0.14285699999999998
EXTRACT: note_on channel=9 note=82 velocity=64 time=0
EXTRACT: note_off channel=9 note=82 velocity=64 time=0.14285699999999998
EXTRACT: note_on channel=9 note=82 velocity=64 time=0
EXTRACT: note_off channel=9 note=42 velocity=64 time=0
EXTRACT: note_off channel=9 note=57 velocity=64 time=0
EXTRACT: note_off channel=9 note=35 velocity=64 time=0
EXTRACT: note_on channel=9 note=42 velocity=80 time=0
EXTRACT: note_off channel=0 note=64 velocity=64 time=0.14285699999999998
EXTRACT: note_off channel=0 note=61 velocity=64 time=0
EXTRACT: note_off channel=0 note=56 velocity=64 time=0
EXTRACT: note_off channel=0 note=45 velocity=64 time=0
EXTRACT: note_on channel=0 note=64 velocity=72 time=0
EXTRACT: note_on channel=0 note=61 velocity=72 time=0
EXTRACT: note_on channel=0 note=56 velocity=72 time=0
EXTRACT: note_on channel=0 note=45 velocity=72 time=0
EXTRACT: note_off channel=4 note=33 velocity=64 time=0
EXTRACT: note_on channel=4 note=40 velocity=80 time=0
EXTRACT: note_off channel=2 note=80 velocity=64 time=0
EXTRACT: note_off channel=2 note=76 velocity=64 time=0
EXTRACT: note_off channel=2 note=73 velocity=64 time=0
EXTRACT: note_off channel=2 note=71 velocity=64 time=0
EXTRACT: note_on channel=2 note=80 velocity=80 time=0
EXTRACT: note_on channel=2 note=76 velocity=80 time=0
EXTRACT: note_on channel=2 note=73 velocity=80 time=0
EXTRACT: note_on channel=2 note=71 velocity=80 time=0
EXTRACT: note_off channel=0 note=64 velocity=64 time=0.14285699999999998
EXTRACT: note_off channel=0 note=61 velocity=64 time=0
EXTRACT: note_off channel=0 note=56 velocity=64 time=0
EXTRACT: note_off channel=0 note=45 velocity=64 time=0
EXTRACT: note_on channel=0 note=64 velocity=72 time=0
EXTRACT: note_on channel=0 note=61 velocity=72 time=0
EXTRACT: note_on channel=0 note=56 velocity=72 time=0
EXTRACT: note_off channel=4 note=40 velocity=64 time=0
EXTRACT: note_off channel=2 note=80 velocity=64 time=0
EXTRACT: note_off channel=2 note=76 velocity=64 time=0
EXTRACT: note_off channel=2 note=73 velocity=64 time=0
EXTRACT: note_off channel=2 note=71 velocity=64 time=0
EXTRACT: note_off channel=9 note=82 velocity=64 time=0
EXTRACT: note_off channel=9 note=42 velocity=64 time=0
EXTRACT: note_on channel=9 note=42 velocity=80 time=0
EXTRACT: note_on channel=9 note=57 velocity=80 time=0
EXTRACT: note_on channel=9 note=38 velocity=80 time=0
EXTRACT: note_off channel=0 note=64 velocity=64 time=0.14285699999999998
EXTRACT: note_off channel=0 note=61 velocity=64 time=0
EXTRACT: note_off channel=0 note=56 velocity=64 time=0
EXTRACT: note_on channel=0 note=64 velocity=72 time=0
EXTRACT: note_on channel=0 note=61 velocity=72 time=0
EXTRACT: note_on channel=0 note=56 velocity=72 time=0
EXTRACT: note_on channel=4 note=33 velocity=80 time=0
EXTRACT: note_off channel=0 note=64 velocity=64 time=0.14285699999999998
EXTRACT: note_off channel=0 note=61 velocity=64 time=0
EXTRACT: note_off channel=0 note=56 velocity=64 time=0
EXTRACT: note_on channel=0 note=69 velocity=72 time=0
EXTRACT: note_on channel=0 note=64 velocity=72 time=0
EXTRACT: note_on channel=0 note=60 velocity=72 time=0
EXTRACT: note_on channel=0 note=55 velocity=72 time=0
EXTRACT: note_on channel=0 note=50 velocity=72 time=0
EXTRACT: note_off channel=4 note=33 velocity=64 time=0
EXTRACT: note_on channel=4 note=38 velocity=80 time=0
EXTRACT: note_on channel=2 note=76 velocity=80 time=0
EXTRACT: note_on channel=2 note=72 velocity=80 time=0
EXTRACT: note_on channel=2 note=71 velocity=80 time=0
EXTRACT: note_on channel=2 note=67 velocity=80 time=0
EXTRACT: note_off channel=8 note=83 velocity=64 time=0
EXTRACT: note_on channel=8 note=69 velocity=80 time=0
EXTRACT: note_off channel=9 note=42 velocity=64 time=0
EXTRACT: note_off channel=9 note=57 velocity=64 time=0
EXTRACT: note_off channel=9 note=38 velocity=64 time=0
EXTRACT: note_on channel=9 note=42 velocity=80 time=0
EXTRACT: note_on channel=9 note=35 velocity=80 time=0
EXTRACT: note_on channel=11 note=64 velocity=80 time=0.28571399999999997
EXTRACT: note_off channel=0 note=69 velocity=64 time=0
EXTRACT: note_off channel=0 note=64 velocity=64 time=0
EXTRACT: note_off channel=0 note=60 velocity=64 time=0
EXTRACT: note_off channel=0 note=55 velocity=64 time=0
EXTRACT: note_off channel=0 note=50 velocity=64 time=0
EXTRACT: note_off channel=4 note=38 velocity=64 time=0
EXTRACT: note_off channel=2 note=76 velocity=64 time=0
EXTRACT: note_off channel=2 note=72 velocity=64 time=0
EXTRACT: note_off channel=2 note=71 velocity=64 time=0
EXTRACT: note_off channel=2 note=67 velocity=64 time=0
EXTRACT: note_off channel=8 note=69 velocity=64 time=0
EXTRACT: note_on channel=9 note=82 velocity=64 time=0
EXTRACT: note_off channel=9 note=42 velocity=64 time=0
EXTRACT: note_off channel=9 note=35 velocity=64 time=0
EXTRACT: note_on channel=9 note=42 velocity=80 time=0
EXTRACT: note_on channel=9 note=57 velocity=80 time=0
EXTRACT: note_on channel=0 note=69 velocity=72 time=0.14285699999999998
EXTRACT: note_on channel=0 note=64 velocity=72 time=0
EXTRACT: note_on channel=0 note=60 velocity=72 time=0
EXTRACT: note_off channel=9 note=82 velocity=64 time=0
EXTRACT: note_on channel=9 note=82 velocity=64 time=0
EXTRACT: note_off channel=9 note=42 velocity=64 time=0
EXTRACT: note_off channel=9 note=57 velocity=64 time=0
EXTRACT: note_on channel=9 note=38 velocity=80 time=0
EXTRACT: note_off channel=11 note=64 velocity=64 time=0.14285699999999998
EXTRACT: note_on channel=11 note=66 velocity=80 time=0
EXTRACT: note_off channel=0 note=69 velocity=64 time=0
EXTRACT: note_off channel=0 note=64 velocity=64 time=0
EXTRACT: note_off channel=0 note=60 velocity=64 time=0
EXTRACT: note_on channel=0 note=64 velocity=72 time=0
EXTRACT: note_on channel=0 note=60 velocity=72 time=0
EXTRACT: note_on channel=0 note=55 velocity=72 time=0
EXTRACT: note_on channel=0 note=50 velocity=72 time=0
EXTRACT: note_on channel=2 note=76 velocity=80 time=0
EXTRACT: note_on channel=2 note=72 velocity=80 time=0
EXTRACT: note_on channel=2 note=71 velocity=80 time=0
EXTRACT: note_on channel=2 note=67 velocity=80 time=0
EXTRACT: note_off channel=9 note=82 velocity=64 time=0
EXTRACT: note_on channel=9 note=82 velocity=64 time=0
EXTRACT: note_off channel=9 note=38 velocity=64 time=0
EXTRACT: note_on channel=9 note=42 velocity=80 time=0
EXTRACT: note_on channel=4 note=33 velocity=80 time=0.14285699999999998
EXTRACT: note_off channel=11 note=66 velocity=64 time=0.14285699999999998
EXTRACT: note_on channel=11 note=69 velocity=80 time=0
EXTRACT: note_off channel=0 note=64 velocity=64 time=0
EXTRACT: note_off channel=0 note=60 velocity=64 time=0
EXTRACT: note_off channel=0 note=55 velocity=64 time=0
EXTRACT: note_off channel=0 note=50 velocity=64 time=0
EXTRACT: note_on channel=0 note=69 velocity=72 time=0
EXTRACT: note_on channel=0 note=64 velocity=72 time=0
EXTRACT: note_on channel=0 note=60 velocity=72 time=0
EXTRACT: note_on channel=0 note=55 velocity=72 time=0
EXTRACT: note_on channel=0 note=50 velocity=72 time=0
EXTRACT: note_off channel=4 note=33 velocity=64 time=0
EXTRACT: note_on channel=4 note=38 velocity=80 time=0
EXTRACT: note_off channel=2 note=76 velocity=64 time=0
EXTRACT: note_off channel=2 note=72 velocity=64 time=0
EXTRACT: note_off channel=2 note=71 velocity=64 time=0
EXTRACT: note_off channel=2 note=67 velocity=64 time=0
EXTRACT: note_on channel=2 note=76 velocity=80 time=0
EXTRACT: note_on channel=2 note=72 velocity=80 time=0
EXTRACT: note_on channel=2 note=71 velocity=80 time=0
EXTRACT: note_on channel=2 note=67 velocity=80 time=0
EXTRACT: note_off channel=9 note=82 velocity=64 time=0
EXTRACT: note_off channel=9 note=42 velocity=64 time=0
EXTRACT: note_on channel=9 note=42 velocity=80 time=0
EXTRACT: note_on channel=9 note=57 velocity=80 time=0
EXTRACT: note_on channel=9 note=38 velocity=80 time=0
EXTRACT: note_off channel=4 note=38 velocity=64 time=0.14285699999999998
EXTRACT: note_on channel=4 note=33 velocity=80 time=0
EXTRACT: note_off channel=11 note=69 velocity=64 time=0.14285699999999998
EXTRACT: note_on channel=11 note=66 velocity=80 time=0
EXTRACT: note_off channel=0 note=69 velocity=64 time=0
EXTRACT: note_off channel=0 note=64 velocity=64 time=0
EXTRACT: note_off channel=0 note=60 velocity=64 time=0
EXTRACT: note_off channel=0 note=55 velocity=64 time=0
EXTRACT: note_off channel=0 note=50 velocity=64 time=0
EXTRACT: note_on channel=0 note=66 velocity=72 time=0
EXTRACT: note_on channel=0 note=61 velocity=72 time=0
EXTRACT: note_on channel=0 note=57 velocity=72 time=0
EXTRACT: note_off channel=4 note=33 velocity=64 time=0
EXTRACT: note_on channel=4 note=37 velocity=80 time=0
EXTRACT: note_off channel=9 note=42 velocity=64 time=0
EXTRACT: note_off channel=9 note=57 velocity=64 time=0
EXTRACT: note_off channel=9 note=38 velocity=64 time=0
EXTRACT: note_on channel=9 note=38 velocity=80 time=0
EXTRACT: note_off channel=11 note=66 velocity=64 time=0.14285699999999998
EXTRACT: note_on channel=11 note=69 velocity=80 time=0
EXTRACT: note_off channel=0 note=66 velocity=64 time=0
EXTRACT: note_off channel=0 note=61 velocity=64 time=0
EXTRACT: note_off channel=0 note=57 velocity=64 time=0
EXTRACT: note_on channel=0 note=66 velocity=72 time=0
EXTRACT: note_on channel=0 note=61 velocity=72 time=0
EXTRACT: note_on channel=0 note=57 velocity=72 time=0
EXTRACT: note_off channel=9 note=38 velocity=64 time=0
EXTRACT: note_on channel=9 note=38 velocity=80 time=0
EXTRACT: note_off channel=11 note=69 velocity=64 time=0.14285699999999998
EXTRACT: note_off channel=0 note=66 velocity=64 time=0
EXTRACT: note_off channel=0 note=61 velocity=64 time=0
EXTRACT: note_off channel=0 note=57 velocity=64 time=0
EXTRACT: note_on channel=0 note=66 velocity=72 time=0
EXTRACT: note_on channel=0 note=62 velocity=72 time=0
EXTRACT: note_on channel=0 note=57 velocity=72 time=0
EXTRACT: note_on channel=0 note=54 velocity=72 time=0
EXTRACT: note_on channel=0 note=47 velocity=72 time=0
EXTRACT: note_on channel=6 note=64 velocity=80 time=0
EXTRACT: note_off channel=4 note=37 velocity=64 time=0
EXTRACT: note_on channel=4 note=35 velocity=80 time=0
EXTRACT: note_off channel=2 note=76 velocity=64 time=0
EXTRACT: note_off channel=2 note=72 velocity=64 time=0
EXTRACT: note_off channel=2 note=71 velocity=64 time=0
EXTRACT: note_off channel=2 note=67 velocity=64 time=0
EXTRACT: note_on channel=2 note=78 velocity=80 time=0
EXTRACT: note_on channel=2 note=74 velocity=80 time=0
EXTRACT: note_on channel=2 note=69 velocity=80 time=0
EXTRACT: note_on channel=8 note=73 velocity=72 time=0
EXTRACT: note_on channel=9 note=82 velocity=64 time=0
EXTRACT: note_off channel=9 note=38 velocity=64 time=0
EXTRACT: note_on channel=9 note=49 velocity=80 time=0
EXTRACT: note_on channel=9 note=57 velocity=80 time=0
EXTRACT: note_on channel=9 note=35 velocity=80 time=0
EXTRACT: note_on channel=11 note=66 velocity=80 time=0.14285699999999998
EXTRACT: note_off channel=9 note=82 velocity=64 time=0
EXTRACT: note_on channel=9 note=82 velocity=64 time=0
EXTRACT: note_off channel=11 note=66 velocity=64 time=0.14285699999999998
EXTRACT: note_on channel=11 note=69 velocity=80 time=0
EXTRACT: note_off channel=4 note=35 velocity=64 time=0
EXTRACT: note_off channel=8 note=73 velocity=64 time=0
EXTRACT: note_on channel=8 note=71 velocity=72 time=0
EXTRACT: note_off channel=9 note=82 velocity=64 time=0
EXTRACT: note_on channel=9 note=82 velocity=64 time=0
EXTRACT: note_off channel=9 note=49 velocity=64 time=0
EXTRACT: note_off channel=9 note=57 velocity=64 time=0
EXTRACT: note_off channel=9 note=35 velocity=64 time=0
EXTRACT: note_on channel=9 note=42 velocity=80 time=0
EXTRACT: note_off channel=0 note=66 velocity=64 time=0.14285699999999998
EXTRACT: note_off channel=0 note=62 velocity=64 time=0
EXTRACT: note_off channel=0 note=57 velocity=64 time=0
EXTRACT: note_off channel=0 note=54 velocity=64 time=0
EXTRACT: note_off channel=0 note=47 velocity=64 time=0
EXTRACT: note_on channel=0 note=66 velocity=72 time=0
EXTRACT: note_on channel=0 note=62 velocity=72 time=0
EXTRACT: note_on channel=0 note=57 velocity=72 time=0
EXTRACT: note_on channel=0 note=54 velocity=72 time=0
EXTRACT: note_on channel=0 note=47 velocity=72 time=0
EXTRACT: note_on channel=4 note=35 velocity=80 time=0
EXTRACT: note_off channel=2 note=78 velocity=64 time=0
EXTRACT: note_off channel=2 note=74 velocity=64 time=0
EXTRACT: note_off channel=2 note=69 velocity=64 time=0
EXTRACT: note_on channel=2 note=78 velocity=80 time=0
EXTRACT: note_on channel=2 note=74 velocity=80 time=0
EXTRACT: note_on channel=2 note=69 velocity=80 time=0
EXTRACT: note_off channel=11 note=69 velocity=64 time=0.14285699999999998
EXTRACT: note_off channel=0 note=66 velocity=64 time=0
EXTRACT: note_off channel=0 note=62 velocity=64 time=0
EXTRACT: note_off channel=0 note=57 velocity=64 time=0
EXTRACT: note_off channel=0 note=54 velocity=64 time=0
EXTRACT: note_off channel=0 note=47 velocity=64 time=0
EXTRACT: note_on channel=0 note=66 velocity=72 time=0
EXTRACT: note_on channel=0 note=62 velocity=72 time=0
EXTRACT: note_on channel=0 note=57 velocity=72 time=0
EXTRACT: note_off channel=6 note=64 velocity=64 time=0
EXTRACT: note_on channel=6 note=62 velocity=80 time=0
EXTRACT: note_off channel=4 note=35 velocity=64 time=0
EXTRACT: note_off channel=2 note=78 velocity=64 time=0
EXTRACT: note_off channel=2 note=74 velocity=64 time=0
EXTRACT: note_off channel=2 note=69 velocity=64 time=0
EXTRACT: note_off channel=8 note=71 velocity=64 time=0
EXTRACT: note_on channel=8 note=73 velocity=72 time=0
EXTRACT: note_off channel=9 note=82 velocity=64 time=0
EXTRACT: note_off channel=9 note=42 velocity=64 time=0
EXTRACT: note_on channel=9 note=42 velocity=80 time=0
EXTRACT: note_on channel=9 note=57 velocity=80 time=0
EXTRACT: note_on channel=9 note=38 velocity=80 time=0
EXTRACT: note_off channel=0 note=66 velocity=64 time=0.14285699999999998
EXTRACT: note_off channel=0 note=62 velocity=64 time=0
EXTRACT: note_off channel=0 note=57 velocity=64 time=0
EXTRACT: note_on channel=0 note=66 velocity=72 time=0
EXTRACT: note_on channel=0 note=62 velocity=72 time=0
EXTRACT: note_on channel=0 note=57 velocity=72 time=0
EXTRACT: note_off channel=0 note=66 velocity=64 time=0.14285699999999998
EXTRACT: note_off channel=0 note=62 velocity=64 time=0
EXTRACT: note_off channel=0 note=57 velocity=64 time=0
EXTRACT: note_on channel=0 note=66 velocity=72 time=0
EXTRACT: note_on channel=0 note=61 velocity=72 time=0
EXTRACT: note_on channel=0 note=57 velocity=72 time=0
EXTRACT: note_on channel=0 note=52 velocity=72 time=0
EXTRACT: note_on channel=0 note=49 velocity=72 time=0
EXTRACT: note_on channel=4 note=30 velocity=80 time=0
EXTRACT: note_on channel=2 note=81 velocity=80 time=0
EXTRACT: note_on channel=2 note=76 velocity=80 time=0
EXTRACT: note_on channel=2 note=73 velocity=80 time=0
EXTRACT: note_on channel=2 note=69 velocity=80 time=0
EXTRACT: note_off channel=8 note=73 velocity=64 time=0
EXTRACT: note_on channel=8 note=71 velocity=72 time=0
EXTRACT: note_off channel=9 note=42 velocity=64 time=0
EXTRACT: note_off channel=9 note=57 velocity=64 time=0
EXTRACT: note_off channel=9 note=38 velocity=64 time=0
EXTRACT: note_on channel=9 note=42 velocity=80 time=0
EXTRACT: note_on channel=9 note=35 velocity=80 time=0
EXTRACT: note_off channel=8 note=71 velocity=64 time=0.14285699999999998
EXTRACT: note_on channel=8 note=73 velocity=72 time=0
EXTRACT: note_off channel=0 note=66 velocity=64 time=0.14285699999999998
EXTRACT: note_off channel=0 note=61 velocity=64 time=0
EXTRACT: note_off channel=0 note=57 velocity=64 time=0
EXTRACT: note_off channel=0 note=52 velocity=64 time=0
EXTRACT: note_off channel=0 note=49 velocity=64 time=0
EXTRACT: note_off channel=6 note=62 velocity=64 time=0
EXTRACT: note_on channel=6 note=64 velocity=80 time=0
EXTRACT: note_off channel=4 note=30 velocity=64 time=0
EXTRACT: note_off channel=2 note=81 velocity=64 time=0
EXTRACT: note_off channel=2 note=76 velocity=64 time=0
EXTRACT: note_off channel=2 note=73 velocity=64 time=0
EXTRACT: note_off channel=2 note=69 velocity=64 time=0
EXTRACT: note_off channel=8 note=73 velocity=64 time=0
EXTRACT: note_on channel=9 note=82 velocity=64 time=0
EXTRACT: note_off channel=9 note=42 velocity=64 time=0
EXTRACT: note_off channel=9 note=35 velocity=64 time=0
EXTRACT: note_on channel=9 note=42 velocity=80 time=0
EXTRACT: note_on channel=9 note=57 velocity=80 time=0
EXTRACT: note_on channel=0 note=66 velocity=72 time=0.14285699999999998
EXTRACT: note_on channel=0 note=61 velocity=72 time=0
EXTRACT: note_on channel=0 note=57 velocity=72 time=0
EXTRACT: note_on channel=8 note=71 velocity=72 time=0
EXTRACT: note_off channel=9 note=82 velocity=64 time=0
EXTRACT: note_on channel=9 note=82 velocity=64 time=0
EXTRACT: note_off channel=9 note=42 velocity=64 time=0
EXTRACT: note_off channel=9 note=57 velocity=64 time=0
EXTRACT: note_on channel=9 note=38 velocity=80 time=0
EXTRACT: note_off channel=0 note=66 velocity=64 time=0.14285699999999998
EXTRACT: note_off channel=0 note=61 velocity=64 time=0
EXTRACT: note_off channel=0 note=57 velocity=64 time=0
EXTRACT: note_on channel=0 note=61 velocity=72 time=0
EXTRACT: note_on channel=0 note=57 velocity=72 time=0
EXTRACT: note_on channel=0 note=52 velocity=72 time=0
EXTRACT: note_on channel=0 note=49 velocity=72 time=0
EXTRACT: note_off channel=8 note=71 velocity=64 time=0
EXTRACT: note_on channel=8 note=73 velocity=72 time=0
EXTRACT: note_off channel=9 note=82 velocity=64 time=0
EXTRACT: note_on channel=9 note=82 velocity=64 time=0
EXTRACT: note_off channel=9 note=38 velocity=64 time=0
EXTRACT: note_on channel=9 note=42 velocity=80 time=0
EXTRACT: note_off channel=0 note=61 velocity=64 time=0.28571399999999997
EXTRACT: note_off channel=0 note=57 velocity=64 time=0
EXTRACT: note_off channel=0 note=52 velocity=64 time=0
EXTRACT: note_off channel=0 note=49 velocity=64 time=0
EXTRACT: note_on channel=0 note=66 velocity=72 time=0
EXTRACT: note_on channel=0 note=61 velocity=72 time=0
EXTRACT: note_on channel=0 note=57 velocity=72 time=0
EXTRACT: note_on channel=0 note=52 velocity=72 time=0
EXTRACT: note_on channel=0 note=49 velocity=72 time=0
EXTRACT: note_off channel=6 note=64 velocity=64 time=0
EXTRACT: note_on channel=6 note=57 velocity=80 time=0
EXTRACT: note_on channel=4 note=42 velocity=80 time=0
EXTRACT: note_on channel=2 note=81 velocity=80 time=0
EXTRACT: note_on channel=2 note=76 velocity=80 time=0
EXTRACT: note_on channel=2 note=73 velocity=80 time=0
EXTRACT: note_on channel=2 note=69 velocity=80 time=0
EXTRACT: note_off channel=8 note=73 velocity=64 time=0
EXTRACT: note_on channel=8 note=71 velocity=72 time=0
EXTRACT: note_off channel=9 note=82 velocity=64 time=0
EXTRACT: note_off channel=9 note=42 velocity=64 time=0
EXTRACT: note_on channel=9 note=42 velocity=80 time=0
EXTRACT: note_on channel=9 note=57 velocity=80 time=0
EXTRACT: note_on channel=9 note=38 velocity=80 time=0
EXTRACT: note_off channel=4 note=42 velocity=64 time=0.14285699999999998
EXTRACT: note_on channel=4 note=40 velocity=80 time=0
EXTRACT: note_off channel=8 note=71 velocity=64 time=0
EXTRACT: note_on channel=8 note=73 velocity=72 time=0
EXTRACT: note_off channel=0 note=66 velocity=64 time=0.14285699999999998
EXTRACT: note_off channel=0 note=61 velocity=64 time=0
EXTRACT: note_off channel=0 note=57 velocity=64 time=0
EXTRACT: note_off channel=0 note=52 velocity=64 time=0
EXTRACT: note_off channel=0 note=49 velocity=64 time=0
EXTRACT: note_on channel=0 note=66 velocity=72 time=0
EXTRACT: note_on channel=0 note=61 velocity=72 time=0
EXTRACT: note_on channel=0 note=57 velocity=72 time=0
EXTRACT: note_off channel=4 note=40 velocity=64 time=0
EXTRACT: note_on channel=4 note=37 velocity=80 time=0
EXTRACT: note_off channel=9 note=42 velocity=64 time=0
EXTRACT: note_off channel=9 note=57 velocity=64 time=0
EXTRACT: note_off channel=9 note=38 velocity=64 time=0
EXTRACT: note_on channel=9 note=42 velocity=80 time=0
EXTRACT: note_off channel=0 note=66 velocity=64 time=0.14285699999999998
EXTRACT: note_off channel=0 note=61 velocity=64 time=0
EXTRACT: note_off channel=0 note=57 velocity=64 time=0
EXTRACT: note_on channel=0 note=66 velocity=72 time=0
EXTRACT: note_on channel=0 note=61 velocity=72 time=0
EXTRACT: note_on channel=0 note=57 velocity=72 time=0
EXTRACT: note_off channel=4 note=37 velocity=64 time=0
EXTRACT: note_on channel=4 note=33 velocity=80 time=0
EXTRACT: note_off channel=8 note=73 velocity=64 time=0
EXTRACT: note_on channel=8 note=71 velocity=72 time=0
EXTRACT: note_off channel=0 note=66 velocity=64 time=0.14285699999999998
EXTRACT: note_off channel=0 note=61 velocity=64 time=0
EXTRACT: note_off channel=0 note=57 velocity=64 time=0
EXTRACT: note_on channel=0 note=66 velocity=72 time=0
EXTRACT: note_on channel=0 note=62 velocity=72 time=0
EXTRACT: note_on channel=0 note=57 velocity=72 time=0
EXTRACT: note_on channel=0 note=54 velocity=72 time=0
EXTRACT: note_on channel=0 note=47 velocity=72 time=0
EXTRACT: note_off channel=6 note=57 velocity=64 time=0
EXTRACT: note_on channel=6 note=66 velocity=80 time=0
EXTRACT: note_off channel=4 note=33 velocity=64 time=0
EXTRACT: note_on channel=4 note=35 velocity=80 time=0
EXTRACT: note_off channel=2 note=81 velocity=64 time=0
EXTRACT: note_off channel=2 note=76 velocity=64 time=0
EXTRACT: note_off channel=2 note=73 velocity=64 time=0
EXTRACT: note_off channel=2 note=69 velocity=64 time=0
EXTRACT: note_on channel=2 note=78 velocity=80 time=0
EXTRACT: note_on channel=2 note=74 velocity=80 time=0
EXTRACT: note_on channel=2 note=69 velocity=80 time=0
EXTRACT: note_off channel=8 note=71 velocity=64 time=0
EXTRACT: note_on channel=8 note=73 velocity=72 time=0
EXTRACT: note_on channel=9 note=82 velocity=64 time=0
EXTRACT: note_off channel=9 note=42 velocity=64 time=0
EXTRACT: note_on channel=9 note=42 velocity=80 time=0
EXTRACT: note_on channel=9 note=57 velocity=80 time=0
EXTRACT: note_on channel=9 note=35 velocity=80 time=0
EXTRACT: note_off channel=9 note=82 velocity=64 time=0.14285699999999998
EXTRACT: note_on channel=9 note=82 velocity=64 time=0
EXTRACT: note_off channel=4 note=35 velocity=64 time=0.14285699999999998
EXTRACT: note_off channel=8 note=73 velocity=64 time=0
EXTRACT: note_on channel=8 note=71 velocity=72 time=0
EXTRACT: note_off channel=9 note=82 velocity=64 time=0
EXTRACT: note_on channel=9 note=82 velocity=64 time=0
EXTRACT: note_off channel=9 note=42 velocity=64 time=0
EXTRACT: note_off channel=9 note=57 velocity=64 time=0
EXTRACT: note_off channel=9 note=35 velocity=64 time=0
EXTRACT: note_on channel=9 note=42 velocity=80 time=0
EXTRACT: note_off channel=0 note=66 velocity=64 time=0.14285699999999998
EXTRACT: note_off channel=0 note=62 velocity=64 time=0
EXTRACT: note_off channel=0 note=57 velocity=64 time=0
EXTRACT: note_off channel=0 note=54 velocity=64 time=0
EXTRACT: note_off channel=0 note=47 velocity=64 time=0
EXTRACT: note_on channel=0 note=66 velocity=72 time=0
EXTRACT: note_on channel=0 note=62 velocity=72 time=0
EXTRACT: note_on channel=0 note=57 velocity=72 time=0
EXTRACT: note_on channel=0 note=54 velocity=72 time=0
EXTRACT: note_on channel=0 note=47 velocity=72 time=0
EXTRACT: note_on channel=4 note=35 velocity=80 time=0
EXTRACT: note_off channel=2 note=78 velocity=64 time=0
EXTRACT: note_off channel=2 note=74 velocity=64 time=0
EXTRACT: note_off channel=2 note=69 velocity=64 time=0
EXTRACT: note_on channel=2 note=78 velocity=80 time=0
EXTRACT: note_on channel=2 note=74 velocity=80 time=0
EXTRACT: note_on channel=2 note=69 velocity=80 time=0
EXTRACT: note_off channel=0 note=66 velocity=64 time=0.14285699999999998
EXTRACT: note_off channel=0 note=62 velocity=64 time=0
EXTRACT: note_off channel=0 note=57 velocity=64 time=0
EXTRACT: note_off channel=0 note=54 velocity=64 time=0
EXTRACT: note_off channel=0 note=47 velocity=64 time=0
EXTRACT: note_on channel=0 note=66 velocity=72 time=0
EXTRACT: note_on channel=0 note=62 velocity=72 time=0
EXTRACT: note_on channel=0 note=57 velocity=72 time=0
EXTRACT: note_off channel=6 note=66 velocity=64 time=0
EXTRACT: note_on channel=6 note=66 velocity=80 time=0
EXTRACT: note_off channel=4 note=35 velocity=64 time=0
EXTRACT: note_off channel=2 note=78 velocity=64 time=0
EXTRACT: note_off channel=2 note=74 velocity=64 time=0
EXTRACT: note_off channel=2 note=69 velocity=64 time=0
EXTRACT: note_off channel=8 note=71 velocity=64 time=0
EXTRACT: note_on channel=8 note=74 velocity=80 time=0
EXTRACT: note_off channel=9 note=82 velocity=64 time=0
EXTRACT: note_off channel=9 note=42 velocity=64 time=0
EXTRACT: note_on channel=9 note=42 velocity=80 time=0
EXTRACT: note_on channel=9 note=57 velocity=80 time=0
EXTRACT: note_on channel=9 note=38 velocity=80 time=0
EXTRACT: note_on channel=11 note=64 velocity=80 time=0.14285699999999998
EXTRACT: note_off channel=0 note=66 velocity=64 time=0
EXTRACT: note_off channel=0 note=62 velocity=64 time=0
EXTRACT: note_off channel=0 note=57 velocity=64 time=0
EXTRACT: note_on channel=0 note=66 velocity=72 time=0
EXTRACT: note_on channel=0 note=62 velocity=72 time=0
EXTRACT: note_on channel=0 note=57 velocity=72 time=0
EXTRACT: note_off channel=11 note=64 velocity=64 time=0.14285699999999998
EXTRACT: note_on channel=11 note=64 velocity=80 time=0
EXTRACT: note_off channel=0 note=66 velocity=64 time=0
EXTRACT: note_off channel=0 note=62 velocity=64 time=0
EXTRACT: note_off channel=0 note=57 velocity=64 time=0
EXTRACT: note_on channel=0 note=66 velocity=72 time=0
EXTRACT: note_on channel=0 note=61 velocity=72 time=0
EXTRACT: note_on channel=0 note=57 velocity=72 time=0
EXTRACT: note_on channel=0 note=52 velocity=72 time=0
EXTRACT: note_on channel=0 note=49 velocity=72 time=0
EXTRACT: note_on channel=4 note=30 velocity=80 time=0
EXTRACT: note_on channel=2 note=81 velocity=80 time=0
EXTRACT: note_on channel=2 note=76 velocity=80 time=0
EXTRACT: note_on channel=2 note=73 velocity=80 time=0
EXTRACT: note_on channel=2 note=69 velocity=80 time=0
EXTRACT: note_off channel=8 note=74 velocity=64 time=0
EXTRACT: note_on channel=8 note=73 velocity=80 time=0
EXTRACT: note_off channel=9 note=42 velocity=64 time=0
EXTRACT: note_off channel=9 note=57 velocity=64 time=0
EXTRACT: note_off channel=9 note=38 velocity=64 time=0
EXTRACT: note_on channel=9 note=42 velocity=80 time=0
EXTRACT: note_on channel=9 note=35 velocity=80 time=0
EXTRACT: note_off channel=11 note=64 velocity=64 time=0.14285699999999998
EXTRACT: note_on channel=11 note=64 velocity=80 time=0
EXTRACT: note_off channel=11 note=64 velocity=64 time=0.14285699999999998
EXTRACT: note_on channel=11 note=67 velocity=80 time=0
EXTRACT: note_off channel=0 note=66 velocity=64 time=0
EXTRACT: note_off channel=0 note=61 velocity=64 time=0
EXTRACT: note_off channel=0 note=57 velocity=64 time=0
EXTRACT: note_off channel=0 note=52 velocity=64 time=0
EXTRACT: note_off channel=0 note=49 velocity=64 time=0
EXTRACT: note_off channel=6 note=66 velocity=64 time=0
EXTRACT: note_on channel=6 note=64 velocity=80 time=0
EXTRACT: note_off channel=4 note=30 velocity=64 time=0
EXTRACT: note_off channel=2 note=81 velocity=64 time=0
EXTRACT: note_off channel=2 note=76 velocity=64 time=0
EXTRACT: note_off channel=2 note=73 velocity=64 time=0
EXTRACT: note_off channel=2 note=69 velocity=64 time=0
EXTRACT: note_off channel=8 note=73 velocity=64 time=0
EXTRACT: note_on channel=9 note=82 velocity=64 time=0
EXTRACT: note_off channel=9 note=42 velocity=64 time=0
EXTRACT: note_off channel=9 note=35 velocity=64 time=0
EXTRACT: note_on channel=9 note=42 velocity=80 time=0
EXTRACT: note_on channel=9 note=57 velocity=80 time=0
EXTRACT: note_on channel=0 note=66 velocity=72 time=0.14285699999999998
EXTRACT: note_on channel=0 note=61 velocity=72 time=0
EXTRACT: note_on channel=0 note=57 velocity=72 time=0
EXTRACT: note_off channel=9 note=82 velocity=64 time=0
EXTRACT: note_on channel=9 note=82 velocity=64 time=0
EXTRACT: note_off channel=9 note=42 velocity=64 time=0
EXTRACT: note_off channel=9 note=57 velocity=64 time=0
EXTRACT: note_on channel=9 note=38 velocity=80 time=0
EXTRACT: note_off channel=11 note=67 velocity=64 time=0.14285699999999998
EXTRACT: note_on channel=11 note=62 velocity=80 time=0
EXTRACT: note_off channel=0 note=66 velocity=64 time=0
EXTRACT: note_off channel=0 note=61 velocity=64 time=0
EXTRACT: note_off channel=0 note=57 velocity=64 time=0
EXTRACT: note_on channel=0 note=61 velocity=72 time=0
EXTRACT: note_on channel=0 note=57 velocity=72 time=0
EXTRACT: note_on channel=0 note=52 velocity=72 time=0
EXTRACT: note_on channel=0 note=49 velocity=72 time=0
EXTRACT: note_on channel=8 note=71 velocity=80 time=0
EXTRACT: note_off channel=9 note=82 velocity=64 time=0
EXTRACT: note_on channel=9 note=82 velocity=64 time=0
EXTRACT: note_off channel=9 note=38 velocity=64 time=0
EXTRACT: note_on channel=9 note=42 velocity=80 time=0
EXTRACT: note_off channel=11 note=62 velocity=64 time=0.14285699999999998
EXTRACT: note_on channel=11 note=64 velocity=80 time=0
EXTRACT: note_off channel=11 note=64 velocity=64 time=0.14285699999999998
EXTRACT: note_on channel=11 note=62 velocity=80 time=0
EXTRACT: note_off channel=0 note=61 velocity=64 time=0
EXTRACT: note_off channel=0 note=57 velocity=64 time=0
EXTRACT: note_off channel=0 note=52 velocity=64 time=0
EXTRACT: note_off channel=0 note=49 velocity=64 time=0
EXTRACT: note_on channel=0 note=66 velocity=72 time=0
EXTRACT: note_on channel=0 note=61 velocity=72 time=0
EXTRACT: note_on channel=0 note=57 velocity=72 time=0
EXTRACT: note_on channel=0 note=52 velocity=72 time=0
EXTRACT: note_on channel=0 note=49 velocity=72 time=0
EXTRACT: note_off channel=6 note=64 velocity=64 time=0
EXTRACT: note_on channel=6 note=62 velocity=80 time=0
EXTRACT: note_on channel=2 note=81 velocity=80 time=0
EXTRACT: note_on channel=2 note=76 velocity=80 time=0
EXTRACT: note_on channel=2 note=73 velocity=80 time=0
EXTRACT: note_on channel=2 note=69 velocity=80 time=0
EXTRACT: note_off channel=8 note=71 velocity=64 time=0
EXTRACT: note_on channel=8 note=73 velocity=80 time=0
EXTRACT: note_off channel=9 note=82 velocity=64 time=0
EXTRACT: note_off channel=9 note=42 velocity=64 time=0
EXTRACT: note_on channel=9 note=42 velocity=80 time=0
EXTRACT: note_on channel=9 note=57 velocity=80 time=0
EXTRACT: note_on channel=9 note=38 velocity=80 time=0
EXTRACT: note_off channel=11 note=62 velocity=64 time=0.28571399999999997
EXTRACT: note_on channel=11 note=60 velocity=80 time=0
EXTRACT: note_off channel=0 note=66 velocity=64 time=0
EXTRACT: note_off channel=0 note=61 velocity=64 time=0
EXTRACT: note_off channel=0 note=57 velocity=64 time=0
EXTRACT: note_off channel=0 note=52 velocity=64 time=0
EXTRACT: note_off channel=0 note=49 velocity=64 time=0
EXTRACT: note_on channel=0 note=66 velocity=72 time=0
EXTRACT: note_on channel=0 note=61 velocity=72 time=0
EXTRACT: note_on channel=0 note=57 velocity=72 time=0
EXTRACT: note_off channel=6 note=62 velocity=64 time=0
EXTRACT: note_on channel=6 note=59 velocity=80 time=0
EXTRACT: note_on channel=4 note=30 velocity=80 time=0
EXTRACT: note_off channel=2 note=81 velocity=64 time=0
EXTRACT: note_off channel=2 note=76 velocity=64 time=0
EXTRACT: note_off channel=2 note=73 velocity=64 time=0
EXTRACT: note_off channel=2 note=69 velocity=64 time=0
EXTRACT: note_on channel=2 note=81 velocity=80 time=0
EXTRACT: note_on channel=2 note=76 velocity=80 time=0
EXTRACT: note_on channel=2 note=73 velocity=80 time=0
EXTRACT: note_on channel=2 note=69 velocity=80 time=0
EXTRACT: note_off channel=8 note=73 velocity=64 time=0
EXTRACT: note_on channel=8 note=71 velocity=80 time=0
EXTRACT: note_off channel=9 note=42 velocity=64 time=0
EXTRACT: note_off channel=9 note=57 velocity=64 time=0
EXTRACT: note_off channel=9 note=38 velocity=64 time=0
EXTRACT: note_on channel=9 note=42 velocity=80 time=0
EXTRACT: note_off channel=11 note=60 velocity=64 time=0.14285699999999998
EXTRACT: note_on channel=11 note=62 velocity=80 time=0
EXTRACT: note_off channel=0 note=66 velocity=64 time=0
EXTRACT: note_off channel=0 note=61 velocity=64 time=0
EXTRACT: note_off channel=0 note=57 velocity=64 time=0
EXTRACT: note_on channel=0 note=66 velocity=72 time=0
EXTRACT: note_on channel=0 note=61 velocity=72 time=0
EXTRACT: note_on channel=0 note=57 velocity=72 time=0
EXTRACT: note_off channel=4 note=30 velocity=64 time=0
EXTRACT: note_on channel=4 note=28 velocity=80 time=0
EXTRACT: note_off channel=11 note=62 velocity=64 time=0.14285699999999998
EXTRACT: note_off channel=0 note=66 velocity=64 time=0
EXTRACT: note_off channel=0 note=61 velocity=64 time=0
EXTRACT: note_off channel=0 note=57 velocity=64 time=0
EXTRACT: note_on channel=0 note=60 velocity=72 time=0
EXTRACT: note_on channel=0 note=57 velocity=72 time=0
EXTRACT: note_on channel=0 note=52 velocity=72 time=0
EXTRACT: note_on channel=0 note=41 velocity=72 time=0
EXTRACT: note_off channel=6 note=59 velocity=64 time=0
EXTRACT: note_off channel=4 note=28 velocity=64 time=0
EXTRACT: note_on channel=4 note=29 velocity=80 time=0
EXTRACT: note_off channel=2 note=81 velocity=64 time=0
EXTRACT: note_off channel=2 note=76 velocity=64 time=0
EXTRACT: note_off channel=2 note=73 velocity=64 time=0
EXTRACT: note_off channel=2 note=69 velocity=64 time=0
EXTRACT: note_on channel=2 note=76 velocity=80 time=0
EXTRACT: note_on channel=2 note=72 velocity=80 time=0
EXTRACT: note_on channel=2 note=69 velocity=80 time=0
EXTRACT: note_on channel=2 note=67 velocity=80 time=0
EXTRACT: note_off channel=8 note=71 velocity=64 time=0
EXTRACT: note_on channel=8 note=69 velocity=80 time=0
EXTRACT: note_on channel=9 note=82 velocity=64 time=0
EXTRACT: note_off channel=9 note=42 velocity=64 time=0
EXTRACT: note_on channel=9 note=42 velocity=80 time=0
EXTRACT: note_on channel=9 note=57 velocity=80 time=0
EXTRACT: note_on channel=9 note=35 velocity=80 time=0
EXTRACT: note_off channel=9 note=82 velocity=64 time=0.14285699999999998
EXTRACT: note_on channel=9 note=82 velocity=64 time=0
EXTRACT: note_off channel=9 note=82 velocity=64 time=0.14285699999999998
EXTRACT: note_on channel=9 note=82 velocity=64 time=0
EXTRACT: note_off channel=9 note=42 velocity=64 time=0
EXTRACT: note_off channel=9 note=57 velocity=64 time=0
EXTRACT: note_off channel=9 note=35 velocity=64 time=0
EXTRACT: note_on channel=9 note=42 velocity=80 time=0
EXTRACT: note_off channel=0 note=60 velocity=64 time=0.14285699999999998
EXTRACT: note_off channel=0 note=57 velocity=64 time=0
EXTRACT: note_off channel=0 note=52 velocity=64 time=0
EXTRACT: note_off channel=0 note=41 velocity=64 time=0
EXTRACT: note_on channel=0 note=60 velocity=72 time=0
EXTRACT: note_on channel=0 note=57 velocity=72 time=0
EXTRACT: note_on channel=0 note=52 velocity=72 time=0
EXTRACT: note_on channel=0 note=41 velocity=72 time=0
EXTRACT: note_off channel=4 note=29 velocity=64 time=0
EXTRACT: note_on channel=4 note=29 velocity=80 time=0
EXTRACT: note_off channel=2 note=76 velocity=64 time=0
EXTRACT: note_off channel=2 note=72 velocity=64 time=0
EXTRACT: note_off channel=2 note=69 velocity=64 time=0
EXTRACT: note_off channel=2 note=67 velocity=64 time=0
EXTRACT: note_on channel=2 note=76 velocity=80 time=0
EXTRACT: note_on channel=2 note=72 velocity=80 time=0
EXTRACT: note_on channel=2 note=69 velocity=80 time=0
EXTRACT: note_on channel=2 note=67 velocity=80 time=0
EXTRACT: note_off channel=0 note=60 velocity=64 time=0.14285699999999998
EXTRACT: note_off channel=0 note=57 velocity=64 time=0
EXTRACT: note_off channel=0 note=52 velocity=64 time=0
EXTRACT: note_off channel=0 note=41 velocity=64 time=0
EXTRACT: note_on channel=0 note=60 velocity=72 time=0
EXTRACT: note_on channel=0 note=57 velocity=72 time=0
EXTRACT: note_on channel=0 note=52 velocity=72 time=0
EXTRACT: note_off channel=4 note=29 velocity=64 time=0
EXTRACT: note_off channel=2 note=76 velocity=64 time=0
EXTRACT: note_off channel=2 note=72 velocity=64 time=0
EXTRACT: note_off channel=2 note=69 velocity=64 time=0
EXTRACT: note_off channel=2 note=67 velocity=64 time=0
EXTRACT: note_off channel=9 note=82 velocity=64 time=0
EXTRACT: note_off channel=9 note=42 velocity=64 time=0
EXTRACT: note_on channel=9 note=42 velocity=80 time=0
EXTRACT: note_on channel=9 note=57 velocity=80 time=0
EXTRACT: note_on channel=9 note=38 velocity=80 time=0
EXTRACT: note_off channel=0 note=60 velocity=64 time=0.14285699999999998
EXTRACT: note_off channel=0 note=57 velocity=64 time=0
EXTRACT: note_off channel=0 note=52 velocity=64 time=0
EXTRACT: note_on channel=0 note=60 velocity=72 time=0
EXTRACT: note_on channel=0 note=57 velocity=72 time=0
EXTRACT: note_on channel=0 note=52 velocity=72 time=0
EXTRACT: note_on channel=4 note=29 velocity=80 time=0
EXTRACT: note_off channel=0 note=60 velocity=64 time=0.14285699999999998
EXTRACT: note_off channel=0 note=57 velocity=64 time=0
EXTRACT: note_off channel=0 note=52 velocity=64 time=0
EXTRACT: note_on channel=0 note=62 velocity=72 time=0
EXTRACT: note_on channel=0 note=59 velocity=72 time=0
EXTRACT: note_on channel=0 note=54 velocity=72 time=0
EXTRACT: note_on channel=0 note=43 velocity=72 time=0
EXTRACT: note_off channel=4 note=29 velocity=64 time=0
EXTRACT: note_on channel=4 note=31 velocity=80 time=0
EXTRACT: note_on channel=2 note=78 velocity=80 time=0
EXTRACT: note_on channel=2 note=74 velocity=80 time=0
EXTRACT: note_on channel=2 note=71 velocity=80 time=0
EXTRACT: note_on channel=2 note=69 velocity=80 time=0
EXTRACT: note_off channel=8 note=69 velocity=64 time=0
EXTRACT: note_on channel=8 note=67 velocity=80 time=0
EXTRACT: note_off channel=9 note=42 velocity=64 time=0
EXTRACT: note_off channel=9 note=57 velocity=64 time=0
EXTRACT: note_off channel=9 note=38 velocity=64 time=0
EXTRACT: note_on channel=9 note=42 velocity=80 time=0
EXTRACT: note_on channel=9 note=35 velocity=80 time=0
EXTRACT: note_off channel=0 note=62 velocity=64 time=0.28571399999999997
EXTRACT: note_off channel=0 note=59 velocity=64 time=0
EXTRACT: note_off channel=0 note=54 velocity=64 time=0
EXTRACT: note_off channel=0 note=43 velocity=64 time=0
EXTRACT: note_off channel=4 note=31 velocity=64 time=0
EXTRACT: note_off channel=2 note=78 velocity=64 time=0
EXTRACT: note_off channel=2 note=74 velocity=64 time=0
EXTRACT: note_off channel=2 note=71 velocity=64 time=0
EXTRACT: note_off channel=2 note=69 velocity=64 time=0
EXTRACT: note_off channel=8 note=67 velocity=64 time=0
EXTRACT: note_on channel=9 note=82 velocity=64 time=0
EXTRACT: note_off channel=9 note=42 velocity=64 time=0
EXTRACT: note_off channel=9 note=35 velocity=64 time=0
EXTRACT: note_on channel=9 note=42 velocity=80 time=0
EXTRACT: note_on channel=9 note=57 velocity=80 time=0
EXTRACT: note_on channel=0 note=62 velocity=72 time=0.14285699999999998
EXTRACT: note_on channel=0 note=59 velocity=72 time=0
EXTRACT: note_on channel=0 note=54 velocity=72 time=0
EXTRACT: note_off channel=9 note=82 velocity=64 time=0
EXTRACT: note_on channel=9 note=82 velocity=64 time=0
EXTRACT: note_off channel=9 note=42 velocity=64 time=0
EXTRACT: note_off channel=9 note=57 velocity=64 time=0
EXTRACT: note_on channel=9 note=38 velocity=80 time=0
EXTRACT: note_on channel=11 note=57 velocity=80 time=0.14285699999999998
EXTRACT: note_off channel=0 note=62 velocity=64 time=0
EXTRACT: note_off channel=0 note=59 velocity=64 time=0
EXTRACT: note_off channel=0 note=54 velocity=64 time=0
EXTRACT: note_on channel=0 note=62 velocity=72 time=0
EXTRACT: note_on channel=0 note=59 velocity=72 time=0
EXTRACT: note_on channel=0 note=54 velocity=72 time=0
EXTRACT: note_on channel=0 note=43 velocity=72 time=0
EXTRACT: note_on channel=4 note=38 velocity=80 time=0
EXTRACT: note_off channel=9 note=82 velocity=64 time=0
EXTRACT: note_on channel=9 note=82 velocity=64 time=0
EXTRACT: note_off channel=9 note=38 velocity=64 time=0
EXTRACT: note_on channel=9 note=42 velocity=80 time=0
EXTRACT: note_off channel=11 note=57 velocity=64 time=0.28571399999999997
EXTRACT: note_on channel=11 note=57 velocity=80 time=0
EXTRACT: note_off channel=0 note=62 velocity=64 time=0
EXTRACT: note_off channel=0 note=59 velocity=64 time=0
EXTRACT: note_off channel=0 note=54 velocity=64 time=0
EXTRACT: note_off channel=0 note=43 velocity=64 time=0
EXTRACT: note_on channel=0 note=62 velocity=72 time=0
EXTRACT: note_on channel=0 note=59 velocity=72 time=0
EXTRACT: note_on channel=0 note=54 velocity=72 time=0
EXTRACT: note_on channel=0 note=43 velocity=72 time=0
EXTRACT: note_off channel=4 note=38 velocity=64 time=0
EXTRACT: note_on channel=4 note=43 velocity=80 time=0
EXTRACT: note_on channel=2 note=78 velocity=80 time=0
EXTRACT: note_on channel=2 note=74 velocity=80 time=0
EXTRACT: note_on channel=2 note=71 velocity=80 time=0
EXTRACT: note_on channel=2 note=69 velocity=80 time=0
EXTRACT: note_off channel=9 note=82 velocity=64 time=0
EXTRACT: note_off channel=9 note=42 velocity=64 time=0
EXTRACT: note_on channel=9 note=42 velocity=80 time=0
EXTRACT: note_on channel=9 note=57 velocity=80 time=0
EXTRACT: note_on channel=9 note=38 velocity=80 time=0
EXTRACT: note_off channel=4 note=43 velocity=64 time=0.14285699999999998
EXTRACT: note_on channel=4 note=38 velocity=80 time=0
EXTRACT: note_off channel=11 note=57 velocity=64 time=0.14285699999999998
EXTRACT: note_on channel=11 note=57 velocity=80 time=0
EXTRACT: note_off channel=0 note=62 velocity=64 time=0
EXTRACT: note_off channel=0 note=59 velocity=64 time=0
EXTRACT: note_off channel=0 note=54 velocity=64 time=0
EXTRACT: note_off channel=0 note=43 velocity=64 time=0
EXTRACT: note_on channel=0 note=62 velocity=72 time=0
EXTRACT: note_on channel=0 note=59 velocity=72 time=0
EXTRACT: note_on channel=0 note=54 velocity=72 time=0
EXTRACT: note_off channel=4 note=38 velocity=64 time=0
EXTRACT: note_on channel=4 note=31 velocity=80 time=0
EXTRACT: note_off channel=9 note=42 velocity=64 time=0
EXTRACT: note_off channel=9 note=57 velocity=64 time=0
EXTRACT: note_off channel=9 note=38 velocity=64 time=0
EXTRACT: note_on channel=9 note=42 velocity=80 time=0
EXTRACT: note_off channel=0 note=62 velocity=64 time=0.14285699999999998
EXTRACT: note_off channel=0 note=59 velocity=64 time=0
EXTRACT: note_off channel=0 note=54 velocity=64 time=0
EXTRACT: note_on channel=0 note=62 velocity=72 time=0
EXTRACT: note_on channel=0 note=59 velocity=72 time=0
EXTRACT: note_on channel=0 note=54 velocity=72 time=0
EXTRACT: note_off channel=4 note=31 velocity=64 time=0
EXTRACT: note_on channel=4 note=32 velocity=80 time=0
EXTRACT: note_off channel=11 note=57 velocity=64 time=0.14285699999999998
EXTRACT: note_on channel=11 note=61 velocity=80 time=0
EXTRACT: note_off channel=0 note=62 velocity=64 time=0
EXTRACT: note_off channel=0 note=59 velocity=64 time=0
EXTRACT: note_off channel=0 note=54 velocity=64 time=0
EXTRACT: note_on channel=0 note=64 velocity=72 time=0
EXTRACT: note_on channel=0 note=61 velocity=72 time=0
EXTRACT: note_on channel=0 note=56 velocity=72 time=0
EXTRACT: note_on channel=0 note=45 velocity=72 time=0
EXTRACT: note_off channel=4 note=32 velocity=64 time=0
EXTRACT: note_on channel=4 note=33 velocity=80 time=0
EXTRACT: note_off channel=2 note=78 velocity=64 time=0
EXTRACT: note_off channel=2 note=74 velocity=64 time=0
EXTRACT: note_off channel=2 note=71 velocity=64 time=0
EXTRACT: note_off channel=2 note=69 velocity=64 time=0
EXTRACT: note_on channel=2 note=80 velocity=80 time=0
EXTRACT: note_on channel=2 note=76 velocity=80 time=0
EXTRACT: note_on channel=2 note=73 velocity=80 time=0
EXTRACT: note_on channel=2 note=71 velocity=80 time=0
EXTRACT: note_on channel=8 note=68 velocity=80 time=0
EXTRACT: note_on channel=9 note=82 velocity=64 time=0
EXTRACT: note_off channel=9 note=42 velocity=64 time=0
EXTRACT: note_on channel=9 note=42 velocity=80 time=0
EXTRACT: note_on channel=9 note=57 velocity=80 time=0
EXTRACT: note_on channel=9 note=35 velocity=80 time=0
EXTRACT: note_off channel=11 note=61 velocity=64 time=0.14285699999999998
EXTRACT: note_on channel=11 note=61 velocity=80 time=0
EXTRACT: note_off channel=9 note=82 velocity=64 time=0
EXTRACT: note_on channel=9 note=82 velocity=64 time=0
EXTRACT: note_off channel=11 note=61 velocity=64 time=0.14285699999999998
EXTRACT: note_on channel=11 note=61 velocity=80 time=0
EXTRACT: note_off channel=9 note=82 velocity=64 time=0
EXTRACT: note_on channel=9 note=82 velocity=64 time=0
EXTRACT: note_off channel=9 note=42 velocity=64 time=0
EXTRACT: note_off channel=9 note=57 velocity=64 time=0
EXTRACT: note_off channel=9 note=35 velocity=64 time=0
EXTRACT: note_on channel=9 note=42 velocity=80 time=0
EXTRACT: note_off channel=11 note=61 velocity=64 time=0.14285699999999998
EXTRACT: note_on channel=11 note=62 velocity=80 time=0
EXTRACT: note_off channel=0 note=64 velocity=64 time=0
EXTRACT: note_off channel=0 note=61 velocity=64 time=0
EXTRACT: note_off channel=0 note=56 velocity=64 time=0
EXTRACT: note_off channel=0 note=45 velocity=64 time=0
EXTRACT: note_on channel=0 note=64 velocity=72 time=0
EXTRACT: note_on channel=0 note=61 velocity=72 time=0
EXTRACT: note_on channel=0 note=56 velocity=72 time=0
EXTRACT: note_on channel=0 note=45 velocity=72 time=0
EXTRACT: note_off channel=4 note=33 velocity=64 time=0
EXTRACT: note_on channel=4 note=40 velocity=80 time=0
EXTRACT: note_off channel=2 note=80 velocity=64 time=0
EXTRACT: note_off channel=2 note=76 velocity=64 time=0
EXTRACT: note_off channel=2 note=73 velocity=64 time=0
EXTRACT: note_off channel=2 note=71 velocity=64 time=0
EXTRACT: note_on channel=2 note=80 velocity=80 time=0
EXTRACT: note_on channel=2 note=76 velocity=80 time=0
EXTRACT: note_on channel=2 note=73 velocity=80 time=0
EXTRACT: note_on channel=2 note=71 velocity=80 time=0
EXTRACT: note_off channel=11 note=62 velocity=64 time=0.14285699999999998
EXTRACT: note_off channel=0 note=64 velocity=64 time=0
EXTRACT: note_off channel=0 note=61 velocity=64 time=0
EXTRACT: note_off channel=0 note=56 velocity=64 time=0
EXTRACT: note_off channel=0 note=45 velocity=64 time=0
EXTRACT: note_on channel=0 note=64 velocity=72 time=0
EXTRACT: note_on channel=0 note=61 velocity=72 time=0
EXTRACT: note_on channel=0 note=56 velocity=72 time=0
EXTRACT: note_off channel=4 note=40 velocity=64 time=0
EXTRACT: note_off channel=2 note=80 velocity=64 time=0
EXTRACT: note_off channel=2 note=76 velocity=64 time=0
EXTRACT: note_off channel=2 note=73 velocity=64 time=0
EXTRACT: note_off channel=2 note=71 velocity=64 time=0
EXTRACT: note_off channel=9 note=82 velocity=64 time=0
EXTRACT: note_off channel=9 note=42 velocity=64 time=0
EXTRACT: note_on channel=9 note=42 velocity=80 time=0
EXTRACT: note_on channel=9 note=57 velocity=80 time=0
EXTRACT: note_on channel=9 note=38 velocity=80 time=0
EXTRACT: note_on channel=11 note=64 velocity=80 time=0.14285699999999998
EXTRACT: note_off channel=0 note=64 velocity=64 time=0
EXTRACT: note_off channel=0 note=61 velocity=64 time=0
EXTRACT: note_off channel=0 note=56 velocity=64 time=0
EXTRACT: note_on channel=0 note=64 velocity=72 time=0
EXTRACT: note_on channel=0 note=61 velocity=72 time=0
EXTRACT: note_on channel=0 note=56 velocity=72 time=0
EXTRACT: note_on channel=4 note=38 velocity=80 time=0
EXTRACT: note_off channel=0 note=64 velocity=64 time=0.14285699999999998
EXTRACT: note_off channel=0 note=61 velocity=64 time=0
EXTRACT: note_off channel=0 note=56 velocity=64 time=0
EXTRACT: note_on channel=0 note=69 velocity=72 time=0
EXTRACT: note_on channel=0 note=64 velocity=72 time=0
EXTRACT: note_on channel=0 note=60 velocity=72 time=0
EXTRACT: note_on channel=0 note=55 velocity=72 time=0
EXTRACT: note_on channel=0 note=50 velocity=72 time=0
EXTRACT: note_on channel=2 note=76 velocity=80 time=0
EXTRACT: note_on channel=2 note=72 velocity=80 time=0
EXTRACT: note_on channel=2 note=71 velocity=80 time=0
EXTRACT: note_on channel=2 note=67 velocity=80 time=0
EXTRACT: note_off channel=8 note=68 velocity=64 time=0
EXTRACT: note_on channel=8 note=69 velocity=80 time=0
EXTRACT: note_off channel=9 note=42 velocity=64 time=0
EXTRACT: note_off channel=9 note=57 velocity=64 time=0
EXTRACT: note_off channel=9 note=38 velocity=64 time=0
EXTRACT: note_on channel=9 note=46 velocity=80 time=0
EXTRACT: note_on channel=9 note=35 velocity=80 time=0
EXTRACT: note_off channel=11 note=64 velocity=64 time=0.14285699999999998
EXTRACT: note_on channel=11 note=69 velocity=80 time=0
EXTRACT: note_off channel=9 note=46 velocity=64 time=0
EXTRACT: note_off channel=9 note=35 velocity=64 time=0
EXTRACT: note_on channel=9 note=38 velocity=80 time=0
EXTRACT: note_off channel=11 note=69 velocity=64 time=0.14285699999999998
EXTRACT: note_off channel=0 note=69 velocity=64 time=0
EXTRACT: note_off channel=0 note=64 velocity=64 time=0
EXTRACT: note_off channel=0 note=60 velocity=64 time=0
EXTRACT: note_off channel=0 note=55 velocity=64 time=0
EXTRACT: note_off channel=0 note=50 velocity=64 time=0
EXTRACT: note_off channel=4 note=38 velocity=64 time=0
EXTRACT: note_on channel=4 note=38 velocity=80 time=0
EXTRACT: note_off channel=2 note=76 velocity=64 time=0
EXTRACT: note_off channel=2 note=72 velocity=64 time=0
EXTRACT: note_off channel=2 note=71 velocity=64 time=0
EXTRACT: note_off channel=2 note=67 velocity=64 time=0
EXTRACT: note_off channel=8 note=69 velocity=64 time=0
EXTRACT: note_on channel=9 note=82 velocity=64 time=0
EXTRACT: note_off channel=9 note=38 velocity=64 time=0
EXTRACT: note_on channel=9 note=38 velocity=80 time=0
EXTRACT: note_on channel=0 note=69 velocity=72 time=0.14285699999999998
EXTRACT: note_on channel=0 note=64 velocity=72 time=0
EXTRACT: note_on channel=0 note=60 velocity=72 time=0
EXTRACT: note_off channel=4 note=38 velocity=64 time=0
EXTRACT: note_off channel=9 note=82 velocity=64 time=0
EXTRACT: note_on channel=9 note=82 velocity=64 time=0
EXTRACT: note_off channel=9 note=38 velocity=64 time=0
EXTRACT: note_on channel=9 note=38 velocity=80 time=0
EXTRACT: note_on channel=11 note=62 velocity=80 time=0.14285699999999998
EXTRACT: note_off channel=0 note=69 velocity=64 time=0
EXTRACT: note_off channel=0 note=64 velocity=64 time=0
EXTRACT: note_off channel=0 note=60 velocity=64 time=0
EXTRACT: note_on channel=0 note=64 velocity=72 time=0
EXTRACT: note_on channel=0 note=60 velocity=72 time=0
EXTRACT: note_on channel=0 note=55 velocity=72 time=0
EXTRACT: note_on channel=0 note=50 velocity=72 time=0
EXTRACT: note_on channel=4 note=38 velocity=80 time=0
EXTRACT: note_off channel=9 note=82 velocity=64 time=0
EXTRACT: note_on channel=9 note=82 velocity=64 time=0
EXTRACT: note_off channel=9 note=38 velocity=64 time=0
EXTRACT: note_on channel=9 note=47 velocity=80 time=0
EXTRACT: note_off channel=11 note=62 velocity=64 time=0.14285699999999998
EXTRACT: note_on channel=11 note=62 velocity=80 time=0
EXTRACT: note_off channel=4 note=38 velocity=64 time=0
EXTRACT: note_off channel=9 note=47 velocity=64 time=0
EXTRACT: note_on channel=9 note=38 velocity=80 time=0
EXTRACT: note_off channel=11 note=62 velocity=64 time=0.14285699999999998
EXTRACT: note_off channel=0 note=64 velocity=64 time=0
EXTRACT: note_off channel=0 note=60 velocity=64 time=0
EXTRACT: note_off channel=0 note=55 velocity=64 time=0
EXTRACT: note_off channel=0 note=50 velocity=64 time=0
EXTRACT: note_on channel=0 note=69 velocity=72 time=0
EXTRACT: note_on channel=0 note=64 velocity=72 time=0
EXTRACT: note_on channel=0 note=60 velocity=72 time=0
EXTRACT: note_on channel=0 note=55 velocity=72 time=0
EXTRACT: note_on channel=0 note=50 velocity=72 time=0
EXTRACT: note_on channel=4 note=38 velocity=80 time=0
EXTRACT: note_on channel=2 note=76 velocity=80 time=0
EXTRACT: note_on channel=2 note=72 velocity=80 time=0
EXTRACT: note_on channel=2 note=71 velocity=80 time=0
EXTRACT: note_on channel=2 note=67 velocity=80 time=0
EXTRACT: note_off channel=9 note=82 velocity=64 time=0
EXTRACT: note_off channel=9 note=38 velocity=64 time=0
EXTRACT: note_on channel=9 note=46 velocity=80 time=0
EXTRACT: note_on channel=9 note=35 velocity=80 time=0
EXTRACT: note_on channel=11 note=62 velocity=80 time=0.14285699999999998
EXTRACT: note_off channel=4 note=38 velocity=64 time=0
EXTRACT: note_on channel=4 note=33 velocity=80 time=0
EXTRACT: note_off channel=11 note=62 velocity=64 time=0.14285699999999998
EXTRACT: note_on channel=11 note=64 velocity=80 time=0
EXTRACT: note_off channel=0 note=69 velocity=64 time=0
EXTRACT: note_off channel=0 note=64 velocity=64 time=0
EXTRACT: note_off channel=0 note=60 velocity=64 time=0
EXTRACT: note_off channel=0 note=55 velocity=64 time=0
EXTRACT: note_off channel=0 note=50 velocity=64 time=0
EXTRACT: note_on channel=0 note=66 velocity=72 time=0
EXTRACT: note_on channel=0 note=61 velocity=72 time=0
EXTRACT: note_on channel=0 note=57 velocity=72 time=0
EXTRACT: note_off channel=4 note=33 velocity=64 time=0
EXTRACT: note_on channel=4 note=37 velocity=80 time=0
EXTRACT: note_off channel=9 note=46 velocity=64 time=0
EXTRACT: note_off channel=9 note=35 velocity=64 time=0
EXTRACT: note_on channel=9 note=38 velocity=80 time=0
EXTRACT: note_off channel=0 note=66 velocity=64 time=0.14285699999999998
EXTRACT: note_off channel=0 note=61 velocity=64 time=0
EXTRACT: note_off channel=0 note=57 velocity=64 time=0
EXTRACT: note_on channel=0 note=66 velocity=72 time=0
EXTRACT: note_on channel=0 note=61 velocity=72 time=0
EXTRACT: note_on channel=0 note=57 velocity=72 time=0
EXTRACT: note_off channel=9 note=38 velocity=64 time=0
EXTRACT: note_on channel=9 note=38 velocity=80 time=0
EXTRACT: note_off channel=11 note=64 velocity=64 time=0.14285699999999998
EXTRACT: note_off channel=0 note=66 velocity=64 time=0
EXTRACT: note_off channel=0 note=61 velocity=64 time=0
EXTRACT: note_off channel=0 note=57 velocity=64 time=0
EXTRACT: note_on channel=0 note=66 velocity=72 time=0
EXTRACT: note_on channel=0 note=62 velocity=72 time=0
EXTRACT: note_on channel=0 note=57 velocity=72 time=0
EXTRACT: note_on channel=0 note=54 velocity=72 time=0
EXTRACT: note_on channel=0 note=47 velocity=72 time=0
EXTRACT: note_on channel=6 note=64 velocity=80 time=0
EXTRACT: note_off channel=4 note=37 velocity=64 time=0
EXTRACT: note_on channel=4 note=35 velocity=80 time=0
EXTRACT: note_off channel=2 note=76 velocity=64 time=0
EXTRACT: note_off channel=2 note=72 velocity=64 time=0
EXTRACT: note_off channel=2 note=71 velocity=64 time=0
EXTRACT: note_off channel=2 note=67 velocity=64 time=0
EXTRACT: note_on channel=2 note=81 velocity=80 time=0
EXTRACT: note_on channel=2 note=78 velocity=80 time=0
EXTRACT: note_on channel=2 note=74 velocity=80 time=0
EXTRACT: note_on channel=2 note=71 velocity=80 time=0
EXTRACT: note_on channel=8 note=73 velocity=72 time=0
EXTRACT: note_on channel=9 note=82 velocity=64 time=0
EXTRACT: note_off channel=9 note=38 velocity=64 time=0
EXTRACT: note_on channel=9 note=49 velocity=80 time=0
EXTRACT: note_on channel=9 note=57 velocity=80 time=0
EXTRACT: note_on channel=9 note=35 velocity=80 time=0
EXTRACT: note_off channel=9 note=82 velocity=64 time=0.14285699999999998
EXTRACT: note_on channel=9 note=82 velocity=64 time=0
EXTRACT: note_off channel=4 note=35 velocity=64 time=0.14285699999999998
EXTRACT: note_off channel=2 note=81 velocity=64 time=0
EXTRACT: note_off channel=2 note=78 velocity=64 time=0
EXTRACT: note_off channel=2 note=74 velocity=64 time=0
EXTRACT: note_off channel=2 note=71 velocity=64 time=0
EXTRACT: note_on channel=2 note=78 velocity=80 time=0
EXTRACT: note_on channel=2 note=74 velocity=80 time=0
EXTRACT: note_on channel=2 note=71 velocity=80 time=0
EXTRACT: note_off channel=8 note=73 velocity=64 time=0
EXTRACT: note_on channel=8 note=71 velocity=72 time=0
EXTRACT: note_off channel=9 note=82 velocity=64 time=0
EXTRACT: note_on channel=9 note=82 velocity=64 time=0
EXTRACT: note_off channel=9 note=49 velocity=64 time=0
EXTRACT: note_off channel=9 note=57 velocity=64 time=0
EXTRACT: note_off channel=9 note=35 velocity=64 time=0
EXTRACT: note_on channel=9 note=42 velocity=80 time=0
EXTRACT: note_off channel=0 note=66 velocity=64 time=0.14285699999999998
EXTRACT: note_off channel=0 note=62 velocity=64 time=0
EXTRACT: note_off channel=0 note=57 velocity=64 time=0
EXTRACT: note_off channel=0 note=54 velocity=64 time=0
EXTRACT: note_off channel=0 note=47 velocity=64 time=0
EXTRACT: note_on channel=0 note=66 velocity=72 time=0
EXTRACT: note_on channel=0 note=62 velocity=72 time=0
EXTRACT: note_on channel=0 note=57 velocity=72 time=0
EXTRACT: note_on channel=0 note=54 velocity=72 time=0
EXTRACT: note_on channel=0 note=47 velocity=72 time=0
EXTRACT: note_on channel=4 note=35 velocity=80 time=0
EXTRACT: note_off channel=0 note=66 velocity=64 time=0.14285699999999998
EXTRACT: note_off channel=0 note=62 velocity=64 time=0
EXTRACT: note_off channel=0 note=57 velocity=64 time=0
EXTRACT: note_off channel=0 note=54 velocity=64 time=0
EXTRACT: note_off channel=0 note=47 velocity=64 time=0
EXTRACT: note_on channel=0 note=66 velocity=72 time=0
EXTRACT: note_on channel=0 note=62 velocity=72 time=0
EXTRACT: note_on channel=0 note=57 velocity=72 time=0
EXTRACT: note_off channel=6 note=64 velocity=64 time=0
EXTRACT: note_on channel=6 note=62 velocity=80 time=0
EXTRACT: note_off channel=4 note=35 velocity=64 time=0
EXTRACT: note_off channel=2 note=78 velocity=64 time=0
EXTRACT: note_off channel=2 note=74 velocity=64 time=0
EXTRACT: note_off channel=2 note=71 velocity=64 time=0
EXTRACT: note_on channel=2 note=81 velocity=80 time=0
EXTRACT: note_on channel=2 note=78 velocity=80 time=0
EXTRACT: note_on channel=2 note=74 velocity=80 time=0
EXTRACT: note_on channel=2 note=71 velocity=80 time=0
EXTRACT: note_off channel=8 note=71 velocity=64 time=0
EXTRACT: note_on channel=8 note=73 velocity=72 time=0
EXTRACT: note_off channel=9 note=82 velocity=64 time=0
EXTRACT: note_off channel=9 note=42 velocity=64 time=0
EXTRACT: note_on channel=9 note=42 velocity=80 time=0
EXTRACT: note_on channel=9 note=57 velocity=80 time=0
EXTRACT: note_on channel=9 note=38 velocity=80 time=0
EXTRACT: note_off channel=0 note=66 velocity=64 time=0.14285699999999998
EXTRACT: note_off channel=0 note=62 velocity=64 time=0
EXTRACT: note_off channel=0 note=57 velocity=64 time=0
EXTRACT: note_on channel=0 note=66 velocity=72 time=0
EXTRACT: note_on channel=0 note=62 velocity=72 time=0
EXTRACT: note_on channel=0 note=57 velocity=72 time=0
EXTRACT: note_off channel=0 note=66 velocity=64 time=0.14285699999999998
EXTRACT: note_off channel=0 note=62 velocity=64 time=0
EXTRACT: note_off channel=0 note=57 velocity=64 time=0
EXTRACT: note_on channel=0 note=66 velocity=72 time=0
EXTRACT: note_on channel=0 note=61 velocity=72 time=0
EXTRACT: note_on channel=0 note=57 velocity=72 time=0
EXTRACT: note_on channel=0 note=52 velocity=72 time=0
EXTRACT: note_on channel=0 note=49 velocity=72 time=0
EXTRACT: note_on channel=4 note=30 velocity=80 time=0
EXTRACT: note_off channel=2 note=81 velocity=64 time=0
EXTRACT: note_off channel=2 note=78 velocity=64 time=0
EXTRACT: note_off channel=2 note=74 velocity=64 time=0
EXTRACT: note_off channel=2 note=71 velocity=64 time=0
EXTRACT: note_on channel=2 note=78 velocity=80 time=0
EXTRACT: note_on channel=2 note=74 velocity=80 time=0
EXTRACT: note_on channel=2 note=71 velocity=80 time=0
EXTRACT: note_off channel=8 note=73 velocity=64 time=0
EXTRACT: note_on channel=8 note=71 velocity=72 time=0
EXTRACT: note_off channel=9 note=42 velocity=64 time=0
EXTRACT: note_off channel=9 note=57 velocity=64 time=0
EXTRACT: note_off channel=9 note=38 velocity=64 time=0
EXTRACT: note_on channel=9 note=42 velocity=80 time=0
EXTRACT: note_on channel=9 note=35 velocity=80 time=0
EXTRACT: note_off channel=2 note=78 velocity=64 time=0.14285699999999998
EXTRACT: note_off channel=2 note=74 velocity=64 time=0
EXTRACT: note_off channel=2 note=71 velocity=64 time=0
EXTRACT: note_on channel=2 note=81 velocity=80 time=0
EXTRACT: note_on channel=2 note=76 velocity=80 time=0
EXTRACT: note_on channel=2 note=73 velocity=80 time=0
EXTRACT: note_on channel=2 note=69 velocity=80 time=0
EXTRACT: note_off channel=8 note=71 velocity=64 time=0
EXTRACT: note_on channel=8 note=73 velocity=72 time=0
EXTRACT: note_off channel=0 note=66 velocity=64 time=0.14285699999999998
EXTRACT: note_off channel=0 note=61 velocity=64 time=0
EXTRACT: note_off channel=0 note=57 velocity=64 time=0
EXTRACT: note_off channel=0 note=52 velocity=64 time=0
EXTRACT: note_off channel=0 note=49 velocity=64 time=0
EXTRACT: note_off channel=6 note=62 velocity=64 time=0
EXTRACT: note_on channel=6 note=64 velocity=80 time=0
EXTRACT: note_off channel=4 note=30 velocity=64 time=0
EXTRACT: note_off channel=2 note=81 velocity=64 time=0
EXTRACT: note_off channel=2 note=76 velocity=64 time=0
EXTRACT: note_off channel=2 note=73 velocity=64 time=0
EXTRACT: note_off channel=2 note=69 velocity=64 time=0
EXTRACT: note_off channel=8 note=73 velocity=64 time=0
EXTRACT: note_on channel=9 note=82 velocity=64 time=0
EXTRACT: note_off channel=9 note=42 velocity=64 time=0
EXTRACT: note_off channel=9 note=35 velocity=64 time=0
EXTRACT: note_on channel=9 note=42 velocity=80 time=0
EXTRACT: note_on channel=9 note=57 velocity=80 time=0
EXTRACT: note_on channel=0 note=66 velocity=72 time=0.14285699999999998
EXTRACT: note_on channel=0 note=61 velocity=72 time=0
EXTRACT: note_on channel=0 note=57 velocity=72 time=0
EXTRACT: note_on channel=8 note=71 velocity=72 time=0
EXTRACT: note_off channel=9 note=82 velocity=64 time=0
EXTRACT: note_on channel=9 note=82 velocity=64 time=0
EXTRACT: note_off channel=9 note=42 velocity=64 time=0
EXTRACT: note_off channel=9 note=57 velocity=64 time=0
EXTRACT: note_on channel=9 note=38 velocity=80 time=0
EXTRACT: note_off channel=0 note=66 velocity=64 time=0.14285699999999998
EXTRACT: note_off channel=0 note=61 velocity=64 time=0
EXTRACT: note_off channel=0 note=57 velocity=64 time=0
EXTRACT: note_on channel=0 note=61 velocity=72 time=0
EXTRACT: note_on channel=0 note=57 velocity=72 time=0
EXTRACT: note_on channel=0 note=52 velocity=72 time=0
EXTRACT: note_on channel=0 note=49 velocity=72 time=0
EXTRACT: note_on channel=2 note=81 velocity=80 time=0
EXTRACT: note_on channel=2 note=76 velocity=80 time=0
EXTRACT: note_on channel=2 note=73 velocity=80 time=0
EXTRACT: note_on channel=2 note=69 velocity=80 time=0
EXTRACT: note_off channel=8 note=71 velocity=64 time=0
EXTRACT: note_on channel=8 note=73 velocity=72 time=0
EXTRACT: note_off channel=9 note=82 velocity=64 time=0
EXTRACT: note_on channel=9 note=82 velocity=64 time=0
EXTRACT: note_off channel=9 note=38 velocity=64 time=0
EXTRACT: note_on channel=9 note=42 velocity=80 time=0
EXTRACT: note_off channel=0 note=61 velocity=64 time=0.28571399999999997
EXTRACT: note_off channel=0 note=57 velocity=64 time=0
EXTRACT: note_off channel=0 note=52 velocity=64 time=0
EXTRACT: note_off channel=0 note=49 velocity=64 time=0
EXTRACT: note_on channel=0 note=66 velocity=72 time=0
EXTRACT: note_on channel=0 note=61 velocity=72 time=0
EXTRACT: note_on channel=0 note=57 velocity=72 time=0
EXTRACT: note_on channel=0 note=52 velocity=72 time=0
EXTRACT: note_on channel=0 note=49 velocity=72 time=0
EXTRACT: note_off channel=6 note=64 velocity=64 time=0
EXTRACT: note_on channel=6 note=57 velocity=80 time=0
EXTRACT: note_on channel=4 note=37 velocity=80 time=0
EXTRACT: note_off channel=2 note=81 velocity=64 time=0
EXTRACT: note_off channel=2 note=76 velocity=64 time=0
EXTRACT: note_off channel=2 note=73 velocity=64 time=0
EXTRACT: note_off channel=2 note=69 velocity=64 time=0
EXTRACT: note_on channel=2 note=78 velocity=80 time=0
EXTRACT: note_on channel=2 note=73 velocity=80 time=0
EXTRACT: note_on channel=2 note=69 velocity=80 time=0
EXTRACT: note_off channel=8 note=73 velocity=64 time=0
EXTRACT: note_on channel=8 note=71 velocity=72 time=0
EXTRACT: note_off channel=9 note=82 velocity=64 time=0
EXTRACT: note_off channel=9 note=42 velocity=64 time=0
EXTRACT: note_on channel=9 note=42 velocity=80 time=0
EXTRACT: note_on channel=9 note=57 velocity=80 time=0
EXTRACT: note_on channel=9 note=38 velocity=80 time=0
EXTRACT: note_off channel=4 note=37 velocity=64 time=0.14285699999999998
EXTRACT: note_on channel=4 note=42 velocity=80 time=0
EXTRACT: note_off channel=8 note=71 velocity=64 time=0
EXTRACT: note_on channel=8 note=73 velocity=72 time=0
EXTRACT: note_off channel=0 note=66 velocity=64 time=0.14285699999999998
EXTRACT: note_off channel=0 note=61 velocity=64 time=0
EXTRACT: note_off channel=0 note=57 velocity=64 time=0
EXTRACT: note_off channel=0 note=52 velocity=64 time=0
EXTRACT: note_off channel=0 note=49 velocity=64 time=0
EXTRACT: note_on channel=0 note=66 velocity=72 time=0
EXTRACT: note_on channel=0 note=61 velocity=72 time=0
EXTRACT: note_on channel=0 note=57 velocity=72 time=0
EXTRACT: note_off channel=4 note=42 velocity=64 time=0
EXTRACT: note_off channel=9 note=42 velocity=64 time=0
EXTRACT: note_off channel=9 note=57 velocity=64 time=0
EXTRACT: note_off channel=9 note=38 velocity=64 time=0
EXTRACT: note_on channel=9 note=42 velocity=80 time=0
EXTRACT: note_off channel=0 note=66 velocity=64 time=0.14285699999999998
EXTRACT: note_off channel=0 note=61 velocity=64 time=0
EXTRACT: note_off channel=0 note=57 velocity=64 time=0
EXTRACT: note_on channel=0 note=66 velocity=72 time=0
EXTRACT: note_on channel=0 note=61 velocity=72 time=0
EXTRACT: note_on channel=0 note=57 velocity=72 time=0
EXTRACT: note_off channel=8 note=73 velocity=64 time=0
EXTRACT: note_on channel=8 note=71 velocity=72 time=0
EXTRACT: note_off channel=0 note=66 velocity=64 time=0.14285699999999998
EXTRACT: note_off channel=0 note=61 velocity=64 time=0
EXTRACT: note_off channel=0 note=57 velocity=64 time=0
EXTRACT: note_on channel=0 note=66 velocity=72 time=0
EXTRACT: note_on channel=0 note=62 velocity=72 time=0
EXTRACT: note_on channel=0 note=57 velocity=72 time=0
EXTRACT: note_on channel=0 note=54 velocity=72 time=0
EXTRACT: note_on channel=0 note=47 velocity=72 time=0
EXTRACT: note_off channel=6 note=57 velocity=64 time=0
EXTRACT: note_on channel=6 note=66 velocity=80 time=0
EXTRACT: note_on channel=4 note=35 velocity=80 time=0
EXTRACT: note_off channel=2 note=78 velocity=64 time=0
EXTRACT: note_off channel=2 note=73 velocity=64 time=0
EXTRACT: note_off channel=2 note=69 velocity=64 time=0
EXTRACT: note_on channel=2 note=81 velocity=80 time=0
EXTRACT: note_on channel=2 note=78 velocity=80 time=0
EXTRACT: note_off channel=8 note=71 velocity=64 time=0
EXTRACT: note_on channel=8 note=73 velocity=72 time=0
EXTRACT: note_on channel=9 note=82 velocity=64 time=0
EXTRACT: note_off channel=9 note=42 velocity=64 time=0
EXTRACT: note_on channel=9 note=42 velocity=80 time=0
EXTRACT: note_on channel=9 note=57 velocity=80 time=0
EXTRACT: note_on channel=9 note=35 velocity=80 time=0
EXTRACT: note_off channel=9 note=82 velocity=64 time=0.14285699999999998
EXTRACT: note_on channel=9 note=82 velocity=64 time=0
EXTRACT: note_off channel=4 note=35 velocity=64 time=0.14285699999999998
EXTRACT: note_off channel=2 note=81 velocity=64 time=0
EXTRACT: note_off channel=2 note=78 velocity=64 time=0
EXTRACT: note_on channel=2 note=81 velocity=80 time=0
EXTRACT: note_on channel=2 note=78 velocity=80 time=0
EXTRACT: note_on channel=2 note=76 velocity=80 time=0
EXTRACT: note_off channel=8 note=73 velocity=64 time=0
EXTRACT: note_on channel=8 note=71 velocity=72 time=0
EXTRACT: note_off channel=9 note=82 velocity=64 time=0
EXTRACT: note_on channel=9 note=82 velocity=64 time=0
EXTRACT: note_off channel=9 note=42 velocity=64 time=0
EXTRACT: note_off channel=9 note=57 velocity=64 time=0
EXTRACT: note_off channel=9 note=35 velocity=64 time=0
EXTRACT: note_on channel=9 note=42 velocity=80 time=0
EXTRACT: note_off channel=0 note=66 velocity=64 time=0.14285699999999998
EXTRACT: note_off channel=0 note=62 velocity=64 time=0
EXTRACT: note_off channel=0 note=57 velocity=64 time=0
EXTRACT: note_off channel=0 note=54 velocity=64 time=0
EXTRACT: note_off channel=0 note=47 velocity=64 time=0
EXTRACT: note_on channel=0 note=66 velocity=72 time=0
EXTRACT: note_on channel=0 note=62 velocity=72 time=0
EXTRACT: note_on channel=0 note=57 velocity=72 time=0
EXTRACT: note_on channel=0 note=54 velocity=72 time=0
EXTRACT: note_on channel=0 note=47 velocity=72 time=0
EXTRACT: note_on channel=4 note=35 velocity=80 time=0
EXTRACT: note_off channel=0 note=66 velocity=64 time=0.14285699999999998
EXTRACT: note_off channel=0 note=62 velocity=64 time=0
EXTRACT: note_off channel=0 note=57 velocity=64 time=0
EXTRACT: note_off channel=0 note=54 velocity=64 time=0
EXTRACT: note_off channel=0 note=47 velocity=64 time=0
EXTRACT: note_on channel=0 note=66 velocity=72 time=0
EXTRACT: note_on channel=0 note=62 velocity=72 time=0
EXTRACT: note_on channel=0 note=57 velocity=72 time=0
EXTRACT: note_off channel=6 note=66 velocity=64 time=0
EXTRACT: note_on channel=6 note=66 velocity=80 time=0
EXTRACT: note_off channel=4 note=35 velocity=64 time=0
EXTRACT: note_off channel=2 note=81 velocity=64 time=0
EXTRACT: note_off channel=2 note=78 velocity=64 time=0
EXTRACT: note_off channel=2 note=76 velocity=64 time=0
EXTRACT: note_on channel=2 note=81 velocity=80 time=0
EXTRACT: note_on channel=2 note=78 velocity=80 time=0
EXTRACT: note_on channel=2 note=74 velocity=80 time=0
EXTRACT: note_off channel=8 note=71 velocity=64 time=0
EXTRACT: note_on channel=8 note=74 velocity=80 time=0
EXTRACT: note_off channel=9 note=82 velocity=64 time=0
EXTRACT: note_off channel=9 note=42 velocity=64 time=0
EXTRACT: note_on channel=9 note=42 velocity=80 time=0
EXTRACT: note_on channel=9 note=57 velocity=80 time=0
EXTRACT: note_on channel=9 note=38 velocity=80 time=0
EXTRACT: note_off channel=0 note=66 velocity=64 time=0.14285699999999998
EXTRACT: note_off channel=0 note=62 velocity=64 time=0
EXTRACT: note_off channel=0 note=57 velocity=64 time=0
EXTRACT: note_on channel=0 note=66 velocity=72 time=0
EXTRACT: note_on channel=0 note=62 velocity=72 time=0
EXTRACT: note_on channel=0 note=57 velocity=72 time=0
EXTRACT: note_off channel=0 note=66 velocity=64 time=0.14285699999999998
EXTRACT: note_off channel=0 note=62 velocity=64 time=0
EXTRACT: note_off channel=0 note=57 velocity=64 time=0
EXTRACT: note_on channel=0 note=66 velocity=72 time=0
EXTRACT: note_on channel=0 note=61 velocity=72 time=0
EXTRACT: note_on channel=0 note=57 velocity=72 time=0
EXTRACT: note_on channel=0 note=52 velocity=72 time=0
EXTRACT: note_on channel=0 note=49 velocity=72 time=0
EXTRACT: note_on channel=4 note=30 velocity=80 time=0
EXTRACT: note_off channel=2 note=81 velocity=64 time=0
EXTRACT: note_off channel=2 note=78 velocity=64 time=0
EXTRACT: note_off channel=2 note=74 velocity=64 time=0
EXTRACT: note_on channel=2 note=78 velocity=80 time=0
EXTRACT: note_on channel=2 note=73 velocity=80 time=0
EXTRACT: note_on channel=2 note=69 velocity=80 time=0
EXTRACT: note_off channel=8 note=74 velocity=64 time=0
EXTRACT: note_on channel=8 note=73 velocity=80 time=0
EXTRACT: note_off channel=9 note=42 velocity=64 time=0
EXTRACT: note_off channel=9 note=57 velocity=64 time=0
EXTRACT: note_off channel=9 note=38 velocity=64 time=0
EXTRACT: note_on channel=9 note=42 velocity=80 time=0
EXTRACT: note_on channel=9 note=35 velocity=80 time=0
EXTRACT: note_off channel=0 note=66 velocity=64 time=0.28571399999999997
EXTRACT: note_off channel=0 note=61 velocity=64 time=0
EXTRACT: note_off channel=0 note=57 velocity=64 time=0
EXTRACT: note_off channel=0 note=52 velocity=64 time=0
EXTRACT: note_off channel=0 note=49 velocity=64 time=0
EXTRACT: note_off channel=6 note=66 velocity=64 time=0
EXTRACT: note_on channel=6 note=64 velocity=80 time=0
EXTRACT: note_off channel=4 note=30 velocity=64 time=0
EXTRACT: note_off channel=2 note=78 velocity=64 time=0
EXTRACT: note_off channel=2 note=73 velocity=64 time=0
EXTRACT: note_off channel=2 note=69 velocity=64 time=0
EXTRACT: note_off channel=8 note=73 velocity=64 time=0
EXTRACT: note_on channel=9 note=82 velocity=64 time=0
EXTRACT: note_off channel=9 note=42 velocity=64 time=0
EXTRACT: note_off channel=9 note=35 velocity=64 time=0
EXTRACT: note_on channel=9 note=42 velocity=80 time=0
EXTRACT: note_on channel=9 note=57 velocity=80 time=0
EXTRACT: note_on channel=11 note=66 velocity=80 time=0.14285699999999998
EXTRACT: note_on channel=0 note=66 velocity=72 time=0
EXTRACT: note_on channel=0 note=61 velocity=72 time=0
EXTRACT: note_on channel=0 note=57 velocity=72 time=0
EXTRACT: note_off channel=9 note=82 velocity=64 time=0
EXTRACT: note_on channel=9 note=82 velocity=64 time=0
EXTRACT: note_off channel=9 note=42 velocity=64 time=0
EXTRACT: note_off channel=9 note=57 velocity=64 time=0
EXTRACT: note_on channel=9 note=38 velocity=80 time=0
EXTRACT: note_off channel=11 note=66 velocity=64 time=0.14285699999999998
EXTRACT: note_on channel=11 note=69 velocity=80 time=0
EXTRACT: note_off channel=0 note=66 velocity=64 time=0
EXTRACT: note_off channel=0 note=61 velocity=64 time=0
EXTRACT: note_off channel=0 note=57 velocity=64 time=0
EXTRACT: note_on channel=0 note=61 velocity=72 time=0
EXTRACT: note_on channel=0 note=57 velocity=72 time=0
EXTRACT: note_on channel=0 note=52 velocity=72 time=0
EXTRACT: note_on channel=0 note=49 velocity=72 time=0
EXTRACT: note_on channel=8 note=71 velocity=80 time=0
EXTRACT: note_off channel=9 note=82 velocity=64 time=0
EXTRACT: note_on channel=9 note=82 velocity=64 time=0
EXTRACT: note_off channel=9 note=38 velocity=64 time=0
EXTRACT: note_on channel=9 note=42 velocity=80 time=0
EXTRACT: note_off channel=11 note=69 velocity=64 time=0.14285699999999998
EXTRACT: note_on channel=11 note=66 velocity=80 time=0
EXTRACT: note_off channel=11 note=66 velocity=64 time=0.14285699999999998
EXTRACT: note_on channel=11 note=69 velocity=80 time=0
EXTRACT: note_off channel=0 note=61 velocity=64 time=0
EXTRACT: note_off channel=0 note=57 velocity=64 time=0
EXTRACT: note_off channel=0 note=52 velocity=64 time=0
EXTRACT: note_off channel=0 note=49 velocity=64 time=0
EXTRACT: note_on channel=0 note=66 velocity=72 time=0
EXTRACT: note_on channel=0 note=61 velocity=72 time=0
EXTRACT: note_on channel=0 note=57 velocity=72 time=0
EXTRACT: note_on channel=0 note=52 velocity=72 time=0
EXTRACT: note_on channel=0 note=49 velocity=72 time=0
EXTRACT: note_off channel=6 note=64 velocity=64 time=0
EXTRACT: note_on channel=6 note=62 velocity=80 time=0
EXTRACT: note_on channel=2 note=78 velocity=80 time=0
EXTRACT: note_on channel=2 note=73 velocity=80 time=0
EXTRACT: note_on channel=2 note=69 velocity=80 time=0
EXTRACT: note_off channel=8 note=71 velocity=64 time=0
EXTRACT: note_on channel=8 note=73 velocity=80 time=0
EXTRACT: note_off channel=9 note=82 velocity=64 time=0
EXTRACT: note_off channel=9 note=42 velocity=64 time=0
EXTRACT: note_on channel=9 note=42 velocity=80 time=0
EXTRACT: note_on channel=9 note=57 velocity=80 time=0
EXTRACT: note_on channel=9 note=38 velocity=80 time=0
EXTRACT: note_off channel=11 note=69 velocity=64 time=0.28571399999999997
EXTRACT: note_on channel=11 note=66 velocity=80 time=0
EXTRACT: note_off channel=0 note=66 velocity=64 time=0
EXTRACT: note_off channel=0 note=61 velocity=64 time=0
EXTRACT: note_off channel=0 note=57 velocity=64 time=0
EXTRACT: note_off channel=0 note=52 velocity=64 time=0
EXTRACT: note_off channel=0 note=49 velocity=64 time=0
EXTRACT: note_on channel=0 note=66 velocity=72 time=0
EXTRACT: note_on channel=0 note=61 velocity=72 time=0
EXTRACT: note_on channel=0 note=57 velocity=72 time=0
EXTRACT: note_off channel=6 note=62 velocity=64 time=0
EXTRACT: note_on channel=6 note=59 velocity=80 time=0
EXTRACT: note_on channel=4 note=33 velocity=80 time=0
EXTRACT: note_off channel=2 note=78 velocity=64 time=0
EXTRACT: note_off channel=2 note=73 velocity=64 time=0
EXTRACT: note_off channel=2 note=69 velocity=64 time=0
EXTRACT: note_on channel=2 note=78 velocity=80 time=0
EXTRACT: note_on channel=2 note=73 velocity=80 time=0
EXTRACT: note_on channel=2 note=69 velocity=80 time=0
EXTRACT: note_off channel=8 note=73 velocity=64 time=0
EXTRACT: note_on channel=8 note=71 velocity=80 time=0
EXTRACT: note_off channel=9 note=42 velocity=64 time=0
EXTRACT: note_off channel=9 note=57 velocity=64 time=0
EXTRACT: note_off channel=9 note=38 velocity=64 time=0
EXTRACT: note_on channel=9 note=42 velocity=80 time=0
EXTRACT: note_off channel=0 note=66 velocity=64 time=0.14285699999999998
EXTRACT: note_off channel=0 note=61 velocity=64 time=0
EXTRACT: note_off channel=0 note=57 velocity=64 time=0
EXTRACT: note_on channel=0 note=66 velocity=72 time=0
EXTRACT: note_on channel=0 note=61 velocity=72 time=0
EXTRACT: note_on channel=0 note=57 velocity=72 time=0
EXTRACT: note_off channel=4 note=33 velocity=64 time=0
EXTRACT: note_on channel=4 note=30 velocity=80 time=0
EXTRACT: note_off channel=11 note=66 velocity=64 time=0.14285699999999998
EXTRACT: note_off channel=0 note=66 velocity=64 time=0
EXTRACT: note_off channel=0 note=61 velocity=64 time=0
EXTRACT: note_off channel=0 note=57 velocity=64 time=0
EXTRACT: note_on channel=0 note=60 velocity=72 time=0
EXTRACT: note_on channel=0 note=57 velocity=72 time=0
EXTRACT: note_on channel=0 note=52 velocity=72 time=0
EXTRACT: note_on channel=0 note=41 velocity=72 time=0
EXTRACT: note_off channel=6 note=59 velocity=64 time=0
EXTRACT: note_off channel=4 note=30 velocity=64 time=0
EXTRACT: note_on channel=4 note=29 velocity=80 time=0
EXTRACT: note_off channel=2 note=78 velocity=64 time=0
EXTRACT: note_off channel=2 note=73 velocity=64 time=0
EXTRACT: note_off channel=2 note=69 velocity=64 time=0
EXTRACT: note_on channel=2 note=76 velocity=80 time=0
EXTRACT: note_on channel=2 note=72 velocity=80 time=0
EXTRACT: note_on channel=2 note=69 velocity=80 time=0
EXTRACT: note_on channel=2 note=67 velocity=80 time=0
EXTRACT: note_off channel=8 note=71 velocity=64 time=0
EXTRACT: note_on channel=8 note=69 velocity=80 time=0
EXTRACT: note_on channel=9 note=82 velocity=64 time=0
EXTRACT: note_off channel=9 note=42 velocity=64 time=0
EXTRACT: note_on channel=9 note=42 velocity=80 time=0
EXTRACT: note_on channel=9 note=57 velocity=80 time=0
EXTRACT: note_on channel=9 note=35 velocity=80 time=0
EXTRACT: note_off channel=9 note=82 velocity=64 time=0.14285699999999998
EXTRACT: note_on channel=9 note=82 velocity=64 time=0
EXTRACT: note_off channel=9 note=82 velocity=64 time=0.14285699999999998
EXTRACT: note_on channel=9 note=82 velocity=64 time=0
EXTRACT: note_off channel=9 note=42 velocity=64 time=0
EXTRACT: note_off channel=9 note=57 velocity=64 time=0
EXTRACT: note_off channel=9 note=35 velocity=64 time=0
EXTRACT: note_on channel=9 note=42 velocity=80 time=0
EXTRACT: note_off channel=0 note=60 velocity=64 time=0.14285699999999998
EXTRACT: note_off channel=0 note=57 velocity=64 time=0
EXTRACT: note_off channel=0 note=52 velocity=64 time=0
EXTRACT: note_off channel=0 note=41 velocity=64 time=0
EXTRACT: note_on channel=0 note=60 velocity=72 time=0
EXTRACT: note_on channel=0 note=57 velocity=72 time=0
EXTRACT: note_on channel=0 note=52 velocity=72 time=0
EXTRACT: note_on channel=0 note=41 velocity=72 time=0
EXTRACT: note_off channel=4 note=29 velocity=64 time=0
EXTRACT: note_on channel=4 note=29 velocity=80 time=0
EXTRACT: note_off channel=2 note=76 velocity=64 time=0
EXTRACT: note_off channel=2 note=72 velocity=64 time=0
EXTRACT: note_off channel=2 note=69 velocity=64 time=0
EXTRACT: note_off channel=2 note=67 velocity=64 time=0
EXTRACT: note_on channel=2 note=76 velocity=80 time=0
EXTRACT: note_on channel=2 note=72 velocity=80 time=0
EXTRACT: note_on channel=2 note=69 velocity=80 time=0
EXTRACT: note_on channel=2 note=67 velocity=80 time=0
EXTRACT: note_off channel=0 note=60 velocity=64 time=0.14285699999999998
EXTRACT: note_off channel=0 note=57 velocity=64 time=0
EXTRACT: note_off channel=0 note=52 velocity=64 time=0
EXTRACT: note_off channel=0 note=41 velocity=64 time=0
EXTRACT: note_on channel=0 note=60 velocity=72 time=0
EXTRACT: note_on channel=0 note=57 velocity=72 time=0
EXTRACT: note_on channel=0 note=52 velocity=72 time=0
EXTRACT: note_off channel=4 note=29 velocity=64 time=0
EXTRACT: note_off channel=2 note=76 velocity=64 time=0
EXTRACT: note_off channel=2 note=72 velocity=64 time=0
EXTRACT: note_off channel=2 note=69 velocity=64 time=0
EXTRACT: note_off channel=2 note=67 velocity=64 time=0
EXTRACT: note_off channel=9 note=82 velocity=64 time=0
EXTRACT: note_off channel=9 note=42 velocity=64 time=0
EXTRACT: note_on channel=9 note=42 velocity=80 time=0
EXTRACT: note_on channel=9 note=57 velocity=80 time=0
EXTRACT: note_on channel=9 note=38 velocity=80 time=0
EXTRACT: note_off channel=0 note=60 velocity=64 time=0.14285699999999998
EXTRACT: note_off channel=0 note=57 velocity=64 time=0
EXTRACT: note_off channel=0 note=52 velocity=64 time=0
EXTRACT: note_on channel=0 note=60 velocity=72 time=0
EXTRACT: note_on channel=0 note=57 velocity=72 time=0
EXTRACT: note_on channel=0 note=52 velocity=72 time=0
EXTRACT: note_on channel=4 note=29 velocity=80 time=0
EXTRACT: note_off channel=0 note=60 velocity=64 time=0.14285699999999998
EXTRACT: note_off channel=0 note=57 velocity=64 time=0
EXTRACT: note_off channel=0 note=52 velocity=64 time=0
EXTRACT: note_on channel=0 note=62 velocity=72 time=0
EXTRACT: note_on channel=0 note=59 velocity=72 time=0
EXTRACT: note_on channel=0 note=54 velocity=72 time=0
EXTRACT: note_on channel=0 note=43 velocity=72 time=0
EXTRACT: note_off channel=4 note=29 velocity=64 time=0
EXTRACT: note_on channel=4 note=31 velocity=80 time=0
EXTRACT: note_on channel=2 note=78 velocity=80 time=0
EXTRACT: note_on channel=2 note=74 velocity=80 time=0
EXTRACT: note_on channel=2 note=71 velocity=80 time=0
EXTRACT: note_on channel=2 note=69 velocity=80 time=0
EXTRACT: note_off channel=8 note=69 velocity=64 time=0
EXTRACT: note_on channel=8 note=76 velocity=80 time=0
EXTRACT: note_off channel=9 note=42 velocity=64 time=0
EXTRACT: note_off channel=9 note=57 velocity=64 time=0
EXTRACT: note_off channel=9 note=38 velocity=64 time=0
EXTRACT: note_on channel=9 note=42 velocity=80 time=0
EXTRACT: note_on channel=9 note=35 velocity=80 time=0
EXTRACT: note_off channel=0 note=62 velocity=64 time=0.28571399999999997
EXTRACT: note_off channel=0 note=59 velocity=64 time=0
EXTRACT: note_off channel=0 note=54 velocity=64 time=0
EXTRACT: note_off channel=0 note=43 velocity=64 time=0
EXTRACT: note_off channel=4 note=31 velocity=64 time=0
EXTRACT: note_off channel=2 note=78 velocity=64 time=0
EXTRACT: note_off channel=2 note=74 velocity=64 time=0
EXTRACT: note_off channel=2 note=71 velocity=64 time=0
EXTRACT: note_off channel=2 note=69 velocity=64 time=0
EXTRACT: note_off channel=8 note=76 velocity=64 time=0
EXTRACT: note_on channel=9 note=82 velocity=64 time=0
EXTRACT: note_off channel=9 note=42 velocity=64 time=0
EXTRACT: note_off channel=9 note=35 velocity=64 time=0
EXTRACT: note_on channel=9 note=42 velocity=80 time=0
EXTRACT: note_on channel=9 note=57 velocity=80 time=0
EXTRACT: note_on channel=11 note=66 velocity=80 time=0.14285699999999998
EXTRACT: note_on channel=0 note=62 velocity=72 time=0
EXTRACT: note_on channel=0 note=59 velocity=72 time=0
EXTRACT: note_on channel=0 note=54 velocity=72 time=0
EXTRACT: note_on channel=4 note=38 velocity=80 time=0
EXTRACT: note_off channel=9 note=82 velocity=64 time=0
EXTRACT: note_on channel=9 note=82 velocity=64 time=0
EXTRACT: note_off channel=9 note=42 velocity=64 time=0
EXTRACT: note_off channel=9 note=57 velocity=64 time=0
EXTRACT: note_on channel=9 note=38 velocity=80 time=0
EXTRACT: note_off channel=11 note=66 velocity=64 time=0.14285699999999998
EXTRACT: note_on channel=11 note=69 velocity=80 time=0
EXTRACT: note_off channel=0 note=62 velocity=64 time=0
EXTRACT: note_off channel=0 note=59 velocity=64 time=0
EXTRACT: note_off channel=0 note=54 velocity=64 time=0
EXTRACT: note_on channel=0 note=62 velocity=72 time=0
EXTRACT: note_on channel=0 note=59 velocity=72 time=0
EXTRACT: note_on channel=0 note=54 velocity=72 time=0
EXTRACT: note_on channel=0 note=43 velocity=72 time=0
EXTRACT: note_off channel=4 note=38 velocity=64 time=0
EXTRACT: note_on channel=4 note=43 velocity=80 time=0
EXTRACT: note_off channel=9 note=82 velocity=64 time=0
EXTRACT: note_on channel=9 note=82 velocity=64 time=0
EXTRACT: note_off channel=9 note=38 velocity=64 time=0
EXTRACT: note_on channel=9 note=42 velocity=80 time=0
EXTRACT: note_off channel=11 note=69 velocity=64 time=0.14285699999999998
EXTRACT: note_on channel=11 note=66 velocity=80 time=0
EXTRACT: note_off channel=4 note=43 velocity=64 time=0
EXTRACT: note_off channel=11 note=66 velocity=64 time=0.14285699999999998
EXTRACT: note_on channel=11 note=69 velocity=80 time=0
EXTRACT: note_off channel=0 note=62 velocity=64 time=0
EXTRACT: note_off channel=0 note=59 velocity=64 time=0
EXTRACT: note_off channel=0 note=54 velocity=64 time=0
EXTRACT: note_off channel=0 note=43 velocity=64 time=0
EXTRACT: note_on channel=0 note=62 velocity=72 time=0
EXTRACT: note_on channel=0 note=59 velocity=72 time=0
EXTRACT: note_on channel=0 note=54 velocity=72 time=0
EXTRACT: note_on channel=0 note=43 velocity=72 time=0
EXTRACT: note_on channel=4 note=43 velocity=80 time=0
EXTRACT: note_on channel=2 note=78 velocity=80 time=0
EXTRACT: note_on channel=2 note=74 velocity=80 time=0
EXTRACT: note_on channel=2 note=71 velocity=80 time=0
EXTRACT: note_on channel=2 note=69 velocity=80 time=0
EXTRACT: note_off channel=9 note=82 velocity=64 time=0
EXTRACT: note_off channel=9 note=42 velocity=64 time=0
EXTRACT: note_on channel=9 note=42 velocity=80 time=0
EXTRACT: note_on channel=9 note=57 velocity=80 time=0
EXTRACT: note_on channel=9 note=38 velocity=80 time=0
EXTRACT: note_off channel=4 note=43 velocity=64 time=0.14285699999999998
EXTRACT: note_on channel=4 note=38 velocity=80 time=0
EXTRACT: note_off channel=11 note=69 velocity=64 time=0.14285699999999998
EXTRACT: note_on channel=11 note=66 velocity=80 time=0
EXTRACT: note_off channel=0 note=62 velocity=64 time=0
EXTRACT: note_off channel=0 note=59 velocity=64 time=0
EXTRACT: note_off channel=0 note=54 velocity=64 time=0
EXTRACT: note_off channel=0 note=43 velocity=64 time=0
EXTRACT: note_on channel=0 note=62 velocity=72 time=0
EXTRACT: note_on channel=0 note=59 velocity=72 time=0
EXTRACT: note_on channel=0 note=54 velocity=72 time=0
EXTRACT: note_off channel=4 note=38 velocity=64 time=0
EXTRACT: note_on channel=4 note=31 velocity=80 time=0
EXTRACT: note_off channel=9 note=42 velocity=64 time=0
EXTRACT: note_off channel=9 note=57 velocity=64 time=0
EXTRACT: note_off channel=9 note=38 velocity=64 time=0
EXTRACT: note_on channel=9 note=42 velocity=80 time=0
EXTRACT: note_off channel=0 note=62 velocity=64 time=0.14285699999999998
EXTRACT: note_off channel=0 note=59 velocity=64 time=0
EXTRACT: note_off channel=0 note=54 velocity=64 time=0
EXTRACT: note_on channel=0 note=62 velocity=72 time=0
EXTRACT: note_on channel=0 note=59 velocity=72 time=0
EXTRACT: note_on channel=0 note=54 velocity=72 time=0
EXTRACT: note_off channel=4 note=31 velocity=64 time=0
EXTRACT: note_on channel=4 note=32 velocity=80 time=0
EXTRACT: note_off channel=11 note=66 velocity=64 time=0.14285699999999998
EXTRACT: note_off channel=0 note=62 velocity=64 time=0
EXTRACT: note_off channel=0 note=59 velocity=64 time=0
EXTRACT: note_off channel=0 note=54 velocity=64 time=0
EXTRACT: note_on channel=0 note=64 velocity=72 time=0
EXTRACT: note_on channel=0 note=61 velocity=72 time=0
EXTRACT: note_on channel=0 note=56 velocity=72 time=0
EXTRACT: note_on channel=0 note=45 velocity=72 time=0
EXTRACT: note_off channel=4 note=32 velocity=64 time=0
EXTRACT: note_on channel=4 note=33 velocity=80 time=0
EXTRACT: note_off channel=2 note=78 velocity=64 time=0
EXTRACT: note_off channel=2 note=74 velocity=64 time=0
EXTRACT: note_off channel=2 note=71 velocity=64 time=0
EXTRACT: note_off channel=2 note=69 velocity=64 time=0
EXTRACT: note_on channel=2 note=80 velocity=80 time=0
EXTRACT: note_on channel=2 note=76 velocity=80 time=0
EXTRACT: note_on channel=2 note=73 velocity=80 time=0
EXTRACT: note_on channel=2 note=71 velocity=80 time=0
EXTRACT: note_on channel=8 note=83 velocity=80 time=0
EXTRACT: note_on channel=9 note=82 velocity=64 time=0
EXTRACT: note_off channel=9 note=42 velocity=64 time=0
EXTRACT: note_on channel=9 note=42 velocity=80 time=0
EXTRACT: note_on channel=9 note=57 velocity=80 time=0
EXTRACT: note_on channel=9 note=35 velocity=80 time=0
EXTRACT: note_off channel=9 note=82 velocity=64 time=0.14285699999999998
EXTRACT: note_on channel=9 note=82 velocity=64 time=0
EXTRACT: note_off channel=9 note=82 velocity=64 time=0.14285699999999998
EXTRACT: note_on channel=9 note=82 velocity=64 time=0
EXTRACT: note_off channel=9 note=42 velocity=64 time=0
EXTRACT: note_off channel=9 note=57 velocity=64 time=0
EXTRACT: note_off channel=9 note=35 velocity=64 time=0
EXTRACT: note_on channel=9 note=42 velocity=80 time=0
EXTRACT: note_off channel=0 note=64 velocity=64 time=0.14285699999999998
EXTRACT: note_off channel=0 note=61 velocity=64 time=0
EXTRACT: note_off channel=0 note=56 velocity=64 time=0
EXTRACT: note_off channel=0 note=45 velocity=64 time=0
EXTRACT: note_on channel=0 note=64 velocity=72 time=0
EXTRACT: note_on channel=0 note=61 velocity=72 time=0
EXTRACT: note_on channel=0 note=56 velocity=72 time=0
EXTRACT: note_on channel=0 note=45 velocity=72 time=0
EXTRACT: note_off channel=4 note=33 velocity=64 time=0
EXTRACT: note_on channel=4 note=40 velocity=80 time=0
EXTRACT: note_off channel=2 note=80 velocity=64 time=0
EXTRACT: note_off channel=2 note=76 velocity=64 time=0
EXTRACT: note_off channel=2 note=73 velocity=64 time=0
EXTRACT: note_off channel=2 note=71 velocity=64 time=0
EXTRACT: note_on channel=2 note=80 velocity=80 time=0
EXTRACT: note_on channel=2 note=76 velocity=80 time=0
EXTRACT: note_on channel=2 note=73 velocity=80 time=0
EXTRACT: note_on channel=2 note=71 velocity=80 time=0
EXTRACT: note_off channel=0 note=64 velocity=64 time=0.14285699999999998
EXTRACT: note_off channel=0 note=61 velocity=64 time=0
EXTRACT: note_off channel=0 note=56 velocity=64 time=0
EXTRACT: note_off channel=0 note=45 velocity=64 time=0
EXTRACT: note_on channel=0 note=64 velocity=72 time=0
EXTRACT: note_on channel=0 note=61 velocity=72 time=0
EXTRACT: note_on channel=0 note=56 velocity=72 time=0
EXTRACT: note_off channel=4 note=40 velocity=64 time=0
EXTRACT: note_off channel=2 note=80 velocity=64 time=0
EXTRACT: note_off channel=2 note=76 velocity=64 time=0
EXTRACT: note_off channel=2 note=73 velocity=64 time=0
EXTRACT: note_off channel=2 note=71 velocity=64 time=0
EXTRACT: note_off channel=9 note=82 velocity=64 time=0
EXTRACT: note_off channel=9 note=42 velocity=64 time=0
EXTRACT: note_on channel=9 note=42 velocity=80 time=0
EXTRACT: note_on channel=9 note=57 velocity=80 time=0
EXTRACT: note_on channel=9 note=38 velocity=80 time=0
EXTRACT: note_off channel=0 note=64 velocity=64 time=0.14285699999999998
EXTRACT: note_off channel=0 note=61 velocity=64 time=0
EXTRACT: note_off channel=0 note=56 velocity=64 time=0
EXTRACT: note_on channel=0 note=64 velocity=72 time=0
EXTRACT: note_on channel=0 note=61 velocity=72 time=0
EXTRACT: note_on channel=0 note=56 velocity=72 time=0
EXTRACT: note_on channel=4 note=38 velocity=80 time=0
EXTRACT: note_off channel=0 note=64 velocity=64 time=0.14285699999999998
EXTRACT: note_off channel=0 note=61 velocity=64 time=0
EXTRACT: note_off channel=0 note=56 velocity=64 time=0
EXTRACT: note_on channel=0 note=69 velocity=72 time=0
EXTRACT: note_on channel=0 note=64 velocity=72 time=0
EXTRACT: note_on channel=0 note=60 velocity=72 time=0
EXTRACT: note_on channel=0 note=55 velocity=72 time=0
EXTRACT: note_on channel=0 note=50 velocity=72 time=0
EXTRACT: note_on channel=2 note=76 velocity=80 time=0
EXTRACT: note_on channel=2 note=72 velocity=80 time=0
EXTRACT: note_on channel=2 note=71 velocity=80 time=0
EXTRACT: note_on channel=2 note=67 velocity=80 time=0
EXTRACT: note_off channel=8 note=83 velocity=64 time=0
EXTRACT: note_on channel=8 note=69 velocity=80 time=0
EXTRACT: note_off channel=9 note=42 velocity=64 time=0
EXTRACT: note_off channel=9 note=57 velocity=64 time=0
EXTRACT: note_off channel=9 note=38 velocity=64 time=0
EXTRACT: note_on channel=9 note=42 velocity=80 time=0
EXTRACT: note_on channel=9 note=35 velocity=80 time=0
EXTRACT: note_off channel=0 note=69 velocity=64 time=0.28571399999999997
EXTRACT: note_off channel=0 note=64 velocity=64 time=0
EXTRACT: note_off channel=0 note=60 velocity=64 time=0
EXTRACT: note_off channel=0 note=55 velocity=64 time=0
EXTRACT: note_off channel=0 note=50 velocity=64 time=0
EXTRACT: note_off channel=4 note=38 velocity=64 time=0
EXTRACT: note_off channel=2 note=76 velocity=64 time=0
EXTRACT: note_off channel=2 note=72 velocity=64 time=0
EXTRACT: note_off channel=2 note=71 velocity=64 time=0
EXTRACT: note_off channel=2 note=67 velocity=64 time=0
EXTRACT: note_off channel=8 note=69 velocity=64 time=0
EXTRACT: note_on channel=9 note=82 velocity=64 time=0
EXTRACT: note_off channel=9 note=42 velocity=64 time=0
EXTRACT: note_off channel=9 note=35 velocity=64 time=0
EXTRACT: note_on channel=9 note=42 velocity=80 time=0
EXTRACT: note_on channel=9 note=57 velocity=80 time=0
EXTRACT: note_on channel=0 note=69 velocity=72 time=0.14285699999999998
EXTRACT: note_on channel=0 note=64 velocity=72 time=0
EXTRACT: note_on channel=0 note=60 velocity=72 time=0
EXTRACT: note_on channel=4 note=45 velocity=80 time=0
EXTRACT: note_off channel=9 note=82 velocity=64 time=0
EXTRACT: note_on channel=9 note=82 velocity=64 time=0
EXTRACT: note_off channel=9 note=42 velocity=64 time=0
EXTRACT: note_off channel=9 note=57 velocity=64 time=0
EXTRACT: note_on channel=9 note=38 velocity=80 time=0
EXTRACT: note_off channel=0 note=69 velocity=64 time=0.14285699999999998
EXTRACT: note_off channel=0 note=64 velocity=64 time=0
EXTRACT: note_off channel=0 note=60 velocity=64 time=0
EXTRACT: note_on channel=0 note=64 velocity=72 time=0
EXTRACT: note_on channel=0 note=60 velocity=72 time=0
EXTRACT: note_on channel=0 note=55 velocity=72 time=0
EXTRACT: note_on channel=0 note=50 velocity=72 time=0
EXTRACT: note_off channel=4 note=45 velocity=64 time=0
EXTRACT: note_on channel=4 note=50 velocity=80 time=0
EXTRACT: note_on channel=2 note=76 velocity=80 time=0
EXTRACT: note_on channel=2 note=72 velocity=80 time=0
EXTRACT: note_on channel=2 note=71 velocity=80 time=0
EXTRACT: note_on channel=2 note=67 velocity=80 time=0
EXTRACT: note_off channel=9 note=82 velocity=64 time=0
EXTRACT: note_on channel=9 note=82 velocity=64 time=0
EXTRACT: note_off channel=9 note=38 velocity=64 time=0
EXTRACT: note_on channel=9 note=42 velocity=80 time=0
EXTRACT: note_off channel=4 note=50 velocity=64 time=0.14285699999999998
EXTRACT: note_off channel=0 note=64 velocity=64 time=0.14285699999999998
EXTRACT: note_off channel=0 note=60 velocity=64 time=0
EXTRACT: note_off channel=0 note=55 velocity=64 time=0
EXTRACT: note_off channel=0 note=50 velocity=64 time=0
EXTRACT: note_on channel=0 note=69 velocity=72 time=0
EXTRACT: note_on channel=0 note=64 velocity=72 time=0
EXTRACT: note_on channel=0 note=60 velocity=72 time=0
EXTRACT: note_on channel=0 note=55 velocity=72 time=0
EXTRACT: note_on channel=0 note=50 velocity=72 time=0
EXTRACT: note_on channel=4 note=50 velocity=80 time=0
EXTRACT: note_off channel=2 note=76 velocity=64 time=0
EXTRACT: note_off channel=2 note=72 velocity=64 time=0
EXTRACT: note_off channel=2 note=71 velocity=64 time=0
EXTRACT: note_off channel=2 note=67 velocity=64 time=0
EXTRACT: note_on channel=2 note=76 velocity=80 time=0
EXTRACT: note_on channel=2 note=72 velocity=80 time=0
EXTRACT: note_on channel=2 note=71 velocity=80 time=0
EXTRACT: note_on channel=2 note=67 velocity=80 time=0
EXTRACT: note_off channel=9 note=82 velocity=64 time=0
EXTRACT: note_off channel=9 note=42 velocity=64 time=0
EXTRACT: note_on channel=9 note=42 velocity=80 time=0
EXTRACT: note_on channel=9 note=57 velocity=80 time=0
EXTRACT: note_on channel=9 note=38 velocity=80 time=0
EXTRACT: note_off channel=4 note=50 velocity=64 time=0.14285699999999998
EXTRACT: note_on channel=4 note=45 velocity=80 time=0
EXTRACT: note_off channel=0 note=69 velocity=64 time=0.14285699999999998
EXTRACT: note_off channel=0 note=64 velocity=64 time=0
EXTRACT: note_off channel=0 note=60 velocity=64 time=0
EXTRACT: note_off channel=0 note=55 velocity=64 time=0
EXTRACT: note_off channel=0 note=50 velocity=64 time=0
EXTRACT: note_on channel=0 note=66 velocity=72 time=0
EXTRACT: note_on channel=0 note=61 velocity=72 time=0
EXTRACT: note_on channel=0 note=57 velocity=72 time=0
EXTRACT: note_off channel=4 note=45 velocity=64 time=0
EXTRACT: note_on channel=4 note=38 velocity=80 time=0
EXTRACT: note_off channel=9 note=42 velocity=64 time=0
EXTRACT: note_off channel=9 note=57 velocity=64 time=0
EXTRACT: note_off channel=9 note=38 velocity=64 time=0
EXTRACT: note_on channel=9 note=42 velocity=80 time=0
EXTRACT: note_off channel=0 note=66 velocity=64 time=0.14285699999999998
EXTRACT: note_off channel=0 note=61 velocity=64 time=0
EXTRACT: note_off channel=0 note=57 velocity=64 time=0
EXTRACT: note_on channel=0 note=66 velocity=72 time=0
EXTRACT: note_on channel=0 note=61 velocity=72 time=0
EXTRACT: note_on channel=0 note=57 velocity=72 time=0
EXTRACT: note_off channel=0 note=66 velocity=64 time=0.14285699999999998
EXTRACT: note_off channel=0 note=61 velocity=64 time=0
EXTRACT: note_off channel=0 note=57 velocity=64 time=0
EXTRACT: note_on channel=0 note=66 velocity=72 time=0
EXTRACT: note_on channel=0 note=62 velocity=72 time=0
EXTRACT: note_on channel=0 note=57 velocity=72 time=0
EXTRACT: note_on channel=0 note=54 velocity=72 time=0
EXTRACT: note_on channel=0 note=47 velocity=72 time=0
EXTRACT: note_on channel=6 note=52 velocity=80 time=0
EXTRACT: note_off channel=4 note=38 velocity=64 time=0
EXTRACT: note_on channel=4 note=35 velocity=80 time=0
EXTRACT: note_off channel=2 note=76 velocity=64 time=0
EXTRACT: note_off channel=2 note=72 velocity=64 time=0
EXTRACT: note_off channel=2 note=71 velocity=64 time=0
EXTRACT: note_off channel=2 note=67 velocity=64 time=0
EXTRACT: note_on channel=2 note=78 velocity=80 time=0
EXTRACT: note_on channel=2 note=74 velocity=80 time=0
EXTRACT: note_on channel=2 note=69 velocity=80 time=0
EXTRACT: note_on channel=8 note=73 velocity=72 time=0
EXTRACT: note_on channel=9 note=82 velocity=64 time=0
EXTRACT: note_off channel=9 note=42 velocity=64 time=0
EXTRACT: note_on channel=9 note=49 velocity=80 time=0
EXTRACT: note_on channel=9 note=57 velocity=80 time=0
EXTRACT: note_on channel=9 note=35 velocity=80 time=0
EXTRACT: note_off channel=9 note=82 velocity=64 time=0.14285699999999998
EXTRACT: note_on channel=9 note=82 velocity=64 time=0
EXTRACT: note_off channel=4 note=35 velocity=64 time=0.14285699999999998
EXTRACT: note_off channel=8 note=73 velocity=64 time=0
EXTRACT: note_on channel=8 note=71 velocity=72 time=0
EXTRACT: note_off channel=9 note=82 velocity=64 time=0
EXTRACT: note_on channel=9 note=82 velocity=64 time=0
EXTRACT: note_off channel=9 note=49 velocity=64 time=0
EXTRACT: note_off channel=9 note=57 velocity=64 time=0
EXTRACT: note_off channel=9 note=35 velocity=64 time=0
EXTRACT: note_on channel=9 note=42 velocity=80 time=0
EXTRACT: note_off channel=0 note=66 velocity=64 time=0.14285699999999998
EXTRACT: note_off channel=0 note=62 velocity=64 time=0
EXTRACT: note_off channel=0 note=57 velocity=64 time=0
EXTRACT: note_off channel=0 note=54 velocity=64 time=0
EXTRACT: note_off channel=0 note=47 velocity=64 time=0
EXTRACT: note_on channel=0 note=66 velocity=72 time=0
EXTRACT: note_on channel=0 note=62 velocity=72 time=0
EXTRACT: note_on channel=0 note=57 velocity=72 time=0
EXTRACT: note_on channel=0 note=54 velocity=72 time=0
EXTRACT: note_on channel=0 note=47 velocity=72 time=0
EXTRACT: note_on channel=4 note=35 velocity=80 time=0
EXTRACT: note_off channel=2 note=78 velocity=64 time=0
EXTRACT: note_off channel=2 note=74 velocity=64 time=0
EXTRACT: note_off channel=2 note=69 velocity=64 time=0
EXTRACT: note_on channel=2 note=78 velocity=80 time=0
EXTRACT: note_on channel=2 note=74 velocity=80 time=0
EXTRACT: note_on channel=2 note=69 velocity=80 time=0
EXTRACT: note_off channel=0 note=66 velocity=64 time=0.14285699999999998
EXTRACT: note_off channel=0 note=62 velocity=64 time=0
EXTRACT: note_off channel=0 note=57 velocity=64 time=0
EXTRACT: note_off channel=0 note=54 velocity=64 time=0
EXTRACT: note_off channel=0 note=47 velocity=64 time=0
EXTRACT: note_on channel=0 note=66 velocity=72 time=0
EXTRACT: note_on channel=0 note=62 velocity=72 time=0
EXTRACT: note_on channel=0 note=57 velocity=72 time=0
EXTRACT: note_off channel=6 note=52 velocity=64 time=0
EXTRACT: note_on channel=6 note=62 velocity=80 time=0
EXTRACT: note_off channel=4 note=35 velocity=64 time=0
EXTRACT: note_off channel=2 note=78 velocity=64 time=0
EXTRACT: note_off channel=2 note=74 velocity=64 time=0
EXTRACT: note_off channel=2 note=69 velocity=64 time=0
EXTRACT: note_off channel=8 note=71 velocity=64 time=0
EXTRACT: note_on channel=8 note=73 velocity=72 time=0
EXTRACT: note_off channel=9 note=82 velocity=64 time=0
EXTRACT: note_off channel=9 note=42 velocity=64 time=0
EXTRACT: note_on channel=9 note=42 velocity=80 time=0
EXTRACT: note_on channel=9 note=57 velocity=80 time=0
EXTRACT: note_on channel=9 note=38 velocity=80 time=0
EXTRACT: note_off channel=0 note=66 velocity=64 time=0.14285699999999998
EXTRACT: note_off channel=0 note=62 velocity=64 time=0
EXTRACT: note_off channel=0 note=57 velocity=64 time=0
EXTRACT: note_on channel=0 note=66 velocity=72 time=0
EXTRACT: note_on channel=0 note=62 velocity=72 time=0
EXTRACT: note_on channel=0 note=57 velocity=72 time=0
EXTRACT: note_off channel=0 note=66 velocity=64 time=0.14285699999999998
EXTRACT: note_off channel=0 note=62 velocity=64 time=0
EXTRACT: note_off channel=0 note=57 velocity=64 time=0
EXTRACT: note_on channel=0 note=66 velocity=72 time=0
EXTRACT: note_on channel=0 note=61 velocity=72 time=0
EXTRACT: note_on channel=0 note=57 velocity=72 time=0
EXTRACT: note_on channel=0 note=52 velocity=72 time=0
EXTRACT: note_on channel=0 note=49 velocity=72 time=0
EXTRACT: note_on channel=4 note=30 velocity=80 time=0
EXTRACT: note_on channel=2 note=81 velocity=80 time=0
EXTRACT: note_on channel=2 note=76 velocity=80 time=0
EXTRACT: note_on channel=2 note=73 velocity=80 time=0
EXTRACT: note_on channel=2 note=69 velocity=80 time=0
EXTRACT: note_off channel=8 note=73 velocity=64 time=0
EXTRACT: note_on channel=8 note=71 velocity=72 time=0
EXTRACT: note_off channel=9 note=42 velocity=64 time=0
EXTRACT: note_off channel=9 note=57 velocity=64 time=0
EXTRACT: note_off channel=9 note=38 velocity=64 time=0
EXTRACT: note_on channel=9 note=42 velocity=80 time=0
EXTRACT: note_on channel=9 note=35 velocity=80 time=0
EXTRACT: note_off channel=8 note=71 velocity=64 time=0.14285699999999998
EXTRACT: note_on channel=8 note=73 velocity=72 time=0
EXTRACT: note_off channel=0 note=66 velocity=64 time=0.14285699999999998
EXTRACT: note_off channel=0 note=61 velocity=64 time=0
EXTRACT: note_off channel=0 note=57 velocity=64 time=0
EXTRACT: note_off channel=0 note=52 velocity=64 time=0
EXTRACT: note_off channel=0 note=49 velocity=64 time=0
EXTRACT: note_off channel=6 note=62 velocity=64 time=0
EXTRACT: note_on channel=6 note=64 velocity=80 time=0
EXTRACT: note_off channel=4 note=30 velocity=64 time=0
EXTRACT: note_off channel=2 note=81 velocity=64 time=0
EXTRACT: note_off channel=2 note=76 velocity=64 time=0
EXTRACT: note_off channel=2 note=73 velocity=64 time=0
EXTRACT: note_off channel=2 note=69 velocity=64 time=0
EXTRACT: note_off channel=8 note=73 velocity=64 time=0
EXTRACT: note_on channel=9 note=82 velocity=64 time=0
EXTRACT: note_off channel=9 note=42 velocity=64 time=0
EXTRACT: note_off channel=9 note=35 velocity=64 time=0
EXTRACT: note_on channel=9 note=42 velocity=80 time=0
EXTRACT: note_on channel=9 note=57 velocity=80 time=0
EXTRACT: note_on channel=0 note=66 velocity=72 time=0.14285699999999998
EXTRACT: note_on channel=0 note=61 velocity=72 time=0
EXTRACT: note_on channel=0 note=57 velocity=72 time=0
EXTRACT: note_on channel=8 note=71 velocity=72 time=0
EXTRACT: note_off channel=9 note=82 velocity=64 time=0
EXTRACT: note_on channel=9 note=82 velocity=64 time=0
EXTRACT: note_off channel=9 note=42 velocity=64 time=0
EXTRACT: note_off channel=9 note=57 velocity=64 time=0
EXTRACT: note_on channel=9 note=38 velocity=80 time=0
EXTRACT: note_off channel=0 note=66 velocity=64 time=0.14285699999999998
EXTRACT: note_off channel=0 note=61 velocity=64 time=0
EXTRACT: note_off channel=0 note=57 velocity=64 time=0
EXTRACT: note_on channel=0 note=61 velocity=72 time=0
EXTRACT: note_on channel=0 note=57 velocity=72 time=0
EXTRACT: note_on channel=0 note=52 velocity=72 time=0
EXTRACT: note_on channel=0 note=49 velocity=72 time=0
EXTRACT: note_off channel=8 note=71 velocity=64 time=0
EXTRACT: note_on channel=8 note=73 velocity=72 time=0
EXTRACT: note_off channel=9 note=82 velocity=64 time=0
EXTRACT: note_on channel=9 note=82 velocity=64 time=0
EXTRACT: note_off channel=9 note=38 velocity=64 time=0
EXTRACT: note_on channel=9 note=42 velocity=80 time=0
EXTRACT: note_off channel=0 note=61 velocity=64 time=0.28571399999999997
EXTRACT: note_off channel=0 note=57 velocity=64 time=0
EXTRACT: note_off channel=0 note=52 velocity=64 time=0
EXTRACT: note_off channel=0 note=49 velocity=64 time=0
EXTRACT: note_on channel=0 note=66 velocity=72 time=0
EXTRACT: note_on channel=0 note=61 velocity=72 time=0
EXTRACT: note_on channel=0 note=57 velocity=72 time=0
EXTRACT: note_on channel=0 note=52 velocity=72 time=0
EXTRACT: note_on channel=0 note=49 velocity=72 time=0
EXTRACT: note_off channel=6 note=64 velocity=64 time=0
EXTRACT: note_on channel=6 note=57 velocity=80 time=0
EXTRACT: note_on channel=4 note=42 velocity=80 time=0
EXTRACT: note_on channel=2 note=81 velocity=80 time=0
EXTRACT: note_on channel=2 note=76 velocity=80 time=0
EXTRACT: note_on channel=2 note=73 velocity=80 time=0
EXTRACT: note_on channel=2 note=69 velocity=80 time=0
EXTRACT: note_off channel=8 note=73 velocity=64 time=0
EXTRACT: note_on channel=8 note=71 velocity=72 time=0
EXTRACT: note_off channel=9 note=82 velocity=64 time=0
EXTRACT: note_off channel=9 note=42 velocity=64 time=0
EXTRACT: note_on channel=9 note=42 velocity=80 time=0
EXTRACT: note_on channel=9 note=57 velocity=80 time=0
EXTRACT: note_on channel=9 note=38 velocity=80 time=0
EXTRACT: note_off channel=4 note=42 velocity=64 time=0.14285699999999998
EXTRACT: note_on channel=4 note=40 velocity=80 time=0
EXTRACT: note_off channel=8 note=71 velocity=64 time=0
EXTRACT: note_on channel=8 note=73 velocity=72 time=0
EXTRACT: note_off channel=0 note=66 velocity=64 time=0.14285699999999998
EXTRACT: note_off channel=0 note=61 velocity=64 time=0
EXTRACT: note_off channel=0 note=57 velocity=64 time=0
EXTRACT: note_off channel=0 note=52 velocity=64 time=0
EXTRACT: note_off channel=0 note=49 velocity=64 time=0
EXTRACT: note_on channel=0 note=66 velocity=72 time=0
EXTRACT: note_on channel=0 note=61 velocity=72 time=0
EXTRACT: note_on channel=0 note=57 velocity=72 time=0
EXTRACT: note_off channel=4 note=40 velocity=64 time=0
EXTRACT: note_on channel=4 note=37 velocity=80 time=0
EXTRACT: note_off channel=9 note=42 velocity=64 time=0
EXTRACT: note_off channel=9 note=57 velocity=64 time=0
EXTRACT: note_off channel=9 note=38 velocity=64 time=0
EXTRACT: note_on channel=9 note=42 velocity=80 time=0
EXTRACT: note_off channel=0 note=66 velocity=64 time=0.14285699999999998
EXTRACT: note_off channel=0 note=61 velocity=64 time=0
EXTRACT: note_off channel=0 note=57 velocity=64 time=0
EXTRACT: note_on channel=0 note=66 velocity=72 time=0
EXTRACT: note_on channel=0 note=61 velocity=72 time=0
EXTRACT: note_on channel=0 note=57 velocity=72 time=0
EXTRACT: note_off channel=4 note=37 velocity=64 time=0
EXTRACT: note_on channel=4 note=33 velocity=80 time=0
EXTRACT: note_off channel=8 note=73 velocity=64 time=0
EXTRACT: note_on channel=8 note=71 velocity=72 time=0
EXTRACT: note_off channel=0 note=66 velocity=64 time=0.14285699999999998
EXTRACT: note_off channel=0 note=61 velocity=64 time=0
EXTRACT: note_off channel=0 note=57 velocity=64 time=0
EXTRACT: note_on channel=0 note=66 velocity=72 time=0
EXTRACT: note_on channel=0 note=62 velocity=72 time=0
EXTRACT: note_on channel=0 note=57 velocity=72 time=0
EXTRACT: note_on channel=0 note=54 velocity=72 time=0
EXTRACT: note_on channel=0 note=47 velocity=72 time=0
EXTRACT: note_off channel=6 note=57 velocity=64 time=0
EXTRACT: note_on channel=6 note=66 velocity=80 time=0
EXTRACT: note_off channel=4 note=33 velocity=64 time=0
EXTRACT: note_on channel=4 note=35 velocity=80 time=0
EXTRACT: note_off channel=2 note=81 velocity=64 time=0
EXTRACT: note_off channel=2 note=76 velocity=64 time=0
EXTRACT: note_off channel=2 note=73 velocity=64 time=0
EXTRACT: note_off channel=2 note=69 velocity=64 time=0
EXTRACT: note_on channel=2 note=78 velocity=80 time=0
EXTRACT: note_on channel=2 note=74 velocity=80 time=0
EXTRACT: note_on channel=2 note=69 velocity=80 time=0
EXTRACT: note_off channel=8 note=71 velocity=64 time=0
EXTRACT: note_on channel=8 note=73 velocity=72 time=0
EXTRACT: note_on channel=9 note=82 velocity=64 time=0
EXTRACT: note_off channel=9 note=42 velocity=64 time=0
EXTRACT: note_on channel=9 note=42 velocity=80 time=0
EXTRACT: note_on channel=9 note=57 velocity=80 time=0
EXTRACT: note_on channel=9 note=35 velocity=80 time=0
EXTRACT: note_off channel=9 note=82 velocity=64 time=0.14285699999999998
EXTRACT: note_on channel=9 note=82 velocity=64 time=0
EXTRACT: note_off channel=4 note=35 velocity=64 time=0.14285699999999998
EXTRACT: note_off channel=8 note=73 velocity=64 time=0
EXTRACT: note_on channel=8 note=71 velocity=72 time=0
EXTRACT: note_off channel=9 note=82 velocity=64 time=0
EXTRACT: note_on channel=9 note=82 velocity=64 time=0
EXTRACT: note_off channel=9 note=42 velocity=64 time=0
EXTRACT: note_off channel=9 note=57 velocity=64 time=0
EXTRACT: note_off channel=9 note=35 velocity=64 time=0
EXTRACT: note_on channel=9 note=42 velocity=80 time=0
EXTRACT: note_off channel=0 note=66 velocity=64 time=0.14285699999999998
EXTRACT: note_off channel=0 note=62 velocity=64 time=0
EXTRACT: note_off channel=0 note=57 velocity=64 time=0
EXTRACT: note_off channel=0 note=54 velocity=64 time=0
EXTRACT: note_off channel=0 note=47 velocity=64 time=0
EXTRACT: note_on channel=0 note=66 velocity=72 time=0
EXTRACT: note_on channel=0 note=62 velocity=72 time=0
EXTRACT: note_on channel=0 note=57 velocity=72 time=0
EXTRACT: note_on channel=0 note=54 velocity=72 time=0
EXTRACT: note_on channel=0 note=47 velocity=72 time=0
EXTRACT: note_on channel=4 note=35 velocity=80 time=0
EXTRACT: note_off channel=2 note=78 velocity=64 time=0
EXTRACT: note_off channel=2 note=74 velocity=64 time=0
EXTRACT: note_off channel=2 note=69 velocity=64 time=0
EXTRACT: note_on channel=2 note=78 velocity=80 time=0
EXTRACT: note_on channel=2 note=74 velocity=80 time=0
EXTRACT: note_on channel=2 note=69 velocity=80 time=0
EXTRACT: note_off channel=0 note=66 velocity=64 time=0.14285699999999998
EXTRACT: note_off channel=0 note=62 velocity=64 time=0
EXTRACT: note_off channel=0 note=57 velocity=64 time=0
EXTRACT: note_off channel=0 note=54 velocity=64 time=0
EXTRACT: note_off channel=0 note=47 velocity=64 time=0
EXTRACT: note_on channel=0 note=66 velocity=72 time=0
EXTRACT: note_on channel=0 note=62 velocity=72 time=0
EXTRACT: note_on channel=0 note=57 velocity=72 time=0
EXTRACT: note_off channel=6 note=66 velocity=64 time=0
EXTRACT: note_on channel=6 note=66 velocity=80 time=0
EXTRACT: note_off channel=4 note=35 velocity=64 time=0
EXTRACT: note_off channel=2 note=78 velocity=64 time=0
EXTRACT: note_off channel=2 note=74 velocity=64 time=0
EXTRACT: note_off channel=2 note=69 velocity=64 time=0
EXTRACT: note_off channel=8 note=71 velocity=64 time=0
EXTRACT: note_on channel=8 note=74 velocity=80 time=0
EXTRACT: note_off channel=9 note=82 velocity=64 time=0
EXTRACT: note_off channel=9 note=42 velocity=64 time=0
EXTRACT: note_on channel=9 note=42 velocity=80 time=0
EXTRACT: note_on channel=9 note=57 velocity=80 time=0
EXTRACT: note_on channel=9 note=38 velocity=80 time=0
EXTRACT: note_off channel=0 note=66 velocity=64 time=0.14285699999999998
EXTRACT: note_off channel=0 note=62 velocity=64 time=0
EXTRACT: note_off channel=0 note=57 velocity=64 time=0
EXTRACT: note_on channel=0 note=66 velocity=72 time=0
EXTRACT: note_on channel=0 note=62 velocity=72 time=0
EXTRACT: note_on channel=0 note=57 velocity=72 time=0
EXTRACT: note_off channel=0 note=66 velocity=64 time=0.14285699999999998
EXTRACT: note_off channel=0 note=62 velocity=64 time=0
EXTRACT: note_off channel=0 note=57 velocity=64 time=0
EXTRACT: note_on channel=0 note=66 velocity=72 time=0
EXTRACT: note_on channel=0 note=61 velocity=72 time=0
EXTRACT: note_on channel=0 note=57 velocity=72 time=0
EXTRACT: note_on channel=0 note=52 velocity=72 time=0
EXTRACT: note_on channel=0 note=49 velocity=72 time=0
EXTRACT: note_on channel=4 note=30 velocity=80 time=0
EXTRACT: note_on channel=2 note=81 velocity=80 time=0
EXTRACT: note_on channel=2 note=76 velocity=80 time=0
EXTRACT: note_on channel=2 note=73 velocity=80 time=0
EXTRACT: note_on channel=2 note=69 velocity=80 time=0
EXTRACT: note_off channel=8 note=74 velocity=64 time=0
EXTRACT: note_on channel=8 note=73 velocity=80 time=0
EXTRACT: note_off channel=9 note=42 velocity=64 time=0
EXTRACT: note_off channel=9 note=57 velocity=64 time=0
EXTRACT: note_off channel=9 note=38 velocity=64 time=0
EXTRACT: note_on channel=9 note=42 velocity=80 time=0
EXTRACT: note_on channel=9 note=35 velocity=80 time=0
EXTRACT: note_off channel=0 note=66 velocity=64 time=0.28571399999999997
EXTRACT: note_off channel=0 note=61 velocity=64 time=0
EXTRACT: note_off channel=0 note=57 velocity=64 time=0
EXTRACT: note_off channel=0 note=52 velocity=64 time=0
EXTRACT: note_off channel=0 note=49 velocity=64 time=0
EXTRACT: note_off channel=6 note=66 velocity=64 time=0
EXTRACT: note_on channel=6 note=64 velocity=80 time=0
EXTRACT: note_off channel=4 note=30 velocity=64 time=0
EXTRACT: note_off channel=2 note=81 velocity=64 time=0
EXTRACT: note_off channel=2 note=76 velocity=64 time=0
EXTRACT: note_off channel=2 note=73 velocity=64 time=0
EXTRACT: note_off channel=2 note=69 velocity=64 time=0
EXTRACT: note_off channel=8 note=73 velocity=64 time=0
EXTRACT: note_on channel=9 note=82 velocity=64 time=0
EXTRACT: note_off channel=9 note=42 velocity=64 time=0
EXTRACT: note_off channel=9 note=35 velocity=64 time=0
EXTRACT: note_on channel=9 note=42 velocity=80 time=0
EXTRACT: note_on channel=9 note=57 velocity=80 time=0
EXTRACT: note_on channel=0 note=66 velocity=72 time=0.14285699999999998
EXTRACT: note_on channel=0 note=61 velocity=72 time=0
EXTRACT: note_on channel=0 note=57 velocity=72 time=0
EXTRACT: note_off channel=9 note=82 velocity=64 time=0
EXTRACT: note_on channel=9 note=82 velocity=64 time=0
EXTRACT: note_off channel=9 note=42 velocity=64 time=0
EXTRACT: note_off channel=9 note=57 velocity=64 time=0
EXTRACT: note_on channel=9 note=38 velocity=80 time=0
EXTRACT: note_off channel=0 note=66 velocity=64 time=0.14285699999999998
EXTRACT: note_off channel=0 note=61 velocity=64 time=0
EXTRACT: note_off channel=0 note=57 velocity=64 time=0
EXTRACT: note_on channel=0 note=61 velocity=72 time=0
EXTRACT: note_on channel=0 note=57 velocity=72 time=0
EXTRACT: note_on channel=0 note=52 velocity=72 time=0
EXTRACT: note_on channel=0 note=49 velocity=72 time=0
EXTRACT: note_on channel=8 note=71 velocity=80 time=0
EXTRACT: note_off channel=9 note=82 velocity=64 time=0
EXTRACT: note_on channel=9 note=82 velocity=64 time=0
EXTRACT: note_off channel=9 note=38 velocity=64 time=0
EXTRACT: note_on channel=9 note=42 velocity=80 time=0
EXTRACT: note_off channel=0 note=61 velocity=64 time=0.28571399999999997
EXTRACT: note_off channel=0 note=57 velocity=64 time=0
EXTRACT: note_off channel=0 note=52 velocity=64 time=0
EXTRACT: note_off channel=0 note=49 velocity=64 time=0
EXTRACT: note_on channel=0 note=66 velocity=72 time=0
EXTRACT: note_on channel=0 note=61 velocity=72 time=0
EXTRACT: note_on channel=0 note=57 velocity=72 time=0
EXTRACT: note_on channel=0 note=52 velocity=72 time=0
EXTRACT: note_on channel=0 note=49 velocity=72 time=0
EXTRACT: note_off channel=6 note=64 velocity=64 time=0
EXTRACT: note_on channel=6 note=62 velocity=80 time=0
EXTRACT: note_on channel=2 note=81 velocity=80 time=0
EXTRACT: note_on channel=2 note=76 velocity=80 time=0
EXTRACT: note_on channel=2 note=73 velocity=80 time=0
EXTRACT: note_on channel=2 note=69 velocity=80 time=0
EXTRACT: note_off channel=8 note=71 velocity=64 time=0
EXTRACT: note_on channel=8 note=73 velocity=80 time=0
EXTRACT: note_off channel=9 note=82 velocity=64 time=0
EXTRACT: note_off channel=9 note=42 velocity=64 time=0
EXTRACT: note_on channel=9 note=42 velocity=80 time=0
EXTRACT: note_on channel=9 note=57 velocity=80 time=0
EXTRACT: note_on channel=9 note=38 velocity=80 time=0
EXTRACT: note_off channel=0 note=66 velocity=64 time=0.28571399999999997
EXTRACT: note_off channel=0 note=61 velocity=64 time=0
EXTRACT: note_off channel=0 note=57 velocity=64 time=0
EXTRACT: note_off channel=0 note=52 velocity=64 time=0
EXTRACT: note_off channel=0 note=49 velocity=64 time=0
EXTRACT: note_on channel=0 note=66 velocity=72 time=0
EXTRACT: note_on channel=0 note=61 velocity=72 time=0
EXTRACT: note_on channel=0 note=57 velocity=72 time=0
EXTRACT: note_off channel=6 note=62 velocity=64 time=0
EXTRACT: note_on channel=6 note=59 velocity=80 time=0
EXTRACT: note_off channel=2 note=81 velocity=64 time=0
EXTRACT: note_off channel=2 note=76 velocity=64 time=0
EXTRACT: note_off channel=2 note=73 velocity=64 time=0
EXTRACT: note_off channel=2 note=69 velocity=64 time=0
EXTRACT: note_on channel=2 note=81 velocity=80 time=0
EXTRACT: note_on channel=2 note=76 velocity=80 time=0
EXTRACT: note_on channel=2 note=73 velocity=80 time=0
EXTRACT: note_on channel=2 note=69 velocity=80 time=0
EXTRACT: note_off channel=8 note=73 velocity=64 time=0
EXTRACT: note_on channel=8 note=71 velocity=80 time=0
EXTRACT: note_off channel=9 note=42 velocity=64 time=0
EXTRACT: note_off channel=9 note=57 velocity=64 time=0
EXTRACT: note_off channel=9 note=38 velocity=64 time=0
EXTRACT: note_on channel=9 note=42 velocity=80 time=0
EXTRACT: note_off channel=0 note=66 velocity=64 time=0.14285699999999998
EXTRACT: note_off channel=0 note=61 velocity=64 time=0
EXTRACT: note_off channel=0 note=57 velocity=64 time=0
EXTRACT: note_on channel=0 note=66 velocity=72 time=0
EXTRACT: note_on channel=0 note=61 velocity=72 time=0
EXTRACT: note_on channel=0 note=57 velocity=72 time=0
EXTRACT: note_on channel=4 note=30 velocity=80 time=0
EXTRACT: note_off channel=0 note=66 velocity=64 time=0.14285699999999998
EXTRACT: note_off channel=0 note=61 velocity=64 time=0
EXTRACT: note_off channel=0 note=57 velocity=64 time=0
EXTRACT: note_on channel=0 note=60 velocity=72 time=0
EXTRACT: note_on channel=0 note=57 velocity=72 time=0
EXTRACT: note_on channel=0 note=52 velocity=72 time=0
EXTRACT: note_on channel=0 note=41 velocity=72 time=0
EXTRACT: note_off channel=6 note=59 velocity=64 time=0
EXTRACT: note_off channel=4 note=30 velocity=64 time=0
EXTRACT: note_on channel=4 note=29 velocity=80 time=0
EXTRACT: note_off channel=2 note=81 velocity=64 time=0
EXTRACT: note_off channel=2 note=76 velocity=64 time=0
EXTRACT: note_off channel=2 note=73 velocity=64 time=0
EXTRACT: note_off channel=2 note=69 velocity=64 time=0
EXTRACT: note_on channel=2 note=76 velocity=80 time=0
EXTRACT: note_on channel=2 note=72 velocity=80 time=0
EXTRACT: note_on channel=2 note=69 velocity=80 time=0
EXTRACT: note_on channel=2 note=67 velocity=80 time=0
EXTRACT: note_off channel=8 note=71 velocity=64 time=0
EXTRACT: note_on channel=8 note=69 velocity=80 time=0
EXTRACT: note_on channel=9 note=82 velocity=64 time=0
EXTRACT: note_off channel=9 note=42 velocity=64 time=0
EXTRACT: note_on channel=9 note=42 velocity=80 time=0
EXTRACT: note_on channel=9 note=57 velocity=80 time=0
EXTRACT: note_on channel=9 note=35 velocity=80 time=0
EXTRACT: note_off channel=9 note=82 velocity=64 time=0.14285699999999998
EXTRACT: note_on channel=9 note=82 velocity=64 time=0
EXTRACT: note_off channel=9 note=82 velocity=64 time=0.14285699999999998
EXTRACT: note_on channel=9 note=82 velocity=64 time=0
EXTRACT: note_off channel=9 note=42 velocity=64 time=0
EXTRACT: note_off channel=9 note=57 velocity=64 time=0
EXTRACT: note_off channel=9 note=35 velocity=64 time=0
EXTRACT: note_on channel=9 note=42 velocity=80 time=0
EXTRACT: note_off channel=0 note=60 velocity=64 time=0.14285699999999998
EXTRACT: note_off channel=0 note=57 velocity=64 time=0
EXTRACT: note_off channel=0 note=52 velocity=64 time=0
EXTRACT: note_off channel=0 note=41 velocity=64 time=0
EXTRACT: note_on channel=0 note=60 velocity=72 time=0
EXTRACT: note_on channel=0 note=57 velocity=72 time=0
EXTRACT: note_on channel=0 note=52 velocity=72 time=0
EXTRACT: note_on channel=0 note=41 velocity=72 time=0
EXTRACT: note_off channel=4 note=29 velocity=64 time=0
EXTRACT: note_on channel=4 note=36 velocity=80 time=0
EXTRACT: note_off channel=2 note=76 velocity=64 time=0
EXTRACT: note_off channel=2 note=72 velocity=64 time=0
EXTRACT: note_off channel=2 note=69 velocity=64 time=0
EXTRACT: note_off channel=2 note=67 velocity=64 time=0
EXTRACT: note_on channel=2 note=76 velocity=80 time=0
EXTRACT: note_on channel=2 note=72 velocity=80 time=0
EXTRACT: note_on channel=2 note=69 velocity=80 time=0
EXTRACT: note_on channel=2 note=67 velocity=80 time=0
EXTRACT: note_off channel=0 note=60 velocity=64 time=0.14285699999999998
EXTRACT: note_off channel=0 note=57 velocity=64 time=0
EXTRACT: note_off channel=0 note=52 velocity=64 time=0
EXTRACT: note_off channel=0 note=41 velocity=64 time=0
EXTRACT: note_on channel=0 note=60 velocity=72 time=0
EXTRACT: note_on channel=0 note=57 velocity=72 time=0
EXTRACT: note_on channel=0 note=52 velocity=72 time=0
EXTRACT: note_off channel=4 note=36 velocity=64 time=0
EXTRACT: note_off channel=2 note=76 velocity=64 time=0
EXTRACT: note_off channel=2 note=72 velocity=64 time=0
EXTRACT: note_off channel=2 note=69 velocity=64 time=0
EXTRACT: note_off channel=2 note=67 velocity=64 time=0
EXTRACT: note_off channel=9 note=82 velocity=64 time=0
EXTRACT: note_off channel=9 note=42 velocity=64 time=0
EXTRACT: note_on channel=9 note=42 velocity=80 time=0
EXTRACT: note_on channel=9 note=57 velocity=80 time=0
EXTRACT: note_on channel=9 note=38 velocity=80 time=0
EXTRACT: note_off channel=0 note=60 velocity=64 time=0.14285699999999998
EXTRACT: note_off channel=0 note=57 velocity=64 time=0
EXTRACT: note_off channel=0 note=52 velocity=64 time=0
EXTRACT: note_on channel=0 note=60 velocity=72 time=0
EXTRACT: note_on channel=0 note=57 velocity=72 time=0
EXTRACT: note_on channel=0 note=52 velocity=72 time=0
EXTRACT: note_on channel=4 note=29 velocity=80 time=0
EXTRACT: note_off channel=0 note=60 velocity=64 time=0.14285699999999998
EXTRACT: note_off channel=0 note=57 velocity=64 time=0
EXTRACT: note_off channel=0 note=52 velocity=64 time=0
EXTRACT: note_on channel=0 note=62 velocity=72 time=0
EXTRACT: note_on channel=0 note=59 velocity=72 time=0
EXTRACT: note_on channel=0 note=54 velocity=72 time=0
EXTRACT: note_on channel=0 note=43 velocity=72 time=0
EXTRACT: note_off channel=4 note=29 velocity=64 time=0
EXTRACT: note_on channel=4 note=31 velocity=80 time=0
EXTRACT: note_on channel=2 note=78 velocity=80 time=0
EXTRACT: note_on channel=2 note=74 velocity=80 time=0
EXTRACT: note_on channel=2 note=71 velocity=80 time=0
EXTRACT: note_on channel=2 note=69 velocity=80 time=0
EXTRACT: note_off channel=8 note=69 velocity=64 time=0
EXTRACT: note_on channel=8 note=67 velocity=80 time=0
EXTRACT: note_off channel=9 note=42 velocity=64 time=0
EXTRACT: note_off channel=9 note=57 velocity=64 time=0
EXTRACT: note_off channel=9 note=38 velocity=64 time=0
EXTRACT: note_on channel=9 note=42 velocity=80 time=0
EXTRACT: note_on channel=9 note=35 velocity=80 time=0
EXTRACT: note_off channel=0 note=62 velocity=64 time=0.28571399999999997
EXTRACT: note_off channel=0 note=59 velocity=64 time=0
EXTRACT: note_off channel=0 note=54 velocity=64 time=0
EXTRACT: note_off channel=0 note=43 velocity=64 time=0
EXTRACT: note_off channel=4 note=31 velocity=64 time=0
EXTRACT: note_off channel=2 note=78 velocity=64 time=0
EXTRACT: note_off channel=2 note=74 velocity=64 time=0
EXTRACT: note_off channel=2 note=71 velocity=64 time=0
EXTRACT: note_off channel=2 note=69 velocity=64 time=0
EXTRACT: note_off channel=8 note=67 velocity=64 time=0
EXTRACT: note_on channel=9 note=82 velocity=64 time=0
EXTRACT: note_off channel=9 note=42 velocity=64 time=0
EXTRACT: note_off channel=9 note=35 velocity=64 time=0
EXTRACT: note_on channel=9 note=42 velocity=80 time=0
EXTRACT: note_on channel=9 note=57 velocity=80 time=0
EXTRACT: note_on channel=0 note=62 velocity=72 time=0.14285699999999998
EXTRACT: note_on channel=0 note=59 velocity=72 time=0
EXTRACT: note_on channel=0 note=54 velocity=72 time=0
EXTRACT: note_off channel=9 note=82 velocity=64 time=0
EXTRACT: note_on channel=9 note=82 velocity=64 time=0
EXTRACT: note_off channel=9 note=42 velocity=64 time=0
EXTRACT: note_off channel=9 note=57 velocity=64 time=0
EXTRACT: note_on channel=9 note=38 velocity=80 time=0
EXTRACT: note_off channel=0 note=62 velocity=64 time=0.14285699999999998
EXTRACT: note_off channel=0 note=59 velocity=64 time=0
EXTRACT: note_off channel=0 note=54 velocity=64 time=0
EXTRACT: note_on channel=0 note=62 velocity=72 time=0
EXTRACT: note_on channel=0 note=59 velocity=72 time=0
EXTRACT: note_on channel=0 note=54 velocity=72 time=0
EXTRACT: note_on channel=0 note=43 velocity=72 time=0
EXTRACT: note_off channel=9 note=82 velocity=64 time=0
EXTRACT: note_on channel=9 note=82 velocity=64 time=0
EXTRACT: note_off channel=9 note=38 velocity=64 time=0
EXTRACT: note_on channel=9 note=42 velocity=80 time=0
EXTRACT: note_on channel=4 note=38 velocity=80 time=0.14285699999999998
EXTRACT: note_off channel=0 note=62 velocity=64 time=0.14285699999999998
EXTRACT: note_off channel=0 note=59 velocity=64 time=0
EXTRACT: note_off channel=0 note=54 velocity=64 time=0
EXTRACT: note_off channel=0 note=43 velocity=64 time=0
EXTRACT: note_on channel=0 note=62 velocity=72 time=0
EXTRACT: note_on channel=0 note=59 velocity=72 time=0
EXTRACT: note_on channel=0 note=54 velocity=72 time=0
EXTRACT: note_on channel=0 note=43 velocity=72 time=0
EXTRACT: note_off channel=4 note=38 velocity=64 time=0
EXTRACT: note_on channel=4 note=43 velocity=80 time=0
EXTRACT: note_on channel=2 note=78 velocity=80 time=0
EXTRACT: note_on channel=2 note=74 velocity=80 time=0
EXTRACT: note_on channel=2 note=71 velocity=80 time=0
EXTRACT: note_on channel=2 note=69 velocity=80 time=0
EXTRACT: note_off channel=9 note=82 velocity=64 time=0
EXTRACT: note_off channel=9 note=42 velocity=64 time=0
EXTRACT: note_on channel=9 note=42 velocity=80 time=0
EXTRACT: note_on channel=9 note=57 velocity=80 time=0
EXTRACT: note_on channel=9 note=38 velocity=80 time=0
EXTRACT: note_off channel=4 note=43 velocity=64 time=0.14285699999999998
EXTRACT: note_on channel=4 note=38 velocity=80 time=0
EXTRACT: note_off channel=0 note=62 velocity=64 time=0.14285699999999998
EXTRACT: note_off channel=0 note=59 velocity=64 time=0
EXTRACT: note_off channel=0 note=54 velocity=64 time=0
EXTRACT: note_off channel=0 note=43 velocity=64 time=0
EXTRACT: note_on channel=0 note=62 velocity=72 time=0
EXTRACT: note_on channel=0 note=59 velocity=72 time=0
EXTRACT: note_on channel=0 note=54 velocity=72 time=0
EXTRACT: note_off channel=4 note=38 velocity=64 time=0
EXTRACT: note_on channel=4 note=31 velocity=80 time=0
EXTRACT: note_on channel=8 note=83 velocity=80 time=0
EXTRACT: note_off channel=9 note=42 velocity=64 time=0
EXTRACT: note_off channel=9 note=57 velocity=64 time=0
EXTRACT: note_off channel=9 note=38 velocity=64 time=0
EXTRACT: note_on channel=9 note=42 velocity=80 time=0
EXTRACT: note_off channel=0 note=62 velocity=64 time=0.14285699999999998
EXTRACT: note_off channel=0 note=59 velocity=64 time=0
EXTRACT: note_off channel=0 note=54 velocity=64 time=0
EXTRACT: note_on channel=0 note=62 velocity=72 time=0
EXTRACT: note_on channel=0 note=59 velocity=72 time=0
EXTRACT: note_on channel=0 note=54 velocity=72 time=0
EXTRACT: note_off channel=4 note=31 velocity=64 time=0
EXTRACT: note_on channel=4 note=32 velocity=80 time=0
EXTRACT: note_off channel=0 note=62 velocity=64 time=0.14285699999999998
EXTRACT: note_off channel=0 note=59 velocity=64 time=0
EXTRACT: note_off channel=0 note=54 velocity=64 time=0
EXTRACT: note_on channel=0 note=64 velocity=72 time=0
EXTRACT: note_on channel=0 note=61 velocity=72 time=0
EXTRACT: note_on channel=0 note=56 velocity=72 time=0
EXTRACT: note_on channel=0 note=45 velocity=72 time=0
EXTRACT: note_off channel=4 note=32 velocity=64 time=0
EXTRACT: note_on channel=4 note=33 velocity=80 time=0
EXTRACT: note_off channel=2 note=78 velocity=64 time=0
EXTRACT: note_off channel=2 note=74 velocity=64 time=0
EXTRACT: note_off channel=2 note=71 velocity=64 time=0
EXTRACT: note_off channel=2 note=69 velocity=64 time=0
EXTRACT: note_on channel=2 note=80 velocity=80 time=0
EXTRACT: note_on channel=2 note=76 velocity=80 time=0
EXTRACT: note_on channel=2 note=73 velocity=80 time=0
EXTRACT: note_on channel=2 note=71 velocity=80 time=0
EXTRACT: note_off channel=8 note=83 velocity=64 time=0
EXTRACT: note_on channel=8 note=85 velocity=80 time=0
EXTRACT: note_on channel=9 note=82 velocity=64 time=0
EXTRACT: note_off channel=9 note=42 velocity=64 time=0
EXTRACT: note_on channel=9 note=42 velocity=80 time=0
EXTRACT: note_on channel=9 note=57 velocity=80 time=0
EXTRACT: note_on channel=9 note=35 velocity=80 time=0
EXTRACT: note_off channel=9 note=82 velocity=64 time=0.14285699999999998
EXTRACT: note_on channel=9 note=82 velocity=64 time=0
EXTRACT: note_off channel=9 note=82 velocity=64 time=0.14285699999999998
EXTRACT: note_on channel=9 note=82 velocity=64 time=0
EXTRACT: note_off channel=9 note=42 velocity=64 time=0
EXTRACT: note_off channel=9 note=57 velocity=64 time=0
EXTRACT: note_off channel=9 note=35 velocity=64 time=0
EXTRACT: note_on channel=9 note=42 velocity=80 time=0
EXTRACT: note_off channel=0 note=64 velocity=64 time=0.14285699999999998
EXTRACT: note_off channel=0 note=61 velocity=64 time=0
EXTRACT: note_off channel=0 note=56 velocity=64 time=0
EXTRACT: note_off channel=0 note=45 velocity=64 time=0
EXTRACT: note_on channel=0 note=64 velocity=72 time=0
EXTRACT: note_on channel=0 note=61 velocity=72 time=0
EXTRACT: note_on channel=0 note=56 velocity=72 time=0
EXTRACT: note_on channel=0 note=45 velocity=72 time=0
EXTRACT: note_off channel=4 note=33 velocity=64 time=0
EXTRACT: note_on channel=4 note=33 velocity=80 time=0
EXTRACT: note_off channel=2 note=80 velocity=64 time=0
EXTRACT: note_off channel=2 note=76 velocity=64 time=0
EXTRACT: note_off channel=2 note=73 velocity=64 time=0
EXTRACT: note_off channel=2 note=71 velocity=64 time=0
EXTRACT: note_on channel=2 note=80 velocity=80 time=0
EXTRACT: note_on channel=2 note=76 velocity=80 time=0
EXTRACT: note_on channel=2 note=73 velocity=80 time=0
EXTRACT: note_on channel=2 note=71 velocity=80 time=0
EXTRACT: note_off channel=0 note=64 velocity=64 time=0.14285699999999998
EXTRACT: note_off channel=0 note=61 velocity=64 time=0
EXTRACT: note_off channel=0 note=56 velocity=64 time=0
EXTRACT: note_off channel=0 note=45 velocity=64 time=0
EXTRACT: note_on channel=0 note=64 velocity=72 time=0
EXTRACT: note_on channel=0 note=61 velocity=72 time=0
EXTRACT: note_on channel=0 note=56 velocity=72 time=0
EXTRACT: note_off channel=4 note=33 velocity=64 time=0
EXTRACT: note_off channel=2 note=80 velocity=64 time=0
EXTRACT: note_off channel=2 note=76 velocity=64 time=0
EXTRACT: note_off channel=2 note=73 velocity=64 time=0
EXTRACT: note_off channel=2 note=71 velocity=64 time=0
EXTRACT: note_off channel=9 note=82 velocity=64 time=0
EXTRACT: note_off channel=9 note=42 velocity=64 time=0
EXTRACT: note_on channel=9 note=42 velocity=80 time=0
EXTRACT: note_on channel=9 note=57 velocity=80 time=0
EXTRACT: note_on channel=9 note=38 velocity=80 time=0
EXTRACT: note_off channel=0 note=64 velocity=64 time=0.14285699999999998
EXTRACT: note_off channel=0 note=61 velocity=64 time=0
EXTRACT: note_off channel=0 note=56 velocity=64 time=0
EXTRACT: note_on channel=0 note=64 velocity=72 time=0
EXTRACT: note_on channel=0 note=61 velocity=72 time=0
EXTRACT: note_on channel=0 note=56 velocity=72 time=0
EXTRACT: note_on channel=4 note=33 velocity=80 time=0
EXTRACT: note_off channel=0 note=64 velocity=64 time=0.14285699999999998
EXTRACT: note_off channel=0 note=61 velocity=64 time=0
EXTRACT: note_off channel=0 note=56 velocity=64 time=0
EXTRACT: note_on channel=0 note=69 velocity=72 time=0
EXTRACT: note_on channel=0 note=64 velocity=72 time=0
EXTRACT: note_on channel=0 note=60 velocity=72 time=0
EXTRACT: note_on channel=0 note=55 velocity=72 time=0
EXTRACT: note_on channel=0 note=50 velocity=72 time=0
EXTRACT: note_off channel=4 note=33 velocity=64 time=0
EXTRACT: note_on channel=4 note=38 velocity=80 time=0
EXTRACT: note_on channel=2 note=76 velocity=80 time=0
EXTRACT: note_on channel=2 note=72 velocity=80 time=0
EXTRACT: note_on channel=2 note=71 velocity=80 time=0
EXTRACT: note_on channel=2 note=67 velocity=80 time=0
EXTRACT: note_off channel=8 note=85 velocity=64 time=0
EXTRACT: note_on channel=8 note=84 velocity=80 time=0
EXTRACT: note_off channel=9 note=42 velocity=64 time=0
EXTRACT: note_off channel=9 note=57 velocity=64 time=0
EXTRACT: note_off channel=9 note=38 velocity=64 time=0
EXTRACT: note_on channel=9 note=42 velocity=80 time=0
EXTRACT: note_on channel=9 note=35 velocity=80 time=0
EXTRACT: note_off channel=9 note=42 velocity=64 time=0.14285699999999998
EXTRACT: note_off channel=9 note=35 velocity=64 time=0
EXTRACT: note_on channel=9 note=38 velocity=80 time=0
EXTRACT: note_off channel=0 note=69 velocity=64 time=0.14285699999999998
EXTRACT: note_off channel=0 note=64 velocity=64 time=0
EXTRACT: note_off channel=0 note=60 velocity=64 time=0
EXTRACT: note_off channel=0 note=55 velocity=64 time=0
EXTRACT: note_off channel=0 note=50 velocity=64 time=0
EXTRACT: note_off channel=4 note=38 velocity=64 time=0
EXTRACT: note_off channel=2 note=76 velocity=64 time=0
EXTRACT: note_off channel=2 note=72 velocity=64 time=0
EXTRACT: note_off channel=2 note=71 velocity=64 time=0
EXTRACT: note_off channel=2 note=67 velocity=64 time=0
EXTRACT: note_off channel=8 note=84 velocity=64 time=0
EXTRACT: note_on channel=9 note=82 velocity=64 time=0
EXTRACT: note_off channel=9 note=38 velocity=64 time=0
EXTRACT: note_on channel=9 note=35 velocity=80 time=0
EXTRACT: note_on channel=0 note=69 velocity=72 time=0.14285699999999998
EXTRACT: note_on channel=0 note=64 velocity=72 time=0
EXTRACT: note_on channel=0 note=60 velocity=72 time=0
EXTRACT: note_off channel=9 note=82 velocity=64 time=0
EXTRACT: note_on channel=9 note=82 velocity=64 time=0
EXTRACT: note_off channel=9 note=35 velocity=64 time=0
EXTRACT: note_on channel=9 note=38 velocity=80 time=0
EXTRACT: note_off channel=9 note=38 velocity=64 time=0.07142849999999999
EXTRACT: note_on channel=9 note=38 velocity=80 time=0
EXTRACT: note_off channel=0 note=69 velocity=64 time=0.07142849999999999
EXTRACT: note_off channel=0 note=64 velocity=64 time=0
EXTRACT: note_off channel=0 note=60 velocity=64 time=0
EXTRACT: note_on channel=0 note=64 velocity=72 time=0
EXTRACT: note_on channel=0 note=60 velocity=72 time=0
EXTRACT: note_on channel=0 note=55 velocity=72 time=0
EXTRACT: note_on channel=0 note=50 velocity=72 time=0
EXTRACT: note_on channel=4 note=33 velocity=80 time=0
EXTRACT: note_off channel=9 note=82 velocity=64 time=0
EXTRACT: note_on channel=9 note=82 velocity=64 time=0
EXTRACT: note_off channel=9 note=38 velocity=64 time=0
EXTRACT: note_on channel=9 note=38 velocity=80 time=0
EXTRACT: note_off channel=9 note=38 velocity=64 time=0.14285699999999998
EXTRACT: note_on channel=9 note=38 velocity=80 time=0
EXTRACT: note_off channel=0 note=64 velocity=64 time=0.14285699999999998
EXTRACT: note_off channel=0 note=60 velocity=64 time=0
EXTRACT: note_off channel=0 note=55 velocity=64 time=0
EXTRACT: note_off channel=0 note=50 velocity=64 time=0
EXTRACT: note_on channel=0 note=69 velocity=72 time=0
EXTRACT: note_on channel=0 note=64 velocity=72 time=0
EXTRACT: note_on channel=0 note=60 velocity=72 time=0
EXTRACT: note_on channel=0 note=55 velocity=72 time=0
EXTRACT: note_on channel=0 note=50 velocity=72 time=0
EXTRACT: note_off channel=4 note=33 velocity=64 time=0
EXTRACT: note_on channel=4 note=38 velocity=80 time=0
EXTRACT: note_on channel=2 note=76 velocity=80 time=0
EXTRACT: note_on channel=2 note=72 velocity=80 time=0
EXTRACT: note_on channel=2 note=71 velocity=80 time=0
EXTRACT: note_on channel=2 note=67 velocity=80 time=0
EXTRACT: note_on channel=8 note=81 velocity=80 time=0
EXTRACT: note_off channel=9 note=82 velocity=64 time=0
EXTRACT: note_off channel=9 note=38 velocity=64 time=0
EXTRACT: note_on channel=9 note=38 velocity=80 time=0
EXTRACT: note_off channel=4 note=38 velocity=64 time=0.14285699999999998
EXTRACT: note_on channel=4 note=33 velocity=80 time=0
EXTRACT: note_off channel=9 note=38 velocity=64 time=0
EXTRACT: note_on channel=9 note=38 velocity=80 time=0
EXTRACT: note_off channel=0 note=69 velocity=64 time=0.14285699999999998
EXTRACT: note_off channel=0 note=64 velocity=64 time=0
EXTRACT: note_off channel=0 note=60 velocity=64 time=0
EXTRACT: note_off channel=0 note=55 velocity=64 time=0
EXTRACT: note_off channel=0 note=50 velocity=64 time=0
EXTRACT: note_on channel=0 note=66 velocity=72 time=0
EXTRACT: note_on channel=0 note=61 velocity=72 time=0
EXTRACT: note_on channel=0 note=57 velocity=72 time=0
EXTRACT: note_off channel=4 note=33 velocity=64 time=0
EXTRACT: note_on channel=4 note=37 velocity=80 time=0
EXTRACT: note_off channel=9 note=38 velocity=64 time=0
EXTRACT: note_on channel=9 note=38 velocity=80 time=0
EXTRACT: note_off channel=0 note=66 velocity=64 time=0.14285699999999998
EXTRACT: note_off channel=0 note=61 velocity=64 time=0
EXTRACT: note_off channel=0 note=57 velocity=64 time=0
EXTRACT: note_on channel=0 note=66 velocity=72 time=0
EXTRACT: note_on channel=0 note=61 velocity=72 time=0
EXTRACT: note_on channel=0 note=57 velocity=72 time=0
EXTRACT: note_off channel=9 note=38 velocity=64 time=0
EXTRACT: note_on channel=9 note=38 velocity=80 time=0
EXTRACT: note_on channel=11 note=66 velocity=80 time=0.14285699999999998
EXTRACT: note_off channel=0 note=66 velocity=64 time=0
EXTRACT: note_off channel=0 note=61 velocity=64 time=0
EXTRACT: note_off channel=0 note=57 velocity=64 time=0
EXTRACT: note_on channel=0 note=66 velocity=72 time=0
<<<<<<< HEAD
EXTRACT: note_on channel=0 note=62 velocity=72 time=0
EXTRACT: note_on channel=0 note=57 velocity=72 time=0
EXTRACT: note_on channel=0 note=54 velocity=72 time=0
EXTRACT: note_on channel=0 note=47 velocity=72 time=0
EXTRACT: note_off channel=4 note=37 velocity=64 time=0
EXTRACT: note_on channel=4 note=35 velocity=80 time=0
EXTRACT: note_off channel=2 note=76 velocity=64 time=0
EXTRACT: note_off channel=2 note=72 velocity=64 time=0
EXTRACT: note_off channel=2 note=71 velocity=64 time=0
EXTRACT: note_off channel=2 note=67 velocity=64 time=0
EXTRACT: note_on channel=2 note=69 velocity=80 time=0
EXTRACT: note_on channel=2 note=66 velocity=80 time=0
EXTRACT: note_on channel=2 note=62 velocity=80 time=0
EXTRACT: note_on channel=2 note=57 velocity=80 time=0
EXTRACT: note_off channel=8 note=81 velocity=64 time=0
EXTRACT: note_on channel=8 note=93 velocity=80 time=0
EXTRACT: note_off channel=9 note=38 velocity=64 time=0
EXTRACT: note_on channel=9 note=49 velocity=80 time=0
EXTRACT: note_on channel=9 note=35 velocity=80 time=0
EXTRACT: note_off channel=0 note=66 velocity=64 time=0.4285709999999999
EXTRACT: note_off channel=0 note=62 velocity=64 time=0
EXTRACT: note_off channel=0 note=57 velocity=64 time=0
EXTRACT: note_off channel=0 note=54 velocity=64 time=0
EXTRACT: note_off channel=0 note=47 velocity=64 time=0
EXTRACT: note_on channel=0 note=66 velocity=72 time=0
EXTRACT: note_on channel=0 note=62 velocity=72 time=0
EXTRACT: note_on channel=0 note=57 velocity=72 time=0
EXTRACT: note_on channel=0 note=54 velocity=72 time=0
EXTRACT: note_on channel=0 note=47 velocity=72 time=0
EXTRACT: note_off channel=11 note=66 velocity=64 time=0.14285699999999998
EXTRACT: note_on channel=11 note=61 velocity=80 time=0
EXTRACT: note_off channel=0 note=66 velocity=64 time=0
EXTRACT: note_off channel=0 note=62 velocity=64 time=0
EXTRACT: note_off channel=0 note=57 velocity=64 time=0
EXTRACT: note_off channel=0 note=54 velocity=64 time=0
EXTRACT: note_off channel=0 note=47 velocity=64 time=0
EXTRACT: note_on channel=0 note=66 velocity=72 time=0
EXTRACT: note_on channel=0 note=62 velocity=72 time=0
EXTRACT: note_on channel=0 note=57 velocity=72 time=0
EXTRACT: note_off channel=9 note=49 velocity=64 time=0
EXTRACT: note_off channel=9 note=35 velocity=64 time=0
EXTRACT: note_off channel=0 note=66 velocity=64 time=0.14285699999999998
EXTRACT: note_off channel=0 note=62 velocity=64 time=0
EXTRACT: note_off channel=0 note=57 velocity=64 time=0
EXTRACT: note_on channel=0 note=66 velocity=72 time=0
EXTRACT: note_on channel=0 note=62 velocity=72 time=0
EXTRACT: note_on channel=0 note=57 velocity=72 time=0
EXTRACT: note_off channel=0 note=66 velocity=64 time=0.14285699999999998
EXTRACT: note_off channel=0 note=62 velocity=64 time=0
EXTRACT: note_off channel=0 note=57 velocity=64 time=0
EXTRACT: note_on channel=0 note=66 velocity=72 time=0
EXTRACT: note_on channel=0 note=61 velocity=72 time=0
EXTRACT: note_on channel=0 note=57 velocity=72 time=0
EXTRACT: note_on channel=0 note=52 velocity=72 time=0
EXTRACT: note_on channel=0 note=49 velocity=72 time=0
EXTRACT: note_off channel=4 note=35 velocity=64 time=0
EXTRACT: note_on channel=4 note=30 velocity=80 time=0
EXTRACT: note_off channel=2 note=69 velocity=64 time=0
EXTRACT: note_off channel=2 note=66 velocity=64 time=0
EXTRACT: note_off channel=2 note=62 velocity=64 time=0
EXTRACT: note_off channel=2 note=57 velocity=64 time=0
EXTRACT: note_on channel=2 note=69 velocity=80 time=0
EXTRACT: note_on channel=2 note=64 velocity=80 time=0
EXTRACT: note_on channel=2 note=61 velocity=80 time=0
EXTRACT: note_on channel=2 note=57 velocity=80 time=0
EXTRACT: note_off channel=0 note=66 velocity=64 time=0.28571399999999997
EXTRACT: note_off channel=0 note=61 velocity=64 time=0
EXTRACT: note_off channel=0 note=57 velocity=64 time=0
EXTRACT: note_off channel=0 note=52 velocity=64 time=0
EXTRACT: note_off channel=0 note=49 velocity=64 time=0
EXTRACT: note_off channel=4 note=30 velocity=64 time=0
EXTRACT: note_off channel=2 note=69 velocity=64 time=0
EXTRACT: note_off channel=2 note=64 velocity=64 time=0
EXTRACT: note_off channel=2 note=61 velocity=64 time=0
EXTRACT: note_off channel=2 note=57 velocity=64 time=0
EXTRACT: note_on channel=0 note=66 velocity=72 time=0.14285699999999998
EXTRACT: note_on channel=0 note=61 velocity=72 time=0
EXTRACT: note_on channel=0 note=57 velocity=72 time=0
EXTRACT: note_off channel=0 note=66 velocity=64 time=0.14285699999999998
EXTRACT: note_off channel=0 note=61 velocity=64 time=0
EXTRACT: note_off channel=0 note=57 velocity=64 time=0
EXTRACT: note_on channel=0 note=61 velocity=72 time=0
EXTRACT: note_on channel=0 note=57 velocity=72 time=0
EXTRACT: note_on channel=0 note=52 velocity=72 time=0
EXTRACT: note_on channel=0 note=49 velocity=72 time=0
EXTRACT: note_off channel=11 note=61 velocity=64 time=0.28571399999999997
EXTRACT: note_off channel=0 note=61 velocity=64 time=0
EXTRACT: note_off channel=0 note=57 velocity=64 time=0
EXTRACT: note_off channel=0 note=52 velocity=64 time=0
EXTRACT: note_off channel=0 note=49 velocity=64 time=0
EXTRACT: note_on channel=0 note=66 velocity=72 time=0
EXTRACT: note_on channel=0 note=61 velocity=72 time=0
EXTRACT: note_on channel=0 note=57 velocity=72 time=0
EXTRACT: note_on channel=0 note=52 velocity=72 time=0
EXTRACT: note_on channel=0 note=49 velocity=72 time=0
EXTRACT: note_off channel=0 note=66 velocity=64 time=0.28571399999999997
EXTRACT: note_off channel=0 note=61 velocity=64 time=0
EXTRACT: note_off channel=0 note=57 velocity=64 time=0
EXTRACT: note_off channel=0 note=52 velocity=64 time=0
EXTRACT: note_off channel=0 note=49 velocity=64 time=0
EXTRACT: note_on channel=0 note=66 velocity=72 time=0
EXTRACT: note_on channel=0 note=61 velocity=72 time=0
EXTRACT: note_on channel=0 note=57 velocity=72 time=0
EXTRACT: note_off channel=0 note=66 velocity=64 time=0.14285699999999998
EXTRACT: note_off channel=0 note=61 velocity=64 time=0
EXTRACT: note_off channel=0 note=57 velocity=64 time=0
EXTRACT: note_on channel=0 note=66 velocity=72 time=0
EXTRACT: note_on channel=0 note=61 velocity=72 time=0
EXTRACT: note_on channel=0 note=57 velocity=72 time=0
EXTRACT: note_on channel=2 note=64 velocity=72 time=0.07142849999999999
EXTRACT: note_off channel=0 note=66 velocity=64 time=0.07142849999999999
EXTRACT: note_off channel=0 note=61 velocity=64 time=0
EXTRACT: note_off channel=0 note=57 velocity=64 time=0
EXTRACT: note_on channel=0 note=66 velocity=72 time=0
EXTRACT: note_on channel=0 note=62 velocity=72 time=0
EXTRACT: note_on channel=0 note=57 velocity=72 time=0
EXTRACT: note_on channel=0 note=54 velocity=72 time=0
EXTRACT: note_on channel=0 note=47 velocity=72 time=0
EXTRACT: note_on channel=4 note=35 velocity=80 time=0
EXTRACT: note_off channel=2 note=64 velocity=64 time=0
EXTRACT: note_on channel=2 note=69 velocity=80 time=0
EXTRACT: note_on channel=2 note=66 velocity=80 time=0
EXTRACT: note_on channel=2 note=62 velocity=80 time=0
EXTRACT: note_on channel=2 note=57 velocity=80 time=0
EXTRACT: note_off channel=8 note=93 velocity=64 time=0
EXTRACT: note_off channel=0 note=66 velocity=64 time=0.4285709999999999
EXTRACT: note_off channel=0 note=62 velocity=64 time=0
EXTRACT: note_off channel=0 note=57 velocity=64 time=0
EXTRACT: note_off channel=0 note=54 velocity=64 time=0
EXTRACT: note_off channel=0 note=47 velocity=64 time=0
EXTRACT: note_on channel=0 note=66 velocity=72 time=0
EXTRACT: note_on channel=0 note=62 velocity=72 time=0
EXTRACT: note_on channel=0 note=57 velocity=72 time=0
EXTRACT: note_on channel=0 note=54 velocity=72 time=0
EXTRACT: note_on channel=0 note=47 velocity=72 time=0
EXTRACT: note_off channel=0 note=66 velocity=64 time=0.14285699999999998
EXTRACT: note_off channel=0 note=62 velocity=64 time=0
EXTRACT: note_off channel=0 note=57 velocity=64 time=0
EXTRACT: note_off channel=0 note=54 velocity=64 time=0
EXTRACT: note_off channel=0 note=47 velocity=64 time=0
EXTRACT: note_on channel=0 note=66 velocity=72 time=0
EXTRACT: note_on channel=0 note=62 velocity=72 time=0
EXTRACT: note_on channel=0 note=57 velocity=72 time=0
EXTRACT: note_off channel=0 note=66 velocity=64 time=0.14285699999999998
EXTRACT: note_off channel=0 note=62 velocity=64 time=0
EXTRACT: note_off channel=0 note=57 velocity=64 time=0
EXTRACT: note_on channel=0 note=66 velocity=72 time=0
EXTRACT: note_on channel=0 note=62 velocity=72 time=0
EXTRACT: note_on channel=0 note=57 velocity=72 time=0
EXTRACT: note_off channel=0 note=66 velocity=64 time=0.14285699999999998
EXTRACT: note_off channel=0 note=62 velocity=64 time=0
EXTRACT: note_off channel=0 note=57 velocity=64 time=0
EXTRACT: note_on channel=0 note=66 velocity=72 time=0
EXTRACT: note_on channel=0 note=61 velocity=72 time=0
EXTRACT: note_on channel=0 note=57 velocity=72 time=0
EXTRACT: note_on channel=0 note=52 velocity=72 time=0
EXTRACT: note_on channel=0 note=49 velocity=72 time=0
EXTRACT: note_off channel=4 note=35 velocity=64 time=0
EXTRACT: note_on channel=4 note=30 velocity=80 time=0
EXTRACT: note_off channel=2 note=69 velocity=64 time=0
EXTRACT: note_off channel=2 note=66 velocity=64 time=0
EXTRACT: note_off channel=2 note=62 velocity=64 time=0
EXTRACT: note_off channel=2 note=57 velocity=64 time=0
EXTRACT: note_on channel=2 note=69 velocity=80 time=0
EXTRACT: note_on channel=2 note=64 velocity=80 time=0
EXTRACT: note_on channel=2 note=61 velocity=80 time=0
EXTRACT: note_on channel=2 note=57 velocity=80 time=0
EXTRACT: note_off channel=0 note=66 velocity=64 time=0.28571399999999997
EXTRACT: note_off channel=0 note=61 velocity=64 time=0
EXTRACT: note_off channel=0 note=57 velocity=64 time=0
EXTRACT: note_off channel=0 note=52 velocity=64 time=0
EXTRACT: note_off channel=0 note=49 velocity=64 time=0
EXTRACT: note_off channel=4 note=30 velocity=64 time=0
EXTRACT: note_off channel=2 note=69 velocity=64 time=0
EXTRACT: note_off channel=2 note=64 velocity=64 time=0
EXTRACT: note_off channel=2 note=61 velocity=64 time=0
EXTRACT: note_off channel=2 note=57 velocity=64 time=0
EXTRACT: note_on channel=0 note=66 velocity=72 time=0.14285699999999998
EXTRACT: note_on channel=0 note=61 velocity=72 time=0
EXTRACT: note_on channel=0 note=57 velocity=72 time=0
EXTRACT: note_off channel=0 note=66 velocity=64 time=0.14285699999999998
EXTRACT: note_off channel=0 note=61 velocity=64 time=0
EXTRACT: note_off channel=0 note=57 velocity=64 time=0
EXTRACT: note_on channel=0 note=61 velocity=72 time=0
EXTRACT: note_on channel=0 note=57 velocity=72 time=0
EXTRACT: note_on channel=0 note=52 velocity=72 time=0
EXTRACT: note_on channel=0 note=49 velocity=72 time=0
EXTRACT: note_on channel=2 note=57 velocity=80 time=0
EXTRACT: note_off channel=0 note=61 velocity=64 time=0.28571399999999997
EXTRACT: note_off channel=0 note=57 velocity=64 time=0
EXTRACT: note_off channel=0 note=52 velocity=64 time=0
EXTRACT: note_off channel=0 note=49 velocity=64 time=0
EXTRACT: note_on channel=0 note=66 velocity=72 time=0
EXTRACT: note_on channel=0 note=61 velocity=72 time=0
EXTRACT: note_on channel=0 note=57 velocity=72 time=0
EXTRACT: note_on channel=0 note=52 velocity=72 time=0
EXTRACT: note_on channel=0 note=49 velocity=72 time=0
EXTRACT: note_off channel=2 note=57 velocity=64 time=0
EXTRACT: note_on channel=2 note=59 velocity=80 time=0.14285699999999998
EXTRACT: note_off channel=0 note=66 velocity=64 time=0.14285699999999998
EXTRACT: note_off channel=0 note=61 velocity=64 time=0
EXTRACT: note_off channel=0 note=57 velocity=64 time=0
EXTRACT: note_off channel=0 note=52 velocity=64 time=0
EXTRACT: note_off channel=0 note=49 velocity=64 time=0
EXTRACT: note_on channel=0 note=66 velocity=72 time=0
EXTRACT: note_on channel=0 note=61 velocity=72 time=0
EXTRACT: note_on channel=0 note=57 velocity=72 time=0
EXTRACT: note_off channel=0 note=66 velocity=64 time=0.14285699999999998
EXTRACT: note_off channel=0 note=61 velocity=64 time=0
EXTRACT: note_off channel=0 note=57 velocity=64 time=0
EXTRACT: note_on channel=0 note=66 velocity=72 time=0
EXTRACT: note_on channel=0 note=61 velocity=72 time=0
EXTRACT: note_on channel=0 note=57 velocity=72 time=0
EXTRACT: note_off channel=0 note=66 velocity=64 time=0.14285699999999998
EXTRACT: note_off channel=0 note=61 velocity=64 time=0
EXTRACT: note_off channel=0 note=57 velocity=64 time=0
EXTRACT: note_on channel=0 note=60 velocity=72 time=0
EXTRACT: note_on channel=0 note=57 velocity=72 time=0
EXTRACT: note_on channel=0 note=52 velocity=72 time=0
EXTRACT: note_on channel=0 note=41 velocity=72 time=0
EXTRACT: note_on channel=4 note=29 velocity=80 time=0
EXTRACT: note_off channel=2 note=59 velocity=64 time=0
EXTRACT: note_on channel=2 note=64 velocity=80 time=0
EXTRACT: note_on channel=2 note=60 velocity=80 time=0
EXTRACT: note_on channel=2 note=57 velocity=80 time=0
EXTRACT: note_on channel=2 note=55 velocity=80 time=0
EXTRACT: note_on channel=9 note=49 velocity=80 time=0
EXTRACT: note_on channel=9 note=35 velocity=80 time=0
EXTRACT: note_off channel=9 note=49 velocity=64 time=0.5714279999999999
EXTRACT: note_off channel=9 note=35 velocity=64 time=0
EXTRACT: note_off channel=0 note=60 velocity=64 time=1.7142839999999997
EXTRACT: note_off channel=0 note=57 velocity=64 time=0
EXTRACT: note_off channel=0 note=52 velocity=64 time=0
EXTRACT: note_off channel=0 note=41 velocity=64 time=0
EXTRACT: note_off channel=4 note=29 velocity=64 time=0
EXTRACT: note_off channel=2 note=64 velocity=64 time=0
EXTRACT: note_off channel=2 note=60 velocity=64 time=0
EXTRACT: note_off channel=2 note=57 velocity=64 time=0
EXTRACT: note_off channel=2 note=55 velocity=64 time=0
=======
>>>>>>> 58759cc7f94f97ec7d626679681314d2ca9a005e
