EXTRACT: control_change channel=0 control=121 value=0 time=0
EXTRACT: program_change channel=0 program=71 time=0
EXTRACT: control_change channel=0 control=7 value=100 time=0
EXTRACT: control_change channel=0 control=10 value=64 time=0
EXTRACT: control_change channel=0 control=91 value=0 time=0
EXTRACT: control_change channel=0 control=93 value=0 time=0
EXTRACT: control_change channel=1 control=121 value=0 time=0
EXTRACT: program_change channel=1 program=73 time=0
EXTRACT: control_change channel=1 control=7 value=100 time=0
EXTRACT: control_change channel=1 control=10 value=64 time=0
EXTRACT: control_change channel=1 control=91 value=0 time=0
EXTRACT: control_change channel=1 control=93 value=0 time=0
EXTRACT: note_on channel=1 note=70 velocity=60 time=0
EXTRACT: control_change channel=2 control=121 value=0 time=0
EXTRACT: program_change channel=2 program=40 time=0
EXTRACT: control_change channel=2 control=7 value=100 time=0
EXTRACT: control_change channel=2 control=10 value=64 time=0
EXTRACT: control_change channel=2 control=91 value=0 time=0
EXTRACT: control_change channel=2 control=93 value=0 time=0
EXTRACT: note_on channel=2 note=70 velocity=80 time=0
EXTRACT: control_change channel=3 control=121 value=0 time=0
EXTRACT: program_change channel=3 program=45 time=0
EXTRACT: control_change channel=3 control=7 value=100 time=0
EXTRACT: control_change channel=3 control=10 value=64 time=0
EXTRACT: control_change channel=3 control=91 value=0 time=0
EXTRACT: control_change channel=3 control=93 value=0 time=0
EXTRACT: control_change channel=4 control=121 value=0 time=0
EXTRACT: program_change channel=4 program=44 time=0
EXTRACT: control_change channel=4 control=7 value=100 time=0
EXTRACT: control_change channel=4 control=10 value=64 time=0
EXTRACT: control_change channel=4 control=91 value=0 time=0
EXTRACT: control_change channel=4 control=93 value=0 time=0
EXTRACT: control_change channel=5 control=121 value=0 time=0
EXTRACT: program_change channel=5 program=0 time=0
EXTRACT: control_change channel=5 control=7 value=99 time=0
EXTRACT: control_change channel=5 control=10 value=63 time=0
EXTRACT: control_change channel=5 control=91 value=0 time=0
EXTRACT: control_change channel=5 control=93 value=0 time=0
EXTRACT: note_on channel=5 note=46 velocity=80 time=0
EXTRACT: note_on channel=5 note=53 velocity=80 time=0.09264688125
EXTRACT: note_on channel=5 note=58 velocity=80 time=0.09411746666666666
EXTRACT: note_on channel=2 note=70 velocity=0 time=0.16470556666666666
EXTRACT: note_on channel=2 note=70 velocity=80 time=0.0014705854166666666
EXTRACT: note_on channel=1 note=70 velocity=0 time=0.14852912708333332
EXTRACT: note_on channel=2 note=70 velocity=0 time=0.0264705375
EXTRACT: note_on channel=1 note=77 velocity=60 time=0.0014705854166666666
EXTRACT: note_on channel=2 note=70 velocity=80 time=0
EXTRACT: note_on channel=2 note=77 velocity=80 time=0
EXTRACT: note_on channel=5 note=70 velocity=90 time=0
EXTRACT: note_on channel=5 note=77 velocity=90 time=0
EXTRACT: note_on channel=1 note=77 velocity=0 time=0.16617615208333333
EXTRACT: note_on channel=2 note=70 velocity=0 time=0.0088235125
EXTRACT: note_on channel=2 note=77 velocity=0 time=0
EXTRACT: note_on channel=1 note=74 velocity=60 time=0.0014705854166666666
EXTRACT: note_on channel=2 note=70 velocity=80 time=0
EXTRACT: note_on channel=2 note=70 velocity=0 time=0.3514699145833333
EXTRACT: note_on channel=5 note=70 velocity=0 time=0
EXTRACT: note_on channel=5 note=77 velocity=0 time=0
EXTRACT: note_on channel=2 note=74 velocity=80 time=0.0014705854166666666
EXTRACT: note_on channel=5 note=70 velocity=90 time=0
EXTRACT: note_on channel=5 note=74 velocity=90 time=0
EXTRACT: note_on channel=1 note=74 velocity=0 time=0.3161758645833333
EXTRACT: note_on channel=5 note=53 velocity=0 time=0.03382346458333333
EXTRACT: note_on channel=5 note=58 velocity=0 time=0
EXTRACT: note_on channel=2 note=74 velocity=0 time=0.0014705854166666666
EXTRACT: note_on channel=5 note=46 velocity=0 time=0
EXTRACT: note_on channel=1 note=72 velocity=60 time=0.0014705854166666666
EXTRACT: note_on channel=2 note=70 velocity=80 time=0
EXTRACT: note_on channel=5 note=51 velocity=90 time=0
EXTRACT: note_on channel=1 note=72 velocity=0 time=0.33382288958333334
EXTRACT: note_on channel=2 note=70 velocity=0 time=0.017647025
EXTRACT: note_on channel=5 note=70 velocity=0 time=0
EXTRACT: note_on channel=5 note=74 velocity=0 time=0
EXTRACT: note_on channel=1 note=65 velocity=60 time=0.0014705854166666666
EXTRACT: note_on channel=2 note=65 velocity=80 time=0
EXTRACT: note_on channel=5 note=65 velocity=90 time=0
EXTRACT: note_on channel=1 note=65 velocity=0 time=0.33382288958333334
EXTRACT: note_on channel=2 note=65 velocity=0 time=0.017647025
EXTRACT: note_on channel=5 note=65 velocity=0 time=0
EXTRACT: note_on channel=1 note=70 velocity=60 time=0.0014705854166666666
EXTRACT: note_on channel=2 note=70 velocity=80 time=0
EXTRACT: note_on channel=5 note=70 velocity=90 time=0
EXTRACT: note_on channel=1 note=70 velocity=0 time=0.33382288958333334
EXTRACT: note_on channel=2 note=70 velocity=0 time=0.017647025
EXTRACT: note_on channel=5 note=70 velocity=0 time=0
EXTRACT: note_on channel=1 note=65 velocity=60 time=0.0014705854166666666
EXTRACT: note_on channel=2 note=65 velocity=80 time=0
EXTRACT: note_on channel=5 note=65 velocity=90 time=0
EXTRACT: note_on channel=1 note=65 velocity=0 time=0.33382288958333334
EXTRACT: note_on channel=2 note=65 velocity=0 time=0.017647025
EXTRACT: note_on channel=5 note=65 velocity=0 time=0
EXTRACT: note_on channel=5 note=51 velocity=0 time=0
EXTRACT: note_on channel=1 note=70 velocity=60 time=0.0014705854166666666
EXTRACT: note_on channel=2 note=62 velocity=80 time=0
EXTRACT: note_on channel=2 note=70 velocity=80 time=0
EXTRACT: note_on channel=5 note=41 velocity=90 time=0
EXTRACT: note_on channel=5 note=48 velocity=90 time=0.09264688125
EXTRACT: note_on channel=5 note=53 velocity=90 time=0.09411746666666666
EXTRACT: note_on channel=2 note=62 velocity=0 time=0.16470556666666666
EXTRACT: note_on channel=2 note=70 velocity=0 time=0
EXTRACT: note_on channel=2 note=70 velocity=80 time=0.0014705854166666666
EXTRACT: note_on channel=1 note=70 velocity=0 time=0.14852912708333332
EXTRACT: note_on channel=2 note=70 velocity=0 time=0.0264705375
EXTRACT: note_on channel=1 note=77 velocity=60 time=0.0014705854166666666
EXTRACT: note_on channel=2 note=70 velocity=80 time=0
EXTRACT: note_on channel=2 note=77 velocity=80 time=0
EXTRACT: note_on channel=5 note=69 velocity=90 time=0
EXTRACT: note_on channel=5 note=77 velocity=90 time=0
EXTRACT: note_on channel=1 note=77 velocity=0 time=0.16617615208333333
EXTRACT: note_on channel=2 note=70 velocity=0 time=0.0088235125
EXTRACT: note_on channel=2 note=77 velocity=0 time=0
EXTRACT: note_on channel=1 note=74 velocity=60 time=0.0014705854166666666
EXTRACT: note_on channel=2 note=70 velocity=80 time=0
EXTRACT: note_on channel=2 note=70 velocity=0 time=0.3514699145833333
EXTRACT: note_on channel=5 note=69 velocity=0 time=0
EXTRACT: note_on channel=5 note=77 velocity=0 time=0
EXTRACT: note_on channel=2 note=74 velocity=80 time=0.0014705854166666666
EXTRACT: note_on channel=5 note=69 velocity=90 time=0
EXTRACT: note_on channel=5 note=74 velocity=90 time=0
EXTRACT: note_on channel=1 note=74 velocity=0 time=0.3161758645833333
EXTRACT: note_on channel=5 note=48 velocity=0 time=0.03382346458333333
EXTRACT: note_on channel=5 note=53 velocity=0 time=0
EXTRACT: note_on channel=2 note=74 velocity=0 time=0.0014705854166666666
EXTRACT: note_on channel=5 note=41 velocity=0 time=0
EXTRACT: note_on channel=1 note=74 velocity=60 time=0.0014705854166666666
EXTRACT: note_on channel=2 note=72 velocity=80 time=0
EXTRACT: note_on channel=5 note=46 velocity=90 time=0
EXTRACT: note_on channel=1 note=74 velocity=0 time=0.33382288958333334
EXTRACT: note_on channel=2 note=72 velocity=0 time=0.017647025
EXTRACT: note_on channel=5 note=69 velocity=0 time=0
EXTRACT: note_on channel=5 note=74 velocity=0 time=0
EXTRACT: note_on channel=1 note=65 velocity=60 time=0.0014705854166666666
EXTRACT: note_on channel=2 note=65 velocity=80 time=0
EXTRACT: note_on channel=5 note=65 velocity=90 time=0
EXTRACT: note_on channel=1 note=65 velocity=0 time=0.33382288958333334
EXTRACT: note_on channel=2 note=65 velocity=0 time=0.017647025
EXTRACT: note_on channel=5 note=65 velocity=0 time=0
EXTRACT: note_on channel=1 note=72 velocity=60 time=0.0014705854166666666
EXTRACT: note_on channel=2 note=72 velocity=80 time=0
EXTRACT: note_on channel=5 note=72 velocity=90 time=0
EXTRACT: note_on channel=1 note=72 velocity=0 time=0.33382288958333334
EXTRACT: note_on channel=2 note=72 velocity=0 time=0.017647025
EXTRACT: note_on channel=5 note=72 velocity=0 time=0
EXTRACT: note_on channel=1 note=65 velocity=60 time=0.0014705854166666666
EXTRACT: note_on channel=2 note=65 velocity=80 time=0
EXTRACT: note_on channel=5 note=65 velocity=90 time=0
EXTRACT: note_on channel=1 note=65 velocity=0 time=0.33382288958333334
EXTRACT: note_on channel=2 note=65 velocity=0 time=0.017647025
EXTRACT: note_on channel=5 note=65 velocity=0 time=0
EXTRACT: note_on channel=5 note=46 velocity=0 time=0
EXTRACT: note_on channel=1 note=74 velocity=60 time=0.0014705854166666666
EXTRACT: note_on channel=2 note=67 velocity=80 time=0
EXTRACT: note_on channel=2 note=74 velocity=80 time=0
EXTRACT: note_on channel=5 note=43 velocity=90 time=0
EXTRACT: note_on channel=5 note=50 velocity=90 time=0.09264688125
EXTRACT: note_on channel=5 note=55 velocity=90 time=0.09411746666666666
EXTRACT: note_on channel=2 note=67 velocity=0 time=0.16470556666666666
EXTRACT: note_on channel=2 note=74 velocity=0 time=0
EXTRACT: note_on channel=2 note=70 velocity=80 time=0.0014705854166666666
EXTRACT: note_on channel=1 note=74 velocity=0 time=0.14852912708333332
EXTRACT: note_on channel=2 note=70 velocity=0 time=0.0264705375
EXTRACT: note_on channel=1 note=77 velocity=60 time=0.0014705854166666666
EXTRACT: note_on channel=2 note=70 velocity=80 time=0
EXTRACT: note_on channel=2 note=77 velocity=80 time=0
EXTRACT: note_on channel=5 note=70 velocity=90 time=0
EXTRACT: note_on channel=5 note=77 velocity=90 time=0
EXTRACT: note_on channel=1 note=77 velocity=0 time=0.16617615208333333
EXTRACT: note_on channel=2 note=70 velocity=0 time=0.0088235125
EXTRACT: note_on channel=2 note=77 velocity=0 time=0
EXTRACT: note_on channel=1 note=74 velocity=60 time=0.0014705854166666666
EXTRACT: note_on channel=2 note=70 velocity=80 time=0
EXTRACT: note_on channel=2 note=70 velocity=0 time=0.3514699145833333
EXTRACT: note_on channel=5 note=70 velocity=0 time=0
EXTRACT: note_on channel=5 note=77 velocity=0 time=0
EXTRACT: note_on channel=2 note=70 velocity=80 time=0.0014705854166666666
EXTRACT: note_on channel=2 note=74 velocity=80 time=0
EXTRACT: note_on channel=5 note=70 velocity=90 time=0
EXTRACT: note_on channel=5 note=74 velocity=90 time=0
EXTRACT: note_on channel=1 note=74 velocity=0 time=0.3161758645833333
EXTRACT: note_on channel=5 note=50 velocity=0 time=0.03382346458333333
EXTRACT: note_on channel=5 note=55 velocity=0 time=0
EXTRACT: note_on channel=2 note=70 velocity=0 time=0.0014705854166666666
EXTRACT: note_on channel=2 note=74 velocity=0 time=0
EXTRACT: note_on channel=5 note=43 velocity=0 time=0
EXTRACT: note_on channel=1 note=72 velocity=60 time=0.0014705854166666666
EXTRACT: note_on channel=2 note=70 velocity=80 time=0
EXTRACT: note_on channel=5 note=50 velocity=90 time=0
EXTRACT: note_on channel=1 note=72 velocity=0 time=0.33382288958333334
EXTRACT: note_on channel=2 note=70 velocity=0 time=0.017647025
EXTRACT: note_on channel=5 note=70 velocity=0 time=0
EXTRACT: note_on channel=5 note=74 velocity=0 time=0
EXTRACT: note_on channel=1 note=65 velocity=60 time=0.0014705854166666666
EXTRACT: note_on channel=2 note=65 velocity=80 time=0
EXTRACT: note_on channel=5 note=65 velocity=90 time=0
EXTRACT: note_on channel=1 note=65 velocity=0 time=0.33382288958333334
EXTRACT: note_on channel=2 note=65 velocity=0 time=0.017647025
EXTRACT: note_on channel=5 note=65 velocity=0 time=0
EXTRACT: note_on channel=1 note=70 velocity=60 time=0.0014705854166666666
EXTRACT: note_on channel=2 note=70 velocity=80 time=0
EXTRACT: note_on channel=5 note=70 velocity=90 time=0
EXTRACT: note_on channel=1 note=70 velocity=0 time=0.33382288958333334
EXTRACT: note_on channel=2 note=70 velocity=0 time=0.017647025
EXTRACT: note_on channel=5 note=70 velocity=0 time=0
EXTRACT: note_on channel=1 note=65 velocity=60 time=0.0014705854166666666
EXTRACT: note_on channel=2 note=65 velocity=80 time=0
EXTRACT: note_on channel=5 note=65 velocity=90 time=0
EXTRACT: note_on channel=1 note=65 velocity=0 time=0.33382288958333334
EXTRACT: note_on channel=2 note=65 velocity=0 time=0.017647025
EXTRACT: note_on channel=5 note=65 velocity=0 time=0
EXTRACT: note_on channel=5 note=50 velocity=0 time=0
EXTRACT: note_on channel=1 note=75 velocity=90 time=0.0014705854166666666
EXTRACT: note_on channel=2 note=63 velocity=80 time=0
EXTRACT: note_on channel=2 note=75 velocity=80 time=0
EXTRACT: note_on channel=5 note=51 velocity=90 time=0
EXTRACT: note_on channel=5 note=58 velocity=90 time=0.09264688125
EXTRACT: note_on channel=5 note=63 velocity=90 time=0.09411746666666666
EXTRACT: note_on channel=2 note=63 velocity=0 time=0.16470556666666666
EXTRACT: note_on channel=2 note=75 velocity=0 time=0
EXTRACT: note_on channel=2 note=70 velocity=80 time=0.0014705854166666666
EXTRACT: note_on channel=1 note=75 velocity=0 time=0.14852912708333332
EXTRACT: note_on channel=2 note=70 velocity=0 time=0.0264705375
EXTRACT: note_on channel=1 note=75 velocity=90 time=0.0014705854166666666
EXTRACT: note_on channel=2 note=67 velocity=80 time=0
EXTRACT: note_on channel=2 note=75 velocity=80 time=0
EXTRACT: note_on channel=5 note=67 velocity=90 time=0
EXTRACT: note_on channel=5 note=75 velocity=90 time=0
EXTRACT: note_on channel=1 note=75 velocity=0 time=0.16617615208333333
EXTRACT: note_on channel=2 note=67 velocity=0 time=0.0088235125
EXTRACT: note_on channel=2 note=75 velocity=0 time=0
EXTRACT: note_on channel=1 note=75 velocity=90 time=0.0014705854166666666
EXTRACT: note_on channel=2 note=70 velocity=80 time=0
EXTRACT: note_on channel=2 note=70 velocity=0 time=0.3514699145833333
EXTRACT: note_on channel=5 note=67 velocity=0 time=0
EXTRACT: note_on channel=5 note=75 velocity=0 time=0
EXTRACT: note_on channel=2 note=75 velocity=80 time=0.0014705854166666666
EXTRACT: note_on channel=5 note=67 velocity=90 time=0
EXTRACT: note_on channel=5 note=75 velocity=90 time=0
EXTRACT: note_on channel=1 note=75 velocity=0 time=0.3161758645833333
EXTRACT: note_on channel=5 note=58 velocity=0 time=0.03382346458333333
EXTRACT: note_on channel=5 note=63 velocity=0 time=0
EXTRACT: note_on channel=2 note=75 velocity=0 time=0.0014705854166666666
EXTRACT: note_on channel=5 note=51 velocity=0 time=0
EXTRACT: note_on channel=1 note=75 velocity=90 time=0.0014705854166666666
EXTRACT: note_on channel=2 note=70 velocity=80 time=0
EXTRACT: note_on channel=5 note=58 velocity=90 time=0
EXTRACT: note_on channel=1 note=75 velocity=0 time=0.33382288958333334
EXTRACT: note_on channel=2 note=70 velocity=0 time=0.017647025
EXTRACT: note_on channel=5 note=67 velocity=0 time=0
EXTRACT: note_on channel=5 note=75 velocity=0 time=0
EXTRACT: note_on channel=1 note=70 velocity=90 time=0.0014705854166666666
EXTRACT: note_on channel=2 note=63 velocity=80 time=0
EXTRACT: note_on channel=5 note=63 velocity=90 time=0
EXTRACT: note_on channel=1 note=70 velocity=0 time=0.33382288958333334
EXTRACT: note_on channel=2 note=63 velocity=0 time=0.017647025
EXTRACT: note_on channel=5 note=63 velocity=0 time=0
EXTRACT: note_on channel=5 note=58 velocity=0 time=0
EXTRACT: note_on channel=1 note=75 velocity=90 time=0.0014705854166666666
EXTRACT: note_on channel=2 note=75 velocity=80 time=0
EXTRACT: note_on channel=5 note=75 velocity=90 time=0
EXTRACT: note_on channel=5 note=53 velocity=90 time=0
EXTRACT: note_on channel=2 note=75 velocity=0 time=0.17499966458333333
EXTRACT: note_on channel=5 note=75 velocity=0 time=0
EXTRACT: note_on channel=2 note=74 velocity=80 time=0.0014705854166666666
EXTRACT: note_on channel=5 note=74 velocity=90 time=0
EXTRACT: note_on channel=1 note=75 velocity=0 time=0.15735263958333331
EXTRACT: note_on channel=2 note=74 velocity=0 time=0.017647025
EXTRACT: note_on channel=1 note=72 velocity=90 time=0.0014705854166666666
EXTRACT: note_on channel=2 note=72 velocity=80 time=0
EXTRACT: note_on channel=2 note=72 velocity=0 time=0.17499966458333333
EXTRACT: note_on channel=5 note=74 velocity=0 time=0
EXTRACT: note_on channel=2 note=70 velocity=80 time=0.0014705854166666666
EXTRACT: note_on channel=5 note=70 velocity=90 time=0
EXTRACT: note_on channel=1 note=72 velocity=0 time=0.15735263958333331
EXTRACT: note_on channel=2 note=70 velocity=0 time=0.017647025
EXTRACT: note_on channel=5 note=53 velocity=0 time=0
EXTRACT: note_on channel=2 note=63 velocity=80 time=0
EXTRACT: note_on channel=2 note=70 velocity=80 time=0
EXTRACT: note_on channel=5 note=46 velocity=80 time=0
EXTRACT: note_on channel=5 note=70 velocity=0 time=0.3319446104166667
EXTRACT: note_on channel=0 note=65 velocity=96 time=0.0013888895833333334
EXTRACT: note_on channel=5 note=65 velocity=80 time=0
EXTRACT: note_on channel=2 note=63 velocity=0 time=0.16527786041666667
EXTRACT: note_on channel=2 note=70 velocity=0 time=0
EXTRACT: note_on channel=5 note=46 velocity=0 time=0
EXTRACT: note_on channel=2 note=62 velocity=80 time=0.0013888895833333334
EXTRACT: note_on channel=2 note=69 velocity=80 time=0
EXTRACT: note_on channel=5 note=53 velocity=80 time=0
EXTRACT: note_on channel=0 note=65 velocity=0 time=0.16527786041666667
EXTRACT: note_on channel=2 note=62 velocity=0 time=0
EXTRACT: note_on channel=2 note=69 velocity=0 time=0
EXTRACT: note_on channel=5 note=65 velocity=0 time=0
EXTRACT: note_on channel=5 note=53 velocity=0 time=0
EXTRACT: note_on channel=0 note=65 velocity=96 time=0.0013888895833333334
EXTRACT: note_on channel=2 note=63 velocity=80 time=0
EXTRACT: note_on channel=2 note=70 velocity=80 time=0
EXTRACT: note_on channel=5 note=70 velocity=80 time=0
EXTRACT: note_on channel=5 note=58 velocity=80 time=0
EXTRACT: note_on channel=5 note=58 velocity=0 time=0.3319446104166667
EXTRACT: note_on channel=5 note=46 velocity=80 time=0.0013888895833333334
EXTRACT: note_on channel=5 note=53 velocity=80 time=0
EXTRACT: note_on channel=0 note=65 velocity=0 time=0.16527786041666667
EXTRACT: note_on channel=2 note=63 velocity=0 time=0
EXTRACT: note_on channel=2 note=70 velocity=0 time=0
EXTRACT: note_on channel=0 note=62 velocity=96 time=0.0013888895833333334
EXTRACT: note_on channel=2 note=62 velocity=80 time=0
EXTRACT: note_on channel=2 note=69 velocity=80 time=0
EXTRACT: note_on channel=0 note=62 velocity=0 time=0.16527786041666667
EXTRACT: note_on channel=2 note=62 velocity=0 time=0
EXTRACT: note_on channel=2 note=69 velocity=0 time=0
EXTRACT: note_on channel=5 note=70 velocity=0 time=0
EXTRACT: note_on channel=0 note=62 velocity=96 time=0.0013888895833333334
EXTRACT: note_on channel=2 note=62 velocity=80 time=0
EXTRACT: note_on channel=2 note=65 velocity=80 time=0
EXTRACT: note_on channel=5 note=65 velocity=80 time=0
EXTRACT: note_on channel=5 note=46 velocity=0 time=0.3319446104166667
EXTRACT: note_on channel=5 note=53 velocity=0 time=0
EXTRACT: note_on channel=5 note=53 velocity=80 time=0.0013888895833333334
EXTRACT: note_on channel=5 note=60 velocity=80 time=0
EXTRACT: note_on channel=0 note=62 velocity=0 time=0.16527786041666667
EXTRACT: note_on channel=2 note=62 velocity=0 time=0
EXTRACT: note_on channel=2 note=65 velocity=0 time=0
EXTRACT: note_on channel=0 note=60 velocity=96 time=0.0013888895833333334
EXTRACT: note_on channel=2 note=60 velocity=80 time=0
EXTRACT: note_on channel=2 note=63 velocity=80 time=0
EXTRACT: note_on channel=0 note=60 velocity=0 time=0.16527786041666667
EXTRACT: note_on channel=2 note=60 velocity=0 time=0
EXTRACT: note_on channel=2 note=63 velocity=0 time=0
EXTRACT: note_on channel=5 note=65 velocity=0 time=0
EXTRACT: note_on channel=0 note=58 velocity=96 time=0.0013888895833333334
EXTRACT: note_on channel=2 note=58 velocity=80 time=0
EXTRACT: note_on channel=5 note=70 velocity=80 time=0
EXTRACT: note_on channel=0 note=58 velocity=0 time=0.6652781104166667
EXTRACT: note_on channel=2 note=58 velocity=0 time=0
EXTRACT: note_on channel=5 note=70 velocity=0 time=0
EXTRACT: note_on channel=5 note=53 velocity=0 time=0
EXTRACT: note_on channel=5 note=60 velocity=0 time=0
EXTRACT: note_on channel=2 note=65 velocity=80 time=0.0013888895833333334
EXTRACT: note_on channel=5 note=65 velocity=80 time=0
EXTRACT: note_on channel=5 note=41 velocity=80 time=0
EXTRACT: note_on channel=2 note=65 velocity=0 time=0.16527786041666667
EXTRACT: note_on channel=2 note=65 velocity=80 time=0.0013888895833333334
EXTRACT: note_on channel=2 note=65 velocity=0 time=0.16527786041666667
EXTRACT: note_on channel=5 note=65 velocity=0 time=0
EXTRACT: note_on channel=0 note=65 velocity=96 time=0.0013888895833333334
EXTRACT: note_on channel=2 note=62 velocity=80 time=0
EXTRACT: note_on channel=2 note=65 velocity=80 time=0
EXTRACT: note_on channel=5 note=63 velocity=80 time=0
EXTRACT: note_on channel=5 note=41 velocity=0 time=0.16527786041666667
EXTRACT: note_on channel=5 note=48 velocity=80 time=0.0013888895833333334
EXTRACT: note_on channel=0 note=65 velocity=0 time=0.16527786041666667
EXTRACT: note_on channel=2 note=62 velocity=0 time=0
EXTRACT: note_on channel=2 note=65 velocity=0 time=0
EXTRACT: note_on channel=5 note=63 velocity=0 time=0
EXTRACT: note_on channel=5 note=48 velocity=0 time=0
EXTRACT: note_on channel=0 note=65 velocity=96 time=0.0013888895833333334
EXTRACT: note_on channel=2 note=60 velocity=80 time=0
EXTRACT: note_on channel=2 note=65 velocity=80 time=0
EXTRACT: note_on channel=2 note=72 velocity=80 time=0
EXTRACT: note_on channel=5 note=60 velocity=80 time=0
EXTRACT: note_on channel=5 note=65 velocity=80 time=0
EXTRACT: note_on channel=5 note=70 velocity=80 time=0
EXTRACT: note_on channel=5 note=53 velocity=80 time=0
EXTRACT: note_on channel=5 note=60 velocity=0 time=0.3319446104166667
EXTRACT: note_on channel=5 note=65 velocity=0 time=0
EXTRACT: note_on channel=5 note=70 velocity=0 time=0
EXTRACT: note_on channel=5 note=53 velocity=0 time=0
EXTRACT: note_on channel=5 note=62 velocity=80 time=0.0013888895833333334
EXTRACT: note_on channel=5 note=41 velocity=80 time=0
EXTRACT: note_on channel=0 note=65 velocity=0 time=0.16527786041666667
EXTRACT: note_on channel=0 note=62 velocity=96 time=0.0013888895833333334
EXTRACT: note_on channel=0 note=62 velocity=0 time=0.16527786041666667
EXTRACT: note_on channel=2 note=60 velocity=0 time=0
EXTRACT: note_on channel=2 note=65 velocity=0 time=0
EXTRACT: note_on channel=2 note=72 velocity=0 time=0
EXTRACT: note_on channel=5 note=62 velocity=0 time=0
EXTRACT: note_on channel=0 note=62 velocity=96 time=0.0013888895833333334
EXTRACT: note_on channel=2 note=65 velocity=60 time=0
EXTRACT: note_on channel=5 note=62 velocity=80 time=0
EXTRACT: note_on channel=5 note=74 velocity=80 time=0
EXTRACT: note_on channel=5 note=41 velocity=0 time=0.3319446104166667
EXTRACT: note_on channel=5 note=53 velocity=80 time=0.0013888895833333334
EXTRACT: note_on channel=5 note=62 velocity=0 time=0.3319446104166667
EXTRACT: note_on channel=5 note=74 velocity=0 time=0
EXTRACT: note_on channel=5 note=53 velocity=0 time=0
EXTRACT: note_on channel=5 note=62 velocity=80 time=0.0013888895833333334
EXTRACT: note_on channel=5 note=74 velocity=80 time=0
EXTRACT: note_on channel=5 note=57 velocity=80 time=0
EXTRACT: note_on channel=5 note=60 velocity=80 time=0
EXTRACT: note_on channel=2 note=65 velocity=0 time=0.3319446104166667
EXTRACT: note_on channel=5 note=57 velocity=0 time=0
EXTRACT: note_on channel=5 note=60 velocity=0 time=0
EXTRACT: note_on channel=2 note=63 velocity=60 time=0.0013888895833333334
EXTRACT: note_on channel=5 note=53 velocity=80 time=0
EXTRACT: note_on channel=2 note=63 velocity=0 time=0.16527786041666667
EXTRACT: note_on channel=2 note=65 velocity=60 time=0.0013888895833333334
EXTRACT: note_on channel=0 note=62 velocity=0 time=0.16527786041666667
EXTRACT: note_on channel=2 note=65 velocity=0 time=0
EXTRACT: note_on channel=5 note=62 velocity=0 time=0
EXTRACT: note_on channel=5 note=74 velocity=0 time=0
EXTRACT: note_on channel=5 note=53 velocity=0 time=0
EXTRACT: note_on channel=2 note=67 velocity=60 time=0.0013888895833333334
EXTRACT: note_on channel=5 note=67 velocity=80 time=0
EXTRACT: note_on channel=5 note=43 velocity=80 time=0
EXTRACT: note_on channel=2 note=67 velocity=0 time=0.16527786041666667
EXTRACT: note_on channel=2 note=65 velocity=60 time=0.0013888895833333334
EXTRACT: note_on channel=2 note=65 velocity=0 time=0.16527786041666667
EXTRACT: note_on channel=5 note=67 velocity=0 time=0
EXTRACT: note_on channel=0 note=65 velocity=96 time=0.0013888895833333334
EXTRACT: note_on channel=2 note=62 velocity=60 time=0
EXTRACT: note_on channel=2 note=65 velocity=60 time=0
EXTRACT: note_on channel=5 note=65 velocity=80 time=0
EXTRACT: note_on channel=5 note=43 velocity=0 time=0.16527786041666667
EXTRACT: note_on channel=5 note=50 velocity=80 time=0.0013888895833333334
EXTRACT: note_on channel=0 note=65 velocity=0 time=0.16527786041666667
EXTRACT: note_on channel=2 note=62 velocity=0 time=0
EXTRACT: note_on channel=2 note=65 velocity=0 time=0
EXTRACT: note_on channel=5 note=65 velocity=0 time=0
EXTRACT: note_on channel=5 note=50 velocity=0 time=0
EXTRACT: note_on channel=0 note=65 velocity=96 time=0.0013888895833333334
EXTRACT: note_on channel=2 note=67 velocity=90 time=0
EXTRACT: note_on channel=2 note=75 velocity=90 time=0
EXTRACT: note_on channel=5 note=58 velocity=80 time=0
EXTRACT: note_on channel=5 note=62 velocity=80 time=0
EXTRACT: note_on channel=5 note=65 velocity=80 time=0
EXTRACT: note_on channel=5 note=55 velocity=80 time=0
EXTRACT: note_on channel=2 note=67 velocity=0 time=0.3319446104166667
EXTRACT: note_on channel=2 note=75 velocity=0 time=0
EXTRACT: note_on channel=5 note=58 velocity=0 time=0
EXTRACT: note_on channel=5 note=62 velocity=0 time=0
EXTRACT: note_on channel=5 note=65 velocity=0 time=0
EXTRACT: note_on channel=5 note=55 velocity=0 time=0
EXTRACT: note_on channel=2 note=65 velocity=90 time=0.0013888895833333334
EXTRACT: note_on channel=2 note=74 velocity=90 time=0
EXTRACT: note_on channel=5 note=62 velocity=80 time=0
EXTRACT: note_on channel=5 note=65 velocity=80 time=0
EXTRACT: note_on channel=5 note=69 velocity=80 time=0
EXTRACT: note_on channel=5 note=43 velocity=80 time=0
EXTRACT: note_on channel=0 note=65 velocity=0 time=0.16527786041666667
EXTRACT: note_on channel=0 note=62 velocity=96 time=0.0013888895833333334
EXTRACT: note_on channel=0 note=62 velocity=0 time=0.16527786041666667
EXTRACT: note_on channel=2 note=65 velocity=0 time=0
EXTRACT: note_on channel=2 note=74 velocity=0 time=0
EXTRACT: note_on channel=5 note=62 velocity=0 time=0
EXTRACT: note_on channel=5 note=65 velocity=0 time=0
EXTRACT: note_on channel=5 note=69 velocity=0 time=0
EXTRACT: note_on channel=5 note=43 velocity=0 time=0
EXTRACT: note_on channel=0 note=62 velocity=96 time=0.0013888895833333334
EXTRACT: note_on channel=2 note=60 velocity=90 time=0
EXTRACT: note_on channel=2 note=65 velocity=90 time=0
EXTRACT: note_on channel=2 note=72 velocity=90 time=0
EXTRACT: note_on channel=5 note=74 velocity=80 time=0
EXTRACT: note_on channel=5 note=50 velocity=80 time=0
EXTRACT: note_on channel=5 note=55 velocity=80 time=0
EXTRACT: note_on channel=5 note=74 velocity=0 time=0.3319446104166667
EXTRACT: note_on channel=5 note=72 velocity=80 time=0.0013888895833333334
EXTRACT: note_on channel=0 note=62 velocity=0 time=0.16527786041666667
EXTRACT: note_on channel=0 note=60 velocity=96 time=0.0013888895833333334
EXTRACT: note_on channel=0 note=60 velocity=0 time=0.16527786041666667
EXTRACT: note_on channel=2 note=60 velocity=0 time=0
EXTRACT: note_on channel=2 note=65 velocity=0 time=0
EXTRACT: note_on channel=2 note=72 velocity=0 time=0
EXTRACT: note_on channel=5 note=72 velocity=0 time=0
EXTRACT: note_on channel=5 note=50 velocity=0 time=0
EXTRACT: note_on channel=5 note=55 velocity=0 time=0
EXTRACT: note_on channel=0 note=58 velocity=96 time=0.0013888895833333334
EXTRACT: note_on channel=2 note=58 velocity=90 time=0
EXTRACT: note_on channel=2 note=63 velocity=90 time=0
EXTRACT: note_on channel=2 note=70 velocity=90 time=0
EXTRACT: note_on channel=5 note=70 velocity=80 time=0
EXTRACT: note_on channel=5 note=74 velocity=80 time=0
EXTRACT: note_on channel=5 note=77 velocity=80 time=0
EXTRACT: note_on channel=5 note=55 velocity=80 time=0
EXTRACT: note_on channel=5 note=55 velocity=0 time=0.3319446104166667
EXTRACT: note_on channel=5 note=55 velocity=80 time=0.0013888895833333334
EXTRACT: note_on channel=5 note=58 velocity=80 time=0
EXTRACT: note_on channel=0 note=58 velocity=0 time=0.3319446104166667
EXTRACT: note_on channel=2 note=58 velocity=0 time=0
EXTRACT: note_on channel=2 note=63 velocity=0 time=0
EXTRACT: note_on channel=2 note=70 velocity=0 time=0
EXTRACT: note_on channel=5 note=70 velocity=0 time=0
EXTRACT: note_on channel=5 note=74 velocity=0 time=0
EXTRACT: note_on channel=5 note=77 velocity=0 time=0
EXTRACT: note_on channel=5 note=55 velocity=0 time=0
EXTRACT: note_on channel=5 note=58 velocity=0 time=0
EXTRACT: note_on channel=2 note=63 velocity=90 time=0.0013888895833333334
EXTRACT: note_on channel=2 note=75 velocity=90 time=0
EXTRACT: note_on channel=5 note=70 velocity=80 time=0
EXTRACT: note_on channel=5 note=39 velocity=80 time=0
EXTRACT: note_on channel=2 note=63 velocity=0 time=0.3319446104166667
EXTRACT: note_on channel=2 note=75 velocity=0 time=0
EXTRACT: note_on channel=5 note=70 velocity=0 time=0
EXTRACT: note_on channel=0 note=63 velocity=96 time=0.0013888895833333334
EXTRACT: note_on channel=2 note=63 velocity=90 time=0
EXTRACT: note_on channel=2 note=74 velocity=90 time=0
EXTRACT: note_on channel=5 note=63 velocity=80 time=0
EXTRACT: note_on channel=5 note=39 velocity=0 time=0.16527786041666667
EXTRACT: note_on channel=5 note=46 velocity=80 time=0.0013888895833333334
EXTRACT: note_on channel=0 note=63 velocity=0 time=0.16527786041666667
EXTRACT: note_on channel=2 note=63 velocity=0 time=0
EXTRACT: note_on channel=2 note=74 velocity=0 time=0
EXTRACT: note_on channel=5 note=63 velocity=0 time=0
EXTRACT: note_on channel=5 note=46 velocity=0 time=0
EXTRACT: note_on channel=0 note=63 velocity=96 time=0.0013888895833333334
EXTRACT: note_on channel=2 note=75 velocity=90 time=0
EXTRACT: note_on channel=5 note=63 velocity=80 time=0
EXTRACT: note_on channel=5 note=70 velocity=80 time=0
EXTRACT: note_on channel=5 note=75 velocity=80 time=0
EXTRACT: note_on channel=5 note=51 velocity=80 time=0
EXTRACT: note_on channel=0 note=63 velocity=0 time=0.16527786041666667
EXTRACT: note_on channel=2 note=75 velocity=0 time=0
EXTRACT: note_on channel=0 note=62 velocity=96 time=0.0013888895833333334
EXTRACT: note_on channel=2 note=62 velocity=90 time=0
EXTRACT: note_on channel=2 note=62 velocity=0 time=0.16527786041666667
EXTRACT: note_on channel=5 note=63 velocity=0 time=0
EXTRACT: note_on channel=5 note=70 velocity=0 time=0
EXTRACT: note_on channel=5 note=75 velocity=0 time=0
EXTRACT: note_on channel=5 note=51 velocity=0 time=0
EXTRACT: note_on channel=2 note=63 velocity=90 time=0.0013888895833333334
EXTRACT: note_on channel=5 note=63 velocity=80 time=0
EXTRACT: note_on channel=5 note=70 velocity=80 time=0
EXTRACT: note_on channel=5 note=43 velocity=80 time=0
EXTRACT: note_on channel=5 note=46 velocity=80 time=0
EXTRACT: note_on channel=5 note=50 velocity=80 time=0
EXTRACT: note_on channel=0 note=62 velocity=0 time=0.16527786041666667
EXTRACT: note_on channel=2 note=63 velocity=0 time=0
EXTRACT: note_on channel=0 note=63 velocity=96 time=0.0013888895833333334
EXTRACT: note_on channel=2 note=62 velocity=90 time=0
EXTRACT: note_on channel=0 note=63 velocity=0 time=0.16527786041666667
EXTRACT: note_on channel=2 note=62 velocity=0 time=0
EXTRACT: note_on channel=5 note=63 velocity=0 time=0
EXTRACT: note_on channel=5 note=70 velocity=0 time=0
EXTRACT: note_on channel=0 note=62 velocity=96 time=0.0013888895833333334
EXTRACT: note_on channel=2 note=63 velocity=90 time=0
EXTRACT: note_on channel=5 note=63 velocity=80 time=0
EXTRACT: note_on channel=5 note=67 velocity=80 time=0
EXTRACT: note_on channel=5 note=70 velocity=80 time=0
EXTRACT: note_on channel=2 note=63 velocity=0 time=0.16527786041666667
EXTRACT: note_on channel=2 note=62 velocity=90 time=0.0013888895833333334
EXTRACT: note_on channel=2 note=62 velocity=0 time=0.16527786041666667
EXTRACT: note_on channel=5 note=63 velocity=0 time=0
EXTRACT: note_on channel=5 note=67 velocity=0 time=0
EXTRACT: note_on channel=5 note=70 velocity=0 time=0
EXTRACT: note_on channel=5 note=43 velocity=0 time=0
EXTRACT: note_on channel=5 note=46 velocity=0 time=0
EXTRACT: note_on channel=5 note=50 velocity=0 time=0
EXTRACT: note_on channel=2 note=63 velocity=90 time=0.0013888895833333334
EXTRACT: note_on channel=5 note=62 velocity=80 time=0
EXTRACT: note_on channel=5 note=43 velocity=80 time=0
EXTRACT: note_on channel=5 note=55 velocity=80 time=0
EXTRACT: note_on channel=2 note=63 velocity=0 time=0.16527786041666667
EXTRACT: note_on channel=5 note=62 velocity=0 time=0
EXTRACT: note_on channel=2 note=74 velocity=90 time=0.0013888895833333334
EXTRACT: note_on channel=5 note=63 velocity=80 time=0
EXTRACT: note_on channel=2 note=74 velocity=0 time=0.16527786041666667
EXTRACT: note_on channel=5 note=63 velocity=0 time=0
EXTRACT: note_on channel=5 note=43 velocity=0 time=0
EXTRACT: note_on channel=5 note=55 velocity=0 time=0
EXTRACT: note_on channel=2 note=63 velocity=90 time=0.0013888895833333334
EXTRACT: note_on channel=2 note=75 velocity=90 time=0
EXTRACT: note_on channel=5 note=58 velocity=80 time=0
EXTRACT: note_on channel=5 note=70 velocity=80 time=0
EXTRACT: note_on channel=5 note=50 velocity=80 time=0
EXTRACT: note_on channel=5 note=55 velocity=80 time=0
EXTRACT: note_on channel=0 note=62 velocity=0 time=0.6652781104166667
EXTRACT: note_on channel=2 note=63 velocity=0 time=0
EXTRACT: note_on channel=2 note=75 velocity=0 time=0
EXTRACT: note_on channel=5 note=70 velocity=0 time=0
EXTRACT: note_on channel=5 note=50 velocity=0 time=0
EXTRACT: note_on channel=5 note=55 velocity=0 time=0
EXTRACT: note_on channel=1 note=70 velocity=90 time=0.0013888895833333334
EXTRACT: note_on channel=2 note=63 velocity=90 time=0
EXTRACT: note_on channel=2 note=70 velocity=90 time=0
EXTRACT: note_on channel=5 note=70 velocity=60 time=0
EXTRACT: note_on channel=5 note=46 velocity=60 time=0
EXTRACT: note_on channel=5 note=58 velocity=0 time=0.3319446104166667
EXTRACT: note_on channel=5 note=70 velocity=0 time=0
EXTRACT: note_on channel=0 note=65 velocity=96 time=0.0013888895833333334
EXTRACT: note_on channel=5 note=65 velocity=60 time=0
EXTRACT: note_on channel=2 note=63 velocity=0 time=0.16527786041666667
EXTRACT: note_on channel=2 note=70 velocity=0 time=0
EXTRACT: note_on channel=5 note=46 velocity=0 time=0
EXTRACT: note_on channel=2 note=62 velocity=90 time=0.0013888895833333334
EXTRACT: note_on channel=2 note=69 velocity=90 time=0
EXTRACT: note_on channel=5 note=53 velocity=60 time=0
EXTRACT: note_on channel=1 note=70 velocity=0 time=0.13194451041666666
EXTRACT: note_on channel=0 note=65 velocity=0 time=0.03333335
EXTRACT: note_on channel=2 note=62 velocity=0 time=0
EXTRACT: note_on channel=2 note=69 velocity=0 time=0
EXTRACT: note_on channel=5 note=65 velocity=0 time=0
EXTRACT: note_on channel=5 note=53 velocity=0 time=0
EXTRACT: note_on channel=0 note=65 velocity=96 time=0.0013888895833333334
EXTRACT: note_on channel=1 note=77 velocity=90 time=0
EXTRACT: note_on channel=2 note=63 velocity=90 time=0
EXTRACT: note_on channel=2 note=70 velocity=90 time=0
EXTRACT: note_on channel=5 note=70 velocity=60 time=0
EXTRACT: note_on channel=5 note=58 velocity=60 time=0
EXTRACT: note_on channel=1 note=77 velocity=0 time=0.31527793541666665
EXTRACT: note_on channel=5 note=58 velocity=0 time=0.016666675
EXTRACT: note_on channel=1 note=74 velocity=90 time=0.0013888895833333334
EXTRACT: note_on channel=5 note=46 velocity=60 time=0
EXTRACT: note_on channel=5 note=53 velocity=60 time=0
EXTRACT: note_on channel=0 note=65 velocity=0 time=0.16527786041666667
EXTRACT: note_on channel=2 note=63 velocity=0 time=0
EXTRACT: note_on channel=2 note=70 velocity=0 time=0
EXTRACT: note_on channel=0 note=62 velocity=96 time=0.0013888895833333334
EXTRACT: note_on channel=2 note=62 velocity=90 time=0
EXTRACT: note_on channel=2 note=69 velocity=90 time=0
EXTRACT: note_on channel=1 note=74 velocity=0 time=0.14861118541666668
EXTRACT: note_on channel=0 note=62 velocity=0 time=0.016666675
EXTRACT: note_on channel=2 note=62 velocity=0 time=0
EXTRACT: note_on channel=2 note=69 velocity=0 time=0
EXTRACT: note_on channel=5 note=70 velocity=0 time=0
EXTRACT: note_on channel=0 note=62 velocity=96 time=0.0013888895833333334
EXTRACT: note_on channel=1 note=74 velocity=90 time=0
EXTRACT: note_on channel=2 note=62 velocity=90 time=0
EXTRACT: note_on channel=2 note=65 velocity=90 time=0
EXTRACT: note_on channel=5 note=65 velocity=60 time=0
EXTRACT: note_on channel=1 note=74 velocity=0 time=0.31527793541666665
EXTRACT: note_on channel=5 note=46 velocity=0 time=0.016666675
EXTRACT: note_on channel=5 note=53 velocity=0 time=0
EXTRACT: note_on channel=1 note=72 velocity=90 time=0.0013888895833333334
EXTRACT: note_on channel=5 note=53 velocity=60 time=0
EXTRACT: note_on channel=5 note=60 velocity=60 time=0
EXTRACT: note_on channel=0 note=62 velocity=0 time=0.16527786041666667
EXTRACT: note_on channel=2 note=62 velocity=0 time=0
EXTRACT: note_on channel=2 note=65 velocity=0 time=0
EXTRACT: note_on channel=0 note=60 velocity=96 time=0.0013888895833333334
EXTRACT: note_on channel=2 note=60 velocity=90 time=0
EXTRACT: note_on channel=2 note=63 velocity=90 time=0
EXTRACT: note_on channel=1 note=72 velocity=0 time=0.14861118541666668
EXTRACT: note_on channel=0 note=60 velocity=0 time=0.016666675
EXTRACT: note_on channel=2 note=60 velocity=0 time=0
EXTRACT: note_on channel=2 note=63 velocity=0 time=0
EXTRACT: note_on channel=5 note=65 velocity=0 time=0
EXTRACT: note_on channel=0 note=58 velocity=96 time=0.0013888895833333334
EXTRACT: note_on channel=1 note=70 velocity=90 time=0
EXTRACT: note_on channel=2 note=58 velocity=90 time=0
EXTRACT: note_on channel=5 note=70 velocity=60 time=0
EXTRACT: note_on channel=1 note=70 velocity=0 time=0.6319447604166667
EXTRACT: note_on channel=0 note=58 velocity=0 time=0.03333335
EXTRACT: note_on channel=2 note=58 velocity=0 time=0
EXTRACT: note_on channel=5 note=70 velocity=0 time=0
EXTRACT: note_on channel=5 note=53 velocity=0 time=0
EXTRACT: note_on channel=5 note=60 velocity=0 time=0
EXTRACT: note_on channel=1 note=77 velocity=90 time=0.0013888895833333334
EXTRACT: note_on channel=2 note=67 velocity=90 time=0
EXTRACT: note_on channel=5 note=69 velocity=60 time=0
EXTRACT: note_on channel=5 note=72 velocity=60 time=0
EXTRACT: note_on channel=5 note=41 velocity=60 time=0
EXTRACT: note_on channel=2 note=67 velocity=0 time=0.3319446104166667
EXTRACT: note_on channel=5 note=69 velocity=0 time=0
EXTRACT: note_on channel=5 note=72 velocity=0 time=0
EXTRACT: note_on channel=0 note=65 velocity=96 time=0.0013888895833333334
EXTRACT: note_on channel=2 note=65 velocity=90 time=0
EXTRACT: note_on channel=2 note=69 velocity=90 time=0
EXTRACT: note_on channel=5 note=65 velocity=60 time=0
EXTRACT: note_on channel=5 note=69 velocity=60 time=0
EXTRACT: note_on channel=5 note=41 velocity=0 time=0.16527786041666667
EXTRACT: note_on channel=5 note=48 velocity=60 time=0.0013888895833333334
EXTRACT: note_on channel=1 note=77 velocity=0 time=0.13194451041666666
EXTRACT: note_on channel=0 note=65 velocity=0 time=0.03333335
EXTRACT: note_on channel=2 note=65 velocity=0 time=0
EXTRACT: note_on channel=2 note=69 velocity=0 time=0
EXTRACT: note_on channel=5 note=65 velocity=0 time=0
EXTRACT: note_on channel=5 note=69 velocity=0 time=0
EXTRACT: note_on channel=5 note=48 velocity=0 time=0
EXTRACT: note_on channel=0 note=67 velocity=96 time=0.0013888895833333334
EXTRACT: note_on channel=1 note=79 velocity=90 time=0
EXTRACT: note_on channel=2 note=65 velocity=90 time=0
EXTRACT: note_on channel=2 note=70 velocity=90 time=0
EXTRACT: note_on channel=5 note=63 velocity=60 time=0
EXTRACT: note_on channel=5 note=67 velocity=60 time=0
EXTRACT: note_on channel=5 note=70 velocity=60 time=0
EXTRACT: note_on channel=5 note=53 velocity=60 time=0
EXTRACT: note_on channel=1 note=79 velocity=0 time=0.31527793541666665
EXTRACT: note_on channel=0 note=67 velocity=0 time=0.016666675
EXTRACT: note_on channel=2 note=65 velocity=0 time=0
EXTRACT: note_on channel=2 note=70 velocity=0 time=0
EXTRACT: note_on channel=5 note=63 velocity=0 time=0
EXTRACT: note_on channel=5 note=67 velocity=0 time=0
EXTRACT: note_on channel=5 note=70 velocity=0 time=0
EXTRACT: note_on channel=5 note=53 velocity=0 time=0
EXTRACT: note_on channel=0 note=62 velocity=96 time=0.0013888895833333334
EXTRACT: note_on channel=1 note=74 velocity=90 time=0
EXTRACT: note_on channel=2 note=67 velocity=90 time=0
EXTRACT: note_on channel=2 note=72 velocity=90 time=0
EXTRACT: note_on channel=5 note=65 velocity=60 time=0
EXTRACT: note_on channel=5 note=70 velocity=60 time=0
EXTRACT: note_on channel=5 note=41 velocity=60 time=0
EXTRACT: note_on channel=1 note=74 velocity=0 time=0.31527793541666665
EXTRACT: note_on channel=0 note=62 velocity=0 time=0.016666675
EXTRACT: note_on channel=2 note=67 velocity=0 time=0
EXTRACT: note_on channel=2 note=72 velocity=0 time=0
EXTRACT: note_on channel=5 note=65 velocity=0 time=0
EXTRACT: note_on channel=5 note=70 velocity=0 time=0
EXTRACT: note_on channel=0 note=62 velocity=96 time=0.0013888895833333334
EXTRACT: note_on channel=1 note=74 velocity=90 time=0
EXTRACT: note_on channel=2 note=62 velocity=90 time=0
EXTRACT: note_on channel=5 note=60 velocity=60 time=0
EXTRACT: note_on channel=2 note=62 velocity=0 time=0.16527786041666667
EXTRACT: note_on channel=2 note=60 velocity=90 time=0.0013888895833333334
EXTRACT: note_on channel=1 note=74 velocity=0 time=0.14861118541666668
EXTRACT: note_on channel=2 note=60 velocity=0 time=0.016666675
EXTRACT: note_on channel=5 note=41 velocity=0 time=0
EXTRACT: note_on channel=1 note=70 velocity=90 time=0.0013888895833333334
EXTRACT: note_on channel=2 note=62 velocity=90 time=0
EXTRACT: note_on channel=5 note=53 velocity=60 time=0
EXTRACT: note_on channel=2 note=62 velocity=0 time=0.16527786041666667
EXTRACT: note_on channel=2 note=60 velocity=90 time=0.0013888895833333334
EXTRACT: note_on channel=1 note=70 velocity=0 time=0.14861118541666668
EXTRACT: note_on channel=2 note=60 velocity=0 time=0.016666675
EXTRACT: note_on channel=5 note=60 velocity=0 time=0
EXTRACT: note_on channel=5 note=53 velocity=0 time=0
EXTRACT: note_on channel=1 note=74 velocity=90 time=0.0013888895833333334
EXTRACT: note_on channel=2 note=58 velocity=90 time=0
EXTRACT: note_on channel=5 note=62 velocity=80 time=0
EXTRACT: note_on channel=5 note=57 velocity=80 time=0
EXTRACT: note_on channel=5 note=60 velocity=80 time=0
EXTRACT: note_on channel=2 note=58 velocity=0 time=0.16527786041666667
EXTRACT: note_on channel=2 note=60 velocity=90 time=0.0013888895833333334
EXTRACT: note_on channel=2 note=60 velocity=0 time=0.16527786041666667
EXTRACT: note_on channel=5 note=62 velocity=0 time=0
EXTRACT: note_on channel=5 note=57 velocity=0 time=0
EXTRACT: note_on channel=5 note=60 velocity=0 time=0
EXTRACT: note_on channel=2 note=58 velocity=90 time=0.0013888895833333334
EXTRACT: note_on channel=5 note=63 velocity=80 time=0
EXTRACT: note_on channel=5 note=53 velocity=80 time=0
EXTRACT: note_on channel=2 note=58 velocity=0 time=0.16527786041666667
EXTRACT: note_on channel=5 note=63 velocity=0 time=0
EXTRACT: note_on channel=2 note=60 velocity=90 time=0.0013888895833333334
EXTRACT: note_on channel=5 note=65 velocity=80 time=0
EXTRACT: note_on channel=1 note=74 velocity=0 time=0.13194451041666666
EXTRACT: note_on channel=0 note=62 velocity=0 time=0.03333335
EXTRACT: note_on channel=2 note=60 velocity=0 time=0
EXTRACT: note_on channel=5 note=65 velocity=0 time=0
EXTRACT: note_on channel=5 note=53 velocity=0 time=0
EXTRACT: note_on channel=1 note=77 velocity=90 time=0.0013888895833333334
EXTRACT: note_on channel=2 note=63 velocity=90 time=0
EXTRACT: note_on channel=5 note=67 velocity=80 time=0
EXTRACT: note_on channel=5 note=43 velocity=80 time=0
EXTRACT: note_on channel=2 note=63 velocity=0 time=0.16527786041666667
EXTRACT: note_on channel=2 note=65 velocity=90 time=0.0013888895833333334
EXTRACT: note_on channel=2 note=65 velocity=0 time=0.16527786041666667
EXTRACT: note_on channel=5 note=67 velocity=0 time=0
EXTRACT: note_on channel=0 note=65 velocity=96 time=0.0013888895833333334
EXTRACT: note_on channel=2 note=65 velocity=90 time=0
EXTRACT: note_on channel=5 note=65 velocity=80 time=0
EXTRACT: note_on channel=5 note=43 velocity=0 time=0.16527786041666667
EXTRACT: note_on channel=5 note=50 velocity=80 time=0.0013888895833333334
EXTRACT: note_on channel=1 note=77 velocity=0 time=0.13194451041666666
EXTRACT: note_on channel=0 note=65 velocity=0 time=0.03333335
EXTRACT: note_on channel=2 note=65 velocity=0 time=0
EXTRACT: note_on channel=5 note=65 velocity=0 time=0
EXTRACT: note_on channel=5 note=50 velocity=0 time=0
EXTRACT: note_on channel=0 note=65 velocity=96 time=0.0013888895833333334
EXTRACT: note_on channel=1 note=77 velocity=90 time=0
EXTRACT: note_on channel=2 note=67 velocity=90 time=0
EXTRACT: note_on channel=2 note=75 velocity=90 time=0
EXTRACT: note_on channel=5 note=58 velocity=80 time=0
EXTRACT: note_on channel=5 note=62 velocity=80 time=0
EXTRACT: note_on channel=5 note=65 velocity=80 time=0
EXTRACT: note_on channel=5 note=55 velocity=80 time=0
EXTRACT: note_on channel=1 note=77 velocity=0 time=0.31527793541666665
EXTRACT: note_on channel=2 note=67 velocity=0 time=0.016666675
EXTRACT: note_on channel=2 note=75 velocity=0 time=0
EXTRACT: note_on channel=5 note=58 velocity=0 time=0
EXTRACT: note_on channel=5 note=62 velocity=0 time=0
EXTRACT: note_on channel=5 note=65 velocity=0 time=0
EXTRACT: note_on channel=5 note=55 velocity=0 time=0
EXTRACT: note_on channel=1 note=74 velocity=90 time=0.0013888895833333334
EXTRACT: note_on channel=2 note=65 velocity=90 time=0
EXTRACT: note_on channel=2 note=74 velocity=90 time=0
EXTRACT: note_on channel=5 note=62 velocity=80 time=0
EXTRACT: note_on channel=5 note=65 velocity=80 time=0
EXTRACT: note_on channel=5 note=69 velocity=80 time=0
EXTRACT: note_on channel=5 note=43 velocity=80 time=0
EXTRACT: note_on channel=0 note=65 velocity=0 time=0.16527786041666667
EXTRACT: note_on channel=0 note=62 velocity=96 time=0.0013888895833333334
EXTRACT: note_on channel=1 note=74 velocity=0 time=0.14861118541666668
EXTRACT: note_on channel=0 note=62 velocity=0 time=0.016666675
EXTRACT: note_on channel=2 note=65 velocity=0 time=0
EXTRACT: note_on channel=2 note=74 velocity=0 time=0
EXTRACT: note_on channel=5 note=62 velocity=0 time=0
EXTRACT: note_on channel=5 note=65 velocity=0 time=0
EXTRACT: note_on channel=5 note=69 velocity=0 time=0
EXTRACT: note_on channel=5 note=43 velocity=0 time=0
EXTRACT: note_on channel=0 note=62 velocity=96 time=0.0013888895833333334
EXTRACT: note_on channel=1 note=74 velocity=90 time=0
EXTRACT: note_on channel=2 note=60 velocity=90 time=0
EXTRACT: note_on channel=2 note=65 velocity=90 time=0
EXTRACT: note_on channel=2 note=72 velocity=90 time=0
EXTRACT: note_on channel=5 note=74 velocity=80 time=0
EXTRACT: note_on channel=5 note=50 velocity=80 time=0
EXTRACT: note_on channel=5 note=55 velocity=80 time=0
EXTRACT: note_on channel=1 note=74 velocity=0 time=0.31527793541666665
EXTRACT: note_on channel=5 note=74 velocity=0 time=0.016666675
EXTRACT: note_on channel=1 note=72 velocity=90 time=0.0013888895833333334
EXTRACT: note_on channel=5 note=72 velocity=80 time=0
EXTRACT: note_on channel=0 note=62 velocity=0 time=0.16527786041666667
EXTRACT: note_on channel=0 note=60 velocity=96 time=0.0013888895833333334
EXTRACT: note_on channel=1 note=72 velocity=0 time=0.14861118541666668
EXTRACT: note_on channel=0 note=60 velocity=0 time=0.016666675
EXTRACT: note_on channel=2 note=60 velocity=0 time=0
EXTRACT: note_on channel=2 note=65 velocity=0 time=0
EXTRACT: note_on channel=2 note=72 velocity=0 time=0
EXTRACT: note_on channel=5 note=72 velocity=0 time=0
EXTRACT: note_on channel=5 note=50 velocity=0 time=0
EXTRACT: note_on channel=5 note=55 velocity=0 time=0
EXTRACT: note_on channel=0 note=58 velocity=96 time=0.0013888895833333334
EXTRACT: note_on channel=1 note=72 velocity=90 time=0
EXTRACT: note_on channel=2 note=58 velocity=90 time=0
EXTRACT: note_on channel=2 note=63 velocity=90 time=0
EXTRACT: note_on channel=2 note=70 velocity=90 time=0
EXTRACT: note_on channel=5 note=70 velocity=80 time=0
EXTRACT: note_on channel=5 note=74 velocity=80 time=0
EXTRACT: note_on channel=5 note=77 velocity=80 time=0
EXTRACT: note_on channel=5 note=55 velocity=80 time=0
EXTRACT: note_on channel=5 note=55 velocity=0 time=0.3319446104166667
EXTRACT: note_on channel=5 note=55 velocity=80 time=0.0013888895833333334
EXTRACT: note_on channel=5 note=58 velocity=80 time=0
EXTRACT: note_on channel=1 note=72 velocity=0 time=0.2986112604166667
EXTRACT: note_on channel=0 note=58 velocity=0 time=0.03333335
EXTRACT: note_on channel=2 note=58 velocity=0 time=0
EXTRACT: note_on channel=2 note=63 velocity=0 time=0
EXTRACT: note_on channel=2 note=70 velocity=0 time=0
EXTRACT: note_on channel=5 note=70 velocity=0 time=0
EXTRACT: note_on channel=5 note=74 velocity=0 time=0
EXTRACT: note_on channel=5 note=77 velocity=0 time=0
EXTRACT: note_on channel=5 note=55 velocity=0 time=0
EXTRACT: note_on channel=5 note=58 velocity=0 time=0
EXTRACT: note_on channel=1 note=75 velocity=90 time=0.0013888895833333334
EXTRACT: note_on channel=2 note=63 velocity=90 time=0
EXTRACT: note_on channel=2 note=75 velocity=90 time=0
EXTRACT: note_on channel=5 note=70 velocity=80 time=0
EXTRACT: note_on channel=5 note=39 velocity=80 time=0
EXTRACT: note_on channel=2 note=63 velocity=0 time=0.3319446104166667
EXTRACT: note_on channel=2 note=75 velocity=0 time=0
EXTRACT: note_on channel=5 note=70 velocity=0 time=0
EXTRACT: note_on channel=0 note=63 velocity=96 time=0.0013888895833333334
EXTRACT: note_on channel=2 note=63 velocity=90 time=0
EXTRACT: note_on channel=2 note=74 velocity=90 time=0
EXTRACT: note_on channel=5 note=63 velocity=80 time=0
EXTRACT: note_on channel=0 note=63 velocity=0 time=0.16527786041666667
EXTRACT: note_on channel=5 note=39 velocity=0 time=0
EXTRACT: note_on channel=0 note=63 velocity=96 time=0.0013888895833333334
EXTRACT: note_on channel=5 note=46 velocity=80 time=0
EXTRACT: note_on channel=1 note=75 velocity=0 time=0.13194451041666666
EXTRACT: note_on channel=0 note=63 velocity=0 time=0.03333335
EXTRACT: note_on channel=2 note=63 velocity=0 time=0
EXTRACT: note_on channel=2 note=74 velocity=0 time=0
EXTRACT: note_on channel=5 note=63 velocity=0 time=0
EXTRACT: note_on channel=5 note=46 velocity=0 time=0
EXTRACT: note_on channel=0 note=63 velocity=96 time=0.0013888895833333334
EXTRACT: note_on channel=1 note=74 velocity=90 time=0
EXTRACT: note_on channel=2 note=75 velocity=90 time=0
EXTRACT: note_on channel=5 note=63 velocity=80 time=0
EXTRACT: note_on channel=5 note=70 velocity=80 time=0
EXTRACT: note_on channel=5 note=75 velocity=80 time=0
EXTRACT: note_on channel=5 note=51 velocity=80 time=0
EXTRACT: note_on channel=0 note=63 velocity=0 time=0.16527786041666667
EXTRACT: note_on channel=2 note=75 velocity=0 time=0
EXTRACT: note_on channel=0 note=62 velocity=96 time=0.0013888895833333334
EXTRACT: note_on channel=2 note=62 velocity=90 time=0
EXTRACT: note_on channel=1 note=74 velocity=0 time=0.14861118541666668
EXTRACT: note_on channel=0 note=62 velocity=0 time=0.016666675
EXTRACT: note_on channel=2 note=62 velocity=0 time=0
EXTRACT: note_on channel=5 note=63 velocity=0 time=0
EXTRACT: note_on channel=5 note=70 velocity=0 time=0
EXTRACT: note_on channel=5 note=75 velocity=0 time=0
EXTRACT: note_on channel=5 note=51 velocity=0 time=0
EXTRACT: note_on channel=0 note=63 velocity=96 time=0.0013888895833333334
EXTRACT: note_on channel=1 note=75 velocity=90 time=0
EXTRACT: note_on channel=2 note=63 velocity=90 time=0
EXTRACT: note_on channel=5 note=63 velocity=80 time=0
EXTRACT: note_on channel=5 note=70 velocity=80 time=0
EXTRACT: note_on channel=5 note=43 velocity=80 time=0
EXTRACT: note_on channel=5 note=46 velocity=80 time=0
EXTRACT: note_on channel=5 note=50 velocity=80 time=0
EXTRACT: note_on channel=2 note=63 velocity=0 time=0.16527786041666667
EXTRACT: note_on channel=2 note=62 velocity=90 time=0.0013888895833333334
EXTRACT: note_on channel=1 note=75 velocity=0 time=0.14861118541666668
EXTRACT: note_on channel=0 note=63 velocity=0 time=0.016666675
EXTRACT: note_on channel=2 note=62 velocity=0 time=0
EXTRACT: note_on channel=5 note=63 velocity=0 time=0
EXTRACT: note_on channel=5 note=70 velocity=0 time=0
EXTRACT: note_on channel=0 note=62 velocity=96 time=0.0013888895833333334
EXTRACT: note_on channel=1 note=74 velocity=90 time=0
EXTRACT: note_on channel=2 note=63 velocity=90 time=0
EXTRACT: note_on channel=5 note=63 velocity=80 time=0
EXTRACT: note_on channel=5 note=67 velocity=80 time=0
EXTRACT: note_on channel=5 note=70 velocity=80 time=0
EXTRACT: note_on channel=2 note=63 velocity=0 time=0.16527786041666667
EXTRACT: note_on channel=2 note=62 velocity=90 time=0.0013888895833333334
EXTRACT: note_on channel=2 note=62 velocity=0 time=0.16527786041666667
EXTRACT: note_on channel=5 note=63 velocity=0 time=0
EXTRACT: note_on channel=5 note=67 velocity=0 time=0
EXTRACT: note_on channel=5 note=70 velocity=0 time=0
EXTRACT: note_on channel=5 note=43 velocity=0 time=0
EXTRACT: note_on channel=5 note=46 velocity=0 time=0
EXTRACT: note_on channel=5 note=50 velocity=0 time=0
EXTRACT: note_on channel=2 note=63 velocity=90 time=0.0013888895833333334
EXTRACT: note_on channel=5 note=62 velocity=80 time=0
EXTRACT: note_on channel=5 note=43 velocity=80 time=0
EXTRACT: note_on channel=5 note=55 velocity=80 time=0
EXTRACT: note_on channel=2 note=63 velocity=0 time=0.16527786041666667
EXTRACT: note_on channel=5 note=62 velocity=0 time=0
EXTRACT: note_on channel=2 note=74 velocity=90 time=0.0013888895833333334
EXTRACT: note_on channel=5 note=63 velocity=80 time=0
EXTRACT: note_on channel=1 note=74 velocity=0 time=0.13194451041666666
EXTRACT: note_on channel=2 note=74 velocity=0 time=0.03333335
EXTRACT: note_on channel=5 note=63 velocity=0 time=0
EXTRACT: note_on channel=5 note=43 velocity=0 time=0
EXTRACT: note_on channel=5 note=55 velocity=0 time=0
EXTRACT: note_on channel=1 note=75 velocity=80 time=0.0013888895833333334
EXTRACT: note_on channel=2 note=63 velocity=90 time=0
EXTRACT: note_on channel=2 note=75 velocity=90 time=0
EXTRACT: note_on channel=5 note=58 velocity=80 time=0
EXTRACT: note_on channel=5 note=70 velocity=80 time=0
EXTRACT: note_on channel=5 note=50 velocity=80 time=0
EXTRACT: note_on channel=5 note=55 velocity=80 time=0
EXTRACT: note_on channel=1 note=75 velocity=0 time=0.15694452291666666
EXTRACT: note_on channel=1 note=74 velocity=80 time=0.009722227083333333
EXTRACT: note_on channel=1 note=74 velocity=0 time=0.15694452291666666
EXTRACT: note_on channel=1 note=72 velocity=80 time=0.009722227083333333
EXTRACT: note_on channel=1 note=72 velocity=0 time=0.15694452291666666
EXTRACT: note_on channel=1 note=70 velocity=80 time=0.009722227083333333
EXTRACT: note_on channel=1 note=70 velocity=0 time=0.15694452291666666
EXTRACT: note_on channel=0 note=62 velocity=0 time=0.0083333375
EXTRACT: note_on channel=2 note=63 velocity=0 time=0
EXTRACT: note_on channel=2 note=75 velocity=0 time=0
EXTRACT: note_on channel=5 note=58 velocity=0 time=0
EXTRACT: note_on channel=5 note=70 velocity=0 time=0
EXTRACT: note_on channel=5 note=50 velocity=0 time=0
EXTRACT: note_on channel=5 note=55 velocity=0 time=0
EXTRACT: note_on channel=1 note=72 velocity=80 time=0.0013888895833333334
EXTRACT: note_on channel=2 note=67 velocity=90 time=0
EXTRACT: note_on channel=2 note=74 velocity=90 time=0
EXTRACT: note_on channel=5 note=60 velocity=90 time=0
EXTRACT: note_on channel=5 note=67 velocity=90 time=0
EXTRACT: note_on channel=5 note=46 velocity=90 time=0
EXTRACT: note_on channel=1 note=72 velocity=0 time=0.15694452291666666
EXTRACT: note_on channel=5 note=60 velocity=0 time=0.0083333375
EXTRACT: note_on channel=1 note=74 velocity=80 time=0.0013888895833333334
EXTRACT: note_on channel=1 note=74 velocity=0 time=0.15694452291666666
EXTRACT: note_on channel=2 note=67 velocity=0 time=0.0083333375
EXTRACT: note_on channel=2 note=74 velocity=0 time=0
EXTRACT: note_on channel=5 note=67 velocity=0 time=0
EXTRACT: note_on channel=0 note=65 velocity=96 time=0.0013888895833333334
EXTRACT: note_on channel=1 note=77 velocity=80 time=0
EXTRACT: note_on channel=2 note=65 velocity=90 time=0
EXTRACT: note_on channel=2 note=70 velocity=90 time=0
EXTRACT: note_on channel=5 note=65 velocity=90 time=0
EXTRACT: note_on channel=1 note=77 velocity=0 time=0.15694452291666666
EXTRACT: note_on channel=0 note=65 velocity=0 time=0.0083333375
EXTRACT: note_on channel=5 note=65 velocity=0 time=0
EXTRACT: note_on channel=5 note=46 velocity=0 time=0
EXTRACT: note_on channel=0 note=67 velocity=96 time=0.0013888895833333334
EXTRACT: note_on channel=1 note=79 velocity=80 time=0
EXTRACT: note_on channel=5 note=67 velocity=90 time=0
EXTRACT: note_on channel=5 note=53 velocity=90 time=0
EXTRACT: note_on channel=1 note=79 velocity=0 time=0.15694452291666666
EXTRACT: note_on channel=2 note=65 velocity=0 time=0.0083333375
EXTRACT: note_on channel=2 note=70 velocity=0 time=0
EXTRACT: note_on channel=5 note=67 velocity=0 time=0
EXTRACT: note_on channel=5 note=53 velocity=0 time=0
EXTRACT: note_on channel=1 note=77 velocity=80 time=0.0013888895833333334
EXTRACT: note_on channel=2 note=67 velocity=90 time=0
EXTRACT: note_on channel=2 note=74 velocity=90 time=0
EXTRACT: note_on channel=5 note=70 velocity=90 time=0
EXTRACT: note_on channel=5 note=58 velocity=90 time=0
EXTRACT: note_on channel=0 note=67 velocity=0 time=0.16527786041666667
EXTRACT: note_on channel=0 note=70 velocity=96 time=0.0013888895833333334
EXTRACT: note_on channel=2 note=67 velocity=0 time=0.16527786041666667
EXTRACT: note_on channel=2 note=74 velocity=0 time=0
EXTRACT: note_on channel=5 note=58 velocity=0 time=0
EXTRACT: note_on channel=2 note=65 velocity=90 time=0.0013888895833333334
EXTRACT: note_on channel=2 note=70 velocity=90 time=0
EXTRACT: note_on channel=5 note=46 velocity=90 time=0
EXTRACT: note_on channel=1 note=77 velocity=0 time=0.2986112604166667
EXTRACT: note_on channel=0 note=70 velocity=0 time=0.03333335
EXTRACT: note_on channel=2 note=65 velocity=0 time=0
EXTRACT: note_on channel=2 note=70 velocity=0 time=0
EXTRACT: note_on channel=5 note=70 velocity=0 time=0
EXTRACT: note_on channel=0 note=65 velocity=96 time=0.0013888895833333334
EXTRACT: note_on channel=1 note=77 velocity=80 time=0
EXTRACT: note_on channel=2 note=70 velocity=90 time=0
EXTRACT: note_on channel=2 note=77 velocity=90 time=0
EXTRACT: note_on channel=5 note=65 velocity=90 time=0
EXTRACT: note_on channel=0 note=65 velocity=0 time=0.16527786041666667
EXTRACT: note_on channel=5 note=65 velocity=0 time=0
EXTRACT: note_on channel=0 note=67 velocity=96 time=0.0013888895833333334
EXTRACT: note_on channel=5 note=67 velocity=90 time=0
EXTRACT: note_on channel=1 note=77 velocity=0 time=0.14861118541666668
EXTRACT: note_on channel=0 note=67 velocity=0 time=0.016666675
EXTRACT: note_on channel=2 note=70 velocity=0 time=0
EXTRACT: note_on channel=2 note=77 velocity=0 time=0
EXTRACT: note_on channel=5 note=67 velocity=0 time=0
EXTRACT: note_on channel=5 note=46 velocity=0 time=0
EXTRACT: note_on channel=0 note=70 velocity=96 time=0.0013888895833333334
EXTRACT: note_on channel=1 note=81 velocity=80 time=0
EXTRACT: note_on channel=2 note=70 velocity=90 time=0
EXTRACT: note_on channel=2 note=79 velocity=90 time=0
EXTRACT: note_on channel=5 note=65 velocity=90 time=0
EXTRACT: note_on channel=5 note=70 velocity=90 time=0
EXTRACT: note_on channel=5 note=53 velocity=90 time=0
EXTRACT: note_on channel=5 note=70 velocity=0 time=0.16527786041666667
EXTRACT: note_on channel=5 note=72 velocity=90 time=0.0013888895833333334
EXTRACT: note_on channel=1 note=81 velocity=0 time=0.14861118541666668
EXTRACT: note_on channel=0 note=70 velocity=0 time=0.016666675
EXTRACT: note_on channel=2 note=70 velocity=0 time=0
EXTRACT: note_on channel=2 note=79 velocity=0 time=0
EXTRACT: note_on channel=5 note=65 velocity=0 time=0
EXTRACT: note_on channel=5 note=72 velocity=0 time=0
EXTRACT: note_on channel=5 note=53 velocity=0 time=0
EXTRACT: note_on channel=0 note=72 velocity=96 time=0.0013888895833333334
EXTRACT: note_on channel=1 note=77 velocity=80 time=0
EXTRACT: note_on channel=2 note=70 velocity=90 time=0
EXTRACT: note_on channel=2 note=77 velocity=90 time=0
EXTRACT: note_on channel=5 note=65 velocity=90 time=0
EXTRACT: note_on channel=5 note=70 velocity=90 time=0
EXTRACT: note_on channel=5 note=74 velocity=90 time=0
EXTRACT: note_on channel=5 note=77 velocity=90 time=0
EXTRACT: note_on channel=5 note=58 velocity=90 time=0
EXTRACT: note_on channel=1 note=77 velocity=0 time=0.31527793541666665
EXTRACT: note_on channel=0 note=72 velocity=0 time=0.016666675
EXTRACT: note_on channel=5 note=58 velocity=0 time=0
EXTRACT: note_on channel=0 note=70 velocity=96 time=0.0013888895833333334
EXTRACT: note_on channel=1 note=82 velocity=80 time=0
EXTRACT: note_on channel=5 note=53 velocity=90 time=0
EXTRACT: note_on channel=1 note=82 velocity=0 time=0.31527793541666665
EXTRACT: note_on channel=0 note=70 velocity=0 time=0.016666675
EXTRACT: note_on channel=2 note=70 velocity=0 time=0
EXTRACT: note_on channel=2 note=77 velocity=0 time=0
EXTRACT: note_on channel=5 note=65 velocity=0 time=0
EXTRACT: note_on channel=5 note=70 velocity=0 time=0
EXTRACT: note_on channel=5 note=74 velocity=0 time=0
EXTRACT: note_on channel=5 note=77 velocity=0 time=0
EXTRACT: note_on channel=5 note=53 velocity=0 time=0
EXTRACT: note_on channel=1 note=77 velocity=80 time=0.0013888895833333334
EXTRACT: note_on channel=2 note=65 velocity=90 time=0
EXTRACT: note_on channel=2 note=77 velocity=90 time=0
EXTRACT: note_on channel=5 note=69 velocity=90 time=0
EXTRACT: note_on channel=5 note=72 velocity=90 time=0
EXTRACT: note_on channel=5 note=75 velocity=90 time=0
EXTRACT: note_on channel=5 note=41 velocity=90 time=0
EXTRACT: note_on channel=1 note=77 velocity=0 time=0.31527793541666665
EXTRACT: note_on channel=2 note=65 velocity=0 time=0.016666675
EXTRACT: note_on channel=2 note=77 velocity=0 time=0
EXTRACT: note_on channel=0 note=65 velocity=96 time=0.0013888895833333334
EXTRACT: note_on channel=1 note=77 velocity=80 time=0
EXTRACT: note_on channel=2 note=65 velocity=90 time=0
EXTRACT: note_on channel=2 note=77 velocity=90 time=0
EXTRACT: note_on channel=1 note=77 velocity=0 time=0.15694452291666666
EXTRACT: note_on channel=0 note=65 velocity=0 time=0.0083333375
EXTRACT: note_on channel=2 note=65 velocity=0 time=0
EXTRACT: note_on channel=2 note=77 velocity=0 time=0
EXTRACT: note_on channel=5 note=69 velocity=0 time=0
EXTRACT: note_on channel=5 note=72 velocity=0 time=0
EXTRACT: note_on channel=5 note=75 velocity=0 time=0
EXTRACT: note_on channel=5 note=41 velocity=0 time=0
EXTRACT: note_on channel=0 note=67 velocity=96 time=0.0013888895833333334
EXTRACT: note_on channel=1 note=79 velocity=80 time=0
EXTRACT: note_on channel=2 note=67 velocity=90 time=0
EXTRACT: note_on channel=2 note=79 velocity=90 time=0
EXTRACT: note_on channel=5 note=65 velocity=90 time=0
EXTRACT: note_on channel=5 note=69 velocity=90 time=0
EXTRACT: note_on channel=5 note=72 velocity=90 time=0
EXTRACT: note_on channel=5 note=48 velocity=90 time=0
EXTRACT: note_on channel=1 note=79 velocity=0 time=0.15694452291666666
EXTRACT: note_on channel=0 note=67 velocity=0 time=0.0083333375
EXTRACT: note_on channel=2 note=67 velocity=0 time=0
EXTRACT: note_on channel=2 note=79 velocity=0 time=0
EXTRACT: note_on channel=5 note=65 velocity=0 time=0
EXTRACT: note_on channel=5 note=69 velocity=0 time=0
EXTRACT: note_on channel=5 note=72 velocity=0 time=0
EXTRACT: note_on channel=5 note=48 velocity=0 time=0
EXTRACT: note_on channel=0 note=70 velocity=96 time=0.0013888895833333334
EXTRACT: note_on channel=1 note=79 velocity=80 time=0
EXTRACT: note_on channel=2 note=65 velocity=90 time=0
EXTRACT: note_on channel=2 note=70 velocity=90 time=0
EXTRACT: note_on channel=5 note=65 velocity=90 time=0
EXTRACT: note_on channel=5 note=70 velocity=90 time=0
EXTRACT: note_on channel=5 note=53 velocity=90 time=0
EXTRACT: note_on channel=0 note=70 velocity=0 time=0.16527786041666667
EXTRACT: note_on channel=2 note=65 velocity=0 time=0
EXTRACT: note_on channel=2 note=70 velocity=0 time=0
EXTRACT: note_on channel=0 note=67 velocity=96 time=0.0013888895833333334
EXTRACT: note_on channel=2 note=67 velocity=90 time=0
EXTRACT: note_on channel=2 note=70 velocity=90 time=0
EXTRACT: note_on channel=1 note=79 velocity=0 time=0.14861118541666668
EXTRACT: note_on channel=0 note=67 velocity=0 time=0.016666675
EXTRACT: note_on channel=2 note=67 velocity=0 time=0
EXTRACT: note_on channel=2 note=70 velocity=0 time=0
EXTRACT: note_on channel=5 note=53 velocity=0 time=0
EXTRACT: note_on channel=0 note=70 velocity=96 time=0.0013888895833333334
EXTRACT: note_on channel=1 note=74 velocity=80 time=0
EXTRACT: note_on channel=2 note=65 velocity=90 time=0
EXTRACT: note_on channel=2 note=70 velocity=90 time=0
EXTRACT: note_on channel=5 note=41 velocity=90 time=0
EXTRACT: note_on channel=1 note=74 velocity=0 time=0.15694452291666666
EXTRACT: note_on channel=0 note=70 velocity=0 time=0.0083333375
EXTRACT: note_on channel=2 note=65 velocity=0 time=0
EXTRACT: note_on channel=2 note=70 velocity=0 time=0
EXTRACT: note_on channel=0 note=67 velocity=96 time=0.0013888895833333334
EXTRACT: note_on channel=1 note=82 velocity=80 time=0
EXTRACT: note_on channel=2 note=67 velocity=90 time=0
EXTRACT: note_on channel=2 note=70 velocity=90 time=0
EXTRACT: note_on channel=1 note=82 velocity=0 time=0.15694452291666666
EXTRACT: note_on channel=0 note=67 velocity=0 time=0.0083333375
EXTRACT: note_on channel=2 note=67 velocity=0 time=0
EXTRACT: note_on channel=2 note=70 velocity=0 time=0
EXTRACT: note_on channel=5 note=65 velocity=0 time=0
EXTRACT: note_on channel=5 note=70 velocity=0 time=0
EXTRACT: note_on channel=0 note=70 velocity=96 time=0.0013888895833333334
EXTRACT: note_on channel=1 note=77 velocity=80 time=0
EXTRACT: note_on channel=2 note=69 velocity=90 time=0
EXTRACT: note_on channel=2 note=72 velocity=90 time=0
EXTRACT: note_on channel=5 note=65 velocity=90 time=0
EXTRACT: note_on channel=5 note=72 velocity=90 time=0
EXTRACT: note_on channel=1 note=77 velocity=0 time=0.31527793541666665
EXTRACT: note_on channel=0 note=70 velocity=0 time=0.016666675
EXTRACT: note_on channel=2 note=69 velocity=0 time=0
EXTRACT: note_on channel=2 note=72 velocity=0 time=0
EXTRACT: note_on channel=5 note=41 velocity=0 time=0
EXTRACT: note_on channel=0 note=70 velocity=96 time=0.0013888895833333334
EXTRACT: note_on channel=1 note=72 velocity=80 time=0
EXTRACT: note_on channel=2 note=72 velocity=90 time=0
EXTRACT: note_on channel=2 note=75 velocity=90 time=0
EXTRACT: note_on channel=5 note=53 velocity=90 time=0
EXTRACT: note_on channel=1 note=72 velocity=0 time=0.31527793541666665
EXTRACT: note_on channel=0 note=70 velocity=0 time=0.016666675
EXTRACT: note_on channel=2 note=72 velocity=0 time=0
EXTRACT: note_on channel=2 note=75 velocity=0 time=0
EXTRACT: note_on channel=5 note=53 velocity=0 time=0
EXTRACT: note_on channel=0 note=72 velocity=96 time=0.0013888895833333334
EXTRACT: note_on channel=1 note=77 velocity=80 time=0
EXTRACT: note_on channel=2 note=72 velocity=90 time=0
EXTRACT: note_on channel=2 note=77 velocity=90 time=0
EXTRACT: note_on channel=5 note=57 velocity=90 time=0
EXTRACT: note_on channel=5 note=60 velocity=90 time=0
EXTRACT: note_on channel=1 note=77 velocity=0 time=0.31527793541666665
EXTRACT: note_on channel=0 note=72 velocity=0 time=0.016666675
EXTRACT: note_on channel=5 note=65 velocity=0 time=0
EXTRACT: note_on channel=5 note=72 velocity=0 time=0
EXTRACT: note_on channel=5 note=57 velocity=0 time=0
EXTRACT: note_on channel=5 note=60 velocity=0 time=0
EXTRACT: note_on channel=0 note=74 velocity=96 time=0.0013888895833333334
EXTRACT: note_on channel=1 note=74 velocity=80 time=0
EXTRACT: note_on channel=5 note=62 velocity=90 time=0
EXTRACT: note_on channel=5 note=74 velocity=90 time=0
EXTRACT: note_on channel=5 note=53 velocity=90 time=0
EXTRACT: note_on channel=2 note=72 velocity=0 time=0.16527786041666667
EXTRACT: note_on channel=2 note=77 velocity=0 time=0
EXTRACT: note_on channel=2 note=70 velocity=90 time=0.0013888895833333334
EXTRACT: note_on channel=2 note=74 velocity=90 time=0
EXTRACT: note_on channel=1 note=74 velocity=0 time=0.14861118541666668
EXTRACT: note_on channel=0 note=74 velocity=0 time=0.016666675
EXTRACT: note_on channel=2 note=70 velocity=0 time=0
EXTRACT: note_on channel=2 note=74 velocity=0 time=0
EXTRACT: note_on channel=5 note=62 velocity=0 time=0
EXTRACT: note_on channel=5 note=74 velocity=0 time=0
EXTRACT: note_on channel=5 note=53 velocity=0 time=0
EXTRACT: note_on channel=1 note=70 velocity=90 time=0.0013888895833333334
EXTRACT: note_on channel=2 note=62 velocity=90 time=0
EXTRACT: note_on channel=2 note=70 velocity=90 time=0
EXTRACT: note_on channel=5 note=62 velocity=80 time=0
EXTRACT: note_on channel=5 note=70 velocity=80 time=0
EXTRACT: note_on channel=5 note=46 velocity=80 time=0
EXTRACT: note_on channel=1 note=70 velocity=0 time=0.15694452291666666
EXTRACT: note_on channel=1 note=74 velocity=90 time=0.009722227083333333
EXTRACT: note_on channel=1 note=74 velocity=0 time=0.15694452291666666
EXTRACT: note_on channel=0 note=74 velocity=96 time=0.009722227083333333
EXTRACT: note_on channel=1 note=77 velocity=90 time=0
EXTRACT: note_on channel=5 note=46 velocity=0 time=0.16527786041666667
EXTRACT: note_on channel=5 note=53 velocity=80 time=0.0013888895833333334
EXTRACT: note_on channel=1 note=77 velocity=0 time=0.14861118541666668
EXTRACT: note_on channel=5 note=62 velocity=0 time=0.016666675
EXTRACT: note_on channel=5 note=70 velocity=0 time=0
EXTRACT: note_on channel=5 note=53 velocity=0 time=0
EXTRACT: note_on channel=1 note=70 velocity=90 time=0.0013888895833333334
EXTRACT: note_on channel=5 note=65 velocity=80 time=0
EXTRACT: note_on channel=5 note=70 velocity=80 time=0
EXTRACT: note_on channel=5 note=58 velocity=80 time=0
EXTRACT: note_on channel=1 note=70 velocity=0 time=0.15694452291666666
EXTRACT: note_on channel=0 note=74 velocity=0 time=0.0083333375
EXTRACT: note_on channel=0 note=72 velocity=96 time=0.0013888895833333334
EXTRACT: note_on channel=1 note=74 velocity=90 time=0
EXTRACT: note_on channel=1 note=74 velocity=0 time=0.15694452291666666
EXTRACT: note_on channel=2 note=62 velocity=0 time=0.0083333375
EXTRACT: note_on channel=2 note=70 velocity=0 time=0
EXTRACT: note_on channel=5 note=58 velocity=0 time=0
EXTRACT: note_on channel=1 note=77 velocity=90 time=0.0013888895833333334
EXTRACT: note_on channel=2 note=62 velocity=90 time=0
EXTRACT: note_on channel=2 note=74 velocity=90 time=0
EXTRACT: note_on channel=5 note=46 velocity=80 time=0
EXTRACT: note_on channel=0 note=72 velocity=0 time=0.16527786041666667
EXTRACT: note_on channel=0 note=74 velocity=96 time=0.0013888895833333334
EXTRACT: note_on channel=1 note=77 velocity=0 time=0.14861118541666668
EXTRACT: note_on channel=0 note=74 velocity=0 time=0.016666675
EXTRACT: note_on channel=2 note=62 velocity=0 time=0
EXTRACT: note_on channel=2 note=74 velocity=0 time=0
EXTRACT: note_on channel=5 note=65 velocity=0 time=0
EXTRACT: note_on channel=5 note=70 velocity=0 time=0
EXTRACT: note_on channel=0 note=75 velocity=96 time=0.0013888895833333334
EXTRACT: note_on channel=1 note=75 velocity=90 time=0
EXTRACT: note_on channel=2 note=63 velocity=90 time=0
EXTRACT: note_on channel=2 note=75 velocity=90 time=0
EXTRACT: note_on channel=5 note=75 velocity=80 time=0
EXTRACT: note_on channel=1 note=75 velocity=0 time=0.31527793541666665
EXTRACT: note_on channel=0 note=75 velocity=0 time=0.016666675
EXTRACT: note_on channel=2 note=63 velocity=0 time=0
EXTRACT: note_on channel=2 note=75 velocity=0 time=0
EXTRACT: note_on channel=5 note=46 velocity=0 time=0
EXTRACT: note_on channel=0 note=74 velocity=96 time=0.0013888895833333334
EXTRACT: note_on channel=1 note=72 velocity=90 time=0
EXTRACT: note_on channel=2 note=62 velocity=90 time=0
EXTRACT: note_on channel=2 note=74 velocity=90 time=0
EXTRACT: note_on channel=5 note=53 velocity=80 time=0
EXTRACT: note_on channel=5 note=75 velocity=0 time=0.16527786041666667
EXTRACT: note_on channel=5 note=74 velocity=80 time=0.0013888895833333334
EXTRACT: note_on channel=1 note=72 velocity=0 time=0.14861118541666668
EXTRACT: note_on channel=0 note=74 velocity=0 time=0.016666675
EXTRACT: note_on channel=2 note=62 velocity=0 time=0
EXTRACT: note_on channel=2 note=74 velocity=0 time=0
EXTRACT: note_on channel=5 note=74 velocity=0 time=0
EXTRACT: note_on channel=5 note=53 velocity=0 time=0
EXTRACT: note_on channel=0 note=72 velocity=96 time=0.0013888895833333334
EXTRACT: note_on channel=1 note=74 velocity=90 time=0
EXTRACT: note_on channel=2 note=60 velocity=90 time=0
EXTRACT: note_on channel=2 note=72 velocity=90 time=0
EXTRACT: note_on channel=5 note=72 velocity=80 time=0
EXTRACT: note_on channel=5 note=58 velocity=80 time=0
EXTRACT: note_on channel=1 note=74 velocity=0 time=0.31527793541666665
EXTRACT: note_on channel=0 note=72 velocity=0 time=0.016666675
EXTRACT: note_on channel=2 note=60 velocity=0 time=0
EXTRACT: note_on channel=2 note=72 velocity=0 time=0
EXTRACT: note_on channel=5 note=58 velocity=0 time=0
EXTRACT: note_on channel=0 note=70 velocity=96 time=0.0013888895833333334
EXTRACT: note_on channel=1 note=70 velocity=90 time=0
EXTRACT: note_on channel=2 note=58 velocity=90 time=0
EXTRACT: note_on channel=2 note=70 velocity=90 time=0
EXTRACT: note_on channel=5 note=53 velocity=80 time=0
EXTRACT: note_on channel=5 note=72 velocity=0 time=0.16527786041666667
EXTRACT: note_on channel=5 note=70 velocity=80 time=0.0013888895833333334
EXTRACT: note_on channel=1 note=70 velocity=0 time=0.14861118541666668
EXTRACT: note_on channel=2 note=58 velocity=0 time=0.016666675
EXTRACT: note_on channel=2 note=70 velocity=0 time=0
EXTRACT: note_on channel=5 note=53 velocity=0 time=0
EXTRACT: note_on channel=1 note=77 velocity=90 time=0.0013888895833333334
EXTRACT: note_on channel=2 note=58 velocity=90 time=0
EXTRACT: note_on channel=2 note=70 velocity=90 time=0
EXTRACT: note_on channel=5 note=65 velocity=80 time=0
EXTRACT: note_on channel=5 note=39 velocity=80 time=0
EXTRACT: note_on channel=1 note=77 velocity=0 time=0.15694452291666666
EXTRACT: note_on channel=1 note=75 velocity=90 time=0.009722227083333333
EXTRACT: note_on channel=1 note=75 velocity=0 time=0.15694452291666666
EXTRACT: note_on channel=0 note=70 velocity=0 time=0.0083333375
EXTRACT: note_on channel=2 note=58 velocity=0 time=0
EXTRACT: note_on channel=2 note=70 velocity=0 time=0
EXTRACT: note_on channel=5 note=70 velocity=0 time=0
EXTRACT: note_on channel=5 note=65 velocity=0 time=0
EXTRACT: note_on channel=0 note=70 velocity=96 time=0.0013888895833333334
EXTRACT: note_on channel=1 note=74 velocity=90 time=0
EXTRACT: note_on channel=2 note=65 velocity=90 time=0
EXTRACT: note_on channel=2 note=77 velocity=90 time=0
EXTRACT: note_on channel=5 note=70 velocity=80 time=0
EXTRACT: note_on channel=5 note=77 velocity=80 time=0
EXTRACT: note_on channel=1 note=74 velocity=0 time=0.15694452291666666
EXTRACT: note_on channel=5 note=39 velocity=0 time=0.0083333375
EXTRACT: note_on channel=1 note=72 velocity=90 time=0.0013888895833333334
EXTRACT: note_on channel=5 note=46 velocity=80 time=0
EXTRACT: note_on channel=1 note=72 velocity=0 time=0.15694452291666666
EXTRACT: note_on channel=0 note=70 velocity=0 time=0.0083333375
EXTRACT: note_on channel=2 note=65 velocity=0 time=0
EXTRACT: note_on channel=2 note=77 velocity=0 time=0
EXTRACT: note_on channel=5 note=70 velocity=0 time=0
EXTRACT: note_on channel=5 note=77 velocity=0 time=0
EXTRACT: note_on channel=5 note=46 velocity=0 time=0
EXTRACT: note_on channel=1 note=70 velocity=90 time=0.0013888895833333334
EXTRACT: note_on channel=2 note=63 velocity=90 time=0
EXTRACT: note_on channel=2 note=75 velocity=90 time=0
EXTRACT: note_on channel=5 note=63 velocity=80 time=0
EXTRACT: note_on channel=5 note=70 velocity=80 time=0
EXTRACT: note_on channel=5 note=75 velocity=80 time=0
EXTRACT: note_on channel=5 note=51 velocity=80 time=0
EXTRACT: note_on channel=1 note=70 velocity=0 time=0.15694452291666666
EXTRACT: note_on channel=1 note=72 velocity=90 time=0.009722227083333333
EXTRACT: note_on channel=1 note=72 velocity=0 time=0.15694452291666666
EXTRACT: note_on channel=2 note=63 velocity=0 time=0.0083333375
EXTRACT: note_on channel=2 note=75 velocity=0 time=0
EXTRACT: note_on channel=5 note=51 velocity=0 time=0
EXTRACT: note_on channel=1 note=74 velocity=90 time=0.0013888895833333334
EXTRACT: note_on channel=2 note=63 velocity=90 time=0
EXTRACT: note_on channel=2 note=70 velocity=90 time=0
EXTRACT: note_on channel=5 note=39 velocity=80 time=0
EXTRACT: note_on channel=1 note=74 velocity=0 time=0.15694452291666666
EXTRACT: note_on channel=1 note=75 velocity=90 time=0.009722227083333333
EXTRACT: note_on channel=1 note=75 velocity=0 time=0.15694452291666666
EXTRACT: note_on channel=2 note=63 velocity=0 time=0.0083333375
EXTRACT: note_on channel=2 note=70 velocity=0 time=0
EXTRACT: note_on channel=5 note=63 velocity=0 time=0
EXTRACT: note_on channel=5 note=70 velocity=0 time=0
EXTRACT: note_on channel=5 note=75 velocity=0 time=0
EXTRACT: note_on channel=5 note=39 velocity=0 time=0
EXTRACT: note_on channel=1 note=75 velocity=90 time=0.0013888895833333334
EXTRACT: note_on channel=2 note=63 velocity=90 time=0
EXTRACT: note_on channel=2 note=75 velocity=90 time=0
EXTRACT: note_on channel=5 note=63 velocity=80 time=0
EXTRACT: note_on channel=5 note=51 velocity=80 time=0
EXTRACT: note_on channel=5 note=70 velocity=80 time=0.08750004375
EXTRACT: note_on channel=5 note=74 velocity=80 time=0.08888893333333334
EXTRACT: note_on channel=2 note=63 velocity=0 time=0.15555563333333333
EXTRACT: note_on channel=2 note=75 velocity=0 time=0
EXTRACT: note_on channel=5 note=51 velocity=0 time=0
EXTRACT: note_on channel=2 note=62 velocity=90 time=0.0013888895833333334
EXTRACT: note_on channel=2 note=74 velocity=90 time=0
EXTRACT: note_on channel=5 note=39 velocity=80 time=0
EXTRACT: note_on channel=2 note=62 velocity=0 time=0.3319446104166667
EXTRACT: note_on channel=2 note=74 velocity=0 time=0
EXTRACT: note_on channel=5 note=39 velocity=0 time=0
EXTRACT: note_on channel=2 note=62 velocity=90 time=0.0013888895833333334
EXTRACT: note_on channel=2 note=74 velocity=90 time=0
EXTRACT: note_on channel=5 note=51 velocity=80 time=0
EXTRACT: note_on channel=5 note=55 velocity=80 time=0
EXTRACT: note_on channel=1 note=75 velocity=0 time=0.28194458541666667
EXTRACT: note_on channel=2 note=62 velocity=0 time=0.050000025000000003
EXTRACT: note_on channel=2 note=74 velocity=0 time=0
EXTRACT: note_on channel=1 note=70 velocity=90 time=0.0013888895833333334
EXTRACT: note_on channel=2 note=58 velocity=90 time=0
EXTRACT: note_on channel=2 note=70 velocity=90 time=0
EXTRACT: note_on channel=1 note=70 velocity=0 time=0.31527793541666665
EXTRACT: note_on channel=5 note=70 velocity=0 time=0.015277785416666667
EXTRACT: note_on channel=5 note=74 velocity=0 time=0
EXTRACT: note_on channel=2 note=58 velocity=0 time=0.0013888895833333334
EXTRACT: note_on channel=2 note=70 velocity=0 time=0
EXTRACT: note_on channel=5 note=63 velocity=0 time=0
EXTRACT: note_on channel=5 note=51 velocity=0 time=0
EXTRACT: note_on channel=5 note=55 velocity=0 time=0
EXTRACT: note_on channel=1 note=72 velocity=80 time=0
EXTRACT: note_on channel=2 note=65 velocity=60 time=0
EXTRACT: note_on channel=2 note=74 velocity=60 time=0
EXTRACT: note_on channel=5 note=60 velocity=90 time=0
EXTRACT: note_on channel=5 note=72 velocity=90 time=0
EXTRACT: note_on channel=5 note=46 velocity=90 time=0
EXTRACT: note_on channel=1 note=72 velocity=0 time=0.31527793541666665
EXTRACT: note_on channel=2 note=65 velocity=0 time=0.016666675
EXTRACT: note_on channel=2 note=74 velocity=0 time=0
EXTRACT: note_on channel=0 note=65 velocity=96 time=0.0013888895833333334
EXTRACT: note_on channel=1 note=79 velocity=80 time=0
EXTRACT: note_on channel=2 note=65 velocity=60 time=0
EXTRACT: note_on channel=2 note=70 velocity=60 time=0
EXTRACT: note_on channel=5 note=46 velocity=0 time=0.16527786041666667
EXTRACT: note_on channel=5 note=53 velocity=90 time=0.0013888895833333334
EXTRACT: note_on channel=1 note=79 velocity=0 time=0.14861118541666668
EXTRACT: note_on channel=0 note=65 velocity=0 time=0.016666675
EXTRACT: note_on channel=2 note=65 velocity=0 time=0
EXTRACT: note_on channel=2 note=70 velocity=0 time=0
EXTRACT: note_on channel=5 note=60 velocity=0 time=0
EXTRACT: note_on channel=5 note=72 velocity=0 time=0
EXTRACT: note_on channel=5 note=53 velocity=0 time=0
EXTRACT: note_on channel=0 note=67 velocity=96 time=0.0013888895833333334
EXTRACT: note_on channel=1 note=77 velocity=80 time=0
EXTRACT: note_on channel=2 note=67 velocity=60 time=0
EXTRACT: note_on channel=5 note=67 velocity=90 time=0
EXTRACT: note_on channel=5 note=58 velocity=90 time=0
EXTRACT: note_on channel=0 note=67 velocity=0 time=0.16527786041666667
EXTRACT: note_on channel=0 note=70 velocity=96 time=0.0013888895833333334
EXTRACT: note_on channel=2 note=67 velocity=0 time=0.16527786041666667
EXTRACT: note_on channel=5 note=58 velocity=0 time=0
EXTRACT: note_on channel=2 note=65 velocity=60 time=0.0013888895833333334
EXTRACT: note_on channel=2 note=70 velocity=60 time=0
EXTRACT: note_on channel=5 note=46 velocity=90 time=0
EXTRACT: note_on channel=5 note=67 velocity=0 time=0.16527786041666667
EXTRACT: note_on channel=5 note=65 velocity=90 time=0.0013888895833333334
EXTRACT: note_on channel=5 note=70 velocity=90 time=0
EXTRACT: note_on channel=1 note=77 velocity=0 time=0.13194451041666666
EXTRACT: note_on channel=0 note=70 velocity=0 time=0.03333335
EXTRACT: note_on channel=2 note=65 velocity=0 time=0
EXTRACT: note_on channel=2 note=70 velocity=0 time=0
EXTRACT: note_on channel=5 note=65 velocity=0 time=0
EXTRACT: note_on channel=5 note=70 velocity=0 time=0
EXTRACT: note_on channel=0 note=65 velocity=96 time=0.0013888895833333334
EXTRACT: note_on channel=1 note=77 velocity=80 time=0
EXTRACT: note_on channel=2 note=65 velocity=60 time=0
EXTRACT: note_on channel=5 note=65 velocity=90 time=0
EXTRACT: note_on channel=0 note=65 velocity=0 time=0.16527786041666667
EXTRACT: note_on channel=2 note=65 velocity=0 time=0
EXTRACT: note_on channel=0 note=67 velocity=96 time=0.0013888895833333334
EXTRACT: note_on channel=2 note=67 velocity=60 time=0
EXTRACT: note_on channel=1 note=77 velocity=0 time=0.14861118541666668
EXTRACT: note_on channel=0 note=67 velocity=0 time=0.016666675
EXTRACT: note_on channel=2 note=67 velocity=0 time=0
EXTRACT: note_on channel=5 note=46 velocity=0 time=0
EXTRACT: note_on channel=0 note=70 velocity=96 time=0.0013888895833333334
EXTRACT: note_on channel=1 note=81 velocity=80 time=0
EXTRACT: note_on channel=2 note=65 velocity=60 time=0
EXTRACT: note_on channel=5 note=53 velocity=90 time=0
EXTRACT: note_on channel=2 note=65 velocity=0 time=0.16527786041666667
EXTRACT: note_on channel=2 note=65 velocity=60 time=0.0013888895833333334
EXTRACT: note_on channel=1 note=81 velocity=0 time=0.14861118541666668
EXTRACT: note_on channel=0 note=70 velocity=0 time=0.016666675
EXTRACT: note_on channel=2 note=65 velocity=0 time=0
EXTRACT: note_on channel=5 note=53 velocity=0 time=0
EXTRACT: note_on channel=0 note=72 velocity=96 time=0.0013888895833333334
EXTRACT: note_on channel=1 note=77 velocity=80 time=0
EXTRACT: note_on channel=2 note=65 velocity=60 time=0
EXTRACT: note_on channel=5 note=58 velocity=90 time=0
EXTRACT: note_on channel=2 note=65 velocity=0 time=0.16527786041666667
EXTRACT: note_on channel=2 note=65 velocity=60 time=0.0013888895833333334
EXTRACT: note_on channel=1 note=77 velocity=0 time=0.14861118541666668
EXTRACT: note_on channel=0 note=72 velocity=0 time=0.016666675
EXTRACT: note_on channel=2 note=65 velocity=0 time=0
EXTRACT: note_on channel=5 note=58 velocity=0 time=0
EXTRACT: note_on channel=0 note=70 velocity=96 time=0.0013888895833333334
EXTRACT: note_on channel=1 note=82 velocity=80 time=0
EXTRACT: note_on channel=2 note=65 velocity=60 time=0
EXTRACT: note_on channel=5 note=53 velocity=90 time=0
EXTRACT: note_on channel=2 note=65 velocity=0 time=0.16527786041666667
EXTRACT: note_on channel=2 note=65 velocity=60 time=0.0013888895833333334
EXTRACT: note_on channel=1 note=82 velocity=0 time=0.14861118541666668
EXTRACT: note_on channel=0 note=70 velocity=0 time=0.016666675
EXTRACT: note_on channel=2 note=65 velocity=0 time=0
EXTRACT: note_on channel=5 note=65 velocity=0 time=0
EXTRACT: note_on channel=5 note=53 velocity=0 time=0
EXTRACT: note_on channel=1 note=77 velocity=80 time=0
EXTRACT: note_on channel=2 note=69 velocity=60 time=0
EXTRACT: note_on channel=5 note=65 velocity=90 time=0
EXTRACT: note_on channel=5 note=69 velocity=90 time=0
EXTRACT: note_on channel=5 note=72 velocity=90 time=0
EXTRACT: note_on channel=5 note=41 velocity=90 time=0
EXTRACT: note_on channel=1 note=77 velocity=0 time=0.15694452291666666
EXTRACT: note_on channel=2 note=69 velocity=0 time=0.0083333375
EXTRACT: note_on channel=1 note=77 velocity=80 time=0.0013888895833333334
EXTRACT: note_on channel=2 note=65 velocity=60 time=0
EXTRACT: note_on channel=1 note=77 velocity=0 time=0.15694452291666666
EXTRACT: note_on channel=2 note=65 velocity=0 time=0.0083333375
EXTRACT: note_on channel=0 note=65 velocity=96 time=0.0013888895833333334
EXTRACT: note_on channel=1 note=79 velocity=80 time=0
EXTRACT: note_on channel=2 note=67 velocity=60 time=0
EXTRACT: note_on channel=2 note=67 velocity=0 time=0.16527786041666667
EXTRACT: note_on channel=5 note=41 velocity=0 time=0
EXTRACT: note_on channel=2 note=63 velocity=60 time=0.0013888895833333334
EXTRACT: note_on channel=5 note=48 velocity=90 time=0
EXTRACT: note_on channel=1 note=79 velocity=0 time=0.14861118541666668
EXTRACT: note_on channel=0 note=65 velocity=0 time=0.016666675
EXTRACT: note_on channel=2 note=63 velocity=0 time=0
EXTRACT: note_on channel=5 note=65 velocity=0 time=0
EXTRACT: note_on channel=5 note=69 velocity=0 time=0
EXTRACT: note_on channel=5 note=72 velocity=0 time=0
EXTRACT: note_on channel=5 note=48 velocity=0 time=0
EXTRACT: note_on channel=0 note=67 velocity=96 time=0.0013888895833333334
EXTRACT: note_on channel=1 note=82 velocity=80 time=0
EXTRACT: note_on channel=2 note=65 velocity=60 time=0
EXTRACT: note_on channel=5 note=65 velocity=90 time=0
EXTRACT: note_on channel=5 note=70 velocity=90 time=0
EXTRACT: note_on channel=5 note=53 velocity=90 time=0
EXTRACT: note_on channel=0 note=67 velocity=0 time=0.16527786041666667
EXTRACT: note_on channel=2 note=65 velocity=0 time=0
EXTRACT: note_on channel=0 note=70 velocity=96 time=0.0013888895833333334
EXTRACT: note_on channel=2 note=67 velocity=60 time=0
EXTRACT: note_on channel=1 note=82 velocity=0 time=0.14861118541666668
EXTRACT: note_on channel=2 note=67 velocity=0 time=0.016666675
EXTRACT: note_on channel=5 note=53 velocity=0 time=0
EXTRACT: note_on channel=1 note=79 velocity=80 time=0.0013888895833333334
EXTRACT: note_on channel=2 note=65 velocity=60 time=0
EXTRACT: note_on channel=5 note=41 velocity=90 time=0
EXTRACT: note_on channel=1 note=79 velocity=0 time=0.31527793541666665
EXTRACT: note_on channel=0 note=70 velocity=0 time=0.016666675
EXTRACT: note_on channel=2 note=65 velocity=0 time=0
EXTRACT: note_on channel=0 note=65 velocity=96 time=0.0013888895833333334
EXTRACT: note_on channel=1 note=72 velocity=80 time=0
EXTRACT: note_on channel=2 note=70 velocity=60 time=0
EXTRACT: note_on channel=0 note=65 velocity=0 time=0.16527786041666667
EXTRACT: note_on channel=0 note=67 velocity=96 time=0.0013888895833333334
EXTRACT: note_on channel=1 note=72 velocity=0 time=0.14861118541666668
EXTRACT: note_on channel=0 note=67 velocity=0 time=0.016666675
EXTRACT: note_on channel=5 note=65 velocity=0 time=0
EXTRACT: note_on channel=5 note=70 velocity=0 time=0
EXTRACT: note_on channel=5 note=41 velocity=0 time=0
EXTRACT: note_on channel=0 note=70 velocity=96 time=0.0013888895833333334
EXTRACT: note_on channel=1 note=77 velocity=80 time=0
EXTRACT: note_on channel=5 note=65 velocity=90 time=0
EXTRACT: note_on channel=5 note=70 velocity=90 time=0
EXTRACT: note_on channel=5 note=53 velocity=90 time=0
EXTRACT: note_on channel=2 note=70 velocity=0 time=0.16527786041666667
EXTRACT: note_on channel=2 note=77 velocity=60 time=0.0013888895833333334
EXTRACT: note_on channel=1 note=77 velocity=0 time=0.14861118541666668
EXTRACT: note_on channel=0 note=70 velocity=0 time=0.016666675
EXTRACT: note_on channel=2 note=77 velocity=0 time=0
EXTRACT: note_on channel=5 note=65 velocity=0 time=0
EXTRACT: note_on channel=5 note=70 velocity=0 time=0
EXTRACT: note_on channel=5 note=53 velocity=0 time=0
EXTRACT: note_on channel=0 note=72 velocity=96 time=0.0013888895833333334
EXTRACT: note_on channel=1 note=74 velocity=80 time=0
EXTRACT: note_on channel=2 note=72 velocity=60 time=0
EXTRACT: note_on channel=5 note=72 velocity=90 time=0
EXTRACT: note_on channel=5 note=75 velocity=90 time=0
EXTRACT: note_on channel=5 note=60 velocity=90 time=0
EXTRACT: note_on channel=1 note=74 velocity=0 time=0.31527793541666665
EXTRACT: note_on channel=0 note=72 velocity=0 time=0.016666675
EXTRACT: note_on channel=5 note=72 velocity=0 time=0
EXTRACT: note_on channel=5 note=75 velocity=0 time=0
EXTRACT: note_on channel=5 note=60 velocity=0 time=0
EXTRACT: note_on channel=0 note=74 velocity=96 time=0.0013888895833333334
EXTRACT: note_on channel=1 note=77 velocity=80 time=0
EXTRACT: note_on channel=5 note=74 velocity=90 time=0
EXTRACT: note_on channel=5 note=77 velocity=90 time=0
EXTRACT: note_on channel=5 note=53 velocity=90 time=0
EXTRACT: note_on channel=1 note=77 velocity=0 time=0.31527793541666665
EXTRACT: note_on channel=0 note=74 velocity=0 time=0.016666675
EXTRACT: note_on channel=2 note=72 velocity=0 time=0
EXTRACT: note_on channel=5 note=74 velocity=0 time=0
EXTRACT: note_on channel=5 note=77 velocity=0 time=0
EXTRACT: note_on channel=5 note=53 velocity=0 time=0
EXTRACT: note_on channel=1 note=70 velocity=90 time=0.0013888895833333334
EXTRACT: note_on channel=2 note=62 velocity=90 time=0
EXTRACT: note_on channel=2 note=70 velocity=90 time=0
EXTRACT: note_on channel=5 note=62 velocity=80 time=0
EXTRACT: note_on channel=5 note=70 velocity=80 time=0
EXTRACT: note_on channel=5 note=46 velocity=80 time=0
EXTRACT: note_on channel=1 note=70 velocity=0 time=0.15694452291666666
EXTRACT: note_on channel=1 note=74 velocity=90 time=0.009722227083333333
EXTRACT: note_on channel=1 note=74 velocity=0 time=0.15694452291666666
EXTRACT: note_on channel=0 note=74 velocity=96 time=0.009722227083333333
EXTRACT: note_on channel=1 note=77 velocity=90 time=0
EXTRACT: note_on channel=5 note=46 velocity=0 time=0.16527786041666667
EXTRACT: note_on channel=5 note=53 velocity=80 time=0.0013888895833333334
EXTRACT: note_on channel=1 note=77 velocity=0 time=0.14861118541666668
EXTRACT: note_on channel=5 note=62 velocity=0 time=0.016666675
EXTRACT: note_on channel=5 note=70 velocity=0 time=0
EXTRACT: note_on channel=5 note=53 velocity=0 time=0
EXTRACT: note_on channel=1 note=70 velocity=90 time=0.0013888895833333334
EXTRACT: note_on channel=5 note=65 velocity=80 time=0
EXTRACT: note_on channel=5 note=70 velocity=80 time=0
EXTRACT: note_on channel=5 note=58 velocity=80 time=0
EXTRACT: note_on channel=1 note=70 velocity=0 time=0.15694452291666666
EXTRACT: note_on channel=0 note=74 velocity=0 time=0.0083333375
EXTRACT: note_on channel=0 note=72 velocity=96 time=0.0013888895833333334
EXTRACT: note_on channel=1 note=74 velocity=90 time=0
EXTRACT: note_on channel=1 note=74 velocity=0 time=0.15694452291666666
EXTRACT: note_on channel=2 note=62 velocity=0 time=0.0083333375
EXTRACT: note_on channel=2 note=70 velocity=0 time=0
EXTRACT: note_on channel=5 note=58 velocity=0 time=0
EXTRACT: note_on channel=1 note=77 velocity=90 time=0.0013888895833333334
EXTRACT: note_on channel=2 note=62 velocity=90 time=0
EXTRACT: note_on channel=2 note=74 velocity=90 time=0
EXTRACT: note_on channel=5 note=46 velocity=80 time=0
EXTRACT: note_on channel=0 note=72 velocity=0 time=0.16527786041666667
EXTRACT: note_on channel=0 note=74 velocity=96 time=0.0013888895833333334
EXTRACT: note_on channel=1 note=77 velocity=0 time=0.14861118541666668
EXTRACT: note_on channel=0 note=74 velocity=0 time=0.016666675
EXTRACT: note_on channel=2 note=62 velocity=0 time=0
EXTRACT: note_on channel=2 note=74 velocity=0 time=0
EXTRACT: note_on channel=5 note=65 velocity=0 time=0
EXTRACT: note_on channel=5 note=70 velocity=0 time=0
EXTRACT: note_on channel=0 note=75 velocity=96 time=0.0013888895833333334
EXTRACT: note_on channel=1 note=75 velocity=90 time=0
EXTRACT: note_on channel=2 note=63 velocity=90 time=0
EXTRACT: note_on channel=2 note=75 velocity=90 time=0
EXTRACT: note_on channel=5 note=75 velocity=80 time=0
EXTRACT: note_on channel=1 note=75 velocity=0 time=0.31527793541666665
EXTRACT: note_on channel=0 note=75 velocity=0 time=0.016666675
EXTRACT: note_on channel=2 note=63 velocity=0 time=0
EXTRACT: note_on channel=2 note=75 velocity=0 time=0
EXTRACT: note_on channel=5 note=46 velocity=0 time=0
EXTRACT: note_on channel=0 note=74 velocity=96 time=0.0013888895833333334
EXTRACT: note_on channel=1 note=72 velocity=90 time=0
EXTRACT: note_on channel=2 note=62 velocity=90 time=0
EXTRACT: note_on channel=2 note=74 velocity=90 time=0
EXTRACT: note_on channel=5 note=53 velocity=80 time=0
EXTRACT: note_on channel=5 note=75 velocity=0 time=0.16527786041666667
EXTRACT: note_on channel=5 note=74 velocity=80 time=0.0013888895833333334
EXTRACT: note_on channel=1 note=72 velocity=0 time=0.14861118541666668
EXTRACT: note_on channel=0 note=74 velocity=0 time=0.016666675
EXTRACT: note_on channel=2 note=62 velocity=0 time=0
EXTRACT: note_on channel=2 note=74 velocity=0 time=0
EXTRACT: note_on channel=5 note=74 velocity=0 time=0
EXTRACT: note_on channel=5 note=53 velocity=0 time=0
EXTRACT: note_on channel=0 note=72 velocity=96 time=0.0013888895833333334
EXTRACT: note_on channel=1 note=74 velocity=90 time=0
EXTRACT: note_on channel=2 note=60 velocity=90 time=0
EXTRACT: note_on channel=2 note=72 velocity=90 time=0
EXTRACT: note_on channel=5 note=72 velocity=80 time=0
EXTRACT: note_on channel=5 note=58 velocity=80 time=0
EXTRACT: note_on channel=1 note=74 velocity=0 time=0.31527793541666665
EXTRACT: note_on channel=0 note=72 velocity=0 time=0.016666675
EXTRACT: note_on channel=2 note=60 velocity=0 time=0
EXTRACT: note_on channel=2 note=72 velocity=0 time=0
EXTRACT: note_on channel=5 note=58 velocity=0 time=0
EXTRACT: note_on channel=0 note=70 velocity=96 time=0.0013888895833333334
EXTRACT: note_on channel=1 note=70 velocity=90 time=0
EXTRACT: note_on channel=2 note=58 velocity=90 time=0
EXTRACT: note_on channel=2 note=70 velocity=90 time=0
EXTRACT: note_on channel=5 note=53 velocity=80 time=0
EXTRACT: note_on channel=5 note=72 velocity=0 time=0.16527786041666667
EXTRACT: note_on channel=5 note=70 velocity=80 time=0.0013888895833333334
EXTRACT: note_on channel=1 note=70 velocity=0 time=0.14861118541666668
EXTRACT: note_on channel=2 note=58 velocity=0 time=0.016666675
EXTRACT: note_on channel=2 note=70 velocity=0 time=0
EXTRACT: note_on channel=5 note=53 velocity=0 time=0
EXTRACT: note_on channel=1 note=77 velocity=90 time=0.0013888895833333334
EXTRACT: note_on channel=2 note=58 velocity=90 time=0
EXTRACT: note_on channel=2 note=70 velocity=90 time=0
EXTRACT: note_on channel=5 note=65 velocity=80 time=0
EXTRACT: note_on channel=5 note=39 velocity=80 time=0
EXTRACT: note_on channel=1 note=77 velocity=0 time=0.15694452291666666
EXTRACT: note_on channel=1 note=75 velocity=90 time=0.009722227083333333
EXTRACT: note_on channel=1 note=75 velocity=0 time=0.15694452291666666
EXTRACT: note_on channel=0 note=70 velocity=0 time=0.0083333375
EXTRACT: note_on channel=2 note=58 velocity=0 time=0
EXTRACT: note_on channel=2 note=70 velocity=0 time=0
EXTRACT: note_on channel=5 note=70 velocity=0 time=0
EXTRACT: note_on channel=5 note=65 velocity=0 time=0
EXTRACT: note_on channel=0 note=70 velocity=96 time=0.0013888895833333334
EXTRACT: note_on channel=1 note=74 velocity=90 time=0
EXTRACT: note_on channel=2 note=63 velocity=90 time=0
EXTRACT: note_on channel=2 note=75 velocity=90 time=0
EXTRACT: note_on channel=5 note=70 velocity=80 time=0
EXTRACT: note_on channel=5 note=77 velocity=80 time=0
EXTRACT: note_on channel=1 note=74 velocity=0 time=0.15694452291666666
EXTRACT: note_on channel=5 note=39 velocity=0 time=0.0083333375
EXTRACT: note_on channel=1 note=72 velocity=90 time=0.0013888895833333334
EXTRACT: note_on channel=5 note=46 velocity=80 time=0
EXTRACT: note_on channel=1 note=72 velocity=0 time=0.15694452291666666
EXTRACT: note_on channel=0 note=70 velocity=0 time=0.0083333375
EXTRACT: note_on channel=2 note=63 velocity=0 time=0
EXTRACT: note_on channel=2 note=75 velocity=0 time=0
EXTRACT: note_on channel=5 note=70 velocity=0 time=0
EXTRACT: note_on channel=5 note=77 velocity=0 time=0
EXTRACT: note_on channel=5 note=46 velocity=0 time=0
EXTRACT: note_on channel=0 note=67 velocity=96 time=0.0013888895833333334
EXTRACT: note_on channel=1 note=70 velocity=90 time=0
EXTRACT: note_on channel=2 note=67 velocity=90 time=0
EXTRACT: note_on channel=2 note=79 velocity=90 time=0
EXTRACT: note_on channel=5 note=63 velocity=80 time=0
EXTRACT: note_on channel=5 note=70 velocity=80 time=0
EXTRACT: note_on channel=5 note=75 velocity=80 time=0
EXTRACT: note_on channel=5 note=51 velocity=80 time=0
EXTRACT: note_on channel=1 note=70 velocity=0 time=0.15694452291666666
EXTRACT: note_on channel=1 note=72 velocity=90 time=0.009722227083333333
EXTRACT: note_on channel=1 note=72 velocity=0 time=0.15694452291666666
EXTRACT: note_on channel=2 note=67 velocity=0 time=0.0083333375
EXTRACT: note_on channel=2 note=79 velocity=0 time=0
EXTRACT: note_on channel=5 note=51 velocity=0 time=0
EXTRACT: note_on channel=1 note=74 velocity=90 time=0.0013888895833333334
EXTRACT: note_on channel=2 note=70 velocity=90 time=0
EXTRACT: note_on channel=2 note=82 velocity=90 time=0
EXTRACT: note_on channel=5 note=39 velocity=80 time=0
EXTRACT: note_on channel=1 note=74 velocity=0 time=0.15694452291666666
EXTRACT: note_on channel=1 note=75 velocity=90 time=0.009722227083333333
EXTRACT: note_on channel=1 note=75 velocity=0 time=0.15694452291666666
EXTRACT: note_on channel=0 note=67 velocity=0 time=0.0083333375
EXTRACT: note_on channel=2 note=70 velocity=0 time=0
EXTRACT: note_on channel=2 note=82 velocity=0 time=0
EXTRACT: note_on channel=5 note=63 velocity=0 time=0
EXTRACT: note_on channel=5 note=70 velocity=0 time=0
EXTRACT: note_on channel=5 note=75 velocity=0 time=0
EXTRACT: note_on channel=5 note=39 velocity=0 time=0
EXTRACT: note_on channel=1 note=75 velocity=90 time=0.0013888895833333334
EXTRACT: note_on channel=2 note=63 velocity=90 time=0
EXTRACT: note_on channel=2 note=75 velocity=90 time=0
EXTRACT: note_on channel=5 note=63 velocity=80 time=0
EXTRACT: note_on channel=5 note=51 velocity=80 time=0
EXTRACT: note_on channel=5 note=70 velocity=80 time=0.08750004375
EXTRACT: note_on channel=5 note=74 velocity=80 time=0.08888893333333334
EXTRACT: note_on channel=2 note=63 velocity=0 time=0.15555563333333333
EXTRACT: note_on channel=2 note=75 velocity=0 time=0
EXTRACT: note_on channel=5 note=51 velocity=0 time=0
EXTRACT: note_on channel=2 note=62 velocity=90 time=0.0013888895833333334
EXTRACT: note_on channel=2 note=74 velocity=90 time=0
EXTRACT: note_on channel=5 note=39 velocity=80 time=0
EXTRACT: note_on channel=2 note=62 velocity=0 time=0.3319446104166667
EXTRACT: note_on channel=2 note=74 velocity=0 time=0
EXTRACT: note_on channel=5 note=39 velocity=0 time=0
EXTRACT: note_on channel=2 note=62 velocity=90 time=0.0013888895833333334
EXTRACT: note_on channel=2 note=74 velocity=90 time=0
EXTRACT: note_on channel=5 note=51 velocity=80 time=0
EXTRACT: note_on channel=5 note=55 velocity=80 time=0
EXTRACT: note_on channel=1 note=75 velocity=0 time=0.28194458541666667
EXTRACT: note_on channel=2 note=62 velocity=0 time=0.050000025000000003
EXTRACT: note_on channel=2 note=74 velocity=0 time=0
EXTRACT: note_on channel=1 note=70 velocity=90 time=0.0013888895833333334
EXTRACT: note_on channel=2 note=58 velocity=90 time=0
EXTRACT: note_on channel=2 note=70 velocity=90 time=0
EXTRACT: note_on channel=1 note=70 velocity=0 time=0.31527793541666665
EXTRACT: note_on channel=5 note=70 velocity=0 time=0.015277785416666667
EXTRACT: note_on channel=5 note=74 velocity=0 time=0
EXTRACT: note_on channel=2 note=58 velocity=0 time=0.0013888895833333334
EXTRACT: note_on channel=2 note=70 velocity=0 time=0
EXTRACT: note_on channel=5 note=63 velocity=0 time=0
EXTRACT: note_on channel=5 note=51 velocity=0 time=0
EXTRACT: note_on channel=5 note=55 velocity=0 time=0
EXTRACT: note_on channel=1 note=77 velocity=80 time=0.0013888895833333334
EXTRACT: note_on channel=2 note=65 velocity=90 time=0
EXTRACT: note_on channel=2 note=77 velocity=90 time=0
EXTRACT: note_on channel=5 note=70 velocity=90 time=0
EXTRACT: note_on channel=5 note=77 velocity=90 time=0
EXTRACT: note_on channel=5 note=46 velocity=90 time=0
EXTRACT: note_on channel=5 note=53 velocity=90 time=0
EXTRACT: note_on channel=2 note=65 velocity=0 time=0.16527786041666667
EXTRACT: note_on channel=2 note=77 velocity=0 time=0
EXTRACT: note_on channel=2 note=65 velocity=90 time=0.0013888895833333334
EXTRACT: note_on channel=2 note=77 velocity=90 time=0
EXTRACT: note_on channel=1 note=77 velocity=0 time=0.14861118541666668
EXTRACT: note_on channel=5 note=70 velocity=0 time=0.016666675
EXTRACT: note_on channel=5 note=77 velocity=0 time=0
EXTRACT: note_on channel=0 note=77 velocity=112 time=0.0013888895833333334
EXTRACT: note_on channel=5 note=70 velocity=90 time=0
EXTRACT: note_on channel=5 note=77 velocity=90 time=0
EXTRACT: note_on channel=2 note=65 velocity=0 time=0.16527786041666667
EXTRACT: note_on channel=2 note=77 velocity=0 time=0
EXTRACT: note_on channel=2 note=65 velocity=90 time=0.0013888895833333334
EXTRACT: note_on channel=2 note=77 velocity=90 time=0
EXTRACT: note_on channel=0 note=77 velocity=0 time=0.16527786041666667
EXTRACT: note_on channel=2 note=65 velocity=0 time=0
EXTRACT: note_on channel=2 note=77 velocity=0 time=0
EXTRACT: note_on channel=5 note=70 velocity=0 time=0
EXTRACT: note_on channel=5 note=77 velocity=0 time=0
EXTRACT: note_on channel=0 note=77 velocity=112 time=0.0013888895833333334
EXTRACT: note_on channel=1 note=77 velocity=80 time=0
EXTRACT: note_on channel=2 note=65 velocity=90 time=0
EXTRACT: note_on channel=2 note=77 velocity=90 time=0
EXTRACT: note_on channel=5 note=70 velocity=90 time=0
EXTRACT: note_on channel=5 note=77 velocity=90 time=0
EXTRACT: note_on channel=1 note=77 velocity=0 time=0.15694452291666666
EXTRACT: note_on channel=2 note=65 velocity=0 time=0.0083333375
EXTRACT: note_on channel=2 note=77 velocity=0 time=0
EXTRACT: note_on channel=1 note=75 velocity=80 time=0.0013888895833333334
EXTRACT: note_on channel=2 note=70 velocity=90 time=0
EXTRACT: note_on channel=1 note=75 velocity=0 time=0.15694452291666666
EXTRACT: note_on channel=2 note=70 velocity=0 time=0.0083333375
EXTRACT: note_on channel=5 note=70 velocity=0 time=0
EXTRACT: note_on channel=5 note=77 velocity=0 time=0
EXTRACT: note_on channel=1 note=77 velocity=80 time=0.0013888895833333334
EXTRACT: note_on channel=2 note=77 velocity=90 time=0
EXTRACT: note_on channel=5 note=65 velocity=90 time=0
EXTRACT: note_on channel=5 note=70 velocity=90 time=0
EXTRACT: note_on channel=5 note=74 velocity=90 time=0
EXTRACT: note_on channel=0 note=77 velocity=0 time=0.16527786041666667
EXTRACT: note_on channel=2 note=77 velocity=0 time=0
EXTRACT: note_on channel=0 note=74 velocity=112 time=0.0013888895833333334
EXTRACT: note_on channel=2 note=74 velocity=90 time=0
EXTRACT: note_on channel=1 note=77 velocity=0 time=0.14861118541666668
EXTRACT: note_on channel=0 note=74 velocity=0 time=0.016666675
EXTRACT: note_on channel=2 note=74 velocity=0 time=0
EXTRACT: note_on channel=5 note=65 velocity=0 time=0
EXTRACT: note_on channel=5 note=70 velocity=0 time=0
EXTRACT: note_on channel=5 note=74 velocity=0 time=0
EXTRACT: note_on channel=0 note=74 velocity=112 time=0.0013888895833333334
EXTRACT: note_on channel=1 note=74 velocity=80 time=0
EXTRACT: note_on channel=2 note=74 velocity=90 time=0
EXTRACT: note_on channel=5 note=70 velocity=90 time=0
EXTRACT: note_on channel=5 note=74 velocity=90 time=0
EXTRACT: note_on channel=5 note=70 velocity=0 time=0.16527786041666667
EXTRACT: note_on channel=5 note=74 velocity=0 time=0
EXTRACT: note_on channel=5 note=70 velocity=90 time=0.0013888895833333334
EXTRACT: note_on channel=5 note=74 velocity=90 time=0
EXTRACT: note_on channel=1 note=74 velocity=0 time=0.14861118541666668
EXTRACT: note_on channel=0 note=74 velocity=0 time=0.016666675
EXTRACT: note_on channel=2 note=74 velocity=0 time=0
EXTRACT: note_on channel=5 note=70 velocity=0 time=0
EXTRACT: note_on channel=5 note=74 velocity=0 time=0
EXTRACT: note_on channel=0 note=72 velocity=112 time=0.0013888895833333334
EXTRACT: note_on channel=2 note=72 velocity=90 time=0
EXTRACT: note_on channel=5 note=72 velocity=90 time=0
EXTRACT: note_on channel=2 note=72 velocity=0 time=0.16527786041666667
EXTRACT: note_on channel=5 note=72 velocity=0 time=0
EXTRACT: note_on channel=2 note=72 velocity=90 time=0.0013888895833333334
EXTRACT: note_on channel=5 note=72 velocity=90 time=0
EXTRACT: note_on channel=0 note=72 velocity=0 time=0.16527786041666667
EXTRACT: note_on channel=2 note=72 velocity=0 time=0
EXTRACT: note_on channel=5 note=72 velocity=0 time=0
EXTRACT: note_on channel=5 note=46 velocity=0 time=0
EXTRACT: note_on channel=5 note=53 velocity=0 time=0
EXTRACT: note_on channel=0 note=70 velocity=112 time=0.0013888895833333334
EXTRACT: note_on channel=1 note=72 velocity=80 time=0
EXTRACT: note_on channel=2 note=70 velocity=90 time=0
EXTRACT: note_on channel=2 note=77 velocity=90 time=0
EXTRACT: note_on channel=5 note=65 velocity=90 time=0
EXTRACT: note_on channel=5 note=70 velocity=90 time=0
EXTRACT: note_on channel=5 note=46 velocity=90 time=0
EXTRACT: note_on channel=5 note=53 velocity=90 time=0
EXTRACT: note_on channel=1 note=72 velocity=0 time=0.15694452291666666
EXTRACT: note_on channel=1 note=70 velocity=80 time=0.009722227083333333
EXTRACT: note_on channel=1 note=70 velocity=0 time=0.15694452291666666
EXTRACT: note_on channel=1 note=70 velocity=80 time=0.009722227083333333
EXTRACT: note_on channel=1 note=70 velocity=0 time=0.31527793541666665
EXTRACT: note_on channel=0 note=70 velocity=0 time=0.016666675
EXTRACT: note_on channel=2 note=70 velocity=0 time=0
EXTRACT: note_on channel=2 note=77 velocity=0 time=0
EXTRACT: note_on channel=5 note=65 velocity=0 time=0
EXTRACT: note_on channel=5 note=70 velocity=0 time=0
EXTRACT: note_on channel=5 note=46 velocity=0 time=0
EXTRACT: note_on channel=5 note=53 velocity=0 time=0
EXTRACT: note_on channel=1 note=77 velocity=80 time=0.0013888895833333334
EXTRACT: note_on channel=2 note=65 velocity=90 time=0
EXTRACT: note_on channel=2 note=77 velocity=90 time=0
EXTRACT: note_on channel=5 note=65 velocity=60 time=0
EXTRACT: note_on channel=5 note=70 velocity=60 time=0
EXTRACT: note_on channel=5 note=41 velocity=60 time=0
EXTRACT: note_on channel=5 note=48 velocity=60 time=0
EXTRACT: note_on channel=2 note=65 velocity=0 time=0.16527786041666667
EXTRACT: note_on channel=2 note=77 velocity=0 time=0
EXTRACT: note_on channel=0 note=72 velocity=112 time=0.0013888895833333334
EXTRACT: note_on channel=2 note=65 velocity=90 time=0
EXTRACT: note_on channel=2 note=77 velocity=90 time=0
EXTRACT: note_on channel=1 note=77 velocity=0 time=0.14861118541666668
EXTRACT: note_on channel=0 note=72 velocity=0 time=0.016666675
EXTRACT: note_on channel=5 note=65 velocity=0 time=0
EXTRACT: note_on channel=5 note=70 velocity=0 time=0
EXTRACT: note_on channel=0 note=77 velocity=112 time=0.0013888895833333334
EXTRACT: note_on channel=5 note=65 velocity=60 time=0
EXTRACT: note_on channel=5 note=70 velocity=60 time=0
EXTRACT: note_on channel=2 note=65 velocity=0 time=0.16527786041666667
EXTRACT: note_on channel=2 note=77 velocity=0 time=0
EXTRACT: note_on channel=2 note=65 velocity=90 time=0.0013888895833333334
EXTRACT: note_on channel=2 note=77 velocity=90 time=0
EXTRACT: note_on channel=0 note=77 velocity=0 time=0.16527786041666667
EXTRACT: note_on channel=2 note=65 velocity=0 time=0
EXTRACT: note_on channel=2 note=77 velocity=0 time=0
EXTRACT: note_on channel=5 note=65 velocity=0 time=0
EXTRACT: note_on channel=5 note=70 velocity=0 time=0
EXTRACT: note_on channel=0 note=77 velocity=112 time=0.0013888895833333334
EXTRACT: note_on channel=1 note=77 velocity=80 time=0
EXTRACT: note_on channel=2 note=75 velocity=90 time=0
EXTRACT: note_on channel=5 note=63 velocity=60 time=0
EXTRACT: note_on channel=5 note=69 velocity=60 time=0
EXTRACT: note_on channel=1 note=77 velocity=0 time=0.15694452291666666
EXTRACT: note_on channel=2 note=75 velocity=0 time=0.0083333375
EXTRACT: note_on channel=1 note=75 velocity=80 time=0.0013888895833333334
EXTRACT: note_on channel=2 note=75 velocity=90 time=0
EXTRACT: note_on channel=1 note=75 velocity=0 time=0.15694452291666666
EXTRACT: note_on channel=2 note=75 velocity=0 time=0.0083333375
EXTRACT: note_on channel=5 note=63 velocity=0 time=0
EXTRACT: note_on channel=5 note=69 velocity=0 time=0
EXTRACT: note_on channel=1 note=77 velocity=80 time=0.0013888895833333334
EXTRACT: note_on channel=2 note=77 velocity=90 time=0
EXTRACT: note_on channel=5 note=65 velocity=60 time=0
EXTRACT: note_on channel=5 note=70 velocity=60 time=0
EXTRACT: note_on channel=0 note=77 velocity=0 time=0.16527786041666667
EXTRACT: note_on channel=2 note=77 velocity=0 time=0
EXTRACT: note_on channel=5 note=65 velocity=0 time=0
EXTRACT: note_on channel=5 note=70 velocity=0 time=0
EXTRACT: note_on channel=0 note=74 velocity=112 time=0.0013888895833333334
EXTRACT: note_on channel=2 note=62 velocity=90 time=0
EXTRACT: note_on channel=2 note=74 velocity=90 time=0
EXTRACT: note_on channel=5 note=67 velocity=60 time=0
EXTRACT: note_on channel=5 note=74 velocity=60 time=0
EXTRACT: note_on channel=1 note=77 velocity=0 time=0.14861118541666668
EXTRACT: note_on channel=2 note=62 velocity=0 time=0.016666675
EXTRACT: note_on channel=2 note=74 velocity=0 time=0
EXTRACT: note_on channel=5 note=67 velocity=0 time=0
EXTRACT: note_on channel=5 note=74 velocity=0 time=0
EXTRACT: note_on channel=1 note=74 velocity=80 time=0.0013888895833333334
EXTRACT: note_on channel=2 note=74 velocity=90 time=0
EXTRACT: note_on channel=5 note=67 velocity=60 time=0
EXTRACT: note_on channel=5 note=74 velocity=60 time=0
EXTRACT: note_on channel=5 note=67 velocity=0 time=0.16527786041666667
EXTRACT: note_on channel=5 note=74 velocity=0 time=0
EXTRACT: note_on channel=5 note=67 velocity=60 time=0.0013888895833333334
EXTRACT: note_on channel=5 note=74 velocity=60 time=0
EXTRACT: note_on channel=1 note=74 velocity=0 time=0.14861118541666668
EXTRACT: note_on channel=0 note=74 velocity=0 time=0.016666675
EXTRACT: note_on channel=2 note=74 velocity=0 time=0
EXTRACT: note_on channel=5 note=67 velocity=0 time=0
EXTRACT: note_on channel=5 note=74 velocity=0 time=0
EXTRACT: note_on channel=0 note=74 velocity=112 time=0.0013888895833333334
EXTRACT: note_on channel=2 note=69 velocity=90 time=0
EXTRACT: note_on channel=5 note=74 velocity=60 time=0
EXTRACT: note_on channel=2 note=69 velocity=0 time=0.16527786041666667
EXTRACT: note_on channel=2 note=74 velocity=90 time=0.0013888895833333334
EXTRACT: note_on channel=2 note=74 velocity=0 time=0.16527786041666667
EXTRACT: note_on channel=5 note=74 velocity=0 time=0
EXTRACT: note_on channel=5 note=41 velocity=0 time=0
EXTRACT: note_on channel=5 note=48 velocity=0 time=0
EXTRACT: note_on channel=1 note=74 velocity=80 time=0.0013888895833333334
EXTRACT: note_on channel=2 note=74 velocity=90 time=0
EXTRACT: note_on channel=5 note=69 velocity=60 time=0
EXTRACT: note_on channel=5 note=74 velocity=60 time=0
EXTRACT: note_on channel=5 note=41 velocity=60 time=0
EXTRACT: note_on channel=5 note=48 velocity=60 time=0
EXTRACT: note_on channel=1 note=74 velocity=0 time=0.15694452291666666
EXTRACT: note_on channel=1 note=74 velocity=80 time=0.009722227083333333
EXTRACT: note_on channel=1 note=74 velocity=0 time=0.15694452291666666
EXTRACT: note_on channel=1 note=74 velocity=80 time=0.009722227083333333
EXTRACT: note_on channel=1 note=74 velocity=0 time=0.31527793541666665
EXTRACT: note_on channel=0 note=74 velocity=0 time=0.016666675
EXTRACT: note_on channel=2 note=74 velocity=0 time=0
EXTRACT: note_on channel=5 note=69 velocity=0 time=0
EXTRACT: note_on channel=5 note=74 velocity=0 time=0
EXTRACT: note_on channel=5 note=41 velocity=0 time=0
EXTRACT: note_on channel=5 note=48 velocity=0 time=0
EXTRACT: note_on channel=1 note=77 velocity=80 time=0.0013888895833333334
EXTRACT: note_on channel=2 note=65 velocity=90 time=0
EXTRACT: note_on channel=2 note=77 velocity=90 time=0
EXTRACT: note_on channel=5 note=65 velocity=60 time=0
EXTRACT: note_on channel=5 note=70 velocity=60 time=0
EXTRACT: note_on channel=5 note=43 velocity=60 time=0
EXTRACT: note_on channel=5 note=50 velocity=60 time=0
EXTRACT: note_on channel=2 note=65 velocity=0 time=0.16527786041666667
EXTRACT: note_on channel=2 note=77 velocity=0 time=0
EXTRACT: note_on channel=0 note=70 velocity=112 time=0.0013888895833333334
EXTRACT: note_on channel=2 note=65 velocity=90 time=0
EXTRACT: note_on channel=2 note=77 velocity=90 time=0
EXTRACT: note_on channel=1 note=77 velocity=0 time=0.14861118541666668
EXTRACT: note_on channel=0 note=70 velocity=0 time=0.016666675
EXTRACT: note_on channel=5 note=65 velocity=0 time=0
EXTRACT: note_on channel=5 note=70 velocity=0 time=0
EXTRACT: note_on channel=0 note=77 velocity=112 time=0.0013888895833333334
EXTRACT: note_on channel=5 note=65 velocity=60 time=0
EXTRACT: note_on channel=5 note=70 velocity=60 time=0
EXTRACT: note_on channel=2 note=65 velocity=0 time=0.16527786041666667
EXTRACT: note_on channel=2 note=77 velocity=0 time=0
EXTRACT: note_on channel=2 note=65 velocity=90 time=0.0013888895833333334
EXTRACT: note_on channel=2 note=77 velocity=90 time=0
EXTRACT: note_on channel=0 note=77 velocity=0 time=0.16527786041666667
EXTRACT: note_on channel=2 note=65 velocity=0 time=0
EXTRACT: note_on channel=2 note=77 velocity=0 time=0
EXTRACT: note_on channel=5 note=65 velocity=0 time=0
EXTRACT: note_on channel=5 note=70 velocity=0 time=0
EXTRACT: note_on channel=0 note=77 velocity=112 time=0.0013888895833333334
EXTRACT: note_on channel=1 note=77 velocity=80 time=0
EXTRACT: note_on channel=2 note=70 velocity=90 time=0
EXTRACT: note_on channel=2 note=77 velocity=90 time=0
EXTRACT: note_on channel=5 note=65 velocity=60 time=0
EXTRACT: note_on channel=5 note=70 velocity=60 time=0
EXTRACT: note_on channel=1 note=77 velocity=0 time=0.15694452291666666
EXTRACT: note_on channel=2 note=70 velocity=0 time=0.0083333375
EXTRACT: note_on channel=2 note=77 velocity=0 time=0
EXTRACT: note_on channel=1 note=77 velocity=80 time=0.0013888895833333334
EXTRACT: note_on channel=2 note=70 velocity=90 time=0
EXTRACT: note_on channel=2 note=77 velocity=90 time=0
EXTRACT: note_on channel=1 note=77 velocity=0 time=0.15694452291666666
EXTRACT: note_on channel=2 note=70 velocity=0 time=0.0083333375
EXTRACT: note_on channel=2 note=77 velocity=0 time=0
EXTRACT: note_on channel=5 note=65 velocity=0 time=0
EXTRACT: note_on channel=5 note=70 velocity=0 time=0
EXTRACT: note_on channel=1 note=74 velocity=80 time=0.0013888895833333334
EXTRACT: note_on channel=2 note=77 velocity=90 time=0
EXTRACT: note_on channel=5 note=67 velocity=60 time=0
EXTRACT: note_on channel=5 note=72 velocity=60 time=0
EXTRACT: note_on channel=0 note=77 velocity=0 time=0.16527786041666667
EXTRACT: note_on channel=2 note=77 velocity=0 time=0
EXTRACT: note_on channel=0 note=74 velocity=112 time=0.0013888895833333334
EXTRACT: note_on channel=2 note=62 velocity=90 time=0
EXTRACT: note_on channel=2 note=74 velocity=90 time=0
EXTRACT: note_on channel=1 note=74 velocity=0 time=0.14861118541666668
EXTRACT: note_on channel=0 note=74 velocity=0 time=0.016666675
EXTRACT: note_on channel=2 note=62 velocity=0 time=0
EXTRACT: note_on channel=2 note=74 velocity=0 time=0
EXTRACT: note_on channel=5 note=67 velocity=0 time=0
EXTRACT: note_on channel=5 note=72 velocity=0 time=0
EXTRACT: note_on channel=0 note=74 velocity=112 time=0.0013888895833333334
EXTRACT: note_on channel=1 note=74 velocity=80 time=0
EXTRACT: note_on channel=2 note=74 velocity=90 time=0
EXTRACT: note_on channel=5 note=67 velocity=60 time=0
EXTRACT: note_on channel=5 note=74 velocity=60 time=0
EXTRACT: note_on channel=5 note=67 velocity=0 time=0.16527786041666667
EXTRACT: note_on channel=5 note=74 velocity=0 time=0
EXTRACT: note_on channel=5 note=67 velocity=60 time=0.0013888895833333334
EXTRACT: note_on channel=5 note=74 velocity=60 time=0
EXTRACT: note_on channel=1 note=74 velocity=0 time=0.14861118541666668
EXTRACT: note_on channel=2 note=74 velocity=0 time=0.016666675
EXTRACT: note_on channel=5 note=67 velocity=0 time=0
EXTRACT: note_on channel=5 note=74 velocity=0 time=0
EXTRACT: note_on channel=2 note=72 velocity=90 time=0.0013888895833333334
EXTRACT: note_on channel=5 note=72 velocity=60 time=0
EXTRACT: note_on channel=0 note=74 velocity=0 time=0.16527786041666667
EXTRACT: note_on channel=2 note=72 velocity=0 time=0
EXTRACT: note_on channel=5 note=72 velocity=0 time=0
EXTRACT: note_on channel=0 note=72 velocity=112 time=0.0013888895833333334
EXTRACT: note_on channel=2 note=72 velocity=90 time=0
EXTRACT: note_on channel=5 note=72 velocity=60 time=0
EXTRACT: note_on channel=0 note=72 velocity=0 time=0.16527786041666667
EXTRACT: note_on channel=2 note=72 velocity=0 time=0
EXTRACT: note_on channel=5 note=72 velocity=0 time=0
EXTRACT: note_on channel=5 note=43 velocity=0 time=0
EXTRACT: note_on channel=5 note=50 velocity=0 time=0
EXTRACT: note_on channel=0 note=70 velocity=112 time=0.0013888895833333334
EXTRACT: note_on channel=1 note=70 velocity=80 time=0
EXTRACT: note_on channel=2 note=62 velocity=90 time=0
EXTRACT: note_on channel=2 note=70 velocity=90 time=0
EXTRACT: note_on channel=5 note=62 velocity=60 time=0
EXTRACT: note_on channel=5 note=70 velocity=60 time=0
EXTRACT: note_on channel=5 note=43 velocity=60 time=0
EXTRACT: note_on channel=5 note=50 velocity=60 time=0
EXTRACT: note_on channel=1 note=70 velocity=0 time=0.15694452291666666
EXTRACT: note_on channel=2 note=62 velocity=0 time=0.0083333375
EXTRACT: note_on channel=2 note=70 velocity=0 time=0
EXTRACT: note_on channel=1 note=70 velocity=80 time=0.0013888895833333334
EXTRACT: note_on channel=2 note=62 velocity=90 time=0
EXTRACT: note_on channel=2 note=70 velocity=90 time=0
EXTRACT: note_on channel=1 note=70 velocity=0 time=0.15694452291666666
EXTRACT: note_on channel=0 note=70 velocity=0 time=0.0083333375
EXTRACT: note_on channel=2 note=62 velocity=0 time=0
EXTRACT: note_on channel=2 note=70 velocity=0 time=0
EXTRACT: note_on channel=0 note=67 velocity=112 time=0.0013888895833333334
EXTRACT: note_on channel=1 note=79 velocity=80 time=0
EXTRACT: note_on channel=2 note=67 velocity=90 time=0
EXTRACT: note_on channel=1 note=79 velocity=0 time=0.31527793541666665
EXTRACT: note_on channel=0 note=67 velocity=0 time=0.016666675
EXTRACT: note_on channel=2 note=67 velocity=0 time=0
EXTRACT: note_on channel=5 note=62 velocity=0 time=0
EXTRACT: note_on channel=5 note=70 velocity=0 time=0
EXTRACT: note_on channel=5 note=43 velocity=0 time=0
EXTRACT: note_on channel=5 note=50 velocity=0 time=0
EXTRACT: note_on channel=0 note=75 velocity=112 time=0.0013888895833333334
EXTRACT: note_on channel=1 note=77 velocity=80 time=0
EXTRACT: note_on channel=2 note=65 velocity=90 time=0
EXTRACT: note_on channel=2 note=77 velocity=90 time=0
EXTRACT: note_on channel=5 note=70 velocity=90 time=0
EXTRACT: note_on channel=5 note=77 velocity=90 time=0
EXTRACT: note_on channel=5 note=39 velocity=90 time=0
EXTRACT: note_on channel=5 note=46 velocity=90 time=0
EXTRACT: note_on channel=2 note=65 velocity=0 time=0.16527786041666667
EXTRACT: note_on channel=2 note=77 velocity=0 time=0
EXTRACT: note_on channel=2 note=67 velocity=90 time=0.0013888895833333334
EXTRACT: note_on channel=2 note=75 velocity=90 time=0
EXTRACT: note_on channel=1 note=77 velocity=0 time=0.14861118541666668
EXTRACT: note_on channel=5 note=70 velocity=0 time=0.016666675
EXTRACT: note_on channel=5 note=77 velocity=0 time=0
EXTRACT: note_on channel=5 note=70 velocity=90 time=0.0013888895833333334
EXTRACT: note_on channel=5 note=77 velocity=90 time=0
EXTRACT: note_on channel=0 note=75 velocity=0 time=0.16527786041666667
EXTRACT: note_on channel=2 note=67 velocity=0 time=0
EXTRACT: note_on channel=2 note=75 velocity=0 time=0
EXTRACT: note_on channel=0 note=74 velocity=112 time=0.0013888895833333334
EXTRACT: note_on channel=2 note=65 velocity=90 time=0
EXTRACT: note_on channel=2 note=74 velocity=90 time=0
EXTRACT: note_on channel=0 note=74 velocity=0 time=0.16527786041666667
EXTRACT: note_on channel=2 note=65 velocity=0 time=0
EXTRACT: note_on channel=2 note=74 velocity=0 time=0
EXTRACT: note_on channel=5 note=70 velocity=0 time=0
EXTRACT: note_on channel=5 note=77 velocity=0 time=0
EXTRACT: note_on channel=0 note=75 velocity=112 time=0.0013888895833333334
EXTRACT: note_on channel=1 note=75 velocity=80 time=0
EXTRACT: note_on channel=2 note=63 velocity=90 time=0
EXTRACT: note_on channel=2 note=75 velocity=90 time=0
EXTRACT: note_on channel=5 note=70 velocity=90 time=0
EXTRACT: note_on channel=5 note=75 velocity=90 time=0
EXTRACT: note_on channel=1 note=75 velocity=0 time=0.15694452291666666
EXTRACT: note_on channel=0 note=75 velocity=0 time=0.0083333375
EXTRACT: note_on channel=2 note=63 velocity=0 time=0
EXTRACT: note_on channel=2 note=75 velocity=0 time=0
EXTRACT: note_on channel=0 note=74 velocity=112 time=0.0013888895833333334
EXTRACT: note_on channel=1 note=74 velocity=80 time=0
EXTRACT: note_on channel=2 note=62 velocity=90 time=0
EXTRACT: note_on channel=2 note=74 velocity=90 time=0
EXTRACT: note_on channel=1 note=74 velocity=0 time=0.15694452291666666
EXTRACT: note_on channel=0 note=74 velocity=0 time=0.0083333375
EXTRACT: note_on channel=2 note=62 velocity=0 time=0
EXTRACT: note_on channel=2 note=74 velocity=0 time=0
EXTRACT: note_on channel=5 note=70 velocity=0 time=0
EXTRACT: note_on channel=5 note=75 velocity=0 time=0
EXTRACT: note_on channel=0 note=75 velocity=112 time=0.0013888895833333334
EXTRACT: note_on channel=1 note=75 velocity=80 time=0
EXTRACT: note_on channel=2 note=65 velocity=90 time=0
EXTRACT: note_on channel=2 note=75 velocity=90 time=0
EXTRACT: note_on channel=5 note=70 velocity=90 time=0
EXTRACT: note_on channel=5 note=75 velocity=90 time=0
EXTRACT: note_on channel=0 note=75 velocity=0 time=0.16527786041666667
EXTRACT: note_on channel=2 note=65 velocity=0 time=0
EXTRACT: note_on channel=2 note=75 velocity=0 time=0
EXTRACT: note_on channel=0 note=74 velocity=112 time=0.0013888895833333334
EXTRACT: note_on channel=2 note=62 velocity=90 time=0
EXTRACT: note_on channel=2 note=74 velocity=90 time=0
EXTRACT: note_on channel=1 note=75 velocity=0 time=0.14861118541666668
EXTRACT: note_on channel=2 note=62 velocity=0 time=0.016666675
EXTRACT: note_on channel=2 note=74 velocity=0 time=0
EXTRACT: note_on channel=5 note=70 velocity=0 time=0
EXTRACT: note_on channel=5 note=75 velocity=0 time=0
EXTRACT: note_on channel=1 note=74 velocity=80 time=0.0013888895833333334
EXTRACT: note_on channel=2 note=74 velocity=90 time=0
EXTRACT: note_on channel=5 note=69 velocity=90 time=0
EXTRACT: note_on channel=5 note=74 velocity=90 time=0
EXTRACT: note_on channel=5 note=69 velocity=0 time=0.16527786041666667
EXTRACT: note_on channel=5 note=74 velocity=0 time=0
EXTRACT: note_on channel=5 note=69 velocity=90 time=0.0013888895833333334
EXTRACT: note_on channel=5 note=74 velocity=90 time=0
EXTRACT: note_on channel=1 note=74 velocity=0 time=0.14861118541666668
EXTRACT: note_on channel=2 note=74 velocity=0 time=0.016666675
EXTRACT: note_on channel=5 note=69 velocity=0 time=0
EXTRACT: note_on channel=5 note=74 velocity=0 time=0
EXTRACT: note_on channel=2 note=74 velocity=90 time=0.0013888895833333334
EXTRACT: note_on channel=5 note=70 velocity=90 time=0
EXTRACT: note_on channel=2 note=74 velocity=0 time=0.16527786041666667
EXTRACT: note_on channel=5 note=70 velocity=0 time=0
EXTRACT: note_on channel=2 note=62 velocity=90 time=0.0013888895833333334
EXTRACT: note_on channel=5 note=70 velocity=90 time=0
EXTRACT: note_on channel=5 note=75 velocity=90 time=0
EXTRACT: note_on channel=2 note=62 velocity=0 time=0.16527786041666667
EXTRACT: note_on channel=5 note=70 velocity=0 time=0
EXTRACT: note_on channel=5 note=75 velocity=0 time=0
EXTRACT: note_on channel=5 note=39 velocity=0 time=0
EXTRACT: note_on channel=5 note=46 velocity=0 time=0
EXTRACT: note_on channel=1 note=75 velocity=80 time=0.0013888895833333334
EXTRACT: note_on channel=2 note=75 velocity=90 time=0
EXTRACT: note_on channel=5 note=70 velocity=90 time=0
EXTRACT: note_on channel=5 note=75 velocity=90 time=0
EXTRACT: note_on channel=5 note=39 velocity=90 time=0
EXTRACT: note_on channel=5 note=46 velocity=90 time=0
EXTRACT: note_on channel=1 note=75 velocity=0 time=0.15694452291666666
EXTRACT: note_on channel=2 note=75 velocity=0 time=0.0083333375
EXTRACT: note_on channel=1 note=75 velocity=80 time=0.0013888895833333334
EXTRACT: note_on channel=2 note=75 velocity=90 time=0
EXTRACT: note_on channel=1 note=75 velocity=0 time=0.15694452291666666
EXTRACT: note_on channel=2 note=75 velocity=0 time=0.0083333375
EXTRACT: note_on channel=1 note=74 velocity=80 time=0.0013888895833333334
EXTRACT: note_on channel=2 note=74 velocity=90 time=0
EXTRACT: note_on channel=2 note=74 velocity=0 time=0.16527786041666667
EXTRACT: note_on channel=5 note=70 velocity=0 time=0
EXTRACT: note_on channel=5 note=75 velocity=0 time=0
EXTRACT: note_on channel=2 note=70 velocity=90 time=0.0013888895833333334
EXTRACT: note_on channel=5 note=65 velocity=90 time=0
EXTRACT: note_on channel=5 note=70 velocity=90 time=0
EXTRACT: note_on channel=1 note=74 velocity=0 time=0.14861118541666668
EXTRACT: note_on channel=0 note=74 velocity=0 time=0.016666675
EXTRACT: note_on channel=2 note=70 velocity=0 time=0
EXTRACT: note_on channel=5 note=65 velocity=0 time=0
EXTRACT: note_on channel=5 note=70 velocity=0 time=0
EXTRACT: note_on channel=5 note=39 velocity=0 time=0
EXTRACT: note_on channel=5 note=46 velocity=0 time=0
EXTRACT: note_on channel=1 note=77 velocity=80 time=0.0013888895833333334
EXTRACT: note_on channel=2 note=65 velocity=90 time=0
EXTRACT: note_on channel=2 note=77 velocity=90 time=0
EXTRACT: note_on channel=5 note=70 velocity=90 time=0
EXTRACT: note_on channel=5 note=77 velocity=90 time=0
EXTRACT: note_on channel=5 note=46 velocity=90 time=0
EXTRACT: note_on channel=5 note=53 velocity=90 time=0
EXTRACT: note_on channel=2 note=65 velocity=0 time=0.16527786041666667
EXTRACT: note_on channel=2 note=77 velocity=0 time=0
EXTRACT: note_on channel=2 note=65 velocity=90 time=0.0013888895833333334
EXTRACT: note_on channel=2 note=77 velocity=90 time=0
EXTRACT: note_on channel=1 note=77 velocity=0 time=0.14861118541666668
EXTRACT: note_on channel=5 note=70 velocity=0 time=0.016666675
EXTRACT: note_on channel=5 note=77 velocity=0 time=0
EXTRACT: note_on channel=0 note=77 velocity=112 time=0.0013888895833333334
EXTRACT: note_on channel=5 note=70 velocity=90 time=0
EXTRACT: note_on channel=5 note=77 velocity=90 time=0
EXTRACT: note_on channel=2 note=65 velocity=0 time=0.16527786041666667
EXTRACT: note_on channel=2 note=77 velocity=0 time=0
EXTRACT: note_on channel=2 note=65 velocity=90 time=0.0013888895833333334
EXTRACT: note_on channel=2 note=77 velocity=90 time=0
EXTRACT: note_on channel=0 note=77 velocity=0 time=0.16527786041666667
EXTRACT: note_on channel=2 note=65 velocity=0 time=0
EXTRACT: note_on channel=2 note=77 velocity=0 time=0
EXTRACT: note_on channel=5 note=70 velocity=0 time=0
EXTRACT: note_on channel=5 note=77 velocity=0 time=0
EXTRACT: note_on channel=0 note=77 velocity=112 time=0.0013888895833333334
EXTRACT: note_on channel=1 note=77 velocity=80 time=0
EXTRACT: note_on channel=2 note=65 velocity=90 time=0
EXTRACT: note_on channel=2 note=77 velocity=90 time=0
EXTRACT: note_on channel=5 note=70 velocity=90 time=0
EXTRACT: note_on channel=5 note=77 velocity=90 time=0
EXTRACT: note_on channel=1 note=77 velocity=0 time=0.15694452291666666
EXTRACT: note_on channel=2 note=65 velocity=0 time=0.0083333375
EXTRACT: note_on channel=2 note=77 velocity=0 time=0
EXTRACT: note_on channel=1 note=75 velocity=80 time=0.0013888895833333334
EXTRACT: note_on channel=2 note=70 velocity=90 time=0
EXTRACT: note_on channel=1 note=75 velocity=0 time=0.15694452291666666
EXTRACT: note_on channel=2 note=70 velocity=0 time=0.0083333375
EXTRACT: note_on channel=5 note=70 velocity=0 time=0
EXTRACT: note_on channel=5 note=77 velocity=0 time=0
EXTRACT: note_on channel=1 note=77 velocity=80 time=0.0013888895833333334
EXTRACT: note_on channel=2 note=77 velocity=90 time=0
EXTRACT: note_on channel=5 note=70 velocity=90 time=0
EXTRACT: note_on channel=5 note=74 velocity=90 time=0
EXTRACT: note_on channel=0 note=77 velocity=0 time=0.16527786041666667
EXTRACT: note_on channel=2 note=77 velocity=0 time=0
EXTRACT: note_on channel=0 note=74 velocity=112 time=0.0013888895833333334
EXTRACT: note_on channel=2 note=74 velocity=90 time=0
EXTRACT: note_on channel=1 note=77 velocity=0 time=0.14861118541666668
EXTRACT: note_on channel=0 note=74 velocity=0 time=0.016666675
EXTRACT: note_on channel=2 note=74 velocity=0 time=0
EXTRACT: note_on channel=5 note=70 velocity=0 time=0
EXTRACT: note_on channel=5 note=74 velocity=0 time=0
EXTRACT: note_on channel=0 note=74 velocity=112 time=0.0013888895833333334
EXTRACT: note_on channel=1 note=74 velocity=80 time=0
EXTRACT: note_on channel=2 note=74 velocity=90 time=0
EXTRACT: note_on channel=5 note=70 velocity=90 time=0
EXTRACT: note_on channel=5 note=74 velocity=90 time=0
EXTRACT: note_on channel=5 note=70 velocity=0 time=0.16527786041666667
EXTRACT: note_on channel=5 note=74 velocity=0 time=0
EXTRACT: note_on channel=5 note=70 velocity=90 time=0.0013888895833333334
EXTRACT: note_on channel=5 note=74 velocity=90 time=0
EXTRACT: note_on channel=1 note=74 velocity=0 time=0.14861118541666668
EXTRACT: note_on channel=0 note=74 velocity=0 time=0.016666675
EXTRACT: note_on channel=2 note=74 velocity=0 time=0
EXTRACT: note_on channel=5 note=70 velocity=0 time=0
EXTRACT: note_on channel=5 note=74 velocity=0 time=0
EXTRACT: note_on channel=0 note=72 velocity=112 time=0.0013888895833333334
EXTRACT: note_on channel=2 note=72 velocity=90 time=0
EXTRACT: note_on channel=5 note=72 velocity=90 time=0
EXTRACT: note_on channel=2 note=72 velocity=0 time=0.16527786041666667
EXTRACT: note_on channel=5 note=72 velocity=0 time=0
EXTRACT: note_on channel=2 note=72 velocity=90 time=0.0013888895833333334
EXTRACT: note_on channel=5 note=72 velocity=90 time=0
EXTRACT: note_on channel=0 note=72 velocity=0 time=0.16527786041666667
EXTRACT: note_on channel=2 note=72 velocity=0 time=0
EXTRACT: note_on channel=5 note=72 velocity=0 time=0
EXTRACT: note_on channel=5 note=46 velocity=0 time=0
EXTRACT: note_on channel=5 note=53 velocity=0 time=0
EXTRACT: note_on channel=0 note=70 velocity=112 time=0.0013888895833333334
EXTRACT: note_on channel=1 note=72 velocity=80 time=0
EXTRACT: note_on channel=2 note=70 velocity=90 time=0
EXTRACT: note_on channel=2 note=77 velocity=90 time=0
EXTRACT: note_on channel=5 note=65 velocity=90 time=0
EXTRACT: note_on channel=5 note=70 velocity=90 time=0
EXTRACT: note_on channel=5 note=46 velocity=90 time=0
EXTRACT: note_on channel=5 note=53 velocity=90 time=0
EXTRACT: note_on channel=1 note=72 velocity=0 time=0.15694452291666666
EXTRACT: note_on channel=1 note=70 velocity=80 time=0.009722227083333333
EXTRACT: note_on channel=1 note=70 velocity=0 time=0.15694452291666666
EXTRACT: note_on channel=1 note=70 velocity=80 time=0.009722227083333333
EXTRACT: note_on channel=1 note=70 velocity=0 time=0.31527793541666665
EXTRACT: note_on channel=0 note=70 velocity=0 time=0.016666675
EXTRACT: note_on channel=2 note=70 velocity=0 time=0
EXTRACT: note_on channel=2 note=77 velocity=0 time=0
EXTRACT: note_on channel=5 note=65 velocity=0 time=0
EXTRACT: note_on channel=5 note=70 velocity=0 time=0
EXTRACT: note_on channel=5 note=46 velocity=0 time=0
EXTRACT: note_on channel=5 note=53 velocity=0 time=0
EXTRACT: note_on channel=1 note=77 velocity=80 time=0.0013888895833333334
EXTRACT: note_on channel=2 note=65 velocity=90 time=0
EXTRACT: note_on channel=2 note=77 velocity=90 time=0
EXTRACT: note_on channel=5 note=65 velocity=60 time=0
EXTRACT: note_on channel=5 note=70 velocity=60 time=0
EXTRACT: note_on channel=5 note=41 velocity=60 time=0
EXTRACT: note_on channel=5 note=48 velocity=60 time=0
EXTRACT: note_on channel=2 note=65 velocity=0 time=0.16527786041666667
EXTRACT: note_on channel=2 note=77 velocity=0 time=0
EXTRACT: note_on channel=0 note=72 velocity=112 time=0.0013888895833333334
EXTRACT: note_on channel=2 note=74 velocity=90 time=0
EXTRACT: note_on channel=1 note=77 velocity=0 time=0.14861118541666668
EXTRACT: note_on channel=0 note=72 velocity=0 time=0.016666675
EXTRACT: note_on channel=5 note=65 velocity=0 time=0
EXTRACT: note_on channel=5 note=70 velocity=0 time=0
EXTRACT: note_on channel=0 note=77 velocity=112 time=0.0013888895833333334
EXTRACT: note_on channel=5 note=65 velocity=60 time=0
EXTRACT: note_on channel=5 note=70 velocity=60 time=0
EXTRACT: note_on channel=2 note=74 velocity=0 time=0.16527786041666667
EXTRACT: note_on channel=2 note=77 velocity=90 time=0.0013888895833333334
EXTRACT: note_on channel=0 note=77 velocity=0 time=0.16527786041666667
EXTRACT: note_on channel=2 note=77 velocity=0 time=0
EXTRACT: note_on channel=5 note=65 velocity=0 time=0
EXTRACT: note_on channel=5 note=70 velocity=0 time=0
EXTRACT: note_on channel=0 note=77 velocity=112 time=0.0013888895833333334
EXTRACT: note_on channel=1 note=79 velocity=80 time=0
EXTRACT: note_on channel=2 note=79 velocity=90 time=0
EXTRACT: note_on channel=5 note=63 velocity=60 time=0
EXTRACT: note_on channel=5 note=69 velocity=60 time=0
EXTRACT: note_on channel=1 note=79 velocity=0 time=0.15694452291666666
EXTRACT: note_on channel=2 note=79 velocity=0 time=0.0083333375
EXTRACT: note_on channel=1 note=77 velocity=80 time=0.0013888895833333334
EXTRACT: note_on channel=2 note=77 velocity=90 time=0
EXTRACT: note_on channel=1 note=77 velocity=0 time=0.15694452291666666
EXTRACT: note_on channel=2 note=77 velocity=0 time=0.0083333375
EXTRACT: note_on channel=5 note=63 velocity=0 time=0
EXTRACT: note_on channel=5 note=69 velocity=0 time=0
EXTRACT: note_on channel=1 note=74 velocity=80 time=0.0013888895833333334
EXTRACT: note_on channel=2 note=74 velocity=90 time=0
EXTRACT: note_on channel=5 note=65 velocity=60 time=0
EXTRACT: note_on channel=5 note=70 velocity=60 time=0
EXTRACT: note_on channel=0 note=77 velocity=0 time=0.16527786041666667
EXTRACT: note_on channel=2 note=74 velocity=0 time=0
EXTRACT: note_on channel=5 note=65 velocity=0 time=0
EXTRACT: note_on channel=5 note=70 velocity=0 time=0
EXTRACT: note_on channel=0 note=74 velocity=112 time=0.0013888895833333334
EXTRACT: note_on channel=2 note=74 velocity=90 time=0
EXTRACT: note_on channel=5 note=67 velocity=60 time=0
EXTRACT: note_on channel=5 note=74 velocity=60 time=0
EXTRACT: note_on channel=1 note=74 velocity=0 time=0.14861118541666668
EXTRACT: note_on channel=2 note=74 velocity=0 time=0.016666675
EXTRACT: note_on channel=5 note=67 velocity=0 time=0
EXTRACT: note_on channel=5 note=74 velocity=0 time=0
EXTRACT: note_on channel=1 note=72 velocity=80 time=0.0013888895833333334
EXTRACT: note_on channel=2 note=72 velocity=90 time=0
EXTRACT: note_on channel=5 note=67 velocity=60 time=0
EXTRACT: note_on channel=5 note=74 velocity=60 time=0
EXTRACT: note_on channel=5 note=67 velocity=0 time=0.16527786041666667
EXTRACT: note_on channel=5 note=74 velocity=0 time=0
EXTRACT: note_on channel=5 note=67 velocity=60 time=0.0013888895833333334
EXTRACT: note_on channel=5 note=74 velocity=60 time=0
EXTRACT: note_on channel=1 note=72 velocity=0 time=0.14861118541666668
EXTRACT: note_on channel=0 note=74 velocity=0 time=0.016666675
EXTRACT: note_on channel=2 note=72 velocity=0 time=0
EXTRACT: note_on channel=5 note=67 velocity=0 time=0
EXTRACT: note_on channel=5 note=74 velocity=0 time=0
EXTRACT: note_on channel=0 note=72 velocity=112 time=0.0013888895833333334
EXTRACT: note_on channel=2 note=69 velocity=90 time=0
EXTRACT: note_on channel=5 note=74 velocity=60 time=0
EXTRACT: note_on channel=2 note=69 velocity=0 time=0.16527786041666667
EXTRACT: note_on channel=2 note=72 velocity=90 time=0.0013888895833333334
EXTRACT: note_on channel=2 note=72 velocity=0 time=0.16527786041666667
EXTRACT: note_on channel=5 note=74 velocity=0 time=0
EXTRACT: note_on channel=5 note=41 velocity=0 time=0
EXTRACT: note_on channel=5 note=48 velocity=0 time=0
EXTRACT: note_on channel=1 note=72 velocity=80 time=0.0013888895833333334
EXTRACT: note_on channel=2 note=72 velocity=90 time=0
EXTRACT: note_on channel=5 note=69 velocity=60 time=0
EXTRACT: note_on channel=5 note=74 velocity=60 time=0
EXTRACT: note_on channel=5 note=41 velocity=60 time=0
EXTRACT: note_on channel=5 note=48 velocity=60 time=0
EXTRACT: note_on channel=1 note=72 velocity=0 time=0.15694452291666666
EXTRACT: note_on channel=1 note=72 velocity=80 time=0.009722227083333333
EXTRACT: note_on channel=1 note=72 velocity=0 time=0.15694452291666666
EXTRACT: note_on channel=1 note=72 velocity=80 time=0.009722227083333333
EXTRACT: note_on channel=1 note=72 velocity=0 time=0.31527793541666665
EXTRACT: note_on channel=0 note=72 velocity=0 time=0.016666675
EXTRACT: note_on channel=2 note=72 velocity=0 time=0
EXTRACT: note_on channel=5 note=69 velocity=0 time=0
EXTRACT: note_on channel=5 note=74 velocity=0 time=0
EXTRACT: note_on channel=5 note=41 velocity=0 time=0
EXTRACT: note_on channel=5 note=48 velocity=0 time=0
EXTRACT: note_on channel=1 note=77 velocity=80 time=0.0013888895833333334
EXTRACT: note_on channel=2 note=65 velocity=90 time=0
EXTRACT: note_on channel=2 note=77 velocity=90 time=0
EXTRACT: note_on channel=5 note=70 velocity=60 time=0
EXTRACT: note_on channel=5 note=77 velocity=60 time=0
EXTRACT: note_on channel=5 note=43 velocity=60 time=0
EXTRACT: note_on channel=5 note=50 velocity=60 time=0
EXTRACT: note_on channel=2 note=65 velocity=0 time=0.16527786041666667
EXTRACT: note_on channel=2 note=77 velocity=0 time=0
EXTRACT: note_on channel=0 note=70 velocity=112 time=0.0013888895833333334
EXTRACT: note_on channel=2 note=65 velocity=90 time=0
EXTRACT: note_on channel=2 note=77 velocity=90 time=0
EXTRACT: note_on channel=1 note=77 velocity=0 time=0.14861118541666668
EXTRACT: note_on channel=0 note=70 velocity=0 time=0.016666675
EXTRACT: note_on channel=5 note=70 velocity=0 time=0
EXTRACT: note_on channel=5 note=77 velocity=0 time=0
EXTRACT: note_on channel=0 note=77 velocity=112 time=0.0013888895833333334
EXTRACT: note_on channel=5 note=70 velocity=60 time=0
EXTRACT: note_on channel=5 note=77 velocity=60 time=0
EXTRACT: note_on channel=2 note=65 velocity=0 time=0.16527786041666667
EXTRACT: note_on channel=2 note=77 velocity=0 time=0
EXTRACT: note_on channel=2 note=65 velocity=90 time=0.0013888895833333334
EXTRACT: note_on channel=2 note=77 velocity=90 time=0
EXTRACT: note_on channel=0 note=77 velocity=0 time=0.16527786041666667
EXTRACT: note_on channel=2 note=65 velocity=0 time=0
EXTRACT: note_on channel=2 note=77 velocity=0 time=0
EXTRACT: note_on channel=5 note=70 velocity=0 time=0
EXTRACT: note_on channel=5 note=77 velocity=0 time=0
EXTRACT: note_on channel=0 note=77 velocity=112 time=0.0013888895833333334
EXTRACT: note_on channel=1 note=77 velocity=80 time=0
EXTRACT: note_on channel=2 note=70 velocity=90 time=0
EXTRACT: note_on channel=2 note=77 velocity=90 time=0
EXTRACT: note_on channel=5 note=70 velocity=60 time=0
EXTRACT: note_on channel=5 note=77 velocity=60 time=0
EXTRACT: note_on channel=1 note=77 velocity=0 time=0.15694452291666666
EXTRACT: note_on channel=2 note=70 velocity=0 time=0.0083333375
EXTRACT: note_on channel=2 note=77 velocity=0 time=0
EXTRACT: note_on channel=1 note=77 velocity=80 time=0.0013888895833333334
EXTRACT: note_on channel=2 note=70 velocity=90 time=0
EXTRACT: note_on channel=2 note=77 velocity=90 time=0
EXTRACT: note_on channel=1 note=77 velocity=0 time=0.15694452291666666
EXTRACT: note_on channel=2 note=70 velocity=0 time=0.0083333375
EXTRACT: note_on channel=2 note=77 velocity=0 time=0
EXTRACT: note_on channel=5 note=70 velocity=0 time=0
EXTRACT: note_on channel=5 note=77 velocity=0 time=0
EXTRACT: note_on channel=1 note=74 velocity=80 time=0.0013888895833333334
EXTRACT: note_on channel=2 note=77 velocity=90 time=0
EXTRACT: note_on channel=5 note=74 velocity=60 time=0
EXTRACT: note_on channel=0 note=77 velocity=0 time=0.16527786041666667
EXTRACT: note_on channel=2 note=77 velocity=0 time=0
EXTRACT: note_on channel=0 note=74 velocity=112 time=0.0013888895833333334
EXTRACT: note_on channel=2 note=62 velocity=90 time=0
EXTRACT: note_on channel=2 note=74 velocity=90 time=0
EXTRACT: note_on channel=1 note=74 velocity=0 time=0.14861118541666668
EXTRACT: note_on channel=0 note=74 velocity=0 time=0.016666675
EXTRACT: note_on channel=2 note=62 velocity=0 time=0
EXTRACT: note_on channel=2 note=74 velocity=0 time=0
EXTRACT: note_on channel=5 note=74 velocity=0 time=0
EXTRACT: note_on channel=0 note=74 velocity=112 time=0.0013888895833333334
EXTRACT: note_on channel=1 note=74 velocity=80 time=0
EXTRACT: note_on channel=2 note=74 velocity=90 time=0
EXTRACT: note_on channel=5 note=67 velocity=60 time=0
EXTRACT: note_on channel=5 note=74 velocity=60 time=0
EXTRACT: note_on channel=5 note=67 velocity=0 time=0.16527786041666667
EXTRACT: note_on channel=5 note=74 velocity=0 time=0
EXTRACT: note_on channel=5 note=67 velocity=60 time=0.0013888895833333334
EXTRACT: note_on channel=5 note=74 velocity=60 time=0
EXTRACT: note_on channel=1 note=74 velocity=0 time=0.14861118541666668
EXTRACT: note_on channel=0 note=74 velocity=0 time=0.016666675
EXTRACT: note_on channel=2 note=74 velocity=0 time=0
EXTRACT: note_on channel=5 note=67 velocity=0 time=0
EXTRACT: note_on channel=5 note=74 velocity=0 time=0
EXTRACT: note_on channel=0 note=72 velocity=112 time=0.0013888895833333334
EXTRACT: note_on channel=2 note=72 velocity=90 time=0
EXTRACT: note_on channel=5 note=65 velocity=60 time=0
EXTRACT: note_on channel=5 note=72 velocity=60 time=0
EXTRACT: note_on channel=2 note=72 velocity=0 time=0.16527786041666667
EXTRACT: note_on channel=5 note=65 velocity=0 time=0
EXTRACT: note_on channel=5 note=72 velocity=0 time=0
EXTRACT: note_on channel=2 note=72 velocity=90 time=0.0013888895833333334
EXTRACT: note_on channel=5 note=65 velocity=60 time=0
EXTRACT: note_on channel=5 note=72 velocity=60 time=0
EXTRACT: note_on channel=0 note=72 velocity=0 time=0.16527786041666667
EXTRACT: note_on channel=2 note=72 velocity=0 time=0
EXTRACT: note_on channel=5 note=65 velocity=0 time=0
EXTRACT: note_on channel=5 note=72 velocity=0 time=0
EXTRACT: note_on channel=5 note=43 velocity=0 time=0
EXTRACT: note_on channel=5 note=50 velocity=0 time=0
EXTRACT: note_on channel=0 note=70 velocity=112 time=0.0013888895833333334
EXTRACT: note_on channel=1 note=70 velocity=80 time=0
EXTRACT: note_on channel=2 note=62 velocity=90 time=0
EXTRACT: note_on channel=2 note=70 velocity=90 time=0
EXTRACT: note_on channel=5 note=65 velocity=60 time=0
EXTRACT: note_on channel=5 note=70 velocity=60 time=0
EXTRACT: note_on channel=5 note=41 velocity=60 time=0
EXTRACT: note_on channel=5 note=50 velocity=60 time=0
EXTRACT: note_on channel=1 note=70 velocity=0 time=0.15694452291666666
EXTRACT: note_on channel=2 note=62 velocity=0 time=0.0083333375
EXTRACT: note_on channel=2 note=70 velocity=0 time=0
EXTRACT: note_on channel=1 note=70 velocity=80 time=0.0013888895833333334
EXTRACT: note_on channel=2 note=62 velocity=90 time=0
EXTRACT: note_on channel=2 note=70 velocity=90 time=0
EXTRACT: note_on channel=1 note=70 velocity=0 time=0.15694452291666666
EXTRACT: note_on channel=0 note=70 velocity=0 time=0.0083333375
EXTRACT: note_on channel=2 note=62 velocity=0 time=0
EXTRACT: note_on channel=2 note=70 velocity=0 time=0
EXTRACT: note_on channel=0 note=70 velocity=112 time=0.0013888895833333334
EXTRACT: note_on channel=1 note=70 velocity=80 time=0
EXTRACT: note_on channel=2 note=70 velocity=90 time=0
EXTRACT: note_on channel=1 note=70 velocity=0 time=0.31527793541666665
EXTRACT: note_on channel=0 note=70 velocity=0 time=0.016666675
EXTRACT: note_on channel=2 note=70 velocity=0 time=0
EXTRACT: note_on channel=5 note=65 velocity=0 time=0
EXTRACT: note_on channel=5 note=70 velocity=0 time=0
EXTRACT: note_on channel=5 note=41 velocity=0 time=0
EXTRACT: note_on channel=5 note=50 velocity=0 time=0
EXTRACT: note_on channel=0 note=75 velocity=112 time=0.0013888895833333334
EXTRACT: note_on channel=1 note=75 velocity=80 time=0
EXTRACT: note_on channel=2 note=67 velocity=90 time=0
EXTRACT: note_on channel=2 note=75 velocity=90 time=0
EXTRACT: note_on channel=5 note=70 velocity=90 time=0
EXTRACT: note_on channel=5 note=77 velocity=90 time=0
EXTRACT: note_on channel=5 note=39 velocity=90 time=0
EXTRACT: note_on channel=5 note=46 velocity=90 time=0
EXTRACT: note_on channel=2 note=67 velocity=0 time=0.16527786041666667
EXTRACT: note_on channel=2 note=75 velocity=0 time=0
EXTRACT: note_on channel=2 note=67 velocity=90 time=0.0013888895833333334
EXTRACT: note_on channel=2 note=75 velocity=90 time=0
EXTRACT: note_on channel=1 note=75 velocity=0 time=0.14861118541666668
EXTRACT: note_on channel=0 note=75 velocity=0 time=0.016666675
EXTRACT: note_on channel=5 note=70 velocity=0 time=0
EXTRACT: note_on channel=5 note=77 velocity=0 time=0
EXTRACT: note_on channel=0 note=75 velocity=112 time=0.0013888895833333334
EXTRACT: note_on channel=5 note=70 velocity=90 time=0
EXTRACT: note_on channel=5 note=77 velocity=90 time=0
EXTRACT: note_on channel=2 note=67 velocity=0 time=0.16527786041666667
EXTRACT: note_on channel=2 note=75 velocity=0 time=0
EXTRACT: note_on channel=2 note=65 velocity=90 time=0.0013888895833333334
EXTRACT: note_on channel=2 note=74 velocity=90 time=0
EXTRACT: note_on channel=0 note=75 velocity=0 time=0.16527786041666667
EXTRACT: note_on channel=2 note=65 velocity=0 time=0
EXTRACT: note_on channel=2 note=74 velocity=0 time=0
EXTRACT: note_on channel=5 note=70 velocity=0 time=0
EXTRACT: note_on channel=5 note=77 velocity=0 time=0
EXTRACT: note_on channel=0 note=75 velocity=112 time=0.0013888895833333334
EXTRACT: note_on channel=1 note=75 velocity=80 time=0
EXTRACT: note_on channel=2 note=63 velocity=90 time=0
EXTRACT: note_on channel=2 note=75 velocity=90 time=0
EXTRACT: note_on channel=5 note=70 velocity=90 time=0
EXTRACT: note_on channel=5 note=75 velocity=90 time=0
EXTRACT: note_on channel=1 note=75 velocity=0 time=0.15694452291666666
EXTRACT: note_on channel=0 note=75 velocity=0 time=0.0083333375
EXTRACT: note_on channel=2 note=63 velocity=0 time=0
EXTRACT: note_on channel=2 note=75 velocity=0 time=0
EXTRACT: note_on channel=0 note=74 velocity=112 time=0.0013888895833333334
EXTRACT: note_on channel=1 note=74 velocity=80 time=0
EXTRACT: note_on channel=2 note=62 velocity=90 time=0
EXTRACT: note_on channel=2 note=74 velocity=90 time=0
EXTRACT: note_on channel=1 note=74 velocity=0 time=0.15694452291666666
EXTRACT: note_on channel=0 note=74 velocity=0 time=0.0083333375
EXTRACT: note_on channel=2 note=62 velocity=0 time=0
EXTRACT: note_on channel=2 note=74 velocity=0 time=0
EXTRACT: note_on channel=5 note=70 velocity=0 time=0
EXTRACT: note_on channel=5 note=75 velocity=0 time=0
EXTRACT: note_on channel=0 note=75 velocity=112 time=0.0013888895833333334
EXTRACT: note_on channel=1 note=75 velocity=80 time=0
EXTRACT: note_on channel=2 note=65 velocity=90 time=0
EXTRACT: note_on channel=2 note=75 velocity=90 time=0
EXTRACT: note_on channel=5 note=70 velocity=90 time=0
EXTRACT: note_on channel=5 note=75 velocity=90 time=0
EXTRACT: note_on channel=0 note=75 velocity=0 time=0.16527786041666667
EXTRACT: note_on channel=2 note=65 velocity=0 time=0
EXTRACT: note_on channel=2 note=75 velocity=0 time=0
EXTRACT: note_on channel=0 note=74 velocity=112 time=0.0013888895833333334
EXTRACT: note_on channel=2 note=62 velocity=90 time=0
EXTRACT: note_on channel=2 note=74 velocity=90 time=0
EXTRACT: note_on channel=1 note=75 velocity=0 time=0.14861118541666668
EXTRACT: note_on channel=2 note=62 velocity=0 time=0.016666675
EXTRACT: note_on channel=2 note=74 velocity=0 time=0
EXTRACT: note_on channel=5 note=70 velocity=0 time=0
EXTRACT: note_on channel=5 note=75 velocity=0 time=0
EXTRACT: note_on channel=1 note=74 velocity=80 time=0.0013888895833333334
EXTRACT: note_on channel=2 note=74 velocity=90 time=0
EXTRACT: note_on channel=5 note=69 velocity=90 time=0
EXTRACT: note_on channel=5 note=74 velocity=90 time=0
EXTRACT: note_on channel=5 note=69 velocity=0 time=0.16527786041666667
EXTRACT: note_on channel=5 note=74 velocity=0 time=0
EXTRACT: note_on channel=5 note=69 velocity=90 time=0.0013888895833333334
EXTRACT: note_on channel=5 note=74 velocity=90 time=0
EXTRACT: note_on channel=1 note=74 velocity=0 time=0.14861118541666668
EXTRACT: note_on channel=2 note=74 velocity=0 time=0.016666675
EXTRACT: note_on channel=5 note=69 velocity=0 time=0
EXTRACT: note_on channel=5 note=74 velocity=0 time=0
EXTRACT: note_on channel=2 note=74 velocity=90 time=0.0013888895833333334
EXTRACT: note_on channel=5 note=70 velocity=90 time=0
EXTRACT: note_on channel=2 note=74 velocity=0 time=0.16527786041666667
EXTRACT: note_on channel=5 note=70 velocity=0 time=0
EXTRACT: note_on channel=2 note=62 velocity=90 time=0.0013888895833333334
EXTRACT: note_on channel=5 note=70 velocity=90 time=0
EXTRACT: note_on channel=5 note=75 velocity=90 time=0
EXTRACT: note_on channel=2 note=62 velocity=0 time=0.16527786041666667
EXTRACT: note_on channel=5 note=70 velocity=0 time=0
EXTRACT: note_on channel=5 note=75 velocity=0 time=0
EXTRACT: note_on channel=5 note=39 velocity=0 time=0
EXTRACT: note_on channel=5 note=46 velocity=0 time=0
EXTRACT: note_on channel=1 note=75 velocity=80 time=0.0013888895833333334
EXTRACT: note_on channel=2 note=75 velocity=90 time=0
EXTRACT: note_on channel=5 note=70 velocity=90 time=0
EXTRACT: note_on channel=5 note=75 velocity=90 time=0
EXTRACT: note_on channel=5 note=39 velocity=90 time=0
EXTRACT: note_on channel=5 note=46 velocity=90 time=0
EXTRACT: note_on channel=1 note=75 velocity=0 time=0.15694452291666666
EXTRACT: note_on channel=2 note=75 velocity=0 time=0.0083333375
EXTRACT: note_on channel=1 note=75 velocity=80 time=0.0013888895833333334
EXTRACT: note_on channel=2 note=75 velocity=90 time=0
EXTRACT: note_on channel=1 note=75 velocity=0 time=0.15694452291666666
EXTRACT: note_on channel=0 note=74 velocity=0 time=0.0083333375
EXTRACT: note_on channel=2 note=75 velocity=0 time=0
EXTRACT: note_on channel=0 note=77 velocity=126 time=0.0013888895833333334
EXTRACT: note_on channel=1 note=74 velocity=80 time=0
EXTRACT: note_on channel=2 note=74 velocity=90 time=0
EXTRACT: note_on channel=2 note=74 velocity=0 time=0.16527786041666667
EXTRACT: note_on channel=5 note=70 velocity=0 time=0
EXTRACT: note_on channel=5 note=75 velocity=0 time=0
EXTRACT: note_on channel=2 note=70 velocity=90 time=0.0013888895833333334
EXTRACT: note_on channel=5 note=65 velocity=90 time=0
EXTRACT: note_on channel=5 note=70 velocity=90 time=0
EXTRACT: note_on channel=1 note=74 velocity=0 time=0.14861118541666668
EXTRACT: note_on channel=0 note=77 velocity=0 time=0.016666675
EXTRACT: note_on channel=2 note=70 velocity=0 time=0
EXTRACT: note_on channel=5 note=65 velocity=0 time=0
EXTRACT: note_on channel=5 note=70 velocity=0 time=0
EXTRACT: note_on channel=5 note=39 velocity=0 time=0
EXTRACT: note_on channel=5 note=46 velocity=0 time=0
EXTRACT: note_on channel=0 note=81 velocity=126 time=0.0013888895833333334
EXTRACT: note_on channel=1 note=77 velocity=80 time=0
EXTRACT: note_on channel=2 note=69 velocity=90 time=0
EXTRACT: note_on channel=2 note=81 velocity=90 time=0
EXTRACT: note_on channel=5 note=69 velocity=90 time=0
EXTRACT: note_on channel=5 note=81 velocity=90 time=0
EXTRACT: note_on channel=5 note=46 velocity=90 time=0
EXTRACT: note_on channel=5 note=53 velocity=90 time=0
EXTRACT: note_on channel=2 note=69 velocity=0 time=0.16527786041666667
EXTRACT: note_on channel=2 note=81 velocity=0 time=0
EXTRACT: note_on channel=2 note=70 velocity=90 time=0.0013888895833333334
EXTRACT: note_on channel=2 note=77 velocity=90 time=0
EXTRACT: note_on channel=1 note=77 velocity=0 time=0.14861118541666668
EXTRACT: note_on channel=5 note=69 velocity=0 time=0.016666675
EXTRACT: note_on channel=5 note=81 velocity=0 time=0
EXTRACT: note_on channel=5 note=70 velocity=90 time=0.0013888895833333334
EXTRACT: note_on channel=5 note=82 velocity=90 time=0
EXTRACT: note_on channel=0 note=81 velocity=0 time=0.16527786041666667
EXTRACT: note_on channel=2 note=70 velocity=0 time=0
EXTRACT: note_on channel=2 note=77 velocity=0 time=0
EXTRACT: note_on channel=0 note=82 velocity=126 time=0.0013888895833333334
EXTRACT: note_on channel=2 note=77 velocity=90 time=0
EXTRACT: note_on channel=2 note=77 velocity=0 time=0.16527786041666667
EXTRACT: note_on channel=5 note=70 velocity=0 time=0
EXTRACT: note_on channel=5 note=82 velocity=0 time=0
EXTRACT: note_on channel=1 note=77 velocity=80 time=0.0013888895833333334
EXTRACT: note_on channel=2 note=70 velocity=90 time=0
EXTRACT: note_on channel=5 note=70 velocity=90 time=0
EXTRACT: note_on channel=5 note=82 velocity=90 time=0
EXTRACT: note_on channel=1 note=77 velocity=0 time=0.15694452291666666
EXTRACT: note_on channel=2 note=70 velocity=0 time=0.0083333375
EXTRACT: note_on channel=1 note=75 velocity=80 time=0.0013888895833333334
EXTRACT: note_on channel=2 note=70 velocity=90 time=0
EXTRACT: note_on channel=1 note=75 velocity=0 time=0.15694452291666666
EXTRACT: note_on channel=0 note=82 velocity=0 time=0.0083333375
EXTRACT: note_on channel=2 note=70 velocity=0 time=0
EXTRACT: note_on channel=5 note=70 velocity=0 time=0
EXTRACT: note_on channel=5 note=82 velocity=0 time=0
EXTRACT: note_on channel=0 note=77 velocity=126 time=0.0013888895833333334
EXTRACT: note_on channel=1 note=77 velocity=80 time=0
EXTRACT: note_on channel=2 note=77 velocity=90 time=0
EXTRACT: note_on channel=5 note=65 velocity=90 time=0
EXTRACT: note_on channel=5 note=77 velocity=90 time=0
EXTRACT: note_on channel=2 note=77 velocity=0 time=0.16527786041666667
EXTRACT: note_on channel=2 note=74 velocity=90 time=0.0013888895833333334
EXTRACT: note_on channel=2 note=77 velocity=90 time=0
EXTRACT: note_on channel=1 note=77 velocity=0 time=0.14861118541666668
EXTRACT: note_on channel=2 note=74 velocity=0 time=0.016666675
EXTRACT: note_on channel=2 note=77 velocity=0 time=0
EXTRACT: note_on channel=5 note=65 velocity=0 time=0
EXTRACT: note_on channel=5 note=77 velocity=0 time=0
EXTRACT: note_on channel=5 note=46 velocity=0 time=0
EXTRACT: note_on channel=5 note=53 velocity=0 time=0
EXTRACT: note_on channel=1 note=74 velocity=80 time=0.0013888895833333334
EXTRACT: note_on channel=2 note=74 velocity=90 time=0
EXTRACT: note_on channel=2 note=77 velocity=90 time=0
EXTRACT: note_on channel=5 note=65 velocity=90 time=0
EXTRACT: note_on channel=5 note=74 velocity=90 time=0
EXTRACT: note_on channel=5 note=46 velocity=90 time=0
EXTRACT: note_on channel=5 note=53 velocity=90 time=0
EXTRACT: note_on channel=0 note=77 velocity=0 time=0.16527786041666667
EXTRACT: note_on channel=5 note=65 velocity=0 time=0
EXTRACT: note_on channel=5 note=74 velocity=0 time=0
EXTRACT: note_on channel=0 note=74 velocity=126 time=0.0013888895833333334
EXTRACT: note_on channel=5 note=65 velocity=90 time=0
EXTRACT: note_on channel=5 note=74 velocity=90 time=0
EXTRACT: note_on channel=1 note=74 velocity=0 time=0.14861118541666668
EXTRACT: note_on channel=2 note=74 velocity=0 time=0.016666675
EXTRACT: note_on channel=2 note=77 velocity=0 time=0
EXTRACT: note_on channel=5 note=65 velocity=0 time=0
EXTRACT: note_on channel=5 note=74 velocity=0 time=0
EXTRACT: note_on channel=2 note=77 velocity=90 time=0.0013888895833333334
EXTRACT: note_on channel=5 note=74 velocity=90 time=0
EXTRACT: note_on channel=2 note=77 velocity=0 time=0.16527786041666667
EXTRACT: note_on channel=5 note=74 velocity=0 time=0
EXTRACT: note_on channel=2 note=77 velocity=90 time=0.0013888895833333334
EXTRACT: note_on channel=5 note=74 velocity=90 time=0
EXTRACT: note_on channel=0 note=74 velocity=0 time=0.16527786041666667
EXTRACT: note_on channel=2 note=77 velocity=0 time=0
EXTRACT: note_on channel=5 note=74 velocity=0 time=0
EXTRACT: note_on channel=0 note=77 velocity=126 time=0.0013888895833333334
EXTRACT: note_on channel=1 note=72 velocity=80 time=0
EXTRACT: note_on channel=2 note=70 velocity=90 time=0
EXTRACT: note_on channel=2 note=77 velocity=90 time=0
EXTRACT: note_on channel=5 note=65 velocity=90 time=0
EXTRACT: note_on channel=5 note=70 velocity=90 time=0
EXTRACT: note_on channel=1 note=72 velocity=0 time=0.15694452291666666
EXTRACT: note_on channel=1 note=70 velocity=80 time=0.009722227083333333
EXTRACT: note_on channel=1 note=70 velocity=0 time=0.15694452291666666
EXTRACT: note_on channel=1 note=70 velocity=80 time=0.009722227083333333
EXTRACT: note_on channel=1 note=70 velocity=0 time=0.31527793541666665
EXTRACT: note_on channel=2 note=70 velocity=0 time=0.016666675
EXTRACT: note_on channel=2 note=77 velocity=0 time=0
EXTRACT: note_on channel=5 note=65 velocity=0 time=0
EXTRACT: note_on channel=5 note=70 velocity=0 time=0
EXTRACT: note_on channel=5 note=46 velocity=0 time=0
EXTRACT: note_on channel=5 note=53 velocity=0 time=0
EXTRACT: note_on channel=1 note=70 velocity=80 time=0.0013888895833333334
EXTRACT: note_on channel=2 note=70 velocity=90 time=0
EXTRACT: note_on channel=2 note=82 velocity=90 time=0
EXTRACT: note_on channel=5 note=70 velocity=90 time=0
EXTRACT: note_on channel=5 note=77 velocity=90 time=0
EXTRACT: note_on channel=5 note=41 velocity=90 time=0
EXTRACT: note_on channel=5 note=48 velocity=90 time=0
EXTRACT: note_on channel=2 note=70 velocity=0 time=0.16527786041666667
EXTRACT: note_on channel=2 note=82 velocity=0 time=0
EXTRACT: note_on channel=2 note=70 velocity=90 time=0.0013888895833333334
EXTRACT: note_on channel=2 note=77 velocity=90 time=0
EXTRACT: note_on channel=1 note=70 velocity=0 time=0.14861118541666668
EXTRACT: note_on channel=5 note=70 velocity=0 time=0.016666675
EXTRACT: note_on channel=5 note=77 velocity=0 time=0
EXTRACT: note_on channel=5 note=70 velocity=90 time=0.0013888895833333334
EXTRACT: note_on channel=5 note=77 velocity=90 time=0
EXTRACT: note_on channel=2 note=70 velocity=0 time=0.16527786041666667
EXTRACT: note_on channel=2 note=77 velocity=0 time=0
EXTRACT: note_on channel=2 note=70 velocity=90 time=0.0013888895833333334
EXTRACT: note_on channel=2 note=82 velocity=90 time=0
EXTRACT: note_on channel=2 note=70 velocity=0 time=0.16527786041666667
EXTRACT: note_on channel=2 note=82 velocity=0 time=0
EXTRACT: note_on channel=5 note=70 velocity=0 time=0
EXTRACT: note_on channel=5 note=77 velocity=0 time=0
EXTRACT: note_on channel=1 note=70 velocity=80 time=0.0013888895833333334
EXTRACT: note_on channel=2 note=70 velocity=90 time=0
EXTRACT: note_on channel=2 note=82 velocity=90 time=0
EXTRACT: note_on channel=5 note=70 velocity=90 time=0
EXTRACT: note_on channel=5 note=77 velocity=90 time=0
EXTRACT: note_on channel=1 note=70 velocity=0 time=0.15694452291666666
EXTRACT: note_on channel=2 note=70 velocity=0 time=0.0083333375
EXTRACT: note_on channel=2 note=82 velocity=0 time=0
EXTRACT: note_on channel=1 note=69 velocity=80 time=0.0013888895833333334
EXTRACT: note_on channel=2 note=69 velocity=90 time=0
EXTRACT: note_on channel=2 note=81 velocity=90 time=0
EXTRACT: note_on channel=1 note=69 velocity=0 time=0.15694452291666666
EXTRACT: note_on channel=2 note=69 velocity=0 time=0.0083333375
EXTRACT: note_on channel=2 note=81 velocity=0 time=0
EXTRACT: note_on channel=5 note=70 velocity=0 time=0
EXTRACT: note_on channel=5 note=77 velocity=0 time=0
EXTRACT: note_on channel=1 note=77 velocity=80 time=0.0013888895833333334
EXTRACT: note_on channel=2 note=77 velocity=90 time=0
EXTRACT: note_on channel=5 note=70 velocity=90 time=0
EXTRACT: note_on channel=5 note=77 velocity=90 time=0
EXTRACT: note_on channel=2 note=77 velocity=0 time=0.16527786041666667
EXTRACT: note_on channel=5 note=70 velocity=0 time=0
EXTRACT: note_on channel=5 note=77 velocity=0 time=0
EXTRACT: note_on channel=2 note=77 velocity=90 time=0.0013888895833333334
EXTRACT: note_on channel=5 note=70 velocity=90 time=0
EXTRACT: note_on channel=5 note=77 velocity=90 time=0
EXTRACT: note_on channel=1 note=77 velocity=0 time=0.14861118541666668
EXTRACT: note_on channel=2 note=77 velocity=0 time=0.016666675
EXTRACT: note_on channel=5 note=70 velocity=0 time=0
EXTRACT: note_on channel=5 note=77 velocity=0 time=0
EXTRACT: note_on channel=5 note=41 velocity=0 time=0
EXTRACT: note_on channel=5 note=48 velocity=0 time=0
EXTRACT: note_on channel=1 note=70 velocity=80 time=0.0013888895833333334
EXTRACT: note_on channel=2 note=70 velocity=90 time=0
EXTRACT: note_on channel=2 note=82 velocity=90 time=0
EXTRACT: note_on channel=5 note=70 velocity=90 time=0
EXTRACT: note_on channel=5 note=77 velocity=90 time=0
EXTRACT: note_on channel=5 note=41 velocity=90 time=0
EXTRACT: note_on channel=5 note=48 velocity=90 time=0
EXTRACT: note_on channel=5 note=70 velocity=0 time=0.16527786041666667
EXTRACT: note_on channel=5 note=77 velocity=0 time=0
EXTRACT: note_on channel=5 note=70 velocity=90 time=0.0013888895833333334
EXTRACT: note_on channel=5 note=77 velocity=90 time=0
EXTRACT: note_on channel=1 note=70 velocity=0 time=0.14861118541666668
EXTRACT: note_on channel=2 note=70 velocity=0 time=0.016666675
EXTRACT: note_on channel=2 note=82 velocity=0 time=0
EXTRACT: note_on channel=5 note=70 velocity=0 time=0
EXTRACT: note_on channel=5 note=77 velocity=0 time=0
EXTRACT: note_on channel=2 note=70 velocity=90 time=0.0013888895833333334
EXTRACT: note_on channel=5 note=77 velocity=90 time=0
EXTRACT: note_on channel=2 note=70 velocity=0 time=0.16527786041666667
EXTRACT: note_on channel=2 note=77 velocity=90 time=0.0013888895833333334
EXTRACT: note_on channel=0 note=77 velocity=0 time=0.16527786041666667
EXTRACT: note_on channel=2 note=77 velocity=0 time=0
EXTRACT: note_on channel=5 note=77 velocity=0 time=0
EXTRACT: note_on channel=1 note=70 velocity=80 time=0.0013888895833333334
EXTRACT: note_on channel=2 note=70 velocity=90 time=0
EXTRACT: note_on channel=5 note=70 velocity=90 time=0
EXTRACT: note_on channel=5 note=82 velocity=90 time=0
EXTRACT: note_on channel=1 note=70 velocity=0 time=0.15694452291666666
EXTRACT: note_on channel=1 note=70 velocity=80 time=0.009722227083333333
EXTRACT: note_on channel=1 note=70 velocity=0 time=0.15694452291666666
EXTRACT: note_on channel=0 note=77 velocity=126 time=0.009722227083333333
EXTRACT: note_on channel=1 note=77 velocity=80 time=0
EXTRACT: note_on channel=1 note=77 velocity=0 time=0.31527793541666665
EXTRACT: note_on channel=0 note=77 velocity=0 time=0.016666675
EXTRACT: note_on channel=2 note=70 velocity=0 time=0
EXTRACT: note_on channel=5 note=70 velocity=0 time=0
EXTRACT: note_on channel=5 note=82 velocity=0 time=0
EXTRACT: note_on channel=5 note=41 velocity=0 time=0
EXTRACT: note_on channel=5 note=48 velocity=0 time=0
EXTRACT: note_on channel=0 note=81 velocity=126 time=0.0013888895833333334
EXTRACT: note_on channel=1 note=77 velocity=80 time=0
EXTRACT: note_on channel=2 note=69 velocity=60 time=0
EXTRACT: note_on channel=2 note=81 velocity=60 time=0
EXTRACT: note_on channel=5 note=69 velocity=90 time=0
EXTRACT: note_on channel=5 note=81 velocity=90 time=0
EXTRACT: note_on channel=5 note=46 velocity=90 time=0
EXTRACT: note_on channel=5 note=53 velocity=90 time=0
EXTRACT: note_on channel=2 note=69 velocity=0 time=0.16527786041666667
EXTRACT: note_on channel=2 note=81 velocity=0 time=0
EXTRACT: note_on channel=2 note=70 velocity=60 time=0.0013888895833333334
EXTRACT: note_on channel=2 note=77 velocity=60 time=0
EXTRACT: note_on channel=1 note=77 velocity=0 time=0.14861118541666668
EXTRACT: note_on channel=5 note=69 velocity=0 time=0.016666675
EXTRACT: note_on channel=5 note=81 velocity=0 time=0
EXTRACT: note_on channel=5 note=70 velocity=90 time=0.0013888895833333334
EXTRACT: note_on channel=5 note=82 velocity=90 time=0
EXTRACT: note_on channel=0 note=81 velocity=0 time=0.16527786041666667
EXTRACT: note_on channel=2 note=70 velocity=0 time=0
EXTRACT: note_on channel=2 note=77 velocity=0 time=0
EXTRACT: note_on channel=0 note=82 velocity=126 time=0.0013888895833333334
EXTRACT: note_on channel=2 note=65 velocity=60 time=0
EXTRACT: note_on channel=2 note=77 velocity=60 time=0
EXTRACT: note_on channel=2 note=65 velocity=0 time=0.16527786041666667
EXTRACT: note_on channel=2 note=77 velocity=0 time=0
EXTRACT: note_on channel=5 note=70 velocity=0 time=0
EXTRACT: note_on channel=5 note=82 velocity=0 time=0
EXTRACT: note_on channel=1 note=77 velocity=80 time=0.0013888895833333334
EXTRACT: note_on channel=2 note=70 velocity=60 time=0
EXTRACT: note_on channel=5 note=70 velocity=90 time=0
EXTRACT: note_on channel=5 note=82 velocity=90 time=0
EXTRACT: note_on channel=1 note=77 velocity=0 time=0.15694452291666666
EXTRACT: note_on channel=2 note=70 velocity=0 time=0.0083333375
EXTRACT: note_on channel=1 note=75 velocity=80 time=0.0013888895833333334
EXTRACT: note_on channel=2 note=70 velocity=60 time=0
EXTRACT: note_on channel=1 note=75 velocity=0 time=0.15694452291666666
EXTRACT: note_on channel=0 note=82 velocity=0 time=0.0083333375
EXTRACT: note_on channel=2 note=70 velocity=0 time=0
EXTRACT: note_on channel=5 note=70 velocity=0 time=0
EXTRACT: note_on channel=5 note=82 velocity=0 time=0
EXTRACT: note_on channel=0 note=77 velocity=126 time=0.0013888895833333334
EXTRACT: note_on channel=1 note=77 velocity=80 time=0
EXTRACT: note_on channel=2 note=77 velocity=60 time=0
EXTRACT: note_on channel=5 note=65 velocity=90 time=0
EXTRACT: note_on channel=5 note=77 velocity=90 time=0
EXTRACT: note_on channel=2 note=77 velocity=0 time=0.16527786041666667
EXTRACT: note_on channel=2 note=74 velocity=60 time=0.0013888895833333334
EXTRACT: note_on channel=2 note=77 velocity=60 time=0
EXTRACT: note_on channel=1 note=77 velocity=0 time=0.14861118541666668
EXTRACT: note_on channel=2 note=74 velocity=0 time=0.016666675
EXTRACT: note_on channel=2 note=77 velocity=0 time=0
EXTRACT: note_on channel=5 note=65 velocity=0 time=0
EXTRACT: note_on channel=5 note=77 velocity=0 time=0
EXTRACT: note_on channel=5 note=46 velocity=0 time=0
EXTRACT: note_on channel=5 note=53 velocity=0 time=0
EXTRACT: note_on channel=1 note=74 velocity=80 time=0.0013888895833333334
EXTRACT: note_on channel=2 note=74 velocity=60 time=0
EXTRACT: note_on channel=2 note=77 velocity=60 time=0
EXTRACT: note_on channel=5 note=65 velocity=90 time=0
EXTRACT: note_on channel=5 note=74 velocity=90 time=0
EXTRACT: note_on channel=5 note=46 velocity=90 time=0
EXTRACT: note_on channel=5 note=53 velocity=90 time=0
EXTRACT: note_on channel=0 note=77 velocity=0 time=0.16527786041666667
EXTRACT: note_on channel=5 note=65 velocity=0 time=0
EXTRACT: note_on channel=5 note=74 velocity=0 time=0
EXTRACT: note_on channel=0 note=74 velocity=126 time=0.0013888895833333334
EXTRACT: note_on channel=5 note=65 velocity=90 time=0
EXTRACT: note_on channel=5 note=74 velocity=90 time=0
EXTRACT: note_on channel=1 note=74 velocity=0 time=0.14861118541666668
EXTRACT: note_on channel=2 note=74 velocity=0 time=0.016666675
EXTRACT: note_on channel=2 note=77 velocity=0 time=0
EXTRACT: note_on channel=5 note=65 velocity=0 time=0
EXTRACT: note_on channel=5 note=74 velocity=0 time=0
EXTRACT: note_on channel=2 note=77 velocity=60 time=0.0013888895833333334
EXTRACT: note_on channel=5 note=74 velocity=90 time=0
EXTRACT: note_on channel=2 note=77 velocity=0 time=0.16527786041666667
EXTRACT: note_on channel=5 note=74 velocity=0 time=0
EXTRACT: note_on channel=2 note=77 velocity=60 time=0.0013888895833333334
EXTRACT: note_on channel=5 note=74 velocity=90 time=0
EXTRACT: note_on channel=0 note=74 velocity=0 time=0.16527786041666667
EXTRACT: note_on channel=2 note=77 velocity=0 time=0
EXTRACT: note_on channel=5 note=74 velocity=0 time=0
EXTRACT: note_on channel=0 note=77 velocity=126 time=0.0013888895833333334
EXTRACT: note_on channel=1 note=72 velocity=80 time=0
EXTRACT: note_on channel=2 note=70 velocity=60 time=0
EXTRACT: note_on channel=2 note=77 velocity=60 time=0
EXTRACT: note_on channel=5 note=65 velocity=90 time=0
EXTRACT: note_on channel=5 note=70 velocity=90 time=0
EXTRACT: note_on channel=1 note=72 velocity=0 time=0.15694452291666666
EXTRACT: note_on channel=1 note=70 velocity=80 time=0.009722227083333333
EXTRACT: note_on channel=1 note=70 velocity=0 time=0.15694452291666666
EXTRACT: note_on channel=1 note=70 velocity=80 time=0.009722227083333333
EXTRACT: note_on channel=1 note=70 velocity=0 time=0.31527793541666665
EXTRACT: note_on channel=2 note=70 velocity=0 time=0.016666675
EXTRACT: note_on channel=2 note=77 velocity=0 time=0
EXTRACT: note_on channel=5 note=65 velocity=0 time=0
EXTRACT: note_on channel=5 note=70 velocity=0 time=0
EXTRACT: note_on channel=5 note=46 velocity=0 time=0
EXTRACT: note_on channel=5 note=53 velocity=0 time=0
EXTRACT: note_on channel=1 note=77 velocity=90 time=0.0013888895833333334
EXTRACT: note_on channel=2 note=70 velocity=60 time=0
EXTRACT: note_on channel=2 note=77 velocity=60 time=0
EXTRACT: note_on channel=5 note=65 velocity=90 time=0
EXTRACT: note_on channel=5 note=77 velocity=90 time=0
EXTRACT: note_on channel=5 note=39 velocity=90 time=0
EXTRACT: note_on channel=5 note=46 velocity=90 time=0
EXTRACT: note_on channel=1 note=77 velocity=0 time=0.15694452291666666
EXTRACT: note_on channel=1 note=70 velocity=90 time=0.009722227083333333
EXTRACT: note_on channel=1 note=70 velocity=0 time=0.15694452291666666
EXTRACT: note_on channel=0 note=77 velocity=0 time=0.0083333375
EXTRACT: note_on channel=2 note=70 velocity=0 time=0
EXTRACT: note_on channel=2 note=77 velocity=0 time=0
EXTRACT: note_on channel=0 note=75 velocity=126 time=0.0013888895833333334
EXTRACT: note_on channel=1 note=75 velocity=90 time=0
EXTRACT: note_on channel=2 note=75 velocity=60 time=0
EXTRACT: note_on channel=1 note=75 velocity=0 time=0.15694452291666666
EXTRACT: note_on channel=0 note=75 velocity=0 time=0.0083333375
EXTRACT: note_on channel=0 note=74 velocity=126 time=0.0013888895833333334
EXTRACT: note_on channel=1 note=70 velocity=90 time=0
EXTRACT: note_on channel=1 note=70 velocity=0 time=0.15694452291666666
EXTRACT: note_on channel=0 note=74 velocity=0 time=0.0083333375
EXTRACT: note_on channel=2 note=75 velocity=0 time=0
EXTRACT: note_on channel=5 note=65 velocity=0 time=0
EXTRACT: note_on channel=5 note=77 velocity=0 time=0
EXTRACT: note_on channel=0 note=72 velocity=126 time=0.0013888895833333334
EXTRACT: note_on channel=1 note=74 velocity=90 time=0
EXTRACT: note_on channel=2 note=74 velocity=60 time=0
EXTRACT: note_on channel=5 note=67 velocity=90 time=0
EXTRACT: note_on channel=5 note=72 velocity=90 time=0
EXTRACT: note_on channel=1 note=74 velocity=0 time=0.15694452291666666
EXTRACT: note_on channel=2 note=74 velocity=0 time=0.0083333375
EXTRACT: note_on channel=1 note=72 velocity=90 time=0.0013888895833333334
EXTRACT: note_on channel=2 note=72 velocity=60 time=0
EXTRACT: note_on channel=1 note=72 velocity=0 time=0.15694452291666666
EXTRACT: note_on channel=2 note=72 velocity=0 time=0.0083333375
EXTRACT: note_on channel=1 note=72 velocity=90 time=0.0013888895833333334
EXTRACT: note_on channel=2 note=72 velocity=60 time=0
EXTRACT: note_on channel=1 note=72 velocity=0 time=0.15694452291666666
EXTRACT: note_on channel=1 note=72 velocity=90 time=0.009722227083333333
EXTRACT: note_on channel=1 note=72 velocity=0 time=0.15694452291666666
EXTRACT: note_on channel=2 note=72 velocity=0 time=0.0083333375
EXTRACT: note_on channel=5 note=39 velocity=0 time=0
EXTRACT: note_on channel=5 note=46 velocity=0 time=0
EXTRACT: note_on channel=1 note=72 velocity=90 time=0.0013888895833333334
EXTRACT: note_on channel=2 note=60 velocity=60 time=0
EXTRACT: note_on channel=2 note=67 velocity=60 time=0
EXTRACT: note_on channel=2 note=72 velocity=60 time=0
EXTRACT: note_on channel=5 note=39 velocity=90 time=0
EXTRACT: note_on channel=5 note=46 velocity=90 time=0
EXTRACT: note_on channel=1 note=72 velocity=0 time=0.31527793541666665
EXTRACT: note_on channel=1 note=72 velocity=90 time=0.018055564583333333
EXTRACT: note_on channel=1 note=72 velocity=0 time=0.31527793541666665
EXTRACT: note_on channel=5 note=67 velocity=0 time=0.016666675
EXTRACT: note_on channel=5 note=72 velocity=0 time=0
EXTRACT: note_on channel=1 note=79 velocity=90 time=0.0013888895833333334
EXTRACT: note_on channel=1 note=79 velocity=0 time=0.31527793541666665
EXTRACT: note_on channel=1 note=79 velocity=90 time=0.018055564583333333
EXTRACT: note_on channel=1 note=79 velocity=0 time=0.31527793541666665
EXTRACT: note_on channel=0 note=72 velocity=0 time=0.016666675
EXTRACT: note_on channel=2 note=60 velocity=0 time=0
EXTRACT: note_on channel=2 note=67 velocity=0 time=0
EXTRACT: note_on channel=2 note=72 velocity=0 time=0
EXTRACT: note_on channel=5 note=39 velocity=0 time=0
EXTRACT: note_on channel=5 note=46 velocity=0 time=0
EXTRACT: note_on channel=1 note=70 velocity=60 time=0.0013888895833333334
EXTRACT: note_on channel=5 note=65 velocity=90 time=0
EXTRACT: note_on channel=5 note=46 velocity=90 time=0
EXTRACT: note_on channel=5 note=53 velocity=90 time=0
EXTRACT: note_on channel=1 note=70 velocity=0 time=0.31527793541666665
EXTRACT: note_on channel=5 note=65 velocity=0 time=0.016666675
EXTRACT: note_on channel=0 note=65 velocity=96 time=0.0013888895833333334
EXTRACT: note_on channel=1 note=77 velocity=60 time=0
EXTRACT: note_on channel=5 note=65 velocity=90 time=0
EXTRACT: note_on channel=1 note=77 velocity=0 time=0.31527793541666665
EXTRACT: note_on channel=0 note=65 velocity=0 time=0.016666675
EXTRACT: note_on channel=5 note=65 velocity=0 time=0
EXTRACT: note_on channel=0 note=65 velocity=96 time=0.0013888895833333334
EXTRACT: note_on channel=1 note=77 velocity=60 time=0
EXTRACT: note_on channel=5 note=65 velocity=90 time=0
EXTRACT: note_on channel=1 note=77 velocity=0 time=0.31527793541666665
EXTRACT: note_on channel=5 note=65 velocity=0 time=0.016666675
EXTRACT: note_on channel=1 note=81 velocity=60 time=0.0013888895833333334
EXTRACT: note_on channel=5 note=62 velocity=90 time=0
EXTRACT: note_on channel=0 note=65 velocity=0 time=0.16527786041666667
EXTRACT: note_on channel=0 note=62 velocity=96 time=0.0013888895833333334
EXTRACT: note_on channel=1 note=81 velocity=0 time=0.14861118541666668
EXTRACT: note_on channel=0 note=62 velocity=0 time=0.016666675
EXTRACT: note_on channel=5 note=62 velocity=0 time=0
EXTRACT: note_on channel=0 note=62 velocity=96 time=0.0013888895833333334
EXTRACT: note_on channel=1 note=74 velocity=60 time=0
EXTRACT: note_on channel=5 note=62 velocity=90 time=0
EXTRACT: note_on channel=1 note=74 velocity=0 time=0.31527793541666665
EXTRACT: note_on channel=5 note=62 velocity=0 time=0.016666675
EXTRACT: note_on channel=1 note=79 velocity=60 time=0.0013888895833333334
EXTRACT: note_on channel=5 note=60 velocity=90 time=0
EXTRACT: note_on channel=0 note=62 velocity=0 time=0.16527786041666667
EXTRACT: note_on channel=0 note=60 velocity=96 time=0.0013888895833333334
EXTRACT: note_on channel=1 note=79 velocity=0 time=0.14861118541666668
EXTRACT: note_on channel=0 note=60 velocity=0 time=0.016666675
EXTRACT: note_on channel=5 note=60 velocity=0 time=0
EXTRACT: note_on channel=5 note=46 velocity=0 time=0
EXTRACT: note_on channel=5 note=53 velocity=0 time=0
EXTRACT: note_on channel=0 note=58 velocity=96 time=0.0013888895833333334
EXTRACT: note_on channel=1 note=70 velocity=60 time=0
EXTRACT: note_on channel=5 note=58 velocity=90 time=0
EXTRACT: note_on channel=5 note=53 velocity=90 time=0.3333335
EXTRACT: note_on channel=1 note=70 velocity=0 time=0.2986112604166667
EXTRACT: note_on channel=0 note=58 velocity=0 time=0.03333335
EXTRACT: note_on channel=5 note=58 velocity=0 time=0
EXTRACT: note_on channel=5 note=53 velocity=0 time=0
EXTRACT: note_on channel=1 note=70 velocity=60 time=0.0013888895833333334
EXTRACT: note_on channel=5 note=65 velocity=90 time=0
EXTRACT: note_on channel=5 note=45 velocity=90 time=0
EXTRACT: note_on channel=5 note=53 velocity=90 time=0
EXTRACT: note_on channel=1 note=70 velocity=0 time=0.31527793541666665
EXTRACT: note_on channel=5 note=65 velocity=0 time=0.016666675
EXTRACT: note_on channel=1 note=75 velocity=60 time=0.0013888895833333334
EXTRACT: note_on channel=5 note=65 velocity=90 time=0
EXTRACT: note_on channel=0 note=65 velocity=96 time=0.16666675
EXTRACT: note_on channel=1 note=75 velocity=0 time=0.14861118541666668
EXTRACT: note_on channel=0 note=65 velocity=0 time=0.016666675
EXTRACT: note_on channel=5 note=65 velocity=0 time=0
EXTRACT: note_on channel=0 note=65 velocity=96 time=0.0013888895833333334
EXTRACT: note_on channel=1 note=75 velocity=60 time=0
EXTRACT: note_on channel=5 note=65 velocity=90 time=0
EXTRACT: note_on channel=1 note=75 velocity=0 time=0.31527793541666665
EXTRACT: note_on channel=5 note=65 velocity=0 time=0.016666675
EXTRACT: note_on channel=1 note=74 velocity=60 time=0.0013888895833333334
EXTRACT: note_on channel=5 note=62 velocity=90 time=0
EXTRACT: note_on channel=0 note=65 velocity=0 time=0.16527786041666667
EXTRACT: note_on channel=0 note=62 velocity=96 time=0.0013888895833333334
EXTRACT: note_on channel=1 note=74 velocity=0 time=0.14861118541666668
EXTRACT: note_on channel=0 note=62 velocity=0 time=0.016666675
EXTRACT: note_on channel=5 note=62 velocity=0 time=0
EXTRACT: note_on channel=0 note=62 velocity=96 time=0.0013888895833333334
EXTRACT: note_on channel=1 note=77 velocity=60 time=0
EXTRACT: note_on channel=5 note=62 velocity=90 time=0
EXTRACT: note_on channel=5 note=62 velocity=0 time=0.16527786041666667
EXTRACT: note_on channel=5 note=62 velocity=90 time=0.0013888895833333334
EXTRACT: note_on channel=1 note=77 velocity=0 time=0.14861118541666668
EXTRACT: note_on channel=5 note=62 velocity=0 time=0.016666675
EXTRACT: note_on channel=1 note=74 velocity=60 time=0.0013888895833333334
EXTRACT: note_on channel=5 note=62 velocity=90 time=0
EXTRACT: note_on channel=5 note=62 velocity=0 time=0.16527786041666667
EXTRACT: note_on channel=5 note=62 velocity=90 time=0.0013888895833333334
EXTRACT: note_on channel=1 note=74 velocity=0 time=0.14861118541666668
EXTRACT: note_on channel=5 note=62 velocity=0 time=0.016666675
EXTRACT: note_on channel=5 note=45 velocity=0 time=0
EXTRACT: note_on channel=5 note=53 velocity=0 time=0
EXTRACT: note_on channel=1 note=74 velocity=60 time=0.0013888895833333334
EXTRACT: note_on channel=5 note=62 velocity=90 time=0
EXTRACT: note_on channel=5 note=65 velocity=90 time=0
EXTRACT: note_on channel=5 note=74 velocity=90 time=0
EXTRACT: note_on channel=5 note=53 velocity=90 time=0.3333335
EXTRACT: note_on channel=1 note=74 velocity=0 time=0.2986112604166667
EXTRACT: note_on channel=0 note=62 velocity=0 time=0.03333335
EXTRACT: note_on channel=5 note=62 velocity=0 time=0
EXTRACT: note_on channel=5 note=65 velocity=0 time=0
EXTRACT: note_on channel=5 note=74 velocity=0 time=0
EXTRACT: note_on channel=5 note=53 velocity=0 time=0
EXTRACT: note_on channel=1 note=70 velocity=60 time=0.0013888895833333334
EXTRACT: note_on channel=5 note=65 velocity=90 time=0
EXTRACT: note_on channel=5 note=43 velocity=90 time=0
EXTRACT: note_on channel=5 note=50 velocity=90 time=0
EXTRACT: note_on channel=5 note=65 velocity=0 time=0.16527786041666667
EXTRACT: note_on channel=5 note=65 velocity=90 time=0.0013888895833333334
EXTRACT: note_on channel=5 note=65 velocity=0 time=0.16527786041666667
EXTRACT: note_on channel=0 note=65 velocity=96 time=0.0013888895833333334
EXTRACT: note_on channel=5 note=65 velocity=90 time=0
EXTRACT: note_on channel=5 note=65 velocity=0 time=0.16527786041666667
EXTRACT: note_on channel=5 note=62 velocity=90 time=0.0013888895833333334
EXTRACT: note_on channel=0 note=65 velocity=0 time=0.16527786041666667
EXTRACT: note_on channel=5 note=62 velocity=0 time=0
EXTRACT: note_on channel=0 note=65 velocity=96 time=0.0013888895833333334
EXTRACT: note_on channel=5 note=62 velocity=90 time=0
EXTRACT: note_on channel=5 note=62 velocity=0 time=0.16527786041666667
EXTRACT: note_on channel=5 note=62 velocity=90 time=0.0013888895833333334
EXTRACT: note_on channel=1 note=70 velocity=0 time=0.11527783541666667
EXTRACT: note_on channel=5 note=62 velocity=0 time=0.050000025000000003
EXTRACT: note_on channel=1 note=74 velocity=60 time=0.0013888895833333334
EXTRACT: note_on channel=5 note=62 velocity=90 time=0
EXTRACT: note_on channel=0 note=65 velocity=0 time=0.16527786041666667
EXTRACT: note_on channel=5 note=62 velocity=0 time=0
EXTRACT: note_on channel=0 note=62 velocity=96 time=0.0013888895833333334
EXTRACT: note_on channel=5 note=60 velocity=90 time=0
EXTRACT: note_on channel=1 note=74 velocity=0 time=0.14861118541666668
EXTRACT: note_on channel=0 note=62 velocity=0 time=0.016666675
EXTRACT: note_on channel=5 note=60 velocity=0 time=0
EXTRACT: note_on channel=0 note=62 velocity=96 time=0.0013888895833333334
EXTRACT: note_on channel=1 note=72 velocity=60 time=0
EXTRACT: note_on channel=5 note=60 velocity=90 time=0
EXTRACT: note_on channel=5 note=60 velocity=0 time=0.16527786041666667
EXTRACT: note_on channel=5 note=60 velocity=90 time=0.0013888895833333334
EXTRACT: note_on channel=5 note=60 velocity=0 time=0.16527786041666667
EXTRACT: note_on channel=5 note=60 velocity=90 time=0.0013888895833333334
EXTRACT: note_on channel=0 note=62 velocity=0 time=0.16527786041666667
EXTRACT: note_on channel=5 note=60 velocity=0 time=0
EXTRACT: note_on channel=0 note=60 velocity=96 time=0.0013888895833333334
EXTRACT: note_on channel=5 note=58 velocity=90 time=0
EXTRACT: note_on channel=0 note=60 velocity=0 time=0.16527786041666667
EXTRACT: note_on channel=5 note=58 velocity=0 time=0
EXTRACT: note_on channel=5 note=43 velocity=0 time=0
EXTRACT: note_on channel=5 note=50 velocity=0 time=0
EXTRACT: note_on channel=0 note=58 velocity=96 time=0.0013888895833333334
EXTRACT: note_on channel=5 note=58 velocity=90 time=0
EXTRACT: note_on channel=5 note=65 velocity=90 time=0
EXTRACT: note_on channel=1 note=72 velocity=0 time=0.28194458541666667
EXTRACT: note_on channel=1 note=70 velocity=60 time=0.051388914583333334
EXTRACT: note_on channel=5 note=50 velocity=90 time=0
EXTRACT: note_on channel=1 note=70 velocity=0 time=0.31527793541666665
EXTRACT: note_on channel=0 note=58 velocity=0 time=0.016666675
EXTRACT: note_on channel=5 note=58 velocity=0 time=0
EXTRACT: note_on channel=5 note=65 velocity=0 time=0
EXTRACT: note_on channel=5 note=50 velocity=0 time=0
EXTRACT: note_on channel=1 note=70 velocity=60 time=0.0013888895833333334
EXTRACT: note_on channel=5 note=58 velocity=90 time=0
EXTRACT: note_on channel=5 note=39 velocity=90 time=0
EXTRACT: note_on channel=5 note=46 velocity=90 time=0
EXTRACT: note_on channel=5 note=51 velocity=90 time=0
EXTRACT: note_on channel=5 note=58 velocity=0 time=0.16527786041666667
EXTRACT: note_on channel=5 note=58 velocity=90 time=0.0013888895833333334
EXTRACT: note_on channel=5 note=58 velocity=0 time=0.16527786041666667
EXTRACT: note_on channel=0 note=58 velocity=96 time=0.0013888895833333334
EXTRACT: note_on channel=5 note=58 velocity=90 time=0
EXTRACT: note_on channel=0 note=58 velocity=0 time=0.16527786041666667
EXTRACT: note_on channel=5 note=58 velocity=0 time=0
EXTRACT: note_on channel=0 note=63 velocity=96 time=0.0013888895833333334
EXTRACT: note_on channel=5 note=63 velocity=90 time=0
EXTRACT: note_on channel=0 note=63 velocity=0 time=0.16527786041666667
EXTRACT: note_on channel=5 note=63 velocity=0 time=0
EXTRACT: note_on channel=0 note=63 velocity=96 time=0.0013888895833333334
EXTRACT: note_on channel=5 note=63 velocity=90 time=0
EXTRACT: note_on channel=5 note=63 velocity=0 time=0.16527786041666667
EXTRACT: note_on channel=5 note=63 velocity=90 time=0.0013888895833333334
EXTRACT: note_on channel=1 note=70 velocity=0 time=0.11527783541666667
EXTRACT: note_on channel=5 note=63 velocity=0 time=0.050000025000000003
EXTRACT: note_on channel=1 note=75 velocity=60 time=0.0013888895833333334
EXTRACT: note_on channel=5 note=63 velocity=90 time=0
EXTRACT: note_on channel=0 note=63 velocity=0 time=0.16527786041666667
EXTRACT: note_on channel=5 note=63 velocity=0 time=0
EXTRACT: note_on channel=0 note=63 velocity=96 time=0.0013888895833333334
EXTRACT: note_on channel=5 note=62 velocity=90 time=0
EXTRACT: note_on channel=1 note=75 velocity=0 time=0.14861118541666668
EXTRACT: note_on channel=0 note=63 velocity=0 time=0.016666675
EXTRACT: note_on channel=5 note=62 velocity=0 time=0
EXTRACT: note_on channel=0 note=63 velocity=96 time=0.0013888895833333334
EXTRACT: note_on channel=1 note=75 velocity=60 time=0
EXTRACT: note_on channel=5 note=62 velocity=90 time=0
EXTRACT: note_on channel=5 note=62 velocity=0 time=0.16527786041666667
EXTRACT: note_on channel=5 note=62 velocity=90 time=0.0013888895833333334
EXTRACT: note_on channel=0 note=63 velocity=0 time=0.16527786041666667
EXTRACT: note_on channel=5 note=62 velocity=0 time=0
EXTRACT: note_on channel=0 note=62 velocity=96 time=0.0013888895833333334
EXTRACT: note_on channel=5 note=62 velocity=90 time=0
EXTRACT: note_on channel=5 note=62 velocity=0 time=0.16527786041666667
EXTRACT: note_on channel=5 note=70 velocity=90 time=0.0013888895833333334
EXTRACT: note_on channel=5 note=70 velocity=0 time=0.16527786041666667
EXTRACT: note_on channel=5 note=39 velocity=0 time=0
EXTRACT: note_on channel=5 note=46 velocity=0 time=0
EXTRACT: note_on channel=5 note=51 velocity=0 time=0
EXTRACT: note_on channel=5 note=65 velocity=90 time=0.0013888895833333334
EXTRACT: note_on channel=5 note=70 velocity=90 time=0
EXTRACT: note_on channel=1 note=75 velocity=0 time=0.28194458541666667
EXTRACT: note_on channel=1 note=77 velocity=60 time=0.051388914583333334
EXTRACT: note_on channel=5 note=46 velocity=90 time=0
EXTRACT: note_on channel=1 note=77 velocity=0 time=0.31527793541666665
EXTRACT: note_on channel=0 note=62 velocity=0 time=0.016666675
EXTRACT: note_on channel=5 note=65 velocity=0 time=0
EXTRACT: note_on channel=5 note=70 velocity=0 time=0
EXTRACT: note_on channel=5 note=46 velocity=0 time=0
EXTRACT: note_on channel=0 note=62 velocity=96 time=0.0013888895833333334
EXTRACT: note_on channel=1 note=70 velocity=60 time=0
EXTRACT: note_on channel=2 note=63 velocity=60 time=0
EXTRACT: note_on channel=2 note=70 velocity=60 time=0
EXTRACT: note_on channel=5 note=70 velocity=80 time=0
EXTRACT: note_on channel=5 note=46 velocity=80 time=0
EXTRACT: note_on channel=1 note=70 velocity=0 time=0.15694452291666666
EXTRACT: note_on channel=1 note=70 velocity=60 time=0.009722227083333333
EXTRACT: note_on channel=1 note=70 velocity=0 time=0.15694452291666666
EXTRACT: note_on channel=0 note=62 velocity=0 time=0.0083333375
EXTRACT: note_on channel=5 note=70 velocity=0 time=0
EXTRACT: note_on channel=0 note=65 velocity=96 time=0.0013888895833333334
EXTRACT: note_on channel=1 note=69 velocity=60 time=0
EXTRACT: note_on channel=5 note=65 velocity=80 time=0
EXTRACT: note_on channel=1 note=69 velocity=0 time=0.15694452291666666
EXTRACT: note_on channel=2 note=63 velocity=0 time=0.0083333375
EXTRACT: note_on channel=2 note=70 velocity=0 time=0
EXTRACT: note_on channel=5 note=46 velocity=0 time=0
EXTRACT: note_on channel=1 note=69 velocity=60 time=0.0013888895833333334
EXTRACT: note_on channel=2 note=62 velocity=60 time=0
EXTRACT: note_on channel=2 note=69 velocity=60 time=0
EXTRACT: note_on channel=5 note=53 velocity=80 time=0
EXTRACT: note_on channel=1 note=69 velocity=0 time=0.15694452291666666
EXTRACT: note_on channel=0 note=65 velocity=0 time=0.0083333375
EXTRACT: note_on channel=2 note=62 velocity=0 time=0
EXTRACT: note_on channel=2 note=69 velocity=0 time=0
EXTRACT: note_on channel=5 note=65 velocity=0 time=0
EXTRACT: note_on channel=5 note=53 velocity=0 time=0
EXTRACT: note_on channel=0 note=65 velocity=96 time=0.0013888895833333334
EXTRACT: note_on channel=1 note=70 velocity=60 time=0
EXTRACT: note_on channel=2 note=63 velocity=60 time=0
EXTRACT: note_on channel=2 note=70 velocity=60 time=0
EXTRACT: note_on channel=5 note=70 velocity=80 time=0
EXTRACT: note_on channel=5 note=58 velocity=80 time=0
EXTRACT: note_on channel=1 note=70 velocity=0 time=0.31527793541666665
EXTRACT: note_on channel=5 note=58 velocity=0 time=0.016666675
EXTRACT: note_on channel=1 note=69 velocity=60 time=0.0013888895833333334
EXTRACT: note_on channel=5 note=46 velocity=80 time=0
EXTRACT: note_on channel=5 note=53 velocity=80 time=0
EXTRACT: note_on channel=0 note=65 velocity=0 time=0.16527786041666667
EXTRACT: note_on channel=2 note=63 velocity=0 time=0
EXTRACT: note_on channel=2 note=70 velocity=0 time=0
EXTRACT: note_on channel=0 note=62 velocity=96 time=0.0013888895833333334
EXTRACT: note_on channel=2 note=62 velocity=60 time=0
EXTRACT: note_on channel=2 note=69 velocity=60 time=0
EXTRACT: note_on channel=1 note=69 velocity=0 time=0.14861118541666668
EXTRACT: note_on channel=0 note=62 velocity=0 time=0.016666675
EXTRACT: note_on channel=2 note=62 velocity=0 time=0
EXTRACT: note_on channel=2 note=69 velocity=0 time=0
EXTRACT: note_on channel=5 note=70 velocity=0 time=0
EXTRACT: note_on channel=0 note=62 velocity=96 time=0.0013888895833333334
EXTRACT: note_on channel=1 note=77 velocity=60 time=0
EXTRACT: note_on channel=2 note=62 velocity=60 time=0
EXTRACT: note_on channel=2 note=65 velocity=60 time=0
EXTRACT: note_on channel=5 note=65 velocity=80 time=0
EXTRACT: note_on channel=1 note=77 velocity=0 time=0.31527793541666665
EXTRACT: note_on channel=5 note=46 velocity=0 time=0.016666675
EXTRACT: note_on channel=5 note=53 velocity=0 time=0
EXTRACT: note_on channel=1 note=75 velocity=60 time=0.0013888895833333334
EXTRACT: note_on channel=5 note=53 velocity=80 time=0
EXTRACT: note_on channel=5 note=60 velocity=80 time=0
EXTRACT: note_on channel=0 note=62 velocity=0 time=0.16527786041666667
EXTRACT: note_on channel=2 note=62 velocity=0 time=0
EXTRACT: note_on channel=2 note=65 velocity=0 time=0
EXTRACT: note_on channel=0 note=60 velocity=96 time=0.0013888895833333334
EXTRACT: note_on channel=2 note=60 velocity=60 time=0
EXTRACT: note_on channel=2 note=63 velocity=60 time=0
EXTRACT: note_on channel=1 note=75 velocity=0 time=0.14861118541666668
EXTRACT: note_on channel=0 note=60 velocity=0 time=0.016666675
EXTRACT: note_on channel=2 note=60 velocity=0 time=0
EXTRACT: note_on channel=2 note=63 velocity=0 time=0
EXTRACT: note_on channel=5 note=65 velocity=0 time=0
EXTRACT: note_on channel=0 note=58 velocity=96 time=0.0013888895833333334
EXTRACT: note_on channel=1 note=70 velocity=60 time=0
EXTRACT: note_on channel=2 note=58 velocity=60 time=0
EXTRACT: note_on channel=5 note=70 velocity=80 time=0
EXTRACT: note_on channel=1 note=70 velocity=0 time=0.6319447604166667
EXTRACT: note_on channel=0 note=58 velocity=0 time=0.03333335
EXTRACT: note_on channel=2 note=58 velocity=0 time=0
EXTRACT: note_on channel=5 note=70 velocity=0 time=0
EXTRACT: note_on channel=5 note=53 velocity=0 time=0
EXTRACT: note_on channel=5 note=60 velocity=0 time=0
EXTRACT: note_on channel=1 note=77 velocity=60 time=0.0013888895833333334
EXTRACT: note_on channel=2 note=65 velocity=60 time=0
EXTRACT: note_on channel=5 note=65 velocity=80 time=0
EXTRACT: note_on channel=5 note=41 velocity=80 time=0
EXTRACT: note_on channel=2 note=65 velocity=0 time=0.16527786041666667
EXTRACT: note_on channel=2 note=65 velocity=60 time=0.0013888895833333334
EXTRACT: note_on channel=1 note=77 velocity=0 time=0.14861118541666668
EXTRACT: note_on channel=2 note=65 velocity=0 time=0.016666675
EXTRACT: note_on channel=5 note=65 velocity=0 time=0
EXTRACT: note_on channel=0 note=65 velocity=96 time=0.0013888895833333334
EXTRACT: note_on channel=1 note=77 velocity=60 time=0
EXTRACT: note_on channel=2 note=62 velocity=60 time=0
EXTRACT: note_on channel=2 note=65 velocity=60 time=0
EXTRACT: note_on channel=5 note=63 velocity=80 time=0
EXTRACT: note_on channel=5 note=41 velocity=0 time=0.16527786041666667
EXTRACT: note_on channel=5 note=48 velocity=80 time=0.0013888895833333334
EXTRACT: note_on channel=1 note=77 velocity=0 time=0.14861118541666668
EXTRACT: note_on channel=0 note=65 velocity=0 time=0.016666675
EXTRACT: note_on channel=2 note=62 velocity=0 time=0
EXTRACT: note_on channel=2 note=65 velocity=0 time=0
EXTRACT: note_on channel=5 note=63 velocity=0 time=0
EXTRACT: note_on channel=5 note=48 velocity=0 time=0
EXTRACT: note_on channel=0 note=65 velocity=96 time=0.0013888895833333334
EXTRACT: note_on channel=1 note=79 velocity=60 time=0
EXTRACT: note_on channel=2 note=60 velocity=60 time=0
EXTRACT: note_on channel=2 note=65 velocity=60 time=0
EXTRACT: note_on channel=2 note=72 velocity=60 time=0
EXTRACT: note_on channel=5 note=60 velocity=80 time=0
EXTRACT: note_on channel=5 note=65 velocity=80 time=0
EXTRACT: note_on channel=5 note=70 velocity=80 time=0
EXTRACT: note_on channel=5 note=53 velocity=80 time=0
EXTRACT: note_on channel=1 note=79 velocity=0 time=0.31527793541666665
EXTRACT: note_on channel=5 note=60 velocity=0 time=0.016666675
EXTRACT: note_on channel=5 note=65 velocity=0 time=0
EXTRACT: note_on channel=5 note=70 velocity=0 time=0
EXTRACT: note_on channel=5 note=53 velocity=0 time=0
EXTRACT: note_on channel=1 note=74 velocity=60 time=0.0013888895833333334
EXTRACT: note_on channel=5 note=62 velocity=80 time=0
EXTRACT: note_on channel=5 note=41 velocity=80 time=0
EXTRACT: note_on channel=0 note=65 velocity=0 time=0.16527786041666667
EXTRACT: note_on channel=0 note=60 velocity=96 time=0.0013888895833333334
EXTRACT: note_on channel=1 note=74 velocity=0 time=0.14861118541666668
EXTRACT: note_on channel=0 note=60 velocity=0 time=0.016666675
EXTRACT: note_on channel=2 note=60 velocity=0 time=0
EXTRACT: note_on channel=2 note=65 velocity=0 time=0
EXTRACT: note_on channel=2 note=72 velocity=0 time=0
EXTRACT: note_on channel=5 note=62 velocity=0 time=0
EXTRACT: note_on channel=0 note=60 velocity=96 time=0.0013888895833333334
EXTRACT: note_on channel=1 note=72 velocity=60 time=0
EXTRACT: note_on channel=2 note=65 velocity=60 time=0
EXTRACT: note_on channel=5 note=62 velocity=80 time=0
EXTRACT: note_on channel=5 note=74 velocity=80 time=0
EXTRACT: note_on channel=5 note=41 velocity=0 time=0.3319446104166667
EXTRACT: note_on channel=5 note=53 velocity=80 time=0.0013888895833333334
EXTRACT: note_on channel=1 note=72 velocity=0 time=0.2986112604166667
EXTRACT: note_on channel=5 note=62 velocity=0 time=0.03333335
EXTRACT: note_on channel=5 note=74 velocity=0 time=0
EXTRACT: note_on channel=5 note=53 velocity=0 time=0
EXTRACT: note_on channel=1 note=72 velocity=60 time=0.0013888895833333334
EXTRACT: note_on channel=5 note=62 velocity=80 time=0
EXTRACT: note_on channel=5 note=74 velocity=80 time=0
EXTRACT: note_on channel=5 note=57 velocity=80 time=0
EXTRACT: note_on channel=5 note=60 velocity=80 time=0
EXTRACT: note_on channel=2 note=65 velocity=0 time=0.3319446104166667
EXTRACT: note_on channel=5 note=57 velocity=0 time=0
EXTRACT: note_on channel=5 note=60 velocity=0 time=0
EXTRACT: note_on channel=2 note=63 velocity=60 time=0.0013888895833333334
EXTRACT: note_on channel=5 note=53 velocity=80 time=0
EXTRACT: note_on channel=2 note=63 velocity=0 time=0.16527786041666667
EXTRACT: note_on channel=2 note=65 velocity=60 time=0.0013888895833333334
EXTRACT: note_on channel=1 note=72 velocity=0 time=0.13194451041666666
EXTRACT: note_on channel=0 note=60 velocity=0 time=0.03333335
EXTRACT: note_on channel=2 note=65 velocity=0 time=0
EXTRACT: note_on channel=5 note=62 velocity=0 time=0
EXTRACT: note_on channel=5 note=74 velocity=0 time=0
EXTRACT: note_on channel=5 note=53 velocity=0 time=0
EXTRACT: note_on channel=0 note=62 velocity=96 time=0.0013888895833333334
EXTRACT: note_on channel=1 note=77 velocity=60 time=0
EXTRACT: note_on channel=2 note=67 velocity=60 time=0
EXTRACT: note_on channel=5 note=67 velocity=80 time=0
EXTRACT: note_on channel=5 note=43 velocity=80 time=0
EXTRACT: note_on channel=2 note=67 velocity=0 time=0.16527786041666667
EXTRACT: note_on channel=2 note=65 velocity=60 time=0.0013888895833333334
EXTRACT: note_on channel=1 note=77 velocity=0 time=0.14861118541666668
EXTRACT: note_on channel=0 note=62 velocity=0 time=0.016666675
EXTRACT: note_on channel=2 note=65 velocity=0 time=0
EXTRACT: note_on channel=5 note=67 velocity=0 time=0
EXTRACT: note_on channel=0 note=65 velocity=96 time=0.0013888895833333334
EXTRACT: note_on channel=1 note=77 velocity=60 time=0
EXTRACT: note_on channel=2 note=65 velocity=60 time=0
EXTRACT: note_on channel=5 note=65 velocity=80 time=0
EXTRACT: note_on channel=5 note=43 velocity=0 time=0.16527786041666667
EXTRACT: note_on channel=5 note=50 velocity=80 time=0.0013888895833333334
EXTRACT: note_on channel=1 note=77 velocity=0 time=0.14861118541666668
EXTRACT: note_on channel=0 note=65 velocity=0 time=0.016666675
EXTRACT: note_on channel=2 note=65 velocity=0 time=0
EXTRACT: note_on channel=5 note=65 velocity=0 time=0
EXTRACT: note_on channel=5 note=50 velocity=0 time=0
EXTRACT: note_on channel=0 note=65 velocity=96 time=0.0013888895833333334
EXTRACT: note_on channel=1 note=74 velocity=60 time=0
EXTRACT: note_on channel=2 note=67 velocity=90 time=0
EXTRACT: note_on channel=2 note=75 velocity=90 time=0
EXTRACT: note_on channel=5 note=58 velocity=80 time=0
EXTRACT: note_on channel=5 note=62 velocity=80 time=0
EXTRACT: note_on channel=5 note=65 velocity=80 time=0
EXTRACT: note_on channel=5 note=55 velocity=80 time=0
EXTRACT: note_on channel=1 note=74 velocity=0 time=0.31527793541666665
EXTRACT: note_on channel=2 note=67 velocity=0 time=0.016666675
EXTRACT: note_on channel=2 note=75 velocity=0 time=0
EXTRACT: note_on channel=5 note=58 velocity=0 time=0
EXTRACT: note_on channel=5 note=62 velocity=0 time=0
EXTRACT: note_on channel=5 note=65 velocity=0 time=0
EXTRACT: note_on channel=5 note=55 velocity=0 time=0
EXTRACT: note_on channel=1 note=74 velocity=60 time=0.0013888895833333334
EXTRACT: note_on channel=2 note=65 velocity=90 time=0
EXTRACT: note_on channel=2 note=74 velocity=90 time=0
EXTRACT: note_on channel=5 note=62 velocity=80 time=0
EXTRACT: note_on channel=5 note=65 velocity=80 time=0
EXTRACT: note_on channel=5 note=69 velocity=80 time=0
EXTRACT: note_on channel=5 note=43 velocity=80 time=0
EXTRACT: note_on channel=0 note=65 velocity=0 time=0.16527786041666667
EXTRACT: note_on channel=0 note=62 velocity=96 time=0.0013888895833333334
EXTRACT: note_on channel=1 note=74 velocity=0 time=0.14861118541666668
EXTRACT: note_on channel=0 note=62 velocity=0 time=0.016666675
EXTRACT: note_on channel=2 note=65 velocity=0 time=0
EXTRACT: note_on channel=2 note=74 velocity=0 time=0
EXTRACT: note_on channel=5 note=62 velocity=0 time=0
EXTRACT: note_on channel=5 note=65 velocity=0 time=0
EXTRACT: note_on channel=5 note=69 velocity=0 time=0
EXTRACT: note_on channel=5 note=43 velocity=0 time=0
EXTRACT: note_on channel=0 note=62 velocity=96 time=0.0013888895833333334
EXTRACT: note_on channel=1 note=72 velocity=60 time=0
EXTRACT: note_on channel=2 note=60 velocity=90 time=0
EXTRACT: note_on channel=2 note=65 velocity=90 time=0
EXTRACT: note_on channel=2 note=72 velocity=90 time=0
EXTRACT: note_on channel=5 note=74 velocity=80 time=0
EXTRACT: note_on channel=5 note=50 velocity=80 time=0
EXTRACT: note_on channel=5 note=55 velocity=80 time=0
EXTRACT: note_on channel=1 note=72 velocity=0 time=0.31527793541666665
EXTRACT: note_on channel=0 note=62 velocity=0 time=0.016666675
EXTRACT: note_on channel=5 note=74 velocity=0 time=0
EXTRACT: note_on channel=0 note=60 velocity=96 time=0.0013888895833333334
EXTRACT: note_on channel=1 note=72 velocity=60 time=0
EXTRACT: note_on channel=5 note=72 velocity=80 time=0
EXTRACT: note_on channel=1 note=72 velocity=0 time=0.31527793541666665
EXTRACT: note_on channel=0 note=60 velocity=0 time=0.016666675
EXTRACT: note_on channel=2 note=60 velocity=0 time=0
EXTRACT: note_on channel=2 note=65 velocity=0 time=0
EXTRACT: note_on channel=2 note=72 velocity=0 time=0
EXTRACT: note_on channel=5 note=72 velocity=0 time=0
EXTRACT: note_on channel=5 note=50 velocity=0 time=0
EXTRACT: note_on channel=5 note=55 velocity=0 time=0
EXTRACT: note_on channel=0 note=58 velocity=96 time=0.0013888895833333334
EXTRACT: note_on channel=1 note=70 velocity=60 time=0
EXTRACT: note_on channel=2 note=58 velocity=90 time=0
EXTRACT: note_on channel=2 note=63 velocity=90 time=0
EXTRACT: note_on channel=2 note=70 velocity=90 time=0
EXTRACT: note_on channel=5 note=70 velocity=80 time=0
EXTRACT: note_on channel=5 note=74 velocity=80 time=0
EXTRACT: note_on channel=5 note=77 velocity=80 time=0
EXTRACT: note_on channel=5 note=55 velocity=80 time=0
EXTRACT: note_on channel=5 note=55 velocity=0 time=0.3319446104166667
EXTRACT: note_on channel=5 note=55 velocity=80 time=0.0013888895833333334
EXTRACT: note_on channel=5 note=58 velocity=80 time=0
EXTRACT: note_on channel=1 note=70 velocity=0 time=0.2986112604166667
EXTRACT: note_on channel=0 note=58 velocity=0 time=0.03333335
EXTRACT: note_on channel=2 note=58 velocity=0 time=0
EXTRACT: note_on channel=2 note=63 velocity=0 time=0
EXTRACT: note_on channel=2 note=70 velocity=0 time=0
EXTRACT: note_on channel=5 note=70 velocity=0 time=0
EXTRACT: note_on channel=5 note=74 velocity=0 time=0
EXTRACT: note_on channel=5 note=77 velocity=0 time=0
EXTRACT: note_on channel=5 note=55 velocity=0 time=0
EXTRACT: note_on channel=5 note=58 velocity=0 time=0
EXTRACT: note_on channel=1 note=75 velocity=60 time=0.0013888895833333334
EXTRACT: note_on channel=2 note=63 velocity=90 time=0
EXTRACT: note_on channel=2 note=75 velocity=90 time=0
EXTRACT: note_on channel=5 note=70 velocity=80 time=0
EXTRACT: note_on channel=5 note=39 velocity=80 time=0
EXTRACT: note_on channel=1 note=75 velocity=0 time=0.31527793541666665
EXTRACT: note_on channel=2 note=63 velocity=0 time=0.016666675
EXTRACT: note_on channel=2 note=75 velocity=0 time=0
EXTRACT: note_on channel=5 note=70 velocity=0 time=0
EXTRACT: note_on channel=0 note=63 velocity=96 time=0.0013888895833333334
EXTRACT: note_on channel=1 note=75 velocity=60 time=0
EXTRACT: note_on channel=2 note=63 velocity=90 time=0
EXTRACT: note_on channel=2 note=74 velocity=90 time=0
EXTRACT: note_on channel=5 note=63 velocity=80 time=0
EXTRACT: note_on channel=5 note=39 velocity=0 time=0.16527786041666667
EXTRACT: note_on channel=5 note=46 velocity=80 time=0.0013888895833333334
EXTRACT: note_on channel=1 note=75 velocity=0 time=0.14861118541666668
EXTRACT: note_on channel=0 note=63 velocity=0 time=0.016666675
EXTRACT: note_on channel=2 note=63 velocity=0 time=0
EXTRACT: note_on channel=2 note=74 velocity=0 time=0
EXTRACT: note_on channel=5 note=63 velocity=0 time=0
EXTRACT: note_on channel=5 note=46 velocity=0 time=0
EXTRACT: note_on channel=0 note=63 velocity=96 time=0.0013888895833333334
EXTRACT: note_on channel=1 note=74 velocity=60 time=0
EXTRACT: note_on channel=2 note=75 velocity=90 time=0
EXTRACT: note_on channel=5 note=63 velocity=80 time=0
EXTRACT: note_on channel=5 note=75 velocity=80 time=0
EXTRACT: note_on channel=5 note=51 velocity=80 time=0
EXTRACT: note_on channel=2 note=75 velocity=0 time=0.16527786041666667
EXTRACT: note_on channel=2 note=62 velocity=90 time=0.0013888895833333334
EXTRACT: note_on channel=1 note=74 velocity=0 time=0.14861118541666668
EXTRACT: note_on channel=0 note=63 velocity=0 time=0.016666675
EXTRACT: note_on channel=2 note=62 velocity=0 time=0
EXTRACT: note_on channel=5 note=63 velocity=0 time=0
EXTRACT: note_on channel=5 note=75 velocity=0 time=0
EXTRACT: note_on channel=5 note=51 velocity=0 time=0
EXTRACT: note_on channel=0 note=63 velocity=96 time=0.0013888895833333334
EXTRACT: note_on channel=1 note=75 velocity=60 time=0
EXTRACT: note_on channel=2 note=63 velocity=90 time=0
EXTRACT: note_on channel=5 note=58 velocity=80 time=0
EXTRACT: note_on channel=5 note=70 velocity=80 time=0
EXTRACT: note_on channel=5 note=43 velocity=80 time=0
EXTRACT: note_on channel=5 note=46 velocity=80 time=0
EXTRACT: note_on channel=5 note=50 velocity=80 time=0
EXTRACT: note_on channel=2 note=63 velocity=0 time=0.16527786041666667
EXTRACT: note_on channel=2 note=62 velocity=90 time=0.0013888895833333334
EXTRACT: note_on channel=1 note=75 velocity=0 time=0.14861118541666668
EXTRACT: note_on channel=0 note=63 velocity=0 time=0.016666675
EXTRACT: note_on channel=2 note=62 velocity=0 time=0
EXTRACT: note_on channel=5 note=58 velocity=0 time=0
EXTRACT: note_on channel=5 note=70 velocity=0 time=0
EXTRACT: note_on channel=0 note=62 velocity=96 time=0.0013888895833333334
EXTRACT: note_on channel=1 note=74 velocity=60 time=0
EXTRACT: note_on channel=2 note=63 velocity=90 time=0
EXTRACT: note_on channel=5 note=63 velocity=80 time=0
EXTRACT: note_on channel=5 note=70 velocity=80 time=0
EXTRACT: note_on channel=2 note=63 velocity=0 time=0.16527786041666667
EXTRACT: note_on channel=2 note=62 velocity=90 time=0.0013888895833333334
EXTRACT: note_on channel=1 note=74 velocity=0 time=0.14861118541666668
EXTRACT: note_on channel=2 note=62 velocity=0 time=0.016666675
EXTRACT: note_on channel=5 note=63 velocity=0 time=0
EXTRACT: note_on channel=5 note=70 velocity=0 time=0
EXTRACT: note_on channel=5 note=43 velocity=0 time=0
EXTRACT: note_on channel=5 note=46 velocity=0 time=0
EXTRACT: note_on channel=5 note=50 velocity=0 time=0
EXTRACT: note_on channel=1 note=75 velocity=60 time=0.0013888895833333334
EXTRACT: note_on channel=2 note=63 velocity=90 time=0
EXTRACT: note_on channel=5 note=62 velocity=80 time=0
EXTRACT: note_on channel=5 note=43 velocity=80 time=0
EXTRACT: note_on channel=5 note=55 velocity=80 time=0
EXTRACT: note_on channel=2 note=63 velocity=0 time=0.16527786041666667
EXTRACT: note_on channel=5 note=62 velocity=0 time=0
EXTRACT: note_on channel=2 note=74 velocity=90 time=0.0013888895833333334
EXTRACT: note_on channel=5 note=63 velocity=80 time=0
EXTRACT: note_on channel=1 note=75 velocity=0 time=0.14861118541666668
EXTRACT: note_on channel=2 note=74 velocity=0 time=0.016666675
EXTRACT: note_on channel=5 note=63 velocity=0 time=0
EXTRACT: note_on channel=5 note=43 velocity=0 time=0
EXTRACT: note_on channel=5 note=55 velocity=0 time=0
EXTRACT: note_on channel=1 note=74 velocity=60 time=0.0013888895833333334
EXTRACT: note_on channel=2 note=63 velocity=90 time=0
EXTRACT: note_on channel=2 note=75 velocity=90 time=0
EXTRACT: note_on channel=5 note=58 velocity=80 time=0
EXTRACT: note_on channel=5 note=70 velocity=80 time=0
EXTRACT: note_on channel=5 note=50 velocity=80 time=0
EXTRACT: note_on channel=5 note=55 velocity=80 time=0
EXTRACT: note_on channel=1 note=74 velocity=0 time=0.31527793541666665
EXTRACT: note_on channel=1 note=70 velocity=60 time=0.018055564583333333
EXTRACT: note_on channel=1 note=70 velocity=0 time=0.31527793541666665
EXTRACT: note_on channel=0 note=62 velocity=0 time=0.016666675
EXTRACT: note_on channel=2 note=63 velocity=0 time=0
EXTRACT: note_on channel=2 note=75 velocity=0 time=0
EXTRACT: note_on channel=5 note=58 velocity=0 time=0
EXTRACT: note_on channel=5 note=70 velocity=0 time=0
EXTRACT: note_on channel=5 note=50 velocity=0 time=0
EXTRACT: note_on channel=5 note=55 velocity=0 time=0
EXTRACT: note_on channel=1 note=72 velocity=60 time=0.0013888895833333334
EXTRACT: note_on channel=2 note=67 velocity=90 time=0
EXTRACT: note_on channel=2 note=74 velocity=90 time=0
EXTRACT: note_on channel=5 note=67 velocity=90 time=0
EXTRACT: note_on channel=5 note=46 velocity=90 time=0
EXTRACT: note_on channel=5 note=67 velocity=0 time=0.16527786041666667
EXTRACT: note_on channel=5 note=67 velocity=90 time=0.0013888895833333334
EXTRACT: note_on channel=1 note=72 velocity=0 time=0.14861118541666668
EXTRACT: note_on channel=2 note=67 velocity=0 time=0.016666675
EXTRACT: note_on channel=2 note=74 velocity=0 time=0
EXTRACT: note_on channel=5 note=67 velocity=0 time=0
EXTRACT: note_on channel=0 note=62 velocity=96 time=0.0013888895833333334
EXTRACT: note_on channel=1 note=79 velocity=60 time=0
EXTRACT: note_on channel=2 note=65 velocity=90 time=0
EXTRACT: note_on channel=2 note=70 velocity=90 time=0
EXTRACT: note_on channel=5 note=65 velocity=90 time=0
EXTRACT: note_on channel=0 note=62 velocity=0 time=0.16527786041666667
EXTRACT: note_on channel=5 note=65 velocity=0 time=0
EXTRACT: note_on channel=5 note=46 velocity=0 time=0
EXTRACT: note_on channel=0 note=67 velocity=96 time=0.0013888895833333334
EXTRACT: note_on channel=5 note=67 velocity=90 time=0
EXTRACT: note_on channel=5 note=53 velocity=90 time=0
EXTRACT: note_on channel=1 note=79 velocity=0 time=0.14861118541666668
EXTRACT: note_on channel=2 note=65 velocity=0 time=0.016666675
EXTRACT: note_on channel=2 note=70 velocity=0 time=0
EXTRACT: note_on channel=5 note=67 velocity=0 time=0
EXTRACT: note_on channel=5 note=53 velocity=0 time=0
EXTRACT: note_on channel=1 note=77 velocity=60 time=0.0013888895833333334
EXTRACT: note_on channel=2 note=67 velocity=90 time=0
EXTRACT: note_on channel=2 note=74 velocity=90 time=0
EXTRACT: note_on channel=5 note=70 velocity=90 time=0
EXTRACT: note_on channel=5 note=58 velocity=90 time=0
EXTRACT: note_on channel=0 note=67 velocity=0 time=0.16527786041666667
EXTRACT: note_on channel=0 note=70 velocity=96 time=0.0013888895833333334
EXTRACT: note_on channel=2 note=67 velocity=0 time=0.16527786041666667
EXTRACT: note_on channel=2 note=74 velocity=0 time=0
EXTRACT: note_on channel=5 note=58 velocity=0 time=0
EXTRACT: note_on channel=2 note=65 velocity=90 time=0.0013888895833333334
EXTRACT: note_on channel=2 note=70 velocity=90 time=0
EXTRACT: note_on channel=5 note=46 velocity=90 time=0
EXTRACT: note_on channel=1 note=77 velocity=0 time=0.2986112604166667
EXTRACT: note_on channel=0 note=70 velocity=0 time=0.03333335
EXTRACT: note_on channel=2 note=65 velocity=0 time=0
EXTRACT: note_on channel=2 note=70 velocity=0 time=0
EXTRACT: note_on channel=5 note=70 velocity=0 time=0
EXTRACT: note_on channel=0 note=65 velocity=96 time=0.0013888895833333334
EXTRACT: note_on channel=1 note=77 velocity=60 time=0
EXTRACT: note_on channel=2 note=70 velocity=90 time=0
EXTRACT: note_on channel=2 note=77 velocity=90 time=0
EXTRACT: note_on channel=5 note=65 velocity=90 time=0
EXTRACT: note_on channel=0 note=65 velocity=0 time=0.16527786041666667
EXTRACT: note_on channel=5 note=65 velocity=0 time=0
EXTRACT: note_on channel=0 note=67 velocity=96 time=0.0013888895833333334
EXTRACT: note_on channel=5 note=67 velocity=90 time=0
EXTRACT: note_on channel=1 note=77 velocity=0 time=0.14861118541666668
EXTRACT: note_on channel=0 note=67 velocity=0 time=0.016666675
EXTRACT: note_on channel=2 note=70 velocity=0 time=0
EXTRACT: note_on channel=2 note=77 velocity=0 time=0
EXTRACT: note_on channel=5 note=67 velocity=0 time=0
EXTRACT: note_on channel=5 note=46 velocity=0 time=0
EXTRACT: note_on channel=0 note=70 velocity=96 time=0.0013888895833333334
EXTRACT: note_on channel=1 note=81 velocity=60 time=0
EXTRACT: note_on channel=2 note=70 velocity=90 time=0
EXTRACT: note_on channel=2 note=79 velocity=90 time=0
EXTRACT: note_on channel=5 note=65 velocity=90 time=0
EXTRACT: note_on channel=5 note=70 velocity=90 time=0
EXTRACT: note_on channel=5 note=53 velocity=90 time=0
EXTRACT: note_on channel=5 note=70 velocity=0 time=0.16527786041666667
EXTRACT: note_on channel=5 note=72 velocity=90 time=0.0013888895833333334
EXTRACT: note_on channel=1 note=81 velocity=0 time=0.14861118541666668
EXTRACT: note_on channel=0 note=70 velocity=0 time=0.016666675
EXTRACT: note_on channel=2 note=70 velocity=0 time=0
EXTRACT: note_on channel=2 note=79 velocity=0 time=0
EXTRACT: note_on channel=5 note=65 velocity=0 time=0
EXTRACT: note_on channel=5 note=72 velocity=0 time=0
EXTRACT: note_on channel=5 note=53 velocity=0 time=0
EXTRACT: note_on channel=0 note=72 velocity=96 time=0.0013888895833333334
EXTRACT: note_on channel=1 note=77 velocity=60 time=0
EXTRACT: note_on channel=2 note=70 velocity=90 time=0
EXTRACT: note_on channel=2 note=77 velocity=90 time=0
EXTRACT: note_on channel=5 note=65 velocity=90 time=0
EXTRACT: note_on channel=5 note=74 velocity=90 time=0
EXTRACT: note_on channel=5 note=58 velocity=90 time=0
EXTRACT: note_on channel=1 note=77 velocity=0 time=0.31527793541666665
EXTRACT: note_on channel=0 note=72 velocity=0 time=0.016666675
EXTRACT: note_on channel=5 note=58 velocity=0 time=0
EXTRACT: note_on channel=0 note=70 velocity=96 time=0.0013888895833333334
EXTRACT: note_on channel=1 note=82 velocity=60 time=0
EXTRACT: note_on channel=5 note=53 velocity=90 time=0
EXTRACT: note_on channel=1 note=82 velocity=0 time=0.31527793541666665
EXTRACT: note_on channel=0 note=70 velocity=0 time=0.016666675
EXTRACT: note_on channel=2 note=70 velocity=0 time=0
EXTRACT: note_on channel=2 note=77 velocity=0 time=0
EXTRACT: note_on channel=5 note=65 velocity=0 time=0
EXTRACT: note_on channel=5 note=74 velocity=0 time=0
EXTRACT: note_on channel=5 note=53 velocity=0 time=0
EXTRACT: note_on channel=1 note=77 velocity=60 time=0.0013888895833333334
EXTRACT: note_on channel=2 note=65 velocity=90 time=0
EXTRACT: note_on channel=2 note=77 velocity=90 time=0
EXTRACT: note_on channel=5 note=69 velocity=90 time=0
EXTRACT: note_on channel=5 note=72 velocity=90 time=0
EXTRACT: note_on channel=5 note=75 velocity=90 time=0
EXTRACT: note_on channel=5 note=41 velocity=90 time=0
EXTRACT: note_on channel=1 note=77 velocity=0 time=0.31527793541666665
EXTRACT: note_on channel=2 note=65 velocity=0 time=0.016666675
EXTRACT: note_on channel=2 note=77 velocity=0 time=0
EXTRACT: note_on channel=0 note=65 velocity=96 time=0.0013888895833333334
EXTRACT: note_on channel=1 note=77 velocity=60 time=0
EXTRACT: note_on channel=2 note=65 velocity=90 time=0
EXTRACT: note_on channel=2 note=77 velocity=90 time=0
EXTRACT: note_on channel=1 note=77 velocity=0 time=0.15694452291666666
EXTRACT: note_on channel=0 note=65 velocity=0 time=0.0083333375
EXTRACT: note_on channel=2 note=65 velocity=0 time=0
EXTRACT: note_on channel=2 note=77 velocity=0 time=0
EXTRACT: note_on channel=5 note=69 velocity=0 time=0
EXTRACT: note_on channel=5 note=72 velocity=0 time=0
EXTRACT: note_on channel=5 note=75 velocity=0 time=0
EXTRACT: note_on channel=5 note=41 velocity=0 time=0
EXTRACT: note_on channel=0 note=67 velocity=96 time=0.0013888895833333334
EXTRACT: note_on channel=1 note=79 velocity=60 time=0
EXTRACT: note_on channel=2 note=67 velocity=90 time=0
EXTRACT: note_on channel=2 note=79 velocity=90 time=0
EXTRACT: note_on channel=5 note=65 velocity=90 time=0
EXTRACT: note_on channel=5 note=69 velocity=90 time=0
EXTRACT: note_on channel=5 note=72 velocity=90 time=0
EXTRACT: note_on channel=5 note=48 velocity=90 time=0
EXTRACT: note_on channel=1 note=79 velocity=0 time=0.15694452291666666
EXTRACT: note_on channel=0 note=67 velocity=0 time=0.0083333375
EXTRACT: note_on channel=2 note=67 velocity=0 time=0
EXTRACT: note_on channel=2 note=79 velocity=0 time=0
EXTRACT: note_on channel=5 note=65 velocity=0 time=0
EXTRACT: note_on channel=5 note=69 velocity=0 time=0
EXTRACT: note_on channel=5 note=72 velocity=0 time=0
EXTRACT: note_on channel=5 note=48 velocity=0 time=0
EXTRACT: note_on channel=0 note=70 velocity=96 time=0.0013888895833333334
EXTRACT: note_on channel=1 note=79 velocity=60 time=0
EXTRACT: note_on channel=2 note=65 velocity=90 time=0
EXTRACT: note_on channel=2 note=70 velocity=90 time=0
EXTRACT: note_on channel=5 note=65 velocity=90 time=0
EXTRACT: note_on channel=5 note=70 velocity=90 time=0
EXTRACT: note_on channel=5 note=53 velocity=90 time=0
EXTRACT: note_on channel=0 note=70 velocity=0 time=0.16527786041666667
EXTRACT: note_on channel=2 note=65 velocity=0 time=0
EXTRACT: note_on channel=2 note=70 velocity=0 time=0
EXTRACT: note_on channel=0 note=67 velocity=96 time=0.0013888895833333334
EXTRACT: note_on channel=2 note=67 velocity=90 time=0
EXTRACT: note_on channel=2 note=70 velocity=90 time=0
EXTRACT: note_on channel=1 note=79 velocity=0 time=0.14861118541666668
EXTRACT: note_on channel=0 note=67 velocity=0 time=0.016666675
EXTRACT: note_on channel=2 note=67 velocity=0 time=0
EXTRACT: note_on channel=2 note=70 velocity=0 time=0
EXTRACT: note_on channel=5 note=53 velocity=0 time=0
EXTRACT: note_on channel=0 note=65 velocity=96 time=0.0013888895833333334
EXTRACT: note_on channel=1 note=82 velocity=60 time=0
EXTRACT: note_on channel=2 note=65 velocity=90 time=0
EXTRACT: note_on channel=2 note=70 velocity=90 time=0
EXTRACT: note_on channel=5 note=41 velocity=90 time=0
EXTRACT: note_on channel=0 note=65 velocity=0 time=0.16527786041666667
EXTRACT: note_on channel=2 note=65 velocity=0 time=0
EXTRACT: note_on channel=2 note=70 velocity=0 time=0
EXTRACT: note_on channel=0 note=67 velocity=96 time=0.0013888895833333334
EXTRACT: note_on channel=2 note=67 velocity=90 time=0
EXTRACT: note_on channel=2 note=70 velocity=90 time=0
EXTRACT: note_on channel=1 note=82 velocity=0 time=0.14861118541666668
EXTRACT: note_on channel=0 note=67 velocity=0 time=0.016666675
EXTRACT: note_on channel=2 note=67 velocity=0 time=0
EXTRACT: note_on channel=2 note=70 velocity=0 time=0
EXTRACT: note_on channel=5 note=65 velocity=0 time=0
EXTRACT: note_on channel=5 note=70 velocity=0 time=0
EXTRACT: note_on channel=0 note=70 velocity=96 time=0.0013888895833333334
EXTRACT: note_on channel=1 note=77 velocity=60 time=0
EXTRACT: note_on channel=2 note=69 velocity=90 time=0
EXTRACT: note_on channel=2 note=72 velocity=90 time=0
EXTRACT: note_on channel=5 note=65 velocity=90 time=0
EXTRACT: note_on channel=5 note=72 velocity=90 time=0
EXTRACT: note_on channel=5 note=77 velocity=90 time=0
EXTRACT: note_on channel=0 note=70 velocity=0 time=0.16527786041666667
EXTRACT: note_on channel=0 note=65 velocity=96 time=0.0013888895833333334
EXTRACT: note_on channel=1 note=77 velocity=0 time=0.14861118541666668
EXTRACT: note_on channel=0 note=65 velocity=0 time=0.016666675
EXTRACT: note_on channel=2 note=69 velocity=0 time=0
EXTRACT: note_on channel=2 note=72 velocity=0 time=0
EXTRACT: note_on channel=5 note=41 velocity=0 time=0
EXTRACT: note_on channel=0 note=67 velocity=96 time=0.0013888895833333334
EXTRACT: note_on channel=1 note=72 velocity=60 time=0
EXTRACT: note_on channel=2 note=72 velocity=90 time=0
EXTRACT: note_on channel=2 note=75 velocity=90 time=0
EXTRACT: note_on channel=5 note=53 velocity=90 time=0
EXTRACT: note_on channel=1 note=72 velocity=0 time=0.31527793541666665
EXTRACT: note_on channel=0 note=67 velocity=0 time=0.016666675
EXTRACT: note_on channel=2 note=72 velocity=0 time=0
EXTRACT: note_on channel=2 note=75 velocity=0 time=0
EXTRACT: note_on channel=5 note=53 velocity=0 time=0
EXTRACT: note_on channel=0 note=69 velocity=96 time=0.0013888895833333334
EXTRACT: note_on channel=1 note=77 velocity=60 time=0
EXTRACT: note_on channel=2 note=72 velocity=90 time=0
EXTRACT: note_on channel=2 note=77 velocity=90 time=0
EXTRACT: note_on channel=5 note=57 velocity=90 time=0
EXTRACT: note_on channel=5 note=60 velocity=90 time=0
EXTRACT: note_on channel=1 note=77 velocity=0 time=0.31527793541666665
EXTRACT: note_on channel=0 note=69 velocity=0 time=0.016666675
EXTRACT: note_on channel=5 note=65 velocity=0 time=0
EXTRACT: note_on channel=5 note=72 velocity=0 time=0
EXTRACT: note_on channel=5 note=77 velocity=0 time=0
EXTRACT: note_on channel=5 note=57 velocity=0 time=0
EXTRACT: note_on channel=5 note=60 velocity=0 time=0
EXTRACT: note_on channel=0 note=70 velocity=96 time=0.0013888895833333334
EXTRACT: note_on channel=1 note=74 velocity=60 time=0
EXTRACT: note_on channel=5 note=70 velocity=90 time=0
EXTRACT: note_on channel=5 note=74 velocity=90 time=0
EXTRACT: note_on channel=5 note=53 velocity=90 time=0
EXTRACT: note_on channel=2 note=72 velocity=0 time=0.16527786041666667
EXTRACT: note_on channel=2 note=77 velocity=0 time=0
EXTRACT: note_on channel=2 note=70 velocity=90 time=0.0013888895833333334
EXTRACT: note_on channel=2 note=74 velocity=90 time=0
EXTRACT: note_on channel=1 note=74 velocity=0 time=0.14861118541666668
EXTRACT: note_on channel=0 note=70 velocity=0 time=0.016666675
EXTRACT: note_on channel=2 note=70 velocity=0 time=0
EXTRACT: note_on channel=2 note=74 velocity=0 time=0
EXTRACT: note_on channel=5 note=70 velocity=0 time=0
EXTRACT: note_on channel=5 note=74 velocity=0 time=0
EXTRACT: note_on channel=5 note=53 velocity=0 time=0
EXTRACT: note_on channel=1 note=70 velocity=90 time=0.0013888895833333334
EXTRACT: note_on channel=2 note=62 velocity=90 time=0
EXTRACT: note_on channel=2 note=70 velocity=90 time=0
EXTRACT: note_on channel=5 note=62 velocity=80 time=0
EXTRACT: note_on channel=5 note=70 velocity=80 time=0
EXTRACT: note_on channel=5 note=46 velocity=80 time=0
EXTRACT: note_on channel=1 note=70 velocity=0 time=0.15694452291666666
EXTRACT: note_on channel=1 note=74 velocity=90 time=0.009722227083333333
EXTRACT: note_on channel=1 note=74 velocity=0 time=0.15694452291666666
EXTRACT: note_on channel=0 note=74 velocity=96 time=0.009722227083333333
EXTRACT: note_on channel=1 note=77 velocity=90 time=0
EXTRACT: note_on channel=5 note=46 velocity=0 time=0.16527786041666667
EXTRACT: note_on channel=5 note=53 velocity=80 time=0.0013888895833333334
EXTRACT: note_on channel=1 note=77 velocity=0 time=0.14861118541666668
EXTRACT: note_on channel=5 note=62 velocity=0 time=0.016666675
EXTRACT: note_on channel=5 note=70 velocity=0 time=0
EXTRACT: note_on channel=5 note=53 velocity=0 time=0
EXTRACT: note_on channel=1 note=70 velocity=90 time=0.0013888895833333334
EXTRACT: note_on channel=5 note=65 velocity=80 time=0
EXTRACT: note_on channel=5 note=70 velocity=80 time=0
EXTRACT: note_on channel=5 note=58 velocity=80 time=0
EXTRACT: note_on channel=1 note=70 velocity=0 time=0.15694452291666666
EXTRACT: note_on channel=0 note=74 velocity=0 time=0.0083333375
EXTRACT: note_on channel=0 note=72 velocity=96 time=0.0013888895833333334
EXTRACT: note_on channel=1 note=74 velocity=90 time=0
EXTRACT: note_on channel=1 note=74 velocity=0 time=0.15694452291666666
EXTRACT: note_on channel=2 note=62 velocity=0 time=0.0083333375
EXTRACT: note_on channel=2 note=70 velocity=0 time=0
EXTRACT: note_on channel=5 note=58 velocity=0 time=0
EXTRACT: note_on channel=1 note=77 velocity=90 time=0.0013888895833333334
EXTRACT: note_on channel=2 note=62 velocity=90 time=0
EXTRACT: note_on channel=2 note=74 velocity=90 time=0
EXTRACT: note_on channel=5 note=46 velocity=80 time=0
EXTRACT: note_on channel=0 note=72 velocity=0 time=0.16527786041666667
EXTRACT: note_on channel=0 note=74 velocity=96 time=0.0013888895833333334
EXTRACT: note_on channel=1 note=77 velocity=0 time=0.14861118541666668
EXTRACT: note_on channel=0 note=74 velocity=0 time=0.016666675
EXTRACT: note_on channel=2 note=62 velocity=0 time=0
EXTRACT: note_on channel=2 note=74 velocity=0 time=0
EXTRACT: note_on channel=5 note=65 velocity=0 time=0
EXTRACT: note_on channel=5 note=70 velocity=0 time=0
EXTRACT: note_on channel=0 note=75 velocity=96 time=0.0013888895833333334
EXTRACT: note_on channel=1 note=75 velocity=90 time=0
EXTRACT: note_on channel=2 note=63 velocity=90 time=0
EXTRACT: note_on channel=2 note=75 velocity=90 time=0
EXTRACT: note_on channel=5 note=75 velocity=80 time=0
EXTRACT: note_on channel=1 note=75 velocity=0 time=0.31527793541666665
EXTRACT: note_on channel=0 note=75 velocity=0 time=0.016666675
EXTRACT: note_on channel=2 note=63 velocity=0 time=0
EXTRACT: note_on channel=2 note=75 velocity=0 time=0
EXTRACT: note_on channel=5 note=46 velocity=0 time=0
EXTRACT: note_on channel=0 note=74 velocity=96 time=0.0013888895833333334
EXTRACT: note_on channel=1 note=72 velocity=90 time=0
EXTRACT: note_on channel=2 note=62 velocity=90 time=0
EXTRACT: note_on channel=2 note=74 velocity=90 time=0
EXTRACT: note_on channel=5 note=53 velocity=80 time=0
EXTRACT: note_on channel=5 note=75 velocity=0 time=0.16527786041666667
EXTRACT: note_on channel=5 note=74 velocity=80 time=0.0013888895833333334
EXTRACT: note_on channel=1 note=72 velocity=0 time=0.14861118541666668
EXTRACT: note_on channel=0 note=74 velocity=0 time=0.016666675
EXTRACT: note_on channel=2 note=62 velocity=0 time=0
EXTRACT: note_on channel=2 note=74 velocity=0 time=0
EXTRACT: note_on channel=5 note=74 velocity=0 time=0
EXTRACT: note_on channel=5 note=53 velocity=0 time=0
EXTRACT: note_on channel=0 note=72 velocity=96 time=0.0013888895833333334
EXTRACT: note_on channel=1 note=74 velocity=90 time=0
EXTRACT: note_on channel=2 note=60 velocity=90 time=0
EXTRACT: note_on channel=2 note=72 velocity=90 time=0
EXTRACT: note_on channel=5 note=72 velocity=80 time=0
EXTRACT: note_on channel=5 note=58 velocity=80 time=0
EXTRACT: note_on channel=1 note=74 velocity=0 time=0.31527793541666665
EXTRACT: note_on channel=0 note=72 velocity=0 time=0.016666675
EXTRACT: note_on channel=2 note=60 velocity=0 time=0
EXTRACT: note_on channel=2 note=72 velocity=0 time=0
EXTRACT: note_on channel=5 note=58 velocity=0 time=0
EXTRACT: note_on channel=0 note=70 velocity=96 time=0.0013888895833333334
EXTRACT: note_on channel=1 note=70 velocity=90 time=0
EXTRACT: note_on channel=2 note=58 velocity=90 time=0
EXTRACT: note_on channel=2 note=70 velocity=90 time=0
EXTRACT: note_on channel=5 note=53 velocity=80 time=0
EXTRACT: note_on channel=5 note=72 velocity=0 time=0.16527786041666667
EXTRACT: note_on channel=5 note=70 velocity=80 time=0.0013888895833333334
EXTRACT: note_on channel=1 note=70 velocity=0 time=0.14861118541666668
EXTRACT: note_on channel=2 note=58 velocity=0 time=0.016666675
EXTRACT: note_on channel=2 note=70 velocity=0 time=0
EXTRACT: note_on channel=5 note=53 velocity=0 time=0
EXTRACT: note_on channel=1 note=77 velocity=90 time=0
EXTRACT: note_on channel=2 note=58 velocity=90 time=0
EXTRACT: note_on channel=2 note=70 velocity=90 time=0
EXTRACT: note_on channel=5 note=65 velocity=80 time=0
EXTRACT: note_on channel=5 note=39 velocity=80 time=0
EXTRACT: note_on channel=1 note=77 velocity=0 time=0.15694452291666666
EXTRACT: note_on channel=1 note=75 velocity=90 time=0.009722227083333333
EXTRACT: note_on channel=1 note=75 velocity=0 time=0.15694452291666666
EXTRACT: note_on channel=0 note=70 velocity=0 time=0.0083333375
EXTRACT: note_on channel=2 note=58 velocity=0 time=0
EXTRACT: note_on channel=2 note=70 velocity=0 time=0
EXTRACT: note_on channel=5 note=70 velocity=0 time=0
EXTRACT: note_on channel=5 note=65 velocity=0 time=0
EXTRACT: note_on channel=0 note=70 velocity=96 time=0.0013888895833333334
EXTRACT: note_on channel=1 note=74 velocity=90 time=0
EXTRACT: note_on channel=2 note=65 velocity=90 time=0
EXTRACT: note_on channel=2 note=77 velocity=90 time=0
EXTRACT: note_on channel=5 note=70 velocity=80 time=0
EXTRACT: note_on channel=5 note=77 velocity=80 time=0
EXTRACT: note_on channel=1 note=74 velocity=0 time=0.15694452291666666
EXTRACT: note_on channel=5 note=39 velocity=0 time=0.0083333375
EXTRACT: note_on channel=1 note=72 velocity=90 time=0.0013888895833333334
EXTRACT: note_on channel=5 note=46 velocity=80 time=0
EXTRACT: note_on channel=1 note=72 velocity=0 time=0.15694452291666666
EXTRACT: note_on channel=2 note=65 velocity=0 time=0.0083333375
EXTRACT: note_on channel=2 note=77 velocity=0 time=0
EXTRACT: note_on channel=5 note=70 velocity=0 time=0
EXTRACT: note_on channel=5 note=77 velocity=0 time=0
EXTRACT: note_on channel=5 note=46 velocity=0 time=0
EXTRACT: note_on channel=1 note=70 velocity=90 time=0.0013888895833333334
EXTRACT: note_on channel=2 note=63 velocity=90 time=0
EXTRACT: note_on channel=2 note=75 velocity=90 time=0
EXTRACT: note_on channel=1 note=70 velocity=0 time=0.15694452291666666
EXTRACT: note_on channel=1 note=72 velocity=90 time=0.009722227083333333
EXTRACT: note_on channel=5 note=63 velocity=80 time=0
EXTRACT: note_on channel=5 note=70 velocity=80 time=0
EXTRACT: note_on channel=5 note=75 velocity=80 time=0
EXTRACT: note_on channel=5 note=51 velocity=80 time=0
EXTRACT: note_on channel=1 note=72 velocity=0 time=0.15694452291666666
EXTRACT: note_on channel=2 note=63 velocity=0 time=0.0083333375
EXTRACT: note_on channel=2 note=75 velocity=0 time=0
EXTRACT: note_on channel=1 note=74 velocity=90 time=0.0013888895833333334
EXTRACT: note_on channel=2 note=62 velocity=90 time=0
EXTRACT: note_on channel=2 note=74 velocity=90 time=0
EXTRACT: note_on channel=1 note=74 velocity=0 time=0.15694452291666666
EXTRACT: note_on channel=5 note=51 velocity=0 time=0.0083333375
EXTRACT: note_on channel=1 note=75 velocity=90 time=0.0013888895833333334
EXTRACT: note_on channel=5 note=39 velocity=80 time=0
EXTRACT: note_on channel=1 note=75 velocity=0 time=0.15694452291666666
EXTRACT: note_on channel=2 note=62 velocity=0 time=0.0083333375
EXTRACT: note_on channel=2 note=74 velocity=0 time=0
EXTRACT: note_on channel=1 note=75 velocity=90 time=0.0013888895833333334
EXTRACT: note_on channel=2 note=63 velocity=90 time=0
EXTRACT: note_on channel=2 note=75 velocity=90 time=0
EXTRACT: note_on channel=5 note=63 velocity=0 time=0.16527786041666667
EXTRACT: note_on channel=5 note=70 velocity=0 time=0
EXTRACT: note_on channel=5 note=75 velocity=0 time=0
EXTRACT: note_on channel=5 note=39 velocity=0 time=0
EXTRACT: note_on channel=5 note=63 velocity=80 time=0.0013888895833333334
EXTRACT: note_on channel=5 note=51 velocity=80 time=0
EXTRACT: note_on channel=5 note=70 velocity=80 time=0.08750004375
EXTRACT: note_on channel=0 note=70 velocity=0 time=0.07777781666666667
EXTRACT: note_on channel=2 note=63 velocity=0 time=0
EXTRACT: note_on channel=2 note=75 velocity=0 time=0
EXTRACT: note_on channel=0 note=74 velocity=96 time=0.0013888895833333334
EXTRACT: note_on channel=2 note=62 velocity=90 time=0
EXTRACT: note_on channel=2 note=74 velocity=90 time=0
EXTRACT: note_on channel=5 note=74 velocity=80 time=0.009722227083333333
EXTRACT: note_on channel=5 note=51 velocity=0 time=0.15555563333333333
EXTRACT: note_on channel=5 note=39 velocity=80 time=0.0013888895833333334
EXTRACT: note_on channel=0 note=74 velocity=0 time=0.16527786041666667
EXTRACT: note_on channel=2 note=62 velocity=0 time=0
EXTRACT: note_on channel=2 note=74 velocity=0 time=0
EXTRACT: note_on channel=0 note=72 velocity=96 time=0.0013888895833333334
EXTRACT: note_on channel=2 note=62 velocity=90 time=0
EXTRACT: note_on channel=2 note=74 velocity=90 time=0
EXTRACT: note_on channel=5 note=39 velocity=0 time=0.16527786041666667
EXTRACT: note_on channel=5 note=51 velocity=80 time=0.0013888895833333334
EXTRACT: note_on channel=5 note=55 velocity=80 time=0
EXTRACT: note_on channel=1 note=75 velocity=0 time=0.11527783541666667
EXTRACT: note_on channel=0 note=72 velocity=0 time=0.050000025000000003
EXTRACT: note_on channel=2 note=62 velocity=0 time=0
EXTRACT: note_on channel=2 note=74 velocity=0 time=0
EXTRACT: note_on channel=0 note=70 velocity=96 time=0.0013888895833333334
EXTRACT: note_on channel=1 note=70 velocity=90 time=0
EXTRACT: note_on channel=2 note=58 velocity=90 time=0
EXTRACT: note_on channel=2 note=70 velocity=90 time=0
EXTRACT: note_on channel=1 note=70 velocity=0 time=0.31527793541666665
EXTRACT: note_on channel=0 note=70 velocity=0 time=0.016666675
EXTRACT: note_on channel=2 note=58 velocity=0 time=0
EXTRACT: note_on channel=2 note=70 velocity=0 time=0
EXTRACT: note_on channel=5 note=70 velocity=0 time=0.16527786041666667
EXTRACT: note_on channel=5 note=74 velocity=0 time=0
EXTRACT: note_on channel=5 note=63 velocity=0 time=0.0013888895833333334
EXTRACT: note_on channel=5 note=51 velocity=0 time=0
EXTRACT: note_on channel=5 note=55 velocity=0 time=0
EXTRACT: note_on channel=0 note=62 velocity=96 time=0
EXTRACT: note_on channel=1 note=72 velocity=80 time=0
EXTRACT: note_on channel=2 note=65 velocity=60 time=0
EXTRACT: note_on channel=2 note=74 velocity=60 time=0
EXTRACT: note_on channel=5 note=60 velocity=90 time=0
EXTRACT: note_on channel=5 note=72 velocity=90 time=0
EXTRACT: note_on channel=5 note=46 velocity=90 time=0
EXTRACT: note_on channel=1 note=72 velocity=0 time=0.31527793541666665
EXTRACT: note_on channel=0 note=62 velocity=0 time=0.016666675
EXTRACT: note_on channel=2 note=65 velocity=0 time=0
EXTRACT: note_on channel=2 note=74 velocity=0 time=0
EXTRACT: note_on channel=0 note=65 velocity=96 time=0.0013888895833333334
EXTRACT: note_on channel=1 note=79 velocity=80 time=0
EXTRACT: note_on channel=2 note=65 velocity=60 time=0
EXTRACT: note_on channel=2 note=70 velocity=60 time=0
EXTRACT: note_on channel=5 note=46 velocity=0 time=0.16527786041666667
EXTRACT: note_on channel=5 note=53 velocity=90 time=0.0013888895833333334
EXTRACT: note_on channel=1 note=79 velocity=0 time=0.14861118541666668
EXTRACT: note_on channel=0 note=65 velocity=0 time=0.016666675
EXTRACT: note_on channel=2 note=65 velocity=0 time=0
EXTRACT: note_on channel=2 note=70 velocity=0 time=0
EXTRACT: note_on channel=5 note=60 velocity=0 time=0
EXTRACT: note_on channel=5 note=72 velocity=0 time=0
EXTRACT: note_on channel=5 note=53 velocity=0 time=0
EXTRACT: note_on channel=0 note=67 velocity=96 time=0.0013888895833333334
EXTRACT: note_on channel=1 note=77 velocity=80 time=0
EXTRACT: note_on channel=2 note=67 velocity=60 time=0
EXTRACT: note_on channel=5 note=67 velocity=90 time=0
EXTRACT: note_on channel=5 note=58 velocity=90 time=0
EXTRACT: note_on channel=2 note=67 velocity=0 time=0.3319446104166667
EXTRACT: note_on channel=5 note=58 velocity=0 time=0
EXTRACT: note_on channel=2 note=65 velocity=60 time=0.0013888895833333334
EXTRACT: note_on channel=2 note=70 velocity=60 time=0
EXTRACT: note_on channel=5 note=46 velocity=90 time=0
EXTRACT: note_on channel=0 note=67 velocity=0 time=0.16527786041666667
EXTRACT: note_on channel=5 note=67 velocity=0 time=0
EXTRACT: note_on channel=0 note=65 velocity=96 time=0.0013888895833333334
EXTRACT: note_on channel=5 note=65 velocity=90 time=0
EXTRACT: note_on channel=5 note=70 velocity=90 time=0
EXTRACT: note_on channel=1 note=77 velocity=0 time=0.13194451041666666
EXTRACT: note_on channel=0 note=65 velocity=0 time=0.03333335
EXTRACT: note_on channel=2 note=65 velocity=0 time=0
EXTRACT: note_on channel=2 note=70 velocity=0 time=0
EXTRACT: note_on channel=5 note=65 velocity=0 time=0
EXTRACT: note_on channel=5 note=70 velocity=0 time=0
EXTRACT: note_on channel=0 note=65 velocity=96 time=0.0013888895833333334
EXTRACT: note_on channel=1 note=77 velocity=80 time=0
EXTRACT: note_on channel=2 note=65 velocity=60 time=0
EXTRACT: note_on channel=5 note=65 velocity=90 time=0
EXTRACT: note_on channel=0 note=65 velocity=0 time=0.16527786041666667
EXTRACT: note_on channel=2 note=65 velocity=0 time=0
EXTRACT: note_on channel=0 note=67 velocity=96 time=0.0013888895833333334
EXTRACT: note_on channel=2 note=67 velocity=60 time=0
EXTRACT: note_on channel=1 note=77 velocity=0 time=0.14861118541666668
EXTRACT: note_on channel=0 note=67 velocity=0 time=0.016666675
EXTRACT: note_on channel=2 note=67 velocity=0 time=0
EXTRACT: note_on channel=5 note=46 velocity=0 time=0
EXTRACT: note_on channel=0 note=70 velocity=96 time=0.0013888895833333334
EXTRACT: note_on channel=1 note=81 velocity=80 time=0
EXTRACT: note_on channel=2 note=65 velocity=60 time=0
EXTRACT: note_on channel=5 note=53 velocity=90 time=0
EXTRACT: note_on channel=0 note=70 velocity=0 time=0.16527786041666667
EXTRACT: note_on channel=2 note=65 velocity=0 time=0
EXTRACT: note_on channel=0 note=70 velocity=96 time=0.0013888895833333334
EXTRACT: note_on channel=2 note=65 velocity=60 time=0
EXTRACT: note_on channel=1 note=81 velocity=0 time=0.14861118541666668
EXTRACT: note_on channel=0 note=70 velocity=0 time=0.016666675
EXTRACT: note_on channel=2 note=65 velocity=0 time=0
EXTRACT: note_on channel=5 note=53 velocity=0 time=0
EXTRACT: note_on channel=0 note=72 velocity=96 time=0.0013888895833333334
EXTRACT: note_on channel=1 note=77 velocity=80 time=0
EXTRACT: note_on channel=2 note=65 velocity=60 time=0
EXTRACT: note_on channel=5 note=58 velocity=90 time=0
EXTRACT: note_on channel=2 note=65 velocity=0 time=0.16527786041666667
EXTRACT: note_on channel=2 note=65 velocity=60 time=0.0013888895833333334
EXTRACT: note_on channel=1 note=77 velocity=0 time=0.14861118541666668
EXTRACT: note_on channel=0 note=72 velocity=0 time=0.016666675
EXTRACT: note_on channel=2 note=65 velocity=0 time=0
EXTRACT: note_on channel=5 note=58 velocity=0 time=0
EXTRACT: note_on channel=0 note=70 velocity=96 time=0.0013888895833333334
EXTRACT: note_on channel=1 note=82 velocity=80 time=0
EXTRACT: note_on channel=2 note=65 velocity=60 time=0
EXTRACT: note_on channel=5 note=53 velocity=90 time=0
EXTRACT: note_on channel=2 note=65 velocity=0 time=0.16527786041666667
EXTRACT: note_on channel=2 note=65 velocity=60 time=0.0013888895833333334
EXTRACT: note_on channel=1 note=82 velocity=0 time=0.14861118541666668
EXTRACT: note_on channel=0 note=70 velocity=0 time=0.016666675
EXTRACT: note_on channel=2 note=65 velocity=0 time=0
EXTRACT: note_on channel=5 note=65 velocity=0 time=0
EXTRACT: note_on channel=5 note=53 velocity=0 time=0
EXTRACT: note_on channel=1 note=77 velocity=80 time=0.0013888895833333334
EXTRACT: note_on channel=2 note=69 velocity=60 time=0
EXTRACT: note_on channel=5 note=65 velocity=90 time=0
EXTRACT: note_on channel=5 note=69 velocity=90 time=0
EXTRACT: note_on channel=5 note=72 velocity=90 time=0
EXTRACT: note_on channel=5 note=41 velocity=90 time=0
EXTRACT: note_on channel=1 note=77 velocity=0 time=0.15694452291666666
EXTRACT: note_on channel=2 note=69 velocity=0 time=0.0083333375
EXTRACT: note_on channel=1 note=77 velocity=80 time=0.0013888895833333334
EXTRACT: note_on channel=2 note=65 velocity=60 time=0
EXTRACT: note_on channel=1 note=77 velocity=0 time=0.15694452291666666
EXTRACT: note_on channel=2 note=65 velocity=0 time=0.0083333375
EXTRACT: note_on channel=0 note=65 velocity=96 time=0.0013888895833333334
EXTRACT: note_on channel=1 note=79 velocity=80 time=0
EXTRACT: note_on channel=2 note=67 velocity=60 time=0
EXTRACT: note_on channel=0 note=65 velocity=0 time=0.16527786041666667
EXTRACT: note_on channel=2 note=67 velocity=0 time=0
EXTRACT: note_on channel=5 note=41 velocity=0 time=0
EXTRACT: note_on channel=0 note=65 velocity=96 time=0.0013888895833333334
EXTRACT: note_on channel=2 note=63 velocity=60 time=0
EXTRACT: note_on channel=5 note=48 velocity=90 time=0
EXTRACT: note_on channel=1 note=79 velocity=0 time=0.14861118541666668
EXTRACT: note_on channel=0 note=65 velocity=0 time=0.016666675
EXTRACT: note_on channel=2 note=63 velocity=0 time=0
EXTRACT: note_on channel=5 note=65 velocity=0 time=0
EXTRACT: note_on channel=5 note=69 velocity=0 time=0
EXTRACT: note_on channel=5 note=72 velocity=0 time=0
EXTRACT: note_on channel=5 note=48 velocity=0 time=0
EXTRACT: note_on channel=0 note=65 velocity=96 time=0.0013888895833333334
EXTRACT: note_on channel=1 note=82 velocity=80 time=0
EXTRACT: note_on channel=2 note=65 velocity=60 time=0
EXTRACT: note_on channel=5 note=65 velocity=90 time=0
EXTRACT: note_on channel=5 note=70 velocity=90 time=0
EXTRACT: note_on channel=5 note=53 velocity=90 time=0
EXTRACT: note_on channel=0 note=65 velocity=0 time=0.16527786041666667
EXTRACT: note_on channel=2 note=65 velocity=0 time=0
EXTRACT: note_on channel=0 note=67 velocity=96 time=0.0013888895833333334
EXTRACT: note_on channel=2 note=67 velocity=60 time=0
EXTRACT: note_on channel=1 note=82 velocity=0 time=0.14861118541666668
EXTRACT: note_on channel=0 note=67 velocity=0 time=0.016666675
EXTRACT: note_on channel=2 note=67 velocity=0 time=0
EXTRACT: note_on channel=5 note=53 velocity=0 time=0
EXTRACT: note_on channel=0 note=70 velocity=96 time=0.0013888895833333334
EXTRACT: note_on channel=1 note=79 velocity=80 time=0
EXTRACT: note_on channel=2 note=65 velocity=60 time=0
EXTRACT: note_on channel=5 note=41 velocity=90 time=0
EXTRACT: note_on channel=0 note=70 velocity=0 time=0.16527786041666667
EXTRACT: note_on channel=0 note=65 velocity=96 time=0.0013888895833333334
EXTRACT: note_on channel=1 note=79 velocity=0 time=0.14861118541666668
EXTRACT: note_on channel=0 note=65 velocity=0 time=0.016666675
EXTRACT: note_on channel=2 note=65 velocity=0 time=0
EXTRACT: note_on channel=0 note=65 velocity=96 time=0.0013888895833333334
EXTRACT: note_on channel=1 note=72 velocity=80 time=0
EXTRACT: note_on channel=2 note=70 velocity=60 time=0
EXTRACT: note_on channel=0 note=65 velocity=0 time=0.16527786041666667
EXTRACT: note_on channel=0 note=67 velocity=96 time=0.0013888895833333334
EXTRACT: note_on channel=1 note=72 velocity=0 time=0.14861118541666668
EXTRACT: note_on channel=0 note=67 velocity=0 time=0.016666675
EXTRACT: note_on channel=5 note=65 velocity=0 time=0
EXTRACT: note_on channel=5 note=70 velocity=0 time=0
EXTRACT: note_on channel=5 note=41 velocity=0 time=0
EXTRACT: note_on channel=0 note=70 velocity=96 time=0.0013888895833333334
EXTRACT: note_on channel=1 note=77 velocity=80 time=0
EXTRACT: note_on channel=5 note=65 velocity=90 time=0
EXTRACT: note_on channel=5 note=70 velocity=90 time=0
EXTRACT: note_on channel=5 note=53 velocity=90 time=0
EXTRACT: note_on channel=2 note=70 velocity=0 time=0.16527786041666667
EXTRACT: note_on channel=2 note=77 velocity=60 time=0.0013888895833333334
EXTRACT: note_on channel=1 note=77 velocity=0 time=0.14861118541666668
EXTRACT: note_on channel=0 note=70 velocity=0 time=0.016666675
EXTRACT: note_on channel=2 note=77 velocity=0 time=0
EXTRACT: note_on channel=5 note=65 velocity=0 time=0
EXTRACT: note_on channel=5 note=70 velocity=0 time=0
EXTRACT: note_on channel=5 note=53 velocity=0 time=0
EXTRACT: note_on channel=0 note=72 velocity=96 time=0.0013888895833333334
EXTRACT: note_on channel=1 note=74 velocity=80 time=0
EXTRACT: note_on channel=2 note=72 velocity=60 time=0
EXTRACT: note_on channel=5 note=72 velocity=90 time=0
EXTRACT: note_on channel=5 note=75 velocity=90 time=0
EXTRACT: note_on channel=5 note=60 velocity=90 time=0
EXTRACT: note_on channel=1 note=74 velocity=0 time=0.31527793541666665
EXTRACT: note_on channel=0 note=72 velocity=0 time=0.016666675
EXTRACT: note_on channel=5 note=72 velocity=0 time=0
EXTRACT: note_on channel=5 note=75 velocity=0 time=0
EXTRACT: note_on channel=5 note=60 velocity=0 time=0
EXTRACT: note_on channel=0 note=74 velocity=96 time=0.0013888895833333334
EXTRACT: note_on channel=1 note=77 velocity=80 time=0
EXTRACT: note_on channel=5 note=74 velocity=90 time=0
EXTRACT: note_on channel=5 note=77 velocity=90 time=0
EXTRACT: note_on channel=5 note=53 velocity=90 time=0
EXTRACT: note_on channel=1 note=77 velocity=0 time=0.31527793541666665
EXTRACT: note_on channel=0 note=74 velocity=0 time=0.016666675
EXTRACT: note_on channel=2 note=72 velocity=0 time=0
EXTRACT: note_on channel=5 note=74 velocity=0 time=0
EXTRACT: note_on channel=5 note=77 velocity=0 time=0
EXTRACT: note_on channel=5 note=53 velocity=0 time=0
EXTRACT: note_on channel=1 note=70 velocity=90 time=0.0013888895833333334
EXTRACT: note_on channel=2 note=62 velocity=90 time=0
EXTRACT: note_on channel=2 note=70 velocity=90 time=0
EXTRACT: note_on channel=5 note=62 velocity=80 time=0
EXTRACT: note_on channel=5 note=70 velocity=80 time=0
EXTRACT: note_on channel=5 note=46 velocity=80 time=0
EXTRACT: note_on channel=1 note=70 velocity=0 time=0.15694452291666666
EXTRACT: note_on channel=1 note=74 velocity=90 time=0.009722227083333333
EXTRACT: note_on channel=1 note=74 velocity=0 time=0.15694452291666666
EXTRACT: note_on channel=0 note=74 velocity=96 time=0.009722227083333333
EXTRACT: note_on channel=1 note=77 velocity=90 time=0
EXTRACT: note_on channel=5 note=46 velocity=0 time=0.16527786041666667
EXTRACT: note_on channel=5 note=53 velocity=80 time=0.0013888895833333334
EXTRACT: note_on channel=1 note=77 velocity=0 time=0.14861118541666668
EXTRACT: note_on channel=5 note=62 velocity=0 time=0.016666675
EXTRACT: note_on channel=5 note=70 velocity=0 time=0
EXTRACT: note_on channel=5 note=53 velocity=0 time=0
EXTRACT: note_on channel=1 note=70 velocity=90 time=0.0013888895833333334
EXTRACT: note_on channel=5 note=65 velocity=80 time=0
EXTRACT: note_on channel=5 note=70 velocity=80 time=0
EXTRACT: note_on channel=5 note=58 velocity=80 time=0
EXTRACT: note_on channel=1 note=70 velocity=0 time=0.15694452291666666
EXTRACT: note_on channel=0 note=74 velocity=0 time=0.0083333375
EXTRACT: note_on channel=0 note=72 velocity=96 time=0.0013888895833333334
EXTRACT: note_on channel=1 note=74 velocity=90 time=0
EXTRACT: note_on channel=1 note=74 velocity=0 time=0.15694452291666666
EXTRACT: note_on channel=2 note=62 velocity=0 time=0.0083333375
EXTRACT: note_on channel=2 note=70 velocity=0 time=0
EXTRACT: note_on channel=5 note=58 velocity=0 time=0
EXTRACT: note_on channel=1 note=77 velocity=90 time=0.0013888895833333334
EXTRACT: note_on channel=2 note=62 velocity=90 time=0
EXTRACT: note_on channel=2 note=74 velocity=90 time=0
EXTRACT: note_on channel=5 note=46 velocity=80 time=0
EXTRACT: note_on channel=0 note=72 velocity=0 time=0.16527786041666667
EXTRACT: note_on channel=0 note=74 velocity=96 time=0.0013888895833333334
EXTRACT: note_on channel=1 note=77 velocity=0 time=0.14861118541666668
EXTRACT: note_on channel=0 note=74 velocity=0 time=0.016666675
EXTRACT: note_on channel=2 note=62 velocity=0 time=0
EXTRACT: note_on channel=2 note=74 velocity=0 time=0
EXTRACT: note_on channel=5 note=65 velocity=0 time=0
EXTRACT: note_on channel=5 note=70 velocity=0 time=0
EXTRACT: note_on channel=0 note=75 velocity=96 time=0.0013888895833333334
EXTRACT: note_on channel=1 note=75 velocity=90 time=0
EXTRACT: note_on channel=2 note=63 velocity=90 time=0
EXTRACT: note_on channel=2 note=75 velocity=90 time=0
EXTRACT: note_on channel=5 note=75 velocity=80 time=0
EXTRACT: note_on channel=1 note=75 velocity=0 time=0.31527793541666665
EXTRACT: note_on channel=0 note=75 velocity=0 time=0.016666675
EXTRACT: note_on channel=2 note=63 velocity=0 time=0
EXTRACT: note_on channel=2 note=75 velocity=0 time=0
EXTRACT: note_on channel=5 note=46 velocity=0 time=0
EXTRACT: note_on channel=0 note=74 velocity=96 time=0.0013888895833333334
EXTRACT: note_on channel=1 note=72 velocity=90 time=0
EXTRACT: note_on channel=2 note=62 velocity=90 time=0
EXTRACT: note_on channel=2 note=74 velocity=90 time=0
EXTRACT: note_on channel=5 note=53 velocity=80 time=0
EXTRACT: note_on channel=5 note=75 velocity=0 time=0.16527786041666667
EXTRACT: note_on channel=5 note=74 velocity=80 time=0.0013888895833333334
EXTRACT: note_on channel=1 note=72 velocity=0 time=0.14861118541666668
EXTRACT: note_on channel=0 note=74 velocity=0 time=0.016666675
EXTRACT: note_on channel=2 note=62 velocity=0 time=0
EXTRACT: note_on channel=2 note=74 velocity=0 time=0
EXTRACT: note_on channel=5 note=74 velocity=0 time=0
EXTRACT: note_on channel=5 note=53 velocity=0 time=0
EXTRACT: note_on channel=0 note=72 velocity=96 time=0.0013888895833333334
EXTRACT: note_on channel=1 note=74 velocity=90 time=0
EXTRACT: note_on channel=2 note=60 velocity=90 time=0
EXTRACT: note_on channel=2 note=72 velocity=90 time=0
EXTRACT: note_on channel=5 note=72 velocity=80 time=0
EXTRACT: note_on channel=5 note=58 velocity=80 time=0
EXTRACT: note_on channel=1 note=74 velocity=0 time=0.31527793541666665
EXTRACT: note_on channel=0 note=72 velocity=0 time=0.016666675
EXTRACT: note_on channel=2 note=60 velocity=0 time=0
EXTRACT: note_on channel=2 note=72 velocity=0 time=0
EXTRACT: note_on channel=5 note=58 velocity=0 time=0
EXTRACT: note_on channel=0 note=70 velocity=96 time=0.0013888895833333334
EXTRACT: note_on channel=1 note=70 velocity=90 time=0
EXTRACT: note_on channel=2 note=58 velocity=90 time=0
EXTRACT: note_on channel=2 note=70 velocity=90 time=0
EXTRACT: note_on channel=5 note=53 velocity=80 time=0
EXTRACT: note_on channel=5 note=72 velocity=0 time=0.16527786041666667
EXTRACT: note_on channel=5 note=70 velocity=80 time=0.0013888895833333334
EXTRACT: note_on channel=1 note=70 velocity=0 time=0.14861118541666668
EXTRACT: note_on channel=2 note=58 velocity=0 time=0.016666675
EXTRACT: note_on channel=2 note=70 velocity=0 time=0
EXTRACT: note_on channel=5 note=70 velocity=0 time=0
EXTRACT: note_on channel=5 note=53 velocity=0 time=0
EXTRACT: note_on channel=1 note=77 velocity=90 time=0.0013888895833333334
EXTRACT: note_on channel=2 note=58 velocity=90 time=0
EXTRACT: note_on channel=2 note=70 velocity=90 time=0
EXTRACT: note_on channel=5 note=65 velocity=80 time=0
EXTRACT: note_on channel=5 note=70 velocity=80 time=0
EXTRACT: note_on channel=5 note=39 velocity=80 time=0
EXTRACT: note_on channel=1 note=77 velocity=0 time=0.15694452291666666
EXTRACT: note_on channel=1 note=75 velocity=90 time=0.009722227083333333
EXTRACT: note_on channel=1 note=75 velocity=0 time=0.15694452291666666
EXTRACT: note_on channel=0 note=70 velocity=0 time=0.0083333375
EXTRACT: note_on channel=2 note=58 velocity=0 time=0
EXTRACT: note_on channel=2 note=70 velocity=0 time=0
EXTRACT: note_on channel=5 note=65 velocity=0 time=0
EXTRACT: note_on channel=5 note=70 velocity=0 time=0
EXTRACT: note_on channel=0 note=70 velocity=96 time=0.0013888895833333334
EXTRACT: note_on channel=1 note=74 velocity=90 time=0
EXTRACT: note_on channel=2 note=63 velocity=90 time=0
EXTRACT: note_on channel=2 note=75 velocity=90 time=0
EXTRACT: note_on channel=5 note=70 velocity=80 time=0
EXTRACT: note_on channel=5 note=77 velocity=80 time=0
EXTRACT: note_on channel=1 note=74 velocity=0 time=0.15694452291666666
EXTRACT: note_on channel=5 note=39 velocity=0 time=0.0083333375
EXTRACT: note_on channel=1 note=72 velocity=90 time=0.0013888895833333334
EXTRACT: note_on channel=5 note=46 velocity=80 time=0
EXTRACT: note_on channel=1 note=72 velocity=0 time=0.15694452291666666
EXTRACT: note_on channel=2 note=63 velocity=0 time=0.0083333375
EXTRACT: note_on channel=2 note=75 velocity=0 time=0
EXTRACT: note_on channel=5 note=70 velocity=0 time=0
EXTRACT: note_on channel=5 note=77 velocity=0 time=0
EXTRACT: note_on channel=5 note=46 velocity=0 time=0
EXTRACT: note_on channel=1 note=70 velocity=90 time=0.0013888895833333334
EXTRACT: note_on channel=2 note=67 velocity=90 time=0
EXTRACT: note_on channel=2 note=79 velocity=90 time=0
EXTRACT: note_on channel=5 note=63 velocity=80 time=0
EXTRACT: note_on channel=5 note=70 velocity=80 time=0
EXTRACT: note_on channel=5 note=75 velocity=80 time=0
EXTRACT: note_on channel=5 note=51 velocity=80 time=0
EXTRACT: note_on channel=1 note=70 velocity=0 time=0.15694452291666666
EXTRACT: note_on channel=1 note=72 velocity=90 time=0.009722227083333333
EXTRACT: note_on channel=1 note=72 velocity=0 time=0.15694452291666666
EXTRACT: note_on channel=0 note=70 velocity=0 time=0.0083333375
EXTRACT: note_on channel=2 note=67 velocity=0 time=0
EXTRACT: note_on channel=2 note=79 velocity=0 time=0
EXTRACT: note_on channel=5 note=51 velocity=0 time=0
EXTRACT: note_on channel=0 note=72 velocity=96 time=0.0013888895833333334
EXTRACT: note_on channel=1 note=74 velocity=90 time=0
EXTRACT: note_on channel=2 note=70 velocity=90 time=0
EXTRACT: note_on channel=2 note=82 velocity=90 time=0
EXTRACT: note_on channel=5 note=39 velocity=80 time=0
EXTRACT: note_on channel=1 note=74 velocity=0 time=0.15694452291666666
EXTRACT: note_on channel=0 note=72 velocity=0 time=0.0083333375
EXTRACT: note_on channel=0 note=74 velocity=96 time=0.0013888895833333334
EXTRACT: note_on channel=1 note=75 velocity=90 time=0
EXTRACT: note_on channel=1 note=75 velocity=0 time=0.15694452291666666
EXTRACT: note_on channel=0 note=74 velocity=0 time=0.0083333375
EXTRACT: note_on channel=2 note=70 velocity=0 time=0
EXTRACT: note_on channel=2 note=82 velocity=0 time=0
EXTRACT: note_on channel=5 note=63 velocity=0 time=0
EXTRACT: note_on channel=5 note=70 velocity=0 time=0
EXTRACT: note_on channel=5 note=75 velocity=0 time=0
EXTRACT: note_on channel=5 note=39 velocity=0 time=0
EXTRACT: note_on channel=1 note=75 velocity=90 time=0.0013888895833333334
EXTRACT: note_on channel=2 note=63 velocity=90 time=0
EXTRACT: note_on channel=2 note=75 velocity=90 time=0
EXTRACT: note_on channel=5 note=63 velocity=80 time=0
EXTRACT: note_on channel=5 note=51 velocity=80 time=0
EXTRACT: note_on channel=5 note=70 velocity=80 time=0.08750004375
EXTRACT: note_on channel=5 note=74 velocity=80 time=0.08888893333333334
EXTRACT: note_on channel=2 note=63 velocity=0 time=0.15555563333333333
EXTRACT: note_on channel=2 note=75 velocity=0 time=0
EXTRACT: note_on channel=5 note=51 velocity=0 time=0
EXTRACT: note_on channel=2 note=62 velocity=90 time=0.0013888895833333334
EXTRACT: note_on channel=2 note=74 velocity=90 time=0
EXTRACT: note_on channel=5 note=39 velocity=80 time=0
EXTRACT: note_on channel=2 note=62 velocity=0 time=0.3319446104166667
EXTRACT: note_on channel=2 note=74 velocity=0 time=0
EXTRACT: note_on channel=5 note=39 velocity=0 time=0
EXTRACT: note_on channel=2 note=62 velocity=90 time=0.0013888895833333334
EXTRACT: note_on channel=2 note=74 velocity=90 time=0
EXTRACT: note_on channel=5 note=51 velocity=80 time=0
EXTRACT: note_on channel=5 note=55 velocity=80 time=0
EXTRACT: note_on channel=1 note=75 velocity=0 time=0.28194458541666667
EXTRACT: note_on channel=2 note=62 velocity=0 time=0.050000025000000003
EXTRACT: note_on channel=2 note=74 velocity=0 time=0
EXTRACT: note_on channel=1 note=70 velocity=90 time=0.0013888895833333334
EXTRACT: note_on channel=2 note=58 velocity=90 time=0
EXTRACT: note_on channel=2 note=70 velocity=90 time=0
EXTRACT: note_on channel=1 note=70 velocity=0 time=0.31527793541666665
EXTRACT: note_on channel=5 note=70 velocity=0 time=0.015277785416666667
EXTRACT: note_on channel=5 note=74 velocity=0 time=0
EXTRACT: note_on channel=2 note=58 velocity=0 time=0.0013888895833333334
EXTRACT: note_on channel=2 note=70 velocity=0 time=0
EXTRACT: note_on channel=5 note=63 velocity=0 time=0
EXTRACT: note_on channel=5 note=51 velocity=0 time=0
EXTRACT: note_on channel=5 note=55 velocity=0 time=0
EXTRACT: note_on channel=1 note=77 velocity=80 time=0.0013888895833333334
EXTRACT: note_on channel=2 note=65 velocity=90 time=0
EXTRACT: note_on channel=2 note=77 velocity=90 time=0
EXTRACT: note_on channel=5 note=70 velocity=90 time=0
EXTRACT: note_on channel=5 note=77 velocity=90 time=0
EXTRACT: note_on channel=5 note=46 velocity=90 time=0
EXTRACT: note_on channel=5 note=53 velocity=90 time=0
EXTRACT: note_on channel=2 note=65 velocity=0 time=0.16527786041666667
EXTRACT: note_on channel=2 note=77 velocity=0 time=0
EXTRACT: note_on channel=2 note=65 velocity=90 time=0.0013888895833333334
EXTRACT: note_on channel=2 note=77 velocity=90 time=0
EXTRACT: note_on channel=1 note=77 velocity=0 time=0.14861118541666668
EXTRACT: note_on channel=5 note=70 velocity=0 time=0.016666675
EXTRACT: note_on channel=5 note=77 velocity=0 time=0
EXTRACT: note_on channel=0 note=77 velocity=112 time=0.0013888895833333334
EXTRACT: note_on channel=5 note=70 velocity=90 time=0
EXTRACT: note_on channel=5 note=77 velocity=90 time=0
EXTRACT: note_on channel=2 note=65 velocity=0 time=0.16527786041666667
EXTRACT: note_on channel=2 note=77 velocity=0 time=0
EXTRACT: note_on channel=2 note=65 velocity=90 time=0.0013888895833333334
EXTRACT: note_on channel=2 note=77 velocity=90 time=0
EXTRACT: note_on channel=0 note=77 velocity=0 time=0.16527786041666667
EXTRACT: note_on channel=2 note=65 velocity=0 time=0
EXTRACT: note_on channel=2 note=77 velocity=0 time=0
EXTRACT: note_on channel=5 note=70 velocity=0 time=0
EXTRACT: note_on channel=5 note=77 velocity=0 time=0
EXTRACT: note_on channel=0 note=77 velocity=112 time=0.0013888895833333334
EXTRACT: note_on channel=1 note=77 velocity=80 time=0
EXTRACT: note_on channel=2 note=65 velocity=90 time=0
EXTRACT: note_on channel=2 note=77 velocity=90 time=0
EXTRACT: note_on channel=5 note=70 velocity=90 time=0
EXTRACT: note_on channel=5 note=77 velocity=90 time=0
EXTRACT: note_on channel=1 note=77 velocity=0 time=0.15694452291666666
EXTRACT: note_on channel=2 note=65 velocity=0 time=0.0083333375
EXTRACT: note_on channel=2 note=77 velocity=0 time=0
EXTRACT: note_on channel=1 note=75 velocity=80 time=0.0013888895833333334
EXTRACT: note_on channel=2 note=70 velocity=90 time=0
EXTRACT: note_on channel=1 note=75 velocity=0 time=0.15694452291666666
EXTRACT: note_on channel=2 note=70 velocity=0 time=0.0083333375
EXTRACT: note_on channel=5 note=70 velocity=0 time=0
EXTRACT: note_on channel=5 note=77 velocity=0 time=0
EXTRACT: note_on channel=1 note=77 velocity=80 time=0.0013888895833333334
EXTRACT: note_on channel=2 note=77 velocity=90 time=0
EXTRACT: note_on channel=5 note=70 velocity=90 time=0
EXTRACT: note_on channel=5 note=74 velocity=90 time=0
EXTRACT: note_on channel=0 note=77 velocity=0 time=0.16527786041666667
EXTRACT: note_on channel=2 note=77 velocity=0 time=0
EXTRACT: note_on channel=0 note=74 velocity=112 time=0.0013888895833333334
EXTRACT: note_on channel=2 note=74 velocity=90 time=0
EXTRACT: note_on channel=1 note=77 velocity=0 time=0.14861118541666668
EXTRACT: note_on channel=0 note=74 velocity=0 time=0.016666675
EXTRACT: note_on channel=2 note=74 velocity=0 time=0
EXTRACT: note_on channel=5 note=70 velocity=0 time=0
EXTRACT: note_on channel=5 note=74 velocity=0 time=0
EXTRACT: note_on channel=0 note=74 velocity=112 time=0.0013888895833333334
EXTRACT: note_on channel=1 note=74 velocity=80 time=0
EXTRACT: note_on channel=2 note=74 velocity=90 time=0
EXTRACT: note_on channel=5 note=70 velocity=90 time=0
EXTRACT: note_on channel=5 note=74 velocity=90 time=0
EXTRACT: note_on channel=5 note=70 velocity=0 time=0.16527786041666667
EXTRACT: note_on channel=5 note=74 velocity=0 time=0
EXTRACT: note_on channel=5 note=70 velocity=90 time=0.0013888895833333334
EXTRACT: note_on channel=5 note=74 velocity=90 time=0
EXTRACT: note_on channel=1 note=74 velocity=0 time=0.14861118541666668
EXTRACT: note_on channel=0 note=74 velocity=0 time=0.016666675
EXTRACT: note_on channel=2 note=74 velocity=0 time=0
EXTRACT: note_on channel=5 note=70 velocity=0 time=0
EXTRACT: note_on channel=5 note=74 velocity=0 time=0
EXTRACT: note_on channel=0 note=72 velocity=112 time=0.0013888895833333334
EXTRACT: note_on channel=2 note=72 velocity=90 time=0
EXTRACT: note_on channel=5 note=72 velocity=90 time=0
EXTRACT: note_on channel=2 note=72 velocity=0 time=0.16527786041666667
EXTRACT: note_on channel=5 note=72 velocity=0 time=0
EXTRACT: note_on channel=2 note=72 velocity=90 time=0.0013888895833333334
EXTRACT: note_on channel=5 note=72 velocity=90 time=0
EXTRACT: note_on channel=0 note=72 velocity=0 time=0.16527786041666667
EXTRACT: note_on channel=2 note=72 velocity=0 time=0
EXTRACT: note_on channel=5 note=72 velocity=0 time=0
EXTRACT: note_on channel=5 note=46 velocity=0 time=0
EXTRACT: note_on channel=5 note=53 velocity=0 time=0
EXTRACT: note_on channel=0 note=70 velocity=112 time=0.0013888895833333334
EXTRACT: note_on channel=1 note=72 velocity=80 time=0
EXTRACT: note_on channel=2 note=70 velocity=90 time=0
EXTRACT: note_on channel=2 note=77 velocity=90 time=0
EXTRACT: note_on channel=5 note=65 velocity=90 time=0
EXTRACT: note_on channel=5 note=70 velocity=90 time=0
EXTRACT: note_on channel=5 note=46 velocity=90 time=0
EXTRACT: note_on channel=5 note=53 velocity=90 time=0
EXTRACT: note_on channel=1 note=72 velocity=0 time=0.15694452291666666
EXTRACT: note_on channel=1 note=70 velocity=80 time=0.009722227083333333
EXTRACT: note_on channel=1 note=70 velocity=0 time=0.15694452291666666
EXTRACT: note_on channel=1 note=70 velocity=80 time=0.009722227083333333
EXTRACT: note_on channel=1 note=70 velocity=0 time=0.31527793541666665
EXTRACT: note_on channel=0 note=70 velocity=0 time=0.016666675
EXTRACT: note_on channel=2 note=70 velocity=0 time=0
EXTRACT: note_on channel=2 note=77 velocity=0 time=0
EXTRACT: note_on channel=5 note=65 velocity=0 time=0
EXTRACT: note_on channel=5 note=70 velocity=0 time=0
EXTRACT: note_on channel=5 note=46 velocity=0 time=0
EXTRACT: note_on channel=5 note=53 velocity=0 time=0
EXTRACT: note_on channel=1 note=77 velocity=80 time=0.0013888895833333334
EXTRACT: note_on channel=2 note=65 velocity=90 time=0
EXTRACT: note_on channel=2 note=77 velocity=90 time=0
EXTRACT: note_on channel=5 note=65 velocity=60 time=0
EXTRACT: note_on channel=5 note=70 velocity=60 time=0
EXTRACT: note_on channel=5 note=41 velocity=60 time=0
EXTRACT: note_on channel=5 note=48 velocity=60 time=0
EXTRACT: note_on channel=2 note=65 velocity=0 time=0.16527786041666667
EXTRACT: note_on channel=2 note=77 velocity=0 time=0
EXTRACT: note_on channel=0 note=72 velocity=112 time=0.0013888895833333334
EXTRACT: note_on channel=2 note=65 velocity=90 time=0
EXTRACT: note_on channel=2 note=77 velocity=90 time=0
EXTRACT: note_on channel=1 note=77 velocity=0 time=0.14861118541666668
EXTRACT: note_on channel=0 note=72 velocity=0 time=0.016666675
EXTRACT: note_on channel=5 note=65 velocity=0 time=0
EXTRACT: note_on channel=5 note=70 velocity=0 time=0
EXTRACT: note_on channel=0 note=77 velocity=112 time=0.0013888895833333334
EXTRACT: note_on channel=5 note=65 velocity=60 time=0
EXTRACT: note_on channel=5 note=70 velocity=60 time=0
EXTRACT: note_on channel=2 note=65 velocity=0 time=0.16527786041666667
EXTRACT: note_on channel=2 note=77 velocity=0 time=0
EXTRACT: note_on channel=2 note=65 velocity=90 time=0.0013888895833333334
EXTRACT: note_on channel=2 note=77 velocity=90 time=0
EXTRACT: note_on channel=0 note=77 velocity=0 time=0.16527786041666667
EXTRACT: note_on channel=2 note=65 velocity=0 time=0
EXTRACT: note_on channel=2 note=77 velocity=0 time=0
EXTRACT: note_on channel=5 note=65 velocity=0 time=0
EXTRACT: note_on channel=5 note=70 velocity=0 time=0
EXTRACT: note_on channel=0 note=77 velocity=112 time=0.0013888895833333334
EXTRACT: note_on channel=1 note=77 velocity=80 time=0
EXTRACT: note_on channel=2 note=75 velocity=90 time=0
EXTRACT: note_on channel=5 note=63 velocity=60 time=0
EXTRACT: note_on channel=5 note=69 velocity=60 time=0
EXTRACT: note_on channel=1 note=77 velocity=0 time=0.15694452291666666
EXTRACT: note_on channel=2 note=75 velocity=0 time=0.0083333375
EXTRACT: note_on channel=1 note=75 velocity=80 time=0.0013888895833333334
EXTRACT: note_on channel=2 note=75 velocity=90 time=0
EXTRACT: note_on channel=1 note=75 velocity=0 time=0.15694452291666666
EXTRACT: note_on channel=2 note=75 velocity=0 time=0.0083333375
EXTRACT: note_on channel=5 note=63 velocity=0 time=0
EXTRACT: note_on channel=5 note=69 velocity=0 time=0
EXTRACT: note_on channel=1 note=77 velocity=80 time=0.0013888895833333334
EXTRACT: note_on channel=2 note=77 velocity=90 time=0
EXTRACT: note_on channel=5 note=65 velocity=60 time=0
EXTRACT: note_on channel=5 note=70 velocity=60 time=0
EXTRACT: note_on channel=0 note=77 velocity=0 time=0.16527786041666667
EXTRACT: note_on channel=2 note=77 velocity=0 time=0
EXTRACT: note_on channel=5 note=65 velocity=0 time=0
EXTRACT: note_on channel=5 note=70 velocity=0 time=0
EXTRACT: note_on channel=0 note=74 velocity=112 time=0.0013888895833333334
EXTRACT: note_on channel=2 note=62 velocity=90 time=0
EXTRACT: note_on channel=2 note=74 velocity=90 time=0
EXTRACT: note_on channel=5 note=67 velocity=60 time=0
EXTRACT: note_on channel=5 note=74 velocity=60 time=0
EXTRACT: note_on channel=1 note=77 velocity=0 time=0.14861118541666668
EXTRACT: note_on channel=2 note=62 velocity=0 time=0.016666675
EXTRACT: note_on channel=2 note=74 velocity=0 time=0
EXTRACT: note_on channel=5 note=67 velocity=0 time=0
EXTRACT: note_on channel=5 note=74 velocity=0 time=0
EXTRACT: note_on channel=1 note=74 velocity=80 time=0.0013888895833333334
EXTRACT: note_on channel=2 note=74 velocity=90 time=0
EXTRACT: note_on channel=5 note=67 velocity=60 time=0
EXTRACT: note_on channel=5 note=74 velocity=60 time=0
EXTRACT: note_on channel=5 note=67 velocity=0 time=0.16527786041666667
EXTRACT: note_on channel=5 note=74 velocity=0 time=0
EXTRACT: note_on channel=5 note=67 velocity=60 time=0.0013888895833333334
EXTRACT: note_on channel=5 note=74 velocity=60 time=0
EXTRACT: note_on channel=1 note=74 velocity=0 time=0.14861118541666668
EXTRACT: note_on channel=0 note=74 velocity=0 time=0.016666675
EXTRACT: note_on channel=2 note=74 velocity=0 time=0
EXTRACT: note_on channel=5 note=67 velocity=0 time=0
EXTRACT: note_on channel=5 note=74 velocity=0 time=0
EXTRACT: note_on channel=0 note=74 velocity=112 time=0.0013888895833333334
EXTRACT: note_on channel=2 note=69 velocity=90 time=0
EXTRACT: note_on channel=5 note=74 velocity=60 time=0
EXTRACT: note_on channel=2 note=69 velocity=0 time=0.16527786041666667
EXTRACT: note_on channel=2 note=74 velocity=90 time=0.0013888895833333334
EXTRACT: note_on channel=2 note=74 velocity=0 time=0.16527786041666667
EXTRACT: note_on channel=5 note=74 velocity=0 time=0
EXTRACT: note_on channel=5 note=41 velocity=0 time=0
EXTRACT: note_on channel=5 note=48 velocity=0 time=0
EXTRACT: note_on channel=1 note=74 velocity=80 time=0.0013888895833333334
EXTRACT: note_on channel=2 note=74 velocity=90 time=0
EXTRACT: note_on channel=5 note=69 velocity=60 time=0
EXTRACT: note_on channel=5 note=74 velocity=60 time=0
EXTRACT: note_on channel=5 note=41 velocity=60 time=0
EXTRACT: note_on channel=5 note=48 velocity=60 time=0
EXTRACT: note_on channel=1 note=74 velocity=0 time=0.15694452291666666
EXTRACT: note_on channel=1 note=74 velocity=80 time=0.009722227083333333
EXTRACT: note_on channel=1 note=74 velocity=0 time=0.15694452291666666
EXTRACT: note_on channel=1 note=74 velocity=80 time=0.009722227083333333
EXTRACT: note_on channel=1 note=74 velocity=0 time=0.31527793541666665
EXTRACT: note_on channel=0 note=74 velocity=0 time=0.016666675
EXTRACT: note_on channel=2 note=74 velocity=0 time=0
EXTRACT: note_on channel=5 note=69 velocity=0 time=0
EXTRACT: note_on channel=5 note=74 velocity=0 time=0
EXTRACT: note_on channel=5 note=41 velocity=0 time=0
EXTRACT: note_on channel=5 note=48 velocity=0 time=0
EXTRACT: note_on channel=1 note=77 velocity=80 time=0.0013888895833333334
EXTRACT: note_on channel=2 note=65 velocity=90 time=0
EXTRACT: note_on channel=2 note=77 velocity=90 time=0
EXTRACT: note_on channel=5 note=65 velocity=60 time=0
EXTRACT: note_on channel=5 note=70 velocity=60 time=0
EXTRACT: note_on channel=5 note=43 velocity=60 time=0
EXTRACT: note_on channel=5 note=50 velocity=60 time=0
EXTRACT: note_on channel=1 note=77 velocity=0 time=0.1083333875
EXTRACT: note_on channel=2 note=65 velocity=0 time=0.05694447291666667
EXTRACT: note_on channel=2 note=77 velocity=0 time=0
EXTRACT: note_on channel=2 note=65 velocity=90 time=0.0013888895833333334
EXTRACT: note_on channel=2 note=77 velocity=90 time=0
EXTRACT: note_on channel=5 note=65 velocity=0 time=0.16527786041666667
EXTRACT: note_on channel=5 note=70 velocity=0 time=0
EXTRACT: note_on channel=0 note=77 velocity=112 time=0.0013888895833333334
EXTRACT: note_on channel=5 note=65 velocity=60 time=0
EXTRACT: note_on channel=5 note=70 velocity=60 time=0
EXTRACT: note_on channel=2 note=65 velocity=0 time=0.16527786041666667
EXTRACT: note_on channel=2 note=77 velocity=0 time=0
EXTRACT: note_on channel=2 note=65 velocity=90 time=0.0013888895833333334
EXTRACT: note_on channel=2 note=77 velocity=90 time=0
EXTRACT: note_on channel=0 note=77 velocity=0 time=0.16527786041666667
EXTRACT: note_on channel=2 note=65 velocity=0 time=0
EXTRACT: note_on channel=2 note=77 velocity=0 time=0
EXTRACT: note_on channel=5 note=65 velocity=0 time=0
EXTRACT: note_on channel=5 note=70 velocity=0 time=0
EXTRACT: note_on channel=0 note=77 velocity=112 time=0.0013888895833333334
EXTRACT: note_on channel=1 note=77 velocity=80 time=0
EXTRACT: note_on channel=2 note=70 velocity=90 time=0
EXTRACT: note_on channel=2 note=77 velocity=90 time=0
EXTRACT: note_on channel=5 note=65 velocity=60 time=0
EXTRACT: note_on channel=5 note=70 velocity=60 time=0
EXTRACT: note_on channel=1 note=77 velocity=0 time=0.15694452291666666
EXTRACT: note_on channel=2 note=70 velocity=0 time=0.0083333375
EXTRACT: note_on channel=2 note=77 velocity=0 time=0
EXTRACT: note_on channel=1 note=77 velocity=80 time=0.0013888895833333334
EXTRACT: note_on channel=2 note=70 velocity=90 time=0
EXTRACT: note_on channel=2 note=77 velocity=90 time=0
EXTRACT: note_on channel=1 note=77 velocity=0 time=0.15694452291666666
EXTRACT: note_on channel=2 note=70 velocity=0 time=0.0083333375
EXTRACT: note_on channel=2 note=77 velocity=0 time=0
EXTRACT: note_on channel=5 note=65 velocity=0 time=0
EXTRACT: note_on channel=5 note=70 velocity=0 time=0
EXTRACT: note_on channel=1 note=74 velocity=80 time=0.0013888895833333334
EXTRACT: note_on channel=2 note=77 velocity=90 time=0
EXTRACT: note_on channel=5 note=67 velocity=60 time=0
EXTRACT: note_on channel=5 note=72 velocity=60 time=0
EXTRACT: note_on channel=0 note=77 velocity=0 time=0.16527786041666667
EXTRACT: note_on channel=2 note=77 velocity=0 time=0
EXTRACT: note_on channel=0 note=74 velocity=112 time=0.0013888895833333334
EXTRACT: note_on channel=2 note=62 velocity=90 time=0
EXTRACT: note_on channel=2 note=74 velocity=90 time=0
EXTRACT: note_on channel=1 note=74 velocity=0 time=0.14861118541666668
EXTRACT: note_on channel=0 note=74 velocity=0 time=0.016666675
EXTRACT: note_on channel=2 note=62 velocity=0 time=0
EXTRACT: note_on channel=2 note=74 velocity=0 time=0
EXTRACT: note_on channel=5 note=67 velocity=0 time=0
EXTRACT: note_on channel=5 note=72 velocity=0 time=0
EXTRACT: note_on channel=0 note=74 velocity=112 time=0.0013888895833333334
EXTRACT: note_on channel=1 note=74 velocity=80 time=0
EXTRACT: note_on channel=2 note=74 velocity=90 time=0
EXTRACT: note_on channel=5 note=67 velocity=60 time=0
EXTRACT: note_on channel=5 note=74 velocity=60 time=0
EXTRACT: note_on channel=5 note=67 velocity=0 time=0.16527786041666667
EXTRACT: note_on channel=5 note=74 velocity=0 time=0
EXTRACT: note_on channel=5 note=67 velocity=60 time=0.0013888895833333334
EXTRACT: note_on channel=5 note=74 velocity=60 time=0
EXTRACT: note_on channel=1 note=74 velocity=0 time=0.14861118541666668
EXTRACT: note_on channel=2 note=74 velocity=0 time=0.016666675
EXTRACT: note_on channel=5 note=67 velocity=0 time=0
EXTRACT: note_on channel=5 note=74 velocity=0 time=0
EXTRACT: note_on channel=2 note=72 velocity=90 time=0.0013888895833333334
EXTRACT: note_on channel=5 note=72 velocity=60 time=0
EXTRACT: note_on channel=0 note=74 velocity=0 time=0.16527786041666667
EXTRACT: note_on channel=2 note=72 velocity=0 time=0
EXTRACT: note_on channel=5 note=72 velocity=0 time=0
EXTRACT: note_on channel=0 note=72 velocity=112 time=0.0013888895833333334
EXTRACT: note_on channel=2 note=72 velocity=90 time=0
EXTRACT: note_on channel=5 note=72 velocity=60 time=0
EXTRACT: note_on channel=0 note=72 velocity=0 time=0.16527786041666667
EXTRACT: note_on channel=2 note=72 velocity=0 time=0
EXTRACT: note_on channel=5 note=72 velocity=0 time=0
EXTRACT: note_on channel=5 note=43 velocity=0 time=0
EXTRACT: note_on channel=5 note=50 velocity=0 time=0
EXTRACT: note_on channel=0 note=70 velocity=112 time=0.0013888895833333334
EXTRACT: note_on channel=1 note=70 velocity=80 time=0
EXTRACT: note_on channel=2 note=62 velocity=90 time=0
EXTRACT: note_on channel=2 note=70 velocity=90 time=0
EXTRACT: note_on channel=5 note=62 velocity=60 time=0
EXTRACT: note_on channel=5 note=70 velocity=60 time=0
EXTRACT: note_on channel=5 note=43 velocity=60 time=0
EXTRACT: note_on channel=5 note=50 velocity=60 time=0
EXTRACT: note_on channel=1 note=70 velocity=0 time=0.15694452291666666
EXTRACT: note_on channel=2 note=62 velocity=0 time=0.0083333375
EXTRACT: note_on channel=2 note=70 velocity=0 time=0
EXTRACT: note_on channel=1 note=70 velocity=80 time=0.0013888895833333334
EXTRACT: note_on channel=2 note=62 velocity=90 time=0
EXTRACT: note_on channel=2 note=70 velocity=90 time=0
EXTRACT: note_on channel=1 note=70 velocity=0 time=0.15694452291666666
EXTRACT: note_on channel=0 note=70 velocity=0 time=0.0083333375
EXTRACT: note_on channel=2 note=62 velocity=0 time=0
EXTRACT: note_on channel=2 note=70 velocity=0 time=0
EXTRACT: note_on channel=0 note=67 velocity=112 time=0.0013888895833333334
EXTRACT: note_on channel=1 note=79 velocity=80 time=0
EXTRACT: note_on channel=2 note=67 velocity=90 time=0
EXTRACT: note_on channel=1 note=79 velocity=0 time=0.31527793541666665
EXTRACT: note_on channel=0 note=67 velocity=0 time=0.016666675
EXTRACT: note_on channel=2 note=67 velocity=0 time=0
EXTRACT: note_on channel=5 note=62 velocity=0 time=0
EXTRACT: note_on channel=5 note=70 velocity=0 time=0
EXTRACT: note_on channel=5 note=43 velocity=0 time=0
EXTRACT: note_on channel=5 note=50 velocity=0 time=0
EXTRACT: note_on channel=0 note=75 velocity=112 time=0.0013888895833333334
EXTRACT: note_on channel=1 note=77 velocity=80 time=0
EXTRACT: note_on channel=2 note=65 velocity=90 time=0
EXTRACT: note_on channel=2 note=77 velocity=90 time=0
EXTRACT: note_on channel=5 note=70 velocity=90 time=0
EXTRACT: note_on channel=5 note=77 velocity=90 time=0
EXTRACT: note_on channel=5 note=39 velocity=90 time=0
EXTRACT: note_on channel=5 note=46 velocity=90 time=0
EXTRACT: note_on channel=2 note=65 velocity=0 time=0.16527786041666667
EXTRACT: note_on channel=2 note=77 velocity=0 time=0
EXTRACT: note_on channel=2 note=67 velocity=90 time=0.0013888895833333334
EXTRACT: note_on channel=2 note=75 velocity=90 time=0
EXTRACT: note_on channel=1 note=77 velocity=0 time=0.14861118541666668
EXTRACT: note_on channel=5 note=70 velocity=0 time=0.016666675
EXTRACT: note_on channel=5 note=77 velocity=0 time=0
EXTRACT: note_on channel=5 note=70 velocity=90 time=0.0013888895833333334
EXTRACT: note_on channel=5 note=77 velocity=90 time=0
EXTRACT: note_on channel=0 note=75 velocity=0 time=0.16527786041666667
EXTRACT: note_on channel=2 note=67 velocity=0 time=0
EXTRACT: note_on channel=2 note=75 velocity=0 time=0
EXTRACT: note_on channel=0 note=74 velocity=112 time=0.0013888895833333334
EXTRACT: note_on channel=2 note=65 velocity=90 time=0
EXTRACT: note_on channel=2 note=74 velocity=90 time=0
EXTRACT: note_on channel=0 note=74 velocity=0 time=0.16527786041666667
EXTRACT: note_on channel=2 note=65 velocity=0 time=0
EXTRACT: note_on channel=2 note=74 velocity=0 time=0
EXTRACT: note_on channel=5 note=70 velocity=0 time=0
EXTRACT: note_on channel=5 note=77 velocity=0 time=0
EXTRACT: note_on channel=0 note=75 velocity=112 time=0.0013888895833333334
EXTRACT: note_on channel=1 note=75 velocity=80 time=0
EXTRACT: note_on channel=2 note=63 velocity=90 time=0
EXTRACT: note_on channel=2 note=75 velocity=90 time=0
EXTRACT: note_on channel=5 note=70 velocity=90 time=0
EXTRACT: note_on channel=5 note=75 velocity=90 time=0
EXTRACT: note_on channel=1 note=75 velocity=0 time=0.15694452291666666
EXTRACT: note_on channel=0 note=75 velocity=0 time=0.0083333375
EXTRACT: note_on channel=2 note=63 velocity=0 time=0
EXTRACT: note_on channel=2 note=75 velocity=0 time=0
EXTRACT: note_on channel=0 note=74 velocity=112 time=0.0013888895833333334
EXTRACT: note_on channel=1 note=74 velocity=80 time=0
EXTRACT: note_on channel=2 note=62 velocity=90 time=0
EXTRACT: note_on channel=2 note=74 velocity=90 time=0
EXTRACT: note_on channel=1 note=74 velocity=0 time=0.15694452291666666
EXTRACT: note_on channel=0 note=74 velocity=0 time=0.0083333375
EXTRACT: note_on channel=2 note=62 velocity=0 time=0
EXTRACT: note_on channel=2 note=74 velocity=0 time=0
EXTRACT: note_on channel=5 note=70 velocity=0 time=0
EXTRACT: note_on channel=5 note=75 velocity=0 time=0
EXTRACT: note_on channel=0 note=75 velocity=112 time=0.0013888895833333334
EXTRACT: note_on channel=1 note=75 velocity=80 time=0
EXTRACT: note_on channel=2 note=65 velocity=90 time=0
EXTRACT: note_on channel=2 note=75 velocity=90 time=0
EXTRACT: note_on channel=5 note=70 velocity=90 time=0
EXTRACT: note_on channel=5 note=75 velocity=90 time=0
EXTRACT: note_on channel=0 note=75 velocity=0 time=0.16527786041666667
EXTRACT: note_on channel=2 note=65 velocity=0 time=0
EXTRACT: note_on channel=2 note=75 velocity=0 time=0
EXTRACT: note_on channel=0 note=74 velocity=112 time=0.0013888895833333334
EXTRACT: note_on channel=2 note=62 velocity=90 time=0
EXTRACT: note_on channel=2 note=74 velocity=90 time=0
EXTRACT: note_on channel=1 note=75 velocity=0 time=0.14861118541666668
EXTRACT: note_on channel=2 note=62 velocity=0 time=0.016666675
EXTRACT: note_on channel=2 note=74 velocity=0 time=0
EXTRACT: note_on channel=5 note=70 velocity=0 time=0
EXTRACT: note_on channel=5 note=75 velocity=0 time=0
EXTRACT: note_on channel=1 note=74 velocity=80 time=0.0013888895833333334
EXTRACT: note_on channel=2 note=74 velocity=90 time=0
EXTRACT: note_on channel=5 note=69 velocity=90 time=0
EXTRACT: note_on channel=5 note=74 velocity=90 time=0
EXTRACT: note_on channel=5 note=69 velocity=0 time=0.16527786041666667
EXTRACT: note_on channel=5 note=74 velocity=0 time=0
EXTRACT: note_on channel=5 note=69 velocity=90 time=0.0013888895833333334
EXTRACT: note_on channel=5 note=74 velocity=90 time=0
EXTRACT: note_on channel=1 note=74 velocity=0 time=0.14861118541666668
EXTRACT: note_on channel=2 note=74 velocity=0 time=0.016666675
EXTRACT: note_on channel=5 note=69 velocity=0 time=0
EXTRACT: note_on channel=5 note=74 velocity=0 time=0
EXTRACT: note_on channel=2 note=74 velocity=90 time=0.0013888895833333334
EXTRACT: note_on channel=5 note=70 velocity=90 time=0
EXTRACT: note_on channel=2 note=74 velocity=0 time=0.16527786041666667
EXTRACT: note_on channel=5 note=70 velocity=0 time=0
EXTRACT: note_on channel=2 note=62 velocity=90 time=0.0013888895833333334
EXTRACT: note_on channel=5 note=70 velocity=90 time=0
EXTRACT: note_on channel=5 note=75 velocity=90 time=0
EXTRACT: note_on channel=2 note=62 velocity=0 time=0.16527786041666667
EXTRACT: note_on channel=5 note=70 velocity=0 time=0
EXTRACT: note_on channel=5 note=75 velocity=0 time=0
EXTRACT: note_on channel=5 note=39 velocity=0 time=0
EXTRACT: note_on channel=5 note=46 velocity=0 time=0
EXTRACT: note_on channel=1 note=75 velocity=80 time=0.0013888895833333334
EXTRACT: note_on channel=2 note=75 velocity=90 time=0
EXTRACT: note_on channel=5 note=70 velocity=90 time=0
EXTRACT: note_on channel=5 note=75 velocity=90 time=0
EXTRACT: note_on channel=5 note=39 velocity=90 time=0
EXTRACT: note_on channel=5 note=46 velocity=90 time=0
EXTRACT: note_on channel=1 note=75 velocity=0 time=0.15694452291666666
EXTRACT: note_on channel=2 note=75 velocity=0 time=0.0083333375
EXTRACT: note_on channel=1 note=75 velocity=80 time=0.0013888895833333334
EXTRACT: note_on channel=2 note=75 velocity=90 time=0
EXTRACT: note_on channel=1 note=75 velocity=0 time=0.15694452291666666
EXTRACT: note_on channel=2 note=75 velocity=0 time=0.0083333375
EXTRACT: note_on channel=1 note=74 velocity=80 time=0.0013888895833333334
EXTRACT: note_on channel=2 note=74 velocity=90 time=0
EXTRACT: note_on channel=2 note=74 velocity=0 time=0.16527786041666667
EXTRACT: note_on channel=5 note=70 velocity=0 time=0
EXTRACT: note_on channel=5 note=75 velocity=0 time=0
EXTRACT: note_on channel=2 note=70 velocity=90 time=0.0013888895833333334
EXTRACT: note_on channel=5 note=65 velocity=90 time=0
EXTRACT: note_on channel=5 note=70 velocity=90 time=0
EXTRACT: note_on channel=1 note=74 velocity=0 time=0.14861118541666668
EXTRACT: note_on channel=0 note=74 velocity=0 time=0.016666675
EXTRACT: note_on channel=2 note=70 velocity=0 time=0
EXTRACT: note_on channel=5 note=65 velocity=0 time=0
EXTRACT: note_on channel=5 note=70 velocity=0 time=0
EXTRACT: note_on channel=5 note=39 velocity=0 time=0
EXTRACT: note_on channel=5 note=46 velocity=0 time=0
EXTRACT: note_on channel=1 note=77 velocity=80 time=0.0013888895833333334
EXTRACT: note_on channel=2 note=65 velocity=90 time=0
EXTRACT: note_on channel=2 note=77 velocity=90 time=0
EXTRACT: note_on channel=5 note=70 velocity=90 time=0
EXTRACT: note_on channel=5 note=77 velocity=90 time=0
EXTRACT: note_on channel=5 note=46 velocity=90 time=0
EXTRACT: note_on channel=5 note=53 velocity=90 time=0
EXTRACT: note_on channel=2 note=65 velocity=0 time=0.16527786041666667
EXTRACT: note_on channel=2 note=77 velocity=0 time=0
EXTRACT: note_on channel=2 note=65 velocity=90 time=0.0013888895833333334
EXTRACT: note_on channel=2 note=77 velocity=90 time=0
EXTRACT: note_on channel=1 note=77 velocity=0 time=0.14861118541666668
EXTRACT: note_on channel=5 note=70 velocity=0 time=0.016666675
EXTRACT: note_on channel=5 note=77 velocity=0 time=0
EXTRACT: note_on channel=0 note=77 velocity=112 time=0.0013888895833333334
EXTRACT: note_on channel=5 note=70 velocity=90 time=0
EXTRACT: note_on channel=5 note=77 velocity=90 time=0
EXTRACT: note_on channel=2 note=65 velocity=0 time=0.16527786041666667
EXTRACT: note_on channel=2 note=77 velocity=0 time=0
EXTRACT: note_on channel=2 note=65 velocity=90 time=0.0013888895833333334
EXTRACT: note_on channel=2 note=77 velocity=90 time=0
EXTRACT: note_on channel=0 note=77 velocity=0 time=0.16527786041666667
EXTRACT: note_on channel=2 note=65 velocity=0 time=0
EXTRACT: note_on channel=2 note=77 velocity=0 time=0
EXTRACT: note_on channel=5 note=70 velocity=0 time=0
EXTRACT: note_on channel=5 note=77 velocity=0 time=0
EXTRACT: note_on channel=0 note=77 velocity=112 time=0.0013888895833333334
EXTRACT: note_on channel=1 note=77 velocity=80 time=0
EXTRACT: note_on channel=2 note=65 velocity=90 time=0
EXTRACT: note_on channel=2 note=77 velocity=90 time=0
EXTRACT: note_on channel=5 note=70 velocity=90 time=0
EXTRACT: note_on channel=5 note=77 velocity=90 time=0
EXTRACT: note_on channel=1 note=77 velocity=0 time=0.15694452291666666
EXTRACT: note_on channel=2 note=65 velocity=0 time=0.0083333375
EXTRACT: note_on channel=2 note=77 velocity=0 time=0
EXTRACT: note_on channel=1 note=75 velocity=80 time=0.0013888895833333334
EXTRACT: note_on channel=2 note=70 velocity=90 time=0
EXTRACT: note_on channel=1 note=75 velocity=0 time=0.15694452291666666
EXTRACT: note_on channel=2 note=70 velocity=0 time=0.0083333375
EXTRACT: note_on channel=5 note=70 velocity=0 time=0
EXTRACT: note_on channel=5 note=77 velocity=0 time=0
EXTRACT: note_on channel=1 note=77 velocity=80 time=0.0013888895833333334
EXTRACT: note_on channel=2 note=77 velocity=90 time=0
EXTRACT: note_on channel=5 note=70 velocity=90 time=0
EXTRACT: note_on channel=5 note=74 velocity=90 time=0
EXTRACT: note_on channel=0 note=77 velocity=0 time=0.16527786041666667
EXTRACT: note_on channel=2 note=77 velocity=0 time=0
EXTRACT: note_on channel=0 note=74 velocity=112 time=0.0013888895833333334
EXTRACT: note_on channel=2 note=74 velocity=90 time=0
EXTRACT: note_on channel=1 note=77 velocity=0 time=0.14861118541666668
EXTRACT: note_on channel=0 note=74 velocity=0 time=0.016666675
EXTRACT: note_on channel=2 note=74 velocity=0 time=0
EXTRACT: note_on channel=5 note=70 velocity=0 time=0
EXTRACT: note_on channel=5 note=74 velocity=0 time=0
EXTRACT: note_on channel=0 note=74 velocity=112 time=0.0013888895833333334
EXTRACT: note_on channel=1 note=74 velocity=80 time=0
EXTRACT: note_on channel=2 note=74 velocity=90 time=0
EXTRACT: note_on channel=5 note=70 velocity=90 time=0
EXTRACT: note_on channel=5 note=74 velocity=90 time=0
EXTRACT: note_on channel=5 note=70 velocity=0 time=0.16527786041666667
EXTRACT: note_on channel=5 note=74 velocity=0 time=0
EXTRACT: note_on channel=5 note=70 velocity=90 time=0.0013888895833333334
EXTRACT: note_on channel=5 note=74 velocity=90 time=0
EXTRACT: note_on channel=1 note=74 velocity=0 time=0.14861118541666668
EXTRACT: note_on channel=0 note=74 velocity=0 time=0.016666675
EXTRACT: note_on channel=2 note=74 velocity=0 time=0
EXTRACT: note_on channel=5 note=70 velocity=0 time=0
EXTRACT: note_on channel=5 note=74 velocity=0 time=0
EXTRACT: note_on channel=0 note=72 velocity=112 time=0.0013888895833333334
EXTRACT: note_on channel=2 note=72 velocity=90 time=0
EXTRACT: note_on channel=5 note=72 velocity=90 time=0
EXTRACT: note_on channel=2 note=72 velocity=0 time=0.16527786041666667
EXTRACT: note_on channel=5 note=72 velocity=0 time=0
EXTRACT: note_on channel=2 note=72 velocity=90 time=0.0013888895833333334
EXTRACT: note_on channel=5 note=72 velocity=90 time=0
EXTRACT: note_on channel=0 note=72 velocity=0 time=0.16527786041666667
EXTRACT: note_on channel=2 note=72 velocity=0 time=0
EXTRACT: note_on channel=5 note=72 velocity=0 time=0
EXTRACT: note_on channel=5 note=46 velocity=0 time=0
EXTRACT: note_on channel=5 note=53 velocity=0 time=0
EXTRACT: note_on channel=0 note=70 velocity=112 time=0.0013888895833333334
EXTRACT: note_on channel=1 note=72 velocity=80 time=0
EXTRACT: note_on channel=2 note=70 velocity=90 time=0
EXTRACT: note_on channel=2 note=77 velocity=90 time=0
EXTRACT: note_on channel=5 note=65 velocity=90 time=0
EXTRACT: note_on channel=5 note=70 velocity=90 time=0
EXTRACT: note_on channel=5 note=46 velocity=90 time=0
EXTRACT: note_on channel=5 note=53 velocity=90 time=0
EXTRACT: note_on channel=1 note=72 velocity=0 time=0.15694452291666666
EXTRACT: note_on channel=1 note=70 velocity=80 time=0.009722227083333333
EXTRACT: note_on channel=1 note=70 velocity=0 time=0.15694452291666666
EXTRACT: note_on channel=1 note=70 velocity=80 time=0.009722227083333333
EXTRACT: note_on channel=1 note=70 velocity=0 time=0.31527793541666665
EXTRACT: note_on channel=0 note=70 velocity=0 time=0.016666675
EXTRACT: note_on channel=2 note=70 velocity=0 time=0
EXTRACT: note_on channel=2 note=77 velocity=0 time=0
EXTRACT: note_on channel=5 note=65 velocity=0 time=0
EXTRACT: note_on channel=5 note=70 velocity=0 time=0
EXTRACT: note_on channel=5 note=46 velocity=0 time=0
EXTRACT: note_on channel=5 note=53 velocity=0 time=0
EXTRACT: note_on channel=1 note=77 velocity=80 time=0.0013888895833333334
EXTRACT: note_on channel=2 note=65 velocity=90 time=0
EXTRACT: note_on channel=2 note=77 velocity=90 time=0
EXTRACT: note_on channel=5 note=65 velocity=60 time=0
EXTRACT: note_on channel=5 note=70 velocity=60 time=0
EXTRACT: note_on channel=5 note=41 velocity=60 time=0
EXTRACT: note_on channel=5 note=48 velocity=60 time=0
EXTRACT: note_on channel=2 note=65 velocity=0 time=0.16527786041666667
EXTRACT: note_on channel=2 note=77 velocity=0 time=0
EXTRACT: note_on channel=2 note=74 velocity=90 time=0.0013888895833333334
EXTRACT: note_on channel=1 note=77 velocity=0 time=0.14861118541666668
EXTRACT: note_on channel=5 note=65 velocity=0 time=0.016666675
EXTRACT: note_on channel=5 note=70 velocity=0 time=0
EXTRACT: note_on channel=0 note=77 velocity=112 time=0.0013888895833333334
EXTRACT: note_on channel=5 note=65 velocity=60 time=0
EXTRACT: note_on channel=5 note=70 velocity=60 time=0
EXTRACT: note_on channel=2 note=74 velocity=0 time=0.16527786041666667
EXTRACT: note_on channel=2 note=77 velocity=90 time=0.0013888895833333334
EXTRACT: note_on channel=0 note=77 velocity=0 time=0.16527786041666667
EXTRACT: note_on channel=2 note=77 velocity=0 time=0
EXTRACT: note_on channel=5 note=65 velocity=0 time=0
EXTRACT: note_on channel=5 note=70 velocity=0 time=0
EXTRACT: note_on channel=0 note=77 velocity=112 time=0.0013888895833333334
EXTRACT: note_on channel=1 note=79 velocity=80 time=0
EXTRACT: note_on channel=2 note=79 velocity=90 time=0
EXTRACT: note_on channel=5 note=63 velocity=60 time=0
EXTRACT: note_on channel=5 note=69 velocity=60 time=0
EXTRACT: note_on channel=1 note=79 velocity=0 time=0.15694452291666666
EXTRACT: note_on channel=2 note=79 velocity=0 time=0.0083333375
EXTRACT: note_on channel=1 note=77 velocity=80 time=0.0013888895833333334
EXTRACT: note_on channel=2 note=77 velocity=90 time=0
EXTRACT: note_on channel=1 note=77 velocity=0 time=0.15694452291666666
EXTRACT: note_on channel=2 note=77 velocity=0 time=0.0083333375
EXTRACT: note_on channel=5 note=63 velocity=0 time=0
EXTRACT: note_on channel=5 note=69 velocity=0 time=0
EXTRACT: note_on channel=1 note=74 velocity=80 time=0.0013888895833333334
EXTRACT: note_on channel=2 note=74 velocity=90 time=0
EXTRACT: note_on channel=5 note=65 velocity=60 time=0
EXTRACT: note_on channel=5 note=70 velocity=60 time=0
EXTRACT: note_on channel=0 note=77 velocity=0 time=0.16527786041666667
EXTRACT: note_on channel=2 note=74 velocity=0 time=0
EXTRACT: note_on channel=5 note=65 velocity=0 time=0
EXTRACT: note_on channel=5 note=70 velocity=0 time=0
EXTRACT: note_on channel=0 note=74 velocity=112 time=0.0013888895833333334
EXTRACT: note_on channel=2 note=62 velocity=90 time=0
EXTRACT: note_on channel=2 note=74 velocity=90 time=0
EXTRACT: note_on channel=5 note=67 velocity=60 time=0
EXTRACT: note_on channel=5 note=74 velocity=60 time=0
EXTRACT: note_on channel=1 note=74 velocity=0 time=0.14861118541666668
EXTRACT: note_on channel=2 note=62 velocity=0 time=0.016666675
EXTRACT: note_on channel=2 note=74 velocity=0 time=0
EXTRACT: note_on channel=5 note=67 velocity=0 time=0
EXTRACT: note_on channel=5 note=74 velocity=0 time=0
EXTRACT: note_on channel=1 note=72 velocity=80 time=0.0013888895833333334
EXTRACT: note_on channel=2 note=72 velocity=90 time=0
EXTRACT: note_on channel=5 note=67 velocity=60 time=0
EXTRACT: note_on channel=5 note=74 velocity=60 time=0
EXTRACT: note_on channel=5 note=67 velocity=0 time=0.16527786041666667
EXTRACT: note_on channel=5 note=74 velocity=0 time=0
EXTRACT: note_on channel=5 note=67 velocity=60 time=0.0013888895833333334
EXTRACT: note_on channel=5 note=74 velocity=60 time=0
EXTRACT: note_on channel=1 note=72 velocity=0 time=0.14861118541666668
EXTRACT: note_on channel=0 note=74 velocity=0 time=0.016666675
EXTRACT: note_on channel=2 note=72 velocity=0 time=0
EXTRACT: note_on channel=5 note=67 velocity=0 time=0
EXTRACT: note_on channel=5 note=74 velocity=0 time=0
EXTRACT: note_on channel=0 note=72 velocity=112 time=0.0013888895833333334
EXTRACT: note_on channel=2 note=69 velocity=90 time=0
EXTRACT: note_on channel=5 note=74 velocity=60 time=0
EXTRACT: note_on channel=2 note=69 velocity=0 time=0.16527786041666667
EXTRACT: note_on channel=2 note=72 velocity=90 time=0.0013888895833333334
EXTRACT: note_on channel=2 note=72 velocity=0 time=0.16527786041666667
EXTRACT: note_on channel=5 note=74 velocity=0 time=0
EXTRACT: note_on channel=5 note=41 velocity=0 time=0
EXTRACT: note_on channel=5 note=48 velocity=0 time=0
EXTRACT: note_on channel=1 note=72 velocity=80 time=0.0013888895833333334
EXTRACT: note_on channel=2 note=72 velocity=90 time=0
EXTRACT: note_on channel=5 note=69 velocity=60 time=0
EXTRACT: note_on channel=5 note=74 velocity=60 time=0
EXTRACT: note_on channel=5 note=41 velocity=60 time=0
EXTRACT: note_on channel=5 note=48 velocity=60 time=0
EXTRACT: note_on channel=1 note=72 velocity=0 time=0.15694452291666666
EXTRACT: note_on channel=1 note=72 velocity=80 time=0.009722227083333333
EXTRACT: note_on channel=1 note=72 velocity=0 time=0.15694452291666666
EXTRACT: note_on channel=1 note=72 velocity=80 time=0.009722227083333333
EXTRACT: note_on channel=1 note=72 velocity=0 time=0.31527793541666665
EXTRACT: note_on channel=0 note=72 velocity=0 time=0.016666675
EXTRACT: note_on channel=2 note=72 velocity=0 time=0
EXTRACT: note_on channel=5 note=69 velocity=0 time=0
EXTRACT: note_on channel=5 note=74 velocity=0 time=0
EXTRACT: note_on channel=5 note=41 velocity=0 time=0
EXTRACT: note_on channel=5 note=48 velocity=0 time=0
EXTRACT: note_on channel=1 note=77 velocity=80 time=0.0013888895833333334
EXTRACT: note_on channel=2 note=65 velocity=90 time=0
EXTRACT: note_on channel=2 note=77 velocity=90 time=0
EXTRACT: note_on channel=5 note=70 velocity=60 time=0
EXTRACT: note_on channel=5 note=77 velocity=60 time=0
EXTRACT: note_on channel=5 note=43 velocity=60 time=0
EXTRACT: note_on channel=5 note=50 velocity=60 time=0
EXTRACT: note_on channel=2 note=65 velocity=0 time=0.16527786041666667
EXTRACT: note_on channel=2 note=77 velocity=0 time=0
EXTRACT: note_on channel=0 note=70 velocity=112 time=0.0013888895833333334
EXTRACT: note_on channel=2 note=65 velocity=90 time=0
EXTRACT: note_on channel=2 note=77 velocity=90 time=0
EXTRACT: note_on channel=1 note=77 velocity=0 time=0.14861118541666668
EXTRACT: note_on channel=0 note=70 velocity=0 time=0.016666675
EXTRACT: note_on channel=5 note=70 velocity=0 time=0
EXTRACT: note_on channel=5 note=77 velocity=0 time=0
EXTRACT: note_on channel=0 note=77 velocity=112 time=0.0013888895833333334
EXTRACT: note_on channel=5 note=70 velocity=60 time=0
EXTRACT: note_on channel=5 note=77 velocity=60 time=0
EXTRACT: note_on channel=2 note=65 velocity=0 time=0.16527786041666667
EXTRACT: note_on channel=2 note=77 velocity=0 time=0
EXTRACT: note_on channel=2 note=65 velocity=90 time=0.0013888895833333334
EXTRACT: note_on channel=2 note=77 velocity=90 time=0
EXTRACT: note_on channel=0 note=77 velocity=0 time=0.16527786041666667
EXTRACT: note_on channel=2 note=65 velocity=0 time=0
EXTRACT: note_on channel=2 note=77 velocity=0 time=0
EXTRACT: note_on channel=5 note=70 velocity=0 time=0
EXTRACT: note_on channel=5 note=77 velocity=0 time=0
EXTRACT: note_on channel=0 note=77 velocity=112 time=0.0013888895833333334
EXTRACT: note_on channel=1 note=77 velocity=80 time=0
EXTRACT: note_on channel=2 note=70 velocity=90 time=0
EXTRACT: note_on channel=2 note=77 velocity=90 time=0
EXTRACT: note_on channel=5 note=70 velocity=60 time=0
EXTRACT: note_on channel=5 note=77 velocity=60 time=0
EXTRACT: note_on channel=1 note=77 velocity=0 time=0.15694452291666666
EXTRACT: note_on channel=2 note=70 velocity=0 time=0.0083333375
EXTRACT: note_on channel=2 note=77 velocity=0 time=0
EXTRACT: note_on channel=1 note=77 velocity=80 time=0.0013888895833333334
EXTRACT: note_on channel=2 note=70 velocity=90 time=0
EXTRACT: note_on channel=2 note=77 velocity=90 time=0
EXTRACT: note_on channel=1 note=77 velocity=0 time=0.15694452291666666
EXTRACT: note_on channel=2 note=70 velocity=0 time=0.0083333375
EXTRACT: note_on channel=2 note=77 velocity=0 time=0
EXTRACT: note_on channel=5 note=70 velocity=0 time=0
EXTRACT: note_on channel=5 note=77 velocity=0 time=0
EXTRACT: note_on channel=1 note=74 velocity=80 time=0.0013888895833333334
EXTRACT: note_on channel=2 note=77 velocity=90 time=0
EXTRACT: note_on channel=5 note=74 velocity=60 time=0
EXTRACT: note_on channel=0 note=77 velocity=0 time=0.16527786041666667
EXTRACT: note_on channel=2 note=77 velocity=0 time=0
EXTRACT: note_on channel=0 note=74 velocity=112 time=0.0013888895833333334
EXTRACT: note_on channel=2 note=62 velocity=90 time=0
EXTRACT: note_on channel=2 note=74 velocity=90 time=0
EXTRACT: note_on channel=1 note=74 velocity=0 time=0.14861118541666668
EXTRACT: note_on channel=0 note=74 velocity=0 time=0.016666675
EXTRACT: note_on channel=2 note=62 velocity=0 time=0
EXTRACT: note_on channel=2 note=74 velocity=0 time=0
EXTRACT: note_on channel=5 note=74 velocity=0 time=0
EXTRACT: note_on channel=0 note=74 velocity=112 time=0.0013888895833333334
EXTRACT: note_on channel=1 note=74 velocity=80 time=0
EXTRACT: note_on channel=2 note=74 velocity=90 time=0
EXTRACT: note_on channel=5 note=67 velocity=60 time=0
EXTRACT: note_on channel=5 note=74 velocity=60 time=0
EXTRACT: note_on channel=5 note=67 velocity=0 time=0.16527786041666667
EXTRACT: note_on channel=5 note=74 velocity=0 time=0
EXTRACT: note_on channel=5 note=67 velocity=60 time=0.0013888895833333334
EXTRACT: note_on channel=5 note=74 velocity=60 time=0
EXTRACT: note_on channel=1 note=74 velocity=0 time=0.14861118541666668
EXTRACT: note_on channel=0 note=74 velocity=0 time=0.016666675
EXTRACT: note_on channel=2 note=74 velocity=0 time=0
EXTRACT: note_on channel=5 note=67 velocity=0 time=0
EXTRACT: note_on channel=5 note=74 velocity=0 time=0
EXTRACT: note_on channel=0 note=72 velocity=112 time=0.0013888895833333334
EXTRACT: note_on channel=2 note=72 velocity=90 time=0
EXTRACT: note_on channel=5 note=65 velocity=60 time=0
EXTRACT: note_on channel=5 note=72 velocity=60 time=0
EXTRACT: note_on channel=2 note=72 velocity=0 time=0.16527786041666667
EXTRACT: note_on channel=5 note=65 velocity=0 time=0
EXTRACT: note_on channel=5 note=72 velocity=0 time=0
EXTRACT: note_on channel=2 note=72 velocity=90 time=0.0013888895833333334
EXTRACT: note_on channel=5 note=65 velocity=60 time=0
EXTRACT: note_on channel=5 note=72 velocity=60 time=0
EXTRACT: note_on channel=0 note=72 velocity=0 time=0.16527786041666667
EXTRACT: note_on channel=2 note=72 velocity=0 time=0
EXTRACT: note_on channel=5 note=65 velocity=0 time=0
EXTRACT: note_on channel=5 note=72 velocity=0 time=0
EXTRACT: note_on channel=5 note=43 velocity=0 time=0
EXTRACT: note_on channel=5 note=50 velocity=0 time=0
EXTRACT: note_on channel=0 note=70 velocity=112 time=0.0013888895833333334
EXTRACT: note_on channel=1 note=70 velocity=80 time=0
EXTRACT: note_on channel=2 note=62 velocity=90 time=0
EXTRACT: note_on channel=2 note=70 velocity=90 time=0
EXTRACT: note_on channel=5 note=65 velocity=60 time=0
EXTRACT: note_on channel=5 note=70 velocity=60 time=0
EXTRACT: note_on channel=5 note=43 velocity=60 time=0
EXTRACT: note_on channel=5 note=50 velocity=60 time=0
EXTRACT: note_on channel=1 note=70 velocity=0 time=0.15694452291666666
EXTRACT: note_on channel=2 note=62 velocity=0 time=0.0083333375
EXTRACT: note_on channel=2 note=70 velocity=0 time=0
EXTRACT: note_on channel=1 note=70 velocity=80 time=0.0013888895833333334
EXTRACT: note_on channel=2 note=62 velocity=90 time=0
EXTRACT: note_on channel=2 note=70 velocity=90 time=0
EXTRACT: note_on channel=1 note=70 velocity=0 time=0.15694452291666666
EXTRACT: note_on channel=0 note=70 velocity=0 time=0.0083333375
EXTRACT: note_on channel=2 note=62 velocity=0 time=0
EXTRACT: note_on channel=2 note=70 velocity=0 time=0
EXTRACT: note_on channel=0 note=70 velocity=112 time=0.0013888895833333334
EXTRACT: note_on channel=1 note=70 velocity=80 time=0
EXTRACT: note_on channel=2 note=70 velocity=90 time=0
EXTRACT: note_on channel=1 note=70 velocity=0 time=0.31527793541666665
EXTRACT: note_on channel=0 note=70 velocity=0 time=0.016666675
EXTRACT: note_on channel=2 note=70 velocity=0 time=0
EXTRACT: note_on channel=5 note=65 velocity=0 time=0
EXTRACT: note_on channel=5 note=70 velocity=0 time=0
EXTRACT: note_on channel=5 note=43 velocity=0 time=0
EXTRACT: note_on channel=5 note=50 velocity=0 time=0
EXTRACT: note_on channel=0 note=75 velocity=112 time=0.0013888895833333334
EXTRACT: note_on channel=1 note=75 velocity=80 time=0
EXTRACT: note_on channel=2 note=67 velocity=90 time=0
EXTRACT: note_on channel=2 note=75 velocity=90 time=0
EXTRACT: note_on channel=5 note=70 velocity=90 time=0
EXTRACT: note_on channel=5 note=77 velocity=90 time=0
EXTRACT: note_on channel=5 note=39 velocity=90 time=0
EXTRACT: note_on channel=5 note=46 velocity=90 time=0
EXTRACT: note_on channel=2 note=67 velocity=0 time=0.16527786041666667
EXTRACT: note_on channel=2 note=75 velocity=0 time=0
EXTRACT: note_on channel=2 note=67 velocity=90 time=0.0013888895833333334
EXTRACT: note_on channel=2 note=75 velocity=90 time=0
EXTRACT: note_on channel=1 note=75 velocity=0 time=0.14861118541666668
EXTRACT: note_on channel=0 note=75 velocity=0 time=0.016666675
EXTRACT: note_on channel=5 note=70 velocity=0 time=0
EXTRACT: note_on channel=5 note=77 velocity=0 time=0
EXTRACT: note_on channel=0 note=75 velocity=112 time=0.0013888895833333334
EXTRACT: note_on channel=5 note=70 velocity=90 time=0
EXTRACT: note_on channel=5 note=77 velocity=90 time=0
EXTRACT: note_on channel=2 note=67 velocity=0 time=0.16527786041666667
EXTRACT: note_on channel=2 note=75 velocity=0 time=0
EXTRACT: note_on channel=2 note=65 velocity=90 time=0.0013888895833333334
EXTRACT: note_on channel=2 note=74 velocity=90 time=0
EXTRACT: note_on channel=0 note=75 velocity=0 time=0.16527786041666667
EXTRACT: note_on channel=2 note=65 velocity=0 time=0
EXTRACT: note_on channel=2 note=74 velocity=0 time=0
EXTRACT: note_on channel=5 note=70 velocity=0 time=0
EXTRACT: note_on channel=5 note=77 velocity=0 time=0
EXTRACT: note_on channel=0 note=75 velocity=112 time=0.0013888895833333334
EXTRACT: note_on channel=1 note=75 velocity=80 time=0
EXTRACT: note_on channel=2 note=63 velocity=90 time=0
EXTRACT: note_on channel=2 note=75 velocity=90 time=0
EXTRACT: note_on channel=5 note=70 velocity=90 time=0
EXTRACT: note_on channel=5 note=75 velocity=90 time=0
EXTRACT: note_on channel=1 note=75 velocity=0 time=0.15694452291666666
EXTRACT: note_on channel=0 note=75 velocity=0 time=0.0083333375
EXTRACT: note_on channel=2 note=63 velocity=0 time=0
EXTRACT: note_on channel=2 note=75 velocity=0 time=0
EXTRACT: note_on channel=0 note=74 velocity=112 time=0.0013888895833333334
EXTRACT: note_on channel=1 note=74 velocity=80 time=0
EXTRACT: note_on channel=2 note=62 velocity=90 time=0
EXTRACT: note_on channel=2 note=74 velocity=90 time=0
EXTRACT: note_on channel=1 note=74 velocity=0 time=0.15694452291666666
EXTRACT: note_on channel=0 note=74 velocity=0 time=0.0083333375
EXTRACT: note_on channel=2 note=62 velocity=0 time=0
EXTRACT: note_on channel=2 note=74 velocity=0 time=0
EXTRACT: note_on channel=5 note=70 velocity=0 time=0
EXTRACT: note_on channel=5 note=75 velocity=0 time=0
EXTRACT: note_on channel=0 note=75 velocity=112 time=0.0013888895833333334
EXTRACT: note_on channel=1 note=75 velocity=80 time=0
EXTRACT: note_on channel=2 note=65 velocity=90 time=0
EXTRACT: note_on channel=2 note=75 velocity=90 time=0
EXTRACT: note_on channel=5 note=70 velocity=90 time=0
EXTRACT: note_on channel=5 note=75 velocity=90 time=0
EXTRACT: note_on channel=0 note=75 velocity=0 time=0.16527786041666667
EXTRACT: note_on channel=2 note=65 velocity=0 time=0
EXTRACT: note_on channel=2 note=75 velocity=0 time=0
EXTRACT: note_on channel=0 note=74 velocity=112 time=0.0013888895833333334
EXTRACT: note_on channel=2 note=62 velocity=90 time=0
EXTRACT: note_on channel=2 note=74 velocity=90 time=0
EXTRACT: note_on channel=1 note=75 velocity=0 time=0.14861118541666668
EXTRACT: note_on channel=2 note=62 velocity=0 time=0.016666675
EXTRACT: note_on channel=2 note=74 velocity=0 time=0
EXTRACT: note_on channel=5 note=70 velocity=0 time=0
EXTRACT: note_on channel=5 note=75 velocity=0 time=0
EXTRACT: note_on channel=1 note=74 velocity=80 time=0.0013888895833333334
EXTRACT: note_on channel=2 note=74 velocity=90 time=0
EXTRACT: note_on channel=5 note=69 velocity=90 time=0
EXTRACT: note_on channel=5 note=74 velocity=90 time=0
EXTRACT: note_on channel=5 note=69 velocity=0 time=0.16527786041666667
EXTRACT: note_on channel=5 note=74 velocity=0 time=0
EXTRACT: note_on channel=5 note=69 velocity=90 time=0.0013888895833333334
EXTRACT: note_on channel=5 note=74 velocity=90 time=0
EXTRACT: note_on channel=1 note=74 velocity=0 time=0.14861118541666668
EXTRACT: note_on channel=2 note=74 velocity=0 time=0.016666675
EXTRACT: note_on channel=5 note=69 velocity=0 time=0
EXTRACT: note_on channel=5 note=74 velocity=0 time=0
EXTRACT: note_on channel=2 note=74 velocity=90 time=0.0013888895833333334
EXTRACT: note_on channel=5 note=70 velocity=90 time=0
EXTRACT: note_on channel=2 note=74 velocity=0 time=0.16527786041666667
EXTRACT: note_on channel=5 note=70 velocity=0 time=0
EXTRACT: note_on channel=2 note=62 velocity=90 time=0.0013888895833333334
EXTRACT: note_on channel=5 note=70 velocity=90 time=0
EXTRACT: note_on channel=5 note=75 velocity=90 time=0
EXTRACT: note_on channel=2 note=62 velocity=0 time=0.16527786041666667
EXTRACT: note_on channel=5 note=70 velocity=0 time=0
EXTRACT: note_on channel=5 note=75 velocity=0 time=0
EXTRACT: note_on channel=5 note=39 velocity=0 time=0
EXTRACT: note_on channel=5 note=46 velocity=0 time=0
EXTRACT: note_on channel=1 note=75 velocity=80 time=0.0013888895833333334
EXTRACT: note_on channel=2 note=75 velocity=90 time=0
EXTRACT: note_on channel=5 note=70 velocity=90 time=0
EXTRACT: note_on channel=5 note=75 velocity=90 time=0
EXTRACT: note_on channel=5 note=39 velocity=90 time=0
EXTRACT: note_on channel=5 note=46 velocity=90 time=0
EXTRACT: note_on channel=1 note=75 velocity=0 time=0.15694452291666666
EXTRACT: note_on channel=2 note=75 velocity=0 time=0.0083333375
EXTRACT: note_on channel=1 note=75 velocity=80 time=0.0013888895833333334
EXTRACT: note_on channel=2 note=75 velocity=90 time=0
EXTRACT: note_on channel=1 note=75 velocity=0 time=0.15694452291666666
EXTRACT: note_on channel=0 note=74 velocity=0 time=0.0083333375
EXTRACT: note_on channel=2 note=75 velocity=0 time=0
EXTRACT: note_on channel=0 note=77 velocity=126 time=0.0013888895833333334
EXTRACT: note_on channel=1 note=74 velocity=80 time=0
EXTRACT: note_on channel=2 note=74 velocity=90 time=0
EXTRACT: note_on channel=2 note=74 velocity=0 time=0.16527786041666667
EXTRACT: note_on channel=5 note=70 velocity=0 time=0
EXTRACT: note_on channel=5 note=75 velocity=0 time=0
EXTRACT: note_on channel=2 note=70 velocity=90 time=0.0013888895833333334
EXTRACT: note_on channel=5 note=65 velocity=90 time=0
EXTRACT: note_on channel=5 note=70 velocity=90 time=0
EXTRACT: note_on channel=1 note=74 velocity=0 time=0.14861118541666668
EXTRACT: note_on channel=0 note=77 velocity=0 time=0.016666675
EXTRACT: note_on channel=2 note=70 velocity=0 time=0
EXTRACT: note_on channel=5 note=65 velocity=0 time=0
EXTRACT: note_on channel=5 note=70 velocity=0 time=0
EXTRACT: note_on channel=5 note=39 velocity=0 time=0
EXTRACT: note_on channel=5 note=46 velocity=0 time=0
EXTRACT: note_on channel=0 note=81 velocity=126 time=0.0013888895833333334
EXTRACT: note_on channel=1 note=77 velocity=80 time=0
EXTRACT: note_on channel=2 note=69 velocity=90 time=0
EXTRACT: note_on channel=2 note=81 velocity=90 time=0
EXTRACT: note_on channel=5 note=69 velocity=90 time=0
EXTRACT: note_on channel=5 note=81 velocity=90 time=0
EXTRACT: note_on channel=5 note=46 velocity=90 time=0
EXTRACT: note_on channel=5 note=53 velocity=90 time=0
EXTRACT: note_on channel=2 note=69 velocity=0 time=0.16527786041666667
EXTRACT: note_on channel=2 note=81 velocity=0 time=0
EXTRACT: note_on channel=2 note=70 velocity=90 time=0.0013888895833333334
EXTRACT: note_on channel=2 note=77 velocity=90 time=0
EXTRACT: note_on channel=1 note=77 velocity=0 time=0.14861118541666668
EXTRACT: note_on channel=5 note=69 velocity=0 time=0.016666675
EXTRACT: note_on channel=5 note=81 velocity=0 time=0
EXTRACT: note_on channel=5 note=70 velocity=90 time=0.0013888895833333334
EXTRACT: note_on channel=5 note=82 velocity=90 time=0
EXTRACT: note_on channel=0 note=81 velocity=0 time=0.16527786041666667
EXTRACT: note_on channel=2 note=70 velocity=0 time=0
EXTRACT: note_on channel=2 note=77 velocity=0 time=0
EXTRACT: note_on channel=0 note=82 velocity=126 time=0.0013888895833333334
EXTRACT: note_on channel=2 note=77 velocity=90 time=0
EXTRACT: note_on channel=2 note=77 velocity=0 time=0.16527786041666667
EXTRACT: note_on channel=5 note=70 velocity=0 time=0
EXTRACT: note_on channel=5 note=82 velocity=0 time=0
EXTRACT: note_on channel=1 note=77 velocity=80 time=0.0013888895833333334
EXTRACT: note_on channel=2 note=70 velocity=90 time=0
EXTRACT: note_on channel=5 note=70 velocity=90 time=0
EXTRACT: note_on channel=5 note=82 velocity=90 time=0
EXTRACT: note_on channel=1 note=77 velocity=0 time=0.15694452291666666
EXTRACT: note_on channel=2 note=70 velocity=0 time=0.0083333375
EXTRACT: note_on channel=1 note=75 velocity=80 time=0.0013888895833333334
EXTRACT: note_on channel=2 note=70 velocity=90 time=0
EXTRACT: note_on channel=1 note=75 velocity=0 time=0.15694452291666666
EXTRACT: note_on channel=0 note=82 velocity=0 time=0.0083333375
EXTRACT: note_on channel=2 note=70 velocity=0 time=0
EXTRACT: note_on channel=5 note=70 velocity=0 time=0
EXTRACT: note_on channel=5 note=82 velocity=0 time=0
EXTRACT: note_on channel=0 note=77 velocity=126 time=0.0013888895833333334
EXTRACT: note_on channel=1 note=77 velocity=80 time=0
EXTRACT: note_on channel=2 note=77 velocity=90 time=0
EXTRACT: note_on channel=5 note=65 velocity=90 time=0
EXTRACT: note_on channel=5 note=77 velocity=90 time=0
EXTRACT: note_on channel=2 note=77 velocity=0 time=0.16527786041666667
EXTRACT: note_on channel=2 note=74 velocity=90 time=0.0013888895833333334
EXTRACT: note_on channel=2 note=77 velocity=90 time=0
EXTRACT: note_on channel=1 note=77 velocity=0 time=0.14861118541666668
EXTRACT: note_on channel=2 note=74 velocity=0 time=0.016666675
EXTRACT: note_on channel=2 note=77 velocity=0 time=0
EXTRACT: note_on channel=5 note=65 velocity=0 time=0
EXTRACT: note_on channel=5 note=77 velocity=0 time=0
EXTRACT: note_on channel=5 note=46 velocity=0 time=0
EXTRACT: note_on channel=5 note=53 velocity=0 time=0
EXTRACT: note_on channel=1 note=74 velocity=80 time=0.0013888895833333334
EXTRACT: note_on channel=2 note=74 velocity=90 time=0
EXTRACT: note_on channel=2 note=77 velocity=90 time=0
EXTRACT: note_on channel=5 note=65 velocity=90 time=0
EXTRACT: note_on channel=5 note=74 velocity=90 time=0
EXTRACT: note_on channel=5 note=46 velocity=90 time=0
EXTRACT: note_on channel=5 note=53 velocity=90 time=0
EXTRACT: note_on channel=0 note=77 velocity=0 time=0.16527786041666667
EXTRACT: note_on channel=5 note=65 velocity=0 time=0
EXTRACT: note_on channel=5 note=74 velocity=0 time=0
EXTRACT: note_on channel=0 note=74 velocity=126 time=0.0013888895833333334
EXTRACT: note_on channel=5 note=65 velocity=90 time=0
EXTRACT: note_on channel=5 note=74 velocity=90 time=0
EXTRACT: note_on channel=1 note=74 velocity=0 time=0.14861118541666668
EXTRACT: note_on channel=2 note=74 velocity=0 time=0.016666675
EXTRACT: note_on channel=2 note=77 velocity=0 time=0
EXTRACT: note_on channel=5 note=65 velocity=0 time=0
EXTRACT: note_on channel=5 note=74 velocity=0 time=0
EXTRACT: note_on channel=2 note=77 velocity=90 time=0.0013888895833333334
EXTRACT: note_on channel=5 note=74 velocity=90 time=0
EXTRACT: note_on channel=2 note=77 velocity=0 time=0.16527786041666667
EXTRACT: note_on channel=5 note=74 velocity=0 time=0
EXTRACT: note_on channel=2 note=77 velocity=90 time=0.0013888895833333334
EXTRACT: note_on channel=5 note=74 velocity=90 time=0
EXTRACT: note_on channel=0 note=74 velocity=0 time=0.16527786041666667
EXTRACT: note_on channel=2 note=77 velocity=0 time=0
EXTRACT: note_on channel=5 note=74 velocity=0 time=0
EXTRACT: note_on channel=0 note=77 velocity=126 time=0.0013888895833333334
EXTRACT: note_on channel=1 note=72 velocity=80 time=0
EXTRACT: note_on channel=2 note=70 velocity=90 time=0
EXTRACT: note_on channel=2 note=77 velocity=90 time=0
EXTRACT: note_on channel=5 note=65 velocity=90 time=0
EXTRACT: note_on channel=5 note=70 velocity=90 time=0
EXTRACT: note_on channel=1 note=72 velocity=0 time=0.15694452291666666
EXTRACT: note_on channel=1 note=70 velocity=80 time=0.009722227083333333
EXTRACT: note_on channel=1 note=70 velocity=0 time=0.15694452291666666
EXTRACT: note_on channel=1 note=70 velocity=80 time=0.009722227083333333
EXTRACT: note_on channel=1 note=70 velocity=0 time=0.31527793541666665
EXTRACT: note_on channel=2 note=70 velocity=0 time=0.016666675
EXTRACT: note_on channel=2 note=77 velocity=0 time=0
EXTRACT: note_on channel=5 note=65 velocity=0 time=0
EXTRACT: note_on channel=5 note=70 velocity=0 time=0
EXTRACT: note_on channel=5 note=46 velocity=0 time=0
EXTRACT: note_on channel=5 note=53 velocity=0 time=0
EXTRACT: note_on channel=1 note=70 velocity=80 time=0.0013888895833333334
EXTRACT: note_on channel=2 note=70 velocity=90 time=0
EXTRACT: note_on channel=2 note=82 velocity=90 time=0
EXTRACT: note_on channel=5 note=70 velocity=90 time=0
EXTRACT: note_on channel=5 note=77 velocity=90 time=0
EXTRACT: note_on channel=5 note=41 velocity=90 time=0
EXTRACT: note_on channel=5 note=48 velocity=90 time=0
EXTRACT: note_on channel=2 note=70 velocity=0 time=0.16527786041666667
EXTRACT: note_on channel=2 note=82 velocity=0 time=0
EXTRACT: note_on channel=2 note=77 velocity=90 time=0.0013888895833333334
EXTRACT: note_on channel=1 note=70 velocity=0 time=0.14861118541666668
EXTRACT: note_on channel=5 note=70 velocity=0 time=0.016666675
EXTRACT: note_on channel=5 note=77 velocity=0 time=0
EXTRACT: note_on channel=5 note=70 velocity=90 time=0.0013888895833333334
EXTRACT: note_on channel=5 note=77 velocity=90 time=0
EXTRACT: note_on channel=2 note=77 velocity=0 time=0.16527786041666667
EXTRACT: note_on channel=2 note=70 velocity=90 time=0.0013888895833333334
EXTRACT: note_on channel=2 note=82 velocity=90 time=0
EXTRACT: note_on channel=2 note=70 velocity=0 time=0.16527786041666667
EXTRACT: note_on channel=2 note=82 velocity=0 time=0
EXTRACT: note_on channel=5 note=70 velocity=0 time=0
EXTRACT: note_on channel=5 note=77 velocity=0 time=0
EXTRACT: note_on channel=1 note=70 velocity=80 time=0.0013888895833333334
EXTRACT: note_on channel=2 note=70 velocity=90 time=0
EXTRACT: note_on channel=2 note=82 velocity=90 time=0
EXTRACT: note_on channel=5 note=70 velocity=90 time=0
EXTRACT: note_on channel=5 note=77 velocity=90 time=0
EXTRACT: note_on channel=1 note=70 velocity=0 time=0.15694452291666666
EXTRACT: note_on channel=2 note=70 velocity=0 time=0.0083333375
EXTRACT: note_on channel=2 note=82 velocity=0 time=0
EXTRACT: note_on channel=1 note=69 velocity=80 time=0.0013888895833333334
EXTRACT: note_on channel=2 note=69 velocity=90 time=0
EXTRACT: note_on channel=2 note=81 velocity=90 time=0
EXTRACT: note_on channel=1 note=69 velocity=0 time=0.15694452291666666
EXTRACT: note_on channel=2 note=69 velocity=0 time=0.0083333375
EXTRACT: note_on channel=2 note=81 velocity=0 time=0
EXTRACT: note_on channel=5 note=70 velocity=0 time=0
EXTRACT: note_on channel=5 note=77 velocity=0 time=0
EXTRACT: note_on channel=1 note=77 velocity=80 time=0.0013888895833333334
EXTRACT: note_on channel=2 note=77 velocity=90 time=0
EXTRACT: note_on channel=5 note=70 velocity=90 time=0
EXTRACT: note_on channel=5 note=77 velocity=90 time=0
EXTRACT: note_on channel=2 note=77 velocity=0 time=0.16527786041666667
EXTRACT: note_on channel=5 note=70 velocity=0 time=0
EXTRACT: note_on channel=5 note=77 velocity=0 time=0
EXTRACT: note_on channel=2 note=77 velocity=90 time=0.0013888895833333334
EXTRACT: note_on channel=5 note=70 velocity=90 time=0
EXTRACT: note_on channel=5 note=77 velocity=90 time=0
EXTRACT: note_on channel=1 note=77 velocity=0 time=0.14861118541666668
EXTRACT: note_on channel=2 note=77 velocity=0 time=0.016666675
EXTRACT: note_on channel=5 note=70 velocity=0 time=0
EXTRACT: note_on channel=5 note=77 velocity=0 time=0
EXTRACT: note_on channel=5 note=41 velocity=0 time=0
EXTRACT: note_on channel=5 note=48 velocity=0 time=0
EXTRACT: note_on channel=1 note=70 velocity=80 time=0.0013888895833333334
EXTRACT: note_on channel=2 note=70 velocity=90 time=0
EXTRACT: note_on channel=2 note=82 velocity=90 time=0
EXTRACT: note_on channel=5 note=70 velocity=90 time=0
EXTRACT: note_on channel=5 note=77 velocity=90 time=0
EXTRACT: note_on channel=5 note=41 velocity=90 time=0
EXTRACT: note_on channel=5 note=48 velocity=90 time=0
EXTRACT: note_on channel=5 note=70 velocity=0 time=0.16527786041666667
EXTRACT: note_on channel=5 note=77 velocity=0 time=0
EXTRACT: note_on channel=5 note=70 velocity=90 time=0.0013888895833333334
EXTRACT: note_on channel=5 note=77 velocity=90 time=0
EXTRACT: note_on channel=1 note=70 velocity=0 time=0.14861118541666668
EXTRACT: note_on channel=2 note=70 velocity=0 time=0.016666675
EXTRACT: note_on channel=2 note=82 velocity=0 time=0
EXTRACT: note_on channel=5 note=70 velocity=0 time=0
EXTRACT: note_on channel=5 note=77 velocity=0 time=0
EXTRACT: note_on channel=2 note=70 velocity=90 time=0.0013888895833333334
EXTRACT: note_on channel=5 note=77 velocity=90 time=0
EXTRACT: note_on channel=2 note=70 velocity=0 time=0.16527786041666667
EXTRACT: note_on channel=2 note=77 velocity=90 time=0.0013888895833333334
EXTRACT: note_on channel=0 note=77 velocity=0 time=0.16527786041666667
EXTRACT: note_on channel=2 note=77 velocity=0 time=0
EXTRACT: note_on channel=5 note=77 velocity=0 time=0
EXTRACT: note_on channel=1 note=70 velocity=80 time=0.0013888895833333334
EXTRACT: note_on channel=2 note=70 velocity=90 time=0
EXTRACT: note_on channel=5 note=70 velocity=90 time=0
EXTRACT: note_on channel=5 note=82 velocity=90 time=0
EXTRACT: note_on channel=1 note=70 velocity=0 time=0.15694452291666666
EXTRACT: note_on channel=1 note=70 velocity=80 time=0.009722227083333333
EXTRACT: note_on channel=1 note=70 velocity=0 time=0.15694452291666666
EXTRACT: note_on channel=0 note=77 velocity=126 time=0.009722227083333333
EXTRACT: note_on channel=1 note=77 velocity=80 time=0
EXTRACT: note_on channel=1 note=77 velocity=0 time=0.31527793541666665
EXTRACT: note_on channel=0 note=77 velocity=0 time=0.016666675
EXTRACT: note_on channel=2 note=70 velocity=0 time=0
EXTRACT: note_on channel=5 note=70 velocity=0 time=0
EXTRACT: note_on channel=5 note=82 velocity=0 time=0
EXTRACT: note_on channel=5 note=41 velocity=0 time=0
EXTRACT: note_on channel=5 note=48 velocity=0 time=0
EXTRACT: note_on channel=0 note=81 velocity=126 time=0.0013888895833333334
EXTRACT: note_on channel=1 note=77 velocity=80 time=0
EXTRACT: note_on channel=2 note=69 velocity=60 time=0
EXTRACT: note_on channel=2 note=81 velocity=60 time=0
EXTRACT: note_on channel=5 note=69 velocity=90 time=0
EXTRACT: note_on channel=5 note=81 velocity=90 time=0
EXTRACT: note_on channel=5 note=46 velocity=90 time=0
EXTRACT: note_on channel=5 note=53 velocity=90 time=0
EXTRACT: note_on channel=2 note=69 velocity=0 time=0.16527786041666667
EXTRACT: note_on channel=2 note=81 velocity=0 time=0
EXTRACT: note_on channel=2 note=70 velocity=60 time=0.0013888895833333334
EXTRACT: note_on channel=2 note=77 velocity=60 time=0
EXTRACT: note_on channel=1 note=77 velocity=0 time=0.14861118541666668
EXTRACT: note_on channel=5 note=69 velocity=0 time=0.016666675
EXTRACT: note_on channel=5 note=81 velocity=0 time=0
EXTRACT: note_on channel=5 note=70 velocity=90 time=0.0013888895833333334
EXTRACT: note_on channel=5 note=82 velocity=90 time=0
EXTRACT: note_on channel=0 note=81 velocity=0 time=0.16527786041666667
EXTRACT: note_on channel=2 note=70 velocity=0 time=0
EXTRACT: note_on channel=2 note=77 velocity=0 time=0
EXTRACT: note_on channel=0 note=82 velocity=126 time=0.0013888895833333334
EXTRACT: note_on channel=2 note=77 velocity=60 time=0
EXTRACT: note_on channel=2 note=77 velocity=0 time=0.16527786041666667
EXTRACT: note_on channel=5 note=70 velocity=0 time=0
EXTRACT: note_on channel=5 note=82 velocity=0 time=0
EXTRACT: note_on channel=1 note=77 velocity=80 time=0.0013888895833333334
EXTRACT: note_on channel=2 note=70 velocity=60 time=0
EXTRACT: note_on channel=5 note=70 velocity=90 time=0
EXTRACT: note_on channel=5 note=82 velocity=90 time=0
EXTRACT: note_on channel=1 note=77 velocity=0 time=0.15694452291666666
EXTRACT: note_on channel=2 note=70 velocity=0 time=0.0083333375
EXTRACT: note_on channel=1 note=75 velocity=80 time=0.0013888895833333334
EXTRACT: note_on channel=2 note=70 velocity=60 time=0
EXTRACT: note_on channel=1 note=75 velocity=0 time=0.15694452291666666
EXTRACT: note_on channel=0 note=82 velocity=0 time=0.0083333375
EXTRACT: note_on channel=2 note=70 velocity=0 time=0
EXTRACT: note_on channel=5 note=70 velocity=0 time=0
EXTRACT: note_on channel=5 note=82 velocity=0 time=0
EXTRACT: note_on channel=0 note=77 velocity=126 time=0.0013888895833333334
EXTRACT: note_on channel=1 note=77 velocity=80 time=0
EXTRACT: note_on channel=2 note=77 velocity=60 time=0
EXTRACT: note_on channel=5 note=65 velocity=90 time=0
EXTRACT: note_on channel=5 note=77 velocity=90 time=0
EXTRACT: note_on channel=2 note=77 velocity=0 time=0.16527786041666667
EXTRACT: note_on channel=2 note=74 velocity=60 time=0.0013888895833333334
EXTRACT: note_on channel=2 note=77 velocity=60 time=0
EXTRACT: note_on channel=1 note=77 velocity=0 time=0.14861118541666668
EXTRACT: note_on channel=2 note=74 velocity=0 time=0.016666675
EXTRACT: note_on channel=2 note=77 velocity=0 time=0
EXTRACT: note_on channel=5 note=65 velocity=0 time=0
EXTRACT: note_on channel=5 note=77 velocity=0 time=0
EXTRACT: note_on channel=5 note=46 velocity=0 time=0
EXTRACT: note_on channel=5 note=53 velocity=0 time=0
EXTRACT: note_on channel=1 note=74 velocity=80 time=0.0013888895833333334
EXTRACT: note_on channel=2 note=74 velocity=60 time=0
EXTRACT: note_on channel=2 note=77 velocity=60 time=0
EXTRACT: note_on channel=5 note=65 velocity=90 time=0
EXTRACT: note_on channel=5 note=74 velocity=90 time=0
EXTRACT: note_on channel=5 note=46 velocity=90 time=0
EXTRACT: note_on channel=5 note=53 velocity=90 time=0
EXTRACT: note_on channel=0 note=77 velocity=0 time=0.16527786041666667
EXTRACT: note_on channel=5 note=65 velocity=0 time=0
EXTRACT: note_on channel=5 note=74 velocity=0 time=0
EXTRACT: note_on channel=0 note=74 velocity=126 time=0.0013888895833333334
EXTRACT: note_on channel=5 note=65 velocity=90 time=0
EXTRACT: note_on channel=5 note=74 velocity=90 time=0
EXTRACT: note_on channel=1 note=74 velocity=0 time=0.14861118541666668
EXTRACT: note_on channel=2 note=74 velocity=0 time=0.016666675
EXTRACT: note_on channel=2 note=77 velocity=0 time=0
EXTRACT: note_on channel=5 note=65 velocity=0 time=0
EXTRACT: note_on channel=5 note=74 velocity=0 time=0
EXTRACT: note_on channel=2 note=77 velocity=60 time=0.0013888895833333334
EXTRACT: note_on channel=5 note=74 velocity=90 time=0
EXTRACT: note_on channel=2 note=77 velocity=0 time=0.16527786041666667
EXTRACT: note_on channel=5 note=74 velocity=0 time=0
EXTRACT: note_on channel=2 note=77 velocity=60 time=0.0013888895833333334
EXTRACT: note_on channel=5 note=74 velocity=90 time=0
EXTRACT: note_on channel=0 note=74 velocity=0 time=0.16527786041666667
EXTRACT: note_on channel=2 note=77 velocity=0 time=0
EXTRACT: note_on channel=5 note=74 velocity=0 time=0
EXTRACT: note_on channel=0 note=77 velocity=126 time=0.0013888895833333334
EXTRACT: note_on channel=1 note=72 velocity=80 time=0
EXTRACT: note_on channel=2 note=70 velocity=60 time=0
EXTRACT: note_on channel=2 note=77 velocity=60 time=0
EXTRACT: note_on channel=5 note=65 velocity=90 time=0
EXTRACT: note_on channel=5 note=70 velocity=90 time=0
EXTRACT: note_on channel=1 note=72 velocity=0 time=0.15694452291666666
EXTRACT: note_on channel=1 note=70 velocity=80 time=0.009722227083333333
EXTRACT: note_on channel=1 note=70 velocity=0 time=0.15694452291666666
EXTRACT: note_on channel=1 note=70 velocity=80 time=0.009722227083333333
EXTRACT: note_on channel=1 note=70 velocity=0 time=0.31527793541666665
EXTRACT: note_on channel=2 note=70 velocity=0 time=0.016666675
EXTRACT: note_on channel=2 note=77 velocity=0 time=0
EXTRACT: note_on channel=5 note=65 velocity=0 time=0
EXTRACT: note_on channel=5 note=70 velocity=0 time=0
EXTRACT: note_on channel=5 note=46 velocity=0 time=0
EXTRACT: note_on channel=5 note=53 velocity=0 time=0
EXTRACT: note_on channel=1 note=77 velocity=90 time=0.0013888895833333334
EXTRACT: note_on channel=2 note=70 velocity=60 time=0
EXTRACT: note_on channel=2 note=77 velocity=60 time=0
EXTRACT: note_on channel=5 note=63 velocity=90 time=0
EXTRACT: note_on channel=5 note=70 velocity=90 time=0
EXTRACT: note_on channel=5 note=39 velocity=90 time=0
EXTRACT: note_on channel=5 note=46 velocity=90 time=0
EXTRACT: note_on channel=1 note=77 velocity=0 time=0.31527793541666665
EXTRACT: note_on channel=0 note=77 velocity=0 time=0.016666675
EXTRACT: note_on channel=2 note=70 velocity=0 time=0
EXTRACT: note_on channel=2 note=77 velocity=0 time=0
EXTRACT: note_on channel=0 note=75 velocity=126 time=0.0013888895833333334
EXTRACT: note_on channel=1 note=75 velocity=90 time=0
EXTRACT: note_on channel=2 note=75 velocity=60 time=0
EXTRACT: note_on channel=0 note=75 velocity=0 time=0.16527786041666667
EXTRACT: note_on channel=0 note=74 velocity=126 time=0.0013888895833333334
EXTRACT: note_on channel=1 note=75 velocity=0 time=0.14861118541666668
EXTRACT: note_on channel=0 note=74 velocity=0 time=0.016666675
EXTRACT: note_on channel=2 note=75 velocity=0 time=0
EXTRACT: note_on channel=5 note=63 velocity=0 time=0
EXTRACT: note_on channel=5 note=70 velocity=0 time=0
EXTRACT: note_on channel=0 note=72 velocity=126 time=0.0013888895833333334
EXTRACT: note_on channel=1 note=74 velocity=90 time=0
EXTRACT: note_on channel=2 note=74 velocity=60 time=0
EXTRACT: note_on channel=5 note=67 velocity=90 time=0
EXTRACT: note_on channel=5 note=72 velocity=90 time=0
EXTRACT: note_on channel=2 note=74 velocity=0 time=0.16527786041666667
EXTRACT: note_on channel=2 note=72 velocity=60 time=0.0013888895833333334
EXTRACT: note_on channel=1 note=74 velocity=0 time=0.14861118541666668
EXTRACT: note_on channel=2 note=72 velocity=0 time=0.016666675
EXTRACT: note_on channel=1 note=72 velocity=90 time=0.0013888895833333334
EXTRACT: note_on channel=2 note=72 velocity=60 time=0
EXTRACT: note_on channel=1 note=72 velocity=0 time=0.15694452291666666
EXTRACT: note_on channel=1 note=72 velocity=90 time=0.009722227083333333
EXTRACT: note_on channel=1 note=72 velocity=0 time=0.15694452291666666
EXTRACT: note_on channel=2 note=72 velocity=0 time=0.0083333375
EXTRACT: note_on channel=5 note=39 velocity=0 time=0
EXTRACT: note_on channel=5 note=46 velocity=0 time=0
EXTRACT: note_on channel=1 note=72 velocity=90 time=0.0013888895833333334
EXTRACT: note_on channel=2 note=60 velocity=60 time=0
EXTRACT: note_on channel=2 note=67 velocity=60 time=0
EXTRACT: note_on channel=2 note=72 velocity=60 time=0
EXTRACT: note_on channel=5 note=39 velocity=90 time=0
EXTRACT: note_on channel=5 note=46 velocity=90 time=0
EXTRACT: note_on channel=1 note=72 velocity=0 time=0.31527793541666665
EXTRACT: note_on channel=1 note=72 velocity=90 time=0.018055564583333333
EXTRACT: note_on channel=1 note=72 velocity=0 time=0.31527793541666665
EXTRACT: note_on channel=1 note=79 velocity=90 time=0.018055564583333333
EXTRACT: note_on channel=1 note=79 velocity=0 time=0.31527793541666665
EXTRACT: note_on channel=1 note=79 velocity=90 time=0.018055564583333333
EXTRACT: note_on channel=1 note=79 velocity=0 time=0.31527793541666665
EXTRACT: note_on channel=0 note=72 velocity=0 time=0.016666675
EXTRACT: note_on channel=2 note=60 velocity=0 time=0
EXTRACT: note_on channel=2 note=67 velocity=0 time=0
EXTRACT: note_on channel=2 note=72 velocity=0 time=0
EXTRACT: note_on channel=5 note=67 velocity=0 time=0
EXTRACT: note_on channel=5 note=72 velocity=0 time=0
EXTRACT: note_on channel=5 note=39 velocity=0 time=0
EXTRACT: note_on channel=5 note=46 velocity=0 time=0
EXTRACT: note_on channel=5 note=46 velocity=80 time=0.0013888895833333334
EXTRACT: note_on channel=5 note=53 velocity=80 time=0.08750004375
EXTRACT: note_on channel=5 note=58 velocity=80 time=0.08888893333333334
EXTRACT: note_on channel=0 note=65 velocity=80 time=0.15694452291666666
EXTRACT: note_on channel=0 note=65 velocity=0 time=0.3319446104166667
EXTRACT: note_on channel=0 note=65 velocity=80 time=0.0013888895833333334
EXTRACT: note_on channel=5 note=65 velocity=80 time=0
EXTRACT: note_on channel=5 note=70 velocity=80 time=0
EXTRACT: note_on channel=5 note=77 velocity=80 time=0
EXTRACT: note_on channel=0 note=65 velocity=0 time=0.4986113604166667
EXTRACT: note_on channel=0 note=62 velocity=80 time=0.0013888895833333334
EXTRACT: note_on channel=5 note=53 velocity=0 time=0.16388897083333334
EXTRACT: note_on channel=5 note=58 velocity=0 time=0
EXTRACT: note_on channel=0 note=62 velocity=0 time=0.0013888895833333334
EXTRACT: note_on channel=5 note=65 velocity=0 time=0
EXTRACT: note_on channel=5 note=70 velocity=0 time=0
EXTRACT: note_on channel=5 note=77 velocity=0 time=0
EXTRACT: note_on channel=5 note=46 velocity=0 time=0
EXTRACT: note_on channel=0 note=62 velocity=80 time=0.0013888895833333334
EXTRACT: note_on channel=5 note=65 velocity=80 time=0
EXTRACT: note_on channel=5 note=74 velocity=80 time=0
EXTRACT: note_on channel=5 note=50 velocity=80 time=0
EXTRACT: note_on channel=0 note=62 velocity=0 time=0.3319446104166667
EXTRACT: note_on channel=0 note=60 velocity=80 time=0.0013888895833333334
EXTRACT: note_on channel=0 note=60 velocity=0 time=0.3319446104166667
EXTRACT: note_on channel=5 note=65 velocity=0 time=0
EXTRACT: note_on channel=5 note=74 velocity=0 time=0
EXTRACT: note_on channel=0 note=58 velocity=80 time=0.0013888895833333334
EXTRACT: note_on channel=5 note=65 velocity=80 time=0
EXTRACT: note_on channel=5 note=70 velocity=80 time=0
EXTRACT: note_on channel=0 note=58 velocity=0 time=0.6652781104166667
EXTRACT: note_on channel=5 note=65 velocity=0 time=0
EXTRACT: note_on channel=5 note=70 velocity=0 time=0
EXTRACT: note_on channel=5 note=50 velocity=0 time=0
EXTRACT: note_on channel=5 note=41 velocity=80 time=0.0013888895833333334
EXTRACT: note_on channel=5 note=48 velocity=80 time=0.08750004375
EXTRACT: note_on channel=5 note=53 velocity=80 time=0.08888893333333334
EXTRACT: note_on channel=0 note=65 velocity=80 time=0.15694452291666666
EXTRACT: note_on channel=0 note=65 velocity=0 time=0.16527786041666667
EXTRACT: note_on channel=0 note=65 velocity=80 time=0.0013888895833333334
EXTRACT: note_on channel=0 note=65 velocity=0 time=0.16527786041666667
EXTRACT: note_on channel=0 note=65 velocity=80 time=0.0013888895833333334
EXTRACT: note_on channel=5 note=65 velocity=80 time=0
EXTRACT: note_on channel=5 note=70 velocity=80 time=0
EXTRACT: note_on channel=5 note=77 velocity=80 time=0
EXTRACT: note_on channel=0 note=65 velocity=0 time=0.16527786041666667
EXTRACT: note_on channel=0 note=62 velocity=80 time=0.0013888895833333334
EXTRACT: note_on channel=0 note=62 velocity=0 time=0.3319446104166667
EXTRACT: note_on channel=0 note=62 velocity=80 time=0.0013888895833333334
EXTRACT: note_on channel=5 note=48 velocity=0 time=0.16388897083333334
EXTRACT: note_on channel=5 note=53 velocity=0 time=0
EXTRACT: note_on channel=5 note=65 velocity=0 time=0.0013888895833333334
EXTRACT: note_on channel=5 note=70 velocity=0 time=0
EXTRACT: note_on channel=5 note=77 velocity=0 time=0
EXTRACT: note_on channel=5 note=41 velocity=0 time=0
EXTRACT: note_on channel=5 note=65 velocity=80 time=0.0013888895833333334
EXTRACT: note_on channel=5 note=70 velocity=80 time=0
EXTRACT: note_on channel=5 note=77 velocity=80 time=0
EXTRACT: note_on channel=5 note=53 velocity=80 time=0
EXTRACT: note_on channel=5 note=65 velocity=0 time=0.6652781104166667
EXTRACT: note_on channel=5 note=70 velocity=0 time=0
EXTRACT: note_on channel=5 note=77 velocity=0 time=0
EXTRACT: note_on channel=5 note=65 velocity=80 time=0.0013888895833333334
EXTRACT: note_on channel=5 note=74 velocity=80 time=0
EXTRACT: note_on channel=0 note=62 velocity=0 time=0.6652781104166667
EXTRACT: note_on channel=5 note=65 velocity=0 time=0
EXTRACT: note_on channel=5 note=74 velocity=0 time=0
EXTRACT: note_on channel=5 note=53 velocity=0 time=0
EXTRACT: note_on channel=5 note=43 velocity=80 time=0.0013888895833333334
EXTRACT: note_on channel=5 note=50 velocity=80 time=0.08750004375
EXTRACT: note_on channel=0 note=65 velocity=80 time=0.07916670625
EXTRACT: note_on channel=5 note=55 velocity=80 time=0.009722227083333333
EXTRACT: note_on channel=0 note=65 velocity=0 time=0.15555563333333333
EXTRACT: note_on channel=0 note=65 velocity=80 time=0.0013888895833333334
EXTRACT: note_on channel=0 note=65 velocity=0 time=0.16527786041666667
EXTRACT: note_on channel=0 note=65 velocity=80 time=0.0013888895833333334
EXTRACT: note_on channel=0 note=65 velocity=0 time=0.16527786041666667
EXTRACT: note_on channel=0 note=65 velocity=80 time=0.0013888895833333334
EXTRACT: note_on channel=5 note=65 velocity=80 time=0
EXTRACT: note_on channel=5 note=70 velocity=80 time=0
EXTRACT: note_on channel=5 note=77 velocity=80 time=0
EXTRACT: note_on channel=0 note=65 velocity=0 time=0.3319446104166667
EXTRACT: note_on channel=0 note=62 velocity=80 time=0.0013888895833333334
EXTRACT: note_on channel=5 note=50 velocity=0 time=0.33055572083333334
EXTRACT: note_on channel=5 note=55 velocity=0 time=0
EXTRACT: note_on channel=0 note=62 velocity=0 time=0.0013888895833333334
EXTRACT: note_on channel=5 note=65 velocity=0 time=0
EXTRACT: note_on channel=5 note=70 velocity=0 time=0
EXTRACT: note_on channel=5 note=77 velocity=0 time=0
EXTRACT: note_on channel=5 note=43 velocity=0 time=0
EXTRACT: note_on channel=0 note=62 velocity=80 time=0.0013888895833333334
EXTRACT: note_on channel=5 note=65 velocity=80 time=0
EXTRACT: note_on channel=5 note=74 velocity=80 time=0
EXTRACT: note_on channel=5 note=50 velocity=80 time=0
EXTRACT: note_on channel=0 note=62 velocity=0 time=0.4986113604166667
EXTRACT: note_on channel=0 note=60 velocity=80 time=0.0013888895833333334
EXTRACT: note_on channel=0 note=60 velocity=0 time=0.16527786041666667
EXTRACT: note_on channel=5 note=65 velocity=0 time=0
EXTRACT: note_on channel=5 note=74 velocity=0 time=0
EXTRACT: note_on channel=0 note=58 velocity=80 time=0.0013888895833333334
EXTRACT: note_on channel=5 note=65 velocity=80 time=0
EXTRACT: note_on channel=5 note=70 velocity=80 time=0
EXTRACT: note_on channel=0 note=58 velocity=0 time=0.3319446104166667
EXTRACT: note_on channel=0 note=58 velocity=80 time=0.0013888895833333334
EXTRACT: note_on channel=0 note=58 velocity=0 time=0.3319446104166667
EXTRACT: note_on channel=5 note=65 velocity=0 time=0
EXTRACT: note_on channel=5 note=70 velocity=0 time=0
EXTRACT: note_on channel=5 note=50 velocity=0 time=0
EXTRACT: note_on channel=0 note=63 velocity=80 time=0.0013888895833333334
EXTRACT: note_on channel=5 note=46 velocity=80 time=0
EXTRACT: note_on channel=5 note=51 velocity=80 time=0.08750004375
EXTRACT: note_on channel=0 note=63 velocity=0 time=0.07777781666666667
EXTRACT: note_on channel=0 note=63 velocity=80 time=0.0013888895833333334
EXTRACT: note_on channel=5 note=58 velocity=80 time=0.009722227083333333
EXTRACT: note_on channel=0 note=63 velocity=0 time=0.32222238333333336
EXTRACT: note_on channel=0 note=63 velocity=80 time=0.0013888895833333334
EXTRACT: note_on channel=0 note=63 velocity=0 time=0.16527786041666667
EXTRACT: note_on channel=0 note=63 velocity=80 time=0.0013888895833333334
EXTRACT: note_on channel=5 note=63 velocity=80 time=0
EXTRACT: note_on channel=5 note=70 velocity=80 time=0
EXTRACT: note_on channel=5 note=75 velocity=80 time=0
EXTRACT: note_on channel=0 note=63 velocity=0 time=0.16527786041666667
EXTRACT: note_on channel=0 note=62 velocity=80 time=0.0013888895833333334
EXTRACT: note_on channel=0 note=62 velocity=0 time=0.16527786041666667
EXTRACT: note_on channel=0 note=63 velocity=80 time=0.0013888895833333334
EXTRACT: note_on channel=0 note=63 velocity=0 time=0.16527786041666667
EXTRACT: note_on channel=0 note=62 velocity=80 time=0.0013888895833333334
EXTRACT: note_on channel=5 note=51 velocity=0 time=0.16388897083333334
EXTRACT: note_on channel=5 note=58 velocity=0 time=0
EXTRACT: note_on channel=5 note=63 velocity=0 time=0.0013888895833333334
EXTRACT: note_on channel=5 note=70 velocity=0 time=0
EXTRACT: note_on channel=5 note=75 velocity=0 time=0
EXTRACT: note_on channel=5 note=46 velocity=0 time=0
EXTRACT: note_on channel=5 note=63 velocity=80 time=0.0013888895833333334
EXTRACT: note_on channel=5 note=70 velocity=80 time=0
EXTRACT: note_on channel=5 note=75 velocity=80 time=0
EXTRACT: note_on channel=5 note=51 velocity=80 time=0
EXTRACT: note_on channel=5 note=63 velocity=0 time=0.6652781104166667
EXTRACT: note_on channel=5 note=70 velocity=0 time=0
EXTRACT: note_on channel=5 note=75 velocity=0 time=0
EXTRACT: note_on channel=5 note=51 velocity=0 time=0
EXTRACT: note_on channel=5 note=65 velocity=80 time=0.0013888895833333334
EXTRACT: note_on channel=5 note=74 velocity=80 time=0
EXTRACT: note_on channel=5 note=51 velocity=80 time=0
EXTRACT: note_on channel=5 note=51 velocity=0 time=0.3319446104166667
EXTRACT: note_on channel=5 note=51 velocity=80 time=0.0013888895833333334
EXTRACT: note_on channel=0 note=62 velocity=0 time=0.3319446104166667
EXTRACT: note_on channel=5 note=65 velocity=0 time=0
EXTRACT: note_on channel=5 note=74 velocity=0 time=0
EXTRACT: note_on channel=5 note=51 velocity=0 time=0
EXTRACT: note_on channel=1 note=65 velocity=96 time=0.0013888895833333334
EXTRACT: note_on channel=2 note=77 velocity=96 time=0
EXTRACT: note_on channel=5 note=65 velocity=110 time=0
EXTRACT: note_on channel=5 note=46 velocity=110 time=0
EXTRACT: note_on channel=5 note=53 velocity=110 time=0
EXTRACT: note_on channel=1 note=65 velocity=0 time=0.31527793541666665
EXTRACT: note_on channel=2 note=77 velocity=0 time=0.016666675
EXTRACT: note_on channel=5 note=65 velocity=0 time=0
EXTRACT: note_on channel=0 note=77 velocity=96 time=0.0013888895833333334
EXTRACT: note_on channel=1 note=70 velocity=96 time=0
EXTRACT: note_on channel=2 note=82 velocity=96 time=0
EXTRACT: note_on channel=5 note=70 velocity=110 time=0
EXTRACT: note_on channel=1 note=70 velocity=0 time=0.31527793541666665
EXTRACT: note_on channel=0 note=77 velocity=0 time=0.016666675
EXTRACT: note_on channel=2 note=82 velocity=0 time=0
EXTRACT: note_on channel=5 note=70 velocity=0 time=0
EXTRACT: note_on channel=0 note=77 velocity=96 time=0.0013888895833333334
EXTRACT: note_on channel=1 note=70 velocity=96 time=0
EXTRACT: note_on channel=2 note=82 velocity=96 time=0
EXTRACT: note_on channel=5 note=70 velocity=110 time=0
EXTRACT: note_on channel=1 note=70 velocity=0 time=0.15694452291666666
EXTRACT: note_on channel=1 note=77 velocity=96 time=0.009722227083333333
EXTRACT: note_on channel=1 note=77 velocity=0 time=0.15694452291666666
EXTRACT: note_on channel=2 note=82 velocity=0 time=0.0083333375
EXTRACT: note_on channel=5 note=70 velocity=0 time=0
EXTRACT: note_on channel=1 note=70 velocity=96 time=0.0013888895833333334
EXTRACT: note_on channel=2 note=74 velocity=96 time=0
EXTRACT: note_on channel=5 note=74 velocity=110 time=0
EXTRACT: note_on channel=0 note=77 velocity=0 time=0.16527786041666667
EXTRACT: note_on channel=0 note=74 velocity=96 time=0.0013888895833333334
EXTRACT: note_on channel=1 note=70 velocity=0 time=0.14861118541666668
EXTRACT: note_on channel=0 note=74 velocity=0 time=0.016666675
EXTRACT: note_on channel=2 note=74 velocity=0 time=0
EXTRACT: note_on channel=5 note=74 velocity=0 time=0
EXTRACT: note_on channel=5 note=46 velocity=0 time=0
EXTRACT: note_on channel=5 note=53 velocity=0 time=0
EXTRACT: note_on channel=0 note=74 velocity=96 time=0.0013888895833333334
EXTRACT: note_on channel=1 note=70 velocity=96 time=0
EXTRACT: note_on channel=2 note=74 velocity=96 time=0
EXTRACT: note_on channel=5 note=70 velocity=110 time=0
EXTRACT: note_on channel=5 note=46 velocity=110 time=0
EXTRACT: note_on channel=5 note=53 velocity=110 time=0
EXTRACT: note_on channel=2 note=74 velocity=0 time=0.16527786041666667
EXTRACT: note_on channel=5 note=70 velocity=0 time=0
EXTRACT: note_on channel=2 note=72 velocity=96 time=0.0013888895833333334
EXTRACT: note_on channel=5 note=65 velocity=110 time=0
EXTRACT: note_on channel=1 note=70 velocity=0 time=0.14861118541666668
EXTRACT: note_on channel=2 note=72 velocity=0 time=0.016666675
EXTRACT: note_on channel=5 note=65 velocity=0 time=0
EXTRACT: note_on channel=1 note=72 velocity=96 time=0.0013888895833333334
EXTRACT: note_on channel=2 note=70 velocity=96 time=0
EXTRACT: note_on channel=5 note=65 velocity=110 time=0
EXTRACT: note_on channel=0 note=74 velocity=0 time=0.16527786041666667
EXTRACT: note_on channel=2 note=70 velocity=0 time=0
EXTRACT: note_on channel=0 note=72 velocity=96 time=0.0013888895833333334
EXTRACT: note_on channel=2 note=69 velocity=96 time=0
EXTRACT: note_on channel=1 note=72 velocity=0 time=0.14861118541666668
EXTRACT: note_on channel=0 note=72 velocity=0 time=0.016666675
EXTRACT: note_on channel=2 note=69 velocity=0 time=0
EXTRACT: note_on channel=5 note=65 velocity=0 time=0
EXTRACT: note_on channel=0 note=70 velocity=96 time=0.0013888895833333334
EXTRACT: note_on channel=1 note=70 velocity=96 time=0
EXTRACT: note_on channel=2 note=70 velocity=96 time=0
EXTRACT: note_on channel=5 note=65 velocity=110 time=0
EXTRACT: note_on channel=1 note=70 velocity=0 time=0.15694452291666666
EXTRACT: note_on channel=2 note=70 velocity=0 time=0.0083333375
EXTRACT: note_on channel=5 note=65 velocity=0 time=0
EXTRACT: note_on channel=1 note=74 velocity=96 time=0.0013888895833333334
EXTRACT: note_on channel=2 note=72 velocity=96 time=0
EXTRACT: note_on channel=5 note=62 velocity=110 time=0
EXTRACT: note_on channel=1 note=74 velocity=0 time=0.15694452291666666
EXTRACT: note_on channel=2 note=72 velocity=0 time=0.0083333375
EXTRACT: note_on channel=5 note=62 velocity=0 time=0
EXTRACT: note_on channel=1 note=77 velocity=96 time=0.0013888895833333334
EXTRACT: note_on channel=2 note=74 velocity=96 time=0
EXTRACT: note_on channel=5 note=65 velocity=110 time=0
EXTRACT: note_on channel=2 note=74 velocity=0 time=0.16527786041666667
EXTRACT: note_on channel=5 note=65 velocity=0 time=0
EXTRACT: note_on channel=2 note=75 velocity=96 time=0.0013888895833333334
EXTRACT: note_on channel=5 note=62 velocity=110 time=0
EXTRACT: note_on channel=1 note=77 velocity=0 time=0.14861118541666668
EXTRACT: note_on channel=0 note=70 velocity=0 time=0.016666675
EXTRACT: note_on channel=2 note=75 velocity=0 time=0
EXTRACT: note_on channel=5 note=62 velocity=0 time=0
EXTRACT: note_on channel=5 note=46 velocity=0 time=0
EXTRACT: note_on channel=5 note=53 velocity=0 time=0
EXTRACT: note_on channel=1 note=75 velocity=96 time=0.0013888895833333334
EXTRACT: note_on channel=2 note=75 velocity=96 time=0
EXTRACT: note_on channel=5 note=72 velocity=110 time=0
EXTRACT: note_on channel=5 note=41 velocity=110 time=0
EXTRACT: note_on channel=5 note=48 velocity=110 time=0
EXTRACT: note_on channel=2 note=75 velocity=0 time=0.16527786041666667
EXTRACT: note_on channel=5 note=72 velocity=0 time=0
EXTRACT: note_on channel=2 note=77 velocity=96 time=0.0013888895833333334
EXTRACT: note_on channel=5 note=69 velocity=110 time=0
EXTRACT: note_on channel=1 note=75 velocity=0 time=0.14861118541666668
EXTRACT: note_on channel=2 note=77 velocity=0 time=0.016666675
EXTRACT: note_on channel=5 note=69 velocity=0 time=0
EXTRACT: note_on channel=0 note=77 velocity=96 time=0.0013888895833333334
EXTRACT: note_on channel=1 note=75 velocity=96 time=0
EXTRACT: note_on channel=2 note=75 velocity=96 time=0
EXTRACT: note_on channel=5 note=72 velocity=110 time=0
EXTRACT: note_on channel=2 note=75 velocity=0 time=0.16527786041666667
EXTRACT: note_on channel=5 note=72 velocity=0 time=0
EXTRACT: note_on channel=2 note=77 velocity=96 time=0.0013888895833333334
EXTRACT: note_on channel=5 note=69 velocity=110 time=0
EXTRACT: note_on channel=1 note=75 velocity=0 time=0.14861118541666668
EXTRACT: note_on channel=0 note=77 velocity=0 time=0.016666675
EXTRACT: note_on channel=2 note=77 velocity=0 time=0
EXTRACT: note_on channel=5 note=69 velocity=0 time=0
EXTRACT: note_on channel=0 note=77 velocity=96 time=0.0013888895833333334
EXTRACT: note_on channel=1 note=79 velocity=96 time=0
EXTRACT: note_on channel=2 note=72 velocity=96 time=0
EXTRACT: note_on channel=5 note=72 velocity=110 time=0
EXTRACT: note_on channel=5 note=72 velocity=0 time=0.16527786041666667
EXTRACT: note_on channel=5 note=69 velocity=110 time=0.0013888895833333334
EXTRACT: note_on channel=1 note=79 velocity=0 time=0.14861118541666668
EXTRACT: note_on channel=2 note=72 velocity=0 time=0.016666675
EXTRACT: note_on channel=5 note=69 velocity=0 time=0
EXTRACT: note_on channel=1 note=79 velocity=96 time=0.0013888895833333334
EXTRACT: note_on channel=2 note=75 velocity=96 time=0
EXTRACT: note_on channel=5 note=72 velocity=110 time=0
EXTRACT: note_on channel=0 note=77 velocity=0 time=0.16527786041666667
EXTRACT: note_on channel=2 note=75 velocity=0 time=0
EXTRACT: note_on channel=5 note=72 velocity=0 time=0
EXTRACT: note_on channel=0 note=74 velocity=96 time=0.0013888895833333334
EXTRACT: note_on channel=2 note=79 velocity=96 time=0
EXTRACT: note_on channel=5 note=69 velocity=110 time=0
EXTRACT: note_on channel=1 note=79 velocity=0 time=0.14861118541666668
EXTRACT: note_on channel=2 note=79 velocity=0 time=0.016666675
EXTRACT: note_on channel=5 note=69 velocity=0 time=0
EXTRACT: note_on channel=5 note=41 velocity=0 time=0
EXTRACT: note_on channel=5 note=48 velocity=0 time=0
EXTRACT: note_on channel=1 note=74 velocity=96 time=0.0013888895833333334
EXTRACT: note_on channel=2 note=75 velocity=96 time=0
EXTRACT: note_on channel=5 note=69 velocity=110 time=0
EXTRACT: note_on channel=5 note=41 velocity=110 time=0
EXTRACT: note_on channel=5 note=48 velocity=110 time=0
EXTRACT: note_on channel=2 note=75 velocity=0 time=0.16527786041666667
EXTRACT: note_on channel=5 note=69 velocity=0 time=0
EXTRACT: note_on channel=2 note=77 velocity=96 time=0.0013888895833333334
EXTRACT: note_on channel=5 note=65 velocity=110 time=0
EXTRACT: note_on channel=1 note=74 velocity=0 time=0.14861118541666668
EXTRACT: note_on channel=0 note=74 velocity=0 time=0.016666675
EXTRACT: note_on channel=2 note=77 velocity=0 time=0
EXTRACT: note_on channel=5 note=65 velocity=0 time=0
EXTRACT: note_on channel=0 note=74 velocity=96 time=0.0013888895833333334
EXTRACT: note_on channel=1 note=74 velocity=96 time=0
EXTRACT: note_on channel=2 note=75 velocity=96 time=0
EXTRACT: note_on channel=5 note=69 velocity=110 time=0
EXTRACT: note_on channel=2 note=75 velocity=0 time=0.16527786041666667
EXTRACT: note_on channel=5 note=69 velocity=0 time=0
EXTRACT: note_on channel=2 note=77 velocity=96 time=0.0013888895833333334
EXTRACT: note_on channel=5 note=65 velocity=110 time=0
EXTRACT: note_on channel=1 note=74 velocity=0 time=0.14861118541666668
EXTRACT: note_on channel=2 note=77 velocity=0 time=0.016666675
EXTRACT: note_on channel=5 note=65 velocity=0 time=0
EXTRACT: note_on channel=1 note=75 velocity=96 time=0.0013888895833333334
EXTRACT: note_on channel=2 note=75 velocity=96 time=0
EXTRACT: note_on channel=5 note=69 velocity=110 time=0
EXTRACT: note_on channel=1 note=75 velocity=0 time=0.15694452291666666
EXTRACT: note_on channel=2 note=75 velocity=0 time=0.0083333375
EXTRACT: note_on channel=5 note=69 velocity=0 time=0
EXTRACT: note_on channel=1 note=77 velocity=96 time=0.0013888895833333334
EXTRACT: note_on channel=2 note=77 velocity=96 time=0
EXTRACT: note_on channel=5 note=65 velocity=110 time=0
EXTRACT: note_on channel=1 note=77 velocity=0 time=0.15694452291666666
EXTRACT: note_on channel=2 note=77 velocity=0 time=0.0083333375
EXTRACT: note_on channel=5 note=65 velocity=0 time=0
EXTRACT: note_on channel=1 note=75 velocity=96 time=0.0013888895833333334
EXTRACT: note_on channel=2 note=75 velocity=96 time=0
EXTRACT: note_on channel=5 note=69 velocity=110 time=0
EXTRACT: note_on channel=1 note=75 velocity=0 time=0.15694452291666666
EXTRACT: note_on channel=2 note=75 velocity=0 time=0.0083333375
EXTRACT: note_on channel=5 note=69 velocity=0 time=0
EXTRACT: note_on channel=1 note=77 velocity=96 time=0.0013888895833333334
EXTRACT: note_on channel=2 note=77 velocity=96 time=0
EXTRACT: note_on channel=5 note=65 velocity=110 time=0
EXTRACT: note_on channel=1 note=77 velocity=0 time=0.15694452291666666
EXTRACT: note_on channel=0 note=74 velocity=0 time=0.0083333375
EXTRACT: note_on channel=2 note=77 velocity=0 time=0
EXTRACT: note_on channel=5 note=65 velocity=0 time=0
EXTRACT: note_on channel=5 note=41 velocity=0 time=0
EXTRACT: note_on channel=5 note=48 velocity=0 time=0
EXTRACT: note_on channel=1 note=79 velocity=96 time=0.0013888895833333334
EXTRACT: note_on channel=2 note=81 velocity=96 time=0
EXTRACT: note_on channel=5 note=70 velocity=110 time=0
EXTRACT: note_on channel=5 note=43 velocity=110 time=0
EXTRACT: note_on channel=5 note=50 velocity=110 time=0
EXTRACT: note_on channel=5 note=70 velocity=0 time=0.16527786041666667
EXTRACT: note_on channel=0 note=77 velocity=96 time=0.0013888895833333334
EXTRACT: note_on channel=5 note=67 velocity=110 time=0
EXTRACT: note_on channel=1 note=79 velocity=0 time=0.14861118541666668
EXTRACT: note_on channel=2 note=81 velocity=0 time=0.016666675
EXTRACT: note_on channel=5 note=67 velocity=0 time=0
EXTRACT: note_on channel=1 note=79 velocity=96 time=0.0013888895833333334
EXTRACT: note_on channel=2 note=74 velocity=96 time=0
EXTRACT: note_on channel=5 note=70 velocity=110 time=0
EXTRACT: note_on channel=5 note=70 velocity=0 time=0.16527786041666667
EXTRACT: note_on channel=5 note=67 velocity=110 time=0.0013888895833333334
EXTRACT: note_on channel=1 note=79 velocity=0 time=0.14861118541666668
EXTRACT: note_on channel=0 note=77 velocity=0 time=0.016666675
EXTRACT: note_on channel=2 note=74 velocity=0 time=0
EXTRACT: note_on channel=5 note=67 velocity=0 time=0
EXTRACT: note_on channel=0 note=77 velocity=96 time=0.0013888895833333334
EXTRACT: note_on channel=1 note=79 velocity=96 time=0
EXTRACT: note_on channel=2 note=77 velocity=96 time=0
EXTRACT: note_on channel=5 note=70 velocity=110 time=0
EXTRACT: note_on channel=5 note=70 velocity=0 time=0.16527786041666667
EXTRACT: note_on channel=5 note=67 velocity=110 time=0.0013888895833333334
EXTRACT: note_on channel=1 note=79 velocity=0 time=0.14861118541666668
EXTRACT: note_on channel=0 note=77 velocity=0 time=0.016666675
EXTRACT: note_on channel=2 note=77 velocity=0 time=0
EXTRACT: note_on channel=5 note=67 velocity=0 time=0
EXTRACT: note_on channel=0 note=74 velocity=96 time=0.0013888895833333334
EXTRACT: note_on channel=1 note=77 velocity=96 time=0
EXTRACT: note_on channel=2 note=75 velocity=96 time=0
EXTRACT: note_on channel=5 note=70 velocity=110 time=0
EXTRACT: note_on channel=1 note=77 velocity=0 time=0.15694452291666666
EXTRACT: note_on channel=0 note=74 velocity=0 time=0.0083333375
EXTRACT: note_on channel=5 note=70 velocity=0 time=0
EXTRACT: note_on channel=0 note=74 velocity=96 time=0.0013888895833333334
EXTRACT: note_on channel=1 note=74 velocity=96 time=0
EXTRACT: note_on channel=5 note=67 velocity=110 time=0
EXTRACT: note_on channel=1 note=74 velocity=0 time=0.15694452291666666
EXTRACT: note_on channel=0 note=74 velocity=0 time=0.0083333375
EXTRACT: note_on channel=2 note=75 velocity=0 time=0
EXTRACT: note_on channel=5 note=67 velocity=0 time=0
EXTRACT: note_on channel=5 note=43 velocity=0 time=0
EXTRACT: note_on channel=5 note=50 velocity=0 time=0
EXTRACT: note_on channel=0 note=74 velocity=96 time=0.0013888895833333334
EXTRACT: note_on channel=1 note=74 velocity=96 time=0
EXTRACT: note_on channel=2 note=72 velocity=96 time=0
EXTRACT: note_on channel=5 note=70 velocity=110 time=0
EXTRACT: note_on channel=5 note=43 velocity=110 time=0
EXTRACT: note_on channel=5 note=50 velocity=110 time=0
EXTRACT: note_on channel=2 note=72 velocity=0 time=0.16527786041666667
EXTRACT: note_on channel=5 note=70 velocity=0 time=0
EXTRACT: note_on channel=2 note=74 velocity=96 time=0.0013888895833333334
EXTRACT: note_on channel=5 note=67 velocity=110 time=0
EXTRACT: note_on channel=1 note=74 velocity=0 time=0.14861118541666668
EXTRACT: note_on channel=0 note=74 velocity=0 time=0.016666675
EXTRACT: note_on channel=2 note=74 velocity=0 time=0
EXTRACT: note_on channel=5 note=67 velocity=0 time=0
EXTRACT: note_on channel=0 note=72 velocity=96 time=0.0013888895833333334
EXTRACT: note_on channel=1 note=79 velocity=96 time=0
EXTRACT: note_on channel=2 note=72 velocity=96 time=0
EXTRACT: note_on channel=5 note=67 velocity=110 time=0
EXTRACT: note_on channel=2 note=72 velocity=0 time=0.16527786041666667
EXTRACT: note_on channel=2 note=74 velocity=96 time=0.0013888895833333334
EXTRACT: note_on channel=1 note=79 velocity=0 time=0.14861118541666668
EXTRACT: note_on channel=0 note=72 velocity=0 time=0.016666675
EXTRACT: note_on channel=2 note=74 velocity=0 time=0
EXTRACT: note_on channel=5 note=67 velocity=0 time=0
EXTRACT: note_on channel=0 note=70 velocity=96 time=0.0013888895833333334
EXTRACT: note_on channel=1 note=79 velocity=96 time=0
EXTRACT: note_on channel=2 note=77 velocity=96 time=0
EXTRACT: note_on channel=5 note=67 velocity=110 time=0
EXTRACT: note_on channel=2 note=77 velocity=0 time=0.16527786041666667
EXTRACT: note_on channel=5 note=67 velocity=0 time=0
EXTRACT: note_on channel=2 note=74 velocity=96 time=0.0013888895833333334
EXTRACT: note_on channel=5 note=62 velocity=110 time=0
EXTRACT: note_on channel=1 note=79 velocity=0 time=0.14861118541666668
EXTRACT: note_on channel=2 note=74 velocity=0 time=0.016666675
EXTRACT: note_on channel=5 note=62 velocity=0 time=0
EXTRACT: note_on channel=1 note=74 velocity=96 time=0.0013888895833333334
EXTRACT: note_on channel=2 note=77 velocity=96 time=0
EXTRACT: note_on channel=5 note=67 velocity=110 time=0
EXTRACT: note_on channel=1 note=74 velocity=0 time=0.15694452291666666
EXTRACT: note_on channel=2 note=77 velocity=0 time=0.0083333375
EXTRACT: note_on channel=5 note=67 velocity=0 time=0
EXTRACT: note_on channel=1 note=74 velocity=96 time=0.0013888895833333334
EXTRACT: note_on channel=2 note=74 velocity=96 time=0
EXTRACT: note_on channel=5 note=62 velocity=110 time=0
EXTRACT: note_on channel=1 note=74 velocity=0 time=0.15694452291666666
EXTRACT: note_on channel=0 note=70 velocity=0 time=0.0083333375
EXTRACT: note_on channel=2 note=74 velocity=0 time=0
EXTRACT: note_on channel=5 note=62 velocity=0 time=0
EXTRACT: note_on channel=5 note=43 velocity=0 time=0
EXTRACT: note_on channel=5 note=50 velocity=0 time=0
EXTRACT: note_on channel=0 note=75 velocity=96 time=0.0013888895833333334
EXTRACT: note_on channel=1 note=75 velocity=96 time=0
EXTRACT: note_on channel=2 note=79 velocity=96 time=0
EXTRACT: note_on channel=5 note=70 velocity=110 time=0
EXTRACT: note_on channel=5 note=39 velocity=110 time=0
EXTRACT: note_on channel=5 note=46 velocity=110 time=0
EXTRACT: note_on channel=5 note=70 velocity=0 time=0.16527786041666667
EXTRACT: note_on channel=5 note=67 velocity=110 time=0.0013888895833333334
EXTRACT: note_on channel=1 note=75 velocity=0 time=0.14861118541666668
EXTRACT: note_on channel=2 note=79 velocity=0 time=0.016666675
EXTRACT: note_on channel=5 note=67 velocity=0 time=0
EXTRACT: note_on channel=1 note=75 velocity=96 time=0.0013888895833333334
EXTRACT: note_on channel=2 note=81 velocity=96 time=0
EXTRACT: note_on channel=5 note=70 velocity=110 time=0
EXTRACT: note_on channel=0 note=75 velocity=0 time=0.16527786041666667
EXTRACT: note_on channel=2 note=81 velocity=0 time=0
EXTRACT: note_on channel=5 note=70 velocity=0 time=0
EXTRACT: note_on channel=0 note=74 velocity=96 time=0.0013888895833333334
EXTRACT: note_on channel=2 note=82 velocity=96 time=0
EXTRACT: note_on channel=5 note=67 velocity=110 time=0
EXTRACT: note_on channel=1 note=75 velocity=0 time=0.14861118541666668
EXTRACT: note_on channel=2 note=82 velocity=0 time=0.016666675
EXTRACT: note_on channel=5 note=67 velocity=0 time=0
EXTRACT: note_on channel=1 note=75 velocity=96 time=0.0013888895833333334
EXTRACT: note_on channel=2 note=79 velocity=96 time=0
EXTRACT: note_on channel=5 note=67 velocity=110 time=0
EXTRACT: note_on channel=0 note=74 velocity=0 time=0.16527786041666667
EXTRACT: note_on channel=0 note=74 velocity=96 time=0.0013888895833333334
EXTRACT: note_on channel=1 note=75 velocity=0 time=0.14861118541666668
EXTRACT: note_on channel=0 note=74 velocity=0 time=0.016666675
EXTRACT: note_on channel=2 note=79 velocity=0 time=0
EXTRACT: note_on channel=0 note=75 velocity=96 time=0.0013888895833333334
EXTRACT: note_on channel=1 note=75 velocity=96 time=0
EXTRACT: note_on channel=2 note=79 velocity=96 time=0
EXTRACT: note_on channel=0 note=75 velocity=0 time=0.16527786041666667
EXTRACT: note_on channel=0 note=74 velocity=96 time=0.0013888895833333334
EXTRACT: note_on channel=1 note=75 velocity=0 time=0.14861118541666668
EXTRACT: note_on channel=2 note=79 velocity=0 time=0.016666675
EXTRACT: note_on channel=5 note=67 velocity=0 time=0
EXTRACT: note_on channel=5 note=39 velocity=0 time=0
EXTRACT: note_on channel=5 note=46 velocity=0 time=0
EXTRACT: note_on channel=1 note=72 velocity=96 time=0.0013888895833333334
EXTRACT: note_on channel=2 note=81 velocity=96 time=0
EXTRACT: note_on channel=5 note=67 velocity=110 time=0
EXTRACT: note_on channel=5 note=39 velocity=110 time=0
EXTRACT: note_on channel=5 note=46 velocity=110 time=0
EXTRACT: note_on channel=5 note=67 velocity=0 time=0.16527786041666667
EXTRACT: note_on channel=5 note=63 velocity=110 time=0.0013888895833333334
EXTRACT: note_on channel=1 note=72 velocity=0 time=0.14861118541666668
EXTRACT: note_on channel=2 note=81 velocity=0 time=0.016666675
EXTRACT: note_on channel=5 note=63 velocity=0 time=0
EXTRACT: note_on channel=1 note=75 velocity=96 time=0.0013888895833333334
EXTRACT: note_on channel=2 note=79 velocity=96 time=0
EXTRACT: note_on channel=5 note=67 velocity=110 time=0
EXTRACT: note_on channel=5 note=67 velocity=0 time=0.16527786041666667
EXTRACT: note_on channel=5 note=63 velocity=110 time=0.0013888895833333334
EXTRACT: note_on channel=1 note=75 velocity=0 time=0.14861118541666668
EXTRACT: note_on channel=2 note=79 velocity=0 time=0.016666675
EXTRACT: note_on channel=5 note=63 velocity=0 time=0
EXTRACT: note_on channel=1 note=79 velocity=96 time=0.0013888895833333334
EXTRACT: note_on channel=2 note=74 velocity=96 time=0
EXTRACT: note_on channel=5 note=67 velocity=110 time=0
EXTRACT: note_on channel=1 note=79 velocity=0 time=0.15694452291666666
EXTRACT: note_on channel=2 note=74 velocity=0 time=0.0083333375
EXTRACT: note_on channel=5 note=67 velocity=0 time=0
EXTRACT: note_on channel=1 note=77 velocity=96 time=0.0013888895833333334
EXTRACT: note_on channel=2 note=75 velocity=96 time=0
EXTRACT: note_on channel=5 note=63 velocity=110 time=0
EXTRACT: note_on channel=1 note=77 velocity=0 time=0.15694452291666666
EXTRACT: note_on channel=2 note=75 velocity=0 time=0.0083333375
EXTRACT: note_on channel=5 note=63 velocity=0 time=0
EXTRACT: note_on channel=1 note=79 velocity=96 time=0.0013888895833333334
EXTRACT: note_on channel=2 note=74 velocity=96 time=0
EXTRACT: note_on channel=5 note=67 velocity=110 time=0
EXTRACT: note_on channel=1 note=79 velocity=0 time=0.15694452291666666
EXTRACT: note_on channel=2 note=74 velocity=0 time=0.0083333375
EXTRACT: note_on channel=5 note=67 velocity=0 time=0
EXTRACT: note_on channel=1 note=77 velocity=96 time=0.0013888895833333334
EXTRACT: note_on channel=2 note=75 velocity=96 time=0
EXTRACT: note_on channel=5 note=63 velocity=110 time=0
EXTRACT: note_on channel=1 note=77 velocity=0 time=0.15694452291666666
EXTRACT: note_on channel=0 note=74 velocity=0 time=0.0083333375
EXTRACT: note_on channel=2 note=75 velocity=0 time=0
EXTRACT: note_on channel=5 note=63 velocity=0 time=0
EXTRACT: note_on channel=5 note=39 velocity=0 time=0
EXTRACT: note_on channel=5 note=46 velocity=0 time=0
EXTRACT: note_on channel=1 note=77 velocity=96 time=0.0013888895833333334
EXTRACT: note_on channel=2 note=81 velocity=96 time=0
EXTRACT: note_on channel=5 note=70 velocity=110 time=0
EXTRACT: note_on channel=5 note=46 velocity=110 time=0
EXTRACT: note_on channel=5 note=53 velocity=110 time=0
EXTRACT: note_on channel=2 note=81 velocity=0 time=0.16527786041666667
EXTRACT: note_on channel=0 note=74 velocity=112 time=0.0013888895833333334
EXTRACT: note_on channel=2 note=82 velocity=96 time=0
EXTRACT: note_on channel=1 note=77 velocity=0 time=0.14861118541666668
EXTRACT: note_on channel=0 note=74 velocity=0 time=0.016666675
EXTRACT: note_on channel=2 note=82 velocity=0 time=0
EXTRACT: note_on channel=5 note=70 velocity=0 time=0
EXTRACT: note_on channel=0 note=77 velocity=112 time=0.0013888895833333334
EXTRACT: note_on channel=1 note=77 velocity=96 time=0
EXTRACT: note_on channel=2 note=81 velocity=96 time=0
EXTRACT: note_on channel=5 note=67 velocity=110 time=0
EXTRACT: note_on channel=2 note=81 velocity=0 time=0.16527786041666667
EXTRACT: note_on channel=5 note=67 velocity=0 time=0
EXTRACT: note_on channel=2 note=82 velocity=96 time=0.0013888895833333334
EXTRACT: note_on channel=5 note=65 velocity=110 time=0
EXTRACT: note_on channel=1 note=77 velocity=0 time=0.14861118541666668
EXTRACT: note_on channel=0 note=77 velocity=0 time=0.016666675
EXTRACT: note_on channel=2 note=82 velocity=0 time=0
EXTRACT: note_on channel=5 note=65 velocity=0 time=0
EXTRACT: note_on channel=0 note=77 velocity=112 time=0.0013888895833333334
EXTRACT: note_on channel=1 note=77 velocity=96 time=0
EXTRACT: note_on channel=2 note=79 velocity=96 time=0
EXTRACT: note_on channel=5 note=70 velocity=110 time=0
EXTRACT: note_on channel=1 note=77 velocity=0 time=0.31527793541666665
EXTRACT: note_on channel=2 note=79 velocity=0 time=0.016666675
EXTRACT: note_on channel=5 note=70 velocity=0 time=0
EXTRACT: note_on channel=1 note=77 velocity=96 time=0.0013888895833333334
EXTRACT: note_on channel=2 note=75 velocity=96 time=0
EXTRACT: note_on channel=5 note=67 velocity=110 time=0
EXTRACT: note_on channel=0 note=77 velocity=0 time=0.16527786041666667
EXTRACT: note_on channel=5 note=67 velocity=0 time=0
EXTRACT: note_on channel=0 note=74 velocity=112 time=0.0013888895833333334
EXTRACT: note_on channel=5 note=65 velocity=110 time=0
EXTRACT: note_on channel=1 note=77 velocity=0 time=0.14861118541666668
EXTRACT: note_on channel=0 note=74 velocity=0 time=0.016666675
EXTRACT: note_on channel=2 note=75 velocity=0 time=0
EXTRACT: note_on channel=5 note=65 velocity=0 time=0
EXTRACT: note_on channel=5 note=46 velocity=0 time=0
EXTRACT: note_on channel=5 note=53 velocity=0 time=0
EXTRACT: note_on channel=0 note=74 velocity=112 time=0.0013888895833333334
EXTRACT: note_on channel=1 note=74 velocity=96 time=0
EXTRACT: note_on channel=2 note=77 velocity=96 time=0
EXTRACT: note_on channel=5 note=70 velocity=110 time=0
EXTRACT: note_on channel=5 note=46 velocity=110 time=0
EXTRACT: note_on channel=5 note=53 velocity=110 time=0
EXTRACT: note_on channel=2 note=77 velocity=0 time=0.16527786041666667
EXTRACT: note_on channel=5 note=70 velocity=0 time=0
EXTRACT: note_on channel=2 note=79 velocity=96 time=0.0013888895833333334
EXTRACT: note_on channel=5 note=67 velocity=110 time=0
EXTRACT: note_on channel=1 note=74 velocity=0 time=0.14861118541666668
EXTRACT: note_on channel=0 note=74 velocity=0 time=0.016666675
EXTRACT: note_on channel=2 note=79 velocity=0 time=0
EXTRACT: note_on channel=5 note=67 velocity=0 time=0
EXTRACT: note_on channel=0 note=72 velocity=112 time=0.0013888895833333334
EXTRACT: note_on channel=1 note=74 velocity=96 time=0
EXTRACT: note_on channel=2 note=77 velocity=96 time=0
EXTRACT: note_on channel=5 note=65 velocity=110 time=0
EXTRACT: note_on channel=2 note=77 velocity=0 time=0.16527786041666667
EXTRACT: note_on channel=5 note=65 velocity=0 time=0
EXTRACT: note_on channel=2 note=79 velocity=96 time=0.0013888895833333334
EXTRACT: note_on channel=5 note=67 velocity=110 time=0
EXTRACT: note_on channel=1 note=74 velocity=0 time=0.14861118541666668
EXTRACT: note_on channel=0 note=72 velocity=0 time=0.016666675
EXTRACT: note_on channel=2 note=79 velocity=0 time=0
EXTRACT: note_on channel=5 note=67 velocity=0 time=0
EXTRACT: note_on channel=0 note=70 velocity=112 time=0.0013888895833333334
EXTRACT: note_on channel=1 note=77 velocity=96 time=0
EXTRACT: note_on channel=2 note=75 velocity=96 time=0
EXTRACT: note_on channel=5 note=65 velocity=110 time=0
EXTRACT: note_on channel=2 note=75 velocity=0 time=0.16527786041666667
EXTRACT: note_on channel=5 note=65 velocity=0 time=0
EXTRACT: note_on channel=2 note=77 velocity=96 time=0.0013888895833333334
EXTRACT: note_on channel=5 note=63 velocity=110 time=0
EXTRACT: note_on channel=1 note=77 velocity=0 time=0.14861118541666668
EXTRACT: note_on channel=2 note=77 velocity=0 time=0.016666675
EXTRACT: note_on channel=5 note=63 velocity=0 time=0
EXTRACT: note_on channel=1 note=77 velocity=96 time=0.0013888895833333334
EXTRACT: note_on channel=2 note=75 velocity=96 time=0
EXTRACT: note_on channel=5 note=62 velocity=110 time=0
EXTRACT: note_on channel=2 note=75 velocity=0 time=0.16527786041666667
EXTRACT: note_on channel=5 note=62 velocity=0 time=0
EXTRACT: note_on channel=2 note=77 velocity=96 time=0.0013888895833333334
EXTRACT: note_on channel=5 note=65 velocity=110 time=0
EXTRACT: note_on channel=1 note=77 velocity=0 time=0.14861118541666668
EXTRACT: note_on channel=0 note=70 velocity=0 time=0.016666675
EXTRACT: note_on channel=2 note=77 velocity=0 time=0
EXTRACT: note_on channel=5 note=65 velocity=0 time=0
EXTRACT: note_on channel=5 note=46 velocity=0 time=0
EXTRACT: note_on channel=5 note=53 velocity=0 time=0
EXTRACT: note_on channel=1 note=81 velocity=96 time=0.0013888895833333334
EXTRACT: note_on channel=2 note=82 velocity=96 time=0
EXTRACT: note_on channel=5 note=67 velocity=110 time=0
EXTRACT: note_on channel=5 note=41 velocity=110 time=0
EXTRACT: note_on channel=5 note=48 velocity=110 time=0
EXTRACT: note_on channel=1 note=81 velocity=0 time=0.31527793541666665
EXTRACT: note_on channel=2 note=82 velocity=0 time=0.016666675
EXTRACT: note_on channel=5 note=67 velocity=0 time=0
EXTRACT: note_on channel=0 note=77 velocity=112 time=0.0013888895833333334
EXTRACT: note_on channel=1 note=77 velocity=96 time=0
EXTRACT: note_on channel=2 note=79 velocity=96 time=0
EXTRACT: note_on channel=5 note=70 velocity=110 time=0
EXTRACT: note_on channel=5 note=70 velocity=0 time=0.16527786041666667
EXTRACT: note_on channel=5 note=74 velocity=110 time=0.0013888895833333334
EXTRACT: note_on channel=1 note=77 velocity=0 time=0.14861118541666668
EXTRACT: note_on channel=0 note=77 velocity=0 time=0.016666675
EXTRACT: note_on channel=2 note=79 velocity=0 time=0
EXTRACT: note_on channel=5 note=74 velocity=0 time=0
EXTRACT: note_on channel=0 note=77 velocity=112 time=0.0013888895833333334
EXTRACT: note_on channel=1 note=79 velocity=96 time=0
EXTRACT: note_on channel=2 note=75 velocity=96 time=0
EXTRACT: note_on channel=5 note=72 velocity=110 time=0
EXTRACT: note_on channel=0 note=77 velocity=0 time=0.16527786041666667
EXTRACT: note_on channel=5 note=72 velocity=0 time=0
EXTRACT: note_on channel=0 note=77 velocity=112 time=0.0013888895833333334
EXTRACT: note_on channel=5 note=69 velocity=110 time=0
EXTRACT: note_on channel=1 note=79 velocity=0 time=0.14861118541666668
EXTRACT: note_on channel=0 note=77 velocity=0 time=0.016666675
EXTRACT: note_on channel=2 note=75 velocity=0 time=0
EXTRACT: note_on channel=5 note=69 velocity=0 time=0
EXTRACT: note_on channel=0 note=77 velocity=112 time=0.0013888895833333334
EXTRACT: note_on channel=1 note=72 velocity=96 time=0
EXTRACT: note_on channel=2 note=77 velocity=96 time=0
EXTRACT: note_on channel=5 note=72 velocity=110 time=0
EXTRACT: note_on channel=0 note=77 velocity=0 time=0.16527786041666667
EXTRACT: note_on channel=5 note=72 velocity=0 time=0
EXTRACT: note_on channel=0 note=74 velocity=112 time=0.0013888895833333334
EXTRACT: note_on channel=5 note=69 velocity=110 time=0
EXTRACT: note_on channel=1 note=72 velocity=0 time=0.14861118541666668
EXTRACT: note_on channel=2 note=77 velocity=0 time=0.016666675
EXTRACT: note_on channel=5 note=69 velocity=0 time=0
EXTRACT: note_on channel=5 note=41 velocity=0 time=0
EXTRACT: note_on channel=5 note=48 velocity=0 time=0
EXTRACT: note_on channel=1 note=70 velocity=96 time=0.0013888895833333334
EXTRACT: note_on channel=2 note=77 velocity=96 time=0
EXTRACT: note_on channel=5 note=70 velocity=110 time=0
EXTRACT: note_on channel=5 note=41 velocity=110 time=0
EXTRACT: note_on channel=5 note=48 velocity=110 time=0
EXTRACT: note_on channel=0 note=74 velocity=0 time=0.16527786041666667
EXTRACT: note_on channel=5 note=70 velocity=0 time=0
EXTRACT: note_on channel=0 note=74 velocity=112 time=0.0013888895833333334
EXTRACT: note_on channel=5 note=67 velocity=110 time=0
EXTRACT: note_on channel=1 note=70 velocity=0 time=0.14861118541666668
EXTRACT: note_on channel=2 note=77 velocity=0 time=0.016666675
EXTRACT: note_on channel=5 note=67 velocity=0 time=0
EXTRACT: note_on channel=1 note=77 velocity=96 time=0.0013888895833333334
EXTRACT: note_on channel=2 note=82 velocity=96 time=0
EXTRACT: note_on channel=5 note=65 velocity=110 time=0
EXTRACT: note_on channel=5 note=65 velocity=0 time=0.16527786041666667
EXTRACT: note_on channel=5 note=62 velocity=110 time=0.0013888895833333334
EXTRACT: note_on channel=1 note=77 velocity=0 time=0.14861118541666668
EXTRACT: note_on channel=0 note=74 velocity=0 time=0.016666675
EXTRACT: note_on channel=2 note=82 velocity=0 time=0
EXTRACT: note_on channel=5 note=62 velocity=0 time=0
EXTRACT: note_on channel=1 note=77 velocity=96 time=0.0013888895833333334
EXTRACT: note_on channel=2 note=77 velocity=96 time=0
EXTRACT: note_on channel=5 note=65 velocity=110 time=0
EXTRACT: note_on channel=1 note=77 velocity=0 time=0.15694452291666666
EXTRACT: note_on channel=1 note=79 velocity=96 time=0.009722227083333333
EXTRACT: note_on channel=1 note=79 velocity=0 time=0.15694452291666666
EXTRACT: note_on channel=2 note=77 velocity=0 time=0.0083333375
EXTRACT: note_on channel=5 note=65 velocity=0 time=0
EXTRACT: note_on channel=1 note=77 velocity=96 time=0.0013888895833333334
EXTRACT: note_on channel=2 note=82 velocity=96 time=0
EXTRACT: note_on channel=5 note=65 velocity=110 time=0
EXTRACT: note_on channel=1 note=77 velocity=0 time=0.15694452291666666
EXTRACT: note_on channel=1 note=79 velocity=96 time=0.009722227083333333
EXTRACT: note_on channel=1 note=79 velocity=0 time=0.15694452291666666
EXTRACT: note_on channel=2 note=82 velocity=0 time=0.0083333375
EXTRACT: note_on channel=5 note=65 velocity=0 time=0
EXTRACT: note_on channel=5 note=41 velocity=0 time=0
EXTRACT: note_on channel=5 note=48 velocity=0 time=0
EXTRACT: note_on channel=1 note=79 velocity=96 time=0.0013888895833333334
EXTRACT: note_on channel=2 note=82 velocity=96 time=0
EXTRACT: note_on channel=5 note=65 velocity=110 time=0
EXTRACT: note_on channel=5 note=43 velocity=110 time=0
EXTRACT: note_on channel=5 note=50 velocity=110 time=0
EXTRACT: note_on channel=1 note=79 velocity=0 time=0.31527793541666665
EXTRACT: note_on channel=2 note=82 velocity=0 time=0.016666675
EXTRACT: note_on channel=5 note=65 velocity=0 time=0
EXTRACT: note_on channel=0 note=77 velocity=112 time=0.0013888895833333334
EXTRACT: note_on channel=1 note=77 velocity=96 time=0
EXTRACT: note_on channel=2 note=79 velocity=96 time=0
EXTRACT: note_on channel=5 note=70 velocity=110 time=0
EXTRACT: note_on channel=5 note=70 velocity=0 time=0.16527786041666667
EXTRACT: note_on channel=5 note=67 velocity=110 time=0.0013888895833333334
EXTRACT: note_on channel=1 note=77 velocity=0 time=0.14861118541666668
EXTRACT: note_on channel=0 note=77 velocity=0 time=0.016666675
EXTRACT: note_on channel=2 note=79 velocity=0 time=0
EXTRACT: note_on channel=5 note=67 velocity=0 time=0
EXTRACT: note_on channel=0 note=77 velocity=112 time=0.0013888895833333334
EXTRACT: note_on channel=1 note=77 velocity=96 time=0
EXTRACT: note_on channel=2 note=75 velocity=96 time=0
EXTRACT: note_on channel=5 note=70 velocity=110 time=0
EXTRACT: note_on channel=2 note=75 velocity=0 time=0.16527786041666667
EXTRACT: note_on channel=5 note=70 velocity=0 time=0
EXTRACT: note_on channel=2 note=72 velocity=96 time=0.0013888895833333334
EXTRACT: note_on channel=5 note=74 velocity=110 time=0
EXTRACT: note_on channel=1 note=77 velocity=0 time=0.14861118541666668
EXTRACT: note_on channel=2 note=72 velocity=0 time=0.016666675
EXTRACT: note_on channel=5 note=74 velocity=0 time=0
EXTRACT: note_on channel=1 note=74 velocity=96 time=0.0013888895833333334
EXTRACT: note_on channel=2 note=75 velocity=96 time=0
EXTRACT: note_on channel=5 note=70 velocity=110 time=0
EXTRACT: note_on channel=0 note=77 velocity=0 time=0.16527786041666667
EXTRACT: note_on channel=2 note=75 velocity=0 time=0
EXTRACT: note_on channel=5 note=70 velocity=0 time=0
EXTRACT: note_on channel=0 note=74 velocity=112 time=0.0013888895833333334
EXTRACT: note_on channel=2 note=72 velocity=96 time=0
EXTRACT: note_on channel=5 note=74 velocity=110 time=0
EXTRACT: note_on channel=1 note=74 velocity=0 time=0.14861118541666668
EXTRACT: note_on channel=0 note=74 velocity=0 time=0.016666675
EXTRACT: note_on channel=2 note=72 velocity=0 time=0
EXTRACT: note_on channel=5 note=74 velocity=0 time=0
EXTRACT: note_on channel=5 note=43 velocity=0 time=0
EXTRACT: note_on channel=5 note=50 velocity=0 time=0
EXTRACT: note_on channel=0 note=74 velocity=112 time=0.0013888895833333334
EXTRACT: note_on channel=1 note=70 velocity=96 time=0
EXTRACT: note_on channel=2 note=70 velocity=96 time=0
EXTRACT: note_on channel=5 note=70 velocity=110 time=0
EXTRACT: note_on channel=5 note=43 velocity=110 time=0
EXTRACT: note_on channel=5 note=50 velocity=110 time=0
EXTRACT: note_on channel=2 note=70 velocity=0 time=0.16527786041666667
EXTRACT: note_on channel=5 note=70 velocity=0 time=0
EXTRACT: note_on channel=2 note=74 velocity=96 time=0.0013888895833333334
EXTRACT: note_on channel=5 note=74 velocity=110 time=0
EXTRACT: note_on channel=1 note=70 velocity=0 time=0.14861118541666668
EXTRACT: note_on channel=0 note=74 velocity=0 time=0.016666675
EXTRACT: note_on channel=2 note=74 velocity=0 time=0
EXTRACT: note_on channel=5 note=74 velocity=0 time=0
EXTRACT: note_on channel=0 note=72 velocity=112 time=0.0013888895833333334
EXTRACT: note_on channel=1 note=72 velocity=96 time=0
EXTRACT: note_on channel=2 note=70 velocity=96 time=0
EXTRACT: note_on channel=5 note=72 velocity=110 time=0
EXTRACT: note_on channel=2 note=70 velocity=0 time=0.16527786041666667
EXTRACT: note_on channel=2 note=74 velocity=96 time=0.0013888895833333334
EXTRACT: note_on channel=1 note=72 velocity=0 time=0.14861118541666668
EXTRACT: note_on channel=0 note=72 velocity=0 time=0.016666675
EXTRACT: note_on channel=2 note=74 velocity=0 time=0
EXTRACT: note_on channel=5 note=72 velocity=0 time=0
EXTRACT: note_on channel=0 note=70 velocity=112 time=0.0013888895833333334
EXTRACT: note_on channel=1 note=70 velocity=96 time=0
EXTRACT: note_on channel=2 note=77 velocity=96 time=0
EXTRACT: note_on channel=5 note=70 velocity=110 time=0
EXTRACT: note_on channel=1 note=70 velocity=0 time=0.15694452291666666
EXTRACT: note_on channel=2 note=77 velocity=0 time=0.0083333375
EXTRACT: note_on channel=5 note=70 velocity=0 time=0
EXTRACT: note_on channel=1 note=72 velocity=96 time=0.0013888895833333334
EXTRACT: note_on channel=2 note=79 velocity=96 time=0
EXTRACT: note_on channel=5 note=67 velocity=110 time=0
EXTRACT: note_on channel=1 note=72 velocity=0 time=0.15694452291666666
EXTRACT: note_on channel=0 note=70 velocity=0 time=0.0083333375
EXTRACT: note_on channel=2 note=79 velocity=0 time=0
EXTRACT: note_on channel=5 note=67 velocity=0 time=0
EXTRACT: note_on channel=0 note=70 velocity=112 time=0.0013888895833333334
EXTRACT: note_on channel=1 note=70 velocity=96 time=0
EXTRACT: note_on channel=2 note=77 velocity=96 time=0
EXTRACT: note_on channel=5 note=65 velocity=110 time=0
EXTRACT: note_on channel=1 note=70 velocity=0 time=0.15694452291666666
EXTRACT: note_on channel=2 note=77 velocity=0 time=0.0083333375
EXTRACT: note_on channel=5 note=65 velocity=0 time=0
EXTRACT: note_on channel=1 note=72 velocity=96 time=0.0013888895833333334
EXTRACT: note_on channel=2 note=79 velocity=96 time=0
EXTRACT: note_on channel=5 note=67 velocity=110 time=0
EXTRACT: note_on channel=1 note=72 velocity=0 time=0.15694452291666666
EXTRACT: note_on channel=0 note=70 velocity=0 time=0.0083333375
EXTRACT: note_on channel=2 note=79 velocity=0 time=0
EXTRACT: note_on channel=5 note=67 velocity=0 time=0
EXTRACT: note_on channel=5 note=43 velocity=0 time=0
EXTRACT: note_on channel=5 note=50 velocity=0 time=0
EXTRACT: note_on channel=0 note=75 velocity=112 time=0.0013888895833333334
EXTRACT: note_on channel=1 note=77 velocity=96 time=0
EXTRACT: note_on channel=2 note=82 velocity=96 time=0
EXTRACT: note_on channel=5 note=65 velocity=110 time=0
EXTRACT: note_on channel=5 note=39 velocity=110 time=0
EXTRACT: note_on channel=5 note=46 velocity=110 time=0
EXTRACT: note_on channel=1 note=77 velocity=0 time=0.15694452291666666
EXTRACT: note_on channel=2 note=82 velocity=0 time=0.0083333375
EXTRACT: note_on channel=1 note=79 velocity=96 time=0.0013888895833333334
EXTRACT: note_on channel=2 note=81 velocity=96 time=0
EXTRACT: note_on channel=1 note=79 velocity=0 time=0.15694452291666666
EXTRACT: note_on channel=0 note=75 velocity=0 time=0.0083333375
EXTRACT: note_on channel=2 note=81 velocity=0 time=0
EXTRACT: note_on channel=0 note=75 velocity=112 time=0.0013888895833333334
EXTRACT: note_on channel=1 note=77 velocity=96 time=0
EXTRACT: note_on channel=2 note=82 velocity=96 time=0
EXTRACT: note_on channel=1 note=77 velocity=0 time=0.15694452291666666
EXTRACT: note_on channel=2 note=82 velocity=0 time=0.0083333375
EXTRACT: note_on channel=1 note=79 velocity=96 time=0.0013888895833333334
EXTRACT: note_on channel=2 note=81 velocity=96 time=0
EXTRACT: note_on channel=1 note=79 velocity=0 time=0.15694452291666666
EXTRACT: note_on channel=0 note=75 velocity=0 time=0.0083333375
EXTRACT: note_on channel=2 note=81 velocity=0 time=0
EXTRACT: note_on channel=0 note=75 velocity=112 time=0.0013888895833333334
EXTRACT: note_on channel=1 note=75 velocity=96 time=0
EXTRACT: note_on channel=2 note=79 velocity=96 time=0
EXTRACT: note_on channel=0 note=75 velocity=0 time=0.16527786041666667
EXTRACT: note_on channel=2 note=79 velocity=0 time=0
EXTRACT: note_on channel=0 note=74 velocity=112 time=0.0013888895833333334
EXTRACT: note_on channel=2 note=77 velocity=96 time=0
EXTRACT: note_on channel=1 note=75 velocity=0 time=0.14861118541666668
EXTRACT: note_on channel=0 note=74 velocity=0 time=0.016666675
EXTRACT: note_on channel=2 note=77 velocity=0 time=0
EXTRACT: note_on channel=5 note=65 velocity=0 time=0
EXTRACT: note_on channel=0 note=75 velocity=112 time=0.0013888895833333334
EXTRACT: note_on channel=1 note=75 velocity=96 time=0
EXTRACT: note_on channel=2 note=75 velocity=96 time=0
EXTRACT: note_on channel=5 note=67 velocity=110 time=0
EXTRACT: note_on channel=0 note=75 velocity=0 time=0.16527786041666667
EXTRACT: note_on channel=2 note=75 velocity=0 time=0
EXTRACT: note_on channel=0 note=74 velocity=112 time=0.0013888895833333334
EXTRACT: note_on channel=2 note=74 velocity=96 time=0
EXTRACT: note_on channel=1 note=75 velocity=0 time=0.14861118541666668
EXTRACT: note_on channel=2 note=74 velocity=0 time=0.016666675
EXTRACT: note_on channel=5 note=67 velocity=0 time=0
EXTRACT: note_on channel=5 note=39 velocity=0 time=0
EXTRACT: note_on channel=5 note=46 velocity=0 time=0
EXTRACT: note_on channel=1 note=79 velocity=96 time=0.0013888895833333334
EXTRACT: note_on channel=2 note=70 velocity=96 time=0
EXTRACT: note_on channel=5 note=69 velocity=110 time=0
EXTRACT: note_on channel=5 note=39 velocity=110 time=0
EXTRACT: note_on channel=5 note=46 velocity=110 time=0
EXTRACT: note_on channel=2 note=70 velocity=0 time=0.16527786041666667
EXTRACT: note_on channel=5 note=69 velocity=0 time=0
EXTRACT: note_on channel=2 note=72 velocity=96 time=0.0013888895833333334
EXTRACT: note_on channel=5 note=65 velocity=110 time=0
EXTRACT: note_on channel=1 note=79 velocity=0 time=0.14861118541666668
EXTRACT: note_on channel=2 note=72 velocity=0 time=0.016666675
EXTRACT: note_on channel=5 note=65 velocity=0 time=0
EXTRACT: note_on channel=1 note=79 velocity=96 time=0.0013888895833333334
EXTRACT: note_on channel=2 note=70 velocity=96 time=0
EXTRACT: note_on channel=5 note=69 velocity=110 time=0
EXTRACT: note_on channel=2 note=70 velocity=0 time=0.16527786041666667
EXTRACT: note_on channel=5 note=69 velocity=0 time=0
EXTRACT: note_on channel=2 note=72 velocity=96 time=0.0013888895833333334
EXTRACT: note_on channel=5 note=70 velocity=110 time=0
EXTRACT: note_on channel=1 note=79 velocity=0 time=0.14861118541666668
EXTRACT: note_on channel=2 note=72 velocity=0 time=0.016666675
EXTRACT: note_on channel=5 note=70 velocity=0 time=0
EXTRACT: note_on channel=1 note=79 velocity=96 time=0.0013888895833333334
EXTRACT: note_on channel=2 note=75 velocity=96 time=0
EXTRACT: note_on channel=5 note=70 velocity=110 time=0
EXTRACT: note_on channel=5 note=70 velocity=0 time=0.16527786041666667
EXTRACT: note_on channel=5 note=65 velocity=110 time=0.0013888895833333334
EXTRACT: note_on channel=1 note=79 velocity=0 time=0.14861118541666668
EXTRACT: note_on channel=0 note=74 velocity=0 time=0.016666675
EXTRACT: note_on channel=2 note=75 velocity=0 time=0
EXTRACT: note_on channel=5 note=65 velocity=0 time=0
EXTRACT: note_on channel=0 note=77 velocity=126 time=0.0013888895833333334
EXTRACT: note_on channel=1 note=79 velocity=96 time=0
EXTRACT: note_on channel=2 note=79 velocity=96 time=0
EXTRACT: note_on channel=5 note=70 velocity=110 time=0
EXTRACT: note_on channel=5 note=70 velocity=0 time=0.16527786041666667
EXTRACT: note_on channel=5 note=65 velocity=110 time=0.0013888895833333334
EXTRACT: note_on channel=1 note=79 velocity=0 time=0.14861118541666668
EXTRACT: note_on channel=0 note=77 velocity=0 time=0.016666675
EXTRACT: note_on channel=2 note=79 velocity=0 time=0
EXTRACT: note_on channel=5 note=65 velocity=0 time=0
EXTRACT: note_on channel=5 note=39 velocity=0 time=0
EXTRACT: note_on channel=5 note=46 velocity=0 time=0
EXTRACT: note_on channel=0 note=81 velocity=126 time=0.0013888895833333334
EXTRACT: note_on channel=1 note=81 velocity=96 time=0
EXTRACT: note_on channel=2 note=77 velocity=96 time=0
EXTRACT: note_on channel=5 note=67 velocity=110 time=0
EXTRACT: note_on channel=5 note=46 velocity=110 time=0
EXTRACT: note_on channel=5 note=53 velocity=110 time=0
EXTRACT: note_on channel=2 note=77 velocity=0 time=0.16527786041666667
EXTRACT: note_on channel=5 note=67 velocity=0 time=0
EXTRACT: note_on channel=2 note=74 velocity=96 time=0.0013888895833333334
EXTRACT: note_on channel=5 note=74 velocity=110 time=0
EXTRACT: note_on channel=1 note=81 velocity=0 time=0.14861118541666668
EXTRACT: note_on channel=2 note=74 velocity=0 time=0.016666675
EXTRACT: note_on channel=5 note=74 velocity=0 time=0
EXTRACT: note_on channel=1 note=77 velocity=96 time=0.0013888895833333334
EXTRACT: note_on channel=2 note=77 velocity=96 time=0
EXTRACT: note_on channel=5 note=77 velocity=110 time=0
EXTRACT: note_on channel=0 note=81 velocity=0 time=0.16527786041666667
EXTRACT: note_on channel=2 note=77 velocity=0 time=0
EXTRACT: note_on channel=5 note=77 velocity=0 time=0
EXTRACT: note_on channel=0 note=82 velocity=126 time=0.0013888895833333334
EXTRACT: note_on channel=2 note=74 velocity=96 time=0
EXTRACT: note_on channel=5 note=74 velocity=110 time=0
EXTRACT: note_on channel=1 note=77 velocity=0 time=0.14861118541666668
EXTRACT: note_on channel=2 note=74 velocity=0 time=0.016666675
EXTRACT: note_on channel=5 note=74 velocity=0 time=0
EXTRACT: note_on channel=1 note=77 velocity=96 time=0.0013888895833333334
EXTRACT: note_on channel=2 note=81 velocity=96 time=0
EXTRACT: note_on channel=5 note=77 velocity=110 time=0
EXTRACT: note_on channel=2 note=81 velocity=0 time=0.16527786041666667
EXTRACT: note_on channel=5 note=77 velocity=0 time=0
EXTRACT: note_on channel=2 note=82 velocity=96 time=0.0013888895833333334
EXTRACT: note_on channel=5 note=74 velocity=110 time=0
EXTRACT: note_on channel=1 note=77 velocity=0 time=0.14861118541666668
EXTRACT: note_on channel=0 note=82 velocity=0 time=0.016666675
EXTRACT: note_on channel=2 note=82 velocity=0 time=0
EXTRACT: note_on channel=5 note=74 velocity=0 time=0
EXTRACT: note_on channel=0 note=77 velocity=126 time=0.0013888895833333334
EXTRACT: note_on channel=1 note=77 velocity=96 time=0
EXTRACT: note_on channel=2 note=77 velocity=96 time=0
EXTRACT: note_on channel=5 note=70 velocity=110 time=0
EXTRACT: note_on channel=2 note=77 velocity=0 time=0.16527786041666667
EXTRACT: note_on channel=2 note=74 velocity=96 time=0.0013888895833333334
EXTRACT: note_on channel=1 note=77 velocity=0 time=0.14861118541666668
EXTRACT: note_on channel=2 note=74 velocity=0 time=0.016666675
EXTRACT: note_on channel=5 note=70 velocity=0 time=0
EXTRACT: note_on channel=5 note=46 velocity=0 time=0
EXTRACT: note_on channel=5 note=53 velocity=0 time=0
EXTRACT: note_on channel=1 note=74 velocity=96 time=0.0013888895833333334
EXTRACT: note_on channel=2 note=72 velocity=96 time=0
EXTRACT: note_on channel=5 note=77 velocity=110 time=0
EXTRACT: note_on channel=5 note=46 velocity=110 time=0
EXTRACT: note_on channel=5 note=53 velocity=110 time=0
EXTRACT: note_on channel=0 note=77 velocity=0 time=0.16527786041666667
EXTRACT: note_on channel=2 note=72 velocity=0 time=0
EXTRACT: note_on channel=5 note=77 velocity=0 time=0
EXTRACT: note_on channel=0 note=74 velocity=126 time=0.0013888895833333334
EXTRACT: note_on channel=2 note=74 velocity=96 time=0
EXTRACT: note_on channel=5 note=74 velocity=110 time=0
EXTRACT: note_on channel=1 note=74 velocity=0 time=0.14861118541666668
EXTRACT: note_on channel=2 note=74 velocity=0 time=0.016666675
EXTRACT: note_on channel=5 note=74 velocity=0 time=0
EXTRACT: note_on channel=1 note=70 velocity=96 time=0.0013888895833333334
EXTRACT: note_on channel=2 note=75 velocity=96 time=0
EXTRACT: note_on channel=5 note=70 velocity=110 time=0
EXTRACT: note_on channel=1 note=70 velocity=0 time=0.15694452291666666
EXTRACT: note_on channel=2 note=75 velocity=0 time=0.0083333375
EXTRACT: note_on channel=1 note=70 velocity=96 time=0.0013888895833333334
EXTRACT: note_on channel=2 note=77 velocity=96 time=0
EXTRACT: note_on channel=1 note=70 velocity=0 time=0.15694452291666666
EXTRACT: note_on channel=0 note=74 velocity=0 time=0.0083333375
EXTRACT: note_on channel=2 note=77 velocity=0 time=0
EXTRACT: note_on channel=5 note=70 velocity=0 time=0
EXTRACT: note_on channel=0 note=77 velocity=126 time=0.0013888895833333334
EXTRACT: note_on channel=1 note=74 velocity=96 time=0
EXTRACT: note_on channel=2 note=74 velocity=96 time=0
EXTRACT: note_on channel=5 note=74 velocity=110 time=0
EXTRACT: note_on channel=2 note=74 velocity=0 time=0.16527786041666667
EXTRACT: note_on channel=5 note=74 velocity=0 time=0
EXTRACT: note_on channel=2 note=70 velocity=96 time=0.0013888895833333334
EXTRACT: note_on channel=5 note=70 velocity=110 time=0
EXTRACT: note_on channel=1 note=74 velocity=0 time=0.14861118541666668
EXTRACT: note_on channel=2 note=70 velocity=0 time=0.016666675
EXTRACT: note_on channel=5 note=70 velocity=0 time=0
EXTRACT: note_on channel=1 note=74 velocity=96 time=0.0013888895833333334
EXTRACT: note_on channel=2 note=74 velocity=96 time=0
EXTRACT: note_on channel=5 note=74 velocity=110 time=0
EXTRACT: note_on channel=2 note=74 velocity=0 time=0.16527786041666667
EXTRACT: note_on channel=5 note=74 velocity=0 time=0
EXTRACT: note_on channel=2 note=70 velocity=96 time=0.0013888895833333334
EXTRACT: note_on channel=5 note=70 velocity=110 time=0
EXTRACT: note_on channel=1 note=74 velocity=0 time=0.14861118541666668
EXTRACT: note_on channel=2 note=70 velocity=0 time=0.016666675
EXTRACT: note_on channel=5 note=70 velocity=0 time=0
EXTRACT: note_on channel=5 note=46 velocity=0 time=0
EXTRACT: note_on channel=5 note=53 velocity=0 time=0
EXTRACT: note_on channel=1 note=79 velocity=96 time=0.0013888895833333334
EXTRACT: note_on channel=2 note=75 velocity=96 time=0
EXTRACT: note_on channel=5 note=72 velocity=110 time=0
EXTRACT: note_on channel=5 note=41 velocity=110 time=0
EXTRACT: note_on channel=5 note=48 velocity=110 time=0
EXTRACT: note_on channel=2 note=75 velocity=0 time=0.16527786041666667
EXTRACT: note_on channel=5 note=72 velocity=0 time=0
EXTRACT: note_on channel=2 note=79 velocity=96 time=0.0013888895833333334
EXTRACT: note_on channel=5 note=75 velocity=110 time=0
EXTRACT: note_on channel=1 note=79 velocity=0 time=0.14861118541666668
EXTRACT: note_on channel=0 note=77 velocity=0 time=0.016666675
EXTRACT: note_on channel=2 note=79 velocity=0 time=0
EXTRACT: note_on channel=5 note=75 velocity=0 time=0
EXTRACT: note_on channel=0 note=75 velocity=126 time=0.0013888895833333334
EXTRACT: note_on channel=1 note=79 velocity=96 time=0
EXTRACT: note_on channel=2 note=75 velocity=96 time=0
EXTRACT: note_on channel=5 note=72 velocity=110 time=0
EXTRACT: note_on channel=0 note=75 velocity=0 time=0.16527786041666667
EXTRACT: note_on channel=2 note=75 velocity=0 time=0
EXTRACT: note_on channel=5 note=72 velocity=0 time=0
EXTRACT: note_on channel=0 note=74 velocity=126 time=0.0013888895833333334
EXTRACT: note_on channel=2 note=72 velocity=96 time=0
EXTRACT: note_on channel=5 note=69 velocity=110 time=0
EXTRACT: note_on channel=1 note=79 velocity=0 time=0.14861118541666668
EXTRACT: note_on channel=0 note=74 velocity=0 time=0.016666675
EXTRACT: note_on channel=2 note=72 velocity=0 time=0
EXTRACT: note_on channel=5 note=69 velocity=0 time=0
EXTRACT: note_on channel=0 note=75 velocity=126 time=0.0013888895833333334
EXTRACT: note_on channel=1 note=79 velocity=96 time=0
EXTRACT: note_on channel=2 note=75 velocity=96 time=0
EXTRACT: note_on channel=5 note=72 velocity=110 time=0
EXTRACT: note_on channel=2 note=75 velocity=0 time=0.16527786041666667
EXTRACT: note_on channel=5 note=72 velocity=0 time=0
EXTRACT: note_on channel=2 note=79 velocity=96 time=0.0013888895833333334
EXTRACT: note_on channel=5 note=75 velocity=110 time=0
EXTRACT: note_on channel=1 note=79 velocity=0 time=0.14861118541666668
EXTRACT: note_on channel=0 note=75 velocity=0 time=0.016666675
EXTRACT: note_on channel=2 note=79 velocity=0 time=0
EXTRACT: note_on channel=5 note=75 velocity=0 time=0
EXTRACT: note_on channel=0 note=74 velocity=126 time=0.0013888895833333334
EXTRACT: note_on channel=1 note=79 velocity=96 time=0
EXTRACT: note_on channel=2 note=75 velocity=96 time=0
EXTRACT: note_on channel=5 note=72 velocity=110 time=0
EXTRACT: note_on channel=2 note=75 velocity=0 time=0.16527786041666667
EXTRACT: note_on channel=5 note=72 velocity=0 time=0
EXTRACT: note_on channel=2 note=72 velocity=96 time=0.0013888895833333334
EXTRACT: note_on channel=5 note=69 velocity=110 time=0
EXTRACT: note_on channel=1 note=79 velocity=0 time=0.14861118541666668
EXTRACT: note_on channel=0 note=74 velocity=0 time=0.016666675
EXTRACT: note_on channel=2 note=72 velocity=0 time=0
EXTRACT: note_on channel=5 note=69 velocity=0 time=0
EXTRACT: note_on channel=5 note=41 velocity=0 time=0
EXTRACT: note_on channel=5 note=48 velocity=0 time=0
EXTRACT: note_on channel=1 note=79 velocity=96 time=0.0013888895833333334
EXTRACT: note_on channel=2 note=75 velocity=96 time=0
EXTRACT: note_on channel=5 note=72 velocity=110 time=0
EXTRACT: note_on channel=5 note=41 velocity=110 time=0
EXTRACT: note_on channel=5 note=48 velocity=110 time=0
EXTRACT: note_on channel=2 note=75 velocity=0 time=0.16527786041666667
EXTRACT: note_on channel=5 note=72 velocity=0 time=0
EXTRACT: note_on channel=2 note=79 velocity=96 time=0.0013888895833333334
EXTRACT: note_on channel=5 note=75 velocity=110 time=0
EXTRACT: note_on channel=1 note=79 velocity=0 time=0.14861118541666668
EXTRACT: note_on channel=2 note=79 velocity=0 time=0.016666675
EXTRACT: note_on channel=5 note=75 velocity=0 time=0
EXTRACT: note_on channel=1 note=79 velocity=96 time=0.0013888895833333334
EXTRACT: note_on channel=2 note=75 velocity=96 time=0
EXTRACT: note_on channel=5 note=72 velocity=110 time=0
EXTRACT: note_on channel=2 note=75 velocity=0 time=0.16527786041666667
EXTRACT: note_on channel=5 note=72 velocity=0 time=0
EXTRACT: note_on channel=2 note=72 velocity=96 time=0.0013888895833333334
EXTRACT: note_on channel=5 note=69 velocity=110 time=0
EXTRACT: note_on channel=1 note=79 velocity=0 time=0.14861118541666668
EXTRACT: note_on channel=2 note=72 velocity=0 time=0.016666675
EXTRACT: note_on channel=5 note=69 velocity=0 time=0
EXTRACT: note_on channel=1 note=79 velocity=96 time=0.0013888895833333334
EXTRACT: note_on channel=2 note=75 velocity=96 time=0
EXTRACT: note_on channel=5 note=72 velocity=110 time=0
EXTRACT: note_on channel=2 note=75 velocity=0 time=0.16527786041666667
EXTRACT: note_on channel=5 note=72 velocity=0 time=0
EXTRACT: note_on channel=2 note=79 velocity=96 time=0.0013888895833333334
EXTRACT: note_on channel=5 note=75 velocity=110 time=0
EXTRACT: note_on channel=2 note=79 velocity=0 time=0.16527786041666667
EXTRACT: note_on channel=5 note=75 velocity=0 time=0
EXTRACT: note_on channel=0 note=77 velocity=126 time=0.0013888895833333334
EXTRACT: note_on channel=2 note=75 velocity=96 time=0
EXTRACT: note_on channel=5 note=72 velocity=110 time=0
EXTRACT: note_on channel=2 note=75 velocity=0 time=0.16527786041666667
EXTRACT: note_on channel=5 note=72 velocity=0 time=0
EXTRACT: note_on channel=2 note=72 velocity=96 time=0.0013888895833333334
EXTRACT: note_on channel=5 note=69 velocity=110 time=0
EXTRACT: note_on channel=1 note=79 velocity=0 time=0.13194451041666666
EXTRACT: note_on channel=0 note=77 velocity=0 time=0.03333335
EXTRACT: note_on channel=2 note=72 velocity=0 time=0
EXTRACT: note_on channel=5 note=69 velocity=0 time=0
EXTRACT: note_on channel=5 note=41 velocity=0 time=0
EXTRACT: note_on channel=5 note=48 velocity=0 time=0
EXTRACT: note_on channel=0 note=81 velocity=126 time=0.0013888895833333334
EXTRACT: note_on channel=1 note=81 velocity=96 time=0
EXTRACT: note_on channel=2 note=74 velocity=96 time=0
EXTRACT: note_on channel=5 note=74 velocity=110 time=0
EXTRACT: note_on channel=5 note=43 velocity=110 time=0
EXTRACT: note_on channel=5 note=50 velocity=110 time=0
EXTRACT: note_on channel=5 note=74 velocity=0 time=0.16527786041666667
EXTRACT: note_on channel=5 note=77 velocity=110 time=0.0013888895833333334
EXTRACT: note_on channel=1 note=81 velocity=0 time=0.14861118541666668
EXTRACT: note_on channel=2 note=74 velocity=0 time=0.016666675
EXTRACT: note_on channel=5 note=77 velocity=0 time=0
EXTRACT: note_on channel=1 note=82 velocity=96 time=0.0013888895833333334
EXTRACT: note_on channel=2 note=77 velocity=96 time=0
EXTRACT: note_on channel=5 note=74 velocity=110 time=0
EXTRACT: note_on channel=0 note=81 velocity=0 time=0.16527786041666667
EXTRACT: note_on channel=5 note=74 velocity=0 time=0
EXTRACT: note_on channel=0 note=82 velocity=126 time=0.0013888895833333334
EXTRACT: note_on channel=5 note=77 velocity=110 time=0
EXTRACT: note_on channel=1 note=82 velocity=0 time=0.14861118541666668
EXTRACT: note_on channel=2 note=77 velocity=0 time=0.016666675
EXTRACT: note_on channel=5 note=77 velocity=0 time=0
EXTRACT: note_on channel=1 note=79 velocity=96 time=0.0013888895833333334
EXTRACT: note_on channel=2 note=77 velocity=96 time=0
EXTRACT: note_on channel=5 note=79 velocity=110 time=0
EXTRACT: note_on channel=2 note=77 velocity=0 time=0.16527786041666667
EXTRACT: note_on channel=5 note=79 velocity=0 time=0
EXTRACT: note_on channel=2 note=79 velocity=96 time=0.0013888895833333334
EXTRACT: note_on channel=5 note=75 velocity=110 time=0
EXTRACT: note_on channel=1 note=79 velocity=0 time=0.14861118541666668
EXTRACT: note_on channel=0 note=82 velocity=0 time=0.016666675
EXTRACT: note_on channel=2 note=79 velocity=0 time=0
EXTRACT: note_on channel=5 note=75 velocity=0 time=0
EXTRACT: note_on channel=0 note=84 velocity=126 time=0.0013888895833333334
EXTRACT: note_on channel=1 note=84 velocity=96 time=0
EXTRACT: note_on channel=2 note=81 velocity=96 time=0
EXTRACT: note_on channel=5 note=74 velocity=110 time=0
EXTRACT: note_on channel=2 note=81 velocity=0 time=0.16527786041666667
EXTRACT: note_on channel=5 note=74 velocity=0 time=0
EXTRACT: note_on channel=2 note=82 velocity=96 time=0.0013888895833333334
EXTRACT: note_on channel=5 note=75 velocity=110 time=0
EXTRACT: note_on channel=1 note=84 velocity=0 time=0.14861118541666668
EXTRACT: note_on channel=2 note=82 velocity=0 time=0.016666675
EXTRACT: note_on channel=5 note=75 velocity=0 time=0
EXTRACT: note_on channel=5 note=43 velocity=0 time=0
EXTRACT: note_on channel=5 note=50 velocity=0 time=0
EXTRACT: note_on channel=1 note=74 velocity=96 time=0.0013888895833333334
EXTRACT: note_on channel=2 note=82 velocity=96 time=0
EXTRACT: note_on channel=5 note=74 velocity=110 time=0
EXTRACT: note_on channel=5 note=43 velocity=110 time=0
EXTRACT: note_on channel=5 note=50 velocity=110 time=0
EXTRACT: note_on channel=1 note=74 velocity=0 time=0.15694452291666666
EXTRACT: note_on channel=0 note=84 velocity=0 time=0.0083333375
EXTRACT: note_on channel=5 note=74 velocity=0 time=0
EXTRACT: note_on channel=0 note=79 velocity=126 time=0.0013888895833333334
EXTRACT: note_on channel=1 note=75 velocity=96 time=0
EXTRACT: note_on channel=5 note=70 velocity=110 time=0
EXTRACT: note_on channel=1 note=75 velocity=0 time=0.15694452291666666
EXTRACT: note_on channel=2 note=82 velocity=0 time=0.0083333375
EXTRACT: note_on channel=5 note=70 velocity=0 time=0
EXTRACT: note_on channel=1 note=74 velocity=96 time=0.0013888895833333334
EXTRACT: note_on channel=2 note=79 velocity=96 time=0
EXTRACT: note_on channel=5 note=74 velocity=110 time=0
EXTRACT: note_on channel=1 note=74 velocity=0 time=0.15694452291666666
EXTRACT: note_on channel=5 note=74 velocity=0 time=0.0083333375
EXTRACT: note_on channel=1 note=75 velocity=96 time=0.0013888895833333334
EXTRACT: note_on channel=5 note=70 velocity=110 time=0
EXTRACT: note_on channel=1 note=75 velocity=0 time=0.15694452291666666
EXTRACT: note_on channel=0 note=79 velocity=0 time=0.0083333375
EXTRACT: note_on channel=2 note=79 velocity=0 time=0
EXTRACT: note_on channel=5 note=70 velocity=0 time=0
EXTRACT: note_on channel=0 note=82 velocity=126 time=0.0013888895833333334
EXTRACT: note_on channel=1 note=82 velocity=96 time=0
EXTRACT: note_on channel=2 note=81 velocity=96 time=0
EXTRACT: note_on channel=5 note=74 velocity=110 time=0
EXTRACT: note_on channel=5 note=74 velocity=0 time=0.16527786041666667
EXTRACT: note_on channel=5 note=70 velocity=110 time=0.0013888895833333334
EXTRACT: note_on channel=1 note=82 velocity=0 time=0.14861118541666668
EXTRACT: note_on channel=2 note=81 velocity=0 time=0.016666675
EXTRACT: note_on channel=5 note=70 velocity=0 time=0
EXTRACT: note_on channel=1 note=82 velocity=96 time=0.0013888895833333334
EXTRACT: note_on channel=2 note=77 velocity=96 time=0
EXTRACT: note_on channel=5 note=72 velocity=110 time=0
EXTRACT: note_on channel=5 note=72 velocity=0 time=0.16527786041666667
EXTRACT: note_on channel=5 note=75 velocity=110 time=0.0013888895833333334
EXTRACT: note_on channel=1 note=82 velocity=0 time=0.14861118541666668
EXTRACT: note_on channel=2 note=77 velocity=0 time=0.016666675
EXTRACT: note_on channel=5 note=75 velocity=0 time=0
EXTRACT: note_on channel=5 note=43 velocity=0 time=0
EXTRACT: note_on channel=5 note=50 velocity=0 time=0
EXTRACT: note_on channel=1 note=79 velocity=96 time=0.0013888895833333334
EXTRACT: note_on channel=2 note=77 velocity=96 time=0
EXTRACT: note_on channel=5 note=79 velocity=110 time=0
EXTRACT: note_on channel=5 note=39 velocity=110 time=0
EXTRACT: note_on channel=5 note=46 velocity=110 time=0
EXTRACT: note_on channel=1 note=79 velocity=0 time=0.15694452291666666
EXTRACT: note_on channel=0 note=82 velocity=0 time=0.0083333375
EXTRACT: note_on channel=0 note=81 velocity=126 time=0.0013888895833333334
EXTRACT: note_on channel=1 note=81 velocity=96 time=0
EXTRACT: note_on channel=1 note=81 velocity=0 time=0.15694452291666666
EXTRACT: note_on channel=0 note=81 velocity=0 time=0.0083333375
EXTRACT: note_on channel=2 note=77 velocity=0 time=0
EXTRACT: note_on channel=5 note=79 velocity=0 time=0
EXTRACT: note_on channel=0 note=79 velocity=126 time=0.0013888895833333334
EXTRACT: note_on channel=1 note=79 velocity=96 time=0
EXTRACT: note_on channel=2 note=77 velocity=96 time=0
EXTRACT: note_on channel=5 note=79 velocity=110 time=0
EXTRACT: note_on channel=1 note=79 velocity=0 time=0.15694452291666666
EXTRACT: note_on channel=0 note=79 velocity=0 time=0.0083333375
EXTRACT: note_on channel=5 note=79 velocity=0 time=0
EXTRACT: note_on channel=0 note=81 velocity=126 time=0.0013888895833333334
EXTRACT: note_on channel=1 note=81 velocity=96 time=0
EXTRACT: note_on channel=5 note=77 velocity=110 time=0
EXTRACT: note_on channel=1 note=81 velocity=0 time=0.15694452291666666
EXTRACT: note_on channel=0 note=81 velocity=0 time=0.0083333375
EXTRACT: note_on channel=2 note=77 velocity=0 time=0
EXTRACT: note_on channel=5 note=77 velocity=0 time=0
EXTRACT: note_on channel=0 note=79 velocity=126 time=0.0013888895833333334
EXTRACT: note_on channel=1 note=79 velocity=96 time=0
EXTRACT: note_on channel=2 note=77 velocity=96 time=0
EXTRACT: note_on channel=5 note=79 velocity=110 time=0
EXTRACT: note_on channel=0 note=79 velocity=0 time=0.16527786041666667
EXTRACT: note_on channel=5 note=79 velocity=0 time=0
EXTRACT: note_on channel=0 note=77 velocity=126 time=0.0013888895833333334
EXTRACT: note_on channel=5 note=77 velocity=110 time=0
EXTRACT: note_on channel=1 note=79 velocity=0 time=0.14861118541666668
EXTRACT: note_on channel=0 note=77 velocity=0 time=0.016666675
EXTRACT: note_on channel=2 note=77 velocity=0 time=0
EXTRACT: note_on channel=5 note=77 velocity=0 time=0
EXTRACT: note_on channel=0 note=74 velocity=126 time=0.0013888895833333334
EXTRACT: note_on channel=1 note=79 velocity=96 time=0
EXTRACT: note_on channel=2 note=77 velocity=96 time=0
EXTRACT: note_on channel=5 note=74 velocity=110 time=0
EXTRACT: note_on channel=0 note=74 velocity=0 time=0.16527786041666667
EXTRACT: note_on channel=2 note=77 velocity=0 time=0
EXTRACT: note_on channel=5 note=74 velocity=0 time=0
EXTRACT: note_on channel=0 note=77 velocity=126 time=0.0013888895833333334
EXTRACT: note_on channel=2 note=79 velocity=96 time=0
EXTRACT: note_on channel=5 note=72 velocity=110 time=0
EXTRACT: note_on channel=1 note=79 velocity=0 time=0.14861118541666668
EXTRACT: note_on channel=2 note=79 velocity=0 time=0.016666675
EXTRACT: note_on channel=5 note=72 velocity=0 time=0
EXTRACT: note_on channel=5 note=39 velocity=0 time=0
EXTRACT: note_on channel=5 note=46 velocity=0 time=0
EXTRACT: note_on channel=1 note=82 velocity=96 time=0.0013888895833333334
EXTRACT: note_on channel=2 note=81 velocity=96 time=0
EXTRACT: note_on channel=5 note=70 velocity=110 time=0
EXTRACT: note_on channel=5 note=39 velocity=110 time=0
EXTRACT: note_on channel=5 note=46 velocity=110 time=0
EXTRACT: note_on channel=2 note=81 velocity=0 time=0.16527786041666667
EXTRACT: note_on channel=2 note=82 velocity=96 time=0.0013888895833333334
EXTRACT: note_on channel=1 note=82 velocity=0 time=0.14861118541666668
EXTRACT: note_on channel=0 note=77 velocity=0 time=0.016666675
EXTRACT: note_on channel=2 note=82 velocity=0 time=0
EXTRACT: note_on channel=5 note=70 velocity=0 time=0
EXTRACT: note_on channel=0 note=74 velocity=126 time=0.0013888895833333334
EXTRACT: note_on channel=1 note=74 velocity=96 time=0
EXTRACT: note_on channel=2 note=81 velocity=96 time=0
EXTRACT: note_on channel=5 note=67 velocity=110 time=0
EXTRACT: note_on channel=2 note=81 velocity=0 time=0.16527786041666667
EXTRACT: note_on channel=2 note=82 velocity=96 time=0.0013888895833333334
EXTRACT: note_on channel=1 note=74 velocity=0 time=0.14861118541666668
EXTRACT: note_on channel=0 note=74 velocity=0 time=0.016666675
EXTRACT: note_on channel=2 note=82 velocity=0 time=0
EXTRACT: note_on channel=5 note=67 velocity=0 time=0
EXTRACT: note_on channel=1 note=79 velocity=96 time=0.0013888895833333334
EXTRACT: note_on channel=2 note=82 velocity=96 time=0
EXTRACT: note_on channel=5 note=62 velocity=110 time=0
EXTRACT: note_on channel=2 note=82 velocity=0 time=0.16527786041666667
EXTRACT: note_on channel=2 note=84 velocity=96 time=0.0013888895833333334
EXTRACT: note_on channel=1 note=79 velocity=0 time=0.14861118541666668
EXTRACT: note_on channel=2 note=84 velocity=0 time=0.016666675
EXTRACT: note_on channel=5 note=62 velocity=0 time=0
EXTRACT: note_on channel=0 note=77 velocity=126 time=0.0013888895833333334
EXTRACT: note_on channel=1 note=79 velocity=96 time=0
EXTRACT: note_on channel=2 note=82 velocity=96 time=0
EXTRACT: note_on channel=5 note=63 velocity=110 time=0
EXTRACT: note_on channel=2 note=82 velocity=0 time=0.16527786041666667
EXTRACT: note_on channel=2 note=84 velocity=96 time=0.0013888895833333334
EXTRACT: note_on channel=1 note=79 velocity=0 time=0.14861118541666668
EXTRACT: note_on channel=0 note=77 velocity=0 time=0.016666675
EXTRACT: note_on channel=2 note=84 velocity=0 time=0
EXTRACT: note_on channel=5 note=63 velocity=0 time=0
EXTRACT: note_on channel=5 note=39 velocity=0 time=0
EXTRACT: note_on channel=5 note=46 velocity=0 time=0
EXTRACT: note_on channel=0 note=79 velocity=126 time=0.0013888895833333334
EXTRACT: note_on channel=1 note=82 velocity=96 time=0
EXTRACT: note_on channel=2 note=86 velocity=96 time=0
EXTRACT: note_on channel=5 note=62 velocity=110 time=0
EXTRACT: note_on channel=5 note=46 velocity=110 time=0
EXTRACT: note_on channel=5 note=53 velocity=110 time=0
EXTRACT: note_on channel=2 note=86 velocity=0 time=0.16527786041666667
EXTRACT: note_on channel=2 note=84 velocity=96 time=0.0013888895833333334
EXTRACT: note_on channel=1 note=82 velocity=0 time=0.14861118541666668
EXTRACT: note_on channel=2 note=84 velocity=0 time=0.016666675
EXTRACT: note_on channel=5 note=62 velocity=0 time=0
EXTRACT: note_on channel=1 note=82 velocity=96 time=0.0013888895833333334
EXTRACT: note_on channel=2 note=82 velocity=96 time=0
EXTRACT: note_on channel=5 note=58 velocity=110 time=0
EXTRACT: note_on channel=0 note=79 velocity=0 time=0.16527786041666667
EXTRACT: note_on channel=2 note=82 velocity=0 time=0
EXTRACT: note_on channel=0 note=77 velocity=126 time=0.0013888895833333334
EXTRACT: note_on channel=2 note=81 velocity=96 time=0
EXTRACT: note_on channel=1 note=82 velocity=0 time=0.14861118541666668
EXTRACT: note_on channel=2 note=81 velocity=0 time=0.016666675
EXTRACT: note_on channel=5 note=58 velocity=0 time=0
EXTRACT: note_on channel=1 note=77 velocity=96 time=0.0013888895833333334
EXTRACT: note_on channel=2 note=79 velocity=96 time=0
EXTRACT: note_on channel=5 note=63 velocity=110 time=0
EXTRACT: note_on channel=1 note=77 velocity=0 time=0.15694452291666666
EXTRACT: note_on channel=2 note=79 velocity=0 time=0.0083333375
EXTRACT: note_on channel=1 note=75 velocity=96 time=0.0013888895833333334
EXTRACT: note_on channel=2 note=77 velocity=96 time=0
EXTRACT: note_on channel=1 note=75 velocity=0 time=0.15694452291666666
EXTRACT: note_on channel=0 note=77 velocity=0 time=0.0083333375
EXTRACT: note_on channel=2 note=77 velocity=0 time=0
EXTRACT: note_on channel=5 note=63 velocity=0 time=0
EXTRACT: note_on channel=0 note=74 velocity=126 time=0.0013888895833333334
EXTRACT: note_on channel=1 note=77 velocity=96 time=0
EXTRACT: note_on channel=2 note=75 velocity=96 time=0
EXTRACT: note_on channel=5 note=67 velocity=110 time=0
EXTRACT: note_on channel=1 note=77 velocity=0 time=0.15694452291666666
EXTRACT: note_on channel=2 note=75 velocity=0 time=0.0083333375
EXTRACT: note_on channel=1 note=75 velocity=96 time=0.0013888895833333334
EXTRACT: note_on channel=2 note=74 velocity=96 time=0
EXTRACT: note_on channel=1 note=75 velocity=0 time=0.15694452291666666
EXTRACT: note_on channel=2 note=74 velocity=0 time=0.0083333375
EXTRACT: note_on channel=5 note=67 velocity=0 time=0
EXTRACT: note_on channel=5 note=46 velocity=0 time=0
EXTRACT: note_on channel=5 note=53 velocity=0 time=0
EXTRACT: note_on channel=1 note=79 velocity=96 time=0.0013888895833333334
EXTRACT: note_on channel=2 note=77 velocity=96 time=0
EXTRACT: note_on channel=5 note=65 velocity=110 time=0
EXTRACT: note_on channel=5 note=46 velocity=110 time=0
EXTRACT: note_on channel=5 note=53 velocity=110 time=0
EXTRACT: note_on channel=1 note=79 velocity=0 time=0.15694452291666666
EXTRACT: note_on channel=0 note=74 velocity=0 time=0.0083333375
EXTRACT: note_on channel=2 note=77 velocity=0 time=0
EXTRACT: note_on channel=5 note=65 velocity=0 time=0
EXTRACT: note_on channel=0 note=70 velocity=126 time=0.0013888895833333334
EXTRACT: note_on channel=1 note=77 velocity=96 time=0
EXTRACT: note_on channel=2 note=81 velocity=96 time=0
EXTRACT: note_on channel=5 note=62 velocity=110 time=0
EXTRACT: note_on channel=1 note=77 velocity=0 time=0.15694452291666666
EXTRACT: note_on channel=0 note=70 velocity=0 time=0.0083333375
EXTRACT: note_on channel=2 note=81 velocity=0 time=0
EXTRACT: note_on channel=5 note=62 velocity=0 time=0
EXTRACT: note_on channel=0 note=72 velocity=126 time=0.0013888895833333334
EXTRACT: note_on channel=1 note=79 velocity=96 time=0
EXTRACT: note_on channel=2 note=77 velocity=96 time=0
EXTRACT: note_on channel=5 note=65 velocity=110 time=0
EXTRACT: note_on channel=1 note=79 velocity=0 time=0.15694452291666666
EXTRACT: note_on channel=2 note=77 velocity=0 time=0.0083333375
EXTRACT: note_on channel=5 note=65 velocity=0 time=0
EXTRACT: note_on channel=1 note=77 velocity=96 time=0.0013888895833333334
EXTRACT: note_on channel=2 note=81 velocity=96 time=0
EXTRACT: note_on channel=5 note=62 velocity=110 time=0
EXTRACT: note_on channel=1 note=77 velocity=0 time=0.15694452291666666
EXTRACT: note_on channel=0 note=72 velocity=0 time=0.0083333375
EXTRACT: note_on channel=2 note=81 velocity=0 time=0
EXTRACT: note_on channel=5 note=62 velocity=0 time=0
EXTRACT: note_on channel=0 note=72 velocity=126 time=0.0013888895833333334
EXTRACT: note_on channel=1 note=74 velocity=96 time=0
EXTRACT: note_on channel=2 note=77 velocity=96 time=0
EXTRACT: note_on channel=5 note=65 velocity=110 time=0
EXTRACT: note_on channel=2 note=77 velocity=0 time=0.16527786041666667
EXTRACT: note_on channel=5 note=65 velocity=0 time=0
EXTRACT: note_on channel=2 note=81 velocity=96 time=0.0013888895833333334
EXTRACT: note_on channel=5 note=62 velocity=110 time=0
EXTRACT: note_on channel=1 note=74 velocity=0 time=0.14861118541666668
EXTRACT: note_on channel=2 note=81 velocity=0 time=0.016666675
EXTRACT: note_on channel=5 note=62 velocity=0 time=0
EXTRACT: note_on channel=1 note=74 velocity=96 time=0.0013888895833333334
EXTRACT: note_on channel=2 note=77 velocity=96 time=0
EXTRACT: note_on channel=5 note=65 velocity=110 time=0
EXTRACT: note_on channel=2 note=77 velocity=0 time=0.16527786041666667
EXTRACT: note_on channel=5 note=65 velocity=0 time=0
EXTRACT: note_on channel=2 note=81 velocity=96 time=0.0013888895833333334
EXTRACT: note_on channel=5 note=69 velocity=110 time=0
EXTRACT: note_on channel=1 note=74 velocity=0 time=0.14861118541666668
EXTRACT: note_on channel=2 note=81 velocity=0 time=0.016666675
EXTRACT: note_on channel=5 note=69 velocity=0 time=0
EXTRACT: note_on channel=5 note=46 velocity=0 time=0
EXTRACT: note_on channel=5 note=53 velocity=0 time=0
EXTRACT: note_on channel=1 note=77 velocity=96 time=0.0013888895833333334
EXTRACT: note_on channel=2 note=86 velocity=96 time=0
EXTRACT: note_on channel=5 note=69 velocity=110 time=0
EXTRACT: note_on channel=5 note=41 velocity=110 time=0
EXTRACT: note_on channel=5 note=48 velocity=110 time=0
EXTRACT: note_on channel=2 note=86 velocity=0 time=0.16527786041666667
EXTRACT: note_on channel=5 note=69 velocity=0 time=0
EXTRACT: note_on channel=2 note=82 velocity=96 time=0.0013888895833333334
EXTRACT: note_on channel=5 note=65 velocity=110 time=0
EXTRACT: note_on channel=2 note=82 velocity=0 time=0.16527786041666667
EXTRACT: note_on channel=5 note=65 velocity=0 time=0
EXTRACT: note_on channel=2 note=86 velocity=96 time=0.0013888895833333334
EXTRACT: note_on channel=5 note=69 velocity=110 time=0
EXTRACT: note_on channel=2 note=86 velocity=0 time=0.16527786041666667
EXTRACT: note_on channel=5 note=69 velocity=0 time=0
EXTRACT: note_on channel=2 note=82 velocity=96 time=0.0013888895833333334
EXTRACT: note_on channel=5 note=65 velocity=110 time=0
EXTRACT: note_on channel=1 note=77 velocity=0 time=0.13194451041666666
EXTRACT: note_on channel=2 note=82 velocity=0 time=0.03333335
EXTRACT: note_on channel=5 note=65 velocity=0 time=0
EXTRACT: note_on channel=1 note=81 velocity=96 time=0.0013888895833333334
EXTRACT: note_on channel=2 note=86 velocity=96 time=0
EXTRACT: note_on channel=5 note=69 velocity=110 time=0
EXTRACT: note_on channel=1 note=81 velocity=0 time=0.15694452291666666
EXTRACT: note_on channel=2 note=86 velocity=0 time=0.0083333375
EXTRACT: note_on channel=5 note=69 velocity=0 time=0
EXTRACT: note_on channel=1 note=79 velocity=96 time=0.0013888895833333334
EXTRACT: note_on channel=2 note=82 velocity=96 time=0
EXTRACT: note_on channel=5 note=65 velocity=110 time=0
EXTRACT: note_on channel=1 note=79 velocity=0 time=0.15694452291666666
EXTRACT: note_on channel=2 note=82 velocity=0 time=0.0083333375
EXTRACT: note_on channel=5 note=65 velocity=0 time=0
EXTRACT: note_on channel=1 note=81 velocity=96 time=0.0013888895833333334
EXTRACT: note_on channel=2 note=86 velocity=96 time=0
EXTRACT: note_on channel=5 note=69 velocity=110 time=0
EXTRACT: note_on channel=1 note=81 velocity=0 time=0.15694452291666666
EXTRACT: note_on channel=2 note=86 velocity=0 time=0.0083333375
EXTRACT: note_on channel=5 note=69 velocity=0 time=0
EXTRACT: note_on channel=1 note=79 velocity=96 time=0.0013888895833333334
EXTRACT: note_on channel=2 note=82 velocity=96 time=0
EXTRACT: note_on channel=5 note=65 velocity=110 time=0
EXTRACT: note_on channel=1 note=79 velocity=0 time=0.15694452291666666
EXTRACT: note_on channel=0 note=72 velocity=0 time=0.0083333375
EXTRACT: note_on channel=2 note=82 velocity=0 time=0
EXTRACT: note_on channel=5 note=65 velocity=0 time=0
EXTRACT: note_on channel=5 note=41 velocity=0 time=0
EXTRACT: note_on channel=5 note=48 velocity=0 time=0
EXTRACT: note_on channel=1 note=81 velocity=96 time=0.0013888895833333334
EXTRACT: note_on channel=2 note=86 velocity=96 time=0
EXTRACT: note_on channel=5 note=69 velocity=110 time=0
EXTRACT: note_on channel=5 note=41 velocity=110 time=0
EXTRACT: note_on channel=5 note=48 velocity=110 time=0
EXTRACT: note_on channel=1 note=81 velocity=0 time=0.15694452291666666
EXTRACT: note_on channel=2 note=86 velocity=0 time=0.0083333375
EXTRACT: note_on channel=5 note=69 velocity=0 time=0
EXTRACT: note_on channel=1 note=77 velocity=96 time=0.0013888895833333334
EXTRACT: note_on channel=2 note=82 velocity=96 time=0
EXTRACT: note_on channel=5 note=65 velocity=110 time=0
EXTRACT: note_on channel=1 note=77 velocity=0 time=0.15694452291666666
EXTRACT: note_on channel=2 note=82 velocity=0 time=0.0083333375
EXTRACT: note_on channel=5 note=65 velocity=0 time=0
EXTRACT: note_on channel=0 note=72 velocity=126 time=0.0013888895833333334
EXTRACT: note_on channel=1 note=81 velocity=96 time=0
EXTRACT: note_on channel=2 note=86 velocity=96 time=0
EXTRACT: note_on channel=5 note=69 velocity=110 time=0
EXTRACT: note_on channel=1 note=81 velocity=0 time=0.15694452291666666
EXTRACT: note_on channel=0 note=72 velocity=0 time=0.0083333375
EXTRACT: note_on channel=2 note=86 velocity=0 time=0
EXTRACT: note_on channel=5 note=69 velocity=0 time=0
EXTRACT: note_on channel=0 note=74 velocity=126 time=0.0013888895833333334
EXTRACT: note_on channel=1 note=77 velocity=96 time=0
EXTRACT: note_on channel=2 note=82 velocity=96 time=0
EXTRACT: note_on channel=5 note=70 velocity=110 time=0
EXTRACT: note_on channel=1 note=77 velocity=0 time=0.15694452291666666
EXTRACT: note_on channel=2 note=82 velocity=0 time=0.0083333375
EXTRACT: note_on channel=5 note=70 velocity=0 time=0
EXTRACT: note_on channel=1 note=81 velocity=96 time=0.0013888895833333334
EXTRACT: note_on channel=2 note=86 velocity=96 time=0
EXTRACT: note_on channel=5 note=70 velocity=110 time=0
EXTRACT: note_on channel=1 note=81 velocity=0 time=0.15694452291666666
EXTRACT: note_on channel=2 note=86 velocity=0 time=0.0083333375
EXTRACT: note_on channel=5 note=70 velocity=0 time=0
EXTRACT: note_on channel=1 note=82 velocity=96 time=0.0013888895833333334
EXTRACT: note_on channel=2 note=82 velocity=96 time=0
EXTRACT: note_on channel=5 note=67 velocity=110 time=0
EXTRACT: note_on channel=1 note=82 velocity=0 time=0.15694452291666666
EXTRACT: note_on channel=0 note=74 velocity=0 time=0.0083333375
EXTRACT: note_on channel=2 note=82 velocity=0 time=0
EXTRACT: note_on channel=5 note=67 velocity=0 time=0
EXTRACT: note_on channel=0 note=77 velocity=126 time=0.0013888895833333334
EXTRACT: note_on channel=1 note=84 velocity=96 time=0
EXTRACT: note_on channel=2 note=86 velocity=96 time=0
EXTRACT: note_on channel=5 note=70 velocity=110 time=0
EXTRACT: note_on channel=2 note=86 velocity=0 time=0.16527786041666667
EXTRACT: note_on channel=5 note=70 velocity=0 time=0
EXTRACT: note_on channel=2 note=82 velocity=96 time=0.0013888895833333334
EXTRACT: note_on channel=5 note=74 velocity=110 time=0
EXTRACT: note_on channel=1 note=84 velocity=0 time=0.14861118541666668
EXTRACT: note_on channel=0 note=77 velocity=0 time=0.016666675
EXTRACT: note_on channel=2 note=82 velocity=0 time=0
EXTRACT: note_on channel=5 note=74 velocity=0 time=0
EXTRACT: note_on channel=5 note=41 velocity=0 time=0
EXTRACT: note_on channel=5 note=48 velocity=0 time=0
EXTRACT: note_on channel=0 note=81 velocity=126 time=0.0013888895833333334
EXTRACT: note_on channel=1 note=74 velocity=96 time=0
EXTRACT: note_on channel=2 note=86 velocity=96 time=0
EXTRACT: note_on channel=5 note=74 velocity=110 time=0
EXTRACT: note_on channel=5 note=43 velocity=110 time=0
EXTRACT: note_on channel=5 note=50 velocity=110 time=0
EXTRACT: note_on channel=2 note=86 velocity=0 time=0.16527786041666667
EXTRACT: note_on channel=5 note=74 velocity=0 time=0
EXTRACT: note_on channel=2 note=84 velocity=96 time=0.0013888895833333334
EXTRACT: note_on channel=5 note=70 velocity=110 time=0
EXTRACT: note_on channel=1 note=74 velocity=0 time=0.14861118541666668
EXTRACT: note_on channel=2 note=84 velocity=0 time=0.016666675
EXTRACT: note_on channel=5 note=70 velocity=0 time=0
EXTRACT: note_on channel=1 note=74 velocity=96 time=0.0013888895833333334
EXTRACT: note_on channel=2 note=82 velocity=96 time=0
EXTRACT: note_on channel=5 note=74 velocity=110 time=0
EXTRACT: note_on channel=0 note=81 velocity=0 time=0.16527786041666667
EXTRACT: note_on channel=2 note=82 velocity=0 time=0
EXTRACT: note_on channel=5 note=74 velocity=0 time=0
EXTRACT: note_on channel=0 note=82 velocity=126 time=0.0013888895833333334
EXTRACT: note_on channel=2 note=81 velocity=96 time=0
EXTRACT: note_on channel=5 note=70 velocity=110 time=0
EXTRACT: note_on channel=1 note=74 velocity=0 time=0.14861118541666668
EXTRACT: note_on channel=2 note=81 velocity=0 time=0.016666675
EXTRACT: note_on channel=5 note=70 velocity=0 time=0
EXTRACT: note_on channel=1 note=70 velocity=96 time=0.0013888895833333334
EXTRACT: note_on channel=2 note=79 velocity=96 time=0
EXTRACT: note_on channel=5 note=74 velocity=110 time=0
EXTRACT: note_on channel=2 note=79 velocity=0 time=0.16527786041666667
EXTRACT: note_on channel=5 note=74 velocity=0 time=0
EXTRACT: note_on channel=2 note=77 velocity=96 time=0.0013888895833333334
EXTRACT: note_on channel=5 note=70 velocity=110 time=0
EXTRACT: note_on channel=1 note=70 velocity=0 time=0.14861118541666668
EXTRACT: note_on channel=0 note=82 velocity=0 time=0.016666675
EXTRACT: note_on channel=2 note=77 velocity=0 time=0
EXTRACT: note_on channel=5 note=70 velocity=0 time=0
EXTRACT: note_on channel=0 note=77 velocity=126 time=0.0013888895833333334
EXTRACT: note_on channel=1 note=77 velocity=96 time=0
EXTRACT: note_on channel=2 note=75 velocity=96 time=0
EXTRACT: note_on channel=5 note=67 velocity=110 time=0
EXTRACT: note_on channel=2 note=75 velocity=0 time=0.16527786041666667
EXTRACT: note_on channel=5 note=67 velocity=0 time=0
EXTRACT: note_on channel=2 note=74 velocity=96 time=0.0013888895833333334
EXTRACT: note_on channel=5 note=70 velocity=110 time=0
EXTRACT: note_on channel=1 note=77 velocity=0 time=0.14861118541666668
EXTRACT: note_on channel=2 note=74 velocity=0 time=0.016666675
EXTRACT: note_on channel=5 note=70 velocity=0 time=0
EXTRACT: note_on channel=5 note=43 velocity=0 time=0
EXTRACT: note_on channel=5 note=50 velocity=0 time=0
EXTRACT: note_on channel=1 note=79 velocity=96 time=0.0013888895833333334
EXTRACT: note_on channel=2 note=74 velocity=96 time=0
EXTRACT: note_on channel=5 note=70 velocity=110 time=0
EXTRACT: note_on channel=5 note=43 velocity=110 time=0
EXTRACT: note_on channel=5 note=50 velocity=110 time=0
EXTRACT: note_on channel=0 note=77 velocity=0 time=0.16527786041666667
EXTRACT: note_on channel=2 note=74 velocity=0 time=0
EXTRACT: note_on channel=0 note=74 velocity=126 time=0.0013888895833333334
EXTRACT: note_on channel=2 note=75 velocity=96 time=0
EXTRACT: note_on channel=1 note=79 velocity=0 time=0.14861118541666668
EXTRACT: note_on channel=2 note=75 velocity=0 time=0.016666675
EXTRACT: note_on channel=1 note=79 velocity=96 time=0.0013888895833333334
EXTRACT: note_on channel=2 note=74 velocity=96 time=0
EXTRACT: note_on channel=2 note=74 velocity=0 time=0.16527786041666667
EXTRACT: note_on channel=5 note=70 velocity=0 time=0
EXTRACT: note_on channel=2 note=75 velocity=96 time=0.0013888895833333334
EXTRACT: note_on channel=5 note=70 velocity=110 time=0
EXTRACT: note_on channel=1 note=79 velocity=0 time=0.14861118541666668
EXTRACT: note_on channel=0 note=74 velocity=0 time=0.016666675
EXTRACT: note_on channel=2 note=75 velocity=0 time=0
EXTRACT: note_on channel=5 note=70 velocity=0 time=0
EXTRACT: note_on channel=0 note=77 velocity=126 time=0.0013888895833333334
EXTRACT: note_on channel=1 note=79 velocity=96 time=0
EXTRACT: note_on channel=2 note=74 velocity=96 time=0
EXTRACT: note_on channel=5 note=70 velocity=110 time=0
EXTRACT: note_on channel=2 note=74 velocity=0 time=0.16527786041666667
EXTRACT: note_on channel=2 note=75 velocity=96 time=0.0013888895833333334
EXTRACT: note_on channel=1 note=79 velocity=0 time=0.14861118541666668
EXTRACT: note_on channel=2 note=75 velocity=0 time=0.016666675
EXTRACT: note_on channel=1 note=82 velocity=96 time=0.0013888895833333334
EXTRACT: note_on channel=2 note=74 velocity=96 time=0
EXTRACT: note_on channel=2 note=74 velocity=0 time=0.16527786041666667
EXTRACT: note_on channel=5 note=70 velocity=0 time=0
EXTRACT: note_on channel=2 note=75 velocity=96 time=0.0013888895833333334
EXTRACT: note_on channel=5 note=67 velocity=110 time=0
EXTRACT: note_on channel=1 note=82 velocity=0 time=0.14861118541666668
EXTRACT: note_on channel=2 note=75 velocity=0 time=0.016666675
EXTRACT: note_on channel=5 note=67 velocity=0 time=0
EXTRACT: note_on channel=5 note=43 velocity=0 time=0
EXTRACT: note_on channel=5 note=50 velocity=0 time=0
EXTRACT: note_on channel=1 note=79 velocity=96 time=0.0013888895833333334
EXTRACT: note_on channel=2 note=72 velocity=96 time=0
EXTRACT: note_on channel=5 note=67 velocity=110 time=0
EXTRACT: note_on channel=5 note=39 velocity=110 time=0
EXTRACT: note_on channel=5 note=46 velocity=110 time=0
EXTRACT: note_on channel=1 note=79 velocity=0 time=0.15694452291666666
EXTRACT: note_on channel=2 note=72 velocity=0 time=0.0083333375
EXTRACT: note_on channel=1 note=77 velocity=96 time=0.0013888895833333334
EXTRACT: note_on channel=2 note=75 velocity=96 time=0
EXTRACT: note_on channel=1 note=77 velocity=0 time=0.15694452291666666
EXTRACT: note_on channel=0 note=77 velocity=0 time=0.0083333375
EXTRACT: note_on channel=2 note=75 velocity=0 time=0
EXTRACT: note_on channel=0 note=75 velocity=126 time=0.0013888895833333334
EXTRACT: note_on channel=1 note=75 velocity=96 time=0
EXTRACT: note_on channel=2 note=79 velocity=96 time=0
EXTRACT: note_on channel=1 note=75 velocity=0 time=0.15694452291666666
EXTRACT: note_on channel=0 note=75 velocity=0 time=0.0083333375
EXTRACT: note_on channel=2 note=79 velocity=0 time=0
EXTRACT: note_on channel=5 note=67 velocity=0 time=0
EXTRACT: note_on channel=0 note=74 velocity=126 time=0.0013888895833333334
EXTRACT: note_on channel=1 note=74 velocity=96 time=0
EXTRACT: note_on channel=2 note=82 velocity=96 time=0
EXTRACT: note_on channel=5 note=65 velocity=110 time=0
EXTRACT: note_on channel=1 note=74 velocity=0 time=0.15694452291666666
EXTRACT: note_on channel=0 note=74 velocity=0 time=0.0083333375
EXTRACT: note_on channel=2 note=82 velocity=0 time=0
EXTRACT: note_on channel=5 note=65 velocity=0 time=0
EXTRACT: note_on channel=0 note=72 velocity=126 time=0.0013888895833333334
EXTRACT: note_on channel=1 note=74 velocity=96 time=0
EXTRACT: note_on channel=2 note=82 velocity=96 time=0
EXTRACT: note_on channel=5 note=65 velocity=110 time=0
EXTRACT: note_on channel=1 note=74 velocity=0 time=0.15694452291666666
EXTRACT: note_on channel=2 note=82 velocity=0 time=0.0083333375
EXTRACT: note_on channel=1 note=75 velocity=96 time=0.0013888895833333334
EXTRACT: note_on channel=2 note=79 velocity=96 time=0
EXTRACT: note_on channel=1 note=75 velocity=0 time=0.15694452291666666
EXTRACT: note_on channel=2 note=79 velocity=0 time=0.0083333375
EXTRACT: note_on channel=1 note=77 velocity=96 time=0.0013888895833333334
EXTRACT: note_on channel=2 note=82 velocity=96 time=0
EXTRACT: note_on channel=1 note=77 velocity=0 time=0.15694452291666666
EXTRACT: note_on channel=2 note=82 velocity=0 time=0.0083333375
EXTRACT: note_on channel=5 note=65 velocity=0 time=0
EXTRACT: note_on channel=1 note=79 velocity=96 time=0.0013888895833333334
EXTRACT: note_on channel=2 note=79 velocity=96 time=0
EXTRACT: note_on channel=5 note=63 velocity=110 time=0
EXTRACT: note_on channel=1 note=79 velocity=0 time=0.15694452291666666
EXTRACT: note_on channel=2 note=79 velocity=0 time=0.0083333375
EXTRACT: note_on channel=5 note=63 velocity=0 time=0
EXTRACT: note_on channel=5 note=39 velocity=0 time=0
EXTRACT: note_on channel=5 note=46 velocity=0 time=0
EXTRACT: note_on channel=1 note=79 velocity=96 time=0.0013888895833333334
EXTRACT: note_on channel=2 note=82 velocity=96 time=0
EXTRACT: note_on channel=5 note=63 velocity=110 time=0
EXTRACT: note_on channel=5 note=39 velocity=110 time=0
EXTRACT: note_on channel=5 note=46 velocity=110 time=0
EXTRACT: note_on channel=2 note=82 velocity=0 time=0.16527786041666667
EXTRACT: note_on channel=2 note=79 velocity=96 time=0.0013888895833333334
EXTRACT: note_on channel=1 note=79 velocity=0 time=0.14861118541666668
EXTRACT: note_on channel=2 note=79 velocity=0 time=0.016666675
EXTRACT: note_on channel=5 note=63 velocity=0 time=0
EXTRACT: note_on channel=1 note=82 velocity=96 time=0.0013888895833333334
EXTRACT: note_on channel=2 note=82 velocity=96 time=0
EXTRACT: note_on channel=5 note=65 velocity=110 time=0
EXTRACT: note_on channel=2 note=82 velocity=0 time=0.16527786041666667
EXTRACT: note_on channel=5 note=65 velocity=0 time=0
EXTRACT: note_on channel=2 note=79 velocity=96 time=0.0013888895833333334
EXTRACT: note_on channel=5 note=67 velocity=110 time=0
EXTRACT: note_on channel=1 note=82 velocity=0 time=0.14861118541666668
EXTRACT: note_on channel=2 note=79 velocity=0 time=0.016666675
EXTRACT: note_on channel=5 note=67 velocity=0 time=0
EXTRACT: note_on channel=1 note=79 velocity=96 time=0.0013888895833333334
EXTRACT: note_on channel=2 note=82 velocity=96 time=0
EXTRACT: note_on channel=5 note=67 velocity=110 time=0
EXTRACT: note_on channel=2 note=82 velocity=0 time=0.16527786041666667
EXTRACT: note_on channel=5 note=67 velocity=0 time=0
EXTRACT: note_on channel=2 note=79 velocity=96 time=0.0013888895833333334
EXTRACT: note_on channel=5 note=65 velocity=110 time=0
EXTRACT: note_on channel=1 note=79 velocity=0 time=0.14861118541666668
EXTRACT: note_on channel=2 note=79 velocity=0 time=0.016666675
EXTRACT: note_on channel=5 note=65 velocity=0 time=0
EXTRACT: note_on channel=1 note=82 velocity=96 time=0.0013888895833333334
EXTRACT: note_on channel=2 note=77 velocity=96 time=0
EXTRACT: note_on channel=5 note=67 velocity=110 time=0
EXTRACT: note_on channel=2 note=77 velocity=0 time=0.16527786041666667
EXTRACT: note_on channel=5 note=67 velocity=0 time=0
EXTRACT: note_on channel=2 note=74 velocity=96 time=0.0013888895833333334
EXTRACT: note_on channel=5 note=70 velocity=110 time=0
EXTRACT: note_on channel=1 note=82 velocity=0 time=0.14861118541666668
EXTRACT: note_on channel=0 note=72 velocity=0 time=0.016666675
EXTRACT: note_on channel=2 note=74 velocity=0 time=0
EXTRACT: note_on channel=5 note=70 velocity=0 time=0
EXTRACT: note_on channel=5 note=39 velocity=0 time=0
EXTRACT: note_on channel=5 note=46 velocity=0 time=0
EXTRACT: note_on channel=0 note=70 velocity=126 time=0.0013888895833333334
EXTRACT: note_on channel=1 note=70 velocity=96 time=0
EXTRACT: note_on channel=2 note=74 velocity=96 time=0
EXTRACT: note_on channel=5 note=58 velocity=110 time=0
EXTRACT: note_on channel=5 note=62 velocity=110 time=0
EXTRACT: note_on channel=5 note=65 velocity=110 time=0
EXTRACT: note_on channel=5 note=70 velocity=110 time=0
EXTRACT: note_on channel=2 note=74 velocity=0 time=0.6652781104166667
EXTRACT: note_on channel=2 note=81 velocity=92 time=0.0013888895833333334
EXTRACT: note_on channel=2 note=81 velocity=0 time=0.6652781104166667
EXTRACT: note_on channel=2 note=63 velocity=88 time=0.0013888895833333334
EXTRACT: note_on channel=2 note=70 velocity=88 time=0
EXTRACT: note_on channel=2 note=82 velocity=88 time=0
EXTRACT: note_on channel=5 note=41 velocity=95 time=0
EXTRACT: note_on channel=5 note=46 velocity=95 time=0
EXTRACT: note_on channel=5 note=53 velocity=95 time=0
EXTRACT: note_on channel=1 note=70 velocity=0 time=0.5652780604166667
EXTRACT: note_on channel=1 note=82 velocity=84 time=0.10138893958333334
EXTRACT: note_on channel=1 note=82 velocity=0 time=0.6319447604166667
EXTRACT: note_on channel=0 note=70 velocity=0 time=0.03333335
EXTRACT: note_on channel=2 note=63 velocity=0 time=0
EXTRACT: note_on channel=2 note=70 velocity=0 time=0
EXTRACT: note_on channel=2 note=82 velocity=0 time=0
EXTRACT: note_on channel=5 note=58 velocity=0 time=0
EXTRACT: note_on channel=5 note=62 velocity=0 time=0
EXTRACT: note_on channel=5 note=65 velocity=0 time=0
EXTRACT: note_on channel=5 note=70 velocity=0 time=0
EXTRACT: note_on channel=5 note=41 velocity=0 time=0
EXTRACT: note_on channel=5 note=46 velocity=0 time=0
EXTRACT: note_on channel=5 note=53 velocity=0 time=0
