EXTRACT: control_change channel=0 control=0 value=121 time=0
EXTRACT: control_change channel=0 control=32 value=0 time=0
EXTRACT: program_change channel=0 program=40 time=0
EXTRACT: control_change channel=0 control=7 value=101 time=0
EXTRACT: control_change channel=0 control=10 value=64 time=0
EXTRACT: control_change channel=1 control=0 value=121 time=0
EXTRACT: control_change channel=1 control=32 value=0 time=0
EXTRACT: program_change channel=1 program=0 time=0
EXTRACT: control_change channel=1 control=7 value=101 time=0
EXTRACT: control_change channel=1 control=10 value=64 time=0
EXTRACT: note_on channel=1 note=48 velocity=64 time=0
EXTRACT: note_on channel=1 note=53 velocity=64 time=0
EXTRACT: note_on channel=1 note=56 velocity=64 time=0
EXTRACT: note_on channel=1 note=41 velocity=64 time=0
EXTRACT: note_off channel=1 note=48 velocity=0 time=1.125
EXTRACT: note_off channel=1 note=53 velocity=0 time=0
EXTRACT: note_off channel=1 note=56 velocity=0 time=0
EXTRACT: note_on channel=1 note=49 velocity=64 time=0
EXTRACT: note_on channel=1 note=53 velocity=64 time=0
EXTRACT: note_on channel=1 note=56 velocity=64 time=0
EXTRACT: note_off channel=1 note=41 velocity=0 time=0
EXTRACT: note_on channel=1 note=44 velocity=64 time=0
EXTRACT: note_off channel=1 note=49 velocity=0 time=0
EXTRACT: note_off channel=1 note=53 velocity=0 time=0
EXTRACT: note_off channel=1 note=56 velocity=0 time=0
EXTRACT: note_off channel=1 note=44 velocity=0 time=0
EXTRACT: note_on channel=1 note=51 velocity=64 time=0
EXTRACT: note_on channel=1 note=55 velocity=64 time=0
EXTRACT: note_on channel=1 note=58 velocity=64 time=0
EXTRACT: note_on channel=1 note=39 velocity=64 time=0
EXTRACT: note_off channel=1 note=51 velocity=0 time=1.125
EXTRACT: note_off channel=1 note=55 velocity=0 time=0
EXTRACT: note_off channel=1 note=58 velocity=0 time=0
EXTRACT: note_on channel=1 note=49 velocity=64 time=0
EXTRACT: note_on channel=1 note=53 velocity=64 time=0
EXTRACT: note_on channel=1 note=56 velocity=64 time=0
EXTRACT: note_off channel=1 note=39 velocity=0 time=0
EXTRACT: note_on channel=1 note=37 velocity=64 time=0
EXTRACT: note_on channel=0 note=70 velocity=64 time=1.125
EXTRACT: note_off channel=0 note=70 velocity=0 time=0.1875
EXTRACT: note_on channel=0 note=72 velocity=64 time=0
EXTRACT: note_off channel=1 note=49 velocity=0 time=0
EXTRACT: note_off channel=1 note=53 velocity=0 time=0
EXTRACT: note_off channel=1 note=56 velocity=0 time=0
EXTRACT: note_off channel=1 note=37 velocity=0 time=0
EXTRACT: note_on channel=1 note=48 velocity=64 time=0
EXTRACT: note_on channel=1 note=53 velocity=64 time=0
EXTRACT: note_on channel=1 note=56 velocity=64 time=0
EXTRACT: note_on channel=1 note=41 velocity=64 time=0
EXTRACT: note_off channel=0 note=72 velocity=0 time=1.125
EXTRACT: note_off channel=1 note=48 velocity=0 time=0
EXTRACT: note_off channel=1 note=53 velocity=0 time=0
EXTRACT: note_off channel=1 note=56 velocity=0 time=0
EXTRACT: note_on channel=1 note=49 velocity=64 time=0
EXTRACT: note_on channel=1 note=53 velocity=64 time=0
EXTRACT: note_on channel=1 note=56 velocity=64 time=0
EXTRACT: note_off channel=1 note=41 velocity=0 time=0
EXTRACT: note_on channel=1 note=44 velocity=64 time=0
EXTRACT: note_on channel=0 note=70 velocity=64 time=0.75
EXTRACT: note_off channel=0 note=70 velocity=0 time=0.375
EXTRACT: note_on channel=0 note=70 velocity=64 time=0
EXTRACT: note_off channel=1 note=49 velocity=0 time=0
EXTRACT: note_off channel=1 note=53 velocity=0 time=0
EXTRACT: note_off channel=1 note=56 velocity=0 time=0
EXTRACT: note_off channel=1 note=44 velocity=0 time=0
EXTRACT: note_on channel=1 note=51 velocity=64 time=0
EXTRACT: note_on channel=1 note=55 velocity=64 time=0
EXTRACT: note_on channel=1 note=58 velocity=64 time=0
EXTRACT: note_on channel=1 note=39 velocity=64 time=0
EXTRACT: note_off channel=0 note=70 velocity=0 time=1.125
EXTRACT: note_off channel=1 note=51 velocity=0 time=0
EXTRACT: note_off channel=1 note=55 velocity=0 time=0
EXTRACT: note_off channel=1 note=58 velocity=0 time=0
EXTRACT: note_on channel=1 note=49 velocity=64 time=0
EXTRACT: note_on channel=1 note=53 velocity=64 time=0
EXTRACT: note_on channel=1 note=56 velocity=64 time=0
EXTRACT: note_off channel=1 note=39 velocity=0 time=0
EXTRACT: note_on channel=1 note=37 velocity=64 time=0
EXTRACT: note_on channel=0 note=68 velocity=64 time=0.75
EXTRACT: note_off channel=0 note=68 velocity=0 time=0.375
EXTRACT: note_on channel=0 note=72 velocity=64 time=0
EXTRACT: note_off channel=0 note=72 velocity=0 time=0
EXTRACT: note_on channel=0 note=72 velocity=64 time=0
EXTRACT: note_off channel=1 note=49 velocity=0 time=0
EXTRACT: note_off channel=1 note=53 velocity=0 time=0
EXTRACT: note_off channel=1 note=56 velocity=0 time=0
EXTRACT: note_off channel=1 note=37 velocity=0 time=0
EXTRACT: note_on channel=1 note=48 velocity=64 time=0
EXTRACT: note_on channel=1 note=53 velocity=64 time=0
EXTRACT: note_on channel=1 note=56 velocity=64 time=0
EXTRACT: note_on channel=1 note=41 velocity=64 time=0
EXTRACT: note_off channel=0 note=72 velocity=0 time=0.375
EXTRACT: note_on channel=0 note=72 velocity=64 time=0
EXTRACT: note_off channel=0 note=72 velocity=0 time=0.1875
EXTRACT: note_on channel=0 note=72 velocity=64 time=0
EXTRACT: note_off channel=0 note=72 velocity=0 time=0.5625
EXTRACT: note_on channel=0 note=72 velocity=64 time=0
EXTRACT: note_off channel=1 note=48 velocity=0 time=0
EXTRACT: note_off channel=1 note=53 velocity=0 time=0
EXTRACT: note_off channel=1 note=56 velocity=0 time=0
EXTRACT: note_on channel=1 note=49 velocity=64 time=0
EXTRACT: note_on channel=1 note=53 velocity=64 time=0
EXTRACT: note_on channel=1 note=56 velocity=64 time=0
EXTRACT: note_off channel=1 note=41 velocity=0 time=0
EXTRACT: note_on channel=1 note=44 velocity=64 time=0
EXTRACT: note_off channel=0 note=72 velocity=0 time=0.1875
EXTRACT: note_on channel=0 note=72 velocity=64 time=0
EXTRACT: note_off channel=0 note=72 velocity=0 time=0.375
EXTRACT: note_on channel=0 note=70 velocity=64 time=0
EXTRACT: note_off channel=0 note=70 velocity=0 time=0.1875
EXTRACT: note_on channel=0 note=70 velocity=64 time=0
EXTRACT: note_off channel=0 note=70 velocity=0 time=0.5625
EXTRACT: note_on channel=0 note=68 velocity=64 time=0
EXTRACT: note_off channel=0 note=68 velocity=0 time=0.1875
EXTRACT: note_on channel=0 note=70 velocity=64 time=0
EXTRACT: note_off channel=1 note=49 velocity=0 time=0
EXTRACT: note_off channel=1 note=53 velocity=0 time=0
EXTRACT: note_off channel=1 note=56 velocity=0 time=0
EXTRACT: note_off channel=1 note=44 velocity=0 time=0
EXTRACT: note_on channel=1 note=51 velocity=64 time=0
EXTRACT: note_on channel=1 note=55 velocity=64 time=0
EXTRACT: note_on channel=1 note=58 velocity=64 time=0
EXTRACT: note_on channel=1 note=39 velocity=64 time=0
EXTRACT: note_off channel=0 note=70 velocity=0 time=0.375
EXTRACT: note_on channel=0 note=72 velocity=64 time=0
EXTRACT: note_off channel=0 note=72 velocity=0 time=0.1875
EXTRACT: note_on channel=0 note=70 velocity=64 time=0
EXTRACT: note_off channel=0 note=70 velocity=0 time=0.5625
EXTRACT: note_on channel=0 note=65 velocity=64 time=0
EXTRACT: note_off channel=1 note=51 velocity=0 time=0
EXTRACT: note_off channel=1 note=55 velocity=0 time=0
EXTRACT: note_off channel=1 note=58 velocity=0 time=0
EXTRACT: note_on channel=1 note=49 velocity=64 time=0
EXTRACT: note_on channel=1 note=53 velocity=64 time=0
EXTRACT: note_on channel=1 note=56 velocity=64 time=0
EXTRACT: note_off channel=1 note=39 velocity=0 time=0
EXTRACT: note_on channel=1 note=37 velocity=64 time=0
EXTRACT: note_off channel=0 note=65 velocity=0 time=0.1875
EXTRACT: note_on channel=0 note=68 velocity=64 time=0
EXTRACT: note_off channel=0 note=68 velocity=0 time=0.75
EXTRACT: note_on channel=0 note=68 velocity=64 time=0
EXTRACT: note_off channel=0 note=68 velocity=0 time=0.1875
EXTRACT: note_on channel=0 note=72 velocity=64 time=0
EXTRACT: note_off channel=0 note=72 velocity=0 time=0.375
EXTRACT: note_on channel=0 note=72 velocity=64 time=0
EXTRACT: note_off channel=1 note=49 velocity=0 time=0
EXTRACT: note_off channel=1 note=53 velocity=0 time=0
EXTRACT: note_off channel=1 note=56 velocity=0 time=0
EXTRACT: note_off channel=1 note=37 velocity=0 time=0
EXTRACT: note_on channel=1 note=48 velocity=64 time=0
EXTRACT: note_on channel=1 note=53 velocity=64 time=0
EXTRACT: note_on channel=1 note=56 velocity=64 time=0
EXTRACT: note_on channel=1 note=41 velocity=64 time=0
EXTRACT: note_off channel=0 note=72 velocity=0 time=0.375
EXTRACT: note_on channel=0 note=70 velocity=64 time=0
EXTRACT: note_off channel=0 note=70 velocity=0 time=0.1875
EXTRACT: note_on channel=0 note=68 velocity=64 time=0
EXTRACT: note_off channel=1 note=48 velocity=0 time=0.5625
EXTRACT: note_off channel=1 note=53 velocity=0 time=0
EXTRACT: note_off channel=1 note=56 velocity=0 time=0
EXTRACT: note_on channel=1 note=49 velocity=64 time=0
EXTRACT: note_on channel=1 note=53 velocity=64 time=0
EXTRACT: note_on channel=1 note=56 velocity=64 time=0
EXTRACT: note_off channel=1 note=41 velocity=0 time=0
EXTRACT: note_on channel=1 note=44 velocity=64 time=0
EXTRACT: note_off channel=0 note=68 velocity=0 time=0
EXTRACT: note_on channel=0 note=70 velocity=64 time=0.75
EXTRACT: note_off channel=0 note=70 velocity=0 time=0.1875
EXTRACT: note_on channel=0 note=70 velocity=64 time=0
EXTRACT: note_off channel=0 note=70 velocity=0 time=0.1875
EXTRACT: note_on channel=0 note=70 velocity=64 time=0
EXTRACT: note_off channel=0 note=70 velocity=0 time=0.1875
EXTRACT: note_on channel=0 note=70 velocity=64 time=0
EXTRACT: note_off channel=1 note=49 velocity=0 time=0
EXTRACT: note_off channel=1 note=53 velocity=0 time=0
EXTRACT: note_off channel=1 note=56 velocity=0 time=0
EXTRACT: note_off channel=1 note=44 velocity=0 time=0
EXTRACT: note_on channel=1 note=51 velocity=64 time=0
EXTRACT: note_on channel=1 note=55 velocity=64 time=0
EXTRACT: note_on channel=1 note=58 velocity=64 time=0
EXTRACT: note_on channel=1 note=39 velocity=64 time=0
EXTRACT: note_off channel=0 note=70 velocity=0 time=1.125
EXTRACT: note_off channel=1 note=51 velocity=0 time=0
EXTRACT: note_off channel=1 note=55 velocity=0 time=0
EXTRACT: note_off channel=1 note=58 velocity=0 time=0
EXTRACT: note_on channel=1 note=49 velocity=64 time=0
EXTRACT: note_on channel=1 note=53 velocity=64 time=0
EXTRACT: note_on channel=1 note=56 velocity=64 time=0
EXTRACT: note_off channel=1 note=39 velocity=0 time=0
EXTRACT: note_on channel=1 note=37 velocity=64 time=0
EXTRACT: note_on channel=0 note=72 velocity=64 time=0.375
EXTRACT: note_off channel=0 note=72 velocity=0 time=0.375
EXTRACT: note_on channel=0 note=72 velocity=64 time=0
EXTRACT: note_off channel=0 note=72 velocity=0 time=0.375
EXTRACT: note_on channel=0 note=72 velocity=64 time=0
EXTRACT: note_off channel=0 note=72 velocity=0 time=0.1875
EXTRACT: note_on channel=0 note=72 velocity=64 time=0
EXTRACT: note_off channel=1 note=49 velocity=0 time=0
EXTRACT: note_off channel=1 note=53 velocity=0 time=0
EXTRACT: note_off channel=1 note=56 velocity=0 time=0
EXTRACT: note_off channel=1 note=37 velocity=0 time=0
EXTRACT: note_on channel=1 note=48 velocity=64 time=0
EXTRACT: note_on channel=1 note=53 velocity=64 time=0
EXTRACT: note_on channel=1 note=56 velocity=64 time=0
EXTRACT: note_on channel=1 note=41 velocity=64 time=0
EXTRACT: note_off channel=0 note=72 velocity=0 time=0.375
EXTRACT: note_on channel=0 note=72 velocity=64 time=0
EXTRACT: note_off channel=0 note=72 velocity=0 time=0.1875
EXTRACT: note_on channel=0 note=72 velocity=64 time=0
EXTRACT: note_off channel=0 note=72 velocity=0 time=0.5625
EXTRACT: note_on channel=0 note=72 velocity=64 time=0
EXTRACT: note_off channel=1 note=48 velocity=0 time=0
EXTRACT: note_off channel=1 note=53 velocity=0 time=0
EXTRACT: note_off channel=1 note=56 velocity=0 time=0
EXTRACT: note_on channel=1 note=49 velocity=64 time=0
EXTRACT: note_on channel=1 note=53 velocity=64 time=0
EXTRACT: note_on channel=1 note=56 velocity=64 time=0
EXTRACT: note_off channel=1 note=41 velocity=0 time=0
EXTRACT: note_on channel=1 note=44 velocity=64 time=0
EXTRACT: note_off channel=0 note=72 velocity=0 time=0.1875
EXTRACT: note_on channel=0 note=72 velocity=64 time=0
EXTRACT: note_off channel=0 note=72 velocity=0 time=0.375
EXTRACT: note_on channel=0 note=70 velocity=64 time=0
EXTRACT: note_off channel=0 note=70 velocity=0 time=0.375
EXTRACT: note_on channel=0 note=70 velocity=64 time=0.1875
EXTRACT: note_off channel=0 note=70 velocity=0 time=0.1875
EXTRACT: note_on channel=0 note=70 velocity=64 time=0
EXTRACT: note_off channel=0 note=70 velocity=0 time=0.1875
EXTRACT: note_on channel=0 note=70 velocity=64 time=0
EXTRACT: note_off channel=0 note=70 velocity=0 time=0
EXTRACT: note_on channel=0 note=70 velocity=64 time=0
EXTRACT: note_off channel=1 note=49 velocity=0 time=0
EXTRACT: note_off channel=1 note=53 velocity=0 time=0
EXTRACT: note_off channel=1 note=56 velocity=0 time=0
EXTRACT: note_off channel=1 note=44 velocity=0 time=0
EXTRACT: note_on channel=1 note=51 velocity=64 time=0
EXTRACT: note_on channel=1 note=55 velocity=64 time=0
EXTRACT: note_on channel=1 note=58 velocity=64 time=0
EXTRACT: note_on channel=1 note=39 velocity=64 time=0
EXTRACT: note_off channel=0 note=70 velocity=0 time=0.5625
EXTRACT: note_on channel=0 note=70 velocity=64 time=0
EXTRACT: note_off channel=0 note=70 velocity=0 time=0.5625
EXTRACT: note_on channel=0 note=68 velocity=64 time=0
EXTRACT: note_off channel=1 note=51 velocity=0 time=0
EXTRACT: note_off channel=1 note=55 velocity=0 time=0
EXTRACT: note_off channel=1 note=58 velocity=0 time=0
EXTRACT: note_on channel=1 note=49 velocity=64 time=0
EXTRACT: note_on channel=1 note=53 velocity=64 time=0
EXTRACT: note_on channel=1 note=56 velocity=64 time=0
EXTRACT: note_off channel=1 note=39 velocity=0 time=0
EXTRACT: note_on channel=1 note=37 velocity=64 time=0
EXTRACT: note_off channel=0 note=68 velocity=0 time=0.1875
EXTRACT: note_on channel=0 note=68 velocity=64 time=0
EXTRACT: note_off channel=0 note=68 velocity=0 time=0.5625
EXTRACT: note_on channel=0 note=70 velocity=64 time=0.375
EXTRACT: note_off channel=0 note=70 velocity=0 time=0.1875
EXTRACT: note_on channel=0 note=72 velocity=64 time=0
EXTRACT: note_off channel=1 note=49 velocity=0 time=0
EXTRACT: note_off channel=1 note=53 velocity=0 time=0
EXTRACT: note_off channel=1 note=56 velocity=0 time=0
EXTRACT: note_off channel=1 note=37 velocity=0 time=0
EXTRACT: note_on channel=1 note=48 velocity=64 time=0
EXTRACT: note_on channel=1 note=53 velocity=64 time=0
EXTRACT: note_on channel=1 note=56 velocity=64 time=0
EXTRACT: note_on channel=1 note=41 velocity=64 time=0
EXTRACT: note_off channel=0 note=72 velocity=0 time=1.125
EXTRACT: note_off channel=1 note=48 velocity=0 time=0
EXTRACT: note_off channel=1 note=53 velocity=0 time=0
EXTRACT: note_off channel=1 note=56 velocity=0 time=0
EXTRACT: note_on channel=1 note=49 velocity=64 time=0
EXTRACT: note_on channel=1 note=53 velocity=64 time=0
EXTRACT: note_on channel=1 note=56 velocity=64 time=0
EXTRACT: note_off channel=1 note=41 velocity=0 time=0
EXTRACT: note_on channel=1 note=44 velocity=64 time=0
EXTRACT: note_on channel=0 note=70 velocity=64 time=0.75
EXTRACT: note_off channel=0 note=70 velocity=0 time=0.375
EXTRACT: note_on channel=0 note=70 velocity=64 time=0
EXTRACT: note_off channel=0 note=70 velocity=0 time=0.1875
EXTRACT: note_on channel=0 note=70 velocity=64 time=0
EXTRACT: note_off channel=1 note=49 velocity=0 time=0
EXTRACT: note_off channel=1 note=53 velocity=0 time=0
EXTRACT: note_off channel=1 note=56 velocity=0 time=0
EXTRACT: note_off channel=1 note=44 velocity=0 time=0
EXTRACT: note_on channel=1 note=51 velocity=64 time=0
EXTRACT: note_on channel=1 note=55 velocity=64 time=0
EXTRACT: note_on channel=1 note=58 velocity=64 time=0
EXTRACT: note_on channel=1 note=39 velocity=64 time=0
EXTRACT: note_off channel=0 note=70 velocity=0 time=0.375
EXTRACT: note_on channel=0 note=72 velocity=64 time=0
EXTRACT: note_off channel=1 note=51 velocity=0 time=0.75
EXTRACT: note_off channel=1 note=55 velocity=0 time=0
EXTRACT: note_off channel=1 note=58 velocity=0 time=0
EXTRACT: note_on channel=1 note=49 velocity=64 time=0
EXTRACT: note_on channel=1 note=53 velocity=64 time=0
EXTRACT: note_on channel=1 note=56 velocity=64 time=0
EXTRACT: note_off channel=1 note=39 velocity=0 time=0
EXTRACT: note_on channel=1 note=37 velocity=64 time=0
EXTRACT: note_off channel=0 note=72 velocity=0 time=0
EXTRACT: note_on channel=0 note=68 velocity=64 time=0.75
EXTRACT: note_off channel=0 note=68 velocity=0 time=0.375
EXTRACT: note_on channel=0 note=72 velocity=64 time=0
EXTRACT: note_off channel=0 note=72 velocity=0 time=0.1875
EXTRACT: note_on channel=0 note=72 velocity=64 time=0
EXTRACT: note_off channel=1 note=49 velocity=0 time=0
EXTRACT: note_off channel=1 note=53 velocity=0 time=0
EXTRACT: note_off channel=1 note=56 velocity=0 time=0
EXTRACT: note_off channel=1 note=37 velocity=0 time=0
EXTRACT: note_on channel=1 note=48 velocity=64 time=0
EXTRACT: note_on channel=1 note=53 velocity=64 time=0
EXTRACT: note_on channel=1 note=56 velocity=64 time=0
EXTRACT: note_on channel=1 note=41 velocity=64 time=0
EXTRACT: note_off channel=0 note=72 velocity=0 time=0.375
EXTRACT: note_on channel=0 note=72 velocity=64 time=0
EXTRACT: note_off channel=0 note=72 velocity=0 time=0.1875
EXTRACT: note_on channel=0 note=72 velocity=64 time=0
EXTRACT: note_off channel=0 note=72 velocity=0 time=0.5625
EXTRACT: note_on channel=0 note=72 velocity=64 time=0
EXTRACT: note_off channel=1 note=48 velocity=0 time=0
EXTRACT: note_off channel=1 note=53 velocity=0 time=0
EXTRACT: note_off channel=1 note=56 velocity=0 time=0
EXTRACT: note_on channel=1 note=49 velocity=64 time=0
EXTRACT: note_on channel=1 note=53 velocity=64 time=0
EXTRACT: note_on channel=1 note=56 velocity=64 time=0
EXTRACT: note_off channel=1 note=41 velocity=0 time=0
EXTRACT: note_on channel=1 note=44 velocity=64 time=0
EXTRACT: note_off channel=0 note=72 velocity=0 time=0.1875
EXTRACT: note_on channel=0 note=72 velocity=64 time=0
EXTRACT: note_off channel=0 note=72 velocity=0 time=0.375
EXTRACT: note_on channel=0 note=70 velocity=64 time=0
EXTRACT: note_off channel=0 note=70 velocity=0 time=0.1875
EXTRACT: note_on channel=0 note=70 velocity=64 time=0
EXTRACT: note_off channel=0 note=70 velocity=0 time=0.5625
EXTRACT: note_on channel=0 note=68 velocity=64 time=0
EXTRACT: note_off channel=0 note=68 velocity=0 time=0.1875
EXTRACT: note_on channel=0 note=70 velocity=64 time=0
EXTRACT: note_off channel=1 note=49 velocity=0 time=0
EXTRACT: note_off channel=1 note=53 velocity=0 time=0
EXTRACT: note_off channel=1 note=56 velocity=0 time=0
EXTRACT: note_off channel=1 note=44 velocity=0 time=0
EXTRACT: note_on channel=1 note=51 velocity=64 time=0
EXTRACT: note_on channel=1 note=55 velocity=64 time=0
EXTRACT: note_on channel=1 note=58 velocity=64 time=0
EXTRACT: note_on channel=1 note=39 velocity=64 time=0
EXTRACT: note_off channel=0 note=70 velocity=0 time=0.375
EXTRACT: note_on channel=0 note=72 velocity=64 time=0
EXTRACT: note_off channel=0 note=72 velocity=0 time=0.1875
EXTRACT: note_on channel=0 note=70 velocity=64 time=0
EXTRACT: note_off channel=0 note=70 velocity=0 time=0.5625
EXTRACT: note_on channel=0 note=65 velocity=64 time=0
EXTRACT: note_off channel=1 note=51 velocity=0 time=0
EXTRACT: note_off channel=1 note=55 velocity=0 time=0
EXTRACT: note_off channel=1 note=58 velocity=0 time=0
EXTRACT: note_on channel=1 note=49 velocity=64 time=0
EXTRACT: note_on channel=1 note=53 velocity=64 time=0
EXTRACT: note_on channel=1 note=56 velocity=64 time=0
EXTRACT: note_off channel=1 note=39 velocity=0 time=0
EXTRACT: note_on channel=1 note=37 velocity=64 time=0
EXTRACT: note_off channel=0 note=65 velocity=0 time=0.1875
EXTRACT: note_on channel=0 note=68 velocity=64 time=0
EXTRACT: note_off channel=0 note=68 velocity=0 time=0.5625
EXTRACT: note_on channel=0 note=68 velocity=64 time=0
EXTRACT: note_off channel=0 note=68 velocity=0 time=0.1875
EXTRACT: note_on channel=0 note=68 velocity=64 time=0
EXTRACT: note_off channel=0 note=68 velocity=0 time=0.1875
EXTRACT: note_on channel=0 note=72 velocity=64 time=0
EXTRACT: note_off channel=0 note=72 velocity=0 time=0.375
EXTRACT: note_on channel=0 note=72 velocity=64 time=0
EXTRACT: note_off channel=1 note=49 velocity=0 time=0
EXTRACT: note_off channel=1 note=53 velocity=0 time=0
EXTRACT: note_off channel=1 note=56 velocity=0 time=0
EXTRACT: note_off channel=1 note=37 velocity=0 time=0
EXTRACT: note_on channel=1 note=48 velocity=64 time=0
EXTRACT: note_on channel=1 note=53 velocity=64 time=0
EXTRACT: note_on channel=1 note=56 velocity=64 time=0
EXTRACT: note_on channel=1 note=41 velocity=64 time=0
EXTRACT: note_off channel=0 note=72 velocity=0 time=0.375
EXTRACT: note_on channel=0 note=70 velocity=64 time=0
EXTRACT: note_off channel=0 note=70 velocity=0 time=0.1875
EXTRACT: note_on channel=0 note=68 velocity=64 time=0
EXTRACT: note_off channel=1 note=48 velocity=0 time=0.5625
EXTRACT: note_off channel=1 note=53 velocity=0 time=0
EXTRACT: note_off channel=1 note=56 velocity=0 time=0
EXTRACT: note_on channel=1 note=49 velocity=64 time=0
EXTRACT: note_on channel=1 note=53 velocity=64 time=0
EXTRACT: note_on channel=1 note=56 velocity=64 time=0
EXTRACT: note_off channel=1 note=41 velocity=0 time=0
EXTRACT: note_on channel=1 note=44 velocity=64 time=0
EXTRACT: note_off channel=0 note=68 velocity=0 time=0
EXTRACT: note_on channel=0 note=70 velocity=64 time=0.75
EXTRACT: note_off channel=0 note=70 velocity=0 time=0.375
EXTRACT: note_on channel=0 note=70 velocity=64 time=0
EXTRACT: note_off channel=1 note=49 velocity=0 time=0
EXTRACT: note_off channel=1 note=53 velocity=0 time=0
EXTRACT: note_off channel=1 note=56 velocity=0 time=0
EXTRACT: note_off channel=1 note=44 velocity=0 time=0
EXTRACT: note_on channel=1 note=51 velocity=64 time=0
EXTRACT: note_on channel=1 note=55 velocity=64 time=0
EXTRACT: note_on channel=1 note=58 velocity=64 time=0
EXTRACT: note_on channel=1 note=39 velocity=64 time=0
EXTRACT: note_off channel=0 note=70 velocity=0 time=1.125
EXTRACT: note_off channel=1 note=51 velocity=0 time=0
EXTRACT: note_off channel=1 note=55 velocity=0 time=0
EXTRACT: note_off channel=1 note=58 velocity=0 time=0
EXTRACT: note_on channel=1 note=49 velocity=64 time=0
EXTRACT: note_on channel=1 note=53 velocity=64 time=0
EXTRACT: note_on channel=1 note=56 velocity=64 time=0
EXTRACT: note_off channel=1 note=39 velocity=0 time=0
EXTRACT: note_on channel=1 note=37 velocity=64 time=0
EXTRACT: note_on channel=0 note=68 velocity=64 time=0.75
EXTRACT: note_off channel=0 note=68 velocity=0 time=0.375
EXTRACT: note_on channel=0 note=72 velocity=64 time=0
EXTRACT: note_off channel=0 note=72 velocity=0 time=0.1875
EXTRACT: note_on channel=0 note=72 velocity=64 time=0
EXTRACT: note_off channel=1 note=49 velocity=0 time=0
EXTRACT: note_off channel=1 note=53 velocity=0 time=0
EXTRACT: note_off channel=1 note=56 velocity=0 time=0
EXTRACT: note_off channel=1 note=37 velocity=0 time=0
EXTRACT: note_on channel=1 note=48 velocity=64 time=0
EXTRACT: note_on channel=1 note=53 velocity=64 time=0
EXTRACT: note_on channel=1 note=56 velocity=64 time=0
EXTRACT: note_on channel=1 note=41 velocity=64 time=0
EXTRACT: note_off channel=0 note=72 velocity=0 time=0.375
EXTRACT: note_on channel=0 note=72 velocity=64 time=0
EXTRACT: note_off channel=0 note=72 velocity=0 time=0.1875
EXTRACT: note_on channel=0 note=72 velocity=64 time=0
EXTRACT: note_off channel=0 note=72 velocity=0 time=0.5625
EXTRACT: note_on channel=0 note=72 velocity=64 time=0
EXTRACT: note_off channel=1 note=48 velocity=0 time=0
EXTRACT: note_off channel=1 note=53 velocity=0 time=0
EXTRACT: note_off channel=1 note=56 velocity=0 time=0
EXTRACT: note_on channel=1 note=49 velocity=64 time=0
EXTRACT: note_on channel=1 note=53 velocity=64 time=0
EXTRACT: note_on channel=1 note=56 velocity=64 time=0
EXTRACT: note_off channel=1 note=41 velocity=0 time=0
EXTRACT: note_on channel=1 note=44 velocity=64 time=0
EXTRACT: note_off channel=0 note=72 velocity=0 time=0.1875
EXTRACT: note_on channel=0 note=72 velocity=64 time=0
EXTRACT: note_off channel=0 note=72 velocity=0 time=0.375
EXTRACT: note_on channel=0 note=70 velocity=64 time=0
EXTRACT: note_off channel=0 note=70 velocity=0 time=0.1875
EXTRACT: note_on channel=0 note=70 velocity=64 time=0
EXTRACT: note_off channel=0 note=70 velocity=0 time=0.5625
EXTRACT: note_on channel=0 note=68 velocity=64 time=0
EXTRACT: note_off channel=0 note=68 velocity=0 time=0.1875
EXTRACT: note_on channel=0 note=70 velocity=64 time=0
EXTRACT: note_off channel=1 note=49 velocity=0 time=0
EXTRACT: note_off channel=1 note=53 velocity=0 time=0
EXTRACT: note_off channel=1 note=56 velocity=0 time=0
EXTRACT: note_off channel=1 note=44 velocity=0 time=0
EXTRACT: note_on channel=1 note=51 velocity=64 time=0
EXTRACT: note_on channel=1 note=55 velocity=64 time=0
EXTRACT: note_on channel=1 note=58 velocity=64 time=0
EXTRACT: note_on channel=1 note=39 velocity=64 time=0
EXTRACT: note_off channel=0 note=70 velocity=0 time=0.375
EXTRACT: note_on channel=0 note=72 velocity=64 time=0
EXTRACT: note_off channel=0 note=72 velocity=0 time=0.1875
EXTRACT: note_on channel=0 note=70 velocity=64 time=0
EXTRACT: note_off channel=0 note=70 velocity=0 time=0.375
EXTRACT: note_on channel=0 note=65 velocity=64 time=0
EXTRACT: note_off channel=1 note=51 velocity=0 time=0.1875
EXTRACT: note_off channel=1 note=55 velocity=0 time=0
EXTRACT: note_off channel=1 note=58 velocity=0 time=0
EXTRACT: note_on channel=1 note=49 velocity=64 time=0
EXTRACT: note_on channel=1 note=53 velocity=64 time=0
EXTRACT: note_on channel=1 note=56 velocity=64 time=0
EXTRACT: note_off channel=1 note=39 velocity=0 time=0
EXTRACT: note_on channel=1 note=37 velocity=64 time=0
EXTRACT: note_off channel=0 note=65 velocity=0 time=0.1875
EXTRACT: note_on channel=0 note=68 velocity=64 time=0
EXTRACT: note_off channel=0 note=68 velocity=0 time=0.375
EXTRACT: note_on channel=0 note=68 velocity=64 time=0
EXTRACT: note_off channel=0 note=68 velocity=0 time=0.375
EXTRACT: note_on channel=0 note=68 velocity=64 time=0
EXTRACT: note_off channel=0 note=68 velocity=0 time=0.375
EXTRACT: note_on channel=0 note=72 velocity=64 time=0
EXTRACT: note_off channel=0 note=72 velocity=0 time=0
EXTRACT: note_on channel=0 note=72 velocity=64 time=0
EXTRACT: note_off channel=1 note=49 velocity=0 time=0
EXTRACT: note_off channel=1 note=53 velocity=0 time=0
EXTRACT: note_off channel=1 note=56 velocity=0 time=0
EXTRACT: note_off channel=1 note=37 velocity=0 time=0
EXTRACT: note_on channel=1 note=53 velocity=64 time=0
EXTRACT: note_on channel=1 note=56 velocity=64 time=0
EXTRACT: note_on channel=1 note=60 velocity=64 time=0
EXTRACT: note_on channel=1 note=41 velocity=64 time=0
EXTRACT: note_off channel=0 note=72 velocity=0 time=0.75
EXTRACT: note_on channel=0 note=70 velocity=64 time=0
EXTRACT: note_off channel=0 note=70 velocity=0 time=0.375
EXTRACT: note_on channel=0 note=68 velocity=64 time=0
EXTRACT: note_off channel=1 note=53 velocity=0 time=0
EXTRACT: note_off channel=1 note=56 velocity=0 time=0
EXTRACT: note_off channel=1 note=60 velocity=0 time=0
EXTRACT: note_on channel=1 note=51 velocity=64 time=0
EXTRACT: note_on channel=1 note=55 velocity=64 time=0
EXTRACT: note_on channel=1 note=58 velocity=64 time=0
EXTRACT: note_off channel=1 note=41 velocity=0 time=0
EXTRACT: note_on channel=1 note=39 velocity=64 time=0
EXTRACT: note_off channel=0 note=68 velocity=0 time=0.375
EXTRACT: note_on channel=0 note=72 velocity=64 time=0.75
EXTRACT: note_off channel=0 note=72 velocity=0 time=0.1875
EXTRACT: note_on channel=0 note=75 velocity=64 time=0
EXTRACT: note_off channel=1 note=51 velocity=0 time=0
EXTRACT: note_off channel=1 note=55 velocity=0 time=0
EXTRACT: note_off channel=1 note=58 velocity=0 time=0
EXTRACT: note_off channel=1 note=39 velocity=0 time=0
EXTRACT: note_on channel=1 note=51 velocity=64 time=0
EXTRACT: note_on channel=1 note=55 velocity=64 time=0
EXTRACT: note_on channel=1 note=60 velocity=64 time=0
EXTRACT: note_on channel=1 note=36 velocity=64 time=0
EXTRACT: note_off channel=0 note=75 velocity=0 time=0.5625
EXTRACT: note_on channel=0 note=72 velocity=64 time=0
EXTRACT: note_off channel=0 note=72 velocity=0 time=0.1875
EXTRACT: note_on channel=0 note=73 velocity=64 time=0
EXTRACT: note_off channel=0 note=73 velocity=0 time=0.1875
EXTRACT: note_on channel=0 note=72 velocity=64 time=0
EXTRACT: note_off channel=0 note=72 velocity=0 time=0.1875
EXTRACT: note_on channel=0 note=70 velocity=64 time=0
EXTRACT: note_off channel=1 note=51 velocity=0 time=0
EXTRACT: note_off channel=1 note=55 velocity=0 time=0
EXTRACT: note_off channel=1 note=60 velocity=0 time=0
EXTRACT: note_on channel=1 note=53 velocity=64 time=0
EXTRACT: note_on channel=1 note=56 velocity=64 time=0
EXTRACT: note_on channel=1 note=61 velocity=64 time=0
EXTRACT: note_off channel=1 note=36 velocity=0 time=0
EXTRACT: note_on channel=1 note=37 velocity=64 time=0
EXTRACT: note_off channel=0 note=70 velocity=0 time=0.1875
EXTRACT: note_on channel=0 note=68 velocity=64 time=0
EXTRACT: note_off channel=0 note=68 velocity=0 time=0.75
EXTRACT: note_on channel=0 note=68 velocity=64 time=0
EXTRACT: note_off channel=0 note=68 velocity=0 time=0.375
EXTRACT: note_on channel=0 note=72 velocity=64 time=0
EXTRACT: note_off channel=0 note=72 velocity=0 time=0
EXTRACT: note_on channel=0 note=72 velocity=64 time=0
EXTRACT: note_off channel=1 note=53 velocity=0 time=0
EXTRACT: note_off channel=1 note=56 velocity=0 time=0
EXTRACT: note_off channel=1 note=61 velocity=0 time=0
EXTRACT: note_off channel=1 note=37 velocity=0 time=0
EXTRACT: note_on channel=1 note=53 velocity=64 time=0
EXTRACT: note_on channel=1 note=56 velocity=64 time=0
EXTRACT: note_on channel=1 note=60 velocity=64 time=0
EXTRACT: note_on channel=1 note=41 velocity=64 time=0
EXTRACT: note_off channel=0 note=72 velocity=0 time=0.75
EXTRACT: note_on channel=0 note=70 velocity=64 time=0
EXTRACT: note_off channel=0 note=70 velocity=0 time=0.375
EXTRACT: note_on channel=0 note=70 velocity=64 time=0
EXTRACT: note_off channel=1 note=53 velocity=0 time=0
EXTRACT: note_off channel=1 note=56 velocity=0 time=0
EXTRACT: note_off channel=1 note=60 velocity=0 time=0
EXTRACT: note_on channel=1 note=51 velocity=64 time=0
EXTRACT: note_on channel=1 note=55 velocity=64 time=0
EXTRACT: note_on channel=1 note=58 velocity=64 time=0
EXTRACT: note_off channel=1 note=41 velocity=0 time=0
EXTRACT: note_on channel=1 note=39 velocity=64 time=0
EXTRACT: note_off channel=0 note=70 velocity=0 time=0.75
EXTRACT: note_on channel=0 note=68 velocity=64 time=0
EXTRACT: note_off channel=1 note=51 velocity=0 time=0
EXTRACT: note_off channel=1 note=55 velocity=0 time=0
EXTRACT: note_off channel=1 note=58 velocity=0 time=0
EXTRACT: note_on channel=1 note=49 velocity=64 time=0
EXTRACT: note_on channel=1 note=53 velocity=64 time=0
EXTRACT: note_on channel=1 note=56 velocity=64 time=0
EXTRACT: note_off channel=1 note=39 velocity=0 time=0
EXTRACT: note_on channel=1 note=37 velocity=64 time=0
EXTRACT: note_off channel=0 note=68 velocity=0 time=0
EXTRACT: note_on channel=0 note=65 velocity=64 time=0
EXTRACT: note_off channel=1 note=49 velocity=0 time=0
EXTRACT: note_off channel=1 note=53 velocity=0 time=0
EXTRACT: note_off channel=1 note=56 velocity=0 time=0
EXTRACT: note_off channel=1 note=37 velocity=0 time=0
EXTRACT: note_on channel=1 note=48 velocity=64 time=0
EXTRACT: note_on channel=1 note=53 velocity=64 time=0
EXTRACT: note_on channel=1 note=56 velocity=64 time=0
EXTRACT: note_on channel=1 note=41 velocity=64 time=0
EXTRACT: note_off channel=0 note=65 velocity=0 time=0.375
EXTRACT: note_on channel=0 note=65 velocity=64 time=0
EXTRACT: note_off channel=0 note=65 velocity=0 time=0.375
EXTRACT: note_on channel=0 note=68 velocity=64 time=0
EXTRACT: note_off channel=0 note=68 velocity=0 time=0.375
EXTRACT: note_on channel=0 note=68 velocity=64 time=0
EXTRACT: note_off channel=1 note=48 velocity=0 time=0
EXTRACT: note_off channel=1 note=53 velocity=0 time=0
EXTRACT: note_off channel=1 note=56 velocity=0 time=0
EXTRACT: note_on channel=1 note=53 velocity=64 time=0
EXTRACT: note_on channel=1 note=56 velocity=64 time=0
EXTRACT: note_on channel=1 note=61 velocity=64 time=0
EXTRACT: note_off channel=1 note=41 velocity=0 time=0
EXTRACT: note_on channel=1 note=37 velocity=64 time=0
EXTRACT: note_off channel=0 note=68 velocity=0 time=0
EXTRACT: note_on channel=0 note=70 velocity=64 time=0
EXTRACT: note_off channel=0 note=70 velocity=0 time=0.375
EXTRACT: note_on channel=0 note=70 velocity=64 time=0
EXTRACT: note_off channel=0 note=70 velocity=0 time=0.375
EXTRACT: note_on channel=0 note=70 velocity=64 time=0
EXTRACT: note_off channel=1 note=53 velocity=0 time=0
EXTRACT: note_off channel=1 note=56 velocity=0 time=0
EXTRACT: note_off channel=1 note=61 velocity=0 time=0
EXTRACT: note_off channel=1 note=37 velocity=0 time=0
EXTRACT: note_on channel=1 note=51 velocity=64 time=0
EXTRACT: note_on channel=1 note=56 velocity=64 time=0
EXTRACT: note_on channel=1 note=60 velocity=64 time=0
EXTRACT: note_on channel=1 note=44 velocity=64 time=0
EXTRACT: note_off channel=0 note=70 velocity=0 time=1.125
EXTRACT: note_on channel=0 note=68 velocity=64 time=0
EXTRACT: note_off channel=1 note=51 velocity=0 time=0
EXTRACT: note_off channel=1 note=56 velocity=0 time=0
EXTRACT: note_off channel=1 note=60 velocity=0 time=0
EXTRACT: note_on channel=1 note=51 velocity=64 time=0
EXTRACT: note_on channel=1 note=55 velocity=64 time=0
EXTRACT: note_on channel=1 note=58 velocity=64 time=0
EXTRACT: note_off channel=1 note=44 velocity=0 time=0
EXTRACT: note_on channel=1 note=39 velocity=64 time=0
EXTRACT: note_off channel=0 note=68 velocity=0 time=1.125
EXTRACT: note_on channel=0 note=65 velocity=64 time=0
EXTRACT: note_off channel=0 note=65 velocity=0 time=0
EXTRACT: note_on channel=0 note=65 velocity=64 time=0
EXTRACT: note_off channel=1 note=51 velocity=0 time=0
EXTRACT: note_off channel=1 note=55 velocity=0 time=0
EXTRACT: note_off channel=1 note=58 velocity=0 time=0
EXTRACT: note_off channel=1 note=39 velocity=0 time=0
EXTRACT: note_on channel=1 note=48 velocity=64 time=0
EXTRACT: note_on channel=1 note=53 velocity=64 time=0
EXTRACT: note_on channel=1 note=56 velocity=64 time=0
EXTRACT: note_on channel=1 note=41 velocity=64 time=0
EXTRACT: note_off channel=0 note=65 velocity=0 time=0.375
EXTRACT: note_on channel=0 note=65 velocity=64 time=0
EXTRACT: note_off channel=0 note=65 velocity=0 time=0.375
EXTRACT: note_on channel=0 note=68 velocity=64 time=0
EXTRACT: note_off channel=0 note=68 velocity=0 time=0.375
EXTRACT: note_on channel=0 note=68 velocity=64 time=0
EXTRACT: note_off channel=1 note=48 velocity=0 time=0
EXTRACT: note_off channel=1 note=53 velocity=0 time=0
EXTRACT: note_off channel=1 note=56 velocity=0 time=0
EXTRACT: note_on channel=1 note=53 velocity=64 time=0
EXTRACT: note_on channel=1 note=56 velocity=64 time=0
EXTRACT: note_on channel=1 note=61 velocity=64 time=0
EXTRACT: note_off channel=1 note=41 velocity=0 time=0
EXTRACT: note_on channel=1 note=37 velocity=64 time=0
EXTRACT: note_off channel=0 note=68 velocity=0 time=0
EXTRACT: note_on channel=0 note=70 velocity=64 time=0
EXTRACT: note_off channel=0 note=70 velocity=0 time=0.375
EXTRACT: note_on channel=0 note=70 velocity=64 time=0
EXTRACT: note_off channel=0 note=70 velocity=0 time=0.375
EXTRACT: note_on channel=0 note=70 velocity=64 time=0
EXTRACT: note_off channel=1 note=53 velocity=0 time=0
EXTRACT: note_off channel=1 note=56 velocity=0 time=0
EXTRACT: note_off channel=1 note=61 velocity=0 time=0
EXTRACT: note_off channel=1 note=37 velocity=0 time=0
EXTRACT: note_on channel=1 note=51 velocity=64 time=0
EXTRACT: note_on channel=1 note=56 velocity=64 time=0
EXTRACT: note_on channel=1 note=60 velocity=64 time=0
EXTRACT: note_on channel=1 note=44 velocity=64 time=0
EXTRACT: note_off channel=0 note=70 velocity=0 time=0.1875
EXTRACT: note_on channel=0 note=72 velocity=64 time=0
EXTRACT: note_off channel=0 note=72 velocity=0 time=0.1875
EXTRACT: note_on channel=0 note=70 velocity=64 time=0
EXTRACT: note_off channel=0 note=70 velocity=0 time=0.75
EXTRACT: note_on channel=0 note=68 velocity=64 time=0
EXTRACT: note_off channel=1 note=51 velocity=0 time=0
EXTRACT: note_off channel=1 note=56 velocity=0 time=0
EXTRACT: note_off channel=1 note=60 velocity=0 time=0
EXTRACT: note_on channel=1 note=51 velocity=64 time=0
EXTRACT: note_on channel=1 note=55 velocity=64 time=0
EXTRACT: note_on channel=1 note=58 velocity=64 time=0
EXTRACT: note_off channel=1 note=44 velocity=0 time=0
EXTRACT: note_on channel=1 note=39 velocity=64 time=0
EXTRACT: note_off channel=0 note=68 velocity=0 time=0.5625
EXTRACT: note_on channel=0 note=68 velocity=64 time=0
EXTRACT: note_off channel=0 note=68 velocity=0 time=0.1875
EXTRACT: note_on channel=0 note=75 velocity=64 time=0
EXTRACT: note_off channel=0 note=75 velocity=0 time=0.375
EXTRACT: note_on channel=0 note=70 velocity=64 time=0
EXTRACT: note_off channel=0 note=70 velocity=0 time=0.1875
EXTRACT: note_on channel=0 note=68 velocity=64 time=0
EXTRACT: note_off channel=1 note=51 velocity=0 time=0
EXTRACT: note_off channel=1 note=55 velocity=0 time=0
EXTRACT: note_off channel=1 note=58 velocity=0 time=0
EXTRACT: note_off channel=1 note=39 velocity=0 time=0
EXTRACT: note_on channel=1 note=48 velocity=64 time=0
EXTRACT: note_on channel=1 note=53 velocity=64 time=0
EXTRACT: note_on channel=1 note=56 velocity=64 time=0
EXTRACT: note_on channel=1 note=41 velocity=64 time=0
EXTRACT: note_off channel=0 note=68 velocity=0 time=0.5625
EXTRACT: note_on channel=0 note=72 velocity=64 time=0
EXTRACT: note_off channel=0 note=72 velocity=0 time=0.5625
EXTRACT: note_on channel=0 note=68 velocity=64 time=0
EXTRACT: note_off channel=1 note=48 velocity=0 time=0
EXTRACT: note_off channel=1 note=53 velocity=0 time=0
EXTRACT: note_off channel=1 note=56 velocity=0 time=0
EXTRACT: note_on channel=1 note=53 velocity=64 time=0
EXTRACT: note_on channel=1 note=56 velocity=64 time=0
EXTRACT: note_on channel=1 note=61 velocity=64 time=0
EXTRACT: note_off channel=1 note=41 velocity=0 time=0
EXTRACT: note_on channel=1 note=37 velocity=64 time=0
EXTRACT: note_off channel=0 note=68 velocity=0 time=0.375
EXTRACT: note_on channel=0 note=68 velocity=64 time=0
EXTRACT: note_off channel=0 note=68 velocity=0 time=0.375
EXTRACT: note_on channel=0 note=68 velocity=64 time=0.1875
EXTRACT: note_off channel=0 note=68 velocity=0 time=0.1875
EXTRACT: note_on channel=0 note=68 velocity=64 time=0
EXTRACT: note_off channel=0 note=68 velocity=0 time=0.1875
EXTRACT: note_on channel=0 note=68 velocity=64 time=0
EXTRACT: note_off channel=0 note=68 velocity=0 time=0
EXTRACT: note_on channel=0 note=68 velocity=64 time=0
EXTRACT: note_off channel=1 note=53 velocity=0 time=0
EXTRACT: note_off channel=1 note=56 velocity=0 time=0
EXTRACT: note_off channel=1 note=61 velocity=0 time=0
EXTRACT: note_off channel=1 note=37 velocity=0 time=0
EXTRACT: note_on channel=1 note=51 velocity=64 time=0
EXTRACT: note_on channel=1 note=56 velocity=64 time=0
EXTRACT: note_on channel=1 note=60 velocity=64 time=0
EXTRACT: note_on channel=1 note=44 velocity=64 time=0
EXTRACT: note_off channel=0 note=68 velocity=0 time=0.375
EXTRACT: note_on channel=0 note=67 velocity=64 time=0
EXTRACT: note_off channel=0 note=67 velocity=0 time=0.375
EXTRACT: note_on channel=0 note=65 velocity=64 time=0
EXTRACT: note_off channel=0 note=65 velocity=0 time=0.375
EXTRACT: note_on channel=0 note=63 velocity=64 time=0
EXTRACT: note_off channel=1 note=51 velocity=0 time=0
EXTRACT: note_off channel=1 note=56 velocity=0 time=0
EXTRACT: note_off channel=1 note=60 velocity=0 time=0
EXTRACT: note_on channel=1 note=51 velocity=64 time=0
EXTRACT: note_on channel=1 note=55 velocity=64 time=0
EXTRACT: note_on channel=1 note=58 velocity=64 time=0
EXTRACT: note_off channel=1 note=44 velocity=0 time=0
EXTRACT: note_on channel=1 note=39 velocity=64 time=0
EXTRACT: note_off channel=0 note=63 velocity=0 time=0.1875
EXTRACT: note_on channel=0 note=63 velocity=64 time=0
EXTRACT: note_off channel=0 note=63 velocity=0 time=0.1875
EXTRACT: note_on channel=0 note=63 velocity=64 time=0
EXTRACT: note_off channel=0 note=63 velocity=0 time=0.375
EXTRACT: note_on channel=0 note=75 velocity=64 time=0
EXTRACT: note_off channel=0 note=75 velocity=0 time=0.375
EXTRACT: note_on channel=0 note=68 velocity=64 time=0
EXTRACT: note_off channel=1 note=51 velocity=0 time=0
EXTRACT: note_off channel=1 note=55 velocity=0 time=0
EXTRACT: note_off channel=1 note=58 velocity=0 time=0
EXTRACT: note_off channel=1 note=39 velocity=0 time=0
EXTRACT: note_on channel=1 note=48 velocity=64 time=0
EXTRACT: note_on channel=1 note=53 velocity=64 time=0
EXTRACT: note_on channel=1 note=56 velocity=64 time=0
EXTRACT: note_on channel=1 note=41 velocity=64 time=0
EXTRACT: note_off channel=0 note=68 velocity=0 time=0.375
EXTRACT: note_on channel=0 note=72 velocity=64 time=0
EXTRACT: note_off channel=0 note=72 velocity=0 time=0.75
EXTRACT: note_on channel=0 note=68 velocity=64 time=0
EXTRACT: note_off channel=1 note=48 velocity=0 time=0
EXTRACT: note_off channel=1 note=53 velocity=0 time=0
EXTRACT: note_off channel=1 note=56 velocity=0 time=0
EXTRACT: note_on channel=1 note=53 velocity=64 time=0
EXTRACT: note_on channel=1 note=56 velocity=64 time=0
EXTRACT: note_on channel=1 note=61 velocity=64 time=0
EXTRACT: note_off channel=1 note=41 velocity=0 time=0
EXTRACT: note_on channel=1 note=37 velocity=64 time=0
EXTRACT: note_off channel=0 note=68 velocity=0 time=0.375
EXTRACT: note_on channel=0 note=68 velocity=64 time=0
EXTRACT: note_off channel=0 note=68 velocity=0 time=0
EXTRACT: note_on channel=0 note=68 velocity=64 time=0
EXTRACT: note_off channel=1 note=53 velocity=0 time=0
EXTRACT: note_off channel=1 note=56 velocity=0 time=0
EXTRACT: note_off channel=1 note=61 velocity=0 time=0
EXTRACT: note_off channel=1 note=37 velocity=0 time=0
EXTRACT: note_on channel=1 note=51 velocity=64 time=0
EXTRACT: note_on channel=1 note=56 velocity=64 time=0
EXTRACT: note_on channel=1 note=60 velocity=64 time=0
EXTRACT: note_on channel=1 note=44 velocity=64 time=0
EXTRACT: note_off channel=0 note=68 velocity=0 time=0.375
EXTRACT: note_on channel=0 note=67 velocity=64 time=0
EXTRACT: note_off channel=0 note=67 velocity=0 time=0.375
EXTRACT: note_on channel=0 note=65 velocity=64 time=0
EXTRACT: note_off channel=0 note=65 velocity=0 time=0.375
EXTRACT: note_on channel=0 note=63 velocity=64 time=0
EXTRACT: note_off channel=1 note=51 velocity=0 time=0
EXTRACT: note_off channel=1 note=56 velocity=0 time=0
EXTRACT: note_off channel=1 note=60 velocity=0 time=0
EXTRACT: note_on channel=1 note=51 velocity=64 time=0
EXTRACT: note_on channel=1 note=55 velocity=64 time=0
EXTRACT: note_on channel=1 note=58 velocity=64 time=0
EXTRACT: note_off channel=1 note=44 velocity=0 time=0
EXTRACT: note_on channel=1 note=39 velocity=64 time=0
EXTRACT: note_off channel=0 note=63 velocity=0 time=0.375
EXTRACT: note_on channel=0 note=65 velocity=64 time=0
EXTRACT: note_off channel=0 note=65 velocity=0 time=0
EXTRACT: note_on channel=0 note=65 velocity=64 time=0
EXTRACT: note_off channel=1 note=51 velocity=0 time=0
EXTRACT: note_off channel=1 note=55 velocity=0 time=0
EXTRACT: note_off channel=1 note=58 velocity=0 time=0
EXTRACT: note_off channel=1 note=39 velocity=0 time=0
EXTRACT: note_on channel=1 note=48 velocity=64 time=0
EXTRACT: note_on channel=1 note=53 velocity=64 time=0
EXTRACT: note_on channel=1 note=56 velocity=64 time=0
EXTRACT: note_on channel=1 note=41 velocity=64 time=0
EXTRACT: note_off channel=0 note=65 velocity=0 time=0.375
EXTRACT: note_on channel=0 note=65 velocity=64 time=0
EXTRACT: note_off channel=0 note=65 velocity=0 time=0.375
EXTRACT: note_on channel=0 note=68 velocity=64 time=0
EXTRACT: note_off channel=0 note=68 velocity=0 time=0.375
EXTRACT: note_on channel=0 note=68 velocity=64 time=0
EXTRACT: note_off channel=1 note=48 velocity=0 time=0
EXTRACT: note_off channel=1 note=53 velocity=0 time=0
EXTRACT: note_off channel=1 note=56 velocity=0 time=0
EXTRACT: note_on channel=1 note=53 velocity=64 time=0
EXTRACT: note_on channel=1 note=56 velocity=64 time=0
EXTRACT: note_on channel=1 note=61 velocity=64 time=0
EXTRACT: note_off channel=1 note=41 velocity=0 time=0
EXTRACT: note_on channel=1 note=37 velocity=64 time=0
EXTRACT: note_off channel=0 note=68 velocity=0 time=0
EXTRACT: note_on channel=0 note=70 velocity=64 time=0
EXTRACT: note_off channel=0 note=70 velocity=0 time=0.75
EXTRACT: note_on channel=0 note=70 velocity=64 time=0
EXTRACT: note_off channel=0 note=70 velocity=0 time=0.5625
EXTRACT: note_on channel=0 note=72 velocity=64 time=0
EXTRACT: note_off channel=0 note=72 velocity=0 time=0
EXTRACT: note_on channel=0 note=70 velocity=64 time=0
EXTRACT: note_off channel=1 note=53 velocity=0 time=0
EXTRACT: note_off channel=1 note=56 velocity=0 time=0
EXTRACT: note_off channel=1 note=61 velocity=0 time=0
EXTRACT: note_off channel=1 note=37 velocity=0 time=0
EXTRACT: note_on channel=1 note=51 velocity=64 time=0
EXTRACT: note_on channel=1 note=56 velocity=64 time=0
EXTRACT: note_on channel=1 note=60 velocity=64 time=0
EXTRACT: note_on channel=1 note=44 velocity=64 time=0
EXTRACT: note_off channel=0 note=70 velocity=0 time=1.125
EXTRACT: note_on channel=0 note=68 velocity=64 time=0
EXTRACT: note_off channel=1 note=51 velocity=0 time=0
EXTRACT: note_off channel=1 note=56 velocity=0 time=0
EXTRACT: note_off channel=1 note=60 velocity=0 time=0
EXTRACT: note_on channel=1 note=51 velocity=64 time=0
EXTRACT: note_on channel=1 note=55 velocity=64 time=0
EXTRACT: note_on channel=1 note=58 velocity=64 time=0
EXTRACT: note_off channel=1 note=44 velocity=0 time=0
EXTRACT: note_on channel=1 note=39 velocity=64 time=0
EXTRACT: note_off channel=0 note=68 velocity=0 time=1.125
EXTRACT: note_on channel=0 note=65 velocity=64 time=0
EXTRACT: note_off channel=0 note=65 velocity=0 time=0
EXTRACT: note_on channel=0 note=65 velocity=64 time=0
EXTRACT: note_off channel=1 note=51 velocity=0 time=0
EXTRACT: note_off channel=1 note=55 velocity=0 time=0
EXTRACT: note_off channel=1 note=58 velocity=0 time=0
EXTRACT: note_off channel=1 note=39 velocity=0 time=0
EXTRACT: note_on channel=1 note=48 velocity=64 time=0
EXTRACT: note_on channel=1 note=53 velocity=64 time=0
EXTRACT: note_on channel=1 note=56 velocity=64 time=0
EXTRACT: note_on channel=1 note=41 velocity=64 time=0
EXTRACT: note_off channel=0 note=65 velocity=0 time=0.375
EXTRACT: note_on channel=0 note=65 velocity=64 time=0
EXTRACT: note_off channel=0 note=65 velocity=0 time=0.375
EXTRACT: note_on channel=0 note=68 velocity=64 time=0
EXTRACT: note_off channel=0 note=68 velocity=0 time=0.375
EXTRACT: note_on channel=0 note=68 velocity=64 time=0
EXTRACT: note_off channel=1 note=48 velocity=0 time=0
EXTRACT: note_off channel=1 note=53 velocity=0 time=0
EXTRACT: note_off channel=1 note=56 velocity=0 time=0
EXTRACT: note_on channel=1 note=53 velocity=64 time=0
EXTRACT: note_on channel=1 note=56 velocity=64 time=0
EXTRACT: note_on channel=1 note=61 velocity=64 time=0
EXTRACT: note_off channel=1 note=41 velocity=0 time=0
EXTRACT: note_on channel=1 note=37 velocity=64 time=0
EXTRACT: note_off channel=0 note=68 velocity=0 time=0
EXTRACT: note_on channel=0 note=70 velocity=64 time=0
EXTRACT: note_off channel=0 note=70 velocity=0 time=0.375
EXTRACT: note_on channel=0 note=70 velocity=64 time=0
EXTRACT: note_off channel=0 note=70 velocity=0 time=0.375
EXTRACT: note_on channel=0 note=70 velocity=64 time=0
EXTRACT: note_off channel=1 note=53 velocity=0 time=0
EXTRACT: note_off channel=1 note=56 velocity=0 time=0
EXTRACT: note_off channel=1 note=61 velocity=0 time=0
EXTRACT: note_off channel=1 note=37 velocity=0 time=0
EXTRACT: note_on channel=1 note=51 velocity=64 time=0
EXTRACT: note_on channel=1 note=56 velocity=64 time=0
EXTRACT: note_on channel=1 note=60 velocity=64 time=0
EXTRACT: note_on channel=1 note=44 velocity=64 time=0
EXTRACT: note_off channel=0 note=70 velocity=0 time=0.1875
EXTRACT: note_on channel=0 note=72 velocity=64 time=0
EXTRACT: note_off channel=0 note=72 velocity=0 time=0.1875
EXTRACT: note_on channel=0 note=70 velocity=64 time=0
EXTRACT: note_off channel=0 note=70 velocity=0 time=0.75
EXTRACT: note_on channel=0 note=68 velocity=64 time=0
EXTRACT: note_off channel=1 note=51 velocity=0 time=0
EXTRACT: note_off channel=1 note=56 velocity=0 time=0
EXTRACT: note_off channel=1 note=60 velocity=0 time=0
EXTRACT: note_on channel=1 note=51 velocity=64 time=0
EXTRACT: note_on channel=1 note=55 velocity=64 time=0
EXTRACT: note_on channel=1 note=58 velocity=64 time=0
EXTRACT: note_off channel=1 note=44 velocity=0 time=0
EXTRACT: note_on channel=1 note=39 velocity=64 time=0
EXTRACT: note_off channel=0 note=68 velocity=0 time=0.5625
EXTRACT: note_on channel=0 note=68 velocity=64 time=0
EXTRACT: note_off channel=0 note=68 velocity=0 time=0.1875
EXTRACT: note_on channel=0 note=75 velocity=64 time=0
EXTRACT: note_off channel=0 note=75 velocity=0 time=0.375
EXTRACT: note_on channel=0 note=70 velocity=64 time=0
EXTRACT: note_off channel=0 note=70 velocity=0 time=0.1875
EXTRACT: note_on channel=0 note=68 velocity=64 time=0
EXTRACT: note_off channel=1 note=51 velocity=0 time=0
EXTRACT: note_off channel=1 note=55 velocity=0 time=0
EXTRACT: note_off channel=1 note=58 velocity=0 time=0
EXTRACT: note_off channel=1 note=39 velocity=0 time=0
EXTRACT: note_on channel=1 note=48 velocity=64 time=0
EXTRACT: note_on channel=1 note=53 velocity=64 time=0
EXTRACT: note_on channel=1 note=56 velocity=64 time=0
EXTRACT: note_on channel=1 note=41 velocity=64 time=0
EXTRACT: note_off channel=0 note=68 velocity=0 time=0.5625
EXTRACT: note_on channel=0 note=72 velocity=64 time=0
EXTRACT: note_off channel=0 note=72 velocity=0 time=0.5625
EXTRACT: note_on channel=0 note=68 velocity=64 time=0
EXTRACT: note_off channel=1 note=48 velocity=0 time=0
EXTRACT: note_off channel=1 note=53 velocity=0 time=0
EXTRACT: note_off channel=1 note=56 velocity=0 time=0
EXTRACT: note_on channel=1 note=53 velocity=64 time=0
EXTRACT: note_on channel=1 note=56 velocity=64 time=0
EXTRACT: note_on channel=1 note=61 velocity=64 time=0
EXTRACT: note_off channel=1 note=41 velocity=0 time=0
EXTRACT: note_on channel=1 note=37 velocity=64 time=0
EXTRACT: note_off channel=0 note=68 velocity=0 time=0.375
EXTRACT: note_on channel=0 note=68 velocity=64 time=0
EXTRACT: note_off channel=0 note=68 velocity=0 time=0.75
EXTRACT: note_on channel=0 note=68 velocity=64 time=0.1875
EXTRACT: note_off channel=0 note=68 velocity=0 time=0
EXTRACT: note_on channel=0 note=68 velocity=64 time=0
EXTRACT: note_off channel=1 note=53 velocity=0 time=0
EXTRACT: note_off channel=1 note=56 velocity=0 time=0
EXTRACT: note_off channel=1 note=61 velocity=0 time=0
EXTRACT: note_off channel=1 note=37 velocity=0 time=0
EXTRACT: note_on channel=1 note=51 velocity=64 time=0
EXTRACT: note_on channel=1 note=56 velocity=64 time=0
EXTRACT: note_on channel=1 note=60 velocity=64 time=0
EXTRACT: note_on channel=1 note=44 velocity=64 time=0
EXTRACT: note_off channel=0 note=68 velocity=0 time=0.375
EXTRACT: note_on channel=0 note=67 velocity=64 time=0
EXTRACT: note_off channel=0 note=67 velocity=0 time=0.375
EXTRACT: note_on channel=0 note=65 velocity=64 time=0
EXTRACT: note_off channel=0 note=65 velocity=0 time=0.375
EXTRACT: note_on channel=0 note=63 velocity=64 time=0
EXTRACT: note_off channel=1 note=51 velocity=0 time=0
EXTRACT: note_off channel=1 note=56 velocity=0 time=0
EXTRACT: note_off channel=1 note=60 velocity=0 time=0
EXTRACT: note_on channel=1 note=51 velocity=64 time=0
EXTRACT: note_on channel=1 note=55 velocity=64 time=0
EXTRACT: note_on channel=1 note=58 velocity=64 time=0
EXTRACT: note_off channel=1 note=44 velocity=0 time=0
EXTRACT: note_on channel=1 note=39 velocity=64 time=0
EXTRACT: note_off channel=0 note=63 velocity=0 time=0.1875
EXTRACT: note_on channel=0 note=63 velocity=64 time=0
EXTRACT: note_off channel=0 note=63 velocity=0 time=0.1875
EXTRACT: note_on channel=0 note=63 velocity=64 time=0
EXTRACT: note_off channel=0 note=63 velocity=0 time=0.375
EXTRACT: note_on channel=0 note=75 velocity=64 time=0
EXTRACT: note_off channel=0 note=75 velocity=0 time=0.375
EXTRACT: note_on channel=0 note=68 velocity=64 time=0
EXTRACT: note_off channel=0 note=68 velocity=0 time=0
EXTRACT: note_on channel=0 note=68 velocity=64 time=0
EXTRACT: note_off channel=1 note=51 velocity=0 time=0
EXTRACT: note_off channel=1 note=55 velocity=0 time=0
EXTRACT: note_off channel=1 note=58 velocity=0 time=0
EXTRACT: note_off channel=1 note=39 velocity=0 time=0
EXTRACT: note_on channel=1 note=48 velocity=64 time=0
EXTRACT: note_on channel=1 note=53 velocity=64 time=0
EXTRACT: note_on channel=1 note=56 velocity=64 time=0
EXTRACT: note_on channel=1 note=41 velocity=64 time=0
EXTRACT: note_off channel=0 note=68 velocity=0 time=0.375
EXTRACT: note_on channel=0 note=72 velocity=64 time=0
EXTRACT: note_off channel=0 note=72 velocity=0 time=0.75
EXTRACT: note_on channel=0 note=68 velocity=64 time=0
EXTRACT: note_off channel=1 note=48 velocity=0 time=0
EXTRACT: note_off channel=1 note=53 velocity=0 time=0
EXTRACT: note_off channel=1 note=56 velocity=0 time=0
EXTRACT: note_on channel=1 note=53 velocity=64 time=0
EXTRACT: note_on channel=1 note=56 velocity=64 time=0
EXTRACT: note_on channel=1 note=61 velocity=64 time=0
EXTRACT: note_off channel=1 note=41 velocity=0 time=0
EXTRACT: note_on channel=1 note=37 velocity=64 time=0
EXTRACT: note_off channel=0 note=68 velocity=0 time=0.375
EXTRACT: note_on channel=0 note=68 velocity=64 time=0
EXTRACT: note_off channel=0 note=68 velocity=0 time=0.75
EXTRACT: note_on channel=0 note=68 velocity=64 time=0
EXTRACT: note_off channel=0 note=68 velocity=0 time=0.1875
EXTRACT: note_on channel=0 note=68 velocity=64 time=0
EXTRACT: note_off channel=0 note=68 velocity=0 time=0
EXTRACT: note_on channel=0 note=68 velocity=64 time=0
EXTRACT: note_off channel=1 note=53 velocity=0 time=0
EXTRACT: note_off channel=1 note=56 velocity=0 time=0
EXTRACT: note_off channel=1 note=61 velocity=0 time=0
EXTRACT: note_off channel=1 note=37 velocity=0 time=0
EXTRACT: note_on channel=1 note=51 velocity=64 time=0
EXTRACT: note_on channel=1 note=56 velocity=64 time=0
EXTRACT: note_on channel=1 note=60 velocity=64 time=0
EXTRACT: note_on channel=1 note=44 velocity=64 time=0
EXTRACT: note_off channel=0 note=68 velocity=0 time=0.375
EXTRACT: note_on channel=0 note=67 velocity=64 time=0
EXTRACT: note_off channel=0 note=67 velocity=0 time=0.375
EXTRACT: note_on channel=0 note=65 velocity=64 time=0
EXTRACT: note_off channel=0 note=65 velocity=0 time=0.375
EXTRACT: note_on channel=0 note=63 velocity=64 time=0
EXTRACT: note_off channel=1 note=51 velocity=0 time=0
EXTRACT: note_off channel=1 note=56 velocity=0 time=0
EXTRACT: note_off channel=1 note=60 velocity=0 time=0
EXTRACT: note_on channel=1 note=51 velocity=64 time=0
EXTRACT: note_on channel=1 note=55 velocity=64 time=0
EXTRACT: note_on channel=1 note=58 velocity=64 time=0
EXTRACT: note_off channel=1 note=44 velocity=0 time=0
EXTRACT: note_on channel=1 note=39 velocity=64 time=0
EXTRACT: note_off channel=0 note=63 velocity=0 time=0.375
EXTRACT: note_on channel=0 note=63 velocity=64 time=0
EXTRACT: note_off channel=0 note=63 velocity=0 time=0.375
EXTRACT: note_on channel=0 note=65 velocity=64 time=0
EXTRACT: note_off channel=0 note=65 velocity=0 time=0.375
EXTRACT: note_on channel=0 note=58 velocity=64 time=0
EXTRACT: note_off channel=0 note=58 velocity=0 time=0.1875
EXTRACT: note_on channel=0 note=56 velocity=64 time=0
EXTRACT: note_off channel=1 note=51 velocity=0 time=0
EXTRACT: note_off channel=1 note=55 velocity=0 time=0
EXTRACT: note_off channel=1 note=58 velocity=0 time=0
EXTRACT: note_off channel=1 note=39 velocity=0 time=0
EXTRACT: note_on channel=1 note=48 velocity=64 time=0
EXTRACT: note_on channel=1 note=53 velocity=64 time=0
EXTRACT: note_on channel=1 note=56 velocity=64 time=0
EXTRACT: note_on channel=1 note=41 velocity=64 time=0
EXTRACT: note_off channel=0 note=56 velocity=0 time=1.125
EXTRACT: note_off channel=1 note=48 velocity=0 time=0
EXTRACT: note_off channel=1 note=53 velocity=0 time=0
EXTRACT: note_off channel=1 note=56 velocity=0 time=0
EXTRACT: note_on channel=1 note=49 velocity=64 time=0
EXTRACT: note_on channel=1 note=53 velocity=64 time=0
EXTRACT: note_on channel=1 note=56 velocity=64 time=0
EXTRACT: note_off channel=1 note=41 velocity=0 time=0
EXTRACT: note_on channel=1 note=44 velocity=64 time=0
EXTRACT: note_off channel=1 note=49 velocity=0 time=0
EXTRACT: note_off channel=1 note=53 velocity=0 time=0
EXTRACT: note_off channel=1 note=56 velocity=0 time=0
EXTRACT: note_off channel=1 note=44 velocity=0 time=0
EXTRACT: note_on channel=1 note=51 velocity=64 time=0
EXTRACT: note_on channel=1 note=55 velocity=64 time=0
EXTRACT: note_on channel=1 note=58 velocity=64 time=0
EXTRACT: note_on channel=1 note=39 velocity=64 time=0
EXTRACT: note_off channel=1 note=51 velocity=0 time=1.125
EXTRACT: note_off channel=1 note=55 velocity=0 time=0
EXTRACT: note_off channel=1 note=58 velocity=0 time=0
EXTRACT: note_on channel=1 note=49 velocity=64 time=0
EXTRACT: note_on channel=1 note=53 velocity=64 time=0
EXTRACT: note_on channel=1 note=56 velocity=64 time=0
EXTRACT: note_off channel=1 note=39 velocity=0 time=0
EXTRACT: note_on channel=1 note=37 velocity=64 time=0
EXTRACT: note_on channel=0 note=70 velocity=64 time=1.125
EXTRACT: note_off channel=0 note=70 velocity=0 time=0.1875
EXTRACT: note_on channel=0 note=72 velocity=64 time=0
EXTRACT: note_off channel=1 note=49 velocity=0 time=0
EXTRACT: note_off channel=1 note=53 velocity=0 time=0
EXTRACT: note_off channel=1 note=56 velocity=0 time=0
EXTRACT: note_off channel=1 note=37 velocity=0 time=0
EXTRACT: note_on channel=1 note=48 velocity=64 time=0
EXTRACT: note_on channel=1 note=53 velocity=64 time=0
EXTRACT: note_on channel=1 note=56 velocity=64 time=0
EXTRACT: note_on channel=1 note=41 velocity=64 time=0
EXTRACT: note_off channel=0 note=72 velocity=0 time=1.125
EXTRACT: note_off channel=1 note=48 velocity=0 time=0
EXTRACT: note_off channel=1 note=53 velocity=0 time=0
EXTRACT: note_off channel=1 note=56 velocity=0 time=0
EXTRACT: note_on channel=1 note=49 velocity=64 time=0
EXTRACT: note_on channel=1 note=53 velocity=64 time=0
EXTRACT: note_on channel=1 note=56 velocity=64 time=0
EXTRACT: note_off channel=1 note=41 velocity=0 time=0
EXTRACT: note_on channel=1 note=44 velocity=64 time=0
EXTRACT: note_on channel=0 note=70 velocity=64 time=1.125
EXTRACT: note_off channel=0 note=70 velocity=0 time=0.1875
EXTRACT: note_on channel=0 note=70 velocity=64 time=0
EXTRACT: note_off channel=1 note=49 velocity=0 time=0
EXTRACT: note_off channel=1 note=53 velocity=0 time=0
EXTRACT: note_off channel=1 note=56 velocity=0 time=0
EXTRACT: note_off channel=1 note=44 velocity=0 time=0
EXTRACT: note_on channel=1 note=51 velocity=64 time=0
EXTRACT: note_on channel=1 note=55 velocity=64 time=0
EXTRACT: note_on channel=1 note=58 velocity=64 time=0
EXTRACT: note_on channel=1 note=39 velocity=64 time=0
EXTRACT: note_off channel=0 note=70 velocity=0 time=0.375
EXTRACT: note_on channel=0 note=70 velocity=64 time=0
EXTRACT: note_off channel=1 note=51 velocity=0 time=0.75
EXTRACT: note_off channel=1 note=55 velocity=0 time=0
EXTRACT: note_off channel=1 note=58 velocity=0 time=0
EXTRACT: note_on channel=1 note=49 velocity=64 time=0
EXTRACT: note_on channel=1 note=53 velocity=64 time=0
EXTRACT: note_on channel=1 note=56 velocity=64 time=0
EXTRACT: note_off channel=1 note=39 velocity=0 time=0
EXTRACT: note_on channel=1 note=37 velocity=64 time=0
EXTRACT: note_off channel=0 note=70 velocity=0 time=0.375
EXTRACT: note_on channel=0 note=68 velocity=64 time=0.375
EXTRACT: note_off channel=0 note=68 velocity=0 time=0.375
EXTRACT: note_on channel=0 note=72 velocity=64 time=0
EXTRACT: note_off channel=0 note=72 velocity=0 time=0
EXTRACT: note_on channel=0 note=72 velocity=64 time=0
EXTRACT: note_off channel=1 note=49 velocity=0 time=0
EXTRACT: note_off channel=1 note=53 velocity=0 time=0
EXTRACT: note_off channel=1 note=56 velocity=0 time=0
EXTRACT: note_off channel=1 note=37 velocity=0 time=0
EXTRACT: note_on channel=1 note=48 velocity=64 time=0
EXTRACT: note_on channel=1 note=53 velocity=64 time=0
EXTRACT: note_on channel=1 note=56 velocity=64 time=0
EXTRACT: note_on channel=1 note=41 velocity=64 time=0
EXTRACT: note_off channel=0 note=72 velocity=0 time=0.375
EXTRACT: note_on channel=0 note=72 velocity=64 time=0
EXTRACT: note_off channel=0 note=72 velocity=0 time=0.1875
EXTRACT: note_on channel=0 note=72 velocity=64 time=0
EXTRACT: note_off channel=0 note=72 velocity=0 time=0.5625
EXTRACT: note_on channel=0 note=72 velocity=64 time=0
EXTRACT: note_off channel=1 note=48 velocity=0 time=0
EXTRACT: note_off channel=1 note=53 velocity=0 time=0
EXTRACT: note_off channel=1 note=56 velocity=0 time=0
EXTRACT: note_on channel=1 note=49 velocity=64 time=0
EXTRACT: note_on channel=1 note=53 velocity=64 time=0
EXTRACT: note_on channel=1 note=56 velocity=64 time=0
EXTRACT: note_off channel=1 note=41 velocity=0 time=0
EXTRACT: note_on channel=1 note=44 velocity=64 time=0
EXTRACT: note_off channel=0 note=72 velocity=0 time=0.1875
EXTRACT: note_on channel=0 note=72 velocity=64 time=0
EXTRACT: note_off channel=0 note=72 velocity=0 time=0.375
EXTRACT: note_on channel=0 note=70 velocity=64 time=0
EXTRACT: note_off channel=0 note=70 velocity=0 time=0.1875
EXTRACT: note_on channel=0 note=70 velocity=64 time=0
EXTRACT: note_off channel=0 note=70 velocity=0 time=0.5625
EXTRACT: note_on channel=0 note=68 velocity=64 time=0
EXTRACT: note_off channel=0 note=68 velocity=0 time=0.1875
EXTRACT: note_on channel=0 note=70 velocity=64 time=0
EXTRACT: note_off channel=1 note=49 velocity=0 time=0
EXTRACT: note_off channel=1 note=53 velocity=0 time=0
EXTRACT: note_off channel=1 note=56 velocity=0 time=0
EXTRACT: note_off channel=1 note=44 velocity=0 time=0
EXTRACT: note_on channel=1 note=51 velocity=64 time=0
EXTRACT: note_on channel=1 note=55 velocity=64 time=0
EXTRACT: note_on channel=1 note=58 velocity=64 time=0
EXTRACT: note_on channel=1 note=39 velocity=64 time=0
EXTRACT: note_off channel=0 note=70 velocity=0 time=0.375
EXTRACT: note_on channel=0 note=72 velocity=64 time=0
EXTRACT: note_off channel=0 note=72 velocity=0 time=0.1875
EXTRACT: note_on channel=0 note=70 velocity=64 time=0
EXTRACT: note_off channel=0 note=70 velocity=0 time=0.5625
EXTRACT: note_on channel=0 note=65 velocity=64 time=0
EXTRACT: note_off channel=1 note=51 velocity=0 time=0
EXTRACT: note_off channel=1 note=55 velocity=0 time=0
EXTRACT: note_off channel=1 note=58 velocity=0 time=0
EXTRACT: note_on channel=1 note=49 velocity=64 time=0
EXTRACT: note_on channel=1 note=53 velocity=64 time=0
EXTRACT: note_on channel=1 note=56 velocity=64 time=0
EXTRACT: note_off channel=1 note=39 velocity=0 time=0
EXTRACT: note_on channel=1 note=37 velocity=64 time=0
EXTRACT: note_off channel=0 note=65 velocity=0 time=0
EXTRACT: note_on channel=0 note=68 velocity=64 time=0
EXTRACT: note_off channel=0 note=68 velocity=0 time=0.5625
EXTRACT: note_on channel=0 note=65 velocity=64 time=0
EXTRACT: note_off channel=0 note=65 velocity=0 time=0.5625
EXTRACT: note_on channel=0 note=70 velocity=64 time=0
EXTRACT: note_off channel=0 note=70 velocity=0 time=0.1875
EXTRACT: note_on channel=0 note=72 velocity=64 time=0
EXTRACT: note_off channel=1 note=49 velocity=0 time=0
EXTRACT: note_off channel=1 note=53 velocity=0 time=0
EXTRACT: note_off channel=1 note=56 velocity=0 time=0
EXTRACT: note_off channel=1 note=37 velocity=0 time=0
EXTRACT: note_on channel=1 note=48 velocity=64 time=0
EXTRACT: note_on channel=1 note=53 velocity=64 time=0
EXTRACT: note_on channel=1 note=56 velocity=64 time=0
EXTRACT: note_on channel=1 note=41 velocity=64 time=0
EXTRACT: note_off channel=0 note=72 velocity=0 time=1.125
EXTRACT: note_off channel=1 note=48 velocity=0 time=0
EXTRACT: note_off channel=1 note=53 velocity=0 time=0
EXTRACT: note_off channel=1 note=56 velocity=0 time=0
EXTRACT: note_on channel=1 note=49 velocity=64 time=0
EXTRACT: note_on channel=1 note=53 velocity=64 time=0
EXTRACT: note_on channel=1 note=56 velocity=64 time=0
EXTRACT: note_off channel=1 note=41 velocity=0 time=0
EXTRACT: note_on channel=1 note=44 velocity=64 time=0
EXTRACT: note_on channel=0 note=70 velocity=64 time=0.75
EXTRACT: note_off channel=0 note=70 velocity=0 time=0.375
EXTRACT: note_on channel=0 note=70 velocity=64 time=0
EXTRACT: note_off channel=0 note=70 velocity=0 time=0
EXTRACT: note_on channel=0 note=70 velocity=64 time=0
EXTRACT: note_off channel=1 note=49 velocity=0 time=0
EXTRACT: note_off channel=1 note=53 velocity=0 time=0
EXTRACT: note_off channel=1 note=56 velocity=0 time=0
EXTRACT: note_off channel=1 note=44 velocity=0 time=0
EXTRACT: note_on channel=1 note=51 velocity=64 time=0
EXTRACT: note_on channel=1 note=55 velocity=64 time=0
EXTRACT: note_on channel=1 note=58 velocity=64 time=0
EXTRACT: note_on channel=1 note=39 velocity=64 time=0
EXTRACT: note_off channel=0 note=70 velocity=0 time=1.125
EXTRACT: note_off channel=1 note=51 velocity=0 time=0
EXTRACT: note_off channel=1 note=55 velocity=0 time=0
EXTRACT: note_off channel=1 note=58 velocity=0 time=0
EXTRACT: note_on channel=1 note=49 velocity=64 time=0
EXTRACT: note_on channel=1 note=53 velocity=64 time=0
EXTRACT: note_on channel=1 note=56 velocity=64 time=0
EXTRACT: note_off channel=1 note=39 velocity=0 time=0
EXTRACT: note_on channel=1 note=37 velocity=64 time=0
EXTRACT: note_on channel=0 note=68 velocity=64 time=0.75
EXTRACT: note_off channel=0 note=68 velocity=0 time=0.1875
EXTRACT: note_on channel=0 note=72 velocity=64 time=0
EXTRACT: note_off channel=0 note=72 velocity=0 time=0.375
EXTRACT: note_on channel=0 note=72 velocity=64 time=0
EXTRACT: note_off channel=1 note=49 velocity=0 time=0
EXTRACT: note_off channel=1 note=53 velocity=0 time=0
EXTRACT: note_off channel=1 note=56 velocity=0 time=0
EXTRACT: note_off channel=1 note=37 velocity=0 time=0
EXTRACT: note_on channel=1 note=48 velocity=64 time=0
EXTRACT: note_on channel=1 note=53 velocity=64 time=0
EXTRACT: note_on channel=1 note=56 velocity=64 time=0
EXTRACT: note_on channel=1 note=41 velocity=64 time=0
EXTRACT: note_off channel=0 note=72 velocity=0 time=0.1875
EXTRACT: note_on channel=0 note=72 velocity=64 time=0
EXTRACT: note_off channel=0 note=72 velocity=0 time=0.375
EXTRACT: note_on channel=0 note=72 velocity=64 time=0
EXTRACT: note_off channel=0 note=72 velocity=0 time=0.375
EXTRACT: note_on channel=0 note=72 velocity=64 time=0
EXTRACT: note_off channel=1 note=48 velocity=0 time=0.1875
EXTRACT: note_off channel=1 note=53 velocity=0 time=0
EXTRACT: note_off channel=1 note=56 velocity=0 time=0
EXTRACT: note_on channel=1 note=49 velocity=64 time=0
EXTRACT: note_on channel=1 note=53 velocity=64 time=0
EXTRACT: note_on channel=1 note=56 velocity=64 time=0
EXTRACT: note_off channel=1 note=41 velocity=0 time=0
EXTRACT: note_on channel=1 note=44 velocity=64 time=0
EXTRACT: note_off channel=0 note=72 velocity=0 time=0.1875
EXTRACT: note_on channel=0 note=72 velocity=64 time=0
EXTRACT: note_off channel=0 note=72 velocity=0 time=0.1875
EXTRACT: note_on channel=0 note=70 velocity=64 time=0
EXTRACT: note_off channel=0 note=70 velocity=0 time=0.1875
EXTRACT: note_on channel=0 note=70 velocity=64 time=0
EXTRACT: note_off channel=0 note=70 velocity=0 time=0.375
EXTRACT: note_on channel=0 note=70 velocity=64 time=0
EXTRACT: note_off channel=0 note=70 velocity=0 time=0.375
EXTRACT: note_on channel=0 note=68 velocity=64 time=0
EXTRACT: note_off channel=0 note=68 velocity=0 time=0.1875
EXTRACT: note_on channel=0 note=70 velocity=64 time=0
EXTRACT: note_off channel=1 note=49 velocity=0 time=0
EXTRACT: note_off channel=1 note=53 velocity=0 time=0
EXTRACT: note_off channel=1 note=56 velocity=0 time=0
EXTRACT: note_off channel=1 note=44 velocity=0 time=0
EXTRACT: note_on channel=1 note=51 velocity=64 time=0
EXTRACT: note_on channel=1 note=55 velocity=64 time=0
EXTRACT: note_on channel=1 note=58 velocity=64 time=0
EXTRACT: note_on channel=1 note=39 velocity=64 time=0
EXTRACT: note_off channel=0 note=70 velocity=0 time=0.375
EXTRACT: note_on channel=0 note=72 velocity=64 time=0
EXTRACT: note_off channel=0 note=72 velocity=0 time=0.1875
EXTRACT: note_on channel=0 note=70 velocity=64 time=0
EXTRACT: note_off channel=0 note=70 velocity=0 time=0.375
EXTRACT: note_on channel=0 note=65 velocity=64 time=0
EXTRACT: note_off channel=1 note=51 velocity=0 time=0.1875
EXTRACT: note_off channel=1 note=55 velocity=0 time=0
EXTRACT: note_off channel=1 note=58 velocity=0 time=0
EXTRACT: note_on channel=1 note=49 velocity=64 time=0
EXTRACT: note_on channel=1 note=53 velocity=64 time=0
EXTRACT: note_on channel=1 note=56 velocity=64 time=0
EXTRACT: note_off channel=1 note=39 velocity=0 time=0
EXTRACT: note_on channel=1 note=37 velocity=64 time=0
EXTRACT: note_off channel=0 note=65 velocity=0 time=0.1875
EXTRACT: note_on channel=0 note=68 velocity=64 time=0
EXTRACT: note_off channel=0 note=68 velocity=0 time=0.1875
EXTRACT: note_on channel=0 note=65 velocity=64 time=0
EXTRACT: note_off channel=0 note=65 velocity=0 time=0.5625
EXTRACT: note_on channel=0 note=68 velocity=64 time=0
EXTRACT: note_off channel=0 note=68 velocity=0 time=0.375
EXTRACT: note_on channel=0 note=72 velocity=64 time=0
EXTRACT: note_off channel=0 note=72 velocity=0 time=0
EXTRACT: note_on channel=0 note=72 velocity=64 time=0
EXTRACT: note_off channel=1 note=49 velocity=0 time=0
EXTRACT: note_off channel=1 note=53 velocity=0 time=0
EXTRACT: note_off channel=1 note=56 velocity=0 time=0
EXTRACT: note_off channel=1 note=37 velocity=0 time=0
EXTRACT: note_on channel=1 note=53 velocity=64 time=0
EXTRACT: note_on channel=1 note=56 velocity=64 time=0
EXTRACT: note_on channel=1 note=60 velocity=64 time=0
EXTRACT: note_on channel=1 note=41 velocity=64 time=0
EXTRACT: note_off channel=0 note=72 velocity=0 time=1.125
EXTRACT: note_on channel=0 note=70 velocity=64 time=0
EXTRACT: note_off channel=1 note=53 velocity=0 time=0
EXTRACT: note_off channel=1 note=56 velocity=0 time=0
EXTRACT: note_off channel=1 note=60 velocity=0 time=0
EXTRACT: note_on channel=1 note=51 velocity=64 time=0
EXTRACT: note_on channel=1 note=55 velocity=64 time=0
EXTRACT: note_on channel=1 note=58 velocity=64 time=0
EXTRACT: note_off channel=1 note=41 velocity=0 time=0
EXTRACT: note_on channel=1 note=39 velocity=64 time=0
EXTRACT: note_off channel=0 note=70 velocity=0 time=0.375
EXTRACT: note_on channel=0 note=68 velocity=64 time=0.375
EXTRACT: note_off channel=0 note=68 velocity=0 time=0.375
EXTRACT: note_on channel=0 note=75 velocity=64 time=0
EXTRACT: note_off channel=0 note=75 velocity=0 time=0
EXTRACT: note_on channel=0 note=75 velocity=64 time=0
EXTRACT: note_off channel=1 note=51 velocity=0 time=0
EXTRACT: note_off channel=1 note=55 velocity=0 time=0
EXTRACT: note_off channel=1 note=58 velocity=0 time=0
EXTRACT: note_off channel=1 note=39 velocity=0 time=0
EXTRACT: note_on channel=1 note=51 velocity=64 time=0
EXTRACT: note_on channel=1 note=55 velocity=64 time=0
EXTRACT: note_on channel=1 note=60 velocity=64 time=0
EXTRACT: note_on channel=1 note=36 velocity=64 time=0
EXTRACT: note_off channel=0 note=75 velocity=0 time=0.75
EXTRACT: note_on channel=0 note=72 velocity=64 time=0
EXTRACT: note_off channel=0 note=72 velocity=0 time=0.375
EXTRACT: note_on channel=0 note=73 velocity=64 time=0
EXTRACT: note_off channel=1 note=51 velocity=0 time=0
EXTRACT: note_off channel=1 note=55 velocity=0 time=0
EXTRACT: note_off channel=1 note=60 velocity=0 time=0
EXTRACT: note_on channel=1 note=53 velocity=64 time=0
EXTRACT: note_on channel=1 note=56 velocity=64 time=0
EXTRACT: note_on channel=1 note=61 velocity=64 time=0
EXTRACT: note_off channel=1 note=36 velocity=0 time=0
EXTRACT: note_on channel=1 note=37 velocity=64 time=0
EXTRACT: note_off channel=0 note=73 velocity=0 time=0.1875
EXTRACT: note_on channel=0 note=72 velocity=64 time=0
EXTRACT: note_off channel=0 note=72 velocity=0 time=0.1875
EXTRACT: note_on channel=0 note=70 velocity=64 time=0
EXTRACT: note_off channel=0 note=70 velocity=0 time=0.1875
EXTRACT: note_on channel=0 note=68 velocity=64 time=0
EXTRACT: note_off channel=0 note=68 velocity=0 time=0.5625
EXTRACT: note_on channel=0 note=72 velocity=64 time=0
EXTRACT: note_off channel=0 note=72 velocity=0 time=0
EXTRACT: note_on channel=0 note=72 velocity=64 time=0
EXTRACT: note_off channel=1 note=53 velocity=0 time=0
EXTRACT: note_off channel=1 note=56 velocity=0 time=0
EXTRACT: note_off channel=1 note=61 velocity=0 time=0
EXTRACT: note_off channel=1 note=37 velocity=0 time=0
EXTRACT: note_on channel=1 note=53 velocity=64 time=0
EXTRACT: note_on channel=1 note=56 velocity=64 time=0
EXTRACT: note_on channel=1 note=60 velocity=64 time=0
EXTRACT: note_on channel=1 note=41 velocity=64 time=0
EXTRACT: note_off channel=0 note=72 velocity=0 time=0.75
EXTRACT: note_on channel=0 note=70 velocity=64 time=0
EXTRACT: note_off channel=0 note=70 velocity=0 time=0.375
EXTRACT: note_on channel=0 note=70 velocity=64 time=0
EXTRACT: note_off channel=1 note=53 velocity=0 time=0
EXTRACT: note_off channel=1 note=56 velocity=0 time=0
EXTRACT: note_off channel=1 note=60 velocity=0 time=0
EXTRACT: note_on channel=1 note=51 velocity=64 time=0
EXTRACT: note_on channel=1 note=55 velocity=64 time=0
EXTRACT: note_on channel=1 note=58 velocity=64 time=0
EXTRACT: note_off channel=1 note=41 velocity=0 time=0
EXTRACT: note_on channel=1 note=39 velocity=64 time=0
EXTRACT: note_off channel=0 note=70 velocity=0 time=0.375
EXTRACT: note_on channel=0 note=68 velocity=64 time=0
EXTRACT: note_off channel=0 note=68 velocity=0 time=0.375
EXTRACT: note_on channel=0 note=68 velocity=64 time=0
EXTRACT: note_off channel=1 note=51 velocity=0 time=0
EXTRACT: note_off channel=1 note=55 velocity=0 time=0
EXTRACT: note_off channel=1 note=58 velocity=0 time=0
EXTRACT: note_on channel=1 note=49 velocity=64 time=0
EXTRACT: note_on channel=1 note=53 velocity=64 time=0
EXTRACT: note_on channel=1 note=56 velocity=64 time=0
EXTRACT: note_off channel=1 note=39 velocity=0 time=0
EXTRACT: note_on channel=1 note=37 velocity=64 time=0
EXTRACT: note_off channel=0 note=68 velocity=0 time=0
EXTRACT: note_on channel=0 note=65 velocity=64 time=1.125
EXTRACT: note_off channel=0 note=65 velocity=0 time=0
EXTRACT: note_on channel=0 note=65 velocity=64 time=0
EXTRACT: note_off channel=1 note=49 velocity=0 time=0
EXTRACT: note_off channel=1 note=53 velocity=0 time=0
EXTRACT: note_off channel=1 note=56 velocity=0 time=0
EXTRACT: note_off channel=1 note=37 velocity=0 time=0
EXTRACT: note_on channel=1 note=48 velocity=64 time=0
EXTRACT: note_on channel=1 note=53 velocity=64 time=0
EXTRACT: note_on channel=1 note=56 velocity=64 time=0
EXTRACT: note_on channel=1 note=41 velocity=64 time=0
EXTRACT: note_off channel=0 note=65 velocity=0 time=0.375
EXTRACT: note_on channel=0 note=65 velocity=64 time=0
EXTRACT: note_off channel=0 note=65 velocity=0 time=0.375
EXTRACT: note_on channel=0 note=68 velocity=64 time=0
EXTRACT: note_off channel=0 note=68 velocity=0 time=0.375
EXTRACT: note_on channel=0 note=68 velocity=64 time=0
EXTRACT: note_off channel=1 note=48 velocity=0 time=0
EXTRACT: note_off channel=1 note=53 velocity=0 time=0
EXTRACT: note_off channel=1 note=56 velocity=0 time=0
EXTRACT: note_on channel=1 note=53 velocity=64 time=0
EXTRACT: note_on channel=1 note=56 velocity=64 time=0
EXTRACT: note_on channel=1 note=61 velocity=64 time=0
EXTRACT: note_off channel=1 note=41 velocity=0 time=0
EXTRACT: note_on channel=1 note=37 velocity=64 time=0
EXTRACT: note_off channel=0 note=68 velocity=0 time=0
EXTRACT: note_on channel=0 note=70 velocity=64 time=0
EXTRACT: note_off channel=0 note=70 velocity=0 time=0.375
EXTRACT: note_on channel=0 note=70 velocity=64 time=0
EXTRACT: note_off channel=0 note=70 velocity=0 time=0.375
EXTRACT: note_on channel=0 note=70 velocity=64 time=0
EXTRACT: note_off channel=1 note=53 velocity=0 time=0
EXTRACT: note_off channel=1 note=56 velocity=0 time=0
EXTRACT: note_off channel=1 note=61 velocity=0 time=0
EXTRACT: note_off channel=1 note=37 velocity=0 time=0
EXTRACT: note_on channel=1 note=51 velocity=64 time=0
EXTRACT: note_on channel=1 note=56 velocity=64 time=0
EXTRACT: note_on channel=1 note=60 velocity=64 time=0
EXTRACT: note_on channel=1 note=44 velocity=64 time=0
EXTRACT: note_off channel=0 note=70 velocity=0 time=1.125
EXTRACT: note_on channel=0 note=68 velocity=64 time=0
EXTRACT: note_off channel=1 note=51 velocity=0 time=0
EXTRACT: note_off channel=1 note=56 velocity=0 time=0
EXTRACT: note_off channel=1 note=60 velocity=0 time=0
EXTRACT: note_on channel=1 note=51 velocity=64 time=0
EXTRACT: note_on channel=1 note=55 velocity=64 time=0
EXTRACT: note_on channel=1 note=58 velocity=64 time=0
EXTRACT: note_off channel=1 note=44 velocity=0 time=0
EXTRACT: note_on channel=1 note=39 velocity=64 time=0
EXTRACT: note_off channel=0 note=68 velocity=0 time=1.125
EXTRACT: note_on channel=0 note=65 velocity=64 time=0
EXTRACT: note_off channel=0 note=65 velocity=0 time=0
EXTRACT: note_on channel=0 note=65 velocity=64 time=0
EXTRACT: note_off channel=1 note=51 velocity=0 time=0
EXTRACT: note_off channel=1 note=55 velocity=0 time=0
EXTRACT: note_off channel=1 note=58 velocity=0 time=0
EXTRACT: note_off channel=1 note=39 velocity=0 time=0
EXTRACT: note_on channel=1 note=48 velocity=64 time=0
EXTRACT: note_on channel=1 note=53 velocity=64 time=0
EXTRACT: note_on channel=1 note=56 velocity=64 time=0
EXTRACT: note_on channel=1 note=41 velocity=64 time=0
EXTRACT: note_off channel=0 note=65 velocity=0 time=0.375
EXTRACT: note_on channel=0 note=65 velocity=64 time=0
EXTRACT: note_off channel=0 note=65 velocity=0 time=0.375
EXTRACT: note_on channel=0 note=68 velocity=64 time=0
EXTRACT: note_off channel=0 note=68 velocity=0 time=0.375
EXTRACT: note_on channel=0 note=68 velocity=64 time=0
EXTRACT: note_off channel=1 note=48 velocity=0 time=0
EXTRACT: note_off channel=1 note=53 velocity=0 time=0
EXTRACT: note_off channel=1 note=56 velocity=0 time=0
EXTRACT: note_on channel=1 note=53 velocity=64 time=0
EXTRACT: note_on channel=1 note=56 velocity=64 time=0
EXTRACT: note_on channel=1 note=61 velocity=64 time=0
EXTRACT: note_off channel=1 note=41 velocity=0 time=0
EXTRACT: note_on channel=1 note=37 velocity=64 time=0
EXTRACT: note_off channel=0 note=68 velocity=0 time=0
EXTRACT: note_on channel=0 note=70 velocity=64 time=0
EXTRACT: note_off channel=0 note=70 velocity=0 time=0.375
EXTRACT: note_on channel=0 note=70 velocity=64 time=0
EXTRACT: note_off channel=0 note=70 velocity=0 time=0.375
EXTRACT: note_on channel=0 note=70 velocity=64 time=0
EXTRACT: note_off channel=1 note=53 velocity=0 time=0
EXTRACT: note_off channel=1 note=56 velocity=0 time=0
EXTRACT: note_off channel=1 note=61 velocity=0 time=0
EXTRACT: note_off channel=1 note=37 velocity=0 time=0
EXTRACT: note_on channel=1 note=51 velocity=64 time=0
EXTRACT: note_on channel=1 note=56 velocity=64 time=0
EXTRACT: note_on channel=1 note=60 velocity=64 time=0
EXTRACT: note_on channel=1 note=44 velocity=64 time=0
EXTRACT: note_off channel=0 note=70 velocity=0 time=0.1875
EXTRACT: note_on channel=0 note=72 velocity=64 time=0
EXTRACT: note_off channel=0 note=72 velocity=0 time=0.1875
EXTRACT: note_on channel=0 note=70 velocity=64 time=0
EXTRACT: note_off channel=0 note=70 velocity=0 time=0.75
EXTRACT: note_on channel=0 note=68 velocity=64 time=0
EXTRACT: note_off channel=1 note=51 velocity=0 time=0
EXTRACT: note_off channel=1 note=56 velocity=0 time=0
EXTRACT: note_off channel=1 note=60 velocity=0 time=0
EXTRACT: note_on channel=1 note=51 velocity=64 time=0
EXTRACT: note_on channel=1 note=55 velocity=64 time=0
EXTRACT: note_on channel=1 note=58 velocity=64 time=0
EXTRACT: note_off channel=1 note=44 velocity=0 time=0
EXTRACT: note_on channel=1 note=39 velocity=64 time=0
EXTRACT: note_off channel=0 note=68 velocity=0 time=0.5625
EXTRACT: note_on channel=0 note=68 velocity=64 time=0
EXTRACT: note_off channel=0 note=68 velocity=0 time=0.1875
EXTRACT: note_on channel=0 note=75 velocity=64 time=0
EXTRACT: note_off channel=0 note=75 velocity=0 time=0.375
EXTRACT: note_on channel=0 note=70 velocity=64 time=0
EXTRACT: note_off channel=0 note=70 velocity=0 time=0.1875
EXTRACT: note_on channel=0 note=68 velocity=64 time=0
EXTRACT: note_off channel=1 note=51 velocity=0 time=0
EXTRACT: note_off channel=1 note=55 velocity=0 time=0
EXTRACT: note_off channel=1 note=58 velocity=0 time=0
EXTRACT: note_off channel=1 note=39 velocity=0 time=0
EXTRACT: note_on channel=1 note=48 velocity=64 time=0
EXTRACT: note_on channel=1 note=53 velocity=64 time=0
EXTRACT: note_on channel=1 note=56 velocity=64 time=0
EXTRACT: note_on channel=1 note=41 velocity=64 time=0
EXTRACT: note_off channel=0 note=68 velocity=0 time=0.5625
EXTRACT: note_on channel=0 note=72 velocity=64 time=0
EXTRACT: note_off channel=0 note=72 velocity=0 time=0.5625
EXTRACT: note_on channel=0 note=68 velocity=64 time=0
EXTRACT: note_off channel=1 note=48 velocity=0 time=0
EXTRACT: note_off channel=1 note=53 velocity=0 time=0
EXTRACT: note_off channel=1 note=56 velocity=0 time=0
EXTRACT: note_on channel=1 note=53 velocity=64 time=0
EXTRACT: note_on channel=1 note=56 velocity=64 time=0
EXTRACT: note_on channel=1 note=61 velocity=64 time=0
EXTRACT: note_off channel=1 note=41 velocity=0 time=0
EXTRACT: note_on channel=1 note=37 velocity=64 time=0
EXTRACT: note_off channel=0 note=68 velocity=0 time=0.375
EXTRACT: note_on channel=0 note=68 velocity=64 time=0
EXTRACT: note_off channel=0 note=68 velocity=0 time=0.375
EXTRACT: note_on channel=0 note=68 velocity=64 time=0.1875
EXTRACT: note_off channel=0 note=68 velocity=0 time=0.1875
EXTRACT: note_on channel=0 note=68 velocity=64 time=0
EXTRACT: note_off channel=0 note=68 velocity=0 time=0.1875
EXTRACT: note_on channel=0 note=68 velocity=64 time=0
EXTRACT: note_off channel=0 note=68 velocity=0 time=0
EXTRACT: note_on channel=0 note=68 velocity=64 time=0
EXTRACT: note_off channel=1 note=53 velocity=0 time=0
EXTRACT: note_off channel=1 note=56 velocity=0 time=0
EXTRACT: note_off channel=1 note=61 velocity=0 time=0
EXTRACT: note_off channel=1 note=37 velocity=0 time=0
EXTRACT: note_on channel=1 note=51 velocity=64 time=0
EXTRACT: note_on channel=1 note=56 velocity=64 time=0
EXTRACT: note_on channel=1 note=60 velocity=64 time=0
EXTRACT: note_on channel=1 note=44 velocity=64 time=0
EXTRACT: note_off channel=0 note=68 velocity=0 time=0.375
EXTRACT: note_on channel=0 note=67 velocity=64 time=0
EXTRACT: note_off channel=0 note=67 velocity=0 time=0.375
EXTRACT: note_on channel=0 note=65 velocity=64 time=0
EXTRACT: note_off channel=0 note=65 velocity=0 time=0.375
EXTRACT: note_on channel=0 note=63 velocity=64 time=0
EXTRACT: note_off channel=1 note=51 velocity=0 time=0
EXTRACT: note_off channel=1 note=56 velocity=0 time=0
EXTRACT: note_off channel=1 note=60 velocity=0 time=0
EXTRACT: note_on channel=1 note=51 velocity=64 time=0
EXTRACT: note_on channel=1 note=55 velocity=64 time=0
EXTRACT: note_on channel=1 note=58 velocity=64 time=0
EXTRACT: note_off channel=1 note=44 velocity=0 time=0
EXTRACT: note_on channel=1 note=39 velocity=64 time=0
EXTRACT: note_off channel=0 note=63 velocity=0 time=0.1875
EXTRACT: note_on channel=0 note=63 velocity=64 time=0
EXTRACT: note_off channel=0 note=63 velocity=0 time=0.1875
EXTRACT: note_on channel=0 note=63 velocity=64 time=0
EXTRACT: note_off channel=0 note=63 velocity=0 time=0.375
EXTRACT: note_on channel=0 note=75 velocity=64 time=0
EXTRACT: note_off channel=0 note=75 velocity=0 time=0.375
EXTRACT: note_on channel=0 note=68 velocity=64 time=0
EXTRACT: note_off channel=1 note=51 velocity=0 time=0
EXTRACT: note_off channel=1 note=55 velocity=0 time=0
EXTRACT: note_off channel=1 note=58 velocity=0 time=0
EXTRACT: note_off channel=1 note=39 velocity=0 time=0
EXTRACT: note_on channel=1 note=48 velocity=64 time=0
EXTRACT: note_on channel=1 note=53 velocity=64 time=0
EXTRACT: note_on channel=1 note=56 velocity=64 time=0
EXTRACT: note_on channel=1 note=41 velocity=64 time=0
EXTRACT: note_off channel=0 note=68 velocity=0 time=0.375
EXTRACT: note_on channel=0 note=72 velocity=64 time=0
EXTRACT: note_off channel=0 note=72 velocity=0 time=0.75
EXTRACT: note_on channel=0 note=68 velocity=64 time=0
EXTRACT: note_off channel=1 note=48 velocity=0 time=0
EXTRACT: note_off channel=1 note=53 velocity=0 time=0
EXTRACT: note_off channel=1 note=56 velocity=0 time=0
EXTRACT: note_on channel=1 note=53 velocity=64 time=0
EXTRACT: note_on channel=1 note=56 velocity=64 time=0
EXTRACT: note_on channel=1 note=61 velocity=64 time=0
EXTRACT: note_off channel=1 note=41 velocity=0 time=0
EXTRACT: note_on channel=1 note=37 velocity=64 time=0
EXTRACT: note_off channel=0 note=68 velocity=0 time=0.375
EXTRACT: note_on channel=0 note=68 velocity=64 time=0
EXTRACT: note_off channel=0 note=68 velocity=0 time=0
EXTRACT: note_on channel=0 note=68 velocity=64 time=0
EXTRACT: note_off channel=1 note=53 velocity=0 time=0
EXTRACT: note_off channel=1 note=56 velocity=0 time=0
EXTRACT: note_off channel=1 note=61 velocity=0 time=0
EXTRACT: note_off channel=1 note=37 velocity=0 time=0
EXTRACT: note_on channel=1 note=51 velocity=64 time=0
EXTRACT: note_on channel=1 note=56 velocity=64 time=0
EXTRACT: note_on channel=1 note=60 velocity=64 time=0
EXTRACT: note_on channel=1 note=44 velocity=64 time=0
EXTRACT: note_off channel=0 note=68 velocity=0 time=0.375
EXTRACT: note_on channel=0 note=67 velocity=64 time=0
EXTRACT: note_off channel=0 note=67 velocity=0 time=0.375
EXTRACT: note_on channel=0 note=65 velocity=64 time=0
EXTRACT: note_off channel=0 note=65 velocity=0 time=0.375
EXTRACT: note_on channel=0 note=63 velocity=64 time=0
EXTRACT: note_off channel=1 note=51 velocity=0 time=0
EXTRACT: note_off channel=1 note=56 velocity=0 time=0
EXTRACT: note_off channel=1 note=60 velocity=0 time=0
EXTRACT: note_on channel=1 note=51 velocity=64 time=0
EXTRACT: note_on channel=1 note=55 velocity=64 time=0
EXTRACT: note_on channel=1 note=58 velocity=64 time=0
EXTRACT: note_off channel=1 note=44 velocity=0 time=0
EXTRACT: note_on channel=1 note=39 velocity=64 time=0
EXTRACT: note_off channel=0 note=63 velocity=0 time=0.375
EXTRACT: note_on channel=0 note=65 velocity=64 time=0
EXTRACT: note_off channel=0 note=65 velocity=0 time=0
EXTRACT: note_on channel=0 note=65 velocity=64 time=0
EXTRACT: note_off channel=1 note=51 velocity=0 time=0
EXTRACT: note_off channel=1 note=55 velocity=0 time=0
EXTRACT: note_off channel=1 note=58 velocity=0 time=0
EXTRACT: note_off channel=1 note=39 velocity=0 time=0
EXTRACT: note_on channel=1 note=48 velocity=64 time=0
EXTRACT: note_on channel=1 note=53 velocity=64 time=0
EXTRACT: note_on channel=1 note=56 velocity=64 time=0
EXTRACT: note_on channel=1 note=41 velocity=64 time=0
EXTRACT: note_off channel=0 note=65 velocity=0 time=0.375
EXTRACT: note_on channel=0 note=65 velocity=64 time=0
EXTRACT: note_off channel=0 note=65 velocity=0 time=0.375
EXTRACT: note_on channel=0 note=68 velocity=64 time=0
EXTRACT: note_off channel=0 note=68 velocity=0 time=0.375
EXTRACT: note_on channel=0 note=68 velocity=64 time=0
EXTRACT: note_off channel=1 note=48 velocity=0 time=0
EXTRACT: note_off channel=1 note=53 velocity=0 time=0
EXTRACT: note_off channel=1 note=56 velocity=0 time=0
EXTRACT: note_on channel=1 note=53 velocity=64 time=0
EXTRACT: note_on channel=1 note=56 velocity=64 time=0
EXTRACT: note_on channel=1 note=61 velocity=64 time=0
EXTRACT: note_off channel=1 note=41 velocity=0 time=0
EXTRACT: note_on channel=1 note=37 velocity=64 time=0
EXTRACT: note_off channel=0 note=68 velocity=0 time=0
EXTRACT: note_on channel=0 note=70 velocity=64 time=0
EXTRACT: note_off channel=0 note=70 velocity=0 time=0.75
EXTRACT: note_on channel=0 note=70 velocity=64 time=0
EXTRACT: note_off channel=1 note=53 velocity=0 time=0
EXTRACT: note_off channel=1 note=56 velocity=0 time=0
EXTRACT: note_off channel=1 note=61 velocity=0 time=0
EXTRACT: note_off channel=1 note=37 velocity=0 time=0
EXTRACT: note_on channel=1 note=51 velocity=64 time=0
EXTRACT: note_on channel=1 note=56 velocity=64 time=0
EXTRACT: note_on channel=1 note=60 velocity=64 time=0
EXTRACT: note_on channel=1 note=44 velocity=64 time=0
EXTRACT: note_off channel=0 note=70 velocity=0 time=1.125
EXTRACT: note_on channel=0 note=68 velocity=64 time=0
EXTRACT: note_off channel=1 note=51 velocity=0 time=0
EXTRACT: note_off channel=1 note=56 velocity=0 time=0
EXTRACT: note_off channel=1 note=60 velocity=0 time=0
EXTRACT: note_on channel=1 note=51 velocity=64 time=0
EXTRACT: note_on channel=1 note=55 velocity=64 time=0
EXTRACT: note_on channel=1 note=58 velocity=64 time=0
EXTRACT: note_off channel=1 note=44 velocity=0 time=0
EXTRACT: note_on channel=1 note=39 velocity=64 time=0
EXTRACT: note_off channel=0 note=68 velocity=0 time=1.125
EXTRACT: note_on channel=0 note=65 velocity=64 time=0
EXTRACT: note_off channel=0 note=65 velocity=0 time=0
EXTRACT: note_on channel=0 note=65 velocity=64 time=0
EXTRACT: note_off channel=1 note=51 velocity=0 time=0
EXTRACT: note_off channel=1 note=55 velocity=0 time=0
EXTRACT: note_off channel=1 note=58 velocity=0 time=0
EXTRACT: note_off channel=1 note=39 velocity=0 time=0
EXTRACT: note_on channel=1 note=48 velocity=64 time=0
EXTRACT: note_on channel=1 note=53 velocity=64 time=0
EXTRACT: note_on channel=1 note=56 velocity=64 time=0
EXTRACT: note_on channel=1 note=41 velocity=64 time=0
EXTRACT: note_off channel=0 note=65 velocity=0 time=0.375
EXTRACT: note_on channel=0 note=65 velocity=64 time=0
EXTRACT: note_off channel=0 note=65 velocity=0 time=0.375
EXTRACT: note_on channel=0 note=68 velocity=64 time=0
EXTRACT: note_off channel=0 note=68 velocity=0 time=0.375
EXTRACT: note_on channel=0 note=68 velocity=64 time=0
EXTRACT: note_off channel=1 note=48 velocity=0 time=0
EXTRACT: note_off channel=1 note=53 velocity=0 time=0
EXTRACT: note_off channel=1 note=56 velocity=0 time=0
EXTRACT: note_on channel=1 note=53 velocity=64 time=0
EXTRACT: note_on channel=1 note=56 velocity=64 time=0
EXTRACT: note_on channel=1 note=61 velocity=64 time=0
EXTRACT: note_off channel=1 note=41 velocity=0 time=0
EXTRACT: note_on channel=1 note=37 velocity=64 time=0
EXTRACT: note_off channel=0 note=68 velocity=0 time=0
EXTRACT: note_on channel=0 note=70 velocity=64 time=0
EXTRACT: note_off channel=0 note=70 velocity=0 time=0.375
EXTRACT: note_on channel=0 note=70 velocity=64 time=0
EXTRACT: note_off channel=0 note=70 velocity=0 time=0.375
EXTRACT: note_on channel=0 note=70 velocity=64 time=0
EXTRACT: note_off channel=1 note=53 velocity=0 time=0
EXTRACT: note_off channel=1 note=56 velocity=0 time=0
EXTRACT: note_off channel=1 note=61 velocity=0 time=0
EXTRACT: note_off channel=1 note=37 velocity=0 time=0
EXTRACT: note_on channel=1 note=51 velocity=64 time=0
EXTRACT: note_on channel=1 note=56 velocity=64 time=0
EXTRACT: note_on channel=1 note=60 velocity=64 time=0
EXTRACT: note_on channel=1 note=44 velocity=64 time=0
EXTRACT: note_off channel=0 note=70 velocity=0 time=0.1875
EXTRACT: note_on channel=0 note=72 velocity=64 time=0
EXTRACT: note_off channel=0 note=72 velocity=0 time=0.1875
EXTRACT: note_on channel=0 note=70 velocity=64 time=0
EXTRACT: note_off channel=0 note=70 velocity=0 time=0.75
EXTRACT: note_on channel=0 note=68 velocity=64 time=0
EXTRACT: note_off channel=1 note=51 velocity=0 time=0
EXTRACT: note_off channel=1 note=56 velocity=0 time=0
EXTRACT: note_off channel=1 note=60 velocity=0 time=0
EXTRACT: note_on channel=1 note=51 velocity=64 time=0
EXTRACT: note_on channel=1 note=55 velocity=64 time=0
EXTRACT: note_on channel=1 note=58 velocity=64 time=0
EXTRACT: note_off channel=1 note=44 velocity=0 time=0
EXTRACT: note_on channel=1 note=39 velocity=64 time=0
EXTRACT: note_off channel=0 note=68 velocity=0 time=0.5625
EXTRACT: note_on channel=0 note=68 velocity=64 time=0
EXTRACT: note_off channel=0 note=68 velocity=0 time=0.1875
EXTRACT: note_on channel=0 note=75 velocity=64 time=0
EXTRACT: note_off channel=0 note=75 velocity=0 time=0.375
EXTRACT: note_on channel=0 note=70 velocity=64 time=0
EXTRACT: note_off channel=0 note=70 velocity=0 time=0.1875
EXTRACT: note_on channel=0 note=68 velocity=64 time=0
EXTRACT: note_off channel=1 note=51 velocity=0 time=0
EXTRACT: note_off channel=1 note=55 velocity=0 time=0
EXTRACT: note_off channel=1 note=58 velocity=0 time=0
EXTRACT: note_off channel=1 note=39 velocity=0 time=0
EXTRACT: note_on channel=1 note=48 velocity=64 time=0
EXTRACT: note_on channel=1 note=53 velocity=64 time=0
EXTRACT: note_on channel=1 note=56 velocity=64 time=0
EXTRACT: note_on channel=1 note=41 velocity=64 time=0
EXTRACT: note_off channel=0 note=68 velocity=0 time=0.5625
EXTRACT: note_on channel=0 note=72 velocity=64 time=0
EXTRACT: note_off channel=0 note=72 velocity=0 time=0.5625
EXTRACT: note_on channel=0 note=68 velocity=64 time=0
EXTRACT: note_off channel=1 note=48 velocity=0 time=0
EXTRACT: note_off channel=1 note=53 velocity=0 time=0
EXTRACT: note_off channel=1 note=56 velocity=0 time=0
EXTRACT: note_on channel=1 note=53 velocity=64 time=0
EXTRACT: note_on channel=1 note=56 velocity=64 time=0
EXTRACT: note_on channel=1 note=61 velocity=64 time=0
EXTRACT: note_off channel=1 note=41 velocity=0 time=0
EXTRACT: note_on channel=1 note=37 velocity=64 time=0
EXTRACT: note_off channel=0 note=68 velocity=0 time=0.375
EXTRACT: note_on channel=0 note=68 velocity=64 time=0
EXTRACT: note_off channel=0 note=68 velocity=0 time=0.75
EXTRACT: note_on channel=0 note=68 velocity=64 time=0.1875
EXTRACT: note_off channel=0 note=68 velocity=0 time=0
EXTRACT: note_on channel=0 note=68 velocity=64 time=0
EXTRACT: note_off channel=1 note=53 velocity=0 time=0
EXTRACT: note_off channel=1 note=56 velocity=0 time=0
EXTRACT: note_off channel=1 note=61 velocity=0 time=0
EXTRACT: note_off channel=1 note=37 velocity=0 time=0
EXTRACT: note_on channel=1 note=51 velocity=64 time=0
EXTRACT: note_on channel=1 note=56 velocity=64 time=0
EXTRACT: note_on channel=1 note=60 velocity=64 time=0
EXTRACT: note_on channel=1 note=44 velocity=64 time=0
EXTRACT: note_off channel=0 note=68 velocity=0 time=0.375
EXTRACT: note_on channel=0 note=67 velocity=64 time=0
EXTRACT: note_off channel=0 note=67 velocity=0 time=0.375
EXTRACT: note_on channel=0 note=65 velocity=64 time=0
EXTRACT: note_off channel=0 note=65 velocity=0 time=0.375
EXTRACT: note_on channel=0 note=63 velocity=64 time=0
EXTRACT: note_off channel=1 note=51 velocity=0 time=0
EXTRACT: note_off channel=1 note=56 velocity=0 time=0
EXTRACT: note_off channel=1 note=60 velocity=0 time=0
EXTRACT: note_on channel=1 note=51 velocity=64 time=0
EXTRACT: note_on channel=1 note=55 velocity=64 time=0
EXTRACT: note_on channel=1 note=58 velocity=64 time=0
EXTRACT: note_off channel=1 note=44 velocity=0 time=0
EXTRACT: note_on channel=1 note=39 velocity=64 time=0
EXTRACT: note_off channel=0 note=63 velocity=0 time=0.1875
EXTRACT: note_on channel=0 note=63 velocity=64 time=0
EXTRACT: note_off channel=0 note=63 velocity=0 time=0.1875
EXTRACT: note_on channel=0 note=63 velocity=64 time=0
EXTRACT: note_off channel=0 note=63 velocity=0 time=0.375
EXTRACT: note_on channel=0 note=75 velocity=64 time=0
EXTRACT: note_off channel=0 note=75 velocity=0 time=0.375
EXTRACT: note_on channel=0 note=68 velocity=64 time=0
EXTRACT: note_off channel=0 note=68 velocity=0 time=0
EXTRACT: note_on channel=0 note=68 velocity=64 time=0
EXTRACT: note_off channel=1 note=51 velocity=0 time=0
EXTRACT: note_off channel=1 note=55 velocity=0 time=0
EXTRACT: note_off channel=1 note=58 velocity=0 time=0
EXTRACT: note_off channel=1 note=39 velocity=0 time=0
EXTRACT: note_on channel=1 note=48 velocity=64 time=0
EXTRACT: note_on channel=1 note=53 velocity=64 time=0
EXTRACT: note_on channel=1 note=56 velocity=64 time=0
EXTRACT: note_on channel=1 note=41 velocity=64 time=0
EXTRACT: note_off channel=0 note=68 velocity=0 time=0.375
EXTRACT: note_on channel=0 note=72 velocity=64 time=0
EXTRACT: note_off channel=0 note=72 velocity=0 time=0.75
EXTRACT: note_on channel=0 note=68 velocity=64 time=0
EXTRACT: note_off channel=1 note=48 velocity=0 time=0
EXTRACT: note_off channel=1 note=53 velocity=0 time=0
EXTRACT: note_off channel=1 note=56 velocity=0 time=0
EXTRACT: note_on channel=1 note=53 velocity=64 time=0
EXTRACT: note_on channel=1 note=56 velocity=64 time=0
EXTRACT: note_on channel=1 note=61 velocity=64 time=0
EXTRACT: note_off channel=1 note=41 velocity=0 time=0
EXTRACT: note_on channel=1 note=37 velocity=64 time=0
EXTRACT: note_off channel=0 note=68 velocity=0 time=0.375
EXTRACT: note_on channel=0 note=68 velocity=64 time=0
EXTRACT: note_off channel=0 note=68 velocity=0 time=0.75
EXTRACT: note_on channel=0 note=68 velocity=64 time=0
EXTRACT: note_off channel=0 note=68 velocity=0 time=0.1875
EXTRACT: note_on channel=0 note=68 velocity=64 time=0
EXTRACT: note_off channel=0 note=68 velocity=0 time=0
EXTRACT: note_on channel=0 note=68 velocity=64 time=0
EXTRACT: note_off channel=1 note=53 velocity=0 time=0
EXTRACT: note_off channel=1 note=56 velocity=0 time=0
EXTRACT: note_off channel=1 note=61 velocity=0 time=0
EXTRACT: note_off channel=1 note=37 velocity=0 time=0
EXTRACT: note_on channel=1 note=51 velocity=64 time=0
EXTRACT: note_on channel=1 note=56 velocity=64 time=0
EXTRACT: note_on channel=1 note=60 velocity=64 time=0
EXTRACT: note_on channel=1 note=44 velocity=64 time=0
EXTRACT: note_off channel=0 note=68 velocity=0 time=0.375
EXTRACT: note_on channel=0 note=67 velocity=64 time=0
EXTRACT: note_off channel=0 note=67 velocity=0 time=0.375
EXTRACT: note_on channel=0 note=65 velocity=64 time=0
EXTRACT: note_off channel=0 note=65 velocity=0 time=0.375
EXTRACT: note_on channel=0 note=63 velocity=64 time=0
EXTRACT: note_off channel=1 note=51 velocity=0 time=0
EXTRACT: note_off channel=1 note=56 velocity=0 time=0
EXTRACT: note_off channel=1 note=60 velocity=0 time=0
EXTRACT: note_on channel=1 note=51 velocity=64 time=0
EXTRACT: note_on channel=1 note=55 velocity=64 time=0
EXTRACT: note_on channel=1 note=58 velocity=64 time=0
EXTRACT: note_off channel=1 note=44 velocity=0 time=0
EXTRACT: note_on channel=1 note=39 velocity=64 time=0
EXTRACT: note_off channel=0 note=63 velocity=0 time=0.375
EXTRACT: note_on channel=0 note=65 velocity=64 time=0
EXTRACT: note_off channel=0 note=65 velocity=0 time=0.375
EXTRACT: note_on channel=0 note=65 velocity=64 time=0
EXTRACT: note_off channel=0 note=65 velocity=0 time=0.375
EXTRACT: note_on channel=0 note=65 velocity=64 time=0
EXTRACT: note_off channel=0 note=65 velocity=0 time=0
EXTRACT: note_on channel=0 note=68 velocity=64 time=0
EXTRACT: note_off channel=1 note=51 velocity=0 time=0
EXTRACT: note_off channel=1 note=55 velocity=0 time=0
EXTRACT: note_off channel=1 note=58 velocity=0 time=0
EXTRACT: note_off channel=1 note=39 velocity=0 time=0
EXTRACT: note_on channel=1 note=53 velocity=64 time=0
EXTRACT: note_on channel=1 note=56 velocity=64 time=0
EXTRACT: note_on channel=1 note=60 velocity=64 time=0
EXTRACT: note_on channel=1 note=41 velocity=64 time=0
EXTRACT: note_off channel=0 note=68 velocity=0 time=0.5625
EXTRACT: note_on channel=0 note=72 velocity=64 time=0
EXTRACT: note_off channel=1 note=53 velocity=0 time=0.5625
EXTRACT: note_off channel=1 note=56 velocity=0 time=0
EXTRACT: note_off channel=1 note=60 velocity=0 time=0
EXTRACT: note_on channel=1 note=53 velocity=64 time=0
EXTRACT: note_on channel=1 note=56 velocity=64 time=0
EXTRACT: note_on channel=1 note=61 velocity=64 time=0
EXTRACT: note_off channel=1 note=41 velocity=0 time=0
EXTRACT: note_on channel=1 note=37 velocity=64 time=0
EXTRACT: note_off channel=0 note=72 velocity=0 time=0
EXTRACT: note_on channel=0 note=75 velocity=64 time=1.125
EXTRACT: note_off channel=1 note=53 velocity=0 time=0
EXTRACT: note_off channel=1 note=56 velocity=0 time=0
EXTRACT: note_off channel=1 note=61 velocity=0 time=0
EXTRACT: note_off channel=1 note=37 velocity=0 time=0
EXTRACT: note_on channel=1 note=51 velocity=64 time=0
EXTRACT: note_on channel=1 note=55 velocity=64 time=0
EXTRACT: note_on channel=1 note=58 velocity=64 time=0
EXTRACT: note_on channel=1 note=39 velocity=64 time=0
EXTRACT: note_off channel=0 note=75 velocity=0 time=0.75
EXTRACT: note_on channel=0 note=73 velocity=64 time=0
EXTRACT: note_off channel=0 note=73 velocity=0 time=0.1875
EXTRACT: note_on channel=0 note=72 velocity=64 time=0
EXTRACT: note_off channel=1 note=51 velocity=0 time=0.1875
EXTRACT: note_off channel=1 note=55 velocity=0 time=0
EXTRACT: note_off channel=1 note=58 velocity=0 time=0
EXTRACT: note_on channel=1 note=51 velocity=64 time=0
EXTRACT: note_on channel=1 note=56 velocity=64 time=0
EXTRACT: note_on channel=1 note=60 velocity=64 time=0
EXTRACT: note_off channel=1 note=39 velocity=0 time=0
EXTRACT: note_on channel=1 note=44 velocity=64 time=0
EXTRACT: note_off channel=0 note=72 velocity=0 time=0.1875
EXTRACT: note_on channel=0 note=73 velocity=64 time=0
EXTRACT: note_off channel=0 note=73 velocity=0 time=0
EXTRACT: note_on channel=0 note=72 velocity=64 time=0
EXTRACT: note_off channel=0 note=72 velocity=0 time=0.75
EXTRACT: note_on channel=0 note=68 velocity=64 time=0.1875
EXTRACT: note_off channel=0 note=68 velocity=0 time=0.1875
EXTRACT: note_on channel=0 note=68 velocity=64 time=0
EXTRACT: note_off channel=0 note=68 velocity=0 time=0.1875
EXTRACT: note_on channel=0 note=68 velocity=64 time=0
EXTRACT: note_off channel=1 note=51 velocity=0 time=0
EXTRACT: note_off channel=1 note=56 velocity=0 time=0
EXTRACT: note_off channel=1 note=60 velocity=0 time=0
EXTRACT: note_off channel=1 note=44 velocity=0 time=0
EXTRACT: note_on channel=1 note=53 velocity=64 time=0
EXTRACT: note_on channel=1 note=56 velocity=64 time=0
EXTRACT: note_on channel=1 note=60 velocity=64 time=0
EXTRACT: note_on channel=1 note=41 velocity=64 time=0
EXTRACT: note_off channel=0 note=68 velocity=0 time=0.5625
EXTRACT: note_on channel=0 note=72 velocity=64 time=0
EXTRACT: note_off channel=1 note=53 velocity=0 time=0.5625
EXTRACT: note_off channel=1 note=56 velocity=0 time=0
EXTRACT: note_off channel=1 note=60 velocity=0 time=0
EXTRACT: note_on channel=1 note=53 velocity=64 time=0
EXTRACT: note_on channel=1 note=56 velocity=64 time=0
EXTRACT: note_on channel=1 note=61 velocity=64 time=0
EXTRACT: note_off channel=1 note=41 velocity=0 time=0
EXTRACT: note_on channel=1 note=37 velocity=64 time=0
EXTRACT: note_off channel=0 note=72 velocity=0 time=0
EXTRACT: note_on channel=0 note=75 velocity=64 time=1.125
EXTRACT: note_off channel=1 note=53 velocity=0 time=0
EXTRACT: note_off channel=1 note=56 velocity=0 time=0
EXTRACT: note_off channel=1 note=61 velocity=0 time=0
EXTRACT: note_off channel=1 note=37 velocity=0 time=0
EXTRACT: note_on channel=1 note=51 velocity=64 time=0
EXTRACT: note_on channel=1 note=55 velocity=64 time=0
EXTRACT: note_on channel=1 note=58 velocity=64 time=0
EXTRACT: note_on channel=1 note=39 velocity=64 time=0
EXTRACT: note_off channel=0 note=75 velocity=0 time=0.75
EXTRACT: note_on channel=0 note=77 velocity=64 time=0
EXTRACT: note_off channel=0 note=77 velocity=0 time=0.1875
EXTRACT: note_on channel=0 note=75 velocity=64 time=0
EXTRACT: note_off channel=1 note=51 velocity=0 time=0.1875
EXTRACT: note_off channel=1 note=55 velocity=0 time=0
EXTRACT: note_off channel=1 note=58 velocity=0 time=0
EXTRACT: note_on channel=1 note=51 velocity=64 time=0
EXTRACT: note_on channel=1 note=56 velocity=64 time=0
EXTRACT: note_on channel=1 note=60 velocity=64 time=0
EXTRACT: note_off channel=1 note=39 velocity=0 time=0
EXTRACT: note_on channel=1 note=44 velocity=64 time=0
EXTRACT: note_off channel=0 note=75 velocity=0 time=0.1875
EXTRACT: note_on channel=0 note=80 velocity=64 time=0
EXTRACT: note_off channel=0 note=80 velocity=0 time=0.75
EXTRACT: note_on channel=0 note=68 velocity=64 time=0.1875
EXTRACT: note_off channel=0 note=68 velocity=0 time=0.1875
EXTRACT: note_on channel=0 note=68 velocity=64 time=0
EXTRACT: note_off channel=0 note=68 velocity=0 time=0.1875
EXTRACT: note_on channel=0 note=68 velocity=64 time=0
EXTRACT: note_off channel=1 note=51 velocity=0 time=0
EXTRACT: note_off channel=1 note=56 velocity=0 time=0
EXTRACT: note_off channel=1 note=60 velocity=0 time=0
EXTRACT: note_off channel=1 note=44 velocity=0 time=0
EXTRACT: note_on channel=1 note=53 velocity=64 time=0
EXTRACT: note_on channel=1 note=56 velocity=64 time=0
EXTRACT: note_on channel=1 note=60 velocity=64 time=0
EXTRACT: note_on channel=1 note=41 velocity=64 time=0
EXTRACT: note_off channel=0 note=68 velocity=0 time=0.5625
EXTRACT: note_on channel=0 note=72 velocity=64 time=0
EXTRACT: note_off channel=1 note=53 velocity=0 time=0.5625
EXTRACT: note_off channel=1 note=56 velocity=0 time=0
EXTRACT: note_off channel=1 note=60 velocity=0 time=0
EXTRACT: note_on channel=1 note=53 velocity=64 time=0
EXTRACT: note_on channel=1 note=56 velocity=64 time=0
EXTRACT: note_on channel=1 note=61 velocity=64 time=0
EXTRACT: note_off channel=1 note=41 velocity=0 time=0
EXTRACT: note_on channel=1 note=37 velocity=64 time=0
EXTRACT: note_off channel=0 note=72 velocity=0 time=0
EXTRACT: note_on channel=0 note=75 velocity=64 time=1.125
EXTRACT: note_off channel=1 note=53 velocity=0 time=0
EXTRACT: note_off channel=1 note=56 velocity=0 time=0
EXTRACT: note_off channel=1 note=61 velocity=0 time=0
EXTRACT: note_off channel=1 note=37 velocity=0 time=0
EXTRACT: note_on channel=1 note=51 velocity=64 time=0
EXTRACT: note_on channel=1 note=55 velocity=64 time=0
EXTRACT: note_on channel=1 note=58 velocity=64 time=0
EXTRACT: note_on channel=1 note=39 velocity=64 time=0
EXTRACT: note_off channel=0 note=75 velocity=0 time=0.75
EXTRACT: note_on channel=0 note=73 velocity=64 time=0
EXTRACT: note_off channel=0 note=73 velocity=0 time=0.1875
EXTRACT: note_on channel=0 note=72 velocity=64 time=0
EXTRACT: note_off channel=1 note=51 velocity=0 time=0.1875
EXTRACT: note_off channel=1 note=55 velocity=0 time=0
EXTRACT: note_off channel=1 note=58 velocity=0 time=0
EXTRACT: note_on channel=1 note=51 velocity=64 time=0
EXTRACT: note_on channel=1 note=56 velocity=64 time=0
EXTRACT: note_on channel=1 note=60 velocity=64 time=0
EXTRACT: note_off channel=1 note=39 velocity=0 time=0
EXTRACT: note_on channel=1 note=44 velocity=64 time=0
EXTRACT: note_off channel=0 note=72 velocity=0 time=0.1875
EXTRACT: note_on channel=0 note=73 velocity=64 time=0
EXTRACT: note_off channel=0 note=73 velocity=0 time=0
EXTRACT: note_on channel=0 note=72 velocity=64 time=0
EXTRACT: note_off channel=0 note=72 velocity=0 time=0.75
EXTRACT: note_on channel=0 note=70 velocity=64 time=0.1875
EXTRACT: note_off channel=0 note=70 velocity=0 time=0.1875
EXTRACT: note_on channel=0 note=70 velocity=64 time=0
EXTRACT: note_off channel=0 note=70 velocity=0 time=0.1875
EXTRACT: note_on channel=0 note=70 velocity=64 time=0
EXTRACT: note_off channel=0 note=70 velocity=0 time=0
EXTRACT: note_on channel=0 note=65 velocity=64 time=0
EXTRACT: note_off channel=1 note=51 velocity=0 time=0
EXTRACT: note_off channel=1 note=56 velocity=0 time=0
EXTRACT: note_off channel=1 note=60 velocity=0 time=0
EXTRACT: note_off channel=1 note=44 velocity=0 time=0
EXTRACT: note_on channel=1 note=53 velocity=64 time=0
EXTRACT: note_on channel=1 note=56 velocity=64 time=0
EXTRACT: note_on channel=1 note=60 velocity=64 time=0
EXTRACT: note_on channel=1 note=41 velocity=64 time=0
EXTRACT: note_off channel=0 note=65 velocity=0 time=0.1875
EXTRACT: note_on channel=0 note=68 velocity=64 time=0
EXTRACT: note_off channel=0 note=68 velocity=0 time=0.1875
EXTRACT: note_on channel=0 note=68 velocity=64 time=0
EXTRACT: note_off channel=1 note=53 velocity=0 time=0.75
EXTRACT: note_off channel=1 note=56 velocity=0 time=0
EXTRACT: note_off channel=1 note=60 velocity=0 time=0
EXTRACT: note_on channel=1 note=53 velocity=64 time=0
EXTRACT: note_on channel=1 note=56 velocity=64 time=0
EXTRACT: note_on channel=1 note=61 velocity=64 time=0
EXTRACT: note_off channel=1 note=41 velocity=0 time=0
EXTRACT: note_on channel=1 note=37 velocity=64 time=0
EXTRACT: note_off channel=0 note=68 velocity=0 time=0
EXTRACT: note_on channel=0 note=70 velocity=64 time=0.9375
EXTRACT: note_off channel=0 note=70 velocity=0 time=0.1875
EXTRACT: note_on channel=0 note=70 velocity=64 time=0
EXTRACT: note_off channel=0 note=70 velocity=0 time=0.1875
EXTRACT: note_on channel=0 note=70 velocity=64 time=0
EXTRACT: note_off channel=1 note=53 velocity=0 time=0
EXTRACT: note_off channel=1 note=56 velocity=0 time=0
EXTRACT: note_off channel=1 note=61 velocity=0 time=0
EXTRACT: note_off channel=1 note=37 velocity=0 time=0
EXTRACT: note_on channel=1 note=51 velocity=64 time=0
EXTRACT: note_on channel=1 note=55 velocity=64 time=0
EXTRACT: note_on channel=1 note=58 velocity=64 time=0
EXTRACT: note_on channel=1 note=39 velocity=64 time=0
EXTRACT: note_off channel=0 note=70 velocity=0 time=0.375
EXTRACT: note_on channel=0 note=72 velocity=64 time=0
EXTRACT: note_off channel=0 note=72 velocity=0 time=1.125
EXTRACT: note_on channel=0 note=65 velocity=64 time=0
EXTRACT: note_off channel=1 note=51 velocity=0 time=0
EXTRACT: note_off channel=1 note=55 velocity=0 time=0
EXTRACT: note_off channel=1 note=58 velocity=0 time=0
EXTRACT: note_off channel=1 note=39 velocity=0 time=0
EXTRACT: note_on channel=1 note=48 velocity=64 time=0
EXTRACT: note_on channel=1 note=53 velocity=64 time=0
EXTRACT: note_on channel=1 note=56 velocity=64 time=0
EXTRACT: note_on channel=1 note=41 velocity=64 time=0
EXTRACT: note_off channel=0 note=65 velocity=0 time=0.375
EXTRACT: note_on channel=0 note=65 velocity=64 time=0
EXTRACT: note_off channel=0 note=65 velocity=0 time=0.375
EXTRACT: note_on channel=0 note=68 velocity=64 time=0
EXTRACT: note_off channel=0 note=68 velocity=0 time=0.375
EXTRACT: note_on channel=0 note=68 velocity=64 time=0
EXTRACT: note_off channel=1 note=48 velocity=0 time=0
EXTRACT: note_off channel=1 note=53 velocity=0 time=0
EXTRACT: note_off channel=1 note=56 velocity=0 time=0
EXTRACT: note_on channel=1 note=53 velocity=64 time=0
EXTRACT: note_on channel=1 note=56 velocity=64 time=0
EXTRACT: note_on channel=1 note=61 velocity=64 time=0
EXTRACT: note_off channel=1 note=41 velocity=0 time=0
EXTRACT: note_on channel=1 note=37 velocity=64 time=0
EXTRACT: note_off channel=0 note=68 velocity=0 time=0
EXTRACT: note_on channel=0 note=70 velocity=64 time=0
EXTRACT: note_off channel=0 note=70 velocity=0 time=0.375
EXTRACT: note_on channel=0 note=70 velocity=64 time=0
EXTRACT: note_off channel=0 note=70 velocity=0 time=0.375
EXTRACT: note_on channel=0 note=70 velocity=64 time=0
EXTRACT: note_off channel=1 note=53 velocity=0 time=0
EXTRACT: note_off channel=1 note=56 velocity=0 time=0
EXTRACT: note_off channel=1 note=61 velocity=0 time=0
EXTRACT: note_off channel=1 note=37 velocity=0 time=0
EXTRACT: note_on channel=1 note=51 velocity=64 time=0
EXTRACT: note_on channel=1 note=56 velocity=64 time=0
EXTRACT: note_on channel=1 note=60 velocity=64 time=0
EXTRACT: note_on channel=1 note=44 velocity=64 time=0
EXTRACT: note_off channel=0 note=70 velocity=0 time=1.125
EXTRACT: note_on channel=0 note=68 velocity=64 time=0
EXTRACT: note_off channel=1 note=51 velocity=0 time=0
EXTRACT: note_off channel=1 note=56 velocity=0 time=0
EXTRACT: note_off channel=1 note=60 velocity=0 time=0
EXTRACT: note_on channel=1 note=51 velocity=64 time=0
EXTRACT: note_on channel=1 note=55 velocity=64 time=0
EXTRACT: note_on channel=1 note=58 velocity=64 time=0
EXTRACT: note_off channel=1 note=44 velocity=0 time=0
EXTRACT: note_on channel=1 note=39 velocity=64 time=0
EXTRACT: note_off channel=0 note=68 velocity=0 time=1.125
EXTRACT: note_on channel=0 note=65 velocity=64 time=0
EXTRACT: note_off channel=0 note=65 velocity=0 time=0
EXTRACT: note_on channel=0 note=65 velocity=64 time=0
EXTRACT: note_off channel=1 note=51 velocity=0 time=0
EXTRACT: note_off channel=1 note=55 velocity=0 time=0
EXTRACT: note_off channel=1 note=58 velocity=0 time=0
EXTRACT: note_off channel=1 note=39 velocity=0 time=0
EXTRACT: note_on channel=1 note=48 velocity=64 time=0
EXTRACT: note_on channel=1 note=53 velocity=64 time=0
EXTRACT: note_on channel=1 note=56 velocity=64 time=0
EXTRACT: note_on channel=1 note=41 velocity=64 time=0
EXTRACT: note_off channel=0 note=65 velocity=0 time=0.375
EXTRACT: note_on channel=0 note=65 velocity=64 time=0
EXTRACT: note_off channel=0 note=65 velocity=0 time=0.375
EXTRACT: note_on channel=0 note=68 velocity=64 time=0
EXTRACT: note_off channel=0 note=68 velocity=0 time=0.375
EXTRACT: note_on channel=0 note=68 velocity=64 time=0
EXTRACT: note_off channel=1 note=48 velocity=0 time=0
EXTRACT: note_off channel=1 note=53 velocity=0 time=0
EXTRACT: note_off channel=1 note=56 velocity=0 time=0
EXTRACT: note_on channel=1 note=53 velocity=64 time=0
EXTRACT: note_on channel=1 note=56 velocity=64 time=0
EXTRACT: note_on channel=1 note=61 velocity=64 time=0
EXTRACT: note_off channel=1 note=41 velocity=0 time=0
EXTRACT: note_on channel=1 note=37 velocity=64 time=0
EXTRACT: note_off channel=0 note=68 velocity=0 time=0
EXTRACT: note_on channel=0 note=70 velocity=64 time=0
EXTRACT: note_off channel=0 note=70 velocity=0 time=0.375
EXTRACT: note_on channel=0 note=70 velocity=64 time=0
EXTRACT: note_off channel=0 note=70 velocity=0 time=0.375
EXTRACT: note_on channel=0 note=70 velocity=64 time=0
EXTRACT: note_off channel=1 note=53 velocity=0 time=0
EXTRACT: note_off channel=1 note=56 velocity=0 time=0
EXTRACT: note_off channel=1 note=61 velocity=0 time=0
EXTRACT: note_off channel=1 note=37 velocity=0 time=0
EXTRACT: note_on channel=1 note=51 velocity=64 time=0
EXTRACT: note_on channel=1 note=56 velocity=64 time=0
EXTRACT: note_on channel=1 note=60 velocity=64 time=0
EXTRACT: note_on channel=1 note=44 velocity=64 time=0
EXTRACT: note_off channel=0 note=70 velocity=0 time=0.1875
EXTRACT: note_on channel=0 note=72 velocity=64 time=0
EXTRACT: note_off channel=0 note=72 velocity=0 time=0.1875
EXTRACT: note_on channel=0 note=70 velocity=64 time=0
EXTRACT: note_off channel=0 note=70 velocity=0 time=0.75
EXTRACT: note_on channel=0 note=68 velocity=64 time=0
EXTRACT: note_off channel=1 note=51 velocity=0 time=0
EXTRACT: note_off channel=1 note=56 velocity=0 time=0
EXTRACT: note_off channel=1 note=60 velocity=0 time=0
EXTRACT: note_on channel=1 note=51 velocity=64 time=0
EXTRACT: note_on channel=1 note=55 velocity=64 time=0
EXTRACT: note_on channel=1 note=58 velocity=64 time=0
EXTRACT: note_off channel=1 note=44 velocity=0 time=0
EXTRACT: note_on channel=1 note=39 velocity=64 time=0
EXTRACT: note_off channel=0 note=68 velocity=0 time=0.5625
EXTRACT: note_on channel=0 note=68 velocity=64 time=0
EXTRACT: note_off channel=0 note=68 velocity=0 time=0.1875
EXTRACT: note_on channel=0 note=75 velocity=64 time=0
EXTRACT: note_off channel=0 note=75 velocity=0 time=0.375
EXTRACT: note_on channel=0 note=70 velocity=64 time=0
EXTRACT: note_off channel=0 note=70 velocity=0 time=0.1875
EXTRACT: note_on channel=0 note=68 velocity=64 time=0
EXTRACT: note_off channel=1 note=51 velocity=0 time=0
EXTRACT: note_off channel=1 note=55 velocity=0 time=0
EXTRACT: note_off channel=1 note=58 velocity=0 time=0
EXTRACT: note_off channel=1 note=39 velocity=0 time=0
EXTRACT: note_on channel=1 note=48 velocity=64 time=0
EXTRACT: note_on channel=1 note=53 velocity=64 time=0
EXTRACT: note_on channel=1 note=56 velocity=64 time=0
EXTRACT: note_on channel=1 note=41 velocity=64 time=0
EXTRACT: note_off channel=0 note=68 velocity=0 time=0.5625
EXTRACT: note_on channel=0 note=72 velocity=64 time=0
EXTRACT: note_off channel=0 note=72 velocity=0 time=0.5625
EXTRACT: note_on channel=0 note=68 velocity=64 time=0
EXTRACT: note_off channel=1 note=48 velocity=0 time=0
EXTRACT: note_off channel=1 note=53 velocity=0 time=0
EXTRACT: note_off channel=1 note=56 velocity=0 time=0
EXTRACT: note_on channel=1 note=53 velocity=64 time=0
EXTRACT: note_on channel=1 note=56 velocity=64 time=0
EXTRACT: note_on channel=1 note=61 velocity=64 time=0
EXTRACT: note_off channel=1 note=41 velocity=0 time=0
EXTRACT: note_on channel=1 note=37 velocity=64 time=0
EXTRACT: note_off channel=0 note=68 velocity=0 time=0.375
EXTRACT: note_on channel=0 note=68 velocity=64 time=0
EXTRACT: note_off channel=0 note=68 velocity=0 time=0.375
EXTRACT: note_on channel=0 note=68 velocity=64 time=0.1875
EXTRACT: note_off channel=0 note=68 velocity=0 time=0.1875
EXTRACT: note_on channel=0 note=68 velocity=64 time=0
EXTRACT: note_off channel=0 note=68 velocity=0 time=0.1875
EXTRACT: note_on channel=0 note=68 velocity=64 time=0
EXTRACT: note_off channel=0 note=68 velocity=0 time=0
EXTRACT: note_on channel=0 note=68 velocity=64 time=0
EXTRACT: note_off channel=1 note=53 velocity=0 time=0
EXTRACT: note_off channel=1 note=56 velocity=0 time=0
EXTRACT: note_off channel=1 note=61 velocity=0 time=0
EXTRACT: note_off channel=1 note=37 velocity=0 time=0
EXTRACT: note_on channel=1 note=51 velocity=64 time=0
EXTRACT: note_on channel=1 note=56 velocity=64 time=0
EXTRACT: note_on channel=1 note=60 velocity=64 time=0
EXTRACT: note_on channel=1 note=44 velocity=64 time=0
EXTRACT: note_off channel=0 note=68 velocity=0 time=0.375
EXTRACT: note_on channel=0 note=67 velocity=64 time=0
EXTRACT: note_off channel=0 note=67 velocity=0 time=0.375
EXTRACT: note_on channel=0 note=65 velocity=64 time=0
EXTRACT: note_off channel=0 note=65 velocity=0 time=0.375
EXTRACT: note_on channel=0 note=63 velocity=64 time=0
EXTRACT: note_off channel=1 note=51 velocity=0 time=0
EXTRACT: note_off channel=1 note=56 velocity=0 time=0
EXTRACT: note_off channel=1 note=60 velocity=0 time=0
EXTRACT: note_on channel=1 note=51 velocity=64 time=0
EXTRACT: note_on channel=1 note=55 velocity=64 time=0
EXTRACT: note_on channel=1 note=58 velocity=64 time=0
EXTRACT: note_off channel=1 note=44 velocity=0 time=0
EXTRACT: note_on channel=1 note=39 velocity=64 time=0
EXTRACT: note_off channel=0 note=63 velocity=0 time=0.1875
EXTRACT: note_on channel=0 note=63 velocity=64 time=0
EXTRACT: note_off channel=0 note=63 velocity=0 time=0.1875
EXTRACT: note_on channel=0 note=63 velocity=64 time=0
EXTRACT: note_off channel=0 note=63 velocity=0 time=0.375
EXTRACT: note_on channel=0 note=75 velocity=64 time=0
EXTRACT: note_off channel=0 note=75 velocity=0 time=0.375
EXTRACT: note_on channel=0 note=68 velocity=64 time=0
EXTRACT: note_off channel=1 note=51 velocity=0 time=0
EXTRACT: note_off channel=1 note=55 velocity=0 time=0
EXTRACT: note_off channel=1 note=58 velocity=0 time=0
EXTRACT: note_off channel=1 note=39 velocity=0 time=0
EXTRACT: note_on channel=1 note=48 velocity=64 time=0
EXTRACT: note_on channel=1 note=53 velocity=64 time=0
EXTRACT: note_on channel=1 note=56 velocity=64 time=0
EXTRACT: note_on channel=1 note=41 velocity=64 time=0
EXTRACT: note_off channel=0 note=68 velocity=0 time=0.375
EXTRACT: note_on channel=0 note=72 velocity=64 time=0
EXTRACT: note_off channel=0 note=72 velocity=0 time=0.75
EXTRACT: note_on channel=0 note=68 velocity=64 time=0
EXTRACT: note_off channel=1 note=48 velocity=0 time=0
EXTRACT: note_off channel=1 note=53 velocity=0 time=0
EXTRACT: note_off channel=1 note=56 velocity=0 time=0
EXTRACT: note_on channel=1 note=53 velocity=64 time=0
EXTRACT: note_on channel=1 note=56 velocity=64 time=0
EXTRACT: note_on channel=1 note=61 velocity=64 time=0
EXTRACT: note_off channel=1 note=41 velocity=0 time=0
EXTRACT: note_on channel=1 note=37 velocity=64 time=0
EXTRACT: note_off channel=0 note=68 velocity=0 time=0.375
EXTRACT: note_on channel=0 note=68 velocity=64 time=0
EXTRACT: note_off channel=0 note=68 velocity=0 time=0
EXTRACT: note_on channel=0 note=68 velocity=64 time=0
EXTRACT: note_off channel=1 note=53 velocity=0 time=0
EXTRACT: note_off channel=1 note=56 velocity=0 time=0
EXTRACT: note_off channel=1 note=61 velocity=0 time=0
EXTRACT: note_off channel=1 note=37 velocity=0 time=0
EXTRACT: note_on channel=1 note=51 velocity=64 time=0
EXTRACT: note_on channel=1 note=56 velocity=64 time=0
EXTRACT: note_on channel=1 note=60 velocity=64 time=0
EXTRACT: note_on channel=1 note=44 velocity=64 time=0
EXTRACT: note_off channel=0 note=68 velocity=0 time=0.375
EXTRACT: note_on channel=0 note=67 velocity=64 time=0
EXTRACT: note_off channel=0 note=67 velocity=0 time=0.375
EXTRACT: note_on channel=0 note=65 velocity=64 time=0
EXTRACT: note_off channel=0 note=65 velocity=0 time=0.375
EXTRACT: note_on channel=0 note=63 velocity=64 time=0
EXTRACT: note_off channel=1 note=51 velocity=0 time=0
EXTRACT: note_off channel=1 note=56 velocity=0 time=0
EXTRACT: note_off channel=1 note=60 velocity=0 time=0
EXTRACT: note_on channel=1 note=51 velocity=64 time=0
EXTRACT: note_on channel=1 note=55 velocity=64 time=0
EXTRACT: note_on channel=1 note=58 velocity=64 time=0
EXTRACT: note_off channel=1 note=44 velocity=0 time=0
EXTRACT: note_on channel=1 note=39 velocity=64 time=0
EXTRACT: note_off channel=0 note=63 velocity=0 time=0.375
EXTRACT: note_on channel=0 note=65 velocity=64 time=0
EXTRACT: note_off channel=0 note=65 velocity=0 time=0
EXTRACT: note_on channel=0 note=65 velocity=64 time=0
EXTRACT: note_off channel=1 note=51 velocity=0 time=0
EXTRACT: note_off channel=1 note=55 velocity=0 time=0
EXTRACT: note_off channel=1 note=58 velocity=0 time=0
EXTRACT: note_off channel=1 note=39 velocity=0 time=0
EXTRACT: note_on channel=1 note=48 velocity=64 time=0
EXTRACT: note_on channel=1 note=53 velocity=64 time=0
EXTRACT: note_on channel=1 note=56 velocity=64 time=0
EXTRACT: note_on channel=1 note=41 velocity=64 time=0
EXTRACT: note_off channel=0 note=65 velocity=0 time=0.375
EXTRACT: note_on channel=0 note=65 velocity=64 time=0
EXTRACT: note_off channel=0 note=65 velocity=0 time=0.375
EXTRACT: note_on channel=0 note=68 velocity=64 time=0
EXTRACT: note_off channel=0 note=68 velocity=0 time=0.375
EXTRACT: note_on channel=0 note=68 velocity=64 time=0
EXTRACT: note_off channel=1 note=48 velocity=0 time=0
EXTRACT: note_off channel=1 note=53 velocity=0 time=0
EXTRACT: note_off channel=1 note=56 velocity=0 time=0
EXTRACT: note_on channel=1 note=53 velocity=64 time=0
EXTRACT: note_on channel=1 note=56 velocity=64 time=0
EXTRACT: note_on channel=1 note=61 velocity=64 time=0
EXTRACT: note_off channel=1 note=41 velocity=0 time=0
EXTRACT: note_on channel=1 note=37 velocity=64 time=0
EXTRACT: note_off channel=0 note=68 velocity=0 time=0
EXTRACT: note_on channel=0 note=70 velocity=64 time=0
EXTRACT: note_off channel=0 note=70 velocity=0 time=0.75
EXTRACT: note_on channel=0 note=70 velocity=64 time=0
EXTRACT: note_off channel=0 note=70 velocity=0 time=0.5625
EXTRACT: note_on channel=0 note=72 velocity=64 time=0
EXTRACT: note_off channel=0 note=72 velocity=0 time=0
EXTRACT: note_on channel=0 note=70 velocity=64 time=0
EXTRACT: note_off channel=1 note=53 velocity=0 time=0
EXTRACT: note_off channel=1 note=56 velocity=0 time=0
EXTRACT: note_off channel=1 note=61 velocity=0 time=0
EXTRACT: note_off channel=1 note=37 velocity=0 time=0
EXTRACT: note_on channel=1 note=51 velocity=64 time=0
EXTRACT: note_on channel=1 note=56 velocity=64 time=0
EXTRACT: note_on channel=1 note=60 velocity=64 time=0
EXTRACT: note_on channel=1 note=44 velocity=64 time=0
EXTRACT: note_off channel=0 note=70 velocity=0 time=1.125
EXTRACT: note_on channel=0 note=68 velocity=64 time=0
EXTRACT: note_off channel=1 note=51 velocity=0 time=0
EXTRACT: note_off channel=1 note=56 velocity=0 time=0
EXTRACT: note_off channel=1 note=60 velocity=0 time=0
EXTRACT: note_on channel=1 note=51 velocity=64 time=0
EXTRACT: note_on channel=1 note=55 velocity=64 time=0
EXTRACT: note_on channel=1 note=58 velocity=64 time=0
EXTRACT: note_off channel=1 note=44 velocity=0 time=0
EXTRACT: note_on channel=1 note=39 velocity=64 time=0
EXTRACT: note_off channel=0 note=68 velocity=0 time=1.125
EXTRACT: note_on channel=0 note=65 velocity=64 time=0
EXTRACT: note_off channel=0 note=65 velocity=0 time=0
EXTRACT: note_on channel=0 note=65 velocity=64 time=0
EXTRACT: note_off channel=1 note=51 velocity=0 time=0
EXTRACT: note_off channel=1 note=55 velocity=0 time=0
EXTRACT: note_off channel=1 note=58 velocity=0 time=0
EXTRACT: note_off channel=1 note=39 velocity=0 time=0
EXTRACT: note_on channel=1 note=48 velocity=64 time=0
EXTRACT: note_on channel=1 note=53 velocity=64 time=0
EXTRACT: note_on channel=1 note=56 velocity=64 time=0
EXTRACT: note_on channel=1 note=41 velocity=64 time=0
EXTRACT: note_off channel=0 note=65 velocity=0 time=0.375
EXTRACT: note_on channel=0 note=65 velocity=64 time=0
EXTRACT: note_off channel=0 note=65 velocity=0 time=0.375
EXTRACT: note_on channel=0 note=68 velocity=64 time=0
EXTRACT: note_off channel=0 note=68 velocity=0 time=0.375
EXTRACT: note_on channel=0 note=68 velocity=64 time=0
EXTRACT: note_off channel=1 note=48 velocity=0 time=0
EXTRACT: note_off channel=1 note=53 velocity=0 time=0
EXTRACT: note_off channel=1 note=56 velocity=0 time=0
EXTRACT: note_on channel=1 note=53 velocity=64 time=0
EXTRACT: note_on channel=1 note=56 velocity=64 time=0
EXTRACT: note_on channel=1 note=61 velocity=64 time=0
EXTRACT: note_off channel=1 note=41 velocity=0 time=0
EXTRACT: note_on channel=1 note=37 velocity=64 time=0
EXTRACT: note_off channel=0 note=68 velocity=0 time=0
EXTRACT: note_on channel=0 note=70 velocity=64 time=0
EXTRACT: note_off channel=0 note=70 velocity=0 time=0.375
EXTRACT: note_on channel=0 note=70 velocity=64 time=0
EXTRACT: note_off channel=0 note=70 velocity=0 time=0.375
EXTRACT: note_on channel=0 note=70 velocity=64 time=0
EXTRACT: note_off channel=1 note=53 velocity=0 time=0
EXTRACT: note_off channel=1 note=56 velocity=0 time=0
EXTRACT: note_off channel=1 note=61 velocity=0 time=0
EXTRACT: note_off channel=1 note=37 velocity=0 time=0
EXTRACT: note_on channel=1 note=51 velocity=64 time=0
EXTRACT: note_on channel=1 note=56 velocity=64 time=0
EXTRACT: note_on channel=1 note=60 velocity=64 time=0
EXTRACT: note_on channel=1 note=44 velocity=64 time=0
EXTRACT: note_off channel=0 note=70 velocity=0 time=0.1875
EXTRACT: note_on channel=0 note=72 velocity=64 time=0
EXTRACT: note_off channel=0 note=72 velocity=0 time=0.1875
EXTRACT: note_on channel=0 note=70 velocity=64 time=0
EXTRACT: note_off channel=0 note=70 velocity=0 time=0.75
EXTRACT: note_on channel=0 note=68 velocity=64 time=0
EXTRACT: note_off channel=1 note=51 velocity=0 time=0
EXTRACT: note_off channel=1 note=56 velocity=0 time=0
EXTRACT: note_off channel=1 note=60 velocity=0 time=0
EXTRACT: note_on channel=1 note=51 velocity=64 time=0
EXTRACT: note_on channel=1 note=55 velocity=64 time=0
EXTRACT: note_on channel=1 note=58 velocity=64 time=0
EXTRACT: note_off channel=1 note=44 velocity=0 time=0
EXTRACT: note_on channel=1 note=39 velocity=64 time=0
EXTRACT: note_off channel=0 note=68 velocity=0 time=0.5625
EXTRACT: note_on channel=0 note=68 velocity=64 time=0
EXTRACT: note_off channel=0 note=68 velocity=0 time=0.1875
EXTRACT: note_on channel=0 note=75 velocity=64 time=0
EXTRACT: note_off channel=0 note=75 velocity=0 time=0.375
EXTRACT: note_on channel=0 note=70 velocity=64 time=0
EXTRACT: note_off channel=0 note=70 velocity=0 time=0.1875
EXTRACT: note_on channel=0 note=68 velocity=64 time=0
EXTRACT: note_off channel=1 note=51 velocity=0 time=0
EXTRACT: note_off channel=1 note=55 velocity=0 time=0
EXTRACT: note_off channel=1 note=58 velocity=0 time=0
EXTRACT: note_off channel=1 note=39 velocity=0 time=0
EXTRACT: note_on channel=1 note=48 velocity=64 time=0
EXTRACT: note_on channel=1 note=53 velocity=64 time=0
EXTRACT: note_on channel=1 note=56 velocity=64 time=0
EXTRACT: note_on channel=1 note=41 velocity=64 time=0
EXTRACT: note_off channel=0 note=68 velocity=0 time=0.5625
EXTRACT: note_on channel=0 note=72 velocity=64 time=0
EXTRACT: note_off channel=0 note=72 velocity=0 time=0.5625
EXTRACT: note_on channel=0 note=68 velocity=64 time=0
EXTRACT: note_off channel=1 note=48 velocity=0 time=0
EXTRACT: note_off channel=1 note=53 velocity=0 time=0
EXTRACT: note_off channel=1 note=56 velocity=0 time=0
EXTRACT: note_on channel=1 note=53 velocity=64 time=0
EXTRACT: note_on channel=1 note=56 velocity=64 time=0
EXTRACT: note_on channel=1 note=61 velocity=64 time=0
EXTRACT: note_off channel=1 note=41 velocity=0 time=0
EXTRACT: note_on channel=1 note=37 velocity=64 time=0
EXTRACT: note_off channel=0 note=68 velocity=0 time=0.375
EXTRACT: note_on channel=0 note=68 velocity=64 time=0
EXTRACT: note_off channel=0 note=68 velocity=0 time=0.75
EXTRACT: note_on channel=0 note=68 velocity=64 time=0.1875
EXTRACT: note_off channel=0 note=68 velocity=0 time=0
EXTRACT: note_on channel=0 note=68 velocity=64 time=0
EXTRACT: note_off channel=1 note=53 velocity=0 time=0
EXTRACT: note_off channel=1 note=56 velocity=0 time=0
EXTRACT: note_off channel=1 note=61 velocity=0 time=0
EXTRACT: note_off channel=1 note=37 velocity=0 time=0
EXTRACT: note_on channel=1 note=51 velocity=64 time=0
EXTRACT: note_on channel=1 note=56 velocity=64 time=0
EXTRACT: note_on channel=1 note=60 velocity=64 time=0
EXTRACT: note_on channel=1 note=44 velocity=64 time=0
EXTRACT: note_off channel=0 note=68 velocity=0 time=0.375
EXTRACT: note_on channel=0 note=67 velocity=64 time=0
EXTRACT: note_off channel=0 note=67 velocity=0 time=0.375
EXTRACT: note_on channel=0 note=65 velocity=64 time=0
EXTRACT: note_off channel=0 note=65 velocity=0 time=0.375
EXTRACT: note_on channel=0 note=63 velocity=64 time=0
EXTRACT: note_off channel=1 note=51 velocity=0 time=0
EXTRACT: note_off channel=1 note=56 velocity=0 time=0
EXTRACT: note_off channel=1 note=60 velocity=0 time=0
EXTRACT: note_on channel=1 note=51 velocity=64 time=0
EXTRACT: note_on channel=1 note=55 velocity=64 time=0
EXTRACT: note_on channel=1 note=58 velocity=64 time=0
EXTRACT: note_off channel=1 note=44 velocity=0 time=0
EXTRACT: note_on channel=1 note=39 velocity=64 time=0
EXTRACT: note_off channel=0 note=63 velocity=0 time=0.1875
EXTRACT: note_on channel=0 note=63 velocity=64 time=0
EXTRACT: note_off channel=0 note=63 velocity=0 time=0.1875
EXTRACT: note_on channel=0 note=63 velocity=64 time=0
EXTRACT: note_off channel=0 note=63 velocity=0 time=0.375
EXTRACT: note_on channel=0 note=75 velocity=64 time=0
EXTRACT: note_off channel=0 note=75 velocity=0 time=0.375
EXTRACT: note_on channel=0 note=68 velocity=64 time=0
EXTRACT: note_off channel=0 note=68 velocity=0 time=0
EXTRACT: note_on channel=0 note=68 velocity=64 time=0
EXTRACT: note_off channel=1 note=51 velocity=0 time=0
EXTRACT: note_off channel=1 note=55 velocity=0 time=0
EXTRACT: note_off channel=1 note=58 velocity=0 time=0
EXTRACT: note_off channel=1 note=39 velocity=0 time=0
EXTRACT: note_on channel=1 note=48 velocity=64 time=0
EXTRACT: note_on channel=1 note=53 velocity=64 time=0
EXTRACT: note_on channel=1 note=56 velocity=64 time=0
EXTRACT: note_on channel=1 note=41 velocity=64 time=0
EXTRACT: note_off channel=0 note=68 velocity=0 time=0.375
EXTRACT: note_on channel=0 note=72 velocity=64 time=0
EXTRACT: note_off channel=0 note=72 velocity=0 time=0.75
EXTRACT: note_on channel=0 note=68 velocity=64 time=0
EXTRACT: note_off channel=1 note=48 velocity=0 time=0
EXTRACT: note_off channel=1 note=53 velocity=0 time=0
EXTRACT: note_off channel=1 note=56 velocity=0 time=0
EXTRACT: note_on channel=1 note=53 velocity=64 time=0
EXTRACT: note_on channel=1 note=56 velocity=64 time=0
EXTRACT: note_on channel=1 note=61 velocity=64 time=0
EXTRACT: note_off channel=1 note=41 velocity=0 time=0
EXTRACT: note_on channel=1 note=37 velocity=64 time=0
EXTRACT: note_off channel=0 note=68 velocity=0 time=0.375
EXTRACT: note_on channel=0 note=68 velocity=64 time=0
EXTRACT: note_off channel=0 note=68 velocity=0 time=0.75
EXTRACT: note_on channel=0 note=68 velocity=64 time=0
EXTRACT: note_off channel=0 note=68 velocity=0 time=0.1875
EXTRACT: note_on channel=0 note=68 velocity=64 time=0
EXTRACT: note_off channel=0 note=68 velocity=0 time=0
EXTRACT: note_on channel=0 note=68 velocity=64 time=0
EXTRACT: note_off channel=1 note=53 velocity=0 time=0
EXTRACT: note_off channel=1 note=56 velocity=0 time=0
EXTRACT: note_off channel=1 note=61 velocity=0 time=0
EXTRACT: note_off channel=1 note=37 velocity=0 time=0
EXTRACT: note_on channel=1 note=51 velocity=64 time=0
EXTRACT: note_on channel=1 note=56 velocity=64 time=0
EXTRACT: note_on channel=1 note=60 velocity=64 time=0
EXTRACT: note_on channel=1 note=44 velocity=64 time=0
EXTRACT: note_off channel=0 note=68 velocity=0 time=0.375
EXTRACT: note_on channel=0 note=67 velocity=64 time=0
EXTRACT: note_off channel=0 note=67 velocity=0 time=0.375
EXTRACT: note_on channel=0 note=65 velocity=64 time=0
EXTRACT: note_off channel=0 note=65 velocity=0 time=0.375
EXTRACT: note_on channel=0 note=63 velocity=64 time=0
EXTRACT: note_off channel=1 note=51 velocity=0 time=0
EXTRACT: note_off channel=1 note=56 velocity=0 time=0
EXTRACT: note_off channel=1 note=60 velocity=0 time=0
EXTRACT: note_on channel=1 note=51 velocity=64 time=0
EXTRACT: note_on channel=1 note=55 velocity=64 time=0
EXTRACT: note_on channel=1 note=58 velocity=64 time=0
EXTRACT: note_off channel=1 note=44 velocity=0 time=0
EXTRACT: note_on channel=1 note=39 velocity=64 time=0
EXTRACT: note_off channel=0 note=63 velocity=0 time=0.375
EXTRACT: note_on channel=0 note=65 velocity=64 time=0
EXTRACT: note_off channel=0 note=65 velocity=0 time=0.375
EXTRACT: note_on channel=0 note=65 velocity=64 time=0
EXTRACT: note_off channel=0 note=65 velocity=0 time=0.375
EXTRACT: note_on channel=0 note=58 velocity=64 time=0
EXTRACT: note_off channel=0 note=58 velocity=0 time=0.1875
EXTRACT: note_on channel=0 note=56 velocity=64 time=0
EXTRACT: note_off channel=1 note=51 velocity=0 time=0
EXTRACT: note_off channel=1 note=55 velocity=0 time=0
EXTRACT: note_off channel=1 note=58 velocity=0 time=0
EXTRACT: note_off channel=1 note=39 velocity=0 time=0
EXTRACT: note_on channel=1 note=53 velocity=64 time=0
EXTRACT: note_on channel=1 note=56 velocity=64 time=0
EXTRACT: note_on channel=1 note=60 velocity=64 time=0
EXTRACT: note_on channel=1 note=41 velocity=64 time=0
EXTRACT: note_off channel=0 note=56 velocity=0 time=1.125
EXTRACT: note_off channel=1 note=53 velocity=0 time=0
EXTRACT: note_off channel=1 note=56 velocity=0 time=0
EXTRACT: note_off channel=1 note=60 velocity=0 time=0
EXTRACT: note_on channel=1 note=51 velocity=64 time=0
EXTRACT: note_on channel=1 note=56 velocity=64 time=0
EXTRACT: note_on channel=1 note=60 velocity=64 time=0
EXTRACT: note_off channel=1 note=41 velocity=0 time=0
EXTRACT: note_on channel=1 note=44 velocity=64 time=0
EXTRACT: note_off channel=1 note=51 velocity=0 time=1.875
EXTRACT: note_off channel=1 note=56 velocity=0 time=0
EXTRACT: note_off channel=1 note=60 velocity=0 time=0
EXTRACT: note_off channel=1 note=44 velocity=0 time=0
EXTRACT: note_on channel=1 note=51 velocity=64 time=0
EXTRACT: note_on channel=1 note=55 velocity=64 time=0
EXTRACT: note_on channel=1 note=58 velocity=64 time=0
EXTRACT: note_on channel=1 note=39 velocity=64 time=0
EXTRACT: note_off channel=1 note=51 velocity=0 time=1.125
EXTRACT: note_off channel=1 note=55 velocity=0 time=0
EXTRACT: note_off channel=1 note=58 velocity=0 time=0
EXTRACT: note_on channel=1 note=49 velocity=64 time=0
EXTRACT: note_on channel=1 note=53 velocity=64 time=0
EXTRACT: note_on channel=1 note=56 velocity=64 time=0
EXTRACT: note_off channel=1 note=39 velocity=0 time=0
EXTRACT: note_on channel=1 note=37 velocity=64 time=0
EXTRACT: note_off channel=1 note=49 velocity=0 time=1.875
EXTRACT: note_off channel=1 note=53 velocity=0 time=0
EXTRACT: note_off channel=1 note=56 velocity=0 time=0
EXTRACT: note_off channel=1 note=37 velocity=0 time=0
EXTRACT: note_on channel=1 note=48 velocity=64 time=0
EXTRACT: note_on channel=1 note=53 velocity=64 time=0
EXTRACT: note_on channel=1 note=56 velocity=64 time=0
EXTRACT: note_on channel=1 note=41 velocity=64 time=0
EXTRACT: note_off channel=1 note=48 velocity=0 time=3.0
EXTRACT: note_off channel=1 note=53 velocity=0 time=0
EXTRACT: note_off channel=1 note=56 velocity=0 time=0
EXTRACT: note_off channel=1 note=41 velocity=0 time=0
MUSIC45 - adele_-_Hello.mid
INTERVALS45 - adele_-_Hello.mid
unison202
2m22
2M145
3m41
3M36
4m14
4M0
5m16
5M0
6m0
7m0
7M0
