EXTRACT: control_change channel=0 control=121 value=0 time=0
EXTRACT: program_change channel=0 program=53 time=0
EXTRACT: control_change channel=0 control=7 value=99 time=0
EXTRACT: control_change channel=0 control=10 value=63 time=0
EXTRACT: control_change channel=0 control=91 value=0 time=0
EXTRACT: control_change channel=0 control=93 value=0 time=0
EXTRACT: note_on channel=0 note=69 velocity=80 time=15.0
EXTRACT: note_on channel=0 note=69 velocity=0 time=0.24895833333333334
EXTRACT: note_on channel=0 note=69 velocity=80 time=0.0010416666666666667
EXTRACT: note_on channel=0 note=69 velocity=0 time=0.24895833333333334
EXTRACT: note_on channel=0 note=67 velocity=80 time=0.0010416666666666667
EXTRACT: note_on channel=0 note=67 velocity=0 time=0.24895833333333334
EXTRACT: note_on channel=0 note=69 velocity=80 time=0.0010416666666666667
EXTRACT: note_on channel=0 note=69 velocity=0 time=0.7489583333333333
EXTRACT: note_on channel=0 note=69 velocity=80 time=2.5010416666666666
EXTRACT: note_on channel=0 note=69 velocity=0 time=0.24895833333333334
EXTRACT: note_on channel=0 note=69 velocity=80 time=0.0010416666666666667
EXTRACT: note_on channel=0 note=69 velocity=0 time=0.24895833333333334
EXTRACT: note_on channel=0 note=67 velocity=80 time=0.0010416666666666667
EXTRACT: note_on channel=0 note=67 velocity=0 time=0.24895833333333334
EXTRACT: note_on channel=0 note=69 velocity=80 time=0.0010416666666666667
EXTRACT: note_on channel=0 note=69 velocity=0 time=0.7489583333333333
EXTRACT: note_on channel=0 note=65 velocity=80 time=0.0010416666666666667
EXTRACT: note_on channel=0 note=65 velocity=0 time=0.24895833333333334
EXTRACT: note_on channel=0 note=65 velocity=80 time=0.0010416666666666667
EXTRACT: note_on channel=0 note=65 velocity=0 time=0.7489583333333333
EXTRACT: note_on channel=0 note=65 velocity=80 time=1.5010416666666666
EXTRACT: note_on channel=0 note=65 velocity=0 time=0.24895833333333334
EXTRACT: note_on channel=0 note=65 velocity=80 time=0.0010416666666666667
EXTRACT: note_on channel=0 note=65 velocity=0 time=0.24895833333333334
EXTRACT: note_on channel=0 note=67 velocity=80 time=0.0010416666666666667
EXTRACT: note_on channel=0 note=67 velocity=0 time=0.24895833333333334
EXTRACT: note_on channel=0 note=64 velocity=80 time=0.0010416666666666667
EXTRACT: note_on channel=0 note=64 velocity=0 time=0.7489583333333333
EXTRACT: note_on channel=0 note=65 velocity=80 time=0.0010416666666666667
EXTRACT: note_on channel=0 note=65 velocity=0 time=0.24895833333333334
EXTRACT: note_on channel=0 note=65 velocity=80 time=0.0010416666666666667
EXTRACT: note_on channel=0 note=65 velocity=0 time=0.7489583333333333
EXTRACT: note_on channel=0 note=70 velocity=80 time=0.0010416666666666667
EXTRACT: note_on channel=0 note=70 velocity=0 time=0.24895833333333334
EXTRACT: note_on channel=0 note=69 velocity=80 time=0.0010416666666666667
EXTRACT: note_on channel=0 note=69 velocity=0 time=0.7489583333333333
EXTRACT: note_on channel=0 note=65 velocity=80 time=0.25104166666666666
EXTRACT: note_on channel=0 note=65 velocity=0 time=0.7489583333333333
EXTRACT: note_on channel=0 note=69 velocity=80 time=3.5010416666666666
EXTRACT: note_on channel=0 note=69 velocity=0 time=0.24895833333333334
EXTRACT: note_on channel=0 note=69 velocity=80 time=0.0010416666666666667
EXTRACT: note_on channel=0 note=69 velocity=0 time=0.24895833333333334
EXTRACT: note_on channel=0 note=67 velocity=80 time=0.0010416666666666667
EXTRACT: note_on channel=0 note=67 velocity=0 time=0.24895833333333334
EXTRACT: note_on channel=0 note=69 velocity=80 time=0.0010416666666666667
EXTRACT: note_on channel=0 note=69 velocity=0 time=0.9989583333333333
EXTRACT: note_on channel=0 note=67 velocity=80 time=0.0010416666666666667
EXTRACT: note_on channel=0 note=67 velocity=0 time=0.7489583333333333
EXTRACT: note_on channel=0 note=65 velocity=80 time=0.0010416666666666667
EXTRACT: note_on channel=0 note=65 velocity=0 time=0.49895833333333334
EXTRACT: note_on channel=0 note=65 velocity=80 time=0.5010416666666666
EXTRACT: note_on channel=0 note=65 velocity=0 time=0.24895833333333334
EXTRACT: note_on channel=0 note=65 velocity=80 time=0.0010416666666666667
EXTRACT: note_on channel=0 note=65 velocity=0 time=0.24895833333333334
EXTRACT: note_on channel=0 note=69 velocity=80 time=0.0010416666666666667
EXTRACT: note_on channel=0 note=69 velocity=0 time=0.24895833333333334
EXTRACT: note_on channel=0 note=69 velocity=80 time=0.0010416666666666667
EXTRACT: note_on channel=0 note=69 velocity=0 time=0.24895833333333334
EXTRACT: note_on channel=0 note=67 velocity=80 time=0.0010416666666666667
EXTRACT: note_on channel=0 note=67 velocity=0 time=0.24895833333333334
EXTRACT: note_on channel=0 note=69 velocity=80 time=0.0010416666666666667
EXTRACT: note_on channel=0 note=69 velocity=0 time=0.7489583333333333
EXTRACT: note_on channel=0 note=65 velocity=80 time=0.0010416666666666667
EXTRACT: note_on channel=0 note=65 velocity=0 time=0.24895833333333334
EXTRACT: note_on channel=0 note=65 velocity=80 time=0.0010416666666666667
EXTRACT: note_on channel=0 note=65 velocity=0 time=0.49895833333333334
EXTRACT: note_on channel=0 note=65 velocity=80 time=1.7510416666666666
EXTRACT: note_on channel=0 note=65 velocity=0 time=0.24895833333333334
EXTRACT: note_on channel=0 note=65 velocity=80 time=0.0010416666666666667
EXTRACT: note_on channel=0 note=65 velocity=0 time=0.24895833333333334
EXTRACT: note_on channel=0 note=67 velocity=80 time=0.0010416666666666667
EXTRACT: note_on channel=0 note=67 velocity=0 time=0.24895833333333334
EXTRACT: note_on channel=0 note=64 velocity=80 time=0.0010416666666666667
EXTRACT: note_on channel=0 note=64 velocity=0 time=0.7489583333333333
EXTRACT: note_on channel=0 note=65 velocity=80 time=0.0010416666666666667
EXTRACT: note_on channel=0 note=65 velocity=0 time=0.24895833333333334
EXTRACT: note_on channel=0 note=65 velocity=80 time=0.0010416666666666667
EXTRACT: note_on channel=0 note=65 velocity=0 time=0.7489583333333333
EXTRACT: note_on channel=0 note=70 velocity=80 time=0.25104166666666666
EXTRACT: note_on channel=0 note=70 velocity=0 time=0.49895833333333334
EXTRACT: note_on channel=0 note=69 velocity=80 time=0.0010416666666666667
EXTRACT: note_on channel=0 note=69 velocity=0 time=0.24895833333333334
EXTRACT: note_on channel=0 note=69 velocity=80 time=0.0010416666666666667
EXTRACT: note_on channel=0 note=69 velocity=0 time=0.24895833333333334
EXTRACT: note_on channel=0 note=67 velocity=80 time=0.0010416666666666667
EXTRACT: note_on channel=0 note=67 velocity=0 time=0.24895833333333334
EXTRACT: note_on channel=0 note=65 velocity=80 time=0.0010416666666666667
EXTRACT: note_on channel=0 note=65 velocity=0 time=0.24895833333333334
EXTRACT: note_on channel=0 note=67 velocity=80 time=0.0010416666666666667
EXTRACT: note_on channel=0 note=67 velocity=0 time=0.24895833333333334
EXTRACT: note_on channel=0 note=67 velocity=80 time=0.0010416666666666667
EXTRACT: note_on channel=0 note=67 velocity=0 time=0.24895833333333334
EXTRACT: note_on channel=0 note=69 velocity=80 time=0.0010416666666666667
EXTRACT: note_on channel=0 note=69 velocity=0 time=0.49895833333333334
EXTRACT: note_on channel=0 note=65 velocity=80 time=2.25
EXTRACT: note_on channel=0 note=65 velocity=0 time=0.24895833333333334
EXTRACT: note_on channel=0 note=65 velocity=80 time=0.0010416666666666667
EXTRACT: note_on channel=0 note=65 velocity=0 time=0.24895833333333334
EXTRACT: note_on channel=0 note=65 velocity=80 time=0.0010416666666666667
EXTRACT: note_on channel=0 note=65 velocity=0 time=0.24895833333333334
EXTRACT: note_on channel=0 note=65 velocity=80 time=0.0010416666666666667
EXTRACT: note_on channel=0 note=65 velocity=0 time=0.24895833333333334
EXTRACT: note_on channel=0 note=65 velocity=80 time=0.0010416666666666667
EXTRACT: note_on channel=0 note=65 velocity=0 time=0.24895833333333334
EXTRACT: note_on channel=0 note=65 velocity=80 time=0.0010416666666666667
EXTRACT: note_on channel=0 note=65 velocity=0 time=0.24895833333333334
EXTRACT: note_on channel=0 note=67 velocity=80 time=0.0010416666666666667
EXTRACT: note_on channel=0 note=67 velocity=0 time=0.12395833333333334
EXTRACT: note_on channel=0 note=69 velocity=80 time=0.0010416666666666667
EXTRACT: note_on channel=0 note=69 velocity=0 time=0.12395833333333334
EXTRACT: note_on channel=0 note=69 velocity=80 time=0.12604166666666666
EXTRACT: note_on channel=0 note=69 velocity=0 time=0.37395833333333334
EXTRACT: note_on channel=0 note=65 velocity=80 time=1.7510416666666666
EXTRACT: note_on channel=0 note=65 velocity=0 time=0.24895833333333334
EXTRACT: note_on channel=0 note=65 velocity=80 time=0.0010416666666666667
EXTRACT: note_on channel=0 note=65 velocity=0 time=0.24895833333333334
EXTRACT: note_on channel=0 note=65 velocity=80 time=0.0010416666666666667
EXTRACT: note_on channel=0 note=65 velocity=0 time=0.24895833333333334
EXTRACT: note_on channel=0 note=65 velocity=80 time=0.0010416666666666667
EXTRACT: note_on channel=0 note=65 velocity=0 time=0.24895833333333334
EXTRACT: note_on channel=0 note=65 velocity=80 time=0.0010416666666666667
EXTRACT: note_on channel=0 note=65 velocity=0 time=0.24895833333333334
EXTRACT: note_on channel=0 note=65 velocity=80 time=0.0010416666666666667
EXTRACT: note_on channel=0 note=65 velocity=0 time=0.24895833333333334
EXTRACT: note_on channel=0 note=67 velocity=80 time=0.0010416666666666667
EXTRACT: note_on channel=0 note=67 velocity=0 time=0.24895833333333334
EXTRACT: note_on channel=0 note=69 velocity=80 time=0.0010416666666666667
EXTRACT: note_on channel=0 note=69 velocity=0 time=0.24895833333333334
EXTRACT: note_on channel=0 note=69 velocity=80 time=0.0010416666666666667
EXTRACT: note_on channel=0 note=69 velocity=0 time=0.24895833333333334
EXTRACT: note_on channel=0 note=69 velocity=80 time=0.0010416666666666667
EXTRACT: note_on channel=0 note=69 velocity=0 time=0.24895833333333334
EXTRACT: note_on channel=0 note=67 velocity=80 time=0.0010416666666666667
EXTRACT: note_on channel=0 note=67 velocity=0 time=0.24895833333333334
EXTRACT: note_on channel=0 note=65 velocity=80 time=0.5010416666666666
EXTRACT: note_on channel=0 note=65 velocity=0 time=0.12395833333333334
EXTRACT: note_on channel=0 note=67 velocity=80 time=0.0010416666666666667
EXTRACT: note_on channel=0 note=67 velocity=0 time=0.24895833333333334
EXTRACT: note_on channel=0 note=72 velocity=80 time=0.0010416666666666667
EXTRACT: note_on channel=0 note=72 velocity=0 time=0.24895833333333334
EXTRACT: note_on channel=0 note=69 velocity=80 time=0.0010416666666666667
EXTRACT: note_on channel=0 note=69 velocity=0 time=0.24895833333333334
EXTRACT: note_on channel=0 note=69 velocity=80 time=0.0010416666666666667
EXTRACT: note_on channel=0 note=69 velocity=0 time=0.12395833333333334
EXTRACT: note_on channel=0 note=67 velocity=80 time=0.0010416666666666667
EXTRACT: note_on channel=0 note=67 velocity=0 time=0.24895833333333334
EXTRACT: note_on channel=0 note=67 velocity=80 time=0.0010416666666666667
EXTRACT: note_on channel=0 note=67 velocity=0 time=0.37395833333333334
EXTRACT: note_on channel=0 note=65 velocity=80 time=0.0010416666666666667
EXTRACT: note_on channel=0 note=65 velocity=0 time=0.24895833333333334
EXTRACT: note_on channel=0 note=72 velocity=80 time=0.7510416666666666
EXTRACT: note_on channel=0 note=72 velocity=0 time=0.49895833333333334
EXTRACT: note_on channel=0 note=69 velocity=80 time=0.0010416666666666667
EXTRACT: note_on channel=0 note=69 velocity=0 time=0.12395833333333334
EXTRACT: note_on channel=0 note=69 velocity=80 time=0.0010416666666666667
EXTRACT: note_on channel=0 note=69 velocity=0 time=0.12395833333333334
EXTRACT: note_on channel=0 note=67 velocity=80 time=0.0010416666666666667
EXTRACT: note_on channel=0 note=67 velocity=0 time=0.12395833333333334
EXTRACT: note_on channel=0 note=67 velocity=80 time=0.0010416666666666667
EXTRACT: note_on channel=0 note=67 velocity=0 time=0.12395833333333334
EXTRACT: note_on channel=0 note=65 velocity=80 time=0.0010416666666666667
EXTRACT: note_on channel=0 note=65 velocity=0 time=0.6239583333333333
EXTRACT: note_on channel=0 note=72 velocity=80 time=0.7510416666666666
EXTRACT: note_on channel=0 note=72 velocity=0 time=0.24895833333333334
EXTRACT: note_on channel=0 note=69 velocity=80 time=0.0010416666666666667
EXTRACT: note_on channel=0 note=69 velocity=0 time=0.12395833333333334
EXTRACT: note_on channel=0 note=69 velocity=80 time=0.0010416666666666667
EXTRACT: note_on channel=0 note=69 velocity=0 time=0.12395833333333334
EXTRACT: note_on channel=0 note=67 velocity=80 time=0.0010416666666666667
EXTRACT: note_on channel=0 note=67 velocity=0 time=0.24895833333333334
EXTRACT: note_on channel=0 note=67 velocity=80 time=0.0010416666666666667
EXTRACT: note_on channel=0 note=67 velocity=0 time=0.49895833333333334
EXTRACT: note_on channel=0 note=65 velocity=80 time=0.0010416666666666667
EXTRACT: note_on channel=0 note=65 velocity=0 time=0.24895833333333334
EXTRACT: note_on channel=0 note=65 velocity=80 time=0.0010416666666666667
EXTRACT: note_on channel=0 note=65 velocity=0 time=0.24895833333333334
EXTRACT: note_on channel=0 note=64 velocity=80 time=0.0010416666666666667
EXTRACT: note_on channel=0 note=64 velocity=0 time=0.7489583333333333
EXTRACT: note_on channel=0 note=65 velocity=80 time=0.7510416666666666
EXTRACT: note_on channel=0 note=65 velocity=0 time=0.24895833333333334
EXTRACT: note_on channel=0 note=65 velocity=80 time=0.0010416666666666667
EXTRACT: note_on channel=0 note=65 velocity=0 time=0.24895833333333334
EXTRACT: note_on channel=0 note=67 velocity=80 time=0.0010416666666666667
EXTRACT: note_on channel=0 note=67 velocity=0 time=0.24895833333333334
EXTRACT: note_on channel=0 note=69 velocity=80 time=0.0010416666666666667
EXTRACT: note_on channel=0 note=69 velocity=0 time=0.49895833333333334
EXTRACT: note_on channel=0 note=60 velocity=80 time=0.5010416666666666
EXTRACT: note_on channel=0 note=60 velocity=0 time=0.49895833333333334
EXTRACT: note_on channel=0 note=69 velocity=80 time=0.5010416666666666
EXTRACT: note_on channel=0 note=69 velocity=0 time=0.24895833333333334
EXTRACT: note_on channel=0 note=69 velocity=80 time=0.0010416666666666667
EXTRACT: note_on channel=0 note=69 velocity=0 time=0.24895833333333334
EXTRACT: note_on channel=0 note=69 velocity=80 time=0.0010416666666666667
EXTRACT: note_on channel=0 note=69 velocity=0 time=0.24895833333333334
EXTRACT: note_on channel=0 note=70 velocity=80 time=0.0010416666666666667
EXTRACT: note_on channel=0 note=70 velocity=0 time=0.49895833333333334
EXTRACT: note_on channel=0 note=69 velocity=80 time=0.0010416666666666667
EXTRACT: note_on channel=0 note=69 velocity=0 time=0.24895833333333334
EXTRACT: note_on channel=0 note=67 velocity=80 time=0.0010416666666666667
EXTRACT: note_on channel=0 note=67 velocity=0 time=0.24895833333333334
EXTRACT: note_on channel=0 note=65 velocity=80 time=0.0010416666666666667
EXTRACT: note_on channel=0 note=65 velocity=0 time=0.24895833333333334
EXTRACT: note_on channel=0 note=69 velocity=80 time=0.0010416666666666667
EXTRACT: note_on channel=0 note=69 velocity=0 time=0.49895833333333334
EXTRACT: note_on channel=0 note=67 velocity=80 time=0.5010416666666666
EXTRACT: note_on channel=0 note=67 velocity=0 time=0.49895833333333334
EXTRACT: note_on channel=0 note=69 velocity=80 time=0.5010416666666666
EXTRACT: note_on channel=0 note=69 velocity=0 time=0.24895833333333334
EXTRACT: note_on channel=0 note=69 velocity=80 time=0.0010416666666666667
EXTRACT: note_on channel=0 note=69 velocity=0 time=0.24895833333333334
EXTRACT: note_on channel=0 note=69 velocity=80 time=0.0010416666666666667
EXTRACT: note_on channel=0 note=69 velocity=0 time=0.24895833333333334
EXTRACT: note_on channel=0 note=70 velocity=80 time=0.0010416666666666667
EXTRACT: note_on channel=0 note=70 velocity=0 time=0.49895833333333334
EXTRACT: note_on channel=0 note=69 velocity=80 time=0.0010416666666666667
EXTRACT: note_on channel=0 note=69 velocity=0 time=0.24895833333333334
EXTRACT: note_on channel=0 note=67 velocity=80 time=0.0010416666666666667
EXTRACT: note_on channel=0 note=67 velocity=0 time=0.24895833333333334
EXTRACT: note_on channel=0 note=65 velocity=80 time=0.0010416666666666667
EXTRACT: note_on channel=0 note=65 velocity=0 time=0.24895833333333334
EXTRACT: note_on channel=0 note=69 velocity=80 time=0.0010416666666666667
EXTRACT: note_on channel=0 note=69 velocity=0 time=0.49895833333333334
EXTRACT: note_on channel=0 note=67 velocity=80 time=0.5010416666666666
EXTRACT: note_on channel=0 note=67 velocity=0 time=0.49895833333333334
EXTRACT: note_on channel=0 note=67 velocity=80 time=0
EXTRACT: note_on channel=0 note=67 velocity=0 time=0.24895833333333334
EXTRACT: note_on channel=0 note=69 velocity=80 time=0.0010416666666666667
EXTRACT: note_on channel=0 note=69 velocity=0 time=0.49895833333333334
EXTRACT: note_on channel=0 note=70 velocity=80 time=0.0010416666666666667
EXTRACT: note_on channel=0 note=70 velocity=0 time=0.49895833333333334
EXTRACT: note_on channel=0 note=69 velocity=80 time=0.0010416666666666667
EXTRACT: note_on channel=0 note=69 velocity=0 time=0.24895833333333334
EXTRACT: note_on channel=0 note=67 velocity=80 time=0.0010416666666666667
EXTRACT: note_on channel=0 note=67 velocity=0 time=0.24895833333333334
EXTRACT: note_on channel=0 note=65 velocity=80 time=0.0010416666666666667
EXTRACT: note_on channel=0 note=65 velocity=0 time=0.24895833333333334
EXTRACT: note_on channel=0 note=65 velocity=80 time=0.0010416666666666667
EXTRACT: note_on channel=0 note=65 velocity=0 time=0.9989583333333333
EXTRACT: note_on channel=0 note=65 velocity=80 time=1.0010416666666666
EXTRACT: note_on channel=0 note=65 velocity=0 time=0.24895833333333334
EXTRACT: note_on channel=0 note=65 velocity=80 time=0.0010416666666666667
EXTRACT: note_on channel=0 note=65 velocity=0 time=0.49895833333333334
EXTRACT: note_on channel=0 note=64 velocity=80 time=0.0010416666666666667
EXTRACT: note_on channel=0 note=64 velocity=0 time=0.24895833333333334
EXTRACT: note_on channel=0 note=65 velocity=80 time=0.0010416666666666667
EXTRACT: note_on channel=0 note=65 velocity=0 time=0.24895833333333334
EXTRACT: note_on channel=0 note=65 velocity=80 time=0.0010416666666666667
EXTRACT: note_on channel=0 note=65 velocity=0 time=0.49895833333333334
EXTRACT: note_on channel=0 note=65 velocity=80 time=0.0010416666666666667
EXTRACT: note_on channel=0 note=65 velocity=0 time=0.7489583333333333
EXTRACT: note_on channel=0 note=69 velocity=80 time=2.5010416666666666
EXTRACT: note_on channel=0 note=69 velocity=0 time=0.24895833333333334
EXTRACT: note_on channel=0 note=69 velocity=80 time=0.0010416666666666667
EXTRACT: note_on channel=0 note=69 velocity=0 time=0.24895833333333334
EXTRACT: note_on channel=0 note=67 velocity=80 time=0.0010416666666666667
EXTRACT: note_on channel=0 note=67 velocity=0 time=0.24895833333333334
EXTRACT: note_on channel=0 note=69 velocity=80 time=0.0010416666666666667
EXTRACT: note_on channel=0 note=69 velocity=0 time=0.7489583333333333
EXTRACT: note_on channel=0 note=69 velocity=80 time=2.5010416666666666
EXTRACT: note_on channel=0 note=69 velocity=0 time=0.24895833333333334
EXTRACT: note_on channel=0 note=69 velocity=80 time=0.0010416666666666667
EXTRACT: note_on channel=0 note=69 velocity=0 time=0.24895833333333334
EXTRACT: note_on channel=0 note=67 velocity=80 time=0.0010416666666666667
EXTRACT: note_on channel=0 note=67 velocity=0 time=0.24895833333333334
EXTRACT: note_on channel=0 note=69 velocity=80 time=0.0010416666666666667
EXTRACT: note_on channel=0 note=69 velocity=0 time=0.7489583333333333
EXTRACT: note_on channel=0 note=65 velocity=80 time=0.0010416666666666667
EXTRACT: note_on channel=0 note=65 velocity=0 time=0.24895833333333334
EXTRACT: note_on channel=0 note=65 velocity=80 time=0.0010416666666666667
EXTRACT: note_on channel=0 note=65 velocity=0 time=0.7489583333333333
EXTRACT: note_on channel=0 note=65 velocity=80 time=1.5010416666666666
EXTRACT: note_on channel=0 note=65 velocity=0 time=0.24895833333333334
EXTRACT: note_on channel=0 note=65 velocity=80 time=0.0010416666666666667
EXTRACT: note_on channel=0 note=65 velocity=0 time=0.24895833333333334
EXTRACT: note_on channel=0 note=67 velocity=80 time=0.0010416666666666667
EXTRACT: note_on channel=0 note=67 velocity=0 time=0.24895833333333334
EXTRACT: note_on channel=0 note=64 velocity=80 time=0.0010416666666666667
EXTRACT: note_on channel=0 note=64 velocity=0 time=0.7489583333333333
EXTRACT: note_on channel=0 note=65 velocity=80 time=0.0010416666666666667
EXTRACT: note_on channel=0 note=65 velocity=0 time=0.24895833333333334
EXTRACT: note_on channel=0 note=65 velocity=80 time=0.0010416666666666667
EXTRACT: note_on channel=0 note=65 velocity=0 time=0.7489583333333333
EXTRACT: note_on channel=0 note=70 velocity=80 time=0.0010416666666666667
EXTRACT: note_on channel=0 note=70 velocity=0 time=0.24895833333333334
EXTRACT: note_on channel=0 note=69 velocity=80 time=0.0010416666666666667
EXTRACT: note_on channel=0 note=69 velocity=0 time=0.24895833333333334
EXTRACT: note_on channel=0 note=69 velocity=80 time=0.0010416666666666667
EXTRACT: note_on channel=0 note=69 velocity=0 time=0.49895833333333334
EXTRACT: note_on channel=0 note=65 velocity=80 time=0.25104166666666666
EXTRACT: note_on channel=0 note=65 velocity=0 time=0.7489583333333333
EXTRACT: note_on channel=0 note=65 velocity=80 time=3.0010416666666666
EXTRACT: note_on channel=0 note=65 velocity=0 time=0.24895833333333334
EXTRACT: note_on channel=0 note=65 velocity=80 time=0.0010416666666666667
EXTRACT: note_on channel=0 note=65 velocity=0 time=0.24895833333333334
EXTRACT: note_on channel=0 note=69 velocity=80 time=0.0010416666666666667
EXTRACT: note_on channel=0 note=69 velocity=0 time=0.24895833333333334
EXTRACT: note_on channel=0 note=69 velocity=80 time=0.0010416666666666667
EXTRACT: note_on channel=0 note=69 velocity=0 time=0.24895833333333334
EXTRACT: note_on channel=0 note=67 velocity=80 time=0.0010416666666666667
EXTRACT: note_on channel=0 note=67 velocity=0 time=0.24895833333333334
EXTRACT: note_on channel=0 note=69 velocity=80 time=0.0010416666666666667
EXTRACT: note_on channel=0 note=69 velocity=0 time=0.7489583333333333
EXTRACT: note_on channel=0 note=67 velocity=80 time=0.0010416666666666667
EXTRACT: note_on channel=0 note=67 velocity=0 time=0.24895833333333334
EXTRACT: note_on channel=0 note=69 velocity=80 time=0.0010416666666666667
EXTRACT: note_on channel=0 note=69 velocity=0 time=0.49895833333333334
EXTRACT: note_on channel=0 note=65 velocity=80 time=0.5010416666666666
EXTRACT: note_on channel=0 note=65 velocity=0 time=0.24895833333333334
EXTRACT: note_on channel=0 note=65 velocity=80 time=0.0010416666666666667
EXTRACT: note_on channel=0 note=65 velocity=0 time=0.24895833333333334
EXTRACT: note_on channel=0 note=65 velocity=80 time=0.0010416666666666667
EXTRACT: note_on channel=0 note=65 velocity=0 time=0.24895833333333334
EXTRACT: note_on channel=0 note=65 velocity=80 time=0.0010416666666666667
EXTRACT: note_on channel=0 note=65 velocity=0 time=0.24895833333333334
EXTRACT: note_on channel=0 note=65 velocity=80 time=0.0010416666666666667
EXTRACT: note_on channel=0 note=65 velocity=0 time=0.24895833333333334
EXTRACT: note_on channel=0 note=74 velocity=80 time=0.0010416666666666667
EXTRACT: note_on channel=0 note=74 velocity=0 time=0.24895833333333334
EXTRACT: note_on channel=0 note=69 velocity=80 time=0.0010416666666666667
EXTRACT: note_on channel=0 note=69 velocity=0 time=0.24895833333333334
EXTRACT: note_on channel=0 note=67 velocity=80 time=0.0010416666666666667
EXTRACT: note_on channel=0 note=67 velocity=0 time=0.24895833333333334
EXTRACT: note_on channel=0 note=67 velocity=80 time=0.0010416666666666667
EXTRACT: note_on channel=0 note=67 velocity=0 time=0.24895833333333334
EXTRACT: note_on channel=0 note=65 velocity=80 time=0
EXTRACT: note_on channel=0 note=65 velocity=0 time=0.24895833333333334
EXTRACT: note_on channel=0 note=65 velocity=80 time=0.0010416666666666667
EXTRACT: note_on channel=0 note=65 velocity=0 time=0.7489583333333333
EXTRACT: note_on channel=0 note=65 velocity=80 time=2.2510416666666666
EXTRACT: note_on channel=0 note=65 velocity=0 time=0.24895833333333334
EXTRACT: note_on channel=0 note=67 velocity=80 time=0.0010416666666666667
EXTRACT: note_on channel=0 note=67 velocity=0 time=0.24895833333333334
EXTRACT: note_on channel=0 note=64 velocity=80 time=0.0010416666666666667
EXTRACT: note_on channel=0 note=64 velocity=0 time=0.7489583333333333
EXTRACT: note_on channel=0 note=65 velocity=80 time=0.0010416666666666667
EXTRACT: note_on channel=0 note=65 velocity=0 time=0.24895833333333334
EXTRACT: note_on channel=0 note=65 velocity=80 time=0.0010416666666666667
EXTRACT: note_on channel=0 note=65 velocity=0 time=0.49895833333333334
EXTRACT: note_on channel=0 note=70 velocity=80 time=0.7510416666666666
EXTRACT: note_on channel=0 note=70 velocity=0 time=0.37395833333333334
EXTRACT: note_on channel=0 note=69 velocity=80 time=0.0010416666666666667
EXTRACT: note_on channel=0 note=69 velocity=0 time=0.37395833333333334
EXTRACT: note_on channel=0 note=67 velocity=80 time=0.0010416666666666667
EXTRACT: note_on channel=0 note=67 velocity=0 time=0.12395833333333334
EXTRACT: note_on channel=0 note=65 velocity=80 time=0.0010416666666666667
EXTRACT: note_on channel=0 note=65 velocity=0 time=0.12395833333333334
EXTRACT: note_on channel=0 note=65 velocity=80 time=0.0010416666666666667
EXTRACT: note_on channel=0 note=65 velocity=0 time=0.24895833333333334
EXTRACT: note_on channel=0 note=67 velocity=80 time=0.0010416666666666667
EXTRACT: note_on channel=0 note=67 velocity=0 time=0.24895833333333334
EXTRACT: note_on channel=0 note=69 velocity=80 time=0.0010416666666666667
EXTRACT: note_on channel=0 note=69 velocity=0 time=0.49895833333333334
EXTRACT: note_on channel=0 note=65 velocity=80 time=0.25
EXTRACT: note_on channel=0 note=65 velocity=0 time=0.24895833333333334
EXTRACT: note_on channel=0 note=65 velocity=80 time=0.0010416666666666667
EXTRACT: note_on channel=0 note=65 velocity=0 time=0.24895833333333334
EXTRACT: note_on channel=0 note=65 velocity=80 time=0.0010416666666666667
EXTRACT: note_on channel=0 note=65 velocity=0 time=0.24895833333333334
EXTRACT: note_on channel=0 note=65 velocity=80 time=0.0010416666666666667
EXTRACT: note_on channel=0 note=65 velocity=0 time=0.24895833333333334
EXTRACT: note_on channel=0 note=65 velocity=80 time=0.0010416666666666667
EXTRACT: note_on channel=0 note=65 velocity=0 time=0.24895833333333334
EXTRACT: note_on channel=0 note=65 velocity=80 time=0.0010416666666666667
EXTRACT: note_on channel=0 note=65 velocity=0 time=0.24895833333333334
EXTRACT: note_on channel=0 note=67 velocity=80 time=0.0010416666666666667
EXTRACT: note_on channel=0 note=67 velocity=0 time=0.12395833333333334
EXTRACT: note_on channel=0 note=69 velocity=80 time=0.0010416666666666667
EXTRACT: note_on channel=0 note=69 velocity=0 time=0.12395833333333334
EXTRACT: note_on channel=0 note=69 velocity=80 time=0.12604166666666666
EXTRACT: note_on channel=0 note=69 velocity=0 time=0.37395833333333334
EXTRACT: note_on channel=0 note=65 velocity=80 time=1.7510416666666666
EXTRACT: note_on channel=0 note=65 velocity=0 time=0.24895833333333334
EXTRACT: note_on channel=0 note=65 velocity=80 time=0.0010416666666666667
EXTRACT: note_on channel=0 note=65 velocity=0 time=0.24895833333333334
EXTRACT: note_on channel=0 note=65 velocity=80 time=0.0010416666666666667
EXTRACT: note_on channel=0 note=65 velocity=0 time=0.24895833333333334
EXTRACT: note_on channel=0 note=65 velocity=80 time=0.0010416666666666667
EXTRACT: note_on channel=0 note=65 velocity=0 time=0.24895833333333334
EXTRACT: note_on channel=0 note=65 velocity=80 time=0.0010416666666666667
EXTRACT: note_on channel=0 note=65 velocity=0 time=0.24895833333333334
EXTRACT: note_on channel=0 note=65 velocity=80 time=0.0010416666666666667
EXTRACT: note_on channel=0 note=65 velocity=0 time=0.24895833333333334
EXTRACT: note_on channel=0 note=67 velocity=80 time=0.0010416666666666667
EXTRACT: note_on channel=0 note=67 velocity=0 time=0.24895833333333334
EXTRACT: note_on channel=0 note=69 velocity=80 time=0.0010416666666666667
EXTRACT: note_on channel=0 note=69 velocity=0 time=0.24895833333333334
EXTRACT: note_on channel=0 note=69 velocity=80 time=0.0010416666666666667
EXTRACT: note_on channel=0 note=69 velocity=0 time=0.24895833333333334
EXTRACT: note_on channel=0 note=69 velocity=80 time=0.0010416666666666667
EXTRACT: note_on channel=0 note=69 velocity=0 time=0.24895833333333334
EXTRACT: note_on channel=0 note=67 velocity=80 time=0.0010416666666666667
EXTRACT: note_on channel=0 note=67 velocity=0 time=0.24895833333333334
EXTRACT: note_on channel=0 note=65 velocity=80 time=0.5010416666666666
EXTRACT: note_on channel=0 note=65 velocity=0 time=0.12395833333333334
EXTRACT: note_on channel=0 note=67 velocity=80 time=0.0010416666666666667
EXTRACT: note_on channel=0 note=67 velocity=0 time=0.24895833333333334
EXTRACT: note_on channel=0 note=72 velocity=80 time=0.0010416666666666667
EXTRACT: note_on channel=0 note=72 velocity=0 time=0.12395833333333334
EXTRACT: note_on channel=0 note=72 velocity=80 time=0
EXTRACT: note_on channel=0 note=72 velocity=0 time=0.24895833333333334
EXTRACT: note_on channel=0 note=69 velocity=80 time=0.0010416666666666667
EXTRACT: note_on channel=0 note=69 velocity=0 time=0.24895833333333334
EXTRACT: note_on channel=0 note=69 velocity=80 time=0.0010416666666666667
EXTRACT: note_on channel=0 note=69 velocity=0 time=0.12395833333333334
EXTRACT: note_on channel=0 note=67 velocity=80 time=0.0010416666666666667
EXTRACT: note_on channel=0 note=67 velocity=0 time=0.24895833333333334
EXTRACT: note_on channel=0 note=67 velocity=80 time=0.0010416666666666667
EXTRACT: note_on channel=0 note=67 velocity=0 time=0.37395833333333334
EXTRACT: note_on channel=0 note=65 velocity=80 time=0.0010416666666666667
EXTRACT: note_on channel=0 note=65 velocity=0 time=0.24895833333333334
EXTRACT: note_on channel=0 note=72 velocity=80 time=0.37604166666666666
EXTRACT: note_on channel=0 note=72 velocity=0 time=0.49895833333333334
EXTRACT: note_on channel=0 note=69 velocity=80 time=0.0010416666666666667
EXTRACT: note_on channel=0 note=69 velocity=0 time=0.12395833333333334
EXTRACT: note_on channel=0 note=69 velocity=80 time=0.0010416666666666667
EXTRACT: note_on channel=0 note=69 velocity=0 time=0.12395833333333334
EXTRACT: note_on channel=0 note=67 velocity=80 time=0.0010416666666666667
EXTRACT: note_on channel=0 note=67 velocity=0 time=0.12395833333333334
EXTRACT: note_on channel=0 note=67 velocity=80 time=0.0010416666666666667
EXTRACT: note_on channel=0 note=67 velocity=0 time=0.12395833333333334
EXTRACT: note_on channel=0 note=65 velocity=80 time=0.0010416666666666667
EXTRACT: note_on channel=0 note=65 velocity=0 time=0.6239583333333333
EXTRACT: note_on channel=0 note=72 velocity=80 time=0.37604166666666666
EXTRACT: note_on channel=0 note=72 velocity=0 time=0.37395833333333334
EXTRACT: note_on channel=0 note=69 velocity=80 time=0.0010416666666666667
EXTRACT: note_on channel=0 note=69 velocity=0 time=0.12395833333333334
EXTRACT: note_on channel=0 note=69 velocity=80 time=0.0010416666666666667
EXTRACT: note_on channel=0 note=69 velocity=0 time=0.12395833333333334
EXTRACT: note_on channel=0 note=67 velocity=80 time=0.0010416666666666667
EXTRACT: note_on channel=0 note=67 velocity=0 time=0.24895833333333334
EXTRACT: note_on channel=0 note=67 velocity=80 time=0.0010416666666666667
EXTRACT: note_on channel=0 note=67 velocity=0 time=0.49895833333333334
EXTRACT: note_on channel=0 note=65 velocity=80 time=0.0010416666666666667
EXTRACT: note_on channel=0 note=65 velocity=0 time=0.24895833333333334
EXTRACT: note_on channel=0 note=65 velocity=80 time=0.0010416666666666667
EXTRACT: note_on channel=0 note=65 velocity=0 time=0.24895833333333334
EXTRACT: note_on channel=0 note=64 velocity=80 time=0.0010416666666666667
EXTRACT: note_on channel=0 note=64 velocity=0 time=0.7489583333333333
EXTRACT: note_on channel=0 note=65 velocity=80 time=0.7510416666666666
EXTRACT: note_on channel=0 note=65 velocity=0 time=0.24895833333333334
EXTRACT: note_on channel=0 note=65 velocity=80 time=0.0010416666666666667
EXTRACT: note_on channel=0 note=65 velocity=0 time=0.24895833333333334
EXTRACT: note_on channel=0 note=67 velocity=80 time=0.0010416666666666667
EXTRACT: note_on channel=0 note=67 velocity=0 time=0.24895833333333334
EXTRACT: note_on channel=0 note=69 velocity=80 time=0
EXTRACT: note_on channel=0 note=69 velocity=0 time=0.49895833333333334
EXTRACT: note_on channel=0 note=60 velocity=80 time=0.5010416666666666
EXTRACT: note_on channel=0 note=60 velocity=0 time=0.49895833333333334
EXTRACT: note_on channel=0 note=69 velocity=80 time=0.5010416666666666
EXTRACT: note_on channel=0 note=69 velocity=0 time=0.24895833333333334
EXTRACT: note_on channel=0 note=69 velocity=80 time=0.0010416666666666667
EXTRACT: note_on channel=0 note=69 velocity=0 time=0.24895833333333334
EXTRACT: note_on channel=0 note=69 velocity=80 time=0.0010416666666666667
EXTRACT: note_on channel=0 note=69 velocity=0 time=0.24895833333333334
EXTRACT: note_on channel=0 note=70 velocity=80 time=0.0010416666666666667
EXTRACT: note_on channel=0 note=70 velocity=0 time=0.49895833333333334
EXTRACT: note_on channel=0 note=69 velocity=80 time=0.0010416666666666667
EXTRACT: note_on channel=0 note=69 velocity=0 time=0.24895833333333334
EXTRACT: note_on channel=0 note=67 velocity=80 time=0.0010416666666666667
EXTRACT: note_on channel=0 note=67 velocity=0 time=0.24895833333333334
EXTRACT: note_on channel=0 note=65 velocity=80 time=0.0010416666666666667
EXTRACT: note_on channel=0 note=65 velocity=0 time=0.24895833333333334
EXTRACT: note_on channel=0 note=69 velocity=80 time=0.0010416666666666667
EXTRACT: note_on channel=0 note=69 velocity=0 time=0.49895833333333334
EXTRACT: note_on channel=0 note=67 velocity=80 time=0.5010416666666666
EXTRACT: note_on channel=0 note=67 velocity=0 time=0.49895833333333334
EXTRACT: note_on channel=0 note=69 velocity=80 time=0.5010416666666666
EXTRACT: note_on channel=0 note=69 velocity=0 time=0.24895833333333334
EXTRACT: note_on channel=0 note=69 velocity=80 time=0.0010416666666666667
EXTRACT: note_on channel=0 note=69 velocity=0 time=0.24895833333333334
EXTRACT: note_on channel=0 note=69 velocity=80 time=0.0010416666666666667
EXTRACT: note_on channel=0 note=69 velocity=0 time=0.24895833333333334
EXTRACT: note_on channel=0 note=70 velocity=80 time=0.0010416666666666667
EXTRACT: note_on channel=0 note=70 velocity=0 time=0.49895833333333334
EXTRACT: note_on channel=0 note=69 velocity=80 time=0.0010416666666666667
EXTRACT: note_on channel=0 note=69 velocity=0 time=0.24895833333333334
EXTRACT: note_on channel=0 note=67 velocity=80 time=0.0010416666666666667
EXTRACT: note_on channel=0 note=67 velocity=0 time=0.24895833333333334
EXTRACT: note_on channel=0 note=65 velocity=80 time=0.0010416666666666667
EXTRACT: note_on channel=0 note=65 velocity=0 time=0.24895833333333334
EXTRACT: note_on channel=0 note=69 velocity=80 time=0.0010416666666666667
EXTRACT: note_on channel=0 note=69 velocity=0 time=0.49895833333333334
EXTRACT: note_on channel=0 note=67 velocity=80 time=0.5010416666666666
EXTRACT: note_on channel=0 note=67 velocity=0 time=0.49895833333333334
EXTRACT: note_on channel=0 note=67 velocity=80 time=0.125
EXTRACT: note_on channel=0 note=67 velocity=0 time=0.24895833333333334
EXTRACT: note_on channel=0 note=69 velocity=80 time=0.0010416666666666667
EXTRACT: note_on channel=0 note=69 velocity=0 time=0.49895833333333334
EXTRACT: note_on channel=0 note=70 velocity=80 time=0.0010416666666666667
EXTRACT: note_on channel=0 note=70 velocity=0 time=0.49895833333333334
EXTRACT: note_on channel=0 note=69 velocity=80 time=0.0010416666666666667
EXTRACT: note_on channel=0 note=69 velocity=0 time=0.24895833333333334
EXTRACT: note_on channel=0 note=67 velocity=80 time=0.0010416666666666667
EXTRACT: note_on channel=0 note=67 velocity=0 time=0.24895833333333334
EXTRACT: note_on channel=0 note=65 velocity=80 time=0.0010416666666666667
EXTRACT: note_on channel=0 note=65 velocity=0 time=0.24895833333333334
EXTRACT: note_on channel=0 note=65 velocity=80 time=0
EXTRACT: note_on channel=0 note=65 velocity=0 time=0.9989583333333333
EXTRACT: note_on channel=0 note=65 velocity=80 time=2.2510416666666666
EXTRACT: note_on channel=0 note=65 velocity=0 time=0.24895833333333334
EXTRACT: note_on channel=0 note=65 velocity=80 time=0.0010416666666666667
EXTRACT: note_on channel=0 note=65 velocity=0 time=0.24895833333333334
EXTRACT: note_on channel=0 note=67 velocity=80 time=0.0010416666666666667
EXTRACT: note_on channel=0 note=67 velocity=0 time=0.24895833333333334
EXTRACT: note_on channel=0 note=69 velocity=80 time=0.0010416666666666667
EXTRACT: note_on channel=0 note=69 velocity=0 time=0.49895833333333334
EXTRACT: note_on channel=0 note=60 velocity=80 time=0.5010416666666666
EXTRACT: note_on channel=0 note=60 velocity=0 time=0.49895833333333334
EXTRACT: note_on channel=0 note=69 velocity=80 time=0.5010416666666666
EXTRACT: note_on channel=0 note=69 velocity=0 time=0.24895833333333334
EXTRACT: note_on channel=0 note=69 velocity=80 time=0.0010416666666666667
EXTRACT: note_on channel=0 note=69 velocity=0 time=0.24895833333333334
EXTRACT: note_on channel=0 note=69 velocity=80 time=0.0010416666666666667
EXTRACT: note_on channel=0 note=69 velocity=0 time=0.24895833333333334
EXTRACT: note_on channel=0 note=70 velocity=80 time=0.0010416666666666667
EXTRACT: note_on channel=0 note=70 velocity=0 time=0.49895833333333334
EXTRACT: note_on channel=0 note=69 velocity=80 time=0.0010416666666666667
EXTRACT: note_on channel=0 note=69 velocity=0 time=0.24895833333333334
EXTRACT: note_on channel=0 note=67 velocity=80 time=0.0010416666666666667
EXTRACT: note_on channel=0 note=67 velocity=0 time=0.24895833333333334
EXTRACT: note_on channel=0 note=65 velocity=80 time=0.0010416666666666667
EXTRACT: note_on channel=0 note=65 velocity=0 time=0.24895833333333334
EXTRACT: note_on channel=0 note=69 velocity=80 time=0.0010416666666666667
EXTRACT: note_on channel=0 note=69 velocity=0 time=0.49895833333333334
EXTRACT: note_on channel=0 note=67 velocity=80 time=0.5010416666666666
EXTRACT: note_on channel=0 note=67 velocity=0 time=0.49895833333333334
EXTRACT: note_on channel=0 note=69 velocity=80 time=0.5010416666666666
EXTRACT: note_on channel=0 note=69 velocity=0 time=0.24895833333333334
EXTRACT: note_on channel=0 note=69 velocity=80 time=0.0010416666666666667
EXTRACT: note_on channel=0 note=69 velocity=0 time=0.24895833333333334
EXTRACT: note_on channel=0 note=69 velocity=80 time=0.0010416666666666667
EXTRACT: note_on channel=0 note=69 velocity=0 time=0.24895833333333334
EXTRACT: note_on channel=0 note=70 velocity=80 time=0.0010416666666666667
EXTRACT: note_on channel=0 note=70 velocity=0 time=0.49895833333333334
EXTRACT: note_on channel=0 note=69 velocity=80 time=0.0010416666666666667
EXTRACT: note_on channel=0 note=69 velocity=0 time=0.24895833333333334
EXTRACT: note_on channel=0 note=67 velocity=80 time=0.0010416666666666667
EXTRACT: note_on channel=0 note=67 velocity=0 time=0.24895833333333334
EXTRACT: note_on channel=0 note=65 velocity=80 time=0.0010416666666666667
EXTRACT: note_on channel=0 note=65 velocity=0 time=0.24895833333333334
EXTRACT: note_on channel=0 note=72 velocity=80 time=0.0010416666666666667
EXTRACT: note_on channel=0 note=72 velocity=0 time=0.49895833333333334
EXTRACT: note_on channel=0 note=69 velocity=80 time=0.5010416666666666
EXTRACT: note_on channel=0 note=69 velocity=0 time=0.49895833333333334
EXTRACT: note_on channel=0 note=67 velocity=80 time=0.5010416666666666
EXTRACT: note_on channel=0 note=67 velocity=0 time=0.24895833333333334
EXTRACT: note_on channel=0 note=69 velocity=80 time=0.0010416666666666667
EXTRACT: note_on channel=0 note=69 velocity=0 time=0.49895833333333334
EXTRACT: note_on channel=0 note=70 velocity=80 time=0.0010416666666666667
EXTRACT: note_on channel=0 note=70 velocity=0 time=0.49895833333333334
EXTRACT: note_on channel=0 note=69 velocity=80 time=0.0010416666666666667
EXTRACT: note_on channel=0 note=69 velocity=0 time=0.24895833333333334
EXTRACT: note_on channel=0 note=67 velocity=80 time=0.0010416666666666667
EXTRACT: note_on channel=0 note=67 velocity=0 time=0.24895833333333334
EXTRACT: note_on channel=0 note=65 velocity=80 time=0.0010416666666666667
EXTRACT: note_on channel=0 note=65 velocity=0 time=0.24895833333333334
EXTRACT: note_on channel=0 note=65 velocity=80 time=0
EXTRACT: note_on channel=0 note=65 velocity=0 time=0.9989583333333333
EXTRACT: note_on channel=0 note=65 velocity=80 time=0
EXTRACT: note_on channel=0 note=65 velocity=0 time=0.24895833333333334
EXTRACT: note_on channel=0 note=65 velocity=80 time=0.0010416666666666667
EXTRACT: note_on channel=0 note=65 velocity=0 time=0.49895833333333334
EXTRACT: note_on channel=0 note=64 velocity=80 time=0.0010416666666666667
EXTRACT: note_on channel=0 note=64 velocity=0 time=0.24895833333333334
EXTRACT: note_on channel=0 note=65 velocity=80 time=0.0010416666666666667
EXTRACT: note_on channel=0 note=65 velocity=0 time=0.24895833333333334
EXTRACT: note_on channel=0 note=65 velocity=80 time=0.0010416666666666667
EXTRACT: note_on channel=0 note=65 velocity=0 time=0.49895833333333334
EXTRACT: note_on channel=0 note=65 velocity=80 time=0.0010416666666666667
EXTRACT: note_on channel=0 note=65 velocity=0 time=0.7489583333333333
EXTRACT: note_on channel=0 note=65 velocity=80 time=1.5010416666666666
EXTRACT: note_on channel=0 note=65 velocity=0 time=0.24895833333333334
EXTRACT: note_on channel=0 note=65 velocity=80 time=0.0010416666666666667
EXTRACT: note_on channel=0 note=65 velocity=0 time=0.49895833333333334
EXTRACT: note_on channel=0 note=64 velocity=80 time=0.0010416666666666667
EXTRACT: note_on channel=0 note=64 velocity=0 time=0.24895833333333334
EXTRACT: note_on channel=0 note=65 velocity=80 time=0.0010416666666666667
EXTRACT: note_on channel=0 note=65 velocity=0 time=0.24895833333333334
EXTRACT: note_on channel=0 note=65 velocity=80 time=0.0010416666666666667
EXTRACT: note_on channel=0 note=65 velocity=0 time=0.49895833333333334
EXTRACT: note_on channel=0 note=65 velocity=80 time=0.0010416666666666667
EXTRACT: note_on channel=0 note=65 velocity=0 time=0.7489583333333333
EXTRACT: note_on channel=0 note=69 velocity=80 time=1.5010416666666666
EXTRACT: note_on channel=0 note=69 velocity=0 time=0.24895833333333334
EXTRACT: note_on channel=0 note=69 velocity=80 time=0.0010416666666666667
EXTRACT: note_on channel=0 note=69 velocity=0 time=0.49895833333333334
EXTRACT: note_on channel=0 note=67 velocity=80 time=0.0010416666666666667
EXTRACT: note_on channel=0 note=67 velocity=0 time=0.24895833333333334
EXTRACT: note_on channel=0 note=69 velocity=80 time=0.0010416666666666667
EXTRACT: note_on channel=0 note=69 velocity=0 time=0.24895833333333334
EXTRACT: note_on channel=0 note=69 velocity=80 time=0.0010416666666666667
EXTRACT: note_on channel=0 note=69 velocity=0 time=0.49895833333333334
EXTRACT: note_on channel=0 note=69 velocity=80 time=0.0010416666666666667
EXTRACT: note_on channel=0 note=69 velocity=0 time=0.49895833333333334
EXTRACT: note_on channel=0 note=65 velocity=80 time=1.5010416666666666
EXTRACT: note_on channel=0 note=65 velocity=0 time=0.24895833333333334
EXTRACT: note_on channel=0 note=65 velocity=80 time=0.0010416666666666667
EXTRACT: note_on channel=0 note=65 velocity=0 time=0.49895833333333334
EXTRACT: note_on channel=0 note=64 velocity=80 time=0.0010416666666666667
EXTRACT: note_on channel=0 note=64 velocity=0 time=0.24895833333333334
EXTRACT: note_on channel=0 note=65 velocity=80 time=0.0010416666666666667
EXTRACT: note_on channel=0 note=65 velocity=0 time=0.24895833333333334
EXTRACT: note_on channel=0 note=65 velocity=80 time=0.0010416666666666667
EXTRACT: note_on channel=0 note=65 velocity=0 time=0.49895833333333334
EXTRACT: note_on channel=0 note=60 velocity=80 time=0.0010416666666666667
EXTRACT: note_on channel=0 note=60 velocity=0 time=0.7489583333333333
EXTRACT: note_on channel=0 note=65 velocity=80 time=2.7510416666666666
EXTRACT: note_on channel=0 note=65 velocity=0 time=0.24895833333333334
EXTRACT: note_on channel=0 note=65 velocity=80 time=0.0010416666666666667
EXTRACT: note_on channel=0 note=65 velocity=0 time=0.24895833333333334
EXTRACT: note_on channel=0 note=67 velocity=80 time=0.0010416666666666667
EXTRACT: note_on channel=0 note=67 velocity=0 time=0.24895833333333334
EXTRACT: note_on channel=0 note=69 velocity=80 time=0.0010416666666666667
EXTRACT: note_on channel=0 note=69 velocity=0 time=0.49895833333333334
EXTRACT: note_on channel=0 note=60 velocity=80 time=0.5010416666666666
EXTRACT: note_on channel=0 note=60 velocity=0 time=0.24895833333333334
EXTRACT: note_on channel=0 note=60 velocity=80 time=0.0010416666666666667
EXTRACT: note_on channel=0 note=60 velocity=0 time=0.24895833333333334
EXTRACT: note_on channel=0 note=60 velocity=80 time=0.0010416666666666667
EXTRACT: note_on channel=0 note=60 velocity=0 time=0.24895833333333334
EXTRACT: note_on channel=0 note=60 velocity=80 time=0.0010416666666666667
EXTRACT: note_on channel=0 note=60 velocity=0 time=0.24895833333333334
EXTRACT: note_on channel=0 note=69 velocity=80 time=0
EXTRACT: note_on channel=0 note=69 velocity=0 time=0.24895833333333334
EXTRACT: note_on channel=0 note=69 velocity=80 time=0.0010416666666666667
EXTRACT: note_on channel=0 note=69 velocity=0 time=0.24895833333333334
EXTRACT: note_on channel=0 note=69 velocity=80 time=0.0010416666666666667
EXTRACT: note_on channel=0 note=69 velocity=0 time=0.24895833333333334
EXTRACT: note_on channel=0 note=70 velocity=80 time=0.0010416666666666667
EXTRACT: note_on channel=0 note=70 velocity=0 time=0.49895833333333334
EXTRACT: note_on channel=0 note=69 velocity=80 time=0.0010416666666666667
EXTRACT: note_on channel=0 note=69 velocity=0 time=0.24895833333333334
EXTRACT: note_on channel=0 note=67 velocity=80 time=0.0010416666666666667
EXTRACT: note_on channel=0 note=67 velocity=0 time=0.24895833333333334
EXTRACT: note_on channel=0 note=65 velocity=80 time=0.0010416666666666667
EXTRACT: note_on channel=0 note=65 velocity=0 time=0.24895833333333334
EXTRACT: note_on channel=0 note=69 velocity=80 time=0.0010416666666666667
EXTRACT: note_on channel=0 note=69 velocity=0 time=0.49895833333333334
EXTRACT: note_on channel=0 note=67 velocity=80 time=0.5010416666666666
EXTRACT: note_on channel=0 note=67 velocity=0 time=0.49895833333333334
EXTRACT: note_on channel=0 note=69 velocity=80 time=0.5010416666666666
EXTRACT: note_on channel=0 note=69 velocity=0 time=0.24895833333333334
EXTRACT: note_on channel=0 note=69 velocity=80 time=0.0010416666666666667
EXTRACT: note_on channel=0 note=69 velocity=0 time=0.24895833333333334
EXTRACT: note_on channel=0 note=69 velocity=80 time=0.0010416666666666667
EXTRACT: note_on channel=0 note=69 velocity=0 time=0.24895833333333334
EXTRACT: note_on channel=0 note=70 velocity=80 time=0.0010416666666666667
EXTRACT: note_on channel=0 note=70 velocity=0 time=0.49895833333333334
EXTRACT: note_on channel=0 note=69 velocity=80 time=0.0010416666666666667
EXTRACT: note_on channel=0 note=69 velocity=0 time=0.24895833333333334
EXTRACT: note_on channel=0 note=67 velocity=80 time=0.0010416666666666667
EXTRACT: note_on channel=0 note=67 velocity=0 time=0.24895833333333334
EXTRACT: note_on channel=0 note=65 velocity=80 time=0.0010416666666666667
EXTRACT: note_on channel=0 note=65 velocity=0 time=0.24895833333333334
EXTRACT: note_on channel=0 note=69 velocity=80 time=0.0010416666666666667
EXTRACT: note_on channel=0 note=69 velocity=0 time=0.49895833333333334
EXTRACT: note_on channel=0 note=67 velocity=80 time=0.5010416666666666
EXTRACT: note_on channel=0 note=67 velocity=0 time=0.49895833333333334
EXTRACT: note_on channel=0 note=67 velocity=80 time=0.5010416666666666
EXTRACT: note_on channel=0 note=67 velocity=0 time=0.24895833333333334
EXTRACT: note_on channel=0 note=69 velocity=80 time=0.0010416666666666667
EXTRACT: note_on channel=0 note=69 velocity=0 time=0.49895833333333334
EXTRACT: note_on channel=0 note=70 velocity=80 time=0.0010416666666666667
EXTRACT: note_on channel=0 note=70 velocity=0 time=0.49895833333333334
EXTRACT: note_on channel=0 note=69 velocity=80 time=0.0010416666666666667
EXTRACT: note_on channel=0 note=69 velocity=0 time=0.24895833333333334
EXTRACT: note_on channel=0 note=67 velocity=80 time=0.0010416666666666667
EXTRACT: note_on channel=0 note=67 velocity=0 time=0.24895833333333334
EXTRACT: note_on channel=0 note=65 velocity=80 time=0.0010416666666666667
EXTRACT: note_on channel=0 note=65 velocity=0 time=0.24895833333333334
EXTRACT: note_on channel=0 note=65 velocity=80 time=0.0010416666666666667
EXTRACT: note_on channel=0 note=65 velocity=0 time=0.9989583333333333
EXTRACT: note_on channel=0 note=65 velocity=80 time=2.2510416666666666
EXTRACT: note_on channel=0 note=65 velocity=0 time=0.24895833333333334
EXTRACT: note_on channel=0 note=65 velocity=80 time=0.0010416666666666667
EXTRACT: note_on channel=0 note=65 velocity=0 time=0.24895833333333334
EXTRACT: note_on channel=0 note=67 velocity=80 time=0.0010416666666666667
EXTRACT: note_on channel=0 note=67 velocity=0 time=0.24895833333333334
EXTRACT: note_on channel=0 note=69 velocity=80 time=0.0010416666666666667
EXTRACT: note_on channel=0 note=69 velocity=0 time=0.49895833333333334
EXTRACT: note_on channel=0 note=60 velocity=80 time=0.5010416666666666
EXTRACT: note_on channel=0 note=60 velocity=0 time=0.49895833333333334
EXTRACT: note_on channel=0 note=69 velocity=80 time=0.5010416666666666
EXTRACT: note_on channel=0 note=69 velocity=0 time=0.24895833333333334
EXTRACT: note_on channel=0 note=69 velocity=80 time=0.0010416666666666667
EXTRACT: note_on channel=0 note=69 velocity=0 time=0.24895833333333334
EXTRACT: note_on channel=0 note=69 velocity=80 time=0.0010416666666666667
EXTRACT: note_on channel=0 note=69 velocity=0 time=0.24895833333333334
EXTRACT: note_on channel=0 note=70 velocity=80 time=0.0010416666666666667
EXTRACT: note_on channel=0 note=70 velocity=0 time=0.49895833333333334
EXTRACT: note_on channel=0 note=69 velocity=80 time=0.0010416666666666667
EXTRACT: note_on channel=0 note=69 velocity=0 time=0.24895833333333334
EXTRACT: note_on channel=0 note=67 velocity=80 time=0.0010416666666666667
EXTRACT: note_on channel=0 note=67 velocity=0 time=0.24895833333333334
EXTRACT: note_on channel=0 note=65 velocity=80 time=0.0010416666666666667
EXTRACT: note_on channel=0 note=65 velocity=0 time=0.24895833333333334
EXTRACT: note_on channel=0 note=69 velocity=80 time=0.0010416666666666667
EXTRACT: note_on channel=0 note=69 velocity=0 time=0.49895833333333334
EXTRACT: note_on channel=0 note=67 velocity=80 time=0.5010416666666666
EXTRACT: note_on channel=0 note=67 velocity=0 time=0.49895833333333334
EXTRACT: note_on channel=0 note=69 velocity=80 time=0.5010416666666666
EXTRACT: note_on channel=0 note=69 velocity=0 time=0.24895833333333334
EXTRACT: note_on channel=0 note=69 velocity=80 time=0.0010416666666666667
EXTRACT: note_on channel=0 note=69 velocity=0 time=0.24895833333333334
EXTRACT: note_on channel=0 note=69 velocity=80 time=0.0010416666666666667
EXTRACT: note_on channel=0 note=69 velocity=0 time=0.24895833333333334
EXTRACT: note_on channel=0 note=70 velocity=80 time=0.0010416666666666667
EXTRACT: note_on channel=0 note=70 velocity=0 time=0.49895833333333334
EXTRACT: note_on channel=0 note=69 velocity=80 time=0.0010416666666666667
EXTRACT: note_on channel=0 note=69 velocity=0 time=0.24895833333333334
EXTRACT: note_on channel=0 note=67 velocity=80 time=0.0010416666666666667
EXTRACT: note_on channel=0 note=67 velocity=0 time=0.24895833333333334
EXTRACT: note_on channel=0 note=65 velocity=80 time=0.0010416666666666667
EXTRACT: note_on channel=0 note=65 velocity=0 time=0.24895833333333334
EXTRACT: note_on channel=0 note=72 velocity=80 time=0.0010416666666666667
EXTRACT: note_on channel=0 note=72 velocity=0 time=0.49895833333333334
EXTRACT: note_on channel=0 note=69 velocity=80 time=0.5010416666666666
EXTRACT: note_on channel=0 note=69 velocity=0 time=0.49895833333333334
EXTRACT: note_on channel=0 note=67 velocity=80 time=0.5010416666666666
EXTRACT: note_on channel=0 note=67 velocity=0 time=0.24895833333333334
EXTRACT: note_on channel=0 note=69 velocity=80 time=0.0010416666666666667
EXTRACT: note_on channel=0 note=69 velocity=0 time=0.49895833333333334
EXTRACT: note_on channel=0 note=70 velocity=80 time=0.0010416666666666667
EXTRACT: note_on channel=0 note=70 velocity=0 time=0.49895833333333334
EXTRACT: note_on channel=0 note=69 velocity=80 time=0.0010416666666666667
EXTRACT: note_on channel=0 note=69 velocity=0 time=0.24895833333333334
EXTRACT: note_on channel=0 note=67 velocity=80 time=0.0010416666666666667
EXTRACT: note_on channel=0 note=67 velocity=0 time=0.24895833333333334
EXTRACT: note_on channel=0 note=65 velocity=80 time=0.0010416666666666667
EXTRACT: note_on channel=0 note=65 velocity=0 time=0.24895833333333334
EXTRACT: note_on channel=0 note=65 velocity=80 time=0.0010416666666666667
EXTRACT: note_on channel=0 note=65 velocity=0 time=1.2489583333333334
EXTRACT: note_on channel=0 note=69 velocity=80 time=0.0010416666666666667
EXTRACT: note_on channel=0 note=69 velocity=0 time=0.7489583333333333
EXTRACT: note_on channel=0 note=53 velocity=80 time=1.0010416666666666
EXTRACT: note_on channel=0 note=53 velocity=0 time=0.24895833333333334
EXTRACT: note_on channel=0 note=53 velocity=80 time=0.0010416666666666667
EXTRACT: note_on channel=0 note=53 velocity=0 time=0.24895833333333334
EXTRACT: note_on channel=0 note=57 velocity=80 time=0.0010416666666666667
EXTRACT: note_on channel=0 note=57 velocity=0 time=0.24895833333333334
EXTRACT: note_on channel=0 note=57 velocity=80 time=0.0010416666666666667
EXTRACT: note_on channel=0 note=57 velocity=0 time=0.7489583333333333
EXTRACT: note_on channel=0 note=57 velocity=80 time=1.5010416666666666
EXTRACT: note_on channel=0 note=57 velocity=0 time=0.24895833333333334
EXTRACT: note_on channel=0 note=57 velocity=80 time=0.0010416666666666667
EXTRACT: note_on channel=0 note=57 velocity=0 time=0.24895833333333334
EXTRACT: note_on channel=0 note=57 velocity=80 time=0.0010416666666666667
EXTRACT: note_on channel=0 note=57 velocity=0 time=0.24895833333333334
EXTRACT: note_on channel=0 note=58 velocity=80 time=0.0010416666666666667
EXTRACT: note_on channel=0 note=58 velocity=0 time=0.49895833333333334
EXTRACT: note_on channel=0 note=57 velocity=80 time=0.0010416666666666667
EXTRACT: note_on channel=0 note=57 velocity=0 time=0.24895833333333334
EXTRACT: note_on channel=0 note=55 velocity=80 time=0.0010416666666666667
EXTRACT: note_on channel=0 note=55 velocity=0 time=0.24895833333333334
EXTRACT: note_on channel=0 note=53 velocity=80 time=0.0010416666666666667
EXTRACT: note_on channel=0 note=53 velocity=0 time=0.24895833333333334
EXTRACT: note_on channel=0 note=57 velocity=80 time=0.0010416666666666667
EXTRACT: note_on channel=0 note=57 velocity=0 time=0.49895833333333334
EXTRACT: note_on channel=0 note=55 velocity=80 time=0.5010416666666666
EXTRACT: note_on channel=0 note=55 velocity=0 time=0.49895833333333334
EXTRACT: note_on channel=0 note=57 velocity=80 time=0.5010416666666666
EXTRACT: note_on channel=0 note=57 velocity=0 time=0.24895833333333334
EXTRACT: note_on channel=0 note=57 velocity=80 time=0.0010416666666666667
EXTRACT: note_on channel=0 note=57 velocity=0 time=0.24895833333333334
EXTRACT: note_on channel=0 note=57 velocity=80 time=0.0010416666666666667
EXTRACT: note_on channel=0 note=57 velocity=0 time=0.24895833333333334
EXTRACT: note_on channel=0 note=58 velocity=80 time=0.0010416666666666667
EXTRACT: note_on channel=0 note=58 velocity=0 time=0.49895833333333334
EXTRACT: note_on channel=0 note=57 velocity=80 time=0.0010416666666666667
EXTRACT: note_on channel=0 note=57 velocity=0 time=0.24895833333333334
EXTRACT: note_on channel=0 note=55 velocity=80 time=0.0010416666666666667
EXTRACT: note_on channel=0 note=55 velocity=0 time=0.24895833333333334
EXTRACT: note_on channel=0 note=53 velocity=80 time=0.0010416666666666667
EXTRACT: note_on channel=0 note=53 velocity=0 time=0.24895833333333334
EXTRACT: note_on channel=0 note=57 velocity=80 time=0.0010416666666666667
EXTRACT: note_on channel=0 note=57 velocity=0 time=0.49895833333333334
EXTRACT: note_on channel=0 note=55 velocity=80 time=0.5010416666666666
EXTRACT: note_on channel=0 note=55 velocity=0 time=0.49895833333333334
EXTRACT: note_on channel=0 note=57 velocity=80 time=0.5010416666666666
EXTRACT: note_on channel=0 note=57 velocity=0 time=0.24895833333333334
EXTRACT: note_on channel=0 note=57 velocity=80 time=0.0010416666666666667
EXTRACT: note_on channel=0 note=57 velocity=0 time=0.24895833333333334
EXTRACT: note_on channel=0 note=57 velocity=80 time=0.0010416666666666667
EXTRACT: note_on channel=0 note=57 velocity=0 time=0.24895833333333334
EXTRACT: note_on channel=0 note=58 velocity=80 time=0.0010416666666666667
EXTRACT: note_on channel=0 note=58 velocity=0 time=0.49895833333333334
EXTRACT: note_on channel=0 note=57 velocity=80 time=0.0010416666666666667
EXTRACT: note_on channel=0 note=57 velocity=0 time=0.24895833333333334
EXTRACT: note_on channel=0 note=55 velocity=80 time=0.0010416666666666667
EXTRACT: note_on channel=0 note=55 velocity=0 time=0.24895833333333334
EXTRACT: note_on channel=0 note=53 velocity=80 time=0.0010416666666666667
EXTRACT: note_on channel=0 note=53 velocity=0 time=0.24895833333333334
EXTRACT: note_on channel=0 note=53 velocity=80 time=0.0010416666666666667
EXTRACT: note_on channel=0 note=53 velocity=0 time=0.49895833333333334
EXTRACT: note_on channel=0 note=65 velocity=80 time=0.5010416666666666
EXTRACT: note_on channel=0 note=65 velocity=0 time=0.24895833333333334
EXTRACT: note_on channel=0 note=65 velocity=80 time=0.0010416666666666667
EXTRACT: note_on channel=0 note=65 velocity=0 time=0.24895833333333334
EXTRACT: note_on channel=0 note=65 velocity=80 time=0.0010416666666666667
EXTRACT: note_on channel=0 note=65 velocity=0 time=0.24895833333333334
EXTRACT: note_on channel=0 note=64 velocity=80 time=0.0010416666666666667
EXTRACT: note_on channel=0 note=64 velocity=0 time=0.24895833333333334
EXTRACT: note_on channel=0 note=65 velocity=80 time=0.0010416666666666667
EXTRACT: note_on channel=0 note=65 velocity=0 time=0.24895833333333334
EXTRACT: note_on channel=0 note=65 velocity=80 time=0.0010416666666666667
EXTRACT: note_on channel=0 note=65 velocity=0 time=0.49895833333333334
EXTRACT: note_on channel=0 note=65 velocity=80 time=0.0010416666666666667
EXTRACT: note_on channel=0 note=65 velocity=0 time=0.49895833333333334
