0 - gwen_stefani-the_sweet_escape.mid
EXTRACT: sysex data=(126,127,9,1) time=0
EXTRACT: control_change channel=9 control=0 value=0 time=0
EXTRACT: program_change channel=9 program=0 time=0
EXTRACT: control_change channel=9 control=10 value=64 time=0
EXTRACT: control_change channel=9 control=91 value=40 time=0
EXTRACT: control_change channel=9 control=93 value=0 time=0
EXTRACT: control_change channel=9 control=7 value=99 time=0
EXTRACT: control_change channel=1 control=0 value=0 time=0
EXTRACT: program_change channel=1 program=33 time=0
EXTRACT: control_change channel=1 control=7 value=99 time=0
EXTRACT: control_change channel=1 control=91 value=40 time=0
EXTRACT: control_change channel=1 control=10 value=64 time=0
EXTRACT: control_change channel=1 control=93 value=0 time=0
EXTRACT: control_change channel=2 control=0 value=0 time=0
EXTRACT: program_change channel=2 program=27 time=0
EXTRACT: control_change channel=2 control=7 value=104 time=0
EXTRACT: control_change channel=2 control=93 value=0 time=0
EXTRACT: control_change channel=2 control=91 value=40 time=0
EXTRACT: control_change channel=2 control=10 value=64 time=0
EXTRACT: control_change channel=3 control=0 value=0 time=0
EXTRACT: program_change channel=3 program=60 time=0
EXTRACT: control_change channel=3 control=91 value=40 time=0
EXTRACT: control_change channel=3 control=10 value=64 time=0
EXTRACT: control_change channel=3 control=93 value=0 time=0
EXTRACT: control_change channel=3 control=7 value=89 time=0
EXTRACT: control_change channel=4 control=0 value=0 time=0
EXTRACT: program_change channel=4 program=62 time=0
EXTRACT: control_change channel=4 control=91 value=40 time=0
EXTRACT: control_change channel=4 control=93 value=0 time=0
EXTRACT: control_change channel=4 control=7 value=89 time=0
EXTRACT: control_change channel=4 control=10 value=64 time=0
EXTRACT: control_change channel=5 control=0 value=0 time=0
EXTRACT: program_change channel=5 program=52 time=0
EXTRACT: control_change channel=5 control=7 value=99 time=0
EXTRACT: control_change channel=5 control=91 value=40 time=0
EXTRACT: control_change channel=5 control=93 value=0 time=0
EXTRACT: control_change channel=5 control=7 value=80 time=0
EXTRACT: control_change channel=5 control=7 value=99 time=0
EXTRACT: control_change channel=5 control=7 value=99 time=0
EXTRACT: control_change channel=5 control=10 value=64 time=0
EXTRACT: control_change channel=5 control=7 value=79 time=0
EXTRACT: control_change channel=5 control=7 value=79 time=0
EXTRACT: control_change channel=5 control=7 value=99 time=0
EXTRACT: control_change channel=5 control=7 value=99 time=0
EXTRACT: control_change channel=5 control=7 value=79 time=0
EXTRACT: control_change channel=5 control=7 value=99 time=0
EXTRACT: control_change channel=5 control=7 value=99 time=0
EXTRACT: control_change channel=5 control=7 value=79 time=0
EXTRACT: control_change channel=5 control=7 value=99 time=0
EXTRACT: control_change channel=5 control=7 value=99 time=0
EXTRACT: control_change channel=5 control=7 value=99 time=0
EXTRACT: control_change channel=5 control=7 value=99 time=0
EXTRACT: control_change channel=5 control=7 value=99 time=0
EXTRACT: control_change channel=5 control=7 value=99 time=0
EXTRACT: control_change channel=5 control=7 value=99 time=0
EXTRACT: control_change channel=5 control=7 value=99 time=0
EXTRACT: control_change channel=5 control=7 value=99 time=0
EXTRACT: control_change channel=5 control=7 value=99 time=0
EXTRACT: control_change channel=5 control=7 value=99 time=0
EXTRACT: control_change channel=5 control=7 value=99 time=0
EXTRACT: control_change channel=5 control=7 value=84 time=0
EXTRACT: control_change channel=5 control=7 value=99 time=0
EXTRACT: control_change channel=5 control=7 value=99 time=0
EXTRACT: control_change channel=5 control=7 value=85 time=0
EXTRACT: control_change channel=5 control=7 value=99 time=0
EXTRACT: control_change channel=5 control=7 value=99 time=0
EXTRACT: control_change channel=5 control=7 value=99 time=0
EXTRACT: control_change channel=6 control=0 value=0 time=0
EXTRACT: program_change channel=6 program=28 time=0
EXTRACT: control_change channel=6 control=91 value=40 time=0
EXTRACT: control_change channel=6 control=93 value=0 time=0
EXTRACT: control_change channel=6 control=7 value=109 time=0
EXTRACT: control_change channel=6 control=10 value=64 time=0
EXTRACT: control_change channel=7 control=0 value=0 time=0
EXTRACT: program_change channel=7 program=119 time=0
EXTRACT: control_change channel=7 control=93 value=0 time=0
EXTRACT: control_change channel=7 control=10 value=64 time=0
EXTRACT: control_change channel=7 control=7 value=99 time=0
EXTRACT: control_change channel=7 control=91 value=40 time=0
EXTRACT: control_change channel=8 control=0 value=0 time=0
EXTRACT: program_change channel=8 program=11 time=0
EXTRACT: control_change channel=8 control=93 value=0 time=0
EXTRACT: control_change channel=8 control=91 value=40 time=0
EXTRACT: control_change channel=8 control=10 value=64 time=0
EXTRACT: control_change channel=8 control=7 value=69 time=0
EXTRACT: control_change channel=10 control=0 value=0 time=0
EXTRACT: program_change channel=10 program=11 time=0
EXTRACT: control_change channel=10 control=93 value=0 time=0
EXTRACT: control_change channel=10 control=10 value=64 time=0
EXTRACT: control_change channel=10 control=7 value=99 time=0
EXTRACT: control_change channel=10 control=91 value=40 time=0
EXTRACT: control_change channel=6 control=10 value=0 time=1.4333333333333333
EXTRACT: control_change channel=2 control=10 value=127 time=0.23333333333333334
EXTRACT: note_on channel=9 note=54 velocity=91 time=0.3333333333333333
EXTRACT: note_on channel=2 note=65 velocity=75 time=0
EXTRACT: note_on channel=2 note=61 velocity=75 time=0
EXTRACT: note_on channel=2 note=70 velocity=75 time=0
EXTRACT: note_on channel=6 note=61 velocity=75 time=0
EXTRACT: note_on channel=6 note=70 velocity=75 time=0
EXTRACT: note_on channel=6 note=65 velocity=75 time=0
EXTRACT: note_on channel=9 note=54 velocity=0 time=0.16666666666666666
EXTRACT: note_on channel=9 note=54 velocity=71 time=0.16666666666666666
EXTRACT: note_on channel=9 note=54 velocity=0 time=0.1
EXTRACT: note_on channel=9 note=54 velocity=64 time=0.06666666666666667
EXTRACT: note_on channel=9 note=42 velocity=71 time=0
EXTRACT: note_on channel=9 note=44 velocity=64 time=0
EXTRACT: note_on channel=9 note=42 velocity=0 time=0.1
EXTRACT: note_on channel=9 note=44 velocity=0 time=0.016666666666666666
EXTRACT: note_on channel=9 note=54 velocity=0 time=0
EXTRACT: note_on channel=2 note=65 velocity=0 time=0.11666666666666667
EXTRACT: note_on channel=6 note=65 velocity=0 time=0
EXTRACT: note_on channel=2 note=61 velocity=0 time=0.016666666666666666
EXTRACT: note_on channel=6 note=61 velocity=0 time=0
EXTRACT: note_on channel=2 note=70 velocity=0 time=0.016666666666666666
EXTRACT: note_on channel=6 note=70 velocity=0 time=0
EXTRACT: note_on channel=9 note=44 velocity=71 time=0.06666666666666667
EXTRACT: note_on channel=9 note=54 velocity=71 time=0
EXTRACT: note_on channel=2 note=61 velocity=75 time=0
EXTRACT: note_on channel=2 note=68 velocity=75 time=0
EXTRACT: note_on channel=2 note=65 velocity=75 time=0
EXTRACT: note_on channel=6 note=65 velocity=75 time=0
EXTRACT: note_on channel=6 note=68 velocity=75 time=0
EXTRACT: note_on channel=6 note=61 velocity=75 time=0
EXTRACT: note_on channel=9 note=54 velocity=0 time=0.1
EXTRACT: note_on channel=9 note=44 velocity=0 time=0
EXTRACT: note_on channel=9 note=54 velocity=91 time=0.06666666666666667
EXTRACT: note_on channel=9 note=54 velocity=0 time=0.16666666666666666
EXTRACT: note_on channel=9 note=54 velocity=71 time=0.16666666666666666
EXTRACT: note_on channel=9 note=54 velocity=0 time=0.1
EXTRACT: note_on channel=9 note=42 velocity=71 time=0.06666666666666667
EXTRACT: note_on channel=9 note=54 velocity=64 time=0
EXTRACT: note_on channel=9 note=44 velocity=64 time=0
EXTRACT: note_on channel=9 note=42 velocity=0 time=0.1
EXTRACT: note_on channel=9 note=44 velocity=0 time=0.016666666666666666
EXTRACT: note_on channel=9 note=54 velocity=0 time=0
EXTRACT: note_on channel=9 note=44 velocity=71 time=0.21666666666666667
EXTRACT: note_on channel=9 note=54 velocity=71 time=0
EXTRACT: note_on channel=2 note=61 velocity=0 time=0.05
EXTRACT: note_on channel=6 note=61 velocity=0 time=0
EXTRACT: note_on channel=9 note=44 velocity=0 time=0.05
EXTRACT: note_on channel=9 note=54 velocity=0 time=0
EXTRACT: note_on channel=2 note=65 velocity=0 time=0
EXTRACT: note_on channel=6 note=65 velocity=0 time=0
EXTRACT: note_on channel=2 note=68 velocity=0 time=0.016666666666666666
EXTRACT: note_on channel=6 note=68 velocity=0 time=0
EXTRACT: note_on channel=9 note=54 velocity=91 time=0.05
EXTRACT: note_on channel=2 note=67 velocity=75 time=0
EXTRACT: note_on channel=2 note=58 velocity=75 time=0
EXTRACT: note_on channel=2 note=63 velocity=75 time=0
EXTRACT: note_on channel=6 note=67 velocity=75 time=0
EXTRACT: note_on channel=6 note=58 velocity=75 time=0
EXTRACT: note_on channel=6 note=63 velocity=75 time=0
EXTRACT: note_on channel=9 note=54 velocity=0 time=0.16666666666666666
EXTRACT: note_on channel=9 note=54 velocity=71 time=0.16666666666666666
EXTRACT: note_on channel=9 note=54 velocity=0 time=0.1
EXTRACT: note_on channel=9 note=54 velocity=64 time=0.06666666666666667
EXTRACT: note_on channel=9 note=42 velocity=71 time=0
EXTRACT: note_on channel=9 note=44 velocity=64 time=0
EXTRACT: note_on channel=9 note=42 velocity=0 time=0.1
EXTRACT: note_on channel=9 note=44 velocity=0 time=0.016666666666666666
EXTRACT: note_on channel=9 note=54 velocity=0 time=0
EXTRACT: note_on channel=2 note=63 velocity=0 time=0.13333333333333333
EXTRACT: note_on channel=6 note=63 velocity=0 time=0
EXTRACT: note_on channel=2 note=67 velocity=0 time=0.016666666666666666
EXTRACT: note_on channel=2 note=58 velocity=0 time=0
EXTRACT: note_on channel=6 note=67 velocity=0 time=0
EXTRACT: note_on channel=6 note=58 velocity=0 time=0
EXTRACT: note_on channel=9 note=54 velocity=71 time=0.06666666666666667
EXTRACT: note_on channel=9 note=44 velocity=71 time=0
EXTRACT: note_on channel=2 note=58 velocity=75 time=0
EXTRACT: note_on channel=2 note=66 velocity=75 time=0
EXTRACT: note_on channel=2 note=61 velocity=75 time=0
EXTRACT: note_on channel=6 note=61 velocity=75 time=0
EXTRACT: note_on channel=6 note=66 velocity=75 time=0
EXTRACT: note_on channel=6 note=58 velocity=75 time=0
EXTRACT: note_on channel=9 note=54 velocity=0 time=0.1
EXTRACT: note_on channel=9 note=44 velocity=0 time=0
EXTRACT: note_on channel=9 note=54 velocity=91 time=0.06666666666666667
EXTRACT: note_on channel=9 note=54 velocity=0 time=0.16666666666666666
EXTRACT: note_on channel=9 note=54 velocity=71 time=0.16666666666666666
EXTRACT: note_on channel=9 note=54 velocity=0 time=0.1
EXTRACT: note_on channel=9 note=44 velocity=64 time=0.06666666666666667
EXTRACT: note_on channel=9 note=42 velocity=71 time=0
EXTRACT: note_on channel=9 note=54 velocity=64 time=0
EXTRACT: note_on channel=9 note=42 velocity=0 time=0.1
EXTRACT: note_on channel=9 note=54 velocity=0 time=0.016666666666666666
EXTRACT: note_on channel=9 note=44 velocity=0 time=0
EXTRACT: note_on channel=9 note=54 velocity=64 time=0.21666666666666667
EXTRACT: note_on channel=9 note=42 velocity=71 time=0
EXTRACT: note_on channel=2 note=61 velocity=0 time=0.06666666666666667
EXTRACT: note_on channel=2 note=66 velocity=0 time=0
EXTRACT: note_on channel=6 note=66 velocity=0 time=0
EXTRACT: note_on channel=6 note=61 velocity=0 time=0
EXTRACT: note_on channel=2 note=58 velocity=0 time=0.016666666666666666
EXTRACT: note_on channel=6 note=58 velocity=0 time=0
EXTRACT: note_on channel=9 note=42 velocity=0 time=0.016666666666666666
EXTRACT: note_on channel=9 note=54 velocity=0 time=0
EXTRACT: note_on channel=9 note=54 velocity=91 time=0.06666666666666667
EXTRACT: note_on channel=2 note=61 velocity=75 time=0
EXTRACT: note_on channel=2 note=70 velocity=75 time=0
EXTRACT: note_on channel=2 note=65 velocity=75 time=0
EXTRACT: note_on channel=6 note=65 velocity=75 time=0
EXTRACT: note_on channel=6 note=70 velocity=75 time=0
EXTRACT: note_on channel=6 note=61 velocity=75 time=0
EXTRACT: note_on channel=9 note=54 velocity=0 time=0.16666666666666666
EXTRACT: note_on channel=9 note=54 velocity=71 time=0.16666666666666666
EXTRACT: note_on channel=9 note=54 velocity=0 time=0.1
EXTRACT: note_on channel=9 note=44 velocity=64 time=0.06666666666666667
EXTRACT: note_on channel=9 note=54 velocity=64 time=0
EXTRACT: note_on channel=9 note=42 velocity=71 time=0
EXTRACT: note_on channel=9 note=42 velocity=0 time=0.1
EXTRACT: note_on channel=9 note=44 velocity=0 time=0.016666666666666666
EXTRACT: note_on channel=9 note=54 velocity=0 time=0
EXTRACT: note_on channel=2 note=65 velocity=0 time=0.11666666666666667
EXTRACT: note_on channel=6 note=65 velocity=0 time=0
EXTRACT: note_on channel=2 note=61 velocity=0 time=0.016666666666666666
EXTRACT: note_on channel=6 note=61 velocity=0 time=0
EXTRACT: note_on channel=2 note=70 velocity=0 time=0.016666666666666666
EXTRACT: note_on channel=6 note=70 velocity=0 time=0
EXTRACT: note_on channel=9 note=54 velocity=71 time=0.06666666666666667
EXTRACT: note_on channel=9 note=44 velocity=71 time=0
EXTRACT: note_on channel=2 note=65 velocity=75 time=0
EXTRACT: note_on channel=2 note=61 velocity=75 time=0
EXTRACT: note_on channel=2 note=68 velocity=75 time=0
EXTRACT: note_on channel=6 note=65 velocity=75 time=0
EXTRACT: note_on channel=6 note=61 velocity=75 time=0
EXTRACT: note_on channel=6 note=68 velocity=75 time=0
EXTRACT: note_on channel=9 note=44 velocity=0 time=0.1
EXTRACT: note_on channel=9 note=54 velocity=0 time=0
EXTRACT: note_on channel=9 note=54 velocity=91 time=0.06666666666666667
EXTRACT: note_on channel=9 note=54 velocity=0 time=0.16666666666666666
EXTRACT: note_on channel=9 note=54 velocity=71 time=0.16666666666666666
EXTRACT: note_on channel=9 note=54 velocity=0 time=0.1
EXTRACT: note_on channel=9 note=44 velocity=64 time=0.06666666666666667
EXTRACT: note_on channel=9 note=42 velocity=71 time=0
EXTRACT: note_on channel=9 note=54 velocity=64 time=0
EXTRACT: note_on channel=9 note=42 velocity=0 time=0.1
EXTRACT: note_on channel=9 note=44 velocity=0 time=0.016666666666666666
EXTRACT: note_on channel=9 note=54 velocity=0 time=0
EXTRACT: note_on channel=9 note=44 velocity=71 time=0.21666666666666667
EXTRACT: note_on channel=9 note=54 velocity=71 time=0
EXTRACT: note_on channel=2 note=61 velocity=0 time=0.05
EXTRACT: note_on channel=6 note=61 velocity=0 time=0
EXTRACT: note_on channel=9 note=54 velocity=0 time=0.05
EXTRACT: note_on channel=9 note=44 velocity=0 time=0
EXTRACT: note_on channel=2 note=65 velocity=0 time=0
EXTRACT: note_on channel=6 note=65 velocity=0 time=0
EXTRACT: note_on channel=2 note=68 velocity=0 time=0.016666666666666666
EXTRACT: note_on channel=6 note=68 velocity=0 time=0
EXTRACT: note_on channel=9 note=54 velocity=91 time=0.05
EXTRACT: note_on channel=2 note=63 velocity=75 time=0
EXTRACT: note_on channel=2 note=58 velocity=75 time=0
EXTRACT: note_on channel=2 note=67 velocity=75 time=0
EXTRACT: note_on channel=6 note=67 velocity=75 time=0
EXTRACT: note_on channel=6 note=63 velocity=75 time=0
EXTRACT: note_on channel=6 note=58 velocity=75 time=0
EXTRACT: note_on channel=9 note=54 velocity=0 time=0.16666666666666666
EXTRACT: note_on channel=9 note=54 velocity=71 time=0.16666666666666666
EXTRACT: note_on channel=9 note=54 velocity=0 time=0.1
EXTRACT: note_on channel=9 note=54 velocity=64 time=0.06666666666666667
EXTRACT: note_on channel=9 note=42 velocity=71 time=0
EXTRACT: note_on channel=9 note=44 velocity=64 time=0
EXTRACT: note_on channel=9 note=42 velocity=0 time=0.1
EXTRACT: note_on channel=9 note=54 velocity=0 time=0.016666666666666666
EXTRACT: note_on channel=9 note=44 velocity=0 time=0
EXTRACT: note_on channel=2 note=63 velocity=0 time=0.13333333333333333
EXTRACT: note_on channel=6 note=63 velocity=0 time=0
EXTRACT: note_on channel=7 note=63 velocity=64 time=0
EXTRACT: note_on channel=2 note=58 velocity=0 time=0.016666666666666666
EXTRACT: note_on channel=2 note=67 velocity=0 time=0
EXTRACT: note_on channel=6 note=58 velocity=0 time=0
EXTRACT: note_on channel=6 note=67 velocity=0 time=0
EXTRACT: note_on channel=9 note=54 velocity=71 time=0.06666666666666667
EXTRACT: note_on channel=9 note=44 velocity=71 time=0
EXTRACT: note_on channel=2 note=58 velocity=75 time=0
EXTRACT: note_on channel=2 note=66 velocity=75 time=0
EXTRACT: note_on channel=2 note=61 velocity=75 time=0
EXTRACT: note_on channel=6 note=58 velocity=75 time=0
EXTRACT: note_on channel=6 note=61 velocity=75 time=0
EXTRACT: note_on channel=6 note=66 velocity=75 time=0
EXTRACT: note_on channel=9 note=54 velocity=0 time=0.1
EXTRACT: note_on channel=9 note=44 velocity=0 time=0
EXTRACT: note_on channel=9 note=54 velocity=91 time=0.06666666666666667
EXTRACT: note_on channel=9 note=54 velocity=0 time=0.16666666666666666
EXTRACT: note_on channel=9 note=54 velocity=71 time=0.16666666666666666
EXTRACT: note_on channel=9 note=54 velocity=0 time=0.1
EXTRACT: note_on channel=9 note=44 velocity=64 time=0.06666666666666667
EXTRACT: note_on channel=9 note=54 velocity=64 time=0
EXTRACT: note_on channel=9 note=42 velocity=71 time=0
EXTRACT: note_on channel=9 note=42 velocity=0 time=0.1
EXTRACT: note_on channel=9 note=54 velocity=0 time=0.016666666666666666
EXTRACT: note_on channel=9 note=44 velocity=0 time=0
EXTRACT: note_on channel=9 note=54 velocity=64 time=0.21666666666666667
EXTRACT: note_on channel=9 note=42 velocity=71 time=0
EXTRACT: control_change channel=7 control=7 value=95 time=0
EXTRACT: control_change channel=7 control=7 value=89 time=0.03333333333333333
EXTRACT: note_on channel=7 note=63 velocity=0 time=0.016666666666666666
EXTRACT: note_on channel=2 note=61 velocity=0 time=0.016666666666666666
EXTRACT: note_on channel=2 note=66 velocity=0 time=0
EXTRACT: note_on channel=6 note=66 velocity=0 time=0
EXTRACT: note_on channel=6 note=61 velocity=0 time=0
EXTRACT: note_on channel=2 note=58 velocity=0 time=0.016666666666666666
EXTRACT: note_on channel=6 note=58 velocity=0 time=0
EXTRACT: note_on channel=9 note=42 velocity=0 time=0.016666666666666666
EXTRACT: note_on channel=9 note=54 velocity=0 time=0
EXTRACT: control_change channel=7 control=7 value=82 time=0
EXTRACT: note_on channel=9 note=45 velocity=114 time=0.06666666666666667
EXTRACT: note_on channel=9 note=55 velocity=114 time=0
EXTRACT: note_on channel=9 note=54 velocity=91 time=0
EXTRACT: note_on channel=2 note=65 velocity=75 time=0
EXTRACT: note_on channel=2 note=70 velocity=75 time=0
EXTRACT: note_on channel=2 note=61 velocity=75 time=0
EXTRACT: note_on channel=3 note=58 velocity=114 time=0
EXTRACT: note_on channel=6 note=70 velocity=75 time=0
EXTRACT: note_on channel=6 note=61 velocity=75 time=0
EXTRACT: note_on channel=6 note=65 velocity=75 time=0
EXTRACT: control_change channel=7 control=7 value=0 time=0
EXTRACT: note_on channel=9 note=45 velocity=0 time=0.13333333333333333
EXTRACT: note_on channel=9 note=54 velocity=0 time=0.03333333333333333
EXTRACT: note_on channel=9 note=54 velocity=71 time=0.16666666666666666
EXTRACT: note_on channel=9 note=54 velocity=0 time=0.1
EXTRACT: note_on channel=9 note=45 velocity=97 time=0.06666666666666667
EXTRACT: note_on channel=9 note=42 velocity=64 time=0
EXTRACT: note_on channel=9 note=44 velocity=64 time=0
EXTRACT: note_on channel=9 note=54 velocity=64 time=0
EXTRACT: note_on channel=9 note=54 velocity=0 time=0.11666666666666667
EXTRACT: note_on channel=9 note=42 velocity=0 time=0
EXTRACT: note_on channel=9 note=44 velocity=0 time=0
EXTRACT: note_on channel=9 note=45 velocity=0 time=0.016666666666666666
EXTRACT: note_on channel=2 note=65 velocity=0 time=0.1
EXTRACT: note_on channel=6 note=65 velocity=0 time=0
EXTRACT: note_on channel=2 note=61 velocity=0 time=0.016666666666666666
EXTRACT: note_on channel=6 note=61 velocity=0 time=0
EXTRACT: note_on channel=2 note=70 velocity=0 time=0.016666666666666666
EXTRACT: note_on channel=6 note=70 velocity=0 time=0
EXTRACT: note_on channel=9 note=44 velocity=71 time=0.06666666666666667
EXTRACT: note_on channel=9 note=54 velocity=71 time=0
EXTRACT: note_on channel=2 note=68 velocity=75 time=0
EXTRACT: note_on channel=2 note=65 velocity=75 time=0
EXTRACT: note_on channel=2 note=61 velocity=75 time=0
EXTRACT: note_on channel=6 note=68 velocity=75 time=0
EXTRACT: note_on channel=6 note=65 velocity=75 time=0
EXTRACT: note_on channel=6 note=61 velocity=75 time=0
EXTRACT: note_on channel=9 note=44 velocity=0 time=0.1
EXTRACT: note_on channel=9 note=54 velocity=0 time=0
EXTRACT: note_on channel=9 note=54 velocity=91 time=0.06666666666666667
EXTRACT: note_on channel=9 note=45 velocity=75 time=0
EXTRACT: control_change channel=7 control=7 value=99 time=0
EXTRACT: note_on channel=9 note=45 velocity=0 time=0.13333333333333333
EXTRACT: note_on channel=9 note=54 velocity=0 time=0.03333333333333333
EXTRACT: note_on channel=9 note=54 velocity=71 time=0.16666666666666666
EXTRACT: note_on channel=9 note=54 velocity=0 time=0.1
EXTRACT: note_on channel=9 note=55 velocity=0 time=0.05
EXTRACT: note_on channel=9 note=44 velocity=64 time=0.016666666666666666
EXTRACT: note_on channel=9 note=42 velocity=64 time=0
EXTRACT: note_on channel=9 note=54 velocity=64 time=0
EXTRACT: note_on channel=9 note=45 velocity=61 time=0
EXTRACT: note_on channel=9 note=42 velocity=0 time=0.11666666666666667
EXTRACT: note_on channel=9 note=54 velocity=0 time=0
EXTRACT: note_on channel=9 note=44 velocity=0 time=0
EXTRACT: note_on channel=9 note=45 velocity=0 time=0.016666666666666666
EXTRACT: note_on channel=9 note=54 velocity=71 time=0.2
EXTRACT: note_on channel=9 note=44 velocity=64 time=0
EXTRACT: note_on channel=2 note=61 velocity=0 time=0.05
EXTRACT: note_on channel=6 note=61 velocity=0 time=0
EXTRACT: note_on channel=9 note=54 velocity=0 time=0.05
EXTRACT: note_on channel=2 note=65 velocity=0 time=0
EXTRACT: note_on channel=6 note=65 velocity=0 time=0
EXTRACT: note_on channel=9 note=44 velocity=0 time=0.016666666666666666
EXTRACT: note_on channel=2 note=68 velocity=0 time=0
EXTRACT: note_on channel=3 note=58 velocity=0 time=0
EXTRACT: note_on channel=6 note=68 velocity=0 time=0
EXTRACT: note_on channel=9 note=54 velocity=91 time=0.05
EXTRACT: note_on channel=9 note=45 velocity=41 time=0
EXTRACT: note_on channel=2 note=58 velocity=75 time=0
EXTRACT: note_on channel=2 note=63 velocity=75 time=0
EXTRACT: note_on channel=2 note=67 velocity=75 time=0
EXTRACT: note_on channel=3 note=61 velocity=114 time=0
EXTRACT: note_on channel=3 note=58 velocity=64 time=0
EXTRACT: note_on channel=6 note=63 velocity=75 time=0
EXTRACT: note_on channel=6 note=58 velocity=75 time=0
EXTRACT: note_on channel=6 note=67 velocity=75 time=0
EXTRACT: note_on channel=9 note=45 velocity=0 time=0.13333333333333333
EXTRACT: note_on channel=9 note=54 velocity=0 time=0.03333333333333333
EXTRACT: note_on channel=9 note=54 velocity=71 time=0.16666666666666666
EXTRACT: note_on channel=9 note=54 velocity=0 time=0.1
EXTRACT: note_on channel=9 note=54 velocity=64 time=0.06666666666666667
EXTRACT: note_on channel=9 note=42 velocity=71 time=0
EXTRACT: note_on channel=9 note=44 velocity=64 time=0
EXTRACT: note_on channel=9 note=42 velocity=0 time=0.1
EXTRACT: note_on channel=9 note=44 velocity=0 time=0.016666666666666666
EXTRACT: note_on channel=9 note=54 velocity=0 time=0
EXTRACT: note_on channel=2 note=63 velocity=0 time=0.13333333333333333
EXTRACT: note_on channel=6 note=63 velocity=0 time=0
EXTRACT: note_on channel=2 note=58 velocity=0 time=0.016666666666666666
EXTRACT: note_on channel=2 note=67 velocity=0 time=0
EXTRACT: note_on channel=6 note=67 velocity=0 time=0
EXTRACT: note_on channel=6 note=58 velocity=0 time=0
EXTRACT: note_on channel=9 note=44 velocity=71 time=0.06666666666666667
EXTRACT: note_on channel=9 note=54 velocity=71 time=0
EXTRACT: note_on channel=2 note=61 velocity=75 time=0
EXTRACT: note_on channel=2 note=66 velocity=75 time=0
EXTRACT: note_on channel=2 note=58 velocity=75 time=0
EXTRACT: note_on channel=6 note=61 velocity=75 time=0
EXTRACT: note_on channel=6 note=66 velocity=75 time=0
EXTRACT: note_on channel=6 note=58 velocity=75 time=0
EXTRACT: note_on channel=9 note=44 velocity=0 time=0.1
EXTRACT: note_on channel=9 note=54 velocity=0 time=0
EXTRACT: note_on channel=9 note=54 velocity=91 time=0.06666666666666667
EXTRACT: note_on channel=9 note=54 velocity=0 time=0.16666666666666666
EXTRACT: note_on channel=9 note=54 velocity=71 time=0.16666666666666666
EXTRACT: note_on channel=9 note=54 velocity=0 time=0.1
EXTRACT: note_on channel=9 note=44 velocity=64 time=0.06666666666666667
EXTRACT: note_on channel=9 note=42 velocity=71 time=0
EXTRACT: note_on channel=9 note=54 velocity=64 time=0
EXTRACT: note_on channel=9 note=42 velocity=0 time=0.1
EXTRACT: note_on channel=9 note=44 velocity=0 time=0.016666666666666666
EXTRACT: note_on channel=9 note=54 velocity=0 time=0
EXTRACT: note_on channel=9 note=42 velocity=71 time=0.21666666666666667
EXTRACT: note_on channel=9 note=54 velocity=64 time=0
EXTRACT: note_on channel=2 note=66 velocity=0 time=0.06666666666666667
EXTRACT: note_on channel=2 note=61 velocity=0 time=0
EXTRACT: note_on channel=3 note=61 velocity=0 time=0
EXTRACT: note_on channel=6 note=66 velocity=0 time=0
EXTRACT: note_on channel=6 note=61 velocity=0 time=0
EXTRACT: note_on channel=2 note=58 velocity=0 time=0.016666666666666666
EXTRACT: note_on channel=6 note=58 velocity=0 time=0
EXTRACT: note_on channel=9 note=54 velocity=0 time=0.016666666666666666
EXTRACT: note_on channel=9 note=42 velocity=0 time=0
EXTRACT: note_on channel=3 note=58 velocity=0 time=0.03333333333333333
EXTRACT: note_on channel=9 note=54 velocity=91 time=0.03333333333333333
EXTRACT: note_on channel=2 note=70 velocity=75 time=0
EXTRACT: note_on channel=2 note=61 velocity=75 time=0
EXTRACT: note_on channel=2 note=65 velocity=75 time=0
EXTRACT: note_on channel=3 note=65 velocity=114 time=0
EXTRACT: note_on channel=3 note=58 velocity=64 time=0
EXTRACT: note_on channel=3 note=53 velocity=64 time=0
EXTRACT: note_on channel=6 note=61 velocity=75 time=0
EXTRACT: note_on channel=6 note=65 velocity=75 time=0
EXTRACT: note_on channel=6 note=70 velocity=75 time=0
EXTRACT: note_on channel=9 note=54 velocity=0 time=0.16666666666666666
EXTRACT: note_on channel=9 note=54 velocity=71 time=0.16666666666666666
EXTRACT: note_on channel=9 note=54 velocity=0 time=0.1
EXTRACT: note_on channel=9 note=44 velocity=64 time=0.06666666666666667
EXTRACT: note_on channel=9 note=42 velocity=71 time=0
EXTRACT: note_on channel=9 note=54 velocity=64 time=0
EXTRACT: note_on channel=9 note=42 velocity=0 time=0.1
EXTRACT: note_on channel=9 note=44 velocity=0 time=0.016666666666666666
EXTRACT: note_on channel=9 note=54 velocity=0 time=0
EXTRACT: note_on channel=2 note=65 velocity=0 time=0.11666666666666667
EXTRACT: note_on channel=6 note=65 velocity=0 time=0
EXTRACT: note_on channel=2 note=61 velocity=0 time=0.016666666666666666
EXTRACT: note_on channel=6 note=61 velocity=0 time=0
EXTRACT: note_on channel=2 note=70 velocity=0 time=0.016666666666666666
EXTRACT: note_on channel=6 note=70 velocity=0 time=0
EXTRACT: note_on channel=9 note=54 velocity=71 time=0.06666666666666667
EXTRACT: note_on channel=9 note=44 velocity=71 time=0
EXTRACT: note_on channel=2 note=68 velocity=75 time=0
EXTRACT: note_on channel=2 note=61 velocity=75 time=0
EXTRACT: note_on channel=2 note=65 velocity=75 time=0
EXTRACT: note_on channel=6 note=61 velocity=75 time=0
EXTRACT: note_on channel=6 note=65 velocity=75 time=0
EXTRACT: note_on channel=6 note=68 velocity=75 time=0
EXTRACT: note_on channel=9 note=54 velocity=0 time=0.1
EXTRACT: note_on channel=9 note=44 velocity=0 time=0
EXTRACT: note_on channel=9 note=54 velocity=91 time=0.06666666666666667
EXTRACT: note_on channel=9 note=54 velocity=0 time=0.16666666666666666
EXTRACT: note_on channel=9 note=54 velocity=71 time=0.16666666666666666
EXTRACT: note_on channel=9 note=54 velocity=0 time=0.1
EXTRACT: note_on channel=9 note=54 velocity=64 time=0.06666666666666667
EXTRACT: note_on channel=9 note=42 velocity=71 time=0
EXTRACT: note_on channel=9 note=44 velocity=64 time=0
EXTRACT: note_on channel=9 note=42 velocity=0 time=0.1
EXTRACT: note_on channel=9 note=44 velocity=0 time=0.016666666666666666
EXTRACT: note_on channel=9 note=54 velocity=0 time=0
EXTRACT: note_on channel=9 note=54 velocity=71 time=0.21666666666666667
EXTRACT: note_on channel=9 note=44 velocity=71 time=0
EXTRACT: note_on channel=2 note=61 velocity=0 time=0.05
EXTRACT: note_on channel=6 note=61 velocity=0 time=0
EXTRACT: note_on channel=9 note=44 velocity=0 time=0.05
EXTRACT: note_on channel=9 note=54 velocity=0 time=0
EXTRACT: note_on channel=2 note=65 velocity=0 time=0
EXTRACT: note_on channel=6 note=65 velocity=0 time=0
EXTRACT: note_on channel=2 note=68 velocity=0 time=0.016666666666666666
EXTRACT: note_on channel=6 note=68 velocity=0 time=0
EXTRACT: note_on channel=9 note=54 velocity=91 time=0.05
EXTRACT: note_on channel=2 note=58 velocity=75 time=0
EXTRACT: note_on channel=2 note=63 velocity=75 time=0
EXTRACT: note_on channel=2 note=67 velocity=75 time=0
EXTRACT: note_on channel=6 note=67 velocity=75 time=0
EXTRACT: note_on channel=6 note=63 velocity=75 time=0
EXTRACT: note_on channel=6 note=58 velocity=75 time=0
EXTRACT: note_on channel=8 note=70 velocity=114 time=0
EXTRACT: note_on channel=9 note=54 velocity=0 time=0.16666666666666666
EXTRACT: note_on channel=8 note=70 velocity=0 time=0.05
EXTRACT: note_on channel=9 note=54 velocity=71 time=0.11666666666666667
EXTRACT: note_on channel=9 note=54 velocity=0 time=0.1
EXTRACT: note_on channel=9 note=54 velocity=64 time=0.06666666666666667
EXTRACT: note_on channel=9 note=44 velocity=64 time=0
EXTRACT: note_on channel=9 note=42 velocity=71 time=0
EXTRACT: note_on channel=8 note=70 velocity=91 time=0
EXTRACT: note_on channel=9 note=42 velocity=0 time=0.1
EXTRACT: note_on channel=9 note=54 velocity=0 time=0.016666666666666666
EXTRACT: note_on channel=9 note=44 velocity=0 time=0
EXTRACT: note_on channel=8 note=70 velocity=0 time=0.1
EXTRACT: note_on channel=2 note=63 velocity=0 time=0.03333333333333333
EXTRACT: note_on channel=6 note=63 velocity=0 time=0
EXTRACT: note_on channel=2 note=58 velocity=0 time=0.016666666666666666
EXTRACT: note_on channel=2 note=67 velocity=0 time=0
EXTRACT: note_on channel=6 note=58 velocity=0 time=0
EXTRACT: note_on channel=6 note=67 velocity=0 time=0
EXTRACT: note_on channel=9 note=44 velocity=71 time=0.06666666666666667
EXTRACT: note_on channel=9 note=54 velocity=71 time=0
EXTRACT: note_on channel=2 note=61 velocity=75 time=0
EXTRACT: note_on channel=2 note=58 velocity=75 time=0
EXTRACT: note_on channel=2 note=66 velocity=75 time=0
EXTRACT: note_on channel=6 note=61 velocity=75 time=0
EXTRACT: note_on channel=6 note=58 velocity=75 time=0
EXTRACT: note_on channel=6 note=66 velocity=75 time=0
EXTRACT: note_on channel=9 note=44 velocity=0 time=0.1
EXTRACT: note_on channel=9 note=54 velocity=0 time=0
EXTRACT: note_on channel=9 note=54 velocity=91 time=0.06666666666666667
EXTRACT: note_on channel=8 note=70 velocity=74 time=0
EXTRACT: note_on channel=9 note=54 velocity=0 time=0.16666666666666666
EXTRACT: note_on channel=8 note=70 velocity=0 time=0.05
EXTRACT: note_on channel=9 note=54 velocity=71 time=0.11666666666666667
EXTRACT: note_on channel=9 note=54 velocity=0 time=0.1
EXTRACT: note_on channel=9 note=54 velocity=64 time=0.06666666666666667
EXTRACT: note_on channel=9 note=44 velocity=64 time=0
EXTRACT: note_on channel=9 note=42 velocity=71 time=0
EXTRACT: note_on channel=8 note=70 velocity=55 time=0
EXTRACT: note_on channel=9 note=42 velocity=0 time=0.1
EXTRACT: note_on channel=9 note=54 velocity=0 time=0.016666666666666666
EXTRACT: note_on channel=9 note=44 velocity=0 time=0
EXTRACT: note_on channel=8 note=70 velocity=0 time=0.1
EXTRACT: note_on channel=9 note=42 velocity=71 time=0.11666666666666667
EXTRACT: note_on channel=9 note=54 velocity=64 time=0
EXTRACT: note_on channel=1 note=30 velocity=114 time=0
EXTRACT: note_on channel=2 note=61 velocity=0 time=0.06666666666666667
EXTRACT: note_on channel=2 note=66 velocity=0 time=0
EXTRACT: note_on channel=6 note=66 velocity=0 time=0
EXTRACT: note_on channel=6 note=61 velocity=0 time=0
EXTRACT: note_on channel=2 note=58 velocity=0 time=0.016666666666666666
EXTRACT: note_on channel=6 note=58 velocity=0 time=0
EXTRACT: note_on channel=9 note=54 velocity=0 time=0.016666666666666666
EXTRACT: note_on channel=9 note=42 velocity=0 time=0
EXTRACT: note_on channel=3 note=65 velocity=0 time=0
EXTRACT: note_on channel=1 note=30 velocity=0 time=0.03333333333333333
EXTRACT: note_on channel=3 note=53 velocity=0 time=0
EXTRACT: note_on channel=3 note=58 velocity=0 time=0
EXTRACT: note_on channel=9 note=36 velocity=114 time=0.03333333333333333
EXTRACT: note_on channel=9 note=54 velocity=91 time=0
EXTRACT: note_on channel=9 note=55 velocity=91 time=0
EXTRACT: note_on channel=1 note=34 velocity=114 time=0
EXTRACT: note_on channel=2 note=70 velocity=75 time=0
EXTRACT: note_on channel=2 note=61 velocity=75 time=0
EXTRACT: note_on channel=2 note=65 velocity=75 time=0
EXTRACT: note_on channel=3 note=65 velocity=75 time=0
EXTRACT: note_on channel=3 note=73 velocity=75 time=0
EXTRACT: note_on channel=4 note=46 velocity=114 time=0
EXTRACT: note_on channel=6 note=65 velocity=75 time=0
EXTRACT: note_on channel=6 note=61 velocity=75 time=0
EXTRACT: note_on channel=6 note=70 velocity=75 time=0
EXTRACT: note_on channel=9 note=36 velocity=0 time=0.08333333333333333
EXTRACT: note_on channel=9 note=54 velocity=0 time=0.08333333333333333
EXTRACT: note_on channel=4 note=46 velocity=0 time=0.06666666666666667
EXTRACT: note_on channel=9 note=54 velocity=71 time=0.1
EXTRACT: note_on channel=4 note=53 velocity=114 time=0
EXTRACT: note_on channel=1 note=34 velocity=0 time=0.08333333333333333
EXTRACT: note_on channel=9 note=54 velocity=0 time=0.016666666666666666
EXTRACT: note_on channel=3 note=65 velocity=0 time=0.05
EXTRACT: note_on channel=3 note=73 velocity=0 time=0
EXTRACT: note_on channel=9 note=38 velocity=71 time=0.016666666666666666
EXTRACT: note_on channel=9 note=42 velocity=71 time=0
EXTRACT: note_on channel=9 note=44 velocity=64 time=0
EXTRACT: note_on channel=9 note=54 velocity=64 time=0
EXTRACT: note_on channel=9 note=40 velocity=71 time=0
EXTRACT: note_on channel=9 note=36 velocity=71 time=0
EXTRACT: note_on channel=4 note=58 velocity=114 time=0
EXTRACT: note_on channel=4 note=53 velocity=0 time=0
EXTRACT: note_on channel=9 note=38 velocity=0 time=0.1
EXTRACT: note_on channel=9 note=40 velocity=0 time=0
EXTRACT: note_on channel=9 note=36 velocity=0 time=0
EXTRACT: note_on channel=9 note=42 velocity=0 time=0
EXTRACT: note_on channel=9 note=44 velocity=0 time=0.016666666666666666
EXTRACT: note_on channel=9 note=54 velocity=0 time=0
EXTRACT: note_on channel=4 note=58 velocity=0 time=0.1
EXTRACT: note_on channel=2 note=65 velocity=0 time=0.016666666666666666
EXTRACT: note_on channel=6 note=65 velocity=0 time=0
EXTRACT: note_on channel=2 note=61 velocity=0 time=0.016666666666666666
EXTRACT: note_on channel=6 note=61 velocity=0 time=0
EXTRACT: note_on channel=2 note=70 velocity=0 time=0.016666666666666666
EXTRACT: note_on channel=6 note=70 velocity=0 time=0
EXTRACT: note_on channel=9 note=44 velocity=71 time=0.06666666666666667
EXTRACT: note_on channel=9 note=54 velocity=71 time=0
EXTRACT: note_on channel=1 note=37 velocity=114 time=0
EXTRACT: note_on channel=2 note=68 velocity=75 time=0
EXTRACT: note_on channel=2 note=61 velocity=75 time=0
EXTRACT: note_on channel=2 note=65 velocity=75 time=0
EXTRACT: note_on channel=4 note=49 velocity=114 time=0
EXTRACT: note_on channel=5 note=61 velocity=90 time=0
EXTRACT: note_on channel=6 note=65 velocity=75 time=0
EXTRACT: note_on channel=6 note=61 velocity=75 time=0
EXTRACT: note_on channel=6 note=68 velocity=75 time=0
EXTRACT: note_on channel=9 note=54 velocity=0 time=0.1
EXTRACT: note_on channel=9 note=44 velocity=0 time=0
EXTRACT: note_on channel=9 note=55 velocity=0 time=0.016666666666666666
EXTRACT: note_on channel=9 note=36 velocity=114 time=0.05
EXTRACT: note_on channel=9 note=54 velocity=91 time=0
EXTRACT: note_on channel=9 note=36 velocity=0 time=0.08333333333333333
EXTRACT: note_on channel=5 note=61 velocity=0 time=0.03333333333333333
EXTRACT: note_on channel=4 note=49 velocity=0 time=0.016666666666666666
EXTRACT: note_on channel=9 note=54 velocity=0 time=0.03333333333333333
EXTRACT: note_on channel=9 note=54 velocity=71 time=0.16666666666666666
EXTRACT: note_on channel=4 note=56 velocity=114 time=0
EXTRACT: note_on channel=1 note=37 velocity=0 time=0.016666666666666666
EXTRACT: note_on channel=9 note=54 velocity=0 time=0.08333333333333333
EXTRACT: note_on channel=4 note=56 velocity=0 time=0.05
EXTRACT: note_on channel=9 note=40 velocity=71 time=0.016666666666666666
EXTRACT: note_on channel=9 note=54 velocity=64 time=0
EXTRACT: note_on channel=9 note=38 velocity=71 time=0
EXTRACT: note_on channel=9 note=36 velocity=71 time=0
EXTRACT: note_on channel=9 note=42 velocity=71 time=0
EXTRACT: note_on channel=9 note=44 velocity=64 time=0
EXTRACT: note_on channel=4 note=61 velocity=114 time=0
EXTRACT: note_on channel=5 note=58 velocity=91 time=0
EXTRACT: note_on channel=9 note=38 velocity=0 time=0.1
EXTRACT: note_on channel=9 note=42 velocity=0 time=0
EXTRACT: note_on channel=9 note=40 velocity=0 time=0
EXTRACT: note_on channel=9 note=36 velocity=0 time=0
EXTRACT: note_on channel=9 note=54 velocity=0 time=0.016666666666666666
EXTRACT: note_on channel=9 note=44 velocity=0 time=0
EXTRACT: note_on channel=4 note=61 velocity=0 time=0.1
EXTRACT: note_on channel=5 note=58 velocity=0 time=0.06666666666666667
EXTRACT: note_on channel=9 note=44 velocity=71 time=0.05
EXTRACT: note_on channel=9 note=54 velocity=71 time=0
EXTRACT: note_on channel=4 note=49 velocity=114 time=0
EXTRACT: note_on channel=2 note=61 velocity=0 time=0.05
EXTRACT: note_on channel=6 note=61 velocity=0 time=0
EXTRACT: note_on channel=9 note=44 velocity=0 time=0.05
EXTRACT: note_on channel=9 note=54 velocity=0 time=0
EXTRACT: note_on channel=2 note=65 velocity=0 time=0
EXTRACT: note_on channel=6 note=65 velocity=0 time=0
EXTRACT: note_on channel=2 note=68 velocity=0 time=0.016666666666666666
EXTRACT: note_on channel=6 note=68 velocity=0 time=0
EXTRACT: note_on channel=4 note=49 velocity=0 time=0.016666666666666666
EXTRACT: note_on channel=9 note=54 velocity=91 time=0.03333333333333333
EXTRACT: note_on channel=9 note=36 velocity=114 time=0
EXTRACT: note_on channel=1 note=39 velocity=114 time=0
EXTRACT: note_on channel=2 note=58 velocity=75 time=0
EXTRACT: note_on channel=2 note=63 velocity=75 time=0
EXTRACT: note_on channel=2 note=67 velocity=75 time=0
EXTRACT: note_on channel=4 note=51 velocity=114 time=0
EXTRACT: note_on channel=6 note=58 velocity=75 time=0
EXTRACT: note_on channel=6 note=63 velocity=75 time=0
EXTRACT: note_on channel=6 note=67 velocity=75 time=0
EXTRACT: note_on channel=9 note=36 velocity=0 time=0.08333333333333333
EXTRACT: note_on channel=9 note=54 velocity=0 time=0.08333333333333333
EXTRACT: note_on channel=4 note=51 velocity=0 time=0
EXTRACT: note_on channel=9 note=54 velocity=71 time=0.16666666666666666
EXTRACT: note_on channel=4 note=58 velocity=114 time=0
EXTRACT: note_on channel=9 note=54 velocity=0 time=0.1
EXTRACT: note_on channel=1 note=39 velocity=0 time=0.05
EXTRACT: note_on channel=4 note=58 velocity=0 time=0
EXTRACT: note_on channel=9 note=40 velocity=71 time=0.016666666666666666
EXTRACT: note_on channel=9 note=36 velocity=71 time=0
EXTRACT: note_on channel=9 note=44 velocity=64 time=0
EXTRACT: note_on channel=9 note=54 velocity=64 time=0
EXTRACT: note_on channel=9 note=42 velocity=71 time=0
EXTRACT: note_on channel=9 note=38 velocity=71 time=0
EXTRACT: note_on channel=4 note=63 velocity=114 time=0
EXTRACT: note_on channel=9 note=40 velocity=0 time=0.1
EXTRACT: note_on channel=9 note=38 velocity=0 time=0
EXTRACT: note_on channel=9 note=42 velocity=0 time=0
EXTRACT: note_on channel=9 note=36 velocity=0 time=0
EXTRACT: note_on channel=9 note=44 velocity=0 time=0.016666666666666666
EXTRACT: note_on channel=9 note=54 velocity=0 time=0
EXTRACT: note_on channel=4 note=63 velocity=0 time=0.1
EXTRACT: note_on channel=2 note=63 velocity=0 time=0.03333333333333333
EXTRACT: note_on channel=6 note=63 velocity=0 time=0
EXTRACT: note_on channel=2 note=67 velocity=0 time=0.016666666666666666
EXTRACT: note_on channel=2 note=58 velocity=0 time=0
EXTRACT: note_on channel=6 note=58 velocity=0 time=0
EXTRACT: note_on channel=6 note=67 velocity=0 time=0
EXTRACT: note_on channel=9 note=44 velocity=71 time=0.06666666666666667
EXTRACT: note_on channel=9 note=54 velocity=71 time=0
EXTRACT: note_on channel=1 note=30 velocity=114 time=0
EXTRACT: note_on channel=2 note=61 velocity=75 time=0
EXTRACT: note_on channel=2 note=58 velocity=75 time=0
EXTRACT: note_on channel=2 note=66 velocity=75 time=0
EXTRACT: note_on channel=4 note=42 velocity=114 time=0
EXTRACT: note_on channel=5 note=65 velocity=90 time=0
EXTRACT: note_on channel=6 note=61 velocity=75 time=0
EXTRACT: note_on channel=6 note=58 velocity=75 time=0
EXTRACT: note_on channel=6 note=66 velocity=75 time=0
EXTRACT: note_on channel=9 note=54 velocity=0 time=0.1
EXTRACT: note_on channel=9 note=44 velocity=0 time=0
EXTRACT: note_on channel=9 note=36 velocity=114 time=0.06666666666666667
EXTRACT: note_on channel=9 note=54 velocity=91 time=0
EXTRACT: note_on channel=9 note=36 velocity=0 time=0.08333333333333333
EXTRACT: note_on channel=5 note=65 velocity=0 time=0.03333333333333333
EXTRACT: note_on channel=4 note=42 velocity=0 time=0.03333333333333333
EXTRACT: note_on channel=9 note=54 velocity=0 time=0.016666666666666666
EXTRACT: note_on channel=1 note=30 velocity=0 time=0.15
EXTRACT: note_on channel=9 note=54 velocity=71 time=0.016666666666666666
EXTRACT: note_on channel=4 note=49 velocity=114 time=0
EXTRACT: note_on channel=9 note=54 velocity=0 time=0.1
EXTRACT: note_on channel=4 note=49 velocity=0 time=0.05
EXTRACT: note_on channel=9 note=36 velocity=71 time=0.016666666666666666
EXTRACT: note_on channel=9 note=42 velocity=71 time=0
EXTRACT: note_on channel=9 note=54 velocity=64 time=0
EXTRACT: note_on channel=9 note=44 velocity=64 time=0
EXTRACT: note_on channel=9 note=40 velocity=71 time=0
EXTRACT: note_on channel=9 note=38 velocity=71 time=0
EXTRACT: note_on channel=4 note=54 velocity=114 time=0
EXTRACT: note_on channel=5 note=61 velocity=90 time=0
EXTRACT: note_on channel=9 note=42 velocity=0 time=0.1
EXTRACT: note_on channel=9 note=40 velocity=0 time=0
EXTRACT: note_on channel=9 note=38 velocity=0 time=0
EXTRACT: note_on channel=9 note=36 velocity=0 time=0
EXTRACT: note_on channel=9 note=54 velocity=0 time=0.016666666666666666
EXTRACT: note_on channel=9 note=44 velocity=0 time=0
EXTRACT: note_on channel=4 note=54 velocity=0 time=0.1
EXTRACT: note_on channel=5 note=61 velocity=0 time=0.06666666666666667
EXTRACT: note_on channel=9 note=54 velocity=64 time=0.05
EXTRACT: note_on channel=9 note=42 velocity=64 time=0
EXTRACT: note_on channel=1 note=30 velocity=114 time=0
EXTRACT: note_on channel=4 note=42 velocity=114 time=0
EXTRACT: note_on channel=2 note=61 velocity=0 time=0.06666666666666667
EXTRACT: note_on channel=2 note=66 velocity=0 time=0
EXTRACT: note_on channel=6 note=66 velocity=0 time=0
EXTRACT: note_on channel=6 note=61 velocity=0 time=0
EXTRACT: note_on channel=2 note=58 velocity=0 time=0.016666666666666666
EXTRACT: note_on channel=6 note=58 velocity=0 time=0
EXTRACT: note_on channel=9 note=54 velocity=0 time=0.016666666666666666
EXTRACT: note_on channel=9 note=42 velocity=0 time=0.016666666666666666
EXTRACT: note_on channel=1 note=30 velocity=0 time=0.016666666666666666
EXTRACT: note_on channel=4 note=42 velocity=0 time=0.016666666666666666
EXTRACT: note_on channel=9 note=54 velocity=91 time=0.016666666666666666
EXTRACT: note_on channel=9 note=36 velocity=114 time=0
EXTRACT: note_on channel=1 note=34 velocity=114 time=0
EXTRACT: note_on channel=2 note=65 velocity=75 time=0
EXTRACT: note_on channel=2 note=61 velocity=75 time=0
EXTRACT: note_on channel=2 note=70 velocity=75 time=0
EXTRACT: note_on channel=4 note=46 velocity=114 time=0
EXTRACT: note_on channel=6 note=61 velocity=75 time=0
EXTRACT: note_on channel=6 note=70 velocity=75 time=0
EXTRACT: note_on channel=6 note=65 velocity=75 time=0
EXTRACT: note_on channel=9 note=36 velocity=0 time=0.08333333333333333
EXTRACT: note_on channel=9 note=54 velocity=0 time=0.08333333333333333
EXTRACT: note_on channel=4 note=46 velocity=0 time=0.06666666666666667
EXTRACT: note_on channel=9 note=54 velocity=71 time=0.1
EXTRACT: note_on channel=4 note=53 velocity=114 time=0
EXTRACT: note_on channel=1 note=34 velocity=0 time=0.08333333333333333
EXTRACT: note_on channel=9 note=54 velocity=0 time=0.016666666666666666
EXTRACT: note_on channel=9 note=36 velocity=71 time=0.06666666666666667
EXTRACT: note_on channel=9 note=42 velocity=71 time=0
EXTRACT: note_on channel=9 note=38 velocity=71 time=0
EXTRACT: note_on channel=9 note=44 velocity=64 time=0
EXTRACT: note_on channel=9 note=54 velocity=64 time=0
EXTRACT: note_on channel=9 note=40 velocity=71 time=0
EXTRACT: note_on channel=4 note=58 velocity=114 time=0
EXTRACT: note_on channel=4 note=53 velocity=0 time=0
EXTRACT: note_on channel=9 note=42 velocity=0 time=0.1
EXTRACT: note_on channel=9 note=40 velocity=0 time=0
EXTRACT: note_on channel=9 note=36 velocity=0 time=0
EXTRACT: note_on channel=9 note=38 velocity=0 time=0
EXTRACT: note_on channel=9 note=44 velocity=0 time=0.016666666666666666
EXTRACT: note_on channel=9 note=54 velocity=0 time=0
EXTRACT: note_on channel=4 note=58 velocity=0 time=0.1
EXTRACT: note_on channel=2 note=65 velocity=0 time=0.016666666666666666
EXTRACT: note_on channel=6 note=65 velocity=0 time=0
EXTRACT: note_on channel=2 note=61 velocity=0 time=0.016666666666666666
EXTRACT: note_on channel=6 note=61 velocity=0 time=0
EXTRACT: note_on channel=2 note=70 velocity=0 time=0.016666666666666666
EXTRACT: note_on channel=6 note=70 velocity=0 time=0
EXTRACT: note_on channel=9 note=44 velocity=71 time=0.06666666666666667
EXTRACT: note_on channel=9 note=54 velocity=71 time=0
EXTRACT: note_on channel=1 note=37 velocity=114 time=0
EXTRACT: note_on channel=2 note=68 velocity=75 time=0
EXTRACT: note_on channel=2 note=65 velocity=75 time=0
EXTRACT: note_on channel=2 note=61 velocity=75 time=0
EXTRACT: note_on channel=4 note=49 velocity=114 time=0
EXTRACT: note_on channel=5 note=61 velocity=90 time=0
EXTRACT: note_on channel=6 note=61 velocity=75 time=0
EXTRACT: note_on channel=6 note=68 velocity=75 time=0
EXTRACT: note_on channel=6 note=65 velocity=75 time=0
EXTRACT: note_on channel=9 note=44 velocity=0 time=0.1
EXTRACT: note_on channel=9 note=54 velocity=0 time=0
EXTRACT: note_on channel=9 note=36 velocity=114 time=0.06666666666666667
EXTRACT: note_on channel=9 note=54 velocity=91 time=0
EXTRACT: note_on channel=9 note=36 velocity=0 time=0.08333333333333333
EXTRACT: note_on channel=5 note=61 velocity=0 time=0.03333333333333333
EXTRACT: note_on channel=4 note=49 velocity=0 time=0.016666666666666666
EXTRACT: note_on channel=9 note=54 velocity=0 time=0.03333333333333333
EXTRACT: note_on channel=9 note=54 velocity=71 time=0.16666666666666666
EXTRACT: note_on channel=4 note=56 velocity=114 time=0
EXTRACT: note_on channel=1 note=37 velocity=0 time=0.016666666666666666
EXTRACT: note_on channel=9 note=54 velocity=0 time=0.08333333333333333
EXTRACT: note_on channel=4 note=56 velocity=0 time=0.05
EXTRACT: note_on channel=9 note=38 velocity=71 time=0.016666666666666666
EXTRACT: note_on channel=9 note=40 velocity=71 time=0
EXTRACT: note_on channel=9 note=42 velocity=71 time=0
EXTRACT: note_on channel=9 note=44 velocity=64 time=0
EXTRACT: note_on channel=9 note=36 velocity=71 time=0
EXTRACT: note_on channel=9 note=54 velocity=64 time=0
EXTRACT: note_on channel=4 note=61 velocity=114 time=0
EXTRACT: note_on channel=5 note=58 velocity=91 time=0
EXTRACT: note_on channel=9 note=40 velocity=0 time=0.1
EXTRACT: note_on channel=9 note=38 velocity=0 time=0
EXTRACT: note_on channel=9 note=36 velocity=0 time=0
EXTRACT: note_on channel=9 note=42 velocity=0 time=0
EXTRACT: note_on channel=9 note=54 velocity=0 time=0.016666666666666666
EXTRACT: note_on channel=9 note=44 velocity=0 time=0
EXTRACT: note_on channel=4 note=61 velocity=0 time=0.1
EXTRACT: note_on channel=5 note=58 velocity=0 time=0.06666666666666667
EXTRACT: note_on channel=9 note=44 velocity=71 time=0.05
EXTRACT: note_on channel=9 note=54 velocity=71 time=0
EXTRACT: note_on channel=4 note=49 velocity=114 time=0
EXTRACT: note_on channel=2 note=61 velocity=0 time=0.05
EXTRACT: note_on channel=6 note=61 velocity=0 time=0
EXTRACT: note_on channel=9 note=54 velocity=0 time=0.05
EXTRACT: note_on channel=9 note=44 velocity=0 time=0
EXTRACT: note_on channel=2 note=65 velocity=0 time=0
EXTRACT: note_on channel=6 note=65 velocity=0 time=0
EXTRACT: note_on channel=2 note=68 velocity=0 time=0.016666666666666666
EXTRACT: note_on channel=6 note=68 velocity=0 time=0
EXTRACT: note_on channel=4 note=49 velocity=0 time=0.016666666666666666
EXTRACT: note_on channel=9 note=36 velocity=114 time=0.03333333333333333
EXTRACT: note_on channel=9 note=54 velocity=91 time=0
EXTRACT: note_on channel=1 note=39 velocity=114 time=0
EXTRACT: note_on channel=2 note=63 velocity=75 time=0
EXTRACT: note_on channel=2 note=67 velocity=75 time=0
EXTRACT: note_on channel=2 note=58 velocity=75 time=0
EXTRACT: note_on channel=4 note=51 velocity=114 time=0
EXTRACT: note_on channel=6 note=63 velocity=75 time=0
EXTRACT: note_on channel=6 note=67 velocity=75 time=0
EXTRACT: note_on channel=6 note=58 velocity=75 time=0
EXTRACT: note_on channel=9 note=36 velocity=0 time=0.08333333333333333
EXTRACT: note_on channel=9 note=54 velocity=0 time=0.08333333333333333
EXTRACT: note_on channel=4 note=51 velocity=0 time=0
EXTRACT: note_on channel=9 note=54 velocity=71 time=0.16666666666666666
EXTRACT: note_on channel=4 note=58 velocity=114 time=0
EXTRACT: note_on channel=9 note=54 velocity=0 time=0.1
EXTRACT: note_on channel=1 note=39 velocity=0 time=0.05
EXTRACT: note_on channel=4 note=58 velocity=0 time=0
EXTRACT: note_on channel=9 note=42 velocity=71 time=0.016666666666666666
EXTRACT: note_on channel=9 note=44 velocity=64 time=0
EXTRACT: note_on channel=9 note=54 velocity=64 time=0
EXTRACT: note_on channel=9 note=36 velocity=71 time=0
EXTRACT: note_on channel=9 note=38 velocity=71 time=0
EXTRACT: note_on channel=9 note=40 velocity=71 time=0
EXTRACT: note_on channel=4 note=63 velocity=114 time=0
EXTRACT: note_on channel=9 note=38 velocity=0 time=0.1
EXTRACT: note_on channel=9 note=42 velocity=0 time=0
EXTRACT: note_on channel=9 note=36 velocity=0 time=0
EXTRACT: note_on channel=9 note=40 velocity=0 time=0
EXTRACT: note_on channel=9 note=54 velocity=0 time=0.016666666666666666
EXTRACT: note_on channel=9 note=44 velocity=0 time=0
EXTRACT: note_on channel=4 note=63 velocity=0 time=0.1
EXTRACT: note_on channel=2 note=63 velocity=0 time=0.03333333333333333
EXTRACT: note_on channel=6 note=63 velocity=0 time=0
EXTRACT: note_on channel=2 note=58 velocity=0 time=0.016666666666666666
EXTRACT: note_on channel=2 note=67 velocity=0 time=0
EXTRACT: note_on channel=6 note=58 velocity=0 time=0
EXTRACT: note_on channel=6 note=67 velocity=0 time=0
EXTRACT: note_on channel=9 note=54 velocity=71 time=0.06666666666666667
EXTRACT: note_on channel=9 note=44 velocity=71 time=0
EXTRACT: note_on channel=1 note=30 velocity=114 time=0
EXTRACT: note_on channel=2 note=58 velocity=75 time=0
EXTRACT: note_on channel=2 note=61 velocity=75 time=0
EXTRACT: note_on channel=2 note=66 velocity=75 time=0
EXTRACT: note_on channel=4 note=42 velocity=114 time=0
EXTRACT: note_on channel=5 note=65 velocity=90 time=0
EXTRACT: note_on channel=6 note=66 velocity=75 time=0
EXTRACT: note_on channel=6 note=58 velocity=75 time=0
EXTRACT: note_on channel=6 note=61 velocity=75 time=0
EXTRACT: note_on channel=9 note=44 velocity=0 time=0.1
EXTRACT: note_on channel=9 note=54 velocity=0 time=0
EXTRACT: note_on channel=9 note=36 velocity=114 time=0.06666666666666667
EXTRACT: note_on channel=9 note=54 velocity=91 time=0
EXTRACT: note_on channel=9 note=36 velocity=0 time=0.08333333333333333
EXTRACT: note_on channel=5 note=65 velocity=0 time=0.03333333333333333
EXTRACT: note_on channel=4 note=42 velocity=0 time=0.03333333333333333
EXTRACT: note_on channel=9 note=54 velocity=0 time=0.016666666666666666
EXTRACT: note_on channel=1 note=30 velocity=0 time=0.15
EXTRACT: note_on channel=9 note=54 velocity=71 time=0.016666666666666666
EXTRACT: note_on channel=4 note=49 velocity=114 time=0
EXTRACT: note_on channel=9 note=54 velocity=0 time=0.1
EXTRACT: note_on channel=4 note=49 velocity=0 time=0.05
EXTRACT: note_on channel=9 note=54 velocity=64 time=0.016666666666666666
EXTRACT: note_on channel=9 note=40 velocity=71 time=0
EXTRACT: note_on channel=9 note=42 velocity=71 time=0
EXTRACT: note_on channel=9 note=36 velocity=71 time=0
EXTRACT: note_on channel=9 note=38 velocity=71 time=0
EXTRACT: note_on channel=9 note=44 velocity=64 time=0
EXTRACT: note_on channel=4 note=54 velocity=114 time=0
EXTRACT: note_on channel=5 note=61 velocity=90 time=0
EXTRACT: note_on channel=9 note=40 velocity=0 time=0.1
EXTRACT: note_on channel=9 note=36 velocity=0 time=0
EXTRACT: note_on channel=9 note=38 velocity=0 time=0
EXTRACT: note_on channel=9 note=42 velocity=0 time=0
EXTRACT: note_on channel=9 note=54 velocity=0 time=0.016666666666666666
EXTRACT: note_on channel=9 note=44 velocity=0 time=0
EXTRACT: note_on channel=4 note=54 velocity=0 time=0.1
EXTRACT: note_on channel=5 note=61 velocity=0 time=0.06666666666666667
EXTRACT: note_on channel=9 note=54 velocity=64 time=0.05
EXTRACT: note_on channel=9 note=42 velocity=71 time=0
EXTRACT: note_on channel=1 note=30 velocity=114 time=0
EXTRACT: note_on channel=4 note=42 velocity=114 time=0
EXTRACT: note_on channel=2 note=66 velocity=0 time=0.06666666666666667
EXTRACT: note_on channel=2 note=61 velocity=0 time=0
EXTRACT: note_on channel=6 note=66 velocity=0 time=0
EXTRACT: note_on channel=6 note=61 velocity=0 time=0
EXTRACT: note_on channel=2 note=58 velocity=0 time=0.016666666666666666
EXTRACT: note_on channel=6 note=58 velocity=0 time=0
EXTRACT: note_on channel=9 note=54 velocity=0 time=0.016666666666666666
EXTRACT: note_on channel=9 note=42 velocity=0 time=0
EXTRACT: note_on channel=1 note=30 velocity=0 time=0.03333333333333333
EXTRACT: note_on channel=4 note=42 velocity=0 time=0.016666666666666666
EXTRACT: note_on channel=9 note=54 velocity=91 time=0.016666666666666666
EXTRACT: note_on channel=9 note=36 velocity=114 time=0
EXTRACT: note_on channel=1 note=34 velocity=114 time=0
EXTRACT: note_on channel=2 note=65 velocity=75 time=0
EXTRACT: note_on channel=2 note=61 velocity=75 time=0
EXTRACT: note_on channel=2 note=70 velocity=75 time=0
EXTRACT: note_on channel=3 note=65 velocity=75 time=0
EXTRACT: note_on channel=3 note=73 velocity=75 time=0
EXTRACT: note_on channel=4 note=46 velocity=114 time=0
EXTRACT: note_on channel=6 note=61 velocity=75 time=0
EXTRACT: note_on channel=6 note=65 velocity=75 time=0
EXTRACT: note_on channel=6 note=70 velocity=75 time=0
EXTRACT: note_on channel=9 note=36 velocity=0 time=0.08333333333333333
EXTRACT: note_on channel=9 note=54 velocity=0 time=0.08333333333333333
EXTRACT: note_on channel=4 note=46 velocity=0 time=0.06666666666666667
EXTRACT: note_on channel=9 note=54 velocity=71 time=0.1
EXTRACT: note_on channel=4 note=53 velocity=114 time=0
EXTRACT: note_on channel=1 note=34 velocity=0 time=0.08333333333333333
EXTRACT: note_on channel=9 note=54 velocity=0 time=0.016666666666666666
EXTRACT: note_on channel=3 note=73 velocity=0 time=0.05
EXTRACT: note_on channel=3 note=65 velocity=0 time=0
EXTRACT: note_on channel=9 note=42 velocity=71 time=0.016666666666666666
EXTRACT: note_on channel=9 note=38 velocity=71 time=0
EXTRACT: note_on channel=9 note=44 velocity=64 time=0
EXTRACT: note_on channel=9 note=36 velocity=71 time=0
EXTRACT: note_on channel=9 note=54 velocity=64 time=0
EXTRACT: note_on channel=9 note=40 velocity=71 time=0
EXTRACT: note_on channel=4 note=53 velocity=0 time=0
EXTRACT: note_on channel=4 note=58 velocity=114 time=0
EXTRACT: note_on channel=9 note=42 velocity=0 time=0.1
EXTRACT: note_on channel=9 note=38 velocity=0 time=0
EXTRACT: note_on channel=9 note=40 velocity=0 time=0
EXTRACT: note_on channel=9 note=36 velocity=0 time=0
EXTRACT: note_on channel=9 note=54 velocity=0 time=0.016666666666666666
EXTRACT: note_on channel=9 note=44 velocity=0 time=0
EXTRACT: note_on channel=4 note=58 velocity=0 time=0.1
EXTRACT: note_on channel=2 note=65 velocity=0 time=0.016666666666666666
EXTRACT: note_on channel=6 note=65 velocity=0 time=0
EXTRACT: note_on channel=2 note=61 velocity=0 time=0.016666666666666666
EXTRACT: note_on channel=6 note=61 velocity=0 time=0
EXTRACT: note_on channel=2 note=70 velocity=0 time=0.016666666666666666
EXTRACT: note_on channel=6 note=70 velocity=0 time=0
EXTRACT: note_on channel=9 note=54 velocity=71 time=0.06666666666666667
EXTRACT: note_on channel=9 note=44 velocity=71 time=0
EXTRACT: note_on channel=1 note=37 velocity=114 time=0
EXTRACT: note_on channel=2 note=68 velocity=75 time=0
EXTRACT: note_on channel=2 note=61 velocity=75 time=0
EXTRACT: note_on channel=2 note=65 velocity=75 time=0
EXTRACT: note_on channel=4 note=49 velocity=114 time=0
EXTRACT: note_on channel=5 note=61 velocity=90 time=0
EXTRACT: note_on channel=6 note=61 velocity=75 time=0
EXTRACT: note_on channel=6 note=68 velocity=75 time=0
EXTRACT: note_on channel=6 note=65 velocity=75 time=0
EXTRACT: note_on channel=9 note=44 velocity=0 time=0.1
EXTRACT: note_on channel=9 note=54 velocity=0 time=0
EXTRACT: note_on channel=9 note=54 velocity=91 time=0.06666666666666667
EXTRACT: note_on channel=9 note=36 velocity=114 time=0
EXTRACT: note_on channel=9 note=36 velocity=0 time=0.08333333333333333
EXTRACT: note_on channel=5 note=61 velocity=0 time=0.03333333333333333
EXTRACT: note_on channel=4 note=49 velocity=0 time=0.016666666666666666
EXTRACT: note_on channel=9 note=54 velocity=0 time=0.03333333333333333
EXTRACT: note_on channel=9 note=54 velocity=71 time=0.16666666666666666
EXTRACT: note_on channel=4 note=56 velocity=114 time=0
EXTRACT: note_on channel=1 note=37 velocity=0 time=0.016666666666666666
EXTRACT: note_on channel=9 note=54 velocity=0 time=0.08333333333333333
EXTRACT: note_on channel=4 note=56 velocity=0 time=0.05
EXTRACT: note_on channel=9 note=40 velocity=71 time=0.016666666666666666
EXTRACT: note_on channel=9 note=42 velocity=71 time=0
EXTRACT: note_on channel=9 note=38 velocity=71 time=0
EXTRACT: note_on channel=9 note=44 velocity=64 time=0
EXTRACT: note_on channel=9 note=36 velocity=71 time=0
EXTRACT: note_on channel=9 note=54 velocity=64 time=0
EXTRACT: note_on channel=4 note=61 velocity=114 time=0
EXTRACT: note_on channel=5 note=58 velocity=91 time=0
EXTRACT: note_on channel=9 note=42 velocity=0 time=0.1
EXTRACT: note_on channel=9 note=36 velocity=0 time=0
EXTRACT: note_on channel=9 note=40 velocity=0 time=0
EXTRACT: note_on channel=9 note=38 velocity=0 time=0
EXTRACT: note_on channel=9 note=44 velocity=0 time=0.016666666666666666
EXTRACT: note_on channel=9 note=54 velocity=0 time=0
EXTRACT: note_on channel=4 note=61 velocity=0 time=0.1
EXTRACT: note_on channel=5 note=58 velocity=0 time=0.06666666666666667
EXTRACT: note_on channel=9 note=54 velocity=71 time=0.05
EXTRACT: note_on channel=9 note=44 velocity=71 time=0
EXTRACT: note_on channel=4 note=49 velocity=114 time=0
EXTRACT: note_on channel=2 note=61 velocity=0 time=0.05
EXTRACT: note_on channel=6 note=61 velocity=0 time=0
EXTRACT: note_on channel=9 note=44 velocity=0 time=0.05
EXTRACT: note_on channel=9 note=54 velocity=0 time=0
EXTRACT: note_on channel=2 note=65 velocity=0 time=0
EXTRACT: note_on channel=6 note=65 velocity=0 time=0
EXTRACT: note_on channel=2 note=68 velocity=0 time=0.016666666666666666
EXTRACT: note_on channel=6 note=68 velocity=0 time=0
EXTRACT: note_on channel=4 note=49 velocity=0 time=0.016666666666666666
EXTRACT: note_on channel=9 note=54 velocity=91 time=0.03333333333333333
EXTRACT: note_on channel=9 note=36 velocity=114 time=0
EXTRACT: note_on channel=1 note=39 velocity=114 time=0
EXTRACT: note_on channel=2 note=63 velocity=75 time=0
EXTRACT: note_on channel=2 note=58 velocity=75 time=0
EXTRACT: note_on channel=2 note=67 velocity=75 time=0
EXTRACT: note_on channel=4 note=51 velocity=114 time=0
EXTRACT: note_on channel=6 note=67 velocity=75 time=0
EXTRACT: note_on channel=6 note=58 velocity=75 time=0
EXTRACT: note_on channel=6 note=63 velocity=75 time=0
EXTRACT: note_on channel=9 note=36 velocity=0 time=0.08333333333333333
EXTRACT: note_on channel=9 note=54 velocity=0 time=0.08333333333333333
EXTRACT: note_on channel=4 note=51 velocity=0 time=0
EXTRACT: note_on channel=9 note=54 velocity=71 time=0.16666666666666666
EXTRACT: note_on channel=4 note=58 velocity=114 time=0
EXTRACT: note_on channel=9 note=54 velocity=0 time=0.1
EXTRACT: note_on channel=1 note=39 velocity=0 time=0.05
EXTRACT: note_on channel=4 note=58 velocity=0 time=0
EXTRACT: note_on channel=9 note=42 velocity=71 time=0.016666666666666666
EXTRACT: note_on channel=9 note=44 velocity=64 time=0
EXTRACT: note_on channel=9 note=36 velocity=71 time=0
EXTRACT: note_on channel=9 note=54 velocity=64 time=0
EXTRACT: note_on channel=9 note=40 velocity=71 time=0
EXTRACT: note_on channel=9 note=38 velocity=71 time=0
EXTRACT: note_on channel=4 note=63 velocity=114 time=0
EXTRACT: note_on channel=9 note=38 velocity=0 time=0.1
EXTRACT: note_on channel=9 note=36 velocity=0 time=0
EXTRACT: note_on channel=9 note=40 velocity=0 time=0
EXTRACT: note_on channel=9 note=42 velocity=0 time=0
EXTRACT: note_on channel=9 note=44 velocity=0 time=0.016666666666666666
EXTRACT: note_on channel=9 note=54 velocity=0 time=0
EXTRACT: note_on channel=4 note=63 velocity=0 time=0.1
EXTRACT: note_on channel=2 note=63 velocity=0 time=0.03333333333333333
EXTRACT: note_on channel=6 note=63 velocity=0 time=0
EXTRACT: note_on channel=2 note=67 velocity=0 time=0.016666666666666666
EXTRACT: note_on channel=2 note=58 velocity=0 time=0
EXTRACT: note_on channel=6 note=58 velocity=0 time=0
EXTRACT: note_on channel=6 note=67 velocity=0 time=0
EXTRACT: note_on channel=9 note=54 velocity=71 time=0.06666666666666667
EXTRACT: note_on channel=9 note=44 velocity=71 time=0
EXTRACT: note_on channel=1 note=30 velocity=114 time=0
EXTRACT: note_on channel=2 note=61 velocity=75 time=0
EXTRACT: note_on channel=2 note=58 velocity=75 time=0
EXTRACT: note_on channel=2 note=66 velocity=75 time=0
EXTRACT: note_on channel=4 note=42 velocity=114 time=0
EXTRACT: note_on channel=5 note=65 velocity=90 time=0
EXTRACT: note_on channel=6 note=66 velocity=75 time=0
EXTRACT: note_on channel=6 note=61 velocity=75 time=0
EXTRACT: note_on channel=6 note=58 velocity=75 time=0
EXTRACT: note_on channel=9 note=44 velocity=0 time=0.1
EXTRACT: note_on channel=9 note=54 velocity=0 time=0
EXTRACT: note_on channel=9 note=54 velocity=91 time=0.06666666666666667
EXTRACT: note_on channel=9 note=36 velocity=114 time=0
EXTRACT: note_on channel=9 note=36 velocity=0 time=0.08333333333333333
EXTRACT: note_on channel=5 note=65 velocity=0 time=0.03333333333333333
EXTRACT: note_on channel=4 note=42 velocity=0 time=0.03333333333333333
EXTRACT: note_on channel=9 note=54 velocity=0 time=0.016666666666666666
EXTRACT: note_on channel=1 note=30 velocity=0 time=0.15
EXTRACT: note_on channel=9 note=54 velocity=71 time=0.016666666666666666
EXTRACT: note_on channel=4 note=49 velocity=114 time=0
EXTRACT: note_on channel=9 note=54 velocity=0 time=0.1
EXTRACT: note_on channel=4 note=49 velocity=0 time=0.05
EXTRACT: note_on channel=9 note=42 velocity=71 time=0.016666666666666666
EXTRACT: note_on channel=9 note=54 velocity=64 time=0
EXTRACT: note_on channel=9 note=44 velocity=64 time=0
EXTRACT: note_on channel=9 note=38 velocity=71 time=0
EXTRACT: note_on channel=9 note=36 velocity=71 time=0
EXTRACT: note_on channel=9 note=40 velocity=71 time=0
EXTRACT: note_on channel=4 note=54 velocity=114 time=0
EXTRACT: note_on channel=5 note=61 velocity=90 time=0
EXTRACT: note_on channel=9 note=38 velocity=0 time=0.1
EXTRACT: note_on channel=9 note=36 velocity=0 time=0
EXTRACT: note_on channel=9 note=40 velocity=0 time=0
EXTRACT: note_on channel=9 note=42 velocity=0 time=0
EXTRACT: note_on channel=9 note=44 velocity=0 time=0.016666666666666666
EXTRACT: note_on channel=9 note=54 velocity=0 time=0
EXTRACT: note_on channel=4 note=54 velocity=0 time=0.1
EXTRACT: note_on channel=5 note=61 velocity=0 time=0.06666666666666667
EXTRACT: note_on channel=9 note=54 velocity=64 time=0.05
EXTRACT: note_on channel=9 note=42 velocity=71 time=0
EXTRACT: note_on channel=1 note=30 velocity=114 time=0
EXTRACT: note_on channel=4 note=42 velocity=114 time=0
EXTRACT: note_on channel=2 note=61 velocity=0 time=0.06666666666666667
EXTRACT: note_on channel=2 note=66 velocity=0 time=0
EXTRACT: note_on channel=6 note=61 velocity=0 time=0
EXTRACT: note_on channel=6 note=66 velocity=0 time=0
EXTRACT: note_on channel=2 note=58 velocity=0 time=0.016666666666666666
EXTRACT: note_on channel=6 note=58 velocity=0 time=0
EXTRACT: note_on channel=9 note=54 velocity=0 time=0.016666666666666666
EXTRACT: note_on channel=9 note=42 velocity=0 time=0
EXTRACT: note_on channel=1 note=30 velocity=0 time=0.03333333333333333
EXTRACT: note_on channel=4 note=42 velocity=0 time=0.016666666666666666
EXTRACT: note_on channel=9 note=54 velocity=91 time=0.016666666666666666
EXTRACT: note_on channel=9 note=36 velocity=114 time=0
EXTRACT: note_on channel=1 note=34 velocity=114 time=0
EXTRACT: note_on channel=2 note=65 velocity=75 time=0
EXTRACT: note_on channel=2 note=70 velocity=75 time=0
EXTRACT: note_on channel=2 note=61 velocity=75 time=0
EXTRACT: note_on channel=4 note=46 velocity=114 time=0
EXTRACT: note_on channel=6 note=70 velocity=75 time=0
EXTRACT: note_on channel=6 note=61 velocity=75 time=0
EXTRACT: note_on channel=6 note=65 velocity=75 time=0
EXTRACT: note_on channel=9 note=36 velocity=0 time=0.08333333333333333
EXTRACT: note_on channel=9 note=54 velocity=0 time=0.08333333333333333
EXTRACT: note_on channel=4 note=46 velocity=0 time=0.06666666666666667
EXTRACT: note_on channel=9 note=54 velocity=71 time=0.1
EXTRACT: note_on channel=4 note=53 velocity=114 time=0
EXTRACT: note_on channel=1 note=34 velocity=0 time=0.08333333333333333
EXTRACT: note_on channel=9 note=54 velocity=0 time=0.016666666666666666
EXTRACT: note_on channel=9 note=44 velocity=64 time=0.06666666666666667
EXTRACT: note_on channel=9 note=36 velocity=71 time=0
EXTRACT: note_on channel=9 note=38 velocity=71 time=0
EXTRACT: note_on channel=9 note=42 velocity=71 time=0
EXTRACT: note_on channel=9 note=40 velocity=71 time=0
EXTRACT: note_on channel=9 note=54 velocity=64 time=0
EXTRACT: note_on channel=4 note=53 velocity=0 time=0
EXTRACT: note_on channel=4 note=58 velocity=114 time=0
EXTRACT: note_on channel=9 note=38 velocity=0 time=0.1
EXTRACT: note_on channel=9 note=40 velocity=0 time=0
EXTRACT: note_on channel=9 note=42 velocity=0 time=0
EXTRACT: note_on channel=9 note=36 velocity=0 time=0
EXTRACT: note_on channel=9 note=54 velocity=0 time=0.016666666666666666
EXTRACT: note_on channel=9 note=44 velocity=0 time=0
EXTRACT: note_on channel=4 note=58 velocity=0 time=0.1
EXTRACT: note_on channel=2 note=65 velocity=0 time=0.016666666666666666
EXTRACT: note_on channel=6 note=65 velocity=0 time=0
EXTRACT: note_on channel=2 note=61 velocity=0 time=0.016666666666666666
EXTRACT: note_on channel=6 note=61 velocity=0 time=0
EXTRACT: note_on channel=2 note=70 velocity=0 time=0.016666666666666666
EXTRACT: note_on channel=6 note=70 velocity=0 time=0
EXTRACT: note_on channel=9 note=44 velocity=71 time=0.06666666666666667
EXTRACT: note_on channel=9 note=54 velocity=71 time=0
EXTRACT: note_on channel=1 note=37 velocity=114 time=0
EXTRACT: note_on channel=2 note=65 velocity=75 time=0
EXTRACT: note_on channel=2 note=61 velocity=75 time=0
EXTRACT: note_on channel=2 note=68 velocity=75 time=0
EXTRACT: note_on channel=4 note=49 velocity=114 time=0
EXTRACT: note_on channel=5 note=61 velocity=90 time=0
EXTRACT: note_on channel=6 note=65 velocity=75 time=0
EXTRACT: note_on channel=6 note=61 velocity=75 time=0
EXTRACT: note_on channel=6 note=68 velocity=75 time=0
EXTRACT: note_on channel=9 note=44 velocity=0 time=0.1
EXTRACT: note_on channel=9 note=54 velocity=0 time=0
EXTRACT: note_on channel=9 note=36 velocity=114 time=0.06666666666666667
EXTRACT: note_on channel=9 note=54 velocity=91 time=0
EXTRACT: note_on channel=9 note=36 velocity=0 time=0.08333333333333333
EXTRACT: note_on channel=5 note=61 velocity=0 time=0.03333333333333333
EXTRACT: note_on channel=4 note=49 velocity=0 time=0.016666666666666666
EXTRACT: note_on channel=9 note=54 velocity=0 time=0.03333333333333333
EXTRACT: note_on channel=9 note=54 velocity=71 time=0.16666666666666666
EXTRACT: note_on channel=4 note=56 velocity=114 time=0
EXTRACT: note_on channel=1 note=37 velocity=0 time=0.016666666666666666
EXTRACT: note_on channel=9 note=54 velocity=0 time=0.08333333333333333
EXTRACT: note_on channel=4 note=56 velocity=0 time=0.05
EXTRACT: note_on channel=9 note=40 velocity=71 time=0.016666666666666666
EXTRACT: note_on channel=9 note=54 velocity=64 time=0
EXTRACT: note_on channel=9 note=36 velocity=71 time=0
EXTRACT: note_on channel=9 note=38 velocity=71 time=0
EXTRACT: note_on channel=9 note=42 velocity=71 time=0
EXTRACT: note_on channel=9 note=44 velocity=64 time=0
EXTRACT: note_on channel=4 note=61 velocity=114 time=0
EXTRACT: note_on channel=5 note=58 velocity=91 time=0
EXTRACT: note_on channel=9 note=42 velocity=0 time=0.1
EXTRACT: note_on channel=9 note=38 velocity=0 time=0
EXTRACT: note_on channel=9 note=40 velocity=0 time=0
EXTRACT: note_on channel=9 note=36 velocity=0 time=0
EXTRACT: note_on channel=9 note=54 velocity=0 time=0.016666666666666666
EXTRACT: note_on channel=9 note=44 velocity=0 time=0
EXTRACT: note_on channel=4 note=61 velocity=0 time=0.1
EXTRACT: note_on channel=5 note=58 velocity=0 time=0.06666666666666667
EXTRACT: note_on channel=9 note=54 velocity=71 time=0.05
EXTRACT: note_on channel=9 note=44 velocity=71 time=0
EXTRACT: note_on channel=4 note=49 velocity=114 time=0
EXTRACT: note_on channel=2 note=61 velocity=0 time=0.05
EXTRACT: note_on channel=6 note=61 velocity=0 time=0
EXTRACT: note_on channel=9 note=54 velocity=0 time=0.05
EXTRACT: note_on channel=9 note=44 velocity=0 time=0
EXTRACT: note_on channel=2 note=65 velocity=0 time=0
EXTRACT: note_on channel=6 note=65 velocity=0 time=0
EXTRACT: note_on channel=2 note=68 velocity=0 time=0.016666666666666666
EXTRACT: note_on channel=6 note=68 velocity=0 time=0
EXTRACT: note_on channel=4 note=49 velocity=0 time=0.016666666666666666
EXTRACT: note_on channel=9 note=36 velocity=114 time=0.03333333333333333
EXTRACT: note_on channel=9 note=54 velocity=91 time=0
EXTRACT: note_on channel=1 note=39 velocity=114 time=0
EXTRACT: note_on channel=2 note=67 velocity=75 time=0
EXTRACT: note_on channel=2 note=58 velocity=75 time=0
EXTRACT: note_on channel=2 note=63 velocity=75 time=0
EXTRACT: note_on channel=4 note=51 velocity=114 time=0
EXTRACT: note_on channel=6 note=58 velocity=75 time=0
EXTRACT: note_on channel=6 note=63 velocity=75 time=0
EXTRACT: note_on channel=6 note=67 velocity=75 time=0
EXTRACT: note_on channel=9 note=36 velocity=0 time=0.08333333333333333
EXTRACT: note_on channel=9 note=54 velocity=0 time=0.08333333333333333
EXTRACT: note_on channel=4 note=51 velocity=0 time=0
EXTRACT: note_on channel=9 note=54 velocity=71 time=0.16666666666666666
EXTRACT: note_on channel=4 note=58 velocity=114 time=0
EXTRACT: note_on channel=9 note=54 velocity=0 time=0.1
EXTRACT: note_on channel=1 note=39 velocity=0 time=0.05
EXTRACT: note_on channel=4 note=58 velocity=0 time=0
EXTRACT: note_on channel=9 note=36 velocity=71 time=0.016666666666666666
EXTRACT: note_on channel=9 note=42 velocity=71 time=0
EXTRACT: note_on channel=9 note=38 velocity=71 time=0
EXTRACT: note_on channel=9 note=54 velocity=64 time=0
EXTRACT: note_on channel=9 note=40 velocity=71 time=0
EXTRACT: note_on channel=9 note=44 velocity=64 time=0
EXTRACT: note_on channel=4 note=63 velocity=114 time=0
EXTRACT: note_on channel=9 note=36 velocity=0 time=0.1
EXTRACT: note_on channel=9 note=42 velocity=0 time=0
EXTRACT: note_on channel=9 note=40 velocity=0 time=0
EXTRACT: note_on channel=9 note=38 velocity=0 time=0
EXTRACT: note_on channel=9 note=54 velocity=0 time=0.016666666666666666
EXTRACT: note_on channel=9 note=44 velocity=0 time=0
EXTRACT: note_on channel=4 note=63 velocity=0 time=0.1
EXTRACT: note_on channel=2 note=63 velocity=0 time=0.03333333333333333
EXTRACT: note_on channel=6 note=63 velocity=0 time=0
EXTRACT: note_on channel=2 note=67 velocity=0 time=0.016666666666666666
EXTRACT: note_on channel=2 note=58 velocity=0 time=0
EXTRACT: note_on channel=6 note=58 velocity=0 time=0
EXTRACT: note_on channel=6 note=67 velocity=0 time=0
EXTRACT: note_on channel=9 note=44 velocity=71 time=0.06666666666666667
EXTRACT: note_on channel=9 note=54 velocity=71 time=0
EXTRACT: note_on channel=1 note=30 velocity=114 time=0
EXTRACT: note_on channel=2 note=58 velocity=75 time=0
EXTRACT: note_on channel=2 note=61 velocity=75 time=0
EXTRACT: note_on channel=2 note=66 velocity=75 time=0
EXTRACT: note_on channel=4 note=42 velocity=114 time=0
EXTRACT: note_on channel=5 note=65 velocity=90 time=0
EXTRACT: note_on channel=6 note=61 velocity=75 time=0
EXTRACT: note_on channel=6 note=58 velocity=75 time=0
EXTRACT: note_on channel=6 note=66 velocity=75 time=0
EXTRACT: note_on channel=8 note=73 velocity=114 time=0
EXTRACT: note_on channel=9 note=44 velocity=0 time=0.1
EXTRACT: note_on channel=9 note=54 velocity=0 time=0
EXTRACT: note_on channel=8 note=73 velocity=0 time=0.008333333333333333
EXTRACT: note_on channel=9 note=36 velocity=114 time=0.058333333333333334
EXTRACT: note_on channel=9 note=54 velocity=91 time=0
EXTRACT: note_on channel=8 note=73 velocity=114 time=0
EXTRACT: note_on channel=9 note=36 velocity=0 time=0.08333333333333333
EXTRACT: note_on channel=5 note=65 velocity=0 time=0.03333333333333333
EXTRACT: note_on channel=4 note=42 velocity=0 time=0.03333333333333333
EXTRACT: note_on channel=9 note=54 velocity=0 time=0.016666666666666666
EXTRACT: note_on channel=8 note=73 velocity=0 time=0.06666666666666667
EXTRACT: note_on channel=1 note=30 velocity=0 time=0.08333333333333333
EXTRACT: note_on channel=9 note=54 velocity=71 time=0.016666666666666666
EXTRACT: note_on channel=4 note=49 velocity=114 time=0
EXTRACT: note_on channel=8 note=75 velocity=114 time=0
EXTRACT: note_on channel=9 note=54 velocity=0 time=0.1
EXTRACT: note_on channel=8 note=75 velocity=0 time=0.016666666666666666
EXTRACT: note_on channel=4 note=49 velocity=0 time=0.03333333333333333
EXTRACT: note_on channel=9 note=54 velocity=64 time=0.016666666666666666
EXTRACT: note_on channel=9 note=42 velocity=71 time=0
EXTRACT: note_on channel=9 note=38 velocity=71 time=0
EXTRACT: note_on channel=9 note=44 velocity=64 time=0
EXTRACT: note_on channel=9 note=36 velocity=71 time=0
EXTRACT: note_on channel=9 note=40 velocity=71 time=0
EXTRACT: note_on channel=4 note=54 velocity=114 time=0
EXTRACT: note_on channel=5 note=61 velocity=90 time=0
EXTRACT: note_on channel=8 note=77 velocity=114 time=0
EXTRACT: note_on channel=9 note=42 velocity=0 time=0.1
EXTRACT: note_on channel=9 note=38 velocity=0 time=0
EXTRACT: note_on channel=9 note=36 velocity=0 time=0
EXTRACT: note_on channel=9 note=40 velocity=0 time=0
EXTRACT: note_on channel=9 note=44 velocity=0 time=0.016666666666666666
EXTRACT: note_on channel=9 note=54 velocity=0 time=0
EXTRACT: note_on channel=4 note=54 velocity=0 time=0.1
EXTRACT: note_on channel=8 note=77 velocity=0 time=0.016666666666666666
EXTRACT: note_on channel=5 note=61 velocity=0 time=0.05
EXTRACT: note_on channel=9 note=54 velocity=64 time=0.05
EXTRACT: note_on channel=9 note=42 velocity=71 time=0
EXTRACT: note_on channel=1 note=30 velocity=114 time=0
EXTRACT: note_on channel=4 note=42 velocity=114 time=0
EXTRACT: note_on channel=8 note=77 velocity=114 time=0
EXTRACT: note_on channel=2 note=61 velocity=0 time=0.06666666666666667
EXTRACT: note_on channel=2 note=66 velocity=0 time=0
EXTRACT: note_on channel=6 note=66 velocity=0 time=0
EXTRACT: note_on channel=6 note=61 velocity=0 time=0
EXTRACT: note_on channel=2 note=58 velocity=0 time=0.016666666666666666
EXTRACT: note_on channel=6 note=58 velocity=0 time=0
EXTRACT: note_on channel=9 note=54 velocity=0 time=0.016666666666666666
EXTRACT: note_on channel=9 note=42 velocity=0 time=0
EXTRACT: note_on channel=1 note=30 velocity=0 time=0.03333333333333333
EXTRACT: note_on channel=4 note=42 velocity=0 time=0.016666666666666666
EXTRACT: note_on channel=9 note=54 velocity=91 time=0.016666666666666666
EXTRACT: note_on channel=9 note=55 velocity=91 time=0
EXTRACT: note_on channel=9 note=36 velocity=114 time=0
EXTRACT: note_on channel=1 note=34 velocity=114 time=0
EXTRACT: note_on channel=2 note=70 velocity=75 time=0
EXTRACT: note_on channel=2 note=61 velocity=75 time=0
EXTRACT: note_on channel=2 note=65 velocity=75 time=0
EXTRACT: note_on channel=3 note=65 velocity=75 time=0
EXTRACT: note_on channel=3 note=73 velocity=75 time=0
EXTRACT: note_on channel=6 note=61 velocity=75 time=0
EXTRACT: note_on channel=6 note=65 velocity=75 time=0
EXTRACT: note_on channel=6 note=70 velocity=75 time=0
EXTRACT: note_on channel=9 note=36 velocity=0 time=0.08333333333333333
EXTRACT: note_on channel=9 note=54 velocity=0 time=0.08333333333333333
EXTRACT: note_on channel=8 note=77 velocity=0 time=0.11666666666666667
EXTRACT: note_on channel=9 note=54 velocity=71 time=0.05
EXTRACT: note_on channel=1 note=34 velocity=0 time=0.08333333333333333
EXTRACT: note_on channel=9 note=54 velocity=0 time=0.016666666666666666
EXTRACT: note_on channel=3 note=65 velocity=0 time=0.05
EXTRACT: note_on channel=3 note=73 velocity=0 time=0
EXTRACT: note_on channel=9 note=38 velocity=71 time=0.016666666666666666
EXTRACT: note_on channel=9 note=44 velocity=64 time=0
EXTRACT: note_on channel=9 note=42 velocity=71 time=0
EXTRACT: note_on channel=9 note=54 velocity=64 time=0
EXTRACT: note_on channel=9 note=36 velocity=71 time=0
EXTRACT: note_on channel=9 note=40 velocity=71 time=0
EXTRACT: note_on channel=9 note=36 velocity=0 time=0.1
EXTRACT: note_on channel=9 note=38 velocity=0 time=0
EXTRACT: note_on channel=9 note=42 velocity=0 time=0
EXTRACT: note_on channel=9 note=40 velocity=0 time=0
EXTRACT: note_on channel=9 note=44 velocity=0 time=0.016666666666666666
EXTRACT: note_on channel=9 note=54 velocity=0 time=0
EXTRACT: note_on channel=2 note=65 velocity=0 time=0.11666666666666667
EXTRACT: note_on channel=6 note=65 velocity=0 time=0
EXTRACT: note_on channel=2 note=61 velocity=0 time=0.016666666666666666
EXTRACT: note_on channel=6 note=61 velocity=0 time=0
EXTRACT: note_on channel=2 note=70 velocity=0 time=0.016666666666666666
EXTRACT: note_on channel=6 note=70 velocity=0 time=0
EXTRACT: note_on channel=9 note=54 velocity=71 time=0.06666666666666667
EXTRACT: note_on channel=9 note=44 velocity=71 time=0
EXTRACT: note_on channel=1 note=37 velocity=114 time=0
EXTRACT: note_on channel=2 note=68 velocity=75 time=0
EXTRACT: note_on channel=2 note=61 velocity=75 time=0
EXTRACT: note_on channel=2 note=65 velocity=75 time=0
EXTRACT: note_on channel=6 note=68 velocity=75 time=0
EXTRACT: note_on channel=6 note=61 velocity=75 time=0
EXTRACT: note_on channel=6 note=65 velocity=75 time=0
EXTRACT: note_on channel=8 note=73 velocity=114 time=0
EXTRACT: note_on channel=9 note=54 velocity=0 time=0.1
EXTRACT: note_on channel=9 note=44 velocity=0 time=0
EXTRACT: note_on channel=8 note=73 velocity=0 time=0.008333333333333333
EXTRACT: note_on channel=9 note=55 velocity=0 time=0.008333333333333333
EXTRACT: note_on channel=9 note=36 velocity=114 time=0.05
EXTRACT: note_on channel=9 note=54 velocity=91 time=0
EXTRACT: note_on channel=8 note=73 velocity=114 time=0
EXTRACT: note_on channel=9 note=36 velocity=0 time=0.08333333333333333
EXTRACT: note_on channel=9 note=54 velocity=0 time=0.08333333333333333
EXTRACT: note_on channel=8 note=73 velocity=0 time=0.08333333333333333
EXTRACT: note_on channel=9 note=54 velocity=71 time=0.08333333333333333
EXTRACT: note_on channel=8 note=73 velocity=114 time=0
EXTRACT: note_on channel=1 note=37 velocity=0 time=0.016666666666666666
EXTRACT: note_on channel=9 note=54 velocity=0 time=0.08333333333333333
EXTRACT: note_on channel=9 note=44 velocity=64 time=0.06666666666666667
EXTRACT: note_on channel=9 note=40 velocity=71 time=0
EXTRACT: note_on channel=9 note=42 velocity=71 time=0
EXTRACT: note_on channel=9 note=54 velocity=64 time=0
EXTRACT: note_on channel=9 note=38 velocity=71 time=0
EXTRACT: note_on channel=9 note=36 velocity=71 time=0
EXTRACT: note_on channel=8 note=75 velocity=114 time=0
EXTRACT: note_on channel=8 note=73 velocity=0 time=0.016666666666666666
EXTRACT: note_on channel=9 note=42 velocity=0 time=0.08333333333333333
EXTRACT: note_on channel=9 note=36 velocity=0 time=0
EXTRACT: note_on channel=9 note=38 velocity=0 time=0
EXTRACT: note_on channel=9 note=40 velocity=0 time=0
EXTRACT: note_on channel=9 note=44 velocity=0 time=0.016666666666666666
EXTRACT: note_on channel=9 note=54 velocity=0 time=0
EXTRACT: note_on channel=8 note=75 velocity=0 time=0.13333333333333333
EXTRACT: note_on channel=9 note=54 velocity=71 time=0.08333333333333333
EXTRACT: note_on channel=9 note=44 velocity=71 time=0
EXTRACT: note_on channel=8 note=77 velocity=114 time=0
EXTRACT: note_on channel=2 note=61 velocity=0 time=0.05
EXTRACT: note_on channel=6 note=61 velocity=0 time=0
EXTRACT: note_on channel=9 note=54 velocity=0 time=0.05
EXTRACT: note_on channel=9 note=44 velocity=0 time=0
EXTRACT: note_on channel=2 note=65 velocity=0 time=0
EXTRACT: note_on channel=6 note=65 velocity=0 time=0
EXTRACT: note_on channel=2 note=68 velocity=0 time=0.016666666666666666
EXTRACT: note_on channel=6 note=68 velocity=0 time=0
EXTRACT: note_on channel=8 note=77 velocity=0 time=0.016666666666666666
EXTRACT: note_on channel=9 note=36 velocity=114 time=0.03333333333333333
EXTRACT: note_on channel=9 note=54 velocity=91 time=0
EXTRACT: note_on channel=1 note=39 velocity=114 time=0
EXTRACT: note_on channel=2 note=67 velocity=75 time=0
EXTRACT: note_on channel=2 note=58 velocity=75 time=0
EXTRACT: note_on channel=2 note=63 velocity=75 time=0
EXTRACT: note_on channel=6 note=58 velocity=75 time=0
EXTRACT: note_on channel=6 note=63 velocity=75 time=0
EXTRACT: note_on channel=6 note=67 velocity=75 time=0
EXTRACT: note_on channel=8 note=75 velocity=114 time=0
EXTRACT: note_on channel=9 note=36 velocity=0 time=0.08333333333333333
EXTRACT: note_on channel=9 note=54 velocity=0 time=0.08333333333333333
EXTRACT: note_on channel=8 note=75 velocity=0 time=0.06666666666666667
EXTRACT: note_on channel=9 note=54 velocity=71 time=0.1
EXTRACT: note_on channel=8 note=75 velocity=114 time=0
EXTRACT: note_on channel=9 note=54 velocity=0 time=0.1
EXTRACT: note_on channel=1 note=39 velocity=0 time=0.05
EXTRACT: note_on channel=8 note=75 velocity=0 time=0
EXTRACT: note_on channel=9 note=38 velocity=71 time=0.016666666666666666
EXTRACT: note_on channel=9 note=44 velocity=64 time=0
EXTRACT: note_on channel=9 note=42 velocity=71 time=0
EXTRACT: note_on channel=9 note=40 velocity=71 time=0
EXTRACT: note_on channel=9 note=36 velocity=71 time=0
EXTRACT: note_on channel=9 note=54 velocity=64 time=0
EXTRACT: note_on channel=8 note=77 velocity=114 time=0
EXTRACT: note_on channel=9 note=42 velocity=0 time=0.1
EXTRACT: note_on channel=9 note=38 velocity=0 time=0
EXTRACT: note_on channel=9 note=40 velocity=0 time=0
EXTRACT: note_on channel=9 note=36 velocity=0 time=0
EXTRACT: note_on channel=9 note=44 velocity=0 time=0.016666666666666666
EXTRACT: note_on channel=9 note=54 velocity=0 time=0
EXTRACT: note_on channel=8 note=77 velocity=0 time=0.08333333333333333
EXTRACT: note_on channel=2 note=63 velocity=0 time=0.05
EXTRACT: note_on channel=6 note=63 velocity=0 time=0
EXTRACT: note_on channel=2 note=58 velocity=0 time=0.016666666666666666
EXTRACT: note_on channel=2 note=67 velocity=0 time=0
EXTRACT: note_on channel=6 note=58 velocity=0 time=0
EXTRACT: note_on channel=6 note=67 velocity=0 time=0
EXTRACT: note_on channel=9 note=44 velocity=71 time=0.06666666666666667
EXTRACT: note_on channel=9 note=54 velocity=71 time=0
EXTRACT: note_on channel=1 note=30 velocity=114 time=0
EXTRACT: note_on channel=2 note=58 velocity=75 time=0
EXTRACT: note_on channel=2 note=61 velocity=75 time=0
EXTRACT: note_on channel=2 note=66 velocity=75 time=0
EXTRACT: note_on channel=6 note=58 velocity=75 time=0
EXTRACT: note_on channel=6 note=61 velocity=75 time=0
EXTRACT: note_on channel=6 note=66 velocity=75 time=0
EXTRACT: note_on channel=8 note=75 velocity=114 time=0
EXTRACT: note_on channel=9 note=44 velocity=0 time=0.1
EXTRACT: note_on channel=9 note=54 velocity=0 time=0
EXTRACT: note_on channel=9 note=54 velocity=91 time=0.06666666666666667
EXTRACT: note_on channel=9 note=36 velocity=114 time=0
EXTRACT: note_on channel=8 note=75 velocity=0 time=0.03333333333333333
EXTRACT: note_on channel=9 note=36 velocity=0 time=0.05
EXTRACT: note_on channel=9 note=54 velocity=0 time=0.08333333333333333
EXTRACT: note_on channel=1 note=30 velocity=0 time=0.15
EXTRACT: note_on channel=9 note=54 velocity=71 time=0.016666666666666666
EXTRACT: note_on channel=8 note=73 velocity=114 time=0
EXTRACT: note_on channel=8 note=73 velocity=0 time=0.08333333333333333
EXTRACT: note_on channel=9 note=54 velocity=0 time=0.016666666666666666
EXTRACT: note_on channel=9 note=42 velocity=71 time=0.06666666666666667
EXTRACT: note_on channel=9 note=54 velocity=64 time=0
EXTRACT: note_on channel=9 note=40 velocity=71 time=0
EXTRACT: note_on channel=9 note=36 velocity=71 time=0
EXTRACT: note_on channel=9 note=38 velocity=71 time=0
EXTRACT: note_on channel=9 note=44 velocity=64 time=0
EXTRACT: note_on channel=8 note=73 velocity=114 time=0
EXTRACT: note_on channel=9 note=42 velocity=0 time=0.1
EXTRACT: note_on channel=9 note=38 velocity=0 time=0
EXTRACT: note_on channel=9 note=40 velocity=0 time=0
EXTRACT: note_on channel=9 note=36 velocity=0 time=0
EXTRACT: note_on channel=9 note=54 velocity=0 time=0.016666666666666666
EXTRACT: note_on channel=9 note=44 velocity=0 time=0
EXTRACT: note_on channel=8 note=73 velocity=0 time=0.11666666666666667
EXTRACT: note_on channel=9 note=54 velocity=64 time=0.1
EXTRACT: note_on channel=9 note=42 velocity=64 time=0
EXTRACT: note_on channel=1 note=30 velocity=114 time=0
EXTRACT: note_on channel=8 note=75 velocity=114 time=0
EXTRACT: note_on channel=2 note=66 velocity=0 time=0.06666666666666667
EXTRACT: note_on channel=2 note=61 velocity=0 time=0
EXTRACT: note_on channel=6 note=61 velocity=0 time=0
EXTRACT: note_on channel=6 note=66 velocity=0 time=0
EXTRACT: note_on channel=2 note=58 velocity=0 time=0.016666666666666666
EXTRACT: note_on channel=6 note=58 velocity=0 time=0
EXTRACT: note_on channel=9 note=54 velocity=0 time=0.016666666666666666
EXTRACT: note_on channel=9 note=42 velocity=0 time=0.016666666666666666
EXTRACT: note_on channel=1 note=30 velocity=0 time=0.016666666666666666
EXTRACT: note_on channel=8 note=75 velocity=0 time=0.016666666666666666
EXTRACT: note_on channel=9 note=36 velocity=114 time=0.016666666666666666
EXTRACT: note_on channel=9 note=54 velocity=91 time=0
EXTRACT: note_on channel=1 note=34 velocity=114 time=0
EXTRACT: note_on channel=2 note=61 velocity=75 time=0
EXTRACT: note_on channel=2 note=65 velocity=75 time=0
EXTRACT: note_on channel=2 note=70 velocity=75 time=0
EXTRACT: note_on channel=6 note=65 velocity=75 time=0
EXTRACT: note_on channel=6 note=70 velocity=75 time=0
EXTRACT: note_on channel=6 note=61 velocity=75 time=0
EXTRACT: note_on channel=8 note=77 velocity=114 time=0
EXTRACT: note_on channel=9 note=36 velocity=0 time=0.08333333333333333
EXTRACT: note_on channel=8 note=77 velocity=0 time=0.06666666666666667
EXTRACT: note_on channel=9 note=54 velocity=0 time=0.016666666666666666
EXTRACT: note_on channel=9 note=54 velocity=71 time=0.16666666666666666
EXTRACT: note_on channel=8 note=73 velocity=114 time=0
EXTRACT: note_on channel=1 note=34 velocity=0 time=0.08333333333333333
EXTRACT: note_on channel=9 note=54 velocity=0 time=0.016666666666666666
EXTRACT: note_on channel=8 note=73 velocity=0 time=0.016666666666666666
EXTRACT: note_on channel=9 note=42 velocity=71 time=0.05
EXTRACT: note_on channel=9 note=40 velocity=71 time=0
EXTRACT: note_on channel=9 note=36 velocity=71 time=0
EXTRACT: note_on channel=9 note=38 velocity=71 time=0
EXTRACT: note_on channel=9 note=44 velocity=64 time=0
EXTRACT: note_on channel=9 note=54 velocity=64 time=0
EXTRACT: note_on channel=8 note=73 velocity=114 time=0
EXTRACT: note_on channel=9 note=40 velocity=0 time=0.1
EXTRACT: note_on channel=9 note=42 velocity=0 time=0
EXTRACT: note_on channel=9 note=36 velocity=0 time=0
EXTRACT: note_on channel=9 note=38 velocity=0 time=0
EXTRACT: note_on channel=9 note=54 velocity=0 time=0.016666666666666666
EXTRACT: note_on channel=9 note=44 velocity=0 time=0
EXTRACT: note_on channel=8 note=73 velocity=0 time=0.06666666666666667
EXTRACT: note_on channel=2 note=65 velocity=0 time=0.05
EXTRACT: note_on channel=6 note=65 velocity=0 time=0
EXTRACT: note_on channel=2 note=61 velocity=0 time=0.016666666666666666
EXTRACT: note_on channel=6 note=61 velocity=0 time=0
EXTRACT: note_on channel=2 note=70 velocity=0 time=0.016666666666666666
EXTRACT: note_on channel=6 note=70 velocity=0 time=0
EXTRACT: note_on channel=9 note=44 velocity=71 time=0.06666666666666667
EXTRACT: note_on channel=9 note=54 velocity=71 time=0
EXTRACT: note_on channel=1 note=37 velocity=114 time=0
EXTRACT: note_on channel=2 note=68 velocity=75 time=0
EXTRACT: note_on channel=2 note=65 velocity=75 time=0
EXTRACT: note_on channel=2 note=61 velocity=75 time=0
EXTRACT: note_on channel=6 note=68 velocity=75 time=0
EXTRACT: note_on channel=6 note=61 velocity=75 time=0
EXTRACT: note_on channel=6 note=65 velocity=75 time=0
EXTRACT: note_on channel=8 note=73 velocity=114 time=0
EXTRACT: note_on channel=9 note=44 velocity=0 time=0.1
EXTRACT: note_on channel=9 note=54 velocity=0 time=0
EXTRACT: note_on channel=8 note=73 velocity=0 time=0.03333333333333333
EXTRACT: note_on channel=9 note=54 velocity=91 time=0.03333333333333333
EXTRACT: note_on channel=9 note=36 velocity=114 time=0
EXTRACT: note_on channel=8 note=73 velocity=114 time=0
EXTRACT: note_on channel=9 note=36 velocity=0 time=0.08333333333333333
EXTRACT: note_on channel=8 note=73 velocity=0 time=0.05
EXTRACT: note_on channel=9 note=54 velocity=0 time=0.03333333333333333
EXTRACT: note_on channel=9 note=54 velocity=71 time=0.16666666666666666
EXTRACT: note_on channel=8 note=73 velocity=114 time=0
EXTRACT: note_on channel=1 note=37 velocity=0 time=0.016666666666666666
EXTRACT: note_on channel=9 note=54 velocity=0 time=0.08333333333333333
EXTRACT: note_on channel=8 note=73 velocity=0 time=0.03333333333333333
EXTRACT: note_on channel=9 note=44 velocity=64 time=0.03333333333333333
EXTRACT: note_on channel=9 note=54 velocity=64 time=0
EXTRACT: note_on channel=9 note=36 velocity=71 time=0
EXTRACT: note_on channel=9 note=38 velocity=71 time=0
EXTRACT: note_on channel=9 note=42 velocity=71 time=0
EXTRACT: note_on channel=9 note=40 velocity=71 time=0
EXTRACT: note_on channel=8 note=73 velocity=114 time=0
EXTRACT: note_on channel=9 note=38 velocity=0 time=0.1
EXTRACT: note_on channel=9 note=42 velocity=0 time=0
EXTRACT: note_on channel=9 note=36 velocity=0 time=0
EXTRACT: note_on channel=9 note=40 velocity=0 time=0
EXTRACT: note_on channel=9 note=54 velocity=0 time=0.016666666666666666
EXTRACT: note_on channel=9 note=44 velocity=0 time=0
EXTRACT: note_on channel=8 note=73 velocity=0 time=0.15
EXTRACT: note_on channel=9 note=44 velocity=71 time=0.06666666666666667
EXTRACT: note_on channel=9 note=54 velocity=71 time=0
EXTRACT: note_on channel=8 note=73 velocity=114 time=0
EXTRACT: note_on channel=2 note=61 velocity=0 time=0.05
EXTRACT: note_on channel=6 note=61 velocity=0 time=0
EXTRACT: note_on channel=9 note=44 velocity=0 time=0.05
EXTRACT: note_on channel=9 note=54 velocity=0 time=0
EXTRACT: note_on channel=2 note=65 velocity=0 time=0
EXTRACT: note_on channel=6 note=65 velocity=0 time=0
EXTRACT: note_on channel=2 note=68 velocity=0 time=0.016666666666666666
EXTRACT: note_on channel=6 note=68 velocity=0 time=0
EXTRACT: note_on channel=8 note=73 velocity=0 time=0.016666666666666666
EXTRACT: note_on channel=9 note=36 velocity=114 time=0.03333333333333333
EXTRACT: note_on channel=9 note=54 velocity=91 time=0
EXTRACT: note_on channel=1 note=39 velocity=114 time=0
EXTRACT: note_on channel=2 note=67 velocity=75 time=0
EXTRACT: note_on channel=2 note=58 velocity=75 time=0
EXTRACT: note_on channel=2 note=63 velocity=75 time=0
EXTRACT: note_on channel=6 note=58 velocity=75 time=0
EXTRACT: note_on channel=6 note=67 velocity=75 time=0
EXTRACT: note_on channel=6 note=63 velocity=75 time=0
EXTRACT: note_on channel=8 note=75 velocity=114 time=0
EXTRACT: note_on channel=9 note=36 velocity=0 time=0.08333333333333333
EXTRACT: note_on channel=8 note=75 velocity=0 time=0.03333333333333333
EXTRACT: note_on channel=9 note=54 velocity=0 time=0.05
EXTRACT: note_on channel=8 note=75 velocity=114 time=0
EXTRACT: note_on channel=8 note=75 velocity=0 time=0.11666666666666667
EXTRACT: note_on channel=9 note=54 velocity=71 time=0.05
EXTRACT: note_on channel=8 note=75 velocity=114 time=0
EXTRACT: note_on channel=9 note=54 velocity=0 time=0.1
EXTRACT: note_on channel=8 note=75 velocity=0 time=0.016666666666666666
EXTRACT: note_on channel=1 note=39 velocity=0 time=0.03333333333333333
EXTRACT: note_on channel=9 note=38 velocity=71 time=0.016666666666666666
EXTRACT: note_on channel=9 note=44 velocity=64 time=0
EXTRACT: note_on channel=9 note=42 velocity=71 time=0
EXTRACT: note_on channel=9 note=40 velocity=71 time=0
EXTRACT: note_on channel=9 note=36 velocity=71 time=0
EXTRACT: note_on channel=9 note=54 velocity=64 time=0
EXTRACT: note_on channel=8 note=77 velocity=114 time=0
EXTRACT: note_on channel=9 note=38 velocity=0 time=0.1
EXTRACT: note_on channel=9 note=36 velocity=0 time=0
EXTRACT: note_on channel=9 note=42 velocity=0 time=0
EXTRACT: note_on channel=9 note=40 velocity=0 time=0
EXTRACT: note_on channel=9 note=54 velocity=0 time=0.016666666666666666
EXTRACT: note_on channel=9 note=44 velocity=0 time=0
EXTRACT: note_on channel=2 note=63 velocity=0 time=0.13333333333333333
EXTRACT: note_on channel=6 note=63 velocity=0 time=0
EXTRACT: note_on channel=8 note=77 velocity=0 time=0
EXTRACT: note_on channel=2 note=58 velocity=0 time=0.016666666666666666
EXTRACT: note_on channel=2 note=67 velocity=0 time=0
EXTRACT: note_on channel=6 note=67 velocity=0 time=0
EXTRACT: note_on channel=6 note=58 velocity=0 time=0
EXTRACT: note_on channel=9 note=54 velocity=71 time=0.06666666666666667
EXTRACT: note_on channel=9 note=44 velocity=71 time=0
EXTRACT: note_on channel=1 note=30 velocity=114 time=0
EXTRACT: note_on channel=2 note=61 velocity=75 time=0
EXTRACT: note_on channel=2 note=66 velocity=75 time=0
EXTRACT: note_on channel=2 note=58 velocity=75 time=0
EXTRACT: note_on channel=6 note=58 velocity=75 time=0
EXTRACT: note_on channel=6 note=61 velocity=75 time=0
EXTRACT: note_on channel=6 note=66 velocity=75 time=0
EXTRACT: note_on channel=8 note=75 velocity=114 time=0
EXTRACT: note_on channel=9 note=54 velocity=0 time=0.1
EXTRACT: note_on channel=9 note=44 velocity=0 time=0
EXTRACT: note_on channel=9 note=54 velocity=91 time=0.06666666666666667
EXTRACT: note_on channel=9 note=36 velocity=114 time=0
EXTRACT: note_on channel=8 note=75 velocity=0 time=0.06666666666666667
EXTRACT: note_on channel=9 note=36 velocity=0 time=0.016666666666666666
EXTRACT: note_on channel=9 note=54 velocity=0 time=0.08333333333333333
EXTRACT: note_on channel=1 note=30 velocity=0 time=0.15
EXTRACT: note_on channel=9 note=54 velocity=71 time=0.016666666666666666
EXTRACT: note_on channel=8 note=73 velocity=114 time=0
EXTRACT: note_on channel=9 note=54 velocity=0 time=0.1
EXTRACT: note_on channel=8 note=73 velocity=0 time=0.03333333333333333
EXTRACT: note_on channel=9 note=36 velocity=71 time=0.03333333333333333
EXTRACT: note_on channel=9 note=38 velocity=71 time=0
EXTRACT: note_on channel=9 note=54 velocity=64 time=0
EXTRACT: note_on channel=9 note=42 velocity=71 time=0
EXTRACT: note_on channel=9 note=40 velocity=71 time=0
EXTRACT: note_on channel=9 note=44 velocity=64 time=0
EXTRACT: note_on channel=8 note=75 velocity=114 time=0
EXTRACT: note_on channel=9 note=38 velocity=0 time=0.1
EXTRACT: note_on channel=9 note=42 velocity=0 time=0
EXTRACT: note_on channel=9 note=36 velocity=0 time=0
EXTRACT: note_on channel=9 note=40 velocity=0 time=0
EXTRACT: note_on channel=9 note=54 velocity=0 time=0.016666666666666666
EXTRACT: note_on channel=9 note=44 velocity=0 time=0
EXTRACT: note_on channel=8 note=75 velocity=0 time=0.06666666666666667
EXTRACT: note_on channel=9 note=42 velocity=71 time=0.15
EXTRACT: note_on channel=9 note=54 velocity=64 time=0
EXTRACT: note_on channel=1 note=30 velocity=114 time=0
EXTRACT: note_on channel=8 note=77 velocity=114 time=0
EXTRACT: note_on channel=2 note=61 velocity=0 time=0.06666666666666667
EXTRACT: note_on channel=2 note=66 velocity=0 time=0
EXTRACT: note_on channel=6 note=61 velocity=0 time=0
EXTRACT: note_on channel=6 note=66 velocity=0 time=0
EXTRACT: note_on channel=2 note=58 velocity=0 time=0.016666666666666666
EXTRACT: note_on channel=6 note=58 velocity=0 time=0
EXTRACT: note_on channel=9 note=54 velocity=0 time=0.016666666666666666
EXTRACT: note_on channel=9 note=42 velocity=0 time=0
EXTRACT: note_on channel=8 note=77 velocity=0 time=0
EXTRACT: note_on channel=1 note=30 velocity=0 time=0.03333333333333333
EXTRACT: note_on channel=9 note=54 velocity=91 time=0.03333333333333333
EXTRACT: note_on channel=9 note=36 velocity=114 time=0
EXTRACT: note_on channel=1 note=34 velocity=114 time=0
EXTRACT: note_on channel=2 note=70 velocity=75 time=0
EXTRACT: note_on channel=2 note=61 velocity=75 time=0
EXTRACT: note_on channel=2 note=65 velocity=75 time=0
EXTRACT: note_on channel=2 note=58 velocity=75 time=0
EXTRACT: note_on channel=3 note=58 velocity=75 time=0
EXTRACT: note_on channel=3 note=70 velocity=75 time=0
EXTRACT: note_on channel=6 note=61 velocity=75 time=0
EXTRACT: note_on channel=6 note=65 velocity=75 time=0
EXTRACT: note_on channel=6 note=58 velocity=75 time=0
EXTRACT: note_on channel=6 note=70 velocity=75 time=0
EXTRACT: note_on channel=8 note=77 velocity=114 time=0
EXTRACT: note_on channel=9 note=36 velocity=0 time=0.08333333333333333
EXTRACT: note_on channel=8 note=77 velocity=0 time=0.016666666666666666
EXTRACT: note_on channel=9 note=54 velocity=0 time=0.06666666666666667
EXTRACT: note_on channel=8 note=77 velocity=114 time=0
EXTRACT: note_on channel=8 note=77 velocity=0 time=0.1
EXTRACT: note_on channel=9 note=54 velocity=71 time=0.06666666666666667
EXTRACT: note_on channel=8 note=77 velocity=114 time=0
EXTRACT: note_on channel=1 note=34 velocity=0 time=0.08333333333333333
EXTRACT: note_on channel=9 note=54 velocity=0 time=0.016666666666666666
EXTRACT: note_on channel=8 note=77 velocity=0 time=0
EXTRACT: note_on channel=9 note=54 velocity=64 time=0.06666666666666667
EXTRACT: note_on channel=9 note=36 velocity=71 time=0
EXTRACT: note_on channel=9 note=40 velocity=71 time=0
EXTRACT: note_on channel=9 note=42 velocity=71 time=0
EXTRACT: note_on channel=9 note=44 velocity=64 time=0
EXTRACT: note_on channel=9 note=38 velocity=71 time=0
EXTRACT: note_on channel=8 note=77 velocity=114 time=0
EXTRACT: note_on channel=9 note=40 velocity=0 time=0.1
EXTRACT: note_on channel=9 note=42 velocity=0 time=0
EXTRACT: note_on channel=9 note=38 velocity=0 time=0
EXTRACT: note_on channel=9 note=36 velocity=0 time=0
EXTRACT: note_on channel=8 note=77 velocity=0 time=0
EXTRACT: note_on channel=9 note=44 velocity=0 time=0.016666666666666666
EXTRACT: note_on channel=9 note=54 velocity=0 time=0
EXTRACT: note_on channel=8 note=77 velocity=114 time=0.05
EXTRACT: note_on channel=2 note=65 velocity=0 time=0.06666666666666667
EXTRACT: note_on channel=6 note=65 velocity=0 time=0
EXTRACT: note_on channel=2 note=61 velocity=0 time=0.016666666666666666
EXTRACT: note_on channel=2 note=58 velocity=0 time=0
EXTRACT: note_on channel=6 note=58 velocity=0 time=0
EXTRACT: note_on channel=6 note=61 velocity=0 time=0
EXTRACT: note_on channel=2 note=70 velocity=0 time=0.016666666666666666
EXTRACT: note_on channel=6 note=70 velocity=0 time=0
EXTRACT: note_on channel=8 note=77 velocity=0 time=0
EXTRACT: note_on channel=9 note=54 velocity=71 time=0.06666666666666667
EXTRACT: note_on channel=9 note=44 velocity=71 time=0
EXTRACT: note_on channel=1 note=37 velocity=114 time=0
EXTRACT: note_on channel=2 note=65 velocity=75 time=0
EXTRACT: note_on channel=2 note=68 velocity=75 time=0
EXTRACT: note_on channel=2 note=56 velocity=75 time=0
EXTRACT: note_on channel=2 note=61 velocity=75 time=0
EXTRACT: note_on channel=6 note=65 velocity=75 time=0
EXTRACT: note_on channel=6 note=56 velocity=75 time=0
EXTRACT: note_on channel=6 note=61 velocity=75 time=0
EXTRACT: note_on channel=6 note=68 velocity=75 time=0
EXTRACT: note_on channel=8 note=77 velocity=114 time=0
EXTRACT: note_on channel=9 note=44 velocity=0 time=0.1
EXTRACT: note_on channel=9 note=54 velocity=0 time=0
EXTRACT: note_on channel=3 note=70 velocity=0 time=0
EXTRACT: note_on channel=8 note=77 velocity=0 time=0
EXTRACT: note_on channel=3 note=58 velocity=0 time=0.03333333333333333
EXTRACT: note_on channel=9 note=36 velocity=114 time=0.03333333333333333
EXTRACT: note_on channel=9 note=54 velocity=91 time=0
EXTRACT: note_on channel=3 note=56 velocity=75 time=0
EXTRACT: note_on channel=3 note=68 velocity=75 time=0
EXTRACT: note_on channel=8 note=77 velocity=114 time=0
EXTRACT: note_on channel=9 note=36 velocity=0 time=0.08333333333333333
EXTRACT: note_on channel=8 note=77 velocity=0 time=0.016666666666666666
EXTRACT: note_on channel=9 note=54 velocity=0 time=0.06666666666666667
EXTRACT: note_on channel=8 note=77 velocity=114 time=0
EXTRACT: note_on channel=8 note=77 velocity=0 time=0.1
EXTRACT: note_on channel=9 note=54 velocity=71 time=0.06666666666666667
EXTRACT: note_on channel=8 note=77 velocity=114 time=0
EXTRACT: note_on channel=1 note=37 velocity=0 time=0.016666666666666666
EXTRACT: note_on channel=9 note=54 velocity=0 time=0.08333333333333333
EXTRACT: note_on channel=8 note=77 velocity=0 time=0
EXTRACT: note_on channel=9 note=38 velocity=71 time=0.06666666666666667
EXTRACT: note_on channel=9 note=40 velocity=71 time=0
EXTRACT: note_on channel=9 note=54 velocity=64 time=0
EXTRACT: note_on channel=9 note=42 velocity=71 time=0
EXTRACT: note_on channel=9 note=36 velocity=71 time=0
EXTRACT: note_on channel=9 note=44 velocity=64 time=0
EXTRACT: note_on channel=8 note=77 velocity=114 time=0
EXTRACT: note_on channel=9 note=36 velocity=0 time=0.1
EXTRACT: note_on channel=9 note=42 velocity=0 time=0
EXTRACT: note_on channel=9 note=40 velocity=0 time=0
EXTRACT: note_on channel=9 note=38 velocity=0 time=0
EXTRACT: note_on channel=8 note=77 velocity=0 time=0
EXTRACT: note_on channel=9 note=44 velocity=0 time=0.016666666666666666
EXTRACT: note_on channel=9 note=54 velocity=0 time=0
EXTRACT: note_on channel=8 note=77 velocity=114 time=0.05
EXTRACT: note_on channel=8 note=77 velocity=0 time=0.1
EXTRACT: note_on channel=9 note=44 velocity=71 time=0.06666666666666667
EXTRACT: note_on channel=9 note=54 velocity=71 time=0
EXTRACT: note_on channel=8 note=77 velocity=114 time=0
EXTRACT: note_on channel=2 note=56 velocity=0 time=0.05
EXTRACT: note_on channel=2 note=61 velocity=0 time=0
EXTRACT: note_on channel=6 note=56 velocity=0 time=0
EXTRACT: note_on channel=6 note=61 velocity=0 time=0
EXTRACT: note_on channel=9 note=54 velocity=0 time=0.05
EXTRACT: note_on channel=9 note=44 velocity=0 time=0
EXTRACT: note_on channel=2 note=65 velocity=0 time=0
EXTRACT: note_on channel=6 note=65 velocity=0 time=0
EXTRACT: note_on channel=8 note=77 velocity=0 time=0
EXTRACT: note_on channel=2 note=68 velocity=0 time=0.016666666666666666
EXTRACT: note_on channel=3 note=68 velocity=0 time=0
EXTRACT: note_on channel=6 note=68 velocity=0 time=0
EXTRACT: note_on channel=3 note=56 velocity=0 time=0.016666666666666666
EXTRACT: note_on channel=9 note=36 velocity=114 time=0.03333333333333333
EXTRACT: note_on channel=9 note=54 velocity=91 time=0
EXTRACT: note_on channel=1 note=39 velocity=114 time=0
EXTRACT: note_on channel=2 note=67 velocity=75 time=0
EXTRACT: note_on channel=2 note=63 velocity=75 time=0
EXTRACT: note_on channel=2 note=58 velocity=75 time=0
EXTRACT: note_on channel=3 note=55 velocity=75 time=0
EXTRACT: note_on channel=3 note=67 velocity=75 time=0
EXTRACT: note_on channel=6 note=63 velocity=75 time=0
EXTRACT: note_on channel=6 note=67 velocity=75 time=0
EXTRACT: note_on channel=6 note=58 velocity=75 time=0
EXTRACT: note_on channel=8 note=77 velocity=114 time=0
EXTRACT: note_on channel=9 note=36 velocity=0 time=0.08333333333333333
EXTRACT: note_on channel=8 note=77 velocity=0 time=0.016666666666666666
EXTRACT: note_on channel=9 note=54 velocity=0 time=0.06666666666666667
EXTRACT: note_on channel=8 note=77 velocity=114 time=0
EXTRACT: note_on channel=8 note=77 velocity=0 time=0.1
EXTRACT: note_on channel=9 note=54 velocity=71 time=0.06666666666666667
EXTRACT: note_on channel=8 note=77 velocity=114 time=0
EXTRACT: note_on channel=9 note=54 velocity=0 time=0.1
EXTRACT: note_on channel=8 note=77 velocity=0 time=0
EXTRACT: note_on channel=1 note=39 velocity=0 time=0.05
EXTRACT: note_on channel=9 note=40 velocity=71 time=0.016666666666666666
EXTRACT: note_on channel=9 note=44 velocity=64 time=0
EXTRACT: note_on channel=9 note=42 velocity=71 time=0
EXTRACT: note_on channel=9 note=36 velocity=71 time=0
EXTRACT: note_on channel=9 note=38 velocity=71 time=0
EXTRACT: note_on channel=9 note=54 velocity=64 time=0
EXTRACT: note_on channel=8 note=77 velocity=114 time=0
EXTRACT: note_on channel=9 note=40 velocity=0 time=0.1
EXTRACT: note_on channel=9 note=42 velocity=0 time=0
EXTRACT: note_on channel=9 note=36 velocity=0 time=0
EXTRACT: note_on channel=9 note=38 velocity=0 time=0
EXTRACT: note_on channel=8 note=77 velocity=0 time=0
EXTRACT: note_on channel=9 note=44 velocity=0 time=0.016666666666666666
EXTRACT: note_on channel=9 note=54 velocity=0 time=0
EXTRACT: note_on channel=8 note=77 velocity=114 time=0.05
EXTRACT: note_on channel=2 note=58 velocity=0 time=0.1
EXTRACT: note_on channel=2 note=67 velocity=0 time=0
EXTRACT: note_on channel=2 note=63 velocity=0 time=0
EXTRACT: note_on channel=6 note=58 velocity=0 time=0
EXTRACT: note_on channel=6 note=63 velocity=0 time=0
EXTRACT: note_on channel=6 note=67 velocity=0 time=0
EXTRACT: note_on channel=8 note=77 velocity=0 time=0
EXTRACT: note_on channel=9 note=44 velocity=71 time=0.06666666666666667
EXTRACT: note_on channel=9 note=54 velocity=71 time=0
EXTRACT: note_on channel=1 note=30 velocity=114 time=0
EXTRACT: note_on channel=2 note=58 velocity=75 time=0
EXTRACT: note_on channel=2 note=66 velocity=75 time=0
EXTRACT: note_on channel=2 note=61 velocity=75 time=0
EXTRACT: note_on channel=2 note=54 velocity=75 time=0
EXTRACT: note_on channel=6 note=61 velocity=75 time=0
EXTRACT: note_on channel=6 note=58 velocity=75 time=0
EXTRACT: note_on channel=6 note=66 velocity=75 time=0
EXTRACT: note_on channel=8 note=77 velocity=114 time=0
EXTRACT: note_on channel=9 note=44 velocity=0 time=0.1
EXTRACT: note_on channel=9 note=54 velocity=0 time=0
EXTRACT: note_on channel=8 note=77 velocity=0 time=0
EXTRACT: note_on channel=3 note=55 velocity=0 time=0.03333333333333333
EXTRACT: note_on channel=3 note=67 velocity=0 time=0.016666666666666666
EXTRACT: note_on channel=9 note=54 velocity=91 time=0.016666666666666666
EXTRACT: note_on channel=9 note=36 velocity=114 time=0
EXTRACT: note_on channel=3 note=66 velocity=75 time=0
EXTRACT: note_on channel=3 note=54 velocity=75 time=0
EXTRACT: note_on channel=8 note=77 velocity=114 time=0
EXTRACT: note_on channel=9 note=36 velocity=0 time=0.08333333333333333
EXTRACT: note_on channel=8 note=77 velocity=0 time=0.016666666666666666
EXTRACT: note_on channel=9 note=54 velocity=0 time=0.06666666666666667
EXTRACT: note_on channel=8 note=77 velocity=114 time=0
EXTRACT: note_on channel=8 note=77 velocity=0 time=0.1
EXTRACT: note_on channel=1 note=30 velocity=0 time=0.05
EXTRACT: note_on channel=9 note=54 velocity=71 time=0.016666666666666666
EXTRACT: note_on channel=8 note=77 velocity=114 time=0
EXTRACT: note_on channel=9 note=54 velocity=0 time=0.1
EXTRACT: note_on channel=8 note=77 velocity=0 time=0
EXTRACT: note_on channel=9 note=36 velocity=71 time=0.06666666666666667
EXTRACT: note_on channel=9 note=40 velocity=71 time=0
EXTRACT: note_on channel=9 note=44 velocity=64 time=0
EXTRACT: note_on channel=9 note=54 velocity=64 time=0
EXTRACT: note_on channel=9 note=42 velocity=71 time=0
EXTRACT: note_on channel=9 note=38 velocity=71 time=0
EXTRACT: note_on channel=8 note=77 velocity=114 time=0
EXTRACT: note_on channel=9 note=42 velocity=0 time=0.1
EXTRACT: note_on channel=9 note=40 velocity=0 time=0
EXTRACT: note_on channel=9 note=38 velocity=0 time=0
EXTRACT: note_on channel=9 note=36 velocity=0 time=0
EXTRACT: note_on channel=8 note=77 velocity=0 time=0
EXTRACT: note_on channel=9 note=54 velocity=0 time=0.016666666666666666
EXTRACT: note_on channel=9 note=44 velocity=0 time=0
EXTRACT: note_on channel=8 note=77 velocity=114 time=0.05
EXTRACT: note_on channel=8 note=77 velocity=0 time=0.1
EXTRACT: note_on channel=9 note=42 velocity=71 time=0.06666666666666667
EXTRACT: note_on channel=9 note=54 velocity=64 time=0
EXTRACT: note_on channel=1 note=30 velocity=114 time=0
EXTRACT: note_on channel=8 note=77 velocity=114 time=0
EXTRACT: note_on channel=2 note=61 velocity=0 time=0.06666666666666667
EXTRACT: note_on channel=2 note=66 velocity=0 time=0
EXTRACT: note_on channel=6 note=61 velocity=0 time=0
EXTRACT: note_on channel=2 note=58 velocity=0 time=0.016666666666666666
EXTRACT: note_on channel=6 note=58 velocity=0 time=0
EXTRACT: note_on channel=9 note=54 velocity=0 time=0.016666666666666666
EXTRACT: note_on channel=9 note=42 velocity=0 time=0
EXTRACT: note_on channel=6 note=66 velocity=0 time=0
EXTRACT: note_on channel=8 note=77 velocity=0 time=0
EXTRACT: note_on channel=2 note=54 velocity=0 time=0.016666666666666666
EXTRACT: note_on channel=1 note=30 velocity=0 time=0.016666666666666666
EXTRACT: note_on channel=3 note=54 velocity=0 time=0
EXTRACT: note_on channel=3 note=66 velocity=0 time=0
EXTRACT: note_on channel=9 note=54 velocity=91 time=0.03333333333333333
EXTRACT: note_on channel=9 note=36 velocity=114 time=0
EXTRACT: note_on channel=1 note=34 velocity=114 time=0
EXTRACT: note_on channel=2 note=61 velocity=75 time=0
EXTRACT: note_on channel=2 note=70 velocity=75 time=0
EXTRACT: note_on channel=2 note=58 velocity=75 time=0
EXTRACT: note_on channel=2 note=65 velocity=75 time=0
EXTRACT: note_on channel=3 note=53 velocity=75 time=0
EXTRACT: note_on channel=3 note=65 velocity=75 time=0
EXTRACT: note_on channel=6 note=70 velocity=75 time=0
EXTRACT: note_on channel=6 note=61 velocity=75 time=0
EXTRACT: note_on channel=6 note=58 velocity=75 time=0
EXTRACT: note_on channel=6 note=65 velocity=75 time=0
EXTRACT: note_on channel=8 note=77 velocity=114 time=0
EXTRACT: note_on channel=9 note=36 velocity=0 time=0.08333333333333333
EXTRACT: note_on channel=8 note=77 velocity=0 time=0.016666666666666666
EXTRACT: note_on channel=9 note=54 velocity=0 time=0.06666666666666667
EXTRACT: note_on channel=8 note=77 velocity=114 time=0
EXTRACT: note_on channel=8 note=77 velocity=0 time=0.1
EXTRACT: note_on channel=9 note=54 velocity=71 time=0.06666666666666667
EXTRACT: note_on channel=8 note=77 velocity=114 time=0
EXTRACT: note_on channel=1 note=34 velocity=0 time=0.08333333333333333
EXTRACT: note_on channel=9 note=54 velocity=0 time=0.016666666666666666
EXTRACT: note_on channel=8 note=77 velocity=0 time=0
EXTRACT: note_on channel=9 note=38 velocity=71 time=0.06666666666666667
EXTRACT: note_on channel=9 note=54 velocity=64 time=0
EXTRACT: note_on channel=9 note=44 velocity=64 time=0
EXTRACT: note_on channel=9 note=42 velocity=71 time=0
EXTRACT: note_on channel=9 note=40 velocity=71 time=0
EXTRACT: note_on channel=9 note=36 velocity=71 time=0
EXTRACT: note_on channel=8 note=77 velocity=114 time=0
EXTRACT: note_on channel=9 note=40 velocity=0 time=0.1
EXTRACT: note_on channel=9 note=42 velocity=0 time=0
EXTRACT: note_on channel=9 note=36 velocity=0 time=0
EXTRACT: note_on channel=9 note=38 velocity=0 time=0
EXTRACT: note_on channel=8 note=77 velocity=0 time=0
EXTRACT: note_on channel=9 note=44 velocity=0 time=0.016666666666666666
EXTRACT: note_on channel=9 note=54 velocity=0 time=0
EXTRACT: note_on channel=8 note=77 velocity=114 time=0.05
EXTRACT: note_on channel=2 note=65 velocity=0 time=0.06666666666666667
EXTRACT: note_on channel=6 note=65 velocity=0 time=0
EXTRACT: note_on channel=2 note=58 velocity=0 time=0.016666666666666666
EXTRACT: note_on channel=2 note=61 velocity=0 time=0
EXTRACT: note_on channel=6 note=61 velocity=0 time=0
EXTRACT: note_on channel=6 note=58 velocity=0 time=0
EXTRACT: note_on channel=2 note=70 velocity=0 time=0.016666666666666666
EXTRACT: note_on channel=6 note=70 velocity=0 time=0
EXTRACT: note_on channel=8 note=77 velocity=0 time=0
EXTRACT: note_on channel=9 note=54 velocity=71 time=0.06666666666666667
EXTRACT: note_on channel=9 note=44 velocity=71 time=0
EXTRACT: note_on channel=1 note=37 velocity=114 time=0
EXTRACT: note_on channel=2 note=65 velocity=75 time=0
EXTRACT: note_on channel=2 note=56 velocity=75 time=0
EXTRACT: note_on channel=2 note=61 velocity=75 time=0
EXTRACT: note_on channel=2 note=68 velocity=75 time=0
EXTRACT: note_on channel=6 note=65 velocity=75 time=0
EXTRACT: note_on channel=6 note=61 velocity=75 time=0
EXTRACT: note_on channel=6 note=56 velocity=75 time=0
EXTRACT: note_on channel=6 note=68 velocity=75 time=0
EXTRACT: note_on channel=8 note=77 velocity=114 time=0
EXTRACT: note_on channel=9 note=54 velocity=0 time=0.1
EXTRACT: note_on channel=9 note=44 velocity=0 time=0
EXTRACT: note_on channel=8 note=77 velocity=0 time=0
EXTRACT: note_on channel=9 note=36 velocity=114 time=0.06666666666666667
EXTRACT: note_on channel=9 note=54 velocity=91 time=0
EXTRACT: note_on channel=8 note=77 velocity=114 time=0
EXTRACT: note_on channel=9 note=36 velocity=0 time=0.08333333333333333
EXTRACT: note_on channel=9 note=54 velocity=0 time=0.08333333333333333
EXTRACT: note_on channel=8 note=77 velocity=0 time=0.06666666666666667
EXTRACT: note_on channel=9 note=54 velocity=71 time=0.1
EXTRACT: note_on channel=8 note=73 velocity=114 time=0
EXTRACT: note_on channel=1 note=37 velocity=0 time=0.016666666666666666
EXTRACT: note_on channel=9 note=54 velocity=0 time=0.08333333333333333
EXTRACT: note_on channel=8 note=73 velocity=0 time=0.03333333333333333
EXTRACT: note_on channel=9 note=36 velocity=71 time=0.03333333333333333
EXTRACT: note_on channel=9 note=42 velocity=71 time=0
EXTRACT: note_on channel=9 note=40 velocity=71 time=0
EXTRACT: note_on channel=9 note=38 velocity=71 time=0
EXTRACT: note_on channel=9 note=54 velocity=64 time=0
EXTRACT: note_on channel=9 note=44 velocity=64 time=0
EXTRACT: note_on channel=8 note=77 velocity=114 time=0
EXTRACT: note_on channel=9 note=40 velocity=0 time=0.1
EXTRACT: note_on channel=9 note=36 velocity=0 time=0
EXTRACT: note_on channel=9 note=42 velocity=0 time=0
EXTRACT: note_on channel=9 note=38 velocity=0 time=0
EXTRACT: note_on channel=9 note=54 velocity=0 time=0.016666666666666666
EXTRACT: note_on channel=9 note=44 velocity=0 time=0
EXTRACT: note_on channel=8 note=77 velocity=0 time=0.03333333333333333
EXTRACT: note_on channel=9 note=44 velocity=71 time=0.18333333333333332
EXTRACT: note_on channel=9 note=54 velocity=71 time=0
EXTRACT: note_on channel=8 note=75 velocity=114 time=0
EXTRACT: note_on channel=2 note=56 velocity=0 time=0.05
EXTRACT: note_on channel=2 note=61 velocity=0 time=0
EXTRACT: note_on channel=6 note=56 velocity=0 time=0
EXTRACT: note_on channel=6 note=61 velocity=0 time=0
EXTRACT: note_on channel=9 note=54 velocity=0 time=0.05
EXTRACT: note_on channel=9 note=44 velocity=0 time=0
EXTRACT: note_on channel=2 note=65 velocity=0 time=0
EXTRACT: note_on channel=3 note=65 velocity=0 time=0
EXTRACT: note_on channel=6 note=65 velocity=0 time=0
EXTRACT: note_on channel=2 note=68 velocity=0 time=0.016666666666666666
EXTRACT: note_on channel=3 note=53 velocity=0 time=0
EXTRACT: note_on channel=6 note=68 velocity=0 time=0
EXTRACT: note_on channel=9 note=54 velocity=91 time=0.05
EXTRACT: note_on channel=9 note=36 velocity=114 time=0
EXTRACT: note_on channel=1 note=39 velocity=114 time=0
EXTRACT: note_on channel=2 note=63 velocity=75 time=0
EXTRACT: note_on channel=2 note=67 velocity=75 time=0
EXTRACT: note_on channel=2 note=58 velocity=75 time=0
EXTRACT: note_on channel=3 note=51 velocity=75 time=0
EXTRACT: note_on channel=3 note=63 velocity=75 time=0
EXTRACT: note_on channel=6 note=58 velocity=75 time=0
EXTRACT: note_on channel=6 note=67 velocity=75 time=0
EXTRACT: note_on channel=6 note=63 velocity=75 time=0
EXTRACT: note_on channel=9 note=36 velocity=0 time=0.08333333333333333
EXTRACT: note_on channel=9 note=54 velocity=0 time=0.08333333333333333
EXTRACT: note_on channel=8 note=75 velocity=0 time=0.05
EXTRACT: note_on channel=9 note=54 velocity=71 time=0.11666666666666667
EXTRACT: note_on channel=8 note=73 velocity=77 time=0
EXTRACT: note_on channel=9 note=54 velocity=0 time=0.1
EXTRACT: note_on channel=8 note=73 velocity=0 time=0.03333333333333333
EXTRACT: note_on channel=1 note=39 velocity=0 time=0.016666666666666666
EXTRACT: note_on channel=9 note=40 velocity=71 time=0.016666666666666666
EXTRACT: note_on channel=9 note=38 velocity=71 time=0
EXTRACT: note_on channel=9 note=54 velocity=64 time=0
EXTRACT: note_on channel=9 note=36 velocity=71 time=0
EXTRACT: note_on channel=9 note=44 velocity=64 time=0
EXTRACT: note_on channel=9 note=42 velocity=71 time=0
EXTRACT: note_on channel=8 note=77 velocity=77 time=0
EXTRACT: note_on channel=9 note=40 velocity=0 time=0.1
EXTRACT: note_on channel=9 note=42 velocity=0 time=0
EXTRACT: note_on channel=9 note=36 velocity=0 time=0
EXTRACT: note_on channel=9 note=38 velocity=0 time=0
EXTRACT: note_on channel=9 note=54 velocity=0 time=0.016666666666666666
EXTRACT: note_on channel=9 note=44 velocity=0 time=0
EXTRACT: note_on channel=8 note=77 velocity=0 time=0.03333333333333333
EXTRACT: note_on channel=2 note=63 velocity=0 time=0.11666666666666667
EXTRACT: note_on channel=2 note=58 velocity=0 time=0
EXTRACT: note_on channel=2 note=67 velocity=0 time=0
EXTRACT: note_on channel=6 note=67 velocity=0 time=0
EXTRACT: note_on channel=6 note=63 velocity=0 time=0
EXTRACT: note_on channel=6 note=58 velocity=0 time=0
EXTRACT: note_on channel=9 note=44 velocity=71 time=0.06666666666666667
EXTRACT: note_on channel=9 note=54 velocity=71 time=0
EXTRACT: note_on channel=1 note=30 velocity=114 time=0
EXTRACT: note_on channel=2 note=61 velocity=75 time=0
EXTRACT: note_on channel=2 note=66 velocity=75 time=0
EXTRACT: note_on channel=2 note=54 velocity=75 time=0
EXTRACT: note_on channel=2 note=58 velocity=75 time=0
EXTRACT: note_on channel=6 note=66 velocity=75 time=0
EXTRACT: note_on channel=6 note=61 velocity=75 time=0
EXTRACT: note_on channel=6 note=58 velocity=75 time=0
EXTRACT: note_on channel=8 note=73 velocity=114 time=0
EXTRACT: note_on channel=9 note=44 velocity=0 time=0.1
EXTRACT: note_on channel=9 note=54 velocity=0 time=0
EXTRACT: note_on channel=8 note=73 velocity=0 time=0.016666666666666666
EXTRACT: note_on channel=9 note=36 velocity=114 time=0.05
EXTRACT: note_on channel=9 note=54 velocity=91 time=0
EXTRACT: note_on channel=8 note=73 velocity=114 time=0
EXTRACT: note_on channel=9 note=36 velocity=0 time=0.08333333333333333
EXTRACT: note_on channel=9 note=54 velocity=0 time=0.08333333333333333
EXTRACT: note_on channel=8 note=73 velocity=0 time=0.016666666666666666
EXTRACT: note_on channel=1 note=30 velocity=0 time=0.13333333333333333
EXTRACT: note_on channel=9 note=54 velocity=71 time=0.016666666666666666
EXTRACT: note_on channel=8 note=75 velocity=114 time=0
EXTRACT: note_on channel=9 note=54 velocity=0 time=0.1
EXTRACT: note_on channel=8 note=75 velocity=0 time=0.016666666666666666
EXTRACT: note_on channel=9 note=44 velocity=64 time=0.05
EXTRACT: note_on channel=9 note=40 velocity=71 time=0
EXTRACT: note_on channel=9 note=42 velocity=71 time=0
EXTRACT: note_on channel=9 note=36 velocity=71 time=0
EXTRACT: note_on channel=9 note=38 velocity=71 time=0
EXTRACT: note_on channel=9 note=54 velocity=64 time=0
EXTRACT: note_on channel=8 note=77 velocity=114 time=0
EXTRACT: note_on channel=9 note=38 velocity=0 time=0.1
EXTRACT: note_on channel=9 note=40 velocity=0 time=0
EXTRACT: note_on channel=9 note=42 velocity=0 time=0
EXTRACT: note_on channel=9 note=36 velocity=0 time=0
EXTRACT: note_on channel=9 note=54 velocity=0 time=0.016666666666666666
EXTRACT: note_on channel=9 note=44 velocity=0 time=0
EXTRACT: note_on channel=8 note=77 velocity=0 time=0.06666666666666667
EXTRACT: note_on channel=9 note=42 velocity=71 time=0.15
EXTRACT: note_on channel=9 note=54 velocity=64 time=0
EXTRACT: note_on channel=1 note=30 velocity=114 time=0
EXTRACT: note_on channel=8 note=77 velocity=114 time=0
EXTRACT: note_on channel=2 note=61 velocity=0 time=0.06666666666666667
EXTRACT: note_on channel=2 note=66 velocity=0 time=0
EXTRACT: note_on channel=6 note=61 velocity=0 time=0
EXTRACT: note_on channel=2 note=58 velocity=0 time=0.016666666666666666
EXTRACT: note_on channel=6 note=58 velocity=0 time=0
EXTRACT: note_on channel=9 note=54 velocity=0 time=0.016666666666666666
EXTRACT: note_on channel=9 note=42 velocity=0 time=0
EXTRACT: note_on channel=3 note=51 velocity=0 time=0
EXTRACT: note_on channel=6 note=66 velocity=0 time=0
EXTRACT: note_on channel=2 note=54 velocity=0 time=0.016666666666666666
EXTRACT: note_on channel=1 note=30 velocity=0 time=0.016666666666666666
EXTRACT: note_on channel=3 note=63 velocity=0 time=0
EXTRACT: note_on channel=9 note=36 velocity=114 time=0.03333333333333333
EXTRACT: note_on channel=9 note=54 velocity=91 time=0
EXTRACT: note_on channel=9 note=55 velocity=91 time=0
EXTRACT: note_on channel=1 note=37 velocity=114 time=0
EXTRACT: note_on channel=2 note=61 velocity=75 time=0
EXTRACT: note_on channel=2 note=65 velocity=75 time=0
EXTRACT: note_on channel=2 note=68 velocity=75 time=0
EXTRACT: note_on channel=2 note=73 velocity=75 time=0
EXTRACT: note_on channel=3 note=53 velocity=75 time=0
EXTRACT: note_on channel=3 note=65 velocity=75 time=0
EXTRACT: note_on channel=6 note=68 velocity=75 time=0
EXTRACT: note_on channel=6 note=61 velocity=75 time=0
EXTRACT: note_on channel=6 note=65 velocity=75 time=0
EXTRACT: note_on channel=6 note=73 velocity=75 time=0
EXTRACT: note_on channel=9 note=36 velocity=0 time=0.08333333333333333
EXTRACT: note_on channel=9 note=54 velocity=0 time=0.08333333333333333
EXTRACT: note_on channel=8 note=77 velocity=0 time=0.06666666666666667
EXTRACT: note_on channel=9 note=54 velocity=71 time=0.1
EXTRACT: note_on channel=1 note=37 velocity=0 time=0
EXTRACT: note_on channel=9 note=54 velocity=0 time=0.1
EXTRACT: note_on channel=9 note=36 velocity=71 time=0.06666666666666667
EXTRACT: note_on channel=9 note=42 velocity=71 time=0
EXTRACT: note_on channel=9 note=40 velocity=71 time=0
EXTRACT: note_on channel=9 note=38 velocity=71 time=0
EXTRACT: note_on channel=9 note=54 velocity=64 time=0
EXTRACT: note_on channel=9 note=44 velocity=64 time=0
EXTRACT: note_on channel=1 note=37 velocity=114 time=0
EXTRACT: note_on channel=5 note=65 velocity=84 time=0
EXTRACT: note_on channel=3 note=53 velocity=0 time=0.06666666666666667
EXTRACT: note_on channel=9 note=36 velocity=0 time=0.03333333333333333
EXTRACT: note_on channel=9 note=40 velocity=0 time=0
EXTRACT: note_on channel=9 note=42 velocity=0 time=0
EXTRACT: note_on channel=9 note=38 velocity=0 time=0
EXTRACT: note_on channel=3 note=65 velocity=0 time=0
EXTRACT: note_on channel=9 note=54 velocity=0 time=0.016666666666666666
EXTRACT: note_on channel=9 note=44 velocity=0 time=0
EXTRACT: note_on channel=5 note=65 velocity=0 time=0.15
EXTRACT: note_on channel=9 note=44 velocity=71 time=0.06666666666666667
EXTRACT: note_on channel=9 note=54 velocity=71 time=0
EXTRACT: note_on channel=1 note=37 velocity=0 time=0
EXTRACT: note_on channel=9 note=54 velocity=0 time=0.1
EXTRACT: note_on channel=9 note=44 velocity=0 time=0
EXTRACT: note_on channel=9 note=55 velocity=0 time=0.016666666666666666
EXTRACT: note_on channel=9 note=36 velocity=114 time=0.05
EXTRACT: note_on channel=9 note=54 velocity=91 time=0
EXTRACT: note_on channel=1 note=37 velocity=114 time=0
EXTRACT: note_on channel=5 note=68 velocity=83 time=0
EXTRACT: note_on channel=9 note=36 velocity=0 time=0.08333333333333333
EXTRACT: note_on channel=9 note=54 velocity=0 time=0.08333333333333333
EXTRACT: note_on channel=9 note=54 velocity=71 time=0.16666666666666666
EXTRACT: note_on channel=1 note=37 velocity=0 time=0
EXTRACT: note_on channel=8 note=73 velocity=114 time=0
EXTRACT: note_on channel=9 note=54 velocity=0 time=0.1
EXTRACT: note_on channel=8 note=73 velocity=0 time=0.016666666666666666
EXTRACT: note_on channel=9 note=40 velocity=71 time=0.05
EXTRACT: note_on channel=9 note=38 velocity=71 time=0
EXTRACT: note_on channel=9 note=44 velocity=64 time=0
EXTRACT: note_on channel=9 note=42 velocity=71 time=0
EXTRACT: note_on channel=9 note=54 velocity=64 time=0
EXTRACT: note_on channel=9 note=36 velocity=71 time=0
EXTRACT: note_on channel=1 note=37 velocity=114 time=0
EXTRACT: note_on channel=8 note=73 velocity=114 time=0
EXTRACT: note_on channel=9 note=36 velocity=0 time=0.1
EXTRACT: note_on channel=9 note=40 velocity=0 time=0
EXTRACT: note_on channel=9 note=38 velocity=0 time=0
EXTRACT: note_on channel=9 note=42 velocity=0 time=0
EXTRACT: note_on channel=9 note=54 velocity=0 time=0.016666666666666666
EXTRACT: note_on channel=9 note=44 velocity=0 time=0
EXTRACT: note_on channel=8 note=73 velocity=0 time=0.08333333333333333
EXTRACT: control_change channel=5 control=7 value=82 time=0.1
EXTRACT: note_on channel=9 note=44 velocity=71 time=0.03333333333333333
EXTRACT: note_on channel=9 note=54 velocity=71 time=0
EXTRACT: note_on channel=1 note=37 velocity=0 time=0
EXTRACT: control_change channel=5 control=7 value=81 time=0
EXTRACT: note_on channel=8 note=75 velocity=114 time=0
EXTRACT: control_change channel=5 control=7 value=79 time=0.03333333333333333
EXTRACT: note_on channel=2 note=61 velocity=0 time=0.03333333333333333
EXTRACT: control_change channel=5 control=7 value=76 time=0
EXTRACT: note_on channel=6 note=61 velocity=0 time=0
EXTRACT: note_on channel=2 note=65 velocity=0 time=0.016666666666666666
EXTRACT: note_on channel=2 note=73 velocity=0 time=0
EXTRACT: note_on channel=6 note=73 velocity=0 time=0
EXTRACT: note_on channel=6 note=65 velocity=0 time=0
EXTRACT: note_on channel=9 note=54 velocity=0 time=0.016666666666666666
EXTRACT: note_on channel=9 note=44 velocity=0 time=0
EXTRACT: note_on channel=2 note=68 velocity=0 time=0
EXTRACT: control_change channel=5 control=7 value=75 time=0
EXTRACT: note_on channel=6 note=68 velocity=0 time=0
EXTRACT: note_on channel=8 note=75 velocity=0 time=0.016666666666666666
EXTRACT: control_change channel=5 control=7 value=74 time=0.016666666666666666
EXTRACT: note_on channel=9 note=36 velocity=114 time=0.03333333333333333
EXTRACT: note_on channel=9 note=54 velocity=91 time=0
EXTRACT: note_on channel=1 note=36 velocity=114 time=0
EXTRACT: note_on channel=2 note=68 velocity=75 time=0
EXTRACT: note_on channel=2 note=65 velocity=75 time=0
EXTRACT: note_on channel=2 note=72 velocity=75 time=0
EXTRACT: note_on channel=2 note=60 velocity=75 time=0
EXTRACT: control_change channel=5 control=7 value=71 time=0
EXTRACT: note_on channel=6 note=72 velocity=75 time=0
EXTRACT: note_on channel=6 note=68 velocity=75 time=0
EXTRACT: note_on channel=6 note=65 velocity=75 time=0
EXTRACT: note_on channel=6 note=60 velocity=75 time=0
EXTRACT: note_on channel=8 note=77 velocity=114 time=0
EXTRACT: control_change channel=5 control=7 value=68 time=0.06666666666666667
EXTRACT: note_on channel=9 note=36 velocity=0 time=0.016666666666666666
EXTRACT: control_change channel=5 control=7 value=66 time=0.016666666666666666
EXTRACT: control_change channel=5 control=7 value=65 time=0.03333333333333333
EXTRACT: note_on channel=9 note=54 velocity=0 time=0.03333333333333333
EXTRACT: control_change channel=5 control=7 value=64 time=0
EXTRACT: control_change channel=5 control=7 value=62 time=0.03333333333333333
EXTRACT: note_on channel=8 note=77 velocity=0 time=0.016666666666666666
EXTRACT: control_change channel=5 control=7 value=61 time=0.016666666666666666
EXTRACT: control_change channel=5 control=7 value=59 time=0.03333333333333333
EXTRACT: note_on channel=9 note=54 velocity=71 time=0.06666666666666667
EXTRACT: control_change channel=5 control=7 value=58 time=0
EXTRACT: note_on channel=8 note=77 velocity=114 time=0
EXTRACT: note_on channel=1 note=36 velocity=0 time=0.03333333333333333
EXTRACT: control_change channel=5 control=7 value=56 time=0.03333333333333333
EXTRACT: note_on channel=9 note=54 velocity=0 time=0.03333333333333333
EXTRACT: note_on channel=8 note=77 velocity=0 time=0.016666666666666666
EXTRACT: control_change channel=5 control=7 value=53 time=0.016666666666666666
EXTRACT: note_on channel=9 note=54 velocity=64 time=0.03333333333333333
EXTRACT: note_on channel=9 note=38 velocity=71 time=0
EXTRACT: note_on channel=9 note=42 velocity=71 time=0
EXTRACT: note_on channel=9 note=44 velocity=64 time=0
EXTRACT: note_on channel=9 note=36 velocity=71 time=0
EXTRACT: note_on channel=9 note=40 velocity=71 time=0
EXTRACT: note_on channel=1 note=36 velocity=114 time=0
EXTRACT: control_change channel=5 control=7 value=55 time=0
EXTRACT: note_on channel=8 note=75 velocity=114 time=0
EXTRACT: control_change channel=5 control=7 value=53 time=0.03333333333333333
EXTRACT: control_change channel=5 control=7 value=51 time=0.03333333333333333
EXTRACT: note_on channel=9 note=42 velocity=0 time=0.03333333333333333
EXTRACT: note_on channel=9 note=40 velocity=0 time=0
EXTRACT: note_on channel=9 note=38 velocity=0 time=0
EXTRACT: note_on channel=9 note=36 velocity=0 time=0
EXTRACT: control_change channel=5 control=7 value=49 time=0
EXTRACT: note_on channel=9 note=44 velocity=0 time=0.016666666666666666
EXTRACT: note_on channel=9 note=54 velocity=0 time=0
EXTRACT: note_on channel=8 note=75 velocity=0 time=0.016666666666666666
EXTRACT: control_change channel=5 control=7 value=46 time=0.03333333333333333
EXTRACT: control_change channel=5 control=7 value=45 time=0.06666666666666667
EXTRACT: control_change channel=5 control=7 value=43 time=0.03333333333333333
EXTRACT: control_change channel=5 control=7 value=42 time=0.03333333333333333
EXTRACT: note_on channel=9 note=44 velocity=71 time=0.03333333333333333
EXTRACT: note_on channel=9 note=54 velocity=71 time=0
EXTRACT: note_on channel=8 note=75 velocity=114 time=0
EXTRACT: note_on channel=1 note=36 velocity=0 time=0.03333333333333333
EXTRACT: control_change channel=5 control=7 value=40 time=0
EXTRACT: control_change channel=5 control=7 value=36 time=0.03333333333333333
EXTRACT: note_on channel=9 note=44 velocity=0 time=0.03333333333333333
EXTRACT: note_on channel=9 note=54 velocity=0 time=0
EXTRACT: note_on channel=5 note=68 velocity=0 time=0.03333333333333333
EXTRACT: control_change channel=5 control=7 value=33 time=0
EXTRACT: note_on channel=8 note=75 velocity=0 time=0
EXTRACT: note_on channel=9 note=54 velocity=91 time=0.03333333333333333
EXTRACT: note_on channel=9 note=36 velocity=114 time=0
EXTRACT: note_on channel=1 note=36 velocity=114 time=0
EXTRACT: note_on channel=8 note=73 velocity=114 time=0
EXTRACT: control_change channel=5 control=7 value=30 time=0.03333333333333333
EXTRACT: control_change channel=5 control=7 value=29 time=0.03333333333333333
EXTRACT: note_on channel=9 note=36 velocity=0 time=0.016666666666666666
EXTRACT: control_change channel=5 control=7 value=27 time=0.016666666666666666
EXTRACT: control_change channel=5 control=7 value=25 time=0.03333333333333333
EXTRACT: note_on channel=8 note=73 velocity=0 time=0
EXTRACT: note_on channel=9 note=54 velocity=0 time=0.03333333333333333
EXTRACT: control_change channel=5 control=7 value=23 time=0.03333333333333333
EXTRACT: control_change channel=5 control=7 value=22 time=0.06666666666666667
EXTRACT: control_change channel=5 control=7 value=19 time=0.03333333333333333
EXTRACT: note_on channel=9 note=54 velocity=71 time=0.03333333333333333
EXTRACT: note_on channel=8 note=75 velocity=114 time=0
EXTRACT: note_on channel=1 note=36 velocity=0 time=0.03333333333333333
EXTRACT: control_change channel=5 control=7 value=16 time=0
EXTRACT: control_change channel=5 control=7 value=14 time=0.03333333333333333
EXTRACT: note_on channel=9 note=54 velocity=0 time=0.03333333333333333
EXTRACT: control_change channel=5 control=7 value=13 time=0
EXTRACT: control_change channel=5 control=7 value=12 time=0.03333333333333333
EXTRACT: note_on channel=9 note=36 velocity=71 time=0.03333333333333333
EXTRACT: note_on channel=9 note=44 velocity=64 time=0
EXTRACT: note_on channel=9 note=54 velocity=64 time=0
EXTRACT: note_on channel=9 note=42 velocity=71 time=0
EXTRACT: note_on channel=9 note=40 velocity=71 time=0
EXTRACT: note_on channel=9 note=38 velocity=71 time=0
EXTRACT: note_on channel=1 note=36 velocity=114 time=0
EXTRACT: control_change channel=5 control=7 value=85 time=0.03333333333333333
EXTRACT: note_on channel=9 note=42 velocity=0 time=0.06666666666666667
EXTRACT: note_on channel=9 note=40 velocity=0 time=0
EXTRACT: note_on channel=9 note=38 velocity=0 time=0
EXTRACT: note_on channel=9 note=36 velocity=0 time=0
EXTRACT: note_on channel=8 note=75 velocity=0 time=0
EXTRACT: note_on channel=9 note=54 velocity=0 time=0.016666666666666666
EXTRACT: note_on channel=9 note=44 velocity=0 time=0
EXTRACT: note_on channel=9 note=54 velocity=64 time=0.21666666666666667
EXTRACT: note_on channel=9 note=42 velocity=64 time=0
EXTRACT: note_on channel=8 note=77 velocity=114 time=0
EXTRACT: note_on channel=1 note=36 velocity=0 time=0.03333333333333333
EXTRACT: note_on channel=9 note=54 velocity=0 time=0.06666666666666667
EXTRACT: note_on channel=9 note=42 velocity=0 time=0.016666666666666666
EXTRACT: note_on channel=2 note=68 velocity=0 time=0.016666666666666666
EXTRACT: note_on channel=2 note=65 velocity=0 time=0
EXTRACT: note_on channel=2 note=72 velocity=0 time=0
EXTRACT: note_on channel=2 note=60 velocity=0 time=0
EXTRACT: note_on channel=6 note=60 velocity=0 time=0
EXTRACT: note_on channel=6 note=72 velocity=0 time=0
EXTRACT: note_on channel=6 note=65 velocity=0 time=0
EXTRACT: note_on channel=6 note=68 velocity=0 time=0
EXTRACT: note_on channel=9 note=54 velocity=91 time=0.03333333333333333
EXTRACT: note_on channel=9 note=36 velocity=114 time=0
EXTRACT: note_on channel=1 note=34 velocity=114 time=0
EXTRACT: note_on channel=2 note=58 velocity=75 time=0
EXTRACT: note_on channel=2 note=65 velocity=75 time=0
EXTRACT: note_on channel=2 note=70 velocity=75 time=0
EXTRACT: note_on channel=2 note=61 velocity=75 time=0
EXTRACT: note_on channel=6 note=65 velocity=75 time=0
EXTRACT: note_on channel=6 note=58 velocity=75 time=0
EXTRACT: note_on channel=6 note=70 velocity=75 time=0
EXTRACT: note_on channel=6 note=61 velocity=75 time=0
EXTRACT: note_on channel=9 note=36 velocity=0 time=0.08333333333333333
EXTRACT: note_on channel=9 note=54 velocity=0 time=0.08333333333333333
EXTRACT: note_on channel=8 note=77 velocity=0 time=0.03333333333333333
EXTRACT: note_on channel=9 note=54 velocity=71 time=0.13333333333333333
EXTRACT: note_on channel=1 note=34 velocity=0 time=0.03333333333333333
EXTRACT: note_on channel=9 note=54 velocity=0 time=0.06666666666666667
EXTRACT: note_on channel=9 note=38 velocity=71 time=0.06666666666666667
EXTRACT: note_on channel=9 note=44 velocity=64 time=0
EXTRACT: note_on channel=9 note=42 velocity=71 time=0
EXTRACT: note_on channel=9 note=54 velocity=64 time=0
EXTRACT: note_on channel=9 note=36 velocity=71 time=0
EXTRACT: note_on channel=9 note=40 velocity=71 time=0
EXTRACT: note_on channel=1 note=34 velocity=114 time=0
EXTRACT: note_on channel=5 note=68 velocity=83 time=0
EXTRACT: note_on channel=9 note=38 velocity=0 time=0.1
EXTRACT: note_on channel=9 note=42 velocity=0 time=0
EXTRACT: note_on channel=9 note=36 velocity=0 time=0
EXTRACT: note_on channel=9 note=40 velocity=0 time=0
EXTRACT: note_on channel=9 note=54 velocity=0 time=0.016666666666666666
EXTRACT: note_on channel=9 note=44 velocity=0 time=0
EXTRACT: control_change channel=5 control=7 value=84 time=0.15
EXTRACT: note_on channel=9 note=44 velocity=71 time=0.06666666666666667
EXTRACT: note_on channel=9 note=54 velocity=71 time=0
EXTRACT: note_on channel=1 note=34 velocity=0 time=0.03333333333333333
EXTRACT: note_on channel=5 note=68 velocity=0 time=0.05
EXTRACT: note_on channel=9 note=44 velocity=0 time=0.016666666666666666
EXTRACT: note_on channel=9 note=54 velocity=0 time=0
EXTRACT: note_on channel=9 note=54 velocity=91 time=0.06666666666666667
EXTRACT: note_on channel=9 note=36 velocity=114 time=0
EXTRACT: note_on channel=1 note=34 velocity=114 time=0
EXTRACT: note_on channel=5 note=65 velocity=83 time=0
EXTRACT: note_on channel=9 note=36 velocity=0 time=0.08333333333333333
EXTRACT: note_on channel=9 note=54 velocity=0 time=0.08333333333333333
EXTRACT: note_on channel=9 note=54 velocity=71 time=0.16666666666666666
EXTRACT: note_on channel=1 note=34 velocity=0 time=0.03333333333333333
EXTRACT: note_on channel=9 note=54 velocity=0 time=0.06666666666666667
EXTRACT: control_change channel=5 control=7 value=85 time=0
EXTRACT: note_on channel=5 note=65 velocity=0 time=0
EXTRACT: note_on channel=9 note=40 velocity=71 time=0.06666666666666667
EXTRACT: note_on channel=9 note=38 velocity=71 time=0
EXTRACT: note_on channel=9 note=44 velocity=64 time=0
EXTRACT: note_on channel=9 note=42 velocity=71 time=0
EXTRACT: note_on channel=9 note=36 velocity=71 time=0
EXTRACT: note_on channel=9 note=54 velocity=64 time=0
EXTRACT: note_on channel=1 note=34 velocity=114 time=0
EXTRACT: note_on channel=5 note=63 velocity=83 time=0
EXTRACT: note_on channel=9 note=42 velocity=0 time=0.1
EXTRACT: note_on channel=9 note=36 velocity=0 time=0
EXTRACT: note_on channel=9 note=38 velocity=0 time=0
EXTRACT: note_on channel=9 note=40 velocity=0 time=0
EXTRACT: note_on channel=9 note=44 velocity=0 time=0.016666666666666666
EXTRACT: note_on channel=9 note=54 velocity=0 time=0
EXTRACT: note_on channel=9 note=44 velocity=71 time=0.21666666666666667
EXTRACT: note_on channel=9 note=54 velocity=71 time=0
EXTRACT: note_on channel=8 note=75 velocity=114 time=0
EXTRACT: note_on channel=1 note=34 velocity=0 time=0.03333333333333333
EXTRACT: note_on channel=2 note=65 velocity=0 time=0.03333333333333333
EXTRACT: note_on channel=6 note=65 velocity=0 time=0
EXTRACT: note_on channel=2 note=61 velocity=0 time=0.016666666666666666
EXTRACT: note_on channel=2 note=70 velocity=0 time=0
EXTRACT: note_on channel=2 note=58 velocity=0 time=0
EXTRACT: note_on channel=6 note=58 velocity=0 time=0
EXTRACT: note_on channel=6 note=61 velocity=0 time=0
EXTRACT: note_on channel=6 note=70 velocity=0 time=0
EXTRACT: note_on channel=9 note=54 velocity=0 time=0.016666666666666666
EXTRACT: note_on channel=9 note=44 velocity=0 time=0
EXTRACT: note_on channel=8 note=75 velocity=0 time=0.016666666666666666
EXTRACT: note_on channel=5 note=63 velocity=0 time=0.016666666666666666
EXTRACT: note_on channel=9 note=36 velocity=114 time=0.03333333333333333
EXTRACT: note_on channel=9 note=54 velocity=91 time=0
EXTRACT: note_on channel=1 note=29 velocity=114 time=0
EXTRACT: note_on channel=2 note=60 velocity=75 time=0
EXTRACT: note_on channel=2 note=65 velocity=75 time=0
EXTRACT: note_on channel=2 note=53 velocity=75 time=0
EXTRACT: note_on channel=2 note=68 velocity=75 time=0
EXTRACT: note_on channel=5 note=65 velocity=83 time=0
EXTRACT: note_on channel=6 note=65 velocity=75 time=0
EXTRACT: note_on channel=6 note=53 velocity=75 time=0
EXTRACT: note_on channel=6 note=68 velocity=75 time=0
EXTRACT: note_on channel=6 note=60 velocity=75 time=0
EXTRACT: note_on channel=8 note=77 velocity=114 time=0
EXTRACT: note_on channel=9 note=36 velocity=0 time=0.08333333333333333
EXTRACT: note_on channel=9 note=54 velocity=0 time=0.08333333333333333
EXTRACT: note_on channel=8 note=77 velocity=0 time=0
EXTRACT: note_on channel=9 note=54 velocity=71 time=0.16666666666666666
EXTRACT: note_on channel=8 note=77 velocity=114 time=0
EXTRACT: note_on channel=1 note=29 velocity=0 time=0.03333333333333333
EXTRACT: note_on channel=9 note=54 velocity=0 time=0.06666666666666667
EXTRACT: control_change channel=5 control=7 value=84 time=0
EXTRACT: note_on channel=9 note=54 velocity=64 time=0.06666666666666667
EXTRACT: note_on channel=9 note=42 velocity=71 time=0
EXTRACT: note_on channel=9 note=40 velocity=71 time=0
EXTRACT: note_on channel=9 note=36 velocity=71 time=0
EXTRACT: note_on channel=9 note=38 velocity=71 time=0
EXTRACT: note_on channel=9 note=44 velocity=64 time=0
EXTRACT: note_on channel=1 note=29 velocity=114 time=0
EXTRACT: note_on channel=8 note=77 velocity=0 time=0
EXTRACT: note_on channel=8 note=75 velocity=114 time=0
EXTRACT: note_on channel=9 note=40 velocity=0 time=0.1
EXTRACT: note_on channel=9 note=36 velocity=0 time=0
EXTRACT: note_on channel=9 note=42 velocity=0 time=0
EXTRACT: note_on channel=9 note=38 velocity=0 time=0
EXTRACT: note_on channel=9 note=54 velocity=0 time=0.016666666666666666
EXTRACT: note_on channel=9 note=44 velocity=0 time=0
EXTRACT: control_change channel=5 control=7 value=81 time=0.08333333333333333
EXTRACT: note_on channel=8 note=75 velocity=0 time=0
EXTRACT: note_on channel=9 note=44 velocity=71 time=0.13333333333333333
EXTRACT: note_on channel=9 note=54 velocity=71 time=0
EXTRACT: control_change channel=5 control=7 value=78 time=0
EXTRACT: note_on channel=8 note=75 velocity=114 time=0
EXTRACT: note_on channel=1 note=29 velocity=0 time=0.03333333333333333
EXTRACT: control_change channel=5 control=7 value=76 time=0.03333333333333333
EXTRACT: note_on channel=9 note=54 velocity=0 time=0.03333333333333333
EXTRACT: note_on channel=9 note=44 velocity=0 time=0
EXTRACT: control_change channel=5 control=7 value=75 time=0
EXTRACT: note_on channel=8 note=75 velocity=0 time=0.016666666666666666
EXTRACT: control_change channel=5 control=7 value=72 time=0.016666666666666666
EXTRACT: note_on channel=9 note=54 velocity=91 time=0.03333333333333333
EXTRACT: note_on channel=9 note=36 velocity=114 time=0
EXTRACT: note_on channel=1 note=29 velocity=114 time=0
EXTRACT: note_on channel=8 note=73 velocity=114 time=0
EXTRACT: control_change channel=5 control=7 value=71 time=0.03333333333333333
EXTRACT: control_change channel=5 control=7 value=68 time=0.03333333333333333
EXTRACT: note_on channel=9 note=36 velocity=0 time=0.016666666666666666
EXTRACT: control_change channel=5 control=7 value=66 time=0.016666666666666666
EXTRACT: note_on channel=8 note=73 velocity=0 time=0.016666666666666666
EXTRACT: control_change channel=5 control=7 value=64 time=0.016666666666666666
EXTRACT: note_on channel=9 note=54 velocity=0 time=0.03333333333333333
EXTRACT: control_change channel=5 control=7 value=62 time=0
EXTRACT: control_change channel=5 control=7 value=61 time=0.03333333333333333
EXTRACT: control_change channel=5 control=7 value=59 time=0.03333333333333333
EXTRACT: control_change channel=5 control=7 value=58 time=0.03333333333333333
EXTRACT: control_change channel=5 control=7 value=56 time=0.03333333333333333
EXTRACT: note_on channel=9 note=54 velocity=71 time=0.03333333333333333
EXTRACT: note_on channel=8 note=75 velocity=114 time=0
EXTRACT: note_on channel=1 note=29 velocity=0 time=0.03333333333333333
EXTRACT: control_change channel=5 control=7 value=55 time=0
EXTRACT: control_change channel=5 control=7 value=53 time=0.03333333333333333
EXTRACT: note_on channel=9 note=54 velocity=0 time=0.03333333333333333
EXTRACT: control_change channel=5 control=7 value=52 time=0
EXTRACT: note_on channel=8 note=75 velocity=0 time=0.016666666666666666
EXTRACT: control_change channel=5 control=7 value=51 time=0.016666666666666666
EXTRACT: note_on channel=9 note=54 velocity=64 time=0.03333333333333333
EXTRACT: note_on channel=9 note=44 velocity=64 time=0
EXTRACT: note_on channel=9 note=40 velocity=71 time=0
EXTRACT: note_on channel=9 note=38 velocity=71 time=0
EXTRACT: note_on channel=9 note=36 velocity=71 time=0
EXTRACT: note_on channel=9 note=42 velocity=71 time=0
EXTRACT: note_on channel=1 note=29 velocity=114 time=0
EXTRACT: control_change channel=5 control=7 value=49 time=0
EXTRACT: note_on channel=8 note=77 velocity=114 time=0
EXTRACT: control_change channel=5 control=7 value=48 time=0.03333333333333333
EXTRACT: control_change channel=5 control=7 value=46 time=0.03333333333333333
EXTRACT: note_on channel=9 note=40 velocity=0 time=0.03333333333333333
EXTRACT: note_on channel=9 note=42 velocity=0 time=0
EXTRACT: note_on channel=9 note=38 velocity=0 time=0
EXTRACT: note_on channel=9 note=36 velocity=0 time=0
EXTRACT: note_on channel=9 note=54 velocity=0 time=0.016666666666666666
EXTRACT: note_on channel=9 note=44 velocity=0 time=0
EXTRACT: note_on channel=8 note=77 velocity=0 time=0
EXTRACT: control_change channel=5 control=7 value=43 time=0.016666666666666666
EXTRACT: control_change channel=5 control=7 value=42 time=0.03333333333333333
EXTRACT: control_change channel=5 control=7 value=40 time=0.03333333333333333
EXTRACT: control_change channel=5 control=7 value=38 time=0.03333333333333333
EXTRACT: control_change channel=5 control=7 value=36 time=0.06666666666666667
EXTRACT: note_on channel=9 note=42 velocity=71 time=0.03333333333333333
EXTRACT: note_on channel=9 note=54 velocity=64 time=0
EXTRACT: control_change channel=5 control=7 value=35 time=0
EXTRACT: note_on channel=8 note=77 velocity=114 time=0
EXTRACT: note_on channel=1 note=29 velocity=0 time=0.03333333333333333
EXTRACT: control_change channel=5 control=7 value=33 time=0
EXTRACT: note_on channel=2 note=60 velocity=0 time=0.016666666666666666
EXTRACT: note_on channel=2 note=68 velocity=0 time=0
EXTRACT: note_on channel=2 note=65 velocity=0 time=0
EXTRACT: note_on channel=2 note=53 velocity=0 time=0
EXTRACT: note_on channel=6 note=53 velocity=0 time=0
EXTRACT: note_on channel=6 note=68 velocity=0 time=0
EXTRACT: note_on channel=6 note=60 velocity=0 time=0
EXTRACT: note_on channel=6 note=65 velocity=0 time=0
EXTRACT: control_change channel=5 control=7 value=32 time=0.016666666666666666
EXTRACT: note_on channel=9 note=54 velocity=0 time=0.03333333333333333
EXTRACT: note_on channel=9 note=42 velocity=0 time=0
EXTRACT: control_change channel=5 control=7 value=30 time=0
EXTRACT: note_on channel=5 note=65 velocity=0 time=0.03333333333333333
EXTRACT: control_change channel=5 control=7 value=29 time=0
EXTRACT: note_on channel=9 note=36 velocity=114 time=0.03333333333333333
EXTRACT: note_on channel=9 note=54 velocity=91 time=0
EXTRACT: note_on channel=1 note=39 velocity=114 time=0
EXTRACT: note_on channel=2 note=58 velocity=75 time=0
EXTRACT: note_on channel=2 note=63 velocity=75 time=0
EXTRACT: note_on channel=2 note=61 velocity=75 time=0
EXTRACT: note_on channel=2 note=66 velocity=75 time=0
EXTRACT: control_change channel=5 control=7 value=26 time=0
EXTRACT: note_on channel=6 note=66 velocity=75 time=0
EXTRACT: note_on channel=6 note=58 velocity=75 time=0
EXTRACT: note_on channel=6 note=61 velocity=75 time=0
EXTRACT: note_on channel=6 note=63 velocity=75 time=0
EXTRACT: control_change channel=5 control=7 value=25 time=0.06666666666666667
EXTRACT: note_on channel=9 note=36 velocity=0 time=0.016666666666666666
EXTRACT: control_change channel=5 control=7 value=23 time=0.05
EXTRACT: note_on channel=9 note=54 velocity=0 time=0.03333333333333333
EXTRACT: control_change channel=5 control=7 value=22 time=0
EXTRACT: note_on channel=8 note=77 velocity=0 time=0.016666666666666666
EXTRACT: control_change channel=5 control=7 value=19 time=0.016666666666666666
EXTRACT: control_change channel=5 control=7 value=17 time=0.03333333333333333
EXTRACT: control_change channel=5 control=7 value=85 time=0.06666666666666667
EXTRACT: note_on channel=9 note=54 velocity=71 time=0.03333333333333333
EXTRACT: note_on channel=8 note=75 velocity=114 time=0
EXTRACT: note_on channel=1 note=39 velocity=0 time=0.03333333333333333
EXTRACT: note_on channel=9 note=54 velocity=0 time=0.06666666666666667
EXTRACT: note_on channel=9 note=54 velocity=64 time=0.06666666666666667
EXTRACT: note_on channel=9 note=36 velocity=71 time=0
EXTRACT: note_on channel=9 note=42 velocity=71 time=0
EXTRACT: note_on channel=9 note=40 velocity=71 time=0
EXTRACT: note_on channel=9 note=44 velocity=64 time=0
EXTRACT: note_on channel=9 note=38 velocity=71 time=0
EXTRACT: note_on channel=1 note=39 velocity=114 time=0
EXTRACT: note_on channel=9 note=40 velocity=0 time=0.1
EXTRACT: note_on channel=9 note=38 velocity=0 time=0
EXTRACT: note_on channel=9 note=42 velocity=0 time=0
EXTRACT: note_on channel=9 note=36 velocity=0 time=0
EXTRACT: note_on channel=9 note=54 velocity=0 time=0.016666666666666666
EXTRACT: note_on channel=9 note=44 velocity=0 time=0
EXTRACT: note_on channel=8 note=75 velocity=0 time=0.05
EXTRACT: note_on channel=9 note=54 velocity=71 time=0.16666666666666666
EXTRACT: note_on channel=9 note=44 velocity=71 time=0
EXTRACT: note_on channel=8 note=75 velocity=114 time=0
EXTRACT: note_on channel=1 note=39 velocity=0 time=0.03333333333333333
EXTRACT: note_on channel=9 note=44 velocity=0 time=0.06666666666666667
EXTRACT: note_on channel=9 note=54 velocity=0 time=0
EXTRACT: note_on channel=8 note=75 velocity=0 time=0.016666666666666666
EXTRACT: note_on channel=9 note=36 velocity=114 time=0.05
EXTRACT: note_on channel=9 note=54 velocity=91 time=0
EXTRACT: note_on channel=1 note=39 velocity=114 time=0
EXTRACT: note_on channel=8 note=73 velocity=114 time=0
EXTRACT: note_on channel=9 note=36 velocity=0 time=0.08333333333333333
EXTRACT: note_on channel=8 note=73 velocity=0 time=0.03333333333333333
EXTRACT: note_on channel=9 note=54 velocity=0 time=0.05
EXTRACT: note_on channel=9 note=54 velocity=71 time=0.16666666666666666
EXTRACT: note_on channel=8 note=75 velocity=114 time=0
EXTRACT: note_on channel=1 note=39 velocity=0 time=0.03333333333333333
EXTRACT: note_on channel=9 note=54 velocity=0 time=0.06666666666666667
EXTRACT: note_on channel=9 note=42 velocity=71 time=0.06666666666666667
EXTRACT: note_on channel=9 note=38 velocity=71 time=0
EXTRACT: note_on channel=9 note=40 velocity=71 time=0
EXTRACT: note_on channel=9 note=36 velocity=71 time=0
EXTRACT: note_on channel=9 note=54 velocity=64 time=0
EXTRACT: note_on channel=9 note=44 velocity=64 time=0
EXTRACT: note_on channel=1 note=39 velocity=114 time=0
EXTRACT: note_on channel=3 note=80 velocity=75 time=0
EXTRACT: note_on channel=3 note=68 velocity=75 time=0
EXTRACT: note_on channel=9 note=36 velocity=0 time=0.1
EXTRACT: note_on channel=9 note=40 velocity=0 time=0
EXTRACT: note_on channel=9 note=38 velocity=0 time=0
EXTRACT: note_on channel=9 note=42 velocity=0 time=0
EXTRACT: note_on channel=9 note=54 velocity=0 time=0.016666666666666666
EXTRACT: note_on channel=9 note=44 velocity=0 time=0
EXTRACT: note_on channel=8 note=75 velocity=0 time=0
EXTRACT: note_on channel=3 note=68 velocity=0 time=0.1
EXTRACT: note_on channel=3 note=80 velocity=0 time=0.016666666666666666
EXTRACT: note_on channel=9 note=44 velocity=71 time=0.1
EXTRACT: note_on channel=9 note=54 velocity=71 time=0
EXTRACT: note_on channel=3 note=65 velocity=75 time=0
EXTRACT: note_on channel=3 note=77 velocity=75 time=0
EXTRACT: note_on channel=8 note=77 velocity=114 time=0
EXTRACT: note_on channel=1 note=39 velocity=0 time=0.03333333333333333
EXTRACT: note_on channel=9 note=54 velocity=0 time=0.06666666666666667
EXTRACT: note_on channel=9 note=44 velocity=0 time=0
EXTRACT: note_on channel=9 note=54 velocity=91 time=0.06666666666666667
EXTRACT: note_on channel=9 note=36 velocity=114 time=0
EXTRACT: note_on channel=1 note=39 velocity=114 time=0
EXTRACT: note_on channel=9 note=36 velocity=0 time=0.08333333333333333
EXTRACT: note_on channel=3 note=65 velocity=0 time=0.016666666666666666
EXTRACT: note_on channel=3 note=77 velocity=0 time=0
EXTRACT: note_on channel=9 note=54 velocity=0 time=0.06666666666666667
EXTRACT: note_on channel=8 note=77 velocity=0 time=0
EXTRACT: note_on channel=9 note=54 velocity=71 time=0.16666666666666666
EXTRACT: note_on channel=8 note=77 velocity=114 time=0
EXTRACT: note_on channel=1 note=39 velocity=0 time=0.03333333333333333
EXTRACT: note_on channel=9 note=54 velocity=0 time=0.06666666666666667
EXTRACT: note_on channel=8 note=77 velocity=0 time=0.016666666666666666
EXTRACT: note_on channel=9 note=54 velocity=64 time=0.05
EXTRACT: note_on channel=9 note=38 velocity=71 time=0
EXTRACT: note_on channel=9 note=42 velocity=71 time=0
EXTRACT: note_on channel=9 note=36 velocity=71 time=0
EXTRACT: note_on channel=9 note=40 velocity=71 time=0
EXTRACT: note_on channel=9 note=44 velocity=64 time=0
EXTRACT: note_on channel=1 note=39 velocity=114 time=0
EXTRACT: note_on channel=8 note=75 velocity=114 time=0
EXTRACT: note_on channel=9 note=40 velocity=0 time=0.1
EXTRACT: note_on channel=9 note=42 velocity=0 time=0
EXTRACT: note_on channel=9 note=38 velocity=0 time=0
EXTRACT: note_on channel=9 note=36 velocity=0 time=0
EXTRACT: note_on channel=9 note=44 velocity=0 time=0.016666666666666666
EXTRACT: note_on channel=9 note=54 velocity=0 time=0
EXTRACT: note_on channel=8 note=75 velocity=0 time=0.05
EXTRACT: note_on channel=9 note=44 velocity=71 time=0.16666666666666666
EXTRACT: note_on channel=9 note=54 velocity=71 time=0
EXTRACT: note_on channel=8 note=75 velocity=114 time=0
EXTRACT: note_on channel=1 note=39 velocity=0 time=0.03333333333333333
EXTRACT: note_on channel=9 note=44 velocity=0 time=0.06666666666666667
EXTRACT: note_on channel=9 note=54 velocity=0 time=0
EXTRACT: note_on channel=8 note=75 velocity=0 time=0.016666666666666666
EXTRACT: note_on channel=9 note=36 velocity=114 time=0.05
EXTRACT: note_on channel=9 note=54 velocity=91 time=0
EXTRACT: note_on channel=1 note=39 velocity=114 time=0
EXTRACT: note_on channel=8 note=73 velocity=114 time=0
EXTRACT: note_on channel=9 note=36 velocity=0 time=0.08333333333333333
EXTRACT: note_on channel=9 note=54 velocity=0 time=0.08333333333333333
EXTRACT: note_on channel=8 note=73 velocity=0 time=0
EXTRACT: note_on channel=9 note=54 velocity=71 time=0.16666666666666666
EXTRACT: note_on channel=8 note=75 velocity=114 time=0
EXTRACT: note_on channel=1 note=39 velocity=0 time=0.03333333333333333
EXTRACT: note_on channel=9 note=54 velocity=0 time=0.06666666666666667
EXTRACT: note_on channel=9 note=54 velocity=64 time=0.06666666666666667
EXTRACT: note_on channel=9 note=40 velocity=71 time=0
EXTRACT: note_on channel=9 note=42 velocity=71 time=0
EXTRACT: note_on channel=9 note=44 velocity=64 time=0
EXTRACT: note_on channel=9 note=36 velocity=71 time=0
EXTRACT: note_on channel=9 note=38 velocity=71 time=0
EXTRACT: note_on channel=1 note=39 velocity=114 time=0
EXTRACT: note_on channel=3 note=80 velocity=75 time=0
EXTRACT: note_on channel=3 note=68 velocity=75 time=0
EXTRACT: note_on channel=8 note=75 velocity=0 time=0.06666666666666667
EXTRACT: note_on channel=9 note=36 velocity=0 time=0.03333333333333333
EXTRACT: note_on channel=9 note=38 velocity=0 time=0
EXTRACT: note_on channel=9 note=40 velocity=0 time=0
EXTRACT: note_on channel=9 note=42 velocity=0 time=0
EXTRACT: note_on channel=9 note=54 velocity=0 time=0.016666666666666666
EXTRACT: note_on channel=9 note=44 velocity=0 time=0
EXTRACT: note_on channel=3 note=68 velocity=0 time=0.11666666666666667
EXTRACT: note_on channel=3 note=80 velocity=0 time=0
EXTRACT: note_on channel=9 note=42 velocity=71 time=0.1
EXTRACT: note_on channel=9 note=54 velocity=64 time=0
EXTRACT: note_on channel=3 note=77 velocity=75 time=0
EXTRACT: note_on channel=3 note=65 velocity=75 time=0
EXTRACT: note_on channel=8 note=73 velocity=114 time=0
EXTRACT: note_on channel=1 note=39 velocity=0 time=0.03333333333333333
EXTRACT: note_on channel=2 note=66 velocity=0 time=0.05
EXTRACT: note_on channel=6 note=66 velocity=0 time=0
EXTRACT: note_on channel=9 note=54 velocity=0 time=0.016666666666666666
EXTRACT: note_on channel=9 note=42 velocity=0 time=0
EXTRACT: note_on channel=2 note=63 velocity=0 time=0
EXTRACT: note_on channel=2 note=58 velocity=0 time=0
EXTRACT: note_on channel=6 note=63 velocity=0 time=0
EXTRACT: note_on channel=6 note=58 velocity=0 time=0
EXTRACT: note_on channel=8 note=73 velocity=0 time=0.03333333333333333
EXTRACT: note_on channel=2 note=61 velocity=0 time=0.016666666666666666
EXTRACT: note_on channel=6 note=61 velocity=0 time=0
EXTRACT: note_on channel=9 note=54 velocity=91 time=0.016666666666666666
EXTRACT: note_on channel=9 note=36 velocity=114 time=0
EXTRACT: note_on channel=1 note=44 velocity=114 time=0
EXTRACT: note_on channel=2 note=56 velocity=75 time=0
EXTRACT: note_on channel=2 note=68 velocity=75 time=0
EXTRACT: note_on channel=2 note=63 velocity=75 time=0
EXTRACT: note_on channel=6 note=56 velocity=75 time=0
EXTRACT: note_on channel=6 note=63 velocity=75 time=0
EXTRACT: note_on channel=6 note=68 velocity=75 time=0
EXTRACT: note_on channel=8 note=77 velocity=114 time=0
EXTRACT: note_on channel=3 note=65 velocity=0 time=0.06666666666666667
EXTRACT: note_on channel=3 note=77 velocity=0 time=0
EXTRACT: note_on channel=9 note=36 velocity=0 time=0.016666666666666666
EXTRACT: note_on channel=9 note=54 velocity=0 time=0.08333333333333333
EXTRACT: note_on channel=8 note=77 velocity=0 time=0.08333333333333333
EXTRACT: note_on channel=9 note=54 velocity=71 time=0.08333333333333333
EXTRACT: note_on channel=8 note=77 velocity=114 time=0
EXTRACT: note_on channel=1 note=44 velocity=0 time=0.03333333333333333
EXTRACT: note_on channel=9 note=54 velocity=0 time=0.06666666666666667
EXTRACT: note_on channel=8 note=77 velocity=0 time=0.016666666666666666
EXTRACT: note_on channel=9 note=44 velocity=64 time=0.05
EXTRACT: note_on channel=9 note=54 velocity=64 time=0
EXTRACT: note_on channel=9 note=38 velocity=71 time=0
EXTRACT: note_on channel=9 note=40 velocity=71 time=0
EXTRACT: note_on channel=9 note=36 velocity=71 time=0
EXTRACT: note_on channel=9 note=42 velocity=71 time=0
EXTRACT: note_on channel=1 note=44 velocity=114 time=0
EXTRACT: note_on channel=8 note=75 velocity=114 time=0
EXTRACT: note_on channel=9 note=42 velocity=0 time=0.1
EXTRACT: note_on channel=9 note=40 velocity=0 time=0
EXTRACT: note_on channel=9 note=38 velocity=0 time=0
EXTRACT: note_on channel=9 note=36 velocity=0 time=0
EXTRACT: note_on channel=9 note=54 velocity=0 time=0.016666666666666666
EXTRACT: note_on channel=9 note=44 velocity=0 time=0
EXTRACT: note_on channel=8 note=75 velocity=0 time=0
EXTRACT: note_on channel=9 note=44 velocity=71 time=0.21666666666666667
EXTRACT: note_on channel=9 note=54 velocity=71 time=0
EXTRACT: note_on channel=8 note=75 velocity=114 time=0
EXTRACT: note_on channel=1 note=44 velocity=0 time=0.03333333333333333
EXTRACT: note_on channel=9 note=54 velocity=0 time=0.06666666666666667
EXTRACT: note_on channel=9 note=44 velocity=0 time=0
EXTRACT: note_on channel=8 note=75 velocity=0 time=0.016666666666666666
EXTRACT: note_on channel=9 note=36 velocity=114 time=0.05
EXTRACT: note_on channel=9 note=54 velocity=91 time=0
EXTRACT: note_on channel=1 note=44 velocity=114 time=0
EXTRACT: note_on channel=8 note=73 velocity=114 time=0
EXTRACT: note_on channel=9 note=36 velocity=0 time=0.08333333333333333
EXTRACT: note_on channel=8 note=73 velocity=0 time=0.03333333333333333
EXTRACT: note_on channel=9 note=54 velocity=0 time=0.05
EXTRACT: note_on channel=8 note=75 velocity=114 time=0
EXTRACT: note_on channel=8 note=75 velocity=0 time=0.11666666666666667
EXTRACT: note_on channel=9 note=54 velocity=71 time=0.05
EXTRACT: note_on channel=8 note=73 velocity=114 time=0
EXTRACT: note_on channel=1 note=44 velocity=0 time=0.03333333333333333
EXTRACT: note_on channel=9 note=54 velocity=0 time=0.06666666666666667
EXTRACT: note_on channel=8 note=73 velocity=0 time=0.016666666666666666
EXTRACT: note_on channel=9 note=42 velocity=71 time=0.05
EXTRACT: note_on channel=9 note=38 velocity=71 time=0
EXTRACT: note_on channel=9 note=36 velocity=71 time=0
EXTRACT: note_on channel=9 note=40 velocity=71 time=0
EXTRACT: note_on channel=9 note=54 velocity=64 time=0
EXTRACT: note_on channel=9 note=44 velocity=64 time=0
EXTRACT: note_on channel=1 note=44 velocity=114 time=0
EXTRACT: note_on channel=8 note=77 velocity=114 time=0
EXTRACT: note_on channel=9 note=36 velocity=0 time=0.1
EXTRACT: note_on channel=9 note=40 velocity=0 time=0
EXTRACT: note_on channel=9 note=42 velocity=0 time=0
EXTRACT: note_on channel=9 note=38 velocity=0 time=0
EXTRACT: note_on channel=9 note=54 velocity=0 time=0.016666666666666666
EXTRACT: note_on channel=9 note=44 velocity=0 time=0
EXTRACT: note_on channel=8 note=77 velocity=0 time=0.13333333333333333
EXTRACT: note_on channel=9 note=54 velocity=71 time=0.08333333333333333
EXTRACT: note_on channel=9 note=44 velocity=71 time=0
EXTRACT: note_on channel=8 note=75 velocity=114 time=0
EXTRACT: note_on channel=1 note=44 velocity=0 time=0.03333333333333333
EXTRACT: note_on channel=2 note=68 velocity=0 time=0.05
EXTRACT: note_on channel=6 note=68 velocity=0 time=0
EXTRACT: note_on channel=9 note=44 velocity=0 time=0.016666666666666666
EXTRACT: note_on channel=9 note=54 velocity=0 time=0
EXTRACT: note_on channel=2 note=63 velocity=0 time=0.016666666666666666
EXTRACT: note_on channel=6 note=63 velocity=0 time=0
EXTRACT: note_on channel=2 note=56 velocity=0 time=0.016666666666666666
EXTRACT: note_on channel=6 note=56 velocity=0 time=0
EXTRACT: note_on channel=9 note=54 velocity=91 time=0.03333333333333333
EXTRACT: note_on channel=9 note=36 velocity=114 time=0
EXTRACT: note_on channel=1 note=44 velocity=114 time=0
EXTRACT: note_on channel=2 note=56 velocity=75 time=0
EXTRACT: note_on channel=2 note=63 velocity=75 time=0
EXTRACT: note_on channel=2 note=68 velocity=75 time=0
EXTRACT: note_on channel=2 note=60 velocity=75 time=0
EXTRACT: note_on channel=6 note=60 velocity=75 time=0
EXTRACT: note_on channel=6 note=56 velocity=75 time=0
EXTRACT: note_on channel=6 note=63 velocity=75 time=0
EXTRACT: note_on channel=6 note=68 velocity=75 time=0
EXTRACT: note_on channel=9 note=36 velocity=0 time=0.08333333333333333
EXTRACT: note_on channel=9 note=54 velocity=0 time=0.08333333333333333
EXTRACT: note_on channel=8 note=75 velocity=0 time=0
EXTRACT: note_on channel=9 note=54 velocity=71 time=0.16666666666666666
EXTRACT: note_on channel=1 note=44 velocity=0 time=0.03333333333333333
EXTRACT: note_on channel=9 note=54 velocity=0 time=0.06666666666666667
EXTRACT: note_on channel=9 note=42 velocity=71 time=0.06666666666666667
EXTRACT: note_on channel=9 note=36 velocity=71 time=0
EXTRACT: note_on channel=9 note=54 velocity=64 time=0
EXTRACT: note_on channel=9 note=38 velocity=71 time=0
EXTRACT: note_on channel=9 note=40 velocity=71 time=0
EXTRACT: note_on channel=9 note=44 velocity=64 time=0
EXTRACT: note_on channel=1 note=44 velocity=114 time=0
EXTRACT: note_on channel=9 note=42 velocity=0 time=0.1
EXTRACT: note_on channel=9 note=36 velocity=0 time=0
EXTRACT: note_on channel=9 note=38 velocity=0 time=0
EXTRACT: note_on channel=9 note=40 velocity=0 time=0
EXTRACT: note_on channel=9 note=44 velocity=0 time=0.016666666666666666
EXTRACT: note_on channel=9 note=54 velocity=0 time=0
EXTRACT: note_on channel=9 note=54 velocity=71 time=0.21666666666666667
EXTRACT: note_on channel=9 note=44 velocity=71 time=0
EXTRACT: note_on channel=8 note=73 velocity=114 time=0
EXTRACT: note_on channel=1 note=44 velocity=0 time=0.03333333333333333
EXTRACT: note_on channel=9 note=54 velocity=0 time=0.06666666666666667
EXTRACT: note_on channel=9 note=44 velocity=0 time=0
EXTRACT: note_on channel=8 note=73 velocity=0 time=0.016666666666666666
EXTRACT: note_on channel=9 note=36 velocity=114 time=0.05
EXTRACT: note_on channel=9 note=54 velocity=91 time=0
EXTRACT: note_on channel=1 note=44 velocity=114 time=0
EXTRACT: note_on channel=8 note=73 velocity=114 time=0
EXTRACT: note_on channel=9 note=36 velocity=0 time=0.08333333333333333
EXTRACT: note_on channel=9 note=54 velocity=0 time=0.08333333333333333
EXTRACT: note_on channel=8 note=73 velocity=0 time=0
EXTRACT: note_on channel=9 note=54 velocity=71 time=0.16666666666666666
EXTRACT: note_on channel=8 note=75 velocity=114 time=0
EXTRACT: note_on channel=1 note=44 velocity=0 time=0.03333333333333333
EXTRACT: note_on channel=9 note=54 velocity=0 time=0.06666666666666667
EXTRACT: note_on channel=8 note=75 velocity=0 time=0.016666666666666666
EXTRACT: note_on channel=9 note=54 velocity=64 time=0.05
EXTRACT: note_on channel=9 note=42 velocity=71 time=0
EXTRACT: note_on channel=9 note=38 velocity=71 time=0
EXTRACT: note_on channel=9 note=36 velocity=71 time=0
EXTRACT: note_on channel=9 note=40 velocity=71 time=0
EXTRACT: note_on channel=9 note=44 velocity=64 time=0
EXTRACT: note_on channel=1 note=44 velocity=114 time=0
EXTRACT: note_on channel=8 note=77 velocity=114 time=0
EXTRACT: note_on channel=9 note=36 velocity=0 time=0.1
EXTRACT: note_on channel=9 note=38 velocity=0 time=0
EXTRACT: note_on channel=9 note=40 velocity=0 time=0
EXTRACT: note_on channel=9 note=42 velocity=0 time=0
EXTRACT: note_on channel=9 note=44 velocity=0 time=0.016666666666666666
EXTRACT: note_on channel=9 note=54 velocity=0 time=0
EXTRACT: note_on channel=8 note=77 velocity=0 time=0
EXTRACT: note_on channel=9 note=54 velocity=64 time=0.21666666666666667
EXTRACT: note_on channel=9 note=42 velocity=71 time=0
EXTRACT: note_on channel=8 note=77 velocity=114 time=0
EXTRACT: note_on channel=1 note=44 velocity=0 time=0.03333333333333333
EXTRACT: note_on channel=9 note=42 velocity=0 time=0.06666666666666667
EXTRACT: note_on channel=9 note=54 velocity=0 time=0
EXTRACT: note_on channel=2 note=60 velocity=0 time=0.05
EXTRACT: note_on channel=2 note=56 velocity=0 time=0
EXTRACT: note_on channel=2 note=63 velocity=0 time=0
EXTRACT: note_on channel=2 note=68 velocity=0 time=0
EXTRACT: note_on channel=6 note=56 velocity=0 time=0
EXTRACT: note_on channel=6 note=68 velocity=0 time=0
EXTRACT: note_on channel=6 note=63 velocity=0 time=0
EXTRACT: note_on channel=6 note=60 velocity=0 time=0
EXTRACT: note_on channel=9 note=54 velocity=91 time=0.016666666666666666
EXTRACT: note_on channel=9 note=55 velocity=91 time=0
EXTRACT: note_on channel=9 note=36 velocity=114 time=0
EXTRACT: note_on channel=1 note=37 velocity=114 time=0
EXTRACT: note_on channel=2 note=68 velocity=75 time=0
EXTRACT: note_on channel=2 note=73 velocity=75 time=0
EXTRACT: note_on channel=2 note=65 velocity=75 time=0
EXTRACT: note_on channel=2 note=61 velocity=75 time=0
EXTRACT: note_on channel=3 note=65 velocity=75 time=0
EXTRACT: note_on channel=3 note=73 velocity=75 time=0
EXTRACT: note_on channel=3 note=61 velocity=75 time=0
EXTRACT: note_on channel=6 note=65 velocity=75 time=0
EXTRACT: note_on channel=6 note=73 velocity=75 time=0
EXTRACT: note_on channel=6 note=68 velocity=75 time=0
EXTRACT: note_on channel=6 note=61 velocity=75 time=0
EXTRACT: note_on channel=9 note=36 velocity=0 time=0.08333333333333333
EXTRACT: note_on channel=8 note=77 velocity=0 time=0.06666666666666667
EXTRACT: note_on channel=9 note=54 velocity=0 time=0.016666666666666666
EXTRACT: note_on channel=9 note=54 velocity=71 time=0.16666666666666666
EXTRACT: note_on channel=1 note=37 velocity=0 time=0
EXTRACT: note_on channel=9 note=54 velocity=0 time=0.1
EXTRACT: note_on channel=9 note=38 velocity=71 time=0.06666666666666667
EXTRACT: note_on channel=9 note=42 velocity=71 time=0
EXTRACT: note_on channel=9 note=54 velocity=64 time=0
EXTRACT: note_on channel=9 note=44 velocity=64 time=0
EXTRACT: note_on channel=9 note=40 velocity=71 time=0
EXTRACT: note_on channel=9 note=36 velocity=71 time=0
EXTRACT: note_on channel=1 note=37 velocity=114 time=0
EXTRACT: note_on channel=5 note=65 velocity=84 time=0
EXTRACT: note_on channel=3 note=61 velocity=0 time=0.06666666666666667
EXTRACT: note_on channel=9 note=40 velocity=0 time=0.03333333333333333
EXTRACT: note_on channel=9 note=38 velocity=0 time=0
EXTRACT: note_on channel=9 note=36 velocity=0 time=0
EXTRACT: note_on channel=9 note=42 velocity=0 time=0
EXTRACT: note_on channel=3 note=65 velocity=0 time=0
EXTRACT: note_on channel=3 note=73 velocity=0 time=0
EXTRACT: note_on channel=9 note=44 velocity=0 time=0.016666666666666666
EXTRACT: note_on channel=9 note=54 velocity=0 time=0
EXTRACT: note_on channel=5 note=65 velocity=0 time=0.15
EXTRACT: note_on channel=9 note=54 velocity=71 time=0.06666666666666667
EXTRACT: note_on channel=9 note=44 velocity=71 time=0
EXTRACT: note_on channel=1 note=37 velocity=0 time=0
EXTRACT: note_on channel=9 note=54 velocity=0 time=0.1
EXTRACT: note_on channel=9 note=44 velocity=0 time=0
EXTRACT: note_on channel=9 note=55 velocity=0 time=0.016666666666666666
EXTRACT: note_on channel=9 note=36 velocity=114 time=0.05
EXTRACT: note_on channel=9 note=54 velocity=91 time=0
EXTRACT: note_on channel=1 note=37 velocity=114 time=0
EXTRACT: note_on channel=5 note=68 velocity=83 time=0
EXTRACT: note_on channel=9 note=36 velocity=0 time=0.08333333333333333
EXTRACT: note_on channel=9 note=54 velocity=0 time=0.08333333333333333
EXTRACT: note_on channel=9 note=54 velocity=71 time=0.16666666666666666
EXTRACT: note_on channel=1 note=37 velocity=0 time=0
EXTRACT: note_on channel=9 note=54 velocity=0 time=0.1
EXTRACT: note_on channel=9 note=36 velocity=71 time=0.06666666666666667
EXTRACT: note_on channel=9 note=38 velocity=71 time=0
EXTRACT: note_on channel=9 note=40 velocity=71 time=0
EXTRACT: note_on channel=9 note=54 velocity=64 time=0
EXTRACT: note_on channel=9 note=44 velocity=64 time=0
EXTRACT: note_on channel=9 note=42 velocity=71 time=0
EXTRACT: note_on channel=1 note=37 velocity=114 time=0
EXTRACT: note_on channel=9 note=36 velocity=0 time=0.1
EXTRACT: note_on channel=9 note=40 velocity=0 time=0
EXTRACT: note_on channel=9 note=38 velocity=0 time=0
EXTRACT: note_on channel=9 note=42 velocity=0 time=0
EXTRACT: note_on channel=9 note=44 velocity=0 time=0.016666666666666666
EXTRACT: note_on channel=9 note=54 velocity=0 time=0
EXTRACT: control_change channel=5 control=7 value=82 time=0.18333333333333332
EXTRACT: note_on channel=9 note=44 velocity=71 time=0.03333333333333333
EXTRACT: note_on channel=9 note=54 velocity=71 time=0
EXTRACT: note_on channel=1 note=37 velocity=0 time=0
EXTRACT: control_change channel=5 control=7 value=81 time=0
EXTRACT: note_on channel=8 note=73 velocity=114 time=0
EXTRACT: control_change channel=5 control=7 value=79 time=0.03333333333333333
EXTRACT: note_on channel=2 note=61 velocity=0 time=0.03333333333333333
EXTRACT: control_change channel=5 control=7 value=76 time=0
EXTRACT: note_on channel=6 note=61 velocity=0 time=0
EXTRACT: note_on channel=2 note=65 velocity=0 time=0.016666666666666666
EXTRACT: note_on channel=2 note=73 velocity=0 time=0
EXTRACT: note_on channel=6 note=73 velocity=0 time=0
EXTRACT: note_on channel=6 note=65 velocity=0 time=0
EXTRACT: note_on channel=9 note=54 velocity=0 time=0.016666666666666666
EXTRACT: note_on channel=9 note=44 velocity=0 time=0
EXTRACT: note_on channel=2 note=68 velocity=0 time=0
EXTRACT: control_change channel=5 control=7 value=75 time=0
EXTRACT: note_on channel=6 note=68 velocity=0 time=0
EXTRACT: control_change channel=5 control=7 value=74 time=0.03333333333333333
EXTRACT: note_on channel=8 note=73 velocity=0 time=0
EXTRACT: note_on channel=9 note=54 velocity=91 time=0.03333333333333333
EXTRACT: note_on channel=9 note=36 velocity=114 time=0
EXTRACT: note_on channel=1 note=36 velocity=114 time=0
EXTRACT: note_on channel=2 note=60 velocity=75 time=0
EXTRACT: note_on channel=2 note=68 velocity=75 time=0
EXTRACT: note_on channel=2 note=72 velocity=75 time=0
EXTRACT: note_on channel=2 note=65 velocity=75 time=0
EXTRACT: control_change channel=5 control=7 value=71 time=0
EXTRACT: note_on channel=6 note=72 velocity=75 time=0
EXTRACT: note_on channel=6 note=65 velocity=75 time=0
EXTRACT: note_on channel=6 note=60 velocity=75 time=0
EXTRACT: note_on channel=6 note=68 velocity=75 time=0
EXTRACT: note_on channel=8 note=77 velocity=114 time=0
EXTRACT: control_change channel=5 control=7 value=68 time=0.06666666666666667
EXTRACT: note_on channel=9 note=36 velocity=0 time=0.016666666666666666
EXTRACT: control_change channel=5 control=7 value=66 time=0.016666666666666666
EXTRACT: control_change channel=5 control=7 value=65 time=0.03333333333333333
EXTRACT: note_on channel=8 note=77 velocity=0 time=0
EXTRACT: note_on channel=9 note=54 velocity=0 time=0.03333333333333333
EXTRACT: control_change channel=5 control=7 value=64 time=0
EXTRACT: control_change channel=5 control=7 value=62 time=0.03333333333333333
EXTRACT: control_change channel=5 control=7 value=61 time=0.03333333333333333
EXTRACT: control_change channel=5 control=7 value=59 time=0.03333333333333333
EXTRACT: note_on channel=9 note=54 velocity=71 time=0.06666666666666667
EXTRACT: control_change channel=5 control=7 value=58 time=0
EXTRACT: note_on channel=8 note=77 velocity=114 time=0
EXTRACT: note_on channel=1 note=36 velocity=0 time=0.03333333333333333
EXTRACT: control_change channel=5 control=7 value=56 time=0.03333333333333333
EXTRACT: note_on channel=9 note=54 velocity=0 time=0.03333333333333333
EXTRACT: control_change channel=5 control=7 value=53 time=0.03333333333333333
EXTRACT: note_on channel=8 note=77 velocity=0 time=0
EXTRACT: note_on channel=9 note=44 velocity=64 time=0.03333333333333333
EXTRACT: note_on channel=9 note=36 velocity=71 time=0
EXTRACT: note_on channel=9 note=54 velocity=64 time=0
EXTRACT: note_on channel=9 note=42 velocity=71 time=0
EXTRACT: note_on channel=9 note=38 velocity=71 time=0
EXTRACT: note_on channel=9 note=40 velocity=71 time=0
EXTRACT: note_on channel=1 note=36 velocity=114 time=0
EXTRACT: control_change channel=5 control=7 value=55 time=0
EXTRACT: note_on channel=8 note=75 velocity=114 time=0
EXTRACT: control_change channel=5 control=7 value=53 time=0.03333333333333333
EXTRACT: control_change channel=5 control=7 value=51 time=0.03333333333333333
EXTRACT: note_on channel=9 note=42 velocity=0 time=0.03333333333333333
EXTRACT: note_on channel=9 note=38 velocity=0 time=0
EXTRACT: note_on channel=9 note=36 velocity=0 time=0
EXTRACT: note_on channel=9 note=40 velocity=0 time=0
EXTRACT: control_change channel=5 control=7 value=49 time=0
EXTRACT: note_on channel=9 note=54 velocity=0 time=0.016666666666666666
EXTRACT: note_on channel=9 note=44 velocity=0 time=0
EXTRACT: note_on channel=8 note=75 velocity=0 time=0.016666666666666666
EXTRACT: control_change channel=5 control=7 value=46 time=0.03333333333333333
EXTRACT: control_change channel=5 control=7 value=45 time=0.06666666666666667
EXTRACT: control_change channel=5 control=7 value=43 time=0.03333333333333333
EXTRACT: control_change channel=5 control=7 value=42 time=0.03333333333333333
EXTRACT: note_on channel=9 note=44 velocity=71 time=0.03333333333333333
EXTRACT: note_on channel=9 note=54 velocity=71 time=0
EXTRACT: note_on channel=8 note=75 velocity=114 time=0
EXTRACT: note_on channel=1 note=36 velocity=0 time=0.03333333333333333
EXTRACT: control_change channel=5 control=7 value=40 time=0
EXTRACT: control_change channel=5 control=7 value=36 time=0.03333333333333333
EXTRACT: note_on channel=9 note=44 velocity=0 time=0.03333333333333333
EXTRACT: note_on channel=9 note=54 velocity=0 time=0
EXTRACT: note_on channel=5 note=68 velocity=0 time=0.03333333333333333
EXTRACT: control_change channel=5 control=7 value=33 time=0
EXTRACT: note_on channel=8 note=75 velocity=0 time=0
EXTRACT: note_on channel=9 note=36 velocity=114 time=0.03333333333333333
EXTRACT: note_on channel=9 note=54 velocity=91 time=0
EXTRACT: note_on channel=1 note=36 velocity=114 time=0
EXTRACT: note_on channel=8 note=73 velocity=114 time=0
EXTRACT: control_change channel=5 control=7 value=30 time=0.03333333333333333
EXTRACT: control_change channel=5 control=7 value=29 time=0.03333333333333333
EXTRACT: note_on channel=9 note=36 velocity=0 time=0.016666666666666666
EXTRACT: control_change channel=5 control=7 value=27 time=0.016666666666666666
EXTRACT: control_change channel=5 control=7 value=25 time=0.03333333333333333
EXTRACT: note_on channel=8 note=73 velocity=0 time=0
EXTRACT: note_on channel=9 note=54 velocity=0 time=0.03333333333333333
EXTRACT: control_change channel=5 control=7 value=23 time=0.03333333333333333
EXTRACT: control_change channel=5 control=7 value=22 time=0.06666666666666667
EXTRACT: control_change channel=5 control=7 value=19 time=0.03333333333333333
EXTRACT: note_on channel=9 note=54 velocity=71 time=0.03333333333333333
EXTRACT: note_on channel=8 note=75 velocity=114 time=0
EXTRACT: note_on channel=1 note=36 velocity=0 time=0.03333333333333333
EXTRACT: control_change channel=5 control=7 value=16 time=0
EXTRACT: control_change channel=5 control=7 value=14 time=0.03333333333333333
EXTRACT: note_on channel=9 note=54 velocity=0 time=0.03333333333333333
EXTRACT: control_change channel=5 control=7 value=13 time=0
EXTRACT: control_change channel=5 control=7 value=12 time=0.03333333333333333
EXTRACT: note_on channel=9 note=54 velocity=64 time=0.03333333333333333
EXTRACT: note_on channel=9 note=36 velocity=71 time=0
EXTRACT: note_on channel=9 note=40 velocity=71 time=0
EXTRACT: note_on channel=9 note=44 velocity=64 time=0
EXTRACT: note_on channel=9 note=42 velocity=71 time=0
EXTRACT: note_on channel=9 note=38 velocity=71 time=0
EXTRACT: note_on channel=1 note=36 velocity=114 time=0
EXTRACT: control_change channel=5 control=7 value=85 time=0.03333333333333333
EXTRACT: note_on channel=9 note=38 velocity=0 time=0.06666666666666667
EXTRACT: note_on channel=9 note=36 velocity=0 time=0
EXTRACT: note_on channel=9 note=40 velocity=0 time=0
EXTRACT: note_on channel=9 note=42 velocity=0 time=0
EXTRACT: note_on channel=9 note=54 velocity=0 time=0.016666666666666666
EXTRACT: note_on channel=9 note=44 velocity=0 time=0
EXTRACT: note_on channel=8 note=75 velocity=0 time=0.03333333333333333
EXTRACT: note_on channel=9 note=54 velocity=64 time=0.18333333333333332
EXTRACT: note_on channel=9 note=42 velocity=64 time=0
EXTRACT: note_on channel=8 note=77 velocity=114 time=0
EXTRACT: note_on channel=1 note=36 velocity=0 time=0.03333333333333333
EXTRACT: note_on channel=9 note=54 velocity=0 time=0.06666666666666667
EXTRACT: note_on channel=9 note=42 velocity=0 time=0.016666666666666666
EXTRACT: note_on channel=2 note=72 velocity=0 time=0.016666666666666666
EXTRACT: note_on channel=2 note=60 velocity=0 time=0
EXTRACT: note_on channel=2 note=68 velocity=0 time=0
EXTRACT: note_on channel=2 note=65 velocity=0 time=0
EXTRACT: note_on channel=6 note=65 velocity=0 time=0
EXTRACT: note_on channel=6 note=60 velocity=0 time=0
EXTRACT: note_on channel=6 note=68 velocity=0 time=0
EXTRACT: note_on channel=6 note=72 velocity=0 time=0
EXTRACT: note_on channel=9 note=36 velocity=114 time=0.03333333333333333
EXTRACT: note_on channel=9 note=54 velocity=91 time=0
EXTRACT: note_on channel=1 note=34 velocity=114 time=0
EXTRACT: note_on channel=2 note=61 velocity=75 time=0
EXTRACT: note_on channel=2 note=65 velocity=75 time=0
EXTRACT: note_on channel=2 note=70 velocity=75 time=0
EXTRACT: note_on channel=2 note=58 velocity=75 time=0
EXTRACT: note_on channel=6 note=65 velocity=75 time=0
EXTRACT: note_on channel=6 note=70 velocity=75 time=0
EXTRACT: note_on channel=6 note=61 velocity=75 time=0
EXTRACT: note_on channel=6 note=58 velocity=75 time=0
EXTRACT: note_on channel=9 note=36 velocity=0 time=0.08333333333333333
EXTRACT: note_on channel=9 note=54 velocity=0 time=0.08333333333333333
EXTRACT: note_on channel=8 note=77 velocity=0 time=0.06666666666666667
EXTRACT: note_on channel=9 note=54 velocity=71 time=0.1
EXTRACT: note_on channel=1 note=34 velocity=0 time=0.03333333333333333
EXTRACT: note_on channel=9 note=54 velocity=0 time=0.06666666666666667
EXTRACT: note_on channel=9 note=36 velocity=71 time=0.06666666666666667
EXTRACT: note_on channel=9 note=54 velocity=64 time=0
EXTRACT: note_on channel=9 note=40 velocity=71 time=0
EXTRACT: note_on channel=9 note=38 velocity=71 time=0
EXTRACT: note_on channel=9 note=42 velocity=71 time=0
EXTRACT: note_on channel=9 note=44 velocity=64 time=0
EXTRACT: note_on channel=1 note=34 velocity=114 time=0
EXTRACT: note_on channel=5 note=68 velocity=83 time=0
EXTRACT: note_on channel=9 note=38 velocity=0 time=0.1
EXTRACT: note_on channel=9 note=42 velocity=0 time=0
EXTRACT: note_on channel=9 note=40 velocity=0 time=0
EXTRACT: note_on channel=9 note=36 velocity=0 time=0
EXTRACT: note_on channel=9 note=54 velocity=0 time=0.016666666666666666
EXTRACT: note_on channel=9 note=44 velocity=0 time=0
EXTRACT: control_change channel=5 control=7 value=84 time=0.15
EXTRACT: note_on channel=9 note=54 velocity=71 time=0.06666666666666667
EXTRACT: note_on channel=9 note=44 velocity=71 time=0
EXTRACT: note_on channel=1 note=34 velocity=0 time=0.03333333333333333
EXTRACT: note_on channel=5 note=68 velocity=0 time=0.05
EXTRACT: note_on channel=9 note=44 velocity=0 time=0.016666666666666666
EXTRACT: note_on channel=9 note=54 velocity=0 time=0
EXTRACT: note_on channel=9 note=54 velocity=91 time=0.06666666666666667
EXTRACT: note_on channel=9 note=36 velocity=114 time=0
EXTRACT: note_on channel=1 note=34 velocity=114 time=0
EXTRACT: note_on channel=5 note=65 velocity=83 time=0
EXTRACT: note_on channel=9 note=36 velocity=0 time=0.08333333333333333
EXTRACT: note_on channel=9 note=54 velocity=0 time=0.08333333333333333
EXTRACT: note_on channel=9 note=54 velocity=71 time=0.16666666666666666
EXTRACT: note_on channel=1 note=34 velocity=0 time=0.03333333333333333
EXTRACT: note_on channel=9 note=54 velocity=0 time=0.06666666666666667
EXTRACT: control_change channel=5 control=7 value=85 time=0
EXTRACT: note_on channel=5 note=65 velocity=0 time=0
EXTRACT: note_on channel=9 note=54 velocity=64 time=0.06666666666666667
EXTRACT: note_on channel=9 note=42 velocity=71 time=0
EXTRACT: note_on channel=9 note=40 velocity=71 time=0
EXTRACT: note_on channel=9 note=36 velocity=71 time=0
EXTRACT: note_on channel=9 note=38 velocity=71 time=0
EXTRACT: note_on channel=9 note=44 velocity=64 time=0
EXTRACT: note_on channel=1 note=34 velocity=114 time=0
EXTRACT: note_on channel=5 note=63 velocity=83 time=0
EXTRACT: note_on channel=9 note=38 velocity=0 time=0.1
EXTRACT: note_on channel=9 note=36 velocity=0 time=0
EXTRACT: note_on channel=9 note=42 velocity=0 time=0
EXTRACT: note_on channel=9 note=40 velocity=0 time=0
EXTRACT: note_on channel=9 note=44 velocity=0 time=0.016666666666666666
EXTRACT: note_on channel=9 note=54 velocity=0 time=0
EXTRACT: note_on channel=9 note=54 velocity=71 time=0.21666666666666667
EXTRACT: note_on channel=9 note=44 velocity=71 time=0
EXTRACT: note_on channel=8 note=75 velocity=114 time=0
EXTRACT: note_on channel=1 note=34 velocity=0 time=0.03333333333333333
EXTRACT: note_on channel=2 note=65 velocity=0 time=0.03333333333333333
EXTRACT: note_on channel=6 note=65 velocity=0 time=0
EXTRACT: note_on channel=2 note=61 velocity=0 time=0.016666666666666666
EXTRACT: note_on channel=2 note=58 velocity=0 time=0
EXTRACT: note_on channel=2 note=70 velocity=0 time=0
EXTRACT: note_on channel=6 note=58 velocity=0 time=0
EXTRACT: note_on channel=6 note=61 velocity=0 time=0
EXTRACT: note_on channel=6 note=70 velocity=0 time=0
EXTRACT: note_on channel=9 note=44 velocity=0 time=0.016666666666666666
EXTRACT: note_on channel=9 note=54 velocity=0 time=0
EXTRACT: note_on channel=5 note=63 velocity=0 time=0.03333333333333333
EXTRACT: note_on channel=8 note=75 velocity=0 time=0
EXTRACT: note_on channel=9 note=54 velocity=91 time=0.03333333333333333
EXTRACT: note_on channel=9 note=36 velocity=114 time=0
EXTRACT: note_on channel=1 note=29 velocity=114 time=0
EXTRACT: note_on channel=2 note=60 velocity=75 time=0
EXTRACT: note_on channel=2 note=68 velocity=75 time=0
EXTRACT: note_on channel=2 note=53 velocity=75 time=0
EXTRACT: note_on channel=2 note=65 velocity=75 time=0
EXTRACT: note_on channel=5 note=65 velocity=83 time=0
EXTRACT: note_on channel=6 note=68 velocity=75 time=0
EXTRACT: note_on channel=6 note=65 velocity=75 time=0
EXTRACT: note_on channel=6 note=60 velocity=75 time=0
EXTRACT: note_on channel=6 note=53 velocity=75 time=0
EXTRACT: note_on channel=8 note=77 velocity=114 time=0
EXTRACT: note_on channel=9 note=36 velocity=0 time=0.08333333333333333
EXTRACT: note_on channel=8 note=77 velocity=0 time=0.05
EXTRACT: note_on channel=9 note=54 velocity=0 time=0.03333333333333333
EXTRACT: note_on channel=9 note=54 velocity=71 time=0.16666666666666666
EXTRACT: note_on channel=8 note=77 velocity=114 time=0
EXTRACT: note_on channel=1 note=29 velocity=0 time=0.03333333333333333
EXTRACT: note_on channel=9 note=54 velocity=0 time=0.06666666666666667
EXTRACT: control_change channel=5 control=7 value=84 time=0
EXTRACT: note_on channel=8 note=77 velocity=0 time=0.03333333333333333
EXTRACT: note_on channel=9 note=54 velocity=64 time=0.03333333333333333
EXTRACT: note_on channel=9 note=36 velocity=71 time=0
EXTRACT: note_on channel=9 note=44 velocity=64 time=0
EXTRACT: note_on channel=9 note=40 velocity=71 time=0
EXTRACT: note_on channel=9 note=38 velocity=71 time=0
EXTRACT: note_on channel=9 note=42 velocity=71 time=0
EXTRACT: note_on channel=1 note=29 velocity=114 time=0
EXTRACT: note_on channel=8 note=75 velocity=114 time=0
EXTRACT: note_on channel=9 note=40 velocity=0 time=0.1
EXTRACT: note_on channel=9 note=38 velocity=0 time=0
EXTRACT: note_on channel=9 note=36 velocity=0 time=0
EXTRACT: note_on channel=9 note=42 velocity=0 time=0
EXTRACT: note_on channel=9 note=44 velocity=0 time=0.016666666666666666
EXTRACT: note_on channel=9 note=54 velocity=0 time=0
EXTRACT: note_on channel=8 note=75 velocity=0 time=0.016666666666666666
EXTRACT: control_change channel=5 control=7 value=81 time=0.06666666666666667
EXTRACT: note_on channel=9 note=54 velocity=71 time=0.13333333333333333
EXTRACT: note_on channel=9 note=44 velocity=71 time=0
EXTRACT: control_change channel=5 control=7 value=78 time=0
EXTRACT: note_on channel=8 note=75 velocity=114 time=0
EXTRACT: note_on channel=1 note=29 velocity=0 time=0.03333333333333333
EXTRACT: control_change channel=5 control=7 value=76 time=0.03333333333333333
EXTRACT: note_on channel=9 note=54 velocity=0 time=0.03333333333333333
EXTRACT: note_on channel=9 note=44 velocity=0 time=0
EXTRACT: control_change channel=5 control=7 value=75 time=0
EXTRACT: control_change channel=5 control=7 value=72 time=0.03333333333333333
EXTRACT: note_on channel=8 note=75 velocity=0 time=0
EXTRACT: note_on channel=9 note=36 velocity=114 time=0.03333333333333333
EXTRACT: note_on channel=9 note=54 velocity=91 time=0
EXTRACT: note_on channel=1 note=29 velocity=114 time=0
EXTRACT: note_on channel=8 note=73 velocity=114 time=0
EXTRACT: control_change channel=5 control=7 value=71 time=0.03333333333333333
EXTRACT: control_change channel=5 control=7 value=68 time=0.03333333333333333
EXTRACT: note_on channel=9 note=36 velocity=0 time=0.016666666666666666
EXTRACT: control_change channel=5 control=7 value=66 time=0.016666666666666666
EXTRACT: control_change channel=5 control=7 value=64 time=0.03333333333333333
EXTRACT: note_on channel=8 note=73 velocity=0 time=0
EXTRACT: note_on channel=9 note=54 velocity=0 time=0.03333333333333333
EXTRACT: control_change channel=5 control=7 value=62 time=0
EXTRACT: control_change channel=5 control=7 value=61 time=0.03333333333333333
EXTRACT: control_change channel=5 control=7 value=59 time=0.03333333333333333
EXTRACT: control_change channel=5 control=7 value=58 time=0.03333333333333333
EXTRACT: control_change channel=5 control=7 value=56 time=0.03333333333333333
EXTRACT: note_on channel=9 note=54 velocity=71 time=0.03333333333333333
EXTRACT: note_on channel=8 note=73 velocity=114 time=0
EXTRACT: note_on channel=1 note=29 velocity=0 time=0.03333333333333333
EXTRACT: control_change channel=5 control=7 value=55 time=0
EXTRACT: control_change channel=5 control=7 value=53 time=0.03333333333333333
EXTRACT: note_on channel=9 note=54 velocity=0 time=0.03333333333333333
EXTRACT: control_change channel=5 control=7 value=52 time=0
EXTRACT: control_change channel=5 control=7 value=51 time=0.03333333333333333
EXTRACT: note_on channel=8 note=73 velocity=0 time=0
EXTRACT: note_on channel=9 note=42 velocity=71 time=0.03333333333333333
EXTRACT: note_on channel=9 note=44 velocity=64 time=0
EXTRACT: note_on channel=9 note=40 velocity=71 time=0
EXTRACT: note_on channel=9 note=36 velocity=71 time=0
EXTRACT: note_on channel=9 note=54 velocity=64 time=0
EXTRACT: note_on channel=9 note=38 velocity=71 time=0
EXTRACT: note_on channel=1 note=29 velocity=114 time=0
EXTRACT: control_change channel=5 control=7 value=49 time=0
EXTRACT: note_on channel=8 note=77 velocity=114 time=0
EXTRACT: control_change channel=5 control=7 value=48 time=0.03333333333333333
EXTRACT: control_change channel=5 control=7 value=46 time=0.03333333333333333
EXTRACT: note_on channel=9 note=40 velocity=0 time=0.03333333333333333
EXTRACT: note_on channel=9 note=36 velocity=0 time=0
EXTRACT: note_on channel=9 note=38 velocity=0 time=0
EXTRACT: note_on channel=9 note=42 velocity=0 time=0
EXTRACT: note_on channel=9 note=54 velocity=0 time=0.016666666666666666
EXTRACT: note_on channel=9 note=44 velocity=0 time=0
EXTRACT: control_change channel=5 control=7 value=43 time=0.016666666666666666
EXTRACT: note_on channel=8 note=77 velocity=0 time=0
EXTRACT: control_change channel=5 control=7 value=42 time=0.03333333333333333
EXTRACT: control_change channel=5 control=7 value=40 time=0.03333333333333333
EXTRACT: control_change channel=5 control=7 value=38 time=0.03333333333333333
EXTRACT: control_change channel=5 control=7 value=36 time=0.06666666666666667
EXTRACT: note_on channel=9 note=54 velocity=64 time=0.03333333333333333
EXTRACT: note_on channel=9 note=42 velocity=71 time=0
EXTRACT: control_change channel=5 control=7 value=35 time=0
EXTRACT: note_on channel=8 note=77 velocity=114 time=0
EXTRACT: note_on channel=1 note=29 velocity=0 time=0.03333333333333333
EXTRACT: control_change channel=5 control=7 value=33 time=0
EXTRACT: note_on channel=2 note=53 velocity=0 time=0.016666666666666666
EXTRACT: note_on channel=2 note=65 velocity=0 time=0
EXTRACT: note_on channel=2 note=60 velocity=0 time=0
EXTRACT: note_on channel=2 note=68 velocity=0 time=0
EXTRACT: note_on channel=6 note=53 velocity=0 time=0
EXTRACT: note_on channel=6 note=65 velocity=0 time=0
EXTRACT: note_on channel=6 note=60 velocity=0 time=0
EXTRACT: note_on channel=6 note=68 velocity=0 time=0
EXTRACT: control_change channel=5 control=7 value=32 time=0.016666666666666666
EXTRACT: note_on channel=9 note=42 velocity=0 time=0.03333333333333333
EXTRACT: note_on channel=9 note=54 velocity=0 time=0
EXTRACT: control_change channel=5 control=7 value=30 time=0
EXTRACT: control_change channel=5 control=7 value=29 time=0.03333333333333333
EXTRACT: note_on channel=5 note=65 velocity=0 time=0
EXTRACT: note_on channel=9 note=54 velocity=91 time=0.03333333333333333
EXTRACT: note_on channel=9 note=36 velocity=114 time=0
EXTRACT: note_on channel=1 note=39 velocity=114 time=0
EXTRACT: note_on channel=2 note=61 velocity=75 time=0
EXTRACT: note_on channel=2 note=58 velocity=75 time=0
EXTRACT: note_on channel=2 note=66 velocity=75 time=0
EXTRACT: note_on channel=2 note=63 velocity=75 time=0
EXTRACT: control_change channel=5 control=7 value=26 time=0
EXTRACT: note_on channel=6 note=61 velocity=75 time=0
EXTRACT: note_on channel=6 note=58 velocity=75 time=0
EXTRACT: note_on channel=6 note=66 velocity=75 time=0
EXTRACT: note_on channel=6 note=63 velocity=75 time=0
EXTRACT: control_change channel=5 control=7 value=25 time=0.06666666666666667
EXTRACT: note_on channel=9 note=36 velocity=0 time=0.016666666666666666
EXTRACT: control_change channel=5 control=7 value=23 time=0.05
EXTRACT: note_on channel=9 note=54 velocity=0 time=0.03333333333333333
EXTRACT: control_change channel=5 control=7 value=22 time=0
EXTRACT: note_on channel=8 note=77 velocity=0 time=0.016666666666666666
EXTRACT: control_change channel=5 control=7 value=19 time=0.016666666666666666
EXTRACT: control_change channel=5 control=7 value=17 time=0.03333333333333333
EXTRACT: control_change channel=5 control=7 value=85 time=0.06666666666666667
EXTRACT: note_on channel=9 note=54 velocity=71 time=0.03333333333333333
EXTRACT: note_on channel=8 note=75 velocity=114 time=0
EXTRACT: note_on channel=1 note=39 velocity=0 time=0.03333333333333333
EXTRACT: note_on channel=9 note=54 velocity=0 time=0.06666666666666667
EXTRACT: note_on channel=9 note=36 velocity=71 time=0.06666666666666667
EXTRACT: note_on channel=9 note=40 velocity=71 time=0
EXTRACT: note_on channel=9 note=38 velocity=71 time=0
EXTRACT: note_on channel=9 note=54 velocity=64 time=0
EXTRACT: note_on channel=9 note=42 velocity=71 time=0
EXTRACT: note_on channel=9 note=44 velocity=64 time=0
EXTRACT: note_on channel=1 note=39 velocity=114 time=0
EXTRACT: note_on channel=9 note=36 velocity=0 time=0.1
EXTRACT: note_on channel=9 note=38 velocity=0 time=0
EXTRACT: note_on channel=9 note=40 velocity=0 time=0
EXTRACT: note_on channel=9 note=42 velocity=0 time=0
EXTRACT: note_on channel=9 note=54 velocity=0 time=0.016666666666666666
EXTRACT: note_on channel=9 note=44 velocity=0 time=0
EXTRACT: note_on channel=8 note=75 velocity=0 time=0.06666666666666667
EXTRACT: note_on channel=9 note=54 velocity=71 time=0.15
EXTRACT: note_on channel=9 note=44 velocity=71 time=0
EXTRACT: note_on channel=8 note=75 velocity=114 time=0
EXTRACT: note_on channel=1 note=39 velocity=0 time=0.03333333333333333
EXTRACT: note_on channel=9 note=54 velocity=0 time=0.06666666666666667
EXTRACT: note_on channel=9 note=44 velocity=0 time=0
EXTRACT: note_on channel=8 note=75 velocity=0 time=0.03333333333333333
EXTRACT: note_on channel=9 note=54 velocity=91 time=0.03333333333333333
EXTRACT: note_on channel=9 note=36 velocity=114 time=0
EXTRACT: note_on channel=1 note=39 velocity=114 time=0
EXTRACT: note_on channel=8 note=73 velocity=114 time=0
EXTRACT: note_on channel=9 note=36 velocity=0 time=0.08333333333333333
EXTRACT: note_on channel=8 note=73 velocity=0 time=0.05
EXTRACT: note_on channel=9 note=54 velocity=0 time=0.03333333333333333
EXTRACT: note_on channel=9 note=54 velocity=71 time=0.16666666666666666
EXTRACT: note_on channel=8 note=75 velocity=114 time=0
EXTRACT: note_on channel=1 note=39 velocity=0 time=0.03333333333333333
EXTRACT: note_on channel=9 note=54 velocity=0 time=0.06666666666666667
EXTRACT: note_on channel=9 note=36 velocity=71 time=0.06666666666666667
EXTRACT: note_on channel=9 note=42 velocity=71 time=0
EXTRACT: note_on channel=9 note=40 velocity=71 time=0
EXTRACT: note_on channel=9 note=54 velocity=64 time=0
EXTRACT: note_on channel=9 note=44 velocity=64 time=0
EXTRACT: note_on channel=9 note=38 velocity=71 time=0
EXTRACT: note_on channel=1 note=39 velocity=114 time=0
EXTRACT: note_on channel=3 note=68 velocity=75 time=0
EXTRACT: note_on channel=3 note=80 velocity=75 time=0
EXTRACT: note_on channel=8 note=75 velocity=0 time=0.08333333333333333
EXTRACT: note_on channel=9 note=40 velocity=0 time=0.016666666666666666
EXTRACT: note_on channel=9 note=36 velocity=0 time=0
EXTRACT: note_on channel=9 note=42 velocity=0 time=0
EXTRACT: note_on channel=9 note=38 velocity=0 time=0
EXTRACT: note_on channel=9 note=54 velocity=0 time=0.016666666666666666
EXTRACT: note_on channel=9 note=44 velocity=0 time=0
EXTRACT: note_on channel=3 note=68 velocity=0 time=0.1
EXTRACT: note_on channel=3 note=80 velocity=0 time=0.016666666666666666
EXTRACT: note_on channel=9 note=44 velocity=71 time=0.1
EXTRACT: note_on channel=9 note=54 velocity=71 time=0
EXTRACT: note_on channel=3 note=77 velocity=75 time=0
EXTRACT: note_on channel=3 note=65 velocity=75 time=0
EXTRACT: note_on channel=8 note=77 velocity=114 time=0
EXTRACT: note_on channel=1 note=39 velocity=0 time=0.03333333333333333
EXTRACT: note_on channel=9 note=44 velocity=0 time=0.06666666666666667
EXTRACT: note_on channel=9 note=54 velocity=0 time=0
EXTRACT: note_on channel=9 note=54 velocity=91 time=0.06666666666666667
EXTRACT: note_on channel=9 note=36 velocity=114 time=0
EXTRACT: note_on channel=1 note=39 velocity=114 time=0
EXTRACT: note_on channel=9 note=36 velocity=0 time=0.08333333333333333
EXTRACT: note_on channel=3 note=65 velocity=0 time=0.016666666666666666
EXTRACT: note_on channel=3 note=77 velocity=0 time=0
EXTRACT: note_on channel=8 note=77 velocity=0 time=0.05
EXTRACT: note_on channel=9 note=54 velocity=0 time=0.016666666666666666
EXTRACT: note_on channel=9 note=54 velocity=71 time=0.16666666666666666
EXTRACT: note_on channel=8 note=77 velocity=114 time=0
EXTRACT: note_on channel=1 note=39 velocity=0 time=0.03333333333333333
EXTRACT: note_on channel=9 note=54 velocity=0 time=0.06666666666666667
EXTRACT: note_on channel=8 note=77 velocity=0 time=0.03333333333333333
EXTRACT: note_on channel=9 note=36 velocity=71 time=0.03333333333333333
EXTRACT: note_on channel=9 note=40 velocity=71 time=0
EXTRACT: note_on channel=9 note=42 velocity=71 time=0
EXTRACT: note_on channel=9 note=54 velocity=64 time=0
EXTRACT: note_on channel=9 note=38 velocity=71 time=0
EXTRACT: note_on channel=9 note=44 velocity=64 time=0
EXTRACT: note_on channel=1 note=39 velocity=114 time=0
EXTRACT: note_on channel=8 note=75 velocity=114 time=0
EXTRACT: note_on channel=9 note=38 velocity=0 time=0.1
EXTRACT: note_on channel=9 note=40 velocity=0 time=0
EXTRACT: note_on channel=9 note=42 velocity=0 time=0
EXTRACT: note_on channel=9 note=36 velocity=0 time=0
EXTRACT: note_on channel=9 note=54 velocity=0 time=0.016666666666666666
EXTRACT: note_on channel=9 note=44 velocity=0 time=0
EXTRACT: note_on channel=8 note=75 velocity=0 time=0.016666666666666666
EXTRACT: note_on channel=9 note=54 velocity=71 time=0.2
EXTRACT: note_on channel=9 note=44 velocity=71 time=0
EXTRACT: note_on channel=8 note=75 velocity=114 time=0
EXTRACT: note_on channel=1 note=39 velocity=0 time=0.03333333333333333
EXTRACT: note_on channel=9 note=54 velocity=0 time=0.06666666666666667
EXTRACT: note_on channel=9 note=44 velocity=0 time=0
EXTRACT: note_on channel=8 note=75 velocity=0 time=0.03333333333333333
EXTRACT: note_on channel=9 note=36 velocity=114 time=0.03333333333333333
EXTRACT: note_on channel=9 note=54 velocity=91 time=0
EXTRACT: note_on channel=1 note=39 velocity=114 time=0
EXTRACT: note_on channel=8 note=73 velocity=114 time=0
EXTRACT: note_on channel=9 note=36 velocity=0 time=0.08333333333333333
EXTRACT: note_on channel=8 note=73 velocity=0 time=0.05
EXTRACT: note_on channel=9 note=54 velocity=0 time=0.03333333333333333
EXTRACT: note_on channel=9 note=54 velocity=71 time=0.16666666666666666
EXTRACT: note_on channel=8 note=75 velocity=114 time=0
EXTRACT: note_on channel=1 note=39 velocity=0 time=0.03333333333333333
EXTRACT: note_on channel=9 note=54 velocity=0 time=0.06666666666666667
EXTRACT: note_on channel=9 note=38 velocity=71 time=0.06666666666666667
EXTRACT: note_on channel=9 note=42 velocity=71 time=0
EXTRACT: note_on channel=9 note=36 velocity=71 time=0
EXTRACT: note_on channel=9 note=44 velocity=64 time=0
EXTRACT: note_on channel=9 note=40 velocity=71 time=0
EXTRACT: note_on channel=9 note=54 velocity=64 time=0
EXTRACT: note_on channel=1 note=39 velocity=114 time=0
EXTRACT: note_on channel=3 note=68 velocity=75 time=0
EXTRACT: note_on channel=3 note=80 velocity=75 time=0
EXTRACT: note_on channel=9 note=40 velocity=0 time=0.1
EXTRACT: note_on channel=9 note=42 velocity=0 time=0
EXTRACT: note_on channel=9 note=36 velocity=0 time=0
EXTRACT: note_on channel=9 note=38 velocity=0 time=0
EXTRACT: note_on channel=9 note=44 velocity=0 time=0.016666666666666666
EXTRACT: note_on channel=9 note=54 velocity=0 time=0
EXTRACT: note_on channel=8 note=75 velocity=0 time=0.05
EXTRACT: note_on channel=3 note=68 velocity=0 time=0.06666666666666667
EXTRACT: note_on channel=3 note=80 velocity=0 time=0
EXTRACT: note_on channel=9 note=54 velocity=64 time=0.1
EXTRACT: note_on channel=9 note=42 velocity=71 time=0
EXTRACT: note_on channel=3 note=65 velocity=75 time=0
EXTRACT: note_on channel=3 note=77 velocity=75 time=0
EXTRACT: note_on channel=8 note=75 velocity=114 time=0
EXTRACT: note_on channel=1 note=39 velocity=0 time=0.03333333333333333
EXTRACT: note_on channel=2 note=66 velocity=0 time=0.05
EXTRACT: note_on channel=6 note=66 velocity=0 time=0
EXTRACT: note_on channel=9 note=42 velocity=0 time=0.016666666666666666
EXTRACT: note_on channel=9 note=54 velocity=0 time=0
EXTRACT: note_on channel=2 note=63 velocity=0 time=0
EXTRACT: note_on channel=2 note=58 velocity=0 time=0
EXTRACT: note_on channel=6 note=63 velocity=0 time=0
EXTRACT: note_on channel=6 note=58 velocity=0 time=0
EXTRACT: note_on channel=8 note=75 velocity=0 time=0.03333333333333333
EXTRACT: note_on channel=2 note=61 velocity=0 time=0.016666666666666666
EXTRACT: note_on channel=6 note=61 velocity=0 time=0
EXTRACT: note_on channel=9 note=54 velocity=91 time=0.016666666666666666
EXTRACT: note_on channel=9 note=36 velocity=114 time=0
EXTRACT: note_on channel=1 note=44 velocity=114 time=0
EXTRACT: note_on channel=2 note=56 velocity=75 time=0
EXTRACT: note_on channel=2 note=68 velocity=75 time=0
EXTRACT: note_on channel=2 note=63 velocity=75 time=0
EXTRACT: note_on channel=6 note=63 velocity=75 time=0
EXTRACT: note_on channel=6 note=56 velocity=75 time=0
EXTRACT: note_on channel=6 note=68 velocity=75 time=0
EXTRACT: note_on channel=8 note=77 velocity=114 time=0
EXTRACT: note_on channel=3 note=65 velocity=0 time=0.06666666666666667
EXTRACT: note_on channel=3 note=77 velocity=0 time=0
EXTRACT: note_on channel=9 note=36 velocity=0 time=0.016666666666666666
EXTRACT: note_on channel=8 note=77 velocity=0 time=0.05
EXTRACT: note_on channel=9 note=54 velocity=0 time=0.03333333333333333
EXTRACT: note_on channel=9 note=54 velocity=71 time=0.16666666666666666
EXTRACT: note_on channel=8 note=77 velocity=114 time=0
EXTRACT: note_on channel=1 note=44 velocity=0 time=0.03333333333333333
EXTRACT: note_on channel=9 note=54 velocity=0 time=0.06666666666666667
EXTRACT: note_on channel=8 note=77 velocity=0 time=0.03333333333333333
EXTRACT: note_on channel=9 note=36 velocity=71 time=0.03333333333333333
EXTRACT: note_on channel=9 note=38 velocity=71 time=0
EXTRACT: note_on channel=9 note=54 velocity=64 time=0
EXTRACT: note_on channel=9 note=44 velocity=64 time=0
EXTRACT: note_on channel=9 note=42 velocity=71 time=0
EXTRACT: note_on channel=9 note=40 velocity=71 time=0
EXTRACT: note_on channel=1 note=44 velocity=114 time=0
EXTRACT: note_on channel=8 note=75 velocity=114 time=0
EXTRACT: note_on channel=9 note=42 velocity=0 time=0.1
EXTRACT: note_on channel=9 note=40 velocity=0 time=0
EXTRACT: note_on channel=9 note=38 velocity=0 time=0
EXTRACT: note_on channel=9 note=36 velocity=0 time=0
EXTRACT: note_on channel=9 note=44 velocity=0 time=0.016666666666666666
EXTRACT: note_on channel=9 note=54 velocity=0 time=0
EXTRACT: note_on channel=8 note=75 velocity=0 time=0.016666666666666666
EXTRACT: note_on channel=9 note=44 velocity=71 time=0.2
EXTRACT: note_on channel=9 note=54 velocity=71 time=0
EXTRACT: note_on channel=8 note=75 velocity=114 time=0
EXTRACT: note_on channel=1 note=44 velocity=0 time=0.03333333333333333
EXTRACT: note_on channel=9 note=54 velocity=0 time=0.06666666666666667
EXTRACT: note_on channel=9 note=44 velocity=0 time=0
EXTRACT: note_on channel=8 note=75 velocity=0 time=0.03333333333333333
EXTRACT: note_on channel=9 note=54 velocity=91 time=0.03333333333333333
EXTRACT: note_on channel=9 note=36 velocity=114 time=0
EXTRACT: note_on channel=1 note=44 velocity=114 time=0
EXTRACT: note_on channel=8 note=73 velocity=114 time=0
EXTRACT: note_on channel=9 note=36 velocity=0 time=0.08333333333333333
EXTRACT: note_on channel=8 note=73 velocity=0 time=0.05
EXTRACT: note_on channel=9 note=54 velocity=0 time=0.03333333333333333
EXTRACT: note_on channel=8 note=75 velocity=114 time=0
EXTRACT: note_on channel=8 note=75 velocity=0 time=0.13333333333333333
EXTRACT: note_on channel=9 note=54 velocity=71 time=0.03333333333333333
EXTRACT: note_on channel=8 note=73 velocity=114 time=0
EXTRACT: note_on channel=1 note=44 velocity=0 time=0.03333333333333333
EXTRACT: note_on channel=9 note=54 velocity=0 time=0.06666666666666667
EXTRACT: note_on channel=8 note=73 velocity=0 time=0.03333333333333333
EXTRACT: note_on channel=9 note=36 velocity=71 time=0.03333333333333333
EXTRACT: note_on channel=9 note=44 velocity=64 time=0
EXTRACT: note_on channel=9 note=42 velocity=71 time=0
EXTRACT: note_on channel=9 note=54 velocity=64 time=0
EXTRACT: note_on channel=9 note=40 velocity=71 time=0
EXTRACT: note_on channel=9 note=38 velocity=71 time=0
EXTRACT: note_on channel=1 note=44 velocity=114 time=0
EXTRACT: note_on channel=8 note=77 velocity=114 time=0
EXTRACT: note_on channel=9 note=38 velocity=0 time=0.1
EXTRACT: note_on channel=9 note=40 velocity=0 time=0
EXTRACT: note_on channel=9 note=36 velocity=0 time=0
EXTRACT: note_on channel=9 note=42 velocity=0 time=0
EXTRACT: note_on channel=9 note=44 velocity=0 time=0.016666666666666666
EXTRACT: note_on channel=9 note=54 velocity=0 time=0
EXTRACT: note_on channel=8 note=77 velocity=0 time=0.016666666666666666
EXTRACT: note_on channel=9 note=54 velocity=71 time=0.2
EXTRACT: note_on channel=9 note=44 velocity=71 time=0
EXTRACT: note_on channel=8 note=75 velocity=114 time=0
EXTRACT: note_on channel=1 note=44 velocity=0 time=0.03333333333333333
EXTRACT: note_on channel=2 note=68 velocity=0 time=0.05
EXTRACT: note_on channel=6 note=68 velocity=0 time=0
EXTRACT: note_on channel=9 note=54 velocity=0 time=0.016666666666666666
EXTRACT: note_on channel=9 note=44 velocity=0 time=0
EXTRACT: note_on channel=2 note=63 velocity=0 time=0.016666666666666666
EXTRACT: note_on channel=6 note=63 velocity=0 time=0
EXTRACT: note_on channel=2 note=56 velocity=0 time=0.016666666666666666
EXTRACT: note_on channel=6 note=56 velocity=0 time=0
EXTRACT: note_on channel=9 note=36 velocity=114 time=0.03333333333333333
EXTRACT: note_on channel=9 note=54 velocity=91 time=0
EXTRACT: note_on channel=1 note=41 velocity=114 time=0
EXTRACT: note_on channel=2 note=65 velocity=75 time=0
EXTRACT: note_on channel=2 note=60 velocity=75 time=0
EXTRACT: note_on channel=2 note=53 velocity=75 time=0
EXTRACT: note_on channel=6 note=53 velocity=75 time=0
EXTRACT: note_on channel=6 note=72 velocity=75 time=0
EXTRACT: note_on channel=6 note=60 velocity=75 time=0
EXTRACT: note_on channel=6 note=65 velocity=75 time=0
EXTRACT: note_on channel=9 note=36 velocity=0 time=0.08333333333333333
EXTRACT: note_on channel=9 note=54 velocity=0 time=0.08333333333333333
EXTRACT: note_on channel=8 note=75 velocity=0 time=0.016666666666666666
EXTRACT: note_on channel=9 note=54 velocity=71 time=0.15
EXTRACT: note_on channel=1 note=41 velocity=0 time=0.03333333333333333
EXTRACT: note_on channel=9 note=54 velocity=0 time=0.06666666666666667
EXTRACT: note_on channel=9 note=40 velocity=71 time=0.06666666666666667
EXTRACT: note_on channel=9 note=54 velocity=64 time=0
EXTRACT: note_on channel=9 note=36 velocity=71 time=0
EXTRACT: note_on channel=9 note=44 velocity=64 time=0
EXTRACT: note_on channel=9 note=42 velocity=71 time=0
EXTRACT: note_on channel=9 note=38 velocity=71 time=0
EXTRACT: note_on channel=1 note=41 velocity=114 time=0
EXTRACT: note_on channel=8 note=73 velocity=97 time=0
EXTRACT: note_on channel=9 note=36 velocity=0 time=0.1
EXTRACT: note_on channel=9 note=42 velocity=0 time=0
EXTRACT: note_on channel=9 note=38 velocity=0 time=0
EXTRACT: note_on channel=9 note=40 velocity=0 time=0
EXTRACT: note_on channel=9 note=54 velocity=0 time=0.016666666666666666
EXTRACT: note_on channel=9 note=44 velocity=0 time=0
EXTRACT: note_on channel=8 note=73 velocity=0 time=0
EXTRACT: note_on channel=9 note=54 velocity=71 time=0.21666666666666667
EXTRACT: note_on channel=9 note=44 velocity=71 time=0
EXTRACT: note_on channel=8 note=75 velocity=85 time=0
EXTRACT: note_on channel=1 note=41 velocity=0 time=0.03333333333333333
EXTRACT: note_on channel=9 note=54 velocity=0 time=0.06666666666666667
EXTRACT: note_on channel=9 note=44 velocity=0 time=0
EXTRACT: note_on channel=8 note=75 velocity=0 time=0.016666666666666666
EXTRACT: note_on channel=9 note=36 velocity=114 time=0.05
EXTRACT: note_on channel=9 note=54 velocity=91 time=0
EXTRACT: note_on channel=1 note=41 velocity=114 time=0
EXTRACT: note_on channel=8 note=77 velocity=74 time=0
EXTRACT: note_on channel=9 note=36 velocity=0 time=0.08333333333333333
EXTRACT: note_on channel=8 note=77 velocity=0 time=0.03333333333333333
EXTRACT: note_on channel=9 note=54 velocity=0 time=0.05
EXTRACT: note_on channel=9 note=54 velocity=71 time=0.16666666666666666
EXTRACT: note_on channel=1 note=41 velocity=0 time=0.03333333333333333
EXTRACT: note_on channel=9 note=54 velocity=0 time=0.06666666666666667
EXTRACT: note_on channel=9 note=40 velocity=71 time=0.06666666666666667
EXTRACT: note_on channel=9 note=38 velocity=71 time=0
EXTRACT: note_on channel=9 note=36 velocity=71 time=0
EXTRACT: note_on channel=9 note=42 velocity=71 time=0
EXTRACT: note_on channel=9 note=44 velocity=64 time=0
EXTRACT: note_on channel=9 note=54 velocity=64 time=0
EXTRACT: note_on channel=1 note=41 velocity=114 time=0
EXTRACT: note_on channel=8 note=73 velocity=71 time=0
EXTRACT: note_on channel=9 note=36 velocity=0 time=0.1
EXTRACT: note_on channel=9 note=40 velocity=0 time=0
EXTRACT: note_on channel=9 note=38 velocity=0 time=0
EXTRACT: note_on channel=9 note=42 velocity=0 time=0
EXTRACT: note_on channel=9 note=54 velocity=0 time=0.016666666666666666
EXTRACT: note_on channel=9 note=44 velocity=0 time=0
EXTRACT: note_on channel=8 note=73 velocity=0 time=0
EXTRACT: note_on channel=9 note=42 velocity=71 time=0.21666666666666667
EXTRACT: note_on channel=9 note=54 velocity=64 time=0
EXTRACT: note_on channel=8 note=75 velocity=63 time=0
EXTRACT: note_on channel=1 note=41 velocity=0 time=0.03333333333333333
EXTRACT: note_on channel=9 note=54 velocity=0 time=0.06666666666666667
EXTRACT: note_on channel=9 note=42 velocity=0 time=0
EXTRACT: note_on channel=2 note=60 velocity=0 time=0
EXTRACT: note_on channel=2 note=53 velocity=0 time=0
EXTRACT: note_on channel=2 note=65 velocity=0 time=0
EXTRACT: note_on channel=6 note=60 velocity=0 time=0
EXTRACT: note_on channel=6 note=53 velocity=0 time=0
EXTRACT: note_on channel=6 note=72 velocity=0 time=0
EXTRACT: note_on channel=6 note=65 velocity=0 time=0
EXTRACT: note_on channel=8 note=75 velocity=0 time=0.016666666666666666
EXTRACT: note_on channel=9 note=55 velocity=91 time=0.05
EXTRACT: note_on channel=9 note=36 velocity=114 time=0
EXTRACT: note_on channel=9 note=54 velocity=91 time=0
EXTRACT: note_on channel=1 note=34 velocity=114 time=0
EXTRACT: note_on channel=2 note=65 velocity=75 time=0
EXTRACT: note_on channel=2 note=70 velocity=75 time=0
EXTRACT: note_on channel=2 note=61 velocity=75 time=0
EXTRACT: note_on channel=3 note=73 velocity=75 time=0
EXTRACT: note_on channel=3 note=65 velocity=75 time=0
EXTRACT: note_on channel=4 note=46 velocity=114 time=0
EXTRACT: note_on channel=6 note=70 velocity=75 time=0
EXTRACT: note_on channel=6 note=65 velocity=75 time=0
EXTRACT: note_on channel=6 note=61 velocity=75 time=0
EXTRACT: note_on channel=8 note=77 velocity=54 time=0
EXTRACT: note_on channel=9 note=36 velocity=0 time=0.08333333333333333
EXTRACT: note_on channel=8 note=77 velocity=0 time=0.03333333333333333
EXTRACT: note_on channel=9 note=54 velocity=0 time=0.05
EXTRACT: note_on channel=4 note=46 velocity=0 time=0.06666666666666667
EXTRACT: note_on channel=9 note=54 velocity=71 time=0.1
EXTRACT: note_on channel=4 note=53 velocity=114 time=0
EXTRACT: note_on channel=1 note=34 velocity=0 time=0.08333333333333333
EXTRACT: note_on channel=9 note=54 velocity=0 time=0.016666666666666666
EXTRACT: note_on channel=9 note=40 velocity=71 time=0.06666666666666667
EXTRACT: note_on channel=9 note=42 velocity=71 time=0
EXTRACT: note_on channel=9 note=54 velocity=64 time=0
EXTRACT: note_on channel=9 note=38 velocity=71 time=0
EXTRACT: note_on channel=9 note=44 velocity=64 time=0
EXTRACT: note_on channel=9 note=36 velocity=71 time=0
EXTRACT: note_on channel=4 note=58 velocity=114 time=0
EXTRACT: note_on channel=4 note=53 velocity=0 time=0
EXTRACT: note_on channel=9 note=38 velocity=0 time=0.1
EXTRACT: note_on channel=9 note=36 velocity=0 time=0
EXTRACT: note_on channel=9 note=40 velocity=0 time=0
EXTRACT: note_on channel=9 note=42 velocity=0 time=0
EXTRACT: note_on channel=3 note=73 velocity=0 time=0
EXTRACT: note_on channel=3 note=65 velocity=0 time=0
EXTRACT: note_on channel=9 note=44 velocity=0 time=0.016666666666666666
EXTRACT: note_on channel=9 note=54 velocity=0 time=0
EXTRACT: note_on channel=4 note=58 velocity=0 time=0.1
EXTRACT: note_on channel=2 note=65 velocity=0 time=0.016666666666666666
EXTRACT: note_on channel=6 note=65 velocity=0 time=0
EXTRACT: note_on channel=2 note=61 velocity=0 time=0.016666666666666666
EXTRACT: note_on channel=6 note=61 velocity=0 time=0
EXTRACT: note_on channel=2 note=70 velocity=0 time=0.016666666666666666
EXTRACT: note_on channel=6 note=70 velocity=0 time=0
EXTRACT: note_on channel=9 note=44 velocity=71 time=0.06666666666666667
EXTRACT: note_on channel=9 note=54 velocity=71 time=0
EXTRACT: note_on channel=1 note=37 velocity=114 time=0
EXTRACT: note_on channel=2 note=68 velocity=75 time=0
EXTRACT: note_on channel=2 note=65 velocity=75 time=0
EXTRACT: note_on channel=2 note=61 velocity=75 time=0
EXTRACT: note_on channel=4 note=49 velocity=114 time=0
EXTRACT: note_on channel=5 note=61 velocity=90 time=0
EXTRACT: note_on channel=6 note=68 velocity=75 time=0
EXTRACT: note_on channel=6 note=65 velocity=75 time=0
EXTRACT: note_on channel=6 note=61 velocity=75 time=0
EXTRACT: note_on channel=9 note=54 velocity=0 time=0.1
EXTRACT: note_on channel=9 note=44 velocity=0 time=0
EXTRACT: note_on channel=9 note=55 velocity=0 time=0.016666666666666666
EXTRACT: note_on channel=9 note=54 velocity=91 time=0.05
EXTRACT: note_on channel=9 note=36 velocity=114 time=0
EXTRACT: note_on channel=9 note=36 velocity=0 time=0.08333333333333333
EXTRACT: note_on channel=5 note=61 velocity=0 time=0.03333333333333333
EXTRACT: note_on channel=4 note=49 velocity=0 time=0.016666666666666666
EXTRACT: note_on channel=9 note=54 velocity=0 time=0.03333333333333333
EXTRACT: note_on channel=9 note=54 velocity=71 time=0.16666666666666666
EXTRACT: note_on channel=4 note=56 velocity=114 time=0
EXTRACT: note_on channel=1 note=37 velocity=0 time=0.016666666666666666
EXTRACT: note_on channel=9 note=54 velocity=0 time=0.08333333333333333
EXTRACT: note_on channel=4 note=56 velocity=0 time=0.05
EXTRACT: note_on channel=9 note=42 velocity=71 time=0.016666666666666666
EXTRACT: note_on channel=9 note=54 velocity=64 time=0
EXTRACT: note_on channel=9 note=38 velocity=71 time=0
EXTRACT: note_on channel=9 note=36 velocity=71 time=0
EXTRACT: note_on channel=9 note=40 velocity=71 time=0
EXTRACT: note_on channel=9 note=44 velocity=64 time=0
EXTRACT: note_on channel=4 note=61 velocity=114 time=0
EXTRACT: note_on channel=5 note=58 velocity=91 time=0
EXTRACT: note_on channel=9 note=42 velocity=0 time=0.1
EXTRACT: note_on channel=9 note=40 velocity=0 time=0
EXTRACT: note_on channel=9 note=38 velocity=0 time=0
EXTRACT: note_on channel=9 note=36 velocity=0 time=0
EXTRACT: note_on channel=9 note=44 velocity=0 time=0.016666666666666666
EXTRACT: note_on channel=9 note=54 velocity=0 time=0
EXTRACT: note_on channel=4 note=61 velocity=0 time=0.1
EXTRACT: note_on channel=5 note=58 velocity=0 time=0.06666666666666667
EXTRACT: note_on channel=9 note=44 velocity=71 time=0.05
EXTRACT: note_on channel=9 note=54 velocity=71 time=0
EXTRACT: note_on channel=4 note=49 velocity=114 time=0
EXTRACT: note_on channel=2 note=61 velocity=0 time=0.05
EXTRACT: note_on channel=6 note=61 velocity=0 time=0
EXTRACT: note_on channel=9 note=44 velocity=0 time=0.05
EXTRACT: note_on channel=9 note=54 velocity=0 time=0
EXTRACT: note_on channel=2 note=65 velocity=0 time=0
EXTRACT: note_on channel=6 note=65 velocity=0 time=0
EXTRACT: note_on channel=2 note=68 velocity=0 time=0.016666666666666666
EXTRACT: note_on channel=6 note=68 velocity=0 time=0
EXTRACT: note_on channel=4 note=49 velocity=0 time=0.016666666666666666
EXTRACT: note_on channel=9 note=54 velocity=91 time=0.03333333333333333
EXTRACT: note_on channel=9 note=36 velocity=114 time=0
EXTRACT: note_on channel=1 note=39 velocity=114 time=0
EXTRACT: note_on channel=2 note=58 velocity=75 time=0
EXTRACT: note_on channel=2 note=67 velocity=75 time=0
EXTRACT: note_on channel=2 note=63 velocity=75 time=0
EXTRACT: note_on channel=4 note=51 velocity=114 time=0
EXTRACT: note_on channel=6 note=58 velocity=75 time=0
EXTRACT: note_on channel=6 note=67 velocity=75 time=0
EXTRACT: note_on channel=6 note=63 velocity=75 time=0
EXTRACT: note_on channel=9 note=36 velocity=0 time=0.08333333333333333
EXTRACT: note_on channel=9 note=54 velocity=0 time=0.08333333333333333
EXTRACT: note_on channel=4 note=51 velocity=0 time=0
EXTRACT: note_on channel=9 note=54 velocity=71 time=0.16666666666666666
EXTRACT: note_on channel=4 note=58 velocity=114 time=0
EXTRACT: note_on channel=9 note=54 velocity=0 time=0.1
EXTRACT: note_on channel=1 note=39 velocity=0 time=0.05
EXTRACT: note_on channel=4 note=58 velocity=0 time=0
EXTRACT: note_on channel=9 note=54 velocity=64 time=0.016666666666666666
EXTRACT: note_on channel=9 note=40 velocity=71 time=0
EXTRACT: note_on channel=9 note=38 velocity=71 time=0
EXTRACT: note_on channel=9 note=44 velocity=64 time=0
EXTRACT: note_on channel=9 note=42 velocity=71 time=0
EXTRACT: note_on channel=9 note=36 velocity=71 time=0
EXTRACT: note_on channel=4 note=63 velocity=114 time=0
EXTRACT: note_on channel=9 note=38 velocity=0 time=0.1
EXTRACT: note_on channel=9 note=36 velocity=0 time=0
EXTRACT: note_on channel=9 note=42 velocity=0 time=0
EXTRACT: note_on channel=9 note=40 velocity=0 time=0
EXTRACT: note_on channel=9 note=54 velocity=0 time=0.016666666666666666
EXTRACT: note_on channel=9 note=44 velocity=0 time=0
EXTRACT: note_on channel=4 note=63 velocity=0 time=0.1
EXTRACT: note_on channel=2 note=63 velocity=0 time=0.03333333333333333
EXTRACT: note_on channel=6 note=63 velocity=0 time=0
EXTRACT: note_on channel=2 note=67 velocity=0 time=0.016666666666666666
EXTRACT: note_on channel=2 note=58 velocity=0 time=0
EXTRACT: note_on channel=6 note=58 velocity=0 time=0
EXTRACT: note_on channel=6 note=67 velocity=0 time=0
EXTRACT: note_on channel=9 note=54 velocity=71 time=0.06666666666666667
EXTRACT: note_on channel=9 note=44 velocity=71 time=0
EXTRACT: note_on channel=1 note=30 velocity=114 time=0
EXTRACT: note_on channel=2 note=58 velocity=75 time=0
EXTRACT: note_on channel=2 note=66 velocity=75 time=0
EXTRACT: note_on channel=2 note=61 velocity=75 time=0
EXTRACT: note_on channel=4 note=42 velocity=114 time=0
EXTRACT: note_on channel=5 note=65 velocity=90 time=0
EXTRACT: note_on channel=6 note=61 velocity=75 time=0
EXTRACT: note_on channel=6 note=66 velocity=75 time=0
EXTRACT: note_on channel=6 note=58 velocity=75 time=0
EXTRACT: note_on channel=9 note=54 velocity=0 time=0.1
EXTRACT: note_on channel=9 note=44 velocity=0 time=0
EXTRACT: note_on channel=9 note=54 velocity=91 time=0.06666666666666667
EXTRACT: note_on channel=9 note=36 velocity=114 time=0
EXTRACT: note_on channel=9 note=36 velocity=0 time=0.08333333333333333
EXTRACT: note_on channel=5 note=65 velocity=0 time=0.03333333333333333
EXTRACT: note_on channel=4 note=42 velocity=0 time=0.03333333333333333
EXTRACT: note_on channel=9 note=54 velocity=0 time=0.016666666666666666
EXTRACT: note_on channel=1 note=30 velocity=0 time=0.15
EXTRACT: note_on channel=9 note=54 velocity=71 time=0.016666666666666666
EXTRACT: note_on channel=4 note=49 velocity=114 time=0
EXTRACT: note_on channel=9 note=54 velocity=0 time=0.1
EXTRACT: note_on channel=4 note=49 velocity=0 time=0.05
EXTRACT: note_on channel=9 note=36 velocity=71 time=0.016666666666666666
EXTRACT: note_on channel=9 note=40 velocity=71 time=0
EXTRACT: note_on channel=9 note=42 velocity=71 time=0
EXTRACT: note_on channel=9 note=54 velocity=64 time=0
EXTRACT: note_on channel=9 note=44 velocity=64 time=0
EXTRACT: note_on channel=9 note=38 velocity=71 time=0
EXTRACT: note_on channel=4 note=54 velocity=114 time=0
EXTRACT: note_on channel=5 note=61 velocity=90 time=0
EXTRACT: note_on channel=9 note=42 velocity=0 time=0.1
EXTRACT: note_on channel=9 note=36 velocity=0 time=0
EXTRACT: note_on channel=9 note=38 velocity=0 time=0
EXTRACT: note_on channel=9 note=40 velocity=0 time=0
EXTRACT: note_on channel=9 note=54 velocity=0 time=0.016666666666666666
EXTRACT: note_on channel=9 note=44 velocity=0 time=0
EXTRACT: note_on channel=4 note=54 velocity=0 time=0.1
EXTRACT: note_on channel=5 note=61 velocity=0 time=0.06666666666666667
EXTRACT: note_on channel=9 note=54 velocity=64 time=0.05
EXTRACT: note_on channel=9 note=42 velocity=64 time=0
EXTRACT: note_on channel=1 note=30 velocity=114 time=0
EXTRACT: note_on channel=4 note=42 velocity=114 time=0
EXTRACT: note_on channel=2 note=66 velocity=0 time=0.06666666666666667
EXTRACT: note_on channel=2 note=61 velocity=0 time=0
EXTRACT: note_on channel=6 note=66 velocity=0 time=0
EXTRACT: note_on channel=6 note=61 velocity=0 time=0
EXTRACT: note_on channel=2 note=58 velocity=0 time=0.016666666666666666
EXTRACT: note_on channel=6 note=58 velocity=0 time=0
EXTRACT: note_on channel=9 note=54 velocity=0 time=0.016666666666666666
EXTRACT: note_on channel=9 note=42 velocity=0 time=0.016666666666666666
EXTRACT: note_on channel=1 note=30 velocity=0 time=0.016666666666666666
EXTRACT: note_on channel=4 note=42 velocity=0 time=0.016666666666666666
EXTRACT: note_on channel=9 note=54 velocity=91 time=0.016666666666666666
EXTRACT: note_on channel=9 note=36 velocity=114 time=0
EXTRACT: note_on channel=1 note=34 velocity=114 time=0
EXTRACT: note_on channel=2 note=61 velocity=75 time=0
EXTRACT: note_on channel=2 note=70 velocity=75 time=0
EXTRACT: note_on channel=2 note=65 velocity=75 time=0
EXTRACT: note_on channel=4 note=46 velocity=114 time=0
EXTRACT: note_on channel=6 note=65 velocity=75 time=0
EXTRACT: note_on channel=6 note=70 velocity=75 time=0
EXTRACT: note_on channel=6 note=61 velocity=75 time=0
EXTRACT: note_on channel=9 note=36 velocity=0 time=0.08333333333333333
EXTRACT: note_on channel=9 note=54 velocity=0 time=0.08333333333333333
EXTRACT: note_on channel=4 note=46 velocity=0 time=0.06666666666666667
EXTRACT: note_on channel=9 note=54 velocity=71 time=0.1
EXTRACT: note_on channel=4 note=53 velocity=114 time=0
EXTRACT: note_on channel=1 note=34 velocity=0 time=0.08333333333333333
EXTRACT: note_on channel=9 note=54 velocity=0 time=0.016666666666666666
EXTRACT: note_on channel=9 note=36 velocity=71 time=0.06666666666666667
EXTRACT: note_on channel=9 note=40 velocity=71 time=0
EXTRACT: note_on channel=9 note=54 velocity=64 time=0
EXTRACT: note_on channel=9 note=42 velocity=71 time=0
EXTRACT: note_on channel=9 note=44 velocity=64 time=0
EXTRACT: note_on channel=9 note=38 velocity=71 time=0
EXTRACT: note_on channel=4 note=58 velocity=114 time=0
EXTRACT: note_on channel=4 note=53 velocity=0 time=0
EXTRACT: note_on channel=9 note=40 velocity=0 time=0.1
EXTRACT: note_on channel=9 note=36 velocity=0 time=0
EXTRACT: note_on channel=9 note=38 velocity=0 time=0
EXTRACT: note_on channel=9 note=42 velocity=0 time=0
EXTRACT: note_on channel=9 note=44 velocity=0 time=0.016666666666666666
EXTRACT: note_on channel=9 note=54 velocity=0 time=0
EXTRACT: note_on channel=4 note=58 velocity=0 time=0.1
EXTRACT: note_on channel=2 note=65 velocity=0 time=0.016666666666666666
EXTRACT: note_on channel=6 note=65 velocity=0 time=0
EXTRACT: note_on channel=2 note=61 velocity=0 time=0.016666666666666666
EXTRACT: note_on channel=6 note=61 velocity=0 time=0
EXTRACT: note_on channel=2 note=70 velocity=0 time=0.016666666666666666
EXTRACT: note_on channel=6 note=70 velocity=0 time=0
EXTRACT: note_on channel=9 note=44 velocity=71 time=0.06666666666666667
EXTRACT: note_on channel=9 note=54 velocity=71 time=0
EXTRACT: note_on channel=1 note=37 velocity=114 time=0
EXTRACT: note_on channel=2 note=61 velocity=75 time=0
EXTRACT: note_on channel=2 note=68 velocity=75 time=0
EXTRACT: note_on channel=2 note=65 velocity=75 time=0
EXTRACT: note_on channel=4 note=49 velocity=114 time=0
EXTRACT: note_on channel=5 note=61 velocity=90 time=0
EXTRACT: note_on channel=6 note=61 velocity=75 time=0
EXTRACT: note_on channel=6 note=65 velocity=75 time=0
EXTRACT: note_on channel=6 note=68 velocity=75 time=0
EXTRACT: note_on channel=9 note=44 velocity=0 time=0.1
EXTRACT: note_on channel=9 note=54 velocity=0 time=0
EXTRACT: note_on channel=9 note=54 velocity=91 time=0.06666666666666667
EXTRACT: note_on channel=9 note=36 velocity=114 time=0
EXTRACT: note_on channel=9 note=36 velocity=0 time=0.08333333333333333
EXTRACT: note_on channel=5 note=61 velocity=0 time=0.03333333333333333
EXTRACT: note_on channel=4 note=49 velocity=0 time=0.016666666666666666
EXTRACT: note_on channel=9 note=54 velocity=0 time=0.03333333333333333
EXTRACT: note_on channel=9 note=54 velocity=71 time=0.16666666666666666
EXTRACT: note_on channel=4 note=56 velocity=114 time=0
EXTRACT: note_on channel=1 note=37 velocity=0 time=0.016666666666666666
EXTRACT: note_on channel=9 note=54 velocity=0 time=0.08333333333333333
EXTRACT: note_on channel=4 note=56 velocity=0 time=0.05
EXTRACT: note_on channel=9 note=38 velocity=71 time=0.016666666666666666
EXTRACT: note_on channel=9 note=36 velocity=71 time=0
EXTRACT: note_on channel=9 note=44 velocity=64 time=0
EXTRACT: note_on channel=9 note=42 velocity=71 time=0
EXTRACT: note_on channel=9 note=54 velocity=64 time=0
EXTRACT: note_on channel=9 note=40 velocity=71 time=0
EXTRACT: note_on channel=4 note=61 velocity=114 time=0
EXTRACT: note_on channel=5 note=58 velocity=91 time=0
EXTRACT: note_on channel=9 note=38 velocity=0 time=0.1
EXTRACT: note_on channel=9 note=36 velocity=0 time=0
EXTRACT: note_on channel=9 note=40 velocity=0 time=0
EXTRACT: note_on channel=9 note=42 velocity=0 time=0
EXTRACT: note_on channel=9 note=54 velocity=0 time=0.016666666666666666
EXTRACT: note_on channel=9 note=44 velocity=0 time=0
EXTRACT: note_on channel=4 note=61 velocity=0 time=0.1
EXTRACT: note_on channel=5 note=58 velocity=0 time=0.06666666666666667
EXTRACT: note_on channel=9 note=44 velocity=71 time=0.05
EXTRACT: note_on channel=9 note=54 velocity=71 time=0
EXTRACT: note_on channel=4 note=49 velocity=114 time=0
EXTRACT: note_on channel=2 note=61 velocity=0 time=0.05
EXTRACT: note_on channel=6 note=61 velocity=0 time=0
EXTRACT: note_on channel=9 note=54 velocity=0 time=0.05
EXTRACT: note_on channel=9 note=44 velocity=0 time=0
EXTRACT: note_on channel=2 note=65 velocity=0 time=0
EXTRACT: note_on channel=6 note=65 velocity=0 time=0
EXTRACT: note_on channel=2 note=68 velocity=0 time=0.016666666666666666
EXTRACT: note_on channel=6 note=68 velocity=0 time=0
EXTRACT: note_on channel=4 note=49 velocity=0 time=0.016666666666666666
EXTRACT: note_on channel=9 note=36 velocity=114 time=0.03333333333333333
EXTRACT: note_on channel=9 note=54 velocity=91 time=0
EXTRACT: note_on channel=1 note=39 velocity=114 time=0
EXTRACT: note_on channel=2 note=67 velocity=75 time=0
EXTRACT: note_on channel=2 note=63 velocity=75 time=0
EXTRACT: note_on channel=2 note=58 velocity=75 time=0
EXTRACT: note_on channel=4 note=51 velocity=114 time=0
EXTRACT: note_on channel=6 note=63 velocity=75 time=0
EXTRACT: note_on channel=6 note=67 velocity=75 time=0
EXTRACT: note_on channel=6 note=58 velocity=75 time=0
EXTRACT: note_on channel=9 note=36 velocity=0 time=0.08333333333333333
EXTRACT: note_on channel=9 note=54 velocity=0 time=0.08333333333333333
EXTRACT: note_on channel=4 note=51 velocity=0 time=0
EXTRACT: note_on channel=9 note=54 velocity=71 time=0.16666666666666666
EXTRACT: note_on channel=4 note=58 velocity=114 time=0
EXTRACT: note_on channel=9 note=54 velocity=0 time=0.1
EXTRACT: note_on channel=1 note=39 velocity=0 time=0.05
EXTRACT: note_on channel=4 note=58 velocity=0 time=0
EXTRACT: note_on channel=9 note=42 velocity=71 time=0.016666666666666666
EXTRACT: note_on channel=9 note=44 velocity=64 time=0
EXTRACT: note_on channel=9 note=36 velocity=71 time=0
EXTRACT: note_on channel=9 note=38 velocity=71 time=0
EXTRACT: note_on channel=9 note=54 velocity=64 time=0
EXTRACT: note_on channel=9 note=40 velocity=71 time=0
EXTRACT: note_on channel=4 note=63 velocity=114 time=0
EXTRACT: note_on channel=9 note=40 velocity=0 time=0.1
EXTRACT: note_on channel=9 note=38 velocity=0 time=0
EXTRACT: note_on channel=9 note=36 velocity=0 time=0
EXTRACT: note_on channel=9 note=42 velocity=0 time=0
EXTRACT: note_on channel=9 note=44 velocity=0 time=0.016666666666666666
EXTRACT: note_on channel=9 note=54 velocity=0 time=0
EXTRACT: note_on channel=4 note=63 velocity=0 time=0.1
EXTRACT: note_on channel=2 note=63 velocity=0 time=0.03333333333333333
EXTRACT: note_on channel=6 note=63 velocity=0 time=0
EXTRACT: note_on channel=2 note=58 velocity=0 time=0.016666666666666666
EXTRACT: note_on channel=2 note=67 velocity=0 time=0
EXTRACT: note_on channel=6 note=58 velocity=0 time=0
EXTRACT: note_on channel=6 note=67 velocity=0 time=0
EXTRACT: note_on channel=9 note=44 velocity=71 time=0.06666666666666667
EXTRACT: note_on channel=9 note=54 velocity=71 time=0
EXTRACT: note_on channel=1 note=30 velocity=114 time=0
EXTRACT: note_on channel=2 note=58 velocity=75 time=0
EXTRACT: note_on channel=2 note=61 velocity=75 time=0
EXTRACT: note_on channel=2 note=66 velocity=75 time=0
EXTRACT: note_on channel=4 note=42 velocity=114 time=0
EXTRACT: note_on channel=5 note=65 velocity=90 time=0
EXTRACT: note_on channel=6 note=66 velocity=75 time=0
EXTRACT: note_on channel=6 note=58 velocity=75 time=0
EXTRACT: note_on channel=6 note=61 velocity=75 time=0
EXTRACT: note_on channel=9 note=44 velocity=0 time=0.1
EXTRACT: note_on channel=9 note=54 velocity=0 time=0
EXTRACT: note_on channel=9 note=36 velocity=114 time=0.06666666666666667
EXTRACT: note_on channel=9 note=54 velocity=91 time=0
EXTRACT: note_on channel=9 note=36 velocity=0 time=0.08333333333333333
EXTRACT: note_on channel=5 note=65 velocity=0 time=0.03333333333333333
EXTRACT: note_on channel=4 note=42 velocity=0 time=0.03333333333333333
EXTRACT: note_on channel=9 note=54 velocity=0 time=0.016666666666666666
EXTRACT: note_on channel=1 note=30 velocity=0 time=0.15
EXTRACT: note_on channel=9 note=54 velocity=71 time=0.016666666666666666
EXTRACT: note_on channel=4 note=49 velocity=114 time=0
EXTRACT: note_on channel=9 note=54 velocity=0 time=0.1
EXTRACT: note_on channel=4 note=49 velocity=0 time=0.05
EXTRACT: note_on channel=9 note=44 velocity=64 time=0.016666666666666666
EXTRACT: note_on channel=9 note=36 velocity=71 time=0
EXTRACT: note_on channel=9 note=42 velocity=71 time=0
EXTRACT: note_on channel=9 note=54 velocity=64 time=0
EXTRACT: note_on channel=9 note=38 velocity=71 time=0
EXTRACT: note_on channel=9 note=40 velocity=71 time=0
EXTRACT: note_on channel=4 note=54 velocity=114 time=0
EXTRACT: note_on channel=5 note=61 velocity=90 time=0
EXTRACT: note_on channel=9 note=40 velocity=0 time=0.1
EXTRACT: note_on channel=9 note=36 velocity=0 time=0
EXTRACT: note_on channel=9 note=42 velocity=0 time=0
EXTRACT: note_on channel=9 note=38 velocity=0 time=0
EXTRACT: note_on channel=9 note=54 velocity=0 time=0.016666666666666666
EXTRACT: note_on channel=9 note=44 velocity=0 time=0
EXTRACT: note_on channel=4 note=54 velocity=0 time=0.1
EXTRACT: note_on channel=5 note=61 velocity=0 time=0.06666666666666667
EXTRACT: note_on channel=9 note=42 velocity=71 time=0.05
EXTRACT: note_on channel=9 note=54 velocity=64 time=0
EXTRACT: note_on channel=1 note=30 velocity=114 time=0
EXTRACT: note_on channel=4 note=42 velocity=114 time=0
EXTRACT: note_on channel=2 note=61 velocity=0 time=0.06666666666666667
EXTRACT: note_on channel=2 note=66 velocity=0 time=0
EXTRACT: note_on channel=6 note=61 velocity=0 time=0
EXTRACT: note_on channel=6 note=66 velocity=0 time=0
EXTRACT: note_on channel=2 note=58 velocity=0 time=0.016666666666666666
EXTRACT: note_on channel=6 note=58 velocity=0 time=0
EXTRACT: note_on channel=9 note=42 velocity=0 time=0.016666666666666666
EXTRACT: note_on channel=9 note=54 velocity=0 time=0
EXTRACT: note_on channel=1 note=30 velocity=0 time=0.03333333333333333
EXTRACT: note_on channel=4 note=42 velocity=0 time=0.016666666666666666
EXTRACT: note_on channel=9 note=55 velocity=91 time=0.016666666666666666
EXTRACT: note_on channel=9 note=54 velocity=91 time=0
EXTRACT: note_on channel=9 note=36 velocity=114 time=0
EXTRACT: note_on channel=1 note=34 velocity=114 time=0
EXTRACT: note_on channel=2 note=65 velocity=75 time=0
EXTRACT: note_on channel=2 note=61 velocity=75 time=0
EXTRACT: note_on channel=2 note=70 velocity=75 time=0
EXTRACT: note_on channel=3 note=73 velocity=75 time=0
EXTRACT: note_on channel=3 note=65 velocity=75 time=0
EXTRACT: note_on channel=4 note=46 velocity=114 time=0
EXTRACT: note_on channel=6 note=61 velocity=75 time=0
EXTRACT: note_on channel=6 note=65 velocity=75 time=0
EXTRACT: note_on channel=6 note=70 velocity=75 time=0
EXTRACT: note_on channel=9 note=36 velocity=0 time=0.08333333333333333
EXTRACT: note_on channel=9 note=54 velocity=0 time=0.08333333333333333
EXTRACT: note_on channel=4 note=46 velocity=0 time=0.06666666666666667
EXTRACT: note_on channel=9 note=54 velocity=71 time=0.1
EXTRACT: note_on channel=4 note=53 velocity=114 time=0
EXTRACT: note_on channel=1 note=34 velocity=0 time=0.08333333333333333
EXTRACT: note_on channel=9 note=54 velocity=0 time=0.016666666666666666
EXTRACT: note_on channel=3 note=73 velocity=0 time=0.05
EXTRACT: note_on channel=3 note=65 velocity=0 time=0
EXTRACT: note_on channel=9 note=42 velocity=71 time=0.016666666666666666
EXTRACT: note_on channel=9 note=44 velocity=64 time=0
EXTRACT: note_on channel=9 note=54 velocity=64 time=0
EXTRACT: note_on channel=9 note=36 velocity=71 time=0
EXTRACT: note_on channel=9 note=40 velocity=71 time=0
EXTRACT: note_on channel=9 note=38 velocity=71 time=0
EXTRACT: note_on channel=4 note=53 velocity=0 time=0
EXTRACT: note_on channel=4 note=58 velocity=114 time=0
EXTRACT: note_on channel=9 note=40 velocity=0 time=0.1
EXTRACT: note_on channel=9 note=36 velocity=0 time=0
EXTRACT: note_on channel=9 note=38 velocity=0 time=0
EXTRACT: note_on channel=9 note=42 velocity=0 time=0
EXTRACT: note_on channel=9 note=44 velocity=0 time=0.016666666666666666
EXTRACT: note_on channel=9 note=54 velocity=0 time=0
EXTRACT: note_on channel=4 note=58 velocity=0 time=0.1
EXTRACT: note_on channel=2 note=65 velocity=0 time=0.016666666666666666
EXTRACT: note_on channel=6 note=65 velocity=0 time=0
EXTRACT: note_on channel=2 note=61 velocity=0 time=0.016666666666666666
EXTRACT: note_on channel=6 note=61 velocity=0 time=0
EXTRACT: note_on channel=2 note=70 velocity=0 time=0.016666666666666666
EXTRACT: note_on channel=6 note=70 velocity=0 time=0
EXTRACT: note_on channel=9 note=44 velocity=71 time=0.06666666666666667
EXTRACT: note_on channel=9 note=54 velocity=71 time=0
EXTRACT: note_on channel=1 note=37 velocity=114 time=0
EXTRACT: note_on channel=2 note=68 velocity=75 time=0
EXTRACT: note_on channel=2 note=65 velocity=75 time=0
EXTRACT: note_on channel=2 note=61 velocity=75 time=0
EXTRACT: note_on channel=4 note=49 velocity=114 time=0
EXTRACT: note_on channel=5 note=61 velocity=90 time=0
EXTRACT: note_on channel=6 note=65 velocity=75 time=0
EXTRACT: note_on channel=6 note=61 velocity=75 time=0
EXTRACT: note_on channel=6 note=68 velocity=75 time=0
EXTRACT: note_on channel=9 note=44 velocity=0 time=0.1
EXTRACT: note_on channel=9 note=54 velocity=0 time=0
EXTRACT: note_on channel=9 note=55 velocity=0 time=0.016666666666666666
EXTRACT: note_on channel=9 note=36 velocity=114 time=0.05
EXTRACT: note_on channel=9 note=54 velocity=91 time=0
EXTRACT: note_on channel=9 note=36 velocity=0 time=0.08333333333333333
EXTRACT: note_on channel=5 note=61 velocity=0 time=0.03333333333333333
EXTRACT: note_on channel=4 note=49 velocity=0 time=0.016666666666666666
EXTRACT: note_on channel=9 note=54 velocity=0 time=0.03333333333333333
EXTRACT: note_on channel=9 note=54 velocity=71 time=0.16666666666666666
EXTRACT: note_on channel=4 note=56 velocity=114 time=0
EXTRACT: note_on channel=1 note=37 velocity=0 time=0.016666666666666666
EXTRACT: note_on channel=9 note=54 velocity=0 time=0.08333333333333333
EXTRACT: note_on channel=4 note=56 velocity=0 time=0.05
EXTRACT: note_on channel=9 note=42 velocity=71 time=0.016666666666666666
EXTRACT: note_on channel=9 note=54 velocity=64 time=0
EXTRACT: note_on channel=9 note=44 velocity=64 time=0
EXTRACT: note_on channel=9 note=40 velocity=71 time=0
EXTRACT: note_on channel=9 note=36 velocity=71 time=0
EXTRACT: note_on channel=9 note=38 velocity=71 time=0
EXTRACT: note_on channel=4 note=61 velocity=114 time=0
EXTRACT: note_on channel=5 note=58 velocity=91 time=0
EXTRACT: note_on channel=9 note=42 velocity=0 time=0.1
EXTRACT: note_on channel=9 note=36 velocity=0 time=0
EXTRACT: note_on channel=9 note=40 velocity=0 time=0
EXTRACT: note_on channel=9 note=38 velocity=0 time=0
EXTRACT: note_on channel=9 note=44 velocity=0 time=0.016666666666666666
EXTRACT: note_on channel=9 note=54 velocity=0 time=0
EXTRACT: note_on channel=4 note=61 velocity=0 time=0.1
EXTRACT: note_on channel=5 note=58 velocity=0 time=0.06666666666666667
EXTRACT: note_on channel=9 note=54 velocity=71 time=0.05
EXTRACT: note_on channel=9 note=44 velocity=71 time=0
EXTRACT: note_on channel=4 note=49 velocity=114 time=0
EXTRACT: note_on channel=2 note=61 velocity=0 time=0.05
EXTRACT: note_on channel=6 note=61 velocity=0 time=0
EXTRACT: note_on channel=9 note=54 velocity=0 time=0.05
EXTRACT: note_on channel=9 note=44 velocity=0 time=0
EXTRACT: note_on channel=2 note=65 velocity=0 time=0
EXTRACT: note_on channel=6 note=65 velocity=0 time=0
EXTRACT: note_on channel=2 note=68 velocity=0 time=0.016666666666666666
EXTRACT: note_on channel=6 note=68 velocity=0 time=0
EXTRACT: note_on channel=4 note=49 velocity=0 time=0.016666666666666666
EXTRACT: note_on channel=9 note=54 velocity=91 time=0.03333333333333333
EXTRACT: note_on channel=9 note=36 velocity=114 time=0
EXTRACT: note_on channel=1 note=39 velocity=114 time=0
EXTRACT: note_on channel=2 note=67 velocity=75 time=0
EXTRACT: note_on channel=2 note=58 velocity=75 time=0
EXTRACT: note_on channel=2 note=63 velocity=75 time=0
EXTRACT: note_on channel=4 note=51 velocity=114 time=0
EXTRACT: note_on channel=6 note=67 velocity=75 time=0
EXTRACT: note_on channel=6 note=58 velocity=75 time=0
EXTRACT: note_on channel=6 note=63 velocity=75 time=0
EXTRACT: note_on channel=9 note=36 velocity=0 time=0.08333333333333333
EXTRACT: note_on channel=9 note=54 velocity=0 time=0.08333333333333333
EXTRACT: note_on channel=4 note=51 velocity=0 time=0
EXTRACT: note_on channel=9 note=54 velocity=71 time=0.16666666666666666
EXTRACT: note_on channel=4 note=58 velocity=114 time=0
EXTRACT: note_on channel=9 note=54 velocity=0 time=0.1
EXTRACT: note_on channel=1 note=39 velocity=0 time=0.05
EXTRACT: note_on channel=4 note=58 velocity=0 time=0
EXTRACT: note_on channel=9 note=42 velocity=71 time=0.016666666666666666
EXTRACT: note_on channel=9 note=44 velocity=64 time=0
EXTRACT: note_on channel=9 note=36 velocity=71 time=0
EXTRACT: note_on channel=9 note=38 velocity=71 time=0
EXTRACT: note_on channel=9 note=54 velocity=64 time=0
EXTRACT: note_on channel=9 note=40 velocity=71 time=0
EXTRACT: note_on channel=4 note=63 velocity=114 time=0
EXTRACT: note_on channel=9 note=42 velocity=0 time=0.1
EXTRACT: note_on channel=9 note=36 velocity=0 time=0
EXTRACT: note_on channel=9 note=38 velocity=0 time=0
EXTRACT: note_on channel=9 note=40 velocity=0 time=0
EXTRACT: note_on channel=9 note=44 velocity=0 time=0.016666666666666666
EXTRACT: note_on channel=9 note=54 velocity=0 time=0
EXTRACT: note_on channel=4 note=63 velocity=0 time=0.1
EXTRACT: note_on channel=2 note=63 velocity=0 time=0.03333333333333333
EXTRACT: note_on channel=6 note=63 velocity=0 time=0
EXTRACT: note_on channel=2 note=58 velocity=0 time=0.016666666666666666
EXTRACT: note_on channel=2 note=67 velocity=0 time=0
EXTRACT: note_on channel=6 note=58 velocity=0 time=0
EXTRACT: note_on channel=6 note=67 velocity=0 time=0
EXTRACT: note_on channel=9 note=54 velocity=71 time=0.06666666666666667
EXTRACT: note_on channel=9 note=44 velocity=71 time=0
EXTRACT: note_on channel=1 note=30 velocity=114 time=0
EXTRACT: note_on channel=2 note=61 velocity=75 time=0
EXTRACT: note_on channel=2 note=58 velocity=75 time=0
EXTRACT: note_on channel=2 note=66 velocity=75 time=0
EXTRACT: note_on channel=4 note=42 velocity=114 time=0
EXTRACT: note_on channel=5 note=65 velocity=90 time=0
EXTRACT: note_on channel=6 note=61 velocity=75 time=0
EXTRACT: note_on channel=6 note=58 velocity=75 time=0
EXTRACT: note_on channel=6 note=66 velocity=75 time=0
EXTRACT: note_on channel=9 note=44 velocity=0 time=0.1
EXTRACT: note_on channel=9 note=54 velocity=0 time=0
EXTRACT: note_on channel=9 note=54 velocity=91 time=0.06666666666666667
EXTRACT: note_on channel=9 note=36 velocity=114 time=0
EXTRACT: note_on channel=9 note=36 velocity=0 time=0.08333333333333333
EXTRACT: note_on channel=5 note=65 velocity=0 time=0.03333333333333333
EXTRACT: note_on channel=4 note=42 velocity=0 time=0.03333333333333333
EXTRACT: note_on channel=9 note=54 velocity=0 time=0.016666666666666666
EXTRACT: note_on channel=1 note=30 velocity=0 time=0.15
EXTRACT: note_on channel=9 note=54 velocity=71 time=0.016666666666666666
EXTRACT: note_on channel=4 note=49 velocity=114 time=0
EXTRACT: note_on channel=9 note=54 velocity=0 time=0.1
EXTRACT: note_on channel=4 note=49 velocity=0 time=0.05
EXTRACT: note_on channel=9 note=44 velocity=64 time=0.016666666666666666
EXTRACT: note_on channel=9 note=54 velocity=64 time=0
EXTRACT: note_on channel=9 note=42 velocity=71 time=0
EXTRACT: note_on channel=9 note=38 velocity=71 time=0
EXTRACT: note_on channel=9 note=40 velocity=71 time=0
EXTRACT: note_on channel=9 note=36 velocity=71 time=0
EXTRACT: note_on channel=4 note=54 velocity=114 time=0
EXTRACT: note_on channel=5 note=61 velocity=90 time=0
EXTRACT: note_on channel=9 note=38 velocity=0 time=0.1
EXTRACT: note_on channel=9 note=40 velocity=0 time=0
EXTRACT: note_on channel=9 note=36 velocity=0 time=0
EXTRACT: note_on channel=9 note=42 velocity=0 time=0
EXTRACT: note_on channel=9 note=54 velocity=0 time=0.016666666666666666
EXTRACT: note_on channel=9 note=44 velocity=0 time=0
EXTRACT: note_on channel=4 note=54 velocity=0 time=0.1
EXTRACT: note_on channel=5 note=61 velocity=0 time=0.06666666666666667
EXTRACT: note_on channel=9 note=42 velocity=64 time=0.05
EXTRACT: note_on channel=9 note=54 velocity=64 time=0
EXTRACT: note_on channel=1 note=30 velocity=114 time=0
EXTRACT: note_on channel=4 note=42 velocity=114 time=0
EXTRACT: note_on channel=2 note=66 velocity=0 time=0.06666666666666667
EXTRACT: note_on channel=2 note=61 velocity=0 time=0
EXTRACT: note_on channel=6 note=66 velocity=0 time=0
EXTRACT: note_on channel=6 note=61 velocity=0 time=0
EXTRACT: note_on channel=2 note=58 velocity=0 time=0.016666666666666666
EXTRACT: note_on channel=6 note=58 velocity=0 time=0
EXTRACT: note_on channel=9 note=54 velocity=0 time=0.016666666666666666
EXTRACT: note_on channel=9 note=42 velocity=0 time=0.016666666666666666
EXTRACT: note_on channel=1 note=30 velocity=0 time=0.016666666666666666
EXTRACT: note_on channel=4 note=42 velocity=0 time=0.016666666666666666
EXTRACT: note_on channel=9 note=54 velocity=91 time=0.016666666666666666
EXTRACT: note_on channel=9 note=36 velocity=114 time=0
EXTRACT: note_on channel=1 note=34 velocity=114 time=0
EXTRACT: note_on channel=2 note=70 velocity=75 time=0
EXTRACT: note_on channel=2 note=65 velocity=75 time=0
EXTRACT: note_on channel=2 note=61 velocity=75 time=0
EXTRACT: note_on channel=4 note=46 velocity=114 time=0
EXTRACT: note_on channel=6 note=61 velocity=75 time=0
EXTRACT: note_on channel=6 note=65 velocity=75 time=0
EXTRACT: note_on channel=6 note=70 velocity=75 time=0
EXTRACT: note_on channel=9 note=36 velocity=0 time=0.08333333333333333
EXTRACT: note_on channel=9 note=54 velocity=0 time=0.08333333333333333
EXTRACT: note_on channel=4 note=46 velocity=0 time=0.06666666666666667
EXTRACT: note_on channel=9 note=54 velocity=71 time=0.1
EXTRACT: note_on channel=4 note=53 velocity=114 time=0
EXTRACT: note_on channel=1 note=34 velocity=0 time=0.08333333333333333
EXTRACT: note_on channel=9 note=54 velocity=0 time=0.016666666666666666
EXTRACT: note_on channel=9 note=40 velocity=71 time=0.06666666666666667
EXTRACT: note_on channel=9 note=44 velocity=64 time=0
EXTRACT: note_on channel=9 note=36 velocity=71 time=0
EXTRACT: note_on channel=9 note=38 velocity=71 time=0
EXTRACT: note_on channel=9 note=54 velocity=64 time=0
EXTRACT: note_on channel=9 note=42 velocity=71 time=0
EXTRACT: note_on channel=4 note=58 velocity=114 time=0
EXTRACT: note_on channel=4 note=53 velocity=0 time=0
EXTRACT: note_on channel=9 note=40 velocity=0 time=0.1
EXTRACT: note_on channel=9 note=36 velocity=0 time=0
EXTRACT: note_on channel=9 note=38 velocity=0 time=0
EXTRACT: note_on channel=9 note=42 velocity=0 time=0
EXTRACT: note_on channel=9 note=44 velocity=0 time=0.016666666666666666
EXTRACT: note_on channel=9 note=54 velocity=0 time=0
EXTRACT: note_on channel=4 note=58 velocity=0 time=0.1
EXTRACT: note_on channel=2 note=65 velocity=0 time=0.016666666666666666
EXTRACT: note_on channel=6 note=65 velocity=0 time=0
EXTRACT: note_on channel=2 note=61 velocity=0 time=0.016666666666666666
EXTRACT: note_on channel=6 note=61 velocity=0 time=0
EXTRACT: note_on channel=2 note=70 velocity=0 time=0.016666666666666666
EXTRACT: note_on channel=6 note=70 velocity=0 time=0
EXTRACT: note_on channel=9 note=44 velocity=71 time=0.06666666666666667
EXTRACT: note_on channel=9 note=54 velocity=71 time=0
EXTRACT: note_on channel=1 note=37 velocity=114 time=0
EXTRACT: note_on channel=2 note=65 velocity=75 time=0
EXTRACT: note_on channel=2 note=61 velocity=75 time=0
EXTRACT: note_on channel=2 note=68 velocity=75 time=0
EXTRACT: note_on channel=4 note=49 velocity=114 time=0
EXTRACT: note_on channel=5 note=61 velocity=90 time=0
EXTRACT: note_on channel=6 note=65 velocity=75 time=0
EXTRACT: note_on channel=6 note=68 velocity=75 time=0
EXTRACT: note_on channel=6 note=61 velocity=75 time=0
EXTRACT: note_on channel=9 note=44 velocity=0 time=0.1
EXTRACT: note_on channel=9 note=54 velocity=0 time=0
EXTRACT: note_on channel=9 note=36 velocity=114 time=0.06666666666666667
EXTRACT: note_on channel=9 note=54 velocity=91 time=0
EXTRACT: note_on channel=9 note=36 velocity=0 time=0.08333333333333333
EXTRACT: note_on channel=5 note=61 velocity=0 time=0.03333333333333333
EXTRACT: note_on channel=4 note=49 velocity=0 time=0.016666666666666666
EXTRACT: note_on channel=9 note=54 velocity=0 time=0.03333333333333333
EXTRACT: note_on channel=9 note=54 velocity=71 time=0.16666666666666666
EXTRACT: note_on channel=4 note=56 velocity=114 time=0
EXTRACT: note_on channel=1 note=37 velocity=0 time=0.016666666666666666
EXTRACT: note_on channel=9 note=54 velocity=0 time=0.08333333333333333
EXTRACT: note_on channel=4 note=56 velocity=0 time=0.05
EXTRACT: note_on channel=9 note=36 velocity=71 time=0.016666666666666666
EXTRACT: note_on channel=9 note=38 velocity=71 time=0
EXTRACT: note_on channel=9 note=54 velocity=64 time=0
EXTRACT: note_on channel=9 note=42 velocity=71 time=0
EXTRACT: note_on channel=9 note=40 velocity=71 time=0
EXTRACT: note_on channel=9 note=44 velocity=64 time=0
EXTRACT: note_on channel=4 note=61 velocity=114 time=0
EXTRACT: note_on channel=5 note=58 velocity=91 time=0
EXTRACT: note_on channel=9 note=40 velocity=0 time=0.1
EXTRACT: note_on channel=9 note=38 velocity=0 time=0
EXTRACT: note_on channel=9 note=42 velocity=0 time=0
EXTRACT: note_on channel=9 note=36 velocity=0 time=0
EXTRACT: note_on channel=9 note=44 velocity=0 time=0.016666666666666666
EXTRACT: note_on channel=9 note=54 velocity=0 time=0
EXTRACT: note_on channel=4 note=61 velocity=0 time=0.1
EXTRACT: note_on channel=5 note=58 velocity=0 time=0.06666666666666667
EXTRACT: note_on channel=9 note=54 velocity=71 time=0.05
EXTRACT: note_on channel=9 note=44 velocity=71 time=0
EXTRACT: note_on channel=4 note=49 velocity=114 time=0
EXTRACT: note_on channel=2 note=61 velocity=0 time=0.05
EXTRACT: note_on channel=6 note=61 velocity=0 time=0
EXTRACT: note_on channel=9 note=44 velocity=0 time=0.05
EXTRACT: note_on channel=9 note=54 velocity=0 time=0
EXTRACT: note_on channel=2 note=65 velocity=0 time=0
EXTRACT: note_on channel=6 note=65 velocity=0 time=0
EXTRACT: note_on channel=2 note=68 velocity=0 time=0.016666666666666666
EXTRACT: note_on channel=6 note=68 velocity=0 time=0
EXTRACT: note_on channel=4 note=49 velocity=0 time=0.016666666666666666
EXTRACT: note_on channel=9 note=36 velocity=114 time=0.03333333333333333
EXTRACT: note_on channel=9 note=54 velocity=91 time=0
EXTRACT: note_on channel=1 note=39 velocity=114 time=0
EXTRACT: note_on channel=2 note=58 velocity=75 time=0
EXTRACT: note_on channel=2 note=63 velocity=75 time=0
EXTRACT: note_on channel=2 note=67 velocity=75 time=0
EXTRACT: note_on channel=4 note=51 velocity=114 time=0
EXTRACT: note_on channel=6 note=63 velocity=75 time=0
EXTRACT: note_on channel=6 note=58 velocity=75 time=0
EXTRACT: note_on channel=6 note=67 velocity=75 time=0
EXTRACT: note_on channel=9 note=36 velocity=0 time=0.08333333333333333
EXTRACT: note_on channel=9 note=54 velocity=0 time=0.08333333333333333
EXTRACT: note_on channel=4 note=51 velocity=0 time=0
EXTRACT: note_on channel=9 note=54 velocity=71 time=0.16666666666666666
EXTRACT: note_on channel=4 note=58 velocity=114 time=0
EXTRACT: note_on channel=9 note=54 velocity=0 time=0.1
EXTRACT: note_on channel=1 note=39 velocity=0 time=0.05
EXTRACT: note_on channel=4 note=58 velocity=0 time=0
EXTRACT: note_on channel=9 note=42 velocity=71 time=0.016666666666666666
EXTRACT: note_on channel=9 note=54 velocity=64 time=0
EXTRACT: note_on channel=9 note=36 velocity=71 time=0
EXTRACT: note_on channel=9 note=38 velocity=71 time=0
EXTRACT: note_on channel=9 note=40 velocity=71 time=0
EXTRACT: note_on channel=9 note=44 velocity=64 time=0
EXTRACT: note_on channel=4 note=63 velocity=114 time=0
EXTRACT: note_on channel=9 note=42 velocity=0 time=0.1
EXTRACT: note_on channel=9 note=40 velocity=0 time=0
EXTRACT: note_on channel=9 note=38 velocity=0 time=0
EXTRACT: note_on channel=9 note=36 velocity=0 time=0
EXTRACT: note_on channel=9 note=54 velocity=0 time=0.016666666666666666
EXTRACT: note_on channel=9 note=44 velocity=0 time=0
EXTRACT: note_on channel=4 note=63 velocity=0 time=0.1
EXTRACT: note_on channel=2 note=63 velocity=0 time=0.03333333333333333
EXTRACT: note_on channel=6 note=63 velocity=0 time=0
EXTRACT: note_on channel=2 note=67 velocity=0 time=0.016666666666666666
EXTRACT: note_on channel=2 note=58 velocity=0 time=0
EXTRACT: note_on channel=6 note=67 velocity=0 time=0
EXTRACT: note_on channel=6 note=58 velocity=0 time=0
EXTRACT: note_on channel=9 note=54 velocity=71 time=0.06666666666666667
EXTRACT: note_on channel=9 note=44 velocity=71 time=0
EXTRACT: note_on channel=1 note=30 velocity=114 time=0
EXTRACT: note_on channel=2 note=61 velocity=75 time=0
EXTRACT: note_on channel=2 note=58 velocity=75 time=0
EXTRACT: note_on channel=2 note=66 velocity=75 time=0
EXTRACT: note_on channel=4 note=42 velocity=114 time=0
EXTRACT: note_on channel=5 note=65 velocity=90 time=0
EXTRACT: note_on channel=6 note=61 velocity=75 time=0
EXTRACT: note_on channel=6 note=58 velocity=75 time=0
EXTRACT: note_on channel=6 note=66 velocity=75 time=0
EXTRACT: note_on channel=9 note=54 velocity=0 time=0.1
EXTRACT: note_on channel=9 note=44 velocity=0 time=0
EXTRACT: note_on channel=9 note=36 velocity=114 time=0.06666666666666667
EXTRACT: note_on channel=9 note=54 velocity=91 time=0
EXTRACT: note_on channel=9 note=36 velocity=0 time=0.08333333333333333
EXTRACT: note_on channel=5 note=65 velocity=0 time=0.03333333333333333
EXTRACT: note_on channel=4 note=42 velocity=0 time=0.03333333333333333
EXTRACT: note_on channel=9 note=54 velocity=0 time=0.016666666666666666
EXTRACT: note_on channel=1 note=30 velocity=0 time=0.15
EXTRACT: note_on channel=9 note=54 velocity=71 time=0.016666666666666666
EXTRACT: note_on channel=4 note=49 velocity=114 time=0
EXTRACT: note_on channel=8 note=73 velocity=114 time=0
EXTRACT: note_on channel=9 note=54 velocity=0 time=0.1
EXTRACT: note_on channel=8 note=73 velocity=0 time=0.016666666666666666
EXTRACT: note_on channel=4 note=49 velocity=0 time=0.03333333333333333
EXTRACT: note_on channel=9 note=44 velocity=64 time=0.016666666666666666
EXTRACT: note_on channel=9 note=54 velocity=64 time=0
EXTRACT: note_on channel=9 note=38 velocity=71 time=0
EXTRACT: note_on channel=9 note=36 velocity=71 time=0
EXTRACT: note_on channel=9 note=40 velocity=71 time=0
EXTRACT: note_on channel=9 note=42 velocity=71 time=0
EXTRACT: note_on channel=4 note=54 velocity=114 time=0
EXTRACT: note_on channel=5 note=61 velocity=90 time=0
EXTRACT: note_on channel=8 note=73 velocity=114 time=0.08333333333333333
EXTRACT: note_on channel=9 note=36 velocity=0 time=0.016666666666666666
EXTRACT: note_on channel=9 note=40 velocity=0 time=0
EXTRACT: note_on channel=9 note=42 velocity=0 time=0
EXTRACT: note_on channel=9 note=38 velocity=0 time=0
EXTRACT: note_on channel=9 note=44 velocity=0 time=0.016666666666666666
EXTRACT: note_on channel=9 note=54 velocity=0 time=0
EXTRACT: note_on channel=4 note=54 velocity=0 time=0.1
EXTRACT: note_on channel=8 note=73 velocity=0 time=0.05
EXTRACT: note_on channel=5 note=61 velocity=0 time=0.016666666666666666
EXTRACT: note_on channel=9 note=54 velocity=64 time=0.05
EXTRACT: note_on channel=9 note=42 velocity=71 time=0
EXTRACT: note_on channel=1 note=30 velocity=114 time=0
EXTRACT: note_on channel=4 note=42 velocity=114 time=0
EXTRACT: note_on channel=8 note=75 velocity=114 time=0
EXTRACT: note_on channel=2 note=66 velocity=0 time=0.06666666666666667
EXTRACT: note_on channel=2 note=61 velocity=0 time=0
EXTRACT: note_on channel=6 note=61 velocity=0 time=0
EXTRACT: note_on channel=6 note=66 velocity=0 time=0
EXTRACT: note_on channel=2 note=58 velocity=0 time=0.016666666666666666
EXTRACT: note_on channel=6 note=58 velocity=0 time=0
EXTRACT: note_on channel=9 note=42 velocity=0 time=0.016666666666666666
EXTRACT: note_on channel=9 note=54 velocity=0 time=0
EXTRACT: note_on channel=1 note=30 velocity=0 time=0.03333333333333333
EXTRACT: note_on channel=4 note=42 velocity=0 time=0.016666666666666666
EXTRACT: note_on channel=8 note=75 velocity=0 time=0
EXTRACT: note_on channel=9 note=36 velocity=114 time=0.016666666666666666
EXTRACT: note_on channel=9 note=54 velocity=91 time=0
EXTRACT: note_on channel=9 note=55 velocity=91 time=0
EXTRACT: note_on channel=2 note=65 velocity=75 time=0
EXTRACT: note_on channel=2 note=70 velocity=75 time=0
EXTRACT: note_on channel=2 note=61 velocity=75 time=0
EXTRACT: note_on channel=3 note=73 velocity=75 time=0
EXTRACT: note_on channel=3 note=65 velocity=75 time=0
EXTRACT: note_on channel=4 note=46 velocity=77 time=0
EXTRACT: note_on channel=6 note=70 velocity=75 time=0
EXTRACT: note_on channel=6 note=65 velocity=75 time=0
EXTRACT: note_on channel=6 note=61 velocity=75 time=0
EXTRACT: note_on channel=8 note=77 velocity=114 time=0
EXTRACT: note_on channel=9 note=36 velocity=0 time=0.08333333333333333
EXTRACT: note_on channel=9 note=54 velocity=0 time=0.08333333333333333
EXTRACT: note_on channel=4 note=46 velocity=0 time=0.06666666666666667
EXTRACT: note_on channel=9 note=54 velocity=71 time=0.1
EXTRACT: note_on channel=4 note=53 velocity=77 time=0
EXTRACT: note_on channel=8 note=77 velocity=0 time=0
EXTRACT: note_on channel=9 note=54 velocity=0 time=0.1
EXTRACT: note_on channel=3 note=65 velocity=0 time=0.05
EXTRACT: note_on channel=3 note=73 velocity=0 time=0
EXTRACT: note_on channel=9 note=40 velocity=71 time=0.016666666666666666
EXTRACT: note_on channel=9 note=54 velocity=64 time=0
EXTRACT: note_on channel=9 note=44 velocity=64 time=0
EXTRACT: note_on channel=9 note=42 velocity=71 time=0
EXTRACT: note_on channel=9 note=36 velocity=71 time=0
EXTRACT: note_on channel=9 note=38 velocity=71 time=0
EXTRACT: note_on channel=4 note=58 velocity=77 time=0
EXTRACT: note_on channel=4 note=53 velocity=0 time=0.06666666666666667
EXTRACT: note_on channel=9 note=40 velocity=0 time=0.03333333333333333
EXTRACT: note_on channel=9 note=36 velocity=0 time=0
EXTRACT: note_on channel=9 note=42 velocity=0 time=0
EXTRACT: note_on channel=9 note=38 velocity=0 time=0
EXTRACT: note_on channel=9 note=54 velocity=0 time=0.016666666666666666
EXTRACT: note_on channel=9 note=44 velocity=0 time=0
EXTRACT: note_on channel=2 note=65 velocity=0 time=0.11666666666666667
EXTRACT: note_on channel=4 note=58 velocity=0 time=0
EXTRACT: note_on channel=6 note=65 velocity=0 time=0
EXTRACT: note_on channel=2 note=61 velocity=0 time=0.016666666666666666
EXTRACT: note_on channel=6 note=61 velocity=0 time=0
EXTRACT: note_on channel=2 note=70 velocity=0 time=0.016666666666666666
EXTRACT: note_on channel=6 note=70 velocity=0 time=0
EXTRACT: note_on channel=9 note=44 velocity=71 time=0.06666666666666667
EXTRACT: note_on channel=9 note=54 velocity=71 time=0
EXTRACT: note_on channel=2 note=68 velocity=75 time=0
EXTRACT: note_on channel=2 note=65 velocity=75 time=0
EXTRACT: note_on channel=2 note=61 velocity=75 time=0
EXTRACT: note_on channel=6 note=61 velocity=75 time=0
EXTRACT: note_on channel=6 note=65 velocity=75 time=0
EXTRACT: note_on channel=6 note=68 velocity=75 time=0
EXTRACT: note_on channel=8 note=77 velocity=114 time=0
EXTRACT: note_on channel=9 note=44 velocity=0 time=0.1
EXTRACT: note_on channel=9 note=54 velocity=0 time=0
EXTRACT: note_on channel=9 note=55 velocity=0 time=0.016666666666666666
EXTRACT: note_on channel=8 note=77 velocity=0 time=0
EXTRACT: note_on channel=9 note=54 velocity=91 time=0.05
EXTRACT: note_on channel=9 note=36 velocity=114 time=0
EXTRACT: note_on channel=8 note=77 velocity=114 time=0
EXTRACT: note_on channel=9 note=36 velocity=0 time=0.08333333333333333
EXTRACT: note_on channel=8 note=77 velocity=0 time=0.06666666666666667
EXTRACT: note_on channel=9 note=54 velocity=0 time=0.016666666666666666
EXTRACT: note_on channel=9 note=54 velocity=71 time=0.16666666666666666
EXTRACT: note_on channel=8 note=77 velocity=114 time=0
EXTRACT: note_on channel=9 note=54 velocity=0 time=0.1
EXTRACT: note_on channel=8 note=77 velocity=0 time=0.016666666666666666
EXTRACT: note_on channel=9 note=36 velocity=71 time=0.05
EXTRACT: note_on channel=9 note=38 velocity=71 time=0
EXTRACT: note_on channel=9 note=42 velocity=71 time=0
EXTRACT: note_on channel=9 note=40 velocity=71 time=0
EXTRACT: note_on channel=9 note=44 velocity=64 time=0
EXTRACT: note_on channel=9 note=54 velocity=64 time=0
EXTRACT: note_on channel=8 note=75 velocity=114 time=0
EXTRACT: note_on channel=9 note=42 velocity=0 time=0.1
EXTRACT: note_on channel=9 note=40 velocity=0 time=0
EXTRACT: note_on channel=9 note=36 velocity=0 time=0
EXTRACT: note_on channel=9 note=38 velocity=0 time=0
EXTRACT: note_on channel=9 note=54 velocity=0 time=0.016666666666666666
EXTRACT: note_on channel=9 note=44 velocity=0 time=0
EXTRACT: note_on channel=8 note=75 velocity=0 time=0.05
EXTRACT: note_on channel=9 note=44 velocity=71 time=0.16666666666666666
EXTRACT: note_on channel=9 note=54 velocity=71 time=0
EXTRACT: note_on channel=8 note=77 velocity=114 time=0
EXTRACT: note_on channel=2 note=61 velocity=0 time=0.05
EXTRACT: note_on channel=6 note=61 velocity=0 time=0
EXTRACT: note_on channel=9 note=44 velocity=0 time=0.05
EXTRACT: note_on channel=9 note=54 velocity=0 time=0
EXTRACT: note_on channel=2 note=65 velocity=0 time=0
EXTRACT: note_on channel=6 note=65 velocity=0 time=0
EXTRACT: note_on channel=2 note=68 velocity=0 time=0.016666666666666666
EXTRACT: note_on channel=6 note=68 velocity=0 time=0
EXTRACT: note_on channel=8 note=77 velocity=0 time=0
EXTRACT: note_on channel=9 note=36 velocity=114 time=0.05
EXTRACT: note_on channel=9 note=54 velocity=91 time=0
EXTRACT: note_on channel=2 note=67 velocity=75 time=0
EXTRACT: note_on channel=2 note=58 velocity=75 time=0
EXTRACT: note_on channel=2 note=63 velocity=75 time=0
EXTRACT: note_on channel=6 note=63 velocity=75 time=0
EXTRACT: note_on channel=6 note=67 velocity=75 time=0
EXTRACT: note_on channel=6 note=58 velocity=75 time=0
EXTRACT: note_on channel=8 note=75 velocity=114 time=0
EXTRACT: note_on channel=9 note=36 velocity=0 time=0.08333333333333333
EXTRACT: note_on channel=8 note=75 velocity=0 time=0.03333333333333333
EXTRACT: note_on channel=9 note=54 velocity=0 time=0.05
EXTRACT: note_on channel=8 note=73 velocity=114 time=0
EXTRACT: note_on channel=8 note=73 velocity=0 time=0.11666666666666667
EXTRACT: note_on channel=9 note=54 velocity=71 time=0.05
EXTRACT: note_on channel=8 note=73 velocity=114 time=0
EXTRACT: note_on channel=9 note=54 velocity=0 time=0.1
EXTRACT: note_on channel=8 note=73 velocity=0 time=0.016666666666666666
EXTRACT: note_on channel=9 note=40 velocity=71 time=0.05
EXTRACT: note_on channel=9 note=44 velocity=64 time=0
EXTRACT: note_on channel=9 note=38 velocity=71 time=0
EXTRACT: note_on channel=9 note=42 velocity=71 time=0
EXTRACT: note_on channel=9 note=54 velocity=64 time=0
EXTRACT: note_on channel=9 note=36 velocity=71 time=0
EXTRACT: note_on channel=8 note=73 velocity=114 time=0
EXTRACT: note_on channel=9 note=40 velocity=0 time=0.1
EXTRACT: note_on channel=9 note=42 velocity=0 time=0
EXTRACT: note_on channel=9 note=38 velocity=0 time=0
EXTRACT: note_on channel=9 note=36 velocity=0 time=0
EXTRACT: note_on channel=9 note=44 velocity=0 time=0.016666666666666666
EXTRACT: note_on channel=9 note=54 velocity=0 time=0
EXTRACT: note_on channel=8 note=73 velocity=0 time=0.05
EXTRACT: note_on channel=2 note=63 velocity=0 time=0.08333333333333333
EXTRACT: note_on channel=6 note=63 velocity=0 time=0
EXTRACT: note_on channel=2 note=58 velocity=0 time=0.016666666666666666
EXTRACT: note_on channel=2 note=67 velocity=0 time=0
EXTRACT: note_on channel=6 note=58 velocity=0 time=0
EXTRACT: note_on channel=6 note=67 velocity=0 time=0
EXTRACT: note_on channel=9 note=54 velocity=71 time=0.06666666666666667
EXTRACT: note_on channel=9 note=44 velocity=71 time=0
EXTRACT: note_on channel=2 note=61 velocity=75 time=0
EXTRACT: note_on channel=2 note=66 velocity=75 time=0
EXTRACT: note_on channel=2 note=58 velocity=75 time=0
EXTRACT: note_on channel=6 note=61 velocity=75 time=0
EXTRACT: note_on channel=6 note=66 velocity=75 time=0
EXTRACT: note_on channel=6 note=58 velocity=75 time=0
EXTRACT: note_on channel=8 note=73 velocity=114 time=0
EXTRACT: note_on channel=9 note=44 velocity=0 time=0.1
EXTRACT: note_on channel=9 note=54 velocity=0 time=0
EXTRACT: note_on channel=9 note=36 velocity=114 time=0.06666666666666667
EXTRACT: note_on channel=9 note=54 velocity=91 time=0
EXTRACT: note_on channel=9 note=36 velocity=0 time=0.08333333333333333
EXTRACT: note_on channel=8 note=73 velocity=0 time=0.06666666666666667
EXTRACT: note_on channel=9 note=54 velocity=0 time=0.016666666666666666
EXTRACT: note_on channel=9 note=54 velocity=71 time=0.16666666666666666
EXTRACT: note_on channel=8 note=73 velocity=114 time=0
EXTRACT: note_on channel=9 note=54 velocity=0 time=0.1
EXTRACT: note_on channel=8 note=73 velocity=0 time=0.016666666666666666
EXTRACT: note_on channel=9 note=44 velocity=64 time=0.05
EXTRACT: note_on channel=9 note=42 velocity=71 time=0
EXTRACT: note_on channel=9 note=54 velocity=64 time=0
EXTRACT: note_on channel=9 note=36 velocity=71 time=0
EXTRACT: note_on channel=9 note=40 velocity=71 time=0
EXTRACT: note_on channel=9 note=38 velocity=71 time=0
EXTRACT: note_on channel=8 note=73 velocity=114 time=0
EXTRACT: note_on channel=9 note=38 velocity=0 time=0.1
EXTRACT: note_on channel=9 note=36 velocity=0 time=0
EXTRACT: note_on channel=9 note=42 velocity=0 time=0
EXTRACT: note_on channel=9 note=40 velocity=0 time=0
EXTRACT: note_on channel=9 note=54 velocity=0 time=0.016666666666666666
EXTRACT: note_on channel=9 note=44 velocity=0 time=0
EXTRACT: note_on channel=8 note=73 velocity=0 time=0
EXTRACT: note_on channel=9 note=42 velocity=64 time=0.21666666666666667
EXTRACT: note_on channel=9 note=54 velocity=64 time=0
EXTRACT: note_on channel=8 note=75 velocity=114 time=0
EXTRACT: note_on channel=2 note=61 velocity=0 time=0.06666666666666667
EXTRACT: note_on channel=2 note=66 velocity=0 time=0
EXTRACT: note_on channel=6 note=66 velocity=0 time=0
EXTRACT: note_on channel=6 note=61 velocity=0 time=0
EXTRACT: note_on channel=2 note=58 velocity=0 time=0.016666666666666666
EXTRACT: note_on channel=6 note=58 velocity=0 time=0
EXTRACT: note_on channel=9 note=54 velocity=0 time=0.016666666666666666
EXTRACT: note_on channel=9 note=42 velocity=0 time=0.016666666666666666
EXTRACT: note_on channel=8 note=75 velocity=0 time=0
EXTRACT: note_on channel=9 note=54 velocity=91 time=0.05
EXTRACT: note_on channel=9 note=36 velocity=114 time=0
EXTRACT: note_on channel=2 note=65 velocity=75 time=0
EXTRACT: note_on channel=2 note=70 velocity=75 time=0
EXTRACT: note_on channel=2 note=61 velocity=75 time=0
EXTRACT: note_on channel=6 note=65 velocity=75 time=0
EXTRACT: note_on channel=6 note=70 velocity=75 time=0
EXTRACT: note_on channel=6 note=61 velocity=75 time=0
EXTRACT: note_on channel=8 note=77 velocity=114 time=0
EXTRACT: note_on channel=9 note=36 velocity=0 time=0.08333333333333333
EXTRACT: note_on channel=9 note=54 velocity=0 time=0.08333333333333333
EXTRACT: note_on channel=8 note=77 velocity=0 time=0.13333333333333333
EXTRACT: note_on channel=9 note=54 velocity=71 time=0.03333333333333333
EXTRACT: note_on channel=9 note=54 velocity=0 time=0.1
EXTRACT: note_on channel=9 note=42 velocity=71 time=0.06666666666666667
EXTRACT: note_on channel=9 note=54 velocity=64 time=0
EXTRACT: note_on channel=9 note=40 velocity=71 time=0
EXTRACT: note_on channel=9 note=36 velocity=71 time=0
EXTRACT: note_on channel=9 note=38 velocity=71 time=0
EXTRACT: note_on channel=9 note=44 velocity=64 time=0
EXTRACT: note_on channel=9 note=36 velocity=0 time=0.1
EXTRACT: note_on channel=9 note=40 velocity=0 time=0
EXTRACT: note_on channel=9 note=42 velocity=0 time=0
EXTRACT: note_on channel=9 note=38 velocity=0 time=0
EXTRACT: note_on channel=9 note=44 velocity=0 time=0.016666666666666666
EXTRACT: note_on channel=9 note=54 velocity=0 time=0
EXTRACT: note_on channel=2 note=65 velocity=0 time=0.11666666666666667
EXTRACT: note_on channel=6 note=65 velocity=0 time=0
EXTRACT: note_on channel=2 note=61 velocity=0 time=0.016666666666666666
EXTRACT: note_on channel=6 note=61 velocity=0 time=0
EXTRACT: note_on channel=2 note=70 velocity=0 time=0.016666666666666666
EXTRACT: note_on channel=6 note=70 velocity=0 time=0
EXTRACT: note_on channel=9 note=54 velocity=71 time=0.06666666666666667
EXTRACT: note_on channel=9 note=44 velocity=71 time=0
EXTRACT: note_on channel=2 note=68 velocity=75 time=0
EXTRACT: note_on channel=2 note=61 velocity=75 time=0
EXTRACT: note_on channel=2 note=65 velocity=75 time=0
EXTRACT: note_on channel=6 note=61 velocity=75 time=0
EXTRACT: note_on channel=6 note=65 velocity=75 time=0
EXTRACT: note_on channel=6 note=68 velocity=75 time=0
EXTRACT: note_on channel=8 note=73 velocity=114 time=0
EXTRACT: note_on channel=9 note=54 velocity=0 time=0.1
EXTRACT: note_on channel=9 note=44 velocity=0 time=0
EXTRACT: note_on channel=8 note=73 velocity=0 time=0.016666666666666666
EXTRACT: note_on channel=9 note=36 velocity=114 time=0.05
EXTRACT: note_on channel=9 note=54 velocity=91 time=0
EXTRACT: note_on channel=8 note=77 velocity=114 time=0
EXTRACT: note_on channel=9 note=36 velocity=0 time=0.08333333333333333
EXTRACT: note_on channel=8 note=77 velocity=0 time=0.05
EXTRACT: note_on channel=9 note=54 velocity=0 time=0.03333333333333333
EXTRACT: note_on channel=9 note=54 velocity=71 time=0.16666666666666666
EXTRACT: note_on channel=8 note=77 velocity=114 time=0
EXTRACT: note_on channel=9 note=54 velocity=0 time=0.1
EXTRACT: note_on channel=8 note=77 velocity=0 time=0.03333333333333333
EXTRACT: note_on channel=9 note=38 velocity=71 time=0.03333333333333333
EXTRACT: note_on channel=9 note=36 velocity=71 time=0
EXTRACT: note_on channel=9 note=54 velocity=64 time=0
EXTRACT: note_on channel=9 note=44 velocity=64 time=0
EXTRACT: note_on channel=9 note=40 velocity=71 time=0
EXTRACT: note_on channel=9 note=42 velocity=71 time=0
EXTRACT: note_on channel=8 note=75 velocity=114 time=0
EXTRACT: note_on channel=9 note=36 velocity=0 time=0.1
EXTRACT: note_on channel=9 note=42 velocity=0 time=0
EXTRACT: note_on channel=9 note=38 velocity=0 time=0
EXTRACT: note_on channel=9 note=40 velocity=0 time=0
EXTRACT: note_on channel=9 note=54 velocity=0 time=0.016666666666666666
EXTRACT: note_on channel=9 note=44 velocity=0 time=0
EXTRACT: note_on channel=8 note=75 velocity=0 time=0.016666666666666666
EXTRACT: note_on channel=9 note=44 velocity=71 time=0.2
EXTRACT: note_on channel=9 note=54 velocity=71 time=0
EXTRACT: note_on channel=8 note=77 velocity=114 time=0
EXTRACT: note_on channel=2 note=61 velocity=0 time=0.05
EXTRACT: note_on channel=6 note=61 velocity=0 time=0
EXTRACT: note_on channel=9 note=54 velocity=0 time=0.05
EXTRACT: note_on channel=9 note=44 velocity=0 time=0
EXTRACT: note_on channel=2 note=65 velocity=0 time=0
EXTRACT: note_on channel=6 note=65 velocity=0 time=0
EXTRACT: note_on channel=2 note=68 velocity=0 time=0.016666666666666666
EXTRACT: note_on channel=6 note=68 velocity=0 time=0
EXTRACT: note_on channel=8 note=77 velocity=0 time=0.016666666666666666
EXTRACT: note_on channel=9 note=36 velocity=114 time=0.03333333333333333
EXTRACT: note_on channel=9 note=54 velocity=91 time=0
EXTRACT: note_on channel=2 note=63 velocity=75 time=0
EXTRACT: note_on channel=2 note=58 velocity=75 time=0
EXTRACT: note_on channel=2 note=67 velocity=75 time=0
EXTRACT: note_on channel=6 note=67 velocity=75 time=0
EXTRACT: note_on channel=6 note=63 velocity=75 time=0
EXTRACT: note_on channel=6 note=58 velocity=75 time=0
EXTRACT: note_on channel=8 note=75 velocity=114 time=0
EXTRACT: note_on channel=9 note=36 velocity=0 time=0.08333333333333333
EXTRACT: note_on channel=8 note=75 velocity=0 time=0.05
EXTRACT: note_on channel=9 note=54 velocity=0 time=0.03333333333333333
EXTRACT: note_on channel=8 note=73 velocity=114 time=0
EXTRACT: note_on channel=8 note=73 velocity=0 time=0.13333333333333333
EXTRACT: note_on channel=9 note=54 velocity=71 time=0.03333333333333333
EXTRACT: note_on channel=8 note=73 velocity=114 time=0
EXTRACT: note_on channel=9 note=54 velocity=0 time=0.1
EXTRACT: note_on channel=8 note=73 velocity=0 time=0.03333333333333333
EXTRACT: note_on channel=9 note=36 velocity=71 time=0.03333333333333333
EXTRACT: note_on channel=9 note=42 velocity=71 time=0
EXTRACT: note_on channel=9 note=54 velocity=64 time=0
EXTRACT: note_on channel=9 note=40 velocity=71 time=0
EXTRACT: note_on channel=9 note=38 velocity=71 time=0
EXTRACT: note_on channel=9 note=44 velocity=64 time=0
EXTRACT: note_on channel=8 note=73 velocity=114 time=0
EXTRACT: note_on channel=9 note=40 velocity=0 time=0.1
EXTRACT: note_on channel=9 note=36 velocity=0 time=0
EXTRACT: note_on channel=9 note=38 velocity=0 time=0
EXTRACT: note_on channel=9 note=42 velocity=0 time=0
EXTRACT: note_on channel=9 note=54 velocity=0 time=0.016666666666666666
EXTRACT: note_on channel=9 note=44 velocity=0 time=0
EXTRACT: note_on channel=8 note=73 velocity=0 time=0.016666666666666666
EXTRACT: note_on channel=2 note=63 velocity=0 time=0.11666666666666667
EXTRACT: note_on channel=6 note=63 velocity=0 time=0
EXTRACT: note_on channel=2 note=58 velocity=0 time=0.016666666666666666
EXTRACT: note_on channel=2 note=67 velocity=0 time=0
EXTRACT: note_on channel=6 note=58 velocity=0 time=0
EXTRACT: note_on channel=6 note=67 velocity=0 time=0
EXTRACT: note_on channel=9 note=44 velocity=71 time=0.06666666666666667
EXTRACT: note_on channel=9 note=54 velocity=71 time=0
EXTRACT: note_on channel=2 note=58 velocity=75 time=0
EXTRACT: note_on channel=2 note=61 velocity=75 time=0
EXTRACT: note_on channel=2 note=66 velocity=75 time=0
EXTRACT: note_on channel=6 note=66 velocity=75 time=0
EXTRACT: note_on channel=6 note=61 velocity=75 time=0
EXTRACT: note_on channel=6 note=58 velocity=75 time=0
EXTRACT: note_on channel=8 note=73 velocity=114 time=0
EXTRACT: note_on channel=9 note=44 velocity=0 time=0.1
EXTRACT: note_on channel=9 note=54 velocity=0 time=0
EXTRACT: note_on channel=9 note=36 velocity=114 time=0.06666666666666667
EXTRACT: note_on channel=9 note=54 velocity=91 time=0
EXTRACT: note_on channel=9 note=36 velocity=0 time=0.08333333333333333
EXTRACT: note_on channel=8 note=73 velocity=0 time=0.016666666666666666
EXTRACT: note_on channel=9 note=54 velocity=0 time=0.06666666666666667
EXTRACT: note_on channel=9 note=54 velocity=71 time=0.16666666666666666
EXTRACT: note_on channel=8 note=73 velocity=114 time=0
EXTRACT: note_on channel=9 note=54 velocity=0 time=0.1
EXTRACT: note_on channel=8 note=73 velocity=0 time=0.03333333333333333
EXTRACT: note_on channel=9 note=40 velocity=71 time=0.03333333333333333
EXTRACT: note_on channel=9 note=38 velocity=71 time=0
EXTRACT: note_on channel=9 note=44 velocity=64 time=0
EXTRACT: note_on channel=9 note=54 velocity=64 time=0
EXTRACT: note_on channel=9 note=42 velocity=71 time=0
EXTRACT: note_on channel=9 note=36 velocity=71 time=0
EXTRACT: note_on channel=8 note=73 velocity=114 time=0
EXTRACT: note_on channel=9 note=36 velocity=0 time=0.1
EXTRACT: note_on channel=9 note=42 velocity=0 time=0
EXTRACT: note_on channel=9 note=38 velocity=0 time=0
EXTRACT: note_on channel=9 note=40 velocity=0 time=0
EXTRACT: note_on channel=9 note=44 velocity=0 time=0.016666666666666666
EXTRACT: note_on channel=9 note=54 velocity=0 time=0
EXTRACT: note_on channel=8 note=73 velocity=0 time=0.016666666666666666
EXTRACT: note_on channel=9 note=54 velocity=64 time=0.2
EXTRACT: note_on channel=9 note=42 velocity=71 time=0
EXTRACT: note_on channel=8 note=75 velocity=114 time=0
EXTRACT: note_on channel=2 note=61 velocity=0 time=0.06666666666666667
EXTRACT: note_on channel=2 note=66 velocity=0 time=0
EXTRACT: note_on channel=6 note=61 velocity=0 time=0
EXTRACT: note_on channel=6 note=66 velocity=0 time=0
EXTRACT: note_on channel=2 note=58 velocity=0 time=0.016666666666666666
EXTRACT: note_on channel=6 note=58 velocity=0 time=0
EXTRACT: note_on channel=9 note=42 velocity=0 time=0.016666666666666666
EXTRACT: note_on channel=9 note=54 velocity=0 time=0
EXTRACT: note_on channel=8 note=75 velocity=0 time=0.03333333333333333
EXTRACT: note_on channel=9 note=36 velocity=114 time=0.03333333333333333
EXTRACT: note_on channel=9 note=54 velocity=91 time=0
EXTRACT: note_on channel=2 note=65 velocity=75 time=0
EXTRACT: note_on channel=2 note=70 velocity=75 time=0
EXTRACT: note_on channel=2 note=61 velocity=75 time=0
EXTRACT: note_on channel=6 note=70 velocity=75 time=0
EXTRACT: note_on channel=6 note=61 velocity=75 time=0
EXTRACT: note_on channel=6 note=65 velocity=75 time=0
EXTRACT: note_on channel=8 note=77 velocity=114 time=0
EXTRACT: note_on channel=9 note=36 velocity=0 time=0.08333333333333333
EXTRACT: note_on channel=9 note=54 velocity=0 time=0.08333333333333333
EXTRACT: note_on channel=8 note=77 velocity=0 time=0.13333333333333333
EXTRACT: note_on channel=9 note=54 velocity=71 time=0.03333333333333333
EXTRACT: note_on channel=9 note=54 velocity=0 time=0.1
EXTRACT: note_on channel=9 note=36 velocity=71 time=0.06666666666666667
EXTRACT: note_on channel=9 note=54 velocity=64 time=0
EXTRACT: note_on channel=9 note=44 velocity=64 time=0
EXTRACT: note_on channel=9 note=42 velocity=71 time=0
EXTRACT: note_on channel=9 note=40 velocity=71 time=0
EXTRACT: note_on channel=9 note=38 velocity=71 time=0
EXTRACT: note_on channel=9 note=38 velocity=0 time=0.1
EXTRACT: note_on channel=9 note=36 velocity=0 time=0
EXTRACT: note_on channel=9 note=40 velocity=0 time=0
EXTRACT: note_on channel=9 note=42 velocity=0 time=0
EXTRACT: note_on channel=9 note=44 velocity=0 time=0.016666666666666666
EXTRACT: note_on channel=9 note=54 velocity=0 time=0
EXTRACT: note_on channel=2 note=65 velocity=0 time=0.11666666666666667
EXTRACT: note_on channel=6 note=65 velocity=0 time=0
EXTRACT: note_on channel=2 note=61 velocity=0 time=0.016666666666666666
EXTRACT: note_on channel=6 note=61 velocity=0 time=0
EXTRACT: note_on channel=2 note=70 velocity=0 time=0.016666666666666666
EXTRACT: note_on channel=6 note=70 velocity=0 time=0
EXTRACT: note_on channel=9 note=54 velocity=71 time=0.06666666666666667
EXTRACT: note_on channel=9 note=44 velocity=71 time=0
EXTRACT: note_on channel=2 note=61 velocity=75 time=0
EXTRACT: note_on channel=2 note=65 velocity=75 time=0
EXTRACT: note_on channel=2 note=68 velocity=75 time=0
EXTRACT: note_on channel=6 note=65 velocity=75 time=0
EXTRACT: note_on channel=6 note=68 velocity=75 time=0
EXTRACT: note_on channel=6 note=61 velocity=75 time=0
EXTRACT: note_on channel=8 note=77 velocity=114 time=0
EXTRACT: note_on channel=9 note=54 velocity=0 time=0.1
EXTRACT: note_on channel=9 note=44 velocity=0 time=0
EXTRACT: note_on channel=8 note=77 velocity=0 time=0.03333333333333333
EXTRACT: note_on channel=9 note=36 velocity=114 time=0.03333333333333333
EXTRACT: note_on channel=9 note=54 velocity=91 time=0
EXTRACT: note_on channel=8 note=77 velocity=114 time=0
EXTRACT: note_on channel=9 note=36 velocity=0 time=0.08333333333333333
EXTRACT: note_on channel=8 note=77 velocity=0 time=0.05
EXTRACT: note_on channel=9 note=54 velocity=0 time=0.03333333333333333
EXTRACT: note_on channel=9 note=54 velocity=71 time=0.16666666666666666
EXTRACT: note_on channel=8 note=75 velocity=114 time=0
EXTRACT: note_on channel=9 note=54 velocity=0 time=0.1
EXTRACT: note_on channel=8 note=75 velocity=0 time=0.03333333333333333
EXTRACT: note_on channel=9 note=36 velocity=71 time=0.03333333333333333
EXTRACT: note_on channel=9 note=38 velocity=71 time=0
EXTRACT: note_on channel=9 note=42 velocity=71 time=0
EXTRACT: note_on channel=9 note=44 velocity=64 time=0
EXTRACT: note_on channel=9 note=54 velocity=64 time=0
EXTRACT: note_on channel=9 note=40 velocity=71 time=0
EXTRACT: note_on channel=8 note=75 velocity=114 time=0
EXTRACT: note_on channel=9 note=40 velocity=0 time=0.1
EXTRACT: note_on channel=9 note=42 velocity=0 time=0
EXTRACT: note_on channel=9 note=38 velocity=0 time=0
EXTRACT: note_on channel=9 note=36 velocity=0 time=0
EXTRACT: note_on channel=9 note=54 velocity=0 time=0.016666666666666666
EXTRACT: note_on channel=9 note=44 velocity=0 time=0
EXTRACT: note_on channel=8 note=75 velocity=0 time=0.016666666666666666
EXTRACT: note_on channel=9 note=44 velocity=71 time=0.2
EXTRACT: note_on channel=9 note=54 velocity=71 time=0
EXTRACT: note_on channel=8 note=75 velocity=114 time=0
EXTRACT: note_on channel=2 note=61 velocity=0 time=0.05
EXTRACT: note_on channel=6 note=61 velocity=0 time=0
EXTRACT: note_on channel=9 note=54 velocity=0 time=0.05
EXTRACT: note_on channel=9 note=44 velocity=0 time=0
EXTRACT: note_on channel=2 note=65 velocity=0 time=0
EXTRACT: note_on channel=6 note=65 velocity=0 time=0
EXTRACT: note_on channel=2 note=68 velocity=0 time=0.016666666666666666
EXTRACT: note_on channel=6 note=68 velocity=0 time=0
EXTRACT: note_on channel=8 note=75 velocity=0 time=0.016666666666666666
EXTRACT: note_on channel=9 note=54 velocity=91 time=0.03333333333333333
EXTRACT: note_on channel=9 note=36 velocity=114 time=0
EXTRACT: note_on channel=2 note=63 velocity=75 time=0
EXTRACT: note_on channel=2 note=58 velocity=75 time=0
EXTRACT: note_on channel=2 note=67 velocity=75 time=0
EXTRACT: note_on channel=6 note=67 velocity=75 time=0
EXTRACT: note_on channel=6 note=58 velocity=75 time=0
EXTRACT: note_on channel=6 note=63 velocity=75 time=0
EXTRACT: note_on channel=8 note=75 velocity=114 time=0
EXTRACT: note_on channel=9 note=36 velocity=0 time=0.08333333333333333
EXTRACT: note_on channel=9 note=54 velocity=0 time=0.08333333333333333
EXTRACT: note_on channel=8 note=75 velocity=0 time=0.06666666666666667
EXTRACT: note_on channel=9 note=54 velocity=71 time=0.1
EXTRACT: note_on channel=8 note=73 velocity=114 time=0
EXTRACT: note_on channel=9 note=54 velocity=0 time=0.1
EXTRACT: note_on channel=8 note=73 velocity=0 time=0.03333333333333333
EXTRACT: note_on channel=9 note=54 velocity=64 time=0.03333333333333333
EXTRACT: note_on channel=9 note=36 velocity=71 time=0
EXTRACT: note_on channel=9 note=40 velocity=71 time=0
EXTRACT: note_on channel=9 note=42 velocity=71 time=0
EXTRACT: note_on channel=9 note=38 velocity=71 time=0
EXTRACT: note_on channel=9 note=44 velocity=64 time=0
EXTRACT: note_on channel=8 note=73 velocity=114 time=0
EXTRACT: note_on channel=9 note=42 velocity=0 time=0.1
EXTRACT: note_on channel=9 note=38 velocity=0 time=0
EXTRACT: note_on channel=9 note=40 velocity=0 time=0
EXTRACT: note_on channel=9 note=36 velocity=0 time=0
EXTRACT: note_on channel=9 note=54 velocity=0 time=0.016666666666666666
EXTRACT: note_on channel=9 note=44 velocity=0 time=0
EXTRACT: note_on channel=8 note=73 velocity=0 time=0.016666666666666666
EXTRACT: note_on channel=2 note=63 velocity=0 time=0.11666666666666667
EXTRACT: note_on channel=6 note=63 velocity=0 time=0
EXTRACT: note_on channel=2 note=58 velocity=0 time=0.016666666666666666
EXTRACT: note_on channel=2 note=67 velocity=0 time=0
EXTRACT: note_on channel=6 note=67 velocity=0 time=0
EXTRACT: note_on channel=6 note=58 velocity=0 time=0
EXTRACT: note_on channel=9 note=54 velocity=71 time=0.06666666666666667
EXTRACT: note_on channel=9 note=44 velocity=71 time=0
EXTRACT: note_on channel=2 note=66 velocity=75 time=0
EXTRACT: note_on channel=2 note=58 velocity=75 time=0
EXTRACT: note_on channel=2 note=61 velocity=75 time=0
EXTRACT: note_on channel=6 note=66 velocity=75 time=0
EXTRACT: note_on channel=6 note=58 velocity=75 time=0
EXTRACT: note_on channel=6 note=61 velocity=75 time=0
EXTRACT: note_on channel=8 note=73 velocity=114 time=0
EXTRACT: note_on channel=9 note=54 velocity=0 time=0.1
EXTRACT: note_on channel=9 note=44 velocity=0 time=0
EXTRACT: note_on channel=9 note=36 velocity=114 time=0.06666666666666667
EXTRACT: note_on channel=9 note=54 velocity=91 time=0
EXTRACT: note_on channel=9 note=36 velocity=0 time=0.08333333333333333
EXTRACT: note_on channel=8 note=73 velocity=0 time=0.03333333333333333
EXTRACT: note_on channel=9 note=54 velocity=0 time=0.05
EXTRACT: note_on channel=9 note=54 velocity=71 time=0.16666666666666666
EXTRACT: note_on channel=8 note=73 velocity=114 time=0
EXTRACT: note_on channel=9 note=54 velocity=0 time=0.1
EXTRACT: note_on channel=8 note=73 velocity=0 time=0.03333333333333333
EXTRACT: note_on channel=9 note=40 velocity=71 time=0.03333333333333333
EXTRACT: note_on channel=9 note=42 velocity=71 time=0
EXTRACT: note_on channel=9 note=38 velocity=71 time=0
EXTRACT: note_on channel=9 note=44 velocity=64 time=0
EXTRACT: note_on channel=9 note=54 velocity=64 time=0
EXTRACT: note_on channel=9 note=36 velocity=71 time=0
EXTRACT: note_on channel=8 note=73 velocity=114 time=0
EXTRACT: note_on channel=9 note=36 velocity=0 time=0.1
EXTRACT: note_on channel=9 note=40 velocity=0 time=0
EXTRACT: note_on channel=9 note=38 velocity=0 time=0
EXTRACT: note_on channel=9 note=42 velocity=0 time=0
EXTRACT: note_on channel=9 note=44 velocity=0 time=0.016666666666666666
EXTRACT: note_on channel=9 note=54 velocity=0 time=0
EXTRACT: note_on channel=8 note=73 velocity=0 time=0.08333333333333333
EXTRACT: note_on channel=9 note=42 velocity=64 time=0.13333333333333333
EXTRACT: note_on channel=9 note=54 velocity=64 time=0
EXTRACT: note_on channel=8 note=75 velocity=114 time=0
EXTRACT: note_on channel=2 note=66 velocity=0 time=0.06666666666666667
EXTRACT: note_on channel=2 note=61 velocity=0 time=0
EXTRACT: note_on channel=6 note=66 velocity=0 time=0
EXTRACT: note_on channel=6 note=61 velocity=0 time=0
EXTRACT: note_on channel=2 note=58 velocity=0 time=0.016666666666666666
EXTRACT: note_on channel=6 note=58 velocity=0 time=0
EXTRACT: note_on channel=9 note=54 velocity=0 time=0.016666666666666666
EXTRACT: note_on channel=9 note=42 velocity=0 time=0.016666666666666666
EXTRACT: note_on channel=8 note=75 velocity=0 time=0.016666666666666666
EXTRACT: note_on channel=9 note=36 velocity=114 time=0.03333333333333333
EXTRACT: note_on channel=9 note=54 velocity=91 time=0
EXTRACT: note_on channel=2 note=65 velocity=75 time=0
EXTRACT: note_on channel=2 note=70 velocity=75 time=0
EXTRACT: note_on channel=2 note=61 velocity=75 time=0
EXTRACT: note_on channel=6 note=65 velocity=75 time=0
EXTRACT: note_on channel=6 note=61 velocity=75 time=0
EXTRACT: note_on channel=6 note=70 velocity=75 time=0
EXTRACT: note_on channel=8 note=77 velocity=114 time=0
EXTRACT: note_on channel=9 note=36 velocity=0 time=0.08333333333333333
EXTRACT: note_on channel=9 note=54 velocity=0 time=0.08333333333333333
EXTRACT: note_on channel=8 note=77 velocity=0 time=0.08333333333333333
EXTRACT: note_on channel=9 note=54 velocity=71 time=0.08333333333333333
EXTRACT: note_on channel=8 note=75 velocity=114 time=0
EXTRACT: note_on channel=9 note=54 velocity=0 time=0.1
EXTRACT: note_on channel=8 note=75 velocity=0 time=0.03333333333333333
EXTRACT: note_on channel=9 note=44 velocity=64 time=0.03333333333333333
EXTRACT: note_on channel=9 note=54 velocity=64 time=0
EXTRACT: note_on channel=9 note=40 velocity=71 time=0
EXTRACT: note_on channel=9 note=42 velocity=71 time=0
EXTRACT: note_on channel=9 note=38 velocity=71 time=0
EXTRACT: note_on channel=9 note=36 velocity=71 time=0
EXTRACT: note_on channel=8 note=73 velocity=114 time=0
EXTRACT: note_on channel=9 note=42 velocity=0 time=0.1
EXTRACT: note_on channel=9 note=36 velocity=0 time=0
EXTRACT: note_on channel=9 note=38 velocity=0 time=0
EXTRACT: note_on channel=9 note=40 velocity=0 time=0
EXTRACT: note_on channel=9 note=44 velocity=0 time=0.016666666666666666
EXTRACT: note_on channel=9 note=54 velocity=0 time=0
EXTRACT: note_on channel=8 note=73 velocity=0 time=0.016666666666666666
EXTRACT: note_on channel=2 note=65 velocity=0 time=0.1
EXTRACT: note_on channel=6 note=65 velocity=0 time=0
EXTRACT: note_on channel=2 note=61 velocity=0 time=0.016666666666666666
EXTRACT: note_on channel=6 note=61 velocity=0 time=0
EXTRACT: note_on channel=2 note=70 velocity=0 time=0.016666666666666666
EXTRACT: note_on channel=6 note=70 velocity=0 time=0
EXTRACT: note_on channel=9 note=54 velocity=71 time=0.06666666666666667
EXTRACT: note_on channel=9 note=44 velocity=71 time=0
EXTRACT: note_on channel=2 note=68 velocity=75 time=0
EXTRACT: note_on channel=2 note=61 velocity=75 time=0
EXTRACT: note_on channel=2 note=65 velocity=75 time=0
EXTRACT: note_on channel=6 note=68 velocity=75 time=0
EXTRACT: note_on channel=6 note=65 velocity=75 time=0
EXTRACT: note_on channel=6 note=61 velocity=75 time=0
EXTRACT: note_on channel=8 note=73 velocity=114 time=0
EXTRACT: note_on channel=9 note=54 velocity=0 time=0.1
EXTRACT: note_on channel=9 note=44 velocity=0 time=0
EXTRACT: note_on channel=9 note=36 velocity=114 time=0.06666666666666667
EXTRACT: note_on channel=9 note=54 velocity=91 time=0
EXTRACT: note_on channel=9 note=36 velocity=0 time=0.08333333333333333
EXTRACT: note_on channel=8 note=73 velocity=0 time=0.05
EXTRACT: note_on channel=9 note=54 velocity=0 time=0.03333333333333333
EXTRACT: note_on channel=9 note=54 velocity=71 time=0.16666666666666666
EXTRACT: note_on channel=8 note=73 velocity=114 time=0
EXTRACT: note_on channel=9 note=54 velocity=0 time=0.1
EXTRACT: note_on channel=8 note=73 velocity=0 time=0.03333333333333333
EXTRACT: note_on channel=9 note=38 velocity=71 time=0.03333333333333333
EXTRACT: note_on channel=9 note=54 velocity=64 time=0
EXTRACT: note_on channel=9 note=42 velocity=71 time=0
EXTRACT: note_on channel=9 note=44 velocity=64 time=0
EXTRACT: note_on channel=9 note=36 velocity=71 time=0
EXTRACT: note_on channel=9 note=40 velocity=71 time=0
EXTRACT: note_on channel=8 note=73 velocity=114 time=0
EXTRACT: note_on channel=9 note=40 velocity=0 time=0.1
EXTRACT: note_on channel=9 note=38 velocity=0 time=0
EXTRACT: note_on channel=9 note=42 velocity=0 time=0
EXTRACT: note_on channel=9 note=36 velocity=0 time=0
EXTRACT: note_on channel=9 note=54 velocity=0 time=0.016666666666666666
EXTRACT: note_on channel=9 note=44 velocity=0 time=0
EXTRACT: note_on channel=8 note=73 velocity=0 time=0.11666666666666667
EXTRACT: note_on channel=9 note=44 velocity=71 time=0.1
EXTRACT: note_on channel=9 note=54 velocity=71 time=0
EXTRACT: note_on channel=8 note=77 velocity=114 time=0
EXTRACT: note_on channel=2 note=61 velocity=0 time=0.05
EXTRACT: note_on channel=6 note=61 velocity=0 time=0
EXTRACT: note_on channel=9 note=44 velocity=0 time=0.05
EXTRACT: note_on channel=9 note=54 velocity=0 time=0
EXTRACT: note_on channel=2 note=65 velocity=0 time=0
EXTRACT: note_on channel=6 note=65 velocity=0 time=0
EXTRACT: note_on channel=2 note=68 velocity=0 time=0.016666666666666666
EXTRACT: note_on channel=6 note=68 velocity=0 time=0
EXTRACT: note_on channel=8 note=77 velocity=0 time=0.03333333333333333
EXTRACT: note_on channel=9 note=36 velocity=114 time=0.016666666666666666
EXTRACT: note_on channel=9 note=54 velocity=91 time=0
EXTRACT: note_on channel=2 note=63 velocity=75 time=0
EXTRACT: note_on channel=2 note=67 velocity=75 time=0
EXTRACT: note_on channel=2 note=58 velocity=75 time=0
EXTRACT: note_on channel=6 note=67 velocity=75 time=0
EXTRACT: note_on channel=6 note=58 velocity=75 time=0
EXTRACT: note_on channel=6 note=63 velocity=75 time=0
EXTRACT: note_on channel=8 note=75 velocity=114 time=0
EXTRACT: note_on channel=9 note=36 velocity=0 time=0.08333333333333333
EXTRACT: note_on channel=9 note=54 velocity=0 time=0.08333333333333333
EXTRACT: note_on channel=8 note=75 velocity=0 time=0.1
EXTRACT: note_on channel=9 note=54 velocity=71 time=0.06666666666666667
EXTRACT: note_on channel=8 note=73 velocity=114 time=0
EXTRACT: note_on channel=9 note=54 velocity=0 time=0.1
EXTRACT: note_on channel=9 note=44 velocity=64 time=0.06666666666666667
EXTRACT: note_on channel=9 note=38 velocity=71 time=0
EXTRACT: note_on channel=9 note=40 velocity=71 time=0
EXTRACT: note_on channel=9 note=36 velocity=71 time=0
EXTRACT: note_on channel=9 note=42 velocity=71 time=0
EXTRACT: note_on channel=9 note=54 velocity=64 time=0
EXTRACT: note_on channel=3 note=58 velocity=91 time=0
EXTRACT: note_on channel=3 note=70 velocity=91 time=0
EXTRACT: note_on channel=9 note=40 velocity=0 time=0.1
EXTRACT: note_on channel=9 note=42 velocity=0 time=0
EXTRACT: note_on channel=9 note=38 velocity=0 time=0
EXTRACT: note_on channel=9 note=36 velocity=0 time=0
EXTRACT: note_on channel=9 note=44 velocity=0 time=0.016666666666666666
EXTRACT: note_on channel=9 note=54 velocity=0 time=0
EXTRACT: note_on channel=8 note=73 velocity=0 time=0.03333333333333333
EXTRACT: note_on channel=3 note=70 velocity=0 time=0.06666666666666667
EXTRACT: note_on channel=3 note=58 velocity=0 time=0.016666666666666666
EXTRACT: note_on channel=2 note=63 velocity=0 time=0.016666666666666666
EXTRACT: note_on channel=6 note=63 velocity=0 time=0
EXTRACT: note_on channel=2 note=67 velocity=0 time=0.016666666666666666
EXTRACT: note_on channel=2 note=58 velocity=0 time=0
EXTRACT: note_on channel=6 note=58 velocity=0 time=0
EXTRACT: note_on channel=6 note=67 velocity=0 time=0
EXTRACT: note_on channel=9 note=44 velocity=71 time=0.06666666666666667
EXTRACT: note_on channel=9 note=54 velocity=71 time=0
EXTRACT: note_on channel=2 note=61 velocity=75 time=0
EXTRACT: note_on channel=2 note=58 velocity=75 time=0
EXTRACT: note_on channel=2 note=66 velocity=75 time=0
EXTRACT: note_on channel=3 note=70 velocity=91 time=0
EXTRACT: note_on channel=3 note=58 velocity=91 time=0
EXTRACT: note_on channel=6 note=61 velocity=75 time=0
EXTRACT: note_on channel=6 note=66 velocity=75 time=0
EXTRACT: note_on channel=6 note=58 velocity=75 time=0
EXTRACT: note_on channel=8 note=73 velocity=114 time=0
EXTRACT: note_on channel=9 note=44 velocity=0 time=0.1
EXTRACT: note_on channel=9 note=54 velocity=0 time=0
EXTRACT: note_on channel=9 note=36 velocity=114 time=0.06666666666666667
EXTRACT: note_on channel=9 note=54 velocity=91 time=0
EXTRACT: note_on channel=3 note=70 velocity=0 time=0
EXTRACT: note_on channel=3 note=73 velocity=91 time=0
EXTRACT: note_on channel=3 note=58 velocity=0 time=0
EXTRACT: note_on channel=3 note=61 velocity=91 time=0
EXTRACT: note_on channel=9 note=36 velocity=0 time=0.08333333333333333
EXTRACT: note_on channel=8 note=73 velocity=0 time=0.06666666666666667
EXTRACT: note_on channel=9 note=54 velocity=0 time=0.016666666666666666
EXTRACT: note_on channel=9 note=54 velocity=71 time=0.16666666666666666
EXTRACT: note_on channel=9 note=54 velocity=0 time=0.1
EXTRACT: note_on channel=3 note=61 velocity=0 time=0
EXTRACT: note_on channel=3 note=73 velocity=0 time=0
EXTRACT: note_on channel=9 note=36 velocity=71 time=0.06666666666666667
EXTRACT: note_on channel=9 note=44 velocity=64 time=0
EXTRACT: note_on channel=9 note=38 velocity=71 time=0
EXTRACT: note_on channel=9 note=42 velocity=71 time=0
EXTRACT: note_on channel=9 note=54 velocity=64 time=0
EXTRACT: note_on channel=9 note=40 velocity=71 time=0
EXTRACT: note_on channel=3 note=75 velocity=91 time=0
EXTRACT: note_on channel=3 note=63 velocity=91 time=0
EXTRACT: note_on channel=8 note=70 velocity=114 time=0
EXTRACT: note_on channel=9 note=42 velocity=0 time=0.1
EXTRACT: note_on channel=9 note=36 velocity=0 time=0
EXTRACT: note_on channel=9 note=38 velocity=0 time=0
EXTRACT: note_on channel=9 note=40 velocity=0 time=0
EXTRACT: note_on channel=9 note=44 velocity=0 time=0.016666666666666666
EXTRACT: note_on channel=9 note=54 velocity=0 time=0
EXTRACT: note_on channel=8 note=70 velocity=0 time=0.11666666666666667
EXTRACT: note_on channel=9 note=54 velocity=64 time=0.1
EXTRACT: note_on channel=9 note=42 velocity=71 time=0
EXTRACT: note_on channel=3 note=75 velocity=0 time=0.05
EXTRACT: note_on channel=2 note=61 velocity=0 time=0.016666666666666666
EXTRACT: note_on channel=2 note=66 velocity=0 time=0
EXTRACT: note_on channel=3 note=63 velocity=0 time=0
EXTRACT: note_on channel=6 note=66 velocity=0 time=0
EXTRACT: note_on channel=6 note=61 velocity=0 time=0
EXTRACT: note_on channel=2 note=58 velocity=0 time=0.016666666666666666
EXTRACT: note_on channel=6 note=58 velocity=0 time=0
EXTRACT: note_on channel=9 note=42 velocity=0 time=0.016666666666666666
EXTRACT: note_on channel=9 note=54 velocity=0 time=0
EXTRACT: note_on channel=9 note=54 velocity=91 time=0.06666666666666667
EXTRACT: note_on channel=9 note=36 velocity=114 time=0
EXTRACT: note_on channel=9 note=55 velocity=91 time=0
EXTRACT: note_on channel=1 note=34 velocity=114 time=0
EXTRACT: note_on channel=2 note=65 velocity=75 time=0
EXTRACT: note_on channel=2 note=61 velocity=75 time=0
EXTRACT: note_on channel=2 note=70 velocity=75 time=0
EXTRACT: note_on channel=3 note=65 velocity=91 time=0
EXTRACT: note_on channel=3 note=77 velocity=91 time=0
EXTRACT: note_on channel=4 note=46 velocity=114 time=0
EXTRACT: note_on channel=6 note=65 velocity=75 time=0
EXTRACT: note_on channel=6 note=61 velocity=75 time=0
EXTRACT: note_on channel=6 note=70 velocity=75 time=0
EXTRACT: note_on channel=8 note=73 velocity=114 time=0
EXTRACT: note_on channel=9 note=36 velocity=0 time=0.08333333333333333
EXTRACT: note_on channel=9 note=54 velocity=0 time=0.08333333333333333
EXTRACT: note_on channel=8 note=73 velocity=0 time=0.05
EXTRACT: note_on channel=3 note=65 velocity=0 time=0.016666666666666666
EXTRACT: note_on channel=4 note=46 velocity=0 time=0
EXTRACT: note_on channel=3 note=77 velocity=0 time=0.016666666666666666
EXTRACT: note_on channel=9 note=54 velocity=71 time=0.08333333333333333
EXTRACT: note_on channel=3 note=63 velocity=91 time=0
EXTRACT: note_on channel=3 note=75 velocity=91 time=0
EXTRACT: note_on channel=4 note=53 velocity=114 time=0
EXTRACT: note_on channel=1 note=34 velocity=0 time=0.08333333333333333
EXTRACT: note_on channel=9 note=54 velocity=0 time=0.016666666666666666
EXTRACT: note_on channel=9 note=54 velocity=64 time=0.06666666666666667
EXTRACT: note_on channel=9 note=38 velocity=71 time=0
EXTRACT: note_on channel=9 note=42 velocity=71 time=0
EXTRACT: note_on channel=9 note=40 velocity=71 time=0
EXTRACT: note_on channel=9 note=44 velocity=64 time=0
EXTRACT: note_on channel=9 note=36 velocity=71 time=0
EXTRACT: note_on channel=3 note=75 velocity=0 time=0
EXTRACT: note_on channel=3 note=73 velocity=91 time=0
EXTRACT: note_on channel=3 note=63 velocity=0 time=0
EXTRACT: note_on channel=3 note=61 velocity=91 time=0
EXTRACT: note_on channel=4 note=53 velocity=0 time=0
EXTRACT: note_on channel=4 note=58 velocity=114 time=0
EXTRACT: note_on channel=8 note=73 velocity=114 time=0
EXTRACT: note_on channel=9 note=36 velocity=0 time=0.1
EXTRACT: note_on channel=9 note=40 velocity=0 time=0
EXTRACT: note_on channel=9 note=38 velocity=0 time=0
EXTRACT: note_on channel=9 note=42 velocity=0 time=0
EXTRACT: note_on channel=9 note=54 velocity=0 time=0.016666666666666666
EXTRACT: note_on channel=9 note=44 velocity=0 time=0
EXTRACT: note_on channel=4 note=58 velocity=0 time=0.1
EXTRACT: note_on channel=8 note=73 velocity=0 time=0
EXTRACT: note_on channel=2 note=65 velocity=0 time=0.016666666666666666
EXTRACT: note_on channel=3 note=73 velocity=0 time=0
EXTRACT: note_on channel=3 note=61 velocity=0 time=0
EXTRACT: note_on channel=6 note=65 velocity=0 time=0
EXTRACT: note_on channel=2 note=61 velocity=0 time=0.016666666666666666
EXTRACT: note_on channel=6 note=61 velocity=0 time=0
EXTRACT: note_on channel=2 note=70 velocity=0 time=0.016666666666666666
EXTRACT: note_on channel=6 note=70 velocity=0 time=0
EXTRACT: note_on channel=9 note=54 velocity=71 time=0.06666666666666667
EXTRACT: note_on channel=9 note=44 velocity=71 time=0
EXTRACT: note_on channel=1 note=37 velocity=114 time=0
EXTRACT: note_on channel=2 note=65 velocity=75 time=0
EXTRACT: note_on channel=2 note=68 velocity=75 time=0
EXTRACT: note_on channel=2 note=61 velocity=75 time=0
EXTRACT: note_on channel=4 note=49 velocity=114 time=0
EXTRACT: note_on channel=6 note=61 velocity=75 time=0
EXTRACT: note_on channel=6 note=68 velocity=75 time=0
EXTRACT: note_on channel=6 note=65 velocity=75 time=0
EXTRACT: note_on channel=8 note=70 velocity=114 time=0
EXTRACT: note_on channel=9 note=54 velocity=0 time=0.1
EXTRACT: note_on channel=9 note=44 velocity=0 time=0
EXTRACT: note_on channel=9 note=55 velocity=0 time=0.016666666666666666
EXTRACT: note_on channel=8 note=70 velocity=0 time=0.03333333333333333
EXTRACT: note_on channel=9 note=36 velocity=114 time=0.016666666666666666
EXTRACT: note_on channel=9 note=54 velocity=91 time=0
EXTRACT: note_on channel=8 note=73 velocity=114 time=0
EXTRACT: note_on channel=9 note=36 velocity=0 time=0.08333333333333333
EXTRACT: note_on channel=4 note=49 velocity=0 time=0.05
EXTRACT: note_on channel=9 note=54 velocity=0 time=0.03333333333333333
EXTRACT: note_on channel=8 note=73 velocity=0 time=0.016666666666666666
EXTRACT: note_on channel=9 note=54 velocity=71 time=0.15
EXTRACT: note_on channel=4 note=56 velocity=114 time=0
EXTRACT: note_on channel=8 note=70 velocity=114 time=0
EXTRACT: note_on channel=1 note=37 velocity=0 time=0.016666666666666666
EXTRACT: note_on channel=9 note=54 velocity=0 time=0.08333333333333333
EXTRACT: note_on channel=4 note=56 velocity=0 time=0.05
EXTRACT: note_on channel=8 note=70 velocity=0 time=0
EXTRACT: note_on channel=9 note=36 velocity=71 time=0.016666666666666666
EXTRACT: note_on channel=9 note=54 velocity=64 time=0
EXTRACT: note_on channel=9 note=40 velocity=71 time=0
EXTRACT: note_on channel=9 note=44 velocity=64 time=0
EXTRACT: note_on channel=9 note=42 velocity=71 time=0
EXTRACT: note_on channel=9 note=38 velocity=71 time=0
EXTRACT: note_on channel=4 note=61 velocity=114 time=0
EXTRACT: note_on channel=8 note=73 velocity=114 time=0
EXTRACT: note_on channel=9 note=36 velocity=0 time=0.1
EXTRACT: note_on channel=9 note=42 velocity=0 time=0
EXTRACT: note_on channel=9 note=40 velocity=0 time=0
EXTRACT: note_on channel=9 note=38 velocity=0 time=0
EXTRACT: note_on channel=9 note=44 velocity=0 time=0.016666666666666666
EXTRACT: note_on channel=9 note=54 velocity=0 time=0
EXTRACT: note_on channel=8 note=70 velocity=114 time=0.05
EXTRACT: note_on channel=8 note=73 velocity=0 time=0.016666666666666666
EXTRACT: note_on channel=4 note=61 velocity=0 time=0.03333333333333333
EXTRACT: note_on channel=9 note=54 velocity=71 time=0.11666666666666667
EXTRACT: note_on channel=9 note=44 velocity=71 time=0
EXTRACT: note_on channel=4 note=49 velocity=114 time=0
EXTRACT: note_on channel=8 note=70 velocity=0 time=0
EXTRACT: note_on channel=2 note=61 velocity=0 time=0.05
EXTRACT: note_on channel=6 note=61 velocity=0 time=0
EXTRACT: note_on channel=9 note=44 velocity=0 time=0.05
EXTRACT: note_on channel=9 note=54 velocity=0 time=0
EXTRACT: note_on channel=2 note=65 velocity=0 time=0
EXTRACT: note_on channel=6 note=65 velocity=0 time=0
EXTRACT: note_on channel=2 note=68 velocity=0 time=0.016666666666666666
EXTRACT: note_on channel=6 note=68 velocity=0 time=0
EXTRACT: note_on channel=4 note=49 velocity=0 time=0.016666666666666666
EXTRACT: note_on channel=9 note=54 velocity=91 time=0.03333333333333333
EXTRACT: note_on channel=9 note=36 velocity=114 time=0
EXTRACT: note_on channel=1 note=39 velocity=114 time=0
EXTRACT: note_on channel=2 note=58 velocity=75 time=0
EXTRACT: note_on channel=2 note=63 velocity=75 time=0
EXTRACT: note_on channel=2 note=67 velocity=75 time=0
EXTRACT: note_on channel=4 note=51 velocity=114 time=0
EXTRACT: note_on channel=6 note=67 velocity=75 time=0
EXTRACT: note_on channel=6 note=58 velocity=75 time=0
EXTRACT: note_on channel=6 note=63 velocity=75 time=0
EXTRACT: note_on channel=8 note=73 velocity=114 time=0
EXTRACT: note_on channel=9 note=36 velocity=0 time=0.08333333333333333
EXTRACT: note_on channel=9 note=54 velocity=0 time=0.08333333333333333
EXTRACT: note_on channel=4 note=51 velocity=0 time=0
EXTRACT: note_on channel=8 note=73 velocity=0 time=0.03333333333333333
EXTRACT: note_on channel=9 note=54 velocity=71 time=0.13333333333333333
EXTRACT: note_on channel=4 note=58 velocity=114 time=0
EXTRACT: note_on channel=9 note=54 velocity=0 time=0.1
EXTRACT: note_on channel=1 note=39 velocity=0 time=0.05
EXTRACT: note_on channel=4 note=58 velocity=0 time=0
EXTRACT: note_on channel=9 note=54 velocity=64 time=0.016666666666666666
EXTRACT: note_on channel=9 note=42 velocity=71 time=0
EXTRACT: note_on channel=9 note=44 velocity=64 time=0
EXTRACT: note_on channel=9 note=38 velocity=71 time=0
EXTRACT: note_on channel=9 note=40 velocity=71 time=0
EXTRACT: note_on channel=9 note=36 velocity=71 time=0
EXTRACT: note_on channel=4 note=63 velocity=114 time=0
EXTRACT: note_on channel=8 note=73 velocity=114 time=0
EXTRACT: note_on channel=9 note=36 velocity=0 time=0.1
EXTRACT: note_on channel=9 note=40 velocity=0 time=0
EXTRACT: note_on channel=9 note=42 velocity=0 time=0
EXTRACT: note_on channel=9 note=38 velocity=0 time=0
EXTRACT: note_on channel=9 note=44 velocity=0 time=0.016666666666666666
EXTRACT: note_on channel=9 note=54 velocity=0 time=0
EXTRACT: note_on channel=8 note=73 velocity=0 time=0.08333333333333333
EXTRACT: note_on channel=4 note=63 velocity=0 time=0.016666666666666666
EXTRACT: note_on channel=2 note=63 velocity=0 time=0.03333333333333333
EXTRACT: note_on channel=6 note=63 velocity=0 time=0
EXTRACT: note_on channel=2 note=67 velocity=0 time=0.016666666666666666
EXTRACT: note_on channel=2 note=58 velocity=0 time=0
EXTRACT: note_on channel=6 note=58 velocity=0 time=0
EXTRACT: note_on channel=6 note=67 velocity=0 time=0
EXTRACT: note_on channel=9 note=44 velocity=71 time=0.06666666666666667
EXTRACT: note_on channel=9 note=54 velocity=71 time=0
EXTRACT: note_on channel=1 note=30 velocity=114 time=0
EXTRACT: note_on channel=2 note=58 velocity=75 time=0
EXTRACT: note_on channel=2 note=61 velocity=75 time=0
EXTRACT: note_on channel=2 note=66 velocity=75 time=0
EXTRACT: note_on channel=4 note=42 velocity=114 time=0
EXTRACT: note_on channel=6 note=66 velocity=75 time=0
EXTRACT: note_on channel=6 note=61 velocity=75 time=0
EXTRACT: note_on channel=6 note=58 velocity=75 time=0
EXTRACT: note_on channel=8 note=70 velocity=114 time=0
EXTRACT: note_on channel=9 note=44 velocity=0 time=0.1
EXTRACT: note_on channel=9 note=54 velocity=0 time=0
EXTRACT: note_on channel=8 note=70 velocity=0 time=0.05
EXTRACT: note_on channel=9 note=36 velocity=114 time=0.016666666666666666
EXTRACT: note_on channel=9 note=54 velocity=91 time=0
EXTRACT: note_on channel=8 note=73 velocity=114 time=0
EXTRACT: note_on channel=9 note=36 velocity=0 time=0.08333333333333333
EXTRACT: note_on channel=4 note=42 velocity=0 time=0.06666666666666667
EXTRACT: note_on channel=9 note=54 velocity=0 time=0.016666666666666666
EXTRACT: note_on channel=8 note=70 velocity=114 time=0
EXTRACT: note_on channel=8 note=73 velocity=0 time=0.03333333333333333
EXTRACT: note_on channel=1 note=30 velocity=0 time=0.11666666666666667
EXTRACT: note_on channel=8 note=70 velocity=0 time=0
EXTRACT: note_on channel=9 note=54 velocity=71 time=0.016666666666666666
EXTRACT: note_on channel=4 note=49 velocity=114 time=0
EXTRACT: note_on channel=9 note=54 velocity=0 time=0.1
EXTRACT: note_on channel=4 note=49 velocity=0 time=0.05
EXTRACT: note_on channel=9 note=42 velocity=71 time=0.016666666666666666
EXTRACT: note_on channel=9 note=36 velocity=71 time=0
EXTRACT: note_on channel=9 note=44 velocity=64 time=0
EXTRACT: note_on channel=9 note=54 velocity=64 time=0
EXTRACT: note_on channel=9 note=40 velocity=71 time=0
EXTRACT: note_on channel=9 note=38 velocity=71 time=0
EXTRACT: note_on channel=4 note=54 velocity=114 time=0
EXTRACT: note_on channel=8 note=73 velocity=114 time=0
EXTRACT: note_on channel=9 note=38 velocity=0 time=0.1
EXTRACT: note_on channel=9 note=42 velocity=0 time=0
EXTRACT: note_on channel=9 note=40 velocity=0 time=0
EXTRACT: note_on channel=9 note=36 velocity=0 time=0
EXTRACT: note_on channel=9 note=44 velocity=0 time=0.016666666666666666
EXTRACT: note_on channel=9 note=54 velocity=0 time=0
EXTRACT: note_on channel=8 note=70 velocity=114 time=0.05
EXTRACT: note_on channel=8 note=73 velocity=0 time=0.03333333333333333
EXTRACT: note_on channel=4 note=54 velocity=0 time=0.016666666666666666
EXTRACT: note_on channel=8 note=70 velocity=0 time=0.1
EXTRACT: note_on channel=9 note=42 velocity=64 time=0.016666666666666666
EXTRACT: note_on channel=9 note=54 velocity=64 time=0
EXTRACT: note_on channel=1 note=30 velocity=114 time=0
EXTRACT: note_on channel=4 note=42 velocity=114 time=0
EXTRACT: note_on channel=2 note=61 velocity=0 time=0.06666666666666667
EXTRACT: note_on channel=2 note=66 velocity=0 time=0
EXTRACT: note_on channel=6 note=61 velocity=0 time=0
EXTRACT: note_on channel=6 note=66 velocity=0 time=0
EXTRACT: note_on channel=2 note=58 velocity=0 time=0.016666666666666666
EXTRACT: note_on channel=6 note=58 velocity=0 time=0
EXTRACT: note_on channel=9 note=54 velocity=0 time=0.016666666666666666
EXTRACT: note_on channel=9 note=42 velocity=0 time=0.016666666666666666
EXTRACT: note_on channel=1 note=30 velocity=0 time=0.016666666666666666
EXTRACT: note_on channel=4 note=42 velocity=0 time=0.016666666666666666
EXTRACT: note_on channel=9 note=36 velocity=114 time=0.016666666666666666
EXTRACT: note_on channel=9 note=54 velocity=91 time=0
EXTRACT: note_on channel=1 note=34 velocity=114 time=0
EXTRACT: note_on channel=2 note=70 velocity=75 time=0
EXTRACT: note_on channel=2 note=65 velocity=75 time=0
EXTRACT: note_on channel=2 note=61 velocity=75 time=0
EXTRACT: note_on channel=4 note=46 velocity=114 time=0
EXTRACT: note_on channel=6 note=65 velocity=75 time=0
EXTRACT: note_on channel=6 note=61 velocity=75 time=0
EXTRACT: note_on channel=6 note=70 velocity=75 time=0
EXTRACT: note_on channel=8 note=73 velocity=114 time=0
EXTRACT: note_on channel=9 note=36 velocity=0 time=0.08333333333333333
EXTRACT: note_on channel=9 note=54 velocity=0 time=0.08333333333333333
EXTRACT: note_on channel=8 note=73 velocity=0 time=0.03333333333333333
EXTRACT: note_on channel=4 note=46 velocity=0 time=0.03333333333333333
EXTRACT: note_on channel=9 note=54 velocity=71 time=0.1
EXTRACT: note_on channel=4 note=53 velocity=114 time=0
EXTRACT: note_on channel=1 note=34 velocity=0 time=0.08333333333333333
EXTRACT: note_on channel=9 note=54 velocity=0 time=0.016666666666666666
EXTRACT: note_on channel=9 note=54 velocity=64 time=0.06666666666666667
EXTRACT: note_on channel=9 note=44 velocity=64 time=0
EXTRACT: note_on channel=9 note=36 velocity=71 time=0
EXTRACT: note_on channel=9 note=38 velocity=71 time=0
EXTRACT: note_on channel=9 note=42 velocity=71 time=0
EXTRACT: note_on channel=9 note=40 velocity=71 time=0
EXTRACT: note_on channel=4 note=53 velocity=0 time=0
EXTRACT: note_on channel=4 note=58 velocity=114 time=0
EXTRACT: note_on channel=8 note=73 velocity=114 time=0
EXTRACT: note_on channel=9 note=40 velocity=0 time=0.1
EXTRACT: note_on channel=9 note=38 velocity=0 time=0
EXTRACT: note_on channel=9 note=42 velocity=0 time=0
EXTRACT: note_on channel=9 note=36 velocity=0 time=0
EXTRACT: note_on channel=9 note=54 velocity=0 time=0.016666666666666666
EXTRACT: note_on channel=9 note=44 velocity=0 time=0
EXTRACT: note_on channel=8 note=73 velocity=0 time=0.08333333333333333
EXTRACT: note_on channel=4 note=58 velocity=0 time=0.016666666666666666
EXTRACT: note_on channel=2 note=65 velocity=0 time=0.016666666666666666
EXTRACT: note_on channel=6 note=65 velocity=0 time=0
EXTRACT: note_on channel=2 note=61 velocity=0 time=0.016666666666666666
EXTRACT: note_on channel=6 note=61 velocity=0 time=0
EXTRACT: note_on channel=2 note=70 velocity=0 time=0.016666666666666666
EXTRACT: note_on channel=6 note=70 velocity=0 time=0
EXTRACT: note_on channel=9 note=54 velocity=71 time=0.06666666666666667
EXTRACT: note_on channel=9 note=44 velocity=71 time=0
EXTRACT: note_on channel=1 note=37 velocity=114 time=0
EXTRACT: note_on channel=2 note=68 velocity=75 time=0
EXTRACT: note_on channel=2 note=61 velocity=75 time=0
EXTRACT: note_on channel=2 note=65 velocity=75 time=0
EXTRACT: note_on channel=4 note=49 velocity=114 time=0
EXTRACT: note_on channel=6 note=61 velocity=75 time=0
EXTRACT: note_on channel=6 note=65 velocity=75 time=0
EXTRACT: note_on channel=6 note=68 velocity=75 time=0
EXTRACT: note_on channel=9 note=54 velocity=0 time=0.1
EXTRACT: note_on channel=9 note=44 velocity=0 time=0
EXTRACT: note_on channel=9 note=36 velocity=114 time=0.06666666666666667
EXTRACT: note_on channel=9 note=54 velocity=91 time=0
EXTRACT: note_on channel=8 note=73 velocity=114 time=0
EXTRACT: note_on channel=9 note=36 velocity=0 time=0.08333333333333333
EXTRACT: note_on channel=4 note=49 velocity=0 time=0.05
EXTRACT: note_on channel=9 note=54 velocity=0 time=0.03333333333333333
EXTRACT: note_on channel=8 note=70 velocity=114 time=0
EXTRACT: note_on channel=8 note=73 velocity=0 time=0.03333333333333333
EXTRACT: note_on channel=8 note=70 velocity=0 time=0.11666666666666667
EXTRACT: note_on channel=9 note=54 velocity=71 time=0.016666666666666666
EXTRACT: note_on channel=4 note=56 velocity=114 time=0
EXTRACT: note_on channel=1 note=37 velocity=0 time=0.016666666666666666
EXTRACT: note_on channel=9 note=54 velocity=0 time=0.08333333333333333
EXTRACT: note_on channel=4 note=56 velocity=0 time=0.05
EXTRACT: note_on channel=9 note=54 velocity=64 time=0.016666666666666666
EXTRACT: note_on channel=9 note=36 velocity=71 time=0
EXTRACT: note_on channel=9 note=38 velocity=71 time=0
EXTRACT: note_on channel=9 note=40 velocity=71 time=0
EXTRACT: note_on channel=9 note=42 velocity=71 time=0
EXTRACT: note_on channel=9 note=44 velocity=64 time=0
EXTRACT: note_on channel=4 note=61 velocity=114 time=0
EXTRACT: note_on channel=8 note=73 velocity=114 time=0
EXTRACT: note_on channel=9 note=42 velocity=0 time=0.1
EXTRACT: note_on channel=9 note=38 velocity=0 time=0
EXTRACT: note_on channel=9 note=36 velocity=0 time=0
EXTRACT: note_on channel=9 note=40 velocity=0 time=0
EXTRACT: note_on channel=9 note=44 velocity=0 time=0.016666666666666666
EXTRACT: note_on channel=9 note=54 velocity=0 time=0
EXTRACT: note_on channel=8 note=70 velocity=114 time=0.05
EXTRACT: note_on channel=8 note=73 velocity=0 time=0.03333333333333333
EXTRACT: note_on channel=4 note=61 velocity=0 time=0.016666666666666666
EXTRACT: note_on channel=8 note=70 velocity=0 time=0.1
EXTRACT: note_on channel=9 note=54 velocity=71 time=0.016666666666666666
EXTRACT: note_on channel=9 note=44 velocity=71 time=0
EXTRACT: note_on channel=4 note=49 velocity=114 time=0
EXTRACT: note_on channel=2 note=61 velocity=0 time=0.05
EXTRACT: note_on channel=6 note=61 velocity=0 time=0
EXTRACT: note_on channel=9 note=44 velocity=0 time=0.05
EXTRACT: note_on channel=9 note=54 velocity=0 time=0
EXTRACT: note_on channel=2 note=65 velocity=0 time=0
EXTRACT: note_on channel=6 note=65 velocity=0 time=0
EXTRACT: note_on channel=2 note=68 velocity=0 time=0.016666666666666666
EXTRACT: note_on channel=6 note=68 velocity=0 time=0
EXTRACT: note_on channel=4 note=49 velocity=0 time=0.016666666666666666
EXTRACT: note_on channel=9 note=54 velocity=91 time=0.03333333333333333
EXTRACT: note_on channel=9 note=36 velocity=114 time=0
EXTRACT: note_on channel=1 note=39 velocity=114 time=0
EXTRACT: note_on channel=2 note=63 velocity=75 time=0
EXTRACT: note_on channel=2 note=67 velocity=75 time=0
EXTRACT: note_on channel=2 note=58 velocity=75 time=0
EXTRACT: note_on channel=4 note=51 velocity=114 time=0
EXTRACT: note_on channel=6 note=67 velocity=75 time=0
EXTRACT: note_on channel=6 note=58 velocity=75 time=0
EXTRACT: note_on channel=6 note=63 velocity=75 time=0
EXTRACT: note_on channel=8 note=73 velocity=114 time=0
EXTRACT: note_on channel=9 note=36 velocity=0 time=0.08333333333333333
EXTRACT: note_on channel=9 note=54 velocity=0 time=0.08333333333333333
EXTRACT: note_on channel=4 note=51 velocity=0 time=0
EXTRACT: note_on channel=8 note=73 velocity=0 time=0.03333333333333333
EXTRACT: note_on channel=9 note=54 velocity=71 time=0.13333333333333333
EXTRACT: note_on channel=4 note=58 velocity=114 time=0
EXTRACT: note_on channel=9 note=54 velocity=0 time=0.1
EXTRACT: note_on channel=1 note=39 velocity=0 time=0.05
EXTRACT: note_on channel=4 note=58 velocity=0 time=0
EXTRACT: note_on channel=9 note=36 velocity=71 time=0.016666666666666666
EXTRACT: note_on channel=9 note=44 velocity=64 time=0
EXTRACT: note_on channel=9 note=42 velocity=71 time=0
EXTRACT: note_on channel=9 note=54 velocity=64 time=0
EXTRACT: note_on channel=9 note=40 velocity=71 time=0
EXTRACT: note_on channel=9 note=38 velocity=71 time=0
EXTRACT: note_on channel=4 note=63 velocity=114 time=0
EXTRACT: note_on channel=8 note=73 velocity=114 time=0
EXTRACT: note_on channel=9 note=42 velocity=0 time=0.1
EXTRACT: note_on channel=9 note=36 velocity=0 time=0
EXTRACT: note_on channel=9 note=38 velocity=0 time=0
EXTRACT: note_on channel=9 note=40 velocity=0 time=0
EXTRACT: note_on channel=9 note=44 velocity=0 time=0.016666666666666666
EXTRACT: note_on channel=9 note=54 velocity=0 time=0
EXTRACT: note_on channel=4 note=63 velocity=0 time=0.1
EXTRACT: note_on channel=2 note=63 velocity=0 time=0.03333333333333333
EXTRACT: note_on channel=6 note=63 velocity=0 time=0
EXTRACT: note_on channel=2 note=67 velocity=0 time=0.016666666666666666
EXTRACT: note_on channel=2 note=58 velocity=0 time=0
EXTRACT: note_on channel=6 note=58 velocity=0 time=0
EXTRACT: note_on channel=6 note=67 velocity=0 time=0
EXTRACT: note_on channel=8 note=73 velocity=0 time=0
EXTRACT: note_on channel=9 note=44 velocity=71 time=0.06666666666666667
EXTRACT: note_on channel=9 note=54 velocity=71 time=0
EXTRACT: note_on channel=1 note=30 velocity=114 time=0
EXTRACT: note_on channel=2 note=66 velocity=75 time=0
EXTRACT: note_on channel=2 note=58 velocity=75 time=0
EXTRACT: note_on channel=2 note=61 velocity=75 time=0
EXTRACT: note_on channel=4 note=42 velocity=114 time=0
EXTRACT: note_on channel=6 note=58 velocity=75 time=0
EXTRACT: note_on channel=6 note=61 velocity=75 time=0
EXTRACT: note_on channel=6 note=66 velocity=75 time=0
EXTRACT: note_on channel=9 note=54 velocity=0 time=0.1
EXTRACT: note_on channel=9 note=44 velocity=0 time=0
EXTRACT: note_on channel=9 note=36 velocity=114 time=0.06666666666666667
EXTRACT: note_on channel=9 note=54 velocity=91 time=0
EXTRACT: note_on channel=8 note=78 velocity=114 time=0
EXTRACT: note_on channel=9 note=36 velocity=0 time=0.08333333333333333
EXTRACT: note_on channel=4 note=42 velocity=0 time=0.06666666666666667
EXTRACT: note_on channel=8 note=78 velocity=0 time=0
EXTRACT: note_on channel=9 note=54 velocity=0 time=0.016666666666666666
EXTRACT: note_on channel=8 note=73 velocity=114 time=0
EXTRACT: note_on channel=1 note=30 velocity=0 time=0.15
EXTRACT: note_on channel=8 note=73 velocity=0 time=0
EXTRACT: note_on channel=9 note=54 velocity=71 time=0.016666666666666666
EXTRACT: note_on channel=4 note=49 velocity=114 time=0
EXTRACT: note_on channel=8 note=78 velocity=114 time=0
EXTRACT: note_on channel=9 note=54 velocity=0 time=0.1
EXTRACT: note_on channel=4 note=49 velocity=0 time=0.05
EXTRACT: note_on channel=8 note=78 velocity=0 time=0
EXTRACT: note_on channel=9 note=36 velocity=71 time=0.016666666666666666
EXTRACT: note_on channel=9 note=42 velocity=71 time=0
EXTRACT: note_on channel=9 note=40 velocity=71 time=0
EXTRACT: note_on channel=9 note=44 velocity=64 time=0
EXTRACT: note_on channel=9 note=38 velocity=71 time=0
EXTRACT: note_on channel=9 note=54 velocity=64 time=0
EXTRACT: note_on channel=4 note=54 velocity=114 time=0
EXTRACT: note_on channel=8 note=73 velocity=114 time=0
EXTRACT: note_on channel=9 note=40 velocity=0 time=0.1
EXTRACT: note_on channel=9 note=36 velocity=0 time=0
EXTRACT: note_on channel=9 note=38 velocity=0 time=0
EXTRACT: note_on channel=9 note=42 velocity=0 time=0
EXTRACT: note_on channel=9 note=44 velocity=0 time=0.016666666666666666
EXTRACT: note_on channel=9 note=54 velocity=0 time=0
EXTRACT: note_on channel=8 note=73 velocity=0 time=0.03333333333333333
EXTRACT: note_on channel=4 note=54 velocity=0 time=0.06666666666666667
EXTRACT: note_on channel=9 note=42 velocity=71 time=0.11666666666666667
EXTRACT: note_on channel=9 note=54 velocity=64 time=0
EXTRACT: note_on channel=1 note=30 velocity=114 time=0
EXTRACT: note_on channel=4 note=42 velocity=114 time=0
EXTRACT: note_on channel=8 note=73 velocity=114 time=0
EXTRACT: note_on channel=2 note=61 velocity=0 time=0.06666666666666667
EXTRACT: note_on channel=2 note=66 velocity=0 time=0
EXTRACT: note_on channel=6 note=61 velocity=0 time=0
EXTRACT: note_on channel=6 note=66 velocity=0 time=0
EXTRACT: note_on channel=2 note=58 velocity=0 time=0.016666666666666666
EXTRACT: note_on channel=6 note=58 velocity=0 time=0
EXTRACT: note_on channel=9 note=42 velocity=0 time=0.016666666666666666
EXTRACT: note_on channel=9 note=54 velocity=0 time=0
EXTRACT: note_on channel=1 note=30 velocity=0 time=0.03333333333333333
EXTRACT: note_on channel=4 note=42 velocity=0 time=0.016666666666666666
EXTRACT: note_on channel=8 note=73 velocity=0 time=0
EXTRACT: note_on channel=9 note=36 velocity=114 time=0.016666666666666666
EXTRACT: note_on channel=9 note=54 velocity=91 time=0
EXTRACT: note_on channel=1 note=34 velocity=114 time=0
EXTRACT: note_on channel=2 note=65 velocity=75 time=0
EXTRACT: note_on channel=2 note=70 velocity=75 time=0
EXTRACT: note_on channel=2 note=61 velocity=75 time=0
EXTRACT: note_on channel=3 note=70 velocity=75 time=0
EXTRACT: note_on channel=3 note=58 velocity=75 time=0
EXTRACT: note_on channel=4 note=46 velocity=114 time=0
EXTRACT: note_on channel=6 note=65 velocity=75 time=0
EXTRACT: note_on channel=6 note=70 velocity=75 time=0
EXTRACT: note_on channel=6 note=61 velocity=75 time=0
EXTRACT: note_on channel=8 note=77 velocity=114 time=0
EXTRACT: note_on channel=9 note=36 velocity=0 time=0.08333333333333333
EXTRACT: note_on channel=9 note=54 velocity=0 time=0.08333333333333333
EXTRACT: note_on channel=4 note=46 velocity=0 time=0.06666666666666667
EXTRACT: note_on channel=8 note=77 velocity=0 time=0.016666666666666666
EXTRACT: note_on channel=9 note=54 velocity=71 time=0.08333333333333333
EXTRACT: note_on channel=4 note=53 velocity=114 time=0
EXTRACT: note_on channel=1 note=34 velocity=0 time=0.08333333333333333
EXTRACT: note_on channel=9 note=54 velocity=0 time=0.016666666666666666
EXTRACT: note_on channel=9 note=40 velocity=71 time=0.06666666666666667
EXTRACT: note_on channel=9 note=44 velocity=64 time=0
EXTRACT: note_on channel=9 note=36 velocity=71 time=0
EXTRACT: note_on channel=9 note=38 velocity=71 time=0
EXTRACT: note_on channel=9 note=54 velocity=64 time=0
EXTRACT: note_on channel=9 note=42 velocity=71 time=0
EXTRACT: note_on channel=4 note=58 velocity=114 time=0
EXTRACT: note_on channel=4 note=53 velocity=0 time=0
EXTRACT: note_on channel=8 note=75 velocity=114 time=0
EXTRACT: note_on channel=9 note=36 velocity=0 time=0.1
EXTRACT: note_on channel=9 note=40 velocity=0 time=0
EXTRACT: note_on channel=9 note=42 velocity=0 time=0
EXTRACT: note_on channel=9 note=38 velocity=0 time=0
EXTRACT: note_on channel=9 note=54 velocity=0 time=0.016666666666666666
EXTRACT: note_on channel=9 note=44 velocity=0 time=0
EXTRACT: note_on channel=4 note=58 velocity=0 time=0.1
EXTRACT: note_on channel=2 note=65 velocity=0 time=0.016666666666666666
EXTRACT: note_on channel=6 note=65 velocity=0 time=0
EXTRACT: note_on channel=2 note=61 velocity=0 time=0.016666666666666666
EXTRACT: note_on channel=6 note=61 velocity=0 time=0
EXTRACT: note_on channel=8 note=75 velocity=0 time=0
EXTRACT: note_on channel=2 note=70 velocity=0 time=0.016666666666666666
EXTRACT: note_on channel=6 note=70 velocity=0 time=0
EXTRACT: note_on channel=9 note=44 velocity=71 time=0.06666666666666667
EXTRACT: note_on channel=9 note=54 velocity=71 time=0
EXTRACT: note_on channel=1 note=37 velocity=114 time=0
EXTRACT: note_on channel=2 note=65 velocity=75 time=0
EXTRACT: note_on channel=2 note=68 velocity=75 time=0
EXTRACT: note_on channel=2 note=61 velocity=75 time=0
EXTRACT: note_on channel=4 note=49 velocity=114 time=0
EXTRACT: note_on channel=6 note=61 velocity=75 time=0
EXTRACT: note_on channel=6 note=68 velocity=75 time=0
EXTRACT: note_on channel=6 note=65 velocity=75 time=0
EXTRACT: note_on channel=8 note=73 velocity=114 time=0
EXTRACT: note_on channel=9 note=44 velocity=0 time=0.1
EXTRACT: note_on channel=9 note=54 velocity=0 time=0
EXTRACT: note_on channel=3 note=70 velocity=0 time=0
EXTRACT: note_on channel=3 note=58 velocity=0 time=0.03333333333333333
EXTRACT: note_on channel=8 note=73 velocity=0 time=0.016666666666666666
EXTRACT: note_on channel=9 note=36 velocity=114 time=0.016666666666666666
EXTRACT: note_on channel=9 note=54 velocity=91 time=0
EXTRACT: note_on channel=3 note=56 velocity=75 time=0
EXTRACT: note_on channel=3 note=68 velocity=75 time=0
EXTRACT: note_on channel=8 note=77 velocity=114 time=0
EXTRACT: note_on channel=9 note=36 velocity=0 time=0.08333333333333333
EXTRACT: note_on channel=4 note=49 velocity=0 time=0.05
EXTRACT: note_on channel=8 note=77 velocity=0 time=0.016666666666666666
EXTRACT: note_on channel=9 note=54 velocity=0 time=0.016666666666666666
EXTRACT: note_on channel=8 note=73 velocity=114 time=0
EXTRACT: note_on channel=8 note=73 velocity=0 time=0.15
EXTRACT: note_on channel=9 note=54 velocity=71 time=0.016666666666666666
EXTRACT: note_on channel=4 note=56 velocity=114 time=0
EXTRACT: note_on channel=8 note=77 velocity=114 time=0
EXTRACT: note_on channel=1 note=37 velocity=0 time=0.016666666666666666
EXTRACT: note_on channel=9 note=54 velocity=0 time=0.08333333333333333
EXTRACT: note_on channel=4 note=56 velocity=0 time=0.05
EXTRACT: note_on channel=8 note=77 velocity=0 time=0
EXTRACT: note_on channel=9 note=38 velocity=71 time=0.016666666666666666
EXTRACT: note_on channel=9 note=36 velocity=71 time=0
EXTRACT: note_on channel=9 note=54 velocity=64 time=0
EXTRACT: note_on channel=9 note=42 velocity=71 time=0
EXTRACT: note_on channel=9 note=40 velocity=71 time=0
EXTRACT: note_on channel=9 note=44 velocity=64 time=0
EXTRACT: note_on channel=4 note=61 velocity=114 time=0
EXTRACT: note_on channel=8 note=73 velocity=114 time=0
EXTRACT: note_on channel=9 note=42 velocity=0 time=0.1
EXTRACT: note_on channel=9 note=38 velocity=0 time=0
EXTRACT: note_on channel=9 note=40 velocity=0 time=0
EXTRACT: note_on channel=9 note=36 velocity=0 time=0
EXTRACT: note_on channel=9 note=54 velocity=0 time=0.016666666666666666
EXTRACT: note_on channel=9 note=44 velocity=0 time=0
EXTRACT: note_on channel=8 note=73 velocity=0 time=0.03333333333333333
EXTRACT: note_on channel=4 note=61 velocity=0 time=0.06666666666666667
EXTRACT: note_on channel=9 note=44 velocity=71 time=0.11666666666666667
EXTRACT: note_on channel=9 note=54 velocity=71 time=0
EXTRACT: note_on channel=4 note=49 velocity=114 time=0
EXTRACT: note_on channel=8 note=73 velocity=114 time=0
EXTRACT: note_on channel=2 note=61 velocity=0 time=0.05
EXTRACT: note_on channel=6 note=61 velocity=0 time=0
EXTRACT: note_on channel=9 note=44 velocity=0 time=0.05
EXTRACT: note_on channel=9 note=54 velocity=0 time=0
EXTRACT: note_on channel=2 note=65 velocity=0 time=0
EXTRACT: note_on channel=6 note=65 velocity=0 time=0
EXTRACT: note_on channel=2 note=68 velocity=0 time=0.016666666666666666
EXTRACT: note_on channel=3 note=68 velocity=0 time=0
EXTRACT: note_on channel=6 note=68 velocity=0 time=0
EXTRACT: note_on channel=3 note=56 velocity=0 time=0.016666666666666666
EXTRACT: note_on channel=4 note=49 velocity=0 time=0
EXTRACT: note_on channel=8 note=73 velocity=0 time=0
EXTRACT: note_on channel=9 note=36 velocity=114 time=0.03333333333333333
EXTRACT: note_on channel=9 note=54 velocity=91 time=0
EXTRACT: note_on channel=1 note=39 velocity=114 time=0
EXTRACT: note_on channel=2 note=63 velocity=75 time=0
EXTRACT: note_on channel=2 note=58 velocity=75 time=0
EXTRACT: note_on channel=2 note=67 velocity=75 time=0
EXTRACT: note_on channel=3 note=55 velocity=75 time=0
EXTRACT: note_on channel=3 note=67 velocity=75 time=0
EXTRACT: note_on channel=4 note=51 velocity=114 time=0
EXTRACT: note_on channel=6 note=63 velocity=75 time=0
EXTRACT: note_on channel=6 note=58 velocity=75 time=0
EXTRACT: note_on channel=6 note=67 velocity=75 time=0
EXTRACT: note_on channel=8 note=73 velocity=114 time=0
EXTRACT: note_on channel=9 note=36 velocity=0 time=0.08333333333333333
EXTRACT: note_on channel=9 note=54 velocity=0 time=0.08333333333333333
EXTRACT: note_on channel=4 note=51 velocity=0 time=0
EXTRACT: note_on channel=8 note=73 velocity=0 time=0.1
EXTRACT: note_on channel=9 note=54 velocity=71 time=0.06666666666666667
EXTRACT: note_on channel=4 note=58 velocity=114 time=0
EXTRACT: note_on channel=9 note=54 velocity=0 time=0.1
EXTRACT: note_on channel=1 note=39 velocity=0 time=0.05
EXTRACT: note_on channel=4 note=58 velocity=0 time=0
EXTRACT: note_on channel=9 note=38 velocity=71 time=0.016666666666666666
EXTRACT: note_on channel=9 note=40 velocity=71 time=0
EXTRACT: note_on channel=9 note=42 velocity=71 time=0
EXTRACT: note_on channel=9 note=36 velocity=71 time=0
EXTRACT: note_on channel=9 note=44 velocity=64 time=0
EXTRACT: note_on channel=9 note=54 velocity=64 time=0
EXTRACT: note_on channel=4 note=63 velocity=114 time=0
EXTRACT: note_on channel=8 note=73 velocity=114 time=0
EXTRACT: note_on channel=9 note=42 velocity=0 time=0.1
EXTRACT: note_on channel=9 note=40 velocity=0 time=0
EXTRACT: note_on channel=9 note=38 velocity=0 time=0
EXTRACT: note_on channel=9 note=36 velocity=0 time=0
EXTRACT: note_on channel=9 note=44 velocity=0 time=0.016666666666666666
EXTRACT: note_on channel=9 note=54 velocity=0 time=0
EXTRACT: note_on channel=8 note=73 velocity=0 time=0.08333333333333333
EXTRACT: note_on channel=4 note=63 velocity=0 time=0.016666666666666666
EXTRACT: note_on channel=2 note=63 velocity=0 time=0.03333333333333333
EXTRACT: note_on channel=6 note=63 velocity=0 time=0
EXTRACT: note_on channel=2 note=58 velocity=0 time=0.016666666666666666
EXTRACT: note_on channel=2 note=67 velocity=0 time=0
EXTRACT: note_on channel=6 note=58 velocity=0 time=0
EXTRACT: note_on channel=6 note=67 velocity=0 time=0
EXTRACT: note_on channel=9 note=44 velocity=71 time=0.06666666666666667
EXTRACT: note_on channel=9 note=54 velocity=71 time=0
EXTRACT: note_on channel=1 note=30 velocity=114 time=0
EXTRACT: note_on channel=2 note=58 velocity=75 time=0
EXTRACT: note_on channel=2 note=66 velocity=75 time=0
EXTRACT: note_on channel=2 note=61 velocity=75 time=0
EXTRACT: note_on channel=4 note=42 velocity=114 time=0
EXTRACT: note_on channel=6 note=58 velocity=75 time=0
EXTRACT: note_on channel=6 note=61 velocity=75 time=0
EXTRACT: note_on channel=6 note=66 velocity=75 time=0
EXTRACT: note_on channel=9 note=44 velocity=0 time=0.1
EXTRACT: note_on channel=9 note=54 velocity=0 time=0
EXTRACT: note_on channel=3 note=55 velocity=0 time=0.03333333333333333
EXTRACT: note_on channel=3 note=67 velocity=0 time=0.016666666666666666
EXTRACT: note_on channel=9 note=36 velocity=114 time=0.016666666666666666
EXTRACT: note_on channel=9 note=54 velocity=91 time=0
EXTRACT: note_on channel=3 note=66 velocity=75 time=0
EXTRACT: note_on channel=3 note=54 velocity=75 time=0
EXTRACT: note_on channel=8 note=75 velocity=114 time=0
EXTRACT: note_on channel=9 note=36 velocity=0 time=0.08333333333333333
EXTRACT: note_on channel=8 note=75 velocity=0 time=0.05
EXTRACT: note_on channel=4 note=42 velocity=0 time=0.016666666666666666
EXTRACT: note_on channel=9 note=54 velocity=0 time=0.016666666666666666
EXTRACT: note_on channel=8 note=73 velocity=114 time=0
EXTRACT: note_on channel=8 note=73 velocity=0 time=0.13333333333333333
EXTRACT: note_on channel=1 note=30 velocity=0 time=0.016666666666666666
EXTRACT: note_on channel=9 note=54 velocity=71 time=0.016666666666666666
EXTRACT: note_on channel=4 note=49 velocity=114 time=0
EXTRACT: note_on channel=8 note=75 velocity=114 time=0
EXTRACT: note_on channel=9 note=54 velocity=0 time=0.1
EXTRACT: note_on channel=8 note=75 velocity=0 time=0.03333333333333333
EXTRACT: note_on channel=4 note=49 velocity=0 time=0.016666666666666666
EXTRACT: note_on channel=9 note=54 velocity=64 time=0.016666666666666666
EXTRACT: note_on channel=9 note=36 velocity=71 time=0
EXTRACT: note_on channel=9 note=42 velocity=71 time=0
EXTRACT: note_on channel=9 note=40 velocity=71 time=0
EXTRACT: note_on channel=9 note=44 velocity=64 time=0
EXTRACT: note_on channel=9 note=38 velocity=71 time=0
EXTRACT: note_on channel=4 note=54 velocity=114 time=0
EXTRACT: note_on channel=8 note=73 velocity=114 time=0
EXTRACT: note_on channel=9 note=38 velocity=0 time=0.1
EXTRACT: note_on channel=9 note=42 velocity=0 time=0
EXTRACT: note_on channel=9 note=40 velocity=0 time=0
EXTRACT: note_on channel=9 note=36 velocity=0 time=0
EXTRACT: note_on channel=9 note=44 velocity=0 time=0.016666666666666666
EXTRACT: note_on channel=9 note=54 velocity=0 time=0
EXTRACT: note_on channel=8 note=73 velocity=0 time=0.016666666666666666
EXTRACT: note_on channel=8 note=73 velocity=114 time=0.03333333333333333
EXTRACT: note_on channel=4 note=54 velocity=0 time=0.05
EXTRACT: note_on channel=9 note=42 velocity=64 time=0.11666666666666667
EXTRACT: note_on channel=9 note=54 velocity=64 time=0
EXTRACT: note_on channel=1 note=30 velocity=114 time=0
EXTRACT: note_on channel=4 note=42 velocity=114 time=0
EXTRACT: note_on channel=8 note=73 velocity=0 time=0.016666666666666666
EXTRACT: note_on channel=2 note=66 velocity=0 time=0.05
EXTRACT: note_on channel=2 note=61 velocity=0 time=0
EXTRACT: note_on channel=6 note=66 velocity=0 time=0
EXTRACT: note_on channel=6 note=61 velocity=0 time=0
EXTRACT: note_on channel=2 note=58 velocity=0 time=0.016666666666666666
EXTRACT: note_on channel=6 note=58 velocity=0 time=0
EXTRACT: note_on channel=9 note=54 velocity=0 time=0.016666666666666666
EXTRACT: note_on channel=9 note=42 velocity=0 time=0.016666666666666666
EXTRACT: note_on channel=1 note=30 velocity=0 time=0.016666666666666666
EXTRACT: note_on channel=3 note=66 velocity=0 time=0
EXTRACT: note_on channel=3 note=54 velocity=0 time=0
EXTRACT: note_on channel=4 note=42 velocity=0 time=0.016666666666666666
EXTRACT: note_on channel=9 note=36 velocity=114 time=0.016666666666666666
EXTRACT: note_on channel=9 note=54 velocity=91 time=0
EXTRACT: note_on channel=1 note=34 velocity=114 time=0
EXTRACT: note_on channel=2 note=70 velocity=75 time=0
EXTRACT: note_on channel=2 note=65 velocity=75 time=0
EXTRACT: note_on channel=2 note=61 velocity=75 time=0
EXTRACT: note_on channel=3 note=53 velocity=75 time=0
EXTRACT: note_on channel=3 note=65 velocity=75 time=0
EXTRACT: note_on channel=4 note=46 velocity=114 time=0
EXTRACT: note_on channel=6 note=61 velocity=75 time=0
EXTRACT: note_on channel=6 note=65 velocity=75 time=0
EXTRACT: note_on channel=6 note=70 velocity=75 time=0
EXTRACT: note_on channel=8 note=73 velocity=114 time=0
EXTRACT: note_on channel=9 note=36 velocity=0 time=0.08333333333333333
EXTRACT: note_on channel=9 note=54 velocity=0 time=0.08333333333333333
EXTRACT: note_on channel=8 note=73 velocity=0 time=0.016666666666666666
EXTRACT: note_on channel=4 note=46 velocity=0 time=0.05
EXTRACT: note_on channel=9 note=54 velocity=71 time=0.1
EXTRACT: note_on channel=4 note=53 velocity=114 time=0
EXTRACT: note_on channel=1 note=34 velocity=0 time=0.08333333333333333
EXTRACT: note_on channel=9 note=54 velocity=0 time=0.016666666666666666
EXTRACT: note_on channel=9 note=44 velocity=64 time=0.06666666666666667
EXTRACT: note_on channel=9 note=54 velocity=64 time=0
EXTRACT: note_on channel=9 note=42 velocity=71 time=0
EXTRACT: note_on channel=9 note=38 velocity=71 time=0
EXTRACT: note_on channel=9 note=36 velocity=71 time=0
EXTRACT: note_on channel=9 note=40 velocity=71 time=0
EXTRACT: note_on channel=4 note=58 velocity=114 time=0
EXTRACT: note_on channel=4 note=53 velocity=0 time=0
EXTRACT: note_on channel=8 note=73 velocity=114 time=0
EXTRACT: note_on channel=9 note=42 velocity=0 time=0.1
EXTRACT: note_on channel=9 note=36 velocity=0 time=0
EXTRACT: note_on channel=9 note=40 velocity=0 time=0
EXTRACT: note_on channel=9 note=38 velocity=0 time=0
EXTRACT: note_on channel=9 note=44 velocity=0 time=0.016666666666666666
EXTRACT: note_on channel=9 note=54 velocity=0 time=0
EXTRACT: note_on channel=8 note=73 velocity=0 time=0.06666666666666667
EXTRACT: note_on channel=4 note=58 velocity=0 time=0.03333333333333333
EXTRACT: note_on channel=2 note=65 velocity=0 time=0.016666666666666666
EXTRACT: note_on channel=6 note=65 velocity=0 time=0
EXTRACT: note_on channel=2 note=61 velocity=0 time=0.016666666666666666
EXTRACT: note_on channel=6 note=61 velocity=0 time=0
EXTRACT: note_on channel=2 note=70 velocity=0 time=0.016666666666666666
EXTRACT: note_on channel=6 note=70 velocity=0 time=0
EXTRACT: note_on channel=9 note=54 velocity=71 time=0.06666666666666667
EXTRACT: note_on channel=9 note=44 velocity=71 time=0
EXTRACT: note_on channel=1 note=37 velocity=114 time=0
EXTRACT: note_on channel=2 note=61 velocity=75 time=0
EXTRACT: note_on channel=2 note=68 velocity=75 time=0
EXTRACT: note_on channel=2 note=65 velocity=75 time=0
EXTRACT: note_on channel=4 note=49 velocity=114 time=0
EXTRACT: note_on channel=6 note=65 velocity=75 time=0
EXTRACT: note_on channel=6 note=68 velocity=75 time=0
EXTRACT: note_on channel=6 note=61 velocity=75 time=0
EXTRACT: note_on channel=9 note=54 velocity=0 time=0.1
EXTRACT: note_on channel=9 note=44 velocity=0 time=0
EXTRACT: note_on channel=9 note=36 velocity=114 time=0.06666666666666667
EXTRACT: note_on channel=9 note=54 velocity=91 time=0
EXTRACT: note_on channel=8 note=73 velocity=114 time=0
EXTRACT: note_on channel=9 note=36 velocity=0 time=0.08333333333333333
EXTRACT: note_on channel=8 note=73 velocity=0 time=0.03333333333333333
EXTRACT: note_on channel=4 note=49 velocity=0 time=0.016666666666666666
EXTRACT: note_on channel=9 note=54 velocity=0 time=0.03333333333333333
EXTRACT: note_on channel=8 note=73 velocity=114 time=0
EXTRACT: note_on channel=8 note=73 velocity=0 time=0.11666666666666667
EXTRACT: note_on channel=9 note=54 velocity=71 time=0.05
EXTRACT: note_on channel=4 note=56 velocity=114 time=0
EXTRACT: note_on channel=8 note=75 velocity=114 time=0
EXTRACT: note_on channel=1 note=37 velocity=0 time=0.016666666666666666
EXTRACT: note_on channel=9 note=54 velocity=0 time=0.08333333333333333
EXTRACT: note_on channel=4 note=56 velocity=0 time=0.05
EXTRACT: note_on channel=9 note=42 velocity=71 time=0.016666666666666666
EXTRACT: note_on channel=9 note=44 velocity=64 time=0
EXTRACT: note_on channel=9 note=36 velocity=71 time=0
EXTRACT: note_on channel=9 note=38 velocity=71 time=0
EXTRACT: note_on channel=9 note=54 velocity=64 time=0
EXTRACT: note_on channel=9 note=40 velocity=71 time=0
EXTRACT: note_on channel=4 note=61 velocity=114 time=0
EXTRACT: note_on channel=8 note=73 velocity=114 time=0
EXTRACT: note_on channel=8 note=75 velocity=0 time=0.016666666666666666
EXTRACT: note_on channel=9 note=40 velocity=0 time=0.08333333333333333
EXTRACT: note_on channel=9 note=42 velocity=0 time=0
EXTRACT: note_on channel=9 note=38 velocity=0 time=0
EXTRACT: note_on channel=9 note=36 velocity=0 time=0
EXTRACT: note_on channel=9 note=54 velocity=0 time=0.016666666666666666
EXTRACT: note_on channel=9 note=44 velocity=0 time=0
EXTRACT: note_on channel=4 note=61 velocity=0 time=0.1
EXTRACT: note_on channel=8 note=73 velocity=0 time=0
EXTRACT: note_on channel=9 note=44 velocity=71 time=0.11666666666666667
EXTRACT: note_on channel=9 note=54 velocity=71 time=0
EXTRACT: note_on channel=4 note=49 velocity=114 time=0
EXTRACT: note_on channel=8 note=73 velocity=114 time=0
EXTRACT: note_on channel=2 note=61 velocity=0 time=0.05
EXTRACT: note_on channel=6 note=61 velocity=0 time=0
EXTRACT: note_on channel=9 note=44 velocity=0 time=0.05
EXTRACT: note_on channel=9 note=54 velocity=0 time=0
EXTRACT: note_on channel=2 note=65 velocity=0 time=0
EXTRACT: note_on channel=3 note=65 velocity=0 time=0
EXTRACT: note_on channel=6 note=65 velocity=0 time=0
EXTRACT: note_on channel=2 note=68 velocity=0 time=0.016666666666666666
EXTRACT: note_on channel=3 note=53 velocity=0 time=0
EXTRACT: note_on channel=6 note=68 velocity=0 time=0
EXTRACT: note_on channel=4 note=49 velocity=0 time=0.016666666666666666
EXTRACT: note_on channel=9 note=36 velocity=114 time=0.03333333333333333
EXTRACT: note_on channel=9 note=54 velocity=91 time=0
EXTRACT: note_on channel=1 note=39 velocity=114 time=0
EXTRACT: note_on channel=2 note=63 velocity=75 time=0
EXTRACT: note_on channel=2 note=67 velocity=75 time=0
EXTRACT: note_on channel=2 note=58 velocity=75 time=0
EXTRACT: note_on channel=3 note=51 velocity=75 time=0
EXTRACT: note_on channel=3 note=63 velocity=75 time=0
EXTRACT: note_on channel=4 note=51 velocity=114 time=0
EXTRACT: note_on channel=6 note=63 velocity=75 time=0
EXTRACT: note_on channel=6 note=67 velocity=75 time=0
EXTRACT: note_on channel=6 note=58 velocity=75 time=0
EXTRACT: note_on channel=9 note=36 velocity=0 time=0.08333333333333333
EXTRACT: note_on channel=9 note=54 velocity=0 time=0.08333333333333333
EXTRACT: note_on channel=4 note=51 velocity=0 time=0
EXTRACT: note_on channel=8 note=73 velocity=0 time=0.06666666666666667
EXTRACT: note_on channel=9 note=54 velocity=71 time=0.1
EXTRACT: note_on channel=4 note=58 velocity=114 time=0
EXTRACT: note_on channel=9 note=54 velocity=0 time=0.1
EXTRACT: note_on channel=1 note=39 velocity=0 time=0.05
EXTRACT: note_on channel=4 note=58 velocity=0 time=0
EXTRACT: note_on channel=9 note=44 velocity=64 time=0.016666666666666666
EXTRACT: note_on channel=9 note=40 velocity=71 time=0
EXTRACT: note_on channel=9 note=42 velocity=71 time=0
EXTRACT: note_on channel=9 note=38 velocity=71 time=0
EXTRACT: note_on channel=9 note=36 velocity=71 time=0
EXTRACT: note_on channel=9 note=54 velocity=64 time=0
EXTRACT: note_on channel=4 note=63 velocity=114 time=0
EXTRACT: note_on channel=8 note=75 velocity=114 time=0
EXTRACT: note_on channel=9 note=42 velocity=0 time=0.1
EXTRACT: note_on channel=9 note=40 velocity=0 time=0
EXTRACT: note_on channel=9 note=36 velocity=0 time=0
EXTRACT: note_on channel=9 note=38 velocity=0 time=0
EXTRACT: note_on channel=9 note=44 velocity=0 time=0.016666666666666666
EXTRACT: note_on channel=9 note=54 velocity=0 time=0
EXTRACT: note_on channel=4 note=63 velocity=0 time=0.1
EXTRACT: note_on channel=2 note=63 velocity=0 time=0.03333333333333333
EXTRACT: note_on channel=6 note=63 velocity=0 time=0
EXTRACT: note_on channel=2 note=67 velocity=0 time=0.016666666666666666
EXTRACT: note_on channel=2 note=58 velocity=0 time=0
EXTRACT: note_on channel=6 note=58 velocity=0 time=0
EXTRACT: note_on channel=6 note=67 velocity=0 time=0
EXTRACT: note_on channel=8 note=75 velocity=0 time=0.016666666666666666
EXTRACT: note_on channel=9 note=44 velocity=71 time=0.05
EXTRACT: note_on channel=9 note=54 velocity=71 time=0
EXTRACT: note_on channel=1 note=30 velocity=114 time=0
EXTRACT: note_on channel=2 note=66 velocity=75 time=0
EXTRACT: note_on channel=2 note=61 velocity=75 time=0
EXTRACT: note_on channel=2 note=58 velocity=75 time=0
EXTRACT: note_on channel=4 note=42 velocity=114 time=0
EXTRACT: note_on channel=6 note=58 velocity=75 time=0
EXTRACT: note_on channel=6 note=61 velocity=75 time=0
EXTRACT: note_on channel=6 note=66 velocity=75 time=0
EXTRACT: note_on channel=8 note=73 velocity=114 time=0
EXTRACT: note_on channel=9 note=44 velocity=0 time=0.1
EXTRACT: note_on channel=9 note=54 velocity=0 time=0
EXTRACT: note_on channel=8 note=73 velocity=0 time=0.03333333333333333
EXTRACT: note_on channel=9 note=36 velocity=114 time=0.03333333333333333
EXTRACT: note_on channel=9 note=54 velocity=91 time=0
EXTRACT: note_on channel=8 note=73 velocity=114 time=0
EXTRACT: note_on channel=9 note=36 velocity=0 time=0.08333333333333333
EXTRACT: note_on channel=4 note=42 velocity=0 time=0.06666666666666667
EXTRACT: note_on channel=9 note=54 velocity=0 time=0.016666666666666666
EXTRACT: note_on channel=8 note=73 velocity=0 time=0.05
EXTRACT: note_on channel=1 note=30 velocity=0 time=0.1
EXTRACT: note_on channel=9 note=54 velocity=71 time=0.016666666666666666
EXTRACT: note_on channel=4 note=49 velocity=114 time=0
EXTRACT: note_on channel=8 note=73 velocity=114 time=0
EXTRACT: note_on channel=9 note=54 velocity=0 time=0.1
EXTRACT: note_on channel=8 note=73 velocity=0 time=0.03333333333333333
EXTRACT: note_on channel=4 note=49 velocity=0 time=0.016666666666666666
EXTRACT: note_on channel=9 note=42 velocity=71 time=0.016666666666666666
EXTRACT: note_on channel=9 note=38 velocity=71 time=0
EXTRACT: note_on channel=9 note=44 velocity=64 time=0
EXTRACT: note_on channel=9 note=40 velocity=71 time=0
EXTRACT: note_on channel=9 note=36 velocity=71 time=0
EXTRACT: note_on channel=9 note=54 velocity=64 time=0
EXTRACT: note_on channel=4 note=54 velocity=114 time=0
EXTRACT: note_on channel=8 note=75 velocity=114 time=0
EXTRACT: note_on channel=9 note=40 velocity=0 time=0.1
EXTRACT: note_on channel=9 note=42 velocity=0 time=0
EXTRACT: note_on channel=9 note=36 velocity=0 time=0
EXTRACT: note_on channel=9 note=38 velocity=0 time=0
EXTRACT: note_on channel=9 note=44 velocity=0 time=0.016666666666666666
EXTRACT: note_on channel=9 note=54 velocity=0 time=0
EXTRACT: note_on channel=8 note=75 velocity=0 time=0.06666666666666667
EXTRACT: note_on channel=4 note=54 velocity=0 time=0.03333333333333333
EXTRACT: note_on channel=9 note=54 velocity=64 time=0.11666666666666667
EXTRACT: note_on channel=9 note=42 velocity=71 time=0
EXTRACT: note_on channel=1 note=30 velocity=114 time=0
EXTRACT: note_on channel=4 note=42 velocity=114 time=0
EXTRACT: note_on channel=8 note=77 velocity=114 time=0
EXTRACT: note_on channel=2 note=61 velocity=0 time=0.06666666666666667
EXTRACT: note_on channel=2 note=66 velocity=0 time=0
EXTRACT: note_on channel=6 note=66 velocity=0 time=0
EXTRACT: note_on channel=6 note=61 velocity=0 time=0
EXTRACT: note_on channel=2 note=58 velocity=0 time=0.016666666666666666
EXTRACT: note_on channel=6 note=58 velocity=0 time=0
EXTRACT: note_on channel=9 note=54 velocity=0 time=0.016666666666666666
EXTRACT: note_on channel=9 note=42 velocity=0 time=0
EXTRACT: note_on channel=3 note=51 velocity=0 time=0
EXTRACT: note_on channel=1 note=30 velocity=0 time=0.03333333333333333
EXTRACT: note_on channel=3 note=63 velocity=0 time=0
EXTRACT: note_on channel=4 note=42 velocity=0 time=0.016666666666666666
EXTRACT: note_on channel=9 note=54 velocity=91 time=0.016666666666666666
EXTRACT: note_on channel=9 note=55 velocity=91 time=0
EXTRACT: note_on channel=9 note=36 velocity=114 time=0
EXTRACT: note_on channel=1 note=37 velocity=114 time=0
EXTRACT: note_on channel=2 note=68 velocity=75 time=0
EXTRACT: note_on channel=2 note=73 velocity=75 time=0
EXTRACT: note_on channel=2 note=61 velocity=75 time=0
EXTRACT: note_on channel=2 note=65 velocity=75 time=0
EXTRACT: note_on channel=3 note=65 velocity=75 time=0
EXTRACT: note_on channel=3 note=53 velocity=75 time=0
EXTRACT: note_on channel=6 note=73 velocity=75 time=0
EXTRACT: note_on channel=6 note=68 velocity=75 time=0
EXTRACT: note_on channel=6 note=61 velocity=75 time=0
EXTRACT: note_on channel=6 note=65 velocity=75 time=0
EXTRACT: note_on channel=9 note=36 velocity=0 time=0.08333333333333333
EXTRACT: note_on channel=9 note=54 velocity=0 time=0.08333333333333333
EXTRACT: note_on channel=8 note=77 velocity=0 time=0.05
EXTRACT: note_on channel=9 note=54 velocity=71 time=0.11666666666666667
EXTRACT: note_on channel=1 note=37 velocity=0 time=0
EXTRACT: note_on channel=9 note=54 velocity=0 time=0.1
EXTRACT: note_on channel=9 note=38 velocity=71 time=0.06666666666666667
EXTRACT: note_on channel=9 note=54 velocity=64 time=0
EXTRACT: note_on channel=9 note=42 velocity=71 time=0
EXTRACT: note_on channel=9 note=40 velocity=71 time=0
EXTRACT: note_on channel=9 note=44 velocity=64 time=0
EXTRACT: note_on channel=9 note=36 velocity=71 time=0
EXTRACT: note_on channel=1 note=37 velocity=114 time=0
EXTRACT: note_on channel=5 note=65 velocity=84 time=0
EXTRACT: note_on channel=3 note=53 velocity=0 time=0.06666666666666667
EXTRACT: note_on channel=9 note=38 velocity=0 time=0.03333333333333333
EXTRACT: note_on channel=9 note=40 velocity=0 time=0
EXTRACT: note_on channel=9 note=36 velocity=0 time=0
EXTRACT: note_on channel=9 note=42 velocity=0 time=0
EXTRACT: note_on channel=3 note=65 velocity=0 time=0
EXTRACT: note_on channel=9 note=44 velocity=0 time=0.016666666666666666
EXTRACT: note_on channel=9 note=54 velocity=0 time=0
EXTRACT: note_on channel=5 note=65 velocity=0 time=0.15
EXTRACT: note_on channel=9 note=54 velocity=71 time=0.06666666666666667
EXTRACT: note_on channel=9 note=44 velocity=71 time=0
EXTRACT: note_on channel=1 note=37 velocity=0 time=0
EXTRACT: note_on channel=9 note=54 velocity=0 time=0.1
EXTRACT: note_on channel=9 note=44 velocity=0 time=0
EXTRACT: note_on channel=9 note=55 velocity=0 time=0.016666666666666666
EXTRACT: note_on channel=9 note=36 velocity=114 time=0.05
EXTRACT: note_on channel=9 note=54 velocity=91 time=0
EXTRACT: note_on channel=1 note=37 velocity=114 time=0
EXTRACT: note_on channel=5 note=68 velocity=83 time=0
EXTRACT: note_on channel=9 note=36 velocity=0 time=0.08333333333333333
EXTRACT: note_on channel=9 note=54 velocity=0 time=0.08333333333333333
EXTRACT: note_on channel=9 note=54 velocity=71 time=0.16666666666666666
EXTRACT: note_on channel=1 note=37 velocity=0 time=0
EXTRACT: note_on channel=8 note=73 velocity=114 time=0
EXTRACT: note_on channel=9 note=54 velocity=0 time=0.1
EXTRACT: note_on channel=8 note=73 velocity=0 time=0.016666666666666666
EXTRACT: note_on channel=9 note=54 velocity=64 time=0.05
EXTRACT: note_on channel=9 note=44 velocity=64 time=0
EXTRACT: note_on channel=9 note=42 velocity=71 time=0
EXTRACT: note_on channel=9 note=38 velocity=71 time=0
EXTRACT: note_on channel=9 note=40 velocity=71 time=0
EXTRACT: note_on channel=9 note=36 velocity=71 time=0
EXTRACT: note_on channel=1 note=37 velocity=114 time=0
EXTRACT: note_on channel=8 note=73 velocity=114 time=0
EXTRACT: note_on channel=9 note=38 velocity=0 time=0.1
EXTRACT: note_on channel=9 note=36 velocity=0 time=0
EXTRACT: note_on channel=9 note=40 velocity=0 time=0
EXTRACT: note_on channel=9 note=42 velocity=0 time=0
EXTRACT: note_on channel=9 note=54 velocity=0 time=0.016666666666666666
EXTRACT: note_on channel=9 note=44 velocity=0 time=0
EXTRACT: note_on channel=8 note=73 velocity=0 time=0.08333333333333333
EXTRACT: control_change channel=5 control=7 value=82 time=0.1
EXTRACT: note_on channel=9 note=44 velocity=71 time=0.03333333333333333
EXTRACT: note_on channel=9 note=54 velocity=71 time=0
EXTRACT: note_on channel=1 note=37 velocity=0 time=0
EXTRACT: control_change channel=5 control=7 value=81 time=0
EXTRACT: note_on channel=8 note=75 velocity=114 time=0
EXTRACT: control_change channel=5 control=7 value=79 time=0.03333333333333333
EXTRACT: note_on channel=2 note=61 velocity=0 time=0.03333333333333333
EXTRACT: control_change channel=5 control=7 value=76 time=0
EXTRACT: note_on channel=6 note=61 velocity=0 time=0
EXTRACT: note_on channel=2 note=65 velocity=0 time=0.016666666666666666
EXTRACT: note_on channel=2 note=73 velocity=0 time=0
EXTRACT: note_on channel=6 note=65 velocity=0 time=0
EXTRACT: note_on channel=6 note=73 velocity=0 time=0
EXTRACT: note_on channel=9 note=54 velocity=0 time=0.016666666666666666
EXTRACT: note_on channel=9 note=44 velocity=0 time=0
EXTRACT: note_on channel=2 note=68 velocity=0 time=0
EXTRACT: control_change channel=5 control=7 value=75 time=0
EXTRACT: note_on channel=6 note=68 velocity=0 time=0
EXTRACT: note_on channel=8 note=75 velocity=0 time=0.016666666666666666
EXTRACT: control_change channel=5 control=7 value=74 time=0.016666666666666666
EXTRACT: note_on channel=9 note=54 velocity=91 time=0.03333333333333333
EXTRACT: note_on channel=9 note=36 velocity=114 time=0
EXTRACT: note_on channel=1 note=36 velocity=114 time=0
EXTRACT: note_on channel=2 note=60 velocity=75 time=0
EXTRACT: note_on channel=2 note=72 velocity=75 time=0
EXTRACT: note_on channel=2 note=65 velocity=75 time=0
EXTRACT: note_on channel=2 note=68 velocity=75 time=0
EXTRACT: control_change channel=5 control=7 value=71 time=0
EXTRACT: note_on channel=6 note=72 velocity=75 time=0
EXTRACT: note_on channel=6 note=68 velocity=75 time=0
EXTRACT: note_on channel=6 note=60 velocity=75 time=0
EXTRACT: note_on channel=6 note=65 velocity=75 time=0
EXTRACT: note_on channel=8 note=77 velocity=114 time=0
EXTRACT: control_change channel=5 control=7 value=68 time=0.06666666666666667
EXTRACT: note_on channel=9 note=36 velocity=0 time=0.016666666666666666
EXTRACT: control_change channel=5 control=7 value=66 time=0.016666666666666666
EXTRACT: control_change channel=5 control=7 value=65 time=0.03333333333333333
EXTRACT: note_on channel=9 note=54 velocity=0 time=0.03333333333333333
EXTRACT: control_change channel=5 control=7 value=64 time=0
EXTRACT: control_change channel=5 control=7 value=62 time=0.03333333333333333
EXTRACT: note_on channel=8 note=77 velocity=0 time=0.016666666666666666
EXTRACT: control_change channel=5 control=7 value=61 time=0.016666666666666666
EXTRACT: control_change channel=5 control=7 value=59 time=0.03333333333333333
EXTRACT: note_on channel=9 note=54 velocity=71 time=0.06666666666666667
EXTRACT: control_change channel=5 control=7 value=58 time=0
EXTRACT: note_on channel=8 note=77 velocity=114 time=0
EXTRACT: note_on channel=1 note=36 velocity=0 time=0.03333333333333333
EXTRACT: control_change channel=5 control=7 value=56 time=0.03333333333333333
EXTRACT: note_on channel=9 note=54 velocity=0 time=0.03333333333333333
EXTRACT: note_on channel=8 note=77 velocity=0 time=0.016666666666666666
EXTRACT: control_change channel=5 control=7 value=53 time=0.016666666666666666
EXTRACT: note_on channel=9 note=40 velocity=71 time=0.03333333333333333
EXTRACT: note_on channel=9 note=54 velocity=64 time=0
EXTRACT: note_on channel=9 note=38 velocity=71 time=0
EXTRACT: note_on channel=9 note=36 velocity=71 time=0
EXTRACT: note_on channel=9 note=42 velocity=71 time=0
EXTRACT: note_on channel=9 note=44 velocity=64 time=0
EXTRACT: note_on channel=1 note=36 velocity=114 time=0
EXTRACT: control_change channel=5 control=7 value=55 time=0
EXTRACT: note_on channel=8 note=75 velocity=114 time=0
EXTRACT: control_change channel=5 control=7 value=53 time=0.03333333333333333
EXTRACT: control_change channel=5 control=7 value=51 time=0.03333333333333333
EXTRACT: note_on channel=9 note=36 velocity=0 time=0.03333333333333333
EXTRACT: note_on channel=9 note=38 velocity=0 time=0
EXTRACT: note_on channel=9 note=40 velocity=0 time=0
EXTRACT: note_on channel=9 note=42 velocity=0 time=0
EXTRACT: control_change channel=5 control=7 value=49 time=0
EXTRACT: note_on channel=9 note=44 velocity=0 time=0.016666666666666666
EXTRACT: note_on channel=9 note=54 velocity=0 time=0
EXTRACT: note_on channel=8 note=75 velocity=0 time=0.016666666666666666
EXTRACT: control_change channel=5 control=7 value=46 time=0.03333333333333333
EXTRACT: control_change channel=5 control=7 value=45 time=0.06666666666666667
EXTRACT: control_change channel=5 control=7 value=43 time=0.03333333333333333
EXTRACT: control_change channel=5 control=7 value=42 time=0.03333333333333333
EXTRACT: note_on channel=9 note=44 velocity=71 time=0.03333333333333333
EXTRACT: note_on channel=9 note=54 velocity=71 time=0
EXTRACT: note_on channel=8 note=75 velocity=114 time=0
EXTRACT: note_on channel=1 note=36 velocity=0 time=0.03333333333333333
EXTRACT: control_change channel=5 control=7 value=40 time=0
EXTRACT: control_change channel=5 control=7 value=36 time=0.03333333333333333
EXTRACT: note_on channel=9 note=44 velocity=0 time=0.03333333333333333
EXTRACT: note_on channel=9 note=54 velocity=0 time=0
EXTRACT: control_change channel=5 control=7 value=33 time=0.03333333333333333
EXTRACT: note_on channel=5 note=68 velocity=0 time=0
EXTRACT: note_on channel=8 note=75 velocity=0 time=0
EXTRACT: note_on channel=9 note=36 velocity=114 time=0.03333333333333333
EXTRACT: note_on channel=9 note=54 velocity=91 time=0
EXTRACT: note_on channel=1 note=36 velocity=114 time=0
EXTRACT: note_on channel=8 note=73 velocity=114 time=0
EXTRACT: control_change channel=5 control=7 value=30 time=0.03333333333333333
EXTRACT: control_change channel=5 control=7 value=29 time=0.03333333333333333
EXTRACT: note_on channel=9 note=36 velocity=0 time=0.016666666666666666
EXTRACT: control_change channel=5 control=7 value=27 time=0.016666666666666666
EXTRACT: control_change channel=5 control=7 value=25 time=0.03333333333333333
EXTRACT: note_on channel=8 note=73 velocity=0 time=0
EXTRACT: note_on channel=9 note=54 velocity=0 time=0.03333333333333333
EXTRACT: control_change channel=5 control=7 value=23 time=0.03333333333333333
EXTRACT: control_change channel=5 control=7 value=22 time=0.06666666666666667
EXTRACT: control_change channel=5 control=7 value=19 time=0.03333333333333333
EXTRACT: note_on channel=9 note=54 velocity=71 time=0.03333333333333333
EXTRACT: note_on channel=8 note=75 velocity=114 time=0
EXTRACT: note_on channel=1 note=36 velocity=0 time=0.03333333333333333
EXTRACT: control_change channel=5 control=7 value=16 time=0
EXTRACT: control_change channel=5 control=7 value=14 time=0.03333333333333333
EXTRACT: note_on channel=9 note=54 velocity=0 time=0.03333333333333333
EXTRACT: control_change channel=5 control=7 value=13 time=0
EXTRACT: control_change channel=5 control=7 value=12 time=0.03333333333333333
EXTRACT: note_on channel=9 note=54 velocity=64 time=0.03333333333333333
EXTRACT: note_on channel=9 note=38 velocity=71 time=0
EXTRACT: note_on channel=9 note=40 velocity=71 time=0
EXTRACT: note_on channel=9 note=36 velocity=71 time=0
EXTRACT: note_on channel=9 note=42 velocity=71 time=0
EXTRACT: note_on channel=9 note=44 velocity=64 time=0
EXTRACT: note_on channel=1 note=36 velocity=114 time=0
EXTRACT: control_change channel=5 control=7 value=85 time=0.03333333333333333
EXTRACT: note_on channel=9 note=38 velocity=0 time=0.06666666666666667
EXTRACT: note_on channel=9 note=36 velocity=0 time=0
EXTRACT: note_on channel=9 note=42 velocity=0 time=0
EXTRACT: note_on channel=9 note=40 velocity=0 time=0
EXTRACT: note_on channel=8 note=75 velocity=0 time=0
EXTRACT: note_on channel=9 note=54 velocity=0 time=0.016666666666666666
EXTRACT: note_on channel=9 note=44 velocity=0 time=0
EXTRACT: note_on channel=9 note=42 velocity=64 time=0.21666666666666667
EXTRACT: note_on channel=9 note=54 velocity=64 time=0
EXTRACT: note_on channel=8 note=77 velocity=114 time=0
EXTRACT: note_on channel=1 note=36 velocity=0 time=0.03333333333333333
EXTRACT: note_on channel=9 note=54 velocity=0 time=0.06666666666666667
EXTRACT: note_on channel=9 note=42 velocity=0 time=0.016666666666666666
EXTRACT: note_on channel=2 note=60 velocity=0 time=0.016666666666666666
EXTRACT: note_on channel=2 note=68 velocity=0 time=0
EXTRACT: note_on channel=2 note=65 velocity=0 time=0
EXTRACT: note_on channel=2 note=72 velocity=0 time=0
EXTRACT: note_on channel=6 note=72 velocity=0 time=0
EXTRACT: note_on channel=6 note=65 velocity=0 time=0
EXTRACT: note_on channel=6 note=60 velocity=0 time=0
EXTRACT: note_on channel=6 note=68 velocity=0 time=0
EXTRACT: note_on channel=9 note=54 velocity=91 time=0.03333333333333333
EXTRACT: note_on channel=9 note=36 velocity=114 time=0
EXTRACT: note_on channel=1 note=34 velocity=114 time=0
EXTRACT: note_on channel=2 note=61 velocity=75 time=0
EXTRACT: note_on channel=2 note=58 velocity=75 time=0
EXTRACT: note_on channel=2 note=70 velocity=75 time=0
EXTRACT: note_on channel=2 note=65 velocity=75 time=0
EXTRACT: note_on channel=6 note=58 velocity=75 time=0
EXTRACT: note_on channel=6 note=70 velocity=75 time=0
EXTRACT: note_on channel=6 note=65 velocity=75 time=0
EXTRACT: note_on channel=6 note=61 velocity=75 time=0
EXTRACT: note_on channel=9 note=36 velocity=0 time=0.08333333333333333
EXTRACT: note_on channel=9 note=54 velocity=0 time=0.08333333333333333
EXTRACT: note_on channel=8 note=77 velocity=0 time=0.03333333333333333
EXTRACT: note_on channel=9 note=54 velocity=71 time=0.13333333333333333
EXTRACT: note_on channel=1 note=34 velocity=0 time=0.03333333333333333
EXTRACT: note_on channel=9 note=54 velocity=0 time=0.06666666666666667
EXTRACT: note_on channel=9 note=36 velocity=71 time=0.06666666666666667
EXTRACT: note_on channel=9 note=54 velocity=64 time=0
EXTRACT: note_on channel=9 note=38 velocity=71 time=0
EXTRACT: note_on channel=9 note=44 velocity=64 time=0
EXTRACT: note_on channel=9 note=42 velocity=71 time=0
EXTRACT: note_on channel=9 note=40 velocity=71 time=0
EXTRACT: note_on channel=1 note=34 velocity=114 time=0
EXTRACT: note_on channel=5 note=68 velocity=83 time=0
EXTRACT: note_on channel=9 note=38 velocity=0 time=0.1
EXTRACT: note_on channel=9 note=42 velocity=0 time=0
EXTRACT: note_on channel=9 note=40 velocity=0 time=0
EXTRACT: note_on channel=9 note=36 velocity=0 time=0
EXTRACT: note_on channel=9 note=54 velocity=0 time=0.016666666666666666
EXTRACT: note_on channel=9 note=44 velocity=0 time=0
EXTRACT: control_change channel=5 control=7 value=84 time=0.15
EXTRACT: note_on channel=9 note=54 velocity=71 time=0.06666666666666667
EXTRACT: note_on channel=9 note=44 velocity=71 time=0
EXTRACT: note_on channel=1 note=34 velocity=0 time=0.03333333333333333
EXTRACT: note_on channel=5 note=68 velocity=0 time=0.05
EXTRACT: note_on channel=9 note=54 velocity=0 time=0.016666666666666666
EXTRACT: note_on channel=9 note=44 velocity=0 time=0
EXTRACT: note_on channel=9 note=36 velocity=114 time=0.06666666666666667
EXTRACT: note_on channel=9 note=54 velocity=91 time=0
EXTRACT: note_on channel=1 note=34 velocity=114 time=0
EXTRACT: note_on channel=5 note=65 velocity=83 time=0
EXTRACT: note_on channel=9 note=36 velocity=0 time=0.08333333333333333
EXTRACT: note_on channel=9 note=54 velocity=0 time=0.08333333333333333
EXTRACT: note_on channel=9 note=54 velocity=71 time=0.16666666666666666
EXTRACT: note_on channel=1 note=34 velocity=0 time=0.03333333333333333
EXTRACT: note_on channel=9 note=54 velocity=0 time=0.06666666666666667
EXTRACT: note_on channel=5 note=65 velocity=0 time=0
EXTRACT: control_change channel=5 control=7 value=85 time=0
EXTRACT: note_on channel=9 note=38 velocity=71 time=0.06666666666666667
EXTRACT: note_on channel=9 note=40 velocity=71 time=0
EXTRACT: note_on channel=9 note=54 velocity=64 time=0
EXTRACT: note_on channel=9 note=36 velocity=71 time=0
EXTRACT: note_on channel=9 note=44 velocity=64 time=0
EXTRACT: note_on channel=9 note=42 velocity=71 time=0
EXTRACT: note_on channel=1 note=34 velocity=114 time=0
EXTRACT: note_on channel=5 note=63 velocity=83 time=0
EXTRACT: note_on channel=9 note=40 velocity=0 time=0.1
EXTRACT: note_on channel=9 note=42 velocity=0 time=0
EXTRACT: note_on channel=9 note=38 velocity=0 time=0
EXTRACT: note_on channel=9 note=36 velocity=0 time=0
EXTRACT: note_on channel=9 note=44 velocity=0 time=0.016666666666666666
EXTRACT: note_on channel=9 note=54 velocity=0 time=0
EXTRACT: note_on channel=9 note=54 velocity=71 time=0.21666666666666667
EXTRACT: note_on channel=9 note=44 velocity=71 time=0
EXTRACT: note_on channel=8 note=75 velocity=114 time=0
EXTRACT: note_on channel=1 note=34 velocity=0 time=0.03333333333333333
EXTRACT: note_on channel=2 note=65 velocity=0 time=0.03333333333333333
EXTRACT: note_on channel=6 note=65 velocity=0 time=0
EXTRACT: note_on channel=2 note=61 velocity=0 time=0.016666666666666666
EXTRACT: note_on channel=2 note=70 velocity=0 time=0
EXTRACT: note_on channel=2 note=58 velocity=0 time=0
EXTRACT: note_on channel=6 note=61 velocity=0 time=0
EXTRACT: note_on channel=6 note=58 velocity=0 time=0
EXTRACT: note_on channel=6 note=70 velocity=0 time=0
EXTRACT: note_on channel=9 note=44 velocity=0 time=0.016666666666666666
EXTRACT: note_on channel=9 note=54 velocity=0 time=0
EXTRACT: note_on channel=8 note=75 velocity=0 time=0.016666666666666666
EXTRACT: note_on channel=5 note=63 velocity=0 time=0.016666666666666666
EXTRACT: note_on channel=9 note=54 velocity=91 time=0.03333333333333333
EXTRACT: note_on channel=9 note=36 velocity=114 time=0
EXTRACT: note_on channel=1 note=29 velocity=114 time=0
EXTRACT: note_on channel=2 note=53 velocity=75 time=0
EXTRACT: note_on channel=2 note=65 velocity=75 time=0
EXTRACT: note_on channel=2 note=68 velocity=75 time=0
EXTRACT: note_on channel=2 note=60 velocity=75 time=0
EXTRACT: note_on channel=5 note=65 velocity=83 time=0
EXTRACT: note_on channel=6 note=65 velocity=75 time=0
EXTRACT: note_on channel=6 note=53 velocity=75 time=0
EXTRACT: note_on channel=6 note=60 velocity=75 time=0
EXTRACT: note_on channel=6 note=68 velocity=75 time=0
EXTRACT: note_on channel=8 note=77 velocity=114 time=0
EXTRACT: note_on channel=9 note=36 velocity=0 time=0.08333333333333333
EXTRACT: note_on channel=9 note=54 velocity=0 time=0.08333333333333333
EXTRACT: note_on channel=8 note=77 velocity=0 time=0
EXTRACT: note_on channel=9 note=54 velocity=71 time=0.16666666666666666
EXTRACT: note_on channel=8 note=77 velocity=114 time=0
EXTRACT: note_on channel=1 note=29 velocity=0 time=0.03333333333333333
EXTRACT: note_on channel=9 note=54 velocity=0 time=0.06666666666666667
EXTRACT: control_change channel=5 control=7 value=84 time=0
EXTRACT: note_on channel=9 note=42 velocity=71 time=0.06666666666666667
EXTRACT: note_on channel=9 note=36 velocity=71 time=0
EXTRACT: note_on channel=9 note=38 velocity=71 time=0
EXTRACT: note_on channel=9 note=44 velocity=64 time=0
EXTRACT: note_on channel=9 note=54 velocity=64 time=0
EXTRACT: note_on channel=9 note=40 velocity=71 time=0
EXTRACT: note_on channel=1 note=29 velocity=114 time=0
EXTRACT: note_on channel=8 note=77 velocity=0 time=0
EXTRACT: note_on channel=8 note=75 velocity=114 time=0
EXTRACT: note_on channel=9 note=40 velocity=0 time=0.1
EXTRACT: note_on channel=9 note=38 velocity=0 time=0
EXTRACT: note_on channel=9 note=36 velocity=0 time=0
EXTRACT: note_on channel=9 note=42 velocity=0 time=0
EXTRACT: note_on channel=9 note=44 velocity=0 time=0.016666666666666666
EXTRACT: note_on channel=9 note=54 velocity=0 time=0
EXTRACT: control_change channel=5 control=7 value=81 time=0.08333333333333333
EXTRACT: note_on channel=8 note=75 velocity=0 time=0
EXTRACT: note_on channel=9 note=54 velocity=71 time=0.13333333333333333
EXTRACT: note_on channel=9 note=44 velocity=71 time=0
EXTRACT: control_change channel=5 control=7 value=78 time=0
EXTRACT: note_on channel=8 note=75 velocity=114 time=0
EXTRACT: note_on channel=1 note=29 velocity=0 time=0.03333333333333333
EXTRACT: control_change channel=5 control=7 value=76 time=0.03333333333333333
EXTRACT: note_on channel=9 note=54 velocity=0 time=0.03333333333333333
EXTRACT: note_on channel=9 note=44 velocity=0 time=0
EXTRACT: control_change channel=5 control=7 value=75 time=0
EXTRACT: note_on channel=8 note=75 velocity=0 time=0.016666666666666666
EXTRACT: control_change channel=5 control=7 value=72 time=0.016666666666666666
EXTRACT: note_on channel=9 note=36 velocity=114 time=0.03333333333333333
EXTRACT: note_on channel=9 note=54 velocity=91 time=0
EXTRACT: note_on channel=1 note=29 velocity=114 time=0
EXTRACT: note_on channel=8 note=73 velocity=114 time=0
EXTRACT: control_change channel=5 control=7 value=71 time=0.03333333333333333
EXTRACT: control_change channel=5 control=7 value=68 time=0.03333333333333333
EXTRACT: note_on channel=9 note=36 velocity=0 time=0.016666666666666666
EXTRACT: control_change channel=5 control=7 value=66 time=0.016666666666666666
EXTRACT: note_on channel=8 note=73 velocity=0 time=0.016666666666666666
EXTRACT: control_change channel=5 control=7 value=64 time=0.016666666666666666
EXTRACT: note_on channel=9 note=54 velocity=0 time=0.03333333333333333
EXTRACT: control_change channel=5 control=7 value=62 time=0
EXTRACT: control_change channel=5 control=7 value=61 time=0.03333333333333333
EXTRACT: control_change channel=5 control=7 value=59 time=0.03333333333333333
EXTRACT: control_change channel=5 control=7 value=58 time=0.03333333333333333
EXTRACT: control_change channel=5 control=7 value=56 time=0.03333333333333333
EXTRACT: note_on channel=9 note=54 velocity=71 time=0.03333333333333333
EXTRACT: note_on channel=8 note=75 velocity=114 time=0
EXTRACT: note_on channel=1 note=29 velocity=0 time=0.03333333333333333
EXTRACT: control_change channel=5 control=7 value=55 time=0
EXTRACT: control_change channel=5 control=7 value=53 time=0.03333333333333333
EXTRACT: note_on channel=9 note=54 velocity=0 time=0.03333333333333333
EXTRACT: control_change channel=5 control=7 value=52 time=0
EXTRACT: note_on channel=8 note=75 velocity=0 time=0.016666666666666666
EXTRACT: control_change channel=5 control=7 value=51 time=0.016666666666666666
EXTRACT: note_on channel=9 note=36 velocity=71 time=0.03333333333333333
EXTRACT: note_on channel=9 note=42 velocity=71 time=0
EXTRACT: note_on channel=9 note=40 velocity=71 time=0
EXTRACT: note_on channel=9 note=44 velocity=64 time=0
EXTRACT: note_on channel=9 note=54 velocity=64 time=0
EXTRACT: note_on channel=9 note=38 velocity=71 time=0
EXTRACT: note_on channel=1 note=29 velocity=114 time=0
EXTRACT: control_change channel=5 control=7 value=49 time=0
EXTRACT: note_on channel=8 note=77 velocity=114 time=0
EXTRACT: control_change channel=5 control=7 value=48 time=0.03333333333333333
EXTRACT: control_change channel=5 control=7 value=46 time=0.03333333333333333
EXTRACT: note_on channel=9 note=42 velocity=0 time=0.03333333333333333
EXTRACT: note_on channel=9 note=38 velocity=0 time=0
EXTRACT: note_on channel=9 note=36 velocity=0 time=0
EXTRACT: note_on channel=9 note=40 velocity=0 time=0
EXTRACT: note_on channel=9 note=44 velocity=0 time=0.016666666666666666
EXTRACT: note_on channel=9 note=54 velocity=0 time=0
EXTRACT: note_on channel=8 note=77 velocity=0 time=0
EXTRACT: control_change channel=5 control=7 value=43 time=0.016666666666666666
EXTRACT: control_change channel=5 control=7 value=42 time=0.03333333333333333
EXTRACT: control_change channel=5 control=7 value=40 time=0.03333333333333333
EXTRACT: control_change channel=5 control=7 value=38 time=0.03333333333333333
EXTRACT: control_change channel=5 control=7 value=36 time=0.06666666666666667
EXTRACT: note_on channel=9 note=54 velocity=64 time=0.03333333333333333
EXTRACT: note_on channel=9 note=42 velocity=71 time=0
EXTRACT: control_change channel=5 control=7 value=35 time=0
EXTRACT: note_on channel=8 note=77 velocity=114 time=0
EXTRACT: note_on channel=1 note=29 velocity=0 time=0.03333333333333333
EXTRACT: control_change channel=5 control=7 value=33 time=0
EXTRACT: note_on channel=2 note=53 velocity=0 time=0.016666666666666666
EXTRACT: note_on channel=2 note=60 velocity=0 time=0
EXTRACT: note_on channel=2 note=68 velocity=0 time=0
EXTRACT: note_on channel=2 note=65 velocity=0 time=0
EXTRACT: note_on channel=6 note=65 velocity=0 time=0
EXTRACT: note_on channel=6 note=68 velocity=0 time=0
EXTRACT: note_on channel=6 note=60 velocity=0 time=0
EXTRACT: note_on channel=6 note=53 velocity=0 time=0
EXTRACT: control_change channel=5 control=7 value=32 time=0.016666666666666666
EXTRACT: note_on channel=9 note=42 velocity=0 time=0.03333333333333333
EXTRACT: note_on channel=9 note=54 velocity=0 time=0
EXTRACT: control_change channel=5 control=7 value=30 time=0
EXTRACT: control_change channel=5 control=7 value=29 time=0.03333333333333333
EXTRACT: note_on channel=5 note=65 velocity=0 time=0
EXTRACT: note_on channel=9 note=54 velocity=91 time=0.03333333333333333
EXTRACT: note_on channel=9 note=36 velocity=114 time=0
EXTRACT: note_on channel=1 note=39 velocity=114 time=0
EXTRACT: note_on channel=2 note=58 velocity=75 time=0
EXTRACT: note_on channel=2 note=63 velocity=75 time=0
EXTRACT: note_on channel=2 note=66 velocity=75 time=0
EXTRACT: note_on channel=2 note=61 velocity=75 time=0
EXTRACT: control_change channel=5 control=7 value=26 time=0
EXTRACT: note_on channel=6 note=58 velocity=75 time=0
EXTRACT: note_on channel=6 note=66 velocity=75 time=0
EXTRACT: note_on channel=6 note=63 velocity=75 time=0
EXTRACT: note_on channel=6 note=61 velocity=75 time=0
EXTRACT: control_change channel=5 control=7 value=25 time=0.06666666666666667
EXTRACT: note_on channel=9 note=36 velocity=0 time=0.016666666666666666
EXTRACT: control_change channel=5 control=7 value=23 time=0.05
EXTRACT: note_on channel=8 note=77 velocity=0 time=0.016666666666666666
EXTRACT: note_on channel=9 note=54 velocity=0 time=0.016666666666666666
EXTRACT: control_change channel=5 control=7 value=22 time=0
EXTRACT: control_change channel=5 control=7 value=19 time=0.03333333333333333
EXTRACT: control_change channel=5 control=7 value=17 time=0.03333333333333333
EXTRACT: control_change channel=5 control=7 value=85 time=0.06666666666666667
EXTRACT: note_on channel=9 note=54 velocity=71 time=0.03333333333333333
EXTRACT: note_on channel=8 note=75 velocity=114 time=0
EXTRACT: note_on channel=1 note=39 velocity=0 time=0.03333333333333333
EXTRACT: note_on channel=9 note=54 velocity=0 time=0.06666666666666667
EXTRACT: note_on channel=9 note=54 velocity=64 time=0.06666666666666667
EXTRACT: note_on channel=9 note=44 velocity=64 time=0
EXTRACT: note_on channel=9 note=42 velocity=71 time=0
EXTRACT: note_on channel=9 note=38 velocity=71 time=0
EXTRACT: note_on channel=9 note=40 velocity=71 time=0
EXTRACT: note_on channel=9 note=36 velocity=71 time=0
EXTRACT: note_on channel=1 note=39 velocity=114 time=0
EXTRACT: note_on channel=9 note=42 velocity=0 time=0.1
EXTRACT: note_on channel=9 note=40 velocity=0 time=0
EXTRACT: note_on channel=9 note=36 velocity=0 time=0
EXTRACT: note_on channel=9 note=38 velocity=0 time=0
EXTRACT: note_on channel=9 note=54 velocity=0 time=0.016666666666666666
EXTRACT: note_on channel=9 note=44 velocity=0 time=0
EXTRACT: note_on channel=8 note=75 velocity=0 time=0.05
EXTRACT: note_on channel=9 note=44 velocity=71 time=0.16666666666666666
EXTRACT: note_on channel=9 note=54 velocity=71 time=0
EXTRACT: note_on channel=8 note=75 velocity=114 time=0
EXTRACT: note_on channel=1 note=39 velocity=0 time=0.03333333333333333
EXTRACT: note_on channel=9 note=44 velocity=0 time=0.06666666666666667
EXTRACT: note_on channel=9 note=54 velocity=0 time=0
EXTRACT: note_on channel=8 note=75 velocity=0 time=0.016666666666666666
EXTRACT: note_on channel=9 note=36 velocity=114 time=0.05
EXTRACT: note_on channel=9 note=54 velocity=91 time=0
EXTRACT: note_on channel=1 note=39 velocity=114 time=0
EXTRACT: note_on channel=8 note=73 velocity=114 time=0
EXTRACT: note_on channel=9 note=36 velocity=0 time=0.08333333333333333
EXTRACT: note_on channel=8 note=73 velocity=0 time=0.03333333333333333
EXTRACT: note_on channel=9 note=54 velocity=0 time=0.05
EXTRACT: note_on channel=9 note=54 velocity=71 time=0.16666666666666666
EXTRACT: note_on channel=8 note=75 velocity=114 time=0
EXTRACT: note_on channel=1 note=39 velocity=0 time=0.03333333333333333
EXTRACT: note_on channel=9 note=54 velocity=0 time=0.06666666666666667
EXTRACT: note_on channel=9 note=40 velocity=71 time=0.06666666666666667
EXTRACT: note_on channel=9 note=36 velocity=71 time=0
EXTRACT: note_on channel=9 note=38 velocity=71 time=0
EXTRACT: note_on channel=9 note=44 velocity=64 time=0
EXTRACT: note_on channel=9 note=42 velocity=71 time=0
EXTRACT: note_on channel=9 note=54 velocity=64 time=0
EXTRACT: note_on channel=1 note=39 velocity=114 time=0
EXTRACT: note_on channel=3 note=80 velocity=75 time=0
EXTRACT: note_on channel=3 note=68 velocity=75 time=0
EXTRACT: note_on channel=9 note=36 velocity=0 time=0.1
EXTRACT: note_on channel=9 note=42 velocity=0 time=0
EXTRACT: note_on channel=9 note=40 velocity=0 time=0
EXTRACT: note_on channel=9 note=38 velocity=0 time=0
EXTRACT: note_on channel=9 note=44 velocity=0 time=0.016666666666666666
EXTRACT: note_on channel=9 note=54 velocity=0 time=0
EXTRACT: note_on channel=8 note=75 velocity=0 time=0
EXTRACT: note_on channel=3 note=68 velocity=0 time=0.1
EXTRACT: note_on channel=3 note=80 velocity=0 time=0.016666666666666666
EXTRACT: note_on channel=9 note=44 velocity=71 time=0.1
EXTRACT: note_on channel=9 note=54 velocity=71 time=0
EXTRACT: note_on channel=3 note=65 velocity=75 time=0
EXTRACT: note_on channel=3 note=77 velocity=75 time=0
EXTRACT: note_on channel=8 note=77 velocity=114 time=0
EXTRACT: note_on channel=1 note=39 velocity=0 time=0.03333333333333333
EXTRACT: note_on channel=9 note=54 velocity=0 time=0.06666666666666667
EXTRACT: note_on channel=9 note=44 velocity=0 time=0
EXTRACT: note_on channel=9 note=54 velocity=91 time=0.06666666666666667
EXTRACT: note_on channel=9 note=36 velocity=114 time=0
EXTRACT: note_on channel=1 note=39 velocity=114 time=0
EXTRACT: note_on channel=9 note=36 velocity=0 time=0.08333333333333333
EXTRACT: note_on channel=3 note=77 velocity=0 time=0.016666666666666666
EXTRACT: note_on channel=3 note=65 velocity=0 time=0
EXTRACT: note_on channel=9 note=54 velocity=0 time=0.06666666666666667
EXTRACT: note_on channel=8 note=77 velocity=0 time=0
EXTRACT: note_on channel=9 note=54 velocity=71 time=0.16666666666666666
EXTRACT: note_on channel=8 note=77 velocity=114 time=0
EXTRACT: note_on channel=1 note=39 velocity=0 time=0.03333333333333333
EXTRACT: note_on channel=9 note=54 velocity=0 time=0.06666666666666667
EXTRACT: note_on channel=8 note=77 velocity=0 time=0.016666666666666666
EXTRACT: note_on channel=9 note=36 velocity=71 time=0.05
EXTRACT: note_on channel=9 note=40 velocity=71 time=0
EXTRACT: note_on channel=9 note=38 velocity=71 time=0
EXTRACT: note_on channel=9 note=42 velocity=71 time=0
EXTRACT: note_on channel=9 note=44 velocity=64 time=0
EXTRACT: note_on channel=9 note=54 velocity=64 time=0
EXTRACT: note_on channel=1 note=39 velocity=114 time=0
EXTRACT: note_on channel=8 note=75 velocity=114 time=0
EXTRACT: note_on channel=9 note=42 velocity=0 time=0.1
EXTRACT: note_on channel=9 note=38 velocity=0 time=0
EXTRACT: note_on channel=9 note=40 velocity=0 time=0
EXTRACT: note_on channel=9 note=36 velocity=0 time=0
EXTRACT: note_on channel=9 note=54 velocity=0 time=0.016666666666666666
EXTRACT: note_on channel=9 note=44 velocity=0 time=0
EXTRACT: note_on channel=8 note=75 velocity=0 time=0.05
EXTRACT: note_on channel=9 note=54 velocity=71 time=0.16666666666666666
EXTRACT: note_on channel=9 note=44 velocity=71 time=0
EXTRACT: note_on channel=8 note=75 velocity=114 time=0
EXTRACT: note_on channel=1 note=39 velocity=0 time=0.03333333333333333
EXTRACT: note_on channel=9 note=54 velocity=0 time=0.06666666666666667
EXTRACT: note_on channel=9 note=44 velocity=0 time=0
EXTRACT: note_on channel=8 note=75 velocity=0 time=0.016666666666666666
EXTRACT: note_on channel=9 note=36 velocity=114 time=0.05
EXTRACT: note_on channel=9 note=54 velocity=91 time=0
EXTRACT: note_on channel=1 note=39 velocity=114 time=0
EXTRACT: note_on channel=8 note=73 velocity=114 time=0
EXTRACT: note_on channel=9 note=36 velocity=0 time=0.08333333333333333
EXTRACT: note_on channel=9 note=54 velocity=0 time=0.08333333333333333
EXTRACT: note_on channel=8 note=73 velocity=0 time=0
EXTRACT: note_on channel=9 note=54 velocity=71 time=0.16666666666666666
EXTRACT: note_on channel=8 note=75 velocity=114 time=0
EXTRACT: note_on channel=1 note=39 velocity=0 time=0.03333333333333333
EXTRACT: note_on channel=9 note=54 velocity=0 time=0.06666666666666667
EXTRACT: note_on channel=9 note=42 velocity=71 time=0.06666666666666667
EXTRACT: note_on channel=9 note=44 velocity=64 time=0
EXTRACT: note_on channel=9 note=40 velocity=71 time=0
EXTRACT: note_on channel=9 note=38 velocity=71 time=0
EXTRACT: note_on channel=9 note=54 velocity=64 time=0
EXTRACT: note_on channel=9 note=36 velocity=71 time=0
EXTRACT: note_on channel=1 note=39 velocity=114 time=0
EXTRACT: note_on channel=3 note=80 velocity=75 time=0
EXTRACT: note_on channel=3 note=68 velocity=75 time=0
EXTRACT: note_on channel=8 note=75 velocity=0 time=0.06666666666666667
EXTRACT: note_on channel=9 note=38 velocity=0 time=0.03333333333333333
EXTRACT: note_on channel=9 note=36 velocity=0 time=0
EXTRACT: note_on channel=9 note=42 velocity=0 time=0
EXTRACT: note_on channel=9 note=40 velocity=0 time=0
EXTRACT: note_on channel=9 note=54 velocity=0 time=0.016666666666666666
EXTRACT: note_on channel=9 note=44 velocity=0 time=0
EXTRACT: note_on channel=3 note=68 velocity=0 time=0.11666666666666667
EXTRACT: note_on channel=3 note=80 velocity=0 time=0
EXTRACT: note_on channel=9 note=54 velocity=64 time=0.1
EXTRACT: note_on channel=9 note=42 velocity=71 time=0
EXTRACT: note_on channel=3 note=77 velocity=75 time=0
EXTRACT: note_on channel=3 note=65 velocity=75 time=0
EXTRACT: note_on channel=8 note=73 velocity=114 time=0
EXTRACT: note_on channel=1 note=39 velocity=0 time=0.03333333333333333
EXTRACT: note_on channel=2 note=66 velocity=0 time=0.05
EXTRACT: note_on channel=6 note=66 velocity=0 time=0
EXTRACT: note_on channel=9 note=42 velocity=0 time=0.016666666666666666
EXTRACT: note_on channel=9 note=54 velocity=0 time=0
EXTRACT: note_on channel=2 note=58 velocity=0 time=0
EXTRACT: note_on channel=2 note=63 velocity=0 time=0
EXTRACT: note_on channel=6 note=61 velocity=0 time=0
EXTRACT: note_on channel=6 note=63 velocity=0 time=0.016666666666666666
EXTRACT: note_on channel=8 note=73 velocity=0 time=0.016666666666666666
EXTRACT: note_on channel=2 note=61 velocity=0 time=0.016666666666666666
EXTRACT: note_on channel=6 note=58 velocity=0 time=0
EXTRACT: note_on channel=9 note=54 velocity=91 time=0.016666666666666666
EXTRACT: note_on channel=9 note=36 velocity=114 time=0
EXTRACT: note_on channel=1 note=44 velocity=114 time=0
EXTRACT: note_on channel=2 note=56 velocity=75 time=0
EXTRACT: note_on channel=2 note=68 velocity=75 time=0
EXTRACT: note_on channel=2 note=63 velocity=75 time=0
EXTRACT: note_on channel=6 note=63 velocity=75 time=0
EXTRACT: note_on channel=6 note=56 velocity=75 time=0
EXTRACT: note_on channel=6 note=68 velocity=75 time=0
EXTRACT: note_on channel=8 note=77 velocity=114 time=0
EXTRACT: note_on channel=3 note=77 velocity=0 time=0.06666666666666667
EXTRACT: note_on channel=3 note=65 velocity=0 time=0
EXTRACT: note_on channel=9 note=36 velocity=0 time=0.016666666666666666
EXTRACT: note_on channel=9 note=54 velocity=0 time=0.08333333333333333
EXTRACT: note_on channel=8 note=77 velocity=0 time=0.05
EXTRACT: note_on channel=9 note=54 velocity=71 time=0.11666666666666667
EXTRACT: note_on channel=8 note=77 velocity=114 time=0
EXTRACT: note_on channel=1 note=44 velocity=0 time=0.03333333333333333
EXTRACT: note_on channel=9 note=54 velocity=0 time=0.06666666666666667
EXTRACT: note_on channel=8 note=77 velocity=0 time=0.016666666666666666
EXTRACT: note_on channel=9 note=36 velocity=71 time=0.05
EXTRACT: note_on channel=9 note=40 velocity=71 time=0
EXTRACT: note_on channel=9 note=54 velocity=64 time=0
EXTRACT: note_on channel=9 note=38 velocity=71 time=0
EXTRACT: note_on channel=9 note=42 velocity=71 time=0
EXTRACT: note_on channel=9 note=44 velocity=64 time=0
EXTRACT: note_on channel=1 note=44 velocity=114 time=0
EXTRACT: note_on channel=8 note=75 velocity=114 time=0
EXTRACT: note_on channel=9 note=36 velocity=0 time=0.1
EXTRACT: note_on channel=9 note=42 velocity=0 time=0
EXTRACT: note_on channel=9 note=40 velocity=0 time=0
EXTRACT: note_on channel=9 note=38 velocity=0 time=0
EXTRACT: note_on channel=9 note=44 velocity=0 time=0.016666666666666666
EXTRACT: note_on channel=9 note=54 velocity=0 time=0
EXTRACT: note_on channel=8 note=75 velocity=0 time=0
EXTRACT: note_on channel=9 note=44 velocity=71 time=0.21666666666666667
EXTRACT: note_on channel=9 note=54 velocity=71 time=0
EXTRACT: note_on channel=8 note=75 velocity=114 time=0
EXTRACT: note_on channel=1 note=44 velocity=0 time=0.03333333333333333
EXTRACT: note_on channel=9 note=44 velocity=0 time=0.06666666666666667
EXTRACT: note_on channel=9 note=54 velocity=0 time=0
EXTRACT: note_on channel=8 note=75 velocity=0 time=0.016666666666666666
EXTRACT: note_on channel=9 note=36 velocity=114 time=0.05
EXTRACT: note_on channel=9 note=54 velocity=91 time=0
EXTRACT: note_on channel=1 note=44 velocity=114 time=0
EXTRACT: note_on channel=8 note=73 velocity=114 time=0
EXTRACT: note_on channel=9 note=36 velocity=0 time=0.08333333333333333
EXTRACT: note_on channel=8 note=73 velocity=0 time=0.03333333333333333
EXTRACT: note_on channel=9 note=54 velocity=0 time=0.05
EXTRACT: note_on channel=8 note=75 velocity=114 time=0
EXTRACT: note_on channel=8 note=75 velocity=0 time=0.11666666666666667
EXTRACT: note_on channel=9 note=54 velocity=71 time=0.05
EXTRACT: note_on channel=8 note=73 velocity=114 time=0
EXTRACT: note_on channel=1 note=44 velocity=0 time=0.03333333333333333
EXTRACT: note_on channel=9 note=54 velocity=0 time=0.06666666666666667
EXTRACT: note_on channel=8 note=73 velocity=0 time=0.016666666666666666
EXTRACT: note_on channel=9 note=44 velocity=64 time=0.05
EXTRACT: note_on channel=9 note=40 velocity=71 time=0
EXTRACT: note_on channel=9 note=38 velocity=71 time=0
EXTRACT: note_on channel=9 note=42 velocity=71 time=0
EXTRACT: note_on channel=9 note=54 velocity=64 time=0
EXTRACT: note_on channel=9 note=36 velocity=71 time=0
EXTRACT: note_on channel=1 note=44 velocity=114 time=0
EXTRACT: note_on channel=8 note=77 velocity=114 time=0
EXTRACT: note_on channel=9 note=40 velocity=0 time=0.1
EXTRACT: note_on channel=9 note=36 velocity=0 time=0
EXTRACT: note_on channel=9 note=42 velocity=0 time=0
EXTRACT: note_on channel=9 note=38 velocity=0 time=0
EXTRACT: note_on channel=9 note=54 velocity=0 time=0.016666666666666666
EXTRACT: note_on channel=9 note=44 velocity=0 time=0
EXTRACT: note_on channel=8 note=77 velocity=0 time=0.11666666666666667
EXTRACT: note_on channel=9 note=44 velocity=71 time=0.1
EXTRACT: note_on channel=9 note=54 velocity=71 time=0
EXTRACT: note_on channel=8 note=75 velocity=114 time=0
EXTRACT: note_on channel=1 note=44 velocity=0 time=0.03333333333333333
EXTRACT: note_on channel=2 note=68 velocity=0 time=0.05
EXTRACT: note_on channel=6 note=68 velocity=0 time=0
EXTRACT: note_on channel=9 note=54 velocity=0 time=0.016666666666666666
EXTRACT: note_on channel=9 note=44 velocity=0 time=0
EXTRACT: note_on channel=2 note=63 velocity=0 time=0.016666666666666666
EXTRACT: note_on channel=6 note=63 velocity=0 time=0
EXTRACT: note_on channel=2 note=56 velocity=0 time=0.016666666666666666
EXTRACT: note_on channel=6 note=56 velocity=0 time=0
EXTRACT: note_on channel=9 note=54 velocity=91 time=0.03333333333333333
EXTRACT: note_on channel=9 note=36 velocity=114 time=0
EXTRACT: note_on channel=1 note=44 velocity=114 time=0
EXTRACT: note_on channel=2 note=60 velocity=75 time=0
EXTRACT: note_on channel=2 note=68 velocity=75 time=0
EXTRACT: note_on channel=2 note=63 velocity=75 time=0
EXTRACT: note_on channel=2 note=56 velocity=75 time=0
EXTRACT: note_on channel=6 note=60 velocity=75 time=0
EXTRACT: note_on channel=6 note=56 velocity=75 time=0
EXTRACT: note_on channel=6 note=63 velocity=75 time=0
EXTRACT: note_on channel=6 note=68 velocity=75 time=0
EXTRACT: note_on channel=9 note=36 velocity=0 time=0.08333333333333333
EXTRACT: note_on channel=9 note=54 velocity=0 time=0.08333333333333333
EXTRACT: note_on channel=8 note=75 velocity=0 time=0
EXTRACT: note_on channel=9 note=54 velocity=71 time=0.16666666666666666
EXTRACT: note_on channel=1 note=44 velocity=0 time=0.03333333333333333
EXTRACT: note_on channel=9 note=54 velocity=0 time=0.06666666666666667
EXTRACT: note_on channel=9 note=42 velocity=71 time=0.06666666666666667
EXTRACT: note_on channel=9 note=38 velocity=71 time=0
EXTRACT: note_on channel=9 note=54 velocity=64 time=0
EXTRACT: note_on channel=9 note=44 velocity=64 time=0
EXTRACT: note_on channel=9 note=36 velocity=71 time=0
EXTRACT: note_on channel=9 note=40 velocity=71 time=0
EXTRACT: note_on channel=1 note=44 velocity=114 time=0
EXTRACT: note_on channel=9 note=42 velocity=0 time=0.1
EXTRACT: note_on channel=9 note=40 velocity=0 time=0
EXTRACT: note_on channel=9 note=38 velocity=0 time=0
EXTRACT: note_on channel=9 note=36 velocity=0 time=0
EXTRACT: note_on channel=9 note=54 velocity=0 time=0.016666666666666666
EXTRACT: note_on channel=9 note=44 velocity=0 time=0
EXTRACT: note_on channel=9 note=54 velocity=71 time=0.21666666666666667
EXTRACT: note_on channel=9 note=44 velocity=71 time=0
EXTRACT: note_on channel=8 note=73 velocity=114 time=0
EXTRACT: note_on channel=1 note=44 velocity=0 time=0.03333333333333333
EXTRACT: note_on channel=9 note=54 velocity=0 time=0.06666666666666667
EXTRACT: note_on channel=9 note=44 velocity=0 time=0
EXTRACT: note_on channel=8 note=73 velocity=0 time=0.016666666666666666
EXTRACT: note_on channel=9 note=36 velocity=114 time=0.05
EXTRACT: note_on channel=9 note=54 velocity=91 time=0
EXTRACT: note_on channel=1 note=44 velocity=114 time=0
EXTRACT: note_on channel=8 note=73 velocity=114 time=0
EXTRACT: note_on channel=9 note=36 velocity=0 time=0.08333333333333333
EXTRACT: note_on channel=9 note=54 velocity=0 time=0.08333333333333333
EXTRACT: note_on channel=8 note=73 velocity=0 time=0
EXTRACT: note_on channel=9 note=54 velocity=71 time=0.16666666666666666
EXTRACT: note_on channel=8 note=75 velocity=114 time=0
EXTRACT: note_on channel=1 note=44 velocity=0 time=0.03333333333333333
EXTRACT: note_on channel=9 note=54 velocity=0 time=0.06666666666666667
EXTRACT: note_on channel=8 note=75 velocity=0 time=0.016666666666666666
EXTRACT: note_on channel=9 note=36 velocity=71 time=0.05
EXTRACT: note_on channel=9 note=40 velocity=71 time=0
EXTRACT: note_on channel=9 note=42 velocity=71 time=0
EXTRACT: note_on channel=9 note=44 velocity=64 time=0
EXTRACT: note_on channel=9 note=38 velocity=71 time=0
EXTRACT: note_on channel=9 note=54 velocity=64 time=0
EXTRACT: note_on channel=1 note=44 velocity=114 time=0
EXTRACT: note_on channel=8 note=77 velocity=114 time=0
EXTRACT: note_on channel=9 note=40 velocity=0 time=0.1
EXTRACT: note_on channel=9 note=36 velocity=0 time=0
EXTRACT: note_on channel=9 note=38 velocity=0 time=0
EXTRACT: note_on channel=9 note=42 velocity=0 time=0
EXTRACT: note_on channel=9 note=54 velocity=0 time=0.016666666666666666
EXTRACT: note_on channel=9 note=44 velocity=0 time=0
EXTRACT: note_on channel=8 note=77 velocity=0 time=0
EXTRACT: note_on channel=9 note=42 velocity=71 time=0.21666666666666667
EXTRACT: note_on channel=9 note=54 velocity=64 time=0
EXTRACT: note_on channel=8 note=77 velocity=114 time=0
EXTRACT: note_on channel=1 note=44 velocity=0 time=0.03333333333333333
EXTRACT: note_on channel=9 note=54 velocity=0 time=0.06666666666666667
EXTRACT: note_on channel=9 note=42 velocity=0 time=0
EXTRACT: note_on channel=2 note=56 velocity=0 time=0.05
EXTRACT: note_on channel=2 note=63 velocity=0 time=0
EXTRACT: note_on channel=2 note=68 velocity=0 time=0
EXTRACT: note_on channel=2 note=60 velocity=0 time=0
EXTRACT: note_on channel=6 note=60 velocity=0 time=0
EXTRACT: note_on channel=6 note=68 velocity=0 time=0
EXTRACT: note_on channel=6 note=63 velocity=0 time=0
EXTRACT: note_on channel=6 note=56 velocity=0 time=0
EXTRACT: note_on channel=9 note=55 velocity=91 time=0.016666666666666666
EXTRACT: note_on channel=9 note=36 velocity=114 time=0
EXTRACT: note_on channel=9 note=54 velocity=91 time=0
EXTRACT: note_on channel=1 note=37 velocity=114 time=0
EXTRACT: note_on channel=2 note=61 velocity=75 time=0
EXTRACT: note_on channel=2 note=65 velocity=75 time=0
EXTRACT: note_on channel=2 note=73 velocity=75 time=0
EXTRACT: note_on channel=2 note=68 velocity=75 time=0
EXTRACT: note_on channel=3 note=73 velocity=75 time=0
EXTRACT: note_on channel=3 note=61 velocity=75 time=0
EXTRACT: note_on channel=3 note=65 velocity=75 time=0
EXTRACT: note_on channel=6 note=61 velocity=75 time=0
EXTRACT: note_on channel=6 note=73 velocity=75 time=0
EXTRACT: note_on channel=6 note=65 velocity=75 time=0
EXTRACT: note_on channel=6 note=68 velocity=75 time=0
EXTRACT: note_on channel=9 note=36 velocity=0 time=0.08333333333333333
EXTRACT: note_on channel=8 note=77 velocity=0 time=0.06666666666666667
EXTRACT: note_on channel=9 note=54 velocity=0 time=0.016666666666666666
EXTRACT: note_on channel=9 note=54 velocity=71 time=0.16666666666666666
EXTRACT: note_on channel=1 note=37 velocity=0 time=0
EXTRACT: note_on channel=9 note=54 velocity=0 time=0.1
EXTRACT: note_on channel=9 note=44 velocity=64 time=0.06666666666666667
EXTRACT: note_on channel=9 note=40 velocity=71 time=0
EXTRACT: note_on channel=9 note=42 velocity=71 time=0
EXTRACT: note_on channel=9 note=38 velocity=71 time=0
EXTRACT: note_on channel=9 note=36 velocity=71 time=0
EXTRACT: note_on channel=9 note=54 velocity=64 time=0
EXTRACT: note_on channel=1 note=37 velocity=114 time=0
EXTRACT: note_on channel=5 note=65 velocity=84 time=0
EXTRACT: note_on channel=3 note=61 velocity=0 time=0.06666666666666667
EXTRACT: note_on channel=9 note=36 velocity=0 time=0.03333333333333333
EXTRACT: note_on channel=9 note=38 velocity=0 time=0
EXTRACT: note_on channel=9 note=40 velocity=0 time=0
EXTRACT: note_on channel=9 note=42 velocity=0 time=0
EXTRACT: note_on channel=3 note=65 velocity=0 time=0
EXTRACT: note_on channel=3 note=73 velocity=0 time=0
EXTRACT: note_on channel=9 note=44 velocity=0 time=0.016666666666666666
EXTRACT: note_on channel=9 note=54 velocity=0 time=0
EXTRACT: note_on channel=5 note=65 velocity=0 time=0.15
EXTRACT: note_on channel=9 note=44 velocity=71 time=0.06666666666666667
EXTRACT: note_on channel=9 note=54 velocity=71 time=0
EXTRACT: note_on channel=1 note=37 velocity=0 time=0
EXTRACT: note_on channel=9 note=54 velocity=0 time=0.1
EXTRACT: note_on channel=9 note=44 velocity=0 time=0
EXTRACT: note_on channel=9 note=55 velocity=0 time=0.016666666666666666
EXTRACT: note_on channel=9 note=36 velocity=114 time=0.05
EXTRACT: note_on channel=9 note=54 velocity=91 time=0
EXTRACT: note_on channel=1 note=37 velocity=114 time=0
EXTRACT: note_on channel=5 note=68 velocity=83 time=0
EXTRACT: note_on channel=9 note=36 velocity=0 time=0.08333333333333333
EXTRACT: note_on channel=9 note=54 velocity=0 time=0.08333333333333333
EXTRACT: note_on channel=9 note=54 velocity=71 time=0.16666666666666666
EXTRACT: note_on channel=1 note=37 velocity=0 time=0
EXTRACT: note_on channel=9 note=54 velocity=0 time=0.1
EXTRACT: note_on channel=9 note=54 velocity=64 time=0.06666666666666667
EXTRACT: note_on channel=9 note=40 velocity=71 time=0
EXTRACT: note_on channel=9 note=38 velocity=71 time=0
EXTRACT: note_on channel=9 note=44 velocity=64 time=0
EXTRACT: note_on channel=9 note=36 velocity=71 time=0
EXTRACT: note_on channel=9 note=42 velocity=71 time=0
EXTRACT: note_on channel=1 note=37 velocity=114 time=0
EXTRACT: note_on channel=9 note=38 velocity=0 time=0.1
EXTRACT: note_on channel=9 note=40 velocity=0 time=0
EXTRACT: note_on channel=9 note=42 velocity=0 time=0
EXTRACT: note_on channel=9 note=36 velocity=0 time=0
EXTRACT: note_on channel=9 note=54 velocity=0 time=0.016666666666666666
EXTRACT: note_on channel=9 note=44 velocity=0 time=0
EXTRACT: control_change channel=5 control=7 value=82 time=0.18333333333333332
EXTRACT: note_on channel=9 note=54 velocity=71 time=0.03333333333333333
EXTRACT: note_on channel=9 note=44 velocity=71 time=0
EXTRACT: note_on channel=1 note=37 velocity=0 time=0
EXTRACT: control_change channel=5 control=7 value=81 time=0
EXTRACT: note_on channel=8 note=73 velocity=114 time=0
EXTRACT: control_change channel=5 control=7 value=79 time=0.03333333333333333
EXTRACT: note_on channel=2 note=61 velocity=0 time=0.03333333333333333
EXTRACT: control_change channel=5 control=7 value=76 time=0
EXTRACT: note_on channel=6 note=61 velocity=0 time=0
EXTRACT: note_on channel=2 note=73 velocity=0 time=0.016666666666666666
EXTRACT: note_on channel=2 note=65 velocity=0 time=0
EXTRACT: note_on channel=6 note=65 velocity=0 time=0
EXTRACT: note_on channel=6 note=73 velocity=0 time=0
EXTRACT: note_on channel=9 note=44 velocity=0 time=0.016666666666666666
EXTRACT: note_on channel=9 note=54 velocity=0 time=0
EXTRACT: note_on channel=2 note=68 velocity=0 time=0
EXTRACT: control_change channel=5 control=7 value=75 time=0
EXTRACT: note_on channel=6 note=68 velocity=0 time=0
EXTRACT: control_change channel=5 control=7 value=74 time=0.03333333333333333
EXTRACT: note_on channel=8 note=73 velocity=0 time=0
EXTRACT: note_on channel=9 note=36 velocity=114 time=0.03333333333333333
EXTRACT: note_on channel=9 note=54 velocity=91 time=0
EXTRACT: note_on channel=1 note=36 velocity=114 time=0
EXTRACT: note_on channel=2 note=68 velocity=75 time=0
EXTRACT: note_on channel=2 note=60 velocity=75 time=0
EXTRACT: note_on channel=2 note=72 velocity=75 time=0
EXTRACT: note_on channel=2 note=65 velocity=75 time=0
EXTRACT: control_change channel=5 control=7 value=71 time=0
EXTRACT: note_on channel=6 note=72 velocity=75 time=0
EXTRACT: note_on channel=6 note=60 velocity=75 time=0
EXTRACT: note_on channel=6 note=68 velocity=75 time=0
EXTRACT: note_on channel=6 note=65 velocity=75 time=0
EXTRACT: note_on channel=8 note=77 velocity=114 time=0
EXTRACT: control_change channel=5 control=7 value=68 time=0.06666666666666667
EXTRACT: note_on channel=9 note=36 velocity=0 time=0.016666666666666666
EXTRACT: control_change channel=5 control=7 value=66 time=0.016666666666666666
EXTRACT: control_change channel=5 control=7 value=65 time=0.03333333333333333
EXTRACT: note_on channel=8 note=77 velocity=0 time=0
EXTRACT: note_on channel=9 note=54 velocity=0 time=0.03333333333333333
EXTRACT: control_change channel=5 control=7 value=64 time=0
EXTRACT: control_change channel=5 control=7 value=62 time=0.03333333333333333
EXTRACT: control_change channel=5 control=7 value=61 time=0.03333333333333333
EXTRACT: control_change channel=5 control=7 value=59 time=0.03333333333333333
EXTRACT: note_on channel=9 note=54 velocity=71 time=0.06666666666666667
EXTRACT: control_change channel=5 control=7 value=58 time=0
EXTRACT: note_on channel=8 note=77 velocity=114 time=0
EXTRACT: note_on channel=1 note=36 velocity=0 time=0.03333333333333333
EXTRACT: control_change channel=5 control=7 value=56 time=0.03333333333333333
EXTRACT: note_on channel=9 note=54 velocity=0 time=0.03333333333333333
EXTRACT: control_change channel=5 control=7 value=53 time=0.03333333333333333
EXTRACT: note_on channel=8 note=77 velocity=0 time=0
EXTRACT: note_on channel=9 note=44 velocity=64 time=0.03333333333333333
EXTRACT: note_on channel=9 note=36 velocity=71 time=0
EXTRACT: note_on channel=9 note=42 velocity=71 time=0
EXTRACT: note_on channel=9 note=54 velocity=64 time=0
EXTRACT: note_on channel=9 note=40 velocity=71 time=0
EXTRACT: note_on channel=9 note=38 velocity=71 time=0
EXTRACT: note_on channel=1 note=36 velocity=114 time=0
EXTRACT: control_change channel=5 control=7 value=55 time=0
EXTRACT: note_on channel=8 note=75 velocity=114 time=0
EXTRACT: control_change channel=5 control=7 value=53 time=0.03333333333333333
EXTRACT: control_change channel=5 control=7 value=51 time=0.03333333333333333
EXTRACT: note_on channel=9 note=36 velocity=0 time=0.03333333333333333
EXTRACT: note_on channel=9 note=40 velocity=0 time=0
EXTRACT: note_on channel=9 note=42 velocity=0 time=0
EXTRACT: note_on channel=9 note=38 velocity=0 time=0
EXTRACT: control_change channel=5 control=7 value=49 time=0
EXTRACT: note_on channel=9 note=54 velocity=0 time=0.016666666666666666
EXTRACT: note_on channel=9 note=44 velocity=0 time=0
EXTRACT: note_on channel=8 note=75 velocity=0 time=0.016666666666666666
EXTRACT: control_change channel=5 control=7 value=46 time=0.03333333333333333
EXTRACT: control_change channel=5 control=7 value=45 time=0.06666666666666667
EXTRACT: control_change channel=5 control=7 value=43 time=0.03333333333333333
EXTRACT: control_change channel=5 control=7 value=42 time=0.03333333333333333
EXTRACT: note_on channel=9 note=44 velocity=71 time=0.03333333333333333
EXTRACT: note_on channel=9 note=54 velocity=71 time=0
EXTRACT: note_on channel=8 note=75 velocity=114 time=0
EXTRACT: note_on channel=1 note=36 velocity=0 time=0.03333333333333333
EXTRACT: control_change channel=5 control=7 value=40 time=0
EXTRACT: control_change channel=5 control=7 value=36 time=0.03333333333333333
EXTRACT: note_on channel=9 note=44 velocity=0 time=0.03333333333333333
EXTRACT: note_on channel=9 note=54 velocity=0 time=0
EXTRACT: control_change channel=5 control=7 value=33 time=0.03333333333333333
EXTRACT: note_on channel=5 note=68 velocity=0 time=0
EXTRACT: note_on channel=8 note=75 velocity=0 time=0
EXTRACT: note_on channel=9 note=36 velocity=114 time=0.03333333333333333
EXTRACT: note_on channel=9 note=54 velocity=91 time=0
EXTRACT: note_on channel=1 note=36 velocity=114 time=0
EXTRACT: note_on channel=8 note=73 velocity=114 time=0
EXTRACT: control_change channel=5 control=7 value=30 time=0.03333333333333333
EXTRACT: control_change channel=5 control=7 value=29 time=0.03333333333333333
EXTRACT: note_on channel=9 note=36 velocity=0 time=0.016666666666666666
EXTRACT: control_change channel=5 control=7 value=27 time=0.016666666666666666
EXTRACT: control_change channel=5 control=7 value=25 time=0.03333333333333333
EXTRACT: note_on channel=8 note=73 velocity=0 time=0
EXTRACT: note_on channel=9 note=54 velocity=0 time=0.03333333333333333
EXTRACT: control_change channel=5 control=7 value=23 time=0.03333333333333333
EXTRACT: control_change channel=5 control=7 value=22 time=0.06666666666666667
EXTRACT: control_change channel=5 control=7 value=19 time=0.03333333333333333
EXTRACT: note_on channel=9 note=54 velocity=71 time=0.03333333333333333
EXTRACT: note_on channel=8 note=75 velocity=114 time=0
EXTRACT: note_on channel=1 note=36 velocity=0 time=0.03333333333333333
EXTRACT: control_change channel=5 control=7 value=16 time=0
EXTRACT: control_change channel=5 control=7 value=14 time=0.03333333333333333
EXTRACT: note_on channel=9 note=54 velocity=0 time=0.03333333333333333
EXTRACT: control_change channel=5 control=7 value=13 time=0
EXTRACT: control_change channel=5 control=7 value=12 time=0.03333333333333333
EXTRACT: note_on channel=9 note=38 velocity=71 time=0.03333333333333333
EXTRACT: note_on channel=9 note=44 velocity=64 time=0
EXTRACT: note_on channel=9 note=42 velocity=71 time=0
EXTRACT: note_on channel=9 note=40 velocity=71 time=0
EXTRACT: note_on channel=9 note=54 velocity=64 time=0
EXTRACT: note_on channel=9 note=36 velocity=71 time=0
EXTRACT: note_on channel=1 note=36 velocity=114 time=0
EXTRACT: control_change channel=5 control=7 value=85 time=0.03333333333333333
EXTRACT: note_on channel=9 note=42 velocity=0 time=0.06666666666666667
EXTRACT: note_on channel=9 note=38 velocity=0 time=0
EXTRACT: note_on channel=9 note=36 velocity=0 time=0
EXTRACT: note_on channel=9 note=40 velocity=0 time=0
EXTRACT: note_on channel=9 note=54 velocity=0 time=0.016666666666666666
EXTRACT: note_on channel=9 note=44 velocity=0 time=0
EXTRACT: note_on channel=8 note=75 velocity=0 time=0.03333333333333333
EXTRACT: note_on channel=9 note=42 velocity=64 time=0.18333333333333332
EXTRACT: note_on channel=9 note=54 velocity=64 time=0
EXTRACT: note_on channel=8 note=77 velocity=114 time=0
EXTRACT: note_on channel=1 note=36 velocity=0 time=0.03333333333333333
EXTRACT: note_on channel=9 note=54 velocity=0 time=0.06666666666666667
EXTRACT: note_on channel=9 note=42 velocity=0 time=0.016666666666666666
EXTRACT: note_on channel=2 note=65 velocity=0 time=0.016666666666666666
EXTRACT: note_on channel=2 note=72 velocity=0 time=0
EXTRACT: note_on channel=2 note=60 velocity=0 time=0
EXTRACT: note_on channel=2 note=68 velocity=0 time=0
EXTRACT: note_on channel=6 note=72 velocity=0 time=0
EXTRACT: note_on channel=6 note=65 velocity=0 time=0
EXTRACT: note_on channel=6 note=68 velocity=0 time=0
EXTRACT: note_on channel=6 note=60 velocity=0 time=0
EXTRACT: note_on channel=9 note=36 velocity=114 time=0.03333333333333333
EXTRACT: note_on channel=9 note=54 velocity=91 time=0
EXTRACT: note_on channel=1 note=34 velocity=114 time=0
EXTRACT: note_on channel=2 note=70 velocity=75 time=0
EXTRACT: note_on channel=2 note=58 velocity=75 time=0
EXTRACT: note_on channel=2 note=65 velocity=75 time=0
EXTRACT: note_on channel=2 note=61 velocity=75 time=0
EXTRACT: note_on channel=6 note=61 velocity=75 time=0
EXTRACT: note_on channel=6 note=58 velocity=75 time=0
EXTRACT: note_on channel=6 note=70 velocity=75 time=0
EXTRACT: note_on channel=6 note=65 velocity=75 time=0
EXTRACT: note_on channel=9 note=36 velocity=0 time=0.08333333333333333
EXTRACT: note_on channel=9 note=54 velocity=0 time=0.08333333333333333
EXTRACT: note_on channel=8 note=77 velocity=0 time=0.1
EXTRACT: note_on channel=9 note=54 velocity=71 time=0.06666666666666667
EXTRACT: note_on channel=1 note=34 velocity=0 time=0.03333333333333333
EXTRACT: note_on channel=9 note=54 velocity=0 time=0.06666666666666667
EXTRACT: note_on channel=9 note=42 velocity=71 time=0.06666666666666667
EXTRACT: note_on channel=9 note=54 velocity=64 time=0
EXTRACT: note_on channel=9 note=38 velocity=71 time=0
EXTRACT: note_on channel=9 note=44 velocity=64 time=0
EXTRACT: note_on channel=9 note=40 velocity=71 time=0
EXTRACT: note_on channel=9 note=36 velocity=71 time=0
EXTRACT: note_on channel=1 note=34 velocity=114 time=0
EXTRACT: note_on channel=5 note=68 velocity=83 time=0
EXTRACT: note_on channel=9 note=36 velocity=0 time=0.1
EXTRACT: note_on channel=9 note=42 velocity=0 time=0
EXTRACT: note_on channel=9 note=40 velocity=0 time=0
EXTRACT: note_on channel=9 note=38 velocity=0 time=0
EXTRACT: note_on channel=9 note=44 velocity=0 time=0.016666666666666666
EXTRACT: note_on channel=9 note=54 velocity=0 time=0
EXTRACT: control_change channel=5 control=7 value=84 time=0.15
EXTRACT: note_on channel=9 note=44 velocity=71 time=0.06666666666666667
EXTRACT: note_on channel=9 note=54 velocity=71 time=0
EXTRACT: note_on channel=1 note=34 velocity=0 time=0.03333333333333333
EXTRACT: note_on channel=5 note=68 velocity=0 time=0.05
EXTRACT: note_on channel=9 note=44 velocity=0 time=0.016666666666666666
EXTRACT: note_on channel=9 note=54 velocity=0 time=0
EXTRACT: note_on channel=9 note=36 velocity=114 time=0.06666666666666667
EXTRACT: note_on channel=9 note=54 velocity=91 time=0
EXTRACT: note_on channel=1 note=34 velocity=114 time=0
EXTRACT: note_on channel=5 note=65 velocity=83 time=0
EXTRACT: note_on channel=9 note=36 velocity=0 time=0.08333333333333333
EXTRACT: note_on channel=9 note=54 velocity=0 time=0.08333333333333333
EXTRACT: note_on channel=9 note=54 velocity=71 time=0.16666666666666666
EXTRACT: note_on channel=1 note=34 velocity=0 time=0.03333333333333333
EXTRACT: note_on channel=9 note=54 velocity=0 time=0.06666666666666667
EXTRACT: note_on channel=5 note=65 velocity=0 time=0
EXTRACT: control_change channel=5 control=7 value=85 time=0
EXTRACT: note_on channel=9 note=54 velocity=64 time=0.06666666666666667
EXTRACT: note_on channel=9 note=38 velocity=71 time=0
EXTRACT: note_on channel=9 note=36 velocity=71 time=0
EXTRACT: note_on channel=9 note=42 velocity=71 time=0
EXTRACT: note_on channel=9 note=40 velocity=71 time=0
EXTRACT: note_on channel=9 note=44 velocity=64 time=0
EXTRACT: note_on channel=1 note=34 velocity=114 time=0
EXTRACT: note_on channel=5 note=63 velocity=83 time=0
EXTRACT: note_on channel=9 note=38 velocity=0 time=0.1
EXTRACT: note_on channel=9 note=42 velocity=0 time=0
EXTRACT: note_on channel=9 note=40 velocity=0 time=0
EXTRACT: note_on channel=9 note=36 velocity=0 time=0
EXTRACT: note_on channel=9 note=54 velocity=0 time=0.016666666666666666
EXTRACT: note_on channel=9 note=44 velocity=0 time=0
EXTRACT: note_on channel=9 note=44 velocity=71 time=0.21666666666666667
EXTRACT: note_on channel=9 note=54 velocity=71 time=0
EXTRACT: note_on channel=8 note=75 velocity=114 time=0
EXTRACT: note_on channel=1 note=34 velocity=0 time=0.03333333333333333
EXTRACT: note_on channel=2 note=65 velocity=0 time=0.03333333333333333
EXTRACT: note_on channel=6 note=65 velocity=0 time=0
EXTRACT: note_on channel=2 note=61 velocity=0 time=0.016666666666666666
EXTRACT: note_on channel=2 note=70 velocity=0 time=0
EXTRACT: note_on channel=2 note=58 velocity=0 time=0
EXTRACT: note_on channel=6 note=61 velocity=0 time=0
EXTRACT: note_on channel=6 note=70 velocity=0 time=0
EXTRACT: note_on channel=6 note=58 velocity=0 time=0
EXTRACT: note_on channel=9 note=54 velocity=0 time=0.016666666666666666
EXTRACT: note_on channel=9 note=44 velocity=0 time=0
EXTRACT: note_on channel=5 note=63 velocity=0 time=0.03333333333333333
EXTRACT: note_on channel=8 note=75 velocity=0 time=0
EXTRACT: note_on channel=9 note=54 velocity=91 time=0.03333333333333333
EXTRACT: note_on channel=9 note=36 velocity=114 time=0
EXTRACT: note_on channel=1 note=29 velocity=114 time=0
EXTRACT: note_on channel=2 note=53 velocity=75 time=0
EXTRACT: note_on channel=2 note=60 velocity=75 time=0
EXTRACT: note_on channel=2 note=68 velocity=75 time=0
EXTRACT: note_on channel=2 note=65 velocity=75 time=0
EXTRACT: note_on channel=5 note=65 velocity=83 time=0
EXTRACT: note_on channel=6 note=68 velocity=75 time=0
EXTRACT: note_on channel=6 note=60 velocity=75 time=0
EXTRACT: note_on channel=6 note=65 velocity=75 time=0
EXTRACT: note_on channel=6 note=53 velocity=75 time=0
EXTRACT: note_on channel=8 note=77 velocity=114 time=0
EXTRACT: note_on channel=9 note=36 velocity=0 time=0.08333333333333333
EXTRACT: note_on channel=8 note=77 velocity=0 time=0.05
EXTRACT: note_on channel=9 note=54 velocity=0 time=0.03333333333333333
EXTRACT: note_on channel=9 note=54 velocity=71 time=0.16666666666666666
EXTRACT: note_on channel=8 note=77 velocity=114 time=0
EXTRACT: note_on channel=1 note=29 velocity=0 time=0.03333333333333333
EXTRACT: note_on channel=9 note=54 velocity=0 time=0.06666666666666667
EXTRACT: control_change channel=5 control=7 value=84 time=0
EXTRACT: note_on channel=8 note=77 velocity=0 time=0.03333333333333333
EXTRACT: note_on channel=9 note=40 velocity=71 time=0.03333333333333333
EXTRACT: note_on channel=9 note=54 velocity=64 time=0
EXTRACT: note_on channel=9 note=44 velocity=64 time=0
EXTRACT: note_on channel=9 note=42 velocity=71 time=0
EXTRACT: note_on channel=9 note=36 velocity=71 time=0
EXTRACT: note_on channel=9 note=38 velocity=71 time=0
EXTRACT: note_on channel=1 note=29 velocity=114 time=0
EXTRACT: note_on channel=8 note=75 velocity=114 time=0
EXTRACT: note_on channel=9 note=36 velocity=0 time=0.1
EXTRACT: note_on channel=9 note=40 velocity=0 time=0
EXTRACT: note_on channel=9 note=38 velocity=0 time=0
EXTRACT: note_on channel=9 note=42 velocity=0 time=0
EXTRACT: note_on channel=9 note=54 velocity=0 time=0.016666666666666666
EXTRACT: note_on channel=9 note=44 velocity=0 time=0
EXTRACT: note_on channel=8 note=75 velocity=0 time=0.016666666666666666
EXTRACT: control_change channel=5 control=7 value=81 time=0.06666666666666667
EXTRACT: note_on channel=9 note=44 velocity=71 time=0.13333333333333333
EXTRACT: note_on channel=9 note=54 velocity=71 time=0
EXTRACT: control_change channel=5 control=7 value=78 time=0
EXTRACT: note_on channel=8 note=75 velocity=114 time=0
EXTRACT: note_on channel=1 note=29 velocity=0 time=0.03333333333333333
EXTRACT: control_change channel=5 control=7 value=76 time=0.03333333333333333
EXTRACT: note_on channel=9 note=44 velocity=0 time=0.03333333333333333
EXTRACT: note_on channel=9 note=54 velocity=0 time=0
EXTRACT: control_change channel=5 control=7 value=75 time=0
EXTRACT: control_change channel=5 control=7 value=72 time=0.03333333333333333
EXTRACT: note_on channel=8 note=75 velocity=0 time=0
EXTRACT: note_on channel=9 note=36 velocity=114 time=0.03333333333333333
EXTRACT: note_on channel=9 note=54 velocity=91 time=0
EXTRACT: note_on channel=1 note=29 velocity=114 time=0
EXTRACT: note_on channel=8 note=73 velocity=114 time=0
EXTRACT: control_change channel=5 control=7 value=71 time=0.03333333333333333
EXTRACT: control_change channel=5 control=7 value=68 time=0.03333333333333333
EXTRACT: note_on channel=9 note=36 velocity=0 time=0.016666666666666666
EXTRACT: control_change channel=5 control=7 value=66 time=0.016666666666666666
EXTRACT: control_change channel=5 control=7 value=64 time=0.03333333333333333
EXTRACT: note_on channel=8 note=73 velocity=0 time=0
EXTRACT: note_on channel=9 note=54 velocity=0 time=0.03333333333333333
EXTRACT: control_change channel=5 control=7 value=62 time=0
EXTRACT: control_change channel=5 control=7 value=61 time=0.03333333333333333
EXTRACT: control_change channel=5 control=7 value=59 time=0.03333333333333333
EXTRACT: control_change channel=5 control=7 value=58 time=0.03333333333333333
EXTRACT: control_change channel=5 control=7 value=56 time=0.03333333333333333
EXTRACT: note_on channel=9 note=54 velocity=71 time=0.03333333333333333
EXTRACT: note_on channel=8 note=73 velocity=114 time=0
EXTRACT: note_on channel=1 note=29 velocity=0 time=0.03333333333333333
EXTRACT: control_change channel=5 control=7 value=55 time=0
EXTRACT: control_change channel=5 control=7 value=53 time=0.03333333333333333
EXTRACT: note_on channel=9 note=54 velocity=0 time=0.03333333333333333
EXTRACT: control_change channel=5 control=7 value=52 time=0
EXTRACT: control_change channel=5 control=7 value=51 time=0.03333333333333333
EXTRACT: note_on channel=8 note=73 velocity=0 time=0
EXTRACT: note_on channel=9 note=54 velocity=64 time=0.03333333333333333
EXTRACT: note_on channel=9 note=40 velocity=71 time=0
EXTRACT: note_on channel=9 note=36 velocity=71 time=0
EXTRACT: note_on channel=9 note=44 velocity=64 time=0
EXTRACT: note_on channel=9 note=42 velocity=71 time=0
EXTRACT: note_on channel=9 note=38 velocity=71 time=0
EXTRACT: note_on channel=1 note=29 velocity=114 time=0
EXTRACT: control_change channel=5 control=7 value=49 time=0
EXTRACT: note_on channel=8 note=77 velocity=114 time=0
EXTRACT: control_change channel=5 control=7 value=48 time=0.03333333333333333
EXTRACT: control_change channel=5 control=7 value=46 time=0.03333333333333333
EXTRACT: note_on channel=9 note=38 velocity=0 time=0.03333333333333333
EXTRACT: note_on channel=9 note=36 velocity=0 time=0
EXTRACT: note_on channel=9 note=42 velocity=0 time=0
EXTRACT: note_on channel=9 note=40 velocity=0 time=0
EXTRACT: note_on channel=9 note=44 velocity=0 time=0.016666666666666666
EXTRACT: note_on channel=9 note=54 velocity=0 time=0
EXTRACT: control_change channel=5 control=7 value=43 time=0.016666666666666666
EXTRACT: note_on channel=8 note=77 velocity=0 time=0
EXTRACT: control_change channel=5 control=7 value=42 time=0.03333333333333333
EXTRACT: control_change channel=5 control=7 value=40 time=0.03333333333333333
EXTRACT: control_change channel=5 control=7 value=38 time=0.03333333333333333
EXTRACT: control_change channel=5 control=7 value=36 time=0.06666666666666667
EXTRACT: note_on channel=9 note=42 velocity=71 time=0.03333333333333333
EXTRACT: note_on channel=9 note=54 velocity=64 time=0
EXTRACT: control_change channel=5 control=7 value=35 time=0
EXTRACT: note_on channel=8 note=77 velocity=114 time=0
EXTRACT: note_on channel=1 note=29 velocity=0 time=0.03333333333333333
EXTRACT: control_change channel=5 control=7 value=33 time=0
EXTRACT: note_on channel=2 note=65 velocity=0 time=0.016666666666666666
EXTRACT: note_on channel=2 note=68 velocity=0 time=0
EXTRACT: note_on channel=2 note=60 velocity=0 time=0
EXTRACT: note_on channel=2 note=53 velocity=0 time=0
EXTRACT: note_on channel=6 note=60 velocity=0 time=0
EXTRACT: note_on channel=6 note=68 velocity=0 time=0
EXTRACT: note_on channel=6 note=53 velocity=0 time=0
EXTRACT: note_on channel=6 note=65 velocity=0 time=0
EXTRACT: control_change channel=5 control=7 value=32 time=0.016666666666666666
EXTRACT: note_on channel=9 note=42 velocity=0 time=0.03333333333333333
EXTRACT: note_on channel=9 note=54 velocity=0 time=0
EXTRACT: control_change channel=5 control=7 value=30 time=0
EXTRACT: control_change channel=5 control=7 value=29 time=0.03333333333333333
EXTRACT: note_on channel=5 note=65 velocity=0 time=0
EXTRACT: note_on channel=9 note=36 velocity=114 time=0.03333333333333333
EXTRACT: note_on channel=9 note=54 velocity=91 time=0
EXTRACT: note_on channel=1 note=39 velocity=114 time=0
EXTRACT: note_on channel=2 note=63 velocity=75 time=0
EXTRACT: note_on channel=2 note=66 velocity=75 time=0
EXTRACT: note_on channel=2 note=58 velocity=75 time=0
EXTRACT: note_on channel=2 note=61 velocity=75 time=0
EXTRACT: control_change channel=5 control=7 value=26 time=0
EXTRACT: note_on channel=6 note=58 velocity=75 time=0
EXTRACT: note_on channel=6 note=61 velocity=75 time=0
EXTRACT: note_on channel=6 note=66 velocity=75 time=0
EXTRACT: note_on channel=6 note=63 velocity=75 time=0
EXTRACT: control_change channel=5 control=7 value=25 time=0.06666666666666667
EXTRACT: note_on channel=9 note=36 velocity=0 time=0.016666666666666666
EXTRACT: control_change channel=5 control=7 value=23 time=0.05
EXTRACT: note_on channel=9 note=54 velocity=0 time=0.03333333333333333
EXTRACT: control_change channel=5 control=7 value=22 time=0
EXTRACT: control_change channel=5 control=7 value=19 time=0.03333333333333333
EXTRACT: control_change channel=5 control=7 value=17 time=0.03333333333333333
EXTRACT: note_on channel=8 note=77 velocity=0 time=0
EXTRACT: control_change channel=5 control=7 value=85 time=0.06666666666666667
EXTRACT: note_on channel=9 note=54 velocity=71 time=0.03333333333333333
EXTRACT: note_on channel=8 note=75 velocity=114 time=0
EXTRACT: note_on channel=1 note=39 velocity=0 time=0.03333333333333333
EXTRACT: note_on channel=9 note=54 velocity=0 time=0.06666666666666667
EXTRACT: note_on channel=9 note=54 velocity=64 time=0.06666666666666667
EXTRACT: note_on channel=9 note=44 velocity=64 time=0
EXTRACT: note_on channel=9 note=40 velocity=71 time=0
EXTRACT: note_on channel=9 note=36 velocity=71 time=0
EXTRACT: note_on channel=9 note=38 velocity=71 time=0
EXTRACT: note_on channel=9 note=42 velocity=71 time=0
EXTRACT: note_on channel=1 note=39 velocity=114 time=0
EXTRACT: note_on channel=9 note=40 velocity=0 time=0.1
EXTRACT: note_on channel=9 note=38 velocity=0 time=0
EXTRACT: note_on channel=9 note=42 velocity=0 time=0
EXTRACT: note_on channel=9 note=36 velocity=0 time=0
EXTRACT: note_on channel=9 note=54 velocity=0 time=0.016666666666666666
EXTRACT: note_on channel=9 note=44 velocity=0 time=0
EXTRACT: note_on channel=8 note=75 velocity=0 time=0.06666666666666667
EXTRACT: note_on channel=9 note=44 velocity=71 time=0.15
EXTRACT: note_on channel=9 note=54 velocity=71 time=0
EXTRACT: note_on channel=8 note=75 velocity=114 time=0
EXTRACT: note_on channel=1 note=39 velocity=0 time=0.03333333333333333
EXTRACT: note_on channel=9 note=44 velocity=0 time=0.06666666666666667
EXTRACT: note_on channel=9 note=54 velocity=0 time=0
EXTRACT: note_on channel=8 note=75 velocity=0 time=0.03333333333333333
EXTRACT: note_on channel=9 note=36 velocity=114 time=0.03333333333333333
EXTRACT: note_on channel=9 note=54 velocity=91 time=0
EXTRACT: note_on channel=1 note=39 velocity=114 time=0
EXTRACT: note_on channel=8 note=73 velocity=114 time=0
EXTRACT: note_on channel=9 note=36 velocity=0 time=0.08333333333333333
EXTRACT: note_on channel=8 note=73 velocity=0 time=0.05
EXTRACT: note_on channel=9 note=54 velocity=0 time=0.03333333333333333
EXTRACT: note_on channel=9 note=54 velocity=71 time=0.16666666666666666
EXTRACT: note_on channel=8 note=75 velocity=114 time=0
EXTRACT: note_on channel=1 note=39 velocity=0 time=0.03333333333333333
EXTRACT: note_on channel=9 note=54 velocity=0 time=0.06666666666666667
EXTRACT: note_on channel=9 note=36 velocity=71 time=0.06666666666666667
EXTRACT: note_on channel=9 note=42 velocity=71 time=0
EXTRACT: note_on channel=9 note=40 velocity=71 time=0
EXTRACT: note_on channel=9 note=54 velocity=64 time=0
EXTRACT: note_on channel=9 note=44 velocity=64 time=0
EXTRACT: note_on channel=9 note=38 velocity=71 time=0
EXTRACT: note_on channel=1 note=39 velocity=114 time=0
EXTRACT: note_on channel=3 note=68 velocity=75 time=0
EXTRACT: note_on channel=3 note=80 velocity=75 time=0
EXTRACT: note_on channel=8 note=75 velocity=0 time=0.08333333333333333
EXTRACT: note_on channel=9 note=38 velocity=0 time=0.016666666666666666
EXTRACT: note_on channel=9 note=36 velocity=0 time=0
EXTRACT: note_on channel=9 note=40 velocity=0 time=0
EXTRACT: note_on channel=9 note=42 velocity=0 time=0
EXTRACT: note_on channel=9 note=54 velocity=0 time=0.016666666666666666
EXTRACT: note_on channel=9 note=44 velocity=0 time=0
EXTRACT: note_on channel=3 note=68 velocity=0 time=0.1
EXTRACT: note_on channel=3 note=80 velocity=0 time=0.016666666666666666
EXTRACT: note_on channel=9 note=44 velocity=71 time=0.1
EXTRACT: note_on channel=9 note=54 velocity=71 time=0
EXTRACT: note_on channel=3 note=65 velocity=75 time=0
EXTRACT: note_on channel=3 note=77 velocity=75 time=0
EXTRACT: note_on channel=8 note=77 velocity=114 time=0
EXTRACT: note_on channel=1 note=39 velocity=0 time=0.03333333333333333
EXTRACT: note_on channel=9 note=44 velocity=0 time=0.06666666666666667
EXTRACT: note_on channel=9 note=54 velocity=0 time=0
EXTRACT: note_on channel=9 note=36 velocity=114 time=0.06666666666666667
EXTRACT: note_on channel=9 note=54 velocity=91 time=0
EXTRACT: note_on channel=1 note=39 velocity=114 time=0
EXTRACT: note_on channel=9 note=36 velocity=0 time=0.08333333333333333
EXTRACT: note_on channel=3 note=65 velocity=0 time=0.016666666666666666
EXTRACT: note_on channel=3 note=77 velocity=0 time=0
EXTRACT: note_on channel=8 note=77 velocity=0 time=0.05
EXTRACT: note_on channel=9 note=54 velocity=0 time=0.016666666666666666
EXTRACT: note_on channel=9 note=54 velocity=71 time=0.16666666666666666
EXTRACT: note_on channel=8 note=77 velocity=114 time=0
EXTRACT: note_on channel=1 note=39 velocity=0 time=0.03333333333333333
EXTRACT: note_on channel=9 note=54 velocity=0 time=0.06666666666666667
EXTRACT: note_on channel=8 note=77 velocity=0 time=0.03333333333333333
EXTRACT: note_on channel=9 note=38 velocity=71 time=0.03333333333333333
EXTRACT: note_on channel=9 note=42 velocity=71 time=0
EXTRACT: note_on channel=9 note=40 velocity=71 time=0
EXTRACT: note_on channel=9 note=36 velocity=71 time=0
EXTRACT: note_on channel=9 note=54 velocity=64 time=0
EXTRACT: note_on channel=9 note=44 velocity=64 time=0
EXTRACT: note_on channel=1 note=39 velocity=114 time=0
EXTRACT: note_on channel=8 note=75 velocity=114 time=0
EXTRACT: note_on channel=9 note=40 velocity=0 time=0.1
EXTRACT: note_on channel=9 note=42 velocity=0 time=0
EXTRACT: note_on channel=9 note=38 velocity=0 time=0
EXTRACT: note_on channel=9 note=36 velocity=0 time=0
EXTRACT: note_on channel=9 note=54 velocity=0 time=0.016666666666666666
EXTRACT: note_on channel=9 note=44 velocity=0 time=0
EXTRACT: note_on channel=8 note=75 velocity=0 time=0.016666666666666666
EXTRACT: note_on channel=9 note=54 velocity=71 time=0.2
EXTRACT: note_on channel=9 note=44 velocity=71 time=0
EXTRACT: note_on channel=8 note=75 velocity=114 time=0
EXTRACT: note_on channel=1 note=39 velocity=0 time=0.03333333333333333
EXTRACT: note_on channel=9 note=54 velocity=0 time=0.06666666666666667
EXTRACT: note_on channel=9 note=44 velocity=0 time=0
EXTRACT: note_on channel=8 note=75 velocity=0 time=0.03333333333333333
EXTRACT: note_on channel=9 note=36 velocity=114 time=0.03333333333333333
EXTRACT: note_on channel=9 note=54 velocity=91 time=0
EXTRACT: note_on channel=1 note=39 velocity=114 time=0
EXTRACT: note_on channel=8 note=73 velocity=114 time=0
EXTRACT: note_on channel=9 note=36 velocity=0 time=0.08333333333333333
EXTRACT: note_on channel=8 note=73 velocity=0 time=0.05
EXTRACT: note_on channel=9 note=54 velocity=0 time=0.03333333333333333
EXTRACT: note_on channel=9 note=54 velocity=71 time=0.16666666666666666
EXTRACT: note_on channel=8 note=75 velocity=114 time=0
EXTRACT: note_on channel=1 note=39 velocity=0 time=0.03333333333333333
EXTRACT: note_on channel=9 note=54 velocity=0 time=0.06666666666666667
EXTRACT: note_on channel=9 note=36 velocity=71 time=0.06666666666666667
EXTRACT: note_on channel=9 note=54 velocity=64 time=0
EXTRACT: note_on channel=9 note=40 velocity=71 time=0
EXTRACT: note_on channel=9 note=38 velocity=71 time=0
EXTRACT: note_on channel=9 note=44 velocity=64 time=0
EXTRACT: note_on channel=9 note=42 velocity=71 time=0
EXTRACT: note_on channel=1 note=39 velocity=114 time=0
EXTRACT: note_on channel=3 note=80 velocity=75 time=0
EXTRACT: note_on channel=3 note=68 velocity=75 time=0
EXTRACT: note_on channel=9 note=42 velocity=0 time=0.1
EXTRACT: note_on channel=9 note=36 velocity=0 time=0
EXTRACT: note_on channel=9 note=38 velocity=0 time=0
EXTRACT: note_on channel=9 note=40 velocity=0 time=0
EXTRACT: note_on channel=9 note=44 velocity=0 time=0.016666666666666666
EXTRACT: note_on channel=9 note=54 velocity=0 time=0
EXTRACT: note_on channel=8 note=75 velocity=0 time=0.05
EXTRACT: note_on channel=3 note=80 velocity=0 time=0.06666666666666667
EXTRACT: note_on channel=3 note=68 velocity=0 time=0
EXTRACT: note_on channel=9 note=42 velocity=71 time=0.1
EXTRACT: note_on channel=9 note=54 velocity=64 time=0
EXTRACT: note_on channel=3 note=65 velocity=75 time=0
EXTRACT: note_on channel=3 note=77 velocity=75 time=0
EXTRACT: note_on channel=8 note=75 velocity=114 time=0
EXTRACT: note_on channel=1 note=39 velocity=0 time=0.03333333333333333
EXTRACT: note_on channel=2 note=66 velocity=0 time=0.05
EXTRACT: note_on channel=6 note=66 velocity=0 time=0
EXTRACT: note_on channel=9 note=42 velocity=0 time=0.016666666666666666
EXTRACT: note_on channel=9 note=54 velocity=0 time=0
EXTRACT: note_on channel=2 note=58 velocity=0 time=0
EXTRACT: note_on channel=2 note=63 velocity=0 time=0
EXTRACT: note_on channel=6 note=61 velocity=0 time=0
EXTRACT: note_on channel=6 note=63 velocity=0 time=0.016666666666666666
EXTRACT: note_on channel=8 note=75 velocity=0 time=0.016666666666666666
EXTRACT: note_on channel=2 note=61 velocity=0 time=0.016666666666666666
EXTRACT: note_on channel=6 note=58 velocity=0 time=0
EXTRACT: note_on channel=9 note=36 velocity=114 time=0.016666666666666666
EXTRACT: note_on channel=9 note=54 velocity=91 time=0
EXTRACT: note_on channel=1 note=44 velocity=114 time=0
EXTRACT: note_on channel=2 note=68 velocity=75 time=0
EXTRACT: note_on channel=2 note=56 velocity=75 time=0
EXTRACT: note_on channel=2 note=63 velocity=75 time=0
EXTRACT: note_on channel=6 note=68 velocity=75 time=0
EXTRACT: note_on channel=6 note=63 velocity=75 time=0
EXTRACT: note_on channel=6 note=56 velocity=75 time=0
EXTRACT: note_on channel=8 note=77 velocity=114 time=0
EXTRACT: note_on channel=3 note=77 velocity=0 time=0.06666666666666667
EXTRACT: note_on channel=3 note=65 velocity=0 time=0
EXTRACT: note_on channel=9 note=36 velocity=0 time=0.016666666666666666
EXTRACT: note_on channel=8 note=77 velocity=0 time=0.05
EXTRACT: note_on channel=9 note=54 velocity=0 time=0.03333333333333333
EXTRACT: note_on channel=9 note=54 velocity=71 time=0.16666666666666666
EXTRACT: note_on channel=8 note=77 velocity=114 time=0
EXTRACT: note_on channel=1 note=44 velocity=0 time=0.03333333333333333
EXTRACT: note_on channel=9 note=54 velocity=0 time=0.06666666666666667
EXTRACT: note_on channel=8 note=77 velocity=0 time=0.03333333333333333
EXTRACT: note_on channel=9 note=42 velocity=71 time=0.03333333333333333
EXTRACT: note_on channel=9 note=40 velocity=71 time=0
EXTRACT: note_on channel=9 note=44 velocity=64 time=0
EXTRACT: note_on channel=9 note=54 velocity=64 time=0
EXTRACT: note_on channel=9 note=38 velocity=71 time=0
EXTRACT: note_on channel=9 note=36 velocity=71 time=0
EXTRACT: note_on channel=1 note=44 velocity=114 time=0
EXTRACT: note_on channel=8 note=75 velocity=114 time=0
EXTRACT: note_on channel=9 note=42 velocity=0 time=0.1
EXTRACT: note_on channel=9 note=40 velocity=0 time=0
EXTRACT: note_on channel=9 note=36 velocity=0 time=0
EXTRACT: note_on channel=9 note=38 velocity=0 time=0
EXTRACT: note_on channel=9 note=44 velocity=0 time=0.016666666666666666
EXTRACT: note_on channel=9 note=54 velocity=0 time=0
EXTRACT: note_on channel=8 note=75 velocity=0 time=0.016666666666666666
EXTRACT: note_on channel=9 note=44 velocity=71 time=0.2
EXTRACT: note_on channel=9 note=54 velocity=71 time=0
EXTRACT: note_on channel=8 note=75 velocity=114 time=0
EXTRACT: note_on channel=1 note=44 velocity=0 time=0.03333333333333333
EXTRACT: note_on channel=9 note=44 velocity=0 time=0.06666666666666667
EXTRACT: note_on channel=9 note=54 velocity=0 time=0
EXTRACT: note_on channel=8 note=75 velocity=0 time=0.03333333333333333
EXTRACT: note_on channel=9 note=36 velocity=114 time=0.03333333333333333
EXTRACT: note_on channel=9 note=54 velocity=91 time=0
EXTRACT: note_on channel=1 note=44 velocity=114 time=0
EXTRACT: note_on channel=8 note=73 velocity=114 time=0
EXTRACT: note_on channel=9 note=36 velocity=0 time=0.08333333333333333
EXTRACT: note_on channel=8 note=73 velocity=0 time=0.05
EXTRACT: note_on channel=9 note=54 velocity=0 time=0.03333333333333333
EXTRACT: note_on channel=8 note=75 velocity=114 time=0
EXTRACT: note_on channel=8 note=75 velocity=0 time=0.13333333333333333
EXTRACT: note_on channel=9 note=54 velocity=71 time=0.03333333333333333
EXTRACT: note_on channel=8 note=73 velocity=114 time=0
EXTRACT: note_on channel=1 note=44 velocity=0 time=0.03333333333333333
EXTRACT: note_on channel=9 note=54 velocity=0 time=0.06666666666666667
EXTRACT: note_on channel=8 note=73 velocity=0 time=0.03333333333333333
EXTRACT: note_on channel=9 note=44 velocity=64 time=0.03333333333333333
EXTRACT: note_on channel=9 note=36 velocity=71 time=0
EXTRACT: note_on channel=9 note=40 velocity=71 time=0
EXTRACT: note_on channel=9 note=54 velocity=64 time=0
EXTRACT: note_on channel=9 note=38 velocity=71 time=0
EXTRACT: note_on channel=9 note=42 velocity=71 time=0
EXTRACT: note_on channel=1 note=44 velocity=114 time=0
EXTRACT: note_on channel=8 note=77 velocity=114 time=0
EXTRACT: note_on channel=9 note=42 velocity=0 time=0.1
EXTRACT: note_on channel=9 note=40 velocity=0 time=0
EXTRACT: note_on channel=9 note=38 velocity=0 time=0
EXTRACT: note_on channel=9 note=36 velocity=0 time=0
EXTRACT: note_on channel=9 note=54 velocity=0 time=0.016666666666666666
EXTRACT: note_on channel=9 note=44 velocity=0 time=0
EXTRACT: note_on channel=8 note=77 velocity=0 time=0.016666666666666666
EXTRACT: note_on channel=9 note=44 velocity=71 time=0.2
EXTRACT: note_on channel=9 note=54 velocity=71 time=0
EXTRACT: note_on channel=8 note=75 velocity=114 time=0
EXTRACT: note_on channel=1 note=44 velocity=0 time=0.03333333333333333
EXTRACT: note_on channel=2 note=68 velocity=0 time=0.05
EXTRACT: note_on channel=6 note=68 velocity=0 time=0
EXTRACT: note_on channel=9 note=44 velocity=0 time=0.016666666666666666
EXTRACT: note_on channel=9 note=54 velocity=0 time=0
EXTRACT: note_on channel=2 note=63 velocity=0 time=0.016666666666666666
EXTRACT: note_on channel=6 note=63 velocity=0 time=0
EXTRACT: note_on channel=2 note=56 velocity=0 time=0.016666666666666666
EXTRACT: note_on channel=6 note=56 velocity=0 time=0
EXTRACT: note_on channel=9 note=36 velocity=114 time=0.03333333333333333
EXTRACT: note_on channel=9 note=54 velocity=91 time=0
EXTRACT: note_on channel=1 note=41 velocity=114 time=0
EXTRACT: note_on channel=2 note=65 velocity=75 time=0
EXTRACT: note_on channel=2 note=53 velocity=75 time=0
EXTRACT: note_on channel=2 note=60 velocity=75 time=0
EXTRACT: note_on channel=6 note=60 velocity=75 time=0
EXTRACT: note_on channel=6 note=72 velocity=75 time=0
EXTRACT: note_on channel=6 note=65 velocity=75 time=0
EXTRACT: note_on channel=6 note=53 velocity=75 time=0
EXTRACT: note_on channel=9 note=36 velocity=0 time=0.08333333333333333
EXTRACT: note_on channel=9 note=54 velocity=0 time=0.08333333333333333
EXTRACT: note_on channel=8 note=75 velocity=0 time=0.016666666666666666
EXTRACT: note_on channel=9 note=54 velocity=71 time=0.15
EXTRACT: note_on channel=1 note=41 velocity=0 time=0.03333333333333333
EXTRACT: note_on channel=9 note=54 velocity=0 time=0.06666666666666667
EXTRACT: note_on channel=9 note=42 velocity=71 time=0.06666666666666667
EXTRACT: note_on channel=9 note=44 velocity=64 time=0
EXTRACT: note_on channel=9 note=40 velocity=71 time=0
EXTRACT: note_on channel=9 note=36 velocity=71 time=0
EXTRACT: note_on channel=9 note=38 velocity=71 time=0
EXTRACT: note_on channel=9 note=54 velocity=64 time=0
EXTRACT: note_on channel=1 note=41 velocity=114 time=0
EXTRACT: note_on channel=8 note=73 velocity=97 time=0
EXTRACT: note_on channel=9 note=40 velocity=0 time=0.1
EXTRACT: note_on channel=9 note=38 velocity=0 time=0
EXTRACT: note_on channel=9 note=42 velocity=0 time=0
EXTRACT: note_on channel=9 note=36 velocity=0 time=0
EXTRACT: note_on channel=9 note=54 velocity=0 time=0.016666666666666666
EXTRACT: note_on channel=9 note=44 velocity=0 time=0
EXTRACT: note_on channel=8 note=73 velocity=0 time=0
EXTRACT: note_on channel=9 note=44 velocity=71 time=0.21666666666666667
EXTRACT: note_on channel=9 note=54 velocity=71 time=0
EXTRACT: note_on channel=8 note=75 velocity=85 time=0
EXTRACT: note_on channel=1 note=41 velocity=0 time=0.03333333333333333
EXTRACT: note_on channel=9 note=44 velocity=0 time=0.06666666666666667
EXTRACT: note_on channel=9 note=54 velocity=0 time=0
EXTRACT: note_on channel=8 note=75 velocity=0 time=0.016666666666666666
EXTRACT: note_on channel=9 note=36 velocity=114 time=0.05
EXTRACT: note_on channel=9 note=54 velocity=91 time=0
EXTRACT: note_on channel=1 note=41 velocity=114 time=0
EXTRACT: note_on channel=8 note=77 velocity=74 time=0
EXTRACT: note_on channel=9 note=36 velocity=0 time=0.08333333333333333
EXTRACT: note_on channel=8 note=77 velocity=0 time=0.03333333333333333
EXTRACT: note_on channel=9 note=54 velocity=0 time=0.05
EXTRACT: note_on channel=9 note=54 velocity=71 time=0.16666666666666666
EXTRACT: note_on channel=1 note=41 velocity=0 time=0.03333333333333333
EXTRACT: note_on channel=9 note=54 velocity=0 time=0.06666666666666667
EXTRACT: note_on channel=9 note=36 velocity=71 time=0.06666666666666667
EXTRACT: note_on channel=9 note=38 velocity=71 time=0
EXTRACT: note_on channel=9 note=44 velocity=64 time=0
EXTRACT: note_on channel=9 note=40 velocity=71 time=0
EXTRACT: note_on channel=9 note=54 velocity=64 time=0
EXTRACT: note_on channel=9 note=42 velocity=71 time=0
EXTRACT: note_on channel=1 note=41 velocity=114 time=0
EXTRACT: note_on channel=8 note=73 velocity=71 time=0
EXTRACT: note_on channel=9 note=42 velocity=0 time=0.1
EXTRACT: note_on channel=9 note=36 velocity=0 time=0
EXTRACT: note_on channel=9 note=40 velocity=0 time=0
EXTRACT: note_on channel=9 note=38 velocity=0 time=0
EXTRACT: note_on channel=9 note=44 velocity=0 time=0.016666666666666666
EXTRACT: note_on channel=9 note=54 velocity=0 time=0
EXTRACT: note_on channel=8 note=73 velocity=0 time=0
EXTRACT: note_on channel=9 note=54 velocity=64 time=0.21666666666666667
EXTRACT: note_on channel=9 note=42 velocity=71 time=0
EXTRACT: note_on channel=8 note=75 velocity=63 time=0
EXTRACT: note_on channel=1 note=41 velocity=0 time=0.03333333333333333
EXTRACT: note_on channel=9 note=42 velocity=0 time=0.06666666666666667
EXTRACT: note_on channel=9 note=54 velocity=0 time=0
EXTRACT: note_on channel=2 note=60 velocity=0 time=0
EXTRACT: note_on channel=2 note=53 velocity=0 time=0
EXTRACT: note_on channel=2 note=65 velocity=0 time=0
EXTRACT: note_on channel=6 note=60 velocity=0 time=0
EXTRACT: note_on channel=6 note=53 velocity=0 time=0
EXTRACT: note_on channel=6 note=65 velocity=0 time=0
EXTRACT: note_on channel=6 note=72 velocity=0 time=0
EXTRACT: note_on channel=8 note=75 velocity=0 time=0.016666666666666666
EXTRACT: note_on channel=9 note=36 velocity=114 time=0.05
EXTRACT: note_on channel=2 note=70 velocity=75 time=0
EXTRACT: note_on channel=2 note=65 velocity=75 time=0
EXTRACT: note_on channel=2 note=61 velocity=75 time=0
EXTRACT: note_on channel=6 note=61 velocity=75 time=0
EXTRACT: note_on channel=6 note=65 velocity=75 time=0
EXTRACT: note_on channel=6 note=70 velocity=75 time=0
EXTRACT: note_on channel=9 note=36 velocity=0 time=0.08333333333333333
EXTRACT: note_on channel=9 note=40 velocity=71 time=0.4166666666666667
EXTRACT: note_on channel=9 note=44 velocity=64 time=0
EXTRACT: note_on channel=9 note=42 velocity=71 time=0
EXTRACT: note_on channel=9 note=36 velocity=71 time=0
EXTRACT: note_on channel=9 note=38 velocity=71 time=0
EXTRACT: note_on channel=9 note=42 velocity=0 time=0.1
EXTRACT: note_on channel=9 note=36 velocity=0 time=0
EXTRACT: note_on channel=9 note=38 velocity=0 time=0
EXTRACT: note_on channel=9 note=40 velocity=0 time=0
EXTRACT: note_on channel=9 note=44 velocity=0 time=0.016666666666666666
EXTRACT: note_on channel=2 note=65 velocity=0 time=0.11666666666666667
EXTRACT: note_on channel=6 note=65 velocity=0 time=0
EXTRACT: note_on channel=2 note=61 velocity=0 time=0.016666666666666666
EXTRACT: note_on channel=6 note=61 velocity=0 time=0
EXTRACT: note_on channel=2 note=70 velocity=0 time=0.016666666666666666
EXTRACT: note_on channel=6 note=70 velocity=0 time=0
EXTRACT: note_on channel=2 note=61 velocity=75 time=0.06666666666666667
EXTRACT: note_on channel=2 note=65 velocity=75 time=0
EXTRACT: note_on channel=2 note=68 velocity=75 time=0
EXTRACT: note_on channel=5 note=61 velocity=90 time=0
EXTRACT: note_on channel=6 note=61 velocity=75 time=0
EXTRACT: note_on channel=6 note=68 velocity=75 time=0
EXTRACT: note_on channel=6 note=65 velocity=75 time=0
EXTRACT: note_on channel=9 note=36 velocity=114 time=0.16666666666666666
EXTRACT: note_on channel=9 note=36 velocity=0 time=0.08333333333333333
EXTRACT: note_on channel=5 note=61 velocity=0 time=0.03333333333333333
EXTRACT: note_on channel=9 note=38 velocity=71 time=0.3833333333333333
EXTRACT: note_on channel=9 note=40 velocity=71 time=0
EXTRACT: note_on channel=9 note=42 velocity=71 time=0
EXTRACT: note_on channel=9 note=36 velocity=71 time=0
EXTRACT: note_on channel=9 note=44 velocity=64 time=0
EXTRACT: note_on channel=5 note=58 velocity=91 time=0
EXTRACT: note_on channel=9 note=38 velocity=0 time=0.1
EXTRACT: note_on channel=9 note=36 velocity=0 time=0
EXTRACT: note_on channel=9 note=40 velocity=0 time=0
EXTRACT: note_on channel=9 note=42 velocity=0 time=0
EXTRACT: note_on channel=9 note=44 velocity=0 time=0.016666666666666666
EXTRACT: note_on channel=5 note=58 velocity=0 time=0.16666666666666666
EXTRACT: note_on channel=2 note=61 velocity=0 time=0.1
EXTRACT: note_on channel=6 note=61 velocity=0 time=0
EXTRACT: note_on channel=2 note=65 velocity=0 time=0.05
EXTRACT: note_on channel=6 note=65 velocity=0 time=0
EXTRACT: note_on channel=2 note=68 velocity=0 time=0.016666666666666666
EXTRACT: note_on channel=6 note=68 velocity=0 time=0
EXTRACT: note_on channel=9 note=36 velocity=114 time=0.05
EXTRACT: note_on channel=2 note=67 velocity=75 time=0
EXTRACT: note_on channel=2 note=58 velocity=75 time=0
EXTRACT: note_on channel=2 note=63 velocity=75 time=0
EXTRACT: note_on channel=6 note=67 velocity=75 time=0
EXTRACT: note_on channel=6 note=63 velocity=75 time=0
EXTRACT: note_on channel=6 note=58 velocity=75 time=0
EXTRACT: note_on channel=9 note=36 velocity=0 time=0.08333333333333333
EXTRACT: note_on channel=9 note=36 velocity=71 time=0.4166666666666667
EXTRACT: note_on channel=9 note=44 velocity=64 time=0
EXTRACT: note_on channel=9 note=38 velocity=71 time=0
EXTRACT: note_on channel=9 note=40 velocity=71 time=0
EXTRACT: note_on channel=9 note=42 velocity=71 time=0
EXTRACT: note_on channel=9 note=38 velocity=0 time=0.1
EXTRACT: note_on channel=9 note=42 velocity=0 time=0
EXTRACT: note_on channel=9 note=36 velocity=0 time=0
EXTRACT: note_on channel=9 note=40 velocity=0 time=0
EXTRACT: note_on channel=9 note=44 velocity=0 time=0.016666666666666666
EXTRACT: note_on channel=2 note=63 velocity=0 time=0.13333333333333333
EXTRACT: note_on channel=6 note=63 velocity=0 time=0
EXTRACT: note_on channel=2 note=67 velocity=0 time=0.016666666666666666
EXTRACT: note_on channel=2 note=58 velocity=0 time=0
EXTRACT: note_on channel=6 note=67 velocity=0 time=0
EXTRACT: note_on channel=6 note=58 velocity=0 time=0
EXTRACT: note_on channel=2 note=61 velocity=75 time=0.06666666666666667
EXTRACT: note_on channel=2 note=58 velocity=75 time=0
EXTRACT: note_on channel=2 note=66 velocity=75 time=0
EXTRACT: note_on channel=5 note=65 velocity=90 time=0
EXTRACT: note_on channel=6 note=66 velocity=75 time=0
EXTRACT: note_on channel=6 note=61 velocity=75 time=0
EXTRACT: note_on channel=6 note=58 velocity=75 time=0
EXTRACT: note_on channel=9 note=36 velocity=114 time=0.16666666666666666
EXTRACT: note_on channel=9 note=36 velocity=0 time=0.08333333333333333
EXTRACT: note_on channel=5 note=65 velocity=0 time=0.03333333333333333
EXTRACT: note_on channel=9 note=42 velocity=71 time=0.3833333333333333
EXTRACT: note_on channel=9 note=40 velocity=71 time=0
EXTRACT: note_on channel=9 note=38 velocity=71 time=0
EXTRACT: note_on channel=9 note=36 velocity=71 time=0
EXTRACT: note_on channel=9 note=44 velocity=64 time=0
EXTRACT: note_on channel=5 note=61 velocity=90 time=0
EXTRACT: note_on channel=9 note=40 velocity=0 time=0.1
EXTRACT: note_on channel=9 note=42 velocity=0 time=0
EXTRACT: note_on channel=9 note=38 velocity=0 time=0
EXTRACT: note_on channel=9 note=36 velocity=0 time=0
EXTRACT: note_on channel=9 note=44 velocity=0 time=0.016666666666666666
EXTRACT: note_on channel=5 note=61 velocity=0 time=0.16666666666666666
EXTRACT: note_on channel=2 note=66 velocity=0 time=0.11666666666666667
EXTRACT: note_on channel=2 note=61 velocity=0 time=0
EXTRACT: note_on channel=6 note=61 velocity=0 time=0
EXTRACT: note_on channel=6 note=66 velocity=0 time=0
EXTRACT: note_on channel=2 note=58 velocity=0 time=0.016666666666666666
EXTRACT: note_on channel=6 note=58 velocity=0 time=0
EXTRACT: note_on channel=9 note=36 velocity=114 time=0.08333333333333333
EXTRACT: note_on channel=2 note=61 velocity=75 time=0
EXTRACT: note_on channel=2 note=70 velocity=75 time=0
EXTRACT: note_on channel=2 note=65 velocity=75 time=0
EXTRACT: note_on channel=6 note=70 velocity=75 time=0
EXTRACT: note_on channel=6 note=61 velocity=75 time=0
EXTRACT: note_on channel=6 note=65 velocity=75 time=0
EXTRACT: note_on channel=9 note=36 velocity=0 time=0.08333333333333333
EXTRACT: note_on channel=9 note=36 velocity=71 time=0.4166666666666667
EXTRACT: note_on channel=9 note=40 velocity=71 time=0
EXTRACT: note_on channel=9 note=38 velocity=71 time=0
EXTRACT: note_on channel=9 note=44 velocity=64 time=0
EXTRACT: note_on channel=9 note=42 velocity=71 time=0
EXTRACT: note_on channel=9 note=36 velocity=0 time=0.1
EXTRACT: note_on channel=9 note=38 velocity=0 time=0
EXTRACT: note_on channel=9 note=42 velocity=0 time=0
EXTRACT: note_on channel=9 note=40 velocity=0 time=0
EXTRACT: note_on channel=9 note=44 velocity=0 time=0.016666666666666666
EXTRACT: note_on channel=2 note=65 velocity=0 time=0.11666666666666667
EXTRACT: note_on channel=6 note=65 velocity=0 time=0
EXTRACT: note_on channel=2 note=61 velocity=0 time=0.016666666666666666
EXTRACT: note_on channel=6 note=61 velocity=0 time=0
EXTRACT: note_on channel=2 note=70 velocity=0 time=0.016666666666666666
EXTRACT: note_on channel=6 note=70 velocity=0 time=0
EXTRACT: note_on channel=2 note=65 velocity=75 time=0.06666666666666667
EXTRACT: note_on channel=2 note=61 velocity=75 time=0
EXTRACT: note_on channel=2 note=68 velocity=75 time=0
EXTRACT: note_on channel=5 note=61 velocity=90 time=0
EXTRACT: note_on channel=6 note=68 velocity=75 time=0
EXTRACT: note_on channel=6 note=61 velocity=75 time=0
EXTRACT: note_on channel=6 note=65 velocity=75 time=0
EXTRACT: note_on channel=9 note=36 velocity=114 time=0.16666666666666666
EXTRACT: note_on channel=9 note=36 velocity=0 time=0.08333333333333333
EXTRACT: note_on channel=5 note=61 velocity=0 time=0.03333333333333333
EXTRACT: note_on channel=9 note=44 velocity=64 time=0.3833333333333333
EXTRACT: note_on channel=9 note=36 velocity=71 time=0
EXTRACT: note_on channel=9 note=40 velocity=71 time=0
EXTRACT: note_on channel=9 note=38 velocity=71 time=0
EXTRACT: note_on channel=9 note=42 velocity=71 time=0
EXTRACT: note_on channel=5 note=58 velocity=91 time=0
EXTRACT: note_on channel=9 note=42 velocity=0 time=0.1
EXTRACT: note_on channel=9 note=38 velocity=0 time=0
EXTRACT: note_on channel=9 note=40 velocity=0 time=0
EXTRACT: note_on channel=9 note=36 velocity=0 time=0
EXTRACT: note_on channel=9 note=44 velocity=0 time=0.016666666666666666
EXTRACT: note_on channel=5 note=58 velocity=0 time=0.16666666666666666
EXTRACT: note_on channel=2 note=61 velocity=0 time=0.1
EXTRACT: note_on channel=6 note=61 velocity=0 time=0
EXTRACT: note_on channel=2 note=65 velocity=0 time=0.05
EXTRACT: note_on channel=6 note=65 velocity=0 time=0
EXTRACT: note_on channel=2 note=68 velocity=0 time=0.016666666666666666
EXTRACT: note_on channel=6 note=68 velocity=0 time=0
EXTRACT: note_on channel=9 note=36 velocity=114 time=0.05
EXTRACT: note_on channel=2 note=63 velocity=75 time=0
EXTRACT: note_on channel=2 note=58 velocity=75 time=0
EXTRACT: note_on channel=2 note=67 velocity=75 time=0
EXTRACT: note_on channel=6 note=58 velocity=75 time=0
EXTRACT: note_on channel=6 note=63 velocity=75 time=0
EXTRACT: note_on channel=6 note=67 velocity=75 time=0
EXTRACT: note_on channel=9 note=36 velocity=0 time=0.08333333333333333
EXTRACT: note_on channel=9 note=38 velocity=71 time=0.4166666666666667
EXTRACT: note_on channel=9 note=44 velocity=64 time=0
EXTRACT: note_on channel=9 note=40 velocity=71 time=0
EXTRACT: note_on channel=9 note=42 velocity=71 time=0
EXTRACT: note_on channel=9 note=36 velocity=71 time=0
EXTRACT: note_on channel=9 note=42 velocity=0 time=0.1
EXTRACT: note_on channel=9 note=40 velocity=0 time=0
EXTRACT: note_on channel=9 note=36 velocity=0 time=0
EXTRACT: note_on channel=9 note=38 velocity=0 time=0
EXTRACT: note_on channel=9 note=44 velocity=0 time=0.016666666666666666
EXTRACT: note_on channel=2 note=63 velocity=0 time=0.13333333333333333
EXTRACT: note_on channel=6 note=63 velocity=0 time=0
EXTRACT: note_on channel=2 note=67 velocity=0 time=0.016666666666666666
EXTRACT: note_on channel=2 note=58 velocity=0 time=0
EXTRACT: note_on channel=6 note=58 velocity=0 time=0
EXTRACT: note_on channel=6 note=67 velocity=0 time=0
EXTRACT: note_on channel=2 note=58 velocity=75 time=0.06666666666666667
EXTRACT: note_on channel=2 note=61 velocity=75 time=0
EXTRACT: note_on channel=2 note=66 velocity=75 time=0
EXTRACT: note_on channel=5 note=65 velocity=90 time=0
EXTRACT: note_on channel=6 note=66 velocity=75 time=0
EXTRACT: note_on channel=6 note=61 velocity=75 time=0
EXTRACT: note_on channel=6 note=58 velocity=75 time=0
EXTRACT: note_on channel=8 note=73 velocity=114 time=0
EXTRACT: note_on channel=8 note=73 velocity=0 time=0.11666666666666667
EXTRACT: note_on channel=9 note=36 velocity=114 time=0.05
EXTRACT: note_on channel=8 note=73 velocity=114 time=0
EXTRACT: note_on channel=9 note=36 velocity=0 time=0.08333333333333333
EXTRACT: note_on channel=5 note=65 velocity=0 time=0.03333333333333333
EXTRACT: note_on channel=8 note=73 velocity=0 time=0
EXTRACT: note_on channel=8 note=75 velocity=114 time=0.21666666666666667
EXTRACT: note_on channel=8 note=75 velocity=0 time=0.11666666666666667
EXTRACT: note_on channel=9 note=40 velocity=71 time=0.05
EXTRACT: note_on channel=9 note=38 velocity=71 time=0
EXTRACT: note_on channel=9 note=42 velocity=71 time=0
EXTRACT: note_on channel=9 note=44 velocity=64 time=0
EXTRACT: note_on channel=9 note=36 velocity=71 time=0
EXTRACT: note_on channel=5 note=61 velocity=90 time=0
EXTRACT: note_on channel=8 note=77 velocity=114 time=0
EXTRACT: note_on channel=9 note=38 velocity=0 time=0.1
EXTRACT: note_on channel=9 note=42 velocity=0 time=0
EXTRACT: note_on channel=9 note=40 velocity=0 time=0
EXTRACT: note_on channel=9 note=36 velocity=0 time=0
EXTRACT: note_on channel=9 note=44 velocity=0 time=0.016666666666666666
EXTRACT: note_on channel=8 note=77 velocity=0 time=0
EXTRACT: note_on channel=5 note=61 velocity=0 time=0.16666666666666666
EXTRACT: note_on channel=8 note=77 velocity=114 time=0.05
EXTRACT: note_on channel=2 note=66 velocity=0 time=0.06666666666666667
EXTRACT: note_on channel=2 note=61 velocity=0 time=0
EXTRACT: note_on channel=6 note=61 velocity=0 time=0
EXTRACT: note_on channel=6 note=66 velocity=0 time=0
EXTRACT: note_on channel=2 note=58 velocity=0 time=0.016666666666666666
EXTRACT: note_on channel=6 note=58 velocity=0 time=0
EXTRACT: note_on channel=9 note=36 velocity=114 time=0.08333333333333333
EXTRACT: note_on channel=9 note=54 velocity=91 time=0
EXTRACT: note_on channel=2 note=65 velocity=75 time=0
EXTRACT: note_on channel=2 note=61 velocity=75 time=0
EXTRACT: note_on channel=2 note=70 velocity=75 time=0
EXTRACT: note_on channel=6 note=65 velocity=75 time=0
EXTRACT: note_on channel=6 note=70 velocity=75 time=0
EXTRACT: note_on channel=9 note=36 velocity=0 time=0.08333333333333333
EXTRACT: note_on channel=9 note=54 velocity=0 time=0.08333333333333333
EXTRACT: note_on channel=8 note=77 velocity=0 time=0.016666666666666666
EXTRACT: note_on channel=9 note=54 velocity=71 time=0.15
EXTRACT: note_on channel=8 note=73 velocity=90 time=0
EXTRACT: note_on channel=9 note=54 velocity=0 time=0.1
EXTRACT: note_on channel=8 note=73 velocity=0 time=0.016666666666666666
EXTRACT: note_on channel=9 note=44 velocity=64 time=0.05
EXTRACT: note_on channel=9 note=42 velocity=71 time=0
EXTRACT: note_on channel=9 note=54 velocity=64 time=0
EXTRACT: note_on channel=9 note=38 velocity=71 time=0
EXTRACT: note_on channel=9 note=36 velocity=71 time=0
EXTRACT: note_on channel=9 note=40 velocity=71 time=0
EXTRACT: note_on channel=3 note=65 velocity=91 time=0
EXTRACT: note_on channel=3 note=53 velocity=64 time=0
EXTRACT: note_on channel=8 note=75 velocity=84 time=0
EXTRACT: note_on channel=9 note=40 velocity=0 time=0.1
EXTRACT: note_on channel=9 note=38 velocity=0 time=0
EXTRACT: note_on channel=9 note=36 velocity=0 time=0
EXTRACT: note_on channel=9 note=42 velocity=0 time=0
EXTRACT: note_on channel=9 note=54 velocity=0 time=0.016666666666666666
EXTRACT: note_on channel=9 note=44 velocity=0 time=0
EXTRACT: note_on channel=8 note=75 velocity=0 time=0
EXTRACT: note_on channel=2 note=61 velocity=0 time=0.06666666666666667
EXTRACT: note_on channel=3 note=53 velocity=0 time=0.03333333333333333
EXTRACT: note_on channel=2 note=65 velocity=0 time=0.016666666666666666
EXTRACT: note_on channel=3 note=65 velocity=0 time=0
EXTRACT: note_on channel=6 note=65 velocity=0 time=0
EXTRACT: note_on channel=2 note=70 velocity=0 time=0.03333333333333333
EXTRACT: note_on channel=6 note=70 velocity=0 time=0
EXTRACT: note_on channel=9 note=44 velocity=71 time=0.06666666666666667
EXTRACT: note_on channel=9 note=54 velocity=71 time=0
EXTRACT: note_on channel=2 note=61 velocity=75 time=0
EXTRACT: note_on channel=2 note=68 velocity=75 time=0
EXTRACT: note_on channel=2 note=65 velocity=75 time=0
EXTRACT: note_on channel=5 note=61 velocity=90 time=0
EXTRACT: note_on channel=6 note=68 velocity=75 time=0
EXTRACT: note_on channel=6 note=65 velocity=75 time=0
EXTRACT: note_on channel=8 note=77 velocity=68 time=0
EXTRACT: note_on channel=3 note=58 velocity=64 time=0.041666666666666664
EXTRACT: note_on channel=3 note=70 velocity=91 time=0
EXTRACT: note_on channel=9 note=54 velocity=0 time=0.058333333333333334
EXTRACT: note_on channel=9 note=44 velocity=0 time=0
EXTRACT: note_on channel=8 note=77 velocity=0 time=0.016666666666666666
EXTRACT: note_on channel=9 note=54 velocity=91 time=0.05
EXTRACT: note_on channel=9 note=36 velocity=114 time=0
EXTRACT: note_on channel=9 note=36 velocity=0 time=0.08333333333333333
EXTRACT: note_on channel=5 note=61 velocity=0 time=0.03333333333333333
EXTRACT: note_on channel=9 note=54 velocity=0 time=0.05
EXTRACT: note_on channel=9 note=54 velocity=71 time=0.16666666666666666
EXTRACT: note_on channel=8 note=73 velocity=54 time=0
EXTRACT: note_on channel=9 note=54 velocity=0 time=0.1
EXTRACT: note_on channel=3 note=58 velocity=0 time=0
EXTRACT: note_on channel=3 note=70 velocity=0 time=0.008333333333333333
EXTRACT: note_on channel=8 note=73 velocity=0 time=0.008333333333333333
EXTRACT: note_on channel=9 note=38 velocity=71 time=0.05
EXTRACT: note_on channel=9 note=36 velocity=71 time=0
EXTRACT: note_on channel=9 note=54 velocity=64 time=0
EXTRACT: note_on channel=9 note=44 velocity=64 time=0
EXTRACT: note_on channel=9 note=40 velocity=71 time=0
EXTRACT: note_on channel=9 note=42 velocity=71 time=0
EXTRACT: note_on channel=3 note=70 velocity=91 time=0
EXTRACT: note_on channel=3 note=58 velocity=64 time=0
EXTRACT: note_on channel=5 note=58 velocity=91 time=0
EXTRACT: note_on channel=8 note=75 velocity=51 time=0
EXTRACT: note_on channel=9 note=38 velocity=0 time=0.1
EXTRACT: note_on channel=9 note=36 velocity=0 time=0
EXTRACT: note_on channel=9 note=42 velocity=0 time=0
EXTRACT: note_on channel=9 note=40 velocity=0 time=0
EXTRACT: note_on channel=9 note=54 velocity=0 time=0.016666666666666666
EXTRACT: note_on channel=9 note=44 velocity=0 time=0
EXTRACT: note_on channel=8 note=75 velocity=0 time=0
EXTRACT: note_on channel=3 note=70 velocity=0 time=0.16666666666666666
EXTRACT: note_on channel=3 note=58 velocity=0 time=0
EXTRACT: note_on channel=5 note=58 velocity=0 time=0
EXTRACT: note_on channel=9 note=54 velocity=71 time=0.05
EXTRACT: note_on channel=9 note=44 velocity=71 time=0
EXTRACT: note_on channel=3 note=58 velocity=64 time=0
EXTRACT: note_on channel=3 note=70 velocity=91 time=0
EXTRACT: note_on channel=8 note=77 velocity=43 time=0
EXTRACT: note_on channel=2 note=61 velocity=0 time=0.05
EXTRACT: note_on channel=9 note=54 velocity=0 time=0.05
EXTRACT: note_on channel=9 note=44 velocity=0 time=0
EXTRACT: note_on channel=2 note=65 velocity=0 time=0
EXTRACT: note_on channel=6 note=65 velocity=0 time=0
EXTRACT: note_on channel=2 note=68 velocity=0 time=0.016666666666666666
EXTRACT: note_on channel=3 note=58 velocity=0 time=0
EXTRACT: note_on channel=3 note=70 velocity=0 time=0
EXTRACT: note_on channel=6 note=68 velocity=0 time=0
EXTRACT: note_on channel=8 note=77 velocity=0 time=0
EXTRACT: note_on channel=9 note=36 velocity=114 time=0.05
EXTRACT: note_on channel=9 note=54 velocity=91 time=0
EXTRACT: note_on channel=2 note=58 velocity=75 time=0
EXTRACT: note_on channel=2 note=63 velocity=75 time=0
EXTRACT: note_on channel=2 note=67 velocity=75 time=0
EXTRACT: note_on channel=3 note=68 velocity=91 time=0
EXTRACT: note_on channel=3 note=56 velocity=64 time=0
EXTRACT: note_on channel=6 note=67 velocity=75 time=0
EXTRACT: note_on channel=6 note=63 velocity=75 time=0
EXTRACT: note_on channel=9 note=36 velocity=0 time=0.08333333333333333
EXTRACT: note_on channel=9 note=54 velocity=0 time=0.08333333333333333
EXTRACT: note_on channel=3 note=68 velocity=0 time=0.11666666666666667
EXTRACT: note_on channel=3 note=56 velocity=0 time=0
EXTRACT: note_on channel=9 note=54 velocity=71 time=0.05
EXTRACT: note_on channel=3 note=56 velocity=64 time=0
EXTRACT: note_on channel=3 note=68 velocity=91 time=0
EXTRACT: note_on channel=9 note=54 velocity=0 time=0.1
EXTRACT: note_on channel=3 note=56 velocity=0 time=0.016666666666666666
EXTRACT: note_on channel=3 note=68 velocity=0 time=0.016666666666666666
EXTRACT: note_on channel=9 note=44 velocity=64 time=0.03333333333333333
EXTRACT: note_on channel=9 note=54 velocity=64 time=0
EXTRACT: note_on channel=9 note=42 velocity=71 time=0
EXTRACT: note_on channel=9 note=36 velocity=71 time=0
EXTRACT: note_on channel=9 note=38 velocity=71 time=0
EXTRACT: note_on channel=9 note=40 velocity=71 time=0
EXTRACT: note_on channel=3 note=56 velocity=64 time=0
EXTRACT: note_on channel=3 note=68 velocity=91 time=0
EXTRACT: note_on channel=9 note=40 velocity=0 time=0.1
EXTRACT: note_on channel=9 note=36 velocity=0 time=0
EXTRACT: note_on channel=9 note=38 velocity=0 time=0
EXTRACT: note_on channel=9 note=42 velocity=0 time=0
EXTRACT: note_on channel=9 note=44 velocity=0 time=0.016666666666666666
EXTRACT: note_on channel=9 note=54 velocity=0 time=0
EXTRACT: note_on channel=2 note=58 velocity=0 time=0.11666666666666667
EXTRACT: note_on channel=2 note=63 velocity=0 time=0.016666666666666666
EXTRACT: note_on channel=6 note=63 velocity=0 time=0
EXTRACT: note_on channel=2 note=67 velocity=0 time=0.016666666666666666
EXTRACT: note_on channel=6 note=67 velocity=0 time=0
EXTRACT: note_on channel=3 note=56 velocity=0 time=0.016666666666666666
EXTRACT: note_on channel=3 note=68 velocity=0 time=0.03333333333333333
EXTRACT: note_on channel=9 note=54 velocity=71 time=0.016666666666666666
EXTRACT: note_on channel=9 note=44 velocity=71 time=0
EXTRACT: note_on channel=2 note=58 velocity=75 time=0
EXTRACT: note_on channel=2 note=61 velocity=75 time=0
EXTRACT: note_on channel=2 note=67 velocity=75 time=0
EXTRACT: note_on channel=3 note=67 velocity=91 time=0
EXTRACT: note_on channel=3 note=55 velocity=64 time=0
EXTRACT: note_on channel=5 note=65 velocity=90 time=0
EXTRACT: note_on channel=6 note=67 velocity=75 time=0
EXTRACT: note_on channel=6 note=61 velocity=75 time=0
EXTRACT: note_on channel=8 note=73 velocity=114 time=0
EXTRACT: note_on channel=9 note=44 velocity=0 time=0.1
EXTRACT: note_on channel=9 note=54 velocity=0 time=0
EXTRACT: note_on channel=8 note=73 velocity=0 time=0.016666666666666666
EXTRACT: note_on channel=9 note=54 velocity=91 time=0.05
EXTRACT: note_on channel=9 note=36 velocity=114 time=0
EXTRACT: note_on channel=8 note=73 velocity=114 time=0
EXTRACT: note_on channel=9 note=36 velocity=0 time=0.08333333333333333
EXTRACT: note_on channel=5 note=65 velocity=0 time=0.03333333333333333
EXTRACT: note_on channel=8 note=73 velocity=0 time=0
EXTRACT: note_on channel=9 note=54 velocity=0 time=0.05
EXTRACT: note_on channel=9 note=54 velocity=71 time=0.16666666666666666
EXTRACT: note_on channel=8 note=75 velocity=114 time=0
EXTRACT: note_on channel=9 note=54 velocity=0 time=0.1
EXTRACT: note_on channel=8 note=75 velocity=0 time=0.016666666666666666
EXTRACT: note_on channel=3 note=67 velocity=0 time=0.016666666666666666
EXTRACT: note_on channel=3 note=55 velocity=0 time=0
EXTRACT: note_on channel=9 note=36 velocity=71 time=0.03333333333333333
EXTRACT: note_on channel=9 note=40 velocity=71 time=0
EXTRACT: note_on channel=9 note=54 velocity=64 time=0
EXTRACT: note_on channel=9 note=42 velocity=71 time=0
EXTRACT: note_on channel=9 note=44 velocity=64 time=0
EXTRACT: note_on channel=9 note=38 velocity=71 time=0
EXTRACT: note_on channel=3 note=66 velocity=91 time=0
EXTRACT: note_on channel=3 note=54 velocity=64 time=0
EXTRACT: note_on channel=5 note=61 velocity=90 time=0
EXTRACT: note_on channel=8 note=77 velocity=114 time=0
EXTRACT: note_on channel=9 note=36 velocity=0 time=0.1
EXTRACT: note_on channel=9 note=40 velocity=0 time=0
EXTRACT: note_on channel=9 note=38 velocity=0 time=0
EXTRACT: note_on channel=9 note=42 velocity=0 time=0
EXTRACT: note_on channel=9 note=44 velocity=0 time=0.016666666666666666
EXTRACT: note_on channel=9 note=54 velocity=0 time=0
EXTRACT: note_on channel=8 note=77 velocity=0 time=0
EXTRACT: note_on channel=5 note=61 velocity=0 time=0.16666666666666666
EXTRACT: note_on channel=9 note=54 velocity=64 time=0.05
EXTRACT: note_on channel=9 note=42 velocity=64 time=0
EXTRACT: note_on channel=8 note=77 velocity=114 time=0
EXTRACT: note_on channel=2 note=67 velocity=0 time=0.06666666666666667
EXTRACT: note_on channel=2 note=61 velocity=0 time=0
EXTRACT: note_on channel=6 note=67 velocity=0 time=0
EXTRACT: note_on channel=6 note=61 velocity=0 time=0
EXTRACT: note_on channel=2 note=58 velocity=0 time=0.016666666666666666
EXTRACT: note_on channel=9 note=54 velocity=0 time=0.016666666666666666
EXTRACT: note_on channel=9 note=42 velocity=0 time=0.016666666666666666
EXTRACT: note_on channel=3 note=66 velocity=0 time=0.016666666666666666
EXTRACT: note_on channel=3 note=54 velocity=0 time=0.016666666666666666
EXTRACT: note_on channel=9 note=36 velocity=114 time=0.016666666666666666
EXTRACT: note_on channel=9 note=54 velocity=91 time=0
EXTRACT: note_on channel=2 note=70 velocity=75 time=0
EXTRACT: note_on channel=2 note=61 velocity=75 time=0
EXTRACT: note_on channel=2 note=65 velocity=75 time=0
EXTRACT: note_on channel=6 note=70 velocity=75 time=0
EXTRACT: note_on channel=6 note=65 velocity=75 time=0
EXTRACT: note_on channel=9 note=36 velocity=0 time=0.08333333333333333
EXTRACT: note_on channel=9 note=54 velocity=0 time=0.08333333333333333
EXTRACT: note_on channel=8 note=77 velocity=0 time=0.016666666666666666
EXTRACT: note_on channel=9 note=54 velocity=71 time=0.15
EXTRACT: note_on channel=8 note=73 velocity=90 time=0
EXTRACT: note_on channel=9 note=54 velocity=0 time=0.1
EXTRACT: note_on channel=8 note=73 velocity=0 time=0.016666666666666666
EXTRACT: note_on channel=9 note=44 velocity=64 time=0.05
EXTRACT: note_on channel=9 note=54 velocity=64 time=0
EXTRACT: note_on channel=9 note=36 velocity=71 time=0
EXTRACT: note_on channel=9 note=40 velocity=71 time=0
EXTRACT: note_on channel=9 note=38 velocity=71 time=0
EXTRACT: note_on channel=9 note=42 velocity=71 time=0
EXTRACT: note_on channel=3 note=65 velocity=91 time=0
EXTRACT: note_on channel=3 note=53 velocity=64 time=0
EXTRACT: note_on channel=8 note=75 velocity=84 time=0
EXTRACT: note_on channel=9 note=42 velocity=0 time=0.1
EXTRACT: note_on channel=9 note=40 velocity=0 time=0
EXTRACT: note_on channel=9 note=38 velocity=0 time=0
EXTRACT: note_on channel=9 note=36 velocity=0 time=0
EXTRACT: note_on channel=9 note=44 velocity=0 time=0.016666666666666666
EXTRACT: note_on channel=9 note=54 velocity=0 time=0
EXTRACT: note_on channel=8 note=75 velocity=0 time=0
EXTRACT: note_on channel=2 note=61 velocity=0 time=0.06666666666666667
EXTRACT: note_on channel=3 note=53 velocity=0 time=0.03333333333333333
EXTRACT: note_on channel=2 note=65 velocity=0 time=0.016666666666666666
EXTRACT: note_on channel=3 note=65 velocity=0 time=0
EXTRACT: note_on channel=6 note=65 velocity=0 time=0
EXTRACT: note_on channel=2 note=70 velocity=0 time=0.03333333333333333
EXTRACT: note_on channel=6 note=70 velocity=0 time=0
EXTRACT: note_on channel=9 note=44 velocity=71 time=0.06666666666666667
EXTRACT: note_on channel=9 note=54 velocity=71 time=0
EXTRACT: note_on channel=2 note=68 velocity=75 time=0
EXTRACT: note_on channel=2 note=65 velocity=75 time=0
EXTRACT: note_on channel=2 note=61 velocity=75 time=0
EXTRACT: note_on channel=5 note=61 velocity=90 time=0
EXTRACT: note_on channel=6 note=68 velocity=75 time=0
EXTRACT: note_on channel=6 note=65 velocity=75 time=0
EXTRACT: note_on channel=8 note=77 velocity=68 time=0
EXTRACT: note_on channel=3 note=58 velocity=64 time=0.041666666666666664
EXTRACT: note_on channel=3 note=70 velocity=91 time=0
EXTRACT: note_on channel=9 note=54 velocity=0 time=0.058333333333333334
EXTRACT: note_on channel=9 note=44 velocity=0 time=0
EXTRACT: note_on channel=8 note=77 velocity=0 time=0.016666666666666666
EXTRACT: note_on channel=9 note=54 velocity=91 time=0.05
EXTRACT: note_on channel=9 note=36 velocity=114 time=0
EXTRACT: note_on channel=9 note=36 velocity=0 time=0.08333333333333333
EXTRACT: note_on channel=5 note=61 velocity=0 time=0.03333333333333333
EXTRACT: note_on channel=9 note=54 velocity=0 time=0.05
EXTRACT: note_on channel=9 note=54 velocity=71 time=0.16666666666666666
EXTRACT: note_on channel=8 note=73 velocity=54 time=0
EXTRACT: note_on channel=9 note=54 velocity=0 time=0.1
EXTRACT: note_on channel=3 note=58 velocity=0 time=0
EXTRACT: note_on channel=3 note=70 velocity=0 time=0.008333333333333333
EXTRACT: note_on channel=8 note=73 velocity=0 time=0.008333333333333333
EXTRACT: note_on channel=9 note=42 velocity=71 time=0.05
EXTRACT: note_on channel=9 note=44 velocity=64 time=0
EXTRACT: note_on channel=9 note=40 velocity=71 time=0
EXTRACT: note_on channel=9 note=54 velocity=64 time=0
EXTRACT: note_on channel=9 note=36 velocity=71 time=0
EXTRACT: note_on channel=9 note=38 velocity=71 time=0
EXTRACT: note_on channel=3 note=58 velocity=64 time=0
EXTRACT: note_on channel=3 note=70 velocity=91 time=0
EXTRACT: note_on channel=5 note=58 velocity=91 time=0
EXTRACT: note_on channel=8 note=75 velocity=51 time=0
EXTRACT: note_on channel=9 note=42 velocity=0 time=0.1
EXTRACT: note_on channel=9 note=40 velocity=0 time=0
EXTRACT: note_on channel=9 note=36 velocity=0 time=0
EXTRACT: note_on channel=9 note=38 velocity=0 time=0
EXTRACT: note_on channel=9 note=44 velocity=0 time=0.016666666666666666
EXTRACT: note_on channel=9 note=54 velocity=0 time=0
EXTRACT: note_on channel=8 note=75 velocity=0 time=0
EXTRACT: note_on channel=3 note=58 velocity=0 time=0.1
EXTRACT: note_on channel=3 note=70 velocity=0 time=0.05
EXTRACT: note_on channel=5 note=58 velocity=0 time=0.016666666666666666
EXTRACT: note_on channel=9 note=44 velocity=71 time=0.05
EXTRACT: note_on channel=9 note=54 velocity=71 time=0
EXTRACT: note_on channel=3 note=70 velocity=91 time=0
EXTRACT: note_on channel=3 note=58 velocity=64 time=0
EXTRACT: note_on channel=8 note=77 velocity=43 time=0
EXTRACT: note_on channel=2 note=61 velocity=0 time=0.05
EXTRACT: note_on channel=9 note=54 velocity=0 time=0.05
EXTRACT: note_on channel=9 note=44 velocity=0 time=0
EXTRACT: note_on channel=2 note=65 velocity=0 time=0
EXTRACT: note_on channel=6 note=65 velocity=0 time=0
EXTRACT: note_on channel=2 note=68 velocity=0 time=0.016666666666666666
EXTRACT: note_on channel=3 note=70 velocity=0 time=0
EXTRACT: note_on channel=6 note=68 velocity=0 time=0
EXTRACT: note_on channel=8 note=77 velocity=0 time=0
EXTRACT: note_on channel=3 note=58 velocity=0 time=0.03333333333333333
EXTRACT: note_on channel=9 note=54 velocity=91 time=0.016666666666666666
EXTRACT: note_on channel=2 note=63 velocity=75 time=0
EXTRACT: note_on channel=2 note=67 velocity=75 time=0
EXTRACT: note_on channel=2 note=58 velocity=75 time=0
EXTRACT: note_on channel=3 note=68 velocity=91 time=0
EXTRACT: note_on channel=3 note=56 velocity=64 time=0
EXTRACT: note_on channel=6 note=63 velocity=75 time=0
EXTRACT: note_on channel=6 note=67 velocity=75 time=0
EXTRACT: note_on channel=9 note=54 velocity=0 time=0.16666666666666666
EXTRACT: note_on channel=3 note=68 velocity=0 time=0.13333333333333333
EXTRACT: note_on channel=3 note=56 velocity=0 time=0
EXTRACT: note_on channel=9 note=54 velocity=71 time=0.03333333333333333
EXTRACT: note_on channel=3 note=68 velocity=91 time=0
EXTRACT: note_on channel=3 note=56 velocity=64 time=0
EXTRACT: note_on channel=9 note=54 velocity=0 time=0.1
EXTRACT: note_on channel=3 note=56 velocity=0 time=0.03333333333333333
EXTRACT: note_on channel=3 note=68 velocity=0 time=0
EXTRACT: note_on channel=9 note=54 velocity=64 time=0.03333333333333333
EXTRACT: note_on channel=3 note=68 velocity=91 time=0
EXTRACT: note_on channel=3 note=56 velocity=64 time=0
EXTRACT: note_on channel=9 note=54 velocity=0 time=0.11666666666666667
EXTRACT: note_on channel=2 note=58 velocity=0 time=0.11666666666666667
EXTRACT: note_on channel=2 note=63 velocity=0 time=0.016666666666666666
EXTRACT: note_on channel=6 note=63 velocity=0 time=0
EXTRACT: note_on channel=2 note=67 velocity=0 time=0.016666666666666666
EXTRACT: note_on channel=6 note=67 velocity=0 time=0
EXTRACT: note_on channel=3 note=56 velocity=0 time=0.016666666666666666
EXTRACT: note_on channel=3 note=68 velocity=0 time=0.016666666666666666
EXTRACT: note_on channel=9 note=54 velocity=71 time=0.03333333333333333
EXTRACT: note_on channel=2 note=61 velocity=75 time=0
EXTRACT: note_on channel=2 note=67 velocity=75 time=0
EXTRACT: note_on channel=2 note=58 velocity=75 time=0
EXTRACT: note_on channel=3 note=55 velocity=64 time=0
EXTRACT: note_on channel=3 note=67 velocity=91 time=0
EXTRACT: note_on channel=5 note=65 velocity=90 time=0
EXTRACT: note_on channel=6 note=67 velocity=75 time=0
EXTRACT: note_on channel=6 note=61 velocity=75 time=0
EXTRACT: note_on channel=9 note=54 velocity=0 time=0.1
EXTRACT: note_on channel=9 note=54 velocity=91 time=0.06666666666666667
EXTRACT: note_on channel=5 note=65 velocity=0 time=0.11666666666666667
EXTRACT: note_on channel=9 note=54 velocity=0 time=0.05
EXTRACT: note_on channel=9 note=54 velocity=71 time=0.16666666666666666
EXTRACT: note_on channel=8 note=73 velocity=114 time=0
EXTRACT: note_on channel=3 note=67 velocity=0 time=0.041666666666666664
EXTRACT: note_on channel=9 note=54 velocity=0 time=0.058333333333333334
EXTRACT: note_on channel=3 note=55 velocity=0 time=0.008333333333333333
EXTRACT: note_on channel=8 note=73 velocity=0 time=0.025
EXTRACT: note_on channel=9 note=40 velocity=71 time=0.03333333333333333
EXTRACT: note_on channel=9 note=36 velocity=71 time=0
EXTRACT: note_on channel=9 note=54 velocity=64 time=0
EXTRACT: note_on channel=9 note=42 velocity=71 time=0
EXTRACT: note_on channel=9 note=44 velocity=64 time=0
EXTRACT: note_on channel=9 note=38 velocity=71 time=0
EXTRACT: note_on channel=3 note=54 velocity=64 time=0
EXTRACT: note_on channel=3 note=66 velocity=91 time=0
EXTRACT: note_on channel=5 note=61 velocity=90 time=0
EXTRACT: note_on channel=8 note=75 velocity=114 time=0
EXTRACT: note_on channel=9 note=40 velocity=0 time=0.1
EXTRACT: note_on channel=9 note=38 velocity=0 time=0
EXTRACT: note_on channel=9 note=42 velocity=0 time=0
EXTRACT: note_on channel=9 note=36 velocity=0 time=0
EXTRACT: note_on channel=9 note=54 velocity=0 time=0.016666666666666666
EXTRACT: note_on channel=9 note=44 velocity=0 time=0
EXTRACT: note_on channel=8 note=75 velocity=0 time=0.06666666666666667
EXTRACT: note_on channel=5 note=61 velocity=0 time=0.1
EXTRACT: note_on channel=9 note=54 velocity=64 time=0.05
EXTRACT: note_on channel=8 note=77 velocity=114 time=0
EXTRACT: note_on channel=2 note=67 velocity=0 time=0.06666666666666667
EXTRACT: note_on channel=2 note=61 velocity=0 time=0
EXTRACT: note_on channel=6 note=67 velocity=0 time=0
EXTRACT: note_on channel=6 note=61 velocity=0 time=0
EXTRACT: note_on channel=2 note=58 velocity=0 time=0.016666666666666666
EXTRACT: note_on channel=9 note=54 velocity=0 time=0.016666666666666666
EXTRACT: note_on channel=8 note=77 velocity=0 time=0
EXTRACT: note_on channel=3 note=66 velocity=0 time=0.03333333333333333
EXTRACT: note_on channel=3 note=54 velocity=0 time=0.016666666666666666
EXTRACT: note_on channel=9 note=54 velocity=91 time=0.016666666666666666
EXTRACT: note_on channel=9 note=36 velocity=114 time=0
EXTRACT: note_on channel=1 note=34 velocity=114 time=0
EXTRACT: note_on channel=2 note=65 velocity=75 time=0
EXTRACT: note_on channel=2 note=61 velocity=75 time=0
EXTRACT: note_on channel=2 note=70 velocity=75 time=0
EXTRACT: note_on channel=3 note=58 velocity=75 time=0
EXTRACT: note_on channel=3 note=70 velocity=75 time=0
EXTRACT: note_on channel=4 note=46 velocity=114 time=0
EXTRACT: note_on channel=6 note=70 velocity=75 time=0
EXTRACT: note_on channel=6 note=65 velocity=75 time=0
EXTRACT: note_on channel=6 note=61 velocity=75 time=0
EXTRACT: note_on channel=8 note=77 velocity=114 time=0
EXTRACT: note_on channel=9 note=36 velocity=0 time=0.08333333333333333
EXTRACT: note_on channel=8 note=77 velocity=0 time=0.016666666666666666
EXTRACT: note_on channel=9 note=54 velocity=0 time=0.06666666666666667
EXTRACT: note_on channel=8 note=77 velocity=114 time=0
EXTRACT: note_on channel=4 note=46 velocity=0 time=0.06666666666666667
EXTRACT: note_on channel=8 note=77 velocity=0 time=0.03333333333333333
EXTRACT: note_on channel=9 note=54 velocity=71 time=0.06666666666666667
EXTRACT: note_on channel=4 note=53 velocity=114 time=0
EXTRACT: note_on channel=8 note=77 velocity=114 time=0
EXTRACT: note_on channel=1 note=34 velocity=0 time=0.08333333333333333
EXTRACT: note_on channel=9 note=54 velocity=0 time=0.016666666666666666
EXTRACT: note_on channel=8 note=77 velocity=0 time=0
EXTRACT: note_on channel=9 note=44 velocity=64 time=0.06666666666666667
EXTRACT: note_on channel=9 note=40 velocity=71 time=0
EXTRACT: note_on channel=9 note=42 velocity=71 time=0
EXTRACT: note_on channel=9 note=36 velocity=71 time=0
EXTRACT: note_on channel=9 note=54 velocity=64 time=0
EXTRACT: note_on channel=9 note=38 velocity=71 time=0
EXTRACT: note_on channel=4 note=53 velocity=0 time=0
EXTRACT: note_on channel=4 note=58 velocity=114 time=0
EXTRACT: note_on channel=8 note=77 velocity=114 time=0
EXTRACT: note_on channel=9 note=40 velocity=0 time=0.1
EXTRACT: note_on channel=9 note=36 velocity=0 time=0
EXTRACT: note_on channel=9 note=42 velocity=0 time=0
EXTRACT: note_on channel=9 note=38 velocity=0 time=0
EXTRACT: note_on channel=8 note=77 velocity=0 time=0
EXTRACT: note_on channel=9 note=54 velocity=0 time=0.016666666666666666
EXTRACT: note_on channel=9 note=44 velocity=0 time=0
EXTRACT: note_on channel=8 note=77 velocity=114 time=0.05
EXTRACT: note_on channel=4 note=58 velocity=0 time=0.05
EXTRACT: note_on channel=2 note=65 velocity=0 time=0.016666666666666666
EXTRACT: note_on channel=6 note=65 velocity=0 time=0
EXTRACT: note_on channel=2 note=61 velocity=0 time=0.016666666666666666
EXTRACT: note_on channel=6 note=61 velocity=0 time=0
EXTRACT: note_on channel=2 note=70 velocity=0 time=0.016666666666666666
EXTRACT: note_on channel=6 note=70 velocity=0 time=0
EXTRACT: note_on channel=8 note=77 velocity=0 time=0
EXTRACT: note_on channel=9 note=44 velocity=71 time=0.06666666666666667
EXTRACT: note_on channel=9 note=54 velocity=71 time=0
EXTRACT: note_on channel=1 note=37 velocity=114 time=0
EXTRACT: note_on channel=2 note=68 velocity=75 time=0
EXTRACT: note_on channel=2 note=65 velocity=75 time=0
EXTRACT: note_on channel=2 note=61 velocity=75 time=0
EXTRACT: note_on channel=4 note=49 velocity=114 time=0
EXTRACT: note_on channel=6 note=65 velocity=75 time=0
EXTRACT: note_on channel=6 note=68 velocity=75 time=0
EXTRACT: note_on channel=6 note=61 velocity=75 time=0
EXTRACT: note_on channel=8 note=77 velocity=114 time=0
EXTRACT: note_on channel=9 note=44 velocity=0 time=0.1
EXTRACT: note_on channel=9 note=54 velocity=0 time=0
EXTRACT: note_on channel=3 note=70 velocity=0 time=0
EXTRACT: note_on channel=8 note=77 velocity=0 time=0
EXTRACT: note_on channel=3 note=58 velocity=0 time=0.03333333333333333
EXTRACT: note_on channel=9 note=36 velocity=114 time=0.03333333333333333
EXTRACT: note_on channel=9 note=54 velocity=91 time=0
EXTRACT: note_on channel=3 note=68 velocity=75 time=0
EXTRACT: note_on channel=3 note=56 velocity=75 time=0
EXTRACT: note_on channel=8 note=77 velocity=114 time=0
EXTRACT: note_on channel=9 note=36 velocity=0 time=0.08333333333333333
EXTRACT: note_on channel=8 note=77 velocity=0 time=0.016666666666666666
EXTRACT: note_on channel=4 note=49 velocity=0 time=0.03333333333333333
EXTRACT: note_on channel=9 note=54 velocity=0 time=0.03333333333333333
EXTRACT: note_on channel=8 note=77 velocity=114 time=0
EXTRACT: note_on channel=8 note=77 velocity=0 time=0.1
EXTRACT: note_on channel=9 note=54 velocity=71 time=0.06666666666666667
EXTRACT: note_on channel=4 note=56 velocity=114 time=0
EXTRACT: note_on channel=8 note=77 velocity=114 time=0
EXTRACT: note_on channel=1 note=37 velocity=0 time=0.016666666666666666
EXTRACT: note_on channel=9 note=54 velocity=0 time=0.08333333333333333
EXTRACT: note_on channel=8 note=77 velocity=0 time=0
EXTRACT: note_on channel=4 note=56 velocity=0 time=0.05
EXTRACT: note_on channel=9 note=44 velocity=64 time=0.016666666666666666
EXTRACT: note_on channel=9 note=38 velocity=71 time=0
EXTRACT: note_on channel=9 note=42 velocity=71 time=0
EXTRACT: note_on channel=9 note=36 velocity=71 time=0
EXTRACT: note_on channel=9 note=54 velocity=64 time=0
EXTRACT: note_on channel=9 note=40 velocity=71 time=0
EXTRACT: note_on channel=4 note=61 velocity=114 time=0
EXTRACT: note_on channel=8 note=77 velocity=114 time=0
EXTRACT: note_on channel=9 note=42 velocity=0 time=0.1
EXTRACT: note_on channel=9 note=38 velocity=0 time=0
EXTRACT: note_on channel=9 note=40 velocity=0 time=0
EXTRACT: note_on channel=9 note=36 velocity=0 time=0
EXTRACT: note_on channel=8 note=77 velocity=0 time=0
EXTRACT: note_on channel=9 note=54 velocity=0 time=0.016666666666666666
EXTRACT: note_on channel=9 note=44 velocity=0 time=0
EXTRACT: note_on channel=8 note=77 velocity=114 time=0.05
EXTRACT: note_on channel=4 note=61 velocity=0 time=0.05
EXTRACT: note_on channel=8 note=77 velocity=0 time=0.05
EXTRACT: note_on channel=9 note=44 velocity=71 time=0.06666666666666667
EXTRACT: note_on channel=9 note=54 velocity=71 time=0
EXTRACT: note_on channel=4 note=49 velocity=114 time=0
EXTRACT: note_on channel=8 note=77 velocity=114 time=0
EXTRACT: note_on channel=2 note=61 velocity=0 time=0.05
EXTRACT: note_on channel=6 note=61 velocity=0 time=0
EXTRACT: note_on channel=9 note=54 velocity=0 time=0.05
EXTRACT: note_on channel=9 note=44 velocity=0 time=0
EXTRACT: note_on channel=2 note=65 velocity=0 time=0
EXTRACT: note_on channel=6 note=65 velocity=0 time=0
EXTRACT: note_on channel=8 note=77 velocity=0 time=0
EXTRACT: note_on channel=2 note=68 velocity=0 time=0.016666666666666666
EXTRACT: note_on channel=3 note=68 velocity=0 time=0
EXTRACT: note_on channel=6 note=68 velocity=0 time=0
EXTRACT: note_on channel=3 note=56 velocity=0 time=0.016666666666666666
EXTRACT: note_on channel=4 note=49 velocity=0 time=0
EXTRACT: note_on channel=9 note=36 velocity=114 time=0.03333333333333333
EXTRACT: note_on channel=9 note=54 velocity=91 time=0
EXTRACT: note_on channel=1 note=39 velocity=114 time=0
EXTRACT: note_on channel=2 note=58 velocity=75 time=0
EXTRACT: note_on channel=2 note=63 velocity=75 time=0
EXTRACT: note_on channel=2 note=67 velocity=75 time=0
EXTRACT: note_on channel=3 note=67 velocity=75 time=0
EXTRACT: note_on channel=3 note=55 velocity=75 time=0
EXTRACT: note_on channel=4 note=51 velocity=114 time=0
EXTRACT: note_on channel=6 note=67 velocity=75 time=0
EXTRACT: note_on channel=6 note=63 velocity=75 time=0
EXTRACT: note_on channel=6 note=58 velocity=75 time=0
EXTRACT: note_on channel=8 note=77 velocity=114 time=0
EXTRACT: note_on channel=9 note=36 velocity=0 time=0.08333333333333333
EXTRACT: note_on channel=8 note=77 velocity=0 time=0.016666666666666666
EXTRACT: note_on channel=9 note=54 velocity=0 time=0.06666666666666667
EXTRACT: note_on channel=4 note=51 velocity=0 time=0
EXTRACT: note_on channel=8 note=77 velocity=114 time=0
EXTRACT: note_on channel=8 note=77 velocity=0 time=0.1
EXTRACT: note_on channel=9 note=54 velocity=71 time=0.06666666666666667
EXTRACT: note_on channel=4 note=58 velocity=114 time=0
EXTRACT: note_on channel=8 note=77 velocity=114 time=0
EXTRACT: note_on channel=9 note=54 velocity=0 time=0.1
EXTRACT: note_on channel=8 note=77 velocity=0 time=0
EXTRACT: note_on channel=1 note=39 velocity=0 time=0.05
EXTRACT: note_on channel=4 note=58 velocity=0 time=0
EXTRACT: note_on channel=9 note=38 velocity=71 time=0.016666666666666666
EXTRACT: note_on channel=9 note=36 velocity=71 time=0
EXTRACT: note_on channel=9 note=44 velocity=64 time=0
EXTRACT: note_on channel=9 note=54 velocity=64 time=0
EXTRACT: note_on channel=9 note=42 velocity=71 time=0
EXTRACT: note_on channel=9 note=40 velocity=71 time=0
EXTRACT: note_on channel=4 note=63 velocity=114 time=0
EXTRACT: note_on channel=8 note=77 velocity=114 time=0
EXTRACT: note_on channel=9 note=42 velocity=0 time=0.1
EXTRACT: note_on channel=9 note=40 velocity=0 time=0
EXTRACT: note_on channel=9 note=36 velocity=0 time=0
EXTRACT: note_on channel=9 note=38 velocity=0 time=0
EXTRACT: note_on channel=8 note=77 velocity=0 time=0
EXTRACT: note_on channel=9 note=44 velocity=0 time=0.016666666666666666
EXTRACT: note_on channel=9 note=54 velocity=0 time=0
EXTRACT: note_on channel=8 note=77 velocity=114 time=0.05
EXTRACT: note_on channel=4 note=63 velocity=0 time=0.05
EXTRACT: note_on channel=2 note=63 velocity=0 time=0.03333333333333333
EXTRACT: note_on channel=6 note=63 velocity=0 time=0
EXTRACT: note_on channel=2 note=67 velocity=0 time=0.016666666666666666
EXTRACT: note_on channel=2 note=58 velocity=0 time=0
EXTRACT: note_on channel=6 note=58 velocity=0 time=0
EXTRACT: note_on channel=6 note=67 velocity=0 time=0
EXTRACT: note_on channel=8 note=77 velocity=0 time=0
EXTRACT: note_on channel=9 note=54 velocity=71 time=0.06666666666666667
EXTRACT: note_on channel=9 note=44 velocity=71 time=0
EXTRACT: note_on channel=1 note=30 velocity=114 time=0
EXTRACT: note_on channel=2 note=61 velocity=75 time=0
EXTRACT: note_on channel=2 note=66 velocity=75 time=0
EXTRACT: note_on channel=2 note=58 velocity=75 time=0
EXTRACT: note_on channel=4 note=42 velocity=114 time=0
EXTRACT: note_on channel=6 note=61 velocity=75 time=0
EXTRACT: note_on channel=6 note=66 velocity=75 time=0
EXTRACT: note_on channel=6 note=58 velocity=75 time=0
EXTRACT: note_on channel=8 note=77 velocity=114 time=0
EXTRACT: note_on channel=9 note=54 velocity=0 time=0.1
EXTRACT: note_on channel=9 note=44 velocity=0 time=0
EXTRACT: note_on channel=8 note=77 velocity=0 time=0
EXTRACT: note_on channel=3 note=55 velocity=0 time=0.03333333333333333
EXTRACT: note_on channel=3 note=67 velocity=0 time=0.016666666666666666
EXTRACT: note_on channel=9 note=36 velocity=114 time=0.016666666666666666
EXTRACT: note_on channel=9 note=54 velocity=91 time=0
EXTRACT: note_on channel=3 note=66 velocity=75 time=0
EXTRACT: note_on channel=3 note=54 velocity=75 time=0
EXTRACT: note_on channel=8 note=77 velocity=114 time=0
EXTRACT: note_on channel=9 note=36 velocity=0 time=0.08333333333333333
EXTRACT: note_on channel=8 note=77 velocity=0 time=0.016666666666666666
EXTRACT: note_on channel=4 note=42 velocity=0 time=0.05
EXTRACT: note_on channel=9 note=54 velocity=0 time=0.016666666666666666
EXTRACT: note_on channel=8 note=77 velocity=114 time=0
EXTRACT: note_on channel=8 note=77 velocity=0 time=0.1
EXTRACT: note_on channel=1 note=30 velocity=0 time=0.05
EXTRACT: note_on channel=9 note=54 velocity=71 time=0.016666666666666666
EXTRACT: note_on channel=4 note=49 velocity=114 time=0
EXTRACT: note_on channel=8 note=77 velocity=114 time=0
EXTRACT: note_on channel=9 note=54 velocity=0 time=0.1
EXTRACT: note_on channel=8 note=77 velocity=0 time=0
EXTRACT: note_on channel=4 note=49 velocity=0 time=0.05
EXTRACT: note_on channel=9 note=42 velocity=71 time=0.016666666666666666
EXTRACT: note_on channel=9 note=44 velocity=64 time=0
EXTRACT: note_on channel=9 note=54 velocity=64 time=0
EXTRACT: note_on channel=9 note=38 velocity=71 time=0
EXTRACT: note_on channel=9 note=36 velocity=71 time=0
EXTRACT: note_on channel=9 note=40 velocity=71 time=0
EXTRACT: note_on channel=4 note=54 velocity=114 time=0
EXTRACT: note_on channel=8 note=77 velocity=114 time=0
EXTRACT: note_on channel=9 note=36 velocity=0 time=0.1
EXTRACT: note_on channel=9 note=42 velocity=0 time=0
EXTRACT: note_on channel=9 note=40 velocity=0 time=0
EXTRACT: note_on channel=9 note=38 velocity=0 time=0
EXTRACT: note_on channel=8 note=77 velocity=0 time=0
EXTRACT: note_on channel=9 note=44 velocity=0 time=0.016666666666666666
EXTRACT: note_on channel=9 note=54 velocity=0 time=0
EXTRACT: note_on channel=8 note=77 velocity=114 time=0.05
EXTRACT: note_on channel=4 note=54 velocity=0 time=0.05
EXTRACT: note_on channel=8 note=77 velocity=0 time=0.05
EXTRACT: note_on channel=9 note=54 velocity=64 time=0.06666666666666667
EXTRACT: note_on channel=9 note=42 velocity=71 time=0
EXTRACT: note_on channel=1 note=30 velocity=114 time=0
EXTRACT: note_on channel=4 note=42 velocity=114 time=0
EXTRACT: note_on channel=8 note=77 velocity=114 time=0
EXTRACT: note_on channel=2 note=66 velocity=0 time=0.06666666666666667
EXTRACT: note_on channel=2 note=61 velocity=0 time=0
EXTRACT: note_on channel=6 note=66 velocity=0 time=0
EXTRACT: note_on channel=6 note=61 velocity=0 time=0
EXTRACT: note_on channel=2 note=58 velocity=0 time=0.016666666666666666
EXTRACT: note_on channel=6 note=58 velocity=0 time=0
EXTRACT: note_on channel=9 note=42 velocity=0 time=0.016666666666666666
EXTRACT: note_on channel=9 note=54 velocity=0 time=0
EXTRACT: note_on channel=8 note=77 velocity=0 time=0
EXTRACT: note_on channel=1 note=30 velocity=0 time=0.03333333333333333
EXTRACT: note_on channel=3 note=66 velocity=0 time=0
EXTRACT: note_on channel=3 note=54 velocity=0 time=0
EXTRACT: note_on channel=4 note=42 velocity=0 time=0.016666666666666666
EXTRACT: note_on channel=9 note=36 velocity=114 time=0.016666666666666666
EXTRACT: note_on channel=9 note=54 velocity=91 time=0
EXTRACT: note_on channel=1 note=34 velocity=114 time=0
EXTRACT: note_on channel=2 note=61 velocity=75 time=0
EXTRACT: note_on channel=2 note=65 velocity=75 time=0
EXTRACT: note_on channel=2 note=70 velocity=75 time=0
EXTRACT: note_on channel=3 note=53 velocity=75 time=0
EXTRACT: note_on channel=3 note=65 velocity=75 time=0
EXTRACT: note_on channel=4 note=46 velocity=114 time=0
EXTRACT: note_on channel=6 note=65 velocity=75 time=0
EXTRACT: note_on channel=6 note=70 velocity=75 time=0
EXTRACT: note_on channel=6 note=61 velocity=75 time=0
EXTRACT: note_on channel=8 note=77 velocity=114 time=0
EXTRACT: note_on channel=9 note=36 velocity=0 time=0.08333333333333333
EXTRACT: note_on channel=8 note=77 velocity=0 time=0.016666666666666666
EXTRACT: note_on channel=9 note=54 velocity=0 time=0.06666666666666667
EXTRACT: note_on channel=8 note=77 velocity=114 time=0
EXTRACT: note_on channel=4 note=46 velocity=0 time=0.06666666666666667
EXTRACT: note_on channel=8 note=77 velocity=0 time=0.03333333333333333
EXTRACT: note_on channel=9 note=54 velocity=71 time=0.06666666666666667
EXTRACT: note_on channel=4 note=53 velocity=114 time=0
EXTRACT: note_on channel=8 note=77 velocity=114 time=0
EXTRACT: note_on channel=1 note=34 velocity=0 time=0.08333333333333333
EXTRACT: note_on channel=9 note=54 velocity=0 time=0.016666666666666666
EXTRACT: note_on channel=8 note=77 velocity=0 time=0
EXTRACT: note_on channel=9 note=40 velocity=71 time=0.06666666666666667
EXTRACT: note_on channel=9 note=42 velocity=71 time=0
EXTRACT: note_on channel=9 note=54 velocity=64 time=0
EXTRACT: note_on channel=9 note=38 velocity=71 time=0
EXTRACT: note_on channel=9 note=36 velocity=71 time=0
EXTRACT: note_on channel=9 note=44 velocity=64 time=0
EXTRACT: note_on channel=4 note=58 velocity=114 time=0
EXTRACT: note_on channel=4 note=53 velocity=0 time=0
EXTRACT: note_on channel=8 note=77 velocity=114 time=0
EXTRACT: note_on channel=9 note=36 velocity=0 time=0.1
EXTRACT: note_on channel=9 note=38 velocity=0 time=0
EXTRACT: note_on channel=9 note=42 velocity=0 time=0
EXTRACT: note_on channel=9 note=40 velocity=0 time=0
EXTRACT: note_on channel=8 note=77 velocity=0 time=0
EXTRACT: note_on channel=9 note=44 velocity=0 time=0.016666666666666666
EXTRACT: note_on channel=9 note=54 velocity=0 time=0
EXTRACT: note_on channel=8 note=77 velocity=114 time=0.05
EXTRACT: note_on channel=4 note=58 velocity=0 time=0.05
EXTRACT: note_on channel=2 note=65 velocity=0 time=0.016666666666666666
EXTRACT: note_on channel=6 note=65 velocity=0 time=0
EXTRACT: note_on channel=2 note=61 velocity=0 time=0.016666666666666666
EXTRACT: note_on channel=6 note=61 velocity=0 time=0
EXTRACT: note_on channel=2 note=70 velocity=0 time=0.016666666666666666
EXTRACT: note_on channel=6 note=70 velocity=0 time=0
EXTRACT: note_on channel=8 note=77 velocity=0 time=0
EXTRACT: note_on channel=9 note=54 velocity=71 time=0.06666666666666667
EXTRACT: note_on channel=9 note=44 velocity=71 time=0
EXTRACT: note_on channel=1 note=37 velocity=114 time=0
EXTRACT: note_on channel=2 note=65 velocity=75 time=0
EXTRACT: note_on channel=2 note=61 velocity=75 time=0
EXTRACT: note_on channel=2 note=68 velocity=75 time=0
EXTRACT: note_on channel=4 note=49 velocity=114 time=0
EXTRACT: note_on channel=6 note=65 velocity=75 time=0
EXTRACT: note_on channel=6 note=61 velocity=75 time=0
EXTRACT: note_on channel=6 note=68 velocity=75 time=0
EXTRACT: note_on channel=8 note=77 velocity=114 time=0
EXTRACT: note_on channel=9 note=54 velocity=0 time=0.1
EXTRACT: note_on channel=9 note=44 velocity=0 time=0
EXTRACT: note_on channel=8 note=77 velocity=0 time=0
EXTRACT: note_on channel=9 note=36 velocity=114 time=0.06666666666666667
EXTRACT: note_on channel=9 note=54 velocity=91 time=0
EXTRACT: note_on channel=8 note=77 velocity=114 time=0
EXTRACT: note_on channel=9 note=36 velocity=0 time=0.08333333333333333
EXTRACT: note_on channel=4 note=49 velocity=0 time=0.05
EXTRACT: note_on channel=9 note=54 velocity=0 time=0.03333333333333333
EXTRACT: note_on channel=8 note=77 velocity=0 time=0.06666666666666667
EXTRACT: note_on channel=9 note=54 velocity=71 time=0.1
EXTRACT: note_on channel=4 note=56 velocity=114 time=0
EXTRACT: note_on channel=8 note=73 velocity=114 time=0
EXTRACT: note_on channel=1 note=37 velocity=0 time=0.016666666666666666
EXTRACT: note_on channel=9 note=54 velocity=0 time=0.08333333333333333
EXTRACT: note_on channel=8 note=73 velocity=0 time=0.03333333333333333
EXTRACT: note_on channel=4 note=56 velocity=0 time=0.016666666666666666
EXTRACT: note_on channel=9 note=38 velocity=71 time=0.016666666666666666
EXTRACT: note_on channel=9 note=44 velocity=64 time=0
EXTRACT: note_on channel=9 note=40 velocity=71 time=0
EXTRACT: note_on channel=9 note=42 velocity=71 time=0
EXTRACT: note_on channel=9 note=36 velocity=71 time=0
EXTRACT: note_on channel=9 note=54 velocity=64 time=0
EXTRACT: note_on channel=4 note=61 velocity=114 time=0
EXTRACT: note_on channel=8 note=77 velocity=114 time=0
EXTRACT: note_on channel=9 note=40 velocity=0 time=0.1
EXTRACT: note_on channel=9 note=36 velocity=0 time=0
EXTRACT: note_on channel=9 note=38 velocity=0 time=0
EXTRACT: note_on channel=9 note=42 velocity=0 time=0
EXTRACT: note_on channel=9 note=54 velocity=0 time=0.016666666666666666
EXTRACT: note_on channel=9 note=44 velocity=0 time=0
EXTRACT: note_on channel=8 note=77 velocity=0 time=0.03333333333333333
EXTRACT: note_on channel=4 note=61 velocity=0 time=0.06666666666666667
EXTRACT: note_on channel=9 note=44 velocity=71 time=0.11666666666666667
EXTRACT: note_on channel=9 note=54 velocity=71 time=0
EXTRACT: note_on channel=4 note=49 velocity=114 time=0
EXTRACT: note_on channel=8 note=75 velocity=114 time=0
EXTRACT: note_on channel=2 note=61 velocity=0 time=0.05
EXTRACT: note_on channel=6 note=61 velocity=0 time=0
EXTRACT: note_on channel=9 note=54 velocity=0 time=0.05
EXTRACT: note_on channel=9 note=44 velocity=0 time=0
EXTRACT: note_on channel=2 note=65 velocity=0 time=0
EXTRACT: note_on channel=3 note=65 velocity=0 time=0
EXTRACT: note_on channel=6 note=65 velocity=0 time=0
EXTRACT: note_on channel=2 note=68 velocity=0 time=0.016666666666666666
EXTRACT: note_on channel=3 note=53 velocity=0 time=0
EXTRACT: note_on channel=6 note=68 velocity=0 time=0
EXTRACT: note_on channel=4 note=49 velocity=0 time=0.016666666666666666
EXTRACT: note_on channel=9 note=36 velocity=114 time=0.03333333333333333
EXTRACT: note_on channel=9 note=54 velocity=91 time=0
EXTRACT: note_on channel=1 note=39 velocity=114 time=0
EXTRACT: note_on channel=2 note=63 velocity=75 time=0
EXTRACT: note_on channel=2 note=58 velocity=75 time=0
EXTRACT: note_on channel=2 note=67 velocity=75 time=0
EXTRACT: note_on channel=3 note=51 velocity=75 time=0
EXTRACT: note_on channel=3 note=63 velocity=75 time=0
EXTRACT: note_on channel=4 note=51 velocity=114 time=0
EXTRACT: note_on channel=6 note=67 velocity=75 time=0
EXTRACT: note_on channel=6 note=63 velocity=75 time=0
EXTRACT: note_on channel=6 note=58 velocity=75 time=0
EXTRACT: note_on channel=9 note=36 velocity=0 time=0.08333333333333333
EXTRACT: note_on channel=9 note=54 velocity=0 time=0.08333333333333333
EXTRACT: note_on channel=4 note=51 velocity=0 time=0
EXTRACT: note_on channel=8 note=75 velocity=0 time=0.05
EXTRACT: note_on channel=9 note=54 velocity=71 time=0.11666666666666667
EXTRACT: note_on channel=4 note=58 velocity=114 time=0
EXTRACT: note_on channel=8 note=73 velocity=77 time=0
EXTRACT: note_on channel=9 note=54 velocity=0 time=0.1
EXTRACT: note_on channel=8 note=73 velocity=0 time=0.03333333333333333
EXTRACT: note_on channel=1 note=39 velocity=0 time=0.016666666666666666
EXTRACT: note_on channel=4 note=58 velocity=0 time=0
EXTRACT: note_on channel=9 note=44 velocity=71 time=0.016666666666666666
EXTRACT: note_on channel=9 note=36 velocity=71 time=0
EXTRACT: note_on channel=9 note=40 velocity=71 time=0
EXTRACT: note_on channel=9 note=42 velocity=71 time=0
EXTRACT: note_on channel=9 note=54 velocity=64 time=0
EXTRACT: note_on channel=9 note=38 velocity=71 time=0
EXTRACT: note_on channel=4 note=63 velocity=114 time=0
EXTRACT: note_on channel=8 note=77 velocity=77 time=0
EXTRACT: note_on channel=9 note=38 velocity=0 time=0.1
EXTRACT: note_on channel=9 note=42 velocity=0 time=0
EXTRACT: note_on channel=9 note=40 velocity=0 time=0
EXTRACT: note_on channel=9 note=36 velocity=0 time=0
EXTRACT: note_on channel=9 note=44 velocity=0 time=0
EXTRACT: note_on channel=9 note=54 velocity=0 time=0.016666666666666666
EXTRACT: note_on channel=8 note=77 velocity=0 time=0.03333333333333333
EXTRACT: note_on channel=4 note=63 velocity=0 time=0.06666666666666667
EXTRACT: note_on channel=2 note=63 velocity=0 time=0.03333333333333333
EXTRACT: note_on channel=6 note=63 velocity=0 time=0
EXTRACT: note_on channel=2 note=67 velocity=0 time=0.016666666666666666
EXTRACT: note_on channel=2 note=58 velocity=0 time=0
EXTRACT: note_on channel=6 note=58 velocity=0 time=0
EXTRACT: note_on channel=6 note=67 velocity=0 time=0
EXTRACT: note_on channel=9 note=54 velocity=71 time=0.06666666666666667
EXTRACT: note_on channel=9 note=44 velocity=71 time=0
EXTRACT: note_on channel=1 note=30 velocity=114 time=0
EXTRACT: note_on channel=2 note=61 velocity=75 time=0
EXTRACT: note_on channel=2 note=66 velocity=75 time=0
EXTRACT: note_on channel=2 note=58 velocity=75 time=0
EXTRACT: note_on channel=4 note=42 velocity=114 time=0
EXTRACT: note_on channel=6 note=66 velocity=75 time=0
EXTRACT: note_on channel=6 note=58 velocity=75 time=0
EXTRACT: note_on channel=6 note=61 velocity=75 time=0
EXTRACT: note_on channel=8 note=73 velocity=114 time=0
EXTRACT: note_on channel=9 note=54 velocity=0 time=0.1
EXTRACT: note_on channel=9 note=44 velocity=0 time=0
EXTRACT: note_on channel=8 note=73 velocity=0 time=0.016666666666666666
EXTRACT: note_on channel=9 note=36 velocity=114 time=0.05
EXTRACT: note_on channel=9 note=54 velocity=91 time=0
EXTRACT: note_on channel=8 note=73 velocity=114 time=0
EXTRACT: note_on channel=9 note=36 velocity=0 time=0.08333333333333333
EXTRACT: note_on channel=4 note=42 velocity=0 time=0.06666666666666667
EXTRACT: note_on channel=9 note=54 velocity=0 time=0.016666666666666666
EXTRACT: note_on channel=8 note=73 velocity=0 time=0.016666666666666666
EXTRACT: note_on channel=1 note=30 velocity=0 time=0.13333333333333333
EXTRACT: note_on channel=9 note=54 velocity=71 time=0.016666666666666666
EXTRACT: note_on channel=4 note=49 velocity=114 time=0
EXTRACT: note_on channel=8 note=75 velocity=114 time=0
EXTRACT: note_on channel=9 note=54 velocity=0 time=0.1
EXTRACT: note_on channel=8 note=75 velocity=0 time=0.016666666666666666
EXTRACT: note_on channel=4 note=49 velocity=0 time=0.03333333333333333
EXTRACT: note_on channel=9 note=54 velocity=64 time=0.016666666666666666
EXTRACT: note_on channel=9 note=40 velocity=71 time=0
EXTRACT: note_on channel=9 note=36 velocity=71 time=0
EXTRACT: note_on channel=9 note=38 velocity=71 time=0
EXTRACT: note_on channel=9 note=44 velocity=64 time=0
EXTRACT: note_on channel=9 note=42 velocity=71 time=0
EXTRACT: note_on channel=4 note=54 velocity=114 time=0
EXTRACT: note_on channel=8 note=77 velocity=114 time=0
EXTRACT: note_on channel=9 note=42 velocity=0 time=0.1
EXTRACT: note_on channel=9 note=38 velocity=0 time=0
EXTRACT: note_on channel=9 note=36 velocity=0 time=0
EXTRACT: note_on channel=9 note=40 velocity=0 time=0
EXTRACT: note_on channel=9 note=44 velocity=0 time=0.016666666666666666
EXTRACT: note_on channel=9 note=54 velocity=0 time=0
EXTRACT: note_on channel=8 note=77 velocity=0 time=0.06666666666666667
EXTRACT: note_on channel=4 note=54 velocity=0 time=0.03333333333333333
EXTRACT: note_on channel=9 note=42 velocity=71 time=0.11666666666666667
EXTRACT: note_on channel=9 note=54 velocity=64 time=0
EXTRACT: note_on channel=1 note=30 velocity=114 time=0
EXTRACT: note_on channel=4 note=42 velocity=114 time=0
EXTRACT: note_on channel=8 note=77 velocity=114 time=0
EXTRACT: note_on channel=2 note=66 velocity=0 time=0.06666666666666667
EXTRACT: note_on channel=2 note=61 velocity=0 time=0
EXTRACT: note_on channel=6 note=61 velocity=0 time=0
EXTRACT: note_on channel=6 note=66 velocity=0 time=0
EXTRACT: note_on channel=2 note=58 velocity=0 time=0.016666666666666666
EXTRACT: note_on channel=6 note=58 velocity=0 time=0
EXTRACT: note_on channel=9 note=42 velocity=0 time=0.016666666666666666
EXTRACT: note_on channel=9 note=54 velocity=0 time=0
EXTRACT: note_on channel=3 note=51 velocity=0 time=0
EXTRACT: note_on channel=1 note=30 velocity=0 time=0.03333333333333333
EXTRACT: note_on channel=3 note=63 velocity=0 time=0
EXTRACT: note_on channel=4 note=42 velocity=0 time=0.016666666666666666
EXTRACT: note_on channel=9 note=36 velocity=114 time=0.016666666666666666
EXTRACT: note_on channel=9 note=55 velocity=91 time=0
EXTRACT: note_on channel=9 note=54 velocity=91 time=0
EXTRACT: note_on channel=1 note=37 velocity=114 time=0
EXTRACT: note_on channel=2 note=65 velocity=75 time=0
EXTRACT: note_on channel=2 note=68 velocity=75 time=0
EXTRACT: note_on channel=2 note=73 velocity=75 time=0
EXTRACT: note_on channel=2 note=61 velocity=75 time=0
EXTRACT: note_on channel=3 note=65 velocity=75 time=0
EXTRACT: note_on channel=3 note=53 velocity=75 time=0
EXTRACT: note_on channel=6 note=61 velocity=75 time=0
EXTRACT: note_on channel=6 note=68 velocity=75 time=0
EXTRACT: note_on channel=6 note=65 velocity=75 time=0
EXTRACT: note_on channel=6 note=73 velocity=75 time=0
EXTRACT: note_on channel=9 note=36 velocity=0 time=0.08333333333333333
EXTRACT: note_on channel=9 note=54 velocity=0 time=0.08333333333333333
EXTRACT: note_on channel=8 note=77 velocity=0 time=0.016666666666666666
EXTRACT: note_on channel=9 note=54 velocity=71 time=0.15
EXTRACT: note_on channel=1 note=37 velocity=0 time=0
EXTRACT: note_on channel=9 note=54 velocity=0 time=0.1
EXTRACT: note_on channel=9 note=36 velocity=71 time=0.06666666666666667
EXTRACT: note_on channel=9 note=38 velocity=71 time=0
EXTRACT: note_on channel=9 note=54 velocity=64 time=0
EXTRACT: note_on channel=9 note=40 velocity=71 time=0
EXTRACT: note_on channel=9 note=44 velocity=64 time=0
EXTRACT: note_on channel=9 note=42 velocity=71 time=0
EXTRACT: note_on channel=1 note=37 velocity=114 time=0
EXTRACT: note_on channel=5 note=65 velocity=84 time=0
EXTRACT: note_on channel=3 note=53 velocity=0 time=0.06666666666666667
EXTRACT: note_on channel=9 note=42 velocity=0 time=0.03333333333333333
EXTRACT: note_on channel=9 note=40 velocity=0 time=0
EXTRACT: note_on channel=9 note=38 velocity=0 time=0
EXTRACT: note_on channel=9 note=36 velocity=0 time=0
EXTRACT: note_on channel=3 note=65 velocity=0 time=0
EXTRACT: note_on channel=9 note=54 velocity=0 time=0.016666666666666666
EXTRACT: note_on channel=9 note=44 velocity=0 time=0
EXTRACT: note_on channel=5 note=65 velocity=0 time=0.15
EXTRACT: note_on channel=9 note=44 velocity=71 time=0.06666666666666667
EXTRACT: note_on channel=9 note=54 velocity=71 time=0
EXTRACT: note_on channel=1 note=37 velocity=0 time=0
EXTRACT: note_on channel=9 note=54 velocity=0 time=0.1
EXTRACT: note_on channel=9 note=44 velocity=0 time=0
EXTRACT: note_on channel=9 note=55 velocity=0 time=0.016666666666666666
EXTRACT: note_on channel=9 note=36 velocity=114 time=0.05
EXTRACT: note_on channel=9 note=54 velocity=91 time=0
EXTRACT: note_on channel=1 note=37 velocity=114 time=0
EXTRACT: note_on channel=5 note=68 velocity=83 time=0
EXTRACT: note_on channel=9 note=36 velocity=0 time=0.08333333333333333
EXTRACT: note_on channel=9 note=54 velocity=0 time=0.08333333333333333
EXTRACT: note_on channel=9 note=54 velocity=71 time=0.16666666666666666
EXTRACT: note_on channel=1 note=37 velocity=0 time=0
EXTRACT: note_on channel=8 note=73 velocity=114 time=0
EXTRACT: note_on channel=9 note=54 velocity=0 time=0.1
EXTRACT: note_on channel=8 note=73 velocity=0 time=0.016666666666666666
EXTRACT: note_on channel=9 note=54 velocity=64 time=0.05
EXTRACT: note_on channel=9 note=42 velocity=71 time=0
EXTRACT: note_on channel=9 note=36 velocity=71 time=0
EXTRACT: note_on channel=9 note=44 velocity=64 time=0
EXTRACT: note_on channel=9 note=40 velocity=71 time=0
EXTRACT: note_on channel=9 note=38 velocity=71 time=0
EXTRACT: note_on channel=1 note=37 velocity=114 time=0
EXTRACT: note_on channel=8 note=73 velocity=114 time=0
EXTRACT: note_on channel=9 note=36 velocity=0 time=0.1
EXTRACT: note_on channel=9 note=42 velocity=0 time=0
EXTRACT: note_on channel=9 note=38 velocity=0 time=0
EXTRACT: note_on channel=9 note=40 velocity=0 time=0
EXTRACT: note_on channel=9 note=54 velocity=0 time=0.016666666666666666
EXTRACT: note_on channel=9 note=44 velocity=0 time=0
EXTRACT: note_on channel=8 note=73 velocity=0 time=0.08333333333333333
EXTRACT: control_change channel=5 control=7 value=82 time=0.1
EXTRACT: note_on channel=9 note=44 velocity=71 time=0.03333333333333333
EXTRACT: note_on channel=9 note=54 velocity=71 time=0
EXTRACT: note_on channel=1 note=37 velocity=0 time=0
EXTRACT: control_change channel=5 control=7 value=81 time=0
EXTRACT: note_on channel=8 note=75 velocity=114 time=0
EXTRACT: control_change channel=5 control=7 value=79 time=0.03333333333333333
EXTRACT: note_on channel=2 note=61 velocity=0 time=0.03333333333333333
EXTRACT: control_change channel=5 control=7 value=76 time=0
EXTRACT: note_on channel=6 note=61 velocity=0 time=0
EXTRACT: note_on channel=2 note=65 velocity=0 time=0.016666666666666666
EXTRACT: note_on channel=2 note=73 velocity=0 time=0
EXTRACT: note_on channel=6 note=73 velocity=0 time=0
EXTRACT: note_on channel=6 note=65 velocity=0 time=0
EXTRACT: note_on channel=9 note=44 velocity=0 time=0.016666666666666666
EXTRACT: note_on channel=9 note=54 velocity=0 time=0
EXTRACT: note_on channel=2 note=68 velocity=0 time=0
EXTRACT: control_change channel=5 control=7 value=75 time=0
EXTRACT: note_on channel=6 note=68 velocity=0 time=0
EXTRACT: note_on channel=8 note=75 velocity=0 time=0.016666666666666666
EXTRACT: control_change channel=5 control=7 value=74 time=0.016666666666666666
EXTRACT: note_on channel=9 note=36 velocity=114 time=0.03333333333333333
EXTRACT: note_on channel=9 note=54 velocity=91 time=0
EXTRACT: note_on channel=1 note=36 velocity=114 time=0
EXTRACT: note_on channel=2 note=60 velocity=75 time=0
EXTRACT: note_on channel=2 note=65 velocity=75 time=0
EXTRACT: note_on channel=2 note=72 velocity=75 time=0
EXTRACT: note_on channel=2 note=68 velocity=75 time=0
EXTRACT: control_change channel=5 control=7 value=71 time=0
EXTRACT: note_on channel=6 note=65 velocity=75 time=0
EXTRACT: note_on channel=6 note=60 velocity=75 time=0
EXTRACT: note_on channel=6 note=68 velocity=75 time=0
EXTRACT: note_on channel=6 note=72 velocity=75 time=0
EXTRACT: note_on channel=8 note=77 velocity=114 time=0
EXTRACT: control_change channel=5 control=7 value=68 time=0.06666666666666667
EXTRACT: note_on channel=9 note=36 velocity=0 time=0.016666666666666666
EXTRACT: control_change channel=5 control=7 value=66 time=0.016666666666666666
EXTRACT: control_change channel=5 control=7 value=65 time=0.03333333333333333
EXTRACT: note_on channel=9 note=54 velocity=0 time=0.03333333333333333
EXTRACT: control_change channel=5 control=7 value=64 time=0
EXTRACT: control_change channel=5 control=7 value=62 time=0.03333333333333333
EXTRACT: note_on channel=8 note=77 velocity=0 time=0.016666666666666666
EXTRACT: control_change channel=5 control=7 value=61 time=0.016666666666666666
EXTRACT: control_change channel=5 control=7 value=59 time=0.03333333333333333
EXTRACT: note_on channel=9 note=54 velocity=71 time=0.06666666666666667
EXTRACT: control_change channel=5 control=7 value=58 time=0
EXTRACT: note_on channel=8 note=77 velocity=114 time=0
EXTRACT: note_on channel=1 note=36 velocity=0 time=0.03333333333333333
EXTRACT: control_change channel=5 control=7 value=56 time=0.03333333333333333
EXTRACT: note_on channel=9 note=54 velocity=0 time=0.03333333333333333
EXTRACT: note_on channel=8 note=77 velocity=0 time=0.016666666666666666
EXTRACT: control_change channel=5 control=7 value=53 time=0.016666666666666666
EXTRACT: note_on channel=9 note=54 velocity=64 time=0.03333333333333333
EXTRACT: note_on channel=9 note=44 velocity=64 time=0
EXTRACT: note_on channel=9 note=36 velocity=71 time=0
EXTRACT: note_on channel=9 note=38 velocity=71 time=0
EXTRACT: note_on channel=9 note=42 velocity=71 time=0
EXTRACT: note_on channel=9 note=40 velocity=71 time=0
EXTRACT: note_on channel=1 note=36 velocity=114 time=0
EXTRACT: control_change channel=5 control=7 value=55 time=0
EXTRACT: note_on channel=8 note=75 velocity=114 time=0
EXTRACT: control_change channel=5 control=7 value=53 time=0.03333333333333333
EXTRACT: control_change channel=5 control=7 value=51 time=0.03333333333333333
EXTRACT: note_on channel=9 note=40 velocity=0 time=0.03333333333333333
EXTRACT: note_on channel=9 note=36 velocity=0 time=0
EXTRACT: note_on channel=9 note=42 velocity=0 time=0
EXTRACT: note_on channel=9 note=38 velocity=0 time=0
EXTRACT: control_change channel=5 control=7 value=49 time=0
EXTRACT: note_on channel=9 note=44 velocity=0 time=0.016666666666666666
EXTRACT: note_on channel=9 note=54 velocity=0 time=0
EXTRACT: note_on channel=8 note=75 velocity=0 time=0.016666666666666666
EXTRACT: control_change channel=5 control=7 value=46 time=0.03333333333333333
EXTRACT: control_change channel=5 control=7 value=45 time=0.06666666666666667
EXTRACT: control_change channel=5 control=7 value=43 time=0.03333333333333333
EXTRACT: control_change channel=5 control=7 value=42 time=0.03333333333333333
EXTRACT: note_on channel=9 note=54 velocity=71 time=0.03333333333333333
EXTRACT: note_on channel=9 note=44 velocity=71 time=0
EXTRACT: note_on channel=8 note=75 velocity=114 time=0
EXTRACT: note_on channel=1 note=36 velocity=0 time=0.03333333333333333
EXTRACT: control_change channel=5 control=7 value=40 time=0
EXTRACT: control_change channel=5 control=7 value=36 time=0.03333333333333333
EXTRACT: note_on channel=9 note=54 velocity=0 time=0.03333333333333333
EXTRACT: note_on channel=9 note=44 velocity=0 time=0
EXTRACT: control_change channel=5 control=7 value=33 time=0.03333333333333333
EXTRACT: note_on channel=5 note=68 velocity=0 time=0
EXTRACT: note_on channel=8 note=75 velocity=0 time=0
EXTRACT: note_on channel=9 note=36 velocity=114 time=0.03333333333333333
EXTRACT: note_on channel=9 note=54 velocity=91 time=0
EXTRACT: note_on channel=1 note=36 velocity=114 time=0
EXTRACT: note_on channel=8 note=73 velocity=114 time=0
EXTRACT: control_change channel=5 control=7 value=30 time=0.03333333333333333
EXTRACT: control_change channel=5 control=7 value=29 time=0.03333333333333333
EXTRACT: note_on channel=9 note=36 velocity=0 time=0.016666666666666666
EXTRACT: control_change channel=5 control=7 value=27 time=0.016666666666666666
EXTRACT: control_change channel=5 control=7 value=25 time=0.03333333333333333
EXTRACT: note_on channel=8 note=73 velocity=0 time=0
EXTRACT: note_on channel=9 note=54 velocity=0 time=0.03333333333333333
EXTRACT: control_change channel=5 control=7 value=23 time=0.03333333333333333
EXTRACT: control_change channel=5 control=7 value=22 time=0.06666666666666667
EXTRACT: control_change channel=5 control=7 value=19 time=0.03333333333333333
EXTRACT: note_on channel=9 note=54 velocity=71 time=0.03333333333333333
EXTRACT: note_on channel=8 note=75 velocity=114 time=0
EXTRACT: note_on channel=1 note=36 velocity=0 time=0.03333333333333333
EXTRACT: control_change channel=5 control=7 value=16 time=0
EXTRACT: control_change channel=5 control=7 value=14 time=0.03333333333333333
EXTRACT: note_on channel=9 note=54 velocity=0 time=0.03333333333333333
EXTRACT: control_change channel=5 control=7 value=13 time=0
EXTRACT: control_change channel=5 control=7 value=12 time=0.03333333333333333
EXTRACT: note_on channel=9 note=44 velocity=64 time=0.03333333333333333
EXTRACT: note_on channel=9 note=54 velocity=64 time=0
EXTRACT: note_on channel=9 note=38 velocity=71 time=0
EXTRACT: note_on channel=9 note=40 velocity=71 time=0
EXTRACT: note_on channel=9 note=36 velocity=71 time=0
EXTRACT: note_on channel=9 note=42 velocity=71 time=0
EXTRACT: note_on channel=1 note=36 velocity=114 time=0
EXTRACT: control_change channel=5 control=7 value=85 time=0.03333333333333333
EXTRACT: note_on channel=9 note=38 velocity=0 time=0.06666666666666667
EXTRACT: note_on channel=9 note=36 velocity=0 time=0
EXTRACT: note_on channel=9 note=42 velocity=0 time=0
EXTRACT: note_on channel=9 note=40 velocity=0 time=0
EXTRACT: note_on channel=8 note=75 velocity=0 time=0
EXTRACT: note_on channel=9 note=44 velocity=0 time=0.016666666666666666
EXTRACT: note_on channel=9 note=54 velocity=0 time=0
EXTRACT: note_on channel=9 note=54 velocity=64 time=0.21666666666666667
EXTRACT: note_on channel=9 note=42 velocity=64 time=0
EXTRACT: note_on channel=8 note=77 velocity=114 time=0
EXTRACT: note_on channel=1 note=36 velocity=0 time=0.03333333333333333
EXTRACT: note_on channel=9 note=54 velocity=0 time=0.06666666666666667
EXTRACT: note_on channel=9 note=42 velocity=0 time=0.016666666666666666
EXTRACT: note_on channel=2 note=60 velocity=0 time=0.016666666666666666
EXTRACT: note_on channel=2 note=68 velocity=0 time=0
EXTRACT: note_on channel=2 note=72 velocity=0 time=0
EXTRACT: note_on channel=2 note=65 velocity=0 time=0
EXTRACT: note_on channel=6 note=65 velocity=0 time=0
EXTRACT: note_on channel=6 note=72 velocity=0 time=0
EXTRACT: note_on channel=6 note=68 velocity=0 time=0
EXTRACT: note_on channel=6 note=60 velocity=0 time=0
EXTRACT: note_on channel=9 note=36 velocity=114 time=0.03333333333333333
EXTRACT: note_on channel=9 note=54 velocity=91 time=0
EXTRACT: note_on channel=1 note=34 velocity=114 time=0
EXTRACT: note_on channel=2 note=65 velocity=75 time=0
EXTRACT: note_on channel=2 note=61 velocity=75 time=0
EXTRACT: note_on channel=2 note=58 velocity=75 time=0
EXTRACT: note_on channel=2 note=70 velocity=75 time=0
EXTRACT: note_on channel=6 note=70 velocity=75 time=0
EXTRACT: note_on channel=6 note=61 velocity=75 time=0
EXTRACT: note_on channel=6 note=65 velocity=75 time=0
EXTRACT: note_on channel=6 note=58 velocity=75 time=0
EXTRACT: note_on channel=9 note=36 velocity=0 time=0.08333333333333333
EXTRACT: note_on channel=9 note=54 velocity=0 time=0.08333333333333333
EXTRACT: note_on channel=8 note=77 velocity=0 time=0.03333333333333333
EXTRACT: note_on channel=9 note=54 velocity=71 time=0.13333333333333333
EXTRACT: note_on channel=1 note=34 velocity=0 time=0.03333333333333333
EXTRACT: note_on channel=9 note=54 velocity=0 time=0.06666666666666667
EXTRACT: note_on channel=9 note=44 velocity=64 time=0.06666666666666667
EXTRACT: note_on channel=9 note=42 velocity=71 time=0
EXTRACT: note_on channel=9 note=40 velocity=71 time=0
EXTRACT: note_on channel=9 note=38 velocity=71 time=0
EXTRACT: note_on channel=9 note=36 velocity=71 time=0
EXTRACT: note_on channel=9 note=54 velocity=64 time=0
EXTRACT: note_on channel=1 note=34 velocity=114 time=0
EXTRACT: note_on channel=5 note=68 velocity=83 time=0
EXTRACT: note_on channel=9 note=38 velocity=0 time=0.1
EXTRACT: note_on channel=9 note=40 velocity=0 time=0
EXTRACT: note_on channel=9 note=36 velocity=0 time=0
EXTRACT: note_on channel=9 note=42 velocity=0 time=0
EXTRACT: note_on channel=9 note=44 velocity=0 time=0.016666666666666666
EXTRACT: note_on channel=9 note=54 velocity=0 time=0
EXTRACT: control_change channel=5 control=7 value=84 time=0.15
EXTRACT: note_on channel=9 note=44 velocity=71 time=0.06666666666666667
EXTRACT: note_on channel=9 note=54 velocity=71 time=0
EXTRACT: note_on channel=1 note=34 velocity=0 time=0.03333333333333333
EXTRACT: note_on channel=5 note=68 velocity=0 time=0.05
EXTRACT: note_on channel=9 note=44 velocity=0 time=0.016666666666666666
EXTRACT: note_on channel=9 note=54 velocity=0 time=0
EXTRACT: note_on channel=9 note=36 velocity=114 time=0.06666666666666667
EXTRACT: note_on channel=9 note=54 velocity=91 time=0
EXTRACT: note_on channel=1 note=34 velocity=114 time=0
EXTRACT: note_on channel=5 note=65 velocity=83 time=0
EXTRACT: note_on channel=9 note=36 velocity=0 time=0.08333333333333333
EXTRACT: note_on channel=9 note=54 velocity=0 time=0.08333333333333333
EXTRACT: note_on channel=9 note=54 velocity=71 time=0.16666666666666666
EXTRACT: note_on channel=1 note=34 velocity=0 time=0.03333333333333333
EXTRACT: note_on channel=9 note=54 velocity=0 time=0.06666666666666667
EXTRACT: note_on channel=5 note=65 velocity=0 time=0
EXTRACT: control_change channel=5 control=7 value=85 time=0
EXTRACT: note_on channel=9 note=42 velocity=71 time=0.06666666666666667
EXTRACT: note_on channel=9 note=38 velocity=71 time=0
EXTRACT: note_on channel=9 note=54 velocity=64 time=0
EXTRACT: note_on channel=9 note=44 velocity=64 time=0
EXTRACT: note_on channel=9 note=40 velocity=71 time=0
EXTRACT: note_on channel=9 note=36 velocity=71 time=0
EXTRACT: note_on channel=1 note=34 velocity=114 time=0
EXTRACT: note_on channel=5 note=63 velocity=83 time=0
EXTRACT: note_on channel=9 note=42 velocity=0 time=0.1
EXTRACT: note_on channel=9 note=38 velocity=0 time=0
EXTRACT: note_on channel=9 note=36 velocity=0 time=0
EXTRACT: note_on channel=9 note=40 velocity=0 time=0
EXTRACT: note_on channel=9 note=54 velocity=0 time=0.016666666666666666
EXTRACT: note_on channel=9 note=44 velocity=0 time=0
EXTRACT: note_on channel=9 note=54 velocity=71 time=0.21666666666666667
EXTRACT: note_on channel=9 note=44 velocity=71 time=0
EXTRACT: note_on channel=8 note=75 velocity=114 time=0
EXTRACT: note_on channel=1 note=34 velocity=0 time=0.03333333333333333
EXTRACT: note_on channel=2 note=65 velocity=0 time=0.03333333333333333
EXTRACT: note_on channel=6 note=65 velocity=0 time=0
EXTRACT: note_on channel=2 note=70 velocity=0 time=0.016666666666666666
EXTRACT: note_on channel=2 note=58 velocity=0 time=0
EXTRACT: note_on channel=2 note=61 velocity=0 time=0
EXTRACT: note_on channel=6 note=58 velocity=0 time=0
EXTRACT: note_on channel=6 note=61 velocity=0 time=0
EXTRACT: note_on channel=6 note=70 velocity=0 time=0
EXTRACT: note_on channel=9 note=54 velocity=0 time=0.016666666666666666
EXTRACT: note_on channel=9 note=44 velocity=0 time=0
EXTRACT: note_on channel=8 note=75 velocity=0 time=0.016666666666666666
EXTRACT: note_on channel=5 note=63 velocity=0 time=0.016666666666666666
EXTRACT: note_on channel=9 note=36 velocity=114 time=0.03333333333333333
EXTRACT: note_on channel=9 note=54 velocity=91 time=0
EXTRACT: note_on channel=1 note=29 velocity=114 time=0
EXTRACT: note_on channel=2 note=60 velocity=75 time=0
EXTRACT: note_on channel=2 note=68 velocity=75 time=0
EXTRACT: note_on channel=2 note=65 velocity=75 time=0
EXTRACT: note_on channel=2 note=53 velocity=75 time=0
EXTRACT: note_on channel=5 note=65 velocity=83 time=0
EXTRACT: note_on channel=6 note=65 velocity=75 time=0
EXTRACT: note_on channel=6 note=60 velocity=75 time=0
EXTRACT: note_on channel=6 note=53 velocity=75 time=0
EXTRACT: note_on channel=6 note=68 velocity=75 time=0
EXTRACT: note_on channel=8 note=77 velocity=114 time=0
EXTRACT: note_on channel=9 note=36 velocity=0 time=0.08333333333333333
EXTRACT: note_on channel=9 note=54 velocity=0 time=0.08333333333333333
EXTRACT: note_on channel=8 note=77 velocity=0 time=0
EXTRACT: note_on channel=9 note=54 velocity=71 time=0.16666666666666666
EXTRACT: note_on channel=8 note=77 velocity=114 time=0
EXTRACT: note_on channel=1 note=29 velocity=0 time=0.03333333333333333
EXTRACT: note_on channel=9 note=54 velocity=0 time=0.06666666666666667
EXTRACT: control_change channel=5 control=7 value=84 time=0
EXTRACT: note_on channel=9 note=54 velocity=64 time=0.06666666666666667
EXTRACT: note_on channel=9 note=38 velocity=71 time=0
EXTRACT: note_on channel=9 note=44 velocity=64 time=0
EXTRACT: note_on channel=9 note=40 velocity=71 time=0
EXTRACT: note_on channel=9 note=36 velocity=71 time=0
EXTRACT: note_on channel=9 note=42 velocity=71 time=0
EXTRACT: note_on channel=1 note=29 velocity=114 time=0
EXTRACT: note_on channel=8 note=75 velocity=114 time=0
EXTRACT: note_on channel=8 note=77 velocity=0 time=0
EXTRACT: note_on channel=9 note=42 velocity=0 time=0.1
EXTRACT: note_on channel=9 note=38 velocity=0 time=0
EXTRACT: note_on channel=9 note=36 velocity=0 time=0
EXTRACT: note_on channel=9 note=40 velocity=0 time=0
EXTRACT: note_on channel=9 note=44 velocity=0 time=0.016666666666666666
EXTRACT: note_on channel=9 note=54 velocity=0 time=0
EXTRACT: control_change channel=5 control=7 value=81 time=0.08333333333333333
EXTRACT: note_on channel=8 note=75 velocity=0 time=0
EXTRACT: note_on channel=9 note=44 velocity=71 time=0.13333333333333333
EXTRACT: note_on channel=9 note=54 velocity=71 time=0
EXTRACT: control_change channel=5 control=7 value=78 time=0
EXTRACT: note_on channel=8 note=75 velocity=114 time=0
EXTRACT: note_on channel=1 note=29 velocity=0 time=0.03333333333333333
EXTRACT: control_change channel=5 control=7 value=76 time=0.03333333333333333
EXTRACT: note_on channel=9 note=44 velocity=0 time=0.03333333333333333
EXTRACT: note_on channel=9 note=54 velocity=0 time=0
EXTRACT: control_change channel=5 control=7 value=75 time=0
EXTRACT: note_on channel=8 note=75 velocity=0 time=0.016666666666666666
EXTRACT: control_change channel=5 control=7 value=72 time=0.016666666666666666
EXTRACT: note_on channel=9 note=36 velocity=114 time=0.03333333333333333
EXTRACT: note_on channel=9 note=54 velocity=91 time=0
EXTRACT: note_on channel=1 note=29 velocity=114 time=0
EXTRACT: note_on channel=8 note=73 velocity=114 time=0
EXTRACT: control_change channel=5 control=7 value=71 time=0.03333333333333333
EXTRACT: control_change channel=5 control=7 value=68 time=0.03333333333333333
EXTRACT: note_on channel=9 note=36 velocity=0 time=0.016666666666666666
EXTRACT: control_change channel=5 control=7 value=66 time=0.016666666666666666
EXTRACT: note_on channel=8 note=73 velocity=0 time=0.016666666666666666
EXTRACT: control_change channel=5 control=7 value=64 time=0.016666666666666666
EXTRACT: note_on channel=9 note=54 velocity=0 time=0.03333333333333333
EXTRACT: control_change channel=5 control=7 value=62 time=0
EXTRACT: control_change channel=5 control=7 value=61 time=0.03333333333333333
EXTRACT: control_change channel=5 control=7 value=59 time=0.03333333333333333
EXTRACT: control_change channel=5 control=7 value=58 time=0.03333333333333333
EXTRACT: control_change channel=5 control=7 value=56 time=0.03333333333333333
EXTRACT: note_on channel=9 note=54 velocity=71 time=0.03333333333333333
EXTRACT: note_on channel=8 note=75 velocity=114 time=0
EXTRACT: note_on channel=1 note=29 velocity=0 time=0.03333333333333333
EXTRACT: control_change channel=5 control=7 value=55 time=0
EXTRACT: control_change channel=5 control=7 value=53 time=0.03333333333333333
EXTRACT: note_on channel=9 note=54 velocity=0 time=0.03333333333333333
EXTRACT: control_change channel=5 control=7 value=52 time=0
EXTRACT: note_on channel=8 note=75 velocity=0 time=0.016666666666666666
EXTRACT: control_change channel=5 control=7 value=51 time=0.016666666666666666
EXTRACT: note_on channel=9 note=40 velocity=71 time=0.03333333333333333
EXTRACT: note_on channel=9 note=42 velocity=71 time=0
EXTRACT: note_on channel=9 note=54 velocity=64 time=0
EXTRACT: note_on channel=9 note=38 velocity=71 time=0
EXTRACT: note_on channel=9 note=36 velocity=71 time=0
EXTRACT: note_on channel=9 note=44 velocity=64 time=0
EXTRACT: note_on channel=1 note=29 velocity=114 time=0
EXTRACT: control_change channel=5 control=7 value=49 time=0
EXTRACT: note_on channel=8 note=77 velocity=114 time=0
EXTRACT: control_change channel=5 control=7 value=48 time=0.03333333333333333
EXTRACT: control_change channel=5 control=7 value=46 time=0.03333333333333333
EXTRACT: note_on channel=9 note=36 velocity=0 time=0.03333333333333333
EXTRACT: note_on channel=9 note=42 velocity=0 time=0
EXTRACT: note_on channel=9 note=40 velocity=0 time=0
EXTRACT: note_on channel=9 note=38 velocity=0 time=0
EXTRACT: note_on channel=9 note=44 velocity=0 time=0.016666666666666666
EXTRACT: note_on channel=9 note=54 velocity=0 time=0
EXTRACT: note_on channel=8 note=77 velocity=0 time=0
EXTRACT: control_change channel=5 control=7 value=43 time=0.016666666666666666
EXTRACT: control_change channel=5 control=7 value=42 time=0.03333333333333333
EXTRACT: control_change channel=5 control=7 value=40 time=0.03333333333333333
EXTRACT: control_change channel=5 control=7 value=38 time=0.03333333333333333
EXTRACT: control_change channel=5 control=7 value=36 time=0.06666666666666667
EXTRACT: note_on channel=9 note=42 velocity=71 time=0.03333333333333333
EXTRACT: note_on channel=9 note=54 velocity=64 time=0
EXTRACT: control_change channel=5 control=7 value=35 time=0
EXTRACT: note_on channel=8 note=77 velocity=114 time=0
EXTRACT: note_on channel=1 note=29 velocity=0 time=0.03333333333333333
EXTRACT: control_change channel=5 control=7 value=33 time=0
EXTRACT: note_on channel=2 note=65 velocity=0 time=0.016666666666666666
EXTRACT: note_on channel=2 note=68 velocity=0 time=0
EXTRACT: note_on channel=2 note=60 velocity=0 time=0
EXTRACT: note_on channel=2 note=53 velocity=0 time=0
EXTRACT: note_on channel=6 note=65 velocity=0 time=0
EXTRACT: note_on channel=6 note=68 velocity=0 time=0
EXTRACT: note_on channel=6 note=53 velocity=0 time=0
EXTRACT: note_on channel=6 note=60 velocity=0 time=0
EXTRACT: control_change channel=5 control=7 value=32 time=0.016666666666666666
EXTRACT: note_on channel=9 note=42 velocity=0 time=0.03333333333333333
EXTRACT: note_on channel=9 note=54 velocity=0 time=0
EXTRACT: control_change channel=5 control=7 value=30 time=0
EXTRACT: note_on channel=5 note=65 velocity=0 time=0.03333333333333333
EXTRACT: control_change channel=5 control=7 value=29 time=0
EXTRACT: note_on channel=9 note=36 velocity=114 time=0.03333333333333333
EXTRACT: note_on channel=9 note=54 velocity=91 time=0
EXTRACT: note_on channel=1 note=39 velocity=114 time=0
EXTRACT: note_on channel=2 note=63 velocity=75 time=0
EXTRACT: note_on channel=2 note=61 velocity=75 time=0
EXTRACT: note_on channel=2 note=66 velocity=75 time=0
EXTRACT: note_on channel=2 note=58 velocity=75 time=0
EXTRACT: control_change channel=5 control=7 value=26 time=0
EXTRACT: note_on channel=6 note=63 velocity=75 time=0
EXTRACT: note_on channel=6 note=58 velocity=75 time=0
EXTRACT: note_on channel=6 note=66 velocity=75 time=0
EXTRACT: note_on channel=6 note=61 velocity=75 time=0
EXTRACT: control_change channel=5 control=7 value=25 time=0.06666666666666667
EXTRACT: note_on channel=9 note=36 velocity=0 time=0.016666666666666666
EXTRACT: control_change channel=5 control=7 value=23 time=0.05
EXTRACT: note_on channel=8 note=77 velocity=0 time=0.016666666666666666
EXTRACT: note_on channel=9 note=54 velocity=0 time=0.016666666666666666
EXTRACT: control_change channel=5 control=7 value=22 time=0
EXTRACT: control_change channel=5 control=7 value=19 time=0.03333333333333333
EXTRACT: control_change channel=5 control=7 value=17 time=0.03333333333333333
EXTRACT: control_change channel=5 control=7 value=85 time=0.06666666666666667
EXTRACT: note_on channel=9 note=54 velocity=71 time=0.03333333333333333
EXTRACT: note_on channel=8 note=75 velocity=114 time=0
EXTRACT: note_on channel=1 note=39 velocity=0 time=0.03333333333333333
EXTRACT: note_on channel=9 note=54 velocity=0 time=0.06666666666666667
EXTRACT: note_on channel=9 note=36 velocity=71 time=0.06666666666666667
EXTRACT: note_on channel=9 note=54 velocity=64 time=0
EXTRACT: note_on channel=9 note=38 velocity=71 time=0
EXTRACT: note_on channel=9 note=42 velocity=71 time=0
EXTRACT: note_on channel=9 note=40 velocity=71 time=0
EXTRACT: note_on channel=9 note=44 velocity=64 time=0
EXTRACT: note_on channel=1 note=39 velocity=114 time=0
EXTRACT: note_on channel=9 note=36 velocity=0 time=0.1
EXTRACT: note_on channel=9 note=40 velocity=0 time=0
EXTRACT: note_on channel=9 note=42 velocity=0 time=0
EXTRACT: note_on channel=9 note=38 velocity=0 time=0
EXTRACT: note_on channel=9 note=54 velocity=0 time=0.016666666666666666
EXTRACT: note_on channel=9 note=44 velocity=0 time=0
EXTRACT: note_on channel=8 note=75 velocity=0 time=0.05
EXTRACT: note_on channel=9 note=54 velocity=71 time=0.16666666666666666
EXTRACT: note_on channel=9 note=44 velocity=71 time=0
EXTRACT: note_on channel=8 note=75 velocity=114 time=0
EXTRACT: note_on channel=1 note=39 velocity=0 time=0.03333333333333333
EXTRACT: note_on channel=9 note=54 velocity=0 time=0.06666666666666667
EXTRACT: note_on channel=9 note=44 velocity=0 time=0
EXTRACT: note_on channel=8 note=75 velocity=0 time=0.016666666666666666
EXTRACT: note_on channel=9 note=36 velocity=114 time=0.05
EXTRACT: note_on channel=9 note=54 velocity=91 time=0
EXTRACT: note_on channel=1 note=39 velocity=114 time=0
EXTRACT: note_on channel=8 note=73 velocity=114 time=0
EXTRACT: note_on channel=9 note=36 velocity=0 time=0.08333333333333333
EXTRACT: note_on channel=8 note=73 velocity=0 time=0.03333333333333333
EXTRACT: note_on channel=9 note=54 velocity=0 time=0.05
EXTRACT: note_on channel=9 note=54 velocity=71 time=0.16666666666666666
EXTRACT: note_on channel=8 note=75 velocity=114 time=0
EXTRACT: note_on channel=1 note=39 velocity=0 time=0.03333333333333333
EXTRACT: note_on channel=9 note=54 velocity=0 time=0.06666666666666667
EXTRACT: note_on channel=9 note=42 velocity=71 time=0.06666666666666667
EXTRACT: note_on channel=9 note=40 velocity=71 time=0
EXTRACT: note_on channel=9 note=44 velocity=64 time=0
EXTRACT: note_on channel=9 note=36 velocity=71 time=0
EXTRACT: note_on channel=9 note=38 velocity=71 time=0
EXTRACT: note_on channel=9 note=54 velocity=64 time=0
EXTRACT: note_on channel=1 note=39 velocity=114 time=0
EXTRACT: note_on channel=3 note=68 velocity=75 time=0
EXTRACT: note_on channel=3 note=80 velocity=75 time=0
EXTRACT: note_on channel=9 note=38 velocity=0 time=0.1
EXTRACT: note_on channel=9 note=40 velocity=0 time=0
EXTRACT: note_on channel=9 note=42 velocity=0 time=0
EXTRACT: note_on channel=9 note=36 velocity=0 time=0
EXTRACT: note_on channel=9 note=54 velocity=0 time=0.016666666666666666
EXTRACT: note_on channel=9 note=44 velocity=0 time=0
EXTRACT: note_on channel=8 note=75 velocity=0 time=0
EXTRACT: note_on channel=3 note=68 velocity=0 time=0.1
EXTRACT: note_on channel=3 note=80 velocity=0 time=0.016666666666666666
EXTRACT: note_on channel=9 note=54 velocity=71 time=0.1
EXTRACT: note_on channel=9 note=44 velocity=71 time=0
EXTRACT: note_on channel=3 note=77 velocity=75 time=0
EXTRACT: note_on channel=3 note=65 velocity=75 time=0
EXTRACT: note_on channel=8 note=77 velocity=114 time=0
EXTRACT: note_on channel=1 note=39 velocity=0 time=0.03333333333333333
EXTRACT: note_on channel=9 note=54 velocity=0 time=0.06666666666666667
EXTRACT: note_on channel=9 note=44 velocity=0 time=0
EXTRACT: note_on channel=9 note=36 velocity=114 time=0.06666666666666667
EXTRACT: note_on channel=9 note=54 velocity=91 time=0
EXTRACT: note_on channel=1 note=39 velocity=114 time=0
EXTRACT: note_on channel=9 note=36 velocity=0 time=0.08333333333333333
EXTRACT: note_on channel=3 note=77 velocity=0 time=0.016666666666666666
EXTRACT: note_on channel=3 note=65 velocity=0 time=0
EXTRACT: note_on channel=9 note=54 velocity=0 time=0.06666666666666667
EXTRACT: note_on channel=8 note=77 velocity=0 time=0
EXTRACT: note_on channel=9 note=54 velocity=71 time=0.16666666666666666
EXTRACT: note_on channel=8 note=77 velocity=114 time=0
EXTRACT: note_on channel=1 note=39 velocity=0 time=0.03333333333333333
EXTRACT: note_on channel=9 note=54 velocity=0 time=0.06666666666666667
EXTRACT: note_on channel=8 note=77 velocity=0 time=0.016666666666666666
EXTRACT: note_on channel=9 note=40 velocity=71 time=0.05
EXTRACT: note_on channel=9 note=54 velocity=64 time=0
EXTRACT: note_on channel=9 note=42 velocity=71 time=0
EXTRACT: note_on channel=9 note=44 velocity=64 time=0
EXTRACT: note_on channel=9 note=36 velocity=71 time=0
EXTRACT: note_on channel=9 note=38 velocity=71 time=0
EXTRACT: note_on channel=1 note=39 velocity=114 time=0
EXTRACT: note_on channel=8 note=75 velocity=114 time=0
EXTRACT: note_on channel=9 note=40 velocity=0 time=0.1
EXTRACT: note_on channel=9 note=36 velocity=0 time=0
EXTRACT: note_on channel=9 note=42 velocity=0 time=0
EXTRACT: note_on channel=9 note=38 velocity=0 time=0
EXTRACT: note_on channel=9 note=54 velocity=0 time=0.016666666666666666
EXTRACT: note_on channel=9 note=44 velocity=0 time=0
EXTRACT: note_on channel=8 note=75 velocity=0 time=0.05
EXTRACT: note_on channel=9 note=54 velocity=71 time=0.16666666666666666
EXTRACT: note_on channel=9 note=44 velocity=71 time=0
EXTRACT: note_on channel=8 note=75 velocity=114 time=0
EXTRACT: note_on channel=1 note=39 velocity=0 time=0.03333333333333333
EXTRACT: note_on channel=9 note=54 velocity=0 time=0.06666666666666667
EXTRACT: note_on channel=9 note=44 velocity=0 time=0
EXTRACT: note_on channel=8 note=75 velocity=0 time=0.016666666666666666
EXTRACT: note_on channel=9 note=36 velocity=114 time=0.05
EXTRACT: note_on channel=9 note=54 velocity=91 time=0
EXTRACT: note_on channel=1 note=39 velocity=114 time=0
EXTRACT: note_on channel=8 note=73 velocity=114 time=0
EXTRACT: note_on channel=9 note=36 velocity=0 time=0.08333333333333333
EXTRACT: note_on channel=9 note=54 velocity=0 time=0.08333333333333333
EXTRACT: note_on channel=8 note=73 velocity=0 time=0
EXTRACT: note_on channel=9 note=54 velocity=71 time=0.16666666666666666
EXTRACT: note_on channel=8 note=75 velocity=114 time=0
EXTRACT: note_on channel=1 note=39 velocity=0 time=0.03333333333333333
EXTRACT: note_on channel=9 note=54 velocity=0 time=0.06666666666666667
EXTRACT: note_on channel=9 note=40 velocity=71 time=0.06666666666666667
EXTRACT: note_on channel=9 note=36 velocity=71 time=0
EXTRACT: note_on channel=9 note=54 velocity=64 time=0
EXTRACT: note_on channel=9 note=38 velocity=71 time=0
EXTRACT: note_on channel=9 note=44 velocity=64 time=0
EXTRACT: note_on channel=9 note=42 velocity=71 time=0
EXTRACT: note_on channel=1 note=39 velocity=114 time=0
EXTRACT: note_on channel=3 note=80 velocity=75 time=0
EXTRACT: note_on channel=3 note=68 velocity=75 time=0
EXTRACT: note_on channel=8 note=75 velocity=0 time=0.06666666666666667
EXTRACT: note_on channel=9 note=40 velocity=0 time=0.03333333333333333
EXTRACT: note_on channel=9 note=36 velocity=0 time=0
EXTRACT: note_on channel=9 note=42 velocity=0 time=0
EXTRACT: note_on channel=9 note=38 velocity=0 time=0
EXTRACT: note_on channel=9 note=44 velocity=0 time=0.016666666666666666
EXTRACT: note_on channel=9 note=54 velocity=0 time=0
EXTRACT: note_on channel=3 note=80 velocity=0 time=0.11666666666666667
EXTRACT: note_on channel=3 note=68 velocity=0 time=0
EXTRACT: note_on channel=9 note=54 velocity=64 time=0.1
EXTRACT: note_on channel=9 note=42 velocity=71 time=0
EXTRACT: note_on channel=3 note=65 velocity=75 time=0
EXTRACT: note_on channel=3 note=77 velocity=75 time=0
EXTRACT: note_on channel=8 note=73 velocity=114 time=0
EXTRACT: note_on channel=1 note=39 velocity=0 time=0.03333333333333333
EXTRACT: note_on channel=2 note=66 velocity=0 time=0.05
EXTRACT: note_on channel=6 note=66 velocity=0 time=0
EXTRACT: note_on channel=9 note=54 velocity=0 time=0.016666666666666666
EXTRACT: note_on channel=9 note=42 velocity=0 time=0
EXTRACT: note_on channel=2 note=58 velocity=0 time=0
EXTRACT: note_on channel=2 note=63 velocity=0 time=0
EXTRACT: note_on channel=6 note=58 velocity=0 time=0
EXTRACT: note_on channel=6 note=63 velocity=0 time=0
EXTRACT: note_on channel=8 note=73 velocity=0 time=0.03333333333333333
EXTRACT: note_on channel=2 note=61 velocity=0 time=0.016666666666666666
EXTRACT: note_on channel=6 note=61 velocity=0 time=0
EXTRACT: note_on channel=9 note=36 velocity=114 time=0.016666666666666666
EXTRACT: note_on channel=9 note=54 velocity=91 time=0
EXTRACT: note_on channel=1 note=44 velocity=114 time=0
EXTRACT: note_on channel=2 note=63 velocity=75 time=0
EXTRACT: note_on channel=2 note=68 velocity=75 time=0
EXTRACT: note_on channel=2 note=56 velocity=75 time=0
EXTRACT: note_on channel=6 note=56 velocity=75 time=0
EXTRACT: note_on channel=6 note=63 velocity=75 time=0
EXTRACT: note_on channel=6 note=68 velocity=75 time=0
EXTRACT: note_on channel=8 note=77 velocity=114 time=0
EXTRACT: note_on channel=3 note=77 velocity=0 time=0.06666666666666667
EXTRACT: note_on channel=3 note=65 velocity=0 time=0
EXTRACT: note_on channel=9 note=36 velocity=0 time=0.016666666666666666
EXTRACT: note_on channel=9 note=54 velocity=0 time=0.08333333333333333
EXTRACT: note_on channel=8 note=77 velocity=0 time=0.05
EXTRACT: note_on channel=9 note=54 velocity=71 time=0.11666666666666667
EXTRACT: note_on channel=8 note=77 velocity=114 time=0
EXTRACT: note_on channel=1 note=44 velocity=0 time=0.03333333333333333
EXTRACT: note_on channel=9 note=54 velocity=0 time=0.06666666666666667
EXTRACT: note_on channel=8 note=77 velocity=0 time=0.016666666666666666
EXTRACT: note_on channel=9 note=44 velocity=64 time=0.05
EXTRACT: note_on channel=9 note=42 velocity=71 time=0
EXTRACT: note_on channel=9 note=38 velocity=71 time=0
EXTRACT: note_on channel=9 note=40 velocity=71 time=0
EXTRACT: note_on channel=9 note=36 velocity=71 time=0
EXTRACT: note_on channel=9 note=54 velocity=64 time=0
EXTRACT: note_on channel=1 note=44 velocity=114 time=0
EXTRACT: note_on channel=8 note=75 velocity=114 time=0
EXTRACT: note_on channel=9 note=38 velocity=0 time=0.1
EXTRACT: note_on channel=9 note=36 velocity=0 time=0
EXTRACT: note_on channel=9 note=40 velocity=0 time=0
EXTRACT: note_on channel=9 note=42 velocity=0 time=0
EXTRACT: note_on channel=9 note=44 velocity=0 time=0.016666666666666666
EXTRACT: note_on channel=9 note=54 velocity=0 time=0
EXTRACT: note_on channel=8 note=75 velocity=0 time=0
EXTRACT: note_on channel=9 note=54 velocity=71 time=0.21666666666666667
EXTRACT: note_on channel=9 note=44 velocity=71 time=0
EXTRACT: note_on channel=8 note=75 velocity=114 time=0
EXTRACT: note_on channel=1 note=44 velocity=0 time=0.03333333333333333
EXTRACT: note_on channel=9 note=54 velocity=0 time=0.06666666666666667
EXTRACT: note_on channel=9 note=44 velocity=0 time=0
EXTRACT: note_on channel=8 note=75 velocity=0 time=0.016666666666666666
EXTRACT: note_on channel=9 note=36 velocity=114 time=0.05
EXTRACT: note_on channel=9 note=54 velocity=91 time=0
EXTRACT: note_on channel=1 note=44 velocity=114 time=0
EXTRACT: note_on channel=8 note=73 velocity=114 time=0
EXTRACT: note_on channel=9 note=36 velocity=0 time=0.08333333333333333
EXTRACT: note_on channel=8 note=73 velocity=0 time=0.03333333333333333
EXTRACT: note_on channel=9 note=54 velocity=0 time=0.05
EXTRACT: note_on channel=8 note=75 velocity=114 time=0
EXTRACT: note_on channel=8 note=75 velocity=0 time=0.11666666666666667
EXTRACT: note_on channel=9 note=54 velocity=71 time=0.05
EXTRACT: note_on channel=8 note=73 velocity=114 time=0
EXTRACT: note_on channel=1 note=44 velocity=0 time=0.03333333333333333
EXTRACT: note_on channel=9 note=54 velocity=0 time=0.06666666666666667
EXTRACT: note_on channel=8 note=73 velocity=0 time=0.016666666666666666
EXTRACT: note_on channel=9 note=40 velocity=71 time=0.05
EXTRACT: note_on channel=9 note=42 velocity=71 time=0
EXTRACT: note_on channel=9 note=54 velocity=64 time=0
EXTRACT: note_on channel=9 note=38 velocity=71 time=0
EXTRACT: note_on channel=9 note=36 velocity=71 time=0
EXTRACT: note_on channel=9 note=44 velocity=64 time=0
EXTRACT: note_on channel=1 note=44 velocity=114 time=0
EXTRACT: note_on channel=8 note=77 velocity=114 time=0
EXTRACT: note_on channel=9 note=36 velocity=0 time=0.1
EXTRACT: note_on channel=9 note=42 velocity=0 time=0
EXTRACT: note_on channel=9 note=40 velocity=0 time=0
EXTRACT: note_on channel=9 note=38 velocity=0 time=0
EXTRACT: note_on channel=9 note=44 velocity=0 time=0.016666666666666666
EXTRACT: note_on channel=9 note=54 velocity=0 time=0
EXTRACT: note_on channel=8 note=77 velocity=0 time=0.11666666666666667
EXTRACT: note_on channel=9 note=54 velocity=71 time=0.1
EXTRACT: note_on channel=9 note=44 velocity=71 time=0
EXTRACT: note_on channel=8 note=75 velocity=114 time=0
EXTRACT: note_on channel=1 note=44 velocity=0 time=0.03333333333333333
EXTRACT: note_on channel=2 note=68 velocity=0 time=0.05
EXTRACT: note_on channel=6 note=68 velocity=0 time=0
EXTRACT: note_on channel=9 note=54 velocity=0 time=0.016666666666666666
EXTRACT: note_on channel=9 note=44 velocity=0 time=0
EXTRACT: note_on channel=2 note=63 velocity=0 time=0.016666666666666666
EXTRACT: note_on channel=6 note=63 velocity=0 time=0
EXTRACT: note_on channel=2 note=56 velocity=0 time=0.016666666666666666
EXTRACT: note_on channel=6 note=56 velocity=0 time=0
EXTRACT: note_on channel=9 note=36 velocity=114 time=0.03333333333333333
EXTRACT: note_on channel=9 note=54 velocity=91 time=0
EXTRACT: note_on channel=1 note=44 velocity=114 time=0
EXTRACT: note_on channel=2 note=63 velocity=75 time=0
EXTRACT: note_on channel=2 note=60 velocity=75 time=0
EXTRACT: note_on channel=2 note=68 velocity=75 time=0
EXTRACT: note_on channel=2 note=56 velocity=75 time=0
EXTRACT: note_on channel=6 note=68 velocity=75 time=0
EXTRACT: note_on channel=6 note=56 velocity=75 time=0
EXTRACT: note_on channel=6 note=60 velocity=75 time=0
EXTRACT: note_on channel=6 note=63 velocity=75 time=0
EXTRACT: note_on channel=9 note=36 velocity=0 time=0.08333333333333333
EXTRACT: note_on channel=9 note=54 velocity=0 time=0.08333333333333333
EXTRACT: note_on channel=8 note=75 velocity=0 time=0
EXTRACT: note_on channel=9 note=54 velocity=71 time=0.16666666666666666
EXTRACT: note_on channel=1 note=44 velocity=0 time=0.03333333333333333
EXTRACT: note_on channel=9 note=54 velocity=0 time=0.06666666666666667
EXTRACT: note_on channel=9 note=54 velocity=64 time=0.06666666666666667
EXTRACT: note_on channel=9 note=38 velocity=71 time=0
EXTRACT: note_on channel=9 note=40 velocity=71 time=0
EXTRACT: note_on channel=9 note=44 velocity=64 time=0
EXTRACT: note_on channel=9 note=36 velocity=71 time=0
EXTRACT: note_on channel=9 note=42 velocity=71 time=0
EXTRACT: note_on channel=1 note=44 velocity=114 time=0
EXTRACT: note_on channel=9 note=42 velocity=0 time=0.1
EXTRACT: note_on channel=9 note=40 velocity=0 time=0
EXTRACT: note_on channel=9 note=36 velocity=0 time=0
EXTRACT: note_on channel=9 note=38 velocity=0 time=0
EXTRACT: note_on channel=9 note=54 velocity=0 time=0.016666666666666666
EXTRACT: note_on channel=9 note=44 velocity=0 time=0
EXTRACT: note_on channel=9 note=44 velocity=71 time=0.21666666666666667
EXTRACT: note_on channel=9 note=54 velocity=71 time=0
EXTRACT: note_on channel=8 note=73 velocity=114 time=0
EXTRACT: note_on channel=1 note=44 velocity=0 time=0.03333333333333333
EXTRACT: note_on channel=9 note=44 velocity=0 time=0.06666666666666667
EXTRACT: note_on channel=9 note=54 velocity=0 time=0
EXTRACT: note_on channel=8 note=73 velocity=0 time=0.016666666666666666
EXTRACT: note_on channel=9 note=36 velocity=114 time=0.05
EXTRACT: note_on channel=9 note=54 velocity=91 time=0
EXTRACT: note_on channel=1 note=44 velocity=114 time=0
EXTRACT: note_on channel=8 note=73 velocity=114 time=0
EXTRACT: note_on channel=9 note=36 velocity=0 time=0.08333333333333333
EXTRACT: note_on channel=9 note=54 velocity=0 time=0.08333333333333333
EXTRACT: note_on channel=8 note=73 velocity=0 time=0
EXTRACT: note_on channel=9 note=54 velocity=71 time=0.16666666666666666
EXTRACT: note_on channel=8 note=75 velocity=114 time=0
EXTRACT: note_on channel=1 note=44 velocity=0 time=0.03333333333333333
EXTRACT: note_on channel=9 note=54 velocity=0 time=0.06666666666666667
EXTRACT: note_on channel=8 note=75 velocity=0 time=0.016666666666666666
EXTRACT: note_on channel=9 note=44 velocity=64 time=0.05
EXTRACT: note_on channel=9 note=38 velocity=71 time=0
EXTRACT: note_on channel=9 note=40 velocity=71 time=0
EXTRACT: note_on channel=9 note=42 velocity=71 time=0
EXTRACT: note_on channel=9 note=36 velocity=71 time=0
EXTRACT: note_on channel=9 note=54 velocity=64 time=0
EXTRACT: note_on channel=1 note=44 velocity=114 time=0
EXTRACT: note_on channel=8 note=77 velocity=114 time=0
EXTRACT: note_on channel=9 note=36 velocity=0 time=0.1
EXTRACT: note_on channel=9 note=42 velocity=0 time=0
EXTRACT: note_on channel=9 note=40 velocity=0 time=0
EXTRACT: note_on channel=9 note=38 velocity=0 time=0
EXTRACT: note_on channel=9 note=44 velocity=0 time=0.016666666666666666
EXTRACT: note_on channel=9 note=54 velocity=0 time=0
EXTRACT: note_on channel=8 note=77 velocity=0 time=0
EXTRACT: note_on channel=9 note=42 velocity=71 time=0.21666666666666667
EXTRACT: note_on channel=9 note=54 velocity=64 time=0
EXTRACT: note_on channel=8 note=77 velocity=114 time=0
EXTRACT: note_on channel=1 note=44 velocity=0 time=0.03333333333333333
EXTRACT: note_on channel=9 note=54 velocity=0 time=0.06666666666666667
EXTRACT: note_on channel=9 note=42 velocity=0 time=0
EXTRACT: note_on channel=2 note=60 velocity=0 time=0.05
EXTRACT: note_on channel=2 note=63 velocity=0 time=0
EXTRACT: note_on channel=2 note=56 velocity=0 time=0
EXTRACT: note_on channel=2 note=68 velocity=0 time=0
EXTRACT: note_on channel=6 note=68 velocity=0 time=0
EXTRACT: note_on channel=6 note=63 velocity=0 time=0
EXTRACT: note_on channel=6 note=60 velocity=0 time=0
EXTRACT: note_on channel=6 note=56 velocity=0 time=0
EXTRACT: note_on channel=9 note=55 velocity=91 time=0.016666666666666666
EXTRACT: note_on channel=9 note=54 velocity=91 time=0
EXTRACT: note_on channel=9 note=36 velocity=114 time=0
EXTRACT: note_on channel=1 note=37 velocity=114 time=0
EXTRACT: note_on channel=2 note=65 velocity=75 time=0
EXTRACT: note_on channel=2 note=73 velocity=75 time=0
EXTRACT: note_on channel=2 note=68 velocity=75 time=0
EXTRACT: note_on channel=2 note=61 velocity=75 time=0
EXTRACT: note_on channel=3 note=61 velocity=75 time=0
EXTRACT: note_on channel=3 note=65 velocity=75 time=0
EXTRACT: note_on channel=3 note=73 velocity=75 time=0
EXTRACT: note_on channel=6 note=73 velocity=75 time=0
EXTRACT: note_on channel=6 note=68 velocity=75 time=0
EXTRACT: note_on channel=6 note=65 velocity=75 time=0
EXTRACT: note_on channel=6 note=61 velocity=75 time=0
EXTRACT: note_on channel=9 note=36 velocity=0 time=0.08333333333333333
EXTRACT: note_on channel=8 note=77 velocity=0 time=0.06666666666666667
EXTRACT: note_on channel=9 note=54 velocity=0 time=0.016666666666666666
EXTRACT: note_on channel=9 note=54 velocity=71 time=0.16666666666666666
EXTRACT: note_on channel=1 note=37 velocity=0 time=0
EXTRACT: note_on channel=9 note=54 velocity=0 time=0.1
EXTRACT: note_on channel=9 note=42 velocity=71 time=0.06666666666666667
EXTRACT: note_on channel=9 note=38 velocity=71 time=0
EXTRACT: note_on channel=9 note=44 velocity=64 time=0
EXTRACT: note_on channel=9 note=54 velocity=64 time=0
EXTRACT: note_on channel=9 note=40 velocity=71 time=0
EXTRACT: note_on channel=9 note=36 velocity=71 time=0
EXTRACT: note_on channel=1 note=37 velocity=114 time=0
EXTRACT: note_on channel=5 note=65 velocity=84 time=0
EXTRACT: note_on channel=3 note=61 velocity=0 time=0.06666666666666667
EXTRACT: note_on channel=9 note=38 velocity=0 time=0.03333333333333333
EXTRACT: note_on channel=9 note=36 velocity=0 time=0
EXTRACT: note_on channel=9 note=42 velocity=0 time=0
EXTRACT: note_on channel=9 note=40 velocity=0 time=0
EXTRACT: note_on channel=3 note=65 velocity=0 time=0
EXTRACT: note_on channel=3 note=73 velocity=0 time=0
EXTRACT: note_on channel=9 note=54 velocity=0 time=0.016666666666666666
EXTRACT: note_on channel=9 note=44 velocity=0 time=0
EXTRACT: note_on channel=5 note=65 velocity=0 time=0.15
EXTRACT: note_on channel=9 note=44 velocity=71 time=0.06666666666666667
EXTRACT: note_on channel=9 note=54 velocity=71 time=0
EXTRACT: note_on channel=1 note=37 velocity=0 time=0
EXTRACT: note_on channel=9 note=54 velocity=0 time=0.1
EXTRACT: note_on channel=9 note=44 velocity=0 time=0
EXTRACT: note_on channel=9 note=55 velocity=0 time=0.016666666666666666
EXTRACT: note_on channel=9 note=36 velocity=114 time=0.05
EXTRACT: note_on channel=9 note=54 velocity=91 time=0
EXTRACT: note_on channel=1 note=37 velocity=114 time=0
EXTRACT: note_on channel=5 note=68 velocity=83 time=0
EXTRACT: note_on channel=9 note=36 velocity=0 time=0.08333333333333333
EXTRACT: note_on channel=9 note=54 velocity=0 time=0.08333333333333333
EXTRACT: note_on channel=9 note=54 velocity=71 time=0.16666666666666666
EXTRACT: note_on channel=1 note=37 velocity=0 time=0
EXTRACT: note_on channel=9 note=54 velocity=0 time=0.1
EXTRACT: note_on channel=9 note=42 velocity=71 time=0.06666666666666667
EXTRACT: note_on channel=9 note=44 velocity=64 time=0
EXTRACT: note_on channel=9 note=38 velocity=71 time=0
EXTRACT: note_on channel=9 note=40 velocity=71 time=0
EXTRACT: note_on channel=9 note=36 velocity=71 time=0
EXTRACT: note_on channel=9 note=54 velocity=64 time=0
EXTRACT: note_on channel=1 note=37 velocity=114 time=0
EXTRACT: note_on channel=9 note=36 velocity=0 time=0.1
EXTRACT: note_on channel=9 note=40 velocity=0 time=0
EXTRACT: note_on channel=9 note=38 velocity=0 time=0
EXTRACT: note_on channel=9 note=42 velocity=0 time=0
EXTRACT: note_on channel=9 note=54 velocity=0 time=0.016666666666666666
EXTRACT: note_on channel=9 note=44 velocity=0 time=0
EXTRACT: control_change channel=5 control=7 value=82 time=0.18333333333333332
EXTRACT: note_on channel=9 note=54 velocity=71 time=0.03333333333333333
EXTRACT: note_on channel=9 note=44 velocity=71 time=0
EXTRACT: note_on channel=1 note=37 velocity=0 time=0
EXTRACT: control_change channel=5 control=7 value=81 time=0
EXTRACT: note_on channel=8 note=73 velocity=114 time=0
EXTRACT: control_change channel=5 control=7 value=79 time=0.03333333333333333
EXTRACT: note_on channel=2 note=61 velocity=0 time=0.03333333333333333
EXTRACT: control_change channel=5 control=7 value=76 time=0
EXTRACT: note_on channel=6 note=61 velocity=0 time=0
EXTRACT: note_on channel=2 note=65 velocity=0 time=0.016666666666666666
EXTRACT: note_on channel=2 note=73 velocity=0 time=0
EXTRACT: note_on channel=6 note=73 velocity=0 time=0
EXTRACT: note_on channel=6 note=65 velocity=0 time=0
EXTRACT: note_on channel=9 note=54 velocity=0 time=0.016666666666666666
EXTRACT: note_on channel=9 note=44 velocity=0 time=0
EXTRACT: note_on channel=2 note=68 velocity=0 time=0
EXTRACT: control_change channel=5 control=7 value=75 time=0
EXTRACT: note_on channel=6 note=68 velocity=0 time=0
EXTRACT: control_change channel=5 control=7 value=74 time=0.03333333333333333
EXTRACT: note_on channel=8 note=73 velocity=0 time=0
EXTRACT: note_on channel=9 note=36 velocity=114 time=0.03333333333333333
EXTRACT: note_on channel=9 note=54 velocity=91 time=0
EXTRACT: note_on channel=1 note=36 velocity=114 time=0
EXTRACT: note_on channel=2 note=68 velocity=75 time=0
EXTRACT: note_on channel=2 note=65 velocity=75 time=0
EXTRACT: note_on channel=2 note=60 velocity=75 time=0
EXTRACT: note_on channel=2 note=72 velocity=75 time=0
EXTRACT: control_change channel=5 control=7 value=71 time=0
EXTRACT: note_on channel=6 note=72 velocity=75 time=0
EXTRACT: note_on channel=6 note=65 velocity=75 time=0
EXTRACT: note_on channel=6 note=68 velocity=75 time=0
EXTRACT: note_on channel=6 note=60 velocity=75 time=0
EXTRACT: note_on channel=8 note=77 velocity=114 time=0
EXTRACT: control_change channel=5 control=7 value=68 time=0.06666666666666667
EXTRACT: note_on channel=9 note=36 velocity=0 time=0.016666666666666666
EXTRACT: control_change channel=5 control=7 value=66 time=0.016666666666666666
EXTRACT: control_change channel=5 control=7 value=65 time=0.03333333333333333
EXTRACT: note_on channel=8 note=77 velocity=0 time=0
EXTRACT: note_on channel=9 note=54 velocity=0 time=0.03333333333333333
EXTRACT: control_change channel=5 control=7 value=64 time=0
EXTRACT: control_change channel=5 control=7 value=62 time=0.03333333333333333
EXTRACT: control_change channel=5 control=7 value=61 time=0.03333333333333333
EXTRACT: control_change channel=5 control=7 value=59 time=0.03333333333333333
EXTRACT: note_on channel=9 note=54 velocity=71 time=0.06666666666666667
EXTRACT: control_change channel=5 control=7 value=58 time=0
EXTRACT: note_on channel=8 note=77 velocity=114 time=0
EXTRACT: note_on channel=1 note=36 velocity=0 time=0.03333333333333333
EXTRACT: control_change channel=5 control=7 value=56 time=0.03333333333333333
EXTRACT: note_on channel=9 note=54 velocity=0 time=0.03333333333333333
EXTRACT: control_change channel=5 control=7 value=53 time=0.03333333333333333
EXTRACT: note_on channel=8 note=77 velocity=0 time=0
EXTRACT: note_on channel=9 note=44 velocity=64 time=0.03333333333333333
EXTRACT: note_on channel=9 note=36 velocity=71 time=0
EXTRACT: note_on channel=9 note=38 velocity=71 time=0
EXTRACT: note_on channel=9 note=42 velocity=71 time=0
EXTRACT: note_on channel=9 note=54 velocity=64 time=0
EXTRACT: note_on channel=9 note=40 velocity=71 time=0
EXTRACT: note_on channel=1 note=36 velocity=114 time=0
EXTRACT: control_change channel=5 control=7 value=55 time=0
EXTRACT: note_on channel=8 note=75 velocity=114 time=0
EXTRACT: control_change channel=5 control=7 value=53 time=0.03333333333333333
EXTRACT: control_change channel=5 control=7 value=51 time=0.03333333333333333
EXTRACT: note_on channel=9 note=36 velocity=0 time=0.03333333333333333
EXTRACT: note_on channel=9 note=40 velocity=0 time=0
EXTRACT: note_on channel=9 note=42 velocity=0 time=0
EXTRACT: note_on channel=9 note=38 velocity=0 time=0
EXTRACT: control_change channel=5 control=7 value=49 time=0
EXTRACT: note_on channel=9 note=54 velocity=0 time=0.016666666666666666
EXTRACT: note_on channel=9 note=44 velocity=0 time=0
EXTRACT: note_on channel=8 note=75 velocity=0 time=0.016666666666666666
EXTRACT: control_change channel=5 control=7 value=46 time=0.03333333333333333
EXTRACT: control_change channel=5 control=7 value=45 time=0.06666666666666667
EXTRACT: control_change channel=5 control=7 value=43 time=0.03333333333333333
EXTRACT: control_change channel=5 control=7 value=42 time=0.03333333333333333
EXTRACT: note_on channel=9 note=44 velocity=71 time=0.03333333333333333
EXTRACT: note_on channel=9 note=54 velocity=71 time=0
EXTRACT: note_on channel=8 note=75 velocity=114 time=0
EXTRACT: note_on channel=1 note=36 velocity=0 time=0.03333333333333333
EXTRACT: control_change channel=5 control=7 value=40 time=0
EXTRACT: control_change channel=5 control=7 value=36 time=0.03333333333333333
EXTRACT: note_on channel=9 note=54 velocity=0 time=0.03333333333333333
EXTRACT: note_on channel=9 note=44 velocity=0 time=0
EXTRACT: control_change channel=5 control=7 value=33 time=0.03333333333333333
EXTRACT: note_on channel=5 note=68 velocity=0 time=0
EXTRACT: note_on channel=8 note=75 velocity=0 time=0
EXTRACT: note_on channel=9 note=54 velocity=91 time=0.03333333333333333
EXTRACT: note_on channel=9 note=36 velocity=114 time=0
EXTRACT: note_on channel=1 note=36 velocity=114 time=0
EXTRACT: note_on channel=8 note=73 velocity=114 time=0
EXTRACT: control_change channel=5 control=7 value=30 time=0.03333333333333333
EXTRACT: control_change channel=5 control=7 value=29 time=0.03333333333333333
EXTRACT: note_on channel=9 note=36 velocity=0 time=0.016666666666666666
EXTRACT: control_change channel=5 control=7 value=27 time=0.016666666666666666
EXTRACT: control_change channel=5 control=7 value=25 time=0.03333333333333333
EXTRACT: note_on channel=8 note=73 velocity=0 time=0
EXTRACT: note_on channel=9 note=54 velocity=0 time=0.03333333333333333
EXTRACT: control_change channel=5 control=7 value=23 time=0.03333333333333333
EXTRACT: control_change channel=5 control=7 value=22 time=0.06666666666666667
EXTRACT: control_change channel=5 control=7 value=19 time=0.03333333333333333
EXTRACT: note_on channel=9 note=54 velocity=71 time=0.03333333333333333
EXTRACT: note_on channel=8 note=75 velocity=114 time=0
EXTRACT: note_on channel=1 note=36 velocity=0 time=0.03333333333333333
EXTRACT: control_change channel=5 control=7 value=16 time=0
EXTRACT: control_change channel=5 control=7 value=14 time=0.03333333333333333
EXTRACT: note_on channel=9 note=54 velocity=0 time=0.03333333333333333
EXTRACT: control_change channel=5 control=7 value=13 time=0
EXTRACT: control_change channel=5 control=7 value=12 time=0.03333333333333333
EXTRACT: note_on channel=9 note=54 velocity=64 time=0.03333333333333333
EXTRACT: note_on channel=9 note=44 velocity=64 time=0
EXTRACT: note_on channel=9 note=42 velocity=71 time=0
EXTRACT: note_on channel=9 note=40 velocity=71 time=0
EXTRACT: note_on channel=9 note=36 velocity=71 time=0
EXTRACT: note_on channel=9 note=38 velocity=71 time=0
EXTRACT: note_on channel=1 note=36 velocity=114 time=0
EXTRACT: control_change channel=5 control=7 value=85 time=0.03333333333333333
EXTRACT: note_on channel=9 note=40 velocity=0 time=0.06666666666666667
EXTRACT: note_on channel=9 note=42 velocity=0 time=0
EXTRACT: note_on channel=9 note=38 velocity=0 time=0
EXTRACT: note_on channel=9 note=36 velocity=0 time=0
EXTRACT: note_on channel=9 note=54 velocity=0 time=0.016666666666666666
EXTRACT: note_on channel=9 note=44 velocity=0 time=0
EXTRACT: note_on channel=8 note=75 velocity=0 time=0.03333333333333333
EXTRACT: note_on channel=9 note=54 velocity=64 time=0.18333333333333332
EXTRACT: note_on channel=9 note=42 velocity=64 time=0
EXTRACT: note_on channel=8 note=77 velocity=114 time=0
EXTRACT: note_on channel=1 note=36 velocity=0 time=0.03333333333333333
EXTRACT: note_on channel=9 note=54 velocity=0 time=0.06666666666666667
EXTRACT: note_on channel=9 note=42 velocity=0 time=0.016666666666666666
EXTRACT: note_on channel=2 note=72 velocity=0 time=0.016666666666666666
EXTRACT: note_on channel=2 note=60 velocity=0 time=0
EXTRACT: note_on channel=2 note=65 velocity=0 time=0
EXTRACT: note_on channel=2 note=68 velocity=0 time=0
EXTRACT: note_on channel=6 note=72 velocity=0 time=0
EXTRACT: note_on channel=6 note=60 velocity=0 time=0
EXTRACT: note_on channel=6 note=68 velocity=0 time=0
EXTRACT: note_on channel=6 note=65 velocity=0 time=0
EXTRACT: note_on channel=9 note=36 velocity=114 time=0.03333333333333333
EXTRACT: note_on channel=9 note=54 velocity=91 time=0
EXTRACT: note_on channel=1 note=34 velocity=114 time=0
EXTRACT: note_on channel=2 note=65 velocity=75 time=0
EXTRACT: note_on channel=2 note=61 velocity=75 time=0
EXTRACT: note_on channel=2 note=70 velocity=75 time=0
EXTRACT: note_on channel=2 note=58 velocity=75 time=0
EXTRACT: note_on channel=6 note=65 velocity=75 time=0
EXTRACT: note_on channel=6 note=61 velocity=75 time=0
EXTRACT: note_on channel=6 note=58 velocity=75 time=0
EXTRACT: note_on channel=6 note=70 velocity=75 time=0
EXTRACT: note_on channel=9 note=36 velocity=0 time=0.08333333333333333
EXTRACT: note_on channel=9 note=54 velocity=0 time=0.08333333333333333
EXTRACT: note_on channel=8 note=77 velocity=0 time=0.03333333333333333
EXTRACT: note_on channel=9 note=54 velocity=71 time=0.13333333333333333
EXTRACT: note_on channel=1 note=34 velocity=0 time=0.03333333333333333
EXTRACT: note_on channel=9 note=54 velocity=0 time=0.06666666666666667
EXTRACT: note_on channel=9 note=44 velocity=64 time=0.06666666666666667
EXTRACT: note_on channel=9 note=36 velocity=71 time=0
EXTRACT: note_on channel=9 note=42 velocity=71 time=0
EXTRACT: note_on channel=9 note=54 velocity=64 time=0
EXTRACT: note_on channel=9 note=40 velocity=71 time=0
EXTRACT: note_on channel=9 note=38 velocity=71 time=0
EXTRACT: note_on channel=1 note=34 velocity=114 time=0
EXTRACT: note_on channel=5 note=68 velocity=83 time=0
EXTRACT: note_on channel=9 note=38 velocity=0 time=0.1
EXTRACT: note_on channel=9 note=42 velocity=0 time=0
EXTRACT: note_on channel=9 note=40 velocity=0 time=0
EXTRACT: note_on channel=9 note=36 velocity=0 time=0
EXTRACT: note_on channel=9 note=54 velocity=0 time=0.016666666666666666
EXTRACT: note_on channel=9 note=44 velocity=0 time=0
EXTRACT: control_change channel=5 control=7 value=84 time=0.15
EXTRACT: note_on channel=9 note=44 velocity=71 time=0.06666666666666667
EXTRACT: note_on channel=9 note=54 velocity=71 time=0
EXTRACT: note_on channel=1 note=34 velocity=0 time=0.03333333333333333
EXTRACT: note_on channel=5 note=68 velocity=0 time=0.05
EXTRACT: note_on channel=9 note=54 velocity=0 time=0.016666666666666666
EXTRACT: note_on channel=9 note=44 velocity=0 time=0
EXTRACT: note_on channel=9 note=54 velocity=91 time=0.06666666666666667
EXTRACT: note_on channel=9 note=36 velocity=114 time=0
EXTRACT: note_on channel=1 note=34 velocity=114 time=0
EXTRACT: note_on channel=5 note=65 velocity=83 time=0
EXTRACT: note_on channel=9 note=36 velocity=0 time=0.08333333333333333
EXTRACT: note_on channel=9 note=54 velocity=0 time=0.08333333333333333
EXTRACT: note_on channel=9 note=54 velocity=71 time=0.16666666666666666
EXTRACT: note_on channel=1 note=34 velocity=0 time=0.03333333333333333
EXTRACT: note_on channel=9 note=54 velocity=0 time=0.06666666666666667
EXTRACT: note_on channel=5 note=65 velocity=0 time=0
EXTRACT: control_change channel=5 control=7 value=85 time=0
EXTRACT: note_on channel=9 note=36 velocity=71 time=0.06666666666666667
EXTRACT: note_on channel=9 note=54 velocity=64 time=0
EXTRACT: note_on channel=9 note=40 velocity=71 time=0
EXTRACT: note_on channel=9 note=44 velocity=64 time=0
EXTRACT: note_on channel=9 note=38 velocity=71 time=0
EXTRACT: note_on channel=9 note=42 velocity=71 time=0
EXTRACT: note_on channel=1 note=34 velocity=114 time=0
EXTRACT: note_on channel=5 note=63 velocity=83 time=0
EXTRACT: note_on channel=9 note=36 velocity=0 time=0.1
EXTRACT: note_on channel=9 note=40 velocity=0 time=0
EXTRACT: note_on channel=9 note=42 velocity=0 time=0
EXTRACT: note_on channel=9 note=38 velocity=0 time=0
EXTRACT: note_on channel=9 note=54 velocity=0 time=0.016666666666666666
EXTRACT: note_on channel=9 note=44 velocity=0 time=0
EXTRACT: note_on channel=9 note=54 velocity=71 time=0.21666666666666667
EXTRACT: note_on channel=9 note=44 velocity=71 time=0
EXTRACT: note_on channel=8 note=75 velocity=114 time=0
EXTRACT: note_on channel=1 note=34 velocity=0 time=0.03333333333333333
EXTRACT: note_on channel=2 note=65 velocity=0 time=0.03333333333333333
EXTRACT: note_on channel=6 note=65 velocity=0 time=0
EXTRACT: note_on channel=2 note=61 velocity=0 time=0.016666666666666666
EXTRACT: note_on channel=2 note=58 velocity=0 time=0
EXTRACT: note_on channel=2 note=70 velocity=0 time=0
EXTRACT: note_on channel=6 note=70 velocity=0 time=0
EXTRACT: note_on channel=6 note=58 velocity=0 time=0
EXTRACT: note_on channel=6 note=61 velocity=0 time=0
EXTRACT: note_on channel=9 note=54 velocity=0 time=0.016666666666666666
EXTRACT: note_on channel=9 note=44 velocity=0 time=0
EXTRACT: note_on channel=5 note=63 velocity=0 time=0.03333333333333333
EXTRACT: note_on channel=8 note=75 velocity=0 time=0
EXTRACT: note_on channel=9 note=36 velocity=114 time=0.03333333333333333
EXTRACT: note_on channel=9 note=54 velocity=91 time=0
EXTRACT: note_on channel=1 note=29 velocity=114 time=0
EXTRACT: note_on channel=2 note=53 velocity=75 time=0
EXTRACT: note_on channel=2 note=65 velocity=75 time=0
EXTRACT: note_on channel=2 note=60 velocity=75 time=0
EXTRACT: note_on channel=2 note=68 velocity=75 time=0
EXTRACT: note_on channel=5 note=65 velocity=83 time=0
EXTRACT: note_on channel=6 note=68 velocity=75 time=0
EXTRACT: note_on channel=6 note=65 velocity=75 time=0
EXTRACT: note_on channel=6 note=53 velocity=75 time=0
EXTRACT: note_on channel=6 note=60 velocity=75 time=0
EXTRACT: note_on channel=8 note=77 velocity=114 time=0
EXTRACT: note_on channel=9 note=36 velocity=0 time=0.08333333333333333
EXTRACT: note_on channel=8 note=77 velocity=0 time=0.05
EXTRACT: note_on channel=9 note=54 velocity=0 time=0.03333333333333333
EXTRACT: note_on channel=9 note=54 velocity=71 time=0.16666666666666666
EXTRACT: note_on channel=8 note=77 velocity=114 time=0
EXTRACT: note_on channel=1 note=29 velocity=0 time=0.03333333333333333
EXTRACT: note_on channel=9 note=54 velocity=0 time=0.06666666666666667
EXTRACT: control_change channel=5 control=7 value=84 time=0
EXTRACT: note_on channel=8 note=77 velocity=0 time=0.03333333333333333
EXTRACT: note_on channel=9 note=40 velocity=71 time=0.03333333333333333
EXTRACT: note_on channel=9 note=54 velocity=64 time=0
EXTRACT: note_on channel=9 note=36 velocity=71 time=0
EXTRACT: note_on channel=9 note=44 velocity=64 time=0
EXTRACT: note_on channel=9 note=38 velocity=71 time=0
EXTRACT: note_on channel=9 note=42 velocity=71 time=0
EXTRACT: note_on channel=1 note=29 velocity=114 time=0
EXTRACT: note_on channel=8 note=75 velocity=114 time=0
EXTRACT: note_on channel=9 note=42 velocity=0 time=0.1
EXTRACT: note_on channel=9 note=40 velocity=0 time=0
EXTRACT: note_on channel=9 note=38 velocity=0 time=0
EXTRACT: note_on channel=9 note=36 velocity=0 time=0
EXTRACT: note_on channel=9 note=44 velocity=0 time=0.016666666666666666
EXTRACT: note_on channel=9 note=54 velocity=0 time=0
EXTRACT: note_on channel=8 note=75 velocity=0 time=0.016666666666666666
EXTRACT: control_change channel=5 control=7 value=81 time=0.06666666666666667
EXTRACT: note_on channel=9 note=54 velocity=71 time=0.13333333333333333
EXTRACT: note_on channel=9 note=44 velocity=71 time=0
EXTRACT: control_change channel=5 control=7 value=78 time=0
EXTRACT: note_on channel=8 note=75 velocity=114 time=0
EXTRACT: note_on channel=1 note=29 velocity=0 time=0.03333333333333333
EXTRACT: control_change channel=5 control=7 value=76 time=0.03333333333333333
EXTRACT: note_on channel=9 note=44 velocity=0 time=0.03333333333333333
EXTRACT: note_on channel=9 note=54 velocity=0 time=0
EXTRACT: control_change channel=5 control=7 value=75 time=0
EXTRACT: control_change channel=5 control=7 value=72 time=0.03333333333333333
EXTRACT: note_on channel=8 note=75 velocity=0 time=0
EXTRACT: note_on channel=9 note=54 velocity=91 time=0.03333333333333333
EXTRACT: note_on channel=9 note=36 velocity=114 time=0
EXTRACT: note_on channel=1 note=29 velocity=114 time=0
EXTRACT: note_on channel=8 note=73 velocity=114 time=0
EXTRACT: control_change channel=5 control=7 value=71 time=0.03333333333333333
EXTRACT: control_change channel=5 control=7 value=68 time=0.03333333333333333
EXTRACT: note_on channel=9 note=36 velocity=0 time=0.016666666666666666
EXTRACT: control_change channel=5 control=7 value=66 time=0.016666666666666666
EXTRACT: control_change channel=5 control=7 value=64 time=0.03333333333333333
EXTRACT: note_on channel=8 note=73 velocity=0 time=0
EXTRACT: note_on channel=9 note=54 velocity=0 time=0.03333333333333333
EXTRACT: control_change channel=5 control=7 value=62 time=0
EXTRACT: control_change channel=5 control=7 value=61 time=0.03333333333333333
EXTRACT: control_change channel=5 control=7 value=59 time=0.03333333333333333
EXTRACT: control_change channel=5 control=7 value=58 time=0.03333333333333333
EXTRACT: control_change channel=5 control=7 value=56 time=0.03333333333333333
EXTRACT: note_on channel=9 note=54 velocity=71 time=0.03333333333333333
EXTRACT: note_on channel=8 note=73 velocity=114 time=0
EXTRACT: note_on channel=1 note=29 velocity=0 time=0.03333333333333333
EXTRACT: control_change channel=5 control=7 value=55 time=0
EXTRACT: control_change channel=5 control=7 value=53 time=0.03333333333333333
EXTRACT: note_on channel=9 note=54 velocity=0 time=0.03333333333333333
EXTRACT: control_change channel=5 control=7 value=52 time=0
EXTRACT: control_change channel=5 control=7 value=51 time=0.03333333333333333
EXTRACT: note_on channel=8 note=73 velocity=0 time=0
EXTRACT: note_on channel=9 note=44 velocity=64 time=0.03333333333333333
EXTRACT: note_on channel=9 note=38 velocity=71 time=0
EXTRACT: note_on channel=9 note=40 velocity=71 time=0
EXTRACT: note_on channel=9 note=42 velocity=71 time=0
EXTRACT: note_on channel=9 note=54 velocity=64 time=0
EXTRACT: note_on channel=9 note=36 velocity=71 time=0
EXTRACT: note_on channel=1 note=29 velocity=114 time=0
EXTRACT: control_change channel=5 control=7 value=49 time=0
EXTRACT: note_on channel=8 note=77 velocity=114 time=0
EXTRACT: control_change channel=5 control=7 value=48 time=0.03333333333333333
EXTRACT: control_change channel=5 control=7 value=46 time=0.03333333333333333
EXTRACT: note_on channel=9 note=42 velocity=0 time=0.03333333333333333
EXTRACT: note_on channel=9 note=40 velocity=0 time=0
EXTRACT: note_on channel=9 note=38 velocity=0 time=0
EXTRACT: note_on channel=9 note=36 velocity=0 time=0
EXTRACT: note_on channel=9 note=44 velocity=0 time=0.016666666666666666
EXTRACT: note_on channel=9 note=54 velocity=0 time=0
EXTRACT: control_change channel=5 control=7 value=43 time=0.016666666666666666
EXTRACT: note_on channel=8 note=77 velocity=0 time=0
EXTRACT: control_change channel=5 control=7 value=42 time=0.03333333333333333
EXTRACT: control_change channel=5 control=7 value=40 time=0.03333333333333333
EXTRACT: control_change channel=5 control=7 value=38 time=0.03333333333333333
EXTRACT: control_change channel=5 control=7 value=36 time=0.06666666666666667
EXTRACT: note_on channel=9 note=54 velocity=64 time=0.03333333333333333
EXTRACT: note_on channel=9 note=42 velocity=71 time=0
EXTRACT: control_change channel=5 control=7 value=35 time=0
EXTRACT: note_on channel=8 note=77 velocity=114 time=0
EXTRACT: note_on channel=1 note=29 velocity=0 time=0.03333333333333333
EXTRACT: control_change channel=5 control=7 value=33 time=0
EXTRACT: note_on channel=2 note=53 velocity=0 time=0.016666666666666666
EXTRACT: note_on channel=2 note=68 velocity=0 time=0
EXTRACT: note_on channel=2 note=60 velocity=0 time=0
EXTRACT: note_on channel=2 note=65 velocity=0 time=0
EXTRACT: note_on channel=6 note=65 velocity=0 time=0
EXTRACT: note_on channel=6 note=68 velocity=0 time=0
EXTRACT: note_on channel=6 note=60 velocity=0 time=0
EXTRACT: note_on channel=6 note=53 velocity=0 time=0
EXTRACT: control_change channel=5 control=7 value=32 time=0.016666666666666666
EXTRACT: note_on channel=9 note=54 velocity=0 time=0.03333333333333333
EXTRACT: note_on channel=9 note=42 velocity=0 time=0
EXTRACT: control_change channel=5 control=7 value=30 time=0
EXTRACT: control_change channel=5 control=7 value=29 time=0.03333333333333333
EXTRACT: note_on channel=5 note=65 velocity=0 time=0
EXTRACT: note_on channel=9 note=36 velocity=114 time=0.03333333333333333
EXTRACT: note_on channel=9 note=54 velocity=91 time=0
EXTRACT: note_on channel=1 note=39 velocity=114 time=0
EXTRACT: note_on channel=2 note=61 velocity=75 time=0
EXTRACT: note_on channel=2 note=63 velocity=75 time=0
EXTRACT: note_on channel=2 note=58 velocity=75 time=0
EXTRACT: note_on channel=2 note=66 velocity=75 time=0
EXTRACT: control_change channel=5 control=7 value=26 time=0
EXTRACT: note_on channel=6 note=66 velocity=75 time=0
EXTRACT: note_on channel=6 note=61 velocity=75 time=0
EXTRACT: note_on channel=6 note=58 velocity=75 time=0
EXTRACT: note_on channel=6 note=63 velocity=75 time=0
EXTRACT: control_change channel=5 control=7 value=25 time=0.06666666666666667
EXTRACT: note_on channel=9 note=36 velocity=0 time=0.016666666666666666
EXTRACT: control_change channel=5 control=7 value=23 time=0.05
EXTRACT: note_on channel=8 note=77 velocity=0 time=0.016666666666666666
EXTRACT: note_on channel=9 note=54 velocity=0 time=0.016666666666666666
EXTRACT: control_change channel=5 control=7 value=22 time=0
EXTRACT: control_change channel=5 control=7 value=19 time=0.03333333333333333
EXTRACT: control_change channel=5 control=7 value=17 time=0.03333333333333333
EXTRACT: control_change channel=5 control=7 value=85 time=0.06666666666666667
EXTRACT: note_on channel=9 note=54 velocity=71 time=0.03333333333333333
EXTRACT: note_on channel=8 note=75 velocity=114 time=0
EXTRACT: note_on channel=1 note=39 velocity=0 time=0.03333333333333333
EXTRACT: note_on channel=9 note=54 velocity=0 time=0.06666666666666667
EXTRACT: note_on channel=9 note=42 velocity=71 time=0.06666666666666667
EXTRACT: note_on channel=9 note=36 velocity=71 time=0
EXTRACT: note_on channel=9 note=38 velocity=71 time=0
EXTRACT: note_on channel=9 note=54 velocity=64 time=0
EXTRACT: note_on channel=9 note=44 velocity=64 time=0
EXTRACT: note_on channel=9 note=40 velocity=71 time=0
EXTRACT: note_on channel=1 note=39 velocity=114 time=0
EXTRACT: note_on channel=9 note=40 velocity=0 time=0.1
EXTRACT: note_on channel=9 note=42 velocity=0 time=0
EXTRACT: note_on channel=9 note=38 velocity=0 time=0
EXTRACT: note_on channel=9 note=36 velocity=0 time=0
EXTRACT: note_on channel=9 note=54 velocity=0 time=0.016666666666666666
EXTRACT: note_on channel=9 note=44 velocity=0 time=0
EXTRACT: note_on channel=8 note=75 velocity=0 time=0.06666666666666667
EXTRACT: note_on channel=9 note=44 velocity=71 time=0.15
EXTRACT: note_on channel=9 note=54 velocity=71 time=0
EXTRACT: note_on channel=8 note=75 velocity=114 time=0
EXTRACT: note_on channel=1 note=39 velocity=0 time=0.03333333333333333
EXTRACT: note_on channel=9 note=54 velocity=0 time=0.06666666666666667
EXTRACT: note_on channel=9 note=44 velocity=0 time=0
EXTRACT: note_on channel=8 note=75 velocity=0 time=0.03333333333333333
EXTRACT: note_on channel=9 note=54 velocity=91 time=0.03333333333333333
EXTRACT: note_on channel=9 note=36 velocity=114 time=0
EXTRACT: note_on channel=1 note=39 velocity=114 time=0
EXTRACT: note_on channel=8 note=73 velocity=114 time=0
EXTRACT: note_on channel=9 note=36 velocity=0 time=0.08333333333333333
EXTRACT: note_on channel=8 note=73 velocity=0 time=0.05
EXTRACT: note_on channel=9 note=54 velocity=0 time=0.03333333333333333
EXTRACT: note_on channel=9 note=54 velocity=71 time=0.16666666666666666
EXTRACT: note_on channel=8 note=75 velocity=114 time=0
EXTRACT: note_on channel=1 note=39 velocity=0 time=0.03333333333333333
EXTRACT: note_on channel=9 note=54 velocity=0 time=0.06666666666666667
EXTRACT: note_on channel=9 note=38 velocity=71 time=0.06666666666666667
EXTRACT: note_on channel=9 note=44 velocity=64 time=0
EXTRACT: note_on channel=9 note=36 velocity=71 time=0
EXTRACT: note_on channel=9 note=40 velocity=71 time=0
EXTRACT: note_on channel=9 note=42 velocity=71 time=0
EXTRACT: note_on channel=9 note=54 velocity=64 time=0
EXTRACT: note_on channel=1 note=39 velocity=114 time=0
EXTRACT: note_on channel=3 note=80 velocity=75 time=0
EXTRACT: note_on channel=3 note=68 velocity=75 time=0
EXTRACT: note_on channel=8 note=75 velocity=0 time=0.08333333333333333
EXTRACT: note_on channel=9 note=40 velocity=0 time=0.016666666666666666
EXTRACT: note_on channel=9 note=36 velocity=0 time=0
EXTRACT: note_on channel=9 note=38 velocity=0 time=0
EXTRACT: note_on channel=9 note=42 velocity=0 time=0
EXTRACT: note_on channel=9 note=54 velocity=0 time=0.016666666666666666
EXTRACT: note_on channel=9 note=44 velocity=0 time=0
EXTRACT: note_on channel=3 note=68 velocity=0 time=0.1
EXTRACT: note_on channel=3 note=80 velocity=0 time=0.016666666666666666
EXTRACT: note_on channel=9 note=44 velocity=71 time=0.1
EXTRACT: note_on channel=9 note=54 velocity=71 time=0
EXTRACT: note_on channel=3 note=65 velocity=75 time=0
EXTRACT: note_on channel=3 note=77 velocity=75 time=0
EXTRACT: note_on channel=8 note=77 velocity=114 time=0
EXTRACT: note_on channel=1 note=39 velocity=0 time=0.03333333333333333
EXTRACT: note_on channel=9 note=44 velocity=0 time=0.06666666666666667
EXTRACT: note_on channel=9 note=54 velocity=0 time=0
EXTRACT: note_on channel=9 note=36 velocity=114 time=0.06666666666666667
EXTRACT: note_on channel=9 note=54 velocity=91 time=0
EXTRACT: note_on channel=1 note=39 velocity=114 time=0
EXTRACT: note_on channel=9 note=36 velocity=0 time=0.08333333333333333
EXTRACT: note_on channel=3 note=65 velocity=0 time=0.016666666666666666
EXTRACT: note_on channel=3 note=77 velocity=0 time=0
EXTRACT: note_on channel=8 note=77 velocity=0 time=0.05
EXTRACT: note_on channel=9 note=54 velocity=0 time=0.016666666666666666
EXTRACT: note_on channel=9 note=54 velocity=71 time=0.16666666666666666
EXTRACT: note_on channel=8 note=77 velocity=114 time=0
EXTRACT: note_on channel=1 note=39 velocity=0 time=0.03333333333333333
EXTRACT: note_on channel=9 note=54 velocity=0 time=0.06666666666666667
EXTRACT: note_on channel=8 note=77 velocity=0 time=0.03333333333333333
EXTRACT: note_on channel=9 note=38 velocity=71 time=0.03333333333333333
EXTRACT: note_on channel=9 note=54 velocity=64 time=0
EXTRACT: note_on channel=9 note=40 velocity=71 time=0
EXTRACT: note_on channel=9 note=42 velocity=71 time=0
EXTRACT: note_on channel=9 note=44 velocity=64 time=0
EXTRACT: note_on channel=9 note=36 velocity=71 time=0
EXTRACT: note_on channel=1 note=39 velocity=114 time=0
EXTRACT: note_on channel=8 note=75 velocity=114 time=0
EXTRACT: note_on channel=9 note=36 velocity=0 time=0.1
EXTRACT: note_on channel=9 note=38 velocity=0 time=0
EXTRACT: note_on channel=9 note=42 velocity=0 time=0
EXTRACT: note_on channel=9 note=40 velocity=0 time=0
EXTRACT: note_on channel=9 note=44 velocity=0 time=0.016666666666666666
EXTRACT: note_on channel=9 note=54 velocity=0 time=0
EXTRACT: note_on channel=8 note=75 velocity=0 time=0.016666666666666666
EXTRACT: note_on channel=9 note=54 velocity=71 time=0.2
EXTRACT: note_on channel=9 note=44 velocity=71 time=0
EXTRACT: note_on channel=8 note=75 velocity=114 time=0
EXTRACT: note_on channel=1 note=39 velocity=0 time=0.03333333333333333
EXTRACT: note_on channel=9 note=44 velocity=0 time=0.06666666666666667
EXTRACT: note_on channel=9 note=54 velocity=0 time=0
EXTRACT: note_on channel=8 note=75 velocity=0 time=0.03333333333333333
EXTRACT: note_on channel=9 note=54 velocity=91 time=0.03333333333333333
EXTRACT: note_on channel=9 note=36 velocity=114 time=0
EXTRACT: note_on channel=1 note=39 velocity=114 time=0
EXTRACT: note_on channel=8 note=73 velocity=114 time=0
EXTRACT: note_on channel=9 note=36 velocity=0 time=0.08333333333333333
EXTRACT: note_on channel=8 note=73 velocity=0 time=0.05
EXTRACT: note_on channel=9 note=54 velocity=0 time=0.03333333333333333
EXTRACT: note_on channel=9 note=54 velocity=71 time=0.16666666666666666
EXTRACT: note_on channel=8 note=75 velocity=114 time=0
EXTRACT: note_on channel=1 note=39 velocity=0 time=0.03333333333333333
EXTRACT: note_on channel=9 note=54 velocity=0 time=0.06666666666666667
EXTRACT: note_on channel=9 note=38 velocity=71 time=0.06666666666666667
EXTRACT: note_on channel=9 note=54 velocity=64 time=0
EXTRACT: note_on channel=9 note=40 velocity=71 time=0
EXTRACT: note_on channel=9 note=44 velocity=64 time=0
EXTRACT: note_on channel=9 note=36 velocity=71 time=0
EXTRACT: note_on channel=9 note=42 velocity=71 time=0
EXTRACT: note_on channel=1 note=39 velocity=114 time=0
EXTRACT: note_on channel=3 note=68 velocity=75 time=0
EXTRACT: note_on channel=3 note=80 velocity=75 time=0
EXTRACT: note_on channel=9 note=38 velocity=0 time=0.1
EXTRACT: note_on channel=9 note=40 velocity=0 time=0
EXTRACT: note_on channel=9 note=42 velocity=0 time=0
EXTRACT: note_on channel=9 note=36 velocity=0 time=0
EXTRACT: note_on channel=9 note=54 velocity=0 time=0.016666666666666666
EXTRACT: note_on channel=9 note=44 velocity=0 time=0
EXTRACT: note_on channel=8 note=75 velocity=0 time=0.05
EXTRACT: note_on channel=3 note=68 velocity=0 time=0.06666666666666667
EXTRACT: note_on channel=3 note=80 velocity=0 time=0
EXTRACT: note_on channel=9 note=42 velocity=71 time=0.1
EXTRACT: note_on channel=9 note=54 velocity=64 time=0
EXTRACT: note_on channel=3 note=77 velocity=75 time=0
EXTRACT: note_on channel=3 note=65 velocity=75 time=0
EXTRACT: note_on channel=8 note=75 velocity=114 time=0
EXTRACT: note_on channel=1 note=39 velocity=0 time=0.03333333333333333
EXTRACT: note_on channel=2 note=66 velocity=0 time=0.05
EXTRACT: note_on channel=6 note=66 velocity=0 time=0
EXTRACT: note_on channel=9 note=42 velocity=0 time=0.016666666666666666
EXTRACT: note_on channel=9 note=54 velocity=0 time=0
EXTRACT: note_on channel=2 note=58 velocity=0 time=0
EXTRACT: note_on channel=2 note=63 velocity=0 time=0
EXTRACT: note_on channel=6 note=63 velocity=0 time=0
EXTRACT: note_on channel=6 note=58 velocity=0 time=0
EXTRACT: note_on channel=8 note=75 velocity=0 time=0.03333333333333333
EXTRACT: note_on channel=2 note=61 velocity=0 time=0.016666666666666666
EXTRACT: note_on channel=6 note=61 velocity=0 time=0
EXTRACT: note_on channel=9 note=36 velocity=114 time=0.016666666666666666
EXTRACT: note_on channel=9 note=54 velocity=91 time=0
EXTRACT: note_on channel=1 note=44 velocity=114 time=0
EXTRACT: note_on channel=2 note=56 velocity=75 time=0
EXTRACT: note_on channel=2 note=63 velocity=75 time=0
EXTRACT: note_on channel=2 note=68 velocity=75 time=0
EXTRACT: note_on channel=6 note=56 velocity=75 time=0
EXTRACT: note_on channel=6 note=63 velocity=75 time=0
EXTRACT: note_on channel=6 note=68 velocity=75 time=0
EXTRACT: note_on channel=8 note=77 velocity=114 time=0
EXTRACT: note_on channel=3 note=65 velocity=0 time=0.06666666666666667
EXTRACT: note_on channel=3 note=77 velocity=0 time=0
EXTRACT: note_on channel=9 note=36 velocity=0 time=0.016666666666666666
EXTRACT: note_on channel=8 note=77 velocity=0 time=0.05
EXTRACT: note_on channel=9 note=54 velocity=0 time=0.03333333333333333
EXTRACT: note_on channel=9 note=54 velocity=71 time=0.16666666666666666
EXTRACT: note_on channel=8 note=77 velocity=114 time=0
EXTRACT: note_on channel=1 note=44 velocity=0 time=0.03333333333333333
EXTRACT: note_on channel=9 note=54 velocity=0 time=0.06666666666666667
EXTRACT: note_on channel=8 note=77 velocity=0 time=0.03333333333333333
EXTRACT: note_on channel=9 note=54 velocity=64 time=0.03333333333333333
EXTRACT: note_on channel=9 note=40 velocity=71 time=0
EXTRACT: note_on channel=9 note=36 velocity=71 time=0
EXTRACT: note_on channel=9 note=42 velocity=71 time=0
EXTRACT: note_on channel=9 note=44 velocity=64 time=0
EXTRACT: note_on channel=9 note=38 velocity=71 time=0
EXTRACT: note_on channel=1 note=44 velocity=114 time=0
EXTRACT: note_on channel=8 note=75 velocity=114 time=0
EXTRACT: note_on channel=9 note=38 velocity=0 time=0.1
EXTRACT: note_on channel=9 note=36 velocity=0 time=0
EXTRACT: note_on channel=9 note=42 velocity=0 time=0
EXTRACT: note_on channel=9 note=40 velocity=0 time=0
EXTRACT: note_on channel=9 note=44 velocity=0 time=0.016666666666666666
EXTRACT: note_on channel=9 note=54 velocity=0 time=0
EXTRACT: note_on channel=8 note=75 velocity=0 time=0.016666666666666666
EXTRACT: note_on channel=9 note=44 velocity=71 time=0.2
EXTRACT: note_on channel=9 note=54 velocity=71 time=0
EXTRACT: note_on channel=8 note=75 velocity=114 time=0
EXTRACT: note_on channel=1 note=44 velocity=0 time=0.03333333333333333
EXTRACT: note_on channel=9 note=54 velocity=0 time=0.06666666666666667
EXTRACT: note_on channel=9 note=44 velocity=0 time=0
EXTRACT: note_on channel=8 note=75 velocity=0 time=0.03333333333333333
EXTRACT: note_on channel=9 note=54 velocity=91 time=0.03333333333333333
EXTRACT: note_on channel=9 note=36 velocity=114 time=0
EXTRACT: note_on channel=1 note=44 velocity=114 time=0
EXTRACT: note_on channel=8 note=73 velocity=114 time=0
EXTRACT: note_on channel=9 note=36 velocity=0 time=0.08333333333333333
EXTRACT: note_on channel=8 note=73 velocity=0 time=0.05
EXTRACT: note_on channel=9 note=54 velocity=0 time=0.03333333333333333
EXTRACT: note_on channel=8 note=75 velocity=114 time=0
EXTRACT: note_on channel=8 note=75 velocity=0 time=0.13333333333333333
EXTRACT: note_on channel=9 note=54 velocity=71 time=0.03333333333333333
EXTRACT: note_on channel=8 note=73 velocity=114 time=0
EXTRACT: note_on channel=1 note=44 velocity=0 time=0.03333333333333333
EXTRACT: note_on channel=9 note=54 velocity=0 time=0.06666666666666667
EXTRACT: note_on channel=8 note=73 velocity=0 time=0.03333333333333333
EXTRACT: note_on channel=9 note=38 velocity=71 time=0.03333333333333333
EXTRACT: note_on channel=9 note=42 velocity=71 time=0
EXTRACT: note_on channel=9 note=36 velocity=71 time=0
EXTRACT: note_on channel=9 note=40 velocity=71 time=0
EXTRACT: note_on channel=9 note=44 velocity=64 time=0
EXTRACT: note_on channel=9 note=54 velocity=64 time=0
EXTRACT: note_on channel=1 note=44 velocity=114 time=0
EXTRACT: note_on channel=8 note=77 velocity=114 time=0
EXTRACT: note_on channel=9 note=40 velocity=0 time=0.1
EXTRACT: note_on channel=9 note=36 velocity=0 time=0
EXTRACT: note_on channel=9 note=42 velocity=0 time=0
EXTRACT: note_on channel=9 note=38 velocity=0 time=0
EXTRACT: note_on channel=9 note=54 velocity=0 time=0.016666666666666666
EXTRACT: note_on channel=9 note=44 velocity=0 time=0
EXTRACT: note_on channel=8 note=77 velocity=0 time=0.016666666666666666
EXTRACT: note_on channel=9 note=44 velocity=71 time=0.2
EXTRACT: note_on channel=9 note=54 velocity=71 time=0
EXTRACT: note_on channel=8 note=75 velocity=114 time=0
EXTRACT: note_on channel=1 note=44 velocity=0 time=0.03333333333333333
EXTRACT: note_on channel=2 note=68 velocity=0 time=0.05
EXTRACT: note_on channel=6 note=68 velocity=0 time=0
EXTRACT: note_on channel=9 note=44 velocity=0 time=0.016666666666666666
EXTRACT: note_on channel=9 note=54 velocity=0 time=0
EXTRACT: note_on channel=2 note=63 velocity=0 time=0.016666666666666666
EXTRACT: note_on channel=6 note=63 velocity=0 time=0
EXTRACT: note_on channel=2 note=56 velocity=0 time=0.016666666666666666
EXTRACT: note_on channel=6 note=56 velocity=0 time=0
EXTRACT: note_on channel=9 note=36 velocity=114 time=0.03333333333333333
EXTRACT: note_on channel=9 note=54 velocity=91 time=0
EXTRACT: note_on channel=1 note=41 velocity=114 time=0
EXTRACT: note_on channel=2 note=65 velocity=75 time=0
EXTRACT: note_on channel=2 note=60 velocity=75 time=0
EXTRACT: note_on channel=2 note=53 velocity=75 time=0
EXTRACT: note_on channel=6 note=53 velocity=75 time=0
EXTRACT: note_on channel=6 note=60 velocity=75 time=0
EXTRACT: note_on channel=6 note=65 velocity=75 time=0
EXTRACT: note_on channel=6 note=72 velocity=75 time=0
EXTRACT: note_on channel=9 note=36 velocity=0 time=0.08333333333333333
EXTRACT: note_on channel=9 note=54 velocity=0 time=0.08333333333333333
EXTRACT: note_on channel=8 note=75 velocity=0 time=0.016666666666666666
EXTRACT: note_on channel=9 note=54 velocity=71 time=0.15
EXTRACT: note_on channel=1 note=41 velocity=0 time=0.03333333333333333
EXTRACT: note_on channel=9 note=54 velocity=0 time=0.06666666666666667
EXTRACT: note_on channel=9 note=40 velocity=71 time=0.06666666666666667
EXTRACT: note_on channel=9 note=44 velocity=64 time=0
EXTRACT: note_on channel=9 note=42 velocity=71 time=0
EXTRACT: note_on channel=9 note=36 velocity=71 time=0
EXTRACT: note_on channel=9 note=54 velocity=64 time=0
EXTRACT: note_on channel=9 note=38 velocity=71 time=0
EXTRACT: note_on channel=1 note=41 velocity=114 time=0
EXTRACT: note_on channel=8 note=73 velocity=97 time=0
EXTRACT: note_on channel=9 note=38 velocity=0 time=0.1
EXTRACT: note_on channel=9 note=40 velocity=0 time=0
EXTRACT: note_on channel=9 note=36 velocity=0 time=0
EXTRACT: note_on channel=9 note=42 velocity=0 time=0
EXTRACT: note_on channel=9 note=54 velocity=0 time=0.016666666666666666
EXTRACT: note_on channel=9 note=44 velocity=0 time=0
EXTRACT: note_on channel=8 note=73 velocity=0 time=0
EXTRACT: note_on channel=9 note=44 velocity=71 time=0.21666666666666667
EXTRACT: note_on channel=9 note=54 velocity=71 time=0
EXTRACT: note_on channel=8 note=75 velocity=85 time=0
EXTRACT: note_on channel=1 note=41 velocity=0 time=0.03333333333333333
EXTRACT: note_on channel=9 note=44 velocity=0 time=0.06666666666666667
EXTRACT: note_on channel=9 note=54 velocity=0 time=0
EXTRACT: note_on channel=8 note=75 velocity=0 time=0.016666666666666666
EXTRACT: note_on channel=9 note=36 velocity=114 time=0.05
EXTRACT: note_on channel=9 note=54 velocity=91 time=0
EXTRACT: note_on channel=1 note=41 velocity=114 time=0
EXTRACT: note_on channel=8 note=77 velocity=74 time=0
EXTRACT: note_on channel=9 note=36 velocity=0 time=0.08333333333333333
EXTRACT: note_on channel=8 note=77 velocity=0 time=0.03333333333333333
EXTRACT: note_on channel=9 note=54 velocity=0 time=0.05
EXTRACT: note_on channel=9 note=54 velocity=71 time=0.16666666666666666
EXTRACT: note_on channel=1 note=41 velocity=0 time=0.03333333333333333
EXTRACT: note_on channel=9 note=54 velocity=0 time=0.06666666666666667
EXTRACT: note_on channel=9 note=38 velocity=71 time=0.06666666666666667
EXTRACT: note_on channel=9 note=36 velocity=71 time=0
EXTRACT: note_on channel=9 note=42 velocity=71 time=0
EXTRACT: note_on channel=9 note=44 velocity=64 time=0
EXTRACT: note_on channel=9 note=40 velocity=71 time=0
EXTRACT: note_on channel=9 note=54 velocity=64 time=0
EXTRACT: note_on channel=1 note=41 velocity=114 time=0
EXTRACT: note_on channel=8 note=73 velocity=71 time=0
EXTRACT: note_on channel=9 note=42 velocity=0 time=0.1
EXTRACT: note_on channel=9 note=36 velocity=0 time=0
EXTRACT: note_on channel=9 note=38 velocity=0 time=0
EXTRACT: note_on channel=9 note=40 velocity=0 time=0
EXTRACT: note_on channel=9 note=54 velocity=0 time=0.016666666666666666
EXTRACT: note_on channel=9 note=44 velocity=0 time=0
EXTRACT: note_on channel=8 note=73 velocity=0 time=0
EXTRACT: note_on channel=9 note=54 velocity=64 time=0.21666666666666667
EXTRACT: note_on channel=9 note=42 velocity=71 time=0
EXTRACT: note_on channel=8 note=75 velocity=63 time=0
EXTRACT: note_on channel=1 note=41 velocity=0 time=0.03333333333333333
EXTRACT: note_on channel=9 note=42 velocity=0 time=0.06666666666666667
EXTRACT: note_on channel=9 note=54 velocity=0 time=0
EXTRACT: note_on channel=2 note=65 velocity=0 time=0
EXTRACT: note_on channel=2 note=53 velocity=0 time=0
EXTRACT: note_on channel=2 note=60 velocity=0 time=0
EXTRACT: note_on channel=6 note=53 velocity=0 time=0
EXTRACT: note_on channel=6 note=72 velocity=0 time=0
EXTRACT: note_on channel=6 note=65 velocity=0 time=0
EXTRACT: note_on channel=6 note=60 velocity=0 time=0
EXTRACT: note_on channel=8 note=75 velocity=0 time=0.016666666666666666
EXTRACT: note_on channel=9 note=36 velocity=114 time=0.05
EXTRACT: note_on channel=9 note=54 velocity=91 time=0
EXTRACT: note_on channel=2 note=61 velocity=75 time=0
EXTRACT: note_on channel=2 note=65 velocity=75 time=0
EXTRACT: note_on channel=2 note=70 velocity=75 time=0
EXTRACT: note_on channel=3 note=58 velocity=64 time=0
EXTRACT: note_on channel=3 note=70 velocity=91 time=0
EXTRACT: note_on channel=6 note=65 velocity=75 time=0
EXTRACT: note_on channel=6 note=61 velocity=75 time=0
EXTRACT: note_on channel=6 note=70 velocity=75 time=0
EXTRACT: note_on channel=9 note=36 velocity=0 time=0.08333333333333333
EXTRACT: note_on channel=9 note=54 velocity=0 time=0.08333333333333333
EXTRACT: note_on channel=3 note=58 velocity=0 time=0.13333333333333333
EXTRACT: note_on channel=3 note=70 velocity=0 time=0.016666666666666666
EXTRACT: note_on channel=9 note=54 velocity=71 time=0.016666666666666666
EXTRACT: note_on channel=9 note=54 velocity=0 time=0.1
EXTRACT: note_on channel=9 note=40 velocity=71 time=0.06666666666666667
EXTRACT: note_on channel=9 note=44 velocity=64 time=0
EXTRACT: note_on channel=9 note=42 velocity=71 time=0
EXTRACT: note_on channel=9 note=36 velocity=71 time=0
EXTRACT: note_on channel=9 note=54 velocity=64 time=0
EXTRACT: note_on channel=9 note=38 velocity=71 time=0
EXTRACT: note_on channel=9 note=42 velocity=0 time=0.1
EXTRACT: note_on channel=9 note=40 velocity=0 time=0
EXTRACT: note_on channel=9 note=38 velocity=0 time=0
EXTRACT: note_on channel=9 note=36 velocity=0 time=0
EXTRACT: note_on channel=9 note=54 velocity=0 time=0.016666666666666666
EXTRACT: note_on channel=9 note=44 velocity=0 time=0
EXTRACT: note_on channel=2 note=65 velocity=0 time=0.11666666666666667
EXTRACT: note_on channel=6 note=65 velocity=0 time=0
EXTRACT: note_on channel=2 note=61 velocity=0 time=0.016666666666666666
EXTRACT: note_on channel=3 note=61 velocity=64 time=0
EXTRACT: note_on channel=6 note=61 velocity=0 time=0
EXTRACT: note_on channel=2 note=70 velocity=0 time=0.016666666666666666
EXTRACT: note_on channel=6 note=70 velocity=0 time=0
EXTRACT: note_on channel=9 note=54 velocity=71 time=0.06666666666666667
EXTRACT: note_on channel=9 note=44 velocity=71 time=0
EXTRACT: note_on channel=2 note=68 velocity=75 time=0
EXTRACT: note_on channel=2 note=61 velocity=75 time=0
EXTRACT: note_on channel=2 note=65 velocity=75 time=0
EXTRACT: note_on channel=3 note=73 velocity=91 time=0
EXTRACT: note_on channel=5 note=61 velocity=90 time=0
EXTRACT: note_on channel=6 note=65 velocity=75 time=0
EXTRACT: note_on channel=6 note=68 velocity=75 time=0
EXTRACT: note_on channel=6 note=61 velocity=75 time=0
EXTRACT: note_on channel=9 note=54 velocity=0 time=0.1
EXTRACT: note_on channel=9 note=44 velocity=0 time=0
EXTRACT: note_on channel=9 note=36 velocity=114 time=0.06666666666666667
EXTRACT: note_on channel=9 note=54 velocity=91 time=0
EXTRACT: note_on channel=9 note=36 velocity=0 time=0.08333333333333333
EXTRACT: note_on channel=3 note=61 velocity=0 time=0.016666666666666666
EXTRACT: note_on channel=5 note=61 velocity=0 time=0.016666666666666666
EXTRACT: note_on channel=9 note=54 velocity=0 time=0.05
EXTRACT: note_on channel=3 note=73 velocity=0 time=0
EXTRACT: note_on channel=9 note=54 velocity=71 time=0.16666666666666666
EXTRACT: note_on channel=9 note=54 velocity=0 time=0.1
EXTRACT: note_on channel=9 note=36 velocity=71 time=0.06666666666666667
EXTRACT: note_on channel=9 note=54 velocity=64 time=0
EXTRACT: note_on channel=9 note=38 velocity=71 time=0
EXTRACT: note_on channel=9 note=40 velocity=71 time=0
EXTRACT: note_on channel=9 note=42 velocity=71 time=0
EXTRACT: note_on channel=9 note=44 velocity=64 time=0
EXTRACT: note_on channel=3 note=70 velocity=91 time=0
EXTRACT: note_on channel=3 note=58 velocity=64 time=0
EXTRACT: note_on channel=5 note=58 velocity=91 time=0
EXTRACT: note_on channel=9 note=38 velocity=0 time=0.1
EXTRACT: note_on channel=9 note=42 velocity=0 time=0
EXTRACT: note_on channel=9 note=36 velocity=0 time=0
EXTRACT: note_on channel=9 note=40 velocity=0 time=0
EXTRACT: note_on channel=9 note=44 velocity=0 time=0.016666666666666666
EXTRACT: note_on channel=9 note=54 velocity=0 time=0
EXTRACT: note_on channel=3 note=58 velocity=0 time=0.11666666666666667
EXTRACT: note_on channel=3 note=70 velocity=0 time=0.03333333333333333
EXTRACT: note_on channel=5 note=58 velocity=0 time=0.016666666666666666
EXTRACT: note_on channel=9 note=54 velocity=71 time=0.05
EXTRACT: note_on channel=9 note=44 velocity=71 time=0
EXTRACT: note_on channel=2 note=61 velocity=0 time=0.05
EXTRACT: note_on channel=6 note=61 velocity=0 time=0
EXTRACT: note_on channel=9 note=44 velocity=0 time=0.05
EXTRACT: note_on channel=9 note=54 velocity=0 time=0
EXTRACT: note_on channel=2 note=65 velocity=0 time=0
EXTRACT: note_on channel=6 note=65 velocity=0 time=0
EXTRACT: note_on channel=2 note=68 velocity=0 time=0.016666666666666666
EXTRACT: note_on channel=6 note=68 velocity=0 time=0
EXTRACT: note_on channel=9 note=54 velocity=91 time=0.05
EXTRACT: note_on channel=9 note=36 velocity=114 time=0
EXTRACT: note_on channel=2 note=63 velocity=75 time=0
EXTRACT: note_on channel=2 note=58 velocity=75 time=0
EXTRACT: note_on channel=2 note=67 velocity=75 time=0
EXTRACT: note_on channel=6 note=63 velocity=75 time=0
EXTRACT: note_on channel=6 note=67 velocity=75 time=0
EXTRACT: note_on channel=6 note=58 velocity=75 time=0
EXTRACT: note_on channel=9 note=36 velocity=0 time=0.08333333333333333
EXTRACT: note_on channel=9 note=54 velocity=0 time=0.08333333333333333
EXTRACT: note_on channel=9 note=54 velocity=71 time=0.16666666666666666
EXTRACT: note_on channel=9 note=54 velocity=0 time=0.1
EXTRACT: note_on channel=9 note=42 velocity=71 time=0.06666666666666667
EXTRACT: note_on channel=9 note=54 velocity=64 time=0
EXTRACT: note_on channel=9 note=40 velocity=71 time=0
EXTRACT: note_on channel=9 note=44 velocity=64 time=0
EXTRACT: note_on channel=9 note=36 velocity=71 time=0
EXTRACT: note_on channel=9 note=38 velocity=71 time=0
EXTRACT: note_on channel=3 note=70 velocity=91 time=0
EXTRACT: note_on channel=3 note=58 velocity=64 time=0
EXTRACT: note_on channel=9 note=40 velocity=0 time=0.1
EXTRACT: note_on channel=9 note=42 velocity=0 time=0
EXTRACT: note_on channel=9 note=38 velocity=0 time=0
EXTRACT: note_on channel=9 note=36 velocity=0 time=0
EXTRACT: note_on channel=9 note=54 velocity=0 time=0.016666666666666666
EXTRACT: note_on channel=9 note=44 velocity=0 time=0
EXTRACT: note_on channel=3 note=58 velocity=0 time=0.06666666666666667
EXTRACT: note_on channel=3 note=70 velocity=0 time=0.016666666666666666
EXTRACT: note_on channel=2 note=63 velocity=0 time=0.05
EXTRACT: note_on channel=3 note=58 velocity=64 time=0
EXTRACT: note_on channel=6 note=63 velocity=0 time=0
EXTRACT: note_on channel=2 note=67 velocity=0 time=0.016666666666666666
EXTRACT: note_on channel=2 note=58 velocity=0 time=0
EXTRACT: note_on channel=6 note=67 velocity=0 time=0
EXTRACT: note_on channel=6 note=58 velocity=0 time=0
EXTRACT: note_on channel=9 note=44 velocity=71 time=0.06666666666666667
EXTRACT: note_on channel=9 note=54 velocity=71 time=0
EXTRACT: note_on channel=2 note=66 velocity=75 time=0
EXTRACT: note_on channel=2 note=58 velocity=75 time=0
EXTRACT: note_on channel=2 note=61 velocity=75 time=0
EXTRACT: note_on channel=3 note=70 velocity=91 time=0
EXTRACT: note_on channel=5 note=65 velocity=90 time=0
EXTRACT: note_on channel=6 note=61 velocity=75 time=0
EXTRACT: note_on channel=6 note=58 velocity=75 time=0
EXTRACT: note_on channel=6 note=66 velocity=75 time=0
EXTRACT: note_on channel=9 note=44 velocity=0 time=0.1
EXTRACT: note_on channel=9 note=54 velocity=0 time=0
EXTRACT: note_on channel=3 note=58 velocity=0 time=0
EXTRACT: note_on channel=9 note=36 velocity=114 time=0.06666666666666667
EXTRACT: note_on channel=9 note=54 velocity=91 time=0
EXTRACT: note_on channel=3 note=65 velocity=64 time=0
EXTRACT: note_on channel=3 note=77 velocity=91 time=0
EXTRACT: note_on channel=3 note=70 velocity=0 time=0.016666666666666666
EXTRACT: note_on channel=9 note=36 velocity=0 time=0.06666666666666667
EXTRACT: note_on channel=5 note=65 velocity=0 time=0.03333333333333333
EXTRACT: note_on channel=9 note=54 velocity=0 time=0.05
EXTRACT: note_on channel=3 note=65 velocity=0 time=0.06666666666666667
EXTRACT: note_on channel=3 note=77 velocity=0 time=0.016666666666666666
EXTRACT: note_on channel=9 note=54 velocity=71 time=0.08333333333333333
EXTRACT: note_on channel=9 note=54 velocity=0 time=0.1
EXTRACT: note_on channel=9 note=54 velocity=64 time=0.06666666666666667
EXTRACT: note_on channel=9 note=42 velocity=71 time=0
EXTRACT: note_on channel=9 note=44 velocity=64 time=0
EXTRACT: note_on channel=9 note=40 velocity=71 time=0
EXTRACT: note_on channel=9 note=38 velocity=71 time=0
EXTRACT: note_on channel=9 note=36 velocity=71 time=0
EXTRACT: note_on channel=3 note=73 velocity=91 time=0
EXTRACT: note_on channel=3 note=61 velocity=64 time=0
EXTRACT: note_on channel=5 note=61 velocity=90 time=0
EXTRACT: note_on channel=9 note=42 velocity=0 time=0.1
EXTRACT: note_on channel=9 note=36 velocity=0 time=0
EXTRACT: note_on channel=9 note=38 velocity=0 time=0
EXTRACT: note_on channel=9 note=40 velocity=0 time=0
EXTRACT: note_on channel=9 note=54 velocity=0 time=0.016666666666666666
EXTRACT: note_on channel=9 note=44 velocity=0 time=0
EXTRACT: note_on channel=3 note=73 velocity=0 time=0.1
EXTRACT: note_on channel=3 note=61 velocity=0 time=0
EXTRACT: note_on channel=5 note=61 velocity=0 time=0.06666666666666667
EXTRACT: note_on channel=9 note=54 velocity=64 time=0.05
EXTRACT: note_on channel=9 note=42 velocity=71 time=0
EXTRACT: note_on channel=2 note=61 velocity=0 time=0.06666666666666667
EXTRACT: note_on channel=2 note=66 velocity=0 time=0
EXTRACT: note_on channel=6 note=66 velocity=0 time=0
EXTRACT: note_on channel=6 note=61 velocity=0 time=0
EXTRACT: note_on channel=2 note=58 velocity=0 time=0.016666666666666666
EXTRACT: note_on channel=6 note=58 velocity=0 time=0
EXTRACT: note_on channel=9 note=54 velocity=0 time=0.016666666666666666
EXTRACT: note_on channel=9 note=42 velocity=0 time=0
EXTRACT: note_on channel=9 note=36 velocity=114 time=0.06666666666666667
EXTRACT: note_on channel=9 note=54 velocity=91 time=0
EXTRACT: note_on channel=2 note=70 velocity=75 time=0
EXTRACT: note_on channel=2 note=65 velocity=75 time=0
EXTRACT: note_on channel=2 note=61 velocity=75 time=0
EXTRACT: note_on channel=3 note=58 velocity=64 time=0
EXTRACT: note_on channel=3 note=70 velocity=91 time=0
EXTRACT: note_on channel=6 note=65 velocity=75 time=0
EXTRACT: note_on channel=6 note=61 velocity=75 time=0
EXTRACT: note_on channel=6 note=70 velocity=75 time=0
EXTRACT: note_on channel=9 note=36 velocity=0 time=0.08333333333333333
EXTRACT: note_on channel=9 note=54 velocity=0 time=0.08333333333333333
EXTRACT: note_on channel=3 note=58 velocity=0 time=0.13333333333333333
EXTRACT: note_on channel=3 note=70 velocity=0 time=0.016666666666666666
EXTRACT: note_on channel=9 note=54 velocity=71 time=0.016666666666666666
EXTRACT: note_on channel=9 note=54 velocity=0 time=0.1
EXTRACT: note_on channel=9 note=42 velocity=71 time=0.06666666666666667
EXTRACT: note_on channel=9 note=54 velocity=64 time=0
EXTRACT: note_on channel=9 note=36 velocity=71 time=0
EXTRACT: note_on channel=9 note=40 velocity=71 time=0
EXTRACT: note_on channel=9 note=44 velocity=64 time=0
EXTRACT: note_on channel=9 note=38 velocity=71 time=0
EXTRACT: note_on channel=9 note=38 velocity=0 time=0.1
EXTRACT: note_on channel=9 note=42 velocity=0 time=0
EXTRACT: note_on channel=9 note=40 velocity=0 time=0
EXTRACT: note_on channel=9 note=36 velocity=0 time=0
EXTRACT: note_on channel=9 note=44 velocity=0 time=0.016666666666666666
EXTRACT: note_on channel=9 note=54 velocity=0 time=0
EXTRACT: note_on channel=2 note=65 velocity=0 time=0.11666666666666667
EXTRACT: note_on channel=6 note=65 velocity=0 time=0
EXTRACT: note_on channel=2 note=61 velocity=0 time=0.016666666666666666
EXTRACT: note_on channel=3 note=61 velocity=64 time=0
EXTRACT: note_on channel=6 note=61 velocity=0 time=0
EXTRACT: note_on channel=2 note=70 velocity=0 time=0.016666666666666666
EXTRACT: note_on channel=6 note=70 velocity=0 time=0
EXTRACT: note_on channel=9 note=54 velocity=71 time=0.06666666666666667
EXTRACT: note_on channel=9 note=44 velocity=71 time=0
EXTRACT: note_on channel=2 note=68 velocity=75 time=0
EXTRACT: note_on channel=2 note=61 velocity=75 time=0
EXTRACT: note_on channel=2 note=65 velocity=75 time=0
EXTRACT: note_on channel=3 note=73 velocity=91 time=0
EXTRACT: note_on channel=5 note=61 velocity=90 time=0
EXTRACT: note_on channel=6 note=61 velocity=75 time=0
EXTRACT: note_on channel=6 note=68 velocity=75 time=0
EXTRACT: note_on channel=6 note=65 velocity=75 time=0
EXTRACT: note_on channel=9 note=54 velocity=0 time=0.1
EXTRACT: note_on channel=9 note=44 velocity=0 time=0
EXTRACT: note_on channel=9 note=36 velocity=114 time=0.06666666666666667
EXTRACT: note_on channel=9 note=54 velocity=91 time=0
EXTRACT: note_on channel=9 note=36 velocity=0 time=0.08333333333333333
EXTRACT: note_on channel=3 note=61 velocity=0 time=0.016666666666666666
EXTRACT: note_on channel=5 note=61 velocity=0 time=0.016666666666666666
EXTRACT: note_on channel=9 note=54 velocity=0 time=0.05
EXTRACT: note_on channel=3 note=73 velocity=0 time=0
EXTRACT: note_on channel=9 note=54 velocity=71 time=0.16666666666666666
EXTRACT: note_on channel=9 note=54 velocity=0 time=0.1
EXTRACT: note_on channel=9 note=38 velocity=71 time=0.06666666666666667
EXTRACT: note_on channel=9 note=42 velocity=71 time=0
EXTRACT: note_on channel=9 note=44 velocity=64 time=0
EXTRACT: note_on channel=9 note=36 velocity=71 time=0
EXTRACT: note_on channel=9 note=40 velocity=71 time=0
EXTRACT: note_on channel=9 note=54 velocity=64 time=0
EXTRACT: note_on channel=3 note=58 velocity=64 time=0
EXTRACT: note_on channel=3 note=70 velocity=91 time=0
EXTRACT: note_on channel=5 note=58 velocity=91 time=0
EXTRACT: note_on channel=9 note=40 velocity=0 time=0.1
EXTRACT: note_on channel=9 note=42 velocity=0 time=0
EXTRACT: note_on channel=9 note=38 velocity=0 time=0
EXTRACT: note_on channel=9 note=36 velocity=0 time=0
EXTRACT: note_on channel=9 note=54 velocity=0 time=0.016666666666666666
EXTRACT: note_on channel=9 note=44 velocity=0 time=0
EXTRACT: note_on channel=3 note=58 velocity=0 time=0.11666666666666667
EXTRACT: note_on channel=3 note=70 velocity=0 time=0.03333333333333333
EXTRACT: note_on channel=5 note=58 velocity=0 time=0.016666666666666666
EXTRACT: note_on channel=9 note=54 velocity=71 time=0.05
EXTRACT: note_on channel=9 note=44 velocity=71 time=0
EXTRACT: note_on channel=2 note=61 velocity=0 time=0.05
EXTRACT: note_on channel=6 note=61 velocity=0 time=0
EXTRACT: note_on channel=9 note=44 velocity=0 time=0.05
EXTRACT: note_on channel=9 note=54 velocity=0 time=0
EXTRACT: note_on channel=2 note=65 velocity=0 time=0
EXTRACT: note_on channel=6 note=65 velocity=0 time=0
EXTRACT: note_on channel=2 note=68 velocity=0 time=0.016666666666666666
EXTRACT: note_on channel=6 note=68 velocity=0 time=0
EXTRACT: note_on channel=9 note=36 velocity=114 time=0.05
EXTRACT: note_on channel=9 note=54 velocity=91 time=0
EXTRACT: note_on channel=2 note=63 velocity=75 time=0
EXTRACT: note_on channel=2 note=67 velocity=75 time=0
EXTRACT: note_on channel=2 note=58 velocity=75 time=0
EXTRACT: note_on channel=6 note=67 velocity=75 time=0
EXTRACT: note_on channel=6 note=58 velocity=75 time=0
EXTRACT: note_on channel=6 note=63 velocity=75 time=0
EXTRACT: note_on channel=9 note=36 velocity=0 time=0.08333333333333333
EXTRACT: note_on channel=9 note=54 velocity=0 time=0.08333333333333333
EXTRACT: note_on channel=9 note=54 velocity=71 time=0.16666666666666666
EXTRACT: note_on channel=9 note=54 velocity=0 time=0.1
EXTRACT: note_on channel=9 note=38 velocity=71 time=0.06666666666666667
EXTRACT: note_on channel=9 note=54 velocity=64 time=0
EXTRACT: note_on channel=9 note=42 velocity=71 time=0
EXTRACT: note_on channel=9 note=40 velocity=71 time=0
EXTRACT: note_on channel=9 note=36 velocity=71 time=0
EXTRACT: note_on channel=9 note=44 velocity=64 time=0
EXTRACT: note_on channel=3 note=70 velocity=91 time=0
EXTRACT: note_on channel=3 note=58 velocity=64 time=0
EXTRACT: note_on channel=9 note=42 velocity=0 time=0.1
EXTRACT: note_on channel=9 note=36 velocity=0 time=0
EXTRACT: note_on channel=9 note=38 velocity=0 time=0
EXTRACT: note_on channel=9 note=40 velocity=0 time=0
EXTRACT: note_on channel=9 note=44 velocity=0 time=0.016666666666666666
EXTRACT: note_on channel=9 note=54 velocity=0 time=0
EXTRACT: note_on channel=3 note=58 velocity=0 time=0.06666666666666667
EXTRACT: note_on channel=3 note=70 velocity=0 time=0.016666666666666666
EXTRACT: note_on channel=2 note=63 velocity=0 time=0.05
EXTRACT: note_on channel=3 note=58 velocity=64 time=0
EXTRACT: note_on channel=6 note=63 velocity=0 time=0
EXTRACT: note_on channel=2 note=67 velocity=0 time=0.016666666666666666
EXTRACT: note_on channel=2 note=58 velocity=0 time=0
EXTRACT: note_on channel=6 note=58 velocity=0 time=0
EXTRACT: note_on channel=6 note=67 velocity=0 time=0
EXTRACT: note_on channel=9 note=54 velocity=71 time=0.06666666666666667
EXTRACT: note_on channel=9 note=44 velocity=71 time=0
EXTRACT: note_on channel=2 note=58 velocity=75 time=0
EXTRACT: note_on channel=2 note=66 velocity=75 time=0
EXTRACT: note_on channel=2 note=61 velocity=75 time=0
EXTRACT: note_on channel=3 note=70 velocity=91 time=0
EXTRACT: note_on channel=5 note=65 velocity=90 time=0
EXTRACT: note_on channel=6 note=66 velocity=75 time=0
EXTRACT: note_on channel=6 note=61 velocity=75 time=0
EXTRACT: note_on channel=6 note=58 velocity=75 time=0
EXTRACT: note_on channel=9 note=54 velocity=0 time=0.1
EXTRACT: note_on channel=9 note=44 velocity=0 time=0
EXTRACT: note_on channel=3 note=58 velocity=0 time=0
EXTRACT: note_on channel=9 note=36 velocity=114 time=0.06666666666666667
EXTRACT: note_on channel=9 note=54 velocity=91 time=0
EXTRACT: note_on channel=3 note=65 velocity=64 time=0
EXTRACT: note_on channel=3 note=77 velocity=91 time=0
EXTRACT: note_on channel=3 note=70 velocity=0 time=0.016666666666666666
EXTRACT: note_on channel=9 note=36 velocity=0 time=0.06666666666666667
EXTRACT: note_on channel=5 note=65 velocity=0 time=0.03333333333333333
EXTRACT: note_on channel=9 note=54 velocity=0 time=0.05
EXTRACT: note_on channel=3 note=65 velocity=0 time=0.06666666666666667
EXTRACT: note_on channel=3 note=77 velocity=0 time=0.016666666666666666
EXTRACT: note_on channel=9 note=54 velocity=71 time=0.08333333333333333
EXTRACT: note_on channel=9 note=54 velocity=0 time=0.1
EXTRACT: note_on channel=9 note=44 velocity=64 time=0.06666666666666667
EXTRACT: note_on channel=9 note=54 velocity=64 time=0
EXTRACT: note_on channel=9 note=36 velocity=71 time=0
EXTRACT: note_on channel=9 note=42 velocity=71 time=0
EXTRACT: note_on channel=9 note=40 velocity=71 time=0
EXTRACT: note_on channel=9 note=38 velocity=71 time=0
EXTRACT: note_on channel=3 note=61 velocity=64 time=0
EXTRACT: note_on channel=3 note=73 velocity=91 time=0
EXTRACT: note_on channel=5 note=61 velocity=90 time=0
EXTRACT: note_on channel=9 note=38 velocity=0 time=0.1
EXTRACT: note_on channel=9 note=42 velocity=0 time=0
EXTRACT: note_on channel=9 note=40 velocity=0 time=0
EXTRACT: note_on channel=9 note=36 velocity=0 time=0
EXTRACT: note_on channel=9 note=44 velocity=0 time=0.016666666666666666
EXTRACT: note_on channel=9 note=54 velocity=0 time=0
EXTRACT: note_on channel=3 note=61 velocity=0 time=0.1
EXTRACT: note_on channel=3 note=73 velocity=0 time=0
EXTRACT: note_on channel=5 note=61 velocity=0 time=0.06666666666666667
EXTRACT: note_on channel=9 note=42 velocity=71 time=0.05
EXTRACT: note_on channel=9 note=54 velocity=64 time=0
EXTRACT: note_on channel=2 note=61 velocity=0 time=0.06666666666666667
EXTRACT: note_on channel=2 note=66 velocity=0 time=0
EXTRACT: note_on channel=6 note=61 velocity=0 time=0
EXTRACT: note_on channel=6 note=66 velocity=0 time=0
EXTRACT: note_on channel=2 note=58 velocity=0 time=0.016666666666666666
EXTRACT: note_on channel=6 note=58 velocity=0 time=0
EXTRACT: note_on channel=9 note=54 velocity=0 time=0.016666666666666666
EXTRACT: note_on channel=9 note=42 velocity=0 time=0
EXTRACT: note_on channel=9 note=36 velocity=114 time=0.06666666666666667
EXTRACT: note_on channel=9 note=55 velocity=91 time=0
EXTRACT: note_on channel=1 note=34 velocity=114 time=0
EXTRACT: note_on channel=2 note=70 velocity=75 time=0
EXTRACT: note_on channel=2 note=61 velocity=75 time=0
EXTRACT: note_on channel=2 note=65 velocity=75 time=0
EXTRACT: note_on channel=3 note=70 velocity=91 time=0
EXTRACT: note_on channel=4 note=46 velocity=114 time=0
EXTRACT: note_on channel=6 note=70 velocity=75 time=0
EXTRACT: note_on channel=6 note=65 velocity=75 time=0
EXTRACT: note_on channel=6 note=61 velocity=75 time=0
EXTRACT: note_on channel=9 note=36 velocity=0 time=0.08333333333333333
EXTRACT: note_on channel=3 note=70 velocity=0 time=0.13333333333333333
EXTRACT: note_on channel=4 note=46 velocity=0 time=0.016666666666666666
EXTRACT: note_on channel=9 note=54 velocity=71 time=0.1
EXTRACT: note_on channel=4 note=53 velocity=114 time=0
EXTRACT: note_on channel=1 note=34 velocity=0 time=0.08333333333333333
EXTRACT: note_on channel=9 note=54 velocity=0 time=0.016666666666666666
EXTRACT: note_on channel=9 note=36 velocity=71 time=0.06666666666666667
EXTRACT: note_on channel=9 note=40 velocity=71 time=0
EXTRACT: note_on channel=9 note=38 velocity=71 time=0
EXTRACT: note_on channel=9 note=54 velocity=64 time=0
EXTRACT: note_on channel=9 note=42 velocity=71 time=0
EXTRACT: note_on channel=9 note=44 velocity=64 time=0
EXTRACT: note_on channel=4 note=58 velocity=114 time=0
EXTRACT: note_on channel=4 note=53 velocity=0 time=0
EXTRACT: note_on channel=9 note=40 velocity=0 time=0.1
EXTRACT: note_on channel=9 note=42 velocity=0 time=0
EXTRACT: note_on channel=9 note=36 velocity=0 time=0
EXTRACT: note_on channel=9 note=38 velocity=0 time=0
EXTRACT: note_on channel=9 note=54 velocity=0 time=0.016666666666666666
EXTRACT: note_on channel=9 note=44 velocity=0 time=0
EXTRACT: note_on channel=2 note=61 velocity=0 time=0.06666666666666667
EXTRACT: note_on channel=4 note=58 velocity=0 time=0.03333333333333333
EXTRACT: note_on channel=2 note=65 velocity=0 time=0.016666666666666666
EXTRACT: note_on channel=6 note=65 velocity=0 time=0
EXTRACT: note_on channel=6 note=61 velocity=0 time=0.016666666666666666
EXTRACT: note_on channel=2 note=70 velocity=0 time=0.016666666666666666
EXTRACT: note_on channel=6 note=70 velocity=0 time=0
EXTRACT: note_on channel=9 note=54 velocity=71 time=0.06666666666666667
EXTRACT: note_on channel=9 note=44 velocity=71 time=0
EXTRACT: note_on channel=1 note=37 velocity=114 time=0
EXTRACT: note_on channel=2 note=65 velocity=75 time=0
EXTRACT: note_on channel=2 note=68 velocity=75 time=0
EXTRACT: note_on channel=2 note=61 velocity=75 time=0
EXTRACT: note_on channel=4 note=49 velocity=114 time=0
EXTRACT: note_on channel=5 note=61 velocity=90 time=0
EXTRACT: note_on channel=6 note=68 velocity=75 time=0
EXTRACT: note_on channel=6 note=65 velocity=75 time=0
EXTRACT: note_on channel=6 note=61 velocity=75 time=0
EXTRACT: note_on channel=9 note=55 velocity=0 time=0.016666666666666666
EXTRACT: note_on channel=3 note=73 velocity=91 time=0.025
EXTRACT: note_on channel=9 note=54 velocity=0 time=0.058333333333333334
EXTRACT: note_on channel=9 note=44 velocity=0 time=0
EXTRACT: note_on channel=9 note=36 velocity=114 time=0.06666666666666667
EXTRACT: note_on channel=9 note=54 velocity=91 time=0
EXTRACT: note_on channel=9 note=36 velocity=0 time=0.08333333333333333
EXTRACT: note_on channel=5 note=61 velocity=0 time=0.03333333333333333
EXTRACT: note_on channel=4 note=49 velocity=0 time=0.016666666666666666
EXTRACT: note_on channel=9 note=54 velocity=0 time=0.03333333333333333
EXTRACT: note_on channel=3 note=73 velocity=0 time=0
EXTRACT: note_on channel=9 note=54 velocity=71 time=0.16666666666666666
EXTRACT: note_on channel=4 note=56 velocity=114 time=0
EXTRACT: note_on channel=1 note=37 velocity=0 time=0.016666666666666666
EXTRACT: note_on channel=9 note=54 velocity=0 time=0.08333333333333333
EXTRACT: note_on channel=4 note=56 velocity=0 time=0.05
EXTRACT: note_on channel=9 note=36 velocity=71 time=0.016666666666666666
EXTRACT: note_on channel=9 note=38 velocity=71 time=0
EXTRACT: note_on channel=9 note=42 velocity=71 time=0
EXTRACT: note_on channel=9 note=40 velocity=71 time=0
EXTRACT: note_on channel=9 note=44 velocity=64 time=0
EXTRACT: note_on channel=9 note=54 velocity=64 time=0
EXTRACT: note_on channel=3 note=70 velocity=91 time=0
EXTRACT: note_on channel=4 note=61 velocity=114 time=0
EXTRACT: note_on channel=5 note=58 velocity=91 time=0
EXTRACT: note_on channel=9 note=42 velocity=0 time=0.1
EXTRACT: note_on channel=9 note=38 velocity=0 time=0
EXTRACT: note_on channel=9 note=36 velocity=0 time=0
EXTRACT: note_on channel=9 note=40 velocity=0 time=0
EXTRACT: note_on channel=9 note=44 velocity=0 time=0.016666666666666666
EXTRACT: note_on channel=9 note=54 velocity=0 time=0
EXTRACT: note_on channel=4 note=61 velocity=0 time=0.1
EXTRACT: note_on channel=3 note=70 velocity=0 time=0.06666666666666667
EXTRACT: note_on channel=5 note=58 velocity=0 time=0
EXTRACT: note_on channel=9 note=54 velocity=71 time=0.05
EXTRACT: note_on channel=9 note=44 velocity=71 time=0
EXTRACT: note_on channel=4 note=49 velocity=114 time=0
EXTRACT: note_on channel=2 note=61 velocity=0 time=0.05
EXTRACT: note_on channel=6 note=61 velocity=0 time=0
EXTRACT: note_on channel=9 note=54 velocity=0 time=0.05
EXTRACT: note_on channel=9 note=44 velocity=0 time=0
EXTRACT: note_on channel=2 note=65 velocity=0 time=0
EXTRACT: note_on channel=6 note=65 velocity=0 time=0
EXTRACT: note_on channel=2 note=68 velocity=0 time=0.016666666666666666
EXTRACT: note_on channel=6 note=68 velocity=0 time=0
EXTRACT: note_on channel=4 note=49 velocity=0 time=0.016666666666666666
EXTRACT: note_on channel=9 note=36 velocity=114 time=0.03333333333333333
EXTRACT: note_on channel=9 note=54 velocity=91 time=0
EXTRACT: note_on channel=1 note=39 velocity=114 time=0
EXTRACT: note_on channel=2 note=63 velocity=75 time=0
EXTRACT: note_on channel=2 note=67 velocity=75 time=0
EXTRACT: note_on channel=2 note=58 velocity=75 time=0
EXTRACT: note_on channel=3 note=68 velocity=91 time=0
EXTRACT: note_on channel=4 note=51 velocity=114 time=0
EXTRACT: note_on channel=6 note=63 velocity=75 time=0
EXTRACT: note_on channel=6 note=58 velocity=75 time=0
EXTRACT: note_on channel=6 note=67 velocity=75 time=0
EXTRACT: note_on channel=9 note=36 velocity=0 time=0.08333333333333333
EXTRACT: note_on channel=9 note=54 velocity=0 time=0.08333333333333333
EXTRACT: note_on channel=4 note=51 velocity=0 time=0
EXTRACT: note_on channel=3 note=68 velocity=0 time=0.11666666666666667
EXTRACT: note_on channel=9 note=54 velocity=71 time=0.05
EXTRACT: note_on channel=3 note=68 velocity=91 time=0
EXTRACT: note_on channel=4 note=58 velocity=114 time=0
EXTRACT: note_on channel=9 note=54 velocity=0 time=0.1
EXTRACT: note_on channel=3 note=68 velocity=0 time=0
EXTRACT: note_on channel=1 note=39 velocity=0 time=0.05
EXTRACT: note_on channel=4 note=58 velocity=0 time=0
EXTRACT: note_on channel=9 note=40 velocity=71 time=0.016666666666666666
EXTRACT: note_on channel=9 note=54 velocity=64 time=0
EXTRACT: note_on channel=9 note=44 velocity=64 time=0
EXTRACT: note_on channel=9 note=42 velocity=71 time=0
EXTRACT: note_on channel=9 note=36 velocity=71 time=0
EXTRACT: note_on channel=9 note=38 velocity=71 time=0
EXTRACT: note_on channel=3 note=68 velocity=91 time=0
EXTRACT: note_on channel=4 note=63 velocity=114 time=0
EXTRACT: note_on channel=9 note=36 velocity=0 time=0.1
EXTRACT: note_on channel=9 note=40 velocity=0 time=0
EXTRACT: note_on channel=9 note=38 velocity=0 time=0
EXTRACT: note_on channel=9 note=42 velocity=0 time=0
EXTRACT: note_on channel=9 note=54 velocity=0 time=0.016666666666666666
EXTRACT: note_on channel=9 note=44 velocity=0 time=0
EXTRACT: note_on channel=4 note=63 velocity=0 time=0.1
EXTRACT: note_on channel=2 note=58 velocity=0 time=0.016666666666666666
EXTRACT: note_on channel=2 note=63 velocity=0 time=0.016666666666666666
EXTRACT: note_on channel=6 note=63 velocity=0 time=0
EXTRACT: note_on channel=2 note=67 velocity=0 time=0.016666666666666666
EXTRACT: note_on channel=6 note=58 velocity=0 time=0
EXTRACT: note_on channel=6 note=67 velocity=0 time=0
EXTRACT: note_on channel=9 note=44 velocity=71 time=0.06666666666666667
EXTRACT: note_on channel=9 note=54 velocity=71 time=0
EXTRACT: note_on channel=1 note=30 velocity=114 time=0
EXTRACT: note_on channel=2 note=58 velocity=75 time=0
EXTRACT: note_on channel=2 note=61 velocity=75 time=0
EXTRACT: note_on channel=2 note=67 velocity=75 time=0
EXTRACT: note_on channel=3 note=68 velocity=0 time=0
EXTRACT: note_on channel=3 note=67 velocity=91 time=0
EXTRACT: note_on channel=4 note=42 velocity=114 time=0
EXTRACT: note_on channel=5 note=65 velocity=90 time=0
EXTRACT: note_on channel=6 note=61 velocity=75 time=0
EXTRACT: note_on channel=6 note=58 velocity=75 time=0
EXTRACT: note_on channel=6 note=66 velocity=75 time=0
EXTRACT: note_on channel=9 note=54 velocity=0 time=0.1
EXTRACT: note_on channel=9 note=44 velocity=0 time=0
EXTRACT: note_on channel=9 note=36 velocity=114 time=0.06666666666666667
EXTRACT: note_on channel=9 note=54 velocity=91 time=0
EXTRACT: note_on channel=9 note=36 velocity=0 time=0.08333333333333333
EXTRACT: note_on channel=5 note=65 velocity=0 time=0.03333333333333333
EXTRACT: note_on channel=4 note=42 velocity=0 time=0.03333333333333333
EXTRACT: note_on channel=9 note=54 velocity=0 time=0.016666666666666666
EXTRACT: note_on channel=1 note=30 velocity=0 time=0.15
EXTRACT: note_on channel=9 note=54 velocity=71 time=0.016666666666666666
EXTRACT: note_on channel=4 note=49 velocity=114 time=0
EXTRACT: note_on channel=3 note=67 velocity=0 time=0.09166666666666666
EXTRACT: note_on channel=9 note=54 velocity=0 time=0.008333333333333333
EXTRACT: note_on channel=4 note=49 velocity=0 time=0.05
EXTRACT: note_on channel=9 note=54 velocity=64 time=0.016666666666666666
EXTRACT: note_on channel=9 note=36 velocity=71 time=0
EXTRACT: note_on channel=9 note=42 velocity=71 time=0
EXTRACT: note_on channel=9 note=38 velocity=71 time=0
EXTRACT: note_on channel=9 note=40 velocity=71 time=0
EXTRACT: note_on channel=9 note=44 velocity=64 time=0
EXTRACT: note_on channel=3 note=66 velocity=91 time=0
EXTRACT: note_on channel=4 note=54 velocity=114 time=0
EXTRACT: note_on channel=5 note=61 velocity=90 time=0
EXTRACT: note_on channel=9 note=42 velocity=0 time=0.1
EXTRACT: note_on channel=9 note=36 velocity=0 time=0
EXTRACT: note_on channel=9 note=40 velocity=0 time=0
EXTRACT: note_on channel=9 note=38 velocity=0 time=0
EXTRACT: note_on channel=9 note=54 velocity=0 time=0.016666666666666666
EXTRACT: note_on channel=9 note=44 velocity=0 time=0
EXTRACT: note_on channel=4 note=54 velocity=0 time=0.1
EXTRACT: note_on channel=5 note=61 velocity=0 time=0.06666666666666667
EXTRACT: note_on channel=9 note=42 velocity=71 time=0.05
EXTRACT: note_on channel=9 note=54 velocity=64 time=0
EXTRACT: note_on channel=1 note=30 velocity=114 time=0
EXTRACT: note_on channel=4 note=42 velocity=114 time=0
EXTRACT: note_on channel=2 note=67 velocity=0 time=0.06666666666666667
EXTRACT: note_on channel=2 note=61 velocity=0 time=0
EXTRACT: note_on channel=6 note=66 velocity=0 time=0
EXTRACT: note_on channel=6 note=61 velocity=0 time=0
EXTRACT: note_on channel=2 note=58 velocity=0 time=0.016666666666666666
EXTRACT: note_on channel=6 note=58 velocity=0 time=0
EXTRACT: note_on channel=9 note=42 velocity=0 time=0.016666666666666666
EXTRACT: note_on channel=9 note=54 velocity=0 time=0
EXTRACT: note_on channel=1 note=30 velocity=0 time=0.03333333333333333
EXTRACT: note_on channel=3 note=66 velocity=0 time=0
EXTRACT: note_on channel=4 note=42 velocity=0 time=0.016666666666666666
EXTRACT: note_on channel=9 note=36 velocity=114 time=0.016666666666666666
EXTRACT: note_on channel=9 note=54 velocity=91 time=0
EXTRACT: note_on channel=1 note=34 velocity=114 time=0
EXTRACT: note_on channel=2 note=65 velocity=75 time=0
EXTRACT: note_on channel=2 note=70 velocity=75 time=0
EXTRACT: note_on channel=2 note=61 velocity=75 time=0
EXTRACT: note_on channel=3 note=70 velocity=91 time=0
EXTRACT: note_on channel=4 note=46 velocity=114 time=0
EXTRACT: note_on channel=6 note=70 velocity=75 time=0
EXTRACT: note_on channel=6 note=61 velocity=75 time=0
EXTRACT: note_on channel=6 note=65 velocity=75 time=0
EXTRACT: note_on channel=9 note=36 velocity=0 time=0.08333333333333333
EXTRACT: note_on channel=9 note=54 velocity=0 time=0.08333333333333333
EXTRACT: note_on channel=4 note=46 velocity=0 time=0.06666666666666667
EXTRACT: note_on channel=3 note=70 velocity=0 time=0.03333333333333333
EXTRACT: note_on channel=9 note=54 velocity=71 time=0.06666666666666667
EXTRACT: note_on channel=4 note=53 velocity=114 time=0
EXTRACT: note_on channel=1 note=34 velocity=0 time=0.08333333333333333
EXTRACT: note_on channel=9 note=54 velocity=0 time=0.016666666666666666
EXTRACT: note_on channel=9 note=36 velocity=71 time=0.06666666666666667
EXTRACT: note_on channel=9 note=38 velocity=71 time=0
EXTRACT: note_on channel=9 note=42 velocity=71 time=0
EXTRACT: note_on channel=9 note=40 velocity=71 time=0
EXTRACT: note_on channel=9 note=54 velocity=64 time=0
EXTRACT: note_on channel=9 note=44 velocity=64 time=0
EXTRACT: note_on channel=4 note=53 velocity=0 time=0
EXTRACT: note_on channel=4 note=58 velocity=114 time=0
EXTRACT: note_on channel=9 note=42 velocity=0 time=0.1
EXTRACT: note_on channel=9 note=38 velocity=0 time=0
EXTRACT: note_on channel=9 note=36 velocity=0 time=0
EXTRACT: note_on channel=9 note=40 velocity=0 time=0
EXTRACT: note_on channel=9 note=54 velocity=0 time=0.016666666666666666
EXTRACT: note_on channel=9 note=44 velocity=0 time=0
EXTRACT: note_on channel=4 note=58 velocity=0 time=0.1
EXTRACT: note_on channel=2 note=65 velocity=0 time=0.016666666666666666
EXTRACT: note_on channel=6 note=65 velocity=0 time=0
EXTRACT: note_on channel=2 note=61 velocity=0 time=0.016666666666666666
EXTRACT: note_on channel=6 note=61 velocity=0 time=0
EXTRACT: note_on channel=2 note=70 velocity=0 time=0.016666666666666666
EXTRACT: note_on channel=6 note=70 velocity=0 time=0
EXTRACT: note_on channel=9 note=54 velocity=71 time=0.06666666666666667
EXTRACT: note_on channel=9 note=44 velocity=71 time=0
EXTRACT: note_on channel=1 note=37 velocity=114 time=0
EXTRACT: note_on channel=2 note=61 velocity=75 time=0
EXTRACT: note_on channel=2 note=65 velocity=75 time=0
EXTRACT: note_on channel=2 note=68 velocity=75 time=0
EXTRACT: note_on channel=3 note=73 velocity=91 time=0
EXTRACT: note_on channel=4 note=49 velocity=114 time=0
EXTRACT: note_on channel=5 note=61 velocity=90 time=0
EXTRACT: note_on channel=6 note=65 velocity=75 time=0
EXTRACT: note_on channel=6 note=68 velocity=75 time=0
EXTRACT: note_on channel=6 note=61 velocity=75 time=0
EXTRACT: note_on channel=9 note=54 velocity=0 time=0.1
EXTRACT: note_on channel=9 note=44 velocity=0 time=0
EXTRACT: note_on channel=9 note=36 velocity=114 time=0.06666666666666667
EXTRACT: note_on channel=9 note=54 velocity=91 time=0
EXTRACT: note_on channel=9 note=36 velocity=0 time=0.08333333333333333
EXTRACT: note_on channel=5 note=61 velocity=0 time=0.03333333333333333
EXTRACT: note_on channel=4 note=49 velocity=0 time=0.016666666666666666
EXTRACT: note_on channel=9 note=54 velocity=0 time=0.03333333333333333
EXTRACT: note_on channel=3 note=73 velocity=0 time=0
EXTRACT: note_on channel=9 note=54 velocity=71 time=0.16666666666666666
EXTRACT: note_on channel=4 note=56 velocity=114 time=0
EXTRACT: note_on channel=1 note=37 velocity=0 time=0.016666666666666666
EXTRACT: note_on channel=9 note=54 velocity=0 time=0.08333333333333333
EXTRACT: control_change channel=6 control=7 value=104 time=0
EXTRACT: note_on channel=4 note=56 velocity=0 time=0.05
EXTRACT: note_on channel=9 note=54 velocity=64 time=0.016666666666666666
EXTRACT: note_on channel=9 note=42 velocity=71 time=0
EXTRACT: note_on channel=9 note=40 velocity=71 time=0
EXTRACT: note_on channel=9 note=44 velocity=64 time=0
EXTRACT: note_on channel=9 note=36 velocity=71 time=0
EXTRACT: note_on channel=9 note=38 velocity=71 time=0
EXTRACT: note_on channel=3 note=70 velocity=91 time=0
EXTRACT: note_on channel=4 note=61 velocity=114 time=0
EXTRACT: note_on channel=5 note=58 velocity=91 time=0
EXTRACT: note_on channel=9 note=40 velocity=0 time=0.1
EXTRACT: note_on channel=9 note=42 velocity=0 time=0
EXTRACT: note_on channel=9 note=38 velocity=0 time=0
EXTRACT: note_on channel=9 note=36 velocity=0 time=0
EXTRACT: note_on channel=9 note=54 velocity=0 time=0.016666666666666666
EXTRACT: note_on channel=9 note=44 velocity=0 time=0
EXTRACT: note_on channel=4 note=61 velocity=0 time=0.1
EXTRACT: note_on channel=5 note=58 velocity=0 time=0.06666666666666667
EXTRACT: note_on channel=3 note=70 velocity=0 time=0.016666666666666666
EXTRACT: note_on channel=9 note=54 velocity=71 time=0.03333333333333333
EXTRACT: note_on channel=9 note=44 velocity=71 time=0
EXTRACT: note_on channel=4 note=49 velocity=114 time=0
EXTRACT: note_on channel=2 note=61 velocity=0 time=0.05
EXTRACT: note_on channel=6 note=61 velocity=0 time=0
EXTRACT: note_on channel=9 note=54 velocity=0 time=0.05
EXTRACT: note_on channel=9 note=44 velocity=0 time=0
EXTRACT: note_on channel=2 note=65 velocity=0 time=0
EXTRACT: note_on channel=6 note=65 velocity=0 time=0
EXTRACT: note_on channel=2 note=68 velocity=0 time=0.016666666666666666
EXTRACT: note_on channel=6 note=68 velocity=0 time=0
EXTRACT: note_on channel=4 note=49 velocity=0 time=0.016666666666666666
EXTRACT: note_on channel=9 note=36 velocity=114 time=0.03333333333333333
EXTRACT: note_on channel=9 note=54 velocity=91 time=0
EXTRACT: note_on channel=1 note=39 velocity=114 time=0
EXTRACT: note_on channel=2 note=67 velocity=75 time=0
EXTRACT: note_on channel=2 note=63 velocity=75 time=0
EXTRACT: note_on channel=2 note=58 velocity=75 time=0
EXTRACT: note_on channel=3 note=68 velocity=91 time=0
EXTRACT: note_on channel=4 note=51 velocity=114 time=0
EXTRACT: note_on channel=6 note=67 velocity=75 time=0
EXTRACT: note_on channel=6 note=58 velocity=75 time=0
EXTRACT: control_change channel=6 control=7 value=102 time=0
EXTRACT: note_on channel=6 note=63 velocity=75 time=0
EXTRACT: control_change channel=6 control=7 value=101 time=0.03333333333333333
EXTRACT: note_on channel=9 note=36 velocity=0 time=0.05
EXTRACT: note_on channel=9 note=54 velocity=0 time=0.08333333333333333
EXTRACT: note_on channel=4 note=51 velocity=0 time=0
EXTRACT: note_on channel=3 note=68 velocity=0 time=0.11666666666666667
EXTRACT: note_on channel=9 note=54 velocity=71 time=0.05
EXTRACT: note_on channel=3 note=68 velocity=91 time=0
EXTRACT: note_on channel=4 note=58 velocity=114 time=0
EXTRACT: note_on channel=9 note=54 velocity=0 time=0.1
EXTRACT: note_on channel=3 note=68 velocity=0 time=0
EXTRACT: note_on channel=1 note=39 velocity=0 time=0.05
EXTRACT: note_on channel=4 note=58 velocity=0 time=0
EXTRACT: note_on channel=9 note=40 velocity=71 time=0.016666666666666666
EXTRACT: note_on channel=9 note=36 velocity=71 time=0
EXTRACT: note_on channel=9 note=44 velocity=64 time=0
EXTRACT: note_on channel=9 note=54 velocity=64 time=0
EXTRACT: note_on channel=9 note=38 velocity=71 time=0
EXTRACT: note_on channel=9 note=42 velocity=71 time=0
EXTRACT: note_on channel=3 note=68 velocity=91 time=0
EXTRACT: note_on channel=4 note=63 velocity=114 time=0
EXTRACT: control_change channel=6 control=7 value=95 time=0.06666666666666667
EXTRACT: note_on channel=9 note=40 velocity=0 time=0.03333333333333333
EXTRACT: note_on channel=9 note=36 velocity=0 time=0
EXTRACT: note_on channel=9 note=42 velocity=0 time=0
EXTRACT: note_on channel=9 note=38 velocity=0 time=0
EXTRACT: note_on channel=9 note=44 velocity=0 time=0.016666666666666666
EXTRACT: note_on channel=9 note=54 velocity=0 time=0
EXTRACT: note_on channel=4 note=63 velocity=0 time=0.1
EXTRACT: note_on channel=2 note=63 velocity=0 time=0.03333333333333333
EXTRACT: note_on channel=6 note=63 velocity=0 time=0
EXTRACT: note_on channel=2 note=58 velocity=0 time=0.016666666666666666
EXTRACT: note_on channel=2 note=67 velocity=0 time=0
EXTRACT: note_on channel=6 note=67 velocity=0 time=0
EXTRACT: note_on channel=6 note=58 velocity=0 time=0
EXTRACT: note_on channel=3 note=68 velocity=0 time=0.05
EXTRACT: note_on channel=9 note=54 velocity=71 time=0.016666666666666666
EXTRACT: note_on channel=9 note=44 velocity=71 time=0
EXTRACT: note_on channel=1 note=30 velocity=114 time=0
EXTRACT: note_on channel=2 note=66 velocity=75 time=0
EXTRACT: note_on channel=2 note=58 velocity=75 time=0
EXTRACT: note_on channel=2 note=61 velocity=75 time=0
EXTRACT: note_on channel=3 note=67 velocity=91 time=0
EXTRACT: note_on channel=4 note=42 velocity=114 time=0
EXTRACT: note_on channel=6 note=61 velocity=75 time=0
EXTRACT: note_on channel=6 note=66 velocity=75 time=0
EXTRACT: note_on channel=6 note=58 velocity=75 time=0
EXTRACT: note_on channel=5 note=65 velocity=90 time=0.041666666666666664
EXTRACT: note_on channel=9 note=44 velocity=0 time=0.058333333333333334
EXTRACT: note_on channel=9 note=54 velocity=0 time=0
EXTRACT: note_on channel=9 note=36 velocity=114 time=0.06666666666666667
EXTRACT: note_on channel=9 note=54 velocity=91 time=0
EXTRACT: control_change channel=6 control=7 value=92 time=0.03333333333333333
EXTRACT: control_change channel=9 control=7 value=98 time=0.03333333333333333
EXTRACT: note_on channel=9 note=36 velocity=0 time=0.016666666666666666
EXTRACT: note_on channel=4 note=42 velocity=0 time=0.06666666666666667
EXTRACT: note_on channel=5 note=65 velocity=0 time=0.008333333333333333
EXTRACT: note_on channel=9 note=54 velocity=0 time=0.008333333333333333
EXTRACT: note_on channel=1 note=30 velocity=0 time=0.15
EXTRACT: note_on channel=9 note=54 velocity=71 time=0.016666666666666666
EXTRACT: note_on channel=4 note=49 velocity=114 time=0
EXTRACT: note_on channel=9 note=54 velocity=0 time=0.1
EXTRACT: control_change channel=9 control=7 value=95 time=0.03333333333333333
EXTRACT: note_on channel=3 note=67 velocity=0 time=0
EXTRACT: control_change channel=3 control=7 value=85 time=0
EXTRACT: note_on channel=4 note=49 velocity=0 time=0.016666666666666666
EXTRACT: note_on channel=9 note=40 velocity=71 time=0.016666666666666666
EXTRACT: note_on channel=9 note=36 velocity=71 time=0
EXTRACT: note_on channel=9 note=38 velocity=71 time=0
EXTRACT: note_on channel=9 note=44 velocity=64 time=0
EXTRACT: note_on channel=9 note=42 velocity=71 time=0
EXTRACT: note_on channel=9 note=54 velocity=64 time=0
EXTRACT: note_on channel=3 note=66 velocity=91 time=0
EXTRACT: note_on channel=4 note=54 velocity=114 time=0
EXTRACT: note_on channel=5 note=61 velocity=90 time=0
EXTRACT: control_change channel=5 control=7 value=79 time=0
EXTRACT: control_change channel=6 control=7 value=89 time=0.03333333333333333
EXTRACT: note_on channel=9 note=36 velocity=0 time=0.06666666666666667
EXTRACT: note_on channel=9 note=42 velocity=0 time=0
EXTRACT: note_on channel=9 note=40 velocity=0 time=0
EXTRACT: note_on channel=9 note=38 velocity=0 time=0
EXTRACT: note_on channel=9 note=54 velocity=0 time=0.016666666666666666
EXTRACT: note_on channel=9 note=44 velocity=0 time=0
EXTRACT: control_change channel=9 control=7 value=94 time=0.05
EXTRACT: note_on channel=4 note=54 velocity=0 time=0.05
EXTRACT: note_on channel=5 note=61 velocity=0 time=0.06666666666666667
EXTRACT: note_on channel=9 note=42 velocity=71 time=0.05
EXTRACT: note_on channel=9 note=54 velocity=64 time=0
EXTRACT: note_on channel=1 note=30 velocity=114 time=0
EXTRACT: note_on channel=4 note=42 velocity=114 time=0
EXTRACT: control_change channel=5 control=7 value=78 time=0
EXTRACT: note_on channel=2 note=61 velocity=0 time=0.06666666666666667
EXTRACT: note_on channel=2 note=66 velocity=0 time=0
EXTRACT: note_on channel=6 note=61 velocity=0 time=0
EXTRACT: note_on channel=6 note=66 velocity=0 time=0
EXTRACT: note_on channel=2 note=58 velocity=0 time=0.016666666666666666
EXTRACT: note_on channel=6 note=58 velocity=0 time=0
EXTRACT: note_on channel=9 note=42 velocity=0 time=0.016666666666666666
EXTRACT: note_on channel=9 note=54 velocity=0 time=0
EXTRACT: control_change channel=5 control=7 value=79 time=0
EXTRACT: note_on channel=1 note=30 velocity=0 time=0.03333333333333333
EXTRACT: control_change channel=3 control=7 value=84 time=0
EXTRACT: note_on channel=3 note=66 velocity=0 time=0
EXTRACT: note_on channel=4 note=42 velocity=0 time=0.016666666666666666
EXTRACT: note_on channel=9 note=36 velocity=114 time=0.016666666666666666
EXTRACT: note_on channel=9 note=54 velocity=91 time=0
EXTRACT: control_change channel=9 control=7 value=91 time=0
EXTRACT: note_on channel=1 note=34 velocity=114 time=0
EXTRACT: note_on channel=2 note=65 velocity=75 time=0
EXTRACT: note_on channel=2 note=61 velocity=75 time=0
EXTRACT: note_on channel=2 note=70 velocity=75 time=0
EXTRACT: control_change channel=3 control=7 value=82 time=0
EXTRACT: note_on channel=3 note=70 velocity=91 time=0
EXTRACT: note_on channel=4 note=46 velocity=114 time=0
EXTRACT: note_on channel=6 note=61 velocity=75 time=0
EXTRACT: note_on channel=6 note=70 velocity=75 time=0
EXTRACT: note_on channel=6 note=65 velocity=75 time=0
EXTRACT: control_change channel=5 control=7 value=76 time=0.03333333333333333
EXTRACT: control_change channel=6 control=7 value=85 time=0
EXTRACT: note_on channel=9 note=36 velocity=0 time=0.05
EXTRACT: note_on channel=9 note=54 velocity=0 time=0.08333333333333333
EXTRACT: note_on channel=4 note=46 velocity=0 time=0.06666666666666667
EXTRACT: note_on channel=3 note=70 velocity=0 time=0.03333333333333333
EXTRACT: note_on channel=9 note=54 velocity=71 time=0.06666666666666667
EXTRACT: note_on channel=4 note=53 velocity=114 time=0
EXTRACT: control_change channel=6 control=7 value=84 time=0
EXTRACT: note_on channel=1 note=34 velocity=0 time=0.08333333333333333
EXTRACT: note_on channel=9 note=54 velocity=0 time=0.016666666666666666
EXTRACT: note_on channel=9 note=42 velocity=71 time=0.06666666666666667
EXTRACT: note_on channel=9 note=40 velocity=71 time=0
EXTRACT: note_on channel=9 note=38 velocity=71 time=0
EXTRACT: note_on channel=9 note=44 velocity=64 time=0
EXTRACT: note_on channel=9 note=54 velocity=64 time=0
EXTRACT: note_on channel=9 note=36 velocity=71 time=0
EXTRACT: control_change channel=1 control=7 value=98 time=0
EXTRACT: control_change channel=3 control=7 value=79 time=0
EXTRACT: note_on channel=4 note=58 velocity=114 time=0
EXTRACT: note_on channel=4 note=53 velocity=0 time=0
EXTRACT: control_change channel=5 control=7 value=72 time=0
EXTRACT: control_change channel=9 control=7 value=87 time=0.03333333333333333
EXTRACT: control_change channel=6 control=7 value=82 time=0
EXTRACT: note_on channel=9 note=42 velocity=0 time=0.06666666666666667
EXTRACT: note_on channel=9 note=40 velocity=0 time=0
EXTRACT: note_on channel=9 note=36 velocity=0 time=0
EXTRACT: note_on channel=9 note=38 velocity=0 time=0
EXTRACT: note_on channel=9 note=54 velocity=0 time=0.016666666666666666
EXTRACT: note_on channel=9 note=44 velocity=0 time=0
EXTRACT: note_on channel=4 note=58 velocity=0 time=0.1
EXTRACT: note_on channel=2 note=65 velocity=0 time=0.016666666666666666
EXTRACT: note_on channel=6 note=65 velocity=0 time=0
EXTRACT: note_on channel=2 note=61 velocity=0 time=0.016666666666666666
EXTRACT: note_on channel=6 note=61 velocity=0 time=0
EXTRACT: note_on channel=2 note=70 velocity=0 time=0.016666666666666666
EXTRACT: control_change channel=5 control=7 value=71 time=0
EXTRACT: note_on channel=6 note=70 velocity=0 time=0
EXTRACT: note_on channel=9 note=44 velocity=71 time=0.06666666666666667
EXTRACT: note_on channel=9 note=54 velocity=71 time=0
EXTRACT: note_on channel=1 note=37 velocity=114 time=0
EXTRACT: note_on channel=2 note=68 velocity=75 time=0
EXTRACT: note_on channel=2 note=61 velocity=75 time=0
EXTRACT: note_on channel=2 note=65 velocity=75 time=0
EXTRACT: note_on channel=3 note=73 velocity=91 time=0
EXTRACT: note_on channel=4 note=49 velocity=114 time=0
EXTRACT: note_on channel=5 note=61 velocity=90 time=0
EXTRACT: note_on channel=6 note=68 velocity=75 time=0
EXTRACT: note_on channel=6 note=61 velocity=75 time=0
EXTRACT: note_on channel=6 note=65 velocity=75 time=0
EXTRACT: note_on channel=9 note=44 velocity=0 time=0.1
EXTRACT: note_on channel=9 note=54 velocity=0 time=0
EXTRACT: control_change channel=9 control=7 value=84 time=0.06666666666666667
EXTRACT: note_on channel=9 note=36 velocity=114 time=0
EXTRACT: note_on channel=9 note=54 velocity=91 time=0
EXTRACT: control_change channel=1 control=7 value=94 time=0
EXTRACT: control_change channel=2 control=7 value=100 time=0
EXTRACT: control_change channel=4 control=7 value=84 time=0
EXTRACT: control_change channel=3 control=7 value=76 time=0.03333333333333333
EXTRACT: control_change channel=6 control=7 value=79 time=0
EXTRACT: control_change channel=5 control=7 value=68 time=0.03333333333333333
EXTRACT: note_on channel=9 note=36 velocity=0 time=0.016666666666666666
EXTRACT: note_on channel=5 note=61 velocity=0 time=0.03333333333333333
EXTRACT: note_on channel=4 note=49 velocity=0 time=0.016666666666666666
EXTRACT: note_on channel=9 note=54 velocity=0 time=0.03333333333333333
EXTRACT: note_on channel=3 note=73 velocity=0 time=0
EXTRACT: control_change channel=9 control=7 value=85 time=0.03333333333333333
EXTRACT: note_on channel=9 note=54 velocity=71 time=0.13333333333333333
EXTRACT: note_on channel=4 note=56 velocity=114 time=0
EXTRACT: note_on channel=1 note=37 velocity=0 time=0.016666666666666666
EXTRACT: control_change channel=9 control=7 value=82 time=0.05
EXTRACT: note_on channel=9 note=54 velocity=0 time=0.03333333333333333
EXTRACT: control_change channel=1 control=7 value=95 time=0.03333333333333333
EXTRACT: note_on channel=4 note=56 velocity=0 time=0.016666666666666666
EXTRACT: note_on channel=9 note=42 velocity=71 time=0.016666666666666666
EXTRACT: note_on channel=9 note=36 velocity=71 time=0
EXTRACT: note_on channel=9 note=40 velocity=71 time=0
EXTRACT: note_on channel=9 note=44 velocity=64 time=0
EXTRACT: note_on channel=9 note=38 velocity=71 time=0
EXTRACT: note_on channel=9 note=54 velocity=64 time=0
EXTRACT: control_change channel=2 control=7 value=97 time=0
EXTRACT: note_on channel=3 note=70 velocity=91 time=0
EXTRACT: note_on channel=4 note=61 velocity=114 time=0
EXTRACT: control_change channel=5 control=7 value=65 time=0
EXTRACT: note_on channel=5 note=58 velocity=90 time=0
EXTRACT: control_change channel=1 control=7 value=91 time=0.03333333333333333
EXTRACT: control_change channel=4 control=7 value=81 time=0
EXTRACT: control_change channel=6 control=7 value=75 time=0
EXTRACT: note_on channel=9 note=40 velocity=0 time=0.06666666666666667
EXTRACT: note_on channel=9 note=36 velocity=0 time=0
EXTRACT: note_on channel=9 note=38 velocity=0 time=0
EXTRACT: note_on channel=9 note=42 velocity=0 time=0
EXTRACT: control_change channel=3 control=7 value=75 time=0
EXTRACT: note_on channel=9 note=44 velocity=0 time=0.016666666666666666
EXTRACT: note_on channel=9 note=54 velocity=0 time=0
EXTRACT: note_on channel=4 note=61 velocity=0 time=0.1
EXTRACT: note_on channel=3 note=70 velocity=0 time=0.05
EXTRACT: note_on channel=5 note=58 velocity=0 time=0.016666666666666666
EXTRACT: note_on channel=9 note=54 velocity=71 time=0.05
EXTRACT: note_on channel=9 note=44 velocity=71 time=0
EXTRACT: note_on channel=4 note=49 velocity=114 time=0
EXTRACT: note_on channel=2 note=61 velocity=0 time=0.05
EXTRACT: note_on channel=6 note=61 velocity=0 time=0
EXTRACT: note_on channel=9 note=54 velocity=0 time=0.05
EXTRACT: note_on channel=9 note=44 velocity=0 time=0
EXTRACT: note_on channel=2 note=65 velocity=0 time=0
EXTRACT: note_on channel=6 note=65 velocity=0 time=0
EXTRACT: note_on channel=2 note=68 velocity=0 time=0.016666666666666666
EXTRACT: note_on channel=6 note=68 velocity=0 time=0
EXTRACT: note_on channel=4 note=49 velocity=0 time=0.016666666666666666
EXTRACT: note_on channel=9 note=54 velocity=91 time=0.03333333333333333
EXTRACT: note_on channel=9 note=36 velocity=114 time=0
EXTRACT: control_change channel=9 control=7 value=78 time=0
EXTRACT: note_on channel=1 note=39 velocity=114 time=0
EXTRACT: control_change channel=1 control=7 value=88 time=0
EXTRACT: note_on channel=2 note=67 velocity=75 time=0
EXTRACT: note_on channel=2 note=58 velocity=75 time=0
EXTRACT: note_on channel=2 note=63 velocity=75 time=0
EXTRACT: note_on channel=3 note=68 velocity=91 time=0
EXTRACT: note_on channel=4 note=51 velocity=114 time=0
EXTRACT: control_change channel=4 control=7 value=78 time=0
EXTRACT: control_change channel=5 control=7 value=62 time=0
EXTRACT: note_on channel=6 note=58 velocity=75 time=0
EXTRACT: note_on channel=6 note=67 velocity=75 time=0
EXTRACT: note_on channel=6 note=63 velocity=75 time=0
EXTRACT: control_change channel=2 control=7 value=94 time=0.03333333333333333
EXTRACT: control_change channel=3 control=7 value=72 time=0
EXTRACT: control_change channel=6 control=7 value=72 time=0
EXTRACT: note_on channel=9 note=36 velocity=0 time=0.05
EXTRACT: note_on channel=9 note=54 velocity=0 time=0.08333333333333333
EXTRACT: note_on channel=4 note=51 velocity=0 time=0
EXTRACT: note_on channel=3 note=68 velocity=0 time=0.11666666666666667
EXTRACT: note_on channel=9 note=54 velocity=71 time=0.05
EXTRACT: note_on channel=3 note=68 velocity=91 time=0
EXTRACT: note_on channel=4 note=58 velocity=114 time=0
EXTRACT: note_on channel=9 note=54 velocity=0 time=0.1
EXTRACT: control_change channel=9 control=7 value=75 time=0.03333333333333333
EXTRACT: note_on channel=3 note=68 velocity=0 time=0
EXTRACT: note_on channel=1 note=39 velocity=0 time=0.016666666666666666
EXTRACT: note_on channel=4 note=58 velocity=0 time=0
EXTRACT: note_on channel=9 note=54 velocity=64 time=0.016666666666666666
EXTRACT: note_on channel=9 note=42 velocity=71 time=0
EXTRACT: note_on channel=9 note=40 velocity=71 time=0
EXTRACT: note_on channel=9 note=36 velocity=71 time=0
EXTRACT: note_on channel=9 note=44 velocity=64 time=0
EXTRACT: note_on channel=9 note=38 velocity=71 time=0
EXTRACT: control_change channel=1 control=7 value=84 time=0
EXTRACT: control_change channel=3 control=7 value=71 time=0
EXTRACT: note_on channel=3 note=68 velocity=91 time=0
EXTRACT: note_on channel=4 note=63 velocity=114 time=0
EXTRACT: control_change channel=4 control=7 value=74 time=0
EXTRACT: control_change channel=5 control=7 value=61 time=0
EXTRACT: control_change channel=2 control=7 value=92 time=0.03333333333333333
EXTRACT: control_change channel=5 control=7 value=59 time=0
EXTRACT: control_change channel=3 control=7 value=69 time=0.03333333333333333
EXTRACT: control_change channel=6 control=7 value=69 time=0
EXTRACT: note_on channel=9 note=40 velocity=0 time=0.03333333333333333
EXTRACT: note_on channel=9 note=42 velocity=0 time=0
EXTRACT: note_on channel=9 note=38 velocity=0 time=0
EXTRACT: note_on channel=9 note=36 velocity=0 time=0
EXTRACT: note_on channel=9 note=44 velocity=0 time=0.016666666666666666
EXTRACT: note_on channel=9 note=54 velocity=0 time=0
EXTRACT: note_on channel=4 note=63 velocity=0 time=0.1
EXTRACT: note_on channel=2 note=63 velocity=0 time=0.03333333333333333
EXTRACT: note_on channel=6 note=63 velocity=0 time=0
EXTRACT: note_on channel=2 note=58 velocity=0 time=0.016666666666666666
EXTRACT: note_on channel=2 note=67 velocity=0 time=0
EXTRACT: note_on channel=6 note=58 velocity=0 time=0
EXTRACT: note_on channel=6 note=67 velocity=0 time=0
EXTRACT: control_change channel=2 control=7 value=91 time=0.03333333333333333
EXTRACT: note_on channel=3 note=68 velocity=0 time=0
EXTRACT: note_on channel=9 note=54 velocity=71 time=0.03333333333333333
EXTRACT: note_on channel=9 note=44 velocity=71 time=0
EXTRACT: note_on channel=1 note=30 velocity=114 time=0
EXTRACT: note_on channel=2 note=58 velocity=75 time=0
EXTRACT: note_on channel=2 note=66 velocity=75 time=0
EXTRACT: note_on channel=2 note=61 velocity=75 time=0
EXTRACT: note_on channel=3 note=67 velocity=91 time=0
EXTRACT: note_on channel=4 note=42 velocity=114 time=0
EXTRACT: note_on channel=5 note=65 velocity=90 time=0
EXTRACT: note_on channel=6 note=66 velocity=75 time=0
EXTRACT: note_on channel=6 note=58 velocity=75 time=0
EXTRACT: note_on channel=6 note=61 velocity=75 time=0
EXTRACT: control_change channel=4 control=7 value=75 time=0.03333333333333333
EXTRACT: note_on channel=9 note=44 velocity=0 time=0.06666666666666667
EXTRACT: note_on channel=9 note=54 velocity=0 time=0
EXTRACT: control_change channel=4 control=7 value=74 time=0
EXTRACT: control_change channel=9 control=7 value=72 time=0.06666666666666667
EXTRACT: note_on channel=9 note=54 velocity=91 time=0
EXTRACT: note_on channel=9 note=36 velocity=114 time=0
EXTRACT: control_change channel=1 control=7 value=81 time=0
EXTRACT: control_change channel=2 control=7 value=85 time=0
EXTRACT: control_change channel=3 control=7 value=66 time=0
EXTRACT: control_change channel=4 control=7 value=69 time=0
EXTRACT: control_change channel=5 control=7 value=56 time=0.03333333333333333
EXTRACT: control_change channel=6 control=7 value=66 time=0
EXTRACT: control_change channel=1 control=7 value=82 time=0.03333333333333333
EXTRACT: note_on channel=9 note=36 velocity=0 time=0.016666666666666666
EXTRACT: note_on channel=5 note=65 velocity=0 time=0.03333333333333333
EXTRACT: note_on channel=4 note=42 velocity=0 time=0.03333333333333333
EXTRACT: note_on channel=9 note=54 velocity=0 time=0.016666666666666666
EXTRACT: control_change channel=3 control=7 value=65 time=0
EXTRACT: control_change channel=3 control=7 value=66 time=0.06666666666666667
EXTRACT: control_change channel=2 control=7 value=84 time=0.03333333333333333
EXTRACT: note_on channel=1 note=30 velocity=0 time=0.05
EXTRACT: note_on channel=9 note=54 velocity=71 time=0.016666666666666666
EXTRACT: note_on channel=4 note=49 velocity=114 time=0
EXTRACT: control_change channel=9 control=7 value=69 time=0.06666666666666667
EXTRACT: note_on channel=9 note=54 velocity=0 time=0.03333333333333333
EXTRACT: note_on channel=3 note=67 velocity=0 time=0
EXTRACT: control_change channel=2 control=7 value=85 time=0.03333333333333333
EXTRACT: note_on channel=4 note=49 velocity=0 time=0.016666666666666666
EXTRACT: note_on channel=9 note=44 velocity=64 time=0.016666666666666666
EXTRACT: note_on channel=9 note=40 velocity=71 time=0
EXTRACT: note_on channel=9 note=54 velocity=64 time=0
EXTRACT: note_on channel=9 note=42 velocity=71 time=0
EXTRACT: note_on channel=9 note=36 velocity=71 time=0
EXTRACT: note_on channel=9 note=38 velocity=71 time=0
EXTRACT: control_change channel=1 control=7 value=79 time=0
EXTRACT: control_change channel=2 control=7 value=79 time=0
EXTRACT: note_on channel=3 note=66 velocity=91 time=0
EXTRACT: control_change channel=3 control=7 value=64 time=0
EXTRACT: note_on channel=4 note=54 velocity=114 time=0
EXTRACT: note_on channel=5 note=61 velocity=90 time=0
EXTRACT: control_change channel=4 control=7 value=64 time=0.03333333333333333
EXTRACT: control_change channel=5 control=7 value=53 time=0
EXTRACT: control_change channel=6 control=7 value=61 time=0
EXTRACT: note_on channel=9 note=42 velocity=0 time=0.06666666666666667
EXTRACT: note_on channel=9 note=36 velocity=0 time=0
EXTRACT: note_on channel=9 note=40 velocity=0 time=0
EXTRACT: note_on channel=9 note=38 velocity=0 time=0
EXTRACT: note_on channel=9 note=54 velocity=0 time=0.016666666666666666
EXTRACT: note_on channel=9 note=44 velocity=0 time=0
EXTRACT: note_on channel=4 note=54 velocity=0 time=0.1
EXTRACT: control_change channel=1 control=7 value=78 time=0.05
EXTRACT: note_on channel=5 note=61 velocity=0 time=0.016666666666666666
EXTRACT: note_on channel=9 note=54 velocity=64 time=0.05
EXTRACT: note_on channel=9 note=42 velocity=71 time=0
EXTRACT: note_on channel=1 note=30 velocity=114 time=0
EXTRACT: note_on channel=4 note=42 velocity=114 time=0
EXTRACT: control_change channel=9 control=7 value=68 time=0.03333333333333333
EXTRACT: note_on channel=2 note=66 velocity=0 time=0.03333333333333333
EXTRACT: note_on channel=2 note=61 velocity=0 time=0
EXTRACT: note_on channel=6 note=66 velocity=0 time=0
EXTRACT: note_on channel=6 note=61 velocity=0 time=0
EXTRACT: note_on channel=2 note=58 velocity=0 time=0.016666666666666666
EXTRACT: note_on channel=6 note=58 velocity=0 time=0
EXTRACT: note_on channel=9 note=42 velocity=0 time=0.016666666666666666
EXTRACT: note_on channel=9 note=54 velocity=0 time=0
EXTRACT: control_change channel=9 control=7 value=65 time=0
EXTRACT: note_on channel=1 note=30 velocity=0 time=0.03333333333333333
EXTRACT: control_change channel=1 control=7 value=79 time=0
EXTRACT: note_on channel=3 note=66 velocity=0 time=0
EXTRACT: note_on channel=4 note=42 velocity=0 time=0.016666666666666666
EXTRACT: note_on channel=9 note=36 velocity=114 time=0.016666666666666666
EXTRACT: note_on channel=9 note=54 velocity=91 time=0
EXTRACT: note_on channel=1 note=34 velocity=114 time=0
EXTRACT: note_on channel=2 note=70 velocity=75 time=0
EXTRACT: note_on channel=2 note=65 velocity=75 time=0
EXTRACT: note_on channel=2 note=61 velocity=75 time=0
EXTRACT: control_change channel=2 control=7 value=74 time=0
EXTRACT: note_on channel=3 note=70 velocity=91 time=0
EXTRACT: control_change channel=3 control=7 value=61 time=0
EXTRACT: note_on channel=4 note=46 velocity=114 time=0
EXTRACT: control_change channel=5 control=7 value=51 time=0
EXTRACT: note_on channel=6 note=61 velocity=75 time=0
EXTRACT: note_on channel=6 note=65 velocity=75 time=0
EXTRACT: note_on channel=6 note=70 velocity=75 time=0
EXTRACT: control_change channel=6 control=7 value=62 time=0
EXTRACT: control_change channel=1 control=7 value=74 time=0.03333333333333333
EXTRACT: control_change channel=4 control=7 value=62 time=0
EXTRACT: control_change channel=6 control=7 value=58 time=0
EXTRACT: note_on channel=9 note=36 velocity=0 time=0.05
EXTRACT: note_on channel=9 note=54 velocity=0 time=0.08333333333333333
EXTRACT: control_change channel=1 control=7 value=75 time=0.03333333333333333
EXTRACT: note_on channel=4 note=46 velocity=0 time=0.03333333333333333
EXTRACT: control_change channel=6 control=7 value=59 time=0
EXTRACT: note_on channel=3 note=70 velocity=0 time=0.03333333333333333
EXTRACT: note_on channel=9 note=54 velocity=71 time=0.06666666666666667
EXTRACT: note_on channel=4 note=53 velocity=114 time=0
EXTRACT: note_on channel=1 note=34 velocity=0 time=0.08333333333333333
EXTRACT: note_on channel=9 note=54 velocity=0 time=0.016666666666666666
EXTRACT: control_change channel=3 control=7 value=62 time=0
EXTRACT: control_change channel=1 control=7 value=74 time=0.03333333333333333
EXTRACT: note_on channel=9 note=44 velocity=71 time=0.03333333333333333
EXTRACT: note_on channel=9 note=42 velocity=71 time=0
EXTRACT: note_on channel=9 note=38 velocity=71 time=0
EXTRACT: note_on channel=9 note=36 velocity=71 time=0
EXTRACT: note_on channel=9 note=54 velocity=71 time=0
EXTRACT: note_on channel=9 note=40 velocity=71 time=0
EXTRACT: control_change channel=1 control=7 value=68 time=0
EXTRACT: control_change channel=2 control=7 value=68 time=0
EXTRACT: control_change channel=3 control=7 value=61 time=0
EXTRACT: note_on channel=4 note=58 velocity=114 time=0
EXTRACT: note_on channel=4 note=53 velocity=0 time=0
EXTRACT: control_change channel=9 control=7 value=62 time=0.03333333333333333
EXTRACT: control_change channel=3 control=7 value=58 time=0
EXTRACT: control_change channel=4 control=7 value=58 time=0
EXTRACT: control_change channel=5 control=7 value=48 time=0
EXTRACT: control_change channel=6 control=7 value=56 time=0
EXTRACT: note_on channel=9 note=38 velocity=0 time=0.06666666666666667
EXTRACT: note_on channel=9 note=42 velocity=0 time=0
EXTRACT: note_on channel=9 note=40 velocity=0 time=0
EXTRACT: note_on channel=9 note=36 velocity=0 time=0
EXTRACT: note_on channel=9 note=54 velocity=0 time=0.016666666666666666
EXTRACT: note_on channel=9 note=44 velocity=0 time=0
EXTRACT: note_on channel=4 note=58 velocity=0 time=0.1
EXTRACT: note_on channel=2 note=65 velocity=0 time=0.016666666666666666
EXTRACT: note_on channel=6 note=65 velocity=0 time=0
EXTRACT: note_on channel=2 note=61 velocity=0 time=0.016666666666666666
EXTRACT: note_on channel=6 note=61 velocity=0 time=0
EXTRACT: note_on channel=2 note=70 velocity=0 time=0.016666666666666666
EXTRACT: note_on channel=6 note=70 velocity=0 time=0
EXTRACT: note_on channel=9 note=54 velocity=71 time=0.06666666666666667
EXTRACT: note_on channel=9 note=44 velocity=71 time=0
EXTRACT: note_on channel=1 note=37 velocity=114 time=0
EXTRACT: note_on channel=2 note=68 velocity=68 time=0
EXTRACT: note_on channel=2 note=65 velocity=68 time=0
EXTRACT: note_on channel=2 note=61 velocity=68 time=0
EXTRACT: note_on channel=3 note=73 velocity=91 time=0
EXTRACT: note_on channel=4 note=49 velocity=114 time=0
EXTRACT: note_on channel=5 note=61 velocity=90 time=0
EXTRACT: note_on channel=6 note=65 velocity=75 time=0
EXTRACT: note_on channel=6 note=61 velocity=75 time=0
EXTRACT: note_on channel=6 note=68 velocity=75 time=0
EXTRACT: control_change channel=4 control=7 value=59 time=0.03333333333333333
EXTRACT: control_change channel=9 control=7 value=56 time=0.06666666666666667
EXTRACT: note_on channel=9 note=44 velocity=0 time=0
EXTRACT: note_on channel=9 note=54 velocity=0 time=0
EXTRACT: control_change channel=4 control=7 value=58 time=0
EXTRACT: control_change channel=6 control=7 value=55 time=0
EXTRACT: control_change channel=4 control=7 value=59 time=0.03333333333333333
EXTRACT: note_on channel=9 note=36 velocity=91 time=0.03333333333333333
EXTRACT: note_on channel=9 note=54 velocity=91 time=0
EXTRACT: control_change channel=1 control=7 value=65 time=0
EXTRACT: control_change channel=1 control=7 value=66 time=0.03333333333333333
EXTRACT: control_change channel=2 control=7 value=62 time=0
EXTRACT: control_change channel=3 control=7 value=52 time=0
EXTRACT: control_change channel=4 control=7 value=56 time=0
EXTRACT: control_change channel=5 control=7 value=45 time=0
EXTRACT: control_change channel=6 control=7 value=51 time=0
EXTRACT: note_on channel=9 note=36 velocity=0 time=0.05
EXTRACT: note_on channel=5 note=61 velocity=0 time=0.03333333333333333
EXTRACT: note_on channel=4 note=49 velocity=0 time=0.016666666666666666
EXTRACT: note_on channel=9 note=54 velocity=0 time=0.03333333333333333
EXTRACT: note_on channel=3 note=73 velocity=0 time=0
EXTRACT: note_on channel=9 note=54 velocity=71 time=0.16666666666666666
EXTRACT: note_on channel=4 note=56 velocity=114 time=0
EXTRACT: note_on channel=1 note=37 velocity=0 time=0.016666666666666666
EXTRACT: note_on channel=9 note=54 velocity=0 time=0.08333333333333333
EXTRACT: control_change channel=9 control=7 value=53 time=0.03333333333333333
EXTRACT: note_on channel=4 note=56 velocity=0 time=0.016666666666666666
EXTRACT: note_on channel=9 note=36 velocity=64 time=0.016666666666666666
EXTRACT: note_on channel=9 note=40 velocity=64 time=0
EXTRACT: note_on channel=9 note=54 velocity=64 time=0
EXTRACT: note_on channel=9 note=38 velocity=64 time=0
EXTRACT: note_on channel=9 note=44 velocity=64 time=0
EXTRACT: note_on channel=9 note=42 velocity=64 time=0
EXTRACT: control_change channel=1 control=7 value=64 time=0
EXTRACT: note_on channel=3 note=70 velocity=91 time=0
EXTRACT: note_on channel=4 note=61 velocity=114 time=0
EXTRACT: note_on channel=5 note=58 velocity=90 time=0
EXTRACT: control_change channel=2 control=7 value=55 time=0.03333333333333333
EXTRACT: control_change channel=3 control=7 value=49 time=0
EXTRACT: control_change channel=5 control=7 value=42 time=0
EXTRACT: control_change channel=6 control=7 value=46 time=0
EXTRACT: control_change channel=4 control=7 value=53 time=0.03333333333333333
EXTRACT: note_on channel=9 note=40 velocity=0 time=0.03333333333333333
EXTRACT: note_on channel=9 note=36 velocity=0 time=0
EXTRACT: note_on channel=9 note=42 velocity=0 time=0
EXTRACT: note_on channel=9 note=38 velocity=0 time=0
EXTRACT: note_on channel=9 note=44 velocity=0 time=0.016666666666666666
EXTRACT: note_on channel=9 note=54 velocity=0 time=0
EXTRACT: note_on channel=4 note=61 velocity=0 time=0.1
EXTRACT: note_on channel=3 note=70 velocity=0 time=0.05
EXTRACT: note_on channel=5 note=58 velocity=0 time=0.016666666666666666
EXTRACT: control_change channel=9 control=7 value=52 time=0.016666666666666666
EXTRACT: note_on channel=9 note=44 velocity=71 time=0.03333333333333333
EXTRACT: note_on channel=9 note=54 velocity=71 time=0
EXTRACT: note_on channel=4 note=49 velocity=114 time=0
EXTRACT: note_on channel=2 note=61 velocity=0 time=0.05
EXTRACT: note_on channel=6 note=61 velocity=0 time=0
EXTRACT: note_on channel=9 note=44 velocity=0 time=0.05
EXTRACT: note_on channel=9 note=54 velocity=0 time=0
EXTRACT: note_on channel=2 note=65 velocity=0 time=0
EXTRACT: note_on channel=6 note=65 velocity=0 time=0
EXTRACT: note_on channel=2 note=68 velocity=0 time=0.016666666666666666
EXTRACT: note_on channel=6 note=68 velocity=0 time=0
EXTRACT: note_on channel=4 note=49 velocity=0 time=0.016666666666666666
EXTRACT: note_on channel=9 note=54 velocity=91 time=0.03333333333333333
EXTRACT: control_change channel=9 control=7 value=49 time=0
EXTRACT: note_on channel=9 note=36 velocity=91 time=0
EXTRACT: note_on channel=1 note=39 velocity=96 time=0
EXTRACT: note_on channel=2 note=63 velocity=60 time=0
EXTRACT: note_on channel=2 note=58 velocity=60 time=0
EXTRACT: note_on channel=2 note=67 velocity=60 time=0
EXTRACT: note_on channel=3 note=68 velocity=91 time=0
EXTRACT: note_on channel=4 note=51 velocity=114 time=0
EXTRACT: control_change channel=5 control=7 value=40 time=0
EXTRACT: note_on channel=6 note=58 velocity=75 time=0
EXTRACT: control_change channel=6 control=7 value=43 time=0
EXTRACT: note_on channel=6 note=63 velocity=75 time=0
EXTRACT: note_on channel=6 note=67 velocity=75 time=0
EXTRACT: control_change channel=3 control=7 value=46 time=0.03333333333333333
EXTRACT: control_change channel=4 control=7 value=49 time=0
EXTRACT: control_change channel=1 control=7 value=62 time=0.03333333333333333
EXTRACT: control_change channel=2 control=7 value=51 time=0
EXTRACT: note_on channel=9 note=36 velocity=0 time=0.016666666666666666
EXTRACT: note_on channel=9 note=54 velocity=0 time=0.08333333333333333
EXTRACT: note_on channel=4 note=51 velocity=0 time=0
EXTRACT: control_change channel=4 control=7 value=48 time=0.03333333333333333
EXTRACT: control_change channel=5 control=7 value=39 time=0
EXTRACT: control_change channel=4 control=7 value=49 time=0.06666666666666667
EXTRACT: note_on channel=3 note=68 velocity=0 time=0.016666666666666666
EXTRACT: note_on channel=9 note=54 velocity=71 time=0.05
EXTRACT: note_on channel=3 note=68 velocity=91 time=0
EXTRACT: note_on channel=4 note=58 velocity=114 time=0
EXTRACT: note_on channel=9 note=54 velocity=0 time=0.1
EXTRACT: note_on channel=3 note=68 velocity=0 time=0
EXTRACT: note_on channel=1 note=39 velocity=0 time=0.05
EXTRACT: note_on channel=4 note=58 velocity=0 time=0
EXTRACT: note_on channel=9 note=54 velocity=71 time=0.016666666666666666
EXTRACT: note_on channel=9 note=36 velocity=71 time=0
EXTRACT: control_change channel=9 control=7 value=45 time=0
EXTRACT: note_on channel=9 note=40 velocity=71 time=0
EXTRACT: note_on channel=9 note=42 velocity=71 time=0
EXTRACT: note_on channel=9 note=38 velocity=71 time=0
EXTRACT: note_on channel=9 note=44 velocity=71 time=0
EXTRACT: control_change channel=2 control=7 value=46 time=0
EXTRACT: note_on channel=3 note=68 velocity=80 time=0
EXTRACT: note_on channel=4 note=63 velocity=114 time=0
EXTRACT: control_change channel=5 control=7 value=36 time=0
EXTRACT: control_change channel=1 control=7 value=58 time=0.03333333333333333
EXTRACT: control_change channel=4 control=7 value=46 time=0
EXTRACT: control_change channel=2 control=7 value=45 time=0.03333333333333333
EXTRACT: control_change channel=3 control=7 value=42 time=0
EXTRACT: control_change channel=6 control=7 value=39 time=0
EXTRACT: note_on channel=9 note=36 velocity=0 time=0.03333333333333333
EXTRACT: note_on channel=9 note=40 velocity=0 time=0
EXTRACT: note_on channel=9 note=38 velocity=0 time=0
EXTRACT: note_on channel=9 note=42 velocity=0 time=0
EXTRACT: control_change channel=2 control=7 value=46 time=0
EXTRACT: note_on channel=9 note=44 velocity=0 time=0.016666666666666666
EXTRACT: note_on channel=9 note=54 velocity=0 time=0
EXTRACT: control_change channel=6 control=7 value=40 time=0.05
EXTRACT: note_on channel=4 note=63 velocity=0 time=0.05
EXTRACT: note_on channel=2 note=63 velocity=0 time=0.03333333333333333
EXTRACT: note_on channel=6 note=63 velocity=0 time=0
EXTRACT: note_on channel=2 note=58 velocity=0 time=0.016666666666666666
EXTRACT: note_on channel=2 note=67 velocity=0 time=0
EXTRACT: note_on channel=6 note=67 velocity=0 time=0
EXTRACT: note_on channel=6 note=58 velocity=0 time=0
EXTRACT: control_change channel=3 control=7 value=43 time=0.03333333333333333
EXTRACT: note_on channel=3 note=68 velocity=0 time=0
EXTRACT: control_change channel=6 control=7 value=39 time=0
EXTRACT: note_on channel=9 note=44 velocity=71 time=0.03333333333333333
EXTRACT: note_on channel=9 note=54 velocity=71 time=0
EXTRACT: note_on channel=1 note=30 velocity=78 time=0
EXTRACT: note_on channel=2 note=58 velocity=53 time=0
EXTRACT: note_on channel=2 note=61 velocity=53 time=0
EXTRACT: note_on channel=2 note=66 velocity=53 time=0
EXTRACT: note_on channel=3 note=67 velocity=73 time=0
EXTRACT: note_on channel=4 note=42 velocity=106 time=0
EXTRACT: note_on channel=5 note=65 velocity=80 time=0
EXTRACT: note_on channel=6 note=66 velocity=64 time=0
EXTRACT: note_on channel=6 note=58 velocity=64 time=0
EXTRACT: note_on channel=6 note=61 velocity=64 time=0
EXTRACT: control_change channel=9 control=7 value=46 time=0.03333333333333333
EXTRACT: note_on channel=9 note=54 velocity=0 time=0.06666666666666667
EXTRACT: note_on channel=9 note=44 velocity=0 time=0
EXTRACT: control_change channel=3 control=7 value=42 time=0
EXTRACT: control_change channel=3 control=7 value=43 time=0.03333333333333333
EXTRACT: note_on channel=9 note=54 velocity=90 time=0.03333333333333333
EXTRACT: note_on channel=9 note=36 velocity=90 time=0
EXTRACT: control_change channel=1 control=7 value=59 time=0
EXTRACT: control_change channel=2 control=7 value=40 time=0
EXTRACT: control_change channel=3 control=7 value=42 time=0
EXTRACT: control_change channel=4 control=7 value=42 time=0
EXTRACT: control_change channel=5 control=7 value=33 time=0
EXTRACT: control_change channel=1 control=7 value=53 time=0.03333333333333333
EXTRACT: control_change channel=3 control=7 value=39 time=0
EXTRACT: control_change channel=6 control=7 value=38 time=0
EXTRACT: control_change channel=4 control=7 value=43 time=0.03333333333333333
EXTRACT: note_on channel=9 note=36 velocity=0 time=0.016666666666666666
EXTRACT: control_change channel=9 control=7 value=40 time=0.016666666666666666
EXTRACT: control_change channel=3 control=7 value=40 time=0
EXTRACT: note_on channel=5 note=65 velocity=0 time=0.016666666666666666
EXTRACT: note_on channel=4 note=42 velocity=0 time=0.03333333333333333
EXTRACT: note_on channel=9 note=54 velocity=0 time=0.016666666666666666
EXTRACT: control_change channel=3 control=7 value=39 time=0.13333333333333333
EXTRACT: note_on channel=1 note=30 velocity=0 time=0.016666666666666666
EXTRACT: note_on channel=9 note=54 velocity=80 time=0.016666666666666666
EXTRACT: note_on channel=4 note=49 velocity=101 time=0
EXTRACT: note_on channel=9 note=54 velocity=0 time=0.1
EXTRACT: control_change channel=3 control=7 value=40 time=0
EXTRACT: note_on channel=3 note=67 velocity=0 time=0.05
EXTRACT: note_on channel=4 note=49 velocity=0 time=0
EXTRACT: note_on channel=9 note=54 velocity=77 time=0.016666666666666666
EXTRACT: control_change channel=9 control=7 value=39 time=0
EXTRACT: note_on channel=9 note=40 velocity=77 time=0
EXTRACT: note_on channel=9 note=36 velocity=77 time=0
EXTRACT: note_on channel=9 note=42 velocity=77 time=0
EXTRACT: note_on channel=9 note=44 velocity=77 time=0
EXTRACT: note_on channel=9 note=38 velocity=77 time=0
EXTRACT: control_change channel=2 control=7 value=36 time=0
EXTRACT: note_on channel=3 note=66 velocity=68 time=0
EXTRACT: control_change channel=3 control=7 value=38 time=0
EXTRACT: note_on channel=4 note=54 velocity=93 time=0
EXTRACT: control_change channel=4 control=7 value=38 time=0
EXTRACT: control_change channel=5 control=7 value=30 time=0
EXTRACT: note_on channel=5 note=61 velocity=73 time=0
EXTRACT: control_change channel=1 control=7 value=49 time=0.03333333333333333
EXTRACT: control_change channel=6 control=7 value=35 time=0
EXTRACT: note_on channel=9 note=42 velocity=0 time=0.06666666666666667
EXTRACT: note_on channel=9 note=40 velocity=0 time=0
EXTRACT: note_on channel=9 note=36 velocity=0 time=0
EXTRACT: note_on channel=9 note=38 velocity=0 time=0
EXTRACT: control_change channel=9 control=7 value=38 time=0
EXTRACT: note_on channel=9 note=44 velocity=0 time=0.016666666666666666
EXTRACT: note_on channel=9 note=54 velocity=0 time=0
EXTRACT: control_change channel=5 control=7 value=29 time=0.016666666666666666
EXTRACT: control_change channel=5 control=7 value=30 time=0.03333333333333333
EXTRACT: note_on channel=4 note=54 velocity=0 time=0.05
EXTRACT: control_change channel=6 control=7 value=36 time=0.05
EXTRACT: note_on channel=5 note=61 velocity=0 time=0.016666666666666666
EXTRACT: note_on channel=9 note=42 velocity=68 time=0.05
EXTRACT: note_on channel=9 note=54 velocity=68 time=0
EXTRACT: note_on channel=1 note=30 velocity=71 time=0
EXTRACT: note_on channel=4 note=42 velocity=91 time=0
EXTRACT: note_on channel=2 note=61 velocity=0 time=0.06666666666666667
EXTRACT: note_on channel=2 note=66 velocity=0 time=0
EXTRACT: control_change channel=5 control=7 value=29 time=0
EXTRACT: note_on channel=6 note=61 velocity=0 time=0
EXTRACT: note_on channel=6 note=66 velocity=0 time=0
EXTRACT: note_on channel=2 note=58 velocity=0 time=0.016666666666666666
EXTRACT: note_on channel=6 note=58 velocity=0 time=0
EXTRACT: note_on channel=9 note=54 velocity=0 time=0.016666666666666666
EXTRACT: note_on channel=9 note=42 velocity=0 time=0
EXTRACT: control_change channel=1 control=7 value=48 time=0.03333333333333333
EXTRACT: note_on channel=1 note=30 velocity=0 time=0
EXTRACT: note_on channel=3 note=66 velocity=0 time=0
EXTRACT: control_change channel=5 control=7 value=30 time=0
EXTRACT: note_on channel=4 note=42 velocity=0 time=0.016666666666666666
EXTRACT: note_on channel=9 note=54 velocity=61 time=0.016666666666666666
EXTRACT: note_on channel=9 note=36 velocity=61 time=0
EXTRACT: note_on channel=1 note=34 velocity=67 time=0
EXTRACT: note_on channel=2 note=61 velocity=43 time=0
EXTRACT: note_on channel=2 note=65 velocity=43 time=0
EXTRACT: note_on channel=2 note=70 velocity=43 time=0
EXTRACT: control_change channel=2 control=7 value=33 time=0
EXTRACT: note_on channel=3 note=70 velocity=63 time=0
EXTRACT: control_change channel=3 control=7 value=35 time=0
EXTRACT: control_change channel=4 control=7 value=35 time=0
EXTRACT: note_on channel=4 note=46 velocity=85 time=0
EXTRACT: control_change channel=5 control=7 value=27 time=0
EXTRACT: note_on channel=6 note=70 velocity=50 time=0
EXTRACT: note_on channel=6 note=61 velocity=50 time=0
EXTRACT: note_on channel=6 note=65 velocity=50 time=0
EXTRACT: control_change channel=1 control=7 value=43 time=0.03333333333333333
EXTRACT: control_change channel=6 control=7 value=33 time=0
EXTRACT: control_change channel=9 control=7 value=36 time=0.03333333333333333
EXTRACT: note_on channel=9 note=36 velocity=0 time=0.016666666666666666
EXTRACT: note_on channel=9 note=54 velocity=0 time=0.08333333333333333
EXTRACT: control_change channel=6 control=7 value=32 time=0.03333333333333333
EXTRACT: note_on channel=4 note=46 velocity=0 time=0.03333333333333333
EXTRACT: note_on channel=3 note=70 velocity=0 time=0.08333333333333333
EXTRACT: note_on channel=9 note=54 velocity=58 time=0.016666666666666666
EXTRACT: note_on channel=4 note=53 velocity=78 time=0
EXTRACT: note_on channel=1 note=34 velocity=0 time=0.08333333333333333
EXTRACT: note_on channel=9 note=54 velocity=0 time=0.016666666666666666
EXTRACT: control_change channel=9 control=7 value=30 time=0.03333333333333333
EXTRACT: control_change channel=5 control=7 value=25 time=0
EXTRACT: note_on channel=9 note=42 velocity=54 time=0.03333333333333333
EXTRACT: note_on channel=9 note=54 velocity=54 time=0
EXTRACT: note_on channel=9 note=38 velocity=54 time=0
EXTRACT: note_on channel=9 note=36 velocity=54 time=0
EXTRACT: note_on channel=9 note=40 velocity=54 time=0
EXTRACT: note_on channel=9 note=44 velocity=54 time=0
EXTRACT: note_on channel=4 note=53 velocity=0 time=0
EXTRACT: note_on channel=4 note=58 velocity=74 time=0
EXTRACT: control_change channel=4 control=7 value=32 time=0
EXTRACT: control_change channel=6 control=7 value=29 time=0
EXTRACT: control_change channel=1 control=7 value=36 time=0.03333333333333333
EXTRACT: control_change channel=2 control=7 value=30 time=0
EXTRACT: control_change channel=3 control=7 value=32 time=0
EXTRACT: control_change channel=3 control=7 value=33 time=0.03333333333333333
EXTRACT: note_on channel=9 note=42 velocity=0 time=0.03333333333333333
EXTRACT: note_on channel=9 note=40 velocity=0 time=0
EXTRACT: note_on channel=9 note=38 velocity=0 time=0
EXTRACT: note_on channel=9 note=36 velocity=0 time=0
EXTRACT: note_on channel=9 note=54 velocity=0 time=0.016666666666666666
EXTRACT: note_on channel=9 note=44 velocity=0 time=0
EXTRACT: note_on channel=4 note=58 velocity=0 time=0.1
EXTRACT: note_on channel=2 note=65 velocity=0 time=0.016666666666666666
EXTRACT: note_on channel=6 note=65 velocity=0 time=0
EXTRACT: note_on channel=2 note=61 velocity=0 time=0.016666666666666666
EXTRACT: note_on channel=6 note=61 velocity=0 time=0
EXTRACT: note_on channel=2 note=70 velocity=0 time=0.016666666666666666
EXTRACT: note_on channel=6 note=70 velocity=0 time=0
EXTRACT: note_on channel=9 note=54 velocity=51 time=0.06666666666666667
EXTRACT: note_on channel=9 note=44 velocity=51 time=0
EXTRACT: note_on channel=1 note=37 velocity=58 time=0
EXTRACT: note_on channel=2 note=65 velocity=38 time=0
EXTRACT: note_on channel=2 note=68 velocity=38 time=0
EXTRACT: note_on channel=2 note=61 velocity=38 time=0
EXTRACT: note_on channel=3 note=73 velocity=54 time=0
EXTRACT: note_on channel=4 note=49 velocity=68 time=0
EXTRACT: note_on channel=5 note=61 velocity=61 time=0
EXTRACT: note_on channel=6 note=68 velocity=41 time=0
EXTRACT: note_on channel=6 note=65 velocity=41 time=0
EXTRACT: note_on channel=6 note=61 velocity=41 time=0
EXTRACT: note_on channel=9 note=44 velocity=0 time=0.1
EXTRACT: note_on channel=9 note=54 velocity=0 time=0
EXTRACT: control_change channel=9 control=7 value=27 time=0.03333333333333333
EXTRACT: note_on channel=9 note=36 velocity=44 time=0.03333333333333333
EXTRACT: note_on channel=9 note=54 velocity=44 time=0
EXTRACT: control_change channel=1 control=7 value=33 time=0
EXTRACT: control_change channel=3 control=7 value=29 time=0
EXTRACT: control_change channel=4 control=7 value=26 time=0.03333333333333333
EXTRACT: control_change channel=5 control=7 value=23 time=0
EXTRACT: control_change channel=6 control=7 value=26 time=0
EXTRACT: control_change channel=2 control=7 value=26 time=0.03333333333333333
EXTRACT: note_on channel=9 note=36 velocity=0 time=0.016666666666666666
EXTRACT: note_on channel=5 note=61 velocity=0 time=0.03333333333333333
EXTRACT: note_on channel=4 note=49 velocity=0 time=0.016666666666666666
EXTRACT: note_on channel=9 note=54 velocity=0 time=0.03333333333333333
EXTRACT: note_on channel=3 note=73 velocity=0 time=0
EXTRACT: note_on channel=9 note=54 velocity=40 time=0.16666666666666666
EXTRACT: note_on channel=4 note=56 velocity=63 time=0
EXTRACT: note_on channel=1 note=37 velocity=0 time=0.016666666666666666
EXTRACT: note_on channel=9 note=54 velocity=0 time=0.08333333333333333
EXTRACT: control_change channel=4 control=7 value=27 time=0
EXTRACT: control_change channel=4 control=7 value=26 time=0.03333333333333333
EXTRACT: note_on channel=4 note=56 velocity=0 time=0.016666666666666666
EXTRACT: note_on channel=9 note=38 velocity=33 time=0.016666666666666666
EXTRACT: note_on channel=9 note=54 velocity=33 time=0
EXTRACT: note_on channel=9 note=42 velocity=33 time=0
EXTRACT: note_on channel=9 note=36 velocity=33 time=0
EXTRACT: note_on channel=9 note=44 velocity=33 time=0
EXTRACT: control_change channel=9 control=7 value=22 time=0
EXTRACT: note_on channel=9 note=40 velocity=33 time=0
EXTRACT: control_change channel=2 control=7 value=22 time=0
EXTRACT: note_on channel=3 note=70 velocity=45 time=0
EXTRACT: note_on channel=4 note=61 velocity=61 time=0
EXTRACT: note_on channel=5 note=58 velocity=47 time=0
EXTRACT: control_change channel=5 control=7 value=19 time=0
EXTRACT: control_change channel=6 control=7 value=23 time=0
EXTRACT: control_change channel=4 control=7 value=23 time=0.03333333333333333
EXTRACT: control_change channel=1 control=7 value=29 time=0.03333333333333333
EXTRACT: control_change channel=3 control=7 value=26 time=0
EXTRACT: note_on channel=9 note=42 velocity=0 time=0.03333333333333333
EXTRACT: note_on channel=9 note=40 velocity=0 time=0
EXTRACT: note_on channel=9 note=36 velocity=0 time=0
EXTRACT: note_on channel=9 note=38 velocity=0 time=0
EXTRACT: note_on channel=9 note=44 velocity=0 time=0.016666666666666666
EXTRACT: note_on channel=9 note=54 velocity=0 time=0
EXTRACT: note_on channel=4 note=61 velocity=0 time=0.1
EXTRACT: note_on channel=3 note=70 velocity=0 time=0.05
EXTRACT: note_on channel=5 note=58 velocity=0 time=0.016666666666666666
EXTRACT: note_on channel=9 note=54 velocity=33 time=0.05
EXTRACT: note_on channel=9 note=44 velocity=33 time=0
EXTRACT: note_on channel=4 note=49 velocity=54 time=0
EXTRACT: note_on channel=2 note=61 velocity=0 time=0.05
EXTRACT: note_on channel=6 note=61 velocity=0 time=0
EXTRACT: note_on channel=9 note=54 velocity=0 time=0.05
EXTRACT: note_on channel=9 note=44 velocity=0 time=0
EXTRACT: note_on channel=2 note=65 velocity=0 time=0
EXTRACT: note_on channel=6 note=65 velocity=0 time=0
EXTRACT: note_on channel=2 note=68 velocity=0 time=0.016666666666666666
EXTRACT: note_on channel=6 note=68 velocity=0 time=0
EXTRACT: control_change channel=2 control=7 value=17 time=0.016666666666666666
EXTRACT: note_on channel=4 note=49 velocity=0 time=0
EXTRACT: control_change channel=5 control=7 value=17 time=0
EXTRACT: control_change channel=6 control=7 value=20 time=0
EXTRACT: control_change channel=9 control=7 value=19 time=0.03333333333333333
EXTRACT: note_on channel=9 note=36 velocity=28 time=0
EXTRACT: note_on channel=9 note=54 velocity=28 time=0
EXTRACT: note_on channel=1 note=39 velocity=44 time=0
EXTRACT: note_on channel=2 note=63 velocity=28 time=0
EXTRACT: note_on channel=2 note=58 velocity=28 time=0
EXTRACT: note_on channel=2 note=67 velocity=28 time=0
EXTRACT: control_change channel=3 control=7 value=20 time=0
EXTRACT: note_on channel=3 note=68 velocity=37 time=0
EXTRACT: note_on channel=4 note=51 velocity=48 time=0
EXTRACT: control_change channel=6 control=7 value=19 time=0
EXTRACT: note_on channel=6 note=63 velocity=28 time=0
EXTRACT: note_on channel=6 note=58 velocity=28 time=0
EXTRACT: note_on channel=6 note=67 velocity=28 time=0
EXTRACT: control_change channel=1 control=7 value=22 time=0.03333333333333333
EXTRACT: control_change channel=3 control=7 value=19 time=0.03333333333333333
EXTRACT: control_change channel=4 control=7 value=19 time=0
EXTRACT: note_on channel=9 note=36 velocity=0 time=0.016666666666666666
EXTRACT: note_on channel=9 note=54 velocity=0 time=0.08333333333333333
EXTRACT: note_on channel=4 note=51 velocity=0 time=0
EXTRACT: control_change channel=2 control=7 value=13 time=0.1
EXTRACT: note_on channel=3 note=68 velocity=0 time=0.016666666666666666
EXTRACT: note_on channel=9 note=54 velocity=25 time=0.05
EXTRACT: note_on channel=3 note=68 velocity=33 time=0
EXTRACT: note_on channel=4 note=58 velocity=48 time=0
EXTRACT: note_on channel=9 note=54 velocity=0 time=0.1
EXTRACT: note_on channel=3 note=68 velocity=0 time=0.016666666666666666
EXTRACT: control_change channel=1 control=7 value=14 time=0.016666666666666666
EXTRACT: note_on channel=1 note=39 velocity=0 time=0.016666666666666666
EXTRACT: note_on channel=4 note=58 velocity=0 time=0
EXTRACT: note_on channel=9 note=40 velocity=24 time=0.016666666666666666
EXTRACT: note_on channel=9 note=36 velocity=24 time=0
EXTRACT: note_on channel=9 note=54 velocity=24 time=0
EXTRACT: note_on channel=9 note=42 velocity=24 time=0
EXTRACT: note_on channel=9 note=44 velocity=24 time=0
EXTRACT: note_on channel=9 note=38 velocity=24 time=0
EXTRACT: control_change channel=2 control=7 value=10 time=0
EXTRACT: note_on channel=3 note=68 velocity=27 time=0
EXTRACT: note_on channel=4 note=63 velocity=45 time=0
EXTRACT: control_change channel=4 control=7 value=12 time=0
EXTRACT: control_change channel=5 control=7 value=13 time=0
EXTRACT: control_change channel=9 control=7 value=14 time=0.03333333333333333
EXTRACT: control_change channel=3 control=7 value=14 time=0
EXTRACT: control_change channel=6 control=7 value=14 time=0
EXTRACT: note_on channel=9 note=40 velocity=0 time=0.06666666666666667
EXTRACT: note_on channel=9 note=38 velocity=0 time=0
EXTRACT: note_on channel=9 note=36 velocity=0 time=0
EXTRACT: note_on channel=9 note=42 velocity=0 time=0
EXTRACT: note_on channel=9 note=44 velocity=0 time=0.016666666666666666
EXTRACT: note_on channel=9 note=54 velocity=0 time=0
EXTRACT: control_change channel=9 control=7 value=13 time=0.08333333333333333
EXTRACT: note_on channel=4 note=63 velocity=0 time=0.016666666666666666
EXTRACT: note_on channel=2 note=63 velocity=0 time=0.03333333333333333
EXTRACT: note_on channel=6 note=63 velocity=0 time=0
EXTRACT: note_on channel=2 note=58 velocity=0 time=0.016666666666666666
EXTRACT: note_on channel=2 note=67 velocity=0 time=0
EXTRACT: note_on channel=6 note=67 velocity=0 time=0
EXTRACT: note_on channel=6 note=58 velocity=0 time=0
EXTRACT: note_on channel=3 note=68 velocity=0 time=0.016666666666666666
EXTRACT: note_on channel=9 note=44 velocity=21 time=0.05
EXTRACT: note_on channel=9 note=54 velocity=21 time=0
EXTRACT: note_on channel=1 note=30 velocity=34 time=0
EXTRACT: note_on channel=2 note=58 velocity=15 time=0
EXTRACT: note_on channel=2 note=66 velocity=15 time=0
EXTRACT: note_on channel=2 note=61 velocity=15 time=0
EXTRACT: note_on channel=3 note=67 velocity=22 time=0
EXTRACT: note_on channel=4 note=42 velocity=38 time=0
EXTRACT: note_on channel=5 note=65 velocity=25 time=0
EXTRACT: note_on channel=6 note=61 velocity=18 time=0
EXTRACT: note_on channel=6 note=66 velocity=18 time=0
EXTRACT: note_on channel=6 note=58 velocity=18 time=0
EXTRACT: note_on channel=9 note=54 velocity=0 time=0.1
EXTRACT: note_on channel=9 note=44 velocity=0 time=0
EXTRACT: note_on channel=9 note=54 velocity=18 time=0.06666666666666667
EXTRACT: note_on channel=9 note=36 velocity=18 time=0
EXTRACT: control_change channel=3 control=7 value=10 time=0
EXTRACT: control_change channel=5 control=7 value=10 time=0
EXTRACT: control_change channel=9 control=7 value=9 time=0.03333333333333333
EXTRACT: control_change channel=1 control=7 value=10 time=0
EXTRACT: control_change channel=4 control=7 value=9 time=0
EXTRACT: control_change channel=5 control=7 value=9 time=0
EXTRACT: control_change channel=6 control=7 value=9 time=0.03333333333333333
EXTRACT: note_on channel=9 note=36 velocity=0 time=0.016666666666666666
EXTRACT: control_change channel=2 control=7 value=7 time=0.016666666666666666
EXTRACT: note_on channel=5 note=65 velocity=0 time=0.016666666666666666
EXTRACT: note_on channel=4 note=42 velocity=0 time=0.03333333333333333
EXTRACT: note_on channel=9 note=54 velocity=0 time=0.016666666666666666
EXTRACT: control_change channel=9 control=7 value=7 time=0.06666666666666667
EXTRACT: note_on channel=1 note=30 velocity=0 time=0.08333333333333333
EXTRACT: note_on channel=9 note=54 velocity=15 time=0.016666666666666666
EXTRACT: note_on channel=4 note=49 velocity=33 time=0
EXTRACT: control_change channel=5 control=7 value=10 time=0
EXTRACT: note_on channel=9 note=54 velocity=0 time=0.1
EXTRACT: control_change channel=6 control=7 value=10 time=0
EXTRACT: note_on channel=3 note=67 velocity=0 time=0.016666666666666666
EXTRACT: control_change channel=3 control=7 value=7 time=0.016666666666666666
EXTRACT: note_on channel=4 note=49 velocity=0 time=0.016666666666666666
EXTRACT: note_on channel=9 note=54 velocity=14 time=0.016666666666666666
EXTRACT: note_on channel=9 note=38 velocity=14 time=0
EXTRACT: note_on channel=9 note=44 velocity=14 time=0
EXTRACT: note_on channel=9 note=42 velocity=14 time=0
EXTRACT: note_on channel=9 note=36 velocity=14 time=0
EXTRACT: note_on channel=9 note=40 velocity=14 time=0
EXTRACT: control_change channel=1 control=7 value=7 time=0
EXTRACT: control_change channel=2 control=7 value=4 time=0
EXTRACT: note_on channel=3 note=66 velocity=17 time=0
EXTRACT: note_on channel=4 note=54 velocity=27 time=0
EXTRACT: note_on channel=5 note=61 velocity=14 time=0
EXTRACT: control_change channel=5 control=7 value=9 time=0
EXTRACT: control_change channel=4 control=7 value=6 time=0.03333333333333333
EXTRACT: control_change channel=5 control=7 value=6 time=0
EXTRACT: control_change channel=6 control=7 value=7 time=0
EXTRACT: note_on channel=9 note=40 velocity=0 time=0.06666666666666667
EXTRACT: control_change channel=9 control=7 value=4 time=0
EXTRACT: note_on channel=9 note=38 velocity=0 time=0
EXTRACT: note_on channel=9 note=42 velocity=0 time=0
EXTRACT: note_on channel=9 note=36 velocity=0 time=0
EXTRACT: note_on channel=9 note=44 velocity=0 time=0.016666666666666666
EXTRACT: note_on channel=9 note=54 velocity=0 time=0
EXTRACT: note_on channel=4 note=54 velocity=0 time=0.1
EXTRACT: control_change channel=9 control=7 value=0 time=0.016666666666666666
EXTRACT: control_change channel=4 control=7 value=7 time=0
EXTRACT: control_change channel=5 control=7 value=0 time=0
EXTRACT: control_change channel=1 control=7 value=6 time=0.03333333333333333
EXTRACT: control_change channel=2 control=7 value=0 time=0
EXTRACT: control_change channel=3 control=7 value=0 time=0
EXTRACT: control_change channel=4 control=7 value=0 time=0
EXTRACT: control_change channel=6 control=7 value=0 time=0
EXTRACT: note_on channel=5 note=61 velocity=0 time=0.016666666666666666
EXTRACT: note_on channel=9 note=42 velocity=11 time=0.05
EXTRACT: note_on channel=1 note=30 velocity=22 time=0
EXTRACT: note_on channel=4 note=42 velocity=21 time=0
EXTRACT: note_on channel=9 note=54 velocity=11 time=0.041666666666666664
EXTRACT: control_change channel=1 control=7 value=4 time=0.025
EXTRACT: note_on channel=2 note=61 velocity=0 time=0
EXTRACT: note_on channel=2 note=66 velocity=0 time=0
EXTRACT: note_on channel=6 note=61 velocity=0 time=0
EXTRACT: note_on channel=6 note=66 velocity=0 time=0
EXTRACT: note_on channel=2 note=58 velocity=0 time=0.016666666666666666
EXTRACT: note_on channel=6 note=58 velocity=0 time=0
EXTRACT: note_on channel=9 note=42 velocity=0 time=0.016666666666666666
EXTRACT: control_change channel=1 control=7 value=3 time=0
EXTRACT: note_on channel=1 note=30 velocity=0 time=0.03333333333333333
EXTRACT: note_on channel=3 note=66 velocity=0 time=0
EXTRACT: note_on channel=9 note=54 velocity=0 time=0.008333333333333333
EXTRACT: note_on channel=4 note=42 velocity=0 time=0.008333333333333333
EXTRACT: control_change channel=1 control=7 value=1 time=0.21666666666666667
EXTRACT: control_change channel=1 control=7 value=0 time=0.16666666666666666
EXTRACT: note_on channel=9 note=54 velocity=11 time=0.6333333333333333
EXTRACT: note_on channel=9 note=54 velocity=0 time=0.1
EXTRACT: control_change channel=9 control=7 value=127 time=0.9
EXTRACT: control_change channel=1 control=7 value=99 time=0
EXTRACT: control_change channel=2 control=7 value=104 time=0
EXTRACT: control_change channel=3 control=7 value=89 time=0
EXTRACT: control_change channel=5 control=7 value=85 time=0
EXTRACT: control_change channel=6 control=7 value=109 time=0
EXTRACT: control_change channel=4 control=7 value=89 time=0.03333333333333333
INTERVALS0 - gwen_stefani-the_sweet_escape.mid
unison0
2m0
2M0
3m0
3M0
4m0
4M0
5m0
5M0
6m0
7m0
7M0