Bruno Mars - The Lazy Song.mid
EXTRACT: control_change channel=0 control=0 value=0 time=0
EXTRACT: control_change channel=0 control=32 value=0 time=0
EXTRACT: program_change channel=0 program=0 time=0
EXTRACT: control_change channel=0 control=10 value=61 time=0
EXTRACT: control_change channel=1 control=0 value=0 time=0
EXTRACT: control_change channel=1 control=32 value=0 time=0
EXTRACT: program_change channel=1 program=0 time=0
EXTRACT: control_change channel=1 control=10 value=61 time=0
EXTRACT: note_on channel=0 note=66 velocity=76 time=1.1999994999999999
EXTRACT: note_on channel=0 note=66 velocity=0 time=0.15499993541666665
EXTRACT: note_on channel=0 note=75 velocity=76 time=0.016428564583333333
EXTRACT: note_on channel=1 note=47 velocity=76 time=0
EXTRACT: note_on channel=0 note=75 velocity=0 time=0.3092855854166666
EXTRACT: note_on channel=1 note=47 velocity=0 time=0
EXTRACT: note_on channel=0 note=75 velocity=76 time=0.033571414583333334
EXTRACT: note_on channel=1 note=51 velocity=76 time=0
EXTRACT: note_on channel=1 note=54 velocity=76 time=0
EXTRACT: note_on channel=0 note=75 velocity=0 time=0.3092855854166666
EXTRACT: note_on channel=1 note=51 velocity=0 time=0
EXTRACT: note_on channel=1 note=54 velocity=0 time=0
EXTRACT: note_on channel=0 note=75 velocity=76 time=0.033571414583333334
EXTRACT: note_on channel=0 note=75 velocity=0 time=0.3092855854166666
EXTRACT: note_on channel=0 note=75 velocity=76 time=0.033571414583333334
EXTRACT: note_on channel=1 note=51 velocity=76 time=0
EXTRACT: note_on channel=1 note=54 velocity=76 time=0
EXTRACT: note_on channel=0 note=75 velocity=0 time=0.3092855854166666
EXTRACT: note_on channel=1 note=51 velocity=0 time=0
EXTRACT: note_on channel=1 note=54 velocity=0 time=0
EXTRACT: note_on channel=0 note=73 velocity=76 time=0.033571414583333334
EXTRACT: note_on channel=1 note=54 velocity=76 time=0
EXTRACT: note_on channel=0 note=73 velocity=0 time=0.3092855854166666
EXTRACT: note_on channel=1 note=54 velocity=0 time=0
EXTRACT: note_on channel=0 note=71 velocity=76 time=0.033571414583333334
EXTRACT: note_on channel=1 note=58 velocity=76 time=0
EXTRACT: note_on channel=1 note=61 velocity=76 time=0
EXTRACT: note_on channel=0 note=71 velocity=0 time=0.3092855854166666
EXTRACT: note_on channel=1 note=58 velocity=0 time=0
EXTRACT: note_on channel=1 note=61 velocity=0 time=0
EXTRACT: note_on channel=0 note=73 velocity=76 time=0.033571414583333334
EXTRACT: note_on channel=0 note=73 velocity=0 time=0.3092855854166666
EXTRACT: note_on channel=0 note=75 velocity=76 time=0.033571414583333334
EXTRACT: note_on channel=1 note=58 velocity=76 time=0
EXTRACT: note_on channel=1 note=61 velocity=76 time=0
EXTRACT: note_on channel=1 note=58 velocity=0 time=0.3092855854166666
EXTRACT: note_on channel=1 note=61 velocity=0 time=0
EXTRACT: note_on channel=1 note=52 velocity=76 time=0.033571414583333334
EXTRACT: note_on channel=0 note=75 velocity=0 time=0.15499993541666665
EXTRACT: note_on channel=0 note=71 velocity=76 time=0.016428564583333333
EXTRACT: note_on channel=1 note=52 velocity=0 time=0.13785708541666666
EXTRACT: note_on channel=0 note=71 velocity=0 time=0.017142849999999998
EXTRACT: note_on channel=0 note=68 velocity=76 time=0.016428564583333333
EXTRACT: note_on channel=1 note=56 velocity=76 time=0
EXTRACT: note_on channel=1 note=59 velocity=76 time=0
EXTRACT: note_on channel=0 note=68 velocity=0 time=0.3092855854166666
EXTRACT: note_on channel=1 note=56 velocity=0 time=0
EXTRACT: note_on channel=1 note=59 velocity=0 time=0
EXTRACT: note_on channel=1 note=56 velocity=76 time=0.3764284145833333
EXTRACT: note_on channel=1 note=59 velocity=76 time=0
EXTRACT: note_on channel=1 note=56 velocity=0 time=0.3092855854166666
EXTRACT: note_on channel=1 note=59 velocity=0 time=0
EXTRACT: note_on channel=0 note=71 velocity=76 time=0.033571414583333334
EXTRACT: note_on channel=1 note=52 velocity=76 time=0
EXTRACT: note_on channel=0 note=71 velocity=0 time=0.15499993541666665
EXTRACT: note_on channel=0 note=73 velocity=76 time=0.016428564583333333
EXTRACT: note_on channel=1 note=52 velocity=0 time=0.13785708541666666
EXTRACT: note_on channel=0 note=73 velocity=0 time=0.017142849999999998
EXTRACT: note_on channel=0 note=75 velocity=76 time=0.016428564583333333
EXTRACT: note_on channel=1 note=56 velocity=76 time=0
EXTRACT: note_on channel=1 note=59 velocity=76 time=0
EXTRACT: note_on channel=0 note=75 velocity=0 time=0.3092855854166666
EXTRACT: note_on channel=1 note=56 velocity=0 time=0
EXTRACT: note_on channel=1 note=59 velocity=0 time=0
EXTRACT: note_on channel=0 note=75 velocity=76 time=0.033571414583333334
EXTRACT: note_on channel=0 note=75 velocity=0 time=0.15499993541666665
EXTRACT: note_on channel=0 note=73 velocity=76 time=0.016428564583333333
EXTRACT: note_on channel=0 note=73 velocity=0 time=0.15499993541666665
EXTRACT: note_on channel=0 note=71 velocity=76 time=0.016428564583333333
EXTRACT: note_on channel=1 note=56 velocity=76 time=0
EXTRACT: note_on channel=1 note=59 velocity=76 time=0
EXTRACT: note_on channel=0 note=71 velocity=0 time=0.3092855854166666
EXTRACT: note_on channel=1 note=56 velocity=0 time=0
EXTRACT: note_on channel=1 note=59 velocity=0 time=0
EXTRACT: note_on channel=0 note=75 velocity=76 time=0.033571414583333334
EXTRACT: note_on channel=1 note=47 velocity=76 time=0
EXTRACT: note_on channel=0 note=75 velocity=0 time=0.3092855854166666
EXTRACT: note_on channel=1 note=47 velocity=0 time=0
EXTRACT: note_on channel=0 note=75 velocity=76 time=0.033571414583333334
EXTRACT: note_on channel=1 note=51 velocity=76 time=0
EXTRACT: note_on channel=1 note=54 velocity=76 time=0
EXTRACT: note_on channel=0 note=75 velocity=0 time=0.3092855854166666
EXTRACT: note_on channel=1 note=51 velocity=0 time=0
EXTRACT: note_on channel=1 note=54 velocity=0 time=0
EXTRACT: note_on channel=0 note=75 velocity=76 time=0.033571414583333334
EXTRACT: note_on channel=0 note=75 velocity=0 time=0.3092855854166666
EXTRACT: note_on channel=0 note=75 velocity=76 time=0.033571414583333334
EXTRACT: note_on channel=1 note=51 velocity=76 time=0
EXTRACT: note_on channel=1 note=54 velocity=76 time=0
EXTRACT: note_on channel=0 note=75 velocity=0 time=0.3092855854166666
EXTRACT: note_on channel=1 note=51 velocity=0 time=0
EXTRACT: note_on channel=1 note=54 velocity=0 time=0
EXTRACT: note_on channel=0 note=73 velocity=76 time=0.033571414583333334
EXTRACT: note_on channel=1 note=54 velocity=76 time=0
EXTRACT: note_on channel=0 note=73 velocity=0 time=0.3092855854166666
EXTRACT: note_on channel=1 note=54 velocity=0 time=0
EXTRACT: note_on channel=0 note=71 velocity=76 time=0.033571414583333334
EXTRACT: note_on channel=1 note=58 velocity=76 time=0
EXTRACT: note_on channel=1 note=61 velocity=76 time=0
EXTRACT: note_on channel=0 note=71 velocity=0 time=0.3092855854166666
EXTRACT: note_on channel=1 note=58 velocity=0 time=0
EXTRACT: note_on channel=1 note=61 velocity=0 time=0
EXTRACT: note_on channel=0 note=73 velocity=76 time=0.033571414583333334
EXTRACT: note_on channel=0 note=73 velocity=0 time=0.3092855854166666
EXTRACT: note_on channel=0 note=71 velocity=76 time=0.033571414583333334
EXTRACT: note_on channel=1 note=58 velocity=76 time=0
EXTRACT: note_on channel=1 note=61 velocity=76 time=0
EXTRACT: note_on channel=0 note=71 velocity=0 time=0.3092855854166666
EXTRACT: note_on channel=1 note=58 velocity=0 time=0
EXTRACT: note_on channel=1 note=61 velocity=0 time=0
EXTRACT: note_on channel=0 note=68 velocity=76 time=0.033571414583333334
EXTRACT: note_on channel=1 note=52 velocity=76 time=0
EXTRACT: note_on channel=1 note=52 velocity=0 time=0.3092855854166666
EXTRACT: note_on channel=1 note=56 velocity=76 time=0.033571414583333334
EXTRACT: note_on channel=1 note=59 velocity=76 time=0
EXTRACT: note_on channel=0 note=68 velocity=0 time=0.2757141708333333
EXTRACT: note_on channel=1 note=56 velocity=0 time=0.033571414583333334
EXTRACT: note_on channel=1 note=59 velocity=0 time=0
EXTRACT: note_on channel=1 note=56 velocity=76 time=0.3764284145833333
EXTRACT: note_on channel=1 note=59 velocity=76 time=0
EXTRACT: note_on channel=1 note=56 velocity=0 time=0.3092855854166666
EXTRACT: note_on channel=1 note=59 velocity=0 time=0
EXTRACT: note_on channel=0 note=71 velocity=76 time=0.033571414583333334
EXTRACT: note_on channel=1 note=52 velocity=76 time=0
EXTRACT: note_on channel=0 note=71 velocity=0 time=0.15499993541666665
EXTRACT: note_on channel=0 note=73 velocity=76 time=0.016428564583333333
EXTRACT: note_on channel=1 note=52 velocity=0 time=0.13785708541666666
EXTRACT: note_on channel=0 note=73 velocity=0 time=0.017142849999999998
EXTRACT: note_on channel=0 note=75 velocity=76 time=0.016428564583333333
EXTRACT: note_on channel=1 note=56 velocity=76 time=0
EXTRACT: note_on channel=1 note=59 velocity=76 time=0
EXTRACT: note_on channel=0 note=75 velocity=0 time=0.3092855854166666
EXTRACT: note_on channel=1 note=56 velocity=0 time=0
EXTRACT: note_on channel=1 note=59 velocity=0 time=0
EXTRACT: note_on channel=0 note=75 velocity=76 time=0.033571414583333334
EXTRACT: note_on channel=0 note=75 velocity=0 time=0.15499993541666665
EXTRACT: note_on channel=0 note=73 velocity=76 time=0.016428564583333333
EXTRACT: note_on channel=0 note=73 velocity=0 time=0.15499993541666665
EXTRACT: note_on channel=0 note=71 velocity=76 time=0.016428564583333333
EXTRACT: note_on channel=1 note=56 velocity=76 time=0
EXTRACT: note_on channel=1 note=59 velocity=76 time=0
EXTRACT: note_on channel=0 note=71 velocity=0 time=0.3092855854166666
EXTRACT: note_on channel=1 note=56 velocity=0 time=0
EXTRACT: note_on channel=1 note=59 velocity=0 time=0
EXTRACT: note_on channel=0 note=75 velocity=76 time=0.033571414583333334
EXTRACT: note_on channel=1 note=47 velocity=76 time=0
EXTRACT: note_on channel=0 note=75 velocity=0 time=0.3092855854166666
EXTRACT: note_on channel=1 note=47 velocity=0 time=0
EXTRACT: note_on channel=0 note=78 velocity=76 time=0.033571414583333334
EXTRACT: note_on channel=1 note=51 velocity=76 time=0
EXTRACT: note_on channel=1 note=54 velocity=76 time=0
EXTRACT: note_on channel=0 note=78 velocity=0 time=0.3092855854166666
EXTRACT: note_on channel=1 note=51 velocity=0 time=0
EXTRACT: note_on channel=1 note=54 velocity=0 time=0
EXTRACT: note_on channel=0 note=78 velocity=76 time=0.033571414583333334
EXTRACT: note_on channel=0 note=78 velocity=0 time=0.15499993541666665
EXTRACT: note_on channel=0 note=75 velocity=76 time=0.016428564583333333
EXTRACT: note_on channel=1 note=51 velocity=76 time=0.17142849999999998
EXTRACT: note_on channel=1 note=54 velocity=76 time=0
EXTRACT: note_on channel=0 note=75 velocity=0 time=0.13785708541666666
EXTRACT: note_on channel=0 note=80 velocity=76 time=0.033571414583333334
EXTRACT: note_on channel=1 note=51 velocity=0 time=0.13785708541666666
EXTRACT: note_on channel=1 note=54 velocity=0 time=0
EXTRACT: note_on channel=1 note=54 velocity=76 time=0.033571414583333334
EXTRACT: note_on channel=0 note=80 velocity=0 time=0.15499993541666665
EXTRACT: note_on channel=0 note=78 velocity=76 time=0.016428564583333333
EXTRACT: note_on channel=1 note=54 velocity=0 time=0.13785708541666666
EXTRACT: note_on channel=1 note=58 velocity=76 time=0.033571414583333334
EXTRACT: note_on channel=1 note=61 velocity=76 time=0
EXTRACT: note_on channel=0 note=78 velocity=0 time=0.13785708541666666
EXTRACT: note_on channel=0 note=80 velocity=76 time=0.033571414583333334
EXTRACT: note_on channel=1 note=58 velocity=0 time=0.13785708541666666
EXTRACT: note_on channel=1 note=61 velocity=0 time=0
EXTRACT: note_on channel=0 note=80 velocity=0 time=0.34285699999999997
EXTRACT: note_on channel=1 note=58 velocity=76 time=0.033571414583333334
EXTRACT: note_on channel=1 note=61 velocity=76 time=0
EXTRACT: note_on channel=0 note=71 velocity=76 time=0.17142849999999998
EXTRACT: note_on channel=1 note=58 velocity=0 time=0.13785708541666666
EXTRACT: note_on channel=1 note=61 velocity=0 time=0
EXTRACT: note_on channel=0 note=71 velocity=0 time=0.017142849999999998
EXTRACT: note_on channel=0 note=80 velocity=76 time=0.016428564583333333
EXTRACT: note_on channel=1 note=52 velocity=76 time=0
EXTRACT: note_on channel=0 note=80 velocity=0 time=0.3092855854166666
EXTRACT: note_on channel=1 note=52 velocity=0 time=0
EXTRACT: note_on channel=0 note=78 velocity=76 time=0.033571414583333334
EXTRACT: note_on channel=1 note=56 velocity=76 time=0
EXTRACT: note_on channel=1 note=59 velocity=76 time=0
EXTRACT: note_on channel=0 note=78 velocity=0 time=0.15499993541666665
EXTRACT: note_on channel=0 note=75 velocity=76 time=0.016428564583333333
EXTRACT: note_on channel=1 note=56 velocity=0 time=0.13785708541666666
EXTRACT: note_on channel=1 note=59 velocity=0 time=0
EXTRACT: note_on channel=0 note=75 velocity=0 time=0.18857134999999997
EXTRACT: note_on channel=0 note=73 velocity=76 time=0.016428564583333333
EXTRACT: note_on channel=1 note=56 velocity=76 time=0.17142849999999998
EXTRACT: note_on channel=1 note=59 velocity=76 time=0
EXTRACT: note_on channel=0 note=73 velocity=0 time=0.13785708541666666
EXTRACT: note_on channel=0 note=73 velocity=76 time=0.033571414583333334
EXTRACT: note_on channel=1 note=56 velocity=0 time=0.13785708541666666
EXTRACT: note_on channel=1 note=59 velocity=0 time=0
EXTRACT: note_on channel=1 note=52 velocity=76 time=0.033571414583333334
EXTRACT: note_on channel=0 note=73 velocity=0 time=0.15499993541666665
EXTRACT: note_on channel=0 note=75 velocity=76 time=0.016428564583333333
EXTRACT: note_on channel=1 note=52 velocity=0 time=0.13785708541666666
EXTRACT: note_on channel=1 note=56 velocity=76 time=0.033571414583333334
EXTRACT: note_on channel=1 note=59 velocity=76 time=0
EXTRACT: note_on channel=0 note=75 velocity=0 time=0.13785708541666666
EXTRACT: note_on channel=0 note=71 velocity=76 time=0.033571414583333334
EXTRACT: note_on channel=1 note=56 velocity=0 time=0.13785708541666666
EXTRACT: note_on channel=1 note=59 velocity=0 time=0
EXTRACT: note_on channel=0 note=71 velocity=0 time=0.017142849999999998
EXTRACT: note_on channel=0 note=68 velocity=76 time=0.016428564583333333
EXTRACT: note_on channel=0 note=68 velocity=0 time=0.3092855854166666
EXTRACT: note_on channel=0 note=68 velocity=76 time=0.033571414583333334
EXTRACT: note_on channel=1 note=56 velocity=76 time=0
EXTRACT: note_on channel=1 note=59 velocity=76 time=0
EXTRACT: note_on channel=0 note=68 velocity=0 time=0.15499993541666665
EXTRACT: note_on channel=0 note=71 velocity=76 time=0.016428564583333333
EXTRACT: note_on channel=1 note=56 velocity=0 time=0.13785708541666666
EXTRACT: note_on channel=1 note=59 velocity=0 time=0
EXTRACT: note_on channel=0 note=71 velocity=0 time=0.017142849999999998
EXTRACT: note_on channel=0 note=75 velocity=76 time=0.016428564583333333
EXTRACT: note_on channel=1 note=47 velocity=76 time=0
EXTRACT: note_on channel=0 note=75 velocity=0 time=0.3092855854166666
EXTRACT: note_on channel=1 note=47 velocity=0 time=0
EXTRACT: note_on channel=0 note=75 velocity=76 time=0.033571414583333334
EXTRACT: note_on channel=1 note=51 velocity=76 time=0
EXTRACT: note_on channel=1 note=54 velocity=76 time=0
EXTRACT: note_on channel=0 note=75 velocity=0 time=0.3092855854166666
EXTRACT: note_on channel=1 note=51 velocity=0 time=0
EXTRACT: note_on channel=1 note=54 velocity=0 time=0
EXTRACT: note_on channel=0 note=75 velocity=76 time=0.033571414583333334
EXTRACT: note_on channel=0 note=75 velocity=0 time=0.3092855854166666
EXTRACT: note_on channel=0 note=75 velocity=76 time=0.033571414583333334
EXTRACT: note_on channel=1 note=51 velocity=76 time=0
EXTRACT: note_on channel=1 note=54 velocity=76 time=0
EXTRACT: note_on channel=0 note=75 velocity=0 time=0.3092855854166666
EXTRACT: note_on channel=1 note=51 velocity=0 time=0
EXTRACT: note_on channel=1 note=54 velocity=0 time=0
EXTRACT: note_on channel=0 note=73 velocity=76 time=0.033571414583333334
EXTRACT: note_on channel=1 note=51 velocity=76 time=0
EXTRACT: note_on channel=0 note=73 velocity=0 time=0.3092855854166666
EXTRACT: note_on channel=1 note=51 velocity=0 time=0
EXTRACT: note_on channel=0 note=71 velocity=76 time=0.033571414583333334
EXTRACT: note_on channel=1 note=54 velocity=76 time=0
EXTRACT: note_on channel=1 note=58 velocity=76 time=0
EXTRACT: note_on channel=0 note=71 velocity=0 time=0.3092855854166666
EXTRACT: note_on channel=1 note=54 velocity=0 time=0
EXTRACT: note_on channel=1 note=58 velocity=0 time=0
EXTRACT: note_on channel=0 note=73 velocity=76 time=0.033571414583333334
EXTRACT: note_on channel=0 note=73 velocity=0 time=0.3092855854166666
EXTRACT: note_on channel=0 note=75 velocity=76 time=0.033571414583333334
EXTRACT: note_on channel=1 note=54 velocity=76 time=0
EXTRACT: note_on channel=1 note=58 velocity=76 time=0
EXTRACT: note_on channel=1 note=54 velocity=0 time=0.3092855854166666
EXTRACT: note_on channel=1 note=58 velocity=0 time=0
EXTRACT: note_on channel=1 note=52 velocity=76 time=0.033571414583333334
EXTRACT: note_on channel=0 note=75 velocity=0 time=0.15499993541666665
EXTRACT: note_on channel=0 note=71 velocity=76 time=0.016428564583333333
EXTRACT: note_on channel=1 note=52 velocity=0 time=0.13785708541666666
EXTRACT: note_on channel=0 note=71 velocity=0 time=0.017142849999999998
EXTRACT: note_on channel=0 note=68 velocity=76 time=0.016428564583333333
EXTRACT: note_on channel=1 note=56 velocity=76 time=0
EXTRACT: note_on channel=1 note=59 velocity=76 time=0
EXTRACT: note_on channel=0 note=68 velocity=0 time=0.3092855854166666
EXTRACT: note_on channel=1 note=56 velocity=0 time=0
EXTRACT: note_on channel=1 note=59 velocity=0 time=0
EXTRACT: note_on channel=1 note=56 velocity=76 time=0.3764284145833333
EXTRACT: note_on channel=1 note=59 velocity=76 time=0
EXTRACT: note_on channel=1 note=56 velocity=0 time=0.3092855854166666
EXTRACT: note_on channel=1 note=59 velocity=0 time=0
EXTRACT: note_on channel=1 note=52 velocity=76 time=0.033571414583333334
EXTRACT: note_on channel=1 note=56 velocity=76 time=0
EXTRACT: note_on channel=1 note=59 velocity=76 time=0
EXTRACT: note_on channel=1 note=52 velocity=0 time=0.3092855854166666
EXTRACT: note_on channel=1 note=56 velocity=0 time=0
EXTRACT: note_on channel=1 note=59 velocity=0 time=0
EXTRACT: note_on channel=1 note=42 velocity=76 time=0.3764284145833333
EXTRACT: note_on channel=1 note=54 velocity=76 time=0
EXTRACT: note_on channel=0 note=71 velocity=76 time=0.17142849999999998
EXTRACT: note_on channel=1 note=42 velocity=0 time=0.13785708541666666
EXTRACT: note_on channel=1 note=54 velocity=0 time=0
EXTRACT: note_on channel=0 note=71 velocity=0 time=0.017142849999999998
EXTRACT: note_on channel=0 note=71 velocity=76 time=0.016428564583333333
EXTRACT: note_on channel=1 note=44 velocity=76 time=0
EXTRACT: note_on channel=1 note=56 velocity=76 time=0
EXTRACT: note_on channel=0 note=71 velocity=0 time=0.15499993541666665
EXTRACT: note_on channel=0 note=73 velocity=76 time=0.016428564583333333
EXTRACT: note_on channel=1 note=44 velocity=0 time=0.13785708541666666
EXTRACT: note_on channel=1 note=56 velocity=0 time=0
EXTRACT: note_on channel=0 note=73 velocity=0 time=0.017142849999999998
EXTRACT: note_on channel=0 note=75 velocity=76 time=0.016428564583333333
EXTRACT: note_on channel=1 note=35 velocity=76 time=0
EXTRACT: note_on channel=1 note=47 velocity=76 time=0
EXTRACT: note_on channel=0 note=75 velocity=0 time=0.15499993541666665
EXTRACT: note_on channel=0 note=73 velocity=76 time=0.016428564583333333
EXTRACT: note_on channel=1 note=35 velocity=0 time=0.13785708541666666
EXTRACT: note_on channel=1 note=47 velocity=0 time=0
EXTRACT: note_on channel=0 note=73 velocity=0 time=0.017142849999999998
EXTRACT: note_on channel=0 note=66 velocity=76 time=0.016428564583333333
EXTRACT: note_on channel=0 note=75 velocity=76 time=0
EXTRACT: note_on channel=1 note=35 velocity=76 time=0
EXTRACT: note_on channel=1 note=47 velocity=76 time=0
EXTRACT: note_on channel=0 note=66 velocity=0 time=0.3092855854166666
EXTRACT: note_on channel=0 note=75 velocity=0 time=0
EXTRACT: note_on channel=1 note=35 velocity=0 time=0
EXTRACT: note_on channel=1 note=47 velocity=0 time=0
EXTRACT: note_on channel=0 note=75 velocity=76 time=0.033571414583333334
EXTRACT: note_on channel=1 note=51 velocity=76 time=0
EXTRACT: note_on channel=1 note=54 velocity=76 time=0
EXTRACT: note_on channel=1 note=59 velocity=76 time=0
EXTRACT: note_on channel=0 note=75 velocity=0 time=0.3092855854166666
EXTRACT: note_on channel=0 note=66 velocity=76 time=0.033571414583333334
EXTRACT: note_on channel=0 note=75 velocity=76 time=0
EXTRACT: note_on channel=1 note=51 velocity=0 time=0.11999995
EXTRACT: note_on channel=1 note=54 velocity=0 time=0
EXTRACT: note_on channel=1 note=59 velocity=0 time=0
EXTRACT: note_on channel=1 note=47 velocity=76 time=0.051428549999999996
EXTRACT: note_on channel=0 note=66 velocity=0 time=0.13785708541666666
EXTRACT: note_on channel=0 note=75 velocity=0 time=0
EXTRACT: note_on channel=1 note=47 velocity=0 time=0.017142849999999998
EXTRACT: note_on channel=0 note=73 velocity=76 time=0.016428564583333333
EXTRACT: note_on channel=1 note=42 velocity=76 time=0
EXTRACT: note_on channel=1 note=54 velocity=76 time=0
EXTRACT: note_on channel=0 note=73 velocity=0 time=0.15499993541666665
EXTRACT: note_on channel=0 note=66 velocity=76 time=0.016428564583333333
EXTRACT: note_on channel=0 note=73 velocity=76 time=0
EXTRACT: note_on channel=1 note=42 velocity=0 time=0.13785708541666666
EXTRACT: note_on channel=1 note=54 velocity=0 time=0
EXTRACT: note_on channel=1 note=42 velocity=76 time=0.033571414583333334
EXTRACT: note_on channel=1 note=54 velocity=76 time=0
EXTRACT: note_on channel=0 note=66 velocity=0 time=0.13785708541666666
EXTRACT: note_on channel=0 note=73 velocity=0 time=0
EXTRACT: note_on channel=0 note=71 velocity=76 time=0.033571414583333334
EXTRACT: note_on channel=1 note=42 velocity=0 time=0.13785708541666666
EXTRACT: note_on channel=1 note=54 velocity=0 time=0
EXTRACT: note_on channel=0 note=71 velocity=0 time=0.017142849999999998
EXTRACT: note_on channel=0 note=75 velocity=76 time=0.016428564583333333
EXTRACT: note_on channel=1 note=54 velocity=76 time=0
EXTRACT: note_on channel=1 note=58 velocity=76 time=0
EXTRACT: note_on channel=1 note=61 velocity=76 time=0
EXTRACT: note_on channel=0 note=75 velocity=0 time=0.3092855854166666
EXTRACT: note_on channel=0 note=66 velocity=76 time=0.033571414583333334
EXTRACT: note_on channel=0 note=73 velocity=76 time=0
EXTRACT: note_on channel=1 note=54 velocity=0 time=0.11999995
EXTRACT: note_on channel=1 note=58 velocity=0 time=0
EXTRACT: note_on channel=1 note=61 velocity=0 time=0
EXTRACT: note_on channel=1 note=42 velocity=76 time=0.051428549999999996
EXTRACT: note_on channel=1 note=54 velocity=76 time=0
EXTRACT: note_on channel=0 note=66 velocity=0 time=0.13785708541666666
EXTRACT: note_on channel=0 note=73 velocity=0 time=0
EXTRACT: note_on channel=1 note=42 velocity=0 time=0.017142849999999998
EXTRACT: note_on channel=1 note=54 velocity=0 time=0
EXTRACT: note_on channel=0 note=73 velocity=76 time=0.016428564583333333
EXTRACT: note_on channel=1 note=40 velocity=76 time=0
EXTRACT: note_on channel=1 note=52 velocity=76 time=0
EXTRACT: note_on channel=0 note=73 velocity=0 time=0.15499993541666665
EXTRACT: note_on channel=0 note=71 velocity=76 time=0.016428564583333333
EXTRACT: note_on channel=1 note=40 velocity=0 time=0.13785708541666666
EXTRACT: note_on channel=1 note=52 velocity=0 time=0
EXTRACT: note_on channel=0 note=71 velocity=0 time=0.017142849999999998
EXTRACT: note_on channel=0 note=68 velocity=76 time=0.016428564583333333
EXTRACT: note_on channel=0 note=73 velocity=76 time=0
EXTRACT: note_on channel=1 note=40 velocity=76 time=0
EXTRACT: note_on channel=1 note=52 velocity=76 time=0
EXTRACT: note_on channel=0 note=68 velocity=0 time=0.15499993541666665
EXTRACT: note_on channel=0 note=73 velocity=0 time=0
EXTRACT: note_on channel=0 note=71 velocity=76 time=0.016428564583333333
EXTRACT: note_on channel=1 note=40 velocity=0 time=0.13785708541666666
EXTRACT: note_on channel=1 note=52 velocity=0 time=0
EXTRACT: note_on channel=0 note=71 velocity=0 time=0.017142849999999998
EXTRACT: note_on channel=0 note=68 velocity=76 time=0.016428564583333333
EXTRACT: note_on channel=0 note=73 velocity=76 time=0
EXTRACT: note_on channel=1 note=52 velocity=76 time=0
EXTRACT: note_on channel=1 note=56 velocity=76 time=0
EXTRACT: note_on channel=1 note=59 velocity=76 time=0
EXTRACT: note_on channel=0 note=68 velocity=0 time=0.3092855854166666
EXTRACT: note_on channel=0 note=73 velocity=0 time=0
EXTRACT: note_on channel=0 note=73 velocity=76 time=0.033571414583333334
EXTRACT: note_on channel=1 note=52 velocity=0 time=0.11999995
EXTRACT: note_on channel=1 note=56 velocity=0 time=0
EXTRACT: note_on channel=1 note=59 velocity=0 time=0
EXTRACT: note_on channel=0 note=73 velocity=0 time=0.034999985416666664
EXTRACT: note_on channel=0 note=71 velocity=76 time=0.016428564583333333
EXTRACT: note_on channel=1 note=47 velocity=76 time=0
EXTRACT: note_on channel=0 note=71 velocity=0 time=0.15499993541666665
EXTRACT: note_on channel=1 note=47 velocity=0 time=0
EXTRACT: note_on channel=0 note=73 velocity=76 time=0.016428564583333333
EXTRACT: note_on channel=1 note=40 velocity=76 time=0
EXTRACT: note_on channel=1 note=52 velocity=76 time=0
EXTRACT: note_on channel=0 note=73 velocity=0 time=0.3092855854166666
EXTRACT: note_on channel=1 note=40 velocity=0 time=0
EXTRACT: note_on channel=1 note=52 velocity=0 time=0
EXTRACT: note_on channel=0 note=68 velocity=76 time=0.033571414583333334
EXTRACT: note_on channel=0 note=73 velocity=76 time=0
EXTRACT: note_on channel=1 note=40 velocity=76 time=0
EXTRACT: note_on channel=1 note=52 velocity=76 time=0
EXTRACT: note_on channel=0 note=68 velocity=0 time=0.15499993541666665
EXTRACT: note_on channel=0 note=73 velocity=0 time=0
EXTRACT: note_on channel=0 note=71 velocity=76 time=0.016428564583333333
EXTRACT: note_on channel=1 note=40 velocity=0 time=0.13785708541666666
EXTRACT: note_on channel=1 note=52 velocity=0 time=0
EXTRACT: note_on channel=0 note=71 velocity=0 time=0.017142849999999998
EXTRACT: note_on channel=0 note=75 velocity=76 time=0.016428564583333333
EXTRACT: note_on channel=1 note=39 velocity=76 time=0
EXTRACT: note_on channel=1 note=51 velocity=76 time=0
EXTRACT: note_on channel=0 note=75 velocity=0 time=0.3092855854166666
EXTRACT: note_on channel=1 note=39 velocity=0 time=0
EXTRACT: note_on channel=1 note=51 velocity=0 time=0
EXTRACT: note_on channel=0 note=68 velocity=76 time=0.033571414583333334
EXTRACT: note_on channel=0 note=73 velocity=76 time=0
EXTRACT: note_on channel=1 note=37 velocity=76 time=0
EXTRACT: note_on channel=1 note=49 velocity=76 time=0
EXTRACT: note_on channel=0 note=68 velocity=0 time=0.3092855854166666
EXTRACT: note_on channel=0 note=73 velocity=0 time=0
EXTRACT: note_on channel=1 note=37 velocity=0 time=0
EXTRACT: note_on channel=1 note=49 velocity=0 time=0
EXTRACT: note_on channel=0 note=75 velocity=76 time=0.033571414583333334
EXTRACT: note_on channel=1 note=35 velocity=76 time=0
EXTRACT: note_on channel=1 note=47 velocity=76 time=0
EXTRACT: note_on channel=0 note=75 velocity=0 time=0.3092855854166666
EXTRACT: note_on channel=1 note=35 velocity=0 time=0
EXTRACT: note_on channel=1 note=47 velocity=0 time=0
EXTRACT: note_on channel=0 note=71 velocity=76 time=0.033571414583333334
EXTRACT: note_on channel=0 note=78 velocity=76 time=0
EXTRACT: note_on channel=1 note=35 velocity=76 time=0
EXTRACT: note_on channel=1 note=47 velocity=76 time=0
EXTRACT: note_on channel=0 note=71 velocity=0 time=0.3092855854166666
EXTRACT: note_on channel=0 note=78 velocity=0 time=0
EXTRACT: note_on channel=1 note=35 velocity=0 time=0
EXTRACT: note_on channel=1 note=47 velocity=0 time=0
EXTRACT: note_on channel=0 note=78 velocity=76 time=0.033571414583333334
EXTRACT: note_on channel=1 note=51 velocity=76 time=0
EXTRACT: note_on channel=1 note=54 velocity=76 time=0
EXTRACT: note_on channel=1 note=59 velocity=76 time=0
EXTRACT: note_on channel=0 note=78 velocity=0 time=0.3092855854166666
EXTRACT: note_on channel=0 note=71 velocity=76 time=0.033571414583333334
EXTRACT: note_on channel=0 note=80 velocity=76 time=0
EXTRACT: note_on channel=1 note=51 velocity=0 time=0.11999995
EXTRACT: note_on channel=1 note=54 velocity=0 time=0
EXTRACT: note_on channel=1 note=59 velocity=0 time=0
EXTRACT: note_on channel=1 note=47 velocity=76 time=0.051428549999999996
EXTRACT: note_on channel=0 note=71 velocity=0 time=0.13785708541666666
EXTRACT: note_on channel=0 note=80 velocity=0 time=0
EXTRACT: note_on channel=1 note=47 velocity=0 time=0.017142849999999998
EXTRACT: note_on channel=0 note=73 velocity=76 time=0.016428564583333333
EXTRACT: note_on channel=1 note=42 velocity=76 time=0
EXTRACT: note_on channel=1 note=54 velocity=76 time=0
EXTRACT: note_on channel=0 note=73 velocity=0 time=0.3092855854166666
EXTRACT: note_on channel=1 note=42 velocity=0 time=0
EXTRACT: note_on channel=1 note=54 velocity=0 time=0
EXTRACT: note_on channel=0 note=70 velocity=76 time=0.033571414583333334
EXTRACT: note_on channel=0 note=73 velocity=76 time=0
EXTRACT: note_on channel=1 note=42 velocity=76 time=0
EXTRACT: note_on channel=1 note=54 velocity=76 time=0
EXTRACT: note_on channel=0 note=70 velocity=0 time=0.3092855854166666
EXTRACT: note_on channel=0 note=73 velocity=0 time=0
EXTRACT: note_on channel=1 note=42 velocity=0 time=0
EXTRACT: note_on channel=1 note=54 velocity=0 time=0
EXTRACT: note_on channel=0 note=75 velocity=76 time=0.033571414583333334
EXTRACT: note_on channel=1 note=54 velocity=76 time=0
EXTRACT: note_on channel=1 note=58 velocity=76 time=0
EXTRACT: note_on channel=1 note=61 velocity=76 time=0
EXTRACT: note_on channel=0 note=75 velocity=0 time=0.3092855854166666
EXTRACT: note_on channel=0 note=66 velocity=76 time=0.033571414583333334
EXTRACT: note_on channel=0 note=71 velocity=76 time=0
EXTRACT: note_on channel=1 note=54 velocity=0 time=0.11999995
EXTRACT: note_on channel=1 note=58 velocity=0 time=0
EXTRACT: note_on channel=1 note=61 velocity=0 time=0
EXTRACT: note_on channel=1 note=42 velocity=76 time=0.051428549999999996
EXTRACT: note_on channel=1 note=54 velocity=76 time=0
EXTRACT: note_on channel=0 note=66 velocity=0 time=0.13785708541666666
EXTRACT: note_on channel=0 note=71 velocity=0 time=0
EXTRACT: note_on channel=1 note=42 velocity=0 time=0.017142849999999998
EXTRACT: note_on channel=1 note=54 velocity=0 time=0
EXTRACT: note_on channel=0 note=68 velocity=76 time=0.016428564583333333
EXTRACT: note_on channel=1 note=40 velocity=76 time=0
EXTRACT: note_on channel=1 note=52 velocity=76 time=0
EXTRACT: note_on channel=1 note=40 velocity=0 time=0.3092855854166666
EXTRACT: note_on channel=1 note=52 velocity=0 time=0
EXTRACT: note_on channel=1 note=40 velocity=76 time=0.033571414583333334
EXTRACT: note_on channel=1 note=52 velocity=76 time=0
EXTRACT: note_on channel=0 note=68 velocity=0 time=0.2757141708333333
EXTRACT: note_on channel=1 note=40 velocity=0 time=0.033571414583333334
EXTRACT: note_on channel=1 note=52 velocity=0 time=0
EXTRACT: note_on channel=1 note=52 velocity=76 time=0.033571414583333334
EXTRACT: note_on channel=1 note=56 velocity=76 time=0
EXTRACT: note_on channel=1 note=59 velocity=76 time=0
EXTRACT: note_on channel=1 note=52 velocity=0 time=0.46285694999999993
EXTRACT: note_on channel=1 note=56 velocity=0 time=0
EXTRACT: note_on channel=1 note=59 velocity=0 time=0
EXTRACT: note_on channel=1 note=47 velocity=76 time=0.051428549999999996
EXTRACT: note_on channel=1 note=47 velocity=0 time=0.15499993541666665
EXTRACT: note_on channel=1 note=40 velocity=76 time=0.016428564583333333
EXTRACT: note_on channel=1 note=52 velocity=76 time=0
EXTRACT: note_on channel=1 note=40 velocity=0 time=0.3092855854166666
EXTRACT: note_on channel=1 note=52 velocity=0 time=0
EXTRACT: note_on channel=0 note=64 velocity=76 time=0.033571414583333334
EXTRACT: note_on channel=0 note=71 velocity=76 time=0
EXTRACT: note_on channel=1 note=40 velocity=76 time=0
EXTRACT: note_on channel=1 note=52 velocity=76 time=0
EXTRACT: note_on channel=1 note=40 velocity=0 time=0.3092855854166666
EXTRACT: note_on channel=1 note=52 velocity=0 time=0
EXTRACT: note_on channel=1 note=39 velocity=76 time=0.033571414583333334
EXTRACT: note_on channel=1 note=51 velocity=76 time=0
EXTRACT: note_on channel=0 note=64 velocity=0 time=0.2757141708333333
EXTRACT: note_on channel=0 note=71 velocity=0 time=0
EXTRACT: note_on channel=1 note=39 velocity=0 time=0.033571414583333334
EXTRACT: note_on channel=1 note=51 velocity=0 time=0
EXTRACT: note_on channel=0 note=71 velocity=76 time=0.033571414583333334
EXTRACT: note_on channel=1 note=37 velocity=76 time=0
EXTRACT: note_on channel=1 note=49 velocity=76 time=0
EXTRACT: note_on channel=0 note=71 velocity=0 time=0.15499993541666665
EXTRACT: note_on channel=0 note=73 velocity=76 time=0.016428564583333333
EXTRACT: note_on channel=1 note=37 velocity=0 time=0.13785708541666666
EXTRACT: note_on channel=1 note=49 velocity=0 time=0
EXTRACT: note_on channel=0 note=73 velocity=0 time=0.017142849999999998
EXTRACT: note_on channel=0 note=75 velocity=76 time=0.016428564583333333
EXTRACT: note_on channel=1 note=35 velocity=76 time=0
EXTRACT: note_on channel=1 note=47 velocity=76 time=0
EXTRACT: note_on channel=0 note=75 velocity=0 time=0.15499993541666665
EXTRACT: note_on channel=0 note=73 velocity=76 time=0.016428564583333333
EXTRACT: note_on channel=1 note=35 velocity=0 time=0.13785708541666666
EXTRACT: note_on channel=1 note=47 velocity=0 time=0
EXTRACT: note_on channel=0 note=73 velocity=0 time=0.017142849999999998
EXTRACT: note_on channel=0 note=66 velocity=76 time=0.016428564583333333
EXTRACT: note_on channel=0 note=75 velocity=76 time=0
EXTRACT: note_on channel=1 note=35 velocity=76 time=0
EXTRACT: note_on channel=1 note=47 velocity=76 time=0
EXTRACT: note_on channel=0 note=66 velocity=0 time=0.15499993541666665
EXTRACT: note_on channel=0 note=75 velocity=0 time=0
EXTRACT: note_on channel=0 note=73 velocity=76 time=0.016428564583333333
EXTRACT: note_on channel=1 note=35 velocity=0 time=0.13785708541666666
EXTRACT: note_on channel=1 note=47 velocity=0 time=0
EXTRACT: note_on channel=0 note=73 velocity=0 time=0.017142849999999998
EXTRACT: note_on channel=0 note=75 velocity=76 time=0.016428564583333333
EXTRACT: note_on channel=1 note=51 velocity=76 time=0
EXTRACT: note_on channel=1 note=54 velocity=76 time=0
EXTRACT: note_on channel=1 note=59 velocity=76 time=0
EXTRACT: note_on channel=0 note=75 velocity=0 time=0.3092855854166666
EXTRACT: note_on channel=0 note=66 velocity=76 time=0.033571414583333334
EXTRACT: note_on channel=0 note=76 velocity=76 time=0
EXTRACT: note_on channel=1 note=51 velocity=0 time=0.11999995
EXTRACT: note_on channel=1 note=54 velocity=0 time=0
EXTRACT: note_on channel=1 note=59 velocity=0 time=0
EXTRACT: note_on channel=1 note=47 velocity=76 time=0.051428549999999996
EXTRACT: note_on channel=0 note=66 velocity=0 time=0.13785708541666666
EXTRACT: note_on channel=0 note=76 velocity=0 time=0
EXTRACT: note_on channel=1 note=47 velocity=0 time=0.017142849999999998
EXTRACT: note_on channel=0 note=73 velocity=76 time=0.016428564583333333
EXTRACT: note_on channel=1 note=42 velocity=76 time=0
EXTRACT: note_on channel=1 note=54 velocity=76 time=0
EXTRACT: note_on channel=0 note=73 velocity=0 time=0.15499993541666665
EXTRACT: note_on channel=0 note=71 velocity=76 time=0.016428564583333333
EXTRACT: note_on channel=1 note=42 velocity=0 time=0.13785708541666666
EXTRACT: note_on channel=1 note=54 velocity=0 time=0
EXTRACT: note_on channel=0 note=71 velocity=0 time=0.017142849999999998
EXTRACT: note_on channel=0 note=66 velocity=76 time=0.016428564583333333
EXTRACT: note_on channel=0 note=73 velocity=76 time=0
EXTRACT: note_on channel=1 note=42 velocity=76 time=0
EXTRACT: note_on channel=1 note=54 velocity=76 time=0
EXTRACT: note_on channel=0 note=66 velocity=0 time=0.15499993541666665
EXTRACT: note_on channel=0 note=73 velocity=0 time=0
EXTRACT: note_on channel=0 note=71 velocity=76 time=0.016428564583333333
EXTRACT: note_on channel=1 note=42 velocity=0 time=0.13785708541666666
EXTRACT: note_on channel=1 note=54 velocity=0 time=0
EXTRACT: note_on channel=0 note=71 velocity=0 time=0.017142849999999998
EXTRACT: note_on channel=0 note=75 velocity=76 time=0.016428564583333333
EXTRACT: note_on channel=1 note=54 velocity=76 time=0
EXTRACT: note_on channel=1 note=58 velocity=76 time=0
EXTRACT: note_on channel=1 note=61 velocity=76 time=0
EXTRACT: note_on channel=0 note=75 velocity=0 time=0.15499993541666665
EXTRACT: note_on channel=0 note=66 velocity=76 time=0.016428564583333333
EXTRACT: note_on channel=0 note=73 velocity=76 time=0
EXTRACT: note_on channel=0 note=66 velocity=0 time=0.15499993541666665
EXTRACT: note_on channel=0 note=73 velocity=0 time=0
EXTRACT: note_on channel=0 note=66 velocity=76 time=0.016428564583333333
EXTRACT: note_on channel=0 note=73 velocity=76 time=0
EXTRACT: note_on channel=1 note=54 velocity=0 time=0.11999995
EXTRACT: note_on channel=1 note=58 velocity=0 time=0
EXTRACT: note_on channel=1 note=61 velocity=0 time=0
EXTRACT: note_on channel=1 note=42 velocity=76 time=0.051428549999999996
EXTRACT: note_on channel=1 note=54 velocity=76 time=0
EXTRACT: note_on channel=0 note=66 velocity=0 time=0.13785708541666666
EXTRACT: note_on channel=0 note=73 velocity=0 time=0
EXTRACT: note_on channel=1 note=42 velocity=0 time=0.017142849999999998
EXTRACT: note_on channel=1 note=54 velocity=0 time=0
EXTRACT: note_on channel=0 note=73 velocity=76 time=0.016428564583333333
EXTRACT: note_on channel=1 note=40 velocity=76 time=0
EXTRACT: note_on channel=1 note=52 velocity=76 time=0
EXTRACT: note_on channel=0 note=73 velocity=0 time=0.15499993541666665
EXTRACT: note_on channel=0 note=71 velocity=76 time=0.016428564583333333
EXTRACT: note_on channel=1 note=40 velocity=0 time=0.13785708541666666
EXTRACT: note_on channel=1 note=52 velocity=0 time=0
EXTRACT: note_on channel=0 note=71 velocity=0 time=0.017142849999999998
EXTRACT: note_on channel=0 note=64 velocity=76 time=0.016428564583333333
EXTRACT: note_on channel=0 note=73 velocity=76 time=0
EXTRACT: note_on channel=1 note=40 velocity=76 time=0
EXTRACT: note_on channel=1 note=52 velocity=76 time=0
EXTRACT: note_on channel=0 note=64 velocity=0 time=0.15499993541666665
EXTRACT: note_on channel=0 note=73 velocity=0 time=0
EXTRACT: note_on channel=0 note=71 velocity=76 time=0.016428564583333333
EXTRACT: note_on channel=1 note=40 velocity=0 time=0.13785708541666666
EXTRACT: note_on channel=1 note=52 velocity=0 time=0
EXTRACT: note_on channel=0 note=71 velocity=0 time=0.017142849999999998
EXTRACT: note_on channel=0 note=73 velocity=76 time=0.016428564583333333
EXTRACT: note_on channel=1 note=52 velocity=76 time=0
EXTRACT: note_on channel=1 note=56 velocity=76 time=0
EXTRACT: note_on channel=1 note=59 velocity=76 time=0
EXTRACT: note_on channel=0 note=73 velocity=0 time=0.15499993541666665
EXTRACT: note_on channel=0 note=71 velocity=76 time=0.016428564583333333
EXTRACT: note_on channel=0 note=71 velocity=0 time=0.15499993541666665
EXTRACT: note_on channel=0 note=64 velocity=76 time=0.016428564583333333
EXTRACT: note_on channel=0 note=73 velocity=76 time=0
EXTRACT: note_on channel=1 note=52 velocity=0 time=0.11999995
EXTRACT: note_on channel=1 note=56 velocity=0 time=0
EXTRACT: note_on channel=1 note=59 velocity=0 time=0
EXTRACT: note_on channel=0 note=64 velocity=0 time=0.034999985416666664
EXTRACT: note_on channel=0 note=73 velocity=0 time=0
EXTRACT: note_on channel=0 note=71 velocity=76 time=0.016428564583333333
EXTRACT: note_on channel=1 note=47 velocity=76 time=0
EXTRACT: note_on channel=0 note=71 velocity=0 time=0.15499993541666665
EXTRACT: note_on channel=1 note=47 velocity=0 time=0
EXTRACT: note_on channel=0 note=73 velocity=76 time=0.016428564583333333
EXTRACT: note_on channel=1 note=40 velocity=76 time=0
EXTRACT: note_on channel=1 note=52 velocity=76 time=0
EXTRACT: note_on channel=0 note=73 velocity=0 time=0.15499993541666665
EXTRACT: note_on channel=0 note=71 velocity=76 time=0.016428564583333333
EXTRACT: note_on channel=1 note=40 velocity=0 time=0.13785708541666666
EXTRACT: note_on channel=1 note=52 velocity=0 time=0
EXTRACT: note_on channel=0 note=71 velocity=0 time=0.017142849999999998
EXTRACT: note_on channel=0 note=64 velocity=76 time=0.016428564583333333
EXTRACT: note_on channel=0 note=73 velocity=76 time=0
EXTRACT: note_on channel=1 note=40 velocity=76 time=0
EXTRACT: note_on channel=1 note=52 velocity=76 time=0
EXTRACT: note_on channel=0 note=64 velocity=0 time=0.15499993541666665
EXTRACT: note_on channel=0 note=73 velocity=0 time=0
EXTRACT: note_on channel=0 note=71 velocity=76 time=0.016428564583333333
EXTRACT: note_on channel=1 note=40 velocity=0 time=0.13785708541666666
EXTRACT: note_on channel=1 note=52 velocity=0 time=0
EXTRACT: note_on channel=0 note=71 velocity=0 time=0.017142849999999998
EXTRACT: note_on channel=0 note=75 velocity=76 time=0.016428564583333333
EXTRACT: note_on channel=1 note=39 velocity=76 time=0
EXTRACT: note_on channel=1 note=51 velocity=76 time=0
EXTRACT: note_on channel=0 note=75 velocity=0 time=0.15499993541666665
EXTRACT: note_on channel=0 note=64 velocity=76 time=0.016428564583333333
EXTRACT: note_on channel=0 note=73 velocity=76 time=0
EXTRACT: note_on channel=1 note=39 velocity=0 time=0.13785708541666666
EXTRACT: note_on channel=1 note=51 velocity=0 time=0
EXTRACT: note_on channel=1 note=37 velocity=76 time=0.033571414583333334
EXTRACT: note_on channel=1 note=49 velocity=76 time=0
EXTRACT: note_on channel=0 note=64 velocity=0 time=0.13785708541666666
EXTRACT: note_on channel=0 note=73 velocity=0 time=0
EXTRACT: note_on channel=0 note=71 velocity=76 time=0.033571414583333334
EXTRACT: note_on channel=1 note=37 velocity=0 time=0.13785708541666666
EXTRACT: note_on channel=1 note=49 velocity=0 time=0
EXTRACT: note_on channel=0 note=71 velocity=0 time=0.017142849999999998
EXTRACT: note_on channel=0 note=75 velocity=76 time=0.016428564583333333
EXTRACT: note_on channel=1 note=35 velocity=76 time=0
EXTRACT: note_on channel=1 note=47 velocity=76 time=0
EXTRACT: note_on channel=0 note=75 velocity=0 time=0.3092855854166666
EXTRACT: note_on channel=1 note=35 velocity=0 time=0
EXTRACT: note_on channel=1 note=47 velocity=0 time=0
EXTRACT: note_on channel=0 note=71 velocity=76 time=0.033571414583333334
EXTRACT: note_on channel=0 note=78 velocity=76 time=0
EXTRACT: note_on channel=1 note=35 velocity=76 time=0
EXTRACT: note_on channel=1 note=47 velocity=76 time=0
EXTRACT: note_on channel=0 note=71 velocity=0 time=0.3092855854166666
EXTRACT: note_on channel=0 note=78 velocity=0 time=0
EXTRACT: note_on channel=1 note=35 velocity=0 time=0
EXTRACT: note_on channel=1 note=47 velocity=0 time=0
EXTRACT: note_on channel=0 note=78 velocity=76 time=0.033571414583333334
EXTRACT: note_on channel=1 note=51 velocity=76 time=0
EXTRACT: note_on channel=1 note=54 velocity=76 time=0
EXTRACT: note_on channel=1 note=59 velocity=76 time=0
EXTRACT: note_on channel=0 note=78 velocity=0 time=0.3092855854166666
EXTRACT: note_on channel=0 note=71 velocity=76 time=0.033571414583333334
EXTRACT: note_on channel=0 note=80 velocity=76 time=0
EXTRACT: note_on channel=1 note=51 velocity=0 time=0.11999995
EXTRACT: note_on channel=1 note=54 velocity=0 time=0
EXTRACT: note_on channel=1 note=59 velocity=0 time=0
EXTRACT: note_on channel=1 note=47 velocity=76 time=0.051428549999999996
EXTRACT: note_on channel=0 note=71 velocity=0 time=0.13785708541666666
EXTRACT: note_on channel=0 note=80 velocity=0 time=0
EXTRACT: note_on channel=1 note=47 velocity=0 time=0.017142849999999998
EXTRACT: note_on channel=0 note=73 velocity=76 time=0.016428564583333333
EXTRACT: note_on channel=1 note=42 velocity=76 time=0
EXTRACT: note_on channel=1 note=54 velocity=76 time=0
EXTRACT: note_on channel=0 note=73 velocity=0 time=0.3092855854166666
EXTRACT: note_on channel=1 note=42 velocity=0 time=0
EXTRACT: note_on channel=1 note=54 velocity=0 time=0
EXTRACT: note_on channel=0 note=66 velocity=76 time=0.033571414583333334
EXTRACT: note_on channel=0 note=71 velocity=76 time=0
EXTRACT: note_on channel=1 note=42 velocity=76 time=0
EXTRACT: note_on channel=1 note=54 velocity=76 time=0
EXTRACT: note_on channel=0 note=66 velocity=0 time=0.3092855854166666
EXTRACT: note_on channel=0 note=71 velocity=0 time=0
EXTRACT: note_on channel=1 note=42 velocity=0 time=0
EXTRACT: note_on channel=1 note=54 velocity=0 time=0
EXTRACT: note_on channel=0 note=73 velocity=76 time=0.033571414583333334
EXTRACT: note_on channel=1 note=54 velocity=76 time=0
EXTRACT: note_on channel=1 note=58 velocity=76 time=0
EXTRACT: note_on channel=1 note=61 velocity=76 time=0
EXTRACT: note_on channel=0 note=73 velocity=0 time=0.3092855854166666
EXTRACT: note_on channel=0 note=68 velocity=76 time=0.033571414583333334
EXTRACT: note_on channel=0 note=75 velocity=76 time=0
EXTRACT: note_on channel=1 note=54 velocity=0 time=0.11999995
EXTRACT: note_on channel=1 note=58 velocity=0 time=0
EXTRACT: note_on channel=1 note=61 velocity=0 time=0
EXTRACT: note_on channel=1 note=42 velocity=76 time=0.051428549999999996
EXTRACT: note_on channel=1 note=54 velocity=76 time=0
EXTRACT: note_on channel=1 note=42 velocity=0 time=0.15499993541666665
EXTRACT: note_on channel=1 note=54 velocity=0 time=0
EXTRACT: note_on channel=1 note=40 velocity=76 time=0.016428564583333333
EXTRACT: note_on channel=1 note=52 velocity=76 time=0
EXTRACT: note_on channel=0 note=68 velocity=0 time=0.3092855854166666
EXTRACT: note_on channel=0 note=75 velocity=0 time=0
EXTRACT: note_on channel=1 note=40 velocity=0 time=0
EXTRACT: note_on channel=1 note=52 velocity=0 time=0
EXTRACT: note_on channel=0 note=71 velocity=76 time=0.033571414583333334
EXTRACT: note_on channel=1 note=40 velocity=76 time=0
EXTRACT: note_on channel=1 note=52 velocity=76 time=0
EXTRACT: note_on channel=0 note=71 velocity=0 time=0.3092855854166666
EXTRACT: note_on channel=1 note=40 velocity=0 time=0
EXTRACT: note_on channel=1 note=52 velocity=0 time=0
EXTRACT: note_on channel=0 note=68 velocity=76 time=0.033571414583333334
EXTRACT: note_on channel=1 note=52 velocity=76 time=0
EXTRACT: note_on channel=1 note=56 velocity=76 time=0
EXTRACT: note_on channel=1 note=59 velocity=76 time=0
EXTRACT: note_on channel=1 note=52 velocity=0 time=0.46285694999999993
EXTRACT: note_on channel=1 note=56 velocity=0 time=0
EXTRACT: note_on channel=1 note=59 velocity=0 time=0
EXTRACT: note_on channel=1 note=47 velocity=76 time=0.051428549999999996
EXTRACT: note_on channel=0 note=68 velocity=0 time=0.10428567083333333
EXTRACT: note_on channel=1 note=47 velocity=0 time=0.05071426458333333
EXTRACT: note_on channel=1 note=40 velocity=76 time=0.016428564583333333
EXTRACT: note_on channel=1 note=52 velocity=76 time=0
EXTRACT: note_on channel=1 note=40 velocity=0 time=0.3092855854166666
EXTRACT: note_on channel=1 note=52 velocity=0 time=0
EXTRACT: note_on channel=1 note=40 velocity=76 time=0.033571414583333334
EXTRACT: note_on channel=1 note=52 velocity=76 time=0
EXTRACT: note_on channel=1 note=40 velocity=0 time=0.3092855854166666
EXTRACT: note_on channel=1 note=52 velocity=0 time=0
EXTRACT: note_on channel=0 note=71 velocity=76 time=0.033571414583333334
EXTRACT: note_on channel=1 note=39 velocity=76 time=0
EXTRACT: note_on channel=1 note=51 velocity=76 time=0
EXTRACT: note_on channel=0 note=71 velocity=0 time=0.3092855854166666
EXTRACT: note_on channel=1 note=39 velocity=0 time=0
EXTRACT: note_on channel=1 note=51 velocity=0 time=0
EXTRACT: note_on channel=0 note=68 velocity=76 time=0.033571414583333334
EXTRACT: note_on channel=0 note=75 velocity=76 time=0
EXTRACT: note_on channel=1 note=37 velocity=76 time=0
EXTRACT: note_on channel=1 note=49 velocity=76 time=0
EXTRACT: note_on channel=0 note=68 velocity=0 time=0.3092855854166666
EXTRACT: note_on channel=0 note=75 velocity=0 time=0
EXTRACT: note_on channel=1 note=37 velocity=0 time=0
EXTRACT: note_on channel=1 note=49 velocity=0 time=0
EXTRACT: note_on channel=0 note=68 velocity=76 time=0.033571414583333334
EXTRACT: note_on channel=0 note=76 velocity=76 time=0
EXTRACT: note_on channel=1 note=37 velocity=76 time=0
EXTRACT: note_on channel=1 note=49 velocity=76 time=0
EXTRACT: note_on channel=0 note=68 velocity=0 time=0.3092855854166666
EXTRACT: note_on channel=0 note=76 velocity=0 time=0
EXTRACT: note_on channel=1 note=37 velocity=0 time=0
EXTRACT: note_on channel=1 note=49 velocity=0 time=0
EXTRACT: note_on channel=0 note=68 velocity=76 time=0.033571414583333334
EXTRACT: note_on channel=0 note=76 velocity=76 time=0
EXTRACT: note_on channel=1 note=37 velocity=76 time=0
EXTRACT: note_on channel=1 note=49 velocity=76 time=0
EXTRACT: note_on channel=0 note=68 velocity=0 time=0.3092855854166666
EXTRACT: note_on channel=0 note=76 velocity=0 time=0
EXTRACT: note_on channel=1 note=37 velocity=0 time=0
EXTRACT: note_on channel=1 note=49 velocity=0 time=0
EXTRACT: note_on channel=0 note=68 velocity=76 time=0.033571414583333334
EXTRACT: note_on channel=0 note=76 velocity=76 time=0
EXTRACT: note_on channel=1 note=52 velocity=76 time=0
EXTRACT: note_on channel=1 note=56 velocity=76 time=0
EXTRACT: note_on channel=1 note=61 velocity=76 time=0
EXTRACT: note_on channel=0 note=68 velocity=0 time=0.15499993541666665
EXTRACT: note_on channel=0 note=76 velocity=0 time=0
EXTRACT: note_on channel=1 note=52 velocity=0 time=0
EXTRACT: note_on channel=1 note=56 velocity=0 time=0
EXTRACT: note_on channel=1 note=61 velocity=0 time=0
EXTRACT: note_on channel=0 note=75 velocity=76 time=0.016428564583333333
EXTRACT: note_on channel=1 note=49 velocity=76 time=0
EXTRACT: note_on channel=0 note=75 velocity=0 time=0.15499993541666665
EXTRACT: note_on channel=1 note=49 velocity=0 time=0
EXTRACT: note_on channel=1 note=49 velocity=76 time=0.016428564583333333
EXTRACT: note_on channel=1 note=49 velocity=0 time=0.3092855854166666
EXTRACT: note_on channel=1 note=39 velocity=76 time=0.033571414583333334
EXTRACT: note_on channel=1 note=51 velocity=76 time=0
EXTRACT: note_on channel=1 note=39 velocity=0 time=0.3092855854166666
EXTRACT: note_on channel=1 note=51 velocity=0 time=0
EXTRACT: note_on channel=0 note=70 velocity=76 time=0.033571414583333334
EXTRACT: note_on channel=0 note=78 velocity=76 time=0
EXTRACT: note_on channel=1 note=39 velocity=76 time=0
EXTRACT: note_on channel=1 note=51 velocity=76 time=0
EXTRACT: note_on channel=0 note=70 velocity=0 time=0.3092855854166666
EXTRACT: note_on channel=0 note=78 velocity=0 time=0
EXTRACT: note_on channel=1 note=39 velocity=0 time=0
EXTRACT: note_on channel=1 note=51 velocity=0 time=0
EXTRACT: note_on channel=0 note=70 velocity=76 time=0.033571414583333334
EXTRACT: note_on channel=0 note=78 velocity=76 time=0
EXTRACT: note_on channel=1 note=54 velocity=76 time=0
EXTRACT: note_on channel=1 note=58 velocity=76 time=0
EXTRACT: note_on channel=1 note=63 velocity=76 time=0
EXTRACT: note_on channel=0 note=70 velocity=0 time=0.15499993541666665
EXTRACT: note_on channel=0 note=78 velocity=0 time=0
EXTRACT: note_on channel=1 note=54 velocity=0 time=0
EXTRACT: note_on channel=1 note=58 velocity=0 time=0
EXTRACT: note_on channel=1 note=63 velocity=0 time=0
EXTRACT: note_on channel=0 note=70 velocity=76 time=0.016428564583333333
EXTRACT: note_on channel=0 note=75 velocity=76 time=0
EXTRACT: note_on channel=1 note=51 velocity=76 time=0
EXTRACT: note_on channel=1 note=51 velocity=0 time=0.15499993541666665
EXTRACT: note_on channel=1 note=51 velocity=76 time=0.016428564583333333
EXTRACT: note_on channel=0 note=70 velocity=0 time=0.13785708541666666
EXTRACT: note_on channel=0 note=75 velocity=0 time=0
EXTRACT: note_on channel=0 note=75 velocity=76 time=0.033571414583333334
EXTRACT: note_on channel=1 note=51 velocity=0 time=0.13785708541666666
EXTRACT: note_on channel=0 note=75 velocity=0 time=0.017142849999999998
EXTRACT: note_on channel=0 note=71 velocity=76 time=0.016428564583333333
EXTRACT: note_on channel=0 note=80 velocity=76 time=0
EXTRACT: note_on channel=1 note=40 velocity=76 time=0
EXTRACT: note_on channel=1 note=52 velocity=76 time=0
EXTRACT: note_on channel=0 note=71 velocity=0 time=0.15499993541666665
EXTRACT: note_on channel=0 note=80 velocity=0 time=0
EXTRACT: note_on channel=0 note=78 velocity=76 time=0.016428564583333333
EXTRACT: note_on channel=1 note=40 velocity=0 time=0.13785708541666666
EXTRACT: note_on channel=1 note=52 velocity=0 time=0
EXTRACT: note_on channel=1 note=40 velocity=76 time=0.033571414583333334
EXTRACT: note_on channel=1 note=52 velocity=76 time=0
EXTRACT: note_on channel=0 note=78 velocity=0 time=0.13785708541666666
EXTRACT: note_on channel=0 note=71 velocity=76 time=0.033571414583333334
EXTRACT: note_on channel=0 note=78 velocity=76 time=0
EXTRACT: note_on channel=1 note=40 velocity=0 time=0.13785708541666666
EXTRACT: note_on channel=1 note=52 velocity=0 time=0
EXTRACT: note_on channel=1 note=56 velocity=76 time=0.033571414583333334
EXTRACT: note_on channel=1 note=59 velocity=76 time=0
EXTRACT: note_on channel=1 note=64 velocity=76 time=0
EXTRACT: note_on channel=0 note=71 velocity=0 time=0.15499993541666665
EXTRACT: note_on channel=0 note=78 velocity=0 time=0
EXTRACT: note_on channel=0 note=71 velocity=76 time=0.016428564583333333
EXTRACT: note_on channel=0 note=80 velocity=76 time=0
EXTRACT: note_on channel=1 note=56 velocity=0 time=0.13785708541666666
EXTRACT: note_on channel=1 note=59 velocity=0 time=0
EXTRACT: note_on channel=1 note=64 velocity=0 time=0
EXTRACT: note_on channel=1 note=40 velocity=76 time=0.033571414583333334
EXTRACT: note_on channel=1 note=52 velocity=76 time=0
EXTRACT: note_on channel=0 note=71 velocity=0 time=0.13785708541666666
EXTRACT: note_on channel=0 note=80 velocity=0 time=0
EXTRACT: note_on channel=0 note=75 velocity=76 time=0.033571414583333334
EXTRACT: note_on channel=1 note=40 velocity=0 time=0.13785708541666666
EXTRACT: note_on channel=1 note=52 velocity=0 time=0
EXTRACT: note_on channel=0 note=75 velocity=0 time=0.017142849999999998
EXTRACT: note_on channel=0 note=66 velocity=76 time=0.016428564583333333
EXTRACT: note_on channel=0 note=73 velocity=76 time=0
EXTRACT: note_on channel=1 note=42 velocity=76 time=0
EXTRACT: note_on channel=1 note=54 velocity=76 time=0
EXTRACT: note_on channel=1 note=42 velocity=0 time=0.6185711708333332
EXTRACT: note_on channel=1 note=54 velocity=0 time=0
EXTRACT: note_on channel=1 note=42 velocity=76 time=0.06714282916666667
EXTRACT: note_on channel=1 note=54 velocity=76 time=0
EXTRACT: note_on channel=0 note=66 velocity=0 time=0.2757141708333333
EXTRACT: note_on channel=0 note=73 velocity=0 time=0
EXTRACT: note_on channel=1 note=42 velocity=0 time=0.033571414583333334
EXTRACT: note_on channel=1 note=54 velocity=0 time=0
EXTRACT: note_on channel=1 note=42 velocity=76 time=0.033571414583333334
EXTRACT: note_on channel=1 note=54 velocity=76 time=0
EXTRACT: note_on channel=0 note=71 velocity=76 time=0.17142849999999998
EXTRACT: note_on channel=1 note=42 velocity=0 time=0.13785708541666666
EXTRACT: note_on channel=1 note=54 velocity=0 time=0
EXTRACT: note_on channel=0 note=71 velocity=0 time=0.017142849999999998
EXTRACT: note_on channel=0 note=75 velocity=76 time=0.016428564583333333
EXTRACT: note_on channel=1 note=35 velocity=76 time=0
EXTRACT: note_on channel=1 note=47 velocity=76 time=0
EXTRACT: note_on channel=0 note=75 velocity=0 time=0.3092855854166666
EXTRACT: note_on channel=1 note=35 velocity=0 time=0
EXTRACT: note_on channel=1 note=47 velocity=0 time=0
EXTRACT: note_on channel=0 note=66 velocity=76 time=0.033571414583333334
EXTRACT: note_on channel=0 note=75 velocity=76 time=0
EXTRACT: note_on channel=1 note=35 velocity=76 time=0
EXTRACT: note_on channel=1 note=47 velocity=76 time=0
EXTRACT: note_on channel=0 note=66 velocity=0 time=0.3092855854166666
EXTRACT: note_on channel=0 note=75 velocity=0 time=0
EXTRACT: note_on channel=1 note=35 velocity=0 time=0
EXTRACT: note_on channel=1 note=47 velocity=0 time=0
EXTRACT: note_on channel=0 note=75 velocity=76 time=0.033571414583333334
EXTRACT: note_on channel=1 note=51 velocity=76 time=0
EXTRACT: note_on channel=1 note=54 velocity=76 time=0
EXTRACT: note_on channel=1 note=59 velocity=76 time=0
EXTRACT: note_on channel=0 note=75 velocity=0 time=0.3092855854166666
EXTRACT: note_on channel=0 note=66 velocity=76 time=0.033571414583333334
EXTRACT: note_on channel=0 note=75 velocity=76 time=0
EXTRACT: note_on channel=1 note=51 velocity=0 time=0.11999995
EXTRACT: note_on channel=1 note=54 velocity=0 time=0
EXTRACT: note_on channel=1 note=59 velocity=0 time=0
EXTRACT: note_on channel=1 note=47 velocity=76 time=0.051428549999999996
EXTRACT: note_on channel=0 note=66 velocity=0 time=0.13785708541666666
EXTRACT: note_on channel=0 note=75 velocity=0 time=0
EXTRACT: note_on channel=1 note=47 velocity=0 time=0.017142849999999998
EXTRACT: note_on channel=0 note=73 velocity=76 time=0.016428564583333333
EXTRACT: note_on channel=1 note=42 velocity=76 time=0
EXTRACT: note_on channel=1 note=54 velocity=76 time=0
EXTRACT: note_on channel=0 note=73 velocity=0 time=0.3092855854166666
EXTRACT: note_on channel=1 note=42 velocity=0 time=0
EXTRACT: note_on channel=1 note=54 velocity=0 time=0
EXTRACT: note_on channel=0 note=66 velocity=76 time=0.033571414583333334
EXTRACT: note_on channel=0 note=71 velocity=76 time=0
EXTRACT: note_on channel=1 note=42 velocity=76 time=0
EXTRACT: note_on channel=1 note=54 velocity=76 time=0
EXTRACT: note_on channel=0 note=66 velocity=0 time=0.3092855854166666
EXTRACT: note_on channel=0 note=71 velocity=0 time=0
EXTRACT: note_on channel=1 note=42 velocity=0 time=0
EXTRACT: note_on channel=1 note=54 velocity=0 time=0
EXTRACT: note_on channel=0 note=73 velocity=76 time=0.033571414583333334
EXTRACT: note_on channel=1 note=54 velocity=76 time=0
EXTRACT: note_on channel=1 note=58 velocity=76 time=0
EXTRACT: note_on channel=1 note=61 velocity=76 time=0
EXTRACT: note_on channel=0 note=73 velocity=0 time=0.3092855854166666
EXTRACT: note_on channel=0 note=68 velocity=76 time=0.033571414583333334
EXTRACT: note_on channel=0 note=75 velocity=76 time=0
EXTRACT: note_on channel=1 note=54 velocity=0 time=0.11999995
EXTRACT: note_on channel=1 note=58 velocity=0 time=0
EXTRACT: note_on channel=1 note=61 velocity=0 time=0
EXTRACT: note_on channel=1 note=42 velocity=76 time=0.051428549999999996
EXTRACT: note_on channel=1 note=54 velocity=76 time=0
EXTRACT: note_on channel=1 note=42 velocity=0 time=0.15499993541666665
EXTRACT: note_on channel=1 note=54 velocity=0 time=0
EXTRACT: note_on channel=1 note=40 velocity=76 time=0.016428564583333333
EXTRACT: note_on channel=1 note=52 velocity=76 time=0
EXTRACT: note_on channel=0 note=68 velocity=0 time=0.15499993541666665
EXTRACT: note_on channel=0 note=75 velocity=0 time=0
EXTRACT: note_on channel=0 note=71 velocity=76 time=0.016428564583333333
EXTRACT: note_on channel=1 note=40 velocity=0 time=0.13785708541666666
EXTRACT: note_on channel=1 note=52 velocity=0 time=0
EXTRACT: note_on channel=0 note=71 velocity=0 time=0.017142849999999998
EXTRACT: note_on channel=0 note=68 velocity=76 time=0.016428564583333333
EXTRACT: note_on channel=1 note=40 velocity=76 time=0
EXTRACT: note_on channel=1 note=52 velocity=76 time=0
EXTRACT: note_on channel=0 note=68 velocity=0 time=0.3092855854166666
EXTRACT: note_on channel=1 note=40 velocity=0 time=0
EXTRACT: note_on channel=1 note=52 velocity=0 time=0
EXTRACT: note_on channel=1 note=52 velocity=76 time=0.033571414583333334
EXTRACT: note_on channel=1 note=56 velocity=76 time=0
EXTRACT: note_on channel=1 note=59 velocity=76 time=0
EXTRACT: note_on channel=1 note=52 velocity=0 time=0.46285694999999993
EXTRACT: note_on channel=1 note=56 velocity=0 time=0
EXTRACT: note_on channel=1 note=59 velocity=0 time=0
EXTRACT: note_on channel=1 note=47 velocity=76 time=0.051428549999999996
EXTRACT: note_on channel=1 note=47 velocity=0 time=0.15499993541666665
EXTRACT: note_on channel=0 note=71 velocity=76 time=0.016428564583333333
EXTRACT: note_on channel=1 note=40 velocity=76 time=0
EXTRACT: note_on channel=1 note=52 velocity=76 time=0
EXTRACT: note_on channel=0 note=71 velocity=0 time=0.15499993541666665
EXTRACT: note_on channel=0 note=73 velocity=76 time=0.016428564583333333
EXTRACT: note_on channel=1 note=40 velocity=0 time=0.13785708541666666
EXTRACT: note_on channel=1 note=52 velocity=0 time=0
EXTRACT: note_on channel=0 note=73 velocity=0 time=0.017142849999999998
EXTRACT: note_on channel=0 note=75 velocity=76 time=0.016428564583333333
EXTRACT: note_on channel=1 note=40 velocity=76 time=0
EXTRACT: note_on channel=1 note=52 velocity=76 time=0
EXTRACT: note_on channel=0 note=75 velocity=0 time=0.3092855854166666
EXTRACT: note_on channel=1 note=40 velocity=0 time=0
EXTRACT: note_on channel=1 note=52 velocity=0 time=0
EXTRACT: note_on channel=0 note=75 velocity=76 time=0.033571414583333334
EXTRACT: note_on channel=1 note=39 velocity=76 time=0
EXTRACT: note_on channel=1 note=51 velocity=76 time=0
EXTRACT: note_on channel=0 note=75 velocity=0 time=0.15499993541666665
EXTRACT: note_on channel=0 note=73 velocity=76 time=0.016428564583333333
EXTRACT: note_on channel=1 note=39 velocity=0 time=0.13785708541666666
EXTRACT: note_on channel=1 note=51 velocity=0 time=0
EXTRACT: note_on channel=0 note=73 velocity=0 time=0.017142849999999998
EXTRACT: note_on channel=0 note=71 velocity=76 time=0.016428564583333333
EXTRACT: note_on channel=1 note=37 velocity=76 time=0
EXTRACT: note_on channel=1 note=49 velocity=76 time=0
EXTRACT: note_on channel=0 note=71 velocity=0 time=0.3092855854166666
EXTRACT: note_on channel=1 note=37 velocity=0 time=0
EXTRACT: note_on channel=1 note=49 velocity=0 time=0
EXTRACT: note_on channel=0 note=75 velocity=76 time=0.033571414583333334
EXTRACT: note_on channel=1 note=35 velocity=76 time=0
EXTRACT: note_on channel=1 note=47 velocity=76 time=0
EXTRACT: note_on channel=0 note=75 velocity=0 time=0.3092855854166666
EXTRACT: note_on channel=1 note=35 velocity=0 time=0
EXTRACT: note_on channel=1 note=47 velocity=0 time=0
EXTRACT: note_on channel=0 note=66 velocity=76 time=0.033571414583333334
EXTRACT: note_on channel=0 note=75 velocity=76 time=0
EXTRACT: note_on channel=1 note=35 velocity=76 time=0
EXTRACT: note_on channel=1 note=47 velocity=76 time=0
EXTRACT: note_on channel=0 note=66 velocity=0 time=0.3092855854166666
EXTRACT: note_on channel=0 note=75 velocity=0 time=0
EXTRACT: note_on channel=1 note=35 velocity=0 time=0
EXTRACT: note_on channel=1 note=47 velocity=0 time=0
EXTRACT: note_on channel=0 note=75 velocity=76 time=0.033571414583333334
EXTRACT: note_on channel=1 note=51 velocity=76 time=0
EXTRACT: note_on channel=1 note=54 velocity=76 time=0
EXTRACT: note_on channel=1 note=59 velocity=76 time=0
EXTRACT: note_on channel=0 note=75 velocity=0 time=0.3092855854166666
EXTRACT: note_on channel=0 note=66 velocity=76 time=0.033571414583333334
EXTRACT: note_on channel=0 note=75 velocity=76 time=0
EXTRACT: note_on channel=1 note=51 velocity=0 time=0.11999995
EXTRACT: note_on channel=1 note=54 velocity=0 time=0
EXTRACT: note_on channel=1 note=59 velocity=0 time=0
EXTRACT: note_on channel=1 note=47 velocity=76 time=0.051428549999999996
EXTRACT: note_on channel=0 note=66 velocity=0 time=0.13785708541666666
EXTRACT: note_on channel=0 note=75 velocity=0 time=0
EXTRACT: note_on channel=1 note=47 velocity=0 time=0.017142849999999998
EXTRACT: note_on channel=0 note=73 velocity=76 time=0.016428564583333333
EXTRACT: note_on channel=1 note=42 velocity=76 time=0
EXTRACT: note_on channel=1 note=54 velocity=76 time=0
EXTRACT: note_on channel=0 note=73 velocity=0 time=0.3092855854166666
EXTRACT: note_on channel=1 note=42 velocity=0 time=0
EXTRACT: note_on channel=1 note=54 velocity=0 time=0
EXTRACT: note_on channel=0 note=66 velocity=76 time=0.033571414583333334
EXTRACT: note_on channel=0 note=71 velocity=76 time=0
EXTRACT: note_on channel=1 note=42 velocity=76 time=0
EXTRACT: note_on channel=1 note=54 velocity=76 time=0
EXTRACT: note_on channel=0 note=66 velocity=0 time=0.3092855854166666
EXTRACT: note_on channel=0 note=71 velocity=0 time=0
EXTRACT: note_on channel=1 note=42 velocity=0 time=0
EXTRACT: note_on channel=1 note=54 velocity=0 time=0
EXTRACT: note_on channel=0 note=73 velocity=76 time=0.033571414583333334
EXTRACT: note_on channel=1 note=54 velocity=76 time=0
EXTRACT: note_on channel=1 note=58 velocity=76 time=0
EXTRACT: note_on channel=1 note=61 velocity=76 time=0
EXTRACT: note_on channel=0 note=73 velocity=0 time=0.3092855854166666
EXTRACT: note_on channel=0 note=66 velocity=76 time=0.033571414583333334
EXTRACT: note_on channel=0 note=71 velocity=76 time=0
EXTRACT: note_on channel=1 note=54 velocity=0 time=0.11999995
EXTRACT: note_on channel=1 note=58 velocity=0 time=0
EXTRACT: note_on channel=1 note=61 velocity=0 time=0
EXTRACT: note_on channel=1 note=42 velocity=76 time=0.051428549999999996
EXTRACT: note_on channel=1 note=54 velocity=76 time=0
EXTRACT: note_on channel=0 note=66 velocity=0 time=0.13785708541666666
EXTRACT: note_on channel=0 note=71 velocity=0 time=0
EXTRACT: note_on channel=1 note=42 velocity=0 time=0.017142849999999998
EXTRACT: note_on channel=1 note=54 velocity=0 time=0
EXTRACT: note_on channel=0 note=68 velocity=76 time=0.016428564583333333
EXTRACT: note_on channel=1 note=40 velocity=76 time=0
EXTRACT: note_on channel=1 note=52 velocity=76 time=0
EXTRACT: note_on channel=1 note=40 velocity=0 time=0.3092855854166666
EXTRACT: note_on channel=1 note=52 velocity=0 time=0
EXTRACT: note_on channel=1 note=40 velocity=76 time=0.033571414583333334
EXTRACT: note_on channel=1 note=52 velocity=76 time=0
EXTRACT: note_on channel=0 note=68 velocity=0 time=0.2757141708333333
EXTRACT: note_on channel=1 note=40 velocity=0 time=0.033571414583333334
EXTRACT: note_on channel=1 note=52 velocity=0 time=0
EXTRACT: note_on channel=1 note=52 velocity=76 time=0.033571414583333334
EXTRACT: note_on channel=1 note=56 velocity=76 time=0
EXTRACT: note_on channel=1 note=59 velocity=76 time=0
EXTRACT: note_on channel=1 note=52 velocity=0 time=0.46285694999999993
EXTRACT: note_on channel=1 note=56 velocity=0 time=0
EXTRACT: note_on channel=1 note=59 velocity=0 time=0
EXTRACT: note_on channel=1 note=47 velocity=76 time=0.051428549999999996
EXTRACT: note_on channel=1 note=47 velocity=0 time=0.15499993541666665
EXTRACT: note_on channel=0 note=71 velocity=76 time=0.016428564583333333
EXTRACT: note_on channel=1 note=40 velocity=76 time=0
EXTRACT: note_on channel=1 note=52 velocity=76 time=0
EXTRACT: note_on channel=0 note=71 velocity=0 time=0.15499993541666665
EXTRACT: note_on channel=0 note=73 velocity=76 time=0.016428564583333333
EXTRACT: note_on channel=1 note=40 velocity=0 time=0.13785708541666666
EXTRACT: note_on channel=1 note=52 velocity=0 time=0
EXTRACT: note_on channel=0 note=73 velocity=0 time=0.017142849999999998
EXTRACT: note_on channel=0 note=75 velocity=76 time=0.016428564583333333
EXTRACT: note_on channel=1 note=40 velocity=76 time=0
EXTRACT: note_on channel=1 note=52 velocity=76 time=0
EXTRACT: note_on channel=0 note=75 velocity=0 time=0.3092855854166666
EXTRACT: note_on channel=1 note=40 velocity=0 time=0
EXTRACT: note_on channel=1 note=52 velocity=0 time=0
EXTRACT: note_on channel=0 note=75 velocity=76 time=0.033571414583333334
EXTRACT: note_on channel=1 note=39 velocity=76 time=0
EXTRACT: note_on channel=1 note=51 velocity=76 time=0
EXTRACT: note_on channel=0 note=75 velocity=0 time=0.15499993541666665
EXTRACT: note_on channel=0 note=73 velocity=76 time=0.016428564583333333
EXTRACT: note_on channel=1 note=39 velocity=0 time=0.13785708541666666
EXTRACT: note_on channel=1 note=51 velocity=0 time=0
EXTRACT: note_on channel=0 note=73 velocity=0 time=0.017142849999999998
EXTRACT: note_on channel=0 note=71 velocity=76 time=0.016428564583333333
EXTRACT: note_on channel=1 note=37 velocity=76 time=0
EXTRACT: note_on channel=1 note=49 velocity=76 time=0
EXTRACT: note_on channel=0 note=71 velocity=0 time=0.3092855854166666
EXTRACT: note_on channel=1 note=37 velocity=0 time=0
EXTRACT: note_on channel=1 note=49 velocity=0 time=0
EXTRACT: note_on channel=0 note=75 velocity=76 time=0.033571414583333334
EXTRACT: note_on channel=1 note=35 velocity=76 time=0
EXTRACT: note_on channel=1 note=47 velocity=76 time=0
EXTRACT: note_on channel=0 note=75 velocity=0 time=0.3092855854166666
EXTRACT: note_on channel=1 note=35 velocity=0 time=0
EXTRACT: note_on channel=1 note=47 velocity=0 time=0
EXTRACT: note_on channel=0 note=71 velocity=76 time=0.033571414583333334
EXTRACT: note_on channel=0 note=78 velocity=76 time=0
EXTRACT: note_on channel=1 note=35 velocity=76 time=0
EXTRACT: note_on channel=1 note=47 velocity=76 time=0
EXTRACT: note_on channel=0 note=71 velocity=0 time=0.3092855854166666
EXTRACT: note_on channel=0 note=78 velocity=0 time=0
EXTRACT: note_on channel=1 note=35 velocity=0 time=0
EXTRACT: note_on channel=1 note=47 velocity=0 time=0
EXTRACT: note_on channel=0 note=78 velocity=76 time=0.033571414583333334
EXTRACT: note_on channel=1 note=51 velocity=76 time=0
EXTRACT: note_on channel=1 note=54 velocity=76 time=0
EXTRACT: note_on channel=1 note=59 velocity=76 time=0
EXTRACT: note_on channel=0 note=78 velocity=0 time=0.15499993541666665
EXTRACT: note_on channel=0 note=71 velocity=76 time=0.016428564583333333
EXTRACT: note_on channel=0 note=75 velocity=76 time=0
EXTRACT: note_on channel=1 note=51 velocity=0 time=0.29142844999999995
EXTRACT: note_on channel=1 note=54 velocity=0 time=0
EXTRACT: note_on channel=1 note=59 velocity=0 time=0
EXTRACT: note_on channel=0 note=71 velocity=0 time=0.017857135416666666
EXTRACT: note_on channel=0 note=75 velocity=0 time=0
EXTRACT: note_on channel=0 note=73 velocity=76 time=0.033571414583333334
EXTRACT: note_on channel=0 note=80 velocity=76 time=0
EXTRACT: note_on channel=1 note=47 velocity=76 time=0
EXTRACT: note_on channel=1 note=47 velocity=0 time=0.15499993541666665
EXTRACT: note_on channel=1 note=42 velocity=76 time=0.016428564583333333
EXTRACT: note_on channel=1 note=54 velocity=76 time=0
EXTRACT: note_on channel=0 note=73 velocity=0 time=0.15499993541666665
EXTRACT: note_on channel=0 note=80 velocity=0 time=0
EXTRACT: note_on channel=0 note=78 velocity=76 time=0.016428564583333333
EXTRACT: note_on channel=1 note=42 velocity=0 time=0.13785708541666666
EXTRACT: note_on channel=1 note=54 velocity=0 time=0
EXTRACT: note_on channel=1 note=42 velocity=76 time=0.033571414583333334
EXTRACT: note_on channel=1 note=54 velocity=76 time=0
EXTRACT: note_on channel=0 note=78 velocity=0 time=0.13785708541666666
EXTRACT: note_on channel=0 note=73 velocity=76 time=0.033571414583333334
EXTRACT: note_on channel=0 note=80 velocity=76 time=0
EXTRACT: note_on channel=1 note=42 velocity=0 time=0.13785708541666666
EXTRACT: note_on channel=1 note=54 velocity=0 time=0
EXTRACT: note_on channel=1 note=54 velocity=76 time=0.033571414583333334
EXTRACT: note_on channel=1 note=58 velocity=76 time=0
EXTRACT: note_on channel=1 note=61 velocity=76 time=0
EXTRACT: note_on channel=0 note=73 velocity=0 time=0.3092855854166666
EXTRACT: note_on channel=0 note=80 velocity=0 time=0
EXTRACT: note_on channel=1 note=54 velocity=0 time=0.15357136458333331
EXTRACT: note_on channel=1 note=58 velocity=0 time=0
EXTRACT: note_on channel=1 note=61 velocity=0 time=0
EXTRACT: note_on channel=0 note=71 velocity=76 time=0.051428549999999996
EXTRACT: note_on channel=1 note=42 velocity=76 time=0
EXTRACT: note_on channel=1 note=54 velocity=76 time=0
EXTRACT: note_on channel=0 note=71 velocity=0 time=0.15499993541666665
EXTRACT: note_on channel=1 note=42 velocity=0 time=0
EXTRACT: note_on channel=1 note=54 velocity=0 time=0
EXTRACT: note_on channel=0 note=71 velocity=76 time=0.016428564583333333
EXTRACT: note_on channel=0 note=80 velocity=76 time=0
EXTRACT: note_on channel=1 note=40 velocity=76 time=0
EXTRACT: note_on channel=1 note=52 velocity=76 time=0
EXTRACT: note_on channel=0 note=71 velocity=0 time=0.3092855854166666
EXTRACT: note_on channel=0 note=80 velocity=0 time=0
EXTRACT: note_on channel=1 note=40 velocity=0 time=0
EXTRACT: note_on channel=1 note=52 velocity=0 time=0
EXTRACT: note_on channel=0 note=78 velocity=76 time=0.033571414583333334
EXTRACT: note_on channel=1 note=40 velocity=76 time=0
EXTRACT: note_on channel=1 note=52 velocity=76 time=0
EXTRACT: note_on channel=0 note=78 velocity=0 time=0.15499993541666665
EXTRACT: note_on channel=0 note=71 velocity=76 time=0.016428564583333333
EXTRACT: note_on channel=0 note=75 velocity=76 time=0
EXTRACT: note_on channel=1 note=40 velocity=0 time=0.13785708541666666
EXTRACT: note_on channel=1 note=52 velocity=0 time=0
EXTRACT: note_on channel=1 note=52 velocity=76 time=0.033571414583333334
EXTRACT: note_on channel=1 note=56 velocity=76 time=0
EXTRACT: note_on channel=1 note=59 velocity=76 time=0
EXTRACT: note_on channel=0 note=71 velocity=0 time=0.15499993541666665
EXTRACT: note_on channel=0 note=75 velocity=0 time=0
EXTRACT: note_on channel=0 note=73 velocity=76 time=0.016428564583333333
EXTRACT: note_on channel=1 note=52 velocity=0 time=0.29142844999999995
EXTRACT: note_on channel=1 note=56 velocity=0 time=0
EXTRACT: note_on channel=1 note=59 velocity=0 time=0
EXTRACT: note_on channel=0 note=73 velocity=0 time=0.017857135416666666
EXTRACT: note_on channel=0 note=64 velocity=76 time=0.033571414583333334
EXTRACT: note_on channel=0 note=73 velocity=76 time=0
EXTRACT: note_on channel=1 note=47 velocity=76 time=0
EXTRACT: note_on channel=1 note=47 velocity=0 time=0.15499993541666665
EXTRACT: note_on channel=1 note=40 velocity=76 time=0.016428564583333333
EXTRACT: note_on channel=1 note=52 velocity=76 time=0
EXTRACT: note_on channel=0 note=64 velocity=0 time=0.15499993541666665
EXTRACT: note_on channel=0 note=73 velocity=0 time=0
EXTRACT: note_on channel=0 note=75 velocity=76 time=0.016428564583333333
EXTRACT: note_on channel=1 note=40 velocity=0 time=0.13785708541666666
EXTRACT: note_on channel=1 note=52 velocity=0 time=0
EXTRACT: note_on channel=1 note=40 velocity=76 time=0.033571414583333334
EXTRACT: note_on channel=1 note=52 velocity=76 time=0
EXTRACT: note_on channel=0 note=75 velocity=0 time=0.13785708541666666
EXTRACT: note_on channel=0 note=71 velocity=76 time=0.033571414583333334
EXTRACT: note_on channel=1 note=40 velocity=0 time=0.13785708541666666
EXTRACT: note_on channel=1 note=52 velocity=0 time=0
EXTRACT: note_on channel=0 note=71 velocity=0 time=0.017142849999999998
EXTRACT: note_on channel=0 note=64 velocity=76 time=0.016428564583333333
EXTRACT: note_on channel=0 note=68 velocity=76 time=0
EXTRACT: note_on channel=1 note=39 velocity=76 time=0
EXTRACT: note_on channel=1 note=51 velocity=76 time=0
EXTRACT: note_on channel=0 note=64 velocity=0 time=0.3092855854166666
EXTRACT: note_on channel=0 note=68 velocity=0 time=0
EXTRACT: note_on channel=1 note=39 velocity=0 time=0
EXTRACT: note_on channel=1 note=51 velocity=0 time=0
EXTRACT: note_on channel=0 note=68 velocity=76 time=0.033571414583333334
EXTRACT: note_on channel=1 note=37 velocity=76 time=0
EXTRACT: note_on channel=1 note=49 velocity=76 time=0
EXTRACT: note_on channel=0 note=68 velocity=0 time=0.15499993541666665
EXTRACT: note_on channel=0 note=71 velocity=76 time=0.016428564583333333
EXTRACT: note_on channel=1 note=37 velocity=0 time=0.13785708541666666
EXTRACT: note_on channel=1 note=49 velocity=0 time=0
EXTRACT: note_on channel=0 note=71 velocity=0 time=0.017142849999999998
EXTRACT: note_on channel=0 note=75 velocity=76 time=0.016428564583333333
EXTRACT: note_on channel=1 note=35 velocity=76 time=0
EXTRACT: note_on channel=1 note=47 velocity=76 time=0
EXTRACT: note_on channel=0 note=75 velocity=0 time=0.3092855854166666
EXTRACT: note_on channel=1 note=35 velocity=0 time=0
EXTRACT: note_on channel=1 note=47 velocity=0 time=0
EXTRACT: note_on channel=0 note=66 velocity=76 time=0.033571414583333334
EXTRACT: note_on channel=0 note=75 velocity=76 time=0
EXTRACT: note_on channel=1 note=35 velocity=76 time=0
EXTRACT: note_on channel=1 note=47 velocity=76 time=0
EXTRACT: note_on channel=0 note=66 velocity=0 time=0.3092855854166666
EXTRACT: note_on channel=0 note=75 velocity=0 time=0
EXTRACT: note_on channel=1 note=35 velocity=0 time=0
EXTRACT: note_on channel=1 note=47 velocity=0 time=0
EXTRACT: note_on channel=0 note=75 velocity=76 time=0.033571414583333334
EXTRACT: note_on channel=1 note=51 velocity=76 time=0
EXTRACT: note_on channel=1 note=54 velocity=76 time=0
EXTRACT: note_on channel=1 note=59 velocity=76 time=0
EXTRACT: note_on channel=0 note=75 velocity=0 time=0.3092855854166666
EXTRACT: note_on channel=0 note=66 velocity=76 time=0.033571414583333334
EXTRACT: note_on channel=0 note=75 velocity=76 time=0
EXTRACT: note_on channel=1 note=51 velocity=0 time=0.11999995
EXTRACT: note_on channel=1 note=54 velocity=0 time=0
EXTRACT: note_on channel=1 note=59 velocity=0 time=0
EXTRACT: note_on channel=1 note=47 velocity=76 time=0.051428549999999996
EXTRACT: note_on channel=0 note=66 velocity=0 time=0.13785708541666666
EXTRACT: note_on channel=0 note=75 velocity=0 time=0
EXTRACT: note_on channel=1 note=47 velocity=0 time=0.017142849999999998
EXTRACT: note_on channel=0 note=73 velocity=76 time=0.016428564583333333
EXTRACT: note_on channel=1 note=39 velocity=76 time=0
EXTRACT: note_on channel=1 note=51 velocity=76 time=0
EXTRACT: note_on channel=0 note=73 velocity=0 time=0.3092855854166666
EXTRACT: note_on channel=1 note=39 velocity=0 time=0
EXTRACT: note_on channel=1 note=51 velocity=0 time=0
EXTRACT: note_on channel=0 note=66 velocity=76 time=0.033571414583333334
EXTRACT: note_on channel=0 note=71 velocity=76 time=0
EXTRACT: note_on channel=1 note=39 velocity=76 time=0
EXTRACT: note_on channel=1 note=51 velocity=76 time=0
EXTRACT: note_on channel=0 note=66 velocity=0 time=0.3092855854166666
EXTRACT: note_on channel=0 note=71 velocity=0 time=0
EXTRACT: note_on channel=1 note=39 velocity=0 time=0
EXTRACT: note_on channel=1 note=51 velocity=0 time=0
EXTRACT: note_on channel=0 note=73 velocity=76 time=0.033571414583333334
EXTRACT: note_on channel=1 note=51 velocity=76 time=0
EXTRACT: note_on channel=1 note=54 velocity=76 time=0
EXTRACT: note_on channel=1 note=58 velocity=76 time=0
EXTRACT: note_on channel=0 note=73 velocity=0 time=0.3092855854166666
EXTRACT: note_on channel=0 note=68 velocity=76 time=0.033571414583333334
EXTRACT: note_on channel=0 note=75 velocity=76 time=0
EXTRACT: note_on channel=1 note=51 velocity=0 time=0.11999995
EXTRACT: note_on channel=1 note=54 velocity=0 time=0
EXTRACT: note_on channel=1 note=58 velocity=0 time=0
EXTRACT: note_on channel=1 note=39 velocity=76 time=0.051428549999999996
EXTRACT: note_on channel=1 note=51 velocity=76 time=0
EXTRACT: note_on channel=1 note=39 velocity=0 time=0.15499993541666665
EXTRACT: note_on channel=1 note=51 velocity=0 time=0
EXTRACT: note_on channel=1 note=40 velocity=76 time=0.016428564583333333
EXTRACT: note_on channel=1 note=52 velocity=76 time=0
EXTRACT: note_on channel=0 note=68 velocity=0 time=0.15499993541666665
EXTRACT: note_on channel=0 note=75 velocity=0 time=0
EXTRACT: note_on channel=0 note=71 velocity=76 time=0.016428564583333333
EXTRACT: note_on channel=1 note=40 velocity=0 time=0.13785708541666666
EXTRACT: note_on channel=1 note=52 velocity=0 time=0
EXTRACT: note_on channel=0 note=71 velocity=0 time=0.017142849999999998
EXTRACT: note_on channel=0 note=68 velocity=76 time=0.016428564583333333
EXTRACT: note_on channel=1 note=40 velocity=76 time=0
EXTRACT: note_on channel=1 note=52 velocity=76 time=0
EXTRACT: note_on channel=0 note=68 velocity=0 time=0.3092855854166666
EXTRACT: note_on channel=1 note=40 velocity=0 time=0
EXTRACT: note_on channel=1 note=52 velocity=0 time=0
EXTRACT: note_on channel=1 note=52 velocity=76 time=0.033571414583333334
EXTRACT: note_on channel=1 note=56 velocity=76 time=0
EXTRACT: note_on channel=1 note=59 velocity=76 time=0
EXTRACT: note_on channel=1 note=52 velocity=0 time=0.46285694999999993
EXTRACT: note_on channel=1 note=56 velocity=0 time=0
EXTRACT: note_on channel=1 note=59 velocity=0 time=0
EXTRACT: note_on channel=1 note=47 velocity=76 time=0.051428549999999996
EXTRACT: note_on channel=1 note=47 velocity=0 time=0.15499993541666665
EXTRACT: note_on channel=0 note=68 velocity=76 time=0.016428564583333333
EXTRACT: note_on channel=0 note=76 velocity=76 time=0
EXTRACT: note_on channel=1 note=40 velocity=76 time=0
EXTRACT: note_on channel=1 note=52 velocity=76 time=0
EXTRACT: note_on channel=0 note=68 velocity=0 time=0.3092855854166666
EXTRACT: note_on channel=0 note=76 velocity=0 time=0
EXTRACT: note_on channel=1 note=40 velocity=0 time=0
EXTRACT: note_on channel=1 note=52 velocity=0 time=0
EXTRACT: note_on channel=0 note=66 velocity=76 time=0.033571414583333334
EXTRACT: note_on channel=0 note=75 velocity=76 time=0
EXTRACT: note_on channel=0 note=66 velocity=0 time=0.3092855854166666
EXTRACT: note_on channel=0 note=75 velocity=0 time=0
EXTRACT: note_on channel=0 note=64 velocity=76 time=0.033571414583333334
EXTRACT: note_on channel=0 note=73 velocity=76 time=0
EXTRACT: note_on channel=0 note=64 velocity=0 time=0.3092855854166666
EXTRACT: note_on channel=0 note=73 velocity=0 time=0
EXTRACT: note_on channel=0 note=63 velocity=76 time=0.033571414583333334
EXTRACT: note_on channel=0 note=71 velocity=76 time=0
EXTRACT: note_on channel=0 note=63 velocity=0 time=0.3092855854166666
EXTRACT: note_on channel=0 note=71 velocity=0 time=0
EXTRACT: note_on channel=1 note=35 velocity=76 time=0.033571414583333334
EXTRACT: note_on channel=1 note=47 velocity=76 time=0
EXTRACT: note_on channel=1 note=35 velocity=0 time=0.3092855854166666
EXTRACT: note_on channel=1 note=47 velocity=0 time=0
EXTRACT: note_on channel=0 note=71 velocity=76 time=0.033571414583333334
EXTRACT: note_on channel=0 note=80 velocity=76 time=0
EXTRACT: note_on channel=1 note=35 velocity=76 time=0
EXTRACT: note_on channel=1 note=47 velocity=76 time=0
EXTRACT: note_on channel=0 note=71 velocity=0 time=0.3092855854166666
EXTRACT: note_on channel=0 note=80 velocity=0 time=0
EXTRACT: note_on channel=1 note=35 velocity=0 time=0
EXTRACT: note_on channel=1 note=47 velocity=0 time=0
EXTRACT: note_on channel=0 note=70 velocity=76 time=0.033571414583333334
EXTRACT: note_on channel=0 note=78 velocity=76 time=0
EXTRACT: note_on channel=1 note=51 velocity=76 time=0
EXTRACT: note_on channel=1 note=54 velocity=76 time=0
EXTRACT: note_on channel=1 note=59 velocity=76 time=0
EXTRACT: note_on channel=0 note=70 velocity=0 time=0.3092855854166666
EXTRACT: note_on channel=0 note=78 velocity=0 time=0
EXTRACT: note_on channel=0 note=66 velocity=76 time=0.033571414583333334
EXTRACT: note_on channel=0 note=75 velocity=76 time=0
EXTRACT: note_on channel=1 note=51 velocity=0 time=0.11999995
EXTRACT: note_on channel=1 note=54 velocity=0 time=0
EXTRACT: note_on channel=1 note=59 velocity=0 time=0
EXTRACT: note_on channel=1 note=47 velocity=76 time=0.051428549999999996
EXTRACT: note_on channel=0 note=66 velocity=0 time=0.13785708541666666
EXTRACT: note_on channel=0 note=75 velocity=0 time=0
EXTRACT: note_on channel=1 note=47 velocity=0 time=0.017142849999999998
EXTRACT: note_on channel=1 note=42 velocity=76 time=0.016428564583333333
EXTRACT: note_on channel=1 note=54 velocity=76 time=0
EXTRACT: note_on channel=1 note=42 velocity=0 time=0.3092855854166666
EXTRACT: note_on channel=1 note=54 velocity=0 time=0
EXTRACT: note_on channel=0 note=71 velocity=76 time=0.033571414583333334
EXTRACT: note_on channel=0 note=80 velocity=76 time=0
EXTRACT: note_on channel=1 note=42 velocity=76 time=0
EXTRACT: note_on channel=1 note=54 velocity=76 time=0
EXTRACT: note_on channel=0 note=71 velocity=0 time=0.3092855854166666
EXTRACT: note_on channel=0 note=80 velocity=0 time=0
EXTRACT: note_on channel=1 note=42 velocity=0 time=0
EXTRACT: note_on channel=1 note=54 velocity=0 time=0
EXTRACT: note_on channel=0 note=70 velocity=76 time=0.033571414583333334
EXTRACT: note_on channel=0 note=78 velocity=76 time=0
EXTRACT: note_on channel=1 note=54 velocity=76 time=0
EXTRACT: note_on channel=1 note=58 velocity=76 time=0
EXTRACT: note_on channel=1 note=61 velocity=76 time=0
EXTRACT: note_on channel=0 note=70 velocity=0 time=0.3092855854166666
EXTRACT: note_on channel=0 note=78 velocity=0 time=0
EXTRACT: note_on channel=0 note=66 velocity=76 time=0.033571414583333334
EXTRACT: note_on channel=0 note=75 velocity=76 time=0
EXTRACT: note_on channel=1 note=54 velocity=0 time=0.11999995
EXTRACT: note_on channel=1 note=58 velocity=0 time=0
EXTRACT: note_on channel=1 note=61 velocity=0 time=0
EXTRACT: note_on channel=1 note=42 velocity=76 time=0.051428549999999996
EXTRACT: note_on channel=1 note=54 velocity=76 time=0
EXTRACT: note_on channel=0 note=66 velocity=0 time=0.13785708541666666
EXTRACT: note_on channel=0 note=75 velocity=0 time=0
EXTRACT: note_on channel=1 note=42 velocity=0 time=0.017142849999999998
EXTRACT: note_on channel=1 note=54 velocity=0 time=0
EXTRACT: note_on channel=0 note=68 velocity=76 time=0.016428564583333333
EXTRACT: note_on channel=0 note=76 velocity=76 time=0
EXTRACT: note_on channel=1 note=40 velocity=76 time=0
EXTRACT: note_on channel=1 note=52 velocity=76 time=0
EXTRACT: note_on channel=0 note=68 velocity=0 time=0.3092855854166666
EXTRACT: note_on channel=0 note=76 velocity=0 time=0
EXTRACT: note_on channel=1 note=40 velocity=0 time=0
EXTRACT: note_on channel=1 note=52 velocity=0 time=0
EXTRACT: note_on channel=0 note=66 velocity=76 time=0.033571414583333334
EXTRACT: note_on channel=0 note=75 velocity=76 time=0
EXTRACT: note_on channel=1 note=40 velocity=76 time=0
EXTRACT: note_on channel=1 note=52 velocity=76 time=0
EXTRACT: note_on channel=0 note=66 velocity=0 time=0.3092855854166666
EXTRACT: note_on channel=0 note=75 velocity=0 time=0
EXTRACT: note_on channel=1 note=40 velocity=0 time=0
EXTRACT: note_on channel=1 note=52 velocity=0 time=0
EXTRACT: note_on channel=0 note=64 velocity=76 time=0.033571414583333334
EXTRACT: note_on channel=0 note=71 velocity=76 time=0
EXTRACT: note_on channel=1 note=52 velocity=76 time=0
EXTRACT: note_on channel=1 note=56 velocity=76 time=0
EXTRACT: note_on channel=1 note=59 velocity=76 time=0
EXTRACT: note_on channel=1 note=52 velocity=0 time=0.46285694999999993
EXTRACT: note_on channel=1 note=56 velocity=0 time=0
EXTRACT: note_on channel=1 note=59 velocity=0 time=0
EXTRACT: note_on channel=1 note=47 velocity=76 time=0.051428549999999996
EXTRACT: note_on channel=0 note=64 velocity=0 time=0.10428567083333333
EXTRACT: note_on channel=0 note=71 velocity=0 time=0
EXTRACT: note_on channel=1 note=47 velocity=0 time=0.05071426458333333
EXTRACT: note_on channel=0 note=68 velocity=76 time=0.016428564583333333
EXTRACT: note_on channel=0 note=76 velocity=76 time=0
EXTRACT: note_on channel=1 note=40 velocity=76 time=0
EXTRACT: note_on channel=1 note=52 velocity=76 time=0
EXTRACT: note_on channel=0 note=68 velocity=0 time=0.3092855854166666
EXTRACT: note_on channel=0 note=76 velocity=0 time=0
EXTRACT: note_on channel=1 note=40 velocity=0 time=0
EXTRACT: note_on channel=1 note=52 velocity=0 time=0
EXTRACT: note_on channel=0 note=66 velocity=76 time=0.033571414583333334
EXTRACT: note_on channel=0 note=75 velocity=76 time=0
EXTRACT: note_on channel=1 note=40 velocity=76 time=0
EXTRACT: note_on channel=1 note=52 velocity=76 time=0
EXTRACT: note_on channel=0 note=66 velocity=0 time=0.3092855854166666
EXTRACT: note_on channel=0 note=75 velocity=0 time=0
EXTRACT: note_on channel=1 note=40 velocity=0 time=0
EXTRACT: note_on channel=1 note=52 velocity=0 time=0
EXTRACT: note_on channel=0 note=64 velocity=76 time=0.033571414583333334
EXTRACT: note_on channel=0 note=73 velocity=76 time=0
EXTRACT: note_on channel=1 note=39 velocity=76 time=0
EXTRACT: note_on channel=1 note=51 velocity=76 time=0
EXTRACT: note_on channel=0 note=64 velocity=0 time=0.3092855854166666
EXTRACT: note_on channel=0 note=73 velocity=0 time=0
EXTRACT: note_on channel=1 note=39 velocity=0 time=0
EXTRACT: note_on channel=1 note=51 velocity=0 time=0
EXTRACT: note_on channel=0 note=63 velocity=76 time=0.033571414583333334
EXTRACT: note_on channel=0 note=71 velocity=76 time=0
EXTRACT: note_on channel=1 note=37 velocity=76 time=0
EXTRACT: note_on channel=1 note=49 velocity=76 time=0
EXTRACT: note_on channel=0 note=63 velocity=0 time=0.3092855854166666
EXTRACT: note_on channel=0 note=71 velocity=0 time=0
EXTRACT: note_on channel=1 note=37 velocity=0 time=0
EXTRACT: note_on channel=1 note=49 velocity=0 time=0
EXTRACT: note_on channel=1 note=35 velocity=76 time=0.033571414583333334
EXTRACT: note_on channel=1 note=47 velocity=76 time=0
EXTRACT: note_on channel=1 note=35 velocity=0 time=0.3092855854166666
EXTRACT: note_on channel=1 note=47 velocity=0 time=0
EXTRACT: note_on channel=0 note=71 velocity=76 time=0.033571414583333334
EXTRACT: note_on channel=0 note=80 velocity=76 time=0
EXTRACT: note_on channel=1 note=35 velocity=76 time=0
EXTRACT: note_on channel=1 note=47 velocity=76 time=0
EXTRACT: note_on channel=0 note=71 velocity=0 time=0.3092855854166666
EXTRACT: note_on channel=0 note=80 velocity=0 time=0
EXTRACT: note_on channel=1 note=35 velocity=0 time=0
EXTRACT: note_on channel=1 note=47 velocity=0 time=0
EXTRACT: note_on channel=0 note=70 velocity=76 time=0.033571414583333334
EXTRACT: note_on channel=0 note=78 velocity=76 time=0
EXTRACT: note_on channel=1 note=51 velocity=76 time=0
EXTRACT: note_on channel=1 note=54 velocity=76 time=0
EXTRACT: note_on channel=1 note=59 velocity=76 time=0
EXTRACT: note_on channel=0 note=70 velocity=0 time=0.3092855854166666
EXTRACT: note_on channel=0 note=78 velocity=0 time=0
EXTRACT: note_on channel=0 note=66 velocity=76 time=0.033571414583333334
EXTRACT: note_on channel=0 note=75 velocity=76 time=0
EXTRACT: note_on channel=1 note=51 velocity=0 time=0.11999995
EXTRACT: note_on channel=1 note=54 velocity=0 time=0
EXTRACT: note_on channel=1 note=59 velocity=0 time=0
EXTRACT: note_on channel=1 note=47 velocity=76 time=0.051428549999999996
EXTRACT: note_on channel=0 note=66 velocity=0 time=0.13785708541666666
EXTRACT: note_on channel=0 note=75 velocity=0 time=0
EXTRACT: note_on channel=1 note=47 velocity=0 time=0.017142849999999998
EXTRACT: note_on channel=1 note=42 velocity=76 time=0.016428564583333333
EXTRACT: note_on channel=1 note=54 velocity=76 time=0
EXTRACT: note_on channel=1 note=42 velocity=0 time=0.3092855854166666
EXTRACT: note_on channel=1 note=54 velocity=0 time=0
EXTRACT: note_on channel=0 note=71 velocity=76 time=0.033571414583333334
EXTRACT: note_on channel=0 note=80 velocity=76 time=0
EXTRACT: note_on channel=1 note=42 velocity=76 time=0
EXTRACT: note_on channel=1 note=54 velocity=76 time=0
EXTRACT: note_on channel=0 note=71 velocity=0 time=0.3092855854166666
EXTRACT: note_on channel=0 note=80 velocity=0 time=0
EXTRACT: note_on channel=1 note=42 velocity=0 time=0
EXTRACT: note_on channel=1 note=54 velocity=0 time=0
EXTRACT: note_on channel=0 note=70 velocity=76 time=0.033571414583333334
EXTRACT: note_on channel=0 note=78 velocity=76 time=0
EXTRACT: note_on channel=1 note=54 velocity=76 time=0
EXTRACT: note_on channel=1 note=58 velocity=76 time=0
EXTRACT: note_on channel=1 note=61 velocity=76 time=0
EXTRACT: note_on channel=0 note=70 velocity=0 time=0.3092855854166666
EXTRACT: note_on channel=0 note=78 velocity=0 time=0
EXTRACT: note_on channel=0 note=66 velocity=76 time=0.033571414583333334
EXTRACT: note_on channel=0 note=75 velocity=76 time=0
EXTRACT: note_on channel=1 note=54 velocity=0 time=0.11999995
EXTRACT: note_on channel=1 note=58 velocity=0 time=0
EXTRACT: note_on channel=1 note=61 velocity=0 time=0
EXTRACT: note_on channel=1 note=42 velocity=76 time=0.051428549999999996
EXTRACT: note_on channel=1 note=54 velocity=76 time=0
EXTRACT: note_on channel=0 note=66 velocity=0 time=0.13785708541666666
EXTRACT: note_on channel=0 note=75 velocity=0 time=0
EXTRACT: note_on channel=1 note=42 velocity=0 time=0.017142849999999998
EXTRACT: note_on channel=1 note=54 velocity=0 time=0
EXTRACT: note_on channel=0 note=68 velocity=76 time=0.016428564583333333
EXTRACT: note_on channel=0 note=76 velocity=76 time=0
EXTRACT: note_on channel=1 note=40 velocity=76 time=0
EXTRACT: note_on channel=1 note=52 velocity=76 time=0
EXTRACT: note_on channel=0 note=68 velocity=0 time=0.3092855854166666
EXTRACT: note_on channel=0 note=76 velocity=0 time=0
EXTRACT: note_on channel=1 note=40 velocity=0 time=0
EXTRACT: note_on channel=1 note=52 velocity=0 time=0
EXTRACT: note_on channel=0 note=66 velocity=76 time=0.033571414583333334
EXTRACT: note_on channel=0 note=75 velocity=76 time=0
EXTRACT: note_on channel=1 note=40 velocity=76 time=0
EXTRACT: note_on channel=1 note=52 velocity=76 time=0
EXTRACT: note_on channel=0 note=66 velocity=0 time=0.3092855854166666
EXTRACT: note_on channel=0 note=75 velocity=0 time=0
EXTRACT: note_on channel=1 note=40 velocity=0 time=0
EXTRACT: note_on channel=1 note=52 velocity=0 time=0
EXTRACT: note_on channel=0 note=64 velocity=76 time=0.033571414583333334
EXTRACT: note_on channel=0 note=71 velocity=76 time=0
EXTRACT: note_on channel=1 note=52 velocity=76 time=0
EXTRACT: note_on channel=1 note=56 velocity=76 time=0
EXTRACT: note_on channel=1 note=59 velocity=76 time=0
EXTRACT: note_on channel=1 note=52 velocity=0 time=0.46285694999999993
EXTRACT: note_on channel=1 note=56 velocity=0 time=0
EXTRACT: note_on channel=1 note=59 velocity=0 time=0
EXTRACT: note_on channel=1 note=47 velocity=76 time=0.051428549999999996
EXTRACT: note_on channel=1 note=47 velocity=0 time=0.15499993541666665
EXTRACT: note_on channel=1 note=40 velocity=76 time=0.016428564583333333
EXTRACT: note_on channel=1 note=52 velocity=76 time=0
EXTRACT: note_on channel=1 note=40 velocity=0 time=0.3092855854166666
EXTRACT: note_on channel=1 note=52 velocity=0 time=0
EXTRACT: note_on channel=1 note=40 velocity=76 time=0.033571414583333334
EXTRACT: note_on channel=1 note=52 velocity=76 time=0
EXTRACT: note_on channel=0 note=64 velocity=0 time=0.2757141708333333
EXTRACT: note_on channel=0 note=71 velocity=0 time=0
EXTRACT: note_on channel=1 note=40 velocity=0 time=0.033571414583333334
EXTRACT: note_on channel=1 note=52 velocity=0 time=0
EXTRACT: note_on channel=1 note=39 velocity=76 time=0.033571414583333334
EXTRACT: note_on channel=1 note=51 velocity=76 time=0
EXTRACT: note_on channel=0 note=71 velocity=76 time=0.17142849999999998
EXTRACT: note_on channel=1 note=39 velocity=0 time=0.13785708541666666
EXTRACT: note_on channel=1 note=51 velocity=0 time=0
EXTRACT: note_on channel=0 note=71 velocity=0 time=0.017142849999999998
EXTRACT: note_on channel=0 note=64 velocity=76 time=0.016428564583333333
EXTRACT: note_on channel=0 note=71 velocity=76 time=0
EXTRACT: note_on channel=1 note=37 velocity=76 time=0
EXTRACT: note_on channel=1 note=49 velocity=76 time=0
EXTRACT: note_on channel=0 note=64 velocity=0 time=0.15499993541666665
EXTRACT: note_on channel=0 note=71 velocity=0 time=0
EXTRACT: note_on channel=0 note=73 velocity=76 time=0.016428564583333333
EXTRACT: note_on channel=1 note=37 velocity=0 time=0.13785708541666666
EXTRACT: note_on channel=1 note=49 velocity=0 time=0
EXTRACT: note_on channel=0 note=73 velocity=0 time=0.017142849999999998
EXTRACT: note_on channel=0 note=75 velocity=76 time=0.016428564583333333
EXTRACT: note_on channel=1 note=47 velocity=76 time=0
EXTRACT: note_on channel=0 note=75 velocity=0 time=0.3092855854166666
EXTRACT: note_on channel=1 note=47 velocity=0 time=0
EXTRACT: note_on channel=0 note=75 velocity=76 time=0.033571414583333334
EXTRACT: note_on channel=1 note=51 velocity=76 time=0
EXTRACT: note_on channel=1 note=54 velocity=76 time=0
EXTRACT: note_on channel=0 note=75 velocity=0 time=0.3092855854166666
EXTRACT: note_on channel=1 note=51 velocity=0 time=0
EXTRACT: note_on channel=1 note=54 velocity=0 time=0
EXTRACT: note_on channel=0 note=75 velocity=76 time=0.033571414583333334
EXTRACT: note_on channel=0 note=75 velocity=0 time=0.3092855854166666
EXTRACT: note_on channel=0 note=75 velocity=76 time=0.033571414583333334
EXTRACT: note_on channel=1 note=51 velocity=76 time=0
EXTRACT: note_on channel=1 note=54 velocity=76 time=0
EXTRACT: note_on channel=0 note=75 velocity=0 time=0.3092855854166666
EXTRACT: note_on channel=1 note=51 velocity=0 time=0
EXTRACT: note_on channel=1 note=54 velocity=0 time=0
EXTRACT: note_on channel=0 note=73 velocity=76 time=0.033571414583333334
EXTRACT: note_on channel=1 note=54 velocity=76 time=0
EXTRACT: note_on channel=0 note=73 velocity=0 time=0.15499993541666665
EXTRACT: note_on channel=0 note=73 velocity=76 time=0.016428564583333333
EXTRACT: note_on channel=1 note=54 velocity=0 time=0.13785708541666666
EXTRACT: note_on channel=1 note=58 velocity=76 time=0.033571414583333334
EXTRACT: note_on channel=1 note=61 velocity=76 time=0
EXTRACT: note_on channel=0 note=73 velocity=0 time=0.13785708541666666
EXTRACT: note_on channel=0 note=71 velocity=76 time=0.033571414583333334
EXTRACT: note_on channel=1 note=58 velocity=0 time=0.13785708541666666
EXTRACT: note_on channel=1 note=61 velocity=0 time=0
EXTRACT: note_on channel=0 note=71 velocity=0 time=0.017142849999999998
EXTRACT: note_on channel=0 note=75 velocity=76 time=0.016428564583333333
EXTRACT: note_on channel=0 note=75 velocity=0 time=0.3092855854166666
EXTRACT: note_on channel=0 note=73 velocity=76 time=0.033571414583333334
EXTRACT: note_on channel=1 note=58 velocity=76 time=0
EXTRACT: note_on channel=1 note=61 velocity=76 time=0
EXTRACT: note_on channel=0 note=73 velocity=0 time=0.15499993541666665
EXTRACT: note_on channel=0 note=71 velocity=76 time=0.016428564583333333
EXTRACT: note_on channel=1 note=58 velocity=0 time=0.13785708541666666
EXTRACT: note_on channel=1 note=61 velocity=0 time=0
EXTRACT: note_on channel=0 note=71 velocity=0 time=0.017142849999999998
EXTRACT: note_on channel=0 note=73 velocity=76 time=0.016428564583333333
EXTRACT: note_on channel=1 note=52 velocity=76 time=0
EXTRACT: note_on channel=0 note=73 velocity=0 time=0.15499993541666665
EXTRACT: note_on channel=0 note=73 velocity=76 time=0.016428564583333333
EXTRACT: note_on channel=1 note=52 velocity=0 time=0.13785708541666666
EXTRACT: note_on channel=0 note=73 velocity=0 time=0.017142849999999998
EXTRACT: note_on channel=0 note=75 velocity=76 time=0.016428564583333333
EXTRACT: note_on channel=1 note=56 velocity=76 time=0
EXTRACT: note_on channel=1 note=59 velocity=76 time=0
EXTRACT: note_on channel=0 note=75 velocity=0 time=0.3092855854166666
EXTRACT: note_on channel=1 note=56 velocity=0 time=0
EXTRACT: note_on channel=1 note=59 velocity=0 time=0
EXTRACT: note_on channel=0 note=68 velocity=76 time=0.033571414583333334
EXTRACT: note_on channel=0 note=68 velocity=0 time=0.3092855854166666
EXTRACT: note_on channel=0 note=73 velocity=76 time=0.033571414583333334
EXTRACT: note_on channel=1 note=56 velocity=76 time=0
EXTRACT: note_on channel=1 note=59 velocity=76 time=0
EXTRACT: note_on channel=0 note=73 velocity=0 time=0.15499993541666665
EXTRACT: note_on channel=0 note=71 velocity=76 time=0.016428564583333333
EXTRACT: note_on channel=1 note=56 velocity=0 time=0.13785708541666666
EXTRACT: note_on channel=1 note=59 velocity=0 time=0
EXTRACT: note_on channel=0 note=71 velocity=0 time=0.017142849999999998
EXTRACT: note_on channel=0 note=73 velocity=76 time=0.016428564583333333
EXTRACT: note_on channel=1 note=52 velocity=76 time=0
EXTRACT: note_on channel=0 note=73 velocity=0 time=0.15499993541666665
EXTRACT: note_on channel=0 note=73 velocity=76 time=0.016428564583333333
EXTRACT: note_on channel=1 note=52 velocity=0 time=0.13785708541666666
EXTRACT: note_on channel=0 note=73 velocity=0 time=0.017142849999999998
EXTRACT: note_on channel=0 note=75 velocity=76 time=0.016428564583333333
EXTRACT: note_on channel=1 note=56 velocity=76 time=0
EXTRACT: note_on channel=1 note=59 velocity=76 time=0
EXTRACT: note_on channel=0 note=75 velocity=0 time=0.3092855854166666
EXTRACT: note_on channel=1 note=56 velocity=0 time=0
EXTRACT: note_on channel=1 note=59 velocity=0 time=0
EXTRACT: note_on channel=0 note=68 velocity=76 time=0.033571414583333334
EXTRACT: note_on channel=1 note=56 velocity=76 time=0.34285699999999997
EXTRACT: note_on channel=1 note=59 velocity=76 time=0
EXTRACT: note_on channel=0 note=68 velocity=0 time=0.11999995
EXTRACT: note_on channel=0 note=71 velocity=76 time=0.051428549999999996
EXTRACT: note_on channel=1 note=56 velocity=0 time=0.13785708541666666
EXTRACT: note_on channel=1 note=59 velocity=0 time=0
EXTRACT: note_on channel=0 note=71 velocity=0 time=0.017142849999999998
EXTRACT: note_on channel=0 note=75 velocity=76 time=0.016428564583333333
EXTRACT: note_on channel=1 note=47 velocity=76 time=0
EXTRACT: note_on channel=0 note=75 velocity=0 time=0.3092855854166666
EXTRACT: note_on channel=1 note=47 velocity=0 time=0
EXTRACT: note_on channel=0 note=78 velocity=76 time=0.033571414583333334
EXTRACT: note_on channel=1 note=51 velocity=76 time=0
EXTRACT: note_on channel=1 note=54 velocity=76 time=0
EXTRACT: note_on channel=0 note=78 velocity=0 time=0.3092855854166666
EXTRACT: note_on channel=1 note=51 velocity=0 time=0
EXTRACT: note_on channel=1 note=54 velocity=0 time=0
EXTRACT: note_on channel=0 note=78 velocity=76 time=0.033571414583333334
EXTRACT: note_on channel=0 note=78 velocity=0 time=0.3092855854166666
EXTRACT: note_on channel=0 note=80 velocity=76 time=0.033571414583333334
EXTRACT: note_on channel=1 note=51 velocity=76 time=0
EXTRACT: note_on channel=1 note=54 velocity=76 time=0
EXTRACT: note_on channel=0 note=80 velocity=0 time=0.3092855854166666
EXTRACT: note_on channel=1 note=51 velocity=0 time=0
EXTRACT: note_on channel=1 note=54 velocity=0 time=0
EXTRACT: note_on channel=0 note=73 velocity=76 time=0.033571414583333334
EXTRACT: note_on channel=1 note=54 velocity=76 time=0
EXTRACT: note_on channel=0 note=73 velocity=0 time=0.3092855854166666
EXTRACT: note_on channel=1 note=54 velocity=0 time=0
EXTRACT: note_on channel=0 note=73 velocity=76 time=0.033571414583333334
EXTRACT: note_on channel=1 note=58 velocity=76 time=0
EXTRACT: note_on channel=1 note=61 velocity=76 time=0
EXTRACT: note_on channel=0 note=73 velocity=0 time=0.3092855854166666
EXTRACT: note_on channel=1 note=58 velocity=0 time=0
EXTRACT: note_on channel=1 note=61 velocity=0 time=0
EXTRACT: note_on channel=0 note=75 velocity=76 time=0.033571414583333334
EXTRACT: note_on channel=0 note=75 velocity=0 time=0.3092855854166666
EXTRACT: note_on channel=0 note=71 velocity=76 time=0.033571414583333334
EXTRACT: note_on channel=1 note=58 velocity=76 time=0
EXTRACT: note_on channel=1 note=61 velocity=76 time=0
EXTRACT: note_on channel=0 note=71 velocity=0 time=0.3092855854166666
EXTRACT: note_on channel=1 note=58 velocity=0 time=0
EXTRACT: note_on channel=1 note=61 velocity=0 time=0
EXTRACT: note_on channel=0 note=68 velocity=76 time=0.033571414583333334
EXTRACT: note_on channel=1 note=52 velocity=76 time=0
EXTRACT: note_on channel=1 note=52 velocity=0 time=0.3092855854166666
EXTRACT: note_on channel=1 note=56 velocity=76 time=0.033571414583333334
EXTRACT: note_on channel=1 note=59 velocity=76 time=0
EXTRACT: note_on channel=1 note=56 velocity=0 time=0.3092855854166666
EXTRACT: note_on channel=1 note=59 velocity=0 time=0
EXTRACT: note_on channel=1 note=56 velocity=76 time=0.3764284145833333
EXTRACT: note_on channel=1 note=59 velocity=76 time=0
EXTRACT: note_on channel=0 note=68 velocity=0 time=0.2757141708333333
EXTRACT: note_on channel=1 note=56 velocity=0 time=0.033571414583333334
EXTRACT: note_on channel=1 note=59 velocity=0 time=0
EXTRACT: note_on channel=1 note=52 velocity=76 time=0.033571414583333334
EXTRACT: note_on channel=1 note=52 velocity=0 time=0.3092855854166666
EXTRACT: note_on channel=0 note=64 velocity=76 time=0.033571414583333334
EXTRACT: note_on channel=0 note=71 velocity=76 time=0
EXTRACT: note_on channel=1 note=56 velocity=76 time=0
EXTRACT: note_on channel=1 note=59 velocity=76 time=0
EXTRACT: note_on channel=1 note=56 velocity=0 time=0.3092855854166666
EXTRACT: note_on channel=1 note=59 velocity=0 time=0
EXTRACT: note_on channel=0 note=64 velocity=0 time=0.3092855854166666
EXTRACT: note_on channel=0 note=71 velocity=0 time=0
EXTRACT: note_on channel=1 note=56 velocity=76 time=0.06714282916666667
EXTRACT: note_on channel=1 note=59 velocity=76 time=0
EXTRACT: note_on channel=0 note=73 velocity=76 time=0.17142849999999998
EXTRACT: note_on channel=1 note=56 velocity=0 time=0.13785708541666666
EXTRACT: note_on channel=1 note=59 velocity=0 time=0
EXTRACT: note_on channel=0 note=73 velocity=0 time=0.017142849999999998
EXTRACT: note_on channel=0 note=75 velocity=76 time=0.016428564583333333
EXTRACT: note_on channel=1 note=35 velocity=76 time=0
EXTRACT: note_on channel=1 note=47 velocity=76 time=0
EXTRACT: note_on channel=0 note=75 velocity=0 time=0.3092855854166666
EXTRACT: note_on channel=1 note=35 velocity=0 time=0
EXTRACT: note_on channel=1 note=47 velocity=0 time=0
EXTRACT: note_on channel=0 note=66 velocity=76 time=0.033571414583333334
EXTRACT: note_on channel=0 note=75 velocity=76 time=0
EXTRACT: note_on channel=1 note=35 velocity=76 time=0
EXTRACT: note_on channel=1 note=47 velocity=76 time=0
EXTRACT: note_on channel=0 note=66 velocity=0 time=0.15499993541666665
EXTRACT: note_on channel=0 note=75 velocity=0 time=0
EXTRACT: note_on channel=0 note=73 velocity=76 time=0.016428564583333333
EXTRACT: note_on channel=1 note=35 velocity=0 time=0.13785708541666666
EXTRACT: note_on channel=1 note=47 velocity=0 time=0
EXTRACT: note_on channel=0 note=73 velocity=0 time=0.017142849999999998
EXTRACT: note_on channel=0 note=75 velocity=76 time=0.016428564583333333
EXTRACT: note_on channel=1 note=51 velocity=76 time=0
EXTRACT: note_on channel=1 note=54 velocity=76 time=0
EXTRACT: note_on channel=1 note=59 velocity=76 time=0
EXTRACT: note_on channel=0 note=75 velocity=0 time=0.15499993541666665
EXTRACT: note_on channel=0 note=73 velocity=76 time=0.016428564583333333
EXTRACT: note_on channel=0 note=73 velocity=0 time=0.15499993541666665
EXTRACT: note_on channel=0 note=66 velocity=76 time=0.016428564583333333
EXTRACT: note_on channel=0 note=75 velocity=76 time=0
EXTRACT: note_on channel=1 note=51 velocity=0 time=0.11999995
EXTRACT: note_on channel=1 note=54 velocity=0 time=0
EXTRACT: note_on channel=1 note=59 velocity=0 time=0
EXTRACT: note_on channel=0 note=66 velocity=0 time=0.034999985416666664
EXTRACT: note_on channel=0 note=75 velocity=0 time=0
EXTRACT: note_on channel=0 note=73 velocity=76 time=0.016428564583333333
EXTRACT: note_on channel=1 note=47 velocity=76 time=0
EXTRACT: note_on channel=0 note=73 velocity=0 time=0.15499993541666665
EXTRACT: note_on channel=1 note=47 velocity=0 time=0
EXTRACT: note_on channel=0 note=73 velocity=76 time=0.016428564583333333
EXTRACT: note_on channel=1 note=42 velocity=76 time=0
EXTRACT: note_on channel=1 note=54 velocity=76 time=0
EXTRACT: note_on channel=0 note=73 velocity=0 time=0.15499993541666665
EXTRACT: note_on channel=0 note=66 velocity=76 time=0.016428564583333333
EXTRACT: note_on channel=0 note=73 velocity=76 time=0
EXTRACT: note_on channel=1 note=42 velocity=0 time=0.13785708541666666
EXTRACT: note_on channel=1 note=54 velocity=0 time=0
EXTRACT: note_on channel=1 note=42 velocity=76 time=0.033571414583333334
EXTRACT: note_on channel=1 note=54 velocity=76 time=0
EXTRACT: note_on channel=0 note=66 velocity=0 time=0.13785708541666666
EXTRACT: note_on channel=0 note=73 velocity=0 time=0
EXTRACT: note_on channel=0 note=71 velocity=76 time=0.033571414583333334
EXTRACT: note_on channel=1 note=42 velocity=0 time=0.13785708541666666
EXTRACT: note_on channel=1 note=54 velocity=0 time=0
EXTRACT: note_on channel=0 note=71 velocity=0 time=0.017142849999999998
EXTRACT: note_on channel=0 note=66 velocity=76 time=0.016428564583333333
EXTRACT: note_on channel=0 note=75 velocity=76 time=0
EXTRACT: note_on channel=1 note=54 velocity=76 time=0
EXTRACT: note_on channel=1 note=58 velocity=76 time=0
EXTRACT: note_on channel=1 note=61 velocity=76 time=0
EXTRACT: note_on channel=0 note=66 velocity=0 time=0.3092855854166666
EXTRACT: note_on channel=0 note=75 velocity=0 time=0
EXTRACT: note_on channel=1 note=54 velocity=0 time=0.15357136458333331
EXTRACT: note_on channel=1 note=58 velocity=0 time=0
EXTRACT: note_on channel=1 note=61 velocity=0 time=0
EXTRACT: note_on channel=0 note=71 velocity=76 time=0.051428549999999996
EXTRACT: note_on channel=1 note=42 velocity=76 time=0
EXTRACT: note_on channel=1 note=54 velocity=76 time=0
EXTRACT: note_on channel=0 note=71 velocity=0 time=0.15499993541666665
EXTRACT: note_on channel=1 note=42 velocity=0 time=0
EXTRACT: note_on channel=1 note=54 velocity=0 time=0
EXTRACT: note_on channel=0 note=73 velocity=76 time=0.016428564583333333
EXTRACT: note_on channel=1 note=40 velocity=76 time=0
EXTRACT: note_on channel=1 note=52 velocity=76 time=0
EXTRACT: note_on channel=0 note=73 velocity=0 time=0.15499993541666665
EXTRACT: note_on channel=0 note=71 velocity=76 time=0.016428564583333333
EXTRACT: note_on channel=1 note=40 velocity=0 time=0.13785708541666666
EXTRACT: note_on channel=1 note=52 velocity=0 time=0
EXTRACT: note_on channel=0 note=71 velocity=0 time=0.017142849999999998
EXTRACT: note_on channel=0 note=64 velocity=76 time=0.016428564583333333
EXTRACT: note_on channel=0 note=73 velocity=76 time=0
EXTRACT: note_on channel=1 note=40 velocity=76 time=0
EXTRACT: note_on channel=1 note=52 velocity=76 time=0
EXTRACT: note_on channel=0 note=64 velocity=0 time=0.3092855854166666
EXTRACT: note_on channel=0 note=73 velocity=0 time=0
EXTRACT: note_on channel=1 note=40 velocity=0 time=0
EXTRACT: note_on channel=1 note=52 velocity=0 time=0
EXTRACT: note_on channel=0 note=73 velocity=76 time=0.033571414583333334
EXTRACT: note_on channel=1 note=52 velocity=76 time=0
EXTRACT: note_on channel=1 note=56 velocity=76 time=0
EXTRACT: note_on channel=1 note=59 velocity=76 time=0
EXTRACT: note_on channel=0 note=73 velocity=0 time=0.15499993541666665
EXTRACT: note_on channel=0 note=71 velocity=76 time=0.016428564583333333
EXTRACT: note_on channel=0 note=71 velocity=0 time=0.15499993541666665
EXTRACT: note_on channel=0 note=64 velocity=76 time=0.016428564583333333
EXTRACT: note_on channel=0 note=73 velocity=76 time=0
EXTRACT: note_on channel=1 note=52 velocity=0 time=0.11999995
EXTRACT: note_on channel=1 note=56 velocity=0 time=0
EXTRACT: note_on channel=1 note=59 velocity=0 time=0
EXTRACT: note_on channel=1 note=47 velocity=76 time=0.051428549999999996
EXTRACT: note_on channel=0 note=64 velocity=0 time=0.13785708541666666
EXTRACT: note_on channel=0 note=73 velocity=0 time=0
EXTRACT: note_on channel=1 note=47 velocity=0 time=0.017142849999999998
EXTRACT: note_on channel=0 note=73 velocity=76 time=0.016428564583333333
EXTRACT: note_on channel=1 note=40 velocity=76 time=0
EXTRACT: note_on channel=1 note=52 velocity=76 time=0
EXTRACT: note_on channel=0 note=73 velocity=0 time=0.15499993541666665
EXTRACT: note_on channel=0 note=64 velocity=76 time=0.016428564583333333
EXTRACT: note_on channel=0 note=73 velocity=76 time=0
EXTRACT: note_on channel=1 note=40 velocity=0 time=0.13785708541666666
EXTRACT: note_on channel=1 note=52 velocity=0 time=0
EXTRACT: note_on channel=1 note=40 velocity=76 time=0.033571414583333334
EXTRACT: note_on channel=1 note=52 velocity=76 time=0
EXTRACT: note_on channel=0 note=64 velocity=0 time=0.13785708541666666
EXTRACT: note_on channel=0 note=73 velocity=0 time=0
EXTRACT: note_on channel=0 note=71 velocity=76 time=0.033571414583333334
EXTRACT: note_on channel=1 note=40 velocity=0 time=0.13785708541666666
EXTRACT: note_on channel=1 note=52 velocity=0 time=0
EXTRACT: note_on channel=0 note=71 velocity=0 time=0.017142849999999998
EXTRACT: note_on channel=0 note=68 velocity=76 time=0.016428564583333333
EXTRACT: note_on channel=0 note=75 velocity=76 time=0
EXTRACT: note_on channel=1 note=39 velocity=76 time=0
EXTRACT: note_on channel=1 note=51 velocity=76 time=0
EXTRACT: note_on channel=1 note=39 velocity=0 time=0.3092855854166666
EXTRACT: note_on channel=1 note=51 velocity=0 time=0
EXTRACT: note_on channel=1 note=37 velocity=76 time=0.033571414583333334
EXTRACT: note_on channel=1 note=49 velocity=76 time=0
EXTRACT: note_on channel=0 note=68 velocity=0 time=0.11999995
EXTRACT: note_on channel=0 note=75 velocity=0 time=0
EXTRACT: note_on channel=0 note=71 velocity=76 time=0.051428549999999996
EXTRACT: note_on channel=1 note=37 velocity=0 time=0.13785708541666666
EXTRACT: note_on channel=1 note=49 velocity=0 time=0
EXTRACT: note_on channel=0 note=71 velocity=0 time=0.017142849999999998
EXTRACT: note_on channel=0 note=75 velocity=76 time=0.016428564583333333
EXTRACT: note_on channel=1 note=35 velocity=76 time=0
EXTRACT: note_on channel=1 note=47 velocity=76 time=0
EXTRACT: note_on channel=0 note=75 velocity=0 time=0.3092855854166666
EXTRACT: note_on channel=1 note=35 velocity=0 time=0
EXTRACT: note_on channel=1 note=47 velocity=0 time=0
EXTRACT: note_on channel=0 note=71 velocity=76 time=0.033571414583333334
EXTRACT: note_on channel=0 note=78 velocity=76 time=0
EXTRACT: note_on channel=1 note=35 velocity=76 time=0
EXTRACT: note_on channel=1 note=47 velocity=76 time=0
EXTRACT: note_on channel=0 note=71 velocity=0 time=0.3092855854166666
EXTRACT: note_on channel=0 note=78 velocity=0 time=0
EXTRACT: note_on channel=1 note=35 velocity=0 time=0
EXTRACT: note_on channel=1 note=47 velocity=0 time=0
EXTRACT: note_on channel=0 note=78 velocity=76 time=0.033571414583333334
EXTRACT: note_on channel=1 note=51 velocity=76 time=0
EXTRACT: note_on channel=1 note=54 velocity=76 time=0
EXTRACT: note_on channel=1 note=59 velocity=76 time=0
EXTRACT: note_on channel=0 note=78 velocity=0 time=0.3092855854166666
EXTRACT: note_on channel=0 note=71 velocity=76 time=0.033571414583333334
EXTRACT: note_on channel=0 note=80 velocity=76 time=0
EXTRACT: note_on channel=1 note=51 velocity=0 time=0.11999995
EXTRACT: note_on channel=1 note=54 velocity=0 time=0
EXTRACT: note_on channel=1 note=59 velocity=0 time=0
EXTRACT: note_on channel=1 note=47 velocity=76 time=0.051428549999999996
EXTRACT: note_on channel=0 note=71 velocity=0 time=0.13785708541666666
EXTRACT: note_on channel=0 note=80 velocity=0 time=0
EXTRACT: note_on channel=1 note=47 velocity=0 time=0.017142849999999998
EXTRACT: note_on channel=0 note=73 velocity=76 time=0.016428564583333333
EXTRACT: note_on channel=1 note=42 velocity=76 time=0
EXTRACT: note_on channel=1 note=54 velocity=76 time=0
EXTRACT: note_on channel=0 note=73 velocity=0 time=0.3092855854166666
EXTRACT: note_on channel=1 note=42 velocity=0 time=0
EXTRACT: note_on channel=1 note=54 velocity=0 time=0
EXTRACT: note_on channel=0 note=66 velocity=76 time=0.033571414583333334
EXTRACT: note_on channel=0 note=73 velocity=76 time=0
EXTRACT: note_on channel=1 note=42 velocity=76 time=0
EXTRACT: note_on channel=1 note=54 velocity=76 time=0
EXTRACT: note_on channel=0 note=66 velocity=0 time=0.3092855854166666
EXTRACT: note_on channel=0 note=73 velocity=0 time=0
EXTRACT: note_on channel=1 note=42 velocity=0 time=0
EXTRACT: note_on channel=1 note=54 velocity=0 time=0
EXTRACT: note_on channel=0 note=75 velocity=76 time=0.033571414583333334
EXTRACT: note_on channel=1 note=54 velocity=76 time=0
EXTRACT: note_on channel=1 note=58 velocity=76 time=0
EXTRACT: note_on channel=1 note=61 velocity=76 time=0
EXTRACT: note_on channel=0 note=75 velocity=0 time=0.3092855854166666
EXTRACT: note_on channel=0 note=66 velocity=76 time=0.033571414583333334
EXTRACT: note_on channel=0 note=71 velocity=76 time=0
EXTRACT: note_on channel=1 note=54 velocity=0 time=0.11999995
EXTRACT: note_on channel=1 note=58 velocity=0 time=0
EXTRACT: note_on channel=1 note=61 velocity=0 time=0
EXTRACT: note_on channel=1 note=42 velocity=76 time=0.051428549999999996
EXTRACT: note_on channel=1 note=54 velocity=76 time=0
EXTRACT: note_on channel=0 note=66 velocity=0 time=0.13785708541666666
EXTRACT: note_on channel=0 note=71 velocity=0 time=0
EXTRACT: note_on channel=1 note=42 velocity=0 time=0.017142849999999998
EXTRACT: note_on channel=1 note=54 velocity=0 time=0
EXTRACT: note_on channel=0 note=68 velocity=76 time=0.016428564583333333
EXTRACT: note_on channel=1 note=40 velocity=76 time=0
EXTRACT: note_on channel=1 note=52 velocity=76 time=0
EXTRACT: note_on channel=1 note=40 velocity=0 time=0.3092855854166666
EXTRACT: note_on channel=1 note=52 velocity=0 time=0
EXTRACT: note_on channel=1 note=40 velocity=76 time=0.033571414583333334
EXTRACT: note_on channel=1 note=52 velocity=76 time=0
EXTRACT: note_on channel=0 note=68 velocity=0 time=0.2757141708333333
EXTRACT: note_on channel=1 note=40 velocity=0 time=0.033571414583333334
EXTRACT: note_on channel=1 note=52 velocity=0 time=0
EXTRACT: note_on channel=1 note=52 velocity=76 time=0.033571414583333334
EXTRACT: note_on channel=1 note=56 velocity=76 time=0
EXTRACT: note_on channel=1 note=59 velocity=76 time=0
EXTRACT: note_on channel=1 note=52 velocity=0 time=0.46285694999999993
EXTRACT: note_on channel=1 note=56 velocity=0 time=0
EXTRACT: note_on channel=1 note=59 velocity=0 time=0
EXTRACT: note_on channel=1 note=47 velocity=76 time=0.051428549999999996
EXTRACT: note_on channel=1 note=47 velocity=0 time=0.15499993541666665
EXTRACT: note_on channel=1 note=40 velocity=76 time=0.016428564583333333
EXTRACT: note_on channel=1 note=52 velocity=76 time=0
EXTRACT: note_on channel=1 note=40 velocity=0 time=0.3092855854166666
EXTRACT: note_on channel=1 note=52 velocity=0 time=0
EXTRACT: note_on channel=1 note=40 velocity=76 time=0.033571414583333334
EXTRACT: note_on channel=1 note=52 velocity=76 time=0
EXTRACT: note_on channel=0 note=64 velocity=76 time=0.17142849999999998
EXTRACT: note_on channel=0 note=71 velocity=76 time=0
EXTRACT: note_on channel=1 note=40 velocity=0 time=0.13785708541666666
EXTRACT: note_on channel=1 note=52 velocity=0 time=0
EXTRACT: note_on channel=1 note=39 velocity=76 time=0.033571414583333334
EXTRACT: note_on channel=1 note=51 velocity=76 time=0
EXTRACT: note_on channel=0 note=64 velocity=0 time=0.15499993541666665
EXTRACT: note_on channel=0 note=71 velocity=0 time=0
EXTRACT: note_on channel=0 note=73 velocity=76 time=0.016428564583333333
EXTRACT: note_on channel=1 note=39 velocity=0 time=0.13785708541666666
EXTRACT: note_on channel=1 note=51 velocity=0 time=0
EXTRACT: note_on channel=0 note=73 velocity=0 time=0.017142849999999998
EXTRACT: note_on channel=0 note=75 velocity=76 time=0.016428564583333333
EXTRACT: note_on channel=1 note=37 velocity=76 time=0
EXTRACT: note_on channel=1 note=49 velocity=76 time=0
EXTRACT: note_on channel=0 note=75 velocity=0 time=0.3092855854166666
EXTRACT: note_on channel=1 note=37 velocity=0 time=0
EXTRACT: note_on channel=1 note=49 velocity=0 time=0
EXTRACT: note_on channel=0 note=68 velocity=76 time=0.033571414583333334
EXTRACT: note_on channel=0 note=76 velocity=76 time=0
EXTRACT: note_on channel=1 note=37 velocity=76 time=0
EXTRACT: note_on channel=1 note=49 velocity=76 time=0
EXTRACT: note_on channel=0 note=68 velocity=0 time=0.3092855854166666
EXTRACT: note_on channel=0 note=76 velocity=0 time=0
EXTRACT: note_on channel=1 note=37 velocity=0 time=0
EXTRACT: note_on channel=1 note=49 velocity=0 time=0
EXTRACT: note_on channel=0 note=68 velocity=76 time=0.033571414583333334
EXTRACT: note_on channel=0 note=76 velocity=76 time=0
EXTRACT: note_on channel=1 note=37 velocity=76 time=0
EXTRACT: note_on channel=1 note=49 velocity=76 time=0
EXTRACT: note_on channel=0 note=68 velocity=0 time=0.3092855854166666
EXTRACT: note_on channel=0 note=76 velocity=0 time=0
EXTRACT: note_on channel=1 note=37 velocity=0 time=0
EXTRACT: note_on channel=1 note=49 velocity=0 time=0
EXTRACT: note_on channel=0 note=68 velocity=76 time=0.033571414583333334
EXTRACT: note_on channel=0 note=76 velocity=76 time=0
EXTRACT: note_on channel=1 note=52 velocity=76 time=0
EXTRACT: note_on channel=1 note=56 velocity=76 time=0
EXTRACT: note_on channel=1 note=61 velocity=76 time=0
EXTRACT: note_on channel=0 note=68 velocity=0 time=0.15499993541666665
EXTRACT: note_on channel=0 note=76 velocity=0 time=0
EXTRACT: note_on channel=1 note=52 velocity=0 time=0
EXTRACT: note_on channel=1 note=56 velocity=0 time=0
EXTRACT: note_on channel=1 note=61 velocity=0 time=0
EXTRACT: note_on channel=0 note=75 velocity=76 time=0.016428564583333333
EXTRACT: note_on channel=1 note=49 velocity=76 time=0
EXTRACT: note_on channel=0 note=75 velocity=0 time=0.15499993541666665
EXTRACT: note_on channel=1 note=49 velocity=0 time=0
EXTRACT: note_on channel=1 note=49 velocity=76 time=0.016428564583333333
EXTRACT: note_on channel=1 note=49 velocity=0 time=0.3092855854166666
EXTRACT: note_on channel=1 note=39 velocity=76 time=0.033571414583333334
EXTRACT: note_on channel=1 note=51 velocity=76 time=0
EXTRACT: note_on channel=1 note=39 velocity=0 time=0.3092855854166666
EXTRACT: note_on channel=1 note=51 velocity=0 time=0
EXTRACT: note_on channel=0 note=70 velocity=76 time=0.033571414583333334
EXTRACT: note_on channel=0 note=78 velocity=76 time=0
EXTRACT: note_on channel=1 note=39 velocity=76 time=0
EXTRACT: note_on channel=1 note=51 velocity=76 time=0
EXTRACT: note_on channel=0 note=70 velocity=0 time=0.3092855854166666
EXTRACT: note_on channel=0 note=78 velocity=0 time=0
EXTRACT: note_on channel=1 note=39 velocity=0 time=0
EXTRACT: note_on channel=1 note=51 velocity=0 time=0
EXTRACT: note_on channel=0 note=70 velocity=76 time=0.033571414583333334
EXTRACT: note_on channel=0 note=78 velocity=76 time=0
EXTRACT: note_on channel=1 note=54 velocity=76 time=0
EXTRACT: note_on channel=1 note=58 velocity=76 time=0
EXTRACT: note_on channel=1 note=63 velocity=76 time=0
EXTRACT: note_on channel=0 note=70 velocity=0 time=0.15499993541666665
EXTRACT: note_on channel=0 note=78 velocity=0 time=0
EXTRACT: note_on channel=1 note=54 velocity=0 time=0
EXTRACT: note_on channel=1 note=58 velocity=0 time=0
EXTRACT: note_on channel=1 note=63 velocity=0 time=0
EXTRACT: note_on channel=0 note=70 velocity=76 time=0.016428564583333333
EXTRACT: note_on channel=0 note=75 velocity=76 time=0
EXTRACT: note_on channel=1 note=51 velocity=76 time=0
EXTRACT: note_on channel=1 note=51 velocity=0 time=0.15499993541666665
EXTRACT: note_on channel=1 note=51 velocity=76 time=0.016428564583333333
EXTRACT: note_on channel=0 note=70 velocity=0 time=0.13785708541666666
EXTRACT: note_on channel=0 note=75 velocity=0 time=0
EXTRACT: note_on channel=0 note=75 velocity=76 time=0.033571414583333334
EXTRACT: note_on channel=1 note=51 velocity=0 time=0.13785708541666666
EXTRACT: note_on channel=0 note=75 velocity=0 time=0.017142849999999998
EXTRACT: note_on channel=0 note=71 velocity=76 time=0.016428564583333333
EXTRACT: note_on channel=0 note=80 velocity=76 time=0
EXTRACT: note_on channel=1 note=40 velocity=76 time=0
EXTRACT: note_on channel=1 note=52 velocity=76 time=0
EXTRACT: note_on channel=0 note=71 velocity=0 time=0.15499993541666665
EXTRACT: note_on channel=0 note=80 velocity=0 time=0
EXTRACT: note_on channel=0 note=78 velocity=76 time=0.016428564583333333
EXTRACT: note_on channel=1 note=40 velocity=0 time=0.13785708541666666
EXTRACT: note_on channel=1 note=52 velocity=0 time=0
EXTRACT: note_on channel=1 note=40 velocity=76 time=0.033571414583333334
EXTRACT: note_on channel=1 note=52 velocity=76 time=0
EXTRACT: note_on channel=0 note=78 velocity=0 time=0.13785708541666666
EXTRACT: note_on channel=0 note=71 velocity=76 time=0.033571414583333334
EXTRACT: note_on channel=0 note=78 velocity=76 time=0
EXTRACT: note_on channel=1 note=40 velocity=0 time=0.13785708541666666
EXTRACT: note_on channel=1 note=52 velocity=0 time=0
EXTRACT: note_on channel=1 note=56 velocity=76 time=0.033571414583333334
EXTRACT: note_on channel=1 note=59 velocity=76 time=0
EXTRACT: note_on channel=1 note=64 velocity=76 time=0
EXTRACT: note_on channel=0 note=71 velocity=0 time=0.15499993541666665
EXTRACT: note_on channel=0 note=78 velocity=0 time=0
EXTRACT: note_on channel=0 note=71 velocity=76 time=0.016428564583333333
EXTRACT: note_on channel=0 note=80 velocity=76 time=0
EXTRACT: note_on channel=1 note=56 velocity=0 time=0.13785708541666666
EXTRACT: note_on channel=1 note=59 velocity=0 time=0
EXTRACT: note_on channel=1 note=64 velocity=0 time=0
EXTRACT: note_on channel=1 note=40 velocity=76 time=0.033571414583333334
EXTRACT: note_on channel=1 note=52 velocity=76 time=0
EXTRACT: note_on channel=0 note=71 velocity=0 time=0.13785708541666666
EXTRACT: note_on channel=0 note=80 velocity=0 time=0
EXTRACT: note_on channel=0 note=75 velocity=76 time=0.033571414583333334
EXTRACT: note_on channel=1 note=40 velocity=0 time=0.13785708541666666
EXTRACT: note_on channel=1 note=52 velocity=0 time=0
EXTRACT: note_on channel=0 note=75 velocity=0 time=0.017142849999999998
EXTRACT: note_on channel=0 note=66 velocity=76 time=0.016428564583333333
EXTRACT: note_on channel=0 note=73 velocity=76 time=0
EXTRACT: note_on channel=1 note=42 velocity=76 time=0
EXTRACT: note_on channel=1 note=54 velocity=76 time=0
EXTRACT: note_on channel=1 note=42 velocity=0 time=0.6185711708333332
EXTRACT: note_on channel=1 note=54 velocity=0 time=0
EXTRACT: note_on channel=1 note=42 velocity=76 time=0.06714282916666667
EXTRACT: note_on channel=1 note=54 velocity=76 time=0
EXTRACT: note_on channel=0 note=66 velocity=0 time=0.2757141708333333
EXTRACT: note_on channel=0 note=73 velocity=0 time=0
EXTRACT: note_on channel=1 note=42 velocity=0 time=0.033571414583333334
EXTRACT: note_on channel=1 note=54 velocity=0 time=0
EXTRACT: note_on channel=1 note=42 velocity=76 time=0.033571414583333334
EXTRACT: note_on channel=1 note=54 velocity=76 time=0
EXTRACT: note_on channel=0 note=71 velocity=76 time=0.17142849999999998
EXTRACT: note_on channel=1 note=42 velocity=0 time=0.13785708541666666
EXTRACT: note_on channel=1 note=54 velocity=0 time=0
EXTRACT: note_on channel=0 note=71 velocity=0 time=0.017142849999999998
EXTRACT: note_on channel=0 note=75 velocity=76 time=0.016428564583333333
EXTRACT: note_on channel=1 note=35 velocity=76 time=0
EXTRACT: note_on channel=1 note=47 velocity=76 time=0
EXTRACT: note_on channel=0 note=75 velocity=0 time=0.3092855854166666
EXTRACT: note_on channel=1 note=35 velocity=0 time=0
EXTRACT: note_on channel=1 note=47 velocity=0 time=0
EXTRACT: note_on channel=0 note=66 velocity=76 time=0.033571414583333334
EXTRACT: note_on channel=0 note=75 velocity=76 time=0
EXTRACT: note_on channel=1 note=35 velocity=76 time=0
EXTRACT: note_on channel=1 note=47 velocity=76 time=0
EXTRACT: note_on channel=0 note=66 velocity=0 time=0.3092855854166666
EXTRACT: note_on channel=0 note=75 velocity=0 time=0
EXTRACT: note_on channel=1 note=35 velocity=0 time=0
EXTRACT: note_on channel=1 note=47 velocity=0 time=0
EXTRACT: note_on channel=0 note=75 velocity=76 time=0.033571414583333334
EXTRACT: note_on channel=1 note=51 velocity=76 time=0
EXTRACT: note_on channel=1 note=54 velocity=76 time=0
EXTRACT: note_on channel=1 note=59 velocity=76 time=0
EXTRACT: note_on channel=0 note=75 velocity=0 time=0.3092855854166666
EXTRACT: note_on channel=0 note=66 velocity=76 time=0.033571414583333334
EXTRACT: note_on channel=0 note=75 velocity=76 time=0
EXTRACT: note_on channel=1 note=51 velocity=0 time=0.11999995
EXTRACT: note_on channel=1 note=54 velocity=0 time=0
EXTRACT: note_on channel=1 note=59 velocity=0 time=0
EXTRACT: note_on channel=1 note=47 velocity=76 time=0.051428549999999996
EXTRACT: note_on channel=0 note=66 velocity=0 time=0.13785708541666666
EXTRACT: note_on channel=0 note=75 velocity=0 time=0
EXTRACT: note_on channel=1 note=47 velocity=0 time=0.017142849999999998
EXTRACT: note_on channel=0 note=73 velocity=76 time=0.016428564583333333
EXTRACT: note_on channel=1 note=42 velocity=76 time=0
EXTRACT: note_on channel=1 note=54 velocity=76 time=0
EXTRACT: note_on channel=0 note=73 velocity=0 time=0.3092855854166666
EXTRACT: note_on channel=1 note=42 velocity=0 time=0
EXTRACT: note_on channel=1 note=54 velocity=0 time=0
EXTRACT: note_on channel=0 note=66 velocity=76 time=0.033571414583333334
EXTRACT: note_on channel=0 note=71 velocity=76 time=0
EXTRACT: note_on channel=1 note=42 velocity=76 time=0
EXTRACT: note_on channel=1 note=54 velocity=76 time=0
EXTRACT: note_on channel=0 note=66 velocity=0 time=0.3092855854166666
EXTRACT: note_on channel=0 note=71 velocity=0 time=0
EXTRACT: note_on channel=1 note=42 velocity=0 time=0
EXTRACT: note_on channel=1 note=54 velocity=0 time=0
EXTRACT: note_on channel=0 note=73 velocity=76 time=0.033571414583333334
EXTRACT: note_on channel=1 note=54 velocity=76 time=0
EXTRACT: note_on channel=1 note=58 velocity=76 time=0
EXTRACT: note_on channel=1 note=61 velocity=76 time=0
EXTRACT: note_on channel=0 note=73 velocity=0 time=0.3092855854166666
EXTRACT: note_on channel=0 note=68 velocity=76 time=0.033571414583333334
EXTRACT: note_on channel=0 note=75 velocity=76 time=0
EXTRACT: note_on channel=1 note=54 velocity=0 time=0.11999995
EXTRACT: note_on channel=1 note=58 velocity=0 time=0
EXTRACT: note_on channel=1 note=61 velocity=0 time=0
EXTRACT: note_on channel=1 note=42 velocity=76 time=0.051428549999999996
EXTRACT: note_on channel=1 note=54 velocity=76 time=0
EXTRACT: note_on channel=1 note=42 velocity=0 time=0.15499993541666665
EXTRACT: note_on channel=1 note=54 velocity=0 time=0
EXTRACT: note_on channel=1 note=40 velocity=76 time=0.016428564583333333
EXTRACT: note_on channel=1 note=52 velocity=76 time=0
EXTRACT: note_on channel=0 note=68 velocity=0 time=0.15499993541666665
EXTRACT: note_on channel=0 note=75 velocity=0 time=0
EXTRACT: note_on channel=0 note=71 velocity=76 time=0.016428564583333333
EXTRACT: note_on channel=1 note=40 velocity=0 time=0.13785708541666666
EXTRACT: note_on channel=1 note=52 velocity=0 time=0
EXTRACT: note_on channel=0 note=71 velocity=0 time=0.017142849999999998
EXTRACT: note_on channel=0 note=68 velocity=76 time=0.016428564583333333
EXTRACT: note_on channel=1 note=40 velocity=76 time=0
EXTRACT: note_on channel=1 note=52 velocity=76 time=0
EXTRACT: note_on channel=0 note=68 velocity=0 time=0.3092855854166666
EXTRACT: note_on channel=1 note=40 velocity=0 time=0
EXTRACT: note_on channel=1 note=52 velocity=0 time=0
EXTRACT: note_on channel=1 note=52 velocity=76 time=0.033571414583333334
EXTRACT: note_on channel=1 note=56 velocity=76 time=0
EXTRACT: note_on channel=1 note=59 velocity=76 time=0
EXTRACT: note_on channel=1 note=52 velocity=0 time=0.46285694999999993
EXTRACT: note_on channel=1 note=56 velocity=0 time=0
EXTRACT: note_on channel=1 note=59 velocity=0 time=0
EXTRACT: note_on channel=1 note=47 velocity=76 time=0.051428549999999996
EXTRACT: note_on channel=1 note=47 velocity=0 time=0.15499993541666665
EXTRACT: note_on channel=0 note=71 velocity=76 time=0.016428564583333333
EXTRACT: note_on channel=1 note=40 velocity=76 time=0
EXTRACT: note_on channel=1 note=52 velocity=76 time=0
EXTRACT: note_on channel=0 note=71 velocity=0 time=0.15499993541666665
EXTRACT: note_on channel=0 note=73 velocity=76 time=0.016428564583333333
EXTRACT: note_on channel=1 note=40 velocity=0 time=0.13785708541666666
EXTRACT: note_on channel=1 note=52 velocity=0 time=0
EXTRACT: note_on channel=0 note=73 velocity=0 time=0.017142849999999998
EXTRACT: note_on channel=0 note=75 velocity=76 time=0.016428564583333333
EXTRACT: note_on channel=1 note=40 velocity=76 time=0
EXTRACT: note_on channel=1 note=52 velocity=76 time=0
EXTRACT: note_on channel=0 note=75 velocity=0 time=0.3092855854166666
EXTRACT: note_on channel=1 note=40 velocity=0 time=0
EXTRACT: note_on channel=1 note=52 velocity=0 time=0
EXTRACT: note_on channel=0 note=75 velocity=76 time=0.033571414583333334
EXTRACT: note_on channel=1 note=39 velocity=76 time=0
EXTRACT: note_on channel=1 note=51 velocity=76 time=0
EXTRACT: note_on channel=0 note=75 velocity=0 time=0.15499993541666665
EXTRACT: note_on channel=0 note=73 velocity=76 time=0.016428564583333333
EXTRACT: note_on channel=1 note=39 velocity=0 time=0.13785708541666666
EXTRACT: note_on channel=1 note=51 velocity=0 time=0
EXTRACT: note_on channel=0 note=73 velocity=0 time=0.017142849999999998
EXTRACT: note_on channel=0 note=71 velocity=76 time=0.016428564583333333
EXTRACT: note_on channel=1 note=37 velocity=76 time=0
EXTRACT: note_on channel=1 note=49 velocity=76 time=0
EXTRACT: note_on channel=0 note=71 velocity=0 time=0.3092855854166666
EXTRACT: note_on channel=1 note=37 velocity=0 time=0
EXTRACT: note_on channel=1 note=49 velocity=0 time=0
EXTRACT: note_on channel=0 note=75 velocity=76 time=0.033571414583333334
EXTRACT: note_on channel=1 note=35 velocity=76 time=0
EXTRACT: note_on channel=1 note=47 velocity=76 time=0
EXTRACT: note_on channel=0 note=75 velocity=0 time=0.3092855854166666
EXTRACT: note_on channel=1 note=35 velocity=0 time=0
EXTRACT: note_on channel=1 note=47 velocity=0 time=0
EXTRACT: note_on channel=0 note=66 velocity=76 time=0.033571414583333334
EXTRACT: note_on channel=0 note=75 velocity=76 time=0
EXTRACT: note_on channel=1 note=35 velocity=76 time=0
EXTRACT: note_on channel=1 note=47 velocity=76 time=0
EXTRACT: note_on channel=0 note=66 velocity=0 time=0.3092855854166666
EXTRACT: note_on channel=0 note=75 velocity=0 time=0
EXTRACT: note_on channel=1 note=35 velocity=0 time=0
EXTRACT: note_on channel=1 note=47 velocity=0 time=0
EXTRACT: note_on channel=0 note=75 velocity=76 time=0.033571414583333334
EXTRACT: note_on channel=1 note=51 velocity=76 time=0
EXTRACT: note_on channel=1 note=54 velocity=76 time=0
EXTRACT: note_on channel=1 note=59 velocity=76 time=0
EXTRACT: note_on channel=0 note=75 velocity=0 time=0.3092855854166666
EXTRACT: note_on channel=0 note=66 velocity=76 time=0.033571414583333334
EXTRACT: note_on channel=0 note=75 velocity=76 time=0
EXTRACT: note_on channel=1 note=51 velocity=0 time=0.11999995
EXTRACT: note_on channel=1 note=54 velocity=0 time=0
EXTRACT: note_on channel=1 note=59 velocity=0 time=0
EXTRACT: note_on channel=1 note=47 velocity=76 time=0.051428549999999996
EXTRACT: note_on channel=0 note=66 velocity=0 time=0.13785708541666666
EXTRACT: note_on channel=0 note=75 velocity=0 time=0
EXTRACT: note_on channel=1 note=47 velocity=0 time=0.017142849999999998
EXTRACT: note_on channel=0 note=73 velocity=76 time=0.016428564583333333
EXTRACT: note_on channel=1 note=42 velocity=76 time=0
EXTRACT: note_on channel=1 note=54 velocity=76 time=0
EXTRACT: note_on channel=0 note=73 velocity=0 time=0.3092855854166666
EXTRACT: note_on channel=1 note=42 velocity=0 time=0
EXTRACT: note_on channel=1 note=54 velocity=0 time=0
EXTRACT: note_on channel=0 note=66 velocity=76 time=0.033571414583333334
EXTRACT: note_on channel=0 note=71 velocity=76 time=0
EXTRACT: note_on channel=1 note=42 velocity=76 time=0
EXTRACT: note_on channel=1 note=54 velocity=76 time=0
EXTRACT: note_on channel=0 note=66 velocity=0 time=0.3092855854166666
EXTRACT: note_on channel=0 note=71 velocity=0 time=0
EXTRACT: note_on channel=1 note=42 velocity=0 time=0
EXTRACT: note_on channel=1 note=54 velocity=0 time=0
EXTRACT: note_on channel=0 note=73 velocity=76 time=0.033571414583333334
EXTRACT: note_on channel=1 note=54 velocity=76 time=0
EXTRACT: note_on channel=1 note=58 velocity=76 time=0
EXTRACT: note_on channel=1 note=61 velocity=76 time=0
EXTRACT: note_on channel=0 note=73 velocity=0 time=0.3092855854166666
EXTRACT: note_on channel=0 note=66 velocity=76 time=0.033571414583333334
EXTRACT: note_on channel=0 note=71 velocity=76 time=0
EXTRACT: note_on channel=1 note=54 velocity=0 time=0.11999995
EXTRACT: note_on channel=1 note=58 velocity=0 time=0
EXTRACT: note_on channel=1 note=61 velocity=0 time=0
EXTRACT: note_on channel=1 note=42 velocity=76 time=0.051428549999999996
EXTRACT: note_on channel=1 note=54 velocity=76 time=0
EXTRACT: note_on channel=0 note=66 velocity=0 time=0.13785708541666666
EXTRACT: note_on channel=0 note=71 velocity=0 time=0
EXTRACT: note_on channel=1 note=42 velocity=0 time=0.017142849999999998
EXTRACT: note_on channel=1 note=54 velocity=0 time=0
EXTRACT: note_on channel=0 note=68 velocity=76 time=0.016428564583333333
EXTRACT: note_on channel=1 note=40 velocity=76 time=0
EXTRACT: note_on channel=1 note=52 velocity=76 time=0
EXTRACT: note_on channel=1 note=40 velocity=0 time=0.3092855854166666
EXTRACT: note_on channel=1 note=52 velocity=0 time=0
EXTRACT: note_on channel=1 note=40 velocity=76 time=0.033571414583333334
EXTRACT: note_on channel=1 note=52 velocity=76 time=0
EXTRACT: note_on channel=0 note=68 velocity=0 time=0.2757141708333333
EXTRACT: note_on channel=1 note=40 velocity=0 time=0.033571414583333334
EXTRACT: note_on channel=1 note=52 velocity=0 time=0
EXTRACT: note_on channel=1 note=52 velocity=76 time=0.033571414583333334
EXTRACT: note_on channel=1 note=56 velocity=76 time=0
EXTRACT: note_on channel=1 note=59 velocity=76 time=0
EXTRACT: note_on channel=1 note=52 velocity=0 time=0.46285694999999993
EXTRACT: note_on channel=1 note=56 velocity=0 time=0
EXTRACT: note_on channel=1 note=59 velocity=0 time=0
EXTRACT: note_on channel=1 note=47 velocity=76 time=0.051428549999999996
EXTRACT: note_on channel=1 note=47 velocity=0 time=0.15499993541666665
EXTRACT: note_on channel=0 note=71 velocity=76 time=0.016428564583333333
EXTRACT: note_on channel=1 note=40 velocity=76 time=0
EXTRACT: note_on channel=1 note=52 velocity=76 time=0
EXTRACT: note_on channel=0 note=71 velocity=0 time=0.15499993541666665
EXTRACT: note_on channel=0 note=73 velocity=76 time=0.016428564583333333
EXTRACT: note_on channel=1 note=40 velocity=0 time=0.13785708541666666
EXTRACT: note_on channel=1 note=52 velocity=0 time=0
EXTRACT: note_on channel=0 note=73 velocity=0 time=0.017142849999999998
EXTRACT: note_on channel=0 note=75 velocity=76 time=0.016428564583333333
EXTRACT: note_on channel=1 note=40 velocity=76 time=0
EXTRACT: note_on channel=1 note=52 velocity=76 time=0
EXTRACT: note_on channel=0 note=75 velocity=0 time=0.3092855854166666
EXTRACT: note_on channel=1 note=40 velocity=0 time=0
EXTRACT: note_on channel=1 note=52 velocity=0 time=0
EXTRACT: note_on channel=0 note=75 velocity=76 time=0.033571414583333334
EXTRACT: note_on channel=1 note=39 velocity=76 time=0
EXTRACT: note_on channel=1 note=51 velocity=76 time=0
EXTRACT: note_on channel=0 note=75 velocity=0 time=0.15499993541666665
EXTRACT: note_on channel=0 note=73 velocity=76 time=0.016428564583333333
EXTRACT: note_on channel=1 note=39 velocity=0 time=0.13785708541666666
EXTRACT: note_on channel=1 note=51 velocity=0 time=0
EXTRACT: note_on channel=0 note=73 velocity=0 time=0.017142849999999998
EXTRACT: note_on channel=0 note=71 velocity=76 time=0.016428564583333333
EXTRACT: note_on channel=1 note=37 velocity=76 time=0
EXTRACT: note_on channel=1 note=49 velocity=76 time=0
EXTRACT: note_on channel=0 note=71 velocity=0 time=0.3092855854166666
EXTRACT: note_on channel=1 note=37 velocity=0 time=0
EXTRACT: note_on channel=1 note=49 velocity=0 time=0
EXTRACT: note_on channel=0 note=75 velocity=76 time=0.033571414583333334
EXTRACT: note_on channel=1 note=35 velocity=76 time=0
EXTRACT: note_on channel=1 note=47 velocity=76 time=0
EXTRACT: note_on channel=0 note=75 velocity=0 time=0.3092855854166666
EXTRACT: note_on channel=1 note=35 velocity=0 time=0
EXTRACT: note_on channel=1 note=47 velocity=0 time=0
EXTRACT: note_on channel=0 note=71 velocity=76 time=0.033571414583333334
EXTRACT: note_on channel=0 note=78 velocity=76 time=0
EXTRACT: note_on channel=1 note=35 velocity=76 time=0
EXTRACT: note_on channel=1 note=47 velocity=76 time=0
EXTRACT: note_on channel=0 note=71 velocity=0 time=0.3092855854166666
EXTRACT: note_on channel=0 note=78 velocity=0 time=0
EXTRACT: note_on channel=1 note=35 velocity=0 time=0
EXTRACT: note_on channel=1 note=47 velocity=0 time=0
EXTRACT: note_on channel=0 note=78 velocity=76 time=0.033571414583333334
EXTRACT: note_on channel=1 note=51 velocity=76 time=0
EXTRACT: note_on channel=1 note=54 velocity=76 time=0
EXTRACT: note_on channel=1 note=59 velocity=76 time=0
EXTRACT: note_on channel=0 note=78 velocity=0 time=0.15499993541666665
EXTRACT: note_on channel=0 note=71 velocity=76 time=0.016428564583333333
EXTRACT: note_on channel=0 note=75 velocity=76 time=0
EXTRACT: note_on channel=1 note=51 velocity=0 time=0.29142844999999995
EXTRACT: note_on channel=1 note=54 velocity=0 time=0
EXTRACT: note_on channel=1 note=59 velocity=0 time=0
EXTRACT: note_on channel=0 note=71 velocity=0 time=0.017857135416666666
EXTRACT: note_on channel=0 note=75 velocity=0 time=0
EXTRACT: note_on channel=0 note=73 velocity=76 time=0.033571414583333334
EXTRACT: note_on channel=0 note=80 velocity=76 time=0
EXTRACT: note_on channel=1 note=47 velocity=76 time=0
EXTRACT: note_on channel=1 note=47 velocity=0 time=0.15499993541666665
EXTRACT: note_on channel=1 note=42 velocity=76 time=0.016428564583333333
EXTRACT: note_on channel=1 note=54 velocity=76 time=0
EXTRACT: note_on channel=0 note=73 velocity=0 time=0.15499993541666665
EXTRACT: note_on channel=0 note=80 velocity=0 time=0
EXTRACT: note_on channel=0 note=78 velocity=76 time=0.016428564583333333
EXTRACT: note_on channel=1 note=42 velocity=0 time=0.13785708541666666
EXTRACT: note_on channel=1 note=54 velocity=0 time=0
EXTRACT: note_on channel=1 note=42 velocity=76 time=0.033571414583333334
EXTRACT: note_on channel=1 note=54 velocity=76 time=0
EXTRACT: note_on channel=0 note=78 velocity=0 time=0.13785708541666666
EXTRACT: note_on channel=0 note=73 velocity=76 time=0.033571414583333334
EXTRACT: note_on channel=0 note=80 velocity=76 time=0
EXTRACT: note_on channel=1 note=42 velocity=0 time=0.13785708541666666
EXTRACT: note_on channel=1 note=54 velocity=0 time=0
EXTRACT: note_on channel=1 note=54 velocity=76 time=0.033571414583333334
EXTRACT: note_on channel=1 note=58 velocity=76 time=0
EXTRACT: note_on channel=1 note=61 velocity=76 time=0
EXTRACT: note_on channel=0 note=73 velocity=0 time=0.3092855854166666
EXTRACT: note_on channel=0 note=80 velocity=0 time=0
EXTRACT: note_on channel=1 note=54 velocity=0 time=0.15357136458333331
EXTRACT: note_on channel=1 note=58 velocity=0 time=0
EXTRACT: note_on channel=1 note=61 velocity=0 time=0
EXTRACT: note_on channel=0 note=71 velocity=76 time=0.051428549999999996
EXTRACT: note_on channel=1 note=42 velocity=76 time=0
EXTRACT: note_on channel=1 note=54 velocity=76 time=0
EXTRACT: note_on channel=0 note=71 velocity=0 time=0.15499993541666665
EXTRACT: note_on channel=1 note=42 velocity=0 time=0
EXTRACT: note_on channel=1 note=54 velocity=0 time=0
EXTRACT: note_on channel=0 note=71 velocity=76 time=0.016428564583333333
EXTRACT: note_on channel=0 note=80 velocity=76 time=0
EXTRACT: note_on channel=1 note=40 velocity=76 time=0
EXTRACT: note_on channel=1 note=52 velocity=76 time=0
EXTRACT: note_on channel=0 note=71 velocity=0 time=0.3092855854166666
EXTRACT: note_on channel=0 note=80 velocity=0 time=0
EXTRACT: note_on channel=1 note=40 velocity=0 time=0
EXTRACT: note_on channel=1 note=52 velocity=0 time=0
EXTRACT: note_on channel=0 note=78 velocity=76 time=0.033571414583333334
EXTRACT: note_on channel=1 note=40 velocity=76 time=0
EXTRACT: note_on channel=1 note=52 velocity=76 time=0
EXTRACT: note_on channel=0 note=78 velocity=0 time=0.15499993541666665
EXTRACT: note_on channel=0 note=71 velocity=76 time=0.016428564583333333
EXTRACT: note_on channel=0 note=75 velocity=76 time=0
EXTRACT: note_on channel=1 note=40 velocity=0 time=0.13785708541666666
EXTRACT: note_on channel=1 note=52 velocity=0 time=0
EXTRACT: note_on channel=1 note=52 velocity=76 time=0.033571414583333334
EXTRACT: note_on channel=1 note=56 velocity=76 time=0
EXTRACT: note_on channel=1 note=59 velocity=76 time=0
EXTRACT: note_on channel=0 note=71 velocity=0 time=0.15499993541666665
EXTRACT: note_on channel=0 note=75 velocity=0 time=0
EXTRACT: note_on channel=0 note=73 velocity=76 time=0.016428564583333333
EXTRACT: note_on channel=1 note=52 velocity=0 time=0.29142844999999995
EXTRACT: note_on channel=1 note=56 velocity=0 time=0
EXTRACT: note_on channel=1 note=59 velocity=0 time=0
EXTRACT: note_on channel=0 note=73 velocity=0 time=0.017857135416666666
EXTRACT: note_on channel=0 note=64 velocity=76 time=0.033571414583333334
EXTRACT: note_on channel=0 note=73 velocity=76 time=0
EXTRACT: note_on channel=1 note=47 velocity=76 time=0
EXTRACT: note_on channel=1 note=47 velocity=0 time=0.15499993541666665
EXTRACT: note_on channel=1 note=40 velocity=76 time=0.016428564583333333
EXTRACT: note_on channel=1 note=52 velocity=76 time=0
EXTRACT: note_on channel=0 note=64 velocity=0 time=0.15499993541666665
EXTRACT: note_on channel=0 note=73 velocity=0 time=0
EXTRACT: note_on channel=0 note=75 velocity=76 time=0.016428564583333333
EXTRACT: note_on channel=1 note=40 velocity=0 time=0.13785708541666666
EXTRACT: note_on channel=1 note=52 velocity=0 time=0
EXTRACT: note_on channel=1 note=40 velocity=76 time=0.033571414583333334
EXTRACT: note_on channel=1 note=52 velocity=76 time=0
EXTRACT: note_on channel=0 note=75 velocity=0 time=0.13785708541666666
EXTRACT: note_on channel=0 note=71 velocity=76 time=0.033571414583333334
EXTRACT: note_on channel=1 note=40 velocity=0 time=0.13785708541666666
EXTRACT: note_on channel=1 note=52 velocity=0 time=0
EXTRACT: note_on channel=0 note=71 velocity=0 time=0.017142849999999998
EXTRACT: note_on channel=0 note=64 velocity=76 time=0.016428564583333333
EXTRACT: note_on channel=0 note=68 velocity=76 time=0
EXTRACT: note_on channel=1 note=39 velocity=76 time=0
EXTRACT: note_on channel=1 note=51 velocity=76 time=0
EXTRACT: note_on channel=0 note=64 velocity=0 time=0.3092855854166666
EXTRACT: note_on channel=0 note=68 velocity=0 time=0
EXTRACT: note_on channel=1 note=39 velocity=0 time=0
EXTRACT: note_on channel=1 note=51 velocity=0 time=0
EXTRACT: note_on channel=0 note=68 velocity=76 time=0.033571414583333334
EXTRACT: note_on channel=1 note=37 velocity=76 time=0
EXTRACT: note_on channel=1 note=49 velocity=76 time=0
EXTRACT: note_on channel=0 note=68 velocity=0 time=0.15499993541666665
EXTRACT: note_on channel=0 note=71 velocity=76 time=0.016428564583333333
EXTRACT: note_on channel=1 note=37 velocity=0 time=0.13785708541666666
EXTRACT: note_on channel=1 note=49 velocity=0 time=0
EXTRACT: note_on channel=0 note=71 velocity=0 time=0.017142849999999998
EXTRACT: note_on channel=0 note=75 velocity=76 time=0.016428564583333333
EXTRACT: note_on channel=1 note=35 velocity=76 time=0
EXTRACT: note_on channel=1 note=47 velocity=76 time=0
EXTRACT: note_on channel=0 note=75 velocity=0 time=0.3092855854166666
EXTRACT: note_on channel=1 note=35 velocity=0 time=0
EXTRACT: note_on channel=1 note=47 velocity=0 time=0
EXTRACT: note_on channel=0 note=66 velocity=76 time=0.033571414583333334
EXTRACT: note_on channel=0 note=75 velocity=76 time=0
EXTRACT: note_on channel=1 note=35 velocity=76 time=0
EXTRACT: note_on channel=1 note=47 velocity=76 time=0
EXTRACT: note_on channel=0 note=66 velocity=0 time=0.3092855854166666
EXTRACT: note_on channel=0 note=75 velocity=0 time=0
EXTRACT: note_on channel=1 note=35 velocity=0 time=0
EXTRACT: note_on channel=1 note=47 velocity=0 time=0
EXTRACT: note_on channel=0 note=75 velocity=76 time=0.033571414583333334
EXTRACT: note_on channel=1 note=51 velocity=76 time=0
EXTRACT: note_on channel=1 note=54 velocity=76 time=0
EXTRACT: note_on channel=1 note=59 velocity=76 time=0
EXTRACT: note_on channel=0 note=75 velocity=0 time=0.3092855854166666
EXTRACT: note_on channel=0 note=66 velocity=76 time=0.033571414583333334
EXTRACT: note_on channel=0 note=75 velocity=76 time=0
EXTRACT: note_on channel=1 note=51 velocity=0 time=0.11999995
EXTRACT: note_on channel=1 note=54 velocity=0 time=0
EXTRACT: note_on channel=1 note=59 velocity=0 time=0
EXTRACT: note_on channel=1 note=47 velocity=76 time=0.051428549999999996
EXTRACT: note_on channel=0 note=66 velocity=0 time=0.13785708541666666
EXTRACT: note_on channel=0 note=75 velocity=0 time=0
EXTRACT: note_on channel=1 note=47 velocity=0 time=0.017142849999999998
EXTRACT: note_on channel=0 note=73 velocity=76 time=0.016428564583333333
EXTRACT: note_on channel=1 note=39 velocity=76 time=0
EXTRACT: note_on channel=1 note=51 velocity=76 time=0
EXTRACT: note_on channel=0 note=73 velocity=0 time=0.3092855854166666
EXTRACT: note_on channel=1 note=39 velocity=0 time=0
EXTRACT: note_on channel=1 note=51 velocity=0 time=0
EXTRACT: note_on channel=0 note=66 velocity=76 time=0.033571414583333334
EXTRACT: note_on channel=0 note=71 velocity=76 time=0
EXTRACT: note_on channel=1 note=39 velocity=76 time=0
EXTRACT: note_on channel=1 note=51 velocity=76 time=0
EXTRACT: note_on channel=0 note=66 velocity=0 time=0.3092855854166666
EXTRACT: note_on channel=0 note=71 velocity=0 time=0
EXTRACT: note_on channel=1 note=39 velocity=0 time=0
EXTRACT: note_on channel=1 note=51 velocity=0 time=0
EXTRACT: note_on channel=0 note=73 velocity=76 time=0.033571414583333334
EXTRACT: note_on channel=1 note=51 velocity=76 time=0
EXTRACT: note_on channel=1 note=54 velocity=76 time=0
EXTRACT: note_on channel=1 note=58 velocity=76 time=0
EXTRACT: note_on channel=0 note=73 velocity=0 time=0.3092855854166666
EXTRACT: note_on channel=0 note=68 velocity=76 time=0.033571414583333334
EXTRACT: note_on channel=0 note=75 velocity=76 time=0
EXTRACT: note_on channel=1 note=51 velocity=0 time=0.11999995
EXTRACT: note_on channel=1 note=54 velocity=0 time=0
EXTRACT: note_on channel=1 note=58 velocity=0 time=0
EXTRACT: note_on channel=1 note=39 velocity=76 time=0.051428549999999996
EXTRACT: note_on channel=1 note=51 velocity=76 time=0
EXTRACT: note_on channel=1 note=39 velocity=0 time=0.15499993541666665
EXTRACT: note_on channel=1 note=51 velocity=0 time=0
EXTRACT: note_on channel=1 note=40 velocity=76 time=0.016428564583333333
EXTRACT: note_on channel=1 note=52 velocity=76 time=0
EXTRACT: note_on channel=0 note=68 velocity=0 time=0.15499993541666665
EXTRACT: note_on channel=0 note=75 velocity=0 time=0
EXTRACT: note_on channel=0 note=71 velocity=76 time=0.016428564583333333
EXTRACT: note_on channel=1 note=40 velocity=0 time=0.13785708541666666
EXTRACT: note_on channel=1 note=52 velocity=0 time=0
EXTRACT: note_on channel=0 note=71 velocity=0 time=0.017142849999999998
EXTRACT: note_on channel=0 note=68 velocity=76 time=0.016428564583333333
EXTRACT: note_on channel=1 note=40 velocity=76 time=0
EXTRACT: note_on channel=1 note=52 velocity=76 time=0
EXTRACT: note_on channel=0 note=68 velocity=0 time=0.3092855854166666
EXTRACT: note_on channel=1 note=40 velocity=0 time=0
EXTRACT: note_on channel=1 note=52 velocity=0 time=0
EXTRACT: note_on channel=1 note=52 velocity=76 time=0.033571414583333334
EXTRACT: note_on channel=1 note=56 velocity=76 time=0
EXTRACT: note_on channel=1 note=59 velocity=76 time=0
EXTRACT: note_on channel=1 note=52 velocity=0 time=0.46285694999999993
EXTRACT: note_on channel=1 note=56 velocity=0 time=0
EXTRACT: note_on channel=1 note=59 velocity=0 time=0
EXTRACT: note_on channel=1 note=47 velocity=76 time=0.051428549999999996
EXTRACT: note_on channel=1 note=47 velocity=0 time=0.15499993541666665
EXTRACT: note_on channel=0 note=59 velocity=76 time=0.016428564583333333
EXTRACT: note_on channel=0 note=66 velocity=76 time=0
EXTRACT: note_on channel=1 note=40 velocity=76 time=0
EXTRACT: note_on channel=1 note=52 velocity=76 time=0
EXTRACT: note_on channel=0 note=59 velocity=0 time=0.6185711708333332
EXTRACT: note_on channel=0 note=66 velocity=0 time=0
EXTRACT: note_on channel=0 note=59 velocity=76 time=0.06714282916666667
EXTRACT: note_on channel=0 note=68 velocity=76 time=0
EXTRACT: note_on channel=0 note=59 velocity=0 time=0.6185711708333332
EXTRACT: note_on channel=0 note=68 velocity=0 time=0
EXTRACT: note_on channel=1 note=40 velocity=0 time=0
EXTRACT: note_on channel=1 note=52 velocity=0 time=0
EXTRACT: note_on channel=0 note=78 velocity=76 time=0.06714282916666667
EXTRACT: note_on channel=1 note=37 velocity=76 time=0
EXTRACT: note_on channel=1 note=49 velocity=76 time=0
EXTRACT: note_on channel=0 note=78 velocity=0 time=0.3092855854166666
EXTRACT: note_on channel=1 note=37 velocity=0 time=0
EXTRACT: note_on channel=1 note=49 velocity=0 time=0
EXTRACT: note_on channel=0 note=68 velocity=76 time=0.033571414583333334
EXTRACT: note_on channel=0 note=78 velocity=76 time=0
EXTRACT: note_on channel=1 note=37 velocity=76 time=0
EXTRACT: note_on channel=1 note=49 velocity=76 time=0
EXTRACT: note_on channel=0 note=68 velocity=0 time=0.15499993541666665
EXTRACT: note_on channel=0 note=78 velocity=0 time=0
EXTRACT: note_on channel=0 note=78 velocity=76 time=0.016428564583333333
EXTRACT: note_on channel=1 note=37 velocity=0 time=0.13785708541666666
EXTRACT: note_on channel=1 note=49 velocity=0 time=0
EXTRACT: note_on channel=0 note=78 velocity=0 time=0.017142849999999998
EXTRACT: note_on channel=0 note=73 velocity=76 time=0.016428564583333333
EXTRACT: note_on channel=1 note=49 velocity=76 time=0
EXTRACT: note_on channel=1 note=52 velocity=76 time=0
EXTRACT: note_on channel=1 note=56 velocity=76 time=0
EXTRACT: note_on channel=0 note=73 velocity=0 time=0.3092855854166666
EXTRACT: note_on channel=0 note=68 velocity=76 time=0.033571414583333334
EXTRACT: note_on channel=0 note=75 velocity=76 time=0
EXTRACT: note_on channel=1 note=49 velocity=0 time=0.11999995
EXTRACT: note_on channel=1 note=52 velocity=0 time=0
EXTRACT: note_on channel=1 note=56 velocity=0 time=0
EXTRACT: note_on channel=1 note=37 velocity=76 time=0.051428549999999996
EXTRACT: note_on channel=1 note=49 velocity=76 time=0
EXTRACT: note_on channel=0 note=68 velocity=0 time=0.13785708541666666
EXTRACT: note_on channel=0 note=75 velocity=0 time=0
EXTRACT: note_on channel=1 note=37 velocity=0 time=0.017142849999999998
EXTRACT: note_on channel=1 note=49 velocity=0 time=0
EXTRACT: note_on channel=0 note=61 velocity=76 time=0.016428564583333333
EXTRACT: note_on channel=0 note=66 velocity=76 time=0
EXTRACT: note_on channel=1 note=42 velocity=76 time=0
EXTRACT: note_on channel=1 note=54 velocity=76 time=0
EXTRACT: note_on channel=1 note=42 velocity=0 time=0.3092855854166666
EXTRACT: note_on channel=1 note=54 velocity=0 time=0
EXTRACT: note_on channel=1 note=42 velocity=76 time=0.033571414583333334
EXTRACT: note_on channel=1 note=54 velocity=76 time=0
EXTRACT: note_on channel=1 note=42 velocity=0 time=0.3092855854166666
EXTRACT: note_on channel=1 note=54 velocity=0 time=0
EXTRACT: note_on channel=1 note=54 velocity=76 time=0.033571414583333334
EXTRACT: note_on channel=1 note=58 velocity=76 time=0
EXTRACT: note_on channel=1 note=61 velocity=76 time=0
EXTRACT: note_on channel=0 note=61 velocity=0 time=0.2757141708333333
EXTRACT: note_on channel=0 note=66 velocity=0 time=0
EXTRACT: note_on channel=1 note=54 velocity=0 time=0.18714277916666666
EXTRACT: note_on channel=1 note=58 velocity=0 time=0
EXTRACT: note_on channel=1 note=61 velocity=0 time=0
EXTRACT: note_on channel=0 note=71 velocity=76 time=0.051428549999999996
EXTRACT: note_on channel=1 note=42 velocity=76 time=0
EXTRACT: note_on channel=1 note=54 velocity=76 time=0
EXTRACT: note_on channel=0 note=71 velocity=0 time=0.15499993541666665
EXTRACT: note_on channel=1 note=42 velocity=0 time=0
EXTRACT: note_on channel=1 note=54 velocity=0 time=0
EXTRACT: note_on channel=0 note=78 velocity=76 time=0.016428564583333333
EXTRACT: note_on channel=1 note=44 velocity=76 time=0
EXTRACT: note_on channel=1 note=56 velocity=76 time=0
EXTRACT: note_on channel=0 note=78 velocity=0 time=0.3092855854166666
EXTRACT: note_on channel=1 note=44 velocity=0 time=0
EXTRACT: note_on channel=1 note=56 velocity=0 time=0
EXTRACT: note_on channel=0 note=68 velocity=76 time=0.033571414583333334
EXTRACT: note_on channel=0 note=78 velocity=76 time=0
EXTRACT: note_on channel=1 note=44 velocity=76 time=0
EXTRACT: note_on channel=1 note=56 velocity=76 time=0
EXTRACT: note_on channel=0 note=68 velocity=0 time=0.15499993541666665
EXTRACT: note_on channel=0 note=78 velocity=0 time=0
EXTRACT: note_on channel=0 note=78 velocity=76 time=0.016428564583333333
EXTRACT: note_on channel=1 note=44 velocity=0 time=0.13785708541666666
EXTRACT: note_on channel=1 note=56 velocity=0 time=0
EXTRACT: note_on channel=0 note=78 velocity=0 time=0.017142849999999998
EXTRACT: note_on channel=0 note=73 velocity=76 time=0.016428564583333333
EXTRACT: note_on channel=1 note=56 velocity=76 time=0
EXTRACT: note_on channel=1 note=59 velocity=76 time=0
EXTRACT: note_on channel=1 note=63 velocity=76 time=0
EXTRACT: note_on channel=0 note=73 velocity=0 time=0.3092855854166666
EXTRACT: note_on channel=0 note=68 velocity=76 time=0.033571414583333334
EXTRACT: note_on channel=0 note=75 velocity=76 time=0
EXTRACT: note_on channel=1 note=56 velocity=0 time=0.11999995
EXTRACT: note_on channel=1 note=59 velocity=0 time=0
EXTRACT: note_on channel=1 note=63 velocity=0 time=0
EXTRACT: note_on channel=1 note=51 velocity=76 time=0.051428549999999996
EXTRACT: note_on channel=0 note=68 velocity=0 time=0.13785708541666666
EXTRACT: note_on channel=0 note=75 velocity=0 time=0
EXTRACT: note_on channel=1 note=51 velocity=0 time=0.017142849999999998
EXTRACT: note_on channel=0 note=61 velocity=76 time=0.016428564583333333
EXTRACT: note_on channel=0 note=66 velocity=76 time=0
EXTRACT: note_on channel=1 note=44 velocity=76 time=0
EXTRACT: note_on channel=1 note=56 velocity=76 time=0
EXTRACT: note_on channel=1 note=44 velocity=0 time=0.3092855854166666
EXTRACT: note_on channel=1 note=56 velocity=0 time=0
EXTRACT: note_on channel=1 note=44 velocity=76 time=0.033571414583333334
EXTRACT: note_on channel=1 note=56 velocity=76 time=0
EXTRACT: note_on channel=1 note=44 velocity=0 time=0.3092855854166666
EXTRACT: note_on channel=1 note=56 velocity=0 time=0
EXTRACT: note_on channel=1 note=56 velocity=76 time=0.033571414583333334
EXTRACT: note_on channel=1 note=59 velocity=76 time=0
EXTRACT: note_on channel=1 note=63 velocity=76 time=0
EXTRACT: note_on channel=1 note=56 velocity=0 time=0.46285694999999993
EXTRACT: note_on channel=1 note=59 velocity=0 time=0
EXTRACT: note_on channel=1 note=63 velocity=0 time=0
EXTRACT: note_on channel=1 note=44 velocity=76 time=0.051428549999999996
EXTRACT: note_on channel=0 note=61 velocity=0 time=0.10428567083333333
EXTRACT: note_on channel=0 note=66 velocity=0 time=0
EXTRACT: note_on channel=1 note=44 velocity=0 time=0.05071426458333333
EXTRACT: note_on channel=0 note=73 velocity=76 time=0.016428564583333333
EXTRACT: note_on channel=1 note=37 velocity=76 time=0
EXTRACT: note_on channel=1 note=49 velocity=76 time=0
EXTRACT: note_on channel=0 note=73 velocity=0 time=0.3092855854166666
EXTRACT: note_on channel=1 note=37 velocity=0 time=0
EXTRACT: note_on channel=1 note=49 velocity=0 time=0
EXTRACT: note_on channel=0 note=68 velocity=76 time=0.033571414583333334
EXTRACT: note_on channel=0 note=75 velocity=76 time=0
EXTRACT: note_on channel=1 note=37 velocity=76 time=0
EXTRACT: note_on channel=1 note=49 velocity=76 time=0
EXTRACT: note_on channel=0 note=68 velocity=0 time=0.3092855854166666
EXTRACT: note_on channel=0 note=75 velocity=0 time=0
EXTRACT: note_on channel=1 note=37 velocity=0 time=0
EXTRACT: note_on channel=1 note=49 velocity=0 time=0
EXTRACT: note_on channel=0 note=73 velocity=76 time=0.033571414583333334
EXTRACT: note_on channel=1 note=49 velocity=76 time=0
EXTRACT: note_on channel=1 note=52 velocity=76 time=0
EXTRACT: note_on channel=1 note=56 velocity=76 time=0
EXTRACT: note_on channel=0 note=73 velocity=0 time=0.3092855854166666
EXTRACT: note_on channel=0 note=68 velocity=76 time=0.033571414583333334
EXTRACT: note_on channel=0 note=75 velocity=76 time=0
EXTRACT: note_on channel=1 note=49 velocity=0 time=0.11999995
EXTRACT: note_on channel=1 note=52 velocity=0 time=0
EXTRACT: note_on channel=1 note=56 velocity=0 time=0
EXTRACT: note_on channel=1 note=37 velocity=76 time=0.051428549999999996
EXTRACT: note_on channel=1 note=49 velocity=76 time=0
EXTRACT: note_on channel=0 note=68 velocity=0 time=0.13785708541666666
EXTRACT: note_on channel=0 note=75 velocity=0 time=0
EXTRACT: note_on channel=1 note=37 velocity=0 time=0.017142849999999998
EXTRACT: note_on channel=1 note=49 velocity=0 time=0
EXTRACT: note_on channel=0 note=73 velocity=76 time=0.016428564583333333
EXTRACT: note_on channel=1 note=42 velocity=76 time=0
EXTRACT: note_on channel=1 note=54 velocity=76 time=0
EXTRACT: note_on channel=0 note=73 velocity=0 time=0.3092855854166666
EXTRACT: note_on channel=1 note=42 velocity=0 time=0
EXTRACT: note_on channel=1 note=54 velocity=0 time=0
EXTRACT: note_on channel=0 note=66 velocity=76 time=0.033571414583333334
EXTRACT: note_on channel=0 note=75 velocity=76 time=0
EXTRACT: note_on channel=1 note=42 velocity=76 time=0
EXTRACT: note_on channel=1 note=54 velocity=76 time=0
EXTRACT: note_on channel=0 note=66 velocity=0 time=0.15499993541666665
EXTRACT: note_on channel=0 note=75 velocity=0 time=0
EXTRACT: note_on channel=0 note=66 velocity=76 time=0.016428564583333333
EXTRACT: note_on channel=0 note=73 velocity=76 time=0
EXTRACT: note_on channel=1 note=42 velocity=0 time=0.13785708541666666
EXTRACT: note_on channel=1 note=54 velocity=0 time=0
EXTRACT: note_on channel=1 note=54 velocity=76 time=0.033571414583333334
EXTRACT: note_on channel=1 note=58 velocity=76 time=0
EXTRACT: note_on channel=1 note=61 velocity=76 time=0
EXTRACT: note_on channel=0 note=66 velocity=0 time=0.15499993541666665
EXTRACT: note_on channel=0 note=73 velocity=0 time=0
EXTRACT: note_on channel=0 note=71 velocity=76 time=0.016428564583333333
EXTRACT: note_on channel=0 note=71 velocity=0 time=0.15499993541666665
EXTRACT: note_on channel=0 note=61 velocity=76 time=0.016428564583333333
EXTRACT: note_on channel=0 note=68 velocity=76 time=0
EXTRACT: note_on channel=1 note=54 velocity=0 time=0.11999995
EXTRACT: note_on channel=1 note=58 velocity=0 time=0
EXTRACT: note_on channel=1 note=61 velocity=0 time=0
EXTRACT: note_on channel=1 note=42 velocity=76 time=0.051428549999999996
EXTRACT: note_on channel=1 note=54 velocity=76 time=0
EXTRACT: note_on channel=0 note=61 velocity=0 time=0.13785708541666666
EXTRACT: note_on channel=0 note=68 velocity=0 time=0
EXTRACT: note_on channel=1 note=42 velocity=0 time=0.017142849999999998
EXTRACT: note_on channel=1 note=54 velocity=0 time=0
EXTRACT: note_on channel=0 note=63 velocity=76 time=0.016428564583333333
EXTRACT: note_on channel=0 note=68 velocity=76 time=0
EXTRACT: note_on channel=0 note=71 velocity=76 time=0
EXTRACT: note_on channel=1 note=44 velocity=76 time=0
EXTRACT: note_on channel=1 note=56 velocity=76 time=0
EXTRACT: note_on channel=1 note=44 velocity=0 time=0.3092855854166666
EXTRACT: note_on channel=1 note=56 velocity=0 time=0
EXTRACT: note_on channel=1 note=44 velocity=76 time=0.033571414583333334
EXTRACT: note_on channel=1 note=56 velocity=76 time=0
EXTRACT: note_on channel=1 note=44 velocity=0 time=0.3092855854166666
EXTRACT: note_on channel=1 note=56 velocity=0 time=0
EXTRACT: note_on channel=1 note=56 velocity=76 time=0.033571414583333334
EXTRACT: note_on channel=1 note=59 velocity=76 time=0
EXTRACT: note_on channel=1 note=63 velocity=76 time=0
EXTRACT: note_on channel=1 note=56 velocity=0 time=0.46285694999999993
EXTRACT: note_on channel=1 note=59 velocity=0 time=0
EXTRACT: note_on channel=1 note=63 velocity=0 time=0
EXTRACT: note_on channel=1 note=51 velocity=76 time=0.051428549999999996
EXTRACT: note_on channel=0 note=63 velocity=0 time=0.10428567083333333
EXTRACT: note_on channel=0 note=68 velocity=0 time=0
EXTRACT: note_on channel=0 note=71 velocity=0 time=0
EXTRACT: note_on channel=1 note=51 velocity=0 time=0.05071426458333333
EXTRACT: note_on channel=1 note=44 velocity=76 time=0.016428564583333333
EXTRACT: note_on channel=1 note=56 velocity=76 time=0
EXTRACT: note_on channel=1 note=44 velocity=0 time=0.3092855854166666
EXTRACT: note_on channel=1 note=56 velocity=0 time=0
EXTRACT: note_on channel=1 note=44 velocity=76 time=0.033571414583333334
EXTRACT: note_on channel=1 note=56 velocity=76 time=0
EXTRACT: note_on channel=1 note=44 velocity=0 time=0.3092855854166666
EXTRACT: note_on channel=1 note=56 velocity=0 time=0
EXTRACT: note_on channel=0 note=66 velocity=76 time=0.033571414583333334
EXTRACT: note_on channel=1 note=56 velocity=76 time=0
EXTRACT: note_on channel=1 note=59 velocity=76 time=0
EXTRACT: note_on channel=1 note=63 velocity=76 time=0
EXTRACT: note_on channel=0 note=66 velocity=0 time=0.3092855854166666
EXTRACT: note_on channel=0 note=68 velocity=76 time=0.033571414583333334
EXTRACT: note_on channel=1 note=56 velocity=0 time=0.11999995
EXTRACT: note_on channel=1 note=59 velocity=0 time=0
EXTRACT: note_on channel=1 note=63 velocity=0 time=0
EXTRACT: note_on channel=1 note=44 velocity=76 time=0.051428549999999996
EXTRACT: note_on channel=0 note=68 velocity=0 time=0.13785708541666666
EXTRACT: note_on channel=1 note=44 velocity=0 time=0.017142849999999998
EXTRACT: note_on channel=0 note=78 velocity=76 time=0.016428564583333333
EXTRACT: note_on channel=1 note=37 velocity=76 time=0
EXTRACT: note_on channel=1 note=49 velocity=76 time=0
EXTRACT: note_on channel=0 note=78 velocity=0 time=0.3092855854166666
EXTRACT: note_on channel=1 note=37 velocity=0 time=0
EXTRACT: note_on channel=1 note=49 velocity=0 time=0
EXTRACT: note_on channel=0 note=68 velocity=76 time=0.033571414583333334
EXTRACT: note_on channel=0 note=78 velocity=76 time=0
EXTRACT: note_on channel=1 note=37 velocity=76 time=0
EXTRACT: note_on channel=1 note=49 velocity=76 time=0
EXTRACT: note_on channel=0 note=68 velocity=0 time=0.15499993541666665
EXTRACT: note_on channel=0 note=78 velocity=0 time=0
EXTRACT: note_on channel=0 note=78 velocity=76 time=0.016428564583333333
EXTRACT: note_on channel=1 note=37 velocity=0 time=0.13785708541666666
EXTRACT: note_on channel=1 note=49 velocity=0 time=0
EXTRACT: note_on channel=0 note=78 velocity=0 time=0.017142849999999998
EXTRACT: note_on channel=0 note=73 velocity=76 time=0.016428564583333333
EXTRACT: note_on channel=1 note=49 velocity=76 time=0
EXTRACT: note_on channel=1 note=52 velocity=76 time=0
EXTRACT: note_on channel=1 note=56 velocity=76 time=0
EXTRACT: note_on channel=0 note=73 velocity=0 time=0.3092855854166666
EXTRACT: note_on channel=0 note=68 velocity=76 time=0.033571414583333334
EXTRACT: note_on channel=0 note=75 velocity=76 time=0
EXTRACT: note_on channel=1 note=49 velocity=0 time=0.11999995
EXTRACT: note_on channel=1 note=52 velocity=0 time=0
EXTRACT: note_on channel=1 note=56 velocity=0 time=0
EXTRACT: note_on channel=1 note=37 velocity=76 time=0.051428549999999996
EXTRACT: note_on channel=1 note=49 velocity=76 time=0
EXTRACT: note_on channel=0 note=68 velocity=0 time=0.13785708541666666
EXTRACT: note_on channel=0 note=75 velocity=0 time=0
EXTRACT: note_on channel=1 note=37 velocity=0 time=0.017142849999999998
EXTRACT: note_on channel=1 note=49 velocity=0 time=0
EXTRACT: note_on channel=0 note=61 velocity=76 time=0.016428564583333333
EXTRACT: note_on channel=0 note=66 velocity=76 time=0
EXTRACT: note_on channel=1 note=42 velocity=76 time=0
EXTRACT: note_on channel=1 note=54 velocity=76 time=0
EXTRACT: note_on channel=1 note=42 velocity=0 time=0.3092855854166666
EXTRACT: note_on channel=1 note=54 velocity=0 time=0
EXTRACT: note_on channel=1 note=42 velocity=76 time=0.033571414583333334
EXTRACT: note_on channel=1 note=54 velocity=76 time=0
EXTRACT: note_on channel=1 note=42 velocity=0 time=0.3092855854166666
EXTRACT: note_on channel=1 note=54 velocity=0 time=0
EXTRACT: note_on channel=1 note=54 velocity=76 time=0.033571414583333334
EXTRACT: note_on channel=1 note=58 velocity=76 time=0
EXTRACT: note_on channel=1 note=61 velocity=76 time=0
EXTRACT: note_on channel=0 note=61 velocity=0 time=0.2757141708333333
EXTRACT: note_on channel=0 note=66 velocity=0 time=0
EXTRACT: note_on channel=0 note=66 velocity=76 time=0.06714282916666667
EXTRACT: note_on channel=1 note=54 velocity=0 time=0.11999995
EXTRACT: note_on channel=1 note=58 velocity=0 time=0
EXTRACT: note_on channel=1 note=61 velocity=0 time=0
EXTRACT: note_on channel=0 note=66 velocity=0 time=0.034999985416666664
EXTRACT: note_on channel=0 note=66 velocity=76 time=0.016428564583333333
EXTRACT: note_on channel=1 note=42 velocity=76 time=0
EXTRACT: note_on channel=1 note=54 velocity=76 time=0
EXTRACT: note_on channel=0 note=66 velocity=0 time=0.15499993541666665
EXTRACT: note_on channel=1 note=42 velocity=0 time=0
EXTRACT: note_on channel=1 note=54 velocity=0 time=0
EXTRACT: note_on channel=0 note=71 velocity=76 time=0.016428564583333333
EXTRACT: note_on channel=0 note=80 velocity=76 time=0
EXTRACT: note_on channel=1 note=44 velocity=76 time=0
EXTRACT: note_on channel=1 note=56 velocity=76 time=0
EXTRACT: note_on channel=1 note=44 velocity=0 time=0.3092855854166666
EXTRACT: note_on channel=1 note=56 velocity=0 time=0
EXTRACT: note_on channel=1 note=44 velocity=76 time=0.033571414583333334
EXTRACT: note_on channel=1 note=56 velocity=76 time=0
EXTRACT: note_on channel=0 note=71 velocity=0 time=0.11999995
EXTRACT: note_on channel=0 note=80 velocity=0 time=0
EXTRACT: note_on channel=0 note=71 velocity=76 time=0.051428549999999996
EXTRACT: note_on channel=0 note=78 velocity=76 time=0
EXTRACT: note_on channel=1 note=44 velocity=0 time=0.13785708541666666
EXTRACT: note_on channel=1 note=56 velocity=0 time=0
EXTRACT: note_on channel=1 note=56 velocity=76 time=0.033571414583333334
EXTRACT: note_on channel=1 note=59 velocity=76 time=0
EXTRACT: note_on channel=1 note=63 velocity=76 time=0
EXTRACT: note_on channel=0 note=71 velocity=0 time=0.3092855854166666
EXTRACT: note_on channel=0 note=78 velocity=0 time=0
EXTRACT: note_on channel=0 note=71 velocity=76 time=0.033571414583333334
EXTRACT: note_on channel=0 note=80 velocity=76 time=0
EXTRACT: note_on channel=1 note=56 velocity=0 time=0.11999995
EXTRACT: note_on channel=1 note=59 velocity=0 time=0
EXTRACT: note_on channel=1 note=63 velocity=0 time=0
EXTRACT: note_on channel=1 note=51 velocity=76 time=0.051428549999999996
EXTRACT: note_on channel=0 note=71 velocity=0 time=0.13785708541666666
EXTRACT: note_on channel=0 note=80 velocity=0 time=0
EXTRACT: note_on channel=1 note=51 velocity=0 time=0.017142849999999998
EXTRACT: note_on channel=0 note=68 velocity=76 time=0.016428564583333333
EXTRACT: note_on channel=0 note=73 velocity=76 time=0
EXTRACT: note_on channel=1 note=44 velocity=76 time=0
EXTRACT: note_on channel=1 note=56 velocity=76 time=0
EXTRACT: note_on channel=1 note=44 velocity=0 time=0.3092855854166666
EXTRACT: note_on channel=1 note=56 velocity=0 time=0
EXTRACT: note_on channel=1 note=44 velocity=76 time=0.033571414583333334
EXTRACT: note_on channel=1 note=56 velocity=76 time=0
EXTRACT: note_on channel=1 note=44 velocity=0 time=0.3092855854166666
EXTRACT: note_on channel=1 note=56 velocity=0 time=0
EXTRACT: note_on channel=1 note=56 velocity=76 time=0.033571414583333334
EXTRACT: note_on channel=1 note=59 velocity=76 time=0
EXTRACT: note_on channel=1 note=63 velocity=76 time=0
EXTRACT: note_on channel=1 note=56 velocity=0 time=0.46285694999999993
EXTRACT: note_on channel=1 note=59 velocity=0 time=0
EXTRACT: note_on channel=1 note=63 velocity=0 time=0
EXTRACT: note_on channel=1 note=44 velocity=76 time=0.051428549999999996
EXTRACT: note_on channel=0 note=68 velocity=0 time=0.10428567083333333
EXTRACT: note_on channel=0 note=73 velocity=0 time=0
EXTRACT: note_on channel=1 note=44 velocity=0 time=0.05071426458333333
EXTRACT: note_on channel=0 note=73 velocity=76 time=0.016428564583333333
EXTRACT: note_on channel=1 note=37 velocity=76 time=0
EXTRACT: note_on channel=1 note=49 velocity=76 time=0
EXTRACT: note_on channel=0 note=73 velocity=0 time=0.3092855854166666
EXTRACT: note_on channel=1 note=37 velocity=0 time=0
EXTRACT: note_on channel=1 note=49 velocity=0 time=0
EXTRACT: note_on channel=0 note=68 velocity=76 time=0.033571414583333334
EXTRACT: note_on channel=0 note=75 velocity=76 time=0
EXTRACT: note_on channel=1 note=37 velocity=76 time=0
EXTRACT: note_on channel=1 note=49 velocity=76 time=0
EXTRACT: note_on channel=0 note=68 velocity=0 time=0.3092855854166666
EXTRACT: note_on channel=0 note=75 velocity=0 time=0
EXTRACT: note_on channel=1 note=37 velocity=0 time=0
EXTRACT: note_on channel=1 note=49 velocity=0 time=0
EXTRACT: note_on channel=0 note=73 velocity=76 time=0.033571414583333334
EXTRACT: note_on channel=1 note=49 velocity=76 time=0
EXTRACT: note_on channel=1 note=52 velocity=76 time=0
EXTRACT: note_on channel=1 note=56 velocity=76 time=0
EXTRACT: note_on channel=0 note=73 velocity=0 time=0.3092855854166666
EXTRACT: note_on channel=0 note=68 velocity=76 time=0.033571414583333334
EXTRACT: note_on channel=0 note=75 velocity=76 time=0
EXTRACT: note_on channel=1 note=49 velocity=0 time=0.11999995
EXTRACT: note_on channel=1 note=52 velocity=0 time=0
EXTRACT: note_on channel=1 note=56 velocity=0 time=0
EXTRACT: note_on channel=1 note=37 velocity=76 time=0.051428549999999996
EXTRACT: note_on channel=1 note=49 velocity=76 time=0
EXTRACT: note_on channel=0 note=68 velocity=0 time=0.13785708541666666
EXTRACT: note_on channel=0 note=75 velocity=0 time=0
EXTRACT: note_on channel=1 note=37 velocity=0 time=0.017142849999999998
EXTRACT: note_on channel=1 note=49 velocity=0 time=0
EXTRACT: note_on channel=0 note=73 velocity=76 time=0.016428564583333333
EXTRACT: note_on channel=1 note=42 velocity=76 time=0
EXTRACT: note_on channel=1 note=54 velocity=76 time=0
EXTRACT: note_on channel=0 note=73 velocity=0 time=0.3092855854166666
EXTRACT: note_on channel=1 note=42 velocity=0 time=0
EXTRACT: note_on channel=1 note=54 velocity=0 time=0
EXTRACT: note_on channel=0 note=66 velocity=76 time=0.033571414583333334
EXTRACT: note_on channel=0 note=75 velocity=76 time=0
EXTRACT: note_on channel=1 note=42 velocity=76 time=0
EXTRACT: note_on channel=1 note=54 velocity=76 time=0
EXTRACT: note_on channel=0 note=66 velocity=0 time=0.15499993541666665
EXTRACT: note_on channel=0 note=75 velocity=0 time=0
EXTRACT: note_on channel=0 note=66 velocity=76 time=0.016428564583333333
EXTRACT: note_on channel=0 note=73 velocity=76 time=0
EXTRACT: note_on channel=1 note=42 velocity=0 time=0.13785708541666666
EXTRACT: note_on channel=1 note=54 velocity=0 time=0
EXTRACT: note_on channel=1 note=54 velocity=76 time=0.033571414583333334
EXTRACT: note_on channel=1 note=58 velocity=76 time=0
EXTRACT: note_on channel=1 note=61 velocity=76 time=0
EXTRACT: note_on channel=0 note=66 velocity=0 time=0.15499993541666665
EXTRACT: note_on channel=0 note=73 velocity=0 time=0
EXTRACT: note_on channel=0 note=71 velocity=76 time=0.016428564583333333
EXTRACT: note_on channel=0 note=71 velocity=0 time=0.15499993541666665
EXTRACT: note_on channel=0 note=61 velocity=76 time=0.016428564583333333
EXTRACT: note_on channel=0 note=68 velocity=76 time=0
EXTRACT: note_on channel=1 note=54 velocity=0 time=0.11999995
EXTRACT: note_on channel=1 note=58 velocity=0 time=0
EXTRACT: note_on channel=1 note=61 velocity=0 time=0
EXTRACT: note_on channel=1 note=42 velocity=76 time=0.051428549999999996
EXTRACT: note_on channel=1 note=54 velocity=76 time=0
EXTRACT: note_on channel=0 note=61 velocity=0 time=0.13785708541666666
EXTRACT: note_on channel=0 note=68 velocity=0 time=0
EXTRACT: note_on channel=1 note=42 velocity=0 time=0.017142849999999998
EXTRACT: note_on channel=1 note=54 velocity=0 time=0
EXTRACT: note_on channel=0 note=63 velocity=76 time=0.016428564583333333
EXTRACT: note_on channel=0 note=68 velocity=76 time=0
EXTRACT: note_on channel=0 note=71 velocity=76 time=0
EXTRACT: note_on channel=1 note=44 velocity=76 time=0
EXTRACT: note_on channel=1 note=56 velocity=76 time=0
EXTRACT: note_on channel=1 note=44 velocity=0 time=0.3092855854166666
EXTRACT: note_on channel=1 note=56 velocity=0 time=0
EXTRACT: note_on channel=1 note=44 velocity=76 time=0.033571414583333334
EXTRACT: note_on channel=1 note=56 velocity=76 time=0
EXTRACT: note_on channel=1 note=44 velocity=0 time=0.3092855854166666
EXTRACT: note_on channel=1 note=56 velocity=0 time=0
EXTRACT: note_on channel=1 note=56 velocity=76 time=0.033571414583333334
EXTRACT: note_on channel=1 note=59 velocity=76 time=0
EXTRACT: note_on channel=1 note=63 velocity=76 time=0
EXTRACT: note_on channel=1 note=56 velocity=0 time=0.46285694999999993
EXTRACT: note_on channel=1 note=59 velocity=0 time=0
EXTRACT: note_on channel=1 note=63 velocity=0 time=0
EXTRACT: note_on channel=1 note=51 velocity=76 time=0.051428549999999996
EXTRACT: note_on channel=0 note=63 velocity=0 time=0.10428567083333333
EXTRACT: note_on channel=0 note=68 velocity=0 time=0
EXTRACT: note_on channel=0 note=71 velocity=0 time=0
EXTRACT: note_on channel=1 note=51 velocity=0 time=0.05071426458333333
EXTRACT: note_on channel=1 note=44 velocity=76 time=0.016428564583333333
EXTRACT: note_on channel=1 note=56 velocity=76 time=0
EXTRACT: note_on channel=0 note=71 velocity=76 time=0.34285699999999997
EXTRACT: note_on channel=0 note=80 velocity=76 time=0
EXTRACT: note_on channel=0 note=71 velocity=0 time=0.3092855854166666
EXTRACT: note_on channel=0 note=80 velocity=0 time=0
EXTRACT: note_on channel=0 note=78 velocity=76 time=0.033571414583333334
EXTRACT: note_on channel=0 note=78 velocity=0 time=0.3092855854166666
EXTRACT: note_on channel=0 note=75 velocity=76 time=0.033571414583333334
EXTRACT: note_on channel=0 note=75 velocity=0 time=0.15499993541666665
EXTRACT: note_on channel=0 note=75 velocity=76 time=0.016428564583333333
EXTRACT: note_on channel=1 note=44 velocity=0 time=0.10428567083333333
EXTRACT: note_on channel=1 note=56 velocity=0 time=0
EXTRACT: note_on channel=0 note=75 velocity=0 time=0.05071426458333333
EXTRACT: note_on channel=0 note=80 velocity=76 time=0.016428564583333333
EXTRACT: note_on channel=1 note=47 velocity=76 time=0
EXTRACT: note_on channel=0 note=80 velocity=0 time=0.3092855854166666
EXTRACT: note_on channel=1 note=47 velocity=0 time=0
EXTRACT: note_on channel=0 note=78 velocity=76 time=0.033571414583333334
EXTRACT: note_on channel=1 note=51 velocity=76 time=0
EXTRACT: note_on channel=1 note=54 velocity=76 time=0
EXTRACT: note_on channel=0 note=78 velocity=0 time=0.3092855854166666
EXTRACT: note_on channel=1 note=51 velocity=0 time=0
EXTRACT: note_on channel=1 note=54 velocity=0 time=0
EXTRACT: note_on channel=0 note=78 velocity=76 time=0.033571414583333334
EXTRACT: note_on channel=0 note=78 velocity=0 time=0.3092855854166666
EXTRACT: note_on channel=0 note=75 velocity=76 time=0.033571414583333334
EXTRACT: note_on channel=1 note=51 velocity=76 time=0
EXTRACT: note_on channel=1 note=54 velocity=76 time=0
EXTRACT: note_on channel=0 note=75 velocity=0 time=0.3092855854166666
EXTRACT: note_on channel=1 note=51 velocity=0 time=0
EXTRACT: note_on channel=1 note=54 velocity=0 time=0
EXTRACT: note_on channel=0 note=80 velocity=76 time=0.033571414583333334
EXTRACT: note_on channel=1 note=54 velocity=76 time=0
EXTRACT: note_on channel=0 note=80 velocity=0 time=0.3092855854166666
EXTRACT: note_on channel=1 note=54 velocity=0 time=0
EXTRACT: note_on channel=0 note=78 velocity=76 time=0.033571414583333334
EXTRACT: note_on channel=1 note=58 velocity=76 time=0
EXTRACT: note_on channel=1 note=61 velocity=76 time=0
EXTRACT: note_on channel=0 note=78 velocity=0 time=0.3092855854166666
EXTRACT: note_on channel=1 note=58 velocity=0 time=0
EXTRACT: note_on channel=1 note=61 velocity=0 time=0
EXTRACT: note_on channel=0 note=76 velocity=76 time=0.033571414583333334
EXTRACT: note_on channel=0 note=76 velocity=0 time=0.3092855854166666
EXTRACT: note_on channel=0 note=75 velocity=76 time=0.033571414583333334
EXTRACT: note_on channel=1 note=58 velocity=76 time=0
EXTRACT: note_on channel=1 note=61 velocity=76 time=0
EXTRACT: note_on channel=1 note=58 velocity=0 time=0.3092855854166666
EXTRACT: note_on channel=1 note=61 velocity=0 time=0
EXTRACT: note_on channel=1 note=52 velocity=76 time=0.033571414583333334
EXTRACT: note_on channel=0 note=75 velocity=0 time=0.15499993541666665
EXTRACT: note_on channel=0 note=68 velocity=76 time=0.016428564583333333
EXTRACT: note_on channel=1 note=52 velocity=0 time=0.13785708541666666
EXTRACT: note_on channel=0 note=68 velocity=0 time=0.017142849999999998
EXTRACT: note_on channel=0 note=71 velocity=76 time=0.016428564583333333
EXTRACT: note_on channel=1 note=56 velocity=76 time=0
EXTRACT: note_on channel=1 note=59 velocity=76 time=0
EXTRACT: note_on channel=0 note=71 velocity=0 time=0.3092855854166666
EXTRACT: note_on channel=1 note=56 velocity=0 time=0
EXTRACT: note_on channel=1 note=59 velocity=0 time=0
EXTRACT: note_on channel=1 note=56 velocity=76 time=0.3764284145833333
EXTRACT: note_on channel=1 note=59 velocity=76 time=0
EXTRACT: note_on channel=1 note=56 velocity=0 time=0.3092855854166666
EXTRACT: note_on channel=1 note=59 velocity=0 time=0
EXTRACT: note_on channel=0 note=71 velocity=76 time=0.033571414583333334
EXTRACT: note_on channel=1 note=52 velocity=76 time=0
EXTRACT: note_on channel=0 note=71 velocity=0 time=0.15499993541666665
EXTRACT: note_on channel=0 note=73 velocity=76 time=0.016428564583333333
EXTRACT: note_on channel=1 note=52 velocity=0 time=0.13785708541666666
EXTRACT: note_on channel=0 note=73 velocity=0 time=0.017142849999999998
EXTRACT: note_on channel=0 note=75 velocity=76 time=0.016428564583333333
EXTRACT: note_on channel=1 note=56 velocity=76 time=0
EXTRACT: note_on channel=1 note=59 velocity=76 time=0
EXTRACT: note_on channel=0 note=75 velocity=0 time=0.3092855854166666
EXTRACT: note_on channel=1 note=56 velocity=0 time=0
EXTRACT: note_on channel=1 note=59 velocity=0 time=0
EXTRACT: note_on channel=0 note=75 velocity=76 time=0.033571414583333334
EXTRACT: note_on channel=0 note=75 velocity=0 time=0.15499993541666665
EXTRACT: note_on channel=0 note=73 velocity=76 time=0.016428564583333333
EXTRACT: note_on channel=0 note=73 velocity=0 time=0.15499993541666665
EXTRACT: note_on channel=0 note=71 velocity=76 time=0.016428564583333333
EXTRACT: note_on channel=1 note=56 velocity=76 time=0
EXTRACT: note_on channel=1 note=59 velocity=76 time=0
EXTRACT: note_on channel=0 note=71 velocity=0 time=0.3092855854166666
EXTRACT: note_on channel=1 note=56 velocity=0 time=0
EXTRACT: note_on channel=1 note=59 velocity=0 time=0
EXTRACT: note_on channel=0 note=75 velocity=76 time=0.033571414583333334
EXTRACT: note_on channel=1 note=47 velocity=76 time=0
EXTRACT: note_on channel=0 note=75 velocity=0 time=0.3092855854166666
EXTRACT: note_on channel=1 note=47 velocity=0 time=0
EXTRACT: note_on channel=0 note=78 velocity=76 time=0.033571414583333334
EXTRACT: note_on channel=1 note=51 velocity=76 time=0
EXTRACT: note_on channel=1 note=54 velocity=76 time=0
EXTRACT: note_on channel=0 note=78 velocity=0 time=0.3092855854166666
EXTRACT: note_on channel=1 note=51 velocity=0 time=0
EXTRACT: note_on channel=1 note=54 velocity=0 time=0
EXTRACT: note_on channel=0 note=78 velocity=76 time=0.033571414583333334
EXTRACT: note_on channel=0 note=78 velocity=0 time=0.3092855854166666
EXTRACT: note_on channel=0 note=75 velocity=76 time=0.033571414583333334
EXTRACT: note_on channel=1 note=51 velocity=76 time=0
EXTRACT: note_on channel=1 note=54 velocity=76 time=0
EXTRACT: note_on channel=0 note=75 velocity=0 time=0.3092855854166666
EXTRACT: note_on channel=1 note=51 velocity=0 time=0
EXTRACT: note_on channel=1 note=54 velocity=0 time=0
EXTRACT: note_on channel=0 note=80 velocity=76 time=0.033571414583333334
EXTRACT: note_on channel=1 note=54 velocity=76 time=0
EXTRACT: note_on channel=0 note=80 velocity=0 time=0.3092855854166666
EXTRACT: note_on channel=1 note=54 velocity=0 time=0
EXTRACT: note_on channel=0 note=78 velocity=76 time=0.033571414583333334
EXTRACT: note_on channel=1 note=58 velocity=76 time=0
EXTRACT: note_on channel=1 note=61 velocity=76 time=0
EXTRACT: note_on channel=0 note=78 velocity=0 time=0.3092855854166666
EXTRACT: note_on channel=1 note=58 velocity=0 time=0
EXTRACT: note_on channel=1 note=61 velocity=0 time=0
EXTRACT: note_on channel=0 note=80 velocity=76 time=0.033571414583333334
EXTRACT: note_on channel=0 note=80 velocity=0 time=0.3092855854166666
EXTRACT: note_on channel=0 note=75 velocity=76 time=0.033571414583333334
EXTRACT: note_on channel=1 note=58 velocity=76 time=0
EXTRACT: note_on channel=1 note=61 velocity=76 time=0
EXTRACT: note_on channel=0 note=75 velocity=0 time=0.15499993541666665
EXTRACT: note_on channel=0 note=73 velocity=76 time=0.016428564583333333
EXTRACT: note_on channel=1 note=58 velocity=0 time=0.13785708541666666
EXTRACT: note_on channel=1 note=61 velocity=0 time=0
EXTRACT: note_on channel=0 note=73 velocity=0 time=0.017142849999999998
EXTRACT: note_on channel=0 note=71 velocity=76 time=0.016428564583333333
EXTRACT: note_on channel=1 note=52 velocity=76 time=0
EXTRACT: note_on channel=1 note=52 velocity=0 time=0.3092855854166666
EXTRACT: note_on channel=1 note=56 velocity=76 time=0.033571414583333334
EXTRACT: note_on channel=1 note=59 velocity=76 time=0
EXTRACT: note_on channel=0 note=71 velocity=0 time=0.2757141708333333
EXTRACT: note_on channel=1 note=56 velocity=0 time=0.033571414583333334
EXTRACT: note_on channel=1 note=59 velocity=0 time=0
EXTRACT: note_on channel=1 note=56 velocity=76 time=0.3764284145833333
EXTRACT: note_on channel=1 note=59 velocity=76 time=0
EXTRACT: note_on channel=1 note=56 velocity=0 time=0.3092855854166666
EXTRACT: note_on channel=1 note=59 velocity=0 time=0
EXTRACT: note_on channel=0 note=71 velocity=76 time=0.033571414583333334
EXTRACT: note_on channel=1 note=52 velocity=76 time=0
EXTRACT: note_on channel=0 note=71 velocity=0 time=0.15499993541666665
EXTRACT: note_on channel=0 note=73 velocity=76 time=0.016428564583333333
EXTRACT: note_on channel=1 note=52 velocity=0 time=0.13785708541666666
EXTRACT: note_on channel=0 note=73 velocity=0 time=0.017142849999999998
EXTRACT: note_on channel=0 note=75 velocity=76 time=0.016428564583333333
EXTRACT: note_on channel=1 note=56 velocity=76 time=0
EXTRACT: note_on channel=1 note=59 velocity=76 time=0
EXTRACT: note_on channel=0 note=75 velocity=0 time=0.3092855854166666
EXTRACT: note_on channel=1 note=56 velocity=0 time=0
EXTRACT: note_on channel=1 note=59 velocity=0 time=0
EXTRACT: note_on channel=0 note=75 velocity=76 time=0.033571414583333334
EXTRACT: note_on channel=0 note=75 velocity=0 time=0.15499993541666665
EXTRACT: note_on channel=0 note=73 velocity=76 time=0.016428564583333333
EXTRACT: note_on channel=0 note=73 velocity=0 time=0.15499993541666665
EXTRACT: note_on channel=0 note=71 velocity=76 time=0.016428564583333333
EXTRACT: note_on channel=1 note=56 velocity=76 time=0
EXTRACT: note_on channel=1 note=59 velocity=76 time=0
EXTRACT: note_on channel=0 note=71 velocity=0 time=0.3092855854166666
EXTRACT: note_on channel=1 note=56 velocity=0 time=0
EXTRACT: note_on channel=1 note=59 velocity=0 time=0
EXTRACT: note_on channel=0 note=75 velocity=76 time=0.033571414583333334
EXTRACT: note_on channel=1 note=47 velocity=76 time=0
EXTRACT: note_on channel=0 note=75 velocity=0 time=0.3092855854166666
EXTRACT: note_on channel=1 note=47 velocity=0 time=0
EXTRACT: note_on channel=0 note=78 velocity=76 time=0.033571414583333334
EXTRACT: note_on channel=1 note=51 velocity=76 time=0
EXTRACT: note_on channel=1 note=54 velocity=76 time=0
EXTRACT: note_on channel=0 note=78 velocity=0 time=0.3092855854166666
EXTRACT: note_on channel=1 note=51 velocity=0 time=0
EXTRACT: note_on channel=1 note=54 velocity=0 time=0
EXTRACT: note_on channel=0 note=78 velocity=76 time=0.033571414583333334
EXTRACT: note_on channel=0 note=78 velocity=0 time=0.15499993541666665
EXTRACT: note_on channel=0 note=75 velocity=76 time=0.016428564583333333
EXTRACT: note_on channel=1 note=51 velocity=76 time=0.17142849999999998
EXTRACT: note_on channel=1 note=54 velocity=76 time=0
EXTRACT: note_on channel=0 note=75 velocity=0 time=0.13785708541666666
EXTRACT: note_on channel=0 note=80 velocity=76 time=0.033571414583333334
EXTRACT: note_on channel=1 note=51 velocity=0 time=0.13785708541666666
EXTRACT: note_on channel=1 note=54 velocity=0 time=0
EXTRACT: note_on channel=1 note=54 velocity=76 time=0.033571414583333334
EXTRACT: note_on channel=0 note=80 velocity=0 time=0.15499993541666665
EXTRACT: note_on channel=0 note=78 velocity=76 time=0.016428564583333333
EXTRACT: note_on channel=1 note=54 velocity=0 time=0.13785708541666666
EXTRACT: note_on channel=1 note=58 velocity=76 time=0.033571414583333334
EXTRACT: note_on channel=1 note=61 velocity=76 time=0
EXTRACT: note_on channel=0 note=78 velocity=0 time=0.13785708541666666
EXTRACT: note_on channel=0 note=80 velocity=76 time=0.033571414583333334
EXTRACT: note_on channel=1 note=58 velocity=0 time=0.13785708541666666
EXTRACT: note_on channel=1 note=61 velocity=0 time=0
EXTRACT: note_on channel=0 note=80 velocity=0 time=0.34285699999999997
EXTRACT: note_on channel=1 note=58 velocity=76 time=0.033571414583333334
EXTRACT: note_on channel=1 note=61 velocity=76 time=0
EXTRACT: note_on channel=0 note=71 velocity=76 time=0.17142849999999998
EXTRACT: note_on channel=1 note=58 velocity=0 time=0.13785708541666666
EXTRACT: note_on channel=1 note=61 velocity=0 time=0
EXTRACT: note_on channel=0 note=71 velocity=0 time=0.017142849999999998
EXTRACT: note_on channel=0 note=83 velocity=76 time=0.016428564583333333
EXTRACT: note_on channel=1 note=52 velocity=76 time=0
EXTRACT: note_on channel=0 note=83 velocity=0 time=0.3092855854166666
EXTRACT: note_on channel=1 note=52 velocity=0 time=0
EXTRACT: note_on channel=0 note=82 velocity=76 time=0.033571414583333334
EXTRACT: note_on channel=1 note=56 velocity=76 time=0
EXTRACT: note_on channel=1 note=59 velocity=76 time=0
EXTRACT: note_on channel=0 note=82 velocity=0 time=0.15499993541666665
EXTRACT: note_on channel=0 note=80 velocity=76 time=0.016428564583333333
EXTRACT: note_on channel=1 note=56 velocity=0 time=0.13785708541666666
EXTRACT: note_on channel=1 note=59 velocity=0 time=0
EXTRACT: note_on channel=0 note=80 velocity=0 time=0.18857134999999997
EXTRACT: note_on channel=0 note=78 velocity=76 time=0.016428564583333333
EXTRACT: note_on channel=1 note=56 velocity=76 time=0.17142849999999998
EXTRACT: note_on channel=1 note=59 velocity=76 time=0
EXTRACT: note_on channel=0 note=78 velocity=0 time=0.13785708541666666
EXTRACT: note_on channel=0 note=75 velocity=76 time=0.033571414583333334
EXTRACT: note_on channel=1 note=56 velocity=0 time=0.13785708541666666
EXTRACT: note_on channel=1 note=59 velocity=0 time=0
EXTRACT: note_on channel=1 note=52 velocity=76 time=0.033571414583333334
EXTRACT: note_on channel=0 note=75 velocity=0 time=0.15499993541666665
EXTRACT: note_on channel=0 note=73 velocity=76 time=0.016428564583333333
EXTRACT: note_on channel=1 note=52 velocity=0 time=0.13785708541666666
EXTRACT: note_on channel=1 note=56 velocity=76 time=0.033571414583333334
EXTRACT: note_on channel=1 note=59 velocity=76 time=0
EXTRACT: note_on channel=0 note=73 velocity=0 time=0.13785708541666666
EXTRACT: note_on channel=0 note=73 velocity=76 time=0.033571414583333334
EXTRACT: note_on channel=1 note=56 velocity=0 time=0.13785708541666666
EXTRACT: note_on channel=1 note=59 velocity=0 time=0
EXTRACT: note_on channel=0 note=73 velocity=0 time=0.34285699999999997
EXTRACT: note_on channel=0 note=71 velocity=76 time=0.033571414583333334
EXTRACT: note_on channel=1 note=56 velocity=76 time=0
EXTRACT: note_on channel=1 note=59 velocity=76 time=0
EXTRACT: note_on channel=0 note=71 velocity=0 time=0.15499993541666665
EXTRACT: note_on channel=0 note=73 velocity=76 time=0.016428564583333333
EXTRACT: note_on channel=1 note=56 velocity=0 time=0.13785708541666666
EXTRACT: note_on channel=1 note=59 velocity=0 time=0
EXTRACT: note_on channel=0 note=73 velocity=0 time=0.017142849999999998
EXTRACT: note_on channel=0 note=75 velocity=76 time=0.016428564583333333
EXTRACT: note_on channel=1 note=47 velocity=76 time=0
EXTRACT: note_on channel=0 note=75 velocity=0 time=0.3092855854166666
EXTRACT: note_on channel=1 note=47 velocity=0 time=0
EXTRACT: note_on channel=0 note=75 velocity=76 time=0.033571414583333334
EXTRACT: note_on channel=1 note=51 velocity=76 time=0
EXTRACT: note_on channel=1 note=54 velocity=76 time=0
EXTRACT: note_on channel=0 note=75 velocity=0 time=0.3092855854166666
EXTRACT: note_on channel=1 note=51 velocity=0 time=0
EXTRACT: note_on channel=1 note=54 velocity=0 time=0
EXTRACT: note_on channel=0 note=75 velocity=76 time=0.033571414583333334
EXTRACT: note_on channel=0 note=75 velocity=0 time=0.3092855854166666
EXTRACT: note_on channel=0 note=75 velocity=76 time=0.033571414583333334
EXTRACT: note_on channel=1 note=51 velocity=76 time=0
EXTRACT: note_on channel=1 note=54 velocity=76 time=0
EXTRACT: note_on channel=0 note=75 velocity=0 time=0.3092855854166666
EXTRACT: note_on channel=1 note=51 velocity=0 time=0
EXTRACT: note_on channel=1 note=54 velocity=0 time=0
EXTRACT: note_on channel=0 note=73 velocity=76 time=0.033571414583333334
EXTRACT: note_on channel=1 note=51 velocity=76 time=0
EXTRACT: note_on channel=0 note=73 velocity=0 time=0.3092855854166666
EXTRACT: note_on channel=1 note=51 velocity=0 time=0
EXTRACT: note_on channel=0 note=71 velocity=76 time=0.033571414583333334
EXTRACT: note_on channel=1 note=54 velocity=76 time=0
EXTRACT: note_on channel=1 note=58 velocity=76 time=0
EXTRACT: note_on channel=0 note=71 velocity=0 time=0.3092855854166666
EXTRACT: note_on channel=1 note=54 velocity=0 time=0
EXTRACT: note_on channel=1 note=58 velocity=0 time=0
EXTRACT: note_on channel=0 note=73 velocity=76 time=0.033571414583333334
EXTRACT: note_on channel=0 note=73 velocity=0 time=0.3092855854166666
EXTRACT: note_on channel=0 note=75 velocity=76 time=0.033571414583333334
EXTRACT: note_on channel=1 note=54 velocity=76 time=0
EXTRACT: note_on channel=1 note=58 velocity=76 time=0
EXTRACT: note_on channel=1 note=54 velocity=0 time=0.3092855854166666
EXTRACT: note_on channel=1 note=58 velocity=0 time=0
EXTRACT: note_on channel=1 note=52 velocity=76 time=0.033571414583333334
EXTRACT: note_on channel=0 note=75 velocity=0 time=0.15499993541666665
EXTRACT: note_on channel=0 note=71 velocity=76 time=0.016428564583333333
EXTRACT: note_on channel=1 note=52 velocity=0 time=0.13785708541666666
EXTRACT: note_on channel=0 note=71 velocity=0 time=0.017142849999999998
EXTRACT: note_on channel=0 note=68 velocity=76 time=0.016428564583333333
EXTRACT: note_on channel=1 note=56 velocity=76 time=0
EXTRACT: note_on channel=1 note=59 velocity=76 time=0
EXTRACT: note_on channel=0 note=68 velocity=0 time=0.3092855854166666
EXTRACT: note_on channel=1 note=56 velocity=0 time=0
EXTRACT: note_on channel=1 note=59 velocity=0 time=0
EXTRACT: note_on channel=1 note=56 velocity=76 time=0.3764284145833333
EXTRACT: note_on channel=1 note=59 velocity=76 time=0
EXTRACT: note_on channel=1 note=56 velocity=0 time=0.3092855854166666
EXTRACT: note_on channel=1 note=59 velocity=0 time=0
EXTRACT: note_on channel=0 note=68 velocity=76 time=0.033571414583333334
EXTRACT: note_on channel=0 note=76 velocity=76 time=0
EXTRACT: note_on channel=1 note=40 velocity=76 time=0
EXTRACT: note_on channel=1 note=52 velocity=76 time=0
EXTRACT: note_on channel=0 note=68 velocity=0 time=0.3092855854166666
EXTRACT: note_on channel=0 note=76 velocity=0 time=0
EXTRACT: note_on channel=1 note=40 velocity=0 time=0
EXTRACT: note_on channel=1 note=52 velocity=0 time=0
EXTRACT: note_on channel=0 note=66 velocity=76 time=0.033571414583333334
EXTRACT: note_on channel=0 note=75 velocity=76 time=0
EXTRACT: note_on channel=0 note=66 velocity=0 time=0.3092855854166666
EXTRACT: note_on channel=0 note=75 velocity=0 time=0
EXTRACT: note_on channel=0 note=64 velocity=76 time=0.033571414583333334
EXTRACT: note_on channel=0 note=73 velocity=76 time=0
EXTRACT: note_on channel=0 note=64 velocity=0 time=0.3092855854166666
EXTRACT: note_on channel=0 note=73 velocity=0 time=0
EXTRACT: note_on channel=0 note=63 velocity=76 time=0.033571414583333334
EXTRACT: note_on channel=0 note=71 velocity=76 time=0
EXTRACT: note_on channel=0 note=63 velocity=0 time=0.3092855854166666
EXTRACT: note_on channel=0 note=71 velocity=0 time=0
EXTRACT: note_on channel=1 note=35 velocity=76 time=0.033571414583333334
EXTRACT: note_on channel=1 note=47 velocity=76 time=0
EXTRACT: note_on channel=1 note=35 velocity=0 time=0.3092855854166666
EXTRACT: note_on channel=1 note=47 velocity=0 time=0
EXTRACT: note_on channel=0 note=71 velocity=76 time=0.033571414583333334
EXTRACT: note_on channel=0 note=80 velocity=76 time=0
EXTRACT: note_on channel=1 note=35 velocity=76 time=0
EXTRACT: note_on channel=1 note=47 velocity=76 time=0
EXTRACT: note_on channel=0 note=71 velocity=0 time=0.3092855854166666
EXTRACT: note_on channel=0 note=80 velocity=0 time=0
EXTRACT: note_on channel=1 note=35 velocity=0 time=0
EXTRACT: note_on channel=1 note=47 velocity=0 time=0
EXTRACT: note_on channel=0 note=70 velocity=76 time=0.033571414583333334
EXTRACT: note_on channel=0 note=78 velocity=76 time=0
EXTRACT: note_on channel=1 note=51 velocity=76 time=0
EXTRACT: note_on channel=1 note=54 velocity=76 time=0
EXTRACT: note_on channel=1 note=59 velocity=76 time=0
EXTRACT: note_on channel=0 note=70 velocity=0 time=0.3092855854166666
EXTRACT: note_on channel=0 note=78 velocity=0 time=0
EXTRACT: note_on channel=0 note=66 velocity=76 time=0.033571414583333334
EXTRACT: note_on channel=0 note=75 velocity=76 time=0
EXTRACT: note_on channel=1 note=51 velocity=0 time=0.11999995
EXTRACT: note_on channel=1 note=54 velocity=0 time=0
EXTRACT: note_on channel=1 note=59 velocity=0 time=0
EXTRACT: note_on channel=1 note=47 velocity=76 time=0.051428549999999996
EXTRACT: note_on channel=0 note=66 velocity=0 time=0.13785708541666666
EXTRACT: note_on channel=0 note=75 velocity=0 time=0
EXTRACT: note_on channel=1 note=47 velocity=0 time=0.017142849999999998
EXTRACT: note_on channel=1 note=42 velocity=76 time=0.016428564583333333
EXTRACT: note_on channel=1 note=54 velocity=76 time=0
EXTRACT: note_on channel=1 note=42 velocity=0 time=0.3092855854166666
EXTRACT: note_on channel=1 note=54 velocity=0 time=0
EXTRACT: note_on channel=0 note=71 velocity=76 time=0.033571414583333334
EXTRACT: note_on channel=0 note=80 velocity=76 time=0
EXTRACT: note_on channel=1 note=42 velocity=76 time=0
EXTRACT: note_on channel=1 note=54 velocity=76 time=0
EXTRACT: note_on channel=0 note=71 velocity=0 time=0.3092855854166666
EXTRACT: note_on channel=0 note=80 velocity=0 time=0
EXTRACT: note_on channel=1 note=42 velocity=0 time=0
EXTRACT: note_on channel=1 note=54 velocity=0 time=0
EXTRACT: note_on channel=0 note=70 velocity=76 time=0.033571414583333334
EXTRACT: note_on channel=0 note=78 velocity=76 time=0
EXTRACT: note_on channel=1 note=54 velocity=76 time=0
EXTRACT: note_on channel=1 note=58 velocity=76 time=0
EXTRACT: note_on channel=1 note=61 velocity=76 time=0
EXTRACT: note_on channel=0 note=70 velocity=0 time=0.3092855854166666
EXTRACT: note_on channel=0 note=78 velocity=0 time=0
EXTRACT: note_on channel=0 note=66 velocity=76 time=0.033571414583333334
EXTRACT: note_on channel=0 note=75 velocity=76 time=0
EXTRACT: note_on channel=1 note=54 velocity=0 time=0.11999995
EXTRACT: note_on channel=1 note=58 velocity=0 time=0
EXTRACT: note_on channel=1 note=61 velocity=0 time=0
EXTRACT: note_on channel=1 note=42 velocity=76 time=0.051428549999999996
EXTRACT: note_on channel=1 note=54 velocity=76 time=0
EXTRACT: note_on channel=0 note=66 velocity=0 time=0.13785708541666666
EXTRACT: note_on channel=0 note=75 velocity=0 time=0
EXTRACT: note_on channel=1 note=42 velocity=0 time=0.017142849999999998
EXTRACT: note_on channel=1 note=54 velocity=0 time=0
EXTRACT: note_on channel=0 note=68 velocity=76 time=0.016428564583333333
EXTRACT: note_on channel=0 note=76 velocity=76 time=0
EXTRACT: note_on channel=1 note=40 velocity=76 time=0
EXTRACT: note_on channel=1 note=52 velocity=76 time=0
EXTRACT: note_on channel=0 note=68 velocity=0 time=0.3092855854166666
EXTRACT: note_on channel=0 note=76 velocity=0 time=0
EXTRACT: note_on channel=1 note=40 velocity=0 time=0
EXTRACT: note_on channel=1 note=52 velocity=0 time=0
EXTRACT: note_on channel=0 note=66 velocity=76 time=0.033571414583333334
EXTRACT: note_on channel=0 note=75 velocity=76 time=0
EXTRACT: note_on channel=1 note=40 velocity=76 time=0
EXTRACT: note_on channel=1 note=52 velocity=76 time=0
EXTRACT: note_on channel=0 note=66 velocity=0 time=0.3092855854166666
EXTRACT: note_on channel=0 note=75 velocity=0 time=0
EXTRACT: note_on channel=1 note=40 velocity=0 time=0
EXTRACT: note_on channel=1 note=52 velocity=0 time=0
EXTRACT: note_on channel=0 note=64 velocity=76 time=0.033571414583333334
EXTRACT: note_on channel=0 note=71 velocity=76 time=0
EXTRACT: note_on channel=1 note=52 velocity=76 time=0
EXTRACT: note_on channel=1 note=56 velocity=76 time=0
EXTRACT: note_on channel=1 note=59 velocity=76 time=0
EXTRACT: note_on channel=1 note=52 velocity=0 time=0.46285694999999993
EXTRACT: note_on channel=1 note=56 velocity=0 time=0
EXTRACT: note_on channel=1 note=59 velocity=0 time=0
EXTRACT: note_on channel=1 note=47 velocity=76 time=0.051428549999999996
EXTRACT: note_on channel=0 note=64 velocity=0 time=0.10428567083333333
EXTRACT: note_on channel=0 note=71 velocity=0 time=0
EXTRACT: note_on channel=1 note=47 velocity=0 time=0.05071426458333333
EXTRACT: note_on channel=0 note=68 velocity=76 time=0.016428564583333333
EXTRACT: note_on channel=0 note=76 velocity=76 time=0
EXTRACT: note_on channel=1 note=40 velocity=76 time=0
EXTRACT: note_on channel=1 note=52 velocity=76 time=0
EXTRACT: note_on channel=0 note=68 velocity=0 time=0.3092855854166666
EXTRACT: note_on channel=0 note=76 velocity=0 time=0
EXTRACT: note_on channel=1 note=40 velocity=0 time=0
EXTRACT: note_on channel=1 note=52 velocity=0 time=0
EXTRACT: note_on channel=0 note=66 velocity=76 time=0.033571414583333334
EXTRACT: note_on channel=0 note=75 velocity=76 time=0
EXTRACT: note_on channel=1 note=40 velocity=76 time=0
EXTRACT: note_on channel=1 note=52 velocity=76 time=0
EXTRACT: note_on channel=0 note=66 velocity=0 time=0.3092855854166666
EXTRACT: note_on channel=0 note=75 velocity=0 time=0
EXTRACT: note_on channel=1 note=40 velocity=0 time=0
EXTRACT: note_on channel=1 note=52 velocity=0 time=0
EXTRACT: note_on channel=0 note=64 velocity=76 time=0.033571414583333334
EXTRACT: note_on channel=0 note=73 velocity=76 time=0
EXTRACT: note_on channel=1 note=39 velocity=76 time=0
EXTRACT: note_on channel=1 note=51 velocity=76 time=0
EXTRACT: note_on channel=0 note=64 velocity=0 time=0.3092855854166666
EXTRACT: note_on channel=0 note=73 velocity=0 time=0
EXTRACT: note_on channel=1 note=39 velocity=0 time=0
EXTRACT: note_on channel=1 note=51 velocity=0 time=0
EXTRACT: note_on channel=0 note=63 velocity=76 time=0.033571414583333334
EXTRACT: note_on channel=0 note=71 velocity=76 time=0
EXTRACT: note_on channel=1 note=37 velocity=76 time=0
EXTRACT: note_on channel=1 note=49 velocity=76 time=0
EXTRACT: note_on channel=0 note=63 velocity=0 time=0.3092855854166666
EXTRACT: note_on channel=0 note=71 velocity=0 time=0
EXTRACT: note_on channel=1 note=37 velocity=0 time=0
EXTRACT: note_on channel=1 note=49 velocity=0 time=0
EXTRACT: note_on channel=1 note=35 velocity=76 time=0.033571414583333334
EXTRACT: note_on channel=1 note=47 velocity=76 time=0
EXTRACT: note_on channel=1 note=35 velocity=0 time=0.3092855854166666
EXTRACT: note_on channel=1 note=47 velocity=0 time=0
EXTRACT: note_on channel=0 note=71 velocity=76 time=0.033571414583333334
EXTRACT: note_on channel=0 note=80 velocity=76 time=0
EXTRACT: note_on channel=1 note=35 velocity=76 time=0
EXTRACT: note_on channel=1 note=47 velocity=76 time=0
EXTRACT: note_on channel=0 note=71 velocity=0 time=0.3092855854166666
EXTRACT: note_on channel=0 note=80 velocity=0 time=0
EXTRACT: note_on channel=1 note=35 velocity=0 time=0
EXTRACT: note_on channel=1 note=47 velocity=0 time=0
EXTRACT: note_on channel=0 note=70 velocity=76 time=0.033571414583333334
EXTRACT: note_on channel=0 note=78 velocity=76 time=0
EXTRACT: note_on channel=1 note=51 velocity=76 time=0
EXTRACT: note_on channel=1 note=54 velocity=76 time=0
EXTRACT: note_on channel=1 note=59 velocity=76 time=0
EXTRACT: note_on channel=0 note=70 velocity=0 time=0.3092855854166666
EXTRACT: note_on channel=0 note=78 velocity=0 time=0
EXTRACT: note_on channel=0 note=66 velocity=76 time=0.033571414583333334
EXTRACT: note_on channel=0 note=75 velocity=76 time=0
EXTRACT: note_on channel=1 note=51 velocity=0 time=0.11999995
EXTRACT: note_on channel=1 note=54 velocity=0 time=0
EXTRACT: note_on channel=1 note=59 velocity=0 time=0
EXTRACT: note_on channel=1 note=47 velocity=76 time=0.051428549999999996
EXTRACT: note_on channel=0 note=66 velocity=0 time=0.13785708541666666
EXTRACT: note_on channel=0 note=75 velocity=0 time=0
EXTRACT: note_on channel=1 note=47 velocity=0 time=0.017142849999999998
EXTRACT: note_on channel=1 note=42 velocity=76 time=0.016428564583333333
EXTRACT: note_on channel=1 note=54 velocity=76 time=0
EXTRACT: note_on channel=1 note=42 velocity=0 time=0.3092855854166666
EXTRACT: note_on channel=1 note=54 velocity=0 time=0
EXTRACT: note_on channel=0 note=71 velocity=76 time=0.033571414583333334
EXTRACT: note_on channel=0 note=80 velocity=76 time=0
EXTRACT: note_on channel=1 note=42 velocity=76 time=0
EXTRACT: note_on channel=1 note=54 velocity=76 time=0
EXTRACT: note_on channel=0 note=71 velocity=0 time=0.3092855854166666
EXTRACT: note_on channel=0 note=80 velocity=0 time=0
EXTRACT: note_on channel=1 note=42 velocity=0 time=0
EXTRACT: note_on channel=1 note=54 velocity=0 time=0
EXTRACT: note_on channel=0 note=70 velocity=76 time=0.033571414583333334
EXTRACT: note_on channel=0 note=78 velocity=76 time=0
EXTRACT: note_on channel=1 note=54 velocity=76 time=0
EXTRACT: note_on channel=1 note=58 velocity=76 time=0
EXTRACT: note_on channel=1 note=61 velocity=76 time=0
EXTRACT: note_on channel=0 note=70 velocity=0 time=0.3092855854166666
EXTRACT: note_on channel=0 note=78 velocity=0 time=0
EXTRACT: note_on channel=0 note=66 velocity=76 time=0.033571414583333334
EXTRACT: note_on channel=0 note=75 velocity=76 time=0
EXTRACT: note_on channel=1 note=54 velocity=0 time=0.11999995
EXTRACT: note_on channel=1 note=58 velocity=0 time=0
EXTRACT: note_on channel=1 note=61 velocity=0 time=0
EXTRACT: note_on channel=1 note=42 velocity=76 time=0.051428549999999996
EXTRACT: note_on channel=1 note=54 velocity=76 time=0
EXTRACT: note_on channel=0 note=66 velocity=0 time=0.13785708541666666
EXTRACT: note_on channel=0 note=75 velocity=0 time=0
EXTRACT: note_on channel=1 note=42 velocity=0 time=0.017142849999999998
EXTRACT: note_on channel=1 note=54 velocity=0 time=0
EXTRACT: note_on channel=0 note=68 velocity=76 time=0.016428564583333333
EXTRACT: note_on channel=0 note=76 velocity=76 time=0
EXTRACT: note_on channel=1 note=40 velocity=76 time=0
EXTRACT: note_on channel=1 note=52 velocity=76 time=0
EXTRACT: note_on channel=0 note=68 velocity=0 time=0.3092855854166666
EXTRACT: note_on channel=0 note=76 velocity=0 time=0
EXTRACT: note_on channel=1 note=40 velocity=0 time=0
EXTRACT: note_on channel=1 note=52 velocity=0 time=0
EXTRACT: note_on channel=0 note=66 velocity=76 time=0.033571414583333334
EXTRACT: note_on channel=0 note=75 velocity=76 time=0
EXTRACT: note_on channel=1 note=40 velocity=76 time=0
EXTRACT: note_on channel=1 note=52 velocity=76 time=0
EXTRACT: note_on channel=0 note=66 velocity=0 time=0.3092855854166666
EXTRACT: note_on channel=0 note=75 velocity=0 time=0
EXTRACT: note_on channel=1 note=40 velocity=0 time=0
EXTRACT: note_on channel=1 note=52 velocity=0 time=0
EXTRACT: note_on channel=0 note=64 velocity=76 time=0.033571414583333334
EXTRACT: note_on channel=0 note=71 velocity=76 time=0
EXTRACT: note_on channel=1 note=52 velocity=76 time=0
EXTRACT: note_on channel=1 note=56 velocity=76 time=0
EXTRACT: note_on channel=1 note=59 velocity=76 time=0
EXTRACT: note_on channel=1 note=52 velocity=0 time=0.46285694999999993
EXTRACT: note_on channel=1 note=56 velocity=0 time=0
EXTRACT: note_on channel=1 note=59 velocity=0 time=0
EXTRACT: note_on channel=1 note=47 velocity=76 time=0.051428549999999996
EXTRACT: note_on channel=0 note=64 velocity=0 time=0.10428567083333333
EXTRACT: note_on channel=0 note=71 velocity=0 time=0
EXTRACT: note_on channel=1 note=47 velocity=0 time=0.05071426458333333
EXTRACT: note_on channel=0 note=68 velocity=76 time=0.016428564583333333
EXTRACT: note_on channel=0 note=76 velocity=76 time=0
EXTRACT: note_on channel=1 note=40 velocity=76 time=0
EXTRACT: note_on channel=1 note=52 velocity=76 time=0
EXTRACT: note_on channel=0 note=68 velocity=0 time=0.3092855854166666
EXTRACT: note_on channel=0 note=76 velocity=0 time=0
EXTRACT: note_on channel=1 note=40 velocity=0 time=0
EXTRACT: note_on channel=1 note=52 velocity=0 time=0
EXTRACT: note_on channel=0 note=66 velocity=76 time=0.033571414583333334
EXTRACT: note_on channel=0 note=75 velocity=76 time=0
EXTRACT: note_on channel=1 note=39 velocity=76 time=0
EXTRACT: note_on channel=1 note=51 velocity=76 time=0
EXTRACT: note_on channel=0 note=66 velocity=0 time=0.3092855854166666
EXTRACT: note_on channel=0 note=75 velocity=0 time=0
EXTRACT: note_on channel=1 note=39 velocity=0 time=0
EXTRACT: note_on channel=1 note=51 velocity=0 time=0
EXTRACT: note_on channel=0 note=64 velocity=76 time=0.033571414583333334
EXTRACT: note_on channel=0 note=73 velocity=76 time=0
EXTRACT: note_on channel=1 note=37 velocity=76 time=0
EXTRACT: note_on channel=1 note=49 velocity=76 time=0
EXTRACT: note_on channel=0 note=64 velocity=0 time=0.3092855854166666
EXTRACT: note_on channel=0 note=73 velocity=0 time=0
EXTRACT: note_on channel=1 note=37 velocity=0 time=0
EXTRACT: note_on channel=1 note=49 velocity=0 time=0
EXTRACT: note_on channel=0 note=63 velocity=76 time=0.033571414583333334
EXTRACT: note_on channel=0 note=71 velocity=76 time=0
EXTRACT: note_on channel=1 note=35 velocity=76 time=0
EXTRACT: note_on channel=1 note=47 velocity=76 time=0
EXTRACT: note_on channel=0 note=63 velocity=0 time=1.6471421708333331
EXTRACT: note_on channel=0 note=71 velocity=0 time=0
EXTRACT: note_on channel=1 note=35 velocity=0 time=0
EXTRACT: note_on channel=1 note=47 velocity=0 time=0
INTERVALS001 - Bruno Mars - The Lazy Song.mid
unison415 4 158 67 55 103 0 199 106 250 41 10
