EXTRACT: control_change channel=0 control=101 value=0 time=0
EXTRACT: control_change channel=0 control=100 value=0 time=0
EXTRACT: control_change channel=0 control=6 value=12 time=0
EXTRACT: control_change channel=0 control=38 value=0 time=0
EXTRACT: control_change channel=1 control=101 value=0 time=0
EXTRACT: control_change channel=1 control=100 value=0 time=0
EXTRACT: control_change channel=1 control=6 value=12 time=0
EXTRACT: control_change channel=1 control=38 value=0 time=0
EXTRACT: control_change channel=2 control=101 value=0 time=0
EXTRACT: control_change channel=2 control=100 value=0 time=0
EXTRACT: control_change channel=2 control=6 value=12 time=0
EXTRACT: control_change channel=2 control=38 value=0 time=0
EXTRACT: control_change channel=3 control=101 value=0 time=0
EXTRACT: control_change channel=3 control=100 value=0 time=0
EXTRACT: control_change channel=3 control=6 value=12 time=0
EXTRACT: control_change channel=3 control=38 value=0 time=0
EXTRACT: control_change channel=4 control=101 value=0 time=0
EXTRACT: control_change channel=4 control=100 value=0 time=0
EXTRACT: control_change channel=4 control=6 value=12 time=0
EXTRACT: control_change channel=4 control=38 value=0 time=0
EXTRACT: control_change channel=5 control=101 value=0 time=0
EXTRACT: control_change channel=5 control=100 value=0 time=0
EXTRACT: control_change channel=5 control=6 value=12 time=0
EXTRACT: control_change channel=5 control=38 value=0 time=0
EXTRACT: control_change channel=6 control=101 value=0 time=0
EXTRACT: control_change channel=6 control=100 value=0 time=0
EXTRACT: control_change channel=6 control=6 value=12 time=0
EXTRACT: control_change channel=6 control=38 value=0 time=0
EXTRACT: control_change channel=7 control=101 value=0 time=0
EXTRACT: control_change channel=7 control=100 value=0 time=0
EXTRACT: control_change channel=7 control=6 value=12 time=0
EXTRACT: control_change channel=7 control=38 value=0 time=0
EXTRACT: control_change channel=8 control=101 value=0 time=0
EXTRACT: control_change channel=8 control=100 value=0 time=0
EXTRACT: control_change channel=8 control=6 value=12 time=0
EXTRACT: control_change channel=8 control=38 value=0 time=0
EXTRACT: control_change channel=9 control=101 value=0 time=0
EXTRACT: control_change channel=9 control=100 value=0 time=0
EXTRACT: control_change channel=9 control=6 value=12 time=0
EXTRACT: control_change channel=9 control=38 value=0 time=0
EXTRACT: control_change channel=10 control=101 value=0 time=0
EXTRACT: control_change channel=10 control=100 value=0 time=0
EXTRACT: control_change channel=10 control=6 value=12 time=0
EXTRACT: control_change channel=10 control=38 value=0 time=0
EXTRACT: control_change channel=11 control=101 value=0 time=0
EXTRACT: control_change channel=11 control=100 value=0 time=0
EXTRACT: control_change channel=11 control=6 value=12 time=0
EXTRACT: control_change channel=11 control=38 value=0 time=0
EXTRACT: control_change channel=12 control=101 value=0 time=0
EXTRACT: control_change channel=12 control=100 value=0 time=0
EXTRACT: control_change channel=12 control=6 value=12 time=0
EXTRACT: control_change channel=12 control=38 value=0 time=0
EXTRACT: control_change channel=13 control=101 value=0 time=0
EXTRACT: control_change channel=13 control=100 value=0 time=0
EXTRACT: control_change channel=13 control=6 value=12 time=0
EXTRACT: control_change channel=13 control=38 value=0 time=0
EXTRACT: control_change channel=14 control=101 value=0 time=0
EXTRACT: control_change channel=14 control=100 value=0 time=0
EXTRACT: control_change channel=14 control=6 value=12 time=0
EXTRACT: control_change channel=14 control=38 value=0 time=0
EXTRACT: control_change channel=15 control=101 value=0 time=0
EXTRACT: control_change channel=15 control=100 value=0 time=0
EXTRACT: control_change channel=15 control=6 value=12 time=0
EXTRACT: control_change channel=15 control=38 value=0 time=0
EXTRACT: pitchwheel channel=0 pitch=0 time=0
EXTRACT: control_change channel=0 control=7 value=127 time=0
EXTRACT: control_change channel=0 control=10 value=79 time=0
EXTRACT: control_change channel=0 control=93 value=0 time=0
EXTRACT: control_change channel=0 control=91 value=0 time=0
EXTRACT: control_change channel=0 control=95 value=0 time=0
EXTRACT: control_change channel=0 control=92 value=0 time=0
EXTRACT: control_change channel=0 control=11 value=127 time=0
EXTRACT: program_change channel=0 program=0 time=0
EXTRACT: note_on channel=0 note=71 velocity=47 time=0
EXTRACT: note_on channel=0 note=64 velocity=47 time=0
EXTRACT: pitchwheel channel=8 pitch=0 time=0
EXTRACT: control_change channel=8 control=7 value=127 time=0
EXTRACT: control_change channel=8 control=10 value=55 time=0
EXTRACT: control_change channel=8 control=93 value=0 time=0
EXTRACT: control_change channel=8 control=91 value=0 time=0
EXTRACT: control_change channel=8 control=95 value=0 time=0
EXTRACT: control_change channel=8 control=92 value=0 time=0
EXTRACT: control_change channel=8 control=11 value=127 time=0
EXTRACT: program_change channel=8 program=0 time=0
EXTRACT: control_change channel=10 control=7 value=127 time=0
EXTRACT: control_change channel=10 control=10 value=55 time=0
EXTRACT: control_change channel=10 control=93 value=0 time=0
EXTRACT: control_change channel=10 control=91 value=0 time=0
EXTRACT: control_change channel=10 control=95 value=0 time=0
EXTRACT: control_change channel=10 control=92 value=0 time=0
EXTRACT: control_change channel=10 control=11 value=127 time=0
EXTRACT: program_change channel=10 program=0 time=0
EXTRACT: note_on channel=8 note=40 velocity=95 time=0
EXTRACT: note_on channel=8 note=28 velocity=95 time=0
EXTRACT: pitchwheel channel=11 pitch=0 time=0
EXTRACT: control_change channel=11 control=7 value=127 time=0
EXTRACT: control_change channel=11 control=10 value=63 time=0
EXTRACT: control_change channel=11 control=93 value=0 time=0
EXTRACT: control_change channel=11 control=91 value=0 time=0
EXTRACT: control_change channel=11 control=95 value=0 time=0
EXTRACT: control_change channel=11 control=92 value=0 time=0
EXTRACT: control_change channel=11 control=11 value=127 time=0
EXTRACT: program_change channel=11 program=72 time=0
EXTRACT: control_change channel=12 control=7 value=127 time=0
EXTRACT: control_change channel=12 control=10 value=63 time=0
EXTRACT: control_change channel=12 control=93 value=0 time=0
EXTRACT: control_change channel=12 control=91 value=0 time=0
EXTRACT: control_change channel=12 control=95 value=0 time=0
EXTRACT: control_change channel=12 control=92 value=0 time=0
EXTRACT: control_change channel=12 control=11 value=127 time=0
EXTRACT: program_change channel=12 program=72 time=0
EXTRACT: pitchwheel channel=5 pitch=0 time=0
EXTRACT: control_change channel=5 control=7 value=119 time=0
EXTRACT: control_change channel=5 control=10 value=23 time=0
EXTRACT: control_change channel=5 control=93 value=0 time=0
EXTRACT: control_change channel=5 control=91 value=0 time=0
EXTRACT: control_change channel=5 control=95 value=0 time=0
EXTRACT: control_change channel=5 control=92 value=0 time=0
EXTRACT: control_change channel=5 control=11 value=127 time=0
EXTRACT: program_change channel=5 program=34 time=0
EXTRACT: control_change channel=6 control=7 value=119 time=0
EXTRACT: control_change channel=6 control=10 value=23 time=0
EXTRACT: control_change channel=6 control=93 value=0 time=0
EXTRACT: control_change channel=6 control=91 value=0 time=0
EXTRACT: control_change channel=6 control=95 value=0 time=0
EXTRACT: control_change channel=6 control=92 value=0 time=0
EXTRACT: control_change channel=6 control=11 value=127 time=0
EXTRACT: program_change channel=6 program=34 time=0
EXTRACT: note_on channel=5 note=28 velocity=95 time=0
EXTRACT: pitchwheel channel=7 pitch=0 time=0
EXTRACT: control_change channel=7 control=7 value=103 time=0
EXTRACT: control_change channel=7 control=10 value=63 time=0
EXTRACT: control_change channel=7 control=93 value=71 time=0
EXTRACT: control_change channel=7 control=91 value=71 time=0
EXTRACT: control_change channel=7 control=95 value=0 time=0
EXTRACT: control_change channel=7 control=92 value=0 time=0
EXTRACT: control_change channel=7 control=11 value=127 time=0
EXTRACT: program_change channel=7 program=30 time=0
EXTRACT: pitchwheel channel=13 pitch=0 time=0
EXTRACT: control_change channel=13 control=7 value=103 time=0
EXTRACT: control_change channel=13 control=10 value=63 time=0
EXTRACT: control_change channel=13 control=93 value=71 time=0
EXTRACT: control_change channel=13 control=91 value=71 time=0
EXTRACT: control_change channel=13 control=95 value=0 time=0
EXTRACT: control_change channel=13 control=92 value=0 time=0
EXTRACT: control_change channel=13 control=11 value=127 time=0
EXTRACT: program_change channel=13 program=30 time=0
EXTRACT: control_change channel=14 control=7 value=103 time=0
EXTRACT: control_change channel=14 control=10 value=63 time=0
EXTRACT: control_change channel=14 control=93 value=71 time=0
EXTRACT: control_change channel=14 control=91 value=71 time=0
EXTRACT: control_change channel=14 control=95 value=0 time=0
EXTRACT: control_change channel=14 control=92 value=0 time=0
EXTRACT: control_change channel=14 control=11 value=127 time=0
EXTRACT: program_change channel=14 program=30 time=0
EXTRACT: pitchwheel channel=9 pitch=0 time=0
EXTRACT: control_change channel=9 control=7 value=127 time=0
EXTRACT: control_change channel=9 control=10 value=63 time=0
EXTRACT: control_change channel=9 control=93 value=0 time=0
EXTRACT: control_change channel=9 control=91 value=0 time=0
EXTRACT: control_change channel=9 control=95 value=0 time=0
EXTRACT: control_change channel=9 control=92 value=0 time=0
EXTRACT: control_change channel=9 control=11 value=127 time=0
EXTRACT: program_change channel=9 program=0 time=0
EXTRACT: note_off channel=0 note=71 velocity=47 time=0.2608695
EXTRACT: note_off channel=0 note=64 velocity=47 time=0
EXTRACT: note_on channel=0 note=59 velocity=95 time=0
EXTRACT: note_off channel=0 note=59 velocity=95 time=0.2608695
EXTRACT: note_on channel=0 note=71 velocity=47 time=0
EXTRACT: note_on channel=0 note=64 velocity=63 time=0
EXTRACT: note_off channel=0 note=71 velocity=47 time=0.2608695
EXTRACT: note_off channel=0 note=64 velocity=63 time=0
EXTRACT: note_on channel=0 note=59 velocity=95 time=0
EXTRACT: note_off channel=0 note=59 velocity=95 time=0.2608695
EXTRACT: note_on channel=0 note=71 velocity=47 time=0
EXTRACT: note_on channel=0 note=64 velocity=63 time=0
EXTRACT: note_off channel=0 note=71 velocity=47 time=0.2608695
EXTRACT: note_off channel=0 note=64 velocity=63 time=0
EXTRACT: note_on channel=0 note=59 velocity=95 time=0
EXTRACT: note_off channel=8 note=40 velocity=95 time=0
EXTRACT: note_off channel=8 note=28 velocity=95 time=0
EXTRACT: note_on channel=8 note=30 velocity=95 time=0
EXTRACT: note_off channel=5 note=28 velocity=95 time=0
EXTRACT: note_on channel=5 note=30 velocity=95 time=0
EXTRACT: note_off channel=0 note=59 velocity=95 time=0.2608695
EXTRACT: note_on channel=0 note=71 velocity=47 time=0
EXTRACT: note_on channel=0 note=64 velocity=63 time=0
EXTRACT: note_off channel=8 note=30 velocity=95 time=0
EXTRACT: note_on channel=8 note=32 velocity=95 time=0
EXTRACT: note_off channel=5 note=30 velocity=95 time=0
EXTRACT: note_on channel=5 note=32 velocity=95 time=0
EXTRACT: note_off channel=0 note=71 velocity=47 time=0.2608695
EXTRACT: note_off channel=0 note=64 velocity=63 time=0
EXTRACT: note_on channel=0 note=59 velocity=95 time=0
EXTRACT: note_off channel=8 note=32 velocity=95 time=0
EXTRACT: note_on channel=8 note=47 velocity=95 time=0
EXTRACT: note_on channel=8 note=35 velocity=95 time=0
EXTRACT: note_off channel=5 note=32 velocity=95 time=0
EXTRACT: note_on channel=5 note=35 velocity=95 time=0
EXTRACT: note_off channel=0 note=59 velocity=95 time=0.2608695
EXTRACT: note_on channel=0 note=71 velocity=47 time=0
EXTRACT: note_on channel=0 note=66 velocity=47 time=0
EXTRACT: note_off channel=0 note=71 velocity=47 time=0.2608695
EXTRACT: note_off channel=0 note=66 velocity=47 time=0
EXTRACT: note_on channel=0 note=59 velocity=95 time=0
EXTRACT: note_off channel=0 note=59 velocity=95 time=0.2608695
EXTRACT: note_on channel=0 note=71 velocity=47 time=0
EXTRACT: note_on channel=0 note=66 velocity=47 time=0
EXTRACT: note_off channel=0 note=71 velocity=47 time=0.2608695
EXTRACT: note_off channel=0 note=66 velocity=47 time=0
EXTRACT: note_on channel=0 note=59 velocity=95 time=0
EXTRACT: note_off channel=0 note=59 velocity=95 time=0.2608695
EXTRACT: note_on channel=0 note=71 velocity=63 time=0
EXTRACT: note_on channel=0 note=66 velocity=47 time=0
EXTRACT: note_off channel=0 note=71 velocity=63 time=0.2608695
EXTRACT: note_off channel=0 note=66 velocity=47 time=0
EXTRACT: note_on channel=0 note=59 velocity=95 time=0
EXTRACT: note_off channel=8 note=47 velocity=95 time=0
EXTRACT: note_off channel=8 note=35 velocity=95 time=0
EXTRACT: note_on channel=8 note=37 velocity=95 time=0
EXTRACT: note_off channel=5 note=35 velocity=95 time=0
EXTRACT: note_on channel=5 note=37 velocity=95 time=0
EXTRACT: note_off channel=0 note=59 velocity=95 time=0.2608695
EXTRACT: note_on channel=0 note=71 velocity=47 time=0
EXTRACT: note_on channel=0 note=66 velocity=47 time=0
EXTRACT: note_off channel=8 note=37 velocity=95 time=0
EXTRACT: note_on channel=8 note=39 velocity=95 time=0
EXTRACT: note_off channel=5 note=37 velocity=95 time=0
EXTRACT: note_on channel=5 note=39 velocity=95 time=0
EXTRACT: note_off channel=0 note=71 velocity=47 time=0.2608695
EXTRACT: note_off channel=0 note=66 velocity=47 time=0
EXTRACT: note_on channel=0 note=59 velocity=95 time=0
EXTRACT: note_off channel=8 note=39 velocity=95 time=0
EXTRACT: note_on channel=8 note=37 velocity=95 time=0
EXTRACT: note_off channel=5 note=39 velocity=95 time=0
EXTRACT: note_on channel=5 note=37 velocity=95 time=0
EXTRACT: note_off channel=0 note=59 velocity=95 time=0.2608695
EXTRACT: note_on channel=0 note=71 velocity=63 time=0
EXTRACT: note_on channel=0 note=64 velocity=47 time=0
EXTRACT: note_off channel=0 note=71 velocity=63 time=0.2608695
EXTRACT: note_off channel=0 note=64 velocity=47 time=0
EXTRACT: note_on channel=0 note=59 velocity=47 time=0
EXTRACT: note_off channel=0 note=59 velocity=47 time=0.2608695
EXTRACT: note_on channel=0 note=71 velocity=63 time=0
EXTRACT: note_on channel=0 note=64 velocity=63 time=0
EXTRACT: note_off channel=0 note=71 velocity=63 time=0.2608695
EXTRACT: note_off channel=0 note=64 velocity=63 time=0
EXTRACT: note_on channel=0 note=59 velocity=47 time=0
EXTRACT: note_off channel=0 note=59 velocity=47 time=0.2608695
EXTRACT: note_on channel=0 note=71 velocity=63 time=0
EXTRACT: note_on channel=0 note=64 velocity=63 time=0
EXTRACT: note_off channel=0 note=71 velocity=63 time=0.2608695
EXTRACT: note_off channel=0 note=64 velocity=63 time=0
EXTRACT: note_on channel=0 note=59 velocity=47 time=0
EXTRACT: note_off channel=8 note=37 velocity=95 time=0
EXTRACT: note_on channel=8 note=39 velocity=95 time=0
EXTRACT: note_off channel=5 note=37 velocity=95 time=0
EXTRACT: note_on channel=5 note=39 velocity=95 time=0
EXTRACT: note_off channel=0 note=59 velocity=47 time=0.2608695
EXTRACT: note_on channel=0 note=71 velocity=63 time=0
EXTRACT: note_on channel=0 note=64 velocity=47 time=0
EXTRACT: note_off channel=8 note=39 velocity=95 time=0
EXTRACT: note_on channel=8 note=40 velocity=95 time=0
EXTRACT: note_off channel=5 note=39 velocity=95 time=0
EXTRACT: note_on channel=5 note=40 velocity=95 time=0
EXTRACT: note_off channel=0 note=71 velocity=63 time=0.2608695
EXTRACT: note_off channel=0 note=64 velocity=47 time=0
EXTRACT: note_on channel=0 note=59 velocity=47 time=0
EXTRACT: note_off channel=8 note=40 velocity=95 time=0
EXTRACT: note_on channel=8 note=33 velocity=95 time=0
EXTRACT: note_off channel=5 note=40 velocity=95 time=0
EXTRACT: note_on channel=5 note=33 velocity=95 time=0
EXTRACT: note_off channel=0 note=59 velocity=47 time=0.2608695
EXTRACT: note_on channel=0 note=69 velocity=47 time=0
EXTRACT: note_on channel=0 note=61 velocity=47 time=0
EXTRACT: note_off channel=0 note=69 velocity=47 time=0.2608695
EXTRACT: note_off channel=0 note=61 velocity=47 time=0
EXTRACT: note_on channel=0 note=57 velocity=47 time=0
EXTRACT: note_off channel=0 note=57 velocity=47 time=0.2608695
EXTRACT: note_on channel=0 note=69 velocity=63 time=0
EXTRACT: note_on channel=0 note=61 velocity=63 time=0
EXTRACT: note_off channel=0 note=69 velocity=63 time=0.2608695
EXTRACT: note_off channel=0 note=61 velocity=63 time=0
EXTRACT: note_on channel=0 note=57 velocity=47 time=0
EXTRACT: note_off channel=0 note=57 velocity=47 time=0.2608695
EXTRACT: note_on channel=0 note=69 velocity=63 time=0
EXTRACT: note_on channel=0 note=61 velocity=47 time=0
EXTRACT: note_off channel=0 note=69 velocity=63 time=0.2608695
EXTRACT: note_off channel=0 note=61 velocity=47 time=0
EXTRACT: note_on channel=0 note=57 velocity=63 time=0
EXTRACT: note_off channel=8 note=33 velocity=95 time=0
EXTRACT: note_on channel=8 note=39 velocity=95 time=0
EXTRACT: note_off channel=5 note=33 velocity=95 time=0
EXTRACT: note_on channel=5 note=39 velocity=95 time=0
EXTRACT: note_off channel=0 note=57 velocity=63 time=0.2608695
EXTRACT: note_on channel=0 note=69 velocity=63 time=0
EXTRACT: note_on channel=0 note=61 velocity=47 time=0
EXTRACT: note_off channel=8 note=39 velocity=95 time=0
EXTRACT: note_on channel=8 note=40 velocity=95 time=0
EXTRACT: note_off channel=5 note=39 velocity=95 time=0
EXTRACT: note_on channel=5 note=40 velocity=95 time=0
EXTRACT: note_off channel=0 note=69 velocity=63 time=0.2608695
EXTRACT: note_off channel=0 note=61 velocity=47 time=0
EXTRACT: note_on channel=0 note=57 velocity=47 time=0
EXTRACT: note_off channel=8 note=40 velocity=95 time=0
EXTRACT: note_on channel=8 note=28 velocity=95 time=0
EXTRACT: note_off channel=5 note=40 velocity=95 time=0
EXTRACT: note_on channel=5 note=28 velocity=95 time=0
EXTRACT: note_off channel=0 note=57 velocity=47 time=0.2608695
EXTRACT: note_on channel=0 note=71 velocity=47 time=0
EXTRACT: note_on channel=0 note=64 velocity=47 time=0
EXTRACT: note_off channel=0 note=71 velocity=47 time=0.2608695
EXTRACT: note_off channel=0 note=64 velocity=47 time=0
EXTRACT: note_on channel=0 note=59 velocity=95 time=0
EXTRACT: note_off channel=0 note=59 velocity=95 time=0.2608695
EXTRACT: note_on channel=0 note=71 velocity=47 time=0
EXTRACT: note_on channel=0 note=64 velocity=63 time=0
EXTRACT: note_off channel=0 note=71 velocity=47 time=0.2608695
EXTRACT: note_off channel=0 note=64 velocity=63 time=0
EXTRACT: note_on channel=0 note=59 velocity=95 time=0
EXTRACT: note_off channel=0 note=59 velocity=95 time=0.2608695
EXTRACT: note_on channel=0 note=71 velocity=47 time=0
EXTRACT: note_on channel=0 note=64 velocity=63 time=0
EXTRACT: note_off channel=0 note=71 velocity=47 time=0.2608695
EXTRACT: note_off channel=0 note=64 velocity=63 time=0
EXTRACT: note_on channel=0 note=59 velocity=95 time=0
EXTRACT: note_off channel=8 note=28 velocity=95 time=0
EXTRACT: note_on channel=8 note=30 velocity=95 time=0
EXTRACT: note_off channel=5 note=28 velocity=95 time=0
EXTRACT: note_on channel=5 note=30 velocity=95 time=0
EXTRACT: note_off channel=0 note=59 velocity=95 time=0.2608695
EXTRACT: note_on channel=0 note=71 velocity=47 time=0
EXTRACT: note_on channel=0 note=64 velocity=63 time=0
EXTRACT: note_off channel=8 note=30 velocity=95 time=0
EXTRACT: note_on channel=8 note=32 velocity=95 time=0
EXTRACT: note_off channel=5 note=30 velocity=95 time=0
EXTRACT: note_on channel=5 note=32 velocity=95 time=0
EXTRACT: note_off channel=0 note=71 velocity=47 time=0.2608695
EXTRACT: note_off channel=0 note=64 velocity=63 time=0
EXTRACT: note_on channel=0 note=59 velocity=95 time=0
EXTRACT: note_off channel=8 note=32 velocity=95 time=0
EXTRACT: note_on channel=8 note=35 velocity=95 time=0
EXTRACT: note_off channel=5 note=32 velocity=95 time=0
EXTRACT: note_on channel=5 note=35 velocity=95 time=0
EXTRACT: note_off channel=0 note=59 velocity=95 time=0.2608695
EXTRACT: note_on channel=0 note=71 velocity=47 time=0
EXTRACT: note_on channel=0 note=66 velocity=47 time=0
EXTRACT: note_off channel=0 note=71 velocity=47 time=0.2608695
EXTRACT: note_off channel=0 note=66 velocity=47 time=0
EXTRACT: note_on channel=0 note=59 velocity=95 time=0
EXTRACT: note_off channel=0 note=59 velocity=95 time=0.2608695
EXTRACT: note_on channel=0 note=71 velocity=47 time=0
EXTRACT: note_on channel=0 note=66 velocity=47 time=0
EXTRACT: note_off channel=0 note=71 velocity=47 time=0.2608695
EXTRACT: note_off channel=0 note=66 velocity=47 time=0
EXTRACT: note_on channel=0 note=59 velocity=95 time=0
EXTRACT: note_off channel=0 note=59 velocity=95 time=0.2608695
EXTRACT: note_on channel=0 note=71 velocity=63 time=0
EXTRACT: note_on channel=0 note=66 velocity=47 time=0
EXTRACT: note_off channel=0 note=71 velocity=63 time=0.2608695
EXTRACT: note_off channel=0 note=66 velocity=47 time=0
EXTRACT: note_on channel=0 note=59 velocity=95 time=0
EXTRACT: note_off channel=8 note=35 velocity=95 time=0
EXTRACT: note_on channel=8 note=37 velocity=95 time=0
EXTRACT: note_off channel=5 note=35 velocity=95 time=0
EXTRACT: note_on channel=5 note=37 velocity=95 time=0
EXTRACT: note_off channel=0 note=59 velocity=95 time=0.2608695
EXTRACT: note_on channel=0 note=71 velocity=47 time=0
EXTRACT: note_on channel=0 note=66 velocity=47 time=0
EXTRACT: note_off channel=8 note=37 velocity=95 time=0
EXTRACT: note_on channel=8 note=39 velocity=95 time=0
EXTRACT: note_off channel=5 note=37 velocity=95 time=0
EXTRACT: note_on channel=5 note=39 velocity=95 time=0
EXTRACT: note_off channel=0 note=71 velocity=47 time=0.2608695
EXTRACT: note_off channel=0 note=66 velocity=47 time=0
EXTRACT: note_on channel=0 note=59 velocity=95 time=0
EXTRACT: note_off channel=8 note=39 velocity=95 time=0
EXTRACT: note_on channel=8 note=32 velocity=95 time=0
EXTRACT: note_off channel=5 note=39 velocity=95 time=0
EXTRACT: note_on channel=5 note=32 velocity=95 time=0
EXTRACT: note_off channel=0 note=59 velocity=95 time=0.2608695
EXTRACT: note_on channel=0 note=71 velocity=63 time=0
EXTRACT: note_on channel=0 note=63 velocity=47 time=0
EXTRACT: note_off channel=0 note=71 velocity=63 time=0.2608695
EXTRACT: note_off channel=0 note=63 velocity=47 time=0
EXTRACT: note_on channel=0 note=59 velocity=47 time=0
EXTRACT: note_off channel=0 note=59 velocity=47 time=0.2608695
EXTRACT: note_on channel=0 note=71 velocity=63 time=0
EXTRACT: note_on channel=0 note=63 velocity=63 time=0
EXTRACT: note_off channel=0 note=71 velocity=63 time=0.2608695
EXTRACT: note_off channel=0 note=63 velocity=63 time=0
EXTRACT: note_on channel=0 note=59 velocity=47 time=0
EXTRACT: note_off channel=0 note=59 velocity=47 time=0.2608695
EXTRACT: note_on channel=0 note=71 velocity=63 time=0
EXTRACT: note_on channel=0 note=63 velocity=63 time=0
EXTRACT: note_off channel=0 note=71 velocity=63 time=0.2608695
EXTRACT: note_off channel=0 note=63 velocity=63 time=0
EXTRACT: note_on channel=0 note=59 velocity=47 time=0
EXTRACT: note_off channel=0 note=59 velocity=47 time=0.2608695
EXTRACT: note_on channel=0 note=71 velocity=63 time=0
EXTRACT: note_on channel=0 note=63 velocity=47 time=0
EXTRACT: note_off channel=8 note=32 velocity=95 time=0
EXTRACT: note_on channel=8 note=32 velocity=95 time=0
EXTRACT: note_off channel=5 note=32 velocity=95 time=0
EXTRACT: note_on channel=5 note=32 velocity=95 time=0
EXTRACT: note_off channel=0 note=71 velocity=63 time=0.2608695
EXTRACT: note_off channel=0 note=63 velocity=47 time=0
EXTRACT: note_on channel=0 note=59 velocity=47 time=0
EXTRACT: note_off channel=8 note=32 velocity=95 time=0
EXTRACT: note_on channel=8 note=33 velocity=95 time=0
EXTRACT: note_off channel=5 note=32 velocity=95 time=0
EXTRACT: note_on channel=5 note=33 velocity=95 time=0
EXTRACT: note_off channel=0 note=59 velocity=47 time=0.2608695
EXTRACT: note_on channel=0 note=69 velocity=47 time=0
EXTRACT: note_on channel=0 note=61 velocity=47 time=0
EXTRACT: note_off channel=0 note=69 velocity=47 time=0.2608695
EXTRACT: note_off channel=0 note=61 velocity=47 time=0
EXTRACT: note_on channel=0 note=57 velocity=47 time=0
EXTRACT: note_off channel=0 note=57 velocity=47 time=0.2608695
EXTRACT: note_on channel=0 note=69 velocity=63 time=0
EXTRACT: note_on channel=0 note=61 velocity=63 time=0
EXTRACT: note_off channel=0 note=69 velocity=63 time=0.2608695
EXTRACT: note_off channel=0 note=61 velocity=63 time=0
EXTRACT: note_on channel=0 note=57 velocity=47 time=0
EXTRACT: note_off channel=0 note=57 velocity=47 time=0.2608695
EXTRACT: note_on channel=0 note=69 velocity=63 time=0
EXTRACT: note_on channel=0 note=61 velocity=47 time=0
EXTRACT: note_off channel=0 note=69 velocity=63 time=0.2608695
EXTRACT: note_off channel=0 note=61 velocity=47 time=0
EXTRACT: note_on channel=0 note=57 velocity=63 time=0
EXTRACT: note_off channel=8 note=33 velocity=95 time=0
EXTRACT: note_on channel=8 note=39 velocity=95 time=0
EXTRACT: note_off channel=5 note=33 velocity=95 time=0
EXTRACT: note_on channel=5 note=39 velocity=95 time=0
EXTRACT: note_off channel=0 note=57 velocity=63 time=0.2608695
EXTRACT: note_on channel=0 note=69 velocity=63 time=0
EXTRACT: note_on channel=0 note=61 velocity=47 time=0
EXTRACT: note_off channel=8 note=39 velocity=95 time=0
EXTRACT: note_on channel=8 note=40 velocity=95 time=0
EXTRACT: note_off channel=5 note=39 velocity=95 time=0
EXTRACT: note_on channel=5 note=40 velocity=95 time=0
EXTRACT: note_off channel=0 note=69 velocity=63 time=0.2608695
EXTRACT: note_off channel=0 note=61 velocity=47 time=0
EXTRACT: note_on channel=0 note=57 velocity=47 time=0
EXTRACT: note_off channel=0 note=57 velocity=47 time=0.2608695
EXTRACT: note_on channel=0 note=71 velocity=47 time=0
EXTRACT: note_on channel=0 note=64 velocity=47 time=0
EXTRACT: note_off channel=8 note=40 velocity=95 time=0
EXTRACT: note_on channel=8 note=40 velocity=95 time=0
EXTRACT: note_on channel=8 note=28 velocity=95 time=0
EXTRACT: note_off channel=5 note=40 velocity=95 time=0
EXTRACT: note_on channel=5 note=28 velocity=95 time=0
EXTRACT: note_off channel=0 note=71 velocity=47 time=0.2608695
EXTRACT: note_off channel=0 note=64 velocity=47 time=0
EXTRACT: note_on channel=0 note=59 velocity=95 time=0
EXTRACT: note_off channel=0 note=59 velocity=95 time=0.2608695
EXTRACT: note_on channel=0 note=71 velocity=47 time=0
EXTRACT: note_on channel=0 note=64 velocity=63 time=0
EXTRACT: note_off channel=0 note=71 velocity=47 time=0.2608695
EXTRACT: note_off channel=0 note=64 velocity=63 time=0
EXTRACT: note_on channel=0 note=59 velocity=95 time=0
EXTRACT: note_off channel=0 note=59 velocity=95 time=0.2608695
EXTRACT: note_on channel=0 note=71 velocity=47 time=0
EXTRACT: note_on channel=0 note=64 velocity=63 time=0
EXTRACT: note_off channel=0 note=71 velocity=47 time=0.2608695
EXTRACT: note_off channel=0 note=64 velocity=63 time=0
EXTRACT: note_on channel=0 note=59 velocity=95 time=0
EXTRACT: note_off channel=8 note=40 velocity=95 time=0
EXTRACT: note_off channel=8 note=28 velocity=95 time=0
EXTRACT: note_on channel=8 note=30 velocity=95 time=0
EXTRACT: note_off channel=5 note=28 velocity=95 time=0
EXTRACT: note_on channel=5 note=30 velocity=95 time=0
EXTRACT: note_off channel=0 note=59 velocity=95 time=0.2608695
EXTRACT: note_on channel=0 note=71 velocity=47 time=0
EXTRACT: note_on channel=0 note=64 velocity=63 time=0
EXTRACT: note_off channel=8 note=30 velocity=95 time=0
EXTRACT: note_on channel=8 note=32 velocity=95 time=0
EXTRACT: note_on channel=11 note=80 velocity=95 time=0
EXTRACT: note_off channel=5 note=30 velocity=95 time=0
EXTRACT: note_on channel=5 note=32 velocity=95 time=0
EXTRACT: note_off channel=0 note=71 velocity=47 time=0.2608695
EXTRACT: note_off channel=0 note=64 velocity=63 time=0
EXTRACT: note_on channel=0 note=59 velocity=95 time=0
EXTRACT: note_off channel=8 note=32 velocity=95 time=0
EXTRACT: note_on channel=8 note=47 velocity=95 time=0
EXTRACT: note_on channel=8 note=35 velocity=95 time=0
EXTRACT: note_off channel=11 note=80 velocity=95 time=0
EXTRACT: note_on channel=11 note=76 velocity=95 time=0
EXTRACT: note_off channel=5 note=32 velocity=95 time=0
EXTRACT: note_on channel=5 note=35 velocity=95 time=0
EXTRACT: note_off channel=0 note=59 velocity=95 time=0.2608695
EXTRACT: note_on channel=0 note=71 velocity=47 time=0
EXTRACT: note_on channel=0 note=66 velocity=47 time=0
EXTRACT: note_off channel=11 note=76 velocity=95 time=0
EXTRACT: note_on channel=11 note=78 velocity=95 time=0
EXTRACT: note_off channel=0 note=71 velocity=47 time=0.2608695
EXTRACT: note_off channel=0 note=66 velocity=47 time=0
EXTRACT: note_on channel=0 note=59 velocity=95 time=0
EXTRACT: note_off channel=11 note=78 velocity=95 time=0
EXTRACT: note_on channel=11 note=78 velocity=95 time=0
EXTRACT: note_off channel=0 note=59 velocity=95 time=0.2608695
EXTRACT: note_on channel=0 note=71 velocity=47 time=0
EXTRACT: note_on channel=0 note=66 velocity=47 time=0
EXTRACT: note_off channel=0 note=71 velocity=47 time=0.2608695
EXTRACT: note_off channel=0 note=66 velocity=47 time=0
EXTRACT: note_on channel=0 note=59 velocity=95 time=0
EXTRACT: note_off channel=11 note=78 velocity=95 time=0
EXTRACT: note_on channel=12 note=78 velocity=95 time=0
EXTRACT: pitchwheel channel=12 pitch=0 time=0.08695649999999999
EXTRACT: pitchwheel channel=12 pitch=128 time=0.08695649999999999
EXTRACT: note_off channel=0 note=59 velocity=95 time=0.08695649999999999
EXTRACT: note_on channel=0 note=71 velocity=63 time=0
EXTRACT: note_on channel=0 note=66 velocity=47 time=0
EXTRACT: pitchwheel channel=12 pitch=0 time=0
EXTRACT: pitchwheel channel=12 pitch=128 time=0.08695649999999999
EXTRACT: pitchwheel channel=12 pitch=0 time=0.08695649999999999
EXTRACT: note_off channel=0 note=71 velocity=63 time=0.08695649999999999
EXTRACT: note_off channel=0 note=66 velocity=47 time=0
EXTRACT: note_on channel=0 note=59 velocity=95 time=0
EXTRACT: note_off channel=8 note=47 velocity=95 time=0
EXTRACT: note_off channel=8 note=35 velocity=95 time=0
EXTRACT: note_on channel=8 note=37 velocity=95 time=0
EXTRACT: pitchwheel channel=12 pitch=128 time=0
EXTRACT: note_off channel=5 note=35 velocity=95 time=0
EXTRACT: note_on channel=5 note=37 velocity=95 time=0
EXTRACT: pitchwheel channel=12 pitch=0 time=0.08695649999999999
EXTRACT: pitchwheel channel=12 pitch=128 time=0.08695649999999999
EXTRACT: note_off channel=0 note=59 velocity=95 time=0.08695649999999999
EXTRACT: note_on channel=0 note=71 velocity=47 time=0
EXTRACT: note_on channel=0 note=66 velocity=47 time=0
EXTRACT: note_off channel=8 note=37 velocity=95 time=0
EXTRACT: note_on channel=8 note=39 velocity=95 time=0
EXTRACT: pitchwheel channel=12 pitch=0 time=0
EXTRACT: pitchwheel channel=12 pitch=128 time=0
EXTRACT: pitchwheel channel=12 pitch=0 time=0
EXTRACT: note_off channel=12 note=78 velocity=95 time=0
EXTRACT: note_off channel=5 note=37 velocity=95 time=0
EXTRACT: note_on channel=5 note=39 velocity=95 time=0
EXTRACT: note_off channel=0 note=71 velocity=47 time=0.2608695
EXTRACT: note_off channel=0 note=66 velocity=47 time=0
EXTRACT: note_on channel=0 note=59 velocity=95 time=0
EXTRACT: note_off channel=8 note=39 velocity=95 time=0
EXTRACT: note_on channel=8 note=37 velocity=95 time=0
EXTRACT: note_off channel=5 note=39 velocity=95 time=0
EXTRACT: note_on channel=5 note=37 velocity=95 time=0
EXTRACT: note_off channel=0 note=59 velocity=95 time=0.2608695
EXTRACT: note_on channel=0 note=71 velocity=63 time=0
EXTRACT: note_on channel=0 note=64 velocity=47 time=0
EXTRACT: note_off channel=0 note=71 velocity=63 time=0.2608695
EXTRACT: note_off channel=0 note=64 velocity=47 time=0
EXTRACT: note_on channel=0 note=59 velocity=47 time=0
EXTRACT: note_off channel=0 note=59 velocity=47 time=0.2608695
EXTRACT: note_on channel=0 note=71 velocity=63 time=0
EXTRACT: note_on channel=0 note=64 velocity=63 time=0
EXTRACT: note_off channel=0 note=71 velocity=63 time=0.2608695
EXTRACT: note_off channel=0 note=64 velocity=63 time=0
EXTRACT: note_on channel=0 note=59 velocity=47 time=0
EXTRACT: note_off channel=0 note=59 velocity=47 time=0.2608695
EXTRACT: note_on channel=0 note=71 velocity=63 time=0
EXTRACT: note_on channel=0 note=64 velocity=63 time=0
EXTRACT: note_on channel=11 note=73 velocity=95 time=0
EXTRACT: note_off channel=11 note=73 velocity=95 time=0.13043475
EXTRACT: note_on channel=11 note=75 velocity=95 time=0
EXTRACT: note_off channel=0 note=71 velocity=63 time=0.13043475
EXTRACT: note_off channel=0 note=64 velocity=63 time=0
EXTRACT: note_on channel=0 note=59 velocity=47 time=0
EXTRACT: note_off channel=8 note=37 velocity=95 time=0
EXTRACT: note_on channel=8 note=39 velocity=95 time=0
EXTRACT: note_off channel=11 note=75 velocity=95 time=0
EXTRACT: note_on channel=11 note=76 velocity=95 time=0
EXTRACT: note_off channel=5 note=37 velocity=95 time=0
EXTRACT: note_on channel=5 note=39 velocity=95 time=0
EXTRACT: note_off channel=0 note=59 velocity=47 time=0.2608695
EXTRACT: note_on channel=0 note=71 velocity=63 time=0
EXTRACT: note_on channel=0 note=64 velocity=47 time=0
EXTRACT: note_off channel=8 note=39 velocity=95 time=0
EXTRACT: note_on channel=8 note=40 velocity=95 time=0
EXTRACT: note_off channel=11 note=76 velocity=95 time=0
EXTRACT: note_on channel=11 note=76 velocity=95 time=0
EXTRACT: note_off channel=5 note=39 velocity=95 time=0
EXTRACT: note_on channel=5 note=40 velocity=95 time=0
EXTRACT: note_off channel=0 note=71 velocity=63 time=0.2608695
EXTRACT: note_off channel=0 note=64 velocity=47 time=0
EXTRACT: note_on channel=0 note=59 velocity=47 time=0
EXTRACT: note_off channel=8 note=40 velocity=95 time=0
EXTRACT: note_on channel=8 note=33 velocity=95 time=0
EXTRACT: note_off channel=11 note=76 velocity=95 time=0
EXTRACT: note_on channel=11 note=76 velocity=95 time=0
EXTRACT: note_off channel=5 note=40 velocity=95 time=0
EXTRACT: note_on channel=5 note=33 velocity=95 time=0
EXTRACT: note_off channel=0 note=59 velocity=47 time=0.2608695
EXTRACT: note_on channel=0 note=69 velocity=47 time=0
EXTRACT: note_on channel=0 note=61 velocity=47 time=0
EXTRACT: note_off channel=11 note=76 velocity=95 time=0
EXTRACT: note_on channel=11 note=83 velocity=95 time=0
EXTRACT: note_off channel=0 note=69 velocity=47 time=0.2608695
EXTRACT: note_off channel=0 note=61 velocity=47 time=0
EXTRACT: note_on channel=0 note=57 velocity=47 time=0
EXTRACT: note_off channel=0 note=57 velocity=47 time=0.2608695
EXTRACT: note_on channel=0 note=69 velocity=63 time=0
EXTRACT: note_on channel=0 note=61 velocity=63 time=0
EXTRACT: note_off channel=11 note=83 velocity=95 time=0
EXTRACT: note_on channel=11 note=83 velocity=95 time=0
EXTRACT: note_off channel=0 note=69 velocity=63 time=0.2608695
EXTRACT: note_off channel=0 note=61 velocity=63 time=0
EXTRACT: note_on channel=0 note=57 velocity=47 time=0
EXTRACT: note_off channel=11 note=83 velocity=95 time=0
EXTRACT: note_on channel=11 note=80 velocity=95 time=0
EXTRACT: note_off channel=0 note=57 velocity=47 time=0.2608695
EXTRACT: note_on channel=0 note=69 velocity=63 time=0
EXTRACT: note_on channel=0 note=61 velocity=47 time=0
EXTRACT: note_off channel=0 note=69 velocity=63 time=0.2608695
EXTRACT: note_off channel=0 note=61 velocity=47 time=0
EXTRACT: note_on channel=0 note=57 velocity=63 time=0
EXTRACT: note_off channel=8 note=33 velocity=95 time=0
EXTRACT: note_on channel=8 note=39 velocity=95 time=0
EXTRACT: note_off channel=11 note=80 velocity=95 time=0
EXTRACT: note_on channel=12 note=78 velocity=95 time=0
EXTRACT: note_off channel=5 note=33 velocity=95 time=0
EXTRACT: note_on channel=5 note=39 velocity=95 time=0
EXTRACT: pitchwheel channel=12 pitch=0 time=0.08695649999999999
EXTRACT: pitchwheel channel=12 pitch=128 time=0.08695649999999999
EXTRACT: note_off channel=0 note=57 velocity=63 time=0.08695649999999999
EXTRACT: note_on channel=0 note=69 velocity=63 time=0
EXTRACT: note_on channel=0 note=61 velocity=47 time=0
EXTRACT: note_off channel=8 note=39 velocity=95 time=0
EXTRACT: note_on channel=8 note=40 velocity=95 time=0
EXTRACT: pitchwheel channel=12 pitch=0 time=0
EXTRACT: note_off channel=5 note=39 velocity=95 time=0
EXTRACT: note_on channel=5 note=40 velocity=95 time=0
EXTRACT: pitchwheel channel=12 pitch=128 time=0.08695649999999999
EXTRACT: pitchwheel channel=12 pitch=0 time=0.08695649999999999
EXTRACT: note_off channel=0 note=69 velocity=63 time=0.08695649999999999
EXTRACT: note_off channel=0 note=61 velocity=47 time=0
EXTRACT: note_on channel=0 note=57 velocity=47 time=0
EXTRACT: note_off channel=8 note=40 velocity=95 time=0
EXTRACT: note_on channel=8 note=28 velocity=95 time=0
EXTRACT: pitchwheel channel=12 pitch=128 time=0
EXTRACT: note_off channel=5 note=40 velocity=95 time=0
EXTRACT: note_on channel=5 note=28 velocity=95 time=0
EXTRACT: pitchwheel channel=12 pitch=0 time=0.08695649999999999
EXTRACT: pitchwheel channel=12 pitch=128 time=0.08695649999999999
EXTRACT: note_off channel=0 note=57 velocity=47 time=0.08695649999999999
EXTRACT: note_on channel=0 note=71 velocity=47 time=0
EXTRACT: note_on channel=0 note=64 velocity=47 time=0
EXTRACT: pitchwheel channel=12 pitch=0 time=0
EXTRACT: pitchwheel channel=12 pitch=128 time=0
EXTRACT: pitchwheel channel=12 pitch=0 time=0
EXTRACT: note_off channel=12 note=78 velocity=95 time=0
EXTRACT: note_off channel=0 note=71 velocity=47 time=0.2608695
EXTRACT: note_off channel=0 note=64 velocity=47 time=0
EXTRACT: note_on channel=0 note=59 velocity=95 time=0
EXTRACT: note_off channel=0 note=59 velocity=95 time=0.2608695
EXTRACT: note_on channel=0 note=71 velocity=47 time=0
EXTRACT: note_on channel=0 note=64 velocity=63 time=0
EXTRACT: note_off channel=0 note=71 velocity=47 time=0.2608695
EXTRACT: note_off channel=0 note=64 velocity=63 time=0
EXTRACT: note_on channel=0 note=59 velocity=95 time=0
EXTRACT: note_off channel=0 note=59 velocity=95 time=0.2608695
EXTRACT: note_on channel=0 note=71 velocity=47 time=0
EXTRACT: note_on channel=0 note=64 velocity=63 time=0
EXTRACT: note_off channel=0 note=71 velocity=47 time=0.2608695
EXTRACT: note_off channel=0 note=64 velocity=63 time=0
EXTRACT: note_on channel=0 note=59 velocity=95 time=0
EXTRACT: note_off channel=8 note=28 velocity=95 time=0
EXTRACT: note_on channel=8 note=30 velocity=95 time=0
EXTRACT: note_on channel=11 note=71 velocity=95 time=0
EXTRACT: note_off channel=5 note=28 velocity=95 time=0
EXTRACT: note_on channel=5 note=30 velocity=95 time=0
EXTRACT: note_off channel=0 note=59 velocity=95 time=0.2608695
EXTRACT: note_on channel=0 note=71 velocity=47 time=0
EXTRACT: note_on channel=0 note=64 velocity=63 time=0
EXTRACT: note_off channel=8 note=30 velocity=95 time=0
EXTRACT: note_on channel=8 note=32 velocity=95 time=0
EXTRACT: note_off channel=11 note=71 velocity=95 time=0
EXTRACT: note_on channel=11 note=80 velocity=95 time=0
EXTRACT: note_off channel=5 note=30 velocity=95 time=0
EXTRACT: note_on channel=5 note=32 velocity=95 time=0
EXTRACT: note_off channel=0 note=71 velocity=47 time=0.2608695
EXTRACT: note_off channel=0 note=64 velocity=63 time=0
EXTRACT: note_on channel=0 note=59 velocity=95 time=0
EXTRACT: note_off channel=8 note=32 velocity=95 time=0
EXTRACT: note_on channel=8 note=35 velocity=95 time=0
EXTRACT: note_off channel=11 note=80 velocity=95 time=0
EXTRACT: note_on channel=11 note=76 velocity=95 time=0
EXTRACT: note_off channel=5 note=32 velocity=95 time=0
EXTRACT: note_on channel=5 note=35 velocity=95 time=0
EXTRACT: note_off channel=0 note=59 velocity=95 time=0.2608695
EXTRACT: note_on channel=0 note=71 velocity=47 time=0
EXTRACT: note_on channel=0 note=66 velocity=47 time=0
EXTRACT: note_off channel=11 note=76 velocity=95 time=0
EXTRACT: note_on channel=11 note=78 velocity=95 time=0
EXTRACT: note_off channel=0 note=71 velocity=47 time=0.2608695
EXTRACT: note_off channel=0 note=66 velocity=47 time=0
EXTRACT: note_on channel=0 note=59 velocity=95 time=0
EXTRACT: note_off channel=11 note=78 velocity=95 time=0
EXTRACT: note_on channel=11 note=78 velocity=95 time=0
EXTRACT: note_off channel=0 note=59 velocity=95 time=0.2608695
EXTRACT: note_on channel=0 note=71 velocity=47 time=0
EXTRACT: note_on channel=0 note=66 velocity=47 time=0
EXTRACT: note_off channel=0 note=71 velocity=47 time=0.2608695
EXTRACT: note_off channel=0 note=66 velocity=47 time=0
EXTRACT: note_on channel=0 note=59 velocity=95 time=0
EXTRACT: note_off channel=11 note=78 velocity=95 time=0
EXTRACT: note_on channel=11 note=80 velocity=95 time=0
EXTRACT: note_off channel=0 note=59 velocity=95 time=0.2608695
EXTRACT: note_on channel=0 note=71 velocity=63 time=0
EXTRACT: note_on channel=0 note=66 velocity=47 time=0
EXTRACT: note_off channel=0 note=71 velocity=63 time=0.2608695
EXTRACT: note_off channel=0 note=66 velocity=47 time=0
EXTRACT: note_on channel=0 note=59 velocity=95 time=0
EXTRACT: note_off channel=8 note=35 velocity=95 time=0
EXTRACT: note_on channel=8 note=37 velocity=95 time=0
EXTRACT: note_off channel=11 note=80 velocity=95 time=0
EXTRACT: note_on channel=11 note=78 velocity=95 time=0
EXTRACT: note_off channel=5 note=35 velocity=95 time=0
EXTRACT: note_on channel=5 note=37 velocity=95 time=0
EXTRACT: note_off channel=0 note=59 velocity=95 time=0.2608695
EXTRACT: note_on channel=0 note=71 velocity=47 time=0
EXTRACT: note_on channel=0 note=66 velocity=47 time=0
EXTRACT: note_off channel=8 note=37 velocity=95 time=0
EXTRACT: note_on channel=8 note=39 velocity=95 time=0
EXTRACT: note_off channel=5 note=37 velocity=95 time=0
EXTRACT: note_on channel=5 note=39 velocity=95 time=0
EXTRACT: note_off channel=0 note=71 velocity=47 time=0.2608695
EXTRACT: note_off channel=0 note=66 velocity=47 time=0
EXTRACT: note_on channel=0 note=59 velocity=95 time=0
EXTRACT: note_off channel=8 note=39 velocity=95 time=0
EXTRACT: note_on channel=8 note=32 velocity=95 time=0
EXTRACT: note_off channel=11 note=78 velocity=95 time=0
EXTRACT: note_on channel=11 note=76 velocity=95 time=0
EXTRACT: note_off channel=5 note=39 velocity=95 time=0
EXTRACT: note_on channel=5 note=32 velocity=95 time=0
EXTRACT: note_off channel=0 note=59 velocity=95 time=0.2608695
EXTRACT: note_on channel=0 note=71 velocity=63 time=0
EXTRACT: note_on channel=0 note=63 velocity=47 time=0
EXTRACT: note_off channel=11 note=76 velocity=95 time=0
EXTRACT: note_on channel=11 note=78 velocity=95 time=0
EXTRACT: note_off channel=0 note=71 velocity=63 time=0.2608695
EXTRACT: note_off channel=0 note=63 velocity=47 time=0
EXTRACT: note_on channel=0 note=59 velocity=47 time=0
EXTRACT: note_off channel=0 note=59 velocity=47 time=0.2608695
EXTRACT: note_on channel=0 note=71 velocity=63 time=0
EXTRACT: note_on channel=0 note=63 velocity=63 time=0
EXTRACT: note_off channel=0 note=71 velocity=63 time=0.2608695
EXTRACT: note_off channel=0 note=63 velocity=63 time=0
EXTRACT: note_on channel=0 note=59 velocity=47 time=0
EXTRACT: note_off channel=11 note=78 velocity=95 time=0
EXTRACT: note_on channel=11 note=80 velocity=95 time=0
EXTRACT: note_off channel=0 note=59 velocity=47 time=0.2608695
EXTRACT: note_on channel=0 note=71 velocity=63 time=0
EXTRACT: note_on channel=0 note=63 velocity=63 time=0
EXTRACT: note_off channel=0 note=71 velocity=63 time=0.2608695
EXTRACT: note_off channel=0 note=63 velocity=63 time=0
EXTRACT: note_on channel=0 note=59 velocity=47 time=0
EXTRACT: note_off channel=0 note=59 velocity=47 time=0.2608695
EXTRACT: note_on channel=0 note=71 velocity=63 time=0
EXTRACT: note_on channel=0 note=63 velocity=47 time=0
EXTRACT: note_off channel=8 note=32 velocity=95 time=0
EXTRACT: note_on channel=8 note=32 velocity=95 time=0
EXTRACT: note_off channel=11 note=80 velocity=95 time=0
EXTRACT: note_on channel=12 note=76 velocity=95 time=0
EXTRACT: note_off channel=5 note=32 velocity=95 time=0
EXTRACT: note_on channel=5 note=32 velocity=95 time=0
EXTRACT: pitchwheel channel=12 pitch=0 time=0.08695649999999999
EXTRACT: pitchwheel channel=12 pitch=128 time=0.08695649999999999
EXTRACT: note_off channel=0 note=71 velocity=63 time=0.08695649999999999
EXTRACT: note_off channel=0 note=63 velocity=47 time=0
EXTRACT: note_on channel=0 note=59 velocity=47 time=0
EXTRACT: note_off channel=8 note=32 velocity=95 time=0
EXTRACT: note_on channel=8 note=33 velocity=95 time=0
EXTRACT: pitchwheel channel=12 pitch=0 time=0
EXTRACT: note_off channel=5 note=32 velocity=95 time=0
EXTRACT: note_on channel=5 note=33 velocity=95 time=0
EXTRACT: pitchwheel channel=12 pitch=128 time=0.08695649999999999
EXTRACT: pitchwheel channel=12 pitch=0 time=0.08695649999999999
EXTRACT: note_off channel=0 note=59 velocity=47 time=0.08695649999999999
EXTRACT: note_on channel=0 note=69 velocity=47 time=0
EXTRACT: note_on channel=0 note=61 velocity=47 time=0
EXTRACT: pitchwheel channel=12 pitch=128 time=0
EXTRACT: pitchwheel channel=12 pitch=0 time=0.08695649999999999
EXTRACT: pitchwheel channel=12 pitch=128 time=0.08695649999999999
EXTRACT: note_off channel=0 note=69 velocity=47 time=0.08695649999999999
EXTRACT: note_off channel=0 note=61 velocity=47 time=0
EXTRACT: note_on channel=0 note=57 velocity=47 time=0
EXTRACT: pitchwheel channel=12 pitch=0 time=0
EXTRACT: pitchwheel channel=12 pitch=128 time=0.08695649999999999
EXTRACT: pitchwheel channel=12 pitch=0 time=0.08695649999999999
EXTRACT: note_off channel=0 note=57 velocity=47 time=0.08695649999999999
EXTRACT: note_on channel=0 note=69 velocity=63 time=0
EXTRACT: note_on channel=0 note=61 velocity=63 time=0
EXTRACT: pitchwheel channel=12 pitch=128 time=0
EXTRACT: pitchwheel channel=12 pitch=0 time=0
EXTRACT: note_off channel=12 note=76 velocity=95 time=0
EXTRACT: note_off channel=0 note=69 velocity=63 time=0.2608695
EXTRACT: note_off channel=0 note=61 velocity=63 time=0
EXTRACT: note_on channel=0 note=57 velocity=47 time=0
EXTRACT: note_off channel=0 note=57 velocity=47 time=0.2608695
EXTRACT: note_on channel=0 note=69 velocity=63 time=0
EXTRACT: note_on channel=0 note=61 velocity=47 time=0
EXTRACT: note_off channel=0 note=69 velocity=63 time=0.2608695
EXTRACT: note_off channel=0 note=61 velocity=47 time=0
EXTRACT: note_on channel=0 note=57 velocity=63 time=0
EXTRACT: note_off channel=8 note=33 velocity=95 time=0
EXTRACT: note_on channel=8 note=39 velocity=95 time=0
EXTRACT: note_off channel=5 note=33 velocity=95 time=0
EXTRACT: note_on channel=5 note=39 velocity=95 time=0
EXTRACT: note_off channel=0 note=57 velocity=63 time=0.2608695
EXTRACT: note_on channel=0 note=69 velocity=63 time=0
EXTRACT: note_on channel=0 note=61 velocity=47 time=0
EXTRACT: note_off channel=8 note=39 velocity=95 time=0
EXTRACT: note_on channel=8 note=40 velocity=95 time=0
EXTRACT: note_off channel=5 note=39 velocity=95 time=0
EXTRACT: note_on channel=5 note=40 velocity=95 time=0
EXTRACT: note_off channel=0 note=69 velocity=63 time=0.2608695
EXTRACT: note_off channel=0 note=61 velocity=47 time=0
EXTRACT: note_on channel=0 note=57 velocity=47 time=0
EXTRACT: note_off channel=0 note=57 velocity=47 time=0.2608695
EXTRACT: note_on channel=0 note=71 velocity=47 time=0
EXTRACT: note_on channel=0 note=64 velocity=47 time=0
EXTRACT: note_off channel=8 note=40 velocity=95 time=0
EXTRACT: note_on channel=8 note=40 velocity=95 time=0
EXTRACT: note_on channel=8 note=28 velocity=95 time=0
EXTRACT: note_off channel=5 note=40 velocity=95 time=0
EXTRACT: note_on channel=5 note=28 velocity=95 time=0
EXTRACT: note_on channel=7 note=71 velocity=31 time=0
EXTRACT: note_on channel=7 note=83 velocity=95 time=0
EXTRACT: note_off channel=0 note=71 velocity=47 time=0.2608695
EXTRACT: note_off channel=0 note=64 velocity=47 time=0
EXTRACT: note_on channel=0 note=59 velocity=95 time=0
EXTRACT: note_off channel=0 note=59 velocity=95 time=0.2608695
EXTRACT: note_on channel=0 note=71 velocity=47 time=0
EXTRACT: note_on channel=0 note=64 velocity=63 time=0
EXTRACT: note_off channel=0 note=71 velocity=47 time=0.2608695
EXTRACT: note_off channel=0 note=64 velocity=63 time=0
EXTRACT: note_on channel=0 note=59 velocity=95 time=0
EXTRACT: note_off channel=0 note=59 velocity=95 time=0.2608695
EXTRACT: note_on channel=0 note=71 velocity=47 time=0
EXTRACT: note_on channel=0 note=64 velocity=63 time=0
EXTRACT: note_off channel=0 note=71 velocity=47 time=0.2608695
EXTRACT: note_off channel=0 note=64 velocity=63 time=0
EXTRACT: note_on channel=0 note=59 velocity=95 time=0
EXTRACT: note_off channel=8 note=40 velocity=95 time=0
EXTRACT: note_off channel=8 note=28 velocity=95 time=0
EXTRACT: note_on channel=8 note=30 velocity=95 time=0
EXTRACT: note_off channel=5 note=28 velocity=95 time=0
EXTRACT: note_on channel=5 note=30 velocity=95 time=0
EXTRACT: note_off channel=0 note=59 velocity=95 time=0.2608695
EXTRACT: note_on channel=0 note=71 velocity=47 time=0
EXTRACT: note_on channel=0 note=64 velocity=63 time=0
EXTRACT: note_off channel=8 note=30 velocity=95 time=0
EXTRACT: note_on channel=8 note=32 velocity=95 time=0
EXTRACT: note_on channel=11 note=80 velocity=95 time=0
EXTRACT: note_off channel=5 note=30 velocity=95 time=0
EXTRACT: note_on channel=5 note=32 velocity=95 time=0
EXTRACT: note_off channel=0 note=71 velocity=47 time=0.2608695
EXTRACT: note_off channel=0 note=64 velocity=63 time=0
EXTRACT: note_on channel=0 note=59 velocity=95 time=0
EXTRACT: note_off channel=8 note=32 velocity=95 time=0
EXTRACT: note_on channel=8 note=47 velocity=95 time=0
EXTRACT: note_on channel=8 note=35 velocity=95 time=0
EXTRACT: note_off channel=11 note=80 velocity=95 time=0
EXTRACT: note_on channel=11 note=76 velocity=95 time=0
EXTRACT: note_off channel=5 note=32 velocity=95 time=0
EXTRACT: note_on channel=5 note=35 velocity=95 time=0
EXTRACT: note_off channel=0 note=59 velocity=95 time=0.2608695
EXTRACT: note_on channel=0 note=71 velocity=47 time=0
EXTRACT: note_on channel=0 note=66 velocity=47 time=0
EXTRACT: note_off channel=11 note=76 velocity=95 time=0
EXTRACT: note_on channel=11 note=78 velocity=95 time=0
EXTRACT: note_off channel=0 note=71 velocity=47 time=0.2608695
EXTRACT: note_off channel=0 note=66 velocity=47 time=0
EXTRACT: note_on channel=0 note=59 velocity=95 time=0
EXTRACT: note_off channel=11 note=78 velocity=95 time=0
EXTRACT: note_on channel=11 note=78 velocity=95 time=0
EXTRACT: note_off channel=0 note=59 velocity=95 time=0.2608695
EXTRACT: note_on channel=0 note=71 velocity=47 time=0
EXTRACT: note_on channel=0 note=66 velocity=47 time=0
EXTRACT: note_off channel=0 note=71 velocity=47 time=0.2608695
EXTRACT: note_off channel=0 note=66 velocity=47 time=0
EXTRACT: note_on channel=0 note=59 velocity=95 time=0
EXTRACT: note_off channel=11 note=78 velocity=95 time=0
EXTRACT: note_on channel=12 note=78 velocity=95 time=0
EXTRACT: pitchwheel channel=12 pitch=0 time=0.08695649999999999
EXTRACT: pitchwheel channel=12 pitch=128 time=0.08695649999999999
EXTRACT: note_off channel=0 note=59 velocity=95 time=0.08695649999999999
EXTRACT: note_on channel=0 note=71 velocity=63 time=0
EXTRACT: note_on channel=0 note=66 velocity=47 time=0
EXTRACT: pitchwheel channel=12 pitch=0 time=0
EXTRACT: pitchwheel channel=12 pitch=128 time=0.08695649999999999
EXTRACT: pitchwheel channel=12 pitch=0 time=0.08695649999999999
EXTRACT: note_off channel=0 note=71 velocity=63 time=0.08695649999999999
EXTRACT: note_off channel=0 note=66 velocity=47 time=0
EXTRACT: note_on channel=0 note=59 velocity=95 time=0
EXTRACT: note_off channel=8 note=47 velocity=95 time=0
EXTRACT: note_off channel=8 note=35 velocity=95 time=0
EXTRACT: note_on channel=8 note=37 velocity=95 time=0
EXTRACT: pitchwheel channel=12 pitch=128 time=0
EXTRACT: note_off channel=5 note=35 velocity=95 time=0
EXTRACT: note_on channel=5 note=37 velocity=95 time=0
EXTRACT: pitchwheel channel=12 pitch=0 time=0.08695649999999999
EXTRACT: pitchwheel channel=12 pitch=128 time=0.08695649999999999
EXTRACT: note_off channel=0 note=59 velocity=95 time=0.08695649999999999
EXTRACT: note_on channel=0 note=71 velocity=47 time=0
EXTRACT: note_on channel=0 note=66 velocity=47 time=0
EXTRACT: note_off channel=8 note=37 velocity=95 time=0
EXTRACT: note_on channel=8 note=39 velocity=95 time=0
EXTRACT: pitchwheel channel=12 pitch=0 time=0
EXTRACT: pitchwheel channel=12 pitch=128 time=0
EXTRACT: pitchwheel channel=12 pitch=0 time=0
EXTRACT: note_off channel=12 note=78 velocity=95 time=0
EXTRACT: note_off channel=5 note=37 velocity=95 time=0
EXTRACT: note_on channel=5 note=39 velocity=95 time=0
EXTRACT: note_off channel=0 note=71 velocity=47 time=0.2608695
EXTRACT: note_off channel=0 note=66 velocity=47 time=0
EXTRACT: note_on channel=0 note=59 velocity=95 time=0
EXTRACT: note_off channel=8 note=39 velocity=95 time=0
EXTRACT: note_on channel=8 note=37 velocity=95 time=0
EXTRACT: note_off channel=5 note=39 velocity=95 time=0
EXTRACT: note_on channel=5 note=37 velocity=95 time=0
EXTRACT: note_off channel=0 note=59 velocity=95 time=0.2608695
EXTRACT: note_on channel=0 note=71 velocity=63 time=0
EXTRACT: note_on channel=0 note=64 velocity=47 time=0
EXTRACT: note_off channel=7 note=71 velocity=31 time=0
EXTRACT: note_off channel=7 note=83 velocity=95 time=0
EXTRACT: note_off channel=0 note=71 velocity=63 time=0.2608695
EXTRACT: note_off channel=0 note=64 velocity=47 time=0
EXTRACT: note_on channel=0 note=59 velocity=47 time=0
EXTRACT: note_off channel=0 note=59 velocity=47 time=0.2608695
EXTRACT: note_on channel=0 note=71 velocity=63 time=0
EXTRACT: note_on channel=0 note=64 velocity=63 time=0
EXTRACT: note_off channel=0 note=71 velocity=63 time=0.2608695
EXTRACT: note_off channel=0 note=64 velocity=63 time=0
EXTRACT: note_on channel=0 note=59 velocity=47 time=0
EXTRACT: note_off channel=0 note=59 velocity=47 time=0.2608695
EXTRACT: note_on channel=0 note=71 velocity=63 time=0
EXTRACT: note_on channel=0 note=64 velocity=63 time=0
EXTRACT: note_on channel=11 note=73 velocity=95 time=0
EXTRACT: note_off channel=0 note=71 velocity=63 time=0.2608695
EXTRACT: note_off channel=0 note=64 velocity=63 time=0
EXTRACT: note_on channel=0 note=59 velocity=47 time=0
EXTRACT: note_off channel=8 note=37 velocity=95 time=0
EXTRACT: note_on channel=8 note=39 velocity=95 time=0
EXTRACT: note_off channel=11 note=73 velocity=95 time=0
EXTRACT: note_on channel=11 note=76 velocity=95 time=0
EXTRACT: note_off channel=5 note=37 velocity=95 time=0
EXTRACT: note_on channel=5 note=39 velocity=95 time=0
EXTRACT: note_off channel=0 note=59 velocity=47 time=0.2608695
EXTRACT: note_on channel=0 note=71 velocity=63 time=0
EXTRACT: note_on channel=0 note=64 velocity=47 time=0
EXTRACT: note_off channel=8 note=39 velocity=95 time=0
EXTRACT: note_on channel=8 note=40 velocity=95 time=0
EXTRACT: note_off channel=11 note=76 velocity=95 time=0
EXTRACT: note_on channel=11 note=76 velocity=95 time=0
EXTRACT: note_off channel=5 note=39 velocity=95 time=0
EXTRACT: note_on channel=5 note=40 velocity=95 time=0
EXTRACT: note_off channel=0 note=71 velocity=63 time=0.2608695
EXTRACT: note_off channel=0 note=64 velocity=47 time=0
EXTRACT: note_on channel=0 note=59 velocity=47 time=0
EXTRACT: note_off channel=8 note=40 velocity=95 time=0
EXTRACT: note_on channel=8 note=33 velocity=95 time=0
EXTRACT: note_off channel=11 note=76 velocity=95 time=0
EXTRACT: note_on channel=11 note=76 velocity=95 time=0
EXTRACT: note_off channel=5 note=40 velocity=95 time=0
EXTRACT: note_on channel=5 note=33 velocity=95 time=0
EXTRACT: note_off channel=0 note=59 velocity=47 time=0.2608695
EXTRACT: note_on channel=0 note=69 velocity=47 time=0
EXTRACT: note_on channel=0 note=61 velocity=47 time=0
EXTRACT: note_off channel=11 note=76 velocity=95 time=0
EXTRACT: note_on channel=11 note=83 velocity=95 time=0
EXTRACT: note_off channel=0 note=69 velocity=47 time=0.2608695
EXTRACT: note_off channel=0 note=61 velocity=47 time=0
EXTRACT: note_on channel=0 note=57 velocity=47 time=0
EXTRACT: note_off channel=0 note=57 velocity=47 time=0.2608695
EXTRACT: note_on channel=0 note=69 velocity=63 time=0
EXTRACT: note_on channel=0 note=61 velocity=63 time=0
EXTRACT: note_off channel=11 note=83 velocity=95 time=0
EXTRACT: note_on channel=11 note=83 velocity=95 time=0
EXTRACT: note_off channel=0 note=69 velocity=63 time=0.2608695
EXTRACT: note_off channel=0 note=61 velocity=63 time=0
EXTRACT: note_on channel=0 note=57 velocity=47 time=0
EXTRACT: note_off channel=11 note=83 velocity=95 time=0
EXTRACT: note_on channel=11 note=80 velocity=95 time=0
EXTRACT: note_off channel=0 note=57 velocity=47 time=0.2608695
EXTRACT: note_on channel=0 note=69 velocity=63 time=0
EXTRACT: note_on channel=0 note=61 velocity=47 time=0
EXTRACT: note_off channel=0 note=69 velocity=63 time=0.2608695
EXTRACT: note_off channel=0 note=61 velocity=47 time=0
EXTRACT: note_on channel=0 note=57 velocity=63 time=0
EXTRACT: note_off channel=8 note=33 velocity=95 time=0
EXTRACT: note_on channel=8 note=39 velocity=95 time=0
EXTRACT: note_off channel=11 note=80 velocity=95 time=0
EXTRACT: note_on channel=12 note=78 velocity=95 time=0
EXTRACT: note_off channel=5 note=33 velocity=95 time=0
EXTRACT: note_on channel=5 note=39 velocity=95 time=0
EXTRACT: pitchwheel channel=12 pitch=0 time=0.08695649999999999
EXTRACT: pitchwheel channel=12 pitch=128 time=0.08695649999999999
EXTRACT: note_off channel=0 note=57 velocity=63 time=0.08695649999999999
EXTRACT: note_on channel=0 note=69 velocity=63 time=0
EXTRACT: note_on channel=0 note=61 velocity=47 time=0
EXTRACT: note_off channel=8 note=39 velocity=95 time=0
EXTRACT: note_on channel=8 note=40 velocity=95 time=0
EXTRACT: pitchwheel channel=12 pitch=0 time=0
EXTRACT: note_off channel=5 note=39 velocity=95 time=0
EXTRACT: note_on channel=5 note=40 velocity=95 time=0
EXTRACT: pitchwheel channel=12 pitch=128 time=0.08695649999999999
EXTRACT: pitchwheel channel=12 pitch=0 time=0.08695649999999999
EXTRACT: note_off channel=0 note=69 velocity=63 time=0.08695649999999999
EXTRACT: note_off channel=0 note=61 velocity=47 time=0
EXTRACT: note_on channel=0 note=57 velocity=47 time=0
EXTRACT: note_off channel=8 note=40 velocity=95 time=0
EXTRACT: note_on channel=8 note=28 velocity=95 time=0
EXTRACT: pitchwheel channel=12 pitch=128 time=0
EXTRACT: note_off channel=5 note=40 velocity=95 time=0
EXTRACT: note_on channel=5 note=28 velocity=95 time=0
EXTRACT: pitchwheel channel=12 pitch=0 time=0.08695649999999999
EXTRACT: pitchwheel channel=12 pitch=128 time=0.08695649999999999
EXTRACT: note_off channel=0 note=57 velocity=47 time=0.08695649999999999
EXTRACT: note_on channel=0 note=71 velocity=47 time=0
EXTRACT: note_on channel=0 note=64 velocity=47 time=0
EXTRACT: pitchwheel channel=12 pitch=0 time=0
EXTRACT: pitchwheel channel=12 pitch=128 time=0
EXTRACT: pitchwheel channel=12 pitch=0 time=0
EXTRACT: note_off channel=12 note=78 velocity=95 time=0
EXTRACT: note_off channel=0 note=71 velocity=47 time=0.2608695
EXTRACT: note_off channel=0 note=64 velocity=47 time=0
EXTRACT: note_on channel=0 note=59 velocity=95 time=0
EXTRACT: note_off channel=0 note=59 velocity=95 time=0.2608695
EXTRACT: note_on channel=0 note=71 velocity=47 time=0
EXTRACT: note_on channel=0 note=64 velocity=63 time=0
EXTRACT: note_off channel=0 note=71 velocity=47 time=0.2608695
EXTRACT: note_off channel=0 note=64 velocity=63 time=0
EXTRACT: note_on channel=0 note=59 velocity=95 time=0
EXTRACT: note_off channel=0 note=59 velocity=95 time=0.2608695
EXTRACT: note_on channel=0 note=71 velocity=47 time=0
EXTRACT: note_on channel=0 note=64 velocity=63 time=0
EXTRACT: note_off channel=0 note=71 velocity=47 time=0.2608695
EXTRACT: note_off channel=0 note=64 velocity=63 time=0
EXTRACT: note_on channel=0 note=59 velocity=95 time=0
EXTRACT: note_off channel=8 note=28 velocity=95 time=0
EXTRACT: note_on channel=8 note=30 velocity=95 time=0
EXTRACT: note_on channel=11 note=71 velocity=95 time=0
EXTRACT: note_off channel=5 note=28 velocity=95 time=0
EXTRACT: note_on channel=5 note=30 velocity=95 time=0
EXTRACT: note_off channel=0 note=59 velocity=95 time=0.2608695
EXTRACT: note_on channel=0 note=71 velocity=47 time=0
EXTRACT: note_on channel=0 note=64 velocity=63 time=0
EXTRACT: note_off channel=8 note=30 velocity=95 time=0
EXTRACT: note_on channel=8 note=32 velocity=95 time=0
EXTRACT: note_off channel=11 note=71 velocity=95 time=0
EXTRACT: note_on channel=11 note=80 velocity=95 time=0
EXTRACT: note_off channel=5 note=30 velocity=95 time=0
EXTRACT: note_on channel=5 note=32 velocity=95 time=0
EXTRACT: note_off channel=0 note=71 velocity=47 time=0.2608695
EXTRACT: note_off channel=0 note=64 velocity=63 time=0
EXTRACT: note_on channel=0 note=59 velocity=95 time=0
EXTRACT: note_off channel=8 note=32 velocity=95 time=0
EXTRACT: note_on channel=8 note=35 velocity=95 time=0
EXTRACT: note_off channel=11 note=80 velocity=95 time=0
EXTRACT: note_on channel=11 note=76 velocity=95 time=0
EXTRACT: note_off channel=5 note=32 velocity=95 time=0
EXTRACT: note_on channel=5 note=35 velocity=95 time=0
EXTRACT: note_off channel=0 note=59 velocity=95 time=0.2608695
EXTRACT: note_on channel=0 note=71 velocity=47 time=0
EXTRACT: note_on channel=0 note=66 velocity=47 time=0
EXTRACT: note_off channel=11 note=76 velocity=95 time=0
EXTRACT: note_on channel=11 note=78 velocity=95 time=0
EXTRACT: note_off channel=0 note=71 velocity=47 time=0.2608695
EXTRACT: note_off channel=0 note=66 velocity=47 time=0
EXTRACT: note_on channel=0 note=59 velocity=95 time=0
EXTRACT: note_off channel=11 note=78 velocity=95 time=0
EXTRACT: note_on channel=11 note=78 velocity=95 time=0
EXTRACT: note_off channel=0 note=59 velocity=95 time=0.2608695
EXTRACT: note_on channel=0 note=71 velocity=47 time=0
EXTRACT: note_on channel=0 note=66 velocity=47 time=0
EXTRACT: note_off channel=0 note=71 velocity=47 time=0.2608695
EXTRACT: note_off channel=0 note=66 velocity=47 time=0
EXTRACT: note_on channel=0 note=59 velocity=95 time=0
EXTRACT: note_off channel=11 note=78 velocity=95 time=0
EXTRACT: note_on channel=11 note=80 velocity=95 time=0
EXTRACT: note_off channel=0 note=59 velocity=95 time=0.2608695
EXTRACT: note_on channel=0 note=71 velocity=63 time=0
EXTRACT: note_on channel=0 note=66 velocity=47 time=0
EXTRACT: note_off channel=0 note=71 velocity=63 time=0.2608695
EXTRACT: note_off channel=0 note=66 velocity=47 time=0
EXTRACT: note_on channel=0 note=59 velocity=95 time=0
EXTRACT: note_off channel=8 note=35 velocity=95 time=0
EXTRACT: note_on channel=8 note=37 velocity=95 time=0
EXTRACT: note_off channel=11 note=80 velocity=95 time=0
EXTRACT: note_on channel=11 note=78 velocity=95 time=0
EXTRACT: note_off channel=5 note=35 velocity=95 time=0
EXTRACT: note_on channel=5 note=37 velocity=95 time=0
EXTRACT: note_off channel=0 note=59 velocity=95 time=0.2608695
EXTRACT: note_on channel=0 note=71 velocity=47 time=0
EXTRACT: note_on channel=0 note=66 velocity=47 time=0
EXTRACT: note_off channel=8 note=37 velocity=95 time=0
EXTRACT: note_on channel=8 note=39 velocity=95 time=0
EXTRACT: note_off channel=5 note=37 velocity=95 time=0
EXTRACT: note_on channel=5 note=39 velocity=95 time=0
EXTRACT: note_off channel=0 note=71 velocity=47 time=0.2608695
EXTRACT: note_off channel=0 note=66 velocity=47 time=0
EXTRACT: note_on channel=0 note=59 velocity=95 time=0
EXTRACT: note_off channel=8 note=39 velocity=95 time=0
EXTRACT: note_on channel=8 note=32 velocity=95 time=0
EXTRACT: note_off channel=11 note=78 velocity=95 time=0
EXTRACT: note_on channel=11 note=76 velocity=95 time=0
EXTRACT: note_off channel=5 note=39 velocity=95 time=0
EXTRACT: note_on channel=5 note=32 velocity=95 time=0
EXTRACT: note_off channel=0 note=59 velocity=95 time=0.2608695
EXTRACT: note_on channel=0 note=71 velocity=63 time=0
EXTRACT: note_on channel=0 note=63 velocity=47 time=0
EXTRACT: note_off channel=11 note=76 velocity=95 time=0
EXTRACT: note_on channel=11 note=78 velocity=95 time=0
EXTRACT: note_off channel=0 note=71 velocity=63 time=0.2608695
EXTRACT: note_off channel=0 note=63 velocity=47 time=0
EXTRACT: note_on channel=0 note=59 velocity=47 time=0
EXTRACT: note_off channel=0 note=59 velocity=47 time=0.2608695
EXTRACT: note_on channel=0 note=71 velocity=63 time=0
EXTRACT: note_on channel=0 note=63 velocity=63 time=0
EXTRACT: note_off channel=0 note=71 velocity=63 time=0.2608695
EXTRACT: note_off channel=0 note=63 velocity=63 time=0
EXTRACT: note_on channel=0 note=59 velocity=47 time=0
EXTRACT: note_off channel=11 note=78 velocity=95 time=0
EXTRACT: note_on channel=11 note=80 velocity=95 time=0
EXTRACT: note_off channel=0 note=59 velocity=47 time=0.2608695
EXTRACT: note_on channel=0 note=71 velocity=63 time=0
EXTRACT: note_on channel=0 note=63 velocity=63 time=0
EXTRACT: note_off channel=0 note=71 velocity=63 time=0.2608695
EXTRACT: note_off channel=0 note=63 velocity=63 time=0
EXTRACT: note_on channel=0 note=59 velocity=47 time=0
EXTRACT: note_off channel=0 note=59 velocity=47 time=0.2608695
EXTRACT: note_on channel=0 note=71 velocity=63 time=0
EXTRACT: note_on channel=0 note=63 velocity=47 time=0
EXTRACT: note_off channel=8 note=32 velocity=95 time=0
EXTRACT: note_on channel=8 note=32 velocity=95 time=0
EXTRACT: note_off channel=11 note=80 velocity=95 time=0
EXTRACT: note_on channel=12 note=76 velocity=95 time=0
EXTRACT: note_off channel=5 note=32 velocity=95 time=0
EXTRACT: note_on channel=5 note=32 velocity=95 time=0
EXTRACT: pitchwheel channel=12 pitch=0 time=0.08695649999999999
EXTRACT: pitchwheel channel=12 pitch=128 time=0.08695649999999999
EXTRACT: note_off channel=0 note=71 velocity=63 time=0.08695649999999999
EXTRACT: note_off channel=0 note=63 velocity=47 time=0
EXTRACT: note_on channel=0 note=59 velocity=47 time=0
EXTRACT: note_off channel=8 note=32 velocity=95 time=0
EXTRACT: note_on channel=8 note=33 velocity=95 time=0
EXTRACT: pitchwheel channel=12 pitch=0 time=0
EXTRACT: note_off channel=5 note=32 velocity=95 time=0
EXTRACT: note_on channel=5 note=33 velocity=95 time=0
EXTRACT: pitchwheel channel=12 pitch=128 time=0.08695649999999999
EXTRACT: pitchwheel channel=12 pitch=0 time=0.08695649999999999
EXTRACT: note_off channel=0 note=59 velocity=47 time=0.08695649999999999
EXTRACT: note_on channel=0 note=69 velocity=47 time=0
EXTRACT: note_on channel=0 note=61 velocity=47 time=0
EXTRACT: pitchwheel channel=12 pitch=128 time=0
EXTRACT: pitchwheel channel=12 pitch=0 time=0.08695649999999999
EXTRACT: pitchwheel channel=12 pitch=128 time=0.08695649999999999
EXTRACT: note_off channel=0 note=69 velocity=47 time=0.08695649999999999
EXTRACT: note_off channel=0 note=61 velocity=47 time=0
EXTRACT: note_on channel=0 note=57 velocity=47 time=0
EXTRACT: pitchwheel channel=12 pitch=0 time=0
EXTRACT: pitchwheel channel=12 pitch=128 time=0.08695649999999999
EXTRACT: pitchwheel channel=12 pitch=0 time=0.08695649999999999
EXTRACT: note_off channel=0 note=57 velocity=47 time=0.08695649999999999
EXTRACT: note_on channel=0 note=69 velocity=63 time=0
EXTRACT: note_on channel=0 note=61 velocity=63 time=0
EXTRACT: pitchwheel channel=12 pitch=128 time=0
EXTRACT: pitchwheel channel=12 pitch=0 time=0.08695649999999999
EXTRACT: pitchwheel channel=12 pitch=128 time=0.08695649999999999
EXTRACT: note_off channel=0 note=69 velocity=63 time=0.08695649999999999
EXTRACT: note_off channel=0 note=61 velocity=63 time=0
EXTRACT: note_on channel=0 note=57 velocity=47 time=0
EXTRACT: pitchwheel channel=12 pitch=0 time=0
EXTRACT: pitchwheel channel=12 pitch=128 time=0.08695649999999999
EXTRACT: pitchwheel channel=12 pitch=0 time=0.08695649999999999
EXTRACT: note_off channel=0 note=57 velocity=47 time=0.08695649999999999
EXTRACT: note_on channel=0 note=69 velocity=63 time=0
EXTRACT: note_on channel=0 note=61 velocity=47 time=0
EXTRACT: pitchwheel channel=12 pitch=128 time=0
EXTRACT: pitchwheel channel=12 pitch=0 time=0
EXTRACT: note_off channel=12 note=76 velocity=95 time=0
EXTRACT: note_off channel=0 note=69 velocity=63 time=0.2608695
EXTRACT: note_off channel=0 note=61 velocity=47 time=0
EXTRACT: note_on channel=0 note=57 velocity=63 time=0
EXTRACT: note_off channel=8 note=33 velocity=95 time=0
EXTRACT: note_on channel=8 note=39 velocity=95 time=0
EXTRACT: note_off channel=5 note=33 velocity=95 time=0
EXTRACT: note_on channel=5 note=39 velocity=95 time=0
EXTRACT: note_off channel=0 note=57 velocity=63 time=0.2608695
EXTRACT: note_on channel=0 note=69 velocity=63 time=0
EXTRACT: note_on channel=0 note=61 velocity=47 time=0
EXTRACT: note_off channel=8 note=39 velocity=95 time=0
EXTRACT: note_on channel=8 note=40 velocity=95 time=0
EXTRACT: note_off channel=5 note=39 velocity=95 time=0
EXTRACT: note_on channel=5 note=40 velocity=95 time=0
EXTRACT: note_off channel=0 note=69 velocity=63 time=0.2608695
EXTRACT: note_off channel=0 note=61 velocity=47 time=0
EXTRACT: note_on channel=0 note=57 velocity=47 time=0
EXTRACT: note_on channel=13 note=76 velocity=31 time=0
EXTRACT: note_on channel=13 note=88 velocity=95 time=0
EXTRACT: note_off channel=0 note=57 velocity=47 time=0.2608695
EXTRACT: note_on channel=0 note=71 velocity=47 time=0
EXTRACT: note_on channel=0 note=64 velocity=47 time=0
EXTRACT: note_off channel=8 note=40 velocity=95 time=0
EXTRACT: note_on channel=8 note=40 velocity=95 time=0
EXTRACT: note_on channel=8 note=28 velocity=95 time=0
EXTRACT: note_off channel=5 note=40 velocity=95 time=0
EXTRACT: note_on channel=5 note=28 velocity=95 time=0
EXTRACT: note_on channel=7 note=76 velocity=95 time=0
EXTRACT: note_off channel=7 note=76 velocity=95 time=0.030978253124999997
EXTRACT: note_on channel=7 note=71 velocity=95 time=0.099456496875
EXTRACT: note_off channel=7 note=71 velocity=95 time=0.030978253124999997
EXTRACT: note_off channel=0 note=71 velocity=47 time=0.099456496875
EXTRACT: note_off channel=0 note=64 velocity=47 time=0
EXTRACT: note_on channel=0 note=59 velocity=95 time=0
EXTRACT: note_on channel=7 note=67 velocity=95 time=0
EXTRACT: note_off channel=7 note=67 velocity=95 time=0.030978253124999997
EXTRACT: note_on channel=7 note=62 velocity=95 time=0.099456496875
EXTRACT: note_off channel=7 note=62 velocity=95 time=0.030978253124999997
EXTRACT: note_off channel=0 note=59 velocity=95 time=0.099456496875
EXTRACT: note_on channel=0 note=71 velocity=47 time=0
EXTRACT: note_on channel=0 note=64 velocity=63 time=0
EXTRACT: note_off channel=0 note=71 velocity=47 time=0.2608695
EXTRACT: note_off channel=0 note=64 velocity=63 time=0
EXTRACT: note_on channel=0 note=59 velocity=95 time=0
EXTRACT: note_off channel=0 note=59 velocity=95 time=0.2608695
EXTRACT: note_on channel=0 note=71 velocity=47 time=0
EXTRACT: note_on channel=0 note=64 velocity=63 time=0
EXTRACT: note_on channel=7 note=76 velocity=95 time=0
EXTRACT: note_off channel=7 note=76 velocity=95 time=0.030978253124999997
EXTRACT: note_on channel=7 note=71 velocity=95 time=0.099456496875
EXTRACT: note_off channel=7 note=71 velocity=95 time=0.030978253124999997
EXTRACT: note_off channel=0 note=71 velocity=47 time=0.099456496875
EXTRACT: note_off channel=0 note=64 velocity=63 time=0
EXTRACT: note_on channel=0 note=59 velocity=95 time=0
EXTRACT: note_off channel=8 note=40 velocity=95 time=0
EXTRACT: note_off channel=8 note=28 velocity=95 time=0
EXTRACT: note_on channel=8 note=30 velocity=95 time=0
EXTRACT: note_off channel=5 note=28 velocity=95 time=0
EXTRACT: note_on channel=5 note=30 velocity=95 time=0
EXTRACT: note_on channel=7 note=67 velocity=95 time=0
EXTRACT: note_off channel=7 note=67 velocity=95 time=0.030978253124999997
EXTRACT: note_on channel=7 note=62 velocity=95 time=0.099456496875
EXTRACT: note_off channel=7 note=62 velocity=95 time=0.030978253124999997
EXTRACT: note_off channel=0 note=59 velocity=95 time=0.099456496875
EXTRACT: note_on channel=0 note=71 velocity=47 time=0
EXTRACT: note_on channel=0 note=64 velocity=63 time=0
EXTRACT: note_off channel=8 note=30 velocity=95 time=0
EXTRACT: note_on channel=8 note=32 velocity=95 time=0
EXTRACT: note_off channel=5 note=30 velocity=95 time=0
EXTRACT: note_on channel=5 note=32 velocity=95 time=0
EXTRACT: note_off channel=0 note=71 velocity=47 time=0.2608695
EXTRACT: note_off channel=0 note=64 velocity=63 time=0
EXTRACT: note_on channel=0 note=59 velocity=95 time=0
EXTRACT: note_off channel=8 note=32 velocity=95 time=0
EXTRACT: note_on channel=8 note=47 velocity=95 time=0
EXTRACT: note_on channel=8 note=35 velocity=95 time=0
EXTRACT: note_off channel=5 note=32 velocity=95 time=0
EXTRACT: note_on channel=5 note=35 velocity=95 time=0
EXTRACT: note_off channel=0 note=59 velocity=95 time=0.2608695
EXTRACT: note_on channel=0 note=71 velocity=47 time=0
EXTRACT: note_on channel=0 note=66 velocity=47 time=0
EXTRACT: note_on channel=7 note=76 velocity=95 time=0
EXTRACT: note_off channel=13 note=76 velocity=31 time=0
EXTRACT: note_off channel=13 note=88 velocity=95 time=0
EXTRACT: note_off channel=7 note=76 velocity=95 time=0.13043475
EXTRACT: note_on channel=7 note=75 velocity=95 time=0
EXTRACT: note_off channel=0 note=71 velocity=47 time=0.13043475
EXTRACT: note_off channel=0 note=66 velocity=47 time=0
EXTRACT: note_on channel=0 note=59 velocity=95 time=0
EXTRACT: note_off channel=7 note=75 velocity=95 time=0
EXTRACT: note_on channel=7 note=73 velocity=95 time=0
EXTRACT: note_off channel=7 note=73 velocity=95 time=0.13043475
EXTRACT: note_on channel=7 note=71 velocity=95 time=0
EXTRACT: note_off channel=0 note=59 velocity=95 time=0.13043475
EXTRACT: note_on channel=0 note=71 velocity=47 time=0
EXTRACT: note_on channel=0 note=66 velocity=47 time=0
EXTRACT: note_off channel=7 note=71 velocity=95 time=0
EXTRACT: note_on channel=7 note=76 velocity=95 time=0
EXTRACT: note_off channel=7 note=76 velocity=95 time=0.13043475
EXTRACT: note_on channel=7 note=75 velocity=95 time=0
EXTRACT: note_off channel=0 note=71 velocity=47 time=0.13043475
EXTRACT: note_off channel=0 note=66 velocity=47 time=0
EXTRACT: note_on channel=0 note=59 velocity=95 time=0
EXTRACT: note_off channel=7 note=75 velocity=95 time=0
EXTRACT: note_on channel=7 note=73 velocity=95 time=0
EXTRACT: note_off channel=7 note=73 velocity=95 time=0.13043475
EXTRACT: note_on channel=7 note=71 velocity=95 time=0
EXTRACT: note_off channel=0 note=59 velocity=95 time=0.13043475
EXTRACT: note_on channel=0 note=71 velocity=63 time=0
EXTRACT: note_on channel=0 note=66 velocity=47 time=0
EXTRACT: note_off channel=7 note=71 velocity=95 time=0
EXTRACT: note_on channel=7 note=76 velocity=95 time=0
EXTRACT: note_off channel=7 note=76 velocity=95 time=0.13043475
EXTRACT: note_on channel=7 note=75 velocity=95 time=0
EXTRACT: note_off channel=0 note=71 velocity=63 time=0.13043475
EXTRACT: note_off channel=0 note=66 velocity=47 time=0
EXTRACT: note_on channel=0 note=59 velocity=95 time=0
EXTRACT: note_off channel=8 note=47 velocity=95 time=0
EXTRACT: note_off channel=8 note=35 velocity=95 time=0
EXTRACT: note_on channel=8 note=37 velocity=95 time=0
EXTRACT: note_off channel=5 note=35 velocity=95 time=0
EXTRACT: note_on channel=5 note=37 velocity=95 time=0
EXTRACT: note_off channel=7 note=75 velocity=95 time=0
EXTRACT: note_on channel=7 note=73 velocity=95 time=0
EXTRACT: note_off channel=7 note=73 velocity=95 time=0.13043475
EXTRACT: note_on channel=7 note=71 velocity=95 time=0
EXTRACT: note_off channel=0 note=59 velocity=95 time=0.13043475
EXTRACT: note_on channel=0 note=71 velocity=47 time=0
EXTRACT: note_on channel=0 note=66 velocity=47 time=0
EXTRACT: note_off channel=8 note=37 velocity=95 time=0
EXTRACT: note_on channel=8 note=39 velocity=95 time=0
EXTRACT: note_off channel=5 note=37 velocity=95 time=0
EXTRACT: note_on channel=5 note=39 velocity=95 time=0
EXTRACT: note_off channel=7 note=71 velocity=95 time=0
EXTRACT: note_on channel=7 note=76 velocity=95 time=0
EXTRACT: note_off channel=7 note=76 velocity=95 time=0.13043475
EXTRACT: note_on channel=7 note=75 velocity=95 time=0
EXTRACT: note_off channel=0 note=71 velocity=47 time=0.13043475
EXTRACT: note_off channel=0 note=66 velocity=47 time=0
EXTRACT: note_on channel=0 note=59 velocity=95 time=0
EXTRACT: note_off channel=8 note=39 velocity=95 time=0
EXTRACT: note_on channel=8 note=37 velocity=95 time=0
EXTRACT: note_off channel=5 note=39 velocity=95 time=0
EXTRACT: note_on channel=5 note=37 velocity=95 time=0
EXTRACT: note_off channel=7 note=75 velocity=95 time=0
EXTRACT: note_on channel=7 note=73 velocity=95 time=0
EXTRACT: note_off channel=7 note=73 velocity=95 time=0.13043475
EXTRACT: note_on channel=7 note=71 velocity=95 time=0
EXTRACT: note_off channel=0 note=59 velocity=95 time=0.13043475
EXTRACT: note_on channel=0 note=71 velocity=63 time=0
EXTRACT: note_on channel=0 note=64 velocity=47 time=0
EXTRACT: note_off channel=7 note=71 velocity=95 time=0
EXTRACT: note_on channel=7 note=76 velocity=95 time=0
EXTRACT: note_off channel=7 note=76 velocity=95 time=0.13043475
EXTRACT: note_on channel=7 note=75 velocity=95 time=0
EXTRACT: note_off channel=0 note=71 velocity=63 time=0.13043475
EXTRACT: note_off channel=0 note=64 velocity=47 time=0
EXTRACT: note_on channel=0 note=59 velocity=47 time=0
EXTRACT: note_off channel=7 note=75 velocity=95 time=0
EXTRACT: note_on channel=7 note=73 velocity=95 time=0
EXTRACT: note_off channel=7 note=73 velocity=95 time=0.13043475
EXTRACT: note_on channel=7 note=71 velocity=95 time=0
EXTRACT: note_off channel=0 note=59 velocity=47 time=0.13043475
EXTRACT: note_on channel=0 note=71 velocity=63 time=0
EXTRACT: note_on channel=0 note=64 velocity=63 time=0
EXTRACT: note_off channel=7 note=71 velocity=95 time=0
EXTRACT: note_on channel=7 note=76 velocity=95 time=0
EXTRACT: note_off channel=7 note=76 velocity=95 time=0.13043475
EXTRACT: note_on channel=7 note=75 velocity=95 time=0
EXTRACT: note_off channel=0 note=71 velocity=63 time=0.13043475
EXTRACT: note_off channel=0 note=64 velocity=63 time=0
EXTRACT: note_on channel=0 note=59 velocity=47 time=0
EXTRACT: note_off channel=7 note=75 velocity=95 time=0
EXTRACT: note_on channel=7 note=73 velocity=95 time=0
EXTRACT: note_off channel=7 note=73 velocity=95 time=0.13043475
EXTRACT: note_on channel=7 note=71 velocity=95 time=0
EXTRACT: note_off channel=0 note=59 velocity=47 time=0.13043475
EXTRACT: note_on channel=0 note=71 velocity=63 time=0
EXTRACT: note_on channel=0 note=64 velocity=63 time=0
EXTRACT: note_off channel=7 note=71 velocity=95 time=0
EXTRACT: note_on channel=7 note=76 velocity=95 time=0
EXTRACT: note_off channel=7 note=76 velocity=95 time=0.13043475
EXTRACT: note_on channel=7 note=75 velocity=95 time=0
EXTRACT: note_off channel=0 note=71 velocity=63 time=0.13043475
EXTRACT: note_off channel=0 note=64 velocity=63 time=0
EXTRACT: note_on channel=0 note=59 velocity=47 time=0
EXTRACT: note_off channel=8 note=37 velocity=95 time=0
EXTRACT: note_on channel=8 note=39 velocity=95 time=0
EXTRACT: note_off channel=5 note=37 velocity=95 time=0
EXTRACT: note_on channel=5 note=39 velocity=95 time=0
EXTRACT: note_off channel=7 note=75 velocity=95 time=0
EXTRACT: note_on channel=7 note=73 velocity=95 time=0
EXTRACT: note_off channel=7 note=73 velocity=95 time=0.13043475
EXTRACT: note_on channel=7 note=71 velocity=95 time=0
EXTRACT: note_off channel=0 note=59 velocity=47 time=0.13043475
EXTRACT: note_on channel=0 note=71 velocity=63 time=0
EXTRACT: note_on channel=0 note=64 velocity=47 time=0
EXTRACT: note_off channel=8 note=39 velocity=95 time=0
EXTRACT: note_on channel=8 note=40 velocity=95 time=0
EXTRACT: note_off channel=5 note=39 velocity=95 time=0
EXTRACT: note_on channel=5 note=40 velocity=95 time=0
EXTRACT: note_off channel=7 note=71 velocity=95 time=0
EXTRACT: note_on channel=7 note=76 velocity=95 time=0
EXTRACT: note_off channel=7 note=76 velocity=95 time=0.13043475
EXTRACT: note_on channel=7 note=75 velocity=95 time=0
EXTRACT: note_off channel=0 note=71 velocity=63 time=0.13043475
EXTRACT: note_off channel=0 note=64 velocity=47 time=0
EXTRACT: note_on channel=0 note=59 velocity=47 time=0
EXTRACT: note_off channel=8 note=40 velocity=95 time=0
EXTRACT: note_on channel=8 note=33 velocity=95 time=0
EXTRACT: note_off channel=5 note=40 velocity=95 time=0
EXTRACT: note_on channel=5 note=33 velocity=95 time=0
EXTRACT: note_off channel=7 note=75 velocity=95 time=0
EXTRACT: note_on channel=7 note=73 velocity=95 time=0
EXTRACT: note_off channel=7 note=73 velocity=95 time=0.13043475
EXTRACT: note_on channel=7 note=71 velocity=95 time=0
EXTRACT: note_off channel=0 note=59 velocity=47 time=0.13043475
EXTRACT: note_on channel=0 note=69 velocity=47 time=0
EXTRACT: note_on channel=0 note=61 velocity=47 time=0
EXTRACT: note_off channel=7 note=71 velocity=95 time=0
EXTRACT: note_on channel=7 note=76 velocity=95 time=0
EXTRACT: note_off channel=7 note=76 velocity=95 time=0.13043475
EXTRACT: note_on channel=7 note=75 velocity=95 time=0
EXTRACT: note_off channel=0 note=69 velocity=47 time=0.13043475
EXTRACT: note_off channel=0 note=61 velocity=47 time=0
EXTRACT: note_on channel=0 note=57 velocity=47 time=0
EXTRACT: note_off channel=7 note=75 velocity=95 time=0
EXTRACT: note_on channel=7 note=73 velocity=95 time=0
EXTRACT: note_off channel=7 note=73 velocity=95 time=0.13043475
EXTRACT: note_on channel=7 note=71 velocity=95 time=0
EXTRACT: note_off channel=0 note=57 velocity=47 time=0.13043475
EXTRACT: note_on channel=0 note=69 velocity=63 time=0
EXTRACT: note_on channel=0 note=61 velocity=63 time=0
EXTRACT: note_off channel=7 note=71 velocity=95 time=0
EXTRACT: note_on channel=7 note=76 velocity=95 time=0
EXTRACT: note_off channel=7 note=76 velocity=95 time=0.13043475
EXTRACT: note_on channel=7 note=75 velocity=95 time=0
EXTRACT: note_off channel=0 note=69 velocity=63 time=0.13043475
EXTRACT: note_off channel=0 note=61 velocity=63 time=0
EXTRACT: note_on channel=0 note=57 velocity=47 time=0
EXTRACT: note_off channel=7 note=75 velocity=95 time=0
EXTRACT: note_on channel=7 note=73 velocity=95 time=0
EXTRACT: note_off channel=7 note=73 velocity=95 time=0.13043475
EXTRACT: note_on channel=7 note=71 velocity=95 time=0
EXTRACT: note_off channel=0 note=57 velocity=47 time=0.13043475
EXTRACT: note_on channel=0 note=69 velocity=63 time=0
EXTRACT: note_on channel=0 note=61 velocity=47 time=0
EXTRACT: note_off channel=7 note=71 velocity=95 time=0
EXTRACT: note_on channel=7 note=76 velocity=95 time=0
EXTRACT: note_off channel=7 note=76 velocity=95 time=0.13043475
EXTRACT: note_on channel=7 note=75 velocity=95 time=0
EXTRACT: note_off channel=0 note=69 velocity=63 time=0.13043475
EXTRACT: note_off channel=0 note=61 velocity=47 time=0
EXTRACT: note_on channel=0 note=57 velocity=63 time=0
EXTRACT: note_off channel=8 note=33 velocity=95 time=0
EXTRACT: note_on channel=8 note=39 velocity=95 time=0
EXTRACT: note_off channel=5 note=33 velocity=95 time=0
EXTRACT: note_on channel=5 note=39 velocity=95 time=0
EXTRACT: note_off channel=7 note=75 velocity=95 time=0
EXTRACT: note_on channel=7 note=73 velocity=95 time=0
EXTRACT: note_off channel=7 note=73 velocity=95 time=0.13043475
EXTRACT: note_on channel=7 note=71 velocity=95 time=0
EXTRACT: note_off channel=0 note=57 velocity=63 time=0.13043475
EXTRACT: note_on channel=0 note=69 velocity=63 time=0
EXTRACT: note_on channel=0 note=61 velocity=47 time=0
EXTRACT: note_off channel=8 note=39 velocity=95 time=0
EXTRACT: note_on channel=8 note=40 velocity=95 time=0
EXTRACT: note_off channel=5 note=39 velocity=95 time=0
EXTRACT: note_on channel=5 note=40 velocity=95 time=0
EXTRACT: note_off channel=7 note=71 velocity=95 time=0
EXTRACT: note_on channel=7 note=76 velocity=95 time=0
EXTRACT: note_off channel=7 note=76 velocity=95 time=0.13043475
EXTRACT: note_on channel=7 note=75 velocity=95 time=0
EXTRACT: note_off channel=0 note=69 velocity=63 time=0.13043475
EXTRACT: note_off channel=0 note=61 velocity=47 time=0
EXTRACT: note_on channel=0 note=57 velocity=47 time=0
EXTRACT: note_off channel=8 note=40 velocity=95 time=0
EXTRACT: note_on channel=8 note=28 velocity=95 time=0
EXTRACT: note_off channel=5 note=40 velocity=95 time=0
EXTRACT: note_on channel=5 note=28 velocity=95 time=0
EXTRACT: note_off channel=7 note=75 velocity=95 time=0
EXTRACT: note_on channel=7 note=73 velocity=95 time=0
EXTRACT: note_off channel=7 note=73 velocity=95 time=0.13043475
EXTRACT: note_on channel=7 note=71 velocity=95 time=0
EXTRACT: note_off channel=0 note=57 velocity=47 time=0.13043475
EXTRACT: note_on channel=0 note=71 velocity=47 time=0
EXTRACT: note_on channel=0 note=64 velocity=47 time=0
EXTRACT: note_off channel=7 note=71 velocity=95 time=0
EXTRACT: note_on channel=7 note=76 velocity=95 time=0
EXTRACT: note_on channel=13 note=71 velocity=31 time=0
EXTRACT: note_on channel=13 note=83 velocity=95 time=0
EXTRACT: note_off channel=7 note=76 velocity=95 time=0.13043475
EXTRACT: note_on channel=7 note=75 velocity=95 time=0
EXTRACT: note_off channel=0 note=71 velocity=47 time=0.13043475
EXTRACT: note_off channel=0 note=64 velocity=47 time=0
EXTRACT: note_on channel=0 note=59 velocity=95 time=0
EXTRACT: note_off channel=7 note=75 velocity=95 time=0
EXTRACT: note_on channel=7 note=73 velocity=95 time=0
EXTRACT: note_off channel=7 note=73 velocity=95 time=0.13043475
EXTRACT: note_on channel=7 note=71 velocity=95 time=0
EXTRACT: note_off channel=0 note=59 velocity=95 time=0.13043475
EXTRACT: note_on channel=0 note=71 velocity=47 time=0
EXTRACT: note_on channel=0 note=64 velocity=63 time=0
EXTRACT: note_off channel=7 note=71 velocity=95 time=0
EXTRACT: note_on channel=7 note=76 velocity=95 time=0
EXTRACT: note_off channel=7 note=76 velocity=95 time=0.13043475
EXTRACT: note_on channel=7 note=75 velocity=95 time=0
EXTRACT: note_off channel=0 note=71 velocity=47 time=0.13043475
EXTRACT: note_off channel=0 note=64 velocity=63 time=0
EXTRACT: note_on channel=0 note=59 velocity=95 time=0
EXTRACT: note_off channel=7 note=75 velocity=95 time=0
EXTRACT: note_on channel=7 note=73 velocity=95 time=0
EXTRACT: note_off channel=7 note=73 velocity=95 time=0.13043475
EXTRACT: note_on channel=7 note=71 velocity=95 time=0
EXTRACT: note_off channel=0 note=59 velocity=95 time=0.13043475
EXTRACT: note_on channel=0 note=71 velocity=47 time=0
EXTRACT: note_on channel=0 note=64 velocity=63 time=0
EXTRACT: note_off channel=7 note=71 velocity=95 time=0
EXTRACT: note_on channel=7 note=76 velocity=95 time=0
EXTRACT: note_off channel=7 note=76 velocity=95 time=0.13043475
EXTRACT: note_on channel=7 note=75 velocity=95 time=0
EXTRACT: note_off channel=0 note=71 velocity=47 time=0.13043475
EXTRACT: note_off channel=0 note=64 velocity=63 time=0
EXTRACT: note_on channel=0 note=59 velocity=95 time=0
EXTRACT: note_off channel=8 note=28 velocity=95 time=0
EXTRACT: note_on channel=8 note=30 velocity=95 time=0
EXTRACT: note_off channel=5 note=28 velocity=95 time=0
EXTRACT: note_on channel=5 note=30 velocity=95 time=0
EXTRACT: note_off channel=7 note=75 velocity=95 time=0
EXTRACT: note_on channel=7 note=73 velocity=95 time=0
EXTRACT: note_off channel=7 note=73 velocity=95 time=0.13043475
EXTRACT: note_on channel=7 note=71 velocity=95 time=0
EXTRACT: note_off channel=0 note=59 velocity=95 time=0.13043475
EXTRACT: note_on channel=0 note=71 velocity=47 time=0
EXTRACT: note_on channel=0 note=64 velocity=63 time=0
EXTRACT: note_off channel=8 note=30 velocity=95 time=0
EXTRACT: note_on channel=8 note=32 velocity=95 time=0
EXTRACT: note_off channel=5 note=30 velocity=95 time=0
EXTRACT: note_on channel=5 note=32 velocity=95 time=0
EXTRACT: note_off channel=7 note=71 velocity=95 time=0
EXTRACT: note_on channel=7 note=76 velocity=95 time=0
EXTRACT: note_off channel=7 note=76 velocity=95 time=0.13043475
EXTRACT: note_on channel=7 note=75 velocity=95 time=0
EXTRACT: note_off channel=0 note=71 velocity=47 time=0.13043475
EXTRACT: note_off channel=0 note=64 velocity=63 time=0
EXTRACT: note_on channel=0 note=59 velocity=95 time=0
EXTRACT: note_off channel=8 note=32 velocity=95 time=0
EXTRACT: note_on channel=8 note=35 velocity=95 time=0
EXTRACT: note_off channel=5 note=32 velocity=95 time=0
EXTRACT: note_on channel=5 note=35 velocity=95 time=0
EXTRACT: note_off channel=7 note=75 velocity=95 time=0
EXTRACT: note_on channel=7 note=73 velocity=95 time=0
EXTRACT: note_off channel=7 note=73 velocity=95 time=0.13043475
EXTRACT: note_on channel=7 note=71 velocity=95 time=0
EXTRACT: note_off channel=0 note=59 velocity=95 time=0.13043475
EXTRACT: note_on channel=0 note=71 velocity=47 time=0
EXTRACT: note_on channel=0 note=66 velocity=47 time=0
EXTRACT: note_off channel=7 note=71 velocity=95 time=0
EXTRACT: note_on channel=7 note=76 velocity=95 time=0
EXTRACT: note_off channel=7 note=76 velocity=95 time=0.13043475
EXTRACT: note_on channel=7 note=75 velocity=95 time=0
EXTRACT: note_off channel=0 note=71 velocity=47 time=0.13043475
EXTRACT: note_off channel=0 note=66 velocity=47 time=0
EXTRACT: note_on channel=0 note=59 velocity=95 time=0
EXTRACT: note_off channel=7 note=75 velocity=95 time=0
EXTRACT: note_on channel=7 note=73 velocity=95 time=0
EXTRACT: note_off channel=7 note=73 velocity=95 time=0.13043475
EXTRACT: note_on channel=7 note=71 velocity=95 time=0
EXTRACT: note_off channel=0 note=59 velocity=95 time=0.13043475
EXTRACT: note_on channel=0 note=71 velocity=47 time=0
EXTRACT: note_on channel=0 note=66 velocity=47 time=0
EXTRACT: note_off channel=7 note=71 velocity=95 time=0
EXTRACT: note_on channel=7 note=76 velocity=95 time=0
EXTRACT: note_off channel=7 note=76 velocity=95 time=0.065217375
EXTRACT: note_on channel=7 note=75 velocity=95 time=0
EXTRACT: note_off channel=7 note=75 velocity=95 time=0.13043475
EXTRACT: note_on channel=7 note=73 velocity=95 time=0
EXTRACT: note_off channel=0 note=71 velocity=47 time=0.065217375
EXTRACT: note_off channel=0 note=66 velocity=47 time=0
EXTRACT: note_on channel=0 note=59 velocity=95 time=0
EXTRACT: note_off channel=7 note=73 velocity=95 time=0
EXTRACT: note_on channel=7 note=71 velocity=95 time=0
EXTRACT: note_off channel=7 note=71 velocity=95 time=0.13043475
EXTRACT: note_on channel=7 note=76 velocity=95 time=0
EXTRACT: note_off channel=7 note=76 velocity=95 time=0.065217375
EXTRACT: note_on channel=7 note=75 velocity=95 time=0
EXTRACT: note_off channel=0 note=59 velocity=95 time=0.065217375
EXTRACT: note_on channel=0 note=71 velocity=63 time=0
EXTRACT: note_on channel=0 note=66 velocity=47 time=0
EXTRACT: note_off channel=7 note=75 velocity=95 time=0.065217375
EXTRACT: note_on channel=7 note=73 velocity=95 time=0
EXTRACT: note_off channel=7 note=73 velocity=95 time=0.065217375
EXTRACT: note_on channel=7 note=71 velocity=95 time=0
EXTRACT: note_off channel=0 note=71 velocity=63 time=0.13043475
EXTRACT: note_off channel=0 note=66 velocity=47 time=0
EXTRACT: note_on channel=0 note=59 velocity=95 time=0
EXTRACT: note_off channel=8 note=35 velocity=95 time=0
EXTRACT: note_on channel=8 note=37 velocity=95 time=0
EXTRACT: note_off channel=5 note=35 velocity=95 time=0
EXTRACT: note_on channel=5 note=37 velocity=95 time=0
EXTRACT: note_off channel=7 note=71 velocity=95 time=0
EXTRACT: note_on channel=7 note=76 velocity=95 time=0
EXTRACT: note_off channel=7 note=76 velocity=95 time=0.065217375
EXTRACT: note_on channel=7 note=75 velocity=95 time=0
EXTRACT: note_off channel=7 note=75 velocity=95 time=0.13043475
EXTRACT: note_on channel=7 note=73 velocity=95 time=0
EXTRACT: note_off channel=0 note=59 velocity=95 time=0.065217375
EXTRACT: note_on channel=0 note=71 velocity=47 time=0
EXTRACT: note_on channel=0 note=66 velocity=47 time=0
EXTRACT: note_off channel=8 note=37 velocity=95 time=0
EXTRACT: note_on channel=8 note=39 velocity=95 time=0
EXTRACT: note_off channel=5 note=37 velocity=95 time=0
EXTRACT: note_on channel=5 note=39 velocity=95 time=0
EXTRACT: note_off channel=7 note=73 velocity=95 time=0
EXTRACT: note_on channel=7 note=71 velocity=95 time=0
EXTRACT: note_off channel=7 note=71 velocity=95 time=0.13043475
EXTRACT: note_on channel=7 note=76 velocity=95 time=0
EXTRACT: note_off channel=7 note=76 velocity=95 time=0.065217375
EXTRACT: note_on channel=7 note=75 velocity=95 time=0
EXTRACT: note_off channel=0 note=71 velocity=47 time=0.065217375
EXTRACT: note_off channel=0 note=66 velocity=47 time=0
EXTRACT: note_on channel=0 note=59 velocity=95 time=0
EXTRACT: note_off channel=8 note=39 velocity=95 time=0
EXTRACT: note_on channel=8 note=32 velocity=95 time=0
EXTRACT: note_off channel=5 note=39 velocity=95 time=0
EXTRACT: note_on channel=5 note=32 velocity=95 time=0
EXTRACT: note_off channel=7 note=75 velocity=95 time=0.065217375
EXTRACT: note_on channel=7 note=73 velocity=95 time=0
EXTRACT: note_off channel=7 note=73 velocity=95 time=0.065217375
EXTRACT: note_on channel=7 note=71 velocity=95 time=0
EXTRACT: note_off channel=0 note=59 velocity=95 time=0.13043475
EXTRACT: note_on channel=0 note=71 velocity=63 time=0
EXTRACT: note_on channel=0 note=63 velocity=47 time=0
EXTRACT: note_off channel=7 note=71 velocity=95 time=0
EXTRACT: note_on channel=7 note=76 velocity=95 time=0
EXTRACT: note_off channel=13 note=71 velocity=31 time=0
EXTRACT: note_off channel=13 note=83 velocity=95 time=0
EXTRACT: note_off channel=7 note=76 velocity=95 time=0.08695649999999999
EXTRACT: note_on channel=7 note=75 velocity=95 time=0
EXTRACT: note_off channel=7 note=75 velocity=95 time=0.08695649999999999
EXTRACT: note_on channel=7 note=73 velocity=95 time=0
EXTRACT: note_off channel=0 note=71 velocity=63 time=0.08695649999999999
EXTRACT: note_off channel=0 note=63 velocity=47 time=0
EXTRACT: note_on channel=0 note=59 velocity=47 time=0
EXTRACT: note_off channel=7 note=73 velocity=95 time=0
EXTRACT: note_on channel=7 note=71 velocity=95 time=0
EXTRACT: note_off channel=7 note=71 velocity=95 time=0.08695649999999999
EXTRACT: note_on channel=7 note=76 velocity=95 time=0
EXTRACT: note_off channel=7 note=76 velocity=95 time=0.08695649999999999
EXTRACT: note_on channel=7 note=75 velocity=95 time=0
EXTRACT: note_off channel=0 note=59 velocity=47 time=0.08695649999999999
EXTRACT: note_on channel=0 note=71 velocity=63 time=0
EXTRACT: note_on channel=0 note=63 velocity=63 time=0
EXTRACT: note_off channel=7 note=75 velocity=95 time=0
EXTRACT: note_on channel=7 note=73 velocity=95 time=0
EXTRACT: note_off channel=7 note=73 velocity=95 time=0.08695649999999999
EXTRACT: note_on channel=7 note=71 velocity=95 time=0
EXTRACT: note_off channel=7 note=71 velocity=95 time=0.08695649999999999
EXTRACT: note_on channel=7 note=76 velocity=95 time=0
EXTRACT: note_off channel=0 note=71 velocity=63 time=0.08695649999999999
EXTRACT: note_off channel=0 note=63 velocity=63 time=0
EXTRACT: note_on channel=0 note=59 velocity=47 time=0
EXTRACT: note_off channel=7 note=76 velocity=95 time=0
EXTRACT: note_on channel=7 note=75 velocity=95 time=0
EXTRACT: note_off channel=7 note=75 velocity=95 time=0.08695649999999999
EXTRACT: note_on channel=7 note=73 velocity=95 time=0
EXTRACT: note_off channel=7 note=73 velocity=95 time=0.08695649999999999
EXTRACT: note_on channel=7 note=71 velocity=95 time=0
EXTRACT: note_off channel=0 note=59 velocity=47 time=0.08695649999999999
EXTRACT: note_on channel=0 note=71 velocity=63 time=0
EXTRACT: note_on channel=0 note=63 velocity=63 time=0
EXTRACT: note_off channel=7 note=71 velocity=95 time=0
EXTRACT: note_on channel=7 note=76 velocity=95 time=0
EXTRACT: note_off channel=7 note=76 velocity=95 time=0.08695649999999999
EXTRACT: note_on channel=7 note=75 velocity=95 time=0
EXTRACT: note_off channel=7 note=75 velocity=95 time=0.08695649999999999
EXTRACT: note_on channel=7 note=73 velocity=95 time=0
EXTRACT: note_off channel=0 note=71 velocity=63 time=0.08695649999999999
EXTRACT: note_off channel=0 note=63 velocity=63 time=0
EXTRACT: note_on channel=0 note=59 velocity=47 time=0
EXTRACT: note_off channel=7 note=73 velocity=95 time=0
EXTRACT: note_on channel=7 note=71 velocity=95 time=0
EXTRACT: note_off channel=7 note=71 velocity=95 time=0.08695649999999999
EXTRACT: note_on channel=7 note=76 velocity=95 time=0
EXTRACT: note_off channel=7 note=76 velocity=95 time=0.08695649999999999
EXTRACT: note_on channel=7 note=75 velocity=95 time=0
EXTRACT: note_off channel=0 note=59 velocity=47 time=0.08695649999999999
EXTRACT: note_on channel=0 note=71 velocity=63 time=0
EXTRACT: note_on channel=0 note=63 velocity=47 time=0
EXTRACT: note_off channel=8 note=32 velocity=95 time=0
EXTRACT: note_on channel=8 note=32 velocity=95 time=0
EXTRACT: note_off channel=5 note=32 velocity=95 time=0
EXTRACT: note_on channel=5 note=32 velocity=95 time=0
EXTRACT: note_off channel=7 note=75 velocity=95 time=0
EXTRACT: note_on channel=7 note=73 velocity=95 time=0
EXTRACT: note_off channel=7 note=73 velocity=95 time=0.08695649999999999
EXTRACT: note_on channel=7 note=71 velocity=95 time=0
EXTRACT: note_off channel=7 note=71 velocity=95 time=0.08695649999999999
EXTRACT: note_on channel=7 note=76 velocity=95 time=0
EXTRACT: note_off channel=0 note=71 velocity=63 time=0.08695649999999999
EXTRACT: note_off channel=0 note=63 velocity=47 time=0
EXTRACT: note_on channel=0 note=59 velocity=47 time=0
EXTRACT: note_off channel=8 note=32 velocity=95 time=0
EXTRACT: note_on channel=8 note=33 velocity=95 time=0
EXTRACT: note_off channel=5 note=32 velocity=95 time=0
EXTRACT: note_on channel=5 note=33 velocity=95 time=0
EXTRACT: note_off channel=7 note=76 velocity=95 time=0
EXTRACT: note_on channel=7 note=75 velocity=95 time=0
EXTRACT: note_off channel=7 note=75 velocity=95 time=0.08695649999999999
EXTRACT: note_on channel=7 note=73 velocity=95 time=0
EXTRACT: note_off channel=7 note=73 velocity=95 time=0.08695649999999999
EXTRACT: note_on channel=7 note=71 velocity=95 time=0
EXTRACT: note_off channel=0 note=59 velocity=47 time=0.08695649999999999
EXTRACT: note_on channel=0 note=69 velocity=47 time=0
EXTRACT: note_on channel=0 note=61 velocity=47 time=0
EXTRACT: note_off channel=7 note=71 velocity=95 time=0
EXTRACT: note_on channel=7 note=76 velocity=95 time=0
EXTRACT: note_off channel=7 note=76 velocity=95 time=0.08695649999999999
EXTRACT: note_on channel=7 note=75 velocity=95 time=0
EXTRACT: note_off channel=7 note=75 velocity=95 time=0.08695649999999999
EXTRACT: note_on channel=7 note=73 velocity=95 time=0
EXTRACT: note_off channel=0 note=69 velocity=47 time=0.08695649999999999
EXTRACT: note_off channel=0 note=61 velocity=47 time=0
EXTRACT: note_on channel=0 note=57 velocity=47 time=0
EXTRACT: note_off channel=7 note=73 velocity=95 time=0
EXTRACT: note_on channel=7 note=71 velocity=95 time=0
EXTRACT: note_off channel=7 note=71 velocity=95 time=0.08695649999999999
EXTRACT: note_on channel=7 note=76 velocity=95 time=0
EXTRACT: note_off channel=7 note=76 velocity=95 time=0.08695649999999999
EXTRACT: note_on channel=7 note=75 velocity=95 time=0
EXTRACT: note_off channel=0 note=57 velocity=47 time=0.08695649999999999
EXTRACT: note_on channel=0 note=69 velocity=63 time=0
EXTRACT: note_on channel=0 note=61 velocity=63 time=0
EXTRACT: note_off channel=7 note=75 velocity=95 time=0
EXTRACT: note_on channel=7 note=73 velocity=95 time=0
EXTRACT: note_off channel=7 note=73 velocity=95 time=0.08695649999999999
EXTRACT: note_on channel=7 note=71 velocity=95 time=0
EXTRACT: note_off channel=7 note=71 velocity=95 time=0.08695649999999999
EXTRACT: note_on channel=7 note=76 velocity=95 time=0
EXTRACT: note_off channel=0 note=69 velocity=63 time=0.08695649999999999
EXTRACT: note_off channel=0 note=61 velocity=63 time=0
EXTRACT: note_on channel=0 note=57 velocity=47 time=0
EXTRACT: note_off channel=7 note=76 velocity=95 time=0
EXTRACT: note_on channel=7 note=75 velocity=95 time=0
EXTRACT: note_off channel=7 note=75 velocity=95 time=0.08695649999999999
EXTRACT: note_on channel=7 note=73 velocity=95 time=0
EXTRACT: note_off channel=7 note=73 velocity=95 time=0.08695649999999999
EXTRACT: note_on channel=7 note=71 velocity=95 time=0
EXTRACT: note_off channel=0 note=57 velocity=47 time=0.08695649999999999
EXTRACT: note_on channel=0 note=69 velocity=63 time=0
EXTRACT: note_on channel=0 note=61 velocity=47 time=0
EXTRACT: note_off channel=7 note=71 velocity=95 time=0
EXTRACT: pitchwheel channel=7 pitch=0 time=0
EXTRACT: note_on channel=7 note=83 velocity=95 time=0
EXTRACT: pitchwheel channel=7 pitch=0 time=0
EXTRACT: note_on channel=7 note=78 velocity=95 time=0
EXTRACT: pitchwheel channel=7 pitch=128 time=0.023369559374999998
EXTRACT: pitchwheel channel=7 pitch=256 time=0.023369559374999998
EXTRACT: pitchwheel channel=7 pitch=128 time=0.0054347812499999995
EXTRACT: pitchwheel channel=7 pitch=384 time=0.017934778125
EXTRACT: pitchwheel channel=7 pitch=512 time=0.023369559374999998
EXTRACT: pitchwheel channel=7 pitch=256 time=0.010869562499999999
EXTRACT: pitchwheel channel=7 pitch=640 time=0.012499996874999999
EXTRACT: pitchwheel channel=7 pitch=768 time=0.023369559374999998
EXTRACT: pitchwheel channel=7 pitch=384 time=0.01630434375
EXTRACT: pitchwheel channel=7 pitch=896 time=0.007065215624999999
EXTRACT: pitchwheel channel=7 pitch=1024 time=0.023369559374999998
EXTRACT: pitchwheel channel=7 pitch=512 time=0.021739124999999998
EXTRACT: pitchwheel channel=7 pitch=1152 time=0.0016304343749999999
EXTRACT: pitchwheel channel=7 pitch=1280 time=0.023369559374999998
EXTRACT: pitchwheel channel=7 pitch=1408 time=0.023369559374999998
EXTRACT: note_off channel=0 note=69 velocity=63 time=0.0038043468749999997
EXTRACT: note_off channel=0 note=61 velocity=47 time=0
EXTRACT: note_on channel=0 note=57 velocity=63 time=0
EXTRACT: note_off channel=8 note=33 velocity=95 time=0
EXTRACT: note_on channel=8 note=39 velocity=95 time=0
EXTRACT: pitchwheel channel=7 pitch=640 time=0
EXTRACT: pitchwheel channel=7 pitch=640 time=0
EXTRACT: pitchwheel channel=7 pitch=1408 time=0
EXTRACT: note_off channel=0 note=57 velocity=63 time=0.2608695
EXTRACT: note_on channel=0 note=69 velocity=63 time=0
EXTRACT: note_on channel=0 note=61 velocity=47 time=0
EXTRACT: note_off channel=8 note=39 velocity=95 time=0
EXTRACT: note_on channel=8 note=40 velocity=95 time=0
EXTRACT: note_off channel=5 note=33 velocity=95 time=0
EXTRACT: note_on channel=5 note=28 velocity=95 time=0
EXTRACT: pitchwheel channel=7 pitch=640 time=0
EXTRACT: pitchwheel channel=7 pitch=0 time=0
EXTRACT: note_off channel=7 note=83 velocity=95 time=0
EXTRACT: pitchwheel channel=7 pitch=1408 time=0
EXTRACT: pitchwheel channel=7 pitch=0 time=0
EXTRACT: note_off channel=7 note=78 velocity=95 time=0
EXTRACT: note_on channel=7 note=83 velocity=47 time=0
EXTRACT: note_on channel=7 note=78 velocity=47 time=0
EXTRACT: note_on channel=9 note=49 velocity=95 time=0
EXTRACT: note_on channel=9 note=36 velocity=95 time=0
EXTRACT: note_off channel=0 note=69 velocity=63 time=0.2608695
EXTRACT: note_off channel=0 note=61 velocity=47 time=0
EXTRACT: note_on channel=0 note=57 velocity=47 time=0
EXTRACT: note_off channel=5 note=28 velocity=95 time=0
EXTRACT: note_on channel=5 note=28 velocity=95 time=0
EXTRACT: note_off channel=9 note=49 velocity=95 time=0
EXTRACT: note_off channel=9 note=36 velocity=95 time=0
EXTRACT: note_on channel=9 note=57 velocity=95 time=0
EXTRACT: note_on channel=9 note=36 velocity=95 time=0
EXTRACT: note_off channel=0 note=57 velocity=47 time=0.2608695
EXTRACT: note_on channel=0 note=71 velocity=47 time=0
EXTRACT: note_on channel=0 note=64 velocity=47 time=0
EXTRACT: note_off channel=8 note=40 velocity=95 time=0
EXTRACT: note_on channel=8 note=40 velocity=95 time=0
EXTRACT: note_on channel=8 note=28 velocity=95 time=0
EXTRACT: note_off channel=7 note=83 velocity=47 time=0
EXTRACT: note_off channel=7 note=78 velocity=47 time=0
EXTRACT: note_off channel=9 note=57 velocity=95 time=0
EXTRACT: note_off channel=9 note=36 velocity=95 time=0
EXTRACT: note_off channel=0 note=71 velocity=47 time=0.2608695
EXTRACT: note_off channel=0 note=64 velocity=47 time=0
EXTRACT: note_on channel=0 note=59 velocity=95 time=0
EXTRACT: note_off channel=0 note=59 velocity=95 time=0.2608695
EXTRACT: note_on channel=0 note=71 velocity=47 time=0
EXTRACT: note_on channel=0 note=64 velocity=63 time=0
EXTRACT: note_off channel=0 note=71 velocity=47 time=0.2608695
EXTRACT: note_off channel=0 note=64 velocity=63 time=0
EXTRACT: note_on channel=0 note=59 velocity=95 time=0
EXTRACT: note_on channel=11 note=71 velocity=95 time=0
EXTRACT: note_off channel=0 note=59 velocity=95 time=0.2608695
EXTRACT: note_on channel=0 note=71 velocity=47 time=0
EXTRACT: note_on channel=0 note=64 velocity=63 time=0
EXTRACT: note_off channel=11 note=71 velocity=95 time=0
EXTRACT: note_on channel=11 note=80 velocity=95 time=0
EXTRACT: note_off channel=0 note=71 velocity=47 time=0.2608695
EXTRACT: note_off channel=0 note=64 velocity=63 time=0
EXTRACT: note_on channel=0 note=59 velocity=95 time=0
EXTRACT: note_off channel=8 note=40 velocity=95 time=0
EXTRACT: note_off channel=8 note=28 velocity=95 time=0
EXTRACT: note_on channel=8 note=30 velocity=95 time=0
EXTRACT: note_off channel=11 note=80 velocity=95 time=0
EXTRACT: note_on channel=11 note=78 velocity=95 time=0
EXTRACT: note_off channel=5 note=28 velocity=95 time=0
EXTRACT: note_on channel=5 note=30 velocity=95 time=0
EXTRACT: note_off channel=0 note=59 velocity=95 time=0.2608695
EXTRACT: note_on channel=0 note=71 velocity=47 time=0
EXTRACT: note_on channel=0 note=64 velocity=63 time=0
EXTRACT: note_off channel=8 note=30 velocity=95 time=0
EXTRACT: note_on channel=8 note=32 velocity=95 time=0
EXTRACT: note_off channel=11 note=78 velocity=95 time=0
EXTRACT: note_on channel=11 note=80 velocity=95 time=0
EXTRACT: note_off channel=5 note=30 velocity=95 time=0
EXTRACT: note_on channel=5 note=32 velocity=95 time=0
EXTRACT: note_off channel=0 note=71 velocity=47 time=0.2608695
EXTRACT: note_off channel=0 note=64 velocity=63 time=0
EXTRACT: note_on channel=0 note=59 velocity=95 time=0
EXTRACT: note_off channel=8 note=32 velocity=95 time=0
EXTRACT: note_on channel=8 note=47 velocity=95 time=0
EXTRACT: note_on channel=8 note=35 velocity=95 time=0
EXTRACT: note_off channel=11 note=80 velocity=95 time=0
EXTRACT: note_on channel=11 note=76 velocity=95 time=0
EXTRACT: note_off channel=5 note=32 velocity=95 time=0
EXTRACT: note_on channel=5 note=35 velocity=95 time=0
EXTRACT: note_off channel=0 note=59 velocity=95 time=0.2608695
EXTRACT: note_on channel=0 note=71 velocity=47 time=0
EXTRACT: note_on channel=0 note=66 velocity=47 time=0
EXTRACT: note_off channel=11 note=76 velocity=95 time=0
EXTRACT: note_on channel=11 note=78 velocity=95 time=0
EXTRACT: note_off channel=0 note=71 velocity=47 time=0.2608695
EXTRACT: note_off channel=0 note=66 velocity=47 time=0
EXTRACT: note_on channel=0 note=59 velocity=95 time=0
EXTRACT: note_off channel=11 note=78 velocity=95 time=0
EXTRACT: note_on channel=11 note=78 velocity=95 time=0
EXTRACT: note_off channel=0 note=59 velocity=95 time=0.2608695
EXTRACT: note_on channel=0 note=71 velocity=47 time=0
EXTRACT: note_on channel=0 note=66 velocity=47 time=0
EXTRACT: note_off channel=0 note=71 velocity=47 time=0.2608695
EXTRACT: note_off channel=0 note=66 velocity=47 time=0
EXTRACT: note_on channel=0 note=59 velocity=95 time=0
EXTRACT: note_off channel=11 note=78 velocity=95 time=0
EXTRACT: note_on channel=11 note=78 velocity=95 time=0
EXTRACT: note_off channel=11 note=78 velocity=95 time=0.13043475
EXTRACT: note_on channel=11 note=80 velocity=95 time=0
EXTRACT: note_off channel=0 note=59 velocity=95 time=0.13043475
EXTRACT: note_on channel=0 note=71 velocity=63 time=0
EXTRACT: note_on channel=0 note=66 velocity=47 time=0
EXTRACT: note_off channel=0 note=71 velocity=63 time=0.2608695
EXTRACT: note_off channel=0 note=66 velocity=47 time=0
EXTRACT: note_on channel=0 note=59 velocity=95 time=0
EXTRACT: note_off channel=8 note=47 velocity=95 time=0
EXTRACT: note_off channel=8 note=35 velocity=95 time=0
EXTRACT: note_on channel=8 note=37 velocity=95 time=0
EXTRACT: note_off channel=5 note=35 velocity=95 time=0
EXTRACT: note_on channel=5 note=37 velocity=95 time=0
EXTRACT: note_off channel=0 note=59 velocity=95 time=0.2608695
EXTRACT: note_on channel=0 note=71 velocity=47 time=0
EXTRACT: note_on channel=0 note=66 velocity=47 time=0
EXTRACT: note_off channel=8 note=37 velocity=95 time=0
EXTRACT: note_on channel=8 note=39 velocity=95 time=0
EXTRACT: note_off channel=11 note=80 velocity=95 time=0
EXTRACT: note_off channel=5 note=37 velocity=95 time=0
EXTRACT: note_on channel=5 note=39 velocity=95 time=0
EXTRACT: note_off channel=0 note=71 velocity=47 time=0.2608695
EXTRACT: note_off channel=0 note=66 velocity=47 time=0
EXTRACT: note_on channel=0 note=59 velocity=95 time=0
EXTRACT: note_off channel=8 note=39 velocity=95 time=0
EXTRACT: note_on channel=8 note=37 velocity=95 time=0
EXTRACT: note_off channel=5 note=39 velocity=95 time=0
EXTRACT: note_on channel=5 note=37 velocity=95 time=0
EXTRACT: note_off channel=0 note=59 velocity=95 time=0.2608695
EXTRACT: note_on channel=0 note=71 velocity=63 time=0
EXTRACT: note_on channel=0 note=64 velocity=47 time=0
EXTRACT: note_off channel=0 note=71 velocity=63 time=0.2608695
EXTRACT: note_off channel=0 note=64 velocity=47 time=0
EXTRACT: note_on channel=0 note=59 velocity=47 time=0
EXTRACT: note_off channel=0 note=59 velocity=47 time=0.2608695
EXTRACT: note_on channel=0 note=71 velocity=63 time=0
EXTRACT: note_on channel=0 note=64 velocity=63 time=0
EXTRACT: note_off channel=0 note=71 velocity=63 time=0.2608695
EXTRACT: note_off channel=0 note=64 velocity=63 time=0
EXTRACT: note_on channel=0 note=59 velocity=47 time=0
EXTRACT: note_on channel=11 note=64 velocity=95 time=0
EXTRACT: note_off channel=0 note=59 velocity=47 time=0.2608695
EXTRACT: note_on channel=0 note=71 velocity=63 time=0
EXTRACT: note_on channel=0 note=64 velocity=63 time=0
EXTRACT: note_off channel=11 note=64 velocity=95 time=0
EXTRACT: note_on channel=11 note=76 velocity=95 time=0
EXTRACT: note_off channel=11 note=76 velocity=95 time=0.13043475
EXTRACT: note_on channel=11 note=76 velocity=95 time=0
EXTRACT: note_off channel=0 note=71 velocity=63 time=0.13043475
EXTRACT: note_off channel=0 note=64 velocity=63 time=0
EXTRACT: note_on channel=0 note=59 velocity=47 time=0
EXTRACT: note_off channel=8 note=37 velocity=95 time=0
EXTRACT: note_on channel=8 note=39 velocity=95 time=0
EXTRACT: note_off channel=11 note=76 velocity=95 time=0
EXTRACT: note_on channel=11 note=76 velocity=95 time=0
EXTRACT: note_off channel=5 note=37 velocity=95 time=0
EXTRACT: note_on channel=5 note=39 velocity=95 time=0
EXTRACT: note_off channel=0 note=59 velocity=47 time=0.2608695
EXTRACT: note_on channel=0 note=71 velocity=63 time=0
EXTRACT: note_on channel=0 note=64 velocity=47 time=0
EXTRACT: note_off channel=8 note=39 velocity=95 time=0
EXTRACT: note_on channel=8 note=40 velocity=95 time=0
EXTRACT: note_off channel=5 note=39 velocity=95 time=0
EXTRACT: note_on channel=5 note=40 velocity=95 time=0
EXTRACT: note_off channel=0 note=71 velocity=63 time=0.2608695
EXTRACT: note_off channel=0 note=64 velocity=47 time=0
EXTRACT: note_on channel=0 note=59 velocity=47 time=0
EXTRACT: note_off channel=8 note=40 velocity=95 time=0
EXTRACT: note_on channel=8 note=33 velocity=95 time=0
EXTRACT: note_off channel=11 note=76 velocity=95 time=0
EXTRACT: note_on channel=11 note=76 velocity=95 time=0
EXTRACT: note_off channel=5 note=40 velocity=95 time=0
EXTRACT: note_on channel=5 note=33 velocity=95 time=0
EXTRACT: note_off channel=0 note=59 velocity=47 time=0.2608695
EXTRACT: note_on channel=0 note=69 velocity=47 time=0
EXTRACT: note_on channel=0 note=61 velocity=47 time=0
EXTRACT: note_off channel=11 note=76 velocity=95 time=0
EXTRACT: note_on channel=11 note=83 velocity=95 time=0
EXTRACT: note_off channel=0 note=69 velocity=47 time=0.2608695
EXTRACT: note_off channel=0 note=61 velocity=47 time=0
EXTRACT: note_on channel=0 note=57 velocity=47 time=0
EXTRACT: note_off channel=0 note=57 velocity=47 time=0.2608695
EXTRACT: note_on channel=0 note=69 velocity=63 time=0
EXTRACT: note_on channel=0 note=61 velocity=63 time=0
EXTRACT: note_off channel=11 note=83 velocity=95 time=0
EXTRACT: note_on channel=11 note=83 velocity=95 time=0
EXTRACT: note_off channel=0 note=69 velocity=63 time=0.2608695
EXTRACT: note_off channel=0 note=61 velocity=63 time=0
EXTRACT: note_on channel=0 note=57 velocity=47 time=0
EXTRACT: note_off channel=11 note=83 velocity=95 time=0
EXTRACT: note_on channel=11 note=80 velocity=95 time=0
EXTRACT: note_off channel=0 note=57 velocity=47 time=0.2608695
EXTRACT: note_on channel=0 note=69 velocity=63 time=0
EXTRACT: note_on channel=0 note=61 velocity=47 time=0
EXTRACT: note_off channel=0 note=69 velocity=63 time=0.2608695
EXTRACT: note_off channel=0 note=61 velocity=47 time=0
EXTRACT: note_on channel=0 note=57 velocity=63 time=0
EXTRACT: note_off channel=8 note=33 velocity=95 time=0
EXTRACT: note_on channel=8 note=39 velocity=95 time=0
EXTRACT: note_off channel=11 note=80 velocity=95 time=0
EXTRACT: note_on channel=11 note=78 velocity=95 time=0
EXTRACT: note_off channel=5 note=33 velocity=95 time=0
EXTRACT: note_on channel=5 note=39 velocity=95 time=0
EXTRACT: note_off channel=0 note=57 velocity=63 time=0.2608695
EXTRACT: note_on channel=0 note=69 velocity=63 time=0
EXTRACT: note_on channel=0 note=61 velocity=47 time=0
EXTRACT: note_off channel=8 note=39 velocity=95 time=0
EXTRACT: note_on channel=8 note=40 velocity=95 time=0
EXTRACT: note_off channel=5 note=39 velocity=95 time=0
EXTRACT: note_on channel=5 note=40 velocity=95 time=0
EXTRACT: note_off channel=0 note=69 velocity=63 time=0.2608695
EXTRACT: note_off channel=0 note=61 velocity=47 time=0
EXTRACT: note_on channel=0 note=57 velocity=47 time=0
EXTRACT: note_off channel=8 note=40 velocity=95 time=0
EXTRACT: note_on channel=8 note=28 velocity=95 time=0
EXTRACT: note_off channel=5 note=40 velocity=95 time=0
EXTRACT: note_on channel=5 note=28 velocity=95 time=0
EXTRACT: note_off channel=0 note=57 velocity=47 time=0.2608695
EXTRACT: note_on channel=0 note=71 velocity=47 time=0
EXTRACT: note_on channel=0 note=64 velocity=47 time=0
EXTRACT: note_off channel=11 note=78 velocity=95 time=0
EXTRACT: note_off channel=0 note=71 velocity=47 time=0.2608695
EXTRACT: note_off channel=0 note=64 velocity=47 time=0
EXTRACT: note_on channel=0 note=59 velocity=95 time=0
EXTRACT: note_off channel=0 note=59 velocity=95 time=0.2608695
EXTRACT: note_on channel=0 note=71 velocity=47 time=0
EXTRACT: note_on channel=0 note=64 velocity=63 time=0
EXTRACT: note_on channel=11 note=80 velocity=95 time=0
EXTRACT: note_off channel=0 note=71 velocity=47 time=0.2608695
EXTRACT: note_off channel=0 note=64 velocity=63 time=0
EXTRACT: note_on channel=0 note=59 velocity=95 time=0
EXTRACT: note_off channel=11 note=80 velocity=95 time=0
EXTRACT: note_on channel=11 note=78 velocity=95 time=0
EXTRACT: note_off channel=0 note=59 velocity=95 time=0.2608695
EXTRACT: note_on channel=0 note=71 velocity=47 time=0
EXTRACT: note_on channel=0 note=64 velocity=63 time=0
EXTRACT: note_off channel=11 note=78 velocity=95 time=0
EXTRACT: note_on channel=11 note=80 velocity=95 time=0
EXTRACT: note_off channel=0 note=71 velocity=47 time=0.2608695
EXTRACT: note_off channel=0 note=64 velocity=63 time=0
EXTRACT: note_on channel=0 note=59 velocity=95 time=0
EXTRACT: note_off channel=8 note=28 velocity=95 time=0
EXTRACT: note_on channel=8 note=30 velocity=95 time=0
EXTRACT: note_off channel=11 note=80 velocity=95 time=0
EXTRACT: note_on channel=11 note=78 velocity=95 time=0
EXTRACT: note_off channel=5 note=28 velocity=95 time=0
EXTRACT: note_on channel=5 note=30 velocity=95 time=0
EXTRACT: note_off channel=0 note=59 velocity=95 time=0.2608695
EXTRACT: note_on channel=0 note=71 velocity=47 time=0
EXTRACT: note_on channel=0 note=64 velocity=63 time=0
EXTRACT: note_off channel=8 note=30 velocity=95 time=0
EXTRACT: note_on channel=8 note=32 velocity=95 time=0
EXTRACT: note_off channel=11 note=78 velocity=95 time=0
EXTRACT: note_on channel=11 note=80 velocity=95 time=0
EXTRACT: note_off channel=5 note=30 velocity=95 time=0
EXTRACT: note_on channel=5 note=32 velocity=95 time=0
EXTRACT: note_off channel=0 note=71 velocity=47 time=0.2608695
EXTRACT: note_off channel=0 note=64 velocity=63 time=0
EXTRACT: note_on channel=0 note=59 velocity=95 time=0
EXTRACT: note_off channel=8 note=32 velocity=95 time=0
EXTRACT: note_on channel=8 note=35 velocity=95 time=0
EXTRACT: note_off channel=11 note=80 velocity=95 time=0
EXTRACT: note_on channel=11 note=76 velocity=95 time=0
EXTRACT: note_off channel=5 note=32 velocity=95 time=0
EXTRACT: note_on channel=5 note=35 velocity=95 time=0
EXTRACT: note_off channel=0 note=59 velocity=95 time=0.2608695
EXTRACT: note_on channel=0 note=71 velocity=47 time=0
EXTRACT: note_on channel=0 note=66 velocity=47 time=0
EXTRACT: note_off channel=11 note=76 velocity=95 time=0
EXTRACT: note_on channel=11 note=78 velocity=95 time=0
EXTRACT: note_off channel=0 note=71 velocity=47 time=0.2608695
EXTRACT: note_off channel=0 note=66 velocity=47 time=0
EXTRACT: note_on channel=0 note=59 velocity=95 time=0
EXTRACT: note_off channel=0 note=59 velocity=95 time=0.2608695
EXTRACT: note_on channel=0 note=71 velocity=47 time=0
EXTRACT: note_on channel=0 note=66 velocity=47 time=0
EXTRACT: note_off channel=11 note=78 velocity=95 time=0
EXTRACT: note_on channel=11 note=78 velocity=95 time=0
EXTRACT: note_off channel=0 note=71 velocity=47 time=0.2608695
EXTRACT: note_off channel=0 note=66 velocity=47 time=0
EXTRACT: note_on channel=0 note=59 velocity=95 time=0
EXTRACT: note_off channel=11 note=78 velocity=95 time=0
EXTRACT: note_on channel=11 note=78 velocity=95 time=0
EXTRACT: note_off channel=11 note=78 velocity=95 time=0.13043475
EXTRACT: note_on channel=11 note=80 velocity=95 time=0
EXTRACT: note_off channel=0 note=59 velocity=95 time=0.13043475
EXTRACT: note_on channel=0 note=71 velocity=63 time=0
EXTRACT: note_on channel=0 note=66 velocity=47 time=0
EXTRACT: note_off channel=11 note=80 velocity=95 time=0
EXTRACT: note_off channel=0 note=71 velocity=63 time=0.2608695
EXTRACT: note_off channel=0 note=66 velocity=47 time=0
EXTRACT: note_on channel=0 note=59 velocity=95 time=0
EXTRACT: note_off channel=8 note=35 velocity=95 time=0
EXTRACT: note_on channel=8 note=37 velocity=95 time=0
EXTRACT: note_off channel=5 note=35 velocity=95 time=0
EXTRACT: note_on channel=5 note=37 velocity=95 time=0
EXTRACT: note_on channel=11 note=78 velocity=95 time=0.08695649999999999
EXTRACT: note_off channel=0 note=59 velocity=95 time=0.17391299999999998
EXTRACT: note_on channel=0 note=71 velocity=47 time=0
EXTRACT: note_on channel=0 note=66 velocity=47 time=0
EXTRACT: note_off channel=8 note=37 velocity=95 time=0
EXTRACT: note_on channel=8 note=39 velocity=95 time=0
EXTRACT: note_off channel=5 note=37 velocity=95 time=0
EXTRACT: note_on channel=5 note=39 velocity=95 time=0
EXTRACT: note_off channel=11 note=78 velocity=95 time=0.17391299999999998
EXTRACT: note_on channel=11 note=76 velocity=95 time=0
EXTRACT: note_off channel=0 note=71 velocity=47 time=0.08695649999999999
EXTRACT: note_off channel=0 note=66 velocity=47 time=0
EXTRACT: note_on channel=0 note=59 velocity=95 time=0
EXTRACT: note_off channel=8 note=39 velocity=95 time=0
EXTRACT: note_on channel=8 note=32 velocity=95 time=0
EXTRACT: note_off channel=5 note=39 velocity=95 time=0
EXTRACT: note_on channel=5 note=32 velocity=95 time=0
EXTRACT: note_off channel=0 note=59 velocity=95 time=0.2608695
EXTRACT: note_on channel=0 note=71 velocity=63 time=0
EXTRACT: note_on channel=0 note=63 velocity=47 time=0
EXTRACT: note_off channel=11 note=76 velocity=95 time=0
EXTRACT: note_on channel=11 note=78 velocity=95 time=0
EXTRACT: note_on channel=9 note=41 velocity=15 time=0
EXTRACT: note_on channel=9 note=40 velocity=15 time=0
EXTRACT: note_on channel=9 note=36 velocity=15 time=0
EXTRACT: note_off channel=0 note=71 velocity=63 time=0.2608695
EXTRACT: note_off channel=0 note=63 velocity=47 time=0
EXTRACT: note_on channel=0 note=59 velocity=47 time=0
EXTRACT: note_off channel=9 note=41 velocity=15 time=0
EXTRACT: note_off channel=9 note=40 velocity=15 time=0
EXTRACT: note_off channel=9 note=36 velocity=15 time=0
EXTRACT: note_on channel=9 note=41 velocity=15 time=0
EXTRACT: note_on channel=9 note=40 velocity=15 time=0
EXTRACT: note_on channel=9 note=36 velocity=15 time=0
EXTRACT: note_off channel=0 note=59 velocity=47 time=0.2608695
EXTRACT: note_on channel=0 note=71 velocity=63 time=0
EXTRACT: note_on channel=0 note=63 velocity=63 time=0
EXTRACT: note_off channel=11 note=78 velocity=95 time=0
EXTRACT: note_on channel=11 note=80 velocity=95 time=0
EXTRACT: note_off channel=9 note=41 velocity=15 time=0
EXTRACT: note_off channel=9 note=40 velocity=15 time=0
EXTRACT: note_off channel=9 note=36 velocity=15 time=0
EXTRACT: note_on channel=9 note=41 velocity=31 time=0
EXTRACT: note_on channel=9 note=40 velocity=31 time=0
EXTRACT: note_on channel=9 note=36 velocity=31 time=0
EXTRACT: note_off channel=0 note=71 velocity=63 time=0.2608695
EXTRACT: note_off channel=0 note=63 velocity=63 time=0
EXTRACT: note_on channel=0 note=59 velocity=47 time=0
EXTRACT: note_off channel=11 note=80 velocity=95 time=0
EXTRACT: note_on channel=11 note=78 velocity=95 time=0
EXTRACT: note_off channel=9 note=41 velocity=31 time=0
EXTRACT: note_off channel=9 note=40 velocity=31 time=0
EXTRACT: note_off channel=9 note=36 velocity=31 time=0
EXTRACT: note_on channel=9 note=41 velocity=31 time=0
EXTRACT: note_on channel=9 note=40 velocity=31 time=0
EXTRACT: note_on channel=9 note=36 velocity=31 time=0
EXTRACT: note_off channel=0 note=59 velocity=47 time=0.2608695
EXTRACT: note_on channel=0 note=71 velocity=63 time=0
EXTRACT: note_on channel=0 note=63 velocity=63 time=0
EXTRACT: note_off channel=9 note=41 velocity=31 time=0
EXTRACT: note_off channel=9 note=40 velocity=31 time=0
EXTRACT: note_off channel=9 note=36 velocity=31 time=0
EXTRACT: note_on channel=9 note=41 velocity=31 time=0
EXTRACT: note_on channel=9 note=40 velocity=31 time=0
EXTRACT: note_on channel=9 note=36 velocity=31 time=0
EXTRACT: note_off channel=0 note=71 velocity=63 time=0.2608695
EXTRACT: note_off channel=0 note=63 velocity=63 time=0
EXTRACT: note_on channel=0 note=59 velocity=47 time=0
EXTRACT: note_off channel=9 note=41 velocity=31 time=0
EXTRACT: note_off channel=9 note=40 velocity=31 time=0
EXTRACT: note_off channel=9 note=36 velocity=31 time=0
EXTRACT: note_on channel=9 note=41 velocity=47 time=0
EXTRACT: note_on channel=9 note=40 velocity=47 time=0
EXTRACT: note_on channel=9 note=36 velocity=47 time=0
EXTRACT: note_off channel=0 note=59 velocity=47 time=0.2608695
EXTRACT: note_on channel=0 note=71 velocity=63 time=0
EXTRACT: note_on channel=0 note=63 velocity=47 time=0
EXTRACT: note_off channel=8 note=32 velocity=95 time=0
EXTRACT: note_on channel=8 note=32 velocity=95 time=0
EXTRACT: note_off channel=11 note=78 velocity=95 time=0
EXTRACT: note_on channel=11 note=80 velocity=95 time=0
EXTRACT: note_off channel=5 note=32 velocity=95 time=0
EXTRACT: note_on channel=5 note=32 velocity=95 time=0
EXTRACT: note_off channel=9 note=41 velocity=47 time=0
EXTRACT: note_off channel=9 note=40 velocity=47 time=0
EXTRACT: note_off channel=9 note=36 velocity=47 time=0
EXTRACT: note_on channel=9 note=41 velocity=47 time=0
EXTRACT: note_on channel=9 note=40 velocity=47 time=0
EXTRACT: note_on channel=9 note=36 velocity=47 time=0
EXTRACT: note_off channel=0 note=71 velocity=63 time=0.2608695
EXTRACT: note_off channel=0 note=63 velocity=47 time=0
EXTRACT: note_on channel=0 note=59 velocity=47 time=0
EXTRACT: note_off channel=8 note=32 velocity=95 time=0
EXTRACT: note_on channel=8 note=33 velocity=95 time=0
EXTRACT: note_off channel=11 note=80 velocity=95 time=0
EXTRACT: note_on channel=11 note=78 velocity=95 time=0
EXTRACT: note_off channel=5 note=32 velocity=95 time=0
EXTRACT: note_on channel=5 note=33 velocity=95 time=0
EXTRACT: note_off channel=9 note=41 velocity=47 time=0
EXTRACT: note_off channel=9 note=40 velocity=47 time=0
EXTRACT: note_off channel=9 note=36 velocity=47 time=0
EXTRACT: note_on channel=9 note=41 velocity=47 time=0
EXTRACT: note_on channel=9 note=40 velocity=47 time=0
EXTRACT: note_on channel=9 note=36 velocity=47 time=0
EXTRACT: note_off channel=0 note=59 velocity=47 time=0.2608695
EXTRACT: note_on channel=0 note=69 velocity=47 time=0
EXTRACT: note_on channel=0 note=61 velocity=47 time=0
EXTRACT: note_off channel=9 note=41 velocity=47 time=0
EXTRACT: note_off channel=9 note=40 velocity=47 time=0
EXTRACT: note_off channel=9 note=36 velocity=47 time=0
EXTRACT: note_on channel=9 note=41 velocity=63 time=0
EXTRACT: note_on channel=9 note=40 velocity=63 time=0
EXTRACT: note_on channel=9 note=36 velocity=63 time=0
EXTRACT: note_off channel=0 note=69 velocity=47 time=0.2608695
EXTRACT: note_off channel=0 note=61 velocity=47 time=0
EXTRACT: note_on channel=0 note=57 velocity=47 time=0
EXTRACT: note_off channel=9 note=41 velocity=63 time=0
EXTRACT: note_off channel=9 note=40 velocity=63 time=0
EXTRACT: note_off channel=9 note=36 velocity=63 time=0
EXTRACT: note_on channel=9 note=41 velocity=63 time=0
EXTRACT: note_on channel=9 note=40 velocity=63 time=0
EXTRACT: note_on channel=9 note=36 velocity=63 time=0
EXTRACT: note_off channel=0 note=57 velocity=47 time=0.2608695
EXTRACT: note_on channel=0 note=69 velocity=63 time=0
EXTRACT: note_on channel=0 note=61 velocity=63 time=0
EXTRACT: note_off channel=11 note=78 velocity=95 time=0
EXTRACT: note_on channel=11 note=80 velocity=95 time=0
EXTRACT: note_off channel=9 note=41 velocity=63 time=0
EXTRACT: note_off channel=9 note=40 velocity=63 time=0
EXTRACT: note_off channel=9 note=36 velocity=63 time=0
EXTRACT: note_on channel=9 note=41 velocity=63 time=0
EXTRACT: note_on channel=9 note=40 velocity=63 time=0
EXTRACT: note_on channel=9 note=36 velocity=63 time=0
EXTRACT: note_off channel=0 note=69 velocity=63 time=0.2608695
EXTRACT: note_off channel=0 note=61 velocity=63 time=0
EXTRACT: note_on channel=0 note=57 velocity=47 time=0
EXTRACT: note_off channel=11 note=80 velocity=95 time=0
EXTRACT: note_on channel=11 note=80 velocity=95 time=0
EXTRACT: note_off channel=9 note=41 velocity=63 time=0
EXTRACT: note_off channel=9 note=40 velocity=63 time=0
EXTRACT: note_off channel=9 note=36 velocity=63 time=0
EXTRACT: note_on channel=9 note=41 velocity=79 time=0
EXTRACT: note_on channel=9 note=40 velocity=79 time=0
EXTRACT: note_on channel=9 note=36 velocity=79 time=0
EXTRACT: note_off channel=11 note=80 velocity=95 time=0.13043475
EXTRACT: note_on channel=11 note=78 velocity=95 time=0
EXTRACT: note_off channel=0 note=57 velocity=47 time=0.13043475
EXTRACT: note_on channel=0 note=69 velocity=63 time=0
EXTRACT: note_on channel=0 note=61 velocity=47 time=0
EXTRACT: note_off channel=11 note=78 velocity=95 time=0
EXTRACT: note_on channel=11 note=76 velocity=95 time=0
EXTRACT: note_off channel=9 note=41 velocity=79 time=0
EXTRACT: note_off channel=9 note=40 velocity=79 time=0
EXTRACT: note_off channel=9 note=36 velocity=79 time=0
EXTRACT: note_on channel=9 note=41 velocity=79 time=0
EXTRACT: note_on channel=9 note=40 velocity=79 time=0
EXTRACT: note_on channel=9 note=36 velocity=79 time=0
EXTRACT: note_off channel=0 note=69 velocity=63 time=0.2608695
EXTRACT: note_off channel=0 note=61 velocity=47 time=0
EXTRACT: note_on channel=0 note=57 velocity=63 time=0
EXTRACT: note_off channel=8 note=33 velocity=95 time=0
EXTRACT: note_on channel=8 note=39 velocity=95 time=0
EXTRACT: note_off channel=5 note=33 velocity=95 time=0
EXTRACT: note_on channel=5 note=39 velocity=95 time=0
EXTRACT: note_off channel=9 note=41 velocity=79 time=0
EXTRACT: note_off channel=9 note=40 velocity=79 time=0
EXTRACT: note_off channel=9 note=36 velocity=79 time=0
EXTRACT: note_on channel=9 note=41 velocity=95 time=0
EXTRACT: note_on channel=9 note=40 velocity=95 time=0
EXTRACT: note_on channel=9 note=36 velocity=95 time=0
EXTRACT: note_off channel=0 note=57 velocity=63 time=0.2608695
EXTRACT: note_on channel=0 note=69 velocity=63 time=0
EXTRACT: note_on channel=0 note=61 velocity=47 time=0
EXTRACT: note_off channel=8 note=39 velocity=95 time=0
EXTRACT: note_on channel=8 note=40 velocity=95 time=0
EXTRACT: note_off channel=5 note=39 velocity=95 time=0
EXTRACT: note_on channel=5 note=40 velocity=95 time=0
EXTRACT: note_off channel=9 note=41 velocity=95 time=0
EXTRACT: note_off channel=9 note=40 velocity=95 time=0
EXTRACT: note_off channel=9 note=36 velocity=95 time=0
EXTRACT: note_on channel=9 note=41 velocity=111 time=0
EXTRACT: note_on channel=9 note=40 velocity=111 time=0
EXTRACT: note_on channel=9 note=36 velocity=111 time=0
EXTRACT: note_off channel=0 note=69 velocity=63 time=0.2608695
EXTRACT: note_off channel=0 note=61 velocity=47 time=0
EXTRACT: note_on channel=0 note=57 velocity=47 time=0
EXTRACT: note_off channel=9 note=41 velocity=111 time=0
EXTRACT: note_off channel=9 note=40 velocity=111 time=0
EXTRACT: note_off channel=9 note=36 velocity=111 time=0
EXTRACT: note_on channel=9 note=41 velocity=111 time=0
EXTRACT: note_on channel=9 note=40 velocity=111 time=0
EXTRACT: note_on channel=9 note=36 velocity=111 time=0
EXTRACT: note_off channel=0 note=57 velocity=47 time=0.2608695
EXTRACT: note_on channel=0 note=75 velocity=95 time=0
EXTRACT: note_on channel=0 note=71 velocity=95 time=0
EXTRACT: note_on channel=0 note=66 velocity=95 time=0
EXTRACT: note_off channel=8 note=40 velocity=95 time=0
EXTRACT: note_on channel=8 note=33 velocity=95 time=0
EXTRACT: note_off channel=11 note=76 velocity=95 time=0
EXTRACT: note_on channel=11 note=78 velocity=95 time=0
EXTRACT: note_on channel=11 note=75 velocity=95 time=0
EXTRACT: note_on channel=11 note=71 velocity=95 time=0
EXTRACT: note_off channel=5 note=40 velocity=95 time=0
EXTRACT: note_on channel=5 note=33 velocity=95 time=0
EXTRACT: note_on channel=7 note=75 velocity=95 time=0
EXTRACT: note_on channel=7 note=71 velocity=95 time=0
EXTRACT: note_on channel=7 note=66 velocity=95 time=0
EXTRACT: note_off channel=9 note=41 velocity=111 time=0
EXTRACT: note_off channel=9 note=40 velocity=111 time=0
EXTRACT: note_off channel=9 note=36 velocity=111 time=0
EXTRACT: note_on channel=9 note=49 velocity=95 time=0
EXTRACT: note_on channel=9 note=42 velocity=95 time=0
EXTRACT: note_on channel=9 note=36 velocity=95 time=0
EXTRACT: note_off channel=0 note=75 velocity=95 time=0.2608695
EXTRACT: note_off channel=0 note=71 velocity=95 time=0
EXTRACT: note_off channel=0 note=66 velocity=95 time=0
EXTRACT: note_on channel=0 note=45 velocity=95 time=0
EXTRACT: note_off channel=8 note=33 velocity=95 time=0
EXTRACT: note_on channel=8 note=33 velocity=95 time=0
EXTRACT: note_off channel=5 note=33 velocity=95 time=0
EXTRACT: note_on channel=5 note=33 velocity=95 time=0
EXTRACT: note_off channel=7 note=75 velocity=95 time=0
EXTRACT: note_off channel=7 note=71 velocity=95 time=0
EXTRACT: note_off channel=7 note=66 velocity=95 time=0
EXTRACT: note_on channel=7 note=45 velocity=95 time=0
EXTRACT: note_on channel=13 note=45 velocity=95 time=0
EXTRACT: note_off channel=9 note=49 velocity=95 time=0
EXTRACT: note_off channel=9 note=42 velocity=95 time=0
EXTRACT: note_off channel=9 note=36 velocity=95 time=0
EXTRACT: note_on channel=9 note=42 velocity=95 time=0
EXTRACT: note_off channel=0 note=45 velocity=95 time=0.2608695
EXTRACT: note_on channel=0 note=45 velocity=95 time=0
EXTRACT: note_off channel=8 note=33 velocity=95 time=0
EXTRACT: note_on channel=8 note=33 velocity=95 time=0
EXTRACT: note_off channel=5 note=33 velocity=95 time=0
EXTRACT: note_on channel=5 note=33 velocity=95 time=0
EXTRACT: note_off channel=7 note=45 velocity=95 time=0
EXTRACT: note_on channel=7 note=45 velocity=95 time=0
EXTRACT: note_off channel=13 note=45 velocity=95 time=0
EXTRACT: note_on channel=13 note=45 velocity=95 time=0
EXTRACT: note_off channel=9 note=42 velocity=95 time=0
EXTRACT: note_on channel=9 note=42 velocity=95 time=0
EXTRACT: note_on channel=9 note=40 velocity=95 time=0
EXTRACT: note_on channel=0 note=73 velocity=95 time=0.2608695
EXTRACT: note_on channel=0 note=69 velocity=95 time=0
EXTRACT: note_on channel=0 note=64 velocity=95 time=0
EXTRACT: note_off channel=8 note=33 velocity=95 time=0
EXTRACT: note_on channel=8 note=33 velocity=95 time=0
EXTRACT: note_off channel=11 note=78 velocity=95 time=0
EXTRACT: note_off channel=11 note=75 velocity=95 time=0
EXTRACT: note_off channel=11 note=71 velocity=95 time=0
EXTRACT: note_on channel=11 note=76 velocity=95 time=0
EXTRACT: note_on channel=11 note=73 velocity=95 time=0
EXTRACT: note_on channel=11 note=69 velocity=95 time=0
EXTRACT: note_off channel=5 note=33 velocity=95 time=0
EXTRACT: note_on channel=5 note=33 velocity=95 time=0
EXTRACT: note_on channel=7 note=73 velocity=95 time=0
EXTRACT: note_on channel=7 note=69 velocity=95 time=0
EXTRACT: note_on channel=7 note=64 velocity=95 time=0
EXTRACT: note_off channel=13 note=45 velocity=95 time=0
EXTRACT: note_off channel=9 note=42 velocity=95 time=0
EXTRACT: note_off channel=9 note=40 velocity=95 time=0
EXTRACT: note_on channel=9 note=42 velocity=95 time=0
EXTRACT: note_off channel=0 note=45 velocity=95 time=0.2608695
EXTRACT: note_off channel=0 note=73 velocity=95 time=0
EXTRACT: note_off channel=0 note=69 velocity=95 time=0
EXTRACT: note_off channel=0 note=64 velocity=95 time=0
EXTRACT: note_on channel=0 note=45 velocity=95 time=0
EXTRACT: note_off channel=8 note=33 velocity=95 time=0
EXTRACT: note_on channel=8 note=33 velocity=95 time=0
EXTRACT: note_off channel=5 note=33 velocity=95 time=0
EXTRACT: note_on channel=5 note=33 velocity=95 time=0
EXTRACT: note_off channel=7 note=45 velocity=95 time=0
EXTRACT: note_off channel=7 note=73 velocity=95 time=0
EXTRACT: note_off channel=7 note=69 velocity=95 time=0
EXTRACT: note_off channel=7 note=64 velocity=95 time=0
EXTRACT: note_on channel=7 note=45 velocity=95 time=0
EXTRACT: note_on channel=13 note=45 velocity=95 time=0
EXTRACT: note_off channel=9 note=42 velocity=95 time=0
EXTRACT: note_on channel=9 note=42 velocity=95 time=0
EXTRACT: note_on channel=9 note=36 velocity=95 time=0
EXTRACT: note_off channel=0 note=45 velocity=95 time=0.2608695
EXTRACT: note_on channel=0 note=45 velocity=95 time=0
EXTRACT: note_off channel=8 note=33 velocity=95 time=0
EXTRACT: note_on channel=8 note=33 velocity=95 time=0
EXTRACT: note_off channel=5 note=33 velocity=95 time=0
EXTRACT: note_on channel=5 note=33 velocity=95 time=0
EXTRACT: note_off channel=7 note=45 velocity=95 time=0
EXTRACT: note_on channel=7 note=45 velocity=95 time=0
EXTRACT: note_off channel=13 note=45 velocity=95 time=0
EXTRACT: note_on channel=13 note=45 velocity=95 time=0
EXTRACT: note_off channel=9 note=42 velocity=95 time=0
EXTRACT: note_off channel=9 note=36 velocity=95 time=0
EXTRACT: note_on channel=9 note=42 velocity=95 time=0
EXTRACT: note_off channel=0 note=45 velocity=95 time=0.2608695
EXTRACT: note_on channel=0 note=45 velocity=95 time=0
EXTRACT: note_off channel=8 note=33 velocity=95 time=0
EXTRACT: note_on channel=8 note=33 velocity=95 time=0
EXTRACT: note_off channel=11 note=76 velocity=95 time=0
EXTRACT: note_off channel=11 note=73 velocity=95 time=0
EXTRACT: note_off channel=11 note=69 velocity=95 time=0
EXTRACT: note_off channel=5 note=33 velocity=95 time=0
EXTRACT: note_on channel=5 note=33 velocity=95 time=0
EXTRACT: note_off channel=7 note=45 velocity=95 time=0
EXTRACT: note_on channel=7 note=45 velocity=95 time=0
EXTRACT: note_off channel=13 note=45 velocity=95 time=0
EXTRACT: note_on channel=13 note=45 velocity=95 time=0
EXTRACT: note_off channel=9 note=42 velocity=95 time=0
EXTRACT: note_on channel=9 note=42 velocity=127 time=0
EXTRACT: note_on channel=9 note=43 velocity=127 time=0
EXTRACT: note_on channel=9 note=36 velocity=95 time=0
EXTRACT: note_off channel=0 note=45 velocity=95 time=0.2608695
EXTRACT: note_on channel=0 note=45 velocity=95 time=0
EXTRACT: note_off channel=8 note=33 velocity=95 time=0
EXTRACT: note_on channel=8 note=33 velocity=95 time=0
EXTRACT: note_off channel=5 note=33 velocity=95 time=0
EXTRACT: note_on channel=5 note=33 velocity=95 time=0
EXTRACT: note_off channel=7 note=45 velocity=95 time=0
EXTRACT: note_on channel=7 note=45 velocity=95 time=0
EXTRACT: note_off channel=13 note=45 velocity=95 time=0
EXTRACT: note_on channel=13 note=45 velocity=95 time=0
EXTRACT: note_off channel=9 note=42 velocity=127 time=0
EXTRACT: note_off channel=9 note=43 velocity=127 time=0
EXTRACT: note_off channel=9 note=36 velocity=95 time=0
EXTRACT: note_on channel=9 note=42 velocity=95 time=0
EXTRACT: note_off channel=0 note=45 velocity=95 time=0.2608695
EXTRACT: note_on channel=0 note=75 velocity=95 time=0
EXTRACT: note_on channel=0 note=71 velocity=95 time=0
EXTRACT: note_on channel=0 note=66 velocity=95 time=0
EXTRACT: note_off channel=8 note=33 velocity=95 time=0
EXTRACT: note_on channel=8 note=33 velocity=95 time=0
EXTRACT: note_on channel=11 note=78 velocity=95 time=0
EXTRACT: note_on channel=11 note=75 velocity=95 time=0
EXTRACT: note_on channel=11 note=71 velocity=95 time=0
EXTRACT: note_off channel=5 note=33 velocity=95 time=0
EXTRACT: note_on channel=6 note=42 velocity=95 time=0
EXTRACT: note_off channel=7 note=45 velocity=95 time=0
EXTRACT: note_on channel=7 note=75 velocity=95 time=0
EXTRACT: note_on channel=7 note=71 velocity=95 time=0
EXTRACT: note_on channel=7 note=66 velocity=95 time=0
EXTRACT: note_off channel=13 note=45 velocity=95 time=0
EXTRACT: note_off channel=9 note=42 velocity=95 time=0
EXTRACT: note_on channel=9 note=42 velocity=95 time=0
EXTRACT: note_on channel=9 note=36 velocity=95 time=0
EXTRACT: pitchwheel channel=6 pitch=-256 time=0.065217375
EXTRACT: pitchwheel channel=6 pitch=-640 time=0.065217375
EXTRACT: pitchwheel channel=6 pitch=-1024 time=0.065217375
EXTRACT: note_off channel=0 note=75 velocity=95 time=0.065217375
EXTRACT: note_off channel=0 note=71 velocity=95 time=0
EXTRACT: note_off channel=0 note=66 velocity=95 time=0
EXTRACT: note_on channel=0 note=45 velocity=95 time=0
EXTRACT: note_off channel=8 note=33 velocity=95 time=0
EXTRACT: note_on channel=8 note=33 velocity=95 time=0
EXTRACT: pitchwheel channel=6 pitch=-1408 time=0
EXTRACT: pitchwheel channel=6 pitch=0 time=0
EXTRACT: note_off channel=6 note=42 velocity=95 time=0
EXTRACT: note_on channel=5 note=40 velocity=95 time=0
EXTRACT: note_off channel=7 note=75 velocity=95 time=0
EXTRACT: note_off channel=7 note=71 velocity=95 time=0
EXTRACT: note_off channel=7 note=66 velocity=95 time=0
EXTRACT: note_on channel=7 note=45 velocity=95 time=0
EXTRACT: note_on channel=13 note=45 velocity=95 time=0
EXTRACT: note_off channel=9 note=42 velocity=95 time=0
EXTRACT: note_off channel=9 note=36 velocity=95 time=0
EXTRACT: note_on channel=9 note=42 velocity=95 time=0
EXTRACT: note_off channel=0 note=45 velocity=95 time=0.2608695
EXTRACT: note_on channel=0 note=45 velocity=95 time=0
EXTRACT: note_off channel=8 note=33 velocity=95 time=0
EXTRACT: note_on channel=8 note=33 velocity=95 time=0
EXTRACT: note_off channel=5 note=40 velocity=95 time=0
EXTRACT: note_on channel=5 note=33 velocity=95 time=0
EXTRACT: note_off channel=7 note=45 velocity=95 time=0
EXTRACT: note_on channel=7 note=45 velocity=95 time=0
EXTRACT: note_off channel=13 note=45 velocity=95 time=0
EXTRACT: note_on channel=13 note=45 velocity=95 time=0
EXTRACT: note_off channel=9 note=42 velocity=95 time=0
EXTRACT: note_on channel=9 note=42 velocity=95 time=0
EXTRACT: note_on channel=9 note=40 velocity=95 time=0
EXTRACT: note_on channel=0 note=76 velocity=95 time=0.2608695
EXTRACT: note_on channel=0 note=71 velocity=95 time=0
EXTRACT: note_on channel=0 note=68 velocity=95 time=0
EXTRACT: note_off channel=8 note=33 velocity=95 time=0
EXTRACT: note_on channel=8 note=33 velocity=95 time=0
EXTRACT: note_off channel=11 note=78 velocity=95 time=0
EXTRACT: note_off channel=11 note=75 velocity=95 time=0
EXTRACT: note_off channel=11 note=71 velocity=95 time=0
EXTRACT: note_on channel=11 note=80 velocity=95 time=0
EXTRACT: note_on channel=11 note=76 velocity=95 time=0
EXTRACT: note_on channel=11 note=71 velocity=95 time=0
EXTRACT: note_off channel=5 note=33 velocity=95 time=0
EXTRACT: note_on channel=5 note=44 velocity=95 time=0
EXTRACT: note_on channel=7 note=76 velocity=95 time=0
EXTRACT: note_on channel=7 note=71 velocity=95 time=0
EXTRACT: note_on channel=7 note=68 velocity=95 time=0
EXTRACT: note_off channel=13 note=45 velocity=95 time=0
EXTRACT: note_off channel=9 note=42 velocity=95 time=0
EXTRACT: note_off channel=9 note=40 velocity=95 time=0
EXTRACT: note_on channel=9 note=42 velocity=95 time=0
EXTRACT: note_off channel=0 note=45 velocity=95 time=0.2608695
EXTRACT: note_off channel=0 note=76 velocity=95 time=0
EXTRACT: note_off channel=0 note=71 velocity=95 time=0
EXTRACT: note_off channel=0 note=68 velocity=95 time=0
EXTRACT: note_on channel=0 note=45 velocity=95 time=0
EXTRACT: note_off channel=8 note=33 velocity=95 time=0
EXTRACT: note_on channel=8 note=33 velocity=95 time=0
EXTRACT: note_off channel=5 note=44 velocity=95 time=0
EXTRACT: note_on channel=5 note=42 velocity=95 time=0
EXTRACT: note_off channel=7 note=45 velocity=95 time=0
EXTRACT: note_off channel=7 note=76 velocity=95 time=0
EXTRACT: note_off channel=7 note=71 velocity=95 time=0
EXTRACT: note_off channel=7 note=68 velocity=95 time=0
EXTRACT: note_on channel=7 note=45 velocity=95 time=0
EXTRACT: note_on channel=13 note=45 velocity=95 time=0
EXTRACT: note_off channel=9 note=42 velocity=95 time=0
EXTRACT: note_on channel=9 note=42 velocity=95 time=0
EXTRACT: note_on channel=9 note=36 velocity=95 time=0
EXTRACT: note_off channel=0 note=45 velocity=95 time=0.2608695
EXTRACT: note_on channel=0 note=45 velocity=95 time=0
EXTRACT: note_off channel=8 note=33 velocity=95 time=0
EXTRACT: note_on channel=8 note=33 velocity=95 time=0
EXTRACT: note_off channel=5 note=42 velocity=95 time=0
EXTRACT: note_on channel=5 note=40 velocity=95 time=0
EXTRACT: note_off channel=7 note=45 velocity=95 time=0
EXTRACT: note_on channel=7 note=45 velocity=95 time=0
EXTRACT: note_off channel=13 note=45 velocity=95 time=0
EXTRACT: note_on channel=13 note=45 velocity=95 time=0
EXTRACT: note_off channel=9 note=42 velocity=95 time=0
EXTRACT: note_off channel=9 note=36 velocity=95 time=0
EXTRACT: note_on channel=9 note=42 velocity=95 time=0
EXTRACT: note_on channel=9 note=45 velocity=95 time=0
EXTRACT: note_off channel=0 note=45 velocity=95 time=0.2608695
EXTRACT: note_on channel=0 note=45 velocity=95 time=0
EXTRACT: note_off channel=8 note=33 velocity=95 time=0
EXTRACT: note_on channel=8 note=33 velocity=95 time=0
EXTRACT: note_off channel=11 note=80 velocity=95 time=0
EXTRACT: note_off channel=11 note=76 velocity=95 time=0
EXTRACT: note_off channel=11 note=71 velocity=95 time=0
EXTRACT: note_off channel=5 note=40 velocity=95 time=0
EXTRACT: note_on channel=5 note=39 velocity=95 time=0
EXTRACT: note_off channel=7 note=45 velocity=95 time=0
EXTRACT: note_on channel=7 note=45 velocity=95 time=0
EXTRACT: note_off channel=13 note=45 velocity=95 time=0
EXTRACT: note_on channel=13 note=45 velocity=95 time=0
EXTRACT: note_off channel=9 note=42 velocity=95 time=0
EXTRACT: note_off channel=9 note=45 velocity=95 time=0
EXTRACT: note_on channel=9 note=42 velocity=95 time=0
EXTRACT: note_on channel=9 note=41 velocity=95 time=0
EXTRACT: note_on channel=9 note=36 velocity=95 time=0
EXTRACT: note_off channel=0 note=45 velocity=95 time=0.2608695
EXTRACT: note_on channel=0 note=45 velocity=95 time=0
EXTRACT: note_off channel=8 note=33 velocity=95 time=0
EXTRACT: note_on channel=8 note=33 velocity=95 time=0
EXTRACT: note_off channel=5 note=39 velocity=95 time=0
EXTRACT: note_on channel=5 note=33 velocity=95 time=0
EXTRACT: note_off channel=7 note=45 velocity=95 time=0
EXTRACT: note_on channel=7 note=45 velocity=95 time=0
EXTRACT: note_off channel=13 note=45 velocity=95 time=0
EXTRACT: note_on channel=13 note=45 velocity=95 time=0
EXTRACT: note_off channel=9 note=42 velocity=95 time=0
EXTRACT: note_off channel=9 note=41 velocity=95 time=0
EXTRACT: note_off channel=9 note=36 velocity=95 time=0
EXTRACT: note_on channel=9 note=42 velocity=95 time=0
EXTRACT: note_on channel=9 note=43 velocity=95 time=0
EXTRACT: note_off channel=0 note=45 velocity=95 time=0.2608695
EXTRACT: note_on channel=0 note=75 velocity=95 time=0
EXTRACT: note_on channel=0 note=71 velocity=95 time=0
EXTRACT: note_on channel=0 note=66 velocity=95 time=0
EXTRACT: note_off channel=8 note=33 velocity=95 time=0
EXTRACT: note_on channel=8 note=28 velocity=95 time=0
EXTRACT: note_off channel=5 note=33 velocity=95 time=0
EXTRACT: note_on channel=5 note=28 velocity=95 time=0
EXTRACT: note_off channel=7 note=45 velocity=95 time=0
EXTRACT: note_on channel=7 note=75 velocity=95 time=0
EXTRACT: note_on channel=7 note=71 velocity=95 time=0
EXTRACT: note_on channel=7 note=66 velocity=95 time=0
EXTRACT: note_off channel=13 note=45 velocity=95 time=0
EXTRACT: note_off channel=9 note=42 velocity=95 time=0
EXTRACT: note_off channel=9 note=43 velocity=95 time=0
EXTRACT: note_on channel=9 note=42 velocity=95 time=0
EXTRACT: note_on channel=9 note=36 velocity=95 time=0
EXTRACT: note_off channel=0 note=75 velocity=95 time=0.2608695
EXTRACT: note_off channel=0 note=71 velocity=95 time=0
EXTRACT: note_off channel=0 note=66 velocity=95 time=0
EXTRACT: note_on channel=0 note=40 velocity=95 time=0
EXTRACT: note_off channel=8 note=28 velocity=95 time=0
EXTRACT: note_on channel=8 note=28 velocity=95 time=0
EXTRACT: note_off channel=5 note=28 velocity=95 time=0
EXTRACT: note_on channel=5 note=28 velocity=95 time=0
EXTRACT: note_off channel=7 note=75 velocity=95 time=0
EXTRACT: note_off channel=7 note=71 velocity=95 time=0
EXTRACT: note_off channel=7 note=66 velocity=95 time=0
EXTRACT: note_on channel=7 note=40 velocity=95 time=0
EXTRACT: note_on channel=13 note=40 velocity=95 time=0
EXTRACT: note_off channel=9 note=42 velocity=95 time=0
EXTRACT: note_off channel=9 note=36 velocity=95 time=0
EXTRACT: note_on channel=9 note=42 velocity=95 time=0
EXTRACT: note_off channel=0 note=40 velocity=95 time=0.2608695
EXTRACT: note_on channel=0 note=40 velocity=95 time=0
EXTRACT: note_off channel=8 note=28 velocity=95 time=0
EXTRACT: note_on channel=8 note=28 velocity=95 time=0
EXTRACT: note_off channel=5 note=28 velocity=95 time=0
EXTRACT: note_on channel=5 note=28 velocity=95 time=0
EXTRACT: note_off channel=7 note=40 velocity=95 time=0
EXTRACT: note_on channel=7 note=40 velocity=95 time=0
EXTRACT: note_off channel=13 note=40 velocity=95 time=0
EXTRACT: note_on channel=13 note=40 velocity=95 time=0
EXTRACT: note_off channel=9 note=42 velocity=95 time=0
EXTRACT: note_on channel=9 note=42 velocity=95 time=0
EXTRACT: note_on channel=9 note=40 velocity=95 time=0
EXTRACT: note_on channel=0 note=76 velocity=95 time=0.2608695
EXTRACT: note_on channel=0 note=71 velocity=95 time=0
EXTRACT: note_on channel=0 note=68 velocity=95 time=0
EXTRACT: note_off channel=8 note=28 velocity=95 time=0
EXTRACT: note_on channel=8 note=28 velocity=95 time=0
EXTRACT: note_off channel=5 note=28 velocity=95 time=0
EXTRACT: note_on channel=5 note=28 velocity=95 time=0
EXTRACT: note_on channel=7 note=76 velocity=95 time=0
EXTRACT: note_on channel=7 note=71 velocity=95 time=0
EXTRACT: note_on channel=7 note=68 velocity=95 time=0
EXTRACT: note_off channel=13 note=40 velocity=95 time=0
EXTRACT: note_off channel=9 note=42 velocity=95 time=0
EXTRACT: note_off channel=9 note=40 velocity=95 time=0
EXTRACT: note_on channel=9 note=42 velocity=95 time=0
EXTRACT: note_off channel=0 note=40 velocity=95 time=0.2608695
EXTRACT: note_off channel=0 note=76 velocity=95 time=0
EXTRACT: note_off channel=0 note=71 velocity=95 time=0
EXTRACT: note_off channel=0 note=68 velocity=95 time=0
EXTRACT: note_on channel=0 note=40 velocity=95 time=0
EXTRACT: note_off channel=8 note=28 velocity=95 time=0
EXTRACT: note_on channel=8 note=28 velocity=95 time=0
EXTRACT: note_on channel=11 note=76 velocity=95 time=0
EXTRACT: note_off channel=5 note=28 velocity=95 time=0
EXTRACT: note_on channel=5 note=28 velocity=95 time=0
EXTRACT: note_off channel=7 note=40 velocity=95 time=0
EXTRACT: note_off channel=7 note=76 velocity=95 time=0
EXTRACT: note_off channel=7 note=71 velocity=95 time=0
EXTRACT: note_off channel=7 note=68 velocity=95 time=0
EXTRACT: note_on channel=7 note=40 velocity=95 time=0
EXTRACT: note_on channel=13 note=40 velocity=95 time=0
EXTRACT: note_off channel=9 note=42 velocity=95 time=0
EXTRACT: note_on channel=9 note=42 velocity=95 time=0
EXTRACT: note_on channel=9 note=36 velocity=95 time=0
EXTRACT: note_off channel=0 note=40 velocity=95 time=0.2608695
EXTRACT: note_on channel=0 note=40 velocity=95 time=0
EXTRACT: note_off channel=8 note=28 velocity=95 time=0
EXTRACT: note_on channel=8 note=28 velocity=95 time=0
EXTRACT: note_off channel=11 note=76 velocity=95 time=0
EXTRACT: note_on channel=11 note=76 velocity=95 time=0
EXTRACT: note_off channel=5 note=28 velocity=95 time=0
EXTRACT: note_on channel=5 note=28 velocity=95 time=0
EXTRACT: note_off channel=7 note=40 velocity=95 time=0
EXTRACT: note_on channel=7 note=40 velocity=95 time=0
EXTRACT: note_off channel=13 note=40 velocity=95 time=0
EXTRACT: note_on channel=13 note=40 velocity=95 time=0
EXTRACT: note_off channel=9 note=42 velocity=95 time=0
EXTRACT: note_off channel=9 note=36 velocity=95 time=0
EXTRACT: note_on channel=9 note=42 velocity=95 time=0
EXTRACT: note_off channel=0 note=40 velocity=95 time=0.2608695
EXTRACT: note_on channel=0 note=40 velocity=95 time=0
EXTRACT: note_off channel=8 note=28 velocity=95 time=0
EXTRACT: note_on channel=8 note=28 velocity=95 time=0
EXTRACT: note_off channel=11 note=76 velocity=95 time=0
EXTRACT: note_on channel=11 note=76 velocity=95 time=0
EXTRACT: note_off channel=5 note=28 velocity=95 time=0
EXTRACT: note_on channel=5 note=28 velocity=95 time=0
EXTRACT: note_off channel=7 note=40 velocity=95 time=0
EXTRACT: note_on channel=7 note=40 velocity=95 time=0
EXTRACT: note_off channel=13 note=40 velocity=95 time=0
EXTRACT: note_on channel=13 note=40 velocity=95 time=0
EXTRACT: note_off channel=9 note=42 velocity=95 time=0
EXTRACT: note_on channel=9 note=42 velocity=127 time=0
EXTRACT: note_on channel=9 note=43 velocity=127 time=0
EXTRACT: note_on channel=9 note=36 velocity=95 time=0
EXTRACT: note_off channel=0 note=40 velocity=95 time=0.2608695
EXTRACT: note_on channel=0 note=40 velocity=95 time=0
EXTRACT: note_off channel=8 note=28 velocity=95 time=0
EXTRACT: note_on channel=8 note=28 velocity=95 time=0
EXTRACT: note_off channel=11 note=76 velocity=95 time=0
EXTRACT: note_on channel=11 note=76 velocity=95 time=0
EXTRACT: note_off channel=5 note=28 velocity=95 time=0
EXTRACT: note_on channel=5 note=28 velocity=95 time=0
EXTRACT: note_off channel=7 note=40 velocity=95 time=0
EXTRACT: note_on channel=7 note=40 velocity=95 time=0
EXTRACT: note_off channel=13 note=40 velocity=95 time=0
EXTRACT: note_on channel=13 note=40 velocity=95 time=0
EXTRACT: note_off channel=9 note=42 velocity=127 time=0
EXTRACT: note_off channel=9 note=43 velocity=127 time=0
EXTRACT: note_off channel=9 note=36 velocity=95 time=0
EXTRACT: note_on channel=9 note=42 velocity=95 time=0
EXTRACT: note_off channel=0 note=40 velocity=95 time=0.2608695
EXTRACT: note_on channel=0 note=75 velocity=95 time=0
EXTRACT: note_on channel=0 note=71 velocity=95 time=0
EXTRACT: note_on channel=0 note=66 velocity=95 time=0
EXTRACT: note_off channel=8 note=28 velocity=95 time=0
EXTRACT: note_on channel=8 note=28 velocity=95 time=0
EXTRACT: note_off channel=11 note=76 velocity=95 time=0
EXTRACT: note_on channel=11 note=83 velocity=95 time=0
EXTRACT: note_off channel=5 note=28 velocity=95 time=0
EXTRACT: note_on channel=5 note=28 velocity=95 time=0
EXTRACT: note_off channel=7 note=40 velocity=95 time=0
EXTRACT: note_on channel=7 note=75 velocity=95 time=0
EXTRACT: note_on channel=7 note=71 velocity=95 time=0
EXTRACT: note_on channel=7 note=66 velocity=95 time=0
EXTRACT: note_off channel=13 note=40 velocity=95 time=0
EXTRACT: note_off channel=9 note=42 velocity=95 time=0
EXTRACT: note_on channel=9 note=42 velocity=95 time=0
EXTRACT: note_on channel=9 note=36 velocity=95 time=0
EXTRACT: note_off channel=0 note=75 velocity=95 time=0.2608695
EXTRACT: note_off channel=0 note=71 velocity=95 time=0
EXTRACT: note_off channel=0 note=66 velocity=95 time=0
EXTRACT: note_on channel=0 note=40 velocity=95 time=0
EXTRACT: note_off channel=8 note=28 velocity=95 time=0
EXTRACT: note_on channel=8 note=28 velocity=95 time=0
EXTRACT: note_off channel=5 note=28 velocity=95 time=0
EXTRACT: note_on channel=5 note=40 velocity=95 time=0
EXTRACT: note_off channel=7 note=75 velocity=95 time=0
EXTRACT: note_off channel=7 note=71 velocity=95 time=0
EXTRACT: note_off channel=7 note=66 velocity=95 time=0
EXTRACT: note_on channel=7 note=40 velocity=95 time=0
EXTRACT: note_on channel=13 note=40 velocity=95 time=0
EXTRACT: note_off channel=9 note=42 velocity=95 time=0
EXTRACT: note_off channel=9 note=36 velocity=95 time=0
EXTRACT: note_on channel=9 note=42 velocity=95 time=0
EXTRACT: note_off channel=0 note=40 velocity=95 time=0.2608695
EXTRACT: note_on channel=0 note=40 velocity=95 time=0
EXTRACT: note_off channel=8 note=28 velocity=95 time=0
EXTRACT: note_on channel=8 note=28 velocity=95 time=0
EXTRACT: note_off channel=11 note=83 velocity=95 time=0
EXTRACT: note_on channel=11 note=81 velocity=95 time=0
EXTRACT: note_off channel=5 note=40 velocity=95 time=0
EXTRACT: note_on channel=5 note=39 velocity=95 time=0
EXTRACT: note_off channel=7 note=40 velocity=95 time=0
EXTRACT: note_on channel=7 note=40 velocity=95 time=0
EXTRACT: note_off channel=13 note=40 velocity=95 time=0
EXTRACT: note_on channel=13 note=40 velocity=95 time=0
EXTRACT: note_off channel=9 note=42 velocity=95 time=0
EXTRACT: note_on channel=9 note=42 velocity=95 time=0
EXTRACT: note_on channel=9 note=40 velocity=95 time=0
EXTRACT: note_on channel=0 note=76 velocity=95 time=0.2608695
EXTRACT: note_on channel=0 note=71 velocity=95 time=0
EXTRACT: note_on channel=0 note=68 velocity=95 time=0
EXTRACT: note_off channel=8 note=28 velocity=95 time=0
EXTRACT: note_on channel=8 note=28 velocity=95 time=0
EXTRACT: note_off channel=11 note=81 velocity=95 time=0
EXTRACT: note_on channel=11 note=80 velocity=95 time=0
EXTRACT: note_off channel=5 note=39 velocity=95 time=0
EXTRACT: note_on channel=5 note=28 velocity=95 time=0
EXTRACT: note_on channel=7 note=76 velocity=95 time=0
EXTRACT: note_on channel=7 note=71 velocity=95 time=0
EXTRACT: note_on channel=7 note=68 velocity=95 time=0
EXTRACT: note_off channel=13 note=40 velocity=95 time=0
EXTRACT: note_off channel=9 note=42 velocity=95 time=0
EXTRACT: note_off channel=9 note=40 velocity=95 time=0
EXTRACT: note_on channel=9 note=42 velocity=95 time=0
EXTRACT: note_off channel=0 note=40 velocity=95 time=0.2608695
EXTRACT: note_off channel=0 note=76 velocity=95 time=0
EXTRACT: note_off channel=0 note=71 velocity=95 time=0
EXTRACT: note_off channel=0 note=68 velocity=95 time=0
EXTRACT: note_on channel=0 note=40 velocity=95 time=0
EXTRACT: note_off channel=8 note=28 velocity=95 time=0
EXTRACT: note_on channel=8 note=28 velocity=95 time=0
EXTRACT: note_off channel=5 note=28 velocity=95 time=0
EXTRACT: note_on channel=5 note=40 velocity=95 time=0
EXTRACT: note_off channel=7 note=40 velocity=95 time=0
EXTRACT: note_off channel=7 note=76 velocity=95 time=0
EXTRACT: note_off channel=7 note=71 velocity=95 time=0
EXTRACT: note_off channel=7 note=68 velocity=95 time=0
EXTRACT: note_on channel=7 note=40 velocity=95 time=0
EXTRACT: note_on channel=13 note=40 velocity=95 time=0
EXTRACT: note_off channel=9 note=42 velocity=95 time=0
EXTRACT: note_on channel=9 note=42 velocity=95 time=0
EXTRACT: note_on channel=9 note=36 velocity=95 time=0
EXTRACT: note_off channel=0 note=40 velocity=95 time=0.2608695
EXTRACT: note_on channel=0 note=40 velocity=95 time=0
EXTRACT: note_off channel=8 note=28 velocity=95 time=0
EXTRACT: note_on channel=8 note=28 velocity=95 time=0
EXTRACT: note_off channel=5 note=40 velocity=95 time=0
EXTRACT: note_on channel=5 note=28 velocity=95 time=0
EXTRACT: note_off channel=7 note=40 velocity=95 time=0
EXTRACT: note_on channel=7 note=40 velocity=95 time=0
EXTRACT: note_off channel=13 note=40 velocity=95 time=0
EXTRACT: note_on channel=13 note=40 velocity=95 time=0
EXTRACT: note_off channel=9 note=42 velocity=95 time=0
EXTRACT: note_off channel=9 note=36 velocity=95 time=0
EXTRACT: note_on channel=9 note=42 velocity=95 time=0
EXTRACT: note_on channel=9 note=45 velocity=95 time=0
EXTRACT: note_off channel=0 note=40 velocity=95 time=0.2608695
EXTRACT: note_on channel=0 note=40 velocity=95 time=0
EXTRACT: note_off channel=8 note=28 velocity=95 time=0
EXTRACT: note_on channel=8 note=28 velocity=95 time=0
EXTRACT: note_off channel=11 note=80 velocity=95 time=0
EXTRACT: note_on channel=11 note=78 velocity=95 time=0
EXTRACT: note_off channel=5 note=28 velocity=95 time=0
EXTRACT: note_on channel=5 note=39 velocity=95 time=0
EXTRACT: note_off channel=7 note=40 velocity=95 time=0
EXTRACT: note_on channel=7 note=40 velocity=95 time=0
EXTRACT: note_off channel=13 note=40 velocity=95 time=0
EXTRACT: note_on channel=13 note=40 velocity=95 time=0
EXTRACT: note_off channel=9 note=42 velocity=95 time=0
EXTRACT: note_off channel=9 note=45 velocity=95 time=0
EXTRACT: note_on channel=9 note=42 velocity=95 time=0
EXTRACT: note_on channel=9 note=41 velocity=95 time=0
EXTRACT: note_on channel=9 note=36 velocity=95 time=0
EXTRACT: note_off channel=0 note=40 velocity=95 time=0.2608695
EXTRACT: note_on channel=0 note=40 velocity=95 time=0
EXTRACT: note_off channel=8 note=28 velocity=95 time=0
EXTRACT: note_on channel=8 note=28 velocity=95 time=0
EXTRACT: note_off channel=5 note=39 velocity=95 time=0
EXTRACT: note_on channel=5 note=40 velocity=95 time=0
EXTRACT: note_off channel=7 note=40 velocity=95 time=0
EXTRACT: note_on channel=7 note=40 velocity=95 time=0
EXTRACT: note_off channel=13 note=40 velocity=95 time=0
EXTRACT: note_on channel=13 note=40 velocity=95 time=0
EXTRACT: note_off channel=9 note=42 velocity=95 time=0
EXTRACT: note_off channel=9 note=41 velocity=95 time=0
EXTRACT: note_off channel=9 note=36 velocity=95 time=0
EXTRACT: note_on channel=9 note=42 velocity=95 time=0
EXTRACT: note_on channel=9 note=43 velocity=95 time=0
EXTRACT: note_off channel=0 note=40 velocity=95 time=0.2608695
EXTRACT: note_on channel=0 note=75 velocity=95 time=0
EXTRACT: note_on channel=0 note=71 velocity=95 time=0
EXTRACT: note_on channel=0 note=66 velocity=95 time=0
EXTRACT: note_off channel=8 note=28 velocity=95 time=0
EXTRACT: note_on channel=8 note=33 velocity=95 time=0
EXTRACT: note_off channel=11 note=78 velocity=95 time=0
EXTRACT: note_on channel=11 note=78 velocity=95 time=0
EXTRACT: note_on channel=11 note=75 velocity=95 time=0
EXTRACT: note_on channel=11 note=71 velocity=95 time=0
EXTRACT: note_off channel=5 note=40 velocity=95 time=0
EXTRACT: note_on channel=5 note=33 velocity=95 time=0
EXTRACT: note_off channel=7 note=40 velocity=95 time=0
EXTRACT: note_on channel=7 note=75 velocity=95 time=0
EXTRACT: note_on channel=7 note=71 velocity=95 time=0
EXTRACT: note_on channel=7 note=66 velocity=95 time=0
EXTRACT: note_off channel=13 note=40 velocity=95 time=0
EXTRACT: note_off channel=9 note=42 velocity=95 time=0
EXTRACT: note_off channel=9 note=43 velocity=95 time=0
EXTRACT: note_on channel=9 note=42 velocity=95 time=0
EXTRACT: note_on channel=9 note=36 velocity=95 time=0
EXTRACT: note_off channel=0 note=75 velocity=95 time=0.2608695
EXTRACT: note_off channel=0 note=71 velocity=95 time=0
EXTRACT: note_off channel=0 note=66 velocity=95 time=0
EXTRACT: note_on channel=0 note=45 velocity=95 time=0
EXTRACT: note_off channel=8 note=33 velocity=95 time=0
EXTRACT: note_on channel=8 note=33 velocity=95 time=0
EXTRACT: note_off channel=5 note=33 velocity=95 time=0
EXTRACT: note_on channel=5 note=33 velocity=95 time=0
EXTRACT: note_off channel=7 note=75 velocity=95 time=0
EXTRACT: note_off channel=7 note=71 velocity=95 time=0
EXTRACT: note_off channel=7 note=66 velocity=95 time=0
EXTRACT: note_on channel=7 note=45 velocity=95 time=0
EXTRACT: note_on channel=13 note=45 velocity=95 time=0
EXTRACT: note_off channel=9 note=42 velocity=95 time=0
EXTRACT: note_off channel=9 note=36 velocity=95 time=0
EXTRACT: note_on channel=9 note=42 velocity=95 time=0
EXTRACT: note_off channel=0 note=45 velocity=95 time=0.2608695
EXTRACT: note_on channel=0 note=45 velocity=95 time=0
EXTRACT: note_off channel=8 note=33 velocity=95 time=0
EXTRACT: note_on channel=8 note=33 velocity=95 time=0
EXTRACT: note_off channel=5 note=33 velocity=95 time=0
EXTRACT: note_on channel=5 note=33 velocity=95 time=0
EXTRACT: note_off channel=7 note=45 velocity=95 time=0
EXTRACT: note_on channel=7 note=45 velocity=95 time=0
EXTRACT: note_off channel=13 note=45 velocity=95 time=0
EXTRACT: note_on channel=13 note=45 velocity=95 time=0
EXTRACT: note_off channel=9 note=42 velocity=95 time=0
EXTRACT: note_on channel=9 note=42 velocity=95 time=0
EXTRACT: note_on channel=9 note=40 velocity=95 time=0
EXTRACT: note_on channel=0 note=73 velocity=95 time=0.2608695
EXTRACT: note_on channel=0 note=69 velocity=95 time=0
EXTRACT: note_on channel=0 note=64 velocity=95 time=0
EXTRACT: note_off channel=8 note=33 velocity=95 time=0
EXTRACT: note_on channel=8 note=33 velocity=95 time=0
EXTRACT: note_off channel=11 note=78 velocity=95 time=0
EXTRACT: note_off channel=11 note=75 velocity=95 time=0
EXTRACT: note_off channel=11 note=71 velocity=95 time=0
EXTRACT: note_on channel=11 note=76 velocity=95 time=0
EXTRACT: note_on channel=11 note=73 velocity=95 time=0
EXTRACT: note_on channel=11 note=69 velocity=95 time=0
EXTRACT: note_off channel=5 note=33 velocity=95 time=0
EXTRACT: note_on channel=5 note=33 velocity=95 time=0
EXTRACT: note_on channel=7 note=73 velocity=95 time=0
EXTRACT: note_on channel=7 note=69 velocity=95 time=0
EXTRACT: note_on channel=7 note=64 velocity=95 time=0
EXTRACT: note_off channel=13 note=45 velocity=95 time=0
EXTRACT: note_off channel=9 note=42 velocity=95 time=0
EXTRACT: note_off channel=9 note=40 velocity=95 time=0
EXTRACT: note_on channel=9 note=42 velocity=95 time=0
EXTRACT: note_off channel=0 note=45 velocity=95 time=0.2608695
EXTRACT: note_off channel=0 note=73 velocity=95 time=0
EXTRACT: note_off channel=0 note=69 velocity=95 time=0
EXTRACT: note_off channel=0 note=64 velocity=95 time=0
EXTRACT: note_on channel=0 note=45 velocity=95 time=0
EXTRACT: note_off channel=8 note=33 velocity=95 time=0
EXTRACT: note_on channel=8 note=33 velocity=95 time=0
EXTRACT: note_off channel=5 note=33 velocity=95 time=0
EXTRACT: note_on channel=5 note=33 velocity=95 time=0
EXTRACT: note_off channel=7 note=45 velocity=95 time=0
EXTRACT: note_off channel=7 note=73 velocity=95 time=0
EXTRACT: note_off channel=7 note=69 velocity=95 time=0
EXTRACT: note_off channel=7 note=64 velocity=95 time=0
EXTRACT: note_on channel=7 note=45 velocity=95 time=0
EXTRACT: note_on channel=13 note=45 velocity=95 time=0
EXTRACT: note_off channel=9 note=42 velocity=95 time=0
EXTRACT: note_on channel=9 note=42 velocity=95 time=0
EXTRACT: note_on channel=9 note=36 velocity=95 time=0
EXTRACT: note_off channel=0 note=45 velocity=95 time=0.2608695
EXTRACT: note_on channel=0 note=45 velocity=95 time=0
EXTRACT: note_off channel=8 note=33 velocity=95 time=0
EXTRACT: note_on channel=8 note=33 velocity=95 time=0
EXTRACT: note_off channel=5 note=33 velocity=95 time=0
EXTRACT: note_on channel=5 note=33 velocity=95 time=0
EXTRACT: note_off channel=7 note=45 velocity=95 time=0
EXTRACT: note_on channel=7 note=45 velocity=95 time=0
EXTRACT: note_off channel=13 note=45 velocity=95 time=0
EXTRACT: note_on channel=13 note=45 velocity=95 time=0
EXTRACT: note_off channel=9 note=42 velocity=95 time=0
EXTRACT: note_off channel=9 note=36 velocity=95 time=0
EXTRACT: note_on channel=9 note=42 velocity=95 time=0
EXTRACT: note_off channel=0 note=45 velocity=95 time=0.2608695
EXTRACT: note_on channel=0 note=45 velocity=95 time=0
EXTRACT: note_off channel=8 note=33 velocity=95 time=0
EXTRACT: note_on channel=8 note=33 velocity=95 time=0
EXTRACT: note_off channel=11 note=76 velocity=95 time=0
EXTRACT: note_off channel=11 note=73 velocity=95 time=0
EXTRACT: note_off channel=11 note=69 velocity=95 time=0
EXTRACT: note_off channel=5 note=33 velocity=95 time=0
EXTRACT: note_on channel=5 note=33 velocity=95 time=0
EXTRACT: note_off channel=7 note=45 velocity=95 time=0
EXTRACT: note_on channel=7 note=45 velocity=95 time=0
EXTRACT: note_off channel=13 note=45 velocity=95 time=0
EXTRACT: note_on channel=13 note=45 velocity=95 time=0
EXTRACT: note_off channel=9 note=42 velocity=95 time=0
EXTRACT: note_on channel=9 note=42 velocity=127 time=0
EXTRACT: note_on channel=9 note=43 velocity=127 time=0
EXTRACT: note_on channel=9 note=36 velocity=95 time=0
EXTRACT: note_off channel=0 note=45 velocity=95 time=0.2608695
EXTRACT: note_on channel=0 note=45 velocity=95 time=0
EXTRACT: note_off channel=8 note=33 velocity=95 time=0
EXTRACT: note_on channel=8 note=33 velocity=95 time=0
EXTRACT: note_off channel=5 note=33 velocity=95 time=0
EXTRACT: note_on channel=5 note=33 velocity=95 time=0
EXTRACT: note_off channel=7 note=45 velocity=95 time=0
EXTRACT: note_on channel=7 note=45 velocity=95 time=0
EXTRACT: note_off channel=13 note=45 velocity=95 time=0
EXTRACT: note_on channel=13 note=45 velocity=95 time=0
EXTRACT: note_off channel=9 note=42 velocity=127 time=0
EXTRACT: note_off channel=9 note=43 velocity=127 time=0
EXTRACT: note_off channel=9 note=36 velocity=95 time=0
EXTRACT: note_on channel=9 note=42 velocity=95 time=0
EXTRACT: note_off channel=0 note=45 velocity=95 time=0.2608695
EXTRACT: note_on channel=0 note=75 velocity=95 time=0
EXTRACT: note_on channel=0 note=71 velocity=95 time=0
EXTRACT: note_on channel=0 note=66 velocity=95 time=0
EXTRACT: note_off channel=8 note=33 velocity=95 time=0
EXTRACT: note_on channel=8 note=33 velocity=95 time=0
EXTRACT: note_on channel=11 note=78 velocity=95 time=0
EXTRACT: note_on channel=11 note=75 velocity=95 time=0
EXTRACT: note_on channel=11 note=71 velocity=95 time=0
EXTRACT: note_off channel=5 note=33 velocity=95 time=0
EXTRACT: note_on channel=6 note=42 velocity=95 time=0
EXTRACT: note_off channel=7 note=45 velocity=95 time=0
EXTRACT: note_on channel=7 note=75 velocity=95 time=0
EXTRACT: note_on channel=7 note=71 velocity=95 time=0
EXTRACT: note_on channel=7 note=66 velocity=95 time=0
EXTRACT: note_off channel=13 note=45 velocity=95 time=0
EXTRACT: note_off channel=9 note=42 velocity=95 time=0
EXTRACT: note_on channel=9 note=42 velocity=95 time=0
EXTRACT: note_on channel=9 note=36 velocity=95 time=0
EXTRACT: pitchwheel channel=6 pitch=-256 time=0.065217375
EXTRACT: pitchwheel channel=6 pitch=-640 time=0.065217375
EXTRACT: pitchwheel channel=6 pitch=-1024 time=0.065217375
EXTRACT: note_off channel=0 note=75 velocity=95 time=0.065217375
EXTRACT: note_off channel=0 note=71 velocity=95 time=0
EXTRACT: note_off channel=0 note=66 velocity=95 time=0
EXTRACT: note_on channel=0 note=45 velocity=95 time=0
EXTRACT: note_off channel=8 note=33 velocity=95 time=0
EXTRACT: note_on channel=8 note=33 velocity=95 time=0
EXTRACT: pitchwheel channel=6 pitch=-1408 time=0
EXTRACT: pitchwheel channel=6 pitch=0 time=0
EXTRACT: note_off channel=6 note=42 velocity=95 time=0
EXTRACT: note_on channel=5 note=40 velocity=95 time=0
EXTRACT: note_off channel=7 note=75 velocity=95 time=0
EXTRACT: note_off channel=7 note=71 velocity=95 time=0
EXTRACT: note_off channel=7 note=66 velocity=95 time=0
EXTRACT: note_on channel=7 note=45 velocity=95 time=0
EXTRACT: note_on channel=13 note=45 velocity=95 time=0
EXTRACT: note_off channel=9 note=42 velocity=95 time=0
EXTRACT: note_off channel=9 note=36 velocity=95 time=0
EXTRACT: note_on channel=9 note=42 velocity=95 time=0
EXTRACT: note_off channel=0 note=45 velocity=95 time=0.2608695
EXTRACT: note_on channel=0 note=45 velocity=95 time=0
EXTRACT: note_off channel=8 note=33 velocity=95 time=0
EXTRACT: note_on channel=8 note=33 velocity=95 time=0
EXTRACT: note_off channel=5 note=40 velocity=95 time=0
EXTRACT: note_on channel=5 note=33 velocity=95 time=0
EXTRACT: note_off channel=7 note=45 velocity=95 time=0
EXTRACT: note_on channel=7 note=45 velocity=95 time=0
EXTRACT: note_off channel=13 note=45 velocity=95 time=0
EXTRACT: note_on channel=13 note=45 velocity=95 time=0
EXTRACT: note_off channel=9 note=42 velocity=95 time=0
EXTRACT: note_on channel=9 note=42 velocity=95 time=0
EXTRACT: note_on channel=9 note=40 velocity=95 time=0
EXTRACT: note_on channel=0 note=76 velocity=95 time=0.2608695
EXTRACT: note_on channel=0 note=71 velocity=95 time=0
EXTRACT: note_on channel=0 note=68 velocity=95 time=0
EXTRACT: note_off channel=8 note=33 velocity=95 time=0
EXTRACT: note_on channel=8 note=33 velocity=95 time=0
EXTRACT: note_off channel=11 note=78 velocity=95 time=0
EXTRACT: note_off channel=11 note=75 velocity=95 time=0
EXTRACT: note_off channel=11 note=71 velocity=95 time=0
EXTRACT: note_on channel=11 note=80 velocity=95 time=0
EXTRACT: note_on channel=11 note=76 velocity=95 time=0
EXTRACT: note_on channel=11 note=71 velocity=95 time=0
EXTRACT: note_off channel=5 note=33 velocity=95 time=0
EXTRACT: note_on channel=5 note=44 velocity=95 time=0
EXTRACT: note_on channel=7 note=76 velocity=95 time=0
EXTRACT: note_on channel=7 note=71 velocity=95 time=0
EXTRACT: note_on channel=7 note=68 velocity=95 time=0
EXTRACT: note_off channel=13 note=45 velocity=95 time=0
EXTRACT: note_off channel=9 note=42 velocity=95 time=0
EXTRACT: note_off channel=9 note=40 velocity=95 time=0
EXTRACT: note_on channel=9 note=42 velocity=95 time=0
EXTRACT: note_off channel=0 note=45 velocity=95 time=0.2608695
EXTRACT: note_off channel=0 note=76 velocity=95 time=0
EXTRACT: note_off channel=0 note=71 velocity=95 time=0
EXTRACT: note_off channel=0 note=68 velocity=95 time=0
EXTRACT: note_on channel=0 note=45 velocity=95 time=0
EXTRACT: note_off channel=8 note=33 velocity=95 time=0
EXTRACT: note_on channel=8 note=33 velocity=95 time=0
EXTRACT: note_off channel=11 note=80 velocity=95 time=0
EXTRACT: note_off channel=11 note=76 velocity=95 time=0
EXTRACT: note_off channel=11 note=71 velocity=95 time=0
EXTRACT: note_on channel=11 note=80 velocity=95 time=0
EXTRACT: note_off channel=5 note=44 velocity=95 time=0
EXTRACT: note_on channel=5 note=42 velocity=95 time=0
EXTRACT: note_off channel=7 note=45 velocity=95 time=0
EXTRACT: note_off channel=7 note=76 velocity=95 time=0
EXTRACT: note_off channel=7 note=71 velocity=95 time=0
EXTRACT: note_off channel=7 note=68 velocity=95 time=0
EXTRACT: note_on channel=7 note=45 velocity=95 time=0
EXTRACT: note_on channel=13 note=45 velocity=95 time=0
EXTRACT: note_off channel=9 note=42 velocity=95 time=0
EXTRACT: note_on channel=9 note=42 velocity=95 time=0
EXTRACT: note_on channel=9 note=36 velocity=95 time=0
EXTRACT: note_off channel=0 note=45 velocity=95 time=0.2608695
EXTRACT: note_on channel=0 note=45 velocity=95 time=0
EXTRACT: note_off channel=8 note=33 velocity=95 time=0
EXTRACT: note_on channel=8 note=33 velocity=95 time=0
EXTRACT: note_off channel=11 note=80 velocity=95 time=0
EXTRACT: note_on channel=11 note=78 velocity=95 time=0
EXTRACT: note_off channel=5 note=42 velocity=95 time=0
EXTRACT: note_on channel=5 note=40 velocity=95 time=0
EXTRACT: note_off channel=7 note=45 velocity=95 time=0
EXTRACT: note_on channel=7 note=45 velocity=95 time=0
EXTRACT: note_off channel=13 note=45 velocity=95 time=0
EXTRACT: note_on channel=13 note=45 velocity=95 time=0
EXTRACT: note_off channel=9 note=42 velocity=95 time=0
EXTRACT: note_off channel=9 note=36 velocity=95 time=0
EXTRACT: note_on channel=9 note=42 velocity=95 time=0
EXTRACT: note_on channel=9 note=45 velocity=95 time=0
EXTRACT: note_off channel=0 note=45 velocity=95 time=0.2608695
EXTRACT: note_on channel=0 note=45 velocity=95 time=0
EXTRACT: note_off channel=8 note=33 velocity=95 time=0
EXTRACT: note_on channel=8 note=33 velocity=95 time=0
EXTRACT: note_off channel=11 note=78 velocity=95 time=0
EXTRACT: note_on channel=11 note=76 velocity=95 time=0
EXTRACT: note_off channel=5 note=40 velocity=95 time=0
EXTRACT: note_on channel=5 note=39 velocity=95 time=0
EXTRACT: note_off channel=7 note=45 velocity=95 time=0
EXTRACT: note_on channel=7 note=45 velocity=95 time=0
EXTRACT: note_off channel=13 note=45 velocity=95 time=0
EXTRACT: note_on channel=13 note=45 velocity=95 time=0
EXTRACT: note_off channel=9 note=42 velocity=95 time=0
EXTRACT: note_off channel=9 note=45 velocity=95 time=0
EXTRACT: note_on channel=9 note=42 velocity=95 time=0
EXTRACT: note_on channel=9 note=41 velocity=95 time=0
EXTRACT: note_on channel=9 note=36 velocity=95 time=0
EXTRACT: note_off channel=0 note=45 velocity=95 time=0.2608695
EXTRACT: note_on channel=0 note=45 velocity=95 time=0
EXTRACT: note_off channel=8 note=33 velocity=95 time=0
EXTRACT: note_on channel=8 note=33 velocity=95 time=0
EXTRACT: note_off channel=11 note=76 velocity=95 time=0
EXTRACT: note_on channel=11 note=78 velocity=95 time=0
EXTRACT: note_off channel=5 note=39 velocity=95 time=0
EXTRACT: note_on channel=5 note=33 velocity=95 time=0
EXTRACT: note_off channel=7 note=45 velocity=95 time=0
EXTRACT: note_on channel=7 note=45 velocity=95 time=0
EXTRACT: note_off channel=13 note=45 velocity=95 time=0
EXTRACT: note_on channel=13 note=45 velocity=95 time=0
EXTRACT: note_off channel=9 note=42 velocity=95 time=0
EXTRACT: note_off channel=9 note=41 velocity=95 time=0
EXTRACT: note_off channel=9 note=36 velocity=95 time=0
EXTRACT: note_on channel=9 note=42 velocity=95 time=0
EXTRACT: note_on channel=9 note=43 velocity=95 time=0
EXTRACT: note_off channel=0 note=45 velocity=95 time=0.2608695
EXTRACT: note_on channel=0 note=66 velocity=95 time=0
EXTRACT: note_on channel=0 note=63 velocity=95 time=0
EXTRACT: note_on channel=0 note=59 velocity=95 time=0
EXTRACT: note_off channel=8 note=33 velocity=95 time=0
EXTRACT: note_on channel=8 note=28 velocity=95 time=0
EXTRACT: note_off channel=5 note=33 velocity=95 time=0
EXTRACT: note_on channel=5 note=28 velocity=95 time=0
EXTRACT: note_off channel=7 note=45 velocity=95 time=0
EXTRACT: note_on channel=7 note=66 velocity=95 time=0
EXTRACT: note_on channel=7 note=63 velocity=95 time=0
EXTRACT: note_on channel=7 note=59 velocity=95 time=0
EXTRACT: note_off channel=13 note=45 velocity=95 time=0
EXTRACT: note_on channel=13 note=47 velocity=95 time=0
EXTRACT: note_on channel=13 note=40 velocity=95 time=0
EXTRACT: note_off channel=9 note=42 velocity=95 time=0
EXTRACT: note_off channel=9 note=43 velocity=95 time=0
EXTRACT: note_on channel=9 note=42 velocity=95 time=0
EXTRACT: note_on channel=9 note=36 velocity=95 time=0
EXTRACT: note_off channel=0 note=66 velocity=95 time=0.2608695
EXTRACT: note_off channel=0 note=63 velocity=95 time=0
EXTRACT: note_off channel=0 note=59 velocity=95 time=0
EXTRACT: note_on channel=0 note=40 velocity=95 time=0
EXTRACT: note_off channel=8 note=28 velocity=95 time=0
EXTRACT: note_on channel=8 note=28 velocity=95 time=0
EXTRACT: note_off channel=5 note=28 velocity=95 time=0
EXTRACT: note_on channel=5 note=28 velocity=95 time=0
EXTRACT: note_off channel=7 note=66 velocity=95 time=0
EXTRACT: note_off channel=7 note=63 velocity=95 time=0
EXTRACT: note_off channel=7 note=59 velocity=95 time=0
EXTRACT: note_on channel=7 note=40 velocity=95 time=0
EXTRACT: note_off channel=13 note=47 velocity=95 time=0
EXTRACT: note_off channel=13 note=40 velocity=95 time=0
EXTRACT: note_on channel=13 note=40 velocity=95 time=0
EXTRACT: note_off channel=9 note=42 velocity=95 time=0
EXTRACT: note_off channel=9 note=36 velocity=95 time=0
EXTRACT: note_on channel=9 note=42 velocity=95 time=0
EXTRACT: note_off channel=0 note=40 velocity=95 time=0.2608695
EXTRACT: note_on channel=0 note=40 velocity=95 time=0
EXTRACT: note_off channel=8 note=28 velocity=95 time=0
EXTRACT: note_on channel=8 note=28 velocity=95 time=0
EXTRACT: note_off channel=11 note=78 velocity=95 time=0
EXTRACT: note_on channel=11 note=80 velocity=95 time=0
EXTRACT: note_off channel=5 note=28 velocity=95 time=0
EXTRACT: note_on channel=5 note=28 velocity=95 time=0
EXTRACT: note_off channel=7 note=40 velocity=95 time=0
EXTRACT: note_on channel=7 note=40 velocity=95 time=0
EXTRACT: note_off channel=13 note=40 velocity=95 time=0
EXTRACT: note_on channel=13 note=40 velocity=95 time=0
EXTRACT: note_off channel=9 note=42 velocity=95 time=0
EXTRACT: note_on channel=9 note=42 velocity=95 time=0
EXTRACT: note_on channel=9 note=40 velocity=95 time=0
EXTRACT: note_on channel=0 note=68 velocity=95 time=0.2608695
EXTRACT: note_on channel=0 note=64 velocity=95 time=0
EXTRACT: note_on channel=0 note=59 velocity=95 time=0
EXTRACT: note_off channel=8 note=28 velocity=95 time=0
EXTRACT: note_on channel=8 note=28 velocity=95 time=0
EXTRACT: note_off channel=11 note=80 velocity=95 time=0
EXTRACT: note_on channel=12 note=76 velocity=95 time=0
EXTRACT: note_off channel=5 note=28 velocity=95 time=0
EXTRACT: note_on channel=5 note=28 velocity=95 time=0
EXTRACT: note_on channel=7 note=68 velocity=95 time=0
EXTRACT: note_on channel=7 note=64 velocity=95 time=0
EXTRACT: note_on channel=7 note=59 velocity=95 time=0
EXTRACT: note_off channel=13 note=40 velocity=95 time=0
EXTRACT: note_off channel=9 note=42 velocity=95 time=0
EXTRACT: note_off channel=9 note=40 velocity=95 time=0
EXTRACT: note_on channel=9 note=42 velocity=95 time=0
EXTRACT: pitchwheel channel=12 pitch=0 time=0.08695649999999999
EXTRACT: pitchwheel channel=12 pitch=128 time=0.08695649999999999
EXTRACT: note_off channel=0 note=40 velocity=95 time=0.08695649999999999
EXTRACT: note_off channel=0 note=68 velocity=95 time=0
EXTRACT: note_off channel=0 note=64 velocity=95 time=0
EXTRACT: note_off channel=0 note=59 velocity=95 time=0
EXTRACT: note_on channel=0 note=40 velocity=95 time=0
EXTRACT: note_off channel=8 note=28 velocity=95 time=0
EXTRACT: note_on channel=8 note=28 velocity=95 time=0
EXTRACT: pitchwheel channel=12 pitch=0 time=0
EXTRACT: note_off channel=5 note=28 velocity=95 time=0
EXTRACT: note_on channel=5 note=28 velocity=95 time=0
EXTRACT: note_off channel=7 note=40 velocity=95 time=0
EXTRACT: note_off channel=7 note=68 velocity=95 time=0
EXTRACT: note_off channel=7 note=64 velocity=95 time=0
EXTRACT: note_off channel=7 note=59 velocity=95 time=0
EXTRACT: note_on channel=7 note=40 velocity=95 time=0
EXTRACT: note_on channel=13 note=40 velocity=95 time=0
EXTRACT: note_off channel=9 note=42 velocity=95 time=0
EXTRACT: note_on channel=9 note=42 velocity=95 time=0
EXTRACT: note_on channel=9 note=36 velocity=95 time=0
EXTRACT: pitchwheel channel=12 pitch=128 time=0.08695649999999999
EXTRACT: pitchwheel channel=12 pitch=0 time=0.08695649999999999
EXTRACT: note_off channel=0 note=40 velocity=95 time=0.08695649999999999
EXTRACT: note_on channel=0 note=40 velocity=95 time=0
EXTRACT: note_off channel=8 note=28 velocity=95 time=0
EXTRACT: note_on channel=8 note=28 velocity=95 time=0
EXTRACT: pitchwheel channel=12 pitch=128 time=0
EXTRACT: note_off channel=5 note=28 velocity=95 time=0
EXTRACT: note_on channel=5 note=28 velocity=95 time=0
EXTRACT: note_off channel=7 note=40 velocity=95 time=0
EXTRACT: note_on channel=7 note=40 velocity=95 time=0
EXTRACT: note_off channel=13 note=40 velocity=95 time=0
EXTRACT: note_on channel=13 note=40 velocity=95 time=0
EXTRACT: note_off channel=9 note=42 velocity=95 time=0
EXTRACT: note_off channel=9 note=36 velocity=95 time=0
EXTRACT: note_on channel=9 note=42 velocity=95 time=0
EXTRACT: pitchwheel channel=12 pitch=0 time=0.08695649999999999
EXTRACT: pitchwheel channel=12 pitch=128 time=0.08695649999999999
EXTRACT: note_off channel=0 note=40 velocity=95 time=0.08695649999999999
EXTRACT: note_on channel=0 note=40 velocity=95 time=0
EXTRACT: note_off channel=8 note=28 velocity=95 time=0
EXTRACT: note_on channel=8 note=28 velocity=95 time=0
EXTRACT: pitchwheel channel=12 pitch=0 time=0
EXTRACT: note_off channel=5 note=28 velocity=95 time=0
EXTRACT: note_on channel=5 note=28 velocity=95 time=0
EXTRACT: note_off channel=7 note=40 velocity=95 time=0
EXTRACT: note_on channel=7 note=40 velocity=95 time=0
EXTRACT: note_off channel=13 note=40 velocity=95 time=0
EXTRACT: note_on channel=13 note=40 velocity=95 time=0
EXTRACT: note_off channel=9 note=42 velocity=95 time=0
EXTRACT: note_on channel=9 note=42 velocity=127 time=0
EXTRACT: note_on channel=9 note=43 velocity=127 time=0
EXTRACT: note_on channel=9 note=36 velocity=95 time=0
EXTRACT: pitchwheel channel=12 pitch=128 time=0.08695649999999999
EXTRACT: pitchwheel channel=12 pitch=0 time=0.08695649999999999
EXTRACT: note_off channel=0 note=40 velocity=95 time=0.08695649999999999
EXTRACT: note_on channel=0 note=40 velocity=95 time=0
EXTRACT: note_off channel=8 note=28 velocity=95 time=0
EXTRACT: note_on channel=8 note=28 velocity=95 time=0
EXTRACT: pitchwheel channel=12 pitch=128 time=0
EXTRACT: note_off channel=5 note=28 velocity=95 time=0
EXTRACT: note_on channel=5 note=28 velocity=95 time=0
EXTRACT: note_off channel=7 note=40 velocity=95 time=0
EXTRACT: note_on channel=7 note=40 velocity=95 time=0
EXTRACT: note_off channel=13 note=40 velocity=95 time=0
EXTRACT: note_on channel=13 note=40 velocity=95 time=0
EXTRACT: note_off channel=9 note=42 velocity=127 time=0
EXTRACT: note_off channel=9 note=43 velocity=127 time=0
EXTRACT: note_off channel=9 note=36 velocity=95 time=0
EXTRACT: note_on channel=9 note=42 velocity=95 time=0
EXTRACT: pitchwheel channel=12 pitch=0 time=0.08695649999999999
EXTRACT: pitchwheel channel=12 pitch=128 time=0.08695649999999999
EXTRACT: note_off channel=0 note=40 velocity=95 time=0.08695649999999999
EXTRACT: note_on channel=0 note=66 velocity=95 time=0
EXTRACT: note_on channel=0 note=63 velocity=95 time=0
EXTRACT: note_on channel=0 note=59 velocity=95 time=0
EXTRACT: note_on channel=0 note=47 velocity=95 time=0
EXTRACT: note_off channel=8 note=28 velocity=95 time=0
EXTRACT: note_on channel=8 note=28 velocity=95 time=0
EXTRACT: pitchwheel channel=12 pitch=0 time=0
EXTRACT: pitchwheel channel=12 pitch=128 time=0
EXTRACT: pitchwheel channel=12 pitch=0 time=0
EXTRACT: note_off channel=12 note=76 velocity=95 time=0
EXTRACT: note_off channel=5 note=28 velocity=95 time=0
EXTRACT: note_on channel=5 note=28 velocity=95 time=0
EXTRACT: note_off channel=7 note=40 velocity=95 time=0
EXTRACT: note_on channel=7 note=66 velocity=95 time=0
EXTRACT: note_on channel=7 note=63 velocity=95 time=0
EXTRACT: note_on channel=7 note=59 velocity=95 time=0
EXTRACT: note_on channel=7 note=47 velocity=95 time=0
EXTRACT: note_off channel=13 note=40 velocity=95 time=0
EXTRACT: note_on channel=13 note=47 velocity=95 time=0
EXTRACT: note_off channel=9 note=42 velocity=95 time=0
EXTRACT: note_on channel=9 note=42 velocity=95 time=0
EXTRACT: note_on channel=9 note=36 velocity=95 time=0
EXTRACT: note_off channel=0 note=66 velocity=95 time=0.2608695
EXTRACT: note_off channel=0 note=63 velocity=95 time=0
EXTRACT: note_off channel=0 note=59 velocity=95 time=0
EXTRACT: note_off channel=0 note=47 velocity=95 time=0
EXTRACT: note_on channel=0 note=40 velocity=95 time=0
EXTRACT: note_off channel=8 note=28 velocity=95 time=0
EXTRACT: note_on channel=8 note=28 velocity=95 time=0
EXTRACT: note_off channel=5 note=28 velocity=95 time=0
EXTRACT: note_on channel=5 note=40 velocity=95 time=0
EXTRACT: note_off channel=7 note=66 velocity=95 time=0
EXTRACT: note_off channel=7 note=63 velocity=95 time=0
EXTRACT: note_off channel=7 note=59 velocity=95 time=0
EXTRACT: note_off channel=7 note=47 velocity=95 time=0
EXTRACT: note_on channel=7 note=40 velocity=95 time=0
EXTRACT: note_off channel=13 note=47 velocity=95 time=0
EXTRACT: note_on channel=13 note=40 velocity=95 time=0
EXTRACT: note_off channel=9 note=42 velocity=95 time=0
EXTRACT: note_off channel=9 note=36 velocity=95 time=0
EXTRACT: note_on channel=9 note=42 velocity=95 time=0
EXTRACT: note_off channel=0 note=40 velocity=95 time=0.2608695
EXTRACT: note_on channel=0 note=40 velocity=95 time=0
EXTRACT: note_off channel=8 note=28 velocity=95 time=0
EXTRACT: note_on channel=8 note=28 velocity=95 time=0
EXTRACT: note_off channel=5 note=40 velocity=95 time=0
EXTRACT: note_on channel=5 note=39 velocity=95 time=0
EXTRACT: note_off channel=7 note=40 velocity=95 time=0
EXTRACT: note_on channel=7 note=40 velocity=95 time=0
EXTRACT: note_off channel=13 note=40 velocity=95 time=0
EXTRACT: note_on channel=13 note=40 velocity=95 time=0
EXTRACT: note_off channel=9 note=42 velocity=95 time=0
EXTRACT: note_on channel=9 note=42 velocity=95 time=0
EXTRACT: note_on channel=9 note=40 velocity=95 time=0
EXTRACT: note_on channel=0 note=68 velocity=95 time=0.2608695
EXTRACT: note_on channel=0 note=64 velocity=95 time=0
EXTRACT: note_on channel=0 note=59 velocity=95 time=0
EXTRACT: note_off channel=8 note=28 velocity=95 time=0
EXTRACT: note_on channel=8 note=28 velocity=95 time=0
EXTRACT: note_off channel=5 note=39 velocity=95 time=0
EXTRACT: note_on channel=5 note=28 velocity=95 time=0
EXTRACT: note_on channel=7 note=68 velocity=95 time=0
EXTRACT: note_on channel=7 note=64 velocity=95 time=0
EXTRACT: note_on channel=7 note=59 velocity=95 time=0
EXTRACT: note_off channel=13 note=40 velocity=95 time=0
EXTRACT: note_on channel=13 note=64 velocity=95 time=0
EXTRACT: note_on channel=13 note=59 velocity=95 time=0
EXTRACT: note_on channel=13 note=52 velocity=95 time=0
EXTRACT: note_off channel=9 note=42 velocity=95 time=0
EXTRACT: note_off channel=9 note=40 velocity=95 time=0
EXTRACT: note_on channel=9 note=42 velocity=95 time=0
EXTRACT: note_off channel=0 note=40 velocity=95 time=0.2608695
EXTRACT: note_off channel=0 note=68 velocity=95 time=0
EXTRACT: note_off channel=0 note=64 velocity=95 time=0
EXTRACT: note_off channel=0 note=59 velocity=95 time=0
EXTRACT: note_off channel=8 note=28 velocity=95 time=0
EXTRACT: note_off channel=5 note=28 velocity=95 time=0
EXTRACT: note_on channel=5 note=40 velocity=95 time=0
EXTRACT: note_off channel=7 note=40 velocity=95 time=0
EXTRACT: note_off channel=7 note=68 velocity=95 time=0
EXTRACT: note_off channel=7 note=64 velocity=95 time=0
EXTRACT: note_off channel=7 note=59 velocity=95 time=0
EXTRACT: note_off channel=9 note=42 velocity=95 time=0
EXTRACT: note_on channel=9 note=42 velocity=95 time=0
EXTRACT: note_on channel=9 note=36 velocity=95 time=0
EXTRACT: note_off channel=5 note=40 velocity=95 time=0.2608695
EXTRACT: note_on channel=5 note=28 velocity=95 time=0
EXTRACT: note_off channel=9 note=42 velocity=95 time=0
EXTRACT: note_off channel=9 note=36 velocity=95 time=0
EXTRACT: note_on channel=9 note=42 velocity=95 time=0
EXTRACT: note_on channel=9 note=45 velocity=95 time=0
EXTRACT: note_off channel=5 note=28 velocity=95 time=0.2608695
EXTRACT: note_on channel=5 note=39 velocity=95 time=0
EXTRACT: note_off channel=9 note=42 velocity=95 time=0
EXTRACT: note_off channel=9 note=45 velocity=95 time=0
EXTRACT: note_on channel=9 note=42 velocity=95 time=0
EXTRACT: note_on channel=9 note=41 velocity=95 time=0
EXTRACT: note_on channel=9 note=36 velocity=95 time=0
EXTRACT: note_off channel=5 note=39 velocity=95 time=0.2608695
EXTRACT: note_on channel=5 note=40 velocity=95 time=0
EXTRACT: note_off channel=9 note=42 velocity=95 time=0
EXTRACT: note_off channel=9 note=41 velocity=95 time=0
EXTRACT: note_off channel=9 note=36 velocity=95 time=0
EXTRACT: note_on channel=9 note=42 velocity=95 time=0
EXTRACT: note_on channel=9 note=43 velocity=95 time=0
EXTRACT: note_on channel=0 note=75 velocity=95 time=0.2608695
EXTRACT: note_on channel=0 note=71 velocity=95 time=0
EXTRACT: note_on channel=0 note=66 velocity=95 time=0
EXTRACT: note_on channel=8 note=33 velocity=95 time=0
EXTRACT: note_on channel=11 note=78 velocity=95 time=0
EXTRACT: note_on channel=11 note=75 velocity=95 time=0
EXTRACT: note_on channel=11 note=71 velocity=95 time=0
EXTRACT: note_off channel=5 note=40 velocity=95 time=0
EXTRACT: note_on channel=5 note=33 velocity=95 time=0
EXTRACT: note_on channel=7 note=75 velocity=95 time=0
EXTRACT: note_on channel=7 note=71 velocity=95 time=0
EXTRACT: note_on channel=7 note=66 velocity=95 time=0
EXTRACT: note_off channel=13 note=64 velocity=95 time=0
EXTRACT: note_off channel=13 note=59 velocity=95 time=0
EXTRACT: note_off channel=13 note=52 velocity=95 time=0
EXTRACT: note_off channel=9 note=42 velocity=95 time=0
EXTRACT: note_off channel=9 note=43 velocity=95 time=0
EXTRACT: note_on channel=9 note=42 velocity=95 time=0
EXTRACT: note_on channel=9 note=36 velocity=95 time=0
EXTRACT: note_off channel=0 note=75 velocity=95 time=0.2608695
EXTRACT: note_off channel=0 note=71 velocity=95 time=0
EXTRACT: note_off channel=0 note=66 velocity=95 time=0
EXTRACT: note_on channel=0 note=45 velocity=95 time=0
EXTRACT: note_off channel=8 note=33 velocity=95 time=0
EXTRACT: note_on channel=8 note=33 velocity=95 time=0
EXTRACT: note_off channel=5 note=33 velocity=95 time=0
EXTRACT: note_on channel=5 note=33 velocity=95 time=0
EXTRACT: note_off channel=7 note=75 velocity=95 time=0
EXTRACT: note_off channel=7 note=71 velocity=95 time=0
EXTRACT: note_off channel=7 note=66 velocity=95 time=0
EXTRACT: note_on channel=7 note=45 velocity=95 time=0
EXTRACT: note_on channel=13 note=45 velocity=95 time=0
EXTRACT: note_off channel=9 note=42 velocity=95 time=0
EXTRACT: note_off channel=9 note=36 velocity=95 time=0
EXTRACT: note_on channel=9 note=42 velocity=95 time=0
EXTRACT: note_off channel=0 note=45 velocity=95 time=0.2608695
EXTRACT: note_on channel=0 note=45 velocity=95 time=0
EXTRACT: note_off channel=8 note=33 velocity=95 time=0
EXTRACT: note_on channel=8 note=33 velocity=95 time=0
EXTRACT: note_off channel=5 note=33 velocity=95 time=0
EXTRACT: note_on channel=5 note=33 velocity=95 time=0
EXTRACT: note_off channel=7 note=45 velocity=95 time=0
EXTRACT: note_on channel=7 note=45 velocity=95 time=0
EXTRACT: note_off channel=13 note=45 velocity=95 time=0
EXTRACT: note_on channel=13 note=45 velocity=95 time=0
EXTRACT: note_off channel=9 note=42 velocity=95 time=0
EXTRACT: note_on channel=9 note=42 velocity=95 time=0
EXTRACT: note_on channel=9 note=40 velocity=95 time=0
EXTRACT: note_on channel=0 note=73 velocity=95 time=0.2608695
EXTRACT: note_on channel=0 note=69 velocity=95 time=0
EXTRACT: note_on channel=0 note=64 velocity=95 time=0
EXTRACT: note_off channel=8 note=33 velocity=95 time=0
EXTRACT: note_on channel=8 note=33 velocity=95 time=0
EXTRACT: note_off channel=11 note=78 velocity=95 time=0
EXTRACT: note_off channel=11 note=75 velocity=95 time=0
EXTRACT: note_off channel=11 note=71 velocity=95 time=0
EXTRACT: note_on channel=11 note=76 velocity=95 time=0
EXTRACT: note_on channel=11 note=73 velocity=95 time=0
EXTRACT: note_on channel=11 note=69 velocity=95 time=0
EXTRACT: note_off channel=5 note=33 velocity=95 time=0
EXTRACT: note_on channel=5 note=33 velocity=95 time=0
EXTRACT: note_on channel=7 note=73 velocity=95 time=0
EXTRACT: note_on channel=7 note=69 velocity=95 time=0
EXTRACT: note_on channel=7 note=64 velocity=95 time=0
EXTRACT: note_off channel=13 note=45 velocity=95 time=0
EXTRACT: note_off channel=9 note=42 velocity=95 time=0
EXTRACT: note_off channel=9 note=40 velocity=95 time=0
EXTRACT: note_on channel=9 note=42 velocity=95 time=0
EXTRACT: note_off channel=0 note=45 velocity=95 time=0.2608695
EXTRACT: note_off channel=0 note=73 velocity=95 time=0
EXTRACT: note_off channel=0 note=69 velocity=95 time=0
EXTRACT: note_off channel=0 note=64 velocity=95 time=0
EXTRACT: note_on channel=0 note=45 velocity=95 time=0
EXTRACT: note_off channel=8 note=33 velocity=95 time=0
EXTRACT: note_on channel=8 note=33 velocity=95 time=0
EXTRACT: note_off channel=5 note=33 velocity=95 time=0
EXTRACT: note_on channel=5 note=33 velocity=95 time=0
EXTRACT: note_off channel=7 note=45 velocity=95 time=0
EXTRACT: note_off channel=7 note=73 velocity=95 time=0
EXTRACT: note_off channel=7 note=69 velocity=95 time=0
EXTRACT: note_off channel=7 note=64 velocity=95 time=0
EXTRACT: note_on channel=7 note=45 velocity=95 time=0
EXTRACT: note_on channel=13 note=45 velocity=95 time=0
EXTRACT: note_off channel=9 note=42 velocity=95 time=0
EXTRACT: note_on channel=9 note=42 velocity=95 time=0
EXTRACT: note_on channel=9 note=36 velocity=95 time=0
EXTRACT: note_off channel=0 note=45 velocity=95 time=0.2608695
EXTRACT: note_on channel=0 note=45 velocity=95 time=0
EXTRACT: note_off channel=8 note=33 velocity=95 time=0
EXTRACT: note_on channel=8 note=33 velocity=95 time=0
EXTRACT: note_off channel=5 note=33 velocity=95 time=0
EXTRACT: note_on channel=5 note=33 velocity=95 time=0
EXTRACT: note_off channel=7 note=45 velocity=95 time=0
EXTRACT: note_on channel=7 note=45 velocity=95 time=0
EXTRACT: note_off channel=13 note=45 velocity=95 time=0
EXTRACT: note_on channel=13 note=45 velocity=95 time=0
EXTRACT: note_off channel=9 note=42 velocity=95 time=0
EXTRACT: note_off channel=9 note=36 velocity=95 time=0
EXTRACT: note_on channel=9 note=42 velocity=95 time=0
EXTRACT: note_off channel=0 note=45 velocity=95 time=0.2608695
EXTRACT: note_on channel=0 note=45 velocity=95 time=0
EXTRACT: note_off channel=8 note=33 velocity=95 time=0
EXTRACT: note_on channel=8 note=33 velocity=95 time=0
EXTRACT: note_off channel=11 note=76 velocity=95 time=0
EXTRACT: note_off channel=11 note=73 velocity=95 time=0
EXTRACT: note_off channel=11 note=69 velocity=95 time=0
EXTRACT: note_off channel=5 note=33 velocity=95 time=0
EXTRACT: note_on channel=5 note=33 velocity=95 time=0
EXTRACT: note_off channel=7 note=45 velocity=95 time=0
EXTRACT: note_on channel=7 note=45 velocity=95 time=0
EXTRACT: note_off channel=13 note=45 velocity=95 time=0
EXTRACT: note_on channel=13 note=45 velocity=95 time=0
EXTRACT: note_off channel=9 note=42 velocity=95 time=0
EXTRACT: note_on channel=9 note=42 velocity=127 time=0
EXTRACT: note_on channel=9 note=43 velocity=127 time=0
EXTRACT: note_on channel=9 note=36 velocity=95 time=0
EXTRACT: note_off channel=0 note=45 velocity=95 time=0.2608695
EXTRACT: note_on channel=0 note=45 velocity=95 time=0
EXTRACT: note_off channel=8 note=33 velocity=95 time=0
EXTRACT: note_on channel=8 note=33 velocity=95 time=0
EXTRACT: note_off channel=5 note=33 velocity=95 time=0
EXTRACT: note_on channel=5 note=33 velocity=95 time=0
EXTRACT: note_off channel=7 note=45 velocity=95 time=0
EXTRACT: note_on channel=7 note=45 velocity=95 time=0
EXTRACT: note_off channel=13 note=45 velocity=95 time=0
EXTRACT: note_on channel=13 note=45 velocity=95 time=0
EXTRACT: note_off channel=9 note=42 velocity=127 time=0
EXTRACT: note_off channel=9 note=43 velocity=127 time=0
EXTRACT: note_off channel=9 note=36 velocity=95 time=0
EXTRACT: note_on channel=9 note=42 velocity=95 time=0
EXTRACT: note_off channel=0 note=45 velocity=95 time=0.2608695
EXTRACT: note_on channel=0 note=75 velocity=95 time=0
EXTRACT: note_on channel=0 note=71 velocity=95 time=0
EXTRACT: note_on channel=0 note=66 velocity=95 time=0
EXTRACT: note_off channel=8 note=33 velocity=95 time=0
EXTRACT: note_on channel=8 note=33 velocity=95 time=0
EXTRACT: note_on channel=11 note=78 velocity=95 time=0
EXTRACT: note_on channel=11 note=75 velocity=95 time=0
EXTRACT: note_on channel=11 note=71 velocity=95 time=0
EXTRACT: note_off channel=5 note=33 velocity=95 time=0
EXTRACT: note_on channel=5 note=33 velocity=95 time=0
EXTRACT: note_off channel=7 note=45 velocity=95 time=0
EXTRACT: note_on channel=7 note=75 velocity=95 time=0
EXTRACT: note_on channel=7 note=71 velocity=95 time=0
EXTRACT: note_on channel=7 note=66 velocity=95 time=0
EXTRACT: note_off channel=13 note=45 velocity=95 time=0
EXTRACT: note_off channel=9 note=42 velocity=95 time=0
EXTRACT: note_on channel=9 note=42 velocity=95 time=0
EXTRACT: note_on channel=9 note=36 velocity=95 time=0
EXTRACT: note_off channel=0 note=75 velocity=95 time=0.2608695
EXTRACT: note_off channel=0 note=71 velocity=95 time=0
EXTRACT: note_off channel=0 note=66 velocity=95 time=0
EXTRACT: note_on channel=0 note=45 velocity=95 time=0
EXTRACT: note_off channel=8 note=33 velocity=95 time=0
EXTRACT: note_on channel=8 note=33 velocity=95 time=0
EXTRACT: note_off channel=5 note=33 velocity=95 time=0
EXTRACT: note_on channel=5 note=45 velocity=95 time=0
EXTRACT: note_off channel=7 note=75 velocity=95 time=0
EXTRACT: note_off channel=7 note=71 velocity=95 time=0
EXTRACT: note_off channel=7 note=66 velocity=95 time=0
EXTRACT: note_on channel=7 note=45 velocity=95 time=0
EXTRACT: note_on channel=13 note=45 velocity=95 time=0
EXTRACT: note_off channel=9 note=42 velocity=95 time=0
EXTRACT: note_off channel=9 note=36 velocity=95 time=0
EXTRACT: note_on channel=9 note=42 velocity=95 time=0
EXTRACT: note_off channel=0 note=45 velocity=95 time=0.2608695
EXTRACT: note_on channel=0 note=45 velocity=95 time=0
EXTRACT: note_off channel=8 note=33 velocity=95 time=0
EXTRACT: note_on channel=8 note=33 velocity=95 time=0
EXTRACT: note_off channel=5 note=45 velocity=95 time=0
EXTRACT: note_on channel=5 note=44 velocity=95 time=0
EXTRACT: note_off channel=7 note=45 velocity=95 time=0
EXTRACT: note_on channel=7 note=45 velocity=95 time=0
EXTRACT: note_off channel=13 note=45 velocity=95 time=0
EXTRACT: note_on channel=13 note=45 velocity=95 time=0
EXTRACT: note_off channel=9 note=42 velocity=95 time=0
EXTRACT: note_on channel=9 note=42 velocity=95 time=0
EXTRACT: note_on channel=9 note=40 velocity=95 time=0
EXTRACT: note_on channel=0 note=76 velocity=95 time=0.2608695
EXTRACT: note_on channel=0 note=71 velocity=95 time=0
EXTRACT: note_on channel=0 note=68 velocity=95 time=0
EXTRACT: note_off channel=8 note=33 velocity=95 time=0
EXTRACT: note_on channel=8 note=33 velocity=95 time=0
EXTRACT: note_off channel=11 note=78 velocity=95 time=0
EXTRACT: note_off channel=11 note=75 velocity=95 time=0
EXTRACT: note_off channel=11 note=71 velocity=95 time=0
EXTRACT: note_on channel=11 note=80 velocity=95 time=0
EXTRACT: note_on channel=11 note=76 velocity=95 time=0
EXTRACT: note_on channel=11 note=71 velocity=95 time=0
EXTRACT: note_off channel=5 note=44 velocity=95 time=0
EXTRACT: note_on channel=5 note=33 velocity=95 time=0
EXTRACT: note_on channel=7 note=76 velocity=95 time=0
EXTRACT: note_on channel=7 note=71 velocity=95 time=0
EXTRACT: note_on channel=7 note=68 velocity=95 time=0
EXTRACT: note_off channel=13 note=45 velocity=95 time=0
EXTRACT: note_off channel=9 note=42 velocity=95 time=0
EXTRACT: note_off channel=9 note=40 velocity=95 time=0
EXTRACT: note_on channel=9 note=42 velocity=95 time=0
EXTRACT: note_off channel=0 note=45 velocity=95 time=0.2608695
EXTRACT: note_off channel=0 note=76 velocity=95 time=0
EXTRACT: note_off channel=0 note=71 velocity=95 time=0
EXTRACT: note_off channel=0 note=68 velocity=95 time=0
EXTRACT: note_on channel=0 note=45 velocity=95 time=0
EXTRACT: note_off channel=8 note=33 velocity=95 time=0
EXTRACT: note_on channel=8 note=33 velocity=95 time=0
EXTRACT: note_off channel=5 note=33 velocity=95 time=0
EXTRACT: note_on channel=5 note=45 velocity=95 time=0
EXTRACT: note_off channel=7 note=45 velocity=95 time=0
EXTRACT: note_off channel=7 note=76 velocity=95 time=0
EXTRACT: note_off channel=7 note=71 velocity=95 time=0
EXTRACT: note_off channel=7 note=68 velocity=95 time=0
EXTRACT: note_on channel=7 note=45 velocity=95 time=0
EXTRACT: note_on channel=13 note=45 velocity=95 time=0
EXTRACT: note_off channel=9 note=42 velocity=95 time=0
EXTRACT: note_on channel=9 note=42 velocity=95 time=0
EXTRACT: note_on channel=9 note=36 velocity=95 time=0
EXTRACT: note_off channel=0 note=45 velocity=95 time=0.2608695
EXTRACT: note_on channel=0 note=45 velocity=95 time=0
EXTRACT: note_off channel=8 note=33 velocity=95 time=0
EXTRACT: note_on channel=8 note=33 velocity=95 time=0
EXTRACT: note_off channel=5 note=45 velocity=95 time=0
EXTRACT: note_on channel=5 note=33 velocity=95 time=0
EXTRACT: note_off channel=7 note=45 velocity=95 time=0
EXTRACT: note_on channel=7 note=45 velocity=95 time=0
EXTRACT: note_off channel=13 note=45 velocity=95 time=0
EXTRACT: note_on channel=13 note=45 velocity=95 time=0
EXTRACT: note_off channel=9 note=42 velocity=95 time=0
EXTRACT: note_off channel=9 note=36 velocity=95 time=0
EXTRACT: note_on channel=9 note=42 velocity=95 time=0
EXTRACT: note_on channel=9 note=45 velocity=95 time=0
EXTRACT: note_off channel=0 note=45 velocity=95 time=0.2608695
EXTRACT: note_on channel=0 note=45 velocity=95 time=0
EXTRACT: note_off channel=8 note=33 velocity=95 time=0
EXTRACT: note_on channel=8 note=33 velocity=95 time=0
EXTRACT: note_off channel=11 note=80 velocity=95 time=0
EXTRACT: note_off channel=11 note=76 velocity=95 time=0
EXTRACT: note_off channel=11 note=71 velocity=95 time=0
EXTRACT: note_off channel=5 note=33 velocity=95 time=0
EXTRACT: note_on channel=5 note=44 velocity=95 time=0
EXTRACT: note_off channel=7 note=45 velocity=95 time=0
EXTRACT: note_on channel=7 note=45 velocity=95 time=0
EXTRACT: note_off channel=13 note=45 velocity=95 time=0
EXTRACT: note_on channel=13 note=45 velocity=95 time=0
EXTRACT: note_off channel=9 note=42 velocity=95 time=0
EXTRACT: note_off channel=9 note=45 velocity=95 time=0
EXTRACT: note_on channel=9 note=42 velocity=95 time=0
EXTRACT: note_on channel=9 note=41 velocity=95 time=0
EXTRACT: note_on channel=9 note=36 velocity=95 time=0
EXTRACT: note_off channel=0 note=45 velocity=95 time=0.2608695
EXTRACT: note_on channel=0 note=45 velocity=95 time=0
EXTRACT: note_off channel=8 note=33 velocity=95 time=0
EXTRACT: note_on channel=8 note=33 velocity=95 time=0
EXTRACT: note_off channel=5 note=44 velocity=95 time=0
EXTRACT: note_on channel=5 note=45 velocity=95 time=0
EXTRACT: note_off channel=7 note=45 velocity=95 time=0
EXTRACT: note_on channel=7 note=45 velocity=95 time=0
EXTRACT: note_off channel=13 note=45 velocity=95 time=0
EXTRACT: note_on channel=13 note=45 velocity=95 time=0
EXTRACT: note_off channel=9 note=42 velocity=95 time=0
EXTRACT: note_off channel=9 note=41 velocity=95 time=0
EXTRACT: note_off channel=9 note=36 velocity=95 time=0
EXTRACT: note_on channel=9 note=42 velocity=95 time=0
EXTRACT: note_on channel=9 note=43 velocity=95 time=0
EXTRACT: note_off channel=0 note=45 velocity=95 time=0.2608695
EXTRACT: note_on channel=0 note=75 velocity=95 time=0
EXTRACT: note_on channel=0 note=71 velocity=95 time=0
EXTRACT: note_on channel=0 note=66 velocity=95 time=0
EXTRACT: note_off channel=8 note=33 velocity=95 time=0
EXTRACT: note_on channel=8 note=28 velocity=95 time=0
EXTRACT: note_off channel=5 note=45 velocity=95 time=0
EXTRACT: note_on channel=5 note=28 velocity=95 time=0
EXTRACT: note_off channel=7 note=45 velocity=95 time=0
EXTRACT: note_on channel=7 note=75 velocity=95 time=0
EXTRACT: note_on channel=7 note=71 velocity=95 time=0
EXTRACT: note_on channel=7 note=66 velocity=95 time=0
EXTRACT: note_off channel=13 note=45 velocity=95 time=0
EXTRACT: note_off channel=9 note=42 velocity=95 time=0
EXTRACT: note_off channel=9 note=43 velocity=95 time=0
EXTRACT: note_on channel=9 note=42 velocity=95 time=0
EXTRACT: note_on channel=9 note=36 velocity=95 time=0
EXTRACT: note_off channel=0 note=75 velocity=95 time=0.2608695
EXTRACT: note_off channel=0 note=71 velocity=95 time=0
EXTRACT: note_off channel=0 note=66 velocity=95 time=0
EXTRACT: note_on channel=0 note=40 velocity=95 time=0
EXTRACT: note_off channel=8 note=28 velocity=95 time=0
EXTRACT: note_on channel=8 note=28 velocity=95 time=0
EXTRACT: note_off channel=5 note=28 velocity=95 time=0
EXTRACT: note_on channel=5 note=28 velocity=95 time=0
EXTRACT: note_off channel=7 note=75 velocity=95 time=0
EXTRACT: note_off channel=7 note=71 velocity=95 time=0
EXTRACT: note_off channel=7 note=66 velocity=95 time=0
EXTRACT: note_on channel=7 note=40 velocity=95 time=0
EXTRACT: note_on channel=13 note=40 velocity=95 time=0
EXTRACT: note_off channel=9 note=42 velocity=95 time=0
EXTRACT: note_off channel=9 note=36 velocity=95 time=0
EXTRACT: note_on channel=9 note=42 velocity=95 time=0
EXTRACT: note_off channel=0 note=40 velocity=95 time=0.2608695
EXTRACT: note_on channel=0 note=40 velocity=95 time=0
EXTRACT: note_off channel=8 note=28 velocity=95 time=0
EXTRACT: note_on channel=8 note=28 velocity=95 time=0
EXTRACT: note_off channel=5 note=28 velocity=95 time=0
EXTRACT: note_on channel=5 note=28 velocity=95 time=0
EXTRACT: note_off channel=7 note=40 velocity=95 time=0
EXTRACT: note_on channel=7 note=40 velocity=95 time=0
EXTRACT: note_off channel=13 note=40 velocity=95 time=0
EXTRACT: note_on channel=13 note=40 velocity=95 time=0
EXTRACT: note_off channel=9 note=42 velocity=95 time=0
EXTRACT: note_on channel=9 note=42 velocity=95 time=0
EXTRACT: note_on channel=9 note=40 velocity=95 time=0
EXTRACT: note_on channel=0 note=76 velocity=95 time=0.2608695
EXTRACT: note_on channel=0 note=71 velocity=95 time=0
EXTRACT: note_on channel=0 note=68 velocity=95 time=0
EXTRACT: note_off channel=8 note=28 velocity=95 time=0
EXTRACT: note_on channel=8 note=28 velocity=95 time=0
EXTRACT: note_off channel=5 note=28 velocity=95 time=0
EXTRACT: note_on channel=5 note=28 velocity=95 time=0
EXTRACT: note_on channel=7 note=76 velocity=95 time=0
EXTRACT: note_on channel=7 note=71 velocity=95 time=0
EXTRACT: note_on channel=7 note=68 velocity=95 time=0
EXTRACT: note_off channel=13 note=40 velocity=95 time=0
EXTRACT: note_off channel=9 note=42 velocity=95 time=0
EXTRACT: note_off channel=9 note=40 velocity=95 time=0
EXTRACT: note_on channel=9 note=42 velocity=95 time=0
EXTRACT: note_off channel=0 note=40 velocity=95 time=0.2608695
EXTRACT: note_off channel=0 note=76 velocity=95 time=0
EXTRACT: note_off channel=0 note=71 velocity=95 time=0
EXTRACT: note_off channel=0 note=68 velocity=95 time=0
EXTRACT: note_on channel=0 note=40 velocity=95 time=0
EXTRACT: note_off channel=8 note=28 velocity=95 time=0
EXTRACT: note_on channel=8 note=28 velocity=95 time=0
EXTRACT: note_on channel=11 note=76 velocity=95 time=0
EXTRACT: note_off channel=5 note=28 velocity=95 time=0
EXTRACT: note_on channel=5 note=28 velocity=95 time=0
EXTRACT: note_off channel=7 note=40 velocity=95 time=0
EXTRACT: note_off channel=7 note=76 velocity=95 time=0
EXTRACT: note_off channel=7 note=71 velocity=95 time=0
EXTRACT: note_off channel=7 note=68 velocity=95 time=0
EXTRACT: note_on channel=7 note=40 velocity=95 time=0
EXTRACT: note_on channel=13 note=40 velocity=95 time=0
EXTRACT: note_off channel=9 note=42 velocity=95 time=0
EXTRACT: note_on channel=9 note=42 velocity=95 time=0
EXTRACT: note_on channel=9 note=36 velocity=95 time=0
EXTRACT: note_off channel=0 note=40 velocity=95 time=0.2608695
EXTRACT: note_on channel=0 note=40 velocity=95 time=0
EXTRACT: note_off channel=8 note=28 velocity=95 time=0
EXTRACT: note_on channel=8 note=28 velocity=95 time=0
EXTRACT: note_off channel=11 note=76 velocity=95 time=0
EXTRACT: note_on channel=11 note=76 velocity=95 time=0
EXTRACT: note_off channel=5 note=28 velocity=95 time=0
EXTRACT: note_on channel=5 note=28 velocity=95 time=0
EXTRACT: note_off channel=7 note=40 velocity=95 time=0
EXTRACT: note_on channel=7 note=40 velocity=95 time=0
EXTRACT: note_off channel=13 note=40 velocity=95 time=0
EXTRACT: note_on channel=13 note=40 velocity=95 time=0
EXTRACT: note_off channel=9 note=42 velocity=95 time=0
EXTRACT: note_off channel=9 note=36 velocity=95 time=0
EXTRACT: note_on channel=9 note=42 velocity=95 time=0
EXTRACT: note_off channel=0 note=40 velocity=95 time=0.2608695
EXTRACT: note_on channel=0 note=40 velocity=95 time=0
EXTRACT: note_off channel=8 note=28 velocity=95 time=0
EXTRACT: note_on channel=8 note=28 velocity=95 time=0
EXTRACT: note_off channel=11 note=76 velocity=95 time=0
EXTRACT: note_on channel=11 note=76 velocity=95 time=0
EXTRACT: note_off channel=5 note=28 velocity=95 time=0
EXTRACT: note_on channel=5 note=28 velocity=95 time=0
EXTRACT: note_off channel=7 note=40 velocity=95 time=0
EXTRACT: note_on channel=7 note=40 velocity=95 time=0
EXTRACT: note_off channel=13 note=40 velocity=95 time=0
EXTRACT: note_on channel=13 note=40 velocity=95 time=0
EXTRACT: note_off channel=9 note=42 velocity=95 time=0
EXTRACT: note_on channel=9 note=42 velocity=127 time=0
EXTRACT: note_on channel=9 note=43 velocity=127 time=0
EXTRACT: note_on channel=9 note=36 velocity=95 time=0
EXTRACT: note_off channel=0 note=40 velocity=95 time=0.2608695
EXTRACT: note_on channel=0 note=40 velocity=95 time=0
EXTRACT: note_off channel=8 note=28 velocity=95 time=0
EXTRACT: note_on channel=8 note=28 velocity=95 time=0
EXTRACT: note_off channel=11 note=76 velocity=95 time=0
EXTRACT: note_on channel=11 note=76 velocity=95 time=0
EXTRACT: note_off channel=5 note=28 velocity=95 time=0
EXTRACT: note_on channel=5 note=28 velocity=95 time=0
EXTRACT: note_off channel=7 note=40 velocity=95 time=0
EXTRACT: note_on channel=7 note=40 velocity=95 time=0
EXTRACT: note_off channel=13 note=40 velocity=95 time=0
EXTRACT: note_on channel=13 note=40 velocity=95 time=0
EXTRACT: note_off channel=9 note=42 velocity=127 time=0
EXTRACT: note_off channel=9 note=43 velocity=127 time=0
EXTRACT: note_off channel=9 note=36 velocity=95 time=0
EXTRACT: note_on channel=9 note=42 velocity=95 time=0
EXTRACT: note_off channel=0 note=40 velocity=95 time=0.2608695
EXTRACT: note_on channel=0 note=75 velocity=95 time=0
EXTRACT: note_on channel=0 note=71 velocity=95 time=0
EXTRACT: note_on channel=0 note=66 velocity=95 time=0
EXTRACT: note_off channel=8 note=28 velocity=95 time=0
EXTRACT: note_on channel=8 note=28 velocity=95 time=0
EXTRACT: note_off channel=11 note=76 velocity=95 time=0
EXTRACT: note_on channel=11 note=83 velocity=95 time=0
EXTRACT: note_off channel=5 note=28 velocity=95 time=0
EXTRACT: note_on channel=5 note=28 velocity=95 time=0
EXTRACT: note_off channel=7 note=40 velocity=95 time=0
EXTRACT: note_on channel=7 note=75 velocity=95 time=0
EXTRACT: note_on channel=7 note=71 velocity=95 time=0
EXTRACT: note_on channel=7 note=66 velocity=95 time=0
EXTRACT: note_off channel=13 note=40 velocity=95 time=0
EXTRACT: note_off channel=9 note=42 velocity=95 time=0
EXTRACT: note_on channel=9 note=42 velocity=95 time=0
EXTRACT: note_on channel=9 note=36 velocity=95 time=0
EXTRACT: note_off channel=0 note=75 velocity=95 time=0.2608695
EXTRACT: note_off channel=0 note=71 velocity=95 time=0
EXTRACT: note_off channel=0 note=66 velocity=95 time=0
EXTRACT: note_on channel=0 note=40 velocity=95 time=0
EXTRACT: note_off channel=8 note=28 velocity=95 time=0
EXTRACT: note_on channel=8 note=28 velocity=95 time=0
EXTRACT: note_off channel=5 note=28 velocity=95 time=0
EXTRACT: note_on channel=5 note=40 velocity=95 time=0
EXTRACT: note_off channel=7 note=75 velocity=95 time=0
EXTRACT: note_off channel=7 note=71 velocity=95 time=0
EXTRACT: note_off channel=7 note=66 velocity=95 time=0
EXTRACT: note_on channel=7 note=40 velocity=95 time=0
EXTRACT: note_on channel=13 note=40 velocity=95 time=0
EXTRACT: note_off channel=9 note=42 velocity=95 time=0
EXTRACT: note_off channel=9 note=36 velocity=95 time=0
EXTRACT: note_on channel=9 note=42 velocity=95 time=0
EXTRACT: note_off channel=0 note=40 velocity=95 time=0.2608695
EXTRACT: note_on channel=0 note=40 velocity=95 time=0
EXTRACT: note_off channel=8 note=28 velocity=95 time=0
EXTRACT: note_on channel=8 note=28 velocity=95 time=0
EXTRACT: note_off channel=11 note=83 velocity=95 time=0
EXTRACT: note_on channel=11 note=81 velocity=95 time=0
EXTRACT: note_off channel=5 note=40 velocity=95 time=0
EXTRACT: note_on channel=5 note=39 velocity=95 time=0
EXTRACT: note_off channel=7 note=40 velocity=95 time=0
EXTRACT: note_on channel=7 note=40 velocity=95 time=0
EXTRACT: note_off channel=13 note=40 velocity=95 time=0
EXTRACT: note_on channel=13 note=40 velocity=95 time=0
EXTRACT: note_off channel=9 note=42 velocity=95 time=0
EXTRACT: note_on channel=9 note=42 velocity=95 time=0
EXTRACT: note_on channel=9 note=40 velocity=95 time=0
EXTRACT: note_on channel=0 note=76 velocity=95 time=0.2608695
EXTRACT: note_on channel=0 note=71 velocity=95 time=0
EXTRACT: note_on channel=0 note=68 velocity=95 time=0
EXTRACT: note_off channel=8 note=28 velocity=95 time=0
EXTRACT: note_on channel=8 note=28 velocity=95 time=0
EXTRACT: note_off channel=11 note=81 velocity=95 time=0
EXTRACT: note_on channel=11 note=80 velocity=95 time=0
EXTRACT: note_off channel=5 note=39 velocity=95 time=0
EXTRACT: note_on channel=5 note=28 velocity=95 time=0
EXTRACT: note_on channel=7 note=76 velocity=95 time=0
EXTRACT: note_on channel=7 note=71 velocity=95 time=0
EXTRACT: note_on channel=7 note=68 velocity=95 time=0
EXTRACT: note_off channel=13 note=40 velocity=95 time=0
EXTRACT: note_off channel=9 note=42 velocity=95 time=0
EXTRACT: note_off channel=9 note=40 velocity=95 time=0
EXTRACT: note_on channel=9 note=42 velocity=95 time=0
EXTRACT: note_off channel=0 note=40 velocity=95 time=0.2608695
EXTRACT: note_off channel=0 note=76 velocity=95 time=0
EXTRACT: note_off channel=0 note=71 velocity=95 time=0
EXTRACT: note_off channel=0 note=68 velocity=95 time=0
EXTRACT: note_on channel=0 note=40 velocity=95 time=0
EXTRACT: note_off channel=8 note=28 velocity=95 time=0
EXTRACT: note_on channel=8 note=28 velocity=95 time=0
EXTRACT: note_off channel=5 note=28 velocity=95 time=0
EXTRACT: note_on channel=5 note=40 velocity=95 time=0
EXTRACT: note_off channel=7 note=40 velocity=95 time=0
EXTRACT: note_off channel=7 note=76 velocity=95 time=0
EXTRACT: note_off channel=7 note=71 velocity=95 time=0
EXTRACT: note_off channel=7 note=68 velocity=95 time=0
EXTRACT: note_on channel=7 note=40 velocity=95 time=0
EXTRACT: note_on channel=13 note=40 velocity=95 time=0
EXTRACT: note_off channel=9 note=42 velocity=95 time=0
EXTRACT: note_on channel=9 note=42 velocity=95 time=0
EXTRACT: note_on channel=9 note=36 velocity=95 time=0
EXTRACT: note_off channel=0 note=40 velocity=95 time=0.2608695
EXTRACT: note_on channel=0 note=40 velocity=95 time=0
EXTRACT: note_off channel=8 note=28 velocity=95 time=0
EXTRACT: note_on channel=8 note=28 velocity=95 time=0
EXTRACT: note_off channel=5 note=40 velocity=95 time=0
EXTRACT: note_on channel=5 note=28 velocity=95 time=0
EXTRACT: note_off channel=7 note=40 velocity=95 time=0
EXTRACT: note_on channel=7 note=40 velocity=95 time=0
EXTRACT: note_off channel=13 note=40 velocity=95 time=0
EXTRACT: note_on channel=13 note=40 velocity=95 time=0
EXTRACT: note_off channel=9 note=42 velocity=95 time=0
EXTRACT: note_off channel=9 note=36 velocity=95 time=0
EXTRACT: note_on channel=9 note=42 velocity=95 time=0
EXTRACT: note_on channel=9 note=45 velocity=95 time=0
EXTRACT: note_off channel=0 note=40 velocity=95 time=0.2608695
EXTRACT: note_on channel=0 note=40 velocity=95 time=0
EXTRACT: note_off channel=8 note=28 velocity=95 time=0
EXTRACT: note_on channel=8 note=28 velocity=95 time=0
EXTRACT: note_off channel=11 note=80 velocity=95 time=0
EXTRACT: note_on channel=11 note=78 velocity=95 time=0
EXTRACT: note_off channel=5 note=28 velocity=95 time=0
EXTRACT: note_on channel=5 note=39 velocity=95 time=0
EXTRACT: note_off channel=7 note=40 velocity=95 time=0
EXTRACT: note_on channel=7 note=40 velocity=95 time=0
EXTRACT: note_off channel=13 note=40 velocity=95 time=0
EXTRACT: note_on channel=13 note=40 velocity=95 time=0
EXTRACT: note_off channel=9 note=42 velocity=95 time=0
EXTRACT: note_off channel=9 note=45 velocity=95 time=0
EXTRACT: note_on channel=9 note=42 velocity=95 time=0
EXTRACT: note_on channel=9 note=41 velocity=95 time=0
EXTRACT: note_on channel=9 note=36 velocity=95 time=0
EXTRACT: note_off channel=0 note=40 velocity=95 time=0.2608695
EXTRACT: note_on channel=0 note=40 velocity=95 time=0
EXTRACT: note_off channel=8 note=28 velocity=95 time=0
EXTRACT: note_on channel=8 note=28 velocity=95 time=0
EXTRACT: note_off channel=5 note=39 velocity=95 time=0
EXTRACT: note_on channel=5 note=40 velocity=95 time=0
EXTRACT: note_off channel=7 note=40 velocity=95 time=0
EXTRACT: note_on channel=7 note=40 velocity=95 time=0
EXTRACT: note_off channel=13 note=40 velocity=95 time=0
EXTRACT: note_on channel=13 note=40 velocity=95 time=0
EXTRACT: note_off channel=9 note=42 velocity=95 time=0
EXTRACT: note_off channel=9 note=41 velocity=95 time=0
EXTRACT: note_off channel=9 note=36 velocity=95 time=0
EXTRACT: note_on channel=9 note=42 velocity=95 time=0
EXTRACT: note_on channel=9 note=43 velocity=95 time=0
EXTRACT: note_off channel=0 note=40 velocity=95 time=0.2608695
EXTRACT: note_on channel=0 note=75 velocity=95 time=0
EXTRACT: note_on channel=0 note=71 velocity=95 time=0
EXTRACT: note_on channel=0 note=66 velocity=95 time=0
EXTRACT: note_off channel=8 note=28 velocity=95 time=0
EXTRACT: note_on channel=8 note=33 velocity=95 time=0
EXTRACT: note_off channel=11 note=78 velocity=95 time=0
EXTRACT: note_on channel=11 note=78 velocity=95 time=0
EXTRACT: note_on channel=11 note=75 velocity=95 time=0
EXTRACT: note_on channel=11 note=71 velocity=95 time=0
EXTRACT: note_off channel=5 note=40 velocity=95 time=0
EXTRACT: note_on channel=5 note=33 velocity=95 time=0
EXTRACT: note_off channel=7 note=40 velocity=95 time=0
EXTRACT: note_on channel=7 note=75 velocity=95 time=0
EXTRACT: note_on channel=7 note=71 velocity=95 time=0
EXTRACT: note_on channel=7 note=66 velocity=95 time=0
EXTRACT: note_off channel=13 note=40 velocity=95 time=0
EXTRACT: note_off channel=9 note=42 velocity=95 time=0
EXTRACT: note_off channel=9 note=43 velocity=95 time=0
EXTRACT: note_on channel=9 note=42 velocity=95 time=0
EXTRACT: note_on channel=9 note=36 velocity=95 time=0
EXTRACT: note_off channel=0 note=75 velocity=95 time=0.2608695
EXTRACT: note_off channel=0 note=71 velocity=95 time=0
EXTRACT: note_off channel=0 note=66 velocity=95 time=0
EXTRACT: note_on channel=0 note=45 velocity=95 time=0
EXTRACT: note_off channel=8 note=33 velocity=95 time=0
EXTRACT: note_on channel=8 note=33 velocity=95 time=0
EXTRACT: note_off channel=5 note=33 velocity=95 time=0
EXTRACT: note_on channel=5 note=33 velocity=95 time=0
EXTRACT: note_off channel=7 note=75 velocity=95 time=0
EXTRACT: note_off channel=7 note=71 velocity=95 time=0
EXTRACT: note_off channel=7 note=66 velocity=95 time=0
EXTRACT: note_on channel=7 note=45 velocity=95 time=0
EXTRACT: note_on channel=13 note=45 velocity=95 time=0
EXTRACT: note_off channel=9 note=42 velocity=95 time=0
EXTRACT: note_off channel=9 note=36 velocity=95 time=0
EXTRACT: note_on channel=9 note=42 velocity=95 time=0
EXTRACT: note_off channel=0 note=45 velocity=95 time=0.2608695
EXTRACT: note_on channel=0 note=45 velocity=95 time=0
EXTRACT: note_off channel=8 note=33 velocity=95 time=0
EXTRACT: note_on channel=8 note=33 velocity=95 time=0
EXTRACT: note_off channel=5 note=33 velocity=95 time=0
EXTRACT: note_on channel=5 note=33 velocity=95 time=0
EXTRACT: note_off channel=7 note=45 velocity=95 time=0
EXTRACT: note_on channel=7 note=45 velocity=95 time=0
EXTRACT: note_off channel=13 note=45 velocity=95 time=0
EXTRACT: note_on channel=13 note=45 velocity=95 time=0
EXTRACT: note_off channel=9 note=42 velocity=95 time=0
EXTRACT: note_on channel=9 note=42 velocity=95 time=0
EXTRACT: note_on channel=9 note=40 velocity=95 time=0
EXTRACT: note_on channel=0 note=73 velocity=95 time=0.2608695
EXTRACT: note_on channel=0 note=69 velocity=95 time=0
EXTRACT: note_on channel=0 note=64 velocity=95 time=0
EXTRACT: note_off channel=8 note=33 velocity=95 time=0
EXTRACT: note_on channel=8 note=33 velocity=95 time=0
EXTRACT: note_off channel=11 note=78 velocity=95 time=0
EXTRACT: note_off channel=11 note=75 velocity=95 time=0
EXTRACT: note_off channel=11 note=71 velocity=95 time=0
EXTRACT: note_on channel=11 note=76 velocity=95 time=0
EXTRACT: note_on channel=11 note=73 velocity=95 time=0
EXTRACT: note_on channel=11 note=69 velocity=95 time=0
EXTRACT: note_off channel=5 note=33 velocity=95 time=0
EXTRACT: note_on channel=5 note=33 velocity=95 time=0
EXTRACT: note_on channel=7 note=73 velocity=95 time=0
EXTRACT: note_on channel=7 note=69 velocity=95 time=0
EXTRACT: note_on channel=7 note=64 velocity=95 time=0
EXTRACT: note_off channel=13 note=45 velocity=95 time=0
EXTRACT: note_off channel=9 note=42 velocity=95 time=0
EXTRACT: note_off channel=9 note=40 velocity=95 time=0
EXTRACT: note_on channel=9 note=42 velocity=95 time=0
EXTRACT: note_off channel=0 note=45 velocity=95 time=0.2608695
EXTRACT: note_off channel=0 note=73 velocity=95 time=0
EXTRACT: note_off channel=0 note=69 velocity=95 time=0
EXTRACT: note_off channel=0 note=64 velocity=95 time=0
EXTRACT: note_on channel=0 note=45 velocity=95 time=0
EXTRACT: note_off channel=8 note=33 velocity=95 time=0
EXTRACT: note_on channel=8 note=33 velocity=95 time=0
EXTRACT: note_off channel=5 note=33 velocity=95 time=0
EXTRACT: note_on channel=5 note=33 velocity=95 time=0
EXTRACT: note_off channel=7 note=45 velocity=95 time=0
EXTRACT: note_off channel=7 note=73 velocity=95 time=0
EXTRACT: note_off channel=7 note=69 velocity=95 time=0
EXTRACT: note_off channel=7 note=64 velocity=95 time=0
EXTRACT: note_on channel=7 note=45 velocity=95 time=0
EXTRACT: note_on channel=13 note=45 velocity=95 time=0
EXTRACT: note_off channel=9 note=42 velocity=95 time=0
EXTRACT: note_on channel=9 note=42 velocity=95 time=0
EXTRACT: note_on channel=9 note=36 velocity=95 time=0
EXTRACT: note_off channel=0 note=45 velocity=95 time=0.2608695
EXTRACT: note_on channel=0 note=45 velocity=95 time=0
EXTRACT: note_off channel=8 note=33 velocity=95 time=0
EXTRACT: note_on channel=8 note=33 velocity=95 time=0
EXTRACT: note_off channel=5 note=33 velocity=95 time=0
EXTRACT: note_on channel=5 note=33 velocity=95 time=0
EXTRACT: note_off channel=7 note=45 velocity=95 time=0
EXTRACT: note_on channel=7 note=45 velocity=95 time=0
EXTRACT: note_off channel=13 note=45 velocity=95 time=0
EXTRACT: note_on channel=13 note=45 velocity=95 time=0
EXTRACT: note_off channel=9 note=42 velocity=95 time=0
EXTRACT: note_off channel=9 note=36 velocity=95 time=0
EXTRACT: note_on channel=9 note=42 velocity=95 time=0
EXTRACT: note_off channel=0 note=45 velocity=95 time=0.2608695
EXTRACT: note_on channel=0 note=45 velocity=95 time=0
EXTRACT: note_off channel=8 note=33 velocity=95 time=0
EXTRACT: note_on channel=8 note=33 velocity=95 time=0
EXTRACT: note_off channel=11 note=76 velocity=95 time=0
EXTRACT: note_off channel=11 note=73 velocity=95 time=0
EXTRACT: note_off channel=11 note=69 velocity=95 time=0
EXTRACT: note_off channel=5 note=33 velocity=95 time=0
EXTRACT: note_on channel=5 note=33 velocity=95 time=0
EXTRACT: note_off channel=7 note=45 velocity=95 time=0
EXTRACT: note_on channel=7 note=45 velocity=95 time=0
EXTRACT: note_off channel=13 note=45 velocity=95 time=0
EXTRACT: note_on channel=13 note=45 velocity=95 time=0
EXTRACT: note_off channel=9 note=42 velocity=95 time=0
EXTRACT: note_on channel=9 note=42 velocity=127 time=0
EXTRACT: note_on channel=9 note=43 velocity=127 time=0
EXTRACT: note_on channel=9 note=36 velocity=95 time=0
EXTRACT: note_off channel=0 note=45 velocity=95 time=0.2608695
EXTRACT: note_on channel=0 note=45 velocity=95 time=0
EXTRACT: note_off channel=8 note=33 velocity=95 time=0
EXTRACT: note_on channel=8 note=33 velocity=95 time=0
EXTRACT: note_off channel=5 note=33 velocity=95 time=0
EXTRACT: note_on channel=5 note=33 velocity=95 time=0
EXTRACT: note_off channel=7 note=45 velocity=95 time=0
EXTRACT: note_on channel=7 note=45 velocity=95 time=0
EXTRACT: note_off channel=13 note=45 velocity=95 time=0
EXTRACT: note_on channel=13 note=45 velocity=95 time=0
EXTRACT: note_off channel=9 note=42 velocity=127 time=0
EXTRACT: note_off channel=9 note=43 velocity=127 time=0
EXTRACT: note_off channel=9 note=36 velocity=95 time=0
EXTRACT: note_on channel=9 note=42 velocity=95 time=0
EXTRACT: note_off channel=0 note=45 velocity=95 time=0.2608695
EXTRACT: note_on channel=0 note=75 velocity=95 time=0
EXTRACT: note_on channel=0 note=71 velocity=95 time=0
EXTRACT: note_on channel=0 note=66 velocity=95 time=0
EXTRACT: note_off channel=8 note=33 velocity=95 time=0
EXTRACT: note_on channel=8 note=33 velocity=95 time=0
EXTRACT: note_on channel=11 note=78 velocity=95 time=0
EXTRACT: note_on channel=11 note=75 velocity=95 time=0
EXTRACT: note_on channel=11 note=71 velocity=95 time=0
EXTRACT: note_off channel=5 note=33 velocity=95 time=0
EXTRACT: note_on channel=5 note=33 velocity=95 time=0
EXTRACT: note_off channel=7 note=45 velocity=95 time=0
EXTRACT: note_on channel=7 note=75 velocity=95 time=0
EXTRACT: note_on channel=7 note=71 velocity=95 time=0
EXTRACT: note_on channel=7 note=66 velocity=95 time=0
EXTRACT: note_off channel=13 note=45 velocity=95 time=0
EXTRACT: note_off channel=9 note=42 velocity=95 time=0
EXTRACT: note_on channel=9 note=42 velocity=95 time=0
EXTRACT: note_on channel=9 note=36 velocity=95 time=0
EXTRACT: note_off channel=0 note=75 velocity=95 time=0.2608695
EXTRACT: note_off channel=0 note=71 velocity=95 time=0
EXTRACT: note_off channel=0 note=66 velocity=95 time=0
EXTRACT: note_on channel=0 note=45 velocity=95 time=0
EXTRACT: note_off channel=8 note=33 velocity=95 time=0
EXTRACT: note_on channel=8 note=33 velocity=95 time=0
EXTRACT: note_off channel=5 note=33 velocity=95 time=0
EXTRACT: note_on channel=5 note=45 velocity=95 time=0
EXTRACT: note_off channel=7 note=75 velocity=95 time=0
EXTRACT: note_off channel=7 note=71 velocity=95 time=0
EXTRACT: note_off channel=7 note=66 velocity=95 time=0
EXTRACT: note_on channel=7 note=45 velocity=95 time=0
EXTRACT: note_on channel=13 note=45 velocity=95 time=0
EXTRACT: note_off channel=9 note=42 velocity=95 time=0
EXTRACT: note_off channel=9 note=36 velocity=95 time=0
EXTRACT: note_on channel=9 note=42 velocity=95 time=0
EXTRACT: note_off channel=0 note=45 velocity=95 time=0.2608695
EXTRACT: note_on channel=0 note=45 velocity=95 time=0
EXTRACT: note_off channel=8 note=33 velocity=95 time=0
EXTRACT: note_on channel=8 note=33 velocity=95 time=0
EXTRACT: note_off channel=5 note=45 velocity=95 time=0
EXTRACT: note_on channel=5 note=44 velocity=95 time=0
EXTRACT: note_off channel=7 note=45 velocity=95 time=0
EXTRACT: note_on channel=7 note=45 velocity=95 time=0
EXTRACT: note_off channel=13 note=45 velocity=95 time=0
EXTRACT: note_on channel=13 note=45 velocity=95 time=0
EXTRACT: note_off channel=9 note=42 velocity=95 time=0
EXTRACT: note_on channel=9 note=42 velocity=95 time=0
EXTRACT: note_on channel=9 note=40 velocity=95 time=0
EXTRACT: note_on channel=0 note=76 velocity=95 time=0.2608695
EXTRACT: note_on channel=0 note=71 velocity=95 time=0
EXTRACT: note_on channel=0 note=68 velocity=95 time=0
EXTRACT: note_off channel=8 note=33 velocity=95 time=0
EXTRACT: note_on channel=8 note=33 velocity=95 time=0
EXTRACT: note_off channel=11 note=78 velocity=95 time=0
EXTRACT: note_off channel=11 note=75 velocity=95 time=0
EXTRACT: note_off channel=11 note=71 velocity=95 time=0
EXTRACT: note_on channel=11 note=80 velocity=95 time=0
EXTRACT: note_on channel=11 note=76 velocity=95 time=0
EXTRACT: note_on channel=11 note=71 velocity=95 time=0
EXTRACT: note_off channel=5 note=44 velocity=95 time=0
EXTRACT: note_on channel=5 note=33 velocity=95 time=0
EXTRACT: note_on channel=7 note=76 velocity=95 time=0
EXTRACT: note_on channel=7 note=71 velocity=95 time=0
EXTRACT: note_on channel=7 note=68 velocity=95 time=0
EXTRACT: note_off channel=13 note=45 velocity=95 time=0
EXTRACT: note_off channel=9 note=42 velocity=95 time=0
EXTRACT: note_off channel=9 note=40 velocity=95 time=0
EXTRACT: note_on channel=9 note=42 velocity=95 time=0
EXTRACT: note_off channel=0 note=45 velocity=95 time=0.2608695
EXTRACT: note_off channel=0 note=76 velocity=95 time=0
EXTRACT: note_off channel=0 note=71 velocity=95 time=0
EXTRACT: note_off channel=0 note=68 velocity=95 time=0
EXTRACT: note_on channel=0 note=45 velocity=95 time=0
EXTRACT: note_off channel=8 note=33 velocity=95 time=0
EXTRACT: note_on channel=8 note=33 velocity=95 time=0
EXTRACT: note_off channel=11 note=80 velocity=95 time=0
EXTRACT: note_off channel=11 note=76 velocity=95 time=0
EXTRACT: note_off channel=11 note=71 velocity=95 time=0
EXTRACT: note_on channel=11 note=80 velocity=95 time=0
EXTRACT: note_off channel=5 note=33 velocity=95 time=0
EXTRACT: note_on channel=5 note=45 velocity=95 time=0
EXTRACT: note_off channel=7 note=45 velocity=95 time=0
EXTRACT: note_off channel=7 note=76 velocity=95 time=0
EXTRACT: note_off channel=7 note=71 velocity=95 time=0
EXTRACT: note_off channel=7 note=68 velocity=95 time=0
EXTRACT: note_on channel=7 note=45 velocity=95 time=0
EXTRACT: note_on channel=13 note=45 velocity=95 time=0
EXTRACT: note_off channel=9 note=42 velocity=95 time=0
EXTRACT: note_on channel=9 note=42 velocity=95 time=0
EXTRACT: note_on channel=9 note=36 velocity=95 time=0
EXTRACT: note_off channel=0 note=45 velocity=95 time=0.2608695
EXTRACT: note_on channel=0 note=45 velocity=95 time=0
EXTRACT: note_off channel=8 note=33 velocity=95 time=0
EXTRACT: note_on channel=8 note=33 velocity=95 time=0
EXTRACT: note_off channel=11 note=80 velocity=95 time=0
EXTRACT: note_on channel=11 note=78 velocity=95 time=0
EXTRACT: note_off channel=5 note=45 velocity=95 time=0
EXTRACT: note_on channel=5 note=33 velocity=95 time=0
EXTRACT: note_off channel=7 note=45 velocity=95 time=0
EXTRACT: note_on channel=7 note=45 velocity=95 time=0
EXTRACT: note_off channel=13 note=45 velocity=95 time=0
EXTRACT: note_on channel=13 note=45 velocity=95 time=0
EXTRACT: note_off channel=9 note=42 velocity=95 time=0
EXTRACT: note_off channel=9 note=36 velocity=95 time=0
EXTRACT: note_on channel=9 note=42 velocity=95 time=0
EXTRACT: note_on channel=9 note=45 velocity=95 time=0
EXTRACT: note_off channel=0 note=45 velocity=95 time=0.2608695
EXTRACT: note_on channel=0 note=45 velocity=95 time=0
EXTRACT: note_off channel=8 note=33 velocity=95 time=0
EXTRACT: note_on channel=8 note=33 velocity=95 time=0
EXTRACT: note_off channel=11 note=78 velocity=95 time=0
EXTRACT: note_on channel=11 note=76 velocity=95 time=0
EXTRACT: note_off channel=5 note=33 velocity=95 time=0
EXTRACT: note_on channel=5 note=44 velocity=95 time=0
EXTRACT: note_off channel=7 note=45 velocity=95 time=0
EXTRACT: note_on channel=7 note=45 velocity=95 time=0
EXTRACT: note_off channel=13 note=45 velocity=95 time=0
EXTRACT: note_on channel=13 note=45 velocity=95 time=0
EXTRACT: note_off channel=9 note=42 velocity=95 time=0
EXTRACT: note_off channel=9 note=45 velocity=95 time=0
EXTRACT: note_on channel=9 note=42 velocity=95 time=0
EXTRACT: note_on channel=9 note=43 velocity=95 time=0
EXTRACT: note_on channel=9 note=36 velocity=95 time=0
EXTRACT: note_off channel=0 note=45 velocity=95 time=0.2608695
EXTRACT: note_on channel=0 note=45 velocity=95 time=0
EXTRACT: note_off channel=8 note=33 velocity=95 time=0
EXTRACT: note_on channel=8 note=33 velocity=95 time=0
EXTRACT: note_off channel=11 note=76 velocity=95 time=0
EXTRACT: note_on channel=11 note=78 velocity=95 time=0
EXTRACT: note_off channel=5 note=44 velocity=95 time=0
EXTRACT: note_on channel=5 note=45 velocity=95 time=0
EXTRACT: note_off channel=7 note=45 velocity=95 time=0
EXTRACT: note_on channel=7 note=45 velocity=95 time=0
EXTRACT: note_off channel=13 note=45 velocity=95 time=0
EXTRACT: note_on channel=13 note=45 velocity=95 time=0
EXTRACT: note_off channel=9 note=42 velocity=95 time=0
EXTRACT: note_off channel=9 note=43 velocity=95 time=0
EXTRACT: note_off channel=9 note=36 velocity=95 time=0
EXTRACT: note_on channel=9 note=42 velocity=95 time=0
EXTRACT: note_on channel=9 note=41 velocity=95 time=0
EXTRACT: note_off channel=0 note=45 velocity=95 time=0.2608695
EXTRACT: note_on channel=0 note=75 velocity=95 time=0
EXTRACT: note_on channel=0 note=71 velocity=95 time=0
EXTRACT: note_on channel=0 note=66 velocity=95 time=0
EXTRACT: note_off channel=8 note=33 velocity=95 time=0
EXTRACT: note_on channel=8 note=35 velocity=95 time=0
EXTRACT: note_off channel=11 note=78 velocity=95 time=0
EXTRACT: note_on channel=12 note=83 velocity=95 time=0
EXTRACT: note_off channel=5 note=45 velocity=95 time=0
EXTRACT: note_on channel=5 note=35 velocity=95 time=0
EXTRACT: note_off channel=7 note=45 velocity=95 time=0
EXTRACT: note_on channel=7 note=75 velocity=95 time=0
EXTRACT: note_on channel=7 note=71 velocity=95 time=0
EXTRACT: note_on channel=7 note=66 velocity=95 time=0
EXTRACT: note_off channel=13 note=45 velocity=95 time=0
EXTRACT: note_on channel=13 note=47 velocity=95 time=0
EXTRACT: note_off channel=9 note=42 velocity=95 time=0
EXTRACT: note_off channel=9 note=41 velocity=95 time=0
EXTRACT: note_on channel=9 note=49 velocity=95 time=0
EXTRACT: note_on channel=9 note=36 velocity=95 time=0
EXTRACT: pitchwheel channel=12 pitch=0 time=0.08695649999999999
EXTRACT: pitchwheel channel=12 pitch=128 time=0.08695649999999999
EXTRACT: pitchwheel channel=12 pitch=0 time=0.08695649999999999
EXTRACT: pitchwheel channel=12 pitch=128 time=0.08695649999999999
EXTRACT: pitchwheel channel=12 pitch=0 time=0.08695649999999999
EXTRACT: note_off channel=0 note=75 velocity=95 time=0.08695649999999999
EXTRACT: note_off channel=0 note=71 velocity=95 time=0
EXTRACT: note_off channel=0 note=66 velocity=95 time=0
EXTRACT: note_on channel=0 note=76 velocity=95 time=0
EXTRACT: note_on channel=0 note=71 velocity=95 time=0
EXTRACT: note_on channel=0 note=66 velocity=95 time=0
EXTRACT: note_off channel=8 note=35 velocity=95 time=0
EXTRACT: note_on channel=8 note=28 velocity=95 time=0
EXTRACT: pitchwheel channel=12 pitch=128 time=0
EXTRACT: note_off channel=5 note=35 velocity=95 time=0
EXTRACT: note_on channel=5 note=28 velocity=95 time=0
EXTRACT: note_off channel=7 note=75 velocity=95 time=0
EXTRACT: note_off channel=7 note=71 velocity=95 time=0
EXTRACT: note_off channel=7 note=66 velocity=95 time=0
EXTRACT: note_on channel=7 note=76 velocity=95 time=0
EXTRACT: note_on channel=7 note=71 velocity=95 time=0
EXTRACT: note_on channel=7 note=66 velocity=95 time=0
EXTRACT: pitchwheel channel=12 pitch=0 time=0.08695649999999999
EXTRACT: pitchwheel channel=12 pitch=128 time=0.08695649999999999
EXTRACT: note_off channel=0 note=76 velocity=95 time=0.08695649999999999
EXTRACT: note_off channel=0 note=71 velocity=95 time=0
EXTRACT: note_off channel=0 note=66 velocity=95 time=0
EXTRACT: note_on channel=0 note=76 velocity=95 time=0
EXTRACT: note_on channel=0 note=71 velocity=95 time=0
EXTRACT: note_on channel=0 note=66 velocity=95 time=0
EXTRACT: note_off channel=8 note=28 velocity=95 time=0
EXTRACT: note_on channel=8 note=28 velocity=95 time=0
EXTRACT: pitchwheel channel=12 pitch=0 time=0
EXTRACT: note_off channel=5 note=28 velocity=95 time=0
EXTRACT: note_on channel=5 note=28 velocity=95 time=0
EXTRACT: note_off channel=7 note=76 velocity=95 time=0
EXTRACT: note_off channel=7 note=71 velocity=95 time=0
EXTRACT: note_off channel=7 note=66 velocity=95 time=0
EXTRACT: note_on channel=7 note=76 velocity=95 time=0
EXTRACT: note_on channel=7 note=71 velocity=95 time=0
EXTRACT: note_on channel=7 note=66 velocity=95 time=0
EXTRACT: note_off channel=13 note=47 velocity=95 time=0
EXTRACT: note_on channel=13 note=47 velocity=95 time=0
EXTRACT: note_on channel=13 note=40 velocity=95 time=0
EXTRACT: note_off channel=9 note=49 velocity=95 time=0
EXTRACT: note_off channel=9 note=36 velocity=95 time=0
EXTRACT: note_on channel=9 note=57 velocity=95 time=0
EXTRACT: note_on channel=9 note=36 velocity=95 time=0
EXTRACT: pitchwheel channel=12 pitch=128 time=0.08695649999999999
EXTRACT: pitchwheel channel=12 pitch=0 time=0.08695649999999999
EXTRACT: pitchwheel channel=12 pitch=128 time=0.08695649999999999
EXTRACT: pitchwheel channel=12 pitch=0 time=0.08695649999999999
EXTRACT: pitchwheel channel=12 pitch=128 time=0.08695649999999999
EXTRACT: pitchwheel channel=12 pitch=0 time=0.08695649999999999
EXTRACT: pitchwheel channel=12 pitch=128 time=0.08695649999999999
EXTRACT: pitchwheel channel=12 pitch=0 time=0.08695649999999999
EXTRACT: pitchwheel channel=12 pitch=128 time=0.08695649999999999
EXTRACT: note_off channel=9 note=57 velocity=95 time=0
EXTRACT: note_off channel=9 note=36 velocity=95 time=0
EXTRACT: pitchwheel channel=12 pitch=0 time=0.08695649999999999
EXTRACT: pitchwheel channel=12 pitch=128 time=0.08695649999999999
EXTRACT: pitchwheel channel=12 pitch=0 time=0.08695649999999999
EXTRACT: pitchwheel channel=12 pitch=128 time=0.08695649999999999
EXTRACT: pitchwheel channel=12 pitch=0 time=0.08695649999999999
EXTRACT: note_off channel=0 note=76 velocity=95 time=0.08695649999999999
EXTRACT: note_off channel=0 note=71 velocity=95 time=0
EXTRACT: note_off channel=0 note=66 velocity=95 time=0
EXTRACT: note_on channel=0 note=75 velocity=95 time=0
EXTRACT: note_on channel=0 note=71 velocity=95 time=0
EXTRACT: note_on channel=0 note=66 velocity=95 time=0
EXTRACT: note_off channel=8 note=28 velocity=95 time=0
EXTRACT: note_on channel=8 note=35 velocity=95 time=0
EXTRACT: pitchwheel channel=12 pitch=128 time=0
EXTRACT: note_off channel=5 note=28 velocity=95 time=0
EXTRACT: note_on channel=5 note=35 velocity=95 time=0
EXTRACT: note_off channel=7 note=76 velocity=95 time=0
EXTRACT: note_off channel=7 note=71 velocity=95 time=0
EXTRACT: note_off channel=7 note=66 velocity=95 time=0
EXTRACT: note_on channel=7 note=75 velocity=95 time=0
EXTRACT: note_on channel=7 note=71 velocity=95 time=0
EXTRACT: note_on channel=7 note=66 velocity=95 time=0
EXTRACT: note_off channel=13 note=47 velocity=95 time=0
EXTRACT: note_off channel=13 note=40 velocity=95 time=0
EXTRACT: note_on channel=13 note=47 velocity=95 time=0
EXTRACT: note_on channel=9 note=49 velocity=95 time=0
EXTRACT: note_on channel=9 note=36 velocity=95 time=0
EXTRACT: pitchwheel channel=12 pitch=0 time=0.08695649999999999
EXTRACT: pitchwheel channel=12 pitch=128 time=0.08695649999999999
EXTRACT: pitchwheel channel=12 pitch=0 time=0.08695649999999999
EXTRACT: pitchwheel channel=12 pitch=128 time=0.08695649999999999
EXTRACT: pitchwheel channel=12 pitch=0 time=0.08695649999999999
EXTRACT: note_off channel=0 note=75 velocity=95 time=0.08695649999999999
EXTRACT: note_off channel=0 note=71 velocity=95 time=0
EXTRACT: note_off channel=0 note=66 velocity=95 time=0
EXTRACT: note_on channel=0 note=76 velocity=95 time=0
EXTRACT: note_on channel=0 note=71 velocity=95 time=0
EXTRACT: note_on channel=0 note=66 velocity=95 time=0
EXTRACT: note_off channel=8 note=35 velocity=95 time=0
EXTRACT: note_on channel=8 note=33 velocity=95 time=0
EXTRACT: pitchwheel channel=12 pitch=128 time=0
EXTRACT: note_off channel=5 note=35 velocity=95 time=0
EXTRACT: note_on channel=5 note=33 velocity=95 time=0
EXTRACT: note_off channel=7 note=75 velocity=95 time=0
EXTRACT: note_off channel=7 note=71 velocity=95 time=0
EXTRACT: note_off channel=7 note=66 velocity=95 time=0
EXTRACT: note_on channel=7 note=76 velocity=95 time=0
EXTRACT: note_on channel=7 note=71 velocity=95 time=0
EXTRACT: note_on channel=7 note=66 velocity=95 time=0
EXTRACT: note_off channel=13 note=47 velocity=95 time=0
EXTRACT: note_on channel=13 note=57 velocity=95 time=0
EXTRACT: note_on channel=13 note=45 velocity=95 time=0
EXTRACT: note_off channel=9 note=49 velocity=95 time=0
EXTRACT: note_off channel=9 note=36 velocity=95 time=0
EXTRACT: note_on channel=9 note=57 velocity=95 time=0
EXTRACT: note_on channel=9 note=36 velocity=95 time=0
EXTRACT: pitchwheel channel=12 pitch=0 time=0.08695649999999999
EXTRACT: pitchwheel channel=12 pitch=128 time=0.08695649999999999
EXTRACT: note_off channel=0 note=76 velocity=95 time=0.08695649999999999
EXTRACT: note_off channel=0 note=71 velocity=95 time=0
EXTRACT: note_off channel=0 note=66 velocity=95 time=0
EXTRACT: note_on channel=0 note=73 velocity=95 time=0
EXTRACT: note_on channel=0 note=69 velocity=95 time=0
EXTRACT: note_on channel=0 note=64 velocity=95 time=0
EXTRACT: note_off channel=8 note=33 velocity=95 time=0
EXTRACT: note_on channel=8 note=33 velocity=95 time=0
EXTRACT: pitchwheel channel=12 pitch=0 time=0
EXTRACT: note_off channel=5 note=33 velocity=95 time=0
EXTRACT: note_on channel=5 note=33 velocity=95 time=0
EXTRACT: note_off channel=7 note=76 velocity=95 time=0
EXTRACT: note_off channel=7 note=71 velocity=95 time=0
EXTRACT: note_off channel=7 note=66 velocity=95 time=0
EXTRACT: note_on channel=7 note=73 velocity=95 time=0
EXTRACT: note_on channel=7 note=69 velocity=95 time=0
EXTRACT: note_on channel=7 note=64 velocity=95 time=0
EXTRACT: note_off channel=13 note=57 velocity=95 time=0
EXTRACT: note_off channel=13 note=45 velocity=95 time=0
EXTRACT: note_on channel=13 note=57 velocity=95 time=0
EXTRACT: note_on channel=13 note=45 velocity=95 time=0
EXTRACT: note_off channel=9 note=57 velocity=95 time=0
EXTRACT: note_off channel=9 note=36 velocity=95 time=0
EXTRACT: note_on channel=9 note=49 velocity=95 time=0
EXTRACT: note_on channel=9 note=36 velocity=95 time=0
EXTRACT: pitchwheel channel=12 pitch=128 time=0.08695649999999999
EXTRACT: pitchwheel channel=12 pitch=0 time=0.08695649999999999
EXTRACT: pitchwheel channel=12 pitch=128 time=0.08695649999999999
EXTRACT: pitchwheel channel=12 pitch=0 time=0.08695649999999999
EXTRACT: pitchwheel channel=12 pitch=128 time=0.08695649999999999
EXTRACT: pitchwheel channel=12 pitch=0 time=0.08695649999999999
EXTRACT: pitchwheel channel=12 pitch=128 time=0.08695649999999999
EXTRACT: pitchwheel channel=12 pitch=0 time=0.08695649999999999
EXTRACT: note_off channel=0 note=73 velocity=95 time=0.08695649999999999
EXTRACT: note_off channel=0 note=69 velocity=95 time=0
EXTRACT: note_off channel=0 note=64 velocity=95 time=0
EXTRACT: pitchwheel channel=12 pitch=128 time=0
EXTRACT: pitchwheel channel=12 pitch=0 time=0
EXTRACT: note_off channel=12 note=83 velocity=95 time=0
EXTRACT: note_off channel=13 note=57 velocity=95 time=0
EXTRACT: note_off channel=13 note=45 velocity=95 time=0
EXTRACT: note_on channel=14 note=57 velocity=95 time=0
EXTRACT: note_off channel=9 note=49 velocity=95 time=0
EXTRACT: note_off channel=9 note=36 velocity=95 time=0
EXTRACT: note_off channel=7 note=73 velocity=95 time=0.2608695
EXTRACT: note_off channel=7 note=69 velocity=95 time=0
EXTRACT: note_off channel=7 note=64 velocity=95 time=0
EXTRACT: note_on channel=7 note=64 velocity=95 time=0
EXTRACT: note_on channel=7 note=59 velocity=95 time=0
EXTRACT: note_on channel=7 note=52 velocity=95 time=0
EXTRACT: note_on channel=0 note=71 velocity=47 time=0.2608695
EXTRACT: note_on channel=0 note=64 velocity=47 time=0
EXTRACT: note_off channel=8 note=33 velocity=95 time=0
EXTRACT: note_on channel=8 note=40 velocity=95 time=0
EXTRACT: note_on channel=8 note=28 velocity=95 time=0
EXTRACT: note_off channel=5 note=33 velocity=95 time=0
EXTRACT: note_on channel=5 note=28 velocity=95 time=0
EXTRACT: note_off channel=7 note=64 velocity=95 time=0
EXTRACT: note_off channel=7 note=59 velocity=95 time=0
EXTRACT: note_off channel=7 note=52 velocity=95 time=0
EXTRACT: note_on channel=7 note=47 velocity=95 time=0
EXTRACT: note_on channel=7 note=40 velocity=95 time=0
EXTRACT: note_off channel=14 note=57 velocity=95 time=0
EXTRACT: note_on channel=13 note=40 velocity=95 time=0
EXTRACT: note_on channel=9 note=49 velocity=95 time=0
EXTRACT: note_on channel=9 note=57 velocity=95 time=0
EXTRACT: note_on channel=9 note=36 velocity=95 time=0
EXTRACT: note_off channel=0 note=71 velocity=47 time=0.2608695
EXTRACT: note_off channel=0 note=64 velocity=47 time=0
EXTRACT: note_on channel=0 note=59 velocity=95 time=0
EXTRACT: note_off channel=7 note=47 velocity=95 time=0
EXTRACT: note_off channel=7 note=40 velocity=95 time=0
EXTRACT: note_on channel=7 note=47 velocity=95 time=0
EXTRACT: note_on channel=7 note=40 velocity=95 time=0
EXTRACT: note_off channel=0 note=59 velocity=95 time=0.2608695
EXTRACT: note_on channel=0 note=71 velocity=47 time=0
EXTRACT: note_on channel=0 note=64 velocity=63 time=0
EXTRACT: note_off channel=7 note=47 velocity=95 time=0
EXTRACT: note_off channel=7 note=40 velocity=95 time=0
EXTRACT: note_on channel=7 note=49 velocity=95 time=0
EXTRACT: note_on channel=7 note=40 velocity=95 time=0
EXTRACT: note_off channel=13 note=40 velocity=95 time=0
EXTRACT: note_on channel=13 note=64 velocity=95 time=0
EXTRACT: note_on channel=13 note=59 velocity=95 time=0
EXTRACT: note_off channel=9 note=49 velocity=95 time=0
EXTRACT: note_off channel=9 note=57 velocity=95 time=0
EXTRACT: note_off channel=9 note=36 velocity=95 time=0
EXTRACT: note_on channel=9 note=46 velocity=63 time=0
EXTRACT: note_on channel=9 note=40 velocity=95 time=0
EXTRACT: note_off channel=0 note=71 velocity=47 time=0.2608695
EXTRACT: note_off channel=0 note=64 velocity=63 time=0
EXTRACT: note_on channel=0 note=59 velocity=95 time=0
EXTRACT: note_off channel=7 note=49 velocity=95 time=0
EXTRACT: note_off channel=7 note=40 velocity=95 time=0
EXTRACT: note_on channel=7 note=49 velocity=95 time=0
EXTRACT: note_on channel=7 note=40 velocity=95 time=0
EXTRACT: note_off channel=0 note=59 velocity=95 time=0.2608695
EXTRACT: note_on channel=0 note=71 velocity=47 time=0
EXTRACT: note_on channel=0 note=64 velocity=63 time=0
EXTRACT: note_off channel=7 note=49 velocity=95 time=0
EXTRACT: note_off channel=7 note=40 velocity=95 time=0
EXTRACT: note_on channel=7 note=47 velocity=95 time=0
EXTRACT: note_on channel=7 note=40 velocity=95 time=0
EXTRACT: note_off channel=13 note=64 velocity=95 time=0
EXTRACT: note_off channel=13 note=59 velocity=95 time=0
EXTRACT: note_on channel=13 note=40 velocity=95 time=0
EXTRACT: note_off channel=9 note=46 velocity=63 time=0
EXTRACT: note_off channel=9 note=40 velocity=95 time=0
EXTRACT: note_on channel=9 note=42 velocity=95 time=0
EXTRACT: note_on channel=9 note=36 velocity=95 time=0
EXTRACT: note_off channel=0 note=71 velocity=47 time=0.2608695
EXTRACT: note_off channel=0 note=64 velocity=63 time=0
EXTRACT: note_on channel=0 note=59 velocity=95 time=0
EXTRACT: note_off channel=8 note=40 velocity=95 time=0
EXTRACT: note_off channel=8 note=28 velocity=95 time=0
EXTRACT: note_on channel=8 note=30 velocity=95 time=0
EXTRACT: note_off channel=5 note=28 velocity=95 time=0
EXTRACT: note_on channel=5 note=30 velocity=95 time=0
EXTRACT: note_off channel=7 note=47 velocity=95 time=0
EXTRACT: note_off channel=7 note=40 velocity=95 time=0
EXTRACT: note_on channel=7 note=47 velocity=95 time=0
EXTRACT: note_on channel=7 note=40 velocity=95 time=0
EXTRACT: note_off channel=13 note=40 velocity=95 time=0
EXTRACT: note_on channel=13 note=42 velocity=95 time=0
EXTRACT: note_off channel=9 note=42 velocity=95 time=0
EXTRACT: note_off channel=9 note=36 velocity=95 time=0
EXTRACT: note_on channel=9 note=53 velocity=95 time=0
EXTRACT: note_off channel=0 note=59 velocity=95 time=0.2608695
EXTRACT: note_on channel=0 note=71 velocity=47 time=0
EXTRACT: note_on channel=0 note=64 velocity=63 time=0
EXTRACT: note_off channel=8 note=30 velocity=95 time=0
EXTRACT: note_on channel=8 note=32 velocity=95 time=0
EXTRACT: note_off channel=5 note=30 velocity=95 time=0
EXTRACT: note_on channel=5 note=32 velocity=95 time=0
EXTRACT: note_off channel=7 note=47 velocity=95 time=0
EXTRACT: note_off channel=7 note=40 velocity=95 time=0
EXTRACT: note_on channel=7 note=47 velocity=95 time=0
EXTRACT: note_on channel=7 note=40 velocity=95 time=0
EXTRACT: note_off channel=13 note=42 velocity=95 time=0
EXTRACT: note_on channel=13 note=44 velocity=95 time=0
EXTRACT: note_off channel=9 note=53 velocity=95 time=0
EXTRACT: note_on channel=9 note=42 velocity=95 time=0
EXTRACT: note_on channel=9 note=43 velocity=95 time=0
EXTRACT: note_off channel=0 note=71 velocity=47 time=0.2608695
EXTRACT: note_off channel=0 note=64 velocity=63 time=0
EXTRACT: note_on channel=0 note=59 velocity=95 time=0
EXTRACT: note_off channel=8 note=32 velocity=95 time=0
EXTRACT: note_on channel=8 note=47 velocity=95 time=0
EXTRACT: note_on channel=8 note=35 velocity=95 time=0
EXTRACT: note_off channel=5 note=32 velocity=95 time=0
EXTRACT: note_on channel=5 note=35 velocity=95 time=0
EXTRACT: note_off channel=7 note=47 velocity=95 time=0
EXTRACT: note_off channel=7 note=40 velocity=95 time=0
EXTRACT: note_on channel=7 note=54 velocity=95 time=0
EXTRACT: note_on channel=7 note=47 velocity=95 time=0
EXTRACT: note_off channel=13 note=44 velocity=95 time=0
EXTRACT: note_on channel=14 note=47 velocity=95 time=0
EXTRACT: pitchwheel channel=14 pitch=0 time=0.08695649999999999
EXTRACT: pitchwheel channel=14 pitch=128 time=0.08695649999999999
EXTRACT: note_off channel=0 note=59 velocity=95 time=0.08695649999999999
EXTRACT: note_on channel=0 note=71 velocity=47 time=0
EXTRACT: note_on channel=0 note=66 velocity=47 time=0
EXTRACT: note_off channel=7 note=54 velocity=95 time=0
EXTRACT: note_off channel=7 note=47 velocity=95 time=0
EXTRACT: note_on channel=7 note=54 velocity=95 time=0
EXTRACT: note_on channel=7 note=47 velocity=95 time=0
EXTRACT: pitchwheel channel=14 pitch=0 time=0
EXTRACT: note_off channel=9 note=42 velocity=95 time=0
EXTRACT: note_off channel=9 note=43 velocity=95 time=0
EXTRACT: note_on channel=9 note=42 velocity=95 time=0
EXTRACT: note_on channel=9 note=36 velocity=95 time=0
EXTRACT: pitchwheel channel=14 pitch=128 time=0.08695649999999999
EXTRACT: pitchwheel channel=14 pitch=0 time=0.08695649999999999
EXTRACT: note_off channel=0 note=71 velocity=47 time=0.08695649999999999
EXTRACT: note_off channel=0 note=66 velocity=47 time=0
EXTRACT: note_on channel=0 note=59 velocity=95 time=0
EXTRACT: note_off channel=7 note=54 velocity=95 time=0
EXTRACT: note_off channel=7 note=47 velocity=95 time=0
EXTRACT: note_on channel=7 note=54 velocity=95 time=0
EXTRACT: note_on channel=7 note=47 velocity=95 time=0
EXTRACT: pitchwheel channel=14 pitch=128 time=0
EXTRACT: pitchwheel channel=14 pitch=0 time=0.08695649999999999
EXTRACT: pitchwheel channel=14 pitch=128 time=0.08695649999999999
EXTRACT: note_off channel=0 note=59 velocity=95 time=0.08695649999999999
EXTRACT: note_on channel=0 note=71 velocity=47 time=0
EXTRACT: note_on channel=0 note=66 velocity=47 time=0
EXTRACT: note_off channel=7 note=54 velocity=95 time=0
EXTRACT: note_off channel=7 note=47 velocity=95 time=0
EXTRACT: note_on channel=7 note=56 velocity=95 time=0
EXTRACT: note_on channel=7 note=47 velocity=95 time=0
EXTRACT: pitchwheel channel=14 pitch=0 time=0
EXTRACT: note_off channel=9 note=42 velocity=95 time=0
EXTRACT: note_off channel=9 note=36 velocity=95 time=0
EXTRACT: note_on channel=9 note=42 velocity=63 time=0
EXTRACT: note_on channel=9 note=40 velocity=95 time=0
EXTRACT: pitchwheel channel=14 pitch=128 time=0.08695649999999999
EXTRACT: pitchwheel channel=14 pitch=0 time=0.08695649999999999
EXTRACT: note_off channel=0 note=71 velocity=47 time=0.08695649999999999
EXTRACT: note_off channel=0 note=66 velocity=47 time=0
EXTRACT: note_on channel=0 note=59 velocity=95 time=0
EXTRACT: note_off channel=7 note=56 velocity=95 time=0
EXTRACT: note_off channel=7 note=47 velocity=95 time=0
EXTRACT: note_on channel=7 note=54 velocity=95 time=0
EXTRACT: note_on channel=7 note=47 velocity=95 time=0
EXTRACT: pitchwheel channel=14 pitch=128 time=0
EXTRACT: pitchwheel channel=14 pitch=0 time=0.08695649999999999
EXTRACT: pitchwheel channel=14 pitch=128 time=0.08695649999999999
EXTRACT: note_off channel=0 note=59 velocity=95 time=0.08695649999999999
EXTRACT: note_on channel=0 note=71 velocity=63 time=0
EXTRACT: note_on channel=0 note=66 velocity=47 time=0
EXTRACT: note_off channel=7 note=54 velocity=95 time=0
EXTRACT: note_off channel=7 note=47 velocity=95 time=0
EXTRACT: note_on channel=7 note=54 velocity=95 time=0
EXTRACT: note_on channel=7 note=47 velocity=95 time=0
EXTRACT: pitchwheel channel=14 pitch=0 time=0
EXTRACT: pitchwheel channel=14 pitch=128 time=0
EXTRACT: pitchwheel channel=14 pitch=0 time=0
EXTRACT: note_off channel=14 note=47 velocity=95 time=0
EXTRACT: note_on channel=13 note=47 velocity=95 time=0
EXTRACT: note_off channel=9 note=42 velocity=63 time=0
EXTRACT: note_off channel=9 note=40 velocity=95 time=0
EXTRACT: note_on channel=9 note=42 velocity=95 time=0
EXTRACT: note_on channel=9 note=36 velocity=95 time=0
EXTRACT: note_off channel=0 note=71 velocity=63 time=0.2608695
EXTRACT: note_off channel=0 note=66 velocity=47 time=0
EXTRACT: note_on channel=0 note=59 velocity=95 time=0
EXTRACT: note_off channel=8 note=47 velocity=95 time=0
EXTRACT: note_off channel=8 note=35 velocity=95 time=0
EXTRACT: note_on channel=8 note=37 velocity=95 time=0
EXTRACT: note_off channel=5 note=35 velocity=95 time=0
EXTRACT: note_on channel=5 note=37 velocity=95 time=0
EXTRACT: note_off channel=7 note=54 velocity=95 time=0
EXTRACT: note_off channel=7 note=47 velocity=95 time=0
EXTRACT: note_on channel=7 note=54 velocity=95 time=0
EXTRACT: note_on channel=7 note=47 velocity=95 time=0
EXTRACT: note_off channel=13 note=47 velocity=95 time=0
EXTRACT: note_on channel=13 note=49 velocity=95 time=0
EXTRACT: note_off channel=9 note=42 velocity=95 time=0
EXTRACT: note_off channel=9 note=36 velocity=95 time=0
EXTRACT: note_on channel=9 note=53 velocity=95 time=0
EXTRACT: note_on channel=9 note=45 velocity=95 time=0
EXTRACT: note_off channel=0 note=59 velocity=95 time=0.2608695
EXTRACT: note_on channel=0 note=71 velocity=47 time=0
EXTRACT: note_on channel=0 note=66 velocity=47 time=0
EXTRACT: note_off channel=8 note=37 velocity=95 time=0
EXTRACT: note_on channel=8 note=39 velocity=95 time=0
EXTRACT: note_off channel=5 note=37 velocity=95 time=0
EXTRACT: note_on channel=5 note=39 velocity=95 time=0
EXTRACT: note_off channel=7 note=54 velocity=95 time=0
EXTRACT: note_off channel=7 note=47 velocity=95 time=0
EXTRACT: note_on channel=7 note=54 velocity=95 time=0
EXTRACT: note_on channel=7 note=47 velocity=95 time=0
EXTRACT: note_off channel=13 note=49 velocity=95 time=0
EXTRACT: note_on channel=13 note=51 velocity=95 time=0
EXTRACT: note_off channel=9 note=53 velocity=95 time=0
EXTRACT: note_off channel=9 note=45 velocity=95 time=0
EXTRACT: note_on channel=9 note=42 velocity=95 time=0
EXTRACT: note_on channel=9 note=36 velocity=95 time=0
EXTRACT: note_off channel=0 note=71 velocity=47 time=0.2608695
EXTRACT: note_off channel=0 note=66 velocity=47 time=0
EXTRACT: note_on channel=0 note=59 velocity=95 time=0
EXTRACT: note_off channel=8 note=39 velocity=95 time=0
EXTRACT: note_on channel=8 note=37 velocity=95 time=0
EXTRACT: note_off channel=5 note=39 velocity=95 time=0
EXTRACT: note_on channel=5 note=37 velocity=95 time=0
EXTRACT: note_off channel=7 note=54 velocity=95 time=0
EXTRACT: note_off channel=7 note=47 velocity=95 time=0
EXTRACT: note_on channel=7 note=61 velocity=95 time=0
EXTRACT: note_on channel=7 note=56 velocity=95 time=0
EXTRACT: note_on channel=7 note=49 velocity=95 time=0
EXTRACT: note_off channel=13 note=51 velocity=95 time=0
EXTRACT: note_on channel=14 note=49 velocity=95 time=0
EXTRACT: note_off channel=9 note=42 velocity=95 time=0
EXTRACT: note_off channel=9 note=36 velocity=95 time=0
EXTRACT: note_on channel=9 note=43 velocity=95 time=0
EXTRACT: pitchwheel channel=14 pitch=0 time=0.08695649999999999
EXTRACT: pitchwheel channel=14 pitch=128 time=0.08695649999999999
EXTRACT: note_off channel=0 note=59 velocity=95 time=0.08695649999999999
EXTRACT: note_on channel=0 note=71 velocity=63 time=0
EXTRACT: note_on channel=0 note=64 velocity=47 time=0
EXTRACT: note_off channel=7 note=61 velocity=95 time=0
EXTRACT: note_off channel=7 note=56 velocity=95 time=0
EXTRACT: note_off channel=7 note=49 velocity=95 time=0
EXTRACT: note_on channel=7 note=56 velocity=95 time=0
EXTRACT: note_on channel=7 note=49 velocity=95 time=0
EXTRACT: pitchwheel channel=14 pitch=0 time=0
EXTRACT: note_off channel=9 note=43 velocity=95 time=0
EXTRACT: note_on channel=9 note=49 velocity=95 time=0
EXTRACT: note_on channel=9 note=57 velocity=95 time=0
EXTRACT: note_on channel=9 note=36 velocity=95 time=0
EXTRACT: pitchwheel channel=14 pitch=128 time=0.08695649999999999
EXTRACT: pitchwheel channel=14 pitch=0 time=0.08695649999999999
EXTRACT: note_off channel=0 note=71 velocity=63 time=0.08695649999999999
EXTRACT: note_off channel=0 note=64 velocity=47 time=0
EXTRACT: note_on channel=0 note=59 velocity=47 time=0
EXTRACT: note_off channel=7 note=56 velocity=95 time=0
EXTRACT: note_off channel=7 note=49 velocity=95 time=0
EXTRACT: note_on channel=7 note=56 velocity=95 time=0
EXTRACT: note_on channel=7 note=49 velocity=95 time=0
EXTRACT: pitchwheel channel=14 pitch=128 time=0
EXTRACT: pitchwheel channel=14 pitch=0 time=0.08695649999999999
EXTRACT: pitchwheel channel=14 pitch=128 time=0.08695649999999999
EXTRACT: note_off channel=0 note=59 velocity=47 time=0.08695649999999999
EXTRACT: note_on channel=0 note=71 velocity=63 time=0
EXTRACT: note_on channel=0 note=64 velocity=63 time=0
EXTRACT: note_off channel=7 note=56 velocity=95 time=0
EXTRACT: note_off channel=7 note=49 velocity=95 time=0
EXTRACT: note_on channel=7 note=56 velocity=95 time=0
EXTRACT: note_on channel=7 note=49 velocity=95 time=0
EXTRACT: pitchwheel channel=14 pitch=0 time=0
EXTRACT: note_off channel=9 note=49 velocity=95 time=0
EXTRACT: note_off channel=9 note=57 velocity=95 time=0
EXTRACT: note_off channel=9 note=36 velocity=95 time=0
EXTRACT: note_on channel=9 note=46 velocity=63 time=0
EXTRACT: note_on channel=9 note=40 velocity=95 time=0
EXTRACT: pitchwheel channel=14 pitch=128 time=0.08695649999999999
EXTRACT: pitchwheel channel=14 pitch=0 time=0.08695649999999999
EXTRACT: note_off channel=0 note=71 velocity=63 time=0.08695649999999999
EXTRACT: note_off channel=0 note=64 velocity=63 time=0
EXTRACT: note_on channel=0 note=59 velocity=47 time=0
EXTRACT: note_off channel=7 note=56 velocity=95 time=0
EXTRACT: note_off channel=7 note=49 velocity=95 time=0
EXTRACT: note_on channel=7 note=56 velocity=95 time=0
EXTRACT: note_on channel=7 note=49 velocity=95 time=0
EXTRACT: pitchwheel channel=14 pitch=128 time=0
EXTRACT: pitchwheel channel=14 pitch=0 time=0.08695649999999999
EXTRACT: pitchwheel channel=14 pitch=128 time=0.08695649999999999
EXTRACT: note_off channel=0 note=59 velocity=47 time=0.08695649999999999
EXTRACT: note_on channel=0 note=71 velocity=63 time=0
EXTRACT: note_on channel=0 note=64 velocity=63 time=0
EXTRACT: note_off channel=7 note=56 velocity=95 time=0
EXTRACT: note_off channel=7 note=49 velocity=95 time=0
EXTRACT: note_on channel=7 note=56 velocity=95 time=0
EXTRACT: note_on channel=7 note=49 velocity=95 time=0
EXTRACT: pitchwheel channel=14 pitch=0 time=0
EXTRACT: note_off channel=9 note=46 velocity=63 time=0
EXTRACT: note_off channel=9 note=40 velocity=95 time=0
EXTRACT: note_on channel=9 note=42 velocity=95 time=0
EXTRACT: note_on channel=9 note=36 velocity=95 time=0
EXTRACT: pitchwheel channel=14 pitch=128 time=0.08695649999999999
EXTRACT: pitchwheel channel=14 pitch=0 time=0.08695649999999999
EXTRACT: note_off channel=0 note=71 velocity=63 time=0.08695649999999999
EXTRACT: note_off channel=0 note=64 velocity=63 time=0
EXTRACT: note_on channel=0 note=59 velocity=47 time=0
EXTRACT: note_off channel=8 note=37 velocity=95 time=0
EXTRACT: note_on channel=8 note=39 velocity=95 time=0
EXTRACT: note_off channel=5 note=37 velocity=95 time=0
EXTRACT: note_on channel=5 note=39 velocity=95 time=0
EXTRACT: note_off channel=7 note=56 velocity=95 time=0
EXTRACT: note_off channel=7 note=49 velocity=95 time=0
EXTRACT: note_on channel=7 note=56 velocity=95 time=0
EXTRACT: note_on channel=7 note=49 velocity=95 time=0
EXTRACT: pitchwheel channel=14 pitch=128 time=0
EXTRACT: pitchwheel channel=14 pitch=0 time=0
EXTRACT: note_off channel=14 note=49 velocity=95 time=0
EXTRACT: note_on channel=13 note=51 velocity=95 time=0
EXTRACT: note_off channel=9 note=42 velocity=95 time=0
EXTRACT: note_off channel=9 note=36 velocity=95 time=0
EXTRACT: note_on channel=9 note=53 velocity=95 time=0
EXTRACT: note_off channel=0 note=59 velocity=47 time=0.2608695
EXTRACT: note_on channel=0 note=71 velocity=63 time=0
EXTRACT: note_on channel=0 note=64 velocity=47 time=0
EXTRACT: note_off channel=8 note=39 velocity=95 time=0
EXTRACT: note_on channel=8 note=40 velocity=95 time=0
EXTRACT: note_off channel=5 note=39 velocity=95 time=0
EXTRACT: note_on channel=5 note=40 velocity=95 time=0
EXTRACT: note_off channel=7 note=56 velocity=95 time=0
EXTRACT: note_off channel=7 note=49 velocity=95 time=0
EXTRACT: note_on channel=7 note=56 velocity=95 time=0
EXTRACT: note_on channel=7 note=49 velocity=95 time=0
EXTRACT: note_off channel=13 note=51 velocity=95 time=0
EXTRACT: note_on channel=13 note=52 velocity=95 time=0
EXTRACT: note_off channel=9 note=53 velocity=95 time=0
EXTRACT: note_on channel=9 note=42 velocity=95 time=0
EXTRACT: note_on channel=9 note=43 velocity=95 time=0
EXTRACT: note_off channel=0 note=71 velocity=63 time=0.2608695
EXTRACT: note_off channel=0 note=64 velocity=47 time=0
EXTRACT: note_on channel=0 note=59 velocity=47 time=0
EXTRACT: note_off channel=8 note=40 velocity=95 time=0
EXTRACT: note_on channel=8 note=33 velocity=95 time=0
EXTRACT: note_off channel=5 note=40 velocity=95 time=0
EXTRACT: note_on channel=5 note=33 velocity=95 time=0
EXTRACT: note_off channel=7 note=56 velocity=95 time=0
EXTRACT: note_off channel=7 note=49 velocity=95 time=0
EXTRACT: note_on channel=7 note=57 velocity=95 time=0
EXTRACT: note_on channel=7 note=52 velocity=95 time=0
EXTRACT: note_on channel=7 note=45 velocity=95 time=0
EXTRACT: note_off channel=13 note=52 velocity=95 time=0
EXTRACT: note_on channel=14 note=45 velocity=95 time=0
EXTRACT: pitchwheel channel=14 pitch=0 time=0.08695649999999999
EXTRACT: pitchwheel channel=14 pitch=128 time=0.08695649999999999
EXTRACT: note_off channel=0 note=59 velocity=47 time=0.08695649999999999
EXTRACT: note_on channel=0 note=69 velocity=47 time=0
EXTRACT: note_on channel=0 note=61 velocity=47 time=0
EXTRACT: note_off channel=7 note=57 velocity=95 time=0
EXTRACT: note_off channel=7 note=52 velocity=95 time=0
EXTRACT: note_off channel=7 note=45 velocity=95 time=0
EXTRACT: note_on channel=7 note=52 velocity=95 time=0
EXTRACT: note_on channel=7 note=45 velocity=95 time=0
EXTRACT: pitchwheel channel=14 pitch=0 time=0
EXTRACT: note_off channel=9 note=42 velocity=95 time=0
EXTRACT: note_off channel=9 note=43 velocity=95 time=0
EXTRACT: note_on channel=9 note=42 velocity=95 time=0
EXTRACT: note_on channel=9 note=36 velocity=95 time=0
EXTRACT: pitchwheel channel=14 pitch=128 time=0.08695649999999999
EXTRACT: pitchwheel channel=14 pitch=0 time=0.08695649999999999
EXTRACT: note_off channel=0 note=69 velocity=47 time=0.08695649999999999
EXTRACT: note_off channel=0 note=61 velocity=47 time=0
EXTRACT: note_on channel=0 note=57 velocity=47 time=0
EXTRACT: note_off channel=7 note=52 velocity=95 time=0
EXTRACT: note_off channel=7 note=45 velocity=95 time=0
EXTRACT: note_on channel=7 note=52 velocity=95 time=0
EXTRACT: note_on channel=7 note=45 velocity=95 time=0
EXTRACT: pitchwheel channel=14 pitch=128 time=0
EXTRACT: pitchwheel channel=14 pitch=0 time=0.08695649999999999
EXTRACT: pitchwheel channel=14 pitch=128 time=0.08695649999999999
EXTRACT: note_off channel=0 note=57 velocity=47 time=0.08695649999999999
EXTRACT: note_on channel=0 note=69 velocity=63 time=0
EXTRACT: note_on channel=0 note=61 velocity=63 time=0
EXTRACT: note_off channel=7 note=52 velocity=95 time=0
EXTRACT: note_off channel=7 note=45 velocity=95 time=0
EXTRACT: note_on channel=7 note=54 velocity=95 time=0
EXTRACT: note_on channel=7 note=45 velocity=95 time=0
EXTRACT: pitchwheel channel=14 pitch=0 time=0
EXTRACT: note_off channel=9 note=42 velocity=95 time=0
EXTRACT: note_off channel=9 note=36 velocity=95 time=0
EXTRACT: note_on channel=9 note=46 velocity=63 time=0
EXTRACT: note_on channel=9 note=40 velocity=95 time=0
EXTRACT: pitchwheel channel=14 pitch=128 time=0.08695649999999999
EXTRACT: pitchwheel channel=14 pitch=0 time=0.08695649999999999
EXTRACT: note_off channel=0 note=69 velocity=63 time=0.08695649999999999
EXTRACT: note_off channel=0 note=61 velocity=63 time=0
EXTRACT: note_on channel=0 note=57 velocity=47 time=0
EXTRACT: note_off channel=7 note=54 velocity=95 time=0
EXTRACT: note_off channel=7 note=45 velocity=95 time=0
EXTRACT: note_on channel=7 note=52 velocity=95 time=0
EXTRACT: note_on channel=7 note=45 velocity=95 time=0
EXTRACT: pitchwheel channel=14 pitch=128 time=0
EXTRACT: pitchwheel channel=14 pitch=0 time=0.08695649999999999
EXTRACT: pitchwheel channel=14 pitch=128 time=0.08695649999999999
EXTRACT: note_off channel=0 note=57 velocity=47 time=0.08695649999999999
EXTRACT: note_on channel=0 note=69 velocity=63 time=0
EXTRACT: note_on channel=0 note=61 velocity=47 time=0
EXTRACT: note_off channel=7 note=52 velocity=95 time=0
EXTRACT: note_off channel=7 note=45 velocity=95 time=0
EXTRACT: note_on channel=7 note=52 velocity=95 time=0
EXTRACT: note_on channel=7 note=45 velocity=95 time=0
EXTRACT: pitchwheel channel=14 pitch=0 time=0
EXTRACT: note_off channel=9 note=46 velocity=63 time=0
EXTRACT: note_off channel=9 note=40 velocity=95 time=0
EXTRACT: note_on channel=9 note=42 velocity=95 time=0
EXTRACT: note_on channel=9 note=36 velocity=95 time=0
EXTRACT: pitchwheel channel=14 pitch=128 time=0.08695649999999999
EXTRACT: pitchwheel channel=14 pitch=0 time=0.08695649999999999
EXTRACT: note_off channel=0 note=69 velocity=63 time=0.08695649999999999
EXTRACT: note_off channel=0 note=61 velocity=47 time=0
EXTRACT: note_on channel=0 note=57 velocity=63 time=0
EXTRACT: note_off channel=8 note=33 velocity=95 time=0
EXTRACT: note_on channel=8 note=39 velocity=95 time=0
EXTRACT: note_off channel=5 note=33 velocity=95 time=0
EXTRACT: note_on channel=5 note=39 velocity=95 time=0
EXTRACT: note_off channel=7 note=52 velocity=95 time=0
EXTRACT: note_off channel=7 note=45 velocity=95 time=0
EXTRACT: note_on channel=7 note=52 velocity=95 time=0
EXTRACT: note_on channel=7 note=45 velocity=95 time=0
EXTRACT: pitchwheel channel=14 pitch=128 time=0
EXTRACT: pitchwheel channel=14 pitch=0 time=0
EXTRACT: note_off channel=14 note=45 velocity=95 time=0
EXTRACT: note_on channel=13 note=51 velocity=95 time=0
EXTRACT: note_off channel=9 note=42 velocity=95 time=0
EXTRACT: note_off channel=9 note=36 velocity=95 time=0
EXTRACT: note_on channel=9 note=53 velocity=95 time=0
EXTRACT: note_on channel=9 note=36 velocity=95 time=0
EXTRACT: note_off channel=0 note=57 velocity=63 time=0.2608695
EXTRACT: note_on channel=0 note=69 velocity=63 time=0
EXTRACT: note_on channel=0 note=61 velocity=47 time=0
EXTRACT: note_off channel=8 note=39 velocity=95 time=0
EXTRACT: note_on channel=8 note=40 velocity=95 time=0
EXTRACT: note_off channel=5 note=39 velocity=95 time=0
EXTRACT: note_on channel=5 note=40 velocity=95 time=0
EXTRACT: note_off channel=7 note=52 velocity=95 time=0
EXTRACT: note_off channel=7 note=45 velocity=95 time=0
EXTRACT: note_on channel=7 note=52 velocity=95 time=0
EXTRACT: note_on channel=7 note=45 velocity=95 time=0
EXTRACT: note_off channel=13 note=51 velocity=95 time=0
EXTRACT: note_on channel=13 note=52 velocity=95 time=0
EXTRACT: note_off channel=9 note=53 velocity=95 time=0
EXTRACT: note_off channel=9 note=36 velocity=95 time=0
EXTRACT: note_on channel=9 note=42 velocity=95 time=0
EXTRACT: note_on channel=9 note=45 velocity=95 time=0
EXTRACT: note_off channel=0 note=69 velocity=63 time=0.2608695
EXTRACT: note_off channel=0 note=61 velocity=47 time=0
EXTRACT: note_on channel=0 note=57 velocity=47 time=0
EXTRACT: note_off channel=8 note=40 velocity=95 time=0
EXTRACT: note_on channel=8 note=28 velocity=95 time=0
EXTRACT: note_off channel=5 note=40 velocity=95 time=0
EXTRACT: note_on channel=5 note=28 velocity=95 time=0
EXTRACT: note_off channel=7 note=52 velocity=95 time=0
EXTRACT: note_off channel=7 note=45 velocity=95 time=0
EXTRACT: note_on channel=7 note=64 velocity=95 time=0
EXTRACT: note_on channel=7 note=59 velocity=95 time=0
EXTRACT: note_on channel=7 note=52 velocity=95 time=0
EXTRACT: note_off channel=13 note=52 velocity=95 time=0
EXTRACT: note_on channel=13 note=40 velocity=95 time=0
EXTRACT: note_off channel=9 note=42 velocity=95 time=0
EXTRACT: note_off channel=9 note=45 velocity=95 time=0
EXTRACT: note_on channel=9 note=43 velocity=95 time=0
EXTRACT: note_off channel=0 note=57 velocity=47 time=0.2608695
EXTRACT: note_on channel=0 note=71 velocity=47 time=0
EXTRACT: note_on channel=0 note=64 velocity=47 time=0
EXTRACT: note_off channel=7 note=64 velocity=95 time=0
EXTRACT: note_off channel=7 note=59 velocity=95 time=0
EXTRACT: note_off channel=7 note=52 velocity=95 time=0
EXTRACT: note_on channel=7 note=47 velocity=95 time=0
EXTRACT: note_on channel=7 note=40 velocity=95 time=0
EXTRACT: note_off channel=9 note=43 velocity=95 time=0
EXTRACT: note_on channel=9 note=49 velocity=95 time=0
EXTRACT: note_on channel=9 note=57 velocity=95 time=0
EXTRACT: note_on channel=9 note=36 velocity=95 time=0
EXTRACT: note_off channel=0 note=71 velocity=47 time=0.2608695
EXTRACT: note_off channel=0 note=64 velocity=47 time=0
EXTRACT: note_on channel=0 note=59 velocity=95 time=0
EXTRACT: note_off channel=7 note=47 velocity=95 time=0
EXTRACT: note_off channel=7 note=40 velocity=95 time=0
EXTRACT: note_on channel=7 note=47 velocity=95 time=0
EXTRACT: note_on channel=7 note=40 velocity=95 time=0
EXTRACT: note_off channel=0 note=59 velocity=95 time=0.2608695
EXTRACT: note_on channel=0 note=71 velocity=47 time=0
EXTRACT: note_on channel=0 note=64 velocity=63 time=0
EXTRACT: note_on channel=11 note=80 velocity=95 time=0
EXTRACT: note_off channel=7 note=47 velocity=95 time=0
EXTRACT: note_off channel=7 note=40 velocity=95 time=0
EXTRACT: note_on channel=7 note=49 velocity=95 time=0
EXTRACT: note_on channel=7 note=40 velocity=95 time=0
EXTRACT: note_off channel=13 note=40 velocity=95 time=0
EXTRACT: note_on channel=13 note=64 velocity=95 time=0
EXTRACT: note_on channel=13 note=59 velocity=95 time=0
EXTRACT: note_off channel=9 note=49 velocity=95 time=0
EXTRACT: note_off channel=9 note=57 velocity=95 time=0
EXTRACT: note_off channel=9 note=36 velocity=95 time=0
EXTRACT: note_on channel=9 note=46 velocity=63 time=0
EXTRACT: note_on channel=9 note=40 velocity=95 time=0
EXTRACT: note_off channel=0 note=71 velocity=47 time=0.2608695
EXTRACT: note_off channel=0 note=64 velocity=63 time=0
EXTRACT: note_on channel=0 note=59 velocity=95 time=0
EXTRACT: note_off channel=11 note=80 velocity=95 time=0
EXTRACT: note_on channel=11 note=78 velocity=95 time=0
EXTRACT: note_off channel=7 note=49 velocity=95 time=0
EXTRACT: note_off channel=7 note=40 velocity=95 time=0
EXTRACT: note_on channel=7 note=49 velocity=95 time=0
EXTRACT: note_on channel=7 note=40 velocity=95 time=0
EXTRACT: note_off channel=0 note=59 velocity=95 time=0.2608695
EXTRACT: note_on channel=0 note=71 velocity=47 time=0
EXTRACT: note_on channel=0 note=64 velocity=63 time=0
EXTRACT: note_off channel=11 note=78 velocity=95 time=0
EXTRACT: note_on channel=11 note=80 velocity=95 time=0
EXTRACT: note_off channel=7 note=49 velocity=95 time=0
EXTRACT: note_off channel=7 note=40 velocity=95 time=0
EXTRACT: note_on channel=7 note=47 velocity=95 time=0
EXTRACT: note_on channel=7 note=40 velocity=95 time=0
EXTRACT: note_off channel=13 note=64 velocity=95 time=0
EXTRACT: note_off channel=13 note=59 velocity=95 time=0
EXTRACT: note_on channel=13 note=40 velocity=95 time=0
EXTRACT: note_off channel=9 note=46 velocity=63 time=0
EXTRACT: note_off channel=9 note=40 velocity=95 time=0
EXTRACT: note_on channel=9 note=42 velocity=95 time=0
EXTRACT: note_on channel=9 note=36 velocity=95 time=0
EXTRACT: note_off channel=0 note=71 velocity=47 time=0.2608695
EXTRACT: note_off channel=0 note=64 velocity=63 time=0
EXTRACT: note_on channel=0 note=59 velocity=95 time=0
EXTRACT: note_off channel=8 note=28 velocity=95 time=0
EXTRACT: note_on channel=8 note=30 velocity=95 time=0
EXTRACT: note_off channel=11 note=80 velocity=95 time=0
EXTRACT: note_on channel=11 note=78 velocity=95 time=0
EXTRACT: note_off channel=5 note=28 velocity=95 time=0
EXTRACT: note_on channel=5 note=30 velocity=95 time=0
EXTRACT: note_off channel=7 note=47 velocity=95 time=0
EXTRACT: note_off channel=7 note=40 velocity=95 time=0
EXTRACT: note_on channel=7 note=47 velocity=95 time=0
EXTRACT: note_on channel=7 note=40 velocity=95 time=0
EXTRACT: note_off channel=13 note=40 velocity=95 time=0
EXTRACT: note_on channel=13 note=42 velocity=95 time=0
EXTRACT: note_off channel=9 note=42 velocity=95 time=0
EXTRACT: note_off channel=9 note=36 velocity=95 time=0
EXTRACT: note_on channel=9 note=53 velocity=95 time=0
EXTRACT: note_off channel=0 note=59 velocity=95 time=0.2608695
EXTRACT: note_on channel=0 note=71 velocity=47 time=0
EXTRACT: note_on channel=0 note=64 velocity=63 time=0
EXTRACT: note_off channel=8 note=30 velocity=95 time=0
EXTRACT: note_on channel=8 note=32 velocity=95 time=0
EXTRACT: note_off channel=5 note=30 velocity=95 time=0
EXTRACT: note_on channel=5 note=32 velocity=95 time=0
EXTRACT: note_off channel=7 note=47 velocity=95 time=0
EXTRACT: note_off channel=7 note=40 velocity=95 time=0
EXTRACT: note_on channel=7 note=47 velocity=95 time=0
EXTRACT: note_on channel=7 note=40 velocity=95 time=0
EXTRACT: note_off channel=13 note=42 velocity=95 time=0
EXTRACT: note_on channel=13 note=44 velocity=95 time=0
EXTRACT: note_off channel=9 note=53 velocity=95 time=0
EXTRACT: note_on channel=9 note=42 velocity=95 time=0
EXTRACT: note_on channel=9 note=43 velocity=95 time=0
EXTRACT: note_off channel=0 note=71 velocity=47 time=0.2608695
EXTRACT: note_off channel=0 note=64 velocity=63 time=0
EXTRACT: note_on channel=0 note=59 velocity=95 time=0
EXTRACT: note_off channel=8 note=32 velocity=95 time=0
EXTRACT: note_on channel=8 note=35 velocity=95 time=0
EXTRACT: note_off channel=11 note=78 velocity=95 time=0
EXTRACT: note_on channel=11 note=76 velocity=95 time=0
EXTRACT: note_off channel=5 note=32 velocity=95 time=0
EXTRACT: note_on channel=5 note=35 velocity=95 time=0
EXTRACT: note_off channel=7 note=47 velocity=95 time=0
EXTRACT: note_off channel=7 note=40 velocity=95 time=0
EXTRACT: note_on channel=7 note=54 velocity=95 time=0
EXTRACT: note_on channel=7 note=47 velocity=95 time=0
EXTRACT: note_off channel=13 note=44 velocity=95 time=0
EXTRACT: note_on channel=14 note=47 velocity=95 time=0
EXTRACT: pitchwheel channel=14 pitch=0 time=0.08695649999999999
EXTRACT: pitchwheel channel=14 pitch=128 time=0.08695649999999999
EXTRACT: note_off channel=0 note=59 velocity=95 time=0.08695649999999999
EXTRACT: note_on channel=0 note=71 velocity=47 time=0
EXTRACT: note_on channel=0 note=66 velocity=47 time=0
EXTRACT: note_off channel=11 note=76 velocity=95 time=0
EXTRACT: note_on channel=11 note=78 velocity=95 time=0
EXTRACT: note_off channel=7 note=54 velocity=95 time=0
EXTRACT: note_off channel=7 note=47 velocity=95 time=0
EXTRACT: note_on channel=7 note=54 velocity=95 time=0
EXTRACT: note_on channel=7 note=47 velocity=95 time=0
EXTRACT: pitchwheel channel=14 pitch=0 time=0
EXTRACT: note_off channel=9 note=42 velocity=95 time=0
EXTRACT: note_off channel=9 note=43 velocity=95 time=0
EXTRACT: note_on channel=9 note=42 velocity=95 time=0
EXTRACT: note_on channel=9 note=36 velocity=95 time=0
EXTRACT: pitchwheel channel=14 pitch=128 time=0.08695649999999999
EXTRACT: pitchwheel channel=14 pitch=0 time=0.08695649999999999
EXTRACT: note_off channel=0 note=71 velocity=47 time=0.08695649999999999
EXTRACT: note_off channel=0 note=66 velocity=47 time=0
EXTRACT: note_on channel=0 note=59 velocity=95 time=0
EXTRACT: note_off channel=11 note=78 velocity=95 time=0
EXTRACT: note_on channel=11 note=78 velocity=95 time=0
EXTRACT: note_off channel=7 note=54 velocity=95 time=0
EXTRACT: note_off channel=7 note=47 velocity=95 time=0
EXTRACT: note_on channel=7 note=54 velocity=95 time=0
EXTRACT: note_on channel=7 note=47 velocity=95 time=0
EXTRACT: pitchwheel channel=14 pitch=128 time=0
EXTRACT: pitchwheel channel=14 pitch=0 time=0.08695649999999999
EXTRACT: pitchwheel channel=14 pitch=128 time=0.08695649999999999
EXTRACT: note_off channel=0 note=59 velocity=95 time=0.08695649999999999
EXTRACT: note_on channel=0 note=71 velocity=47 time=0
EXTRACT: note_on channel=0 note=66 velocity=47 time=0
EXTRACT: note_off channel=7 note=54 velocity=95 time=0
EXTRACT: note_off channel=7 note=47 velocity=95 time=0
EXTRACT: note_on channel=7 note=56 velocity=95 time=0
EXTRACT: note_on channel=7 note=47 velocity=95 time=0
EXTRACT: pitchwheel channel=14 pitch=0 time=0
EXTRACT: note_off channel=9 note=42 velocity=95 time=0
EXTRACT: note_off channel=9 note=36 velocity=95 time=0
EXTRACT: note_on channel=9 note=46 velocity=63 time=0
EXTRACT: note_on channel=9 note=40 velocity=95 time=0
EXTRACT: pitchwheel channel=14 pitch=128 time=0.08695649999999999
EXTRACT: pitchwheel channel=14 pitch=0 time=0.08695649999999999
EXTRACT: note_off channel=0 note=71 velocity=47 time=0.08695649999999999
EXTRACT: note_off channel=0 note=66 velocity=47 time=0
EXTRACT: note_on channel=0 note=59 velocity=95 time=0
EXTRACT: note_off channel=11 note=78 velocity=95 time=0
EXTRACT: note_on channel=11 note=78 velocity=95 time=0
EXTRACT: note_off channel=7 note=56 velocity=95 time=0
EXTRACT: note_off channel=7 note=47 velocity=95 time=0
EXTRACT: note_on channel=7 note=54 velocity=95 time=0
EXTRACT: note_on channel=7 note=47 velocity=95 time=0
EXTRACT: pitchwheel channel=14 pitch=128 time=0
EXTRACT: pitchwheel channel=14 pitch=0 time=0.08695649999999999
EXTRACT: pitchwheel channel=14 pitch=128 time=0.08695649999999999
EXTRACT: note_off channel=0 note=59 velocity=95 time=0.08695649999999999
EXTRACT: note_on channel=0 note=71 velocity=63 time=0
EXTRACT: note_on channel=0 note=66 velocity=47 time=0
EXTRACT: note_off channel=11 note=78 velocity=95 time=0
EXTRACT: note_on channel=11 note=80 velocity=95 time=0
EXTRACT: note_off channel=7 note=54 velocity=95 time=0
EXTRACT: note_off channel=7 note=47 velocity=95 time=0
EXTRACT: note_on channel=7 note=54 velocity=95 time=0
EXTRACT: note_on channel=7 note=47 velocity=95 time=0
EXTRACT: pitchwheel channel=14 pitch=0 time=0
EXTRACT: pitchwheel channel=14 pitch=128 time=0
EXTRACT: pitchwheel channel=14 pitch=0 time=0
EXTRACT: note_off channel=14 note=47 velocity=95 time=0
EXTRACT: note_on channel=13 note=47 velocity=95 time=0
EXTRACT: note_off channel=9 note=46 velocity=63 time=0
EXTRACT: note_off channel=9 note=40 velocity=95 time=0
EXTRACT: note_on channel=9 note=42 velocity=95 time=0
EXTRACT: note_on channel=9 note=36 velocity=95 time=0
EXTRACT: note_off channel=0 note=71 velocity=63 time=0.2608695
EXTRACT: note_off channel=0 note=66 velocity=47 time=0
EXTRACT: note_on channel=0 note=59 velocity=95 time=0
EXTRACT: note_off channel=8 note=35 velocity=95 time=0
EXTRACT: note_on channel=8 note=37 velocity=95 time=0
EXTRACT: note_off channel=5 note=35 velocity=95 time=0
EXTRACT: note_on channel=5 note=37 velocity=95 time=0
EXTRACT: note_off channel=7 note=54 velocity=95 time=0
EXTRACT: note_off channel=7 note=47 velocity=95 time=0
EXTRACT: note_on channel=7 note=54 velocity=95 time=0
EXTRACT: note_on channel=7 note=47 velocity=95 time=0
EXTRACT: note_off channel=13 note=47 velocity=95 time=0
EXTRACT: note_on channel=13 note=49 velocity=95 time=0
EXTRACT: note_off channel=9 note=42 velocity=95 time=0
EXTRACT: note_off channel=9 note=36 velocity=95 time=0
EXTRACT: note_on channel=9 note=53 velocity=95 time=0
EXTRACT: note_on channel=9 note=45 velocity=95 time=0
EXTRACT: note_off channel=0 note=59 velocity=95 time=0.2608695
EXTRACT: note_on channel=0 note=71 velocity=47 time=0
EXTRACT: note_on channel=0 note=66 velocity=47 time=0
EXTRACT: note_off channel=8 note=37 velocity=95 time=0
EXTRACT: note_on channel=8 note=39 velocity=95 time=0
EXTRACT: note_off channel=11 note=80 velocity=95 time=0
EXTRACT: note_off channel=5 note=37 velocity=95 time=0
EXTRACT: note_on channel=5 note=39 velocity=95 time=0
EXTRACT: note_off channel=7 note=54 velocity=95 time=0
EXTRACT: note_off channel=7 note=47 velocity=95 time=0
EXTRACT: note_on channel=7 note=54 velocity=95 time=0
EXTRACT: note_on channel=7 note=47 velocity=95 time=0
EXTRACT: note_off channel=13 note=49 velocity=95 time=0
EXTRACT: note_on channel=13 note=51 velocity=95 time=0
EXTRACT: note_off channel=9 note=53 velocity=95 time=0
EXTRACT: note_off channel=9 note=45 velocity=95 time=0
EXTRACT: note_on channel=9 note=42 velocity=95 time=0
EXTRACT: note_on channel=9 note=36 velocity=95 time=0
EXTRACT: note_off channel=0 note=71 velocity=47 time=0.2608695
EXTRACT: note_off channel=0 note=66 velocity=47 time=0
EXTRACT: note_on channel=0 note=59 velocity=95 time=0
EXTRACT: note_off channel=8 note=39 velocity=95 time=0
EXTRACT: note_on channel=8 note=32 velocity=95 time=0
EXTRACT: note_off channel=5 note=39 velocity=95 time=0
EXTRACT: note_on channel=5 note=32 velocity=95 time=0
EXTRACT: note_off channel=7 note=54 velocity=95 time=0
EXTRACT: note_off channel=7 note=47 velocity=95 time=0
EXTRACT: note_on channel=7 note=61 velocity=95 time=0
EXTRACT: note_on channel=7 note=56 velocity=95 time=0
EXTRACT: note_on channel=7 note=49 velocity=95 time=0
EXTRACT: note_off channel=13 note=51 velocity=95 time=0
EXTRACT: note_on channel=14 note=49 velocity=95 time=0
EXTRACT: note_off channel=9 note=42 velocity=95 time=0
EXTRACT: note_off channel=9 note=36 velocity=95 time=0
EXTRACT: note_on channel=9 note=43 velocity=95 time=0
EXTRACT: pitchwheel channel=14 pitch=0 time=0.08695649999999999
EXTRACT: pitchwheel channel=14 pitch=128 time=0.08695649999999999
EXTRACT: note_off channel=0 note=59 velocity=95 time=0.08695649999999999
EXTRACT: note_on channel=0 note=71 velocity=63 time=0
EXTRACT: note_on channel=0 note=63 velocity=47 time=0
EXTRACT: note_off channel=7 note=61 velocity=95 time=0
EXTRACT: note_off channel=7 note=56 velocity=95 time=0
EXTRACT: note_off channel=7 note=49 velocity=95 time=0
EXTRACT: note_on channel=7 note=56 velocity=95 time=0
EXTRACT: note_on channel=7 note=49 velocity=95 time=0
EXTRACT: pitchwheel channel=14 pitch=0 time=0
EXTRACT: note_off channel=9 note=43 velocity=95 time=0
EXTRACT: note_on channel=9 note=49 velocity=95 time=0
EXTRACT: note_on channel=9 note=57 velocity=95 time=0
EXTRACT: note_on channel=9 note=36 velocity=95 time=0
EXTRACT: pitchwheel channel=14 pitch=128 time=0.08695649999999999
EXTRACT: pitchwheel channel=14 pitch=0 time=0.08695649999999999
EXTRACT: note_off channel=0 note=71 velocity=63 time=0.08695649999999999
EXTRACT: note_off channel=0 note=63 velocity=47 time=0
EXTRACT: note_on channel=0 note=59 velocity=47 time=0
EXTRACT: note_off channel=7 note=56 velocity=95 time=0
EXTRACT: note_off channel=7 note=49 velocity=95 time=0
EXTRACT: note_on channel=7 note=56 velocity=95 time=0
EXTRACT: note_on channel=7 note=49 velocity=95 time=0
EXTRACT: pitchwheel channel=14 pitch=128 time=0
EXTRACT: pitchwheel channel=14 pitch=0 time=0.08695649999999999
EXTRACT: pitchwheel channel=14 pitch=128 time=0.08695649999999999
EXTRACT: note_off channel=0 note=59 velocity=47 time=0.08695649999999999
EXTRACT: note_on channel=0 note=71 velocity=63 time=0
EXTRACT: note_on channel=0 note=63 velocity=63 time=0
EXTRACT: note_off channel=7 note=56 velocity=95 time=0
EXTRACT: note_off channel=7 note=49 velocity=95 time=0
EXTRACT: note_on channel=7 note=56 velocity=95 time=0
EXTRACT: note_on channel=7 note=49 velocity=95 time=0
EXTRACT: pitchwheel channel=14 pitch=0 time=0
EXTRACT: note_off channel=9 note=49 velocity=95 time=0
EXTRACT: note_off channel=9 note=57 velocity=95 time=0
EXTRACT: note_off channel=9 note=36 velocity=95 time=0
EXTRACT: note_on channel=9 note=46 velocity=63 time=0
EXTRACT: note_on channel=9 note=40 velocity=95 time=0
EXTRACT: pitchwheel channel=14 pitch=128 time=0.08695649999999999
EXTRACT: pitchwheel channel=14 pitch=0 time=0.08695649999999999
EXTRACT: note_off channel=0 note=71 velocity=63 time=0.08695649999999999
EXTRACT: note_off channel=0 note=63 velocity=63 time=0
EXTRACT: note_on channel=0 note=59 velocity=47 time=0
EXTRACT: note_off channel=7 note=56 velocity=95 time=0
EXTRACT: note_off channel=7 note=49 velocity=95 time=0
EXTRACT: note_on channel=7 note=56 velocity=95 time=0
EXTRACT: note_on channel=7 note=49 velocity=95 time=0
EXTRACT: pitchwheel channel=14 pitch=128 time=0
EXTRACT: pitchwheel channel=14 pitch=0 time=0.08695649999999999
EXTRACT: pitchwheel channel=14 pitch=128 time=0.08695649999999999
EXTRACT: note_off channel=0 note=59 velocity=47 time=0.08695649999999999
EXTRACT: note_on channel=0 note=71 velocity=63 time=0
EXTRACT: note_on channel=0 note=63 velocity=63 time=0
EXTRACT: note_on channel=11 note=76 velocity=95 time=0
EXTRACT: note_off channel=7 note=56 velocity=95 time=0
EXTRACT: note_off channel=7 note=49 velocity=95 time=0
EXTRACT: note_on channel=7 note=56 velocity=95 time=0
EXTRACT: note_on channel=7 note=49 velocity=95 time=0
EXTRACT: pitchwheel channel=14 pitch=0 time=0
EXTRACT: note_off channel=9 note=46 velocity=63 time=0
EXTRACT: note_off channel=9 note=40 velocity=95 time=0
EXTRACT: note_on channel=9 note=42 velocity=95 time=0
EXTRACT: note_on channel=9 note=36 velocity=95 time=0
EXTRACT: pitchwheel channel=14 pitch=128 time=0.08695649999999999
EXTRACT: note_off channel=11 note=76 velocity=95 time=0.043478249999999996
EXTRACT: note_on channel=11 note=76 velocity=95 time=0
EXTRACT: pitchwheel channel=14 pitch=0 time=0.043478249999999996
EXTRACT: note_off channel=0 note=71 velocity=63 time=0.08695649999999999
EXTRACT: note_off channel=0 note=63 velocity=63 time=0
EXTRACT: note_on channel=0 note=59 velocity=47 time=0
EXTRACT: note_off channel=11 note=76 velocity=95 time=0
EXTRACT: note_on channel=11 note=76 velocity=95 time=0
EXTRACT: note_off channel=7 note=56 velocity=95 time=0
EXTRACT: note_off channel=7 note=49 velocity=95 time=0
EXTRACT: note_on channel=7 note=56 velocity=95 time=0
EXTRACT: note_on channel=7 note=49 velocity=95 time=0
EXTRACT: pitchwheel channel=14 pitch=128 time=0
EXTRACT: pitchwheel channel=14 pitch=0 time=0
EXTRACT: note_off channel=14 note=49 velocity=95 time=0
EXTRACT: note_on channel=13 note=51 velocity=95 time=0
EXTRACT: note_off channel=9 note=42 velocity=95 time=0
EXTRACT: note_off channel=9 note=36 velocity=95 time=0
EXTRACT: note_on channel=9 note=53 velocity=95 time=0
EXTRACT: note_off channel=0 note=59 velocity=47 time=0.2608695
EXTRACT: note_on channel=0 note=71 velocity=63 time=0
EXTRACT: note_on channel=0 note=63 velocity=47 time=0
EXTRACT: note_off channel=8 note=32 velocity=95 time=0
EXTRACT: note_on channel=8 note=32 velocity=95 time=0
EXTRACT: note_off channel=11 note=76 velocity=95 time=0
EXTRACT: note_on channel=11 note=76 velocity=95 time=0
EXTRACT: note_off channel=5 note=32 velocity=95 time=0
EXTRACT: note_on channel=5 note=32 velocity=95 time=0
EXTRACT: note_off channel=7 note=56 velocity=95 time=0
EXTRACT: note_off channel=7 note=49 velocity=95 time=0
EXTRACT: note_on channel=7 note=56 velocity=95 time=0
EXTRACT: note_on channel=7 note=49 velocity=95 time=0
EXTRACT: note_off channel=13 note=51 velocity=95 time=0
EXTRACT: note_on channel=13 note=52 velocity=95 time=0
EXTRACT: note_off channel=9 note=53 velocity=95 time=0
EXTRACT: note_on channel=9 note=42 velocity=95 time=0
EXTRACT: note_on channel=9 note=43 velocity=95 time=0
EXTRACT: note_off channel=0 note=71 velocity=63 time=0.2608695
EXTRACT: note_off channel=0 note=63 velocity=47 time=0
EXTRACT: note_on channel=0 note=59 velocity=47 time=0
EXTRACT: note_off channel=8 note=32 velocity=95 time=0
EXTRACT: note_on channel=8 note=33 velocity=95 time=0
EXTRACT: note_off channel=5 note=32 velocity=95 time=0
EXTRACT: note_on channel=5 note=33 velocity=95 time=0
EXTRACT: note_off channel=7 note=56 velocity=95 time=0
EXTRACT: note_off channel=7 note=49 velocity=95 time=0
EXTRACT: note_on channel=7 note=57 velocity=95 time=0
EXTRACT: note_on channel=7 note=52 velocity=95 time=0
EXTRACT: note_on channel=7 note=45 velocity=95 time=0
EXTRACT: note_off channel=13 note=52 velocity=95 time=0
EXTRACT: note_on channel=14 note=45 velocity=95 time=0
EXTRACT: pitchwheel channel=14 pitch=0 time=0.08695649999999999
EXTRACT: pitchwheel channel=14 pitch=128 time=0.08695649999999999
EXTRACT: note_off channel=0 note=59 velocity=47 time=0.08695649999999999
EXTRACT: note_on channel=0 note=69 velocity=47 time=0
EXTRACT: note_on channel=0 note=61 velocity=47 time=0
EXTRACT: note_off channel=11 note=76 velocity=95 time=0
EXTRACT: note_on channel=11 note=83 velocity=95 time=0
EXTRACT: note_off channel=7 note=57 velocity=95 time=0
EXTRACT: note_off channel=7 note=52 velocity=95 time=0
EXTRACT: note_off channel=7 note=45 velocity=95 time=0
EXTRACT: note_on channel=7 note=52 velocity=95 time=0
EXTRACT: note_on channel=7 note=45 velocity=95 time=0
EXTRACT: pitchwheel channel=14 pitch=0 time=0
EXTRACT: note_off channel=9 note=42 velocity=95 time=0
EXTRACT: note_off channel=9 note=43 velocity=95 time=0
EXTRACT: note_on channel=9 note=42 velocity=95 time=0
EXTRACT: note_on channel=9 note=36 velocity=95 time=0
EXTRACT: pitchwheel channel=14 pitch=128 time=0.08695649999999999
EXTRACT: pitchwheel channel=14 pitch=0 time=0.08695649999999999
EXTRACT: note_off channel=0 note=69 velocity=47 time=0.08695649999999999
EXTRACT: note_off channel=0 note=61 velocity=47 time=0
EXTRACT: note_on channel=0 note=57 velocity=47 time=0
EXTRACT: note_off channel=7 note=52 velocity=95 time=0
EXTRACT: note_off channel=7 note=45 velocity=95 time=0
EXTRACT: note_on channel=7 note=52 velocity=95 time=0
EXTRACT: note_on channel=7 note=45 velocity=95 time=0
EXTRACT: pitchwheel channel=14 pitch=128 time=0
EXTRACT: pitchwheel channel=14 pitch=0 time=0.08695649999999999
EXTRACT: pitchwheel channel=14 pitch=128 time=0.08695649999999999
EXTRACT: note_off channel=0 note=57 velocity=47 time=0.08695649999999999
EXTRACT: note_on channel=0 note=69 velocity=63 time=0
EXTRACT: note_on channel=0 note=61 velocity=63 time=0
EXTRACT: note_off channel=11 note=83 velocity=95 time=0
EXTRACT: note_on channel=11 note=83 velocity=95 time=0
EXTRACT: note_off channel=7 note=52 velocity=95 time=0
EXTRACT: note_off channel=7 note=45 velocity=95 time=0
EXTRACT: note_on channel=7 note=54 velocity=95 time=0
EXTRACT: note_on channel=7 note=45 velocity=95 time=0
EXTRACT: pitchwheel channel=14 pitch=0 time=0
EXTRACT: note_off channel=9 note=42 velocity=95 time=0
EXTRACT: note_off channel=9 note=36 velocity=95 time=0
EXTRACT: note_on channel=9 note=46 velocity=63 time=0
EXTRACT: note_on channel=9 note=40 velocity=95 time=0
EXTRACT: pitchwheel channel=14 pitch=128 time=0.08695649999999999
EXTRACT: pitchwheel channel=14 pitch=0 time=0.08695649999999999
EXTRACT: note_off channel=0 note=69 velocity=63 time=0.08695649999999999
EXTRACT: note_off channel=0 note=61 velocity=63 time=0
EXTRACT: note_on channel=0 note=57 velocity=47 time=0
EXTRACT: note_off channel=11 note=83 velocity=95 time=0
EXTRACT: note_on channel=11 note=80 velocity=95 time=0
EXTRACT: note_off channel=7 note=54 velocity=95 time=0
EXTRACT: note_off channel=7 note=45 velocity=95 time=0
EXTRACT: note_on channel=7 note=52 velocity=95 time=0
EXTRACT: note_on channel=7 note=45 velocity=95 time=0
EXTRACT: pitchwheel channel=14 pitch=128 time=0
EXTRACT: pitchwheel channel=14 pitch=0 time=0.08695649999999999
EXTRACT: pitchwheel channel=14 pitch=128 time=0.08695649999999999
EXTRACT: note_off channel=0 note=57 velocity=47 time=0.08695649999999999
EXTRACT: note_on channel=0 note=69 velocity=63 time=0
EXTRACT: note_on channel=0 note=61 velocity=47 time=0
EXTRACT: note_off channel=11 note=80 velocity=95 time=0
EXTRACT: note_on channel=11 note=80 velocity=95 time=0
EXTRACT: note_off channel=7 note=52 velocity=95 time=0
EXTRACT: note_off channel=7 note=45 velocity=95 time=0
EXTRACT: note_on channel=7 note=52 velocity=95 time=0
EXTRACT: note_on channel=7 note=45 velocity=95 time=0
EXTRACT: pitchwheel channel=14 pitch=0 time=0
EXTRACT: note_off channel=9 note=46 velocity=63 time=0
EXTRACT: note_off channel=9 note=40 velocity=95 time=0
EXTRACT: note_on channel=9 note=42 velocity=95 time=0
EXTRACT: note_on channel=9 note=36 velocity=95 time=0
EXTRACT: pitchwheel channel=14 pitch=128 time=0.08695649999999999
EXTRACT: pitchwheel channel=14 pitch=0 time=0.08695649999999999
EXTRACT: note_off channel=0 note=69 velocity=63 time=0.08695649999999999
EXTRACT: note_off channel=0 note=61 velocity=47 time=0
EXTRACT: note_on channel=0 note=57 velocity=63 time=0
EXTRACT: note_off channel=8 note=33 velocity=95 time=0
EXTRACT: note_on channel=8 note=39 velocity=95 time=0
EXTRACT: note_off channel=11 note=80 velocity=95 time=0
EXTRACT: note_on channel=11 note=78 velocity=95 time=0
EXTRACT: note_off channel=5 note=33 velocity=95 time=0
EXTRACT: note_on channel=5 note=39 velocity=95 time=0
EXTRACT: note_off channel=7 note=52 velocity=95 time=0
EXTRACT: note_off channel=7 note=45 velocity=95 time=0
EXTRACT: note_on channel=7 note=52 velocity=95 time=0
EXTRACT: note_on channel=7 note=45 velocity=95 time=0
EXTRACT: pitchwheel channel=14 pitch=128 time=0
EXTRACT: pitchwheel channel=14 pitch=0 time=0
EXTRACT: note_off channel=14 note=45 velocity=95 time=0
EXTRACT: note_on channel=13 note=51 velocity=95 time=0
EXTRACT: note_off channel=9 note=42 velocity=95 time=0
EXTRACT: note_off channel=9 note=36 velocity=95 time=0
EXTRACT: note_on channel=9 note=53 velocity=95 time=0
EXTRACT: note_on channel=9 note=45 velocity=95 time=0
EXTRACT: note_off channel=0 note=57 velocity=63 time=0.2608695
EXTRACT: note_on channel=0 note=69 velocity=63 time=0
EXTRACT: note_on channel=0 note=61 velocity=47 time=0
EXTRACT: note_off channel=8 note=39 velocity=95 time=0
EXTRACT: note_on channel=8 note=40 velocity=95 time=0
EXTRACT: note_off channel=5 note=39 velocity=95 time=0
EXTRACT: note_on channel=5 note=40 velocity=95 time=0
EXTRACT: note_off channel=7 note=52 velocity=95 time=0
EXTRACT: note_off channel=7 note=45 velocity=95 time=0
EXTRACT: note_on channel=7 note=52 velocity=95 time=0
EXTRACT: note_on channel=7 note=45 velocity=95 time=0
EXTRACT: note_off channel=13 note=51 velocity=95 time=0
EXTRACT: note_on channel=13 note=52 velocity=95 time=0
EXTRACT: note_off channel=9 note=53 velocity=95 time=0
EXTRACT: note_off channel=9 note=45 velocity=95 time=0
EXTRACT: note_on channel=9 note=42 velocity=95 time=0
EXTRACT: note_on channel=9 note=36 velocity=95 time=0
EXTRACT: note_off channel=0 note=69 velocity=63 time=0.2608695
EXTRACT: note_off channel=0 note=61 velocity=47 time=0
EXTRACT: note_on channel=0 note=57 velocity=47 time=0
EXTRACT: note_off channel=7 note=52 velocity=95 time=0
EXTRACT: note_off channel=7 note=45 velocity=95 time=0
EXTRACT: note_on channel=7 note=64 velocity=95 time=0
EXTRACT: note_on channel=7 note=59 velocity=95 time=0
EXTRACT: note_on channel=7 note=52 velocity=95 time=0
EXTRACT: note_off channel=13 note=52 velocity=95 time=0
EXTRACT: note_on channel=13 note=40 velocity=95 time=0
EXTRACT: note_off channel=9 note=42 velocity=95 time=0
EXTRACT: note_off channel=9 note=36 velocity=95 time=0
EXTRACT: note_on channel=9 note=43 velocity=95 time=0
EXTRACT: note_off channel=0 note=57 velocity=47 time=0.2608695
EXTRACT: note_on channel=0 note=71 velocity=47 time=0
EXTRACT: note_on channel=0 note=64 velocity=47 time=0
EXTRACT: note_off channel=8 note=40 velocity=95 time=0
EXTRACT: note_on channel=8 note=40 velocity=95 time=0
EXTRACT: note_on channel=8 note=28 velocity=95 time=0
EXTRACT: note_off channel=11 note=78 velocity=95 time=0
EXTRACT: note_off channel=5 note=40 velocity=95 time=0
EXTRACT: note_on channel=5 note=28 velocity=95 time=0
EXTRACT: note_off channel=7 note=64 velocity=95 time=0
EXTRACT: note_off channel=7 note=59 velocity=95 time=0
EXTRACT: note_off channel=7 note=52 velocity=95 time=0
EXTRACT: note_on channel=7 note=47 velocity=95 time=0
EXTRACT: note_on channel=7 note=40 velocity=95 time=0
EXTRACT: note_off channel=9 note=43 velocity=95 time=0
EXTRACT: note_on channel=9 note=49 velocity=95 time=0
EXTRACT: note_on channel=9 note=57 velocity=95 time=0
EXTRACT: note_on channel=9 note=36 velocity=95 time=0
EXTRACT: note_off channel=0 note=71 velocity=47 time=0.2608695
EXTRACT: note_off channel=0 note=64 velocity=47 time=0
EXTRACT: note_on channel=0 note=59 velocity=95 time=0
EXTRACT: note_off channel=7 note=47 velocity=95 time=0
EXTRACT: note_off channel=7 note=40 velocity=95 time=0
EXTRACT: note_on channel=7 note=47 velocity=95 time=0
EXTRACT: note_on channel=7 note=40 velocity=95 time=0
EXTRACT: note_off channel=0 note=59 velocity=95 time=0.2608695
EXTRACT: note_on channel=0 note=71 velocity=47 time=0
EXTRACT: note_on channel=0 note=64 velocity=63 time=0
EXTRACT: note_on channel=11 note=80 velocity=95 time=0
EXTRACT: note_off channel=7 note=47 velocity=95 time=0
EXTRACT: note_off channel=7 note=40 velocity=95 time=0
EXTRACT: note_on channel=7 note=49 velocity=95 time=0
EXTRACT: note_on channel=7 note=40 velocity=95 time=0
EXTRACT: note_off channel=13 note=40 velocity=95 time=0
EXTRACT: note_on channel=13 note=64 velocity=95 time=0
EXTRACT: note_on channel=13 note=59 velocity=95 time=0
EXTRACT: note_off channel=9 note=49 velocity=95 time=0
EXTRACT: note_off channel=9 note=57 velocity=95 time=0
EXTRACT: note_off channel=9 note=36 velocity=95 time=0
EXTRACT: note_on channel=9 note=46 velocity=63 time=0
EXTRACT: note_on channel=9 note=40 velocity=95 time=0
EXTRACT: note_off channel=0 note=71 velocity=47 time=0.2608695
EXTRACT: note_off channel=0 note=64 velocity=63 time=0
EXTRACT: note_on channel=0 note=59 velocity=95 time=0
EXTRACT: note_off channel=11 note=80 velocity=95 time=0
EXTRACT: note_on channel=11 note=78 velocity=95 time=0
EXTRACT: note_off channel=7 note=49 velocity=95 time=0
EXTRACT: note_off channel=7 note=40 velocity=95 time=0
EXTRACT: note_on channel=7 note=49 velocity=95 time=0
EXTRACT: note_on channel=7 note=40 velocity=95 time=0
EXTRACT: note_off channel=0 note=59 velocity=95 time=0.2608695
EXTRACT: note_on channel=0 note=71 velocity=47 time=0
EXTRACT: note_on channel=0 note=64 velocity=63 time=0
EXTRACT: note_off channel=11 note=78 velocity=95 time=0
EXTRACT: note_on channel=11 note=80 velocity=95 time=0
EXTRACT: note_off channel=7 note=49 velocity=95 time=0
EXTRACT: note_off channel=7 note=40 velocity=95 time=0
EXTRACT: note_on channel=7 note=47 velocity=95 time=0
EXTRACT: note_on channel=7 note=40 velocity=95 time=0
EXTRACT: note_off channel=13 note=64 velocity=95 time=0
EXTRACT: note_off channel=13 note=59 velocity=95 time=0
EXTRACT: note_on channel=13 note=40 velocity=95 time=0
EXTRACT: note_off channel=9 note=46 velocity=63 time=0
EXTRACT: note_off channel=9 note=40 velocity=95 time=0
EXTRACT: note_on channel=9 note=42 velocity=95 time=0
EXTRACT: note_on channel=9 note=36 velocity=95 time=0
EXTRACT: note_off channel=0 note=71 velocity=47 time=0.2608695
EXTRACT: note_off channel=0 note=64 velocity=63 time=0
EXTRACT: note_on channel=0 note=59 velocity=95 time=0
EXTRACT: note_off channel=8 note=40 velocity=95 time=0
EXTRACT: note_off channel=8 note=28 velocity=95 time=0
EXTRACT: note_on channel=8 note=30 velocity=95 time=0
EXTRACT: note_off channel=11 note=80 velocity=95 time=0
EXTRACT: note_on channel=11 note=78 velocity=95 time=0
EXTRACT: note_off channel=5 note=28 velocity=95 time=0
EXTRACT: note_on channel=5 note=30 velocity=95 time=0
EXTRACT: note_off channel=7 note=47 velocity=95 time=0
EXTRACT: note_off channel=7 note=40 velocity=95 time=0
EXTRACT: note_on channel=7 note=47 velocity=95 time=0
EXTRACT: note_on channel=7 note=40 velocity=95 time=0
EXTRACT: note_off channel=13 note=40 velocity=95 time=0
EXTRACT: note_on channel=13 note=42 velocity=95 time=0
EXTRACT: note_off channel=9 note=42 velocity=95 time=0
EXTRACT: note_off channel=9 note=36 velocity=95 time=0
EXTRACT: note_on channel=9 note=53 velocity=95 time=0
EXTRACT: note_off channel=0 note=59 velocity=95 time=0.2608695
EXTRACT: note_on channel=0 note=71 velocity=47 time=0
EXTRACT: note_on channel=0 note=64 velocity=63 time=0
EXTRACT: note_off channel=8 note=30 velocity=95 time=0
EXTRACT: note_on channel=8 note=32 velocity=95 time=0
EXTRACT: note_off channel=11 note=78 velocity=95 time=0
EXTRACT: note_on channel=11 note=78 velocity=95 time=0
EXTRACT: note_off channel=5 note=30 velocity=95 time=0
EXTRACT: note_on channel=5 note=32 velocity=95 time=0
EXTRACT: note_off channel=7 note=47 velocity=95 time=0
EXTRACT: note_off channel=7 note=40 velocity=95 time=0
EXTRACT: note_on channel=7 note=47 velocity=95 time=0
EXTRACT: note_on channel=7 note=40 velocity=95 time=0
EXTRACT: note_off channel=13 note=42 velocity=95 time=0
EXTRACT: note_on channel=13 note=44 velocity=95 time=0
EXTRACT: note_off channel=9 note=53 velocity=95 time=0
EXTRACT: note_on channel=9 note=42 velocity=95 time=0
EXTRACT: note_on channel=9 note=43 velocity=95 time=0
EXTRACT: note_off channel=0 note=71 velocity=47 time=0.2608695
EXTRACT: note_off channel=0 note=64 velocity=63 time=0
EXTRACT: note_on channel=0 note=59 velocity=95 time=0
EXTRACT: note_off channel=8 note=32 velocity=95 time=0
EXTRACT: note_on channel=8 note=47 velocity=95 time=0
EXTRACT: note_on channel=8 note=35 velocity=95 time=0
EXTRACT: note_off channel=11 note=78 velocity=95 time=0
EXTRACT: note_on channel=11 note=76 velocity=95 time=0
EXTRACT: note_off channel=5 note=32 velocity=95 time=0
EXTRACT: note_on channel=5 note=35 velocity=95 time=0
EXTRACT: note_off channel=7 note=47 velocity=95 time=0
EXTRACT: note_off channel=7 note=40 velocity=95 time=0
EXTRACT: note_on channel=7 note=54 velocity=95 time=0
EXTRACT: note_on channel=7 note=47 velocity=95 time=0
EXTRACT: note_off channel=13 note=44 velocity=95 time=0
EXTRACT: note_on channel=14 note=47 velocity=95 time=0
EXTRACT: pitchwheel channel=14 pitch=0 time=0.08695649999999999
EXTRACT: pitchwheel channel=14 pitch=128 time=0.08695649999999999
EXTRACT: note_off channel=0 note=59 velocity=95 time=0.08695649999999999
EXTRACT: note_on channel=0 note=71 velocity=47 time=0
EXTRACT: note_on channel=0 note=66 velocity=47 time=0
EXTRACT: note_off channel=11 note=76 velocity=95 time=0
EXTRACT: note_on channel=11 note=78 velocity=95 time=0
EXTRACT: note_off channel=7 note=54 velocity=95 time=0
EXTRACT: note_off channel=7 note=47 velocity=95 time=0
EXTRACT: note_on channel=7 note=54 velocity=95 time=0
EXTRACT: note_on channel=7 note=47 velocity=95 time=0
EXTRACT: pitchwheel channel=14 pitch=0 time=0
EXTRACT: note_off channel=9 note=42 velocity=95 time=0
EXTRACT: note_off channel=9 note=43 velocity=95 time=0
EXTRACT: note_on channel=9 note=42 velocity=95 time=0
EXTRACT: note_on channel=9 note=36 velocity=95 time=0
EXTRACT: pitchwheel channel=14 pitch=128 time=0.08695649999999999
EXTRACT: pitchwheel channel=14 pitch=0 time=0.08695649999999999
EXTRACT: note_off channel=0 note=71 velocity=47 time=0.08695649999999999
EXTRACT: note_off channel=0 note=66 velocity=47 time=0
EXTRACT: note_on channel=0 note=59 velocity=95 time=0
EXTRACT: note_off channel=7 note=54 velocity=95 time=0
EXTRACT: note_off channel=7 note=47 velocity=95 time=0
EXTRACT: note_on channel=7 note=54 velocity=95 time=0
EXTRACT: note_on channel=7 note=47 velocity=95 time=0
EXTRACT: pitchwheel channel=14 pitch=128 time=0
EXTRACT: pitchwheel channel=14 pitch=0 time=0.08695649999999999
EXTRACT: pitchwheel channel=14 pitch=128 time=0.08695649999999999
EXTRACT: note_off channel=0 note=59 velocity=95 time=0.08695649999999999
EXTRACT: note_on channel=0 note=71 velocity=47 time=0
EXTRACT: note_on channel=0 note=66 velocity=47 time=0
EXTRACT: note_off channel=11 note=78 velocity=95 time=0
EXTRACT: note_on channel=11 note=78 velocity=95 time=0
EXTRACT: note_off channel=7 note=54 velocity=95 time=0
EXTRACT: note_off channel=7 note=47 velocity=95 time=0
EXTRACT: note_on channel=7 note=56 velocity=95 time=0
EXTRACT: note_on channel=7 note=47 velocity=95 time=0
EXTRACT: pitchwheel channel=14 pitch=0 time=0
EXTRACT: note_off channel=9 note=42 velocity=95 time=0
EXTRACT: note_off channel=9 note=36 velocity=95 time=0
EXTRACT: note_on channel=9 note=46 velocity=63 time=0
EXTRACT: note_on channel=9 note=40 velocity=95 time=0
EXTRACT: pitchwheel channel=14 pitch=128 time=0.08695649999999999
EXTRACT: pitchwheel channel=14 pitch=0 time=0.08695649999999999
EXTRACT: note_off channel=0 note=71 velocity=47 time=0.08695649999999999
EXTRACT: note_off channel=0 note=66 velocity=47 time=0
EXTRACT: note_on channel=0 note=59 velocity=95 time=0
EXTRACT: note_off channel=11 note=78 velocity=95 time=0
EXTRACT: note_on channel=11 note=78 velocity=95 time=0
EXTRACT: note_off channel=7 note=56 velocity=95 time=0
EXTRACT: note_off channel=7 note=47 velocity=95 time=0
EXTRACT: note_on channel=7 note=54 velocity=95 time=0
EXTRACT: note_on channel=7 note=47 velocity=95 time=0
EXTRACT: pitchwheel channel=14 pitch=128 time=0
EXTRACT: pitchwheel channel=14 pitch=0 time=0.08695649999999999
EXTRACT: note_off channel=11 note=78 velocity=95 time=0.043478249999999996
EXTRACT: note_on channel=11 note=80 velocity=95 time=0
EXTRACT: pitchwheel channel=14 pitch=128 time=0.043478249999999996
EXTRACT: note_off channel=0 note=59 velocity=95 time=0.08695649999999999
EXTRACT: note_on channel=0 note=71 velocity=63 time=0
EXTRACT: note_on channel=0 note=66 velocity=47 time=0
EXTRACT: note_off channel=7 note=54 velocity=95 time=0
EXTRACT: note_off channel=7 note=47 velocity=95 time=0
EXTRACT: note_on channel=7 note=54 velocity=95 time=0
EXTRACT: note_on channel=7 note=47 velocity=95 time=0
EXTRACT: pitchwheel channel=14 pitch=0 time=0
EXTRACT: note_off channel=9 note=46 velocity=63 time=0
EXTRACT: note_off channel=9 note=40 velocity=95 time=0
EXTRACT: note_on channel=9 note=42 velocity=95 time=0
EXTRACT: note_on channel=9 note=36 velocity=95 time=0
EXTRACT: pitchwheel channel=14 pitch=128 time=0.08695649999999999
EXTRACT: pitchwheel channel=14 pitch=0 time=0.08695649999999999
EXTRACT: note_off channel=0 note=71 velocity=63 time=0.08695649999999999
EXTRACT: note_off channel=0 note=66 velocity=47 time=0
EXTRACT: note_on channel=0 note=59 velocity=95 time=0
EXTRACT: note_off channel=8 note=47 velocity=95 time=0
EXTRACT: note_off channel=8 note=35 velocity=95 time=0
EXTRACT: note_on channel=8 note=37 velocity=95 time=0
EXTRACT: note_off channel=5 note=35 velocity=95 time=0
EXTRACT: note_on channel=5 note=37 velocity=95 time=0
EXTRACT: note_off channel=7 note=54 velocity=95 time=0
EXTRACT: note_off channel=7 note=47 velocity=95 time=0
EXTRACT: note_on channel=7 note=54 velocity=95 time=0
EXTRACT: note_on channel=7 note=47 velocity=95 time=0
EXTRACT: pitchwheel channel=14 pitch=128 time=0
EXTRACT: pitchwheel channel=14 pitch=0 time=0
EXTRACT: note_off channel=14 note=47 velocity=95 time=0
EXTRACT: note_on channel=13 note=49 velocity=95 time=0
EXTRACT: note_off channel=9 note=42 velocity=95 time=0
EXTRACT: note_off channel=9 note=36 velocity=95 time=0
EXTRACT: note_on channel=9 note=53 velocity=95 time=0
EXTRACT: note_on channel=9 note=45 velocity=95 time=0
EXTRACT: note_off channel=0 note=59 velocity=95 time=0.2608695
EXTRACT: note_on channel=0 note=71 velocity=47 time=0
EXTRACT: note_on channel=0 note=66 velocity=47 time=0
EXTRACT: note_off channel=8 note=37 velocity=95 time=0
EXTRACT: note_on channel=8 note=39 velocity=95 time=0
EXTRACT: note_off channel=11 note=80 velocity=95 time=0
EXTRACT: note_off channel=5 note=37 velocity=95 time=0
EXTRACT: note_on channel=5 note=39 velocity=95 time=0
EXTRACT: note_off channel=7 note=54 velocity=95 time=0
EXTRACT: note_off channel=7 note=47 velocity=95 time=0
EXTRACT: note_on channel=7 note=54 velocity=95 time=0
EXTRACT: note_on channel=7 note=47 velocity=95 time=0
EXTRACT: note_off channel=13 note=49 velocity=95 time=0
EXTRACT: note_on channel=13 note=51 velocity=95 time=0
EXTRACT: note_off channel=9 note=53 velocity=95 time=0
EXTRACT: note_off channel=9 note=45 velocity=95 time=0
EXTRACT: note_on channel=9 note=42 velocity=95 time=0
EXTRACT: note_on channel=9 note=36 velocity=95 time=0
EXTRACT: note_off channel=0 note=71 velocity=47 time=0.2608695
EXTRACT: note_off channel=0 note=66 velocity=47 time=0
EXTRACT: note_on channel=0 note=59 velocity=95 time=0
EXTRACT: note_off channel=8 note=39 velocity=95 time=0
EXTRACT: note_on channel=8 note=37 velocity=95 time=0
EXTRACT: note_on channel=11 note=76 velocity=95 time=0
EXTRACT: note_off channel=5 note=39 velocity=95 time=0
EXTRACT: note_on channel=5 note=37 velocity=95 time=0
EXTRACT: note_off channel=7 note=54 velocity=95 time=0
EXTRACT: note_off channel=7 note=47 velocity=95 time=0
EXTRACT: note_on channel=7 note=61 velocity=95 time=0
EXTRACT: note_on channel=7 note=56 velocity=95 time=0
EXTRACT: note_on channel=7 note=49 velocity=95 time=0
EXTRACT: note_off channel=13 note=51 velocity=95 time=0
EXTRACT: note_on channel=13 note=51 velocity=95 time=0
EXTRACT: note_on channel=13 note=44 velocity=95 time=0
EXTRACT: note_off channel=9 note=42 velocity=95 time=0
EXTRACT: note_off channel=9 note=36 velocity=95 time=0
EXTRACT: note_on channel=9 note=43 velocity=95 time=0
EXTRACT: note_off channel=0 note=59 velocity=95 time=0.2608695
EXTRACT: note_on channel=0 note=71 velocity=63 time=0
EXTRACT: note_on channel=0 note=64 velocity=47 time=0
EXTRACT: note_off channel=11 note=76 velocity=95 time=0
EXTRACT: note_on channel=11 note=78 velocity=95 time=0
EXTRACT: note_off channel=7 note=61 velocity=95 time=0
EXTRACT: note_off channel=7 note=56 velocity=95 time=0
EXTRACT: note_off channel=7 note=49 velocity=95 time=0
EXTRACT: note_on channel=7 note=56 velocity=95 time=0
EXTRACT: note_on channel=7 note=49 velocity=95 time=0
EXTRACT: note_off channel=13 note=51 velocity=95 time=0
EXTRACT: note_off channel=9 note=43 velocity=95 time=0
EXTRACT: note_on channel=9 note=49 velocity=95 time=0
EXTRACT: note_on channel=9 note=57 velocity=95 time=0
EXTRACT: note_on channel=9 note=36 velocity=95 time=0
EXTRACT: note_off channel=0 note=71 velocity=63 time=0.2608695
EXTRACT: note_off channel=0 note=64 velocity=47 time=0
EXTRACT: note_on channel=0 note=59 velocity=47 time=0
EXTRACT: note_off channel=7 note=56 velocity=95 time=0
EXTRACT: note_off channel=7 note=49 velocity=95 time=0
EXTRACT: note_on channel=7 note=56 velocity=95 time=0
EXTRACT: note_on channel=7 note=49 velocity=95 time=0
EXTRACT: note_off channel=0 note=59 velocity=47 time=0.2608695
EXTRACT: note_on channel=0 note=71 velocity=63 time=0
EXTRACT: note_on channel=0 note=64 velocity=63 time=0
EXTRACT: note_off channel=7 note=56 velocity=95 time=0
EXTRACT: note_off channel=7 note=49 velocity=95 time=0
EXTRACT: note_on channel=7 note=56 velocity=95 time=0
EXTRACT: note_on channel=7 note=49 velocity=95 time=0
EXTRACT: note_off channel=9 note=49 velocity=95 time=0
EXTRACT: note_off channel=9 note=57 velocity=95 time=0
EXTRACT: note_off channel=9 note=36 velocity=95 time=0
EXTRACT: note_on channel=9 note=46 velocity=63 time=0
EXTRACT: note_on channel=9 note=40 velocity=95 time=0
EXTRACT: note_off channel=0 note=71 velocity=63 time=0.2608695
EXTRACT: note_off channel=0 note=64 velocity=63 time=0
EXTRACT: note_on channel=0 note=59 velocity=47 time=0
EXTRACT: note_off channel=11 note=78 velocity=95 time=0
EXTRACT: note_on channel=11 note=80 velocity=95 time=0
EXTRACT: note_off channel=7 note=56 velocity=95 time=0
EXTRACT: note_off channel=7 note=49 velocity=95 time=0
EXTRACT: note_on channel=7 note=56 velocity=95 time=0
EXTRACT: note_on channel=7 note=49 velocity=95 time=0
EXTRACT: note_off channel=0 note=59 velocity=47 time=0.2608695
EXTRACT: note_on channel=0 note=71 velocity=63 time=0
EXTRACT: note_on channel=0 note=64 velocity=63 time=0
EXTRACT: note_off channel=7 note=56 velocity=95 time=0
EXTRACT: note_off channel=7 note=49 velocity=95 time=0
EXTRACT: note_on channel=7 note=56 velocity=95 time=0
EXTRACT: note_on channel=7 note=49 velocity=95 time=0
EXTRACT: note_off channel=9 note=46 velocity=63 time=0
EXTRACT: note_off channel=9 note=40 velocity=95 time=0
EXTRACT: note_on channel=9 note=42 velocity=95 time=0
EXTRACT: note_on channel=9 note=36 velocity=95 time=0
EXTRACT: note_off channel=0 note=71 velocity=63 time=0.2608695
EXTRACT: note_off channel=0 note=64 velocity=63 time=0
EXTRACT: note_on channel=0 note=59 velocity=47 time=0
EXTRACT: note_off channel=8 note=37 velocity=95 time=0
EXTRACT: note_on channel=8 note=39 velocity=95 time=0
EXTRACT: note_off channel=5 note=37 velocity=95 time=0
EXTRACT: note_on channel=5 note=39 velocity=95 time=0
EXTRACT: note_off channel=7 note=56 velocity=95 time=0
EXTRACT: note_off channel=7 note=49 velocity=95 time=0
EXTRACT: note_on channel=7 note=56 velocity=95 time=0
EXTRACT: note_on channel=7 note=49 velocity=95 time=0
EXTRACT: note_off channel=9 note=42 velocity=95 time=0
EXTRACT: note_off channel=9 note=36 velocity=95 time=0
EXTRACT: note_on channel=9 note=53 velocity=95 time=0
EXTRACT: note_off channel=0 note=59 velocity=47 time=0.2608695
EXTRACT: note_on channel=0 note=71 velocity=63 time=0
EXTRACT: note_on channel=0 note=64 velocity=47 time=0
EXTRACT: note_off channel=8 note=39 velocity=95 time=0
EXTRACT: note_on channel=8 note=40 velocity=95 time=0
EXTRACT: note_off channel=11 note=80 velocity=95 time=0
EXTRACT: note_on channel=12 note=76 velocity=95 time=0
EXTRACT: note_off channel=5 note=39 velocity=95 time=0
EXTRACT: note_on channel=5 note=40 velocity=95 time=0
EXTRACT: note_off channel=7 note=56 velocity=95 time=0
EXTRACT: note_off channel=7 note=49 velocity=95 time=0
EXTRACT: note_on channel=7 note=56 velocity=95 time=0
EXTRACT: note_on channel=7 note=49 velocity=95 time=0
EXTRACT: note_off channel=13 note=44 velocity=95 time=0
EXTRACT: note_on channel=13 note=51 velocity=95 time=0
EXTRACT: note_on channel=13 note=44 velocity=95 time=0
EXTRACT: note_off channel=9 note=53 velocity=95 time=0
EXTRACT: note_on channel=9 note=42 velocity=95 time=0
EXTRACT: note_on channel=9 note=43 velocity=95 time=0
EXTRACT: pitchwheel channel=12 pitch=0 time=0.08695649999999999
EXTRACT: pitchwheel channel=12 pitch=128 time=0.08695649999999999
EXTRACT: note_off channel=0 note=71 velocity=63 time=0.08695649999999999
EXTRACT: note_off channel=0 note=64 velocity=47 time=0
EXTRACT: note_on channel=0 note=59 velocity=47 time=0
EXTRACT: note_off channel=8 note=40 velocity=95 time=0
EXTRACT: note_on channel=8 note=33 velocity=95 time=0
EXTRACT: pitchwheel channel=12 pitch=0 time=0
EXTRACT: note_off channel=5 note=40 velocity=95 time=0
EXTRACT: note_on channel=5 note=33 velocity=95 time=0
EXTRACT: note_off channel=7 note=56 velocity=95 time=0
EXTRACT: note_off channel=7 note=49 velocity=95 time=0
EXTRACT: note_on channel=7 note=57 velocity=95 time=0
EXTRACT: note_on channel=7 note=52 velocity=95 time=0
EXTRACT: note_on channel=7 note=45 velocity=95 time=0
EXTRACT: note_off channel=13 note=51 velocity=95 time=0
EXTRACT: note_off channel=13 note=44 velocity=95 time=0
EXTRACT: note_on channel=13 note=52 velocity=95 time=0
EXTRACT: note_on channel=13 note=45 velocity=95 time=0
EXTRACT: pitchwheel channel=12 pitch=128 time=0.08695649999999999
EXTRACT: pitchwheel channel=12 pitch=0 time=0.08695649999999999
EXTRACT: note_off channel=0 note=59 velocity=47 time=0.08695649999999999
EXTRACT: note_on channel=0 note=69 velocity=47 time=0
EXTRACT: note_on channel=0 note=61 velocity=47 time=0
EXTRACT: pitchwheel channel=12 pitch=128 time=0
EXTRACT: note_off channel=7 note=57 velocity=95 time=0
EXTRACT: note_off channel=7 note=52 velocity=95 time=0
EXTRACT: note_off channel=7 note=45 velocity=95 time=0
EXTRACT: note_on channel=7 note=52 velocity=95 time=0
EXTRACT: note_on channel=7 note=45 velocity=95 time=0
EXTRACT: note_off channel=9 note=42 velocity=95 time=0
EXTRACT: note_off channel=9 note=43 velocity=95 time=0
EXTRACT: note_on channel=9 note=42 velocity=95 time=0
EXTRACT: note_on channel=9 note=36 velocity=95 time=0
EXTRACT: pitchwheel channel=12 pitch=0 time=0.08695649999999999
EXTRACT: pitchwheel channel=12 pitch=128 time=0.08695649999999999
EXTRACT: note_off channel=0 note=69 velocity=47 time=0.08695649999999999
EXTRACT: note_off channel=0 note=61 velocity=47 time=0
EXTRACT: note_on channel=0 note=57 velocity=47 time=0
EXTRACT: pitchwheel channel=12 pitch=0 time=0
EXTRACT: note_off channel=7 note=52 velocity=95 time=0
EXTRACT: note_off channel=7 note=45 velocity=95 time=0
EXTRACT: note_on channel=7 note=52 velocity=95 time=0
EXTRACT: note_on channel=7 note=45 velocity=95 time=0
EXTRACT: pitchwheel channel=12 pitch=128 time=0.08695649999999999
EXTRACT: pitchwheel channel=12 pitch=0 time=0.08695649999999999
EXTRACT: note_off channel=0 note=57 velocity=47 time=0.08695649999999999
EXTRACT: note_on channel=0 note=69 velocity=63 time=0
EXTRACT: note_on channel=0 note=61 velocity=63 time=0
EXTRACT: pitchwheel channel=12 pitch=128 time=0
EXTRACT: note_off channel=7 note=52 velocity=95 time=0
EXTRACT: note_off channel=7 note=45 velocity=95 time=0
EXTRACT: note_on channel=7 note=54 velocity=95 time=0
EXTRACT: note_on channel=7 note=45 velocity=95 time=0
EXTRACT: note_off channel=9 note=42 velocity=95 time=0
EXTRACT: note_off channel=9 note=36 velocity=95 time=0
EXTRACT: note_on channel=9 note=46 velocity=63 time=0
EXTRACT: note_on channel=9 note=40 velocity=95 time=0
EXTRACT: pitchwheel channel=12 pitch=0 time=0.08695649999999999
EXTRACT: pitchwheel channel=12 pitch=128 time=0.08695649999999999
EXTRACT: note_off channel=0 note=69 velocity=63 time=0.08695649999999999
EXTRACT: note_off channel=0 note=61 velocity=63 time=0
EXTRACT: note_on channel=0 note=57 velocity=47 time=0
EXTRACT: pitchwheel channel=12 pitch=0 time=0
EXTRACT: note_off channel=7 note=54 velocity=95 time=0
EXTRACT: note_off channel=7 note=45 velocity=95 time=0
EXTRACT: note_on channel=7 note=52 velocity=95 time=0
EXTRACT: note_on channel=7 note=45 velocity=95 time=0
EXTRACT: pitchwheel channel=12 pitch=128 time=0.08695649999999999
EXTRACT: pitchwheel channel=12 pitch=0 time=0.08695649999999999
EXTRACT: note_off channel=0 note=57 velocity=47 time=0.08695649999999999
EXTRACT: note_on channel=0 note=69 velocity=63 time=0
EXTRACT: note_on channel=0 note=61 velocity=47 time=0
EXTRACT: pitchwheel channel=12 pitch=128 time=0
EXTRACT: note_off channel=7 note=52 velocity=95 time=0
EXTRACT: note_off channel=7 note=45 velocity=95 time=0
EXTRACT: note_on channel=7 note=52 velocity=95 time=0
EXTRACT: note_on channel=7 note=45 velocity=95 time=0
EXTRACT: note_off channel=9 note=46 velocity=63 time=0
EXTRACT: note_off channel=9 note=40 velocity=95 time=0
EXTRACT: note_on channel=9 note=42 velocity=95 time=0
EXTRACT: note_on channel=9 note=36 velocity=95 time=0
EXTRACT: pitchwheel channel=12 pitch=0 time=0.08695649999999999
EXTRACT: pitchwheel channel=12 pitch=128 time=0.08695649999999999
EXTRACT: note_off channel=0 note=69 velocity=63 time=0.08695649999999999
EXTRACT: note_off channel=0 note=61 velocity=47 time=0
EXTRACT: note_on channel=0 note=57 velocity=63 time=0
EXTRACT: note_off channel=8 note=33 velocity=95 time=0
EXTRACT: note_on channel=8 note=39 velocity=95 time=0
EXTRACT: pitchwheel channel=12 pitch=0 time=0
EXTRACT: note_off channel=5 note=33 velocity=95 time=0
EXTRACT: note_on channel=5 note=39 velocity=95 time=0
EXTRACT: note_off channel=7 note=52 velocity=95 time=0
EXTRACT: note_off channel=7 note=45 velocity=95 time=0
EXTRACT: note_on channel=7 note=52 velocity=95 time=0
EXTRACT: note_on channel=7 note=45 velocity=95 time=0
EXTRACT: note_off channel=13 note=52 velocity=95 time=0
EXTRACT: note_off channel=13 note=45 velocity=95 time=0
EXTRACT: note_on channel=13 note=51 velocity=95 time=0
EXTRACT: note_off channel=9 note=42 velocity=95 time=0
EXTRACT: note_off channel=9 note=36 velocity=95 time=0
EXTRACT: note_on channel=9 note=53 velocity=95 time=0
EXTRACT: note_on channel=9 note=45 velocity=95 time=0
EXTRACT: pitchwheel channel=12 pitch=128 time=0.08695649999999999
EXTRACT: pitchwheel channel=12 pitch=0 time=0.08695649999999999
EXTRACT: note_off channel=0 note=57 velocity=63 time=0.08695649999999999
EXTRACT: note_on channel=0 note=69 velocity=63 time=0
EXTRACT: note_on channel=0 note=61 velocity=47 time=0
EXTRACT: note_off channel=8 note=39 velocity=95 time=0
EXTRACT: note_on channel=8 note=40 velocity=95 time=0
EXTRACT: pitchwheel channel=12 pitch=128 time=0
EXTRACT: pitchwheel channel=12 pitch=0 time=0
EXTRACT: note_off channel=12 note=76 velocity=95 time=0
EXTRACT: note_off channel=5 note=39 velocity=95 time=0
EXTRACT: note_on channel=5 note=40 velocity=95 time=0
EXTRACT: note_off channel=7 note=52 velocity=95 time=0
EXTRACT: note_off channel=7 note=45 velocity=95 time=0
EXTRACT: note_on channel=7 note=52 velocity=95 time=0
EXTRACT: note_on channel=7 note=45 velocity=95 time=0
EXTRACT: note_off channel=13 note=51 velocity=95 time=0
EXTRACT: note_on channel=13 note=52 velocity=95 time=0
EXTRACT: note_off channel=9 note=53 velocity=95 time=0
EXTRACT: note_off channel=9 note=45 velocity=95 time=0
EXTRACT: note_on channel=9 note=42 velocity=95 time=0
EXTRACT: note_on channel=9 note=36 velocity=95 time=0
EXTRACT: note_off channel=0 note=69 velocity=63 time=0.2608695
EXTRACT: note_off channel=0 note=61 velocity=47 time=0
EXTRACT: note_on channel=0 note=57 velocity=47 time=0
EXTRACT: note_off channel=8 note=40 velocity=95 time=0
EXTRACT: note_on channel=8 note=28 velocity=95 time=0
EXTRACT: note_off channel=5 note=40 velocity=95 time=0
EXTRACT: note_on channel=5 note=28 velocity=95 time=0
EXTRACT: note_off channel=7 note=52 velocity=95 time=0
EXTRACT: note_off channel=7 note=45 velocity=95 time=0
EXTRACT: note_on channel=7 note=64 velocity=95 time=0
EXTRACT: note_on channel=7 note=59 velocity=95 time=0
EXTRACT: note_on channel=7 note=52 velocity=95 time=0
EXTRACT: note_off channel=13 note=52 velocity=95 time=0
EXTRACT: note_on channel=13 note=40 velocity=95 time=0
EXTRACT: note_off channel=9 note=42 velocity=95 time=0
EXTRACT: note_off channel=9 note=36 velocity=95 time=0
EXTRACT: note_on channel=9 note=43 velocity=95 time=0
EXTRACT: note_off channel=0 note=57 velocity=47 time=0.2608695
EXTRACT: note_on channel=0 note=71 velocity=47 time=0
EXTRACT: note_on channel=0 note=64 velocity=47 time=0
EXTRACT: note_off channel=7 note=64 velocity=95 time=0
EXTRACT: note_off channel=7 note=59 velocity=95 time=0
EXTRACT: note_off channel=7 note=52 velocity=95 time=0
EXTRACT: note_on channel=7 note=47 velocity=95 time=0
EXTRACT: note_on channel=7 note=40 velocity=95 time=0
EXTRACT: note_off channel=9 note=43 velocity=95 time=0
EXTRACT: note_on channel=9 note=49 velocity=95 time=0
EXTRACT: note_on channel=9 note=57 velocity=95 time=0
EXTRACT: note_on channel=9 note=36 velocity=95 time=0
EXTRACT: note_off channel=0 note=71 velocity=47 time=0.2608695
EXTRACT: note_off channel=0 note=64 velocity=47 time=0
EXTRACT: note_on channel=0 note=59 velocity=95 time=0
EXTRACT: note_off channel=7 note=47 velocity=95 time=0
EXTRACT: note_off channel=7 note=40 velocity=95 time=0
EXTRACT: note_on channel=7 note=47 velocity=95 time=0
EXTRACT: note_on channel=7 note=40 velocity=95 time=0
EXTRACT: note_off channel=0 note=59 velocity=95 time=0.2608695
EXTRACT: note_on channel=0 note=71 velocity=47 time=0
EXTRACT: note_on channel=0 note=64 velocity=63 time=0
EXTRACT: note_on channel=11 note=80 velocity=95 time=0
EXTRACT: note_off channel=7 note=47 velocity=95 time=0
EXTRACT: note_off channel=7 note=40 velocity=95 time=0
EXTRACT: note_on channel=7 note=49 velocity=95 time=0
EXTRACT: note_on channel=7 note=40 velocity=95 time=0
EXTRACT: note_off channel=13 note=40 velocity=95 time=0
EXTRACT: note_on channel=13 note=64 velocity=95 time=0
EXTRACT: note_on channel=13 note=59 velocity=95 time=0
EXTRACT: note_off channel=9 note=49 velocity=95 time=0
EXTRACT: note_off channel=9 note=57 velocity=95 time=0
EXTRACT: note_off channel=9 note=36 velocity=95 time=0
EXTRACT: note_on channel=9 note=46 velocity=63 time=0
EXTRACT: note_on channel=9 note=40 velocity=95 time=0
EXTRACT: note_off channel=0 note=71 velocity=47 time=0.2608695
EXTRACT: note_off channel=0 note=64 velocity=63 time=0
EXTRACT: note_on channel=0 note=59 velocity=95 time=0
EXTRACT: note_off channel=11 note=80 velocity=95 time=0
EXTRACT: note_on channel=11 note=78 velocity=95 time=0
EXTRACT: note_off channel=7 note=49 velocity=95 time=0
EXTRACT: note_off channel=7 note=40 velocity=95 time=0
EXTRACT: note_on channel=7 note=49 velocity=95 time=0
EXTRACT: note_on channel=7 note=40 velocity=95 time=0
EXTRACT: note_off channel=0 note=59 velocity=95 time=0.2608695
EXTRACT: note_on channel=0 note=71 velocity=47 time=0
EXTRACT: note_on channel=0 note=64 velocity=63 time=0
EXTRACT: note_off channel=11 note=78 velocity=95 time=0
EXTRACT: note_on channel=11 note=80 velocity=95 time=0
EXTRACT: note_off channel=7 note=49 velocity=95 time=0
EXTRACT: note_off channel=7 note=40 velocity=95 time=0
EXTRACT: note_on channel=7 note=47 velocity=95 time=0
EXTRACT: note_on channel=7 note=40 velocity=95 time=0
EXTRACT: note_off channel=13 note=64 velocity=95 time=0
EXTRACT: note_off channel=13 note=59 velocity=95 time=0
EXTRACT: note_on channel=13 note=40 velocity=95 time=0
EXTRACT: note_off channel=9 note=46 velocity=63 time=0
EXTRACT: note_off channel=9 note=40 velocity=95 time=0
EXTRACT: note_on channel=9 note=42 velocity=95 time=0
EXTRACT: note_on channel=9 note=36 velocity=95 time=0
EXTRACT: note_off channel=0 note=71 velocity=47 time=0.2608695
EXTRACT: note_off channel=0 note=64 velocity=63 time=0
EXTRACT: note_on channel=0 note=59 velocity=95 time=0
EXTRACT: note_off channel=8 note=28 velocity=95 time=0
EXTRACT: note_on channel=8 note=30 velocity=95 time=0
EXTRACT: note_off channel=11 note=80 velocity=95 time=0
EXTRACT: note_on channel=11 note=78 velocity=95 time=0
EXTRACT: note_off channel=5 note=28 velocity=95 time=0
EXTRACT: note_on channel=5 note=30 velocity=95 time=0
EXTRACT: note_off channel=7 note=47 velocity=95 time=0
EXTRACT: note_off channel=7 note=40 velocity=95 time=0
EXTRACT: note_on channel=7 note=47 velocity=95 time=0
EXTRACT: note_on channel=7 note=40 velocity=95 time=0
EXTRACT: note_off channel=13 note=40 velocity=95 time=0
EXTRACT: note_on channel=13 note=42 velocity=95 time=0
EXTRACT: note_off channel=9 note=42 velocity=95 time=0
EXTRACT: note_off channel=9 note=36 velocity=95 time=0
EXTRACT: note_on channel=9 note=53 velocity=95 time=0
EXTRACT: note_off channel=0 note=59 velocity=95 time=0.2608695
EXTRACT: note_on channel=0 note=71 velocity=47 time=0
EXTRACT: note_on channel=0 note=64 velocity=63 time=0
EXTRACT: note_off channel=8 note=30 velocity=95 time=0
EXTRACT: note_on channel=8 note=32 velocity=95 time=0
EXTRACT: note_off channel=11 note=78 velocity=95 time=0
EXTRACT: note_off channel=5 note=30 velocity=95 time=0
EXTRACT: note_on channel=5 note=32 velocity=95 time=0
EXTRACT: note_off channel=7 note=47 velocity=95 time=0
EXTRACT: note_off channel=7 note=40 velocity=95 time=0
EXTRACT: note_on channel=7 note=47 velocity=95 time=0
EXTRACT: note_on channel=7 note=40 velocity=95 time=0
EXTRACT: note_off channel=13 note=42 velocity=95 time=0
EXTRACT: note_on channel=13 note=44 velocity=95 time=0
EXTRACT: note_off channel=9 note=53 velocity=95 time=0
EXTRACT: note_on channel=9 note=42 velocity=95 time=0
EXTRACT: note_on channel=9 note=43 velocity=95 time=0
EXTRACT: note_off channel=0 note=71 velocity=47 time=0.2608695
EXTRACT: note_off channel=0 note=64 velocity=63 time=0
EXTRACT: note_on channel=0 note=59 velocity=95 time=0
EXTRACT: note_off channel=8 note=32 velocity=95 time=0
EXTRACT: note_on channel=8 note=35 velocity=95 time=0
EXTRACT: note_off channel=5 note=32 velocity=95 time=0
EXTRACT: note_on channel=5 note=35 velocity=95 time=0
EXTRACT: note_off channel=7 note=47 velocity=95 time=0
EXTRACT: note_off channel=7 note=40 velocity=95 time=0
EXTRACT: note_on channel=7 note=54 velocity=95 time=0
EXTRACT: note_on channel=7 note=47 velocity=95 time=0
EXTRACT: note_off channel=13 note=44 velocity=95 time=0
EXTRACT: note_on channel=14 note=47 velocity=95 time=0
EXTRACT: pitchwheel channel=14 pitch=0 time=0.08695649999999999
EXTRACT: pitchwheel channel=14 pitch=128 time=0.08695649999999999
EXTRACT: note_off channel=0 note=59 velocity=95 time=0.08695649999999999
EXTRACT: note_on channel=0 note=71 velocity=47 time=0
EXTRACT: note_on channel=0 note=66 velocity=47 time=0
EXTRACT: note_off channel=7 note=54 velocity=95 time=0
EXTRACT: note_off channel=7 note=47 velocity=95 time=0
EXTRACT: note_on channel=7 note=54 velocity=95 time=0
EXTRACT: note_on channel=7 note=47 velocity=95 time=0
EXTRACT: pitchwheel channel=14 pitch=0 time=0
EXTRACT: note_off channel=9 note=42 velocity=95 time=0
EXTRACT: note_off channel=9 note=43 velocity=95 time=0
EXTRACT: note_on channel=9 note=42 velocity=95 time=0
EXTRACT: note_on channel=9 note=36 velocity=95 time=0
EXTRACT: pitchwheel channel=14 pitch=128 time=0.08695649999999999
EXTRACT: pitchwheel channel=14 pitch=0 time=0.08695649999999999
EXTRACT: note_off channel=0 note=71 velocity=47 time=0.08695649999999999
EXTRACT: note_off channel=0 note=66 velocity=47 time=0
EXTRACT: note_on channel=0 note=59 velocity=95 time=0
EXTRACT: note_off channel=7 note=54 velocity=95 time=0
EXTRACT: note_off channel=7 note=47 velocity=95 time=0
EXTRACT: note_on channel=7 note=54 velocity=95 time=0
EXTRACT: note_on channel=7 note=47 velocity=95 time=0
EXTRACT: pitchwheel channel=14 pitch=128 time=0
EXTRACT: note_on channel=11 note=78 velocity=95 time=0.08695649999999999
EXTRACT: pitchwheel channel=14 pitch=0 time=0
EXTRACT: pitchwheel channel=14 pitch=128 time=0.08695649999999999
EXTRACT: note_off channel=0 note=59 velocity=95 time=0.08695649999999999
EXTRACT: note_on channel=0 note=71 velocity=47 time=0
EXTRACT: note_on channel=0 note=66 velocity=47 time=0
EXTRACT: note_off channel=7 note=54 velocity=95 time=0
EXTRACT: note_off channel=7 note=47 velocity=95 time=0
EXTRACT: note_on channel=7 note=56 velocity=95 time=0
EXTRACT: note_on channel=7 note=47 velocity=95 time=0
EXTRACT: pitchwheel channel=14 pitch=0 time=0
EXTRACT: note_off channel=9 note=42 velocity=95 time=0
EXTRACT: note_off channel=9 note=36 velocity=95 time=0
EXTRACT: note_on channel=9 note=46 velocity=63 time=0
EXTRACT: note_on channel=9 note=40 velocity=95 time=0
EXTRACT: pitchwheel channel=14 pitch=128 time=0.08695649999999999
EXTRACT: note_off channel=11 note=78 velocity=95 time=0.08695649999999999
EXTRACT: note_on channel=11 note=80 velocity=95 time=0
EXTRACT: pitchwheel channel=14 pitch=0 time=0
EXTRACT: note_off channel=0 note=71 velocity=47 time=0.08695649999999999
EXTRACT: note_off channel=0 note=66 velocity=47 time=0
EXTRACT: note_on channel=0 note=59 velocity=95 time=0
EXTRACT: note_off channel=7 note=56 velocity=95 time=0
EXTRACT: note_off channel=7 note=47 velocity=95 time=0
EXTRACT: note_on channel=7 note=54 velocity=95 time=0
EXTRACT: note_on channel=7 note=47 velocity=95 time=0
EXTRACT: pitchwheel channel=14 pitch=128 time=0
EXTRACT: pitchwheel channel=14 pitch=0 time=0.08695649999999999
EXTRACT: pitchwheel channel=14 pitch=128 time=0.08695649999999999
EXTRACT: note_off channel=0 note=59 velocity=95 time=0.08695649999999999
EXTRACT: note_on channel=0 note=71 velocity=63 time=0
EXTRACT: note_on channel=0 note=66 velocity=47 time=0
EXTRACT: note_off channel=11 note=80 velocity=95 time=0
EXTRACT: note_on channel=11 note=78 velocity=95 time=0
EXTRACT: note_off channel=7 note=54 velocity=95 time=0
EXTRACT: note_off channel=7 note=47 velocity=95 time=0
EXTRACT: note_on channel=7 note=54 velocity=95 time=0
EXTRACT: note_on channel=7 note=47 velocity=95 time=0
EXTRACT: pitchwheel channel=14 pitch=0 time=0
EXTRACT: pitchwheel channel=14 pitch=128 time=0
EXTRACT: pitchwheel channel=14 pitch=0 time=0
EXTRACT: note_off channel=14 note=47 velocity=95 time=0
EXTRACT: note_on channel=13 note=47 velocity=95 time=0
EXTRACT: note_off channel=9 note=46 velocity=63 time=0
EXTRACT: note_off channel=9 note=40 velocity=95 time=0
EXTRACT: note_on channel=9 note=42 velocity=95 time=0
EXTRACT: note_on channel=9 note=36 velocity=95 time=0
EXTRACT: note_off channel=0 note=71 velocity=63 time=0.2608695
EXTRACT: note_off channel=0 note=66 velocity=47 time=0
EXTRACT: note_on channel=0 note=59 velocity=95 time=0
EXTRACT: note_off channel=8 note=35 velocity=95 time=0
EXTRACT: note_on channel=8 note=37 velocity=95 time=0
EXTRACT: note_off channel=11 note=78 velocity=95 time=0
EXTRACT: note_on channel=12 note=76 velocity=95 time=0
EXTRACT: note_off channel=5 note=35 velocity=95 time=0
EXTRACT: note_on channel=5 note=37 velocity=95 time=0
EXTRACT: note_off channel=7 note=54 velocity=95 time=0
EXTRACT: note_off channel=7 note=47 velocity=95 time=0
EXTRACT: note_on channel=7 note=54 velocity=95 time=0
EXTRACT: note_on channel=7 note=47 velocity=95 time=0
EXTRACT: note_off channel=13 note=47 velocity=95 time=0
EXTRACT: note_on channel=13 note=49 velocity=95 time=0
EXTRACT: note_off channel=9 note=42 velocity=95 time=0
EXTRACT: note_off channel=9 note=36 velocity=95 time=0
EXTRACT: note_on channel=9 note=53 velocity=95 time=0
EXTRACT: note_on channel=9 note=45 velocity=95 time=0
EXTRACT: pitchwheel channel=12 pitch=0 time=0.08695649999999999
EXTRACT: pitchwheel channel=12 pitch=128 time=0.08695649999999999
EXTRACT: note_off channel=0 note=59 velocity=95 time=0.08695649999999999
EXTRACT: note_on channel=0 note=71 velocity=47 time=0
EXTRACT: note_on channel=0 note=66 velocity=47 time=0
EXTRACT: note_off channel=8 note=37 velocity=95 time=0
EXTRACT: note_on channel=8 note=39 velocity=95 time=0
EXTRACT: pitchwheel channel=12 pitch=0 time=0
EXTRACT: note_off channel=5 note=37 velocity=95 time=0
EXTRACT: note_on channel=5 note=39 velocity=95 time=0
EXTRACT: note_off channel=7 note=54 velocity=95 time=0
EXTRACT: note_off channel=7 note=47 velocity=95 time=0
EXTRACT: note_on channel=7 note=54 velocity=95 time=0
EXTRACT: note_on channel=7 note=47 velocity=95 time=0
EXTRACT: note_off channel=13 note=49 velocity=95 time=0
EXTRACT: note_on channel=13 note=51 velocity=95 time=0
EXTRACT: note_off channel=9 note=53 velocity=95 time=0
EXTRACT: note_off channel=9 note=45 velocity=95 time=0
EXTRACT: note_on channel=9 note=42 velocity=95 time=0
EXTRACT: note_on channel=9 note=36 velocity=95 time=0
EXTRACT: pitchwheel channel=12 pitch=128 time=0.08695649999999999
EXTRACT: pitchwheel channel=12 pitch=0 time=0.08695649999999999
EXTRACT: note_off channel=0 note=71 velocity=47 time=0.08695649999999999
EXTRACT: note_off channel=0 note=66 velocity=47 time=0
EXTRACT: note_on channel=0 note=59 velocity=95 time=0
EXTRACT: note_off channel=8 note=39 velocity=95 time=0
EXTRACT: note_on channel=8 note=32 velocity=95 time=0
EXTRACT: pitchwheel channel=12 pitch=128 time=0
EXTRACT: pitchwheel channel=12 pitch=0 time=0
EXTRACT: note_off channel=12 note=76 velocity=95 time=0
EXTRACT: note_off channel=5 note=39 velocity=95 time=0
EXTRACT: note_on channel=5 note=32 velocity=95 time=0
EXTRACT: note_off channel=7 note=54 velocity=95 time=0
EXTRACT: note_off channel=7 note=47 velocity=95 time=0
EXTRACT: note_on channel=7 note=61 velocity=95 time=0
EXTRACT: note_on channel=7 note=56 velocity=95 time=0
EXTRACT: note_on channel=7 note=49 velocity=95 time=0
EXTRACT: note_off channel=13 note=51 velocity=95 time=0
EXTRACT: note_on channel=14 note=49 velocity=95 time=0
EXTRACT: note_off channel=9 note=42 velocity=95 time=0
EXTRACT: note_off channel=9 note=36 velocity=95 time=0
EXTRACT: note_on channel=9 note=43 velocity=95 time=0
EXTRACT: pitchwheel channel=14 pitch=0 time=0.08695649999999999
EXTRACT: pitchwheel channel=14 pitch=128 time=0.08695649999999999
EXTRACT: note_off channel=0 note=59 velocity=95 time=0.08695649999999999
EXTRACT: note_on channel=0 note=71 velocity=63 time=0
EXTRACT: note_on channel=0 note=63 velocity=47 time=0
EXTRACT: note_off channel=7 note=61 velocity=95 time=0
EXTRACT: note_off channel=7 note=56 velocity=95 time=0
EXTRACT: note_off channel=7 note=49 velocity=95 time=0
EXTRACT: note_on channel=7 note=56 velocity=95 time=0
EXTRACT: note_on channel=7 note=49 velocity=95 time=0
EXTRACT: pitchwheel channel=14 pitch=0 time=0
EXTRACT: note_off channel=9 note=43 velocity=95 time=0
EXTRACT: note_on channel=9 note=49 velocity=95 time=0
EXTRACT: note_on channel=9 note=57 velocity=95 time=0
EXTRACT: note_on channel=9 note=36 velocity=95 time=0
EXTRACT: pitchwheel channel=14 pitch=128 time=0.08695649999999999
EXTRACT: pitchwheel channel=14 pitch=0 time=0.08695649999999999
EXTRACT: note_off channel=0 note=71 velocity=63 time=0.08695649999999999
EXTRACT: note_off channel=0 note=63 velocity=47 time=0
EXTRACT: note_on channel=0 note=59 velocity=47 time=0
EXTRACT: note_off channel=7 note=56 velocity=95 time=0
EXTRACT: note_off channel=7 note=49 velocity=95 time=0
EXTRACT: note_on channel=7 note=56 velocity=95 time=0
EXTRACT: note_on channel=7 note=49 velocity=95 time=0
EXTRACT: pitchwheel channel=14 pitch=128 time=0
EXTRACT: pitchwheel channel=14 pitch=0 time=0.08695649999999999
EXTRACT: pitchwheel channel=14 pitch=128 time=0.08695649999999999
EXTRACT: note_off channel=0 note=59 velocity=47 time=0.08695649999999999
EXTRACT: note_on channel=0 note=71 velocity=63 time=0
EXTRACT: note_on channel=0 note=63 velocity=63 time=0
EXTRACT: note_off channel=7 note=56 velocity=95 time=0
EXTRACT: note_off channel=7 note=49 velocity=95 time=0
EXTRACT: note_on channel=7 note=56 velocity=95 time=0
EXTRACT: note_on channel=7 note=49 velocity=95 time=0
EXTRACT: pitchwheel channel=14 pitch=0 time=0
EXTRACT: note_off channel=9 note=49 velocity=95 time=0
EXTRACT: note_off channel=9 note=57 velocity=95 time=0
EXTRACT: note_off channel=9 note=36 velocity=95 time=0
EXTRACT: note_on channel=9 note=46 velocity=63 time=0
EXTRACT: note_on channel=9 note=40 velocity=95 time=0
EXTRACT: pitchwheel channel=14 pitch=128 time=0.08695649999999999
EXTRACT: pitchwheel channel=14 pitch=0 time=0.08695649999999999
EXTRACT: note_off channel=0 note=71 velocity=63 time=0.08695649999999999
EXTRACT: note_off channel=0 note=63 velocity=63 time=0
EXTRACT: note_on channel=0 note=59 velocity=47 time=0
EXTRACT: note_off channel=7 note=56 velocity=95 time=0
EXTRACT: note_off channel=7 note=49 velocity=95 time=0
EXTRACT: note_on channel=7 note=56 velocity=95 time=0
EXTRACT: note_on channel=7 note=49 velocity=95 time=0
EXTRACT: pitchwheel channel=14 pitch=128 time=0
EXTRACT: pitchwheel channel=14 pitch=0 time=0.08695649999999999
EXTRACT: pitchwheel channel=14 pitch=128 time=0.08695649999999999
EXTRACT: note_off channel=0 note=59 velocity=47 time=0.08695649999999999
EXTRACT: note_on channel=0 note=71 velocity=63 time=0
EXTRACT: note_on channel=0 note=63 velocity=63 time=0
EXTRACT: note_on channel=11 note=76 velocity=95 time=0
EXTRACT: note_off channel=7 note=56 velocity=95 time=0
EXTRACT: note_off channel=7 note=49 velocity=95 time=0
EXTRACT: note_on channel=7 note=56 velocity=95 time=0
EXTRACT: note_on channel=7 note=49 velocity=95 time=0
EXTRACT: pitchwheel channel=14 pitch=0 time=0
EXTRACT: note_off channel=9 note=46 velocity=63 time=0
EXTRACT: note_off channel=9 note=40 velocity=95 time=0
EXTRACT: note_on channel=9 note=42 velocity=95 time=0
EXTRACT: note_on channel=9 note=36 velocity=95 time=0
EXTRACT: pitchwheel channel=14 pitch=128 time=0.08695649999999999
EXTRACT: note_off channel=11 note=76 velocity=95 time=0.043478249999999996
EXTRACT: note_on channel=11 note=76 velocity=95 time=0
EXTRACT: pitchwheel channel=14 pitch=0 time=0.043478249999999996
EXTRACT: note_off channel=0 note=71 velocity=63 time=0.08695649999999999
EXTRACT: note_off channel=0 note=63 velocity=63 time=0
EXTRACT: note_on channel=0 note=59 velocity=47 time=0
EXTRACT: note_off channel=11 note=76 velocity=95 time=0
EXTRACT: note_on channel=11 note=76 velocity=95 time=0
EXTRACT: note_off channel=7 note=56 velocity=95 time=0
EXTRACT: note_off channel=7 note=49 velocity=95 time=0
EXTRACT: note_on channel=7 note=56 velocity=95 time=0
EXTRACT: note_on channel=7 note=49 velocity=95 time=0
EXTRACT: pitchwheel channel=14 pitch=128 time=0
EXTRACT: pitchwheel channel=14 pitch=0 time=0
EXTRACT: note_off channel=14 note=49 velocity=95 time=0
EXTRACT: note_on channel=13 note=51 velocity=95 time=0
EXTRACT: note_off channel=9 note=42 velocity=95 time=0
EXTRACT: note_off channel=9 note=36 velocity=95 time=0
EXTRACT: note_on channel=9 note=53 velocity=95 time=0
EXTRACT: note_off channel=0 note=59 velocity=47 time=0.2608695
EXTRACT: note_on channel=0 note=71 velocity=63 time=0
EXTRACT: note_on channel=0 note=63 velocity=47 time=0
EXTRACT: note_off channel=8 note=32 velocity=95 time=0
EXTRACT: note_on channel=8 note=32 velocity=95 time=0
EXTRACT: note_off channel=5 note=32 velocity=95 time=0
EXTRACT: note_on channel=5 note=32 velocity=95 time=0
EXTRACT: note_off channel=7 note=56 velocity=95 time=0
EXTRACT: note_off channel=7 note=49 velocity=95 time=0
EXTRACT: note_on channel=7 note=56 velocity=95 time=0
EXTRACT: note_on channel=7 note=49 velocity=95 time=0
EXTRACT: note_off channel=13 note=51 velocity=95 time=0
EXTRACT: note_on channel=13 note=52 velocity=95 time=0
EXTRACT: note_off channel=9 note=53 velocity=95 time=0
EXTRACT: note_on channel=9 note=42 velocity=95 time=0
EXTRACT: note_on channel=9 note=43 velocity=95 time=0
EXTRACT: note_off channel=0 note=71 velocity=63 time=0.2608695
EXTRACT: note_off channel=0 note=63 velocity=47 time=0
EXTRACT: note_on channel=0 note=59 velocity=47 time=0
EXTRACT: note_off channel=8 note=32 velocity=95 time=0
EXTRACT: note_on channel=8 note=33 velocity=95 time=0
EXTRACT: note_off channel=11 note=76 velocity=95 time=0
EXTRACT: note_on channel=11 note=76 velocity=95 time=0
EXTRACT: note_off channel=5 note=32 velocity=95 time=0
EXTRACT: note_on channel=5 note=33 velocity=95 time=0
EXTRACT: note_off channel=7 note=56 velocity=95 time=0
EXTRACT: note_off channel=7 note=49 velocity=95 time=0
EXTRACT: note_on channel=7 note=57 velocity=95 time=0
EXTRACT: note_on channel=7 note=52 velocity=95 time=0
EXTRACT: note_on channel=7 note=45 velocity=95 time=0
EXTRACT: note_off channel=13 note=52 velocity=95 time=0
EXTRACT: note_on channel=14 note=45 velocity=95 time=0
EXTRACT: pitchwheel channel=14 pitch=0 time=0.08695649999999999
EXTRACT: pitchwheel channel=14 pitch=128 time=0.08695649999999999
EXTRACT: note_off channel=0 note=59 velocity=47 time=0.08695649999999999
EXTRACT: note_on channel=0 note=69 velocity=47 time=0
EXTRACT: note_on channel=0 note=61 velocity=47 time=0
EXTRACT: note_off channel=11 note=76 velocity=95 time=0
EXTRACT: note_on channel=11 note=83 velocity=95 time=0
EXTRACT: note_off channel=7 note=57 velocity=95 time=0
EXTRACT: note_off channel=7 note=52 velocity=95 time=0
EXTRACT: note_off channel=7 note=45 velocity=95 time=0
EXTRACT: note_on channel=7 note=52 velocity=95 time=0
EXTRACT: note_on channel=7 note=45 velocity=95 time=0
EXTRACT: pitchwheel channel=14 pitch=0 time=0
EXTRACT: note_off channel=9 note=42 velocity=95 time=0
EXTRACT: note_off channel=9 note=43 velocity=95 time=0
EXTRACT: note_on channel=9 note=42 velocity=95 time=0
EXTRACT: note_on channel=9 note=36 velocity=95 time=0
EXTRACT: pitchwheel channel=14 pitch=128 time=0.08695649999999999
EXTRACT: pitchwheel channel=14 pitch=0 time=0.08695649999999999
EXTRACT: note_off channel=0 note=69 velocity=47 time=0.08695649999999999
EXTRACT: note_off channel=0 note=61 velocity=47 time=0
EXTRACT: note_on channel=0 note=57 velocity=47 time=0
EXTRACT: note_off channel=7 note=52 velocity=95 time=0
EXTRACT: note_off channel=7 note=45 velocity=95 time=0
EXTRACT: note_on channel=7 note=52 velocity=95 time=0
EXTRACT: note_on channel=7 note=45 velocity=95 time=0
EXTRACT: pitchwheel channel=14 pitch=128 time=0
EXTRACT: pitchwheel channel=14 pitch=0 time=0.08695649999999999
EXTRACT: pitchwheel channel=14 pitch=128 time=0.08695649999999999
EXTRACT: note_off channel=0 note=57 velocity=47 time=0.08695649999999999
EXTRACT: note_on channel=0 note=69 velocity=63 time=0
EXTRACT: note_on channel=0 note=61 velocity=63 time=0
EXTRACT: note_off channel=11 note=83 velocity=95 time=0
EXTRACT: note_on channel=11 note=83 velocity=95 time=0
EXTRACT: note_off channel=7 note=52 velocity=95 time=0
EXTRACT: note_off channel=7 note=45 velocity=95 time=0
EXTRACT: note_on channel=7 note=54 velocity=95 time=0
EXTRACT: note_on channel=7 note=45 velocity=95 time=0
EXTRACT: pitchwheel channel=14 pitch=0 time=0
EXTRACT: note_off channel=9 note=42 velocity=95 time=0
EXTRACT: note_off channel=9 note=36 velocity=95 time=0
EXTRACT: note_on channel=9 note=46 velocity=63 time=0
EXTRACT: note_on channel=9 note=40 velocity=95 time=0
EXTRACT: pitchwheel channel=14 pitch=128 time=0.08695649999999999
EXTRACT: pitchwheel channel=14 pitch=0 time=0.08695649999999999
EXTRACT: note_off channel=0 note=69 velocity=63 time=0.08695649999999999
EXTRACT: note_off channel=0 note=61 velocity=63 time=0
EXTRACT: note_on channel=0 note=57 velocity=47 time=0
EXTRACT: note_off channel=11 note=83 velocity=95 time=0
EXTRACT: note_on channel=11 note=80 velocity=95 time=0
EXTRACT: note_off channel=7 note=54 velocity=95 time=0
EXTRACT: note_off channel=7 note=45 velocity=95 time=0
EXTRACT: note_on channel=7 note=52 velocity=95 time=0
EXTRACT: note_on channel=7 note=45 velocity=95 time=0
EXTRACT: pitchwheel channel=14 pitch=128 time=0
EXTRACT: pitchwheel channel=14 pitch=0 time=0.08695649999999999
EXTRACT: pitchwheel channel=14 pitch=128 time=0.08695649999999999
EXTRACT: note_off channel=0 note=57 velocity=47 time=0.08695649999999999
EXTRACT: note_on channel=0 note=69 velocity=63 time=0
EXTRACT: note_on channel=0 note=61 velocity=47 time=0
EXTRACT: note_off channel=7 note=52 velocity=95 time=0
EXTRACT: note_off channel=7 note=45 velocity=95 time=0
EXTRACT: note_on channel=7 note=52 velocity=95 time=0
EXTRACT: note_on channel=7 note=45 velocity=95 time=0
EXTRACT: pitchwheel channel=14 pitch=0 time=0
EXTRACT: note_off channel=9 note=46 velocity=63 time=0
EXTRACT: note_off channel=9 note=40 velocity=95 time=0
EXTRACT: note_on channel=9 note=42 velocity=95 time=0
EXTRACT: note_on channel=9 note=36 velocity=95 time=0
EXTRACT: pitchwheel channel=14 pitch=128 time=0.08695649999999999
EXTRACT: pitchwheel channel=14 pitch=0 time=0.08695649999999999
EXTRACT: note_off channel=0 note=69 velocity=63 time=0.08695649999999999
EXTRACT: note_off channel=0 note=61 velocity=47 time=0
EXTRACT: note_on channel=0 note=57 velocity=63 time=0
EXTRACT: note_off channel=8 note=33 velocity=95 time=0
EXTRACT: note_on channel=8 note=39 velocity=95 time=0
EXTRACT: note_off channel=11 note=80 velocity=95 time=0
EXTRACT: note_on channel=12 note=78 velocity=95 time=0
EXTRACT: note_off channel=5 note=33 velocity=95 time=0
EXTRACT: note_on channel=5 note=39 velocity=95 time=0
EXTRACT: note_off channel=7 note=52 velocity=95 time=0
EXTRACT: note_off channel=7 note=45 velocity=95 time=0
EXTRACT: note_on channel=7 note=52 velocity=95 time=0
EXTRACT: note_on channel=7 note=45 velocity=95 time=0
EXTRACT: pitchwheel channel=14 pitch=128 time=0
EXTRACT: pitchwheel channel=14 pitch=0 time=0
EXTRACT: note_off channel=14 note=45 velocity=95 time=0
EXTRACT: note_on channel=13 note=51 velocity=95 time=0
EXTRACT: note_off channel=9 note=42 velocity=95 time=0
EXTRACT: note_off channel=9 note=36 velocity=95 time=0
EXTRACT: note_on channel=9 note=53 velocity=95 time=0
EXTRACT: note_on channel=9 note=45 velocity=95 time=0
EXTRACT: pitchwheel channel=12 pitch=0 time=0.08695649999999999
EXTRACT: pitchwheel channel=12 pitch=128 time=0.08695649999999999
EXTRACT: note_off channel=0 note=57 velocity=63 time=0.08695649999999999
EXTRACT: note_on channel=0 note=69 velocity=63 time=0
EXTRACT: note_on channel=0 note=61 velocity=47 time=0
EXTRACT: note_off channel=8 note=39 velocity=95 time=0
EXTRACT: note_on channel=8 note=40 velocity=95 time=0
EXTRACT: pitchwheel channel=12 pitch=0 time=0
EXTRACT: note_off channel=5 note=39 velocity=95 time=0
EXTRACT: note_on channel=5 note=40 velocity=95 time=0
EXTRACT: note_off channel=7 note=52 velocity=95 time=0
EXTRACT: note_off channel=7 note=45 velocity=95 time=0
EXTRACT: note_on channel=7 note=52 velocity=95 time=0
EXTRACT: note_on channel=7 note=45 velocity=95 time=0
EXTRACT: note_off channel=13 note=51 velocity=95 time=0
EXTRACT: note_on channel=13 note=52 velocity=95 time=0
EXTRACT: note_off channel=9 note=53 velocity=95 time=0
EXTRACT: note_off channel=9 note=45 velocity=95 time=0
EXTRACT: note_on channel=9 note=42 velocity=95 time=0
EXTRACT: note_on channel=9 note=36 velocity=95 time=0
EXTRACT: pitchwheel channel=12 pitch=128 time=0.08695649999999999
EXTRACT: pitchwheel channel=12 pitch=0 time=0.08695649999999999
EXTRACT: note_off channel=0 note=69 velocity=63 time=0.08695649999999999
EXTRACT: note_off channel=0 note=61 velocity=47 time=0
EXTRACT: note_on channel=0 note=57 velocity=47 time=0
EXTRACT: pitchwheel channel=12 pitch=128 time=0
EXTRACT: note_off channel=7 note=52 velocity=95 time=0
EXTRACT: note_off channel=7 note=45 velocity=95 time=0
EXTRACT: note_on channel=7 note=64 velocity=95 time=0
EXTRACT: note_on channel=7 note=59 velocity=95 time=0
EXTRACT: note_on channel=7 note=52 velocity=95 time=0
EXTRACT: note_off channel=13 note=52 velocity=95 time=0
EXTRACT: note_on channel=13 note=40 velocity=95 time=0
EXTRACT: note_off channel=9 note=42 velocity=95 time=0
EXTRACT: note_off channel=9 note=36 velocity=95 time=0
EXTRACT: note_on channel=9 note=43 velocity=95 time=0
EXTRACT: pitchwheel channel=12 pitch=0 time=0.08695649999999999
EXTRACT: pitchwheel channel=12 pitch=128 time=0.08695649999999999
EXTRACT: note_off channel=0 note=57 velocity=47 time=0.08695649999999999
EXTRACT: note_on channel=0 note=71 velocity=47 time=0
EXTRACT: note_on channel=0 note=64 velocity=47 time=0
EXTRACT: note_off channel=8 note=40 velocity=95 time=0
EXTRACT: note_on channel=8 note=40 velocity=95 time=0
EXTRACT: note_on channel=8 note=28 velocity=95 time=0
EXTRACT: pitchwheel channel=12 pitch=0 time=0
EXTRACT: pitchwheel channel=12 pitch=128 time=0
EXTRACT: pitchwheel channel=12 pitch=0 time=0
EXTRACT: note_off channel=12 note=78 velocity=95 time=0
EXTRACT: note_off channel=5 note=40 velocity=95 time=0
EXTRACT: note_on channel=5 note=28 velocity=95 time=0
EXTRACT: note_off channel=7 note=64 velocity=95 time=0
EXTRACT: note_off channel=7 note=59 velocity=95 time=0
EXTRACT: note_off channel=7 note=52 velocity=95 time=0
EXTRACT: note_on channel=7 note=47 velocity=95 time=0
EXTRACT: note_on channel=7 note=40 velocity=95 time=0
EXTRACT: note_off channel=9 note=43 velocity=95 time=0
EXTRACT: note_on channel=9 note=49 velocity=95 time=0
EXTRACT: note_on channel=9 note=57 velocity=95 time=0
EXTRACT: note_on channel=9 note=36 velocity=95 time=0
EXTRACT: note_off channel=0 note=71 velocity=47 time=0.2608695
EXTRACT: note_off channel=0 note=64 velocity=47 time=0
EXTRACT: note_on channel=0 note=59 velocity=95 time=0
EXTRACT: note_off channel=7 note=47 velocity=95 time=0
EXTRACT: note_off channel=7 note=40 velocity=95 time=0
EXTRACT: note_on channel=7 note=47 velocity=95 time=0
EXTRACT: note_on channel=7 note=40 velocity=95 time=0
EXTRACT: note_off channel=0 note=59 velocity=95 time=0.2608695
EXTRACT: note_on channel=0 note=71 velocity=47 time=0
EXTRACT: note_on channel=0 note=64 velocity=63 time=0
EXTRACT: note_on channel=11 note=80 velocity=95 time=0
EXTRACT: note_off channel=7 note=47 velocity=95 time=0
EXTRACT: note_off channel=7 note=40 velocity=95 time=0
EXTRACT: note_on channel=7 note=49 velocity=95 time=0
EXTRACT: note_on channel=7 note=40 velocity=95 time=0
EXTRACT: note_off channel=13 note=40 velocity=95 time=0
EXTRACT: note_on channel=13 note=64 velocity=95 time=0
EXTRACT: note_on channel=13 note=59 velocity=95 time=0
EXTRACT: note_off channel=9 note=49 velocity=95 time=0
EXTRACT: note_off channel=9 note=57 velocity=95 time=0
EXTRACT: note_off channel=9 note=36 velocity=95 time=0
EXTRACT: note_on channel=9 note=46 velocity=63 time=0
EXTRACT: note_on channel=9 note=40 velocity=95 time=0
EXTRACT: note_off channel=0 note=71 velocity=47 time=0.2608695
EXTRACT: note_off channel=0 note=64 velocity=63 time=0
EXTRACT: note_on channel=0 note=59 velocity=95 time=0
EXTRACT: note_off channel=11 note=80 velocity=95 time=0
EXTRACT: note_on channel=11 note=83 velocity=95 time=0
EXTRACT: note_off channel=7 note=49 velocity=95 time=0
EXTRACT: note_off channel=7 note=40 velocity=95 time=0
EXTRACT: note_on channel=7 note=49 velocity=95 time=0
EXTRACT: note_on channel=7 note=40 velocity=95 time=0
EXTRACT: note_off channel=0 note=59 velocity=95 time=0.2608695
EXTRACT: note_on channel=0 note=71 velocity=47 time=0
EXTRACT: note_on channel=0 note=64 velocity=63 time=0
EXTRACT: note_off channel=11 note=83 velocity=95 time=0
EXTRACT: note_on channel=11 note=85 velocity=127 time=0
EXTRACT: note_off channel=7 note=49 velocity=95 time=0
EXTRACT: note_off channel=7 note=40 velocity=95 time=0
EXTRACT: note_on channel=7 note=47 velocity=95 time=0
EXTRACT: note_on channel=7 note=40 velocity=95 time=0
EXTRACT: note_off channel=13 note=64 velocity=95 time=0
EXTRACT: note_off channel=13 note=59 velocity=95 time=0
EXTRACT: note_on channel=13 note=40 velocity=95 time=0
EXTRACT: note_off channel=9 note=46 velocity=63 time=0
EXTRACT: note_off channel=9 note=40 velocity=95 time=0
EXTRACT: note_on channel=9 note=42 velocity=95 time=0
EXTRACT: note_on channel=9 note=36 velocity=95 time=0
EXTRACT: note_off channel=0 note=71 velocity=47 time=0.2608695
EXTRACT: note_off channel=0 note=64 velocity=63 time=0
EXTRACT: note_on channel=0 note=59 velocity=95 time=0
EXTRACT: note_off channel=8 note=40 velocity=95 time=0
EXTRACT: note_off channel=8 note=28 velocity=95 time=0
EXTRACT: note_on channel=8 note=30 velocity=95 time=0
EXTRACT: note_off channel=11 note=85 velocity=127 time=0
EXTRACT: note_on channel=11 note=80 velocity=95 time=0
EXTRACT: note_off channel=5 note=28 velocity=95 time=0
EXTRACT: note_on channel=5 note=30 velocity=95 time=0
EXTRACT: note_off channel=7 note=47 velocity=95 time=0
EXTRACT: note_off channel=7 note=40 velocity=95 time=0
EXTRACT: note_on channel=7 note=47 velocity=95 time=0
EXTRACT: note_on channel=7 note=40 velocity=95 time=0
EXTRACT: note_off channel=13 note=40 velocity=95 time=0
EXTRACT: note_on channel=13 note=42 velocity=95 time=0
EXTRACT: note_off channel=9 note=42 velocity=95 time=0
EXTRACT: note_off channel=9 note=36 velocity=95 time=0
EXTRACT: note_on channel=9 note=53 velocity=95 time=0
EXTRACT: note_off channel=0 note=59 velocity=95 time=0.2608695
EXTRACT: note_on channel=0 note=71 velocity=47 time=0
EXTRACT: note_on channel=0 note=64 velocity=63 time=0
EXTRACT: note_off channel=8 note=30 velocity=95 time=0
EXTRACT: note_on channel=8 note=32 velocity=95 time=0
EXTRACT: note_off channel=5 note=30 velocity=95 time=0
EXTRACT: note_on channel=5 note=32 velocity=95 time=0
EXTRACT: note_off channel=7 note=47 velocity=95 time=0
EXTRACT: note_off channel=7 note=40 velocity=95 time=0
EXTRACT: note_on channel=7 note=47 velocity=95 time=0
EXTRACT: note_on channel=7 note=40 velocity=95 time=0
EXTRACT: note_off channel=13 note=42 velocity=95 time=0
EXTRACT: note_on channel=13 note=44 velocity=95 time=0
EXTRACT: note_off channel=9 note=53 velocity=95 time=0
EXTRACT: note_on channel=9 note=42 velocity=95 time=0
EXTRACT: note_on channel=9 note=43 velocity=95 time=0
EXTRACT: note_off channel=0 note=71 velocity=47 time=0.2608695
EXTRACT: note_off channel=0 note=64 velocity=63 time=0
EXTRACT: note_on channel=0 note=59 velocity=95 time=0
EXTRACT: note_off channel=8 note=32 velocity=95 time=0
EXTRACT: note_on channel=8 note=47 velocity=95 time=0
EXTRACT: note_on channel=8 note=35 velocity=95 time=0
EXTRACT: note_off channel=11 note=80 velocity=95 time=0
EXTRACT: note_on channel=11 note=80 velocity=95 time=0
EXTRACT: note_off channel=5 note=32 velocity=95 time=0
EXTRACT: note_on channel=5 note=35 velocity=95 time=0
EXTRACT: note_off channel=7 note=47 velocity=95 time=0
EXTRACT: note_off channel=7 note=40 velocity=95 time=0
EXTRACT: note_on channel=7 note=54 velocity=95 time=0
EXTRACT: note_on channel=7 note=47 velocity=95 time=0
EXTRACT: note_off channel=13 note=44 velocity=95 time=0
EXTRACT: note_on channel=14 note=47 velocity=95 time=0
EXTRACT: pitchwheel channel=14 pitch=0 time=0.08695649999999999
EXTRACT: pitchwheel channel=14 pitch=128 time=0.08695649999999999
EXTRACT: note_off channel=0 note=59 velocity=95 time=0.08695649999999999
EXTRACT: note_on channel=0 note=71 velocity=47 time=0
EXTRACT: note_on channel=0 note=66 velocity=47 time=0
EXTRACT: note_off channel=7 note=54 velocity=95 time=0
EXTRACT: note_off channel=7 note=47 velocity=95 time=0
EXTRACT: note_on channel=7 note=54 velocity=95 time=0
EXTRACT: note_on channel=7 note=47 velocity=95 time=0
EXTRACT: pitchwheel channel=14 pitch=0 time=0
EXTRACT: note_off channel=9 note=42 velocity=95 time=0
EXTRACT: note_off channel=9 note=43 velocity=95 time=0
EXTRACT: note_on channel=9 note=42 velocity=95 time=0
EXTRACT: note_on channel=9 note=36 velocity=95 time=0
EXTRACT: pitchwheel channel=14 pitch=128 time=0.08695649999999999
EXTRACT: pitchwheel channel=14 pitch=0 time=0.08695649999999999
EXTRACT: note_off channel=0 note=71 velocity=47 time=0.08695649999999999
EXTRACT: note_off channel=0 note=66 velocity=47 time=0
EXTRACT: note_on channel=0 note=59 velocity=95 time=0
EXTRACT: note_off channel=11 note=80 velocity=95 time=0
EXTRACT: note_on channel=11 note=78 velocity=95 time=0
EXTRACT: note_off channel=7 note=54 velocity=95 time=0
EXTRACT: note_off channel=7 note=47 velocity=95 time=0
EXTRACT: note_on channel=7 note=54 velocity=95 time=0
EXTRACT: note_on channel=7 note=47 velocity=95 time=0
EXTRACT: pitchwheel channel=14 pitch=128 time=0
EXTRACT: pitchwheel channel=14 pitch=0 time=0.08695649999999999
EXTRACT: pitchwheel channel=14 pitch=128 time=0.08695649999999999
EXTRACT: note_off channel=0 note=59 velocity=95 time=0.08695649999999999
EXTRACT: note_on channel=0 note=71 velocity=47 time=0
EXTRACT: note_on channel=0 note=66 velocity=47 time=0
EXTRACT: note_off channel=7 note=54 velocity=95 time=0
EXTRACT: note_off channel=7 note=47 velocity=95 time=0
EXTRACT: note_on channel=7 note=56 velocity=95 time=0
EXTRACT: note_on channel=7 note=47 velocity=95 time=0
EXTRACT: pitchwheel channel=14 pitch=0 time=0
EXTRACT: note_off channel=9 note=42 velocity=95 time=0
EXTRACT: note_off channel=9 note=36 velocity=95 time=0
EXTRACT: note_on channel=9 note=46 velocity=63 time=0
EXTRACT: note_on channel=9 note=40 velocity=95 time=0
EXTRACT: pitchwheel channel=14 pitch=128 time=0.08695649999999999
EXTRACT: pitchwheel channel=14 pitch=0 time=0.08695649999999999
EXTRACT: note_off channel=0 note=71 velocity=47 time=0.08695649999999999
EXTRACT: note_off channel=0 note=66 velocity=47 time=0
EXTRACT: note_on channel=0 note=59 velocity=95 time=0
EXTRACT: note_off channel=11 note=78 velocity=95 time=0
EXTRACT: note_on channel=11 note=78 velocity=95 time=0
EXTRACT: note_off channel=7 note=56 velocity=95 time=0
EXTRACT: note_off channel=7 note=47 velocity=95 time=0
EXTRACT: note_on channel=7 note=54 velocity=95 time=0
EXTRACT: note_on channel=7 note=47 velocity=95 time=0
EXTRACT: pitchwheel channel=14 pitch=128 time=0
EXTRACT: pitchwheel channel=14 pitch=0 time=0.08695649999999999
EXTRACT: note_off channel=11 note=78 velocity=95 time=0.043478249999999996
EXTRACT: note_on channel=11 note=76 velocity=95 time=0
EXTRACT: pitchwheel channel=14 pitch=128 time=0.043478249999999996
EXTRACT: note_off channel=0 note=59 velocity=95 time=0.08695649999999999
EXTRACT: note_on channel=0 note=71 velocity=63 time=0
EXTRACT: note_on channel=0 note=66 velocity=47 time=0
EXTRACT: note_off channel=7 note=54 velocity=95 time=0
EXTRACT: note_off channel=7 note=47 velocity=95 time=0
EXTRACT: note_on channel=7 note=54 velocity=95 time=0
EXTRACT: note_on channel=7 note=47 velocity=95 time=0
EXTRACT: pitchwheel channel=14 pitch=0 time=0
EXTRACT: note_off channel=9 note=46 velocity=63 time=0
EXTRACT: note_off channel=9 note=40 velocity=95 time=0
EXTRACT: note_on channel=9 note=42 velocity=95 time=0
EXTRACT: note_on channel=9 note=36 velocity=95 time=0
EXTRACT: pitchwheel channel=14 pitch=128 time=0.08695649999999999
EXTRACT: pitchwheel channel=14 pitch=0 time=0.08695649999999999
EXTRACT: note_off channel=0 note=71 velocity=63 time=0.08695649999999999
EXTRACT: note_off channel=0 note=66 velocity=47 time=0
EXTRACT: note_on channel=0 note=59 velocity=95 time=0
EXTRACT: note_off channel=8 note=47 velocity=95 time=0
EXTRACT: note_off channel=8 note=35 velocity=95 time=0
EXTRACT: note_on channel=8 note=37 velocity=95 time=0
EXTRACT: note_off channel=5 note=35 velocity=95 time=0
EXTRACT: note_on channel=5 note=37 velocity=95 time=0
EXTRACT: note_off channel=7 note=54 velocity=95 time=0
EXTRACT: note_off channel=7 note=47 velocity=95 time=0
EXTRACT: note_on channel=7 note=54 velocity=95 time=0
EXTRACT: note_on channel=7 note=47 velocity=95 time=0
EXTRACT: pitchwheel channel=14 pitch=128 time=0
EXTRACT: pitchwheel channel=14 pitch=0 time=0
EXTRACT: note_off channel=14 note=47 velocity=95 time=0
EXTRACT: note_on channel=13 note=49 velocity=95 time=0
EXTRACT: note_off channel=9 note=42 velocity=95 time=0
EXTRACT: note_off channel=9 note=36 velocity=95 time=0
EXTRACT: note_on channel=9 note=53 velocity=95 time=0
EXTRACT: note_on channel=9 note=45 velocity=95 time=0
EXTRACT: note_off channel=11 note=76 velocity=95 time=0.08695649999999999
EXTRACT: note_on channel=11 note=76 velocity=95 time=0
EXTRACT: note_off channel=0 note=59 velocity=95 time=0.17391299999999998
EXTRACT: note_on channel=0 note=71 velocity=47 time=0
EXTRACT: note_on channel=0 note=66 velocity=47 time=0
EXTRACT: note_off channel=8 note=37 velocity=95 time=0
EXTRACT: note_on channel=8 note=39 velocity=95 time=0
EXTRACT: note_off channel=5 note=37 velocity=95 time=0
EXTRACT: note_on channel=5 note=39 velocity=95 time=0
EXTRACT: note_off channel=7 note=54 velocity=95 time=0
EXTRACT: note_off channel=7 note=47 velocity=95 time=0
EXTRACT: note_on channel=7 note=54 velocity=95 time=0
EXTRACT: note_on channel=7 note=47 velocity=95 time=0
EXTRACT: note_off channel=13 note=49 velocity=95 time=0
EXTRACT: note_on channel=13 note=51 velocity=95 time=0
EXTRACT: note_off channel=9 note=53 velocity=95 time=0
EXTRACT: note_off channel=9 note=45 velocity=95 time=0
EXTRACT: note_on channel=9 note=42 velocity=95 time=0
EXTRACT: note_on channel=9 note=36 velocity=95 time=0
EXTRACT: note_off channel=11 note=76 velocity=95 time=0.17391299999999998
EXTRACT: note_on channel=11 note=76 velocity=95 time=0
EXTRACT: note_off channel=0 note=71 velocity=47 time=0.08695649999999999
EXTRACT: note_off channel=0 note=66 velocity=47 time=0
EXTRACT: note_on channel=0 note=59 velocity=95 time=0
EXTRACT: note_off channel=8 note=39 velocity=95 time=0
EXTRACT: note_on channel=8 note=37 velocity=95 time=0
EXTRACT: note_off channel=5 note=39 velocity=95 time=0
EXTRACT: note_on channel=5 note=37 velocity=95 time=0
EXTRACT: note_off channel=7 note=54 velocity=95 time=0
EXTRACT: note_off channel=7 note=47 velocity=95 time=0
EXTRACT: note_on channel=7 note=61 velocity=95 time=0
EXTRACT: note_on channel=7 note=56 velocity=95 time=0
EXTRACT: note_on channel=7 note=49 velocity=95 time=0
EXTRACT: note_off channel=13 note=51 velocity=95 time=0
EXTRACT: note_on channel=13 note=51 velocity=95 time=0
EXTRACT: note_on channel=13 note=44 velocity=95 time=0
EXTRACT: note_off channel=9 note=42 velocity=95 time=0
EXTRACT: note_off channel=9 note=36 velocity=95 time=0
EXTRACT: note_on channel=9 note=43 velocity=95 time=0
EXTRACT: note_off channel=0 note=59 velocity=95 time=0.2608695
EXTRACT: note_on channel=0 note=71 velocity=63 time=0
EXTRACT: note_on channel=0 note=64 velocity=47 time=0
EXTRACT: note_off channel=11 note=76 velocity=95 time=0
EXTRACT: note_on channel=11 note=78 velocity=95 time=0
EXTRACT: note_off channel=7 note=61 velocity=95 time=0
EXTRACT: note_off channel=7 note=56 velocity=95 time=0
EXTRACT: note_off channel=7 note=49 velocity=95 time=0
EXTRACT: note_on channel=7 note=56 velocity=95 time=0
EXTRACT: note_on channel=7 note=49 velocity=95 time=0
EXTRACT: note_off channel=13 note=51 velocity=95 time=0
EXTRACT: note_off channel=9 note=43 velocity=95 time=0
EXTRACT: note_on channel=9 note=49 velocity=95 time=0
EXTRACT: note_on channel=9 note=57 velocity=95 time=0
EXTRACT: note_on channel=9 note=36 velocity=95 time=0
EXTRACT: note_off channel=0 note=71 velocity=63 time=0.2608695
EXTRACT: note_off channel=0 note=64 velocity=47 time=0
EXTRACT: note_on channel=0 note=59 velocity=47 time=0
EXTRACT: note_off channel=7 note=56 velocity=95 time=0
EXTRACT: note_off channel=7 note=49 velocity=95 time=0
EXTRACT: note_on channel=7 note=56 velocity=95 time=0
EXTRACT: note_on channel=7 note=49 velocity=95 time=0
EXTRACT: note_off channel=0 note=59 velocity=47 time=0.2608695
EXTRACT: note_on channel=0 note=71 velocity=63 time=0
EXTRACT: note_on channel=0 note=64 velocity=63 time=0
EXTRACT: note_off channel=11 note=78 velocity=95 time=0
EXTRACT: note_on channel=11 note=80 velocity=95 time=0
EXTRACT: note_off channel=7 note=56 velocity=95 time=0
EXTRACT: note_off channel=7 note=49 velocity=95 time=0
EXTRACT: note_on channel=7 note=56 velocity=95 time=0
EXTRACT: note_on channel=7 note=49 velocity=95 time=0
EXTRACT: note_off channel=9 note=49 velocity=95 time=0
EXTRACT: note_off channel=9 note=57 velocity=95 time=0
EXTRACT: note_off channel=9 note=36 velocity=95 time=0
EXTRACT: note_on channel=9 note=46 velocity=63 time=0
EXTRACT: note_on channel=9 note=40 velocity=95 time=0
EXTRACT: note_off channel=0 note=71 velocity=63 time=0.2608695
EXTRACT: note_off channel=0 note=64 velocity=63 time=0
EXTRACT: note_on channel=0 note=59 velocity=47 time=0
EXTRACT: note_off channel=11 note=80 velocity=95 time=0
EXTRACT: note_on channel=11 note=78 velocity=95 time=0
EXTRACT: note_off channel=7 note=56 velocity=95 time=0
EXTRACT: note_off channel=7 note=49 velocity=95 time=0
EXTRACT: note_on channel=7 note=56 velocity=95 time=0
EXTRACT: note_on channel=7 note=49 velocity=95 time=0
EXTRACT: note_off channel=0 note=59 velocity=47 time=0.2608695
EXTRACT: note_on channel=0 note=71 velocity=63 time=0
EXTRACT: note_on channel=0 note=64 velocity=63 time=0
EXTRACT: note_off channel=7 note=56 velocity=95 time=0
EXTRACT: note_off channel=7 note=49 velocity=95 time=0
EXTRACT: note_on channel=7 note=56 velocity=95 time=0
EXTRACT: note_on channel=7 note=49 velocity=95 time=0
EXTRACT: note_off channel=9 note=46 velocity=63 time=0
EXTRACT: note_off channel=9 note=40 velocity=95 time=0
EXTRACT: note_on channel=9 note=42 velocity=95 time=0
EXTRACT: note_on channel=9 note=36 velocity=95 time=0
EXTRACT: note_off channel=0 note=71 velocity=63 time=0.2608695
EXTRACT: note_off channel=0 note=64 velocity=63 time=0
EXTRACT: note_on channel=0 note=59 velocity=47 time=0
EXTRACT: note_off channel=8 note=37 velocity=95 time=0
EXTRACT: note_on channel=8 note=39 velocity=95 time=0
EXTRACT: note_off channel=5 note=37 velocity=95 time=0
EXTRACT: note_on channel=5 note=39 velocity=95 time=0
EXTRACT: note_off channel=7 note=56 velocity=95 time=0
EXTRACT: note_off channel=7 note=49 velocity=95 time=0
EXTRACT: note_on channel=7 note=56 velocity=95 time=0
EXTRACT: note_on channel=7 note=49 velocity=95 time=0
EXTRACT: note_off channel=9 note=42 velocity=95 time=0
EXTRACT: note_off channel=9 note=36 velocity=95 time=0
EXTRACT: note_on channel=9 note=53 velocity=95 time=0
EXTRACT: note_off channel=0 note=59 velocity=47 time=0.2608695
EXTRACT: note_on channel=0 note=71 velocity=63 time=0
EXTRACT: note_on channel=0 note=64 velocity=47 time=0
EXTRACT: note_off channel=8 note=39 velocity=95 time=0
EXTRACT: note_on channel=8 note=40 velocity=95 time=0
EXTRACT: note_off channel=11 note=78 velocity=95 time=0
EXTRACT: note_on channel=11 note=80 velocity=95 time=0
EXTRACT: note_off channel=5 note=39 velocity=95 time=0
EXTRACT: note_on channel=5 note=40 velocity=95 time=0
EXTRACT: note_off channel=7 note=56 velocity=95 time=0
EXTRACT: note_off channel=7 note=49 velocity=95 time=0
EXTRACT: note_on channel=7 note=56 velocity=95 time=0
EXTRACT: note_on channel=7 note=49 velocity=95 time=0
EXTRACT: note_off channel=13 note=44 velocity=95 time=0
EXTRACT: note_on channel=13 note=51 velocity=95 time=0
EXTRACT: note_on channel=13 note=44 velocity=95 time=0
EXTRACT: note_off channel=9 note=53 velocity=95 time=0
EXTRACT: note_on channel=9 note=42 velocity=95 time=0
EXTRACT: note_on channel=9 note=43 velocity=95 time=0
EXTRACT: note_off channel=0 note=71 velocity=63 time=0.2608695
EXTRACT: note_off channel=0 note=64 velocity=47 time=0
EXTRACT: note_on channel=0 note=59 velocity=47 time=0
EXTRACT: note_off channel=8 note=40 velocity=95 time=0
EXTRACT: note_on channel=8 note=33 velocity=95 time=0
EXTRACT: note_off channel=11 note=80 velocity=95 time=0
EXTRACT: note_on channel=11 note=78 velocity=95 time=0
EXTRACT: note_off channel=5 note=40 velocity=95 time=0
EXTRACT: note_on channel=5 note=33 velocity=95 time=0
EXTRACT: note_off channel=7 note=56 velocity=95 time=0
EXTRACT: note_off channel=7 note=49 velocity=95 time=0
EXTRACT: note_on channel=7 note=57 velocity=95 time=0
EXTRACT: note_on channel=7 note=52 velocity=95 time=0
EXTRACT: note_on channel=7 note=45 velocity=95 time=0
EXTRACT: note_off channel=13 note=51 velocity=95 time=0
EXTRACT: note_off channel=13 note=44 velocity=95 time=0
EXTRACT: note_on channel=13 note=52 velocity=95 time=0
EXTRACT: note_on channel=13 note=45 velocity=95 time=0
EXTRACT: note_off channel=9 note=42 velocity=95 time=0
EXTRACT: note_off channel=9 note=43 velocity=95 time=0
EXTRACT: note_on channel=9 note=46 velocity=95 time=0
EXTRACT: note_off channel=0 note=59 velocity=47 time=0.2608695
EXTRACT: note_on channel=0 note=69 velocity=47 time=0
EXTRACT: note_on channel=0 note=61 velocity=47 time=0
EXTRACT: note_off channel=7 note=57 velocity=95 time=0
EXTRACT: note_off channel=7 note=52 velocity=95 time=0
EXTRACT: note_off channel=7 note=45 velocity=95 time=0
EXTRACT: note_on channel=7 note=52 velocity=95 time=0
EXTRACT: note_on channel=7 note=45 velocity=95 time=0
EXTRACT: note_off channel=9 note=46 velocity=95 time=0
EXTRACT: note_on channel=9 note=41 velocity=31 time=0
EXTRACT: note_on channel=9 note=40 velocity=31 time=0
EXTRACT: note_on channel=9 note=36 velocity=31 time=0
EXTRACT: note_off channel=0 note=69 velocity=47 time=0.2608695
EXTRACT: note_off channel=0 note=61 velocity=47 time=0
EXTRACT: note_on channel=0 note=57 velocity=47 time=0
EXTRACT: note_off channel=7 note=52 velocity=95 time=0
EXTRACT: note_off channel=7 note=45 velocity=95 time=0
EXTRACT: note_on channel=7 note=52 velocity=95 time=0
EXTRACT: note_on channel=7 note=45 velocity=95 time=0
EXTRACT: note_off channel=9 note=41 velocity=31 time=0
EXTRACT: note_off channel=9 note=40 velocity=31 time=0
EXTRACT: note_off channel=9 note=36 velocity=31 time=0
EXTRACT: note_on channel=9 note=41 velocity=47 time=0
EXTRACT: note_on channel=9 note=40 velocity=47 time=0
EXTRACT: note_on channel=9 note=36 velocity=47 time=0
EXTRACT: note_off channel=0 note=57 velocity=47 time=0.2608695
EXTRACT: note_on channel=0 note=69 velocity=63 time=0
EXTRACT: note_on channel=0 note=61 velocity=63 time=0
EXTRACT: note_off channel=11 note=78 velocity=95 time=0
EXTRACT: note_on channel=11 note=80 velocity=95 time=0
EXTRACT: note_off channel=7 note=52 velocity=95 time=0
EXTRACT: note_off channel=7 note=45 velocity=95 time=0
EXTRACT: note_on channel=7 note=54 velocity=95 time=0
EXTRACT: note_on channel=7 note=45 velocity=95 time=0
EXTRACT: note_off channel=9 note=41 velocity=47 time=0
EXTRACT: note_off channel=9 note=40 velocity=47 time=0
EXTRACT: note_off channel=9 note=36 velocity=47 time=0
EXTRACT: note_on channel=9 note=41 velocity=63 time=0
EXTRACT: note_on channel=9 note=40 velocity=63 time=0
EXTRACT: note_on channel=9 note=36 velocity=63 time=0
EXTRACT: note_off channel=0 note=69 velocity=63 time=0.2608695
EXTRACT: note_off channel=0 note=61 velocity=63 time=0
EXTRACT: note_on channel=0 note=57 velocity=47 time=0
EXTRACT: note_off channel=11 note=80 velocity=95 time=0
EXTRACT: note_on channel=11 note=78 velocity=95 time=0
EXTRACT: note_off channel=7 note=54 velocity=95 time=0
EXTRACT: note_off channel=7 note=45 velocity=95 time=0
EXTRACT: note_on channel=7 note=52 velocity=95 time=0
EXTRACT: note_on channel=7 note=45 velocity=95 time=0
EXTRACT: note_off channel=9 note=41 velocity=63 time=0
EXTRACT: note_off channel=9 note=40 velocity=63 time=0
EXTRACT: note_off channel=9 note=36 velocity=63 time=0
EXTRACT: note_on channel=9 note=41 velocity=79 time=0
EXTRACT: note_on channel=9 note=40 velocity=79 time=0
EXTRACT: note_on channel=9 note=36 velocity=79 time=0
EXTRACT: note_off channel=11 note=78 velocity=95 time=0.13043475
EXTRACT: note_on channel=11 note=80 velocity=95 time=0
EXTRACT: note_off channel=0 note=57 velocity=47 time=0.13043475
EXTRACT: note_on channel=0 note=69 velocity=63 time=0
EXTRACT: note_on channel=0 note=61 velocity=47 time=0
EXTRACT: note_off channel=11 note=80 velocity=95 time=0
EXTRACT: note_on channel=11 note=78 velocity=95 time=0
EXTRACT: note_off channel=7 note=52 velocity=95 time=0
EXTRACT: note_off channel=7 note=45 velocity=95 time=0
EXTRACT: note_on channel=7 note=52 velocity=95 time=0
EXTRACT: note_on channel=7 note=45 velocity=95 time=0
EXTRACT: note_off channel=9 note=41 velocity=79 time=0
EXTRACT: note_off channel=9 note=40 velocity=79 time=0
EXTRACT: note_off channel=9 note=36 velocity=79 time=0
EXTRACT: note_on channel=9 note=41 velocity=95 time=0
EXTRACT: note_on channel=9 note=40 velocity=95 time=0
EXTRACT: note_on channel=9 note=36 velocity=95 time=0
EXTRACT: note_off channel=11 note=78 velocity=95 time=0.13043475
EXTRACT: note_on channel=11 note=76 velocity=95 time=0
EXTRACT: note_off channel=0 note=69 velocity=63 time=0.13043475
EXTRACT: note_off channel=0 note=61 velocity=47 time=0
EXTRACT: note_on channel=0 note=57 velocity=63 time=0
EXTRACT: note_off channel=8 note=33 velocity=95 time=0
EXTRACT: note_on channel=8 note=39 velocity=95 time=0
EXTRACT: note_off channel=5 note=33 velocity=95 time=0
EXTRACT: note_on channel=5 note=39 velocity=95 time=0
EXTRACT: note_off channel=7 note=52 velocity=95 time=0
EXTRACT: note_off channel=7 note=45 velocity=95 time=0
EXTRACT: note_on channel=7 note=52 velocity=95 time=0
EXTRACT: note_on channel=7 note=45 velocity=95 time=0
EXTRACT: note_off channel=13 note=52 velocity=95 time=0
EXTRACT: note_off channel=13 note=45 velocity=95 time=0
EXTRACT: note_on channel=13 note=51 velocity=95 time=0
EXTRACT: note_off channel=9 note=41 velocity=95 time=0
EXTRACT: note_off channel=9 note=40 velocity=95 time=0
EXTRACT: note_off channel=9 note=36 velocity=95 time=0
EXTRACT: note_on channel=9 note=41 velocity=111 time=0
EXTRACT: note_on channel=9 note=40 velocity=111 time=0
EXTRACT: note_on channel=9 note=36 velocity=111 time=0
EXTRACT: note_off channel=0 note=57 velocity=63 time=0.2608695
EXTRACT: note_on channel=0 note=69 velocity=63 time=0
EXTRACT: note_on channel=0 note=61 velocity=47 time=0
EXTRACT: note_off channel=8 note=39 velocity=95 time=0
EXTRACT: note_on channel=8 note=40 velocity=95 time=0
EXTRACT: note_off channel=11 note=76 velocity=95 time=0
EXTRACT: note_off channel=5 note=39 velocity=95 time=0
EXTRACT: note_on channel=5 note=40 velocity=95 time=0
EXTRACT: note_off channel=7 note=52 velocity=95 time=0
EXTRACT: note_off channel=7 note=45 velocity=95 time=0
EXTRACT: note_on channel=7 note=52 velocity=95 time=0
EXTRACT: note_on channel=7 note=45 velocity=95 time=0
EXTRACT: note_off channel=13 note=51 velocity=95 time=0
EXTRACT: note_on channel=13 note=52 velocity=95 time=0
EXTRACT: note_off channel=9 note=41 velocity=111 time=0
EXTRACT: note_off channel=9 note=40 velocity=111 time=0
EXTRACT: note_off channel=9 note=36 velocity=111 time=0
EXTRACT: note_on channel=9 note=41 velocity=111 time=0
EXTRACT: note_on channel=9 note=40 velocity=111 time=0
EXTRACT: note_on channel=9 note=36 velocity=111 time=0
EXTRACT: note_off channel=0 note=69 velocity=63 time=0.2608695
EXTRACT: note_off channel=0 note=61 velocity=47 time=0
EXTRACT: note_on channel=0 note=57 velocity=47 time=0
EXTRACT: note_off channel=8 note=40 velocity=95 time=0
EXTRACT: note_on channel=8 note=28 velocity=95 time=0
EXTRACT: note_off channel=5 note=40 velocity=95 time=0
EXTRACT: note_on channel=5 note=28 velocity=95 time=0
EXTRACT: note_off channel=7 note=52 velocity=95 time=0
EXTRACT: note_off channel=7 note=45 velocity=95 time=0
EXTRACT: note_on channel=7 note=64 velocity=95 time=0
EXTRACT: note_on channel=7 note=59 velocity=95 time=0
EXTRACT: note_on channel=7 note=52 velocity=95 time=0
EXTRACT: note_off channel=13 note=52 velocity=95 time=0
EXTRACT: note_on channel=13 note=40 velocity=95 time=0
EXTRACT: note_off channel=9 note=41 velocity=111 time=0
EXTRACT: note_off channel=9 note=40 velocity=111 time=0
EXTRACT: note_off channel=9 note=36 velocity=111 time=0
EXTRACT: note_on channel=9 note=41 velocity=111 time=0
EXTRACT: note_on channel=9 note=40 velocity=111 time=0
EXTRACT: note_on channel=9 note=36 velocity=111 time=0
EXTRACT: note_off channel=0 note=57 velocity=47 time=0.2608695
EXTRACT: note_on channel=0 note=75 velocity=95 time=0
EXTRACT: note_on channel=0 note=71 velocity=95 time=0
EXTRACT: note_on channel=0 note=66 velocity=95 time=0
EXTRACT: note_off channel=8 note=28 velocity=95 time=0
EXTRACT: note_on channel=8 note=33 velocity=95 time=0
EXTRACT: note_on channel=11 note=78 velocity=95 time=0
EXTRACT: note_on channel=11 note=75 velocity=95 time=0
EXTRACT: note_on channel=11 note=71 velocity=95 time=0
EXTRACT: note_off channel=5 note=28 velocity=95 time=0
EXTRACT: note_on channel=5 note=33 velocity=95 time=0
EXTRACT: note_off channel=7 note=64 velocity=95 time=0
EXTRACT: note_off channel=7 note=59 velocity=95 time=0
EXTRACT: note_off channel=7 note=52 velocity=95 time=0
EXTRACT: note_on channel=7 note=75 velocity=95 time=0
EXTRACT: note_on channel=7 note=71 velocity=95 time=0
EXTRACT: note_on channel=7 note=66 velocity=95 time=0
EXTRACT: note_off channel=13 note=40 velocity=95 time=0
EXTRACT: note_off channel=9 note=41 velocity=111 time=0
EXTRACT: note_off channel=9 note=40 velocity=111 time=0
EXTRACT: note_off channel=9 note=36 velocity=111 time=0
EXTRACT: note_on channel=9 note=49 velocity=95 time=0
EXTRACT: note_on channel=9 note=42 velocity=95 time=0
EXTRACT: note_on channel=9 note=36 velocity=95 time=0
EXTRACT: note_off channel=0 note=75 velocity=95 time=0.2608695
EXTRACT: note_off channel=0 note=71 velocity=95 time=0
EXTRACT: note_off channel=0 note=66 velocity=95 time=0
EXTRACT: note_on channel=0 note=45 velocity=95 time=0
EXTRACT: note_off channel=8 note=33 velocity=95 time=0
EXTRACT: note_on channel=8 note=33 velocity=95 time=0
EXTRACT: note_off channel=5 note=33 velocity=95 time=0
EXTRACT: note_on channel=5 note=33 velocity=95 time=0
EXTRACT: note_off channel=7 note=75 velocity=95 time=0
EXTRACT: note_off channel=7 note=71 velocity=95 time=0
EXTRACT: note_off channel=7 note=66 velocity=95 time=0
EXTRACT: note_on channel=7 note=45 velocity=95 time=0
EXTRACT: note_on channel=13 note=45 velocity=95 time=0
EXTRACT: note_off channel=9 note=49 velocity=95 time=0
EXTRACT: note_off channel=9 note=42 velocity=95 time=0
EXTRACT: note_off channel=9 note=36 velocity=95 time=0
EXTRACT: note_on channel=9 note=42 velocity=95 time=0
EXTRACT: note_off channel=0 note=45 velocity=95 time=0.2608695
EXTRACT: note_on channel=0 note=45 velocity=95 time=0
EXTRACT: note_off channel=8 note=33 velocity=95 time=0
EXTRACT: note_on channel=8 note=33 velocity=95 time=0
EXTRACT: note_off channel=5 note=33 velocity=95 time=0
EXTRACT: note_on channel=5 note=33 velocity=95 time=0
EXTRACT: note_off channel=7 note=45 velocity=95 time=0
EXTRACT: note_on channel=7 note=45 velocity=95 time=0
EXTRACT: note_off channel=13 note=45 velocity=95 time=0
EXTRACT: note_on channel=13 note=45 velocity=95 time=0
EXTRACT: note_off channel=9 note=42 velocity=95 time=0
EXTRACT: note_on channel=9 note=42 velocity=95 time=0
EXTRACT: note_on channel=9 note=40 velocity=95 time=0
EXTRACT: note_on channel=0 note=73 velocity=95 time=0.2608695
EXTRACT: note_on channel=0 note=69 velocity=95 time=0
EXTRACT: note_on channel=0 note=64 velocity=95 time=0
EXTRACT: note_off channel=8 note=33 velocity=95 time=0
EXTRACT: note_on channel=8 note=33 velocity=95 time=0
EXTRACT: note_off channel=11 note=78 velocity=95 time=0
EXTRACT: note_off channel=11 note=75 velocity=95 time=0
EXTRACT: note_off channel=11 note=71 velocity=95 time=0
EXTRACT: note_on channel=11 note=76 velocity=95 time=0
EXTRACT: note_on channel=11 note=73 velocity=95 time=0
EXTRACT: note_on channel=11 note=69 velocity=95 time=0
EXTRACT: note_off channel=5 note=33 velocity=95 time=0
EXTRACT: note_on channel=5 note=33 velocity=95 time=0
EXTRACT: note_on channel=7 note=73 velocity=95 time=0
EXTRACT: note_on channel=7 note=69 velocity=95 time=0
EXTRACT: note_on channel=7 note=64 velocity=95 time=0
EXTRACT: note_off channel=13 note=45 velocity=95 time=0
EXTRACT: note_off channel=9 note=42 velocity=95 time=0
EXTRACT: note_off channel=9 note=40 velocity=95 time=0
EXTRACT: note_on channel=9 note=42 velocity=95 time=0
EXTRACT: note_off channel=0 note=45 velocity=95 time=0.2608695
EXTRACT: note_off channel=0 note=73 velocity=95 time=0
EXTRACT: note_off channel=0 note=69 velocity=95 time=0
EXTRACT: note_off channel=0 note=64 velocity=95 time=0
EXTRACT: note_on channel=0 note=45 velocity=95 time=0
EXTRACT: note_off channel=8 note=33 velocity=95 time=0
EXTRACT: note_on channel=8 note=33 velocity=95 time=0
EXTRACT: note_off channel=5 note=33 velocity=95 time=0
EXTRACT: note_on channel=5 note=33 velocity=95 time=0
EXTRACT: note_off channel=7 note=45 velocity=95 time=0
EXTRACT: note_off channel=7 note=73 velocity=95 time=0
EXTRACT: note_off channel=7 note=69 velocity=95 time=0
EXTRACT: note_off channel=7 note=64 velocity=95 time=0
EXTRACT: note_on channel=7 note=45 velocity=95 time=0
EXTRACT: note_on channel=13 note=45 velocity=95 time=0
EXTRACT: note_off channel=9 note=42 velocity=95 time=0
EXTRACT: note_on channel=9 note=42 velocity=95 time=0
EXTRACT: note_on channel=9 note=36 velocity=95 time=0
EXTRACT: note_off channel=0 note=45 velocity=95 time=0.2608695
EXTRACT: note_on channel=0 note=45 velocity=95 time=0
EXTRACT: note_off channel=8 note=33 velocity=95 time=0
EXTRACT: note_on channel=8 note=33 velocity=95 time=0
EXTRACT: note_off channel=5 note=33 velocity=95 time=0
EXTRACT: note_on channel=5 note=33 velocity=95 time=0
EXTRACT: note_off channel=7 note=45 velocity=95 time=0
EXTRACT: note_on channel=7 note=45 velocity=95 time=0
EXTRACT: note_off channel=13 note=45 velocity=95 time=0
EXTRACT: note_on channel=13 note=45 velocity=95 time=0
EXTRACT: note_off channel=9 note=42 velocity=95 time=0
EXTRACT: note_off channel=9 note=36 velocity=95 time=0
EXTRACT: note_on channel=9 note=42 velocity=95 time=0
EXTRACT: note_off channel=0 note=45 velocity=95 time=0.2608695
EXTRACT: note_on channel=0 note=45 velocity=95 time=0
EXTRACT: note_off channel=8 note=33 velocity=95 time=0
EXTRACT: note_on channel=8 note=33 velocity=95 time=0
EXTRACT: note_off channel=11 note=76 velocity=95 time=0
EXTRACT: note_off channel=11 note=73 velocity=95 time=0
EXTRACT: note_off channel=11 note=69 velocity=95 time=0
EXTRACT: note_off channel=5 note=33 velocity=95 time=0
EXTRACT: note_on channel=5 note=33 velocity=95 time=0
EXTRACT: note_off channel=7 note=45 velocity=95 time=0
EXTRACT: note_on channel=7 note=45 velocity=95 time=0
EXTRACT: note_off channel=13 note=45 velocity=95 time=0
EXTRACT: note_on channel=13 note=45 velocity=95 time=0
EXTRACT: note_off channel=9 note=42 velocity=95 time=0
EXTRACT: note_on channel=9 note=42 velocity=127 time=0
EXTRACT: note_on channel=9 note=43 velocity=127 time=0
EXTRACT: note_on channel=9 note=36 velocity=95 time=0
EXTRACT: note_off channel=0 note=45 velocity=95 time=0.2608695
EXTRACT: note_on channel=0 note=45 velocity=95 time=0
EXTRACT: note_off channel=8 note=33 velocity=95 time=0
EXTRACT: note_on channel=8 note=33 velocity=95 time=0
EXTRACT: note_off channel=5 note=33 velocity=95 time=0
EXTRACT: note_on channel=5 note=33 velocity=95 time=0
EXTRACT: note_off channel=7 note=45 velocity=95 time=0
EXTRACT: note_on channel=7 note=45 velocity=95 time=0
EXTRACT: note_off channel=13 note=45 velocity=95 time=0
EXTRACT: note_on channel=13 note=45 velocity=95 time=0
EXTRACT: note_off channel=9 note=42 velocity=127 time=0
EXTRACT: note_off channel=9 note=43 velocity=127 time=0
EXTRACT: note_off channel=9 note=36 velocity=95 time=0
EXTRACT: note_on channel=9 note=42 velocity=95 time=0
EXTRACT: note_off channel=0 note=45 velocity=95 time=0.2608695
EXTRACT: note_on channel=0 note=75 velocity=95 time=0
EXTRACT: note_on channel=0 note=71 velocity=95 time=0
EXTRACT: note_on channel=0 note=66 velocity=95 time=0
EXTRACT: note_off channel=8 note=33 velocity=95 time=0
EXTRACT: note_on channel=8 note=33 velocity=95 time=0
EXTRACT: note_on channel=11 note=78 velocity=95 time=0
EXTRACT: note_on channel=11 note=75 velocity=95 time=0
EXTRACT: note_on channel=11 note=71 velocity=95 time=0
EXTRACT: note_off channel=5 note=33 velocity=95 time=0
EXTRACT: note_on channel=6 note=42 velocity=95 time=0
EXTRACT: note_off channel=7 note=45 velocity=95 time=0
EXTRACT: note_on channel=7 note=75 velocity=95 time=0
EXTRACT: note_on channel=7 note=71 velocity=95 time=0
EXTRACT: note_on channel=7 note=66 velocity=95 time=0
EXTRACT: note_off channel=13 note=45 velocity=95 time=0
EXTRACT: note_off channel=9 note=42 velocity=95 time=0
EXTRACT: note_on channel=9 note=42 velocity=95 time=0
EXTRACT: note_on channel=9 note=36 velocity=95 time=0
EXTRACT: pitchwheel channel=6 pitch=-256 time=0.065217375
EXTRACT: pitchwheel channel=6 pitch=-640 time=0.065217375
EXTRACT: pitchwheel channel=6 pitch=-1024 time=0.065217375
EXTRACT: note_off channel=0 note=75 velocity=95 time=0.065217375
EXTRACT: note_off channel=0 note=71 velocity=95 time=0
EXTRACT: note_off channel=0 note=66 velocity=95 time=0
EXTRACT: note_on channel=0 note=45 velocity=95 time=0
EXTRACT: note_off channel=8 note=33 velocity=95 time=0
EXTRACT: note_on channel=8 note=33 velocity=95 time=0
EXTRACT: pitchwheel channel=6 pitch=-1408 time=0
EXTRACT: pitchwheel channel=6 pitch=0 time=0
EXTRACT: note_off channel=6 note=42 velocity=95 time=0
EXTRACT: note_on channel=5 note=40 velocity=95 time=0
EXTRACT: note_off channel=7 note=75 velocity=95 time=0
EXTRACT: note_off channel=7 note=71 velocity=95 time=0
EXTRACT: note_off channel=7 note=66 velocity=95 time=0
EXTRACT: note_on channel=7 note=45 velocity=95 time=0
EXTRACT: note_on channel=13 note=45 velocity=95 time=0
EXTRACT: note_off channel=9 note=42 velocity=95 time=0
EXTRACT: note_off channel=9 note=36 velocity=95 time=0
EXTRACT: note_on channel=9 note=42 velocity=95 time=0
EXTRACT: note_off channel=0 note=45 velocity=95 time=0.2608695
EXTRACT: note_on channel=0 note=45 velocity=95 time=0
EXTRACT: note_off channel=8 note=33 velocity=95 time=0
EXTRACT: note_on channel=8 note=33 velocity=95 time=0
EXTRACT: note_off channel=5 note=40 velocity=95 time=0
EXTRACT: note_on channel=5 note=33 velocity=95 time=0
EXTRACT: note_off channel=7 note=45 velocity=95 time=0
EXTRACT: note_on channel=7 note=45 velocity=95 time=0
EXTRACT: note_off channel=13 note=45 velocity=95 time=0
EXTRACT: note_on channel=13 note=45 velocity=95 time=0
EXTRACT: note_off channel=9 note=42 velocity=95 time=0
EXTRACT: note_on channel=9 note=42 velocity=95 time=0
EXTRACT: note_on channel=9 note=40 velocity=95 time=0
EXTRACT: note_on channel=0 note=76 velocity=95 time=0.2608695
EXTRACT: note_on channel=0 note=71 velocity=95 time=0
EXTRACT: note_on channel=0 note=68 velocity=95 time=0
EXTRACT: note_off channel=8 note=33 velocity=95 time=0
EXTRACT: note_on channel=8 note=33 velocity=95 time=0
EXTRACT: note_off channel=11 note=78 velocity=95 time=0
EXTRACT: note_off channel=11 note=75 velocity=95 time=0
EXTRACT: note_off channel=11 note=71 velocity=95 time=0
EXTRACT: note_on channel=11 note=80 velocity=95 time=0
EXTRACT: note_on channel=11 note=76 velocity=95 time=0
EXTRACT: note_on channel=11 note=71 velocity=95 time=0
EXTRACT: note_off channel=5 note=33 velocity=95 time=0
EXTRACT: note_on channel=5 note=44 velocity=95 time=0
EXTRACT: note_on channel=7 note=76 velocity=95 time=0
EXTRACT: note_on channel=7 note=71 velocity=95 time=0
EXTRACT: note_on channel=7 note=68 velocity=95 time=0
EXTRACT: note_off channel=13 note=45 velocity=95 time=0
EXTRACT: note_off channel=9 note=42 velocity=95 time=0
EXTRACT: note_off channel=9 note=40 velocity=95 time=0
EXTRACT: note_on channel=9 note=42 velocity=95 time=0
EXTRACT: note_off channel=0 note=45 velocity=95 time=0.2608695
EXTRACT: note_off channel=0 note=76 velocity=95 time=0
EXTRACT: note_off channel=0 note=71 velocity=95 time=0
EXTRACT: note_off channel=0 note=68 velocity=95 time=0
EXTRACT: note_on channel=0 note=45 velocity=95 time=0
EXTRACT: note_off channel=8 note=33 velocity=95 time=0
EXTRACT: note_on channel=8 note=33 velocity=95 time=0
EXTRACT: note_off channel=5 note=44 velocity=95 time=0
EXTRACT: note_on channel=5 note=42 velocity=95 time=0
EXTRACT: note_off channel=7 note=45 velocity=95 time=0
EXTRACT: note_off channel=7 note=76 velocity=95 time=0
EXTRACT: note_off channel=7 note=71 velocity=95 time=0
EXTRACT: note_off channel=7 note=68 velocity=95 time=0
EXTRACT: note_on channel=7 note=45 velocity=95 time=0
EXTRACT: note_on channel=13 note=45 velocity=95 time=0
EXTRACT: note_off channel=9 note=42 velocity=95 time=0
EXTRACT: note_on channel=9 note=42 velocity=95 time=0
EXTRACT: note_on channel=9 note=36 velocity=95 time=0
EXTRACT: note_off channel=0 note=45 velocity=95 time=0.2608695
EXTRACT: note_on channel=0 note=45 velocity=95 time=0
EXTRACT: note_off channel=8 note=33 velocity=95 time=0
EXTRACT: note_on channel=8 note=33 velocity=95 time=0
EXTRACT: note_off channel=5 note=42 velocity=95 time=0
EXTRACT: note_on channel=5 note=40 velocity=95 time=0
EXTRACT: note_off channel=7 note=45 velocity=95 time=0
EXTRACT: note_on channel=7 note=45 velocity=95 time=0
EXTRACT: note_off channel=13 note=45 velocity=95 time=0
EXTRACT: note_on channel=13 note=45 velocity=95 time=0
EXTRACT: note_off channel=9 note=42 velocity=95 time=0
EXTRACT: note_off channel=9 note=36 velocity=95 time=0
EXTRACT: note_on channel=9 note=42 velocity=95 time=0
EXTRACT: note_on channel=9 note=45 velocity=95 time=0
EXTRACT: note_off channel=0 note=45 velocity=95 time=0.2608695
EXTRACT: note_on channel=0 note=45 velocity=95 time=0
EXTRACT: note_off channel=8 note=33 velocity=95 time=0
EXTRACT: note_on channel=8 note=33 velocity=95 time=0
EXTRACT: note_off channel=11 note=80 velocity=95 time=0
EXTRACT: note_off channel=11 note=76 velocity=95 time=0
EXTRACT: note_off channel=11 note=71 velocity=95 time=0
EXTRACT: note_off channel=5 note=40 velocity=95 time=0
EXTRACT: note_on channel=5 note=39 velocity=95 time=0
EXTRACT: note_off channel=7 note=45 velocity=95 time=0
EXTRACT: note_on channel=7 note=45 velocity=95 time=0
EXTRACT: note_off channel=13 note=45 velocity=95 time=0
EXTRACT: note_on channel=13 note=45 velocity=95 time=0
EXTRACT: note_off channel=9 note=42 velocity=95 time=0
EXTRACT: note_off channel=9 note=45 velocity=95 time=0
EXTRACT: note_on channel=9 note=42 velocity=95 time=0
EXTRACT: note_on channel=9 note=41 velocity=95 time=0
EXTRACT: note_on channel=9 note=36 velocity=95 time=0
EXTRACT: note_off channel=0 note=45 velocity=95 time=0.2608695
EXTRACT: note_on channel=0 note=45 velocity=95 time=0
EXTRACT: note_off channel=8 note=33 velocity=95 time=0
EXTRACT: note_on channel=8 note=33 velocity=95 time=0
EXTRACT: note_off channel=5 note=39 velocity=95 time=0
EXTRACT: note_on channel=5 note=33 velocity=95 time=0
EXTRACT: note_off channel=7 note=45 velocity=95 time=0
EXTRACT: note_on channel=7 note=45 velocity=95 time=0
EXTRACT: note_off channel=13 note=45 velocity=95 time=0
EXTRACT: note_on channel=13 note=45 velocity=95 time=0
EXTRACT: note_off channel=9 note=42 velocity=95 time=0
EXTRACT: note_off channel=9 note=41 velocity=95 time=0
EXTRACT: note_off channel=9 note=36 velocity=95 time=0
EXTRACT: note_on channel=9 note=42 velocity=95 time=0
EXTRACT: note_on channel=9 note=43 velocity=95 time=0
EXTRACT: note_off channel=0 note=45 velocity=95 time=0.2608695
EXTRACT: note_on channel=0 note=75 velocity=95 time=0
EXTRACT: note_on channel=0 note=71 velocity=95 time=0
EXTRACT: note_on channel=0 note=66 velocity=95 time=0
EXTRACT: note_off channel=8 note=33 velocity=95 time=0
EXTRACT: note_on channel=8 note=28 velocity=95 time=0
EXTRACT: note_off channel=5 note=33 velocity=95 time=0
EXTRACT: note_on channel=5 note=28 velocity=95 time=0
EXTRACT: note_off channel=7 note=45 velocity=95 time=0
EXTRACT: note_on channel=7 note=75 velocity=95 time=0
EXTRACT: note_on channel=7 note=71 velocity=95 time=0
EXTRACT: note_on channel=7 note=66 velocity=95 time=0
EXTRACT: note_off channel=13 note=45 velocity=95 time=0
EXTRACT: note_off channel=9 note=42 velocity=95 time=0
EXTRACT: note_off channel=9 note=43 velocity=95 time=0
EXTRACT: note_on channel=9 note=42 velocity=95 time=0
EXTRACT: note_on channel=9 note=36 velocity=95 time=0
EXTRACT: note_off channel=0 note=75 velocity=95 time=0.2608695
EXTRACT: note_off channel=0 note=71 velocity=95 time=0
EXTRACT: note_off channel=0 note=66 velocity=95 time=0
EXTRACT: note_on channel=0 note=40 velocity=95 time=0
EXTRACT: note_off channel=8 note=28 velocity=95 time=0
EXTRACT: note_on channel=8 note=28 velocity=95 time=0
EXTRACT: note_off channel=5 note=28 velocity=95 time=0
EXTRACT: note_on channel=5 note=28 velocity=95 time=0
EXTRACT: note_off channel=7 note=75 velocity=95 time=0
EXTRACT: note_off channel=7 note=71 velocity=95 time=0
EXTRACT: note_off channel=7 note=66 velocity=95 time=0
EXTRACT: note_on channel=7 note=40 velocity=95 time=0
EXTRACT: note_on channel=13 note=40 velocity=95 time=0
EXTRACT: note_off channel=9 note=42 velocity=95 time=0
EXTRACT: note_off channel=9 note=36 velocity=95 time=0
EXTRACT: note_on channel=9 note=42 velocity=95 time=0
EXTRACT: note_off channel=0 note=40 velocity=95 time=0.2608695
EXTRACT: note_on channel=0 note=40 velocity=95 time=0
EXTRACT: note_off channel=8 note=28 velocity=95 time=0
EXTRACT: note_on channel=8 note=28 velocity=95 time=0
EXTRACT: note_off channel=5 note=28 velocity=95 time=0
EXTRACT: note_on channel=5 note=28 velocity=95 time=0
EXTRACT: note_off channel=7 note=40 velocity=95 time=0
EXTRACT: note_on channel=7 note=40 velocity=95 time=0
EXTRACT: note_off channel=13 note=40 velocity=95 time=0
EXTRACT: note_on channel=13 note=40 velocity=95 time=0
EXTRACT: note_off channel=9 note=42 velocity=95 time=0
EXTRACT: note_on channel=9 note=42 velocity=95 time=0
EXTRACT: note_on channel=9 note=40 velocity=95 time=0
EXTRACT: note_on channel=0 note=76 velocity=95 time=0.2608695
EXTRACT: note_on channel=0 note=71 velocity=95 time=0
EXTRACT: note_on channel=0 note=68 velocity=95 time=0
EXTRACT: note_off channel=8 note=28 velocity=95 time=0
EXTRACT: note_on channel=8 note=28 velocity=95 time=0
EXTRACT: note_off channel=5 note=28 velocity=95 time=0
EXTRACT: note_on channel=5 note=28 velocity=95 time=0
EXTRACT: note_on channel=7 note=76 velocity=95 time=0
EXTRACT: note_on channel=7 note=71 velocity=95 time=0
EXTRACT: note_on channel=7 note=68 velocity=95 time=0
EXTRACT: note_off channel=13 note=40 velocity=95 time=0
EXTRACT: note_off channel=9 note=42 velocity=95 time=0
EXTRACT: note_off channel=9 note=40 velocity=95 time=0
EXTRACT: note_on channel=9 note=42 velocity=95 time=0
EXTRACT: note_off channel=0 note=40 velocity=95 time=0.2608695
EXTRACT: note_off channel=0 note=76 velocity=95 time=0
EXTRACT: note_off channel=0 note=71 velocity=95 time=0
EXTRACT: note_off channel=0 note=68 velocity=95 time=0
EXTRACT: note_on channel=0 note=40 velocity=95 time=0
EXTRACT: note_off channel=8 note=28 velocity=95 time=0
EXTRACT: note_on channel=8 note=28 velocity=95 time=0
EXTRACT: note_on channel=11 note=76 velocity=95 time=0
EXTRACT: note_off channel=5 note=28 velocity=95 time=0
EXTRACT: note_on channel=5 note=28 velocity=95 time=0
EXTRACT: note_off channel=7 note=40 velocity=95 time=0
EXTRACT: note_off channel=7 note=76 velocity=95 time=0
EXTRACT: note_off channel=7 note=71 velocity=95 time=0
EXTRACT: note_off channel=7 note=68 velocity=95 time=0
EXTRACT: note_on channel=7 note=40 velocity=95 time=0
EXTRACT: note_on channel=13 note=40 velocity=95 time=0
EXTRACT: note_off channel=9 note=42 velocity=95 time=0
EXTRACT: note_on channel=9 note=42 velocity=95 time=0
EXTRACT: note_on channel=9 note=36 velocity=95 time=0
EXTRACT: note_off channel=0 note=40 velocity=95 time=0.2608695
EXTRACT: note_on channel=0 note=40 velocity=95 time=0
EXTRACT: note_off channel=8 note=28 velocity=95 time=0
EXTRACT: note_on channel=8 note=28 velocity=95 time=0
EXTRACT: note_off channel=11 note=76 velocity=95 time=0
EXTRACT: note_on channel=11 note=76 velocity=95 time=0
EXTRACT: note_off channel=5 note=28 velocity=95 time=0
EXTRACT: note_on channel=5 note=28 velocity=95 time=0
EXTRACT: note_off channel=7 note=40 velocity=95 time=0
EXTRACT: note_on channel=7 note=40 velocity=95 time=0
EXTRACT: note_off channel=13 note=40 velocity=95 time=0
EXTRACT: note_on channel=13 note=40 velocity=95 time=0
EXTRACT: note_off channel=9 note=42 velocity=95 time=0
EXTRACT: note_off channel=9 note=36 velocity=95 time=0
EXTRACT: note_on channel=9 note=42 velocity=95 time=0
EXTRACT: note_off channel=0 note=40 velocity=95 time=0.2608695
EXTRACT: note_on channel=0 note=40 velocity=95 time=0
EXTRACT: note_off channel=8 note=28 velocity=95 time=0
EXTRACT: note_on channel=8 note=28 velocity=95 time=0
EXTRACT: note_off channel=11 note=76 velocity=95 time=0
EXTRACT: note_on channel=11 note=76 velocity=95 time=0
EXTRACT: note_off channel=5 note=28 velocity=95 time=0
EXTRACT: note_on channel=5 note=28 velocity=95 time=0
EXTRACT: note_off channel=7 note=40 velocity=95 time=0
EXTRACT: note_on channel=7 note=40 velocity=95 time=0
EXTRACT: note_off channel=13 note=40 velocity=95 time=0
EXTRACT: note_on channel=13 note=40 velocity=95 time=0
EXTRACT: note_off channel=9 note=42 velocity=95 time=0
EXTRACT: note_on channel=9 note=42 velocity=127 time=0
EXTRACT: note_on channel=9 note=43 velocity=127 time=0
EXTRACT: note_on channel=9 note=36 velocity=95 time=0
EXTRACT: note_off channel=0 note=40 velocity=95 time=0.2608695
EXTRACT: note_on channel=0 note=40 velocity=95 time=0
EXTRACT: note_off channel=8 note=28 velocity=95 time=0
EXTRACT: note_on channel=8 note=28 velocity=95 time=0
EXTRACT: note_off channel=11 note=76 velocity=95 time=0
EXTRACT: note_on channel=11 note=76 velocity=95 time=0
EXTRACT: note_off channel=5 note=28 velocity=95 time=0
EXTRACT: note_on channel=5 note=28 velocity=95 time=0
EXTRACT: note_off channel=7 note=40 velocity=95 time=0
EXTRACT: note_on channel=7 note=40 velocity=95 time=0
EXTRACT: note_off channel=13 note=40 velocity=95 time=0
EXTRACT: note_on channel=13 note=40 velocity=95 time=0
EXTRACT: note_off channel=9 note=42 velocity=127 time=0
EXTRACT: note_off channel=9 note=43 velocity=127 time=0
EXTRACT: note_off channel=9 note=36 velocity=95 time=0
EXTRACT: note_on channel=9 note=42 velocity=95 time=0
EXTRACT: note_off channel=0 note=40 velocity=95 time=0.2608695
EXTRACT: note_on channel=0 note=75 velocity=95 time=0
EXTRACT: note_on channel=0 note=71 velocity=95 time=0
EXTRACT: note_on channel=0 note=66 velocity=95 time=0
EXTRACT: note_off channel=8 note=28 velocity=95 time=0
EXTRACT: note_on channel=8 note=28 velocity=95 time=0
EXTRACT: note_off channel=11 note=76 velocity=95 time=0
EXTRACT: note_on channel=11 note=83 velocity=95 time=0
EXTRACT: note_off channel=5 note=28 velocity=95 time=0
EXTRACT: note_on channel=5 note=28 velocity=95 time=0
EXTRACT: note_off channel=7 note=40 velocity=95 time=0
EXTRACT: note_on channel=7 note=75 velocity=95 time=0
EXTRACT: note_on channel=7 note=71 velocity=95 time=0
EXTRACT: note_on channel=7 note=66 velocity=95 time=0
EXTRACT: note_off channel=13 note=40 velocity=95 time=0
EXTRACT: note_off channel=9 note=42 velocity=95 time=0
EXTRACT: note_on channel=9 note=42 velocity=95 time=0
EXTRACT: note_on channel=9 note=36 velocity=95 time=0
EXTRACT: note_off channel=0 note=75 velocity=95 time=0.2608695
EXTRACT: note_off channel=0 note=71 velocity=95 time=0
EXTRACT: note_off channel=0 note=66 velocity=95 time=0
EXTRACT: note_on channel=0 note=40 velocity=95 time=0
EXTRACT: note_off channel=8 note=28 velocity=95 time=0
EXTRACT: note_on channel=8 note=28 velocity=95 time=0
EXTRACT: note_off channel=5 note=28 velocity=95 time=0
EXTRACT: note_on channel=5 note=40 velocity=95 time=0
EXTRACT: note_off channel=7 note=75 velocity=95 time=0
EXTRACT: note_off channel=7 note=71 velocity=95 time=0
EXTRACT: note_off channel=7 note=66 velocity=95 time=0
EXTRACT: note_on channel=7 note=40 velocity=95 time=0
EXTRACT: note_on channel=13 note=40 velocity=95 time=0
EXTRACT: note_off channel=9 note=42 velocity=95 time=0
EXTRACT: note_off channel=9 note=36 velocity=95 time=0
EXTRACT: note_on channel=9 note=42 velocity=95 time=0
EXTRACT: note_off channel=0 note=40 velocity=95 time=0.2608695
EXTRACT: note_on channel=0 note=40 velocity=95 time=0
EXTRACT: note_off channel=8 note=28 velocity=95 time=0
EXTRACT: note_on channel=8 note=28 velocity=95 time=0
EXTRACT: note_off channel=11 note=83 velocity=95 time=0
EXTRACT: note_on channel=11 note=81 velocity=95 time=0
EXTRACT: note_off channel=5 note=40 velocity=95 time=0
EXTRACT: note_on channel=5 note=39 velocity=95 time=0
EXTRACT: note_off channel=7 note=40 velocity=95 time=0
EXTRACT: note_on channel=7 note=40 velocity=95 time=0
EXTRACT: note_off channel=13 note=40 velocity=95 time=0
EXTRACT: note_on channel=13 note=40 velocity=95 time=0
EXTRACT: note_off channel=9 note=42 velocity=95 time=0
EXTRACT: note_on channel=9 note=42 velocity=95 time=0
EXTRACT: note_on channel=9 note=40 velocity=95 time=0
EXTRACT: note_on channel=0 note=76 velocity=95 time=0.2608695
EXTRACT: note_on channel=0 note=71 velocity=95 time=0
EXTRACT: note_on channel=0 note=68 velocity=95 time=0
EXTRACT: note_off channel=8 note=28 velocity=95 time=0
EXTRACT: note_on channel=8 note=28 velocity=95 time=0
EXTRACT: note_off channel=11 note=81 velocity=95 time=0
EXTRACT: note_on channel=11 note=80 velocity=95 time=0
EXTRACT: note_off channel=5 note=39 velocity=95 time=0
EXTRACT: note_on channel=5 note=28 velocity=95 time=0
EXTRACT: note_on channel=7 note=76 velocity=95 time=0
EXTRACT: note_on channel=7 note=71 velocity=95 time=0
EXTRACT: note_on channel=7 note=68 velocity=95 time=0
EXTRACT: note_off channel=13 note=40 velocity=95 time=0
EXTRACT: note_off channel=9 note=42 velocity=95 time=0
EXTRACT: note_off channel=9 note=40 velocity=95 time=0
EXTRACT: note_on channel=9 note=42 velocity=95 time=0
EXTRACT: note_off channel=0 note=40 velocity=95 time=0.2608695
EXTRACT: note_off channel=0 note=76 velocity=95 time=0
EXTRACT: note_off channel=0 note=71 velocity=95 time=0
EXTRACT: note_off channel=0 note=68 velocity=95 time=0
EXTRACT: note_on channel=0 note=40 velocity=95 time=0
EXTRACT: note_off channel=8 note=28 velocity=95 time=0
EXTRACT: note_on channel=8 note=28 velocity=95 time=0
EXTRACT: note_off channel=5 note=28 velocity=95 time=0
EXTRACT: note_on channel=5 note=40 velocity=95 time=0
EXTRACT: note_off channel=7 note=40 velocity=95 time=0
EXTRACT: note_off channel=7 note=76 velocity=95 time=0
EXTRACT: note_off channel=7 note=71 velocity=95 time=0
EXTRACT: note_off channel=7 note=68 velocity=95 time=0
EXTRACT: note_on channel=7 note=40 velocity=95 time=0
EXTRACT: note_on channel=13 note=40 velocity=95 time=0
EXTRACT: note_off channel=9 note=42 velocity=95 time=0
EXTRACT: note_on channel=9 note=42 velocity=95 time=0
EXTRACT: note_on channel=9 note=36 velocity=95 time=0
EXTRACT: note_off channel=0 note=40 velocity=95 time=0.2608695
EXTRACT: note_on channel=0 note=40 velocity=95 time=0
EXTRACT: note_off channel=8 note=28 velocity=95 time=0
EXTRACT: note_on channel=8 note=28 velocity=95 time=0
EXTRACT: note_off channel=5 note=40 velocity=95 time=0
EXTRACT: note_on channel=5 note=28 velocity=95 time=0
EXTRACT: note_off channel=7 note=40 velocity=95 time=0
EXTRACT: note_on channel=7 note=40 velocity=95 time=0
EXTRACT: note_off channel=13 note=40 velocity=95 time=0
EXTRACT: note_on channel=13 note=40 velocity=95 time=0
EXTRACT: note_off channel=9 note=42 velocity=95 time=0
EXTRACT: note_off channel=9 note=36 velocity=95 time=0
EXTRACT: note_on channel=9 note=42 velocity=95 time=0
EXTRACT: note_on channel=9 note=45 velocity=95 time=0
EXTRACT: note_off channel=0 note=40 velocity=95 time=0.2608695
EXTRACT: note_on channel=0 note=40 velocity=95 time=0
EXTRACT: note_off channel=8 note=28 velocity=95 time=0
EXTRACT: note_on channel=8 note=28 velocity=95 time=0
EXTRACT: note_off channel=11 note=80 velocity=95 time=0
EXTRACT: note_on channel=11 note=78 velocity=95 time=0
EXTRACT: note_off channel=5 note=28 velocity=95 time=0
EXTRACT: note_on channel=5 note=39 velocity=95 time=0
EXTRACT: note_off channel=7 note=40 velocity=95 time=0
EXTRACT: note_on channel=7 note=40 velocity=95 time=0
EXTRACT: note_off channel=13 note=40 velocity=95 time=0
EXTRACT: note_on channel=13 note=40 velocity=95 time=0
EXTRACT: note_off channel=9 note=42 velocity=95 time=0
EXTRACT: note_off channel=9 note=45 velocity=95 time=0
EXTRACT: note_on channel=9 note=42 velocity=95 time=0
EXTRACT: note_on channel=9 note=41 velocity=95 time=0
EXTRACT: note_on channel=9 note=36 velocity=95 time=0
EXTRACT: note_off channel=0 note=40 velocity=95 time=0.2608695
EXTRACT: note_on channel=0 note=40 velocity=95 time=0
EXTRACT: note_off channel=8 note=28 velocity=95 time=0
EXTRACT: note_on channel=8 note=28 velocity=95 time=0
EXTRACT: note_off channel=5 note=39 velocity=95 time=0
EXTRACT: note_on channel=5 note=40 velocity=95 time=0
EXTRACT: note_off channel=7 note=40 velocity=95 time=0
EXTRACT: note_on channel=7 note=40 velocity=95 time=0
EXTRACT: note_off channel=13 note=40 velocity=95 time=0
EXTRACT: note_on channel=13 note=40 velocity=95 time=0
EXTRACT: note_off channel=9 note=42 velocity=95 time=0
EXTRACT: note_off channel=9 note=41 velocity=95 time=0
EXTRACT: note_off channel=9 note=36 velocity=95 time=0
EXTRACT: note_on channel=9 note=42 velocity=95 time=0
EXTRACT: note_on channel=9 note=43 velocity=95 time=0
EXTRACT: note_off channel=0 note=40 velocity=95 time=0.2608695
EXTRACT: note_on channel=0 note=75 velocity=95 time=0
EXTRACT: note_on channel=0 note=71 velocity=95 time=0
EXTRACT: note_on channel=0 note=66 velocity=95 time=0
EXTRACT: note_off channel=8 note=28 velocity=95 time=0
EXTRACT: note_on channel=8 note=33 velocity=95 time=0
EXTRACT: note_off channel=11 note=78 velocity=95 time=0
EXTRACT: note_on channel=11 note=78 velocity=95 time=0
EXTRACT: note_on channel=11 note=75 velocity=95 time=0
EXTRACT: note_on channel=11 note=71 velocity=95 time=0
EXTRACT: note_off channel=5 note=40 velocity=95 time=0
EXTRACT: note_on channel=5 note=33 velocity=95 time=0
EXTRACT: note_off channel=7 note=40 velocity=95 time=0
EXTRACT: note_on channel=7 note=75 velocity=95 time=0
EXTRACT: note_on channel=7 note=71 velocity=95 time=0
EXTRACT: note_on channel=7 note=66 velocity=95 time=0
EXTRACT: note_off channel=13 note=40 velocity=95 time=0
EXTRACT: note_off channel=9 note=42 velocity=95 time=0
EXTRACT: note_off channel=9 note=43 velocity=95 time=0
EXTRACT: note_on channel=9 note=42 velocity=95 time=0
EXTRACT: note_on channel=9 note=36 velocity=95 time=0
EXTRACT: note_off channel=0 note=75 velocity=95 time=0.2608695
EXTRACT: note_off channel=0 note=71 velocity=95 time=0
EXTRACT: note_off channel=0 note=66 velocity=95 time=0
EXTRACT: note_on channel=0 note=45 velocity=95 time=0
EXTRACT: note_off channel=8 note=33 velocity=95 time=0
EXTRACT: note_on channel=8 note=33 velocity=95 time=0
EXTRACT: note_off channel=5 note=33 velocity=95 time=0
EXTRACT: note_on channel=5 note=33 velocity=95 time=0
EXTRACT: note_off channel=7 note=75 velocity=95 time=0
EXTRACT: note_off channel=7 note=71 velocity=95 time=0
EXTRACT: note_off channel=7 note=66 velocity=95 time=0
EXTRACT: note_on channel=7 note=45 velocity=95 time=0
EXTRACT: note_on channel=13 note=45 velocity=95 time=0
EXTRACT: note_off channel=9 note=42 velocity=95 time=0
EXTRACT: note_off channel=9 note=36 velocity=95 time=0
EXTRACT: note_on channel=9 note=42 velocity=95 time=0
EXTRACT: note_off channel=0 note=45 velocity=95 time=0.2608695
EXTRACT: note_on channel=0 note=45 velocity=95 time=0
EXTRACT: note_off channel=8 note=33 velocity=95 time=0
EXTRACT: note_on channel=8 note=33 velocity=95 time=0
EXTRACT: note_off channel=5 note=33 velocity=95 time=0
EXTRACT: note_on channel=5 note=33 velocity=95 time=0
EXTRACT: note_off channel=7 note=45 velocity=95 time=0
EXTRACT: note_on channel=7 note=45 velocity=95 time=0
EXTRACT: note_off channel=13 note=45 velocity=95 time=0
EXTRACT: note_on channel=13 note=45 velocity=95 time=0
EXTRACT: note_off channel=9 note=42 velocity=95 time=0
EXTRACT: note_on channel=9 note=42 velocity=95 time=0
EXTRACT: note_on channel=9 note=40 velocity=95 time=0
EXTRACT: note_on channel=0 note=73 velocity=95 time=0.2608695
EXTRACT: note_on channel=0 note=69 velocity=95 time=0
EXTRACT: note_on channel=0 note=64 velocity=95 time=0
EXTRACT: note_off channel=8 note=33 velocity=95 time=0
EXTRACT: note_on channel=8 note=33 velocity=95 time=0
EXTRACT: note_off channel=11 note=78 velocity=95 time=0
EXTRACT: note_off channel=11 note=75 velocity=95 time=0
EXTRACT: note_off channel=11 note=71 velocity=95 time=0
EXTRACT: note_on channel=11 note=76 velocity=95 time=0
EXTRACT: note_on channel=11 note=73 velocity=95 time=0
EXTRACT: note_on channel=11 note=69 velocity=95 time=0
EXTRACT: note_off channel=5 note=33 velocity=95 time=0
EXTRACT: note_on channel=5 note=33 velocity=95 time=0
EXTRACT: note_on channel=7 note=73 velocity=95 time=0
EXTRACT: note_on channel=7 note=69 velocity=95 time=0
EXTRACT: note_on channel=7 note=64 velocity=95 time=0
EXTRACT: note_off channel=13 note=45 velocity=95 time=0
EXTRACT: note_off channel=9 note=42 velocity=95 time=0
EXTRACT: note_off channel=9 note=40 velocity=95 time=0
EXTRACT: note_on channel=9 note=42 velocity=95 time=0
EXTRACT: note_off channel=0 note=45 velocity=95 time=0.2608695
EXTRACT: note_off channel=0 note=73 velocity=95 time=0
EXTRACT: note_off channel=0 note=69 velocity=95 time=0
EXTRACT: note_off channel=0 note=64 velocity=95 time=0
EXTRACT: note_on channel=0 note=45 velocity=95 time=0
EXTRACT: note_off channel=8 note=33 velocity=95 time=0
EXTRACT: note_on channel=8 note=33 velocity=95 time=0
EXTRACT: note_off channel=5 note=33 velocity=95 time=0
EXTRACT: note_on channel=5 note=33 velocity=95 time=0
EXTRACT: note_off channel=7 note=45 velocity=95 time=0
EXTRACT: note_off channel=7 note=73 velocity=95 time=0
EXTRACT: note_off channel=7 note=69 velocity=95 time=0
EXTRACT: note_off channel=7 note=64 velocity=95 time=0
EXTRACT: note_on channel=7 note=45 velocity=95 time=0
EXTRACT: note_on channel=13 note=45 velocity=95 time=0
EXTRACT: note_off channel=9 note=42 velocity=95 time=0
EXTRACT: note_on channel=9 note=42 velocity=95 time=0
EXTRACT: note_on channel=9 note=36 velocity=95 time=0
EXTRACT: note_off channel=0 note=45 velocity=95 time=0.2608695
EXTRACT: note_on channel=0 note=45 velocity=95 time=0
EXTRACT: note_off channel=8 note=33 velocity=95 time=0
EXTRACT: note_on channel=8 note=33 velocity=95 time=0
EXTRACT: note_off channel=5 note=33 velocity=95 time=0
EXTRACT: note_on channel=5 note=33 velocity=95 time=0
EXTRACT: note_off channel=7 note=45 velocity=95 time=0
EXTRACT: note_on channel=7 note=45 velocity=95 time=0
EXTRACT: note_off channel=13 note=45 velocity=95 time=0
EXTRACT: note_on channel=13 note=45 velocity=95 time=0
EXTRACT: note_off channel=9 note=42 velocity=95 time=0
EXTRACT: note_off channel=9 note=36 velocity=95 time=0
EXTRACT: note_on channel=9 note=42 velocity=95 time=0
EXTRACT: note_off channel=0 note=45 velocity=95 time=0.2608695
EXTRACT: note_on channel=0 note=45 velocity=95 time=0
EXTRACT: note_off channel=8 note=33 velocity=95 time=0
EXTRACT: note_on channel=8 note=33 velocity=95 time=0
EXTRACT: note_off channel=11 note=76 velocity=95 time=0
EXTRACT: note_off channel=11 note=73 velocity=95 time=0
EXTRACT: note_off channel=11 note=69 velocity=95 time=0
EXTRACT: note_off channel=5 note=33 velocity=95 time=0
EXTRACT: note_on channel=5 note=33 velocity=95 time=0
EXTRACT: note_off channel=7 note=45 velocity=95 time=0
EXTRACT: note_on channel=7 note=45 velocity=95 time=0
EXTRACT: note_off channel=13 note=45 velocity=95 time=0
EXTRACT: note_on channel=13 note=45 velocity=95 time=0
EXTRACT: note_off channel=9 note=42 velocity=95 time=0
EXTRACT: note_on channel=9 note=42 velocity=127 time=0
EXTRACT: note_on channel=9 note=43 velocity=127 time=0
EXTRACT: note_on channel=9 note=36 velocity=95 time=0
EXTRACT: note_off channel=0 note=45 velocity=95 time=0.2608695
EXTRACT: note_on channel=0 note=45 velocity=95 time=0
EXTRACT: note_off channel=8 note=33 velocity=95 time=0
EXTRACT: note_on channel=8 note=33 velocity=95 time=0
EXTRACT: note_off channel=5 note=33 velocity=95 time=0
EXTRACT: note_on channel=5 note=33 velocity=95 time=0
EXTRACT: note_off channel=7 note=45 velocity=95 time=0
EXTRACT: note_on channel=7 note=45 velocity=95 time=0
EXTRACT: note_off channel=13 note=45 velocity=95 time=0
EXTRACT: note_on channel=13 note=45 velocity=95 time=0
EXTRACT: note_off channel=9 note=42 velocity=127 time=0
EXTRACT: note_off channel=9 note=43 velocity=127 time=0
EXTRACT: note_off channel=9 note=36 velocity=95 time=0
EXTRACT: note_on channel=9 note=42 velocity=95 time=0
EXTRACT: note_off channel=0 note=45 velocity=95 time=0.2608695
EXTRACT: note_on channel=0 note=75 velocity=95 time=0
EXTRACT: note_on channel=0 note=71 velocity=95 time=0
EXTRACT: note_on channel=0 note=66 velocity=95 time=0
EXTRACT: note_off channel=8 note=33 velocity=95 time=0
EXTRACT: note_on channel=8 note=33 velocity=95 time=0
EXTRACT: note_on channel=11 note=78 velocity=95 time=0
EXTRACT: note_on channel=11 note=75 velocity=95 time=0
EXTRACT: note_on channel=11 note=71 velocity=95 time=0
EXTRACT: note_off channel=5 note=33 velocity=95 time=0
EXTRACT: note_on channel=6 note=42 velocity=95 time=0
EXTRACT: note_off channel=7 note=45 velocity=95 time=0
EXTRACT: note_on channel=7 note=75 velocity=95 time=0
EXTRACT: note_on channel=7 note=71 velocity=95 time=0
EXTRACT: note_on channel=7 note=66 velocity=95 time=0
EXTRACT: note_off channel=13 note=45 velocity=95 time=0
EXTRACT: note_off channel=9 note=42 velocity=95 time=0
EXTRACT: note_on channel=9 note=42 velocity=95 time=0
EXTRACT: note_on channel=9 note=36 velocity=95 time=0
EXTRACT: pitchwheel channel=6 pitch=-256 time=0.065217375
EXTRACT: pitchwheel channel=6 pitch=-640 time=0.065217375
EXTRACT: pitchwheel channel=6 pitch=-1024 time=0.065217375
EXTRACT: note_off channel=0 note=75 velocity=95 time=0.065217375
EXTRACT: note_off channel=0 note=71 velocity=95 time=0
EXTRACT: note_off channel=0 note=66 velocity=95 time=0
EXTRACT: note_on channel=0 note=45 velocity=95 time=0
EXTRACT: note_off channel=8 note=33 velocity=95 time=0
EXTRACT: note_on channel=8 note=33 velocity=95 time=0
EXTRACT: pitchwheel channel=6 pitch=-1408 time=0
EXTRACT: pitchwheel channel=6 pitch=0 time=0
EXTRACT: note_off channel=6 note=42 velocity=95 time=0
EXTRACT: note_on channel=5 note=40 velocity=95 time=0
EXTRACT: note_off channel=7 note=75 velocity=95 time=0
EXTRACT: note_off channel=7 note=71 velocity=95 time=0
EXTRACT: note_off channel=7 note=66 velocity=95 time=0
EXTRACT: note_on channel=7 note=45 velocity=95 time=0
EXTRACT: note_on channel=13 note=45 velocity=95 time=0
EXTRACT: note_off channel=9 note=42 velocity=95 time=0
EXTRACT: note_off channel=9 note=36 velocity=95 time=0
EXTRACT: note_on channel=9 note=42 velocity=95 time=0
EXTRACT: note_off channel=0 note=45 velocity=95 time=0.2608695
EXTRACT: note_on channel=0 note=45 velocity=95 time=0
EXTRACT: note_off channel=8 note=33 velocity=95 time=0
EXTRACT: note_on channel=8 note=33 velocity=95 time=0
EXTRACT: note_off channel=5 note=40 velocity=95 time=0
EXTRACT: note_on channel=5 note=33 velocity=95 time=0
EXTRACT: note_off channel=7 note=45 velocity=95 time=0
EXTRACT: note_on channel=7 note=45 velocity=95 time=0
EXTRACT: note_off channel=13 note=45 velocity=95 time=0
EXTRACT: note_on channel=13 note=45 velocity=95 time=0
EXTRACT: note_off channel=9 note=42 velocity=95 time=0
EXTRACT: note_on channel=9 note=42 velocity=95 time=0
EXTRACT: note_on channel=9 note=40 velocity=95 time=0
EXTRACT: note_on channel=0 note=76 velocity=95 time=0.2608695
EXTRACT: note_on channel=0 note=71 velocity=95 time=0
EXTRACT: note_on channel=0 note=68 velocity=95 time=0
EXTRACT: note_off channel=8 note=33 velocity=95 time=0
EXTRACT: note_on channel=8 note=33 velocity=95 time=0
EXTRACT: note_off channel=11 note=78 velocity=95 time=0
EXTRACT: note_off channel=11 note=75 velocity=95 time=0
EXTRACT: note_off channel=11 note=71 velocity=95 time=0
EXTRACT: note_on channel=11 note=80 velocity=95 time=0
EXTRACT: note_on channel=11 note=76 velocity=95 time=0
EXTRACT: note_on channel=11 note=71 velocity=95 time=0
EXTRACT: note_off channel=5 note=33 velocity=95 time=0
EXTRACT: note_on channel=5 note=44 velocity=95 time=0
EXTRACT: note_on channel=7 note=76 velocity=95 time=0
EXTRACT: note_on channel=7 note=71 velocity=95 time=0
EXTRACT: note_on channel=7 note=68 velocity=95 time=0
EXTRACT: note_off channel=13 note=45 velocity=95 time=0
EXTRACT: note_off channel=9 note=42 velocity=95 time=0
EXTRACT: note_off channel=9 note=40 velocity=95 time=0
EXTRACT: note_on channel=9 note=42 velocity=95 time=0
EXTRACT: note_off channel=0 note=45 velocity=95 time=0.2608695
EXTRACT: note_off channel=0 note=76 velocity=95 time=0
EXTRACT: note_off channel=0 note=71 velocity=95 time=0
EXTRACT: note_off channel=0 note=68 velocity=95 time=0
EXTRACT: note_on channel=0 note=45 velocity=95 time=0
EXTRACT: note_off channel=8 note=33 velocity=95 time=0
EXTRACT: note_on channel=8 note=33 velocity=95 time=0
EXTRACT: note_off channel=11 note=80 velocity=95 time=0
EXTRACT: note_off channel=11 note=76 velocity=95 time=0
EXTRACT: note_off channel=11 note=71 velocity=95 time=0
EXTRACT: note_on channel=11 note=80 velocity=95 time=0
EXTRACT: note_off channel=5 note=44 velocity=95 time=0
EXTRACT: note_on channel=5 note=42 velocity=95 time=0
EXTRACT: note_off channel=7 note=45 velocity=95 time=0
EXTRACT: note_off channel=7 note=76 velocity=95 time=0
EXTRACT: note_off channel=7 note=71 velocity=95 time=0
EXTRACT: note_off channel=7 note=68 velocity=95 time=0
EXTRACT: note_on channel=7 note=45 velocity=95 time=0
EXTRACT: note_on channel=13 note=45 velocity=95 time=0
EXTRACT: note_off channel=9 note=42 velocity=95 time=0
EXTRACT: note_on channel=9 note=42 velocity=95 time=0
EXTRACT: note_on channel=9 note=36 velocity=95 time=0
EXTRACT: note_off channel=0 note=45 velocity=95 time=0.2608695
EXTRACT: note_on channel=0 note=45 velocity=95 time=0
EXTRACT: note_off channel=8 note=33 velocity=95 time=0
EXTRACT: note_on channel=8 note=33 velocity=95 time=0
EXTRACT: note_off channel=11 note=80 velocity=95 time=0
EXTRACT: note_on channel=11 note=78 velocity=95 time=0
EXTRACT: note_off channel=5 note=42 velocity=95 time=0
EXTRACT: note_on channel=5 note=40 velocity=95 time=0
EXTRACT: note_off channel=7 note=45 velocity=95 time=0
EXTRACT: note_on channel=7 note=45 velocity=95 time=0
EXTRACT: note_off channel=13 note=45 velocity=95 time=0
EXTRACT: note_on channel=13 note=45 velocity=95 time=0
EXTRACT: note_off channel=9 note=42 velocity=95 time=0
EXTRACT: note_off channel=9 note=36 velocity=95 time=0
EXTRACT: note_on channel=9 note=42 velocity=95 time=0
EXTRACT: note_on channel=9 note=45 velocity=95 time=0
EXTRACT: note_off channel=0 note=45 velocity=95 time=0.2608695
EXTRACT: note_on channel=0 note=45 velocity=95 time=0
EXTRACT: note_off channel=8 note=33 velocity=95 time=0
EXTRACT: note_on channel=8 note=33 velocity=95 time=0
EXTRACT: note_off channel=11 note=78 velocity=95 time=0
EXTRACT: note_on channel=11 note=76 velocity=95 time=0
EXTRACT: note_off channel=5 note=40 velocity=95 time=0
EXTRACT: note_on channel=5 note=39 velocity=95 time=0
EXTRACT: note_off channel=7 note=45 velocity=95 time=0
EXTRACT: note_on channel=7 note=45 velocity=95 time=0
EXTRACT: note_off channel=13 note=45 velocity=95 time=0
EXTRACT: note_on channel=13 note=45 velocity=95 time=0
EXTRACT: note_off channel=9 note=42 velocity=95 time=0
EXTRACT: note_off channel=9 note=45 velocity=95 time=0
EXTRACT: note_on channel=9 note=42 velocity=95 time=0
EXTRACT: note_on channel=9 note=41 velocity=95 time=0
EXTRACT: note_on channel=9 note=36 velocity=95 time=0
EXTRACT: note_off channel=0 note=45 velocity=95 time=0.2608695
EXTRACT: note_on channel=0 note=45 velocity=95 time=0
EXTRACT: note_off channel=8 note=33 velocity=95 time=0
EXTRACT: note_on channel=8 note=33 velocity=95 time=0
EXTRACT: note_off channel=11 note=76 velocity=95 time=0
EXTRACT: note_on channel=11 note=78 velocity=95 time=0
EXTRACT: note_off channel=5 note=39 velocity=95 time=0
EXTRACT: note_on channel=5 note=33 velocity=95 time=0
EXTRACT: note_off channel=7 note=45 velocity=95 time=0
EXTRACT: note_on channel=7 note=45 velocity=95 time=0
EXTRACT: note_off channel=13 note=45 velocity=95 time=0
EXTRACT: note_on channel=13 note=45 velocity=95 time=0
EXTRACT: note_off channel=9 note=42 velocity=95 time=0
EXTRACT: note_off channel=9 note=41 velocity=95 time=0
EXTRACT: note_off channel=9 note=36 velocity=95 time=0
EXTRACT: note_on channel=9 note=42 velocity=95 time=0
EXTRACT: note_on channel=9 note=43 velocity=95 time=0
EXTRACT: note_off channel=0 note=45 velocity=95 time=0.2608695
EXTRACT: note_on channel=0 note=66 velocity=95 time=0
EXTRACT: note_on channel=0 note=63 velocity=95 time=0
EXTRACT: note_on channel=0 note=59 velocity=95 time=0
EXTRACT: note_off channel=8 note=33 velocity=95 time=0
EXTRACT: note_on channel=8 note=28 velocity=95 time=0
EXTRACT: note_off channel=5 note=33 velocity=95 time=0
EXTRACT: note_on channel=5 note=28 velocity=95 time=0
EXTRACT: note_off channel=7 note=45 velocity=95 time=0
EXTRACT: note_on channel=7 note=66 velocity=95 time=0
EXTRACT: note_on channel=7 note=63 velocity=95 time=0
EXTRACT: note_on channel=7 note=59 velocity=95 time=0
EXTRACT: note_off channel=13 note=45 velocity=95 time=0
EXTRACT: note_on channel=13 note=47 velocity=95 time=0
EXTRACT: note_on channel=13 note=40 velocity=95 time=0
EXTRACT: note_off channel=9 note=42 velocity=95 time=0
EXTRACT: note_off channel=9 note=43 velocity=95 time=0
EXTRACT: note_on channel=9 note=42 velocity=95 time=0
EXTRACT: note_on channel=9 note=36 velocity=95 time=0
EXTRACT: note_off channel=0 note=66 velocity=95 time=0.2608695
EXTRACT: note_off channel=0 note=63 velocity=95 time=0
EXTRACT: note_off channel=0 note=59 velocity=95 time=0
EXTRACT: note_on channel=0 note=40 velocity=95 time=0
EXTRACT: note_off channel=8 note=28 velocity=95 time=0
EXTRACT: note_on channel=8 note=28 velocity=95 time=0
EXTRACT: note_off channel=5 note=28 velocity=95 time=0
EXTRACT: note_on channel=5 note=28 velocity=95 time=0
EXTRACT: note_off channel=7 note=66 velocity=95 time=0
EXTRACT: note_off channel=7 note=63 velocity=95 time=0
EXTRACT: note_off channel=7 note=59 velocity=95 time=0
EXTRACT: note_on channel=7 note=40 velocity=95 time=0
EXTRACT: note_off channel=13 note=47 velocity=95 time=0
EXTRACT: note_off channel=13 note=40 velocity=95 time=0
EXTRACT: note_on channel=13 note=40 velocity=95 time=0
EXTRACT: note_off channel=9 note=42 velocity=95 time=0
EXTRACT: note_off channel=9 note=36 velocity=95 time=0
EXTRACT: note_on channel=9 note=42 velocity=95 time=0
EXTRACT: note_off channel=0 note=40 velocity=95 time=0.2608695
EXTRACT: note_on channel=0 note=40 velocity=95 time=0
EXTRACT: note_off channel=8 note=28 velocity=95 time=0
EXTRACT: note_on channel=8 note=28 velocity=95 time=0
EXTRACT: note_off channel=11 note=78 velocity=95 time=0
EXTRACT: note_on channel=11 note=80 velocity=95 time=0
EXTRACT: note_off channel=5 note=28 velocity=95 time=0
EXTRACT: note_on channel=5 note=28 velocity=95 time=0
EXTRACT: note_off channel=7 note=40 velocity=95 time=0
EXTRACT: note_on channel=7 note=40 velocity=95 time=0
EXTRACT: note_off channel=13 note=40 velocity=95 time=0
EXTRACT: note_on channel=13 note=40 velocity=95 time=0
EXTRACT: note_off channel=9 note=42 velocity=95 time=0
EXTRACT: note_on channel=9 note=42 velocity=95 time=0
EXTRACT: note_on channel=9 note=40 velocity=95 time=0
EXTRACT: note_on channel=0 note=68 velocity=95 time=0.2608695
EXTRACT: note_on channel=0 note=64 velocity=95 time=0
EXTRACT: note_on channel=0 note=59 velocity=95 time=0
EXTRACT: note_off channel=8 note=28 velocity=95 time=0
EXTRACT: note_on channel=8 note=28 velocity=95 time=0
EXTRACT: note_off channel=11 note=80 velocity=95 time=0
EXTRACT: note_on channel=12 note=76 velocity=95 time=0
EXTRACT: note_off channel=5 note=28 velocity=95 time=0
EXTRACT: note_on channel=5 note=28 velocity=95 time=0
EXTRACT: note_on channel=7 note=68 velocity=95 time=0
EXTRACT: note_on channel=7 note=64 velocity=95 time=0
EXTRACT: note_on channel=7 note=59 velocity=95 time=0
EXTRACT: note_off channel=13 note=40 velocity=95 time=0
EXTRACT: note_off channel=9 note=42 velocity=95 time=0
EXTRACT: note_off channel=9 note=40 velocity=95 time=0
EXTRACT: note_on channel=9 note=42 velocity=95 time=0
EXTRACT: pitchwheel channel=12 pitch=0 time=0.08695649999999999
EXTRACT: pitchwheel channel=12 pitch=128 time=0.08695649999999999
EXTRACT: note_off channel=0 note=40 velocity=95 time=0.08695649999999999
EXTRACT: note_off channel=0 note=68 velocity=95 time=0
EXTRACT: note_off channel=0 note=64 velocity=95 time=0
EXTRACT: note_off channel=0 note=59 velocity=95 time=0
EXTRACT: note_on channel=0 note=40 velocity=95 time=0
EXTRACT: note_off channel=8 note=28 velocity=95 time=0
EXTRACT: note_on channel=8 note=28 velocity=95 time=0
EXTRACT: pitchwheel channel=12 pitch=0 time=0
EXTRACT: note_off channel=5 note=28 velocity=95 time=0
EXTRACT: note_on channel=5 note=28 velocity=95 time=0
EXTRACT: note_off channel=7 note=40 velocity=95 time=0
EXTRACT: note_off channel=7 note=68 velocity=95 time=0
EXTRACT: note_off channel=7 note=64 velocity=95 time=0
EXTRACT: note_off channel=7 note=59 velocity=95 time=0
EXTRACT: note_on channel=7 note=40 velocity=95 time=0
EXTRACT: note_on channel=13 note=40 velocity=95 time=0
EXTRACT: note_off channel=9 note=42 velocity=95 time=0
EXTRACT: note_on channel=9 note=42 velocity=95 time=0
EXTRACT: note_on channel=9 note=36 velocity=95 time=0
EXTRACT: pitchwheel channel=12 pitch=128 time=0.08695649999999999
EXTRACT: pitchwheel channel=12 pitch=0 time=0.08695649999999999
EXTRACT: note_off channel=0 note=40 velocity=95 time=0.08695649999999999
EXTRACT: note_on channel=0 note=40 velocity=95 time=0
EXTRACT: note_off channel=8 note=28 velocity=95 time=0
EXTRACT: note_on channel=8 note=28 velocity=95 time=0
EXTRACT: pitchwheel channel=12 pitch=128 time=0
EXTRACT: note_off channel=5 note=28 velocity=95 time=0
EXTRACT: note_on channel=5 note=28 velocity=95 time=0
EXTRACT: note_off channel=7 note=40 velocity=95 time=0
EXTRACT: note_on channel=7 note=40 velocity=95 time=0
EXTRACT: note_off channel=13 note=40 velocity=95 time=0
EXTRACT: note_on channel=13 note=40 velocity=95 time=0
EXTRACT: note_off channel=9 note=42 velocity=95 time=0
EXTRACT: note_off channel=9 note=36 velocity=95 time=0
EXTRACT: note_on channel=9 note=42 velocity=95 time=0
EXTRACT: pitchwheel channel=12 pitch=0 time=0.08695649999999999
EXTRACT: pitchwheel channel=12 pitch=128 time=0.08695649999999999
EXTRACT: note_off channel=0 note=40 velocity=95 time=0.08695649999999999
EXTRACT: note_on channel=0 note=40 velocity=95 time=0
EXTRACT: note_off channel=8 note=28 velocity=95 time=0
EXTRACT: note_on channel=8 note=28 velocity=95 time=0
EXTRACT: pitchwheel channel=12 pitch=0 time=0
EXTRACT: note_off channel=5 note=28 velocity=95 time=0
EXTRACT: note_on channel=5 note=28 velocity=95 time=0
EXTRACT: note_off channel=7 note=40 velocity=95 time=0
EXTRACT: note_on channel=7 note=40 velocity=95 time=0
EXTRACT: note_off channel=13 note=40 velocity=95 time=0
EXTRACT: note_on channel=13 note=40 velocity=95 time=0
EXTRACT: note_off channel=9 note=42 velocity=95 time=0
EXTRACT: note_on channel=9 note=42 velocity=127 time=0
EXTRACT: note_on channel=9 note=43 velocity=127 time=0
EXTRACT: note_on channel=9 note=36 velocity=95 time=0
EXTRACT: pitchwheel channel=12 pitch=128 time=0.08695649999999999
EXTRACT: pitchwheel channel=12 pitch=0 time=0.08695649999999999
EXTRACT: note_off channel=0 note=40 velocity=95 time=0.08695649999999999
EXTRACT: note_on channel=0 note=40 velocity=95 time=0
EXTRACT: note_off channel=8 note=28 velocity=95 time=0
EXTRACT: note_on channel=8 note=28 velocity=95 time=0
EXTRACT: pitchwheel channel=12 pitch=128 time=0
EXTRACT: note_off channel=5 note=28 velocity=95 time=0
EXTRACT: note_on channel=5 note=28 velocity=95 time=0
EXTRACT: note_off channel=7 note=40 velocity=95 time=0
EXTRACT: note_on channel=7 note=40 velocity=95 time=0
EXTRACT: note_off channel=13 note=40 velocity=95 time=0
EXTRACT: note_on channel=13 note=40 velocity=95 time=0
EXTRACT: note_off channel=9 note=42 velocity=127 time=0
EXTRACT: note_off channel=9 note=43 velocity=127 time=0
EXTRACT: note_off channel=9 note=36 velocity=95 time=0
EXTRACT: note_on channel=9 note=42 velocity=95 time=0
EXTRACT: pitchwheel channel=12 pitch=0 time=0.08695649999999999
EXTRACT: pitchwheel channel=12 pitch=128 time=0.08695649999999999
EXTRACT: note_off channel=0 note=40 velocity=95 time=0.08695649999999999
EXTRACT: note_on channel=0 note=66 velocity=95 time=0
EXTRACT: note_on channel=0 note=63 velocity=95 time=0
EXTRACT: note_on channel=0 note=59 velocity=95 time=0
EXTRACT: note_on channel=0 note=47 velocity=95 time=0
EXTRACT: note_off channel=8 note=28 velocity=95 time=0
EXTRACT: note_on channel=8 note=28 velocity=95 time=0
EXTRACT: pitchwheel channel=12 pitch=0 time=0
EXTRACT: pitchwheel channel=12 pitch=128 time=0
EXTRACT: pitchwheel channel=12 pitch=0 time=0
EXTRACT: note_off channel=12 note=76 velocity=95 time=0
EXTRACT: note_off channel=5 note=28 velocity=95 time=0
EXTRACT: note_on channel=5 note=28 velocity=95 time=0
EXTRACT: note_off channel=7 note=40 velocity=95 time=0
EXTRACT: note_on channel=7 note=66 velocity=95 time=0
EXTRACT: note_on channel=7 note=63 velocity=95 time=0
EXTRACT: note_on channel=7 note=59 velocity=95 time=0
EXTRACT: note_on channel=7 note=47 velocity=95 time=0
EXTRACT: note_off channel=13 note=40 velocity=95 time=0
EXTRACT: note_on channel=13 note=47 velocity=95 time=0
EXTRACT: note_off channel=9 note=42 velocity=95 time=0
EXTRACT: note_on channel=9 note=42 velocity=95 time=0
EXTRACT: note_on channel=9 note=36 velocity=95 time=0
EXTRACT: note_off channel=0 note=66 velocity=95 time=0.2608695
EXTRACT: note_off channel=0 note=63 velocity=95 time=0
EXTRACT: note_off channel=0 note=59 velocity=95 time=0
EXTRACT: note_off channel=0 note=47 velocity=95 time=0
EXTRACT: note_on channel=0 note=40 velocity=95 time=0
EXTRACT: note_off channel=8 note=28 velocity=95 time=0
EXTRACT: note_on channel=8 note=28 velocity=95 time=0
EXTRACT: note_off channel=5 note=28 velocity=95 time=0
EXTRACT: note_on channel=5 note=40 velocity=95 time=0
EXTRACT: note_off channel=7 note=66 velocity=95 time=0
EXTRACT: note_off channel=7 note=63 velocity=95 time=0
EXTRACT: note_off channel=7 note=59 velocity=95 time=0
EXTRACT: note_off channel=7 note=47 velocity=95 time=0
EXTRACT: note_on channel=7 note=40 velocity=95 time=0
EXTRACT: note_off channel=13 note=47 velocity=95 time=0
EXTRACT: note_on channel=13 note=40 velocity=95 time=0
EXTRACT: note_off channel=9 note=42 velocity=95 time=0
EXTRACT: note_off channel=9 note=36 velocity=95 time=0
EXTRACT: note_on channel=9 note=42 velocity=95 time=0
EXTRACT: note_off channel=0 note=40 velocity=95 time=0.2608695
EXTRACT: note_on channel=0 note=40 velocity=95 time=0
EXTRACT: note_off channel=8 note=28 velocity=95 time=0
EXTRACT: note_on channel=8 note=28 velocity=95 time=0
EXTRACT: note_off channel=5 note=40 velocity=95 time=0
EXTRACT: note_on channel=5 note=39 velocity=95 time=0
EXTRACT: note_off channel=7 note=40 velocity=95 time=0
EXTRACT: note_on channel=7 note=40 velocity=95 time=0
EXTRACT: note_off channel=13 note=40 velocity=95 time=0
EXTRACT: note_on channel=13 note=40 velocity=95 time=0
EXTRACT: note_off channel=9 note=42 velocity=95 time=0
EXTRACT: note_on channel=9 note=42 velocity=95 time=0
EXTRACT: note_on channel=9 note=40 velocity=95 time=0
EXTRACT: note_on channel=0 note=68 velocity=95 time=0.2608695
EXTRACT: note_on channel=0 note=64 velocity=95 time=0
EXTRACT: note_on channel=0 note=59 velocity=95 time=0
EXTRACT: note_off channel=8 note=28 velocity=95 time=0
EXTRACT: note_on channel=8 note=28 velocity=95 time=0
EXTRACT: note_off channel=5 note=39 velocity=95 time=0
EXTRACT: note_on channel=5 note=28 velocity=95 time=0
EXTRACT: note_on channel=7 note=68 velocity=95 time=0
EXTRACT: note_on channel=7 note=64 velocity=95 time=0
EXTRACT: note_on channel=7 note=59 velocity=95 time=0
EXTRACT: note_off channel=13 note=40 velocity=95 time=0
EXTRACT: note_on channel=13 note=64 velocity=95 time=0
EXTRACT: note_on channel=13 note=59 velocity=95 time=0
EXTRACT: note_off channel=9 note=42 velocity=95 time=0
EXTRACT: note_off channel=9 note=40 velocity=95 time=0
EXTRACT: note_on channel=9 note=42 velocity=95 time=0
EXTRACT: note_off channel=0 note=40 velocity=95 time=0.2608695
EXTRACT: note_off channel=0 note=68 velocity=95 time=0
EXTRACT: note_off channel=0 note=64 velocity=95 time=0
EXTRACT: note_off channel=0 note=59 velocity=95 time=0
EXTRACT: note_off channel=8 note=28 velocity=95 time=0
EXTRACT: note_off channel=5 note=28 velocity=95 time=0
EXTRACT: note_on channel=5 note=40 velocity=95 time=0
EXTRACT: note_off channel=7 note=40 velocity=95 time=0
EXTRACT: note_off channel=7 note=68 velocity=95 time=0
EXTRACT: note_off channel=7 note=64 velocity=95 time=0
EXTRACT: note_off channel=7 note=59 velocity=95 time=0
EXTRACT: note_off channel=9 note=42 velocity=95 time=0
EXTRACT: note_on channel=9 note=42 velocity=95 time=0
EXTRACT: note_on channel=9 note=36 velocity=95 time=0
EXTRACT: note_off channel=5 note=40 velocity=95 time=0.2608695
EXTRACT: note_on channel=5 note=28 velocity=95 time=0
EXTRACT: note_off channel=9 note=42 velocity=95 time=0
EXTRACT: note_off channel=9 note=36 velocity=95 time=0
EXTRACT: note_on channel=9 note=42 velocity=95 time=0
EXTRACT: note_on channel=9 note=45 velocity=95 time=0
EXTRACT: note_off channel=5 note=28 velocity=95 time=0.2608695
EXTRACT: note_on channel=5 note=39 velocity=95 time=0
EXTRACT: note_off channel=9 note=42 velocity=95 time=0
EXTRACT: note_off channel=9 note=45 velocity=95 time=0
EXTRACT: note_on channel=9 note=42 velocity=95 time=0
EXTRACT: note_on channel=9 note=41 velocity=95 time=0
EXTRACT: note_on channel=9 note=36 velocity=95 time=0
EXTRACT: note_off channel=5 note=39 velocity=95 time=0.2608695
EXTRACT: note_on channel=5 note=40 velocity=95 time=0
EXTRACT: note_off channel=9 note=42 velocity=95 time=0
EXTRACT: note_off channel=9 note=41 velocity=95 time=0
EXTRACT: note_off channel=9 note=36 velocity=95 time=0
EXTRACT: note_on channel=9 note=42 velocity=95 time=0
EXTRACT: note_on channel=9 note=43 velocity=95 time=0
EXTRACT: note_on channel=0 note=75 velocity=95 time=0.2608695
EXTRACT: note_on channel=0 note=71 velocity=95 time=0
EXTRACT: note_on channel=0 note=66 velocity=95 time=0
EXTRACT: note_on channel=8 note=33 velocity=95 time=0
EXTRACT: note_on channel=11 note=78 velocity=95 time=0
EXTRACT: note_on channel=11 note=75 velocity=95 time=0
EXTRACT: note_on channel=11 note=71 velocity=95 time=0
EXTRACT: note_off channel=5 note=40 velocity=95 time=0
EXTRACT: note_on channel=5 note=33 velocity=95 time=0
EXTRACT: note_on channel=7 note=75 velocity=95 time=0
EXTRACT: note_on channel=7 note=71 velocity=95 time=0
EXTRACT: note_on channel=7 note=66 velocity=95 time=0
EXTRACT: note_off channel=13 note=64 velocity=95 time=0
EXTRACT: note_off channel=13 note=59 velocity=95 time=0
EXTRACT: note_off channel=9 note=42 velocity=95 time=0
EXTRACT: note_off channel=9 note=43 velocity=95 time=0
EXTRACT: note_on channel=9 note=42 velocity=95 time=0
EXTRACT: note_on channel=9 note=36 velocity=95 time=0
EXTRACT: note_off channel=0 note=75 velocity=95 time=0.2608695
EXTRACT: note_off channel=0 note=71 velocity=95 time=0
EXTRACT: note_off channel=0 note=66 velocity=95 time=0
EXTRACT: note_on channel=0 note=45 velocity=95 time=0
EXTRACT: note_off channel=8 note=33 velocity=95 time=0
EXTRACT: note_on channel=8 note=33 velocity=95 time=0
EXTRACT: note_off channel=5 note=33 velocity=95 time=0
EXTRACT: note_on channel=5 note=33 velocity=95 time=0
EXTRACT: note_off channel=7 note=75 velocity=95 time=0
EXTRACT: note_off channel=7 note=71 velocity=95 time=0
EXTRACT: note_off channel=7 note=66 velocity=95 time=0
EXTRACT: note_on channel=7 note=45 velocity=95 time=0
EXTRACT: note_on channel=13 note=45 velocity=95 time=0
EXTRACT: note_off channel=9 note=42 velocity=95 time=0
EXTRACT: note_off channel=9 note=36 velocity=95 time=0
EXTRACT: note_on channel=9 note=42 velocity=95 time=0
EXTRACT: note_off channel=0 note=45 velocity=95 time=0.2608695
EXTRACT: note_on channel=0 note=45 velocity=95 time=0
EXTRACT: note_off channel=8 note=33 velocity=95 time=0
EXTRACT: note_on channel=8 note=33 velocity=95 time=0
EXTRACT: note_off channel=5 note=33 velocity=95 time=0
EXTRACT: note_on channel=5 note=33 velocity=95 time=0
EXTRACT: note_off channel=7 note=45 velocity=95 time=0
EXTRACT: note_on channel=7 note=45 velocity=95 time=0
EXTRACT: note_off channel=13 note=45 velocity=95 time=0
EXTRACT: note_on channel=13 note=45 velocity=95 time=0
EXTRACT: note_off channel=9 note=42 velocity=95 time=0
EXTRACT: note_on channel=9 note=42 velocity=95 time=0
EXTRACT: note_on channel=9 note=40 velocity=95 time=0
EXTRACT: note_on channel=0 note=73 velocity=95 time=0.2608695
EXTRACT: note_on channel=0 note=69 velocity=95 time=0
EXTRACT: note_on channel=0 note=64 velocity=95 time=0
EXTRACT: note_off channel=8 note=33 velocity=95 time=0
EXTRACT: note_on channel=8 note=33 velocity=95 time=0
EXTRACT: note_off channel=11 note=78 velocity=95 time=0
EXTRACT: note_off channel=11 note=75 velocity=95 time=0
EXTRACT: note_off channel=11 note=71 velocity=95 time=0
EXTRACT: note_on channel=11 note=76 velocity=95 time=0
EXTRACT: note_on channel=11 note=73 velocity=95 time=0
EXTRACT: note_on channel=11 note=69 velocity=95 time=0
EXTRACT: note_off channel=5 note=33 velocity=95 time=0
EXTRACT: note_on channel=5 note=33 velocity=95 time=0
EXTRACT: note_on channel=7 note=73 velocity=95 time=0
EXTRACT: note_on channel=7 note=69 velocity=95 time=0
EXTRACT: note_on channel=7 note=64 velocity=95 time=0
EXTRACT: note_off channel=13 note=45 velocity=95 time=0
EXTRACT: note_off channel=9 note=42 velocity=95 time=0
EXTRACT: note_off channel=9 note=40 velocity=95 time=0
EXTRACT: note_on channel=9 note=42 velocity=95 time=0
EXTRACT: note_off channel=0 note=45 velocity=95 time=0.2608695
EXTRACT: note_off channel=0 note=73 velocity=95 time=0
EXTRACT: note_off channel=0 note=69 velocity=95 time=0
EXTRACT: note_off channel=0 note=64 velocity=95 time=0
EXTRACT: note_on channel=0 note=45 velocity=95 time=0
EXTRACT: note_off channel=8 note=33 velocity=95 time=0
EXTRACT: note_on channel=8 note=33 velocity=95 time=0
EXTRACT: note_off channel=5 note=33 velocity=95 time=0
EXTRACT: note_on channel=5 note=33 velocity=95 time=0
EXTRACT: note_off channel=7 note=45 velocity=95 time=0
EXTRACT: note_off channel=7 note=73 velocity=95 time=0
EXTRACT: note_off channel=7 note=69 velocity=95 time=0
EXTRACT: note_off channel=7 note=64 velocity=95 time=0
EXTRACT: note_on channel=7 note=45 velocity=95 time=0
EXTRACT: note_on channel=13 note=45 velocity=95 time=0
EXTRACT: note_off channel=9 note=42 velocity=95 time=0
EXTRACT: note_on channel=9 note=42 velocity=95 time=0
EXTRACT: note_on channel=9 note=36 velocity=95 time=0
EXTRACT: note_off channel=0 note=45 velocity=95 time=0.2608695
EXTRACT: note_on channel=0 note=45 velocity=95 time=0
EXTRACT: note_off channel=8 note=33 velocity=95 time=0
EXTRACT: note_on channel=8 note=33 velocity=95 time=0
EXTRACT: note_off channel=5 note=33 velocity=95 time=0
EXTRACT: note_on channel=5 note=33 velocity=95 time=0
EXTRACT: note_off channel=7 note=45 velocity=95 time=0
EXTRACT: note_on channel=7 note=45 velocity=95 time=0
EXTRACT: note_off channel=13 note=45 velocity=95 time=0
EXTRACT: note_on channel=13 note=45 velocity=95 time=0
EXTRACT: note_off channel=9 note=42 velocity=95 time=0
EXTRACT: note_off channel=9 note=36 velocity=95 time=0
EXTRACT: note_on channel=9 note=42 velocity=95 time=0
EXTRACT: note_off channel=0 note=45 velocity=95 time=0.2608695
EXTRACT: note_on channel=0 note=45 velocity=95 time=0
EXTRACT: note_off channel=8 note=33 velocity=95 time=0
EXTRACT: note_on channel=8 note=33 velocity=95 time=0
EXTRACT: note_off channel=11 note=76 velocity=95 time=0
EXTRACT: note_off channel=11 note=73 velocity=95 time=0
EXTRACT: note_off channel=11 note=69 velocity=95 time=0
EXTRACT: note_off channel=5 note=33 velocity=95 time=0
EXTRACT: note_on channel=5 note=33 velocity=95 time=0
EXTRACT: note_off channel=7 note=45 velocity=95 time=0
EXTRACT: note_on channel=7 note=45 velocity=95 time=0
EXTRACT: note_off channel=13 note=45 velocity=95 time=0
EXTRACT: note_on channel=13 note=45 velocity=95 time=0
EXTRACT: note_off channel=9 note=42 velocity=95 time=0
EXTRACT: note_on channel=9 note=42 velocity=127 time=0
EXTRACT: note_on channel=9 note=43 velocity=127 time=0
EXTRACT: note_on channel=9 note=36 velocity=95 time=0
EXTRACT: note_off channel=0 note=45 velocity=95 time=0.2608695
EXTRACT: note_on channel=0 note=45 velocity=95 time=0
EXTRACT: note_off channel=8 note=33 velocity=95 time=0
EXTRACT: note_on channel=8 note=33 velocity=95 time=0
EXTRACT: note_off channel=5 note=33 velocity=95 time=0
EXTRACT: note_on channel=5 note=33 velocity=95 time=0
EXTRACT: note_off channel=7 note=45 velocity=95 time=0
EXTRACT: note_on channel=7 note=45 velocity=95 time=0
EXTRACT: note_off channel=13 note=45 velocity=95 time=0
EXTRACT: note_on channel=13 note=45 velocity=95 time=0
EXTRACT: note_off channel=9 note=42 velocity=127 time=0
EXTRACT: note_off channel=9 note=43 velocity=127 time=0
EXTRACT: note_off channel=9 note=36 velocity=95 time=0
EXTRACT: note_on channel=9 note=42 velocity=95 time=0
EXTRACT: note_off channel=0 note=45 velocity=95 time=0.2608695
EXTRACT: note_on channel=0 note=75 velocity=95 time=0
EXTRACT: note_on channel=0 note=71 velocity=95 time=0
EXTRACT: note_on channel=0 note=66 velocity=95 time=0
EXTRACT: note_off channel=8 note=33 velocity=95 time=0
EXTRACT: note_on channel=8 note=33 velocity=95 time=0
EXTRACT: note_on channel=11 note=78 velocity=95 time=0
EXTRACT: note_on channel=11 note=75 velocity=95 time=0
EXTRACT: note_on channel=11 note=71 velocity=95 time=0
EXTRACT: note_off channel=5 note=33 velocity=95 time=0
EXTRACT: note_on channel=5 note=33 velocity=95 time=0
EXTRACT: note_off channel=7 note=45 velocity=95 time=0
EXTRACT: note_on channel=7 note=75 velocity=95 time=0
EXTRACT: note_on channel=7 note=71 velocity=95 time=0
EXTRACT: note_on channel=7 note=66 velocity=95 time=0
EXTRACT: note_off channel=13 note=45 velocity=95 time=0
EXTRACT: note_off channel=9 note=42 velocity=95 time=0
EXTRACT: note_on channel=9 note=42 velocity=95 time=0
EXTRACT: note_on channel=9 note=36 velocity=95 time=0
EXTRACT: note_off channel=0 note=75 velocity=95 time=0.2608695
EXTRACT: note_off channel=0 note=71 velocity=95 time=0
EXTRACT: note_off channel=0 note=66 velocity=95 time=0
EXTRACT: note_on channel=0 note=45 velocity=95 time=0
EXTRACT: note_off channel=8 note=33 velocity=95 time=0
EXTRACT: note_on channel=8 note=33 velocity=95 time=0
EXTRACT: note_off channel=5 note=33 velocity=95 time=0
EXTRACT: note_on channel=5 note=45 velocity=95 time=0
EXTRACT: note_off channel=7 note=75 velocity=95 time=0
EXTRACT: note_off channel=7 note=71 velocity=95 time=0
EXTRACT: note_off channel=7 note=66 velocity=95 time=0
EXTRACT: note_on channel=7 note=45 velocity=95 time=0
EXTRACT: note_on channel=13 note=45 velocity=95 time=0
EXTRACT: note_off channel=9 note=42 velocity=95 time=0
EXTRACT: note_off channel=9 note=36 velocity=95 time=0
EXTRACT: note_on channel=9 note=42 velocity=95 time=0
EXTRACT: note_off channel=0 note=45 velocity=95 time=0.2608695
EXTRACT: note_on channel=0 note=45 velocity=95 time=0
EXTRACT: note_off channel=8 note=33 velocity=95 time=0
EXTRACT: note_on channel=8 note=33 velocity=95 time=0
EXTRACT: note_off channel=5 note=45 velocity=95 time=0
EXTRACT: note_on channel=5 note=44 velocity=95 time=0
EXTRACT: note_off channel=7 note=45 velocity=95 time=0
EXTRACT: note_on channel=7 note=45 velocity=95 time=0
EXTRACT: note_off channel=13 note=45 velocity=95 time=0
EXTRACT: note_on channel=13 note=45 velocity=95 time=0
EXTRACT: note_off channel=9 note=42 velocity=95 time=0
EXTRACT: note_on channel=9 note=42 velocity=95 time=0
EXTRACT: note_on channel=9 note=40 velocity=95 time=0
EXTRACT: note_on channel=0 note=76 velocity=95 time=0.2608695
EXTRACT: note_on channel=0 note=71 velocity=95 time=0
EXTRACT: note_on channel=0 note=68 velocity=95 time=0
EXTRACT: note_off channel=8 note=33 velocity=95 time=0
EXTRACT: note_on channel=8 note=33 velocity=95 time=0
EXTRACT: note_off channel=11 note=78 velocity=95 time=0
EXTRACT: note_off channel=11 note=75 velocity=95 time=0
EXTRACT: note_off channel=11 note=71 velocity=95 time=0
EXTRACT: note_on channel=11 note=80 velocity=95 time=0
EXTRACT: note_on channel=11 note=76 velocity=95 time=0
EXTRACT: note_on channel=11 note=71 velocity=95 time=0
EXTRACT: note_off channel=5 note=44 velocity=95 time=0
EXTRACT: note_on channel=5 note=33 velocity=95 time=0
EXTRACT: note_on channel=7 note=76 velocity=95 time=0
EXTRACT: note_on channel=7 note=71 velocity=95 time=0
EXTRACT: note_on channel=7 note=68 velocity=95 time=0
EXTRACT: note_off channel=13 note=45 velocity=95 time=0
EXTRACT: note_off channel=9 note=42 velocity=95 time=0
EXTRACT: note_off channel=9 note=40 velocity=95 time=0
EXTRACT: note_on channel=9 note=42 velocity=95 time=0
EXTRACT: note_off channel=0 note=45 velocity=95 time=0.2608695
EXTRACT: note_off channel=0 note=76 velocity=95 time=0
EXTRACT: note_off channel=0 note=71 velocity=95 time=0
EXTRACT: note_off channel=0 note=68 velocity=95 time=0
EXTRACT: note_on channel=0 note=45 velocity=95 time=0
EXTRACT: note_off channel=8 note=33 velocity=95 time=0
EXTRACT: note_on channel=8 note=33 velocity=95 time=0
EXTRACT: note_off channel=5 note=33 velocity=95 time=0
EXTRACT: note_on channel=5 note=45 velocity=95 time=0
EXTRACT: note_off channel=7 note=45 velocity=95 time=0
EXTRACT: note_off channel=7 note=76 velocity=95 time=0
EXTRACT: note_off channel=7 note=71 velocity=95 time=0
EXTRACT: note_off channel=7 note=68 velocity=95 time=0
EXTRACT: note_on channel=7 note=45 velocity=95 time=0
EXTRACT: note_on channel=13 note=45 velocity=95 time=0
EXTRACT: note_off channel=9 note=42 velocity=95 time=0
EXTRACT: note_on channel=9 note=42 velocity=95 time=0
EXTRACT: note_on channel=9 note=36 velocity=95 time=0
EXTRACT: note_off channel=0 note=45 velocity=95 time=0.2608695
EXTRACT: note_on channel=0 note=45 velocity=95 time=0
EXTRACT: note_off channel=8 note=33 velocity=95 time=0
EXTRACT: note_on channel=8 note=33 velocity=95 time=0
EXTRACT: note_off channel=5 note=45 velocity=95 time=0
EXTRACT: note_on channel=5 note=33 velocity=95 time=0
EXTRACT: note_off channel=7 note=45 velocity=95 time=0
EXTRACT: note_on channel=7 note=45 velocity=95 time=0
EXTRACT: note_off channel=13 note=45 velocity=95 time=0
EXTRACT: note_on channel=13 note=45 velocity=95 time=0
EXTRACT: note_off channel=9 note=42 velocity=95 time=0
EXTRACT: note_off channel=9 note=36 velocity=95 time=0
EXTRACT: note_on channel=9 note=42 velocity=95 time=0
EXTRACT: note_on channel=9 note=45 velocity=95 time=0
EXTRACT: note_off channel=0 note=45 velocity=95 time=0.2608695
EXTRACT: note_on channel=0 note=45 velocity=95 time=0
EXTRACT: note_off channel=8 note=33 velocity=95 time=0
EXTRACT: note_on channel=8 note=33 velocity=95 time=0
EXTRACT: note_off channel=11 note=80 velocity=95 time=0
EXTRACT: note_off channel=11 note=76 velocity=95 time=0
EXTRACT: note_off channel=11 note=71 velocity=95 time=0
EXTRACT: note_off channel=5 note=33 velocity=95 time=0
EXTRACT: note_on channel=5 note=44 velocity=95 time=0
EXTRACT: note_off channel=7 note=45 velocity=95 time=0
EXTRACT: note_on channel=7 note=45 velocity=95 time=0
EXTRACT: note_off channel=13 note=45 velocity=95 time=0
EXTRACT: note_on channel=13 note=45 velocity=95 time=0
EXTRACT: note_off channel=9 note=42 velocity=95 time=0
EXTRACT: note_off channel=9 note=45 velocity=95 time=0
EXTRACT: note_on channel=9 note=42 velocity=95 time=0
EXTRACT: note_on channel=9 note=41 velocity=95 time=0
EXTRACT: note_on channel=9 note=36 velocity=95 time=0
EXTRACT: note_off channel=0 note=45 velocity=95 time=0.2608695
EXTRACT: note_on channel=0 note=45 velocity=95 time=0
EXTRACT: note_off channel=8 note=33 velocity=95 time=0
EXTRACT: note_on channel=8 note=33 velocity=95 time=0
EXTRACT: note_off channel=5 note=44 velocity=95 time=0
EXTRACT: note_on channel=5 note=45 velocity=95 time=0
EXTRACT: note_off channel=7 note=45 velocity=95 time=0
EXTRACT: note_on channel=7 note=45 velocity=95 time=0
EXTRACT: note_off channel=13 note=45 velocity=95 time=0
EXTRACT: note_on channel=13 note=45 velocity=95 time=0
EXTRACT: note_off channel=9 note=42 velocity=95 time=0
EXTRACT: note_off channel=9 note=41 velocity=95 time=0
EXTRACT: note_off channel=9 note=36 velocity=95 time=0
EXTRACT: note_on channel=9 note=42 velocity=95 time=0
EXTRACT: note_on channel=9 note=43 velocity=95 time=0
EXTRACT: note_off channel=0 note=45 velocity=95 time=0.2608695
EXTRACT: note_on channel=0 note=75 velocity=95 time=0
EXTRACT: note_on channel=0 note=71 velocity=95 time=0
EXTRACT: note_on channel=0 note=66 velocity=95 time=0
EXTRACT: note_off channel=8 note=33 velocity=95 time=0
EXTRACT: note_on channel=8 note=28 velocity=95 time=0
EXTRACT: note_off channel=5 note=45 velocity=95 time=0
EXTRACT: note_on channel=5 note=28 velocity=95 time=0
EXTRACT: note_off channel=7 note=45 velocity=95 time=0
EXTRACT: note_on channel=7 note=75 velocity=95 time=0
EXTRACT: note_on channel=7 note=71 velocity=95 time=0
EXTRACT: note_on channel=7 note=66 velocity=95 time=0
EXTRACT: note_off channel=13 note=45 velocity=95 time=0
EXTRACT: note_off channel=9 note=42 velocity=95 time=0
EXTRACT: note_off channel=9 note=43 velocity=95 time=0
EXTRACT: note_on channel=9 note=42 velocity=95 time=0
EXTRACT: note_on channel=9 note=36 velocity=95 time=0
EXTRACT: note_off channel=0 note=75 velocity=95 time=0.2608695
EXTRACT: note_off channel=0 note=71 velocity=95 time=0
EXTRACT: note_off channel=0 note=66 velocity=95 time=0
EXTRACT: note_on channel=0 note=40 velocity=95 time=0
EXTRACT: note_off channel=8 note=28 velocity=95 time=0
EXTRACT: note_on channel=8 note=28 velocity=95 time=0
EXTRACT: note_off channel=5 note=28 velocity=95 time=0
EXTRACT: note_on channel=5 note=28 velocity=95 time=0
EXTRACT: note_off channel=7 note=75 velocity=95 time=0
EXTRACT: note_off channel=7 note=71 velocity=95 time=0
EXTRACT: note_off channel=7 note=66 velocity=95 time=0
EXTRACT: note_on channel=7 note=40 velocity=95 time=0
EXTRACT: note_on channel=13 note=40 velocity=95 time=0
EXTRACT: note_off channel=9 note=42 velocity=95 time=0
EXTRACT: note_off channel=9 note=36 velocity=95 time=0
EXTRACT: note_on channel=9 note=42 velocity=95 time=0
EXTRACT: note_off channel=0 note=40 velocity=95 time=0.2608695
EXTRACT: note_on channel=0 note=40 velocity=95 time=0
EXTRACT: note_off channel=8 note=28 velocity=95 time=0
EXTRACT: note_on channel=8 note=28 velocity=95 time=0
EXTRACT: note_off channel=5 note=28 velocity=95 time=0
EXTRACT: note_on channel=5 note=28 velocity=95 time=0
EXTRACT: note_off channel=7 note=40 velocity=95 time=0
EXTRACT: note_on channel=7 note=40 velocity=95 time=0
EXTRACT: note_off channel=13 note=40 velocity=95 time=0
EXTRACT: note_on channel=13 note=40 velocity=95 time=0
EXTRACT: note_off channel=9 note=42 velocity=95 time=0
EXTRACT: note_on channel=9 note=42 velocity=95 time=0
EXTRACT: note_on channel=9 note=40 velocity=95 time=0
EXTRACT: note_on channel=0 note=76 velocity=95 time=0.2608695
EXTRACT: note_on channel=0 note=71 velocity=95 time=0
EXTRACT: note_on channel=0 note=68 velocity=95 time=0
EXTRACT: note_off channel=8 note=28 velocity=95 time=0
EXTRACT: note_on channel=8 note=28 velocity=95 time=0
EXTRACT: note_off channel=5 note=28 velocity=95 time=0
EXTRACT: note_on channel=5 note=28 velocity=95 time=0
EXTRACT: note_on channel=7 note=76 velocity=95 time=0
EXTRACT: note_on channel=7 note=71 velocity=95 time=0
EXTRACT: note_on channel=7 note=68 velocity=95 time=0
EXTRACT: note_off channel=13 note=40 velocity=95 time=0
EXTRACT: note_off channel=9 note=42 velocity=95 time=0
EXTRACT: note_off channel=9 note=40 velocity=95 time=0
EXTRACT: note_on channel=9 note=42 velocity=95 time=0
EXTRACT: note_off channel=0 note=40 velocity=95 time=0.2608695
EXTRACT: note_off channel=0 note=76 velocity=95 time=0
EXTRACT: note_off channel=0 note=71 velocity=95 time=0
EXTRACT: note_off channel=0 note=68 velocity=95 time=0
EXTRACT: note_on channel=0 note=40 velocity=95 time=0
EXTRACT: note_off channel=8 note=28 velocity=95 time=0
EXTRACT: note_on channel=8 note=28 velocity=95 time=0
EXTRACT: note_on channel=11 note=76 velocity=95 time=0
EXTRACT: note_off channel=5 note=28 velocity=95 time=0
EXTRACT: note_on channel=5 note=28 velocity=95 time=0
EXTRACT: note_off channel=7 note=40 velocity=95 time=0
EXTRACT: note_off channel=7 note=76 velocity=95 time=0
EXTRACT: note_off channel=7 note=71 velocity=95 time=0
EXTRACT: note_off channel=7 note=68 velocity=95 time=0
EXTRACT: note_on channel=7 note=40 velocity=95 time=0
EXTRACT: note_on channel=13 note=40 velocity=95 time=0
EXTRACT: note_off channel=9 note=42 velocity=95 time=0
EXTRACT: note_on channel=9 note=42 velocity=95 time=0
EXTRACT: note_on channel=9 note=36 velocity=95 time=0
EXTRACT: note_off channel=0 note=40 velocity=95 time=0.2608695
EXTRACT: note_on channel=0 note=40 velocity=95 time=0
EXTRACT: note_off channel=8 note=28 velocity=95 time=0
EXTRACT: note_on channel=8 note=28 velocity=95 time=0
EXTRACT: note_off channel=11 note=76 velocity=95 time=0
EXTRACT: note_on channel=11 note=76 velocity=95 time=0
EXTRACT: note_off channel=5 note=28 velocity=95 time=0
EXTRACT: note_on channel=5 note=28 velocity=95 time=0
EXTRACT: note_off channel=7 note=40 velocity=95 time=0
EXTRACT: note_on channel=7 note=40 velocity=95 time=0
EXTRACT: note_off channel=13 note=40 velocity=95 time=0
EXTRACT: note_on channel=13 note=40 velocity=95 time=0
EXTRACT: note_off channel=9 note=42 velocity=95 time=0
EXTRACT: note_off channel=9 note=36 velocity=95 time=0
EXTRACT: note_on channel=9 note=42 velocity=95 time=0
EXTRACT: note_off channel=0 note=40 velocity=95 time=0.2608695
EXTRACT: note_on channel=0 note=40 velocity=95 time=0
EXTRACT: note_off channel=8 note=28 velocity=95 time=0
EXTRACT: note_on channel=8 note=28 velocity=95 time=0
EXTRACT: note_off channel=11 note=76 velocity=95 time=0
EXTRACT: note_on channel=11 note=76 velocity=95 time=0
EXTRACT: note_off channel=5 note=28 velocity=95 time=0
EXTRACT: note_on channel=5 note=28 velocity=95 time=0
EXTRACT: note_off channel=7 note=40 velocity=95 time=0
EXTRACT: note_on channel=7 note=40 velocity=95 time=0
EXTRACT: note_off channel=13 note=40 velocity=95 time=0
EXTRACT: note_on channel=13 note=40 velocity=95 time=0
EXTRACT: note_off channel=9 note=42 velocity=95 time=0
EXTRACT: note_on channel=9 note=42 velocity=127 time=0
EXTRACT: note_on channel=9 note=43 velocity=127 time=0
EXTRACT: note_on channel=9 note=36 velocity=95 time=0
EXTRACT: note_off channel=0 note=40 velocity=95 time=0.2608695
EXTRACT: note_on channel=0 note=40 velocity=95 time=0
EXTRACT: note_off channel=8 note=28 velocity=95 time=0
EXTRACT: note_on channel=8 note=28 velocity=95 time=0
EXTRACT: note_off channel=11 note=76 velocity=95 time=0
EXTRACT: note_on channel=11 note=76 velocity=95 time=0
EXTRACT: note_off channel=5 note=28 velocity=95 time=0
EXTRACT: note_on channel=5 note=28 velocity=95 time=0
EXTRACT: note_off channel=7 note=40 velocity=95 time=0
EXTRACT: note_on channel=7 note=40 velocity=95 time=0
EXTRACT: note_off channel=13 note=40 velocity=95 time=0
EXTRACT: note_on channel=13 note=40 velocity=95 time=0
EXTRACT: note_off channel=9 note=42 velocity=127 time=0
EXTRACT: note_off channel=9 note=43 velocity=127 time=0
EXTRACT: note_off channel=9 note=36 velocity=95 time=0
EXTRACT: note_on channel=9 note=42 velocity=95 time=0
EXTRACT: note_off channel=0 note=40 velocity=95 time=0.2608695
EXTRACT: note_on channel=0 note=75 velocity=95 time=0
EXTRACT: note_on channel=0 note=71 velocity=95 time=0
EXTRACT: note_on channel=0 note=66 velocity=95 time=0
EXTRACT: note_off channel=8 note=28 velocity=95 time=0
EXTRACT: note_on channel=8 note=28 velocity=95 time=0
EXTRACT: note_off channel=11 note=76 velocity=95 time=0
EXTRACT: note_on channel=11 note=83 velocity=95 time=0
EXTRACT: note_off channel=5 note=28 velocity=95 time=0
EXTRACT: note_on channel=5 note=28 velocity=95 time=0
EXTRACT: note_off channel=7 note=40 velocity=95 time=0
EXTRACT: note_on channel=7 note=75 velocity=95 time=0
EXTRACT: note_on channel=7 note=71 velocity=95 time=0
EXTRACT: note_on channel=7 note=66 velocity=95 time=0
EXTRACT: note_off channel=13 note=40 velocity=95 time=0
EXTRACT: note_off channel=9 note=42 velocity=95 time=0
EXTRACT: note_on channel=9 note=42 velocity=95 time=0
EXTRACT: note_on channel=9 note=36 velocity=95 time=0
EXTRACT: note_off channel=0 note=75 velocity=95 time=0.2608695
EXTRACT: note_off channel=0 note=71 velocity=95 time=0
EXTRACT: note_off channel=0 note=66 velocity=95 time=0
EXTRACT: note_on channel=0 note=40 velocity=95 time=0
EXTRACT: note_off channel=8 note=28 velocity=95 time=0
EXTRACT: note_on channel=8 note=28 velocity=95 time=0
EXTRACT: note_off channel=5 note=28 velocity=95 time=0
EXTRACT: note_on channel=5 note=40 velocity=95 time=0
EXTRACT: note_off channel=7 note=75 velocity=95 time=0
EXTRACT: note_off channel=7 note=71 velocity=95 time=0
EXTRACT: note_off channel=7 note=66 velocity=95 time=0
EXTRACT: note_on channel=7 note=40 velocity=95 time=0
EXTRACT: note_on channel=13 note=40 velocity=95 time=0
EXTRACT: note_off channel=9 note=42 velocity=95 time=0
EXTRACT: note_off channel=9 note=36 velocity=95 time=0
EXTRACT: note_on channel=9 note=42 velocity=95 time=0
EXTRACT: note_off channel=0 note=40 velocity=95 time=0.2608695
EXTRACT: note_on channel=0 note=40 velocity=95 time=0
EXTRACT: note_off channel=8 note=28 velocity=95 time=0
EXTRACT: note_on channel=8 note=28 velocity=95 time=0
EXTRACT: note_off channel=11 note=83 velocity=95 time=0
EXTRACT: note_on channel=11 note=81 velocity=95 time=0
EXTRACT: note_off channel=5 note=40 velocity=95 time=0
EXTRACT: note_on channel=5 note=39 velocity=95 time=0
EXTRACT: note_off channel=7 note=40 velocity=95 time=0
EXTRACT: note_on channel=7 note=40 velocity=95 time=0
EXTRACT: note_off channel=13 note=40 velocity=95 time=0
EXTRACT: note_on channel=13 note=40 velocity=95 time=0
EXTRACT: note_off channel=9 note=42 velocity=95 time=0
EXTRACT: note_on channel=9 note=42 velocity=95 time=0
EXTRACT: note_on channel=9 note=40 velocity=95 time=0
EXTRACT: note_on channel=0 note=76 velocity=95 time=0.2608695
EXTRACT: note_on channel=0 note=71 velocity=95 time=0
EXTRACT: note_on channel=0 note=68 velocity=95 time=0
EXTRACT: note_off channel=8 note=28 velocity=95 time=0
EXTRACT: note_on channel=8 note=28 velocity=95 time=0
EXTRACT: note_off channel=11 note=81 velocity=95 time=0
EXTRACT: note_on channel=11 note=80 velocity=95 time=0
EXTRACT: note_off channel=5 note=39 velocity=95 time=0
EXTRACT: note_on channel=5 note=28 velocity=95 time=0
EXTRACT: note_on channel=7 note=76 velocity=95 time=0
EXTRACT: note_on channel=7 note=71 velocity=95 time=0
EXTRACT: note_on channel=7 note=68 velocity=95 time=0
EXTRACT: note_off channel=13 note=40 velocity=95 time=0
EXTRACT: note_off channel=9 note=42 velocity=95 time=0
EXTRACT: note_off channel=9 note=40 velocity=95 time=0
EXTRACT: note_on channel=9 note=42 velocity=95 time=0
EXTRACT: note_off channel=0 note=40 velocity=95 time=0.2608695
EXTRACT: note_off channel=0 note=76 velocity=95 time=0
EXTRACT: note_off channel=0 note=71 velocity=95 time=0
EXTRACT: note_off channel=0 note=68 velocity=95 time=0
EXTRACT: note_on channel=0 note=40 velocity=95 time=0
EXTRACT: note_off channel=8 note=28 velocity=95 time=0
EXTRACT: note_on channel=8 note=28 velocity=95 time=0
EXTRACT: note_off channel=5 note=28 velocity=95 time=0
EXTRACT: note_on channel=5 note=40 velocity=95 time=0
EXTRACT: note_off channel=7 note=40 velocity=95 time=0
EXTRACT: note_off channel=7 note=76 velocity=95 time=0
EXTRACT: note_off channel=7 note=71 velocity=95 time=0
EXTRACT: note_off channel=7 note=68 velocity=95 time=0
EXTRACT: note_on channel=7 note=40 velocity=95 time=0
EXTRACT: note_on channel=13 note=40 velocity=95 time=0
EXTRACT: note_off channel=9 note=42 velocity=95 time=0
EXTRACT: note_on channel=9 note=42 velocity=95 time=0
EXTRACT: note_on channel=9 note=36 velocity=95 time=0
EXTRACT: note_off channel=0 note=40 velocity=95 time=0.2608695
EXTRACT: note_on channel=0 note=40 velocity=95 time=0
EXTRACT: note_off channel=8 note=28 velocity=95 time=0
EXTRACT: note_on channel=8 note=28 velocity=95 time=0
EXTRACT: note_off channel=5 note=40 velocity=95 time=0
EXTRACT: note_on channel=5 note=28 velocity=95 time=0
EXTRACT: note_off channel=7 note=40 velocity=95 time=0
EXTRACT: note_on channel=7 note=40 velocity=95 time=0
EXTRACT: note_off channel=13 note=40 velocity=95 time=0
EXTRACT: note_on channel=13 note=40 velocity=95 time=0
EXTRACT: note_off channel=9 note=42 velocity=95 time=0
EXTRACT: note_off channel=9 note=36 velocity=95 time=0
EXTRACT: note_on channel=9 note=42 velocity=95 time=0
EXTRACT: note_on channel=9 note=45 velocity=95 time=0
EXTRACT: note_off channel=0 note=40 velocity=95 time=0.2608695
EXTRACT: note_on channel=0 note=40 velocity=95 time=0
EXTRACT: note_off channel=8 note=28 velocity=95 time=0
EXTRACT: note_on channel=8 note=28 velocity=95 time=0
EXTRACT: note_off channel=11 note=80 velocity=95 time=0
EXTRACT: note_on channel=11 note=78 velocity=95 time=0
EXTRACT: note_off channel=5 note=28 velocity=95 time=0
EXTRACT: note_on channel=5 note=39 velocity=95 time=0
EXTRACT: note_off channel=7 note=40 velocity=95 time=0
EXTRACT: note_on channel=7 note=40 velocity=95 time=0
EXTRACT: note_off channel=13 note=40 velocity=95 time=0
EXTRACT: note_on channel=13 note=40 velocity=95 time=0
EXTRACT: note_off channel=9 note=42 velocity=95 time=0
EXTRACT: note_off channel=9 note=45 velocity=95 time=0
EXTRACT: note_on channel=9 note=42 velocity=95 time=0
EXTRACT: note_on channel=9 note=41 velocity=95 time=0
EXTRACT: note_on channel=9 note=36 velocity=95 time=0
EXTRACT: note_off channel=0 note=40 velocity=95 time=0.2608695
EXTRACT: note_on channel=0 note=40 velocity=95 time=0
EXTRACT: note_off channel=8 note=28 velocity=95 time=0
EXTRACT: note_on channel=8 note=28 velocity=95 time=0
EXTRACT: note_off channel=5 note=39 velocity=95 time=0
EXTRACT: note_on channel=5 note=40 velocity=95 time=0
EXTRACT: note_off channel=7 note=40 velocity=95 time=0
EXTRACT: note_on channel=7 note=40 velocity=95 time=0
EXTRACT: note_off channel=13 note=40 velocity=95 time=0
EXTRACT: note_on channel=13 note=40 velocity=95 time=0
EXTRACT: note_off channel=9 note=42 velocity=95 time=0
EXTRACT: note_off channel=9 note=41 velocity=95 time=0
EXTRACT: note_off channel=9 note=36 velocity=95 time=0
EXTRACT: note_on channel=9 note=42 velocity=95 time=0
EXTRACT: note_on channel=9 note=43 velocity=95 time=0
EXTRACT: note_off channel=0 note=40 velocity=95 time=0.2608695
EXTRACT: note_on channel=0 note=75 velocity=95 time=0
EXTRACT: note_on channel=0 note=71 velocity=95 time=0
EXTRACT: note_on channel=0 note=66 velocity=95 time=0
EXTRACT: note_off channel=8 note=28 velocity=95 time=0
EXTRACT: note_on channel=8 note=33 velocity=95 time=0
EXTRACT: note_off channel=11 note=78 velocity=95 time=0
EXTRACT: note_on channel=11 note=78 velocity=95 time=0
EXTRACT: note_on channel=11 note=75 velocity=95 time=0
EXTRACT: note_on channel=11 note=71 velocity=95 time=0
EXTRACT: note_off channel=5 note=40 velocity=95 time=0
EXTRACT: note_on channel=5 note=33 velocity=95 time=0
EXTRACT: note_off channel=7 note=40 velocity=95 time=0
EXTRACT: note_on channel=7 note=75 velocity=95 time=0
EXTRACT: note_on channel=7 note=71 velocity=95 time=0
EXTRACT: note_on channel=7 note=66 velocity=95 time=0
EXTRACT: note_off channel=13 note=40 velocity=95 time=0
EXTRACT: note_off channel=9 note=42 velocity=95 time=0
EXTRACT: note_off channel=9 note=43 velocity=95 time=0
EXTRACT: note_on channel=9 note=42 velocity=95 time=0
EXTRACT: note_on channel=9 note=36 velocity=95 time=0
EXTRACT: note_off channel=0 note=75 velocity=95 time=0.2608695
EXTRACT: note_off channel=0 note=71 velocity=95 time=0
EXTRACT: note_off channel=0 note=66 velocity=95 time=0
EXTRACT: note_on channel=0 note=45 velocity=95 time=0
EXTRACT: note_off channel=8 note=33 velocity=95 time=0
EXTRACT: note_on channel=8 note=33 velocity=95 time=0
EXTRACT: note_off channel=5 note=33 velocity=95 time=0
EXTRACT: note_on channel=5 note=33 velocity=95 time=0
EXTRACT: note_off channel=7 note=75 velocity=95 time=0
EXTRACT: note_off channel=7 note=71 velocity=95 time=0
EXTRACT: note_off channel=7 note=66 velocity=95 time=0
EXTRACT: note_on channel=7 note=45 velocity=95 time=0
EXTRACT: note_on channel=13 note=45 velocity=95 time=0
EXTRACT: note_off channel=9 note=42 velocity=95 time=0
EXTRACT: note_off channel=9 note=36 velocity=95 time=0
EXTRACT: note_on channel=9 note=42 velocity=95 time=0
EXTRACT: note_off channel=0 note=45 velocity=95 time=0.2608695
EXTRACT: note_on channel=0 note=45 velocity=95 time=0
EXTRACT: note_off channel=8 note=33 velocity=95 time=0
EXTRACT: note_on channel=8 note=33 velocity=95 time=0
EXTRACT: note_off channel=5 note=33 velocity=95 time=0
EXTRACT: note_on channel=5 note=33 velocity=95 time=0
EXTRACT: note_off channel=7 note=45 velocity=95 time=0
EXTRACT: note_on channel=7 note=45 velocity=95 time=0
EXTRACT: note_off channel=13 note=45 velocity=95 time=0
EXTRACT: note_on channel=13 note=45 velocity=95 time=0
EXTRACT: note_off channel=9 note=42 velocity=95 time=0
EXTRACT: note_on channel=9 note=42 velocity=95 time=0
EXTRACT: note_on channel=9 note=40 velocity=95 time=0
EXTRACT: note_on channel=0 note=73 velocity=95 time=0.2608695
EXTRACT: note_on channel=0 note=69 velocity=95 time=0
EXTRACT: note_on channel=0 note=64 velocity=95 time=0
EXTRACT: note_off channel=8 note=33 velocity=95 time=0
EXTRACT: note_on channel=8 note=33 velocity=95 time=0
EXTRACT: note_off channel=11 note=78 velocity=95 time=0
EXTRACT: note_off channel=11 note=75 velocity=95 time=0
EXTRACT: note_off channel=11 note=71 velocity=95 time=0
EXTRACT: note_on channel=11 note=76 velocity=95 time=0
EXTRACT: note_on channel=11 note=73 velocity=95 time=0
EXTRACT: note_on channel=11 note=69 velocity=95 time=0
EXTRACT: note_off channel=5 note=33 velocity=95 time=0
EXTRACT: note_on channel=5 note=33 velocity=95 time=0
EXTRACT: note_on channel=7 note=73 velocity=95 time=0
EXTRACT: note_on channel=7 note=69 velocity=95 time=0
EXTRACT: note_on channel=7 note=64 velocity=95 time=0
EXTRACT: note_off channel=13 note=45 velocity=95 time=0
EXTRACT: note_off channel=9 note=42 velocity=95 time=0
EXTRACT: note_off channel=9 note=40 velocity=95 time=0
EXTRACT: note_on channel=9 note=42 velocity=95 time=0
EXTRACT: note_off channel=0 note=45 velocity=95 time=0.2608695
EXTRACT: note_off channel=0 note=73 velocity=95 time=0
EXTRACT: note_off channel=0 note=69 velocity=95 time=0
EXTRACT: note_off channel=0 note=64 velocity=95 time=0
EXTRACT: note_on channel=0 note=45 velocity=95 time=0
EXTRACT: note_off channel=8 note=33 velocity=95 time=0
EXTRACT: note_on channel=8 note=33 velocity=95 time=0
EXTRACT: note_off channel=5 note=33 velocity=95 time=0
EXTRACT: note_on channel=5 note=33 velocity=95 time=0
EXTRACT: note_off channel=7 note=45 velocity=95 time=0
EXTRACT: note_off channel=7 note=73 velocity=95 time=0
EXTRACT: note_off channel=7 note=69 velocity=95 time=0
EXTRACT: note_off channel=7 note=64 velocity=95 time=0
EXTRACT: note_on channel=7 note=45 velocity=95 time=0
EXTRACT: note_on channel=13 note=45 velocity=95 time=0
EXTRACT: note_off channel=9 note=42 velocity=95 time=0
EXTRACT: note_on channel=9 note=42 velocity=95 time=0
EXTRACT: note_on channel=9 note=36 velocity=95 time=0
EXTRACT: note_off channel=0 note=45 velocity=95 time=0.2608695
EXTRACT: note_on channel=0 note=45 velocity=95 time=0
EXTRACT: note_off channel=8 note=33 velocity=95 time=0
EXTRACT: note_on channel=8 note=33 velocity=95 time=0
EXTRACT: note_off channel=5 note=33 velocity=95 time=0
EXTRACT: note_on channel=5 note=33 velocity=95 time=0
EXTRACT: note_off channel=7 note=45 velocity=95 time=0
EXTRACT: note_on channel=7 note=45 velocity=95 time=0
EXTRACT: note_off channel=13 note=45 velocity=95 time=0
EXTRACT: note_on channel=13 note=45 velocity=95 time=0
EXTRACT: note_off channel=9 note=42 velocity=95 time=0
EXTRACT: note_off channel=9 note=36 velocity=95 time=0
EXTRACT: note_on channel=9 note=42 velocity=95 time=0
EXTRACT: note_off channel=0 note=45 velocity=95 time=0.2608695
EXTRACT: note_on channel=0 note=45 velocity=95 time=0
EXTRACT: note_off channel=8 note=33 velocity=95 time=0
EXTRACT: note_on channel=8 note=33 velocity=95 time=0
EXTRACT: note_off channel=11 note=76 velocity=95 time=0
EXTRACT: note_off channel=11 note=73 velocity=95 time=0
EXTRACT: note_off channel=11 note=69 velocity=95 time=0
EXTRACT: note_off channel=5 note=33 velocity=95 time=0
EXTRACT: note_on channel=5 note=33 velocity=95 time=0
EXTRACT: note_off channel=7 note=45 velocity=95 time=0
EXTRACT: note_on channel=7 note=45 velocity=95 time=0
EXTRACT: note_off channel=13 note=45 velocity=95 time=0
EXTRACT: note_on channel=13 note=45 velocity=95 time=0
EXTRACT: note_off channel=9 note=42 velocity=95 time=0
EXTRACT: note_on channel=9 note=42 velocity=127 time=0
EXTRACT: note_on channel=9 note=43 velocity=127 time=0
EXTRACT: note_on channel=9 note=36 velocity=95 time=0
EXTRACT: note_off channel=0 note=45 velocity=95 time=0.2608695
EXTRACT: note_on channel=0 note=45 velocity=95 time=0
EXTRACT: note_off channel=8 note=33 velocity=95 time=0
EXTRACT: note_on channel=8 note=33 velocity=95 time=0
EXTRACT: note_off channel=5 note=33 velocity=95 time=0
EXTRACT: note_on channel=5 note=33 velocity=95 time=0
EXTRACT: note_off channel=7 note=45 velocity=95 time=0
EXTRACT: note_on channel=7 note=45 velocity=95 time=0
EXTRACT: note_off channel=13 note=45 velocity=95 time=0
EXTRACT: note_on channel=13 note=45 velocity=95 time=0
EXTRACT: note_off channel=9 note=42 velocity=127 time=0
EXTRACT: note_off channel=9 note=43 velocity=127 time=0
EXTRACT: note_off channel=9 note=36 velocity=95 time=0
EXTRACT: note_on channel=9 note=42 velocity=95 time=0
EXTRACT: note_off channel=0 note=45 velocity=95 time=0.2608695
EXTRACT: note_on channel=0 note=75 velocity=95 time=0
EXTRACT: note_on channel=0 note=71 velocity=95 time=0
EXTRACT: note_on channel=0 note=66 velocity=95 time=0
EXTRACT: note_off channel=8 note=33 velocity=95 time=0
EXTRACT: note_on channel=8 note=33 velocity=95 time=0
EXTRACT: note_on channel=11 note=78 velocity=95 time=0
EXTRACT: note_on channel=11 note=75 velocity=95 time=0
EXTRACT: note_on channel=11 note=71 velocity=95 time=0
EXTRACT: note_off channel=5 note=33 velocity=95 time=0
EXTRACT: note_on channel=5 note=33 velocity=95 time=0
EXTRACT: note_off channel=7 note=45 velocity=95 time=0
EXTRACT: note_on channel=7 note=75 velocity=95 time=0
EXTRACT: note_on channel=7 note=71 velocity=95 time=0
EXTRACT: note_on channel=7 note=66 velocity=95 time=0
EXTRACT: note_off channel=13 note=45 velocity=95 time=0
EXTRACT: note_off channel=9 note=42 velocity=95 time=0
EXTRACT: note_on channel=9 note=42 velocity=95 time=0
EXTRACT: note_on channel=9 note=36 velocity=95 time=0
EXTRACT: note_off channel=0 note=75 velocity=95 time=0.2608695
EXTRACT: note_off channel=0 note=71 velocity=95 time=0
EXTRACT: note_off channel=0 note=66 velocity=95 time=0
EXTRACT: note_on channel=0 note=45 velocity=95 time=0
EXTRACT: note_off channel=8 note=33 velocity=95 time=0
EXTRACT: note_on channel=8 note=33 velocity=95 time=0
EXTRACT: note_off channel=5 note=33 velocity=95 time=0
EXTRACT: note_on channel=5 note=45 velocity=95 time=0
EXTRACT: note_off channel=7 note=75 velocity=95 time=0
EXTRACT: note_off channel=7 note=71 velocity=95 time=0
EXTRACT: note_off channel=7 note=66 velocity=95 time=0
EXTRACT: note_on channel=7 note=45 velocity=95 time=0
EXTRACT: note_on channel=13 note=45 velocity=95 time=0
EXTRACT: note_off channel=9 note=42 velocity=95 time=0
EXTRACT: note_off channel=9 note=36 velocity=95 time=0
EXTRACT: note_on channel=9 note=42 velocity=95 time=0
EXTRACT: note_off channel=0 note=45 velocity=95 time=0.2608695
EXTRACT: note_on channel=0 note=45 velocity=95 time=0
EXTRACT: note_off channel=8 note=33 velocity=95 time=0
EXTRACT: note_on channel=8 note=33 velocity=95 time=0
EXTRACT: note_off channel=5 note=45 velocity=95 time=0
EXTRACT: note_on channel=5 note=44 velocity=95 time=0
EXTRACT: note_off channel=7 note=45 velocity=95 time=0
EXTRACT: note_on channel=7 note=45 velocity=95 time=0
EXTRACT: note_off channel=13 note=45 velocity=95 time=0
EXTRACT: note_on channel=13 note=45 velocity=95 time=0
EXTRACT: note_off channel=9 note=42 velocity=95 time=0
EXTRACT: note_on channel=9 note=42 velocity=95 time=0
EXTRACT: note_on channel=9 note=40 velocity=95 time=0
EXTRACT: note_on channel=0 note=76 velocity=95 time=0.2608695
EXTRACT: note_on channel=0 note=71 velocity=95 time=0
EXTRACT: note_on channel=0 note=68 velocity=95 time=0
EXTRACT: note_off channel=8 note=33 velocity=95 time=0
EXTRACT: note_on channel=8 note=33 velocity=95 time=0
EXTRACT: note_off channel=11 note=78 velocity=95 time=0
EXTRACT: note_off channel=11 note=75 velocity=95 time=0
EXTRACT: note_off channel=11 note=71 velocity=95 time=0
EXTRACT: note_on channel=11 note=80 velocity=95 time=0
EXTRACT: note_on channel=11 note=76 velocity=95 time=0
EXTRACT: note_on channel=11 note=71 velocity=95 time=0
EXTRACT: note_off channel=5 note=44 velocity=95 time=0
EXTRACT: note_on channel=5 note=33 velocity=95 time=0
EXTRACT: note_on channel=7 note=76 velocity=95 time=0
EXTRACT: note_on channel=7 note=71 velocity=95 time=0
EXTRACT: note_on channel=7 note=68 velocity=95 time=0
EXTRACT: note_off channel=13 note=45 velocity=95 time=0
EXTRACT: note_off channel=9 note=42 velocity=95 time=0
EXTRACT: note_off channel=9 note=40 velocity=95 time=0
EXTRACT: note_on channel=9 note=42 velocity=95 time=0
EXTRACT: note_off channel=0 note=45 velocity=95 time=0.2608695
EXTRACT: note_off channel=0 note=76 velocity=95 time=0
EXTRACT: note_off channel=0 note=71 velocity=95 time=0
EXTRACT: note_off channel=0 note=68 velocity=95 time=0
EXTRACT: note_on channel=0 note=45 velocity=95 time=0
EXTRACT: note_off channel=8 note=33 velocity=95 time=0
EXTRACT: note_on channel=8 note=33 velocity=95 time=0
EXTRACT: note_off channel=11 note=80 velocity=95 time=0
EXTRACT: note_off channel=11 note=76 velocity=95 time=0
EXTRACT: note_off channel=11 note=71 velocity=95 time=0
EXTRACT: note_on channel=11 note=80 velocity=95 time=0
EXTRACT: note_off channel=5 note=33 velocity=95 time=0
EXTRACT: note_on channel=5 note=45 velocity=95 time=0
EXTRACT: note_off channel=7 note=45 velocity=95 time=0
EXTRACT: note_off channel=7 note=76 velocity=95 time=0
EXTRACT: note_off channel=7 note=71 velocity=95 time=0
EXTRACT: note_off channel=7 note=68 velocity=95 time=0
EXTRACT: note_on channel=7 note=45 velocity=95 time=0
EXTRACT: note_on channel=13 note=45 velocity=95 time=0
EXTRACT: note_off channel=9 note=42 velocity=95 time=0
EXTRACT: note_on channel=9 note=42 velocity=95 time=0
EXTRACT: note_on channel=9 note=36 velocity=95 time=0
EXTRACT: note_off channel=0 note=45 velocity=95 time=0.2608695
EXTRACT: note_on channel=0 note=45 velocity=95 time=0
EXTRACT: note_off channel=8 note=33 velocity=95 time=0
EXTRACT: note_on channel=8 note=33 velocity=95 time=0
EXTRACT: note_off channel=11 note=80 velocity=95 time=0
EXTRACT: note_on channel=11 note=78 velocity=95 time=0
EXTRACT: note_off channel=5 note=45 velocity=95 time=0
EXTRACT: note_on channel=5 note=33 velocity=95 time=0
EXTRACT: note_off channel=7 note=45 velocity=95 time=0
EXTRACT: note_on channel=7 note=45 velocity=95 time=0
EXTRACT: note_off channel=13 note=45 velocity=95 time=0
EXTRACT: note_on channel=13 note=45 velocity=95 time=0
EXTRACT: note_off channel=9 note=42 velocity=95 time=0
EXTRACT: note_off channel=9 note=36 velocity=95 time=0
EXTRACT: note_on channel=9 note=42 velocity=95 time=0
EXTRACT: note_on channel=9 note=45 velocity=95 time=0
EXTRACT: note_off channel=0 note=45 velocity=95 time=0.2608695
EXTRACT: note_on channel=0 note=45 velocity=95 time=0
EXTRACT: note_off channel=8 note=33 velocity=95 time=0
EXTRACT: note_on channel=8 note=33 velocity=95 time=0
EXTRACT: note_off channel=11 note=78 velocity=95 time=0
EXTRACT: note_on channel=11 note=76 velocity=95 time=0
EXTRACT: note_off channel=5 note=33 velocity=95 time=0
EXTRACT: note_on channel=5 note=44 velocity=95 time=0
EXTRACT: note_off channel=7 note=45 velocity=95 time=0
EXTRACT: note_on channel=7 note=45 velocity=95 time=0
EXTRACT: note_off channel=13 note=45 velocity=95 time=0
EXTRACT: note_on channel=13 note=45 velocity=95 time=0
EXTRACT: note_off channel=9 note=42 velocity=95 time=0
EXTRACT: note_off channel=9 note=45 velocity=95 time=0
EXTRACT: note_on channel=9 note=42 velocity=95 time=0
EXTRACT: note_on channel=9 note=43 velocity=95 time=0
EXTRACT: note_on channel=9 note=36 velocity=95 time=0
EXTRACT: note_off channel=0 note=45 velocity=95 time=0.2608695
EXTRACT: note_on channel=0 note=45 velocity=95 time=0
EXTRACT: note_off channel=8 note=33 velocity=95 time=0
EXTRACT: note_on channel=8 note=33 velocity=95 time=0
EXTRACT: note_off channel=11 note=76 velocity=95 time=0
EXTRACT: note_on channel=11 note=78 velocity=95 time=0
EXTRACT: note_off channel=5 note=44 velocity=95 time=0
EXTRACT: note_on channel=5 note=45 velocity=95 time=0
EXTRACT: note_off channel=7 note=45 velocity=95 time=0
EXTRACT: note_on channel=7 note=45 velocity=95 time=0
EXTRACT: note_off channel=13 note=45 velocity=95 time=0
EXTRACT: note_on channel=13 note=45 velocity=95 time=0
EXTRACT: note_off channel=9 note=42 velocity=95 time=0
EXTRACT: note_off channel=9 note=43 velocity=95 time=0
EXTRACT: note_off channel=9 note=36 velocity=95 time=0
EXTRACT: note_on channel=9 note=42 velocity=95 time=0
EXTRACT: note_on channel=9 note=41 velocity=95 time=0
EXTRACT: note_off channel=0 note=45 velocity=95 time=0.2608695
EXTRACT: note_on channel=0 note=75 velocity=95 time=0
EXTRACT: note_on channel=0 note=71 velocity=95 time=0
EXTRACT: note_on channel=0 note=66 velocity=95 time=0
EXTRACT: note_off channel=8 note=33 velocity=95 time=0
EXTRACT: note_on channel=8 note=40 velocity=95 time=0
EXTRACT: note_off channel=11 note=78 velocity=95 time=0
EXTRACT: note_on channel=12 note=83 velocity=95 time=0
EXTRACT: note_off channel=5 note=45 velocity=95 time=0
EXTRACT: note_on channel=5 note=35 velocity=95 time=0
EXTRACT: note_off channel=7 note=45 velocity=95 time=0
EXTRACT: note_on channel=7 note=75 velocity=95 time=0
EXTRACT: note_on channel=7 note=71 velocity=95 time=0
EXTRACT: note_on channel=7 note=66 velocity=95 time=0
EXTRACT: note_off channel=13 note=45 velocity=95 time=0
EXTRACT: note_on channel=13 note=47 velocity=95 time=0
EXTRACT: note_off channel=9 note=42 velocity=95 time=0
EXTRACT: note_off channel=9 note=41 velocity=95 time=0
EXTRACT: note_on channel=9 note=49 velocity=95 time=0
EXTRACT: note_on channel=9 note=36 velocity=95 time=0
EXTRACT: pitchwheel channel=12 pitch=0 time=0.08695649999999999
EXTRACT: pitchwheel channel=12 pitch=128 time=0.08695649999999999
EXTRACT: pitchwheel channel=12 pitch=0 time=0.08695649999999999
EXTRACT: pitchwheel channel=12 pitch=128 time=0.08695649999999999
EXTRACT: pitchwheel channel=12 pitch=0 time=0.08695649999999999
EXTRACT: note_off channel=0 note=75 velocity=95 time=0.08695649999999999
EXTRACT: note_off channel=0 note=71 velocity=95 time=0
EXTRACT: note_off channel=0 note=66 velocity=95 time=0
EXTRACT: note_on channel=0 note=76 velocity=95 time=0
EXTRACT: note_on channel=0 note=71 velocity=95 time=0
EXTRACT: note_on channel=0 note=66 velocity=95 time=0
EXTRACT: note_off channel=8 note=40 velocity=95 time=0
EXTRACT: note_on channel=8 note=28 velocity=95 time=0
EXTRACT: pitchwheel channel=12 pitch=128 time=0
EXTRACT: note_off channel=5 note=35 velocity=95 time=0
EXTRACT: note_on channel=5 note=28 velocity=95 time=0
EXTRACT: note_off channel=7 note=75 velocity=95 time=0
EXTRACT: note_off channel=7 note=71 velocity=95 time=0
EXTRACT: note_off channel=7 note=66 velocity=95 time=0
EXTRACT: note_on channel=7 note=76 velocity=95 time=0
EXTRACT: note_on channel=7 note=71 velocity=95 time=0
EXTRACT: note_on channel=7 note=66 velocity=95 time=0
EXTRACT: pitchwheel channel=12 pitch=0 time=0.08695649999999999
EXTRACT: pitchwheel channel=12 pitch=128 time=0.08695649999999999
EXTRACT: note_off channel=0 note=76 velocity=95 time=0.08695649999999999
EXTRACT: note_off channel=0 note=71 velocity=95 time=0
EXTRACT: note_off channel=0 note=66 velocity=95 time=0
EXTRACT: note_on channel=0 note=76 velocity=95 time=0
EXTRACT: note_on channel=0 note=71 velocity=95 time=0
EXTRACT: note_on channel=0 note=66 velocity=95 time=0
EXTRACT: note_off channel=8 note=28 velocity=95 time=0
EXTRACT: note_on channel=8 note=28 velocity=95 time=0
EXTRACT: pitchwheel channel=12 pitch=0 time=0
EXTRACT: note_off channel=5 note=28 velocity=95 time=0
EXTRACT: note_on channel=5 note=28 velocity=95 time=0
EXTRACT: note_off channel=7 note=76 velocity=95 time=0
EXTRACT: note_off channel=7 note=71 velocity=95 time=0
EXTRACT: note_off channel=7 note=66 velocity=95 time=0
EXTRACT: note_on channel=7 note=76 velocity=95 time=0
EXTRACT: note_on channel=7 note=71 velocity=95 time=0
EXTRACT: note_on channel=7 note=66 velocity=95 time=0
EXTRACT: note_off channel=13 note=47 velocity=95 time=0
EXTRACT: note_on channel=13 note=47 velocity=95 time=0
EXTRACT: note_on channel=13 note=40 velocity=95 time=0
EXTRACT: note_off channel=9 note=49 velocity=95 time=0
EXTRACT: note_off channel=9 note=36 velocity=95 time=0
EXTRACT: note_on channel=9 note=57 velocity=95 time=0
EXTRACT: note_on channel=9 note=36 velocity=95 time=0
EXTRACT: pitchwheel channel=12 pitch=128 time=0.08695649999999999
EXTRACT: pitchwheel channel=12 pitch=0 time=0.08695649999999999
EXTRACT: pitchwheel channel=12 pitch=128 time=0.08695649999999999
EXTRACT: pitchwheel channel=12 pitch=0 time=0.08695649999999999
EXTRACT: pitchwheel channel=12 pitch=128 time=0.08695649999999999
EXTRACT: pitchwheel channel=12 pitch=0 time=0.08695649999999999
EXTRACT: pitchwheel channel=12 pitch=128 time=0.08695649999999999
EXTRACT: pitchwheel channel=12 pitch=0 time=0.08695649999999999
EXTRACT: pitchwheel channel=12 pitch=128 time=0.08695649999999999
EXTRACT: note_off channel=9 note=57 velocity=95 time=0
EXTRACT: note_off channel=9 note=36 velocity=95 time=0
EXTRACT: pitchwheel channel=12 pitch=0 time=0.08695649999999999
EXTRACT: pitchwheel channel=12 pitch=128 time=0.08695649999999999
EXTRACT: pitchwheel channel=12 pitch=0 time=0.08695649999999999
EXTRACT: pitchwheel channel=12 pitch=128 time=0.08695649999999999
EXTRACT: pitchwheel channel=12 pitch=0 time=0.08695649999999999
EXTRACT: note_off channel=0 note=76 velocity=95 time=0.08695649999999999
EXTRACT: note_off channel=0 note=71 velocity=95 time=0
EXTRACT: note_off channel=0 note=66 velocity=95 time=0
EXTRACT: note_on channel=0 note=75 velocity=95 time=0
EXTRACT: note_on channel=0 note=71 velocity=95 time=0
EXTRACT: note_on channel=0 note=66 velocity=95 time=0
EXTRACT: note_off channel=8 note=28 velocity=95 time=0
EXTRACT: note_on channel=8 note=35 velocity=95 time=0
EXTRACT: pitchwheel channel=12 pitch=128 time=0
EXTRACT: note_off channel=5 note=28 velocity=95 time=0
EXTRACT: note_on channel=5 note=35 velocity=95 time=0
EXTRACT: note_off channel=7 note=76 velocity=95 time=0
EXTRACT: note_off channel=7 note=71 velocity=95 time=0
EXTRACT: note_off channel=7 note=66 velocity=95 time=0
EXTRACT: note_on channel=7 note=75 velocity=95 time=0
EXTRACT: note_on channel=7 note=71 velocity=95 time=0
EXTRACT: note_on channel=7 note=66 velocity=95 time=0
EXTRACT: note_off channel=13 note=47 velocity=95 time=0
EXTRACT: note_off channel=13 note=40 velocity=95 time=0
EXTRACT: note_on channel=13 note=47 velocity=95 time=0
EXTRACT: note_on channel=9 note=49 velocity=95 time=0
EXTRACT: note_on channel=9 note=36 velocity=95 time=0
EXTRACT: pitchwheel channel=12 pitch=0 time=0.08695649999999999
EXTRACT: pitchwheel channel=12 pitch=128 time=0.08695649999999999
EXTRACT: pitchwheel channel=12 pitch=0 time=0.08695649999999999
EXTRACT: pitchwheel channel=12 pitch=128 time=0.08695649999999999
EXTRACT: pitchwheel channel=12 pitch=0 time=0.08695649999999999
EXTRACT: note_off channel=0 note=75 velocity=95 time=0.08695649999999999
EXTRACT: note_off channel=0 note=71 velocity=95 time=0
EXTRACT: note_off channel=0 note=66 velocity=95 time=0
EXTRACT: note_on channel=0 note=76 velocity=95 time=0
EXTRACT: note_on channel=0 note=71 velocity=95 time=0
EXTRACT: note_on channel=0 note=66 velocity=95 time=0
EXTRACT: note_off channel=8 note=35 velocity=95 time=0
EXTRACT: note_on channel=8 note=33 velocity=95 time=0
EXTRACT: pitchwheel channel=12 pitch=128 time=0
EXTRACT: note_off channel=5 note=35 velocity=95 time=0
EXTRACT: note_on channel=5 note=33 velocity=95 time=0
EXTRACT: note_off channel=7 note=75 velocity=95 time=0
EXTRACT: note_off channel=7 note=71 velocity=95 time=0
EXTRACT: note_off channel=7 note=66 velocity=95 time=0
EXTRACT: note_on channel=7 note=76 velocity=95 time=0
EXTRACT: note_on channel=7 note=71 velocity=95 time=0
EXTRACT: note_on channel=7 note=66 velocity=95 time=0
EXTRACT: note_off channel=13 note=47 velocity=95 time=0
EXTRACT: note_on channel=13 note=57 velocity=95 time=0
EXTRACT: note_on channel=13 note=45 velocity=95 time=0
EXTRACT: note_off channel=9 note=49 velocity=95 time=0
EXTRACT: note_off channel=9 note=36 velocity=95 time=0
EXTRACT: note_on channel=9 note=57 velocity=95 time=0
EXTRACT: note_on channel=9 note=36 velocity=95 time=0
EXTRACT: pitchwheel channel=12 pitch=0 time=0.08695649999999999
EXTRACT: pitchwheel channel=12 pitch=128 time=0.08695649999999999
EXTRACT: note_off channel=0 note=76 velocity=95 time=0.08695649999999999
EXTRACT: note_off channel=0 note=71 velocity=95 time=0
EXTRACT: note_off channel=0 note=66 velocity=95 time=0
EXTRACT: note_on channel=0 note=73 velocity=95 time=0
EXTRACT: note_on channel=0 note=69 velocity=95 time=0
EXTRACT: note_on channel=0 note=64 velocity=95 time=0
EXTRACT: note_off channel=8 note=33 velocity=95 time=0
EXTRACT: note_on channel=8 note=33 velocity=95 time=0
EXTRACT: pitchwheel channel=12 pitch=0 time=0
EXTRACT: note_off channel=5 note=33 velocity=95 time=0
EXTRACT: note_on channel=5 note=33 velocity=95 time=0
EXTRACT: note_off channel=7 note=76 velocity=95 time=0
EXTRACT: note_off channel=7 note=71 velocity=95 time=0
EXTRACT: note_off channel=7 note=66 velocity=95 time=0
EXTRACT: note_on channel=7 note=73 velocity=95 time=0
EXTRACT: note_on channel=7 note=69 velocity=95 time=0
EXTRACT: note_on channel=7 note=64 velocity=95 time=0
EXTRACT: note_off channel=13 note=57 velocity=95 time=0
EXTRACT: note_off channel=13 note=45 velocity=95 time=0
EXTRACT: note_on channel=13 note=57 velocity=95 time=0
EXTRACT: note_on channel=13 note=45 velocity=95 time=0
EXTRACT: note_off channel=9 note=57 velocity=95 time=0
EXTRACT: note_off channel=9 note=36 velocity=95 time=0
EXTRACT: note_on channel=9 note=49 velocity=95 time=0
EXTRACT: note_on channel=9 note=36 velocity=95 time=0
EXTRACT: pitchwheel channel=12 pitch=128 time=0.08695649999999999
EXTRACT: pitchwheel channel=12 pitch=0 time=0.08695649999999999
EXTRACT: pitchwheel channel=12 pitch=128 time=0.08695649999999999
EXTRACT: pitchwheel channel=12 pitch=0 time=0.08695649999999999
EXTRACT: pitchwheel channel=12 pitch=128 time=0.08695649999999999
EXTRACT: pitchwheel channel=12 pitch=0 time=0.08695649999999999
EXTRACT: pitchwheel channel=12 pitch=128 time=0.08695649999999999
EXTRACT: pitchwheel channel=12 pitch=0 time=0.08695649999999999
EXTRACT: note_off channel=0 note=73 velocity=95 time=0.08695649999999999
EXTRACT: note_off channel=0 note=69 velocity=95 time=0
EXTRACT: note_off channel=0 note=64 velocity=95 time=0
EXTRACT: pitchwheel channel=12 pitch=128 time=0
EXTRACT: pitchwheel channel=12 pitch=0 time=0
EXTRACT: note_off channel=12 note=83 velocity=95 time=0
EXTRACT: note_off channel=7 note=73 velocity=95 time=0
EXTRACT: note_off channel=7 note=69 velocity=95 time=0
EXTRACT: note_off channel=7 note=64 velocity=95 time=0
EXTRACT: note_on channel=7 note=68 velocity=95 time=0
EXTRACT: note_off channel=13 note=57 velocity=95 time=0
EXTRACT: note_off channel=13 note=45 velocity=95 time=0
EXTRACT: note_on channel=14 note=57 velocity=95 time=0
EXTRACT: note_off channel=9 note=49 velocity=95 time=0
EXTRACT: note_off channel=9 note=36 velocity=95 time=0
EXTRACT: note_off channel=7 note=68 velocity=95 time=0.07445650312499999
EXTRACT: note_on channel=7 note=69 velocity=70 time=0
EXTRACT: note_off channel=7 note=69 velocity=70 time=0.07445650312499999
EXTRACT: note_on channel=7 note=71 velocity=70 time=0
EXTRACT: note_off channel=7 note=71 velocity=70 time=0.07445650312499999
EXTRACT: note_on channel=7 note=73 velocity=95 time=0
EXTRACT: note_off channel=7 note=73 velocity=95 time=0.07445650312499999
EXTRACT: note_on channel=7 note=75 velocity=70 time=0
EXTRACT: note_off channel=7 note=75 velocity=70 time=0.07445650312499999
EXTRACT: note_on channel=7 note=76 velocity=70 time=0
EXTRACT: note_off channel=7 note=76 velocity=70 time=0.07445650312499999
EXTRACT: note_on channel=7 note=78 velocity=95 time=0
EXTRACT: note_off channel=7 note=78 velocity=95 time=0.07445650312499999
EXTRACT: note_on channel=0 note=71 velocity=47 time=0.000543478125
EXTRACT: note_on channel=0 note=64 velocity=47 time=0
EXTRACT: note_off channel=8 note=33 velocity=95 time=0
EXTRACT: note_on channel=8 note=40 velocity=95 time=0
EXTRACT: note_on channel=8 note=28 velocity=95 time=0
EXTRACT: note_off channel=5 note=33 velocity=95 time=0
EXTRACT: note_on channel=5 note=28 velocity=95 time=0
EXTRACT: pitchwheel channel=7 pitch=0 time=0
EXTRACT: note_on channel=7 note=80 velocity=95 time=0
EXTRACT: note_off channel=14 note=57 velocity=95 time=0
EXTRACT: note_on channel=13 note=40 velocity=95 time=0
EXTRACT: note_on channel=9 note=49 velocity=95 time=0
EXTRACT: note_on channel=9 note=57 velocity=95 time=0
EXTRACT: note_on channel=9 note=36 velocity=95 time=0
EXTRACT: pitchwheel channel=7 pitch=128 time=0.07826084999999999
EXTRACT: pitchwheel channel=7 pitch=256 time=0.07826084999999999
EXTRACT: pitchwheel channel=7 pitch=384 time=0.07826084999999999
EXTRACT: note_off channel=0 note=71 velocity=47 time=0.026086949999999998
EXTRACT: note_off channel=0 note=64 velocity=47 time=0
EXTRACT: note_on channel=0 note=59 velocity=95 time=0
EXTRACT: pitchwheel channel=7 pitch=512 time=0.052173899999999995
EXTRACT: pitchwheel channel=7 pitch=640 time=0.07826084999999999
EXTRACT: pitchwheel channel=7 pitch=640 time=0
EXTRACT: note_off channel=0 note=59 velocity=95 time=0.13043475
EXTRACT: note_on channel=0 note=71 velocity=47 time=0
EXTRACT: note_on channel=0 note=64 velocity=63 time=0
EXTRACT: note_off channel=13 note=40 velocity=95 time=0
EXTRACT: note_on channel=13 note=64 velocity=95 time=0
EXTRACT: note_on channel=13 note=59 velocity=95 time=0
EXTRACT: note_off channel=9 note=49 velocity=95 time=0
EXTRACT: note_off channel=9 note=57 velocity=95 time=0
EXTRACT: note_off channel=9 note=36 velocity=95 time=0
EXTRACT: note_on channel=9 note=46 velocity=63 time=0
EXTRACT: note_on channel=9 note=40 velocity=95 time=0
EXTRACT: note_off channel=0 note=71 velocity=47 time=0.2608695
EXTRACT: note_off channel=0 note=64 velocity=63 time=0
EXTRACT: note_on channel=0 note=59 velocity=95 time=0
EXTRACT: pitchwheel channel=7 pitch=640 time=0
EXTRACT: pitchwheel channel=7 pitch=0 time=0
EXTRACT: note_off channel=7 note=80 velocity=95 time=0
EXTRACT: note_on channel=7 note=80 velocity=95 time=0
EXTRACT: pitchwheel channel=7 pitch=0 time=0.08695649999999999
EXTRACT: pitchwheel channel=7 pitch=128 time=0.08695649999999999
EXTRACT: note_off channel=0 note=59 velocity=95 time=0.08695649999999999
EXTRACT: note_on channel=0 note=71 velocity=47 time=0
EXTRACT: note_on channel=0 note=64 velocity=63 time=0
EXTRACT: pitchwheel channel=7 pitch=0 time=0
EXTRACT: note_off channel=13 note=64 velocity=95 time=0
EXTRACT: note_off channel=13 note=59 velocity=95 time=0
EXTRACT: note_on channel=13 note=40 velocity=95 time=0
EXTRACT: note_off channel=9 note=46 velocity=63 time=0
EXTRACT: note_off channel=9 note=40 velocity=95 time=0
EXTRACT: note_on channel=9 note=42 velocity=95 time=0
EXTRACT: note_on channel=9 note=36 velocity=95 time=0
EXTRACT: pitchwheel channel=7 pitch=128 time=0.08695649999999999
EXTRACT: pitchwheel channel=7 pitch=0 time=0.08695649999999999
EXTRACT: note_off channel=0 note=71 velocity=47 time=0.08695649999999999
EXTRACT: note_off channel=0 note=64 velocity=63 time=0
EXTRACT: note_on channel=0 note=59 velocity=95 time=0
EXTRACT: note_off channel=8 note=40 velocity=95 time=0
EXTRACT: note_off channel=8 note=28 velocity=95 time=0
EXTRACT: note_on channel=8 note=30 velocity=95 time=0
EXTRACT: note_off channel=5 note=28 velocity=95 time=0
EXTRACT: note_on channel=5 note=30 velocity=95 time=0
EXTRACT: pitchwheel channel=7 pitch=128 time=0
EXTRACT: note_off channel=13 note=40 velocity=95 time=0
EXTRACT: note_on channel=13 note=42 velocity=95 time=0
EXTRACT: note_off channel=9 note=42 velocity=95 time=0
EXTRACT: note_off channel=9 note=36 velocity=95 time=0
EXTRACT: note_on channel=9 note=53 velocity=95 time=0
EXTRACT: pitchwheel channel=7 pitch=0 time=0.08695649999999999
EXTRACT: pitchwheel channel=7 pitch=128 time=0.08695649999999999
EXTRACT: note_off channel=0 note=59 velocity=95 time=0.08695649999999999
EXTRACT: note_on channel=0 note=71 velocity=47 time=0
EXTRACT: note_on channel=0 note=64 velocity=63 time=0
EXTRACT: note_off channel=8 note=30 velocity=95 time=0
EXTRACT: note_on channel=8 note=32 velocity=95 time=0
EXTRACT: note_off channel=5 note=30 velocity=95 time=0
EXTRACT: note_on channel=5 note=32 velocity=95 time=0
EXTRACT: pitchwheel channel=7 pitch=0 time=0
EXTRACT: note_off channel=13 note=42 velocity=95 time=0
EXTRACT: note_on channel=13 note=44 velocity=95 time=0
EXTRACT: note_off channel=9 note=53 velocity=95 time=0
EXTRACT: note_on channel=9 note=42 velocity=95 time=0
EXTRACT: note_on channel=9 note=43 velocity=95 time=0
EXTRACT: pitchwheel channel=7 pitch=128 time=0.08695649999999999
EXTRACT: pitchwheel channel=7 pitch=0 time=0.08695649999999999
EXTRACT: note_off channel=0 note=71 velocity=47 time=0.08695649999999999
EXTRACT: note_off channel=0 note=64 velocity=63 time=0
EXTRACT: note_on channel=0 note=59 velocity=95 time=0
EXTRACT: note_off channel=8 note=32 velocity=95 time=0
EXTRACT: note_on channel=8 note=47 velocity=95 time=0
EXTRACT: note_on channel=8 note=35 velocity=95 time=0
EXTRACT: note_off channel=5 note=32 velocity=95 time=0
EXTRACT: note_on channel=5 note=35 velocity=95 time=0
EXTRACT: pitchwheel channel=7 pitch=128 time=0
EXTRACT: pitchwheel channel=7 pitch=0 time=0
EXTRACT: note_off channel=7 note=80 velocity=95 time=0
EXTRACT: note_on channel=7 note=78 velocity=95 time=0
EXTRACT: note_off channel=13 note=44 velocity=95 time=0
EXTRACT: note_on channel=14 note=47 velocity=95 time=0
EXTRACT: pitchwheel channel=14 pitch=0 time=0.08695649999999999
EXTRACT: pitchwheel channel=14 pitch=128 time=0.08695649999999999
EXTRACT: note_off channel=0 note=59 velocity=95 time=0.08695649999999999
EXTRACT: note_on channel=0 note=71 velocity=47 time=0
EXTRACT: note_on channel=0 note=66 velocity=47 time=0
EXTRACT: note_off channel=7 note=78 velocity=95 time=0
EXTRACT: pitchwheel channel=7 pitch=0 time=0
EXTRACT: note_on channel=7 note=80 velocity=95 time=0
EXTRACT: pitchwheel channel=14 pitch=0 time=0
EXTRACT: note_off channel=9 note=42 velocity=95 time=0
EXTRACT: note_off channel=9 note=43 velocity=95 time=0
EXTRACT: note_on channel=9 note=42 velocity=95 time=0
EXTRACT: note_on channel=9 note=36 velocity=95 time=0
EXTRACT: pitchwheel channel=7 pitch=128 time=0.07826084999999999
EXTRACT: pitchwheel channel=14 pitch=128 time=0.00869565
EXTRACT: pitchwheel channel=7 pitch=256 time=0.0695652
EXTRACT: pitchwheel channel=14 pitch=0 time=0.0173913
EXTRACT: pitchwheel channel=7 pitch=384 time=0.060869549999999994
EXTRACT: note_off channel=0 note=71 velocity=47 time=0.026086949999999998
EXTRACT: note_off channel=0 note=66 velocity=47 time=0
EXTRACT: note_on channel=0 note=59 velocity=95 time=0
EXTRACT: pitchwheel channel=14 pitch=128 time=0
EXTRACT: pitchwheel channel=7 pitch=512 time=0.052173899999999995
EXTRACT: pitchwheel channel=14 pitch=0 time=0.0347826
EXTRACT: pitchwheel channel=7 pitch=640 time=0.043478249999999996
EXTRACT: pitchwheel channel=7 pitch=640 time=0
EXTRACT: pitchwheel channel=14 pitch=128 time=0.043478249999999996
EXTRACT: note_off channel=0 note=59 velocity=95 time=0.08695649999999999
EXTRACT: note_on channel=0 note=71 velocity=47 time=0
EXTRACT: note_on channel=0 note=66 velocity=47 time=0
EXTRACT: pitchwheel channel=14 pitch=0 time=0
EXTRACT: note_off channel=9 note=42 velocity=95 time=0
EXTRACT: note_off channel=9 note=36 velocity=95 time=0
EXTRACT: note_on channel=9 note=42 velocity=63 time=0
EXTRACT: note_on channel=9 note=40 velocity=95 time=0
EXTRACT: pitchwheel channel=14 pitch=128 time=0.08695649999999999
EXTRACT: pitchwheel channel=14 pitch=0 time=0.08695649999999999
EXTRACT: note_off channel=0 note=71 velocity=47 time=0.08695649999999999
EXTRACT: note_off channel=0 note=66 velocity=47 time=0
EXTRACT: note_on channel=0 note=59 velocity=95 time=0
EXTRACT: pitchwheel channel=7 pitch=640 time=0
EXTRACT: pitchwheel channel=7 pitch=0 time=0
EXTRACT: note_off channel=7 note=80 velocity=95 time=0
EXTRACT: note_on channel=7 note=80 velocity=95 time=0
EXTRACT: pitchwheel channel=14 pitch=128 time=0
EXTRACT: pitchwheel channel=7 pitch=0 time=0.08695649999999999
EXTRACT: pitchwheel channel=14 pitch=0 time=0
EXTRACT: pitchwheel channel=7 pitch=128 time=0.08695649999999999
EXTRACT: pitchwheel channel=14 pitch=128 time=0
EXTRACT: note_off channel=0 note=59 velocity=95 time=0.08695649999999999
EXTRACT: note_on channel=0 note=71 velocity=63 time=0
EXTRACT: note_on channel=0 note=66 velocity=47 time=0
EXTRACT: pitchwheel channel=7 pitch=0 time=0
EXTRACT: pitchwheel channel=14 pitch=0 time=0
EXTRACT: pitchwheel channel=14 pitch=128 time=0
EXTRACT: pitchwheel channel=14 pitch=0 time=0
EXTRACT: note_off channel=14 note=47 velocity=95 time=0
EXTRACT: note_on channel=13 note=47 velocity=95 time=0
EXTRACT: note_off channel=9 note=42 velocity=63 time=0
EXTRACT: note_off channel=9 note=40 velocity=95 time=0
EXTRACT: note_on channel=9 note=42 velocity=95 time=0
EXTRACT: note_on channel=9 note=36 velocity=95 time=0
EXTRACT: pitchwheel channel=7 pitch=128 time=0.08695649999999999
EXTRACT: pitchwheel channel=7 pitch=0 time=0.08695649999999999
EXTRACT: note_off channel=0 note=71 velocity=63 time=0.08695649999999999
EXTRACT: note_off channel=0 note=66 velocity=47 time=0
EXTRACT: note_on channel=0 note=59 velocity=95 time=0
EXTRACT: note_off channel=8 note=47 velocity=95 time=0
EXTRACT: note_off channel=8 note=35 velocity=95 time=0
EXTRACT: note_on channel=8 note=37 velocity=95 time=0
EXTRACT: note_off channel=5 note=35 velocity=95 time=0
EXTRACT: note_on channel=5 note=37 velocity=95 time=0
EXTRACT: pitchwheel channel=7 pitch=128 time=0
EXTRACT: note_off channel=13 note=47 velocity=95 time=0
EXTRACT: note_on channel=13 note=49 velocity=95 time=0
EXTRACT: note_off channel=9 note=42 velocity=95 time=0
EXTRACT: note_off channel=9 note=36 velocity=95 time=0
EXTRACT: note_on channel=9 note=53 velocity=95 time=0
EXTRACT: note_on channel=9 note=45 velocity=95 time=0
EXTRACT: pitchwheel channel=7 pitch=0 time=0.08695649999999999
EXTRACT: pitchwheel channel=7 pitch=128 time=0.08695649999999999
EXTRACT: note_off channel=0 note=59 velocity=95 time=0.08695649999999999
EXTRACT: note_on channel=0 note=71 velocity=47 time=0
EXTRACT: note_on channel=0 note=66 velocity=47 time=0
EXTRACT: note_off channel=8 note=37 velocity=95 time=0
EXTRACT: note_on channel=8 note=39 velocity=95 time=0
EXTRACT: note_off channel=5 note=37 velocity=95 time=0
EXTRACT: note_on channel=5 note=39 velocity=95 time=0
EXTRACT: pitchwheel channel=7 pitch=0 time=0
EXTRACT: note_off channel=13 note=49 velocity=95 time=0
EXTRACT: note_on channel=13 note=51 velocity=95 time=0
EXTRACT: note_off channel=9 note=53 velocity=95 time=0
EXTRACT: note_off channel=9 note=45 velocity=95 time=0
EXTRACT: note_on channel=9 note=42 velocity=95 time=0
EXTRACT: note_on channel=9 note=36 velocity=95 time=0
EXTRACT: pitchwheel channel=7 pitch=128 time=0.08695649999999999
EXTRACT: pitchwheel channel=7 pitch=0 time=0.08695649999999999
EXTRACT: note_off channel=0 note=71 velocity=47 time=0.08695649999999999
EXTRACT: note_off channel=0 note=66 velocity=47 time=0
EXTRACT: note_on channel=0 note=59 velocity=95 time=0
EXTRACT: note_off channel=8 note=39 velocity=95 time=0
EXTRACT: note_on channel=8 note=37 velocity=95 time=0
EXTRACT: note_off channel=5 note=39 velocity=95 time=0
EXTRACT: note_on channel=5 note=37 velocity=95 time=0
EXTRACT: pitchwheel channel=7 pitch=128 time=0
EXTRACT: note_off channel=13 note=51 velocity=95 time=0
EXTRACT: note_on channel=14 note=49 velocity=95 time=0
EXTRACT: note_off channel=9 note=42 velocity=95 time=0
EXTRACT: note_off channel=9 note=36 velocity=95 time=0
EXTRACT: note_on channel=9 note=43 velocity=95 time=0
EXTRACT: pitchwheel channel=7 pitch=0 time=0.08695649999999999
EXTRACT: pitchwheel channel=14 pitch=0 time=0
EXTRACT: pitchwheel channel=7 pitch=128 time=0.08695649999999999
EXTRACT: pitchwheel channel=14 pitch=128 time=0
EXTRACT: note_off channel=0 note=59 velocity=95 time=0.08695649999999999
EXTRACT: note_on channel=0 note=71 velocity=63 time=0
EXTRACT: note_on channel=0 note=64 velocity=47 time=0
EXTRACT: pitchwheel channel=7 pitch=0 time=0
EXTRACT: pitchwheel channel=14 pitch=0 time=0
EXTRACT: note_off channel=9 note=43 velocity=95 time=0
EXTRACT: note_on channel=9 note=49 velocity=95 time=0
EXTRACT: note_on channel=9 note=57 velocity=95 time=0
EXTRACT: note_on channel=9 note=36 velocity=95 time=0
EXTRACT: pitchwheel channel=7 pitch=128 time=0.08695649999999999
EXTRACT: pitchwheel channel=14 pitch=128 time=0
EXTRACT: pitchwheel channel=7 pitch=0 time=0.08695649999999999
EXTRACT: pitchwheel channel=14 pitch=0 time=0
EXTRACT: note_off channel=0 note=71 velocity=63 time=0.08695649999999999
EXTRACT: note_off channel=0 note=64 velocity=47 time=0
EXTRACT: note_on channel=0 note=59 velocity=47 time=0
EXTRACT: pitchwheel channel=7 pitch=128 time=0
EXTRACT: pitchwheel channel=14 pitch=128 time=0
EXTRACT: pitchwheel channel=7 pitch=0 time=0.08695649999999999
EXTRACT: pitchwheel channel=14 pitch=0 time=0
EXTRACT: pitchwheel channel=7 pitch=128 time=0.08695649999999999
EXTRACT: pitchwheel channel=14 pitch=128 time=0
EXTRACT: note_off channel=0 note=59 velocity=47 time=0.08695649999999999
EXTRACT: note_on channel=0 note=71 velocity=63 time=0
EXTRACT: note_on channel=0 note=64 velocity=63 time=0
EXTRACT: pitchwheel channel=7 pitch=0 time=0
EXTRACT: pitchwheel channel=14 pitch=0 time=0
EXTRACT: note_off channel=9 note=49 velocity=95 time=0
EXTRACT: note_off channel=9 note=57 velocity=95 time=0
EXTRACT: note_off channel=9 note=36 velocity=95 time=0
EXTRACT: note_on channel=9 note=46 velocity=63 time=0
EXTRACT: note_on channel=9 note=40 velocity=95 time=0
EXTRACT: pitchwheel channel=7 pitch=128 time=0.08695649999999999
EXTRACT: pitchwheel channel=14 pitch=128 time=0
EXTRACT: pitchwheel channel=7 pitch=0 time=0.08695649999999999
EXTRACT: pitchwheel channel=14 pitch=0 time=0
EXTRACT: note_off channel=0 note=71 velocity=63 time=0.08695649999999999
EXTRACT: note_off channel=0 note=64 velocity=63 time=0
EXTRACT: note_on channel=0 note=59 velocity=47 time=0
EXTRACT: pitchwheel channel=7 pitch=128 time=0
EXTRACT: pitchwheel channel=7 pitch=0 time=0
EXTRACT: note_off channel=7 note=80 velocity=95 time=0
EXTRACT: note_on channel=7 note=80 velocity=95 time=0
EXTRACT: pitchwheel channel=14 pitch=128 time=0
EXTRACT: pitchwheel channel=14 pitch=0 time=0.08695649999999999
EXTRACT: pitchwheel channel=14 pitch=128 time=0.08695649999999999
EXTRACT: note_off channel=0 note=59 velocity=47 time=0.08695649999999999
EXTRACT: note_on channel=0 note=71 velocity=63 time=0
EXTRACT: note_on channel=0 note=64 velocity=63 time=0
EXTRACT: note_off channel=7 note=80 velocity=95 time=0
EXTRACT: pitchwheel channel=7 pitch=640 time=0
EXTRACT: note_on channel=7 note=80 velocity=95 time=0
EXTRACT: pitchwheel channel=14 pitch=0 time=0
EXTRACT: note_off channel=9 note=46 velocity=63 time=0
EXTRACT: note_off channel=9 note=40 velocity=95 time=0
EXTRACT: note_on channel=9 note=42 velocity=95 time=0
EXTRACT: note_on channel=9 note=36 velocity=95 time=0
EXTRACT: pitchwheel channel=14 pitch=128 time=0.08695649999999999
EXTRACT: pitchwheel channel=7 pitch=640 time=0.08695649999999999
EXTRACT: pitchwheel channel=14 pitch=0 time=0
EXTRACT: pitchwheel channel=7 pitch=512 time=0.0347826
EXTRACT: pitchwheel channel=7 pitch=384 time=0.0347826
EXTRACT: note_off channel=0 note=71 velocity=63 time=0.0173913
EXTRACT: note_off channel=0 note=64 velocity=63 time=0
EXTRACT: note_on channel=0 note=59 velocity=47 time=0
EXTRACT: note_off channel=8 note=37 velocity=95 time=0
EXTRACT: note_on channel=8 note=39 velocity=95 time=0
EXTRACT: note_off channel=5 note=37 velocity=95 time=0
EXTRACT: note_on channel=5 note=39 velocity=95 time=0
EXTRACT: pitchwheel channel=14 pitch=128 time=0
EXTRACT: pitchwheel channel=14 pitch=0 time=0
EXTRACT: note_off channel=14 note=49 velocity=95 time=0
EXTRACT: note_on channel=13 note=51 velocity=95 time=0
EXTRACT: note_off channel=9 note=42 velocity=95 time=0
EXTRACT: note_off channel=9 note=36 velocity=95 time=0
EXTRACT: note_on channel=9 note=53 velocity=95 time=0
EXTRACT: pitchwheel channel=7 pitch=256 time=0.0173913
EXTRACT: pitchwheel channel=7 pitch=128 time=0.0347826
EXTRACT: pitchwheel channel=7 pitch=0 time=0.0347826
EXTRACT: pitchwheel channel=7 pitch=0 time=0
EXTRACT: note_off channel=0 note=59 velocity=47 time=0.17391299999999998
EXTRACT: note_on channel=0 note=71 velocity=63 time=0
EXTRACT: note_on channel=0 note=64 velocity=47 time=0
EXTRACT: note_off channel=8 note=39 velocity=95 time=0
EXTRACT: note_on channel=8 note=40 velocity=95 time=0
EXTRACT: note_off channel=5 note=39 velocity=95 time=0
EXTRACT: note_on channel=5 note=40 velocity=95 time=0
EXTRACT: pitchwheel channel=7 pitch=0 time=0
EXTRACT: pitchwheel channel=7 pitch=0 time=0
EXTRACT: note_off channel=7 note=80 velocity=95 time=0
EXTRACT: note_on channel=7 note=78 velocity=95 time=0
EXTRACT: note_off channel=13 note=51 velocity=95 time=0
EXTRACT: note_on channel=13 note=52 velocity=95 time=0
EXTRACT: note_off channel=9 note=53 velocity=95 time=0
EXTRACT: note_on channel=9 note=42 velocity=95 time=0
EXTRACT: note_on channel=9 note=43 velocity=95 time=0
EXTRACT: note_off channel=0 note=71 velocity=63 time=0.2608695
EXTRACT: note_off channel=0 note=64 velocity=47 time=0
EXTRACT: note_on channel=0 note=59 velocity=47 time=0
EXTRACT: note_off channel=8 note=40 velocity=95 time=0
EXTRACT: note_on channel=8 note=33 velocity=95 time=0
EXTRACT: note_off channel=5 note=40 velocity=95 time=0
EXTRACT: note_on channel=5 note=33 velocity=95 time=0
EXTRACT: note_off channel=7 note=78 velocity=95 time=0
EXTRACT: note_on channel=7 note=76 velocity=95 time=0
EXTRACT: note_off channel=13 note=52 velocity=95 time=0
EXTRACT: note_on channel=14 note=45 velocity=95 time=0
EXTRACT: pitchwheel channel=14 pitch=0 time=0.08695649999999999
EXTRACT: pitchwheel channel=14 pitch=128 time=0.08695649999999999
EXTRACT: note_off channel=0 note=59 velocity=47 time=0.08695649999999999
EXTRACT: note_on channel=0 note=69 velocity=47 time=0
EXTRACT: note_on channel=0 note=61 velocity=47 time=0
EXTRACT: note_off channel=7 note=76 velocity=95 time=0
EXTRACT: note_on channel=7 note=75 velocity=95 time=0
EXTRACT: pitchwheel channel=14 pitch=0 time=0
EXTRACT: note_off channel=9 note=42 velocity=95 time=0
EXTRACT: note_off channel=9 note=43 velocity=95 time=0
EXTRACT: note_on channel=9 note=42 velocity=95 time=0
EXTRACT: note_on channel=9 note=36 velocity=95 time=0
EXTRACT: pitchwheel channel=7 pitch=0 time=0.08695649999999999
EXTRACT: pitchwheel channel=14 pitch=128 time=0
EXTRACT: pitchwheel channel=7 pitch=128 time=0.08695649999999999
EXTRACT: pitchwheel channel=14 pitch=0 time=0
EXTRACT: note_off channel=0 note=69 velocity=47 time=0.08695649999999999
EXTRACT: note_off channel=0 note=61 velocity=47 time=0
EXTRACT: note_on channel=0 note=57 velocity=47 time=0
EXTRACT: pitchwheel channel=7 pitch=0 time=0
EXTRACT: pitchwheel channel=14 pitch=128 time=0
EXTRACT: pitchwheel channel=7 pitch=128 time=0.08695649999999999
EXTRACT: pitchwheel channel=14 pitch=0 time=0
EXTRACT: pitchwheel channel=7 pitch=0 time=0.08695649999999999
EXTRACT: pitchwheel channel=14 pitch=128 time=0
EXTRACT: note_off channel=0 note=57 velocity=47 time=0.08695649999999999
EXTRACT: note_on channel=0 note=69 velocity=63 time=0
EXTRACT: note_on channel=0 note=61 velocity=63 time=0
EXTRACT: pitchwheel channel=7 pitch=128 time=0
EXTRACT: pitchwheel channel=7 pitch=0 time=0
EXTRACT: note_off channel=7 note=75 velocity=95 time=0
EXTRACT: note_on channel=7 note=76 velocity=95 time=0
EXTRACT: pitchwheel channel=14 pitch=0 time=0
EXTRACT: note_off channel=9 note=42 velocity=95 time=0
EXTRACT: note_off channel=9 note=36 velocity=95 time=0
EXTRACT: note_on channel=9 note=46 velocity=63 time=0
EXTRACT: note_on channel=9 note=40 velocity=95 time=0
EXTRACT: pitchwheel channel=14 pitch=128 time=0.08695649999999999
EXTRACT: pitchwheel channel=14 pitch=0 time=0.08695649999999999
EXTRACT: note_off channel=0 note=69 velocity=63 time=0.08695649999999999
EXTRACT: note_off channel=0 note=61 velocity=63 time=0
EXTRACT: note_on channel=0 note=57 velocity=47 time=0
EXTRACT: note_off channel=7 note=76 velocity=95 time=0
EXTRACT: note_on channel=7 note=73 velocity=95 time=0
EXTRACT: pitchwheel channel=14 pitch=128 time=0
EXTRACT: pitchwheel channel=7 pitch=0 time=0.08695649999999999
EXTRACT: pitchwheel channel=14 pitch=0 time=0
EXTRACT: pitchwheel channel=7 pitch=128 time=0.08695649999999999
EXTRACT: pitchwheel channel=14 pitch=128 time=0
EXTRACT: note_off channel=0 note=57 velocity=47 time=0.08695649999999999
EXTRACT: note_on channel=0 note=69 velocity=63 time=0
EXTRACT: note_on channel=0 note=61 velocity=47 time=0
EXTRACT: pitchwheel channel=7 pitch=0 time=0
EXTRACT: pitchwheel channel=14 pitch=0 time=0
EXTRACT: note_off channel=9 note=46 velocity=63 time=0
EXTRACT: note_off channel=9 note=40 velocity=95 time=0
EXTRACT: note_on channel=9 note=42 velocity=95 time=0
EXTRACT: note_on channel=9 note=36 velocity=95 time=0
EXTRACT: pitchwheel channel=7 pitch=128 time=0.08695649999999999
EXTRACT: pitchwheel channel=14 pitch=128 time=0
EXTRACT: pitchwheel channel=7 pitch=0 time=0.08695649999999999
EXTRACT: pitchwheel channel=14 pitch=0 time=0
EXTRACT: note_off channel=0 note=69 velocity=63 time=0.08695649999999999
EXTRACT: note_off channel=0 note=61 velocity=47 time=0
EXTRACT: note_on channel=0 note=57 velocity=63 time=0
EXTRACT: note_off channel=8 note=33 velocity=95 time=0
EXTRACT: note_on channel=8 note=39 velocity=95 time=0
EXTRACT: note_off channel=5 note=33 velocity=95 time=0
EXTRACT: note_on channel=5 note=39 velocity=95 time=0
EXTRACT: pitchwheel channel=7 pitch=128 time=0
EXTRACT: pitchwheel channel=14 pitch=128 time=0
EXTRACT: pitchwheel channel=14 pitch=0 time=0
EXTRACT: note_off channel=14 note=45 velocity=95 time=0
EXTRACT: note_on channel=13 note=51 velocity=95 time=0
EXTRACT: note_off channel=9 note=42 velocity=95 time=0
EXTRACT: note_off channel=9 note=36 velocity=95 time=0
EXTRACT: note_on channel=9 note=53 velocity=95 time=0
EXTRACT: note_on channel=9 note=36 velocity=95 time=0
EXTRACT: pitchwheel channel=7 pitch=0 time=0.08695649999999999
EXTRACT: pitchwheel channel=7 pitch=128 time=0.08695649999999999
EXTRACT: note_off channel=0 note=57 velocity=63 time=0.08695649999999999
EXTRACT: note_on channel=0 note=69 velocity=63 time=0
EXTRACT: note_on channel=0 note=61 velocity=47 time=0
EXTRACT: note_off channel=8 note=39 velocity=95 time=0
EXTRACT: note_on channel=8 note=40 velocity=95 time=0
EXTRACT: note_off channel=5 note=39 velocity=95 time=0
EXTRACT: note_on channel=5 note=40 velocity=95 time=0
EXTRACT: pitchwheel channel=7 pitch=0 time=0
EXTRACT: pitchwheel channel=7 pitch=128 time=0
EXTRACT: pitchwheel channel=7 pitch=0 time=0
EXTRACT: note_off channel=7 note=73 velocity=95 time=0
EXTRACT: note_on channel=7 note=71 velocity=95 time=0
EXTRACT: note_off channel=13 note=51 velocity=95 time=0
EXTRACT: note_on channel=13 note=52 velocity=95 time=0
EXTRACT: note_off channel=9 note=53 velocity=95 time=0
EXTRACT: note_off channel=9 note=36 velocity=95 time=0
EXTRACT: note_on channel=9 note=42 velocity=95 time=0
EXTRACT: note_on channel=9 note=45 velocity=95 time=0
EXTRACT: note_off channel=0 note=69 velocity=63 time=0.2608695
EXTRACT: note_off channel=0 note=61 velocity=47 time=0
EXTRACT: note_on channel=0 note=57 velocity=47 time=0
EXTRACT: note_off channel=8 note=40 velocity=95 time=0
EXTRACT: note_on channel=8 note=28 velocity=95 time=0
EXTRACT: note_off channel=5 note=40 velocity=95 time=0
EXTRACT: note_on channel=5 note=28 velocity=95 time=0
EXTRACT: note_off channel=7 note=71 velocity=95 time=0
EXTRACT: note_on channel=7 note=69 velocity=95 time=0
EXTRACT: note_off channel=13 note=52 velocity=95 time=0
EXTRACT: note_on channel=13 note=40 velocity=95 time=0
EXTRACT: note_off channel=9 note=42 velocity=95 time=0
EXTRACT: note_off channel=9 note=45 velocity=95 time=0
EXTRACT: note_on channel=9 note=43 velocity=95 time=0
EXTRACT: note_off channel=0 note=57 velocity=47 time=0.2608695
EXTRACT: note_on channel=0 note=71 velocity=47 time=0
EXTRACT: note_on channel=0 note=64 velocity=47 time=0
EXTRACT: note_off channel=7 note=69 velocity=95 time=0
EXTRACT: pitchwheel channel=7 pitch=0 time=0
EXTRACT: note_on channel=7 note=80 velocity=95 time=0
EXTRACT: note_off channel=9 note=43 velocity=95 time=0
EXTRACT: note_on channel=9 note=49 velocity=95 time=0
EXTRACT: note_on channel=9 note=57 velocity=95 time=0
EXTRACT: note_on channel=9 note=36 velocity=95 time=0
EXTRACT: pitchwheel channel=7 pitch=128 time=0.039130424999999996
EXTRACT: pitchwheel channel=7 pitch=256 time=0.039130424999999996
EXTRACT: pitchwheel channel=7 pitch=384 time=0.039130424999999996
EXTRACT: pitchwheel channel=7 pitch=512 time=0.039130424999999996
EXTRACT: pitchwheel channel=7 pitch=640 time=0.039130424999999996
EXTRACT: pitchwheel channel=7 pitch=640 time=0
EXTRACT: note_off channel=0 note=71 velocity=47 time=0.065217375
EXTRACT: note_off channel=0 note=64 velocity=47 time=0
EXTRACT: note_on channel=0 note=59 velocity=95 time=0
EXTRACT: pitchwheel channel=7 pitch=640 time=0.13043475
EXTRACT: pitchwheel channel=7 pitch=512 time=0.039130424999999996
EXTRACT: pitchwheel channel=7 pitch=384 time=0.039130424999999996
EXTRACT: pitchwheel channel=7 pitch=256 time=0.039130424999999996
EXTRACT: note_off channel=0 note=59 velocity=95 time=0.013043474999999999
EXTRACT: note_on channel=0 note=71 velocity=47 time=0
EXTRACT: note_on channel=0 note=64 velocity=63 time=0
EXTRACT: note_off channel=13 note=40 velocity=95 time=0
EXTRACT: note_on channel=13 note=64 velocity=95 time=0
EXTRACT: note_on channel=13 note=59 velocity=95 time=0
EXTRACT: note_off channel=9 note=49 velocity=95 time=0
EXTRACT: note_off channel=9 note=57 velocity=95 time=0
EXTRACT: note_off channel=9 note=36 velocity=95 time=0
EXTRACT: note_on channel=9 note=46 velocity=63 time=0
EXTRACT: note_on channel=9 note=40 velocity=95 time=0
EXTRACT: pitchwheel channel=7 pitch=128 time=0.026086949999999998
EXTRACT: pitchwheel channel=7 pitch=0 time=0.039130424999999996
EXTRACT: pitchwheel channel=7 pitch=0 time=0
EXTRACT: note_off channel=0 note=71 velocity=47 time=0.19565212499999998
EXTRACT: note_off channel=0 note=64 velocity=63 time=0
EXTRACT: note_on channel=0 note=59 velocity=95 time=0
EXTRACT: pitchwheel channel=7 pitch=0 time=0
EXTRACT: pitchwheel channel=7 pitch=0 time=0
EXTRACT: note_off channel=7 note=80 velocity=95 time=0
EXTRACT: note_on channel=7 note=80 velocity=95 time=0
EXTRACT: pitchwheel channel=7 pitch=0 time=0.08695649999999999
EXTRACT: pitchwheel channel=7 pitch=128 time=0.08695649999999999
EXTRACT: note_off channel=0 note=59 velocity=95 time=0.08695649999999999
EXTRACT: note_on channel=0 note=71 velocity=47 time=0
EXTRACT: note_on channel=0 note=64 velocity=63 time=0
EXTRACT: pitchwheel channel=7 pitch=0 time=0
EXTRACT: note_off channel=13 note=64 velocity=95 time=0
EXTRACT: note_off channel=13 note=59 velocity=95 time=0
EXTRACT: note_on channel=13 note=40 velocity=95 time=0
EXTRACT: note_off channel=9 note=46 velocity=63 time=0
EXTRACT: note_off channel=9 note=40 velocity=95 time=0
EXTRACT: note_on channel=9 note=42 velocity=95 time=0
EXTRACT: note_on channel=9 note=36 velocity=95 time=0
EXTRACT: pitchwheel channel=7 pitch=128 time=0.08695649999999999
EXTRACT: pitchwheel channel=7 pitch=0 time=0.08695649999999999
EXTRACT: note_off channel=0 note=71 velocity=47 time=0.08695649999999999
EXTRACT: note_off channel=0 note=64 velocity=63 time=0
EXTRACT: note_on channel=0 note=59 velocity=95 time=0
EXTRACT: note_off channel=8 note=28 velocity=95 time=0
EXTRACT: note_on channel=8 note=30 velocity=95 time=0
EXTRACT: note_off channel=5 note=28 velocity=95 time=0
EXTRACT: note_on channel=5 note=30 velocity=95 time=0
EXTRACT: pitchwheel channel=7 pitch=128 time=0
EXTRACT: note_off channel=13 note=40 velocity=95 time=0
EXTRACT: note_on channel=13 note=42 velocity=95 time=0
EXTRACT: note_off channel=9 note=42 velocity=95 time=0
EXTRACT: note_off channel=9 note=36 velocity=95 time=0
EXTRACT: note_on channel=9 note=53 velocity=95 time=0
EXTRACT: pitchwheel channel=7 pitch=0 time=0.08695649999999999
EXTRACT: pitchwheel channel=7 pitch=128 time=0.08695649999999999
EXTRACT: note_off channel=0 note=59 velocity=95 time=0.08695649999999999
EXTRACT: note_on channel=0 note=71 velocity=47 time=0
EXTRACT: note_on channel=0 note=64 velocity=63 time=0
EXTRACT: note_off channel=8 note=30 velocity=95 time=0
EXTRACT: note_on channel=8 note=32 velocity=95 time=0
EXTRACT: note_off channel=5 note=30 velocity=95 time=0
EXTRACT: note_on channel=5 note=32 velocity=95 time=0
EXTRACT: pitchwheel channel=7 pitch=0 time=0
EXTRACT: note_off channel=13 note=42 velocity=95 time=0
EXTRACT: note_on channel=13 note=44 velocity=95 time=0
EXTRACT: note_off channel=9 note=53 velocity=95 time=0
EXTRACT: note_on channel=9 note=42 velocity=95 time=0
EXTRACT: note_on channel=9 note=43 velocity=95 time=0
EXTRACT: pitchwheel channel=7 pitch=128 time=0.08695649999999999
EXTRACT: pitchwheel channel=7 pitch=0 time=0.08695649999999999
EXTRACT: note_off channel=0 note=71 velocity=47 time=0.08695649999999999
EXTRACT: note_off channel=0 note=64 velocity=63 time=0
EXTRACT: note_on channel=0 note=59 velocity=95 time=0
EXTRACT: note_off channel=8 note=32 velocity=95 time=0
EXTRACT: note_on channel=8 note=35 velocity=95 time=0
EXTRACT: note_off channel=5 note=32 velocity=95 time=0
EXTRACT: note_on channel=5 note=35 velocity=95 time=0
EXTRACT: pitchwheel channel=7 pitch=128 time=0
EXTRACT: pitchwheel channel=7 pitch=0 time=0
EXTRACT: note_off channel=7 note=80 velocity=95 time=0
EXTRACT: note_on channel=7 note=78 velocity=95 time=0
EXTRACT: note_off channel=13 note=44 velocity=95 time=0
EXTRACT: note_on channel=14 note=47 velocity=95 time=0
EXTRACT: pitchwheel channel=14 pitch=0 time=0.08695649999999999
EXTRACT: pitchwheel channel=14 pitch=128 time=0.08695649999999999
EXTRACT: note_off channel=0 note=59 velocity=95 time=0.08695649999999999
EXTRACT: note_on channel=0 note=71 velocity=47 time=0
EXTRACT: note_on channel=0 note=66 velocity=47 time=0
EXTRACT: note_off channel=7 note=78 velocity=95 time=0
EXTRACT: pitchwheel channel=7 pitch=0 time=0
EXTRACT: note_on channel=7 note=80 velocity=95 time=0
EXTRACT: pitchwheel channel=14 pitch=0 time=0
EXTRACT: note_off channel=9 note=42 velocity=95 time=0
EXTRACT: note_off channel=9 note=43 velocity=95 time=0
EXTRACT: note_on channel=9 note=42 velocity=95 time=0
EXTRACT: note_on channel=9 note=36 velocity=95 time=0
EXTRACT: pitchwheel channel=7 pitch=128 time=0.07826084999999999
EXTRACT: pitchwheel channel=14 pitch=128 time=0.00869565
EXTRACT: pitchwheel channel=7 pitch=256 time=0.0695652
EXTRACT: pitchwheel channel=14 pitch=0 time=0.0173913
EXTRACT: pitchwheel channel=7 pitch=384 time=0.060869549999999994
EXTRACT: note_off channel=0 note=71 velocity=47 time=0.026086949999999998
EXTRACT: note_off channel=0 note=66 velocity=47 time=0
EXTRACT: note_on channel=0 note=59 velocity=95 time=0
EXTRACT: pitchwheel channel=14 pitch=128 time=0
EXTRACT: pitchwheel channel=7 pitch=512 time=0.052173899999999995
EXTRACT: pitchwheel channel=14 pitch=0 time=0.0347826
EXTRACT: pitchwheel channel=7 pitch=640 time=0.043478249999999996
EXTRACT: pitchwheel channel=7 pitch=640 time=0
EXTRACT: pitchwheel channel=14 pitch=128 time=0.043478249999999996
EXTRACT: note_off channel=0 note=59 velocity=95 time=0.08695649999999999
EXTRACT: note_on channel=0 note=71 velocity=47 time=0
EXTRACT: note_on channel=0 note=66 velocity=47 time=0
EXTRACT: pitchwheel channel=14 pitch=0 time=0
EXTRACT: note_off channel=9 note=42 velocity=95 time=0
EXTRACT: note_off channel=9 note=36 velocity=95 time=0
EXTRACT: note_on channel=9 note=46 velocity=63 time=0
EXTRACT: note_on channel=9 note=40 velocity=95 time=0
EXTRACT: pitchwheel channel=14 pitch=128 time=0.08695649999999999
EXTRACT: pitchwheel channel=14 pitch=0 time=0.08695649999999999
EXTRACT: note_off channel=0 note=71 velocity=47 time=0.08695649999999999
EXTRACT: note_off channel=0 note=66 velocity=47 time=0
EXTRACT: note_on channel=0 note=59 velocity=95 time=0
EXTRACT: pitchwheel channel=7 pitch=640 time=0
EXTRACT: pitchwheel channel=7 pitch=0 time=0
EXTRACT: note_off channel=7 note=80 velocity=95 time=0
EXTRACT: note_on channel=7 note=80 velocity=95 time=0
EXTRACT: pitchwheel channel=14 pitch=128 time=0
EXTRACT: pitchwheel channel=14 pitch=0 time=0.08695649999999999
EXTRACT: pitchwheel channel=14 pitch=128 time=0.08695649999999999
EXTRACT: note_off channel=0 note=59 velocity=95 time=0.08695649999999999
EXTRACT: note_on channel=0 note=71 velocity=63 time=0
EXTRACT: note_on channel=0 note=66 velocity=47 time=0
EXTRACT: note_off channel=7 note=80 velocity=95 time=0
EXTRACT: note_on channel=7 note=80 velocity=95 time=0
EXTRACT: pitchwheel channel=14 pitch=0 time=0
EXTRACT: pitchwheel channel=14 pitch=128 time=0
EXTRACT: pitchwheel channel=14 pitch=0 time=0
EXTRACT: note_off channel=14 note=47 velocity=95 time=0
EXTRACT: pitchwheel channel=14 pitch=0 time=0
EXTRACT: note_on channel=14 note=85 velocity=95 time=0
EXTRACT: note_on channel=13 note=47 velocity=95 time=0
EXTRACT: note_off channel=9 note=46 velocity=63 time=0
EXTRACT: note_off channel=9 note=40 velocity=95 time=0
EXTRACT: note_on channel=9 note=42 velocity=95 time=0
EXTRACT: note_on channel=9 note=36 velocity=95 time=0
EXTRACT: pitchwheel channel=14 pitch=128 time=0.047282596875
EXTRACT: pitchwheel channel=14 pitch=256 time=0.047282596875
EXTRACT: pitchwheel channel=14 pitch=384 time=0.047282596875
EXTRACT: pitchwheel channel=14 pitch=512 time=0.047282596875
EXTRACT: pitchwheel channel=14 pitch=640 time=0.047282596875
EXTRACT: note_off channel=0 note=71 velocity=63 time=0.024456515624999998
EXTRACT: note_off channel=0 note=66 velocity=47 time=0
EXTRACT: note_on channel=0 note=59 velocity=95 time=0
EXTRACT: note_off channel=8 note=35 velocity=95 time=0
EXTRACT: note_on channel=8 note=37 velocity=95 time=0
EXTRACT: note_off channel=5 note=35 velocity=95 time=0
EXTRACT: note_on channel=5 note=37 velocity=95 time=0
EXTRACT: note_off channel=7 note=80 velocity=95 time=0
EXTRACT: note_on channel=7 note=78 velocity=95 time=0
EXTRACT: note_off channel=13 note=47 velocity=95 time=0
EXTRACT: note_on channel=13 note=49 velocity=95 time=0
EXTRACT: note_off channel=9 note=42 velocity=95 time=0
EXTRACT: note_off channel=9 note=36 velocity=95 time=0
EXTRACT: note_on channel=9 note=53 velocity=95 time=0
EXTRACT: note_on channel=9 note=45 velocity=95 time=0
EXTRACT: pitchwheel channel=14 pitch=768 time=0.022826081249999998
EXTRACT: pitchwheel channel=14 pitch=896 time=0.047282596875
EXTRACT: pitchwheel channel=14 pitch=1024 time=0.047282596875
EXTRACT: pitchwheel channel=14 pitch=1152 time=0.047282596875
EXTRACT: pitchwheel channel=14 pitch=1280 time=0.047282596875
EXTRACT: pitchwheel channel=14 pitch=1408 time=0.047282596875
EXTRACT: note_off channel=0 note=59 velocity=95 time=0.0016304343749999999
EXTRACT: note_on channel=0 note=71 velocity=47 time=0
EXTRACT: note_on channel=0 note=66 velocity=47 time=0
EXTRACT: note_off channel=8 note=37 velocity=95 time=0
EXTRACT: note_on channel=8 note=39 velocity=95 time=0
EXTRACT: note_off channel=5 note=37 velocity=95 time=0
EXTRACT: note_on channel=5 note=39 velocity=95 time=0
EXTRACT: note_off channel=7 note=78 velocity=95 time=0
EXTRACT: note_on channel=7 note=76 velocity=95 time=0
EXTRACT: pitchwheel channel=14 pitch=1408 time=0
EXTRACT: note_off channel=13 note=49 velocity=95 time=0
EXTRACT: note_on channel=13 note=51 velocity=95 time=0
EXTRACT: note_off channel=9 note=53 velocity=95 time=0
EXTRACT: note_off channel=9 note=45 velocity=95 time=0
EXTRACT: note_on channel=9 note=42 velocity=95 time=0
EXTRACT: note_on channel=9 note=36 velocity=95 time=0
EXTRACT: note_off channel=0 note=71 velocity=47 time=0.2608695
EXTRACT: note_off channel=0 note=66 velocity=47 time=0
EXTRACT: note_on channel=0 note=59 velocity=95 time=0
EXTRACT: note_off channel=8 note=39 velocity=95 time=0
EXTRACT: note_on channel=8 note=32 velocity=95 time=0
EXTRACT: note_off channel=5 note=39 velocity=95 time=0
EXTRACT: note_on channel=5 note=32 velocity=95 time=0
EXTRACT: note_off channel=7 note=76 velocity=95 time=0
EXTRACT: pitchwheel channel=7 pitch=0 time=0
EXTRACT: note_on channel=7 note=81 velocity=95 time=0
EXTRACT: note_off channel=13 note=51 velocity=95 time=0
EXTRACT: note_on channel=13 note=51 velocity=95 time=0
EXTRACT: note_on channel=13 note=44 velocity=95 time=0
EXTRACT: note_off channel=9 note=42 velocity=95 time=0
EXTRACT: note_off channel=9 note=36 velocity=95 time=0
EXTRACT: note_on channel=9 note=43 velocity=95 time=0
EXTRACT: pitchwheel channel=7 pitch=128 time=0.20108690624999997
EXTRACT: note_off channel=0 note=59 velocity=95 time=0.059782593749999995
EXTRACT: note_on channel=0 note=71 velocity=63 time=0
EXTRACT: note_on channel=0 note=63 velocity=47 time=0
EXTRACT: pitchwheel channel=14 pitch=1408 time=0
EXTRACT: pitchwheel channel=14 pitch=0 time=0
EXTRACT: note_off channel=14 note=85 velocity=95 time=0
EXTRACT: pitchwheel channel=14 pitch=0 time=0
EXTRACT: note_on channel=14 note=85 velocity=95 time=0
EXTRACT: note_off channel=9 note=43 velocity=95 time=0
EXTRACT: note_on channel=9 note=49 velocity=95 time=0
EXTRACT: note_on channel=9 note=57 velocity=95 time=0
EXTRACT: note_on channel=9 note=36 velocity=95 time=0
EXTRACT: pitchwheel channel=14 pitch=128 time=0.023369559374999998
EXTRACT: pitchwheel channel=14 pitch=256 time=0.023369559374999998
EXTRACT: pitchwheel channel=14 pitch=384 time=0.023369559374999998
EXTRACT: pitchwheel channel=14 pitch=512 time=0.023369559374999998
EXTRACT: pitchwheel channel=14 pitch=640 time=0.023369559374999998
EXTRACT: pitchwheel channel=14 pitch=768 time=0.023369559374999998
EXTRACT: pitchwheel channel=7 pitch=256 time=0.00108695625
EXTRACT: pitchwheel channel=14 pitch=896 time=0.022282603124999998
EXTRACT: pitchwheel channel=14 pitch=1024 time=0.023369559374999998
EXTRACT: pitchwheel channel=14 pitch=1152 time=0.023369559374999998
EXTRACT: pitchwheel channel=14 pitch=1280 time=0.023369559374999998
EXTRACT: pitchwheel channel=14 pitch=1408 time=0.023369559374999998
EXTRACT: note_off channel=0 note=71 velocity=63 time=0.0038043468749999997
EXTRACT: note_off channel=0 note=63 velocity=47 time=0
EXTRACT: note_on channel=0 note=59 velocity=47 time=0
EXTRACT: pitchwheel channel=14 pitch=1408 time=0
EXTRACT: pitchwheel channel=7 pitch=384 time=0.08152171875
EXTRACT: note_off channel=0 note=59 velocity=47 time=0.17934778124999998
EXTRACT: note_on channel=0 note=71 velocity=63 time=0
EXTRACT: note_on channel=0 note=63 velocity=63 time=0
EXTRACT: pitchwheel channel=14 pitch=1408 time=0
EXTRACT: pitchwheel channel=14 pitch=0 time=0
EXTRACT: note_off channel=14 note=85 velocity=95 time=0
EXTRACT: pitchwheel channel=14 pitch=1408 time=0
EXTRACT: note_on channel=14 note=86 velocity=95 time=0
EXTRACT: note_off channel=9 note=49 velocity=95 time=0
EXTRACT: note_off channel=9 note=57 velocity=95 time=0
EXTRACT: note_off channel=9 note=36 velocity=95 time=0
EXTRACT: note_on channel=9 note=46 velocity=63 time=0
EXTRACT: note_on channel=9 note=40 velocity=95 time=0
EXTRACT: pitchwheel channel=7 pitch=512 time=0.021739124999999998
EXTRACT: pitchwheel channel=7 pitch=640 time=0.20108690624999997
EXTRACT: note_off channel=0 note=71 velocity=63 time=0.03804346875
EXTRACT: note_off channel=0 note=63 velocity=63 time=0
EXTRACT: note_on channel=0 note=59 velocity=47 time=0
EXTRACT: pitchwheel channel=7 pitch=768 time=0.1630434375
EXTRACT: note_off channel=0 note=59 velocity=47 time=0.09782606249999999
EXTRACT: note_on channel=0 note=71 velocity=63 time=0
EXTRACT: note_on channel=0 note=63 velocity=63 time=0
EXTRACT: note_off channel=9 note=46 velocity=63 time=0
EXTRACT: note_off channel=9 note=40 velocity=95 time=0
EXTRACT: note_on channel=9 note=42 velocity=95 time=0
EXTRACT: note_on channel=9 note=36 velocity=95 time=0
EXTRACT: pitchwheel channel=7 pitch=896 time=0.10326084375
EXTRACT: note_off channel=0 note=71 velocity=63 time=0.15760865624999998
EXTRACT: note_off channel=0 note=63 velocity=63 time=0
EXTRACT: note_on channel=0 note=59 velocity=47 time=0
EXTRACT: note_off channel=9 note=42 velocity=95 time=0
EXTRACT: note_off channel=9 note=36 velocity=95 time=0
EXTRACT: note_on channel=9 note=53 velocity=95 time=0
EXTRACT: pitchwheel channel=7 pitch=1024 time=0.043478249999999996
EXTRACT: pitchwheel channel=7 pitch=1152 time=0.20108690624999997
EXTRACT: note_off channel=0 note=59 velocity=47 time=0.01630434375
EXTRACT: note_on channel=0 note=71 velocity=63 time=0
EXTRACT: note_on channel=0 note=63 velocity=47 time=0
EXTRACT: note_off channel=8 note=32 velocity=95 time=0
EXTRACT: note_on channel=8 note=32 velocity=95 time=0
EXTRACT: note_off channel=5 note=32 velocity=95 time=0
EXTRACT: note_on channel=5 note=32 velocity=95 time=0
EXTRACT: note_off channel=13 note=51 velocity=95 time=0
EXTRACT: note_off channel=13 note=44 velocity=95 time=0
EXTRACT: note_on channel=13 note=51 velocity=95 time=0
EXTRACT: note_on channel=13 note=44 velocity=95 time=0
EXTRACT: note_off channel=9 note=53 velocity=95 time=0
EXTRACT: note_on channel=9 note=42 velocity=95 time=0
EXTRACT: note_on channel=9 note=43 velocity=95 time=0
EXTRACT: pitchwheel channel=7 pitch=1280 time=0.18478256249999997
EXTRACT: note_off channel=0 note=71 velocity=63 time=0.0760869375
EXTRACT: note_off channel=0 note=63 velocity=47 time=0
EXTRACT: note_on channel=0 note=59 velocity=47 time=0
EXTRACT: note_off channel=8 note=32 velocity=95 time=0
EXTRACT: note_on channel=8 note=33 velocity=95 time=0
EXTRACT: note_off channel=5 note=32 velocity=95 time=0
EXTRACT: note_on channel=5 note=33 velocity=95 time=0
EXTRACT: note_off channel=13 note=51 velocity=95 time=0
EXTRACT: note_off channel=13 note=44 velocity=95 time=0
EXTRACT: note_on channel=13 note=52 velocity=95 time=0
EXTRACT: note_on channel=13 note=45 velocity=95 time=0
EXTRACT: pitchwheel channel=7 pitch=1408 time=0.12499996875
EXTRACT: pitchwheel channel=7 pitch=1408 time=0.0054347812499999995
EXTRACT: note_off channel=0 note=59 velocity=47 time=0.13043475
EXTRACT: note_on channel=0 note=69 velocity=47 time=0
EXTRACT: note_on channel=0 note=61 velocity=47 time=0
EXTRACT: note_off channel=9 note=42 velocity=95 time=0
EXTRACT: note_off channel=9 note=43 velocity=95 time=0
EXTRACT: note_on channel=9 note=42 velocity=95 time=0
EXTRACT: note_on channel=9 note=36 velocity=95 time=0
EXTRACT: note_off channel=0 note=69 velocity=47 time=0.2608695
EXTRACT: note_off channel=0 note=61 velocity=47 time=0
EXTRACT: note_on channel=0 note=57 velocity=47 time=0
EXTRACT: note_off channel=0 note=57 velocity=47 time=0.2608695
EXTRACT: note_on channel=0 note=69 velocity=63 time=0
EXTRACT: note_on channel=0 note=61 velocity=63 time=0
EXTRACT: note_off channel=9 note=42 velocity=95 time=0
EXTRACT: note_off channel=9 note=36 velocity=95 time=0
EXTRACT: note_on channel=9 note=46 velocity=63 time=0
EXTRACT: note_on channel=9 note=40 velocity=95 time=0
EXTRACT: note_off channel=0 note=69 velocity=63 time=0.2608695
EXTRACT: note_off channel=0 note=61 velocity=63 time=0
EXTRACT: note_on channel=0 note=57 velocity=47 time=0
EXTRACT: note_off channel=0 note=57 velocity=47 time=0.2608695
EXTRACT: note_on channel=0 note=69 velocity=63 time=0
EXTRACT: note_on channel=0 note=61 velocity=47 time=0
EXTRACT: note_off channel=13 note=52 velocity=95 time=0
EXTRACT: note_off channel=13 note=45 velocity=95 time=0
EXTRACT: note_on channel=13 note=45 velocity=95 time=0
EXTRACT: note_off channel=9 note=46 velocity=63 time=0
EXTRACT: note_off channel=9 note=40 velocity=95 time=0
EXTRACT: note_on channel=9 note=42 velocity=95 time=0
EXTRACT: note_on channel=9 note=36 velocity=95 time=0
EXTRACT: note_off channel=0 note=69 velocity=63 time=0.2608695
EXTRACT: note_off channel=0 note=61 velocity=47 time=0
EXTRACT: note_on channel=0 note=57 velocity=63 time=0
EXTRACT: note_off channel=8 note=33 velocity=95 time=0
EXTRACT: note_on channel=8 note=39 velocity=95 time=0
EXTRACT: note_off channel=5 note=33 velocity=95 time=0
EXTRACT: note_on channel=5 note=39 velocity=95 time=0
EXTRACT: note_off channel=13 note=45 velocity=95 time=0
EXTRACT: note_on channel=13 note=51 velocity=95 time=0
EXTRACT: note_off channel=9 note=42 velocity=95 time=0
EXTRACT: note_off channel=9 note=36 velocity=95 time=0
EXTRACT: note_on channel=9 note=53 velocity=95 time=0
EXTRACT: note_on channel=9 note=45 velocity=95 time=0
EXTRACT: note_off channel=0 note=57 velocity=63 time=0.2608695
EXTRACT: note_on channel=0 note=69 velocity=63 time=0
EXTRACT: note_on channel=0 note=61 velocity=47 time=0
EXTRACT: note_off channel=8 note=39 velocity=95 time=0
EXTRACT: note_on channel=8 note=40 velocity=95 time=0
EXTRACT: note_off channel=5 note=39 velocity=95 time=0
EXTRACT: note_on channel=5 note=40 velocity=95 time=0
EXTRACT: note_off channel=13 note=51 velocity=95 time=0
EXTRACT: note_on channel=13 note=52 velocity=95 time=0
EXTRACT: note_off channel=9 note=53 velocity=95 time=0
EXTRACT: note_off channel=9 note=45 velocity=95 time=0
EXTRACT: note_on channel=9 note=42 velocity=95 time=0
EXTRACT: note_on channel=9 note=36 velocity=95 time=0
EXTRACT: note_off channel=0 note=69 velocity=63 time=0.2608695
EXTRACT: note_off channel=0 note=61 velocity=47 time=0
EXTRACT: note_on channel=0 note=57 velocity=47 time=0
EXTRACT: note_off channel=13 note=52 velocity=95 time=0
EXTRACT: note_on channel=13 note=40 velocity=95 time=0
EXTRACT: note_off channel=9 note=42 velocity=95 time=0
EXTRACT: note_off channel=9 note=36 velocity=95 time=0
EXTRACT: note_on channel=9 note=43 velocity=95 time=0
EXTRACT: note_off channel=0 note=57 velocity=47 time=0.2608695
EXTRACT: note_on channel=0 note=71 velocity=47 time=0
EXTRACT: note_on channel=0 note=64 velocity=47 time=0
EXTRACT: note_off channel=8 note=40 velocity=95 time=0
EXTRACT: note_on channel=8 note=40 velocity=95 time=0
EXTRACT: note_on channel=8 note=28 velocity=95 time=0
EXTRACT: note_on channel=11 note=85 velocity=95 time=0
EXTRACT: note_on channel=11 note=81 velocity=95 time=0
EXTRACT: note_on channel=11 note=78 velocity=95 time=0
EXTRACT: note_on channel=11 note=73 velocity=95 time=0
EXTRACT: note_off channel=5 note=40 velocity=95 time=0
EXTRACT: note_on channel=5 note=28 velocity=95 time=0
EXTRACT: pitchwheel channel=7 pitch=1408 time=0
EXTRACT: pitchwheel channel=7 pitch=0 time=0
EXTRACT: note_off channel=7 note=81 velocity=95 time=0
EXTRACT: note_on channel=7 note=47 velocity=95 time=0
EXTRACT: note_on channel=7 note=40 velocity=95 time=0
EXTRACT: pitchwheel channel=14 pitch=1408 time=0
EXTRACT: pitchwheel channel=14 pitch=0 time=0
EXTRACT: note_off channel=14 note=86 velocity=95 time=0
EXTRACT: note_off channel=9 note=43 velocity=95 time=0
EXTRACT: note_on channel=9 note=49 velocity=95 time=0
EXTRACT: note_on channel=9 note=57 velocity=95 time=0
EXTRACT: note_on channel=9 note=36 velocity=95 time=0
EXTRACT: note_off channel=0 note=71 velocity=47 time=0.2608695
EXTRACT: note_off channel=0 note=64 velocity=47 time=0
EXTRACT: note_on channel=0 note=59 velocity=95 time=0
EXTRACT: note_off channel=11 note=85 velocity=95 time=0
EXTRACT: note_off channel=11 note=81 velocity=95 time=0
EXTRACT: note_off channel=11 note=78 velocity=95 time=0
EXTRACT: note_off channel=11 note=73 velocity=95 time=0
EXTRACT: note_on channel=11 note=83 velocity=95 time=0
EXTRACT: note_on channel=11 note=80 velocity=95 time=0
EXTRACT: note_on channel=11 note=76 velocity=95 time=0
EXTRACT: note_on channel=11 note=71 velocity=95 time=0
EXTRACT: note_off channel=7 note=47 velocity=95 time=0
EXTRACT: note_off channel=7 note=40 velocity=95 time=0
EXTRACT: note_on channel=7 note=47 velocity=95 time=0
EXTRACT: note_on channel=7 note=40 velocity=95 time=0
EXTRACT: note_off channel=0 note=59 velocity=95 time=0.2608695
EXTRACT: note_on channel=0 note=71 velocity=47 time=0
EXTRACT: note_on channel=0 note=64 velocity=63 time=0
EXTRACT: note_off channel=7 note=47 velocity=95 time=0
EXTRACT: note_off channel=7 note=40 velocity=95 time=0
EXTRACT: note_on channel=7 note=49 velocity=95 time=0
EXTRACT: note_on channel=7 note=40 velocity=95 time=0
EXTRACT: note_off channel=13 note=40 velocity=95 time=0
EXTRACT: note_on channel=13 note=64 velocity=95 time=0
EXTRACT: note_on channel=13 note=59 velocity=95 time=0
EXTRACT: note_off channel=9 note=49 velocity=95 time=0
EXTRACT: note_off channel=9 note=57 velocity=95 time=0
EXTRACT: note_off channel=9 note=36 velocity=95 time=0
EXTRACT: note_on channel=9 note=46 velocity=63 time=0
EXTRACT: note_on channel=9 note=40 velocity=95 time=0
EXTRACT: note_off channel=0 note=71 velocity=47 time=0.2608695
EXTRACT: note_off channel=0 note=64 velocity=63 time=0
EXTRACT: note_on channel=0 note=59 velocity=95 time=0
EXTRACT: note_off channel=11 note=83 velocity=95 time=0
EXTRACT: note_off channel=11 note=80 velocity=95 time=0
EXTRACT: note_off channel=11 note=76 velocity=95 time=0
EXTRACT: note_off channel=11 note=71 velocity=95 time=0
EXTRACT: note_on channel=11 note=83 velocity=95 time=0
EXTRACT: note_on channel=11 note=80 velocity=95 time=0
EXTRACT: note_on channel=11 note=76 velocity=95 time=0
EXTRACT: note_on channel=11 note=71 velocity=95 time=0
EXTRACT: note_off channel=7 note=49 velocity=95 time=0
EXTRACT: note_off channel=7 note=40 velocity=95 time=0
EXTRACT: note_on channel=7 note=49 velocity=95 time=0
EXTRACT: note_on channel=7 note=40 velocity=95 time=0
EXTRACT: note_off channel=0 note=59 velocity=95 time=0.2608695
EXTRACT: note_on channel=0 note=71 velocity=47 time=0
EXTRACT: note_on channel=0 note=64 velocity=63 time=0
EXTRACT: note_off channel=11 note=83 velocity=95 time=0
EXTRACT: note_off channel=11 note=80 velocity=95 time=0
EXTRACT: note_off channel=11 note=76 velocity=95 time=0
EXTRACT: note_off channel=11 note=71 velocity=95 time=0
EXTRACT: note_off channel=7 note=49 velocity=95 time=0
EXTRACT: note_off channel=7 note=40 velocity=95 time=0
EXTRACT: note_on channel=7 note=47 velocity=95 time=0
EXTRACT: note_on channel=7 note=40 velocity=95 time=0
EXTRACT: note_off channel=13 note=64 velocity=95 time=0
EXTRACT: note_off channel=13 note=59 velocity=95 time=0
EXTRACT: note_on channel=13 note=40 velocity=95 time=0
EXTRACT: note_off channel=9 note=46 velocity=63 time=0
EXTRACT: note_off channel=9 note=40 velocity=95 time=0
EXTRACT: note_on channel=9 note=42 velocity=95 time=0
EXTRACT: note_on channel=9 note=36 velocity=95 time=0
EXTRACT: note_off channel=0 note=71 velocity=47 time=0.2608695
EXTRACT: note_off channel=0 note=64 velocity=63 time=0
EXTRACT: note_on channel=0 note=59 velocity=95 time=0
EXTRACT: note_off channel=8 note=40 velocity=95 time=0
EXTRACT: note_off channel=8 note=28 velocity=95 time=0
EXTRACT: note_on channel=8 note=30 velocity=95 time=0
EXTRACT: note_off channel=5 note=28 velocity=95 time=0
EXTRACT: note_on channel=5 note=30 velocity=95 time=0
EXTRACT: note_off channel=7 note=47 velocity=95 time=0
EXTRACT: note_off channel=7 note=40 velocity=95 time=0
EXTRACT: note_on channel=7 note=47 velocity=95 time=0
EXTRACT: note_on channel=7 note=40 velocity=95 time=0
EXTRACT: note_off channel=13 note=40 velocity=95 time=0
EXTRACT: note_on channel=13 note=42 velocity=95 time=0
EXTRACT: note_off channel=9 note=42 velocity=95 time=0
EXTRACT: note_off channel=9 note=36 velocity=95 time=0
EXTRACT: note_on channel=9 note=53 velocity=95 time=0
EXTRACT: note_off channel=0 note=59 velocity=95 time=0.2608695
EXTRACT: note_on channel=0 note=71 velocity=47 time=0
EXTRACT: note_on channel=0 note=64 velocity=63 time=0
EXTRACT: note_off channel=8 note=30 velocity=95 time=0
EXTRACT: note_on channel=8 note=32 velocity=95 time=0
EXTRACT: note_off channel=5 note=30 velocity=95 time=0
EXTRACT: note_on channel=5 note=32 velocity=95 time=0
EXTRACT: note_off channel=7 note=47 velocity=95 time=0
EXTRACT: note_off channel=7 note=40 velocity=95 time=0
EXTRACT: note_on channel=7 note=47 velocity=95 time=0
EXTRACT: note_on channel=7 note=40 velocity=95 time=0
EXTRACT: note_off channel=13 note=42 velocity=95 time=0
EXTRACT: note_on channel=13 note=44 velocity=95 time=0
EXTRACT: note_off channel=9 note=53 velocity=95 time=0
EXTRACT: note_on channel=9 note=42 velocity=95 time=0
EXTRACT: note_on channel=9 note=43 velocity=95 time=0
EXTRACT: note_off channel=0 note=71 velocity=47 time=0.2608695
EXTRACT: note_off channel=0 note=64 velocity=63 time=0
EXTRACT: note_on channel=0 note=59 velocity=95 time=0
EXTRACT: note_off channel=8 note=32 velocity=95 time=0
EXTRACT: note_on channel=8 note=47 velocity=95 time=0
EXTRACT: note_on channel=8 note=35 velocity=95 time=0
EXTRACT: note_on channel=11 note=83 velocity=95 time=0
EXTRACT: note_on channel=11 note=78 velocity=95 time=0
EXTRACT: note_on channel=11 note=73 velocity=95 time=0
EXTRACT: note_on channel=11 note=69 velocity=95 time=0
EXTRACT: note_off channel=5 note=32 velocity=95 time=0
EXTRACT: note_on channel=5 note=35 velocity=95 time=0
EXTRACT: note_off channel=7 note=47 velocity=95 time=0
EXTRACT: note_off channel=7 note=40 velocity=95 time=0
EXTRACT: note_on channel=7 note=54 velocity=95 time=0
EXTRACT: note_on channel=7 note=47 velocity=95 time=0
EXTRACT: note_off channel=13 note=44 velocity=95 time=0
EXTRACT: note_on channel=14 note=47 velocity=95 time=0
EXTRACT: pitchwheel channel=14 pitch=0 time=0.08695649999999999
EXTRACT: pitchwheel channel=14 pitch=128 time=0.08695649999999999
EXTRACT: note_off channel=0 note=59 velocity=95 time=0.08695649999999999
EXTRACT: note_on channel=0 note=71 velocity=47 time=0
EXTRACT: note_on channel=0 note=66 velocity=47 time=0
EXTRACT: note_off channel=11 note=83 velocity=95 time=0
EXTRACT: note_off channel=11 note=78 velocity=95 time=0
EXTRACT: note_off channel=11 note=73 velocity=95 time=0
EXTRACT: note_off channel=11 note=69 velocity=95 time=0
EXTRACT: note_on channel=11 note=83 velocity=95 time=0
EXTRACT: note_on channel=12 note=81 velocity=95 time=0
EXTRACT: note_on channel=12 note=78 velocity=95 time=0
EXTRACT: note_on channel=12 note=73 velocity=95 time=0
EXTRACT: note_off channel=7 note=54 velocity=95 time=0
EXTRACT: note_off channel=7 note=47 velocity=95 time=0
EXTRACT: note_on channel=7 note=54 velocity=95 time=0
EXTRACT: note_on channel=7 note=47 velocity=95 time=0
EXTRACT: pitchwheel channel=14 pitch=0 time=0
EXTRACT: note_off channel=9 note=42 velocity=95 time=0
EXTRACT: note_off channel=9 note=43 velocity=95 time=0
EXTRACT: note_on channel=9 note=42 velocity=95 time=0
EXTRACT: note_on channel=9 note=36 velocity=95 time=0
EXTRACT: pitchwheel channel=12 pitch=0 time=0.065217375
EXTRACT: pitchwheel channel=12 pitch=-128 time=0
EXTRACT: pitchwheel channel=12 pitch=-128 time=0
EXTRACT: pitchwheel channel=14 pitch=128 time=0.021739124999999998
EXTRACT: pitchwheel channel=12 pitch=-128 time=0.043478249999999996
EXTRACT: pitchwheel channel=12 pitch=-256 time=0
EXTRACT: pitchwheel channel=12 pitch=-256 time=0
EXTRACT: pitchwheel channel=14 pitch=0 time=0.043478249999999996
EXTRACT: pitchwheel channel=12 pitch=-256 time=0.021739124999999998
EXTRACT: pitchwheel channel=12 pitch=-512 time=0
EXTRACT: pitchwheel channel=12 pitch=-512 time=0
EXTRACT: note_off channel=0 note=71 velocity=47 time=0.065217375
EXTRACT: note_off channel=0 note=66 velocity=47 time=0
EXTRACT: note_on channel=0 note=59 velocity=95 time=0
EXTRACT: pitchwheel channel=12 pitch=-256 time=0
EXTRACT: pitchwheel channel=12 pitch=-640 time=0
EXTRACT: pitchwheel channel=12 pitch=-640 time=0
EXTRACT: note_off channel=7 note=54 velocity=95 time=0
EXTRACT: note_off channel=7 note=47 velocity=95 time=0
EXTRACT: note_on channel=7 note=54 velocity=95 time=0
EXTRACT: note_on channel=7 note=47 velocity=95 time=0
EXTRACT: pitchwheel channel=14 pitch=128 time=0
EXTRACT: pitchwheel channel=12 pitch=-384 time=0.065217375
EXTRACT: pitchwheel channel=12 pitch=-768 time=0
EXTRACT: pitchwheel channel=12 pitch=-768 time=0
EXTRACT: pitchwheel channel=14 pitch=0 time=0.021739124999999998
EXTRACT: pitchwheel channel=12 pitch=-512 time=0.043478249999999996
EXTRACT: pitchwheel channel=12 pitch=-1024 time=0
EXTRACT: pitchwheel channel=12 pitch=-1024 time=0
EXTRACT: pitchwheel channel=14 pitch=128 time=0.043478249999999996
EXTRACT: pitchwheel channel=12 pitch=-512 time=0.021739124999999998
EXTRACT: pitchwheel channel=12 pitch=-1152 time=0
EXTRACT: pitchwheel channel=12 pitch=-1152 time=0
EXTRACT: note_off channel=0 note=59 velocity=95 time=0.065217375
EXTRACT: note_on channel=0 note=71 velocity=47 time=0
EXTRACT: note_on channel=0 note=66 velocity=47 time=0
EXTRACT: pitchwheel channel=12 pitch=-640 time=0
EXTRACT: pitchwheel channel=12 pitch=0 time=0
EXTRACT: note_off channel=12 note=81 velocity=95 time=0
EXTRACT: pitchwheel channel=12 pitch=-1408 time=0
EXTRACT: pitchwheel channel=12 pitch=0 time=0
EXTRACT: note_off channel=12 note=78 velocity=95 time=0
EXTRACT: pitchwheel channel=12 pitch=-1408 time=0
EXTRACT: pitchwheel channel=12 pitch=0 time=0
EXTRACT: note_off channel=12 note=73 velocity=95 time=0
EXTRACT: note_on channel=11 note=80 velocity=95 time=0
EXTRACT: note_on channel=11 note=76 velocity=95 time=0
EXTRACT: note_on channel=11 note=71 velocity=95 time=0
EXTRACT: note_off channel=7 note=54 velocity=95 time=0
EXTRACT: note_off channel=7 note=47 velocity=95 time=0
EXTRACT: note_on channel=7 note=56 velocity=95 time=0
EXTRACT: note_on channel=7 note=47 velocity=95 time=0
EXTRACT: pitchwheel channel=14 pitch=0 time=0
EXTRACT: note_off channel=9 note=42 velocity=95 time=0
EXTRACT: note_off channel=9 note=36 velocity=95 time=0
EXTRACT: note_on channel=9 note=42 velocity=63 time=0
EXTRACT: note_on channel=9 note=40 velocity=95 time=0
EXTRACT: pitchwheel channel=14 pitch=128 time=0.08695649999999999
EXTRACT: pitchwheel channel=14 pitch=0 time=0.08695649999999999
EXTRACT: note_off channel=0 note=71 velocity=47 time=0.08695649999999999
EXTRACT: note_off channel=0 note=66 velocity=47 time=0
EXTRACT: note_on channel=0 note=59 velocity=95 time=0
EXTRACT: note_off channel=11 note=83 velocity=95 time=0
EXTRACT: note_off channel=11 note=80 velocity=95 time=0
EXTRACT: note_off channel=11 note=76 velocity=95 time=0
EXTRACT: note_off channel=11 note=71 velocity=95 time=0
EXTRACT: note_on channel=11 note=83 velocity=95 time=0
EXTRACT: note_on channel=11 note=80 velocity=95 time=0
EXTRACT: note_on channel=11 note=76 velocity=95 time=0
EXTRACT: note_on channel=11 note=71 velocity=95 time=0
EXTRACT: note_off channel=7 note=56 velocity=95 time=0
EXTRACT: note_off channel=7 note=47 velocity=95 time=0
EXTRACT: note_on channel=7 note=54 velocity=95 time=0
EXTRACT: note_on channel=7 note=47 velocity=95 time=0
EXTRACT: pitchwheel channel=14 pitch=128 time=0
EXTRACT: pitchwheel channel=14 pitch=0 time=0.08695649999999999
EXTRACT: pitchwheel channel=14 pitch=128 time=0.08695649999999999
EXTRACT: note_off channel=0 note=59 velocity=95 time=0.08695649999999999
EXTRACT: note_on channel=0 note=71 velocity=63 time=0
EXTRACT: note_on channel=0 note=66 velocity=47 time=0
EXTRACT: note_off channel=7 note=54 velocity=95 time=0
EXTRACT: note_off channel=7 note=47 velocity=95 time=0
EXTRACT: note_on channel=7 note=54 velocity=95 time=0
EXTRACT: note_on channel=7 note=47 velocity=95 time=0
EXTRACT: pitchwheel channel=14 pitch=0 time=0
EXTRACT: pitchwheel channel=14 pitch=128 time=0
EXTRACT: pitchwheel channel=14 pitch=0 time=0
EXTRACT: note_off channel=14 note=47 velocity=95 time=0
EXTRACT: note_on channel=13 note=47 velocity=95 time=0
EXTRACT: note_off channel=9 note=42 velocity=63 time=0
EXTRACT: note_off channel=9 note=40 velocity=95 time=0
EXTRACT: note_on channel=9 note=42 velocity=95 time=0
EXTRACT: note_on channel=9 note=36 velocity=95 time=0
EXTRACT: note_off channel=0 note=71 velocity=63 time=0.2608695
EXTRACT: note_off channel=0 note=66 velocity=47 time=0
EXTRACT: note_on channel=0 note=59 velocity=95 time=0
EXTRACT: note_off channel=8 note=47 velocity=95 time=0
EXTRACT: note_off channel=8 note=35 velocity=95 time=0
EXTRACT: note_on channel=8 note=37 velocity=95 time=0
EXTRACT: note_off channel=11 note=83 velocity=95 time=0
EXTRACT: note_off channel=11 note=80 velocity=95 time=0
EXTRACT: note_off channel=11 note=76 velocity=95 time=0
EXTRACT: note_off channel=11 note=71 velocity=95 time=0
EXTRACT: note_off channel=5 note=35 velocity=95 time=0
EXTRACT: note_on channel=5 note=37 velocity=95 time=0
EXTRACT: note_off channel=7 note=54 velocity=95 time=0
EXTRACT: note_off channel=7 note=47 velocity=95 time=0
EXTRACT: note_on channel=7 note=54 velocity=95 time=0
EXTRACT: note_on channel=7 note=47 velocity=95 time=0
EXTRACT: note_off channel=13 note=47 velocity=95 time=0
EXTRACT: note_on channel=13 note=49 velocity=95 time=0
EXTRACT: note_off channel=9 note=42 velocity=95 time=0
EXTRACT: note_off channel=9 note=36 velocity=95 time=0
EXTRACT: note_on channel=9 note=53 velocity=95 time=0
EXTRACT: note_on channel=9 note=45 velocity=95 time=0
EXTRACT: note_off channel=0 note=59 velocity=95 time=0.2608695
EXTRACT: note_on channel=0 note=71 velocity=47 time=0
EXTRACT: note_on channel=0 note=66 velocity=47 time=0
EXTRACT: note_off channel=8 note=37 velocity=95 time=0
EXTRACT: note_on channel=8 note=39 velocity=95 time=0
EXTRACT: note_off channel=5 note=37 velocity=95 time=0
EXTRACT: note_on channel=5 note=39 velocity=95 time=0
EXTRACT: note_off channel=7 note=54 velocity=95 time=0
EXTRACT: note_off channel=7 note=47 velocity=95 time=0
EXTRACT: note_on channel=7 note=54 velocity=95 time=0
EXTRACT: note_on channel=7 note=47 velocity=95 time=0
EXTRACT: note_off channel=13 note=49 velocity=95 time=0
EXTRACT: note_on channel=13 note=51 velocity=95 time=0
EXTRACT: note_off channel=9 note=53 velocity=95 time=0
EXTRACT: note_off channel=9 note=45 velocity=95 time=0
EXTRACT: note_on channel=9 note=42 velocity=95 time=0
EXTRACT: note_on channel=9 note=36 velocity=95 time=0
EXTRACT: note_off channel=0 note=71 velocity=47 time=0.2608695
EXTRACT: note_off channel=0 note=66 velocity=47 time=0
EXTRACT: note_on channel=0 note=59 velocity=95 time=0
EXTRACT: note_off channel=8 note=39 velocity=95 time=0
EXTRACT: note_on channel=8 note=37 velocity=95 time=0
EXTRACT: note_off channel=5 note=39 velocity=95 time=0
EXTRACT: note_on channel=5 note=37 velocity=95 time=0
EXTRACT: note_off channel=7 note=54 velocity=95 time=0
EXTRACT: note_off channel=7 note=47 velocity=95 time=0
EXTRACT: note_on channel=7 note=61 velocity=95 time=0
EXTRACT: note_on channel=7 note=56 velocity=95 time=0
EXTRACT: note_on channel=7 note=49 velocity=95 time=0
EXTRACT: note_off channel=13 note=51 velocity=95 time=0
EXTRACT: note_on channel=14 note=49 velocity=95 time=0
EXTRACT: note_off channel=9 note=42 velocity=95 time=0
EXTRACT: note_off channel=9 note=36 velocity=95 time=0
EXTRACT: note_on channel=9 note=43 velocity=95 time=0
EXTRACT: pitchwheel channel=14 pitch=0 time=0.08695649999999999
EXTRACT: pitchwheel channel=14 pitch=128 time=0.08695649999999999
EXTRACT: note_off channel=0 note=59 velocity=95 time=0.08695649999999999
EXTRACT: note_on channel=0 note=71 velocity=63 time=0
EXTRACT: note_on channel=0 note=64 velocity=47 time=0
EXTRACT: note_off channel=7 note=61 velocity=95 time=0
EXTRACT: note_off channel=7 note=56 velocity=95 time=0
EXTRACT: note_off channel=7 note=49 velocity=95 time=0
EXTRACT: note_on channel=7 note=56 velocity=95 time=0
EXTRACT: note_on channel=7 note=49 velocity=95 time=0
EXTRACT: pitchwheel channel=14 pitch=0 time=0
EXTRACT: note_off channel=9 note=43 velocity=95 time=0
EXTRACT: note_on channel=9 note=49 velocity=95 time=0
EXTRACT: note_on channel=9 note=57 velocity=95 time=0
EXTRACT: note_on channel=9 note=36 velocity=95 time=0
EXTRACT: pitchwheel channel=14 pitch=128 time=0.08695649999999999
EXTRACT: pitchwheel channel=14 pitch=0 time=0.08695649999999999
EXTRACT: note_off channel=0 note=71 velocity=63 time=0.08695649999999999
EXTRACT: note_off channel=0 note=64 velocity=47 time=0
EXTRACT: note_on channel=0 note=59 velocity=47 time=0
EXTRACT: note_off channel=7 note=56 velocity=95 time=0
EXTRACT: note_off channel=7 note=49 velocity=95 time=0
EXTRACT: note_on channel=7 note=56 velocity=95 time=0
EXTRACT: note_on channel=7 note=49 velocity=95 time=0
EXTRACT: pitchwheel channel=14 pitch=128 time=0
EXTRACT: pitchwheel channel=14 pitch=0 time=0.08695649999999999
EXTRACT: pitchwheel channel=14 pitch=128 time=0.08695649999999999
EXTRACT: note_off channel=0 note=59 velocity=47 time=0.08695649999999999
EXTRACT: note_on channel=0 note=71 velocity=63 time=0
EXTRACT: note_on channel=0 note=64 velocity=63 time=0
EXTRACT: note_off channel=7 note=56 velocity=95 time=0
EXTRACT: note_off channel=7 note=49 velocity=95 time=0
EXTRACT: note_on channel=7 note=56 velocity=95 time=0
EXTRACT: note_on channel=7 note=49 velocity=95 time=0
EXTRACT: pitchwheel channel=14 pitch=0 time=0
EXTRACT: note_off channel=9 note=49 velocity=95 time=0
EXTRACT: note_off channel=9 note=57 velocity=95 time=0
EXTRACT: note_off channel=9 note=36 velocity=95 time=0
EXTRACT: note_on channel=9 note=46 velocity=63 time=0
EXTRACT: note_on channel=9 note=40 velocity=95 time=0
EXTRACT: pitchwheel channel=14 pitch=128 time=0.08695649999999999
EXTRACT: pitchwheel channel=14 pitch=0 time=0.08695649999999999
EXTRACT: note_off channel=0 note=71 velocity=63 time=0.08695649999999999
EXTRACT: note_off channel=0 note=64 velocity=63 time=0
EXTRACT: note_on channel=0 note=59 velocity=47 time=0
EXTRACT: note_off channel=7 note=56 velocity=95 time=0
EXTRACT: note_off channel=7 note=49 velocity=95 time=0
EXTRACT: note_on channel=7 note=56 velocity=95 time=0
EXTRACT: note_on channel=7 note=49 velocity=95 time=0
EXTRACT: pitchwheel channel=14 pitch=128 time=0
EXTRACT: pitchwheel channel=14 pitch=0 time=0.08695649999999999
EXTRACT: pitchwheel channel=14 pitch=128 time=0.08695649999999999
EXTRACT: note_off channel=0 note=59 velocity=47 time=0.08695649999999999
EXTRACT: note_on channel=0 note=71 velocity=63 time=0
EXTRACT: note_on channel=0 note=64 velocity=63 time=0
EXTRACT: note_on channel=11 note=81 velocity=95 time=0
EXTRACT: note_off channel=7 note=56 velocity=95 time=0
EXTRACT: note_off channel=7 note=49 velocity=95 time=0
EXTRACT: note_on channel=7 note=56 velocity=95 time=0
EXTRACT: note_on channel=7 note=49 velocity=95 time=0
EXTRACT: pitchwheel channel=14 pitch=0 time=0
EXTRACT: note_off channel=9 note=46 velocity=63 time=0
EXTRACT: note_off channel=9 note=40 velocity=95 time=0
EXTRACT: note_on channel=9 note=42 velocity=95 time=0
EXTRACT: note_on channel=9 note=36 velocity=95 time=0
EXTRACT: pitchwheel channel=14 pitch=128 time=0.08695649999999999
EXTRACT: pitchwheel channel=14 pitch=0 time=0.08695649999999999
EXTRACT: note_off channel=0 note=71 velocity=63 time=0.08695649999999999
EXTRACT: note_off channel=0 note=64 velocity=63 time=0
EXTRACT: note_on channel=0 note=59 velocity=47 time=0
EXTRACT: note_off channel=8 note=37 velocity=95 time=0
EXTRACT: note_on channel=8 note=39 velocity=95 time=0
EXTRACT: note_off channel=11 note=81 velocity=95 time=0
EXTRACT: note_on channel=11 note=80 velocity=95 time=0
EXTRACT: note_off channel=5 note=37 velocity=95 time=0
EXTRACT: note_on channel=5 note=39 velocity=95 time=0
EXTRACT: note_off channel=7 note=56 velocity=95 time=0
EXTRACT: note_off channel=7 note=49 velocity=95 time=0
EXTRACT: note_on channel=7 note=56 velocity=95 time=0
EXTRACT: note_on channel=7 note=49 velocity=95 time=0
EXTRACT: pitchwheel channel=14 pitch=128 time=0
EXTRACT: pitchwheel channel=14 pitch=0 time=0
EXTRACT: note_off channel=14 note=49 velocity=95 time=0
EXTRACT: note_on channel=13 note=51 velocity=95 time=0
EXTRACT: note_off channel=9 note=42 velocity=95 time=0
EXTRACT: note_off channel=9 note=36 velocity=95 time=0
EXTRACT: note_on channel=9 note=53 velocity=95 time=0
EXTRACT: note_off channel=0 note=59 velocity=47 time=0.2608695
EXTRACT: note_on channel=0 note=71 velocity=63 time=0
EXTRACT: note_on channel=0 note=64 velocity=47 time=0
EXTRACT: note_off channel=8 note=39 velocity=95 time=0
EXTRACT: note_on channel=8 note=40 velocity=95 time=0
EXTRACT: note_off channel=11 note=80 velocity=95 time=0
EXTRACT: note_on channel=11 note=81 velocity=95 time=0
EXTRACT: note_off channel=5 note=39 velocity=95 time=0
EXTRACT: note_on channel=5 note=40 velocity=95 time=0
EXTRACT: note_off channel=7 note=56 velocity=95 time=0
EXTRACT: note_off channel=7 note=49 velocity=95 time=0
EXTRACT: note_on channel=7 note=56 velocity=95 time=0
EXTRACT: note_on channel=7 note=49 velocity=95 time=0
EXTRACT: note_off channel=13 note=51 velocity=95 time=0
EXTRACT: note_on channel=13 note=52 velocity=95 time=0
EXTRACT: note_off channel=9 note=53 velocity=95 time=0
EXTRACT: note_on channel=9 note=42 velocity=95 time=0
EXTRACT: note_on channel=9 note=43 velocity=95 time=0
EXTRACT: note_off channel=0 note=71 velocity=63 time=0.2608695
EXTRACT: note_off channel=0 note=64 velocity=47 time=0
EXTRACT: note_on channel=0 note=59 velocity=47 time=0
EXTRACT: note_off channel=8 note=40 velocity=95 time=0
EXTRACT: note_on channel=8 note=33 velocity=95 time=0
EXTRACT: note_off channel=11 note=81 velocity=95 time=0
EXTRACT: note_on channel=11 note=83 velocity=95 time=0
EXTRACT: note_on channel=5 note=33 velocity=95 time=0
EXTRACT: note_off channel=7 note=56 velocity=95 time=0
EXTRACT: note_off channel=7 note=49 velocity=95 time=0
EXTRACT: note_on channel=7 note=57 velocity=95 time=0
EXTRACT: note_on channel=7 note=52 velocity=95 time=0
EXTRACT: note_on channel=7 note=45 velocity=95 time=0
EXTRACT: note_off channel=13 note=52 velocity=95 time=0
EXTRACT: note_on channel=14 note=45 velocity=95 time=0
EXTRACT: pitchwheel channel=14 pitch=0 time=0.08695649999999999
EXTRACT: pitchwheel channel=14 pitch=128 time=0.08695649999999999
EXTRACT: note_off channel=0 note=59 velocity=47 time=0.08695649999999999
EXTRACT: note_on channel=0 note=69 velocity=47 time=0
EXTRACT: note_on channel=0 note=61 velocity=47 time=0
EXTRACT: note_off channel=11 note=83 velocity=95 time=0
EXTRACT: note_on channel=11 note=85 velocity=95 time=0
EXTRACT: note_off channel=5 note=33 velocity=95 time=0
EXTRACT: note_off channel=7 note=57 velocity=95 time=0
EXTRACT: note_off channel=7 note=52 velocity=95 time=0
EXTRACT: note_off channel=7 note=45 velocity=95 time=0
EXTRACT: note_on channel=7 note=52 velocity=95 time=0
EXTRACT: note_on channel=7 note=45 velocity=95 time=0
EXTRACT: pitchwheel channel=14 pitch=0 time=0
EXTRACT: note_off channel=9 note=42 velocity=95 time=0
EXTRACT: note_off channel=9 note=43 velocity=95 time=0
EXTRACT: note_on channel=9 note=42 velocity=95 time=0
EXTRACT: note_on channel=9 note=36 velocity=95 time=0
EXTRACT: pitchwheel channel=14 pitch=128 time=0.08695649999999999
EXTRACT: pitchwheel channel=14 pitch=0 time=0.08695649999999999
EXTRACT: note_off channel=0 note=69 velocity=47 time=0.08695649999999999
EXTRACT: note_off channel=0 note=61 velocity=47 time=0
EXTRACT: note_on channel=0 note=57 velocity=47 time=0
EXTRACT: note_off channel=7 note=52 velocity=95 time=0
EXTRACT: note_off channel=7 note=45 velocity=95 time=0
EXTRACT: note_on channel=7 note=52 velocity=95 time=0
EXTRACT: note_on channel=7 note=45 velocity=95 time=0
EXTRACT: pitchwheel channel=14 pitch=128 time=0
EXTRACT: pitchwheel channel=14 pitch=0 time=0.08695649999999999
EXTRACT: pitchwheel channel=14 pitch=128 time=0.08695649999999999
EXTRACT: note_off channel=0 note=57 velocity=47 time=0.08695649999999999
EXTRACT: note_on channel=0 note=69 velocity=63 time=0
EXTRACT: note_on channel=0 note=61 velocity=63 time=0
EXTRACT: note_off channel=11 note=85 velocity=95 time=0
EXTRACT: note_on channel=11 note=83 velocity=95 time=0
EXTRACT: note_off channel=7 note=52 velocity=95 time=0
EXTRACT: note_off channel=7 note=45 velocity=95 time=0
EXTRACT: note_on channel=7 note=54 velocity=95 time=0
EXTRACT: note_on channel=7 note=45 velocity=95 time=0
EXTRACT: pitchwheel channel=14 pitch=0 time=0
EXTRACT: note_off channel=9 note=42 velocity=95 time=0
EXTRACT: note_off channel=9 note=36 velocity=95 time=0
EXTRACT: note_on channel=9 note=46 velocity=63 time=0
EXTRACT: note_on channel=9 note=40 velocity=95 time=0
EXTRACT: pitchwheel channel=14 pitch=128 time=0.08695649999999999
EXTRACT: note_off channel=11 note=83 velocity=95 time=0.043478249999999996
EXTRACT: note_on channel=11 note=85 velocity=95 time=0
EXTRACT: pitchwheel channel=14 pitch=0 time=0.043478249999999996
EXTRACT: note_off channel=0 note=69 velocity=63 time=0.08695649999999999
EXTRACT: note_off channel=0 note=61 velocity=63 time=0
EXTRACT: note_on channel=0 note=57 velocity=47 time=0
EXTRACT: note_off channel=11 note=85 velocity=95 time=0
EXTRACT: note_on channel=11 note=80 velocity=95 time=0
EXTRACT: note_off channel=7 note=54 velocity=95 time=0
EXTRACT: note_off channel=7 note=45 velocity=95 time=0
EXTRACT: note_on channel=7 note=52 velocity=95 time=0
EXTRACT: note_on channel=7 note=45 velocity=95 time=0
EXTRACT: pitchwheel channel=14 pitch=128 time=0
EXTRACT: pitchwheel channel=14 pitch=0 time=0.08695649999999999
EXTRACT: pitchwheel channel=14 pitch=128 time=0.08695649999999999
EXTRACT: note_off channel=0 note=57 velocity=47 time=0.08695649999999999
EXTRACT: note_on channel=0 note=69 velocity=63 time=0
EXTRACT: note_on channel=0 note=61 velocity=47 time=0
EXTRACT: note_off channel=7 note=52 velocity=95 time=0
EXTRACT: note_off channel=7 note=45 velocity=95 time=0
EXTRACT: note_on channel=7 note=52 velocity=95 time=0
EXTRACT: note_on channel=7 note=45 velocity=95 time=0
EXTRACT: pitchwheel channel=14 pitch=0 time=0
EXTRACT: note_off channel=9 note=46 velocity=63 time=0
EXTRACT: note_off channel=9 note=40 velocity=95 time=0
EXTRACT: note_on channel=9 note=42 velocity=95 time=0
EXTRACT: note_on channel=9 note=36 velocity=95 time=0
EXTRACT: pitchwheel channel=14 pitch=128 time=0.08695649999999999
EXTRACT: pitchwheel channel=14 pitch=0 time=0.08695649999999999
EXTRACT: note_off channel=0 note=69 velocity=63 time=0.08695649999999999
EXTRACT: note_off channel=0 note=61 velocity=47 time=0
EXTRACT: note_on channel=0 note=57 velocity=63 time=0
EXTRACT: note_off channel=8 note=33 velocity=95 time=0
EXTRACT: note_on channel=8 note=39 velocity=95 time=0
EXTRACT: note_off channel=5 note=40 velocity=95 time=0
EXTRACT: note_on channel=5 note=39 velocity=95 time=0
EXTRACT: note_off channel=7 note=52 velocity=95 time=0
EXTRACT: note_off channel=7 note=45 velocity=95 time=0
EXTRACT: note_on channel=7 note=52 velocity=95 time=0
EXTRACT: note_on channel=7 note=45 velocity=95 time=0
EXTRACT: pitchwheel channel=14 pitch=128 time=0
EXTRACT: pitchwheel channel=14 pitch=0 time=0
EXTRACT: note_off channel=14 note=45 velocity=95 time=0
EXTRACT: note_on channel=13 note=51 velocity=95 time=0
EXTRACT: note_off channel=9 note=42 velocity=95 time=0
EXTRACT: note_off channel=9 note=36 velocity=95 time=0
EXTRACT: note_on channel=9 note=53 velocity=95 time=0
EXTRACT: note_on channel=9 note=36 velocity=95 time=0
EXTRACT: note_off channel=11 note=80 velocity=95 time=0.08695649999999999
EXTRACT: note_on channel=11 note=78 velocity=95 time=0
EXTRACT: note_off channel=0 note=57 velocity=63 time=0.17391299999999998
EXTRACT: note_on channel=0 note=69 velocity=63 time=0
EXTRACT: note_on channel=0 note=61 velocity=47 time=0
EXTRACT: note_off channel=8 note=39 velocity=95 time=0
EXTRACT: note_on channel=8 note=40 velocity=95 time=0
EXTRACT: note_off channel=5 note=39 velocity=95 time=0
EXTRACT: note_on channel=5 note=40 velocity=95 time=0
EXTRACT: note_off channel=7 note=52 velocity=95 time=0
EXTRACT: note_off channel=7 note=45 velocity=95 time=0
EXTRACT: note_on channel=7 note=52 velocity=95 time=0
EXTRACT: note_on channel=7 note=45 velocity=95 time=0
EXTRACT: note_off channel=13 note=51 velocity=95 time=0
EXTRACT: note_on channel=13 note=52 velocity=95 time=0
EXTRACT: note_off channel=9 note=53 velocity=95 time=0
EXTRACT: note_off channel=9 note=36 velocity=95 time=0
EXTRACT: note_on channel=9 note=42 velocity=95 time=0
EXTRACT: note_on channel=9 note=45 velocity=95 time=0
EXTRACT: note_off channel=11 note=78 velocity=95 time=0.17391299999999998
EXTRACT: note_on channel=11 note=76 velocity=95 time=0
EXTRACT: note_off channel=0 note=69 velocity=63 time=0.08695649999999999
EXTRACT: note_off channel=0 note=61 velocity=47 time=0
EXTRACT: note_on channel=0 note=57 velocity=47 time=0
EXTRACT: note_off channel=8 note=40 velocity=95 time=0
EXTRACT: note_on channel=8 note=28 velocity=95 time=0
EXTRACT: note_off channel=5 note=40 velocity=95 time=0
EXTRACT: note_on channel=5 note=28 velocity=95 time=0
EXTRACT: note_off channel=7 note=52 velocity=95 time=0
EXTRACT: note_off channel=7 note=45 velocity=95 time=0
EXTRACT: note_on channel=7 note=64 velocity=95 time=0
EXTRACT: note_on channel=7 note=59 velocity=95 time=0
EXTRACT: note_on channel=7 note=52 velocity=95 time=0
EXTRACT: note_off channel=13 note=52 velocity=95 time=0
EXTRACT: note_on channel=13 note=40 velocity=95 time=0
EXTRACT: note_off channel=9 note=42 velocity=95 time=0
EXTRACT: note_off channel=9 note=45 velocity=95 time=0
EXTRACT: note_on channel=9 note=43 velocity=95 time=0
EXTRACT: note_off channel=0 note=57 velocity=47 time=0.2608695
EXTRACT: note_on channel=0 note=71 velocity=47 time=0
EXTRACT: note_on channel=0 note=64 velocity=47 time=0
EXTRACT: note_off channel=11 note=76 velocity=95 time=0
EXTRACT: note_on channel=11 note=83 velocity=95 time=0
EXTRACT: note_on channel=12 note=81 velocity=95 time=0
EXTRACT: note_on channel=12 note=78 velocity=95 time=0
EXTRACT: note_on channel=12 note=73 velocity=95 time=0
EXTRACT: note_off channel=7 note=64 velocity=95 time=0
EXTRACT: note_off channel=7 note=59 velocity=95 time=0
EXTRACT: note_off channel=7 note=52 velocity=95 time=0
EXTRACT: note_on channel=7 note=47 velocity=95 time=0
EXTRACT: note_on channel=7 note=40 velocity=95 time=0
EXTRACT: note_off channel=9 note=43 velocity=95 time=0
EXTRACT: note_on channel=9 note=49 velocity=95 time=0
EXTRACT: note_on channel=9 note=57 velocity=95 time=0
EXTRACT: note_on channel=9 note=36 velocity=95 time=0
EXTRACT: pitchwheel channel=12 pitch=0 time=0.065217375
EXTRACT: pitchwheel channel=12 pitch=-128 time=0
EXTRACT: pitchwheel channel=12 pitch=-128 time=0
EXTRACT: pitchwheel channel=12 pitch=-128 time=0.065217375
EXTRACT: pitchwheel channel=12 pitch=-256 time=0
EXTRACT: pitchwheel channel=12 pitch=-256 time=0
EXTRACT: pitchwheel channel=12 pitch=-256 time=0.065217375
EXTRACT: pitchwheel channel=12 pitch=-512 time=0
EXTRACT: pitchwheel channel=12 pitch=-512 time=0
EXTRACT: note_off channel=0 note=71 velocity=47 time=0.065217375
EXTRACT: note_off channel=0 note=64 velocity=47 time=0
EXTRACT: note_on channel=0 note=59 velocity=95 time=0
EXTRACT: pitchwheel channel=12 pitch=-256 time=0
EXTRACT: pitchwheel channel=12 pitch=-640 time=0
EXTRACT: pitchwheel channel=12 pitch=-640 time=0
EXTRACT: note_off channel=7 note=47 velocity=95 time=0
EXTRACT: note_off channel=7 note=40 velocity=95 time=0
EXTRACT: note_on channel=7 note=47 velocity=95 time=0
EXTRACT: note_on channel=7 note=40 velocity=95 time=0
EXTRACT: pitchwheel channel=12 pitch=-384 time=0.065217375
EXTRACT: pitchwheel channel=12 pitch=-768 time=0
EXTRACT: pitchwheel channel=12 pitch=-768 time=0
EXTRACT: pitchwheel channel=12 pitch=-512 time=0.065217375
EXTRACT: pitchwheel channel=12 pitch=-1024 time=0
EXTRACT: pitchwheel channel=12 pitch=-1024 time=0
EXTRACT: pitchwheel channel=12 pitch=-512 time=0.065217375
EXTRACT: pitchwheel channel=12 pitch=-1152 time=0
EXTRACT: pitchwheel channel=12 pitch=-1152 time=0
EXTRACT: note_off channel=0 note=59 velocity=95 time=0.065217375
EXTRACT: note_on channel=0 note=71 velocity=47 time=0
EXTRACT: note_on channel=0 note=64 velocity=63 time=0
EXTRACT: pitchwheel channel=12 pitch=-640 time=0
EXTRACT: pitchwheel channel=12 pitch=0 time=0
EXTRACT: note_off channel=12 note=81 velocity=95 time=0
EXTRACT: pitchwheel channel=12 pitch=-1408 time=0
EXTRACT: pitchwheel channel=12 pitch=0 time=0
EXTRACT: note_off channel=12 note=78 velocity=95 time=0
EXTRACT: pitchwheel channel=12 pitch=-1408 time=0
EXTRACT: pitchwheel channel=12 pitch=0 time=0
EXTRACT: note_off channel=12 note=73 velocity=95 time=0
EXTRACT: note_on channel=11 note=80 velocity=95 time=0
EXTRACT: note_on channel=11 note=76 velocity=95 time=0
EXTRACT: note_on channel=11 note=71 velocity=95 time=0
EXTRACT: note_off channel=7 note=47 velocity=95 time=0
EXTRACT: note_off channel=7 note=40 velocity=95 time=0
EXTRACT: note_on channel=7 note=49 velocity=95 time=0
EXTRACT: note_on channel=7 note=40 velocity=95 time=0
EXTRACT: note_off channel=13 note=40 velocity=95 time=0
EXTRACT: note_on channel=13 note=64 velocity=95 time=0
EXTRACT: note_on channel=13 note=59 velocity=95 time=0
EXTRACT: note_off channel=9 note=49 velocity=95 time=0
EXTRACT: note_off channel=9 note=57 velocity=95 time=0
EXTRACT: note_off channel=9 note=36 velocity=95 time=0
EXTRACT: note_on channel=9 note=46 velocity=63 time=0
EXTRACT: note_on channel=9 note=40 velocity=95 time=0
EXTRACT: note_off channel=0 note=71 velocity=47 time=0.2608695
EXTRACT: note_off channel=0 note=64 velocity=63 time=0
EXTRACT: note_on channel=0 note=59 velocity=95 time=0
EXTRACT: note_off channel=11 note=83 velocity=95 time=0
EXTRACT: note_off channel=11 note=80 velocity=95 time=0
EXTRACT: note_off channel=11 note=76 velocity=95 time=0
EXTRACT: note_off channel=11 note=71 velocity=95 time=0
EXTRACT: note_on channel=11 note=83 velocity=95 time=0
EXTRACT: note_on channel=11 note=80 velocity=95 time=0
EXTRACT: note_on channel=11 note=76 velocity=95 time=0
EXTRACT: note_on channel=11 note=71 velocity=95 time=0
EXTRACT: note_off channel=7 note=49 velocity=95 time=0
EXTRACT: note_off channel=7 note=40 velocity=95 time=0
EXTRACT: note_on channel=7 note=49 velocity=95 time=0
EXTRACT: note_on channel=7 note=40 velocity=95 time=0
EXTRACT: note_off channel=0 note=59 velocity=95 time=0.2608695
EXTRACT: note_on channel=0 note=71 velocity=47 time=0
EXTRACT: note_on channel=0 note=64 velocity=63 time=0
EXTRACT: note_off channel=7 note=49 velocity=95 time=0
EXTRACT: note_off channel=7 note=40 velocity=95 time=0
EXTRACT: note_on channel=7 note=47 velocity=95 time=0
EXTRACT: note_on channel=7 note=40 velocity=95 time=0
EXTRACT: note_off channel=13 note=64 velocity=95 time=0
EXTRACT: note_off channel=13 note=59 velocity=95 time=0
EXTRACT: note_on channel=13 note=40 velocity=95 time=0
EXTRACT: note_off channel=9 note=46 velocity=63 time=0
EXTRACT: note_off channel=9 note=40 velocity=95 time=0
EXTRACT: note_on channel=9 note=42 velocity=95 time=0
EXTRACT: note_on channel=9 note=36 velocity=95 time=0
EXTRACT: note_off channel=0 note=71 velocity=47 time=0.2608695
EXTRACT: note_off channel=0 note=64 velocity=63 time=0
EXTRACT: note_on channel=0 note=59 velocity=95 time=0
EXTRACT: note_off channel=8 note=28 velocity=95 time=0
EXTRACT: note_on channel=8 note=30 velocity=95 time=0
EXTRACT: note_off channel=11 note=83 velocity=95 time=0
EXTRACT: note_off channel=11 note=80 velocity=95 time=0
EXTRACT: note_off channel=11 note=76 velocity=95 time=0
EXTRACT: note_off channel=11 note=71 velocity=95 time=0
EXTRACT: note_off channel=5 note=28 velocity=95 time=0
EXTRACT: note_on channel=5 note=30 velocity=95 time=0
EXTRACT: note_off channel=7 note=47 velocity=95 time=0
EXTRACT: note_off channel=7 note=40 velocity=95 time=0
EXTRACT: note_on channel=7 note=47 velocity=95 time=0
EXTRACT: note_on channel=7 note=40 velocity=95 time=0
EXTRACT: note_off channel=13 note=40 velocity=95 time=0
EXTRACT: note_on channel=13 note=42 velocity=95 time=0
EXTRACT: note_off channel=9 note=42 velocity=95 time=0
EXTRACT: note_off channel=9 note=36 velocity=95 time=0
EXTRACT: note_on channel=9 note=53 velocity=95 time=0
EXTRACT: note_off channel=0 note=59 velocity=95 time=0.2608695
EXTRACT: note_on channel=0 note=71 velocity=47 time=0
EXTRACT: note_on channel=0 note=64 velocity=63 time=0
EXTRACT: note_off channel=8 note=30 velocity=95 time=0
EXTRACT: note_on channel=8 note=32 velocity=95 time=0
EXTRACT: note_off channel=5 note=30 velocity=95 time=0
EXTRACT: note_on channel=5 note=32 velocity=95 time=0
EXTRACT: note_off channel=7 note=47 velocity=95 time=0
EXTRACT: note_off channel=7 note=40 velocity=95 time=0
EXTRACT: note_on channel=7 note=47 velocity=95 time=0
EXTRACT: note_on channel=7 note=40 velocity=95 time=0
EXTRACT: note_off channel=13 note=42 velocity=95 time=0
EXTRACT: note_on channel=13 note=44 velocity=95 time=0
EXTRACT: note_off channel=9 note=53 velocity=95 time=0
EXTRACT: note_on channel=9 note=42 velocity=95 time=0
EXTRACT: note_on channel=9 note=43 velocity=95 time=0
EXTRACT: note_off channel=0 note=71 velocity=47 time=0.2608695
EXTRACT: note_off channel=0 note=64 velocity=63 time=0
EXTRACT: note_on channel=0 note=59 velocity=95 time=0
EXTRACT: note_off channel=8 note=32 velocity=95 time=0
EXTRACT: note_on channel=8 note=35 velocity=95 time=0
EXTRACT: note_off channel=5 note=32 velocity=95 time=0
EXTRACT: note_on channel=5 note=35 velocity=95 time=0
EXTRACT: note_off channel=7 note=47 velocity=95 time=0
EXTRACT: note_off channel=7 note=40 velocity=95 time=0
EXTRACT: note_on channel=7 note=54 velocity=95 time=0
EXTRACT: note_on channel=7 note=47 velocity=95 time=0
EXTRACT: note_off channel=13 note=44 velocity=95 time=0
EXTRACT: note_on channel=14 note=47 velocity=95 time=0
EXTRACT: pitchwheel channel=14 pitch=0 time=0.08695649999999999
EXTRACT: pitchwheel channel=14 pitch=128 time=0.08695649999999999
EXTRACT: note_off channel=0 note=59 velocity=95 time=0.08695649999999999
EXTRACT: note_on channel=0 note=71 velocity=47 time=0
EXTRACT: note_on channel=0 note=66 velocity=47 time=0
EXTRACT: note_on channel=11 note=83 velocity=95 time=0
EXTRACT: note_on channel=12 note=81 velocity=95 time=0
EXTRACT: note_on channel=12 note=78 velocity=95 time=0
EXTRACT: note_on channel=12 note=73 velocity=95 time=0
EXTRACT: note_off channel=7 note=54 velocity=95 time=0
EXTRACT: note_off channel=7 note=47 velocity=95 time=0
EXTRACT: note_on channel=7 note=54 velocity=95 time=0
EXTRACT: note_on channel=7 note=47 velocity=95 time=0
EXTRACT: pitchwheel channel=14 pitch=0 time=0
EXTRACT: note_off channel=9 note=42 velocity=95 time=0
EXTRACT: note_off channel=9 note=43 velocity=95 time=0
EXTRACT: note_on channel=9 note=42 velocity=95 time=0
EXTRACT: note_on channel=9 note=36 velocity=95 time=0
EXTRACT: pitchwheel channel=12 pitch=0 time=0.065217375
EXTRACT: pitchwheel channel=12 pitch=-128 time=0
EXTRACT: pitchwheel channel=12 pitch=-128 time=0
EXTRACT: pitchwheel channel=14 pitch=128 time=0.021739124999999998
EXTRACT: pitchwheel channel=12 pitch=-128 time=0.043478249999999996
EXTRACT: pitchwheel channel=12 pitch=-256 time=0
EXTRACT: pitchwheel channel=12 pitch=-256 time=0
EXTRACT: pitchwheel channel=14 pitch=0 time=0.043478249999999996
EXTRACT: pitchwheel channel=12 pitch=-256 time=0.021739124999999998
EXTRACT: pitchwheel channel=12 pitch=-512 time=0
EXTRACT: pitchwheel channel=12 pitch=-512 time=0
EXTRACT: note_off channel=0 note=71 velocity=47 time=0.065217375
EXTRACT: note_off channel=0 note=66 velocity=47 time=0
EXTRACT: note_on channel=0 note=59 velocity=95 time=0
EXTRACT: pitchwheel channel=12 pitch=-256 time=0
EXTRACT: pitchwheel channel=12 pitch=-640 time=0
EXTRACT: pitchwheel channel=12 pitch=-640 time=0
EXTRACT: note_off channel=7 note=54 velocity=95 time=0
EXTRACT: note_off channel=7 note=47 velocity=95 time=0
EXTRACT: note_on channel=7 note=54 velocity=95 time=0
EXTRACT: note_on channel=7 note=47 velocity=95 time=0
EXTRACT: pitchwheel channel=14 pitch=128 time=0
EXTRACT: pitchwheel channel=12 pitch=-384 time=0.065217375
EXTRACT: pitchwheel channel=12 pitch=-768 time=0
EXTRACT: pitchwheel channel=12 pitch=-768 time=0
EXTRACT: pitchwheel channel=14 pitch=0 time=0.021739124999999998
EXTRACT: pitchwheel channel=12 pitch=-512 time=0.043478249999999996
EXTRACT: pitchwheel channel=12 pitch=-1024 time=0
EXTRACT: pitchwheel channel=12 pitch=-1024 time=0
EXTRACT: pitchwheel channel=14 pitch=128 time=0.043478249999999996
EXTRACT: pitchwheel channel=12 pitch=-512 time=0.021739124999999998
EXTRACT: pitchwheel channel=12 pitch=-1152 time=0
EXTRACT: pitchwheel channel=12 pitch=-1152 time=0
EXTRACT: note_off channel=0 note=59 velocity=95 time=0.065217375
EXTRACT: note_on channel=0 note=71 velocity=47 time=0
EXTRACT: note_on channel=0 note=66 velocity=47 time=0
EXTRACT: pitchwheel channel=12 pitch=-640 time=0
EXTRACT: pitchwheel channel=12 pitch=0 time=0
EXTRACT: note_off channel=12 note=81 velocity=95 time=0
EXTRACT: pitchwheel channel=12 pitch=-1408 time=0
EXTRACT: pitchwheel channel=12 pitch=0 time=0
EXTRACT: note_off channel=12 note=78 velocity=95 time=0
EXTRACT: pitchwheel channel=12 pitch=-1408 time=0
EXTRACT: pitchwheel channel=12 pitch=0 time=0
EXTRACT: note_off channel=12 note=73 velocity=95 time=0
EXTRACT: note_on channel=11 note=80 velocity=95 time=0
EXTRACT: note_on channel=11 note=76 velocity=95 time=0
EXTRACT: note_on channel=11 note=71 velocity=95 time=0
EXTRACT: note_off channel=7 note=54 velocity=95 time=0
EXTRACT: note_off channel=7 note=47 velocity=95 time=0
EXTRACT: note_on channel=7 note=56 velocity=95 time=0
EXTRACT: note_on channel=7 note=47 velocity=95 time=0
EXTRACT: pitchwheel channel=14 pitch=0 time=0
EXTRACT: note_off channel=9 note=42 velocity=95 time=0
EXTRACT: note_off channel=9 note=36 velocity=95 time=0
EXTRACT: note_on channel=9 note=46 velocity=63 time=0
EXTRACT: note_on channel=9 note=40 velocity=95 time=0
EXTRACT: pitchwheel channel=14 pitch=128 time=0.08695649999999999
EXTRACT: pitchwheel channel=14 pitch=0 time=0.08695649999999999
EXTRACT: note_off channel=0 note=71 velocity=47 time=0.08695649999999999
EXTRACT: note_off channel=0 note=66 velocity=47 time=0
EXTRACT: note_on channel=0 note=59 velocity=95 time=0
EXTRACT: note_off channel=11 note=83 velocity=95 time=0
EXTRACT: note_off channel=11 note=80 velocity=95 time=0
EXTRACT: note_off channel=11 note=76 velocity=95 time=0
EXTRACT: note_off channel=11 note=71 velocity=95 time=0
EXTRACT: note_on channel=11 note=83 velocity=95 time=0
EXTRACT: note_on channel=11 note=80 velocity=95 time=0
EXTRACT: note_on channel=11 note=76 velocity=95 time=0
EXTRACT: note_on channel=11 note=71 velocity=95 time=0
EXTRACT: note_off channel=7 note=56 velocity=95 time=0
EXTRACT: note_off channel=7 note=47 velocity=95 time=0
EXTRACT: note_on channel=7 note=54 velocity=95 time=0
EXTRACT: note_on channel=7 note=47 velocity=95 time=0
EXTRACT: pitchwheel channel=14 pitch=128 time=0
EXTRACT: pitchwheel channel=14 pitch=0 time=0.08695649999999999
EXTRACT: pitchwheel channel=14 pitch=128 time=0.08695649999999999
EXTRACT: note_off channel=0 note=59 velocity=95 time=0.08695649999999999
EXTRACT: note_on channel=0 note=71 velocity=63 time=0
EXTRACT: note_on channel=0 note=66 velocity=47 time=0
EXTRACT: note_off channel=11 note=83 velocity=95 time=0
EXTRACT: note_off channel=11 note=80 velocity=95 time=0
EXTRACT: note_off channel=11 note=76 velocity=95 time=0
EXTRACT: note_off channel=11 note=71 velocity=95 time=0
EXTRACT: note_on channel=11 note=80 velocity=95 time=0
EXTRACT: note_off channel=7 note=54 velocity=95 time=0
EXTRACT: note_off channel=7 note=47 velocity=95 time=0
EXTRACT: note_on channel=7 note=54 velocity=95 time=0
EXTRACT: note_on channel=7 note=47 velocity=95 time=0
EXTRACT: pitchwheel channel=14 pitch=0 time=0
EXTRACT: note_off channel=9 note=46 velocity=63 time=0
EXTRACT: note_off channel=9 note=40 velocity=95 time=0
EXTRACT: note_on channel=9 note=42 velocity=95 time=0
EXTRACT: note_on channel=9 note=36 velocity=95 time=0
EXTRACT: pitchwheel channel=14 pitch=128 time=0.08695649999999999
EXTRACT: pitchwheel channel=14 pitch=0 time=0.08695649999999999
EXTRACT: note_off channel=0 note=71 velocity=63 time=0.08695649999999999
EXTRACT: note_off channel=0 note=66 velocity=47 time=0
EXTRACT: note_on channel=0 note=59 velocity=95 time=0
EXTRACT: note_off channel=8 note=35 velocity=95 time=0
EXTRACT: note_on channel=8 note=37 velocity=95 time=0
EXTRACT: note_off channel=5 note=35 velocity=95 time=0
EXTRACT: note_on channel=5 note=37 velocity=95 time=0
EXTRACT: note_off channel=7 note=54 velocity=95 time=0
EXTRACT: note_off channel=7 note=47 velocity=95 time=0
EXTRACT: note_on channel=7 note=54 velocity=95 time=0
EXTRACT: note_on channel=7 note=47 velocity=95 time=0
EXTRACT: pitchwheel channel=14 pitch=128 time=0
EXTRACT: pitchwheel channel=14 pitch=0 time=0
EXTRACT: note_off channel=14 note=47 velocity=95 time=0
EXTRACT: note_on channel=13 note=49 velocity=95 time=0
EXTRACT: note_off channel=9 note=42 velocity=95 time=0
EXTRACT: note_off channel=9 note=36 velocity=95 time=0
EXTRACT: note_on channel=9 note=53 velocity=95 time=0
EXTRACT: note_on channel=9 note=45 velocity=95 time=0
EXTRACT: note_off channel=11 note=80 velocity=95 time=0.08695649999999999
EXTRACT: note_on channel=11 note=78 velocity=95 time=0
EXTRACT: note_off channel=0 note=59 velocity=95 time=0.17391299999999998
EXTRACT: note_on channel=0 note=71 velocity=47 time=0
EXTRACT: note_on channel=0 note=66 velocity=47 time=0
EXTRACT: note_off channel=8 note=37 velocity=95 time=0
EXTRACT: note_on channel=8 note=39 velocity=95 time=0
EXTRACT: note_off channel=5 note=37 velocity=95 time=0
EXTRACT: note_on channel=5 note=39 velocity=95 time=0
EXTRACT: note_off channel=7 note=54 velocity=95 time=0
EXTRACT: note_off channel=7 note=47 velocity=95 time=0
EXTRACT: note_on channel=7 note=54 velocity=95 time=0
EXTRACT: note_on channel=7 note=47 velocity=95 time=0
EXTRACT: note_off channel=13 note=49 velocity=95 time=0
EXTRACT: note_on channel=13 note=51 velocity=95 time=0
EXTRACT: note_off channel=9 note=53 velocity=95 time=0
EXTRACT: note_off channel=9 note=45 velocity=95 time=0
EXTRACT: note_on channel=9 note=42 velocity=95 time=0
EXTRACT: note_on channel=9 note=36 velocity=95 time=0
EXTRACT: note_off channel=11 note=78 velocity=95 time=0.17391299999999998
EXTRACT: note_on channel=11 note=76 velocity=95 time=0
EXTRACT: note_off channel=0 note=71 velocity=47 time=0.08695649999999999
EXTRACT: note_off channel=0 note=66 velocity=47 time=0
EXTRACT: note_on channel=0 note=59 velocity=95 time=0
EXTRACT: note_off channel=8 note=39 velocity=95 time=0
EXTRACT: note_on channel=8 note=32 velocity=95 time=0
EXTRACT: note_off channel=5 note=39 velocity=95 time=0
EXTRACT: note_on channel=5 note=32 velocity=95 time=0
EXTRACT: note_off channel=7 note=54 velocity=95 time=0
EXTRACT: note_off channel=7 note=47 velocity=95 time=0
EXTRACT: note_on channel=7 note=61 velocity=95 time=0
EXTRACT: note_on channel=7 note=56 velocity=95 time=0
EXTRACT: note_on channel=7 note=49 velocity=95 time=0
EXTRACT: note_off channel=13 note=51 velocity=95 time=0
EXTRACT: note_on channel=13 note=51 velocity=95 time=0
EXTRACT: note_on channel=13 note=44 velocity=95 time=0
EXTRACT: note_off channel=9 note=42 velocity=95 time=0
EXTRACT: note_off channel=9 note=36 velocity=95 time=0
EXTRACT: note_on channel=9 note=43 velocity=95 time=0
EXTRACT: note_off channel=0 note=59 velocity=95 time=0.2608695
EXTRACT: note_on channel=0 note=71 velocity=63 time=0
EXTRACT: note_on channel=0 note=63 velocity=47 time=0
EXTRACT: note_off channel=11 note=76 velocity=95 time=0
EXTRACT: note_on channel=12 note=83 velocity=95 time=0
EXTRACT: note_off channel=7 note=61 velocity=95 time=0
EXTRACT: note_off channel=7 note=56 velocity=95 time=0
EXTRACT: note_off channel=7 note=49 velocity=95 time=0
EXTRACT: note_on channel=7 note=56 velocity=95 time=0
EXTRACT: note_on channel=7 note=49 velocity=95 time=0
EXTRACT: note_off channel=9 note=43 velocity=95 time=0
EXTRACT: note_on channel=9 note=49 velocity=95 time=0
EXTRACT: note_on channel=9 note=57 velocity=95 time=0
EXTRACT: note_on channel=9 note=36 velocity=95 time=0
EXTRACT: pitchwheel channel=12 pitch=0 time=0.08695649999999999
EXTRACT: pitchwheel channel=12 pitch=128 time=0.08695649999999999
EXTRACT: note_off channel=0 note=71 velocity=63 time=0.08695649999999999
EXTRACT: note_off channel=0 note=63 velocity=47 time=0
EXTRACT: note_on channel=0 note=59 velocity=47 time=0
EXTRACT: pitchwheel channel=12 pitch=0 time=0
EXTRACT: note_off channel=7 note=56 velocity=95 time=0
EXTRACT: note_off channel=7 note=49 velocity=95 time=0
EXTRACT: note_on channel=7 note=56 velocity=95 time=0
EXTRACT: note_on channel=7 note=49 velocity=95 time=0
EXTRACT: pitchwheel channel=12 pitch=128 time=0.08695649999999999
EXTRACT: pitchwheel channel=12 pitch=0 time=0.08695649999999999
EXTRACT: note_off channel=0 note=59 velocity=47 time=0.08695649999999999
EXTRACT: note_on channel=0 note=71 velocity=63 time=0
EXTRACT: note_on channel=0 note=63 velocity=63 time=0
EXTRACT: pitchwheel channel=12 pitch=128 time=0
EXTRACT: note_off channel=7 note=56 velocity=95 time=0
EXTRACT: note_off channel=7 note=49 velocity=95 time=0
EXTRACT: note_on channel=7 note=56 velocity=95 time=0
EXTRACT: note_on channel=7 note=49 velocity=95 time=0
EXTRACT: note_off channel=9 note=49 velocity=95 time=0
EXTRACT: note_off channel=9 note=57 velocity=95 time=0
EXTRACT: note_off channel=9 note=36 velocity=95 time=0
EXTRACT: note_on channel=9 note=46 velocity=63 time=0
EXTRACT: note_on channel=9 note=40 velocity=95 time=0
EXTRACT: pitchwheel channel=12 pitch=0 time=0.08695649999999999
EXTRACT: pitchwheel channel=12 pitch=128 time=0.08695649999999999
EXTRACT: note_off channel=0 note=71 velocity=63 time=0.08695649999999999
EXTRACT: note_off channel=0 note=63 velocity=63 time=0
EXTRACT: note_on channel=0 note=59 velocity=47 time=0
EXTRACT: pitchwheel channel=12 pitch=0 time=0
EXTRACT: note_off channel=7 note=56 velocity=95 time=0
EXTRACT: note_off channel=7 note=49 velocity=95 time=0
EXTRACT: note_on channel=7 note=56 velocity=95 time=0
EXTRACT: note_on channel=7 note=49 velocity=95 time=0
EXTRACT: pitchwheel channel=12 pitch=128 time=0.08695649999999999
EXTRACT: pitchwheel channel=12 pitch=0 time=0.08695649999999999
EXTRACT: note_off channel=0 note=59 velocity=47 time=0.08695649999999999
EXTRACT: note_on channel=0 note=71 velocity=63 time=0
EXTRACT: note_on channel=0 note=63 velocity=63 time=0
EXTRACT: pitchwheel channel=12 pitch=128 time=0
EXTRACT: note_off channel=7 note=56 velocity=95 time=0
EXTRACT: note_off channel=7 note=49 velocity=95 time=0
EXTRACT: note_on channel=7 note=56 velocity=95 time=0
EXTRACT: note_on channel=7 note=49 velocity=95 time=0
EXTRACT: note_off channel=9 note=46 velocity=63 time=0
EXTRACT: note_off channel=9 note=40 velocity=95 time=0
EXTRACT: note_on channel=9 note=42 velocity=95 time=0
EXTRACT: note_on channel=9 note=36 velocity=95 time=0
EXTRACT: pitchwheel channel=12 pitch=0 time=0.08695649999999999
EXTRACT: pitchwheel channel=12 pitch=128 time=0.08695649999999999
EXTRACT: note_off channel=0 note=71 velocity=63 time=0.08695649999999999
EXTRACT: note_off channel=0 note=63 velocity=63 time=0
EXTRACT: note_on channel=0 note=59 velocity=47 time=0
EXTRACT: pitchwheel channel=12 pitch=0 time=0
EXTRACT: note_off channel=7 note=56 velocity=95 time=0
EXTRACT: note_off channel=7 note=49 velocity=95 time=0
EXTRACT: note_on channel=7 note=56 velocity=95 time=0
EXTRACT: note_on channel=7 note=49 velocity=95 time=0
EXTRACT: note_off channel=9 note=42 velocity=95 time=0
EXTRACT: note_off channel=9 note=36 velocity=95 time=0
EXTRACT: note_on channel=9 note=53 velocity=95 time=0
EXTRACT: pitchwheel channel=12 pitch=128 time=0.08695649999999999
EXTRACT: pitchwheel channel=12 pitch=0 time=0.08695649999999999
EXTRACT: note_off channel=0 note=59 velocity=47 time=0.08695649999999999
EXTRACT: note_on channel=0 note=71 velocity=63 time=0
EXTRACT: note_on channel=0 note=63 velocity=47 time=0
EXTRACT: note_off channel=8 note=32 velocity=95 time=0
EXTRACT: note_on channel=8 note=32 velocity=95 time=0
EXTRACT: pitchwheel channel=12 pitch=128 time=0
EXTRACT: note_off channel=5 note=32 velocity=95 time=0
EXTRACT: note_on channel=5 note=32 velocity=95 time=0
EXTRACT: note_off channel=7 note=56 velocity=95 time=0
EXTRACT: note_off channel=7 note=49 velocity=95 time=0
EXTRACT: note_on channel=7 note=56 velocity=95 time=0
EXTRACT: note_on channel=7 note=49 velocity=95 time=0
EXTRACT: note_off channel=13 note=51 velocity=95 time=0
EXTRACT: note_off channel=13 note=44 velocity=95 time=0
EXTRACT: note_on channel=13 note=51 velocity=95 time=0
EXTRACT: note_on channel=13 note=44 velocity=95 time=0
EXTRACT: note_off channel=9 note=53 velocity=95 time=0
EXTRACT: note_on channel=9 note=42 velocity=95 time=0
EXTRACT: note_on channel=9 note=43 velocity=95 time=0
EXTRACT: pitchwheel channel=12 pitch=0 time=0.08695649999999999
EXTRACT: pitchwheel channel=12 pitch=128 time=0.08695649999999999
EXTRACT: note_off channel=0 note=71 velocity=63 time=0.08695649999999999
EXTRACT: note_off channel=0 note=63 velocity=47 time=0
EXTRACT: note_on channel=0 note=59 velocity=47 time=0
EXTRACT: note_off channel=8 note=32 velocity=95 time=0
EXTRACT: note_on channel=8 note=33 velocity=95 time=0
EXTRACT: pitchwheel channel=12 pitch=0 time=0
EXTRACT: note_off channel=5 note=32 velocity=95 time=0
EXTRACT: note_on channel=5 note=33 velocity=95 time=0
EXTRACT: note_off channel=7 note=56 velocity=95 time=0
EXTRACT: note_off channel=7 note=49 velocity=95 time=0
EXTRACT: note_on channel=7 note=57 velocity=95 time=0
EXTRACT: note_on channel=7 note=52 velocity=95 time=0
EXTRACT: note_on channel=7 note=45 velocity=95 time=0
EXTRACT: note_off channel=13 note=51 velocity=95 time=0
EXTRACT: note_off channel=13 note=44 velocity=95 time=0
EXTRACT: note_on channel=14 note=52 velocity=95 time=0
EXTRACT: note_on channel=13 note=45 velocity=95 time=0
EXTRACT: pitchwheel channel=12 pitch=128 time=0.08695649999999999
EXTRACT: pitchwheel channel=14 pitch=0 time=0
EXTRACT: pitchwheel channel=12 pitch=0 time=0.08695649999999999
EXTRACT: pitchwheel channel=14 pitch=128 time=0
EXTRACT: note_off channel=0 note=59 velocity=47 time=0.08695649999999999
EXTRACT: note_on channel=0 note=69 velocity=47 time=0
EXTRACT: note_on channel=0 note=61 velocity=47 time=0
EXTRACT: pitchwheel channel=12 pitch=128 time=0
EXTRACT: note_off channel=7 note=57 velocity=95 time=0
EXTRACT: note_off channel=7 note=52 velocity=95 time=0
EXTRACT: note_off channel=7 note=45 velocity=95 time=0
EXTRACT: note_on channel=7 note=52 velocity=95 time=0
EXTRACT: note_on channel=7 note=45 velocity=95 time=0
EXTRACT: pitchwheel channel=14 pitch=0 time=0
EXTRACT: note_off channel=9 note=42 velocity=95 time=0
EXTRACT: note_off channel=9 note=43 velocity=95 time=0
EXTRACT: note_on channel=9 note=42 velocity=95 time=0
EXTRACT: note_on channel=9 note=36 velocity=95 time=0
EXTRACT: pitchwheel channel=12 pitch=0 time=0.08695649999999999
EXTRACT: pitchwheel channel=14 pitch=128 time=0
EXTRACT: pitchwheel channel=12 pitch=128 time=0.08695649999999999
EXTRACT: pitchwheel channel=14 pitch=0 time=0
EXTRACT: note_off channel=0 note=69 velocity=47 time=0.08695649999999999
EXTRACT: note_off channel=0 note=61 velocity=47 time=0
EXTRACT: note_on channel=0 note=57 velocity=47 time=0
EXTRACT: pitchwheel channel=12 pitch=0 time=0
EXTRACT: note_off channel=7 note=52 velocity=95 time=0
EXTRACT: note_off channel=7 note=45 velocity=95 time=0
EXTRACT: note_on channel=7 note=52 velocity=95 time=0
EXTRACT: note_on channel=7 note=45 velocity=95 time=0
EXTRACT: pitchwheel channel=14 pitch=128 time=0
EXTRACT: pitchwheel channel=12 pitch=128 time=0.08695649999999999
EXTRACT: pitchwheel channel=14 pitch=0 time=0
EXTRACT: pitchwheel channel=12 pitch=0 time=0.08695649999999999
EXTRACT: pitchwheel channel=14 pitch=128 time=0
EXTRACT: note_off channel=0 note=57 velocity=47 time=0.08695649999999999
EXTRACT: note_on channel=0 note=69 velocity=63 time=0
EXTRACT: note_on channel=0 note=61 velocity=63 time=0
EXTRACT: pitchwheel channel=12 pitch=128 time=0
EXTRACT: note_off channel=7 note=52 velocity=95 time=0
EXTRACT: note_off channel=7 note=45 velocity=95 time=0
EXTRACT: note_on channel=7 note=54 velocity=95 time=0
EXTRACT: note_on channel=7 note=45 velocity=95 time=0
EXTRACT: pitchwheel channel=14 pitch=0 time=0
EXTRACT: note_off channel=9 note=42 velocity=95 time=0
EXTRACT: note_off channel=9 note=36 velocity=95 time=0
EXTRACT: note_on channel=9 note=46 velocity=63 time=0
EXTRACT: note_on channel=9 note=40 velocity=95 time=0
EXTRACT: pitchwheel channel=12 pitch=0 time=0.08695649999999999
EXTRACT: pitchwheel channel=14 pitch=128 time=0
EXTRACT: pitchwheel channel=12 pitch=128 time=0.08695649999999999
EXTRACT: pitchwheel channel=14 pitch=0 time=0
EXTRACT: note_off channel=0 note=69 velocity=63 time=0.08695649999999999
EXTRACT: note_off channel=0 note=61 velocity=63 time=0
EXTRACT: note_on channel=0 note=57 velocity=47 time=0
EXTRACT: pitchwheel channel=12 pitch=0 time=0
EXTRACT: note_off channel=7 note=54 velocity=95 time=0
EXTRACT: note_off channel=7 note=45 velocity=95 time=0
EXTRACT: note_on channel=7 note=52 velocity=95 time=0
EXTRACT: note_on channel=7 note=45 velocity=95 time=0
EXTRACT: pitchwheel channel=14 pitch=128 time=0
EXTRACT: pitchwheel channel=12 pitch=128 time=0.08695649999999999
EXTRACT: pitchwheel channel=14 pitch=0 time=0
EXTRACT: pitchwheel channel=12 pitch=0 time=0.08695649999999999
EXTRACT: pitchwheel channel=14 pitch=128 time=0
EXTRACT: note_off channel=0 note=57 velocity=47 time=0.08695649999999999
EXTRACT: note_on channel=0 note=69 velocity=63 time=0
EXTRACT: note_on channel=0 note=61 velocity=47 time=0
EXTRACT: pitchwheel channel=12 pitch=128 time=0
EXTRACT: note_off channel=7 note=52 velocity=95 time=0
EXTRACT: note_off channel=7 note=45 velocity=95 time=0
EXTRACT: note_on channel=7 note=52 velocity=95 time=0
EXTRACT: note_on channel=7 note=45 velocity=95 time=0
EXTRACT: pitchwheel channel=14 pitch=0 time=0
EXTRACT: note_off channel=9 note=46 velocity=63 time=0
EXTRACT: note_off channel=9 note=40 velocity=95 time=0
EXTRACT: note_on channel=9 note=42 velocity=95 time=0
EXTRACT: note_on channel=9 note=36 velocity=95 time=0
EXTRACT: pitchwheel channel=12 pitch=0 time=0.08695649999999999
EXTRACT: pitchwheel channel=14 pitch=128 time=0
EXTRACT: pitchwheel channel=12 pitch=128 time=0.08695649999999999
EXTRACT: pitchwheel channel=14 pitch=0 time=0
EXTRACT: note_off channel=0 note=69 velocity=63 time=0.08695649999999999
EXTRACT: note_off channel=0 note=61 velocity=47 time=0
EXTRACT: note_on channel=0 note=57 velocity=63 time=0
EXTRACT: note_off channel=8 note=33 velocity=95 time=0
EXTRACT: note_on channel=8 note=39 velocity=95 time=0
EXTRACT: pitchwheel channel=12 pitch=0 time=0
EXTRACT: note_off channel=5 note=33 velocity=95 time=0
EXTRACT: note_on channel=5 note=39 velocity=95 time=0
EXTRACT: note_off channel=7 note=52 velocity=95 time=0
EXTRACT: note_off channel=7 note=45 velocity=95 time=0
EXTRACT: note_on channel=7 note=52 velocity=95 time=0
EXTRACT: note_on channel=7 note=45 velocity=95 time=0
EXTRACT: pitchwheel channel=14 pitch=128 time=0
EXTRACT: pitchwheel channel=14 pitch=0 time=0
EXTRACT: note_off channel=14 note=52 velocity=95 time=0
EXTRACT: note_off channel=13 note=45 velocity=95 time=0
EXTRACT: note_on channel=13 note=51 velocity=95 time=0
EXTRACT: note_off channel=9 note=42 velocity=95 time=0
EXTRACT: note_off channel=9 note=36 velocity=95 time=0
EXTRACT: note_on channel=9 note=53 velocity=95 time=0
EXTRACT: note_on channel=9 note=45 velocity=95 time=0
EXTRACT: pitchwheel channel=12 pitch=128 time=0.08695649999999999
EXTRACT: pitchwheel channel=12 pitch=0 time=0.08695649999999999
EXTRACT: note_off channel=0 note=57 velocity=63 time=0.08695649999999999
EXTRACT: note_on channel=0 note=69 velocity=63 time=0
EXTRACT: note_on channel=0 note=61 velocity=47 time=0
EXTRACT: note_off channel=8 note=39 velocity=95 time=0
EXTRACT: note_on channel=8 note=40 velocity=95 time=0
EXTRACT: pitchwheel channel=12 pitch=128 time=0
EXTRACT: note_off channel=5 note=39 velocity=95 time=0
EXTRACT: note_on channel=5 note=40 velocity=95 time=0
EXTRACT: note_off channel=7 note=52 velocity=95 time=0
EXTRACT: note_off channel=7 note=45 velocity=95 time=0
EXTRACT: note_on channel=7 note=52 velocity=95 time=0
EXTRACT: note_on channel=7 note=45 velocity=95 time=0
EXTRACT: note_off channel=13 note=51 velocity=95 time=0
EXTRACT: note_on channel=13 note=52 velocity=95 time=0
EXTRACT: note_off channel=9 note=53 velocity=95 time=0
EXTRACT: note_off channel=9 note=45 velocity=95 time=0
EXTRACT: note_on channel=9 note=42 velocity=95 time=0
EXTRACT: note_on channel=9 note=36 velocity=95 time=0
EXTRACT: pitchwheel channel=12 pitch=0 time=0.08695649999999999
EXTRACT: pitchwheel channel=12 pitch=128 time=0.08695649999999999
EXTRACT: note_off channel=0 note=69 velocity=63 time=0.08695649999999999
EXTRACT: note_off channel=0 note=61 velocity=47 time=0
EXTRACT: note_on channel=0 note=57 velocity=47 time=0
EXTRACT: pitchwheel channel=12 pitch=0 time=0
EXTRACT: note_off channel=7 note=52 velocity=95 time=0
EXTRACT: note_off channel=7 note=45 velocity=95 time=0
EXTRACT: note_on channel=7 note=64 velocity=95 time=0
EXTRACT: note_on channel=7 note=59 velocity=95 time=0
EXTRACT: note_on channel=7 note=52 velocity=95 time=0
EXTRACT: note_off channel=13 note=52 velocity=95 time=0
EXTRACT: note_on channel=13 note=40 velocity=95 time=0
EXTRACT: note_off channel=9 note=42 velocity=95 time=0
EXTRACT: note_off channel=9 note=36 velocity=95 time=0
EXTRACT: note_on channel=9 note=43 velocity=95 time=0
EXTRACT: pitchwheel channel=12 pitch=128 time=0.08695649999999999
EXTRACT: pitchwheel channel=12 pitch=0 time=0.08695649999999999
EXTRACT: note_off channel=0 note=57 velocity=47 time=0.08695649999999999
EXTRACT: note_on channel=0 note=71 velocity=47 time=0
EXTRACT: note_on channel=0 note=64 velocity=47 time=0
EXTRACT: note_off channel=8 note=40 velocity=95 time=0
EXTRACT: note_on channel=8 note=40 velocity=95 time=0
EXTRACT: note_on channel=8 note=28 velocity=95 time=0
EXTRACT: pitchwheel channel=12 pitch=128 time=0
EXTRACT: pitchwheel channel=12 pitch=0 time=0
EXTRACT: note_off channel=12 note=83 velocity=95 time=0
EXTRACT: note_on channel=11 note=83 velocity=95 time=0
EXTRACT: note_on channel=11 note=81 velocity=95 time=0
EXTRACT: note_on channel=11 note=78 velocity=95 time=0
EXTRACT: note_on channel=11 note=73 velocity=95 time=0
EXTRACT: note_off channel=5 note=40 velocity=95 time=0
EXTRACT: note_on channel=5 note=28 velocity=95 time=0
EXTRACT: note_off channel=7 note=64 velocity=95 time=0
EXTRACT: note_off channel=7 note=59 velocity=95 time=0
EXTRACT: note_off channel=7 note=52 velocity=95 time=0
EXTRACT: note_on channel=7 note=47 velocity=95 time=0
EXTRACT: note_on channel=7 note=40 velocity=95 time=0
EXTRACT: note_off channel=9 note=43 velocity=95 time=0
EXTRACT: note_on channel=9 note=49 velocity=95 time=0
EXTRACT: note_on channel=9 note=57 velocity=95 time=0
EXTRACT: note_on channel=9 note=36 velocity=95 time=0
EXTRACT: note_off channel=0 note=71 velocity=47 time=0.2608695
EXTRACT: note_off channel=0 note=64 velocity=47 time=0
EXTRACT: note_on channel=0 note=59 velocity=95 time=0
EXTRACT: note_off channel=11 note=81 velocity=95 time=0
EXTRACT: note_off channel=11 note=78 velocity=95 time=0
EXTRACT: note_off channel=11 note=73 velocity=95 time=0
EXTRACT: note_on channel=11 note=80 velocity=95 time=0
EXTRACT: note_on channel=11 note=76 velocity=95 time=0
EXTRACT: note_on channel=11 note=71 velocity=95 time=0
EXTRACT: note_off channel=7 note=47 velocity=95 time=0
EXTRACT: note_off channel=7 note=40 velocity=95 time=0
EXTRACT: note_on channel=7 note=47 velocity=95 time=0
EXTRACT: note_on channel=7 note=40 velocity=95 time=0
EXTRACT: note_off channel=0 note=59 velocity=95 time=0.2608695
EXTRACT: note_on channel=0 note=71 velocity=47 time=0
EXTRACT: note_on channel=0 note=64 velocity=63 time=0
EXTRACT: note_off channel=7 note=47 velocity=95 time=0
EXTRACT: note_off channel=7 note=40 velocity=95 time=0
EXTRACT: note_on channel=7 note=49 velocity=95 time=0
EXTRACT: note_on channel=7 note=40 velocity=95 time=0
EXTRACT: note_off channel=13 note=40 velocity=95 time=0
EXTRACT: note_on channel=13 note=64 velocity=95 time=0
EXTRACT: note_on channel=13 note=59 velocity=95 time=0
EXTRACT: note_off channel=9 note=49 velocity=95 time=0
EXTRACT: note_off channel=9 note=57 velocity=95 time=0
EXTRACT: note_off channel=9 note=36 velocity=95 time=0
EXTRACT: note_on channel=9 note=46 velocity=63 time=0
EXTRACT: note_on channel=9 note=40 velocity=95 time=0
EXTRACT: note_off channel=0 note=71 velocity=47 time=0.2608695
EXTRACT: note_off channel=0 note=64 velocity=63 time=0
EXTRACT: note_on channel=0 note=59 velocity=95 time=0
EXTRACT: note_off channel=11 note=83 velocity=95 time=0
EXTRACT: note_off channel=11 note=80 velocity=95 time=0
EXTRACT: note_off channel=11 note=76 velocity=95 time=0
EXTRACT: note_off channel=11 note=71 velocity=95 time=0
EXTRACT: note_on channel=11 note=83 velocity=95 time=0
EXTRACT: note_on channel=11 note=80 velocity=95 time=0
EXTRACT: note_on channel=11 note=76 velocity=95 time=0
EXTRACT: note_on channel=11 note=71 velocity=95 time=0
EXTRACT: note_off channel=7 note=49 velocity=95 time=0
EXTRACT: note_off channel=7 note=40 velocity=95 time=0
EXTRACT: note_on channel=7 note=49 velocity=95 time=0
EXTRACT: note_on channel=7 note=40 velocity=95 time=0
EXTRACT: note_off channel=0 note=59 velocity=95 time=0.2608695
EXTRACT: note_on channel=0 note=71 velocity=47 time=0
EXTRACT: note_on channel=0 note=64 velocity=63 time=0
EXTRACT: note_off channel=11 note=83 velocity=95 time=0
EXTRACT: note_off channel=11 note=80 velocity=95 time=0
EXTRACT: note_off channel=11 note=76 velocity=95 time=0
EXTRACT: note_off channel=11 note=71 velocity=95 time=0
EXTRACT: note_off channel=7 note=49 velocity=95 time=0
EXTRACT: note_off channel=7 note=40 velocity=95 time=0
EXTRACT: note_on channel=7 note=47 velocity=95 time=0
EXTRACT: note_on channel=7 note=40 velocity=95 time=0
EXTRACT: note_off channel=13 note=64 velocity=95 time=0
EXTRACT: note_off channel=13 note=59 velocity=95 time=0
EXTRACT: note_on channel=13 note=40 velocity=95 time=0
EXTRACT: note_off channel=9 note=46 velocity=63 time=0
EXTRACT: note_off channel=9 note=40 velocity=95 time=0
EXTRACT: note_on channel=9 note=42 velocity=95 time=0
EXTRACT: note_on channel=9 note=36 velocity=95 time=0
EXTRACT: note_off channel=0 note=71 velocity=47 time=0.2608695
EXTRACT: note_off channel=0 note=64 velocity=63 time=0
EXTRACT: note_on channel=0 note=59 velocity=95 time=0
EXTRACT: note_off channel=8 note=40 velocity=95 time=0
EXTRACT: note_off channel=8 note=28 velocity=95 time=0
EXTRACT: note_on channel=8 note=30 velocity=95 time=0
EXTRACT: note_off channel=5 note=28 velocity=95 time=0
EXTRACT: note_on channel=5 note=30 velocity=95 time=0
EXTRACT: note_off channel=7 note=47 velocity=95 time=0
EXTRACT: note_off channel=7 note=40 velocity=95 time=0
EXTRACT: note_on channel=7 note=47 velocity=95 time=0
EXTRACT: note_on channel=7 note=40 velocity=95 time=0
EXTRACT: note_off channel=13 note=40 velocity=95 time=0
EXTRACT: note_on channel=13 note=42 velocity=95 time=0
EXTRACT: note_off channel=9 note=42 velocity=95 time=0
EXTRACT: note_off channel=9 note=36 velocity=95 time=0
EXTRACT: note_on channel=9 note=53 velocity=95 time=0
EXTRACT: note_off channel=0 note=59 velocity=95 time=0.2608695
EXTRACT: note_on channel=0 note=71 velocity=47 time=0
EXTRACT: note_on channel=0 note=64 velocity=63 time=0
EXTRACT: note_off channel=8 note=30 velocity=95 time=0
EXTRACT: note_on channel=8 note=32 velocity=95 time=0
EXTRACT: note_off channel=5 note=30 velocity=95 time=0
EXTRACT: note_on channel=5 note=32 velocity=95 time=0
EXTRACT: note_off channel=7 note=47 velocity=95 time=0
EXTRACT: note_off channel=7 note=40 velocity=95 time=0
EXTRACT: note_on channel=7 note=47 velocity=95 time=0
EXTRACT: note_on channel=7 note=40 velocity=95 time=0
EXTRACT: note_off channel=13 note=42 velocity=95 time=0
EXTRACT: note_on channel=13 note=44 velocity=95 time=0
EXTRACT: note_off channel=9 note=53 velocity=95 time=0
EXTRACT: note_on channel=9 note=42 velocity=95 time=0
EXTRACT: note_on channel=9 note=43 velocity=95 time=0
EXTRACT: note_off channel=0 note=71 velocity=47 time=0.2608695
EXTRACT: note_off channel=0 note=64 velocity=63 time=0
EXTRACT: note_on channel=0 note=59 velocity=95 time=0
EXTRACT: note_off channel=8 note=32 velocity=95 time=0
EXTRACT: note_on channel=8 note=47 velocity=95 time=0
EXTRACT: note_on channel=8 note=35 velocity=95 time=0
EXTRACT: note_on channel=11 note=83 velocity=95 time=0
EXTRACT: note_on channel=11 note=78 velocity=95 time=0
EXTRACT: note_on channel=11 note=73 velocity=95 time=0
EXTRACT: note_on channel=11 note=69 velocity=95 time=0
EXTRACT: note_off channel=5 note=32 velocity=95 time=0
EXTRACT: note_on channel=5 note=35 velocity=95 time=0
EXTRACT: note_off channel=7 note=47 velocity=95 time=0
EXTRACT: note_off channel=7 note=40 velocity=95 time=0
EXTRACT: note_on channel=7 note=54 velocity=95 time=0
EXTRACT: note_on channel=7 note=47 velocity=95 time=0
EXTRACT: note_off channel=13 note=44 velocity=95 time=0
EXTRACT: note_on channel=14 note=47 velocity=95 time=0
EXTRACT: pitchwheel channel=14 pitch=0 time=0.08695649999999999
EXTRACT: pitchwheel channel=14 pitch=128 time=0.08695649999999999
EXTRACT: note_off channel=0 note=59 velocity=95 time=0.08695649999999999
EXTRACT: note_on channel=0 note=71 velocity=47 time=0
EXTRACT: note_on channel=0 note=66 velocity=47 time=0
EXTRACT: note_off channel=11 note=83 velocity=95 time=0
EXTRACT: note_off channel=11 note=78 velocity=95 time=0
EXTRACT: note_off channel=11 note=73 velocity=95 time=0
EXTRACT: note_off channel=11 note=69 velocity=95 time=0
EXTRACT: note_on channel=11 note=83 velocity=95 time=0
EXTRACT: note_on channel=12 note=81 velocity=95 time=0
EXTRACT: note_on channel=12 note=78 velocity=95 time=0
EXTRACT: note_on channel=12 note=73 velocity=95 time=0
EXTRACT: note_off channel=7 note=54 velocity=95 time=0
EXTRACT: note_off channel=7 note=47 velocity=95 time=0
EXTRACT: note_on channel=7 note=54 velocity=95 time=0
EXTRACT: note_on channel=7 note=47 velocity=95 time=0
EXTRACT: pitchwheel channel=14 pitch=0 time=0
EXTRACT: note_off channel=9 note=42 velocity=95 time=0
EXTRACT: note_off channel=9 note=43 velocity=95 time=0
EXTRACT: note_on channel=9 note=42 velocity=95 time=0
EXTRACT: note_on channel=9 note=36 velocity=95 time=0
EXTRACT: pitchwheel channel=12 pitch=0 time=0.065217375
EXTRACT: pitchwheel channel=12 pitch=-128 time=0
EXTRACT: pitchwheel channel=12 pitch=-128 time=0
EXTRACT: pitchwheel channel=14 pitch=128 time=0.021739124999999998
EXTRACT: pitchwheel channel=12 pitch=-128 time=0.043478249999999996
EXTRACT: pitchwheel channel=12 pitch=-256 time=0
EXTRACT: pitchwheel channel=12 pitch=-256 time=0
EXTRACT: pitchwheel channel=14 pitch=0 time=0.043478249999999996
EXTRACT: pitchwheel channel=12 pitch=-256 time=0.021739124999999998
EXTRACT: pitchwheel channel=12 pitch=-512 time=0
EXTRACT: pitchwheel channel=12 pitch=-512 time=0
EXTRACT: note_off channel=0 note=71 velocity=47 time=0.065217375
EXTRACT: note_off channel=0 note=66 velocity=47 time=0
EXTRACT: note_on channel=0 note=59 velocity=95 time=0
EXTRACT: pitchwheel channel=12 pitch=-256 time=0
EXTRACT: pitchwheel channel=12 pitch=-640 time=0
EXTRACT: pitchwheel channel=12 pitch=-640 time=0
EXTRACT: note_off channel=7 note=54 velocity=95 time=0
EXTRACT: note_off channel=7 note=47 velocity=95 time=0
EXTRACT: note_on channel=7 note=54 velocity=95 time=0
EXTRACT: note_on channel=7 note=47 velocity=95 time=0
EXTRACT: pitchwheel channel=14 pitch=128 time=0
EXTRACT: pitchwheel channel=12 pitch=-384 time=0.065217375
EXTRACT: pitchwheel channel=12 pitch=-768 time=0
EXTRACT: pitchwheel channel=12 pitch=-768 time=0
EXTRACT: pitchwheel channel=14 pitch=0 time=0.021739124999999998
EXTRACT: pitchwheel channel=12 pitch=-512 time=0.043478249999999996
EXTRACT: pitchwheel channel=12 pitch=-1024 time=0
EXTRACT: pitchwheel channel=12 pitch=-1024 time=0
EXTRACT: pitchwheel channel=14 pitch=128 time=0.043478249999999996
EXTRACT: pitchwheel channel=12 pitch=-512 time=0.021739124999999998
EXTRACT: pitchwheel channel=12 pitch=-1152 time=0
EXTRACT: pitchwheel channel=12 pitch=-1152 time=0
EXTRACT: note_off channel=0 note=59 velocity=95 time=0.065217375
EXTRACT: note_on channel=0 note=71 velocity=47 time=0
EXTRACT: note_on channel=0 note=66 velocity=47 time=0
EXTRACT: pitchwheel channel=12 pitch=-640 time=0
EXTRACT: pitchwheel channel=12 pitch=0 time=0
EXTRACT: note_off channel=12 note=81 velocity=95 time=0
EXTRACT: pitchwheel channel=12 pitch=-1408 time=0
EXTRACT: pitchwheel channel=12 pitch=0 time=0
EXTRACT: note_off channel=12 note=78 velocity=95 time=0
EXTRACT: pitchwheel channel=12 pitch=-1408 time=0
EXTRACT: pitchwheel channel=12 pitch=0 time=0
EXTRACT: note_off channel=12 note=73 velocity=95 time=0
EXTRACT: note_on channel=11 note=80 velocity=95 time=0
EXTRACT: note_on channel=11 note=76 velocity=95 time=0
EXTRACT: note_on channel=11 note=71 velocity=95 time=0
EXTRACT: note_off channel=7 note=54 velocity=95 time=0
EXTRACT: note_off channel=7 note=47 velocity=95 time=0
EXTRACT: note_on channel=7 note=56 velocity=95 time=0
EXTRACT: note_on channel=7 note=47 velocity=95 time=0
EXTRACT: pitchwheel channel=14 pitch=0 time=0
EXTRACT: note_off channel=9 note=42 velocity=95 time=0
EXTRACT: note_off channel=9 note=36 velocity=95 time=0
EXTRACT: note_on channel=9 note=42 velocity=63 time=0
EXTRACT: note_on channel=9 note=40 velocity=95 time=0
EXTRACT: pitchwheel channel=14 pitch=128 time=0.08695649999999999
EXTRACT: pitchwheel channel=14 pitch=0 time=0.08695649999999999
EXTRACT: note_off channel=0 note=71 velocity=47 time=0.08695649999999999
EXTRACT: note_off channel=0 note=66 velocity=47 time=0
EXTRACT: note_on channel=0 note=59 velocity=95 time=0
EXTRACT: note_off channel=11 note=83 velocity=95 time=0
EXTRACT: note_off channel=11 note=80 velocity=95 time=0
EXTRACT: note_off channel=11 note=76 velocity=95 time=0
EXTRACT: note_off channel=11 note=71 velocity=95 time=0
EXTRACT: note_on channel=11 note=83 velocity=95 time=0
EXTRACT: note_on channel=11 note=80 velocity=95 time=0
EXTRACT: note_on channel=11 note=76 velocity=95 time=0
EXTRACT: note_on channel=11 note=71 velocity=95 time=0
EXTRACT: note_off channel=7 note=56 velocity=95 time=0
EXTRACT: note_off channel=7 note=47 velocity=95 time=0
EXTRACT: note_on channel=7 note=54 velocity=95 time=0
EXTRACT: note_on channel=7 note=47 velocity=95 time=0
EXTRACT: pitchwheel channel=14 pitch=128 time=0
EXTRACT: pitchwheel channel=14 pitch=0 time=0.08695649999999999
EXTRACT: pitchwheel channel=14 pitch=128 time=0.08695649999999999
EXTRACT: note_off channel=0 note=59 velocity=95 time=0.08695649999999999
EXTRACT: note_on channel=0 note=71 velocity=63 time=0
EXTRACT: note_on channel=0 note=66 velocity=47 time=0
EXTRACT: note_off channel=7 note=54 velocity=95 time=0
EXTRACT: note_off channel=7 note=47 velocity=95 time=0
EXTRACT: note_on channel=7 note=54 velocity=95 time=0
EXTRACT: note_on channel=7 note=47 velocity=95 time=0
EXTRACT: pitchwheel channel=14 pitch=0 time=0
EXTRACT: pitchwheel channel=14 pitch=128 time=0
EXTRACT: pitchwheel channel=14 pitch=0 time=0
EXTRACT: note_off channel=14 note=47 velocity=95 time=0
EXTRACT: note_on channel=13 note=47 velocity=95 time=0
EXTRACT: note_off channel=9 note=42 velocity=63 time=0
EXTRACT: note_off channel=9 note=40 velocity=95 time=0
EXTRACT: note_on channel=9 note=42 velocity=95 time=0
EXTRACT: note_on channel=9 note=36 velocity=95 time=0
EXTRACT: note_off channel=0 note=71 velocity=63 time=0.2608695
EXTRACT: note_off channel=0 note=66 velocity=47 time=0
EXTRACT: note_on channel=0 note=59 velocity=95 time=0
EXTRACT: note_off channel=8 note=47 velocity=95 time=0
EXTRACT: note_off channel=8 note=35 velocity=95 time=0
EXTRACT: note_on channel=8 note=37 velocity=95 time=0
EXTRACT: note_off channel=11 note=83 velocity=95 time=0
EXTRACT: note_off channel=11 note=80 velocity=95 time=0
EXTRACT: note_off channel=11 note=76 velocity=95 time=0
EXTRACT: note_off channel=11 note=71 velocity=95 time=0
EXTRACT: note_off channel=5 note=35 velocity=95 time=0
EXTRACT: note_on channel=5 note=37 velocity=95 time=0
EXTRACT: note_off channel=7 note=54 velocity=95 time=0
EXTRACT: note_off channel=7 note=47 velocity=95 time=0
EXTRACT: note_on channel=7 note=54 velocity=95 time=0
EXTRACT: note_on channel=7 note=47 velocity=95 time=0
EXTRACT: note_off channel=13 note=47 velocity=95 time=0
EXTRACT: note_on channel=13 note=49 velocity=95 time=0
EXTRACT: note_off channel=9 note=42 velocity=95 time=0
EXTRACT: note_off channel=9 note=36 velocity=95 time=0
EXTRACT: note_on channel=9 note=53 velocity=95 time=0
EXTRACT: note_on channel=9 note=45 velocity=95 time=0
EXTRACT: note_off channel=0 note=59 velocity=95 time=0.2608695
EXTRACT: note_on channel=0 note=71 velocity=47 time=0
EXTRACT: note_on channel=0 note=66 velocity=47 time=0
EXTRACT: note_off channel=8 note=37 velocity=95 time=0
EXTRACT: note_on channel=8 note=39 velocity=95 time=0
EXTRACT: note_off channel=5 note=37 velocity=95 time=0
EXTRACT: note_on channel=5 note=39 velocity=95 time=0
EXTRACT: note_off channel=7 note=54 velocity=95 time=0
EXTRACT: note_off channel=7 note=47 velocity=95 time=0
EXTRACT: note_on channel=7 note=54 velocity=95 time=0
EXTRACT: note_on channel=7 note=47 velocity=95 time=0
EXTRACT: note_off channel=13 note=49 velocity=95 time=0
EXTRACT: note_on channel=13 note=51 velocity=95 time=0
EXTRACT: note_off channel=9 note=53 velocity=95 time=0
EXTRACT: note_off channel=9 note=45 velocity=95 time=0
EXTRACT: note_on channel=9 note=42 velocity=95 time=0
EXTRACT: note_on channel=9 note=36 velocity=95 time=0
EXTRACT: note_off channel=0 note=71 velocity=47 time=0.2608695
EXTRACT: note_off channel=0 note=66 velocity=47 time=0
EXTRACT: note_on channel=0 note=59 velocity=95 time=0
EXTRACT: note_off channel=8 note=39 velocity=95 time=0
EXTRACT: note_on channel=8 note=37 velocity=95 time=0
EXTRACT: note_off channel=5 note=39 velocity=95 time=0
EXTRACT: note_on channel=5 note=37 velocity=95 time=0
EXTRACT: note_off channel=7 note=54 velocity=95 time=0
EXTRACT: note_off channel=7 note=47 velocity=95 time=0
EXTRACT: note_on channel=7 note=61 velocity=95 time=0
EXTRACT: note_on channel=7 note=56 velocity=95 time=0
EXTRACT: note_on channel=7 note=49 velocity=95 time=0
EXTRACT: note_off channel=13 note=51 velocity=95 time=0
EXTRACT: note_on channel=14 note=49 velocity=95 time=0
EXTRACT: note_off channel=9 note=42 velocity=95 time=0
EXTRACT: note_off channel=9 note=36 velocity=95 time=0
EXTRACT: note_on channel=9 note=43 velocity=95 time=0
EXTRACT: pitchwheel channel=14 pitch=0 time=0.08695649999999999
EXTRACT: pitchwheel channel=14 pitch=128 time=0.08695649999999999
EXTRACT: note_off channel=0 note=59 velocity=95 time=0.08695649999999999
EXTRACT: note_on channel=0 note=71 velocity=63 time=0
EXTRACT: note_on channel=0 note=64 velocity=47 time=0
EXTRACT: note_off channel=7 note=61 velocity=95 time=0
EXTRACT: note_off channel=7 note=56 velocity=95 time=0
EXTRACT: note_off channel=7 note=49 velocity=95 time=0
EXTRACT: note_on channel=7 note=56 velocity=95 time=0
EXTRACT: note_on channel=7 note=49 velocity=95 time=0
EXTRACT: pitchwheel channel=14 pitch=0 time=0
EXTRACT: note_off channel=9 note=43 velocity=95 time=0
EXTRACT: note_on channel=9 note=49 velocity=95 time=0
EXTRACT: note_on channel=9 note=57 velocity=95 time=0
EXTRACT: note_on channel=9 note=36 velocity=95 time=0
EXTRACT: pitchwheel channel=14 pitch=128 time=0.08695649999999999
EXTRACT: pitchwheel channel=14 pitch=0 time=0.08695649999999999
EXTRACT: note_off channel=0 note=71 velocity=63 time=0.08695649999999999
EXTRACT: note_off channel=0 note=64 velocity=47 time=0
EXTRACT: note_on channel=0 note=59 velocity=47 time=0
EXTRACT: note_on channel=11 note=83 velocity=95 time=0
EXTRACT: note_off channel=7 note=56 velocity=95 time=0
EXTRACT: note_off channel=7 note=49 velocity=95 time=0
EXTRACT: note_on channel=7 note=56 velocity=95 time=0
EXTRACT: note_on channel=7 note=49 velocity=95 time=0
EXTRACT: pitchwheel channel=14 pitch=128 time=0
EXTRACT: pitchwheel channel=14 pitch=0 time=0.08695649999999999
EXTRACT: note_off channel=11 note=83 velocity=95 time=0.043478249999999996
EXTRACT: note_on channel=11 note=85 velocity=95 time=0
EXTRACT: pitchwheel channel=14 pitch=128 time=0.043478249999999996
EXTRACT: note_off channel=0 note=59 velocity=47 time=0.08695649999999999
EXTRACT: note_on channel=0 note=71 velocity=63 time=0
EXTRACT: note_on channel=0 note=64 velocity=63 time=0
EXTRACT: note_off channel=7 note=56 velocity=95 time=0
EXTRACT: note_off channel=7 note=49 velocity=95 time=0
EXTRACT: note_on channel=7 note=56 velocity=95 time=0
EXTRACT: note_on channel=7 note=49 velocity=95 time=0
EXTRACT: pitchwheel channel=14 pitch=0 time=0
EXTRACT: note_off channel=9 note=49 velocity=95 time=0
EXTRACT: note_off channel=9 note=57 velocity=95 time=0
EXTRACT: note_off channel=9 note=36 velocity=95 time=0
EXTRACT: note_on channel=9 note=46 velocity=63 time=0
EXTRACT: note_on channel=9 note=40 velocity=95 time=0
EXTRACT: pitchwheel channel=14 pitch=128 time=0.08695649999999999
EXTRACT: pitchwheel channel=14 pitch=0 time=0.08695649999999999
EXTRACT: note_off channel=0 note=71 velocity=63 time=0.08695649999999999
EXTRACT: note_off channel=0 note=64 velocity=63 time=0
EXTRACT: note_on channel=0 note=59 velocity=47 time=0
EXTRACT: note_off channel=11 note=85 velocity=95 time=0
EXTRACT: note_on channel=11 note=83 velocity=95 time=0
EXTRACT: note_off channel=7 note=56 velocity=95 time=0
EXTRACT: note_off channel=7 note=49 velocity=95 time=0
EXTRACT: note_on channel=7 note=56 velocity=95 time=0
EXTRACT: note_on channel=7 note=49 velocity=95 time=0
EXTRACT: pitchwheel channel=14 pitch=128 time=0
EXTRACT: pitchwheel channel=14 pitch=0 time=0.08695649999999999
EXTRACT: pitchwheel channel=14 pitch=128 time=0.08695649999999999
EXTRACT: note_off channel=0 note=59 velocity=47 time=0.08695649999999999
EXTRACT: note_on channel=0 note=71 velocity=63 time=0
EXTRACT: note_on channel=0 note=64 velocity=63 time=0
EXTRACT: note_off channel=11 note=83 velocity=95 time=0
EXTRACT: note_on channel=11 note=85 velocity=95 time=0
EXTRACT: note_off channel=7 note=56 velocity=95 time=0
EXTRACT: note_off channel=7 note=49 velocity=95 time=0
EXTRACT: note_on channel=7 note=56 velocity=95 time=0
EXTRACT: note_on channel=7 note=49 velocity=95 time=0
EXTRACT: pitchwheel channel=14 pitch=0 time=0
EXTRACT: note_off channel=9 note=46 velocity=63 time=0
EXTRACT: note_off channel=9 note=40 velocity=95 time=0
EXTRACT: note_on channel=9 note=42 velocity=95 time=0
EXTRACT: note_on channel=9 note=36 velocity=95 time=0
EXTRACT: pitchwheel channel=14 pitch=128 time=0.08695649999999999
EXTRACT: pitchwheel channel=14 pitch=0 time=0.08695649999999999
EXTRACT: note_off channel=0 note=71 velocity=63 time=0.08695649999999999
EXTRACT: note_off channel=0 note=64 velocity=63 time=0
EXTRACT: note_on channel=0 note=59 velocity=47 time=0
EXTRACT: note_off channel=8 note=37 velocity=95 time=0
EXTRACT: note_on channel=8 note=39 velocity=95 time=0
EXTRACT: note_off channel=11 note=85 velocity=95 time=0
EXTRACT: note_on channel=11 note=83 velocity=95 time=0
EXTRACT: note_off channel=5 note=37 velocity=95 time=0
EXTRACT: note_on channel=5 note=39 velocity=95 time=0
EXTRACT: note_off channel=7 note=56 velocity=95 time=0
EXTRACT: note_off channel=7 note=49 velocity=95 time=0
EXTRACT: note_on channel=7 note=56 velocity=95 time=0
EXTRACT: note_on channel=7 note=49 velocity=95 time=0
EXTRACT: pitchwheel channel=14 pitch=128 time=0
EXTRACT: pitchwheel channel=14 pitch=0 time=0
EXTRACT: note_off channel=14 note=49 velocity=95 time=0
EXTRACT: note_on channel=13 note=51 velocity=95 time=0
EXTRACT: note_off channel=9 note=42 velocity=95 time=0
EXTRACT: note_off channel=9 note=36 velocity=95 time=0
EXTRACT: note_on channel=9 note=53 velocity=95 time=0
EXTRACT: note_off channel=11 note=83 velocity=95 time=0.13043475
EXTRACT: note_on channel=11 note=85 velocity=95 time=0
EXTRACT: note_off channel=0 note=59 velocity=47 time=0.13043475
EXTRACT: note_on channel=0 note=71 velocity=63 time=0
EXTRACT: note_on channel=0 note=64 velocity=47 time=0
EXTRACT: note_off channel=8 note=39 velocity=95 time=0
EXTRACT: note_on channel=8 note=40 velocity=95 time=0
EXTRACT: note_off channel=11 note=85 velocity=95 time=0
EXTRACT: note_on channel=11 note=83 velocity=95 time=0
EXTRACT: note_off channel=5 note=39 velocity=95 time=0
EXTRACT: note_on channel=5 note=40 velocity=95 time=0
EXTRACT: note_off channel=7 note=56 velocity=95 time=0
EXTRACT: note_off channel=7 note=49 velocity=95 time=0
EXTRACT: note_on channel=7 note=56 velocity=95 time=0
EXTRACT: note_on channel=7 note=49 velocity=95 time=0
EXTRACT: note_off channel=13 note=51 velocity=95 time=0
EXTRACT: note_on channel=13 note=52 velocity=95 time=0
EXTRACT: note_off channel=9 note=53 velocity=95 time=0
EXTRACT: note_on channel=9 note=42 velocity=95 time=0
EXTRACT: note_on channel=9 note=43 velocity=95 time=0
EXTRACT: note_off channel=0 note=71 velocity=63 time=0.2608695
EXTRACT: note_off channel=0 note=64 velocity=47 time=0
EXTRACT: note_on channel=0 note=59 velocity=47 time=0
EXTRACT: note_off channel=8 note=40 velocity=95 time=0
EXTRACT: note_on channel=8 note=33 velocity=95 time=0
EXTRACT: note_off channel=11 note=83 velocity=95 time=0
EXTRACT: note_on channel=11 note=85 velocity=95 time=0
EXTRACT: note_off channel=5 note=40 velocity=95 time=0
EXTRACT: note_on channel=5 note=33 velocity=95 time=0
EXTRACT: note_off channel=7 note=56 velocity=95 time=0
EXTRACT: note_off channel=7 note=49 velocity=95 time=0
EXTRACT: note_on channel=7 note=57 velocity=95 time=0
EXTRACT: note_on channel=7 note=52 velocity=95 time=0
EXTRACT: note_on channel=7 note=45 velocity=95 time=0
EXTRACT: note_off channel=13 note=52 velocity=95 time=0
EXTRACT: note_on channel=14 note=45 velocity=95 time=0
EXTRACT: pitchwheel channel=14 pitch=0 time=0.08695649999999999
EXTRACT: pitchwheel channel=14 pitch=128 time=0.08695649999999999
EXTRACT: note_off channel=0 note=59 velocity=47 time=0.08695649999999999
EXTRACT: note_on channel=0 note=69 velocity=47 time=0
EXTRACT: note_on channel=0 note=61 velocity=47 time=0
EXTRACT: note_off channel=11 note=85 velocity=95 time=0
EXTRACT: note_on channel=11 note=83 velocity=95 time=0
EXTRACT: note_off channel=7 note=57 velocity=95 time=0
EXTRACT: note_off channel=7 note=52 velocity=95 time=0
EXTRACT: note_off channel=7 note=45 velocity=95 time=0
EXTRACT: note_on channel=7 note=52 velocity=95 time=0
EXTRACT: note_on channel=7 note=45 velocity=95 time=0
EXTRACT: pitchwheel channel=14 pitch=0 time=0
EXTRACT: note_off channel=9 note=42 velocity=95 time=0
EXTRACT: note_off channel=9 note=43 velocity=95 time=0
EXTRACT: note_on channel=9 note=42 velocity=95 time=0
EXTRACT: note_on channel=9 note=36 velocity=95 time=0
EXTRACT: pitchwheel channel=14 pitch=128 time=0.08695649999999999
EXTRACT: pitchwheel channel=14 pitch=0 time=0.08695649999999999
EXTRACT: note_off channel=0 note=69 velocity=47 time=0.08695649999999999
EXTRACT: note_off channel=0 note=61 velocity=47 time=0
EXTRACT: note_on channel=0 note=57 velocity=47 time=0
EXTRACT: note_off channel=7 note=52 velocity=95 time=0
EXTRACT: note_off channel=7 note=45 velocity=95 time=0
EXTRACT: note_on channel=7 note=52 velocity=95 time=0
EXTRACT: note_on channel=7 note=45 velocity=95 time=0
EXTRACT: pitchwheel channel=14 pitch=128 time=0
EXTRACT: pitchwheel channel=14 pitch=0 time=0.08695649999999999
EXTRACT: pitchwheel channel=14 pitch=128 time=0.08695649999999999
EXTRACT: note_off channel=0 note=57 velocity=47 time=0.08695649999999999
EXTRACT: note_on channel=0 note=69 velocity=63 time=0
EXTRACT: note_on channel=0 note=61 velocity=63 time=0
EXTRACT: note_off channel=11 note=83 velocity=95 time=0
EXTRACT: note_on channel=11 note=80 velocity=95 time=0
EXTRACT: note_off channel=7 note=52 velocity=95 time=0
EXTRACT: note_off channel=7 note=45 velocity=95 time=0
EXTRACT: note_on channel=7 note=54 velocity=95 time=0
EXTRACT: note_on channel=7 note=45 velocity=95 time=0
EXTRACT: pitchwheel channel=14 pitch=0 time=0
EXTRACT: note_off channel=9 note=42 velocity=95 time=0
EXTRACT: note_off channel=9 note=36 velocity=95 time=0
EXTRACT: note_on channel=9 note=46 velocity=63 time=0
EXTRACT: note_on channel=9 note=40 velocity=95 time=0
EXTRACT: pitchwheel channel=14 pitch=128 time=0.08695649999999999
EXTRACT: note_off channel=11 note=80 velocity=95 time=0.043478249999999996
EXTRACT: note_on channel=11 note=78 velocity=95 time=0
EXTRACT: pitchwheel channel=14 pitch=0 time=0.043478249999999996
EXTRACT: note_off channel=0 note=69 velocity=63 time=0.08695649999999999
EXTRACT: note_off channel=0 note=61 velocity=63 time=0
EXTRACT: note_on channel=0 note=57 velocity=47 time=0
EXTRACT: note_off channel=11 note=78 velocity=95 time=0
EXTRACT: note_on channel=11 note=76 velocity=95 time=0
EXTRACT: note_off channel=7 note=54 velocity=95 time=0
EXTRACT: note_off channel=7 note=45 velocity=95 time=0
EXTRACT: note_on channel=7 note=52 velocity=95 time=0
EXTRACT: note_on channel=7 note=45 velocity=95 time=0
EXTRACT: pitchwheel channel=14 pitch=128 time=0
EXTRACT: pitchwheel channel=14 pitch=0 time=0.08695649999999999
EXTRACT: pitchwheel channel=14 pitch=128 time=0.08695649999999999
EXTRACT: note_off channel=0 note=57 velocity=47 time=0.08695649999999999
EXTRACT: note_on channel=0 note=69 velocity=63 time=0
EXTRACT: note_on channel=0 note=61 velocity=47 time=0
EXTRACT: note_off channel=7 note=52 velocity=95 time=0
EXTRACT: note_off channel=7 note=45 velocity=95 time=0
EXTRACT: note_on channel=7 note=52 velocity=95 time=0
EXTRACT: note_on channel=7 note=45 velocity=95 time=0
EXTRACT: pitchwheel channel=14 pitch=0 time=0
EXTRACT: note_off channel=9 note=46 velocity=63 time=0
EXTRACT: note_off channel=9 note=40 velocity=95 time=0
EXTRACT: note_on channel=9 note=42 velocity=95 time=0
EXTRACT: note_on channel=9 note=36 velocity=95 time=0
EXTRACT: pitchwheel channel=14 pitch=128 time=0.08695649999999999
EXTRACT: pitchwheel channel=14 pitch=0 time=0.08695649999999999
EXTRACT: note_off channel=0 note=69 velocity=63 time=0.08695649999999999
EXTRACT: note_off channel=0 note=61 velocity=47 time=0
EXTRACT: note_on channel=0 note=57 velocity=63 time=0
EXTRACT: note_off channel=8 note=33 velocity=95 time=0
EXTRACT: note_on channel=8 note=39 velocity=95 time=0
EXTRACT: note_off channel=11 note=76 velocity=95 time=0
EXTRACT: note_off channel=5 note=33 velocity=95 time=0
EXTRACT: note_on channel=5 note=39 velocity=95 time=0
EXTRACT: note_off channel=7 note=52 velocity=95 time=0
EXTRACT: note_off channel=7 note=45 velocity=95 time=0
EXTRACT: note_on channel=7 note=52 velocity=95 time=0
EXTRACT: note_on channel=7 note=45 velocity=95 time=0
EXTRACT: pitchwheel channel=14 pitch=128 time=0
EXTRACT: pitchwheel channel=14 pitch=0 time=0
EXTRACT: note_off channel=14 note=45 velocity=95 time=0
EXTRACT: note_on channel=13 note=51 velocity=95 time=0
EXTRACT: note_off channel=9 note=42 velocity=95 time=0
EXTRACT: note_off channel=9 note=36 velocity=95 time=0
EXTRACT: note_on channel=9 note=53 velocity=95 time=0
EXTRACT: note_on channel=9 note=36 velocity=95 time=0
EXTRACT: note_off channel=0 note=57 velocity=63 time=0.2608695
EXTRACT: note_on channel=0 note=69 velocity=63 time=0
EXTRACT: note_on channel=0 note=61 velocity=47 time=0
EXTRACT: note_off channel=8 note=39 velocity=95 time=0
EXTRACT: note_on channel=8 note=40 velocity=95 time=0
EXTRACT: note_off channel=5 note=39 velocity=95 time=0
EXTRACT: note_on channel=5 note=40 velocity=95 time=0
EXTRACT: note_off channel=7 note=52 velocity=95 time=0
EXTRACT: note_off channel=7 note=45 velocity=95 time=0
EXTRACT: note_on channel=7 note=52 velocity=95 time=0
EXTRACT: note_on channel=7 note=45 velocity=95 time=0
EXTRACT: note_off channel=13 note=51 velocity=95 time=0
EXTRACT: note_on channel=13 note=52 velocity=95 time=0
EXTRACT: note_off channel=9 note=53 velocity=95 time=0
EXTRACT: note_off channel=9 note=36 velocity=95 time=0
EXTRACT: note_on channel=9 note=42 velocity=95 time=0
EXTRACT: note_on channel=9 note=45 velocity=95 time=0
EXTRACT: note_off channel=0 note=69 velocity=63 time=0.2608695
EXTRACT: note_off channel=0 note=61 velocity=47 time=0
EXTRACT: note_on channel=0 note=57 velocity=47 time=0
EXTRACT: note_off channel=8 note=40 velocity=95 time=0
EXTRACT: note_on channel=8 note=28 velocity=95 time=0
EXTRACT: note_off channel=5 note=40 velocity=95 time=0
EXTRACT: note_on channel=5 note=28 velocity=95 time=0
EXTRACT: note_off channel=7 note=52 velocity=95 time=0
EXTRACT: note_off channel=7 note=45 velocity=95 time=0
EXTRACT: note_on channel=7 note=64 velocity=95 time=0
EXTRACT: note_on channel=7 note=59 velocity=95 time=0
EXTRACT: note_on channel=7 note=52 velocity=95 time=0
EXTRACT: note_off channel=13 note=52 velocity=95 time=0
EXTRACT: note_on channel=13 note=40 velocity=95 time=0
EXTRACT: note_off channel=9 note=42 velocity=95 time=0
EXTRACT: note_off channel=9 note=45 velocity=95 time=0
EXTRACT: note_on channel=9 note=43 velocity=95 time=0
EXTRACT: note_off channel=0 note=57 velocity=47 time=0.2608695
EXTRACT: note_on channel=0 note=71 velocity=47 time=0
EXTRACT: note_on channel=0 note=64 velocity=47 time=0
EXTRACT: note_on channel=11 note=83 velocity=95 time=0
EXTRACT: note_on channel=12 note=81 velocity=95 time=0
EXTRACT: note_on channel=12 note=78 velocity=95 time=0
EXTRACT: note_on channel=12 note=73 velocity=95 time=0
EXTRACT: note_off channel=7 note=64 velocity=95 time=0
EXTRACT: note_off channel=7 note=59 velocity=95 time=0
EXTRACT: note_off channel=7 note=52 velocity=95 time=0
EXTRACT: note_on channel=7 note=47 velocity=95 time=0
EXTRACT: note_on channel=7 note=40 velocity=95 time=0
EXTRACT: note_off channel=9 note=43 velocity=95 time=0
EXTRACT: note_on channel=9 note=49 velocity=95 time=0
EXTRACT: note_on channel=9 note=57 velocity=95 time=0
EXTRACT: note_on channel=9 note=36 velocity=95 time=0
EXTRACT: pitchwheel channel=12 pitch=0 time=0.065217375
EXTRACT: pitchwheel channel=12 pitch=-128 time=0
EXTRACT: pitchwheel channel=12 pitch=-128 time=0
EXTRACT: pitchwheel channel=12 pitch=-128 time=0.065217375
EXTRACT: pitchwheel channel=12 pitch=-256 time=0
EXTRACT: pitchwheel channel=12 pitch=-256 time=0
EXTRACT: pitchwheel channel=12 pitch=-256 time=0.065217375
EXTRACT: pitchwheel channel=12 pitch=-512 time=0
EXTRACT: pitchwheel channel=12 pitch=-512 time=0
EXTRACT: note_off channel=0 note=71 velocity=47 time=0.065217375
EXTRACT: note_off channel=0 note=64 velocity=47 time=0
EXTRACT: note_on channel=0 note=59 velocity=95 time=0
EXTRACT: pitchwheel channel=12 pitch=-256 time=0
EXTRACT: pitchwheel channel=12 pitch=-640 time=0
EXTRACT: pitchwheel channel=12 pitch=-640 time=0
EXTRACT: note_off channel=7 note=47 velocity=95 time=0
EXTRACT: note_off channel=7 note=40 velocity=95 time=0
EXTRACT: note_on channel=7 note=47 velocity=95 time=0
EXTRACT: note_on channel=7 note=40 velocity=95 time=0
EXTRACT: pitchwheel channel=12 pitch=-384 time=0.065217375
EXTRACT: pitchwheel channel=12 pitch=-768 time=0
EXTRACT: pitchwheel channel=12 pitch=-768 time=0
EXTRACT: pitchwheel channel=12 pitch=-512 time=0.065217375
EXTRACT: pitchwheel channel=12 pitch=-1024 time=0
EXTRACT: pitchwheel channel=12 pitch=-1024 time=0
EXTRACT: pitchwheel channel=12 pitch=-512 time=0.065217375
EXTRACT: pitchwheel channel=12 pitch=-1152 time=0
EXTRACT: pitchwheel channel=12 pitch=-1152 time=0
EXTRACT: note_off channel=0 note=59 velocity=95 time=0.065217375
EXTRACT: note_on channel=0 note=71 velocity=47 time=0
EXTRACT: note_on channel=0 note=64 velocity=63 time=0
EXTRACT: pitchwheel channel=12 pitch=-640 time=0
EXTRACT: pitchwheel channel=12 pitch=0 time=0
EXTRACT: note_off channel=12 note=81 velocity=95 time=0
EXTRACT: pitchwheel channel=12 pitch=-1408 time=0
EXTRACT: pitchwheel channel=12 pitch=0 time=0
EXTRACT: note_off channel=12 note=78 velocity=95 time=0
EXTRACT: pitchwheel channel=12 pitch=-1408 time=0
EXTRACT: pitchwheel channel=12 pitch=0 time=0
EXTRACT: note_off channel=12 note=73 velocity=95 time=0
EXTRACT: note_on channel=11 note=80 velocity=95 time=0
EXTRACT: note_on channel=11 note=76 velocity=95 time=0
EXTRACT: note_on channel=11 note=71 velocity=95 time=0
EXTRACT: note_off channel=7 note=47 velocity=95 time=0
EXTRACT: note_off channel=7 note=40 velocity=95 time=0
EXTRACT: note_on channel=7 note=49 velocity=95 time=0
EXTRACT: note_on channel=7 note=40 velocity=95 time=0
EXTRACT: note_off channel=13 note=40 velocity=95 time=0
EXTRACT: note_on channel=13 note=64 velocity=95 time=0
EXTRACT: note_on channel=13 note=59 velocity=95 time=0
EXTRACT: note_off channel=9 note=49 velocity=95 time=0
EXTRACT: note_off channel=9 note=57 velocity=95 time=0
EXTRACT: note_off channel=9 note=36 velocity=95 time=0
EXTRACT: note_on channel=9 note=46 velocity=63 time=0
EXTRACT: note_on channel=9 note=40 velocity=95 time=0
EXTRACT: note_off channel=0 note=71 velocity=47 time=0.2608695
EXTRACT: note_off channel=0 note=64 velocity=63 time=0
EXTRACT: note_on channel=0 note=59 velocity=95 time=0
EXTRACT: note_off channel=11 note=83 velocity=95 time=0
EXTRACT: note_off channel=11 note=80 velocity=95 time=0
EXTRACT: note_off channel=11 note=76 velocity=95 time=0
EXTRACT: note_off channel=11 note=71 velocity=95 time=0
EXTRACT: note_on channel=11 note=83 velocity=95 time=0
EXTRACT: note_on channel=11 note=80 velocity=95 time=0
EXTRACT: note_on channel=11 note=76 velocity=95 time=0
EXTRACT: note_on channel=11 note=71 velocity=95 time=0
EXTRACT: note_off channel=7 note=49 velocity=95 time=0
EXTRACT: note_off channel=7 note=40 velocity=95 time=0
EXTRACT: note_on channel=7 note=49 velocity=95 time=0
EXTRACT: note_on channel=7 note=40 velocity=95 time=0
EXTRACT: note_off channel=0 note=59 velocity=95 time=0.2608695
EXTRACT: note_on channel=0 note=71 velocity=47 time=0
EXTRACT: note_on channel=0 note=64 velocity=63 time=0
EXTRACT: note_off channel=11 note=83 velocity=95 time=0
EXTRACT: note_off channel=11 note=80 velocity=95 time=0
EXTRACT: note_off channel=11 note=76 velocity=95 time=0
EXTRACT: note_off channel=11 note=71 velocity=95 time=0
EXTRACT: note_off channel=7 note=49 velocity=95 time=0
EXTRACT: note_off channel=7 note=40 velocity=95 time=0
EXTRACT: note_on channel=7 note=47 velocity=95 time=0
EXTRACT: note_on channel=7 note=40 velocity=95 time=0
EXTRACT: note_off channel=13 note=64 velocity=95 time=0
EXTRACT: note_off channel=13 note=59 velocity=95 time=0
EXTRACT: note_on channel=13 note=40 velocity=95 time=0
EXTRACT: note_off channel=9 note=46 velocity=63 time=0
EXTRACT: note_off channel=9 note=40 velocity=95 time=0
EXTRACT: note_on channel=9 note=42 velocity=95 time=0
EXTRACT: note_on channel=9 note=36 velocity=95 time=0
EXTRACT: note_off channel=0 note=71 velocity=47 time=0.2608695
EXTRACT: note_off channel=0 note=64 velocity=63 time=0
EXTRACT: note_on channel=0 note=59 velocity=95 time=0
EXTRACT: note_off channel=8 note=28 velocity=95 time=0
EXTRACT: note_on channel=8 note=30 velocity=95 time=0
EXTRACT: note_off channel=5 note=28 velocity=95 time=0
EXTRACT: note_on channel=5 note=30 velocity=95 time=0
EXTRACT: note_off channel=7 note=47 velocity=95 time=0
EXTRACT: note_off channel=7 note=40 velocity=95 time=0
EXTRACT: note_on channel=7 note=47 velocity=95 time=0
EXTRACT: note_on channel=7 note=40 velocity=95 time=0
EXTRACT: note_off channel=13 note=40 velocity=95 time=0
EXTRACT: note_on channel=13 note=42 velocity=95 time=0
EXTRACT: note_off channel=9 note=42 velocity=95 time=0
EXTRACT: note_off channel=9 note=36 velocity=95 time=0
EXTRACT: note_on channel=9 note=53 velocity=95 time=0
EXTRACT: note_off channel=0 note=59 velocity=95 time=0.2608695
EXTRACT: note_on channel=0 note=71 velocity=47 time=0
EXTRACT: note_on channel=0 note=64 velocity=63 time=0
EXTRACT: note_off channel=8 note=30 velocity=95 time=0
EXTRACT: note_on channel=8 note=32 velocity=95 time=0
EXTRACT: note_off channel=5 note=30 velocity=95 time=0
EXTRACT: note_on channel=5 note=32 velocity=95 time=0
EXTRACT: note_off channel=7 note=47 velocity=95 time=0
EXTRACT: note_off channel=7 note=40 velocity=95 time=0
EXTRACT: note_on channel=7 note=47 velocity=95 time=0
EXTRACT: note_on channel=7 note=40 velocity=95 time=0
EXTRACT: note_off channel=13 note=42 velocity=95 time=0
EXTRACT: note_on channel=13 note=44 velocity=95 time=0
EXTRACT: note_off channel=9 note=53 velocity=95 time=0
EXTRACT: note_on channel=9 note=42 velocity=95 time=0
EXTRACT: note_on channel=9 note=43 velocity=95 time=0
EXTRACT: note_off channel=0 note=71 velocity=47 time=0.2608695
EXTRACT: note_off channel=0 note=64 velocity=63 time=0
EXTRACT: note_on channel=0 note=59 velocity=95 time=0
EXTRACT: note_off channel=8 note=32 velocity=95 time=0
EXTRACT: note_on channel=8 note=35 velocity=95 time=0
EXTRACT: note_off channel=5 note=32 velocity=95 time=0
EXTRACT: note_on channel=5 note=35 velocity=95 time=0
EXTRACT: note_off channel=7 note=47 velocity=95 time=0
EXTRACT: note_off channel=7 note=40 velocity=95 time=0
EXTRACT: note_on channel=7 note=54 velocity=95 time=0
EXTRACT: note_on channel=7 note=47 velocity=95 time=0
EXTRACT: note_off channel=13 note=44 velocity=95 time=0
EXTRACT: note_on channel=14 note=47 velocity=95 time=0
EXTRACT: pitchwheel channel=14 pitch=0 time=0.08695649999999999
EXTRACT: pitchwheel channel=14 pitch=128 time=0.08695649999999999
EXTRACT: note_off channel=0 note=59 velocity=95 time=0.08695649999999999
EXTRACT: note_on channel=0 note=71 velocity=47 time=0
EXTRACT: note_on channel=0 note=66 velocity=47 time=0
EXTRACT: note_on channel=11 note=83 velocity=95 time=0
EXTRACT: note_on channel=12 note=81 velocity=95 time=0
EXTRACT: note_on channel=12 note=78 velocity=95 time=0
EXTRACT: note_on channel=12 note=73 velocity=95 time=0
EXTRACT: note_off channel=7 note=54 velocity=95 time=0
EXTRACT: note_off channel=7 note=47 velocity=95 time=0
EXTRACT: note_on channel=7 note=54 velocity=95 time=0
EXTRACT: note_on channel=7 note=47 velocity=95 time=0
EXTRACT: pitchwheel channel=14 pitch=0 time=0
EXTRACT: note_off channel=9 note=42 velocity=95 time=0
EXTRACT: note_off channel=9 note=43 velocity=95 time=0
EXTRACT: note_on channel=9 note=42 velocity=95 time=0
EXTRACT: note_on channel=9 note=36 velocity=95 time=0
EXTRACT: pitchwheel channel=12 pitch=0 time=0.065217375
EXTRACT: pitchwheel channel=12 pitch=-128 time=0
EXTRACT: pitchwheel channel=12 pitch=-128 time=0
EXTRACT: pitchwheel channel=14 pitch=128 time=0.021739124999999998
EXTRACT: pitchwheel channel=12 pitch=-128 time=0.043478249999999996
EXTRACT: pitchwheel channel=12 pitch=-256 time=0
EXTRACT: pitchwheel channel=12 pitch=-256 time=0
EXTRACT: pitchwheel channel=14 pitch=0 time=0.043478249999999996
EXTRACT: pitchwheel channel=12 pitch=-256 time=0.021739124999999998
EXTRACT: pitchwheel channel=12 pitch=-512 time=0
EXTRACT: pitchwheel channel=12 pitch=-512 time=0
EXTRACT: note_off channel=0 note=71 velocity=47 time=0.065217375
EXTRACT: note_off channel=0 note=66 velocity=47 time=0
EXTRACT: note_on channel=0 note=59 velocity=95 time=0
EXTRACT: pitchwheel channel=12 pitch=-256 time=0
EXTRACT: pitchwheel channel=12 pitch=-640 time=0
EXTRACT: pitchwheel channel=12 pitch=-640 time=0
EXTRACT: note_off channel=7 note=54 velocity=95 time=0
EXTRACT: note_off channel=7 note=47 velocity=95 time=0
EXTRACT: note_on channel=7 note=54 velocity=95 time=0
EXTRACT: note_on channel=7 note=47 velocity=95 time=0
EXTRACT: pitchwheel channel=14 pitch=128 time=0
EXTRACT: pitchwheel channel=12 pitch=-384 time=0.065217375
EXTRACT: pitchwheel channel=12 pitch=-768 time=0
EXTRACT: pitchwheel channel=12 pitch=-768 time=0
EXTRACT: pitchwheel channel=14 pitch=0 time=0.021739124999999998
EXTRACT: pitchwheel channel=12 pitch=-512 time=0.043478249999999996
EXTRACT: pitchwheel channel=12 pitch=-1024 time=0
EXTRACT: pitchwheel channel=12 pitch=-1024 time=0
EXTRACT: pitchwheel channel=14 pitch=128 time=0.043478249999999996
EXTRACT: pitchwheel channel=12 pitch=-512 time=0.021739124999999998
EXTRACT: pitchwheel channel=12 pitch=-1152 time=0
EXTRACT: pitchwheel channel=12 pitch=-1152 time=0
EXTRACT: note_off channel=0 note=59 velocity=95 time=0.065217375
EXTRACT: note_on channel=0 note=71 velocity=47 time=0
EXTRACT: note_on channel=0 note=66 velocity=47 time=0
EXTRACT: pitchwheel channel=12 pitch=-640 time=0
EXTRACT: pitchwheel channel=12 pitch=0 time=0
EXTRACT: note_off channel=12 note=81 velocity=95 time=0
EXTRACT: pitchwheel channel=12 pitch=-1408 time=0
EXTRACT: pitchwheel channel=12 pitch=0 time=0
EXTRACT: note_off channel=12 note=78 velocity=95 time=0
EXTRACT: pitchwheel channel=12 pitch=-1408 time=0
EXTRACT: pitchwheel channel=12 pitch=0 time=0
EXTRACT: note_off channel=12 note=73 velocity=95 time=0
EXTRACT: note_on channel=11 note=80 velocity=95 time=0
EXTRACT: note_on channel=11 note=76 velocity=95 time=0
EXTRACT: note_on channel=11 note=71 velocity=95 time=0
EXTRACT: note_off channel=7 note=54 velocity=95 time=0
EXTRACT: note_off channel=7 note=47 velocity=95 time=0
EXTRACT: note_on channel=7 note=56 velocity=95 time=0
EXTRACT: note_on channel=7 note=47 velocity=95 time=0
EXTRACT: pitchwheel channel=14 pitch=0 time=0
EXTRACT: note_off channel=9 note=42 velocity=95 time=0
EXTRACT: note_off channel=9 note=36 velocity=95 time=0
EXTRACT: note_on channel=9 note=46 velocity=63 time=0
EXTRACT: note_on channel=9 note=40 velocity=95 time=0
EXTRACT: pitchwheel channel=14 pitch=128 time=0.08695649999999999
EXTRACT: pitchwheel channel=14 pitch=0 time=0.08695649999999999
EXTRACT: note_off channel=0 note=71 velocity=47 time=0.08695649999999999
EXTRACT: note_off channel=0 note=66 velocity=47 time=0
EXTRACT: note_on channel=0 note=59 velocity=95 time=0
EXTRACT: note_off channel=11 note=83 velocity=95 time=0
EXTRACT: note_off channel=11 note=80 velocity=95 time=0
EXTRACT: note_off channel=11 note=76 velocity=95 time=0
EXTRACT: note_off channel=11 note=71 velocity=95 time=0
EXTRACT: note_on channel=11 note=83 velocity=95 time=0
EXTRACT: note_on channel=11 note=80 velocity=95 time=0
EXTRACT: note_on channel=11 note=76 velocity=95 time=0
EXTRACT: note_on channel=11 note=71 velocity=95 time=0
EXTRACT: note_off channel=7 note=56 velocity=95 time=0
EXTRACT: note_off channel=7 note=47 velocity=95 time=0
EXTRACT: note_on channel=7 note=54 velocity=95 time=0
EXTRACT: note_on channel=7 note=47 velocity=95 time=0
EXTRACT: pitchwheel channel=14 pitch=128 time=0
EXTRACT: pitchwheel channel=14 pitch=0 time=0.08695649999999999
EXTRACT: pitchwheel channel=14 pitch=128 time=0.08695649999999999
EXTRACT: note_off channel=0 note=59 velocity=95 time=0.08695649999999999
EXTRACT: note_on channel=0 note=71 velocity=63 time=0
EXTRACT: note_on channel=0 note=66 velocity=47 time=0
EXTRACT: note_off channel=11 note=83 velocity=95 time=0
EXTRACT: note_off channel=11 note=80 velocity=95 time=0
EXTRACT: note_off channel=11 note=76 velocity=95 time=0
EXTRACT: note_off channel=11 note=71 velocity=95 time=0
EXTRACT: note_on channel=11 note=80 velocity=95 time=0
EXTRACT: note_off channel=7 note=54 velocity=95 time=0
EXTRACT: note_off channel=7 note=47 velocity=95 time=0
EXTRACT: note_on channel=7 note=54 velocity=95 time=0
EXTRACT: note_on channel=7 note=47 velocity=95 time=0
EXTRACT: pitchwheel channel=14 pitch=0 time=0
EXTRACT: note_off channel=9 note=46 velocity=63 time=0
EXTRACT: note_off channel=9 note=40 velocity=95 time=0
EXTRACT: note_on channel=9 note=42 velocity=95 time=0
EXTRACT: note_on channel=9 note=36 velocity=95 time=0
EXTRACT: pitchwheel channel=14 pitch=128 time=0.08695649999999999
EXTRACT: pitchwheel channel=14 pitch=0 time=0.08695649999999999
EXTRACT: note_off channel=0 note=71 velocity=63 time=0.08695649999999999
EXTRACT: note_off channel=0 note=66 velocity=47 time=0
EXTRACT: note_on channel=0 note=59 velocity=95 time=0
EXTRACT: note_off channel=8 note=35 velocity=95 time=0
EXTRACT: note_on channel=8 note=37 velocity=95 time=0
EXTRACT: note_off channel=5 note=35 velocity=95 time=0
EXTRACT: note_on channel=5 note=37 velocity=95 time=0
EXTRACT: note_off channel=7 note=54 velocity=95 time=0
EXTRACT: note_off channel=7 note=47 velocity=95 time=0
EXTRACT: note_on channel=7 note=54 velocity=95 time=0
EXTRACT: note_on channel=7 note=47 velocity=95 time=0
EXTRACT: pitchwheel channel=14 pitch=128 time=0
EXTRACT: pitchwheel channel=14 pitch=0 time=0
EXTRACT: note_off channel=14 note=47 velocity=95 time=0
EXTRACT: note_on channel=13 note=49 velocity=95 time=0
EXTRACT: note_off channel=9 note=42 velocity=95 time=0
EXTRACT: note_off channel=9 note=36 velocity=95 time=0
EXTRACT: note_on channel=9 note=53 velocity=95 time=0
EXTRACT: note_on channel=9 note=45 velocity=95 time=0
EXTRACT: note_off channel=11 note=80 velocity=95 time=0.08695649999999999
EXTRACT: note_on channel=11 note=78 velocity=95 time=0
EXTRACT: note_off channel=0 note=59 velocity=95 time=0.17391299999999998
EXTRACT: note_on channel=0 note=71 velocity=47 time=0
EXTRACT: note_on channel=0 note=66 velocity=47 time=0
EXTRACT: note_off channel=8 note=37 velocity=95 time=0
EXTRACT: note_on channel=8 note=39 velocity=95 time=0
EXTRACT: note_off channel=5 note=37 velocity=95 time=0
EXTRACT: note_on channel=5 note=39 velocity=95 time=0
EXTRACT: note_off channel=7 note=54 velocity=95 time=0
EXTRACT: note_off channel=7 note=47 velocity=95 time=0
EXTRACT: note_on channel=7 note=54 velocity=95 time=0
EXTRACT: note_on channel=7 note=47 velocity=95 time=0
EXTRACT: note_off channel=13 note=49 velocity=95 time=0
EXTRACT: note_on channel=13 note=51 velocity=95 time=0
EXTRACT: note_off channel=9 note=53 velocity=95 time=0
EXTRACT: note_off channel=9 note=45 velocity=95 time=0
EXTRACT: note_on channel=9 note=42 velocity=95 time=0
EXTRACT: note_on channel=9 note=36 velocity=95 time=0
EXTRACT: note_off channel=11 note=78 velocity=95 time=0.17391299999999998
EXTRACT: note_on channel=11 note=76 velocity=95 time=0
EXTRACT: note_off channel=0 note=71 velocity=47 time=0.08695649999999999
EXTRACT: note_off channel=0 note=66 velocity=47 time=0
EXTRACT: note_on channel=0 note=59 velocity=95 time=0
EXTRACT: note_off channel=8 note=39 velocity=95 time=0
EXTRACT: note_on channel=8 note=32 velocity=95 time=0
EXTRACT: note_off channel=5 note=39 velocity=95 time=0
EXTRACT: note_on channel=5 note=32 velocity=95 time=0
EXTRACT: note_off channel=7 note=54 velocity=95 time=0
EXTRACT: note_off channel=7 note=47 velocity=95 time=0
EXTRACT: note_on channel=7 note=61 velocity=95 time=0
EXTRACT: note_on channel=7 note=56 velocity=95 time=0
EXTRACT: note_on channel=7 note=49 velocity=95 time=0
EXTRACT: note_off channel=13 note=51 velocity=95 time=0
EXTRACT: note_on channel=13 note=51 velocity=95 time=0
EXTRACT: note_on channel=13 note=44 velocity=95 time=0
EXTRACT: note_off channel=9 note=42 velocity=95 time=0
EXTRACT: note_off channel=9 note=36 velocity=95 time=0
EXTRACT: note_on channel=9 note=43 velocity=95 time=0
EXTRACT: note_off channel=0 note=59 velocity=95 time=0.2608695
EXTRACT: note_on channel=0 note=71 velocity=63 time=0
EXTRACT: note_on channel=0 note=63 velocity=47 time=0
EXTRACT: note_off channel=11 note=76 velocity=95 time=0
EXTRACT: note_on channel=12 note=83 velocity=95 time=0
EXTRACT: note_off channel=7 note=61 velocity=95 time=0
EXTRACT: note_off channel=7 note=56 velocity=95 time=0
EXTRACT: note_off channel=7 note=49 velocity=95 time=0
EXTRACT: note_on channel=7 note=56 velocity=95 time=0
EXTRACT: note_on channel=7 note=49 velocity=95 time=0
EXTRACT: note_off channel=9 note=43 velocity=95 time=0
EXTRACT: note_on channel=9 note=49 velocity=95 time=0
EXTRACT: note_on channel=9 note=57 velocity=95 time=0
EXTRACT: note_on channel=9 note=36 velocity=95 time=0
EXTRACT: pitchwheel channel=12 pitch=0 time=0.08695649999999999
EXTRACT: pitchwheel channel=12 pitch=128 time=0.08695649999999999
EXTRACT: note_off channel=0 note=71 velocity=63 time=0.08695649999999999
EXTRACT: note_off channel=0 note=63 velocity=47 time=0
EXTRACT: note_on channel=0 note=59 velocity=47 time=0
EXTRACT: pitchwheel channel=12 pitch=0 time=0
EXTRACT: note_off channel=7 note=56 velocity=95 time=0
EXTRACT: note_off channel=7 note=49 velocity=95 time=0
EXTRACT: note_on channel=7 note=56 velocity=95 time=0
EXTRACT: note_on channel=7 note=49 velocity=95 time=0
EXTRACT: pitchwheel channel=12 pitch=128 time=0.08695649999999999
EXTRACT: pitchwheel channel=12 pitch=0 time=0.08695649999999999
EXTRACT: note_off channel=0 note=59 velocity=47 time=0.08695649999999999
EXTRACT: note_on channel=0 note=71 velocity=63 time=0
EXTRACT: note_on channel=0 note=63 velocity=63 time=0
EXTRACT: pitchwheel channel=12 pitch=128 time=0
EXTRACT: note_off channel=7 note=56 velocity=95 time=0
EXTRACT: note_off channel=7 note=49 velocity=95 time=0
EXTRACT: note_on channel=7 note=56 velocity=95 time=0
EXTRACT: note_on channel=7 note=49 velocity=95 time=0
EXTRACT: note_off channel=9 note=49 velocity=95 time=0
EXTRACT: note_off channel=9 note=57 velocity=95 time=0
EXTRACT: note_off channel=9 note=36 velocity=95 time=0
EXTRACT: note_on channel=9 note=46 velocity=63 time=0
EXTRACT: note_on channel=9 note=40 velocity=95 time=0
EXTRACT: pitchwheel channel=12 pitch=0 time=0.08695649999999999
EXTRACT: pitchwheel channel=12 pitch=128 time=0.08695649999999999
EXTRACT: note_off channel=0 note=71 velocity=63 time=0.08695649999999999
EXTRACT: note_off channel=0 note=63 velocity=63 time=0
EXTRACT: note_on channel=0 note=59 velocity=47 time=0
EXTRACT: pitchwheel channel=12 pitch=0 time=0
EXTRACT: note_off channel=7 note=56 velocity=95 time=0
EXTRACT: note_off channel=7 note=49 velocity=95 time=0
EXTRACT: note_on channel=7 note=56 velocity=95 time=0
EXTRACT: note_on channel=7 note=49 velocity=95 time=0
EXTRACT: pitchwheel channel=12 pitch=128 time=0.08695649999999999
EXTRACT: pitchwheel channel=12 pitch=0 time=0.08695649999999999
EXTRACT: note_off channel=0 note=59 velocity=47 time=0.08695649999999999
EXTRACT: note_on channel=0 note=71 velocity=63 time=0
EXTRACT: note_on channel=0 note=63 velocity=63 time=0
EXTRACT: pitchwheel channel=12 pitch=128 time=0
EXTRACT: note_off channel=7 note=56 velocity=95 time=0
EXTRACT: note_off channel=7 note=49 velocity=95 time=0
EXTRACT: note_on channel=7 note=56 velocity=95 time=0
EXTRACT: note_on channel=7 note=49 velocity=95 time=0
EXTRACT: note_off channel=9 note=46 velocity=63 time=0
EXTRACT: note_off channel=9 note=40 velocity=95 time=0
EXTRACT: note_on channel=9 note=42 velocity=95 time=0
EXTRACT: note_on channel=9 note=36 velocity=95 time=0
EXTRACT: pitchwheel channel=12 pitch=0 time=0.08695649999999999
EXTRACT: pitchwheel channel=12 pitch=128 time=0.08695649999999999
EXTRACT: note_off channel=0 note=71 velocity=63 time=0.08695649999999999
EXTRACT: note_off channel=0 note=63 velocity=63 time=0
EXTRACT: note_on channel=0 note=59 velocity=47 time=0
EXTRACT: pitchwheel channel=12 pitch=0 time=0
EXTRACT: note_off channel=7 note=56 velocity=95 time=0
EXTRACT: note_off channel=7 note=49 velocity=95 time=0
EXTRACT: note_on channel=7 note=56 velocity=95 time=0
EXTRACT: note_on channel=7 note=49 velocity=95 time=0
EXTRACT: note_off channel=9 note=42 velocity=95 time=0
EXTRACT: note_off channel=9 note=36 velocity=95 time=0
EXTRACT: note_on channel=9 note=53 velocity=95 time=0
EXTRACT: pitchwheel channel=12 pitch=128 time=0.08695649999999999
EXTRACT: pitchwheel channel=12 pitch=0 time=0.08695649999999999
EXTRACT: note_off channel=0 note=59 velocity=47 time=0.08695649999999999
EXTRACT: note_on channel=0 note=71 velocity=63 time=0
EXTRACT: note_on channel=0 note=63 velocity=47 time=0
EXTRACT: note_off channel=8 note=32 velocity=95 time=0
EXTRACT: note_on channel=8 note=32 velocity=95 time=0
EXTRACT: pitchwheel channel=12 pitch=128 time=0
EXTRACT: note_off channel=5 note=32 velocity=95 time=0
EXTRACT: note_on channel=5 note=32 velocity=95 time=0
EXTRACT: note_off channel=7 note=56 velocity=95 time=0
EXTRACT: note_off channel=7 note=49 velocity=95 time=0
EXTRACT: note_on channel=7 note=56 velocity=95 time=0
EXTRACT: note_on channel=7 note=49 velocity=95 time=0
EXTRACT: note_off channel=13 note=51 velocity=95 time=0
EXTRACT: note_off channel=13 note=44 velocity=95 time=0
EXTRACT: note_on channel=13 note=51 velocity=95 time=0
EXTRACT: note_on channel=13 note=44 velocity=95 time=0
EXTRACT: note_off channel=9 note=53 velocity=95 time=0
EXTRACT: note_on channel=9 note=42 velocity=95 time=0
EXTRACT: note_on channel=9 note=43 velocity=95 time=0
EXTRACT: pitchwheel channel=12 pitch=0 time=0.08695649999999999
EXTRACT: pitchwheel channel=12 pitch=128 time=0.08695649999999999
EXTRACT: note_off channel=0 note=71 velocity=63 time=0.08695649999999999
EXTRACT: note_off channel=0 note=63 velocity=47 time=0
EXTRACT: note_on channel=0 note=59 velocity=47 time=0
EXTRACT: note_off channel=8 note=32 velocity=95 time=0
EXTRACT: note_on channel=8 note=33 velocity=95 time=0
EXTRACT: pitchwheel channel=12 pitch=0 time=0
EXTRACT: note_off channel=5 note=32 velocity=95 time=0
EXTRACT: note_on channel=5 note=33 velocity=95 time=0
EXTRACT: note_off channel=7 note=56 velocity=95 time=0
EXTRACT: note_off channel=7 note=49 velocity=95 time=0
EXTRACT: note_on channel=7 note=57 velocity=95 time=0
EXTRACT: note_on channel=7 note=52 velocity=95 time=0
EXTRACT: note_on channel=7 note=45 velocity=95 time=0
EXTRACT: note_off channel=13 note=51 velocity=95 time=0
EXTRACT: note_off channel=13 note=44 velocity=95 time=0
EXTRACT: note_on channel=14 note=52 velocity=95 time=0
EXTRACT: note_on channel=13 note=45 velocity=95 time=0
EXTRACT: pitchwheel channel=12 pitch=128 time=0.08695649999999999
EXTRACT: pitchwheel channel=14 pitch=0 time=0
EXTRACT: pitchwheel channel=12 pitch=0 time=0.08695649999999999
EXTRACT: pitchwheel channel=14 pitch=128 time=0
EXTRACT: note_off channel=0 note=59 velocity=47 time=0.08695649999999999
EXTRACT: note_on channel=0 note=69 velocity=47 time=0
EXTRACT: note_on channel=0 note=61 velocity=47 time=0
EXTRACT: pitchwheel channel=12 pitch=128 time=0
EXTRACT: note_off channel=7 note=57 velocity=95 time=0
EXTRACT: note_off channel=7 note=52 velocity=95 time=0
EXTRACT: note_off channel=7 note=45 velocity=95 time=0
EXTRACT: note_on channel=7 note=52 velocity=95 time=0
EXTRACT: note_on channel=7 note=45 velocity=95 time=0
EXTRACT: pitchwheel channel=14 pitch=0 time=0
EXTRACT: note_off channel=9 note=42 velocity=95 time=0
EXTRACT: note_off channel=9 note=43 velocity=95 time=0
EXTRACT: note_on channel=9 note=42 velocity=95 time=0
EXTRACT: note_on channel=9 note=36 velocity=95 time=0
EXTRACT: pitchwheel channel=12 pitch=0 time=0.08695649999999999
EXTRACT: pitchwheel channel=14 pitch=128 time=0
EXTRACT: pitchwheel channel=12 pitch=128 time=0.08695649999999999
EXTRACT: pitchwheel channel=14 pitch=0 time=0
EXTRACT: note_off channel=0 note=69 velocity=47 time=0.08695649999999999
EXTRACT: note_off channel=0 note=61 velocity=47 time=0
EXTRACT: note_on channel=0 note=57 velocity=47 time=0
EXTRACT: pitchwheel channel=12 pitch=0 time=0
EXTRACT: note_off channel=7 note=52 velocity=95 time=0
EXTRACT: note_off channel=7 note=45 velocity=95 time=0
EXTRACT: note_on channel=7 note=52 velocity=95 time=0
EXTRACT: note_on channel=7 note=45 velocity=95 time=0
EXTRACT: pitchwheel channel=14 pitch=128 time=0
EXTRACT: pitchwheel channel=12 pitch=128 time=0.08695649999999999
EXTRACT: pitchwheel channel=14 pitch=0 time=0
EXTRACT: pitchwheel channel=12 pitch=0 time=0.08695649999999999
EXTRACT: pitchwheel channel=14 pitch=128 time=0
EXTRACT: note_off channel=0 note=57 velocity=47 time=0.08695649999999999
EXTRACT: note_on channel=0 note=69 velocity=63 time=0
EXTRACT: note_on channel=0 note=61 velocity=63 time=0
EXTRACT: pitchwheel channel=12 pitch=128 time=0
EXTRACT: note_off channel=7 note=52 velocity=95 time=0
EXTRACT: note_off channel=7 note=45 velocity=95 time=0
EXTRACT: note_on channel=7 note=54 velocity=95 time=0
EXTRACT: note_on channel=7 note=45 velocity=95 time=0
EXTRACT: pitchwheel channel=14 pitch=0 time=0
EXTRACT: note_off channel=9 note=42 velocity=95 time=0
EXTRACT: note_off channel=9 note=36 velocity=95 time=0
EXTRACT: note_on channel=9 note=46 velocity=63 time=0
EXTRACT: note_on channel=9 note=40 velocity=95 time=0
EXTRACT: pitchwheel channel=12 pitch=0 time=0.08695649999999999
EXTRACT: pitchwheel channel=14 pitch=128 time=0
EXTRACT: pitchwheel channel=12 pitch=128 time=0.08695649999999999
EXTRACT: pitchwheel channel=14 pitch=0 time=0
EXTRACT: note_off channel=0 note=69 velocity=63 time=0.08695649999999999
EXTRACT: note_off channel=0 note=61 velocity=63 time=0
EXTRACT: note_on channel=0 note=57 velocity=47 time=0
EXTRACT: pitchwheel channel=12 pitch=0 time=0
EXTRACT: note_off channel=7 note=54 velocity=95 time=0
EXTRACT: note_off channel=7 note=45 velocity=95 time=0
EXTRACT: note_on channel=7 note=52 velocity=95 time=0
EXTRACT: note_on channel=7 note=45 velocity=95 time=0
EXTRACT: pitchwheel channel=14 pitch=128 time=0
EXTRACT: pitchwheel channel=12 pitch=128 time=0.08695649999999999
EXTRACT: pitchwheel channel=14 pitch=0 time=0
EXTRACT: pitchwheel channel=12 pitch=0 time=0.08695649999999999
EXTRACT: pitchwheel channel=14 pitch=128 time=0
EXTRACT: note_off channel=0 note=57 velocity=47 time=0.08695649999999999
EXTRACT: note_on channel=0 note=69 velocity=63 time=0
EXTRACT: note_on channel=0 note=61 velocity=47 time=0
EXTRACT: pitchwheel channel=12 pitch=128 time=0
EXTRACT: note_off channel=7 note=52 velocity=95 time=0
EXTRACT: note_off channel=7 note=45 velocity=95 time=0
EXTRACT: note_on channel=7 note=52 velocity=95 time=0
EXTRACT: note_on channel=7 note=45 velocity=95 time=0
EXTRACT: pitchwheel channel=14 pitch=0 time=0
EXTRACT: note_off channel=9 note=46 velocity=63 time=0
EXTRACT: note_off channel=9 note=40 velocity=95 time=0
EXTRACT: note_on channel=9 note=42 velocity=95 time=0
EXTRACT: note_on channel=9 note=36 velocity=95 time=0
EXTRACT: pitchwheel channel=12 pitch=0 time=0.08695649999999999
EXTRACT: pitchwheel channel=14 pitch=128 time=0
EXTRACT: pitchwheel channel=12 pitch=128 time=0.08695649999999999
EXTRACT: pitchwheel channel=14 pitch=0 time=0
EXTRACT: note_off channel=0 note=69 velocity=63 time=0.08695649999999999
EXTRACT: note_off channel=0 note=61 velocity=47 time=0
EXTRACT: note_on channel=0 note=57 velocity=63 time=0
EXTRACT: note_off channel=8 note=33 velocity=95 time=0
EXTRACT: note_on channel=8 note=39 velocity=95 time=0
EXTRACT: pitchwheel channel=12 pitch=0 time=0
EXTRACT: note_off channel=5 note=33 velocity=95 time=0
EXTRACT: note_on channel=5 note=39 velocity=95 time=0
EXTRACT: note_off channel=7 note=52 velocity=95 time=0
EXTRACT: note_off channel=7 note=45 velocity=95 time=0
EXTRACT: note_on channel=7 note=52 velocity=95 time=0
EXTRACT: note_on channel=7 note=45 velocity=95 time=0
EXTRACT: pitchwheel channel=14 pitch=128 time=0
EXTRACT: pitchwheel channel=14 pitch=0 time=0
EXTRACT: note_off channel=14 note=52 velocity=95 time=0
EXTRACT: note_off channel=13 note=45 velocity=95 time=0
EXTRACT: note_on channel=13 note=51 velocity=95 time=0
EXTRACT: note_off channel=9 note=42 velocity=95 time=0
EXTRACT: note_off channel=9 note=36 velocity=95 time=0
EXTRACT: note_on channel=9 note=53 velocity=95 time=0
EXTRACT: note_on channel=9 note=45 velocity=95 time=0
EXTRACT: pitchwheel channel=12 pitch=128 time=0.08695649999999999
EXTRACT: pitchwheel channel=12 pitch=0 time=0.08695649999999999
EXTRACT: note_off channel=0 note=57 velocity=63 time=0.08695649999999999
EXTRACT: note_on channel=0 note=69 velocity=63 time=0
EXTRACT: note_on channel=0 note=61 velocity=47 time=0
EXTRACT: note_off channel=8 note=39 velocity=95 time=0
EXTRACT: note_on channel=8 note=40 velocity=95 time=0
EXTRACT: pitchwheel channel=12 pitch=128 time=0
EXTRACT: note_off channel=5 note=39 velocity=95 time=0
EXTRACT: note_on channel=5 note=40 velocity=95 time=0
EXTRACT: note_off channel=7 note=52 velocity=95 time=0
EXTRACT: note_off channel=7 note=45 velocity=95 time=0
EXTRACT: note_on channel=7 note=52 velocity=95 time=0
EXTRACT: note_on channel=7 note=45 velocity=95 time=0
EXTRACT: note_off channel=13 note=51 velocity=95 time=0
EXTRACT: note_on channel=13 note=52 velocity=95 time=0
EXTRACT: note_off channel=9 note=53 velocity=95 time=0
EXTRACT: note_off channel=9 note=45 velocity=95 time=0
EXTRACT: note_on channel=9 note=42 velocity=95 time=0
EXTRACT: note_on channel=9 note=36 velocity=95 time=0
EXTRACT: pitchwheel channel=12 pitch=0 time=0.08695649999999999
EXTRACT: pitchwheel channel=12 pitch=128 time=0.08695649999999999
EXTRACT: note_off channel=0 note=69 velocity=63 time=0.08695649999999999
EXTRACT: note_off channel=0 note=61 velocity=47 time=0
EXTRACT: note_on channel=0 note=57 velocity=47 time=0
EXTRACT: pitchwheel channel=12 pitch=0 time=0
EXTRACT: note_off channel=7 note=52 velocity=95 time=0
EXTRACT: note_off channel=7 note=45 velocity=95 time=0
EXTRACT: note_on channel=7 note=64 velocity=95 time=0
EXTRACT: note_on channel=7 note=59 velocity=95 time=0
EXTRACT: note_on channel=7 note=52 velocity=95 time=0
EXTRACT: note_off channel=13 note=52 velocity=95 time=0
EXTRACT: note_on channel=13 note=40 velocity=95 time=0
EXTRACT: note_off channel=9 note=42 velocity=95 time=0
EXTRACT: note_off channel=9 note=36 velocity=95 time=0
EXTRACT: note_on channel=9 note=43 velocity=95 time=0
EXTRACT: pitchwheel channel=12 pitch=128 time=0.08695649999999999
EXTRACT: pitchwheel channel=12 pitch=0 time=0.08695649999999999
EXTRACT: note_off channel=0 note=57 velocity=47 time=0.08695649999999999
EXTRACT: note_on channel=0 note=71 velocity=47 time=0
EXTRACT: note_on channel=0 note=64 velocity=47 time=0
EXTRACT: note_off channel=8 note=40 velocity=95 time=0
EXTRACT: note_on channel=8 note=40 velocity=95 time=0
EXTRACT: note_on channel=8 note=28 velocity=95 time=0
EXTRACT: pitchwheel channel=12 pitch=128 time=0
EXTRACT: pitchwheel channel=12 pitch=0 time=0
EXTRACT: note_off channel=12 note=83 velocity=95 time=0
EXTRACT: note_on channel=11 note=83 velocity=95 time=0
EXTRACT: note_on channel=11 note=81 velocity=95 time=0
EXTRACT: note_on channel=11 note=78 velocity=95 time=0
EXTRACT: note_on channel=11 note=73 velocity=95 time=0
EXTRACT: note_off channel=5 note=40 velocity=95 time=0
EXTRACT: note_on channel=5 note=28 velocity=95 time=0
EXTRACT: note_off channel=7 note=64 velocity=95 time=0
EXTRACT: note_off channel=7 note=59 velocity=95 time=0
EXTRACT: note_off channel=7 note=52 velocity=95 time=0
EXTRACT: note_on channel=7 note=47 velocity=95 time=0
EXTRACT: note_on channel=7 note=40 velocity=95 time=0
EXTRACT: note_off channel=9 note=43 velocity=95 time=0
EXTRACT: note_on channel=9 note=49 velocity=95 time=0
EXTRACT: note_on channel=9 note=57 velocity=95 time=0
EXTRACT: note_on channel=9 note=36 velocity=95 time=0
EXTRACT: note_off channel=0 note=71 velocity=47 time=0.2608695
EXTRACT: note_off channel=0 note=64 velocity=47 time=0
EXTRACT: note_on channel=0 note=59 velocity=95 time=0
EXTRACT: note_off channel=11 note=81 velocity=95 time=0
EXTRACT: note_off channel=11 note=78 velocity=95 time=0
EXTRACT: note_off channel=11 note=73 velocity=95 time=0
EXTRACT: note_on channel=11 note=80 velocity=95 time=0
EXTRACT: note_on channel=11 note=76 velocity=95 time=0
EXTRACT: note_on channel=11 note=71 velocity=95 time=0
EXTRACT: note_off channel=7 note=47 velocity=95 time=0
EXTRACT: note_off channel=7 note=40 velocity=95 time=0
EXTRACT: note_on channel=7 note=47 velocity=95 time=0
EXTRACT: note_on channel=7 note=40 velocity=95 time=0
EXTRACT: note_off channel=0 note=59 velocity=95 time=0.2608695
EXTRACT: note_on channel=0 note=71 velocity=47 time=0
EXTRACT: note_on channel=0 note=64 velocity=63 time=0
EXTRACT: note_off channel=7 note=47 velocity=95 time=0
EXTRACT: note_off channel=7 note=40 velocity=95 time=0
EXTRACT: note_on channel=7 note=49 velocity=95 time=0
EXTRACT: note_on channel=7 note=40 velocity=95 time=0
EXTRACT: note_off channel=13 note=40 velocity=95 time=0
EXTRACT: note_on channel=13 note=64 velocity=95 time=0
EXTRACT: note_on channel=13 note=59 velocity=95 time=0
EXTRACT: note_off channel=9 note=49 velocity=95 time=0
EXTRACT: note_off channel=9 note=57 velocity=95 time=0
EXTRACT: note_off channel=9 note=36 velocity=95 time=0
EXTRACT: note_on channel=9 note=46 velocity=63 time=0
EXTRACT: note_on channel=9 note=40 velocity=95 time=0
EXTRACT: note_off channel=0 note=71 velocity=47 time=0.2608695
EXTRACT: note_off channel=0 note=64 velocity=63 time=0
EXTRACT: note_on channel=0 note=59 velocity=95 time=0
EXTRACT: note_off channel=11 note=83 velocity=95 time=0
EXTRACT: note_off channel=11 note=80 velocity=95 time=0
EXTRACT: note_off channel=11 note=76 velocity=95 time=0
EXTRACT: note_off channel=11 note=71 velocity=95 time=0
EXTRACT: note_on channel=11 note=83 velocity=95 time=0
EXTRACT: note_on channel=11 note=80 velocity=95 time=0
EXTRACT: note_on channel=11 note=76 velocity=95 time=0
EXTRACT: note_on channel=11 note=71 velocity=95 time=0
EXTRACT: note_off channel=7 note=49 velocity=95 time=0
EXTRACT: note_off channel=7 note=40 velocity=95 time=0
EXTRACT: note_on channel=7 note=49 velocity=95 time=0
EXTRACT: note_on channel=7 note=40 velocity=95 time=0
EXTRACT: note_off channel=0 note=59 velocity=95 time=0.2608695
EXTRACT: note_on channel=0 note=71 velocity=47 time=0
EXTRACT: note_on channel=0 note=64 velocity=63 time=0
EXTRACT: note_off channel=11 note=83 velocity=95 time=0
EXTRACT: note_off channel=11 note=80 velocity=95 time=0
EXTRACT: note_off channel=11 note=76 velocity=95 time=0
EXTRACT: note_off channel=11 note=71 velocity=95 time=0
EXTRACT: note_off channel=7 note=49 velocity=95 time=0
EXTRACT: note_off channel=7 note=40 velocity=95 time=0
EXTRACT: note_on channel=7 note=47 velocity=95 time=0
EXTRACT: note_on channel=7 note=40 velocity=95 time=0
EXTRACT: note_off channel=13 note=64 velocity=95 time=0
EXTRACT: note_off channel=13 note=59 velocity=95 time=0
EXTRACT: note_on channel=13 note=40 velocity=95 time=0
EXTRACT: note_off channel=9 note=46 velocity=63 time=0
EXTRACT: note_off channel=9 note=40 velocity=95 time=0
EXTRACT: note_on channel=9 note=42 velocity=95 time=0
EXTRACT: note_on channel=9 note=36 velocity=95 time=0
EXTRACT: note_off channel=0 note=71 velocity=47 time=0.2608695
EXTRACT: note_off channel=0 note=64 velocity=63 time=0
EXTRACT: note_on channel=0 note=59 velocity=95 time=0
EXTRACT: note_off channel=8 note=40 velocity=95 time=0
EXTRACT: note_off channel=8 note=28 velocity=95 time=0
EXTRACT: note_on channel=8 note=30 velocity=95 time=0
EXTRACT: note_off channel=5 note=28 velocity=95 time=0
EXTRACT: note_on channel=5 note=30 velocity=95 time=0
EXTRACT: note_off channel=7 note=47 velocity=95 time=0
EXTRACT: note_off channel=7 note=40 velocity=95 time=0
EXTRACT: note_on channel=7 note=47 velocity=95 time=0
EXTRACT: note_on channel=7 note=40 velocity=95 time=0
EXTRACT: note_off channel=13 note=40 velocity=95 time=0
EXTRACT: note_on channel=13 note=42 velocity=95 time=0
EXTRACT: note_off channel=9 note=42 velocity=95 time=0
EXTRACT: note_off channel=9 note=36 velocity=95 time=0
EXTRACT: note_on channel=9 note=53 velocity=95 time=0
EXTRACT: note_off channel=0 note=59 velocity=95 time=0.2608695
EXTRACT: note_on channel=0 note=71 velocity=47 time=0
EXTRACT: note_on channel=0 note=64 velocity=63 time=0
EXTRACT: note_off channel=8 note=30 velocity=95 time=0
EXTRACT: note_on channel=8 note=32 velocity=95 time=0
EXTRACT: note_off channel=5 note=30 velocity=95 time=0
EXTRACT: note_on channel=5 note=32 velocity=95 time=0
EXTRACT: note_off channel=7 note=47 velocity=95 time=0
EXTRACT: note_off channel=7 note=40 velocity=95 time=0
EXTRACT: note_on channel=7 note=47 velocity=95 time=0
EXTRACT: note_on channel=7 note=40 velocity=95 time=0
EXTRACT: note_off channel=13 note=42 velocity=95 time=0
EXTRACT: note_on channel=13 note=44 velocity=95 time=0
EXTRACT: note_off channel=9 note=53 velocity=95 time=0
EXTRACT: note_on channel=9 note=42 velocity=95 time=0
EXTRACT: note_on channel=9 note=43 velocity=95 time=0
EXTRACT: note_off channel=0 note=71 velocity=47 time=0.2608695
EXTRACT: note_off channel=0 note=64 velocity=63 time=0
EXTRACT: note_on channel=0 note=59 velocity=95 time=0
EXTRACT: note_off channel=8 note=32 velocity=95 time=0
EXTRACT: note_on channel=8 note=47 velocity=95 time=0
EXTRACT: note_on channel=8 note=35 velocity=95 time=0
EXTRACT: note_on channel=11 note=83 velocity=95 time=0
EXTRACT: note_on channel=11 note=78 velocity=95 time=0
EXTRACT: note_on channel=11 note=73 velocity=95 time=0
EXTRACT: note_on channel=11 note=69 velocity=95 time=0
EXTRACT: note_off channel=5 note=32 velocity=95 time=0
EXTRACT: note_on channel=5 note=35 velocity=95 time=0
EXTRACT: note_off channel=7 note=47 velocity=95 time=0
EXTRACT: note_off channel=7 note=40 velocity=95 time=0
EXTRACT: note_on channel=7 note=54 velocity=95 time=0
EXTRACT: note_on channel=7 note=47 velocity=95 time=0
EXTRACT: note_off channel=13 note=44 velocity=95 time=0
EXTRACT: note_on channel=14 note=47 velocity=95 time=0
EXTRACT: pitchwheel channel=14 pitch=0 time=0.08695649999999999
EXTRACT: pitchwheel channel=14 pitch=128 time=0.08695649999999999
EXTRACT: note_off channel=0 note=59 velocity=95 time=0.08695649999999999
EXTRACT: note_on channel=0 note=71 velocity=47 time=0
EXTRACT: note_on channel=0 note=66 velocity=47 time=0
EXTRACT: note_off channel=11 note=83 velocity=95 time=0
EXTRACT: note_off channel=11 note=78 velocity=95 time=0
EXTRACT: note_off channel=11 note=73 velocity=95 time=0
EXTRACT: note_off channel=11 note=69 velocity=95 time=0
EXTRACT: note_on channel=11 note=83 velocity=95 time=0
EXTRACT: note_on channel=12 note=81 velocity=95 time=0
EXTRACT: note_on channel=12 note=78 velocity=95 time=0
EXTRACT: note_on channel=12 note=73 velocity=95 time=0
EXTRACT: note_off channel=7 note=54 velocity=95 time=0
EXTRACT: note_off channel=7 note=47 velocity=95 time=0
EXTRACT: note_on channel=7 note=54 velocity=95 time=0
EXTRACT: note_on channel=7 note=47 velocity=95 time=0
EXTRACT: pitchwheel channel=14 pitch=0 time=0
EXTRACT: note_off channel=9 note=42 velocity=95 time=0
EXTRACT: note_off channel=9 note=43 velocity=95 time=0
EXTRACT: note_on channel=9 note=42 velocity=95 time=0
EXTRACT: note_on channel=9 note=36 velocity=95 time=0
EXTRACT: pitchwheel channel=12 pitch=0 time=0.065217375
EXTRACT: pitchwheel channel=12 pitch=-128 time=0
EXTRACT: pitchwheel channel=12 pitch=-128 time=0
EXTRACT: pitchwheel channel=14 pitch=128 time=0.021739124999999998
EXTRACT: pitchwheel channel=12 pitch=-128 time=0.043478249999999996
EXTRACT: pitchwheel channel=12 pitch=-256 time=0
EXTRACT: pitchwheel channel=12 pitch=-256 time=0
EXTRACT: pitchwheel channel=14 pitch=0 time=0.043478249999999996
EXTRACT: pitchwheel channel=12 pitch=-256 time=0.021739124999999998
EXTRACT: pitchwheel channel=12 pitch=-512 time=0
EXTRACT: pitchwheel channel=12 pitch=-512 time=0
EXTRACT: note_off channel=0 note=71 velocity=47 time=0.065217375
EXTRACT: note_off channel=0 note=66 velocity=47 time=0
EXTRACT: note_on channel=0 note=59 velocity=95 time=0
EXTRACT: pitchwheel channel=12 pitch=-256 time=0
EXTRACT: pitchwheel channel=12 pitch=-640 time=0
EXTRACT: pitchwheel channel=12 pitch=-640 time=0
EXTRACT: note_off channel=7 note=54 velocity=95 time=0
EXTRACT: note_off channel=7 note=47 velocity=95 time=0
EXTRACT: note_on channel=7 note=54 velocity=95 time=0
EXTRACT: note_on channel=7 note=47 velocity=95 time=0
EXTRACT: pitchwheel channel=14 pitch=128 time=0
EXTRACT: pitchwheel channel=12 pitch=-384 time=0.065217375
EXTRACT: pitchwheel channel=12 pitch=-768 time=0
EXTRACT: pitchwheel channel=12 pitch=-768 time=0
EXTRACT: pitchwheel channel=14 pitch=0 time=0.021739124999999998
EXTRACT: pitchwheel channel=12 pitch=-512 time=0.043478249999999996
EXTRACT: pitchwheel channel=12 pitch=-1024 time=0
EXTRACT: pitchwheel channel=12 pitch=-1024 time=0
EXTRACT: pitchwheel channel=14 pitch=128 time=0.043478249999999996
EXTRACT: pitchwheel channel=12 pitch=-512 time=0.021739124999999998
EXTRACT: pitchwheel channel=12 pitch=-1152 time=0
EXTRACT: pitchwheel channel=12 pitch=-1152 time=0
EXTRACT: note_off channel=0 note=59 velocity=95 time=0.065217375
EXTRACT: note_on channel=0 note=71 velocity=47 time=0
EXTRACT: note_on channel=0 note=66 velocity=47 time=0
EXTRACT: pitchwheel channel=12 pitch=-640 time=0
EXTRACT: pitchwheel channel=12 pitch=0 time=0
EXTRACT: note_off channel=12 note=81 velocity=95 time=0
EXTRACT: pitchwheel channel=12 pitch=-1408 time=0
EXTRACT: pitchwheel channel=12 pitch=0 time=0
EXTRACT: note_off channel=12 note=78 velocity=95 time=0
EXTRACT: pitchwheel channel=12 pitch=-1408 time=0
EXTRACT: pitchwheel channel=12 pitch=0 time=0
EXTRACT: note_off channel=12 note=73 velocity=95 time=0
EXTRACT: note_on channel=11 note=80 velocity=95 time=0
EXTRACT: note_on channel=11 note=76 velocity=95 time=0
EXTRACT: note_on channel=11 note=71 velocity=95 time=0
EXTRACT: note_off channel=7 note=54 velocity=95 time=0
EXTRACT: note_off channel=7 note=47 velocity=95 time=0
EXTRACT: note_on channel=7 note=56 velocity=95 time=0
EXTRACT: note_on channel=7 note=47 velocity=95 time=0
EXTRACT: pitchwheel channel=14 pitch=0 time=0
EXTRACT: note_off channel=9 note=42 velocity=95 time=0
EXTRACT: note_off channel=9 note=36 velocity=95 time=0
EXTRACT: note_on channel=9 note=42 velocity=63 time=0
EXTRACT: note_on channel=9 note=40 velocity=95 time=0
EXTRACT: pitchwheel channel=14 pitch=128 time=0.08695649999999999
EXTRACT: pitchwheel channel=14 pitch=0 time=0.08695649999999999
EXTRACT: note_off channel=0 note=71 velocity=47 time=0.08695649999999999
EXTRACT: note_off channel=0 note=66 velocity=47 time=0
EXTRACT: note_on channel=0 note=59 velocity=95 time=0
EXTRACT: note_off channel=11 note=83 velocity=95 time=0
EXTRACT: note_off channel=11 note=80 velocity=95 time=0
EXTRACT: note_off channel=11 note=76 velocity=95 time=0
EXTRACT: note_off channel=11 note=71 velocity=95 time=0
EXTRACT: note_on channel=11 note=83 velocity=95 time=0
EXTRACT: note_on channel=11 note=80 velocity=95 time=0
EXTRACT: note_on channel=11 note=76 velocity=95 time=0
EXTRACT: note_on channel=11 note=71 velocity=95 time=0
EXTRACT: note_off channel=7 note=56 velocity=95 time=0
EXTRACT: note_off channel=7 note=47 velocity=95 time=0
EXTRACT: note_on channel=7 note=54 velocity=95 time=0
EXTRACT: note_on channel=7 note=47 velocity=95 time=0
EXTRACT: pitchwheel channel=14 pitch=128 time=0
EXTRACT: pitchwheel channel=14 pitch=0 time=0.08695649999999999
EXTRACT: pitchwheel channel=14 pitch=128 time=0.08695649999999999
EXTRACT: note_off channel=0 note=59 velocity=95 time=0.08695649999999999
EXTRACT: note_on channel=0 note=71 velocity=63 time=0
EXTRACT: note_on channel=0 note=66 velocity=47 time=0
EXTRACT: note_off channel=7 note=54 velocity=95 time=0
EXTRACT: note_off channel=7 note=47 velocity=95 time=0
EXTRACT: note_on channel=7 note=54 velocity=95 time=0
EXTRACT: note_on channel=7 note=47 velocity=95 time=0
EXTRACT: pitchwheel channel=14 pitch=0 time=0
EXTRACT: pitchwheel channel=14 pitch=128 time=0
EXTRACT: pitchwheel channel=14 pitch=0 time=0
EXTRACT: note_off channel=14 note=47 velocity=95 time=0
EXTRACT: note_on channel=13 note=47 velocity=95 time=0
EXTRACT: note_off channel=9 note=42 velocity=63 time=0
EXTRACT: note_off channel=9 note=40 velocity=95 time=0
EXTRACT: note_on channel=9 note=42 velocity=95 time=0
EXTRACT: note_on channel=9 note=36 velocity=95 time=0
EXTRACT: note_off channel=0 note=71 velocity=63 time=0.2608695
EXTRACT: note_off channel=0 note=66 velocity=47 time=0
EXTRACT: note_on channel=0 note=59 velocity=95 time=0
EXTRACT: note_off channel=8 note=47 velocity=95 time=0
EXTRACT: note_off channel=8 note=35 velocity=95 time=0
EXTRACT: note_on channel=8 note=37 velocity=95 time=0
EXTRACT: note_off channel=11 note=83 velocity=95 time=0
EXTRACT: note_off channel=11 note=80 velocity=95 time=0
EXTRACT: note_off channel=11 note=76 velocity=95 time=0
EXTRACT: note_off channel=11 note=71 velocity=95 time=0
EXTRACT: note_off channel=5 note=35 velocity=95 time=0
EXTRACT: note_on channel=5 note=37 velocity=95 time=0
EXTRACT: note_off channel=7 note=54 velocity=95 time=0
EXTRACT: note_off channel=7 note=47 velocity=95 time=0
EXTRACT: note_on channel=7 note=54 velocity=95 time=0
EXTRACT: note_on channel=7 note=47 velocity=95 time=0
EXTRACT: note_off channel=13 note=47 velocity=95 time=0
EXTRACT: note_on channel=13 note=49 velocity=95 time=0
EXTRACT: note_off channel=9 note=42 velocity=95 time=0
EXTRACT: note_off channel=9 note=36 velocity=95 time=0
EXTRACT: note_on channel=9 note=53 velocity=95 time=0
EXTRACT: note_on channel=9 note=45 velocity=95 time=0
EXTRACT: note_off channel=0 note=59 velocity=95 time=0.2608695
EXTRACT: note_on channel=0 note=71 velocity=47 time=0
EXTRACT: note_on channel=0 note=66 velocity=47 time=0
EXTRACT: note_off channel=8 note=37 velocity=95 time=0
EXTRACT: note_on channel=8 note=39 velocity=95 time=0
EXTRACT: note_off channel=5 note=37 velocity=95 time=0
EXTRACT: note_on channel=5 note=39 velocity=95 time=0
EXTRACT: note_off channel=7 note=54 velocity=95 time=0
EXTRACT: note_off channel=7 note=47 velocity=95 time=0
EXTRACT: note_on channel=7 note=54 velocity=95 time=0
EXTRACT: note_on channel=7 note=47 velocity=95 time=0
EXTRACT: note_off channel=13 note=49 velocity=95 time=0
EXTRACT: note_on channel=13 note=51 velocity=95 time=0
EXTRACT: note_off channel=9 note=53 velocity=95 time=0
EXTRACT: note_off channel=9 note=45 velocity=95 time=0
EXTRACT: note_on channel=9 note=42 velocity=95 time=0
EXTRACT: note_on channel=9 note=36 velocity=95 time=0
EXTRACT: note_off channel=0 note=71 velocity=47 time=0.2608695
EXTRACT: note_off channel=0 note=66 velocity=47 time=0
EXTRACT: note_on channel=0 note=59 velocity=95 time=0
EXTRACT: note_off channel=8 note=39 velocity=95 time=0
EXTRACT: note_on channel=8 note=37 velocity=95 time=0
EXTRACT: note_off channel=5 note=39 velocity=95 time=0
EXTRACT: note_on channel=5 note=37 velocity=95 time=0
EXTRACT: note_off channel=7 note=54 velocity=95 time=0
EXTRACT: note_off channel=7 note=47 velocity=95 time=0
EXTRACT: note_on channel=7 note=61 velocity=95 time=0
EXTRACT: note_on channel=7 note=56 velocity=95 time=0
EXTRACT: note_on channel=7 note=49 velocity=95 time=0
EXTRACT: note_off channel=13 note=51 velocity=95 time=0
EXTRACT: note_on channel=14 note=49 velocity=95 time=0
EXTRACT: note_off channel=9 note=42 velocity=95 time=0
EXTRACT: note_off channel=9 note=36 velocity=95 time=0
EXTRACT: note_on channel=9 note=43 velocity=95 time=0
EXTRACT: pitchwheel channel=14 pitch=0 time=0.08695649999999999
EXTRACT: pitchwheel channel=14 pitch=128 time=0.08695649999999999
EXTRACT: note_off channel=0 note=59 velocity=95 time=0.08695649999999999
EXTRACT: note_on channel=0 note=71 velocity=63 time=0
EXTRACT: note_on channel=0 note=64 velocity=47 time=0
EXTRACT: note_off channel=7 note=61 velocity=95 time=0
EXTRACT: note_off channel=7 note=56 velocity=95 time=0
EXTRACT: note_off channel=7 note=49 velocity=95 time=0
EXTRACT: note_on channel=7 note=56 velocity=95 time=0
EXTRACT: note_on channel=7 note=49 velocity=95 time=0
EXTRACT: pitchwheel channel=14 pitch=0 time=0
EXTRACT: note_off channel=9 note=43 velocity=95 time=0
EXTRACT: note_on channel=9 note=49 velocity=95 time=0
EXTRACT: note_on channel=9 note=57 velocity=95 time=0
EXTRACT: note_on channel=9 note=36 velocity=95 time=0
EXTRACT: pitchwheel channel=14 pitch=128 time=0.08695649999999999
EXTRACT: pitchwheel channel=14 pitch=0 time=0.08695649999999999
EXTRACT: note_off channel=0 note=71 velocity=63 time=0.08695649999999999
EXTRACT: note_off channel=0 note=64 velocity=47 time=0
EXTRACT: note_on channel=0 note=59 velocity=47 time=0
EXTRACT: note_on channel=11 note=85 velocity=95 time=0
EXTRACT: note_off channel=7 note=56 velocity=95 time=0
EXTRACT: note_off channel=7 note=49 velocity=95 time=0
EXTRACT: note_on channel=7 note=56 velocity=95 time=0
EXTRACT: note_on channel=7 note=49 velocity=95 time=0
EXTRACT: pitchwheel channel=14 pitch=128 time=0
EXTRACT: pitchwheel channel=14 pitch=0 time=0.08695649999999999
EXTRACT: pitchwheel channel=14 pitch=128 time=0.08695649999999999
EXTRACT: note_off channel=0 note=59 velocity=47 time=0.08695649999999999
EXTRACT: note_on channel=0 note=71 velocity=63 time=0
EXTRACT: note_on channel=0 note=64 velocity=63 time=0
EXTRACT: note_off channel=7 note=56 velocity=95 time=0
EXTRACT: note_off channel=7 note=49 velocity=95 time=0
EXTRACT: note_on channel=7 note=56 velocity=95 time=0
EXTRACT: note_on channel=7 note=49 velocity=95 time=0
EXTRACT: pitchwheel channel=14 pitch=0 time=0
EXTRACT: note_off channel=9 note=49 velocity=95 time=0
EXTRACT: note_off channel=9 note=57 velocity=95 time=0
EXTRACT: note_off channel=9 note=36 velocity=95 time=0
EXTRACT: note_on channel=9 note=46 velocity=63 time=0
EXTRACT: note_on channel=9 note=40 velocity=95 time=0
EXTRACT: pitchwheel channel=14 pitch=128 time=0.08695649999999999
EXTRACT: pitchwheel channel=14 pitch=0 time=0.08695649999999999
EXTRACT: note_off channel=0 note=71 velocity=63 time=0.08695649999999999
EXTRACT: note_off channel=0 note=64 velocity=63 time=0
EXTRACT: note_on channel=0 note=59 velocity=47 time=0
EXTRACT: note_off channel=11 note=85 velocity=95 time=0
EXTRACT: note_on channel=11 note=83 velocity=95 time=0
EXTRACT: note_off channel=7 note=56 velocity=95 time=0
EXTRACT: note_off channel=7 note=49 velocity=95 time=0
EXTRACT: note_on channel=7 note=56 velocity=95 time=0
EXTRACT: note_on channel=7 note=49 velocity=95 time=0
EXTRACT: pitchwheel channel=14 pitch=128 time=0
EXTRACT: pitchwheel channel=14 pitch=0 time=0.08695649999999999
EXTRACT: pitchwheel channel=14 pitch=128 time=0.08695649999999999
EXTRACT: note_off channel=0 note=59 velocity=47 time=0.08695649999999999
EXTRACT: note_on channel=0 note=71 velocity=63 time=0
EXTRACT: note_on channel=0 note=64 velocity=63 time=0
EXTRACT: note_off channel=7 note=56 velocity=95 time=0
EXTRACT: note_off channel=7 note=49 velocity=95 time=0
EXTRACT: note_on channel=7 note=56 velocity=95 time=0
EXTRACT: note_on channel=7 note=49 velocity=95 time=0
EXTRACT: pitchwheel channel=14 pitch=0 time=0
EXTRACT: note_off channel=9 note=46 velocity=63 time=0
EXTRACT: note_off channel=9 note=40 velocity=95 time=0
EXTRACT: note_on channel=9 note=42 velocity=95 time=0
EXTRACT: note_on channel=9 note=36 velocity=95 time=0
EXTRACT: pitchwheel channel=14 pitch=128 time=0.08695649999999999
EXTRACT: pitchwheel channel=14 pitch=0 time=0.08695649999999999
EXTRACT: note_off channel=0 note=71 velocity=63 time=0.08695649999999999
EXTRACT: note_off channel=0 note=64 velocity=63 time=0
EXTRACT: note_on channel=0 note=59 velocity=47 time=0
EXTRACT: note_off channel=8 note=37 velocity=95 time=0
EXTRACT: note_on channel=8 note=39 velocity=95 time=0
EXTRACT: note_off channel=11 note=83 velocity=95 time=0
EXTRACT: note_on channel=11 note=85 velocity=95 time=0
EXTRACT: note_off channel=5 note=37 velocity=95 time=0
EXTRACT: note_on channel=5 note=39 velocity=95 time=0
EXTRACT: note_off channel=7 note=56 velocity=95 time=0
EXTRACT: note_off channel=7 note=49 velocity=95 time=0
EXTRACT: note_on channel=7 note=56 velocity=95 time=0
EXTRACT: note_on channel=7 note=49 velocity=95 time=0
EXTRACT: pitchwheel channel=14 pitch=128 time=0
EXTRACT: pitchwheel channel=14 pitch=0 time=0
EXTRACT: note_off channel=14 note=49 velocity=95 time=0
EXTRACT: note_on channel=13 note=51 velocity=95 time=0
EXTRACT: note_off channel=9 note=42 velocity=95 time=0
EXTRACT: note_off channel=9 note=36 velocity=95 time=0
EXTRACT: note_on channel=9 note=53 velocity=95 time=0
EXTRACT: note_off channel=0 note=59 velocity=47 time=0.2608695
EXTRACT: note_on channel=0 note=71 velocity=63 time=0
EXTRACT: note_on channel=0 note=64 velocity=47 time=0
EXTRACT: note_off channel=8 note=39 velocity=95 time=0
EXTRACT: note_on channel=8 note=40 velocity=95 time=0
EXTRACT: note_off channel=11 note=85 velocity=95 time=0
EXTRACT: note_on channel=11 note=85 velocity=95 time=0
EXTRACT: note_off channel=5 note=39 velocity=95 time=0
EXTRACT: note_on channel=5 note=40 velocity=95 time=0
EXTRACT: note_off channel=7 note=56 velocity=95 time=0
EXTRACT: note_off channel=7 note=49 velocity=95 time=0
EXTRACT: note_on channel=7 note=56 velocity=95 time=0
EXTRACT: note_on channel=7 note=49 velocity=95 time=0
EXTRACT: note_off channel=13 note=51 velocity=95 time=0
EXTRACT: note_on channel=13 note=52 velocity=95 time=0
EXTRACT: note_off channel=9 note=53 velocity=95 time=0
EXTRACT: note_on channel=9 note=42 velocity=95 time=0
EXTRACT: note_on channel=9 note=43 velocity=95 time=0
EXTRACT: note_off channel=0 note=71 velocity=63 time=0.2608695
EXTRACT: note_off channel=0 note=64 velocity=47 time=0
EXTRACT: note_on channel=0 note=59 velocity=47 time=0
EXTRACT: note_off channel=8 note=40 velocity=95 time=0
EXTRACT: note_on channel=8 note=33 velocity=95 time=0
EXTRACT: note_off channel=11 note=85 velocity=95 time=0
EXTRACT: note_off channel=5 note=40 velocity=95 time=0
EXTRACT: note_on channel=5 note=33 velocity=95 time=0
EXTRACT: note_off channel=7 note=56 velocity=95 time=0
EXTRACT: note_off channel=7 note=49 velocity=95 time=0
EXTRACT: note_on channel=7 note=57 velocity=95 time=0
EXTRACT: note_on channel=7 note=52 velocity=95 time=0
EXTRACT: note_on channel=7 note=45 velocity=95 time=0
EXTRACT: note_off channel=13 note=52 velocity=95 time=0
EXTRACT: note_on channel=14 note=45 velocity=95 time=0
EXTRACT: pitchwheel channel=14 pitch=0 time=0.08695649999999999
EXTRACT: pitchwheel channel=14 pitch=128 time=0.08695649999999999
EXTRACT: note_off channel=0 note=59 velocity=47 time=0.08695649999999999
EXTRACT: note_on channel=0 note=69 velocity=47 time=0
EXTRACT: note_on channel=0 note=61 velocity=47 time=0
EXTRACT: note_on channel=11 note=85 velocity=95 time=0
EXTRACT: note_off channel=7 note=57 velocity=95 time=0
EXTRACT: note_off channel=7 note=52 velocity=95 time=0
EXTRACT: note_off channel=7 note=45 velocity=95 time=0
EXTRACT: note_on channel=7 note=52 velocity=95 time=0
EXTRACT: note_on channel=7 note=45 velocity=95 time=0
EXTRACT: pitchwheel channel=14 pitch=0 time=0
EXTRACT: note_off channel=9 note=42 velocity=95 time=0
EXTRACT: note_off channel=9 note=43 velocity=95 time=0
EXTRACT: note_on channel=9 note=42 velocity=95 time=0
EXTRACT: note_on channel=9 note=36 velocity=95 time=0
EXTRACT: pitchwheel channel=14 pitch=128 time=0.08695649999999999
EXTRACT: pitchwheel channel=14 pitch=0 time=0.08695649999999999
EXTRACT: note_off channel=0 note=69 velocity=47 time=0.08695649999999999
EXTRACT: note_off channel=0 note=61 velocity=47 time=0
EXTRACT: note_on channel=0 note=57 velocity=47 time=0
EXTRACT: note_off channel=7 note=52 velocity=95 time=0
EXTRACT: note_off channel=7 note=45 velocity=95 time=0
EXTRACT: note_on channel=7 note=52 velocity=95 time=0
EXTRACT: note_on channel=7 note=45 velocity=95 time=0
EXTRACT: pitchwheel channel=14 pitch=128 time=0
EXTRACT: pitchwheel channel=14 pitch=0 time=0.08695649999999999
EXTRACT: note_off channel=11 note=85 velocity=95 time=0.043478249999999996
EXTRACT: note_on channel=11 note=83 velocity=95 time=0
EXTRACT: pitchwheel channel=14 pitch=128 time=0.043478249999999996
EXTRACT: note_off channel=0 note=57 velocity=47 time=0.08695649999999999
EXTRACT: note_on channel=0 note=69 velocity=63 time=0
EXTRACT: note_on channel=0 note=61 velocity=63 time=0
EXTRACT: note_off channel=7 note=52 velocity=95 time=0
EXTRACT: note_off channel=7 note=45 velocity=95 time=0
EXTRACT: note_on channel=7 note=54 velocity=95 time=0
EXTRACT: note_on channel=7 note=45 velocity=95 time=0
EXTRACT: pitchwheel channel=14 pitch=0 time=0
EXTRACT: note_off channel=9 note=42 velocity=95 time=0
EXTRACT: note_off channel=9 note=36 velocity=95 time=0
EXTRACT: note_on channel=9 note=46 velocity=63 time=0
EXTRACT: note_on channel=9 note=40 velocity=95 time=0
EXTRACT: pitchwheel channel=14 pitch=128 time=0.08695649999999999
EXTRACT: pitchwheel channel=14 pitch=0 time=0.08695649999999999
EXTRACT: note_off channel=0 note=69 velocity=63 time=0.08695649999999999
EXTRACT: note_off channel=0 note=61 velocity=63 time=0
EXTRACT: note_on channel=0 note=57 velocity=47 time=0
EXTRACT: note_off channel=11 note=83 velocity=95 time=0
EXTRACT: note_on channel=11 note=85 velocity=95 time=0
EXTRACT: note_off channel=7 note=54 velocity=95 time=0
EXTRACT: note_off channel=7 note=45 velocity=95 time=0
EXTRACT: note_on channel=7 note=52 velocity=95 time=0
EXTRACT: note_on channel=7 note=45 velocity=95 time=0
EXTRACT: pitchwheel channel=14 pitch=128 time=0
EXTRACT: pitchwheel channel=14 pitch=0 time=0.08695649999999999
EXTRACT: pitchwheel channel=14 pitch=128 time=0.08695649999999999
EXTRACT: note_off channel=0 note=57 velocity=47 time=0.08695649999999999
EXTRACT: note_on channel=0 note=69 velocity=63 time=0
EXTRACT: note_on channel=0 note=61 velocity=47 time=0
EXTRACT: note_off channel=11 note=85 velocity=95 time=0
EXTRACT: note_on channel=11 note=83 velocity=95 time=0
EXTRACT: note_off channel=7 note=52 velocity=95 time=0
EXTRACT: note_off channel=7 note=45 velocity=95 time=0
EXTRACT: note_on channel=7 note=52 velocity=95 time=0
EXTRACT: note_on channel=7 note=45 velocity=95 time=0
EXTRACT: pitchwheel channel=14 pitch=0 time=0
EXTRACT: note_off channel=9 note=46 velocity=63 time=0
EXTRACT: note_off channel=9 note=40 velocity=95 time=0
EXTRACT: note_on channel=9 note=42 velocity=95 time=0
EXTRACT: note_on channel=9 note=36 velocity=95 time=0
EXTRACT: pitchwheel channel=14 pitch=128 time=0.08695649999999999
EXTRACT: pitchwheel channel=14 pitch=0 time=0.08695649999999999
EXTRACT: note_off channel=0 note=69 velocity=63 time=0.08695649999999999
EXTRACT: note_off channel=0 note=61 velocity=47 time=0
EXTRACT: note_on channel=0 note=57 velocity=63 time=0
EXTRACT: note_off channel=8 note=33 velocity=95 time=0
EXTRACT: note_on channel=8 note=39 velocity=95 time=0
EXTRACT: note_off channel=5 note=33 velocity=95 time=0
EXTRACT: note_on channel=5 note=39 velocity=95 time=0
EXTRACT: note_off channel=7 note=52 velocity=95 time=0
EXTRACT: note_off channel=7 note=45 velocity=95 time=0
EXTRACT: note_on channel=7 note=52 velocity=95 time=0
EXTRACT: note_on channel=7 note=45 velocity=95 time=0
EXTRACT: pitchwheel channel=14 pitch=128 time=0
EXTRACT: pitchwheel channel=14 pitch=0 time=0
EXTRACT: note_off channel=14 note=45 velocity=95 time=0
EXTRACT: note_on channel=13 note=51 velocity=95 time=0
EXTRACT: note_off channel=9 note=42 velocity=95 time=0
EXTRACT: note_off channel=9 note=36 velocity=95 time=0
EXTRACT: note_on channel=9 note=53 velocity=95 time=0
EXTRACT: note_on channel=9 note=36 velocity=95 time=0
EXTRACT: note_off channel=0 note=57 velocity=63 time=0.2608695
EXTRACT: note_on channel=0 note=69 velocity=63 time=0
EXTRACT: note_on channel=0 note=61 velocity=47 time=0
EXTRACT: note_off channel=8 note=39 velocity=95 time=0
EXTRACT: note_on channel=8 note=40 velocity=95 time=0
EXTRACT: note_off channel=11 note=83 velocity=95 time=0
EXTRACT: note_off channel=5 note=39 velocity=95 time=0
EXTRACT: note_on channel=5 note=40 velocity=95 time=0
EXTRACT: note_off channel=7 note=52 velocity=95 time=0
EXTRACT: note_off channel=7 note=45 velocity=95 time=0
EXTRACT: note_on channel=7 note=52 velocity=95 time=0
EXTRACT: note_on channel=7 note=45 velocity=95 time=0
EXTRACT: note_off channel=13 note=51 velocity=95 time=0
EXTRACT: note_on channel=13 note=52 velocity=95 time=0
EXTRACT: note_off channel=9 note=53 velocity=95 time=0
EXTRACT: note_off channel=9 note=36 velocity=95 time=0
EXTRACT: note_on channel=9 note=42 velocity=95 time=0
EXTRACT: note_on channel=9 note=45 velocity=95 time=0
EXTRACT: note_off channel=0 note=69 velocity=63 time=0.2608695
EXTRACT: note_off channel=0 note=61 velocity=47 time=0
EXTRACT: note_on channel=0 note=57 velocity=47 time=0
EXTRACT: note_off channel=8 note=40 velocity=95 time=0
EXTRACT: note_on channel=8 note=28 velocity=95 time=0
EXTRACT: note_off channel=5 note=40 velocity=95 time=0
EXTRACT: note_on channel=5 note=28 velocity=95 time=0
EXTRACT: note_off channel=7 note=52 velocity=95 time=0
EXTRACT: note_off channel=7 note=45 velocity=95 time=0
EXTRACT: note_on channel=7 note=64 velocity=95 time=0
EXTRACT: note_on channel=7 note=59 velocity=95 time=0
EXTRACT: note_on channel=7 note=52 velocity=95 time=0
EXTRACT: note_off channel=13 note=52 velocity=95 time=0
EXTRACT: note_on channel=13 note=40 velocity=95 time=0
EXTRACT: note_off channel=9 note=42 velocity=95 time=0
EXTRACT: note_off channel=9 note=45 velocity=95 time=0
EXTRACT: note_on channel=9 note=43 velocity=95 time=0
EXTRACT: note_off channel=0 note=57 velocity=47 time=0.2608695
EXTRACT: note_on channel=0 note=71 velocity=47 time=0
EXTRACT: note_on channel=0 note=64 velocity=47 time=0
EXTRACT: note_on channel=11 note=83 velocity=95 time=0
EXTRACT: note_on channel=12 note=81 velocity=95 time=0
EXTRACT: note_on channel=12 note=78 velocity=95 time=0
EXTRACT: note_on channel=12 note=73 velocity=95 time=0
EXTRACT: note_off channel=7 note=64 velocity=95 time=0
EXTRACT: note_off channel=7 note=59 velocity=95 time=0
EXTRACT: note_off channel=7 note=52 velocity=95 time=0
EXTRACT: note_on channel=7 note=47 velocity=95 time=0
EXTRACT: note_on channel=7 note=40 velocity=95 time=0
EXTRACT: note_off channel=9 note=43 velocity=95 time=0
EXTRACT: note_on channel=9 note=49 velocity=95 time=0
EXTRACT: note_on channel=9 note=57 velocity=95 time=0
EXTRACT: note_on channel=9 note=36 velocity=95 time=0
EXTRACT: pitchwheel channel=12 pitch=0 time=0.065217375
EXTRACT: pitchwheel channel=12 pitch=-128 time=0
EXTRACT: pitchwheel channel=12 pitch=-128 time=0
EXTRACT: pitchwheel channel=12 pitch=-128 time=0.065217375
EXTRACT: pitchwheel channel=12 pitch=-256 time=0
EXTRACT: pitchwheel channel=12 pitch=-256 time=0
EXTRACT: pitchwheel channel=12 pitch=-256 time=0.065217375
EXTRACT: pitchwheel channel=12 pitch=-512 time=0
EXTRACT: pitchwheel channel=12 pitch=-512 time=0
EXTRACT: note_off channel=0 note=71 velocity=47 time=0.065217375
EXTRACT: note_off channel=0 note=64 velocity=47 time=0
EXTRACT: note_on channel=0 note=59 velocity=95 time=0
EXTRACT: pitchwheel channel=12 pitch=-256 time=0
EXTRACT: pitchwheel channel=12 pitch=-640 time=0
EXTRACT: pitchwheel channel=12 pitch=-640 time=0
EXTRACT: note_off channel=7 note=47 velocity=95 time=0
EXTRACT: note_off channel=7 note=40 velocity=95 time=0
EXTRACT: note_on channel=7 note=47 velocity=95 time=0
EXTRACT: note_on channel=7 note=40 velocity=95 time=0
EXTRACT: pitchwheel channel=12 pitch=-384 time=0.065217375
EXTRACT: pitchwheel channel=12 pitch=-768 time=0
EXTRACT: pitchwheel channel=12 pitch=-768 time=0
EXTRACT: pitchwheel channel=12 pitch=-512 time=0.065217375
EXTRACT: pitchwheel channel=12 pitch=-1024 time=0
EXTRACT: pitchwheel channel=12 pitch=-1024 time=0
EXTRACT: pitchwheel channel=12 pitch=-512 time=0.065217375
EXTRACT: pitchwheel channel=12 pitch=-1152 time=0
EXTRACT: pitchwheel channel=12 pitch=-1152 time=0
EXTRACT: note_off channel=0 note=59 velocity=95 time=0.065217375
EXTRACT: note_on channel=0 note=71 velocity=47 time=0
EXTRACT: note_on channel=0 note=64 velocity=63 time=0
EXTRACT: pitchwheel channel=12 pitch=-640 time=0
EXTRACT: pitchwheel channel=12 pitch=0 time=0
EXTRACT: note_off channel=12 note=81 velocity=95 time=0
EXTRACT: pitchwheel channel=12 pitch=-1408 time=0
EXTRACT: pitchwheel channel=12 pitch=0 time=0
EXTRACT: note_off channel=12 note=78 velocity=95 time=0
EXTRACT: pitchwheel channel=12 pitch=-1408 time=0
EXTRACT: pitchwheel channel=12 pitch=0 time=0
EXTRACT: note_off channel=12 note=73 velocity=95 time=0
EXTRACT: note_on channel=11 note=80 velocity=95 time=0
EXTRACT: note_on channel=11 note=76 velocity=95 time=0
EXTRACT: note_on channel=11 note=71 velocity=95 time=0
EXTRACT: note_off channel=7 note=47 velocity=95 time=0
EXTRACT: note_off channel=7 note=40 velocity=95 time=0
EXTRACT: note_on channel=7 note=49 velocity=95 time=0
EXTRACT: note_on channel=7 note=40 velocity=95 time=0
EXTRACT: note_off channel=13 note=40 velocity=95 time=0
EXTRACT: note_on channel=13 note=64 velocity=95 time=0
EXTRACT: note_on channel=13 note=59 velocity=95 time=0
EXTRACT: note_off channel=9 note=49 velocity=95 time=0
EXTRACT: note_off channel=9 note=57 velocity=95 time=0
EXTRACT: note_off channel=9 note=36 velocity=95 time=0
EXTRACT: note_on channel=9 note=46 velocity=63 time=0
EXTRACT: note_on channel=9 note=40 velocity=95 time=0
EXTRACT: note_off channel=0 note=71 velocity=47 time=0.2608695
EXTRACT: note_off channel=0 note=64 velocity=63 time=0
EXTRACT: note_on channel=0 note=59 velocity=95 time=0
EXTRACT: note_off channel=11 note=83 velocity=95 time=0
EXTRACT: note_off channel=11 note=80 velocity=95 time=0
EXTRACT: note_off channel=11 note=76 velocity=95 time=0
EXTRACT: note_off channel=11 note=71 velocity=95 time=0
EXTRACT: note_on channel=11 note=83 velocity=95 time=0
EXTRACT: note_on channel=11 note=80 velocity=95 time=0
EXTRACT: note_on channel=11 note=76 velocity=95 time=0
EXTRACT: note_on channel=11 note=71 velocity=95 time=0
EXTRACT: note_off channel=7 note=49 velocity=95 time=0
EXTRACT: note_off channel=7 note=40 velocity=95 time=0
EXTRACT: note_on channel=7 note=49 velocity=95 time=0
EXTRACT: note_on channel=7 note=40 velocity=95 time=0
EXTRACT: note_off channel=0 note=59 velocity=95 time=0.2608695
EXTRACT: note_on channel=0 note=71 velocity=47 time=0
EXTRACT: note_on channel=0 note=64 velocity=63 time=0
EXTRACT: note_off channel=7 note=49 velocity=95 time=0
EXTRACT: note_off channel=7 note=40 velocity=95 time=0
EXTRACT: note_on channel=7 note=47 velocity=95 time=0
EXTRACT: note_on channel=7 note=40 velocity=95 time=0
EXTRACT: note_off channel=13 note=64 velocity=95 time=0
EXTRACT: note_off channel=13 note=59 velocity=95 time=0
EXTRACT: note_on channel=13 note=40 velocity=95 time=0
EXTRACT: note_off channel=9 note=46 velocity=63 time=0
EXTRACT: note_off channel=9 note=40 velocity=95 time=0
EXTRACT: note_on channel=9 note=42 velocity=95 time=0
EXTRACT: note_on channel=9 note=36 velocity=95 time=0
EXTRACT: note_off channel=0 note=71 velocity=47 time=0.2608695
EXTRACT: note_off channel=0 note=64 velocity=63 time=0
EXTRACT: note_on channel=0 note=59 velocity=95 time=0
EXTRACT: note_off channel=8 note=28 velocity=95 time=0
EXTRACT: note_on channel=8 note=30 velocity=95 time=0
EXTRACT: note_off channel=11 note=83 velocity=95 time=0
EXTRACT: note_off channel=11 note=80 velocity=95 time=0
EXTRACT: note_off channel=11 note=76 velocity=95 time=0
EXTRACT: note_off channel=11 note=71 velocity=95 time=0
EXTRACT: note_off channel=5 note=28 velocity=95 time=0
EXTRACT: note_on channel=5 note=30 velocity=95 time=0
EXTRACT: note_off channel=7 note=47 velocity=95 time=0
EXTRACT: note_off channel=7 note=40 velocity=95 time=0
EXTRACT: note_on channel=7 note=47 velocity=95 time=0
EXTRACT: note_on channel=7 note=40 velocity=95 time=0
EXTRACT: note_off channel=13 note=40 velocity=95 time=0
EXTRACT: note_on channel=13 note=42 velocity=95 time=0
EXTRACT: note_off channel=9 note=42 velocity=95 time=0
EXTRACT: note_off channel=9 note=36 velocity=95 time=0
EXTRACT: note_on channel=9 note=53 velocity=95 time=0
EXTRACT: note_off channel=0 note=59 velocity=95 time=0.2608695
EXTRACT: note_on channel=0 note=71 velocity=47 time=0
EXTRACT: note_on channel=0 note=64 velocity=63 time=0
EXTRACT: note_off channel=8 note=30 velocity=95 time=0
EXTRACT: note_on channel=8 note=32 velocity=95 time=0
EXTRACT: note_off channel=5 note=30 velocity=95 time=0
EXTRACT: note_on channel=5 note=32 velocity=95 time=0
EXTRACT: note_off channel=7 note=47 velocity=95 time=0
EXTRACT: note_off channel=7 note=40 velocity=95 time=0
EXTRACT: note_on channel=7 note=47 velocity=95 time=0
EXTRACT: note_on channel=7 note=40 velocity=95 time=0
EXTRACT: note_off channel=13 note=42 velocity=95 time=0
EXTRACT: note_on channel=13 note=44 velocity=95 time=0
EXTRACT: note_off channel=9 note=53 velocity=95 time=0
EXTRACT: note_on channel=9 note=42 velocity=95 time=0
EXTRACT: note_on channel=9 note=43 velocity=95 time=0
EXTRACT: note_off channel=0 note=71 velocity=47 time=0.2608695
EXTRACT: note_off channel=0 note=64 velocity=63 time=0
EXTRACT: note_on channel=0 note=59 velocity=95 time=0
EXTRACT: note_off channel=8 note=32 velocity=95 time=0
EXTRACT: note_on channel=8 note=35 velocity=95 time=0
EXTRACT: note_off channel=5 note=32 velocity=95 time=0
EXTRACT: note_on channel=5 note=35 velocity=95 time=0
EXTRACT: note_off channel=7 note=47 velocity=95 time=0
EXTRACT: note_off channel=7 note=40 velocity=95 time=0
EXTRACT: note_on channel=7 note=54 velocity=95 time=0
EXTRACT: note_on channel=7 note=47 velocity=95 time=0
EXTRACT: note_off channel=13 note=44 velocity=95 time=0
EXTRACT: note_on channel=14 note=47 velocity=95 time=0
EXTRACT: pitchwheel channel=14 pitch=0 time=0.08695649999999999
EXTRACT: pitchwheel channel=14 pitch=128 time=0.08695649999999999
EXTRACT: note_off channel=0 note=59 velocity=95 time=0.08695649999999999
EXTRACT: note_on channel=0 note=71 velocity=47 time=0
EXTRACT: note_on channel=0 note=66 velocity=47 time=0
EXTRACT: note_on channel=11 note=83 velocity=95 time=0
EXTRACT: note_on channel=12 note=81 velocity=95 time=0
EXTRACT: note_on channel=12 note=78 velocity=95 time=0
EXTRACT: note_on channel=12 note=73 velocity=95 time=0
EXTRACT: note_off channel=7 note=54 velocity=95 time=0
EXTRACT: note_off channel=7 note=47 velocity=95 time=0
EXTRACT: note_on channel=7 note=54 velocity=95 time=0
EXTRACT: note_on channel=7 note=47 velocity=95 time=0
EXTRACT: pitchwheel channel=14 pitch=0 time=0
EXTRACT: note_off channel=9 note=42 velocity=95 time=0
EXTRACT: note_off channel=9 note=43 velocity=95 time=0
EXTRACT: note_on channel=9 note=42 velocity=95 time=0
EXTRACT: note_on channel=9 note=36 velocity=95 time=0
EXTRACT: pitchwheel channel=12 pitch=0 time=0.065217375
EXTRACT: pitchwheel channel=12 pitch=-128 time=0
EXTRACT: pitchwheel channel=12 pitch=-128 time=0
EXTRACT: pitchwheel channel=14 pitch=128 time=0.021739124999999998
EXTRACT: pitchwheel channel=12 pitch=-128 time=0.043478249999999996
EXTRACT: pitchwheel channel=12 pitch=-256 time=0
EXTRACT: pitchwheel channel=12 pitch=-256 time=0
EXTRACT: pitchwheel channel=14 pitch=0 time=0.043478249999999996
EXTRACT: pitchwheel channel=12 pitch=-256 time=0.021739124999999998
EXTRACT: pitchwheel channel=12 pitch=-512 time=0
EXTRACT: pitchwheel channel=12 pitch=-512 time=0
EXTRACT: note_off channel=0 note=71 velocity=47 time=0.065217375
EXTRACT: note_off channel=0 note=66 velocity=47 time=0
EXTRACT: note_on channel=0 note=59 velocity=95 time=0
EXTRACT: pitchwheel channel=12 pitch=-256 time=0
EXTRACT: pitchwheel channel=12 pitch=-640 time=0
EXTRACT: pitchwheel channel=12 pitch=-640 time=0
EXTRACT: note_off channel=7 note=54 velocity=95 time=0
EXTRACT: note_off channel=7 note=47 velocity=95 time=0
EXTRACT: note_on channel=7 note=54 velocity=95 time=0
EXTRACT: note_on channel=7 note=47 velocity=95 time=0
EXTRACT: pitchwheel channel=14 pitch=128 time=0
EXTRACT: pitchwheel channel=12 pitch=-384 time=0.065217375
EXTRACT: pitchwheel channel=12 pitch=-768 time=0
EXTRACT: pitchwheel channel=12 pitch=-768 time=0
EXTRACT: pitchwheel channel=14 pitch=0 time=0.021739124999999998
EXTRACT: pitchwheel channel=12 pitch=-512 time=0.043478249999999996
EXTRACT: pitchwheel channel=12 pitch=-1024 time=0
EXTRACT: pitchwheel channel=12 pitch=-1024 time=0
EXTRACT: pitchwheel channel=14 pitch=128 time=0.043478249999999996
EXTRACT: pitchwheel channel=12 pitch=-512 time=0.021739124999999998
EXTRACT: pitchwheel channel=12 pitch=-1152 time=0
EXTRACT: pitchwheel channel=12 pitch=-1152 time=0
EXTRACT: note_off channel=0 note=59 velocity=95 time=0.065217375
EXTRACT: note_on channel=0 note=71 velocity=47 time=0
EXTRACT: note_on channel=0 note=66 velocity=47 time=0
EXTRACT: pitchwheel channel=12 pitch=-640 time=0
EXTRACT: pitchwheel channel=12 pitch=0 time=0
EXTRACT: note_off channel=12 note=81 velocity=95 time=0
EXTRACT: pitchwheel channel=12 pitch=-1408 time=0
EXTRACT: pitchwheel channel=12 pitch=0 time=0
EXTRACT: note_off channel=12 note=78 velocity=95 time=0
EXTRACT: pitchwheel channel=12 pitch=-1408 time=0
EXTRACT: pitchwheel channel=12 pitch=0 time=0
EXTRACT: note_off channel=12 note=73 velocity=95 time=0
EXTRACT: note_on channel=11 note=80 velocity=95 time=0
EXTRACT: note_on channel=11 note=76 velocity=95 time=0
EXTRACT: note_on channel=11 note=71 velocity=95 time=0
EXTRACT: note_off channel=7 note=54 velocity=95 time=0
EXTRACT: note_off channel=7 note=47 velocity=95 time=0
EXTRACT: note_on channel=7 note=56 velocity=95 time=0
EXTRACT: note_on channel=7 note=47 velocity=95 time=0
EXTRACT: pitchwheel channel=14 pitch=0 time=0
EXTRACT: note_off channel=9 note=42 velocity=95 time=0
EXTRACT: note_off channel=9 note=36 velocity=95 time=0
EXTRACT: note_on channel=9 note=46 velocity=63 time=0
EXTRACT: note_on channel=9 note=40 velocity=95 time=0
EXTRACT: pitchwheel channel=14 pitch=128 time=0.08695649999999999
EXTRACT: pitchwheel channel=14 pitch=0 time=0.08695649999999999
EXTRACT: note_off channel=0 note=71 velocity=47 time=0.08695649999999999
EXTRACT: note_off channel=0 note=66 velocity=47 time=0
EXTRACT: note_on channel=0 note=59 velocity=95 time=0
EXTRACT: note_off channel=11 note=83 velocity=95 time=0
EXTRACT: note_off channel=11 note=80 velocity=95 time=0
EXTRACT: note_off channel=11 note=76 velocity=95 time=0
EXTRACT: note_off channel=11 note=71 velocity=95 time=0
EXTRACT: note_on channel=11 note=83 velocity=95 time=0
EXTRACT: note_on channel=11 note=80 velocity=95 time=0
EXTRACT: note_on channel=11 note=76 velocity=95 time=0
EXTRACT: note_on channel=11 note=71 velocity=95 time=0
EXTRACT: note_off channel=7 note=56 velocity=95 time=0
EXTRACT: note_off channel=7 note=47 velocity=95 time=0
EXTRACT: note_on channel=7 note=54 velocity=95 time=0
EXTRACT: note_on channel=7 note=47 velocity=95 time=0
EXTRACT: pitchwheel channel=14 pitch=128 time=0
EXTRACT: pitchwheel channel=14 pitch=0 time=0.08695649999999999
EXTRACT: pitchwheel channel=14 pitch=128 time=0.08695649999999999
EXTRACT: note_off channel=0 note=59 velocity=95 time=0.08695649999999999
EXTRACT: note_on channel=0 note=71 velocity=63 time=0
EXTRACT: note_on channel=0 note=66 velocity=47 time=0
EXTRACT: note_off channel=11 note=83 velocity=95 time=0
EXTRACT: note_off channel=11 note=80 velocity=95 time=0
EXTRACT: note_off channel=11 note=76 velocity=95 time=0
EXTRACT: note_off channel=11 note=71 velocity=95 time=0
EXTRACT: note_on channel=11 note=80 velocity=95 time=0
EXTRACT: note_off channel=7 note=54 velocity=95 time=0
EXTRACT: note_off channel=7 note=47 velocity=95 time=0
EXTRACT: note_on channel=7 note=54 velocity=95 time=0
EXTRACT: note_on channel=7 note=47 velocity=95 time=0
EXTRACT: pitchwheel channel=14 pitch=0 time=0
EXTRACT: note_off channel=9 note=46 velocity=63 time=0
EXTRACT: note_off channel=9 note=40 velocity=95 time=0
EXTRACT: note_on channel=9 note=42 velocity=95 time=0
EXTRACT: note_on channel=9 note=36 velocity=95 time=0
EXTRACT: pitchwheel channel=14 pitch=128 time=0.08695649999999999
EXTRACT: pitchwheel channel=14 pitch=0 time=0.08695649999999999
EXTRACT: note_off channel=0 note=71 velocity=63 time=0.08695649999999999
EXTRACT: note_off channel=0 note=66 velocity=47 time=0
EXTRACT: note_on channel=0 note=59 velocity=95 time=0
EXTRACT: note_off channel=8 note=35 velocity=95 time=0
EXTRACT: note_on channel=8 note=37 velocity=95 time=0
EXTRACT: note_off channel=5 note=35 velocity=95 time=0
EXTRACT: note_on channel=5 note=37 velocity=95 time=0
EXTRACT: note_off channel=7 note=54 velocity=95 time=0
EXTRACT: note_off channel=7 note=47 velocity=95 time=0
EXTRACT: note_on channel=7 note=54 velocity=95 time=0
EXTRACT: note_on channel=7 note=47 velocity=95 time=0
EXTRACT: pitchwheel channel=14 pitch=128 time=0
EXTRACT: pitchwheel channel=14 pitch=0 time=0
EXTRACT: note_off channel=14 note=47 velocity=95 time=0
EXTRACT: note_on channel=13 note=49 velocity=95 time=0
EXTRACT: note_off channel=9 note=42 velocity=95 time=0
EXTRACT: note_off channel=9 note=36 velocity=95 time=0
EXTRACT: note_on channel=9 note=53 velocity=95 time=0
EXTRACT: note_on channel=9 note=45 velocity=95 time=0
EXTRACT: note_off channel=11 note=80 velocity=95 time=0.08695649999999999
EXTRACT: note_on channel=11 note=78 velocity=95 time=0
EXTRACT: note_off channel=0 note=59 velocity=95 time=0.17391299999999998
EXTRACT: note_on channel=0 note=71 velocity=47 time=0
EXTRACT: note_on channel=0 note=66 velocity=47 time=0
EXTRACT: note_off channel=8 note=37 velocity=95 time=0
EXTRACT: note_on channel=8 note=39 velocity=95 time=0
EXTRACT: note_off channel=5 note=37 velocity=95 time=0
EXTRACT: note_on channel=5 note=39 velocity=95 time=0
EXTRACT: note_off channel=7 note=54 velocity=95 time=0
EXTRACT: note_off channel=7 note=47 velocity=95 time=0
EXTRACT: note_on channel=7 note=54 velocity=95 time=0
EXTRACT: note_on channel=7 note=47 velocity=95 time=0
EXTRACT: note_off channel=13 note=49 velocity=95 time=0
EXTRACT: note_on channel=13 note=51 velocity=95 time=0
EXTRACT: note_off channel=9 note=53 velocity=95 time=0
EXTRACT: note_off channel=9 note=45 velocity=95 time=0
EXTRACT: note_on channel=9 note=42 velocity=95 time=0
EXTRACT: note_on channel=9 note=36 velocity=95 time=0
EXTRACT: note_off channel=11 note=78 velocity=95 time=0.17391299999999998
EXTRACT: note_on channel=11 note=76 velocity=95 time=0
EXTRACT: note_off channel=0 note=71 velocity=47 time=0.08695649999999999
EXTRACT: note_off channel=0 note=66 velocity=47 time=0
EXTRACT: note_on channel=0 note=59 velocity=95 time=0
EXTRACT: note_off channel=8 note=39 velocity=95 time=0
EXTRACT: note_on channel=8 note=32 velocity=95 time=0
EXTRACT: note_off channel=5 note=39 velocity=95 time=0
EXTRACT: note_on channel=5 note=32 velocity=95 time=0
EXTRACT: note_off channel=7 note=54 velocity=95 time=0
EXTRACT: note_off channel=7 note=47 velocity=95 time=0
EXTRACT: note_on channel=7 note=61 velocity=95 time=0
EXTRACT: note_on channel=7 note=56 velocity=95 time=0
EXTRACT: note_on channel=7 note=49 velocity=95 time=0
EXTRACT: note_off channel=13 note=51 velocity=95 time=0
EXTRACT: note_on channel=13 note=51 velocity=95 time=0
EXTRACT: note_on channel=13 note=44 velocity=95 time=0
EXTRACT: note_off channel=9 note=42 velocity=95 time=0
EXTRACT: note_off channel=9 note=36 velocity=95 time=0
EXTRACT: note_on channel=9 note=43 velocity=95 time=0
EXTRACT: note_off channel=0 note=59 velocity=95 time=0.2608695
EXTRACT: note_on channel=0 note=71 velocity=63 time=0
EXTRACT: note_on channel=0 note=63 velocity=47 time=0
EXTRACT: note_off channel=11 note=76 velocity=95 time=0
EXTRACT: note_on channel=12 note=83 velocity=95 time=0
EXTRACT: note_off channel=7 note=61 velocity=95 time=0
EXTRACT: note_off channel=7 note=56 velocity=95 time=0
EXTRACT: note_off channel=7 note=49 velocity=95 time=0
EXTRACT: note_on channel=7 note=56 velocity=95 time=0
EXTRACT: note_on channel=7 note=49 velocity=95 time=0
EXTRACT: note_off channel=9 note=43 velocity=95 time=0
EXTRACT: note_on channel=9 note=49 velocity=95 time=0
EXTRACT: note_on channel=9 note=57 velocity=95 time=0
EXTRACT: note_on channel=9 note=36 velocity=95 time=0
EXTRACT: pitchwheel channel=12 pitch=0 time=0.08695649999999999
EXTRACT: pitchwheel channel=12 pitch=128 time=0.08695649999999999
EXTRACT: note_off channel=0 note=71 velocity=63 time=0.08695649999999999
EXTRACT: note_off channel=0 note=63 velocity=47 time=0
EXTRACT: note_on channel=0 note=59 velocity=47 time=0
EXTRACT: pitchwheel channel=12 pitch=0 time=0
EXTRACT: note_off channel=7 note=56 velocity=95 time=0
EXTRACT: note_off channel=7 note=49 velocity=95 time=0
EXTRACT: note_on channel=7 note=56 velocity=95 time=0
EXTRACT: note_on channel=7 note=49 velocity=95 time=0
EXTRACT: pitchwheel channel=12 pitch=128 time=0.08695649999999999
EXTRACT: pitchwheel channel=12 pitch=0 time=0.08695649999999999
EXTRACT: note_off channel=0 note=59 velocity=47 time=0.08695649999999999
EXTRACT: note_on channel=0 note=71 velocity=63 time=0
EXTRACT: note_on channel=0 note=63 velocity=63 time=0
EXTRACT: pitchwheel channel=12 pitch=128 time=0
EXTRACT: note_off channel=7 note=56 velocity=95 time=0
EXTRACT: note_off channel=7 note=49 velocity=95 time=0
EXTRACT: note_on channel=7 note=56 velocity=95 time=0
EXTRACT: note_on channel=7 note=49 velocity=95 time=0
EXTRACT: note_off channel=9 note=49 velocity=95 time=0
EXTRACT: note_off channel=9 note=57 velocity=95 time=0
EXTRACT: note_off channel=9 note=36 velocity=95 time=0
EXTRACT: note_on channel=9 note=46 velocity=63 time=0
EXTRACT: note_on channel=9 note=40 velocity=95 time=0
EXTRACT: pitchwheel channel=12 pitch=0 time=0.08695649999999999
EXTRACT: pitchwheel channel=12 pitch=128 time=0.08695649999999999
EXTRACT: note_off channel=0 note=71 velocity=63 time=0.08695649999999999
EXTRACT: note_off channel=0 note=63 velocity=63 time=0
EXTRACT: note_on channel=0 note=59 velocity=47 time=0
EXTRACT: pitchwheel channel=12 pitch=0 time=0
EXTRACT: note_off channel=7 note=56 velocity=95 time=0
EXTRACT: note_off channel=7 note=49 velocity=95 time=0
EXTRACT: note_on channel=7 note=56 velocity=95 time=0
EXTRACT: note_on channel=7 note=49 velocity=95 time=0
EXTRACT: pitchwheel channel=12 pitch=128 time=0.08695649999999999
EXTRACT: pitchwheel channel=12 pitch=0 time=0.08695649999999999
EXTRACT: note_off channel=0 note=59 velocity=47 time=0.08695649999999999
EXTRACT: note_on channel=0 note=71 velocity=63 time=0
EXTRACT: note_on channel=0 note=63 velocity=63 time=0
EXTRACT: pitchwheel channel=12 pitch=128 time=0
EXTRACT: note_off channel=7 note=56 velocity=95 time=0
EXTRACT: note_off channel=7 note=49 velocity=95 time=0
EXTRACT: note_on channel=7 note=56 velocity=95 time=0
EXTRACT: note_on channel=7 note=49 velocity=95 time=0
EXTRACT: note_off channel=9 note=46 velocity=63 time=0
EXTRACT: note_off channel=9 note=40 velocity=95 time=0
EXTRACT: note_on channel=9 note=42 velocity=95 time=0
EXTRACT: note_on channel=9 note=36 velocity=95 time=0
EXTRACT: pitchwheel channel=12 pitch=0 time=0.08695649999999999
EXTRACT: pitchwheel channel=12 pitch=128 time=0.08695649999999999
EXTRACT: note_off channel=0 note=71 velocity=63 time=0.08695649999999999
EXTRACT: note_off channel=0 note=63 velocity=63 time=0
EXTRACT: note_on channel=0 note=59 velocity=47 time=0
EXTRACT: pitchwheel channel=12 pitch=0 time=0
EXTRACT: note_off channel=7 note=56 velocity=95 time=0
EXTRACT: note_off channel=7 note=49 velocity=95 time=0
EXTRACT: note_on channel=7 note=56 velocity=95 time=0
EXTRACT: note_on channel=7 note=49 velocity=95 time=0
EXTRACT: note_off channel=9 note=42 velocity=95 time=0
EXTRACT: note_off channel=9 note=36 velocity=95 time=0
EXTRACT: note_on channel=9 note=53 velocity=95 time=0
EXTRACT: pitchwheel channel=12 pitch=128 time=0.08695649999999999
EXTRACT: pitchwheel channel=12 pitch=0 time=0.08695649999999999
EXTRACT: note_off channel=0 note=59 velocity=47 time=0.08695649999999999
EXTRACT: note_on channel=0 note=71 velocity=63 time=0
EXTRACT: note_on channel=0 note=63 velocity=47 time=0
EXTRACT: note_off channel=8 note=32 velocity=95 time=0
EXTRACT: note_on channel=8 note=32 velocity=95 time=0
EXTRACT: pitchwheel channel=12 pitch=128 time=0
EXTRACT: note_off channel=5 note=32 velocity=95 time=0
EXTRACT: note_on channel=5 note=32 velocity=95 time=0
EXTRACT: note_off channel=7 note=56 velocity=95 time=0
EXTRACT: note_off channel=7 note=49 velocity=95 time=0
EXTRACT: note_on channel=7 note=56 velocity=95 time=0
EXTRACT: note_on channel=7 note=49 velocity=95 time=0
EXTRACT: note_off channel=13 note=51 velocity=95 time=0
EXTRACT: note_off channel=13 note=44 velocity=95 time=0
EXTRACT: note_on channel=13 note=51 velocity=95 time=0
EXTRACT: note_on channel=13 note=44 velocity=95 time=0
EXTRACT: note_off channel=9 note=53 velocity=95 time=0
EXTRACT: note_on channel=9 note=42 velocity=95 time=0
EXTRACT: note_on channel=9 note=43 velocity=95 time=0
EXTRACT: pitchwheel channel=12 pitch=0 time=0.08695649999999999
EXTRACT: pitchwheel channel=12 pitch=128 time=0.08695649999999999
EXTRACT: note_off channel=0 note=71 velocity=63 time=0.08695649999999999
EXTRACT: note_off channel=0 note=63 velocity=47 time=0
EXTRACT: note_on channel=0 note=59 velocity=47 time=0
EXTRACT: note_off channel=8 note=32 velocity=95 time=0
EXTRACT: note_on channel=8 note=33 velocity=95 time=0
EXTRACT: pitchwheel channel=12 pitch=0 time=0
EXTRACT: note_off channel=5 note=32 velocity=95 time=0
EXTRACT: note_on channel=5 note=33 velocity=95 time=0
EXTRACT: note_off channel=7 note=56 velocity=95 time=0
EXTRACT: note_off channel=7 note=49 velocity=95 time=0
EXTRACT: note_on channel=7 note=57 velocity=95 time=0
EXTRACT: note_on channel=7 note=52 velocity=95 time=0
EXTRACT: note_on channel=7 note=45 velocity=95 time=0
EXTRACT: note_off channel=13 note=51 velocity=95 time=0
EXTRACT: note_off channel=13 note=44 velocity=95 time=0
EXTRACT: note_on channel=14 note=52 velocity=95 time=0
EXTRACT: note_on channel=13 note=45 velocity=95 time=0
EXTRACT: pitchwheel channel=12 pitch=128 time=0.08695649999999999
EXTRACT: pitchwheel channel=14 pitch=0 time=0
EXTRACT: pitchwheel channel=12 pitch=0 time=0.08695649999999999
EXTRACT: pitchwheel channel=14 pitch=128 time=0
EXTRACT: note_off channel=0 note=59 velocity=47 time=0.08695649999999999
EXTRACT: note_on channel=0 note=69 velocity=47 time=0
EXTRACT: note_on channel=0 note=61 velocity=47 time=0
EXTRACT: pitchwheel channel=12 pitch=128 time=0
EXTRACT: note_off channel=7 note=57 velocity=95 time=0
EXTRACT: note_off channel=7 note=52 velocity=95 time=0
EXTRACT: note_off channel=7 note=45 velocity=95 time=0
EXTRACT: note_on channel=7 note=52 velocity=95 time=0
EXTRACT: note_on channel=7 note=45 velocity=95 time=0
EXTRACT: pitchwheel channel=14 pitch=0 time=0
EXTRACT: note_off channel=9 note=42 velocity=95 time=0
EXTRACT: note_off channel=9 note=43 velocity=95 time=0
EXTRACT: note_on channel=9 note=42 velocity=95 time=0
EXTRACT: note_on channel=9 note=36 velocity=95 time=0
EXTRACT: pitchwheel channel=12 pitch=0 time=0.08695649999999999
EXTRACT: pitchwheel channel=14 pitch=128 time=0
EXTRACT: pitchwheel channel=12 pitch=128 time=0.08695649999999999
EXTRACT: pitchwheel channel=14 pitch=0 time=0
EXTRACT: note_off channel=0 note=69 velocity=47 time=0.08695649999999999
EXTRACT: note_off channel=0 note=61 velocity=47 time=0
EXTRACT: note_on channel=0 note=57 velocity=47 time=0
EXTRACT: pitchwheel channel=12 pitch=0 time=0
EXTRACT: note_off channel=7 note=52 velocity=95 time=0
EXTRACT: note_off channel=7 note=45 velocity=95 time=0
EXTRACT: note_on channel=7 note=52 velocity=95 time=0
EXTRACT: note_on channel=7 note=45 velocity=95 time=0
EXTRACT: pitchwheel channel=14 pitch=128 time=0
EXTRACT: pitchwheel channel=12 pitch=128 time=0.08695649999999999
EXTRACT: pitchwheel channel=14 pitch=0 time=0
EXTRACT: pitchwheel channel=12 pitch=0 time=0.08695649999999999
EXTRACT: pitchwheel channel=14 pitch=128 time=0
EXTRACT: note_off channel=0 note=57 velocity=47 time=0.08695649999999999
EXTRACT: note_on channel=0 note=69 velocity=63 time=0
EXTRACT: note_on channel=0 note=61 velocity=63 time=0
EXTRACT: pitchwheel channel=12 pitch=128 time=0
EXTRACT: note_off channel=7 note=52 velocity=95 time=0
EXTRACT: note_off channel=7 note=45 velocity=95 time=0
EXTRACT: note_on channel=7 note=54 velocity=95 time=0
EXTRACT: note_on channel=7 note=45 velocity=95 time=0
EXTRACT: pitchwheel channel=14 pitch=0 time=0
EXTRACT: note_off channel=9 note=42 velocity=95 time=0
EXTRACT: note_off channel=9 note=36 velocity=95 time=0
EXTRACT: note_on channel=9 note=46 velocity=63 time=0
EXTRACT: note_on channel=9 note=40 velocity=95 time=0
EXTRACT: pitchwheel channel=12 pitch=0 time=0.08695649999999999
EXTRACT: pitchwheel channel=14 pitch=128 time=0
EXTRACT: pitchwheel channel=12 pitch=128 time=0.08695649999999999
EXTRACT: pitchwheel channel=14 pitch=0 time=0
EXTRACT: note_off channel=0 note=69 velocity=63 time=0.08695649999999999
EXTRACT: note_off channel=0 note=61 velocity=63 time=0
EXTRACT: note_on channel=0 note=57 velocity=47 time=0
EXTRACT: pitchwheel channel=12 pitch=0 time=0
EXTRACT: note_off channel=7 note=54 velocity=95 time=0
EXTRACT: note_off channel=7 note=45 velocity=95 time=0
EXTRACT: note_on channel=7 note=52 velocity=95 time=0
EXTRACT: note_on channel=7 note=45 velocity=95 time=0
EXTRACT: pitchwheel channel=14 pitch=128 time=0
EXTRACT: pitchwheel channel=12 pitch=128 time=0.08695649999999999
EXTRACT: pitchwheel channel=14 pitch=0 time=0
EXTRACT: pitchwheel channel=12 pitch=0 time=0.08695649999999999
EXTRACT: pitchwheel channel=14 pitch=128 time=0
EXTRACT: note_off channel=0 note=57 velocity=47 time=0.08695649999999999
EXTRACT: note_on channel=0 note=69 velocity=63 time=0
EXTRACT: note_on channel=0 note=61 velocity=47 time=0
EXTRACT: pitchwheel channel=12 pitch=128 time=0
EXTRACT: note_off channel=7 note=52 velocity=95 time=0
EXTRACT: note_off channel=7 note=45 velocity=95 time=0
EXTRACT: note_on channel=7 note=52 velocity=95 time=0
EXTRACT: note_on channel=7 note=45 velocity=95 time=0
EXTRACT: pitchwheel channel=14 pitch=0 time=0
EXTRACT: note_off channel=9 note=46 velocity=63 time=0
EXTRACT: note_off channel=9 note=40 velocity=95 time=0
EXTRACT: note_on channel=9 note=42 velocity=95 time=0
EXTRACT: note_on channel=9 note=36 velocity=95 time=0
EXTRACT: pitchwheel channel=12 pitch=0 time=0.08695649999999999
EXTRACT: pitchwheel channel=14 pitch=128 time=0
EXTRACT: pitchwheel channel=12 pitch=128 time=0.08695649999999999
EXTRACT: pitchwheel channel=14 pitch=0 time=0
EXTRACT: note_off channel=0 note=69 velocity=63 time=0.08695649999999999
EXTRACT: note_off channel=0 note=61 velocity=47 time=0
EXTRACT: note_on channel=0 note=57 velocity=63 time=0
EXTRACT: note_off channel=8 note=33 velocity=95 time=0
EXTRACT: note_on channel=8 note=39 velocity=95 time=0
EXTRACT: pitchwheel channel=12 pitch=0 time=0
EXTRACT: note_off channel=5 note=33 velocity=95 time=0
EXTRACT: note_on channel=5 note=39 velocity=95 time=0
EXTRACT: note_off channel=7 note=52 velocity=95 time=0
EXTRACT: note_off channel=7 note=45 velocity=95 time=0
EXTRACT: note_on channel=7 note=52 velocity=95 time=0
EXTRACT: note_on channel=7 note=45 velocity=95 time=0
EXTRACT: pitchwheel channel=14 pitch=128 time=0
EXTRACT: pitchwheel channel=14 pitch=0 time=0
EXTRACT: note_off channel=14 note=52 velocity=95 time=0
EXTRACT: note_off channel=13 note=45 velocity=95 time=0
EXTRACT: note_on channel=13 note=51 velocity=95 time=0
EXTRACT: note_off channel=9 note=42 velocity=95 time=0
EXTRACT: note_off channel=9 note=36 velocity=95 time=0
EXTRACT: note_on channel=9 note=53 velocity=95 time=0
EXTRACT: note_on channel=9 note=45 velocity=95 time=0
EXTRACT: pitchwheel channel=12 pitch=128 time=0.08695649999999999
EXTRACT: pitchwheel channel=12 pitch=0 time=0.08695649999999999
EXTRACT: note_off channel=0 note=57 velocity=63 time=0.08695649999999999
EXTRACT: note_on channel=0 note=69 velocity=63 time=0
EXTRACT: note_on channel=0 note=61 velocity=47 time=0
EXTRACT: note_off channel=8 note=39 velocity=95 time=0
EXTRACT: note_on channel=8 note=40 velocity=95 time=0
EXTRACT: pitchwheel channel=12 pitch=128 time=0
EXTRACT: note_off channel=5 note=39 velocity=95 time=0
EXTRACT: note_on channel=5 note=40 velocity=95 time=0
EXTRACT: note_off channel=7 note=52 velocity=95 time=0
EXTRACT: note_off channel=7 note=45 velocity=95 time=0
EXTRACT: note_on channel=7 note=52 velocity=95 time=0
EXTRACT: note_on channel=7 note=45 velocity=95 time=0
EXTRACT: note_off channel=13 note=51 velocity=95 time=0
EXTRACT: note_on channel=13 note=52 velocity=95 time=0
EXTRACT: note_off channel=9 note=53 velocity=95 time=0
EXTRACT: note_off channel=9 note=45 velocity=95 time=0
EXTRACT: note_on channel=9 note=42 velocity=95 time=0
EXTRACT: note_on channel=9 note=36 velocity=95 time=0
EXTRACT: pitchwheel channel=12 pitch=0 time=0.08695649999999999
EXTRACT: pitchwheel channel=12 pitch=128 time=0.08695649999999999
EXTRACT: note_off channel=0 note=69 velocity=63 time=0.08695649999999999
EXTRACT: note_off channel=0 note=61 velocity=47 time=0
EXTRACT: note_on channel=0 note=57 velocity=47 time=0
EXTRACT: pitchwheel channel=12 pitch=0 time=0
EXTRACT: note_off channel=7 note=52 velocity=95 time=0
EXTRACT: note_off channel=7 note=45 velocity=95 time=0
EXTRACT: note_on channel=7 note=64 velocity=95 time=0
EXTRACT: note_on channel=7 note=59 velocity=95 time=0
EXTRACT: note_on channel=7 note=52 velocity=95 time=0
EXTRACT: note_off channel=13 note=52 velocity=95 time=0
EXTRACT: note_on channel=13 note=40 velocity=95 time=0
EXTRACT: note_off channel=9 note=42 velocity=95 time=0
EXTRACT: note_off channel=9 note=36 velocity=95 time=0
EXTRACT: note_on channel=9 note=43 velocity=95 time=0
EXTRACT: pitchwheel channel=12 pitch=128 time=0.08695649999999999
EXTRACT: pitchwheel channel=12 pitch=0 time=0.08695649999999999
EXTRACT: note_off channel=0 note=57 velocity=47 time=0.08695649999999999
EXTRACT: note_off channel=8 note=40 velocity=95 time=0
EXTRACT: pitchwheel channel=12 pitch=128 time=0
EXTRACT: pitchwheel channel=12 pitch=0 time=0
EXTRACT: note_off channel=12 note=83 velocity=95 time=0
EXTRACT: note_off channel=5 note=40 velocity=95 time=0
EXTRACT: note_off channel=7 note=64 velocity=95 time=0
EXTRACT: note_off channel=7 note=59 velocity=95 time=0
EXTRACT: note_off channel=7 note=52 velocity=95 time=0
EXTRACT: note_off channel=13 note=40 velocity=95 time=0
EXTRACT: note_off channel=9 note=43 velocity=95 time=0
INTERVALS003 - Journey_-_Don__t_Stop_Believin__.mid
unison106 0 0 182 20 302 0 238 136 2 29 0