EXTRACT: control_change channel=0 control=101 value=0 time=0
EXTRACT: control_change channel=0 control=100 value=0 time=0
EXTRACT: control_change channel=0 control=6 value=12 time=0
EXTRACT: control_change channel=0 control=38 value=0 time=0
EXTRACT: control_change channel=1 control=101 value=0 time=0
EXTRACT: control_change channel=1 control=100 value=0 time=0
EXTRACT: control_change channel=1 control=6 value=12 time=0
EXTRACT: control_change channel=1 control=38 value=0 time=0
EXTRACT: control_change channel=2 control=101 value=0 time=0
EXTRACT: control_change channel=2 control=100 value=0 time=0
EXTRACT: control_change channel=2 control=6 value=12 time=0
EXTRACT: control_change channel=2 control=38 value=0 time=0
EXTRACT: control_change channel=3 control=101 value=0 time=0
EXTRACT: control_change channel=3 control=100 value=0 time=0
EXTRACT: control_change channel=3 control=6 value=12 time=0
EXTRACT: control_change channel=3 control=38 value=0 time=0
EXTRACT: control_change channel=4 control=101 value=0 time=0
EXTRACT: control_change channel=4 control=100 value=0 time=0
EXTRACT: control_change channel=4 control=6 value=12 time=0
EXTRACT: control_change channel=4 control=38 value=0 time=0
EXTRACT: control_change channel=5 control=101 value=0 time=0
EXTRACT: control_change channel=5 control=100 value=0 time=0
EXTRACT: control_change channel=5 control=6 value=12 time=0
EXTRACT: control_change channel=5 control=38 value=0 time=0
EXTRACT: control_change channel=6 control=101 value=0 time=0
EXTRACT: control_change channel=6 control=100 value=0 time=0
EXTRACT: control_change channel=6 control=6 value=12 time=0
EXTRACT: control_change channel=6 control=38 value=0 time=0
EXTRACT: control_change channel=7 control=101 value=0 time=0
EXTRACT: control_change channel=7 control=100 value=0 time=0
EXTRACT: control_change channel=7 control=6 value=12 time=0
EXTRACT: control_change channel=7 control=38 value=0 time=0
EXTRACT: control_change channel=8 control=101 value=0 time=0
EXTRACT: control_change channel=8 control=100 value=0 time=0
EXTRACT: control_change channel=8 control=6 value=12 time=0
EXTRACT: control_change channel=8 control=38 value=0 time=0
EXTRACT: control_change channel=9 control=101 value=0 time=0
EXTRACT: control_change channel=9 control=100 value=0 time=0
EXTRACT: control_change channel=9 control=6 value=12 time=0
EXTRACT: control_change channel=9 control=38 value=0 time=0
EXTRACT: control_change channel=10 control=101 value=0 time=0
EXTRACT: control_change channel=10 control=100 value=0 time=0
EXTRACT: control_change channel=10 control=6 value=12 time=0
EXTRACT: control_change channel=10 control=38 value=0 time=0
EXTRACT: control_change channel=11 control=101 value=0 time=0
EXTRACT: control_change channel=11 control=100 value=0 time=0
EXTRACT: control_change channel=11 control=6 value=12 time=0
EXTRACT: control_change channel=11 control=38 value=0 time=0
EXTRACT: control_change channel=12 control=101 value=0 time=0
EXTRACT: control_change channel=12 control=100 value=0 time=0
EXTRACT: control_change channel=12 control=6 value=12 time=0
EXTRACT: control_change channel=12 control=38 value=0 time=0
EXTRACT: control_change channel=13 control=101 value=0 time=0
EXTRACT: control_change channel=13 control=100 value=0 time=0
EXTRACT: control_change channel=13 control=6 value=12 time=0
EXTRACT: control_change channel=13 control=38 value=0 time=0
EXTRACT: control_change channel=14 control=101 value=0 time=0
EXTRACT: control_change channel=14 control=100 value=0 time=0
EXTRACT: control_change channel=14 control=6 value=12 time=0
EXTRACT: control_change channel=14 control=38 value=0 time=0
EXTRACT: control_change channel=15 control=101 value=0 time=0
EXTRACT: control_change channel=15 control=100 value=0 time=0
EXTRACT: control_change channel=15 control=6 value=12 time=0
EXTRACT: control_change channel=15 control=38 value=0 time=0
EXTRACT: pitchwheel channel=0 pitch=0 time=0
EXTRACT: control_change channel=0 control=7 value=127 time=0
EXTRACT: control_change channel=0 control=10 value=63 time=0
EXTRACT: control_change channel=0 control=93 value=0 time=0
EXTRACT: control_change channel=0 control=91 value=0 time=0
EXTRACT: control_change channel=0 control=95 value=0 time=0
EXTRACT: control_change channel=0 control=92 value=0 time=0
EXTRACT: control_change channel=0 control=11 value=127 time=0
EXTRACT: program_change channel=0 program=29 time=0
EXTRACT: control_change channel=1 control=7 value=127 time=0
EXTRACT: control_change channel=1 control=10 value=63 time=0
EXTRACT: control_change channel=1 control=93 value=0 time=0
EXTRACT: control_change channel=1 control=91 value=0 time=0
EXTRACT: control_change channel=1 control=95 value=0 time=0
EXTRACT: control_change channel=1 control=92 value=0 time=0
EXTRACT: control_change channel=1 control=11 value=127 time=0
EXTRACT: program_change channel=1 program=29 time=0
EXTRACT: pitchwheel channel=2 pitch=0 time=0
EXTRACT: control_change channel=2 control=7 value=127 time=0
EXTRACT: control_change channel=2 control=10 value=63 time=0
EXTRACT: control_change channel=2 control=93 value=0 time=0
EXTRACT: control_change channel=2 control=91 value=0 time=0
EXTRACT: control_change channel=2 control=95 value=0 time=0
EXTRACT: control_change channel=2 control=92 value=0 time=0
EXTRACT: control_change channel=2 control=11 value=127 time=0
EXTRACT: program_change channel=2 program=30 time=0
EXTRACT: control_change channel=3 control=7 value=127 time=0
EXTRACT: control_change channel=3 control=10 value=63 time=0
EXTRACT: control_change channel=3 control=93 value=0 time=0
EXTRACT: control_change channel=3 control=91 value=0 time=0
EXTRACT: control_change channel=3 control=95 value=0 time=0
EXTRACT: control_change channel=3 control=92 value=0 time=0
EXTRACT: control_change channel=3 control=11 value=127 time=0
EXTRACT: program_change channel=3 program=30 time=0
EXTRACT: pitchwheel channel=4 pitch=0 time=0
EXTRACT: control_change channel=4 control=7 value=127 time=0
EXTRACT: control_change channel=4 control=10 value=63 time=0
EXTRACT: control_change channel=4 control=93 value=0 time=0
EXTRACT: control_change channel=4 control=91 value=0 time=0
EXTRACT: control_change channel=4 control=95 value=0 time=0
EXTRACT: control_change channel=4 control=92 value=0 time=0
EXTRACT: control_change channel=4 control=11 value=127 time=0
EXTRACT: program_change channel=4 program=1 time=0
EXTRACT: control_change channel=5 control=7 value=127 time=0
EXTRACT: control_change channel=5 control=10 value=63 time=0
EXTRACT: control_change channel=5 control=93 value=0 time=0
EXTRACT: control_change channel=5 control=91 value=0 time=0
EXTRACT: control_change channel=5 control=95 value=0 time=0
EXTRACT: control_change channel=5 control=92 value=0 time=0
EXTRACT: control_change channel=5 control=11 value=127 time=0
EXTRACT: program_change channel=5 program=1 time=0
EXTRACT: pitchwheel channel=6 pitch=0 time=0
EXTRACT: control_change channel=6 control=7 value=127 time=0
EXTRACT: control_change channel=6 control=10 value=63 time=0
EXTRACT: control_change channel=6 control=93 value=0 time=0
EXTRACT: control_change channel=6 control=91 value=0 time=0
EXTRACT: control_change channel=6 control=95 value=0 time=0
EXTRACT: control_change channel=6 control=92 value=0 time=0
EXTRACT: control_change channel=6 control=11 value=127 time=0
EXTRACT: program_change channel=6 program=29 time=0
EXTRACT: control_change channel=7 control=7 value=127 time=0
EXTRACT: control_change channel=7 control=10 value=63 time=0
EXTRACT: control_change channel=7 control=93 value=0 time=0
EXTRACT: control_change channel=7 control=91 value=0 time=0
EXTRACT: control_change channel=7 control=95 value=0 time=0
EXTRACT: control_change channel=7 control=92 value=0 time=0
EXTRACT: control_change channel=7 control=11 value=127 time=0
EXTRACT: program_change channel=7 program=29 time=0
EXTRACT: pitchwheel channel=10 pitch=0 time=0
EXTRACT: control_change channel=10 control=7 value=127 time=0
EXTRACT: control_change channel=10 control=10 value=63 time=0
EXTRACT: control_change channel=10 control=93 value=0 time=0
EXTRACT: control_change channel=10 control=91 value=0 time=0
EXTRACT: control_change channel=10 control=95 value=0 time=0
EXTRACT: control_change channel=10 control=92 value=0 time=0
EXTRACT: control_change channel=10 control=11 value=127 time=0
EXTRACT: program_change channel=10 program=29 time=0
EXTRACT: control_change channel=11 control=7 value=127 time=0
EXTRACT: control_change channel=11 control=10 value=63 time=0
EXTRACT: control_change channel=11 control=93 value=0 time=0
EXTRACT: control_change channel=11 control=91 value=0 time=0
EXTRACT: control_change channel=11 control=95 value=0 time=0
EXTRACT: control_change channel=11 control=92 value=0 time=0
EXTRACT: control_change channel=11 control=11 value=127 time=0
EXTRACT: program_change channel=11 program=29 time=0
EXTRACT: note_on channel=4 note=58 velocity=95 time=13.333328
EXTRACT: note_on channel=4 note=55 velocity=95 time=0
EXTRACT: note_on channel=4 note=50 velocity=95 time=0
EXTRACT: note_on channel=4 note=43 velocity=95 time=0
EXTRACT: note_off channel=4 note=58 velocity=95 time=0.4166665
EXTRACT: note_off channel=4 note=55 velocity=95 time=0
EXTRACT: note_off channel=4 note=50 velocity=95 time=0
EXTRACT: note_off channel=4 note=43 velocity=95 time=0
EXTRACT: note_on channel=4 note=55 velocity=95 time=0
EXTRACT: note_off channel=4 note=55 velocity=95 time=0.4166665
EXTRACT: note_on channel=4 note=58 velocity=95 time=0
EXTRACT: note_off channel=4 note=58 velocity=95 time=0.4166665
EXTRACT: note_on channel=4 note=62 velocity=95 time=0
EXTRACT: note_off channel=4 note=62 velocity=95 time=0.4166665
EXTRACT: note_on channel=4 note=67 velocity=95 time=0
EXTRACT: note_off channel=4 note=67 velocity=95 time=0.4166665
EXTRACT: note_on channel=4 note=62 velocity=95 time=0
EXTRACT: note_off channel=4 note=62 velocity=95 time=0.4166665
EXTRACT: note_on channel=4 note=58 velocity=95 time=0
EXTRACT: note_off channel=4 note=58 velocity=95 time=0.4166665
EXTRACT: note_on channel=4 note=55 velocity=95 time=0
EXTRACT: note_off channel=4 note=55 velocity=95 time=0.4166665
EXTRACT: note_on channel=4 note=65 velocity=95 time=0
EXTRACT: note_on channel=4 note=62 velocity=95 time=0
EXTRACT: note_on channel=4 note=58 velocity=95 time=0
EXTRACT: note_on channel=4 note=53 velocity=95 time=0
EXTRACT: note_on channel=4 note=46 velocity=95 time=0
EXTRACT: note_off channel=4 note=65 velocity=95 time=3.333332
EXTRACT: note_off channel=4 note=62 velocity=95 time=0
EXTRACT: note_off channel=4 note=58 velocity=95 time=0
EXTRACT: note_off channel=4 note=53 velocity=95 time=0
EXTRACT: note_off channel=4 note=46 velocity=95 time=0
EXTRACT: note_on channel=4 note=67 velocity=95 time=0
EXTRACT: note_on channel=4 note=63 velocity=95 time=0
EXTRACT: note_on channel=4 note=58 velocity=95 time=0
EXTRACT: note_on channel=4 note=51 velocity=95 time=0
EXTRACT: note_off channel=4 note=67 velocity=95 time=0.4166665
EXTRACT: note_off channel=4 note=63 velocity=95 time=0
EXTRACT: note_off channel=4 note=58 velocity=95 time=0
EXTRACT: note_off channel=4 note=51 velocity=95 time=0
EXTRACT: note_on channel=4 note=63 velocity=95 time=0
EXTRACT: note_off channel=4 note=63 velocity=95 time=0.4166665
EXTRACT: note_on channel=4 note=67 velocity=95 time=0
EXTRACT: note_off channel=4 note=67 velocity=95 time=0.4166665
EXTRACT: note_on channel=4 note=70 velocity=95 time=0
EXTRACT: note_off channel=4 note=70 velocity=95 time=0.4166665
EXTRACT: note_on channel=4 note=72 velocity=95 time=0
EXTRACT: note_on channel=4 note=68 velocity=95 time=0
EXTRACT: note_off channel=4 note=72 velocity=95 time=0.4166665
EXTRACT: note_off channel=4 note=68 velocity=95 time=0
EXTRACT: note_on channel=4 note=75 velocity=95 time=0
EXTRACT: note_off channel=4 note=75 velocity=95 time=0.4166665
EXTRACT: note_on channel=4 note=70 velocity=95 time=0
EXTRACT: note_on channel=4 note=67 velocity=95 time=0
EXTRACT: note_off channel=4 note=70 velocity=95 time=0.4166665
EXTRACT: note_off channel=4 note=67 velocity=95 time=0
EXTRACT: note_on channel=4 note=75 velocity=95 time=0
EXTRACT: note_off channel=4 note=75 velocity=95 time=0.4166665
EXTRACT: note_on channel=4 note=60 velocity=95 time=0
EXTRACT: note_on channel=4 note=55 velocity=95 time=0
EXTRACT: note_on channel=4 note=48 velocity=95 time=0
EXTRACT: note_off channel=4 note=60 velocity=95 time=0.833333
EXTRACT: note_off channel=4 note=55 velocity=95 time=0
EXTRACT: note_off channel=4 note=48 velocity=95 time=0
EXTRACT: note_on channel=4 note=67 velocity=95 time=0
EXTRACT: note_on channel=4 note=63 velocity=95 time=0
EXTRACT: note_off channel=4 note=67 velocity=95 time=0.4166665
EXTRACT: note_off channel=4 note=63 velocity=95 time=0
EXTRACT: note_on channel=4 note=70 velocity=95 time=0
EXTRACT: note_on channel=4 note=63 velocity=95 time=0
EXTRACT: note_on channel=4 note=60 velocity=95 time=0
EXTRACT: note_off channel=4 note=70 velocity=95 time=0.833333
EXTRACT: note_off channel=4 note=63 velocity=95 time=0
EXTRACT: note_off channel=4 note=60 velocity=95 time=0
EXTRACT: note_on channel=4 note=67 velocity=95 time=0
EXTRACT: note_on channel=4 note=63 velocity=95 time=0
EXTRACT: note_on channel=4 note=60 velocity=95 time=0
EXTRACT: note_off channel=4 note=67 velocity=95 time=0.4166665
EXTRACT: note_off channel=4 note=63 velocity=95 time=0
EXTRACT: note_off channel=4 note=60 velocity=95 time=0
EXTRACT: note_on channel=4 note=48 velocity=95 time=0
EXTRACT: note_off channel=4 note=48 velocity=95 time=0.833333
EXTRACT: note_on channel=4 note=60 velocity=95 time=0
EXTRACT: note_on channel=4 note=57 velocity=95 time=0
EXTRACT: note_on channel=4 note=53 velocity=95 time=0
EXTRACT: note_on channel=4 note=48 velocity=95 time=0
EXTRACT: note_on channel=4 note=41 velocity=95 time=0
EXTRACT: note_off channel=4 note=60 velocity=95 time=0.833333
EXTRACT: note_off channel=4 note=57 velocity=95 time=0
EXTRACT: note_off channel=4 note=53 velocity=95 time=0
EXTRACT: note_off channel=4 note=48 velocity=95 time=0
EXTRACT: note_off channel=4 note=41 velocity=95 time=0
EXTRACT: note_on channel=4 note=65 velocity=95 time=0
EXTRACT: note_on channel=4 note=60 velocity=95 time=0
EXTRACT: note_on channel=4 note=57 velocity=95 time=0
EXTRACT: note_off channel=4 note=65 velocity=95 time=0.4166665
EXTRACT: note_off channel=4 note=60 velocity=95 time=0
EXTRACT: note_off channel=4 note=57 velocity=95 time=0
EXTRACT: note_on channel=4 note=69 velocity=95 time=0
EXTRACT: note_on channel=4 note=65 velocity=95 time=0
EXTRACT: note_on channel=4 note=60 velocity=95 time=0
EXTRACT: note_off channel=4 note=69 velocity=95 time=2.0833325
EXTRACT: note_off channel=4 note=65 velocity=95 time=0
EXTRACT: note_off channel=4 note=60 velocity=95 time=0
EXTRACT: note_on channel=4 note=71 velocity=95 time=0
EXTRACT: note_on channel=4 note=66 velocity=95 time=0
EXTRACT: note_on channel=4 note=63 velocity=95 time=0
EXTRACT: note_off channel=4 note=71 velocity=95 time=0.833333
EXTRACT: note_off channel=4 note=66 velocity=95 time=0
EXTRACT: note_off channel=4 note=63 velocity=95 time=0
EXTRACT: note_on channel=4 note=70 velocity=95 time=0
EXTRACT: note_on channel=4 note=65 velocity=95 time=0
EXTRACT: note_on channel=4 note=62 velocity=95 time=0
EXTRACT: note_off channel=4 note=70 velocity=95 time=0.833333
EXTRACT: note_off channel=4 note=65 velocity=95 time=0
EXTRACT: note_off channel=4 note=62 velocity=95 time=0
EXTRACT: note_on channel=4 note=69 velocity=95 time=0
EXTRACT: note_on channel=4 note=64 velocity=95 time=0
EXTRACT: note_on channel=4 note=61 velocity=95 time=0
EXTRACT: note_off channel=4 note=69 velocity=95 time=0.833333
EXTRACT: note_off channel=4 note=64 velocity=95 time=0
EXTRACT: note_off channel=4 note=61 velocity=95 time=0
EXTRACT: note_on channel=4 note=70 velocity=95 time=0
EXTRACT: note_on channel=4 note=65 velocity=95 time=0
EXTRACT: note_on channel=4 note=62 velocity=95 time=0
EXTRACT: note_off channel=4 note=70 velocity=95 time=0.833333
EXTRACT: note_off channel=4 note=65 velocity=95 time=0
EXTRACT: note_off channel=4 note=62 velocity=95 time=0
EXTRACT: note_on channel=4 note=71 velocity=95 time=0
EXTRACT: note_on channel=4 note=66 velocity=95 time=0
EXTRACT: note_on channel=4 note=63 velocity=95 time=0
EXTRACT: note_off channel=4 note=71 velocity=95 time=0.833333
EXTRACT: note_off channel=4 note=66 velocity=95 time=0
EXTRACT: note_off channel=4 note=63 velocity=95 time=0
EXTRACT: note_on channel=4 note=70 velocity=95 time=0
EXTRACT: note_on channel=4 note=65 velocity=95 time=0
EXTRACT: note_on channel=4 note=62 velocity=95 time=0
EXTRACT: note_off channel=4 note=70 velocity=95 time=0.833333
EXTRACT: note_off channel=4 note=65 velocity=95 time=0
EXTRACT: note_off channel=4 note=62 velocity=95 time=0
EXTRACT: note_on channel=4 note=69 velocity=95 time=0
EXTRACT: note_on channel=4 note=64 velocity=95 time=0
EXTRACT: note_on channel=4 note=61 velocity=95 time=0
EXTRACT: note_off channel=4 note=69 velocity=95 time=0.833333
EXTRACT: note_off channel=4 note=64 velocity=95 time=0
EXTRACT: note_off channel=4 note=61 velocity=95 time=0
EXTRACT: note_on channel=4 note=70 velocity=95 time=0
EXTRACT: note_on channel=4 note=65 velocity=95 time=0
EXTRACT: note_on channel=4 note=62 velocity=95 time=0
EXTRACT: note_off channel=4 note=70 velocity=95 time=0.833333
EXTRACT: note_off channel=4 note=65 velocity=95 time=0
EXTRACT: note_off channel=4 note=62 velocity=95 time=0
EXTRACT: note_on channel=4 note=63 velocity=95 time=0
EXTRACT: note_on channel=4 note=58 velocity=95 time=0
EXTRACT: note_on channel=4 note=51 velocity=95 time=0
EXTRACT: note_off channel=4 note=63 velocity=95 time=0.4166665
EXTRACT: note_off channel=4 note=58 velocity=95 time=0
EXTRACT: note_off channel=4 note=51 velocity=95 time=0
EXTRACT: note_on channel=4 note=63 velocity=95 time=0
EXTRACT: note_off channel=4 note=63 velocity=95 time=0.4166665
EXTRACT: note_on channel=4 note=75 velocity=95 time=0
EXTRACT: note_on channel=4 note=70 velocity=95 time=0
EXTRACT: note_on channel=4 note=67 velocity=95 time=0
EXTRACT: note_off channel=4 note=75 velocity=95 time=0.4166665
EXTRACT: note_off channel=4 note=70 velocity=95 time=0
EXTRACT: note_off channel=4 note=67 velocity=95 time=0
EXTRACT: note_on channel=4 note=63 velocity=95 time=0
EXTRACT: note_off channel=4 note=63 velocity=95 time=0.4166665
EXTRACT: note_on channel=4 note=62 velocity=95 time=0
EXTRACT: note_on channel=4 note=58 velocity=95 time=0
EXTRACT: note_on channel=4 note=50 velocity=95 time=0
EXTRACT: note_off channel=4 note=62 velocity=95 time=0.4166665
EXTRACT: note_off channel=4 note=58 velocity=95 time=0
EXTRACT: note_off channel=4 note=50 velocity=95 time=0
EXTRACT: note_on channel=4 note=62 velocity=95 time=0
EXTRACT: note_off channel=4 note=62 velocity=95 time=0.4166665
EXTRACT: note_on channel=4 note=74 velocity=95 time=0
EXTRACT: note_on channel=4 note=70 velocity=95 time=0
EXTRACT: note_on channel=4 note=65 velocity=95 time=0
EXTRACT: note_off channel=4 note=74 velocity=95 time=0.4166665
EXTRACT: note_off channel=4 note=70 velocity=95 time=0
EXTRACT: note_off channel=4 note=65 velocity=95 time=0
EXTRACT: note_on channel=4 note=62 velocity=95 time=0
EXTRACT: note_off channel=4 note=62 velocity=95 time=0.4166665
EXTRACT: note_on channel=4 note=67 velocity=95 time=0
EXTRACT: note_on channel=4 note=64 velocity=95 time=0
EXTRACT: note_on channel=4 note=61 velocity=95 time=0
EXTRACT: note_on channel=4 note=55 velocity=95 time=0
EXTRACT: note_on channel=4 note=48 velocity=95 time=0
EXTRACT: note_off channel=4 note=67 velocity=95 time=0.4166665
EXTRACT: note_off channel=4 note=64 velocity=95 time=0
EXTRACT: note_off channel=4 note=61 velocity=95 time=0
EXTRACT: note_off channel=4 note=55 velocity=95 time=0
EXTRACT: note_off channel=4 note=48 velocity=95 time=0
EXTRACT: note_on channel=4 note=61 velocity=95 time=0
EXTRACT: note_off channel=4 note=61 velocity=95 time=0.4166665
EXTRACT: note_on channel=4 note=70 velocity=95 time=0
EXTRACT: note_on channel=4 note=64 velocity=95 time=0
EXTRACT: note_on channel=4 note=61 velocity=95 time=0
EXTRACT: note_off channel=4 note=70 velocity=95 time=0.4166665
EXTRACT: note_off channel=4 note=64 velocity=95 time=0
EXTRACT: note_off channel=4 note=61 velocity=95 time=0
EXTRACT: note_on channel=4 note=61 velocity=95 time=0
EXTRACT: note_off channel=4 note=61 velocity=95 time=0.4166665
EXTRACT: note_on channel=4 note=63 velocity=95 time=0
EXTRACT: note_on channel=4 note=60 velocity=95 time=0
EXTRACT: note_on channel=4 note=53 velocity=95 time=0
EXTRACT: note_on channel=4 note=48 velocity=95 time=0
EXTRACT: note_off channel=4 note=63 velocity=95 time=0.4166665
EXTRACT: note_off channel=4 note=60 velocity=95 time=0
EXTRACT: note_off channel=4 note=53 velocity=95 time=0
EXTRACT: note_off channel=4 note=48 velocity=95 time=0
EXTRACT: note_on channel=4 note=60 velocity=95 time=0
EXTRACT: note_off channel=4 note=60 velocity=95 time=0.4166665
EXTRACT: note_on channel=4 note=69 velocity=95 time=0
EXTRACT: note_on channel=4 note=63 velocity=95 time=0
EXTRACT: note_off channel=4 note=69 velocity=95 time=1.2499995
EXTRACT: note_off channel=4 note=63 velocity=95 time=0
EXTRACT: note_on channel=4 note=60 velocity=95 time=0
EXTRACT: note_off channel=4 note=60 velocity=95 time=0.4166665
EXTRACT: note_on channel=4 note=63 velocity=95 time=0
EXTRACT: note_off channel=4 note=63 velocity=95 time=0.4166665
EXTRACT: note_on channel=4 note=65 velocity=95 time=0
EXTRACT: note_off channel=4 note=65 velocity=95 time=0.4166665
EXTRACT: note_on channel=4 note=75 velocity=95 time=0
EXTRACT: note_on channel=4 note=69 velocity=95 time=0
EXTRACT: note_on channel=4 note=65 velocity=95 time=0
EXTRACT: note_on channel=4 note=63 velocity=95 time=0
EXTRACT: note_off channel=4 note=75 velocity=95 time=1.666666
EXTRACT: note_off channel=4 note=69 velocity=95 time=0
EXTRACT: note_off channel=4 note=65 velocity=95 time=0
EXTRACT: note_off channel=4 note=63 velocity=95 time=0
EXTRACT: note_on channel=4 note=62 velocity=95 time=0
EXTRACT: note_on channel=4 note=58 velocity=95 time=0
EXTRACT: note_on channel=4 note=53 velocity=95 time=0
EXTRACT: note_on channel=4 note=46 velocity=95 time=0
EXTRACT: note_off channel=4 note=62 velocity=95 time=0.4166665
EXTRACT: note_off channel=4 note=58 velocity=95 time=0
EXTRACT: note_off channel=4 note=53 velocity=95 time=0
EXTRACT: note_off channel=4 note=46 velocity=95 time=0
EXTRACT: note_on channel=4 note=53 velocity=95 time=0
EXTRACT: note_off channel=4 note=53 velocity=95 time=0.4166665
EXTRACT: note_on channel=4 note=58 velocity=95 time=0
EXTRACT: note_off channel=4 note=58 velocity=95 time=0.4166665
EXTRACT: note_on channel=4 note=62 velocity=95 time=0
EXTRACT: note_off channel=4 note=62 velocity=95 time=0.4166665
EXTRACT: note_on channel=4 note=79 velocity=95 time=0
EXTRACT: note_on channel=4 note=67 velocity=95 time=0
EXTRACT: note_off channel=4 note=79 velocity=95 time=0.4166665
EXTRACT: note_off channel=4 note=67 velocity=95 time=0
EXTRACT: note_on channel=4 note=53 velocity=95 time=0
EXTRACT: note_off channel=4 note=53 velocity=95 time=0.4166665
EXTRACT: note_on channel=4 note=77 velocity=95 time=0
EXTRACT: note_on channel=4 note=65 velocity=95 time=0
EXTRACT: note_off channel=4 note=77 velocity=95 time=0.4166665
EXTRACT: note_off channel=4 note=65 velocity=95 time=0
EXTRACT: note_on channel=4 note=53 velocity=95 time=0
EXTRACT: note_off channel=4 note=53 velocity=95 time=0.4166665
EXTRACT: note_on channel=4 note=62 velocity=95 time=0
EXTRACT: note_on channel=4 note=58 velocity=95 time=0
EXTRACT: note_on channel=4 note=53 velocity=95 time=0
EXTRACT: note_on channel=4 note=46 velocity=95 time=0
EXTRACT: note_off channel=4 note=62 velocity=95 time=0.4166665
EXTRACT: note_off channel=4 note=58 velocity=95 time=0
EXTRACT: note_off channel=4 note=53 velocity=95 time=0
EXTRACT: note_off channel=4 note=46 velocity=95 time=0
EXTRACT: note_on channel=4 note=53 velocity=95 time=0
EXTRACT: note_off channel=4 note=53 velocity=95 time=0.4166665
EXTRACT: note_on channel=4 note=58 velocity=95 time=0
EXTRACT: note_off channel=4 note=58 velocity=95 time=0.4166665
EXTRACT: note_on channel=4 note=62 velocity=95 time=0
EXTRACT: note_off channel=4 note=62 velocity=95 time=0.4166665
EXTRACT: note_on channel=4 note=79 velocity=95 time=0
EXTRACT: note_on channel=4 note=67 velocity=95 time=0
EXTRACT: note_off channel=4 note=79 velocity=95 time=0.4166665
EXTRACT: note_off channel=4 note=67 velocity=95 time=0
EXTRACT: note_on channel=4 note=53 velocity=95 time=0
EXTRACT: note_off channel=4 note=53 velocity=95 time=0.4166665
EXTRACT: note_on channel=4 note=77 velocity=95 time=0
EXTRACT: note_on channel=4 note=65 velocity=95 time=0
EXTRACT: note_off channel=4 note=77 velocity=95 time=0.4166665
EXTRACT: note_off channel=4 note=65 velocity=95 time=0
EXTRACT: note_on channel=4 note=53 velocity=95 time=0
EXTRACT: note_off channel=4 note=53 velocity=95 time=0.4166665
EXTRACT: note_on channel=4 note=62 velocity=95 time=0
EXTRACT: note_on channel=4 note=58 velocity=95 time=0
EXTRACT: note_on channel=4 note=53 velocity=95 time=0
EXTRACT: note_on channel=4 note=46 velocity=95 time=0
EXTRACT: note_off channel=4 note=62 velocity=95 time=0.4166665
EXTRACT: note_off channel=4 note=58 velocity=95 time=0
EXTRACT: note_off channel=4 note=53 velocity=95 time=0
EXTRACT: note_off channel=4 note=46 velocity=95 time=0
EXTRACT: note_on channel=4 note=53 velocity=95 time=0
EXTRACT: note_off channel=4 note=53 velocity=95 time=0.4166665
EXTRACT: note_on channel=4 note=58 velocity=95 time=0
EXTRACT: note_off channel=4 note=58 velocity=95 time=0.4166665
EXTRACT: note_on channel=4 note=62 velocity=95 time=0
EXTRACT: note_off channel=4 note=62 velocity=95 time=0.4166665
EXTRACT: note_on channel=4 note=79 velocity=95 time=0
EXTRACT: note_on channel=4 note=67 velocity=95 time=0
EXTRACT: note_off channel=4 note=79 velocity=95 time=0.4166665
EXTRACT: note_off channel=4 note=67 velocity=95 time=0
EXTRACT: note_on channel=4 note=53 velocity=95 time=0
EXTRACT: note_off channel=4 note=53 velocity=95 time=0.4166665
EXTRACT: note_on channel=4 note=77 velocity=95 time=0
EXTRACT: note_on channel=4 note=65 velocity=95 time=0
EXTRACT: note_off channel=4 note=77 velocity=95 time=0.4166665
EXTRACT: note_off channel=4 note=65 velocity=95 time=0
EXTRACT: note_on channel=4 note=53 velocity=95 time=0
EXTRACT: note_off channel=4 note=53 velocity=95 time=0.4166665
EXTRACT: note_on channel=4 note=58 velocity=95 time=0
EXTRACT: note_on channel=4 note=55 velocity=95 time=0
EXTRACT: note_on channel=4 note=50 velocity=95 time=0
EXTRACT: note_on channel=4 note=43 velocity=95 time=0
EXTRACT: note_off channel=4 note=58 velocity=95 time=0.4166665
EXTRACT: note_off channel=4 note=55 velocity=95 time=0
EXTRACT: note_off channel=4 note=50 velocity=95 time=0
EXTRACT: note_off channel=4 note=43 velocity=95 time=0
EXTRACT: note_on channel=4 note=55 velocity=95 time=0
EXTRACT: note_off channel=4 note=55 velocity=95 time=0.4166665
EXTRACT: note_on channel=4 note=58 velocity=95 time=0
EXTRACT: note_off channel=4 note=58 velocity=95 time=0.4166665
EXTRACT: note_on channel=4 note=62 velocity=95 time=0
EXTRACT: note_off channel=4 note=62 velocity=95 time=0.4166665
EXTRACT: note_on channel=4 note=81 velocity=95 time=0
EXTRACT: note_on channel=4 note=69 velocity=95 time=0
EXTRACT: note_off channel=4 note=81 velocity=95 time=0.4166665
EXTRACT: note_off channel=4 note=69 velocity=95 time=0
EXTRACT: note_on channel=4 note=55 velocity=95 time=0
EXTRACT: note_off channel=4 note=55 velocity=95 time=0.4166665
EXTRACT: note_on channel=4 note=79 velocity=95 time=0
EXTRACT: note_on channel=4 note=67 velocity=95 time=0
EXTRACT: note_off channel=4 note=79 velocity=95 time=0.4166665
EXTRACT: note_off channel=4 note=67 velocity=95 time=0
EXTRACT: note_on channel=4 note=55 velocity=95 time=0
EXTRACT: note_off channel=4 note=55 velocity=95 time=0.4166665
EXTRACT: note_on channel=4 note=63 velocity=95 time=0
EXTRACT: note_on channel=4 note=60 velocity=95 time=0
EXTRACT: note_on channel=4 note=55 velocity=95 time=0
EXTRACT: note_on channel=4 note=48 velocity=95 time=0
EXTRACT: note_off channel=4 note=63 velocity=95 time=0.4166665
EXTRACT: note_off channel=4 note=60 velocity=95 time=0
EXTRACT: note_off channel=4 note=55 velocity=95 time=0
EXTRACT: note_off channel=4 note=48 velocity=95 time=0
EXTRACT: note_on channel=4 note=60 velocity=95 time=0
EXTRACT: note_off channel=4 note=60 velocity=95 time=0.4166665
EXTRACT: note_on channel=4 note=63 velocity=95 time=0
EXTRACT: note_off channel=4 note=63 velocity=95 time=0.4166665
EXTRACT: note_on channel=4 note=67 velocity=95 time=0
EXTRACT: note_off channel=4 note=67 velocity=95 time=0.4166665
EXTRACT: note_on channel=4 note=86 velocity=95 time=0
EXTRACT: note_on channel=4 note=74 velocity=95 time=0
EXTRACT: note_off channel=4 note=86 velocity=95 time=0.4166665
EXTRACT: note_off channel=4 note=74 velocity=95 time=0
EXTRACT: note_on channel=4 note=60 velocity=95 time=0
EXTRACT: note_off channel=4 note=60 velocity=95 time=0.4166665
EXTRACT: note_on channel=4 note=84 velocity=95 time=0
EXTRACT: note_on channel=4 note=72 velocity=95 time=0
EXTRACT: note_off channel=4 note=84 velocity=95 time=0.4166665
EXTRACT: note_off channel=4 note=72 velocity=95 time=0
EXTRACT: note_on channel=4 note=60 velocity=95 time=0
EXTRACT: note_off channel=4 note=60 velocity=95 time=0.4166665
EXTRACT: note_on channel=4 note=70 velocity=95 time=0
EXTRACT: note_on channel=4 note=63 velocity=95 time=0
EXTRACT: note_on channel=4 note=60 velocity=95 time=0
EXTRACT: note_on channel=4 note=55 velocity=95 time=0
EXTRACT: note_on channel=4 note=48 velocity=95 time=0
EXTRACT: note_off channel=4 note=70 velocity=95 time=0.4166665
EXTRACT: note_off channel=4 note=63 velocity=95 time=0
EXTRACT: note_off channel=4 note=60 velocity=95 time=0
EXTRACT: note_off channel=4 note=55 velocity=95 time=0
EXTRACT: note_off channel=4 note=48 velocity=95 time=0
EXTRACT: note_on channel=4 note=60 velocity=95 time=0
EXTRACT: note_off channel=4 note=60 velocity=95 time=0.4166665
EXTRACT: note_on channel=4 note=63 velocity=95 time=0
EXTRACT: note_off channel=4 note=63 velocity=95 time=0.4166665
EXTRACT: note_on channel=4 note=67 velocity=95 time=0
EXTRACT: note_off channel=4 note=67 velocity=95 time=0.4166665
EXTRACT: note_on channel=4 note=69 velocity=95 time=0
EXTRACT: note_on channel=4 note=65 velocity=95 time=0
EXTRACT: note_on channel=4 note=60 velocity=95 time=0
EXTRACT: note_on channel=4 note=53 velocity=95 time=0
EXTRACT: note_off channel=4 note=69 velocity=95 time=0.4166665
EXTRACT: note_off channel=4 note=65 velocity=95 time=0
EXTRACT: note_off channel=4 note=60 velocity=95 time=0
EXTRACT: note_off channel=4 note=53 velocity=95 time=0
EXTRACT: note_on channel=4 note=63 velocity=95 time=0
EXTRACT: note_off channel=4 note=63 velocity=95 time=0.4166665
EXTRACT: note_on channel=4 note=65 velocity=95 time=0
EXTRACT: note_off channel=4 note=65 velocity=95 time=0.4166665
EXTRACT: note_on channel=4 note=72 velocity=95 time=0
EXTRACT: note_off channel=4 note=72 velocity=95 time=0.4166665
EXTRACT: note_on channel=4 note=62 velocity=95 time=0
EXTRACT: note_on channel=4 note=58 velocity=95 time=0
EXTRACT: note_on channel=4 note=53 velocity=95 time=0
EXTRACT: note_on channel=4 note=46 velocity=95 time=0
EXTRACT: note_off channel=4 note=62 velocity=95 time=0.4166665
EXTRACT: note_off channel=4 note=58 velocity=95 time=0
EXTRACT: note_off channel=4 note=53 velocity=95 time=0
EXTRACT: note_off channel=4 note=46 velocity=95 time=0
EXTRACT: note_on channel=4 note=53 velocity=95 time=0
EXTRACT: note_off channel=4 note=53 velocity=95 time=0.4166665
EXTRACT: note_on channel=4 note=58 velocity=95 time=0
EXTRACT: note_off channel=4 note=58 velocity=95 time=0.4166665
EXTRACT: note_on channel=4 note=62 velocity=95 time=0
EXTRACT: note_off channel=4 note=62 velocity=95 time=0.4166665
EXTRACT: note_on channel=4 note=79 velocity=95 time=0
EXTRACT: note_on channel=4 note=67 velocity=95 time=0
EXTRACT: note_off channel=4 note=79 velocity=95 time=0.4166665
EXTRACT: note_off channel=4 note=67 velocity=95 time=0
EXTRACT: note_on channel=4 note=53 velocity=95 time=0
EXTRACT: note_off channel=4 note=53 velocity=95 time=0.4166665
EXTRACT: note_on channel=4 note=77 velocity=95 time=0
EXTRACT: note_on channel=4 note=65 velocity=95 time=0
EXTRACT: note_off channel=4 note=77 velocity=95 time=0.4166665
EXTRACT: note_off channel=4 note=65 velocity=95 time=0
EXTRACT: note_on channel=4 note=53 velocity=95 time=0
EXTRACT: note_off channel=4 note=53 velocity=95 time=0.4166665
EXTRACT: note_on channel=4 note=58 velocity=95 time=0
EXTRACT: note_on channel=4 note=55 velocity=95 time=0
EXTRACT: note_on channel=4 note=50 velocity=95 time=0
EXTRACT: note_on channel=4 note=43 velocity=95 time=0
EXTRACT: note_off channel=4 note=58 velocity=95 time=0.4166665
EXTRACT: note_off channel=4 note=55 velocity=95 time=0
EXTRACT: note_off channel=4 note=50 velocity=95 time=0
EXTRACT: note_off channel=4 note=43 velocity=95 time=0
EXTRACT: note_on channel=4 note=55 velocity=95 time=0
EXTRACT: note_off channel=4 note=55 velocity=95 time=0.4166665
EXTRACT: note_on channel=4 note=58 velocity=95 time=0
EXTRACT: note_off channel=4 note=58 velocity=95 time=0.4166665
EXTRACT: note_on channel=4 note=62 velocity=95 time=0
EXTRACT: note_off channel=4 note=62 velocity=95 time=0.4166665
EXTRACT: note_on channel=4 note=81 velocity=95 time=0
EXTRACT: note_on channel=4 note=69 velocity=95 time=0
EXTRACT: note_off channel=4 note=81 velocity=95 time=0.4166665
EXTRACT: note_off channel=4 note=69 velocity=95 time=0
EXTRACT: note_on channel=4 note=55 velocity=95 time=0
EXTRACT: note_off channel=4 note=55 velocity=95 time=0.4166665
EXTRACT: note_on channel=4 note=79 velocity=95 time=0
EXTRACT: note_on channel=4 note=67 velocity=95 time=0
EXTRACT: note_off channel=4 note=79 velocity=95 time=0.4166665
EXTRACT: note_off channel=4 note=67 velocity=95 time=0
EXTRACT: note_on channel=4 note=55 velocity=95 time=0
EXTRACT: note_off channel=4 note=55 velocity=95 time=0.4166665
EXTRACT: note_on channel=4 note=63 velocity=95 time=0
EXTRACT: note_on channel=4 note=60 velocity=95 time=0
EXTRACT: note_on channel=4 note=55 velocity=95 time=0
EXTRACT: note_on channel=4 note=48 velocity=95 time=0
EXTRACT: note_off channel=4 note=63 velocity=95 time=0.4166665
EXTRACT: note_off channel=4 note=60 velocity=95 time=0
EXTRACT: note_off channel=4 note=55 velocity=95 time=0
EXTRACT: note_off channel=4 note=48 velocity=95 time=0
EXTRACT: note_on channel=4 note=60 velocity=95 time=0
EXTRACT: note_off channel=4 note=60 velocity=95 time=0.4166665
EXTRACT: note_on channel=4 note=63 velocity=95 time=0
EXTRACT: note_off channel=4 note=63 velocity=95 time=0.4166665
EXTRACT: note_on channel=4 note=67 velocity=95 time=0
EXTRACT: note_off channel=4 note=67 velocity=95 time=0.4166665
EXTRACT: note_on channel=4 note=63 velocity=95 time=0
EXTRACT: note_on channel=4 note=59 velocity=95 time=0
EXTRACT: note_on channel=4 note=55 velocity=95 time=0
EXTRACT: note_on channel=4 note=47 velocity=95 time=0
EXTRACT: note_off channel=4 note=63 velocity=95 time=0.4166665
EXTRACT: note_off channel=4 note=59 velocity=95 time=0
EXTRACT: note_off channel=4 note=55 velocity=95 time=0
EXTRACT: note_off channel=4 note=47 velocity=95 time=0
EXTRACT: note_on channel=4 note=67 velocity=95 time=0
EXTRACT: note_off channel=4 note=67 velocity=95 time=0.4166665
EXTRACT: note_on channel=4 note=63 velocity=95 time=0
EXTRACT: note_on channel=4 note=58 velocity=95 time=0
EXTRACT: note_on channel=4 note=46 velocity=95 time=0
EXTRACT: note_off channel=4 note=63 velocity=95 time=0.4166665
EXTRACT: note_off channel=4 note=58 velocity=95 time=0
EXTRACT: note_off channel=4 note=46 velocity=95 time=0
EXTRACT: note_on channel=4 note=67 velocity=95 time=0
EXTRACT: note_off channel=4 note=67 velocity=95 time=0.4166665
EXTRACT: note_on channel=4 note=63 velocity=95 time=0
EXTRACT: note_on channel=4 note=57 velocity=95 time=0
EXTRACT: note_on channel=4 note=51 velocity=95 time=0
EXTRACT: note_on channel=4 note=45 velocity=95 time=0
EXTRACT: note_off channel=4 note=63 velocity=95 time=0.4166665
EXTRACT: note_off channel=4 note=57 velocity=95 time=0
EXTRACT: note_off channel=4 note=51 velocity=95 time=0
EXTRACT: note_off channel=4 note=45 velocity=95 time=0
EXTRACT: note_on channel=4 note=57 velocity=95 time=0
EXTRACT: note_off channel=4 note=57 velocity=95 time=0.4166665
EXTRACT: note_on channel=4 note=63 velocity=95 time=0
EXTRACT: note_off channel=4 note=63 velocity=95 time=0.4166665
EXTRACT: note_on channel=4 note=67 velocity=95 time=0
EXTRACT: note_off channel=4 note=67 velocity=95 time=0.4166665
EXTRACT: note_on channel=4 note=63 velocity=95 time=0
EXTRACT: note_on channel=4 note=56 velocity=95 time=0
EXTRACT: note_on channel=4 note=44 velocity=95 time=0
EXTRACT: note_off channel=4 note=63 velocity=95 time=0.4166665
EXTRACT: note_off channel=4 note=56 velocity=95 time=0
EXTRACT: note_off channel=4 note=44 velocity=95 time=0
EXTRACT: note_on channel=4 note=67 velocity=95 time=0
EXTRACT: note_off channel=4 note=67 velocity=95 time=0.4166665
EXTRACT: note_on channel=4 note=63 velocity=95 time=0
EXTRACT: note_on channel=4 note=55 velocity=95 time=0
EXTRACT: note_on channel=4 note=43 velocity=95 time=0
EXTRACT: note_off channel=4 note=63 velocity=95 time=0.4166665
EXTRACT: note_off channel=4 note=55 velocity=95 time=0
EXTRACT: note_off channel=4 note=43 velocity=95 time=0
EXTRACT: note_on channel=4 note=67 velocity=95 time=0
EXTRACT: note_off channel=4 note=67 velocity=95 time=0.4166665
EXTRACT: note_on channel=4 note=63 velocity=95 time=0
EXTRACT: note_on channel=4 note=58 velocity=95 time=0
EXTRACT: note_on channel=4 note=51 velocity=95 time=0
EXTRACT: note_off channel=4 note=63 velocity=95 time=0.4166665
EXTRACT: note_off channel=4 note=58 velocity=95 time=0
EXTRACT: note_off channel=4 note=51 velocity=95 time=0
EXTRACT: note_on channel=4 note=63 velocity=95 time=0
EXTRACT: note_off channel=4 note=63 velocity=95 time=0.4166665
EXTRACT: note_on channel=4 note=75 velocity=95 time=0
EXTRACT: note_on channel=4 note=70 velocity=95 time=0
EXTRACT: note_on channel=4 note=67 velocity=95 time=0
EXTRACT: note_off channel=4 note=75 velocity=95 time=0.4166665
EXTRACT: note_off channel=4 note=70 velocity=95 time=0
EXTRACT: note_off channel=4 note=67 velocity=95 time=0
EXTRACT: note_on channel=4 note=63 velocity=95 time=0
EXTRACT: note_off channel=4 note=63 velocity=95 time=0.4166665
EXTRACT: note_on channel=4 note=70 velocity=95 time=0
EXTRACT: note_on channel=4 note=67 velocity=95 time=0
EXTRACT: note_off channel=4 note=70 velocity=95 time=0.4166665
EXTRACT: note_off channel=4 note=67 velocity=95 time=0
EXTRACT: note_on channel=4 note=63 velocity=95 time=0
EXTRACT: note_off channel=4 note=63 velocity=95 time=0.4166665
EXTRACT: note_on channel=4 note=62 velocity=95 time=0
EXTRACT: note_on channel=4 note=58 velocity=95 time=0
EXTRACT: note_on channel=4 note=50 velocity=95 time=0
EXTRACT: note_off channel=4 note=62 velocity=95 time=0.4166665
EXTRACT: note_off channel=4 note=58 velocity=95 time=0
EXTRACT: note_off channel=4 note=50 velocity=95 time=0
EXTRACT: note_on channel=4 note=70 velocity=95 time=0
EXTRACT: note_on channel=4 note=65 velocity=95 time=0
EXTRACT: note_off channel=4 note=70 velocity=95 time=0.4166665
EXTRACT: note_off channel=4 note=65 velocity=95 time=0
EXTRACT: note_on channel=4 note=67 velocity=95 time=0
EXTRACT: note_on channel=4 note=63 velocity=95 time=0
EXTRACT: note_on channel=4 note=60 velocity=95 time=0
EXTRACT: note_on channel=4 note=55 velocity=95 time=0
EXTRACT: note_on channel=4 note=48 velocity=95 time=0
EXTRACT: note_off channel=4 note=67 velocity=95 time=0.4166665
EXTRACT: note_off channel=4 note=63 velocity=95 time=0
EXTRACT: note_off channel=4 note=60 velocity=95 time=0
EXTRACT: note_off channel=4 note=55 velocity=95 time=0
EXTRACT: note_off channel=4 note=48 velocity=95 time=0
EXTRACT: note_on channel=4 note=60 velocity=95 time=0
EXTRACT: note_off channel=4 note=60 velocity=95 time=0.4166665
EXTRACT: note_on channel=4 note=63 velocity=95 time=0
EXTRACT: note_off channel=4 note=63 velocity=95 time=0.4166665
EXTRACT: note_on channel=4 note=67 velocity=95 time=0
EXTRACT: note_off channel=4 note=67 velocity=95 time=0.4166665
EXTRACT: note_on channel=4 note=86 velocity=95 time=0
EXTRACT: note_on channel=4 note=74 velocity=95 time=0
EXTRACT: note_off channel=4 note=86 velocity=95 time=0.4166665
EXTRACT: note_off channel=4 note=74 velocity=95 time=0
EXTRACT: note_on channel=4 note=60 velocity=95 time=0
EXTRACT: note_off channel=4 note=60 velocity=95 time=0.4166665
EXTRACT: note_on channel=4 note=84 velocity=95 time=0
EXTRACT: note_on channel=4 note=72 velocity=95 time=0
EXTRACT: note_off channel=4 note=84 velocity=95 time=0.4166665
EXTRACT: note_off channel=4 note=72 velocity=95 time=0
EXTRACT: note_on channel=4 note=60 velocity=95 time=0
EXTRACT: note_off channel=4 note=60 velocity=95 time=0.4166665
EXTRACT: note_on channel=4 note=68 velocity=95 time=0
EXTRACT: note_on channel=4 note=65 velocity=95 time=0
EXTRACT: note_on channel=4 note=60 velocity=95 time=0
EXTRACT: note_on channel=4 note=53 velocity=95 time=0
EXTRACT: note_off channel=4 note=68 velocity=95 time=0.4166665
EXTRACT: note_off channel=4 note=65 velocity=95 time=0
EXTRACT: note_off channel=4 note=60 velocity=95 time=0
EXTRACT: note_off channel=4 note=53 velocity=95 time=0
EXTRACT: note_on channel=4 note=65 velocity=95 time=0
EXTRACT: note_off channel=4 note=65 velocity=95 time=0.4166665
EXTRACT: note_on channel=4 note=72 velocity=95 time=0
EXTRACT: note_on channel=4 note=68 velocity=95 time=0
EXTRACT: note_off channel=4 note=72 velocity=95 time=0.4166665
EXTRACT: note_off channel=4 note=68 velocity=95 time=0
EXTRACT: note_on channel=4 note=72 velocity=95 time=0
EXTRACT: note_on channel=4 note=64 velocity=95 time=0
EXTRACT: note_on channel=4 note=52 velocity=95 time=0
EXTRACT: note_off channel=4 note=72 velocity=95 time=0.4166665
EXTRACT: note_off channel=4 note=64 velocity=95 time=0
EXTRACT: note_off channel=4 note=52 velocity=95 time=0
EXTRACT: note_on channel=4 note=72 velocity=95 time=0
EXTRACT: note_on channel=4 note=63 velocity=95 time=0
EXTRACT: note_on channel=4 note=56 velocity=95 time=0
EXTRACT: note_on channel=4 note=51 velocity=95 time=0
EXTRACT: note_off channel=4 note=72 velocity=95 time=0.4166665
EXTRACT: note_off channel=4 note=63 velocity=95 time=0
EXTRACT: note_off channel=4 note=56 velocity=95 time=0
EXTRACT: note_off channel=4 note=51 velocity=95 time=0
EXTRACT: note_on channel=4 note=63 velocity=95 time=0
EXTRACT: note_off channel=4 note=63 velocity=95 time=0.4166665
EXTRACT: note_on channel=4 note=72 velocity=95 time=0
EXTRACT: note_on channel=4 note=62 velocity=95 time=0
EXTRACT: note_on channel=4 note=56 velocity=95 time=0
EXTRACT: note_on channel=4 note=50 velocity=95 time=0
EXTRACT: note_off channel=4 note=72 velocity=95 time=0.4166665
EXTRACT: note_off channel=4 note=62 velocity=95 time=0
EXTRACT: note_off channel=4 note=56 velocity=95 time=0
EXTRACT: note_off channel=4 note=50 velocity=95 time=0
EXTRACT: note_on channel=4 note=62 velocity=95 time=0
EXTRACT: note_off channel=4 note=62 velocity=95 time=0.4166665
EXTRACT: note_on channel=4 note=62 velocity=95 time=0
EXTRACT: note_on channel=4 note=58 velocity=95 time=0
EXTRACT: note_on channel=4 note=53 velocity=95 time=0
EXTRACT: note_on channel=4 note=46 velocity=95 time=0
EXTRACT: note_off channel=4 note=62 velocity=95 time=0.62499975
EXTRACT: note_off channel=4 note=58 velocity=95 time=0
EXTRACT: note_off channel=4 note=53 velocity=95 time=0
EXTRACT: note_off channel=4 note=46 velocity=95 time=0
EXTRACT: note_on channel=4 note=46 velocity=95 time=0
EXTRACT: note_off channel=4 note=46 velocity=95 time=0.20833325
EXTRACT: note_on channel=4 note=65 velocity=95 time=0
EXTRACT: note_on channel=4 note=62 velocity=95 time=0
EXTRACT: note_on channel=4 note=58 velocity=95 time=0
EXTRACT: note_off channel=4 note=65 velocity=95 time=0.4166665
EXTRACT: note_off channel=4 note=62 velocity=95 time=0
EXTRACT: note_off channel=4 note=58 velocity=95 time=0
EXTRACT: note_on channel=4 note=46 velocity=95 time=0
EXTRACT: note_off channel=4 note=46 velocity=95 time=0.20833325
EXTRACT: note_on channel=4 note=46 velocity=95 time=0
EXTRACT: note_off channel=4 note=46 velocity=95 time=0.20833325
EXTRACT: note_on channel=4 note=67 velocity=95 time=0
EXTRACT: note_on channel=4 note=62 velocity=95 time=0
EXTRACT: note_on channel=4 note=58 velocity=95 time=0
EXTRACT: note_off channel=4 note=67 velocity=95 time=0.4166665
EXTRACT: note_off channel=4 note=62 velocity=95 time=0
EXTRACT: note_off channel=4 note=58 velocity=95 time=0
EXTRACT: note_on channel=4 note=46 velocity=95 time=0
EXTRACT: note_off channel=4 note=46 velocity=95 time=0.20833325
EXTRACT: note_on channel=4 note=46 velocity=95 time=0
EXTRACT: note_off channel=4 note=46 velocity=95 time=0.20833325
EXTRACT: note_on channel=4 note=68 velocity=95 time=0
EXTRACT: note_on channel=4 note=62 velocity=95 time=0
EXTRACT: note_on channel=4 note=58 velocity=95 time=0
EXTRACT: note_off channel=4 note=68 velocity=95 time=0.20833325
EXTRACT: note_off channel=4 note=62 velocity=95 time=0
EXTRACT: note_off channel=4 note=58 velocity=95 time=0
EXTRACT: note_on channel=4 note=46 velocity=95 time=0
EXTRACT: note_off channel=4 note=46 velocity=95 time=0.20833325
EXTRACT: note_on channel=4 note=46 velocity=95 time=0
EXTRACT: note_off channel=4 note=46 velocity=95 time=0.4166665
EXTRACT: note_on channel=4 note=67 velocity=95 time=0
EXTRACT: note_on channel=4 note=63 velocity=95 time=0
EXTRACT: note_on channel=4 note=58 velocity=95 time=0
EXTRACT: note_on channel=4 note=51 velocity=95 time=0
EXTRACT: note_off channel=4 note=67 velocity=95 time=0.4166665
EXTRACT: note_off channel=4 note=63 velocity=95 time=0
EXTRACT: note_off channel=4 note=58 velocity=95 time=0
EXTRACT: note_off channel=4 note=51 velocity=95 time=0
EXTRACT: note_on channel=4 note=63 velocity=95 time=0
EXTRACT: note_off channel=4 note=63 velocity=95 time=0.4166665
EXTRACT: note_on channel=4 note=75 velocity=95 time=0
EXTRACT: note_on channel=4 note=70 velocity=95 time=0
EXTRACT: note_on channel=4 note=67 velocity=95 time=0
EXTRACT: note_off channel=4 note=75 velocity=95 time=0.4166665
EXTRACT: note_off channel=4 note=70 velocity=95 time=0
EXTRACT: note_off channel=4 note=67 velocity=95 time=0
EXTRACT: note_on channel=4 note=63 velocity=95 time=0
EXTRACT: note_off channel=4 note=63 velocity=95 time=0.4166665
EXTRACT: note_on channel=4 note=65 velocity=95 time=0
EXTRACT: note_on channel=4 note=62 velocity=95 time=0
EXTRACT: note_on channel=4 note=58 velocity=95 time=0
EXTRACT: note_on channel=4 note=50 velocity=95 time=0
EXTRACT: note_off channel=4 note=65 velocity=95 time=0.4166665
EXTRACT: note_off channel=4 note=62 velocity=95 time=0
EXTRACT: note_off channel=4 note=58 velocity=95 time=0
EXTRACT: note_off channel=4 note=50 velocity=95 time=0
EXTRACT: note_on channel=4 note=62 velocity=95 time=0
EXTRACT: note_off channel=4 note=62 velocity=95 time=0.4166665
EXTRACT: note_on channel=4 note=74 velocity=95 time=0
EXTRACT: note_on channel=4 note=70 velocity=95 time=0
EXTRACT: note_on channel=4 note=65 velocity=95 time=0
EXTRACT: note_off channel=4 note=74 velocity=95 time=0.4166665
EXTRACT: note_off channel=4 note=70 velocity=95 time=0
EXTRACT: note_off channel=4 note=65 velocity=95 time=0
EXTRACT: note_on channel=4 note=62 velocity=95 time=0
EXTRACT: note_off channel=4 note=62 velocity=95 time=0.4166665
EXTRACT: note_on channel=4 note=63 velocity=95 time=0
EXTRACT: note_on channel=4 note=60 velocity=95 time=0
EXTRACT: note_on channel=4 note=55 velocity=95 time=0
EXTRACT: note_on channel=4 note=48 velocity=95 time=0
EXTRACT: note_off channel=4 note=63 velocity=95 time=0.4166665
EXTRACT: note_off channel=4 note=60 velocity=95 time=0
EXTRACT: note_off channel=4 note=55 velocity=95 time=0
EXTRACT: note_off channel=4 note=48 velocity=95 time=0
EXTRACT: note_on channel=4 note=60 velocity=95 time=0
EXTRACT: note_off channel=4 note=60 velocity=95 time=0.4166665
EXTRACT: note_on channel=4 note=67 velocity=95 time=0
EXTRACT: note_on channel=4 note=63 velocity=95 time=0
EXTRACT: note_off channel=4 note=67 velocity=95 time=0.4166665
EXTRACT: note_off channel=4 note=63 velocity=95 time=0
EXTRACT: note_on channel=4 note=60 velocity=95 time=0
EXTRACT: note_off channel=4 note=60 velocity=95 time=0.4166665
EXTRACT: note_on channel=4 note=63 velocity=95 time=0
EXTRACT: note_on channel=4 note=59 velocity=95 time=0
EXTRACT: note_on channel=4 note=56 velocity=95 time=0
EXTRACT: note_on channel=4 note=51 velocity=95 time=0
EXTRACT: note_on channel=4 note=44 velocity=95 time=0
EXTRACT: note_off channel=4 note=63 velocity=95 time=1.666666
EXTRACT: note_off channel=4 note=59 velocity=95 time=0
EXTRACT: note_off channel=4 note=56 velocity=95 time=0
EXTRACT: note_off channel=4 note=51 velocity=95 time=0
EXTRACT: note_off channel=4 note=44 velocity=95 time=0
EXTRACT: note_on channel=4 note=67 velocity=95 time=0
EXTRACT: note_on channel=4 note=63 velocity=95 time=0
EXTRACT: note_on channel=4 note=58 velocity=95 time=0
EXTRACT: note_on channel=4 note=51 velocity=95 time=0
EXTRACT: note_off channel=4 note=67 velocity=95 time=0.4166665
EXTRACT: note_off channel=4 note=63 velocity=95 time=0
EXTRACT: note_off channel=4 note=58 velocity=95 time=0
EXTRACT: note_off channel=4 note=51 velocity=95 time=0
EXTRACT: note_on channel=4 note=63 velocity=95 time=0
EXTRACT: note_off channel=4 note=63 velocity=95 time=0.4166665
EXTRACT: note_on channel=4 note=67 velocity=95 time=0
EXTRACT: note_off channel=4 note=67 velocity=95 time=0.4166665
EXTRACT: note_on channel=4 note=70 velocity=95 time=0
EXTRACT: note_off channel=4 note=70 velocity=95 time=0.4166665
EXTRACT: note_on channel=4 note=72 velocity=95 time=0
EXTRACT: note_on channel=4 note=68 velocity=95 time=0
EXTRACT: note_off channel=4 note=72 velocity=95 time=0.4166665
EXTRACT: note_off channel=4 note=68 velocity=95 time=0
EXTRACT: note_on channel=4 note=75 velocity=95 time=0
EXTRACT: note_off channel=4 note=75 velocity=95 time=0.4166665
EXTRACT: note_on channel=4 note=70 velocity=95 time=0
EXTRACT: note_on channel=4 note=67 velocity=95 time=0
EXTRACT: note_off channel=4 note=70 velocity=95 time=0.4166665
EXTRACT: note_off channel=4 note=67 velocity=95 time=0
EXTRACT: note_on channel=4 note=75 velocity=95 time=0
EXTRACT: note_off channel=4 note=75 velocity=95 time=0
EXTRACT: note_on channel=4 note=69 velocity=95 time=0
EXTRACT: note_on channel=4 note=66 velocity=95 time=0
EXTRACT: note_off channel=4 note=69 velocity=95 time=0.4166665
EXTRACT: note_off channel=4 note=66 velocity=95 time=0
EXTRACT: note_on channel=4 note=75 velocity=95 time=0
EXTRACT: note_off channel=4 note=75 velocity=95 time=0.4166665
EXTRACT: note_on channel=4 note=68 velocity=95 time=0
EXTRACT: note_on channel=4 note=65 velocity=95 time=0
EXTRACT: note_off channel=4 note=68 velocity=95 time=0.4166665
EXTRACT: note_off channel=4 note=65 velocity=95 time=0
EXTRACT: note_on channel=4 note=75 velocity=95 time=0
EXTRACT: note_off channel=4 note=75 velocity=95 time=0
EXTRACT: note_on channel=4 note=62 velocity=95 time=0
EXTRACT: note_on channel=4 note=58 velocity=95 time=0
EXTRACT: note_on channel=4 note=53 velocity=95 time=0
EXTRACT: note_on channel=4 note=46 velocity=95 time=0
EXTRACT: note_off channel=4 note=62 velocity=95 time=0.4166665
EXTRACT: note_off channel=4 note=58 velocity=95 time=0
EXTRACT: note_off channel=4 note=53 velocity=95 time=0
EXTRACT: note_off channel=4 note=46 velocity=95 time=0
EXTRACT: note_on channel=4 note=53 velocity=95 time=0
EXTRACT: note_off channel=4 note=53 velocity=95 time=0.4166665
EXTRACT: note_on channel=4 note=58 velocity=95 time=0
EXTRACT: note_off channel=4 note=58 velocity=95 time=0.4166665
EXTRACT: note_on channel=4 note=62 velocity=95 time=0
EXTRACT: note_off channel=4 note=62 velocity=95 time=0.4166665
EXTRACT: note_on channel=4 note=79 velocity=95 time=0
EXTRACT: note_on channel=4 note=67 velocity=95 time=0
EXTRACT: note_off channel=4 note=79 velocity=95 time=0.4166665
EXTRACT: note_off channel=4 note=67 velocity=95 time=0
EXTRACT: note_on channel=4 note=53 velocity=95 time=0
EXTRACT: note_off channel=4 note=53 velocity=95 time=0.4166665
EXTRACT: note_on channel=4 note=77 velocity=95 time=0
EXTRACT: note_on channel=4 note=65 velocity=95 time=0
EXTRACT: note_off channel=4 note=77 velocity=95 time=0.4166665
EXTRACT: note_off channel=4 note=65 velocity=95 time=0
EXTRACT: note_on channel=4 note=53 velocity=95 time=0
EXTRACT: note_off channel=4 note=53 velocity=95 time=0.4166665
EXTRACT: note_on channel=4 note=62 velocity=95 time=0
EXTRACT: note_on channel=4 note=58 velocity=95 time=0
EXTRACT: note_on channel=4 note=53 velocity=95 time=0
EXTRACT: note_on channel=4 note=46 velocity=95 time=0
EXTRACT: note_off channel=4 note=62 velocity=95 time=0.4166665
EXTRACT: note_off channel=4 note=58 velocity=95 time=0
EXTRACT: note_off channel=4 note=53 velocity=95 time=0
EXTRACT: note_off channel=4 note=46 velocity=95 time=0
EXTRACT: note_on channel=4 note=53 velocity=95 time=0
EXTRACT: note_off channel=4 note=53 velocity=95 time=0.4166665
EXTRACT: note_on channel=4 note=58 velocity=95 time=0
EXTRACT: note_off channel=4 note=58 velocity=95 time=0.4166665
EXTRACT: note_on channel=4 note=62 velocity=95 time=0
EXTRACT: note_off channel=4 note=62 velocity=95 time=0.4166665
EXTRACT: note_on channel=4 note=79 velocity=95 time=0
EXTRACT: note_on channel=4 note=67 velocity=95 time=0
EXTRACT: note_off channel=4 note=79 velocity=95 time=0.4166665
EXTRACT: note_off channel=4 note=67 velocity=95 time=0
EXTRACT: note_on channel=4 note=53 velocity=95 time=0
EXTRACT: note_off channel=4 note=53 velocity=95 time=0.4166665
EXTRACT: note_on channel=4 note=77 velocity=95 time=0
EXTRACT: note_on channel=4 note=65 velocity=95 time=0
EXTRACT: note_off channel=4 note=77 velocity=95 time=0.4166665
EXTRACT: note_off channel=4 note=65 velocity=95 time=0
EXTRACT: note_on channel=4 note=53 velocity=95 time=0
EXTRACT: note_off channel=4 note=53 velocity=95 time=0.4166665
EXTRACT: note_on channel=4 note=62 velocity=95 time=0
EXTRACT: note_on channel=4 note=58 velocity=95 time=0
EXTRACT: note_on channel=4 note=53 velocity=95 time=0
EXTRACT: note_on channel=4 note=46 velocity=95 time=0
EXTRACT: note_off channel=4 note=62 velocity=95 time=0.4166665
EXTRACT: note_off channel=4 note=58 velocity=95 time=0
EXTRACT: note_off channel=4 note=53 velocity=95 time=0
EXTRACT: note_off channel=4 note=46 velocity=95 time=0
EXTRACT: note_on channel=4 note=53 velocity=95 time=0
EXTRACT: note_off channel=4 note=53 velocity=95 time=0.4166665
EXTRACT: note_on channel=4 note=58 velocity=95 time=0
EXTRACT: note_off channel=4 note=58 velocity=95 time=0.4166665
EXTRACT: note_on channel=4 note=62 velocity=95 time=0
EXTRACT: note_off channel=4 note=62 velocity=95 time=0.4166665
EXTRACT: note_on channel=4 note=79 velocity=95 time=0
EXTRACT: note_on channel=4 note=67 velocity=95 time=0
EXTRACT: note_off channel=4 note=79 velocity=95 time=0.4166665
EXTRACT: note_off channel=4 note=67 velocity=95 time=0
EXTRACT: note_on channel=4 note=53 velocity=95 time=0
EXTRACT: note_off channel=4 note=53 velocity=95 time=0.4166665
EXTRACT: note_on channel=4 note=77 velocity=95 time=0
EXTRACT: note_on channel=4 note=65 velocity=95 time=0
EXTRACT: note_off channel=4 note=77 velocity=95 time=0.4166665
EXTRACT: note_off channel=4 note=65 velocity=95 time=0
EXTRACT: note_on channel=4 note=53 velocity=95 time=0
EXTRACT: note_off channel=4 note=53 velocity=95 time=0.4166665
EXTRACT: note_on channel=4 note=58 velocity=95 time=0
EXTRACT: note_on channel=4 note=55 velocity=95 time=0
EXTRACT: note_on channel=4 note=50 velocity=95 time=0
EXTRACT: note_on channel=4 note=43 velocity=95 time=0
EXTRACT: note_off channel=4 note=58 velocity=95 time=0.4166665
EXTRACT: note_off channel=4 note=55 velocity=95 time=0
EXTRACT: note_off channel=4 note=50 velocity=95 time=0
EXTRACT: note_off channel=4 note=43 velocity=95 time=0
EXTRACT: note_on channel=4 note=55 velocity=95 time=0
EXTRACT: note_off channel=4 note=55 velocity=95 time=0.4166665
EXTRACT: note_on channel=4 note=58 velocity=95 time=0
EXTRACT: note_off channel=4 note=58 velocity=95 time=0.4166665
EXTRACT: note_on channel=4 note=62 velocity=95 time=0
EXTRACT: note_off channel=4 note=62 velocity=95 time=0.4166665
EXTRACT: note_on channel=4 note=81 velocity=95 time=0
EXTRACT: note_on channel=4 note=69 velocity=95 time=0
EXTRACT: note_off channel=4 note=81 velocity=95 time=0.4166665
EXTRACT: note_off channel=4 note=69 velocity=95 time=0
EXTRACT: note_on channel=4 note=55 velocity=95 time=0
EXTRACT: note_off channel=4 note=55 velocity=95 time=0.4166665
EXTRACT: note_on channel=4 note=79 velocity=95 time=0
EXTRACT: note_on channel=4 note=67 velocity=95 time=0
EXTRACT: note_off channel=4 note=79 velocity=95 time=0.4166665
EXTRACT: note_off channel=4 note=67 velocity=95 time=0
EXTRACT: note_on channel=4 note=55 velocity=95 time=0
EXTRACT: note_off channel=4 note=55 velocity=95 time=0.4166665
EXTRACT: note_on channel=4 note=63 velocity=95 time=0
EXTRACT: note_on channel=4 note=60 velocity=95 time=0
EXTRACT: note_on channel=4 note=55 velocity=95 time=0
EXTRACT: note_on channel=4 note=48 velocity=95 time=0
EXTRACT: note_off channel=4 note=63 velocity=95 time=0.4166665
EXTRACT: note_off channel=4 note=60 velocity=95 time=0
EXTRACT: note_off channel=4 note=55 velocity=95 time=0
EXTRACT: note_off channel=4 note=48 velocity=95 time=0
EXTRACT: note_on channel=4 note=60 velocity=95 time=0
EXTRACT: note_off channel=4 note=60 velocity=95 time=0.4166665
EXTRACT: note_on channel=4 note=63 velocity=95 time=0
EXTRACT: note_off channel=4 note=63 velocity=95 time=0.4166665
EXTRACT: note_on channel=4 note=67 velocity=95 time=0
EXTRACT: note_off channel=4 note=67 velocity=95 time=0.4166665
EXTRACT: note_on channel=4 note=86 velocity=95 time=0
EXTRACT: note_on channel=4 note=74 velocity=95 time=0
EXTRACT: note_off channel=4 note=86 velocity=95 time=0.4166665
EXTRACT: note_off channel=4 note=74 velocity=95 time=0
EXTRACT: note_on channel=4 note=60 velocity=95 time=0
EXTRACT: note_off channel=4 note=60 velocity=95 time=0.4166665
EXTRACT: note_on channel=4 note=84 velocity=95 time=0
EXTRACT: note_on channel=4 note=72 velocity=95 time=0
EXTRACT: note_off channel=4 note=84 velocity=95 time=0.4166665
EXTRACT: note_off channel=4 note=72 velocity=95 time=0
EXTRACT: note_on channel=4 note=60 velocity=95 time=0
EXTRACT: note_off channel=4 note=60 velocity=95 time=0.4166665
EXTRACT: note_on channel=4 note=70 velocity=95 time=0
EXTRACT: note_on channel=4 note=63 velocity=95 time=0
EXTRACT: note_on channel=4 note=60 velocity=95 time=0
EXTRACT: note_on channel=4 note=55 velocity=95 time=0
EXTRACT: note_on channel=4 note=48 velocity=95 time=0
EXTRACT: note_off channel=4 note=70 velocity=95 time=0.4166665
EXTRACT: note_off channel=4 note=63 velocity=95 time=0
EXTRACT: note_off channel=4 note=60 velocity=95 time=0
EXTRACT: note_off channel=4 note=55 velocity=95 time=0
EXTRACT: note_off channel=4 note=48 velocity=95 time=0
EXTRACT: note_on channel=4 note=60 velocity=95 time=0
EXTRACT: note_off channel=4 note=60 velocity=95 time=0.4166665
EXTRACT: note_on channel=4 note=63 velocity=95 time=0
EXTRACT: note_off channel=4 note=63 velocity=95 time=0.4166665
EXTRACT: note_on channel=4 note=67 velocity=95 time=0
EXTRACT: note_off channel=4 note=67 velocity=95 time=0.4166665
EXTRACT: note_on channel=4 note=69 velocity=95 time=0
EXTRACT: note_on channel=4 note=65 velocity=95 time=0
EXTRACT: note_on channel=4 note=60 velocity=95 time=0
EXTRACT: note_on channel=4 note=53 velocity=95 time=0
EXTRACT: note_off channel=4 note=69 velocity=95 time=0.4166665
EXTRACT: note_off channel=4 note=65 velocity=95 time=0
EXTRACT: note_off channel=4 note=60 velocity=95 time=0
EXTRACT: note_off channel=4 note=53 velocity=95 time=0
EXTRACT: note_on channel=4 note=63 velocity=95 time=0
EXTRACT: note_off channel=4 note=63 velocity=95 time=0.4166665
EXTRACT: note_on channel=4 note=65 velocity=95 time=0
EXTRACT: note_off channel=4 note=65 velocity=95 time=0.4166665
EXTRACT: note_on channel=4 note=72 velocity=95 time=0
EXTRACT: note_off channel=4 note=72 velocity=95 time=0.4166665
EXTRACT: note_on channel=4 note=62 velocity=95 time=0
EXTRACT: note_on channel=4 note=58 velocity=95 time=0
EXTRACT: note_on channel=4 note=53 velocity=95 time=0
EXTRACT: note_on channel=4 note=46 velocity=95 time=0
EXTRACT: note_off channel=4 note=62 velocity=95 time=0.4166665
EXTRACT: note_off channel=4 note=58 velocity=95 time=0
EXTRACT: note_off channel=4 note=53 velocity=95 time=0
EXTRACT: note_off channel=4 note=46 velocity=95 time=0
EXTRACT: note_on channel=4 note=53 velocity=95 time=0
EXTRACT: note_off channel=4 note=53 velocity=95 time=0.4166665
EXTRACT: note_on channel=4 note=58 velocity=95 time=0
EXTRACT: note_off channel=4 note=58 velocity=95 time=0.4166665
EXTRACT: note_on channel=4 note=62 velocity=95 time=0
EXTRACT: note_off channel=4 note=62 velocity=95 time=0.4166665
EXTRACT: note_on channel=4 note=79 velocity=95 time=0
EXTRACT: note_on channel=4 note=67 velocity=95 time=0
EXTRACT: note_off channel=4 note=79 velocity=95 time=0.4166665
EXTRACT: note_off channel=4 note=67 velocity=95 time=0
EXTRACT: note_on channel=4 note=53 velocity=95 time=0
EXTRACT: note_off channel=4 note=53 velocity=95 time=0.4166665
EXTRACT: note_on channel=4 note=77 velocity=95 time=0
EXTRACT: note_on channel=4 note=65 velocity=95 time=0
EXTRACT: note_off channel=4 note=77 velocity=95 time=0.4166665
EXTRACT: note_off channel=4 note=65 velocity=95 time=0
EXTRACT: note_on channel=4 note=53 velocity=95 time=0
EXTRACT: note_off channel=4 note=53 velocity=95 time=0.4166665
EXTRACT: note_on channel=4 note=58 velocity=95 time=0
EXTRACT: note_on channel=4 note=55 velocity=95 time=0
EXTRACT: note_on channel=4 note=50 velocity=95 time=0
EXTRACT: note_on channel=4 note=43 velocity=95 time=0
EXTRACT: note_off channel=4 note=58 velocity=95 time=0.4166665
EXTRACT: note_off channel=4 note=55 velocity=95 time=0
EXTRACT: note_off channel=4 note=50 velocity=95 time=0
EXTRACT: note_off channel=4 note=43 velocity=95 time=0
EXTRACT: note_on channel=4 note=55 velocity=95 time=0
EXTRACT: note_off channel=4 note=55 velocity=95 time=0.4166665
EXTRACT: note_on channel=4 note=58 velocity=95 time=0
EXTRACT: note_off channel=4 note=58 velocity=95 time=0.4166665
EXTRACT: note_on channel=4 note=62 velocity=95 time=0
EXTRACT: note_off channel=4 note=62 velocity=95 time=0.4166665
EXTRACT: note_on channel=4 note=81 velocity=95 time=0
EXTRACT: note_on channel=4 note=69 velocity=95 time=0
EXTRACT: note_off channel=4 note=81 velocity=95 time=0.4166665
EXTRACT: note_off channel=4 note=69 velocity=95 time=0
EXTRACT: note_on channel=4 note=55 velocity=95 time=0
EXTRACT: note_off channel=4 note=55 velocity=95 time=0.4166665
EXTRACT: note_on channel=4 note=79 velocity=95 time=0
EXTRACT: note_on channel=4 note=67 velocity=95 time=0
EXTRACT: note_off channel=4 note=79 velocity=95 time=0.4166665
EXTRACT: note_off channel=4 note=67 velocity=95 time=0
EXTRACT: note_on channel=4 note=55 velocity=95 time=0
EXTRACT: note_off channel=4 note=55 velocity=95 time=0.4166665
EXTRACT: note_on channel=4 note=63 velocity=95 time=0
EXTRACT: note_on channel=4 note=60 velocity=95 time=0
EXTRACT: note_on channel=4 note=55 velocity=95 time=0
EXTRACT: note_on channel=4 note=48 velocity=95 time=0
EXTRACT: note_off channel=4 note=63 velocity=95 time=0.4166665
EXTRACT: note_off channel=4 note=60 velocity=95 time=0
EXTRACT: note_off channel=4 note=55 velocity=95 time=0
EXTRACT: note_off channel=4 note=48 velocity=95 time=0
EXTRACT: note_on channel=4 note=60 velocity=95 time=0
EXTRACT: note_off channel=4 note=60 velocity=95 time=0.4166665
EXTRACT: note_on channel=4 note=63 velocity=95 time=0
EXTRACT: note_off channel=4 note=63 velocity=95 time=0.4166665
EXTRACT: note_on channel=4 note=67 velocity=95 time=0
EXTRACT: note_off channel=4 note=67 velocity=95 time=0.4166665
EXTRACT: note_on channel=4 note=63 velocity=95 time=0
EXTRACT: note_on channel=4 note=59 velocity=95 time=0
EXTRACT: note_on channel=4 note=55 velocity=95 time=0
EXTRACT: note_on channel=4 note=47 velocity=95 time=0
EXTRACT: note_off channel=4 note=63 velocity=95 time=0.4166665
EXTRACT: note_off channel=4 note=59 velocity=95 time=0
EXTRACT: note_off channel=4 note=55 velocity=95 time=0
EXTRACT: note_off channel=4 note=47 velocity=95 time=0
EXTRACT: note_on channel=4 note=67 velocity=95 time=0
EXTRACT: note_off channel=4 note=67 velocity=95 time=0.4166665
EXTRACT: note_on channel=4 note=63 velocity=95 time=0
EXTRACT: note_on channel=4 note=58 velocity=95 time=0
EXTRACT: note_on channel=4 note=46 velocity=95 time=0
EXTRACT: note_off channel=4 note=63 velocity=95 time=0.4166665
EXTRACT: note_off channel=4 note=58 velocity=95 time=0
EXTRACT: note_off channel=4 note=46 velocity=95 time=0
EXTRACT: note_on channel=4 note=67 velocity=95 time=0
EXTRACT: note_off channel=4 note=67 velocity=95 time=0.4166665
EXTRACT: note_on channel=4 note=63 velocity=95 time=0
EXTRACT: note_on channel=4 note=57 velocity=95 time=0
EXTRACT: note_on channel=4 note=51 velocity=95 time=0
EXTRACT: note_on channel=4 note=45 velocity=95 time=0
EXTRACT: note_off channel=4 note=63 velocity=95 time=0.4166665
EXTRACT: note_off channel=4 note=57 velocity=95 time=0
EXTRACT: note_off channel=4 note=51 velocity=95 time=0
EXTRACT: note_off channel=4 note=45 velocity=95 time=0
EXTRACT: note_on channel=4 note=57 velocity=95 time=0
EXTRACT: note_off channel=4 note=57 velocity=95 time=0.4166665
EXTRACT: note_on channel=4 note=63 velocity=95 time=0
EXTRACT: note_off channel=4 note=63 velocity=95 time=0.4166665
EXTRACT: note_on channel=4 note=67 velocity=95 time=0
EXTRACT: note_off channel=4 note=67 velocity=95 time=0.4166665
EXTRACT: note_on channel=4 note=63 velocity=95 time=0
EXTRACT: note_on channel=4 note=56 velocity=95 time=0
EXTRACT: note_on channel=4 note=44 velocity=95 time=0
EXTRACT: note_off channel=4 note=63 velocity=95 time=0.4166665
EXTRACT: note_off channel=4 note=56 velocity=95 time=0
EXTRACT: note_off channel=4 note=44 velocity=95 time=0
EXTRACT: note_on channel=4 note=67 velocity=95 time=0
EXTRACT: note_off channel=4 note=67 velocity=95 time=0.4166665
EXTRACT: note_on channel=4 note=63 velocity=95 time=0
EXTRACT: note_on channel=4 note=55 velocity=95 time=0
EXTRACT: note_on channel=4 note=43 velocity=95 time=0
EXTRACT: note_off channel=4 note=63 velocity=95 time=0.4166665
EXTRACT: note_off channel=4 note=55 velocity=95 time=0
EXTRACT: note_off channel=4 note=43 velocity=95 time=0
EXTRACT: note_on channel=4 note=67 velocity=95 time=0
EXTRACT: note_on channel=0 note=52 velocity=95 time=0.4166665
EXTRACT: note_on channel=0 note=45 velocity=95 time=0
EXTRACT: note_off channel=4 note=67 velocity=95 time=0
EXTRACT: note_on channel=4 note=63 velocity=95 time=0
EXTRACT: note_on channel=4 note=58 velocity=95 time=0
EXTRACT: note_on channel=4 note=51 velocity=95 time=0
EXTRACT: note_off channel=4 note=63 velocity=95 time=0.4166665
EXTRACT: note_off channel=4 note=58 velocity=95 time=0
EXTRACT: note_off channel=4 note=51 velocity=95 time=0
EXTRACT: note_on channel=4 note=63 velocity=95 time=0
EXTRACT: note_off channel=4 note=63 velocity=95 time=0.4166665
EXTRACT: note_on channel=4 note=75 velocity=95 time=0
EXTRACT: note_on channel=4 note=70 velocity=95 time=0
EXTRACT: note_on channel=4 note=67 velocity=95 time=0
EXTRACT: note_off channel=4 note=75 velocity=95 time=0.4166665
EXTRACT: note_off channel=4 note=70 velocity=95 time=0
EXTRACT: note_off channel=4 note=67 velocity=95 time=0
EXTRACT: note_on channel=4 note=63 velocity=95 time=0
EXTRACT: note_off channel=0 note=52 velocity=95 time=0.4166665
EXTRACT: note_off channel=0 note=45 velocity=95 time=0
EXTRACT: note_on channel=0 note=51 velocity=95 time=0
EXTRACT: note_on channel=0 note=44 velocity=95 time=0
EXTRACT: note_off channel=4 note=63 velocity=95 time=0
EXTRACT: note_on channel=4 note=70 velocity=95 time=0
EXTRACT: note_on channel=4 note=67 velocity=95 time=0
EXTRACT: note_off channel=4 note=70 velocity=95 time=0.4166665
EXTRACT: note_off channel=4 note=67 velocity=95 time=0
EXTRACT: note_on channel=4 note=63 velocity=95 time=0
EXTRACT: note_off channel=0 note=51 velocity=95 time=0.4166665
EXTRACT: note_off channel=0 note=44 velocity=95 time=0
EXTRACT: note_on channel=0 note=43 velocity=95 time=0
EXTRACT: note_off channel=4 note=63 velocity=95 time=0
EXTRACT: note_on channel=4 note=62 velocity=95 time=0
EXTRACT: note_on channel=4 note=58 velocity=95 time=0
EXTRACT: note_on channel=4 note=50 velocity=95 time=0
EXTRACT: note_off channel=4 note=62 velocity=95 time=0.4166665
EXTRACT: note_off channel=4 note=58 velocity=95 time=0
EXTRACT: note_off channel=4 note=50 velocity=95 time=0
EXTRACT: note_on channel=4 note=70 velocity=95 time=0
EXTRACT: note_on channel=4 note=65 velocity=95 time=0
EXTRACT: note_off channel=0 note=43 velocity=95 time=0.20833325
EXTRACT: note_on channel=0 note=40 velocity=95 time=0
EXTRACT: note_off channel=0 note=40 velocity=95 time=0.20833325
EXTRACT: note_on channel=0 note=51 velocity=95 time=0
EXTRACT: note_off channel=4 note=70 velocity=95 time=0
EXTRACT: note_off channel=4 note=65 velocity=95 time=0
EXTRACT: note_on channel=4 note=67 velocity=95 time=0
EXTRACT: note_on channel=4 note=63 velocity=95 time=0
EXTRACT: note_on channel=4 note=60 velocity=95 time=0
EXTRACT: note_on channel=4 note=55 velocity=95 time=0
EXTRACT: note_on channel=4 note=48 velocity=95 time=0
EXTRACT: note_off channel=4 note=67 velocity=95 time=0.4166665
EXTRACT: note_off channel=4 note=63 velocity=95 time=0
EXTRACT: note_off channel=4 note=60 velocity=95 time=0
EXTRACT: note_off channel=4 note=55 velocity=95 time=0
EXTRACT: note_off channel=4 note=48 velocity=95 time=0
EXTRACT: note_on channel=4 note=60 velocity=95 time=0
EXTRACT: note_off channel=4 note=60 velocity=95 time=0.4166665
EXTRACT: note_on channel=4 note=63 velocity=95 time=0
EXTRACT: note_off channel=4 note=63 velocity=95 time=0.4166665
EXTRACT: note_on channel=4 note=67 velocity=95 time=0
EXTRACT: note_off channel=4 note=67 velocity=95 time=0.4166665
EXTRACT: note_on channel=4 note=86 velocity=95 time=0
EXTRACT: note_on channel=4 note=74 velocity=95 time=0
EXTRACT: note_off channel=4 note=86 velocity=95 time=0.4166665
EXTRACT: note_off channel=4 note=74 velocity=95 time=0
EXTRACT: note_on channel=4 note=60 velocity=95 time=0
EXTRACT: note_off channel=0 note=51 velocity=95 time=0.4166665
EXTRACT: note_on channel=1 note=50 velocity=95 time=0
EXTRACT: note_off channel=4 note=60 velocity=95 time=0
EXTRACT: note_on channel=4 note=84 velocity=95 time=0
EXTRACT: note_on channel=4 note=72 velocity=95 time=0
EXTRACT: pitchwheel channel=1 pitch=-128 time=0.104166625
EXTRACT: pitchwheel channel=1 pitch=-384 time=0.104166625
EXTRACT: pitchwheel channel=1 pitch=-640 time=0.104166625
EXTRACT: pitchwheel channel=1 pitch=-896 time=0.104166625
EXTRACT: note_off channel=4 note=84 velocity=95 time=0
EXTRACT: note_off channel=4 note=72 velocity=95 time=0
EXTRACT: note_on channel=4 note=60 velocity=95 time=0
EXTRACT: pitchwheel channel=1 pitch=-1152 time=0.104166625
EXTRACT: pitchwheel channel=1 pitch=-1408 time=0.104166625
EXTRACT: pitchwheel channel=1 pitch=0 time=0
EXTRACT: note_off channel=1 note=50 velocity=95 time=0
EXTRACT: note_on channel=0 note=48 velocity=95 time=0
EXTRACT: note_off channel=0 note=48 velocity=95 time=0.20833325
EXTRACT: note_on channel=0 note=48 velocity=95 time=0
EXTRACT: note_off channel=4 note=60 velocity=95 time=0
EXTRACT: note_on channel=4 note=68 velocity=95 time=0
EXTRACT: note_on channel=4 note=65 velocity=95 time=0
EXTRACT: note_on channel=4 note=60 velocity=95 time=0
EXTRACT: note_on channel=4 note=53 velocity=95 time=0
EXTRACT: note_off channel=4 note=68 velocity=95 time=0.4166665
EXTRACT: note_off channel=4 note=65 velocity=95 time=0
EXTRACT: note_off channel=4 note=60 velocity=95 time=0
EXTRACT: note_off channel=4 note=53 velocity=95 time=0
EXTRACT: note_on channel=4 note=65 velocity=95 time=0
EXTRACT: note_off channel=4 note=65 velocity=95 time=0.4166665
EXTRACT: note_on channel=4 note=72 velocity=95 time=0
EXTRACT: note_on channel=4 note=68 velocity=95 time=0
EXTRACT: note_off channel=4 note=72 velocity=95 time=0.4166665
EXTRACT: note_off channel=4 note=68 velocity=95 time=0
EXTRACT: note_on channel=4 note=72 velocity=95 time=0
EXTRACT: note_on channel=4 note=64 velocity=95 time=0
EXTRACT: note_on channel=4 note=52 velocity=95 time=0
EXTRACT: note_off channel=4 note=72 velocity=95 time=0.4166665
EXTRACT: note_off channel=4 note=64 velocity=95 time=0
EXTRACT: note_off channel=4 note=52 velocity=95 time=0
EXTRACT: note_on channel=4 note=72 velocity=95 time=0
EXTRACT: note_on channel=4 note=63 velocity=95 time=0
EXTRACT: note_on channel=4 note=56 velocity=95 time=0
EXTRACT: note_on channel=4 note=51 velocity=95 time=0
EXTRACT: note_off channel=4 note=72 velocity=95 time=0.4166665
EXTRACT: note_off channel=4 note=63 velocity=95 time=0
EXTRACT: note_off channel=4 note=56 velocity=95 time=0
EXTRACT: note_off channel=4 note=51 velocity=95 time=0
EXTRACT: note_on channel=4 note=63 velocity=95 time=0
EXTRACT: note_off channel=4 note=63 velocity=95 time=0.4166665
EXTRACT: note_on channel=4 note=72 velocity=95 time=0
EXTRACT: note_on channel=4 note=62 velocity=95 time=0
EXTRACT: note_on channel=4 note=56 velocity=95 time=0
EXTRACT: note_on channel=4 note=50 velocity=95 time=0
EXTRACT: note_off channel=0 note=48 velocity=95 time=0.4166665
EXTRACT: note_on channel=0 note=48 velocity=95 time=0
EXTRACT: note_off channel=4 note=72 velocity=95 time=0
EXTRACT: note_off channel=4 note=62 velocity=95 time=0
EXTRACT: note_off channel=4 note=56 velocity=95 time=0
EXTRACT: note_off channel=4 note=50 velocity=95 time=0
EXTRACT: note_on channel=4 note=62 velocity=95 time=0
EXTRACT: note_off channel=0 note=48 velocity=95 time=0.13888883333333332
EXTRACT: note_on channel=0 note=45 velocity=95 time=0
EXTRACT: note_off channel=0 note=45 velocity=95 time=0.13888883333333332
EXTRACT: note_on channel=0 note=41 velocity=95 time=0
EXTRACT: note_off channel=0 note=41 velocity=95 time=0.13888883333333332
EXTRACT: note_on channel=0 note=41 velocity=95 time=0
EXTRACT: note_off channel=4 note=62 velocity=95 time=0
EXTRACT: note_off channel=0 note=41 velocity=95 time=1.2499995
EXTRACT: note_on channel=0 note=52 velocity=95 time=0
EXTRACT: note_on channel=0 note=45 velocity=95 time=0
EXTRACT: note_off channel=0 note=52 velocity=95 time=0.4166665
EXTRACT: note_off channel=0 note=45 velocity=95 time=0
EXTRACT: note_on channel=0 note=51 velocity=95 time=0
EXTRACT: note_on channel=0 note=44 velocity=95 time=0
EXTRACT: note_off channel=0 note=51 velocity=95 time=0.833333
EXTRACT: note_off channel=0 note=44 velocity=95 time=0
EXTRACT: note_on channel=0 note=50 velocity=95 time=0
EXTRACT: note_on channel=0 note=43 velocity=95 time=0
EXTRACT: note_off channel=0 note=50 velocity=95 time=0.833333
EXTRACT: note_off channel=0 note=43 velocity=95 time=0
EXTRACT: note_on channel=0 note=46 velocity=95 time=0
EXTRACT: note_on channel=4 note=62 velocity=95 time=0
EXTRACT: note_on channel=4 note=58 velocity=95 time=0
EXTRACT: note_on channel=4 note=53 velocity=95 time=0
EXTRACT: note_on channel=4 note=46 velocity=95 time=0
EXTRACT: note_off channel=0 note=46 velocity=95 time=0.4166665
EXTRACT: note_on channel=0 note=46 velocity=95 time=0
EXTRACT: note_off channel=0 note=46 velocity=95 time=0.20833325
EXTRACT: note_on channel=0 note=46 velocity=95 time=0
EXTRACT: note_off channel=4 note=62 velocity=95 time=0
EXTRACT: note_off channel=4 note=58 velocity=95 time=0
EXTRACT: note_off channel=4 note=53 velocity=95 time=0
EXTRACT: note_off channel=4 note=46 velocity=95 time=0
EXTRACT: note_on channel=4 note=65 velocity=95 time=0
EXTRACT: note_on channel=4 note=62 velocity=95 time=0
EXTRACT: note_on channel=4 note=58 velocity=95 time=0
EXTRACT: note_off channel=0 note=46 velocity=95 time=0.20833325
EXTRACT: note_on channel=0 note=46 velocity=95 time=0
EXTRACT: note_off channel=4 note=65 velocity=95 time=0
EXTRACT: note_off channel=4 note=62 velocity=95 time=0
EXTRACT: note_off channel=4 note=58 velocity=95 time=0
EXTRACT: note_on channel=4 note=65 velocity=95 time=0
EXTRACT: note_on channel=4 note=62 velocity=95 time=0
EXTRACT: note_on channel=4 note=58 velocity=95 time=0
EXTRACT: note_off channel=0 note=46 velocity=95 time=0.4166665
EXTRACT: note_on channel=0 note=46 velocity=95 time=0
EXTRACT: note_off channel=4 note=65 velocity=95 time=0
EXTRACT: note_off channel=4 note=62 velocity=95 time=0
EXTRACT: note_off channel=4 note=58 velocity=95 time=0
EXTRACT: note_on channel=4 note=46 velocity=95 time=0
EXTRACT: note_off channel=0 note=46 velocity=95 time=0.20833325
EXTRACT: note_on channel=0 note=46 velocity=95 time=0
EXTRACT: note_off channel=4 note=46 velocity=95 time=0
EXTRACT: note_on channel=4 note=67 velocity=95 time=0
EXTRACT: note_on channel=4 note=62 velocity=95 time=0
EXTRACT: note_on channel=4 note=58 velocity=95 time=0
EXTRACT: note_off channel=0 note=46 velocity=95 time=0.20833325
EXTRACT: note_on channel=0 note=46 velocity=95 time=0
EXTRACT: note_off channel=4 note=67 velocity=95 time=0
EXTRACT: note_off channel=4 note=62 velocity=95 time=0
EXTRACT: note_off channel=4 note=58 velocity=95 time=0
EXTRACT: note_on channel=4 note=67 velocity=95 time=0
EXTRACT: note_on channel=4 note=62 velocity=95 time=0
EXTRACT: note_on channel=4 note=58 velocity=95 time=0
EXTRACT: note_off channel=0 note=46 velocity=95 time=0.4166665
EXTRACT: note_on channel=0 note=46 velocity=95 time=0
EXTRACT: note_off channel=4 note=67 velocity=95 time=0
EXTRACT: note_off channel=4 note=62 velocity=95 time=0
EXTRACT: note_off channel=4 note=58 velocity=95 time=0
EXTRACT: note_on channel=4 note=46 velocity=95 time=0
EXTRACT: note_off channel=0 note=46 velocity=95 time=0.20833325
EXTRACT: note_on channel=0 note=46 velocity=95 time=0
EXTRACT: note_off channel=4 note=46 velocity=95 time=0
EXTRACT: note_on channel=4 note=68 velocity=95 time=0
EXTRACT: note_on channel=4 note=62 velocity=95 time=0
EXTRACT: note_on channel=4 note=58 velocity=95 time=0
EXTRACT: note_off channel=0 note=46 velocity=95 time=0.20833325
EXTRACT: note_on channel=0 note=46 velocity=95 time=0
EXTRACT: note_off channel=4 note=68 velocity=95 time=0
EXTRACT: note_off channel=4 note=62 velocity=95 time=0
EXTRACT: note_off channel=4 note=58 velocity=95 time=0
EXTRACT: note_on channel=4 note=68 velocity=95 time=0
EXTRACT: note_on channel=4 note=62 velocity=95 time=0
EXTRACT: note_on channel=4 note=58 velocity=95 time=0
EXTRACT: note_off channel=0 note=46 velocity=95 time=0.20833325
EXTRACT: note_on channel=0 note=46 velocity=95 time=0
EXTRACT: note_off channel=4 note=68 velocity=95 time=0
EXTRACT: note_off channel=4 note=62 velocity=95 time=0
EXTRACT: note_off channel=4 note=58 velocity=95 time=0
EXTRACT: note_on channel=4 note=46 velocity=95 time=0
EXTRACT: note_off channel=0 note=46 velocity=95 time=0.20833325
EXTRACT: note_on channel=0 note=46 velocity=95 time=0
EXTRACT: note_off channel=4 note=46 velocity=95 time=0
EXTRACT: note_on channel=4 note=46 velocity=95 time=0
EXTRACT: note_off channel=0 note=46 velocity=95 time=0.4166665
EXTRACT: note_on channel=0 note=51 velocity=95 time=0
EXTRACT: note_on channel=0 note=44 velocity=95 time=0
EXTRACT: note_on channel=2 note=58 velocity=95 time=0
EXTRACT: note_off channel=4 note=46 velocity=95 time=0
EXTRACT: note_on channel=4 note=67 velocity=95 time=0
EXTRACT: note_on channel=4 note=63 velocity=95 time=0
EXTRACT: note_on channel=4 note=58 velocity=95 time=0
EXTRACT: note_on channel=4 note=51 velocity=95 time=0
EXTRACT: note_off channel=4 note=67 velocity=95 time=0.4166665
EXTRACT: note_off channel=4 note=63 velocity=95 time=0
EXTRACT: note_off channel=4 note=58 velocity=95 time=0
EXTRACT: note_off channel=4 note=51 velocity=95 time=0
EXTRACT: note_on channel=4 note=63 velocity=95 time=0
EXTRACT: note_off channel=2 note=58 velocity=95 time=0.4166665
EXTRACT: pitchwheel channel=3 pitch=0 time=0
EXTRACT: note_on channel=3 note=65 velocity=95 time=0
EXTRACT: note_off channel=4 note=63 velocity=95 time=0
EXTRACT: note_on channel=4 note=75 velocity=95 time=0
EXTRACT: note_on channel=4 note=70 velocity=95 time=0
EXTRACT: note_on channel=4 note=67 velocity=95 time=0
EXTRACT: pitchwheel channel=3 pitch=128 time=0.008680552083333333
EXTRACT: pitchwheel channel=3 pitch=256 time=0.008680552083333333
EXTRACT: pitchwheel channel=3 pitch=384 time=0.008680552083333333
EXTRACT: pitchwheel channel=3 pitch=512 time=0.008680552083333333
EXTRACT: pitchwheel channel=3 pitch=640 time=0.008680552083333333
EXTRACT: pitchwheel channel=3 pitch=768 time=0.008680552083333333
EXTRACT: pitchwheel channel=3 pitch=896 time=0.008680552083333333
EXTRACT: pitchwheel channel=3 pitch=1024 time=0.008680552083333333
EXTRACT: pitchwheel channel=3 pitch=1152 time=0.008680552083333333
EXTRACT: pitchwheel channel=3 pitch=1280 time=0.008680552083333333
EXTRACT: pitchwheel channel=3 pitch=1408 time=0.008680552083333333
EXTRACT: pitchwheel channel=3 pitch=1408 time=0.008680552083333333
EXTRACT: pitchwheel channel=3 pitch=1408 time=0.104166625
EXTRACT: pitchwheel channel=3 pitch=1280 time=0.008680552083333333
EXTRACT: pitchwheel channel=3 pitch=1152 time=0.008680552083333333
EXTRACT: pitchwheel channel=3 pitch=1024 time=0.008680552083333333
EXTRACT: pitchwheel channel=3 pitch=896 time=0.008680552083333333
EXTRACT: pitchwheel channel=3 pitch=768 time=0.008680552083333333
EXTRACT: pitchwheel channel=3 pitch=640 time=0.008680552083333333
EXTRACT: pitchwheel channel=3 pitch=512 time=0.008680552083333333
EXTRACT: pitchwheel channel=3 pitch=384 time=0.008680552083333333
EXTRACT: pitchwheel channel=3 pitch=256 time=0.008680552083333333
EXTRACT: pitchwheel channel=3 pitch=128 time=0.008680552083333333
EXTRACT: pitchwheel channel=3 pitch=0 time=0.008680552083333333
EXTRACT: pitchwheel channel=3 pitch=0 time=0.008680552083333333
EXTRACT: pitchwheel channel=3 pitch=0 time=0.104166625
EXTRACT: pitchwheel channel=3 pitch=0 time=0
EXTRACT: note_off channel=3 note=65 velocity=95 time=0
EXTRACT: note_on channel=2 note=63 velocity=95 time=0
EXTRACT: note_off channel=4 note=75 velocity=95 time=0
EXTRACT: note_off channel=4 note=70 velocity=95 time=0
EXTRACT: note_off channel=4 note=67 velocity=95 time=0
EXTRACT: note_on channel=4 note=63 velocity=95 time=0
EXTRACT: note_off channel=0 note=51 velocity=95 time=0.4166665
EXTRACT: note_off channel=0 note=44 velocity=95 time=0
EXTRACT: note_on channel=0 note=50 velocity=95 time=0
EXTRACT: note_on channel=0 note=43 velocity=95 time=0
EXTRACT: note_off channel=2 note=63 velocity=95 time=0
EXTRACT: note_on channel=2 note=70 velocity=95 time=0
EXTRACT: note_off channel=4 note=63 velocity=95 time=0
EXTRACT: note_on channel=4 note=65 velocity=95 time=0
EXTRACT: note_on channel=4 note=62 velocity=95 time=0
EXTRACT: note_on channel=4 note=58 velocity=95 time=0
EXTRACT: note_on channel=4 note=50 velocity=95 time=0
EXTRACT: note_off channel=4 note=65 velocity=95 time=0.4166665
EXTRACT: note_off channel=4 note=62 velocity=95 time=0
EXTRACT: note_off channel=4 note=58 velocity=95 time=0
EXTRACT: note_off channel=4 note=50 velocity=95 time=0
EXTRACT: note_on channel=4 note=62 velocity=95 time=0
EXTRACT: note_off channel=4 note=62 velocity=95 time=0.4166665
EXTRACT: note_on channel=4 note=74 velocity=95 time=0
EXTRACT: note_on channel=4 note=70 velocity=95 time=0
EXTRACT: note_on channel=4 note=65 velocity=95 time=0
EXTRACT: note_off channel=2 note=70 velocity=95 time=0.4166665
EXTRACT: note_on channel=2 note=67 velocity=95 time=0
EXTRACT: note_off channel=4 note=74 velocity=95 time=0
EXTRACT: note_off channel=4 note=70 velocity=95 time=0
EXTRACT: note_off channel=4 note=65 velocity=95 time=0
EXTRACT: note_on channel=4 note=62 velocity=95 time=0
EXTRACT: note_off channel=0 note=50 velocity=95 time=0.4166665
EXTRACT: note_off channel=0 note=43 velocity=95 time=0
EXTRACT: note_on channel=0 note=48 velocity=95 time=0
EXTRACT: note_on channel=0 note=41 velocity=95 time=0
EXTRACT: note_off channel=2 note=67 velocity=95 time=0
EXTRACT: pitchwheel channel=3 pitch=0 time=0
EXTRACT: note_on channel=3 note=70 velocity=95 time=0
EXTRACT: note_off channel=4 note=62 velocity=95 time=0
EXTRACT: note_on channel=4 note=67 velocity=95 time=0
EXTRACT: note_on channel=4 note=63 velocity=95 time=0
EXTRACT: note_on channel=4 note=60 velocity=95 time=0
EXTRACT: note_on channel=4 note=55 velocity=95 time=0
EXTRACT: note_on channel=4 note=48 velocity=95 time=0
EXTRACT: pitchwheel channel=3 pitch=128 time=0.06597219583333333
EXTRACT: pitchwheel channel=3 pitch=256 time=0.06597219583333333
EXTRACT: pitchwheel channel=3 pitch=384 time=0.06597219583333333
EXTRACT: pitchwheel channel=3 pitch=512 time=0.06597219583333333
EXTRACT: pitchwheel channel=3 pitch=640 time=0.06597219583333333
EXTRACT: pitchwheel channel=3 pitch=768 time=0.06597219583333333
EXTRACT: note_off channel=4 note=67 velocity=95 time=0.020833325
EXTRACT: note_off channel=4 note=63 velocity=95 time=0
EXTRACT: note_off channel=4 note=60 velocity=95 time=0
EXTRACT: note_off channel=4 note=55 velocity=95 time=0
EXTRACT: note_off channel=4 note=48 velocity=95 time=0
EXTRACT: note_on channel=4 note=60 velocity=95 time=0
EXTRACT: pitchwheel channel=3 pitch=896 time=0.04513887083333333
EXTRACT: pitchwheel channel=3 pitch=1024 time=0.06597219583333333
EXTRACT: pitchwheel channel=3 pitch=1152 time=0.06597219583333333
EXTRACT: pitchwheel channel=3 pitch=1280 time=0.06597219583333333
EXTRACT: pitchwheel channel=3 pitch=1408 time=0.06597219583333333
EXTRACT: pitchwheel channel=3 pitch=1408 time=0.003472220833333333
EXTRACT: note_off channel=4 note=60 velocity=95 time=0.104166625
EXTRACT: note_on channel=4 note=63 velocity=95 time=0
EXTRACT: note_off channel=4 note=63 velocity=95 time=0.4166665
EXTRACT: note_on channel=4 note=67 velocity=95 time=0
EXTRACT: pitchwheel channel=3 pitch=1408 time=0.20833325
EXTRACT: pitchwheel channel=3 pitch=0 time=0
EXTRACT: note_off channel=3 note=70 velocity=95 time=0
EXTRACT: note_on channel=2 note=72 velocity=95 time=0.20833325
EXTRACT: note_off channel=4 note=67 velocity=95 time=0
EXTRACT: note_on channel=4 note=86 velocity=95 time=0
EXTRACT: note_on channel=4 note=74 velocity=95 time=0
EXTRACT: note_off channel=2 note=72 velocity=95 time=0.4166665
EXTRACT: note_on channel=2 note=74 velocity=95 time=0
EXTRACT: note_off channel=4 note=86 velocity=95 time=0
EXTRACT: note_off channel=4 note=74 velocity=95 time=0
EXTRACT: note_on channel=4 note=60 velocity=95 time=0
EXTRACT: note_off channel=2 note=74 velocity=95 time=0.20833325
EXTRACT: note_on channel=2 note=75 velocity=95 time=0
EXTRACT: note_off channel=2 note=75 velocity=95 time=0.20833325
EXTRACT: note_on channel=2 note=72 velocity=95 time=0
EXTRACT: note_off channel=4 note=60 velocity=95 time=0
EXTRACT: note_on channel=4 note=84 velocity=95 time=0
EXTRACT: note_on channel=4 note=72 velocity=95 time=0
EXTRACT: note_off channel=2 note=72 velocity=95 time=0.4166665
EXTRACT: note_on channel=2 note=74 velocity=95 time=0
EXTRACT: note_off channel=4 note=84 velocity=95 time=0
EXTRACT: note_off channel=4 note=72 velocity=95 time=0
EXTRACT: note_on channel=4 note=60 velocity=95 time=0
EXTRACT: note_off channel=2 note=74 velocity=95 time=0.20833325
EXTRACT: note_on channel=2 note=75 velocity=95 time=0
EXTRACT: note_off channel=0 note=48 velocity=95 time=0.20833325
EXTRACT: note_off channel=0 note=41 velocity=95 time=0
EXTRACT: note_on channel=0 note=41 velocity=95 time=0
EXTRACT: note_off channel=2 note=75 velocity=95 time=0
EXTRACT: pitchwheel channel=3 pitch=0 time=0
EXTRACT: note_on channel=3 note=75 velocity=95 time=0
EXTRACT: note_off channel=4 note=60 velocity=95 time=0
EXTRACT: note_on channel=4 note=68 velocity=95 time=0
EXTRACT: note_on channel=4 note=65 velocity=95 time=0
EXTRACT: note_on channel=4 note=60 velocity=95 time=0
EXTRACT: note_on channel=4 note=53 velocity=95 time=0
EXTRACT: pitchwheel channel=3 pitch=128 time=0.05642358854166667
EXTRACT: pitchwheel channel=3 pitch=256 time=0.05642358854166667
EXTRACT: pitchwheel channel=3 pitch=384 time=0.05642358854166667
EXTRACT: pitchwheel channel=3 pitch=512 time=0.05642358854166667
EXTRACT: pitchwheel channel=3 pitch=640 time=0.05642358854166667
EXTRACT: pitchwheel channel=3 pitch=768 time=0.05642358854166667
EXTRACT: pitchwheel channel=3 pitch=896 time=0.05642358854166667
EXTRACT: note_off channel=4 note=68 velocity=95 time=0.021701380208333333
EXTRACT: note_off channel=4 note=65 velocity=95 time=0
EXTRACT: note_off channel=4 note=60 velocity=95 time=0
EXTRACT: note_off channel=4 note=53 velocity=95 time=0
EXTRACT: note_on channel=4 note=65 velocity=95 time=0
EXTRACT: pitchwheel channel=3 pitch=1024 time=0.03472220833333333
EXTRACT: pitchwheel channel=3 pitch=1152 time=0.05642358854166667
EXTRACT: pitchwheel channel=3 pitch=1280 time=0.05642358854166667
EXTRACT: pitchwheel channel=3 pitch=1408 time=0.05642358854166667
EXTRACT: pitchwheel channel=3 pitch=1408 time=0.004340276041666666
EXTRACT: note_off channel=4 note=65 velocity=95 time=0.20833325
EXTRACT: note_on channel=4 note=72 velocity=95 time=0
EXTRACT: note_on channel=4 note=68 velocity=95 time=0
EXTRACT: note_off channel=0 note=41 velocity=95 time=0.4166665
EXTRACT: note_on channel=0 note=52 velocity=95 time=0
EXTRACT: note_on channel=0 note=45 velocity=95 time=0
EXTRACT: pitchwheel channel=3 pitch=1408 time=0
EXTRACT: pitchwheel channel=3 pitch=0 time=0
EXTRACT: note_off channel=3 note=75 velocity=95 time=0
EXTRACT: note_on channel=2 note=72 velocity=95 time=0
EXTRACT: note_off channel=4 note=72 velocity=95 time=0
EXTRACT: note_off channel=4 note=68 velocity=95 time=0
EXTRACT: note_on channel=4 note=72 velocity=95 time=0
EXTRACT: note_on channel=4 note=64 velocity=95 time=0
EXTRACT: note_on channel=4 note=52 velocity=95 time=0
EXTRACT: note_off channel=2 note=72 velocity=95 time=0.20833325
EXTRACT: note_on channel=2 note=72 velocity=95 time=0
EXTRACT: note_off channel=0 note=52 velocity=95 time=0.20833325
EXTRACT: note_off channel=0 note=45 velocity=95 time=0
EXTRACT: note_on channel=0 note=51 velocity=95 time=0
EXTRACT: note_on channel=0 note=44 velocity=95 time=0
EXTRACT: note_off channel=2 note=72 velocity=95 time=0
EXTRACT: note_on channel=2 note=77 velocity=95 time=0
EXTRACT: note_off channel=4 note=72 velocity=95 time=0
EXTRACT: note_off channel=4 note=64 velocity=95 time=0
EXTRACT: note_off channel=4 note=52 velocity=95 time=0
EXTRACT: note_on channel=4 note=72 velocity=95 time=0
EXTRACT: note_on channel=4 note=63 velocity=95 time=0
EXTRACT: note_on channel=4 note=56 velocity=95 time=0
EXTRACT: note_on channel=4 note=51 velocity=95 time=0
EXTRACT: note_off channel=2 note=77 velocity=95 time=0.20833325
EXTRACT: note_on channel=2 note=79 velocity=95 time=0
EXTRACT: note_off channel=2 note=79 velocity=95 time=0.20833325
EXTRACT: note_on channel=2 note=80 velocity=95 time=0
EXTRACT: note_off channel=4 note=72 velocity=95 time=0
EXTRACT: note_off channel=4 note=63 velocity=95 time=0
EXTRACT: note_off channel=4 note=56 velocity=95 time=0
EXTRACT: note_off channel=4 note=51 velocity=95 time=0
EXTRACT: note_on channel=4 note=63 velocity=95 time=0
EXTRACT: note_off channel=2 note=80 velocity=95 time=0.20833325
EXTRACT: note_on channel=2 note=82 velocity=95 time=0
EXTRACT: note_off channel=0 note=51 velocity=95 time=0.20833325
EXTRACT: note_off channel=0 note=44 velocity=95 time=0
EXTRACT: note_on channel=0 note=50 velocity=95 time=0
EXTRACT: note_on channel=0 note=43 velocity=95 time=0
EXTRACT: note_off channel=2 note=82 velocity=95 time=0
EXTRACT: pitchwheel channel=3 pitch=0 time=0
EXTRACT: note_on channel=3 note=82 velocity=95 time=0
EXTRACT: note_off channel=4 note=63 velocity=95 time=0
EXTRACT: note_on channel=4 note=72 velocity=95 time=0
EXTRACT: note_on channel=4 note=62 velocity=95 time=0
EXTRACT: note_on channel=4 note=56 velocity=95 time=0
EXTRACT: note_on channel=4 note=50 velocity=95 time=0
EXTRACT: pitchwheel channel=3 pitch=128 time=0.03732637395833333
EXTRACT: pitchwheel channel=3 pitch=256 time=0.03732637395833333
EXTRACT: pitchwheel channel=3 pitch=384 time=0.03732637395833333
EXTRACT: pitchwheel channel=3 pitch=512 time=0.03732637395833333
EXTRACT: pitchwheel channel=3 pitch=640 time=0.03732637395833333
EXTRACT: pitchwheel channel=3 pitch=768 time=0.03732637395833333
EXTRACT: pitchwheel channel=3 pitch=896 time=0.03732637395833333
EXTRACT: pitchwheel channel=3 pitch=1024 time=0.03732637395833333
EXTRACT: pitchwheel channel=3 pitch=1152 time=0.03732637395833333
EXTRACT: pitchwheel channel=3 pitch=1280 time=0.03732637395833333
EXTRACT: pitchwheel channel=3 pitch=1408 time=0.03732637395833333
EXTRACT: pitchwheel channel=3 pitch=1408 time=0.006076386458333333
EXTRACT: note_off channel=4 note=72 velocity=95 time=0
EXTRACT: note_off channel=4 note=62 velocity=95 time=0
EXTRACT: note_off channel=4 note=56 velocity=95 time=0
EXTRACT: note_off channel=4 note=50 velocity=95 time=0
EXTRACT: note_on channel=4 note=62 velocity=95 time=0
EXTRACT: note_off channel=0 note=50 velocity=95 time=0.4166665
EXTRACT: note_off channel=0 note=43 velocity=95 time=0
EXTRACT: note_on channel=0 note=46 velocity=95 time=0
EXTRACT: pitchwheel channel=3 pitch=1408 time=0
EXTRACT: pitchwheel channel=3 pitch=0 time=0
EXTRACT: note_off channel=3 note=82 velocity=95 time=0
EXTRACT: note_on channel=2 note=82 velocity=95 time=0
EXTRACT: note_off channel=4 note=62 velocity=95 time=0
EXTRACT: note_on channel=4 note=62 velocity=95 time=0
EXTRACT: note_on channel=4 note=58 velocity=95 time=0
EXTRACT: note_on channel=4 note=53 velocity=95 time=0
EXTRACT: note_on channel=4 note=46 velocity=95 time=0
EXTRACT: note_off channel=2 note=82 velocity=95 time=0.20833325
EXTRACT: note_on channel=2 note=80 velocity=95 time=0
EXTRACT: note_off channel=2 note=80 velocity=95 time=0.13888883333333332
EXTRACT: note_on channel=2 note=79 velocity=95 time=0
EXTRACT: note_off channel=2 note=79 velocity=95 time=0.13888883333333332
EXTRACT: note_on channel=2 note=80 velocity=95 time=0
EXTRACT: note_off channel=0 note=46 velocity=95 time=0.13888883333333332
EXTRACT: note_on channel=0 note=46 velocity=95 time=0
EXTRACT: note_off channel=2 note=80 velocity=95 time=0
EXTRACT: note_on channel=2 note=79 velocity=95 time=0
EXTRACT: note_off channel=4 note=62 velocity=95 time=0
EXTRACT: note_off channel=4 note=58 velocity=95 time=0
EXTRACT: note_off channel=4 note=53 velocity=95 time=0
EXTRACT: note_off channel=4 note=46 velocity=95 time=0
EXTRACT: note_on channel=4 note=65 velocity=95 time=0
EXTRACT: note_on channel=4 note=62 velocity=95 time=0
EXTRACT: note_on channel=4 note=58 velocity=95 time=0
EXTRACT: note_off channel=2 note=79 velocity=95 time=0.0520833125
EXTRACT: note_on channel=2 note=80 velocity=70 time=0
EXTRACT: note_off channel=2 note=80 velocity=70 time=0.0520833125
EXTRACT: note_on channel=2 note=79 velocity=70 time=0
EXTRACT: note_off channel=2 note=79 velocity=70 time=0.0520833125
EXTRACT: note_on channel=2 note=77 velocity=95 time=0
EXTRACT: note_off channel=0 note=46 velocity=95 time=0.0520833125
EXTRACT: note_on channel=0 note=46 velocity=95 time=0
EXTRACT: note_off channel=4 note=65 velocity=95 time=0
EXTRACT: note_off channel=4 note=62 velocity=95 time=0
EXTRACT: note_off channel=4 note=58 velocity=95 time=0
EXTRACT: note_on channel=4 note=65 velocity=95 time=0
EXTRACT: note_on channel=4 note=62 velocity=95 time=0
EXTRACT: note_on channel=4 note=58 velocity=95 time=0
EXTRACT: note_off channel=2 note=77 velocity=95 time=0.08680552083333333
EXTRACT: note_on channel=2 note=79 velocity=95 time=0
EXTRACT: note_off channel=2 note=79 velocity=95 time=0.13888883333333332
EXTRACT: note_on channel=2 note=77 velocity=95 time=0
EXTRACT: note_off channel=2 note=77 velocity=95 time=0.13888883333333332
EXTRACT: note_on channel=2 note=75 velocity=95 time=0
EXTRACT: note_off channel=0 note=46 velocity=95 time=0.0520833125
EXTRACT: note_on channel=0 note=46 velocity=95 time=0
EXTRACT: note_off channel=4 note=65 velocity=95 time=0
EXTRACT: note_off channel=4 note=62 velocity=95 time=0
EXTRACT: note_off channel=4 note=58 velocity=95 time=0
EXTRACT: note_on channel=4 note=46 velocity=95 time=0
EXTRACT: note_off channel=2 note=75 velocity=95 time=0.08680552083333333
EXTRACT: note_on channel=2 note=74 velocity=95 time=0
EXTRACT: note_off channel=0 note=46 velocity=95 time=0.12152772916666665
EXTRACT: note_on channel=0 note=46 velocity=95 time=0
EXTRACT: note_off channel=4 note=46 velocity=95 time=0
EXTRACT: note_on channel=4 note=67 velocity=95 time=0
EXTRACT: note_on channel=4 note=62 velocity=95 time=0
EXTRACT: note_on channel=4 note=58 velocity=95 time=0
EXTRACT: note_off channel=2 note=74 velocity=95 time=0.017361104166666665
EXTRACT: note_on channel=2 note=75 velocity=95 time=0
EXTRACT: note_off channel=2 note=75 velocity=95 time=0.13888883333333332
EXTRACT: note_on channel=2 note=74 velocity=95 time=0
EXTRACT: note_off channel=0 note=46 velocity=95 time=0.0520833125
EXTRACT: note_on channel=0 note=46 velocity=95 time=0
EXTRACT: note_off channel=4 note=67 velocity=95 time=0
EXTRACT: note_off channel=4 note=62 velocity=95 time=0
EXTRACT: note_off channel=4 note=58 velocity=95 time=0
EXTRACT: note_on channel=4 note=67 velocity=95 time=0
EXTRACT: note_on channel=4 note=62 velocity=95 time=0
EXTRACT: note_on channel=4 note=58 velocity=95 time=0
EXTRACT: note_off channel=2 note=74 velocity=95 time=0.0520833125
EXTRACT: note_on channel=2 note=75 velocity=70 time=0
EXTRACT: note_off channel=2 note=75 velocity=70 time=0.104166625
EXTRACT: note_on channel=2 note=74 velocity=70 time=0
EXTRACT: note_off channel=2 note=74 velocity=70 time=0.104166625
EXTRACT: note_on channel=2 note=72 velocity=95 time=0
EXTRACT: note_off channel=0 note=46 velocity=95 time=0.1562499375
EXTRACT: note_on channel=0 note=46 velocity=95 time=0
EXTRACT: note_off channel=4 note=67 velocity=95 time=0
EXTRACT: note_off channel=4 note=62 velocity=95 time=0
EXTRACT: note_off channel=4 note=58 velocity=95 time=0
EXTRACT: note_on channel=4 note=46 velocity=95 time=0
EXTRACT: note_off channel=2 note=72 velocity=95 time=0.0520833125
EXTRACT: note_on channel=2 note=74 velocity=95 time=0
EXTRACT: note_off channel=2 note=74 velocity=95 time=0.13888883333333332
EXTRACT: note_on channel=2 note=72 velocity=95 time=0
EXTRACT: note_off channel=0 note=46 velocity=95 time=0.017361104166666665
EXTRACT: note_on channel=0 note=46 velocity=95 time=0
EXTRACT: note_off channel=4 note=46 velocity=95 time=0
EXTRACT: note_on channel=4 note=68 velocity=95 time=0
EXTRACT: note_on channel=4 note=62 velocity=95 time=0
EXTRACT: note_on channel=4 note=58 velocity=95 time=0
EXTRACT: note_off channel=2 note=72 velocity=95 time=0.12152772916666665
EXTRACT: note_on channel=2 note=70 velocity=95 time=0
EXTRACT: note_off channel=0 note=46 velocity=95 time=0.08680552083333333
EXTRACT: note_on channel=0 note=46 velocity=95 time=0
EXTRACT: note_off channel=4 note=68 velocity=95 time=0
EXTRACT: note_off channel=4 note=62 velocity=95 time=0
EXTRACT: note_off channel=4 note=58 velocity=95 time=0
EXTRACT: note_on channel=4 note=68 velocity=95 time=0
EXTRACT: note_on channel=4 note=62 velocity=95 time=0
EXTRACT: note_on channel=4 note=58 velocity=95 time=0
EXTRACT: note_off channel=4 note=68 velocity=95 time=0.20833325
EXTRACT: note_off channel=4 note=62 velocity=95 time=0
EXTRACT: note_off channel=4 note=58 velocity=95 time=0
EXTRACT: note_on channel=4 note=46 velocity=95 time=0
EXTRACT: note_off channel=0 note=46 velocity=95 time=0.20833325
EXTRACT: note_on channel=0 note=46 velocity=95 time=0
EXTRACT: note_off channel=4 note=46 velocity=95 time=0
EXTRACT: note_on channel=4 note=46 velocity=95 time=0
EXTRACT: note_off channel=0 note=46 velocity=95 time=0.4166665
EXTRACT: note_on channel=0 note=51 velocity=95 time=0
EXTRACT: note_on channel=0 note=44 velocity=95 time=0
EXTRACT: note_off channel=4 note=46 velocity=95 time=0
EXTRACT: note_on channel=4 note=67 velocity=95 time=0
EXTRACT: note_on channel=4 note=63 velocity=95 time=0
EXTRACT: note_on channel=4 note=58 velocity=95 time=0
EXTRACT: note_on channel=4 note=51 velocity=95 time=0
EXTRACT: note_off channel=2 note=70 velocity=95 time=0.27777766666666664
EXTRACT: note_on channel=2 note=70 velocity=95 time=0
EXTRACT: note_off channel=4 note=67 velocity=95 time=0.13888883333333332
EXTRACT: note_off channel=4 note=63 velocity=95 time=0
EXTRACT: note_off channel=4 note=58 velocity=95 time=0
EXTRACT: note_off channel=4 note=51 velocity=95 time=0
EXTRACT: note_on channel=4 note=63 velocity=95 time=0
EXTRACT: note_off channel=2 note=70 velocity=95 time=0.13888883333333332
EXTRACT: note_on channel=2 note=72 velocity=95 time=0
EXTRACT: note_off channel=2 note=72 velocity=95 time=0.13888883333333332
EXTRACT: note_on channel=2 note=74 velocity=95 time=0
EXTRACT: note_off channel=2 note=74 velocity=95 time=0.13888883333333332
EXTRACT: note_on channel=2 note=75 velocity=95 time=0
EXTRACT: note_off channel=4 note=63 velocity=95 time=0
EXTRACT: note_on channel=4 note=75 velocity=95 time=0
EXTRACT: note_on channel=4 note=70 velocity=95 time=0
EXTRACT: note_on channel=4 note=67 velocity=95 time=0
EXTRACT: note_off channel=2 note=75 velocity=95 time=0.13888883333333332
EXTRACT: note_on channel=2 note=77 velocity=95 time=0
EXTRACT: note_off channel=2 note=77 velocity=95 time=0.13888883333333332
EXTRACT: note_on channel=2 note=79 velocity=95 time=0
EXTRACT: note_off channel=0 note=51 velocity=95 time=0.13888883333333332
EXTRACT: note_off channel=0 note=44 velocity=95 time=0
EXTRACT: note_on channel=0 note=51 velocity=95 time=0
EXTRACT: note_on channel=0 note=44 velocity=95 time=0
EXTRACT: note_off channel=2 note=79 velocity=95 time=0
EXTRACT: note_on channel=2 note=80 velocity=95 time=0
EXTRACT: note_off channel=4 note=75 velocity=95 time=0
EXTRACT: note_off channel=4 note=70 velocity=95 time=0
EXTRACT: note_off channel=4 note=67 velocity=95 time=0
EXTRACT: note_on channel=4 note=63 velocity=95 time=0
EXTRACT: note_off channel=2 note=80 velocity=95 time=0.13888883333333332
EXTRACT: note_on channel=2 note=82 velocity=95 time=0
EXTRACT: note_off channel=0 note=51 velocity=95 time=0.06944441666666666
EXTRACT: note_off channel=0 note=44 velocity=95 time=0
EXTRACT: note_on channel=0 note=51 velocity=95 time=0
EXTRACT: note_on channel=0 note=44 velocity=95 time=0
EXTRACT: note_off channel=0 note=51 velocity=95 time=0.20833325
EXTRACT: note_off channel=0 note=44 velocity=95 time=0
EXTRACT: note_on channel=0 note=50 velocity=95 time=0
EXTRACT: note_off channel=2 note=82 velocity=95 time=0
EXTRACT: note_on channel=2 note=70 velocity=95 time=0
EXTRACT: note_off channel=4 note=63 velocity=95 time=0
EXTRACT: note_on channel=4 note=65 velocity=95 time=0
EXTRACT: note_on channel=4 note=62 velocity=95 time=0
EXTRACT: note_on channel=4 note=58 velocity=95 time=0
EXTRACT: note_on channel=4 note=50 velocity=95 time=0
EXTRACT: note_off channel=2 note=70 velocity=95 time=0.20833325
EXTRACT: note_on channel=2 note=72 velocity=95 time=0
EXTRACT: note_off channel=2 note=72 velocity=95 time=0.104166625
EXTRACT: note_on channel=2 note=74 velocity=95 time=0
EXTRACT: note_off channel=2 note=74 velocity=95 time=0.104166625
EXTRACT: note_on channel=2 note=75 velocity=95 time=0
EXTRACT: note_off channel=4 note=65 velocity=95 time=0
EXTRACT: note_off channel=4 note=62 velocity=95 time=0
EXTRACT: note_off channel=4 note=58 velocity=95 time=0
EXTRACT: note_off channel=4 note=50 velocity=95 time=0
EXTRACT: note_on channel=4 note=62 velocity=95 time=0
EXTRACT: note_off channel=2 note=75 velocity=95 time=0.104166625
EXTRACT: note_on channel=2 note=77 velocity=95 time=0
EXTRACT: note_off channel=2 note=77 velocity=95 time=0.104166625
EXTRACT: note_on channel=2 note=79 velocity=95 time=0
EXTRACT: note_off channel=2 note=79 velocity=95 time=0.13888883333333332
EXTRACT: note_on channel=2 note=80 velocity=95 time=0
EXTRACT: note_off channel=4 note=62 velocity=95 time=0.06944441666666666
EXTRACT: note_on channel=4 note=74 velocity=95 time=0
EXTRACT: note_on channel=4 note=70 velocity=95 time=0
EXTRACT: note_on channel=4 note=65 velocity=95 time=0
EXTRACT: note_off channel=2 note=80 velocity=95 time=0.06944441666666666
EXTRACT: note_on channel=2 note=82 velocity=95 time=0
EXTRACT: note_off channel=2 note=82 velocity=95 time=0.13888883333333332
EXTRACT: note_on channel=2 note=84 velocity=95 time=0.20833325
EXTRACT: note_off channel=4 note=74 velocity=95 time=0
EXTRACT: note_off channel=4 note=70 velocity=95 time=0
EXTRACT: note_off channel=4 note=65 velocity=95 time=0
EXTRACT: note_on channel=4 note=62 velocity=95 time=0
EXTRACT: note_off channel=0 note=50 velocity=95 time=0.20833325
EXTRACT: note_on channel=0 note=50 velocity=95 time=0
EXTRACT: note_off channel=0 note=50 velocity=95 time=0.20833325
EXTRACT: note_on channel=0 note=48 velocity=95 time=0
EXTRACT: note_on channel=0 note=41 velocity=95 time=0
EXTRACT: note_off channel=4 note=62 velocity=95 time=0
EXTRACT: note_on channel=4 note=67 velocity=95 time=0
EXTRACT: note_on channel=4 note=63 velocity=95 time=0
EXTRACT: note_on channel=4 note=60 velocity=95 time=0
EXTRACT: note_on channel=4 note=55 velocity=95 time=0
EXTRACT: note_on channel=4 note=48 velocity=95 time=0
EXTRACT: note_off channel=4 note=67 velocity=95 time=0.4166665
EXTRACT: note_off channel=4 note=63 velocity=95 time=0
EXTRACT: note_off channel=4 note=60 velocity=95 time=0
EXTRACT: note_off channel=4 note=55 velocity=95 time=0
EXTRACT: note_off channel=4 note=48 velocity=95 time=0
EXTRACT: note_on channel=4 note=60 velocity=95 time=0
EXTRACT: note_off channel=0 note=48 velocity=95 time=0.4166665
EXTRACT: note_off channel=0 note=41 velocity=95 time=0
EXTRACT: note_on channel=0 note=51 velocity=95 time=0
EXTRACT: note_on channel=0 note=44 velocity=95 time=0
EXTRACT: note_off channel=2 note=84 velocity=95 time=0
EXTRACT: note_off channel=4 note=60 velocity=95 time=0
EXTRACT: note_on channel=4 note=63 velocity=95 time=0
EXTRACT: note_off channel=0 note=51 velocity=95 time=0.20833325
EXTRACT: note_off channel=0 note=44 velocity=95 time=0
EXTRACT: note_on channel=0 note=50 velocity=95 time=0
EXTRACT: note_on channel=0 note=43 velocity=95 time=0
EXTRACT: note_off channel=0 note=50 velocity=95 time=0.20833325
EXTRACT: note_off channel=0 note=43 velocity=95 time=0
EXTRACT: note_on channel=0 note=49 velocity=95 time=0
EXTRACT: note_on channel=0 note=42 velocity=95 time=0
EXTRACT: note_on channel=2 note=74 velocity=95 time=0
EXTRACT: note_off channel=4 note=63 velocity=95 time=0
EXTRACT: note_on channel=4 note=67 velocity=95 time=0
EXTRACT: note_off channel=0 note=49 velocity=95 time=0.20833325
EXTRACT: note_off channel=0 note=42 velocity=95 time=0
EXTRACT: note_on channel=0 note=50 velocity=95 time=0
EXTRACT: note_on channel=0 note=43 velocity=95 time=0
EXTRACT: note_off channel=2 note=74 velocity=95 time=0
EXTRACT: note_on channel=2 note=75 velocity=95 time=0
EXTRACT: note_off channel=0 note=50 velocity=95 time=0.20833325
EXTRACT: note_off channel=0 note=43 velocity=95 time=0
EXTRACT: note_on channel=0 note=55 velocity=95 time=0
EXTRACT: note_on channel=0 note=48 velocity=95 time=0
EXTRACT: note_off channel=2 note=75 velocity=95 time=0
EXTRACT: note_on channel=2 note=72 velocity=95 time=0
EXTRACT: note_off channel=4 note=67 velocity=95 time=0
EXTRACT: note_on channel=4 note=86 velocity=95 time=0
EXTRACT: note_on channel=4 note=74 velocity=95 time=0
EXTRACT: note_off channel=2 note=72 velocity=95 time=0.4166665
EXTRACT: note_on channel=2 note=74 velocity=95 time=0
EXTRACT: note_off channel=4 note=86 velocity=95 time=0
EXTRACT: note_off channel=4 note=74 velocity=95 time=0
EXTRACT: note_on channel=4 note=60 velocity=95 time=0
EXTRACT: note_off channel=2 note=74 velocity=95 time=0.20833325
EXTRACT: note_on channel=2 note=75 velocity=95 time=0
EXTRACT: note_off channel=0 note=55 velocity=95 time=0.20833325
EXTRACT: note_off channel=0 note=48 velocity=95 time=0
EXTRACT: note_on channel=0 note=48 velocity=95 time=0
EXTRACT: note_off channel=2 note=75 velocity=95 time=0
EXTRACT: note_on channel=2 note=72 velocity=95 time=0
EXTRACT: note_off channel=4 note=60 velocity=95 time=0
EXTRACT: note_on channel=4 note=84 velocity=95 time=0
EXTRACT: note_on channel=4 note=72 velocity=95 time=0
EXTRACT: note_off channel=0 note=48 velocity=95 time=0.20833325
EXTRACT: note_on channel=0 note=46 velocity=70 time=0
EXTRACT: note_off channel=0 note=46 velocity=70 time=0.20833325
EXTRACT: note_on channel=0 note=43 velocity=95 time=0
EXTRACT: note_off channel=2 note=72 velocity=95 time=0
EXTRACT: note_on channel=2 note=74 velocity=95 time=0
EXTRACT: note_off channel=4 note=84 velocity=95 time=0
EXTRACT: note_off channel=4 note=72 velocity=95 time=0
EXTRACT: note_on channel=4 note=60 velocity=95 time=0
EXTRACT: note_off channel=0 note=43 velocity=95 time=0.20833325
EXTRACT: note_on channel=0 note=41 velocity=70 time=0
EXTRACT: note_off channel=2 note=74 velocity=95 time=0
EXTRACT: note_on channel=2 note=75 velocity=95 time=0
EXTRACT: note_off channel=0 note=41 velocity=70 time=0.20833325
EXTRACT: note_on channel=0 note=41 velocity=95 time=0
EXTRACT: note_off channel=2 note=75 velocity=95 time=0
EXTRACT: pitchwheel channel=3 pitch=0 time=0
EXTRACT: note_on channel=3 note=75 velocity=95 time=0
EXTRACT: note_off channel=4 note=60 velocity=95 time=0
EXTRACT: note_on channel=4 note=68 velocity=95 time=0
EXTRACT: note_on channel=4 note=65 velocity=95 time=0
EXTRACT: note_on channel=4 note=60 velocity=95 time=0
EXTRACT: note_on channel=4 note=53 velocity=95 time=0
EXTRACT: pitchwheel channel=3 pitch=128 time=0.03732637395833333
EXTRACT: pitchwheel channel=3 pitch=256 time=0.03732637395833333
EXTRACT: pitchwheel channel=3 pitch=384 time=0.03732637395833333
EXTRACT: pitchwheel channel=3 pitch=512 time=0.03732637395833333
EXTRACT: pitchwheel channel=3 pitch=640 time=0.03732637395833333
EXTRACT: pitchwheel channel=3 pitch=768 time=0.03732637395833333
EXTRACT: pitchwheel channel=3 pitch=896 time=0.03732637395833333
EXTRACT: pitchwheel channel=3 pitch=1024 time=0.03732637395833333
EXTRACT: pitchwheel channel=3 pitch=1152 time=0.03732637395833333
EXTRACT: pitchwheel channel=3 pitch=1280 time=0.03732637395833333
EXTRACT: pitchwheel channel=3 pitch=1408 time=0.03732637395833333
EXTRACT: pitchwheel channel=3 pitch=1408 time=0.006076386458333333
EXTRACT: note_off channel=4 note=68 velocity=95 time=0
EXTRACT: note_off channel=4 note=65 velocity=95 time=0
EXTRACT: note_off channel=4 note=60 velocity=95 time=0
EXTRACT: note_off channel=4 note=53 velocity=95 time=0
EXTRACT: note_on channel=4 note=65 velocity=95 time=0
EXTRACT: pitchwheel channel=3 pitch=1408 time=0.4166665
EXTRACT: pitchwheel channel=3 pitch=0 time=0
EXTRACT: note_off channel=3 note=75 velocity=95 time=0
EXTRACT: note_off channel=4 note=65 velocity=95 time=0
EXTRACT: note_on channel=4 note=72 velocity=95 time=0
EXTRACT: note_on channel=4 note=68 velocity=95 time=0
EXTRACT: note_off channel=0 note=41 velocity=95 time=0.4166665
EXTRACT: note_on channel=0 note=52 velocity=95 time=0
EXTRACT: note_on channel=2 note=65 velocity=95 time=0
EXTRACT: note_off channel=4 note=72 velocity=95 time=0
EXTRACT: note_off channel=4 note=68 velocity=95 time=0
EXTRACT: note_on channel=4 note=72 velocity=95 time=0
EXTRACT: note_on channel=4 note=64 velocity=95 time=0
EXTRACT: note_on channel=4 note=52 velocity=95 time=0
EXTRACT: note_off channel=2 note=65 velocity=95 time=0.20833325
EXTRACT: note_on channel=2 note=67 velocity=95 time=0
EXTRACT: note_off channel=0 note=52 velocity=95 time=0.20833325
EXTRACT: note_on channel=0 note=51 velocity=95 time=0
EXTRACT: note_off channel=2 note=67 velocity=95 time=0
EXTRACT: pitchwheel channel=3 pitch=0 time=0
EXTRACT: note_on channel=3 note=67 velocity=95 time=0
EXTRACT: note_off channel=4 note=72 velocity=95 time=0
EXTRACT: note_off channel=4 note=64 velocity=95 time=0
EXTRACT: note_off channel=4 note=52 velocity=95 time=0
EXTRACT: note_on channel=4 note=72 velocity=95 time=0
EXTRACT: note_on channel=4 note=63 velocity=95 time=0
EXTRACT: note_on channel=4 note=56 velocity=95 time=0
EXTRACT: note_on channel=4 note=51 velocity=95 time=0
EXTRACT: pitchwheel channel=3 pitch=128 time=0.0833333
EXTRACT: pitchwheel channel=3 pitch=256 time=0.0833333
EXTRACT: pitchwheel channel=3 pitch=384 time=0.0833333
EXTRACT: pitchwheel channel=3 pitch=512 time=0.0833333
EXTRACT: pitchwheel channel=3 pitch=640 time=0.0833333
EXTRACT: pitchwheel channel=3 pitch=640 time=0
EXTRACT: note_off channel=4 note=72 velocity=95 time=0
EXTRACT: note_off channel=4 note=63 velocity=95 time=0
EXTRACT: note_off channel=4 note=56 velocity=95 time=0
EXTRACT: note_off channel=4 note=51 velocity=95 time=0
EXTRACT: note_on channel=4 note=63 velocity=95 time=0
EXTRACT: note_off channel=0 note=51 velocity=95 time=0.4166665
EXTRACT: note_on channel=0 note=50 velocity=95 time=0
EXTRACT: pitchwheel channel=3 pitch=640 time=0
EXTRACT: pitchwheel channel=3 pitch=0 time=0
EXTRACT: note_off channel=3 note=67 velocity=95 time=0
EXTRACT: note_on channel=2 note=77 velocity=95 time=0
EXTRACT: note_off channel=4 note=63 velocity=95 time=0
EXTRACT: note_on channel=4 note=72 velocity=95 time=0
EXTRACT: note_on channel=4 note=62 velocity=95 time=0
EXTRACT: note_on channel=4 note=56 velocity=95 time=0
EXTRACT: note_on channel=4 note=50 velocity=95 time=0
EXTRACT: note_off channel=4 note=72 velocity=95 time=0.4166665
EXTRACT: note_off channel=4 note=62 velocity=95 time=0
EXTRACT: note_off channel=4 note=56 velocity=95 time=0
EXTRACT: note_off channel=4 note=50 velocity=95 time=0
EXTRACT: note_on channel=4 note=62 velocity=95 time=0
EXTRACT: note_off channel=0 note=50 velocity=95 time=0.4166665
EXTRACT: note_on channel=0 note=61 velocity=95 time=0
EXTRACT: note_on channel=0 note=56 velocity=95 time=0
EXTRACT: note_on channel=0 note=49 velocity=95 time=0
EXTRACT: note_off channel=2 note=77 velocity=95 time=0
EXTRACT: note_on channel=2 note=68 velocity=95 time=0
EXTRACT: note_off channel=4 note=62 velocity=95 time=0
EXTRACT: note_on channel=4 note=65 velocity=95 time=0
EXTRACT: note_on channel=4 note=61 velocity=95 time=0
EXTRACT: note_on channel=4 note=56 velocity=95 time=0
EXTRACT: note_on channel=4 note=49 velocity=95 time=0
EXTRACT: note_off channel=4 note=65 velocity=95 time=0.62499975
EXTRACT: note_off channel=4 note=61 velocity=95 time=0
EXTRACT: note_off channel=4 note=56 velocity=95 time=0
EXTRACT: note_off channel=4 note=49 velocity=95 time=0
EXTRACT: note_on channel=4 note=73 velocity=95 time=0
EXTRACT: note_on channel=4 note=68 velocity=95 time=0
EXTRACT: note_on channel=4 note=65 velocity=95 time=0
EXTRACT: note_off channel=4 note=73 velocity=95 time=0.20833325
EXTRACT: note_off channel=4 note=68 velocity=95 time=0
EXTRACT: note_off channel=4 note=65 velocity=95 time=0
EXTRACT: note_on channel=4 note=73 velocity=95 time=0
EXTRACT: note_on channel=4 note=68 velocity=95 time=0
EXTRACT: note_on channel=4 note=65 velocity=95 time=0
EXTRACT: note_off channel=0 note=61 velocity=95 time=0.2604165625
EXTRACT: note_off channel=0 note=56 velocity=95 time=0
EXTRACT: note_off channel=0 note=49 velocity=95 time=0
EXTRACT: note_on channel=0 note=56 velocity=95 time=0
EXTRACT: note_on channel=0 note=49 velocity=95 time=0
EXTRACT: note_off channel=4 note=73 velocity=95 time=0
EXTRACT: note_off channel=4 note=68 velocity=95 time=0
EXTRACT: note_off channel=4 note=65 velocity=95 time=0
EXTRACT: note_on channel=4 note=68 velocity=95 time=0
EXTRACT: note_on channel=4 note=65 velocity=95 time=0
EXTRACT: note_on channel=4 note=61 velocity=95 time=0
EXTRACT: note_on channel=4 note=56 velocity=95 time=0
EXTRACT: note_on channel=4 note=49 velocity=95 time=0
EXTRACT: note_off channel=2 note=68 velocity=95 time=0.1562499375
EXTRACT: note_on channel=2 note=73 velocity=95 time=0
EXTRACT: note_off channel=0 note=56 velocity=95 time=0.1562499375
EXTRACT: note_off channel=0 note=49 velocity=95 time=0
EXTRACT: note_on channel=0 note=55 velocity=95 time=0
EXTRACT: note_on channel=0 note=48 velocity=95 time=0
EXTRACT: note_off channel=4 note=68 velocity=95 time=0
EXTRACT: note_off channel=4 note=65 velocity=95 time=0
EXTRACT: note_off channel=4 note=61 velocity=95 time=0
EXTRACT: note_off channel=4 note=56 velocity=95 time=0
EXTRACT: note_off channel=4 note=49 velocity=95 time=0
EXTRACT: note_on channel=4 note=67 velocity=95 time=0
EXTRACT: note_on channel=4 note=64 velocity=95 time=0
EXTRACT: note_on channel=4 note=60 velocity=95 time=0
EXTRACT: note_on channel=4 note=55 velocity=95 time=0
EXTRACT: note_on channel=4 note=48 velocity=95 time=0
EXTRACT: note_off channel=2 note=73 velocity=95 time=0.0520833125
EXTRACT: note_on channel=2 note=73 velocity=95 time=0
EXTRACT: note_off channel=2 note=73 velocity=95 time=0.13888883333333332
EXTRACT: note_on channel=2 note=73 velocity=95 time=0
EXTRACT: note_off channel=0 note=55 velocity=95 time=0.06944441666666666
EXTRACT: note_off channel=0 note=48 velocity=95 time=0
EXTRACT: note_on channel=0 note=54 velocity=95 time=0
EXTRACT: note_on channel=0 note=47 velocity=95 time=0
EXTRACT: note_off channel=4 note=67 velocity=95 time=0
EXTRACT: note_off channel=4 note=64 velocity=95 time=0
EXTRACT: note_off channel=4 note=60 velocity=95 time=0
EXTRACT: note_off channel=4 note=55 velocity=95 time=0
EXTRACT: note_off channel=4 note=48 velocity=95 time=0
EXTRACT: note_on channel=4 note=66 velocity=95 time=0
EXTRACT: note_on channel=4 note=63 velocity=95 time=0
EXTRACT: note_on channel=4 note=59 velocity=95 time=0
EXTRACT: note_on channel=4 note=54 velocity=95 time=0
EXTRACT: note_on channel=4 note=47 velocity=95 time=0
EXTRACT: note_off channel=2 note=73 velocity=95 time=0.06944441666666666
EXTRACT: note_on channel=2 note=73 velocity=95 time=0
EXTRACT: note_off channel=2 note=73 velocity=95 time=0.13888883333333332
EXTRACT: note_on channel=2 note=73 velocity=95 time=0
EXTRACT: note_off channel=0 note=54 velocity=95 time=0.62499975
EXTRACT: note_off channel=0 note=47 velocity=95 time=0
EXTRACT: note_on channel=0 note=53 velocity=95 time=0
EXTRACT: note_on channel=0 note=46 velocity=95 time=0
EXTRACT: note_off channel=4 note=66 velocity=95 time=0
EXTRACT: note_off channel=4 note=63 velocity=95 time=0
EXTRACT: note_off channel=4 note=59 velocity=95 time=0
EXTRACT: note_off channel=4 note=54 velocity=95 time=0
EXTRACT: note_off channel=4 note=47 velocity=95 time=0
EXTRACT: note_on channel=4 note=65 velocity=95 time=0
EXTRACT: note_on channel=4 note=61 velocity=95 time=0
EXTRACT: note_on channel=4 note=58 velocity=95 time=0
EXTRACT: note_on channel=4 note=53 velocity=95 time=0
EXTRACT: note_on channel=4 note=46 velocity=95 time=0
EXTRACT: note_off channel=2 note=73 velocity=95 time=0.104166625
EXTRACT: note_on channel=2 note=66 velocity=95 time=0
EXTRACT: note_off channel=2 note=66 velocity=95 time=0.20833325
EXTRACT: note_on channel=2 note=61 velocity=95 time=0
EXTRACT: note_off channel=2 note=61 velocity=95 time=0.104166625
EXTRACT: note_on channel=2 note=61 velocity=95 time=0
EXTRACT: note_off channel=0 note=53 velocity=95 time=0.4166665
EXTRACT: note_off channel=0 note=46 velocity=95 time=0
EXTRACT: note_on channel=0 note=64 velocity=95 time=0
EXTRACT: note_on channel=0 note=61 velocity=95 time=0
EXTRACT: note_on channel=0 note=57 velocity=95 time=0
EXTRACT: note_on channel=0 note=52 velocity=95 time=0
EXTRACT: note_on channel=0 note=45 velocity=95 time=0
EXTRACT: note_off channel=2 note=61 velocity=95 time=0
EXTRACT: note_on channel=2 note=57 velocity=95 time=0
EXTRACT: note_off channel=4 note=65 velocity=95 time=0
EXTRACT: note_off channel=4 note=61 velocity=95 time=0
EXTRACT: note_off channel=4 note=58 velocity=95 time=0
EXTRACT: note_off channel=4 note=53 velocity=95 time=0
EXTRACT: note_off channel=4 note=46 velocity=95 time=0
EXTRACT: note_off channel=0 note=64 velocity=95 time=0.4166665
EXTRACT: note_off channel=0 note=61 velocity=95 time=0
EXTRACT: note_off channel=0 note=57 velocity=95 time=0
EXTRACT: note_off channel=0 note=52 velocity=95 time=0
EXTRACT: note_off channel=0 note=45 velocity=95 time=0
EXTRACT: note_on channel=0 note=64 velocity=95 time=0
EXTRACT: note_on channel=0 note=61 velocity=95 time=0
EXTRACT: note_on channel=0 note=57 velocity=95 time=0
EXTRACT: note_off channel=2 note=57 velocity=95 time=0
EXTRACT: note_off channel=0 note=64 velocity=95 time=0.4166665
EXTRACT: note_off channel=0 note=61 velocity=95 time=0
EXTRACT: note_off channel=0 note=57 velocity=95 time=0
EXTRACT: note_on channel=0 note=64 velocity=95 time=0
EXTRACT: note_on channel=0 note=61 velocity=95 time=0
EXTRACT: note_on channel=0 note=57 velocity=95 time=0
EXTRACT: note_off channel=0 note=64 velocity=95 time=0.4166665
EXTRACT: note_off channel=0 note=61 velocity=95 time=0
EXTRACT: note_off channel=0 note=57 velocity=95 time=0
EXTRACT: note_on channel=0 note=64 velocity=95 time=0
EXTRACT: note_on channel=0 note=61 velocity=95 time=0
EXTRACT: note_on channel=0 note=57 velocity=95 time=0
EXTRACT: note_off channel=0 note=64 velocity=95 time=0.4166665
EXTRACT: note_off channel=0 note=61 velocity=95 time=0
EXTRACT: note_off channel=0 note=57 velocity=95 time=0
EXTRACT: note_on channel=0 note=64 velocity=95 time=0
EXTRACT: note_on channel=0 note=61 velocity=95 time=0
EXTRACT: note_on channel=0 note=57 velocity=95 time=0
EXTRACT: note_off channel=0 note=64 velocity=95 time=0.4166665
EXTRACT: note_off channel=0 note=61 velocity=95 time=0
EXTRACT: note_off channel=0 note=57 velocity=95 time=0
EXTRACT: note_on channel=0 note=64 velocity=95 time=0
EXTRACT: note_on channel=0 note=61 velocity=95 time=0
EXTRACT: note_on channel=0 note=57 velocity=95 time=0
EXTRACT: note_off channel=0 note=64 velocity=95 time=0.4166665
EXTRACT: note_off channel=0 note=61 velocity=95 time=0
EXTRACT: note_off channel=0 note=57 velocity=95 time=0
EXTRACT: note_on channel=0 note=64 velocity=95 time=0
EXTRACT: note_on channel=0 note=61 velocity=95 time=0
EXTRACT: note_on channel=0 note=57 velocity=95 time=0
EXTRACT: note_off channel=0 note=64 velocity=95 time=0.4166665
EXTRACT: note_off channel=0 note=61 velocity=95 time=0
EXTRACT: note_off channel=0 note=57 velocity=95 time=0
EXTRACT: note_on channel=0 note=64 velocity=95 time=0
EXTRACT: note_on channel=0 note=61 velocity=95 time=0
EXTRACT: note_on channel=0 note=57 velocity=95 time=0
EXTRACT: note_off channel=0 note=64 velocity=95 time=0.4166665
EXTRACT: note_off channel=0 note=61 velocity=95 time=0
EXTRACT: note_off channel=0 note=57 velocity=95 time=0
EXTRACT: note_on channel=4 note=66 velocity=95 time=0
EXTRACT: note_on channel=4 note=62 velocity=95 time=0
EXTRACT: note_on channel=4 note=57 velocity=95 time=0
EXTRACT: note_off channel=4 note=66 velocity=95 time=0.4166665
EXTRACT: note_off channel=4 note=62 velocity=95 time=0
EXTRACT: note_off channel=4 note=57 velocity=95 time=0
EXTRACT: note_on channel=4 note=64 velocity=95 time=0
EXTRACT: note_on channel=4 note=61 velocity=95 time=0
EXTRACT: note_on channel=4 note=57 velocity=95 time=0
EXTRACT: note_off channel=4 note=64 velocity=95 time=0.20833325
EXTRACT: note_off channel=4 note=61 velocity=95 time=0
EXTRACT: note_off channel=4 note=57 velocity=95 time=0
EXTRACT: note_on channel=4 note=64 velocity=95 time=0
EXTRACT: note_on channel=4 note=61 velocity=95 time=0
EXTRACT: note_on channel=4 note=57 velocity=95 time=0
EXTRACT: note_off channel=4 note=64 velocity=95 time=0.20833325
EXTRACT: note_off channel=4 note=61 velocity=95 time=0
EXTRACT: note_off channel=4 note=57 velocity=95 time=0
EXTRACT: note_on channel=4 note=63 velocity=95 time=0
EXTRACT: note_on channel=4 note=60 velocity=95 time=0
EXTRACT: note_on channel=4 note=57 velocity=95 time=0
EXTRACT: note_off channel=4 note=63 velocity=95 time=0.4166665
EXTRACT: note_off channel=4 note=60 velocity=95 time=0
EXTRACT: note_off channel=4 note=57 velocity=95 time=0
EXTRACT: note_on channel=4 note=64 velocity=95 time=0
EXTRACT: note_on channel=4 note=61 velocity=95 time=0
EXTRACT: note_on channel=4 note=57 velocity=95 time=0
EXTRACT: note_off channel=4 note=64 velocity=95 time=0.4166665
EXTRACT: note_off channel=4 note=61 velocity=95 time=0
EXTRACT: note_off channel=4 note=57 velocity=95 time=0
EXTRACT: note_on channel=4 note=66 velocity=95 time=0
EXTRACT: note_on channel=4 note=62 velocity=95 time=0
EXTRACT: note_on channel=4 note=57 velocity=95 time=0
EXTRACT: note_off channel=4 note=66 velocity=95 time=0.4166665
EXTRACT: note_off channel=4 note=62 velocity=95 time=0
EXTRACT: note_off channel=4 note=57 velocity=95 time=0
EXTRACT: note_on channel=4 note=64 velocity=95 time=0
EXTRACT: note_on channel=4 note=61 velocity=95 time=0
EXTRACT: note_on channel=4 note=57 velocity=95 time=0
EXTRACT: note_off channel=4 note=64 velocity=95 time=0.20833325
EXTRACT: note_off channel=4 note=61 velocity=95 time=0
EXTRACT: note_off channel=4 note=57 velocity=95 time=0
EXTRACT: note_on channel=4 note=64 velocity=95 time=0
EXTRACT: note_on channel=4 note=61 velocity=95 time=0
EXTRACT: note_on channel=4 note=57 velocity=95 time=0
EXTRACT: note_off channel=4 note=64 velocity=95 time=0.20833325
EXTRACT: note_off channel=4 note=61 velocity=95 time=0
EXTRACT: note_off channel=4 note=57 velocity=95 time=0
EXTRACT: note_on channel=4 note=63 velocity=95 time=0
EXTRACT: note_on channel=4 note=60 velocity=95 time=0
EXTRACT: note_on channel=4 note=57 velocity=95 time=0
EXTRACT: note_off channel=4 note=63 velocity=95 time=0.4166665
EXTRACT: note_off channel=4 note=60 velocity=95 time=0
EXTRACT: note_off channel=4 note=57 velocity=95 time=0
EXTRACT: note_on channel=4 note=64 velocity=95 time=0
EXTRACT: note_on channel=4 note=61 velocity=95 time=0
EXTRACT: note_on channel=4 note=57 velocity=95 time=0
EXTRACT: note_off channel=4 note=64 velocity=95 time=0.20833325
EXTRACT: note_off channel=4 note=61 velocity=95 time=0
EXTRACT: note_off channel=4 note=57 velocity=95 time=0
EXTRACT: note_on channel=4 note=64 velocity=95 time=0
EXTRACT: note_on channel=4 note=61 velocity=95 time=0
EXTRACT: note_on channel=4 note=57 velocity=95 time=0
EXTRACT: note_off channel=4 note=64 velocity=95 time=0.20833325
EXTRACT: note_off channel=4 note=61 velocity=95 time=0
EXTRACT: note_off channel=4 note=57 velocity=95 time=0
EXTRACT: note_on channel=4 note=66 velocity=95 time=0
EXTRACT: note_on channel=4 note=62 velocity=95 time=0
EXTRACT: note_on channel=4 note=57 velocity=95 time=0
EXTRACT: note_off channel=4 note=66 velocity=95 time=0.4166665
EXTRACT: note_off channel=4 note=62 velocity=95 time=0
EXTRACT: note_off channel=4 note=57 velocity=95 time=0
EXTRACT: note_on channel=4 note=64 velocity=95 time=0
EXTRACT: note_on channel=4 note=61 velocity=95 time=0
EXTRACT: note_on channel=4 note=57 velocity=95 time=0
EXTRACT: note_off channel=4 note=64 velocity=95 time=0.20833325
EXTRACT: note_off channel=4 note=61 velocity=95 time=0
EXTRACT: note_off channel=4 note=57 velocity=95 time=0
EXTRACT: note_on channel=4 note=64 velocity=95 time=0
EXTRACT: note_on channel=4 note=61 velocity=95 time=0
EXTRACT: note_on channel=4 note=57 velocity=95 time=0
EXTRACT: note_off channel=4 note=64 velocity=95 time=0.20833325
EXTRACT: note_off channel=4 note=61 velocity=95 time=0
EXTRACT: note_off channel=4 note=57 velocity=95 time=0
EXTRACT: note_on channel=4 note=66 velocity=95 time=0
EXTRACT: note_on channel=4 note=62 velocity=95 time=0
EXTRACT: note_on channel=4 note=57 velocity=95 time=0
EXTRACT: note_off channel=4 note=66 velocity=95 time=0.4166665
EXTRACT: note_off channel=4 note=62 velocity=95 time=0
EXTRACT: note_off channel=4 note=57 velocity=95 time=0
EXTRACT: note_on channel=4 note=64 velocity=95 time=0
EXTRACT: note_on channel=4 note=61 velocity=95 time=0
EXTRACT: note_on channel=4 note=57 velocity=95 time=0
EXTRACT: note_off channel=4 note=64 velocity=95 time=0.20833325
EXTRACT: note_off channel=4 note=61 velocity=95 time=0
EXTRACT: note_off channel=4 note=57 velocity=95 time=0
EXTRACT: note_on channel=4 note=64 velocity=95 time=0
EXTRACT: note_on channel=4 note=61 velocity=95 time=0
EXTRACT: note_on channel=4 note=57 velocity=95 time=0
EXTRACT: note_off channel=4 note=64 velocity=95 time=0.20833325
EXTRACT: note_off channel=4 note=61 velocity=95 time=0
EXTRACT: note_off channel=4 note=57 velocity=95 time=0
EXTRACT: note_on channel=4 note=63 velocity=95 time=0
EXTRACT: note_on channel=4 note=60 velocity=95 time=0
EXTRACT: note_on channel=4 note=57 velocity=95 time=0
EXTRACT: note_off channel=4 note=63 velocity=95 time=0.20833325
EXTRACT: note_off channel=4 note=60 velocity=95 time=0
EXTRACT: note_off channel=4 note=57 velocity=95 time=0
EXTRACT: note_on channel=4 note=63 velocity=95 time=0
EXTRACT: note_on channel=4 note=60 velocity=95 time=0
EXTRACT: note_on channel=4 note=57 velocity=95 time=0
EXTRACT: note_off channel=4 note=63 velocity=95 time=0.20833325
EXTRACT: note_off channel=4 note=60 velocity=95 time=0
EXTRACT: note_off channel=4 note=57 velocity=95 time=0
EXTRACT: note_on channel=4 note=64 velocity=95 time=0
EXTRACT: note_on channel=4 note=61 velocity=95 time=0
EXTRACT: note_on channel=4 note=57 velocity=95 time=0
EXTRACT: note_off channel=4 note=64 velocity=95 time=0.4166665
EXTRACT: note_off channel=4 note=61 velocity=95 time=0
EXTRACT: note_off channel=4 note=57 velocity=95 time=0
EXTRACT: note_on channel=4 note=66 velocity=95 time=0
EXTRACT: note_on channel=4 note=62 velocity=95 time=0
EXTRACT: note_on channel=4 note=57 velocity=95 time=0
EXTRACT: note_off channel=4 note=66 velocity=95 time=0.4166665
EXTRACT: note_off channel=4 note=62 velocity=95 time=0
EXTRACT: note_off channel=4 note=57 velocity=95 time=0
EXTRACT: note_on channel=4 note=64 velocity=95 time=0
EXTRACT: note_on channel=4 note=61 velocity=95 time=0
EXTRACT: note_on channel=4 note=57 velocity=95 time=0
EXTRACT: note_off channel=4 note=64 velocity=95 time=0.4166665
EXTRACT: note_off channel=4 note=61 velocity=95 time=0
EXTRACT: note_off channel=4 note=57 velocity=95 time=0
EXTRACT: note_on channel=4 note=65 velocity=95 time=0
EXTRACT: note_on channel=4 note=61 velocity=95 time=0
EXTRACT: note_on channel=4 note=56 velocity=95 time=0
EXTRACT: note_on channel=4 note=44 velocity=95 time=0
EXTRACT: note_off channel=4 note=65 velocity=95 time=0.20833325
EXTRACT: note_off channel=4 note=61 velocity=95 time=0
EXTRACT: note_off channel=4 note=56 velocity=95 time=0
EXTRACT: note_off channel=4 note=44 velocity=95 time=0
EXTRACT: note_on channel=4 note=65 velocity=95 time=0
EXTRACT: note_on channel=4 note=61 velocity=95 time=0
EXTRACT: note_on channel=4 note=56 velocity=95 time=0
EXTRACT: note_on channel=4 note=44 velocity=95 time=0
EXTRACT: note_off channel=4 note=65 velocity=95 time=0.20833325
EXTRACT: note_off channel=4 note=61 velocity=95 time=0
EXTRACT: note_off channel=4 note=56 velocity=95 time=0
EXTRACT: note_off channel=4 note=44 velocity=95 time=0
EXTRACT: note_on channel=4 note=63 velocity=95 time=0
EXTRACT: note_on channel=4 note=60 velocity=95 time=0
EXTRACT: note_on channel=4 note=56 velocity=95 time=0
EXTRACT: note_on channel=4 note=44 velocity=95 time=0
EXTRACT: note_off channel=4 note=63 velocity=95 time=0.20833325
EXTRACT: note_off channel=4 note=60 velocity=95 time=0
EXTRACT: note_off channel=4 note=56 velocity=95 time=0
EXTRACT: note_off channel=4 note=44 velocity=95 time=0
EXTRACT: note_on channel=4 note=65 velocity=95 time=0
EXTRACT: note_on channel=4 note=61 velocity=95 time=0
EXTRACT: note_on channel=4 note=56 velocity=95 time=0
EXTRACT: note_on channel=4 note=44 velocity=95 time=0
EXTRACT: note_off channel=4 note=65 velocity=95 time=0.20833325
EXTRACT: note_off channel=4 note=61 velocity=95 time=0
EXTRACT: note_off channel=4 note=56 velocity=95 time=0
EXTRACT: note_off channel=4 note=44 velocity=95 time=0
EXTRACT: note_on channel=4 note=63 velocity=95 time=0
EXTRACT: note_on channel=4 note=60 velocity=95 time=0
EXTRACT: note_on channel=4 note=56 velocity=95 time=0
EXTRACT: note_on channel=4 note=44 velocity=95 time=0
EXTRACT: note_off channel=4 note=63 velocity=95 time=0.4166665
EXTRACT: note_off channel=4 note=60 velocity=95 time=0
EXTRACT: note_off channel=4 note=56 velocity=95 time=0
EXTRACT: note_off channel=4 note=44 velocity=95 time=0
EXTRACT: note_on channel=4 note=63 velocity=95 time=0
EXTRACT: note_on channel=4 note=60 velocity=95 time=0
EXTRACT: note_on channel=4 note=56 velocity=95 time=0
EXTRACT: note_on channel=4 note=44 velocity=95 time=0
EXTRACT: note_off channel=4 note=63 velocity=95 time=0.4166665
EXTRACT: note_off channel=4 note=60 velocity=95 time=0
EXTRACT: note_off channel=4 note=56 velocity=95 time=0
EXTRACT: note_off channel=4 note=44 velocity=95 time=0
EXTRACT: note_on channel=4 note=64 velocity=95 time=0
EXTRACT: note_on channel=4 note=60 velocity=95 time=0
EXTRACT: note_on channel=4 note=55 velocity=95 time=0
EXTRACT: note_on channel=4 note=43 velocity=95 time=0
EXTRACT: note_off channel=4 note=64 velocity=95 time=0.4166665
EXTRACT: note_off channel=4 note=60 velocity=95 time=0
EXTRACT: note_off channel=4 note=55 velocity=95 time=0
EXTRACT: note_off channel=4 note=43 velocity=95 time=0
EXTRACT: note_on channel=4 note=64 velocity=95 time=0
EXTRACT: note_on channel=4 note=60 velocity=95 time=0
EXTRACT: note_on channel=4 note=55 velocity=95 time=0
EXTRACT: note_on channel=4 note=43 velocity=95 time=0
EXTRACT: note_off channel=4 note=64 velocity=95 time=0.20833325
EXTRACT: note_off channel=4 note=60 velocity=95 time=0
EXTRACT: note_off channel=4 note=55 velocity=95 time=0
EXTRACT: note_off channel=4 note=43 velocity=95 time=0
EXTRACT: note_on channel=4 note=64 velocity=95 time=0
EXTRACT: note_on channel=4 note=60 velocity=95 time=0
EXTRACT: note_on channel=4 note=55 velocity=95 time=0
EXTRACT: note_on channel=4 note=43 velocity=95 time=0
EXTRACT: note_off channel=4 note=64 velocity=95 time=0.20833325
EXTRACT: note_off channel=4 note=60 velocity=95 time=0
EXTRACT: note_off channel=4 note=55 velocity=95 time=0
EXTRACT: note_off channel=4 note=43 velocity=95 time=0
EXTRACT: note_on channel=4 note=68 velocity=95 time=0
EXTRACT: note_on channel=4 note=62 velocity=95 time=0
EXTRACT: note_on channel=4 note=59 velocity=95 time=0
EXTRACT: note_on channel=4 note=52 velocity=95 time=0
EXTRACT: note_on channel=4 note=40 velocity=95 time=0
EXTRACT: note_off channel=4 note=68 velocity=95 time=0.4166665
EXTRACT: note_off channel=4 note=62 velocity=95 time=0
EXTRACT: note_off channel=4 note=59 velocity=95 time=0
EXTRACT: note_off channel=4 note=52 velocity=95 time=0
EXTRACT: note_off channel=4 note=40 velocity=95 time=0
EXTRACT: note_on channel=4 note=68 velocity=95 time=0
EXTRACT: note_on channel=4 note=62 velocity=95 time=0
EXTRACT: note_on channel=4 note=59 velocity=95 time=0
EXTRACT: note_on channel=4 note=52 velocity=95 time=0
EXTRACT: note_on channel=4 note=40 velocity=95 time=0
EXTRACT: note_off channel=4 note=68 velocity=95 time=0.4166665
EXTRACT: note_off channel=4 note=62 velocity=95 time=0
EXTRACT: note_off channel=4 note=59 velocity=95 time=0
EXTRACT: note_off channel=4 note=52 velocity=95 time=0
EXTRACT: note_off channel=4 note=40 velocity=95 time=0
EXTRACT: note_on channel=4 note=64 velocity=95 time=0
EXTRACT: note_on channel=4 note=61 velocity=95 time=0
EXTRACT: note_on channel=4 note=57 velocity=95 time=0
EXTRACT: note_on channel=4 note=52 velocity=95 time=0
EXTRACT: note_on channel=4 note=45 velocity=95 time=0
EXTRACT: note_off channel=4 note=64 velocity=95 time=0.4166665
EXTRACT: note_off channel=4 note=61 velocity=95 time=0
EXTRACT: note_off channel=4 note=57 velocity=95 time=0
EXTRACT: note_off channel=4 note=52 velocity=95 time=0
EXTRACT: note_off channel=4 note=45 velocity=95 time=0
EXTRACT: note_on channel=4 note=57 velocity=95 time=0.4166665
EXTRACT: note_off channel=4 note=57 velocity=95 time=0.20833325
EXTRACT: note_on channel=4 note=57 velocity=95 time=0
EXTRACT: note_off channel=4 note=57 velocity=95 time=0.20833325
EXTRACT: note_on channel=4 note=58 velocity=95 time=0
EXTRACT: note_off channel=4 note=58 velocity=95 time=0.20833325
EXTRACT: note_on channel=4 note=57 velocity=95 time=0
EXTRACT: note_off channel=4 note=57 velocity=95 time=0.20833325
EXTRACT: note_on channel=4 note=55 velocity=95 time=0
EXTRACT: note_off channel=4 note=55 velocity=95 time=0.20833325
EXTRACT: note_on channel=4 note=53 velocity=95 time=0
EXTRACT: note_off channel=4 note=53 velocity=95 time=0.20833325
EXTRACT: note_on channel=4 note=52 velocity=95 time=0
EXTRACT: note_off channel=4 note=52 velocity=95 time=0.4166665
EXTRACT: note_on channel=4 note=71 velocity=95 time=0
EXTRACT: note_on channel=4 note=66 velocity=95 time=0
EXTRACT: note_on channel=4 note=63 velocity=95 time=0
EXTRACT: note_off channel=4 note=71 velocity=95 time=0.4166665
EXTRACT: note_off channel=4 note=66 velocity=95 time=0
EXTRACT: note_off channel=4 note=63 velocity=95 time=0
EXTRACT: note_on channel=4 note=70 velocity=95 time=0
EXTRACT: note_on channel=4 note=65 velocity=95 time=0
EXTRACT: note_on channel=4 note=62 velocity=95 time=0
EXTRACT: note_off channel=4 note=70 velocity=95 time=0.4166665
EXTRACT: note_off channel=4 note=65 velocity=95 time=0
EXTRACT: note_off channel=4 note=62 velocity=95 time=0
EXTRACT: note_on channel=4 note=69 velocity=95 time=0
EXTRACT: note_on channel=4 note=64 velocity=95 time=0
EXTRACT: note_on channel=4 note=61 velocity=95 time=0
EXTRACT: note_off channel=4 note=69 velocity=95 time=0.4166665
EXTRACT: note_off channel=4 note=64 velocity=95 time=0
EXTRACT: note_off channel=4 note=61 velocity=95 time=0
EXTRACT: note_on channel=4 note=70 velocity=95 time=0
EXTRACT: note_on channel=4 note=65 velocity=95 time=0
EXTRACT: note_on channel=4 note=62 velocity=95 time=0
EXTRACT: note_off channel=4 note=70 velocity=95 time=0.4166665
EXTRACT: note_off channel=4 note=65 velocity=95 time=0
EXTRACT: note_off channel=4 note=62 velocity=95 time=0
EXTRACT: note_on channel=4 note=71 velocity=95 time=0
EXTRACT: note_on channel=4 note=66 velocity=95 time=0
EXTRACT: note_on channel=4 note=63 velocity=95 time=0
EXTRACT: note_off channel=4 note=71 velocity=95 time=0.4166665
EXTRACT: note_off channel=4 note=66 velocity=95 time=0
EXTRACT: note_off channel=4 note=63 velocity=95 time=0
EXTRACT: note_on channel=4 note=70 velocity=95 time=0
EXTRACT: note_on channel=4 note=65 velocity=95 time=0
EXTRACT: note_on channel=4 note=62 velocity=95 time=0
EXTRACT: note_off channel=4 note=70 velocity=95 time=0.4166665
EXTRACT: note_off channel=4 note=65 velocity=95 time=0
EXTRACT: note_off channel=4 note=62 velocity=95 time=0
EXTRACT: note_on channel=4 note=69 velocity=95 time=0
EXTRACT: note_on channel=4 note=64 velocity=95 time=0
EXTRACT: note_on channel=4 note=61 velocity=95 time=0
EXTRACT: note_off channel=4 note=69 velocity=95 time=0.4166665
EXTRACT: note_off channel=4 note=64 velocity=95 time=0
EXTRACT: note_off channel=4 note=61 velocity=95 time=0
EXTRACT: note_on channel=4 note=70 velocity=95 time=0
EXTRACT: note_on channel=4 note=65 velocity=95 time=0
EXTRACT: note_on channel=4 note=62 velocity=95 time=0
EXTRACT: note_off channel=4 note=70 velocity=95 time=0.4166665
EXTRACT: note_off channel=4 note=65 velocity=95 time=0
EXTRACT: note_off channel=4 note=62 velocity=95 time=0
EXTRACT: note_on channel=4 note=68 velocity=95 time=0
EXTRACT: note_on channel=4 note=63 velocity=95 time=0
EXTRACT: note_on channel=4 note=60 velocity=95 time=0
EXTRACT: note_on channel=4 note=51 velocity=95 time=0
EXTRACT: note_off channel=4 note=68 velocity=95 time=0.4166665
EXTRACT: note_off channel=4 note=63 velocity=95 time=0
EXTRACT: note_off channel=4 note=60 velocity=95 time=0
EXTRACT: note_off channel=4 note=51 velocity=95 time=0
EXTRACT: note_on channel=4 note=67 velocity=95 time=0
EXTRACT: note_on channel=4 note=63 velocity=95 time=0
EXTRACT: note_on channel=4 note=58 velocity=95 time=0
EXTRACT: note_on channel=4 note=51 velocity=95 time=0
EXTRACT: note_off channel=4 note=67 velocity=95 time=0.20833325
EXTRACT: note_off channel=4 note=63 velocity=95 time=0
EXTRACT: note_off channel=4 note=58 velocity=95 time=0
EXTRACT: note_off channel=4 note=51 velocity=95 time=0
EXTRACT: note_on channel=4 note=67 velocity=95 time=0
EXTRACT: note_on channel=4 note=63 velocity=95 time=0
EXTRACT: note_on channel=4 note=58 velocity=95 time=0
EXTRACT: note_on channel=4 note=51 velocity=95 time=0
EXTRACT: note_off channel=4 note=67 velocity=95 time=0.20833325
EXTRACT: note_off channel=4 note=63 velocity=95 time=0
EXTRACT: note_off channel=4 note=58 velocity=95 time=0
EXTRACT: note_off channel=4 note=51 velocity=95 time=0
EXTRACT: note_on channel=4 note=66 velocity=95 time=0
EXTRACT: note_on channel=4 note=63 velocity=95 time=0
EXTRACT: note_on channel=4 note=57 velocity=95 time=0
EXTRACT: note_on channel=4 note=51 velocity=95 time=0
EXTRACT: note_off channel=4 note=66 velocity=95 time=0.4166665
EXTRACT: note_off channel=4 note=63 velocity=95 time=0
EXTRACT: note_off channel=4 note=57 velocity=95 time=0
EXTRACT: note_off channel=4 note=51 velocity=95 time=0
EXTRACT: note_on channel=4 note=67 velocity=95 time=0
EXTRACT: note_on channel=4 note=63 velocity=95 time=0
EXTRACT: note_on channel=4 note=58 velocity=95 time=0
EXTRACT: note_on channel=4 note=51 velocity=95 time=0
EXTRACT: note_off channel=4 note=67 velocity=95 time=0.4166665
EXTRACT: note_off channel=4 note=63 velocity=95 time=0
EXTRACT: note_off channel=4 note=58 velocity=95 time=0
EXTRACT: note_off channel=4 note=51 velocity=95 time=0
EXTRACT: note_on channel=4 note=68 velocity=95 time=0
EXTRACT: note_on channel=4 note=63 velocity=95 time=0
EXTRACT: note_on channel=4 note=60 velocity=95 time=0
EXTRACT: note_on channel=4 note=51 velocity=95 time=0
EXTRACT: note_off channel=4 note=68 velocity=95 time=0.20833325
EXTRACT: note_off channel=4 note=63 velocity=95 time=0
EXTRACT: note_off channel=4 note=60 velocity=95 time=0
EXTRACT: note_off channel=4 note=51 velocity=95 time=0
EXTRACT: note_on channel=4 note=68 velocity=95 time=0
EXTRACT: note_on channel=4 note=63 velocity=95 time=0
EXTRACT: note_on channel=4 note=60 velocity=95 time=0
EXTRACT: note_on channel=4 note=51 velocity=95 time=0
EXTRACT: note_off channel=4 note=68 velocity=95 time=0.20833325
EXTRACT: note_off channel=4 note=63 velocity=95 time=0
EXTRACT: note_off channel=4 note=60 velocity=95 time=0
EXTRACT: note_off channel=4 note=51 velocity=95 time=0
EXTRACT: note_on channel=4 note=67 velocity=95 time=0
EXTRACT: note_on channel=4 note=63 velocity=95 time=0
EXTRACT: note_on channel=4 note=58 velocity=95 time=0
EXTRACT: note_on channel=4 note=51 velocity=95 time=0
EXTRACT: note_off channel=4 note=67 velocity=95 time=0.4166665
EXTRACT: note_off channel=4 note=63 velocity=95 time=0
EXTRACT: note_off channel=4 note=58 velocity=95 time=0
EXTRACT: note_off channel=4 note=51 velocity=95 time=0
EXTRACT: note_on channel=4 note=66 velocity=95 time=0
EXTRACT: note_on channel=4 note=63 velocity=95 time=0
EXTRACT: note_on channel=4 note=57 velocity=95 time=0
EXTRACT: note_on channel=4 note=51 velocity=95 time=0
EXTRACT: note_off channel=4 note=66 velocity=95 time=0.20833325
EXTRACT: note_off channel=4 note=63 velocity=95 time=0
EXTRACT: note_off channel=4 note=57 velocity=95 time=0
EXTRACT: note_off channel=4 note=51 velocity=95 time=0
EXTRACT: note_on channel=4 note=66 velocity=95 time=0
EXTRACT: note_on channel=4 note=63 velocity=95 time=0
EXTRACT: note_on channel=4 note=57 velocity=95 time=0
EXTRACT: note_on channel=4 note=51 velocity=95 time=0
EXTRACT: note_off channel=4 note=66 velocity=95 time=0.20833325
EXTRACT: note_off channel=4 note=63 velocity=95 time=0
EXTRACT: note_off channel=4 note=57 velocity=95 time=0
EXTRACT: note_off channel=4 note=51 velocity=95 time=0
EXTRACT: note_on channel=4 note=67 velocity=95 time=0
EXTRACT: note_on channel=4 note=63 velocity=95 time=0
EXTRACT: note_on channel=4 note=58 velocity=95 time=0
EXTRACT: note_on channel=4 note=51 velocity=95 time=0
EXTRACT: note_off channel=4 note=67 velocity=95 time=0.4166665
EXTRACT: note_off channel=4 note=63 velocity=95 time=0
EXTRACT: note_off channel=4 note=58 velocity=95 time=0
EXTRACT: note_off channel=4 note=51 velocity=95 time=0
EXTRACT: note_on channel=4 note=63 velocity=95 time=0
EXTRACT: note_on channel=4 note=60 velocity=95 time=0
EXTRACT: note_on channel=4 note=56 velocity=95 time=0
EXTRACT: note_on channel=4 note=51 velocity=95 time=0
EXTRACT: note_on channel=4 note=44 velocity=95 time=0
EXTRACT: note_off channel=4 note=63 velocity=95 time=0.4166665
EXTRACT: note_off channel=4 note=60 velocity=95 time=0
EXTRACT: note_off channel=4 note=56 velocity=95 time=0
EXTRACT: note_off channel=4 note=51 velocity=95 time=0
EXTRACT: note_off channel=4 note=44 velocity=95 time=0
EXTRACT: note_on channel=4 note=63 velocity=95 time=0
EXTRACT: note_on channel=4 note=60 velocity=95 time=0
EXTRACT: note_on channel=4 note=56 velocity=95 time=0
EXTRACT: note_on channel=4 note=51 velocity=95 time=0
EXTRACT: note_on channel=4 note=44 velocity=95 time=0
EXTRACT: note_off channel=4 note=63 velocity=95 time=0.20833325
EXTRACT: note_off channel=4 note=60 velocity=95 time=0
EXTRACT: note_off channel=4 note=56 velocity=95 time=0
EXTRACT: note_off channel=4 note=51 velocity=95 time=0
EXTRACT: note_off channel=4 note=44 velocity=95 time=0
EXTRACT: note_on channel=4 note=63 velocity=95 time=0
EXTRACT: note_on channel=4 note=60 velocity=95 time=0
EXTRACT: note_on channel=4 note=56 velocity=95 time=0
EXTRACT: note_on channel=4 note=51 velocity=95 time=0
EXTRACT: note_on channel=4 note=44 velocity=95 time=0
EXTRACT: note_off channel=4 note=63 velocity=95 time=0.20833325
EXTRACT: note_off channel=4 note=60 velocity=95 time=0
EXTRACT: note_off channel=4 note=56 velocity=95 time=0
EXTRACT: note_off channel=4 note=51 velocity=95 time=0
EXTRACT: note_off channel=4 note=44 velocity=95 time=0
EXTRACT: note_on channel=4 note=63 velocity=95 time=0
EXTRACT: note_on channel=4 note=58 velocity=95 time=0
EXTRACT: note_on channel=4 note=55 velocity=95 time=0
EXTRACT: note_on channel=4 note=51 velocity=95 time=0
EXTRACT: note_on channel=4 note=43 velocity=95 time=0
EXTRACT: note_off channel=4 note=63 velocity=95 time=0.4166665
EXTRACT: note_off channel=4 note=58 velocity=95 time=0
EXTRACT: note_off channel=4 note=55 velocity=95 time=0
EXTRACT: note_off channel=4 note=51 velocity=95 time=0
EXTRACT: note_off channel=4 note=43 velocity=95 time=0
EXTRACT: note_on channel=4 note=63 velocity=95 time=0
EXTRACT: note_on channel=4 note=58 velocity=95 time=0
EXTRACT: note_on channel=4 note=55 velocity=95 time=0
EXTRACT: note_on channel=4 note=51 velocity=95 time=0
EXTRACT: note_on channel=4 note=43 velocity=95 time=0
EXTRACT: note_off channel=4 note=63 velocity=95 time=0.20833325
EXTRACT: note_off channel=4 note=58 velocity=95 time=0
EXTRACT: note_off channel=4 note=55 velocity=95 time=0
EXTRACT: note_off channel=4 note=51 velocity=95 time=0
EXTRACT: note_off channel=4 note=43 velocity=95 time=0
EXTRACT: note_on channel=4 note=63 velocity=95 time=0
EXTRACT: note_on channel=4 note=58 velocity=95 time=0
EXTRACT: note_on channel=4 note=55 velocity=95 time=0
EXTRACT: note_on channel=4 note=51 velocity=95 time=0
EXTRACT: note_on channel=4 note=43 velocity=95 time=0
EXTRACT: note_off channel=4 note=63 velocity=95 time=0.20833325
EXTRACT: note_off channel=4 note=58 velocity=95 time=0
EXTRACT: note_off channel=4 note=55 velocity=95 time=0
EXTRACT: note_off channel=4 note=51 velocity=95 time=0
EXTRACT: note_off channel=4 note=43 velocity=95 time=0
EXTRACT: note_on channel=4 note=63 velocity=95 time=0
EXTRACT: note_on channel=4 note=57 velocity=95 time=0
EXTRACT: note_on channel=4 note=51 velocity=95 time=0
EXTRACT: note_on channel=4 note=48 velocity=95 time=0
EXTRACT: note_on channel=4 note=41 velocity=95 time=0
EXTRACT: note_off channel=4 note=63 velocity=95 time=0.20833325
EXTRACT: note_off channel=4 note=57 velocity=95 time=0
EXTRACT: note_off channel=4 note=51 velocity=95 time=0
EXTRACT: note_off channel=4 note=48 velocity=95 time=0
EXTRACT: note_off channel=4 note=41 velocity=95 time=0
EXTRACT: note_on channel=4 note=63 velocity=95 time=0
EXTRACT: note_off channel=4 note=63 velocity=95 time=0.20833325
EXTRACT: note_on channel=4 note=63 velocity=95 time=0
EXTRACT: note_on channel=4 note=57 velocity=95 time=0
EXTRACT: note_on channel=4 note=51 velocity=95 time=0
EXTRACT: note_on channel=4 note=48 velocity=95 time=0
EXTRACT: note_on channel=4 note=41 velocity=95 time=0
EXTRACT: note_off channel=4 note=63 velocity=95 time=0.20833325
EXTRACT: note_off channel=4 note=57 velocity=95 time=0
EXTRACT: note_off channel=4 note=51 velocity=95 time=0
EXTRACT: note_off channel=4 note=48 velocity=95 time=0
EXTRACT: note_off channel=4 note=41 velocity=95 time=0
EXTRACT: note_on channel=4 note=63 velocity=95 time=0
EXTRACT: note_on channel=4 note=57 velocity=95 time=0
EXTRACT: note_on channel=4 note=51 velocity=95 time=0
EXTRACT: note_on channel=4 note=48 velocity=95 time=0
EXTRACT: note_on channel=4 note=41 velocity=95 time=0
EXTRACT: note_off channel=4 note=63 velocity=95 time=0.20833325
EXTRACT: note_off channel=4 note=57 velocity=95 time=0
EXTRACT: note_off channel=4 note=51 velocity=95 time=0
EXTRACT: note_off channel=4 note=48 velocity=95 time=0
EXTRACT: note_off channel=4 note=41 velocity=95 time=0
EXTRACT: note_on channel=4 note=62 velocity=95 time=0
EXTRACT: note_on channel=4 note=58 velocity=95 time=0
EXTRACT: note_on channel=4 note=53 velocity=95 time=0
EXTRACT: note_on channel=4 note=46 velocity=95 time=0
EXTRACT: note_off channel=4 note=62 velocity=95 time=0.4166665
EXTRACT: note_off channel=4 note=58 velocity=95 time=0
EXTRACT: note_off channel=4 note=53 velocity=95 time=0
EXTRACT: note_off channel=4 note=46 velocity=95 time=0
EXTRACT: note_on channel=4 note=70 velocity=95 time=0
EXTRACT: note_off channel=4 note=70 velocity=95 time=0.20833325
EXTRACT: note_on channel=4 note=70 velocity=95 time=0
EXTRACT: note_off channel=4 note=70 velocity=95 time=0
EXTRACT: note_on channel=4 note=71 velocity=95 time=0
EXTRACT: note_on channel=4 note=68 velocity=95 time=0
EXTRACT: note_off channel=4 note=71 velocity=95 time=0.20833325
EXTRACT: note_off channel=4 note=68 velocity=95 time=0
EXTRACT: note_on channel=4 note=75 velocity=95 time=0
EXTRACT: note_off channel=4 note=75 velocity=95 time=0.20833325
EXTRACT: note_on channel=4 note=70 velocity=95 time=0
EXTRACT: note_on channel=4 note=67 velocity=95 time=0
EXTRACT: note_off channel=4 note=70 velocity=95 time=0.20833325
EXTRACT: note_off channel=4 note=67 velocity=95 time=0
EXTRACT: note_on channel=4 note=75 velocity=95 time=0
EXTRACT: note_off channel=4 note=75 velocity=95 time=0.20833325
EXTRACT: note_on channel=4 note=69 velocity=95 time=0
EXTRACT: note_on channel=4 note=66 velocity=95 time=0
EXTRACT: note_off channel=4 note=69 velocity=95 time=0.20833325
EXTRACT: note_off channel=4 note=66 velocity=95 time=0
EXTRACT: note_on channel=4 note=75 velocity=95 time=0
EXTRACT: note_off channel=4 note=75 velocity=95 time=0.20833325
EXTRACT: note_on channel=4 note=68 velocity=95 time=0
EXTRACT: note_on channel=4 note=65 velocity=95 time=0
EXTRACT: note_off channel=4 note=68 velocity=95 time=0.20833325
EXTRACT: note_off channel=4 note=65 velocity=95 time=0
EXTRACT: note_on channel=4 note=75 velocity=95 time=0
EXTRACT: note_off channel=4 note=75 velocity=95 time=0
EXTRACT: note_on channel=4 note=71 velocity=95 time=0
EXTRACT: note_on channel=4 note=66 velocity=95 time=0
EXTRACT: note_on channel=4 note=63 velocity=95 time=0
EXTRACT: note_off channel=4 note=71 velocity=95 time=0.4166665
EXTRACT: note_off channel=4 note=66 velocity=95 time=0
EXTRACT: note_off channel=4 note=63 velocity=95 time=0
EXTRACT: note_on channel=4 note=70 velocity=95 time=0
EXTRACT: note_on channel=4 note=65 velocity=95 time=0
EXTRACT: note_on channel=4 note=62 velocity=95 time=0
EXTRACT: note_off channel=4 note=70 velocity=95 time=0.4166665
EXTRACT: note_off channel=4 note=65 velocity=95 time=0
EXTRACT: note_off channel=4 note=62 velocity=95 time=0
EXTRACT: note_on channel=4 note=69 velocity=95 time=0
EXTRACT: note_on channel=4 note=64 velocity=95 time=0
EXTRACT: note_on channel=4 note=61 velocity=95 time=0
EXTRACT: note_off channel=4 note=69 velocity=95 time=0.4166665
EXTRACT: note_off channel=4 note=64 velocity=95 time=0
EXTRACT: note_off channel=4 note=61 velocity=95 time=0
EXTRACT: note_on channel=4 note=70 velocity=95 time=0
EXTRACT: note_on channel=4 note=65 velocity=95 time=0
EXTRACT: note_on channel=4 note=62 velocity=95 time=0
EXTRACT: note_off channel=4 note=70 velocity=95 time=0.4166665
EXTRACT: note_off channel=4 note=65 velocity=95 time=0
EXTRACT: note_off channel=4 note=62 velocity=95 time=0
EXTRACT: note_on channel=4 note=71 velocity=95 time=0
EXTRACT: note_on channel=4 note=66 velocity=95 time=0
EXTRACT: note_on channel=4 note=63 velocity=95 time=0
EXTRACT: note_off channel=4 note=71 velocity=95 time=0.4166665
EXTRACT: note_off channel=4 note=66 velocity=95 time=0
EXTRACT: note_off channel=4 note=63 velocity=95 time=0
EXTRACT: note_on channel=4 note=70 velocity=95 time=0
EXTRACT: note_on channel=4 note=65 velocity=95 time=0
EXTRACT: note_on channel=4 note=62 velocity=95 time=0
EXTRACT: note_off channel=4 note=70 velocity=95 time=0.4166665
EXTRACT: note_off channel=4 note=65 velocity=95 time=0
EXTRACT: note_off channel=4 note=62 velocity=95 time=0
EXTRACT: note_on channel=4 note=69 velocity=95 time=0
EXTRACT: note_on channel=4 note=64 velocity=95 time=0
EXTRACT: note_on channel=4 note=61 velocity=95 time=0
EXTRACT: note_off channel=4 note=69 velocity=95 time=0.4166665
EXTRACT: note_off channel=4 note=64 velocity=95 time=0
EXTRACT: note_off channel=4 note=61 velocity=95 time=0
EXTRACT: note_on channel=4 note=58 velocity=95 time=0
EXTRACT: note_on channel=4 note=53 velocity=95 time=0
EXTRACT: note_on channel=4 note=46 velocity=95 time=0
EXTRACT: note_off channel=4 note=58 velocity=95 time=0.4166665
EXTRACT: note_off channel=4 note=53 velocity=95 time=0
EXTRACT: note_off channel=4 note=46 velocity=95 time=0
EXTRACT: note_on channel=4 note=63 velocity=95 time=0
EXTRACT: note_on channel=4 note=58 velocity=95 time=0
EXTRACT: note_on channel=4 note=55 velocity=95 time=0
EXTRACT: note_on channel=4 note=51 velocity=95 time=0
EXTRACT: note_off channel=4 note=63 velocity=95 time=0.4166665
EXTRACT: note_off channel=4 note=58 velocity=95 time=0
EXTRACT: note_off channel=4 note=55 velocity=95 time=0
EXTRACT: note_off channel=4 note=51 velocity=95 time=0
EXTRACT: note_on channel=4 note=58 velocity=95 time=0
EXTRACT: note_on channel=4 note=53 velocity=95 time=0
EXTRACT: note_on channel=4 note=46 velocity=95 time=0
EXTRACT: note_off channel=4 note=58 velocity=95 time=0.4166665
EXTRACT: note_off channel=4 note=53 velocity=95 time=0
EXTRACT: note_off channel=4 note=46 velocity=95 time=0
EXTRACT: note_on channel=4 note=70 velocity=95 time=0
EXTRACT: note_on channel=4 note=67 velocity=95 time=0
EXTRACT: note_on channel=4 note=63 velocity=95 time=0
EXTRACT: note_on channel=4 note=58 velocity=95 time=0
EXTRACT: note_on channel=4 note=51 velocity=95 time=0
EXTRACT: note_off channel=4 note=70 velocity=95 time=0.62499975
EXTRACT: note_off channel=4 note=67 velocity=95 time=0
EXTRACT: note_off channel=4 note=63 velocity=95 time=0
EXTRACT: note_off channel=4 note=58 velocity=95 time=0
EXTRACT: note_off channel=4 note=51 velocity=95 time=0
EXTRACT: note_on channel=4 note=65 velocity=95 time=0
EXTRACT: note_on channel=4 note=62 velocity=95 time=0
EXTRACT: note_on channel=4 note=58 velocity=95 time=0
EXTRACT: note_on channel=4 note=46 velocity=95 time=0
EXTRACT: note_off channel=4 note=65 velocity=95 time=0.20833325
EXTRACT: note_off channel=4 note=62 velocity=95 time=0
EXTRACT: note_off channel=4 note=58 velocity=95 time=0
EXTRACT: note_off channel=4 note=46 velocity=95 time=0
EXTRACT: note_on channel=4 note=62 velocity=95 time=0
EXTRACT: note_on channel=4 note=58 velocity=95 time=0
EXTRACT: note_on channel=4 note=46 velocity=95 time=0
EXTRACT: note_off channel=4 note=62 velocity=95 time=0.20833325
EXTRACT: note_off channel=4 note=58 velocity=95 time=0
EXTRACT: note_off channel=4 note=46 velocity=95 time=0
EXTRACT: note_on channel=4 note=63 velocity=95 time=0
EXTRACT: note_on channel=4 note=58 velocity=95 time=0
EXTRACT: note_on channel=4 note=46 velocity=95 time=0
EXTRACT: note_off channel=4 note=63 velocity=95 time=0.20833325
EXTRACT: note_off channel=4 note=58 velocity=95 time=0
EXTRACT: note_off channel=4 note=46 velocity=95 time=0
EXTRACT: note_on channel=4 note=65 velocity=95 time=0
EXTRACT: note_on channel=4 note=58 velocity=95 time=0
EXTRACT: note_on channel=4 note=46 velocity=95 time=0
EXTRACT: note_off channel=4 note=65 velocity=95 time=0.20833325
EXTRACT: note_off channel=4 note=58 velocity=95 time=0
EXTRACT: note_off channel=4 note=46 velocity=95 time=0
EXTRACT: note_on channel=4 note=63 velocity=95 time=0
EXTRACT: note_on channel=4 note=58 velocity=95 time=0
EXTRACT: note_on channel=4 note=46 velocity=95 time=0
EXTRACT: note_off channel=4 note=63 velocity=95 time=0.20833325
EXTRACT: note_off channel=4 note=58 velocity=95 time=0
EXTRACT: note_off channel=4 note=46 velocity=95 time=0
EXTRACT: note_on channel=4 note=62 velocity=95 time=0
EXTRACT: note_on channel=4 note=58 velocity=95 time=0
EXTRACT: note_on channel=4 note=46 velocity=95 time=0
EXTRACT: note_off channel=4 note=62 velocity=95 time=0.4166665
EXTRACT: note_off channel=4 note=58 velocity=95 time=0
EXTRACT: note_off channel=4 note=46 velocity=95 time=0
EXTRACT: note_on channel=4 note=65 velocity=95 time=0.833333
EXTRACT: note_on channel=4 note=62 velocity=95 time=0
EXTRACT: note_on channel=4 note=58 velocity=95 time=0
EXTRACT: note_on channel=4 note=53 velocity=95 time=0
EXTRACT: note_on channel=4 note=46 velocity=95 time=0
EXTRACT: note_off channel=4 note=65 velocity=95 time=0.4166665
EXTRACT: note_off channel=4 note=62 velocity=95 time=0
EXTRACT: note_off channel=4 note=58 velocity=95 time=0
EXTRACT: note_off channel=4 note=53 velocity=95 time=0
EXTRACT: note_off channel=4 note=46 velocity=95 time=0
EXTRACT: note_on channel=4 note=67 velocity=95 time=0
EXTRACT: note_on channel=4 note=63 velocity=95 time=0
EXTRACT: note_on channel=4 note=58 velocity=95 time=0
EXTRACT: note_on channel=4 note=51 velocity=95 time=0
EXTRACT: note_off channel=4 note=67 velocity=95 time=0.4166665
EXTRACT: note_off channel=4 note=63 velocity=95 time=0
EXTRACT: note_off channel=4 note=58 velocity=95 time=0
EXTRACT: note_off channel=4 note=51 velocity=95 time=0
EXTRACT: note_on channel=4 note=62 velocity=95 time=0
EXTRACT: note_on channel=4 note=58 velocity=95 time=0
EXTRACT: note_on channel=4 note=53 velocity=95 time=0
EXTRACT: note_on channel=4 note=46 velocity=95 time=0
EXTRACT: note_off channel=4 note=62 velocity=95 time=0.20833325
EXTRACT: note_off channel=4 note=58 velocity=95 time=0
EXTRACT: note_off channel=4 note=53 velocity=95 time=0
EXTRACT: note_off channel=4 note=46 velocity=95 time=0
EXTRACT: note_on channel=4 note=62 velocity=95 time=0
EXTRACT: note_on channel=4 note=58 velocity=95 time=0
EXTRACT: note_on channel=4 note=46 velocity=95 time=0
EXTRACT: note_off channel=4 note=62 velocity=95 time=0.20833325
EXTRACT: note_off channel=4 note=58 velocity=95 time=0
EXTRACT: note_off channel=4 note=46 velocity=95 time=0
EXTRACT: note_on channel=4 note=57 velocity=95 time=0
EXTRACT: note_on channel=4 note=53 velocity=95 time=0
EXTRACT: note_on channel=4 note=46 velocity=95 time=0
EXTRACT: note_off channel=4 note=57 velocity=95 time=0.20833325
EXTRACT: note_off channel=4 note=53 velocity=95 time=0
EXTRACT: note_off channel=4 note=46 velocity=95 time=0
EXTRACT: note_on channel=4 note=58 velocity=95 time=0
EXTRACT: note_on channel=4 note=53 velocity=95 time=0
EXTRACT: note_on channel=4 note=46 velocity=95 time=0
EXTRACT: note_off channel=4 note=58 velocity=95 time=0.20833325
EXTRACT: note_off channel=4 note=53 velocity=95 time=0
EXTRACT: note_off channel=4 note=46 velocity=95 time=0
EXTRACT: note_on channel=4 note=65 velocity=95 time=0
EXTRACT: note_on channel=4 note=58 velocity=95 time=0
EXTRACT: note_on channel=4 note=46 velocity=95 time=0
EXTRACT: note_off channel=4 note=65 velocity=95 time=0.20833325
EXTRACT: note_off channel=4 note=58 velocity=95 time=0
EXTRACT: note_off channel=4 note=46 velocity=95 time=0
EXTRACT: note_on channel=4 note=63 velocity=95 time=0
EXTRACT: note_on channel=4 note=58 velocity=95 time=0
EXTRACT: note_on channel=4 note=46 velocity=95 time=0
EXTRACT: note_off channel=4 note=63 velocity=95 time=0.20833325
EXTRACT: note_off channel=4 note=58 velocity=95 time=0
EXTRACT: note_off channel=4 note=46 velocity=95 time=0
EXTRACT: note_on channel=4 note=62 velocity=95 time=0
EXTRACT: note_on channel=4 note=58 velocity=95 time=0
EXTRACT: note_on channel=4 note=46 velocity=95 time=0
EXTRACT: note_off channel=4 note=62 velocity=95 time=0.4166665
EXTRACT: note_off channel=4 note=58 velocity=95 time=0
EXTRACT: note_off channel=4 note=46 velocity=95 time=0
EXTRACT: note_on channel=4 note=65 velocity=95 time=0.4166665
EXTRACT: note_on channel=4 note=62 velocity=95 time=0
EXTRACT: note_on channel=4 note=58 velocity=95 time=0
EXTRACT: note_on channel=4 note=53 velocity=95 time=0
EXTRACT: note_on channel=4 note=46 velocity=95 time=0
EXTRACT: note_off channel=4 note=65 velocity=95 time=0.4166665
EXTRACT: note_off channel=4 note=62 velocity=95 time=0
EXTRACT: note_off channel=4 note=58 velocity=95 time=0
EXTRACT: note_off channel=4 note=53 velocity=95 time=0
EXTRACT: note_off channel=4 note=46 velocity=95 time=0
EXTRACT: note_on channel=4 note=67 velocity=95 time=0
EXTRACT: note_on channel=4 note=63 velocity=95 time=0
EXTRACT: note_on channel=4 note=58 velocity=95 time=0
EXTRACT: note_on channel=4 note=51 velocity=95 time=0
EXTRACT: note_off channel=4 note=67 velocity=95 time=0.4166665
EXTRACT: note_off channel=4 note=63 velocity=95 time=0
EXTRACT: note_off channel=4 note=58 velocity=95 time=0
EXTRACT: note_off channel=4 note=51 velocity=95 time=0
EXTRACT: note_on channel=4 note=62 velocity=95 time=0
EXTRACT: note_on channel=4 note=58 velocity=95 time=0
EXTRACT: note_on channel=4 note=53 velocity=95 time=0
EXTRACT: note_on channel=4 note=46 velocity=95 time=0
EXTRACT: note_off channel=4 note=62 velocity=95 time=0.20833325
EXTRACT: note_off channel=4 note=58 velocity=95 time=0
EXTRACT: note_off channel=4 note=53 velocity=95 time=0
EXTRACT: note_off channel=4 note=46 velocity=95 time=0
EXTRACT: note_on channel=4 note=62 velocity=95 time=0
EXTRACT: note_on channel=4 note=58 velocity=95 time=0
EXTRACT: note_on channel=4 note=46 velocity=95 time=0
EXTRACT: note_off channel=4 note=62 velocity=95 time=0
EXTRACT: note_off channel=4 note=58 velocity=95 time=0
EXTRACT: note_off channel=4 note=46 velocity=95 time=0
EXTRACT: note_on channel=4 note=62 velocity=95 time=0
EXTRACT: note_on channel=4 note=58 velocity=95 time=0
EXTRACT: note_on channel=4 note=46 velocity=95 time=0
EXTRACT: note_off channel=4 note=62 velocity=95 time=0.20833325
EXTRACT: note_off channel=4 note=58 velocity=95 time=0
EXTRACT: note_off channel=4 note=46 velocity=95 time=0
EXTRACT: note_on channel=4 note=63 velocity=95 time=0
EXTRACT: note_on channel=4 note=58 velocity=95 time=0
EXTRACT: note_on channel=4 note=46 velocity=95 time=0
EXTRACT: note_off channel=4 note=63 velocity=95 time=0.20833325
EXTRACT: note_off channel=4 note=58 velocity=95 time=0
EXTRACT: note_off channel=4 note=46 velocity=95 time=0
EXTRACT: note_on channel=4 note=65 velocity=95 time=0
EXTRACT: note_on channel=4 note=58 velocity=95 time=0
EXTRACT: note_on channel=4 note=46 velocity=95 time=0
EXTRACT: note_off channel=4 note=65 velocity=95 time=0.20833325
EXTRACT: note_off channel=4 note=58 velocity=95 time=0
EXTRACT: note_off channel=4 note=46 velocity=95 time=0
EXTRACT: note_on channel=4 note=63 velocity=95 time=0
EXTRACT: note_on channel=4 note=58 velocity=95 time=0
EXTRACT: note_on channel=4 note=46 velocity=95 time=0
EXTRACT: note_off channel=4 note=63 velocity=95 time=0.20833325
EXTRACT: note_off channel=4 note=58 velocity=95 time=0
EXTRACT: note_off channel=4 note=46 velocity=95 time=0
EXTRACT: note_on channel=4 note=62 velocity=95 time=0
EXTRACT: note_on channel=4 note=58 velocity=95 time=0
EXTRACT: note_on channel=4 note=46 velocity=95 time=0
EXTRACT: note_off channel=4 note=62 velocity=95 time=0.4166665
EXTRACT: note_off channel=4 note=58 velocity=95 time=0
EXTRACT: note_off channel=4 note=46 velocity=95 time=0
EXTRACT: note_on channel=4 note=62 velocity=95 time=0.4166665
EXTRACT: note_on channel=4 note=58 velocity=95 time=0
EXTRACT: note_on channel=4 note=46 velocity=95 time=0
EXTRACT: note_off channel=4 note=62 velocity=95 time=0.20833325
EXTRACT: note_off channel=4 note=58 velocity=95 time=0
EXTRACT: note_off channel=4 note=46 velocity=95 time=0
EXTRACT: note_on channel=4 note=63 velocity=95 time=0
EXTRACT: note_on channel=4 note=58 velocity=95 time=0
EXTRACT: note_on channel=4 note=46 velocity=95 time=0
EXTRACT: note_off channel=4 note=63 velocity=95 time=0.20833325
EXTRACT: note_off channel=4 note=58 velocity=95 time=0
EXTRACT: note_off channel=4 note=46 velocity=95 time=0
EXTRACT: note_on channel=4 note=65 velocity=95 time=0
EXTRACT: note_on channel=4 note=58 velocity=95 time=0
EXTRACT: note_on channel=4 note=46 velocity=95 time=0
EXTRACT: note_off channel=4 note=65 velocity=95 time=0.20833325
EXTRACT: note_off channel=4 note=58 velocity=95 time=0
EXTRACT: note_off channel=4 note=46 velocity=95 time=0
EXTRACT: note_on channel=4 note=63 velocity=95 time=0
EXTRACT: note_on channel=4 note=58 velocity=95 time=0
EXTRACT: note_on channel=4 note=46 velocity=95 time=0
EXTRACT: note_off channel=4 note=63 velocity=95 time=0.20833325
EXTRACT: note_off channel=4 note=58 velocity=95 time=0
EXTRACT: note_off channel=4 note=46 velocity=95 time=0
EXTRACT: note_on channel=4 note=62 velocity=95 time=0
EXTRACT: note_on channel=4 note=58 velocity=95 time=0
EXTRACT: note_on channel=4 note=46 velocity=95 time=0
EXTRACT: note_off channel=4 note=62 velocity=95 time=0.4166665
EXTRACT: note_off channel=4 note=58 velocity=95 time=0
EXTRACT: note_off channel=4 note=46 velocity=95 time=0
EXTRACT: note_on channel=4 note=62 velocity=95 time=0.4166665
EXTRACT: note_on channel=4 note=58 velocity=95 time=0
EXTRACT: note_on channel=4 note=46 velocity=95 time=0
EXTRACT: note_off channel=4 note=62 velocity=95 time=0.20833325
EXTRACT: note_off channel=4 note=58 velocity=95 time=0
EXTRACT: note_off channel=4 note=46 velocity=95 time=0
EXTRACT: note_on channel=4 note=63 velocity=95 time=0
EXTRACT: note_on channel=4 note=58 velocity=95 time=0
EXTRACT: note_on channel=4 note=46 velocity=95 time=0
EXTRACT: note_off channel=4 note=63 velocity=95 time=0.20833325
EXTRACT: note_off channel=4 note=58 velocity=95 time=0
EXTRACT: note_off channel=4 note=46 velocity=95 time=0
EXTRACT: note_on channel=4 note=65 velocity=95 time=0
EXTRACT: note_on channel=4 note=58 velocity=95 time=0
EXTRACT: note_on channel=4 note=46 velocity=95 time=0
EXTRACT: note_off channel=4 note=65 velocity=95 time=0.20833325
EXTRACT: note_off channel=4 note=58 velocity=95 time=0
EXTRACT: note_off channel=4 note=46 velocity=95 time=0
EXTRACT: note_on channel=4 note=63 velocity=95 time=0
EXTRACT: note_on channel=4 note=58 velocity=95 time=0
EXTRACT: note_on channel=4 note=46 velocity=95 time=0
EXTRACT: note_off channel=4 note=63 velocity=95 time=0.20833325
EXTRACT: note_off channel=4 note=58 velocity=95 time=0
EXTRACT: note_off channel=4 note=46 velocity=95 time=0
EXTRACT: note_on channel=4 note=62 velocity=95 time=0
EXTRACT: note_on channel=4 note=58 velocity=95 time=0
EXTRACT: note_on channel=4 note=46 velocity=95 time=0
EXTRACT: note_off channel=4 note=62 velocity=95 time=0.4166665
EXTRACT: note_off channel=4 note=58 velocity=95 time=0
EXTRACT: note_off channel=4 note=46 velocity=95 time=0
EXTRACT: note_on channel=4 note=59 velocity=95 time=0
EXTRACT: note_on channel=4 note=54 velocity=95 time=0
EXTRACT: note_on channel=4 note=47 velocity=95 time=0
EXTRACT: note_off channel=4 note=59 velocity=95 time=0.4166665
EXTRACT: note_off channel=4 note=54 velocity=95 time=0
EXTRACT: note_off channel=4 note=47 velocity=95 time=0
EXTRACT: note_on channel=4 note=57 velocity=95 time=0
EXTRACT: note_on channel=4 note=52 velocity=95 time=0
EXTRACT: note_on channel=4 note=45 velocity=95 time=0
EXTRACT: note_off channel=4 note=57 velocity=95 time=0.4166665
EXTRACT: note_off channel=4 note=52 velocity=95 time=0
EXTRACT: note_off channel=4 note=45 velocity=95 time=0
EXTRACT: note_on channel=4 note=66 velocity=95 time=0
EXTRACT: note_on channel=4 note=62 velocity=95 time=0
EXTRACT: note_on channel=4 note=57 velocity=95 time=0
EXTRACT: note_on channel=4 note=50 velocity=95 time=0
EXTRACT: note_off channel=4 note=66 velocity=95 time=0.4166665
EXTRACT: note_off channel=4 note=62 velocity=95 time=0
EXTRACT: note_off channel=4 note=57 velocity=95 time=0
EXTRACT: note_off channel=4 note=50 velocity=95 time=0
EXTRACT: note_on channel=4 note=65 velocity=95 time=0
EXTRACT: note_on channel=4 note=61 velocity=95 time=0
EXTRACT: note_on channel=4 note=56 velocity=95 time=0
EXTRACT: note_on channel=4 note=49 velocity=95 time=0
EXTRACT: note_off channel=4 note=65 velocity=95 time=0.4166665
EXTRACT: note_off channel=4 note=61 velocity=95 time=0
EXTRACT: note_off channel=4 note=56 velocity=95 time=0
EXTRACT: note_off channel=4 note=49 velocity=95 time=0
EXTRACT: note_on channel=4 note=70 velocity=95 time=0
EXTRACT: note_on channel=4 note=66 velocity=95 time=0
EXTRACT: note_on channel=4 note=61 velocity=95 time=0
EXTRACT: note_on channel=4 note=54 velocity=95 time=0
EXTRACT: note_off channel=4 note=70 velocity=95 time=0.4166665
EXTRACT: note_off channel=4 note=66 velocity=95 time=0
EXTRACT: note_off channel=4 note=61 velocity=95 time=0
EXTRACT: note_off channel=4 note=54 velocity=95 time=0
EXTRACT: note_on channel=4 note=58 velocity=95 time=0
EXTRACT: note_on channel=4 note=53 velocity=95 time=0
EXTRACT: note_on channel=4 note=46 velocity=95 time=0
EXTRACT: note_off channel=4 note=58 velocity=95 time=0.4166665
EXTRACT: note_off channel=4 note=53 velocity=95 time=0
EXTRACT: note_off channel=4 note=46 velocity=95 time=0
EXTRACT: note_on channel=4 note=63 velocity=95 time=0
EXTRACT: note_on channel=4 note=58 velocity=95 time=0
EXTRACT: note_on channel=4 note=51 velocity=95 time=0
EXTRACT: note_off channel=4 note=63 velocity=95 time=0.4166665
EXTRACT: note_off channel=4 note=58 velocity=95 time=0
EXTRACT: note_off channel=4 note=51 velocity=95 time=0
EXTRACT: note_on channel=4 note=70 velocity=95 time=1.666666
EXTRACT: note_on channel=4 note=67 velocity=95 time=0
EXTRACT: note_on channel=4 note=63 velocity=95 time=0
EXTRACT: note_on channel=4 note=58 velocity=95 time=0
EXTRACT: note_on channel=4 note=51 velocity=95 time=0
EXTRACT: note_off channel=4 note=70 velocity=95 time=0.20833325
EXTRACT: note_off channel=4 note=67 velocity=95 time=0
EXTRACT: note_off channel=4 note=63 velocity=95 time=0
EXTRACT: note_off channel=4 note=58 velocity=95 time=0
EXTRACT: note_off channel=4 note=51 velocity=95 time=0
EXTRACT: note_on channel=4 note=70 velocity=95 time=0
EXTRACT: note_on channel=4 note=67 velocity=95 time=0
EXTRACT: note_on channel=4 note=63 velocity=95 time=0
EXTRACT: note_on channel=4 note=58 velocity=95 time=0
EXTRACT: note_on channel=4 note=51 velocity=95 time=0
EXTRACT: note_off channel=4 note=70 velocity=95 time=0
EXTRACT: note_off channel=4 note=67 velocity=95 time=0
EXTRACT: note_off channel=4 note=63 velocity=95 time=0
EXTRACT: note_off channel=4 note=58 velocity=95 time=0
EXTRACT: note_off channel=4 note=51 velocity=95 time=0
EXTRACT: note_on channel=4 note=72 velocity=95 time=0
EXTRACT: note_on channel=4 note=68 velocity=95 time=0
EXTRACT: note_on channel=4 note=63 velocity=95 time=0
EXTRACT: note_on channel=4 note=56 velocity=95 time=0
EXTRACT: note_off channel=4 note=72 velocity=95 time=0.20833325
EXTRACT: note_off channel=4 note=68 velocity=95 time=0
EXTRACT: note_off channel=4 note=63 velocity=95 time=0
EXTRACT: note_off channel=4 note=56 velocity=95 time=0
EXTRACT: note_on channel=4 note=70 velocity=95 time=0
EXTRACT: note_on channel=4 note=67 velocity=95 time=0
EXTRACT: note_on channel=4 note=63 velocity=95 time=0
EXTRACT: note_on channel=4 note=58 velocity=95 time=0
EXTRACT: note_on channel=4 note=51 velocity=95 time=0
EXTRACT: note_off channel=4 note=70 velocity=95 time=0.20833325
EXTRACT: note_off channel=4 note=67 velocity=95 time=0
EXTRACT: note_off channel=4 note=63 velocity=95 time=0
EXTRACT: note_off channel=4 note=58 velocity=95 time=0
EXTRACT: note_off channel=4 note=51 velocity=95 time=0
EXTRACT: note_on channel=4 note=50 velocity=95 time=0
EXTRACT: note_off channel=4 note=50 velocity=95 time=0.20833325
EXTRACT: note_on channel=4 note=48 velocity=95 time=0
EXTRACT: note_off channel=4 note=48 velocity=95 time=0.20833325
EXTRACT: note_on channel=4 note=65 velocity=95 time=0
EXTRACT: note_on channel=4 note=62 velocity=95 time=0
EXTRACT: note_on channel=4 note=58 velocity=95 time=0
EXTRACT: note_on channel=4 note=53 velocity=95 time=0
EXTRACT: note_on channel=4 note=46 velocity=95 time=0
EXTRACT: note_off channel=4 note=65 velocity=95 time=0.833333
EXTRACT: note_off channel=4 note=62 velocity=95 time=0
EXTRACT: note_off channel=4 note=58 velocity=95 time=0
EXTRACT: note_off channel=4 note=53 velocity=95 time=0
EXTRACT: note_off channel=4 note=46 velocity=95 time=0
EXTRACT: note_on channel=4 note=67 velocity=95 time=0
EXTRACT: note_on channel=4 note=63 velocity=95 time=0
EXTRACT: note_on channel=4 note=58 velocity=95 time=0
EXTRACT: note_on channel=4 note=51 velocity=95 time=0
EXTRACT: note_off channel=4 note=67 velocity=95 time=0.62499975
EXTRACT: note_off channel=4 note=63 velocity=95 time=0
EXTRACT: note_off channel=4 note=58 velocity=95 time=0
EXTRACT: note_off channel=4 note=51 velocity=95 time=0
EXTRACT: note_on channel=4 note=67 velocity=95 time=0
EXTRACT: note_on channel=4 note=63 velocity=95 time=0
EXTRACT: note_on channel=4 note=58 velocity=95 time=0
EXTRACT: note_on channel=4 note=51 velocity=95 time=0
EXTRACT: note_off channel=4 note=67 velocity=95 time=0.20833325
EXTRACT: note_off channel=4 note=63 velocity=95 time=0
EXTRACT: note_off channel=4 note=58 velocity=95 time=0
EXTRACT: note_off channel=4 note=51 velocity=95 time=0
EXTRACT: note_on channel=4 note=68 velocity=95 time=0
EXTRACT: note_on channel=4 note=63 velocity=95 time=0
EXTRACT: note_on channel=4 note=60 velocity=95 time=0
EXTRACT: note_on channel=4 note=56 velocity=95 time=0
EXTRACT: note_on channel=4 note=51 velocity=95 time=0
EXTRACT: note_on channel=4 note=44 velocity=95 time=0
EXTRACT: note_off channel=4 note=68 velocity=95 time=0.4166665
EXTRACT: note_off channel=4 note=63 velocity=95 time=0
EXTRACT: note_off channel=4 note=60 velocity=95 time=0
EXTRACT: note_off channel=4 note=56 velocity=95 time=0
EXTRACT: note_off channel=4 note=51 velocity=95 time=0
EXTRACT: note_off channel=4 note=44 velocity=95 time=0
EXTRACT: note_on channel=4 note=68 velocity=95 time=0
EXTRACT: note_on channel=4 note=63 velocity=95 time=0
EXTRACT: note_on channel=4 note=60 velocity=95 time=0
EXTRACT: note_on channel=4 note=56 velocity=95 time=0
EXTRACT: note_on channel=4 note=51 velocity=95 time=0
EXTRACT: note_on channel=4 note=44 velocity=95 time=0
EXTRACT: note_off channel=4 note=68 velocity=95 time=0.4166665
EXTRACT: note_off channel=4 note=63 velocity=95 time=0
EXTRACT: note_off channel=4 note=60 velocity=95 time=0
EXTRACT: note_off channel=4 note=56 velocity=95 time=0
EXTRACT: note_off channel=4 note=51 velocity=95 time=0
EXTRACT: note_off channel=4 note=44 velocity=95 time=0
EXTRACT: note_on channel=4 note=72 velocity=95 time=0
EXTRACT: note_on channel=4 note=66 velocity=95 time=0
EXTRACT: note_on channel=4 note=62 velocity=95 time=0
EXTRACT: note_on channel=4 note=57 velocity=95 time=0
EXTRACT: note_on channel=4 note=50 velocity=95 time=0
EXTRACT: note_off channel=4 note=72 velocity=95 time=0.20833325
EXTRACT: note_off channel=4 note=66 velocity=95 time=0
EXTRACT: note_off channel=4 note=62 velocity=95 time=0
EXTRACT: note_off channel=4 note=57 velocity=95 time=0
EXTRACT: note_off channel=4 note=50 velocity=95 time=0
EXTRACT: note_on channel=4 note=72 velocity=95 time=0
EXTRACT: note_on channel=4 note=66 velocity=95 time=0
EXTRACT: note_on channel=4 note=62 velocity=95 time=0
EXTRACT: note_on channel=4 note=57 velocity=95 time=0
EXTRACT: note_on channel=4 note=50 velocity=95 time=0
EXTRACT: note_off channel=4 note=72 velocity=95 time=0.20833325
EXTRACT: note_off channel=4 note=66 velocity=95 time=0
EXTRACT: note_off channel=4 note=62 velocity=95 time=0
EXTRACT: note_off channel=4 note=57 velocity=95 time=0
EXTRACT: note_off channel=4 note=50 velocity=95 time=0
EXTRACT: note_on channel=4 note=72 velocity=95 time=0
EXTRACT: note_on channel=4 note=66 velocity=95 time=0
EXTRACT: note_on channel=4 note=62 velocity=95 time=0
EXTRACT: note_on channel=4 note=57 velocity=95 time=0
EXTRACT: note_on channel=4 note=50 velocity=95 time=0
EXTRACT: note_off channel=4 note=72 velocity=95 time=0.20833325
EXTRACT: note_off channel=4 note=66 velocity=95 time=0
EXTRACT: note_off channel=4 note=62 velocity=95 time=0
EXTRACT: note_off channel=4 note=57 velocity=95 time=0
EXTRACT: note_off channel=4 note=50 velocity=95 time=0
EXTRACT: note_on channel=4 note=72 velocity=95 time=0
EXTRACT: note_on channel=4 note=66 velocity=95 time=0
EXTRACT: note_on channel=4 note=62 velocity=95 time=0
EXTRACT: note_on channel=4 note=57 velocity=95 time=0
EXTRACT: note_on channel=4 note=50 velocity=95 time=0
EXTRACT: note_off channel=4 note=72 velocity=95 time=0.20833325
EXTRACT: note_off channel=4 note=66 velocity=95 time=0
EXTRACT: note_off channel=4 note=62 velocity=95 time=0
EXTRACT: note_off channel=4 note=57 velocity=95 time=0
EXTRACT: note_off channel=4 note=50 velocity=95 time=0
EXTRACT: note_on channel=4 note=67 velocity=95 time=0
EXTRACT: note_on channel=4 note=62 velocity=95 time=0
EXTRACT: note_on channel=4 note=58 velocity=95 time=0
EXTRACT: note_on channel=4 note=55 velocity=95 time=0
EXTRACT: note_on channel=4 note=50 velocity=95 time=0
EXTRACT: note_on channel=4 note=43 velocity=95 time=0
EXTRACT: note_off channel=4 note=67 velocity=95 time=0.4166665
EXTRACT: note_off channel=4 note=62 velocity=95 time=0
EXTRACT: note_off channel=4 note=58 velocity=95 time=0
EXTRACT: note_off channel=4 note=55 velocity=95 time=0
EXTRACT: note_off channel=4 note=50 velocity=95 time=0
EXTRACT: note_off channel=4 note=43 velocity=95 time=0
EXTRACT: note_on channel=4 note=67 velocity=95 time=0
EXTRACT: note_on channel=4 note=62 velocity=95 time=0
EXTRACT: note_on channel=4 note=58 velocity=95 time=0
EXTRACT: note_on channel=4 note=55 velocity=95 time=0
EXTRACT: note_on channel=4 note=50 velocity=95 time=0
EXTRACT: note_on channel=4 note=43 velocity=95 time=0
EXTRACT: note_on channel=0 note=58 velocity=95 time=0
EXTRACT: note_on channel=0 note=53 velocity=95 time=0
EXTRACT: note_on channel=0 note=46 velocity=95 time=0
EXTRACT: note_off channel=4 note=67 velocity=95 time=0
EXTRACT: note_off channel=4 note=62 velocity=95 time=0
EXTRACT: note_off channel=4 note=58 velocity=95 time=0
EXTRACT: note_off channel=4 note=55 velocity=95 time=0
EXTRACT: note_off channel=4 note=50 velocity=95 time=0
EXTRACT: note_off channel=4 note=43 velocity=95 time=0
EXTRACT: note_off channel=0 note=58 velocity=95 time=1.2499995
EXTRACT: note_off channel=0 note=53 velocity=95 time=0
EXTRACT: note_off channel=0 note=46 velocity=95 time=0
EXTRACT: note_on channel=0 note=58 velocity=95 time=0
EXTRACT: note_on channel=0 note=53 velocity=95 time=0
EXTRACT: note_on channel=0 note=46 velocity=95 time=0
EXTRACT: note_off channel=0 note=58 velocity=95 time=0.833333
EXTRACT: note_off channel=0 note=53 velocity=95 time=0
EXTRACT: note_off channel=0 note=46 velocity=95 time=0
EXTRACT: note_on channel=0 note=58 velocity=95 time=0
EXTRACT: note_on channel=0 note=53 velocity=95 time=0
EXTRACT: note_on channel=0 note=46 velocity=95 time=0
EXTRACT: note_off channel=0 note=58 velocity=95 time=0.833333
EXTRACT: note_off channel=0 note=53 velocity=95 time=0
EXTRACT: note_off channel=0 note=46 velocity=95 time=0
EXTRACT: note_on channel=0 note=58 velocity=95 time=0
EXTRACT: note_on channel=0 note=53 velocity=95 time=0
EXTRACT: note_on channel=0 note=46 velocity=95 time=0
EXTRACT: note_off channel=0 note=58 velocity=95 time=2.0833325
EXTRACT: note_off channel=0 note=53 velocity=95 time=0
EXTRACT: note_off channel=0 note=46 velocity=95 time=0
EXTRACT: note_on channel=0 note=58 velocity=95 time=0
EXTRACT: note_on channel=0 note=53 velocity=95 time=0
EXTRACT: note_on channel=0 note=46 velocity=95 time=0
EXTRACT: note_on channel=2 note=46 velocity=95 time=0.833333
EXTRACT: note_off channel=0 note=58 velocity=95 time=0.4166665
EXTRACT: note_off channel=0 note=53 velocity=95 time=0
EXTRACT: note_off channel=0 note=46 velocity=95 time=0
EXTRACT: note_on channel=0 note=58 velocity=95 time=0
EXTRACT: note_on channel=0 note=53 velocity=95 time=0
EXTRACT: note_on channel=0 note=46 velocity=95 time=0
EXTRACT: note_off channel=0 note=58 velocity=95 time=0.833333
EXTRACT: note_off channel=0 note=53 velocity=95 time=0
EXTRACT: note_off channel=0 note=46 velocity=95 time=0
EXTRACT: note_on channel=0 note=58 velocity=95 time=0
EXTRACT: note_on channel=0 note=53 velocity=95 time=0
EXTRACT: note_on channel=0 note=46 velocity=95 time=0
EXTRACT: note_off channel=0 note=58 velocity=95 time=0.4166665
EXTRACT: note_off channel=0 note=53 velocity=95 time=0
EXTRACT: note_off channel=0 note=46 velocity=95 time=0
EXTRACT: note_on channel=0 note=58 velocity=95 time=0
EXTRACT: note_on channel=0 note=53 velocity=95 time=0
EXTRACT: note_on channel=0 note=46 velocity=95 time=0
EXTRACT: note_off channel=2 note=46 velocity=95 time=0.4166665
EXTRACT: note_on channel=2 note=46 velocity=95 time=0
EXTRACT: note_off channel=0 note=58 velocity=95 time=0.833333
EXTRACT: note_off channel=0 note=53 velocity=95 time=0
EXTRACT: note_off channel=0 note=46 velocity=95 time=0
EXTRACT: note_on channel=0 note=46 velocity=95 time=0
EXTRACT: note_off channel=0 note=46 velocity=95 time=0.4166665
EXTRACT: note_on channel=0 note=58 velocity=95 time=0
EXTRACT: note_on channel=0 note=53 velocity=95 time=0
EXTRACT: note_on channel=0 note=46 velocity=95 time=0
EXTRACT: note_off channel=0 note=58 velocity=95 time=0.833333
EXTRACT: note_off channel=0 note=53 velocity=95 time=0
EXTRACT: note_off channel=0 note=46 velocity=95 time=0
EXTRACT: note_on channel=0 note=58 velocity=95 time=0
EXTRACT: note_on channel=0 note=53 velocity=95 time=0
EXTRACT: note_on channel=0 note=46 velocity=95 time=0
EXTRACT: note_off channel=2 note=46 velocity=95 time=0
EXTRACT: note_on channel=2 note=46 velocity=95 time=0
EXTRACT: note_off channel=0 note=58 velocity=95 time=1.2499995
EXTRACT: note_off channel=0 note=53 velocity=95 time=0
EXTRACT: note_off channel=0 note=46 velocity=95 time=0
EXTRACT: note_on channel=0 note=58 velocity=95 time=0
EXTRACT: note_on channel=0 note=53 velocity=95 time=0
EXTRACT: note_on channel=0 note=46 velocity=95 time=0
EXTRACT: note_off channel=0 note=58 velocity=95 time=0.833333
EXTRACT: note_off channel=0 note=53 velocity=95 time=0
EXTRACT: note_off channel=0 note=46 velocity=95 time=0
EXTRACT: note_on channel=0 note=58 velocity=95 time=0
EXTRACT: note_on channel=0 note=53 velocity=95 time=0
EXTRACT: note_on channel=0 note=46 velocity=95 time=0
EXTRACT: note_off channel=0 note=58 velocity=95 time=0.4166665
EXTRACT: note_off channel=0 note=53 velocity=95 time=0
EXTRACT: note_off channel=0 note=46 velocity=95 time=0
EXTRACT: note_on channel=0 note=58 velocity=95 time=0
EXTRACT: note_on channel=0 note=53 velocity=95 time=0
EXTRACT: note_on channel=0 note=46 velocity=95 time=0
EXTRACT: note_off channel=0 note=58 velocity=95 time=1.2499995
EXTRACT: note_off channel=0 note=53 velocity=95 time=0
EXTRACT: note_off channel=0 note=46 velocity=95 time=0
EXTRACT: note_on channel=0 note=58 velocity=95 time=0
EXTRACT: note_on channel=0 note=53 velocity=95 time=0
EXTRACT: note_on channel=0 note=46 velocity=95 time=0
EXTRACT: note_off channel=0 note=58 velocity=95 time=0.833333
EXTRACT: note_off channel=0 note=53 velocity=95 time=0
EXTRACT: note_off channel=0 note=46 velocity=95 time=0
EXTRACT: note_on channel=0 note=58 velocity=95 time=0
EXTRACT: note_on channel=0 note=53 velocity=95 time=0
EXTRACT: note_on channel=0 note=46 velocity=95 time=0
EXTRACT: note_off channel=0 note=58 velocity=95 time=0.4166665
EXTRACT: note_off channel=0 note=53 velocity=95 time=0
EXTRACT: note_off channel=0 note=46 velocity=95 time=0
EXTRACT: note_on channel=0 note=58 velocity=95 time=0
EXTRACT: note_on channel=0 note=53 velocity=95 time=0
EXTRACT: note_on channel=0 note=46 velocity=95 time=0
EXTRACT: note_off channel=0 note=58 velocity=95 time=0.4166665
EXTRACT: note_off channel=0 note=53 velocity=95 time=0
EXTRACT: note_off channel=0 note=46 velocity=95 time=0
EXTRACT: note_on channel=0 note=58 velocity=95 time=0
EXTRACT: note_on channel=0 note=53 velocity=95 time=0
EXTRACT: note_on channel=0 note=46 velocity=95 time=0
EXTRACT: note_off channel=0 note=58 velocity=95 time=0.4166665
EXTRACT: note_off channel=0 note=53 velocity=95 time=0
EXTRACT: note_off channel=0 note=46 velocity=95 time=0
EXTRACT: note_on channel=0 note=58 velocity=95 time=0
EXTRACT: note_on channel=0 note=53 velocity=95 time=0
EXTRACT: note_on channel=0 note=46 velocity=95 time=0
EXTRACT: note_off channel=0 note=58 velocity=95 time=0.4166665
EXTRACT: note_off channel=0 note=53 velocity=95 time=0
EXTRACT: note_off channel=0 note=46 velocity=95 time=0
EXTRACT: note_on channel=0 note=58 velocity=95 time=0
EXTRACT: note_on channel=0 note=53 velocity=95 time=0
EXTRACT: note_on channel=0 note=46 velocity=95 time=0
EXTRACT: note_off channel=0 note=58 velocity=95 time=0.4166665
EXTRACT: note_off channel=0 note=53 velocity=95 time=0
EXTRACT: note_off channel=0 note=46 velocity=95 time=0
EXTRACT: note_on channel=0 note=58 velocity=95 time=0
EXTRACT: note_on channel=0 note=53 velocity=95 time=0
EXTRACT: note_on channel=0 note=46 velocity=95 time=0
EXTRACT: note_off channel=2 note=46 velocity=95 time=0
EXTRACT: note_on channel=2 note=46 velocity=95 time=0
EXTRACT: note_off channel=0 note=58 velocity=95 time=0.4166665
EXTRACT: note_off channel=0 note=53 velocity=95 time=0
EXTRACT: note_off channel=0 note=46 velocity=95 time=0
EXTRACT: note_on channel=0 note=58 velocity=95 time=0
EXTRACT: note_on channel=0 note=53 velocity=95 time=0
EXTRACT: note_on channel=0 note=46 velocity=95 time=0
EXTRACT: note_off channel=0 note=58 velocity=95 time=0.4166665
EXTRACT: note_off channel=0 note=53 velocity=95 time=0
EXTRACT: note_off channel=0 note=46 velocity=95 time=0
EXTRACT: note_on channel=0 note=58 velocity=95 time=0
EXTRACT: note_on channel=0 note=53 velocity=95 time=0
EXTRACT: note_on channel=0 note=46 velocity=95 time=0
EXTRACT: note_off channel=0 note=58 velocity=95 time=0.4166665
EXTRACT: note_off channel=0 note=53 velocity=95 time=0
EXTRACT: note_off channel=0 note=46 velocity=95 time=0
EXTRACT: note_on channel=0 note=58 velocity=95 time=0
EXTRACT: note_on channel=0 note=53 velocity=95 time=0
EXTRACT: note_on channel=0 note=46 velocity=95 time=0
EXTRACT: note_off channel=0 note=58 velocity=95 time=0.4166665
EXTRACT: note_off channel=0 note=53 velocity=95 time=0
EXTRACT: note_off channel=0 note=46 velocity=95 time=0
EXTRACT: note_on channel=0 note=58 velocity=95 time=0
EXTRACT: note_on channel=0 note=53 velocity=95 time=0
EXTRACT: note_on channel=0 note=46 velocity=95 time=0
EXTRACT: note_off channel=0 note=58 velocity=95 time=0.4166665
EXTRACT: note_off channel=0 note=53 velocity=95 time=0
EXTRACT: note_off channel=0 note=46 velocity=95 time=0
EXTRACT: note_on channel=0 note=46 velocity=95 time=0
EXTRACT: note_off channel=0 note=46 velocity=95 time=0.833333
EXTRACT: note_on channel=0 note=48 velocity=95 time=0
EXTRACT: note_off channel=0 note=48 velocity=95 time=0.4166665
EXTRACT: note_on channel=0 note=51 velocity=95 time=0
EXTRACT: note_off channel=2 note=46 velocity=95 time=0
EXTRACT: note_on channel=2 note=51 velocity=95 time=0
EXTRACT: note_off channel=0 note=51 velocity=95 time=0.4166665
EXTRACT: note_on channel=0 note=43 velocity=95 time=0
EXTRACT: note_off channel=2 note=51 velocity=95 time=0
EXTRACT: note_on channel=2 note=43 velocity=95 time=0
EXTRACT: note_off channel=0 note=43 velocity=95 time=1.2499995
EXTRACT: note_on channel=0 note=44 velocity=95 time=0
EXTRACT: note_off channel=2 note=43 velocity=95 time=0
EXTRACT: note_on channel=2 note=44 velocity=95 time=0
EXTRACT: note_off channel=0 note=44 velocity=95 time=0.833333
EXTRACT: note_on channel=0 note=46 velocity=95 time=0
EXTRACT: note_off channel=2 note=44 velocity=95 time=0
EXTRACT: note_on channel=2 note=46 velocity=95 time=0
EXTRACT: note_off channel=0 note=46 velocity=95 time=0.833333
EXTRACT: note_on channel=0 note=48 velocity=95 time=0
EXTRACT: note_off channel=2 note=46 velocity=95 time=0
EXTRACT: note_on channel=2 note=48 velocity=95 time=0
EXTRACT: note_off channel=0 note=48 velocity=95 time=0.4166665
EXTRACT: note_on channel=0 note=50 velocity=95 time=0
EXTRACT: note_off channel=2 note=48 velocity=95 time=0
EXTRACT: note_on channel=2 note=50 velocity=95 time=0
EXTRACT: note_off channel=0 note=50 velocity=95 time=0.4166665
EXTRACT: note_on channel=0 note=51 velocity=95 time=0
EXTRACT: note_off channel=2 note=50 velocity=95 time=0
EXTRACT: note_on channel=2 note=51 velocity=95 time=0
EXTRACT: note_off channel=0 note=51 velocity=95 time=0.833333
EXTRACT: note_on channel=0 note=51 velocity=95 time=0
EXTRACT: note_off channel=2 note=51 velocity=95 time=0
EXTRACT: note_on channel=2 note=51 velocity=95 time=0
EXTRACT: note_off channel=0 note=51 velocity=95 time=0.833333
EXTRACT: note_on channel=0 note=43 velocity=95 time=0
EXTRACT: note_off channel=2 note=51 velocity=95 time=0
EXTRACT: note_on channel=2 note=43 velocity=95 time=0
EXTRACT: note_off channel=0 note=43 velocity=95 time=0.833333
EXTRACT: note_on channel=0 note=44 velocity=95 time=0
EXTRACT: note_off channel=2 note=43 velocity=95 time=0
EXTRACT: note_on channel=2 note=44 velocity=95 time=0
EXTRACT: note_off channel=0 note=44 velocity=95 time=0.833333
EXTRACT: note_on channel=0 note=46 velocity=95 time=0
EXTRACT: note_off channel=2 note=44 velocity=95 time=0
EXTRACT: note_on channel=2 note=46 velocity=95 time=0
EXTRACT: note_off channel=0 note=46 velocity=95 time=0.4166665
EXTRACT: note_on channel=0 note=48 velocity=95 time=0
EXTRACT: note_off channel=2 note=46 velocity=95 time=0
EXTRACT: note_on channel=2 note=48 velocity=95 time=0
EXTRACT: note_off channel=0 note=48 velocity=95 time=0.4166665
EXTRACT: note_on channel=0 note=46 velocity=95 time=0
EXTRACT: note_off channel=2 note=48 velocity=95 time=0
EXTRACT: note_on channel=2 note=46 velocity=95 time=0
EXTRACT: note_off channel=0 note=46 velocity=95 time=1.666666
EXTRACT: note_on channel=0 note=51 velocity=95 time=0
EXTRACT: note_off channel=2 note=46 velocity=95 time=0
EXTRACT: note_on channel=2 note=51 velocity=95 time=0
EXTRACT: note_off channel=0 note=51 velocity=95 time=0.833333
EXTRACT: note_on channel=0 note=43 velocity=95 time=0
EXTRACT: note_off channel=2 note=51 velocity=95 time=0
EXTRACT: note_on channel=2 note=43 velocity=95 time=0
EXTRACT: note_off channel=0 note=43 velocity=95 time=0.833333
EXTRACT: note_on channel=0 note=44 velocity=95 time=0
EXTRACT: note_off channel=2 note=43 velocity=95 time=0
EXTRACT: note_on channel=2 note=44 velocity=95 time=0
EXTRACT: note_off channel=0 note=44 velocity=95 time=0.833333
EXTRACT: note_on channel=0 note=46 velocity=95 time=0
EXTRACT: note_off channel=2 note=44 velocity=95 time=0
EXTRACT: note_on channel=2 note=46 velocity=95 time=0
EXTRACT: note_off channel=0 note=46 velocity=95 time=0.833333
EXTRACT: note_on channel=0 note=48 velocity=95 time=0
EXTRACT: note_off channel=2 note=46 velocity=95 time=0
EXTRACT: note_on channel=2 note=48 velocity=95 time=0
EXTRACT: note_off channel=0 note=48 velocity=95 time=0.4166665
EXTRACT: note_on channel=0 note=50 velocity=95 time=0
EXTRACT: note_off channel=2 note=48 velocity=95 time=0
EXTRACT: note_on channel=2 note=50 velocity=95 time=0
EXTRACT: note_off channel=0 note=50 velocity=95 time=0.4166665
EXTRACT: note_on channel=0 note=51 velocity=95 time=0
EXTRACT: note_off channel=2 note=50 velocity=95 time=0
EXTRACT: note_on channel=2 note=51 velocity=95 time=0
EXTRACT: note_off channel=0 note=51 velocity=95 time=0.833333
EXTRACT: note_on channel=0 note=53 velocity=95 time=0
EXTRACT: note_off channel=2 note=51 velocity=95 time=0
EXTRACT: note_on channel=2 note=53 velocity=95 time=0
EXTRACT: note_off channel=0 note=53 velocity=95 time=0.833333
EXTRACT: note_on channel=0 note=45 velocity=95 time=0
EXTRACT: note_off channel=2 note=53 velocity=95 time=0
EXTRACT: note_on channel=2 note=45 velocity=95 time=0
EXTRACT: note_off channel=0 note=45 velocity=95 time=0.833333
EXTRACT: note_on channel=0 note=46 velocity=95 time=0
EXTRACT: note_off channel=2 note=45 velocity=95 time=0
EXTRACT: note_on channel=2 note=46 velocity=95 time=0
EXTRACT: note_off channel=0 note=46 velocity=95 time=0.833333
EXTRACT: note_on channel=0 note=48 velocity=95 time=0
EXTRACT: note_off channel=2 note=46 velocity=95 time=0
EXTRACT: note_on channel=2 note=48 velocity=95 time=0
EXTRACT: note_off channel=0 note=48 velocity=95 time=0.4166665
EXTRACT: note_on channel=0 note=50 velocity=95 time=0
EXTRACT: note_off channel=2 note=48 velocity=95 time=0
EXTRACT: note_on channel=2 note=50 velocity=95 time=0
EXTRACT: note_off channel=0 note=50 velocity=95 time=0.4166665
EXTRACT: note_on channel=0 note=48 velocity=95 time=0
EXTRACT: note_off channel=2 note=50 velocity=95 time=0
EXTRACT: note_on channel=2 note=48 velocity=95 time=0
EXTRACT: note_off channel=0 note=48 velocity=95 time=1.2499995
EXTRACT: note_on channel=0 note=48 velocity=95 time=0
EXTRACT: note_off channel=2 note=48 velocity=95 time=0
EXTRACT: note_on channel=2 note=48 velocity=95 time=0
EXTRACT: note_off channel=0 note=48 velocity=95 time=0.4166665
EXTRACT: note_on channel=0 note=58 velocity=95 time=0
EXTRACT: note_on channel=0 note=53 velocity=95 time=0
EXTRACT: note_on channel=0 note=46 velocity=95 time=0
EXTRACT: note_off channel=2 note=48 velocity=95 time=0
EXTRACT: note_off channel=0 note=58 velocity=95 time=7.499997
EXTRACT: note_off channel=0 note=53 velocity=95 time=0
EXTRACT: note_off channel=0 note=46 velocity=95 time=0
EXTRACT: note_on channel=0 note=63 velocity=95 time=0
EXTRACT: note_on channel=0 note=58 velocity=95 time=0
EXTRACT: note_on channel=0 note=51 velocity=95 time=0
EXTRACT: note_off channel=0 note=63 velocity=95 time=1.2499995
EXTRACT: note_off channel=0 note=58 velocity=95 time=0
EXTRACT: note_off channel=0 note=51 velocity=95 time=0
EXTRACT: note_on channel=0 note=63 velocity=95 time=0
EXTRACT: note_on channel=0 note=58 velocity=95 time=0
EXTRACT: note_on channel=0 note=51 velocity=95 time=0
EXTRACT: note_off channel=0 note=63 velocity=95 time=1.2499995
EXTRACT: note_off channel=0 note=58 velocity=95 time=0
EXTRACT: note_off channel=0 note=51 velocity=95 time=0
EXTRACT: note_on channel=0 note=58 velocity=95 time=0
EXTRACT: note_on channel=0 note=53 velocity=95 time=0
EXTRACT: note_on channel=0 note=46 velocity=95 time=0
EXTRACT: note_off channel=0 note=58 velocity=95 time=1.2499995
EXTRACT: note_off channel=0 note=53 velocity=95 time=0
EXTRACT: note_off channel=0 note=46 velocity=95 time=0
EXTRACT: note_on channel=0 note=58 velocity=95 time=0
EXTRACT: note_off channel=0 note=58 velocity=95 time=0.833333
EXTRACT: note_on channel=0 note=53 velocity=95 time=0
EXTRACT: note_off channel=0 note=53 velocity=95 time=0.4166665
EXTRACT: note_on channel=0 note=58 velocity=95 time=0
EXTRACT: note_off channel=0 note=58 velocity=95 time=0.833333
EXTRACT: note_on channel=0 note=56 velocity=95 time=0
EXTRACT: note_off channel=0 note=56 velocity=95 time=0.4166665
EXTRACT: note_on channel=0 note=58 velocity=95 time=0
EXTRACT: note_off channel=0 note=58 velocity=95 time=0.4166665
EXTRACT: note_on channel=0 note=56 velocity=95 time=0
EXTRACT: note_off channel=0 note=56 velocity=95 time=0.4166665
EXTRACT: note_on channel=0 note=53 velocity=95 time=0
EXTRACT: note_off channel=0 note=53 velocity=95 time=0
EXTRACT: note_on channel=0 note=49 velocity=95 time=0
EXTRACT: note_off channel=0 note=49 velocity=95 time=0.4166665
EXTRACT: note_on channel=0 note=61 velocity=95 time=0
EXTRACT: note_off channel=0 note=61 velocity=95 time=0.833333
EXTRACT: note_on channel=0 note=61 velocity=95 time=0
EXTRACT: note_off channel=0 note=61 velocity=95 time=0.833333
EXTRACT: note_on channel=0 note=55 velocity=95 time=0
EXTRACT: note_off channel=0 note=55 velocity=95 time=0
EXTRACT: note_on channel=0 note=58 velocity=95 time=0
EXTRACT: note_on channel=0 note=53 velocity=95 time=0
EXTRACT: note_on channel=0 note=46 velocity=95 time=0
EXTRACT: note_off channel=0 note=58 velocity=95 time=3.7499985
EXTRACT: note_off channel=0 note=53 velocity=95 time=0
EXTRACT: note_off channel=0 note=46 velocity=95 time=0
EXTRACT: note_on channel=0 note=58 velocity=95 time=0
EXTRACT: note_off channel=0 note=58 velocity=95 time=0.833333
EXTRACT: note_on channel=0 note=40 velocity=95 time=0
EXTRACT: note_off channel=0 note=40 velocity=95 time=0.4166665
EXTRACT: note_on channel=0 note=53 velocity=95 time=0
EXTRACT: note_on channel=0 note=46 velocity=95 time=0
EXTRACT: note_off channel=0 note=53 velocity=95 time=2.0833325
EXTRACT: note_off channel=0 note=46 velocity=95 time=0
EXTRACT: note_on channel=0 note=51 velocity=95 time=0
EXTRACT: note_off channel=0 note=51 velocity=95 time=0.4166665
EXTRACT: note_on channel=0 note=51 velocity=95 time=0
EXTRACT: note_off channel=0 note=51 velocity=95 time=0.833333
EXTRACT: note_on channel=0 note=51 velocity=95 time=0
EXTRACT: note_off channel=0 note=51 velocity=95 time=0.833333
EXTRACT: note_on channel=0 note=51 velocity=95 time=0
EXTRACT: note_off channel=0 note=51 velocity=95 time=0.4166665
EXTRACT: note_on channel=0 note=45 velocity=70 time=0
EXTRACT: note_off channel=0 note=45 velocity=70 time=0.4166665
EXTRACT: note_on channel=0 note=63 velocity=95 time=0
EXTRACT: note_on channel=0 note=60 velocity=95 time=0
EXTRACT: note_on channel=0 note=56 velocity=95 time=0
EXTRACT: note_on channel=0 note=51 velocity=95 time=0
EXTRACT: note_on channel=0 note=44 velocity=95 time=0
EXTRACT: note_off channel=0 note=63 velocity=95 time=3.333332
EXTRACT: note_off channel=0 note=60 velocity=95 time=0
EXTRACT: note_off channel=0 note=56 velocity=95 time=0
EXTRACT: note_off channel=0 note=51 velocity=95 time=0
EXTRACT: note_off channel=0 note=44 velocity=95 time=0
EXTRACT: note_on channel=0 note=63 velocity=95 time=0
EXTRACT: note_on channel=0 note=60 velocity=95 time=0
EXTRACT: note_on channel=0 note=56 velocity=95 time=0
EXTRACT: note_on channel=0 note=51 velocity=95 time=0
EXTRACT: note_on channel=0 note=44 velocity=95 time=0
EXTRACT: note_off channel=0 note=63 velocity=95 time=0.833333
EXTRACT: note_off channel=0 note=60 velocity=95 time=0
EXTRACT: note_off channel=0 note=56 velocity=95 time=0
EXTRACT: note_off channel=0 note=51 velocity=95 time=0
EXTRACT: note_off channel=0 note=44 velocity=95 time=0
EXTRACT: note_on channel=0 note=62 velocity=95 time=0
EXTRACT: note_on channel=0 note=58 velocity=95 time=0
EXTRACT: note_on channel=0 note=55 velocity=95 time=0
EXTRACT: note_on channel=0 note=50 velocity=95 time=0
EXTRACT: note_on channel=0 note=43 velocity=95 time=0
EXTRACT: note_off channel=0 note=62 velocity=95 time=0.833333
EXTRACT: note_off channel=0 note=58 velocity=95 time=0
EXTRACT: note_off channel=0 note=55 velocity=95 time=0
EXTRACT: note_off channel=0 note=50 velocity=95 time=0
EXTRACT: note_off channel=0 note=43 velocity=95 time=0
EXTRACT: note_on channel=0 note=53 velocity=95 time=0
EXTRACT: note_on channel=0 note=46 velocity=95 time=0
EXTRACT: note_on channel=0 note=41 velocity=95 time=0
EXTRACT: note_off channel=0 note=53 velocity=95 time=4.5833315
EXTRACT: note_off channel=0 note=46 velocity=95 time=0
EXTRACT: note_off channel=0 note=41 velocity=95 time=0
EXTRACT: note_on channel=0 note=40 velocity=95 time=0
EXTRACT: note_off channel=0 note=40 velocity=95 time=0.4166665
EXTRACT: note_on channel=0 note=62 velocity=95 time=0
EXTRACT: note_on channel=0 note=58 velocity=95 time=0
EXTRACT: note_on channel=0 note=53 velocity=95 time=0
EXTRACT: note_on channel=0 note=46 velocity=95 time=0
EXTRACT: note_off channel=0 note=62 velocity=95 time=2.499999
EXTRACT: note_off channel=0 note=58 velocity=95 time=0
EXTRACT: note_off channel=0 note=53 velocity=95 time=0
EXTRACT: note_off channel=0 note=46 velocity=95 time=0
EXTRACT: note_on channel=0 note=55 velocity=95 time=0
EXTRACT: note_off channel=0 note=55 velocity=95 time=0.833333
EXTRACT: note_on channel=0 note=53 velocity=95 time=0
EXTRACT: note_off channel=0 note=53 velocity=95 time=0.833333
EXTRACT: note_on channel=0 note=50 velocity=95 time=0
EXTRACT: note_off channel=0 note=50 velocity=95 time=0.4166665
EXTRACT: note_on channel=0 note=48 velocity=70 time=0
EXTRACT: note_off channel=0 note=48 velocity=70 time=0.4166665
EXTRACT: note_on channel=0 note=41 velocity=95 time=0
EXTRACT: note_off channel=0 note=41 velocity=95 time=4.166665
EXTRACT: note_on channel=0 note=48 velocity=95 time=0
EXTRACT: note_off channel=0 note=48 velocity=95 time=0.833333
EXTRACT: note_on channel=0 note=62 velocity=95 time=0
EXTRACT: note_on channel=0 note=58 velocity=95 time=0
EXTRACT: note_on channel=0 note=53 velocity=95 time=0
EXTRACT: note_on channel=0 note=46 velocity=95 time=0
EXTRACT: note_off channel=0 note=62 velocity=95 time=1.2499995
EXTRACT: note_off channel=0 note=58 velocity=95 time=0
EXTRACT: note_off channel=0 note=53 velocity=95 time=0
EXTRACT: note_off channel=0 note=46 velocity=95 time=0
EXTRACT: note_on channel=0 note=62 velocity=95 time=0
EXTRACT: note_on channel=0 note=58 velocity=95 time=0
EXTRACT: note_on channel=0 note=53 velocity=95 time=0
EXTRACT: note_on channel=0 note=46 velocity=95 time=0
EXTRACT: note_off channel=0 note=62 velocity=95 time=0.833333
EXTRACT: note_off channel=0 note=58 velocity=95 time=0
EXTRACT: note_off channel=0 note=53 velocity=95 time=0
EXTRACT: note_off channel=0 note=46 velocity=95 time=0
EXTRACT: note_on channel=0 note=48 velocity=95 time=0
EXTRACT: note_on channel=0 note=40 velocity=95 time=0
EXTRACT: note_off channel=0 note=40 velocity=95 time=0.0312499875
EXTRACT: note_off channel=0 note=48 velocity=95 time=0.3854165125
EXTRACT: note_on channel=0 note=50 velocity=95 time=0
EXTRACT: note_off channel=0 note=50 velocity=95 time=0.833333
EXTRACT: note_on channel=0 note=53 velocity=95 time=0
EXTRACT: note_off channel=0 note=53 velocity=95 time=0.4166665
EXTRACT: note_on channel=0 note=55 velocity=95 time=0
EXTRACT: note_off channel=0 note=55 velocity=95 time=0.4166665
EXTRACT: note_on channel=0 note=53 velocity=70 time=0
EXTRACT: note_off channel=0 note=53 velocity=70 time=0.4166665
EXTRACT: note_on channel=1 note=50 velocity=95 time=0
EXTRACT: note_off channel=1 note=50 velocity=95 time=0.4166665
EXTRACT: note_on channel=0 note=41 velocity=95 time=0
EXTRACT: note_off channel=0 note=41 velocity=95 time=1.666666
EXTRACT: note_on channel=0 note=40 velocity=95 time=0
EXTRACT: note_off channel=0 note=40 velocity=95 time=0.833333
EXTRACT: note_on channel=0 note=58 velocity=95 time=0
EXTRACT: note_on channel=0 note=53 velocity=95 time=0
EXTRACT: note_on channel=0 note=46 velocity=95 time=0
EXTRACT: note_off channel=0 note=58 velocity=95 time=2.499999
EXTRACT: note_off channel=0 note=53 velocity=95 time=0
EXTRACT: note_off channel=0 note=46 velocity=95 time=0
EXTRACT: note_on channel=0 note=41 velocity=95 time=0
EXTRACT: note_off channel=0 note=41 velocity=95 time=2.0833325
EXTRACT: note_on channel=0 note=50 velocity=95 time=0
EXTRACT: note_on channel=0 note=45 velocity=95 time=0
EXTRACT: note_on channel=0 note=40 velocity=95 time=0
EXTRACT: note_off channel=0 note=50 velocity=95 time=0.0312499875
EXTRACT: note_off channel=0 note=45 velocity=95 time=0
EXTRACT: note_off channel=0 note=40 velocity=95 time=0
EXTRACT: note_on channel=0 note=58 velocity=95 time=0.3854165125
EXTRACT: note_on channel=0 note=53 velocity=95 time=0
EXTRACT: note_on channel=0 note=46 velocity=95 time=0
EXTRACT: note_off channel=0 note=58 velocity=95 time=1.666666
EXTRACT: note_off channel=0 note=53 velocity=95 time=0
EXTRACT: note_off channel=0 note=46 velocity=95 time=0
EXTRACT: note_on channel=1 note=46 velocity=95 time=0
EXTRACT: pitchwheel channel=1 pitch=768 time=0.104166625
EXTRACT: pitchwheel channel=1 pitch=1664 time=0.104166625
EXTRACT: pitchwheel channel=1 pitch=2560 time=0.104166625
EXTRACT: pitchwheel channel=1 pitch=3456 time=0.104166625
EXTRACT: pitchwheel channel=1 pitch=0 time=0
EXTRACT: note_off channel=1 note=46 velocity=95 time=0
EXTRACT: note_on channel=0 note=51 velocity=95 time=0
EXTRACT: note_off channel=0 note=51 velocity=95 time=0.4166665
EXTRACT: note_on channel=0 note=51 velocity=95 time=0
EXTRACT: note_on channel=2 note=51 velocity=95 time=0
EXTRACT: note_off channel=0 note=51 velocity=95 time=0.4166665
EXTRACT: note_on channel=0 note=43 velocity=95 time=0
EXTRACT: note_off channel=2 note=51 velocity=95 time=0
EXTRACT: note_on channel=2 note=43 velocity=95 time=0
EXTRACT: note_off channel=0 note=43 velocity=95 time=1.2499995
EXTRACT: note_on channel=0 note=44 velocity=95 time=0
EXTRACT: note_off channel=2 note=43 velocity=95 time=0
EXTRACT: note_on channel=2 note=44 velocity=95 time=0
EXTRACT: note_off channel=0 note=44 velocity=95 time=0.833333
EXTRACT: note_on channel=0 note=46 velocity=95 time=0
EXTRACT: note_off channel=2 note=44 velocity=95 time=0
EXTRACT: note_on channel=2 note=46 velocity=95 time=0
EXTRACT: note_off channel=0 note=46 velocity=95 time=0.833333
EXTRACT: note_on channel=0 note=48 velocity=95 time=0
EXTRACT: note_off channel=2 note=46 velocity=95 time=0
EXTRACT: note_on channel=2 note=48 velocity=95 time=0
EXTRACT: note_off channel=0 note=48 velocity=95 time=0.4166665
EXTRACT: note_on channel=0 note=50 velocity=95 time=0
EXTRACT: note_off channel=2 note=48 velocity=95 time=0
EXTRACT: note_on channel=2 note=50 velocity=95 time=0
EXTRACT: note_off channel=0 note=50 velocity=95 time=0.4166665
EXTRACT: note_on channel=0 note=51 velocity=95 time=0
EXTRACT: note_off channel=2 note=50 velocity=95 time=0
EXTRACT: note_on channel=2 note=51 velocity=95 time=0
EXTRACT: note_off channel=0 note=51 velocity=95 time=0.833333
EXTRACT: note_on channel=0 note=51 velocity=95 time=0
EXTRACT: note_off channel=2 note=51 velocity=95 time=0
EXTRACT: note_on channel=2 note=51 velocity=95 time=0
EXTRACT: note_off channel=0 note=51 velocity=95 time=0.833333
EXTRACT: note_on channel=0 note=43 velocity=95 time=0
EXTRACT: note_off channel=2 note=51 velocity=95 time=0
EXTRACT: note_on channel=2 note=43 velocity=95 time=0
EXTRACT: note_off channel=0 note=43 velocity=95 time=0.833333
EXTRACT: note_on channel=0 note=44 velocity=95 time=0
EXTRACT: note_off channel=2 note=43 velocity=95 time=0
EXTRACT: note_on channel=2 note=44 velocity=95 time=0
EXTRACT: note_off channel=0 note=44 velocity=95 time=0.833333
EXTRACT: note_on channel=0 note=46 velocity=95 time=0
EXTRACT: note_off channel=2 note=44 velocity=95 time=0
EXTRACT: note_on channel=2 note=46 velocity=95 time=0
EXTRACT: note_off channel=0 note=46 velocity=95 time=0.4166665
EXTRACT: note_on channel=0 note=48 velocity=95 time=0
EXTRACT: note_off channel=2 note=46 velocity=95 time=0
EXTRACT: note_on channel=2 note=48 velocity=95 time=0
EXTRACT: note_off channel=0 note=48 velocity=95 time=0.4166665
EXTRACT: note_on channel=0 note=46 velocity=95 time=0
EXTRACT: note_off channel=2 note=48 velocity=95 time=0
EXTRACT: note_on channel=2 note=46 velocity=95 time=0
EXTRACT: note_off channel=0 note=46 velocity=95 time=1.666666
EXTRACT: note_on channel=0 note=51 velocity=95 time=0
EXTRACT: note_off channel=2 note=46 velocity=95 time=0
EXTRACT: note_on channel=2 note=51 velocity=95 time=0
EXTRACT: note_off channel=0 note=51 velocity=95 time=0.833333
EXTRACT: note_on channel=0 note=43 velocity=95 time=0
EXTRACT: note_off channel=2 note=51 velocity=95 time=0
EXTRACT: note_on channel=2 note=43 velocity=95 time=0
EXTRACT: note_off channel=0 note=43 velocity=95 time=0.833333
EXTRACT: note_on channel=0 note=44 velocity=95 time=0
EXTRACT: note_off channel=2 note=43 velocity=95 time=0
EXTRACT: note_on channel=2 note=44 velocity=95 time=0
EXTRACT: note_off channel=0 note=44 velocity=95 time=0.833333
EXTRACT: note_on channel=0 note=46 velocity=95 time=0
EXTRACT: note_off channel=2 note=44 velocity=95 time=0
EXTRACT: note_on channel=2 note=46 velocity=95 time=0
EXTRACT: note_off channel=0 note=46 velocity=95 time=0.833333
EXTRACT: note_on channel=0 note=48 velocity=95 time=0
EXTRACT: note_off channel=2 note=46 velocity=95 time=0
EXTRACT: note_on channel=2 note=48 velocity=95 time=0
EXTRACT: note_off channel=0 note=48 velocity=95 time=0.4166665
EXTRACT: note_on channel=0 note=50 velocity=95 time=0
EXTRACT: note_off channel=2 note=48 velocity=95 time=0
EXTRACT: note_on channel=2 note=50 velocity=95 time=0
EXTRACT: note_off channel=0 note=50 velocity=95 time=0.4166665
EXTRACT: note_on channel=0 note=51 velocity=95 time=0
EXTRACT: note_off channel=2 note=50 velocity=95 time=0
EXTRACT: note_on channel=2 note=51 velocity=95 time=0
EXTRACT: note_off channel=0 note=51 velocity=95 time=0.833333
EXTRACT: note_on channel=0 note=53 velocity=95 time=0
EXTRACT: note_off channel=2 note=51 velocity=95 time=0
EXTRACT: note_on channel=2 note=53 velocity=95 time=0
EXTRACT: note_off channel=0 note=53 velocity=95 time=0.833333
EXTRACT: note_on channel=0 note=45 velocity=95 time=0
EXTRACT: note_off channel=2 note=53 velocity=95 time=0
EXTRACT: note_on channel=2 note=45 velocity=95 time=0
EXTRACT: note_off channel=0 note=45 velocity=95 time=0.833333
EXTRACT: note_on channel=0 note=46 velocity=95 time=0
EXTRACT: note_off channel=2 note=45 velocity=95 time=0
EXTRACT: note_on channel=2 note=46 velocity=95 time=0
EXTRACT: note_off channel=0 note=46 velocity=95 time=0.833333
EXTRACT: note_on channel=0 note=48 velocity=95 time=0
EXTRACT: note_off channel=2 note=46 velocity=95 time=0
EXTRACT: note_on channel=2 note=48 velocity=95 time=0
EXTRACT: note_off channel=0 note=48 velocity=95 time=0.833333
EXTRACT: note_on channel=0 note=50 velocity=95 time=0
EXTRACT: note_off channel=2 note=48 velocity=95 time=0
EXTRACT: note_on channel=2 note=50 velocity=95 time=0
EXTRACT: note_off channel=0 note=50 velocity=95 time=0.4166665
EXTRACT: note_on channel=0 note=52 velocity=95 time=0
EXTRACT: note_off channel=2 note=50 velocity=95 time=0
EXTRACT: note_on channel=2 note=52 velocity=95 time=0
EXTRACT: note_off channel=0 note=52 velocity=95 time=0.4166665
EXTRACT: note_on channel=0 note=53 velocity=95 time=0
EXTRACT: note_off channel=2 note=52 velocity=95 time=0
EXTRACT: note_on channel=2 note=53 velocity=95 time=0
EXTRACT: note_off channel=0 note=53 velocity=95 time=0.833333
EXTRACT: note_on channel=0 note=54 velocity=95 time=0
EXTRACT: note_off channel=2 note=53 velocity=95 time=0
EXTRACT: note_on channel=2 note=54 velocity=95 time=0
EXTRACT: note_off channel=0 note=54 velocity=95 time=0.4166665
EXTRACT: note_on channel=0 note=56 velocity=95 time=0
EXTRACT: note_off channel=2 note=54 velocity=95 time=0
EXTRACT: note_on channel=2 note=56 velocity=95 time=0
EXTRACT: note_off channel=0 note=56 velocity=95 time=0.4166665
EXTRACT: note_on channel=0 note=58 velocity=95 time=0
EXTRACT: note_off channel=2 note=56 velocity=95 time=0
EXTRACT: note_on channel=2 note=58 velocity=95 time=0
EXTRACT: note_on channel=6 note=61 velocity=95 time=0
EXTRACT: note_on channel=6 note=58 velocity=95 time=0
EXTRACT: note_on channel=6 note=54 velocity=95 time=0
EXTRACT: note_on channel=10 note=61 velocity=95 time=0
EXTRACT: note_on channel=10 note=58 velocity=95 time=0
EXTRACT: note_on channel=10 note=54 velocity=95 time=0
EXTRACT: note_off channel=0 note=58 velocity=95 time=0.833333
EXTRACT: note_on channel=0 note=56 velocity=95 time=0
EXTRACT: note_off channel=2 note=58 velocity=95 time=0
EXTRACT: note_on channel=2 note=56 velocity=95 time=0
EXTRACT: note_off channel=0 note=56 velocity=95 time=0.4166665
EXTRACT: note_on channel=0 note=58 velocity=95 time=0
EXTRACT: note_off channel=2 note=56 velocity=95 time=0
EXTRACT: note_on channel=2 note=58 velocity=95 time=0
EXTRACT: note_off channel=0 note=58 velocity=95 time=0.4166665
EXTRACT: note_on channel=0 note=60 velocity=95 time=0
EXTRACT: note_off channel=2 note=58 velocity=95 time=0
EXTRACT: note_on channel=2 note=60 velocity=95 time=0
EXTRACT: note_off channel=6 note=61 velocity=95 time=0
EXTRACT: note_off channel=6 note=58 velocity=95 time=0
EXTRACT: note_off channel=6 note=54 velocity=95 time=0
EXTRACT: note_on channel=6 note=63 velocity=95 time=0
EXTRACT: note_on channel=6 note=60 velocity=95 time=0
EXTRACT: note_on channel=6 note=56 velocity=95 time=0
EXTRACT: note_off channel=10 note=61 velocity=95 time=0
EXTRACT: note_off channel=10 note=58 velocity=95 time=0
EXTRACT: note_off channel=10 note=54 velocity=95 time=0
EXTRACT: note_on channel=10 note=63 velocity=95 time=0
EXTRACT: note_on channel=10 note=60 velocity=95 time=0
EXTRACT: note_on channel=10 note=56 velocity=95 time=0
EXTRACT: note_off channel=0 note=60 velocity=95 time=0.833333
EXTRACT: note_on channel=0 note=58 velocity=95 time=0
EXTRACT: note_off channel=2 note=60 velocity=95 time=0
EXTRACT: note_on channel=2 note=58 velocity=95 time=0
EXTRACT: note_off channel=0 note=58 velocity=95 time=0.4166665
EXTRACT: note_on channel=0 note=60 velocity=95 time=0
EXTRACT: note_off channel=2 note=58 velocity=95 time=0
EXTRACT: note_on channel=2 note=60 velocity=95 time=0
EXTRACT: note_off channel=0 note=60 velocity=95 time=0.4166665
EXTRACT: note_on channel=0 note=61 velocity=95 time=0
EXTRACT: note_off channel=2 note=60 velocity=95 time=0
EXTRACT: note_on channel=2 note=61 velocity=95 time=0
EXTRACT: note_off channel=6 note=63 velocity=95 time=0
EXTRACT: note_off channel=6 note=60 velocity=95 time=0
EXTRACT: note_off channel=6 note=56 velocity=95 time=0
EXTRACT: note_on channel=6 note=65 velocity=95 time=0
EXTRACT: note_on channel=6 note=62 velocity=95 time=0
EXTRACT: note_on channel=6 note=58 velocity=95 time=0
EXTRACT: note_off channel=10 note=63 velocity=95 time=0
EXTRACT: note_off channel=10 note=60 velocity=95 time=0
EXTRACT: note_off channel=10 note=56 velocity=95 time=0
EXTRACT: note_on channel=10 note=65 velocity=95 time=0
EXTRACT: note_on channel=10 note=62 velocity=95 time=0
EXTRACT: note_on channel=10 note=58 velocity=95 time=0
EXTRACT: note_off channel=0 note=61 velocity=95 time=0.833333
EXTRACT: note_on channel=0 note=51 velocity=95 time=0
EXTRACT: note_off channel=2 note=61 velocity=95 time=0
EXTRACT: note_on channel=2 note=63 velocity=95 time=0
EXTRACT: note_off channel=6 note=65 velocity=95 time=0
EXTRACT: note_off channel=6 note=62 velocity=95 time=0
EXTRACT: note_off channel=6 note=58 velocity=95 time=0
EXTRACT: note_on channel=6 note=58 velocity=95 time=0
EXTRACT: note_on channel=6 note=53 velocity=95 time=0
EXTRACT: note_on channel=6 note=46 velocity=95 time=0
EXTRACT: note_off channel=10 note=65 velocity=95 time=0
EXTRACT: note_off channel=10 note=62 velocity=95 time=0
EXTRACT: note_off channel=10 note=58 velocity=95 time=0
EXTRACT: note_on channel=10 note=58 velocity=95 time=0
EXTRACT: note_on channel=10 note=53 velocity=95 time=0
EXTRACT: note_on channel=10 note=46 velocity=95 time=0
EXTRACT: note_off channel=0 note=51 velocity=95 time=0.4166665
EXTRACT: note_on channel=0 note=52 velocity=70 time=0
EXTRACT: note_off channel=2 note=63 velocity=95 time=0
EXTRACT: note_on channel=2 note=64 velocity=70 time=0
EXTRACT: note_off channel=0 note=52 velocity=70 time=0.4166665
EXTRACT: note_on channel=0 note=54 velocity=95 time=0
EXTRACT: note_off channel=2 note=64 velocity=70 time=0
EXTRACT: note_on channel=2 note=66 velocity=95 time=0
EXTRACT: note_off channel=0 note=54 velocity=95 time=0.4166665
EXTRACT: note_on channel=0 note=56 velocity=95 time=0
EXTRACT: note_off channel=2 note=66 velocity=95 time=0
EXTRACT: note_on channel=2 note=68 velocity=95 time=0
EXTRACT: note_off channel=0 note=56 velocity=95 time=0.4166665
EXTRACT: note_on channel=0 note=58 velocity=95 time=0
EXTRACT: note_off channel=2 note=68 velocity=95 time=0
EXTRACT: note_on channel=2 note=70 velocity=95 time=0
EXTRACT: note_off channel=0 note=58 velocity=95 time=0.4166665
EXTRACT: note_on channel=0 note=59 velocity=95 time=0
EXTRACT: note_off channel=2 note=70 velocity=95 time=0
EXTRACT: note_on channel=2 note=71 velocity=95 time=0
EXTRACT: note_off channel=0 note=59 velocity=95 time=0.4166665
EXTRACT: note_on channel=0 note=61 velocity=95 time=0
EXTRACT: note_off channel=2 note=71 velocity=95 time=0
EXTRACT: note_on channel=2 note=73 velocity=95 time=0
EXTRACT: note_off channel=0 note=61 velocity=95 time=0.4166665
EXTRACT: note_on channel=0 note=59 velocity=95 time=0
EXTRACT: note_off channel=2 note=73 velocity=95 time=0
EXTRACT: note_on channel=2 note=71 velocity=95 time=0
EXTRACT: note_off channel=0 note=59 velocity=95 time=0.4166665
EXTRACT: note_on channel=0 note=61 velocity=95 time=0
EXTRACT: note_off channel=2 note=71 velocity=95 time=0
EXTRACT: note_on channel=2 note=73 velocity=95 time=0
EXTRACT: note_off channel=0 note=61 velocity=95 time=0.4166665
EXTRACT: note_on channel=0 note=63 velocity=95 time=0
EXTRACT: note_off channel=2 note=73 velocity=95 time=0
EXTRACT: note_on channel=2 note=75 velocity=95 time=0
EXTRACT: note_off channel=0 note=63 velocity=95 time=0.4166665
EXTRACT: note_on channel=0 note=64 velocity=95 time=0
EXTRACT: note_off channel=2 note=75 velocity=95 time=0
EXTRACT: note_on channel=2 note=76 velocity=95 time=0
EXTRACT: note_off channel=0 note=64 velocity=95 time=0.833333
EXTRACT: note_on channel=0 note=44 velocity=95 time=0
EXTRACT: note_off channel=2 note=76 velocity=95 time=0
EXTRACT: note_on channel=2 note=44 velocity=95 time=0
EXTRACT: note_off channel=6 note=58 velocity=95 time=0
EXTRACT: note_off channel=6 note=53 velocity=95 time=0
EXTRACT: note_off channel=6 note=46 velocity=95 time=0
EXTRACT: note_on channel=6 note=56 velocity=95 time=0
EXTRACT: note_on channel=6 note=51 velocity=95 time=0
EXTRACT: note_on channel=6 note=44 velocity=95 time=0
EXTRACT: note_off channel=10 note=58 velocity=95 time=0
EXTRACT: note_off channel=10 note=53 velocity=95 time=0
EXTRACT: note_off channel=10 note=46 velocity=95 time=0
EXTRACT: note_on channel=10 note=56 velocity=95 time=0
EXTRACT: note_on channel=10 note=51 velocity=95 time=0
EXTRACT: note_on channel=10 note=44 velocity=95 time=0
EXTRACT: note_off channel=0 note=44 velocity=95 time=0.4166665
EXTRACT: note_on channel=0 note=46 velocity=70 time=0
EXTRACT: note_off channel=2 note=44 velocity=95 time=0
EXTRACT: note_on channel=2 note=46 velocity=70 time=0
EXTRACT: note_off channel=0 note=46 velocity=70 time=0.4166665
EXTRACT: note_on channel=0 note=48 velocity=95 time=0
EXTRACT: note_off channel=2 note=46 velocity=70 time=0
EXTRACT: note_on channel=2 note=48 velocity=95 time=0
EXTRACT: note_off channel=0 note=48 velocity=95 time=0.4166665
EXTRACT: note_on channel=0 note=49 velocity=95 time=0
EXTRACT: note_off channel=2 note=48 velocity=95 time=0
EXTRACT: note_on channel=2 note=49 velocity=95 time=0
EXTRACT: note_off channel=0 note=49 velocity=95 time=0.4166665
EXTRACT: note_on channel=0 note=51 velocity=95 time=0
EXTRACT: note_off channel=2 note=49 velocity=95 time=0
EXTRACT: note_on channel=2 note=51 velocity=95 time=0
EXTRACT: note_off channel=0 note=51 velocity=95 time=0.4166665
EXTRACT: note_on channel=0 note=53 velocity=95 time=0
EXTRACT: note_off channel=2 note=51 velocity=95 time=0
EXTRACT: note_on channel=2 note=53 velocity=95 time=0
EXTRACT: note_off channel=0 note=53 velocity=95 time=0.4166665
EXTRACT: note_on channel=0 note=54 velocity=95 time=0
EXTRACT: note_off channel=2 note=53 velocity=95 time=0
EXTRACT: note_on channel=2 note=54 velocity=95 time=0
EXTRACT: note_off channel=0 note=54 velocity=95 time=0.4166665
EXTRACT: note_on channel=0 note=53 velocity=70 time=0
EXTRACT: note_off channel=2 note=54 velocity=95 time=0
EXTRACT: note_on channel=2 note=53 velocity=70 time=0
EXTRACT: note_off channel=0 note=53 velocity=70 time=0.4166665
EXTRACT: note_on channel=0 note=54 velocity=95 time=0
EXTRACT: note_off channel=2 note=53 velocity=70 time=0
EXTRACT: note_on channel=2 note=54 velocity=95 time=0
EXTRACT: note_off channel=0 note=54 velocity=95 time=0.4166665
EXTRACT: note_on channel=0 note=56 velocity=95 time=0
EXTRACT: note_off channel=2 note=54 velocity=95 time=0
EXTRACT: note_on channel=2 note=56 velocity=95 time=0
EXTRACT: note_off channel=0 note=56 velocity=95 time=0.4166665
EXTRACT: note_on channel=0 note=58 velocity=95 time=0
EXTRACT: note_off channel=2 note=56 velocity=95 time=0
EXTRACT: note_on channel=2 note=58 velocity=95 time=0
EXTRACT: note_off channel=0 note=58 velocity=95 time=0.833333
EXTRACT: note_on channel=0 note=46 velocity=95 time=0
EXTRACT: note_off channel=2 note=58 velocity=95 time=0
EXTRACT: note_on channel=2 note=58 velocity=95 time=0
EXTRACT: note_off channel=6 note=56 velocity=95 time=0
EXTRACT: note_off channel=6 note=51 velocity=95 time=0
EXTRACT: note_off channel=6 note=44 velocity=95 time=0
EXTRACT: note_on channel=6 note=58 velocity=95 time=0
EXTRACT: note_on channel=6 note=53 velocity=95 time=0
EXTRACT: note_on channel=6 note=46 velocity=95 time=0
EXTRACT: note_off channel=10 note=56 velocity=95 time=0
EXTRACT: note_off channel=10 note=51 velocity=95 time=0
EXTRACT: note_off channel=10 note=44 velocity=95 time=0
EXTRACT: note_on channel=10 note=58 velocity=95 time=0
EXTRACT: note_on channel=10 note=53 velocity=95 time=0
EXTRACT: note_on channel=10 note=46 velocity=95 time=0
EXTRACT: note_off channel=0 note=46 velocity=95 time=0.4166665
EXTRACT: note_on channel=0 note=48 velocity=95 time=0
EXTRACT: note_off channel=2 note=58 velocity=95 time=0
EXTRACT: note_on channel=2 note=60 velocity=95 time=0
EXTRACT: note_off channel=0 note=48 velocity=95 time=0.4166665
EXTRACT: note_on channel=0 note=50 velocity=95 time=0
EXTRACT: note_off channel=2 note=60 velocity=95 time=0
EXTRACT: note_on channel=2 note=62 velocity=95 time=0
EXTRACT: note_off channel=0 note=50 velocity=95 time=0.4166665
EXTRACT: note_on channel=0 note=48 velocity=95 time=0
EXTRACT: note_off channel=2 note=62 velocity=95 time=0
EXTRACT: note_on channel=2 note=60 velocity=95 time=0
EXTRACT: note_off channel=0 note=48 velocity=95 time=0.4166665
EXTRACT: note_on channel=0 note=50 velocity=95 time=0
EXTRACT: note_off channel=2 note=60 velocity=95 time=0
EXTRACT: note_on channel=2 note=62 velocity=95 time=0
EXTRACT: note_off channel=0 note=50 velocity=95 time=0.4166665
EXTRACT: note_on channel=0 note=51 velocity=95 time=0
EXTRACT: note_off channel=2 note=62 velocity=95 time=0
EXTRACT: note_on channel=2 note=63 velocity=95 time=0
EXTRACT: note_off channel=0 note=51 velocity=95 time=0.4166665
EXTRACT: note_on channel=0 note=53 velocity=95 time=0
EXTRACT: note_off channel=2 note=63 velocity=95 time=0
EXTRACT: note_on channel=2 note=65 velocity=95 time=0
EXTRACT: note_off channel=0 note=53 velocity=95 time=0.4166665
EXTRACT: note_on channel=0 note=51 velocity=95 time=0
EXTRACT: note_off channel=2 note=65 velocity=95 time=0
EXTRACT: note_on channel=2 note=63 velocity=95 time=0
EXTRACT: note_off channel=0 note=51 velocity=95 time=0.4166665
EXTRACT: note_on channel=0 note=53 velocity=95 time=0
EXTRACT: note_off channel=2 note=63 velocity=95 time=0
EXTRACT: note_on channel=2 note=65 velocity=95 time=0
EXTRACT: note_off channel=0 note=53 velocity=95 time=0.4166665
EXTRACT: note_on channel=0 note=55 velocity=95 time=0
EXTRACT: note_off channel=2 note=65 velocity=95 time=0
EXTRACT: note_on channel=2 note=67 velocity=95 time=0
EXTRACT: note_off channel=0 note=55 velocity=95 time=0.4166665
EXTRACT: note_on channel=0 note=56 velocity=95 time=0
EXTRACT: note_off channel=2 note=67 velocity=95 time=0
EXTRACT: note_on channel=2 note=68 velocity=95 time=0
EXTRACT: note_off channel=0 note=56 velocity=95 time=0.833333
EXTRACT: note_on channel=0 note=46 velocity=95 time=0
EXTRACT: note_off channel=2 note=68 velocity=95 time=0
EXTRACT: note_on channel=2 note=46 velocity=95 time=0
EXTRACT: note_off channel=6 note=58 velocity=95 time=0
EXTRACT: note_off channel=6 note=53 velocity=95 time=0
EXTRACT: note_off channel=6 note=46 velocity=95 time=0
EXTRACT: note_on channel=6 note=50 velocity=95 time=0
EXTRACT: note_on channel=6 note=45 velocity=95 time=0
EXTRACT: note_on channel=6 note=40 velocity=95 time=0
EXTRACT: note_off channel=10 note=58 velocity=95 time=0
EXTRACT: note_off channel=10 note=53 velocity=95 time=0
EXTRACT: note_off channel=10 note=46 velocity=95 time=0
EXTRACT: note_on channel=10 note=50 velocity=95 time=0
EXTRACT: note_on channel=10 note=45 velocity=95 time=0
EXTRACT: note_on channel=10 note=40 velocity=95 time=0
EXTRACT: note_off channel=6 note=50 velocity=95 time=0.0312499875
EXTRACT: note_off channel=6 note=45 velocity=95 time=0
EXTRACT: note_off channel=6 note=40 velocity=95 time=0
EXTRACT: note_off channel=10 note=50 velocity=95 time=0
EXTRACT: note_off channel=10 note=45 velocity=95 time=0
EXTRACT: note_off channel=10 note=40 velocity=95 time=0
EXTRACT: note_off channel=0 note=46 velocity=95 time=0.3854165125
EXTRACT: note_on channel=0 note=48 velocity=95 time=0
EXTRACT: note_off channel=2 note=46 velocity=95 time=0
EXTRACT: note_on channel=2 note=48 velocity=95 time=0
EXTRACT: note_on channel=6 note=58 velocity=95 time=0
EXTRACT: note_on channel=6 note=53 velocity=95 time=0
EXTRACT: note_on channel=6 note=46 velocity=95 time=0
EXTRACT: note_on channel=10 note=58 velocity=95 time=0
EXTRACT: note_on channel=10 note=53 velocity=95 time=0
EXTRACT: note_on channel=10 note=46 velocity=95 time=0
EXTRACT: note_off channel=0 note=48 velocity=95 time=0.4166665
EXTRACT: note_on channel=0 note=50 velocity=95 time=0
EXTRACT: note_off channel=2 note=48 velocity=95 time=0
EXTRACT: note_on channel=2 note=50 velocity=95 time=0
EXTRACT: note_off channel=6 note=58 velocity=95 time=0
EXTRACT: note_off channel=6 note=53 velocity=95 time=0
EXTRACT: note_off channel=6 note=46 velocity=95 time=0
EXTRACT: note_on channel=6 note=58 velocity=95 time=0
EXTRACT: note_on channel=6 note=53 velocity=95 time=0
EXTRACT: note_on channel=6 note=46 velocity=95 time=0
EXTRACT: note_off channel=10 note=58 velocity=95 time=0
EXTRACT: note_off channel=10 note=53 velocity=95 time=0
EXTRACT: note_off channel=10 note=46 velocity=95 time=0
EXTRACT: note_on channel=10 note=58 velocity=95 time=0
EXTRACT: note_on channel=10 note=53 velocity=95 time=0
EXTRACT: note_on channel=10 note=46 velocity=95 time=0
EXTRACT: note_off channel=0 note=50 velocity=95 time=0.4166665
EXTRACT: note_on channel=0 note=48 velocity=95 time=0
EXTRACT: note_off channel=2 note=50 velocity=95 time=0
EXTRACT: note_on channel=2 note=48 velocity=95 time=0
EXTRACT: note_off channel=0 note=48 velocity=95 time=0.4166665
EXTRACT: note_on channel=0 note=50 velocity=95 time=0
EXTRACT: note_off channel=2 note=48 velocity=95 time=0
EXTRACT: note_on channel=2 note=50 velocity=95 time=0
EXTRACT: note_off channel=0 note=50 velocity=95 time=0.4166665
EXTRACT: note_on channel=0 note=51 velocity=95 time=0
EXTRACT: note_off channel=2 note=50 velocity=95 time=0
EXTRACT: note_on channel=2 note=51 velocity=95 time=0
EXTRACT: note_off channel=0 note=51 velocity=95 time=0.4166665
EXTRACT: note_on channel=0 note=53 velocity=95 time=0
EXTRACT: note_off channel=2 note=51 velocity=95 time=0
EXTRACT: note_on channel=2 note=53 velocity=95 time=0
EXTRACT: note_off channel=0 note=53 velocity=95 time=0.4166665
EXTRACT: note_on channel=0 note=51 velocity=95 time=0
EXTRACT: note_off channel=2 note=53 velocity=95 time=0
EXTRACT: note_on channel=2 note=51 velocity=95 time=0
EXTRACT: note_off channel=0 note=51 velocity=95 time=0.4166665
EXTRACT: note_on channel=0 note=53 velocity=95 time=0
EXTRACT: note_off channel=2 note=51 velocity=95 time=0
EXTRACT: note_on channel=2 note=53 velocity=95 time=0
EXTRACT: note_off channel=0 note=53 velocity=95 time=0.4166665
EXTRACT: note_on channel=0 note=55 velocity=95 time=0
EXTRACT: note_off channel=2 note=53 velocity=95 time=0
EXTRACT: note_on channel=2 note=55 velocity=95 time=0
EXTRACT: note_off channel=0 note=55 velocity=95 time=0.4166665
EXTRACT: note_on channel=0 note=56 velocity=95 time=0
EXTRACT: note_off channel=2 note=55 velocity=95 time=0
EXTRACT: note_on channel=2 note=56 velocity=95 time=0
EXTRACT: note_off channel=0 note=56 velocity=95 time=0.4166665
EXTRACT: note_on channel=0 note=55 velocity=95 time=0
EXTRACT: note_off channel=2 note=56 velocity=95 time=0
EXTRACT: note_on channel=2 note=55 velocity=95 time=0
EXTRACT: note_off channel=0 note=55 velocity=95 time=0
EXTRACT: note_on channel=0 note=56 velocity=95 time=0
EXTRACT: note_off channel=2 note=55 velocity=95 time=0
EXTRACT: note_on channel=2 note=56 velocity=95 time=0
EXTRACT: note_off channel=0 note=56 velocity=95 time=0.4166665
EXTRACT: note_on channel=0 note=58 velocity=95 time=0
EXTRACT: note_off channel=2 note=56 velocity=95 time=0
EXTRACT: note_on channel=2 note=58 velocity=95 time=0
EXTRACT: note_off channel=0 note=58 velocity=95 time=0.4166665
EXTRACT: note_on channel=0 note=60 velocity=95 time=0
EXTRACT: note_off channel=2 note=58 velocity=95 time=0
EXTRACT: note_on channel=2 note=60 velocity=95 time=0
EXTRACT: note_off channel=0 note=60 velocity=95 time=0.4166665
EXTRACT: note_on channel=0 note=58 velocity=95 time=0
EXTRACT: note_off channel=2 note=60 velocity=95 time=0
EXTRACT: note_on channel=2 note=58 velocity=95 time=0
EXTRACT: note_off channel=0 note=58 velocity=95 time=0.4166665
EXTRACT: note_on channel=0 note=62 velocity=95 time=0
EXTRACT: note_off channel=2 note=58 velocity=95 time=0
EXTRACT: note_on channel=2 note=62 velocity=95 time=0
EXTRACT: note_off channel=0 note=62 velocity=95 time=0.4166665
EXTRACT: note_on channel=0 note=58 velocity=95 time=0
EXTRACT: note_off channel=2 note=62 velocity=95 time=0
EXTRACT: note_on channel=2 note=58 velocity=95 time=0
EXTRACT: note_off channel=0 note=58 velocity=95 time=0.4166665
EXTRACT: note_on channel=0 note=65 velocity=95 time=0
EXTRACT: note_off channel=2 note=58 velocity=95 time=0
EXTRACT: note_on channel=2 note=65 velocity=95 time=0
EXTRACT: note_off channel=0 note=65 velocity=95 time=0.4166665
EXTRACT: note_on channel=0 note=58 velocity=95 time=0
EXTRACT: note_off channel=2 note=65 velocity=95 time=0
EXTRACT: note_on channel=2 note=58 velocity=95 time=0
EXTRACT: note_off channel=0 note=58 velocity=95 time=0
EXTRACT: note_on channel=0 note=51 velocity=95 time=0
EXTRACT: note_off channel=2 note=58 velocity=95 time=0
EXTRACT: note_on channel=4 note=70 velocity=95 time=0
EXTRACT: note_on channel=4 note=67 velocity=95 time=0
EXTRACT: note_on channel=4 note=63 velocity=95 time=0
EXTRACT: note_on channel=4 note=58 velocity=95 time=0
EXTRACT: note_on channel=4 note=51 velocity=95 time=0
EXTRACT: note_off channel=6 note=58 velocity=95 time=0
EXTRACT: note_off channel=6 note=53 velocity=95 time=0
EXTRACT: note_off channel=6 note=46 velocity=95 time=0
EXTRACT: note_off channel=10 note=58 velocity=95 time=0
EXTRACT: note_off channel=10 note=53 velocity=95 time=0
EXTRACT: note_off channel=10 note=46 velocity=95 time=0
EXTRACT: note_on channel=2 note=58 velocity=95 time=0.20833325
EXTRACT: note_off channel=2 note=58 velocity=95 time=0.20833325
EXTRACT: note_on channel=2 note=63 velocity=95 time=0
EXTRACT: note_off channel=2 note=63 velocity=95 time=0.20833325
EXTRACT: note_on channel=2 note=67 velocity=95 time=0
EXTRACT: note_off channel=2 note=67 velocity=95 time=0.20833325
EXTRACT: note_on channel=2 note=70 velocity=95 time=0
EXTRACT: note_off channel=4 note=70 velocity=95 time=0
EXTRACT: note_off channel=4 note=67 velocity=95 time=0
EXTRACT: note_off channel=4 note=63 velocity=95 time=0
EXTRACT: note_off channel=4 note=58 velocity=95 time=0
EXTRACT: note_off channel=4 note=51 velocity=95 time=0
EXTRACT: note_on channel=4 note=70 velocity=95 time=0
EXTRACT: note_on channel=4 note=67 velocity=95 time=0
EXTRACT: note_on channel=4 note=63 velocity=95 time=0
EXTRACT: note_on channel=4 note=58 velocity=95 time=0
EXTRACT: note_on channel=4 note=51 velocity=95 time=0
EXTRACT: note_off channel=4 note=70 velocity=95 time=0.4166665
EXTRACT: note_off channel=4 note=67 velocity=95 time=0
EXTRACT: note_off channel=4 note=63 velocity=95 time=0
EXTRACT: note_off channel=4 note=58 velocity=95 time=0
EXTRACT: note_off channel=4 note=51 velocity=95 time=0
EXTRACT: note_on channel=4 note=58 velocity=95 time=0
EXTRACT: note_off channel=0 note=51 velocity=95 time=0.4166665
EXTRACT: note_on channel=0 note=50 velocity=95 time=0
EXTRACT: note_off channel=4 note=58 velocity=95 time=0
EXTRACT: note_on channel=4 note=70 velocity=95 time=0
EXTRACT: note_on channel=4 note=65 velocity=95 time=0
EXTRACT: note_on channel=4 note=62 velocity=95 time=0
EXTRACT: note_on channel=4 note=58 velocity=95 time=0
EXTRACT: note_on channel=4 note=50 velocity=95 time=0
EXTRACT: note_off channel=2 note=70 velocity=95 time=0.4166665
EXTRACT: note_on channel=2 note=58 velocity=95 time=0.20833325
EXTRACT: note_off channel=2 note=58 velocity=95 time=0.20833325
EXTRACT: note_on channel=2 note=62 velocity=95 time=0
EXTRACT: note_off channel=4 note=70 velocity=95 time=0
EXTRACT: note_off channel=4 note=65 velocity=95 time=0
EXTRACT: note_off channel=4 note=62 velocity=95 time=0
EXTRACT: note_off channel=4 note=58 velocity=95 time=0
EXTRACT: note_off channel=4 note=50 velocity=95 time=0
EXTRACT: note_on channel=4 note=70 velocity=95 time=0
EXTRACT: note_on channel=4 note=65 velocity=95 time=0
EXTRACT: note_on channel=4 note=62 velocity=95 time=0
EXTRACT: note_on channel=4 note=58 velocity=95 time=0
EXTRACT: note_on channel=4 note=50 velocity=95 time=0
EXTRACT: note_off channel=2 note=62 velocity=95 time=0.20833325
EXTRACT: note_on channel=2 note=65 velocity=95 time=0
EXTRACT: note_off channel=0 note=50 velocity=95 time=0.20833325
EXTRACT: note_on channel=0 note=50 velocity=95 time=0
EXTRACT: note_off channel=2 note=65 velocity=95 time=0
EXTRACT: note_on channel=2 note=70 velocity=95 time=0
EXTRACT: note_off channel=4 note=70 velocity=95 time=0
EXTRACT: note_off channel=4 note=65 velocity=95 time=0
EXTRACT: note_off channel=4 note=62 velocity=95 time=0
EXTRACT: note_off channel=4 note=58 velocity=95 time=0
EXTRACT: note_off channel=4 note=50 velocity=95 time=0
EXTRACT: note_on channel=4 note=50 velocity=95 time=0
EXTRACT: note_off channel=0 note=50 velocity=95 time=0.4166665
EXTRACT: note_on channel=0 note=48 velocity=95 time=0
EXTRACT: note_off channel=4 note=50 velocity=95 time=0
EXTRACT: note_on channel=4 note=67 velocity=95 time=0
EXTRACT: note_on channel=4 note=63 velocity=95 time=0
EXTRACT: note_on channel=4 note=60 velocity=95 time=0
EXTRACT: note_on channel=4 note=55 velocity=95 time=0
EXTRACT: note_on channel=4 note=48 velocity=95 time=0
EXTRACT: note_off channel=2 note=70 velocity=95 time=0.833333
EXTRACT: note_on channel=2 note=60 velocity=95 time=0
EXTRACT: note_off channel=4 note=67 velocity=95 time=0
EXTRACT: note_off channel=4 note=63 velocity=95 time=0
EXTRACT: note_off channel=4 note=60 velocity=95 time=0
EXTRACT: note_off channel=4 note=55 velocity=95 time=0
EXTRACT: note_off channel=4 note=48 velocity=95 time=0
EXTRACT: note_on channel=4 note=67 velocity=95 time=0
EXTRACT: note_on channel=4 note=63 velocity=95 time=0
EXTRACT: note_on channel=4 note=60 velocity=95 time=0
EXTRACT: note_on channel=4 note=55 velocity=95 time=0
EXTRACT: note_on channel=4 note=48 velocity=95 time=0
EXTRACT: note_off channel=2 note=60 velocity=95 time=0.20833325
EXTRACT: note_on channel=2 note=63 velocity=95 time=0
EXTRACT: note_off channel=2 note=63 velocity=95 time=0.20833325
EXTRACT: note_on channel=2 note=67 velocity=95 time=0
EXTRACT: note_off channel=2 note=67 velocity=95 time=0.20833325
EXTRACT: note_on channel=2 note=72 velocity=95 time=0
EXTRACT: note_off channel=0 note=48 velocity=95 time=0.20833325
EXTRACT: note_on channel=0 note=47 velocity=95 time=0
EXTRACT: note_off channel=4 note=67 velocity=95 time=0
EXTRACT: note_off channel=4 note=63 velocity=95 time=0
EXTRACT: note_off channel=4 note=60 velocity=95 time=0
EXTRACT: note_off channel=4 note=55 velocity=95 time=0
EXTRACT: note_off channel=4 note=48 velocity=95 time=0
EXTRACT: note_on channel=4 note=67 velocity=95 time=0
EXTRACT: note_on channel=4 note=62 velocity=95 time=0
EXTRACT: note_on channel=4 note=59 velocity=95 time=0
EXTRACT: note_on channel=4 note=55 velocity=95 time=0
EXTRACT: note_on channel=4 note=47 velocity=95 time=0
EXTRACT: note_off channel=2 note=72 velocity=95 time=0.4166665
EXTRACT: note_on channel=2 note=64 velocity=95 time=0
EXTRACT: note_off channel=2 note=64 velocity=95 time=0.20833325
EXTRACT: note_on channel=2 note=67 velocity=95 time=0
EXTRACT: note_on channel=2 note=62 velocity=95 time=0
EXTRACT: note_off channel=0 note=47 velocity=95 time=0.20833325
EXTRACT: note_on channel=0 note=48 velocity=95 time=0
EXTRACT: note_off channel=4 note=67 velocity=95 time=0
EXTRACT: note_off channel=4 note=62 velocity=95 time=0
EXTRACT: note_off channel=4 note=59 velocity=95 time=0
EXTRACT: note_off channel=4 note=55 velocity=95 time=0
EXTRACT: note_off channel=4 note=47 velocity=95 time=0
EXTRACT: note_on channel=4 note=67 velocity=95 time=0
EXTRACT: note_on channel=4 note=63 velocity=95 time=0
EXTRACT: note_on channel=4 note=60 velocity=95 time=0
EXTRACT: note_on channel=4 note=55 velocity=95 time=0
EXTRACT: note_on channel=4 note=48 velocity=95 time=0
EXTRACT: note_off channel=2 note=67 velocity=95 time=0.62499975
EXTRACT: note_off channel=2 note=62 velocity=95 time=0
EXTRACT: note_on channel=2 note=67 velocity=95 time=0
EXTRACT: note_on channel=2 note=63 velocity=95 time=0
EXTRACT: note_off channel=0 note=48 velocity=95 time=0.20833325
EXTRACT: note_on channel=0 note=47 velocity=95 time=0
EXTRACT: note_off channel=2 note=67 velocity=95 time=0
EXTRACT: note_off channel=2 note=63 velocity=95 time=0
EXTRACT: note_on channel=2 note=67 velocity=95 time=0
EXTRACT: note_on channel=2 note=62 velocity=95 time=0
EXTRACT: note_off channel=4 note=67 velocity=95 time=0
EXTRACT: note_off channel=4 note=63 velocity=95 time=0
EXTRACT: note_off channel=4 note=60 velocity=95 time=0
EXTRACT: note_off channel=4 note=55 velocity=95 time=0
EXTRACT: note_off channel=4 note=48 velocity=95 time=0
EXTRACT: note_on channel=4 note=67 velocity=95 time=0
EXTRACT: note_on channel=4 note=62 velocity=95 time=0
EXTRACT: note_on channel=4 note=59 velocity=95 time=0
EXTRACT: note_on channel=4 note=54 velocity=95 time=0
EXTRACT: note_on channel=4 note=47 velocity=95 time=0
EXTRACT: note_off channel=0 note=47 velocity=95 time=0.62499975
EXTRACT: note_on channel=0 note=50 velocity=70 time=0
EXTRACT: note_off channel=2 note=67 velocity=95 time=0
EXTRACT: note_off channel=2 note=62 velocity=95 time=0
EXTRACT: note_on channel=2 note=68 velocity=95 time=0
EXTRACT: note_on channel=2 note=65 velocity=95 time=0
EXTRACT: note_off channel=0 note=50 velocity=70 time=0.20833325
EXTRACT: note_on channel=0 note=48 velocity=95 time=0
EXTRACT: note_off channel=2 note=68 velocity=95 time=0
EXTRACT: note_off channel=2 note=65 velocity=95 time=0
EXTRACT: note_on channel=2 note=67 velocity=95 time=0
EXTRACT: note_on channel=2 note=63 velocity=95 time=0
EXTRACT: note_off channel=4 note=67 velocity=95 time=0
EXTRACT: note_off channel=4 note=62 velocity=95 time=0
EXTRACT: note_off channel=4 note=59 velocity=95 time=0
EXTRACT: note_off channel=4 note=54 velocity=95 time=0
EXTRACT: note_off channel=4 note=47 velocity=95 time=0
EXTRACT: note_on channel=4 note=67 velocity=95 time=0
EXTRACT: note_on channel=4 note=63 velocity=95 time=0
EXTRACT: note_on channel=4 note=60 velocity=95 time=0
EXTRACT: note_on channel=4 note=55 velocity=95 time=0
EXTRACT: note_on channel=4 note=48 velocity=95 time=0
EXTRACT: note_off channel=0 note=48 velocity=95 time=0.833333
EXTRACT: note_on channel=0 note=46 velocity=95 time=0
EXTRACT: note_off channel=2 note=67 velocity=95 time=0
EXTRACT: note_off channel=2 note=63 velocity=95 time=0
EXTRACT: note_on channel=2 note=65 velocity=95 time=0
EXTRACT: note_on channel=2 note=62 velocity=95 time=0
EXTRACT: note_off channel=4 note=67 velocity=95 time=0
EXTRACT: note_off channel=4 note=63 velocity=95 time=0
EXTRACT: note_off channel=4 note=60 velocity=95 time=0
EXTRACT: note_off channel=4 note=55 velocity=95 time=0
EXTRACT: note_off channel=4 note=48 velocity=95 time=0
EXTRACT: note_on channel=4 note=65 velocity=95 time=0
EXTRACT: note_on channel=4 note=62 velocity=95 time=0
EXTRACT: note_on channel=4 note=58 velocity=95 time=0
EXTRACT: note_on channel=4 note=53 velocity=95 time=0
EXTRACT: note_on channel=4 note=46 velocity=95 time=0
EXTRACT: note_off channel=2 note=65 velocity=95 time=0.62499975
EXTRACT: note_off channel=2 note=62 velocity=95 time=0
EXTRACT: note_on channel=2 note=67 velocity=95 time=0
EXTRACT: note_on channel=2 note=63 velocity=95 time=0
EXTRACT: note_off channel=2 note=67 velocity=95 time=0.104166625
EXTRACT: note_off channel=2 note=63 velocity=95 time=0
EXTRACT: note_on channel=2 note=68 velocity=70 time=0
EXTRACT: note_on channel=2 note=65 velocity=70 time=0
EXTRACT: note_off channel=0 note=46 velocity=95 time=0.104166625
EXTRACT: note_on channel=0 note=51 velocity=95 time=0
EXTRACT: note_off channel=2 note=68 velocity=70 time=0
EXTRACT: note_off channel=2 note=65 velocity=70 time=0
EXTRACT: note_on channel=2 note=67 velocity=95 time=0
EXTRACT: note_on channel=2 note=63 velocity=95 time=0
EXTRACT: note_off channel=4 note=65 velocity=95 time=0
EXTRACT: note_off channel=4 note=62 velocity=95 time=0
EXTRACT: note_off channel=4 note=58 velocity=95 time=0
EXTRACT: note_off channel=4 note=53 velocity=95 time=0
EXTRACT: note_off channel=4 note=46 velocity=95 time=0
EXTRACT: note_on channel=4 note=67 velocity=95 time=0
EXTRACT: note_on channel=4 note=63 velocity=95 time=0
EXTRACT: note_on channel=4 note=58 velocity=95 time=0
EXTRACT: note_on channel=4 note=51 velocity=95 time=0
EXTRACT: note_on channel=6 note=79 velocity=95 time=0.20833325
EXTRACT: note_on channel=6 note=75 velocity=95 time=0
EXTRACT: note_on channel=10 note=70 velocity=95 time=0
EXTRACT: note_off channel=2 note=67 velocity=95 time=0.4166665
EXTRACT: note_off channel=2 note=63 velocity=95 time=0
EXTRACT: note_on channel=2 note=69 velocity=95 time=0
EXTRACT: note_on channel=2 note=65 velocity=95 time=0
EXTRACT: note_off channel=2 note=69 velocity=95 time=0.104166625
EXTRACT: note_off channel=2 note=65 velocity=95 time=0
EXTRACT: note_on channel=2 note=70 velocity=70 time=0
EXTRACT: note_on channel=2 note=67 velocity=70 time=0
EXTRACT: note_off channel=0 note=51 velocity=95 time=0.104166625
EXTRACT: note_on channel=0 note=50 velocity=95 time=0
EXTRACT: note_off channel=2 note=70 velocity=70 time=0
EXTRACT: note_off channel=2 note=67 velocity=70 time=0
EXTRACT: note_on channel=3 note=69 velocity=95 time=0
EXTRACT: note_on channel=3 note=66 velocity=95 time=0
EXTRACT: note_off channel=4 note=67 velocity=95 time=0
EXTRACT: note_off channel=4 note=63 velocity=95 time=0
EXTRACT: note_off channel=4 note=58 velocity=95 time=0
EXTRACT: note_off channel=4 note=51 velocity=95 time=0
EXTRACT: note_on channel=4 note=69 velocity=95 time=0
EXTRACT: note_on channel=4 note=66 velocity=95 time=0
EXTRACT: note_on channel=4 note=62 velocity=95 time=0
EXTRACT: note_on channel=4 note=57 velocity=95 time=0
EXTRACT: note_on channel=4 note=50 velocity=95 time=0
EXTRACT: note_off channel=6 note=79 velocity=95 time=0
EXTRACT: note_off channel=6 note=75 velocity=95 time=0
EXTRACT: note_on channel=6 note=78 velocity=95 time=0
EXTRACT: note_on channel=6 note=74 velocity=95 time=0
EXTRACT: note_off channel=10 note=70 velocity=95 time=0
EXTRACT: note_on channel=10 note=69 velocity=95 time=0
EXTRACT: pitchwheel channel=3 pitch=-512 time=0.104166625
EXTRACT: pitchwheel channel=3 pitch=-256 time=0
EXTRACT: pitchwheel channel=3 pitch=-1152 time=0.104166625
EXTRACT: pitchwheel channel=3 pitch=-640 time=0
EXTRACT: pitchwheel channel=3 pitch=-1792 time=0.104166625
EXTRACT: pitchwheel channel=3 pitch=-1024 time=0
EXTRACT: pitchwheel channel=3 pitch=-2432 time=0.104166625
EXTRACT: pitchwheel channel=3 pitch=-1408 time=0
EXTRACT: pitchwheel channel=3 pitch=-3072 time=0.104166625
EXTRACT: pitchwheel channel=3 pitch=-1664 time=0
EXTRACT: pitchwheel channel=3 pitch=-3584 time=0.104166625
EXTRACT: pitchwheel channel=3 pitch=-2048 time=0
EXTRACT: pitchwheel channel=3 pitch=-4224 time=0.104166625
EXTRACT: pitchwheel channel=3 pitch=-2432 time=0
EXTRACT: pitchwheel channel=3 pitch=-4864 time=0.104166625
EXTRACT: pitchwheel channel=3 pitch=0 time=0
EXTRACT: note_off channel=3 note=69 velocity=95 time=0
EXTRACT: pitchwheel channel=3 pitch=-2816 time=0
EXTRACT: pitchwheel channel=3 pitch=0 time=0
EXTRACT: note_off channel=3 note=66 velocity=95 time=0
EXTRACT: note_on channel=2 note=62 velocity=95 time=0
EXTRACT: note_on channel=2 note=62 velocity=95 time=0
EXTRACT: note_off channel=4 note=69 velocity=95 time=0
EXTRACT: note_off channel=4 note=66 velocity=95 time=0
EXTRACT: note_off channel=4 note=62 velocity=95 time=0
EXTRACT: note_off channel=4 note=57 velocity=95 time=0
EXTRACT: note_off channel=4 note=50 velocity=95 time=0
EXTRACT: note_on channel=4 note=66 velocity=95 time=0
EXTRACT: note_on channel=4 note=62 velocity=95 time=0
EXTRACT: note_off channel=6 note=78 velocity=95 time=0
EXTRACT: note_off channel=6 note=74 velocity=95 time=0
EXTRACT: note_on channel=6 note=79 velocity=95 time=0
EXTRACT: note_on channel=6 note=76 velocity=95 time=0
EXTRACT: note_off channel=10 note=69 velocity=95 time=0
EXTRACT: note_on channel=10 note=62 velocity=95 time=0
EXTRACT: note_off channel=4 note=66 velocity=95 time=0.4166665
EXTRACT: note_off channel=4 note=62 velocity=95 time=0
EXTRACT: note_on channel=4 note=69 velocity=95 time=0
EXTRACT: note_off channel=6 note=79 velocity=95 time=0
EXTRACT: note_off channel=6 note=76 velocity=95 time=0
EXTRACT: note_on channel=6 note=81 velocity=95 time=0
EXTRACT: note_on channel=6 note=78 velocity=95 time=0
EXTRACT: note_off channel=0 note=50 velocity=95 time=0.4166665
EXTRACT: note_on channel=0 note=43 velocity=95 time=0
EXTRACT: note_off channel=2 note=62 velocity=95 time=0
EXTRACT: note_off channel=2 note=62 velocity=95 time=0
EXTRACT: note_on channel=2 note=62 velocity=95 time=0
EXTRACT: note_on channel=2 note=62 velocity=95 time=0
EXTRACT: note_off channel=4 note=69 velocity=95 time=0
EXTRACT: note_on channel=4 note=70 velocity=95 time=0
EXTRACT: note_on channel=4 note=67 velocity=95 time=0
EXTRACT: note_on channel=4 note=62 velocity=95 time=0
EXTRACT: note_on channel=4 note=55 velocity=95 time=0
EXTRACT: note_off channel=6 note=81 velocity=95 time=0
EXTRACT: note_off channel=6 note=78 velocity=95 time=0
EXTRACT: pitchwheel channel=7 pitch=0 time=0
EXTRACT: note_on channel=7 note=81 velocity=95 time=0
EXTRACT: pitchwheel channel=7 pitch=0 time=0
EXTRACT: note_on channel=7 note=78 velocity=95 time=0
EXTRACT: pitchwheel channel=7 pitch=128 time=0.07291663749999999
EXTRACT: pitchwheel channel=7 pitch=128 time=0
EXTRACT: pitchwheel channel=7 pitch=256 time=0.07291663749999999
EXTRACT: pitchwheel channel=7 pitch=256 time=0
EXTRACT: pitchwheel channel=7 pitch=384 time=0.07291663749999999
EXTRACT: pitchwheel channel=7 pitch=384 time=0
EXTRACT: pitchwheel channel=7 pitch=512 time=0.07291663749999999
EXTRACT: pitchwheel channel=7 pitch=512 time=0
EXTRACT: pitchwheel channel=7 pitch=640 time=0.07291663749999999
EXTRACT: pitchwheel channel=7 pitch=640 time=0
EXTRACT: pitchwheel channel=7 pitch=640 time=0
EXTRACT: pitchwheel channel=7 pitch=640 time=0
EXTRACT: note_off channel=4 note=70 velocity=95 time=0.0520833125
EXTRACT: note_off channel=4 note=67 velocity=95 time=0
EXTRACT: note_off channel=4 note=62 velocity=95 time=0
EXTRACT: note_off channel=4 note=55 velocity=95 time=0
EXTRACT: note_on channel=4 note=62 velocity=95 time=0
EXTRACT: pitchwheel channel=7 pitch=640 time=0.312499875
EXTRACT: pitchwheel channel=7 pitch=640 time=0
EXTRACT: pitchwheel channel=7 pitch=512 time=0.07291663749999999
EXTRACT: pitchwheel channel=7 pitch=512 time=0
EXTRACT: note_off channel=4 note=62 velocity=95 time=0.0312499875
EXTRACT: note_on channel=4 note=67 velocity=95 time=0
EXTRACT: pitchwheel channel=7 pitch=384 time=0.04166665
EXTRACT: pitchwheel channel=7 pitch=384 time=0
EXTRACT: pitchwheel channel=7 pitch=256 time=0.07291663749999999
EXTRACT: pitchwheel channel=7 pitch=256 time=0
EXTRACT: pitchwheel channel=7 pitch=128 time=0.07291663749999999
EXTRACT: pitchwheel channel=7 pitch=128 time=0
EXTRACT: pitchwheel channel=7 pitch=0 time=0.07291663749999999
EXTRACT: pitchwheel channel=7 pitch=0 time=0
EXTRACT: pitchwheel channel=7 pitch=0 time=0
EXTRACT: pitchwheel channel=7 pitch=0 time=0
EXTRACT: note_off channel=4 note=67 velocity=95 time=0.1562499375
EXTRACT: note_on channel=4 note=70 velocity=95 time=0
EXTRACT: pitchwheel channel=7 pitch=0 time=0.20833325
EXTRACT: pitchwheel channel=7 pitch=0 time=0
EXTRACT: note_off channel=7 note=81 velocity=95 time=0
EXTRACT: pitchwheel channel=7 pitch=0 time=0
EXTRACT: pitchwheel channel=7 pitch=0 time=0
EXTRACT: note_off channel=7 note=78 velocity=95 time=0
EXTRACT: note_on channel=6 note=81 velocity=95 time=0
EXTRACT: note_on channel=6 note=78 velocity=95 time=0
EXTRACT: note_off channel=4 note=70 velocity=95 time=0.20833325
EXTRACT: note_on channel=4 note=56 velocity=95 time=0
EXTRACT: note_off channel=6 note=81 velocity=95 time=0
EXTRACT: note_off channel=6 note=78 velocity=95 time=0
EXTRACT: note_on channel=6 note=75 velocity=95 time=0
EXTRACT: note_on channel=6 note=72 velocity=95 time=0
EXTRACT: note_off channel=10 note=62 velocity=95 time=0
EXTRACT: note_on channel=10 note=68 velocity=95 time=0
EXTRACT: note_off channel=4 note=56 velocity=95 time=0.4166665
EXTRACT: note_on channel=4 note=70 velocity=95 time=0
EXTRACT: note_off channel=0 note=43 velocity=95 time=0.4166665
EXTRACT: note_off channel=2 note=62 velocity=95 time=0
EXTRACT: note_off channel=2 note=62 velocity=95 time=0
EXTRACT: note_off channel=4 note=70 velocity=95 time=0
EXTRACT: note_on channel=4 note=68 velocity=95 time=0
EXTRACT: note_off channel=4 note=68 velocity=95 time=0.4166665
EXTRACT: note_on channel=4 note=63 velocity=95 time=0
EXTRACT: note_off channel=6 note=75 velocity=95 time=0
EXTRACT: note_off channel=6 note=72 velocity=95 time=0
EXTRACT: note_on channel=6 note=75 velocity=95 time=0
EXTRACT: pitchwheel channel=7 pitch=0 time=0
EXTRACT: note_on channel=7 note=72 velocity=95 time=0
EXTRACT: note_off channel=10 note=68 velocity=95 time=0
EXTRACT: note_on channel=11 note=70 velocity=95 time=0
EXTRACT: pitchwheel channel=7 pitch=128 time=0.008680552083333333
EXTRACT: pitchwheel channel=7 pitch=256 time=0.008680552083333333
EXTRACT: pitchwheel channel=7 pitch=384 time=0.008680552083333333
EXTRACT: pitchwheel channel=7 pitch=512 time=0.008680552083333333
EXTRACT: pitchwheel channel=7 pitch=640 time=0.008680552083333333
EXTRACT: pitchwheel channel=7 pitch=768 time=0.008680552083333333
EXTRACT: pitchwheel channel=7 pitch=896 time=0.008680552083333333
EXTRACT: pitchwheel channel=7 pitch=1024 time=0.008680552083333333
EXTRACT: pitchwheel channel=7 pitch=1152 time=0.008680552083333333
EXTRACT: pitchwheel channel=7 pitch=1280 time=0.008680552083333333
EXTRACT: pitchwheel channel=7 pitch=1408 time=0.008680552083333333
EXTRACT: pitchwheel channel=7 pitch=1408 time=0.008680552083333333
EXTRACT: pitchwheel channel=11 pitch=-512 time=0
EXTRACT: note_off channel=6 note=75 velocity=95 time=0.104166625
EXTRACT: pitchwheel channel=7 pitch=1408 time=0
EXTRACT: pitchwheel channel=7 pitch=0 time=0
EXTRACT: note_off channel=7 note=72 velocity=95 time=0
EXTRACT: note_on channel=6 note=72 velocity=95 time=0
EXTRACT: pitchwheel channel=11 pitch=-1024 time=0
EXTRACT: pitchwheel channel=11 pitch=-1536 time=0.104166625
EXTRACT: note_off channel=4 note=63 velocity=95 time=0.104166625
EXTRACT: note_on channel=4 note=70 velocity=95 time=0
EXTRACT: note_on channel=4 note=67 velocity=95 time=0
EXTRACT: note_off channel=6 note=72 velocity=95 time=0
EXTRACT: note_on channel=6 note=75 velocity=95 time=0
EXTRACT: note_on channel=6 note=70 velocity=95 time=0
EXTRACT: pitchwheel channel=11 pitch=-2048 time=0
EXTRACT: pitchwheel channel=11 pitch=0 time=0
EXTRACT: note_off channel=11 note=70 velocity=95 time=0
EXTRACT: note_on channel=10 note=67 velocity=95 time=0
EXTRACT: note_off channel=4 note=70 velocity=95 time=0.4166665
EXTRACT: note_off channel=4 note=67 velocity=95 time=0
EXTRACT: note_on channel=4 note=63 velocity=95 time=0
EXTRACT: note_off channel=4 note=63 velocity=95 time=0.4166665
EXTRACT: note_on channel=4 note=75 velocity=95 time=0
EXTRACT: note_off channel=4 note=75 velocity=95 time=0.4166665
EXTRACT: note_on channel=4 note=63 velocity=95 time=0
EXTRACT: note_off channel=4 note=63 velocity=95 time=0.4166665
EXTRACT: note_on channel=4 note=55 velocity=95 time=0
EXTRACT: note_on channel=4 note=48 velocity=95 time=0
EXTRACT: note_off channel=6 note=75 velocity=95 time=0
EXTRACT: note_off channel=6 note=70 velocity=95 time=0
EXTRACT: note_on channel=6 note=72 velocity=95 time=0
EXTRACT: note_off channel=4 note=55 velocity=95 time=0.4166665
EXTRACT: note_off channel=4 note=48 velocity=95 time=0
EXTRACT: note_on channel=4 note=60 velocity=95 time=0
EXTRACT: note_off channel=4 note=60 velocity=95 time=0.4166665
EXTRACT: note_on channel=4 note=67 velocity=95 time=0
EXTRACT: note_on channel=4 note=63 velocity=95 time=0
EXTRACT: note_off channel=4 note=67 velocity=95 time=0.4166665
EXTRACT: note_off channel=4 note=63 velocity=95 time=0
EXTRACT: note_on channel=4 note=60 velocity=95 time=0
EXTRACT: note_off channel=6 note=72 velocity=95 time=0
EXTRACT: note_on channel=7 note=72 velocity=95 time=0
EXTRACT: note_off channel=10 note=67 velocity=95 time=0
EXTRACT: note_on channel=11 note=67 velocity=95 time=0
EXTRACT: pitchwheel channel=7 pitch=640 time=0.104166625
EXTRACT: pitchwheel channel=11 pitch=1024 time=0
EXTRACT: pitchwheel channel=7 pitch=1408 time=0.104166625
EXTRACT: pitchwheel channel=7 pitch=0 time=0
EXTRACT: note_off channel=7 note=72 velocity=95 time=0
EXTRACT: note_on channel=6 note=74 velocity=95 time=0
EXTRACT: pitchwheel channel=11 pitch=2048 time=0
EXTRACT: pitchwheel channel=11 pitch=0 time=0
EXTRACT: note_off channel=11 note=67 velocity=95 time=0
EXTRACT: note_on channel=10 note=70 velocity=95 time=0
EXTRACT: note_off channel=4 note=60 velocity=95 time=0.20833325
EXTRACT: note_on channel=4 note=62 velocity=95 time=0
EXTRACT: note_on channel=4 note=58 velocity=95 time=0
EXTRACT: note_on channel=4 note=55 velocity=95 time=0
EXTRACT: note_on channel=4 note=50 velocity=95 time=0
EXTRACT: note_on channel=4 note=43 velocity=95 time=0
EXTRACT: note_off channel=6 note=74 velocity=95 time=0
EXTRACT: note_on channel=6 note=74 velocity=95 time=0
EXTRACT: note_on channel=6 note=70 velocity=95 time=0
EXTRACT: note_off channel=10 note=70 velocity=95 time=0
EXTRACT: note_on channel=10 note=67 velocity=95 time=0
EXTRACT: note_off channel=4 note=62 velocity=95 time=0.4166665
EXTRACT: note_off channel=4 note=58 velocity=95 time=0
EXTRACT: note_off channel=4 note=55 velocity=95 time=0
EXTRACT: note_off channel=4 note=50 velocity=95 time=0
EXTRACT: note_off channel=4 note=43 velocity=95 time=0
EXTRACT: note_on channel=4 note=55 velocity=95 time=0
EXTRACT: note_off channel=4 note=55 velocity=95 time=0.4166665
EXTRACT: note_on channel=4 note=67 velocity=95 time=0
EXTRACT: note_off channel=4 note=67 velocity=95 time=0.4166665
EXTRACT: note_on channel=4 note=55 velocity=95 time=0
EXTRACT: note_off channel=4 note=55 velocity=95 time=0.4166665
EXTRACT: note_on channel=4 note=63 velocity=95 time=0
EXTRACT: note_on channel=4 note=60 velocity=95 time=0
EXTRACT: note_on channel=4 note=55 velocity=95 time=0
EXTRACT: note_on channel=4 note=48 velocity=95 time=0
EXTRACT: note_off channel=6 note=74 velocity=95 time=0
EXTRACT: note_off channel=6 note=70 velocity=95 time=0
EXTRACT: note_off channel=10 note=67 velocity=95 time=0
EXTRACT: note_off channel=4 note=63 velocity=95 time=0.4166665
EXTRACT: note_off channel=4 note=60 velocity=95 time=0
EXTRACT: note_off channel=4 note=55 velocity=95 time=0
EXTRACT: note_off channel=4 note=48 velocity=95 time=0
EXTRACT: note_on channel=4 note=60 velocity=95 time=0
EXTRACT: note_off channel=4 note=60 velocity=95 time=0.4166665
EXTRACT: note_on channel=4 note=63 velocity=95 time=0
EXTRACT: note_off channel=4 note=63 velocity=95 time=0.4166665
EXTRACT: note_on channel=4 note=67 velocity=95 time=0
EXTRACT: note_off channel=4 note=67 velocity=95 time=0.4166665
EXTRACT: note_on channel=4 note=62 velocity=95 time=0
EXTRACT: note_on channel=4 note=58 velocity=95 time=0
EXTRACT: note_on channel=4 note=55 velocity=95 time=0
EXTRACT: note_on channel=4 note=50 velocity=95 time=0
EXTRACT: note_on channel=4 note=43 velocity=95 time=0
EXTRACT: note_off channel=4 note=62 velocity=95 time=0.4166665
EXTRACT: note_off channel=4 note=58 velocity=95 time=0
EXTRACT: note_off channel=4 note=55 velocity=95 time=0
EXTRACT: note_off channel=4 note=50 velocity=95 time=0
EXTRACT: note_off channel=4 note=43 velocity=95 time=0
EXTRACT: note_on channel=4 note=55 velocity=95 time=0
EXTRACT: note_off channel=4 note=55 velocity=95 time=0.4166665
EXTRACT: note_on channel=4 note=58 velocity=95 time=0
EXTRACT: note_off channel=4 note=58 velocity=95 time=0.4166665
EXTRACT: note_on channel=4 note=62 velocity=95 time=0
EXTRACT: note_off channel=4 note=62 velocity=95 time=0.4166665
EXTRACT: note_on channel=4 note=67 velocity=95 time=0
EXTRACT: note_on channel=4 note=63 velocity=95 time=0
EXTRACT: note_on channel=4 note=60 velocity=95 time=0
EXTRACT: note_on channel=4 note=55 velocity=95 time=0
EXTRACT: note_on channel=4 note=48 velocity=95 time=0
EXTRACT: note_off channel=4 note=67 velocity=95 time=0.4166665
EXTRACT: note_off channel=4 note=63 velocity=95 time=0
EXTRACT: note_off channel=4 note=60 velocity=95 time=0
EXTRACT: note_off channel=4 note=55 velocity=95 time=0
EXTRACT: note_off channel=4 note=48 velocity=95 time=0
EXTRACT: note_on channel=4 note=60 velocity=95 time=0
EXTRACT: note_off channel=4 note=60 velocity=95 time=0.4166665
EXTRACT: note_on channel=4 note=63 velocity=95 time=0
EXTRACT: note_off channel=4 note=63 velocity=95 time=0.4166665
EXTRACT: note_on channel=4 note=67 velocity=95 time=0
EXTRACT: note_off channel=4 note=67 velocity=95 time=0.4166665
EXTRACT: note_on channel=4 note=63 velocity=95 time=0
EXTRACT: note_on channel=4 note=59 velocity=95 time=0
EXTRACT: note_on channel=4 note=56 velocity=95 time=0
EXTRACT: note_on channel=4 note=51 velocity=95 time=0
EXTRACT: note_on channel=4 note=44 velocity=95 time=0
EXTRACT: note_off channel=4 note=63 velocity=95 time=1.666666
EXTRACT: note_off channel=4 note=59 velocity=95 time=0
EXTRACT: note_off channel=4 note=56 velocity=95 time=0
EXTRACT: note_off channel=4 note=51 velocity=95 time=0
EXTRACT: note_off channel=4 note=44 velocity=95 time=0
EXTRACT: note_on channel=4 note=63 velocity=95 time=0
EXTRACT: note_on channel=4 note=60 velocity=95 time=0
EXTRACT: note_on channel=4 note=56 velocity=95 time=0
EXTRACT: note_on channel=4 note=46 velocity=95 time=0
EXTRACT: note_off channel=4 note=63 velocity=95 time=1.666666
EXTRACT: note_off channel=4 note=60 velocity=95 time=0
EXTRACT: note_off channel=4 note=56 velocity=95 time=0
EXTRACT: note_off channel=4 note=46 velocity=95 time=0
EXTRACT: note_on channel=4 note=63 velocity=95 time=0
EXTRACT: note_on channel=4 note=60 velocity=95 time=0
EXTRACT: note_on channel=4 note=56 velocity=95 time=0
EXTRACT: note_on channel=4 note=46 velocity=95 time=0
EXTRACT: note_off channel=4 note=63 velocity=95 time=1.666666
EXTRACT: note_off channel=4 note=60 velocity=95 time=0
EXTRACT: note_off channel=4 note=56 velocity=95 time=0
EXTRACT: note_off channel=4 note=46 velocity=95 time=0
EXTRACT: note_on channel=4 note=70 velocity=95 time=0
EXTRACT: note_on channel=4 note=67 velocity=95 time=0
EXTRACT: note_on channel=4 note=63 velocity=95 time=0
EXTRACT: note_on channel=4 note=58 velocity=95 time=0
EXTRACT: note_on channel=4 note=51 velocity=95 time=0
EXTRACT: note_off channel=4 note=70 velocity=95 time=0.4166665
EXTRACT: note_off channel=4 note=67 velocity=95 time=0
EXTRACT: note_off channel=4 note=63 velocity=95 time=0
EXTRACT: note_off channel=4 note=58 velocity=95 time=0
EXTRACT: note_off channel=4 note=51 velocity=95 time=0
EXTRACT: note_on channel=4 note=63 velocity=95 time=0
EXTRACT: note_off channel=4 note=63 velocity=95 time=0.4166665
EXTRACT: note_on channel=4 note=67 velocity=95 time=0
EXTRACT: note_off channel=4 note=67 velocity=95 time=0.4166665
EXTRACT: note_on channel=4 note=70 velocity=95 time=0
EXTRACT: note_off channel=4 note=70 velocity=95 time=0.4166665
EXTRACT: note_on channel=4 note=72 velocity=95 time=0
EXTRACT: note_on channel=4 note=68 velocity=95 time=0
EXTRACT: note_off channel=4 note=72 velocity=95 time=0.4166665
EXTRACT: note_off channel=4 note=68 velocity=95 time=0
EXTRACT: note_on channel=4 note=74 velocity=95 time=0
EXTRACT: note_off channel=4 note=74 velocity=95 time=0.4166665
EXTRACT: note_on channel=4 note=72 velocity=95 time=0
EXTRACT: note_on channel=4 note=68 velocity=95 time=0
EXTRACT: note_off channel=4 note=72 velocity=95 time=0.4166665
EXTRACT: note_off channel=4 note=68 velocity=95 time=0
EXTRACT: note_on channel=4 note=74 velocity=95 time=0
EXTRACT: note_off channel=4 note=74 velocity=95 time=0.4166665
EXTRACT: note_on channel=4 note=70 velocity=95 time=0
EXTRACT: note_on channel=4 note=67 velocity=95 time=0
EXTRACT: note_on channel=4 note=63 velocity=95 time=0
EXTRACT: note_on channel=4 note=58 velocity=95 time=0
EXTRACT: note_on channel=4 note=51 velocity=95 time=0
EXTRACT: note_off channel=4 note=70 velocity=95 time=0.4166665
EXTRACT: note_off channel=4 note=67 velocity=95 time=0
EXTRACT: note_off channel=4 note=63 velocity=95 time=0
EXTRACT: note_off channel=4 note=58 velocity=95 time=0
EXTRACT: note_off channel=4 note=51 velocity=95 time=0
EXTRACT: note_on channel=4 note=63 velocity=95 time=0
EXTRACT: note_off channel=4 note=63 velocity=95 time=0.4166665
EXTRACT: note_on channel=4 note=67 velocity=95 time=0
EXTRACT: note_off channel=4 note=67 velocity=95 time=0.4166665
EXTRACT: note_on channel=4 note=70 velocity=95 time=0
EXTRACT: note_off channel=4 note=70 velocity=95 time=0.4166665
EXTRACT: note_on channel=4 note=72 velocity=95 time=0
EXTRACT: note_on channel=4 note=69 velocity=95 time=0
EXTRACT: note_on channel=4 note=63 velocity=95 time=0
EXTRACT: note_off channel=4 note=72 velocity=95 time=0.4166665
EXTRACT: note_off channel=4 note=69 velocity=95 time=0
EXTRACT: note_off channel=4 note=63 velocity=95 time=0
EXTRACT: note_on channel=4 note=74 velocity=95 time=0
EXTRACT: note_off channel=4 note=74 velocity=95 time=0.4166665
EXTRACT: note_on channel=4 note=72 velocity=95 time=0
EXTRACT: note_on channel=4 note=69 velocity=95 time=0
EXTRACT: note_on channel=4 note=63 velocity=95 time=0
EXTRACT: note_off channel=4 note=72 velocity=95 time=0.4166665
EXTRACT: note_off channel=4 note=69 velocity=95 time=0
EXTRACT: note_off channel=4 note=63 velocity=95 time=0
EXTRACT: note_on channel=4 note=74 velocity=95 time=0
EXTRACT: note_off channel=4 note=74 velocity=95 time=0.4166665
EXTRACT: note_on channel=4 note=70 velocity=95 time=0
EXTRACT: note_on channel=4 note=65 velocity=95 time=0
EXTRACT: note_on channel=4 note=62 velocity=95 time=0
EXTRACT: note_on channel=4 note=58 velocity=95 time=0
EXTRACT: note_on channel=4 note=50 velocity=95 time=0
EXTRACT: note_off channel=4 note=70 velocity=95 time=0.4166665
EXTRACT: note_off channel=4 note=65 velocity=95 time=0
EXTRACT: note_off channel=4 note=62 velocity=95 time=0
EXTRACT: note_off channel=4 note=58 velocity=95 time=0
EXTRACT: note_off channel=4 note=50 velocity=95 time=0
EXTRACT: note_on channel=4 note=62 velocity=95 time=0
EXTRACT: note_off channel=4 note=62 velocity=95 time=0.4166665
EXTRACT: note_on channel=4 note=65 velocity=95 time=0
EXTRACT: note_off channel=4 note=65 velocity=95 time=0.4166665
EXTRACT: note_on channel=4 note=70 velocity=95 time=0
EXTRACT: note_on channel=1 note=70 velocity=95 time=0.4166665
EXTRACT: note_off channel=4 note=70 velocity=95 time=0
EXTRACT: note_on channel=4 note=70 velocity=95 time=0
EXTRACT: note_on channel=4 note=65 velocity=95 time=0
EXTRACT: note_on channel=4 note=61 velocity=95 time=0
EXTRACT: note_on channel=4 note=49 velocity=95 time=0
EXTRACT: pitchwheel channel=1 pitch=-256 time=0.104166625
EXTRACT: pitchwheel channel=1 pitch=-640 time=0.104166625
EXTRACT: pitchwheel channel=1 pitch=-1024 time=0.104166625
EXTRACT: pitchwheel channel=1 pitch=-1408 time=0.104166625
EXTRACT: pitchwheel channel=1 pitch=0 time=0
EXTRACT: note_off channel=1 note=70 velocity=95 time=0
EXTRACT: note_on channel=0 note=68 velocity=95 time=0
EXTRACT: note_off channel=0 note=68 velocity=95 time=0.4166665
EXTRACT: note_on channel=1 note=68 velocity=95 time=0
EXTRACT: note_off channel=4 note=70 velocity=95 time=0
EXTRACT: note_off channel=4 note=65 velocity=95 time=0
EXTRACT: note_off channel=4 note=61 velocity=95 time=0
EXTRACT: note_off channel=4 note=49 velocity=95 time=0
EXTRACT: note_on channel=4 note=70 velocity=95 time=0
EXTRACT: note_on channel=4 note=65 velocity=95 time=0
EXTRACT: note_on channel=4 note=61 velocity=95 time=0
EXTRACT: pitchwheel channel=1 pitch=-128 time=0.104166625
EXTRACT: pitchwheel channel=1 pitch=-256 time=0.104166625
EXTRACT: pitchwheel channel=1 pitch=-512 time=0.104166625
EXTRACT: pitchwheel channel=1 pitch=-640 time=0.104166625
EXTRACT: pitchwheel channel=1 pitch=0 time=0
EXTRACT: note_off channel=1 note=68 velocity=95 time=0
EXTRACT: note_on channel=0 note=67 velocity=95 time=0
EXTRACT: note_off channel=4 note=70 velocity=95 time=0
EXTRACT: note_off channel=4 note=65 velocity=95 time=0
EXTRACT: note_off channel=4 note=61 velocity=95 time=0
EXTRACT: note_on channel=4 note=72 velocity=95 time=0
EXTRACT: note_off channel=0 note=67 velocity=95 time=0.4166665
EXTRACT: note_on channel=0 note=67 velocity=95 time=0
EXTRACT: note_off channel=4 note=72 velocity=95 time=0
EXTRACT: note_on channel=4 note=64 velocity=95 time=0
EXTRACT: note_on channel=4 note=60 velocity=95 time=0
EXTRACT: note_on channel=4 note=55 velocity=95 time=0
EXTRACT: note_on channel=4 note=48 velocity=95 time=0
EXTRACT: note_off channel=4 note=64 velocity=95 time=0.4166665
EXTRACT: note_off channel=4 note=60 velocity=95 time=0
EXTRACT: note_off channel=4 note=55 velocity=95 time=0
EXTRACT: note_off channel=4 note=48 velocity=95 time=0
EXTRACT: note_on channel=4 note=60 velocity=95 time=0
EXTRACT: note_off channel=4 note=60 velocity=95 time=0.4166665
EXTRACT: note_on channel=4 note=64 velocity=95 time=0
EXTRACT: note_off channel=4 note=64 velocity=95 time=0.4166665
EXTRACT: note_on channel=4 note=67 velocity=95 time=0
EXTRACT: note_off channel=4 note=67 velocity=95 time=0.4166665
EXTRACT: note_on channel=4 note=70 velocity=95 time=0
EXTRACT: note_on channel=4 note=61 velocity=95 time=0
EXTRACT: note_off channel=4 note=70 velocity=95 time=0.4166665
EXTRACT: note_off channel=4 note=61 velocity=95 time=0
EXTRACT: note_on channel=4 note=68 velocity=95 time=0
EXTRACT: note_off channel=4 note=68 velocity=95 time=0.4166665
EXTRACT: note_on channel=4 note=68 velocity=95 time=0
EXTRACT: note_off channel=4 note=68 velocity=95 time=0.4166665
EXTRACT: note_on channel=4 note=67 velocity=95 time=0
EXTRACT: note_off channel=0 note=67 velocity=95 time=0.4166665
EXTRACT: note_on channel=1 note=67 velocity=95 time=0
EXTRACT: note_off channel=4 note=67 velocity=95 time=0
EXTRACT: note_on channel=4 note=64 velocity=95 time=0
EXTRACT: note_on channel=4 note=60 velocity=95 time=0
EXTRACT: note_on channel=4 note=55 velocity=95 time=0
EXTRACT: note_on channel=4 note=48 velocity=95 time=0
EXTRACT: pitchwheel channel=1 pitch=-512 time=0.104166625
EXTRACT: pitchwheel channel=1 pitch=-1024 time=0.104166625
EXTRACT: pitchwheel channel=1 pitch=-1536 time=0.104166625
EXTRACT: pitchwheel channel=1 pitch=-2048 time=0.104166625
EXTRACT: pitchwheel channel=1 pitch=0 time=0
EXTRACT: note_off channel=1 note=67 velocity=95 time=0
EXTRACT: note_on channel=0 note=64 velocity=95 time=0
EXTRACT: note_off channel=4 note=64 velocity=95 time=0
EXTRACT: note_off channel=4 note=60 velocity=95 time=0
EXTRACT: note_off channel=4 note=55 velocity=95 time=0
EXTRACT: note_off channel=4 note=48 velocity=95 time=0
EXTRACT: note_on channel=4 note=64 velocity=95 time=0
EXTRACT: note_off channel=0 note=64 velocity=95 time=0.4166665
EXTRACT: note_on channel=0 note=60 velocity=95 time=0
EXTRACT: note_off channel=4 note=64 velocity=95 time=0
EXTRACT: note_on channel=4 note=60 velocity=95 time=0
EXTRACT: note_off channel=0 note=60 velocity=95 time=0.4166665
EXTRACT: note_on channel=0 note=58 velocity=95 time=0
EXTRACT: note_off channel=4 note=60 velocity=95 time=0
EXTRACT: note_on channel=4 note=58 velocity=95 time=0
EXTRACT: note_off channel=0 note=58 velocity=95 time=0.4166665
EXTRACT: note_on channel=0 note=57 velocity=95 time=0
EXTRACT: note_off channel=4 note=58 velocity=95 time=0
EXTRACT: note_on channel=4 note=65 velocity=95 time=0
EXTRACT: note_on channel=4 note=57 velocity=95 time=0
EXTRACT: note_on channel=4 note=53 velocity=95 time=0
EXTRACT: note_off channel=4 note=65 velocity=95 time=0.4166665
EXTRACT: note_off channel=4 note=57 velocity=95 time=0
EXTRACT: note_off channel=4 note=53 velocity=95 time=0
EXTRACT: note_on channel=4 note=69 velocity=95 time=0
EXTRACT: note_off channel=0 note=57 velocity=95 time=0.4166665
EXTRACT: note_on channel=0 note=65 velocity=95 time=0
EXTRACT: note_off channel=4 note=69 velocity=95 time=0
EXTRACT: note_on channel=4 note=77 velocity=95 time=0
EXTRACT: note_off channel=4 note=77 velocity=95 time=0.4166665
EXTRACT: note_on channel=4 note=69 velocity=95 time=0
EXTRACT: note_on channel=4 note=65 velocity=95 time=0
EXTRACT: note_off channel=4 note=69 velocity=95 time=0.4166665
EXTRACT: note_off channel=4 note=65 velocity=95 time=0
EXTRACT: note_on channel=4 note=74 velocity=95 time=0
EXTRACT: note_on channel=4 note=70 velocity=95 time=0
EXTRACT: note_off channel=4 note=74 velocity=95 time=0.4166665
EXTRACT: note_off channel=4 note=70 velocity=95 time=0
EXTRACT: note_on channel=4 note=77 velocity=95 time=0
EXTRACT: note_off channel=4 note=77 velocity=95 time=0.4166665
EXTRACT: note_on channel=4 note=72 velocity=95 time=0
EXTRACT: note_on channel=4 note=69 velocity=95 time=0
EXTRACT: note_off channel=4 note=72 velocity=95 time=0.4166665
EXTRACT: note_off channel=4 note=69 velocity=95 time=0
EXTRACT: note_on channel=4 note=77 velocity=95 time=0
EXTRACT: note_off channel=4 note=77 velocity=95 time=0.4166665
EXTRACT: note_on channel=4 note=71 velocity=95 time=0
EXTRACT: note_on channel=4 note=68 velocity=95 time=0
EXTRACT: note_off channel=4 note=71 velocity=95 time=0.4166665
EXTRACT: note_off channel=4 note=68 velocity=95 time=0
EXTRACT: note_on channel=4 note=77 velocity=95 time=0
EXTRACT: note_off channel=4 note=77 velocity=95 time=0.4166665
EXTRACT: note_on channel=4 note=70 velocity=95 time=0
EXTRACT: note_on channel=4 note=67 velocity=95 time=0
EXTRACT: note_off channel=4 note=70 velocity=95 time=0.4166665
EXTRACT: note_off channel=4 note=67 velocity=95 time=0
EXTRACT: note_on channel=4 note=77 velocity=95 time=0
EXTRACT: note_off channel=0 note=65 velocity=95 time=0.4166665
EXTRACT: note_off channel=4 note=77 velocity=95 time=0
EXTRACT: note_on channel=4 note=69 velocity=95 time=0
EXTRACT: note_on channel=4 note=65 velocity=95 time=0
EXTRACT: note_on channel=4 note=60 velocity=95 time=0
EXTRACT: note_on channel=4 note=53 velocity=95 time=0
EXTRACT: note_off channel=4 note=69 velocity=95 time=3.333332
EXTRACT: note_off channel=4 note=65 velocity=95 time=0
EXTRACT: note_off channel=4 note=60 velocity=95 time=0
EXTRACT: note_off channel=4 note=53 velocity=95 time=0
INTERVALS004 - Queen_-_Bohemian_Rhapsody.mid
unison39 41 81 19 24 53 14 81 11 2 6 5