EXTRACT: control_change channel=0 control=101 value=0 time=0
EXTRACT: control_change channel=0 control=100 value=0 time=0
EXTRACT: control_change channel=0 control=6 value=12 time=0
EXTRACT: control_change channel=0 control=38 value=0 time=0
EXTRACT: control_change channel=1 control=101 value=0 time=0
EXTRACT: control_change channel=1 control=100 value=0 time=0
EXTRACT: control_change channel=1 control=6 value=12 time=0
EXTRACT: control_change channel=1 control=38 value=0 time=0
EXTRACT: control_change channel=2 control=101 value=0 time=0
EXTRACT: control_change channel=2 control=100 value=0 time=0
EXTRACT: control_change channel=2 control=6 value=12 time=0
EXTRACT: control_change channel=2 control=38 value=0 time=0
EXTRACT: control_change channel=3 control=101 value=0 time=0
EXTRACT: control_change channel=3 control=100 value=0 time=0
EXTRACT: control_change channel=3 control=6 value=12 time=0
EXTRACT: control_change channel=3 control=38 value=0 time=0
EXTRACT: control_change channel=4 control=101 value=0 time=0
EXTRACT: control_change channel=4 control=100 value=0 time=0
EXTRACT: control_change channel=4 control=6 value=12 time=0
EXTRACT: control_change channel=4 control=38 value=0 time=0
EXTRACT: control_change channel=5 control=101 value=0 time=0
EXTRACT: control_change channel=5 control=100 value=0 time=0
EXTRACT: control_change channel=5 control=6 value=12 time=0
EXTRACT: control_change channel=5 control=38 value=0 time=0
EXTRACT: control_change channel=6 control=101 value=0 time=0
EXTRACT: control_change channel=6 control=100 value=0 time=0
EXTRACT: control_change channel=6 control=6 value=12 time=0
EXTRACT: control_change channel=6 control=38 value=0 time=0
EXTRACT: control_change channel=7 control=101 value=0 time=0
EXTRACT: control_change channel=7 control=100 value=0 time=0
EXTRACT: control_change channel=7 control=6 value=12 time=0
EXTRACT: control_change channel=7 control=38 value=0 time=0
EXTRACT: control_change channel=8 control=101 value=0 time=0
EXTRACT: control_change channel=8 control=100 value=0 time=0
EXTRACT: control_change channel=8 control=6 value=12 time=0
EXTRACT: control_change channel=8 control=38 value=0 time=0
EXTRACT: control_change channel=9 control=101 value=0 time=0
EXTRACT: control_change channel=9 control=100 value=0 time=0
EXTRACT: control_change channel=9 control=6 value=12 time=0
EXTRACT: control_change channel=9 control=38 value=0 time=0
EXTRACT: control_change channel=10 control=101 value=0 time=0
EXTRACT: control_change channel=10 control=100 value=0 time=0
EXTRACT: control_change channel=10 control=6 value=12 time=0
EXTRACT: control_change channel=10 control=38 value=0 time=0
EXTRACT: control_change channel=11 control=101 value=0 time=0
EXTRACT: control_change channel=11 control=100 value=0 time=0
EXTRACT: control_change channel=11 control=6 value=12 time=0
EXTRACT: control_change channel=11 control=38 value=0 time=0
EXTRACT: control_change channel=12 control=101 value=0 time=0
EXTRACT: control_change channel=12 control=100 value=0 time=0
EXTRACT: control_change channel=12 control=6 value=12 time=0
EXTRACT: control_change channel=12 control=38 value=0 time=0
EXTRACT: control_change channel=13 control=101 value=0 time=0
EXTRACT: control_change channel=13 control=100 value=0 time=0
EXTRACT: control_change channel=13 control=6 value=12 time=0
EXTRACT: control_change channel=13 control=38 value=0 time=0
EXTRACT: control_change channel=14 control=101 value=0 time=0
EXTRACT: control_change channel=14 control=100 value=0 time=0
EXTRACT: control_change channel=14 control=6 value=12 time=0
EXTRACT: control_change channel=14 control=38 value=0 time=0
EXTRACT: control_change channel=15 control=101 value=0 time=0
EXTRACT: control_change channel=15 control=100 value=0 time=0
EXTRACT: control_change channel=15 control=6 value=12 time=0
EXTRACT: control_change channel=15 control=38 value=0 time=0
EXTRACT: pitchwheel channel=0 pitch=0 time=0
EXTRACT: control_change channel=0 control=7 value=127 time=0
EXTRACT: control_change channel=0 control=10 value=95 time=0
EXTRACT: control_change channel=0 control=93 value=0 time=0
EXTRACT: control_change channel=0 control=91 value=47 time=0
EXTRACT: control_change channel=0 control=95 value=0 time=0
EXTRACT: control_change channel=0 control=92 value=0 time=0
EXTRACT: control_change channel=0 control=11 value=127 time=0
EXTRACT: program_change channel=0 program=69 time=0
EXTRACT: control_change channel=1 control=7 value=127 time=0
EXTRACT: control_change channel=1 control=10 value=95 time=0
EXTRACT: control_change channel=1 control=93 value=0 time=0
EXTRACT: control_change channel=1 control=91 value=47 time=0
EXTRACT: control_change channel=1 control=95 value=0 time=0
EXTRACT: control_change channel=1 control=92 value=0 time=0
EXTRACT: control_change channel=1 control=11 value=127 time=0
EXTRACT: program_change channel=1 program=69 time=0
EXTRACT: pitchwheel channel=15 pitch=0 time=0
EXTRACT: control_change channel=15 control=7 value=119 time=0
EXTRACT: control_change channel=15 control=10 value=31 time=0
EXTRACT: control_change channel=15 control=93 value=31 time=0
EXTRACT: control_change channel=15 control=91 value=39 time=0
EXTRACT: control_change channel=15 control=95 value=0 time=0
EXTRACT: control_change channel=15 control=92 value=0 time=0
EXTRACT: control_change channel=15 control=11 value=127 time=0
EXTRACT: program_change channel=15 program=54 time=0
EXTRACT: pitchwheel channel=2 pitch=0 time=0
EXTRACT: control_change channel=2 control=7 value=79 time=0
EXTRACT: control_change channel=2 control=10 value=63 time=0
EXTRACT: control_change channel=2 control=93 value=39 time=0
EXTRACT: control_change channel=2 control=91 value=71 time=0
EXTRACT: control_change channel=2 control=95 value=0 time=0
EXTRACT: control_change channel=2 control=92 value=0 time=0
EXTRACT: control_change channel=2 control=11 value=127 time=0
EXTRACT: program_change channel=2 program=4 time=0
EXTRACT: control_change channel=3 control=7 value=79 time=0
EXTRACT: control_change channel=3 control=10 value=63 time=0
EXTRACT: control_change channel=3 control=93 value=39 time=0
EXTRACT: control_change channel=3 control=91 value=71 time=0
EXTRACT: control_change channel=3 control=95 value=0 time=0
EXTRACT: control_change channel=3 control=92 value=0 time=0
EXTRACT: control_change channel=3 control=11 value=127 time=0
EXTRACT: program_change channel=3 program=4 time=0
EXTRACT: note_on channel=2 note=73 velocity=95 time=0
EXTRACT: note_on channel=2 note=69 velocity=95 time=0
EXTRACT: note_on channel=2 note=66 velocity=95 time=0
EXTRACT: pitchwheel channel=4 pitch=0 time=0
EXTRACT: control_change channel=4 control=7 value=87 time=0
EXTRACT: control_change channel=4 control=10 value=63 time=0
EXTRACT: control_change channel=4 control=93 value=0 time=0
EXTRACT: control_change channel=4 control=91 value=127 time=0
EXTRACT: control_change channel=4 control=95 value=0 time=0
EXTRACT: control_change channel=4 control=92 value=0 time=0
EXTRACT: control_change channel=4 control=11 value=127 time=0
EXTRACT: program_change channel=4 program=27 time=0
EXTRACT: control_change channel=5 control=7 value=87 time=0
EXTRACT: control_change channel=5 control=10 value=63 time=0
EXTRACT: control_change channel=5 control=93 value=0 time=0
EXTRACT: control_change channel=5 control=91 value=127 time=0
EXTRACT: control_change channel=5 control=95 value=0 time=0
EXTRACT: control_change channel=5 control=92 value=0 time=0
EXTRACT: control_change channel=5 control=11 value=127 time=0
EXTRACT: program_change channel=5 program=27 time=0
EXTRACT: pitchwheel channel=6 pitch=0 time=0
EXTRACT: control_change channel=6 control=7 value=127 time=0
EXTRACT: control_change channel=6 control=10 value=63 time=0
EXTRACT: control_change channel=6 control=93 value=95 time=0
EXTRACT: control_change channel=6 control=91 value=103 time=0
EXTRACT: control_change channel=6 control=95 value=0 time=0
EXTRACT: control_change channel=6 control=92 value=0 time=0
EXTRACT: control_change channel=6 control=11 value=127 time=0
EXTRACT: program_change channel=6 program=5 time=0
EXTRACT: control_change channel=7 control=7 value=127 time=0
EXTRACT: control_change channel=7 control=10 value=63 time=0
EXTRACT: control_change channel=7 control=93 value=95 time=0
EXTRACT: control_change channel=7 control=91 value=103 time=0
EXTRACT: control_change channel=7 control=95 value=0 time=0
EXTRACT: control_change channel=7 control=92 value=0 time=0
EXTRACT: control_change channel=7 control=11 value=127 time=0
EXTRACT: program_change channel=7 program=5 time=0
EXTRACT: pitchwheel channel=8 pitch=0 time=0
EXTRACT: control_change channel=8 control=7 value=79 time=0
EXTRACT: control_change channel=8 control=10 value=63 time=0
EXTRACT: control_change channel=8 control=93 value=39 time=0
EXTRACT: control_change channel=8 control=91 value=23 time=0
EXTRACT: control_change channel=8 control=95 value=0 time=0
EXTRACT: control_change channel=8 control=92 value=0 time=0
EXTRACT: control_change channel=8 control=11 value=127 time=0
EXTRACT: program_change channel=8 program=50 time=0
EXTRACT: pitchwheel channel=11 pitch=0 time=0
EXTRACT: control_change channel=11 control=7 value=79 time=0
EXTRACT: control_change channel=11 control=10 value=0 time=0
EXTRACT: control_change channel=11 control=93 value=0 time=0
EXTRACT: control_change channel=11 control=91 value=47 time=0
EXTRACT: control_change channel=11 control=95 value=0 time=0
EXTRACT: control_change channel=11 control=92 value=0 time=0
EXTRACT: control_change channel=11 control=11 value=127 time=0
EXTRACT: program_change channel=11 program=61 time=0
EXTRACT: pitchwheel channel=10 pitch=0 time=0
EXTRACT: control_change channel=10 control=7 value=79 time=0
EXTRACT: control_change channel=10 control=10 value=127 time=0
EXTRACT: control_change channel=10 control=93 value=0 time=0
EXTRACT: control_change channel=10 control=91 value=47 time=0
EXTRACT: control_change channel=10 control=95 value=0 time=0
EXTRACT: control_change channel=10 control=92 value=0 time=0
EXTRACT: control_change channel=10 control=11 value=127 time=0
EXTRACT: program_change channel=10 program=61 time=0
EXTRACT: control_change channel=12 control=7 value=79 time=0
EXTRACT: control_change channel=12 control=10 value=127 time=0
EXTRACT: control_change channel=12 control=93 value=0 time=0
EXTRACT: control_change channel=12 control=91 value=47 time=0
EXTRACT: control_change channel=12 control=95 value=0 time=0
EXTRACT: control_change channel=12 control=92 value=0 time=0
EXTRACT: control_change channel=12 control=11 value=127 time=0
EXTRACT: program_change channel=12 program=61 time=0
EXTRACT: pitchwheel channel=13 pitch=0 time=0
EXTRACT: control_change channel=13 control=7 value=95 time=0
EXTRACT: control_change channel=13 control=10 value=63 time=0
EXTRACT: control_change channel=13 control=93 value=15 time=0
EXTRACT: control_change channel=13 control=91 value=87 time=0
EXTRACT: control_change channel=13 control=95 value=0 time=0
EXTRACT: control_change channel=13 control=92 value=0 time=0
EXTRACT: control_change channel=13 control=11 value=127 time=0
EXTRACT: program_change channel=13 program=35 time=0
EXTRACT: control_change channel=14 control=7 value=95 time=0
EXTRACT: control_change channel=14 control=10 value=63 time=0
EXTRACT: control_change channel=14 control=93 value=15 time=0
EXTRACT: control_change channel=14 control=91 value=87 time=0
EXTRACT: control_change channel=14 control=95 value=0 time=0
EXTRACT: control_change channel=14 control=92 value=0 time=0
EXTRACT: control_change channel=14 control=11 value=127 time=0
EXTRACT: program_change channel=14 program=35 time=0
EXTRACT: pitchwheel channel=9 pitch=0 time=0
EXTRACT: control_change channel=9 control=7 value=79 time=0
EXTRACT: control_change channel=9 control=10 value=63 time=0
EXTRACT: control_change channel=9 control=93 value=0 time=0
EXTRACT: control_change channel=9 control=91 value=0 time=0
EXTRACT: control_change channel=9 control=95 value=0 time=0
EXTRACT: control_change channel=9 control=92 value=0 time=0
EXTRACT: control_change channel=9 control=11 value=127 time=0
EXTRACT: program_change channel=9 program=0 time=0
EXTRACT: note_on channel=9 note=69 velocity=95 time=0
EXTRACT: note_on channel=9 note=60 velocity=95 time=0
EXTRACT: pitchwheel channel=9 pitch=0 time=0
EXTRACT: control_change channel=9 control=7 value=79 time=0
EXTRACT: control_change channel=9 control=10 value=63 time=0
EXTRACT: control_change channel=9 control=93 value=0 time=0
EXTRACT: control_change channel=9 control=91 value=0 time=0
EXTRACT: control_change channel=9 control=95 value=0 time=0
EXTRACT: control_change channel=9 control=92 value=0 time=0
EXTRACT: control_change channel=9 control=11 value=127 time=0
EXTRACT: program_change channel=9 program=0 time=0
EXTRACT: note_off channel=2 note=73 velocity=95 time=0.24
EXTRACT: note_off channel=2 note=69 velocity=95 time=0
EXTRACT: note_off channel=2 note=66 velocity=95 time=0
EXTRACT: note_on channel=2 note=73 velocity=95 time=0
EXTRACT: note_on channel=2 note=69 velocity=95 time=0
EXTRACT: note_on channel=2 note=66 velocity=95 time=0
EXTRACT: note_on channel=4 note=61 velocity=95 time=0
EXTRACT: note_off channel=9 note=69 velocity=95 time=0
EXTRACT: note_off channel=9 note=60 velocity=95 time=0
EXTRACT: note_on channel=9 note=69 velocity=95 time=0
EXTRACT: note_off channel=2 note=73 velocity=95 time=0.24
EXTRACT: note_off channel=2 note=69 velocity=95 time=0
EXTRACT: note_off channel=2 note=66 velocity=95 time=0
EXTRACT: note_on channel=2 note=73 velocity=95 time=0
EXTRACT: note_on channel=2 note=69 velocity=95 time=0
EXTRACT: note_on channel=2 note=66 velocity=95 time=0
EXTRACT: note_off channel=4 note=61 velocity=95 time=0
EXTRACT: note_off channel=9 note=69 velocity=95 time=0
EXTRACT: note_on channel=9 note=69 velocity=95 time=0
EXTRACT: note_on channel=9 note=60 velocity=95 time=0
EXTRACT: note_off channel=2 note=73 velocity=95 time=0.24
EXTRACT: note_off channel=2 note=69 velocity=95 time=0
EXTRACT: note_off channel=2 note=66 velocity=95 time=0
EXTRACT: note_on channel=2 note=71 velocity=95 time=0
EXTRACT: note_on channel=2 note=68 velocity=95 time=0
EXTRACT: note_on channel=2 note=64 velocity=95 time=0
EXTRACT: note_on channel=4 note=59 velocity=95 time=0
EXTRACT: note_off channel=9 note=69 velocity=95 time=0
EXTRACT: note_off channel=9 note=60 velocity=95 time=0
EXTRACT: note_on channel=9 note=69 velocity=95 time=0
EXTRACT: note_off channel=2 note=71 velocity=95 time=0.24
EXTRACT: note_off channel=2 note=68 velocity=95 time=0
EXTRACT: note_off channel=2 note=64 velocity=95 time=0
EXTRACT: note_off channel=4 note=59 velocity=95 time=0
EXTRACT: note_off channel=9 note=69 velocity=95 time=0
EXTRACT: note_on channel=9 note=69 velocity=95 time=0
EXTRACT: note_on channel=9 note=60 velocity=95 time=0
EXTRACT: note_on channel=2 note=69 velocity=95 time=0.24
EXTRACT: note_on channel=2 note=66 velocity=95 time=0
EXTRACT: note_on channel=2 note=62 velocity=95 time=0
EXTRACT: note_on channel=4 note=57 velocity=95 time=0
EXTRACT: note_off channel=9 note=69 velocity=95 time=0
EXTRACT: note_off channel=9 note=60 velocity=95 time=0
EXTRACT: note_on channel=9 note=69 velocity=95 time=0
EXTRACT: note_off channel=4 note=57 velocity=95 time=0.24
EXTRACT: note_off channel=9 note=69 velocity=95 time=0
EXTRACT: note_on channel=9 note=69 velocity=95 time=0
EXTRACT: note_on channel=9 note=60 velocity=95 time=0
EXTRACT: note_off channel=2 note=69 velocity=95 time=0.24
EXTRACT: note_off channel=2 note=66 velocity=95 time=0
EXTRACT: note_off channel=2 note=62 velocity=95 time=0
EXTRACT: note_on channel=2 note=71 velocity=95 time=0
EXTRACT: note_on channel=2 note=68 velocity=95 time=0
EXTRACT: note_on channel=2 note=64 velocity=95 time=0
EXTRACT: note_off channel=9 note=69 velocity=95 time=0
EXTRACT: note_off channel=9 note=60 velocity=95 time=0
EXTRACT: note_on channel=9 note=69 velocity=95 time=0
EXTRACT: note_on channel=4 note=59 velocity=95 time=0.24
EXTRACT: note_off channel=9 note=69 velocity=95 time=0
EXTRACT: note_on channel=9 note=69 velocity=95 time=0
EXTRACT: note_on channel=9 note=60 velocity=95 time=0
EXTRACT: note_off channel=2 note=71 velocity=95 time=0.24
EXTRACT: note_off channel=2 note=68 velocity=95 time=0
EXTRACT: note_off channel=2 note=64 velocity=95 time=0
EXTRACT: note_on channel=2 note=52 velocity=95 time=0
EXTRACT: note_off channel=4 note=59 velocity=95 time=0
EXTRACT: note_on channel=4 note=59 velocity=95 time=0
EXTRACT: note_off channel=9 note=69 velocity=95 time=0
EXTRACT: note_off channel=9 note=60 velocity=95 time=0
EXTRACT: note_on channel=9 note=69 velocity=95 time=0
EXTRACT: note_off channel=2 note=52 velocity=95 time=0.24
EXTRACT: note_on channel=2 note=53 velocity=95 time=0
EXTRACT: note_off channel=4 note=59 velocity=95 time=0
EXTRACT: note_off channel=9 note=69 velocity=95 time=0
EXTRACT: note_on channel=9 note=69 velocity=95 time=0
EXTRACT: note_on channel=9 note=60 velocity=95 time=0
EXTRACT: note_off channel=2 note=53 velocity=95 time=0.24
EXTRACT: note_on channel=2 note=69 velocity=95 time=0
EXTRACT: note_on channel=2 note=64 velocity=95 time=0
EXTRACT: note_on channel=2 note=61 velocity=95 time=0
EXTRACT: note_on channel=2 note=54 velocity=95 time=0
EXTRACT: note_on channel=4 note=56 velocity=95 time=0
EXTRACT: note_off channel=9 note=69 velocity=95 time=0
EXTRACT: note_off channel=9 note=60 velocity=95 time=0
EXTRACT: note_on channel=9 note=69 velocity=95 time=0
EXTRACT: note_off channel=9 note=69 velocity=95 time=0.24
EXTRACT: note_on channel=9 note=69 velocity=95 time=0
EXTRACT: note_on channel=9 note=60 velocity=95 time=0
EXTRACT: note_off channel=2 note=69 velocity=95 time=0.24
EXTRACT: note_off channel=2 note=64 velocity=95 time=0
EXTRACT: note_off channel=2 note=61 velocity=95 time=0
EXTRACT: note_off channel=2 note=54 velocity=95 time=0
EXTRACT: note_on channel=2 note=69 velocity=95 time=0
EXTRACT: note_on channel=2 note=64 velocity=95 time=0
EXTRACT: note_on channel=2 note=61 velocity=95 time=0
EXTRACT: note_on channel=2 note=54 velocity=95 time=0
EXTRACT: note_off channel=4 note=56 velocity=95 time=0
EXTRACT: note_on channel=4 note=57 velocity=95 time=0
EXTRACT: note_off channel=9 note=69 velocity=95 time=0
EXTRACT: note_off channel=9 note=60 velocity=95 time=0
EXTRACT: note_on channel=9 note=69 velocity=95 time=0
EXTRACT: note_off channel=2 note=69 velocity=95 time=0.24
EXTRACT: note_off channel=2 note=64 velocity=95 time=0
EXTRACT: note_off channel=2 note=61 velocity=95 time=0
EXTRACT: note_off channel=2 note=54 velocity=95 time=0
EXTRACT: note_on channel=2 note=69 velocity=95 time=0
EXTRACT: note_on channel=2 note=64 velocity=95 time=0
EXTRACT: note_off channel=4 note=57 velocity=95 time=0
EXTRACT: note_on channel=6 note=73 velocity=95 time=0
EXTRACT: note_off channel=9 note=69 velocity=95 time=0
EXTRACT: note_on channel=9 note=69 velocity=95 time=0
EXTRACT: note_on channel=9 note=60 velocity=95 time=0
EXTRACT: note_off channel=2 note=69 velocity=95 time=0.24
EXTRACT: note_off channel=2 note=64 velocity=95 time=0
EXTRACT: note_on channel=2 note=69 velocity=95 time=0
EXTRACT: note_on channel=2 note=64 velocity=95 time=0
EXTRACT: note_off channel=9 note=69 velocity=95 time=0
EXTRACT: note_off channel=9 note=60 velocity=95 time=0
EXTRACT: note_on channel=9 note=69 velocity=95 time=0
EXTRACT: note_off channel=2 note=69 velocity=95 time=0.24
EXTRACT: note_off channel=2 note=64 velocity=95 time=0
EXTRACT: note_on channel=2 note=73 velocity=95 time=0
EXTRACT: note_on channel=2 note=69 velocity=95 time=0
EXTRACT: note_on channel=2 note=66 velocity=95 time=0
EXTRACT: note_off channel=6 note=73 velocity=95 time=0
EXTRACT: note_on channel=6 note=61 velocity=95 time=0
EXTRACT: note_off channel=9 note=69 velocity=95 time=0
EXTRACT: note_on channel=9 note=69 velocity=95 time=0
EXTRACT: note_on channel=9 note=60 velocity=95 time=0
EXTRACT: note_off channel=2 note=73 velocity=95 time=0.24
EXTRACT: note_off channel=2 note=69 velocity=95 time=0
EXTRACT: note_off channel=2 note=66 velocity=95 time=0
EXTRACT: note_on channel=2 note=73 velocity=95 time=0
EXTRACT: note_on channel=2 note=69 velocity=95 time=0
EXTRACT: note_on channel=2 note=66 velocity=95 time=0
EXTRACT: note_on channel=4 note=61 velocity=95 time=0
EXTRACT: note_off channel=9 note=69 velocity=95 time=0
EXTRACT: note_off channel=9 note=60 velocity=95 time=0
EXTRACT: note_on channel=9 note=69 velocity=95 time=0
EXTRACT: note_off channel=2 note=73 velocity=95 time=0.24
EXTRACT: note_off channel=2 note=69 velocity=95 time=0
EXTRACT: note_off channel=2 note=66 velocity=95 time=0
EXTRACT: note_on channel=2 note=73 velocity=95 time=0
EXTRACT: note_on channel=2 note=69 velocity=95 time=0
EXTRACT: note_on channel=2 note=66 velocity=95 time=0
EXTRACT: note_off channel=4 note=61 velocity=95 time=0
EXTRACT: note_off channel=9 note=69 velocity=95 time=0
EXTRACT: note_on channel=9 note=69 velocity=95 time=0
EXTRACT: note_on channel=9 note=60 velocity=95 time=0
EXTRACT: note_off channel=2 note=73 velocity=95 time=0.24
EXTRACT: note_off channel=2 note=69 velocity=95 time=0
EXTRACT: note_off channel=2 note=66 velocity=95 time=0
EXTRACT: note_on channel=2 note=71 velocity=95 time=0
EXTRACT: note_on channel=2 note=68 velocity=95 time=0
EXTRACT: note_on channel=2 note=64 velocity=95 time=0
EXTRACT: note_on channel=4 note=59 velocity=95 time=0
EXTRACT: note_off channel=9 note=69 velocity=95 time=0
EXTRACT: note_off channel=9 note=60 velocity=95 time=0
EXTRACT: note_on channel=9 note=69 velocity=95 time=0
EXTRACT: note_off channel=2 note=71 velocity=95 time=0.24
EXTRACT: note_off channel=2 note=68 velocity=95 time=0
EXTRACT: note_off channel=2 note=64 velocity=95 time=0
EXTRACT: note_off channel=4 note=59 velocity=95 time=0
EXTRACT: note_off channel=9 note=69 velocity=95 time=0
EXTRACT: note_on channel=9 note=69 velocity=95 time=0
EXTRACT: note_on channel=9 note=60 velocity=95 time=0
EXTRACT: note_on channel=2 note=69 velocity=95 time=0.24
EXTRACT: note_on channel=2 note=66 velocity=95 time=0
EXTRACT: note_on channel=2 note=62 velocity=95 time=0
EXTRACT: note_on channel=4 note=57 velocity=95 time=0
EXTRACT: note_off channel=9 note=69 velocity=95 time=0
EXTRACT: note_off channel=9 note=60 velocity=95 time=0
EXTRACT: note_on channel=9 note=69 velocity=95 time=0
EXTRACT: note_off channel=4 note=57 velocity=95 time=0.24
EXTRACT: note_off channel=9 note=69 velocity=95 time=0
EXTRACT: note_on channel=9 note=69 velocity=95 time=0
EXTRACT: note_on channel=9 note=60 velocity=95 time=0
EXTRACT: note_off channel=2 note=69 velocity=95 time=0.24
EXTRACT: note_off channel=2 note=66 velocity=95 time=0
EXTRACT: note_off channel=2 note=62 velocity=95 time=0
EXTRACT: note_on channel=2 note=71 velocity=95 time=0
EXTRACT: note_on channel=2 note=68 velocity=95 time=0
EXTRACT: note_on channel=2 note=64 velocity=95 time=0
EXTRACT: note_on channel=4 note=45 velocity=95 time=0
EXTRACT: note_off channel=9 note=69 velocity=95 time=0
EXTRACT: note_off channel=9 note=60 velocity=95 time=0
EXTRACT: note_on channel=9 note=69 velocity=95 time=0
EXTRACT: note_off channel=4 note=45 velocity=95 time=0.031
EXTRACT: note_on channel=5 note=59 velocity=95 time=0.209
EXTRACT: note_off channel=6 note=61 velocity=95 time=0
EXTRACT: note_off channel=9 note=69 velocity=95 time=0
EXTRACT: note_on channel=9 note=69 velocity=95 time=0
EXTRACT: note_on channel=9 note=60 velocity=95 time=0
EXTRACT: pitchwheel channel=5 pitch=0 time=0.06
EXTRACT: pitchwheel channel=5 pitch=0 time=0.06
EXTRACT: pitchwheel channel=5 pitch=0 time=0.06
EXTRACT: note_off channel=2 note=71 velocity=95 time=0.06
EXTRACT: note_off channel=2 note=68 velocity=95 time=0
EXTRACT: note_off channel=2 note=64 velocity=95 time=0
EXTRACT: note_on channel=2 note=71 velocity=95 time=0
EXTRACT: note_on channel=2 note=68 velocity=95 time=0
EXTRACT: note_on channel=2 note=64 velocity=95 time=0
EXTRACT: pitchwheel channel=5 pitch=0 time=0
EXTRACT: pitchwheel channel=5 pitch=0 time=0
EXTRACT: note_off channel=5 note=59 velocity=95 time=0
EXTRACT: note_on channel=4 note=59 velocity=95 time=0
EXTRACT: note_off channel=9 note=69 velocity=95 time=0
EXTRACT: note_off channel=9 note=60 velocity=95 time=0
EXTRACT: note_on channel=9 note=69 velocity=95 time=0
EXTRACT: note_off channel=2 note=71 velocity=95 time=0.24
EXTRACT: note_off channel=2 note=68 velocity=95 time=0
EXTRACT: note_off channel=2 note=64 velocity=95 time=0
EXTRACT: note_on channel=2 note=71 velocity=95 time=0
EXTRACT: note_on channel=2 note=68 velocity=95 time=0
EXTRACT: note_on channel=2 note=64 velocity=95 time=0
EXTRACT: note_off channel=4 note=59 velocity=95 time=0
EXTRACT: note_on channel=4 note=59 velocity=95 time=0
EXTRACT: note_off channel=9 note=69 velocity=95 time=0
EXTRACT: note_on channel=9 note=69 velocity=95 time=0
EXTRACT: note_on channel=9 note=60 velocity=95 time=0
EXTRACT: note_off channel=2 note=71 velocity=95 time=0.24
EXTRACT: note_off channel=2 note=68 velocity=95 time=0
EXTRACT: note_off channel=2 note=64 velocity=95 time=0
EXTRACT: note_on channel=2 note=71 velocity=95 time=0
EXTRACT: note_on channel=2 note=68 velocity=95 time=0
EXTRACT: note_on channel=2 note=64 velocity=95 time=0
EXTRACT: note_off channel=4 note=59 velocity=95 time=0
EXTRACT: note_on channel=4 note=56 velocity=95 time=0
EXTRACT: note_off channel=9 note=69 velocity=95 time=0
EXTRACT: note_off channel=9 note=60 velocity=95 time=0
EXTRACT: note_on channel=9 note=69 velocity=95 time=0
EXTRACT: note_off channel=2 note=71 velocity=95 time=0.24
EXTRACT: note_off channel=2 note=68 velocity=95 time=0
EXTRACT: note_off channel=2 note=64 velocity=95 time=0
EXTRACT: note_on channel=2 note=69 velocity=95 time=0
EXTRACT: note_on channel=2 note=64 velocity=95 time=0
EXTRACT: note_on channel=2 note=61 velocity=95 time=0
EXTRACT: note_off channel=9 note=69 velocity=95 time=0
EXTRACT: note_on channel=9 note=69 velocity=95 time=0
EXTRACT: note_on channel=9 note=60 velocity=95 time=0
EXTRACT: note_off channel=4 note=56 velocity=95 time=0.24
EXTRACT: note_on channel=4 note=57 velocity=95 time=0
EXTRACT: note_off channel=9 note=69 velocity=95 time=0
EXTRACT: note_off channel=9 note=60 velocity=95 time=0
EXTRACT: note_on channel=9 note=69 velocity=95 time=0
EXTRACT: note_off channel=2 note=69 velocity=95 time=0.12
EXTRACT: note_off channel=2 note=64 velocity=95 time=0
EXTRACT: note_off channel=2 note=61 velocity=95 time=0
EXTRACT: note_on channel=2 note=73 velocity=95 time=0
EXTRACT: note_on channel=2 note=69 velocity=95 time=0
EXTRACT: note_on channel=2 note=64 velocity=95 time=0
EXTRACT: note_off channel=2 note=73 velocity=95 time=0.12
EXTRACT: note_off channel=2 note=69 velocity=95 time=0
EXTRACT: note_off channel=2 note=64 velocity=95 time=0
EXTRACT: note_off channel=4 note=57 velocity=95 time=0
EXTRACT: note_on channel=6 note=73 velocity=95 time=0
EXTRACT: note_off channel=9 note=69 velocity=95 time=0
EXTRACT: note_on channel=9 note=69 velocity=95 time=0
EXTRACT: note_on channel=9 note=60 velocity=95 time=0
EXTRACT: note_on channel=2 note=69 velocity=95 time=0.24
EXTRACT: note_on channel=2 note=64 velocity=95 time=0
EXTRACT: note_on channel=2 note=61 velocity=95 time=0
EXTRACT: note_off channel=9 note=69 velocity=95 time=0
EXTRACT: note_off channel=9 note=60 velocity=95 time=0
EXTRACT: note_on channel=9 note=69 velocity=95 time=0
EXTRACT: note_off channel=2 note=69 velocity=95 time=0.24
EXTRACT: note_off channel=2 note=64 velocity=95 time=0
EXTRACT: note_off channel=2 note=61 velocity=95 time=0
EXTRACT: note_on channel=2 note=73 velocity=95 time=0
EXTRACT: note_on channel=2 note=69 velocity=95 time=0
EXTRACT: note_on channel=2 note=66 velocity=95 time=0
EXTRACT: note_off channel=6 note=73 velocity=95 time=0
EXTRACT: note_on channel=6 note=61 velocity=95 time=0
EXTRACT: note_off channel=9 note=69 velocity=95 time=0
EXTRACT: note_on channel=9 note=69 velocity=95 time=0
EXTRACT: note_on channel=9 note=60 velocity=95 time=0
EXTRACT: note_on channel=9 note=35 velocity=95 time=0
EXTRACT: note_off channel=2 note=73 velocity=95 time=0.24
EXTRACT: note_off channel=2 note=69 velocity=95 time=0
EXTRACT: note_off channel=2 note=66 velocity=95 time=0
EXTRACT: note_on channel=2 note=73 velocity=95 time=0
EXTRACT: note_on channel=2 note=69 velocity=95 time=0
EXTRACT: note_on channel=2 note=66 velocity=95 time=0
EXTRACT: note_on channel=4 note=61 velocity=95 time=0
EXTRACT: note_off channel=9 note=69 velocity=95 time=0
EXTRACT: note_off channel=9 note=60 velocity=95 time=0
EXTRACT: note_on channel=9 note=69 velocity=95 time=0
EXTRACT: note_off channel=2 note=73 velocity=95 time=0.24
EXTRACT: note_off channel=2 note=69 velocity=95 time=0
EXTRACT: note_off channel=2 note=66 velocity=95 time=0
EXTRACT: note_on channel=2 note=73 velocity=95 time=0
EXTRACT: note_on channel=2 note=69 velocity=95 time=0
EXTRACT: note_on channel=2 note=66 velocity=95 time=0
EXTRACT: note_off channel=4 note=61 velocity=95 time=0
EXTRACT: note_off channel=9 note=69 velocity=95 time=0
EXTRACT: note_on channel=9 note=69 velocity=95 time=0
EXTRACT: note_on channel=9 note=60 velocity=95 time=0
EXTRACT: note_off channel=9 note=35 velocity=95 time=0
EXTRACT: note_off channel=2 note=73 velocity=95 time=0.24
EXTRACT: note_off channel=2 note=69 velocity=95 time=0
EXTRACT: note_off channel=2 note=66 velocity=95 time=0
EXTRACT: note_on channel=2 note=71 velocity=95 time=0
EXTRACT: note_on channel=2 note=68 velocity=95 time=0
EXTRACT: note_on channel=2 note=64 velocity=95 time=0
EXTRACT: note_on channel=4 note=59 velocity=95 time=0
EXTRACT: note_off channel=9 note=69 velocity=95 time=0
EXTRACT: note_off channel=9 note=60 velocity=95 time=0
EXTRACT: note_on channel=9 note=69 velocity=95 time=0
EXTRACT: note_off channel=2 note=71 velocity=95 time=0.24
EXTRACT: note_off channel=2 note=68 velocity=95 time=0
EXTRACT: note_off channel=2 note=64 velocity=95 time=0
EXTRACT: note_off channel=4 note=59 velocity=95 time=0
EXTRACT: note_off channel=9 note=69 velocity=95 time=0
EXTRACT: note_on channel=9 note=69 velocity=95 time=0
EXTRACT: note_on channel=9 note=60 velocity=95 time=0
EXTRACT: note_on channel=9 note=35 velocity=95 time=0
EXTRACT: note_on channel=2 note=69 velocity=95 time=0.24
EXTRACT: note_on channel=2 note=66 velocity=95 time=0
EXTRACT: note_on channel=2 note=62 velocity=95 time=0
EXTRACT: note_on channel=4 note=57 velocity=95 time=0
EXTRACT: note_off channel=9 note=69 velocity=95 time=0
EXTRACT: note_off channel=9 note=60 velocity=95 time=0
EXTRACT: note_on channel=9 note=69 velocity=95 time=0
EXTRACT: note_off channel=4 note=57 velocity=95 time=0.24
EXTRACT: note_on channel=8 note=71 velocity=95 time=0
EXTRACT: note_off channel=9 note=69 velocity=95 time=0
EXTRACT: note_on channel=9 note=69 velocity=95 time=0
EXTRACT: note_on channel=9 note=60 velocity=95 time=0
EXTRACT: note_off channel=9 note=35 velocity=95 time=0
EXTRACT: note_off channel=2 note=69 velocity=95 time=0.24
EXTRACT: note_off channel=2 note=66 velocity=95 time=0
EXTRACT: note_off channel=2 note=62 velocity=95 time=0
EXTRACT: note_on channel=2 note=71 velocity=95 time=0
EXTRACT: note_on channel=2 note=68 velocity=95 time=0
EXTRACT: note_on channel=2 note=64 velocity=95 time=0
EXTRACT: note_off channel=8 note=71 velocity=95 time=0
EXTRACT: note_on channel=8 note=69 velocity=95 time=0
EXTRACT: note_off channel=9 note=69 velocity=95 time=0
EXTRACT: note_off channel=9 note=60 velocity=95 time=0
EXTRACT: note_on channel=9 note=69 velocity=95 time=0
EXTRACT: note_off channel=2 note=71 velocity=95 time=0.24
EXTRACT: note_off channel=2 note=68 velocity=95 time=0
EXTRACT: note_off channel=2 note=64 velocity=95 time=0
EXTRACT: note_on channel=4 note=59 velocity=95 time=0
EXTRACT: note_off channel=6 note=61 velocity=95 time=0
EXTRACT: note_off channel=9 note=69 velocity=95 time=0
EXTRACT: note_on channel=9 note=69 velocity=95 time=0
EXTRACT: note_on channel=9 note=60 velocity=95 time=0
EXTRACT: note_on channel=9 note=35 velocity=95 time=0
EXTRACT: note_on channel=2 note=71 velocity=95 time=0.24
EXTRACT: note_on channel=2 note=68 velocity=95 time=0
EXTRACT: note_on channel=2 note=65 velocity=95 time=0
EXTRACT: note_off channel=4 note=59 velocity=95 time=0
EXTRACT: note_on channel=4 note=59 velocity=95 time=0
EXTRACT: note_off channel=9 note=69 velocity=95 time=0
EXTRACT: note_off channel=9 note=60 velocity=95 time=0
EXTRACT: note_on channel=9 note=69 velocity=95 time=0
EXTRACT: note_off channel=2 note=71 velocity=95 time=0.24
EXTRACT: note_off channel=2 note=68 velocity=95 time=0
EXTRACT: note_off channel=2 note=65 velocity=95 time=0
EXTRACT: note_off channel=4 note=59 velocity=95 time=0
EXTRACT: note_off channel=9 note=69 velocity=95 time=0
EXTRACT: note_on channel=9 note=69 velocity=95 time=0
EXTRACT: note_on channel=9 note=60 velocity=95 time=0
EXTRACT: note_off channel=9 note=35 velocity=95 time=0
EXTRACT: note_on channel=2 note=69 velocity=95 time=0.24
EXTRACT: note_on channel=2 note=65 velocity=95 time=0
EXTRACT: note_on channel=2 note=62 velocity=95 time=0
EXTRACT: note_on channel=4 note=56 velocity=95 time=0
EXTRACT: note_off channel=9 note=69 velocity=95 time=0
EXTRACT: note_off channel=9 note=60 velocity=95 time=0
EXTRACT: note_on channel=9 note=69 velocity=95 time=0
EXTRACT: note_off channel=9 note=69 velocity=95 time=0.24
EXTRACT: note_on channel=9 note=69 velocity=95 time=0
EXTRACT: note_on channel=9 note=60 velocity=95 time=0
EXTRACT: note_on channel=9 note=35 velocity=95 time=0
EXTRACT: note_off channel=9 note=69 velocity=95 time=0.24
EXTRACT: note_off channel=9 note=60 velocity=95 time=0
EXTRACT: note_on channel=9 note=69 velocity=95 time=0
EXTRACT: note_off channel=4 note=56 velocity=95 time=0.24
EXTRACT: note_on channel=11 note=72 velocity=95 time=0
EXTRACT: note_off channel=9 note=69 velocity=95 time=0
EXTRACT: note_on channel=9 note=69 velocity=95 time=0
EXTRACT: note_on channel=9 note=60 velocity=95 time=0
EXTRACT: note_off channel=9 note=35 velocity=95 time=0
EXTRACT: note_on channel=9 note=38 velocity=95 time=0
EXTRACT: note_off channel=11 note=72 velocity=95 time=0.12
EXTRACT: note_on channel=11 note=72 velocity=95 time=0
EXTRACT: note_off channel=9 note=38 velocity=95 time=0
EXTRACT: note_on channel=9 note=38 velocity=95 time=0
EXTRACT: note_off channel=11 note=72 velocity=95 time=0.12
EXTRACT: note_on channel=11 note=71 velocity=95 time=0
EXTRACT: note_off channel=9 note=69 velocity=95 time=0
EXTRACT: note_off channel=9 note=60 velocity=95 time=0
EXTRACT: note_on channel=9 note=69 velocity=95 time=0
EXTRACT: note_off channel=9 note=38 velocity=95 time=0
EXTRACT: note_on channel=9 note=38 velocity=95 time=0
EXTRACT: note_off channel=11 note=71 velocity=95 time=0.12
EXTRACT: note_on channel=11 note=69 velocity=95 time=0
EXTRACT: note_off channel=9 note=38 velocity=95 time=0
EXTRACT: note_on channel=9 note=38 velocity=95 time=0
EXTRACT: note_off channel=2 note=69 velocity=95 time=0.12
EXTRACT: note_off channel=2 note=65 velocity=95 time=0
EXTRACT: note_off channel=2 note=62 velocity=95 time=0
EXTRACT: note_on channel=2 note=69 velocity=95 time=0
EXTRACT: note_on channel=2 note=67 velocity=95 time=0
EXTRACT: note_on channel=2 note=62 velocity=95 time=0
EXTRACT: note_on channel=2 note=59 velocity=95 time=0
EXTRACT: note_off channel=11 note=69 velocity=95 time=0
EXTRACT: note_on channel=11 note=71 velocity=95 time=0
EXTRACT: note_on channel=13 note=33 velocity=95 time=0
EXTRACT: note_off channel=9 note=69 velocity=95 time=0
EXTRACT: note_on channel=9 note=69 velocity=95 time=0
EXTRACT: note_on channel=9 note=60 velocity=95 time=0
EXTRACT: note_off channel=9 note=38 velocity=95 time=0
EXTRACT: note_on channel=9 note=57 velocity=95 time=0
EXTRACT: note_on channel=9 note=35 velocity=95 time=0
EXTRACT: note_off channel=11 note=71 velocity=95 time=0.12
EXTRACT: note_on channel=11 note=69 velocity=95 time=0
EXTRACT: note_off channel=13 note=33 velocity=95 time=0
EXTRACT: note_on channel=4 note=45 velocity=95 time=0.12
EXTRACT: note_on channel=13 note=33 velocity=95 time=0
EXTRACT: note_off channel=9 note=69 velocity=95 time=0
EXTRACT: note_off channel=9 note=60 velocity=95 time=0
EXTRACT: note_on channel=9 note=69 velocity=95 time=0
EXTRACT: note_off channel=9 note=57 velocity=95 time=0
EXTRACT: note_off channel=9 note=35 velocity=95 time=0
EXTRACT: note_on channel=9 note=51 velocity=95 time=0
EXTRACT: note_on channel=10 note=84 velocity=95 time=0.24
EXTRACT: note_off channel=13 note=33 velocity=95 time=0
EXTRACT: note_on channel=13 note=55 velocity=95 time=0
EXTRACT: note_off channel=9 note=69 velocity=95 time=0
EXTRACT: note_on channel=9 note=69 velocity=95 time=0
EXTRACT: note_on channel=9 note=60 velocity=95 time=0
EXTRACT: note_off channel=9 note=51 velocity=95 time=0
EXTRACT: note_on channel=9 note=51 velocity=95 time=0
EXTRACT: note_on channel=9 note=38 velocity=95 time=0
EXTRACT: note_off channel=10 note=84 velocity=95 time=0.12
EXTRACT: note_on channel=10 note=84 velocity=95 time=0
EXTRACT: note_off channel=10 note=84 velocity=95 time=0.12
EXTRACT: note_on channel=10 note=83 velocity=95 time=0
EXTRACT: note_off channel=13 note=55 velocity=95 time=0
EXTRACT: note_on channel=13 note=57 velocity=95 time=0
EXTRACT: note_off channel=9 note=69 velocity=95 time=0
EXTRACT: note_off channel=9 note=60 velocity=95 time=0
EXTRACT: note_on channel=9 note=69 velocity=95 time=0
EXTRACT: note_off channel=9 note=51 velocity=95 time=0
EXTRACT: note_off channel=9 note=38 velocity=95 time=0
EXTRACT: note_on channel=9 note=51 velocity=95 time=0
EXTRACT: note_off channel=10 note=83 velocity=95 time=0.12
EXTRACT: note_on channel=10 note=81 velocity=95 time=0
EXTRACT: note_off channel=4 note=45 velocity=95 time=0.12
EXTRACT: note_off channel=10 note=81 velocity=95 time=0
EXTRACT: note_on channel=10 note=83 velocity=95 time=0
EXTRACT: note_off channel=13 note=57 velocity=95 time=0
EXTRACT: note_on channel=13 note=33 velocity=95 time=0
EXTRACT: note_off channel=9 note=69 velocity=95 time=0
EXTRACT: note_on channel=9 note=69 velocity=95 time=0
EXTRACT: note_on channel=9 note=60 velocity=95 time=0
EXTRACT: note_off channel=9 note=51 velocity=95 time=0
EXTRACT: note_on channel=9 note=51 velocity=95 time=0
EXTRACT: note_on channel=9 note=35 velocity=95 time=0
EXTRACT: note_off channel=10 note=83 velocity=95 time=0.12
EXTRACT: note_on channel=10 note=81 velocity=95 time=0
EXTRACT: note_off channel=13 note=33 velocity=95 time=0
EXTRACT: note_on channel=4 note=66 velocity=95 time=0.12
EXTRACT: note_on channel=4 note=62 velocity=95 time=0
EXTRACT: note_off channel=11 note=69 velocity=95 time=0
EXTRACT: note_on channel=13 note=33 velocity=95 time=0
EXTRACT: note_off channel=9 note=69 velocity=95 time=0
EXTRACT: note_off channel=9 note=60 velocity=95 time=0
EXTRACT: note_on channel=9 note=69 velocity=95 time=0
EXTRACT: note_off channel=9 note=51 velocity=95 time=0
EXTRACT: note_off channel=9 note=35 velocity=95 time=0
EXTRACT: note_on channel=9 note=51 velocity=95 time=0
EXTRACT: note_on channel=11 note=72 velocity=95 time=0.24
EXTRACT: note_off channel=13 note=33 velocity=95 time=0
EXTRACT: note_on channel=13 note=55 velocity=95 time=0
EXTRACT: note_off channel=9 note=69 velocity=95 time=0
EXTRACT: note_on channel=9 note=69 velocity=95 time=0
EXTRACT: note_on channel=9 note=60 velocity=95 time=0
EXTRACT: note_off channel=9 note=51 velocity=95 time=0
EXTRACT: note_on channel=9 note=51 velocity=95 time=0
EXTRACT: note_on channel=9 note=38 velocity=95 time=0
EXTRACT: note_off channel=4 note=66 velocity=95 time=0.12
EXTRACT: note_off channel=4 note=62 velocity=95 time=0
EXTRACT: note_on channel=4 note=67 velocity=95 time=0
EXTRACT: note_on channel=4 note=62 velocity=95 time=0
EXTRACT: note_off channel=11 note=72 velocity=95 time=0
EXTRACT: note_on channel=11 note=72 velocity=95 time=0
EXTRACT: note_off channel=11 note=72 velocity=95 time=0.12
EXTRACT: note_on channel=11 note=71 velocity=95 time=0
EXTRACT: note_off channel=13 note=55 velocity=95 time=0
EXTRACT: note_on channel=13 note=57 velocity=95 time=0
EXTRACT: note_off channel=9 note=69 velocity=95 time=0
EXTRACT: note_off channel=9 note=60 velocity=95 time=0
EXTRACT: note_on channel=9 note=69 velocity=95 time=0
EXTRACT: note_off channel=9 note=51 velocity=95 time=0
EXTRACT: note_off channel=9 note=38 velocity=95 time=0
EXTRACT: note_on channel=9 note=51 velocity=95 time=0
EXTRACT: note_off channel=11 note=71 velocity=95 time=0.12
EXTRACT: note_on channel=11 note=69 velocity=95 time=0
EXTRACT: note_off channel=2 note=69 velocity=95 time=0.12
EXTRACT: note_off channel=2 note=67 velocity=95 time=0
EXTRACT: note_off channel=2 note=62 velocity=95 time=0
EXTRACT: note_off channel=2 note=59 velocity=95 time=0
EXTRACT: note_on channel=2 note=69 velocity=95 time=0
EXTRACT: note_on channel=2 note=67 velocity=95 time=0
EXTRACT: note_on channel=2 note=62 velocity=95 time=0
EXTRACT: note_on channel=2 note=59 velocity=95 time=0
EXTRACT: note_off channel=4 note=67 velocity=95 time=0
EXTRACT: note_off channel=4 note=62 velocity=95 time=0
EXTRACT: note_on channel=4 note=69 velocity=95 time=0
EXTRACT: note_on channel=4 note=64 velocity=95 time=0
EXTRACT: note_off channel=11 note=69 velocity=95 time=0
EXTRACT: note_on channel=11 note=71 velocity=95 time=0
EXTRACT: note_off channel=13 note=57 velocity=95 time=0
EXTRACT: note_on channel=13 note=33 velocity=95 time=0
EXTRACT: note_off channel=9 note=69 velocity=95 time=0
EXTRACT: note_on channel=9 note=69 velocity=95 time=0
EXTRACT: note_on channel=9 note=60 velocity=95 time=0
EXTRACT: note_off channel=9 note=51 velocity=95 time=0
EXTRACT: note_on channel=9 note=51 velocity=95 time=0
EXTRACT: note_on channel=9 note=35 velocity=95 time=0
EXTRACT: note_off channel=11 note=71 velocity=95 time=0.12
EXTRACT: note_on channel=11 note=69 velocity=95 time=0
EXTRACT: note_off channel=13 note=33 velocity=95 time=0
EXTRACT: note_on channel=13 note=33 velocity=95 time=0.12
EXTRACT: note_off channel=9 note=69 velocity=95 time=0
EXTRACT: note_off channel=9 note=60 velocity=95 time=0
EXTRACT: note_on channel=9 note=69 velocity=95 time=0
EXTRACT: note_off channel=9 note=51 velocity=95 time=0
EXTRACT: note_off channel=9 note=35 velocity=95 time=0
EXTRACT: note_on channel=9 note=51 velocity=95 time=0
EXTRACT: note_off channel=13 note=33 velocity=95 time=0.24
EXTRACT: note_on channel=13 note=55 velocity=95 time=0
EXTRACT: note_off channel=9 note=69 velocity=95 time=0
EXTRACT: note_on channel=9 note=69 velocity=95 time=0
EXTRACT: note_on channel=9 note=60 velocity=95 time=0
EXTRACT: note_off channel=9 note=51 velocity=95 time=0
EXTRACT: note_on channel=9 note=51 velocity=95 time=0
EXTRACT: note_on channel=9 note=38 velocity=95 time=0
EXTRACT: note_off channel=13 note=55 velocity=95 time=0.24
EXTRACT: note_on channel=13 note=57 velocity=95 time=0
EXTRACT: note_off channel=9 note=69 velocity=95 time=0
EXTRACT: note_off channel=9 note=60 velocity=95 time=0
EXTRACT: note_on channel=9 note=69 velocity=95 time=0
EXTRACT: note_off channel=9 note=51 velocity=95 time=0
EXTRACT: note_off channel=9 note=38 velocity=95 time=0
EXTRACT: note_on channel=9 note=51 velocity=95 time=0
EXTRACT: note_off channel=13 note=57 velocity=95 time=0.24
EXTRACT: note_on channel=13 note=33 velocity=95 time=0
EXTRACT: note_off channel=9 note=69 velocity=95 time=0
EXTRACT: note_on channel=9 note=69 velocity=95 time=0
EXTRACT: note_on channel=9 note=60 velocity=95 time=0
EXTRACT: note_off channel=9 note=51 velocity=95 time=0
EXTRACT: note_on channel=9 note=51 velocity=95 time=0
EXTRACT: note_on channel=9 note=35 velocity=95 time=0
EXTRACT: note_off channel=13 note=33 velocity=95 time=0.12
EXTRACT: note_off channel=4 note=69 velocity=95 time=0.12
EXTRACT: note_off channel=4 note=64 velocity=95 time=0
EXTRACT: note_on channel=4 note=71 velocity=95 time=0
EXTRACT: note_on channel=4 note=66 velocity=95 time=0
EXTRACT: note_on channel=13 note=33 velocity=95 time=0
EXTRACT: note_off channel=9 note=69 velocity=95 time=0
EXTRACT: note_off channel=9 note=60 velocity=95 time=0
EXTRACT: note_on channel=9 note=69 velocity=95 time=0
EXTRACT: note_off channel=9 note=51 velocity=95 time=0
EXTRACT: note_off channel=9 note=35 velocity=95 time=0
EXTRACT: note_on channel=9 note=51 velocity=95 time=0
EXTRACT: note_off channel=13 note=33 velocity=95 time=0.24
EXTRACT: note_off channel=9 note=69 velocity=95 time=0
EXTRACT: note_on channel=9 note=69 velocity=95 time=0
EXTRACT: note_on channel=9 note=60 velocity=95 time=0
EXTRACT: note_off channel=9 note=51 velocity=95 time=0
EXTRACT: note_on channel=9 note=51 velocity=95 time=0
EXTRACT: note_on channel=9 note=38 velocity=95 time=0
EXTRACT: note_off channel=4 note=71 velocity=95 time=0.12
EXTRACT: note_off channel=4 note=66 velocity=95 time=0
EXTRACT: note_on channel=4 note=67 velocity=95 time=0
EXTRACT: note_on channel=4 note=62 velocity=95 time=0
EXTRACT: note_on channel=13 note=55 velocity=95 time=0
EXTRACT: note_off channel=11 note=69 velocity=95 time=0.12
EXTRACT: note_on channel=11 note=71 velocity=95 time=0
EXTRACT: note_on channel=11 note=67 velocity=95 time=0
EXTRACT: note_off channel=10 note=81 velocity=95 time=0
EXTRACT: note_on channel=10 note=81 velocity=95 time=0
EXTRACT: note_on channel=10 note=78 velocity=95 time=0
EXTRACT: note_on channel=10 note=74 velocity=95 time=0
EXTRACT: note_off channel=13 note=55 velocity=95 time=0
EXTRACT: note_off channel=9 note=69 velocity=95 time=0
EXTRACT: note_off channel=9 note=60 velocity=95 time=0
EXTRACT: note_on channel=9 note=69 velocity=95 time=0
EXTRACT: note_off channel=9 note=51 velocity=95 time=0
EXTRACT: note_off channel=9 note=38 velocity=95 time=0
EXTRACT: note_on channel=9 note=51 velocity=95 time=0
EXTRACT: note_on channel=13 note=57 velocity=95 time=0.12
EXTRACT: note_off channel=2 note=69 velocity=95 time=0.12
EXTRACT: note_off channel=2 note=67 velocity=95 time=0
EXTRACT: note_off channel=2 note=62 velocity=95 time=0
EXTRACT: note_off channel=2 note=59 velocity=95 time=0
EXTRACT: note_on channel=2 note=69 velocity=95 time=0
EXTRACT: note_on channel=2 note=67 velocity=95 time=0
EXTRACT: note_on channel=2 note=62 velocity=95 time=0
EXTRACT: note_on channel=2 note=59 velocity=95 time=0
EXTRACT: note_off channel=4 note=67 velocity=95 time=0
EXTRACT: note_off channel=4 note=62 velocity=95 time=0
EXTRACT: note_on channel=4 note=69 velocity=95 time=0
EXTRACT: note_on channel=4 note=64 velocity=95 time=0
EXTRACT: note_off channel=13 note=57 velocity=95 time=0
EXTRACT: note_on channel=13 note=33 velocity=95 time=0
EXTRACT: note_off channel=9 note=69 velocity=95 time=0
EXTRACT: note_on channel=9 note=69 velocity=95 time=0
EXTRACT: note_on channel=9 note=60 velocity=95 time=0
EXTRACT: note_off channel=9 note=51 velocity=95 time=0
EXTRACT: note_on channel=9 note=57 velocity=95 time=0
EXTRACT: note_on channel=9 note=35 velocity=95 time=0
EXTRACT: note_off channel=13 note=33 velocity=95 time=0.12
EXTRACT: note_on channel=13 note=33 velocity=95 time=0.12
EXTRACT: note_off channel=9 note=69 velocity=95 time=0
EXTRACT: note_off channel=9 note=60 velocity=95 time=0
EXTRACT: note_on channel=9 note=69 velocity=95 time=0
EXTRACT: note_off channel=9 note=57 velocity=95 time=0
EXTRACT: note_off channel=9 note=35 velocity=95 time=0
EXTRACT: note_on channel=9 note=51 velocity=95 time=0
EXTRACT: note_off channel=4 note=69 velocity=95 time=0.24
EXTRACT: note_off channel=4 note=64 velocity=95 time=0
EXTRACT: note_on channel=4 note=69 velocity=95 time=0
EXTRACT: note_on channel=4 note=64 velocity=95 time=0
EXTRACT: note_off channel=13 note=33 velocity=95 time=0
EXTRACT: note_on channel=13 note=55 velocity=95 time=0
EXTRACT: note_off channel=9 note=69 velocity=95 time=0
EXTRACT: note_on channel=9 note=69 velocity=95 time=0
EXTRACT: note_on channel=9 note=60 velocity=95 time=0
EXTRACT: note_off channel=9 note=51 velocity=95 time=0
EXTRACT: note_on channel=9 note=51 velocity=95 time=0
EXTRACT: note_on channel=9 note=38 velocity=95 time=0
EXTRACT: note_off channel=13 note=55 velocity=95 time=0.24
EXTRACT: note_on channel=13 note=57 velocity=95 time=0
EXTRACT: note_off channel=9 note=69 velocity=95 time=0
EXTRACT: note_off channel=9 note=60 velocity=95 time=0
EXTRACT: note_on channel=9 note=69 velocity=95 time=0
EXTRACT: note_off channel=9 note=51 velocity=95 time=0
EXTRACT: note_off channel=9 note=38 velocity=95 time=0
EXTRACT: note_on channel=9 note=51 velocity=95 time=0
EXTRACT: note_off channel=13 note=57 velocity=95 time=0.24
EXTRACT: note_on channel=13 note=33 velocity=95 time=0
EXTRACT: note_off channel=9 note=69 velocity=95 time=0
EXTRACT: note_on channel=9 note=69 velocity=95 time=0
EXTRACT: note_on channel=9 note=60 velocity=95 time=0
EXTRACT: note_off channel=9 note=51 velocity=95 time=0
EXTRACT: note_on channel=9 note=51 velocity=95 time=0
EXTRACT: note_on channel=9 note=35 velocity=95 time=0
EXTRACT: note_off channel=13 note=33 velocity=95 time=0.12
EXTRACT: note_off channel=4 note=69 velocity=95 time=0.12
EXTRACT: note_off channel=4 note=64 velocity=95 time=0
EXTRACT: note_on channel=4 note=66 velocity=95 time=0
EXTRACT: note_on channel=4 note=62 velocity=95 time=0
EXTRACT: note_on channel=13 note=33 velocity=95 time=0
EXTRACT: note_off channel=9 note=69 velocity=95 time=0
EXTRACT: note_off channel=9 note=60 velocity=95 time=0
EXTRACT: note_on channel=9 note=69 velocity=95 time=0
EXTRACT: note_off channel=9 note=51 velocity=95 time=0
EXTRACT: note_off channel=9 note=35 velocity=95 time=0
EXTRACT: note_on channel=9 note=51 velocity=95 time=0
EXTRACT: note_off channel=13 note=33 velocity=95 time=0.24
EXTRACT: note_on channel=13 note=55 velocity=95 time=0
EXTRACT: note_off channel=9 note=69 velocity=95 time=0
EXTRACT: note_on channel=9 note=69 velocity=95 time=0
EXTRACT: note_on channel=9 note=60 velocity=95 time=0
EXTRACT: note_off channel=9 note=51 velocity=95 time=0
EXTRACT: note_on channel=9 note=51 velocity=95 time=0
EXTRACT: note_on channel=9 note=38 velocity=95 time=0
EXTRACT: note_off channel=4 note=66 velocity=95 time=0.12
EXTRACT: note_off channel=4 note=62 velocity=95 time=0
EXTRACT: note_on channel=4 note=67 velocity=95 time=0
EXTRACT: note_on channel=4 note=62 velocity=95 time=0
EXTRACT: note_off channel=13 note=55 velocity=95 time=0.12
EXTRACT: note_on channel=13 note=57 velocity=95 time=0
EXTRACT: note_off channel=9 note=69 velocity=95 time=0
EXTRACT: note_off channel=9 note=60 velocity=95 time=0
EXTRACT: note_on channel=9 note=69 velocity=95 time=0
EXTRACT: note_off channel=9 note=51 velocity=95 time=0
EXTRACT: note_off channel=9 note=38 velocity=95 time=0
EXTRACT: note_on channel=9 note=51 velocity=95 time=0
EXTRACT: note_off channel=2 note=69 velocity=95 time=0.24
EXTRACT: note_off channel=2 note=67 velocity=95 time=0
EXTRACT: note_off channel=2 note=62 velocity=95 time=0
EXTRACT: note_off channel=2 note=59 velocity=95 time=0
EXTRACT: note_on channel=2 note=69 velocity=95 time=0
EXTRACT: note_on channel=2 note=67 velocity=95 time=0
EXTRACT: note_on channel=2 note=62 velocity=95 time=0
EXTRACT: note_on channel=2 note=59 velocity=95 time=0
EXTRACT: note_off channel=4 note=67 velocity=95 time=0
EXTRACT: note_off channel=4 note=62 velocity=95 time=0
EXTRACT: note_on channel=4 note=69 velocity=95 time=0
EXTRACT: note_on channel=4 note=64 velocity=95 time=0
EXTRACT: note_off channel=13 note=57 velocity=95 time=0
EXTRACT: note_on channel=13 note=33 velocity=95 time=0
EXTRACT: note_off channel=9 note=69 velocity=95 time=0
EXTRACT: note_off channel=9 note=51 velocity=95 time=0
EXTRACT: note_on channel=9 note=57 velocity=95 time=0
EXTRACT: note_on channel=9 note=35 velocity=95 time=0
EXTRACT: note_off channel=13 note=33 velocity=95 time=0.12
EXTRACT: note_on channel=13 note=33 velocity=95 time=0.12
EXTRACT: note_off channel=9 note=57 velocity=95 time=0
EXTRACT: note_off channel=9 note=35 velocity=95 time=0
EXTRACT: note_on channel=9 note=51 velocity=95 time=0
EXTRACT: note_off channel=4 note=69 velocity=95 time=0.24
EXTRACT: note_off channel=4 note=64 velocity=95 time=0
EXTRACT: note_on channel=4 note=69 velocity=95 time=0
EXTRACT: note_on channel=4 note=64 velocity=95 time=0
EXTRACT: note_off channel=13 note=33 velocity=95 time=0
EXTRACT: note_on channel=13 note=55 velocity=95 time=0
EXTRACT: note_off channel=9 note=51 velocity=95 time=0
EXTRACT: note_on channel=9 note=51 velocity=95 time=0
EXTRACT: note_on channel=9 note=38 velocity=95 time=0
EXTRACT: note_off channel=13 note=55 velocity=95 time=0.24
EXTRACT: note_on channel=13 note=57 velocity=95 time=0
EXTRACT: note_off channel=9 note=51 velocity=95 time=0
EXTRACT: note_off channel=9 note=38 velocity=95 time=0
EXTRACT: note_on channel=9 note=51 velocity=95 time=0
EXTRACT: note_off channel=2 note=69 velocity=95 time=0.24
EXTRACT: note_off channel=2 note=67 velocity=95 time=0
EXTRACT: note_off channel=2 note=62 velocity=95 time=0
EXTRACT: note_off channel=2 note=59 velocity=95 time=0
EXTRACT: note_on channel=2 note=69 velocity=95 time=0
EXTRACT: note_on channel=2 note=67 velocity=95 time=0
EXTRACT: note_on channel=2 note=62 velocity=95 time=0
EXTRACT: note_on channel=2 note=59 velocity=95 time=0
EXTRACT: note_off channel=4 note=69 velocity=95 time=0
EXTRACT: note_off channel=4 note=64 velocity=95 time=0
EXTRACT: note_on channel=4 note=69 velocity=95 time=0
EXTRACT: note_on channel=4 note=64 velocity=95 time=0
EXTRACT: note_off channel=13 note=57 velocity=95 time=0
EXTRACT: note_on channel=13 note=33 velocity=95 time=0
EXTRACT: note_off channel=9 note=51 velocity=95 time=0
EXTRACT: note_on channel=9 note=38 velocity=95 time=0
EXTRACT: note_on channel=0 note=54 velocity=95 time=0.24
EXTRACT: note_off channel=2 note=69 velocity=95 time=0
EXTRACT: note_off channel=2 note=67 velocity=95 time=0
EXTRACT: note_off channel=2 note=62 velocity=95 time=0
EXTRACT: note_off channel=2 note=59 velocity=95 time=0
EXTRACT: note_off channel=4 note=69 velocity=95 time=0
EXTRACT: note_off channel=4 note=64 velocity=95 time=0
EXTRACT: note_off channel=11 note=71 velocity=95 time=0
EXTRACT: note_off channel=11 note=67 velocity=95 time=0
EXTRACT: note_off channel=10 note=81 velocity=95 time=0
EXTRACT: note_off channel=10 note=78 velocity=95 time=0
EXTRACT: note_off channel=10 note=74 velocity=95 time=0
EXTRACT: note_off channel=0 note=54 velocity=95 time=0.24
EXTRACT: note_on channel=0 note=57 velocity=95 time=0
EXTRACT: note_off channel=8 note=69 velocity=95 time=0
EXTRACT: note_off channel=13 note=33 velocity=95 time=0
EXTRACT: note_off channel=9 note=38 velocity=95 time=0
EXTRACT: note_on channel=9 note=44 velocity=95 time=0
EXTRACT: note_off channel=0 note=57 velocity=95 time=0.24
EXTRACT: note_on channel=0 note=59 velocity=95 time=0
EXTRACT: note_off channel=0 note=59 velocity=95 time=0.24
EXTRACT: note_on channel=0 note=61 velocity=95 time=0
EXTRACT: note_on channel=2 note=73 velocity=95 time=0
EXTRACT: note_on channel=2 note=69 velocity=95 time=0
EXTRACT: note_on channel=2 note=66 velocity=95 time=0
EXTRACT: note_on channel=13 note=38 velocity=95 time=0
EXTRACT: note_on channel=9 note=60 velocity=95 time=0
EXTRACT: note_off channel=9 note=44 velocity=95 time=0
EXTRACT: note_on channel=9 note=51 velocity=95 time=0
EXTRACT: note_on channel=9 note=35 velocity=95 time=0
EXTRACT: note_off channel=0 note=61 velocity=95 time=0.24
EXTRACT: note_on channel=0 note=61 velocity=95 time=0
EXTRACT: note_off channel=2 note=73 velocity=95 time=0
EXTRACT: note_off channel=2 note=69 velocity=95 time=0
EXTRACT: note_off channel=2 note=66 velocity=95 time=0
EXTRACT: note_on channel=2 note=73 velocity=95 time=0
EXTRACT: note_on channel=2 note=69 velocity=95 time=0
EXTRACT: note_on channel=2 note=66 velocity=95 time=0
EXTRACT: note_on channel=4 note=61 velocity=95 time=0
EXTRACT: note_off channel=13 note=38 velocity=95 time=0
EXTRACT: note_on channel=13 note=38 velocity=95 time=0
EXTRACT: note_off channel=9 note=60 velocity=95 time=0
EXTRACT: note_on channel=9 note=60 velocity=95 time=0
EXTRACT: note_off channel=9 note=51 velocity=95 time=0
EXTRACT: note_off channel=9 note=35 velocity=95 time=0
EXTRACT: note_on channel=9 note=51 velocity=95 time=0
EXTRACT: note_off channel=0 note=61 velocity=95 time=0.24
EXTRACT: note_off channel=2 note=73 velocity=95 time=0
EXTRACT: note_off channel=2 note=69 velocity=95 time=0
EXTRACT: note_off channel=2 note=66 velocity=95 time=0
EXTRACT: note_on channel=2 note=73 velocity=95 time=0
EXTRACT: note_on channel=2 note=69 velocity=95 time=0
EXTRACT: note_on channel=2 note=66 velocity=95 time=0
EXTRACT: note_off channel=4 note=61 velocity=95 time=0
EXTRACT: note_off channel=13 note=38 velocity=95 time=0
EXTRACT: note_off channel=9 note=60 velocity=95 time=0
EXTRACT: note_on channel=9 note=61 velocity=95 time=0
EXTRACT: note_off channel=9 note=51 velocity=95 time=0
EXTRACT: note_on channel=9 note=51 velocity=95 time=0
EXTRACT: note_on channel=9 note=38 velocity=95 time=0
EXTRACT: note_on channel=9 note=35 velocity=95 time=0
EXTRACT: note_off channel=2 note=73 velocity=95 time=0.24
EXTRACT: note_off channel=2 note=69 velocity=95 time=0
EXTRACT: note_off channel=2 note=66 velocity=95 time=0
EXTRACT: note_on channel=2 note=71 velocity=95 time=0
EXTRACT: note_on channel=2 note=68 velocity=95 time=0
EXTRACT: note_on channel=2 note=64 velocity=95 time=0
EXTRACT: note_on channel=4 note=59 velocity=95 time=0
EXTRACT: note_on channel=13 note=37 velocity=95 time=0
EXTRACT: note_off channel=9 note=61 velocity=95 time=0
EXTRACT: note_on channel=9 note=60 velocity=95 time=0
EXTRACT: note_off channel=9 note=51 velocity=95 time=0
EXTRACT: note_off channel=9 note=38 velocity=95 time=0
EXTRACT: note_off channel=9 note=35 velocity=95 time=0
EXTRACT: note_on channel=9 note=51 velocity=95 time=0
EXTRACT: note_off channel=2 note=71 velocity=95 time=0.24
EXTRACT: note_off channel=2 note=68 velocity=95 time=0
EXTRACT: note_off channel=2 note=64 velocity=95 time=0
EXTRACT: note_off channel=4 note=59 velocity=95 time=0
EXTRACT: note_off channel=13 note=37 velocity=95 time=0
EXTRACT: note_off channel=9 note=60 velocity=95 time=0
EXTRACT: note_on channel=9 note=60 velocity=95 time=0
EXTRACT: note_off channel=9 note=51 velocity=95 time=0
EXTRACT: note_on channel=9 note=51 velocity=95 time=0
EXTRACT: note_on channel=9 note=35 velocity=95 time=0
EXTRACT: note_on channel=2 note=69 velocity=95 time=0.24
EXTRACT: note_on channel=2 note=66 velocity=95 time=0
EXTRACT: note_on channel=2 note=62 velocity=95 time=0
EXTRACT: note_on channel=4 note=57 velocity=95 time=0
EXTRACT: note_on channel=13 note=35 velocity=95 time=0
EXTRACT: note_off channel=9 note=60 velocity=95 time=0
EXTRACT: note_on channel=9 note=60 velocity=95 time=0
EXTRACT: note_off channel=9 note=51 velocity=95 time=0
EXTRACT: note_off channel=9 note=35 velocity=95 time=0
EXTRACT: note_on channel=9 note=51 velocity=95 time=0
EXTRACT: note_off channel=4 note=57 velocity=95 time=0.24
EXTRACT: note_off channel=13 note=35 velocity=95 time=0
EXTRACT: note_off channel=9 note=60 velocity=95 time=0
EXTRACT: note_on channel=9 note=60 velocity=95 time=0
EXTRACT: note_off channel=9 note=51 velocity=95 time=0
EXTRACT: note_on channel=9 note=51 velocity=95 time=0
EXTRACT: note_on channel=9 note=38 velocity=95 time=0
EXTRACT: note_on channel=9 note=35 velocity=95 time=0
EXTRACT: note_on channel=0 note=61 velocity=95 time=0.24
EXTRACT: note_off channel=2 note=69 velocity=95 time=0
EXTRACT: note_off channel=2 note=66 velocity=95 time=0
EXTRACT: note_off channel=2 note=62 velocity=95 time=0
EXTRACT: note_on channel=2 note=71 velocity=95 time=0
EXTRACT: note_on channel=2 note=68 velocity=95 time=0
EXTRACT: note_on channel=2 note=64 velocity=95 time=0
EXTRACT: note_on channel=4 note=45 velocity=95 time=0
EXTRACT: note_on channel=13 note=36 velocity=95 time=0
EXTRACT: note_off channel=9 note=60 velocity=95 time=0
EXTRACT: note_on channel=9 note=61 velocity=95 time=0
EXTRACT: note_off channel=9 note=51 velocity=95 time=0
EXTRACT: note_off channel=9 note=38 velocity=95 time=0
EXTRACT: note_off channel=9 note=35 velocity=95 time=0
EXTRACT: note_on channel=9 note=51 velocity=95 time=0
EXTRACT: note_off channel=4 note=45 velocity=95 time=0.031
EXTRACT: note_off channel=0 note=61 velocity=95 time=0.209
EXTRACT: note_on channel=0 note=61 velocity=95 time=0
EXTRACT: note_on channel=5 note=59 velocity=95 time=0
EXTRACT: note_off channel=13 note=36 velocity=95 time=0
EXTRACT: note_on channel=13 note=37 velocity=95 time=0
EXTRACT: note_off channel=9 note=61 velocity=95 time=0
EXTRACT: note_on channel=9 note=60 velocity=95 time=0
EXTRACT: note_off channel=9 note=51 velocity=95 time=0
EXTRACT: note_on channel=9 note=51 velocity=95 time=0
EXTRACT: note_on channel=9 note=35 velocity=95 time=0
EXTRACT: pitchwheel channel=5 pitch=0 time=0.06
EXTRACT: pitchwheel channel=5 pitch=0 time=0.06
EXTRACT: pitchwheel channel=5 pitch=0 time=0.06
EXTRACT: note_off channel=0 note=61 velocity=95 time=0.06
EXTRACT: note_on channel=0 note=64 velocity=95 time=0
EXTRACT: pitchwheel channel=5 pitch=0 time=0
EXTRACT: pitchwheel channel=5 pitch=0 time=0
EXTRACT: note_off channel=5 note=59 velocity=95 time=0
EXTRACT: note_on channel=4 note=59 velocity=95 time=0
EXTRACT: note_off channel=13 note=37 velocity=95 time=0
EXTRACT: note_on channel=13 note=32 velocity=95 time=0
EXTRACT: note_off channel=9 note=60 velocity=95 time=0
EXTRACT: note_on channel=9 note=60 velocity=95 time=0
EXTRACT: note_off channel=9 note=51 velocity=95 time=0
EXTRACT: note_off channel=9 note=35 velocity=95 time=0
EXTRACT: note_on channel=9 note=51 velocity=95 time=0
EXTRACT: note_off channel=0 note=64 velocity=95 time=0.24
EXTRACT: note_on channel=0 note=66 velocity=95 time=0
EXTRACT: note_off channel=4 note=59 velocity=95 time=0
EXTRACT: note_on channel=4 note=59 velocity=95 time=0
EXTRACT: note_off channel=13 note=32 velocity=95 time=0
EXTRACT: note_on channel=13 note=28 velocity=95 time=0
EXTRACT: note_off channel=9 note=60 velocity=95 time=0
EXTRACT: note_on channel=9 note=61 velocity=95 time=0
EXTRACT: note_off channel=9 note=51 velocity=95 time=0
EXTRACT: note_on channel=9 note=51 velocity=95 time=0
EXTRACT: note_on channel=9 note=38 velocity=95 time=0
EXTRACT: note_on channel=9 note=35 velocity=95 time=0
EXTRACT: note_off channel=0 note=66 velocity=95 time=0.24
EXTRACT: note_on channel=0 note=59 velocity=95 time=0
EXTRACT: note_off channel=2 note=71 velocity=95 time=0
EXTRACT: note_off channel=2 note=68 velocity=95 time=0
EXTRACT: note_off channel=2 note=64 velocity=95 time=0
EXTRACT: note_on channel=2 note=69 velocity=95 time=0
EXTRACT: note_on channel=2 note=64 velocity=95 time=0
EXTRACT: note_on channel=2 note=61 velocity=95 time=0
EXTRACT: note_off channel=4 note=59 velocity=95 time=0
EXTRACT: note_on channel=4 note=56 velocity=95 time=0
EXTRACT: note_off channel=13 note=28 velocity=95 time=0
EXTRACT: note_off channel=9 note=61 velocity=95 time=0
EXTRACT: note_on channel=9 note=60 velocity=95 time=0
EXTRACT: note_off channel=9 note=51 velocity=95 time=0
EXTRACT: note_off channel=9 note=38 velocity=95 time=0
EXTRACT: note_off channel=9 note=35 velocity=95 time=0
EXTRACT: note_on channel=9 note=51 velocity=95 time=0
EXTRACT: note_off channel=0 note=59 velocity=95 time=0.24
EXTRACT: note_on channel=0 note=57 velocity=70 time=0
EXTRACT: note_on channel=13 note=30 velocity=95 time=0
EXTRACT: note_off channel=9 note=60 velocity=95 time=0
EXTRACT: note_on channel=9 note=60 velocity=95 time=0
EXTRACT: note_off channel=9 note=51 velocity=95 time=0
EXTRACT: note_on channel=9 note=51 velocity=95 time=0
EXTRACT: note_on channel=9 note=35 velocity=95 time=0
EXTRACT: note_off channel=0 note=57 velocity=70 time=0.24
EXTRACT: note_on channel=0 note=57 velocity=95 time=0
EXTRACT: note_off channel=4 note=56 velocity=95 time=0
EXTRACT: note_on channel=4 note=57 velocity=95 time=0
EXTRACT: note_off channel=13 note=30 velocity=95 time=0
EXTRACT: note_off channel=9 note=60 velocity=95 time=0
EXTRACT: note_on channel=9 note=60 velocity=95 time=0
EXTRACT: note_off channel=9 note=51 velocity=95 time=0
EXTRACT: note_off channel=9 note=35 velocity=95 time=0
EXTRACT: note_on channel=9 note=51 velocity=95 time=0
EXTRACT: note_off channel=0 note=57 velocity=95 time=0.24
EXTRACT: note_on channel=0 note=61 velocity=95 time=0
EXTRACT: note_off channel=4 note=57 velocity=95 time=0
EXTRACT: note_off channel=9 note=60 velocity=95 time=0
EXTRACT: note_on channel=9 note=60 velocity=95 time=0
EXTRACT: note_off channel=9 note=51 velocity=95 time=0
EXTRACT: note_on channel=9 note=51 velocity=95 time=0
EXTRACT: note_on channel=9 note=38 velocity=95 time=0
EXTRACT: note_on channel=9 note=35 velocity=95 time=0
EXTRACT: note_off channel=0 note=61 velocity=95 time=0.24
EXTRACT: note_on channel=0 note=61 velocity=95 time=0
EXTRACT: note_on channel=13 note=33 velocity=95 time=0
EXTRACT: note_off channel=9 note=60 velocity=95 time=0
EXTRACT: note_on channel=9 note=61 velocity=95 time=0
EXTRACT: note_off channel=9 note=51 velocity=95 time=0
EXTRACT: note_off channel=9 note=38 velocity=95 time=0
EXTRACT: note_off channel=9 note=35 velocity=95 time=0
EXTRACT: note_on channel=9 note=51 velocity=95 time=0
EXTRACT: note_off channel=0 note=61 velocity=95 time=0.24
EXTRACT: note_on channel=0 note=61 velocity=95 time=0
EXTRACT: note_off channel=2 note=69 velocity=95 time=0
EXTRACT: note_off channel=2 note=64 velocity=95 time=0
EXTRACT: note_off channel=2 note=61 velocity=95 time=0
EXTRACT: note_on channel=2 note=73 velocity=95 time=0
EXTRACT: note_on channel=2 note=69 velocity=95 time=0
EXTRACT: note_on channel=2 note=66 velocity=95 time=0
EXTRACT: note_off channel=13 note=33 velocity=95 time=0
EXTRACT: note_on channel=13 note=38 velocity=95 time=0
EXTRACT: note_off channel=9 note=61 velocity=95 time=0
EXTRACT: note_on channel=9 note=60 velocity=95 time=0
EXTRACT: note_off channel=9 note=51 velocity=95 time=0
EXTRACT: note_on channel=9 note=51 velocity=95 time=0
EXTRACT: note_on channel=9 note=35 velocity=95 time=0
EXTRACT: note_off channel=2 note=73 velocity=95 time=0.24
EXTRACT: note_off channel=2 note=69 velocity=95 time=0
EXTRACT: note_off channel=2 note=66 velocity=95 time=0
EXTRACT: note_on channel=2 note=73 velocity=95 time=0
EXTRACT: note_on channel=2 note=69 velocity=95 time=0
EXTRACT: note_on channel=2 note=66 velocity=95 time=0
EXTRACT: note_on channel=4 note=61 velocity=95 time=0
EXTRACT: note_off channel=13 note=38 velocity=95 time=0
EXTRACT: note_on channel=13 note=38 velocity=95 time=0
EXTRACT: note_off channel=9 note=60 velocity=95 time=0
EXTRACT: note_on channel=9 note=60 velocity=95 time=0
EXTRACT: note_off channel=9 note=51 velocity=95 time=0
EXTRACT: note_off channel=9 note=35 velocity=95 time=0
EXTRACT: note_on channel=9 note=51 velocity=95 time=0
EXTRACT: note_off channel=0 note=61 velocity=95 time=0.24
EXTRACT: note_off channel=2 note=73 velocity=95 time=0
EXTRACT: note_off channel=2 note=69 velocity=95 time=0
EXTRACT: note_off channel=2 note=66 velocity=95 time=0
EXTRACT: note_on channel=2 note=73 velocity=95 time=0
EXTRACT: note_on channel=2 note=69 velocity=95 time=0
EXTRACT: note_on channel=2 note=66 velocity=95 time=0
EXTRACT: note_off channel=4 note=61 velocity=95 time=0
EXTRACT: note_off channel=13 note=38 velocity=95 time=0
EXTRACT: note_off channel=9 note=60 velocity=95 time=0
EXTRACT: note_on channel=9 note=61 velocity=95 time=0
EXTRACT: note_off channel=9 note=51 velocity=95 time=0
EXTRACT: note_on channel=9 note=51 velocity=95 time=0
EXTRACT: note_on channel=9 note=38 velocity=95 time=0
EXTRACT: note_on channel=9 note=35 velocity=95 time=0
EXTRACT: note_off channel=2 note=73 velocity=95 time=0.24
EXTRACT: note_off channel=2 note=69 velocity=95 time=0
EXTRACT: note_off channel=2 note=66 velocity=95 time=0
EXTRACT: note_on channel=2 note=71 velocity=95 time=0
EXTRACT: note_on channel=2 note=68 velocity=95 time=0
EXTRACT: note_on channel=2 note=64 velocity=95 time=0
EXTRACT: note_on channel=4 note=59 velocity=95 time=0
EXTRACT: note_on channel=13 note=37 velocity=95 time=0
EXTRACT: note_off channel=9 note=61 velocity=95 time=0
EXTRACT: note_on channel=9 note=60 velocity=95 time=0
EXTRACT: note_off channel=9 note=51 velocity=95 time=0
EXTRACT: note_off channel=9 note=38 velocity=95 time=0
EXTRACT: note_off channel=9 note=35 velocity=95 time=0
EXTRACT: note_on channel=9 note=51 velocity=95 time=0
EXTRACT: note_off channel=2 note=71 velocity=95 time=0.24
EXTRACT: note_off channel=2 note=68 velocity=95 time=0
EXTRACT: note_off channel=2 note=64 velocity=95 time=0
EXTRACT: note_off channel=4 note=59 velocity=95 time=0
EXTRACT: note_off channel=13 note=37 velocity=95 time=0
EXTRACT: note_off channel=9 note=60 velocity=95 time=0
EXTRACT: note_on channel=9 note=60 velocity=95 time=0
EXTRACT: note_off channel=9 note=51 velocity=95 time=0
EXTRACT: note_on channel=9 note=51 velocity=95 time=0
EXTRACT: note_on channel=9 note=35 velocity=95 time=0
EXTRACT: note_on channel=2 note=69 velocity=95 time=0.24
EXTRACT: note_on channel=2 note=66 velocity=95 time=0
EXTRACT: note_on channel=2 note=62 velocity=95 time=0
EXTRACT: note_on channel=4 note=57 velocity=95 time=0
EXTRACT: note_on channel=13 note=35 velocity=95 time=0
EXTRACT: note_off channel=9 note=60 velocity=95 time=0
EXTRACT: note_on channel=9 note=60 velocity=95 time=0
EXTRACT: note_off channel=9 note=51 velocity=95 time=0
EXTRACT: note_off channel=9 note=35 velocity=95 time=0
EXTRACT: note_on channel=9 note=51 velocity=95 time=0
EXTRACT: note_on channel=0 note=57 velocity=95 time=0.24
EXTRACT: note_off channel=4 note=57 velocity=95 time=0
EXTRACT: note_off channel=13 note=35 velocity=95 time=0
EXTRACT: note_off channel=9 note=60 velocity=95 time=0
EXTRACT: note_on channel=9 note=60 velocity=95 time=0
EXTRACT: note_off channel=9 note=51 velocity=95 time=0
EXTRACT: note_on channel=9 note=51 velocity=95 time=0
EXTRACT: note_on channel=9 note=38 velocity=95 time=0
EXTRACT: note_on channel=9 note=35 velocity=95 time=0
EXTRACT: note_off channel=0 note=57 velocity=95 time=0.24
EXTRACT: note_on channel=0 note=59 velocity=95 time=0
EXTRACT: note_off channel=2 note=69 velocity=95 time=0
EXTRACT: note_off channel=2 note=66 velocity=95 time=0
EXTRACT: note_off channel=2 note=62 velocity=95 time=0
EXTRACT: note_on channel=2 note=71 velocity=95 time=0
EXTRACT: note_on channel=2 note=68 velocity=95 time=0
EXTRACT: note_on channel=2 note=64 velocity=95 time=0
EXTRACT: note_on channel=13 note=36 velocity=95 time=0
EXTRACT: note_off channel=9 note=60 velocity=95 time=0
EXTRACT: note_on channel=9 note=61 velocity=95 time=0
EXTRACT: note_off channel=9 note=51 velocity=95 time=0
EXTRACT: note_off channel=9 note=38 velocity=95 time=0
EXTRACT: note_off channel=9 note=35 velocity=95 time=0
EXTRACT: note_on channel=9 note=51 velocity=95 time=0
EXTRACT: note_off channel=0 note=59 velocity=95 time=0.24
EXTRACT: note_on channel=0 note=61 velocity=95 time=0
EXTRACT: note_off channel=13 note=36 velocity=95 time=0
EXTRACT: note_on channel=13 note=37 velocity=95 time=0
EXTRACT: note_off channel=9 note=61 velocity=95 time=0
EXTRACT: note_on channel=9 note=60 velocity=95 time=0
EXTRACT: note_off channel=9 note=51 velocity=95 time=0
EXTRACT: note_on channel=9 note=51 velocity=95 time=0
EXTRACT: note_on channel=9 note=35 velocity=95 time=0
EXTRACT: note_off channel=0 note=61 velocity=95 time=0.24
EXTRACT: note_on channel=0 note=64 velocity=95 time=0
EXTRACT: note_on channel=4 note=59 velocity=95 time=0
EXTRACT: note_off channel=13 note=37 velocity=95 time=0
EXTRACT: note_on channel=13 note=32 velocity=95 time=0
EXTRACT: note_off channel=9 note=60 velocity=95 time=0
EXTRACT: note_on channel=9 note=60 velocity=95 time=0
EXTRACT: note_off channel=9 note=51 velocity=95 time=0
EXTRACT: note_off channel=9 note=35 velocity=95 time=0
EXTRACT: note_on channel=9 note=51 velocity=95 time=0
EXTRACT: note_off channel=0 note=64 velocity=95 time=0.24
EXTRACT: note_on channel=0 note=66 velocity=95 time=0
EXTRACT: note_off channel=4 note=59 velocity=95 time=0
EXTRACT: note_on channel=4 note=59 velocity=95 time=0
EXTRACT: note_off channel=13 note=32 velocity=95 time=0
EXTRACT: note_on channel=13 note=28 velocity=95 time=0
EXTRACT: note_off channel=9 note=60 velocity=95 time=0
EXTRACT: note_on channel=9 note=61 velocity=95 time=0
EXTRACT: note_off channel=9 note=51 velocity=95 time=0
EXTRACT: note_on channel=9 note=51 velocity=95 time=0
EXTRACT: note_on channel=9 note=38 velocity=95 time=0
EXTRACT: note_on channel=9 note=35 velocity=95 time=0
EXTRACT: note_off channel=0 note=66 velocity=95 time=0.24
EXTRACT: note_on channel=0 note=59 velocity=95 time=0
EXTRACT: note_off channel=2 note=71 velocity=95 time=0
EXTRACT: note_off channel=2 note=68 velocity=95 time=0
EXTRACT: note_off channel=2 note=64 velocity=95 time=0
EXTRACT: note_on channel=2 note=69 velocity=95 time=0
EXTRACT: note_on channel=2 note=64 velocity=95 time=0
EXTRACT: note_on channel=2 note=61 velocity=95 time=0
EXTRACT: note_off channel=4 note=59 velocity=95 time=0
EXTRACT: note_on channel=4 note=56 velocity=95 time=0
EXTRACT: note_off channel=13 note=28 velocity=95 time=0
EXTRACT: note_off channel=9 note=61 velocity=95 time=0
EXTRACT: note_on channel=9 note=60 velocity=95 time=0
EXTRACT: note_off channel=9 note=51 velocity=95 time=0
EXTRACT: note_off channel=9 note=38 velocity=95 time=0
EXTRACT: note_off channel=9 note=35 velocity=95 time=0
EXTRACT: note_on channel=9 note=51 velocity=95 time=0
EXTRACT: note_off channel=0 note=59 velocity=95 time=0.24
EXTRACT: note_on channel=0 note=57 velocity=70 time=0
EXTRACT: note_on channel=13 note=30 velocity=95 time=0
EXTRACT: note_off channel=9 note=60 velocity=95 time=0
EXTRACT: note_on channel=9 note=60 velocity=95 time=0
EXTRACT: note_off channel=9 note=51 velocity=95 time=0
EXTRACT: note_on channel=9 note=51 velocity=95 time=0
EXTRACT: note_on channel=9 note=35 velocity=95 time=0
EXTRACT: note_off channel=4 note=56 velocity=95 time=0.24
EXTRACT: note_on channel=4 note=57 velocity=95 time=0
EXTRACT: note_off channel=13 note=30 velocity=95 time=0
EXTRACT: note_off channel=9 note=60 velocity=95 time=0
EXTRACT: note_on channel=9 note=60 velocity=95 time=0
EXTRACT: note_off channel=9 note=51 velocity=95 time=0
EXTRACT: note_off channel=9 note=35 velocity=95 time=0
EXTRACT: note_on channel=9 note=51 velocity=95 time=0
EXTRACT: note_off channel=0 note=57 velocity=70 time=0.24
EXTRACT: note_on channel=0 note=61 velocity=95 time=0
EXTRACT: note_off channel=4 note=57 velocity=95 time=0
EXTRACT: note_on channel=13 note=33 velocity=95 time=0
EXTRACT: note_off channel=9 note=60 velocity=95 time=0
EXTRACT: note_on channel=9 note=60 velocity=95 time=0
EXTRACT: note_off channel=9 note=51 velocity=95 time=0
EXTRACT: note_on channel=9 note=51 velocity=95 time=0
EXTRACT: note_on channel=9 note=38 velocity=95 time=0
EXTRACT: note_on channel=9 note=35 velocity=95 time=0
EXTRACT: note_off channel=0 note=61 velocity=95 time=0.24
EXTRACT: note_on channel=0 note=61 velocity=95 time=0
EXTRACT: note_on channel=4 note=50 velocity=95 time=0
EXTRACT: note_off channel=13 note=33 velocity=95 time=0
EXTRACT: note_on channel=13 note=35 velocity=95 time=0
EXTRACT: note_off channel=9 note=60 velocity=95 time=0
EXTRACT: note_on channel=9 note=61 velocity=95 time=0
EXTRACT: note_off channel=9 note=51 velocity=95 time=0
EXTRACT: note_off channel=9 note=38 velocity=95 time=0
EXTRACT: note_off channel=9 note=35 velocity=95 time=0
EXTRACT: note_on channel=9 note=51 velocity=95 time=0
EXTRACT: note_off channel=4 note=50 velocity=95 time=0.031
EXTRACT: note_off channel=0 note=61 velocity=95 time=0.209
EXTRACT: note_on channel=0 note=61 velocity=95 time=0
EXTRACT: note_off channel=2 note=69 velocity=95 time=0
EXTRACT: note_off channel=2 note=64 velocity=95 time=0
EXTRACT: note_off channel=2 note=61 velocity=95 time=0
EXTRACT: note_on channel=2 note=73 velocity=95 time=0
EXTRACT: note_on channel=2 note=69 velocity=95 time=0
EXTRACT: note_on channel=2 note=66 velocity=95 time=0
EXTRACT: note_on channel=5 note=61 velocity=47 time=0
EXTRACT: note_off channel=13 note=35 velocity=95 time=0
EXTRACT: note_on channel=13 note=38 velocity=95 time=0
EXTRACT: note_off channel=9 note=61 velocity=95 time=0
EXTRACT: note_on channel=9 note=60 velocity=95 time=0
EXTRACT: note_off channel=9 note=51 velocity=95 time=0
EXTRACT: note_on channel=9 note=51 velocity=95 time=0
EXTRACT: note_on channel=9 note=35 velocity=95 time=0
EXTRACT: pitchwheel channel=5 pitch=0 time=0.06
EXTRACT: pitchwheel channel=5 pitch=0 time=0.06
EXTRACT: pitchwheel channel=5 pitch=0 time=0.06
EXTRACT: note_off channel=2 note=73 velocity=95 time=0.06
EXTRACT: note_off channel=2 note=69 velocity=95 time=0
EXTRACT: note_off channel=2 note=66 velocity=95 time=0
EXTRACT: note_on channel=2 note=73 velocity=95 time=0
EXTRACT: note_on channel=2 note=69 velocity=95 time=0
EXTRACT: note_on channel=2 note=66 velocity=95 time=0
EXTRACT: pitchwheel channel=5 pitch=0 time=0
EXTRACT: pitchwheel channel=5 pitch=0 time=0
EXTRACT: note_off channel=5 note=61 velocity=47 time=0
EXTRACT: note_on channel=4 note=61 velocity=95 time=0
EXTRACT: note_off channel=13 note=38 velocity=95 time=0
EXTRACT: note_on channel=13 note=38 velocity=95 time=0
EXTRACT: note_off channel=9 note=60 velocity=95 time=0
EXTRACT: note_on channel=9 note=60 velocity=95 time=0
EXTRACT: note_off channel=9 note=51 velocity=95 time=0
EXTRACT: note_off channel=9 note=35 velocity=95 time=0
EXTRACT: note_on channel=9 note=51 velocity=95 time=0
EXTRACT: note_off channel=0 note=61 velocity=95 time=0.24
EXTRACT: note_off channel=2 note=73 velocity=95 time=0
EXTRACT: note_off channel=2 note=69 velocity=95 time=0
EXTRACT: note_off channel=2 note=66 velocity=95 time=0
EXTRACT: note_on channel=2 note=73 velocity=95 time=0
EXTRACT: note_on channel=2 note=69 velocity=95 time=0
EXTRACT: note_on channel=2 note=66 velocity=95 time=0
EXTRACT: note_off channel=4 note=61 velocity=95 time=0
EXTRACT: note_off channel=13 note=38 velocity=95 time=0
EXTRACT: note_on channel=13 note=38 velocity=95 time=0
EXTRACT: note_off channel=9 note=60 velocity=95 time=0
EXTRACT: note_on channel=9 note=61 velocity=95 time=0
EXTRACT: note_off channel=9 note=51 velocity=95 time=0
EXTRACT: note_on channel=9 note=51 velocity=95 time=0
EXTRACT: note_on channel=9 note=38 velocity=95 time=0
EXTRACT: note_on channel=9 note=35 velocity=95 time=0
EXTRACT: note_off channel=2 note=73 velocity=95 time=0.24
EXTRACT: note_off channel=2 note=69 velocity=95 time=0
EXTRACT: note_off channel=2 note=66 velocity=95 time=0
EXTRACT: note_on channel=2 note=71 velocity=95 time=0
EXTRACT: note_on channel=2 note=68 velocity=95 time=0
EXTRACT: note_on channel=2 note=64 velocity=95 time=0
EXTRACT: note_on channel=4 note=59 velocity=95 time=0
EXTRACT: note_off channel=13 note=38 velocity=95 time=0
EXTRACT: note_on channel=13 note=37 velocity=95 time=0
EXTRACT: note_off channel=9 note=61 velocity=95 time=0
EXTRACT: note_on channel=9 note=60 velocity=95 time=0
EXTRACT: note_off channel=9 note=51 velocity=95 time=0
EXTRACT: note_off channel=9 note=38 velocity=95 time=0
EXTRACT: note_off channel=9 note=35 velocity=95 time=0
EXTRACT: note_on channel=9 note=51 velocity=95 time=0
EXTRACT: note_off channel=2 note=71 velocity=95 time=0.24
EXTRACT: note_off channel=2 note=68 velocity=95 time=0
EXTRACT: note_off channel=2 note=64 velocity=95 time=0
EXTRACT: note_off channel=4 note=59 velocity=95 time=0
EXTRACT: note_off channel=13 note=37 velocity=95 time=0
EXTRACT: note_off channel=9 note=60 velocity=95 time=0
EXTRACT: note_on channel=9 note=60 velocity=95 time=0
EXTRACT: note_off channel=9 note=51 velocity=95 time=0
EXTRACT: note_on channel=9 note=51 velocity=95 time=0
EXTRACT: note_on channel=9 note=35 velocity=95 time=0
EXTRACT: note_on channel=2 note=69 velocity=95 time=0.24
EXTRACT: note_on channel=2 note=66 velocity=95 time=0
EXTRACT: note_on channel=2 note=62 velocity=95 time=0
EXTRACT: note_on channel=4 note=57 velocity=95 time=0
EXTRACT: note_on channel=13 note=35 velocity=95 time=0
EXTRACT: note_off channel=9 note=60 velocity=95 time=0
EXTRACT: note_on channel=9 note=60 velocity=95 time=0
EXTRACT: note_off channel=9 note=51 velocity=95 time=0
EXTRACT: note_off channel=9 note=35 velocity=95 time=0
EXTRACT: note_on channel=9 note=51 velocity=95 time=0
EXTRACT: note_on channel=0 note=57 velocity=95 time=0.24
EXTRACT: note_off channel=4 note=57 velocity=95 time=0
EXTRACT: note_off channel=13 note=35 velocity=95 time=0
EXTRACT: note_off channel=9 note=60 velocity=95 time=0
EXTRACT: note_on channel=9 note=60 velocity=95 time=0
EXTRACT: note_off channel=9 note=51 velocity=95 time=0
EXTRACT: note_on channel=9 note=51 velocity=95 time=0
EXTRACT: note_on channel=9 note=38 velocity=95 time=0
EXTRACT: note_on channel=9 note=35 velocity=95 time=0
EXTRACT: note_off channel=0 note=57 velocity=95 time=0.24
EXTRACT: note_on channel=0 note=59 velocity=95 time=0
EXTRACT: note_off channel=2 note=69 velocity=95 time=0
EXTRACT: note_off channel=2 note=66 velocity=95 time=0
EXTRACT: note_off channel=2 note=62 velocity=95 time=0
EXTRACT: note_on channel=2 note=71 velocity=95 time=0
EXTRACT: note_on channel=2 note=68 velocity=95 time=0
EXTRACT: note_on channel=2 note=65 velocity=95 time=0
EXTRACT: note_on channel=4 note=59 velocity=95 time=0
EXTRACT: note_on channel=13 note=36 velocity=95 time=0
EXTRACT: note_off channel=9 note=60 velocity=95 time=0
EXTRACT: note_on channel=9 note=61 velocity=95 time=0
EXTRACT: note_off channel=9 note=51 velocity=95 time=0
EXTRACT: note_off channel=9 note=38 velocity=95 time=0
EXTRACT: note_off channel=9 note=35 velocity=95 time=0
EXTRACT: note_on channel=9 note=51 velocity=95 time=0
EXTRACT: note_off channel=0 note=59 velocity=95 time=0.24
EXTRACT: note_on channel=0 note=61 velocity=95 time=0
EXTRACT: note_off channel=4 note=59 velocity=95 time=0
EXTRACT: note_off channel=13 note=36 velocity=95 time=0
EXTRACT: note_on channel=13 note=37 velocity=95 time=0
EXTRACT: note_off channel=9 note=61 velocity=95 time=0
EXTRACT: note_on channel=9 note=60 velocity=95 time=0
EXTRACT: note_off channel=9 note=51 velocity=95 time=0
EXTRACT: note_on channel=9 note=51 velocity=95 time=0
EXTRACT: note_on channel=9 note=35 velocity=95 time=0
EXTRACT: note_off channel=0 note=61 velocity=95 time=0.24
EXTRACT: note_on channel=0 note=64 velocity=95 time=0
EXTRACT: note_on channel=4 note=59 velocity=95 time=0
EXTRACT: note_off channel=13 note=37 velocity=95 time=0
EXTRACT: note_on channel=13 note=40 velocity=95 time=0
EXTRACT: note_off channel=9 note=60 velocity=95 time=0
EXTRACT: note_on channel=9 note=60 velocity=95 time=0
EXTRACT: note_off channel=9 note=51 velocity=95 time=0
EXTRACT: note_off channel=9 note=35 velocity=95 time=0
EXTRACT: note_on channel=9 note=51 velocity=95 time=0
EXTRACT: note_off channel=0 note=64 velocity=95 time=0.24
EXTRACT: note_on channel=0 note=66 velocity=95 time=0
EXTRACT: note_off channel=4 note=59 velocity=95 time=0
EXTRACT: note_off channel=13 note=40 velocity=95 time=0
EXTRACT: note_on channel=13 note=41 velocity=95 time=0
EXTRACT: note_off channel=9 note=60 velocity=95 time=0
EXTRACT: note_on channel=9 note=61 velocity=95 time=0
EXTRACT: note_off channel=9 note=51 velocity=95 time=0
EXTRACT: note_on channel=9 note=51 velocity=95 time=0
EXTRACT: note_on channel=9 note=38 velocity=95 time=0
EXTRACT: note_on channel=9 note=35 velocity=95 time=0
EXTRACT: note_off channel=0 note=66 velocity=95 time=0.24
EXTRACT: note_on channel=0 note=59 velocity=95 time=0
EXTRACT: note_off channel=2 note=71 velocity=95 time=0
EXTRACT: note_off channel=2 note=68 velocity=95 time=0
EXTRACT: note_off channel=2 note=65 velocity=95 time=0
EXTRACT: note_on channel=2 note=69 velocity=95 time=0
EXTRACT: note_on channel=2 note=64 velocity=95 time=0
EXTRACT: note_on channel=2 note=61 velocity=95 time=0
EXTRACT: note_on channel=4 note=56 velocity=95 time=0
EXTRACT: note_off channel=13 note=41 velocity=95 time=0
EXTRACT: note_off channel=9 note=61 velocity=95 time=0
EXTRACT: note_on channel=9 note=60 velocity=95 time=0
EXTRACT: note_off channel=9 note=51 velocity=95 time=0
EXTRACT: note_off channel=9 note=38 velocity=95 time=0
EXTRACT: note_off channel=9 note=35 velocity=95 time=0
EXTRACT: note_on channel=9 note=51 velocity=95 time=0
EXTRACT: note_on channel=13 note=42 velocity=95 time=0.24
EXTRACT: note_off channel=9 note=60 velocity=95 time=0
EXTRACT: note_on channel=9 note=60 velocity=95 time=0
EXTRACT: note_off channel=9 note=51 velocity=95 time=0
EXTRACT: note_on channel=9 note=51 velocity=95 time=0
EXTRACT: note_on channel=9 note=35 velocity=95 time=0
EXTRACT: note_off channel=4 note=56 velocity=95 time=0.24
EXTRACT: note_on channel=4 note=57 velocity=95 time=0
EXTRACT: note_off channel=13 note=42 velocity=95 time=0
EXTRACT: note_off channel=9 note=60 velocity=95 time=0
EXTRACT: note_on channel=9 note=60 velocity=95 time=0
EXTRACT: note_off channel=9 note=51 velocity=95 time=0
EXTRACT: note_off channel=9 note=35 velocity=95 time=0
EXTRACT: note_on channel=9 note=51 velocity=95 time=0
EXTRACT: note_off channel=0 note=59 velocity=95 time=0.24
EXTRACT: note_on channel=0 note=57 velocity=95 time=0
EXTRACT: note_off channel=4 note=57 velocity=95 time=0
EXTRACT: note_on channel=13 note=37 velocity=95 time=0
EXTRACT: note_off channel=9 note=60 velocity=95 time=0
EXTRACT: note_on channel=9 note=60 velocity=95 time=0
EXTRACT: note_off channel=9 note=51 velocity=95 time=0
EXTRACT: note_on channel=9 note=51 velocity=95 time=0
EXTRACT: note_on channel=9 note=38 velocity=95 time=0
EXTRACT: note_on channel=9 note=35 velocity=95 time=0
EXTRACT: note_off channel=0 note=57 velocity=95 time=0.24
EXTRACT: note_on channel=0 note=59 velocity=95 time=0
EXTRACT: note_on channel=11 note=57 velocity=95 time=0
EXTRACT: note_on channel=10 note=81 velocity=95 time=0
EXTRACT: note_on channel=10 note=76 velocity=95 time=0
EXTRACT: note_off channel=13 note=37 velocity=95 time=0
EXTRACT: note_on channel=13 note=35 velocity=95 time=0
EXTRACT: note_off channel=9 note=60 velocity=95 time=0
EXTRACT: note_on channel=9 note=61 velocity=95 time=0
EXTRACT: note_off channel=9 note=51 velocity=95 time=0
EXTRACT: note_off channel=9 note=38 velocity=95 time=0
EXTRACT: note_off channel=9 note=35 velocity=95 time=0
EXTRACT: note_on channel=9 note=51 velocity=95 time=0
EXTRACT: note_off channel=11 note=57 velocity=95 time=0.12
EXTRACT: note_on channel=11 note=57 velocity=95 time=0
EXTRACT: note_off channel=0 note=59 velocity=95 time=0.12
EXTRACT: note_on channel=0 note=57 velocity=70 time=0
EXTRACT: note_off channel=2 note=69 velocity=95 time=0
EXTRACT: note_off channel=2 note=64 velocity=95 time=0
EXTRACT: note_off channel=2 note=61 velocity=95 time=0
EXTRACT: note_on channel=2 note=69 velocity=95 time=0
EXTRACT: note_on channel=2 note=67 velocity=95 time=0
EXTRACT: note_on channel=2 note=62 velocity=95 time=0
EXTRACT: note_on channel=2 note=59 velocity=95 time=0
EXTRACT: note_off channel=11 note=57 velocity=95 time=0
EXTRACT: note_on channel=11 note=62 velocity=95 time=0
EXTRACT: note_off channel=13 note=35 velocity=95 time=0
EXTRACT: note_on channel=13 note=33 velocity=95 time=0
EXTRACT: note_off channel=9 note=61 velocity=95 time=0
EXTRACT: note_on channel=9 note=60 velocity=95 time=0
EXTRACT: note_off channel=9 note=51 velocity=95 time=0
EXTRACT: note_on channel=9 note=51 velocity=95 time=0
EXTRACT: note_on channel=9 note=35 velocity=95 time=0
EXTRACT: note_off channel=13 note=33 velocity=95 time=0.12
EXTRACT: note_on channel=13 note=33 velocity=95 time=0.12
EXTRACT: note_off channel=9 note=60 velocity=95 time=0
EXTRACT: note_on channel=9 note=60 velocity=95 time=0
EXTRACT: note_off channel=9 note=51 velocity=95 time=0
EXTRACT: note_off channel=9 note=35 velocity=95 time=0
EXTRACT: note_on channel=9 note=51 velocity=95 time=0
EXTRACT: note_off channel=13 note=33 velocity=95 time=0.24
EXTRACT: note_on channel=13 note=55 velocity=95 time=0
EXTRACT: note_off channel=9 note=60 velocity=95 time=0
EXTRACT: note_on channel=9 note=61 velocity=95 time=0
EXTRACT: note_off channel=9 note=51 velocity=95 time=0
EXTRACT: note_on channel=9 note=51 velocity=95 time=0
EXTRACT: note_on channel=9 note=38 velocity=95 time=0
EXTRACT: note_on channel=9 note=35 velocity=95 time=0
EXTRACT: note_off channel=11 note=62 velocity=95 time=0.24
EXTRACT: note_on channel=11 note=62 velocity=95 time=0
EXTRACT: note_off channel=13 note=55 velocity=95 time=0
EXTRACT: note_on channel=13 note=57 velocity=95 time=0
EXTRACT: note_off channel=9 note=61 velocity=95 time=0
EXTRACT: note_on channel=9 note=60 velocity=95 time=0
EXTRACT: note_off channel=9 note=51 velocity=95 time=0
EXTRACT: note_off channel=9 note=38 velocity=95 time=0
EXTRACT: note_off channel=9 note=35 velocity=95 time=0
EXTRACT: note_on channel=9 note=51 velocity=95 time=0
EXTRACT: note_off channel=11 note=62 velocity=95 time=0.12
EXTRACT: note_on channel=11 note=62 velocity=95 time=0
EXTRACT: note_off channel=11 note=62 velocity=95 time=0.12
EXTRACT: note_on channel=11 note=66 velocity=95 time=0
EXTRACT: note_off channel=13 note=57 velocity=95 time=0
EXTRACT: note_on channel=13 note=33 velocity=95 time=0
EXTRACT: note_off channel=9 note=60 velocity=95 time=0
EXTRACT: note_on channel=9 note=60 velocity=95 time=0
EXTRACT: note_off channel=9 note=51 velocity=95 time=0
EXTRACT: note_on channel=9 note=51 velocity=95 time=0
EXTRACT: note_on channel=9 note=35 velocity=95 time=0
EXTRACT: note_off channel=13 note=33 velocity=95 time=0.12
EXTRACT: note_on channel=13 note=33 velocity=95 time=0.12
EXTRACT: note_off channel=9 note=60 velocity=95 time=0
EXTRACT: note_on channel=9 note=60 velocity=95 time=0
EXTRACT: note_off channel=9 note=51 velocity=95 time=0
EXTRACT: note_off channel=9 note=35 velocity=95 time=0
EXTRACT: note_on channel=9 note=51 velocity=95 time=0
EXTRACT: note_off channel=13 note=33 velocity=95 time=0.24
EXTRACT: note_on channel=13 note=55 velocity=95 time=0
EXTRACT: note_off channel=9 note=60 velocity=95 time=0
EXTRACT: note_on channel=9 note=60 velocity=95 time=0
EXTRACT: note_off channel=9 note=51 velocity=95 time=0
EXTRACT: note_on channel=9 note=51 velocity=95 time=0
EXTRACT: note_on channel=9 note=38 velocity=95 time=0
EXTRACT: note_on channel=9 note=35 velocity=95 time=0
EXTRACT: note_off channel=13 note=55 velocity=95 time=0.24
EXTRACT: note_on channel=13 note=57 velocity=95 time=0
EXTRACT: note_off channel=9 note=60 velocity=95 time=0
EXTRACT: note_on channel=9 note=61 velocity=95 time=0
EXTRACT: note_off channel=9 note=51 velocity=95 time=0
EXTRACT: note_off channel=9 note=38 velocity=95 time=0
EXTRACT: note_off channel=9 note=35 velocity=95 time=0
EXTRACT: note_on channel=9 note=51 velocity=95 time=0
EXTRACT: note_off channel=2 note=69 velocity=95 time=0.24
EXTRACT: note_off channel=2 note=67 velocity=95 time=0
EXTRACT: note_off channel=2 note=62 velocity=95 time=0
EXTRACT: note_off channel=2 note=59 velocity=95 time=0
EXTRACT: note_on channel=2 note=69 velocity=95 time=0
EXTRACT: note_on channel=2 note=67 velocity=95 time=0
EXTRACT: note_on channel=2 note=62 velocity=95 time=0
EXTRACT: note_on channel=2 note=59 velocity=95 time=0
EXTRACT: note_off channel=13 note=57 velocity=95 time=0
EXTRACT: note_on channel=13 note=33 velocity=95 time=0
EXTRACT: note_off channel=9 note=61 velocity=95 time=0
EXTRACT: note_on channel=9 note=60 velocity=95 time=0
EXTRACT: note_off channel=9 note=51 velocity=95 time=0
EXTRACT: note_on channel=9 note=51 velocity=95 time=0
EXTRACT: note_on channel=9 note=35 velocity=95 time=0
EXTRACT: note_off channel=13 note=33 velocity=95 time=0.12
EXTRACT: note_on channel=13 note=33 velocity=95 time=0.12
EXTRACT: note_off channel=9 note=60 velocity=95 time=0
EXTRACT: note_on channel=9 note=60 velocity=95 time=0
EXTRACT: note_off channel=9 note=51 velocity=95 time=0
EXTRACT: note_off channel=9 note=35 velocity=95 time=0
EXTRACT: note_on channel=9 note=51 velocity=95 time=0
EXTRACT: note_off channel=0 note=57 velocity=70 time=0.24
EXTRACT: note_off channel=13 note=33 velocity=95 time=0
EXTRACT: note_on channel=13 note=55 velocity=95 time=0
EXTRACT: note_off channel=9 note=60 velocity=95 time=0
EXTRACT: note_on channel=9 note=61 velocity=95 time=0
EXTRACT: note_off channel=9 note=51 velocity=95 time=0
EXTRACT: note_on channel=9 note=51 velocity=95 time=0
EXTRACT: note_on channel=9 note=38 velocity=95 time=0
EXTRACT: note_on channel=9 note=35 velocity=95 time=0
EXTRACT: note_off channel=13 note=55 velocity=95 time=0.24
EXTRACT: note_on channel=13 note=57 velocity=95 time=0
EXTRACT: note_off channel=9 note=61 velocity=95 time=0
EXTRACT: note_on channel=9 note=60 velocity=95 time=0
EXTRACT: note_off channel=9 note=51 velocity=95 time=0
EXTRACT: note_off channel=9 note=38 velocity=95 time=0
EXTRACT: note_off channel=9 note=35 velocity=95 time=0
EXTRACT: note_on channel=9 note=51 velocity=95 time=0
EXTRACT: note_off channel=2 note=69 velocity=95 time=0.24
EXTRACT: note_off channel=2 note=67 velocity=95 time=0
EXTRACT: note_off channel=2 note=62 velocity=95 time=0
EXTRACT: note_off channel=2 note=59 velocity=95 time=0
EXTRACT: note_on channel=2 note=69 velocity=95 time=0
EXTRACT: note_on channel=2 note=67 velocity=95 time=0
EXTRACT: note_on channel=2 note=62 velocity=95 time=0
EXTRACT: note_on channel=2 note=59 velocity=95 time=0
EXTRACT: note_off channel=11 note=66 velocity=95 time=0
EXTRACT: note_on channel=11 note=66 velocity=95 time=0
EXTRACT: note_off channel=10 note=81 velocity=95 time=0
EXTRACT: note_off channel=10 note=76 velocity=95 time=0
EXTRACT: note_on channel=10 note=81 velocity=95 time=0
EXTRACT: note_on channel=10 note=76 velocity=95 time=0
EXTRACT: note_off channel=13 note=57 velocity=95 time=0
EXTRACT: note_on channel=13 note=33 velocity=95 time=0
EXTRACT: note_off channel=9 note=60 velocity=95 time=0
EXTRACT: note_on channel=9 note=60 velocity=95 time=0
EXTRACT: note_off channel=9 note=51 velocity=95 time=0
EXTRACT: note_on channel=9 note=51 velocity=95 time=0
EXTRACT: note_on channel=9 note=35 velocity=95 time=0
EXTRACT: note_on channel=0 note=61 velocity=95 time=0.24
EXTRACT: note_off channel=2 note=69 velocity=95 time=0
EXTRACT: note_off channel=2 note=67 velocity=95 time=0
EXTRACT: note_off channel=2 note=62 velocity=95 time=0
EXTRACT: note_off channel=2 note=59 velocity=95 time=0
EXTRACT: note_off channel=11 note=66 velocity=95 time=0
EXTRACT: note_off channel=10 note=81 velocity=95 time=0
EXTRACT: note_off channel=10 note=76 velocity=95 time=0
EXTRACT: note_off channel=0 note=61 velocity=95 time=0.24
EXTRACT: note_on channel=0 note=59 velocity=95 time=0
EXTRACT: note_on channel=2 note=69 velocity=95 time=0
EXTRACT: note_on channel=2 note=67 velocity=95 time=0
EXTRACT: note_on channel=2 note=62 velocity=95 time=0
EXTRACT: note_on channel=2 note=59 velocity=95 time=0
EXTRACT: note_on channel=11 note=66 velocity=95 time=0
EXTRACT: note_on channel=10 note=81 velocity=95 time=0
EXTRACT: note_on channel=10 note=76 velocity=95 time=0
EXTRACT: note_off channel=13 note=33 velocity=95 time=0
EXTRACT: pitchwheel channel=14 pitch=0 time=0
EXTRACT: note_on channel=14 note=37 velocity=127 time=0
EXTRACT: note_off channel=9 note=60 velocity=95 time=0
EXTRACT: note_off channel=9 note=51 velocity=95 time=0
EXTRACT: note_off channel=9 note=35 velocity=95 time=0
EXTRACT: note_on channel=9 note=51 velocity=95 time=0
EXTRACT: note_on channel=9 note=38 velocity=95 time=0
EXTRACT: note_on channel=9 note=35 velocity=95 time=0
EXTRACT: pitchwheel channel=14 pitch=128 time=0.0105
EXTRACT: pitchwheel channel=14 pitch=256 time=0.0105
EXTRACT: pitchwheel channel=14 pitch=384 time=0.0105
EXTRACT: pitchwheel channel=14 pitch=512 time=0.0105
EXTRACT: pitchwheel channel=14 pitch=640 time=0.0105
EXTRACT: pitchwheel channel=14 pitch=768 time=0.0105
EXTRACT: pitchwheel channel=14 pitch=896 time=0.0105
EXTRACT: pitchwheel channel=14 pitch=1024 time=0.0105
EXTRACT: pitchwheel channel=14 pitch=1152 time=0.0105
EXTRACT: pitchwheel channel=14 pitch=1280 time=0.0105
EXTRACT: pitchwheel channel=14 pitch=1408 time=0.0105
EXTRACT: pitchwheel channel=14 pitch=1408 time=0.0045000000000000005
EXTRACT: note_off channel=0 note=59 velocity=95 time=0.12
EXTRACT: note_on channel=0 note=57 velocity=95 time=0
EXTRACT: note_off channel=2 note=69 velocity=95 time=0
EXTRACT: note_off channel=2 note=67 velocity=95 time=0
EXTRACT: note_off channel=2 note=62 velocity=95 time=0
EXTRACT: note_off channel=2 note=59 velocity=95 time=0
EXTRACT: note_off channel=11 note=66 velocity=95 time=0
EXTRACT: note_off channel=10 note=81 velocity=95 time=0
EXTRACT: note_off channel=10 note=76 velocity=95 time=0
EXTRACT: pitchwheel channel=14 pitch=1408 time=0
EXTRACT: pitchwheel channel=14 pitch=1280 time=0.0105
EXTRACT: pitchwheel channel=14 pitch=1152 time=0.0105
EXTRACT: pitchwheel channel=14 pitch=1024 time=0.0105
EXTRACT: pitchwheel channel=14 pitch=896 time=0.0105
EXTRACT: pitchwheel channel=14 pitch=768 time=0.0105
EXTRACT: pitchwheel channel=14 pitch=640 time=0.0105
EXTRACT: pitchwheel channel=14 pitch=512 time=0.0105
EXTRACT: pitchwheel channel=14 pitch=384 time=0.0105
EXTRACT: pitchwheel channel=14 pitch=256 time=0.0105
EXTRACT: pitchwheel channel=14 pitch=128 time=0.0105
EXTRACT: pitchwheel channel=14 pitch=0 time=0.0105
EXTRACT: pitchwheel channel=14 pitch=0 time=0.0045000000000000005
EXTRACT: note_off channel=0 note=57 velocity=95 time=0.12
EXTRACT: note_on channel=0 note=61 velocity=95 time=0
EXTRACT: note_on channel=2 note=73 velocity=95 time=0
EXTRACT: note_on channel=2 note=69 velocity=95 time=0
EXTRACT: note_on channel=2 note=66 velocity=95 time=0
EXTRACT: note_on channel=8 note=61 velocity=95 time=0
EXTRACT: pitchwheel channel=14 pitch=0 time=0
EXTRACT: pitchwheel channel=14 pitch=0 time=0
EXTRACT: note_off channel=14 note=37 velocity=127 time=0
EXTRACT: note_on channel=13 note=38 velocity=95 time=0
EXTRACT: note_on channel=9 note=60 velocity=95 time=0
EXTRACT: note_off channel=9 note=51 velocity=95 time=0
EXTRACT: note_off channel=9 note=38 velocity=95 time=0
EXTRACT: note_off channel=9 note=35 velocity=95 time=0
EXTRACT: note_on channel=9 note=51 velocity=95 time=0
EXTRACT: note_on channel=9 note=35 velocity=95 time=0
EXTRACT: note_off channel=0 note=61 velocity=95 time=0.24
EXTRACT: note_on channel=0 note=61 velocity=95 time=0
EXTRACT: note_off channel=2 note=73 velocity=95 time=0
EXTRACT: note_off channel=2 note=69 velocity=95 time=0
EXTRACT: note_off channel=2 note=66 velocity=95 time=0
EXTRACT: note_on channel=2 note=73 velocity=95 time=0
EXTRACT: note_on channel=2 note=69 velocity=95 time=0
EXTRACT: note_on channel=2 note=66 velocity=95 time=0
EXTRACT: note_on channel=4 note=61 velocity=95 time=0
EXTRACT: note_off channel=13 note=38 velocity=95 time=0
EXTRACT: note_on channel=13 note=38 velocity=95 time=0
EXTRACT: note_off channel=9 note=60 velocity=95 time=0
EXTRACT: note_on channel=9 note=60 velocity=95 time=0
EXTRACT: note_off channel=9 note=51 velocity=95 time=0
EXTRACT: note_off channel=9 note=35 velocity=95 time=0
EXTRACT: note_on channel=9 note=51 velocity=95 time=0
EXTRACT: note_off channel=0 note=61 velocity=95 time=0.24
EXTRACT: note_off channel=2 note=73 velocity=95 time=0
EXTRACT: note_off channel=2 note=69 velocity=95 time=0
EXTRACT: note_off channel=2 note=66 velocity=95 time=0
EXTRACT: note_on channel=2 note=73 velocity=95 time=0
EXTRACT: note_on channel=2 note=69 velocity=95 time=0
EXTRACT: note_on channel=2 note=66 velocity=95 time=0
EXTRACT: note_off channel=4 note=61 velocity=95 time=0
EXTRACT: note_off channel=13 note=38 velocity=95 time=0
EXTRACT: note_off channel=9 note=60 velocity=95 time=0
EXTRACT: note_on channel=9 note=61 velocity=95 time=0
EXTRACT: note_off channel=9 note=51 velocity=95 time=0
EXTRACT: note_on channel=9 note=51 velocity=95 time=0
EXTRACT: note_on channel=9 note=38 velocity=95 time=0
EXTRACT: note_on channel=9 note=35 velocity=95 time=0
EXTRACT: note_off channel=2 note=73 velocity=95 time=0.24
EXTRACT: note_off channel=2 note=69 velocity=95 time=0
EXTRACT: note_off channel=2 note=66 velocity=95 time=0
EXTRACT: note_on channel=2 note=71 velocity=95 time=0
EXTRACT: note_on channel=2 note=68 velocity=95 time=0
EXTRACT: note_on channel=2 note=64 velocity=95 time=0
EXTRACT: note_on channel=4 note=59 velocity=95 time=0
EXTRACT: note_on channel=13 note=37 velocity=95 time=0
EXTRACT: note_off channel=9 note=61 velocity=95 time=0
EXTRACT: note_on channel=9 note=60 velocity=95 time=0
EXTRACT: note_off channel=9 note=51 velocity=95 time=0
EXTRACT: note_off channel=9 note=38 velocity=95 time=0
EXTRACT: note_off channel=9 note=35 velocity=95 time=0
EXTRACT: note_on channel=9 note=51 velocity=95 time=0
EXTRACT: note_off channel=2 note=71 velocity=95 time=0.24
EXTRACT: note_off channel=2 note=68 velocity=95 time=0
EXTRACT: note_off channel=2 note=64 velocity=95 time=0
EXTRACT: note_off channel=4 note=59 velocity=95 time=0
EXTRACT: note_off channel=13 note=37 velocity=95 time=0
EXTRACT: note_off channel=9 note=60 velocity=95 time=0
EXTRACT: note_on channel=9 note=60 velocity=95 time=0
EXTRACT: note_off channel=9 note=51 velocity=95 time=0
EXTRACT: note_on channel=9 note=51 velocity=95 time=0
EXTRACT: note_on channel=9 note=35 velocity=95 time=0
EXTRACT: note_on channel=0 note=57 velocity=95 time=0.24
EXTRACT: note_on channel=2 note=69 velocity=95 time=0
EXTRACT: note_on channel=2 note=66 velocity=95 time=0
EXTRACT: note_on channel=2 note=62 velocity=95 time=0
EXTRACT: note_on channel=4 note=57 velocity=95 time=0
EXTRACT: note_on channel=13 note=35 velocity=95 time=0
EXTRACT: note_off channel=9 note=60 velocity=95 time=0
EXTRACT: note_on channel=9 note=60 velocity=95 time=0
EXTRACT: note_off channel=9 note=51 velocity=95 time=0
EXTRACT: note_off channel=9 note=35 velocity=95 time=0
EXTRACT: note_on channel=9 note=51 velocity=95 time=0
EXTRACT: note_off channel=0 note=57 velocity=95 time=0.24
EXTRACT: note_on channel=0 note=59 velocity=95 time=0
EXTRACT: note_off channel=4 note=57 velocity=95 time=0
EXTRACT: note_off channel=13 note=35 velocity=95 time=0
EXTRACT: note_off channel=9 note=60 velocity=95 time=0
EXTRACT: note_on channel=9 note=60 velocity=95 time=0
EXTRACT: note_off channel=9 note=51 velocity=95 time=0
EXTRACT: note_on channel=9 note=51 velocity=95 time=0
EXTRACT: note_on channel=9 note=38 velocity=95 time=0
EXTRACT: note_on channel=9 note=35 velocity=95 time=0
EXTRACT: note_off channel=0 note=59 velocity=95 time=0.24
EXTRACT: note_on channel=0 note=61 velocity=95 time=0
EXTRACT: note_off channel=2 note=69 velocity=95 time=0
EXTRACT: note_off channel=2 note=66 velocity=95 time=0
EXTRACT: note_off channel=2 note=62 velocity=95 time=0
EXTRACT: note_on channel=2 note=71 velocity=95 time=0
EXTRACT: note_on channel=2 note=68 velocity=95 time=0
EXTRACT: note_on channel=2 note=64 velocity=95 time=0
EXTRACT: note_on channel=4 note=45 velocity=95 time=0
EXTRACT: note_on channel=13 note=36 velocity=95 time=0
EXTRACT: note_off channel=9 note=60 velocity=95 time=0
EXTRACT: note_on channel=9 note=61 velocity=95 time=0
EXTRACT: note_off channel=9 note=51 velocity=95 time=0
EXTRACT: note_off channel=9 note=38 velocity=95 time=0
EXTRACT: note_off channel=9 note=35 velocity=95 time=0
EXTRACT: note_on channel=9 note=51 velocity=95 time=0
EXTRACT: note_off channel=4 note=45 velocity=95 time=0.031
EXTRACT: note_on channel=5 note=59 velocity=95 time=0.209
EXTRACT: note_off channel=13 note=36 velocity=95 time=0
EXTRACT: note_on channel=13 note=37 velocity=95 time=0
EXTRACT: note_off channel=9 note=61 velocity=95 time=0
EXTRACT: note_on channel=9 note=60 velocity=95 time=0
EXTRACT: note_off channel=9 note=51 velocity=95 time=0
EXTRACT: note_on channel=9 note=51 velocity=95 time=0
EXTRACT: note_on channel=9 note=35 velocity=95 time=0
EXTRACT: pitchwheel channel=5 pitch=0 time=0.06
EXTRACT: pitchwheel channel=5 pitch=0 time=0.06
EXTRACT: pitchwheel channel=5 pitch=0 time=0.06
EXTRACT: note_off channel=0 note=61 velocity=95 time=0.06
EXTRACT: note_on channel=0 note=64 velocity=95 time=0
EXTRACT: pitchwheel channel=5 pitch=0 time=0
EXTRACT: pitchwheel channel=5 pitch=0 time=0
EXTRACT: note_off channel=5 note=59 velocity=95 time=0
EXTRACT: note_on channel=4 note=59 velocity=95 time=0
EXTRACT: note_off channel=8 note=61 velocity=95 time=0
EXTRACT: note_on channel=8 note=64 velocity=95 time=0
EXTRACT: note_off channel=13 note=37 velocity=95 time=0
EXTRACT: note_on channel=13 note=32 velocity=95 time=0
EXTRACT: note_off channel=9 note=60 velocity=95 time=0
EXTRACT: note_on channel=9 note=60 velocity=95 time=0
EXTRACT: note_off channel=9 note=51 velocity=95 time=0
EXTRACT: note_off channel=9 note=35 velocity=95 time=0
EXTRACT: note_on channel=9 note=51 velocity=95 time=0
EXTRACT: note_off channel=0 note=64 velocity=95 time=0.24
EXTRACT: note_on channel=0 note=66 velocity=95 time=0
EXTRACT: note_off channel=4 note=59 velocity=95 time=0
EXTRACT: note_on channel=4 note=59 velocity=95 time=0
EXTRACT: note_off channel=8 note=64 velocity=95 time=0
EXTRACT: note_on channel=8 note=66 velocity=95 time=0
EXTRACT: note_off channel=13 note=32 velocity=95 time=0
EXTRACT: note_on channel=13 note=28 velocity=95 time=0
EXTRACT: note_off channel=9 note=60 velocity=95 time=0
EXTRACT: note_on channel=9 note=61 velocity=95 time=0
EXTRACT: note_off channel=9 note=51 velocity=95 time=0
EXTRACT: note_on channel=9 note=51 velocity=95 time=0
EXTRACT: note_on channel=9 note=38 velocity=95 time=0
EXTRACT: note_on channel=9 note=35 velocity=95 time=0
EXTRACT: note_off channel=0 note=66 velocity=95 time=0.24
EXTRACT: note_on channel=0 note=59 velocity=95 time=0
EXTRACT: note_off channel=2 note=71 velocity=95 time=0
EXTRACT: note_off channel=2 note=68 velocity=95 time=0
EXTRACT: note_off channel=2 note=64 velocity=95 time=0
EXTRACT: note_on channel=2 note=69 velocity=95 time=0
EXTRACT: note_on channel=2 note=64 velocity=95 time=0
EXTRACT: note_on channel=2 note=61 velocity=95 time=0
EXTRACT: note_off channel=4 note=59 velocity=95 time=0
EXTRACT: note_on channel=4 note=56 velocity=95 time=0
EXTRACT: note_off channel=8 note=66 velocity=95 time=0
EXTRACT: note_on channel=8 note=69 velocity=95 time=0
EXTRACT: note_off channel=13 note=28 velocity=95 time=0
EXTRACT: note_off channel=9 note=61 velocity=95 time=0
EXTRACT: note_on channel=9 note=60 velocity=95 time=0
EXTRACT: note_off channel=9 note=51 velocity=95 time=0
EXTRACT: note_off channel=9 note=38 velocity=95 time=0
EXTRACT: note_off channel=9 note=35 velocity=95 time=0
EXTRACT: note_on channel=9 note=51 velocity=95 time=0
EXTRACT: note_off channel=0 note=59 velocity=95 time=0.24
EXTRACT: note_on channel=0 note=57 velocity=70 time=0
EXTRACT: note_on channel=13 note=30 velocity=95 time=0
EXTRACT: note_off channel=9 note=60 velocity=95 time=0
EXTRACT: note_on channel=9 note=60 velocity=95 time=0
EXTRACT: note_off channel=9 note=51 velocity=95 time=0
EXTRACT: note_on channel=9 note=51 velocity=95 time=0
EXTRACT: note_on channel=9 note=35 velocity=95 time=0
EXTRACT: note_off channel=0 note=57 velocity=70 time=0.24
EXTRACT: note_on channel=0 note=57 velocity=95 time=0
EXTRACT: note_off channel=4 note=56 velocity=95 time=0
EXTRACT: note_on channel=4 note=57 velocity=95 time=0
EXTRACT: note_off channel=13 note=30 velocity=95 time=0
EXTRACT: note_off channel=9 note=60 velocity=95 time=0
EXTRACT: note_on channel=9 note=60 velocity=95 time=0
EXTRACT: note_off channel=9 note=51 velocity=95 time=0
EXTRACT: note_off channel=9 note=35 velocity=95 time=0
EXTRACT: note_on channel=9 note=51 velocity=95 time=0
EXTRACT: note_off channel=0 note=57 velocity=95 time=0.24
EXTRACT: note_on channel=0 note=59 velocity=95 time=0
EXTRACT: note_off channel=4 note=57 velocity=95 time=0
EXTRACT: note_off channel=8 note=69 velocity=95 time=0
EXTRACT: note_on channel=8 note=71 velocity=95 time=0
EXTRACT: note_off channel=9 note=60 velocity=95 time=0
EXTRACT: note_on channel=9 note=60 velocity=95 time=0
EXTRACT: note_off channel=9 note=51 velocity=95 time=0
EXTRACT: note_on channel=9 note=51 velocity=95 time=0
EXTRACT: note_on channel=9 note=38 velocity=95 time=0
EXTRACT: note_on channel=9 note=35 velocity=95 time=0
EXTRACT: note_off channel=0 note=59 velocity=95 time=0.24
EXTRACT: note_on channel=0 note=62 velocity=95 time=0
EXTRACT: note_off channel=8 note=71 velocity=95 time=0
EXTRACT: note_on channel=8 note=73 velocity=95 time=0
EXTRACT: note_on channel=13 note=33 velocity=95 time=0
EXTRACT: note_off channel=9 note=60 velocity=95 time=0
EXTRACT: note_on channel=9 note=61 velocity=95 time=0
EXTRACT: note_off channel=9 note=51 velocity=95 time=0
EXTRACT: note_off channel=9 note=38 velocity=95 time=0
EXTRACT: note_off channel=9 note=35 velocity=95 time=0
EXTRACT: note_on channel=9 note=51 velocity=95 time=0
EXTRACT: note_off channel=2 note=69 velocity=95 time=0.24
EXTRACT: note_off channel=2 note=64 velocity=95 time=0
EXTRACT: note_off channel=2 note=61 velocity=95 time=0
EXTRACT: note_on channel=2 note=73 velocity=95 time=0
EXTRACT: note_on channel=2 note=69 velocity=95 time=0
EXTRACT: note_on channel=2 note=66 velocity=95 time=0
EXTRACT: note_off channel=13 note=33 velocity=95 time=0
EXTRACT: note_on channel=13 note=38 velocity=95 time=0
EXTRACT: note_off channel=9 note=61 velocity=95 time=0
EXTRACT: note_on channel=9 note=60 velocity=95 time=0
EXTRACT: note_off channel=9 note=51 velocity=95 time=0
EXTRACT: note_on channel=9 note=51 velocity=95 time=0
EXTRACT: note_on channel=9 note=35 velocity=95 time=0
EXTRACT: note_off channel=0 note=62 velocity=95 time=0.24
EXTRACT: note_on channel=0 note=61 velocity=95 time=0
EXTRACT: note_off channel=2 note=73 velocity=95 time=0
EXTRACT: note_off channel=2 note=69 velocity=95 time=0
EXTRACT: note_off channel=2 note=66 velocity=95 time=0
EXTRACT: note_on channel=2 note=73 velocity=95 time=0
EXTRACT: note_on channel=2 note=69 velocity=95 time=0
EXTRACT: note_on channel=2 note=66 velocity=95 time=0
EXTRACT: note_on channel=4 note=61 velocity=95 time=0
EXTRACT: note_off channel=13 note=38 velocity=95 time=0
EXTRACT: note_on channel=13 note=38 velocity=95 time=0
EXTRACT: note_off channel=9 note=60 velocity=95 time=0
EXTRACT: note_on channel=9 note=60 velocity=95 time=0
EXTRACT: note_off channel=9 note=51 velocity=95 time=0
EXTRACT: note_off channel=9 note=35 velocity=95 time=0
EXTRACT: note_on channel=9 note=51 velocity=95 time=0
EXTRACT: note_off channel=0 note=61 velocity=95 time=0.24
EXTRACT: note_off channel=2 note=73 velocity=95 time=0
EXTRACT: note_off channel=2 note=69 velocity=95 time=0
EXTRACT: note_off channel=2 note=66 velocity=95 time=0
EXTRACT: note_on channel=2 note=73 velocity=95 time=0
EXTRACT: note_on channel=2 note=69 velocity=95 time=0
EXTRACT: note_on channel=2 note=66 velocity=95 time=0
EXTRACT: note_off channel=4 note=61 velocity=95 time=0
EXTRACT: note_off channel=13 note=38 velocity=95 time=0
EXTRACT: note_off channel=9 note=60 velocity=95 time=0
EXTRACT: note_on channel=9 note=61 velocity=95 time=0
EXTRACT: note_off channel=9 note=51 velocity=95 time=0
EXTRACT: note_on channel=9 note=51 velocity=95 time=0
EXTRACT: note_on channel=9 note=38 velocity=95 time=0
EXTRACT: note_on channel=9 note=35 velocity=95 time=0
EXTRACT: note_off channel=2 note=73 velocity=95 time=0.24
EXTRACT: note_off channel=2 note=69 velocity=95 time=0
EXTRACT: note_off channel=2 note=66 velocity=95 time=0
EXTRACT: note_on channel=2 note=71 velocity=95 time=0
EXTRACT: note_on channel=2 note=68 velocity=95 time=0
EXTRACT: note_on channel=2 note=64 velocity=95 time=0
EXTRACT: note_on channel=4 note=59 velocity=95 time=0
EXTRACT: note_on channel=13 note=37 velocity=95 time=0
EXTRACT: note_off channel=9 note=61 velocity=95 time=0
EXTRACT: note_on channel=9 note=60 velocity=95 time=0
EXTRACT: note_off channel=9 note=51 velocity=95 time=0
EXTRACT: note_off channel=9 note=38 velocity=95 time=0
EXTRACT: note_off channel=9 note=35 velocity=95 time=0
EXTRACT: note_on channel=9 note=51 velocity=95 time=0
EXTRACT: note_off channel=2 note=71 velocity=95 time=0.24
EXTRACT: note_off channel=2 note=68 velocity=95 time=0
EXTRACT: note_off channel=2 note=64 velocity=95 time=0
EXTRACT: note_off channel=4 note=59 velocity=95 time=0
EXTRACT: note_off channel=13 note=37 velocity=95 time=0
EXTRACT: note_off channel=9 note=60 velocity=95 time=0
EXTRACT: note_on channel=9 note=60 velocity=95 time=0
EXTRACT: note_off channel=9 note=51 velocity=95 time=0
EXTRACT: note_on channel=9 note=51 velocity=95 time=0
EXTRACT: note_on channel=9 note=35 velocity=95 time=0
EXTRACT: note_on channel=2 note=69 velocity=95 time=0.24
EXTRACT: note_on channel=2 note=66 velocity=95 time=0
EXTRACT: note_on channel=2 note=62 velocity=95 time=0
EXTRACT: note_on channel=4 note=57 velocity=95 time=0
EXTRACT: note_on channel=13 note=35 velocity=95 time=0
EXTRACT: note_off channel=9 note=60 velocity=95 time=0
EXTRACT: note_on channel=9 note=60 velocity=95 time=0
EXTRACT: note_off channel=9 note=51 velocity=95 time=0
EXTRACT: note_off channel=9 note=35 velocity=95 time=0
EXTRACT: note_on channel=9 note=51 velocity=95 time=0
EXTRACT: note_on channel=0 note=57 velocity=95 time=0.24
EXTRACT: note_off channel=4 note=57 velocity=95 time=0
EXTRACT: note_off channel=13 note=35 velocity=95 time=0
EXTRACT: note_off channel=9 note=60 velocity=95 time=0
EXTRACT: note_on channel=9 note=60 velocity=95 time=0
EXTRACT: note_off channel=9 note=51 velocity=95 time=0
EXTRACT: note_on channel=9 note=51 velocity=95 time=0
EXTRACT: note_on channel=9 note=38 velocity=95 time=0
EXTRACT: note_on channel=9 note=35 velocity=95 time=0
EXTRACT: note_off channel=0 note=57 velocity=95 time=0.24
EXTRACT: note_on channel=0 note=59 velocity=95 time=0
EXTRACT: note_off channel=2 note=69 velocity=95 time=0
EXTRACT: note_off channel=2 note=66 velocity=95 time=0
EXTRACT: note_off channel=2 note=62 velocity=95 time=0
EXTRACT: note_on channel=2 note=71 velocity=95 time=0
EXTRACT: note_on channel=2 note=68 velocity=95 time=0
EXTRACT: note_on channel=2 note=64 velocity=95 time=0
EXTRACT: note_on channel=13 note=36 velocity=95 time=0
EXTRACT: note_off channel=9 note=60 velocity=95 time=0
EXTRACT: note_on channel=9 note=61 velocity=95 time=0
EXTRACT: note_off channel=9 note=51 velocity=95 time=0
EXTRACT: note_off channel=9 note=38 velocity=95 time=0
EXTRACT: note_off channel=9 note=35 velocity=95 time=0
EXTRACT: note_on channel=9 note=51 velocity=95 time=0
EXTRACT: note_off channel=0 note=59 velocity=95 time=0.24
EXTRACT: note_on channel=0 note=61 velocity=95 time=0
EXTRACT: note_off channel=8 note=73 velocity=95 time=0
EXTRACT: note_on channel=8 note=61 velocity=95 time=0
EXTRACT: note_off channel=13 note=36 velocity=95 time=0
EXTRACT: note_on channel=13 note=37 velocity=95 time=0
EXTRACT: note_off channel=9 note=61 velocity=95 time=0
EXTRACT: note_on channel=9 note=60 velocity=95 time=0
EXTRACT: note_off channel=9 note=51 velocity=95 time=0
EXTRACT: note_on channel=9 note=51 velocity=95 time=0
EXTRACT: note_on channel=9 note=35 velocity=95 time=0
EXTRACT: note_off channel=0 note=61 velocity=95 time=0.24
EXTRACT: note_on channel=0 note=64 velocity=95 time=0
EXTRACT: note_on channel=4 note=59 velocity=95 time=0
EXTRACT: note_off channel=8 note=61 velocity=95 time=0
EXTRACT: note_on channel=8 note=64 velocity=95 time=0
EXTRACT: note_off channel=13 note=37 velocity=95 time=0
EXTRACT: note_on channel=13 note=32 velocity=95 time=0
EXTRACT: note_off channel=9 note=60 velocity=95 time=0
EXTRACT: note_on channel=9 note=60 velocity=95 time=0
EXTRACT: note_off channel=9 note=51 velocity=95 time=0
EXTRACT: note_off channel=9 note=35 velocity=95 time=0
EXTRACT: note_on channel=9 note=51 velocity=95 time=0
EXTRACT: note_off channel=0 note=64 velocity=95 time=0.24
EXTRACT: note_on channel=0 note=66 velocity=95 time=0
EXTRACT: note_off channel=4 note=59 velocity=95 time=0
EXTRACT: note_on channel=4 note=59 velocity=95 time=0
EXTRACT: note_off channel=8 note=64 velocity=95 time=0
EXTRACT: note_on channel=8 note=66 velocity=95 time=0
EXTRACT: note_off channel=13 note=32 velocity=95 time=0
EXTRACT: note_on channel=13 note=28 velocity=95 time=0
EXTRACT: note_off channel=9 note=60 velocity=95 time=0
EXTRACT: note_on channel=9 note=61 velocity=95 time=0
EXTRACT: note_off channel=9 note=51 velocity=95 time=0
EXTRACT: note_on channel=9 note=51 velocity=95 time=0
EXTRACT: note_on channel=9 note=38 velocity=95 time=0
EXTRACT: note_on channel=9 note=35 velocity=95 time=0
EXTRACT: note_off channel=0 note=66 velocity=95 time=0.24
EXTRACT: note_on channel=0 note=59 velocity=95 time=0
EXTRACT: note_off channel=2 note=71 velocity=95 time=0
EXTRACT: note_off channel=2 note=68 velocity=95 time=0
EXTRACT: note_off channel=2 note=64 velocity=95 time=0
EXTRACT: note_on channel=2 note=69 velocity=95 time=0
EXTRACT: note_on channel=2 note=64 velocity=95 time=0
EXTRACT: note_on channel=2 note=61 velocity=95 time=0
EXTRACT: note_off channel=4 note=59 velocity=95 time=0
EXTRACT: note_on channel=4 note=56 velocity=95 time=0
EXTRACT: note_off channel=8 note=66 velocity=95 time=0
EXTRACT: note_on channel=8 note=57 velocity=95 time=0
EXTRACT: note_off channel=13 note=28 velocity=95 time=0
EXTRACT: note_off channel=9 note=61 velocity=95 time=0
EXTRACT: note_on channel=9 note=60 velocity=95 time=0
EXTRACT: note_off channel=9 note=51 velocity=95 time=0
EXTRACT: note_off channel=9 note=38 velocity=95 time=0
EXTRACT: note_off channel=9 note=35 velocity=95 time=0
EXTRACT: note_on channel=9 note=51 velocity=95 time=0
EXTRACT: note_off channel=0 note=59 velocity=95 time=0.24
EXTRACT: note_on channel=0 note=57 velocity=70 time=0
EXTRACT: note_off channel=8 note=57 velocity=95 time=0
EXTRACT: note_on channel=8 note=59 velocity=95 time=0
EXTRACT: note_on channel=13 note=30 velocity=95 time=0
EXTRACT: note_off channel=9 note=60 velocity=95 time=0
EXTRACT: note_on channel=9 note=60 velocity=95 time=0
EXTRACT: note_off channel=9 note=51 velocity=95 time=0
EXTRACT: note_on channel=9 note=51 velocity=95 time=0
EXTRACT: note_on channel=9 note=35 velocity=95 time=0
EXTRACT: note_off channel=4 note=56 velocity=95 time=0.24
EXTRACT: note_on channel=4 note=57 velocity=95 time=0
EXTRACT: note_off channel=8 note=59 velocity=95 time=0
EXTRACT: note_on channel=8 note=61 velocity=95 time=0
EXTRACT: note_off channel=13 note=30 velocity=95 time=0
EXTRACT: note_off channel=9 note=60 velocity=95 time=0
EXTRACT: note_on channel=9 note=60 velocity=95 time=0
EXTRACT: note_off channel=9 note=51 velocity=95 time=0
EXTRACT: note_off channel=9 note=35 velocity=95 time=0
EXTRACT: note_on channel=9 note=51 velocity=95 time=0
EXTRACT: note_off channel=0 note=57 velocity=70 time=0.24
EXTRACT: note_on channel=0 note=61 velocity=95 time=0
EXTRACT: note_off channel=4 note=57 velocity=95 time=0
EXTRACT: note_off channel=8 note=61 velocity=95 time=0
EXTRACT: note_on channel=8 note=64 velocity=95 time=0
EXTRACT: note_on channel=13 note=33 velocity=95 time=0
EXTRACT: note_off channel=9 note=60 velocity=95 time=0
EXTRACT: note_on channel=9 note=60 velocity=95 time=0
EXTRACT: note_off channel=9 note=51 velocity=95 time=0
EXTRACT: note_on channel=9 note=51 velocity=95 time=0
EXTRACT: note_on channel=9 note=38 velocity=95 time=0
EXTRACT: note_on channel=9 note=35 velocity=95 time=0
EXTRACT: note_off channel=0 note=61 velocity=95 time=0.24
EXTRACT: note_on channel=0 note=61 velocity=95 time=0
EXTRACT: note_on channel=4 note=50 velocity=95 time=0
EXTRACT: note_off channel=8 note=64 velocity=95 time=0
EXTRACT: note_on channel=8 note=66 velocity=95 time=0
EXTRACT: note_off channel=13 note=33 velocity=95 time=0
EXTRACT: note_on channel=13 note=35 velocity=95 time=0
EXTRACT: note_off channel=9 note=60 velocity=95 time=0
EXTRACT: note_on channel=9 note=61 velocity=95 time=0
EXTRACT: note_off channel=9 note=51 velocity=95 time=0
EXTRACT: note_off channel=9 note=38 velocity=95 time=0
EXTRACT: note_off channel=9 note=35 velocity=95 time=0
EXTRACT: note_on channel=9 note=51 velocity=95 time=0
EXTRACT: note_off channel=4 note=50 velocity=95 time=0.031
EXTRACT: note_off channel=0 note=61 velocity=95 time=0.209
EXTRACT: note_on channel=0 note=61 velocity=95 time=0
EXTRACT: note_off channel=2 note=69 velocity=95 time=0
EXTRACT: note_off channel=2 note=64 velocity=95 time=0
EXTRACT: note_off channel=2 note=61 velocity=95 time=0
EXTRACT: note_on channel=2 note=73 velocity=95 time=0
EXTRACT: note_on channel=2 note=69 velocity=95 time=0
EXTRACT: note_on channel=2 note=66 velocity=95 time=0
EXTRACT: note_on channel=5 note=61 velocity=47 time=0
EXTRACT: note_off channel=13 note=35 velocity=95 time=0
EXTRACT: note_on channel=13 note=38 velocity=95 time=0
EXTRACT: note_off channel=9 note=61 velocity=95 time=0
EXTRACT: note_on channel=9 note=60 velocity=95 time=0
EXTRACT: note_off channel=9 note=51 velocity=95 time=0
EXTRACT: note_on channel=9 note=51 velocity=95 time=0
EXTRACT: note_on channel=9 note=35 velocity=95 time=0
EXTRACT: pitchwheel channel=5 pitch=0 time=0.06
EXTRACT: pitchwheel channel=5 pitch=0 time=0.06
EXTRACT: pitchwheel channel=5 pitch=0 time=0.06
EXTRACT: note_off channel=2 note=73 velocity=95 time=0.06
EXTRACT: note_off channel=2 note=69 velocity=95 time=0
EXTRACT: note_off channel=2 note=66 velocity=95 time=0
EXTRACT: note_on channel=2 note=73 velocity=95 time=0
EXTRACT: note_on channel=2 note=69 velocity=95 time=0
EXTRACT: note_on channel=2 note=66 velocity=95 time=0
EXTRACT: pitchwheel channel=5 pitch=0 time=0
EXTRACT: pitchwheel channel=5 pitch=0 time=0
EXTRACT: note_off channel=5 note=61 velocity=47 time=0
EXTRACT: note_on channel=4 note=61 velocity=95 time=0
EXTRACT: note_off channel=13 note=38 velocity=95 time=0
EXTRACT: note_on channel=13 note=38 velocity=95 time=0
EXTRACT: note_off channel=9 note=60 velocity=95 time=0
EXTRACT: note_on channel=9 note=60 velocity=95 time=0
EXTRACT: note_off channel=9 note=51 velocity=95 time=0
EXTRACT: note_off channel=9 note=35 velocity=95 time=0
EXTRACT: note_on channel=9 note=51 velocity=95 time=0
EXTRACT: note_off channel=0 note=61 velocity=95 time=0.24
EXTRACT: note_off channel=2 note=73 velocity=95 time=0
EXTRACT: note_off channel=2 note=69 velocity=95 time=0
EXTRACT: note_off channel=2 note=66 velocity=95 time=0
EXTRACT: note_on channel=2 note=73 velocity=95 time=0
EXTRACT: note_on channel=2 note=69 velocity=95 time=0
EXTRACT: note_on channel=2 note=66 velocity=95 time=0
EXTRACT: note_off channel=4 note=61 velocity=95 time=0
EXTRACT: note_off channel=13 note=38 velocity=95 time=0
EXTRACT: note_on channel=13 note=38 velocity=95 time=0
EXTRACT: note_off channel=9 note=60 velocity=95 time=0
EXTRACT: note_on channel=9 note=61 velocity=95 time=0
EXTRACT: note_off channel=9 note=51 velocity=95 time=0
EXTRACT: note_on channel=9 note=51 velocity=95 time=0
EXTRACT: note_on channel=9 note=38 velocity=95 time=0
EXTRACT: note_on channel=9 note=35 velocity=95 time=0
EXTRACT: note_off channel=2 note=73 velocity=95 time=0.24
EXTRACT: note_off channel=2 note=69 velocity=95 time=0
EXTRACT: note_off channel=2 note=66 velocity=95 time=0
EXTRACT: note_on channel=2 note=71 velocity=95 time=0
EXTRACT: note_on channel=2 note=68 velocity=95 time=0
EXTRACT: note_on channel=2 note=64 velocity=95 time=0
EXTRACT: note_on channel=4 note=59 velocity=95 time=0
EXTRACT: note_off channel=13 note=38 velocity=95 time=0
EXTRACT: note_on channel=13 note=37 velocity=95 time=0
EXTRACT: note_off channel=9 note=61 velocity=95 time=0
EXTRACT: note_on channel=9 note=60 velocity=95 time=0
EXTRACT: note_off channel=9 note=51 velocity=95 time=0
EXTRACT: note_off channel=9 note=38 velocity=95 time=0
EXTRACT: note_off channel=9 note=35 velocity=95 time=0
EXTRACT: note_on channel=9 note=51 velocity=95 time=0
EXTRACT: note_off channel=2 note=71 velocity=95 time=0.24
EXTRACT: note_off channel=2 note=68 velocity=95 time=0
EXTRACT: note_off channel=2 note=64 velocity=95 time=0
EXTRACT: note_off channel=4 note=59 velocity=95 time=0
EXTRACT: note_off channel=13 note=37 velocity=95 time=0
EXTRACT: note_off channel=9 note=60 velocity=95 time=0
EXTRACT: note_on channel=9 note=60 velocity=95 time=0
EXTRACT: note_off channel=9 note=51 velocity=95 time=0
EXTRACT: note_on channel=9 note=51 velocity=95 time=0
EXTRACT: note_on channel=9 note=35 velocity=95 time=0
EXTRACT: note_on channel=2 note=69 velocity=95 time=0.24
EXTRACT: note_on channel=2 note=66 velocity=95 time=0
EXTRACT: note_on channel=2 note=62 velocity=95 time=0
EXTRACT: note_on channel=4 note=57 velocity=95 time=0
EXTRACT: note_on channel=13 note=35 velocity=95 time=0
EXTRACT: note_off channel=9 note=60 velocity=95 time=0
EXTRACT: note_on channel=9 note=60 velocity=95 time=0
EXTRACT: note_off channel=9 note=51 velocity=95 time=0
EXTRACT: note_off channel=9 note=35 velocity=95 time=0
EXTRACT: note_on channel=9 note=51 velocity=95 time=0
EXTRACT: note_on channel=0 note=57 velocity=95 time=0.24
EXTRACT: note_off channel=4 note=57 velocity=95 time=0
EXTRACT: note_off channel=13 note=35 velocity=95 time=0
EXTRACT: note_off channel=9 note=60 velocity=95 time=0
EXTRACT: note_on channel=9 note=60 velocity=95 time=0
EXTRACT: note_off channel=9 note=51 velocity=95 time=0
EXTRACT: note_on channel=9 note=51 velocity=95 time=0
EXTRACT: note_on channel=9 note=38 velocity=95 time=0
EXTRACT: note_on channel=9 note=35 velocity=95 time=0
EXTRACT: note_off channel=0 note=57 velocity=95 time=0.24
EXTRACT: note_on channel=0 note=59 velocity=95 time=0
EXTRACT: note_off channel=2 note=69 velocity=95 time=0
EXTRACT: note_off channel=2 note=66 velocity=95 time=0
EXTRACT: note_off channel=2 note=62 velocity=95 time=0
EXTRACT: note_on channel=2 note=71 velocity=95 time=0
EXTRACT: note_on channel=2 note=68 velocity=95 time=0
EXTRACT: note_on channel=2 note=65 velocity=95 time=0
EXTRACT: note_on channel=4 note=59 velocity=95 time=0
EXTRACT: note_on channel=13 note=36 velocity=95 time=0
EXTRACT: note_off channel=9 note=60 velocity=95 time=0
EXTRACT: note_on channel=9 note=61 velocity=95 time=0
EXTRACT: note_off channel=9 note=51 velocity=95 time=0
EXTRACT: note_off channel=9 note=38 velocity=95 time=0
EXTRACT: note_off channel=9 note=35 velocity=95 time=0
EXTRACT: note_on channel=9 note=51 velocity=95 time=0
EXTRACT: note_off channel=0 note=59 velocity=95 time=0.24
EXTRACT: note_on channel=0 note=61 velocity=95 time=0
EXTRACT: note_off channel=4 note=59 velocity=95 time=0
EXTRACT: note_off channel=8 note=66 velocity=95 time=0
EXTRACT: note_on channel=8 note=73 velocity=95 time=0
EXTRACT: note_off channel=13 note=36 velocity=95 time=0
EXTRACT: note_on channel=13 note=37 velocity=95 time=0
EXTRACT: note_off channel=9 note=61 velocity=95 time=0
EXTRACT: note_on channel=9 note=60 velocity=95 time=0
EXTRACT: note_off channel=9 note=51 velocity=95 time=0
EXTRACT: note_on channel=9 note=51 velocity=95 time=0
EXTRACT: note_on channel=9 note=35 velocity=95 time=0
EXTRACT: note_off channel=0 note=61 velocity=95 time=0.24
EXTRACT: note_on channel=0 note=64 velocity=95 time=0
EXTRACT: note_on channel=4 note=59 velocity=95 time=0
EXTRACT: note_off channel=8 note=73 velocity=95 time=0
EXTRACT: note_on channel=8 note=74 velocity=95 time=0
EXTRACT: note_off channel=13 note=37 velocity=95 time=0
EXTRACT: note_on channel=13 note=40 velocity=95 time=0
EXTRACT: note_off channel=9 note=60 velocity=95 time=0
EXTRACT: note_on channel=9 note=60 velocity=95 time=0
EXTRACT: note_off channel=9 note=51 velocity=95 time=0
EXTRACT: note_off channel=9 note=35 velocity=95 time=0
EXTRACT: note_on channel=9 note=51 velocity=95 time=0
EXTRACT: note_off channel=0 note=64 velocity=95 time=0.24
EXTRACT: note_on channel=0 note=66 velocity=95 time=0
EXTRACT: note_off channel=4 note=59 velocity=95 time=0
EXTRACT: note_off channel=8 note=74 velocity=95 time=0
EXTRACT: note_on channel=8 note=73 velocity=95 time=0
EXTRACT: note_off channel=13 note=40 velocity=95 time=0
EXTRACT: note_on channel=13 note=41 velocity=95 time=0
EXTRACT: note_off channel=9 note=60 velocity=95 time=0
EXTRACT: note_on channel=9 note=61 velocity=95 time=0
EXTRACT: note_off channel=9 note=51 velocity=95 time=0
EXTRACT: note_on channel=9 note=51 velocity=95 time=0
EXTRACT: note_on channel=9 note=38 velocity=95 time=0
EXTRACT: note_on channel=9 note=35 velocity=95 time=0
EXTRACT: note_off channel=0 note=66 velocity=95 time=0.24
EXTRACT: note_on channel=0 note=59 velocity=95 time=0
EXTRACT: note_off channel=2 note=71 velocity=95 time=0
EXTRACT: note_off channel=2 note=68 velocity=95 time=0
EXTRACT: note_off channel=2 note=65 velocity=95 time=0
EXTRACT: note_on channel=2 note=69 velocity=95 time=0
EXTRACT: note_on channel=2 note=64 velocity=95 time=0
EXTRACT: note_on channel=2 note=61 velocity=95 time=0
EXTRACT: note_on channel=4 note=56 velocity=95 time=0
EXTRACT: note_off channel=8 note=73 velocity=95 time=0
EXTRACT: note_on channel=8 note=71 velocity=95 time=0
EXTRACT: note_off channel=13 note=41 velocity=95 time=0
EXTRACT: note_off channel=9 note=61 velocity=95 time=0
EXTRACT: note_on channel=9 note=60 velocity=95 time=0
EXTRACT: note_off channel=9 note=51 velocity=95 time=0
EXTRACT: note_off channel=9 note=38 velocity=95 time=0
EXTRACT: note_off channel=9 note=35 velocity=95 time=0
EXTRACT: note_on channel=9 note=51 velocity=95 time=0
EXTRACT: note_off channel=0 note=59 velocity=95 time=0.24
EXTRACT: note_on channel=0 note=57 velocity=70 time=0
EXTRACT: note_off channel=8 note=71 velocity=95 time=0
EXTRACT: note_on channel=8 note=69 velocity=95 time=0
EXTRACT: note_on channel=13 note=42 velocity=95 time=0
EXTRACT: note_off channel=9 note=60 velocity=95 time=0
EXTRACT: note_on channel=9 note=60 velocity=95 time=0
EXTRACT: note_off channel=9 note=51 velocity=95 time=0
EXTRACT: note_on channel=9 note=51 velocity=95 time=0
EXTRACT: note_on channel=9 note=35 velocity=95 time=0
EXTRACT: note_off channel=4 note=56 velocity=95 time=0.24
EXTRACT: note_on channel=4 note=57 velocity=95 time=0
EXTRACT: note_off channel=13 note=42 velocity=95 time=0
EXTRACT: note_off channel=9 note=60 velocity=95 time=0
EXTRACT: note_on channel=9 note=60 velocity=95 time=0
EXTRACT: note_off channel=9 note=51 velocity=95 time=0
EXTRACT: note_off channel=9 note=35 velocity=95 time=0
EXTRACT: note_on channel=9 note=51 velocity=95 time=0
EXTRACT: note_off channel=0 note=57 velocity=70 time=0.24
EXTRACT: note_on channel=0 note=57 velocity=95 time=0
EXTRACT: note_off channel=4 note=57 velocity=95 time=0
EXTRACT: note_off channel=8 note=69 velocity=95 time=0
EXTRACT: note_on channel=8 note=66 velocity=95 time=0
EXTRACT: note_on channel=13 note=37 velocity=95 time=0
EXTRACT: note_off channel=9 note=60 velocity=95 time=0
EXTRACT: note_on channel=9 note=60 velocity=95 time=0
EXTRACT: note_off channel=9 note=51 velocity=95 time=0
EXTRACT: note_on channel=9 note=51 velocity=95 time=0
EXTRACT: note_on channel=9 note=38 velocity=95 time=0
EXTRACT: note_on channel=9 note=35 velocity=95 time=0
EXTRACT: note_off channel=0 note=57 velocity=95 time=0.24
EXTRACT: note_on channel=0 note=59 velocity=95 time=0
EXTRACT: note_off channel=8 note=66 velocity=95 time=0
EXTRACT: note_on channel=8 note=71 velocity=95 time=0
EXTRACT: note_on channel=11 note=57 velocity=95 time=0
EXTRACT: note_off channel=13 note=37 velocity=95 time=0
EXTRACT: note_on channel=13 note=35 velocity=95 time=0
EXTRACT: note_off channel=9 note=60 velocity=95 time=0
EXTRACT: note_on channel=9 note=61 velocity=95 time=0
EXTRACT: note_off channel=9 note=51 velocity=95 time=0
EXTRACT: note_off channel=9 note=38 velocity=95 time=0
EXTRACT: note_off channel=9 note=35 velocity=95 time=0
EXTRACT: note_on channel=9 note=51 velocity=95 time=0
EXTRACT: note_off channel=11 note=57 velocity=95 time=0.12
EXTRACT: note_on channel=11 note=57 velocity=95 time=0
EXTRACT: note_off channel=0 note=59 velocity=95 time=0.12
EXTRACT: note_on channel=0 note=57 velocity=70 time=0
EXTRACT: note_off channel=2 note=69 velocity=95 time=0
EXTRACT: note_off channel=2 note=64 velocity=95 time=0
EXTRACT: note_off channel=2 note=61 velocity=95 time=0
EXTRACT: note_on channel=2 note=69 velocity=95 time=0
EXTRACT: note_on channel=2 note=67 velocity=95 time=0
EXTRACT: note_on channel=2 note=62 velocity=95 time=0
EXTRACT: note_on channel=2 note=59 velocity=95 time=0
EXTRACT: note_off channel=11 note=57 velocity=95 time=0
EXTRACT: note_off channel=13 note=35 velocity=95 time=0
EXTRACT: note_on channel=13 note=33 velocity=95 time=0
EXTRACT: note_off channel=9 note=61 velocity=95 time=0
EXTRACT: note_on channel=9 note=60 velocity=95 time=0
EXTRACT: note_off channel=9 note=51 velocity=95 time=0
EXTRACT: note_on channel=9 note=51 velocity=95 time=0
EXTRACT: note_on channel=9 note=35 velocity=95 time=0
EXTRACT: note_off channel=13 note=33 velocity=95 time=0.12
EXTRACT: note_off channel=8 note=71 velocity=95 time=0.12
EXTRACT: note_on channel=8 note=69 velocity=95 time=0
EXTRACT: note_on channel=13 note=33 velocity=95 time=0
EXTRACT: note_off channel=9 note=60 velocity=95 time=0
EXTRACT: note_on channel=9 note=60 velocity=95 time=0
EXTRACT: note_off channel=9 note=51 velocity=95 time=0
EXTRACT: note_off channel=9 note=35 velocity=95 time=0
EXTRACT: note_on channel=9 note=51 velocity=95 time=0
EXTRACT: note_off channel=13 note=33 velocity=95 time=0.24
EXTRACT: note_on channel=13 note=55 velocity=95 time=0
EXTRACT: note_off channel=9 note=60 velocity=95 time=0
EXTRACT: note_on channel=9 note=61 velocity=95 time=0
EXTRACT: note_off channel=9 note=51 velocity=95 time=0
EXTRACT: note_on channel=9 note=51 velocity=95 time=0
EXTRACT: note_on channel=9 note=38 velocity=95 time=0
EXTRACT: note_on channel=9 note=35 velocity=95 time=0
EXTRACT: note_off channel=13 note=55 velocity=95 time=0.24
EXTRACT: note_on channel=13 note=57 velocity=95 time=0
EXTRACT: note_off channel=9 note=61 velocity=95 time=0
EXTRACT: note_on channel=9 note=60 velocity=95 time=0
EXTRACT: note_off channel=9 note=51 velocity=95 time=0
EXTRACT: note_off channel=9 note=38 velocity=95 time=0
EXTRACT: note_off channel=9 note=35 velocity=95 time=0
EXTRACT: note_on channel=9 note=51 velocity=95 time=0
EXTRACT: note_off channel=0 note=57 velocity=70 time=0.24
EXTRACT: note_on channel=0 note=57 velocity=95 time=0
EXTRACT: note_off channel=13 note=57 velocity=95 time=0
EXTRACT: note_on channel=13 note=33 velocity=95 time=0
EXTRACT: note_off channel=9 note=60 velocity=95 time=0
EXTRACT: note_on channel=9 note=60 velocity=95 time=0
EXTRACT: note_off channel=9 note=51 velocity=95 time=0
EXTRACT: note_on channel=9 note=51 velocity=95 time=0
EXTRACT: note_on channel=9 note=35 velocity=95 time=0
EXTRACT: note_off channel=13 note=33 velocity=95 time=0.12
EXTRACT: note_off channel=0 note=57 velocity=95 time=0.12
EXTRACT: note_on channel=0 note=54 velocity=70 time=0
EXTRACT: note_on channel=13 note=33 velocity=95 time=0
EXTRACT: note_off channel=9 note=60 velocity=95 time=0
EXTRACT: note_on channel=9 note=60 velocity=95 time=0
EXTRACT: note_off channel=9 note=51 velocity=95 time=0
EXTRACT: note_off channel=9 note=35 velocity=95 time=0
EXTRACT: note_on channel=9 note=51 velocity=95 time=0
EXTRACT: note_off channel=0 note=54 velocity=70 time=0.24
EXTRACT: note_on channel=1 note=54 velocity=47 time=0
EXTRACT: note_off channel=13 note=33 velocity=95 time=0
EXTRACT: note_on channel=13 note=55 velocity=95 time=0
EXTRACT: note_off channel=9 note=60 velocity=95 time=0
EXTRACT: note_on channel=9 note=60 velocity=95 time=0
EXTRACT: note_off channel=9 note=51 velocity=95 time=0
EXTRACT: note_on channel=9 note=51 velocity=95 time=0
EXTRACT: note_on channel=9 note=38 velocity=95 time=0
EXTRACT: note_on channel=9 note=35 velocity=95 time=0
EXTRACT: note_off channel=13 note=55 velocity=95 time=0.24
EXTRACT: note_on channel=13 note=57 velocity=95 time=0
EXTRACT: note_off channel=9 note=60 velocity=95 time=0
EXTRACT: note_on channel=9 note=61 velocity=95 time=0
EXTRACT: note_off channel=9 note=51 velocity=95 time=0
EXTRACT: note_off channel=9 note=38 velocity=95 time=0
EXTRACT: note_off channel=9 note=35 velocity=95 time=0
EXTRACT: note_on channel=9 note=51 velocity=95 time=0
EXTRACT: note_off channel=1 note=54 velocity=47 time=0.24
EXTRACT: pitchwheel channel=1 pitch=0 time=0
EXTRACT: note_on channel=1 note=47 velocity=47 time=0
EXTRACT: note_off channel=2 note=69 velocity=95 time=0
EXTRACT: note_off channel=2 note=67 velocity=95 time=0
EXTRACT: note_off channel=2 note=62 velocity=95 time=0
EXTRACT: note_off channel=2 note=59 velocity=95 time=0
EXTRACT: note_on channel=2 note=69 velocity=95 time=0
EXTRACT: note_on channel=2 note=67 velocity=95 time=0
EXTRACT: note_on channel=2 note=62 velocity=95 time=0
EXTRACT: note_on channel=2 note=59 velocity=95 time=0
EXTRACT: note_off channel=13 note=57 velocity=95 time=0
EXTRACT: note_on channel=13 note=33 velocity=95 time=0
EXTRACT: note_off channel=9 note=61 velocity=95 time=0
EXTRACT: note_on channel=9 note=60 velocity=95 time=0
EXTRACT: note_off channel=9 note=51 velocity=95 time=0
EXTRACT: note_on channel=9 note=51 velocity=95 time=0
EXTRACT: note_on channel=9 note=35 velocity=95 time=0
EXTRACT: pitchwheel channel=1 pitch=-128 time=0.021500000000000002
EXTRACT: pitchwheel channel=1 pitch=-256 time=0.021500000000000002
EXTRACT: pitchwheel channel=1 pitch=-384 time=0.021500000000000002
EXTRACT: pitchwheel channel=1 pitch=-512 time=0.021500000000000002
EXTRACT: pitchwheel channel=1 pitch=-640 time=0.021500000000000002
EXTRACT: note_off channel=13 note=33 velocity=95 time=0.0125
EXTRACT: pitchwheel channel=1 pitch=-768 time=0.009000000000000001
EXTRACT: pitchwheel channel=1 pitch=-896 time=0.021500000000000002
EXTRACT: pitchwheel channel=1 pitch=-1024 time=0.021500000000000002
EXTRACT: pitchwheel channel=1 pitch=-1152 time=0.021500000000000002
EXTRACT: pitchwheel channel=1 pitch=-1280 time=0.021500000000000002
EXTRACT: pitchwheel channel=1 pitch=-1408 time=0.021500000000000002
EXTRACT: note_on channel=13 note=33 velocity=95 time=0.0035
EXTRACT: note_off channel=9 note=60 velocity=95 time=0
EXTRACT: note_on channel=9 note=60 velocity=95 time=0
EXTRACT: note_off channel=9 note=51 velocity=95 time=0
EXTRACT: note_off channel=9 note=35 velocity=95 time=0
EXTRACT: note_on channel=9 note=51 velocity=95 time=0
EXTRACT: pitchwheel channel=1 pitch=-1536 time=0.018000000000000002
EXTRACT: pitchwheel channel=1 pitch=-1664 time=0.021500000000000002
EXTRACT: pitchwheel channel=1 pitch=-1792 time=0.021500000000000002
EXTRACT: pitchwheel channel=1 pitch=-1920 time=0.021500000000000002
EXTRACT: pitchwheel channel=1 pitch=-2048 time=0.021500000000000002
EXTRACT: pitchwheel channel=1 pitch=-2176 time=0.021500000000000002
EXTRACT: pitchwheel channel=1 pitch=-2304 time=0.021500000000000002
EXTRACT: pitchwheel channel=1 pitch=-2432 time=0.021500000000000002
EXTRACT: pitchwheel channel=1 pitch=-2560 time=0.021500000000000002
EXTRACT: pitchwheel channel=1 pitch=-2688 time=0.021500000000000002
EXTRACT: pitchwheel channel=1 pitch=-2816 time=0.021500000000000002
EXTRACT: pitchwheel channel=1 pitch=-2816 time=0.007
EXTRACT: note_off channel=13 note=33 velocity=95 time=0
EXTRACT: note_on channel=13 note=55 velocity=95 time=0
EXTRACT: note_off channel=9 note=60 velocity=95 time=0
EXTRACT: note_on channel=9 note=61 velocity=95 time=0
EXTRACT: note_off channel=9 note=51 velocity=95 time=0
EXTRACT: note_on channel=9 note=51 velocity=95 time=0
EXTRACT: note_on channel=9 note=38 velocity=95 time=0
EXTRACT: note_on channel=9 note=35 velocity=95 time=0
EXTRACT: note_off channel=13 note=55 velocity=95 time=0.24
EXTRACT: note_on channel=13 note=57 velocity=95 time=0
EXTRACT: note_off channel=9 note=61 velocity=95 time=0
EXTRACT: note_on channel=9 note=60 velocity=95 time=0
EXTRACT: note_off channel=9 note=51 velocity=95 time=0
EXTRACT: note_off channel=9 note=38 velocity=95 time=0
EXTRACT: note_off channel=9 note=35 velocity=95 time=0
EXTRACT: note_on channel=9 note=51 velocity=95 time=0
EXTRACT: note_off channel=13 note=57 velocity=95 time=0.24
EXTRACT: note_on channel=13 note=33 velocity=95 time=0
EXTRACT: note_off channel=9 note=60 velocity=95 time=0
EXTRACT: note_on channel=9 note=60 velocity=95 time=0
EXTRACT: note_off channel=9 note=51 velocity=95 time=0
EXTRACT: note_on channel=9 note=51 velocity=95 time=0
EXTRACT: note_on channel=9 note=35 velocity=95 time=0
EXTRACT: note_off channel=13 note=33 velocity=95 time=0.24
EXTRACT: note_off channel=9 note=60 velocity=95 time=0
EXTRACT: note_on channel=9 note=60 velocity=95 time=0
EXTRACT: note_off channel=9 note=51 velocity=95 time=0.12
EXTRACT: note_off channel=9 note=35 velocity=95 time=0
EXTRACT: note_on channel=9 note=38 velocity=95 time=0
EXTRACT: pitchwheel channel=1 pitch=-2816 time=0.12
EXTRACT: note_on channel=4 note=69 velocity=95 time=0
EXTRACT: note_on channel=4 note=64 velocity=95 time=0
EXTRACT: note_on channel=4 note=61 velocity=95 time=0
EXTRACT: note_on channel=4 note=57 velocity=95 time=0
EXTRACT: note_on channel=13 note=35 velocity=95 time=0
EXTRACT: note_off channel=9 note=60 velocity=95 time=0
EXTRACT: note_on channel=9 note=60 velocity=95 time=0
EXTRACT: note_off channel=9 note=38 velocity=95 time=0
EXTRACT: note_on channel=9 note=38 velocity=95 time=0
EXTRACT: note_on channel=9 note=35 velocity=95 time=0
EXTRACT: note_off channel=13 note=35 velocity=95 time=0.24
EXTRACT: note_off channel=9 note=60 velocity=95 time=0
EXTRACT: note_on channel=9 note=61 velocity=95 time=0
EXTRACT: note_off channel=9 note=38 velocity=95 time=0
EXTRACT: note_off channel=9 note=35 velocity=95 time=0
EXTRACT: note_on channel=9 note=48 velocity=95 time=0
EXTRACT: pitchwheel channel=1 pitch=-2816 time=0.24
EXTRACT: pitchwheel channel=1 pitch=0 time=0
EXTRACT: note_off channel=1 note=47 velocity=47 time=0
EXTRACT: note_on channel=0 note=73 velocity=95 time=0
EXTRACT: note_on channel=15 note=73 velocity=95 time=0
EXTRACT: note_off channel=2 note=69 velocity=95 time=0
EXTRACT: note_off channel=2 note=67 velocity=95 time=0
EXTRACT: note_off channel=2 note=62 velocity=95 time=0
EXTRACT: note_off channel=2 note=59 velocity=95 time=0
EXTRACT: note_on channel=2 note=69 velocity=95 time=0
EXTRACT: note_on channel=2 note=66 velocity=95 time=0
EXTRACT: note_on channel=2 note=62 velocity=95 time=0
EXTRACT: note_off channel=4 note=69 velocity=95 time=0
EXTRACT: note_off channel=4 note=64 velocity=95 time=0
EXTRACT: note_off channel=4 note=61 velocity=95 time=0
EXTRACT: note_off channel=4 note=57 velocity=95 time=0
EXTRACT: note_off channel=8 note=69 velocity=95 time=0
EXTRACT: note_on channel=8 note=69 velocity=95 time=0
EXTRACT: note_on channel=13 note=35 velocity=95 time=0
EXTRACT: note_off channel=9 note=61 velocity=95 time=0
EXTRACT: note_on channel=9 note=60 velocity=95 time=0
EXTRACT: note_off channel=9 note=48 velocity=95 time=0
EXTRACT: note_on channel=9 note=57 velocity=95 time=0
EXTRACT: note_on channel=9 note=35 velocity=95 time=0
EXTRACT: note_on channel=4 note=61 velocity=95 time=0.24
EXTRACT: note_on channel=11 note=69 velocity=95 time=0
EXTRACT: note_off channel=9 note=60 velocity=95 time=0
EXTRACT: note_on channel=9 note=60 velocity=95 time=0
EXTRACT: note_off channel=9 note=57 velocity=95 time=0
EXTRACT: note_off channel=9 note=35 velocity=95 time=0
EXTRACT: note_on channel=9 note=51 velocity=95 time=0
EXTRACT: note_off channel=0 note=73 velocity=95 time=0.24
EXTRACT: note_on channel=0 note=74 velocity=95 time=0
EXTRACT: note_off channel=15 note=73 velocity=95 time=0
EXTRACT: note_on channel=15 note=74 velocity=95 time=0
EXTRACT: note_off channel=4 note=61 velocity=95 time=0
EXTRACT: note_off channel=11 note=69 velocity=95 time=0
EXTRACT: note_off channel=13 note=35 velocity=95 time=0
EXTRACT: note_on channel=13 note=42 velocity=95 time=0
EXTRACT: note_off channel=9 note=60 velocity=95 time=0
EXTRACT: note_on channel=9 note=61 velocity=95 time=0
EXTRACT: note_off channel=9 note=51 velocity=95 time=0
EXTRACT: note_on channel=9 note=51 velocity=95 time=0
EXTRACT: note_on channel=9 note=38 velocity=95 time=0
EXTRACT: note_on channel=9 note=35 velocity=95 time=0
EXTRACT: note_off channel=0 note=74 velocity=95 time=0.24
EXTRACT: note_on channel=0 note=73 velocity=95 time=0
EXTRACT: note_off channel=15 note=74 velocity=95 time=0
EXTRACT: note_on channel=15 note=73 velocity=95 time=0
EXTRACT: note_off channel=2 note=69 velocity=95 time=0
EXTRACT: note_off channel=2 note=66 velocity=95 time=0
EXTRACT: note_off channel=2 note=62 velocity=95 time=0
EXTRACT: note_on channel=2 note=68 velocity=95 time=0
EXTRACT: note_on channel=2 note=62 velocity=95 time=0
EXTRACT: note_on channel=2 note=59 velocity=95 time=0
EXTRACT: note_on channel=4 note=59 velocity=95 time=0
EXTRACT: note_off channel=8 note=69 velocity=95 time=0
EXTRACT: note_on channel=8 note=68 velocity=95 time=0
EXTRACT: note_off channel=13 note=42 velocity=95 time=0
EXTRACT: note_on channel=13 note=40 velocity=95 time=0
EXTRACT: note_off channel=9 note=61 velocity=95 time=0
EXTRACT: note_on channel=9 note=60 velocity=95 time=0
EXTRACT: note_off channel=9 note=51 velocity=95 time=0
EXTRACT: note_off channel=9 note=38 velocity=95 time=0
EXTRACT: note_off channel=9 note=35 velocity=95 time=0
EXTRACT: note_on channel=9 note=51 velocity=95 time=0
EXTRACT: note_off channel=4 note=59 velocity=95 time=0.24
EXTRACT: note_off channel=13 note=40 velocity=95 time=0
EXTRACT: note_off channel=9 note=60 velocity=95 time=0
EXTRACT: note_on channel=9 note=60 velocity=95 time=0
EXTRACT: note_off channel=9 note=51 velocity=95 time=0
EXTRACT: note_on channel=9 note=51 velocity=95 time=0
EXTRACT: note_on channel=9 note=35 velocity=95 time=0
EXTRACT: note_on channel=4 note=57 velocity=95 time=0.24
EXTRACT: note_on channel=11 note=68 velocity=95 time=0
EXTRACT: note_off channel=9 note=60 velocity=95 time=0
EXTRACT: note_on channel=9 note=60 velocity=95 time=0
EXTRACT: note_off channel=9 note=51 velocity=95 time=0
EXTRACT: note_off channel=9 note=35 velocity=95 time=0
EXTRACT: note_on channel=9 note=51 velocity=95 time=0
EXTRACT: note_off channel=0 note=73 velocity=95 time=0.24
EXTRACT: note_off channel=15 note=73 velocity=95 time=0
EXTRACT: note_off channel=4 note=57 velocity=95 time=0
EXTRACT: note_off channel=11 note=68 velocity=95 time=0
EXTRACT: note_on channel=13 note=35 velocity=95 time=0
EXTRACT: note_off channel=9 note=60 velocity=95 time=0
EXTRACT: note_on channel=9 note=60 velocity=95 time=0
EXTRACT: note_off channel=9 note=51 velocity=95 time=0
EXTRACT: note_on channel=9 note=51 velocity=95 time=0
EXTRACT: note_on channel=9 note=38 velocity=95 time=0
EXTRACT: note_on channel=9 note=35 velocity=95 time=0
EXTRACT: note_on channel=4 note=59 velocity=95 time=0.24
EXTRACT: note_off channel=13 note=35 velocity=95 time=0
EXTRACT: note_on channel=13 note=36 velocity=95 time=0
EXTRACT: note_off channel=9 note=60 velocity=95 time=0
EXTRACT: note_on channel=9 note=61 velocity=95 time=0
EXTRACT: note_off channel=9 note=51 velocity=95 time=0
EXTRACT: note_off channel=9 note=38 velocity=95 time=0
EXTRACT: note_off channel=9 note=35 velocity=95 time=0
EXTRACT: note_on channel=9 note=51 velocity=95 time=0
EXTRACT: note_on channel=0 note=73 velocity=95 time=0.24
EXTRACT: note_on channel=15 note=73 velocity=95 time=0
EXTRACT: note_off channel=2 note=68 velocity=95 time=0
EXTRACT: note_off channel=2 note=62 velocity=95 time=0
EXTRACT: note_off channel=2 note=59 velocity=95 time=0
EXTRACT: note_on channel=2 note=71 velocity=95 time=0
EXTRACT: note_on channel=2 note=68 velocity=95 time=0
EXTRACT: note_on channel=2 note=64 velocity=95 time=0
EXTRACT: note_off channel=4 note=59 velocity=95 time=0
EXTRACT: note_off channel=8 note=68 velocity=95 time=0
EXTRACT: note_on channel=8 note=71 velocity=95 time=0
EXTRACT: note_on channel=11 note=69 velocity=95 time=0
EXTRACT: note_off channel=13 note=36 velocity=95 time=0
EXTRACT: note_on channel=13 note=37 velocity=95 time=0
EXTRACT: note_off channel=9 note=61 velocity=95 time=0
EXTRACT: note_on channel=9 note=60 velocity=95 time=0
EXTRACT: note_off channel=9 note=51 velocity=95 time=0
EXTRACT: note_on channel=9 note=51 velocity=95 time=0
EXTRACT: note_on channel=9 note=35 velocity=95 time=0
EXTRACT: note_off channel=0 note=73 velocity=95 time=0.24
EXTRACT: note_on channel=0 note=74 velocity=95 time=0
EXTRACT: note_off channel=15 note=73 velocity=95 time=0
EXTRACT: note_on channel=15 note=74 velocity=95 time=0
EXTRACT: note_on channel=4 note=59 velocity=95 time=0
EXTRACT: note_off channel=13 note=37 velocity=95 time=0
EXTRACT: note_on channel=13 note=32 velocity=95 time=0
EXTRACT: note_off channel=9 note=60 velocity=95 time=0
EXTRACT: note_on channel=9 note=60 velocity=95 time=0
EXTRACT: note_off channel=9 note=51 velocity=95 time=0
EXTRACT: note_off channel=9 note=35 velocity=95 time=0
EXTRACT: note_on channel=9 note=51 velocity=95 time=0
EXTRACT: note_off channel=0 note=74 velocity=95 time=0.24
EXTRACT: note_on channel=0 note=73 velocity=95 time=0
EXTRACT: note_off channel=15 note=74 velocity=95 time=0
EXTRACT: note_on channel=15 note=73 velocity=95 time=0
EXTRACT: note_off channel=4 note=59 velocity=95 time=0
EXTRACT: note_off channel=11 note=69 velocity=95 time=0
EXTRACT: note_on channel=11 note=66 velocity=95 time=0
EXTRACT: note_off channel=13 note=32 velocity=95 time=0
EXTRACT: note_on channel=13 note=28 velocity=95 time=0
EXTRACT: note_off channel=9 note=60 velocity=95 time=0
EXTRACT: note_on channel=9 note=61 velocity=95 time=0
EXTRACT: note_off channel=9 note=51 velocity=95 time=0
EXTRACT: note_on channel=9 note=51 velocity=95 time=0
EXTRACT: note_on channel=9 note=38 velocity=95 time=0
EXTRACT: note_on channel=9 note=35 velocity=95 time=0
EXTRACT: note_off channel=0 note=73 velocity=95 time=0.24
EXTRACT: note_on channel=0 note=71 velocity=95 time=0
EXTRACT: note_off channel=15 note=73 velocity=95 time=0
EXTRACT: note_on channel=15 note=71 velocity=95 time=0
EXTRACT: note_off channel=2 note=71 velocity=95 time=0
EXTRACT: note_off channel=2 note=68 velocity=95 time=0
EXTRACT: note_off channel=2 note=64 velocity=95 time=0
EXTRACT: note_on channel=2 note=69 velocity=95 time=0
EXTRACT: note_on channel=2 note=64 velocity=95 time=0
EXTRACT: note_on channel=2 note=61 velocity=95 time=0
EXTRACT: note_on channel=4 note=56 velocity=95 time=0
EXTRACT: note_off channel=8 note=71 velocity=95 time=0
EXTRACT: note_on channel=8 note=69 velocity=95 time=0
EXTRACT: note_off channel=11 note=66 velocity=95 time=0
EXTRACT: note_on channel=11 note=64 velocity=95 time=0
EXTRACT: note_off channel=9 note=61 velocity=95 time=0
EXTRACT: note_on channel=9 note=60 velocity=95 time=0
EXTRACT: note_off channel=9 note=51 velocity=95 time=0
EXTRACT: note_off channel=9 note=38 velocity=95 time=0
EXTRACT: note_off channel=9 note=35 velocity=95 time=0
EXTRACT: note_on channel=9 note=51 velocity=95 time=0
EXTRACT: note_off channel=0 note=71 velocity=95 time=0.24
EXTRACT: note_on channel=0 note=69 velocity=95 time=0
EXTRACT: note_off channel=15 note=71 velocity=95 time=0
EXTRACT: note_on channel=15 note=69 velocity=95 time=0
EXTRACT: note_off channel=11 note=64 velocity=95 time=0
EXTRACT: note_on channel=11 note=69 velocity=95 time=0
EXTRACT: note_off channel=13 note=28 velocity=95 time=0
EXTRACT: note_on channel=13 note=30 velocity=95 time=0
EXTRACT: note_off channel=9 note=60 velocity=95 time=0
EXTRACT: note_on channel=9 note=60 velocity=95 time=0
EXTRACT: note_off channel=9 note=51 velocity=95 time=0
EXTRACT: note_on channel=9 note=51 velocity=95 time=0
EXTRACT: note_on channel=9 note=35 velocity=95 time=0
EXTRACT: note_off channel=4 note=56 velocity=95 time=0.24
EXTRACT: note_on channel=4 note=57 velocity=95 time=0
EXTRACT: note_off channel=9 note=60 velocity=95 time=0
EXTRACT: note_on channel=9 note=60 velocity=95 time=0
EXTRACT: note_off channel=9 note=51 velocity=95 time=0
EXTRACT: note_off channel=9 note=35 velocity=95 time=0
EXTRACT: note_on channel=9 note=51 velocity=95 time=0
EXTRACT: note_off channel=0 note=69 velocity=95 time=0.24
EXTRACT: note_on channel=0 note=71 velocity=95 time=0
EXTRACT: note_off channel=15 note=69 velocity=95 time=0
EXTRACT: note_on channel=15 note=71 velocity=95 time=0
EXTRACT: note_off channel=4 note=57 velocity=95 time=0
EXTRACT: note_off channel=11 note=69 velocity=95 time=0
EXTRACT: note_on channel=11 note=66 velocity=95 time=0
EXTRACT: note_off channel=13 note=30 velocity=95 time=0
EXTRACT: note_on channel=13 note=32 velocity=95 time=0
EXTRACT: note_off channel=9 note=60 velocity=95 time=0
EXTRACT: note_on channel=9 note=60 velocity=95 time=0
EXTRACT: note_off channel=9 note=51 velocity=95 time=0
EXTRACT: note_on channel=9 note=51 velocity=95 time=0
EXTRACT: note_on channel=9 note=38 velocity=95 time=0
EXTRACT: note_on channel=9 note=35 velocity=95 time=0
EXTRACT: note_off channel=0 note=71 velocity=95 time=0.24
EXTRACT: note_off channel=15 note=71 velocity=95 time=0
EXTRACT: note_off channel=11 note=66 velocity=95 time=0
EXTRACT: note_on channel=11 note=64 velocity=95 time=0
EXTRACT: note_off channel=13 note=32 velocity=95 time=0
EXTRACT: note_on channel=13 note=33 velocity=95 time=0
EXTRACT: note_off channel=9 note=60 velocity=95 time=0
EXTRACT: note_on channel=9 note=61 velocity=95 time=0
EXTRACT: note_off channel=9 note=51 velocity=95 time=0
EXTRACT: note_off channel=9 note=38 velocity=95 time=0
EXTRACT: note_off channel=9 note=35 velocity=95 time=0
EXTRACT: note_on channel=9 note=51 velocity=95 time=0
EXTRACT: note_on channel=0 note=73 velocity=95 time=0.24
EXTRACT: note_on channel=15 note=73 velocity=95 time=0
EXTRACT: note_off channel=2 note=69 velocity=95 time=0
EXTRACT: note_off channel=2 note=64 velocity=95 time=0
EXTRACT: note_off channel=2 note=61 velocity=95 time=0
EXTRACT: note_on channel=2 note=69 velocity=95 time=0
EXTRACT: note_on channel=2 note=66 velocity=95 time=0
EXTRACT: note_on channel=2 note=62 velocity=95 time=0
EXTRACT: note_off channel=8 note=69 velocity=95 time=0
EXTRACT: note_on channel=8 note=69 velocity=95 time=0
EXTRACT: note_off channel=11 note=64 velocity=95 time=0
EXTRACT: note_off channel=13 note=33 velocity=95 time=0
EXTRACT: note_on channel=13 note=35 velocity=95 time=0
EXTRACT: note_off channel=9 note=61 velocity=95 time=0
EXTRACT: note_on channel=9 note=60 velocity=95 time=0
EXTRACT: note_off channel=9 note=51 velocity=95 time=0
EXTRACT: note_on channel=9 note=51 velocity=95 time=0
EXTRACT: note_on channel=9 note=35 velocity=95 time=0
EXTRACT: note_on channel=4 note=61 velocity=95 time=0.24
EXTRACT: note_on channel=11 note=69 velocity=95 time=0
EXTRACT: note_off channel=9 note=60 velocity=95 time=0
EXTRACT: note_on channel=9 note=60 velocity=95 time=0
EXTRACT: note_off channel=9 note=51 velocity=95 time=0
EXTRACT: note_off channel=9 note=35 velocity=95 time=0
EXTRACT: note_on channel=9 note=51 velocity=95 time=0
EXTRACT: note_off channel=0 note=73 velocity=95 time=0.24
EXTRACT: note_on channel=0 note=74 velocity=95 time=0
EXTRACT: note_off channel=15 note=73 velocity=95 time=0
EXTRACT: note_on channel=15 note=74 velocity=95 time=0
EXTRACT: note_off channel=4 note=61 velocity=95 time=0
EXTRACT: note_off channel=11 note=69 velocity=95 time=0
EXTRACT: note_off channel=13 note=35 velocity=95 time=0
EXTRACT: note_on channel=13 note=42 velocity=95 time=0
EXTRACT: note_off channel=9 note=60 velocity=95 time=0
EXTRACT: note_on channel=9 note=61 velocity=95 time=0
EXTRACT: note_off channel=9 note=51 velocity=95 time=0
EXTRACT: note_on channel=9 note=51 velocity=95 time=0
EXTRACT: note_on channel=9 note=38 velocity=95 time=0
EXTRACT: note_on channel=9 note=35 velocity=95 time=0
EXTRACT: note_off channel=0 note=74 velocity=95 time=0.24
EXTRACT: note_on channel=0 note=73 velocity=95 time=0
EXTRACT: note_off channel=15 note=74 velocity=95 time=0
EXTRACT: note_on channel=15 note=73 velocity=95 time=0
EXTRACT: note_off channel=2 note=69 velocity=95 time=0
EXTRACT: note_off channel=2 note=66 velocity=95 time=0
EXTRACT: note_off channel=2 note=62 velocity=95 time=0
EXTRACT: note_on channel=2 note=68 velocity=95 time=0
EXTRACT: note_on channel=2 note=62 velocity=95 time=0
EXTRACT: note_on channel=2 note=59 velocity=95 time=0
EXTRACT: note_on channel=4 note=59 velocity=95 time=0
EXTRACT: note_off channel=8 note=69 velocity=95 time=0
EXTRACT: note_on channel=8 note=68 velocity=95 time=0
EXTRACT: note_off channel=13 note=42 velocity=95 time=0
EXTRACT: note_on channel=13 note=40 velocity=95 time=0
EXTRACT: note_off channel=9 note=61 velocity=95 time=0
EXTRACT: note_on channel=9 note=60 velocity=95 time=0
EXTRACT: note_off channel=9 note=51 velocity=95 time=0
EXTRACT: note_off channel=9 note=38 velocity=95 time=0
EXTRACT: note_off channel=9 note=35 velocity=95 time=0
EXTRACT: note_on channel=9 note=51 velocity=95 time=0
EXTRACT: note_off channel=4 note=59 velocity=95 time=0.24
EXTRACT: note_off channel=13 note=40 velocity=95 time=0
EXTRACT: note_off channel=9 note=60 velocity=95 time=0
EXTRACT: note_on channel=9 note=60 velocity=95 time=0
EXTRACT: note_off channel=9 note=51 velocity=95 time=0
EXTRACT: note_on channel=9 note=51 velocity=95 time=0
EXTRACT: note_on channel=9 note=35 velocity=95 time=0
EXTRACT: note_on channel=4 note=57 velocity=95 time=0.24
EXTRACT: note_on channel=11 note=68 velocity=95 time=0
EXTRACT: note_off channel=9 note=60 velocity=95 time=0
EXTRACT: note_on channel=9 note=60 velocity=95 time=0
EXTRACT: note_off channel=9 note=51 velocity=95 time=0
EXTRACT: note_off channel=9 note=35 velocity=95 time=0
EXTRACT: note_on channel=9 note=51 velocity=95 time=0
EXTRACT: note_off channel=0 note=73 velocity=95 time=0.24
EXTRACT: note_off channel=15 note=73 velocity=95 time=0
EXTRACT: note_off channel=4 note=57 velocity=95 time=0
EXTRACT: note_off channel=11 note=68 velocity=95 time=0
EXTRACT: note_on channel=13 note=35 velocity=95 time=0
EXTRACT: note_off channel=9 note=60 velocity=95 time=0
EXTRACT: note_on channel=9 note=60 velocity=95 time=0
EXTRACT: note_off channel=9 note=51 velocity=95 time=0
EXTRACT: note_on channel=9 note=51 velocity=95 time=0
EXTRACT: note_on channel=9 note=38 velocity=95 time=0
EXTRACT: note_on channel=9 note=35 velocity=95 time=0
EXTRACT: note_on channel=4 note=50 velocity=95 time=0.24
EXTRACT: note_off channel=13 note=35 velocity=95 time=0
EXTRACT: note_on channel=13 note=36 velocity=95 time=0
EXTRACT: note_off channel=9 note=60 velocity=95 time=0
EXTRACT: note_on channel=9 note=61 velocity=95 time=0
EXTRACT: note_off channel=9 note=51 velocity=95 time=0
EXTRACT: note_off channel=9 note=38 velocity=95 time=0
EXTRACT: note_off channel=9 note=35 velocity=95 time=0
EXTRACT: note_on channel=9 note=51 velocity=95 time=0
EXTRACT: note_off channel=4 note=50 velocity=95 time=0.031
EXTRACT: note_on channel=0 note=73 velocity=95 time=0.209
EXTRACT: note_on channel=15 note=73 velocity=95 time=0
EXTRACT: note_off channel=2 note=68 velocity=95 time=0
EXTRACT: note_off channel=2 note=62 velocity=95 time=0
EXTRACT: note_off channel=2 note=59 velocity=95 time=0
EXTRACT: note_on channel=2 note=71 velocity=95 time=0
EXTRACT: note_on channel=2 note=68 velocity=95 time=0
EXTRACT: note_on channel=2 note=64 velocity=95 time=0
EXTRACT: note_on channel=4 note=59 velocity=95 time=0
EXTRACT: note_off channel=8 note=68 velocity=95 time=0
EXTRACT: note_on channel=8 note=71 velocity=95 time=0
EXTRACT: note_on channel=11 note=69 velocity=95 time=0
EXTRACT: note_off channel=13 note=36 velocity=95 time=0
EXTRACT: note_on channel=13 note=37 velocity=95 time=0
EXTRACT: note_off channel=9 note=61 velocity=95 time=0
EXTRACT: note_on channel=9 note=60 velocity=95 time=0
EXTRACT: note_off channel=9 note=51 velocity=95 time=0
EXTRACT: note_on channel=9 note=51 velocity=95 time=0
EXTRACT: note_on channel=9 note=35 velocity=95 time=0
EXTRACT: note_off channel=0 note=73 velocity=95 time=0.24
EXTRACT: note_on channel=0 note=74 velocity=95 time=0
EXTRACT: note_off channel=15 note=73 velocity=95 time=0
EXTRACT: note_on channel=15 note=74 velocity=95 time=0
EXTRACT: note_off channel=4 note=59 velocity=95 time=0
EXTRACT: note_on channel=4 note=59 velocity=95 time=0
EXTRACT: note_off channel=13 note=37 velocity=95 time=0
EXTRACT: note_on channel=13 note=32 velocity=95 time=0
EXTRACT: note_off channel=9 note=60 velocity=95 time=0
EXTRACT: note_on channel=9 note=60 velocity=95 time=0
EXTRACT: note_off channel=9 note=51 velocity=95 time=0
EXTRACT: note_off channel=9 note=35 velocity=95 time=0
EXTRACT: note_on channel=9 note=51 velocity=95 time=0
EXTRACT: note_off channel=0 note=74 velocity=95 time=0.24
EXTRACT: note_on channel=0 note=73 velocity=95 time=0
EXTRACT: note_off channel=15 note=74 velocity=95 time=0
EXTRACT: note_on channel=15 note=73 velocity=95 time=0
EXTRACT: note_off channel=4 note=59 velocity=95 time=0
EXTRACT: note_on channel=4 note=59 velocity=95 time=0
EXTRACT: note_off channel=11 note=69 velocity=95 time=0
EXTRACT: note_on channel=11 note=66 velocity=95 time=0
EXTRACT: note_off channel=13 note=32 velocity=95 time=0
EXTRACT: note_on channel=13 note=28 velocity=95 time=0
EXTRACT: note_off channel=9 note=60 velocity=95 time=0
EXTRACT: note_on channel=9 note=61 velocity=95 time=0
EXTRACT: note_off channel=9 note=51 velocity=95 time=0
EXTRACT: note_on channel=9 note=51 velocity=95 time=0
EXTRACT: note_on channel=9 note=38 velocity=95 time=0
EXTRACT: note_on channel=9 note=35 velocity=95 time=0
EXTRACT: note_off channel=0 note=73 velocity=95 time=0.24
EXTRACT: note_on channel=0 note=71 velocity=95 time=0
EXTRACT: note_off channel=15 note=73 velocity=95 time=0
EXTRACT: note_on channel=15 note=71 velocity=95 time=0
EXTRACT: note_off channel=2 note=71 velocity=95 time=0
EXTRACT: note_off channel=2 note=68 velocity=95 time=0
EXTRACT: note_off channel=2 note=64 velocity=95 time=0
EXTRACT: note_on channel=2 note=69 velocity=95 time=0
EXTRACT: note_on channel=2 note=64 velocity=95 time=0
EXTRACT: note_on channel=2 note=61 velocity=95 time=0
EXTRACT: note_off channel=4 note=59 velocity=95 time=0
EXTRACT: note_on channel=4 note=56 velocity=95 time=0
EXTRACT: note_off channel=8 note=71 velocity=95 time=0
EXTRACT: note_on channel=8 note=69 velocity=95 time=0
EXTRACT: note_off channel=11 note=66 velocity=95 time=0
EXTRACT: note_on channel=11 note=64 velocity=95 time=0
EXTRACT: note_off channel=9 note=61 velocity=95 time=0
EXTRACT: note_on channel=9 note=60 velocity=95 time=0
EXTRACT: note_off channel=9 note=51 velocity=95 time=0
EXTRACT: note_off channel=9 note=38 velocity=95 time=0
EXTRACT: note_off channel=9 note=35 velocity=95 time=0
EXTRACT: note_on channel=9 note=51 velocity=95 time=0
EXTRACT: note_off channel=0 note=71 velocity=95 time=0.24
EXTRACT: note_on channel=0 note=69 velocity=95 time=0
EXTRACT: note_off channel=15 note=71 velocity=95 time=0
EXTRACT: note_on channel=15 note=69 velocity=95 time=0
EXTRACT: note_off channel=11 note=64 velocity=95 time=0
EXTRACT: note_on channel=11 note=69 velocity=95 time=0
EXTRACT: note_off channel=13 note=28 velocity=95 time=0
EXTRACT: note_on channel=13 note=30 velocity=95 time=0
EXTRACT: note_off channel=9 note=60 velocity=95 time=0
EXTRACT: note_on channel=9 note=60 velocity=95 time=0
EXTRACT: note_off channel=9 note=51 velocity=95 time=0
EXTRACT: note_on channel=9 note=51 velocity=95 time=0
EXTRACT: note_on channel=9 note=35 velocity=95 time=0
EXTRACT: note_off channel=4 note=56 velocity=95 time=0.24
EXTRACT: note_on channel=4 note=57 velocity=95 time=0
EXTRACT: note_off channel=9 note=60 velocity=95 time=0
EXTRACT: note_on channel=9 note=60 velocity=95 time=0
EXTRACT: note_off channel=9 note=51 velocity=95 time=0
EXTRACT: note_off channel=9 note=35 velocity=95 time=0
EXTRACT: note_on channel=9 note=51 velocity=95 time=0
EXTRACT: note_off channel=0 note=69 velocity=95 time=0.24
EXTRACT: note_on channel=0 note=71 velocity=95 time=0
EXTRACT: note_off channel=15 note=69 velocity=95 time=0
EXTRACT: note_on channel=15 note=71 velocity=95 time=0
EXTRACT: note_off channel=4 note=57 velocity=95 time=0
EXTRACT: note_off channel=11 note=69 velocity=95 time=0
EXTRACT: note_on channel=11 note=66 velocity=95 time=0
EXTRACT: note_off channel=13 note=30 velocity=95 time=0
EXTRACT: note_on channel=13 note=32 velocity=95 time=0
EXTRACT: note_off channel=9 note=60 velocity=95 time=0
EXTRACT: note_on channel=9 note=60 velocity=95 time=0
EXTRACT: note_off channel=9 note=51 velocity=95 time=0
EXTRACT: note_on channel=9 note=51 velocity=95 time=0
EXTRACT: note_on channel=9 note=38 velocity=95 time=0
EXTRACT: note_on channel=9 note=35 velocity=95 time=0
EXTRACT: note_off channel=0 note=71 velocity=95 time=0.24
EXTRACT: note_off channel=15 note=71 velocity=95 time=0
EXTRACT: note_off channel=11 note=66 velocity=95 time=0
EXTRACT: note_on channel=11 note=64 velocity=95 time=0
EXTRACT: note_off channel=13 note=32 velocity=95 time=0
EXTRACT: note_off channel=9 note=60 velocity=95 time=0
EXTRACT: note_on channel=9 note=61 velocity=95 time=0
EXTRACT: note_off channel=9 note=51 velocity=95 time=0
EXTRACT: note_off channel=9 note=38 velocity=95 time=0
EXTRACT: note_off channel=9 note=35 velocity=95 time=0
EXTRACT: note_on channel=9 note=51 velocity=95 time=0
EXTRACT: note_on channel=0 note=73 velocity=95 time=0.24
EXTRACT: note_on channel=15 note=73 velocity=95 time=0
EXTRACT: note_off channel=2 note=69 velocity=95 time=0
EXTRACT: note_off channel=2 note=64 velocity=95 time=0
EXTRACT: note_off channel=2 note=61 velocity=95 time=0
EXTRACT: note_on channel=2 note=69 velocity=95 time=0
EXTRACT: note_on channel=2 note=66 velocity=95 time=0
EXTRACT: note_on channel=2 note=62 velocity=95 time=0
EXTRACT: note_off channel=8 note=69 velocity=95 time=0
EXTRACT: note_on channel=8 note=69 velocity=95 time=0
EXTRACT: note_off channel=11 note=64 velocity=95 time=0
EXTRACT: note_on channel=13 note=35 velocity=95 time=0
EXTRACT: note_off channel=9 note=61 velocity=95 time=0
EXTRACT: note_on channel=9 note=60 velocity=95 time=0
EXTRACT: note_off channel=9 note=51 velocity=95 time=0
EXTRACT: note_on channel=9 note=51 velocity=95 time=0
EXTRACT: note_on channel=9 note=35 velocity=95 time=0
EXTRACT: note_on channel=4 note=61 velocity=95 time=0.24
EXTRACT: note_on channel=11 note=69 velocity=95 time=0
EXTRACT: note_off channel=13 note=35 velocity=95 time=0
EXTRACT: note_on channel=13 note=35 velocity=95 time=0
EXTRACT: note_off channel=9 note=60 velocity=95 time=0
EXTRACT: note_on channel=9 note=60 velocity=95 time=0
EXTRACT: note_off channel=9 note=51 velocity=95 time=0
EXTRACT: note_off channel=9 note=35 velocity=95 time=0
EXTRACT: note_on channel=9 note=51 velocity=95 time=0
EXTRACT: note_off channel=0 note=73 velocity=95 time=0.24
EXTRACT: note_on channel=0 note=74 velocity=95 time=0
EXTRACT: note_off channel=15 note=73 velocity=95 time=0
EXTRACT: note_on channel=15 note=74 velocity=95 time=0
EXTRACT: note_off channel=4 note=61 velocity=95 time=0
EXTRACT: note_off channel=11 note=69 velocity=95 time=0
EXTRACT: note_off channel=13 note=35 velocity=95 time=0
EXTRACT: note_on channel=13 note=42 velocity=95 time=0
EXTRACT: note_off channel=9 note=60 velocity=95 time=0
EXTRACT: note_on channel=9 note=61 velocity=95 time=0
EXTRACT: note_off channel=9 note=51 velocity=95 time=0
EXTRACT: note_on channel=9 note=51 velocity=95 time=0
EXTRACT: note_on channel=9 note=38 velocity=95 time=0
EXTRACT: note_on channel=9 note=35 velocity=95 time=0
EXTRACT: note_off channel=0 note=74 velocity=95 time=0.24
EXTRACT: note_on channel=0 note=73 velocity=95 time=0
EXTRACT: note_off channel=15 note=74 velocity=95 time=0
EXTRACT: note_on channel=15 note=73 velocity=95 time=0
EXTRACT: note_off channel=2 note=69 velocity=95 time=0
EXTRACT: note_off channel=2 note=66 velocity=95 time=0
EXTRACT: note_off channel=2 note=62 velocity=95 time=0
EXTRACT: note_on channel=2 note=68 velocity=95 time=0
EXTRACT: note_on channel=2 note=62 velocity=95 time=0
EXTRACT: note_on channel=2 note=59 velocity=95 time=0
EXTRACT: note_on channel=4 note=59 velocity=95 time=0
EXTRACT: note_off channel=8 note=69 velocity=95 time=0
EXTRACT: note_on channel=8 note=68 velocity=95 time=0
EXTRACT: note_off channel=13 note=42 velocity=95 time=0
EXTRACT: note_on channel=13 note=40 velocity=95 time=0
EXTRACT: note_off channel=9 note=61 velocity=95 time=0
EXTRACT: note_on channel=9 note=60 velocity=95 time=0
EXTRACT: note_off channel=9 note=51 velocity=95 time=0
EXTRACT: note_off channel=9 note=38 velocity=95 time=0
EXTRACT: note_off channel=9 note=35 velocity=95 time=0
EXTRACT: note_on channel=9 note=51 velocity=95 time=0
EXTRACT: note_off channel=4 note=59 velocity=95 time=0.24
EXTRACT: note_off channel=13 note=40 velocity=95 time=0
EXTRACT: note_off channel=9 note=60 velocity=95 time=0
EXTRACT: note_on channel=9 note=60 velocity=95 time=0
EXTRACT: note_off channel=9 note=51 velocity=95 time=0
EXTRACT: note_on channel=9 note=51 velocity=95 time=0
EXTRACT: note_on channel=9 note=35 velocity=95 time=0
EXTRACT: note_on channel=4 note=57 velocity=95 time=0.24
EXTRACT: note_on channel=11 note=68 velocity=95 time=0
EXTRACT: note_on channel=13 note=33 velocity=95 time=0
EXTRACT: note_off channel=9 note=60 velocity=95 time=0
EXTRACT: note_on channel=9 note=60 velocity=95 time=0
EXTRACT: note_off channel=9 note=51 velocity=95 time=0
EXTRACT: note_off channel=9 note=35 velocity=95 time=0
EXTRACT: note_on channel=9 note=51 velocity=95 time=0
EXTRACT: note_off channel=0 note=73 velocity=95 time=0.24
EXTRACT: note_off channel=15 note=73 velocity=95 time=0
EXTRACT: note_off channel=4 note=57 velocity=95 time=0
EXTRACT: note_off channel=11 note=68 velocity=95 time=0
EXTRACT: note_off channel=13 note=33 velocity=95 time=0
EXTRACT: note_on channel=13 note=35 velocity=95 time=0
EXTRACT: note_off channel=9 note=60 velocity=95 time=0
EXTRACT: note_on channel=9 note=60 velocity=95 time=0
EXTRACT: note_off channel=9 note=51 velocity=95 time=0
EXTRACT: note_on channel=9 note=51 velocity=95 time=0
EXTRACT: note_on channel=9 note=38 velocity=95 time=0
EXTRACT: note_on channel=9 note=35 velocity=95 time=0
EXTRACT: note_on channel=4 note=45 velocity=95 time=0.24
EXTRACT: note_off channel=13 note=35 velocity=95 time=0
EXTRACT: note_on channel=13 note=36 velocity=95 time=0
EXTRACT: note_off channel=9 note=60 velocity=95 time=0
EXTRACT: note_on channel=9 note=61 velocity=95 time=0
EXTRACT: note_off channel=9 note=51 velocity=95 time=0
EXTRACT: note_off channel=9 note=38 velocity=95 time=0
EXTRACT: note_off channel=9 note=35 velocity=95 time=0
EXTRACT: note_on channel=9 note=51 velocity=95 time=0
EXTRACT: note_off channel=4 note=45 velocity=95 time=0.031
EXTRACT: note_on channel=4 note=45 velocity=95 time=0.089
EXTRACT: note_off channel=4 note=45 velocity=95 time=0.031
EXTRACT: note_on channel=0 note=73 velocity=95 time=0.089
EXTRACT: note_on channel=15 note=73 velocity=95 time=0
EXTRACT: note_off channel=2 note=68 velocity=95 time=0
EXTRACT: note_off channel=2 note=62 velocity=95 time=0
EXTRACT: note_off channel=2 note=59 velocity=95 time=0
EXTRACT: note_on channel=2 note=71 velocity=95 time=0
EXTRACT: note_on channel=2 note=68 velocity=95 time=0
EXTRACT: note_on channel=2 note=64 velocity=95 time=0
EXTRACT: note_on channel=4 note=59 velocity=95 time=0
EXTRACT: note_off channel=8 note=68 velocity=95 time=0
EXTRACT: note_on channel=8 note=71 velocity=95 time=0
EXTRACT: note_on channel=11 note=69 velocity=95 time=0
EXTRACT: note_off channel=13 note=36 velocity=95 time=0
EXTRACT: note_on channel=13 note=37 velocity=95 time=0
EXTRACT: note_off channel=9 note=61 velocity=95 time=0
EXTRACT: note_on channel=9 note=60 velocity=95 time=0
EXTRACT: note_off channel=9 note=51 velocity=95 time=0
EXTRACT: note_on channel=9 note=51 velocity=95 time=0
EXTRACT: note_on channel=9 note=35 velocity=95 time=0
EXTRACT: note_off channel=0 note=73 velocity=95 time=0.24
EXTRACT: note_on channel=0 note=74 velocity=95 time=0
EXTRACT: note_off channel=15 note=73 velocity=95 time=0
EXTRACT: note_on channel=15 note=74 velocity=95 time=0
EXTRACT: note_off channel=4 note=59 velocity=95 time=0
EXTRACT: note_on channel=4 note=59 velocity=95 time=0
EXTRACT: note_off channel=13 note=37 velocity=95 time=0
EXTRACT: note_on channel=13 note=32 velocity=95 time=0
EXTRACT: note_off channel=9 note=60 velocity=95 time=0
EXTRACT: note_on channel=9 note=60 velocity=95 time=0
EXTRACT: note_off channel=9 note=51 velocity=95 time=0
EXTRACT: note_off channel=9 note=35 velocity=95 time=0
EXTRACT: note_on channel=9 note=51 velocity=95 time=0
EXTRACT: note_off channel=0 note=74 velocity=95 time=0.24
EXTRACT: note_on channel=0 note=73 velocity=95 time=0
EXTRACT: note_off channel=15 note=74 velocity=95 time=0
EXTRACT: note_on channel=15 note=73 velocity=95 time=0
EXTRACT: note_off channel=4 note=59 velocity=95 time=0
EXTRACT: note_on channel=4 note=59 velocity=95 time=0
EXTRACT: note_off channel=11 note=69 velocity=95 time=0
EXTRACT: note_on channel=11 note=66 velocity=95 time=0
EXTRACT: note_off channel=13 note=32 velocity=95 time=0
EXTRACT: note_on channel=13 note=28 velocity=95 time=0
EXTRACT: note_off channel=9 note=60 velocity=95 time=0
EXTRACT: note_on channel=9 note=61 velocity=95 time=0
EXTRACT: note_off channel=9 note=51 velocity=95 time=0
EXTRACT: note_on channel=9 note=51 velocity=95 time=0
EXTRACT: note_on channel=9 note=38 velocity=95 time=0
EXTRACT: note_on channel=9 note=35 velocity=95 time=0
EXTRACT: note_off channel=0 note=73 velocity=95 time=0.24
EXTRACT: note_on channel=0 note=71 velocity=95 time=0
EXTRACT: note_off channel=15 note=73 velocity=95 time=0
EXTRACT: note_on channel=15 note=71 velocity=95 time=0
EXTRACT: note_off channel=2 note=71 velocity=95 time=0
EXTRACT: note_off channel=2 note=68 velocity=95 time=0
EXTRACT: note_off channel=2 note=64 velocity=95 time=0
EXTRACT: note_on channel=2 note=69 velocity=95 time=0
EXTRACT: note_on channel=2 note=64 velocity=95 time=0
EXTRACT: note_on channel=2 note=61 velocity=95 time=0
EXTRACT: note_off channel=4 note=59 velocity=95 time=0
EXTRACT: note_on channel=4 note=56 velocity=95 time=0
EXTRACT: note_off channel=8 note=71 velocity=95 time=0
EXTRACT: note_on channel=8 note=69 velocity=95 time=0
EXTRACT: note_off channel=11 note=66 velocity=95 time=0
EXTRACT: note_on channel=11 note=64 velocity=95 time=0
EXTRACT: note_off channel=9 note=61 velocity=95 time=0
EXTRACT: note_on channel=9 note=60 velocity=95 time=0
EXTRACT: note_off channel=9 note=51 velocity=95 time=0
EXTRACT: note_off channel=9 note=38 velocity=95 time=0
EXTRACT: note_off channel=9 note=35 velocity=95 time=0
EXTRACT: note_on channel=9 note=51 velocity=95 time=0
EXTRACT: note_off channel=0 note=71 velocity=95 time=0.24
EXTRACT: note_on channel=0 note=69 velocity=95 time=0
EXTRACT: note_off channel=15 note=71 velocity=95 time=0
EXTRACT: note_on channel=15 note=69 velocity=95 time=0
EXTRACT: note_off channel=11 note=64 velocity=95 time=0
EXTRACT: note_on channel=11 note=69 velocity=95 time=0
EXTRACT: note_off channel=13 note=28 velocity=95 time=0
EXTRACT: note_on channel=13 note=30 velocity=95 time=0
EXTRACT: note_off channel=9 note=60 velocity=95 time=0
EXTRACT: note_on channel=9 note=60 velocity=95 time=0
EXTRACT: note_off channel=9 note=51 velocity=95 time=0
EXTRACT: note_on channel=9 note=51 velocity=95 time=0
EXTRACT: note_on channel=9 note=35 velocity=95 time=0
EXTRACT: note_off channel=4 note=56 velocity=95 time=0.24
EXTRACT: note_on channel=4 note=57 velocity=95 time=0
EXTRACT: note_off channel=9 note=60 velocity=95 time=0
EXTRACT: note_on channel=9 note=60 velocity=95 time=0
EXTRACT: note_off channel=9 note=51 velocity=95 time=0
EXTRACT: note_off channel=9 note=35 velocity=95 time=0
EXTRACT: note_on channel=9 note=51 velocity=95 time=0
EXTRACT: note_off channel=0 note=69 velocity=95 time=0.24
EXTRACT: note_on channel=0 note=66 velocity=95 time=0
EXTRACT: note_off channel=15 note=69 velocity=95 time=0
EXTRACT: note_on channel=15 note=66 velocity=95 time=0
EXTRACT: note_off channel=4 note=57 velocity=95 time=0
EXTRACT: note_off channel=11 note=69 velocity=95 time=0
EXTRACT: note_on channel=11 note=66 velocity=95 time=0
EXTRACT: note_off channel=13 note=30 velocity=95 time=0
EXTRACT: note_on channel=13 note=32 velocity=95 time=0
EXTRACT: note_off channel=9 note=60 velocity=95 time=0
EXTRACT: note_on channel=9 note=60 velocity=95 time=0
EXTRACT: note_off channel=9 note=51 velocity=95 time=0
EXTRACT: note_on channel=9 note=51 velocity=95 time=0
EXTRACT: note_on channel=9 note=38 velocity=95 time=0
EXTRACT: note_on channel=9 note=35 velocity=95 time=0
EXTRACT: note_off channel=0 note=66 velocity=95 time=0.24
EXTRACT: note_on channel=0 note=71 velocity=95 time=0
EXTRACT: note_off channel=15 note=66 velocity=95 time=0
EXTRACT: note_on channel=15 note=71 velocity=95 time=0
EXTRACT: note_off channel=11 note=66 velocity=95 time=0
EXTRACT: note_on channel=11 note=64 velocity=95 time=0
EXTRACT: note_off channel=13 note=32 velocity=95 time=0
EXTRACT: note_on channel=13 note=30 velocity=95 time=0
EXTRACT: note_off channel=9 note=60 velocity=95 time=0
EXTRACT: note_on channel=9 note=61 velocity=95 time=0
EXTRACT: note_off channel=9 note=51 velocity=95 time=0
EXTRACT: note_off channel=9 note=38 velocity=95 time=0
EXTRACT: note_off channel=9 note=35 velocity=95 time=0
EXTRACT: note_on channel=9 note=51 velocity=95 time=0
EXTRACT: note_off channel=0 note=71 velocity=95 time=0.24
EXTRACT: note_on channel=0 note=69 velocity=70 time=0
EXTRACT: note_off channel=15 note=71 velocity=95 time=0
EXTRACT: note_on channel=15 note=69 velocity=70 time=0
EXTRACT: note_off channel=2 note=69 velocity=95 time=0
EXTRACT: note_off channel=2 note=64 velocity=95 time=0
EXTRACT: note_off channel=2 note=61 velocity=95 time=0
EXTRACT: note_on channel=2 note=69 velocity=95 time=0
EXTRACT: note_on channel=2 note=67 velocity=95 time=0
EXTRACT: note_on channel=2 note=62 velocity=95 time=0
EXTRACT: note_on channel=2 note=59 velocity=95 time=0
EXTRACT: note_off channel=8 note=69 velocity=95 time=0
EXTRACT: note_on channel=8 note=69 velocity=95 time=0
EXTRACT: note_off channel=11 note=64 velocity=95 time=0
EXTRACT: note_off channel=13 note=30 velocity=95 time=0
EXTRACT: note_on channel=13 note=33 velocity=95 time=0
EXTRACT: note_off channel=9 note=61 velocity=95 time=0
EXTRACT: note_on channel=9 note=60 velocity=95 time=0
EXTRACT: note_off channel=9 note=51 velocity=95 time=0
EXTRACT: note_on channel=9 note=51 velocity=95 time=0
EXTRACT: note_on channel=9 note=35 velocity=95 time=0
EXTRACT: note_on channel=11 note=69 velocity=95 time=0.24
EXTRACT: note_on channel=10 note=81 velocity=95 time=0
EXTRACT: note_off channel=13 note=33 velocity=95 time=0
EXTRACT: note_on channel=13 note=33 velocity=95 time=0
EXTRACT: note_off channel=9 note=60 velocity=95 time=0
EXTRACT: note_on channel=9 note=60 velocity=95 time=0
EXTRACT: note_off channel=9 note=51 velocity=95 time=0
EXTRACT: note_off channel=9 note=35 velocity=95 time=0
EXTRACT: note_on channel=9 note=51 velocity=95 time=0
EXTRACT: note_off channel=11 note=69 velocity=95 time=0.24
EXTRACT: note_on channel=11 note=66 velocity=95 time=0
EXTRACT: note_off channel=10 note=81 velocity=95 time=0
EXTRACT: note_on channel=10 note=78 velocity=95 time=0
EXTRACT: note_off channel=9 note=60 velocity=95 time=0
EXTRACT: note_on channel=9 note=61 velocity=95 time=0
EXTRACT: note_off channel=9 note=51 velocity=95 time=0
EXTRACT: note_on channel=9 note=51 velocity=95 time=0
EXTRACT: note_on channel=9 note=38 velocity=95 time=0
EXTRACT: note_on channel=9 note=35 velocity=95 time=0
EXTRACT: note_off channel=11 note=66 velocity=95 time=0.24
EXTRACT: note_on channel=11 note=69 velocity=95 time=0
EXTRACT: note_off channel=10 note=78 velocity=95 time=0
EXTRACT: note_on channel=10 note=81 velocity=95 time=0
EXTRACT: note_off channel=9 note=61 velocity=95 time=0
EXTRACT: note_on channel=9 note=60 velocity=95 time=0
EXTRACT: note_off channel=9 note=51 velocity=95 time=0
EXTRACT: note_off channel=9 note=38 velocity=95 time=0
EXTRACT: note_off channel=9 note=35 velocity=95 time=0
EXTRACT: note_on channel=9 note=51 velocity=95 time=0
EXTRACT: note_off channel=11 note=69 velocity=95 time=0.24
EXTRACT: note_off channel=10 note=81 velocity=95 time=0
EXTRACT: note_off channel=13 note=33 velocity=95 time=0
EXTRACT: note_on channel=13 note=33 velocity=95 time=0
EXTRACT: note_off channel=9 note=60 velocity=95 time=0
EXTRACT: note_on channel=9 note=60 velocity=95 time=0
EXTRACT: note_off channel=9 note=51 velocity=95 time=0
EXTRACT: note_on channel=9 note=51 velocity=95 time=0
EXTRACT: note_on channel=9 note=35 velocity=95 time=0
EXTRACT: note_on channel=11 note=69 velocity=95 time=0.24
EXTRACT: note_on channel=10 note=81 velocity=95 time=0
EXTRACT: note_off channel=9 note=60 velocity=95 time=0
EXTRACT: note_on channel=9 note=60 velocity=95 time=0
EXTRACT: note_off channel=9 note=51 velocity=95 time=0
EXTRACT: note_off channel=9 note=35 velocity=95 time=0
EXTRACT: note_on channel=9 note=51 velocity=95 time=0
EXTRACT: note_on channel=14 note=55 velocity=95 time=0.18
EXTRACT: note_off channel=11 note=69 velocity=95 time=0.06
EXTRACT: note_on channel=11 note=66 velocity=95 time=0
EXTRACT: note_off channel=10 note=81 velocity=95 time=0
EXTRACT: note_on channel=10 note=78 velocity=95 time=0
EXTRACT: note_off channel=13 note=33 velocity=95 time=0
EXTRACT: note_off channel=14 note=55 velocity=95 time=0
EXTRACT: note_on channel=14 note=57 velocity=127 time=0
EXTRACT: note_off channel=9 note=60 velocity=95 time=0
EXTRACT: note_on channel=9 note=60 velocity=95 time=0
EXTRACT: note_off channel=9 note=51 velocity=95 time=0
EXTRACT: note_on channel=9 note=51 velocity=95 time=0
EXTRACT: note_on channel=9 note=38 velocity=95 time=0
EXTRACT: note_on channel=9 note=35 velocity=95 time=0
EXTRACT: note_off channel=11 note=66 velocity=95 time=0.24
EXTRACT: note_on channel=11 note=69 velocity=95 time=0
EXTRACT: note_off channel=10 note=78 velocity=95 time=0
EXTRACT: note_on channel=10 note=81 velocity=95 time=0
EXTRACT: note_off channel=9 note=60 velocity=95 time=0
EXTRACT: note_on channel=9 note=61 velocity=95 time=0
EXTRACT: note_off channel=9 note=51 velocity=95 time=0
EXTRACT: note_off channel=9 note=38 velocity=95 time=0
EXTRACT: note_off channel=9 note=35 velocity=95 time=0
EXTRACT: note_on channel=9 note=51 velocity=95 time=0
EXTRACT: note_off channel=2 note=69 velocity=95 time=0.24
EXTRACT: note_off channel=2 note=67 velocity=95 time=0
EXTRACT: note_off channel=2 note=62 velocity=95 time=0
EXTRACT: note_off channel=2 note=59 velocity=95 time=0
EXTRACT: note_on channel=2 note=69 velocity=95 time=0
EXTRACT: note_on channel=2 note=67 velocity=95 time=0
EXTRACT: note_on channel=2 note=62 velocity=95 time=0
EXTRACT: note_on channel=2 note=59 velocity=95 time=0
EXTRACT: note_off channel=11 note=69 velocity=95 time=0
EXTRACT: note_off channel=10 note=81 velocity=95 time=0
EXTRACT: note_off channel=14 note=57 velocity=127 time=0
EXTRACT: note_on channel=13 note=33 velocity=95 time=0
EXTRACT: note_off channel=9 note=61 velocity=95 time=0
EXTRACT: note_on channel=9 note=60 velocity=95 time=0
EXTRACT: note_off channel=9 note=51 velocity=95 time=0
EXTRACT: note_on channel=9 note=51 velocity=95 time=0
EXTRACT: note_on channel=9 note=35 velocity=95 time=0
EXTRACT: note_on channel=11 note=69 velocity=95 time=0.24
EXTRACT: note_on channel=10 note=81 velocity=95 time=0
EXTRACT: note_off channel=9 note=60 velocity=95 time=0
EXTRACT: note_on channel=9 note=60 velocity=95 time=0
EXTRACT: note_off channel=9 note=51 velocity=95 time=0
EXTRACT: note_off channel=9 note=35 velocity=95 time=0
EXTRACT: note_on channel=9 note=51 velocity=95 time=0
EXTRACT: note_on channel=14 note=55 velocity=95 time=0.18
EXTRACT: note_off channel=11 note=69 velocity=95 time=0.06
EXTRACT: note_on channel=11 note=66 velocity=95 time=0
EXTRACT: note_off channel=10 note=81 velocity=95 time=0
EXTRACT: note_on channel=10 note=78 velocity=95 time=0
EXTRACT: note_off channel=13 note=33 velocity=95 time=0
EXTRACT: note_off channel=14 note=55 velocity=95 time=0
EXTRACT: note_on channel=14 note=57 velocity=127 time=0
EXTRACT: note_off channel=9 note=60 velocity=95 time=0
EXTRACT: note_on channel=9 note=61 velocity=95 time=0
EXTRACT: note_off channel=9 note=51 velocity=95 time=0
EXTRACT: note_on channel=9 note=51 velocity=95 time=0
EXTRACT: note_on channel=9 note=38 velocity=95 time=0
EXTRACT: note_on channel=9 note=35 velocity=95 time=0
EXTRACT: note_off channel=11 note=66 velocity=95 time=0.24
EXTRACT: note_on channel=11 note=69 velocity=95 time=0
EXTRACT: note_off channel=10 note=78 velocity=95 time=0
EXTRACT: note_on channel=10 note=81 velocity=95 time=0
EXTRACT: note_off channel=9 note=61 velocity=95 time=0
EXTRACT: note_on channel=9 note=60 velocity=95 time=0
EXTRACT: note_off channel=9 note=51 velocity=95 time=0
EXTRACT: note_off channel=9 note=38 velocity=95 time=0
EXTRACT: note_off channel=9 note=35 velocity=95 time=0
EXTRACT: note_on channel=9 note=51 velocity=95 time=0
EXTRACT: note_off channel=2 note=69 velocity=95 time=0.24
EXTRACT: note_off channel=2 note=67 velocity=95 time=0
EXTRACT: note_off channel=2 note=62 velocity=95 time=0
EXTRACT: note_off channel=2 note=59 velocity=95 time=0
EXTRACT: note_on channel=2 note=69 velocity=95 time=0
EXTRACT: note_on channel=2 note=67 velocity=95 time=0
EXTRACT: note_on channel=2 note=62 velocity=95 time=0
EXTRACT: note_on channel=2 note=59 velocity=95 time=0
EXTRACT: note_off channel=11 note=69 velocity=95 time=0
EXTRACT: note_on channel=11 note=69 velocity=127 time=0
EXTRACT: note_off channel=10 note=81 velocity=95 time=0
EXTRACT: note_on channel=10 note=81 velocity=127 time=0
EXTRACT: note_off channel=14 note=57 velocity=127 time=0
EXTRACT: note_on channel=13 note=33 velocity=95 time=0
EXTRACT: note_off channel=9 note=60 velocity=95 time=0
EXTRACT: note_on channel=9 note=60 velocity=95 time=0
EXTRACT: note_off channel=9 note=51 velocity=95 time=0
EXTRACT: note_on channel=9 note=43 velocity=95 time=0
EXTRACT: note_on channel=9 note=38 velocity=95 time=0
EXTRACT: note_on channel=9 note=35 velocity=95 time=0
EXTRACT: note_off channel=2 note=69 velocity=95 time=0.24
EXTRACT: note_off channel=2 note=67 velocity=95 time=0
EXTRACT: note_off channel=2 note=62 velocity=95 time=0
EXTRACT: note_off channel=2 note=59 velocity=95 time=0
EXTRACT: note_on channel=2 note=69 velocity=95 time=0
EXTRACT: note_on channel=2 note=67 velocity=95 time=0
EXTRACT: note_on channel=2 note=62 velocity=95 time=0
EXTRACT: note_on channel=2 note=59 velocity=95 time=0
EXTRACT: note_off channel=11 note=69 velocity=127 time=0
EXTRACT: note_on channel=11 note=69 velocity=127 time=0
EXTRACT: note_off channel=10 note=81 velocity=127 time=0
EXTRACT: note_on channel=10 note=81 velocity=127 time=0
EXTRACT: note_off channel=13 note=33 velocity=95 time=0
EXTRACT: note_on channel=13 note=33 velocity=95 time=0
EXTRACT: note_off channel=9 note=60 velocity=95 time=0
EXTRACT: note_on channel=9 note=60 velocity=95 time=0
EXTRACT: note_off channel=9 note=43 velocity=95 time=0
EXTRACT: note_off channel=9 note=38 velocity=95 time=0
EXTRACT: note_off channel=9 note=35 velocity=95 time=0
EXTRACT: note_on channel=9 note=43 velocity=95 time=0
EXTRACT: note_on channel=9 note=38 velocity=95 time=0
EXTRACT: note_off channel=0 note=69 velocity=70 time=0.24
EXTRACT: note_off channel=15 note=69 velocity=70 time=0
EXTRACT: note_off channel=2 note=69 velocity=95 time=0
EXTRACT: note_off channel=2 note=67 velocity=95 time=0
EXTRACT: note_off channel=2 note=62 velocity=95 time=0
EXTRACT: note_off channel=2 note=59 velocity=95 time=0
EXTRACT: note_on channel=2 note=69 velocity=95 time=0
EXTRACT: note_on channel=2 note=67 velocity=95 time=0
EXTRACT: note_on channel=2 note=62 velocity=95 time=0
EXTRACT: note_on channel=2 note=59 velocity=95 time=0
EXTRACT: note_off channel=11 note=69 velocity=127 time=0
EXTRACT: note_on channel=11 note=69 velocity=127 time=0
EXTRACT: note_off channel=10 note=81 velocity=127 time=0
EXTRACT: note_on channel=10 note=81 velocity=127 time=0
EXTRACT: note_off channel=13 note=33 velocity=95 time=0
EXTRACT: note_on channel=13 note=33 velocity=95 time=0
EXTRACT: note_off channel=9 note=60 velocity=95 time=0
EXTRACT: note_on channel=9 note=60 velocity=95 time=0
EXTRACT: note_off channel=9 note=43 velocity=95 time=0
EXTRACT: note_off channel=9 note=38 velocity=95 time=0
EXTRACT: note_on channel=9 note=43 velocity=95 time=0
EXTRACT: note_on channel=9 note=38 velocity=95 time=0
EXTRACT: note_on channel=9 note=35 velocity=95 time=0
EXTRACT: note_off channel=2 note=69 velocity=95 time=0.24
EXTRACT: note_off channel=2 note=67 velocity=95 time=0
EXTRACT: note_off channel=2 note=62 velocity=95 time=0
EXTRACT: note_off channel=2 note=59 velocity=95 time=0
EXTRACT: note_off channel=8 note=69 velocity=95 time=0
EXTRACT: note_on channel=8 note=76 velocity=95 time=0
EXTRACT: note_off channel=11 note=69 velocity=127 time=0
EXTRACT: note_off channel=10 note=81 velocity=127 time=0
EXTRACT: note_off channel=9 note=60 velocity=95 time=0
EXTRACT: note_on channel=9 note=61 velocity=95 time=0
EXTRACT: note_on channel=15 note=69 velocity=95 time=0.24
EXTRACT: note_on channel=2 note=73 velocity=95 time=0
EXTRACT: note_on channel=2 note=69 velocity=95 time=0
EXTRACT: note_on channel=2 note=66 velocity=95 time=0
EXTRACT: note_off channel=8 note=76 velocity=95 time=0
EXTRACT: note_on channel=8 note=73 velocity=95 time=0
EXTRACT: note_on channel=11 note=73 velocity=95 time=0
EXTRACT: note_off channel=13 note=33 velocity=95 time=0
EXTRACT: note_on channel=13 note=38 velocity=95 time=0
EXTRACT: note_off channel=9 note=61 velocity=95 time=0
EXTRACT: note_on channel=9 note=60 velocity=95 time=0
EXTRACT: note_off channel=9 note=43 velocity=95 time=0
EXTRACT: note_off channel=9 note=38 velocity=95 time=0
EXTRACT: note_off channel=9 note=35 velocity=95 time=0
EXTRACT: note_on channel=9 note=49 velocity=95 time=0
EXTRACT: note_on channel=9 note=35 velocity=95 time=0
EXTRACT: note_off channel=11 note=73 velocity=95 time=0.12
EXTRACT: note_off channel=2 note=73 velocity=95 time=0.12
EXTRACT: note_off channel=2 note=69 velocity=95 time=0
EXTRACT: note_off channel=2 note=66 velocity=95 time=0
EXTRACT: note_on channel=2 note=73 velocity=95 time=0
EXTRACT: note_on channel=2 note=69 velocity=95 time=0
EXTRACT: note_on channel=2 note=66 velocity=95 time=0
EXTRACT: note_on channel=11 note=73 velocity=95 time=0
EXTRACT: note_off channel=13 note=38 velocity=95 time=0
EXTRACT: note_on channel=13 note=38 velocity=95 time=0
EXTRACT: note_off channel=9 note=60 velocity=95 time=0
EXTRACT: note_on channel=9 note=60 velocity=95 time=0
EXTRACT: note_off channel=9 note=49 velocity=95 time=0
EXTRACT: note_off channel=9 note=35 velocity=95 time=0
EXTRACT: note_on channel=9 note=51 velocity=95 time=0
EXTRACT: note_off channel=11 note=73 velocity=95 time=0.12
EXTRACT: note_off channel=15 note=69 velocity=95 time=0.12
EXTRACT: note_on channel=15 note=66 velocity=95 time=0
EXTRACT: note_off channel=2 note=73 velocity=95 time=0
EXTRACT: note_off channel=2 note=69 velocity=95 time=0
EXTRACT: note_off channel=2 note=66 velocity=95 time=0
EXTRACT: note_on channel=2 note=73 velocity=95 time=0
EXTRACT: note_on channel=2 note=69 velocity=95 time=0
EXTRACT: note_on channel=2 note=66 velocity=95 time=0
EXTRACT: note_on channel=11 note=73 velocity=95 time=0
EXTRACT: note_off channel=13 note=38 velocity=95 time=0
EXTRACT: note_off channel=9 note=60 velocity=95 time=0
EXTRACT: note_on channel=9 note=61 velocity=95 time=0
EXTRACT: note_off channel=9 note=51 velocity=95 time=0
EXTRACT: note_on channel=9 note=51 velocity=95 time=0
EXTRACT: note_on channel=9 note=38 velocity=95 time=0
EXTRACT: note_on channel=9 note=35 velocity=95 time=0
EXTRACT: note_off channel=11 note=73 velocity=95 time=0.12
EXTRACT: note_off channel=15 note=66 velocity=95 time=0.12
EXTRACT: note_on channel=15 note=64 velocity=95 time=0
EXTRACT: note_off channel=2 note=73 velocity=95 time=0
EXTRACT: note_off channel=2 note=69 velocity=95 time=0
EXTRACT: note_off channel=2 note=66 velocity=95 time=0
EXTRACT: note_on channel=2 note=71 velocity=95 time=0
EXTRACT: note_on channel=2 note=68 velocity=95 time=0
EXTRACT: note_on channel=2 note=64 velocity=95 time=0
EXTRACT: note_on channel=11 note=71 velocity=95 time=0
EXTRACT: note_on channel=13 note=37 velocity=95 time=0
EXTRACT: note_off channel=9 note=61 velocity=95 time=0
EXTRACT: note_on channel=9 note=60 velocity=95 time=0
EXTRACT: note_off channel=9 note=51 velocity=95 time=0
EXTRACT: note_off channel=9 note=38 velocity=95 time=0
EXTRACT: note_off channel=9 note=35 velocity=95 time=0
EXTRACT: note_on channel=9 note=51 velocity=95 time=0
EXTRACT: note_off channel=11 note=71 velocity=95 time=0.12
EXTRACT: note_off channel=15 note=64 velocity=95 time=0.12
EXTRACT: note_on channel=15 note=69 velocity=95 time=0
EXTRACT: note_off channel=2 note=71 velocity=95 time=0
EXTRACT: note_off channel=2 note=68 velocity=95 time=0
EXTRACT: note_off channel=2 note=64 velocity=95 time=0
EXTRACT: note_off channel=13 note=37 velocity=95 time=0
EXTRACT: note_off channel=9 note=60 velocity=95 time=0
EXTRACT: note_on channel=9 note=60 velocity=95 time=0
EXTRACT: note_off channel=9 note=51 velocity=95 time=0
EXTRACT: note_on channel=9 note=51 velocity=95 time=0
EXTRACT: note_on channel=9 note=35 velocity=95 time=0
EXTRACT: note_on channel=2 note=69 velocity=95 time=0.24
EXTRACT: note_on channel=2 note=66 velocity=95 time=0
EXTRACT: note_on channel=2 note=62 velocity=95 time=0
EXTRACT: note_on channel=11 note=69 velocity=95 time=0
EXTRACT: note_on channel=13 note=35 velocity=95 time=0
EXTRACT: note_off channel=9 note=60 velocity=95 time=0
EXTRACT: note_on channel=9 note=60 velocity=95 time=0
EXTRACT: note_off channel=9 note=51 velocity=95 time=0
EXTRACT: note_off channel=9 note=35 velocity=95 time=0
EXTRACT: note_on channel=9 note=51 velocity=95 time=0
EXTRACT: note_off channel=15 note=69 velocity=95 time=0.24
EXTRACT: note_on channel=15 note=66 velocity=95 time=0
EXTRACT: note_off channel=11 note=69 velocity=95 time=0
EXTRACT: note_off channel=13 note=35 velocity=95 time=0
EXTRACT: note_off channel=9 note=60 velocity=95 time=0
EXTRACT: note_on channel=9 note=60 velocity=95 time=0
EXTRACT: note_off channel=9 note=51 velocity=95 time=0
EXTRACT: note_on channel=9 note=51 velocity=95 time=0
EXTRACT: note_on channel=9 note=38 velocity=95 time=0
EXTRACT: note_on channel=9 note=35 velocity=95 time=0
EXTRACT: note_off channel=15 note=66 velocity=95 time=0.24
EXTRACT: note_on channel=15 note=64 velocity=95 time=0
EXTRACT: note_off channel=2 note=69 velocity=95 time=0
EXTRACT: note_off channel=2 note=66 velocity=95 time=0
EXTRACT: note_off channel=2 note=62 velocity=95 time=0
EXTRACT: note_on channel=2 note=71 velocity=95 time=0
EXTRACT: note_on channel=2 note=68 velocity=95 time=0
EXTRACT: note_on channel=2 note=64 velocity=95 time=0
EXTRACT: note_on channel=11 note=71 velocity=95 time=0
EXTRACT: note_on channel=13 note=36 velocity=95 time=0
EXTRACT: note_off channel=9 note=60 velocity=95 time=0
EXTRACT: note_on channel=9 note=61 velocity=95 time=0
EXTRACT: note_off channel=9 note=51 velocity=95 time=0
EXTRACT: note_off channel=9 note=38 velocity=95 time=0
EXTRACT: note_off channel=9 note=35 velocity=95 time=0
EXTRACT: note_on channel=9 note=51 velocity=95 time=0
EXTRACT: note_off channel=15 note=64 velocity=95 time=0.24
EXTRACT: note_off channel=8 note=73 velocity=95 time=0
EXTRACT: note_on channel=8 note=73 velocity=95 time=0
EXTRACT: note_off channel=13 note=36 velocity=95 time=0
EXTRACT: note_on channel=13 note=37 velocity=95 time=0
EXTRACT: note_off channel=9 note=61 velocity=95 time=0
EXTRACT: note_on channel=9 note=60 velocity=95 time=0
EXTRACT: note_off channel=9 note=51 velocity=95 time=0
EXTRACT: note_on channel=9 note=51 velocity=95 time=0
EXTRACT: note_on channel=9 note=35 velocity=95 time=0
EXTRACT: note_on channel=15 note=69 velocity=95 time=0.24
EXTRACT: note_on channel=4 note=57 velocity=95 time=0
EXTRACT: note_off channel=13 note=37 velocity=95 time=0
EXTRACT: note_on channel=13 note=32 velocity=95 time=0
EXTRACT: note_off channel=9 note=60 velocity=95 time=0
EXTRACT: note_on channel=9 note=60 velocity=95 time=0
EXTRACT: note_off channel=9 note=51 velocity=95 time=0
EXTRACT: note_off channel=9 note=35 velocity=95 time=0
EXTRACT: note_on channel=9 note=51 velocity=95 time=0
EXTRACT: note_off channel=15 note=69 velocity=95 time=0.24
EXTRACT: note_on channel=15 note=66 velocity=95 time=0
EXTRACT: note_off channel=4 note=57 velocity=95 time=0
EXTRACT: note_on channel=4 note=54 velocity=95 time=0
EXTRACT: note_off channel=8 note=73 velocity=95 time=0
EXTRACT: note_on channel=8 note=71 velocity=95 time=0
EXTRACT: note_off channel=13 note=32 velocity=95 time=0
EXTRACT: note_on channel=13 note=28 velocity=95 time=0
EXTRACT: note_off channel=9 note=60 velocity=95 time=0
EXTRACT: note_on channel=9 note=61 velocity=95 time=0
EXTRACT: note_off channel=9 note=51 velocity=95 time=0
EXTRACT: note_on channel=9 note=51 velocity=95 time=0
EXTRACT: note_on channel=9 note=38 velocity=95 time=0
EXTRACT: note_on channel=9 note=35 velocity=95 time=0
EXTRACT: note_off channel=15 note=66 velocity=95 time=0.24
EXTRACT: note_on channel=15 note=64 velocity=95 time=0
EXTRACT: note_off channel=2 note=71 velocity=95 time=0
EXTRACT: note_off channel=2 note=68 velocity=95 time=0
EXTRACT: note_off channel=2 note=64 velocity=95 time=0
EXTRACT: note_on channel=2 note=69 velocity=95 time=0
EXTRACT: note_on channel=2 note=64 velocity=95 time=0
EXTRACT: note_on channel=2 note=61 velocity=95 time=0
EXTRACT: note_off channel=4 note=54 velocity=95 time=0
EXTRACT: note_on channel=4 note=57 velocity=95 time=0
EXTRACT: note_off channel=8 note=71 velocity=95 time=0
EXTRACT: note_on channel=8 note=69 velocity=95 time=0
EXTRACT: note_off channel=11 note=71 velocity=95 time=0
EXTRACT: note_on channel=11 note=69 velocity=95 time=0
EXTRACT: note_off channel=9 note=61 velocity=95 time=0
EXTRACT: note_on channel=9 note=60 velocity=95 time=0
EXTRACT: note_off channel=9 note=51 velocity=95 time=0
EXTRACT: note_off channel=9 note=38 velocity=95 time=0
EXTRACT: note_off channel=9 note=35 velocity=95 time=0
EXTRACT: note_on channel=9 note=51 velocity=95 time=0
EXTRACT: note_off channel=15 note=64 velocity=95 time=0.24
EXTRACT: note_on channel=15 note=69 velocity=95 time=0
EXTRACT: note_off channel=13 note=28 velocity=95 time=0
EXTRACT: note_on channel=13 note=30 velocity=95 time=0
EXTRACT: note_off channel=9 note=60 velocity=95 time=0
EXTRACT: note_on channel=9 note=60 velocity=95 time=0
EXTRACT: note_off channel=9 note=51 velocity=95 time=0
EXTRACT: note_on channel=9 note=51 velocity=95 time=0
EXTRACT: note_on channel=9 note=35 velocity=95 time=0
EXTRACT: note_off channel=13 note=30 velocity=95 time=0.24
EXTRACT: note_off channel=9 note=60 velocity=95 time=0
EXTRACT: note_on channel=9 note=60 velocity=95 time=0
EXTRACT: note_off channel=9 note=51 velocity=95 time=0
EXTRACT: note_off channel=9 note=35 velocity=95 time=0
EXTRACT: note_on channel=9 note=51 velocity=95 time=0
EXTRACT: note_off channel=15 note=69 velocity=95 time=0.24
EXTRACT: note_on channel=15 note=66 velocity=95 time=0
EXTRACT: note_off channel=4 note=57 velocity=95 time=0
EXTRACT: note_off channel=11 note=69 velocity=95 time=0
EXTRACT: note_on channel=13 note=32 velocity=95 time=0
EXTRACT: note_off channel=9 note=60 velocity=95 time=0
EXTRACT: note_on channel=9 note=60 velocity=95 time=0
EXTRACT: note_off channel=9 note=51 velocity=95 time=0
EXTRACT: note_on channel=9 note=51 velocity=95 time=0
EXTRACT: note_on channel=9 note=38 velocity=95 time=0
EXTRACT: note_on channel=9 note=35 velocity=95 time=0
EXTRACT: note_off channel=15 note=66 velocity=95 time=0.24
EXTRACT: note_on channel=15 note=64 velocity=95 time=0
EXTRACT: note_off channel=8 note=69 velocity=95 time=0
EXTRACT: note_on channel=8 note=76 velocity=95 time=0
EXTRACT: note_off channel=13 note=32 velocity=95 time=0
EXTRACT: note_off channel=9 note=60 velocity=95 time=0
EXTRACT: note_on channel=9 note=61 velocity=95 time=0
EXTRACT: note_off channel=9 note=51 velocity=95 time=0
EXTRACT: note_off channel=9 note=38 velocity=95 time=0
EXTRACT: note_off channel=9 note=35 velocity=95 time=0
EXTRACT: note_on channel=9 note=51 velocity=95 time=0
EXTRACT: note_off channel=15 note=64 velocity=95 time=0.24
EXTRACT: note_on channel=15 note=69 velocity=95 time=0
EXTRACT: note_off channel=2 note=69 velocity=95 time=0
EXTRACT: note_off channel=2 note=64 velocity=95 time=0
EXTRACT: note_off channel=2 note=61 velocity=95 time=0
EXTRACT: note_on channel=2 note=73 velocity=95 time=0
EXTRACT: note_on channel=2 note=69 velocity=95 time=0
EXTRACT: note_on channel=2 note=66 velocity=95 time=0
EXTRACT: note_on channel=11 note=73 velocity=95 time=0
EXTRACT: note_on channel=13 note=38 velocity=95 time=0
EXTRACT: note_off channel=9 note=61 velocity=95 time=0
EXTRACT: note_on channel=9 note=60 velocity=95 time=0
EXTRACT: note_off channel=9 note=51 velocity=95 time=0
EXTRACT: note_on channel=9 note=51 velocity=95 time=0
EXTRACT: note_on channel=9 note=35 velocity=95 time=0
EXTRACT: note_off channel=11 note=73 velocity=95 time=0.12
EXTRACT: note_off channel=2 note=73 velocity=95 time=0.12
EXTRACT: note_off channel=2 note=69 velocity=95 time=0
EXTRACT: note_off channel=2 note=66 velocity=95 time=0
EXTRACT: note_on channel=2 note=73 velocity=95 time=0
EXTRACT: note_on channel=2 note=69 velocity=95 time=0
EXTRACT: note_on channel=2 note=66 velocity=95 time=0
EXTRACT: note_on channel=4 note=61 velocity=95 time=0
EXTRACT: note_on channel=11 note=73 velocity=95 time=0
EXTRACT: note_off channel=13 note=38 velocity=95 time=0
EXTRACT: note_on channel=13 note=38 velocity=95 time=0
EXTRACT: note_off channel=9 note=60 velocity=95 time=0
EXTRACT: note_on channel=9 note=60 velocity=95 time=0
EXTRACT: note_off channel=9 note=51 velocity=95 time=0
EXTRACT: note_off channel=9 note=35 velocity=95 time=0
EXTRACT: note_on channel=9 note=51 velocity=95 time=0
EXTRACT: note_off channel=11 note=73 velocity=95 time=0.12
EXTRACT: note_off channel=15 note=69 velocity=95 time=0.12
EXTRACT: note_on channel=15 note=66 velocity=95 time=0
EXTRACT: note_off channel=2 note=73 velocity=95 time=0
EXTRACT: note_off channel=2 note=69 velocity=95 time=0
EXTRACT: note_off channel=2 note=66 velocity=95 time=0
EXTRACT: note_on channel=2 note=73 velocity=95 time=0
EXTRACT: note_on channel=2 note=69 velocity=95 time=0
EXTRACT: note_on channel=2 note=66 velocity=95 time=0
EXTRACT: note_off channel=4 note=61 velocity=95 time=0
EXTRACT: note_on channel=11 note=73 velocity=95 time=0
EXTRACT: note_off channel=13 note=38 velocity=95 time=0
EXTRACT: note_off channel=9 note=60 velocity=95 time=0
EXTRACT: note_on channel=9 note=61 velocity=95 time=0
EXTRACT: note_off channel=9 note=51 velocity=95 time=0
EXTRACT: note_on channel=9 note=51 velocity=95 time=0
EXTRACT: note_on channel=9 note=38 velocity=95 time=0
EXTRACT: note_on channel=9 note=35 velocity=95 time=0
EXTRACT: note_off channel=11 note=73 velocity=95 time=0.12
EXTRACT: note_off channel=15 note=66 velocity=95 time=0.12
EXTRACT: note_on channel=15 note=64 velocity=95 time=0
EXTRACT: note_off channel=2 note=73 velocity=95 time=0
EXTRACT: note_off channel=2 note=69 velocity=95 time=0
EXTRACT: note_off channel=2 note=66 velocity=95 time=0
EXTRACT: note_on channel=2 note=71 velocity=95 time=0
EXTRACT: note_on channel=2 note=68 velocity=95 time=0
EXTRACT: note_on channel=2 note=64 velocity=95 time=0
EXTRACT: note_on channel=4 note=59 velocity=95 time=0
EXTRACT: note_on channel=11 note=71 velocity=95 time=0
EXTRACT: note_on channel=13 note=37 velocity=95 time=0
EXTRACT: note_off channel=9 note=61 velocity=95 time=0
EXTRACT: note_on channel=9 note=60 velocity=95 time=0
EXTRACT: note_off channel=9 note=51 velocity=95 time=0
EXTRACT: note_off channel=9 note=38 velocity=95 time=0
EXTRACT: note_off channel=9 note=35 velocity=95 time=0
EXTRACT: note_on channel=9 note=51 velocity=95 time=0
EXTRACT: note_off channel=11 note=71 velocity=95 time=0.12
EXTRACT: note_off channel=15 note=64 velocity=95 time=0.12
EXTRACT: note_on channel=15 note=69 velocity=95 time=0
EXTRACT: note_off channel=2 note=71 velocity=95 time=0
EXTRACT: note_off channel=2 note=68 velocity=95 time=0
EXTRACT: note_off channel=2 note=64 velocity=95 time=0
EXTRACT: note_off channel=4 note=59 velocity=95 time=0
EXTRACT: note_off channel=13 note=37 velocity=95 time=0
EXTRACT: note_off channel=9 note=60 velocity=95 time=0
EXTRACT: note_on channel=9 note=60 velocity=95 time=0
EXTRACT: note_off channel=9 note=51 velocity=95 time=0
EXTRACT: note_on channel=9 note=51 velocity=95 time=0
EXTRACT: note_on channel=9 note=35 velocity=95 time=0
EXTRACT: note_on channel=2 note=69 velocity=95 time=0.24
EXTRACT: note_on channel=2 note=66 velocity=95 time=0
EXTRACT: note_on channel=2 note=62 velocity=95 time=0
EXTRACT: note_on channel=4 note=57 velocity=95 time=0
EXTRACT: note_on channel=11 note=69 velocity=95 time=0
EXTRACT: note_on channel=13 note=35 velocity=95 time=0
EXTRACT: note_off channel=9 note=60 velocity=95 time=0
EXTRACT: note_on channel=9 note=60 velocity=95 time=0
EXTRACT: note_off channel=9 note=51 velocity=95 time=0
EXTRACT: note_off channel=9 note=35 velocity=95 time=0
EXTRACT: note_on channel=9 note=51 velocity=95 time=0
EXTRACT: note_off channel=15 note=69 velocity=95 time=0.24
EXTRACT: note_on channel=15 note=66 velocity=95 time=0
EXTRACT: note_off channel=4 note=57 velocity=95 time=0
EXTRACT: note_off channel=11 note=69 velocity=95 time=0
EXTRACT: note_off channel=13 note=35 velocity=95 time=0
EXTRACT: note_off channel=9 note=60 velocity=95 time=0
EXTRACT: note_on channel=9 note=60 velocity=95 time=0
EXTRACT: note_off channel=9 note=51 velocity=95 time=0
EXTRACT: note_on channel=9 note=51 velocity=95 time=0
EXTRACT: note_on channel=9 note=38 velocity=95 time=0
EXTRACT: note_on channel=9 note=35 velocity=95 time=0
EXTRACT: note_off channel=15 note=66 velocity=95 time=0.24
EXTRACT: note_on channel=15 note=64 velocity=95 time=0
EXTRACT: note_off channel=2 note=69 velocity=95 time=0
EXTRACT: note_off channel=2 note=66 velocity=95 time=0
EXTRACT: note_off channel=2 note=62 velocity=95 time=0
EXTRACT: note_on channel=2 note=71 velocity=95 time=0
EXTRACT: note_on channel=2 note=68 velocity=95 time=0
EXTRACT: note_on channel=2 note=64 velocity=95 time=0
EXTRACT: note_on channel=4 note=59 velocity=95 time=0
EXTRACT: note_on channel=11 note=71 velocity=95 time=0
EXTRACT: note_on channel=13 note=36 velocity=95 time=0
EXTRACT: note_off channel=9 note=60 velocity=95 time=0
EXTRACT: note_on channel=9 note=61 velocity=95 time=0
EXTRACT: note_off channel=9 note=51 velocity=95 time=0
EXTRACT: note_off channel=9 note=38 velocity=95 time=0
EXTRACT: note_off channel=9 note=35 velocity=95 time=0
EXTRACT: note_on channel=9 note=51 velocity=95 time=0
EXTRACT: note_off channel=15 note=64 velocity=95 time=0.24
EXTRACT: note_off channel=4 note=59 velocity=95 time=0
EXTRACT: note_off channel=8 note=76 velocity=95 time=0
EXTRACT: note_on channel=8 note=73 velocity=95 time=0
EXTRACT: note_off channel=13 note=36 velocity=95 time=0
EXTRACT: note_on channel=13 note=37 velocity=95 time=0
EXTRACT: note_off channel=9 note=61 velocity=95 time=0
EXTRACT: note_on channel=9 note=60 velocity=95 time=0
EXTRACT: note_off channel=9 note=51 velocity=95 time=0
EXTRACT: note_on channel=9 note=51 velocity=95 time=0
EXTRACT: note_on channel=9 note=35 velocity=95 time=0
EXTRACT: note_on channel=15 note=69 velocity=95 time=0.24
EXTRACT: note_on channel=4 note=57 velocity=95 time=0
EXTRACT: note_off channel=13 note=37 velocity=95 time=0
EXTRACT: note_on channel=13 note=32 velocity=95 time=0
EXTRACT: note_off channel=9 note=60 velocity=95 time=0
EXTRACT: note_on channel=9 note=60 velocity=95 time=0
EXTRACT: note_off channel=9 note=51 velocity=95 time=0
EXTRACT: note_off channel=9 note=35 velocity=95 time=0
EXTRACT: note_on channel=9 note=51 velocity=95 time=0
EXTRACT: note_off channel=15 note=69 velocity=95 time=0.24
EXTRACT: note_on channel=15 note=66 velocity=95 time=0
EXTRACT: note_off channel=4 note=57 velocity=95 time=0
EXTRACT: note_off channel=8 note=73 velocity=95 time=0
EXTRACT: note_on channel=8 note=71 velocity=95 time=0
EXTRACT: note_off channel=13 note=32 velocity=95 time=0
EXTRACT: note_on channel=13 note=28 velocity=95 time=0
EXTRACT: note_off channel=9 note=60 velocity=95 time=0
EXTRACT: note_on channel=9 note=61 velocity=95 time=0
EXTRACT: note_off channel=9 note=51 velocity=95 time=0
EXTRACT: note_on channel=9 note=51 velocity=95 time=0
EXTRACT: note_on channel=9 note=38 velocity=95 time=0
EXTRACT: note_on channel=9 note=35 velocity=95 time=0
EXTRACT: note_off channel=15 note=66 velocity=95 time=0.24
EXTRACT: note_on channel=15 note=64 velocity=95 time=0
EXTRACT: note_off channel=2 note=71 velocity=95 time=0
EXTRACT: note_off channel=2 note=68 velocity=95 time=0
EXTRACT: note_off channel=2 note=64 velocity=95 time=0
EXTRACT: note_on channel=2 note=69 velocity=95 time=0
EXTRACT: note_on channel=2 note=64 velocity=95 time=0
EXTRACT: note_on channel=2 note=61 velocity=95 time=0
EXTRACT: note_on channel=4 note=56 velocity=95 time=0
EXTRACT: note_off channel=8 note=71 velocity=95 time=0
EXTRACT: note_on channel=8 note=69 velocity=95 time=0
EXTRACT: note_off channel=11 note=71 velocity=95 time=0
EXTRACT: note_on channel=11 note=69 velocity=95 time=0
EXTRACT: note_off channel=9 note=61 velocity=95 time=0
EXTRACT: note_on channel=9 note=60 velocity=95 time=0
EXTRACT: note_off channel=9 note=51 velocity=95 time=0
EXTRACT: note_off channel=9 note=38 velocity=95 time=0
EXTRACT: note_off channel=9 note=35 velocity=95 time=0
EXTRACT: note_on channel=9 note=51 velocity=95 time=0
EXTRACT: note_off channel=15 note=64 velocity=95 time=0.24
EXTRACT: note_on channel=15 note=69 velocity=95 time=0
EXTRACT: note_off channel=13 note=28 velocity=95 time=0
EXTRACT: note_on channel=13 note=30 velocity=95 time=0
EXTRACT: note_off channel=9 note=60 velocity=95 time=0
EXTRACT: note_on channel=9 note=60 velocity=95 time=0
EXTRACT: note_off channel=9 note=51 velocity=95 time=0
EXTRACT: note_on channel=9 note=51 velocity=95 time=0
EXTRACT: note_on channel=9 note=35 velocity=95 time=0
EXTRACT: note_off channel=4 note=56 velocity=95 time=0.24
EXTRACT: note_on channel=4 note=57 velocity=95 time=0
EXTRACT: note_off channel=13 note=30 velocity=95 time=0
EXTRACT: note_off channel=9 note=60 velocity=95 time=0
EXTRACT: note_on channel=9 note=60 velocity=95 time=0
EXTRACT: note_off channel=9 note=51 velocity=95 time=0
EXTRACT: note_off channel=9 note=35 velocity=95 time=0
EXTRACT: note_on channel=9 note=51 velocity=95 time=0
EXTRACT: note_off channel=15 note=69 velocity=95 time=0.24
EXTRACT: note_on channel=15 note=66 velocity=95 time=0
EXTRACT: note_off channel=4 note=57 velocity=95 time=0
EXTRACT: note_off channel=8 note=69 velocity=95 time=0
EXTRACT: note_on channel=8 note=66 velocity=95 time=0
EXTRACT: note_off channel=11 note=69 velocity=95 time=0
EXTRACT: note_on channel=13 note=32 velocity=95 time=0
EXTRACT: note_off channel=9 note=60 velocity=95 time=0
EXTRACT: note_on channel=9 note=60 velocity=95 time=0
EXTRACT: note_off channel=9 note=51 velocity=95 time=0
EXTRACT: note_on channel=9 note=51 velocity=95 time=0
EXTRACT: note_on channel=9 note=38 velocity=95 time=0
EXTRACT: note_on channel=9 note=35 velocity=95 time=0
EXTRACT: note_off channel=15 note=66 velocity=95 time=0.24
EXTRACT: note_on channel=15 note=64 velocity=95 time=0
EXTRACT: note_off channel=13 note=32 velocity=95 time=0
EXTRACT: note_off channel=9 note=60 velocity=95 time=0
EXTRACT: note_on channel=9 note=61 velocity=95 time=0
EXTRACT: note_off channel=9 note=51 velocity=95 time=0
EXTRACT: note_off channel=9 note=38 velocity=95 time=0
EXTRACT: note_off channel=9 note=35 velocity=95 time=0
EXTRACT: note_on channel=9 note=51 velocity=95 time=0
EXTRACT: note_off channel=15 note=64 velocity=95 time=0.24
EXTRACT: note_on channel=15 note=69 velocity=95 time=0
EXTRACT: note_off channel=2 note=69 velocity=95 time=0
EXTRACT: note_off channel=2 note=64 velocity=95 time=0
EXTRACT: note_off channel=2 note=61 velocity=95 time=0
EXTRACT: note_on channel=2 note=73 velocity=95 time=0
EXTRACT: note_on channel=2 note=69 velocity=95 time=0
EXTRACT: note_on channel=2 note=66 velocity=95 time=0
EXTRACT: note_off channel=8 note=66 velocity=95 time=0
EXTRACT: note_on channel=8 note=69 velocity=95 time=0
EXTRACT: note_on channel=11 note=73 velocity=95 time=0
EXTRACT: note_on channel=13 note=38 velocity=95 time=0
EXTRACT: note_off channel=9 note=61 velocity=95 time=0
EXTRACT: note_on channel=9 note=60 velocity=95 time=0
EXTRACT: note_off channel=9 note=51 velocity=95 time=0
EXTRACT: note_on channel=9 note=51 velocity=95 time=0
EXTRACT: note_on channel=9 note=35 velocity=95 time=0
EXTRACT: note_off channel=11 note=73 velocity=95 time=0.12
EXTRACT: note_off channel=2 note=73 velocity=95 time=0.12
EXTRACT: note_off channel=2 note=69 velocity=95 time=0
EXTRACT: note_off channel=2 note=66 velocity=95 time=0
EXTRACT: note_on channel=2 note=73 velocity=95 time=0
EXTRACT: note_on channel=2 note=69 velocity=95 time=0
EXTRACT: note_on channel=2 note=66 velocity=95 time=0
EXTRACT: note_on channel=4 note=61 velocity=95 time=0
EXTRACT: note_on channel=11 note=73 velocity=95 time=0
EXTRACT: note_off channel=13 note=38 velocity=95 time=0
EXTRACT: note_on channel=13 note=38 velocity=95 time=0
EXTRACT: note_off channel=9 note=60 velocity=95 time=0
EXTRACT: note_on channel=9 note=60 velocity=95 time=0
EXTRACT: note_off channel=9 note=51 velocity=95 time=0
EXTRACT: note_off channel=9 note=35 velocity=95 time=0
EXTRACT: note_on channel=9 note=51 velocity=95 time=0
EXTRACT: note_off channel=11 note=73 velocity=95 time=0.12
EXTRACT: note_off channel=15 note=69 velocity=95 time=0.12
EXTRACT: note_on channel=15 note=66 velocity=95 time=0
EXTRACT: note_off channel=2 note=73 velocity=95 time=0
EXTRACT: note_off channel=2 note=69 velocity=95 time=0
EXTRACT: note_off channel=2 note=66 velocity=95 time=0
EXTRACT: note_on channel=2 note=73 velocity=95 time=0
EXTRACT: note_on channel=2 note=69 velocity=95 time=0
EXTRACT: note_on channel=2 note=66 velocity=95 time=0
EXTRACT: note_off channel=4 note=61 velocity=95 time=0
EXTRACT: note_on channel=11 note=73 velocity=95 time=0
EXTRACT: note_off channel=13 note=38 velocity=95 time=0
EXTRACT: note_off channel=9 note=60 velocity=95 time=0
EXTRACT: note_on channel=9 note=61 velocity=95 time=0
EXTRACT: note_off channel=9 note=51 velocity=95 time=0
EXTRACT: note_on channel=9 note=51 velocity=95 time=0
EXTRACT: note_on channel=9 note=38 velocity=95 time=0
EXTRACT: note_on channel=9 note=35 velocity=95 time=0
EXTRACT: note_off channel=11 note=73 velocity=95 time=0.12
EXTRACT: note_off channel=15 note=66 velocity=95 time=0.12
EXTRACT: note_on channel=15 note=64 velocity=95 time=0
EXTRACT: note_off channel=2 note=73 velocity=95 time=0
EXTRACT: note_off channel=2 note=69 velocity=95 time=0
EXTRACT: note_off channel=2 note=66 velocity=95 time=0
EXTRACT: note_on channel=2 note=71 velocity=95 time=0
EXTRACT: note_on channel=2 note=68 velocity=95 time=0
EXTRACT: note_on channel=2 note=64 velocity=95 time=0
EXTRACT: note_on channel=4 note=59 velocity=95 time=0
EXTRACT: note_on channel=11 note=71 velocity=95 time=0
EXTRACT: note_on channel=13 note=37 velocity=95 time=0
EXTRACT: note_off channel=9 note=61 velocity=95 time=0
EXTRACT: note_on channel=9 note=60 velocity=95 time=0
EXTRACT: note_off channel=9 note=51 velocity=95 time=0
EXTRACT: note_off channel=9 note=38 velocity=95 time=0
EXTRACT: note_off channel=9 note=35 velocity=95 time=0
EXTRACT: note_on channel=9 note=51 velocity=95 time=0
EXTRACT: note_off channel=11 note=71 velocity=95 time=0.12
EXTRACT: note_off channel=15 note=64 velocity=95 time=0.12
EXTRACT: note_on channel=15 note=69 velocity=95 time=0
EXTRACT: note_off channel=2 note=71 velocity=95 time=0
EXTRACT: note_off channel=2 note=68 velocity=95 time=0
EXTRACT: note_off channel=2 note=64 velocity=95 time=0
EXTRACT: note_off channel=4 note=59 velocity=95 time=0
EXTRACT: note_off channel=13 note=37 velocity=95 time=0
EXTRACT: note_off channel=9 note=60 velocity=95 time=0
EXTRACT: note_on channel=9 note=60 velocity=95 time=0
EXTRACT: note_off channel=9 note=51 velocity=95 time=0
EXTRACT: note_on channel=9 note=51 velocity=95 time=0
EXTRACT: note_on channel=9 note=35 velocity=95 time=0
EXTRACT: note_on channel=2 note=69 velocity=95 time=0.24
EXTRACT: note_on channel=2 note=66 velocity=95 time=0
EXTRACT: note_on channel=2 note=62 velocity=95 time=0
EXTRACT: note_on channel=4 note=57 velocity=95 time=0
EXTRACT: note_on channel=11 note=69 velocity=95 time=0
EXTRACT: note_on channel=13 note=35 velocity=95 time=0
EXTRACT: note_off channel=9 note=60 velocity=95 time=0
EXTRACT: note_on channel=9 note=60 velocity=95 time=0
EXTRACT: note_off channel=9 note=51 velocity=95 time=0
EXTRACT: note_off channel=9 note=35 velocity=95 time=0
EXTRACT: note_on channel=9 note=51 velocity=95 time=0
EXTRACT: note_off channel=15 note=69 velocity=95 time=0.24
EXTRACT: note_on channel=15 note=66 velocity=95 time=0
EXTRACT: note_off channel=4 note=57 velocity=95 time=0
EXTRACT: note_off channel=11 note=69 velocity=95 time=0
EXTRACT: note_off channel=13 note=35 velocity=95 time=0
EXTRACT: note_off channel=9 note=60 velocity=95 time=0
EXTRACT: note_on channel=9 note=60 velocity=95 time=0
EXTRACT: note_off channel=9 note=51 velocity=95 time=0
EXTRACT: note_on channel=9 note=51 velocity=95 time=0
EXTRACT: note_on channel=9 note=38 velocity=95 time=0
EXTRACT: note_on channel=9 note=35 velocity=95 time=0
EXTRACT: note_off channel=15 note=66 velocity=95 time=0.24
EXTRACT: note_on channel=15 note=64 velocity=95 time=0
EXTRACT: note_off channel=2 note=69 velocity=95 time=0
EXTRACT: note_off channel=2 note=66 velocity=95 time=0
EXTRACT: note_off channel=2 note=62 velocity=95 time=0
EXTRACT: note_on channel=2 note=71 velocity=95 time=0
EXTRACT: note_on channel=2 note=68 velocity=95 time=0
EXTRACT: note_on channel=2 note=65 velocity=95 time=0
EXTRACT: note_on channel=4 note=59 velocity=95 time=0
EXTRACT: note_on channel=11 note=71 velocity=95 time=0
EXTRACT: note_on channel=13 note=36 velocity=95 time=0
EXTRACT: note_off channel=9 note=60 velocity=95 time=0
EXTRACT: note_on channel=9 note=61 velocity=95 time=0
EXTRACT: note_off channel=9 note=51 velocity=95 time=0
EXTRACT: note_off channel=9 note=38 velocity=95 time=0
EXTRACT: note_off channel=9 note=35 velocity=95 time=0
EXTRACT: note_on channel=9 note=51 velocity=95 time=0
EXTRACT: note_off channel=15 note=64 velocity=95 time=0.24
EXTRACT: note_off channel=4 note=59 velocity=95 time=0
EXTRACT: note_off channel=8 note=69 velocity=95 time=0
EXTRACT: note_on channel=8 note=68 velocity=95 time=0
EXTRACT: note_off channel=13 note=36 velocity=95 time=0
EXTRACT: note_on channel=13 note=37 velocity=95 time=0
EXTRACT: note_off channel=9 note=61 velocity=95 time=0
EXTRACT: note_on channel=9 note=60 velocity=95 time=0
EXTRACT: note_off channel=9 note=51 velocity=95 time=0
EXTRACT: note_on channel=9 note=51 velocity=95 time=0
EXTRACT: note_on channel=9 note=35 velocity=95 time=0
EXTRACT: note_on channel=15 note=73 velocity=95 time=0.24
EXTRACT: note_on channel=4 note=57 velocity=95 time=0
EXTRACT: note_off channel=8 note=68 velocity=95 time=0
EXTRACT: note_on channel=8 note=69 velocity=95 time=0
EXTRACT: note_off channel=13 note=37 velocity=95 time=0
EXTRACT: note_on channel=13 note=40 velocity=95 time=0
EXTRACT: note_off channel=9 note=60 velocity=95 time=0
EXTRACT: note_on channel=9 note=60 velocity=95 time=0
EXTRACT: note_off channel=9 note=51 velocity=95 time=0
EXTRACT: note_off channel=9 note=35 velocity=95 time=0
EXTRACT: note_on channel=9 note=51 velocity=95 time=0
EXTRACT: note_off channel=15 note=73 velocity=95 time=0.24
EXTRACT: note_on channel=15 note=68 velocity=95 time=0
EXTRACT: note_off channel=4 note=57 velocity=95 time=0
EXTRACT: note_off channel=8 note=69 velocity=95 time=0
EXTRACT: note_on channel=8 note=71 velocity=95 time=0
EXTRACT: note_off channel=13 note=40 velocity=95 time=0
EXTRACT: note_on channel=13 note=41 velocity=95 time=0
EXTRACT: note_off channel=9 note=60 velocity=95 time=0
EXTRACT: note_on channel=9 note=61 velocity=95 time=0
EXTRACT: note_off channel=9 note=51 velocity=95 time=0
EXTRACT: note_on channel=9 note=51 velocity=95 time=0
EXTRACT: note_on channel=9 note=38 velocity=95 time=0
EXTRACT: note_on channel=9 note=35 velocity=95 time=0
EXTRACT: note_off channel=15 note=68 velocity=95 time=0.24
EXTRACT: note_on channel=15 note=69 velocity=95 time=0
EXTRACT: note_off channel=2 note=71 velocity=95 time=0
EXTRACT: note_off channel=2 note=68 velocity=95 time=0
EXTRACT: note_off channel=2 note=65 velocity=95 time=0
EXTRACT: note_on channel=2 note=69 velocity=95 time=0
EXTRACT: note_on channel=2 note=64 velocity=95 time=0
EXTRACT: note_on channel=2 note=61 velocity=95 time=0
EXTRACT: note_on channel=4 note=56 velocity=95 time=0
EXTRACT: note_off channel=8 note=71 velocity=95 time=0
EXTRACT: note_on channel=8 note=69 velocity=95 time=0
EXTRACT: note_off channel=11 note=71 velocity=95 time=0
EXTRACT: note_on channel=11 note=69 velocity=95 time=0
EXTRACT: note_off channel=13 note=41 velocity=95 time=0
EXTRACT: note_on channel=13 note=42 velocity=95 time=0
EXTRACT: note_off channel=9 note=61 velocity=95 time=0
EXTRACT: note_on channel=9 note=60 velocity=95 time=0
EXTRACT: note_off channel=9 note=51 velocity=95 time=0
EXTRACT: note_off channel=9 note=38 velocity=95 time=0
EXTRACT: note_off channel=9 note=35 velocity=95 time=0
EXTRACT: note_on channel=9 note=51 velocity=95 time=0
EXTRACT: note_off channel=13 note=42 velocity=95 time=0.24
EXTRACT: note_off channel=9 note=60 velocity=95 time=0
EXTRACT: note_on channel=9 note=60 velocity=95 time=0
EXTRACT: note_off channel=9 note=51 velocity=95 time=0
EXTRACT: note_on channel=9 note=51 velocity=95 time=0
EXTRACT: note_on channel=9 note=35 velocity=95 time=0
EXTRACT: note_off channel=4 note=56 velocity=95 time=0.24
EXTRACT: note_on channel=4 note=57 velocity=95 time=0
EXTRACT: note_on channel=13 note=42 velocity=95 time=0
EXTRACT: note_off channel=9 note=60 velocity=95 time=0
EXTRACT: note_on channel=9 note=60 velocity=95 time=0
EXTRACT: note_off channel=9 note=51 velocity=95 time=0
EXTRACT: note_off channel=9 note=35 velocity=95 time=0
EXTRACT: note_on channel=9 note=51 velocity=95 time=0
EXTRACT: note_off channel=15 note=69 velocity=95 time=0.24
EXTRACT: note_off channel=4 note=57 velocity=95 time=0
EXTRACT: note_off channel=8 note=69 velocity=95 time=0
EXTRACT: note_on channel=8 note=66 velocity=95 time=0
EXTRACT: note_off channel=11 note=69 velocity=95 time=0
EXTRACT: note_off channel=13 note=42 velocity=95 time=0
EXTRACT: note_on channel=13 note=37 velocity=95 time=0
EXTRACT: note_off channel=9 note=60 velocity=95 time=0
EXTRACT: note_on channel=9 note=60 velocity=95 time=0
EXTRACT: note_off channel=9 note=51 velocity=95 time=0
EXTRACT: note_on channel=9 note=51 velocity=95 time=0
EXTRACT: note_on channel=9 note=38 velocity=95 time=0
EXTRACT: note_on channel=9 note=35 velocity=95 time=0
EXTRACT: note_off channel=8 note=66 velocity=95 time=0.24
EXTRACT: note_on channel=8 note=71 velocity=95 time=0
EXTRACT: note_on channel=11 note=73 velocity=95 time=0
EXTRACT: note_off channel=13 note=37 velocity=95 time=0
EXTRACT: note_on channel=13 note=35 velocity=95 time=0
EXTRACT: note_off channel=9 note=60 velocity=95 time=0
EXTRACT: note_on channel=9 note=61 velocity=95 time=0
EXTRACT: note_off channel=9 note=51 velocity=95 time=0
EXTRACT: note_off channel=9 note=38 velocity=95 time=0
EXTRACT: note_off channel=9 note=35 velocity=95 time=0
EXTRACT: note_on channel=9 note=51 velocity=95 time=0
EXTRACT: note_off channel=11 note=73 velocity=95 time=0.12
EXTRACT: note_on channel=11 note=73 velocity=95 time=0
EXTRACT: note_off channel=2 note=69 velocity=95 time=0.12
EXTRACT: note_off channel=2 note=64 velocity=95 time=0
EXTRACT: note_off channel=2 note=61 velocity=95 time=0
EXTRACT: note_on channel=2 note=69 velocity=95 time=0
EXTRACT: note_on channel=2 note=67 velocity=95 time=0
EXTRACT: note_on channel=2 note=62 velocity=95 time=0
EXTRACT: note_on channel=2 note=59 velocity=95 time=0
EXTRACT: note_off channel=11 note=73 velocity=95 time=0
EXTRACT: note_on channel=11 note=78 velocity=95 time=0
EXTRACT: note_on channel=11 note=74 velocity=95 time=0
EXTRACT: note_on channel=10 note=69 velocity=95 time=0
EXTRACT: note_off channel=13 note=35 velocity=95 time=0
EXTRACT: note_on channel=13 note=33 velocity=95 time=0
EXTRACT: note_off channel=9 note=61 velocity=95 time=0
EXTRACT: note_on channel=9 note=60 velocity=95 time=0
EXTRACT: note_off channel=9 note=51 velocity=95 time=0
EXTRACT: note_on channel=9 note=51 velocity=95 time=0
EXTRACT: note_on channel=9 note=35 velocity=95 time=0
EXTRACT: note_off channel=10 note=69 velocity=95 time=0.12
EXTRACT: note_on channel=10 note=69 velocity=95 time=0
EXTRACT: note_off channel=13 note=33 velocity=95 time=0
EXTRACT: note_off channel=11 note=78 velocity=95 time=0.12
EXTRACT: note_off channel=11 note=74 velocity=95 time=0
EXTRACT: note_on channel=11 note=78 velocity=95 time=0
EXTRACT: note_on channel=11 note=74 velocity=95 time=0
EXTRACT: note_off channel=10 note=69 velocity=95 time=0
EXTRACT: note_on channel=10 note=73 velocity=95 time=0
EXTRACT: note_on channel=13 note=33 velocity=95 time=0
EXTRACT: note_off channel=9 note=60 velocity=95 time=0
EXTRACT: note_on channel=9 note=60 velocity=95 time=0
EXTRACT: note_off channel=9 note=51 velocity=95 time=0
EXTRACT: note_off channel=9 note=35 velocity=95 time=0
EXTRACT: note_on channel=9 note=51 velocity=95 time=0
EXTRACT: note_off channel=10 note=73 velocity=95 time=0.12
EXTRACT: note_on channel=10 note=73 velocity=95 time=0
EXTRACT: note_on channel=14 note=55 velocity=95 time=0.06
EXTRACT: note_off channel=8 note=71 velocity=95 time=0.06
EXTRACT: note_on channel=8 note=69 velocity=95 time=0
EXTRACT: note_off channel=10 note=73 velocity=95 time=0
EXTRACT: note_on channel=10 note=76 velocity=95 time=0
EXTRACT: note_off channel=13 note=33 velocity=95 time=0
EXTRACT: note_off channel=14 note=55 velocity=95 time=0
EXTRACT: note_on channel=14 note=57 velocity=95 time=0
EXTRACT: note_off channel=9 note=60 velocity=95 time=0
EXTRACT: note_on channel=9 note=61 velocity=95 time=0
EXTRACT: note_off channel=9 note=51 velocity=95 time=0
EXTRACT: note_on channel=9 note=51 velocity=95 time=0
EXTRACT: note_on channel=9 note=38 velocity=95 time=0
EXTRACT: note_on channel=9 note=35 velocity=95 time=0
EXTRACT: note_off channel=10 note=76 velocity=95 time=0.12
EXTRACT: note_on channel=10 note=76 velocity=95 time=0
EXTRACT: note_off channel=11 note=78 velocity=95 time=0.12
EXTRACT: note_off channel=11 note=74 velocity=95 time=0
EXTRACT: note_on channel=11 note=78 velocity=95 time=0
EXTRACT: note_on channel=11 note=74 velocity=95 time=0
EXTRACT: note_off channel=10 note=76 velocity=95 time=0
EXTRACT: note_on channel=10 note=78 velocity=95 time=0
EXTRACT: note_off channel=14 note=57 velocity=95 time=0
EXTRACT: note_on channel=13 note=57 velocity=95 time=0
EXTRACT: note_off channel=9 note=61 velocity=95 time=0
EXTRACT: note_on channel=9 note=60 velocity=95 time=0
EXTRACT: note_off channel=9 note=51 velocity=95 time=0
EXTRACT: note_off channel=9 note=38 velocity=95 time=0
EXTRACT: note_off channel=9 note=35 velocity=95 time=0
EXTRACT: note_on channel=9 note=51 velocity=95 time=0
EXTRACT: note_off channel=10 note=78 velocity=95 time=0.12
EXTRACT: note_on channel=10 note=76 velocity=95 time=0
EXTRACT: note_off channel=11 note=78 velocity=95 time=0.12
EXTRACT: note_off channel=11 note=74 velocity=95 time=0
EXTRACT: note_on channel=11 note=78 velocity=95 time=0
EXTRACT: note_on channel=11 note=74 velocity=95 time=0
EXTRACT: note_off channel=10 note=76 velocity=95 time=0
EXTRACT: note_on channel=10 note=81 velocity=95 time=0
EXTRACT: note_off channel=13 note=57 velocity=95 time=0
EXTRACT: note_on channel=13 note=33 velocity=95 time=0
EXTRACT: note_off channel=9 note=60 velocity=95 time=0
EXTRACT: note_on channel=9 note=60 velocity=95 time=0
EXTRACT: note_off channel=9 note=51 velocity=95 time=0
EXTRACT: note_on channel=9 note=51 velocity=95 time=0
EXTRACT: note_on channel=9 note=35 velocity=95 time=0
EXTRACT: note_off channel=10 note=81 velocity=95 time=0.12
EXTRACT: note_on channel=10 note=81 velocity=95 time=0
EXTRACT: note_off channel=13 note=33 velocity=95 time=0
EXTRACT: note_off channel=10 note=81 velocity=95 time=0.12
EXTRACT: note_on channel=10 note=78 velocity=95 time=0
EXTRACT: note_on channel=13 note=33 velocity=95 time=0
EXTRACT: note_off channel=9 note=60 velocity=95 time=0
EXTRACT: note_on channel=9 note=60 velocity=95 time=0
EXTRACT: note_off channel=9 note=51 velocity=95 time=0
EXTRACT: note_off channel=9 note=35 velocity=95 time=0
EXTRACT: note_on channel=9 note=51 velocity=95 time=0
EXTRACT: note_off channel=10 note=78 velocity=95 time=0.12
EXTRACT: note_on channel=10 note=76 velocity=95 time=0
EXTRACT: note_off channel=11 note=78 velocity=95 time=0.12
EXTRACT: note_off channel=11 note=74 velocity=95 time=0
EXTRACT: note_on channel=11 note=78 velocity=95 time=0
EXTRACT: note_on channel=11 note=74 velocity=95 time=0
EXTRACT: note_off channel=10 note=76 velocity=95 time=0
EXTRACT: note_on channel=10 note=76 velocity=95 time=0
EXTRACT: note_off channel=13 note=33 velocity=95 time=0
EXTRACT: note_on channel=13 note=55 velocity=95 time=0
EXTRACT: note_off channel=9 note=60 velocity=95 time=0
EXTRACT: note_on channel=9 note=60 velocity=95 time=0
EXTRACT: note_off channel=9 note=51 velocity=95 time=0
EXTRACT: note_on channel=9 note=51 velocity=95 time=0
EXTRACT: note_on channel=9 note=38 velocity=95 time=0
EXTRACT: note_on channel=9 note=35 velocity=95 time=0
EXTRACT: note_off channel=10 note=76 velocity=95 time=0.12
EXTRACT: note_on channel=10 note=76 velocity=95 time=0
EXTRACT: note_off channel=13 note=55 velocity=95 time=0
EXTRACT: note_on channel=13 note=57 velocity=70 time=0
EXTRACT: note_off channel=11 note=78 velocity=95 time=0.12
EXTRACT: note_off channel=11 note=74 velocity=95 time=0
EXTRACT: note_on channel=11 note=78 velocity=95 time=0
EXTRACT: note_on channel=11 note=74 velocity=95 time=0
EXTRACT: note_off channel=10 note=76 velocity=95 time=0
EXTRACT: note_on channel=10 note=78 velocity=95 time=0
EXTRACT: note_off channel=13 note=57 velocity=70 time=0
EXTRACT: note_on channel=13 note=57 velocity=95 time=0
EXTRACT: note_off channel=9 note=60 velocity=95 time=0
EXTRACT: note_on channel=9 note=61 velocity=95 time=0
EXTRACT: note_off channel=9 note=51 velocity=95 time=0
EXTRACT: note_off channel=9 note=38 velocity=95 time=0
EXTRACT: note_off channel=9 note=35 velocity=95 time=0
EXTRACT: note_on channel=9 note=51 velocity=95 time=0
EXTRACT: note_off channel=10 note=78 velocity=95 time=0.12
EXTRACT: note_on channel=10 note=76 velocity=95 time=0
EXTRACT: note_off channel=2 note=69 velocity=95 time=0.12
EXTRACT: note_off channel=2 note=67 velocity=95 time=0
EXTRACT: note_off channel=2 note=62 velocity=95 time=0
EXTRACT: note_off channel=2 note=59 velocity=95 time=0
EXTRACT: note_on channel=2 note=69 velocity=95 time=0
EXTRACT: note_on channel=2 note=67 velocity=95 time=0
EXTRACT: note_on channel=2 note=62 velocity=95 time=0
EXTRACT: note_on channel=2 note=59 velocity=95 time=0
EXTRACT: note_off channel=10 note=76 velocity=95 time=0
EXTRACT: note_on channel=10 note=81 velocity=95 time=0
EXTRACT: note_off channel=13 note=57 velocity=95 time=0
EXTRACT: note_on channel=13 note=33 velocity=95 time=0
EXTRACT: note_off channel=9 note=61 velocity=95 time=0
EXTRACT: note_on channel=9 note=60 velocity=95 time=0
EXTRACT: note_off channel=9 note=51 velocity=95 time=0
EXTRACT: note_on channel=9 note=51 velocity=95 time=0
EXTRACT: note_on channel=9 note=35 velocity=95 time=0
EXTRACT: note_off channel=10 note=81 velocity=95 time=0.12
EXTRACT: note_on channel=10 note=81 velocity=95 time=0
EXTRACT: note_off channel=13 note=33 velocity=95 time=0
EXTRACT: note_off channel=11 note=78 velocity=95 time=0.12
EXTRACT: note_off channel=11 note=74 velocity=95 time=0
EXTRACT: note_on channel=11 note=78 velocity=95 time=0
EXTRACT: note_on channel=11 note=74 velocity=95 time=0
EXTRACT: note_off channel=10 note=81 velocity=95 time=0
EXTRACT: note_on channel=10 note=78 velocity=95 time=0
EXTRACT: note_on channel=13 note=33 velocity=95 time=0
EXTRACT: note_off channel=9 note=60 velocity=95 time=0
EXTRACT: note_on channel=9 note=60 velocity=95 time=0
EXTRACT: note_off channel=9 note=51 velocity=95 time=0
EXTRACT: note_off channel=9 note=35 velocity=95 time=0
EXTRACT: note_on channel=9 note=51 velocity=95 time=0
EXTRACT: note_off channel=10 note=78 velocity=95 time=0.12
EXTRACT: note_on channel=10 note=76 velocity=95 time=0
EXTRACT: note_off channel=11 note=78 velocity=95 time=0.12
EXTRACT: note_off channel=11 note=74 velocity=95 time=0
EXTRACT: note_on channel=11 note=78 velocity=95 time=0
EXTRACT: note_on channel=11 note=74 velocity=95 time=0
EXTRACT: note_off channel=10 note=76 velocity=95 time=0
EXTRACT: note_on channel=10 note=81 velocity=95 time=0
EXTRACT: note_off channel=13 note=33 velocity=95 time=0
EXTRACT: note_on channel=13 note=55 velocity=95 time=0
EXTRACT: note_off channel=9 note=60 velocity=95 time=0
EXTRACT: note_on channel=9 note=61 velocity=95 time=0
EXTRACT: note_off channel=9 note=51 velocity=95 time=0
EXTRACT: note_on channel=9 note=51 velocity=95 time=0
EXTRACT: note_on channel=9 note=38 velocity=95 time=0
EXTRACT: note_on channel=9 note=35 velocity=95 time=0
EXTRACT: note_off channel=10 note=81 velocity=95 time=0.12
EXTRACT: note_on channel=10 note=81 velocity=95 time=0
EXTRACT: note_off channel=10 note=81 velocity=95 time=0.12
EXTRACT: note_on channel=10 note=78 velocity=95 time=0
EXTRACT: note_off channel=13 note=55 velocity=95 time=0
EXTRACT: note_on channel=13 note=57 velocity=95 time=0
EXTRACT: note_off channel=9 note=61 velocity=95 time=0
EXTRACT: note_on channel=9 note=60 velocity=95 time=0
EXTRACT: note_off channel=9 note=51 velocity=95 time=0
EXTRACT: note_off channel=9 note=38 velocity=95 time=0
EXTRACT: note_off channel=9 note=35 velocity=95 time=0
EXTRACT: note_on channel=9 note=51 velocity=95 time=0
EXTRACT: note_off channel=10 note=78 velocity=95 time=0.12
EXTRACT: note_on channel=10 note=76 velocity=95 time=0
EXTRACT: note_off channel=2 note=69 velocity=95 time=0.12
EXTRACT: note_off channel=2 note=67 velocity=95 time=0
EXTRACT: note_off channel=2 note=62 velocity=95 time=0
EXTRACT: note_off channel=2 note=59 velocity=95 time=0
EXTRACT: note_on channel=2 note=69 velocity=95 time=0
EXTRACT: note_on channel=2 note=67 velocity=95 time=0
EXTRACT: note_on channel=2 note=62 velocity=95 time=0
EXTRACT: note_on channel=2 note=59 velocity=95 time=0
EXTRACT: note_off channel=11 note=78 velocity=95 time=0
EXTRACT: note_off channel=11 note=74 velocity=95 time=0
EXTRACT: note_on channel=11 note=78 velocity=95 time=0
EXTRACT: note_on channel=11 note=74 velocity=95 time=0
EXTRACT: note_off channel=10 note=76 velocity=95 time=0
EXTRACT: note_on channel=10 note=81 velocity=95 time=0
EXTRACT: note_off channel=13 note=57 velocity=95 time=0
EXTRACT: note_on channel=13 note=33 velocity=95 time=0
EXTRACT: note_off channel=9 note=60 velocity=95 time=0
EXTRACT: note_on channel=9 note=60 velocity=95 time=0
EXTRACT: note_off channel=9 note=51 velocity=95 time=0
EXTRACT: note_on channel=9 note=51 velocity=95 time=0
EXTRACT: note_on channel=9 note=35 velocity=95 time=0
EXTRACT: note_off channel=10 note=81 velocity=95 time=0.12
EXTRACT: note_on channel=10 note=81 velocity=95 time=0
EXTRACT: note_on channel=0 note=61 velocity=95 time=0.12
EXTRACT: note_off channel=2 note=69 velocity=95 time=0
EXTRACT: note_off channel=2 note=67 velocity=95 time=0
EXTRACT: note_off channel=2 note=62 velocity=95 time=0
EXTRACT: note_off channel=2 note=59 velocity=95 time=0
EXTRACT: note_off channel=11 note=78 velocity=95 time=0
EXTRACT: note_off channel=11 note=74 velocity=95 time=0
EXTRACT: note_off channel=10 note=81 velocity=95 time=0
EXTRACT: note_on channel=10 note=78 velocity=95 time=0
EXTRACT: note_off channel=13 note=33 velocity=95 time=0
EXTRACT: note_off channel=10 note=78 velocity=95 time=0.12
EXTRACT: note_on channel=10 note=76 velocity=95 time=0
EXTRACT: note_off channel=0 note=61 velocity=95 time=0.12
EXTRACT: note_on channel=0 note=59 velocity=95 time=0
EXTRACT: note_on channel=4 note=69 velocity=95 time=0
EXTRACT: note_on channel=4 note=64 velocity=95 time=0
EXTRACT: note_on channel=4 note=61 velocity=95 time=0
EXTRACT: note_on channel=4 note=57 velocity=95 time=0
EXTRACT: note_off channel=10 note=76 velocity=95 time=0
EXTRACT: note_on channel=10 note=81 velocity=95 time=0
EXTRACT: note_off channel=9 note=60 velocity=95 time=0
EXTRACT: note_off channel=9 note=51 velocity=95 time=0
EXTRACT: note_off channel=9 note=35 velocity=95 time=0
EXTRACT: note_on channel=9 note=38 velocity=95 time=0
EXTRACT: note_off channel=10 note=81 velocity=95 time=0.12
EXTRACT: note_on channel=10 note=81 velocity=95 time=0
EXTRACT: note_off channel=0 note=59 velocity=95 time=0.12
EXTRACT: note_on channel=0 note=57 velocity=95 time=0
EXTRACT: note_off channel=10 note=81 velocity=95 time=0
EXTRACT: note_on channel=10 note=78 velocity=95 time=0
EXTRACT: note_off channel=10 note=78 velocity=95 time=0.12
EXTRACT: note_on channel=10 note=76 velocity=95 time=0
EXTRACT: note_off channel=0 note=57 velocity=95 time=0.12
EXTRACT: note_on channel=0 note=61 velocity=95 time=0
EXTRACT: note_on channel=2 note=73 velocity=95 time=0
EXTRACT: note_on channel=2 note=69 velocity=95 time=0
EXTRACT: note_on channel=2 note=66 velocity=95 time=0
EXTRACT: note_off channel=4 note=69 velocity=95 time=0
EXTRACT: note_off channel=4 note=64 velocity=95 time=0
EXTRACT: note_off channel=4 note=61 velocity=95 time=0
EXTRACT: note_off channel=4 note=57 velocity=95 time=0
EXTRACT: note_off channel=8 note=69 velocity=95 time=0
EXTRACT: note_on channel=8 note=61 velocity=95 time=0
EXTRACT: note_off channel=10 note=76 velocity=95 time=0
EXTRACT: note_on channel=13 note=38 velocity=95 time=0
EXTRACT: note_on channel=9 note=60 velocity=95 time=0
EXTRACT: note_off channel=9 note=38 velocity=95 time=0
EXTRACT: note_on channel=9 note=51 velocity=95 time=0
EXTRACT: note_on channel=9 note=35 velocity=95 time=0
EXTRACT: note_off channel=0 note=61 velocity=95 time=0.24
EXTRACT: note_on channel=0 note=61 velocity=95 time=0
EXTRACT: note_off channel=2 note=73 velocity=95 time=0
EXTRACT: note_off channel=2 note=69 velocity=95 time=0
EXTRACT: note_off channel=2 note=66 velocity=95 time=0
EXTRACT: note_on channel=2 note=73 velocity=95 time=0
EXTRACT: note_on channel=2 note=69 velocity=95 time=0
EXTRACT: note_on channel=2 note=66 velocity=95 time=0
EXTRACT: note_on channel=4 note=61 velocity=95 time=0
EXTRACT: note_off channel=13 note=38 velocity=95 time=0
EXTRACT: note_on channel=13 note=38 velocity=95 time=0
EXTRACT: note_off channel=9 note=60 velocity=95 time=0
EXTRACT: note_on channel=9 note=60 velocity=95 time=0
EXTRACT: note_off channel=9 note=51 velocity=95 time=0
EXTRACT: note_off channel=9 note=35 velocity=95 time=0
EXTRACT: note_on channel=9 note=51 velocity=95 time=0
EXTRACT: note_off channel=0 note=61 velocity=95 time=0.24
EXTRACT: note_off channel=2 note=73 velocity=95 time=0
EXTRACT: note_off channel=2 note=69 velocity=95 time=0
EXTRACT: note_off channel=2 note=66 velocity=95 time=0
EXTRACT: note_on channel=2 note=73 velocity=95 time=0
EXTRACT: note_on channel=2 note=69 velocity=95 time=0
EXTRACT: note_on channel=2 note=66 velocity=95 time=0
EXTRACT: note_off channel=4 note=61 velocity=95 time=0
EXTRACT: note_off channel=13 note=38 velocity=95 time=0
EXTRACT: note_off channel=9 note=60 velocity=95 time=0
EXTRACT: note_on channel=9 note=61 velocity=95 time=0
EXTRACT: note_off channel=9 note=51 velocity=95 time=0
EXTRACT: note_on channel=9 note=51 velocity=95 time=0
EXTRACT: note_on channel=9 note=38 velocity=95 time=0
EXTRACT: note_on channel=9 note=35 velocity=95 time=0
EXTRACT: note_off channel=2 note=73 velocity=95 time=0.24
EXTRACT: note_off channel=2 note=69 velocity=95 time=0
EXTRACT: note_off channel=2 note=66 velocity=95 time=0
EXTRACT: note_on channel=2 note=71 velocity=95 time=0
EXTRACT: note_on channel=2 note=68 velocity=95 time=0
EXTRACT: note_on channel=2 note=64 velocity=95 time=0
EXTRACT: note_on channel=4 note=59 velocity=95 time=0
EXTRACT: note_on channel=13 note=37 velocity=95 time=0
EXTRACT: note_off channel=9 note=61 velocity=95 time=0
EXTRACT: note_on channel=9 note=60 velocity=95 time=0
EXTRACT: note_off channel=9 note=51 velocity=95 time=0
EXTRACT: note_off channel=9 note=38 velocity=95 time=0
EXTRACT: note_off channel=9 note=35 velocity=95 time=0
EXTRACT: note_on channel=9 note=51 velocity=95 time=0
EXTRACT: note_off channel=2 note=71 velocity=95 time=0.24
EXTRACT: note_off channel=2 note=68 velocity=95 time=0
EXTRACT: note_off channel=2 note=64 velocity=95 time=0
EXTRACT: note_off channel=4 note=59 velocity=95 time=0
EXTRACT: note_off channel=13 note=37 velocity=95 time=0
EXTRACT: note_off channel=9 note=60 velocity=95 time=0
EXTRACT: note_on channel=9 note=60 velocity=95 time=0
EXTRACT: note_off channel=9 note=51 velocity=95 time=0
EXTRACT: note_on channel=9 note=51 velocity=95 time=0
EXTRACT: note_on channel=9 note=35 velocity=95 time=0
EXTRACT: note_on channel=0 note=57 velocity=95 time=0.24
EXTRACT: note_on channel=2 note=69 velocity=95 time=0
EXTRACT: note_on channel=2 note=66 velocity=95 time=0
EXTRACT: note_on channel=2 note=62 velocity=95 time=0
EXTRACT: note_on channel=4 note=57 velocity=95 time=0
EXTRACT: note_on channel=13 note=35 velocity=95 time=0
EXTRACT: note_off channel=9 note=60 velocity=95 time=0
EXTRACT: note_on channel=9 note=60 velocity=95 time=0
EXTRACT: note_off channel=9 note=51 velocity=95 time=0
EXTRACT: note_off channel=9 note=35 velocity=95 time=0
EXTRACT: note_on channel=9 note=51 velocity=95 time=0
EXTRACT: note_off channel=0 note=57 velocity=95 time=0.24
EXTRACT: note_on channel=0 note=59 velocity=95 time=0
EXTRACT: note_off channel=4 note=57 velocity=95 time=0
EXTRACT: note_off channel=13 note=35 velocity=95 time=0
EXTRACT: note_off channel=9 note=60 velocity=95 time=0
EXTRACT: note_on channel=9 note=60 velocity=95 time=0
EXTRACT: note_off channel=9 note=51 velocity=95 time=0
EXTRACT: note_on channel=9 note=51 velocity=95 time=0
EXTRACT: note_on channel=9 note=38 velocity=95 time=0
EXTRACT: note_on channel=9 note=35 velocity=95 time=0
EXTRACT: note_off channel=0 note=59 velocity=95 time=0.24
EXTRACT: note_on channel=0 note=61 velocity=95 time=0
EXTRACT: note_off channel=2 note=69 velocity=95 time=0
EXTRACT: note_off channel=2 note=66 velocity=95 time=0
EXTRACT: note_off channel=2 note=62 velocity=95 time=0
EXTRACT: note_on channel=2 note=71 velocity=95 time=0
EXTRACT: note_on channel=2 note=68 velocity=95 time=0
EXTRACT: note_on channel=2 note=64 velocity=95 time=0
EXTRACT: note_on channel=4 note=45 velocity=95 time=0
EXTRACT: note_on channel=13 note=36 velocity=95 time=0
EXTRACT: note_off channel=9 note=60 velocity=95 time=0
EXTRACT: note_on channel=9 note=61 velocity=95 time=0
EXTRACT: note_off channel=9 note=51 velocity=95 time=0
EXTRACT: note_off channel=9 note=38 velocity=95 time=0
EXTRACT: note_off channel=9 note=35 velocity=95 time=0
EXTRACT: note_on channel=9 note=51 velocity=95 time=0
EXTRACT: note_off channel=4 note=45 velocity=95 time=0.031
EXTRACT: note_on channel=5 note=59 velocity=95 time=0.209
EXTRACT: note_off channel=13 note=36 velocity=95 time=0
EXTRACT: note_on channel=13 note=37 velocity=95 time=0
EXTRACT: note_off channel=9 note=61 velocity=95 time=0
EXTRACT: note_on channel=9 note=60 velocity=95 time=0
EXTRACT: note_off channel=9 note=51 velocity=95 time=0
EXTRACT: note_on channel=9 note=51 velocity=95 time=0
EXTRACT: note_on channel=9 note=35 velocity=95 time=0
EXTRACT: pitchwheel channel=5 pitch=0 time=0.06
EXTRACT: pitchwheel channel=5 pitch=0 time=0.06
EXTRACT: pitchwheel channel=5 pitch=0 time=0.06
EXTRACT: note_off channel=0 note=61 velocity=95 time=0.06
EXTRACT: note_on channel=0 note=64 velocity=95 time=0
EXTRACT: pitchwheel channel=5 pitch=0 time=0
EXTRACT: pitchwheel channel=5 pitch=0 time=0
EXTRACT: note_off channel=5 note=59 velocity=95 time=0
EXTRACT: note_on channel=4 note=59 velocity=95 time=0
EXTRACT: note_off channel=8 note=61 velocity=95 time=0
EXTRACT: note_on channel=8 note=64 velocity=95 time=0
EXTRACT: note_off channel=13 note=37 velocity=95 time=0
EXTRACT: note_on channel=13 note=32 velocity=95 time=0
EXTRACT: note_off channel=9 note=60 velocity=95 time=0
EXTRACT: note_on channel=9 note=60 velocity=95 time=0
EXTRACT: note_off channel=9 note=51 velocity=95 time=0
EXTRACT: note_off channel=9 note=35 velocity=95 time=0
EXTRACT: note_on channel=9 note=51 velocity=95 time=0
EXTRACT: note_off channel=0 note=64 velocity=95 time=0.24
EXTRACT: note_on channel=0 note=66 velocity=95 time=0
EXTRACT: note_off channel=4 note=59 velocity=95 time=0
EXTRACT: note_on channel=4 note=59 velocity=95 time=0
EXTRACT: note_off channel=8 note=64 velocity=95 time=0
EXTRACT: note_on channel=8 note=66 velocity=95 time=0
EXTRACT: note_off channel=13 note=32 velocity=95 time=0
EXTRACT: note_on channel=13 note=28 velocity=95 time=0
EXTRACT: note_off channel=9 note=60 velocity=95 time=0
EXTRACT: note_on channel=9 note=61 velocity=95 time=0
EXTRACT: note_off channel=9 note=51 velocity=95 time=0
EXTRACT: note_on channel=9 note=51 velocity=95 time=0
EXTRACT: note_on channel=9 note=38 velocity=95 time=0
EXTRACT: note_on channel=9 note=35 velocity=95 time=0
EXTRACT: note_off channel=0 note=66 velocity=95 time=0.24
EXTRACT: note_on channel=0 note=59 velocity=95 time=0
EXTRACT: note_off channel=2 note=71 velocity=95 time=0
EXTRACT: note_off channel=2 note=68 velocity=95 time=0
EXTRACT: note_off channel=2 note=64 velocity=95 time=0
EXTRACT: note_on channel=2 note=69 velocity=95 time=0
EXTRACT: note_on channel=2 note=64 velocity=95 time=0
EXTRACT: note_on channel=2 note=61 velocity=95 time=0
EXTRACT: note_off channel=4 note=59 velocity=95 time=0
EXTRACT: note_on channel=4 note=56 velocity=95 time=0
EXTRACT: note_off channel=8 note=66 velocity=95 time=0
EXTRACT: note_on channel=8 note=69 velocity=95 time=0
EXTRACT: note_off channel=13 note=28 velocity=95 time=0
EXTRACT: note_off channel=9 note=61 velocity=95 time=0
EXTRACT: note_on channel=9 note=60 velocity=95 time=0
EXTRACT: note_off channel=9 note=51 velocity=95 time=0
EXTRACT: note_off channel=9 note=38 velocity=95 time=0
EXTRACT: note_off channel=9 note=35 velocity=95 time=0
EXTRACT: note_on channel=9 note=51 velocity=95 time=0
EXTRACT: note_off channel=0 note=59 velocity=95 time=0.24
EXTRACT: note_on channel=0 note=57 velocity=70 time=0
EXTRACT: note_on channel=13 note=30 velocity=95 time=0
EXTRACT: note_off channel=9 note=60 velocity=95 time=0
EXTRACT: note_on channel=9 note=60 velocity=95 time=0
EXTRACT: note_off channel=9 note=51 velocity=95 time=0
EXTRACT: note_on channel=9 note=51 velocity=95 time=0
EXTRACT: note_on channel=9 note=35 velocity=95 time=0
EXTRACT: note_off channel=0 note=57 velocity=70 time=0.24
EXTRACT: note_on channel=0 note=57 velocity=95 time=0
EXTRACT: note_off channel=4 note=56 velocity=95 time=0
EXTRACT: note_on channel=4 note=57 velocity=95 time=0
EXTRACT: note_off channel=13 note=30 velocity=95 time=0
EXTRACT: note_off channel=9 note=60 velocity=95 time=0
EXTRACT: note_on channel=9 note=60 velocity=95 time=0
EXTRACT: note_off channel=9 note=51 velocity=95 time=0
EXTRACT: note_off channel=9 note=35 velocity=95 time=0
EXTRACT: note_on channel=9 note=51 velocity=95 time=0
EXTRACT: note_off channel=0 note=57 velocity=95 time=0.24
EXTRACT: note_on channel=0 note=59 velocity=95 time=0
EXTRACT: note_off channel=4 note=57 velocity=95 time=0
EXTRACT: note_off channel=8 note=69 velocity=95 time=0
EXTRACT: note_on channel=8 note=71 velocity=95 time=0
EXTRACT: note_off channel=9 note=60 velocity=95 time=0
EXTRACT: note_on channel=9 note=60 velocity=95 time=0
EXTRACT: note_off channel=9 note=51 velocity=95 time=0
EXTRACT: note_on channel=9 note=51 velocity=95 time=0
EXTRACT: note_on channel=9 note=38 velocity=95 time=0
EXTRACT: note_on channel=9 note=35 velocity=95 time=0
EXTRACT: note_off channel=0 note=59 velocity=95 time=0.24
EXTRACT: note_on channel=0 note=62 velocity=95 time=0
EXTRACT: note_off channel=8 note=71 velocity=95 time=0
EXTRACT: note_on channel=8 note=73 velocity=95 time=0
EXTRACT: note_on channel=13 note=33 velocity=95 time=0
EXTRACT: note_off channel=9 note=60 velocity=95 time=0
EXTRACT: note_on channel=9 note=61 velocity=95 time=0
EXTRACT: note_off channel=9 note=51 velocity=95 time=0
EXTRACT: note_off channel=9 note=38 velocity=95 time=0
EXTRACT: note_off channel=9 note=35 velocity=95 time=0
EXTRACT: note_on channel=9 note=51 velocity=95 time=0
EXTRACT: note_off channel=2 note=69 velocity=95 time=0.24
EXTRACT: note_off channel=2 note=64 velocity=95 time=0
EXTRACT: note_off channel=2 note=61 velocity=95 time=0
EXTRACT: note_on channel=2 note=73 velocity=95 time=0
EXTRACT: note_on channel=2 note=69 velocity=95 time=0
EXTRACT: note_on channel=2 note=66 velocity=95 time=0
EXTRACT: note_off channel=13 note=33 velocity=95 time=0
EXTRACT: note_on channel=13 note=38 velocity=95 time=0
EXTRACT: note_off channel=9 note=61 velocity=95 time=0
EXTRACT: note_on channel=9 note=60 velocity=95 time=0
EXTRACT: note_off channel=9 note=51 velocity=95 time=0
EXTRACT: note_on channel=9 note=51 velocity=95 time=0
EXTRACT: note_on channel=9 note=35 velocity=95 time=0
EXTRACT: note_off channel=0 note=62 velocity=95 time=0.24
EXTRACT: note_on channel=0 note=61 velocity=95 time=0
EXTRACT: note_off channel=2 note=73 velocity=95 time=0
EXTRACT: note_off channel=2 note=69 velocity=95 time=0
EXTRACT: note_off channel=2 note=66 velocity=95 time=0
EXTRACT: note_on channel=2 note=73 velocity=95 time=0
EXTRACT: note_on channel=2 note=69 velocity=95 time=0
EXTRACT: note_on channel=2 note=66 velocity=95 time=0
EXTRACT: note_on channel=4 note=61 velocity=95 time=0
EXTRACT: note_off channel=13 note=38 velocity=95 time=0
EXTRACT: note_on channel=13 note=38 velocity=95 time=0
EXTRACT: note_off channel=9 note=60 velocity=95 time=0
EXTRACT: note_on channel=9 note=60 velocity=95 time=0
EXTRACT: note_off channel=9 note=51 velocity=95 time=0
EXTRACT: note_off channel=9 note=35 velocity=95 time=0
EXTRACT: note_on channel=9 note=51 velocity=95 time=0
EXTRACT: note_off channel=0 note=61 velocity=95 time=0.24
EXTRACT: note_off channel=2 note=73 velocity=95 time=0
EXTRACT: note_off channel=2 note=69 velocity=95 time=0
EXTRACT: note_off channel=2 note=66 velocity=95 time=0
EXTRACT: note_on channel=2 note=73 velocity=95 time=0
EXTRACT: note_on channel=2 note=69 velocity=95 time=0
EXTRACT: note_on channel=2 note=66 velocity=95 time=0
EXTRACT: note_off channel=4 note=61 velocity=95 time=0
EXTRACT: note_off channel=13 note=38 velocity=95 time=0
EXTRACT: note_off channel=9 note=60 velocity=95 time=0
EXTRACT: note_on channel=9 note=61 velocity=95 time=0
EXTRACT: note_off channel=9 note=51 velocity=95 time=0
EXTRACT: note_on channel=9 note=51 velocity=95 time=0
EXTRACT: note_on channel=9 note=38 velocity=95 time=0
EXTRACT: note_on channel=9 note=35 velocity=95 time=0
EXTRACT: note_off channel=2 note=73 velocity=95 time=0.24
EXTRACT: note_off channel=2 note=69 velocity=95 time=0
EXTRACT: note_off channel=2 note=66 velocity=95 time=0
EXTRACT: note_on channel=2 note=71 velocity=95 time=0
EXTRACT: note_on channel=2 note=68 velocity=95 time=0
EXTRACT: note_on channel=2 note=64 velocity=95 time=0
EXTRACT: note_on channel=4 note=59 velocity=95 time=0
EXTRACT: note_on channel=13 note=37 velocity=95 time=0
EXTRACT: note_off channel=9 note=61 velocity=95 time=0
EXTRACT: note_on channel=9 note=60 velocity=95 time=0
EXTRACT: note_off channel=9 note=51 velocity=95 time=0
EXTRACT: note_off channel=9 note=38 velocity=95 time=0
EXTRACT: note_off channel=9 note=35 velocity=95 time=0
EXTRACT: note_on channel=9 note=51 velocity=95 time=0
EXTRACT: note_off channel=2 note=71 velocity=95 time=0.24
EXTRACT: note_off channel=2 note=68 velocity=95 time=0
EXTRACT: note_off channel=2 note=64 velocity=95 time=0
EXTRACT: note_off channel=4 note=59 velocity=95 time=0
EXTRACT: note_off channel=13 note=37 velocity=95 time=0
EXTRACT: note_off channel=9 note=60 velocity=95 time=0
EXTRACT: note_on channel=9 note=60 velocity=95 time=0
EXTRACT: note_off channel=9 note=51 velocity=95 time=0
EXTRACT: note_on channel=9 note=51 velocity=95 time=0
EXTRACT: note_on channel=9 note=35 velocity=95 time=0
EXTRACT: note_on channel=2 note=69 velocity=95 time=0.24
EXTRACT: note_on channel=2 note=66 velocity=95 time=0
EXTRACT: note_on channel=2 note=62 velocity=95 time=0
EXTRACT: note_on channel=4 note=57 velocity=95 time=0
EXTRACT: note_on channel=13 note=35 velocity=95 time=0
EXTRACT: note_off channel=9 note=60 velocity=95 time=0
EXTRACT: note_on channel=9 note=60 velocity=95 time=0
EXTRACT: note_off channel=9 note=51 velocity=95 time=0
EXTRACT: note_off channel=9 note=35 velocity=95 time=0
EXTRACT: note_on channel=9 note=51 velocity=95 time=0
EXTRACT: note_on channel=0 note=57 velocity=95 time=0.24
EXTRACT: note_off channel=4 note=57 velocity=95 time=0
EXTRACT: note_off channel=13 note=35 velocity=95 time=0
EXTRACT: note_off channel=9 note=60 velocity=95 time=0
EXTRACT: note_on channel=9 note=60 velocity=95 time=0
EXTRACT: note_off channel=9 note=51 velocity=95 time=0
EXTRACT: note_on channel=9 note=51 velocity=95 time=0
EXTRACT: note_on channel=9 note=38 velocity=95 time=0
EXTRACT: note_on channel=9 note=35 velocity=95 time=0
EXTRACT: note_off channel=0 note=57 velocity=95 time=0.24
EXTRACT: note_on channel=0 note=59 velocity=95 time=0
EXTRACT: note_off channel=2 note=69 velocity=95 time=0
EXTRACT: note_off channel=2 note=66 velocity=95 time=0
EXTRACT: note_off channel=2 note=62 velocity=95 time=0
EXTRACT: note_on channel=2 note=71 velocity=95 time=0
EXTRACT: note_on channel=2 note=68 velocity=95 time=0
EXTRACT: note_on channel=2 note=64 velocity=95 time=0
EXTRACT: note_on channel=13 note=36 velocity=95 time=0
EXTRACT: note_off channel=9 note=60 velocity=95 time=0
EXTRACT: note_on channel=9 note=61 velocity=95 time=0
EXTRACT: note_off channel=9 note=51 velocity=95 time=0
EXTRACT: note_off channel=9 note=38 velocity=95 time=0
EXTRACT: note_off channel=9 note=35 velocity=95 time=0
EXTRACT: note_on channel=9 note=51 velocity=95 time=0
EXTRACT: note_off channel=0 note=59 velocity=95 time=0.24
EXTRACT: note_on channel=0 note=61 velocity=95 time=0
EXTRACT: note_off channel=8 note=73 velocity=95 time=0
EXTRACT: note_on channel=8 note=61 velocity=95 time=0
EXTRACT: note_off channel=13 note=36 velocity=95 time=0
EXTRACT: note_on channel=13 note=37 velocity=95 time=0
EXTRACT: note_off channel=9 note=61 velocity=95 time=0
EXTRACT: note_on channel=9 note=60 velocity=95 time=0
EXTRACT: note_off channel=9 note=51 velocity=95 time=0
EXTRACT: note_on channel=9 note=51 velocity=95 time=0
EXTRACT: note_on channel=9 note=35 velocity=95 time=0
EXTRACT: note_off channel=0 note=61 velocity=95 time=0.24
EXTRACT: note_on channel=0 note=64 velocity=95 time=0
EXTRACT: note_on channel=4 note=59 velocity=95 time=0
EXTRACT: note_off channel=8 note=61 velocity=95 time=0
EXTRACT: note_on channel=8 note=64 velocity=95 time=0
EXTRACT: note_off channel=13 note=37 velocity=95 time=0
EXTRACT: note_on channel=13 note=32 velocity=95 time=0
EXTRACT: note_off channel=9 note=60 velocity=95 time=0
EXTRACT: note_on channel=9 note=60 velocity=95 time=0
EXTRACT: note_off channel=9 note=51 velocity=95 time=0
EXTRACT: note_off channel=9 note=35 velocity=95 time=0
EXTRACT: note_on channel=9 note=51 velocity=95 time=0
EXTRACT: note_off channel=0 note=64 velocity=95 time=0.24
EXTRACT: note_on channel=0 note=66 velocity=95 time=0
EXTRACT: note_off channel=4 note=59 velocity=95 time=0
EXTRACT: note_on channel=4 note=59 velocity=95 time=0
EXTRACT: note_off channel=8 note=64 velocity=95 time=0
EXTRACT: note_on channel=8 note=66 velocity=95 time=0
EXTRACT: note_off channel=13 note=32 velocity=95 time=0
EXTRACT: note_on channel=13 note=28 velocity=95 time=0
EXTRACT: note_off channel=9 note=60 velocity=95 time=0
EXTRACT: note_on channel=9 note=61 velocity=95 time=0
EXTRACT: note_off channel=9 note=51 velocity=95 time=0
EXTRACT: note_on channel=9 note=51 velocity=95 time=0
EXTRACT: note_on channel=9 note=38 velocity=95 time=0
EXTRACT: note_on channel=9 note=35 velocity=95 time=0
EXTRACT: note_off channel=0 note=66 velocity=95 time=0.24
EXTRACT: note_on channel=0 note=59 velocity=95 time=0
EXTRACT: note_off channel=2 note=71 velocity=95 time=0
EXTRACT: note_off channel=2 note=68 velocity=95 time=0
EXTRACT: note_off channel=2 note=64 velocity=95 time=0
EXTRACT: note_on channel=2 note=69 velocity=95 time=0
EXTRACT: note_on channel=2 note=64 velocity=95 time=0
EXTRACT: note_on channel=2 note=61 velocity=95 time=0
EXTRACT: note_off channel=4 note=59 velocity=95 time=0
EXTRACT: note_on channel=4 note=56 velocity=95 time=0
EXTRACT: note_off channel=8 note=66 velocity=95 time=0
EXTRACT: note_on channel=8 note=57 velocity=95 time=0
EXTRACT: note_off channel=13 note=28 velocity=95 time=0
EXTRACT: note_off channel=9 note=61 velocity=95 time=0
EXTRACT: note_on channel=9 note=60 velocity=95 time=0
EXTRACT: note_off channel=9 note=51 velocity=95 time=0
EXTRACT: note_off channel=9 note=38 velocity=95 time=0
EXTRACT: note_off channel=9 note=35 velocity=95 time=0
EXTRACT: note_on channel=9 note=51 velocity=95 time=0
EXTRACT: note_off channel=0 note=59 velocity=95 time=0.24
EXTRACT: note_on channel=0 note=57 velocity=70 time=0
EXTRACT: note_off channel=8 note=57 velocity=95 time=0
EXTRACT: note_on channel=8 note=59 velocity=95 time=0
EXTRACT: note_on channel=13 note=30 velocity=95 time=0
EXTRACT: note_off channel=9 note=60 velocity=95 time=0
EXTRACT: note_on channel=9 note=60 velocity=95 time=0
EXTRACT: note_off channel=9 note=51 velocity=95 time=0
EXTRACT: note_on channel=9 note=51 velocity=95 time=0
EXTRACT: note_on channel=9 note=35 velocity=95 time=0
EXTRACT: note_off channel=4 note=56 velocity=95 time=0.24
EXTRACT: note_on channel=4 note=57 velocity=95 time=0
EXTRACT: note_off channel=8 note=59 velocity=95 time=0
EXTRACT: note_on channel=8 note=61 velocity=95 time=0
EXTRACT: note_off channel=13 note=30 velocity=95 time=0
EXTRACT: note_off channel=9 note=60 velocity=95 time=0
EXTRACT: note_on channel=9 note=60 velocity=95 time=0
EXTRACT: note_off channel=9 note=51 velocity=95 time=0
EXTRACT: note_off channel=9 note=35 velocity=95 time=0
EXTRACT: note_on channel=9 note=51 velocity=95 time=0
EXTRACT: note_off channel=0 note=57 velocity=70 time=0.24
EXTRACT: note_on channel=0 note=61 velocity=95 time=0
EXTRACT: note_off channel=4 note=57 velocity=95 time=0
EXTRACT: note_off channel=8 note=61 velocity=95 time=0
EXTRACT: note_on channel=8 note=64 velocity=95 time=0
EXTRACT: note_on channel=13 note=33 velocity=95 time=0
EXTRACT: note_off channel=9 note=60 velocity=95 time=0
EXTRACT: note_on channel=9 note=60 velocity=95 time=0
EXTRACT: note_off channel=9 note=51 velocity=95 time=0
EXTRACT: note_on channel=9 note=51 velocity=95 time=0
EXTRACT: note_on channel=9 note=38 velocity=95 time=0
EXTRACT: note_on channel=9 note=35 velocity=95 time=0
EXTRACT: note_off channel=0 note=61 velocity=95 time=0.24
EXTRACT: note_on channel=0 note=61 velocity=95 time=0
EXTRACT: note_on channel=4 note=50 velocity=95 time=0
EXTRACT: note_off channel=8 note=64 velocity=95 time=0
EXTRACT: note_on channel=8 note=66 velocity=95 time=0
EXTRACT: note_off channel=13 note=33 velocity=95 time=0
EXTRACT: note_on channel=13 note=35 velocity=95 time=0
EXTRACT: note_off channel=9 note=60 velocity=95 time=0
EXTRACT: note_on channel=9 note=61 velocity=95 time=0
EXTRACT: note_off channel=9 note=51 velocity=95 time=0
EXTRACT: note_off channel=9 note=38 velocity=95 time=0
EXTRACT: note_off channel=9 note=35 velocity=95 time=0
EXTRACT: note_on channel=9 note=51 velocity=95 time=0
EXTRACT: note_off channel=4 note=50 velocity=95 time=0.031
EXTRACT: note_off channel=0 note=61 velocity=95 time=0.209
EXTRACT: note_on channel=0 note=61 velocity=95 time=0
EXTRACT: note_off channel=2 note=69 velocity=95 time=0
EXTRACT: note_off channel=2 note=64 velocity=95 time=0
EXTRACT: note_off channel=2 note=61 velocity=95 time=0
EXTRACT: note_on channel=2 note=73 velocity=95 time=0
EXTRACT: note_on channel=2 note=69 velocity=95 time=0
EXTRACT: note_on channel=2 note=66 velocity=95 time=0
EXTRACT: note_on channel=5 note=61 velocity=47 time=0
EXTRACT: note_off channel=13 note=35 velocity=95 time=0
EXTRACT: note_on channel=13 note=38 velocity=95 time=0
EXTRACT: note_off channel=9 note=61 velocity=95 time=0
EXTRACT: note_on channel=9 note=60 velocity=95 time=0
EXTRACT: note_off channel=9 note=51 velocity=95 time=0
EXTRACT: note_on channel=9 note=51 velocity=95 time=0
EXTRACT: note_on channel=9 note=35 velocity=95 time=0
EXTRACT: pitchwheel channel=5 pitch=0 time=0.06
EXTRACT: pitchwheel channel=5 pitch=0 time=0.06
EXTRACT: pitchwheel channel=5 pitch=0 time=0.06
EXTRACT: note_off channel=2 note=73 velocity=95 time=0.06
EXTRACT: note_off channel=2 note=69 velocity=95 time=0
EXTRACT: note_off channel=2 note=66 velocity=95 time=0
EXTRACT: note_on channel=2 note=73 velocity=95 time=0
EXTRACT: note_on channel=2 note=69 velocity=95 time=0
EXTRACT: note_on channel=2 note=66 velocity=95 time=0
EXTRACT: pitchwheel channel=5 pitch=0 time=0
EXTRACT: pitchwheel channel=5 pitch=0 time=0
EXTRACT: note_off channel=5 note=61 velocity=47 time=0
EXTRACT: note_on channel=4 note=61 velocity=95 time=0
EXTRACT: note_off channel=13 note=38 velocity=95 time=0
EXTRACT: note_on channel=13 note=38 velocity=95 time=0
EXTRACT: note_off channel=9 note=60 velocity=95 time=0
EXTRACT: note_on channel=9 note=60 velocity=95 time=0
EXTRACT: note_off channel=9 note=51 velocity=95 time=0
EXTRACT: note_off channel=9 note=35 velocity=95 time=0
EXTRACT: note_on channel=9 note=51 velocity=95 time=0
EXTRACT: note_off channel=0 note=61 velocity=95 time=0.24
EXTRACT: note_off channel=2 note=73 velocity=95 time=0
EXTRACT: note_off channel=2 note=69 velocity=95 time=0
EXTRACT: note_off channel=2 note=66 velocity=95 time=0
EXTRACT: note_on channel=2 note=73 velocity=95 time=0
EXTRACT: note_on channel=2 note=69 velocity=95 time=0
EXTRACT: note_on channel=2 note=66 velocity=95 time=0
EXTRACT: note_off channel=4 note=61 velocity=95 time=0
EXTRACT: note_off channel=13 note=38 velocity=95 time=0
EXTRACT: note_on channel=13 note=38 velocity=95 time=0
EXTRACT: note_off channel=9 note=60 velocity=95 time=0
EXTRACT: note_on channel=9 note=61 velocity=95 time=0
EXTRACT: note_off channel=9 note=51 velocity=95 time=0
EXTRACT: note_on channel=9 note=51 velocity=95 time=0
EXTRACT: note_on channel=9 note=38 velocity=95 time=0
EXTRACT: note_on channel=9 note=35 velocity=95 time=0
EXTRACT: note_off channel=2 note=73 velocity=95 time=0.24
EXTRACT: note_off channel=2 note=69 velocity=95 time=0
EXTRACT: note_off channel=2 note=66 velocity=95 time=0
EXTRACT: note_on channel=2 note=71 velocity=95 time=0
EXTRACT: note_on channel=2 note=68 velocity=95 time=0
EXTRACT: note_on channel=2 note=64 velocity=95 time=0
EXTRACT: note_on channel=4 note=59 velocity=95 time=0
EXTRACT: note_off channel=13 note=38 velocity=95 time=0
EXTRACT: note_on channel=13 note=37 velocity=95 time=0
EXTRACT: note_off channel=9 note=61 velocity=95 time=0
EXTRACT: note_on channel=9 note=60 velocity=95 time=0
EXTRACT: note_off channel=9 note=51 velocity=95 time=0
EXTRACT: note_off channel=9 note=38 velocity=95 time=0
EXTRACT: note_off channel=9 note=35 velocity=95 time=0
EXTRACT: note_on channel=9 note=51 velocity=95 time=0
EXTRACT: note_off channel=2 note=71 velocity=95 time=0.24
EXTRACT: note_off channel=2 note=68 velocity=95 time=0
EXTRACT: note_off channel=2 note=64 velocity=95 time=0
EXTRACT: note_off channel=4 note=59 velocity=95 time=0
EXTRACT: note_off channel=13 note=37 velocity=95 time=0
EXTRACT: note_off channel=9 note=60 velocity=95 time=0
EXTRACT: note_on channel=9 note=60 velocity=95 time=0
EXTRACT: note_off channel=9 note=51 velocity=95 time=0
EXTRACT: note_on channel=9 note=51 velocity=95 time=0
EXTRACT: note_on channel=9 note=35 velocity=95 time=0
EXTRACT: note_on channel=2 note=69 velocity=95 time=0.24
EXTRACT: note_on channel=2 note=66 velocity=95 time=0
EXTRACT: note_on channel=2 note=62 velocity=95 time=0
EXTRACT: note_on channel=4 note=57 velocity=95 time=0
EXTRACT: note_on channel=13 note=35 velocity=95 time=0
EXTRACT: note_off channel=9 note=60 velocity=95 time=0
EXTRACT: note_on channel=9 note=60 velocity=95 time=0
EXTRACT: note_off channel=9 note=51 velocity=95 time=0
EXTRACT: note_off channel=9 note=35 velocity=95 time=0
EXTRACT: note_on channel=9 note=51 velocity=95 time=0
EXTRACT: note_on channel=0 note=57 velocity=95 time=0.24
EXTRACT: note_off channel=4 note=57 velocity=95 time=0
EXTRACT: note_off channel=13 note=35 velocity=95 time=0
EXTRACT: note_off channel=9 note=60 velocity=95 time=0
EXTRACT: note_on channel=9 note=60 velocity=95 time=0
EXTRACT: note_off channel=9 note=51 velocity=95 time=0
EXTRACT: note_on channel=9 note=51 velocity=95 time=0
EXTRACT: note_on channel=9 note=38 velocity=95 time=0
EXTRACT: note_on channel=9 note=35 velocity=95 time=0
EXTRACT: note_off channel=0 note=57 velocity=95 time=0.24
EXTRACT: note_on channel=0 note=59 velocity=95 time=0
EXTRACT: note_off channel=2 note=69 velocity=95 time=0
EXTRACT: note_off channel=2 note=66 velocity=95 time=0
EXTRACT: note_off channel=2 note=62 velocity=95 time=0
EXTRACT: note_on channel=2 note=71 velocity=95 time=0
EXTRACT: note_on channel=2 note=68 velocity=95 time=0
EXTRACT: note_on channel=2 note=65 velocity=95 time=0
EXTRACT: note_on channel=4 note=59 velocity=95 time=0
EXTRACT: note_on channel=13 note=36 velocity=95 time=0
EXTRACT: note_off channel=9 note=60 velocity=95 time=0
EXTRACT: note_on channel=9 note=61 velocity=95 time=0
EXTRACT: note_off channel=9 note=51 velocity=95 time=0
EXTRACT: note_off channel=9 note=38 velocity=95 time=0
EXTRACT: note_off channel=9 note=35 velocity=95 time=0
EXTRACT: note_on channel=9 note=51 velocity=95 time=0
EXTRACT: note_off channel=0 note=59 velocity=95 time=0.24
EXTRACT: note_on channel=0 note=61 velocity=95 time=0
EXTRACT: note_off channel=4 note=59 velocity=95 time=0
EXTRACT: note_off channel=8 note=66 velocity=95 time=0
EXTRACT: note_on channel=8 note=73 velocity=95 time=0
EXTRACT: note_off channel=13 note=36 velocity=95 time=0
EXTRACT: note_on channel=13 note=37 velocity=95 time=0
EXTRACT: note_off channel=9 note=61 velocity=95 time=0
EXTRACT: note_on channel=9 note=60 velocity=95 time=0
EXTRACT: note_off channel=9 note=51 velocity=95 time=0
EXTRACT: note_on channel=9 note=51 velocity=95 time=0
EXTRACT: note_on channel=9 note=35 velocity=95 time=0
EXTRACT: note_off channel=0 note=61 velocity=95 time=0.24
EXTRACT: note_on channel=0 note=64 velocity=95 time=0
EXTRACT: note_on channel=4 note=59 velocity=95 time=0
EXTRACT: note_off channel=8 note=73 velocity=95 time=0
EXTRACT: note_on channel=8 note=74 velocity=95 time=0
EXTRACT: note_off channel=13 note=37 velocity=95 time=0
EXTRACT: note_on channel=13 note=40 velocity=95 time=0
EXTRACT: note_off channel=9 note=60 velocity=95 time=0
EXTRACT: note_on channel=9 note=60 velocity=95 time=0
EXTRACT: note_off channel=9 note=51 velocity=95 time=0
EXTRACT: note_off channel=9 note=35 velocity=95 time=0
EXTRACT: note_on channel=9 note=51 velocity=95 time=0
EXTRACT: note_off channel=0 note=64 velocity=95 time=0.24
EXTRACT: note_on channel=0 note=66 velocity=95 time=0
EXTRACT: note_off channel=4 note=59 velocity=95 time=0
EXTRACT: note_off channel=8 note=74 velocity=95 time=0
EXTRACT: note_on channel=8 note=73 velocity=95 time=0
EXTRACT: note_off channel=13 note=40 velocity=95 time=0
EXTRACT: note_on channel=13 note=41 velocity=95 time=0
EXTRACT: note_off channel=9 note=60 velocity=95 time=0
EXTRACT: note_on channel=9 note=61 velocity=95 time=0
EXTRACT: note_off channel=9 note=51 velocity=95 time=0
EXTRACT: note_on channel=9 note=51 velocity=95 time=0
EXTRACT: note_on channel=9 note=38 velocity=95 time=0
EXTRACT: note_on channel=9 note=35 velocity=95 time=0
EXTRACT: note_off channel=0 note=66 velocity=95 time=0.24
EXTRACT: note_on channel=0 note=59 velocity=95 time=0
EXTRACT: note_off channel=2 note=71 velocity=95 time=0
EXTRACT: note_off channel=2 note=68 velocity=95 time=0
EXTRACT: note_off channel=2 note=65 velocity=95 time=0
EXTRACT: note_on channel=2 note=69 velocity=95 time=0
EXTRACT: note_on channel=2 note=64 velocity=95 time=0
EXTRACT: note_on channel=2 note=61 velocity=95 time=0
EXTRACT: note_on channel=4 note=56 velocity=95 time=0
EXTRACT: note_off channel=8 note=73 velocity=95 time=0
EXTRACT: note_on channel=8 note=71 velocity=95 time=0
EXTRACT: note_off channel=13 note=41 velocity=95 time=0
EXTRACT: note_off channel=9 note=61 velocity=95 time=0
EXTRACT: note_on channel=9 note=60 velocity=95 time=0
EXTRACT: note_off channel=9 note=51 velocity=95 time=0
EXTRACT: note_off channel=9 note=38 velocity=95 time=0
EXTRACT: note_off channel=9 note=35 velocity=95 time=0
EXTRACT: note_on channel=9 note=51 velocity=95 time=0
EXTRACT: note_off channel=0 note=59 velocity=95 time=0.24
EXTRACT: note_on channel=0 note=57 velocity=70 time=0
EXTRACT: note_off channel=8 note=71 velocity=95 time=0
EXTRACT: note_on channel=8 note=69 velocity=95 time=0
EXTRACT: note_on channel=13 note=42 velocity=95 time=0
EXTRACT: note_off channel=9 note=60 velocity=95 time=0
EXTRACT: note_on channel=9 note=60 velocity=95 time=0
EXTRACT: note_off channel=9 note=51 velocity=95 time=0
EXTRACT: note_on channel=9 note=51 velocity=95 time=0
EXTRACT: note_on channel=9 note=35 velocity=95 time=0
EXTRACT: note_off channel=4 note=56 velocity=95 time=0.24
EXTRACT: note_on channel=4 note=57 velocity=95 time=0
EXTRACT: note_off channel=13 note=42 velocity=95 time=0
EXTRACT: note_off channel=9 note=60 velocity=95 time=0
EXTRACT: note_on channel=9 note=60 velocity=95 time=0
EXTRACT: note_off channel=9 note=51 velocity=95 time=0
EXTRACT: note_off channel=9 note=35 velocity=95 time=0
EXTRACT: note_on channel=9 note=51 velocity=95 time=0
EXTRACT: note_off channel=0 note=57 velocity=70 time=0.24
EXTRACT: note_on channel=0 note=57 velocity=95 time=0
EXTRACT: note_off channel=4 note=57 velocity=95 time=0
EXTRACT: note_off channel=8 note=69 velocity=95 time=0
EXTRACT: note_on channel=8 note=66 velocity=95 time=0
EXTRACT: note_on channel=13 note=37 velocity=95 time=0
EXTRACT: note_off channel=9 note=60 velocity=95 time=0
EXTRACT: note_on channel=9 note=60 velocity=95 time=0
EXTRACT: note_off channel=9 note=51 velocity=95 time=0
EXTRACT: note_on channel=9 note=51 velocity=95 time=0
EXTRACT: note_on channel=9 note=38 velocity=95 time=0
EXTRACT: note_on channel=9 note=35 velocity=95 time=0
EXTRACT: note_off channel=0 note=57 velocity=95 time=0.24
EXTRACT: note_on channel=0 note=59 velocity=95 time=0
EXTRACT: note_off channel=8 note=66 velocity=95 time=0
EXTRACT: note_on channel=8 note=71 velocity=95 time=0
EXTRACT: note_on channel=11 note=57 velocity=95 time=0
EXTRACT: note_on channel=10 note=81 velocity=95 time=0
EXTRACT: note_on channel=10 note=76 velocity=95 time=0
EXTRACT: note_off channel=13 note=37 velocity=95 time=0
EXTRACT: note_on channel=13 note=35 velocity=95 time=0
EXTRACT: note_off channel=9 note=60 velocity=95 time=0
EXTRACT: note_on channel=9 note=61 velocity=95 time=0
EXTRACT: note_off channel=9 note=51 velocity=95 time=0
EXTRACT: note_off channel=9 note=38 velocity=95 time=0
EXTRACT: note_off channel=9 note=35 velocity=95 time=0
EXTRACT: note_on channel=9 note=51 velocity=95 time=0
EXTRACT: note_off channel=11 note=57 velocity=95 time=0.12
EXTRACT: note_on channel=11 note=57 velocity=95 time=0
EXTRACT: note_off channel=0 note=59 velocity=95 time=0.12
EXTRACT: note_on channel=0 note=57 velocity=70 time=0
EXTRACT: note_off channel=2 note=69 velocity=95 time=0
EXTRACT: note_off channel=2 note=64 velocity=95 time=0
EXTRACT: note_off channel=2 note=61 velocity=95 time=0
EXTRACT: note_on channel=2 note=69 velocity=95 time=0
EXTRACT: note_on channel=2 note=67 velocity=95 time=0
EXTRACT: note_on channel=2 note=62 velocity=95 time=0
EXTRACT: note_on channel=2 note=59 velocity=95 time=0
EXTRACT: note_on channel=4 note=40 velocity=95 time=0
EXTRACT: note_off channel=11 note=57 velocity=95 time=0
EXTRACT: note_on channel=11 note=62 velocity=95 time=0
EXTRACT: note_off channel=13 note=35 velocity=95 time=0
EXTRACT: note_on channel=13 note=33 velocity=95 time=0
EXTRACT: note_off channel=9 note=61 velocity=95 time=0
EXTRACT: note_on channel=9 note=60 velocity=95 time=0
EXTRACT: note_off channel=9 note=51 velocity=95 time=0
EXTRACT: note_on channel=9 note=51 velocity=95 time=0
EXTRACT: note_on channel=9 note=35 velocity=95 time=0
EXTRACT: note_off channel=4 note=40 velocity=95 time=0.031
EXTRACT: note_off channel=13 note=33 velocity=95 time=0.089
EXTRACT: note_off channel=8 note=71 velocity=95 time=0.12
EXTRACT: note_on channel=8 note=69 velocity=95 time=0
EXTRACT: note_on channel=13 note=33 velocity=95 time=0
EXTRACT: note_off channel=9 note=60 velocity=95 time=0
EXTRACT: note_on channel=9 note=60 velocity=95 time=0
EXTRACT: note_off channel=9 note=51 velocity=95 time=0
EXTRACT: note_off channel=9 note=35 velocity=95 time=0
EXTRACT: note_on channel=9 note=51 velocity=95 time=0
EXTRACT: note_on channel=5 note=57 velocity=95 time=0.24
EXTRACT: note_off channel=13 note=33 velocity=95 time=0
EXTRACT: note_on channel=13 note=55 velocity=95 time=0
EXTRACT: note_off channel=9 note=60 velocity=95 time=0
EXTRACT: note_on channel=9 note=61 velocity=95 time=0
EXTRACT: note_off channel=9 note=51 velocity=95 time=0
EXTRACT: note_on channel=9 note=51 velocity=95 time=0
EXTRACT: note_on channel=9 note=38 velocity=95 time=0
EXTRACT: note_on channel=9 note=35 velocity=95 time=0
EXTRACT: note_off channel=11 note=62 velocity=95 time=0.24
EXTRACT: note_on channel=11 note=62 velocity=95 time=0
EXTRACT: note_off channel=13 note=55 velocity=95 time=0
EXTRACT: note_on channel=13 note=57 velocity=95 time=0
EXTRACT: note_off channel=9 note=61 velocity=95 time=0
EXTRACT: note_on channel=9 note=60 velocity=95 time=0
EXTRACT: note_off channel=9 note=51 velocity=95 time=0
EXTRACT: note_off channel=9 note=38 velocity=95 time=0
EXTRACT: note_off channel=9 note=35 velocity=95 time=0
EXTRACT: note_on channel=9 note=51 velocity=95 time=0
EXTRACT: note_off channel=11 note=62 velocity=95 time=0.12
EXTRACT: note_on channel=11 note=62 velocity=95 time=0
EXTRACT: note_off channel=5 note=57 velocity=95 time=0.12
EXTRACT: note_off channel=11 note=62 velocity=95 time=0
EXTRACT: note_on channel=11 note=66 velocity=95 time=0
EXTRACT: note_off channel=13 note=57 velocity=95 time=0
EXTRACT: note_on channel=13 note=33 velocity=95 time=0
EXTRACT: note_off channel=9 note=60 velocity=95 time=0
EXTRACT: note_on channel=9 note=60 velocity=95 time=0
EXTRACT: note_off channel=9 note=51 velocity=95 time=0
EXTRACT: note_on channel=9 note=51 velocity=95 time=0
EXTRACT: note_on channel=9 note=35 velocity=95 time=0
EXTRACT: note_off channel=13 note=33 velocity=95 time=0.12
EXTRACT: note_on channel=4 note=59 velocity=95 time=0.12
EXTRACT: note_on channel=13 note=33 velocity=95 time=0
EXTRACT: note_off channel=9 note=60 velocity=95 time=0
EXTRACT: note_on channel=9 note=60 velocity=95 time=0
EXTRACT: note_off channel=9 note=51 velocity=95 time=0
EXTRACT: note_off channel=9 note=35 velocity=95 time=0
EXTRACT: note_on channel=9 note=51 velocity=95 time=0
EXTRACT: note_off channel=4 note=59 velocity=95 time=0.12
EXTRACT: note_on channel=4 note=61 velocity=95 time=0
EXTRACT: note_off channel=4 note=61 velocity=95 time=0.12
EXTRACT: note_off channel=13 note=33 velocity=95 time=0
EXTRACT: note_on channel=13 note=55 velocity=95 time=0
EXTRACT: note_off channel=9 note=60 velocity=95 time=0
EXTRACT: note_on channel=9 note=60 velocity=95 time=0
EXTRACT: note_off channel=9 note=51 velocity=95 time=0
EXTRACT: note_on channel=9 note=51 velocity=95 time=0
EXTRACT: note_on channel=9 note=38 velocity=95 time=0
EXTRACT: note_on channel=9 note=35 velocity=95 time=0
EXTRACT: note_on channel=4 note=59 velocity=95 time=0.12
EXTRACT: note_off channel=4 note=59 velocity=95 time=0.12
EXTRACT: note_off channel=13 note=55 velocity=95 time=0
EXTRACT: note_on channel=13 note=57 velocity=95 time=0
EXTRACT: note_off channel=9 note=60 velocity=95 time=0
EXTRACT: note_on channel=9 note=61 velocity=95 time=0
EXTRACT: note_off channel=9 note=51 velocity=95 time=0
EXTRACT: note_off channel=9 note=38 velocity=95 time=0
EXTRACT: note_off channel=9 note=35 velocity=95 time=0
EXTRACT: note_on channel=9 note=51 velocity=95 time=0
EXTRACT: note_off channel=2 note=69 velocity=95 time=0.24
EXTRACT: note_off channel=2 note=67 velocity=95 time=0
EXTRACT: note_off channel=2 note=62 velocity=95 time=0
EXTRACT: note_off channel=2 note=59 velocity=95 time=0
EXTRACT: note_on channel=2 note=69 velocity=95 time=0
EXTRACT: note_on channel=2 note=67 velocity=95 time=0
EXTRACT: note_on channel=2 note=62 velocity=95 time=0
EXTRACT: note_on channel=2 note=59 velocity=95 time=0
EXTRACT: note_on channel=4 note=57 velocity=95 time=0
EXTRACT: note_off channel=13 note=57 velocity=95 time=0
EXTRACT: note_on channel=13 note=33 velocity=95 time=0
EXTRACT: note_off channel=9 note=61 velocity=95 time=0
EXTRACT: note_on channel=9 note=60 velocity=95 time=0
EXTRACT: note_off channel=9 note=51 velocity=95 time=0
EXTRACT: note_on channel=9 note=51 velocity=95 time=0
EXTRACT: note_on channel=9 note=35 velocity=95 time=0
EXTRACT: note_off channel=13 note=33 velocity=95 time=0.12
EXTRACT: note_on channel=13 note=33 velocity=95 time=0.12
EXTRACT: note_off channel=9 note=60 velocity=95 time=0
EXTRACT: note_on channel=9 note=60 velocity=95 time=0
EXTRACT: note_off channel=9 note=51 velocity=95 time=0
EXTRACT: note_off channel=9 note=35 velocity=95 time=0
EXTRACT: note_on channel=9 note=51 velocity=95 time=0
EXTRACT: note_off channel=0 note=57 velocity=70 time=0.24
EXTRACT: note_off channel=4 note=57 velocity=95 time=0
EXTRACT: note_on channel=4 note=54 velocity=95 time=0
EXTRACT: note_off channel=13 note=33 velocity=95 time=0
EXTRACT: note_on channel=13 note=55 velocity=95 time=0
EXTRACT: note_off channel=9 note=60 velocity=95 time=0
EXTRACT: note_on channel=9 note=61 velocity=95 time=0
EXTRACT: note_off channel=9 note=51 velocity=95 time=0
EXTRACT: note_on channel=9 note=51 velocity=95 time=0
EXTRACT: note_on channel=9 note=38 velocity=95 time=0
EXTRACT: note_on channel=9 note=35 velocity=95 time=0
EXTRACT: note_off channel=4 note=54 velocity=95 time=0.24
EXTRACT: note_on channel=4 note=57 velocity=95 time=0
EXTRACT: note_off channel=13 note=55 velocity=95 time=0
EXTRACT: note_on channel=13 note=57 velocity=95 time=0
EXTRACT: note_off channel=9 note=61 velocity=95 time=0
EXTRACT: note_on channel=9 note=60 velocity=95 time=0
EXTRACT: note_off channel=9 note=51 velocity=95 time=0
EXTRACT: note_off channel=9 note=38 velocity=95 time=0
EXTRACT: note_off channel=9 note=35 velocity=95 time=0
EXTRACT: note_on channel=9 note=51 velocity=95 time=0
EXTRACT: note_off channel=2 note=69 velocity=95 time=0.24
EXTRACT: note_off channel=2 note=67 velocity=95 time=0
EXTRACT: note_off channel=2 note=62 velocity=95 time=0
EXTRACT: note_off channel=2 note=59 velocity=95 time=0
EXTRACT: note_on channel=2 note=69 velocity=95 time=0
EXTRACT: note_on channel=2 note=67 velocity=95 time=0
EXTRACT: note_on channel=2 note=62 velocity=95 time=0
EXTRACT: note_on channel=2 note=59 velocity=95 time=0
EXTRACT: note_off channel=4 note=57 velocity=95 time=0
EXTRACT: note_on channel=4 note=50 velocity=95 time=0
EXTRACT: note_off channel=11 note=66 velocity=95 time=0
EXTRACT: note_on channel=11 note=66 velocity=95 time=0
EXTRACT: note_off channel=10 note=81 velocity=95 time=0
EXTRACT: note_off channel=10 note=76 velocity=95 time=0
EXTRACT: note_on channel=10 note=81 velocity=95 time=0
EXTRACT: note_on channel=10 note=76 velocity=95 time=0
EXTRACT: note_off channel=13 note=57 velocity=95 time=0
EXTRACT: note_on channel=13 note=33 velocity=95 time=0
EXTRACT: note_off channel=9 note=60 velocity=95 time=0
EXTRACT: note_on channel=9 note=60 velocity=95 time=0
EXTRACT: note_off channel=9 note=51 velocity=95 time=0
EXTRACT: note_on channel=9 note=51 velocity=95 time=0
EXTRACT: note_on channel=9 note=35 velocity=95 time=0
EXTRACT: note_off channel=4 note=50 velocity=95 time=0.031
EXTRACT: note_on channel=4 note=57 velocity=95 time=0.089
EXTRACT: note_on channel=0 note=61 velocity=95 time=0.12
EXTRACT: note_off channel=2 note=69 velocity=95 time=0
EXTRACT: note_off channel=2 note=67 velocity=95 time=0
EXTRACT: note_off channel=2 note=62 velocity=95 time=0
EXTRACT: note_off channel=2 note=59 velocity=95 time=0
EXTRACT: note_off channel=4 note=57 velocity=95 time=0
EXTRACT: note_on channel=4 note=54 velocity=95 time=0
EXTRACT: note_off channel=11 note=66 velocity=95 time=0
EXTRACT: note_off channel=10 note=81 velocity=95 time=0
EXTRACT: note_off channel=10 note=76 velocity=95 time=0
EXTRACT: note_off channel=4 note=54 velocity=95 time=0.12
EXTRACT: note_on channel=4 note=52 velocity=70 time=0
EXTRACT: note_off channel=0 note=61 velocity=95 time=0.12
EXTRACT: note_on channel=0 note=59 velocity=95 time=0
EXTRACT: note_on channel=2 note=69 velocity=95 time=0
EXTRACT: note_on channel=2 note=67 velocity=95 time=0
EXTRACT: note_on channel=2 note=62 velocity=95 time=0
EXTRACT: note_on channel=2 note=59 velocity=95 time=0
EXTRACT: note_off channel=4 note=52 velocity=70 time=0
EXTRACT: note_on channel=4 note=50 velocity=95 time=0
EXTRACT: note_on channel=11 note=66 velocity=95 time=0
EXTRACT: note_on channel=10 note=81 velocity=95 time=0
EXTRACT: note_on channel=10 note=76 velocity=95 time=0
EXTRACT: note_off channel=13 note=33 velocity=95 time=0
EXTRACT: pitchwheel channel=14 pitch=0 time=0
EXTRACT: note_on channel=14 note=37 velocity=127 time=0
EXTRACT: note_off channel=9 note=60 velocity=95 time=0
EXTRACT: note_off channel=9 note=51 velocity=95 time=0
EXTRACT: note_off channel=9 note=35 velocity=95 time=0
EXTRACT: note_on channel=9 note=51 velocity=95 time=0
EXTRACT: note_on channel=9 note=38 velocity=95 time=0
EXTRACT: note_on channel=9 note=35 velocity=95 time=0
EXTRACT: pitchwheel channel=14 pitch=128 time=0.0105
EXTRACT: pitchwheel channel=14 pitch=256 time=0.0105
EXTRACT: note_off channel=4 note=50 velocity=95 time=0.01
EXTRACT: pitchwheel channel=14 pitch=384 time=0.0005
EXTRACT: pitchwheel channel=14 pitch=512 time=0.0105
EXTRACT: pitchwheel channel=14 pitch=640 time=0.0105
EXTRACT: pitchwheel channel=14 pitch=768 time=0.0105
EXTRACT: pitchwheel channel=14 pitch=896 time=0.0105
EXTRACT: pitchwheel channel=14 pitch=1024 time=0.0105
EXTRACT: pitchwheel channel=14 pitch=1152 time=0.0105
EXTRACT: pitchwheel channel=14 pitch=1280 time=0.0105
EXTRACT: pitchwheel channel=14 pitch=1408 time=0.0105
EXTRACT: note_on channel=5 note=61 velocity=95 time=0.0045000000000000005
EXTRACT: pitchwheel channel=14 pitch=1408 time=0
EXTRACT: note_off channel=0 note=59 velocity=95 time=0.12
EXTRACT: note_on channel=0 note=57 velocity=95 time=0
EXTRACT: note_off channel=2 note=69 velocity=95 time=0
EXTRACT: note_off channel=2 note=67 velocity=95 time=0
EXTRACT: note_off channel=2 note=62 velocity=95 time=0
EXTRACT: note_off channel=2 note=59 velocity=95 time=0
EXTRACT: note_off channel=5 note=61 velocity=95 time=0
EXTRACT: note_off channel=11 note=66 velocity=95 time=0
EXTRACT: note_off channel=10 note=81 velocity=95 time=0
EXTRACT: note_off channel=10 note=76 velocity=95 time=0
EXTRACT: pitchwheel channel=14 pitch=1408 time=0
EXTRACT: pitchwheel channel=14 pitch=1280 time=0.0105
EXTRACT: pitchwheel channel=14 pitch=1152 time=0.0105
EXTRACT: pitchwheel channel=14 pitch=1024 time=0.0105
EXTRACT: pitchwheel channel=14 pitch=896 time=0.0105
EXTRACT: pitchwheel channel=14 pitch=768 time=0.0105
EXTRACT: pitchwheel channel=14 pitch=640 time=0.0105
EXTRACT: pitchwheel channel=14 pitch=512 time=0.0105
EXTRACT: pitchwheel channel=14 pitch=384 time=0.0105
EXTRACT: pitchwheel channel=14 pitch=256 time=0.0105
EXTRACT: pitchwheel channel=14 pitch=128 time=0.0105
EXTRACT: pitchwheel channel=14 pitch=0 time=0.0105
EXTRACT: pitchwheel channel=14 pitch=0 time=0.0045000000000000005
EXTRACT: note_off channel=0 note=57 velocity=95 time=0.12
EXTRACT: note_on channel=0 note=61 velocity=95 time=0
EXTRACT: note_on channel=2 note=73 velocity=95 time=0
EXTRACT: note_on channel=2 note=69 velocity=95 time=0
EXTRACT: note_on channel=2 note=66 velocity=95 time=0
EXTRACT: note_off channel=8 note=69 velocity=95 time=0
EXTRACT: note_on channel=8 note=61 velocity=95 time=0
EXTRACT: pitchwheel channel=14 pitch=0 time=0
EXTRACT: pitchwheel channel=14 pitch=0 time=0
EXTRACT: note_off channel=14 note=37 velocity=127 time=0
EXTRACT: note_on channel=13 note=38 velocity=95 time=0
EXTRACT: note_on channel=9 note=60 velocity=95 time=0
EXTRACT: note_off channel=9 note=51 velocity=95 time=0
EXTRACT: note_off channel=9 note=38 velocity=95 time=0
EXTRACT: note_off channel=9 note=35 velocity=95 time=0
EXTRACT: note_on channel=9 note=51 velocity=95 time=0
EXTRACT: note_on channel=9 note=35 velocity=95 time=0
EXTRACT: note_off channel=0 note=61 velocity=95 time=0.24
EXTRACT: note_on channel=0 note=61 velocity=95 time=0
EXTRACT: note_off channel=2 note=73 velocity=95 time=0
EXTRACT: note_off channel=2 note=69 velocity=95 time=0
EXTRACT: note_off channel=2 note=66 velocity=95 time=0
EXTRACT: note_on channel=2 note=73 velocity=95 time=0
EXTRACT: note_on channel=2 note=69 velocity=95 time=0
EXTRACT: note_on channel=2 note=66 velocity=95 time=0
EXTRACT: note_on channel=4 note=61 velocity=95 time=0
EXTRACT: note_on channel=10 note=81 velocity=127 time=0
EXTRACT: note_on channel=10 note=76 velocity=127 time=0
EXTRACT: note_off channel=13 note=38 velocity=95 time=0
EXTRACT: note_on channel=13 note=38 velocity=95 time=0
EXTRACT: note_off channel=9 note=60 velocity=95 time=0
EXTRACT: note_on channel=9 note=60 velocity=95 time=0
EXTRACT: note_off channel=9 note=51 velocity=95 time=0
EXTRACT: note_off channel=9 note=35 velocity=95 time=0
EXTRACT: note_on channel=9 note=51 velocity=95 time=0
EXTRACT: note_off channel=0 note=61 velocity=95 time=0.24
EXTRACT: note_off channel=2 note=73 velocity=95 time=0
EXTRACT: note_off channel=2 note=69 velocity=95 time=0
EXTRACT: note_off channel=2 note=66 velocity=95 time=0
EXTRACT: note_on channel=2 note=73 velocity=95 time=0
EXTRACT: note_on channel=2 note=69 velocity=95 time=0
EXTRACT: note_on channel=2 note=66 velocity=95 time=0
EXTRACT: note_off channel=4 note=61 velocity=95 time=0
EXTRACT: note_off channel=10 note=81 velocity=127 time=0
EXTRACT: note_off channel=10 note=76 velocity=127 time=0
EXTRACT: note_off channel=13 note=38 velocity=95 time=0
EXTRACT: note_off channel=9 note=60 velocity=95 time=0
EXTRACT: note_on channel=9 note=61 velocity=95 time=0
EXTRACT: note_off channel=9 note=51 velocity=95 time=0
EXTRACT: note_on channel=9 note=51 velocity=95 time=0
EXTRACT: note_on channel=9 note=38 velocity=95 time=0
EXTRACT: note_on channel=9 note=35 velocity=95 time=0
EXTRACT: note_off channel=2 note=73 velocity=95 time=0.24
EXTRACT: note_off channel=2 note=69 velocity=95 time=0
EXTRACT: note_off channel=2 note=66 velocity=95 time=0
EXTRACT: note_on channel=2 note=71 velocity=95 time=0
EXTRACT: note_on channel=2 note=68 velocity=95 time=0
EXTRACT: note_on channel=2 note=64 velocity=95 time=0
EXTRACT: note_on channel=4 note=59 velocity=95 time=0
EXTRACT: note_on channel=13 note=37 velocity=95 time=0
EXTRACT: note_off channel=9 note=61 velocity=95 time=0
EXTRACT: note_on channel=9 note=60 velocity=95 time=0
EXTRACT: note_off channel=9 note=51 velocity=95 time=0
EXTRACT: note_off channel=9 note=38 velocity=95 time=0
EXTRACT: note_off channel=9 note=35 velocity=95 time=0
EXTRACT: note_on channel=9 note=51 velocity=95 time=0
EXTRACT: note_off channel=2 note=71 velocity=95 time=0.24
EXTRACT: note_off channel=2 note=68 velocity=95 time=0
EXTRACT: note_off channel=2 note=64 velocity=95 time=0
EXTRACT: note_off channel=4 note=59 velocity=95 time=0
EXTRACT: note_on channel=11 note=61 velocity=95 time=0
EXTRACT: note_off channel=13 note=37 velocity=95 time=0
EXTRACT: note_off channel=9 note=60 velocity=95 time=0
EXTRACT: note_on channel=9 note=60 velocity=95 time=0
EXTRACT: note_off channel=9 note=51 velocity=95 time=0
EXTRACT: note_on channel=9 note=51 velocity=95 time=0
EXTRACT: note_on channel=9 note=35 velocity=95 time=0
EXTRACT: note_on channel=0 note=57 velocity=95 time=0.24
EXTRACT: note_on channel=2 note=69 velocity=95 time=0
EXTRACT: note_on channel=2 note=66 velocity=95 time=0
EXTRACT: note_on channel=2 note=62 velocity=95 time=0
EXTRACT: note_on channel=4 note=57 velocity=95 time=0
EXTRACT: note_off channel=11 note=61 velocity=95 time=0
EXTRACT: note_on channel=11 note=64 velocity=95 time=0
EXTRACT: note_on channel=13 note=35 velocity=95 time=0
EXTRACT: note_off channel=9 note=60 velocity=95 time=0
EXTRACT: note_on channel=9 note=60 velocity=95 time=0
EXTRACT: note_off channel=9 note=51 velocity=95 time=0
EXTRACT: note_off channel=9 note=35 velocity=95 time=0
EXTRACT: note_on channel=9 note=51 velocity=95 time=0
EXTRACT: note_off channel=0 note=57 velocity=95 time=0.24
EXTRACT: note_on channel=0 note=59 velocity=95 time=0
EXTRACT: note_off channel=4 note=57 velocity=95 time=0
EXTRACT: note_off channel=11 note=64 velocity=95 time=0
EXTRACT: note_on channel=11 note=66 velocity=95 time=0
EXTRACT: note_off channel=13 note=35 velocity=95 time=0
EXTRACT: note_off channel=9 note=60 velocity=95 time=0
EXTRACT: note_on channel=9 note=60 velocity=95 time=0
EXTRACT: note_off channel=9 note=51 velocity=95 time=0
EXTRACT: note_on channel=9 note=51 velocity=95 time=0
EXTRACT: note_on channel=9 note=38 velocity=95 time=0
EXTRACT: note_on channel=9 note=35 velocity=95 time=0
EXTRACT: note_off channel=0 note=59 velocity=95 time=0.24
EXTRACT: note_on channel=0 note=61 velocity=95 time=0
EXTRACT: note_off channel=2 note=69 velocity=95 time=0
EXTRACT: note_off channel=2 note=66 velocity=95 time=0
EXTRACT: note_off channel=2 note=62 velocity=95 time=0
EXTRACT: note_on channel=2 note=71 velocity=95 time=0
EXTRACT: note_on channel=2 note=68 velocity=95 time=0
EXTRACT: note_on channel=2 note=64 velocity=95 time=0
EXTRACT: note_on channel=4 note=45 velocity=95 time=0
EXTRACT: note_off channel=11 note=66 velocity=95 time=0
EXTRACT: note_on channel=11 note=64 velocity=95 time=0
EXTRACT: note_on channel=13 note=36 velocity=95 time=0
EXTRACT: note_off channel=9 note=60 velocity=95 time=0
EXTRACT: note_on channel=9 note=61 velocity=95 time=0
EXTRACT: note_off channel=9 note=51 velocity=95 time=0
EXTRACT: note_off channel=9 note=38 velocity=95 time=0
EXTRACT: note_off channel=9 note=35 velocity=95 time=0
EXTRACT: note_on channel=9 note=51 velocity=95 time=0
EXTRACT: note_off channel=4 note=45 velocity=95 time=0.031
EXTRACT: note_on channel=5 note=59 velocity=95 time=0.209
EXTRACT: note_off channel=11 note=64 velocity=95 time=0
EXTRACT: note_on channel=11 note=69 velocity=95 time=0
EXTRACT: note_off channel=13 note=36 velocity=95 time=0
EXTRACT: note_on channel=13 note=37 velocity=95 time=0
EXTRACT: note_off channel=9 note=61 velocity=95 time=0
EXTRACT: note_on channel=9 note=60 velocity=95 time=0
EXTRACT: note_off channel=9 note=51 velocity=95 time=0
EXTRACT: note_on channel=9 note=51 velocity=95 time=0
EXTRACT: note_on channel=9 note=35 velocity=95 time=0
EXTRACT: pitchwheel channel=5 pitch=0 time=0.06
EXTRACT: pitchwheel channel=5 pitch=0 time=0.06
EXTRACT: pitchwheel channel=5 pitch=0 time=0.06
EXTRACT: note_off channel=0 note=61 velocity=95 time=0.06
EXTRACT: note_on channel=0 note=64 velocity=95 time=0
EXTRACT: pitchwheel channel=5 pitch=0 time=0
EXTRACT: pitchwheel channel=5 pitch=0 time=0
EXTRACT: note_off channel=5 note=59 velocity=95 time=0
EXTRACT: note_on channel=4 note=59 velocity=95 time=0
EXTRACT: note_off channel=8 note=61 velocity=95 time=0
EXTRACT: note_on channel=8 note=64 velocity=95 time=0
EXTRACT: note_off channel=13 note=37 velocity=95 time=0
EXTRACT: note_on channel=13 note=32 velocity=95 time=0
EXTRACT: note_off channel=9 note=60 velocity=95 time=0
EXTRACT: note_on channel=9 note=60 velocity=95 time=0
EXTRACT: note_off channel=9 note=51 velocity=95 time=0
EXTRACT: note_off channel=9 note=35 velocity=95 time=0
EXTRACT: note_on channel=9 note=51 velocity=95 time=0
EXTRACT: note_off channel=0 note=64 velocity=95 time=0.24
EXTRACT: note_on channel=0 note=66 velocity=95 time=0
EXTRACT: note_off channel=4 note=59 velocity=95 time=0
EXTRACT: note_on channel=4 note=59 velocity=95 time=0
EXTRACT: note_off channel=8 note=64 velocity=95 time=0
EXTRACT: note_on channel=8 note=66 velocity=95 time=0
EXTRACT: note_off channel=11 note=69 velocity=95 time=0
EXTRACT: note_on channel=11 note=66 velocity=95 time=0
EXTRACT: note_off channel=13 note=32 velocity=95 time=0
EXTRACT: note_on channel=13 note=28 velocity=95 time=0
EXTRACT: note_off channel=9 note=60 velocity=95 time=0
EXTRACT: note_on channel=9 note=61 velocity=95 time=0
EXTRACT: note_off channel=9 note=51 velocity=95 time=0
EXTRACT: note_on channel=9 note=51 velocity=95 time=0
EXTRACT: note_on channel=9 note=38 velocity=95 time=0
EXTRACT: note_on channel=9 note=35 velocity=95 time=0
EXTRACT: note_off channel=0 note=66 velocity=95 time=0.24
EXTRACT: note_on channel=0 note=59 velocity=95 time=0
EXTRACT: note_off channel=2 note=71 velocity=95 time=0
EXTRACT: note_off channel=2 note=68 velocity=95 time=0
EXTRACT: note_off channel=2 note=64 velocity=95 time=0
EXTRACT: note_on channel=2 note=69 velocity=95 time=0
EXTRACT: note_on channel=2 note=64 velocity=95 time=0
EXTRACT: note_on channel=2 note=61 velocity=95 time=0
EXTRACT: note_off channel=4 note=59 velocity=95 time=0
EXTRACT: note_on channel=4 note=56 velocity=95 time=0
EXTRACT: note_off channel=8 note=66 velocity=95 time=0
EXTRACT: note_on channel=8 note=69 velocity=95 time=0
EXTRACT: note_off channel=11 note=66 velocity=95 time=0
EXTRACT: note_on channel=11 note=64 velocity=95 time=0
EXTRACT: note_off channel=13 note=28 velocity=95 time=0
EXTRACT: note_off channel=9 note=61 velocity=95 time=0
EXTRACT: note_on channel=9 note=60 velocity=95 time=0
EXTRACT: note_off channel=9 note=51 velocity=95 time=0
EXTRACT: note_off channel=9 note=38 velocity=95 time=0
EXTRACT: note_off channel=9 note=35 velocity=95 time=0
EXTRACT: note_on channel=9 note=51 velocity=95 time=0
EXTRACT: note_off channel=0 note=59 velocity=95 time=0.24
EXTRACT: note_on channel=0 note=57 velocity=70 time=0
EXTRACT: note_off channel=11 note=64 velocity=95 time=0
EXTRACT: note_on channel=11 note=69 velocity=95 time=0
EXTRACT: note_on channel=13 note=30 velocity=95 time=0
EXTRACT: note_off channel=9 note=60 velocity=95 time=0
EXTRACT: note_on channel=9 note=60 velocity=95 time=0
EXTRACT: note_off channel=9 note=51 velocity=95 time=0
EXTRACT: note_on channel=9 note=51 velocity=95 time=0
EXTRACT: note_on channel=9 note=35 velocity=95 time=0
EXTRACT: note_off channel=0 note=57 velocity=70 time=0.24
EXTRACT: note_on channel=0 note=57 velocity=95 time=0
EXTRACT: note_off channel=4 note=56 velocity=95 time=0
EXTRACT: note_on channel=4 note=57 velocity=95 time=0
EXTRACT: note_off channel=13 note=30 velocity=95 time=0
EXTRACT: note_off channel=9 note=60 velocity=95 time=0
EXTRACT: note_on channel=9 note=60 velocity=95 time=0
EXTRACT: note_off channel=9 note=51 velocity=95 time=0
EXTRACT: note_off channel=9 note=35 velocity=95 time=0
EXTRACT: note_on channel=9 note=51 velocity=95 time=0
EXTRACT: note_off channel=0 note=57 velocity=95 time=0.24
EXTRACT: note_on channel=0 note=59 velocity=95 time=0
EXTRACT: note_off channel=4 note=57 velocity=95 time=0
EXTRACT: note_off channel=8 note=69 velocity=95 time=0
EXTRACT: note_on channel=8 note=71 velocity=95 time=0
EXTRACT: note_off channel=11 note=69 velocity=95 time=0
EXTRACT: note_on channel=11 note=66 velocity=95 time=0
EXTRACT: note_off channel=9 note=60 velocity=95 time=0
EXTRACT: note_on channel=9 note=60 velocity=95 time=0
EXTRACT: note_off channel=9 note=51 velocity=95 time=0
EXTRACT: note_on channel=9 note=51 velocity=95 time=0
EXTRACT: note_on channel=9 note=38 velocity=95 time=0
EXTRACT: note_on channel=9 note=35 velocity=95 time=0
EXTRACT: note_off channel=0 note=59 velocity=95 time=0.24
EXTRACT: note_on channel=0 note=62 velocity=95 time=0
EXTRACT: note_off channel=8 note=71 velocity=95 time=0
EXTRACT: note_on channel=8 note=73 velocity=95 time=0
EXTRACT: note_off channel=11 note=66 velocity=95 time=0
EXTRACT: note_on channel=11 note=64 velocity=95 time=0
EXTRACT: note_on channel=13 note=33 velocity=95 time=0
EXTRACT: note_off channel=9 note=60 velocity=95 time=0
EXTRACT: note_on channel=9 note=61 velocity=95 time=0
EXTRACT: note_off channel=9 note=51 velocity=95 time=0
EXTRACT: note_off channel=9 note=38 velocity=95 time=0
EXTRACT: note_off channel=9 note=35 velocity=95 time=0
EXTRACT: note_on channel=9 note=51 velocity=95 time=0
EXTRACT: note_off channel=2 note=69 velocity=95 time=0.24
EXTRACT: note_off channel=2 note=64 velocity=95 time=0
EXTRACT: note_off channel=2 note=61 velocity=95 time=0
EXTRACT: note_on channel=2 note=73 velocity=95 time=0
EXTRACT: note_on channel=2 note=69 velocity=95 time=0
EXTRACT: note_on channel=2 note=66 velocity=95 time=0
EXTRACT: note_off channel=11 note=64 velocity=95 time=0
EXTRACT: note_off channel=13 note=33 velocity=95 time=0
EXTRACT: note_on channel=13 note=38 velocity=95 time=0
EXTRACT: note_off channel=9 note=61 velocity=95 time=0
EXTRACT: note_on channel=9 note=60 velocity=95 time=0
EXTRACT: note_off channel=9 note=51 velocity=95 time=0
EXTRACT: note_on channel=9 note=51 velocity=95 time=0
EXTRACT: note_on channel=9 note=35 velocity=95 time=0
EXTRACT: note_off channel=0 note=62 velocity=95 time=0.24
EXTRACT: note_on channel=0 note=61 velocity=95 time=0
EXTRACT: note_off channel=2 note=73 velocity=95 time=0
EXTRACT: note_off channel=2 note=69 velocity=95 time=0
EXTRACT: note_off channel=2 note=66 velocity=95 time=0
EXTRACT: note_on channel=2 note=73 velocity=95 time=0
EXTRACT: note_on channel=2 note=69 velocity=95 time=0
EXTRACT: note_on channel=2 note=66 velocity=95 time=0
EXTRACT: note_on channel=4 note=61 velocity=95 time=0
EXTRACT: note_on channel=10 note=81 velocity=127 time=0
EXTRACT: note_on channel=10 note=76 velocity=127 time=0
EXTRACT: note_off channel=13 note=38 velocity=95 time=0
EXTRACT: note_on channel=13 note=38 velocity=95 time=0
EXTRACT: note_off channel=9 note=60 velocity=95 time=0
EXTRACT: note_on channel=9 note=60 velocity=95 time=0
EXTRACT: note_off channel=9 note=51 velocity=95 time=0
EXTRACT: note_off channel=9 note=35 velocity=95 time=0
EXTRACT: note_on channel=9 note=51 velocity=95 time=0
EXTRACT: note_off channel=0 note=61 velocity=95 time=0.24
EXTRACT: note_off channel=2 note=73 velocity=95 time=0
EXTRACT: note_off channel=2 note=69 velocity=95 time=0
EXTRACT: note_off channel=2 note=66 velocity=95 time=0
EXTRACT: note_on channel=2 note=73 velocity=95 time=0
EXTRACT: note_on channel=2 note=69 velocity=95 time=0
EXTRACT: note_on channel=2 note=66 velocity=95 time=0
EXTRACT: note_off channel=4 note=61 velocity=95 time=0
EXTRACT: note_off channel=10 note=81 velocity=127 time=0
EXTRACT: note_off channel=10 note=76 velocity=127 time=0
EXTRACT: note_off channel=13 note=38 velocity=95 time=0
EXTRACT: note_off channel=9 note=60 velocity=95 time=0
EXTRACT: note_on channel=9 note=61 velocity=95 time=0
EXTRACT: note_off channel=9 note=51 velocity=95 time=0
EXTRACT: note_on channel=9 note=51 velocity=95 time=0
EXTRACT: note_on channel=9 note=38 velocity=95 time=0
EXTRACT: note_on channel=9 note=35 velocity=95 time=0
EXTRACT: note_off channel=2 note=73 velocity=95 time=0.24
EXTRACT: note_off channel=2 note=69 velocity=95 time=0
EXTRACT: note_off channel=2 note=66 velocity=95 time=0
EXTRACT: note_on channel=2 note=71 velocity=95 time=0
EXTRACT: note_on channel=2 note=68 velocity=95 time=0
EXTRACT: note_on channel=2 note=64 velocity=95 time=0
EXTRACT: note_on channel=4 note=59 velocity=95 time=0
EXTRACT: note_on channel=13 note=37 velocity=95 time=0
EXTRACT: note_off channel=9 note=61 velocity=95 time=0
EXTRACT: note_on channel=9 note=60 velocity=95 time=0
EXTRACT: note_off channel=9 note=51 velocity=95 time=0
EXTRACT: note_off channel=9 note=38 velocity=95 time=0
EXTRACT: note_off channel=9 note=35 velocity=95 time=0
EXTRACT: note_on channel=9 note=51 velocity=95 time=0
EXTRACT: note_off channel=2 note=71 velocity=95 time=0.24
EXTRACT: note_off channel=2 note=68 velocity=95 time=0
EXTRACT: note_off channel=2 note=64 velocity=95 time=0
EXTRACT: note_off channel=4 note=59 velocity=95 time=0
EXTRACT: note_on channel=11 note=61 velocity=95 time=0
EXTRACT: note_off channel=13 note=37 velocity=95 time=0
EXTRACT: note_off channel=9 note=60 velocity=95 time=0
EXTRACT: note_on channel=9 note=60 velocity=95 time=0
EXTRACT: note_off channel=9 note=51 velocity=95 time=0
EXTRACT: note_on channel=9 note=51 velocity=95 time=0
EXTRACT: note_on channel=9 note=35 velocity=95 time=0
EXTRACT: note_on channel=2 note=69 velocity=95 time=0.24
EXTRACT: note_on channel=2 note=66 velocity=95 time=0
EXTRACT: note_on channel=2 note=62 velocity=95 time=0
EXTRACT: note_on channel=4 note=57 velocity=95 time=0
EXTRACT: note_off channel=11 note=61 velocity=95 time=0
EXTRACT: note_on channel=11 note=64 velocity=95 time=0
EXTRACT: note_on channel=13 note=35 velocity=95 time=0
EXTRACT: note_off channel=9 note=60 velocity=95 time=0
EXTRACT: note_on channel=9 note=60 velocity=95 time=0
EXTRACT: note_off channel=9 note=51 velocity=95 time=0
EXTRACT: note_off channel=9 note=35 velocity=95 time=0
EXTRACT: note_on channel=9 note=51 velocity=95 time=0
EXTRACT: note_on channel=0 note=57 velocity=95 time=0.24
EXTRACT: note_off channel=4 note=57 velocity=95 time=0
EXTRACT: note_off channel=11 note=64 velocity=95 time=0
EXTRACT: note_on channel=11 note=66 velocity=95 time=0
EXTRACT: note_off channel=13 note=35 velocity=95 time=0
EXTRACT: note_off channel=9 note=60 velocity=95 time=0
EXTRACT: note_on channel=9 note=60 velocity=95 time=0
EXTRACT: note_off channel=9 note=51 velocity=95 time=0
EXTRACT: note_on channel=9 note=51 velocity=95 time=0
EXTRACT: note_on channel=9 note=38 velocity=95 time=0
EXTRACT: note_on channel=9 note=35 velocity=95 time=0
EXTRACT: note_off channel=0 note=57 velocity=95 time=0.24
EXTRACT: note_on channel=0 note=59 velocity=95 time=0
EXTRACT: note_off channel=2 note=69 velocity=95 time=0
EXTRACT: note_off channel=2 note=66 velocity=95 time=0
EXTRACT: note_off channel=2 note=62 velocity=95 time=0
EXTRACT: note_on channel=2 note=71 velocity=95 time=0
EXTRACT: note_on channel=2 note=68 velocity=95 time=0
EXTRACT: note_on channel=2 note=64 velocity=95 time=0
EXTRACT: note_off channel=11 note=66 velocity=95 time=0
EXTRACT: note_on channel=11 note=64 velocity=95 time=0
EXTRACT: note_on channel=13 note=36 velocity=95 time=0
EXTRACT: note_off channel=9 note=60 velocity=95 time=0
EXTRACT: note_on channel=9 note=61 velocity=95 time=0
EXTRACT: note_off channel=9 note=51 velocity=95 time=0
EXTRACT: note_off channel=9 note=38 velocity=95 time=0
EXTRACT: note_off channel=9 note=35 velocity=95 time=0
EXTRACT: note_on channel=9 note=51 velocity=95 time=0
EXTRACT: note_off channel=0 note=59 velocity=95 time=0.24
EXTRACT: note_on channel=0 note=61 velocity=95 time=0
EXTRACT: note_off channel=8 note=73 velocity=95 time=0
EXTRACT: note_on channel=8 note=61 velocity=95 time=0
EXTRACT: note_off channel=11 note=64 velocity=95 time=0
EXTRACT: note_on channel=11 note=69 velocity=95 time=0
EXTRACT: note_off channel=13 note=36 velocity=95 time=0
EXTRACT: note_on channel=13 note=37 velocity=95 time=0
EXTRACT: note_off channel=9 note=61 velocity=95 time=0
EXTRACT: note_on channel=9 note=60 velocity=95 time=0
EXTRACT: note_off channel=9 note=51 velocity=95 time=0
EXTRACT: note_on channel=9 note=51 velocity=95 time=0
EXTRACT: note_on channel=9 note=35 velocity=95 time=0
EXTRACT: note_off channel=0 note=61 velocity=95 time=0.24
EXTRACT: note_on channel=0 note=64 velocity=95 time=0
EXTRACT: note_on channel=4 note=59 velocity=95 time=0
EXTRACT: note_off channel=8 note=61 velocity=95 time=0
EXTRACT: note_on channel=8 note=64 velocity=95 time=0
EXTRACT: note_off channel=13 note=37 velocity=95 time=0
EXTRACT: note_on channel=13 note=32 velocity=95 time=0
EXTRACT: note_off channel=9 note=60 velocity=95 time=0
EXTRACT: note_on channel=9 note=60 velocity=95 time=0
EXTRACT: note_off channel=9 note=51 velocity=95 time=0
EXTRACT: note_off channel=9 note=35 velocity=95 time=0
EXTRACT: note_on channel=9 note=51 velocity=95 time=0
EXTRACT: note_off channel=0 note=64 velocity=95 time=0.24
EXTRACT: note_on channel=0 note=66 velocity=95 time=0
EXTRACT: note_off channel=4 note=59 velocity=95 time=0
EXTRACT: note_on channel=4 note=59 velocity=95 time=0
EXTRACT: note_off channel=8 note=64 velocity=95 time=0
EXTRACT: note_on channel=8 note=66 velocity=95 time=0
EXTRACT: note_off channel=11 note=69 velocity=95 time=0
EXTRACT: note_on channel=11 note=66 velocity=95 time=0
EXTRACT: note_off channel=13 note=32 velocity=95 time=0
EXTRACT: note_on channel=13 note=28 velocity=95 time=0
EXTRACT: note_off channel=9 note=60 velocity=95 time=0
EXTRACT: note_on channel=9 note=61 velocity=95 time=0
EXTRACT: note_off channel=9 note=51 velocity=95 time=0
EXTRACT: note_on channel=9 note=51 velocity=95 time=0
EXTRACT: note_on channel=9 note=38 velocity=95 time=0
EXTRACT: note_on channel=9 note=35 velocity=95 time=0
EXTRACT: note_off channel=0 note=66 velocity=95 time=0.24
EXTRACT: note_on channel=0 note=59 velocity=95 time=0
EXTRACT: note_off channel=2 note=71 velocity=95 time=0
EXTRACT: note_off channel=2 note=68 velocity=95 time=0
EXTRACT: note_off channel=2 note=64 velocity=95 time=0
EXTRACT: note_on channel=2 note=69 velocity=95 time=0
EXTRACT: note_on channel=2 note=64 velocity=95 time=0
EXTRACT: note_on channel=2 note=61 velocity=95 time=0
EXTRACT: note_off channel=4 note=59 velocity=95 time=0
EXTRACT: note_on channel=4 note=56 velocity=95 time=0
EXTRACT: note_off channel=8 note=66 velocity=95 time=0
EXTRACT: note_on channel=8 note=57 velocity=95 time=0
EXTRACT: note_off channel=11 note=66 velocity=95 time=0
EXTRACT: note_on channel=11 note=64 velocity=95 time=0
EXTRACT: note_off channel=13 note=28 velocity=95 time=0
EXTRACT: note_off channel=9 note=61 velocity=95 time=0
EXTRACT: note_on channel=9 note=60 velocity=95 time=0
EXTRACT: note_off channel=9 note=51 velocity=95 time=0
EXTRACT: note_off channel=9 note=38 velocity=95 time=0
EXTRACT: note_off channel=9 note=35 velocity=95 time=0
EXTRACT: note_on channel=9 note=51 velocity=95 time=0
EXTRACT: note_off channel=0 note=59 velocity=95 time=0.24
EXTRACT: note_on channel=0 note=57 velocity=70 time=0
EXTRACT: note_off channel=8 note=57 velocity=95 time=0
EXTRACT: note_on channel=8 note=59 velocity=95 time=0
EXTRACT: note_off channel=11 note=64 velocity=95 time=0
EXTRACT: note_on channel=11 note=69 velocity=95 time=0
EXTRACT: note_on channel=13 note=30 velocity=95 time=0
EXTRACT: note_off channel=9 note=60 velocity=95 time=0
EXTRACT: note_on channel=9 note=60 velocity=95 time=0
EXTRACT: note_off channel=9 note=51 velocity=95 time=0
EXTRACT: note_on channel=9 note=51 velocity=95 time=0
EXTRACT: note_on channel=9 note=35 velocity=95 time=0
EXTRACT: note_off channel=4 note=56 velocity=95 time=0.24
EXTRACT: note_on channel=4 note=57 velocity=95 time=0
EXTRACT: note_off channel=8 note=59 velocity=95 time=0
EXTRACT: note_on channel=8 note=61 velocity=95 time=0
EXTRACT: note_off channel=13 note=30 velocity=95 time=0
EXTRACT: note_off channel=9 note=60 velocity=95 time=0
EXTRACT: note_on channel=9 note=60 velocity=95 time=0
EXTRACT: note_off channel=9 note=51 velocity=95 time=0
EXTRACT: note_off channel=9 note=35 velocity=95 time=0
EXTRACT: note_on channel=9 note=51 velocity=95 time=0
EXTRACT: note_off channel=0 note=57 velocity=70 time=0.24
EXTRACT: note_on channel=0 note=61 velocity=95 time=0
EXTRACT: note_off channel=4 note=57 velocity=95 time=0
EXTRACT: note_off channel=8 note=61 velocity=95 time=0
EXTRACT: note_on channel=8 note=64 velocity=95 time=0
EXTRACT: note_off channel=11 note=69 velocity=95 time=0
EXTRACT: note_on channel=11 note=66 velocity=95 time=0
EXTRACT: note_on channel=13 note=33 velocity=95 time=0
EXTRACT: note_off channel=9 note=60 velocity=95 time=0
EXTRACT: note_on channel=9 note=60 velocity=95 time=0
EXTRACT: note_off channel=9 note=51 velocity=95 time=0
EXTRACT: note_on channel=9 note=51 velocity=95 time=0
EXTRACT: note_on channel=9 note=38 velocity=95 time=0
EXTRACT: note_on channel=9 note=35 velocity=95 time=0
EXTRACT: note_off channel=0 note=61 velocity=95 time=0.24
EXTRACT: note_on channel=0 note=61 velocity=95 time=0
EXTRACT: note_on channel=4 note=50 velocity=95 time=0
EXTRACT: note_off channel=8 note=64 velocity=95 time=0
EXTRACT: note_on channel=8 note=66 velocity=95 time=0
EXTRACT: note_off channel=11 note=66 velocity=95 time=0
EXTRACT: note_on channel=11 note=64 velocity=95 time=0
EXTRACT: note_off channel=13 note=33 velocity=95 time=0
EXTRACT: note_on channel=13 note=35 velocity=95 time=0
EXTRACT: note_off channel=9 note=60 velocity=95 time=0
EXTRACT: note_on channel=9 note=61 velocity=95 time=0
EXTRACT: note_off channel=9 note=51 velocity=95 time=0
EXTRACT: note_off channel=9 note=38 velocity=95 time=0
EXTRACT: note_off channel=9 note=35 velocity=95 time=0
EXTRACT: note_on channel=9 note=51 velocity=95 time=0
EXTRACT: note_off channel=4 note=50 velocity=95 time=0.031
EXTRACT: note_off channel=0 note=61 velocity=95 time=0.209
EXTRACT: note_on channel=0 note=61 velocity=95 time=0
EXTRACT: note_off channel=2 note=69 velocity=95 time=0
EXTRACT: note_off channel=2 note=64 velocity=95 time=0
EXTRACT: note_off channel=2 note=61 velocity=95 time=0
EXTRACT: note_on channel=2 note=73 velocity=95 time=0
EXTRACT: note_on channel=2 note=69 velocity=95 time=0
EXTRACT: note_on channel=2 note=66 velocity=95 time=0
EXTRACT: note_on channel=5 note=61 velocity=47 time=0
EXTRACT: note_off channel=11 note=64 velocity=95 time=0
EXTRACT: note_off channel=13 note=35 velocity=95 time=0
EXTRACT: note_on channel=13 note=38 velocity=95 time=0
EXTRACT: note_off channel=9 note=61 velocity=95 time=0
EXTRACT: note_on channel=9 note=60 velocity=95 time=0
EXTRACT: note_off channel=9 note=51 velocity=95 time=0
EXTRACT: note_on channel=9 note=51 velocity=95 time=0
EXTRACT: note_on channel=9 note=35 velocity=95 time=0
EXTRACT: pitchwheel channel=5 pitch=0 time=0.06
EXTRACT: pitchwheel channel=5 pitch=0 time=0.06
EXTRACT: pitchwheel channel=5 pitch=0 time=0.06
EXTRACT: note_off channel=2 note=73 velocity=95 time=0.06
EXTRACT: note_off channel=2 note=69 velocity=95 time=0
EXTRACT: note_off channel=2 note=66 velocity=95 time=0
EXTRACT: note_on channel=2 note=73 velocity=95 time=0
EXTRACT: note_on channel=2 note=69 velocity=95 time=0
EXTRACT: note_on channel=2 note=66 velocity=95 time=0
EXTRACT: pitchwheel channel=5 pitch=0 time=0
EXTRACT: pitchwheel channel=5 pitch=0 time=0
EXTRACT: note_off channel=5 note=61 velocity=47 time=0
EXTRACT: note_on channel=4 note=61 velocity=95 time=0
EXTRACT: note_on channel=10 note=81 velocity=127 time=0
EXTRACT: note_on channel=10 note=76 velocity=127 time=0
EXTRACT: note_off channel=13 note=38 velocity=95 time=0
EXTRACT: note_on channel=13 note=38 velocity=95 time=0
EXTRACT: note_off channel=9 note=60 velocity=95 time=0
EXTRACT: note_on channel=9 note=60 velocity=95 time=0
EXTRACT: note_off channel=9 note=51 velocity=95 time=0
EXTRACT: note_off channel=9 note=35 velocity=95 time=0
EXTRACT: note_on channel=9 note=51 velocity=95 time=0
EXTRACT: note_off channel=0 note=61 velocity=95 time=0.24
EXTRACT: note_off channel=2 note=73 velocity=95 time=0
EXTRACT: note_off channel=2 note=69 velocity=95 time=0
EXTRACT: note_off channel=2 note=66 velocity=95 time=0
EXTRACT: note_on channel=2 note=73 velocity=95 time=0
EXTRACT: note_on channel=2 note=69 velocity=95 time=0
EXTRACT: note_on channel=2 note=66 velocity=95 time=0
EXTRACT: note_off channel=4 note=61 velocity=95 time=0
EXTRACT: note_off channel=10 note=81 velocity=127 time=0
EXTRACT: note_off channel=10 note=76 velocity=127 time=0
EXTRACT: note_off channel=13 note=38 velocity=95 time=0
EXTRACT: note_on channel=13 note=38 velocity=95 time=0
EXTRACT: note_off channel=9 note=60 velocity=95 time=0
EXTRACT: note_on channel=9 note=61 velocity=95 time=0
EXTRACT: note_off channel=9 note=51 velocity=95 time=0
EXTRACT: note_on channel=9 note=51 velocity=95 time=0
EXTRACT: note_on channel=9 note=38 velocity=95 time=0
EXTRACT: note_on channel=9 note=35 velocity=95 time=0
EXTRACT: note_off channel=2 note=73 velocity=95 time=0.24
EXTRACT: note_off channel=2 note=69 velocity=95 time=0
EXTRACT: note_off channel=2 note=66 velocity=95 time=0
EXTRACT: note_on channel=2 note=71 velocity=95 time=0
EXTRACT: note_on channel=2 note=68 velocity=95 time=0
EXTRACT: note_on channel=2 note=64 velocity=95 time=0
EXTRACT: note_on channel=4 note=59 velocity=95 time=0
EXTRACT: note_off channel=13 note=38 velocity=95 time=0
EXTRACT: note_on channel=13 note=37 velocity=95 time=0
EXTRACT: note_off channel=9 note=61 velocity=95 time=0
EXTRACT: note_on channel=9 note=60 velocity=95 time=0
EXTRACT: note_off channel=9 note=51 velocity=95 time=0
EXTRACT: note_off channel=9 note=38 velocity=95 time=0
EXTRACT: note_off channel=9 note=35 velocity=95 time=0
EXTRACT: note_on channel=9 note=51 velocity=95 time=0
EXTRACT: note_off channel=2 note=71 velocity=95 time=0.24
EXTRACT: note_off channel=2 note=68 velocity=95 time=0
EXTRACT: note_off channel=2 note=64 velocity=95 time=0
EXTRACT: note_off channel=4 note=59 velocity=95 time=0
EXTRACT: note_off channel=13 note=37 velocity=95 time=0
EXTRACT: note_off channel=9 note=60 velocity=95 time=0
EXTRACT: note_on channel=9 note=60 velocity=95 time=0
EXTRACT: note_off channel=9 note=51 velocity=95 time=0
EXTRACT: note_on channel=9 note=51 velocity=95 time=0
EXTRACT: note_on channel=9 note=35 velocity=95 time=0
EXTRACT: note_on channel=2 note=69 velocity=95 time=0.24
EXTRACT: note_on channel=2 note=66 velocity=95 time=0
EXTRACT: note_on channel=2 note=62 velocity=95 time=0
EXTRACT: note_on channel=4 note=57 velocity=95 time=0
EXTRACT: note_on channel=13 note=35 velocity=95 time=0
EXTRACT: note_off channel=9 note=60 velocity=95 time=0
EXTRACT: note_on channel=9 note=60 velocity=95 time=0
EXTRACT: note_off channel=9 note=51 velocity=95 time=0
EXTRACT: note_off channel=9 note=35 velocity=95 time=0
EXTRACT: note_on channel=9 note=51 velocity=95 time=0
EXTRACT: note_on channel=0 note=57 velocity=95 time=0.24
EXTRACT: note_off channel=4 note=57 velocity=95 time=0
EXTRACT: note_off channel=13 note=35 velocity=95 time=0
EXTRACT: note_off channel=9 note=60 velocity=95 time=0
EXTRACT: note_on channel=9 note=60 velocity=95 time=0
EXTRACT: note_off channel=9 note=51 velocity=95 time=0
EXTRACT: note_on channel=9 note=51 velocity=95 time=0
EXTRACT: note_on channel=9 note=38 velocity=95 time=0
EXTRACT: note_on channel=9 note=35 velocity=95 time=0
EXTRACT: note_off channel=0 note=57 velocity=95 time=0.24
EXTRACT: note_on channel=0 note=59 velocity=95 time=0
EXTRACT: note_off channel=2 note=69 velocity=95 time=0
EXTRACT: note_off channel=2 note=66 velocity=95 time=0
EXTRACT: note_off channel=2 note=62 velocity=95 time=0
EXTRACT: note_on channel=2 note=71 velocity=95 time=0
EXTRACT: note_on channel=2 note=68 velocity=95 time=0
EXTRACT: note_on channel=2 note=65 velocity=95 time=0
EXTRACT: note_on channel=4 note=59 velocity=95 time=0
EXTRACT: note_on channel=13 note=36 velocity=95 time=0
EXTRACT: note_off channel=9 note=60 velocity=95 time=0
EXTRACT: note_on channel=9 note=61 velocity=95 time=0
EXTRACT: note_off channel=9 note=51 velocity=95 time=0
EXTRACT: note_off channel=9 note=38 velocity=95 time=0
EXTRACT: note_off channel=9 note=35 velocity=95 time=0
EXTRACT: note_on channel=9 note=51 velocity=95 time=0
EXTRACT: note_off channel=0 note=59 velocity=95 time=0.24
EXTRACT: note_on channel=0 note=61 velocity=95 time=0
EXTRACT: note_off channel=4 note=59 velocity=95 time=0
EXTRACT: note_off channel=8 note=66 velocity=95 time=0
EXTRACT: note_on channel=8 note=73 velocity=95 time=0
EXTRACT: note_on channel=10 note=83 velocity=95 time=0
EXTRACT: note_on channel=10 note=80 velocity=95 time=0
EXTRACT: note_off channel=13 note=36 velocity=95 time=0
EXTRACT: note_on channel=13 note=37 velocity=95 time=0
EXTRACT: note_off channel=9 note=61 velocity=95 time=0
EXTRACT: note_on channel=9 note=60 velocity=95 time=0
EXTRACT: note_off channel=9 note=51 velocity=95 time=0
EXTRACT: note_on channel=9 note=51 velocity=95 time=0
EXTRACT: note_on channel=9 note=35 velocity=95 time=0
EXTRACT: note_off channel=0 note=61 velocity=95 time=0.24
EXTRACT: note_on channel=0 note=64 velocity=95 time=0
EXTRACT: note_on channel=4 note=59 velocity=95 time=0
EXTRACT: note_off channel=8 note=73 velocity=95 time=0
EXTRACT: note_on channel=8 note=74 velocity=95 time=0
EXTRACT: note_off channel=13 note=37 velocity=95 time=0
EXTRACT: note_on channel=13 note=40 velocity=95 time=0
EXTRACT: note_off channel=9 note=60 velocity=95 time=0
EXTRACT: note_on channel=9 note=60 velocity=95 time=0
EXTRACT: note_off channel=9 note=51 velocity=95 time=0
EXTRACT: note_off channel=9 note=35 velocity=95 time=0
EXTRACT: note_on channel=9 note=51 velocity=95 time=0
EXTRACT: note_off channel=0 note=64 velocity=95 time=0.24
EXTRACT: note_on channel=0 note=66 velocity=95 time=0
EXTRACT: note_off channel=4 note=59 velocity=95 time=0
EXTRACT: note_off channel=8 note=74 velocity=95 time=0
EXTRACT: note_on channel=8 note=73 velocity=95 time=0
EXTRACT: note_off channel=13 note=40 velocity=95 time=0
EXTRACT: note_on channel=13 note=41 velocity=95 time=0
EXTRACT: note_off channel=9 note=60 velocity=95 time=0
EXTRACT: note_on channel=9 note=61 velocity=95 time=0
EXTRACT: note_off channel=9 note=51 velocity=95 time=0
EXTRACT: note_on channel=9 note=51 velocity=95 time=0
EXTRACT: note_on channel=9 note=38 velocity=95 time=0
EXTRACT: note_on channel=9 note=35 velocity=95 time=0
EXTRACT: note_off channel=0 note=66 velocity=95 time=0.24
EXTRACT: note_on channel=0 note=59 velocity=95 time=0
EXTRACT: note_off channel=2 note=71 velocity=95 time=0
EXTRACT: note_off channel=2 note=68 velocity=95 time=0
EXTRACT: note_off channel=2 note=65 velocity=95 time=0
EXTRACT: note_on channel=2 note=69 velocity=95 time=0
EXTRACT: note_on channel=2 note=64 velocity=95 time=0
EXTRACT: note_on channel=2 note=61 velocity=95 time=0
EXTRACT: note_on channel=4 note=56 velocity=95 time=0
EXTRACT: note_off channel=8 note=73 velocity=95 time=0
EXTRACT: note_on channel=8 note=71 velocity=95 time=0
EXTRACT: note_off channel=10 note=83 velocity=95 time=0
EXTRACT: note_off channel=10 note=80 velocity=95 time=0
EXTRACT: note_on channel=10 note=85 velocity=95 time=0
EXTRACT: note_on channel=10 note=81 velocity=95 time=0
EXTRACT: note_off channel=13 note=41 velocity=95 time=0
EXTRACT: note_off channel=9 note=61 velocity=95 time=0
EXTRACT: note_on channel=9 note=60 velocity=95 time=0
EXTRACT: note_off channel=9 note=51 velocity=95 time=0
EXTRACT: note_off channel=9 note=38 velocity=95 time=0
EXTRACT: note_off channel=9 note=35 velocity=95 time=0
EXTRACT: note_on channel=9 note=51 velocity=95 time=0
EXTRACT: note_off channel=0 note=59 velocity=95 time=0.24
EXTRACT: note_on channel=0 note=57 velocity=70 time=0
EXTRACT: note_off channel=8 note=71 velocity=95 time=0
EXTRACT: note_on channel=8 note=69 velocity=95 time=0
EXTRACT: note_on channel=13 note=42 velocity=95 time=0
EXTRACT: note_off channel=9 note=60 velocity=95 time=0
EXTRACT: note_on channel=9 note=60 velocity=95 time=0
EXTRACT: note_off channel=9 note=51 velocity=95 time=0
EXTRACT: note_on channel=9 note=51 velocity=95 time=0
EXTRACT: note_on channel=9 note=35 velocity=95 time=0
EXTRACT: note_off channel=4 note=56 velocity=95 time=0.24
EXTRACT: note_on channel=4 note=57 velocity=95 time=0
EXTRACT: note_off channel=13 note=42 velocity=95 time=0
EXTRACT: note_off channel=9 note=60 velocity=95 time=0
EXTRACT: note_on channel=9 note=60 velocity=95 time=0
EXTRACT: note_off channel=9 note=51 velocity=95 time=0
EXTRACT: note_off channel=9 note=35 velocity=95 time=0
EXTRACT: note_on channel=9 note=51 velocity=95 time=0
EXTRACT: note_off channel=0 note=57 velocity=70 time=0.24
EXTRACT: note_on channel=0 note=57 velocity=95 time=0
EXTRACT: note_off channel=4 note=57 velocity=95 time=0
EXTRACT: note_off channel=8 note=69 velocity=95 time=0
EXTRACT: note_on channel=8 note=66 velocity=95 time=0
EXTRACT: note_off channel=10 note=85 velocity=95 time=0
EXTRACT: note_off channel=10 note=81 velocity=95 time=0
EXTRACT: note_on channel=13 note=37 velocity=95 time=0
EXTRACT: note_off channel=9 note=60 velocity=95 time=0
EXTRACT: note_on channel=9 note=60 velocity=95 time=0
EXTRACT: note_off channel=9 note=51 velocity=95 time=0
EXTRACT: note_on channel=9 note=51 velocity=95 time=0
EXTRACT: note_on channel=9 note=38 velocity=95 time=0
EXTRACT: note_on channel=9 note=35 velocity=95 time=0
EXTRACT: note_off channel=0 note=57 velocity=95 time=0.24
EXTRACT: note_on channel=0 note=59 velocity=95 time=0
EXTRACT: note_off channel=8 note=66 velocity=95 time=0
EXTRACT: note_on channel=8 note=71 velocity=95 time=0
EXTRACT: note_on channel=11 note=57 velocity=95 time=0
EXTRACT: note_off channel=13 note=37 velocity=95 time=0
EXTRACT: note_on channel=13 note=35 velocity=95 time=0
EXTRACT: note_off channel=9 note=60 velocity=95 time=0
EXTRACT: note_on channel=9 note=61 velocity=95 time=0
EXTRACT: note_off channel=9 note=51 velocity=95 time=0
EXTRACT: note_off channel=9 note=38 velocity=95 time=0
EXTRACT: note_off channel=9 note=35 velocity=95 time=0
EXTRACT: note_on channel=9 note=51 velocity=95 time=0
EXTRACT: note_off channel=11 note=57 velocity=95 time=0.12
EXTRACT: note_on channel=11 note=57 velocity=95 time=0
EXTRACT: note_off channel=0 note=59 velocity=95 time=0.12
EXTRACT: note_on channel=0 note=57 velocity=70 time=0
EXTRACT: note_off channel=2 note=69 velocity=95 time=0
EXTRACT: note_off channel=2 note=64 velocity=95 time=0
EXTRACT: note_off channel=2 note=61 velocity=95 time=0
EXTRACT: note_on channel=2 note=69 velocity=95 time=0
EXTRACT: note_on channel=2 note=67 velocity=95 time=0
EXTRACT: note_on channel=2 note=62 velocity=95 time=0
EXTRACT: note_on channel=2 note=59 velocity=95 time=0
EXTRACT: note_on channel=4 note=69 velocity=95 time=0
EXTRACT: note_on channel=4 note=64 velocity=95 time=0
EXTRACT: note_on channel=4 note=62 velocity=95 time=0
EXTRACT: note_on channel=4 note=55 velocity=95 time=0
EXTRACT: note_off channel=11 note=57 velocity=95 time=0
EXTRACT: note_on channel=10 note=69 velocity=95 time=0
EXTRACT: note_off channel=13 note=35 velocity=95 time=0
EXTRACT: note_on channel=13 note=33 velocity=95 time=0
EXTRACT: note_off channel=9 note=61 velocity=95 time=0
EXTRACT: note_on channel=9 note=60 velocity=95 time=0
EXTRACT: note_off channel=9 note=51 velocity=95 time=0
EXTRACT: note_on channel=9 note=51 velocity=95 time=0
EXTRACT: note_on channel=9 note=35 velocity=95 time=0
EXTRACT: note_off channel=10 note=69 velocity=95 time=0.12
EXTRACT: note_on channel=10 note=69 velocity=95 time=0
EXTRACT: note_off channel=13 note=33 velocity=95 time=0
EXTRACT: note_off channel=8 note=71 velocity=95 time=0.12
EXTRACT: note_on channel=8 note=69 velocity=95 time=0
EXTRACT: note_off channel=10 note=69 velocity=95 time=0
EXTRACT: note_on channel=10 note=73 velocity=95 time=0
EXTRACT: note_on channel=13 note=33 velocity=95 time=0
EXTRACT: note_off channel=9 note=60 velocity=95 time=0
EXTRACT: note_on channel=9 note=60 velocity=95 time=0
EXTRACT: note_off channel=9 note=51 velocity=95 time=0
EXTRACT: note_off channel=9 note=35 velocity=95 time=0
EXTRACT: note_on channel=9 note=51 velocity=95 time=0
EXTRACT: note_off channel=10 note=73 velocity=95 time=0.12
EXTRACT: note_on channel=10 note=73 velocity=95 time=0
EXTRACT: note_off channel=4 note=69 velocity=95 time=0.12
EXTRACT: note_off channel=4 note=64 velocity=95 time=0
EXTRACT: note_off channel=4 note=62 velocity=95 time=0
EXTRACT: note_off channel=4 note=55 velocity=95 time=0
EXTRACT: note_on channel=4 note=69 velocity=95 time=0
EXTRACT: note_on channel=4 note=64 velocity=95 time=0
EXTRACT: note_on channel=4 note=62 velocity=95 time=0
EXTRACT: note_on channel=4 note=55 velocity=95 time=0
EXTRACT: note_off channel=10 note=73 velocity=95 time=0
EXTRACT: note_on channel=10 note=76 velocity=95 time=0
EXTRACT: note_off channel=13 note=33 velocity=95 time=0
EXTRACT: note_on channel=13 note=55 velocity=95 time=0
EXTRACT: note_off channel=9 note=60 velocity=95 time=0
EXTRACT: note_on channel=9 note=61 velocity=95 time=0
EXTRACT: note_off channel=9 note=51 velocity=95 time=0
EXTRACT: note_on channel=9 note=51 velocity=95 time=0
EXTRACT: note_on channel=9 note=38 velocity=95 time=0
EXTRACT: note_on channel=9 note=35 velocity=95 time=0
EXTRACT: note_off channel=10 note=76 velocity=95 time=0.12
EXTRACT: note_on channel=10 note=76 velocity=95 time=0
EXTRACT: note_off channel=10 note=76 velocity=95 time=0.12
EXTRACT: note_on channel=10 note=78 velocity=95 time=0
EXTRACT: note_off channel=13 note=55 velocity=95 time=0
EXTRACT: note_on channel=13 note=57 velocity=95 time=0
EXTRACT: note_off channel=9 note=61 velocity=95 time=0
EXTRACT: note_on channel=9 note=60 velocity=95 time=0
EXTRACT: note_off channel=9 note=51 velocity=95 time=0
EXTRACT: note_off channel=9 note=38 velocity=95 time=0
EXTRACT: note_off channel=9 note=35 velocity=95 time=0
EXTRACT: note_on channel=9 note=51 velocity=95 time=0
EXTRACT: note_off channel=10 note=78 velocity=95 time=0.12
EXTRACT: note_on channel=10 note=76 velocity=95 time=0
EXTRACT: note_off channel=0 note=57 velocity=70 time=0.12
EXTRACT: note_on channel=0 note=57 velocity=95 time=0
EXTRACT: note_off channel=10 note=76 velocity=95 time=0
EXTRACT: note_on channel=10 note=81 velocity=95 time=0
EXTRACT: note_off channel=13 note=57 velocity=95 time=0
EXTRACT: note_on channel=13 note=33 velocity=95 time=0
EXTRACT: note_off channel=9 note=60 velocity=95 time=0
EXTRACT: note_on channel=9 note=60 velocity=95 time=0
EXTRACT: note_off channel=9 note=51 velocity=95 time=0
EXTRACT: note_on channel=9 note=51 velocity=95 time=0
EXTRACT: note_on channel=9 note=35 velocity=95 time=0
EXTRACT: note_off channel=10 note=81 velocity=95 time=0.12
EXTRACT: note_on channel=10 note=81 velocity=95 time=0
EXTRACT: note_off channel=13 note=33 velocity=95 time=0
EXTRACT: note_off channel=0 note=57 velocity=95 time=0.12
EXTRACT: note_on channel=0 note=54 velocity=70 time=0
EXTRACT: note_off channel=4 note=69 velocity=95 time=0
EXTRACT: note_off channel=4 note=64 velocity=95 time=0
EXTRACT: note_off channel=4 note=62 velocity=95 time=0
EXTRACT: note_off channel=4 note=55 velocity=95 time=0
EXTRACT: note_on channel=4 note=69 velocity=95 time=0
EXTRACT: note_on channel=4 note=66 velocity=95 time=0
EXTRACT: note_on channel=4 note=62 velocity=95 time=0
EXTRACT: note_on channel=4 note=55 velocity=95 time=0
EXTRACT: note_off channel=10 note=81 velocity=95 time=0
EXTRACT: note_on channel=10 note=78 velocity=95 time=0
EXTRACT: note_on channel=13 note=33 velocity=95 time=0
EXTRACT: note_off channel=9 note=60 velocity=95 time=0
EXTRACT: note_on channel=9 note=60 velocity=95 time=0
EXTRACT: note_off channel=9 note=51 velocity=95 time=0
EXTRACT: note_off channel=9 note=35 velocity=95 time=0
EXTRACT: note_on channel=9 note=51 velocity=95 time=0
EXTRACT: note_off channel=10 note=78 velocity=95 time=0.12
EXTRACT: note_on channel=10 note=76 velocity=95 time=0
EXTRACT: note_off channel=0 note=54 velocity=70 time=0.12
EXTRACT: note_on channel=1 note=54 velocity=95 time=0
EXTRACT: note_off channel=10 note=76 velocity=95 time=0
EXTRACT: note_on channel=10 note=76 velocity=95 time=0
EXTRACT: note_off channel=13 note=33 velocity=95 time=0
EXTRACT: note_on channel=13 note=55 velocity=95 time=0
EXTRACT: note_off channel=9 note=60 velocity=95 time=0
EXTRACT: note_on channel=9 note=60 velocity=95 time=0
EXTRACT: note_off channel=9 note=51 velocity=95 time=0
EXTRACT: note_on channel=9 note=51 velocity=95 time=0
EXTRACT: note_on channel=9 note=38 velocity=95 time=0
EXTRACT: note_on channel=9 note=35 velocity=95 time=0
EXTRACT: note_off channel=4 note=69 velocity=95 time=0.12
EXTRACT: note_off channel=4 note=66 velocity=95 time=0
EXTRACT: note_off channel=4 note=62 velocity=95 time=0
EXTRACT: note_off channel=4 note=55 velocity=95 time=0
EXTRACT: note_on channel=4 note=69 velocity=95 time=0
EXTRACT: note_on channel=4 note=67 velocity=95 time=0
EXTRACT: note_on channel=4 note=62 velocity=95 time=0
EXTRACT: note_on channel=4 note=55 velocity=95 time=0
EXTRACT: note_off channel=10 note=76 velocity=95 time=0
EXTRACT: note_on channel=10 note=76 velocity=95 time=0
EXTRACT: note_off channel=10 note=76 velocity=95 time=0.12
EXTRACT: note_on channel=10 note=78 velocity=95 time=0
EXTRACT: note_off channel=13 note=55 velocity=95 time=0
EXTRACT: note_on channel=13 note=57 velocity=95 time=0
EXTRACT: note_off channel=9 note=60 velocity=95 time=0
EXTRACT: note_on channel=9 note=61 velocity=95 time=0
EXTRACT: note_off channel=9 note=51 velocity=95 time=0
EXTRACT: note_off channel=9 note=38 velocity=95 time=0
EXTRACT: note_off channel=9 note=35 velocity=95 time=0
EXTRACT: note_on channel=9 note=51 velocity=95 time=0
EXTRACT: note_off channel=10 note=78 velocity=95 time=0.12
EXTRACT: note_on channel=10 note=76 velocity=95 time=0
EXTRACT: note_off channel=1 note=54 velocity=95 time=0.12
EXTRACT: note_off channel=2 note=69 velocity=95 time=0
EXTRACT: note_off channel=2 note=67 velocity=95 time=0
EXTRACT: note_off channel=2 note=62 velocity=95 time=0
EXTRACT: note_off channel=2 note=59 velocity=95 time=0
EXTRACT: note_on channel=2 note=69 velocity=95 time=0
EXTRACT: note_on channel=2 note=67 velocity=95 time=0
EXTRACT: note_on channel=2 note=62 velocity=95 time=0
EXTRACT: note_on channel=2 note=59 velocity=95 time=0
EXTRACT: note_off channel=4 note=69 velocity=95 time=0
EXTRACT: note_off channel=4 note=67 velocity=95 time=0
EXTRACT: note_off channel=4 note=62 velocity=95 time=0
EXTRACT: note_off channel=4 note=55 velocity=95 time=0
EXTRACT: note_on channel=4 note=69 velocity=95 time=0
EXTRACT: note_on channel=4 note=64 velocity=95 time=0
EXTRACT: note_on channel=4 note=62 velocity=95 time=0
EXTRACT: note_on channel=4 note=55 velocity=95 time=0
EXTRACT: note_off channel=10 note=76 velocity=95 time=0
EXTRACT: note_on channel=10 note=81 velocity=95 time=0
EXTRACT: note_off channel=13 note=57 velocity=95 time=0
EXTRACT: note_on channel=13 note=33 velocity=95 time=0
EXTRACT: note_off channel=9 note=61 velocity=95 time=0
EXTRACT: note_on channel=9 note=60 velocity=95 time=0
EXTRACT: note_off channel=9 note=51 velocity=95 time=0
EXTRACT: note_on channel=9 note=51 velocity=95 time=0
EXTRACT: note_on channel=9 note=35 velocity=95 time=0
EXTRACT: note_off channel=10 note=81 velocity=95 time=0.12
EXTRACT: note_on channel=10 note=81 velocity=95 time=0
EXTRACT: note_off channel=13 note=33 velocity=95 time=0
EXTRACT: pitchwheel channel=1 pitch=0 time=0.12
EXTRACT: note_on channel=1 note=64 velocity=79 time=0
EXTRACT: note_off channel=10 note=81 velocity=95 time=0
EXTRACT: note_on channel=10 note=78 velocity=95 time=0
EXTRACT: note_on channel=13 note=33 velocity=95 time=0
EXTRACT: note_off channel=9 note=60 velocity=95 time=0
EXTRACT: note_on channel=9 note=60 velocity=95 time=0
EXTRACT: note_off channel=9 note=51 velocity=95 time=0
EXTRACT: note_off channel=9 note=35 velocity=95 time=0
EXTRACT: note_on channel=9 note=51 velocity=95 time=0
EXTRACT: pitchwheel channel=1 pitch=128 time=0.0085
EXTRACT: pitchwheel channel=1 pitch=256 time=0.0085
EXTRACT: pitchwheel channel=1 pitch=384 time=0.0085
EXTRACT: pitchwheel channel=1 pitch=512 time=0.0085
EXTRACT: pitchwheel channel=1 pitch=640 time=0.0085
EXTRACT: pitchwheel channel=1 pitch=768 time=0.0085
EXTRACT: pitchwheel channel=1 pitch=896 time=0.0085
EXTRACT: pitchwheel channel=1 pitch=1024 time=0.0085
EXTRACT: pitchwheel channel=1 pitch=1152 time=0.0085
EXTRACT: pitchwheel channel=1 pitch=1280 time=0.0085
EXTRACT: pitchwheel channel=1 pitch=1408 time=0.0085
EXTRACT: pitchwheel channel=1 pitch=1536 time=0.0085
EXTRACT: pitchwheel channel=1 pitch=1664 time=0.0085
EXTRACT: pitchwheel channel=1 pitch=1792 time=0.0085
EXTRACT: note_off channel=10 note=78 velocity=95 time=0.001
EXTRACT: note_on channel=10 note=76 velocity=95 time=0
EXTRACT: pitchwheel channel=1 pitch=1920 time=0.0075
EXTRACT: pitchwheel channel=1 pitch=2048 time=0.0085
EXTRACT: pitchwheel channel=1 pitch=2176 time=0.0085
EXTRACT: pitchwheel channel=1 pitch=2304 time=0.0085
EXTRACT: pitchwheel channel=1 pitch=2432 time=0.0085
EXTRACT: pitchwheel channel=1 pitch=2560 time=0.0085
EXTRACT: pitchwheel channel=1 pitch=2688 time=0.0085
EXTRACT: pitchwheel channel=1 pitch=2816 time=0.0085
EXTRACT: pitchwheel channel=1 pitch=2944 time=0.0085
EXTRACT: pitchwheel channel=1 pitch=3072 time=0.0085
EXTRACT: pitchwheel channel=1 pitch=3200 time=0.0085
EXTRACT: pitchwheel channel=1 pitch=3328 time=0.0085
EXTRACT: pitchwheel channel=1 pitch=3456 time=0.0085
EXTRACT: pitchwheel channel=1 pitch=3456 time=0.0105
EXTRACT: note_off channel=4 note=69 velocity=95 time=0
EXTRACT: note_off channel=4 note=64 velocity=95 time=0
EXTRACT: note_off channel=4 note=62 velocity=95 time=0
EXTRACT: note_off channel=4 note=55 velocity=95 time=0
EXTRACT: note_on channel=4 note=69 velocity=95 time=0
EXTRACT: note_on channel=4 note=64 velocity=95 time=0
EXTRACT: note_on channel=4 note=62 velocity=95 time=0
EXTRACT: note_on channel=4 note=55 velocity=95 time=0
EXTRACT: note_off channel=10 note=76 velocity=95 time=0
EXTRACT: note_on channel=10 note=81 velocity=95 time=0
EXTRACT: note_off channel=13 note=33 velocity=95 time=0
EXTRACT: note_on channel=13 note=55 velocity=95 time=0
EXTRACT: note_off channel=9 note=60 velocity=95 time=0
EXTRACT: note_on channel=9 note=61 velocity=95 time=0
EXTRACT: note_off channel=9 note=51 velocity=95 time=0
EXTRACT: note_on channel=9 note=51 velocity=95 time=0
EXTRACT: note_on channel=9 note=38 velocity=95 time=0
EXTRACT: note_on channel=9 note=35 velocity=95 time=0
EXTRACT: note_off channel=10 note=81 velocity=95 time=0.12
EXTRACT: note_on channel=10 note=81 velocity=95 time=0
EXTRACT: pitchwheel channel=1 pitch=3456 time=0.12
EXTRACT: pitchwheel channel=1 pitch=0 time=0
EXTRACT: note_off channel=1 note=64 velocity=79 time=0
EXTRACT: pitchwheel channel=1 pitch=0 time=0
EXTRACT: note_on channel=1 note=69 velocity=79 time=0
EXTRACT: note_off channel=10 note=81 velocity=95 time=0
EXTRACT: note_on channel=10 note=78 velocity=95 time=0
EXTRACT: note_off channel=13 note=55 velocity=95 time=0
EXTRACT: note_on channel=13 note=57 velocity=95 time=0
EXTRACT: note_off channel=9 note=61 velocity=95 time=0
EXTRACT: note_on channel=9 note=60 velocity=95 time=0
EXTRACT: note_off channel=9 note=51 velocity=95 time=0
EXTRACT: note_off channel=9 note=38 velocity=95 time=0
EXTRACT: note_off channel=9 note=35 velocity=95 time=0
EXTRACT: note_on channel=9 note=51 velocity=95 time=0
EXTRACT: pitchwheel channel=1 pitch=128 time=0.021500000000000002
EXTRACT: pitchwheel channel=1 pitch=256 time=0.021500000000000002
EXTRACT: pitchwheel channel=1 pitch=384 time=0.021500000000000002
EXTRACT: pitchwheel channel=1 pitch=512 time=0.021500000000000002
EXTRACT: pitchwheel channel=1 pitch=640 time=0.021500000000000002
EXTRACT: note_off channel=10 note=78 velocity=95 time=0.0125
EXTRACT: note_on channel=10 note=76 velocity=95 time=0
EXTRACT: pitchwheel channel=1 pitch=768 time=0.009000000000000001
EXTRACT: pitchwheel channel=1 pitch=896 time=0.021500000000000002
EXTRACT: pitchwheel channel=1 pitch=1024 time=0.021500000000000002
EXTRACT: pitchwheel channel=1 pitch=1152 time=0.021500000000000002
EXTRACT: pitchwheel channel=1 pitch=1280 time=0.021500000000000002
EXTRACT: pitchwheel channel=1 pitch=1408 time=0.021500000000000002
EXTRACT: pitchwheel channel=1 pitch=1408 time=0.0035
EXTRACT: note_off channel=10 note=76 velocity=95 time=0
EXTRACT: note_on channel=10 note=81 velocity=95 time=0
EXTRACT: note_off channel=13 note=57 velocity=95 time=0
EXTRACT: note_on channel=13 note=33 velocity=95 time=0
EXTRACT: note_off channel=9 note=60 velocity=95 time=0
EXTRACT: note_on channel=9 note=60 velocity=95 time=0
EXTRACT: note_off channel=9 note=51 velocity=95 time=0
EXTRACT: note_on channel=9 note=51 velocity=95 time=0
EXTRACT: note_on channel=9 note=35 velocity=95 time=0
EXTRACT: note_off channel=10 note=81 velocity=95 time=0.12
EXTRACT: note_on channel=10 note=81 velocity=95 time=0
EXTRACT: pitchwheel channel=1 pitch=1408 time=0.12
EXTRACT: pitchwheel channel=1 pitch=0 time=0
EXTRACT: note_off channel=1 note=69 velocity=79 time=0
EXTRACT: pitchwheel channel=1 pitch=1408 time=0
EXTRACT: note_on channel=1 note=69 velocity=79 time=0
EXTRACT: note_off channel=10 note=81 velocity=95 time=0
EXTRACT: note_on channel=10 note=78 velocity=95 time=0
EXTRACT: note_off channel=13 note=33 velocity=95 time=0
EXTRACT: note_off channel=9 note=60 velocity=95 time=0
EXTRACT: note_on channel=9 note=60 velocity=95 time=0
EXTRACT: note_off channel=10 note=78 velocity=95 time=0.12
EXTRACT: note_on channel=10 note=76 velocity=95 time=0
EXTRACT: note_off channel=9 note=51 velocity=95 time=0
EXTRACT: note_off channel=9 note=35 velocity=95 time=0
EXTRACT: note_on channel=9 note=38 velocity=95 time=0
EXTRACT: pitchwheel channel=1 pitch=1408 time=0.04
EXTRACT: pitchwheel channel=1 pitch=1280 time=0.0145
EXTRACT: pitchwheel channel=1 pitch=1152 time=0.0145
EXTRACT: pitchwheel channel=1 pitch=1024 time=0.0145
EXTRACT: pitchwheel channel=1 pitch=896 time=0.0145
EXTRACT: pitchwheel channel=1 pitch=768 time=0.0145
EXTRACT: note_off channel=4 note=69 velocity=95 time=0.0075
EXTRACT: note_off channel=4 note=64 velocity=95 time=0
EXTRACT: note_off channel=4 note=62 velocity=95 time=0
EXTRACT: note_off channel=4 note=55 velocity=95 time=0
EXTRACT: note_on channel=4 note=69 velocity=95 time=0
EXTRACT: note_on channel=4 note=64 velocity=95 time=0
EXTRACT: note_on channel=4 note=61 velocity=95 time=0
EXTRACT: note_on channel=4 note=57 velocity=95 time=0
EXTRACT: note_off channel=10 note=76 velocity=95 time=0
EXTRACT: note_on channel=10 note=81 velocity=95 time=0
EXTRACT: note_on channel=13 note=35 velocity=95 time=0
EXTRACT: note_off channel=9 note=60 velocity=95 time=0
EXTRACT: note_on channel=9 note=60 velocity=95 time=0
EXTRACT: note_off channel=9 note=38 velocity=95 time=0
EXTRACT: note_on channel=9 note=38 velocity=95 time=0
EXTRACT: note_on channel=9 note=35 velocity=95 time=0
EXTRACT: pitchwheel channel=1 pitch=640 time=0.007
EXTRACT: pitchwheel channel=1 pitch=512 time=0.0145
EXTRACT: pitchwheel channel=1 pitch=384 time=0.0145
EXTRACT: pitchwheel channel=1 pitch=256 time=0.0145
EXTRACT: pitchwheel channel=1 pitch=128 time=0.0145
EXTRACT: pitchwheel channel=1 pitch=0 time=0.0145
EXTRACT: pitchwheel channel=1 pitch=0 time=0.0005
EXTRACT: note_off channel=10 note=81 velocity=95 time=0.04
EXTRACT: note_on channel=10 note=81 velocity=95 time=0
EXTRACT: pitchwheel channel=1 pitch=0 time=0.12
EXTRACT: pitchwheel channel=1 pitch=0 time=0
EXTRACT: note_off channel=1 note=69 velocity=79 time=0
EXTRACT: note_off channel=10 note=81 velocity=95 time=0
EXTRACT: note_on channel=10 note=78 velocity=95 time=0
EXTRACT: note_off channel=13 note=35 velocity=95 time=0
EXTRACT: note_off channel=9 note=60 velocity=95 time=0
EXTRACT: note_on channel=9 note=61 velocity=95 time=0
EXTRACT: note_off channel=9 note=38 velocity=95 time=0
EXTRACT: note_off channel=9 note=35 velocity=95 time=0
EXTRACT: note_on channel=9 note=48 velocity=95 time=0
EXTRACT: note_off channel=10 note=78 velocity=95 time=0.12
EXTRACT: note_on channel=10 note=76 velocity=95 time=0
EXTRACT: note_on channel=0 note=73 velocity=95 time=0.12
EXTRACT: note_on channel=15 note=73 velocity=95 time=0
EXTRACT: note_off channel=2 note=69 velocity=95 time=0
EXTRACT: note_off channel=2 note=67 velocity=95 time=0
EXTRACT: note_off channel=2 note=62 velocity=95 time=0
EXTRACT: note_off channel=2 note=59 velocity=95 time=0
EXTRACT: note_on channel=2 note=69 velocity=95 time=0
EXTRACT: note_on channel=2 note=66 velocity=95 time=0
EXTRACT: note_on channel=2 note=62 velocity=95 time=0
EXTRACT: note_off channel=4 note=69 velocity=95 time=0
EXTRACT: note_off channel=4 note=64 velocity=95 time=0
EXTRACT: note_off channel=4 note=61 velocity=95 time=0
EXTRACT: note_off channel=4 note=57 velocity=95 time=0
EXTRACT: note_off channel=8 note=69 velocity=95 time=0
EXTRACT: note_on channel=8 note=69 velocity=95 time=0
EXTRACT: note_off channel=10 note=76 velocity=95 time=0
EXTRACT: note_on channel=13 note=35 velocity=95 time=0
EXTRACT: note_off channel=9 note=61 velocity=95 time=0
EXTRACT: note_on channel=9 note=60 velocity=95 time=0
EXTRACT: note_off channel=9 note=48 velocity=95 time=0
EXTRACT: note_on channel=9 note=57 velocity=95 time=0
EXTRACT: note_on channel=9 note=35 velocity=95 time=0
EXTRACT: note_on channel=4 note=61 velocity=95 time=0.24
EXTRACT: note_on channel=11 note=69 velocity=95 time=0
EXTRACT: note_off channel=9 note=60 velocity=95 time=0
EXTRACT: note_on channel=9 note=60 velocity=95 time=0
EXTRACT: note_off channel=9 note=57 velocity=95 time=0
EXTRACT: note_off channel=9 note=35 velocity=95 time=0
EXTRACT: note_on channel=9 note=51 velocity=95 time=0
EXTRACT: note_off channel=0 note=73 velocity=95 time=0.24
EXTRACT: note_on channel=0 note=74 velocity=95 time=0
EXTRACT: note_off channel=15 note=73 velocity=95 time=0
EXTRACT: note_on channel=15 note=74 velocity=95 time=0
EXTRACT: note_off channel=4 note=61 velocity=95 time=0
EXTRACT: note_off channel=11 note=69 velocity=95 time=0
EXTRACT: note_off channel=13 note=35 velocity=95 time=0
EXTRACT: note_on channel=13 note=42 velocity=95 time=0
EXTRACT: note_off channel=9 note=60 velocity=95 time=0
EXTRACT: note_on channel=9 note=61 velocity=95 time=0
EXTRACT: note_off channel=9 note=51 velocity=95 time=0
EXTRACT: note_on channel=9 note=51 velocity=95 time=0
EXTRACT: note_on channel=9 note=38 velocity=95 time=0
EXTRACT: note_on channel=9 note=35 velocity=95 time=0
EXTRACT: note_off channel=0 note=74 velocity=95 time=0.24
EXTRACT: note_on channel=0 note=73 velocity=95 time=0
EXTRACT: note_off channel=15 note=74 velocity=95 time=0
EXTRACT: note_on channel=15 note=73 velocity=95 time=0
EXTRACT: note_off channel=2 note=69 velocity=95 time=0
EXTRACT: note_off channel=2 note=66 velocity=95 time=0
EXTRACT: note_off channel=2 note=62 velocity=95 time=0
EXTRACT: note_on channel=2 note=68 velocity=95 time=0
EXTRACT: note_on channel=2 note=62 velocity=95 time=0
EXTRACT: note_on channel=2 note=59 velocity=95 time=0
EXTRACT: note_on channel=4 note=59 velocity=95 time=0
EXTRACT: note_off channel=8 note=69 velocity=95 time=0
EXTRACT: note_on channel=8 note=68 velocity=95 time=0
EXTRACT: note_off channel=13 note=42 velocity=95 time=0
EXTRACT: note_on channel=13 note=40 velocity=95 time=0
EXTRACT: note_off channel=9 note=61 velocity=95 time=0
EXTRACT: note_on channel=9 note=60 velocity=95 time=0
EXTRACT: note_off channel=9 note=51 velocity=95 time=0
EXTRACT: note_off channel=9 note=38 velocity=95 time=0
EXTRACT: note_off channel=9 note=35 velocity=95 time=0
EXTRACT: note_on channel=9 note=51 velocity=95 time=0
EXTRACT: note_off channel=4 note=59 velocity=95 time=0.24
EXTRACT: note_off channel=13 note=40 velocity=95 time=0
EXTRACT: note_off channel=9 note=60 velocity=95 time=0
EXTRACT: note_on channel=9 note=60 velocity=95 time=0
EXTRACT: note_off channel=9 note=51 velocity=95 time=0
EXTRACT: note_on channel=9 note=51 velocity=95 time=0
EXTRACT: note_on channel=9 note=35 velocity=95 time=0
EXTRACT: note_on channel=4 note=57 velocity=95 time=0.24
EXTRACT: note_on channel=11 note=68 velocity=95 time=0
EXTRACT: note_off channel=9 note=60 velocity=95 time=0
EXTRACT: note_on channel=9 note=60 velocity=95 time=0
EXTRACT: note_off channel=9 note=51 velocity=95 time=0
EXTRACT: note_off channel=9 note=35 velocity=95 time=0
EXTRACT: note_on channel=9 note=51 velocity=95 time=0
EXTRACT: note_off channel=0 note=73 velocity=95 time=0.24
EXTRACT: note_off channel=15 note=73 velocity=95 time=0
EXTRACT: note_off channel=4 note=57 velocity=95 time=0
EXTRACT: note_off channel=11 note=68 velocity=95 time=0
EXTRACT: note_on channel=13 note=35 velocity=95 time=0
EXTRACT: note_off channel=9 note=60 velocity=95 time=0
EXTRACT: note_on channel=9 note=60 velocity=95 time=0
EXTRACT: note_off channel=9 note=51 velocity=95 time=0
EXTRACT: note_on channel=9 note=51 velocity=95 time=0
EXTRACT: note_on channel=9 note=38 velocity=95 time=0
EXTRACT: note_on channel=9 note=35 velocity=95 time=0
EXTRACT: note_on channel=4 note=59 velocity=95 time=0.24
EXTRACT: note_off channel=13 note=35 velocity=95 time=0
EXTRACT: note_on channel=13 note=36 velocity=95 time=0
EXTRACT: note_off channel=9 note=60 velocity=95 time=0
EXTRACT: note_on channel=9 note=61 velocity=95 time=0
EXTRACT: note_off channel=9 note=51 velocity=95 time=0
EXTRACT: note_off channel=9 note=38 velocity=95 time=0
EXTRACT: note_off channel=9 note=35 velocity=95 time=0
EXTRACT: note_on channel=9 note=51 velocity=95 time=0
EXTRACT: note_on channel=0 note=73 velocity=95 time=0.24
EXTRACT: note_on channel=15 note=73 velocity=95 time=0
EXTRACT: note_off channel=2 note=68 velocity=95 time=0
EXTRACT: note_off channel=2 note=62 velocity=95 time=0
EXTRACT: note_off channel=2 note=59 velocity=95 time=0
EXTRACT: note_on channel=2 note=71 velocity=95 time=0
EXTRACT: note_on channel=2 note=68 velocity=95 time=0
EXTRACT: note_on channel=2 note=64 velocity=95 time=0
EXTRACT: note_off channel=4 note=59 velocity=95 time=0
EXTRACT: note_off channel=8 note=68 velocity=95 time=0
EXTRACT: note_on channel=8 note=71 velocity=95 time=0
EXTRACT: note_on channel=11 note=69 velocity=95 time=0
EXTRACT: note_off channel=13 note=36 velocity=95 time=0
EXTRACT: note_on channel=13 note=37 velocity=95 time=0
EXTRACT: note_off channel=9 note=61 velocity=95 time=0
EXTRACT: note_on channel=9 note=60 velocity=95 time=0
EXTRACT: note_off channel=9 note=51 velocity=95 time=0
EXTRACT: note_on channel=9 note=51 velocity=95 time=0
EXTRACT: note_on channel=9 note=35 velocity=95 time=0
EXTRACT: note_off channel=0 note=73 velocity=95 time=0.24
EXTRACT: note_on channel=0 note=74 velocity=95 time=0
EXTRACT: note_off channel=15 note=73 velocity=95 time=0
EXTRACT: note_on channel=15 note=74 velocity=95 time=0
EXTRACT: note_on channel=4 note=59 velocity=95 time=0
EXTRACT: note_off channel=13 note=37 velocity=95 time=0
EXTRACT: note_on channel=13 note=32 velocity=95 time=0
EXTRACT: note_off channel=9 note=60 velocity=95 time=0
EXTRACT: note_on channel=9 note=60 velocity=95 time=0
EXTRACT: note_off channel=9 note=51 velocity=95 time=0
EXTRACT: note_off channel=9 note=35 velocity=95 time=0
EXTRACT: note_on channel=9 note=51 velocity=95 time=0
EXTRACT: note_off channel=0 note=74 velocity=95 time=0.24
EXTRACT: note_on channel=0 note=73 velocity=95 time=0
EXTRACT: note_off channel=15 note=74 velocity=95 time=0
EXTRACT: note_on channel=15 note=73 velocity=95 time=0
EXTRACT: note_off channel=4 note=59 velocity=95 time=0
EXTRACT: note_off channel=11 note=69 velocity=95 time=0
EXTRACT: note_on channel=11 note=66 velocity=95 time=0
EXTRACT: note_off channel=13 note=32 velocity=95 time=0
EXTRACT: note_on channel=13 note=28 velocity=95 time=0
EXTRACT: note_off channel=9 note=60 velocity=95 time=0
EXTRACT: note_on channel=9 note=61 velocity=95 time=0
EXTRACT: note_off channel=9 note=51 velocity=95 time=0
EXTRACT: note_on channel=9 note=51 velocity=95 time=0
EXTRACT: note_on channel=9 note=38 velocity=95 time=0
EXTRACT: note_on channel=9 note=35 velocity=95 time=0
EXTRACT: note_off channel=0 note=73 velocity=95 time=0.24
EXTRACT: note_on channel=0 note=71 velocity=95 time=0
EXTRACT: note_off channel=15 note=73 velocity=95 time=0
EXTRACT: note_on channel=15 note=71 velocity=95 time=0
EXTRACT: note_off channel=2 note=71 velocity=95 time=0
EXTRACT: note_off channel=2 note=68 velocity=95 time=0
EXTRACT: note_off channel=2 note=64 velocity=95 time=0
EXTRACT: note_on channel=2 note=69 velocity=95 time=0
EXTRACT: note_on channel=2 note=64 velocity=95 time=0
EXTRACT: note_on channel=2 note=61 velocity=95 time=0
EXTRACT: note_on channel=4 note=56 velocity=95 time=0
EXTRACT: note_off channel=8 note=71 velocity=95 time=0
EXTRACT: note_on channel=8 note=69 velocity=95 time=0
EXTRACT: note_off channel=11 note=66 velocity=95 time=0
EXTRACT: note_on channel=11 note=64 velocity=95 time=0
EXTRACT: note_off channel=9 note=61 velocity=95 time=0
EXTRACT: note_on channel=9 note=60 velocity=95 time=0
EXTRACT: note_off channel=9 note=51 velocity=95 time=0
EXTRACT: note_off channel=9 note=38 velocity=95 time=0
EXTRACT: note_off channel=9 note=35 velocity=95 time=0
EXTRACT: note_on channel=9 note=51 velocity=95 time=0
EXTRACT: note_off channel=0 note=71 velocity=95 time=0.24
EXTRACT: note_on channel=0 note=69 velocity=95 time=0
EXTRACT: note_off channel=15 note=71 velocity=95 time=0
EXTRACT: note_on channel=15 note=69 velocity=95 time=0
EXTRACT: note_off channel=11 note=64 velocity=95 time=0
EXTRACT: note_on channel=11 note=69 velocity=95 time=0
EXTRACT: note_off channel=13 note=28 velocity=95 time=0
EXTRACT: note_on channel=13 note=30 velocity=95 time=0
EXTRACT: note_off channel=9 note=60 velocity=95 time=0
EXTRACT: note_on channel=9 note=60 velocity=95 time=0
EXTRACT: note_off channel=9 note=51 velocity=95 time=0
EXTRACT: note_on channel=9 note=51 velocity=95 time=0
EXTRACT: note_on channel=9 note=35 velocity=95 time=0
EXTRACT: note_off channel=4 note=56 velocity=95 time=0.24
EXTRACT: note_on channel=4 note=57 velocity=95 time=0
EXTRACT: note_off channel=9 note=60 velocity=95 time=0
EXTRACT: note_on channel=9 note=60 velocity=95 time=0
EXTRACT: note_off channel=9 note=51 velocity=95 time=0
EXTRACT: note_off channel=9 note=35 velocity=95 time=0
EXTRACT: note_on channel=9 note=51 velocity=95 time=0
EXTRACT: note_off channel=0 note=69 velocity=95 time=0.24
EXTRACT: note_on channel=0 note=71 velocity=95 time=0
EXTRACT: note_off channel=15 note=69 velocity=95 time=0
EXTRACT: note_on channel=15 note=71 velocity=95 time=0
EXTRACT: note_off channel=4 note=57 velocity=95 time=0
EXTRACT: note_off channel=11 note=69 velocity=95 time=0
EXTRACT: note_on channel=11 note=66 velocity=95 time=0
EXTRACT: note_off channel=13 note=30 velocity=95 time=0
EXTRACT: note_on channel=13 note=32 velocity=95 time=0
EXTRACT: note_off channel=9 note=60 velocity=95 time=0
EXTRACT: note_on channel=9 note=60 velocity=95 time=0
EXTRACT: note_off channel=9 note=51 velocity=95 time=0
EXTRACT: note_on channel=9 note=51 velocity=95 time=0
EXTRACT: note_on channel=9 note=38 velocity=95 time=0
EXTRACT: note_on channel=9 note=35 velocity=95 time=0
EXTRACT: note_off channel=0 note=71 velocity=95 time=0.24
EXTRACT: note_off channel=15 note=71 velocity=95 time=0
EXTRACT: note_off channel=11 note=66 velocity=95 time=0
EXTRACT: note_on channel=11 note=64 velocity=95 time=0
EXTRACT: note_off channel=13 note=32 velocity=95 time=0
EXTRACT: note_on channel=13 note=33 velocity=95 time=0
EXTRACT: note_off channel=9 note=60 velocity=95 time=0
EXTRACT: note_on channel=9 note=61 velocity=95 time=0
EXTRACT: note_off channel=9 note=51 velocity=95 time=0
EXTRACT: note_off channel=9 note=38 velocity=95 time=0
EXTRACT: note_off channel=9 note=35 velocity=95 time=0
EXTRACT: note_on channel=9 note=51 velocity=95 time=0
EXTRACT: note_on channel=0 note=73 velocity=95 time=0.24
EXTRACT: note_on channel=15 note=73 velocity=95 time=0
EXTRACT: note_off channel=2 note=69 velocity=95 time=0
EXTRACT: note_off channel=2 note=64 velocity=95 time=0
EXTRACT: note_off channel=2 note=61 velocity=95 time=0
EXTRACT: note_on channel=2 note=69 velocity=95 time=0
EXTRACT: note_on channel=2 note=66 velocity=95 time=0
EXTRACT: note_on channel=2 note=62 velocity=95 time=0
EXTRACT: note_off channel=8 note=69 velocity=95 time=0
EXTRACT: note_on channel=8 note=69 velocity=95 time=0
EXTRACT: note_off channel=11 note=64 velocity=95 time=0
EXTRACT: note_off channel=13 note=33 velocity=95 time=0
EXTRACT: note_on channel=13 note=35 velocity=95 time=0
EXTRACT: note_off channel=9 note=61 velocity=95 time=0
EXTRACT: note_on channel=9 note=60 velocity=95 time=0
EXTRACT: note_off channel=9 note=51 velocity=95 time=0
EXTRACT: note_on channel=9 note=51 velocity=95 time=0
EXTRACT: note_on channel=9 note=35 velocity=95 time=0
EXTRACT: note_on channel=4 note=61 velocity=95 time=0.24
EXTRACT: note_on channel=11 note=69 velocity=95 time=0
EXTRACT: note_off channel=9 note=60 velocity=95 time=0
EXTRACT: note_on channel=9 note=60 velocity=95 time=0
EXTRACT: note_off channel=9 note=51 velocity=95 time=0
EXTRACT: note_off channel=9 note=35 velocity=95 time=0
EXTRACT: note_on channel=9 note=51 velocity=95 time=0
EXTRACT: note_off channel=0 note=73 velocity=95 time=0.24
EXTRACT: note_on channel=0 note=74 velocity=95 time=0
EXTRACT: note_off channel=15 note=73 velocity=95 time=0
EXTRACT: note_on channel=15 note=74 velocity=95 time=0
EXTRACT: note_off channel=4 note=61 velocity=95 time=0
EXTRACT: note_off channel=11 note=69 velocity=95 time=0
EXTRACT: note_off channel=13 note=35 velocity=95 time=0
EXTRACT: note_on channel=13 note=42 velocity=95 time=0
EXTRACT: note_off channel=9 note=60 velocity=95 time=0
EXTRACT: note_on channel=9 note=61 velocity=95 time=0
EXTRACT: note_off channel=9 note=51 velocity=95 time=0
EXTRACT: note_on channel=9 note=51 velocity=95 time=0
EXTRACT: note_on channel=9 note=38 velocity=95 time=0
EXTRACT: note_on channel=9 note=35 velocity=95 time=0
EXTRACT: note_off channel=0 note=74 velocity=95 time=0.24
EXTRACT: note_on channel=0 note=73 velocity=95 time=0
EXTRACT: note_off channel=15 note=74 velocity=95 time=0
EXTRACT: note_on channel=15 note=73 velocity=95 time=0
EXTRACT: note_off channel=2 note=69 velocity=95 time=0
EXTRACT: note_off channel=2 note=66 velocity=95 time=0
EXTRACT: note_off channel=2 note=62 velocity=95 time=0
EXTRACT: note_on channel=2 note=68 velocity=95 time=0
EXTRACT: note_on channel=2 note=62 velocity=95 time=0
EXTRACT: note_on channel=2 note=59 velocity=95 time=0
EXTRACT: note_on channel=4 note=59 velocity=95 time=0
EXTRACT: note_off channel=8 note=69 velocity=95 time=0
EXTRACT: note_on channel=8 note=68 velocity=95 time=0
EXTRACT: note_off channel=13 note=42 velocity=95 time=0
EXTRACT: note_on channel=13 note=40 velocity=95 time=0
EXTRACT: note_off channel=9 note=61 velocity=95 time=0
EXTRACT: note_on channel=9 note=60 velocity=95 time=0
EXTRACT: note_off channel=9 note=51 velocity=95 time=0
EXTRACT: note_off channel=9 note=38 velocity=95 time=0
EXTRACT: note_off channel=9 note=35 velocity=95 time=0
EXTRACT: note_on channel=9 note=51 velocity=95 time=0
EXTRACT: note_off channel=4 note=59 velocity=95 time=0.24
EXTRACT: note_off channel=13 note=40 velocity=95 time=0
EXTRACT: note_off channel=9 note=60 velocity=95 time=0
EXTRACT: note_on channel=9 note=60 velocity=95 time=0
EXTRACT: note_off channel=9 note=51 velocity=95 time=0
EXTRACT: note_on channel=9 note=51 velocity=95 time=0
EXTRACT: note_on channel=9 note=35 velocity=95 time=0
EXTRACT: note_on channel=4 note=57 velocity=95 time=0.24
EXTRACT: note_on channel=11 note=68 velocity=95 time=0
EXTRACT: note_off channel=9 note=60 velocity=95 time=0
EXTRACT: note_on channel=9 note=60 velocity=95 time=0
EXTRACT: note_off channel=9 note=51 velocity=95 time=0
EXTRACT: note_off channel=9 note=35 velocity=95 time=0
EXTRACT: note_on channel=9 note=51 velocity=95 time=0
EXTRACT: note_off channel=0 note=73 velocity=95 time=0.24
EXTRACT: note_off channel=15 note=73 velocity=95 time=0
EXTRACT: note_off channel=4 note=57 velocity=95 time=0
EXTRACT: note_off channel=11 note=68 velocity=95 time=0
EXTRACT: note_on channel=13 note=35 velocity=95 time=0
EXTRACT: note_off channel=9 note=60 velocity=95 time=0
EXTRACT: note_on channel=9 note=60 velocity=95 time=0
EXTRACT: note_off channel=9 note=51 velocity=95 time=0
EXTRACT: note_on channel=9 note=51 velocity=95 time=0
EXTRACT: note_on channel=9 note=38 velocity=95 time=0
EXTRACT: note_on channel=9 note=35 velocity=95 time=0
EXTRACT: note_on channel=4 note=50 velocity=95 time=0.24
EXTRACT: note_off channel=13 note=35 velocity=95 time=0
EXTRACT: note_on channel=13 note=36 velocity=95 time=0
EXTRACT: note_off channel=9 note=60 velocity=95 time=0
EXTRACT: note_on channel=9 note=61 velocity=95 time=0
EXTRACT: note_off channel=9 note=51 velocity=95 time=0
EXTRACT: note_off channel=9 note=38 velocity=95 time=0
EXTRACT: note_off channel=9 note=35 velocity=95 time=0
EXTRACT: note_on channel=9 note=51 velocity=95 time=0
EXTRACT: note_off channel=4 note=50 velocity=95 time=0.031
EXTRACT: note_on channel=0 note=73 velocity=95 time=0.209
EXTRACT: note_on channel=15 note=73 velocity=95 time=0
EXTRACT: note_off channel=2 note=68 velocity=95 time=0
EXTRACT: note_off channel=2 note=62 velocity=95 time=0
EXTRACT: note_off channel=2 note=59 velocity=95 time=0
EXTRACT: note_on channel=2 note=71 velocity=95 time=0
EXTRACT: note_on channel=2 note=68 velocity=95 time=0
EXTRACT: note_on channel=2 note=64 velocity=95 time=0
EXTRACT: note_on channel=4 note=59 velocity=95 time=0
EXTRACT: note_off channel=8 note=68 velocity=95 time=0
EXTRACT: note_on channel=8 note=71 velocity=95 time=0
EXTRACT: note_on channel=11 note=69 velocity=95 time=0
EXTRACT: note_off channel=13 note=36 velocity=95 time=0
EXTRACT: note_on channel=13 note=37 velocity=95 time=0
EXTRACT: note_off channel=9 note=61 velocity=95 time=0
EXTRACT: note_on channel=9 note=60 velocity=95 time=0
EXTRACT: note_off channel=9 note=51 velocity=95 time=0
EXTRACT: note_on channel=9 note=51 velocity=95 time=0
EXTRACT: note_on channel=9 note=35 velocity=95 time=0
EXTRACT: note_off channel=0 note=73 velocity=95 time=0.24
EXTRACT: note_on channel=0 note=74 velocity=95 time=0
EXTRACT: note_off channel=15 note=73 velocity=95 time=0
EXTRACT: note_on channel=15 note=74 velocity=95 time=0
EXTRACT: note_off channel=4 note=59 velocity=95 time=0
EXTRACT: note_on channel=4 note=59 velocity=95 time=0
EXTRACT: note_off channel=13 note=37 velocity=95 time=0
EXTRACT: note_on channel=13 note=32 velocity=95 time=0
EXTRACT: note_off channel=9 note=60 velocity=95 time=0
EXTRACT: note_on channel=9 note=60 velocity=95 time=0
EXTRACT: note_off channel=9 note=51 velocity=95 time=0
EXTRACT: note_off channel=9 note=35 velocity=95 time=0
EXTRACT: note_on channel=9 note=51 velocity=95 time=0
EXTRACT: note_off channel=0 note=74 velocity=95 time=0.24
EXTRACT: note_on channel=0 note=73 velocity=95 time=0
EXTRACT: note_off channel=15 note=74 velocity=95 time=0
EXTRACT: note_on channel=15 note=73 velocity=95 time=0
EXTRACT: note_off channel=4 note=59 velocity=95 time=0
EXTRACT: note_on channel=4 note=59 velocity=95 time=0
EXTRACT: note_off channel=11 note=69 velocity=95 time=0
EXTRACT: note_on channel=11 note=66 velocity=95 time=0
EXTRACT: note_off channel=13 note=32 velocity=95 time=0
EXTRACT: note_on channel=13 note=28 velocity=95 time=0
EXTRACT: note_off channel=9 note=60 velocity=95 time=0
EXTRACT: note_on channel=9 note=61 velocity=95 time=0
EXTRACT: note_off channel=9 note=51 velocity=95 time=0
EXTRACT: note_on channel=9 note=51 velocity=95 time=0
EXTRACT: note_on channel=9 note=38 velocity=95 time=0
EXTRACT: note_on channel=9 note=35 velocity=95 time=0
EXTRACT: note_off channel=0 note=73 velocity=95 time=0.24
EXTRACT: note_on channel=0 note=71 velocity=95 time=0
EXTRACT: note_off channel=15 note=73 velocity=95 time=0
EXTRACT: note_on channel=15 note=71 velocity=95 time=0
EXTRACT: note_off channel=2 note=71 velocity=95 time=0
EXTRACT: note_off channel=2 note=68 velocity=95 time=0
EXTRACT: note_off channel=2 note=64 velocity=95 time=0
EXTRACT: note_on channel=2 note=69 velocity=95 time=0
EXTRACT: note_on channel=2 note=64 velocity=95 time=0
EXTRACT: note_on channel=2 note=61 velocity=95 time=0
EXTRACT: note_off channel=4 note=59 velocity=95 time=0
EXTRACT: note_on channel=4 note=56 velocity=95 time=0
EXTRACT: note_off channel=8 note=71 velocity=95 time=0
EXTRACT: note_on channel=8 note=69 velocity=95 time=0
EXTRACT: note_off channel=11 note=66 velocity=95 time=0
EXTRACT: note_on channel=11 note=64 velocity=95 time=0
EXTRACT: note_off channel=9 note=61 velocity=95 time=0
EXTRACT: note_on channel=9 note=60 velocity=95 time=0
EXTRACT: note_off channel=9 note=51 velocity=95 time=0
EXTRACT: note_off channel=9 note=38 velocity=95 time=0
EXTRACT: note_off channel=9 note=35 velocity=95 time=0
EXTRACT: note_on channel=9 note=51 velocity=95 time=0
EXTRACT: note_off channel=0 note=71 velocity=95 time=0.24
EXTRACT: note_on channel=0 note=69 velocity=95 time=0
EXTRACT: note_off channel=15 note=71 velocity=95 time=0
EXTRACT: note_on channel=15 note=69 velocity=95 time=0
EXTRACT: note_off channel=11 note=64 velocity=95 time=0
EXTRACT: note_on channel=11 note=69 velocity=95 time=0
EXTRACT: note_off channel=13 note=28 velocity=95 time=0
EXTRACT: note_on channel=13 note=30 velocity=95 time=0
EXTRACT: note_off channel=9 note=60 velocity=95 time=0
EXTRACT: note_on channel=9 note=60 velocity=95 time=0
EXTRACT: note_off channel=9 note=51 velocity=95 time=0
EXTRACT: note_on channel=9 note=51 velocity=95 time=0
EXTRACT: note_on channel=9 note=35 velocity=95 time=0
EXTRACT: note_off channel=4 note=56 velocity=95 time=0.24
EXTRACT: note_on channel=4 note=57 velocity=95 time=0
EXTRACT: note_off channel=9 note=60 velocity=95 time=0
EXTRACT: note_on channel=9 note=60 velocity=95 time=0
EXTRACT: note_off channel=9 note=51 velocity=95 time=0
EXTRACT: note_off channel=9 note=35 velocity=95 time=0
EXTRACT: note_on channel=9 note=51 velocity=95 time=0
EXTRACT: note_off channel=0 note=69 velocity=95 time=0.24
EXTRACT: note_on channel=0 note=71 velocity=95 time=0
EXTRACT: note_off channel=15 note=69 velocity=95 time=0
EXTRACT: note_on channel=15 note=71 velocity=95 time=0
EXTRACT: note_off channel=4 note=57 velocity=95 time=0
EXTRACT: note_off channel=11 note=69 velocity=95 time=0
EXTRACT: note_on channel=11 note=66 velocity=95 time=0
EXTRACT: note_off channel=13 note=30 velocity=95 time=0
EXTRACT: note_on channel=13 note=32 velocity=95 time=0
EXTRACT: note_off channel=9 note=60 velocity=95 time=0
EXTRACT: note_on channel=9 note=60 velocity=95 time=0
EXTRACT: note_off channel=9 note=51 velocity=95 time=0
EXTRACT: note_on channel=9 note=51 velocity=95 time=0
EXTRACT: note_on channel=9 note=38 velocity=95 time=0
EXTRACT: note_on channel=9 note=35 velocity=95 time=0
EXTRACT: note_off channel=0 note=71 velocity=95 time=0.24
EXTRACT: note_off channel=15 note=71 velocity=95 time=0
EXTRACT: note_off channel=11 note=66 velocity=95 time=0
EXTRACT: note_on channel=11 note=64 velocity=95 time=0
EXTRACT: note_off channel=13 note=32 velocity=95 time=0
EXTRACT: note_off channel=9 note=60 velocity=95 time=0
EXTRACT: note_on channel=9 note=61 velocity=95 time=0
EXTRACT: note_off channel=9 note=51 velocity=95 time=0
EXTRACT: note_off channel=9 note=38 velocity=95 time=0
EXTRACT: note_off channel=9 note=35 velocity=95 time=0
EXTRACT: note_on channel=9 note=51 velocity=95 time=0
EXTRACT: note_on channel=0 note=73 velocity=95 time=0.24
EXTRACT: note_on channel=15 note=73 velocity=95 time=0
EXTRACT: note_off channel=2 note=69 velocity=95 time=0
EXTRACT: note_off channel=2 note=64 velocity=95 time=0
EXTRACT: note_off channel=2 note=61 velocity=95 time=0
EXTRACT: note_on channel=2 note=69 velocity=95 time=0
EXTRACT: note_on channel=2 note=66 velocity=95 time=0
EXTRACT: note_on channel=2 note=62 velocity=95 time=0
EXTRACT: note_off channel=8 note=69 velocity=95 time=0
EXTRACT: note_on channel=8 note=69 velocity=95 time=0
EXTRACT: note_off channel=11 note=64 velocity=95 time=0
EXTRACT: note_on channel=13 note=35 velocity=95 time=0
EXTRACT: note_off channel=9 note=61 velocity=95 time=0
EXTRACT: note_on channel=9 note=60 velocity=95 time=0
EXTRACT: note_off channel=9 note=51 velocity=95 time=0
EXTRACT: note_on channel=9 note=51 velocity=95 time=0
EXTRACT: note_on channel=9 note=35 velocity=95 time=0
EXTRACT: note_on channel=4 note=61 velocity=95 time=0.24
EXTRACT: note_on channel=11 note=69 velocity=95 time=0
EXTRACT: note_off channel=13 note=35 velocity=95 time=0
EXTRACT: note_on channel=13 note=35 velocity=95 time=0
EXTRACT: note_off channel=9 note=60 velocity=95 time=0
EXTRACT: note_on channel=9 note=60 velocity=95 time=0
EXTRACT: note_off channel=9 note=51 velocity=95 time=0
EXTRACT: note_off channel=9 note=35 velocity=95 time=0
EXTRACT: note_on channel=9 note=51 velocity=95 time=0
EXTRACT: note_off channel=0 note=73 velocity=95 time=0.24
EXTRACT: note_on channel=0 note=74 velocity=95 time=0
EXTRACT: note_off channel=15 note=73 velocity=95 time=0
EXTRACT: note_on channel=15 note=74 velocity=95 time=0
EXTRACT: note_off channel=4 note=61 velocity=95 time=0
EXTRACT: note_off channel=11 note=69 velocity=95 time=0
EXTRACT: note_off channel=13 note=35 velocity=95 time=0
EXTRACT: note_on channel=13 note=42 velocity=95 time=0
EXTRACT: note_off channel=9 note=60 velocity=95 time=0
EXTRACT: note_on channel=9 note=61 velocity=95 time=0
EXTRACT: note_off channel=9 note=51 velocity=95 time=0
EXTRACT: note_on channel=9 note=51 velocity=95 time=0
EXTRACT: note_on channel=9 note=38 velocity=95 time=0
EXTRACT: note_on channel=9 note=35 velocity=95 time=0
EXTRACT: note_off channel=0 note=74 velocity=95 time=0.24
EXTRACT: note_on channel=0 note=73 velocity=95 time=0
EXTRACT: note_off channel=15 note=74 velocity=95 time=0
EXTRACT: note_on channel=15 note=73 velocity=95 time=0
EXTRACT: note_off channel=2 note=69 velocity=95 time=0
EXTRACT: note_off channel=2 note=66 velocity=95 time=0
EXTRACT: note_off channel=2 note=62 velocity=95 time=0
EXTRACT: note_on channel=2 note=68 velocity=95 time=0
EXTRACT: note_on channel=2 note=62 velocity=95 time=0
EXTRACT: note_on channel=2 note=59 velocity=95 time=0
EXTRACT: note_on channel=4 note=59 velocity=95 time=0
EXTRACT: note_off channel=8 note=69 velocity=95 time=0
EXTRACT: note_on channel=8 note=68 velocity=95 time=0
EXTRACT: note_off channel=13 note=42 velocity=95 time=0
EXTRACT: note_on channel=13 note=40 velocity=95 time=0
EXTRACT: note_off channel=9 note=61 velocity=95 time=0
EXTRACT: note_on channel=9 note=60 velocity=95 time=0
EXTRACT: note_off channel=9 note=51 velocity=95 time=0
EXTRACT: note_off channel=9 note=38 velocity=95 time=0
EXTRACT: note_off channel=9 note=35 velocity=95 time=0
EXTRACT: note_on channel=9 note=51 velocity=95 time=0
EXTRACT: note_off channel=4 note=59 velocity=95 time=0.24
EXTRACT: note_off channel=13 note=40 velocity=95 time=0
EXTRACT: note_off channel=9 note=60 velocity=95 time=0
EXTRACT: note_on channel=9 note=60 velocity=95 time=0
EXTRACT: note_off channel=9 note=51 velocity=95 time=0
EXTRACT: note_on channel=9 note=51 velocity=95 time=0
EXTRACT: note_on channel=9 note=35 velocity=95 time=0
EXTRACT: note_on channel=4 note=57 velocity=95 time=0.24
EXTRACT: note_on channel=11 note=68 velocity=95 time=0
EXTRACT: note_on channel=13 note=33 velocity=95 time=0
EXTRACT: note_off channel=9 note=60 velocity=95 time=0
EXTRACT: note_on channel=9 note=60 velocity=95 time=0
EXTRACT: note_off channel=9 note=51 velocity=95 time=0
EXTRACT: note_off channel=9 note=35 velocity=95 time=0
EXTRACT: note_on channel=9 note=51 velocity=95 time=0
EXTRACT: note_off channel=0 note=73 velocity=95 time=0.24
EXTRACT: note_off channel=15 note=73 velocity=95 time=0
EXTRACT: note_off channel=4 note=57 velocity=95 time=0
EXTRACT: note_off channel=11 note=68 velocity=95 time=0
EXTRACT: note_off channel=13 note=33 velocity=95 time=0
EXTRACT: note_on channel=13 note=35 velocity=95 time=0
EXTRACT: note_off channel=9 note=60 velocity=95 time=0
EXTRACT: note_on channel=9 note=60 velocity=95 time=0
EXTRACT: note_off channel=9 note=51 velocity=95 time=0
EXTRACT: note_on channel=9 note=51 velocity=95 time=0
EXTRACT: note_on channel=9 note=38 velocity=95 time=0
EXTRACT: note_on channel=9 note=35 velocity=95 time=0
EXTRACT: note_on channel=4 note=45 velocity=95 time=0.24
EXTRACT: note_off channel=13 note=35 velocity=95 time=0
EXTRACT: note_on channel=13 note=36 velocity=95 time=0
EXTRACT: note_off channel=9 note=60 velocity=95 time=0
EXTRACT: note_on channel=9 note=61 velocity=95 time=0
EXTRACT: note_off channel=9 note=51 velocity=95 time=0
EXTRACT: note_off channel=9 note=38 velocity=95 time=0
EXTRACT: note_off channel=9 note=35 velocity=95 time=0
EXTRACT: note_on channel=9 note=51 velocity=95 time=0
EXTRACT: note_off channel=4 note=45 velocity=95 time=0.031
EXTRACT: note_on channel=4 note=45 velocity=95 time=0.089
EXTRACT: note_off channel=4 note=45 velocity=95 time=0.031
EXTRACT: note_on channel=0 note=73 velocity=95 time=0.089
EXTRACT: note_on channel=15 note=73 velocity=95 time=0
EXTRACT: note_off channel=2 note=68 velocity=95 time=0
EXTRACT: note_off channel=2 note=62 velocity=95 time=0
EXTRACT: note_off channel=2 note=59 velocity=95 time=0
EXTRACT: note_on channel=2 note=71 velocity=95 time=0
EXTRACT: note_on channel=2 note=68 velocity=95 time=0
EXTRACT: note_on channel=2 note=64 velocity=95 time=0
EXTRACT: note_on channel=4 note=59 velocity=95 time=0
EXTRACT: note_off channel=8 note=68 velocity=95 time=0
EXTRACT: note_on channel=8 note=71 velocity=95 time=0
EXTRACT: note_on channel=11 note=69 velocity=95 time=0
EXTRACT: note_off channel=13 note=36 velocity=95 time=0
EXTRACT: note_on channel=13 note=37 velocity=95 time=0
EXTRACT: note_off channel=9 note=61 velocity=95 time=0
EXTRACT: note_on channel=9 note=60 velocity=95 time=0
EXTRACT: note_off channel=9 note=51 velocity=95 time=0
EXTRACT: note_on channel=9 note=51 velocity=95 time=0
EXTRACT: note_on channel=9 note=35 velocity=95 time=0
EXTRACT: note_off channel=0 note=73 velocity=95 time=0.24
EXTRACT: note_on channel=0 note=74 velocity=95 time=0
EXTRACT: note_off channel=15 note=73 velocity=95 time=0
EXTRACT: note_on channel=15 note=74 velocity=95 time=0
EXTRACT: note_off channel=4 note=59 velocity=95 time=0
EXTRACT: note_on channel=4 note=59 velocity=95 time=0
EXTRACT: note_off channel=13 note=37 velocity=95 time=0
EXTRACT: note_on channel=13 note=32 velocity=95 time=0
EXTRACT: note_off channel=9 note=60 velocity=95 time=0
EXTRACT: note_on channel=9 note=60 velocity=95 time=0
EXTRACT: note_off channel=9 note=51 velocity=95 time=0
EXTRACT: note_off channel=9 note=35 velocity=95 time=0
EXTRACT: note_on channel=9 note=51 velocity=95 time=0
EXTRACT: note_off channel=0 note=74 velocity=95 time=0.24
EXTRACT: note_on channel=0 note=73 velocity=95 time=0
EXTRACT: note_off channel=15 note=74 velocity=95 time=0
EXTRACT: note_on channel=15 note=73 velocity=95 time=0
EXTRACT: note_off channel=4 note=59 velocity=95 time=0
EXTRACT: note_on channel=4 note=59 velocity=95 time=0
EXTRACT: note_off channel=11 note=69 velocity=95 time=0
EXTRACT: note_on channel=11 note=66 velocity=95 time=0
EXTRACT: note_off channel=13 note=32 velocity=95 time=0
EXTRACT: note_on channel=13 note=28 velocity=95 time=0
EXTRACT: note_off channel=9 note=60 velocity=95 time=0
EXTRACT: note_on channel=9 note=61 velocity=95 time=0
EXTRACT: note_off channel=9 note=51 velocity=95 time=0
EXTRACT: note_on channel=9 note=51 velocity=95 time=0
EXTRACT: note_on channel=9 note=38 velocity=95 time=0
EXTRACT: note_on channel=9 note=35 velocity=95 time=0
EXTRACT: note_off channel=0 note=73 velocity=95 time=0.24
EXTRACT: note_on channel=0 note=71 velocity=95 time=0
EXTRACT: note_off channel=15 note=73 velocity=95 time=0
EXTRACT: note_on channel=15 note=71 velocity=95 time=0
EXTRACT: note_off channel=2 note=71 velocity=95 time=0
EXTRACT: note_off channel=2 note=68 velocity=95 time=0
EXTRACT: note_off channel=2 note=64 velocity=95 time=0
EXTRACT: note_on channel=2 note=69 velocity=95 time=0
EXTRACT: note_on channel=2 note=64 velocity=95 time=0
EXTRACT: note_on channel=2 note=61 velocity=95 time=0
EXTRACT: note_off channel=4 note=59 velocity=95 time=0
EXTRACT: note_on channel=4 note=56 velocity=95 time=0
EXTRACT: note_off channel=8 note=71 velocity=95 time=0
EXTRACT: note_on channel=8 note=69 velocity=95 time=0
EXTRACT: note_off channel=11 note=66 velocity=95 time=0
EXTRACT: note_on channel=11 note=64 velocity=95 time=0
EXTRACT: note_off channel=9 note=61 velocity=95 time=0
EXTRACT: note_on channel=9 note=60 velocity=95 time=0
EXTRACT: note_off channel=9 note=51 velocity=95 time=0
EXTRACT: note_off channel=9 note=38 velocity=95 time=0
EXTRACT: note_off channel=9 note=35 velocity=95 time=0
EXTRACT: note_on channel=9 note=51 velocity=95 time=0
EXTRACT: note_off channel=0 note=71 velocity=95 time=0.24
EXTRACT: note_on channel=0 note=69 velocity=95 time=0
EXTRACT: note_off channel=15 note=71 velocity=95 time=0
EXTRACT: note_on channel=15 note=69 velocity=95 time=0
EXTRACT: note_off channel=11 note=64 velocity=95 time=0
EXTRACT: note_on channel=11 note=69 velocity=95 time=0
EXTRACT: note_off channel=13 note=28 velocity=95 time=0
EXTRACT: note_on channel=13 note=30 velocity=95 time=0
EXTRACT: note_off channel=9 note=60 velocity=95 time=0
EXTRACT: note_on channel=9 note=60 velocity=95 time=0
EXTRACT: note_off channel=9 note=51 velocity=95 time=0
EXTRACT: note_on channel=9 note=51 velocity=95 time=0
EXTRACT: note_on channel=9 note=35 velocity=95 time=0
EXTRACT: note_off channel=4 note=56 velocity=95 time=0.24
EXTRACT: note_on channel=4 note=57 velocity=95 time=0
EXTRACT: note_off channel=9 note=60 velocity=95 time=0
EXTRACT: note_on channel=9 note=60 velocity=95 time=0
EXTRACT: note_off channel=9 note=51 velocity=95 time=0
EXTRACT: note_off channel=9 note=35 velocity=95 time=0
EXTRACT: note_on channel=9 note=51 velocity=95 time=0
EXTRACT: note_off channel=0 note=69 velocity=95 time=0.24
EXTRACT: note_on channel=0 note=66 velocity=95 time=0
EXTRACT: note_off channel=15 note=69 velocity=95 time=0
EXTRACT: note_on channel=15 note=66 velocity=95 time=0
EXTRACT: note_off channel=4 note=57 velocity=95 time=0
EXTRACT: note_off channel=11 note=69 velocity=95 time=0
EXTRACT: note_on channel=11 note=66 velocity=95 time=0
EXTRACT: note_off channel=13 note=30 velocity=95 time=0
EXTRACT: note_on channel=13 note=32 velocity=95 time=0
EXTRACT: note_off channel=9 note=60 velocity=95 time=0
EXTRACT: note_on channel=9 note=60 velocity=95 time=0
EXTRACT: note_off channel=9 note=51 velocity=95 time=0
EXTRACT: note_on channel=9 note=51 velocity=95 time=0
EXTRACT: note_on channel=9 note=38 velocity=95 time=0
EXTRACT: note_on channel=9 note=35 velocity=95 time=0
EXTRACT: note_off channel=0 note=66 velocity=95 time=0.24
EXTRACT: note_on channel=0 note=71 velocity=95 time=0
EXTRACT: note_off channel=15 note=66 velocity=95 time=0
EXTRACT: note_on channel=15 note=71 velocity=95 time=0
EXTRACT: note_off channel=11 note=66 velocity=95 time=0
EXTRACT: note_on channel=11 note=64 velocity=95 time=0
EXTRACT: note_off channel=13 note=32 velocity=95 time=0
EXTRACT: note_on channel=13 note=30 velocity=95 time=0
EXTRACT: note_off channel=9 note=60 velocity=95 time=0
EXTRACT: note_on channel=9 note=61 velocity=95 time=0
EXTRACT: note_off channel=9 note=51 velocity=95 time=0
EXTRACT: note_off channel=9 note=38 velocity=95 time=0
EXTRACT: note_off channel=9 note=35 velocity=95 time=0
EXTRACT: note_on channel=9 note=51 velocity=95 time=0
EXTRACT: note_off channel=0 note=71 velocity=95 time=0.24
EXTRACT: note_on channel=0 note=69 velocity=70 time=0
EXTRACT: note_off channel=15 note=71 velocity=95 time=0
EXTRACT: note_on channel=15 note=69 velocity=70 time=0
EXTRACT: note_off channel=2 note=69 velocity=95 time=0
EXTRACT: note_off channel=2 note=64 velocity=95 time=0
EXTRACT: note_off channel=2 note=61 velocity=95 time=0
EXTRACT: note_on channel=2 note=69 velocity=95 time=0
EXTRACT: note_on channel=2 note=67 velocity=95 time=0
EXTRACT: note_on channel=2 note=62 velocity=95 time=0
EXTRACT: note_on channel=2 note=59 velocity=95 time=0
EXTRACT: note_off channel=8 note=69 velocity=95 time=0
EXTRACT: note_on channel=8 note=69 velocity=95 time=0
EXTRACT: note_off channel=11 note=64 velocity=95 time=0
EXTRACT: note_off channel=13 note=30 velocity=95 time=0
EXTRACT: note_on channel=13 note=33 velocity=95 time=0
EXTRACT: note_off channel=9 note=61 velocity=95 time=0
EXTRACT: note_on channel=9 note=60 velocity=95 time=0
EXTRACT: note_off channel=9 note=51 velocity=95 time=0
EXTRACT: note_on channel=9 note=51 velocity=95 time=0
EXTRACT: note_on channel=9 note=35 velocity=95 time=0
EXTRACT: note_on channel=11 note=69 velocity=95 time=0.24
EXTRACT: note_on channel=10 note=81 velocity=95 time=0
EXTRACT: note_off channel=13 note=33 velocity=95 time=0
EXTRACT: note_on channel=13 note=33 velocity=95 time=0
EXTRACT: note_off channel=9 note=60 velocity=95 time=0
EXTRACT: note_on channel=9 note=60 velocity=95 time=0
EXTRACT: note_off channel=9 note=51 velocity=95 time=0
EXTRACT: note_off channel=9 note=35 velocity=95 time=0
EXTRACT: note_on channel=9 note=51 velocity=95 time=0
EXTRACT: note_off channel=11 note=69 velocity=95 time=0.24
EXTRACT: note_on channel=11 note=66 velocity=95 time=0
EXTRACT: note_off channel=10 note=81 velocity=95 time=0
EXTRACT: note_on channel=10 note=78 velocity=95 time=0
EXTRACT: note_off channel=9 note=60 velocity=95 time=0
EXTRACT: note_on channel=9 note=61 velocity=95 time=0
EXTRACT: note_off channel=9 note=51 velocity=95 time=0
EXTRACT: note_on channel=9 note=51 velocity=95 time=0
EXTRACT: note_on channel=9 note=38 velocity=95 time=0
EXTRACT: note_on channel=9 note=35 velocity=95 time=0
EXTRACT: note_off channel=11 note=66 velocity=95 time=0.24
EXTRACT: note_on channel=11 note=69 velocity=95 time=0
EXTRACT: note_off channel=10 note=78 velocity=95 time=0
EXTRACT: note_on channel=10 note=81 velocity=95 time=0
EXTRACT: note_off channel=9 note=61 velocity=95 time=0
EXTRACT: note_on channel=9 note=60 velocity=95 time=0
EXTRACT: note_off channel=9 note=51 velocity=95 time=0
EXTRACT: note_off channel=9 note=38 velocity=95 time=0
EXTRACT: note_off channel=9 note=35 velocity=95 time=0
EXTRACT: note_on channel=9 note=51 velocity=95 time=0
EXTRACT: note_off channel=11 note=69 velocity=95 time=0.24
EXTRACT: note_off channel=10 note=81 velocity=95 time=0
EXTRACT: note_off channel=13 note=33 velocity=95 time=0
EXTRACT: note_on channel=13 note=33 velocity=95 time=0
EXTRACT: note_off channel=9 note=60 velocity=95 time=0
EXTRACT: note_on channel=9 note=60 velocity=95 time=0
EXTRACT: note_off channel=9 note=51 velocity=95 time=0
EXTRACT: note_on channel=9 note=51 velocity=95 time=0
EXTRACT: note_on channel=9 note=35 velocity=95 time=0
EXTRACT: note_on channel=11 note=69 velocity=95 time=0.24
EXTRACT: note_on channel=10 note=81 velocity=95 time=0
EXTRACT: note_off channel=9 note=60 velocity=95 time=0
EXTRACT: note_on channel=9 note=60 velocity=95 time=0
EXTRACT: note_off channel=9 note=51 velocity=95 time=0
EXTRACT: note_off channel=9 note=35 velocity=95 time=0
EXTRACT: note_on channel=9 note=51 velocity=95 time=0
EXTRACT: note_on channel=14 note=55 velocity=95 time=0.18
EXTRACT: note_off channel=11 note=69 velocity=95 time=0.06
EXTRACT: note_on channel=11 note=66 velocity=95 time=0
EXTRACT: note_off channel=10 note=81 velocity=95 time=0
EXTRACT: note_on channel=10 note=78 velocity=95 time=0
EXTRACT: note_off channel=13 note=33 velocity=95 time=0
EXTRACT: note_off channel=14 note=55 velocity=95 time=0
EXTRACT: note_on channel=14 note=57 velocity=127 time=0
EXTRACT: note_off channel=9 note=60 velocity=95 time=0
EXTRACT: note_on channel=9 note=60 velocity=95 time=0
EXTRACT: note_off channel=9 note=51 velocity=95 time=0
EXTRACT: note_on channel=9 note=51 velocity=95 time=0
EXTRACT: note_on channel=9 note=38 velocity=95 time=0
EXTRACT: note_on channel=9 note=35 velocity=95 time=0
EXTRACT: note_off channel=11 note=66 velocity=95 time=0.24
EXTRACT: note_on channel=11 note=69 velocity=95 time=0
EXTRACT: note_off channel=10 note=78 velocity=95 time=0
EXTRACT: note_on channel=10 note=81 velocity=95 time=0
EXTRACT: note_off channel=9 note=60 velocity=95 time=0
EXTRACT: note_on channel=9 note=61 velocity=95 time=0
EXTRACT: note_off channel=9 note=51 velocity=95 time=0
EXTRACT: note_off channel=9 note=38 velocity=95 time=0
EXTRACT: note_off channel=9 note=35 velocity=95 time=0
EXTRACT: note_on channel=9 note=51 velocity=95 time=0
EXTRACT: note_off channel=2 note=69 velocity=95 time=0.24
EXTRACT: note_off channel=2 note=67 velocity=95 time=0
EXTRACT: note_off channel=2 note=62 velocity=95 time=0
EXTRACT: note_off channel=2 note=59 velocity=95 time=0
EXTRACT: note_on channel=2 note=69 velocity=95 time=0
EXTRACT: note_on channel=2 note=67 velocity=95 time=0
EXTRACT: note_on channel=2 note=62 velocity=95 time=0
EXTRACT: note_on channel=2 note=59 velocity=95 time=0
EXTRACT: note_off channel=11 note=69 velocity=95 time=0
EXTRACT: note_off channel=10 note=81 velocity=95 time=0
EXTRACT: note_off channel=14 note=57 velocity=127 time=0
EXTRACT: note_on channel=13 note=33 velocity=95 time=0
EXTRACT: note_off channel=9 note=61 velocity=95 time=0
EXTRACT: note_on channel=9 note=60 velocity=95 time=0
EXTRACT: note_off channel=9 note=51 velocity=95 time=0
EXTRACT: note_on channel=9 note=51 velocity=95 time=0
EXTRACT: note_on channel=9 note=35 velocity=95 time=0
EXTRACT: note_on channel=11 note=69 velocity=95 time=0.24
EXTRACT: note_on channel=10 note=81 velocity=95 time=0
EXTRACT: note_off channel=9 note=60 velocity=95 time=0
EXTRACT: note_on channel=9 note=60 velocity=95 time=0
EXTRACT: note_off channel=9 note=51 velocity=95 time=0
EXTRACT: note_off channel=9 note=35 velocity=95 time=0
EXTRACT: note_on channel=9 note=51 velocity=95 time=0
EXTRACT: note_on channel=14 note=55 velocity=95 time=0.18
EXTRACT: note_off channel=11 note=69 velocity=95 time=0.06
EXTRACT: note_on channel=11 note=66 velocity=95 time=0
EXTRACT: note_off channel=10 note=81 velocity=95 time=0
EXTRACT: note_on channel=10 note=78 velocity=95 time=0
EXTRACT: note_off channel=13 note=33 velocity=95 time=0
EXTRACT: note_off channel=14 note=55 velocity=95 time=0
EXTRACT: note_on channel=14 note=57 velocity=127 time=0
EXTRACT: note_off channel=9 note=60 velocity=95 time=0
EXTRACT: note_on channel=9 note=61 velocity=95 time=0
EXTRACT: note_off channel=9 note=51 velocity=95 time=0
EXTRACT: note_on channel=9 note=51 velocity=95 time=0
EXTRACT: note_on channel=9 note=38 velocity=95 time=0
EXTRACT: note_on channel=9 note=35 velocity=95 time=0
EXTRACT: note_off channel=11 note=66 velocity=95 time=0.24
EXTRACT: note_on channel=11 note=69 velocity=95 time=0
EXTRACT: note_off channel=10 note=78 velocity=95 time=0
EXTRACT: note_on channel=10 note=81 velocity=95 time=0
EXTRACT: note_off channel=9 note=61 velocity=95 time=0
EXTRACT: note_on channel=9 note=60 velocity=95 time=0
EXTRACT: note_off channel=9 note=51 velocity=95 time=0
EXTRACT: note_off channel=9 note=38 velocity=95 time=0
EXTRACT: note_off channel=9 note=35 velocity=95 time=0
EXTRACT: note_on channel=9 note=51 velocity=95 time=0
EXTRACT: note_off channel=2 note=69 velocity=95 time=0.24
EXTRACT: note_off channel=2 note=67 velocity=95 time=0
EXTRACT: note_off channel=2 note=62 velocity=95 time=0
EXTRACT: note_off channel=2 note=59 velocity=95 time=0
EXTRACT: note_on channel=2 note=69 velocity=95 time=0
EXTRACT: note_on channel=2 note=67 velocity=95 time=0
EXTRACT: note_on channel=2 note=62 velocity=95 time=0
EXTRACT: note_on channel=2 note=59 velocity=95 time=0
EXTRACT: note_off channel=11 note=69 velocity=95 time=0
EXTRACT: note_on channel=11 note=69 velocity=127 time=0
EXTRACT: note_off channel=10 note=81 velocity=95 time=0
EXTRACT: note_on channel=10 note=81 velocity=127 time=0
EXTRACT: note_off channel=14 note=57 velocity=127 time=0
EXTRACT: note_on channel=13 note=33 velocity=95 time=0
EXTRACT: note_off channel=9 note=60 velocity=95 time=0
EXTRACT: note_on channel=9 note=60 velocity=95 time=0
EXTRACT: note_off channel=9 note=51 velocity=95 time=0
EXTRACT: note_on channel=9 note=43 velocity=95 time=0
EXTRACT: note_on channel=9 note=38 velocity=95 time=0
EXTRACT: note_on channel=9 note=35 velocity=95 time=0
EXTRACT: note_off channel=2 note=69 velocity=95 time=0.24
EXTRACT: note_off channel=2 note=67 velocity=95 time=0
EXTRACT: note_off channel=2 note=62 velocity=95 time=0
EXTRACT: note_off channel=2 note=59 velocity=95 time=0
EXTRACT: note_on channel=2 note=69 velocity=95 time=0
EXTRACT: note_on channel=2 note=67 velocity=95 time=0
EXTRACT: note_on channel=2 note=62 velocity=95 time=0
EXTRACT: note_on channel=2 note=59 velocity=95 time=0
EXTRACT: note_off channel=11 note=69 velocity=127 time=0
EXTRACT: note_on channel=11 note=69 velocity=127 time=0
EXTRACT: note_off channel=10 note=81 velocity=127 time=0
EXTRACT: note_on channel=10 note=81 velocity=127 time=0
EXTRACT: note_off channel=13 note=33 velocity=95 time=0
EXTRACT: note_on channel=13 note=33 velocity=95 time=0
EXTRACT: note_off channel=9 note=60 velocity=95 time=0
EXTRACT: note_on channel=9 note=60 velocity=95 time=0
EXTRACT: note_off channel=9 note=43 velocity=95 time=0
EXTRACT: note_off channel=9 note=38 velocity=95 time=0
EXTRACT: note_off channel=9 note=35 velocity=95 time=0
EXTRACT: note_on channel=9 note=43 velocity=95 time=0
EXTRACT: note_on channel=9 note=38 velocity=95 time=0
EXTRACT: note_off channel=0 note=69 velocity=70 time=0.24
EXTRACT: note_off channel=15 note=69 velocity=70 time=0
EXTRACT: note_off channel=2 note=69 velocity=95 time=0
EXTRACT: note_off channel=2 note=67 velocity=95 time=0
EXTRACT: note_off channel=2 note=62 velocity=95 time=0
EXTRACT: note_off channel=2 note=59 velocity=95 time=0
EXTRACT: note_on channel=2 note=69 velocity=95 time=0
EXTRACT: note_on channel=2 note=67 velocity=95 time=0
EXTRACT: note_on channel=2 note=62 velocity=95 time=0
EXTRACT: note_on channel=2 note=59 velocity=95 time=0
EXTRACT: note_off channel=11 note=69 velocity=127 time=0
EXTRACT: note_on channel=11 note=69 velocity=127 time=0
EXTRACT: note_off channel=10 note=81 velocity=127 time=0
EXTRACT: note_on channel=10 note=81 velocity=127 time=0
EXTRACT: note_off channel=13 note=33 velocity=95 time=0
EXTRACT: note_on channel=13 note=33 velocity=95 time=0
EXTRACT: note_off channel=9 note=60 velocity=95 time=0
EXTRACT: note_on channel=9 note=60 velocity=95 time=0
EXTRACT: note_off channel=9 note=43 velocity=95 time=0
EXTRACT: note_off channel=9 note=38 velocity=95 time=0
EXTRACT: note_on channel=9 note=43 velocity=95 time=0
EXTRACT: note_on channel=9 note=38 velocity=95 time=0
EXTRACT: note_on channel=9 note=35 velocity=95 time=0
EXTRACT: note_off channel=2 note=69 velocity=95 time=0.24
EXTRACT: note_off channel=2 note=67 velocity=95 time=0
EXTRACT: note_off channel=2 note=62 velocity=95 time=0
EXTRACT: note_off channel=2 note=59 velocity=95 time=0
EXTRACT: note_off channel=8 note=69 velocity=95 time=0
EXTRACT: note_on channel=8 note=76 velocity=95 time=0
EXTRACT: note_off channel=11 note=69 velocity=127 time=0
EXTRACT: note_off channel=10 note=81 velocity=127 time=0
EXTRACT: note_off channel=9 note=60 velocity=95 time=0
EXTRACT: note_on channel=9 note=61 velocity=95 time=0
EXTRACT: note_on channel=0 note=73 velocity=95 time=0.24
EXTRACT: note_on channel=2 note=69 velocity=95 time=0
EXTRACT: note_on channel=2 note=66 velocity=95 time=0
EXTRACT: note_on channel=2 note=62 velocity=95 time=0
EXTRACT: note_off channel=8 note=76 velocity=95 time=0
EXTRACT: note_on channel=8 note=69 velocity=95 time=0
EXTRACT: note_off channel=13 note=33 velocity=95 time=0
EXTRACT: note_on channel=13 note=35 velocity=95 time=0
EXTRACT: note_off channel=9 note=61 velocity=95 time=0
EXTRACT: note_on channel=9 note=60 velocity=95 time=0
EXTRACT: note_off channel=9 note=43 velocity=95 time=0
EXTRACT: note_off channel=9 note=38 velocity=95 time=0
EXTRACT: note_off channel=9 note=35 velocity=95 time=0
EXTRACT: note_on channel=9 note=57 velocity=95 time=0
EXTRACT: note_on channel=9 note=35 velocity=95 time=0
EXTRACT: note_on channel=4 note=61 velocity=95 time=0.24
EXTRACT: note_on channel=11 note=69 velocity=95 time=0
EXTRACT: note_on channel=10 note=81 velocity=95 time=0
EXTRACT: note_off channel=13 note=35 velocity=95 time=0
EXTRACT: note_on channel=13 note=35 velocity=95 time=0
EXTRACT: note_off channel=9 note=60 velocity=95 time=0
EXTRACT: note_on channel=9 note=60 velocity=95 time=0
EXTRACT: note_off channel=9 note=57 velocity=95 time=0
EXTRACT: note_off channel=9 note=35 velocity=95 time=0
EXTRACT: note_on channel=9 note=51 velocity=95 time=0
EXTRACT: note_off channel=0 note=73 velocity=95 time=0.24
EXTRACT: note_on channel=0 note=74 velocity=95 time=0
EXTRACT: note_off channel=4 note=61 velocity=95 time=0
EXTRACT: note_off channel=11 note=69 velocity=95 time=0
EXTRACT: note_off channel=10 note=81 velocity=95 time=0
EXTRACT: note_off channel=13 note=35 velocity=95 time=0
EXTRACT: note_on channel=13 note=42 velocity=95 time=0
EXTRACT: note_off channel=9 note=60 velocity=95 time=0
EXTRACT: note_on channel=9 note=61 velocity=95 time=0
EXTRACT: note_off channel=9 note=51 velocity=95 time=0
EXTRACT: note_on channel=9 note=51 velocity=95 time=0
EXTRACT: note_on channel=9 note=38 velocity=95 time=0
EXTRACT: note_on channel=9 note=35 velocity=95 time=0
EXTRACT: note_off channel=0 note=74 velocity=95 time=0.24
EXTRACT: note_on channel=0 note=73 velocity=95 time=0
EXTRACT: note_off channel=2 note=69 velocity=95 time=0
EXTRACT: note_off channel=2 note=66 velocity=95 time=0
EXTRACT: note_off channel=2 note=62 velocity=95 time=0
EXTRACT: note_on channel=2 note=68 velocity=95 time=0
EXTRACT: note_on channel=2 note=62 velocity=95 time=0
EXTRACT: note_on channel=2 note=59 velocity=95 time=0
EXTRACT: note_on channel=4 note=59 velocity=95 time=0
EXTRACT: note_off channel=8 note=69 velocity=95 time=0
EXTRACT: note_on channel=8 note=68 velocity=95 time=0
EXTRACT: note_off channel=13 note=42 velocity=95 time=0
EXTRACT: note_on channel=13 note=40 velocity=95 time=0
EXTRACT: note_off channel=9 note=61 velocity=95 time=0
EXTRACT: note_on channel=9 note=60 velocity=95 time=0
EXTRACT: note_off channel=9 note=51 velocity=95 time=0
EXTRACT: note_off channel=9 note=38 velocity=95 time=0
EXTRACT: note_off channel=9 note=35 velocity=95 time=0
EXTRACT: note_on channel=9 note=51 velocity=95 time=0
EXTRACT: note_on channel=15 note=73 velocity=95 time=0.24
EXTRACT: note_off channel=4 note=59 velocity=95 time=0
EXTRACT: note_off channel=13 note=40 velocity=95 time=0
EXTRACT: note_off channel=9 note=60 velocity=95 time=0
EXTRACT: note_on channel=9 note=60 velocity=95 time=0
EXTRACT: note_off channel=9 note=51 velocity=95 time=0
EXTRACT: note_on channel=9 note=51 velocity=95 time=0
EXTRACT: note_on channel=9 note=35 velocity=95 time=0
EXTRACT: note_on channel=4 note=57 velocity=95 time=0.24
EXTRACT: note_on channel=11 note=68 velocity=95 time=0
EXTRACT: note_on channel=10 note=80 velocity=95 time=0
EXTRACT: note_on channel=13 note=33 velocity=95 time=0
EXTRACT: note_off channel=9 note=60 velocity=95 time=0
EXTRACT: note_on channel=9 note=60 velocity=95 time=0
EXTRACT: note_off channel=9 note=51 velocity=95 time=0
EXTRACT: note_off channel=9 note=35 velocity=95 time=0
EXTRACT: note_on channel=9 note=51 velocity=95 time=0
EXTRACT: note_off channel=0 note=73 velocity=95 time=0.24
EXTRACT: note_off channel=15 note=73 velocity=95 time=0
EXTRACT: note_on channel=15 note=71 velocity=95 time=0
EXTRACT: note_off channel=4 note=57 velocity=95 time=0
EXTRACT: note_off channel=11 note=68 velocity=95 time=0
EXTRACT: note_off channel=10 note=80 velocity=95 time=0
EXTRACT: note_off channel=13 note=33 velocity=95 time=0
EXTRACT: note_on channel=13 note=35 velocity=95 time=0
EXTRACT: note_off channel=9 note=60 velocity=95 time=0
EXTRACT: note_on channel=9 note=60 velocity=95 time=0
EXTRACT: note_off channel=9 note=51 velocity=95 time=0
EXTRACT: note_on channel=9 note=51 velocity=95 time=0
EXTRACT: note_on channel=9 note=38 velocity=95 time=0
EXTRACT: note_on channel=9 note=35 velocity=95 time=0
EXTRACT: note_off channel=15 note=71 velocity=95 time=0.24
EXTRACT: note_on channel=15 note=69 velocity=95 time=0
EXTRACT: note_off channel=13 note=35 velocity=95 time=0
EXTRACT: note_on channel=13 note=36 velocity=95 time=0
EXTRACT: note_off channel=9 note=60 velocity=95 time=0
EXTRACT: note_on channel=9 note=61 velocity=95 time=0
EXTRACT: note_off channel=9 note=51 velocity=95 time=0
EXTRACT: note_off channel=9 note=38 velocity=95 time=0
EXTRACT: note_off channel=9 note=35 velocity=95 time=0
EXTRACT: note_on channel=9 note=51 velocity=95 time=0
EXTRACT: note_on channel=0 note=73 velocity=95 time=0.24
EXTRACT: note_off channel=2 note=68 velocity=95 time=0
EXTRACT: note_off channel=2 note=62 velocity=95 time=0
EXTRACT: note_off channel=2 note=59 velocity=95 time=0
EXTRACT: note_on channel=2 note=71 velocity=95 time=0
EXTRACT: note_on channel=2 note=68 velocity=95 time=0
EXTRACT: note_on channel=2 note=64 velocity=95 time=0
EXTRACT: note_on channel=4 note=50 velocity=95 time=0
EXTRACT: note_off channel=8 note=68 velocity=95 time=0
EXTRACT: note_on channel=8 note=71 velocity=95 time=0
EXTRACT: note_on channel=11 note=69 velocity=95 time=0
EXTRACT: note_on channel=10 note=81 velocity=95 time=0
EXTRACT: note_off channel=13 note=36 velocity=95 time=0
EXTRACT: note_on channel=13 note=37 velocity=95 time=0
EXTRACT: note_off channel=9 note=61 velocity=95 time=0
EXTRACT: note_on channel=9 note=60 velocity=95 time=0
EXTRACT: note_off channel=9 note=51 velocity=95 time=0
EXTRACT: note_on channel=9 note=51 velocity=95 time=0
EXTRACT: note_on channel=9 note=35 velocity=95 time=0
EXTRACT: note_off channel=4 note=50 velocity=95 time=0.031
EXTRACT: note_off channel=0 note=73 velocity=95 time=0.209
EXTRACT: note_on channel=0 note=74 velocity=95 time=0
EXTRACT: note_on channel=4 note=59 velocity=95 time=0
EXTRACT: note_off channel=13 note=37 velocity=95 time=0
EXTRACT: note_on channel=13 note=32 velocity=95 time=0
EXTRACT: note_off channel=9 note=60 velocity=95 time=0
EXTRACT: note_on channel=9 note=60 velocity=95 time=0
EXTRACT: note_off channel=9 note=51 velocity=95 time=0
EXTRACT: note_off channel=9 note=35 velocity=95 time=0
EXTRACT: note_on channel=9 note=51 velocity=95 time=0
EXTRACT: note_off channel=0 note=74 velocity=95 time=0.24
EXTRACT: note_on channel=0 note=73 velocity=95 time=0
EXTRACT: note_off channel=4 note=59 velocity=95 time=0
EXTRACT: note_on channel=4 note=59 velocity=95 time=0
EXTRACT: note_off channel=11 note=69 velocity=95 time=0
EXTRACT: note_on channel=11 note=66 velocity=95 time=0
EXTRACT: note_off channel=10 note=81 velocity=95 time=0
EXTRACT: note_on channel=10 note=78 velocity=95 time=0
EXTRACT: note_off channel=13 note=32 velocity=95 time=0
EXTRACT: note_on channel=13 note=28 velocity=95 time=0
EXTRACT: note_off channel=9 note=60 velocity=95 time=0
EXTRACT: note_on channel=9 note=61 velocity=95 time=0
EXTRACT: note_off channel=9 note=51 velocity=95 time=0
EXTRACT: note_on channel=9 note=51 velocity=95 time=0
EXTRACT: note_on channel=9 note=38 velocity=95 time=0
EXTRACT: note_on channel=9 note=35 velocity=95 time=0
EXTRACT: note_off channel=0 note=73 velocity=95 time=0.24
EXTRACT: note_on channel=0 note=71 velocity=95 time=0
EXTRACT: note_off channel=2 note=71 velocity=95 time=0
EXTRACT: note_off channel=2 note=68 velocity=95 time=0
EXTRACT: note_off channel=2 note=64 velocity=95 time=0
EXTRACT: note_on channel=2 note=69 velocity=95 time=0
EXTRACT: note_on channel=2 note=64 velocity=95 time=0
EXTRACT: note_on channel=2 note=61 velocity=95 time=0
EXTRACT: note_off channel=4 note=59 velocity=95 time=0
EXTRACT: note_on channel=4 note=56 velocity=95 time=0
EXTRACT: note_off channel=8 note=71 velocity=95 time=0
EXTRACT: note_on channel=8 note=69 velocity=95 time=0
EXTRACT: note_off channel=11 note=66 velocity=95 time=0
EXTRACT: note_on channel=11 note=64 velocity=95 time=0
EXTRACT: note_off channel=10 note=78 velocity=95 time=0
EXTRACT: note_on channel=10 note=76 velocity=95 time=0
EXTRACT: note_off channel=9 note=61 velocity=95 time=0
EXTRACT: note_on channel=9 note=60 velocity=95 time=0
EXTRACT: note_off channel=9 note=51 velocity=95 time=0
EXTRACT: note_off channel=9 note=38 velocity=95 time=0
EXTRACT: note_off channel=9 note=35 velocity=95 time=0
EXTRACT: note_on channel=9 note=51 velocity=95 time=0
EXTRACT: note_off channel=0 note=71 velocity=95 time=0.24
EXTRACT: note_on channel=0 note=69 velocity=95 time=0
EXTRACT: note_off channel=15 note=69 velocity=95 time=0
EXTRACT: note_on channel=15 note=66 velocity=95 time=0
EXTRACT: note_off channel=11 note=64 velocity=95 time=0
EXTRACT: note_on channel=11 note=69 velocity=95 time=0
EXTRACT: note_off channel=10 note=76 velocity=95 time=0
EXTRACT: note_on channel=10 note=81 velocity=95 time=0
EXTRACT: note_off channel=13 note=28 velocity=95 time=0
EXTRACT: note_on channel=13 note=30 velocity=95 time=0
EXTRACT: note_off channel=9 note=60 velocity=95 time=0
EXTRACT: note_on channel=9 note=60 velocity=95 time=0
EXTRACT: note_off channel=9 note=51 velocity=95 time=0
EXTRACT: note_on channel=9 note=51 velocity=95 time=0
EXTRACT: note_on channel=9 note=35 velocity=95 time=0
EXTRACT: note_off channel=4 note=56 velocity=95 time=0.24
EXTRACT: note_on channel=4 note=57 velocity=95 time=0
EXTRACT: note_off channel=13 note=30 velocity=95 time=0
EXTRACT: note_off channel=9 note=60 velocity=95 time=0
EXTRACT: note_on channel=9 note=60 velocity=95 time=0
EXTRACT: note_off channel=9 note=51 velocity=95 time=0
EXTRACT: note_off channel=9 note=35 velocity=95 time=0
EXTRACT: note_on channel=9 note=51 velocity=95 time=0
EXTRACT: note_off channel=0 note=69 velocity=95 time=0.24
EXTRACT: note_on channel=0 note=71 velocity=95 time=0
EXTRACT: note_off channel=15 note=66 velocity=95 time=0
EXTRACT: note_off channel=4 note=57 velocity=95 time=0
EXTRACT: note_off channel=11 note=69 velocity=95 time=0
EXTRACT: note_on channel=11 note=66 velocity=95 time=0
EXTRACT: note_off channel=10 note=81 velocity=95 time=0
EXTRACT: note_on channel=10 note=78 velocity=95 time=0
EXTRACT: note_on channel=13 note=32 velocity=95 time=0
EXTRACT: note_off channel=9 note=60 velocity=95 time=0
EXTRACT: note_on channel=9 note=60 velocity=95 time=0
EXTRACT: note_off channel=9 note=51 velocity=95 time=0
EXTRACT: note_on channel=9 note=51 velocity=95 time=0
EXTRACT: note_on channel=9 note=38 velocity=95 time=0
EXTRACT: note_on channel=9 note=35 velocity=95 time=0
EXTRACT: note_off channel=0 note=71 velocity=95 time=0.24
EXTRACT: note_off channel=11 note=66 velocity=95 time=0
EXTRACT: note_on channel=11 note=64 velocity=95 time=0
EXTRACT: note_off channel=10 note=78 velocity=95 time=0
EXTRACT: note_on channel=10 note=76 velocity=95 time=0
EXTRACT: note_off channel=13 note=32 velocity=95 time=0
EXTRACT: note_off channel=9 note=60 velocity=95 time=0
EXTRACT: note_on channel=9 note=61 velocity=95 time=0
EXTRACT: note_off channel=9 note=51 velocity=95 time=0
EXTRACT: note_off channel=9 note=38 velocity=95 time=0
EXTRACT: note_off channel=9 note=35 velocity=95 time=0
EXTRACT: note_on channel=9 note=51 velocity=95 time=0
EXTRACT: note_on channel=0 note=73 velocity=95 time=0.24
EXTRACT: note_off channel=2 note=69 velocity=95 time=0
EXTRACT: note_off channel=2 note=64 velocity=95 time=0
EXTRACT: note_off channel=2 note=61 velocity=95 time=0
EXTRACT: note_on channel=2 note=69 velocity=95 time=0
EXTRACT: note_on channel=2 note=66 velocity=95 time=0
EXTRACT: note_on channel=2 note=62 velocity=95 time=0
EXTRACT: note_off channel=8 note=69 velocity=95 time=0
EXTRACT: note_on channel=8 note=69 velocity=95 time=0
EXTRACT: note_off channel=11 note=64 velocity=95 time=0
EXTRACT: note_off channel=10 note=76 velocity=95 time=0
EXTRACT: note_on channel=13 note=35 velocity=95 time=0
EXTRACT: note_off channel=9 note=61 velocity=95 time=0
EXTRACT: note_on channel=9 note=60 velocity=95 time=0
EXTRACT: note_off channel=9 note=51 velocity=95 time=0
EXTRACT: note_on channel=9 note=51 velocity=95 time=0
EXTRACT: note_on channel=9 note=35 velocity=95 time=0
EXTRACT: note_on channel=4 note=61 velocity=95 time=0.24
EXTRACT: note_on channel=11 note=69 velocity=95 time=0
EXTRACT: note_on channel=10 note=81 velocity=95 time=0
EXTRACT: note_off channel=13 note=35 velocity=95 time=0
EXTRACT: note_on channel=13 note=35 velocity=95 time=0
EXTRACT: note_off channel=9 note=60 velocity=95 time=0
EXTRACT: note_on channel=9 note=60 velocity=95 time=0
EXTRACT: note_off channel=9 note=51 velocity=95 time=0
EXTRACT: note_off channel=9 note=35 velocity=95 time=0
EXTRACT: note_on channel=9 note=51 velocity=95 time=0
EXTRACT: note_off channel=0 note=73 velocity=95 time=0.24
EXTRACT: note_on channel=0 note=74 velocity=95 time=0
EXTRACT: note_off channel=4 note=61 velocity=95 time=0
EXTRACT: note_off channel=11 note=69 velocity=95 time=0
EXTRACT: note_off channel=10 note=81 velocity=95 time=0
EXTRACT: note_off channel=13 note=35 velocity=95 time=0
EXTRACT: note_on channel=13 note=42 velocity=95 time=0
EXTRACT: note_off channel=9 note=60 velocity=95 time=0
EXTRACT: note_on channel=9 note=61 velocity=95 time=0
EXTRACT: note_off channel=9 note=51 velocity=95 time=0
EXTRACT: note_on channel=9 note=51 velocity=95 time=0
EXTRACT: note_on channel=9 note=38 velocity=95 time=0
EXTRACT: note_on channel=9 note=35 velocity=95 time=0
EXTRACT: note_off channel=0 note=74 velocity=95 time=0.24
EXTRACT: note_on channel=0 note=73 velocity=95 time=0
EXTRACT: note_off channel=2 note=69 velocity=95 time=0
EXTRACT: note_off channel=2 note=66 velocity=95 time=0
EXTRACT: note_off channel=2 note=62 velocity=95 time=0
EXTRACT: note_on channel=2 note=68 velocity=95 time=0
EXTRACT: note_on channel=2 note=62 velocity=95 time=0
EXTRACT: note_on channel=2 note=59 velocity=95 time=0
EXTRACT: note_on channel=4 note=59 velocity=95 time=0
EXTRACT: note_off channel=8 note=69 velocity=95 time=0
EXTRACT: note_on channel=8 note=68 velocity=95 time=0
EXTRACT: note_off channel=13 note=42 velocity=95 time=0
EXTRACT: note_on channel=13 note=40 velocity=95 time=0
EXTRACT: note_off channel=9 note=61 velocity=95 time=0
EXTRACT: note_on channel=9 note=60 velocity=95 time=0
EXTRACT: note_off channel=9 note=51 velocity=95 time=0
EXTRACT: note_off channel=9 note=38 velocity=95 time=0
EXTRACT: note_off channel=9 note=35 velocity=95 time=0
EXTRACT: note_on channel=9 note=51 velocity=95 time=0
EXTRACT: note_on channel=15 note=73 velocity=95 time=0.24
EXTRACT: note_off channel=4 note=59 velocity=95 time=0
EXTRACT: note_off channel=13 note=40 velocity=95 time=0
EXTRACT: note_off channel=9 note=60 velocity=95 time=0
EXTRACT: note_on channel=9 note=60 velocity=95 time=0
EXTRACT: note_off channel=9 note=51 velocity=95 time=0
EXTRACT: note_on channel=9 note=51 velocity=95 time=0
EXTRACT: note_on channel=9 note=35 velocity=95 time=0
EXTRACT: note_on channel=4 note=57 velocity=95 time=0.24
EXTRACT: note_on channel=11 note=68 velocity=95 time=0
EXTRACT: note_on channel=10 note=80 velocity=95 time=0
EXTRACT: note_on channel=13 note=33 velocity=95 time=0
EXTRACT: note_off channel=9 note=60 velocity=95 time=0
EXTRACT: note_on channel=9 note=60 velocity=95 time=0
EXTRACT: note_off channel=9 note=51 velocity=95 time=0
EXTRACT: note_off channel=9 note=35 velocity=95 time=0
EXTRACT: note_on channel=9 note=51 velocity=95 time=0
EXTRACT: note_off channel=0 note=73 velocity=95 time=0.24
EXTRACT: note_off channel=15 note=73 velocity=95 time=0
EXTRACT: note_on channel=15 note=71 velocity=95 time=0
EXTRACT: note_off channel=4 note=57 velocity=95 time=0
EXTRACT: note_off channel=11 note=68 velocity=95 time=0
EXTRACT: note_off channel=10 note=80 velocity=95 time=0
EXTRACT: note_off channel=13 note=33 velocity=95 time=0
EXTRACT: note_on channel=13 note=35 velocity=95 time=0
EXTRACT: note_off channel=9 note=60 velocity=95 time=0
EXTRACT: note_on channel=9 note=60 velocity=95 time=0
EXTRACT: note_off channel=9 note=51 velocity=95 time=0
EXTRACT: note_on channel=9 note=51 velocity=95 time=0
EXTRACT: note_on channel=9 note=38 velocity=95 time=0
EXTRACT: note_on channel=9 note=35 velocity=95 time=0
EXTRACT: note_off channel=15 note=71 velocity=95 time=0.24
EXTRACT: note_on channel=15 note=69 velocity=95 time=0
EXTRACT: note_on channel=4 note=50 velocity=95 time=0
EXTRACT: note_off channel=13 note=35 velocity=95 time=0
EXTRACT: note_on channel=13 note=36 velocity=95 time=0
EXTRACT: note_off channel=9 note=60 velocity=95 time=0
EXTRACT: note_on channel=9 note=61 velocity=95 time=0
EXTRACT: note_off channel=9 note=51 velocity=95 time=0
EXTRACT: note_off channel=9 note=38 velocity=95 time=0
EXTRACT: note_off channel=9 note=35 velocity=95 time=0
EXTRACT: note_on channel=9 note=51 velocity=95 time=0
EXTRACT: note_off channel=4 note=50 velocity=95 time=0.031
EXTRACT: note_on channel=0 note=73 velocity=95 time=0.209
EXTRACT: note_off channel=2 note=68 velocity=95 time=0
EXTRACT: note_off channel=2 note=62 velocity=95 time=0
EXTRACT: note_off channel=2 note=59 velocity=95 time=0
EXTRACT: note_on channel=2 note=71 velocity=95 time=0
EXTRACT: note_on channel=2 note=68 velocity=95 time=0
EXTRACT: note_on channel=2 note=64 velocity=95 time=0
EXTRACT: note_on channel=5 note=59 velocity=95 time=0
EXTRACT: note_off channel=8 note=68 velocity=95 time=0
EXTRACT: note_on channel=8 note=71 velocity=95 time=0
EXTRACT: note_on channel=11 note=69 velocity=95 time=0
EXTRACT: note_on channel=10 note=81 velocity=95 time=0
EXTRACT: note_off channel=13 note=36 velocity=95 time=0
EXTRACT: note_on channel=13 note=37 velocity=95 time=0
EXTRACT: note_off channel=9 note=61 velocity=95 time=0
EXTRACT: note_on channel=9 note=60 velocity=95 time=0
EXTRACT: note_off channel=9 note=51 velocity=95 time=0
EXTRACT: note_on channel=9 note=51 velocity=95 time=0
EXTRACT: note_on channel=9 note=35 velocity=95 time=0
EXTRACT: pitchwheel channel=5 pitch=0 time=0.06
EXTRACT: pitchwheel channel=5 pitch=0 time=0.06
EXTRACT: pitchwheel channel=5 pitch=0 time=0.06
EXTRACT: note_off channel=0 note=73 velocity=95 time=0.06
EXTRACT: note_on channel=0 note=74 velocity=95 time=0
EXTRACT: pitchwheel channel=5 pitch=0 time=0
EXTRACT: pitchwheel channel=5 pitch=0 time=0
EXTRACT: note_off channel=5 note=59 velocity=95 time=0
EXTRACT: note_on channel=4 note=59 velocity=95 time=0
EXTRACT: note_off channel=13 note=37 velocity=95 time=0
EXTRACT: note_on channel=13 note=32 velocity=95 time=0
EXTRACT: note_off channel=9 note=60 velocity=95 time=0
EXTRACT: note_on channel=9 note=60 velocity=95 time=0
EXTRACT: note_off channel=9 note=51 velocity=95 time=0
EXTRACT: note_off channel=9 note=35 velocity=95 time=0
EXTRACT: note_on channel=9 note=51 velocity=95 time=0
EXTRACT: note_off channel=0 note=74 velocity=95 time=0.24
EXTRACT: note_on channel=0 note=73 velocity=95 time=0
EXTRACT: note_off channel=4 note=59 velocity=95 time=0
EXTRACT: note_on channel=4 note=59 velocity=95 time=0
EXTRACT: note_off channel=11 note=69 velocity=95 time=0
EXTRACT: note_on channel=11 note=66 velocity=95 time=0
EXTRACT: note_off channel=10 note=81 velocity=95 time=0
EXTRACT: note_on channel=10 note=78 velocity=95 time=0
EXTRACT: note_off channel=13 note=32 velocity=95 time=0
EXTRACT: note_on channel=13 note=28 velocity=95 time=0
EXTRACT: note_off channel=9 note=60 velocity=95 time=0
EXTRACT: note_on channel=9 note=61 velocity=95 time=0
EXTRACT: note_off channel=9 note=51 velocity=95 time=0
EXTRACT: note_on channel=9 note=51 velocity=95 time=0
EXTRACT: note_on channel=9 note=38 velocity=95 time=0
EXTRACT: note_on channel=9 note=35 velocity=95 time=0
EXTRACT: note_off channel=0 note=73 velocity=95 time=0.24
EXTRACT: note_on channel=0 note=71 velocity=95 time=0
EXTRACT: note_off channel=2 note=71 velocity=95 time=0
EXTRACT: note_off channel=2 note=68 velocity=95 time=0
EXTRACT: note_off channel=2 note=64 velocity=95 time=0
EXTRACT: note_on channel=2 note=69 velocity=95 time=0
EXTRACT: note_on channel=2 note=64 velocity=95 time=0
EXTRACT: note_on channel=2 note=61 velocity=95 time=0
EXTRACT: note_off channel=4 note=59 velocity=95 time=0
EXTRACT: note_on channel=4 note=56 velocity=95 time=0
EXTRACT: note_off channel=8 note=71 velocity=95 time=0
EXTRACT: note_on channel=8 note=69 velocity=95 time=0
EXTRACT: note_off channel=11 note=66 velocity=95 time=0
EXTRACT: note_on channel=11 note=64 velocity=95 time=0
EXTRACT: note_off channel=10 note=78 velocity=95 time=0
EXTRACT: note_on channel=10 note=76 velocity=95 time=0
EXTRACT: note_off channel=9 note=61 velocity=95 time=0
EXTRACT: note_on channel=9 note=60 velocity=95 time=0
EXTRACT: note_off channel=9 note=51 velocity=95 time=0
EXTRACT: note_off channel=9 note=38 velocity=95 time=0
EXTRACT: note_off channel=9 note=35 velocity=95 time=0
EXTRACT: note_on channel=9 note=51 velocity=95 time=0
EXTRACT: note_off channel=0 note=71 velocity=95 time=0.24
EXTRACT: note_on channel=0 note=69 velocity=95 time=0
EXTRACT: note_off channel=15 note=69 velocity=95 time=0
EXTRACT: note_on channel=15 note=66 velocity=95 time=0
EXTRACT: note_off channel=11 note=64 velocity=95 time=0
EXTRACT: note_on channel=11 note=69 velocity=95 time=0
EXTRACT: note_off channel=10 note=76 velocity=95 time=0
EXTRACT: note_on channel=10 note=81 velocity=95 time=0
EXTRACT: note_off channel=13 note=28 velocity=95 time=0
EXTRACT: note_on channel=13 note=30 velocity=95 time=0
EXTRACT: note_off channel=9 note=60 velocity=95 time=0
EXTRACT: note_on channel=9 note=60 velocity=95 time=0
EXTRACT: note_off channel=9 note=51 velocity=95 time=0
EXTRACT: note_on channel=9 note=51 velocity=95 time=0
EXTRACT: note_on channel=9 note=35 velocity=95 time=0
EXTRACT: note_off channel=4 note=56 velocity=95 time=0.24
EXTRACT: note_on channel=4 note=57 velocity=95 time=0
EXTRACT: note_off channel=13 note=30 velocity=95 time=0
EXTRACT: note_off channel=9 note=60 velocity=95 time=0
EXTRACT: note_on channel=9 note=60 velocity=95 time=0
EXTRACT: note_off channel=9 note=51 velocity=95 time=0
EXTRACT: note_off channel=9 note=35 velocity=95 time=0
EXTRACT: note_on channel=9 note=51 velocity=95 time=0
EXTRACT: note_off channel=0 note=69 velocity=95 time=0.24
EXTRACT: note_on channel=0 note=71 velocity=95 time=0
EXTRACT: note_off channel=15 note=66 velocity=95 time=0
EXTRACT: note_off channel=4 note=57 velocity=95 time=0
EXTRACT: note_off channel=11 note=69 velocity=95 time=0
EXTRACT: note_on channel=11 note=66 velocity=95 time=0
EXTRACT: note_off channel=10 note=81 velocity=95 time=0
EXTRACT: note_on channel=10 note=78 velocity=95 time=0
EXTRACT: note_on channel=13 note=32 velocity=95 time=0
EXTRACT: note_off channel=9 note=60 velocity=95 time=0
EXTRACT: note_on channel=9 note=60 velocity=95 time=0
EXTRACT: note_off channel=9 note=51 velocity=95 time=0
EXTRACT: note_on channel=9 note=51 velocity=95 time=0
EXTRACT: note_on channel=9 note=38 velocity=95 time=0
EXTRACT: note_on channel=9 note=35 velocity=95 time=0
EXTRACT: note_off channel=0 note=71 velocity=95 time=0.24
EXTRACT: note_on channel=4 note=40 velocity=95 time=0
EXTRACT: note_off channel=11 note=66 velocity=95 time=0
EXTRACT: note_on channel=11 note=64 velocity=95 time=0
EXTRACT: note_off channel=10 note=78 velocity=95 time=0
EXTRACT: note_on channel=10 note=76 velocity=95 time=0
EXTRACT: note_off channel=13 note=32 velocity=95 time=0
EXTRACT: note_off channel=9 note=60 velocity=95 time=0
EXTRACT: note_on channel=9 note=61 velocity=95 time=0
EXTRACT: note_off channel=9 note=51 velocity=95 time=0
EXTRACT: note_off channel=9 note=38 velocity=95 time=0
EXTRACT: note_off channel=9 note=35 velocity=95 time=0
EXTRACT: note_on channel=9 note=51 velocity=95 time=0
EXTRACT: note_off channel=4 note=40 velocity=95 time=0.031
EXTRACT: note_on channel=0 note=73 velocity=95 time=0.209
EXTRACT: note_off channel=2 note=69 velocity=95 time=0
EXTRACT: note_off channel=2 note=64 velocity=95 time=0
EXTRACT: note_off channel=2 note=61 velocity=95 time=0
EXTRACT: note_on channel=2 note=69 velocity=95 time=0
EXTRACT: note_on channel=2 note=66 velocity=95 time=0
EXTRACT: note_on channel=2 note=62 velocity=95 time=0
EXTRACT: note_off channel=8 note=69 velocity=95 time=0
EXTRACT: note_on channel=8 note=69 velocity=95 time=0
EXTRACT: note_off channel=11 note=64 velocity=95 time=0
EXTRACT: note_off channel=10 note=76 velocity=95 time=0
EXTRACT: note_on channel=13 note=35 velocity=95 time=0
EXTRACT: note_off channel=9 note=61 velocity=95 time=0
EXTRACT: note_on channel=9 note=60 velocity=95 time=0
EXTRACT: note_off channel=9 note=51 velocity=95 time=0
EXTRACT: note_on channel=9 note=51 velocity=95 time=0
EXTRACT: note_on channel=9 note=35 velocity=95 time=0
EXTRACT: note_on channel=5 note=61 velocity=95 time=0.24
EXTRACT: note_on channel=11 note=69 velocity=95 time=0
EXTRACT: note_on channel=10 note=81 velocity=95 time=0
EXTRACT: note_off channel=13 note=35 velocity=95 time=0
EXTRACT: note_on channel=13 note=35 velocity=95 time=0
EXTRACT: note_off channel=9 note=60 velocity=95 time=0
EXTRACT: note_on channel=9 note=60 velocity=95 time=0
EXTRACT: note_off channel=9 note=51 velocity=95 time=0
EXTRACT: note_off channel=9 note=35 velocity=95 time=0
EXTRACT: note_on channel=9 note=51 velocity=95 time=0
EXTRACT: note_off channel=0 note=73 velocity=95 time=0.24
EXTRACT: note_on channel=0 note=74 velocity=95 time=0
EXTRACT: note_off channel=5 note=61 velocity=95 time=0
EXTRACT: note_off channel=11 note=69 velocity=95 time=0
EXTRACT: note_off channel=10 note=81 velocity=95 time=0
EXTRACT: note_off channel=13 note=35 velocity=95 time=0
EXTRACT: note_on channel=13 note=42 velocity=95 time=0
EXTRACT: note_off channel=9 note=60 velocity=95 time=0
EXTRACT: note_on channel=9 note=61 velocity=95 time=0
EXTRACT: note_off channel=9 note=51 velocity=95 time=0
EXTRACT: note_on channel=9 note=51 velocity=95 time=0
EXTRACT: note_on channel=9 note=38 velocity=95 time=0
EXTRACT: note_on channel=9 note=35 velocity=95 time=0
EXTRACT: note_off channel=0 note=74 velocity=95 time=0.24
EXTRACT: note_on channel=0 note=73 velocity=95 time=0
EXTRACT: note_off channel=2 note=69 velocity=95 time=0
EXTRACT: note_off channel=2 note=66 velocity=95 time=0
EXTRACT: note_off channel=2 note=62 velocity=95 time=0
EXTRACT: note_on channel=2 note=68 velocity=95 time=0
EXTRACT: note_on channel=2 note=62 velocity=95 time=0
EXTRACT: note_on channel=2 note=59 velocity=95 time=0
EXTRACT: note_on channel=4 note=59 velocity=95 time=0
EXTRACT: note_off channel=8 note=69 velocity=95 time=0
EXTRACT: note_on channel=8 note=68 velocity=95 time=0
EXTRACT: note_off channel=13 note=42 velocity=95 time=0
EXTRACT: note_on channel=13 note=40 velocity=95 time=0
EXTRACT: note_off channel=9 note=61 velocity=95 time=0
EXTRACT: note_on channel=9 note=60 velocity=95 time=0
EXTRACT: note_off channel=9 note=51 velocity=95 time=0
EXTRACT: note_off channel=9 note=38 velocity=95 time=0
EXTRACT: note_off channel=9 note=35 velocity=95 time=0
EXTRACT: note_on channel=9 note=51 velocity=95 time=0
EXTRACT: note_on channel=15 note=73 velocity=95 time=0.24
EXTRACT: note_off channel=4 note=59 velocity=95 time=0
EXTRACT: note_off channel=13 note=40 velocity=95 time=0
EXTRACT: note_off channel=9 note=60 velocity=95 time=0
EXTRACT: note_on channel=9 note=60 velocity=95 time=0
EXTRACT: note_off channel=9 note=51 velocity=95 time=0
EXTRACT: note_on channel=9 note=51 velocity=95 time=0
EXTRACT: note_on channel=9 note=35 velocity=95 time=0
EXTRACT: note_on channel=4 note=57 velocity=95 time=0.24
EXTRACT: note_on channel=11 note=68 velocity=95 time=0
EXTRACT: note_on channel=10 note=80 velocity=95 time=0
EXTRACT: note_on channel=13 note=33 velocity=95 time=0
EXTRACT: note_off channel=9 note=60 velocity=95 time=0
EXTRACT: note_on channel=9 note=60 velocity=95 time=0
EXTRACT: note_off channel=9 note=51 velocity=95 time=0
EXTRACT: note_off channel=9 note=35 velocity=95 time=0
EXTRACT: note_on channel=9 note=51 velocity=95 time=0
EXTRACT: note_off channel=0 note=73 velocity=95 time=0.24
EXTRACT: note_off channel=15 note=73 velocity=95 time=0
EXTRACT: note_on channel=15 note=71 velocity=95 time=0
EXTRACT: note_off channel=4 note=57 velocity=95 time=0
EXTRACT: note_off channel=11 note=68 velocity=95 time=0
EXTRACT: note_off channel=10 note=80 velocity=95 time=0
EXTRACT: note_off channel=13 note=33 velocity=95 time=0
EXTRACT: note_on channel=13 note=35 velocity=95 time=0
EXTRACT: note_off channel=9 note=60 velocity=95 time=0
EXTRACT: note_on channel=9 note=60 velocity=95 time=0
EXTRACT: note_off channel=9 note=51 velocity=95 time=0
EXTRACT: note_on channel=9 note=51 velocity=95 time=0
EXTRACT: note_on channel=9 note=38 velocity=95 time=0
EXTRACT: note_on channel=9 note=35 velocity=95 time=0
EXTRACT: note_off channel=15 note=71 velocity=95 time=0.24
EXTRACT: note_on channel=15 note=69 velocity=95 time=0
EXTRACT: note_on channel=4 note=45 velocity=95 time=0
EXTRACT: note_off channel=13 note=35 velocity=95 time=0
EXTRACT: note_on channel=13 note=36 velocity=95 time=0
EXTRACT: note_off channel=9 note=60 velocity=95 time=0
EXTRACT: note_on channel=9 note=61 velocity=95 time=0
EXTRACT: note_off channel=9 note=51 velocity=95 time=0
EXTRACT: note_off channel=9 note=38 velocity=95 time=0
EXTRACT: note_off channel=9 note=35 velocity=95 time=0
EXTRACT: note_on channel=9 note=51 velocity=95 time=0
EXTRACT: note_off channel=4 note=45 velocity=95 time=0.031
EXTRACT: note_on channel=0 note=73 velocity=95 time=0.209
EXTRACT: note_off channel=2 note=68 velocity=95 time=0
EXTRACT: note_off channel=2 note=62 velocity=95 time=0
EXTRACT: note_off channel=2 note=59 velocity=95 time=0
EXTRACT: note_on channel=2 note=71 velocity=95 time=0
EXTRACT: note_on channel=2 note=68 velocity=95 time=0
EXTRACT: note_on channel=2 note=64 velocity=95 time=0
EXTRACT: note_on channel=5 note=59 velocity=95 time=0
EXTRACT: note_off channel=8 note=68 velocity=95 time=0
EXTRACT: note_on channel=8 note=71 velocity=95 time=0
EXTRACT: note_on channel=11 note=69 velocity=95 time=0
EXTRACT: note_on channel=10 note=81 velocity=95 time=0
EXTRACT: note_off channel=13 note=36 velocity=95 time=0
EXTRACT: note_on channel=13 note=37 velocity=95 time=0
EXTRACT: note_off channel=9 note=61 velocity=95 time=0
EXTRACT: note_on channel=9 note=60 velocity=95 time=0
EXTRACT: note_off channel=9 note=51 velocity=95 time=0
EXTRACT: note_on channel=9 note=51 velocity=95 time=0
EXTRACT: note_on channel=9 note=35 velocity=95 time=0
EXTRACT: pitchwheel channel=5 pitch=0 time=0.06
EXTRACT: pitchwheel channel=5 pitch=0 time=0.06
EXTRACT: pitchwheel channel=5 pitch=0 time=0.06
EXTRACT: note_off channel=0 note=73 velocity=95 time=0.06
EXTRACT: note_on channel=0 note=74 velocity=95 time=0
EXTRACT: pitchwheel channel=5 pitch=0 time=0
EXTRACT: pitchwheel channel=5 pitch=0 time=0
EXTRACT: note_off channel=5 note=59 velocity=95 time=0
EXTRACT: note_on channel=4 note=59 velocity=95 time=0
EXTRACT: note_off channel=13 note=37 velocity=95 time=0
EXTRACT: note_on channel=13 note=32 velocity=95 time=0
EXTRACT: note_off channel=9 note=60 velocity=95 time=0
EXTRACT: note_on channel=9 note=60 velocity=95 time=0
EXTRACT: note_off channel=9 note=51 velocity=95 time=0
EXTRACT: note_off channel=9 note=35 velocity=95 time=0
EXTRACT: note_on channel=9 note=51 velocity=95 time=0
EXTRACT: note_off channel=0 note=74 velocity=95 time=0.24
EXTRACT: note_on channel=0 note=73 velocity=95 time=0
EXTRACT: note_off channel=4 note=59 velocity=95 time=0
EXTRACT: note_on channel=4 note=59 velocity=95 time=0
EXTRACT: note_off channel=11 note=69 velocity=95 time=0
EXTRACT: note_on channel=11 note=66 velocity=95 time=0
EXTRACT: note_off channel=10 note=81 velocity=95 time=0
EXTRACT: note_on channel=10 note=78 velocity=95 time=0
EXTRACT: note_off channel=13 note=32 velocity=95 time=0
EXTRACT: note_on channel=13 note=28 velocity=95 time=0
EXTRACT: note_off channel=9 note=60 velocity=95 time=0
EXTRACT: note_on channel=9 note=61 velocity=95 time=0
EXTRACT: note_off channel=9 note=51 velocity=95 time=0
EXTRACT: note_on channel=9 note=51 velocity=95 time=0
EXTRACT: note_on channel=9 note=38 velocity=95 time=0
EXTRACT: note_on channel=9 note=35 velocity=95 time=0
EXTRACT: note_off channel=0 note=73 velocity=95 time=0.24
EXTRACT: note_on channel=0 note=71 velocity=95 time=0
EXTRACT: note_off channel=2 note=71 velocity=95 time=0
EXTRACT: note_off channel=2 note=68 velocity=95 time=0
EXTRACT: note_off channel=2 note=64 velocity=95 time=0
EXTRACT: note_on channel=2 note=69 velocity=95 time=0
EXTRACT: note_on channel=2 note=64 velocity=95 time=0
EXTRACT: note_on channel=2 note=61 velocity=95 time=0
EXTRACT: note_off channel=4 note=59 velocity=95 time=0
EXTRACT: note_on channel=4 note=56 velocity=95 time=0
EXTRACT: note_off channel=8 note=71 velocity=95 time=0
EXTRACT: note_on channel=8 note=69 velocity=95 time=0
EXTRACT: note_off channel=11 note=66 velocity=95 time=0
EXTRACT: note_on channel=11 note=64 velocity=95 time=0
EXTRACT: note_off channel=10 note=78 velocity=95 time=0
EXTRACT: note_on channel=10 note=76 velocity=95 time=0
EXTRACT: note_off channel=9 note=61 velocity=95 time=0
EXTRACT: note_on channel=9 note=60 velocity=95 time=0
EXTRACT: note_off channel=9 note=51 velocity=95 time=0
EXTRACT: note_off channel=9 note=38 velocity=95 time=0
EXTRACT: note_off channel=9 note=35 velocity=95 time=0
EXTRACT: note_on channel=9 note=51 velocity=95 time=0
EXTRACT: note_off channel=0 note=71 velocity=95 time=0.24
EXTRACT: note_on channel=0 note=66 velocity=95 time=0
EXTRACT: note_off channel=15 note=69 velocity=95 time=0
EXTRACT: note_on channel=15 note=66 velocity=95 time=0
EXTRACT: note_off channel=11 note=64 velocity=95 time=0
EXTRACT: note_on channel=11 note=69 velocity=95 time=0
EXTRACT: note_off channel=10 note=76 velocity=95 time=0
EXTRACT: note_on channel=10 note=81 velocity=95 time=0
EXTRACT: note_off channel=13 note=28 velocity=95 time=0
EXTRACT: note_on channel=13 note=30 velocity=95 time=0
EXTRACT: note_off channel=9 note=60 velocity=95 time=0
EXTRACT: note_on channel=9 note=60 velocity=95 time=0
EXTRACT: note_off channel=9 note=51 velocity=95 time=0
EXTRACT: note_on channel=9 note=51 velocity=95 time=0
EXTRACT: note_on channel=9 note=35 velocity=95 time=0
EXTRACT: note_off channel=4 note=56 velocity=95 time=0.24
EXTRACT: note_on channel=4 note=57 velocity=95 time=0
EXTRACT: note_off channel=13 note=30 velocity=95 time=0
EXTRACT: note_off channel=9 note=60 velocity=95 time=0
EXTRACT: note_on channel=9 note=60 velocity=95 time=0
EXTRACT: note_off channel=9 note=51 velocity=95 time=0
EXTRACT: note_off channel=9 note=35 velocity=95 time=0
EXTRACT: note_on channel=9 note=51 velocity=95 time=0
EXTRACT: note_off channel=0 note=66 velocity=95 time=0.24
EXTRACT: note_on channel=0 note=66 velocity=95 time=0
EXTRACT: note_off channel=15 note=66 velocity=95 time=0
EXTRACT: note_off channel=4 note=57 velocity=95 time=0
EXTRACT: note_off channel=11 note=69 velocity=95 time=0
EXTRACT: note_on channel=11 note=66 velocity=95 time=0
EXTRACT: note_off channel=10 note=81 velocity=95 time=0
EXTRACT: note_on channel=10 note=78 velocity=95 time=0
EXTRACT: note_on channel=13 note=32 velocity=95 time=0
EXTRACT: note_off channel=9 note=60 velocity=95 time=0
EXTRACT: note_on channel=9 note=60 velocity=95 time=0
EXTRACT: note_off channel=9 note=51 velocity=95 time=0
EXTRACT: note_on channel=9 note=51 velocity=95 time=0
EXTRACT: note_on channel=9 note=38 velocity=95 time=0
EXTRACT: note_on channel=9 note=35 velocity=95 time=0
EXTRACT: note_off channel=0 note=66 velocity=95 time=0.24
EXTRACT: note_on channel=0 note=71 velocity=95 time=0
EXTRACT: note_on channel=15 note=76 velocity=95 time=0
EXTRACT: note_on channel=4 note=40 velocity=95 time=0
EXTRACT: note_off channel=11 note=66 velocity=95 time=0
EXTRACT: note_on channel=11 note=64 velocity=95 time=0
EXTRACT: note_off channel=10 note=78 velocity=95 time=0
EXTRACT: note_on channel=10 note=76 velocity=95 time=0
EXTRACT: note_off channel=13 note=32 velocity=95 time=0
EXTRACT: note_off channel=9 note=60 velocity=95 time=0
EXTRACT: note_on channel=9 note=61 velocity=95 time=0
EXTRACT: note_off channel=9 note=51 velocity=95 time=0
EXTRACT: note_off channel=9 note=38 velocity=95 time=0
EXTRACT: note_off channel=9 note=35 velocity=95 time=0
EXTRACT: note_on channel=9 note=51 velocity=95 time=0
EXTRACT: note_off channel=4 note=40 velocity=95 time=0.031
EXTRACT: note_off channel=0 note=71 velocity=95 time=0.209
EXTRACT: note_on channel=0 note=69 velocity=70 time=0
EXTRACT: note_off channel=2 note=69 velocity=95 time=0
EXTRACT: note_off channel=2 note=64 velocity=95 time=0
EXTRACT: note_off channel=2 note=61 velocity=95 time=0
EXTRACT: note_on channel=2 note=69 velocity=95 time=0
EXTRACT: note_on channel=2 note=67 velocity=95 time=0
EXTRACT: note_on channel=2 note=62 velocity=95 time=0
EXTRACT: note_on channel=2 note=59 velocity=95 time=0
EXTRACT: note_on channel=5 note=52 velocity=95 time=0
EXTRACT: note_off channel=8 note=69 velocity=95 time=0
EXTRACT: note_on channel=8 note=69 velocity=95 time=0
EXTRACT: note_off channel=11 note=64 velocity=95 time=0
EXTRACT: note_on channel=11 note=69 velocity=95 time=0
EXTRACT: note_off channel=10 note=76 velocity=95 time=0
EXTRACT: note_on channel=10 note=81 velocity=95 time=0
EXTRACT: note_on channel=10 note=76 velocity=95 time=0
EXTRACT: note_on channel=13 note=33 velocity=95 time=0
EXTRACT: note_off channel=9 note=61 velocity=95 time=0
EXTRACT: note_on channel=9 note=60 velocity=95 time=0
EXTRACT: note_off channel=9 note=51 velocity=95 time=0
EXTRACT: note_on channel=9 note=51 velocity=95 time=0
EXTRACT: note_on channel=9 note=35 velocity=95 time=0
EXTRACT: pitchwheel channel=5 pitch=0 time=0.06
EXTRACT: pitchwheel channel=5 pitch=0 time=0.06
EXTRACT: note_off channel=13 note=33 velocity=95 time=0
EXTRACT: pitchwheel channel=5 pitch=0 time=0.06
EXTRACT: pitchwheel channel=5 pitch=0 time=0.06
EXTRACT: note_off channel=11 note=69 velocity=95 time=0
EXTRACT: note_on channel=11 note=69 velocity=95 time=0
EXTRACT: note_off channel=10 note=81 velocity=95 time=0
EXTRACT: note_off channel=10 note=76 velocity=95 time=0
EXTRACT: note_on channel=10 note=81 velocity=95 time=0
EXTRACT: note_on channel=10 note=76 velocity=95 time=0
EXTRACT: note_on channel=13 note=33 velocity=95 time=0
EXTRACT: note_off channel=9 note=60 velocity=95 time=0
EXTRACT: note_on channel=9 note=60 velocity=95 time=0
EXTRACT: note_off channel=9 note=51 velocity=95 time=0
EXTRACT: note_off channel=9 note=35 velocity=95 time=0
EXTRACT: note_on channel=9 note=51 velocity=95 time=0
EXTRACT: pitchwheel channel=5 pitch=0 time=0.06
EXTRACT: pitchwheel channel=5 pitch=0 time=0.06
EXTRACT: pitchwheel channel=5 pitch=0 time=0
EXTRACT: note_off channel=5 note=52 velocity=95 time=0
EXTRACT: note_on channel=4 note=52 velocity=95 time=0
EXTRACT: note_off channel=4 note=52 velocity=95 time=0.12
EXTRACT: note_off channel=13 note=33 velocity=95 time=0
EXTRACT: note_on channel=13 note=55 velocity=95 time=0
EXTRACT: note_off channel=9 note=60 velocity=95 time=0
EXTRACT: note_on channel=9 note=61 velocity=95 time=0
EXTRACT: note_off channel=9 note=51 velocity=95 time=0
EXTRACT: note_on channel=9 note=51 velocity=95 time=0
EXTRACT: note_on channel=9 note=38 velocity=95 time=0
EXTRACT: note_on channel=9 note=35 velocity=95 time=0
EXTRACT: note_on channel=4 note=54 velocity=95 time=0.24
EXTRACT: note_off channel=11 note=69 velocity=95 time=0
EXTRACT: note_on channel=11 note=69 velocity=95 time=0
EXTRACT: note_off channel=10 note=81 velocity=95 time=0
EXTRACT: note_off channel=10 note=76 velocity=95 time=0
EXTRACT: note_on channel=10 note=81 velocity=95 time=0
EXTRACT: note_on channel=10 note=76 velocity=95 time=0
EXTRACT: note_off channel=13 note=55 velocity=95 time=0
EXTRACT: note_on channel=13 note=57 velocity=95 time=0
EXTRACT: note_off channel=9 note=61 velocity=95 time=0
EXTRACT: note_on channel=9 note=60 velocity=95 time=0
EXTRACT: note_off channel=9 note=51 velocity=95 time=0
EXTRACT: note_off channel=9 note=38 velocity=95 time=0
EXTRACT: note_off channel=9 note=35 velocity=95 time=0
EXTRACT: note_on channel=9 note=51 velocity=95 time=0
EXTRACT: note_off channel=4 note=54 velocity=95 time=0.24
EXTRACT: note_on channel=4 note=57 velocity=95 time=0
EXTRACT: note_off channel=11 note=69 velocity=95 time=0
EXTRACT: note_on channel=11 note=69 velocity=95 time=0
EXTRACT: note_off channel=10 note=81 velocity=95 time=0
EXTRACT: note_off channel=10 note=76 velocity=95 time=0
EXTRACT: note_on channel=10 note=81 velocity=95 time=0
EXTRACT: note_on channel=10 note=76 velocity=95 time=0
EXTRACT: note_off channel=13 note=57 velocity=95 time=0
EXTRACT: note_on channel=13 note=33 velocity=95 time=0
EXTRACT: note_off channel=9 note=60 velocity=95 time=0
EXTRACT: note_on channel=9 note=60 velocity=95 time=0
EXTRACT: note_off channel=9 note=51 velocity=95 time=0
EXTRACT: note_on channel=9 note=51 velocity=95 time=0
EXTRACT: note_on channel=9 note=35 velocity=95 time=0
EXTRACT: note_off channel=13 note=33 velocity=95 time=0.12
EXTRACT: note_on channel=13 note=33 velocity=95 time=0.12
EXTRACT: note_off channel=9 note=60 velocity=95 time=0
EXTRACT: note_on channel=9 note=60 velocity=95 time=0
EXTRACT: note_off channel=9 note=51 velocity=95 time=0
EXTRACT: note_off channel=9 note=35 velocity=95 time=0
EXTRACT: note_on channel=9 note=51 velocity=95 time=0
EXTRACT: note_off channel=4 note=57 velocity=95 time=0.24
EXTRACT: note_off channel=11 note=69 velocity=95 time=0
EXTRACT: note_on channel=11 note=69 velocity=95 time=0
EXTRACT: note_off channel=10 note=81 velocity=95 time=0
EXTRACT: note_off channel=10 note=76 velocity=95 time=0
EXTRACT: note_on channel=10 note=81 velocity=95 time=0
EXTRACT: note_on channel=10 note=76 velocity=95 time=0
EXTRACT: note_off channel=13 note=33 velocity=95 time=0
EXTRACT: note_on channel=13 note=55 velocity=95 time=0
EXTRACT: note_off channel=9 note=60 velocity=95 time=0
EXTRACT: note_on channel=9 note=60 velocity=95 time=0
EXTRACT: note_off channel=9 note=51 velocity=95 time=0
EXTRACT: note_on channel=9 note=51 velocity=95 time=0
EXTRACT: note_on channel=9 note=38 velocity=95 time=0
EXTRACT: note_on channel=9 note=35 velocity=95 time=0
EXTRACT: note_on channel=4 note=40 velocity=95 time=0.24
EXTRACT: note_off channel=11 note=69 velocity=95 time=0
EXTRACT: note_on channel=11 note=69 velocity=95 time=0
EXTRACT: note_off channel=10 note=81 velocity=95 time=0
EXTRACT: note_off channel=10 note=76 velocity=95 time=0
EXTRACT: note_on channel=10 note=81 velocity=95 time=0
EXTRACT: note_on channel=10 note=76 velocity=95 time=0
EXTRACT: note_off channel=13 note=55 velocity=95 time=0
EXTRACT: note_on channel=13 note=57 velocity=95 time=0
EXTRACT: note_off channel=9 note=60 velocity=95 time=0
EXTRACT: note_on channel=9 note=61 velocity=95 time=0
EXTRACT: note_off channel=9 note=51 velocity=95 time=0
EXTRACT: note_off channel=9 note=38 velocity=95 time=0
EXTRACT: note_off channel=9 note=35 velocity=95 time=0
EXTRACT: note_on channel=9 note=51 velocity=95 time=0
EXTRACT: note_off channel=4 note=40 velocity=95 time=0.031
EXTRACT: note_off channel=2 note=69 velocity=95 time=0.209
EXTRACT: note_off channel=2 note=67 velocity=95 time=0
EXTRACT: note_off channel=2 note=62 velocity=95 time=0
EXTRACT: note_off channel=2 note=59 velocity=95 time=0
EXTRACT: note_on channel=2 note=69 velocity=95 time=0
EXTRACT: note_on channel=2 note=67 velocity=95 time=0
EXTRACT: note_on channel=2 note=62 velocity=95 time=0
EXTRACT: note_on channel=2 note=59 velocity=95 time=0
EXTRACT: note_on channel=5 note=52 velocity=95 time=0
EXTRACT: note_off channel=8 note=69 velocity=95 time=0
EXTRACT: note_on channel=8 note=69 velocity=95 time=0
EXTRACT: note_off channel=13 note=57 velocity=95 time=0
EXTRACT: note_on channel=13 note=33 velocity=95 time=0
EXTRACT: note_off channel=9 note=61 velocity=95 time=0
EXTRACT: note_on channel=9 note=60 velocity=95 time=0
EXTRACT: note_off channel=9 note=51 velocity=95 time=0
EXTRACT: note_on channel=9 note=51 velocity=95 time=0
EXTRACT: note_on channel=9 note=35 velocity=95 time=0
EXTRACT: pitchwheel channel=5 pitch=0 time=0.06
EXTRACT: pitchwheel channel=5 pitch=0 time=0.06
EXTRACT: note_off channel=13 note=33 velocity=95 time=0
EXTRACT: pitchwheel channel=5 pitch=0 time=0.06
EXTRACT: pitchwheel channel=5 pitch=0 time=0.06
EXTRACT: note_off channel=11 note=69 velocity=95 time=0
EXTRACT: note_on channel=11 note=69 velocity=95 time=0
EXTRACT: note_off channel=10 note=81 velocity=95 time=0
EXTRACT: note_off channel=10 note=76 velocity=95 time=0
EXTRACT: note_on channel=10 note=81 velocity=95 time=0
EXTRACT: note_on channel=10 note=76 velocity=95 time=0
EXTRACT: note_on channel=13 note=33 velocity=95 time=0
EXTRACT: note_off channel=9 note=60 velocity=95 time=0
EXTRACT: note_on channel=9 note=60 velocity=95 time=0
EXTRACT: note_off channel=9 note=51 velocity=95 time=0
EXTRACT: note_off channel=9 note=35 velocity=95 time=0
EXTRACT: note_on channel=9 note=51 velocity=95 time=0
EXTRACT: pitchwheel channel=5 pitch=0 time=0.06
EXTRACT: pitchwheel channel=5 pitch=0 time=0.06
EXTRACT: pitchwheel channel=5 pitch=0 time=0
EXTRACT: note_off channel=5 note=52 velocity=95 time=0
EXTRACT: note_on channel=4 note=52 velocity=95 time=0
EXTRACT: note_off channel=4 note=52 velocity=95 time=0.12
EXTRACT: note_off channel=11 note=69 velocity=95 time=0
EXTRACT: note_on channel=11 note=69 velocity=95 time=0
EXTRACT: note_off channel=10 note=81 velocity=95 time=0
EXTRACT: note_off channel=10 note=76 velocity=95 time=0
EXTRACT: note_on channel=10 note=81 velocity=95 time=0
EXTRACT: note_on channel=10 note=76 velocity=95 time=0
EXTRACT: note_off channel=13 note=33 velocity=95 time=0
EXTRACT: note_on channel=13 note=55 velocity=95 time=0
EXTRACT: note_off channel=9 note=60 velocity=95 time=0
EXTRACT: note_on channel=9 note=61 velocity=95 time=0
EXTRACT: note_off channel=9 note=51 velocity=95 time=0
EXTRACT: note_on channel=9 note=51 velocity=95 time=0
EXTRACT: note_on channel=9 note=38 velocity=95 time=0
EXTRACT: note_on channel=9 note=35 velocity=95 time=0
EXTRACT: note_on channel=4 note=54 velocity=95 time=0.24
EXTRACT: note_off channel=13 note=55 velocity=95 time=0
EXTRACT: note_on channel=13 note=57 velocity=95 time=0
EXTRACT: note_off channel=9 note=61 velocity=95 time=0
EXTRACT: note_on channel=9 note=60 velocity=95 time=0
EXTRACT: note_off channel=9 note=51 velocity=95 time=0
EXTRACT: note_off channel=9 note=38 velocity=95 time=0
EXTRACT: note_off channel=9 note=35 velocity=95 time=0
EXTRACT: note_on channel=9 note=51 velocity=95 time=0
EXTRACT: note_off channel=2 note=69 velocity=95 time=0.24
EXTRACT: note_off channel=2 note=67 velocity=95 time=0
EXTRACT: note_off channel=2 note=62 velocity=95 time=0
EXTRACT: note_off channel=2 note=59 velocity=95 time=0
EXTRACT: note_on channel=2 note=69 velocity=95 time=0
EXTRACT: note_on channel=2 note=67 velocity=95 time=0
EXTRACT: note_on channel=2 note=62 velocity=95 time=0
EXTRACT: note_on channel=2 note=59 velocity=95 time=0
EXTRACT: note_off channel=4 note=54 velocity=95 time=0
EXTRACT: note_on channel=4 note=57 velocity=95 time=0
EXTRACT: note_off channel=11 note=69 velocity=95 time=0
EXTRACT: note_on channel=11 note=69 velocity=95 time=0
EXTRACT: note_off channel=10 note=81 velocity=95 time=0
EXTRACT: note_off channel=10 note=76 velocity=95 time=0
EXTRACT: note_on channel=10 note=81 velocity=95 time=0
EXTRACT: note_on channel=10 note=76 velocity=95 time=0
EXTRACT: note_off channel=13 note=57 velocity=95 time=0
EXTRACT: note_on channel=13 note=33 velocity=95 time=0
EXTRACT: note_off channel=9 note=60 velocity=95 time=0
EXTRACT: note_on channel=9 note=60 velocity=95 time=0
EXTRACT: note_off channel=9 note=51 velocity=95 time=0
EXTRACT: note_on channel=9 note=51 velocity=95 time=0
EXTRACT: note_on channel=9 note=35 velocity=95 time=0
EXTRACT: note_off channel=2 note=69 velocity=95 time=0.24
EXTRACT: note_off channel=2 note=67 velocity=95 time=0
EXTRACT: note_off channel=2 note=62 velocity=95 time=0
EXTRACT: note_off channel=2 note=59 velocity=95 time=0
EXTRACT: note_on channel=2 note=69 velocity=95 time=0
EXTRACT: note_on channel=2 note=67 velocity=95 time=0
EXTRACT: note_on channel=2 note=62 velocity=95 time=0
EXTRACT: note_on channel=2 note=59 velocity=95 time=0
EXTRACT: note_off channel=11 note=69 velocity=95 time=0
EXTRACT: note_on channel=11 note=69 velocity=95 time=0
EXTRACT: note_off channel=10 note=81 velocity=95 time=0
EXTRACT: note_off channel=10 note=76 velocity=95 time=0
EXTRACT: note_on channel=10 note=81 velocity=95 time=0
EXTRACT: note_on channel=10 note=76 velocity=95 time=0
EXTRACT: note_off channel=13 note=33 velocity=95 time=0
EXTRACT: note_off channel=9 note=60 velocity=95 time=0
EXTRACT: note_on channel=9 note=60 velocity=95 time=0
EXTRACT: note_off channel=9 note=51 velocity=95 time=0.12
EXTRACT: note_off channel=9 note=35 velocity=95 time=0
EXTRACT: note_on channel=9 note=38 velocity=95 time=0
EXTRACT: note_off channel=0 note=69 velocity=70 time=0.12
EXTRACT: note_off channel=15 note=76 velocity=95 time=0
EXTRACT: note_off channel=2 note=69 velocity=95 time=0
EXTRACT: note_off channel=2 note=67 velocity=95 time=0
EXTRACT: note_off channel=2 note=62 velocity=95 time=0
EXTRACT: note_off channel=2 note=59 velocity=95 time=0
EXTRACT: note_on channel=2 note=69 velocity=95 time=0
EXTRACT: note_on channel=2 note=67 velocity=95 time=0
EXTRACT: note_on channel=2 note=62 velocity=95 time=0
EXTRACT: note_on channel=2 note=59 velocity=95 time=0
EXTRACT: note_off channel=4 note=57 velocity=95 time=0
EXTRACT: note_on channel=5 note=61 velocity=95 time=0
EXTRACT: note_off channel=11 note=69 velocity=95 time=0
EXTRACT: note_on channel=11 note=69 velocity=95 time=0
EXTRACT: note_off channel=10 note=81 velocity=95 time=0
EXTRACT: note_off channel=10 note=76 velocity=95 time=0
EXTRACT: note_on channel=10 note=81 velocity=95 time=0
EXTRACT: note_on channel=10 note=76 velocity=95 time=0
EXTRACT: note_on channel=13 note=34 velocity=95 time=0
EXTRACT: note_off channel=9 note=60 velocity=95 time=0
EXTRACT: note_on channel=9 note=60 velocity=95 time=0
EXTRACT: note_off channel=9 note=38 velocity=95 time=0
EXTRACT: note_on channel=9 note=38 velocity=95 time=0
EXTRACT: note_off channel=2 note=69 velocity=95 time=0.24
EXTRACT: note_off channel=2 note=67 velocity=95 time=0
EXTRACT: note_off channel=2 note=62 velocity=95 time=0
EXTRACT: note_off channel=2 note=59 velocity=95 time=0
EXTRACT: note_off channel=11 note=69 velocity=95 time=0
EXTRACT: note_off channel=10 note=81 velocity=95 time=0
EXTRACT: note_off channel=10 note=76 velocity=95 time=0
EXTRACT: note_off channel=13 note=34 velocity=95 time=0
EXTRACT: note_off channel=9 note=60 velocity=95 time=0
EXTRACT: note_on channel=9 note=61 velocity=95 time=0
EXTRACT: note_off channel=9 note=38 velocity=95 time=0
EXTRACT: note_on channel=9 note=47 velocity=95 time=0
EXTRACT: note_on channel=2 note=69 velocity=95 time=0.24
EXTRACT: note_on channel=2 note=66 velocity=95 time=0
EXTRACT: note_on channel=2 note=62 velocity=95 time=0
EXTRACT: note_off channel=5 note=61 velocity=95 time=0
EXTRACT: note_off channel=8 note=69 velocity=95 time=0
EXTRACT: note_on channel=8 note=69 velocity=95 time=0
EXTRACT: note_on channel=13 note=35 velocity=95 time=0
EXTRACT: note_off channel=9 note=61 velocity=95 time=0
EXTRACT: note_on channel=9 note=60 velocity=95 time=0
EXTRACT: note_off channel=9 note=47 velocity=95 time=0
EXTRACT: note_on channel=9 note=57 velocity=95 time=0
EXTRACT: note_on channel=9 note=35 velocity=95 time=0
EXTRACT: note_on channel=0 note=64 velocity=95 time=0.24
EXTRACT: note_on channel=11 note=69 velocity=95 time=0
EXTRACT: note_on channel=10 note=81 velocity=95 time=0
EXTRACT: note_off channel=9 note=60 velocity=95 time=0
EXTRACT: note_on channel=9 note=60 velocity=95 time=0
EXTRACT: note_off channel=9 note=57 velocity=95 time=0
EXTRACT: note_off channel=9 note=35 velocity=95 time=0
EXTRACT: note_on channel=9 note=51 velocity=95 time=0
EXTRACT: note_off channel=0 note=64 velocity=95 time=0.24
EXTRACT: note_on channel=0 note=61 velocity=70 time=0
EXTRACT: note_on channel=4 note=73 velocity=95 time=0
EXTRACT: note_on channel=4 note=61 velocity=95 time=0
EXTRACT: note_off channel=11 note=69 velocity=95 time=0
EXTRACT: note_off channel=10 note=81 velocity=95 time=0
EXTRACT: note_off channel=13 note=35 velocity=95 time=0
EXTRACT: note_on channel=13 note=42 velocity=95 time=0
EXTRACT: note_off channel=9 note=60 velocity=95 time=0
EXTRACT: note_on channel=9 note=61 velocity=95 time=0
EXTRACT: note_off channel=9 note=51 velocity=95 time=0
EXTRACT: note_on channel=9 note=51 velocity=95 time=0
EXTRACT: note_on channel=9 note=38 velocity=95 time=0
EXTRACT: note_on channel=9 note=35 velocity=95 time=0
EXTRACT: note_off channel=4 note=73 velocity=95 time=0.12
EXTRACT: note_off channel=4 note=61 velocity=95 time=0
EXTRACT: note_on channel=4 note=73 velocity=95 time=0
EXTRACT: note_on channel=4 note=61 velocity=95 time=0
EXTRACT: note_off channel=0 note=61 velocity=70 time=0.12
EXTRACT: note_on channel=0 note=64 velocity=95 time=0
EXTRACT: note_off channel=2 note=69 velocity=95 time=0
EXTRACT: note_off channel=2 note=66 velocity=95 time=0
EXTRACT: note_off channel=2 note=62 velocity=95 time=0
EXTRACT: note_on channel=2 note=68 velocity=95 time=0
EXTRACT: note_on channel=2 note=62 velocity=95 time=0
EXTRACT: note_on channel=2 note=59 velocity=95 time=0
EXTRACT: note_off channel=4 note=73 velocity=95 time=0
EXTRACT: note_off channel=4 note=61 velocity=95 time=0
EXTRACT: note_on channel=4 note=73 velocity=95 time=0
EXTRACT: note_on channel=4 note=61 velocity=95 time=0
EXTRACT: note_off channel=8 note=69 velocity=95 time=0
EXTRACT: note_on channel=8 note=68 velocity=95 time=0
EXTRACT: note_off channel=13 note=42 velocity=95 time=0
EXTRACT: note_on channel=13 note=40 velocity=95 time=0
EXTRACT: note_off channel=9 note=61 velocity=95 time=0
EXTRACT: note_on channel=9 note=60 velocity=95 time=0
EXTRACT: note_off channel=9 note=51 velocity=95 time=0
EXTRACT: note_off channel=9 note=38 velocity=95 time=0
EXTRACT: note_off channel=9 note=35 velocity=95 time=0
EXTRACT: note_on channel=9 note=51 velocity=95 time=0
EXTRACT: note_off channel=4 note=73 velocity=95 time=0.12
EXTRACT: note_off channel=4 note=61 velocity=95 time=0
EXTRACT: note_on channel=4 note=73 velocity=95 time=0
EXTRACT: note_on channel=4 note=61 velocity=95 time=0
EXTRACT: note_off channel=4 note=73 velocity=95 time=0.12
EXTRACT: note_off channel=4 note=61 velocity=95 time=0
EXTRACT: note_on channel=4 note=69 velocity=95 time=0
EXTRACT: note_on channel=4 note=57 velocity=95 time=0
EXTRACT: note_off channel=13 note=40 velocity=95 time=0
EXTRACT: note_off channel=9 note=60 velocity=95 time=0
EXTRACT: note_on channel=9 note=60 velocity=95 time=0
EXTRACT: note_off channel=9 note=51 velocity=95 time=0
EXTRACT: note_on channel=9 note=51 velocity=95 time=0
EXTRACT: note_on channel=9 note=35 velocity=95 time=0
EXTRACT: note_off channel=0 note=64 velocity=95 time=0.24
EXTRACT: note_on channel=0 note=64 velocity=95 time=0
EXTRACT: note_off channel=4 note=69 velocity=95 time=0
EXTRACT: note_off channel=4 note=57 velocity=95 time=0
EXTRACT: note_on channel=4 note=69 velocity=95 time=0
EXTRACT: note_on channel=4 note=57 velocity=95 time=0
EXTRACT: note_on channel=11 note=68 velocity=95 time=0
EXTRACT: note_on channel=10 note=80 velocity=95 time=0
EXTRACT: note_on channel=13 note=33 velocity=95 time=0
EXTRACT: note_off channel=9 note=60 velocity=95 time=0
EXTRACT: note_on channel=9 note=60 velocity=95 time=0
EXTRACT: note_off channel=9 note=51 velocity=95 time=0
EXTRACT: note_off channel=9 note=35 velocity=95 time=0
EXTRACT: note_on channel=9 note=51 velocity=95 time=0
EXTRACT: note_off channel=4 note=69 velocity=95 time=0.24
EXTRACT: note_off channel=4 note=57 velocity=95 time=0
EXTRACT: note_off channel=11 note=68 velocity=95 time=0
EXTRACT: note_off channel=10 note=80 velocity=95 time=0
EXTRACT: note_off channel=13 note=33 velocity=95 time=0
EXTRACT: note_on channel=13 note=35 velocity=95 time=0
EXTRACT: note_off channel=9 note=60 velocity=95 time=0
EXTRACT: note_on channel=9 note=60 velocity=95 time=0
EXTRACT: note_off channel=9 note=51 velocity=95 time=0
EXTRACT: note_on channel=9 note=51 velocity=95 time=0
EXTRACT: note_on channel=9 note=38 velocity=95 time=0
EXTRACT: note_on channel=9 note=35 velocity=95 time=0
EXTRACT: note_off channel=0 note=64 velocity=95 time=0.24
EXTRACT: note_on channel=0 note=68 velocity=95 time=0
EXTRACT: note_off channel=13 note=35 velocity=95 time=0
EXTRACT: note_on channel=13 note=36 velocity=95 time=0
EXTRACT: note_off channel=9 note=60 velocity=95 time=0
EXTRACT: note_on channel=9 note=61 velocity=95 time=0
EXTRACT: note_off channel=9 note=51 velocity=95 time=0
EXTRACT: note_off channel=9 note=38 velocity=95 time=0
EXTRACT: note_off channel=9 note=35 velocity=95 time=0
EXTRACT: note_on channel=9 note=51 velocity=95 time=0
EXTRACT: note_off channel=0 note=68 velocity=95 time=0.24
EXTRACT: note_on channel=0 note=66 velocity=95 time=0
EXTRACT: note_off channel=2 note=68 velocity=95 time=0
EXTRACT: note_off channel=2 note=62 velocity=95 time=0
EXTRACT: note_off channel=2 note=59 velocity=95 time=0
EXTRACT: note_on channel=2 note=71 velocity=95 time=0
EXTRACT: note_on channel=2 note=68 velocity=95 time=0
EXTRACT: note_on channel=2 note=64 velocity=95 time=0
EXTRACT: note_on channel=4 note=73 velocity=95 time=0
EXTRACT: note_on channel=4 note=61 velocity=95 time=0
EXTRACT: note_off channel=8 note=68 velocity=95 time=0
EXTRACT: note_on channel=8 note=71 velocity=95 time=0
EXTRACT: note_on channel=11 note=69 velocity=95 time=0
EXTRACT: note_on channel=10 note=81 velocity=95 time=0
EXTRACT: note_off channel=13 note=36 velocity=95 time=0
EXTRACT: note_on channel=13 note=37 velocity=95 time=0
EXTRACT: note_off channel=9 note=61 velocity=95 time=0
EXTRACT: note_on channel=9 note=60 velocity=95 time=0
EXTRACT: note_off channel=9 note=51 velocity=95 time=0
EXTRACT: note_on channel=9 note=51 velocity=95 time=0
EXTRACT: note_on channel=9 note=35 velocity=95 time=0
EXTRACT: note_off channel=4 note=73 velocity=95 time=0.12
EXTRACT: note_off channel=4 note=61 velocity=95 time=0
EXTRACT: note_on channel=4 note=73 velocity=95 time=0
EXTRACT: note_on channel=4 note=61 velocity=95 time=0
EXTRACT: note_off channel=4 note=73 velocity=95 time=0.12
EXTRACT: note_off channel=4 note=61 velocity=95 time=0
EXTRACT: note_on channel=4 note=73 velocity=95 time=0
EXTRACT: note_on channel=4 note=61 velocity=95 time=0
EXTRACT: note_off channel=13 note=37 velocity=95 time=0
EXTRACT: note_on channel=13 note=32 velocity=95 time=0
EXTRACT: note_off channel=9 note=60 velocity=95 time=0
EXTRACT: note_on channel=9 note=60 velocity=95 time=0
EXTRACT: note_off channel=9 note=51 velocity=95 time=0
EXTRACT: note_off channel=9 note=35 velocity=95 time=0
EXTRACT: note_on channel=9 note=51 velocity=95 time=0
EXTRACT: note_off channel=4 note=73 velocity=95 time=0.12
EXTRACT: note_off channel=4 note=61 velocity=95 time=0
EXTRACT: note_on channel=4 note=73 velocity=95 time=0
EXTRACT: note_on channel=4 note=61 velocity=95 time=0
EXTRACT: note_off channel=4 note=73 velocity=95 time=0.12
EXTRACT: note_off channel=4 note=61 velocity=95 time=0
EXTRACT: note_on channel=4 note=69 velocity=95 time=0
EXTRACT: note_on channel=4 note=57 velocity=95 time=0
EXTRACT: note_off channel=11 note=69 velocity=95 time=0
EXTRACT: note_on channel=11 note=66 velocity=95 time=0
EXTRACT: note_off channel=10 note=81 velocity=95 time=0
EXTRACT: note_on channel=10 note=78 velocity=95 time=0
EXTRACT: note_off channel=13 note=32 velocity=95 time=0
EXTRACT: note_on channel=13 note=28 velocity=95 time=0
EXTRACT: note_off channel=9 note=60 velocity=95 time=0
EXTRACT: note_on channel=9 note=61 velocity=95 time=0
EXTRACT: note_off channel=9 note=51 velocity=95 time=0
EXTRACT: note_on channel=9 note=51 velocity=95 time=0
EXTRACT: note_on channel=9 note=38 velocity=95 time=0
EXTRACT: note_on channel=9 note=35 velocity=95 time=0
EXTRACT: note_off channel=2 note=71 velocity=95 time=0.24
EXTRACT: note_off channel=2 note=68 velocity=95 time=0
EXTRACT: note_off channel=2 note=64 velocity=95 time=0
EXTRACT: note_on channel=2 note=69 velocity=95 time=0
EXTRACT: note_on channel=2 note=64 velocity=95 time=0
EXTRACT: note_on channel=2 note=61 velocity=95 time=0
EXTRACT: note_off channel=4 note=69 velocity=95 time=0
EXTRACT: note_off channel=4 note=57 velocity=95 time=0
EXTRACT: note_on channel=4 note=69 velocity=95 time=0
EXTRACT: note_on channel=4 note=57 velocity=95 time=0
EXTRACT: note_off channel=8 note=71 velocity=95 time=0
EXTRACT: note_on channel=8 note=69 velocity=95 time=0
EXTRACT: note_off channel=11 note=66 velocity=95 time=0
EXTRACT: note_on channel=11 note=64 velocity=95 time=0
EXTRACT: note_off channel=10 note=78 velocity=95 time=0
EXTRACT: note_on channel=10 note=76 velocity=95 time=0
EXTRACT: note_off channel=9 note=61 velocity=95 time=0
EXTRACT: note_on channel=9 note=60 velocity=95 time=0
EXTRACT: note_off channel=9 note=51 velocity=95 time=0
EXTRACT: note_off channel=9 note=38 velocity=95 time=0
EXTRACT: note_off channel=9 note=35 velocity=95 time=0
EXTRACT: note_on channel=9 note=51 velocity=95 time=0
EXTRACT: note_off channel=0 note=66 velocity=95 time=0.24
EXTRACT: note_off channel=4 note=69 velocity=95 time=0
EXTRACT: note_off channel=4 note=57 velocity=95 time=0
EXTRACT: note_on channel=4 note=71 velocity=95 time=0
EXTRACT: note_on channel=4 note=59 velocity=95 time=0
EXTRACT: note_off channel=11 note=64 velocity=95 time=0
EXTRACT: note_on channel=11 note=69 velocity=95 time=0
EXTRACT: note_off channel=10 note=76 velocity=95 time=0
EXTRACT: note_on channel=10 note=81 velocity=95 time=0
EXTRACT: note_off channel=13 note=28 velocity=95 time=0
EXTRACT: note_on channel=13 note=30 velocity=95 time=0
EXTRACT: note_off channel=9 note=60 velocity=95 time=0
EXTRACT: note_on channel=9 note=60 velocity=95 time=0
EXTRACT: note_off channel=9 note=51 velocity=95 time=0
EXTRACT: note_on channel=9 note=51 velocity=95 time=0
EXTRACT: note_on channel=9 note=35 velocity=95 time=0
EXTRACT: note_on channel=0 note=64 velocity=95 time=0.24
EXTRACT: note_off channel=4 note=71 velocity=95 time=0
EXTRACT: note_off channel=4 note=59 velocity=95 time=0
EXTRACT: note_on channel=4 note=73 velocity=95 time=0
EXTRACT: note_on channel=4 note=61 velocity=95 time=0
EXTRACT: note_off channel=9 note=60 velocity=95 time=0
EXTRACT: note_on channel=9 note=60 velocity=95 time=0
EXTRACT: note_off channel=9 note=51 velocity=95 time=0
EXTRACT: note_off channel=9 note=35 velocity=95 time=0
EXTRACT: note_on channel=9 note=51 velocity=95 time=0
EXTRACT: note_off channel=0 note=64 velocity=95 time=0.24
EXTRACT: note_on channel=0 note=64 velocity=95 time=0
EXTRACT: note_off channel=4 note=73 velocity=95 time=0
EXTRACT: note_off channel=4 note=61 velocity=95 time=0
EXTRACT: note_off channel=11 note=69 velocity=95 time=0
EXTRACT: note_on channel=11 note=66 velocity=95 time=0
EXTRACT: note_off channel=10 note=81 velocity=95 time=0
EXTRACT: note_on channel=10 note=78 velocity=95 time=0
EXTRACT: note_off channel=13 note=30 velocity=95 time=0
EXTRACT: note_on channel=13 note=32 velocity=95 time=0
EXTRACT: note_off channel=9 note=60 velocity=95 time=0
EXTRACT: note_on channel=9 note=60 velocity=95 time=0
EXTRACT: note_off channel=9 note=51 velocity=95 time=0
EXTRACT: note_on channel=9 note=51 velocity=95 time=0
EXTRACT: note_on channel=9 note=38 velocity=95 time=0
EXTRACT: note_on channel=9 note=35 velocity=95 time=0
EXTRACT: note_off channel=0 note=64 velocity=95 time=0.24
EXTRACT: note_on channel=0 note=66 velocity=70 time=0
EXTRACT: note_off channel=11 note=66 velocity=95 time=0
EXTRACT: note_on channel=11 note=64 velocity=95 time=0
EXTRACT: note_off channel=10 note=78 velocity=95 time=0
EXTRACT: note_on channel=10 note=76 velocity=95 time=0
EXTRACT: note_off channel=13 note=32 velocity=95 time=0
EXTRACT: note_on channel=13 note=33 velocity=95 time=0
EXTRACT: note_off channel=9 note=60 velocity=95 time=0
EXTRACT: note_on channel=9 note=61 velocity=95 time=0
EXTRACT: note_off channel=9 note=51 velocity=95 time=0
EXTRACT: note_off channel=9 note=38 velocity=95 time=0
EXTRACT: note_off channel=9 note=35 velocity=95 time=0
EXTRACT: note_on channel=9 note=51 velocity=95 time=0
EXTRACT: note_off channel=0 note=66 velocity=70 time=0.24
EXTRACT: note_off channel=2 note=69 velocity=95 time=0
EXTRACT: note_off channel=2 note=64 velocity=95 time=0
EXTRACT: note_off channel=2 note=61 velocity=95 time=0
EXTRACT: note_on channel=2 note=69 velocity=95 time=0
EXTRACT: note_on channel=2 note=66 velocity=95 time=0
EXTRACT: note_on channel=2 note=62 velocity=95 time=0
EXTRACT: note_on channel=4 note=73 velocity=95 time=0
EXTRACT: note_on channel=4 note=61 velocity=95 time=0
EXTRACT: note_off channel=8 note=69 velocity=95 time=0
EXTRACT: note_on channel=8 note=69 velocity=95 time=0
EXTRACT: note_off channel=11 note=64 velocity=95 time=0
EXTRACT: note_off channel=10 note=76 velocity=95 time=0
EXTRACT: note_off channel=13 note=33 velocity=95 time=0
EXTRACT: note_on channel=13 note=35 velocity=95 time=0
EXTRACT: note_off channel=9 note=61 velocity=95 time=0
EXTRACT: note_on channel=9 note=60 velocity=95 time=0
EXTRACT: note_off channel=9 note=51 velocity=95 time=0
EXTRACT: note_on channel=9 note=51 velocity=95 time=0
EXTRACT: note_on channel=9 note=35 velocity=95 time=0
EXTRACT: note_off channel=4 note=73 velocity=95 time=0.12
EXTRACT: note_off channel=4 note=61 velocity=95 time=0
EXTRACT: note_on channel=4 note=73 velocity=95 time=0
EXTRACT: note_on channel=4 note=61 velocity=95 time=0
EXTRACT: note_on channel=0 note=64 velocity=95 time=0.12
EXTRACT: note_off channel=4 note=73 velocity=95 time=0
EXTRACT: note_off channel=4 note=61 velocity=95 time=0
EXTRACT: note_on channel=4 note=73 velocity=95 time=0
EXTRACT: note_on channel=4 note=61 velocity=95 time=0
EXTRACT: note_on channel=11 note=69 velocity=95 time=0
EXTRACT: note_on channel=10 note=81 velocity=95 time=0
EXTRACT: note_off channel=13 note=35 velocity=95 time=0
EXTRACT: note_on channel=13 note=35 velocity=95 time=0
EXTRACT: note_off channel=9 note=60 velocity=95 time=0
EXTRACT: note_on channel=9 note=60 velocity=95 time=0
EXTRACT: note_off channel=9 note=51 velocity=95 time=0
EXTRACT: note_off channel=9 note=35 velocity=95 time=0
EXTRACT: note_on channel=9 note=51 velocity=95 time=0
EXTRACT: note_off channel=4 note=73 velocity=95 time=0.12
EXTRACT: note_off channel=4 note=61 velocity=95 time=0
EXTRACT: note_on channel=4 note=73 velocity=95 time=0
EXTRACT: note_on channel=4 note=61 velocity=95 time=0
EXTRACT: note_off channel=0 note=64 velocity=95 time=0.12
EXTRACT: note_on channel=0 note=61 velocity=70 time=0
EXTRACT: note_off channel=4 note=73 velocity=95 time=0
EXTRACT: note_off channel=4 note=61 velocity=95 time=0
EXTRACT: note_on channel=4 note=69 velocity=95 time=0
EXTRACT: note_on channel=4 note=57 velocity=95 time=0
EXTRACT: note_off channel=11 note=69 velocity=95 time=0
EXTRACT: note_off channel=10 note=81 velocity=95 time=0
EXTRACT: note_off channel=13 note=35 velocity=95 time=0
EXTRACT: note_on channel=13 note=42 velocity=95 time=0
EXTRACT: note_off channel=9 note=60 velocity=95 time=0
EXTRACT: note_on channel=9 note=61 velocity=95 time=0
EXTRACT: note_off channel=9 note=51 velocity=95 time=0
EXTRACT: note_on channel=9 note=51 velocity=95 time=0
EXTRACT: note_on channel=9 note=38 velocity=95 time=0
EXTRACT: note_on channel=9 note=35 velocity=95 time=0
EXTRACT: note_off channel=0 note=61 velocity=70 time=0.24
EXTRACT: note_on channel=0 note=68 velocity=95 time=0
EXTRACT: note_off channel=2 note=69 velocity=95 time=0
EXTRACT: note_off channel=2 note=66 velocity=95 time=0
EXTRACT: note_off channel=2 note=62 velocity=95 time=0
EXTRACT: note_on channel=2 note=68 velocity=95 time=0
EXTRACT: note_on channel=2 note=62 velocity=95 time=0
EXTRACT: note_on channel=2 note=59 velocity=95 time=0
EXTRACT: note_off channel=4 note=69 velocity=95 time=0
EXTRACT: note_off channel=4 note=57 velocity=95 time=0
EXTRACT: note_on channel=4 note=69 velocity=95 time=0
EXTRACT: note_on channel=4 note=57 velocity=95 time=0
EXTRACT: note_off channel=8 note=69 velocity=95 time=0
EXTRACT: note_on channel=8 note=68 velocity=95 time=0
EXTRACT: note_off channel=13 note=42 velocity=95 time=0
EXTRACT: note_on channel=13 note=40 velocity=95 time=0
EXTRACT: note_off channel=9 note=61 velocity=95 time=0
EXTRACT: note_on channel=9 note=60 velocity=95 time=0
EXTRACT: note_off channel=9 note=51 velocity=95 time=0
EXTRACT: note_off channel=9 note=38 velocity=95 time=0
EXTRACT: note_off channel=9 note=35 velocity=95 time=0
EXTRACT: note_on channel=9 note=51 velocity=95 time=0
EXTRACT: note_off channel=4 note=69 velocity=95 time=0.24
EXTRACT: note_off channel=4 note=57 velocity=95 time=0
EXTRACT: note_off channel=13 note=40 velocity=95 time=0
EXTRACT: note_off channel=9 note=60 velocity=95 time=0
EXTRACT: note_on channel=9 note=60 velocity=95 time=0
EXTRACT: note_off channel=9 note=51 velocity=95 time=0
EXTRACT: note_on channel=9 note=51 velocity=95 time=0
EXTRACT: note_on channel=9 note=35 velocity=95 time=0
EXTRACT: note_on channel=11 note=68 velocity=95 time=0.24
EXTRACT: note_on channel=10 note=80 velocity=95 time=0
EXTRACT: note_on channel=13 note=33 velocity=95 time=0
EXTRACT: note_off channel=9 note=60 velocity=95 time=0
EXTRACT: note_on channel=9 note=60 velocity=95 time=0
EXTRACT: note_off channel=9 note=51 velocity=95 time=0
EXTRACT: note_off channel=9 note=35 velocity=95 time=0
EXTRACT: note_on channel=9 note=51 velocity=95 time=0
EXTRACT: note_off channel=0 note=68 velocity=95 time=0.24
EXTRACT: note_on channel=0 note=66 velocity=95 time=0
EXTRACT: note_off channel=11 note=68 velocity=95 time=0
EXTRACT: note_off channel=10 note=80 velocity=95 time=0
EXTRACT: note_off channel=13 note=33 velocity=95 time=0
EXTRACT: note_on channel=13 note=35 velocity=95 time=0
EXTRACT: note_off channel=9 note=60 velocity=95 time=0
EXTRACT: note_on channel=9 note=60 velocity=95 time=0
EXTRACT: note_off channel=9 note=51 velocity=95 time=0
EXTRACT: note_on channel=9 note=51 velocity=95 time=0
EXTRACT: note_on channel=9 note=38 velocity=95 time=0
EXTRACT: note_on channel=9 note=35 velocity=95 time=0
EXTRACT: note_off channel=0 note=66 velocity=95 time=0.24
EXTRACT: note_on channel=0 note=64 velocity=95 time=0
EXTRACT: note_off channel=13 note=35 velocity=95 time=0
EXTRACT: note_on channel=13 note=36 velocity=95 time=0
EXTRACT: note_off channel=9 note=60 velocity=95 time=0
EXTRACT: note_on channel=9 note=61 velocity=95 time=0
EXTRACT: note_off channel=9 note=51 velocity=95 time=0
EXTRACT: note_off channel=9 note=38 velocity=95 time=0
EXTRACT: note_off channel=9 note=35 velocity=95 time=0
EXTRACT: note_on channel=9 note=51 velocity=95 time=0
EXTRACT: note_off channel=0 note=64 velocity=95 time=0.24
EXTRACT: note_on channel=0 note=68 velocity=95 time=0
EXTRACT: note_off channel=2 note=68 velocity=95 time=0
EXTRACT: note_off channel=2 note=62 velocity=95 time=0
EXTRACT: note_off channel=2 note=59 velocity=95 time=0
EXTRACT: note_on channel=2 note=71 velocity=95 time=0
EXTRACT: note_on channel=2 note=68 velocity=95 time=0
EXTRACT: note_on channel=2 note=64 velocity=95 time=0
EXTRACT: note_on channel=4 note=73 velocity=95 time=0
EXTRACT: note_on channel=4 note=61 velocity=95 time=0
EXTRACT: note_off channel=8 note=68 velocity=95 time=0
EXTRACT: note_on channel=8 note=71 velocity=95 time=0
EXTRACT: note_on channel=11 note=69 velocity=95 time=0
EXTRACT: note_on channel=10 note=81 velocity=95 time=0
EXTRACT: note_off channel=13 note=36 velocity=95 time=0
EXTRACT: note_on channel=13 note=37 velocity=95 time=0
EXTRACT: note_off channel=9 note=61 velocity=95 time=0
EXTRACT: note_on channel=9 note=60 velocity=95 time=0
EXTRACT: note_off channel=9 note=51 velocity=95 time=0
EXTRACT: note_on channel=9 note=51 velocity=95 time=0
EXTRACT: note_on channel=9 note=35 velocity=95 time=0
EXTRACT: note_off channel=4 note=73 velocity=95 time=0.12
EXTRACT: note_off channel=4 note=61 velocity=95 time=0
EXTRACT: note_on channel=4 note=73 velocity=95 time=0
EXTRACT: note_on channel=4 note=61 velocity=95 time=0
EXTRACT: note_off channel=0 note=68 velocity=95 time=0.12
EXTRACT: note_on channel=0 note=66 velocity=95 time=0
EXTRACT: note_off channel=4 note=73 velocity=95 time=0
EXTRACT: note_off channel=4 note=61 velocity=95 time=0
EXTRACT: note_on channel=4 note=73 velocity=95 time=0
EXTRACT: note_on channel=4 note=61 velocity=95 time=0
EXTRACT: note_off channel=13 note=37 velocity=95 time=0
EXTRACT: note_on channel=13 note=32 velocity=95 time=0
EXTRACT: note_off channel=9 note=60 velocity=95 time=0
EXTRACT: note_on channel=9 note=60 velocity=95 time=0
EXTRACT: note_off channel=9 note=51 velocity=95 time=0
EXTRACT: note_off channel=9 note=35 velocity=95 time=0
EXTRACT: note_on channel=9 note=51 velocity=95 time=0
EXTRACT: note_off channel=4 note=73 velocity=95 time=0.12
EXTRACT: note_off channel=4 note=61 velocity=95 time=0
EXTRACT: note_on channel=4 note=73 velocity=95 time=0
EXTRACT: note_on channel=4 note=61 velocity=95 time=0
EXTRACT: note_off channel=4 note=73 velocity=95 time=0.12
EXTRACT: note_off channel=4 note=61 velocity=95 time=0
EXTRACT: note_on channel=4 note=69 velocity=95 time=0
EXTRACT: note_on channel=4 note=57 velocity=95 time=0
EXTRACT: note_off channel=11 note=69 velocity=95 time=0
EXTRACT: note_on channel=11 note=66 velocity=95 time=0
EXTRACT: note_off channel=10 note=81 velocity=95 time=0
EXTRACT: note_on channel=10 note=78 velocity=95 time=0
EXTRACT: note_off channel=13 note=32 velocity=95 time=0
EXTRACT: note_on channel=13 note=28 velocity=95 time=0
EXTRACT: note_off channel=9 note=60 velocity=95 time=0
EXTRACT: note_on channel=9 note=61 velocity=95 time=0
EXTRACT: note_off channel=9 note=51 velocity=95 time=0
EXTRACT: note_on channel=9 note=51 velocity=95 time=0
EXTRACT: note_on channel=9 note=38 velocity=95 time=0
EXTRACT: note_on channel=9 note=35 velocity=95 time=0
EXTRACT: note_off channel=2 note=71 velocity=95 time=0.24
EXTRACT: note_off channel=2 note=68 velocity=95 time=0
EXTRACT: note_off channel=2 note=64 velocity=95 time=0
EXTRACT: note_on channel=2 note=69 velocity=95 time=0
EXTRACT: note_on channel=2 note=64 velocity=95 time=0
EXTRACT: note_on channel=2 note=61 velocity=95 time=0
EXTRACT: note_off channel=4 note=69 velocity=95 time=0
EXTRACT: note_off channel=4 note=57 velocity=95 time=0
EXTRACT: note_on channel=4 note=69 velocity=95 time=0
EXTRACT: note_on channel=4 note=57 velocity=95 time=0
EXTRACT: note_off channel=8 note=71 velocity=95 time=0
EXTRACT: note_on channel=8 note=69 velocity=95 time=0
EXTRACT: note_off channel=11 note=66 velocity=95 time=0
EXTRACT: note_on channel=11 note=64 velocity=95 time=0
EXTRACT: note_off channel=10 note=78 velocity=95 time=0
EXTRACT: note_on channel=10 note=76 velocity=95 time=0
EXTRACT: note_off channel=9 note=61 velocity=95 time=0
EXTRACT: note_on channel=9 note=60 velocity=95 time=0
EXTRACT: note_off channel=9 note=51 velocity=95 time=0
EXTRACT: note_off channel=9 note=38 velocity=95 time=0
EXTRACT: note_off channel=9 note=35 velocity=95 time=0
EXTRACT: note_on channel=9 note=51 velocity=95 time=0
EXTRACT: note_off channel=0 note=66 velocity=95 time=0.24
EXTRACT: note_on channel=0 note=64 velocity=70 time=0
EXTRACT: note_off channel=4 note=69 velocity=95 time=0
EXTRACT: note_off channel=4 note=57 velocity=95 time=0
EXTRACT: note_on channel=4 note=71 velocity=95 time=0
EXTRACT: note_on channel=4 note=59 velocity=95 time=0
EXTRACT: note_off channel=11 note=64 velocity=95 time=0
EXTRACT: note_on channel=11 note=69 velocity=95 time=0
EXTRACT: note_off channel=10 note=76 velocity=95 time=0
EXTRACT: note_on channel=10 note=81 velocity=95 time=0
EXTRACT: note_off channel=13 note=28 velocity=95 time=0
EXTRACT: note_on channel=13 note=30 velocity=95 time=0
EXTRACT: note_off channel=9 note=60 velocity=95 time=0
EXTRACT: note_on channel=9 note=60 velocity=95 time=0
EXTRACT: note_off channel=9 note=51 velocity=95 time=0
EXTRACT: note_on channel=9 note=51 velocity=95 time=0
EXTRACT: note_on channel=9 note=35 velocity=95 time=0
EXTRACT: note_off channel=4 note=71 velocity=95 time=0.24
EXTRACT: note_off channel=4 note=59 velocity=95 time=0
EXTRACT: note_on channel=4 note=73 velocity=95 time=0
EXTRACT: note_on channel=4 note=61 velocity=95 time=0
EXTRACT: note_off channel=9 note=60 velocity=95 time=0
EXTRACT: note_on channel=9 note=60 velocity=95 time=0
EXTRACT: note_off channel=9 note=51 velocity=95 time=0
EXTRACT: note_off channel=9 note=35 velocity=95 time=0
EXTRACT: note_on channel=9 note=51 velocity=95 time=0
EXTRACT: note_off channel=0 note=64 velocity=70 time=0.24
EXTRACT: note_off channel=4 note=73 velocity=95 time=0
EXTRACT: note_off channel=4 note=61 velocity=95 time=0
EXTRACT: note_off channel=11 note=69 velocity=95 time=0
EXTRACT: note_on channel=11 note=66 velocity=95 time=0
EXTRACT: note_off channel=10 note=81 velocity=95 time=0
EXTRACT: note_on channel=10 note=78 velocity=95 time=0
EXTRACT: note_off channel=13 note=30 velocity=95 time=0
EXTRACT: note_on channel=13 note=32 velocity=95 time=0
EXTRACT: note_off channel=9 note=60 velocity=95 time=0
EXTRACT: note_on channel=9 note=60 velocity=95 time=0
EXTRACT: note_off channel=9 note=51 velocity=95 time=0
EXTRACT: note_on channel=9 note=51 velocity=95 time=0
EXTRACT: note_on channel=9 note=38 velocity=95 time=0
EXTRACT: note_on channel=9 note=35 velocity=95 time=0
EXTRACT: note_off channel=11 note=66 velocity=95 time=0.24
EXTRACT: note_on channel=11 note=64 velocity=95 time=0
EXTRACT: note_off channel=10 note=78 velocity=95 time=0
EXTRACT: note_on channel=10 note=76 velocity=95 time=0
EXTRACT: note_off channel=13 note=32 velocity=95 time=0
EXTRACT: note_on channel=13 note=33 velocity=95 time=0
EXTRACT: note_off channel=9 note=60 velocity=95 time=0
EXTRACT: note_on channel=9 note=61 velocity=95 time=0
EXTRACT: note_off channel=9 note=51 velocity=95 time=0
EXTRACT: note_off channel=9 note=38 velocity=95 time=0
EXTRACT: note_off channel=9 note=35 velocity=95 time=0
EXTRACT: note_on channel=9 note=51 velocity=95 time=0
EXTRACT: note_off channel=2 note=69 velocity=95 time=0.24
EXTRACT: note_off channel=2 note=64 velocity=95 time=0
EXTRACT: note_off channel=2 note=61 velocity=95 time=0
EXTRACT: note_on channel=2 note=69 velocity=95 time=0
EXTRACT: note_on channel=2 note=66 velocity=95 time=0
EXTRACT: note_on channel=2 note=62 velocity=95 time=0
EXTRACT: note_on channel=4 note=73 velocity=95 time=0
EXTRACT: note_on channel=4 note=61 velocity=95 time=0
EXTRACT: note_off channel=8 note=69 velocity=95 time=0
EXTRACT: note_on channel=8 note=69 velocity=95 time=0
EXTRACT: note_off channel=11 note=64 velocity=95 time=0
EXTRACT: note_off channel=10 note=76 velocity=95 time=0
EXTRACT: note_off channel=13 note=33 velocity=95 time=0
EXTRACT: note_on channel=13 note=35 velocity=95 time=0
EXTRACT: note_off channel=9 note=61 velocity=95 time=0
EXTRACT: note_on channel=9 note=60 velocity=95 time=0
EXTRACT: note_off channel=9 note=51 velocity=95 time=0
EXTRACT: note_on channel=9 note=51 velocity=95 time=0
EXTRACT: note_on channel=9 note=35 velocity=95 time=0
EXTRACT: note_off channel=4 note=73 velocity=95 time=0.12
EXTRACT: note_off channel=4 note=61 velocity=95 time=0
EXTRACT: note_on channel=4 note=73 velocity=95 time=0
EXTRACT: note_on channel=4 note=61 velocity=95 time=0
EXTRACT: note_on channel=0 note=61 velocity=95 time=0.12
EXTRACT: note_off channel=4 note=73 velocity=95 time=0
EXTRACT: note_off channel=4 note=61 velocity=95 time=0
EXTRACT: note_on channel=4 note=73 velocity=95 time=0
EXTRACT: note_on channel=4 note=61 velocity=95 time=0
EXTRACT: note_on channel=11 note=69 velocity=95 time=0
EXTRACT: note_on channel=10 note=81 velocity=95 time=0
EXTRACT: note_off channel=13 note=35 velocity=95 time=0
EXTRACT: note_on channel=13 note=35 velocity=95 time=0
EXTRACT: note_off channel=9 note=60 velocity=95 time=0
EXTRACT: note_on channel=9 note=60 velocity=95 time=0
EXTRACT: note_off channel=9 note=51 velocity=95 time=0
EXTRACT: note_off channel=9 note=35 velocity=95 time=0
EXTRACT: note_on channel=9 note=51 velocity=95 time=0
EXTRACT: note_off channel=4 note=73 velocity=95 time=0.12
EXTRACT: note_off channel=4 note=61 velocity=95 time=0
EXTRACT: note_on channel=4 note=73 velocity=95 time=0
EXTRACT: note_on channel=4 note=61 velocity=95 time=0
EXTRACT: note_off channel=0 note=61 velocity=95 time=0.12
EXTRACT: note_on channel=0 note=64 velocity=95 time=0
EXTRACT: note_off channel=4 note=73 velocity=95 time=0
EXTRACT: note_off channel=4 note=61 velocity=95 time=0
EXTRACT: note_on channel=4 note=69 velocity=95 time=0
EXTRACT: note_on channel=4 note=57 velocity=95 time=0
EXTRACT: note_off channel=11 note=69 velocity=95 time=0
EXTRACT: note_off channel=10 note=81 velocity=95 time=0
EXTRACT: note_off channel=13 note=35 velocity=95 time=0
EXTRACT: note_on channel=13 note=42 velocity=95 time=0
EXTRACT: note_off channel=9 note=60 velocity=95 time=0
EXTRACT: note_on channel=9 note=61 velocity=95 time=0
EXTRACT: note_off channel=9 note=51 velocity=95 time=0
EXTRACT: note_on channel=9 note=51 velocity=95 time=0
EXTRACT: note_on channel=9 note=38 velocity=95 time=0
EXTRACT: note_on channel=9 note=35 velocity=95 time=0
EXTRACT: note_off channel=0 note=64 velocity=95 time=0.24
EXTRACT: note_on channel=0 note=61 velocity=95 time=0
EXTRACT: note_off channel=2 note=69 velocity=95 time=0
EXTRACT: note_off channel=2 note=66 velocity=95 time=0
EXTRACT: note_off channel=2 note=62 velocity=95 time=0
EXTRACT: note_on channel=2 note=68 velocity=95 time=0
EXTRACT: note_on channel=2 note=62 velocity=95 time=0
EXTRACT: note_on channel=2 note=59 velocity=95 time=0
EXTRACT: note_off channel=4 note=69 velocity=95 time=0
EXTRACT: note_off channel=4 note=57 velocity=95 time=0
EXTRACT: note_on channel=4 note=69 velocity=95 time=0
EXTRACT: note_on channel=4 note=57 velocity=95 time=0
EXTRACT: note_off channel=8 note=69 velocity=95 time=0
EXTRACT: note_on channel=8 note=68 velocity=95 time=0
EXTRACT: note_off channel=13 note=42 velocity=95 time=0
EXTRACT: note_on channel=13 note=40 velocity=95 time=0
EXTRACT: note_off channel=9 note=61 velocity=95 time=0
EXTRACT: note_on channel=9 note=60 velocity=95 time=0
EXTRACT: note_off channel=9 note=51 velocity=95 time=0
EXTRACT: note_off channel=9 note=38 velocity=95 time=0
EXTRACT: note_off channel=9 note=35 velocity=95 time=0
EXTRACT: note_on channel=9 note=51 velocity=95 time=0
EXTRACT: note_off channel=0 note=61 velocity=95 time=0.24
EXTRACT: note_on channel=0 note=64 velocity=95 time=0
EXTRACT: note_off channel=4 note=69 velocity=95 time=0
EXTRACT: note_off channel=4 note=57 velocity=95 time=0
EXTRACT: note_off channel=13 note=40 velocity=95 time=0
EXTRACT: note_off channel=9 note=60 velocity=95 time=0
EXTRACT: note_on channel=9 note=60 velocity=95 time=0
EXTRACT: note_off channel=9 note=51 velocity=95 time=0
EXTRACT: note_on channel=9 note=51 velocity=95 time=0
EXTRACT: note_on channel=9 note=35 velocity=95 time=0
EXTRACT: note_off channel=0 note=64 velocity=95 time=0.24
EXTRACT: note_on channel=0 note=66 velocity=95 time=0
EXTRACT: note_on channel=11 note=68 velocity=95 time=0
EXTRACT: note_on channel=10 note=80 velocity=95 time=0
EXTRACT: note_on channel=13 note=33 velocity=95 time=0
EXTRACT: note_off channel=9 note=60 velocity=95 time=0
EXTRACT: note_on channel=9 note=60 velocity=95 time=0
EXTRACT: note_off channel=9 note=51 velocity=95 time=0
EXTRACT: note_off channel=9 note=35 velocity=95 time=0
EXTRACT: note_on channel=9 note=51 velocity=95 time=0
EXTRACT: note_off channel=11 note=68 velocity=95 time=0.24
EXTRACT: note_off channel=10 note=80 velocity=95 time=0
EXTRACT: note_off channel=13 note=33 velocity=95 time=0
EXTRACT: note_on channel=13 note=35 velocity=95 time=0
EXTRACT: note_off channel=9 note=60 velocity=95 time=0
EXTRACT: note_on channel=9 note=60 velocity=95 time=0
EXTRACT: note_off channel=9 note=51 velocity=95 time=0
EXTRACT: note_on channel=9 note=51 velocity=95 time=0
EXTRACT: note_on channel=9 note=38 velocity=95 time=0
EXTRACT: note_on channel=9 note=35 velocity=95 time=0
EXTRACT: note_off channel=0 note=66 velocity=95 time=0.24
EXTRACT: note_off channel=13 note=35 velocity=95 time=0
EXTRACT: note_on channel=13 note=36 velocity=95 time=0
EXTRACT: note_off channel=9 note=60 velocity=95 time=0
EXTRACT: note_on channel=9 note=61 velocity=95 time=0
EXTRACT: note_off channel=9 note=51 velocity=95 time=0
EXTRACT: note_off channel=9 note=38 velocity=95 time=0
EXTRACT: note_off channel=9 note=35 velocity=95 time=0
EXTRACT: note_on channel=9 note=51 velocity=95 time=0
EXTRACT: note_on channel=0 note=61 velocity=95 time=0.24
EXTRACT: note_off channel=2 note=68 velocity=95 time=0
EXTRACT: note_off channel=2 note=62 velocity=95 time=0
EXTRACT: note_off channel=2 note=59 velocity=95 time=0
EXTRACT: note_on channel=2 note=71 velocity=95 time=0
EXTRACT: note_on channel=2 note=68 velocity=95 time=0
EXTRACT: note_on channel=2 note=64 velocity=95 time=0
EXTRACT: note_on channel=4 note=73 velocity=95 time=0
EXTRACT: note_on channel=4 note=61 velocity=95 time=0
EXTRACT: note_off channel=8 note=68 velocity=95 time=0
EXTRACT: note_on channel=8 note=71 velocity=95 time=0
EXTRACT: note_on channel=11 note=69 velocity=95 time=0
EXTRACT: note_on channel=10 note=81 velocity=95 time=0
EXTRACT: note_off channel=13 note=36 velocity=95 time=0
EXTRACT: note_on channel=13 note=37 velocity=95 time=0
EXTRACT: note_off channel=9 note=61 velocity=95 time=0
EXTRACT: note_on channel=9 note=60 velocity=95 time=0
EXTRACT: note_off channel=9 note=51 velocity=95 time=0
EXTRACT: note_on channel=9 note=51 velocity=95 time=0
EXTRACT: note_on channel=9 note=35 velocity=95 time=0
EXTRACT: note_off channel=4 note=73 velocity=95 time=0.12
EXTRACT: note_off channel=4 note=61 velocity=95 time=0
EXTRACT: note_on channel=4 note=73 velocity=95 time=0
EXTRACT: note_on channel=4 note=61 velocity=95 time=0
EXTRACT: note_off channel=0 note=61 velocity=95 time=0.12
EXTRACT: note_on channel=0 note=64 velocity=95 time=0
EXTRACT: note_off channel=4 note=73 velocity=95 time=0
EXTRACT: note_off channel=4 note=61 velocity=95 time=0
EXTRACT: note_on channel=4 note=73 velocity=95 time=0
EXTRACT: note_on channel=4 note=61 velocity=95 time=0
EXTRACT: note_off channel=13 note=37 velocity=95 time=0
EXTRACT: note_on channel=13 note=32 velocity=95 time=0
EXTRACT: note_off channel=9 note=60 velocity=95 time=0
EXTRACT: note_on channel=9 note=60 velocity=95 time=0
EXTRACT: note_off channel=9 note=51 velocity=95 time=0
EXTRACT: note_off channel=9 note=35 velocity=95 time=0
EXTRACT: note_on channel=9 note=51 velocity=95 time=0
EXTRACT: note_off channel=4 note=73 velocity=95 time=0.12
EXTRACT: note_off channel=4 note=61 velocity=95 time=0
EXTRACT: note_on channel=4 note=73 velocity=95 time=0
EXTRACT: note_on channel=4 note=61 velocity=95 time=0
EXTRACT: note_off channel=0 note=64 velocity=95 time=0.12
EXTRACT: note_on channel=0 note=66 velocity=95 time=0
EXTRACT: note_off channel=4 note=73 velocity=95 time=0
EXTRACT: note_off channel=4 note=61 velocity=95 time=0
EXTRACT: note_on channel=4 note=69 velocity=95 time=0
EXTRACT: note_on channel=4 note=57 velocity=95 time=0
EXTRACT: note_off channel=11 note=69 velocity=95 time=0
EXTRACT: note_on channel=11 note=66 velocity=95 time=0
EXTRACT: note_off channel=10 note=81 velocity=95 time=0
EXTRACT: note_on channel=10 note=78 velocity=95 time=0
EXTRACT: note_off channel=13 note=32 velocity=95 time=0
EXTRACT: note_on channel=13 note=28 velocity=95 time=0
EXTRACT: note_off channel=9 note=60 velocity=95 time=0
EXTRACT: note_on channel=9 note=61 velocity=95 time=0
EXTRACT: note_off channel=9 note=51 velocity=95 time=0
EXTRACT: note_on channel=9 note=51 velocity=95 time=0
EXTRACT: note_on channel=9 note=38 velocity=95 time=0
EXTRACT: note_on channel=9 note=35 velocity=95 time=0
EXTRACT: note_off channel=0 note=66 velocity=95 time=0.24
EXTRACT: note_on channel=0 note=61 velocity=95 time=0
EXTRACT: note_off channel=2 note=71 velocity=95 time=0
EXTRACT: note_off channel=2 note=68 velocity=95 time=0
EXTRACT: note_off channel=2 note=64 velocity=95 time=0
EXTRACT: note_on channel=2 note=69 velocity=95 time=0
EXTRACT: note_on channel=2 note=64 velocity=95 time=0
EXTRACT: note_on channel=2 note=61 velocity=95 time=0
EXTRACT: note_off channel=4 note=69 velocity=95 time=0
EXTRACT: note_off channel=4 note=57 velocity=95 time=0
EXTRACT: note_on channel=4 note=69 velocity=95 time=0
EXTRACT: note_on channel=4 note=57 velocity=95 time=0
EXTRACT: note_off channel=8 note=71 velocity=95 time=0
EXTRACT: note_on channel=8 note=69 velocity=95 time=0
EXTRACT: note_off channel=11 note=66 velocity=95 time=0
EXTRACT: note_on channel=11 note=64 velocity=95 time=0
EXTRACT: note_off channel=10 note=78 velocity=95 time=0
EXTRACT: note_on channel=10 note=76 velocity=95 time=0
EXTRACT: note_off channel=9 note=61 velocity=95 time=0
EXTRACT: note_on channel=9 note=60 velocity=95 time=0
EXTRACT: note_off channel=9 note=51 velocity=95 time=0
EXTRACT: note_off channel=9 note=38 velocity=95 time=0
EXTRACT: note_off channel=9 note=35 velocity=95 time=0
EXTRACT: note_on channel=9 note=51 velocity=95 time=0
EXTRACT: note_off channel=0 note=61 velocity=95 time=0.24
EXTRACT: note_on channel=0 note=59 velocity=70 time=0
EXTRACT: note_off channel=4 note=69 velocity=95 time=0
EXTRACT: note_off channel=4 note=57 velocity=95 time=0
EXTRACT: note_off channel=11 note=64 velocity=95 time=0
EXTRACT: note_on channel=11 note=69 velocity=95 time=0
EXTRACT: note_off channel=10 note=76 velocity=95 time=0
EXTRACT: note_on channel=10 note=81 velocity=95 time=0
EXTRACT: note_off channel=13 note=28 velocity=95 time=0
EXTRACT: note_on channel=13 note=30 velocity=95 time=0
EXTRACT: note_off channel=9 note=60 velocity=95 time=0
EXTRACT: note_on channel=9 note=60 velocity=95 time=0
EXTRACT: note_off channel=9 note=51 velocity=95 time=0
EXTRACT: note_on channel=9 note=51 velocity=95 time=0
EXTRACT: note_on channel=9 note=35 velocity=95 time=0
EXTRACT: note_off channel=9 note=60 velocity=95 time=0.24
EXTRACT: note_on channel=9 note=60 velocity=95 time=0
EXTRACT: note_off channel=9 note=51 velocity=95 time=0
EXTRACT: note_off channel=9 note=35 velocity=95 time=0
EXTRACT: note_on channel=9 note=51 velocity=95 time=0
EXTRACT: note_off channel=0 note=59 velocity=70 time=0.24
EXTRACT: note_on channel=0 note=54 velocity=95 time=0
EXTRACT: note_off channel=11 note=69 velocity=95 time=0
EXTRACT: note_on channel=11 note=66 velocity=95 time=0
EXTRACT: note_off channel=10 note=81 velocity=95 time=0
EXTRACT: note_on channel=10 note=78 velocity=95 time=0
EXTRACT: note_off channel=13 note=30 velocity=95 time=0
EXTRACT: note_on channel=13 note=32 velocity=95 time=0
EXTRACT: note_off channel=9 note=60 velocity=95 time=0
EXTRACT: note_on channel=9 note=60 velocity=95 time=0
EXTRACT: note_off channel=9 note=51 velocity=95 time=0
EXTRACT: note_on channel=9 note=51 velocity=95 time=0
EXTRACT: note_on channel=9 note=38 velocity=95 time=0
EXTRACT: note_on channel=9 note=35 velocity=95 time=0
EXTRACT: note_off channel=0 note=54 velocity=95 time=0.24
EXTRACT: note_on channel=0 note=59 velocity=95 time=0
EXTRACT: note_off channel=11 note=66 velocity=95 time=0
EXTRACT: note_on channel=11 note=64 velocity=95 time=0
EXTRACT: note_off channel=10 note=78 velocity=95 time=0
EXTRACT: note_on channel=10 note=76 velocity=95 time=0
EXTRACT: note_off channel=13 note=32 velocity=95 time=0
EXTRACT: note_on channel=13 note=35 velocity=95 time=0
EXTRACT: note_off channel=9 note=60 velocity=95 time=0
EXTRACT: note_on channel=9 note=61 velocity=95 time=0
EXTRACT: note_off channel=9 note=51 velocity=95 time=0
EXTRACT: note_off channel=9 note=38 velocity=95 time=0
EXTRACT: note_off channel=9 note=35 velocity=95 time=0
EXTRACT: note_on channel=9 note=51 velocity=95 time=0
EXTRACT: note_off channel=0 note=59 velocity=95 time=0.24
EXTRACT: note_on channel=0 note=57 velocity=70 time=0
EXTRACT: note_off channel=2 note=69 velocity=95 time=0
EXTRACT: note_off channel=2 note=64 velocity=95 time=0
EXTRACT: note_off channel=2 note=61 velocity=95 time=0
EXTRACT: note_on channel=2 note=69 velocity=95 time=0
EXTRACT: note_on channel=2 note=67 velocity=95 time=0
EXTRACT: note_on channel=2 note=62 velocity=95 time=0
EXTRACT: note_on channel=2 note=59 velocity=95 time=0
EXTRACT: note_off channel=8 note=69 velocity=95 time=0
EXTRACT: note_on channel=8 note=69 velocity=95 time=0
EXTRACT: note_off channel=11 note=64 velocity=95 time=0
EXTRACT: note_on channel=11 note=69 velocity=95 time=0
EXTRACT: note_off channel=10 note=76 velocity=95 time=0
EXTRACT: note_on channel=10 note=81 velocity=95 time=0
EXTRACT: note_on channel=10 note=76 velocity=95 time=0
EXTRACT: note_off channel=13 note=35 velocity=95 time=0
EXTRACT: note_on channel=13 note=33 velocity=95 time=0
EXTRACT: note_off channel=9 note=61 velocity=95 time=0
EXTRACT: note_on channel=9 note=60 velocity=95 time=0
EXTRACT: note_off channel=9 note=51 velocity=95 time=0
EXTRACT: note_on channel=9 note=51 velocity=95 time=0
EXTRACT: note_on channel=9 note=35 velocity=95 time=0
EXTRACT: note_off channel=13 note=33 velocity=95 time=0.12
EXTRACT: note_on channel=4 note=66 velocity=95 time=0.12
EXTRACT: note_on channel=4 note=62 velocity=95 time=0
EXTRACT: note_off channel=11 note=69 velocity=95 time=0
EXTRACT: note_on channel=11 note=69 velocity=95 time=0
EXTRACT: note_off channel=10 note=81 velocity=95 time=0
EXTRACT: note_off channel=10 note=76 velocity=95 time=0
EXTRACT: note_on channel=10 note=81 velocity=95 time=0
EXTRACT: note_on channel=10 note=76 velocity=95 time=0
EXTRACT: note_on channel=13 note=33 velocity=95 time=0
EXTRACT: note_off channel=9 note=60 velocity=95 time=0
EXTRACT: note_on channel=9 note=60 velocity=95 time=0
EXTRACT: note_off channel=9 note=51 velocity=95 time=0
EXTRACT: note_off channel=9 note=35 velocity=95 time=0
EXTRACT: note_on channel=9 note=51 velocity=95 time=0
EXTRACT: note_off channel=0 note=57 velocity=70 time=0.24
EXTRACT: note_off channel=13 note=33 velocity=95 time=0
EXTRACT: note_on channel=13 note=55 velocity=95 time=0
EXTRACT: note_off channel=9 note=60 velocity=95 time=0
EXTRACT: note_on channel=9 note=61 velocity=95 time=0
EXTRACT: note_off channel=9 note=51 velocity=95 time=0
EXTRACT: note_on channel=9 note=51 velocity=95 time=0
EXTRACT: note_on channel=9 note=38 velocity=95 time=0
EXTRACT: note_on channel=9 note=35 velocity=95 time=0
EXTRACT: note_off channel=4 note=66 velocity=95 time=0.12
EXTRACT: note_off channel=4 note=62 velocity=95 time=0
EXTRACT: note_on channel=4 note=67 velocity=95 time=0
EXTRACT: note_on channel=4 note=62 velocity=95 time=0
EXTRACT: note_on channel=0 note=57 velocity=95 time=0.12
EXTRACT: note_off channel=11 note=69 velocity=95 time=0
EXTRACT: note_on channel=11 note=69 velocity=95 time=0
EXTRACT: note_off channel=10 note=81 velocity=95 time=0
EXTRACT: note_off channel=10 note=76 velocity=95 time=0
EXTRACT: note_on channel=10 note=81 velocity=95 time=0
EXTRACT: note_on channel=10 note=76 velocity=95 time=0
EXTRACT: note_off channel=13 note=55 velocity=95 time=0
EXTRACT: note_on channel=13 note=57 velocity=95 time=0
EXTRACT: note_off channel=9 note=61 velocity=95 time=0
EXTRACT: note_on channel=9 note=60 velocity=95 time=0
EXTRACT: note_off channel=9 note=51 velocity=95 time=0
EXTRACT: note_off channel=9 note=38 velocity=95 time=0
EXTRACT: note_off channel=9 note=35 velocity=95 time=0
EXTRACT: note_on channel=9 note=51 velocity=95 time=0
EXTRACT: note_off channel=4 note=67 velocity=95 time=0.24
EXTRACT: note_off channel=4 note=62 velocity=95 time=0
EXTRACT: note_on channel=4 note=69 velocity=95 time=0
EXTRACT: note_on channel=4 note=64 velocity=95 time=0
EXTRACT: note_off channel=11 note=69 velocity=95 time=0
EXTRACT: note_on channel=11 note=69 velocity=95 time=0
EXTRACT: note_off channel=10 note=81 velocity=95 time=0
EXTRACT: note_off channel=10 note=76 velocity=95 time=0
EXTRACT: note_on channel=10 note=81 velocity=95 time=0
EXTRACT: note_on channel=10 note=76 velocity=95 time=0
EXTRACT: note_off channel=13 note=57 velocity=95 time=0
EXTRACT: note_on channel=13 note=33 velocity=95 time=0
EXTRACT: note_off channel=9 note=60 velocity=95 time=0
EXTRACT: note_on channel=9 note=60 velocity=95 time=0
EXTRACT: note_off channel=9 note=51 velocity=95 time=0
EXTRACT: note_on channel=9 note=51 velocity=95 time=0
EXTRACT: note_on channel=9 note=35 velocity=95 time=0
EXTRACT: note_off channel=13 note=33 velocity=95 time=0.12
EXTRACT: note_on channel=13 note=33 velocity=95 time=0.12
EXTRACT: note_off channel=9 note=60 velocity=95 time=0
EXTRACT: note_on channel=9 note=60 velocity=95 time=0
EXTRACT: note_off channel=9 note=51 velocity=95 time=0
EXTRACT: note_off channel=9 note=35 velocity=95 time=0
EXTRACT: note_on channel=9 note=51 velocity=95 time=0
EXTRACT: note_off channel=0 note=57 velocity=95 time=0.24
EXTRACT: note_off channel=4 note=69 velocity=95 time=0
EXTRACT: note_off channel=4 note=64 velocity=95 time=0
EXTRACT: note_on channel=4 note=69 velocity=95 time=0
EXTRACT: note_on channel=4 note=64 velocity=95 time=0
EXTRACT: note_off channel=11 note=69 velocity=95 time=0
EXTRACT: note_on channel=11 note=69 velocity=95 time=0
EXTRACT: note_off channel=10 note=81 velocity=95 time=0
EXTRACT: note_off channel=10 note=76 velocity=95 time=0
EXTRACT: note_on channel=10 note=81 velocity=95 time=0
EXTRACT: note_on channel=10 note=76 velocity=95 time=0
EXTRACT: note_off channel=13 note=33 velocity=95 time=0
EXTRACT: note_on channel=13 note=55 velocity=95 time=0
EXTRACT: note_off channel=9 note=60 velocity=95 time=0
EXTRACT: note_on channel=9 note=60 velocity=95 time=0
EXTRACT: note_off channel=9 note=51 velocity=95 time=0
EXTRACT: note_on channel=9 note=51 velocity=95 time=0
EXTRACT: note_on channel=9 note=38 velocity=95 time=0
EXTRACT: note_on channel=9 note=35 velocity=95 time=0
EXTRACT: note_off channel=11 note=69 velocity=95 time=0.24
EXTRACT: note_on channel=11 note=69 velocity=95 time=0
EXTRACT: note_off channel=10 note=81 velocity=95 time=0
EXTRACT: note_off channel=10 note=76 velocity=95 time=0
EXTRACT: note_on channel=10 note=81 velocity=95 time=0
EXTRACT: note_on channel=10 note=76 velocity=95 time=0
EXTRACT: note_off channel=13 note=55 velocity=95 time=0
EXTRACT: note_on channel=13 note=57 velocity=95 time=0
EXTRACT: note_off channel=9 note=60 velocity=95 time=0
EXTRACT: note_on channel=9 note=61 velocity=95 time=0
EXTRACT: note_off channel=9 note=51 velocity=95 time=0
EXTRACT: note_off channel=9 note=38 velocity=95 time=0
EXTRACT: note_off channel=9 note=35 velocity=95 time=0
EXTRACT: note_on channel=9 note=51 velocity=95 time=0
EXTRACT: note_off channel=2 note=69 velocity=95 time=0.24
EXTRACT: note_off channel=2 note=67 velocity=95 time=0
EXTRACT: note_off channel=2 note=62 velocity=95 time=0
EXTRACT: note_off channel=2 note=59 velocity=95 time=0
EXTRACT: note_on channel=2 note=69 velocity=95 time=0
EXTRACT: note_on channel=2 note=67 velocity=95 time=0
EXTRACT: note_on channel=2 note=62 velocity=95 time=0
EXTRACT: note_on channel=2 note=59 velocity=95 time=0
EXTRACT: note_off channel=8 note=69 velocity=95 time=0
EXTRACT: note_on channel=8 note=69 velocity=95 time=0
EXTRACT: note_off channel=13 note=57 velocity=95 time=0
EXTRACT: note_on channel=13 note=33 velocity=95 time=0
EXTRACT: note_off channel=9 note=61 velocity=95 time=0
EXTRACT: note_on channel=9 note=60 velocity=95 time=0
EXTRACT: note_off channel=9 note=51 velocity=95 time=0
EXTRACT: note_on channel=9 note=51 velocity=95 time=0
EXTRACT: note_on channel=9 note=35 velocity=95 time=0
EXTRACT: note_off channel=13 note=33 velocity=95 time=0.12
EXTRACT: note_off channel=4 note=69 velocity=95 time=0.12
EXTRACT: note_off channel=4 note=64 velocity=95 time=0
EXTRACT: note_on channel=4 note=69 velocity=95 time=0
EXTRACT: note_on channel=4 note=64 velocity=95 time=0
EXTRACT: note_off channel=11 note=69 velocity=95 time=0
EXTRACT: note_on channel=11 note=69 velocity=95 time=0
EXTRACT: note_off channel=10 note=81 velocity=95 time=0
EXTRACT: note_off channel=10 note=76 velocity=95 time=0
EXTRACT: note_on channel=10 note=81 velocity=95 time=0
EXTRACT: note_on channel=10 note=76 velocity=95 time=0
EXTRACT: note_on channel=13 note=33 velocity=95 time=0
EXTRACT: note_off channel=9 note=60 velocity=95 time=0
EXTRACT: note_on channel=9 note=60 velocity=95 time=0
EXTRACT: note_off channel=9 note=51 velocity=95 time=0
EXTRACT: note_off channel=9 note=35 velocity=95 time=0
EXTRACT: note_on channel=9 note=51 velocity=95 time=0
EXTRACT: note_off channel=11 note=69 velocity=95 time=0.24
EXTRACT: note_on channel=11 note=69 velocity=95 time=0
EXTRACT: note_off channel=10 note=81 velocity=95 time=0
EXTRACT: note_off channel=10 note=76 velocity=95 time=0
EXTRACT: note_on channel=10 note=81 velocity=95 time=0
EXTRACT: note_on channel=10 note=76 velocity=95 time=0
EXTRACT: note_off channel=13 note=33 velocity=95 time=0
EXTRACT: note_on channel=13 note=55 velocity=95 time=0
EXTRACT: note_off channel=9 note=60 velocity=95 time=0
EXTRACT: note_on channel=9 note=61 velocity=95 time=0
EXTRACT: note_off channel=9 note=51 velocity=95 time=0
EXTRACT: note_on channel=9 note=51 velocity=95 time=0
EXTRACT: note_on channel=9 note=38 velocity=95 time=0
EXTRACT: note_on channel=9 note=35 velocity=95 time=0
EXTRACT: note_off channel=4 note=69 velocity=95 time=0.12
EXTRACT: note_off channel=4 note=64 velocity=95 time=0
EXTRACT: note_on channel=4 note=66 velocity=95 time=0
EXTRACT: note_on channel=4 note=62 velocity=95 time=0
EXTRACT: note_off channel=13 note=55 velocity=95 time=0.12
EXTRACT: note_on channel=13 note=57 velocity=95 time=0
EXTRACT: note_off channel=9 note=61 velocity=95 time=0
EXTRACT: note_on channel=9 note=60 velocity=95 time=0
EXTRACT: note_off channel=9 note=51 velocity=95 time=0
EXTRACT: note_off channel=9 note=38 velocity=95 time=0
EXTRACT: note_off channel=9 note=35 velocity=95 time=0
EXTRACT: note_on channel=9 note=51 velocity=95 time=0
EXTRACT: note_off channel=2 note=69 velocity=95 time=0.24
EXTRACT: note_off channel=2 note=67 velocity=95 time=0
EXTRACT: note_off channel=2 note=62 velocity=95 time=0
EXTRACT: note_off channel=2 note=59 velocity=95 time=0
EXTRACT: note_on channel=2 note=69 velocity=95 time=0
EXTRACT: note_on channel=2 note=67 velocity=95 time=0
EXTRACT: note_on channel=2 note=62 velocity=95 time=0
EXTRACT: note_on channel=2 note=59 velocity=95 time=0
EXTRACT: note_off channel=4 note=66 velocity=95 time=0
EXTRACT: note_off channel=4 note=62 velocity=95 time=0
EXTRACT: note_on channel=4 note=69 velocity=95 time=0
EXTRACT: note_on channel=4 note=62 velocity=95 time=0
EXTRACT: note_off channel=11 note=69 velocity=95 time=0
EXTRACT: note_on channel=11 note=69 velocity=95 time=0
EXTRACT: note_off channel=10 note=81 velocity=95 time=0
EXTRACT: note_off channel=10 note=76 velocity=95 time=0
EXTRACT: note_on channel=10 note=81 velocity=95 time=0
EXTRACT: note_on channel=10 note=76 velocity=95 time=0
EXTRACT: note_off channel=13 note=57 velocity=95 time=0
EXTRACT: note_on channel=13 note=33 velocity=95 time=0
EXTRACT: note_off channel=9 note=60 velocity=95 time=0
EXTRACT: note_on channel=9 note=60 velocity=95 time=0
EXTRACT: note_off channel=9 note=51 velocity=95 time=0
EXTRACT: note_on channel=9 note=51 velocity=95 time=0
EXTRACT: note_on channel=9 note=35 velocity=95 time=0
EXTRACT: note_off channel=2 note=69 velocity=95 time=0.24
EXTRACT: note_off channel=2 note=67 velocity=95 time=0
EXTRACT: note_off channel=2 note=62 velocity=95 time=0
EXTRACT: note_off channel=2 note=59 velocity=95 time=0
EXTRACT: note_off channel=11 note=69 velocity=95 time=0
EXTRACT: note_on channel=11 note=69 velocity=95 time=0
EXTRACT: note_off channel=10 note=81 velocity=95 time=0
EXTRACT: note_off channel=10 note=76 velocity=95 time=0
EXTRACT: note_on channel=10 note=81 velocity=95 time=0
EXTRACT: note_on channel=10 note=76 velocity=95 time=0
EXTRACT: note_off channel=13 note=33 velocity=95 time=0
EXTRACT: note_off channel=9 note=60 velocity=95 time=0
EXTRACT: note_on channel=9 note=60 velocity=95 time=0
EXTRACT: note_off channel=9 note=51 velocity=95 time=0
EXTRACT: note_off channel=9 note=35 velocity=95 time=0
EXTRACT: note_on channel=9 note=51 velocity=95 time=0
EXTRACT: note_on channel=2 note=69 velocity=95 time=0.24
EXTRACT: note_on channel=2 note=67 velocity=95 time=0
EXTRACT: note_on channel=2 note=62 velocity=95 time=0
EXTRACT: note_on channel=2 note=59 velocity=95 time=0
EXTRACT: note_off channel=4 note=69 velocity=95 time=0
EXTRACT: note_off channel=4 note=62 velocity=95 time=0
EXTRACT: note_on channel=4 note=69 velocity=95 time=0
EXTRACT: note_on channel=4 note=64 velocity=95 time=0
EXTRACT: note_off channel=11 note=69 velocity=95 time=0
EXTRACT: note_on channel=11 note=69 velocity=95 time=0
EXTRACT: note_off channel=10 note=81 velocity=95 time=0
EXTRACT: note_off channel=10 note=76 velocity=95 time=0
EXTRACT: note_on channel=10 note=81 velocity=95 time=0
EXTRACT: note_on channel=10 note=76 velocity=95 time=0
EXTRACT: note_on channel=13 note=34 velocity=95 time=0
EXTRACT: note_off channel=9 note=60 velocity=95 time=0
EXTRACT: note_on channel=9 note=60 velocity=95 time=0
EXTRACT: note_off channel=9 note=51 velocity=95 time=0
EXTRACT: note_on channel=9 note=51 velocity=95 time=0
EXTRACT: note_on channel=9 note=38 velocity=95 time=0
EXTRACT: note_on channel=9 note=35 velocity=95 time=0
EXTRACT: note_off channel=2 note=69 velocity=95 time=0.24
EXTRACT: note_off channel=2 note=67 velocity=95 time=0
EXTRACT: note_off channel=2 note=62 velocity=95 time=0
EXTRACT: note_off channel=2 note=59 velocity=95 time=0
EXTRACT: note_off channel=11 note=69 velocity=95 time=0
EXTRACT: note_off channel=10 note=81 velocity=95 time=0
EXTRACT: note_off channel=10 note=76 velocity=95 time=0
EXTRACT: note_off channel=13 note=34 velocity=95 time=0
EXTRACT: note_off channel=9 note=60 velocity=95 time=0
EXTRACT: note_on channel=9 note=61 velocity=95 time=0
EXTRACT: note_off channel=9 note=51 velocity=95 time=0
EXTRACT: note_off channel=9 note=38 velocity=95 time=0
EXTRACT: note_off channel=9 note=35 velocity=95 time=0
EXTRACT: note_on channel=9 note=38 velocity=95 time=0
EXTRACT: note_off channel=9 note=38 velocity=95 time=0.12
EXTRACT: note_on channel=9 note=38 velocity=95 time=0
EXTRACT: note_on channel=0 note=73 velocity=95 time=0.12
EXTRACT: note_on channel=2 note=69 velocity=95 time=0
EXTRACT: note_on channel=2 note=66 velocity=95 time=0
EXTRACT: note_on channel=2 note=62 velocity=95 time=0
EXTRACT: note_off channel=4 note=69 velocity=95 time=0
EXTRACT: note_off channel=4 note=64 velocity=95 time=0
EXTRACT: note_off channel=8 note=69 velocity=95 time=0
EXTRACT: note_on channel=8 note=69 velocity=95 time=0
EXTRACT: note_on channel=13 note=35 velocity=95 time=0
EXTRACT: note_off channel=9 note=61 velocity=95 time=0
EXTRACT: note_on channel=9 note=60 velocity=95 time=0
EXTRACT: note_off channel=9 note=38 velocity=95 time=0
EXTRACT: note_on channel=9 note=57 velocity=95 time=0
EXTRACT: note_on channel=9 note=35 velocity=95 time=0
EXTRACT: note_on channel=4 note=61 velocity=95 time=0.24
EXTRACT: note_on channel=11 note=69 velocity=95 time=0
EXTRACT: note_on channel=10 note=81 velocity=95 time=0
EXTRACT: note_off channel=13 note=35 velocity=95 time=0
EXTRACT: note_on channel=13 note=35 velocity=95 time=0
EXTRACT: note_off channel=9 note=60 velocity=95 time=0
EXTRACT: note_on channel=9 note=60 velocity=95 time=0
EXTRACT: note_off channel=9 note=57 velocity=95 time=0
EXTRACT: note_off channel=9 note=35 velocity=95 time=0
EXTRACT: note_on channel=9 note=51 velocity=95 time=0
EXTRACT: note_off channel=0 note=73 velocity=95 time=0.24
EXTRACT: note_on channel=0 note=74 velocity=95 time=0
EXTRACT: note_off channel=4 note=61 velocity=95 time=0
EXTRACT: note_off channel=11 note=69 velocity=95 time=0
EXTRACT: note_off channel=10 note=81 velocity=95 time=0
EXTRACT: note_off channel=13 note=35 velocity=95 time=0
EXTRACT: note_on channel=13 note=42 velocity=95 time=0
EXTRACT: note_off channel=9 note=60 velocity=95 time=0
EXTRACT: note_on channel=9 note=61 velocity=95 time=0
EXTRACT: note_off channel=9 note=51 velocity=95 time=0
EXTRACT: note_on channel=9 note=51 velocity=95 time=0
EXTRACT: note_on channel=9 note=38 velocity=95 time=0
EXTRACT: note_on channel=9 note=35 velocity=95 time=0
EXTRACT: note_off channel=0 note=74 velocity=95 time=0.24
EXTRACT: note_on channel=0 note=73 velocity=95 time=0
EXTRACT: note_off channel=2 note=69 velocity=95 time=0
EXTRACT: note_off channel=2 note=66 velocity=95 time=0
EXTRACT: note_off channel=2 note=62 velocity=95 time=0
EXTRACT: note_on channel=2 note=68 velocity=95 time=0
EXTRACT: note_on channel=2 note=62 velocity=95 time=0
EXTRACT: note_on channel=2 note=59 velocity=95 time=0
EXTRACT: note_on channel=4 note=59 velocity=95 time=0
EXTRACT: note_off channel=8 note=69 velocity=95 time=0
EXTRACT: note_on channel=8 note=68 velocity=95 time=0
EXTRACT: note_off channel=13 note=42 velocity=95 time=0
EXTRACT: note_on channel=13 note=40 velocity=95 time=0
EXTRACT: note_off channel=9 note=61 velocity=95 time=0
EXTRACT: note_on channel=9 note=60 velocity=95 time=0
EXTRACT: note_off channel=9 note=51 velocity=95 time=0
EXTRACT: note_off channel=9 note=38 velocity=95 time=0
EXTRACT: note_off channel=9 note=35 velocity=95 time=0
EXTRACT: note_on channel=9 note=51 velocity=95 time=0
EXTRACT: note_on channel=15 note=73 velocity=95 time=0.24
EXTRACT: note_off channel=4 note=59 velocity=95 time=0
EXTRACT: note_off channel=13 note=40 velocity=95 time=0
EXTRACT: note_off channel=9 note=60 velocity=95 time=0
EXTRACT: note_on channel=9 note=60 velocity=95 time=0
EXTRACT: note_off channel=9 note=51 velocity=95 time=0
EXTRACT: note_on channel=9 note=51 velocity=95 time=0
EXTRACT: note_on channel=9 note=35 velocity=95 time=0
EXTRACT: note_on channel=4 note=57 velocity=95 time=0.24
EXTRACT: note_on channel=11 note=68 velocity=95 time=0
EXTRACT: note_on channel=10 note=80 velocity=95 time=0
EXTRACT: note_on channel=13 note=33 velocity=95 time=0
EXTRACT: note_off channel=9 note=60 velocity=95 time=0
EXTRACT: note_on channel=9 note=60 velocity=95 time=0
EXTRACT: note_off channel=9 note=51 velocity=95 time=0
EXTRACT: note_off channel=9 note=35 velocity=95 time=0
EXTRACT: note_on channel=9 note=51 velocity=95 time=0
EXTRACT: note_off channel=0 note=73 velocity=95 time=0.24
EXTRACT: note_off channel=15 note=73 velocity=95 time=0
EXTRACT: note_on channel=15 note=71 velocity=95 time=0
EXTRACT: note_off channel=4 note=57 velocity=95 time=0
EXTRACT: note_off channel=11 note=68 velocity=95 time=0
EXTRACT: note_off channel=10 note=80 velocity=95 time=0
EXTRACT: note_off channel=13 note=33 velocity=95 time=0
EXTRACT: note_on channel=13 note=35 velocity=95 time=0
EXTRACT: note_off channel=9 note=60 velocity=95 time=0
EXTRACT: note_on channel=9 note=60 velocity=95 time=0
EXTRACT: note_off channel=9 note=51 velocity=95 time=0
EXTRACT: note_on channel=9 note=51 velocity=95 time=0
EXTRACT: note_on channel=9 note=38 velocity=95 time=0
EXTRACT: note_on channel=9 note=35 velocity=95 time=0
EXTRACT: note_off channel=15 note=71 velocity=95 time=0.24
EXTRACT: note_on channel=15 note=69 velocity=95 time=0
EXTRACT: note_off channel=13 note=35 velocity=95 time=0
EXTRACT: note_on channel=13 note=36 velocity=95 time=0
EXTRACT: note_off channel=9 note=60 velocity=95 time=0
EXTRACT: note_on channel=9 note=61 velocity=95 time=0
EXTRACT: note_off channel=9 note=51 velocity=95 time=0
EXTRACT: note_off channel=9 note=38 velocity=95 time=0
EXTRACT: note_off channel=9 note=35 velocity=95 time=0
EXTRACT: note_on channel=9 note=51 velocity=95 time=0
EXTRACT: note_on channel=0 note=73 velocity=95 time=0.24
EXTRACT: note_off channel=2 note=68 velocity=95 time=0
EXTRACT: note_off channel=2 note=62 velocity=95 time=0
EXTRACT: note_off channel=2 note=59 velocity=95 time=0
EXTRACT: note_on channel=2 note=71 velocity=95 time=0
EXTRACT: note_on channel=2 note=68 velocity=95 time=0
EXTRACT: note_on channel=2 note=64 velocity=95 time=0
EXTRACT: note_on channel=4 note=59 velocity=95 time=0
EXTRACT: note_off channel=8 note=68 velocity=95 time=0
EXTRACT: note_on channel=8 note=71 velocity=95 time=0
EXTRACT: note_on channel=11 note=69 velocity=95 time=0
EXTRACT: note_on channel=10 note=81 velocity=95 time=0
EXTRACT: note_off channel=13 note=36 velocity=95 time=0
EXTRACT: note_on channel=13 note=37 velocity=95 time=0
EXTRACT: note_off channel=9 note=61 velocity=95 time=0
EXTRACT: note_on channel=9 note=60 velocity=95 time=0
EXTRACT: note_off channel=9 note=51 velocity=95 time=0
EXTRACT: note_on channel=9 note=51 velocity=95 time=0
EXTRACT: note_on channel=9 note=35 velocity=95 time=0
EXTRACT: note_off channel=0 note=73 velocity=95 time=0.24
EXTRACT: note_on channel=0 note=74 velocity=95 time=0
EXTRACT: note_off channel=4 note=59 velocity=95 time=0
EXTRACT: note_on channel=4 note=59 velocity=95 time=0
EXTRACT: note_off channel=13 note=37 velocity=95 time=0
EXTRACT: note_on channel=13 note=32 velocity=95 time=0
EXTRACT: note_off channel=9 note=60 velocity=95 time=0
EXTRACT: note_on channel=9 note=60 velocity=95 time=0
EXTRACT: note_off channel=9 note=51 velocity=95 time=0
EXTRACT: note_off channel=9 note=35 velocity=95 time=0
EXTRACT: note_on channel=9 note=51 velocity=95 time=0
EXTRACT: note_off channel=0 note=74 velocity=95 time=0.24
EXTRACT: note_on channel=0 note=73 velocity=95 time=0
EXTRACT: note_off channel=4 note=59 velocity=95 time=0
EXTRACT: note_on channel=4 note=59 velocity=95 time=0
EXTRACT: note_off channel=11 note=69 velocity=95 time=0
EXTRACT: note_on channel=11 note=66 velocity=95 time=0
EXTRACT: note_off channel=10 note=81 velocity=95 time=0
EXTRACT: note_on channel=10 note=78 velocity=95 time=0
EXTRACT: note_off channel=13 note=32 velocity=95 time=0
EXTRACT: note_on channel=13 note=28 velocity=95 time=0
EXTRACT: note_off channel=9 note=60 velocity=95 time=0
EXTRACT: note_on channel=9 note=61 velocity=95 time=0
EXTRACT: note_off channel=9 note=51 velocity=95 time=0
EXTRACT: note_on channel=9 note=51 velocity=95 time=0
EXTRACT: note_on channel=9 note=38 velocity=95 time=0
EXTRACT: note_on channel=9 note=35 velocity=95 time=0
EXTRACT: note_off channel=0 note=73 velocity=95 time=0.24
EXTRACT: note_on channel=0 note=71 velocity=95 time=0
EXTRACT: note_off channel=2 note=71 velocity=95 time=0
EXTRACT: note_off channel=2 note=68 velocity=95 time=0
EXTRACT: note_off channel=2 note=64 velocity=95 time=0
EXTRACT: note_on channel=2 note=69 velocity=95 time=0
EXTRACT: note_on channel=2 note=64 velocity=95 time=0
EXTRACT: note_on channel=2 note=61 velocity=95 time=0
EXTRACT: note_off channel=4 note=59 velocity=95 time=0
EXTRACT: note_on channel=4 note=56 velocity=95 time=0
EXTRACT: note_off channel=8 note=71 velocity=95 time=0
EXTRACT: note_on channel=8 note=69 velocity=95 time=0
EXTRACT: note_off channel=11 note=66 velocity=95 time=0
EXTRACT: note_on channel=11 note=64 velocity=95 time=0
EXTRACT: note_off channel=10 note=78 velocity=95 time=0
EXTRACT: note_on channel=10 note=76 velocity=95 time=0
EXTRACT: note_off channel=9 note=61 velocity=95 time=0
EXTRACT: note_on channel=9 note=60 velocity=95 time=0
EXTRACT: note_off channel=9 note=51 velocity=95 time=0
EXTRACT: note_off channel=9 note=38 velocity=95 time=0
EXTRACT: note_off channel=9 note=35 velocity=95 time=0
EXTRACT: note_on channel=9 note=51 velocity=95 time=0
EXTRACT: note_off channel=0 note=71 velocity=95 time=0.24
EXTRACT: note_on channel=0 note=69 velocity=95 time=0
EXTRACT: note_off channel=15 note=69 velocity=95 time=0
EXTRACT: note_on channel=15 note=66 velocity=95 time=0
EXTRACT: note_off channel=11 note=64 velocity=95 time=0
EXTRACT: note_on channel=11 note=69 velocity=95 time=0
EXTRACT: note_off channel=10 note=76 velocity=95 time=0
EXTRACT: note_on channel=10 note=81 velocity=95 time=0
EXTRACT: note_off channel=13 note=28 velocity=95 time=0
EXTRACT: note_on channel=13 note=30 velocity=95 time=0
EXTRACT: note_off channel=9 note=60 velocity=95 time=0
EXTRACT: note_on channel=9 note=60 velocity=95 time=0
EXTRACT: note_off channel=9 note=51 velocity=95 time=0
EXTRACT: note_on channel=9 note=51 velocity=95 time=0
EXTRACT: note_on channel=9 note=35 velocity=95 time=0
EXTRACT: note_off channel=4 note=56 velocity=95 time=0.24
EXTRACT: note_on channel=4 note=57 velocity=95 time=0
EXTRACT: note_off channel=9 note=60 velocity=95 time=0
EXTRACT: note_on channel=9 note=60 velocity=95 time=0
EXTRACT: note_off channel=9 note=51 velocity=95 time=0
EXTRACT: note_off channel=9 note=35 velocity=95 time=0
EXTRACT: note_on channel=9 note=51 velocity=95 time=0
EXTRACT: note_off channel=0 note=69 velocity=95 time=0.24
EXTRACT: note_on channel=0 note=71 velocity=95 time=0
EXTRACT: note_off channel=15 note=66 velocity=95 time=0
EXTRACT: note_off channel=4 note=57 velocity=95 time=0
EXTRACT: note_off channel=11 note=69 velocity=95 time=0
EXTRACT: note_on channel=11 note=66 velocity=95 time=0
EXTRACT: note_off channel=10 note=81 velocity=95 time=0
EXTRACT: note_on channel=10 note=78 velocity=95 time=0
EXTRACT: note_off channel=13 note=30 velocity=95 time=0
EXTRACT: note_on channel=13 note=32 velocity=95 time=0
EXTRACT: note_off channel=9 note=60 velocity=95 time=0
EXTRACT: note_on channel=9 note=60 velocity=95 time=0
EXTRACT: note_off channel=9 note=51 velocity=95 time=0
EXTRACT: note_on channel=9 note=51 velocity=95 time=0
EXTRACT: note_on channel=9 note=38 velocity=95 time=0
EXTRACT: note_on channel=9 note=35 velocity=95 time=0
EXTRACT: note_off channel=0 note=71 velocity=95 time=0.24
EXTRACT: note_off channel=11 note=66 velocity=95 time=0
EXTRACT: note_on channel=11 note=64 velocity=95 time=0
EXTRACT: note_off channel=10 note=78 velocity=95 time=0
EXTRACT: note_on channel=10 note=76 velocity=95 time=0
EXTRACT: note_off channel=13 note=32 velocity=95 time=0
EXTRACT: note_on channel=13 note=33 velocity=95 time=0
EXTRACT: note_off channel=9 note=60 velocity=95 time=0
EXTRACT: note_on channel=9 note=61 velocity=95 time=0
EXTRACT: note_off channel=9 note=51 velocity=95 time=0
EXTRACT: note_off channel=9 note=38 velocity=95 time=0
EXTRACT: note_off channel=9 note=35 velocity=95 time=0
EXTRACT: note_on channel=9 note=51 velocity=95 time=0
EXTRACT: note_on channel=0 note=73 velocity=95 time=0.24
EXTRACT: note_off channel=2 note=69 velocity=95 time=0
EXTRACT: note_off channel=2 note=64 velocity=95 time=0
EXTRACT: note_off channel=2 note=61 velocity=95 time=0
EXTRACT: note_on channel=2 note=69 velocity=95 time=0
EXTRACT: note_on channel=2 note=66 velocity=95 time=0
EXTRACT: note_on channel=2 note=62 velocity=95 time=0
EXTRACT: note_off channel=8 note=69 velocity=95 time=0
EXTRACT: note_on channel=8 note=69 velocity=95 time=0
EXTRACT: note_off channel=11 note=64 velocity=95 time=0
EXTRACT: note_off channel=10 note=76 velocity=95 time=0
EXTRACT: note_off channel=13 note=33 velocity=95 time=0
EXTRACT: note_on channel=13 note=35 velocity=95 time=0
EXTRACT: note_off channel=9 note=61 velocity=95 time=0
EXTRACT: note_on channel=9 note=60 velocity=95 time=0
EXTRACT: note_off channel=9 note=51 velocity=95 time=0
EXTRACT: note_on channel=9 note=51 velocity=95 time=0
EXTRACT: note_on channel=9 note=35 velocity=95 time=0
EXTRACT: note_on channel=4 note=61 velocity=95 time=0.24
EXTRACT: note_on channel=11 note=69 velocity=95 time=0
EXTRACT: note_on channel=10 note=81 velocity=95 time=0
EXTRACT: note_off channel=13 note=35 velocity=95 time=0
EXTRACT: note_on channel=13 note=35 velocity=95 time=0
EXTRACT: note_off channel=9 note=60 velocity=95 time=0
EXTRACT: note_on channel=9 note=60 velocity=95 time=0
EXTRACT: note_off channel=9 note=51 velocity=95 time=0
EXTRACT: note_off channel=9 note=35 velocity=95 time=0
EXTRACT: note_on channel=9 note=51 velocity=95 time=0
EXTRACT: note_off channel=0 note=73 velocity=95 time=0.24
EXTRACT: note_on channel=0 note=74 velocity=95 time=0
EXTRACT: note_off channel=4 note=61 velocity=95 time=0
EXTRACT: note_off channel=11 note=69 velocity=95 time=0
EXTRACT: note_off channel=10 note=81 velocity=95 time=0
EXTRACT: note_off channel=13 note=35 velocity=95 time=0
EXTRACT: note_on channel=13 note=42 velocity=95 time=0
EXTRACT: note_off channel=9 note=60 velocity=95 time=0
EXTRACT: note_on channel=9 note=61 velocity=95 time=0
EXTRACT: note_off channel=9 note=51 velocity=95 time=0
EXTRACT: note_on channel=9 note=51 velocity=95 time=0
EXTRACT: note_on channel=9 note=38 velocity=95 time=0
EXTRACT: note_on channel=9 note=35 velocity=95 time=0
EXTRACT: note_off channel=0 note=74 velocity=95 time=0.24
EXTRACT: note_on channel=0 note=73 velocity=95 time=0
EXTRACT: note_off channel=2 note=69 velocity=95 time=0
EXTRACT: note_off channel=2 note=66 velocity=95 time=0
EXTRACT: note_off channel=2 note=62 velocity=95 time=0
EXTRACT: note_on channel=2 note=68 velocity=95 time=0
EXTRACT: note_on channel=2 note=62 velocity=95 time=0
EXTRACT: note_on channel=2 note=59 velocity=95 time=0
EXTRACT: note_on channel=4 note=59 velocity=95 time=0
EXTRACT: note_off channel=8 note=69 velocity=95 time=0
EXTRACT: note_on channel=8 note=68 velocity=95 time=0
EXTRACT: note_off channel=13 note=42 velocity=95 time=0
EXTRACT: note_on channel=13 note=40 velocity=95 time=0
EXTRACT: note_off channel=9 note=61 velocity=95 time=0
EXTRACT: note_on channel=9 note=60 velocity=95 time=0
EXTRACT: note_off channel=9 note=51 velocity=95 time=0
EXTRACT: note_off channel=9 note=38 velocity=95 time=0
EXTRACT: note_off channel=9 note=35 velocity=95 time=0
EXTRACT: note_on channel=9 note=51 velocity=95 time=0
EXTRACT: note_on channel=15 note=73 velocity=95 time=0.24
EXTRACT: note_off channel=4 note=59 velocity=95 time=0
EXTRACT: note_off channel=13 note=40 velocity=95 time=0
EXTRACT: note_off channel=9 note=60 velocity=95 time=0
EXTRACT: note_on channel=9 note=60 velocity=95 time=0
EXTRACT: note_off channel=9 note=51 velocity=95 time=0
EXTRACT: note_on channel=9 note=51 velocity=95 time=0
EXTRACT: note_on channel=9 note=35 velocity=95 time=0
EXTRACT: note_on channel=4 note=57 velocity=95 time=0.24
EXTRACT: note_on channel=11 note=68 velocity=95 time=0
EXTRACT: note_on channel=10 note=80 velocity=95 time=0
EXTRACT: note_on channel=13 note=33 velocity=95 time=0
EXTRACT: note_off channel=9 note=60 velocity=95 time=0
EXTRACT: note_on channel=9 note=60 velocity=95 time=0
EXTRACT: note_off channel=9 note=51 velocity=95 time=0
EXTRACT: note_off channel=9 note=35 velocity=95 time=0
EXTRACT: note_on channel=9 note=51 velocity=95 time=0
EXTRACT: note_off channel=0 note=73 velocity=95 time=0.24
EXTRACT: note_off channel=15 note=73 velocity=95 time=0
EXTRACT: note_on channel=15 note=71 velocity=95 time=0
EXTRACT: note_off channel=4 note=57 velocity=95 time=0
EXTRACT: note_off channel=11 note=68 velocity=95 time=0
EXTRACT: note_off channel=10 note=80 velocity=95 time=0
EXTRACT: note_off channel=13 note=33 velocity=95 time=0
EXTRACT: note_on channel=13 note=35 velocity=95 time=0
EXTRACT: note_off channel=9 note=60 velocity=95 time=0
EXTRACT: note_on channel=9 note=60 velocity=95 time=0
EXTRACT: note_off channel=9 note=51 velocity=95 time=0
EXTRACT: note_on channel=9 note=51 velocity=95 time=0
EXTRACT: note_on channel=9 note=38 velocity=95 time=0
EXTRACT: note_on channel=9 note=35 velocity=95 time=0
EXTRACT: note_off channel=15 note=71 velocity=95 time=0.24
EXTRACT: note_on channel=15 note=69 velocity=95 time=0
EXTRACT: note_on channel=4 note=45 velocity=95 time=0
EXTRACT: note_off channel=13 note=35 velocity=95 time=0
EXTRACT: note_on channel=13 note=36 velocity=95 time=0
EXTRACT: note_off channel=9 note=60 velocity=95 time=0
EXTRACT: note_on channel=9 note=61 velocity=95 time=0
EXTRACT: note_off channel=9 note=51 velocity=95 time=0
EXTRACT: note_off channel=9 note=38 velocity=95 time=0
EXTRACT: note_off channel=9 note=35 velocity=95 time=0
EXTRACT: note_on channel=9 note=51 velocity=95 time=0
EXTRACT: note_off channel=4 note=45 velocity=95 time=0.031
EXTRACT: note_on channel=0 note=73 velocity=95 time=0.209
EXTRACT: note_off channel=2 note=68 velocity=95 time=0
EXTRACT: note_off channel=2 note=62 velocity=95 time=0
EXTRACT: note_off channel=2 note=59 velocity=95 time=0
EXTRACT: note_on channel=2 note=71 velocity=95 time=0
EXTRACT: note_on channel=2 note=68 velocity=95 time=0
EXTRACT: note_on channel=2 note=64 velocity=95 time=0
EXTRACT: note_on channel=5 note=59 velocity=95 time=0
EXTRACT: note_off channel=8 note=68 velocity=95 time=0
EXTRACT: note_on channel=8 note=71 velocity=95 time=0
EXTRACT: note_on channel=11 note=69 velocity=95 time=0
EXTRACT: note_on channel=10 note=81 velocity=95 time=0
EXTRACT: note_off channel=13 note=36 velocity=95 time=0
EXTRACT: note_on channel=13 note=37 velocity=95 time=0
EXTRACT: note_off channel=9 note=61 velocity=95 time=0
EXTRACT: note_on channel=9 note=60 velocity=95 time=0
EXTRACT: note_off channel=9 note=51 velocity=95 time=0
EXTRACT: note_on channel=9 note=51 velocity=95 time=0
EXTRACT: note_on channel=9 note=35 velocity=95 time=0
EXTRACT: pitchwheel channel=5 pitch=0 time=0.06
EXTRACT: pitchwheel channel=5 pitch=0 time=0.06
EXTRACT: pitchwheel channel=5 pitch=0 time=0.06
EXTRACT: note_off channel=0 note=73 velocity=95 time=0.06
EXTRACT: note_on channel=0 note=74 velocity=95 time=0
EXTRACT: pitchwheel channel=5 pitch=0 time=0
EXTRACT: pitchwheel channel=5 pitch=0 time=0
EXTRACT: note_off channel=5 note=59 velocity=95 time=0
EXTRACT: note_on channel=4 note=59 velocity=95 time=0
EXTRACT: note_off channel=13 note=37 velocity=95 time=0
EXTRACT: note_on channel=13 note=32 velocity=95 time=0
EXTRACT: note_off channel=9 note=60 velocity=95 time=0
EXTRACT: note_on channel=9 note=60 velocity=95 time=0
EXTRACT: note_off channel=9 note=51 velocity=95 time=0
EXTRACT: note_off channel=9 note=35 velocity=95 time=0
EXTRACT: note_on channel=9 note=51 velocity=95 time=0
EXTRACT: note_off channel=0 note=74 velocity=95 time=0.24
EXTRACT: note_on channel=0 note=73 velocity=95 time=0
EXTRACT: note_off channel=4 note=59 velocity=95 time=0
EXTRACT: note_on channel=4 note=59 velocity=95 time=0
EXTRACT: note_off channel=11 note=69 velocity=95 time=0
EXTRACT: note_on channel=11 note=66 velocity=95 time=0
EXTRACT: note_off channel=10 note=81 velocity=95 time=0
EXTRACT: note_on channel=10 note=78 velocity=95 time=0
EXTRACT: note_off channel=13 note=32 velocity=95 time=0
EXTRACT: note_on channel=13 note=28 velocity=95 time=0
EXTRACT: note_off channel=9 note=60 velocity=95 time=0
EXTRACT: note_on channel=9 note=61 velocity=95 time=0
EXTRACT: note_off channel=9 note=51 velocity=95 time=0
EXTRACT: note_on channel=9 note=51 velocity=95 time=0
EXTRACT: note_on channel=9 note=38 velocity=95 time=0
EXTRACT: note_on channel=9 note=35 velocity=95 time=0
EXTRACT: note_off channel=0 note=73 velocity=95 time=0.24
EXTRACT: note_on channel=0 note=71 velocity=95 time=0
EXTRACT: note_off channel=2 note=71 velocity=95 time=0
EXTRACT: note_off channel=2 note=68 velocity=95 time=0
EXTRACT: note_off channel=2 note=64 velocity=95 time=0
EXTRACT: note_on channel=2 note=69 velocity=95 time=0
EXTRACT: note_on channel=2 note=64 velocity=95 time=0
EXTRACT: note_on channel=2 note=61 velocity=95 time=0
EXTRACT: note_off channel=4 note=59 velocity=95 time=0
EXTRACT: note_on channel=4 note=56 velocity=95 time=0
EXTRACT: note_off channel=8 note=71 velocity=95 time=0
EXTRACT: note_on channel=8 note=69 velocity=95 time=0
EXTRACT: note_off channel=11 note=66 velocity=95 time=0
EXTRACT: note_on channel=11 note=64 velocity=95 time=0
EXTRACT: note_off channel=10 note=78 velocity=95 time=0
EXTRACT: note_on channel=10 note=76 velocity=95 time=0
EXTRACT: note_off channel=9 note=61 velocity=95 time=0
EXTRACT: note_on channel=9 note=60 velocity=95 time=0
EXTRACT: note_off channel=9 note=51 velocity=95 time=0
EXTRACT: note_off channel=9 note=38 velocity=95 time=0
EXTRACT: note_off channel=9 note=35 velocity=95 time=0
EXTRACT: note_on channel=9 note=51 velocity=95 time=0
EXTRACT: note_off channel=0 note=71 velocity=95 time=0.24
EXTRACT: note_on channel=0 note=69 velocity=95 time=0
EXTRACT: note_off channel=15 note=69 velocity=95 time=0
EXTRACT: note_on channel=15 note=66 velocity=95 time=0
EXTRACT: note_off channel=11 note=64 velocity=95 time=0
EXTRACT: note_on channel=11 note=69 velocity=95 time=0
EXTRACT: note_off channel=10 note=76 velocity=95 time=0
EXTRACT: note_on channel=10 note=81 velocity=95 time=0
EXTRACT: note_off channel=13 note=28 velocity=95 time=0
EXTRACT: note_on channel=13 note=30 velocity=95 time=0
EXTRACT: note_off channel=9 note=60 velocity=95 time=0
EXTRACT: note_on channel=9 note=60 velocity=95 time=0
EXTRACT: note_off channel=9 note=51 velocity=95 time=0
EXTRACT: note_on channel=9 note=51 velocity=95 time=0
EXTRACT: note_on channel=9 note=35 velocity=95 time=0
EXTRACT: note_off channel=4 note=56 velocity=95 time=0.24
EXTRACT: note_on channel=4 note=57 velocity=95 time=0
EXTRACT: note_off channel=9 note=60 velocity=95 time=0
EXTRACT: note_on channel=9 note=60 velocity=95 time=0
EXTRACT: note_off channel=9 note=51 velocity=95 time=0
EXTRACT: note_off channel=9 note=35 velocity=95 time=0
EXTRACT: note_on channel=9 note=51 velocity=95 time=0
EXTRACT: note_off channel=0 note=69 velocity=95 time=0.24
EXTRACT: note_on channel=0 note=71 velocity=95 time=0
EXTRACT: note_off channel=15 note=66 velocity=95 time=0
EXTRACT: note_off channel=4 note=57 velocity=95 time=0
EXTRACT: note_off channel=11 note=69 velocity=95 time=0
EXTRACT: note_on channel=11 note=66 velocity=95 time=0
EXTRACT: note_off channel=10 note=81 velocity=95 time=0
EXTRACT: note_on channel=10 note=78 velocity=95 time=0
EXTRACT: note_off channel=13 note=30 velocity=95 time=0
EXTRACT: note_on channel=13 note=32 velocity=95 time=0
EXTRACT: note_off channel=9 note=60 velocity=95 time=0
EXTRACT: note_on channel=9 note=60 velocity=95 time=0
EXTRACT: note_off channel=9 note=51 velocity=95 time=0
EXTRACT: note_on channel=9 note=51 velocity=95 time=0
EXTRACT: note_on channel=9 note=38 velocity=95 time=0
EXTRACT: note_on channel=9 note=35 velocity=95 time=0
EXTRACT: note_off channel=0 note=71 velocity=95 time=0.24
EXTRACT: note_off channel=11 note=66 velocity=95 time=0
EXTRACT: note_on channel=11 note=64 velocity=95 time=0
EXTRACT: note_off channel=10 note=78 velocity=95 time=0
EXTRACT: note_on channel=10 note=76 velocity=95 time=0
EXTRACT: note_off channel=13 note=32 velocity=95 time=0
EXTRACT: note_on channel=13 note=33 velocity=95 time=0
EXTRACT: note_off channel=9 note=60 velocity=95 time=0
EXTRACT: note_on channel=9 note=61 velocity=95 time=0
EXTRACT: note_off channel=9 note=51 velocity=95 time=0
EXTRACT: note_off channel=9 note=38 velocity=95 time=0
EXTRACT: note_off channel=9 note=35 velocity=95 time=0
EXTRACT: note_on channel=9 note=51 velocity=95 time=0
EXTRACT: note_on channel=0 note=73 velocity=95 time=0.24
EXTRACT: note_off channel=2 note=69 velocity=95 time=0
EXTRACT: note_off channel=2 note=64 velocity=95 time=0
EXTRACT: note_off channel=2 note=61 velocity=95 time=0
EXTRACT: note_on channel=2 note=69 velocity=95 time=0
EXTRACT: note_on channel=2 note=66 velocity=95 time=0
EXTRACT: note_on channel=2 note=62 velocity=95 time=0
EXTRACT: note_off channel=8 note=69 velocity=95 time=0
EXTRACT: note_on channel=8 note=69 velocity=95 time=0
EXTRACT: note_off channel=11 note=64 velocity=95 time=0
EXTRACT: note_off channel=10 note=76 velocity=95 time=0
EXTRACT: note_off channel=13 note=33 velocity=95 time=0
EXTRACT: note_on channel=13 note=35 velocity=95 time=0
EXTRACT: note_off channel=9 note=61 velocity=95 time=0
EXTRACT: note_on channel=9 note=60 velocity=95 time=0
EXTRACT: note_off channel=9 note=51 velocity=95 time=0
EXTRACT: note_on channel=9 note=51 velocity=95 time=0
EXTRACT: note_on channel=9 note=35 velocity=95 time=0
EXTRACT: note_on channel=5 note=61 velocity=95 time=0.24
EXTRACT: note_on channel=11 note=69 velocity=95 time=0
EXTRACT: note_on channel=10 note=81 velocity=95 time=0
EXTRACT: note_off channel=13 note=35 velocity=95 time=0
EXTRACT: note_on channel=13 note=35 velocity=95 time=0
EXTRACT: note_off channel=9 note=60 velocity=95 time=0
EXTRACT: note_on channel=9 note=60 velocity=95 time=0
EXTRACT: note_off channel=9 note=51 velocity=95 time=0
EXTRACT: note_off channel=9 note=35 velocity=95 time=0
EXTRACT: note_on channel=9 note=51 velocity=95 time=0
EXTRACT: note_off channel=0 note=73 velocity=95 time=0.24
EXTRACT: note_on channel=0 note=74 velocity=95 time=0
EXTRACT: note_off channel=5 note=61 velocity=95 time=0
EXTRACT: note_off channel=11 note=69 velocity=95 time=0
EXTRACT: note_off channel=10 note=81 velocity=95 time=0
EXTRACT: note_off channel=13 note=35 velocity=95 time=0
EXTRACT: note_on channel=13 note=42 velocity=95 time=0
EXTRACT: note_off channel=9 note=60 velocity=95 time=0
EXTRACT: note_on channel=9 note=61 velocity=95 time=0
EXTRACT: note_off channel=9 note=51 velocity=95 time=0
EXTRACT: note_on channel=9 note=51 velocity=95 time=0
EXTRACT: note_on channel=9 note=38 velocity=95 time=0
EXTRACT: note_on channel=9 note=35 velocity=95 time=0
EXTRACT: note_off channel=0 note=74 velocity=95 time=0.24
EXTRACT: note_on channel=0 note=73 velocity=95 time=0
EXTRACT: note_off channel=2 note=69 velocity=95 time=0
EXTRACT: note_off channel=2 note=66 velocity=95 time=0
EXTRACT: note_off channel=2 note=62 velocity=95 time=0
EXTRACT: note_on channel=2 note=68 velocity=95 time=0
EXTRACT: note_on channel=2 note=62 velocity=95 time=0
EXTRACT: note_on channel=2 note=59 velocity=95 time=0
EXTRACT: note_on channel=4 note=59 velocity=95 time=0
EXTRACT: note_off channel=8 note=69 velocity=95 time=0
EXTRACT: note_on channel=8 note=68 velocity=95 time=0
EXTRACT: note_off channel=13 note=42 velocity=95 time=0
EXTRACT: note_on channel=13 note=40 velocity=95 time=0
EXTRACT: note_off channel=9 note=61 velocity=95 time=0
EXTRACT: note_on channel=9 note=60 velocity=95 time=0
EXTRACT: note_off channel=9 note=51 velocity=95 time=0
EXTRACT: note_off channel=9 note=38 velocity=95 time=0
EXTRACT: note_off channel=9 note=35 velocity=95 time=0
EXTRACT: note_on channel=9 note=51 velocity=95 time=0
EXTRACT: note_on channel=15 note=73 velocity=95 time=0.24
EXTRACT: note_off channel=4 note=59 velocity=95 time=0
EXTRACT: note_off channel=13 note=40 velocity=95 time=0
EXTRACT: note_off channel=9 note=60 velocity=95 time=0
EXTRACT: note_on channel=9 note=60 velocity=95 time=0
EXTRACT: note_off channel=9 note=51 velocity=95 time=0
EXTRACT: note_on channel=9 note=51 velocity=95 time=0
EXTRACT: note_on channel=9 note=35 velocity=95 time=0
EXTRACT: note_on channel=4 note=57 velocity=95 time=0.24
EXTRACT: note_on channel=11 note=68 velocity=95 time=0
EXTRACT: note_on channel=10 note=80 velocity=95 time=0
EXTRACT: note_on channel=13 note=33 velocity=95 time=0
EXTRACT: note_off channel=9 note=60 velocity=95 time=0
EXTRACT: note_on channel=9 note=60 velocity=95 time=0
EXTRACT: note_off channel=9 note=51 velocity=95 time=0
EXTRACT: note_off channel=9 note=35 velocity=95 time=0
EXTRACT: note_on channel=9 note=51 velocity=95 time=0
EXTRACT: note_off channel=0 note=73 velocity=95 time=0.24
EXTRACT: note_off channel=15 note=73 velocity=95 time=0
EXTRACT: note_on channel=15 note=71 velocity=95 time=0
EXTRACT: note_off channel=4 note=57 velocity=95 time=0
EXTRACT: note_off channel=11 note=68 velocity=95 time=0
EXTRACT: note_off channel=10 note=80 velocity=95 time=0
EXTRACT: note_off channel=13 note=33 velocity=95 time=0
EXTRACT: note_on channel=13 note=35 velocity=95 time=0
EXTRACT: note_off channel=9 note=60 velocity=95 time=0
EXTRACT: note_on channel=9 note=60 velocity=95 time=0
EXTRACT: note_off channel=9 note=51 velocity=95 time=0
EXTRACT: note_on channel=9 note=51 velocity=95 time=0
EXTRACT: note_on channel=9 note=38 velocity=95 time=0
EXTRACT: note_on channel=9 note=35 velocity=95 time=0
EXTRACT: note_off channel=15 note=71 velocity=95 time=0.24
EXTRACT: note_on channel=15 note=69 velocity=95 time=0
EXTRACT: note_on channel=4 note=45 velocity=95 time=0
EXTRACT: note_off channel=13 note=35 velocity=95 time=0
EXTRACT: note_on channel=13 note=36 velocity=95 time=0
EXTRACT: note_off channel=9 note=60 velocity=95 time=0
EXTRACT: note_on channel=9 note=61 velocity=95 time=0
EXTRACT: note_off channel=9 note=51 velocity=95 time=0
EXTRACT: note_off channel=9 note=38 velocity=95 time=0
EXTRACT: note_off channel=9 note=35 velocity=95 time=0
EXTRACT: note_on channel=9 note=51 velocity=95 time=0
EXTRACT: note_off channel=4 note=45 velocity=95 time=0.031
EXTRACT: note_on channel=0 note=73 velocity=95 time=0.209
EXTRACT: note_off channel=2 note=68 velocity=95 time=0
EXTRACT: note_off channel=2 note=62 velocity=95 time=0
EXTRACT: note_off channel=2 note=59 velocity=95 time=0
EXTRACT: note_on channel=2 note=71 velocity=95 time=0
EXTRACT: note_on channel=2 note=68 velocity=95 time=0
EXTRACT: note_on channel=2 note=64 velocity=95 time=0
EXTRACT: note_on channel=5 note=59 velocity=95 time=0
EXTRACT: note_off channel=8 note=68 velocity=95 time=0
EXTRACT: note_on channel=8 note=71 velocity=95 time=0
EXTRACT: note_on channel=11 note=69 velocity=95 time=0
EXTRACT: note_on channel=10 note=81 velocity=95 time=0
EXTRACT: note_off channel=13 note=36 velocity=95 time=0
EXTRACT: note_on channel=13 note=37 velocity=95 time=0
EXTRACT: note_off channel=9 note=61 velocity=95 time=0
EXTRACT: note_on channel=9 note=60 velocity=95 time=0
EXTRACT: note_off channel=9 note=51 velocity=95 time=0
EXTRACT: note_on channel=9 note=51 velocity=95 time=0
EXTRACT: note_on channel=9 note=35 velocity=95 time=0
EXTRACT: pitchwheel channel=5 pitch=0 time=0.06
EXTRACT: pitchwheel channel=5 pitch=0 time=0.06
EXTRACT: pitchwheel channel=5 pitch=0 time=0.06
EXTRACT: note_off channel=0 note=73 velocity=95 time=0.06
EXTRACT: note_on channel=0 note=74 velocity=95 time=0
EXTRACT: pitchwheel channel=5 pitch=0 time=0
EXTRACT: pitchwheel channel=5 pitch=0 time=0
EXTRACT: note_off channel=5 note=59 velocity=95 time=0
EXTRACT: note_on channel=4 note=59 velocity=95 time=0
EXTRACT: note_off channel=13 note=37 velocity=95 time=0
EXTRACT: note_on channel=13 note=32 velocity=95 time=0
EXTRACT: note_off channel=9 note=60 velocity=95 time=0
EXTRACT: note_on channel=9 note=60 velocity=95 time=0
EXTRACT: note_off channel=9 note=51 velocity=95 time=0
EXTRACT: note_off channel=9 note=35 velocity=95 time=0
EXTRACT: note_on channel=9 note=51 velocity=95 time=0
EXTRACT: note_off channel=0 note=74 velocity=95 time=0.24
EXTRACT: note_on channel=0 note=73 velocity=95 time=0
EXTRACT: note_off channel=4 note=59 velocity=95 time=0
EXTRACT: note_on channel=4 note=59 velocity=95 time=0
EXTRACT: note_off channel=11 note=69 velocity=95 time=0
EXTRACT: note_on channel=11 note=66 velocity=95 time=0
EXTRACT: note_off channel=10 note=81 velocity=95 time=0
EXTRACT: note_on channel=10 note=78 velocity=95 time=0
EXTRACT: note_off channel=13 note=32 velocity=95 time=0
EXTRACT: note_on channel=13 note=28 velocity=95 time=0
EXTRACT: note_off channel=9 note=60 velocity=95 time=0
EXTRACT: note_on channel=9 note=61 velocity=95 time=0
EXTRACT: note_off channel=9 note=51 velocity=95 time=0
EXTRACT: note_on channel=9 note=51 velocity=95 time=0
EXTRACT: note_on channel=9 note=38 velocity=95 time=0
EXTRACT: note_on channel=9 note=35 velocity=95 time=0
EXTRACT: note_off channel=0 note=73 velocity=95 time=0.24
EXTRACT: note_on channel=0 note=71 velocity=95 time=0
EXTRACT: note_off channel=2 note=71 velocity=95 time=0
EXTRACT: note_off channel=2 note=68 velocity=95 time=0
EXTRACT: note_off channel=2 note=64 velocity=95 time=0
EXTRACT: note_on channel=2 note=69 velocity=95 time=0
EXTRACT: note_on channel=2 note=64 velocity=95 time=0
EXTRACT: note_on channel=2 note=61 velocity=95 time=0
EXTRACT: note_off channel=4 note=59 velocity=95 time=0
EXTRACT: note_on channel=4 note=56 velocity=95 time=0
EXTRACT: note_off channel=8 note=71 velocity=95 time=0
EXTRACT: note_on channel=8 note=69 velocity=95 time=0
EXTRACT: note_off channel=11 note=66 velocity=95 time=0
EXTRACT: note_on channel=11 note=64 velocity=95 time=0
EXTRACT: note_off channel=10 note=78 velocity=95 time=0
EXTRACT: note_on channel=10 note=76 velocity=95 time=0
EXTRACT: note_off channel=9 note=61 velocity=95 time=0
EXTRACT: note_on channel=9 note=60 velocity=95 time=0
EXTRACT: note_off channel=9 note=51 velocity=95 time=0
EXTRACT: note_off channel=9 note=38 velocity=95 time=0
EXTRACT: note_off channel=9 note=35 velocity=95 time=0
EXTRACT: note_on channel=9 note=51 velocity=95 time=0
EXTRACT: note_off channel=0 note=71 velocity=95 time=0.24
EXTRACT: note_on channel=0 note=69 velocity=95 time=0
EXTRACT: note_off channel=15 note=69 velocity=95 time=0
EXTRACT: note_on channel=15 note=66 velocity=95 time=0
EXTRACT: note_off channel=11 note=64 velocity=95 time=0
EXTRACT: note_on channel=11 note=69 velocity=95 time=0
EXTRACT: note_off channel=10 note=76 velocity=95 time=0
EXTRACT: note_on channel=10 note=81 velocity=95 time=0
EXTRACT: note_off channel=13 note=28 velocity=95 time=0
EXTRACT: note_on channel=13 note=30 velocity=95 time=0
EXTRACT: note_off channel=9 note=60 velocity=95 time=0
EXTRACT: note_on channel=9 note=60 velocity=95 time=0
EXTRACT: note_off channel=9 note=51 velocity=95 time=0
EXTRACT: note_on channel=9 note=51 velocity=95 time=0
EXTRACT: note_on channel=9 note=35 velocity=95 time=0
EXTRACT: note_off channel=4 note=56 velocity=95 time=0.24
EXTRACT: note_on channel=4 note=57 velocity=95 time=0
EXTRACT: note_off channel=9 note=60 velocity=95 time=0
EXTRACT: note_on channel=9 note=60 velocity=95 time=0
EXTRACT: note_off channel=9 note=51 velocity=95 time=0
EXTRACT: note_off channel=9 note=35 velocity=95 time=0
EXTRACT: note_on channel=9 note=51 velocity=95 time=0
EXTRACT: note_off channel=0 note=69 velocity=95 time=0.24
EXTRACT: note_on channel=0 note=66 velocity=95 time=0
EXTRACT: note_off channel=15 note=66 velocity=95 time=0
EXTRACT: note_off channel=4 note=57 velocity=95 time=0
EXTRACT: note_off channel=11 note=69 velocity=95 time=0
EXTRACT: note_on channel=11 note=66 velocity=95 time=0
EXTRACT: note_off channel=10 note=81 velocity=95 time=0
EXTRACT: note_on channel=10 note=78 velocity=95 time=0
EXTRACT: note_off channel=13 note=30 velocity=95 time=0
EXTRACT: note_on channel=13 note=32 velocity=95 time=0
EXTRACT: note_off channel=9 note=60 velocity=95 time=0
EXTRACT: note_on channel=9 note=60 velocity=95 time=0
EXTRACT: note_off channel=9 note=51 velocity=95 time=0
EXTRACT: note_on channel=9 note=51 velocity=95 time=0
EXTRACT: note_on channel=9 note=38 velocity=95 time=0
EXTRACT: note_on channel=9 note=35 velocity=95 time=0
EXTRACT: note_off channel=0 note=66 velocity=95 time=0.24
EXTRACT: note_on channel=0 note=71 velocity=95 time=0
EXTRACT: note_on channel=15 note=76 velocity=95 time=0
EXTRACT: note_on channel=4 note=40 velocity=95 time=0
EXTRACT: note_off channel=11 note=66 velocity=95 time=0
EXTRACT: note_on channel=11 note=64 velocity=95 time=0
EXTRACT: note_off channel=10 note=78 velocity=95 time=0
EXTRACT: note_on channel=10 note=76 velocity=95 time=0
EXTRACT: note_off channel=13 note=32 velocity=95 time=0
EXTRACT: note_on channel=13 note=35 velocity=95 time=0
EXTRACT: note_off channel=9 note=60 velocity=95 time=0
EXTRACT: note_on channel=9 note=61 velocity=95 time=0
EXTRACT: note_off channel=9 note=51 velocity=95 time=0
EXTRACT: note_off channel=9 note=38 velocity=95 time=0
EXTRACT: note_off channel=9 note=35 velocity=95 time=0
EXTRACT: note_on channel=9 note=51 velocity=95 time=0
EXTRACT: note_off channel=4 note=40 velocity=95 time=0.031
EXTRACT: note_off channel=0 note=71 velocity=95 time=0.209
EXTRACT: note_on channel=0 note=69 velocity=70 time=0
EXTRACT: note_off channel=2 note=69 velocity=95 time=0
EXTRACT: note_off channel=2 note=64 velocity=95 time=0
EXTRACT: note_off channel=2 note=61 velocity=95 time=0
EXTRACT: note_on channel=2 note=69 velocity=95 time=0
EXTRACT: note_on channel=2 note=67 velocity=95 time=0
EXTRACT: note_on channel=2 note=62 velocity=95 time=0
EXTRACT: note_on channel=2 note=59 velocity=95 time=0
EXTRACT: note_on channel=5 note=49 velocity=95 time=0
EXTRACT: note_off channel=8 note=69 velocity=95 time=0
EXTRACT: note_on channel=8 note=69 velocity=95 time=0
EXTRACT: note_off channel=11 note=64 velocity=95 time=0
EXTRACT: note_on channel=11 note=69 velocity=95 time=0
EXTRACT: note_off channel=10 note=76 velocity=95 time=0
EXTRACT: note_on channel=10 note=81 velocity=95 time=0
EXTRACT: note_on channel=10 note=76 velocity=95 time=0
EXTRACT: note_off channel=13 note=35 velocity=95 time=0
EXTRACT: note_on channel=13 note=33 velocity=95 time=0
EXTRACT: note_off channel=9 note=61 velocity=95 time=0
EXTRACT: note_on channel=9 note=60 velocity=95 time=0
EXTRACT: note_off channel=9 note=51 velocity=95 time=0
EXTRACT: note_on channel=9 note=51 velocity=95 time=0
EXTRACT: note_on channel=9 note=35 velocity=95 time=0
EXTRACT: note_off channel=8 note=69 velocity=95 time=0.12
EXTRACT: note_on channel=8 note=69 velocity=95 time=0
EXTRACT: note_off channel=13 note=33 velocity=95 time=0
EXTRACT: note_off channel=5 note=49 velocity=95 time=0.12
EXTRACT: note_on channel=4 note=52 velocity=95 time=0
EXTRACT: note_off channel=8 note=69 velocity=95 time=0
EXTRACT: note_on channel=8 note=66 velocity=95 time=0
EXTRACT: note_off channel=11 note=69 velocity=95 time=0
EXTRACT: note_on channel=11 note=69 velocity=95 time=0
EXTRACT: note_off channel=10 note=81 velocity=95 time=0
EXTRACT: note_off channel=10 note=76 velocity=95 time=0
EXTRACT: note_on channel=10 note=81 velocity=95 time=0
EXTRACT: note_on channel=10 note=76 velocity=95 time=0
EXTRACT: note_on channel=13 note=33 velocity=95 time=0
EXTRACT: note_off channel=9 note=60 velocity=95 time=0
EXTRACT: note_on channel=9 note=60 velocity=95 time=0
EXTRACT: note_off channel=9 note=51 velocity=95 time=0
EXTRACT: note_off channel=9 note=35 velocity=95 time=0
EXTRACT: note_on channel=9 note=51 velocity=95 time=0
EXTRACT: note_off channel=4 note=52 velocity=95 time=0.12
EXTRACT: note_on channel=4 note=54 velocity=95 time=0
EXTRACT: note_off channel=8 note=66 velocity=95 time=0
EXTRACT: note_on channel=8 note=64 velocity=95 time=0
EXTRACT: note_off channel=4 note=54 velocity=95 time=0.12
EXTRACT: note_on channel=4 note=57 velocity=95 time=0
EXTRACT: note_off channel=8 note=64 velocity=95 time=0
EXTRACT: note_on channel=8 note=69 velocity=95 time=0
EXTRACT: note_off channel=13 note=33 velocity=95 time=0
EXTRACT: note_on channel=13 note=55 velocity=95 time=0
EXTRACT: note_off channel=9 note=60 velocity=95 time=0
EXTRACT: note_on channel=9 note=61 velocity=95 time=0
EXTRACT: note_off channel=9 note=51 velocity=95 time=0
EXTRACT: note_on channel=9 note=51 velocity=95 time=0
EXTRACT: note_on channel=9 note=38 velocity=95 time=0
EXTRACT: note_on channel=9 note=35 velocity=95 time=0
EXTRACT: note_off channel=8 note=69 velocity=95 time=0.12
EXTRACT: note_on channel=8 note=69 velocity=95 time=0
EXTRACT: note_off channel=8 note=69 velocity=95 time=0.12
EXTRACT: note_on channel=8 note=66 velocity=95 time=0
EXTRACT: note_off channel=11 note=69 velocity=95 time=0
EXTRACT: note_on channel=11 note=69 velocity=95 time=0
EXTRACT: note_off channel=10 note=81 velocity=95 time=0
EXTRACT: note_off channel=10 note=76 velocity=95 time=0
EXTRACT: note_on channel=10 note=81 velocity=95 time=0
EXTRACT: note_on channel=10 note=76 velocity=95 time=0
EXTRACT: note_off channel=13 note=55 velocity=95 time=0
EXTRACT: note_on channel=13 note=57 velocity=95 time=0
EXTRACT: note_off channel=9 note=61 velocity=95 time=0
EXTRACT: note_on channel=9 note=60 velocity=95 time=0
EXTRACT: note_off channel=9 note=51 velocity=95 time=0
EXTRACT: note_off channel=9 note=38 velocity=95 time=0
EXTRACT: note_off channel=9 note=35 velocity=95 time=0
EXTRACT: note_on channel=9 note=51 velocity=95 time=0
EXTRACT: note_off channel=8 note=66 velocity=95 time=0.12
EXTRACT: note_on channel=8 note=64 velocity=95 time=0
EXTRACT: note_off channel=8 note=64 velocity=95 time=0.12
EXTRACT: note_on channel=8 note=69 velocity=95 time=0
EXTRACT: note_off channel=11 note=69 velocity=95 time=0
EXTRACT: note_on channel=11 note=69 velocity=95 time=0
EXTRACT: note_off channel=10 note=81 velocity=95 time=0
EXTRACT: note_off channel=10 note=76 velocity=95 time=0
EXTRACT: note_on channel=10 note=81 velocity=95 time=0
EXTRACT: note_on channel=10 note=76 velocity=95 time=0
EXTRACT: note_off channel=13 note=57 velocity=95 time=0
EXTRACT: note_on channel=13 note=33 velocity=95 time=0
EXTRACT: note_off channel=9 note=60 velocity=95 time=0
EXTRACT: note_on channel=9 note=60 velocity=95 time=0
EXTRACT: note_off channel=9 note=51 velocity=95 time=0
EXTRACT: note_on channel=9 note=51 velocity=95 time=0
EXTRACT: note_on channel=9 note=35 velocity=95 time=0
EXTRACT: note_off channel=8 note=69 velocity=95 time=0.12
EXTRACT: note_on channel=8 note=69 velocity=95 time=0
EXTRACT: note_off channel=13 note=33 velocity=95 time=0
EXTRACT: note_off channel=4 note=57 velocity=95 time=0.12
EXTRACT: note_on channel=4 note=50 velocity=95 time=0
EXTRACT: note_off channel=8 note=69 velocity=95 time=0
EXTRACT: note_on channel=8 note=66 velocity=95 time=0
EXTRACT: note_on channel=13 note=33 velocity=95 time=0
EXTRACT: note_off channel=9 note=60 velocity=95 time=0
EXTRACT: note_on channel=9 note=60 velocity=95 time=0
EXTRACT: note_off channel=9 note=51 velocity=95 time=0
EXTRACT: note_off channel=9 note=35 velocity=95 time=0
EXTRACT: note_on channel=9 note=51 velocity=95 time=0
EXTRACT: note_off channel=4 note=50 velocity=95 time=0.031
EXTRACT: note_off channel=8 note=66 velocity=95 time=0.089
EXTRACT: note_on channel=8 note=64 velocity=95 time=0
EXTRACT: note_off channel=8 note=64 velocity=95 time=0.12
EXTRACT: note_on channel=8 note=69 velocity=95 time=0
EXTRACT: note_off channel=11 note=69 velocity=95 time=0
EXTRACT: note_on channel=11 note=69 velocity=95 time=0
EXTRACT: note_off channel=10 note=81 velocity=95 time=0
EXTRACT: note_off channel=10 note=76 velocity=95 time=0
EXTRACT: note_on channel=10 note=81 velocity=95 time=0
EXTRACT: note_on channel=10 note=76 velocity=95 time=0
EXTRACT: note_off channel=13 note=33 velocity=95 time=0
EXTRACT: note_on channel=13 note=55 velocity=95 time=0
EXTRACT: note_off channel=9 note=60 velocity=95 time=0
EXTRACT: note_on channel=9 note=60 velocity=95 time=0
EXTRACT: note_off channel=9 note=51 velocity=95 time=0
EXTRACT: note_on channel=9 note=51 velocity=95 time=0
EXTRACT: note_on channel=9 note=38 velocity=95 time=0
EXTRACT: note_on channel=9 note=35 velocity=95 time=0
EXTRACT: note_on channel=4 note=50 velocity=95 time=0.12
EXTRACT: note_off channel=8 note=69 velocity=95 time=0
EXTRACT: note_on channel=8 note=69 velocity=95 time=0
EXTRACT: note_off channel=4 note=50 velocity=95 time=0.031
EXTRACT: note_off channel=8 note=69 velocity=95 time=0.089
EXTRACT: note_on channel=8 note=66 velocity=95 time=0
EXTRACT: note_off channel=11 note=69 velocity=95 time=0
EXTRACT: note_on channel=11 note=69 velocity=95 time=0
EXTRACT: note_off channel=10 note=81 velocity=95 time=0
EXTRACT: note_off channel=10 note=76 velocity=95 time=0
EXTRACT: note_on channel=10 note=81 velocity=95 time=0
EXTRACT: note_on channel=10 note=76 velocity=95 time=0
EXTRACT: note_off channel=13 note=55 velocity=95 time=0
EXTRACT: note_on channel=13 note=57 velocity=95 time=0
EXTRACT: note_off channel=9 note=60 velocity=95 time=0
EXTRACT: note_on channel=9 note=61 velocity=95 time=0
EXTRACT: note_off channel=9 note=51 velocity=95 time=0
EXTRACT: note_off channel=9 note=38 velocity=95 time=0
EXTRACT: note_off channel=9 note=35 velocity=95 time=0
EXTRACT: note_on channel=9 note=51 velocity=95 time=0
EXTRACT: note_off channel=8 note=66 velocity=95 time=0.12
EXTRACT: note_on channel=8 note=64 velocity=95 time=0
EXTRACT: note_off channel=2 note=69 velocity=95 time=0.12
EXTRACT: note_off channel=2 note=67 velocity=95 time=0
EXTRACT: note_off channel=2 note=62 velocity=95 time=0
EXTRACT: note_off channel=2 note=59 velocity=95 time=0
EXTRACT: note_on channel=2 note=69 velocity=95 time=0
EXTRACT: note_on channel=2 note=67 velocity=95 time=0
EXTRACT: note_on channel=2 note=62 velocity=95 time=0
EXTRACT: note_on channel=2 note=59 velocity=95 time=0
EXTRACT: note_on channel=4 note=50 velocity=95 time=0
EXTRACT: note_off channel=8 note=64 velocity=95 time=0
EXTRACT: note_on channel=8 note=69 velocity=95 time=0
EXTRACT: note_off channel=13 note=57 velocity=95 time=0
EXTRACT: note_on channel=13 note=33 velocity=95 time=0
EXTRACT: note_off channel=9 note=61 velocity=95 time=0
EXTRACT: note_on channel=9 note=60 velocity=95 time=0
EXTRACT: note_off channel=9 note=51 velocity=95 time=0
EXTRACT: note_on channel=9 note=51 velocity=95 time=0
EXTRACT: note_on channel=9 note=35 velocity=95 time=0
EXTRACT: note_off channel=4 note=50 velocity=95 time=0.031
EXTRACT: note_off channel=8 note=69 velocity=95 time=0.089
EXTRACT: note_on channel=8 note=69 velocity=95 time=0
EXTRACT: note_off channel=13 note=33 velocity=95 time=0
EXTRACT: note_off channel=8 note=69 velocity=95 time=0.12
EXTRACT: note_on channel=8 note=66 velocity=95 time=0
EXTRACT: note_off channel=11 note=69 velocity=95 time=0
EXTRACT: note_on channel=11 note=69 velocity=95 time=0
EXTRACT: note_off channel=10 note=81 velocity=95 time=0
EXTRACT: note_off channel=10 note=76 velocity=95 time=0
EXTRACT: note_on channel=10 note=81 velocity=95 time=0
EXTRACT: note_on channel=10 note=76 velocity=95 time=0
EXTRACT: note_on channel=13 note=33 velocity=95 time=0
EXTRACT: note_off channel=9 note=60 velocity=95 time=0
EXTRACT: note_on channel=9 note=60 velocity=95 time=0
EXTRACT: note_off channel=9 note=51 velocity=95 time=0
EXTRACT: note_off channel=9 note=35 velocity=95 time=0
EXTRACT: note_on channel=9 note=51 velocity=95 time=0
EXTRACT: note_on channel=4 note=50 velocity=95 time=0.12
EXTRACT: note_off channel=8 note=66 velocity=95 time=0
EXTRACT: note_on channel=8 note=64 velocity=95 time=0
EXTRACT: note_off channel=4 note=50 velocity=95 time=0.031
EXTRACT: note_off channel=8 note=64 velocity=95 time=0.089
EXTRACT: note_on channel=8 note=69 velocity=95 time=0
EXTRACT: note_off channel=11 note=69 velocity=95 time=0
EXTRACT: note_on channel=11 note=69 velocity=95 time=0
EXTRACT: note_off channel=10 note=81 velocity=95 time=0
EXTRACT: note_off channel=10 note=76 velocity=95 time=0
EXTRACT: note_on channel=10 note=81 velocity=95 time=0
EXTRACT: note_on channel=10 note=76 velocity=95 time=0
EXTRACT: note_off channel=13 note=33 velocity=95 time=0
EXTRACT: note_on channel=13 note=55 velocity=95 time=0
EXTRACT: note_off channel=9 note=60 velocity=95 time=0
EXTRACT: note_on channel=9 note=61 velocity=95 time=0
EXTRACT: note_off channel=9 note=51 velocity=95 time=0
EXTRACT: note_on channel=9 note=51 velocity=95 time=0
EXTRACT: note_on channel=9 note=38 velocity=95 time=0
EXTRACT: note_on channel=9 note=35 velocity=95 time=0
EXTRACT: note_off channel=8 note=69 velocity=95 time=0.12
EXTRACT: note_on channel=8 note=69 velocity=95 time=0
EXTRACT: note_on channel=4 note=57 velocity=95 time=0.12
EXTRACT: note_off channel=8 note=69 velocity=95 time=0
EXTRACT: note_on channel=8 note=66 velocity=95 time=0
EXTRACT: note_off channel=13 note=55 velocity=95 time=0
EXTRACT: note_on channel=13 note=57 velocity=95 time=0
EXTRACT: note_off channel=9 note=61 velocity=95 time=0
EXTRACT: note_on channel=9 note=60 velocity=95 time=0
EXTRACT: note_off channel=9 note=51 velocity=95 time=0
EXTRACT: note_off channel=9 note=38 velocity=95 time=0
EXTRACT: note_off channel=9 note=35 velocity=95 time=0
EXTRACT: note_on channel=9 note=51 velocity=95 time=0
EXTRACT: note_off channel=4 note=57 velocity=95 time=0.031
EXTRACT: note_off channel=8 note=66 velocity=95 time=0.089
EXTRACT: note_on channel=8 note=64 velocity=95 time=0
EXTRACT: note_off channel=2 note=69 velocity=95 time=0.12
EXTRACT: note_off channel=2 note=67 velocity=95 time=0
EXTRACT: note_off channel=2 note=62 velocity=95 time=0
EXTRACT: note_off channel=2 note=59 velocity=95 time=0
EXTRACT: note_on channel=2 note=69 velocity=95 time=0
EXTRACT: note_on channel=2 note=67 velocity=95 time=0
EXTRACT: note_on channel=2 note=62 velocity=95 time=0
EXTRACT: note_on channel=2 note=59 velocity=95 time=0
EXTRACT: note_off channel=8 note=64 velocity=95 time=0
EXTRACT: note_on channel=8 note=69 velocity=95 time=0
EXTRACT: note_off channel=11 note=69 velocity=95 time=0
EXTRACT: note_on channel=11 note=69 velocity=95 time=0
EXTRACT: note_off channel=10 note=81 velocity=95 time=0
EXTRACT: note_off channel=10 note=76 velocity=95 time=0
EXTRACT: note_on channel=10 note=81 velocity=95 time=0
EXTRACT: note_on channel=10 note=76 velocity=95 time=0
EXTRACT: note_off channel=13 note=57 velocity=95 time=0
EXTRACT: note_on channel=13 note=33 velocity=95 time=0
EXTRACT: note_off channel=9 note=60 velocity=95 time=0
EXTRACT: note_on channel=9 note=60 velocity=95 time=0
EXTRACT: note_off channel=9 note=51 velocity=95 time=0
EXTRACT: note_on channel=9 note=38 velocity=95 time=0
EXTRACT: note_on channel=9 note=35 velocity=95 time=0
EXTRACT: note_off channel=8 note=69 velocity=95 time=0.12
EXTRACT: note_on channel=8 note=69 velocity=95 time=0
EXTRACT: note_off channel=2 note=69 velocity=95 time=0.12
EXTRACT: note_off channel=2 note=67 velocity=95 time=0
EXTRACT: note_off channel=2 note=62 velocity=95 time=0
EXTRACT: note_off channel=2 note=59 velocity=95 time=0
EXTRACT: note_off channel=8 note=69 velocity=95 time=0
EXTRACT: note_on channel=8 note=66 velocity=95 time=0
EXTRACT: note_off channel=11 note=69 velocity=95 time=0
EXTRACT: note_on channel=11 note=69 velocity=95 time=0
EXTRACT: note_off channel=10 note=81 velocity=95 time=0
EXTRACT: note_off channel=10 note=76 velocity=95 time=0
EXTRACT: note_on channel=10 note=81 velocity=95 time=0
EXTRACT: note_on channel=10 note=76 velocity=95 time=0
EXTRACT: note_off channel=13 note=33 velocity=95 time=0
EXTRACT: note_off channel=9 note=60 velocity=95 time=0
EXTRACT: note_on channel=9 note=60 velocity=95 time=0
EXTRACT: note_off channel=8 note=66 velocity=95 time=0.12
EXTRACT: note_on channel=8 note=64 velocity=95 time=0
EXTRACT: note_off channel=9 note=38 velocity=95 time=0
EXTRACT: note_off channel=9 note=35 velocity=95 time=0
EXTRACT: note_on channel=9 note=38 velocity=95 time=0
EXTRACT: note_off channel=0 note=69 velocity=70 time=0.12
EXTRACT: note_off channel=15 note=76 velocity=95 time=0
EXTRACT: note_on channel=2 note=69 velocity=95 time=0
EXTRACT: note_on channel=2 note=67 velocity=95 time=0
EXTRACT: note_on channel=2 note=62 velocity=95 time=0
EXTRACT: note_on channel=2 note=59 velocity=95 time=0
EXTRACT: note_off channel=8 note=64 velocity=95 time=0
EXTRACT: note_on channel=8 note=69 velocity=95 time=0
EXTRACT: note_off channel=11 note=69 velocity=95 time=0
EXTRACT: note_on channel=11 note=69 velocity=95 time=0
EXTRACT: note_off channel=10 note=81 velocity=95 time=0
EXTRACT: note_off channel=10 note=76 velocity=95 time=0
EXTRACT: note_on channel=10 note=81 velocity=95 time=0
EXTRACT: note_on channel=10 note=76 velocity=95 time=0
EXTRACT: note_on channel=13 note=34 velocity=95 time=0
EXTRACT: note_off channel=9 note=60 velocity=95 time=0
EXTRACT: note_on channel=9 note=60 velocity=95 time=0
EXTRACT: note_off channel=9 note=38 velocity=95 time=0
EXTRACT: note_on channel=9 note=38 velocity=95 time=0
EXTRACT: note_off channel=8 note=69 velocity=95 time=0.12
EXTRACT: note_on channel=8 note=69 velocity=95 time=0
EXTRACT: note_off channel=2 note=69 velocity=95 time=0.12
EXTRACT: note_off channel=2 note=67 velocity=95 time=0
EXTRACT: note_off channel=2 note=62 velocity=95 time=0
EXTRACT: note_off channel=2 note=59 velocity=95 time=0
EXTRACT: note_off channel=8 note=69 velocity=95 time=0
EXTRACT: note_on channel=8 note=66 velocity=95 time=0
EXTRACT: note_off channel=11 note=69 velocity=95 time=0
EXTRACT: note_off channel=10 note=81 velocity=95 time=0
EXTRACT: note_off channel=10 note=76 velocity=95 time=0
EXTRACT: note_off channel=13 note=34 velocity=95 time=0
EXTRACT: note_off channel=9 note=60 velocity=95 time=0
EXTRACT: note_on channel=9 note=61 velocity=95 time=0
EXTRACT: note_off channel=9 note=38 velocity=95 time=0
EXTRACT: note_on channel=9 note=47 velocity=95 time=0
EXTRACT: note_off channel=8 note=66 velocity=95 time=0.12
EXTRACT: note_on channel=8 note=64 velocity=95 time=0
EXTRACT: note_on channel=0 note=73 velocity=95 time=0.12
EXTRACT: note_on channel=2 note=69 velocity=95 time=0
EXTRACT: note_on channel=2 note=66 velocity=95 time=0
EXTRACT: note_on channel=2 note=62 velocity=95 time=0
EXTRACT: note_off channel=8 note=64 velocity=95 time=0
EXTRACT: note_on channel=8 note=69 velocity=95 time=0
EXTRACT: note_on channel=13 note=35 velocity=95 time=0
EXTRACT: note_off channel=9 note=61 velocity=95 time=0
EXTRACT: note_on channel=9 note=60 velocity=95 time=0
EXTRACT: note_off channel=9 note=47 velocity=95 time=0
EXTRACT: note_on channel=9 note=57 velocity=95 time=0
EXTRACT: note_on channel=9 note=35 velocity=95 time=0
EXTRACT: note_on channel=4 note=61 velocity=95 time=0.24
EXTRACT: note_on channel=11 note=69 velocity=95 time=0
EXTRACT: note_on channel=10 note=81 velocity=95 time=0
EXTRACT: note_off channel=13 note=35 velocity=95 time=0
EXTRACT: note_on channel=13 note=35 velocity=95 time=0
EXTRACT: note_off channel=9 note=60 velocity=95 time=0
EXTRACT: note_on channel=9 note=60 velocity=95 time=0
EXTRACT: note_off channel=9 note=57 velocity=95 time=0
EXTRACT: note_off channel=9 note=35 velocity=95 time=0
EXTRACT: note_on channel=9 note=51 velocity=95 time=0
EXTRACT: note_off channel=0 note=73 velocity=95 time=0.24
EXTRACT: note_on channel=0 note=74 velocity=95 time=0
EXTRACT: note_off channel=4 note=61 velocity=95 time=0
EXTRACT: note_off channel=11 note=69 velocity=95 time=0
EXTRACT: note_off channel=10 note=81 velocity=95 time=0
EXTRACT: note_off channel=13 note=35 velocity=95 time=0
EXTRACT: note_on channel=13 note=42 velocity=95 time=0
EXTRACT: note_off channel=9 note=60 velocity=95 time=0
EXTRACT: note_on channel=9 note=61 velocity=95 time=0
EXTRACT: note_off channel=9 note=51 velocity=95 time=0
EXTRACT: note_on channel=9 note=51 velocity=95 time=0
EXTRACT: note_on channel=9 note=38 velocity=95 time=0
EXTRACT: note_on channel=9 note=35 velocity=95 time=0
EXTRACT: note_off channel=0 note=74 velocity=95 time=0.24
EXTRACT: note_on channel=0 note=73 velocity=95 time=0
EXTRACT: note_off channel=2 note=69 velocity=95 time=0
EXTRACT: note_off channel=2 note=66 velocity=95 time=0
EXTRACT: note_off channel=2 note=62 velocity=95 time=0
EXTRACT: note_on channel=2 note=68 velocity=95 time=0
EXTRACT: note_on channel=2 note=62 velocity=95 time=0
EXTRACT: note_on channel=2 note=59 velocity=95 time=0
EXTRACT: note_on channel=4 note=59 velocity=95 time=0
EXTRACT: note_off channel=8 note=69 velocity=95 time=0
EXTRACT: note_on channel=8 note=68 velocity=95 time=0
EXTRACT: note_off channel=13 note=42 velocity=95 time=0
EXTRACT: note_on channel=13 note=40 velocity=95 time=0
EXTRACT: note_off channel=9 note=61 velocity=95 time=0
EXTRACT: note_on channel=9 note=60 velocity=95 time=0
EXTRACT: note_off channel=9 note=51 velocity=95 time=0
EXTRACT: note_off channel=9 note=38 velocity=95 time=0
EXTRACT: note_off channel=9 note=35 velocity=95 time=0
EXTRACT: note_on channel=9 note=51 velocity=95 time=0
EXTRACT: note_on channel=15 note=73 velocity=95 time=0.24
EXTRACT: note_off channel=4 note=59 velocity=95 time=0
EXTRACT: note_off channel=13 note=40 velocity=95 time=0
EXTRACT: note_off channel=9 note=60 velocity=95 time=0
EXTRACT: note_on channel=9 note=60 velocity=95 time=0
EXTRACT: note_off channel=9 note=51 velocity=95 time=0
EXTRACT: note_on channel=9 note=51 velocity=95 time=0
EXTRACT: note_on channel=9 note=35 velocity=95 time=0
EXTRACT: note_on channel=4 note=57 velocity=95 time=0.24
EXTRACT: note_on channel=11 note=68 velocity=95 time=0
EXTRACT: note_on channel=10 note=80 velocity=95 time=0
EXTRACT: note_on channel=13 note=33 velocity=95 time=0
EXTRACT: note_off channel=9 note=60 velocity=95 time=0
EXTRACT: note_on channel=9 note=60 velocity=95 time=0
EXTRACT: note_off channel=9 note=51 velocity=95 time=0
EXTRACT: note_off channel=9 note=35 velocity=95 time=0
EXTRACT: note_on channel=9 note=51 velocity=95 time=0
EXTRACT: note_off channel=0 note=73 velocity=95 time=0.24
EXTRACT: note_off channel=15 note=73 velocity=95 time=0
EXTRACT: note_on channel=15 note=71 velocity=95 time=0
EXTRACT: note_off channel=4 note=57 velocity=95 time=0
EXTRACT: note_off channel=11 note=68 velocity=95 time=0
EXTRACT: note_off channel=10 note=80 velocity=95 time=0
EXTRACT: note_off channel=13 note=33 velocity=95 time=0
EXTRACT: note_on channel=13 note=35 velocity=95 time=0
EXTRACT: note_off channel=9 note=60 velocity=95 time=0
EXTRACT: note_on channel=9 note=60 velocity=95 time=0
EXTRACT: note_off channel=9 note=51 velocity=95 time=0
EXTRACT: note_on channel=9 note=51 velocity=95 time=0
EXTRACT: note_on channel=9 note=38 velocity=95 time=0
EXTRACT: note_on channel=9 note=35 velocity=95 time=0
EXTRACT: note_off channel=15 note=71 velocity=95 time=0.24
EXTRACT: note_on channel=15 note=69 velocity=95 time=0
EXTRACT: note_off channel=13 note=35 velocity=95 time=0
EXTRACT: note_on channel=13 note=36 velocity=95 time=0
EXTRACT: note_off channel=9 note=60 velocity=95 time=0
EXTRACT: note_on channel=9 note=61 velocity=95 time=0
EXTRACT: note_off channel=9 note=51 velocity=95 time=0
EXTRACT: note_off channel=9 note=38 velocity=95 time=0
EXTRACT: note_off channel=9 note=35 velocity=95 time=0
EXTRACT: note_on channel=9 note=51 velocity=95 time=0
EXTRACT: note_on channel=0 note=73 velocity=95 time=0.24
EXTRACT: note_off channel=2 note=68 velocity=95 time=0
EXTRACT: note_off channel=2 note=62 velocity=95 time=0
EXTRACT: note_off channel=2 note=59 velocity=95 time=0
EXTRACT: note_on channel=2 note=71 velocity=95 time=0
EXTRACT: note_on channel=2 note=68 velocity=95 time=0
EXTRACT: note_on channel=2 note=64 velocity=95 time=0
EXTRACT: note_on channel=4 note=59 velocity=95 time=0
EXTRACT: note_off channel=8 note=68 velocity=95 time=0
EXTRACT: note_on channel=8 note=71 velocity=95 time=0
EXTRACT: note_on channel=11 note=69 velocity=95 time=0
EXTRACT: note_on channel=10 note=81 velocity=95 time=0
EXTRACT: note_off channel=13 note=36 velocity=95 time=0
EXTRACT: note_on channel=13 note=37 velocity=95 time=0
EXTRACT: note_off channel=9 note=61 velocity=95 time=0
EXTRACT: note_on channel=9 note=60 velocity=95 time=0
EXTRACT: note_off channel=9 note=51 velocity=95 time=0
EXTRACT: note_on channel=9 note=51 velocity=95 time=0
EXTRACT: note_on channel=9 note=35 velocity=95 time=0
EXTRACT: note_off channel=0 note=73 velocity=95 time=0.24
EXTRACT: note_on channel=0 note=74 velocity=95 time=0
EXTRACT: note_off channel=4 note=59 velocity=95 time=0
EXTRACT: note_on channel=4 note=59 velocity=95 time=0
EXTRACT: note_off channel=13 note=37 velocity=95 time=0
EXTRACT: note_on channel=13 note=32 velocity=95 time=0
EXTRACT: note_off channel=9 note=60 velocity=95 time=0
EXTRACT: note_on channel=9 note=60 velocity=95 time=0
EXTRACT: note_off channel=9 note=51 velocity=95 time=0
EXTRACT: note_off channel=9 note=35 velocity=95 time=0
EXTRACT: note_on channel=9 note=51 velocity=95 time=0
EXTRACT: note_off channel=0 note=74 velocity=95 time=0.24
EXTRACT: note_on channel=0 note=73 velocity=95 time=0
EXTRACT: note_off channel=4 note=59 velocity=95 time=0
EXTRACT: note_on channel=4 note=59 velocity=95 time=0
EXTRACT: note_off channel=11 note=69 velocity=95 time=0
EXTRACT: note_on channel=11 note=66 velocity=95 time=0
EXTRACT: note_off channel=10 note=81 velocity=95 time=0
EXTRACT: note_on channel=10 note=78 velocity=95 time=0
EXTRACT: note_off channel=13 note=32 velocity=95 time=0
EXTRACT: note_on channel=13 note=28 velocity=95 time=0
EXTRACT: note_off channel=9 note=60 velocity=95 time=0
EXTRACT: note_on channel=9 note=61 velocity=95 time=0
EXTRACT: note_off channel=9 note=51 velocity=95 time=0
EXTRACT: note_on channel=9 note=51 velocity=95 time=0
EXTRACT: note_on channel=9 note=38 velocity=95 time=0
EXTRACT: note_on channel=9 note=35 velocity=95 time=0
EXTRACT: note_off channel=0 note=73 velocity=95 time=0.24
EXTRACT: note_on channel=0 note=71 velocity=95 time=0
EXTRACT: note_off channel=2 note=71 velocity=95 time=0
EXTRACT: note_off channel=2 note=68 velocity=95 time=0
EXTRACT: note_off channel=2 note=64 velocity=95 time=0
EXTRACT: note_on channel=2 note=69 velocity=95 time=0
EXTRACT: note_on channel=2 note=64 velocity=95 time=0
EXTRACT: note_on channel=2 note=61 velocity=95 time=0
EXTRACT: note_off channel=4 note=59 velocity=95 time=0
EXTRACT: note_on channel=4 note=56 velocity=95 time=0
EXTRACT: note_off channel=8 note=71 velocity=95 time=0
EXTRACT: note_on channel=8 note=69 velocity=95 time=0
EXTRACT: note_off channel=11 note=66 velocity=95 time=0
EXTRACT: note_on channel=11 note=64 velocity=95 time=0
EXTRACT: note_off channel=10 note=78 velocity=95 time=0
EXTRACT: note_on channel=10 note=76 velocity=95 time=0
EXTRACT: note_off channel=9 note=61 velocity=95 time=0
EXTRACT: note_on channel=9 note=60 velocity=95 time=0
EXTRACT: note_off channel=9 note=51 velocity=95 time=0
EXTRACT: note_off channel=9 note=38 velocity=95 time=0
EXTRACT: note_off channel=9 note=35 velocity=95 time=0
EXTRACT: note_on channel=9 note=51 velocity=95 time=0
EXTRACT: note_off channel=0 note=71 velocity=95 time=0.24
EXTRACT: note_on channel=0 note=69 velocity=95 time=0
EXTRACT: note_off channel=15 note=69 velocity=95 time=0
EXTRACT: note_on channel=15 note=66 velocity=95 time=0
EXTRACT: note_off channel=11 note=64 velocity=95 time=0
EXTRACT: note_on channel=11 note=69 velocity=95 time=0
EXTRACT: note_off channel=10 note=76 velocity=95 time=0
EXTRACT: note_on channel=10 note=81 velocity=95 time=0
EXTRACT: note_off channel=13 note=28 velocity=95 time=0
EXTRACT: note_on channel=13 note=30 velocity=95 time=0
EXTRACT: note_off channel=9 note=60 velocity=95 time=0
EXTRACT: note_on channel=9 note=60 velocity=95 time=0
EXTRACT: note_off channel=9 note=51 velocity=95 time=0
EXTRACT: note_on channel=9 note=51 velocity=95 time=0
EXTRACT: note_on channel=9 note=35 velocity=95 time=0
EXTRACT: note_off channel=4 note=56 velocity=95 time=0.24
EXTRACT: note_on channel=4 note=57 velocity=95 time=0
EXTRACT: note_off channel=9 note=60 velocity=95 time=0
EXTRACT: note_on channel=9 note=60 velocity=95 time=0
EXTRACT: note_off channel=9 note=51 velocity=95 time=0
EXTRACT: note_off channel=9 note=35 velocity=95 time=0
EXTRACT: note_on channel=9 note=51 velocity=95 time=0
EXTRACT: note_off channel=0 note=69 velocity=95 time=0.24
EXTRACT: note_on channel=0 note=71 velocity=95 time=0
EXTRACT: note_off channel=15 note=66 velocity=95 time=0
EXTRACT: note_off channel=4 note=57 velocity=95 time=0
EXTRACT: note_off channel=11 note=69 velocity=95 time=0
EXTRACT: note_on channel=11 note=66 velocity=95 time=0
EXTRACT: note_off channel=10 note=81 velocity=95 time=0
EXTRACT: note_on channel=10 note=78 velocity=95 time=0
EXTRACT: note_off channel=13 note=30 velocity=95 time=0
EXTRACT: note_on channel=13 note=32 velocity=95 time=0
EXTRACT: note_off channel=9 note=60 velocity=95 time=0
EXTRACT: note_on channel=9 note=60 velocity=95 time=0
EXTRACT: note_off channel=9 note=51 velocity=95 time=0
EXTRACT: note_on channel=9 note=51 velocity=95 time=0
EXTRACT: note_on channel=9 note=38 velocity=95 time=0
EXTRACT: note_on channel=9 note=35 velocity=95 time=0
EXTRACT: note_off channel=0 note=71 velocity=95 time=0.24
EXTRACT: note_off channel=11 note=66 velocity=95 time=0
EXTRACT: note_on channel=11 note=64 velocity=95 time=0
EXTRACT: note_off channel=10 note=78 velocity=95 time=0
EXTRACT: note_on channel=10 note=76 velocity=95 time=0
EXTRACT: note_off channel=13 note=32 velocity=95 time=0
EXTRACT: note_on channel=13 note=33 velocity=95 time=0
EXTRACT: note_off channel=9 note=60 velocity=95 time=0
EXTRACT: note_on channel=9 note=61 velocity=95 time=0
EXTRACT: note_off channel=9 note=51 velocity=95 time=0
EXTRACT: note_off channel=9 note=38 velocity=95 time=0
EXTRACT: note_off channel=9 note=35 velocity=95 time=0
EXTRACT: note_on channel=9 note=51 velocity=95 time=0
EXTRACT: note_on channel=0 note=73 velocity=95 time=0.24
EXTRACT: note_off channel=2 note=69 velocity=95 time=0
EXTRACT: note_off channel=2 note=64 velocity=95 time=0
EXTRACT: note_off channel=2 note=61 velocity=95 time=0
EXTRACT: note_on channel=2 note=69 velocity=95 time=0
EXTRACT: note_on channel=2 note=66 velocity=95 time=0
EXTRACT: note_on channel=2 note=62 velocity=95 time=0
EXTRACT: note_off channel=8 note=69 velocity=95 time=0
EXTRACT: note_on channel=8 note=69 velocity=95 time=0
EXTRACT: note_off channel=11 note=64 velocity=95 time=0
EXTRACT: note_off channel=10 note=76 velocity=95 time=0
EXTRACT: note_off channel=13 note=33 velocity=95 time=0
EXTRACT: note_on channel=13 note=35 velocity=95 time=0
EXTRACT: note_off channel=9 note=61 velocity=95 time=0
EXTRACT: note_on channel=9 note=60 velocity=95 time=0
EXTRACT: note_off channel=9 note=51 velocity=95 time=0
EXTRACT: note_on channel=9 note=51 velocity=95 time=0
EXTRACT: note_on channel=9 note=35 velocity=95 time=0
EXTRACT: note_on channel=4 note=61 velocity=95 time=0.24
EXTRACT: note_on channel=11 note=69 velocity=95 time=0
EXTRACT: note_on channel=10 note=81 velocity=95 time=0
EXTRACT: note_off channel=13 note=35 velocity=95 time=0
EXTRACT: note_on channel=13 note=35 velocity=95 time=0
EXTRACT: note_off channel=9 note=60 velocity=95 time=0
EXTRACT: note_on channel=9 note=60 velocity=95 time=0
EXTRACT: note_off channel=9 note=51 velocity=95 time=0
EXTRACT: note_off channel=9 note=35 velocity=95 time=0
EXTRACT: note_on channel=9 note=51 velocity=95 time=0
EXTRACT: note_off channel=0 note=73 velocity=95 time=0.24
EXTRACT: note_on channel=0 note=74 velocity=95 time=0
EXTRACT: note_off channel=4 note=61 velocity=95 time=0
EXTRACT: note_off channel=11 note=69 velocity=95 time=0
EXTRACT: note_off channel=10 note=81 velocity=95 time=0
EXTRACT: note_off channel=13 note=35 velocity=95 time=0
EXTRACT: note_on channel=13 note=42 velocity=95 time=0
EXTRACT: note_off channel=9 note=60 velocity=95 time=0
EXTRACT: note_on channel=9 note=61 velocity=95 time=0
EXTRACT: note_off channel=9 note=51 velocity=95 time=0
EXTRACT: note_on channel=9 note=51 velocity=95 time=0
EXTRACT: note_on channel=9 note=38 velocity=95 time=0
EXTRACT: note_on channel=9 note=35 velocity=95 time=0
EXTRACT: note_off channel=0 note=74 velocity=95 time=0.24
EXTRACT: note_on channel=0 note=73 velocity=95 time=0
EXTRACT: note_off channel=2 note=69 velocity=95 time=0
EXTRACT: note_off channel=2 note=66 velocity=95 time=0
EXTRACT: note_off channel=2 note=62 velocity=95 time=0
EXTRACT: note_on channel=2 note=68 velocity=95 time=0
EXTRACT: note_on channel=2 note=62 velocity=95 time=0
EXTRACT: note_on channel=2 note=59 velocity=95 time=0
EXTRACT: note_on channel=4 note=59 velocity=95 time=0
EXTRACT: note_off channel=8 note=69 velocity=95 time=0
EXTRACT: note_on channel=8 note=68 velocity=95 time=0
EXTRACT: note_off channel=13 note=42 velocity=95 time=0
EXTRACT: note_on channel=13 note=40 velocity=95 time=0
EXTRACT: note_off channel=9 note=61 velocity=95 time=0
EXTRACT: note_on channel=9 note=60 velocity=95 time=0
EXTRACT: note_off channel=9 note=51 velocity=95 time=0
EXTRACT: note_off channel=9 note=38 velocity=95 time=0
EXTRACT: note_off channel=9 note=35 velocity=95 time=0
EXTRACT: note_on channel=9 note=51 velocity=95 time=0
EXTRACT: note_on channel=15 note=73 velocity=95 time=0.24
EXTRACT: note_off channel=4 note=59 velocity=95 time=0
EXTRACT: note_off channel=13 note=40 velocity=95 time=0
EXTRACT: note_off channel=9 note=60 velocity=95 time=0
EXTRACT: note_on channel=9 note=60 velocity=95 time=0
EXTRACT: note_off channel=9 note=51 velocity=95 time=0
EXTRACT: note_on channel=9 note=51 velocity=95 time=0
EXTRACT: note_on channel=9 note=35 velocity=95 time=0
EXTRACT: note_on channel=4 note=57 velocity=95 time=0.24
EXTRACT: note_on channel=11 note=68 velocity=95 time=0
EXTRACT: note_on channel=10 note=80 velocity=95 time=0
EXTRACT: note_on channel=13 note=33 velocity=95 time=0
EXTRACT: note_off channel=9 note=60 velocity=95 time=0
EXTRACT: note_on channel=9 note=60 velocity=95 time=0
EXTRACT: note_off channel=9 note=51 velocity=95 time=0
EXTRACT: note_off channel=9 note=35 velocity=95 time=0
EXTRACT: note_on channel=9 note=51 velocity=95 time=0
EXTRACT: note_off channel=0 note=73 velocity=95 time=0.24
EXTRACT: note_off channel=15 note=73 velocity=95 time=0
EXTRACT: note_on channel=15 note=71 velocity=95 time=0
EXTRACT: note_off channel=4 note=57 velocity=95 time=0
EXTRACT: note_off channel=11 note=68 velocity=95 time=0
EXTRACT: note_off channel=10 note=80 velocity=95 time=0
EXTRACT: note_off channel=13 note=33 velocity=95 time=0
EXTRACT: note_on channel=13 note=35 velocity=95 time=0
EXTRACT: note_off channel=9 note=60 velocity=95 time=0
EXTRACT: note_on channel=9 note=60 velocity=95 time=0
EXTRACT: note_off channel=9 note=51 velocity=95 time=0
EXTRACT: note_on channel=9 note=51 velocity=95 time=0
EXTRACT: note_on channel=9 note=38 velocity=95 time=0
EXTRACT: note_on channel=9 note=35 velocity=95 time=0
EXTRACT: note_off channel=15 note=71 velocity=95 time=0.24
EXTRACT: note_on channel=15 note=69 velocity=95 time=0
EXTRACT: note_on channel=4 note=45 velocity=95 time=0
EXTRACT: note_off channel=13 note=35 velocity=95 time=0
EXTRACT: note_on channel=13 note=36 velocity=95 time=0
EXTRACT: note_off channel=9 note=60 velocity=95 time=0
EXTRACT: note_on channel=9 note=61 velocity=95 time=0
EXTRACT: note_off channel=9 note=51 velocity=95 time=0
EXTRACT: note_off channel=9 note=38 velocity=95 time=0
EXTRACT: note_off channel=9 note=35 velocity=95 time=0
EXTRACT: note_on channel=9 note=51 velocity=95 time=0
EXTRACT: note_off channel=4 note=45 velocity=95 time=0.031
EXTRACT: note_on channel=0 note=73 velocity=95 time=0.209
EXTRACT: note_off channel=2 note=68 velocity=95 time=0
EXTRACT: note_off channel=2 note=62 velocity=95 time=0
EXTRACT: note_off channel=2 note=59 velocity=95 time=0
EXTRACT: note_on channel=2 note=71 velocity=95 time=0
EXTRACT: note_on channel=2 note=68 velocity=95 time=0
EXTRACT: note_on channel=2 note=64 velocity=95 time=0
EXTRACT: note_on channel=5 note=59 velocity=95 time=0
EXTRACT: note_off channel=8 note=68 velocity=95 time=0
EXTRACT: note_on channel=8 note=71 velocity=95 time=0
EXTRACT: note_on channel=11 note=69 velocity=95 time=0
EXTRACT: note_on channel=10 note=81 velocity=95 time=0
EXTRACT: note_off channel=13 note=36 velocity=95 time=0
EXTRACT: note_on channel=13 note=37 velocity=95 time=0
EXTRACT: note_off channel=9 note=61 velocity=95 time=0
EXTRACT: note_on channel=9 note=60 velocity=95 time=0
EXTRACT: note_off channel=9 note=51 velocity=95 time=0
EXTRACT: note_on channel=9 note=51 velocity=95 time=0
EXTRACT: note_on channel=9 note=35 velocity=95 time=0
EXTRACT: pitchwheel channel=5 pitch=0 time=0.06
EXTRACT: pitchwheel channel=5 pitch=0 time=0.06
EXTRACT: pitchwheel channel=5 pitch=0 time=0.06
EXTRACT: note_off channel=0 note=73 velocity=95 time=0.06
EXTRACT: note_on channel=0 note=74 velocity=95 time=0
EXTRACT: pitchwheel channel=5 pitch=0 time=0
EXTRACT: pitchwheel channel=5 pitch=0 time=0
EXTRACT: note_off channel=5 note=59 velocity=95 time=0
EXTRACT: note_on channel=4 note=59 velocity=95 time=0
EXTRACT: note_off channel=13 note=37 velocity=95 time=0
EXTRACT: note_on channel=13 note=32 velocity=95 time=0
EXTRACT: note_off channel=9 note=60 velocity=95 time=0
EXTRACT: note_on channel=9 note=60 velocity=95 time=0
EXTRACT: note_off channel=9 note=51 velocity=95 time=0
EXTRACT: note_off channel=9 note=35 velocity=95 time=0
EXTRACT: note_on channel=9 note=51 velocity=95 time=0
EXTRACT: note_off channel=0 note=74 velocity=95 time=0.24
EXTRACT: note_on channel=0 note=73 velocity=95 time=0
EXTRACT: note_off channel=4 note=59 velocity=95 time=0
EXTRACT: note_on channel=4 note=59 velocity=95 time=0
EXTRACT: note_off channel=11 note=69 velocity=95 time=0
EXTRACT: note_on channel=11 note=66 velocity=95 time=0
EXTRACT: note_off channel=10 note=81 velocity=95 time=0
EXTRACT: note_on channel=10 note=78 velocity=95 time=0
EXTRACT: note_off channel=13 note=32 velocity=95 time=0
EXTRACT: note_on channel=13 note=28 velocity=95 time=0
EXTRACT: note_off channel=9 note=60 velocity=95 time=0
EXTRACT: note_on channel=9 note=61 velocity=95 time=0
EXTRACT: note_off channel=9 note=51 velocity=95 time=0
EXTRACT: note_on channel=9 note=51 velocity=95 time=0
EXTRACT: note_on channel=9 note=38 velocity=95 time=0
EXTRACT: note_on channel=9 note=35 velocity=95 time=0
EXTRACT: note_off channel=0 note=73 velocity=95 time=0.24
EXTRACT: note_on channel=0 note=71 velocity=95 time=0
EXTRACT: note_off channel=2 note=71 velocity=95 time=0
EXTRACT: note_off channel=2 note=68 velocity=95 time=0
EXTRACT: note_off channel=2 note=64 velocity=95 time=0
EXTRACT: note_on channel=2 note=69 velocity=95 time=0
EXTRACT: note_on channel=2 note=64 velocity=95 time=0
EXTRACT: note_on channel=2 note=61 velocity=95 time=0
EXTRACT: note_off channel=4 note=59 velocity=95 time=0
EXTRACT: note_on channel=4 note=56 velocity=95 time=0
EXTRACT: note_off channel=8 note=71 velocity=95 time=0
EXTRACT: note_on channel=8 note=69 velocity=95 time=0
EXTRACT: note_off channel=11 note=66 velocity=95 time=0
EXTRACT: note_on channel=11 note=64 velocity=95 time=0
EXTRACT: note_off channel=10 note=78 velocity=95 time=0
EXTRACT: note_on channel=10 note=76 velocity=95 time=0
EXTRACT: note_off channel=9 note=61 velocity=95 time=0
EXTRACT: note_on channel=9 note=60 velocity=95 time=0
EXTRACT: note_off channel=9 note=51 velocity=95 time=0
EXTRACT: note_off channel=9 note=38 velocity=95 time=0
EXTRACT: note_off channel=9 note=35 velocity=95 time=0
EXTRACT: note_on channel=9 note=51 velocity=95 time=0
EXTRACT: note_off channel=0 note=71 velocity=95 time=0.24
EXTRACT: note_on channel=0 note=69 velocity=95 time=0
EXTRACT: note_off channel=15 note=69 velocity=95 time=0
EXTRACT: note_on channel=15 note=66 velocity=95 time=0
EXTRACT: note_off channel=11 note=64 velocity=95 time=0
EXTRACT: note_on channel=11 note=69 velocity=95 time=0
EXTRACT: note_off channel=10 note=76 velocity=95 time=0
EXTRACT: note_on channel=10 note=81 velocity=95 time=0
EXTRACT: note_off channel=13 note=28 velocity=95 time=0
EXTRACT: note_on channel=13 note=30 velocity=95 time=0
EXTRACT: note_off channel=9 note=60 velocity=95 time=0
EXTRACT: note_on channel=9 note=60 velocity=95 time=0
EXTRACT: note_off channel=9 note=51 velocity=95 time=0
EXTRACT: note_on channel=9 note=51 velocity=95 time=0
EXTRACT: note_on channel=9 note=35 velocity=95 time=0
EXTRACT: note_off channel=4 note=56 velocity=95 time=0.24
EXTRACT: note_on channel=4 note=57 velocity=95 time=0
EXTRACT: note_off channel=9 note=60 velocity=95 time=0
EXTRACT: note_on channel=9 note=60 velocity=95 time=0
EXTRACT: note_off channel=9 note=51 velocity=95 time=0
EXTRACT: note_off channel=9 note=35 velocity=95 time=0
EXTRACT: note_on channel=9 note=51 velocity=95 time=0
EXTRACT: note_off channel=0 note=69 velocity=95 time=0.24
EXTRACT: note_on channel=0 note=71 velocity=95 time=0
EXTRACT: note_off channel=15 note=66 velocity=95 time=0
EXTRACT: note_off channel=4 note=57 velocity=95 time=0
EXTRACT: note_off channel=11 note=69 velocity=95 time=0
EXTRACT: note_on channel=11 note=66 velocity=95 time=0
EXTRACT: note_off channel=10 note=81 velocity=95 time=0
EXTRACT: note_on channel=10 note=78 velocity=95 time=0
EXTRACT: note_off channel=13 note=30 velocity=95 time=0
EXTRACT: note_on channel=13 note=32 velocity=95 time=0
EXTRACT: note_off channel=9 note=60 velocity=95 time=0
EXTRACT: note_on channel=9 note=60 velocity=95 time=0
EXTRACT: note_off channel=9 note=51 velocity=95 time=0
EXTRACT: note_on channel=9 note=51 velocity=95 time=0
EXTRACT: note_on channel=9 note=38 velocity=95 time=0
EXTRACT: note_on channel=9 note=35 velocity=95 time=0
EXTRACT: note_off channel=0 note=71 velocity=95 time=0.24
EXTRACT: note_off channel=11 note=66 velocity=95 time=0
EXTRACT: note_on channel=11 note=64 velocity=95 time=0
EXTRACT: note_off channel=10 note=78 velocity=95 time=0
EXTRACT: note_on channel=10 note=76 velocity=95 time=0
EXTRACT: note_off channel=13 note=32 velocity=95 time=0
EXTRACT: note_on channel=13 note=33 velocity=95 time=0
EXTRACT: note_off channel=9 note=60 velocity=95 time=0
EXTRACT: note_on channel=9 note=61 velocity=95 time=0
EXTRACT: note_off channel=9 note=51 velocity=95 time=0
EXTRACT: note_off channel=9 note=38 velocity=95 time=0
EXTRACT: note_off channel=9 note=35 velocity=95 time=0
EXTRACT: note_on channel=9 note=51 velocity=95 time=0
EXTRACT: note_on channel=0 note=73 velocity=95 time=0.24
EXTRACT: note_off channel=2 note=69 velocity=95 time=0
EXTRACT: note_off channel=2 note=64 velocity=95 time=0
EXTRACT: note_off channel=2 note=61 velocity=95 time=0
EXTRACT: note_on channel=2 note=69 velocity=95 time=0
EXTRACT: note_on channel=2 note=66 velocity=95 time=0
EXTRACT: note_on channel=2 note=62 velocity=95 time=0
EXTRACT: note_off channel=8 note=69 velocity=95 time=0
EXTRACT: note_on channel=8 note=69 velocity=95 time=0
EXTRACT: note_off channel=11 note=64 velocity=95 time=0
EXTRACT: note_off channel=10 note=76 velocity=95 time=0
EXTRACT: note_off channel=13 note=33 velocity=95 time=0
EXTRACT: note_on channel=13 note=35 velocity=95 time=0
EXTRACT: note_off channel=9 note=61 velocity=95 time=0
EXTRACT: note_on channel=9 note=60 velocity=95 time=0
EXTRACT: note_off channel=9 note=51 velocity=95 time=0
EXTRACT: note_on channel=9 note=51 velocity=95 time=0
EXTRACT: note_on channel=9 note=35 velocity=95 time=0
EXTRACT: note_on channel=5 note=61 velocity=95 time=0.24
EXTRACT: note_on channel=11 note=69 velocity=95 time=0
EXTRACT: note_on channel=10 note=81 velocity=95 time=0
EXTRACT: note_off channel=13 note=35 velocity=95 time=0
EXTRACT: note_on channel=13 note=35 velocity=95 time=0
EXTRACT: note_off channel=9 note=60 velocity=95 time=0
EXTRACT: note_on channel=9 note=60 velocity=95 time=0
EXTRACT: note_off channel=9 note=51 velocity=95 time=0
EXTRACT: note_off channel=9 note=35 velocity=95 time=0
EXTRACT: note_on channel=9 note=51 velocity=95 time=0
EXTRACT: note_off channel=0 note=73 velocity=95 time=0.24
EXTRACT: note_on channel=0 note=74 velocity=95 time=0
EXTRACT: note_off channel=5 note=61 velocity=95 time=0
EXTRACT: note_off channel=11 note=69 velocity=95 time=0
EXTRACT: note_off channel=10 note=81 velocity=95 time=0
EXTRACT: note_off channel=13 note=35 velocity=95 time=0
EXTRACT: note_on channel=13 note=42 velocity=95 time=0
EXTRACT: note_off channel=9 note=60 velocity=95 time=0
EXTRACT: note_on channel=9 note=61 velocity=95 time=0
EXTRACT: note_off channel=9 note=51 velocity=95 time=0
EXTRACT: note_on channel=9 note=51 velocity=95 time=0
EXTRACT: note_on channel=9 note=38 velocity=95 time=0
EXTRACT: note_on channel=9 note=35 velocity=95 time=0
EXTRACT: note_off channel=0 note=74 velocity=95 time=0.24
EXTRACT: note_on channel=0 note=73 velocity=95 time=0
EXTRACT: note_off channel=2 note=69 velocity=95 time=0
EXTRACT: note_off channel=2 note=66 velocity=95 time=0
EXTRACT: note_off channel=2 note=62 velocity=95 time=0
EXTRACT: note_on channel=2 note=68 velocity=95 time=0
EXTRACT: note_on channel=2 note=62 velocity=95 time=0
EXTRACT: note_on channel=2 note=59 velocity=95 time=0
EXTRACT: note_on channel=4 note=59 velocity=95 time=0
EXTRACT: note_off channel=8 note=69 velocity=95 time=0
EXTRACT: note_on channel=8 note=68 velocity=95 time=0
EXTRACT: note_off channel=13 note=42 velocity=95 time=0
EXTRACT: note_on channel=13 note=40 velocity=95 time=0
EXTRACT: note_off channel=9 note=61 velocity=95 time=0
EXTRACT: note_on channel=9 note=60 velocity=95 time=0
EXTRACT: note_off channel=9 note=51 velocity=95 time=0
EXTRACT: note_off channel=9 note=38 velocity=95 time=0
EXTRACT: note_off channel=9 note=35 velocity=95 time=0
EXTRACT: note_on channel=9 note=51 velocity=95 time=0
EXTRACT: note_on channel=15 note=73 velocity=95 time=0.24
EXTRACT: note_off channel=4 note=59 velocity=95 time=0
EXTRACT: note_off channel=13 note=40 velocity=95 time=0
EXTRACT: note_off channel=9 note=60 velocity=95 time=0
EXTRACT: note_on channel=9 note=60 velocity=95 time=0
EXTRACT: note_off channel=9 note=51 velocity=95 time=0
EXTRACT: note_on channel=9 note=51 velocity=95 time=0
EXTRACT: note_on channel=9 note=35 velocity=95 time=0
EXTRACT: note_on channel=4 note=57 velocity=95 time=0.24
EXTRACT: note_on channel=11 note=68 velocity=95 time=0
EXTRACT: note_on channel=10 note=80 velocity=95 time=0
EXTRACT: note_on channel=13 note=33 velocity=95 time=0
EXTRACT: note_off channel=9 note=60 velocity=95 time=0
EXTRACT: note_on channel=9 note=60 velocity=95 time=0
EXTRACT: note_off channel=9 note=51 velocity=95 time=0
EXTRACT: note_off channel=9 note=35 velocity=95 time=0
EXTRACT: note_on channel=9 note=51 velocity=95 time=0
EXTRACT: note_off channel=0 note=73 velocity=95 time=0.24
EXTRACT: note_off channel=15 note=73 velocity=95 time=0
EXTRACT: note_on channel=15 note=71 velocity=95 time=0
EXTRACT: note_off channel=4 note=57 velocity=95 time=0
EXTRACT: note_off channel=11 note=68 velocity=95 time=0
EXTRACT: note_off channel=10 note=80 velocity=95 time=0
EXTRACT: note_off channel=13 note=33 velocity=95 time=0
EXTRACT: note_on channel=13 note=35 velocity=95 time=0
EXTRACT: note_off channel=9 note=60 velocity=95 time=0
EXTRACT: note_on channel=9 note=60 velocity=95 time=0
EXTRACT: note_off channel=9 note=51 velocity=95 time=0
EXTRACT: note_on channel=9 note=51 velocity=95 time=0
EXTRACT: note_on channel=9 note=38 velocity=95 time=0
EXTRACT: note_on channel=9 note=35 velocity=95 time=0
EXTRACT: note_off channel=15 note=71 velocity=95 time=0.24
EXTRACT: note_on channel=15 note=69 velocity=95 time=0
EXTRACT: note_on channel=4 note=45 velocity=95 time=0
EXTRACT: note_off channel=13 note=35 velocity=95 time=0
EXTRACT: note_on channel=13 note=36 velocity=95 time=0
EXTRACT: note_off channel=9 note=60 velocity=95 time=0
EXTRACT: note_on channel=9 note=61 velocity=95 time=0
EXTRACT: note_off channel=9 note=51 velocity=95 time=0
EXTRACT: note_off channel=9 note=38 velocity=95 time=0
EXTRACT: note_off channel=9 note=35 velocity=95 time=0
EXTRACT: note_on channel=9 note=51 velocity=95 time=0
EXTRACT: note_off channel=4 note=45 velocity=95 time=0.031
EXTRACT: note_on channel=0 note=73 velocity=95 time=0.209
EXTRACT: note_off channel=2 note=68 velocity=95 time=0
EXTRACT: note_off channel=2 note=62 velocity=95 time=0
EXTRACT: note_off channel=2 note=59 velocity=95 time=0
EXTRACT: note_on channel=2 note=71 velocity=95 time=0
EXTRACT: note_on channel=2 note=68 velocity=95 time=0
EXTRACT: note_on channel=2 note=64 velocity=95 time=0
EXTRACT: note_on channel=5 note=59 velocity=95 time=0
EXTRACT: note_off channel=8 note=68 velocity=95 time=0
EXTRACT: note_on channel=8 note=71 velocity=95 time=0
EXTRACT: note_on channel=11 note=69 velocity=95 time=0
EXTRACT: note_on channel=10 note=81 velocity=95 time=0
EXTRACT: note_off channel=13 note=36 velocity=95 time=0
EXTRACT: note_on channel=13 note=37 velocity=95 time=0
EXTRACT: note_off channel=9 note=61 velocity=95 time=0
EXTRACT: note_on channel=9 note=60 velocity=95 time=0
EXTRACT: note_off channel=9 note=51 velocity=95 time=0
EXTRACT: note_on channel=9 note=51 velocity=95 time=0
EXTRACT: note_on channel=9 note=35 velocity=95 time=0
EXTRACT: pitchwheel channel=5 pitch=0 time=0.06
EXTRACT: pitchwheel channel=5 pitch=0 time=0.06
EXTRACT: pitchwheel channel=5 pitch=0 time=0.06
EXTRACT: note_off channel=0 note=73 velocity=95 time=0.06
EXTRACT: note_on channel=0 note=74 velocity=95 time=0
EXTRACT: pitchwheel channel=5 pitch=0 time=0
EXTRACT: pitchwheel channel=5 pitch=0 time=0
EXTRACT: note_off channel=5 note=59 velocity=95 time=0
EXTRACT: note_on channel=4 note=59 velocity=95 time=0
EXTRACT: note_off channel=13 note=37 velocity=95 time=0
EXTRACT: note_on channel=13 note=32 velocity=95 time=0
EXTRACT: note_off channel=9 note=60 velocity=95 time=0
EXTRACT: note_on channel=9 note=60 velocity=95 time=0
EXTRACT: note_off channel=9 note=51 velocity=95 time=0
EXTRACT: note_off channel=9 note=35 velocity=95 time=0
EXTRACT: note_on channel=9 note=51 velocity=95 time=0
EXTRACT: note_off channel=0 note=74 velocity=95 time=0.24
EXTRACT: note_on channel=0 note=73 velocity=95 time=0
EXTRACT: note_off channel=4 note=59 velocity=95 time=0
EXTRACT: note_on channel=4 note=59 velocity=95 time=0
EXTRACT: note_off channel=11 note=69 velocity=95 time=0
EXTRACT: note_on channel=11 note=66 velocity=95 time=0
EXTRACT: note_off channel=10 note=81 velocity=95 time=0
EXTRACT: note_on channel=10 note=78 velocity=95 time=0
EXTRACT: note_off channel=13 note=32 velocity=95 time=0
EXTRACT: note_on channel=13 note=28 velocity=95 time=0
EXTRACT: note_off channel=9 note=60 velocity=95 time=0
EXTRACT: note_on channel=9 note=61 velocity=95 time=0
EXTRACT: note_off channel=9 note=51 velocity=95 time=0
EXTRACT: note_on channel=9 note=51 velocity=95 time=0
EXTRACT: note_on channel=9 note=38 velocity=95 time=0
EXTRACT: note_on channel=9 note=35 velocity=95 time=0
EXTRACT: note_off channel=0 note=73 velocity=95 time=0.24
EXTRACT: note_on channel=0 note=71 velocity=95 time=0
EXTRACT: note_off channel=2 note=71 velocity=95 time=0
EXTRACT: note_off channel=2 note=68 velocity=95 time=0
EXTRACT: note_off channel=2 note=64 velocity=95 time=0
EXTRACT: note_on channel=2 note=69 velocity=95 time=0
EXTRACT: note_on channel=2 note=64 velocity=95 time=0
EXTRACT: note_on channel=2 note=61 velocity=95 time=0
EXTRACT: note_off channel=4 note=59 velocity=95 time=0
EXTRACT: note_on channel=4 note=56 velocity=95 time=0
EXTRACT: note_off channel=8 note=71 velocity=95 time=0
EXTRACT: note_on channel=8 note=69 velocity=95 time=0
EXTRACT: note_off channel=11 note=66 velocity=95 time=0
EXTRACT: note_on channel=11 note=64 velocity=95 time=0
EXTRACT: note_off channel=10 note=78 velocity=95 time=0
EXTRACT: note_on channel=10 note=76 velocity=95 time=0
EXTRACT: note_off channel=9 note=61 velocity=95 time=0
EXTRACT: note_on channel=9 note=60 velocity=95 time=0
EXTRACT: note_off channel=9 note=51 velocity=95 time=0
EXTRACT: note_off channel=9 note=38 velocity=95 time=0
EXTRACT: note_off channel=9 note=35 velocity=95 time=0
EXTRACT: note_on channel=9 note=51 velocity=95 time=0
EXTRACT: note_off channel=0 note=71 velocity=95 time=0.24
EXTRACT: note_on channel=0 note=69 velocity=95 time=0
EXTRACT: note_off channel=15 note=69 velocity=95 time=0
EXTRACT: note_on channel=15 note=66 velocity=95 time=0
EXTRACT: note_off channel=11 note=64 velocity=95 time=0
EXTRACT: note_on channel=11 note=69 velocity=95 time=0
EXTRACT: note_off channel=10 note=76 velocity=95 time=0
EXTRACT: note_on channel=10 note=81 velocity=95 time=0
EXTRACT: note_off channel=13 note=28 velocity=95 time=0
EXTRACT: note_on channel=13 note=30 velocity=95 time=0
EXTRACT: note_off channel=9 note=60 velocity=95 time=0
EXTRACT: note_on channel=9 note=60 velocity=95 time=0
EXTRACT: note_off channel=9 note=51 velocity=95 time=0
EXTRACT: note_on channel=9 note=51 velocity=95 time=0
EXTRACT: note_on channel=9 note=35 velocity=95 time=0
EXTRACT: note_off channel=4 note=56 velocity=95 time=0.24
EXTRACT: note_on channel=4 note=57 velocity=95 time=0
EXTRACT: note_off channel=9 note=60 velocity=95 time=0
EXTRACT: note_on channel=9 note=60 velocity=95 time=0
EXTRACT: note_off channel=9 note=51 velocity=95 time=0
EXTRACT: note_off channel=9 note=35 velocity=95 time=0
EXTRACT: note_on channel=9 note=51 velocity=95 time=0
EXTRACT: note_off channel=0 note=69 velocity=95 time=0.24
EXTRACT: note_on channel=0 note=66 velocity=95 time=0
EXTRACT: note_off channel=15 note=66 velocity=95 time=0
EXTRACT: note_off channel=4 note=57 velocity=95 time=0
EXTRACT: note_off channel=11 note=69 velocity=95 time=0
EXTRACT: note_on channel=11 note=66 velocity=95 time=0
EXTRACT: note_off channel=10 note=81 velocity=95 time=0
EXTRACT: note_on channel=10 note=78 velocity=95 time=0
EXTRACT: note_off channel=13 note=30 velocity=95 time=0
EXTRACT: note_on channel=13 note=32 velocity=95 time=0
EXTRACT: note_off channel=9 note=60 velocity=95 time=0
EXTRACT: note_on channel=9 note=60 velocity=95 time=0
EXTRACT: note_off channel=9 note=51 velocity=95 time=0
EXTRACT: note_on channel=9 note=51 velocity=95 time=0
EXTRACT: note_on channel=9 note=38 velocity=95 time=0
EXTRACT: note_on channel=9 note=35 velocity=95 time=0
EXTRACT: note_off channel=0 note=66 velocity=95 time=0.24
EXTRACT: note_on channel=0 note=71 velocity=95 time=0
EXTRACT: note_on channel=15 note=76 velocity=95 time=0
EXTRACT: note_off channel=11 note=66 velocity=95 time=0
EXTRACT: note_on channel=11 note=64 velocity=95 time=0
EXTRACT: note_off channel=10 note=78 velocity=95 time=0
EXTRACT: note_on channel=10 note=76 velocity=95 time=0
EXTRACT: note_off channel=13 note=32 velocity=95 time=0
EXTRACT: note_on channel=13 note=35 velocity=95 time=0
EXTRACT: note_off channel=9 note=60 velocity=95 time=0
EXTRACT: note_on channel=9 note=61 velocity=95 time=0
EXTRACT: note_off channel=9 note=51 velocity=95 time=0
EXTRACT: note_off channel=9 note=38 velocity=95 time=0
EXTRACT: note_off channel=9 note=35 velocity=95 time=0
EXTRACT: note_on channel=9 note=51 velocity=95 time=0
EXTRACT: note_off channel=0 note=71 velocity=95 time=0.24
EXTRACT: note_on channel=0 note=69 velocity=70 time=0
EXTRACT: note_off channel=2 note=69 velocity=95 time=0
EXTRACT: note_off channel=2 note=64 velocity=95 time=0
EXTRACT: note_off channel=2 note=61 velocity=95 time=0
EXTRACT: note_on channel=2 note=69 velocity=95 time=0
EXTRACT: note_on channel=2 note=67 velocity=95 time=0
EXTRACT: note_on channel=2 note=62 velocity=95 time=0
EXTRACT: note_on channel=2 note=59 velocity=95 time=0
EXTRACT: note_off channel=8 note=69 velocity=95 time=0
EXTRACT: note_on channel=8 note=69 velocity=95 time=0
EXTRACT: note_off channel=11 note=64 velocity=95 time=0
EXTRACT: note_on channel=11 note=69 velocity=95 time=0
EXTRACT: note_off channel=10 note=76 velocity=95 time=0
EXTRACT: note_on channel=10 note=81 velocity=95 time=0
EXTRACT: note_on channel=10 note=76 velocity=95 time=0
EXTRACT: note_off channel=13 note=35 velocity=95 time=0
EXTRACT: note_on channel=13 note=33 velocity=95 time=0
EXTRACT: note_off channel=9 note=61 velocity=95 time=0
EXTRACT: note_on channel=9 note=60 velocity=95 time=0
EXTRACT: note_off channel=9 note=51 velocity=95 time=0
EXTRACT: note_on channel=9 note=51 velocity=95 time=0
EXTRACT: note_on channel=9 note=35 velocity=95 time=0
EXTRACT: note_off channel=8 note=69 velocity=95 time=0.12
EXTRACT: note_on channel=8 note=69 velocity=95 time=0
EXTRACT: note_off channel=13 note=33 velocity=95 time=0
EXTRACT: note_on channel=4 note=66 velocity=95 time=0.12
EXTRACT: note_on channel=4 note=62 velocity=95 time=0
EXTRACT: note_off channel=8 note=69 velocity=95 time=0
EXTRACT: note_on channel=8 note=66 velocity=95 time=0
EXTRACT: note_off channel=11 note=69 velocity=95 time=0
EXTRACT: note_on channel=11 note=69 velocity=95 time=0
EXTRACT: note_off channel=10 note=81 velocity=95 time=0
EXTRACT: note_off channel=10 note=76 velocity=95 time=0
EXTRACT: note_on channel=10 note=81 velocity=95 time=0
EXTRACT: note_on channel=10 note=76 velocity=95 time=0
EXTRACT: note_on channel=13 note=33 velocity=95 time=0
EXTRACT: note_off channel=9 note=60 velocity=95 time=0
EXTRACT: note_on channel=9 note=60 velocity=95 time=0
EXTRACT: note_off channel=9 note=51 velocity=95 time=0
EXTRACT: note_off channel=9 note=35 velocity=95 time=0
EXTRACT: note_on channel=9 note=51 velocity=95 time=0
EXTRACT: note_off channel=8 note=66 velocity=95 time=0.12
EXTRACT: note_on channel=8 note=64 velocity=95 time=0
EXTRACT: note_off channel=8 note=64 velocity=95 time=0.12
EXTRACT: note_on channel=8 note=69 velocity=95 time=0
EXTRACT: note_off channel=13 note=33 velocity=95 time=0
EXTRACT: note_on channel=13 note=55 velocity=95 time=0
EXTRACT: note_off channel=9 note=60 velocity=95 time=0
EXTRACT: note_on channel=9 note=61 velocity=95 time=0
EXTRACT: note_off channel=9 note=51 velocity=95 time=0
EXTRACT: note_on channel=9 note=51 velocity=95 time=0
EXTRACT: note_on channel=9 note=38 velocity=95 time=0
EXTRACT: note_on channel=9 note=35 velocity=95 time=0
EXTRACT: note_off channel=4 note=66 velocity=95 time=0.12
EXTRACT: note_off channel=4 note=62 velocity=95 time=0
EXTRACT: note_on channel=4 note=67 velocity=95 time=0
EXTRACT: note_on channel=4 note=62 velocity=95 time=0
EXTRACT: note_off channel=8 note=69 velocity=95 time=0
EXTRACT: note_on channel=8 note=69 velocity=95 time=0
EXTRACT: note_off channel=8 note=69 velocity=95 time=0.12
EXTRACT: note_on channel=8 note=66 velocity=95 time=0
EXTRACT: note_off channel=11 note=69 velocity=95 time=0
EXTRACT: note_on channel=11 note=69 velocity=95 time=0
EXTRACT: note_off channel=10 note=81 velocity=95 time=0
EXTRACT: note_off channel=10 note=76 velocity=95 time=0
EXTRACT: note_on channel=10 note=81 velocity=95 time=0
EXTRACT: note_on channel=10 note=76 velocity=95 time=0
EXTRACT: note_off channel=13 note=55 velocity=95 time=0
EXTRACT: note_on channel=13 note=57 velocity=95 time=0
EXTRACT: note_off channel=9 note=61 velocity=95 time=0
EXTRACT: note_on channel=9 note=60 velocity=95 time=0
EXTRACT: note_off channel=9 note=51 velocity=95 time=0
EXTRACT: note_off channel=9 note=38 velocity=95 time=0
EXTRACT: note_off channel=9 note=35 velocity=95 time=0
EXTRACT: note_on channel=9 note=51 velocity=95 time=0
EXTRACT: note_off channel=8 note=66 velocity=95 time=0.12
EXTRACT: note_on channel=8 note=64 velocity=95 time=0
EXTRACT: note_off channel=4 note=67 velocity=95 time=0.12
EXTRACT: note_off channel=4 note=62 velocity=95 time=0
EXTRACT: note_on channel=4 note=69 velocity=95 time=0
EXTRACT: note_on channel=4 note=64 velocity=95 time=0
EXTRACT: note_off channel=8 note=64 velocity=95 time=0
EXTRACT: note_on channel=8 note=69 velocity=95 time=0
EXTRACT: note_off channel=11 note=69 velocity=95 time=0
EXTRACT: note_on channel=11 note=69 velocity=95 time=0
EXTRACT: note_off channel=10 note=81 velocity=95 time=0
EXTRACT: note_off channel=10 note=76 velocity=95 time=0
EXTRACT: note_on channel=10 note=81 velocity=95 time=0
EXTRACT: note_on channel=10 note=76 velocity=95 time=0
EXTRACT: note_off channel=13 note=57 velocity=95 time=0
EXTRACT: note_on channel=13 note=33 velocity=95 time=0
EXTRACT: note_off channel=9 note=60 velocity=95 time=0
EXTRACT: note_on channel=9 note=60 velocity=95 time=0
EXTRACT: note_off channel=9 note=51 velocity=95 time=0
EXTRACT: note_on channel=9 note=51 velocity=95 time=0
EXTRACT: note_on channel=9 note=35 velocity=95 time=0
EXTRACT: note_off channel=8 note=69 velocity=95 time=0.12
EXTRACT: note_on channel=8 note=69 velocity=95 time=0
EXTRACT: note_off channel=13 note=33 velocity=95 time=0
EXTRACT: note_off channel=8 note=69 velocity=95 time=0.12
EXTRACT: note_on channel=8 note=66 velocity=95 time=0
EXTRACT: note_on channel=13 note=33 velocity=95 time=0
EXTRACT: note_off channel=9 note=60 velocity=95 time=0
EXTRACT: note_on channel=9 note=60 velocity=95 time=0
EXTRACT: note_off channel=9 note=51 velocity=95 time=0
EXTRACT: note_off channel=9 note=35 velocity=95 time=0
EXTRACT: note_on channel=9 note=51 velocity=95 time=0
EXTRACT: note_off channel=8 note=66 velocity=95 time=0.12
EXTRACT: note_on channel=8 note=64 velocity=95 time=0
EXTRACT: note_off channel=8 note=64 velocity=95 time=0.12
EXTRACT: note_on channel=8 note=69 velocity=95 time=0
EXTRACT: note_off channel=11 note=69 velocity=95 time=0
EXTRACT: note_on channel=11 note=69 velocity=95 time=0
EXTRACT: note_off channel=10 note=81 velocity=95 time=0
EXTRACT: note_off channel=10 note=76 velocity=95 time=0
EXTRACT: note_on channel=10 note=81 velocity=95 time=0
EXTRACT: note_on channel=10 note=76 velocity=95 time=0
EXTRACT: note_off channel=13 note=33 velocity=95 time=0
EXTRACT: note_on channel=13 note=55 velocity=95 time=0
EXTRACT: note_off channel=9 note=60 velocity=95 time=0
EXTRACT: note_on channel=9 note=60 velocity=95 time=0
EXTRACT: note_off channel=9 note=51 velocity=95 time=0
EXTRACT: note_on channel=9 note=51 velocity=95 time=0
EXTRACT: note_on channel=9 note=38 velocity=95 time=0
EXTRACT: note_on channel=9 note=35 velocity=95 time=0
EXTRACT: note_off channel=8 note=69 velocity=95 time=0.12
EXTRACT: note_on channel=8 note=69 velocity=95 time=0
EXTRACT: note_off channel=8 note=69 velocity=95 time=0.12
EXTRACT: note_on channel=8 note=66 velocity=95 time=0
EXTRACT: note_off channel=11 note=69 velocity=95 time=0
EXTRACT: note_on channel=11 note=69 velocity=95 time=0
EXTRACT: note_off channel=10 note=81 velocity=95 time=0
EXTRACT: note_off channel=10 note=76 velocity=95 time=0
EXTRACT: note_on channel=10 note=81 velocity=95 time=0
EXTRACT: note_on channel=10 note=76 velocity=95 time=0
EXTRACT: note_off channel=13 note=55 velocity=95 time=0
EXTRACT: note_on channel=13 note=57 velocity=95 time=0
EXTRACT: note_off channel=9 note=60 velocity=95 time=0
EXTRACT: note_on channel=9 note=61 velocity=95 time=0
EXTRACT: note_off channel=9 note=51 velocity=95 time=0
EXTRACT: note_off channel=9 note=38 velocity=95 time=0
EXTRACT: note_off channel=9 note=35 velocity=95 time=0
EXTRACT: note_on channel=9 note=51 velocity=95 time=0
EXTRACT: note_off channel=8 note=66 velocity=95 time=0.12
EXTRACT: note_on channel=8 note=64 velocity=95 time=0
EXTRACT: note_off channel=2 note=69 velocity=95 time=0.12
EXTRACT: note_off channel=2 note=67 velocity=95 time=0
EXTRACT: note_off channel=2 note=62 velocity=95 time=0
EXTRACT: note_off channel=2 note=59 velocity=95 time=0
EXTRACT: note_on channel=2 note=69 velocity=95 time=0
EXTRACT: note_on channel=2 note=67 velocity=95 time=0
EXTRACT: note_on channel=2 note=62 velocity=95 time=0
EXTRACT: note_on channel=2 note=59 velocity=95 time=0
EXTRACT: note_off channel=4 note=69 velocity=95 time=0
EXTRACT: note_off channel=4 note=64 velocity=95 time=0
EXTRACT: note_off channel=8 note=64 velocity=95 time=0
EXTRACT: note_on channel=8 note=69 velocity=95 time=0
EXTRACT: note_off channel=13 note=57 velocity=95 time=0
EXTRACT: note_on channel=13 note=33 velocity=95 time=0
EXTRACT: note_off channel=9 note=61 velocity=95 time=0
EXTRACT: note_on channel=9 note=60 velocity=95 time=0
EXTRACT: note_off channel=9 note=51 velocity=95 time=0
EXTRACT: note_on channel=9 note=51 velocity=95 time=0
EXTRACT: note_on channel=9 note=35 velocity=95 time=0
EXTRACT: note_off channel=8 note=69 velocity=95 time=0.12
EXTRACT: note_on channel=8 note=69 velocity=95 time=0
EXTRACT: note_off channel=13 note=33 velocity=95 time=0
EXTRACT: note_on channel=4 note=66 velocity=95 time=0.12
EXTRACT: note_on channel=4 note=62 velocity=95 time=0
EXTRACT: note_off channel=8 note=69 velocity=95 time=0
EXTRACT: note_on channel=8 note=66 velocity=95 time=0
EXTRACT: note_off channel=11 note=69 velocity=95 time=0
EXTRACT: note_on channel=11 note=69 velocity=95 time=0
EXTRACT: note_off channel=10 note=81 velocity=95 time=0
EXTRACT: note_off channel=10 note=76 velocity=95 time=0
EXTRACT: note_on channel=10 note=81 velocity=95 time=0
EXTRACT: note_on channel=10 note=76 velocity=95 time=0
EXTRACT: note_on channel=13 note=33 velocity=95 time=0
EXTRACT: note_off channel=9 note=60 velocity=95 time=0
EXTRACT: note_on channel=9 note=60 velocity=95 time=0
EXTRACT: note_off channel=9 note=51 velocity=95 time=0
EXTRACT: note_off channel=9 note=35 velocity=95 time=0
EXTRACT: note_on channel=9 note=51 velocity=95 time=0
EXTRACT: note_off channel=8 note=66 velocity=95 time=0.12
EXTRACT: note_on channel=8 note=64 velocity=95 time=0
EXTRACT: note_off channel=8 note=64 velocity=95 time=0.12
EXTRACT: note_on channel=8 note=69 velocity=95 time=0
EXTRACT: note_off channel=11 note=69 velocity=95 time=0
EXTRACT: note_on channel=11 note=69 velocity=95 time=0
EXTRACT: note_off channel=10 note=81 velocity=95 time=0
EXTRACT: note_off channel=10 note=76 velocity=95 time=0
EXTRACT: note_on channel=10 note=81 velocity=95 time=0
EXTRACT: note_on channel=10 note=76 velocity=95 time=0
EXTRACT: note_off channel=13 note=33 velocity=95 time=0
EXTRACT: note_on channel=13 note=55 velocity=95 time=0
EXTRACT: note_off channel=9 note=60 velocity=95 time=0
EXTRACT: note_on channel=9 note=61 velocity=95 time=0
EXTRACT: note_off channel=9 note=51 velocity=95 time=0
EXTRACT: note_on channel=9 note=51 velocity=95 time=0
EXTRACT: note_on channel=9 note=38 velocity=95 time=0
EXTRACT: note_on channel=9 note=35 velocity=95 time=0
EXTRACT: note_off channel=4 note=66 velocity=95 time=0.12
EXTRACT: note_off channel=4 note=62 velocity=95 time=0
EXTRACT: note_on channel=4 note=67 velocity=95 time=0
EXTRACT: note_on channel=4 note=62 velocity=95 time=0
EXTRACT: note_off channel=8 note=69 velocity=95 time=0
EXTRACT: note_on channel=8 note=69 velocity=95 time=0
EXTRACT: note_off channel=8 note=69 velocity=95 time=0.12
EXTRACT: note_on channel=8 note=66 velocity=95 time=0
EXTRACT: note_off channel=13 note=55 velocity=95 time=0
EXTRACT: note_on channel=13 note=57 velocity=95 time=0
EXTRACT: note_off channel=9 note=61 velocity=95 time=0
EXTRACT: note_on channel=9 note=60 velocity=95 time=0
EXTRACT: note_off channel=9 note=51 velocity=95 time=0
EXTRACT: note_off channel=9 note=38 velocity=95 time=0
EXTRACT: note_off channel=9 note=35 velocity=95 time=0
EXTRACT: note_on channel=9 note=51 velocity=95 time=0
EXTRACT: note_off channel=8 note=66 velocity=95 time=0.12
EXTRACT: note_on channel=8 note=64 velocity=95 time=0
EXTRACT: note_off channel=2 note=69 velocity=95 time=0.12
EXTRACT: note_off channel=2 note=67 velocity=95 time=0
EXTRACT: note_off channel=2 note=62 velocity=95 time=0
EXTRACT: note_off channel=2 note=59 velocity=95 time=0
EXTRACT: note_on channel=2 note=69 velocity=95 time=0
EXTRACT: note_on channel=2 note=67 velocity=95 time=0
EXTRACT: note_on channel=2 note=62 velocity=95 time=0
EXTRACT: note_on channel=2 note=59 velocity=95 time=0
EXTRACT: note_off channel=4 note=67 velocity=95 time=0
EXTRACT: note_off channel=4 note=62 velocity=95 time=0
EXTRACT: note_on channel=4 note=69 velocity=95 time=0
EXTRACT: note_on channel=4 note=64 velocity=95 time=0
EXTRACT: note_off channel=8 note=64 velocity=95 time=0
EXTRACT: note_on channel=8 note=69 velocity=95 time=0
EXTRACT: note_off channel=11 note=69 velocity=95 time=0
EXTRACT: note_on channel=11 note=69 velocity=95 time=0
EXTRACT: note_off channel=10 note=81 velocity=95 time=0
EXTRACT: note_off channel=10 note=76 velocity=95 time=0
EXTRACT: note_on channel=10 note=81 velocity=95 time=0
EXTRACT: note_on channel=10 note=76 velocity=95 time=0
EXTRACT: note_off channel=13 note=57 velocity=95 time=0
EXTRACT: note_on channel=13 note=33 velocity=95 time=0
EXTRACT: note_off channel=9 note=60 velocity=95 time=0
EXTRACT: note_on channel=9 note=60 velocity=95 time=0
EXTRACT: note_off channel=9 note=51 velocity=95 time=0
EXTRACT: note_on channel=9 note=38 velocity=95 time=0
EXTRACT: note_on channel=9 note=35 velocity=95 time=0
EXTRACT: note_off channel=8 note=69 velocity=95 time=0.12
EXTRACT: note_on channel=8 note=69 velocity=95 time=0
EXTRACT: note_off channel=2 note=69 velocity=95 time=0.12
EXTRACT: note_off channel=2 note=67 velocity=95 time=0
EXTRACT: note_off channel=2 note=62 velocity=95 time=0
EXTRACT: note_off channel=2 note=59 velocity=95 time=0
EXTRACT: note_off channel=8 note=69 velocity=95 time=0
EXTRACT: note_on channel=8 note=66 velocity=95 time=0
EXTRACT: note_off channel=11 note=69 velocity=95 time=0
EXTRACT: note_on channel=11 note=69 velocity=95 time=0
EXTRACT: note_off channel=10 note=81 velocity=95 time=0
EXTRACT: note_off channel=10 note=76 velocity=95 time=0
EXTRACT: note_on channel=10 note=81 velocity=95 time=0
EXTRACT: note_on channel=10 note=76 velocity=95 time=0
EXTRACT: note_off channel=13 note=33 velocity=95 time=0
EXTRACT: note_off channel=9 note=60 velocity=95 time=0
EXTRACT: note_on channel=9 note=60 velocity=95 time=0
EXTRACT: note_off channel=8 note=66 velocity=95 time=0.12
EXTRACT: note_on channel=8 note=64 velocity=95 time=0
EXTRACT: note_off channel=9 note=38 velocity=95 time=0
EXTRACT: note_off channel=9 note=35 velocity=95 time=0
EXTRACT: note_on channel=9 note=38 velocity=95 time=0
EXTRACT: note_off channel=0 note=69 velocity=70 time=0.12
EXTRACT: note_off channel=15 note=76 velocity=95 time=0
EXTRACT: note_on channel=2 note=69 velocity=95 time=0
EXTRACT: note_on channel=2 note=67 velocity=95 time=0
EXTRACT: note_on channel=2 note=62 velocity=95 time=0
EXTRACT: note_on channel=2 note=59 velocity=95 time=0
EXTRACT: note_off channel=4 note=69 velocity=95 time=0
EXTRACT: note_off channel=4 note=64 velocity=95 time=0
EXTRACT: note_on channel=4 note=69 velocity=95 time=0
EXTRACT: note_on channel=4 note=64 velocity=95 time=0
EXTRACT: note_off channel=8 note=64 velocity=95 time=0
EXTRACT: note_on channel=8 note=69 velocity=95 time=0
EXTRACT: note_off channel=11 note=69 velocity=95 time=0
EXTRACT: note_on channel=11 note=69 velocity=95 time=0
EXTRACT: note_off channel=10 note=81 velocity=95 time=0
EXTRACT: note_off channel=10 note=76 velocity=95 time=0
EXTRACT: note_on channel=10 note=81 velocity=95 time=0
EXTRACT: note_on channel=10 note=76 velocity=95 time=0
EXTRACT: note_on channel=13 note=34 velocity=95 time=0
EXTRACT: note_off channel=9 note=60 velocity=95 time=0
EXTRACT: note_on channel=9 note=60 velocity=95 time=0
EXTRACT: note_off channel=9 note=38 velocity=95 time=0
EXTRACT: note_on channel=9 note=38 velocity=95 time=0
EXTRACT: note_off channel=8 note=69 velocity=95 time=0.12
EXTRACT: note_on channel=8 note=69 velocity=95 time=0
EXTRACT: note_off channel=2 note=69 velocity=95 time=0.12
EXTRACT: note_off channel=2 note=67 velocity=95 time=0
EXTRACT: note_off channel=2 note=62 velocity=95 time=0
EXTRACT: note_off channel=2 note=59 velocity=95 time=0
EXTRACT: note_off channel=8 note=69 velocity=95 time=0
EXTRACT: note_on channel=8 note=66 velocity=95 time=0
EXTRACT: note_off channel=11 note=69 velocity=95 time=0
EXTRACT: note_off channel=10 note=81 velocity=95 time=0
EXTRACT: note_off channel=10 note=76 velocity=95 time=0
EXTRACT: note_off channel=13 note=34 velocity=95 time=0
EXTRACT: note_off channel=9 note=60 velocity=95 time=0
EXTRACT: note_on channel=9 note=61 velocity=95 time=0
EXTRACT: note_off channel=9 note=38 velocity=95 time=0
EXTRACT: note_on channel=9 note=47 velocity=95 time=0
EXTRACT: note_off channel=8 note=66 velocity=95 time=0.12
EXTRACT: note_on channel=8 note=64 velocity=95 time=0
EXTRACT: note_on channel=15 note=73 velocity=95 time=0.12
EXTRACT: note_on channel=2 note=69 velocity=95 time=0
EXTRACT: note_on channel=2 note=66 velocity=95 time=0
EXTRACT: note_on channel=2 note=62 velocity=95 time=0
EXTRACT: note_off channel=4 note=69 velocity=95 time=0
EXTRACT: note_off channel=4 note=64 velocity=95 time=0
EXTRACT: note_off channel=8 note=64 velocity=95 time=0
EXTRACT: note_on channel=8 note=69 velocity=95 time=0
EXTRACT: note_on channel=11 note=73 velocity=95 time=0
EXTRACT: note_on channel=10 note=85 velocity=95 time=0
EXTRACT: note_on channel=13 note=35 velocity=95 time=0
EXTRACT: note_off channel=9 note=61 velocity=95 time=0
EXTRACT: note_on channel=9 note=60 velocity=95 time=0
EXTRACT: note_off channel=9 note=47 velocity=95 time=0
EXTRACT: note_on channel=9 note=57 velocity=95 time=0
EXTRACT: note_on channel=9 note=35 velocity=95 time=0
EXTRACT: note_on channel=4 note=61 velocity=95 time=0.24
EXTRACT: note_off channel=11 note=73 velocity=95 time=0
EXTRACT: note_on channel=11 note=73 velocity=95 time=0
EXTRACT: note_off channel=10 note=85 velocity=95 time=0
EXTRACT: note_on channel=10 note=85 velocity=95 time=0
EXTRACT: note_off channel=13 note=35 velocity=95 time=0
EXTRACT: note_on channel=13 note=35 velocity=95 time=0
EXTRACT: note_off channel=9 note=60 velocity=95 time=0
EXTRACT: note_on channel=9 note=60 velocity=95 time=0
EXTRACT: note_off channel=9 note=57 velocity=95 time=0
EXTRACT: note_off channel=9 note=35 velocity=95 time=0
EXTRACT: note_on channel=9 note=51 velocity=95 time=0
EXTRACT: note_off channel=15 note=73 velocity=95 time=0.24
EXTRACT: note_on channel=15 note=74 velocity=95 time=0
EXTRACT: note_off channel=4 note=61 velocity=95 time=0
EXTRACT: note_off channel=13 note=35 velocity=95 time=0
EXTRACT: note_on channel=13 note=42 velocity=95 time=0
EXTRACT: note_off channel=9 note=60 velocity=95 time=0
EXTRACT: note_on channel=9 note=61 velocity=95 time=0
EXTRACT: note_off channel=9 note=51 velocity=95 time=0
EXTRACT: note_on channel=9 note=51 velocity=95 time=0
EXTRACT: note_on channel=9 note=38 velocity=95 time=0
EXTRACT: note_on channel=9 note=35 velocity=95 time=0
EXTRACT: note_off channel=15 note=74 velocity=95 time=0.24
EXTRACT: note_on channel=15 note=73 velocity=95 time=0
EXTRACT: note_off channel=2 note=69 velocity=95 time=0
EXTRACT: note_off channel=2 note=66 velocity=95 time=0
EXTRACT: note_off channel=2 note=62 velocity=95 time=0
EXTRACT: note_on channel=2 note=68 velocity=95 time=0
EXTRACT: note_on channel=2 note=62 velocity=95 time=0
EXTRACT: note_on channel=2 note=59 velocity=95 time=0
EXTRACT: note_on channel=4 note=59 velocity=95 time=0
EXTRACT: note_off channel=8 note=69 velocity=95 time=0
EXTRACT: note_on channel=8 note=68 velocity=95 time=0
EXTRACT: note_off channel=11 note=73 velocity=95 time=0
EXTRACT: note_on channel=11 note=71 velocity=95 time=0
EXTRACT: note_off channel=10 note=85 velocity=95 time=0
EXTRACT: note_on channel=10 note=83 velocity=95 time=0
EXTRACT: note_off channel=13 note=42 velocity=95 time=0
EXTRACT: note_on channel=13 note=40 velocity=95 time=0
EXTRACT: note_off channel=9 note=61 velocity=95 time=0
EXTRACT: note_on channel=9 note=60 velocity=95 time=0
EXTRACT: note_off channel=9 note=51 velocity=95 time=0
EXTRACT: note_off channel=9 note=38 velocity=95 time=0
EXTRACT: note_off channel=9 note=35 velocity=95 time=0
EXTRACT: note_on channel=9 note=51 velocity=95 time=0
EXTRACT: note_off channel=4 note=59 velocity=95 time=0.24
EXTRACT: note_off channel=11 note=71 velocity=95 time=0
EXTRACT: note_on channel=11 note=71 velocity=95 time=0
EXTRACT: note_off channel=10 note=83 velocity=95 time=0
EXTRACT: note_on channel=10 note=83 velocity=95 time=0
EXTRACT: note_off channel=13 note=40 velocity=95 time=0
EXTRACT: note_off channel=9 note=60 velocity=95 time=0
EXTRACT: note_on channel=9 note=60 velocity=95 time=0
EXTRACT: note_off channel=9 note=51 velocity=95 time=0
EXTRACT: note_on channel=9 note=51 velocity=95 time=0
EXTRACT: note_on channel=9 note=35 velocity=95 time=0
EXTRACT: note_on channel=4 note=57 velocity=95 time=0.24
EXTRACT: note_on channel=13 note=33 velocity=95 time=0
EXTRACT: note_off channel=9 note=60 velocity=95 time=0
EXTRACT: note_on channel=9 note=60 velocity=95 time=0
EXTRACT: note_off channel=9 note=51 velocity=95 time=0
EXTRACT: note_off channel=9 note=35 velocity=95 time=0
EXTRACT: note_on channel=9 note=51 velocity=95 time=0
EXTRACT: note_off channel=15 note=73 velocity=95 time=0.24
EXTRACT: note_on channel=15 note=71 velocity=95 time=0
EXTRACT: note_off channel=4 note=57 velocity=95 time=0
EXTRACT: note_off channel=11 note=71 velocity=95 time=0
EXTRACT: note_on channel=11 note=71 velocity=95 time=0
EXTRACT: note_off channel=10 note=83 velocity=95 time=0
EXTRACT: note_on channel=10 note=83 velocity=95 time=0
EXTRACT: note_off channel=13 note=33 velocity=95 time=0
EXTRACT: note_on channel=13 note=35 velocity=95 time=0
EXTRACT: note_off channel=9 note=60 velocity=95 time=0
EXTRACT: note_on channel=9 note=60 velocity=95 time=0
EXTRACT: note_off channel=9 note=51 velocity=95 time=0
EXTRACT: note_on channel=9 note=51 velocity=95 time=0
EXTRACT: note_on channel=9 note=38 velocity=95 time=0
EXTRACT: note_on channel=9 note=35 velocity=95 time=0
EXTRACT: note_off channel=15 note=71 velocity=95 time=0.24
EXTRACT: note_on channel=15 note=69 velocity=95 time=0
EXTRACT: note_on channel=4 note=45 velocity=95 time=0
EXTRACT: note_off channel=11 note=71 velocity=95 time=0
EXTRACT: note_on channel=11 note=71 velocity=95 time=0
EXTRACT: note_off channel=10 note=83 velocity=95 time=0
EXTRACT: note_on channel=10 note=83 velocity=95 time=0
EXTRACT: note_off channel=13 note=35 velocity=95 time=0
EXTRACT: note_on channel=13 note=36 velocity=95 time=0
EXTRACT: note_off channel=9 note=60 velocity=95 time=0
EXTRACT: note_on channel=9 note=61 velocity=95 time=0
EXTRACT: note_off channel=9 note=51 velocity=95 time=0
EXTRACT: note_off channel=9 note=38 velocity=95 time=0
EXTRACT: note_off channel=9 note=35 velocity=95 time=0
EXTRACT: note_on channel=9 note=51 velocity=95 time=0
EXTRACT: note_off channel=4 note=45 velocity=95 time=0.031
EXTRACT: note_off channel=2 note=68 velocity=95 time=0.209
EXTRACT: note_off channel=2 note=62 velocity=95 time=0
EXTRACT: note_off channel=2 note=59 velocity=95 time=0
EXTRACT: note_on channel=2 note=71 velocity=95 time=0
EXTRACT: note_on channel=2 note=68 velocity=95 time=0
EXTRACT: note_on channel=2 note=64 velocity=95 time=0
EXTRACT: note_on channel=5 note=59 velocity=95 time=0
EXTRACT: note_off channel=8 note=68 velocity=95 time=0
EXTRACT: note_on channel=8 note=71 velocity=95 time=0
EXTRACT: note_off channel=13 note=36 velocity=95 time=0
EXTRACT: note_on channel=13 note=37 velocity=95 time=0
EXTRACT: note_off channel=9 note=61 velocity=95 time=0
EXTRACT: note_on channel=9 note=60 velocity=95 time=0
EXTRACT: note_off channel=9 note=51 velocity=95 time=0
EXTRACT: note_on channel=9 note=51 velocity=95 time=0
EXTRACT: note_on channel=9 note=35 velocity=95 time=0
EXTRACT: pitchwheel channel=5 pitch=0 time=0.06
EXTRACT: pitchwheel channel=5 pitch=0 time=0.06
EXTRACT: pitchwheel channel=5 pitch=0 time=0.06
EXTRACT: pitchwheel channel=5 pitch=0 time=0.06
EXTRACT: pitchwheel channel=5 pitch=0 time=0
EXTRACT: note_off channel=5 note=59 velocity=95 time=0
EXTRACT: note_on channel=4 note=59 velocity=95 time=0
EXTRACT: note_off channel=11 note=71 velocity=95 time=0
EXTRACT: note_on channel=11 note=71 velocity=95 time=0
EXTRACT: note_off channel=10 note=83 velocity=95 time=0
EXTRACT: note_on channel=10 note=83 velocity=95 time=0
EXTRACT: note_off channel=13 note=37 velocity=95 time=0
EXTRACT: note_on channel=13 note=32 velocity=95 time=0
EXTRACT: note_off channel=9 note=60 velocity=95 time=0
EXTRACT: note_on channel=9 note=60 velocity=95 time=0
EXTRACT: note_off channel=9 note=51 velocity=95 time=0
EXTRACT: note_off channel=9 note=35 velocity=95 time=0
EXTRACT: note_on channel=9 note=51 velocity=95 time=0
EXTRACT: note_off channel=15 note=69 velocity=95 time=0.24
EXTRACT: note_on channel=15 note=71 velocity=95 time=0
EXTRACT: note_off channel=4 note=59 velocity=95 time=0
EXTRACT: note_on channel=4 note=59 velocity=95 time=0
EXTRACT: note_off channel=11 note=71 velocity=95 time=0
EXTRACT: note_on channel=11 note=71 velocity=95 time=0
EXTRACT: note_off channel=10 note=83 velocity=95 time=0
EXTRACT: note_on channel=10 note=83 velocity=95 time=0
EXTRACT: note_off channel=13 note=32 velocity=95 time=0
EXTRACT: note_on channel=13 note=28 velocity=95 time=0
EXTRACT: note_off channel=9 note=60 velocity=95 time=0
EXTRACT: note_on channel=9 note=61 velocity=95 time=0
EXTRACT: note_off channel=9 note=51 velocity=95 time=0
EXTRACT: note_on channel=9 note=51 velocity=95 time=0
EXTRACT: note_on channel=9 note=38 velocity=95 time=0
EXTRACT: note_on channel=9 note=35 velocity=95 time=0
EXTRACT: note_off channel=15 note=71 velocity=95 time=0.24
EXTRACT: note_on channel=15 note=66 velocity=95 time=0
EXTRACT: note_off channel=2 note=71 velocity=95 time=0
EXTRACT: note_off channel=2 note=68 velocity=95 time=0
EXTRACT: note_off channel=2 note=64 velocity=95 time=0
EXTRACT: note_on channel=2 note=69 velocity=95 time=0
EXTRACT: note_on channel=2 note=64 velocity=95 time=0
EXTRACT: note_on channel=2 note=61 velocity=95 time=0
EXTRACT: note_off channel=4 note=59 velocity=95 time=0
EXTRACT: note_on channel=4 note=56 velocity=95 time=0
EXTRACT: note_off channel=8 note=71 velocity=95 time=0
EXTRACT: note_on channel=8 note=69 velocity=95 time=0
EXTRACT: note_off channel=13 note=28 velocity=95 time=0
EXTRACT: note_on channel=13 note=28 velocity=95 time=0
EXTRACT: note_off channel=9 note=61 velocity=95 time=0
EXTRACT: note_on channel=9 note=60 velocity=95 time=0
EXTRACT: note_off channel=9 note=51 velocity=95 time=0
EXTRACT: note_off channel=9 note=38 velocity=95 time=0
EXTRACT: note_off channel=9 note=35 velocity=95 time=0
EXTRACT: note_on channel=9 note=51 velocity=95 time=0
EXTRACT: note_off channel=11 note=71 velocity=95 time=0.24
EXTRACT: note_on channel=11 note=69 velocity=95 time=0
EXTRACT: note_off channel=10 note=83 velocity=95 time=0
EXTRACT: note_on channel=10 note=81 velocity=95 time=0
EXTRACT: note_off channel=13 note=28 velocity=95 time=0
EXTRACT: note_on channel=13 note=30 velocity=95 time=0
EXTRACT: note_off channel=9 note=60 velocity=95 time=0
EXTRACT: note_on channel=9 note=60 velocity=95 time=0
EXTRACT: note_off channel=9 note=51 velocity=95 time=0
EXTRACT: note_on channel=9 note=51 velocity=95 time=0
EXTRACT: note_on channel=9 note=35 velocity=95 time=0
EXTRACT: note_off channel=4 note=56 velocity=95 time=0.24
EXTRACT: note_on channel=4 note=57 velocity=95 time=0
EXTRACT: note_off channel=11 note=69 velocity=95 time=0
EXTRACT: note_on channel=11 note=69 velocity=95 time=0
EXTRACT: note_off channel=10 note=81 velocity=95 time=0
EXTRACT: note_on channel=10 note=81 velocity=95 time=0
EXTRACT: note_off channel=13 note=30 velocity=95 time=0
EXTRACT: note_on channel=13 note=32 velocity=95 time=0
EXTRACT: note_off channel=9 note=60 velocity=95 time=0
EXTRACT: note_on channel=9 note=60 velocity=95 time=0
EXTRACT: note_off channel=9 note=51 velocity=95 time=0
EXTRACT: note_off channel=9 note=35 velocity=95 time=0
EXTRACT: note_on channel=9 note=51 velocity=95 time=0
EXTRACT: note_off channel=15 note=66 velocity=95 time=0.24
EXTRACT: note_off channel=4 note=57 velocity=95 time=0
EXTRACT: note_off channel=11 note=69 velocity=95 time=0
EXTRACT: note_on channel=11 note=69 velocity=95 time=0
EXTRACT: note_off channel=10 note=81 velocity=95 time=0
EXTRACT: note_on channel=10 note=81 velocity=95 time=0
EXTRACT: note_off channel=13 note=32 velocity=95 time=0
EXTRACT: note_on channel=13 note=33 velocity=95 time=0
EXTRACT: note_off channel=9 note=60 velocity=95 time=0
EXTRACT: note_on channel=9 note=60 velocity=95 time=0
EXTRACT: note_off channel=9 note=51 velocity=95 time=0
EXTRACT: note_on channel=9 note=51 velocity=95 time=0
EXTRACT: note_on channel=9 note=38 velocity=95 time=0
EXTRACT: note_on channel=9 note=35 velocity=95 time=0
EXTRACT: note_off channel=11 note=69 velocity=95 time=0.24
EXTRACT: note_off channel=10 note=81 velocity=95 time=0
EXTRACT: note_off channel=13 note=33 velocity=95 time=0
EXTRACT: note_on channel=13 note=37 velocity=95 time=0
EXTRACT: note_off channel=9 note=60 velocity=95 time=0
EXTRACT: note_on channel=9 note=61 velocity=95 time=0
EXTRACT: note_off channel=9 note=51 velocity=95 time=0
EXTRACT: note_off channel=9 note=38 velocity=95 time=0
EXTRACT: note_off channel=9 note=35 velocity=95 time=0
EXTRACT: note_on channel=9 note=51 velocity=95 time=0
EXTRACT: note_on channel=15 note=73 velocity=95 time=0.24
EXTRACT: note_off channel=2 note=69 velocity=95 time=0
EXTRACT: note_off channel=2 note=64 velocity=95 time=0
EXTRACT: note_off channel=2 note=61 velocity=95 time=0
EXTRACT: note_on channel=2 note=69 velocity=95 time=0
EXTRACT: note_on channel=2 note=66 velocity=95 time=0
EXTRACT: note_on channel=2 note=62 velocity=95 time=0
EXTRACT: note_off channel=8 note=69 velocity=95 time=0
EXTRACT: note_on channel=8 note=69 velocity=95 time=0
EXTRACT: note_on channel=11 note=73 velocity=95 time=0
EXTRACT: note_on channel=10 note=85 velocity=95 time=0
EXTRACT: note_off channel=13 note=37 velocity=95 time=0
EXTRACT: note_on channel=13 note=35 velocity=95 time=0
EXTRACT: note_off channel=9 note=61 velocity=95 time=0
EXTRACT: note_on channel=9 note=60 velocity=95 time=0
EXTRACT: note_off channel=9 note=51 velocity=95 time=0
EXTRACT: note_on channel=9 note=51 velocity=95 time=0
EXTRACT: note_on channel=9 note=35 velocity=95 time=0
EXTRACT: note_on channel=4 note=61 velocity=95 time=0.24
EXTRACT: note_off channel=11 note=73 velocity=95 time=0
EXTRACT: note_on channel=11 note=73 velocity=95 time=0
EXTRACT: note_off channel=10 note=85 velocity=95 time=0
EXTRACT: note_on channel=10 note=85 velocity=95 time=0
EXTRACT: note_off channel=13 note=35 velocity=95 time=0
EXTRACT: note_on channel=13 note=35 velocity=95 time=0
EXTRACT: note_off channel=9 note=60 velocity=95 time=0
EXTRACT: note_on channel=9 note=60 velocity=95 time=0
EXTRACT: note_off channel=9 note=51 velocity=95 time=0
EXTRACT: note_off channel=9 note=35 velocity=95 time=0
EXTRACT: note_on channel=9 note=51 velocity=95 time=0
EXTRACT: note_off channel=15 note=73 velocity=95 time=0.24
EXTRACT: note_on channel=15 note=74 velocity=95 time=0
EXTRACT: note_off channel=4 note=61 velocity=95 time=0
EXTRACT: note_off channel=13 note=35 velocity=95 time=0
EXTRACT: note_on channel=13 note=42 velocity=95 time=0
EXTRACT: note_off channel=9 note=60 velocity=95 time=0
EXTRACT: note_on channel=9 note=61 velocity=95 time=0
EXTRACT: note_off channel=9 note=51 velocity=95 time=0
EXTRACT: note_on channel=9 note=51 velocity=95 time=0
EXTRACT: note_on channel=9 note=38 velocity=95 time=0
EXTRACT: note_on channel=9 note=35 velocity=95 time=0
EXTRACT: note_off channel=15 note=74 velocity=95 time=0.24
EXTRACT: note_on channel=15 note=73 velocity=95 time=0
EXTRACT: note_off channel=2 note=69 velocity=95 time=0
EXTRACT: note_off channel=2 note=66 velocity=95 time=0
EXTRACT: note_off channel=2 note=62 velocity=95 time=0
EXTRACT: note_on channel=2 note=68 velocity=95 time=0
EXTRACT: note_on channel=2 note=62 velocity=95 time=0
EXTRACT: note_on channel=2 note=59 velocity=95 time=0
EXTRACT: note_on channel=4 note=59 velocity=95 time=0
EXTRACT: note_off channel=8 note=69 velocity=95 time=0
EXTRACT: note_on channel=8 note=68 velocity=95 time=0
EXTRACT: note_off channel=11 note=73 velocity=95 time=0
EXTRACT: note_on channel=11 note=71 velocity=95 time=0
EXTRACT: note_off channel=10 note=85 velocity=95 time=0
EXTRACT: note_on channel=10 note=83 velocity=95 time=0
EXTRACT: note_off channel=13 note=42 velocity=95 time=0
EXTRACT: note_on channel=13 note=40 velocity=95 time=0
EXTRACT: note_off channel=9 note=61 velocity=95 time=0
EXTRACT: note_on channel=9 note=60 velocity=95 time=0
EXTRACT: note_off channel=9 note=51 velocity=95 time=0
EXTRACT: note_off channel=9 note=38 velocity=95 time=0
EXTRACT: note_off channel=9 note=35 velocity=95 time=0
EXTRACT: note_on channel=9 note=51 velocity=95 time=0
EXTRACT: note_off channel=4 note=59 velocity=95 time=0.24
EXTRACT: note_off channel=11 note=71 velocity=95 time=0
EXTRACT: note_on channel=11 note=71 velocity=95 time=0
EXTRACT: note_off channel=10 note=83 velocity=95 time=0
EXTRACT: note_on channel=10 note=83 velocity=95 time=0
EXTRACT: note_off channel=13 note=40 velocity=95 time=0
EXTRACT: note_off channel=9 note=60 velocity=95 time=0
EXTRACT: note_on channel=9 note=60 velocity=95 time=0
EXTRACT: note_off channel=9 note=51 velocity=95 time=0
EXTRACT: note_on channel=9 note=51 velocity=95 time=0
EXTRACT: note_on channel=9 note=35 velocity=95 time=0
EXTRACT: note_on channel=4 note=57 velocity=95 time=0.24
EXTRACT: note_on channel=13 note=33 velocity=95 time=0
EXTRACT: note_off channel=9 note=60 velocity=95 time=0
EXTRACT: note_on channel=9 note=60 velocity=95 time=0
EXTRACT: note_off channel=9 note=51 velocity=95 time=0
EXTRACT: note_off channel=9 note=35 velocity=95 time=0
EXTRACT: note_on channel=9 note=51 velocity=95 time=0
EXTRACT: note_off channel=15 note=73 velocity=95 time=0.24
EXTRACT: note_on channel=15 note=71 velocity=95 time=0
EXTRACT: note_off channel=4 note=57 velocity=95 time=0
EXTRACT: note_off channel=11 note=71 velocity=95 time=0
EXTRACT: note_on channel=11 note=71 velocity=95 time=0
EXTRACT: note_off channel=10 note=83 velocity=95 time=0
EXTRACT: note_on channel=10 note=83 velocity=95 time=0
EXTRACT: note_off channel=13 note=33 velocity=95 time=0
EXTRACT: note_on channel=13 note=35 velocity=95 time=0
EXTRACT: note_off channel=9 note=60 velocity=95 time=0
EXTRACT: note_on channel=9 note=60 velocity=95 time=0
EXTRACT: note_off channel=9 note=51 velocity=95 time=0
EXTRACT: note_on channel=9 note=51 velocity=95 time=0
EXTRACT: note_on channel=9 note=38 velocity=95 time=0
EXTRACT: note_on channel=9 note=35 velocity=95 time=0
EXTRACT: note_off channel=15 note=71 velocity=95 time=0.24
EXTRACT: note_on channel=15 note=69 velocity=95 time=0
EXTRACT: note_off channel=11 note=71 velocity=95 time=0
EXTRACT: note_on channel=11 note=71 velocity=95 time=0
EXTRACT: note_off channel=10 note=83 velocity=95 time=0
EXTRACT: note_on channel=10 note=83 velocity=95 time=0
EXTRACT: note_off channel=13 note=35 velocity=95 time=0
EXTRACT: note_on channel=13 note=36 velocity=95 time=0
EXTRACT: note_off channel=9 note=60 velocity=95 time=0
EXTRACT: note_on channel=9 note=61 velocity=95 time=0
EXTRACT: note_off channel=9 note=51 velocity=95 time=0
EXTRACT: note_off channel=9 note=38 velocity=95 time=0
EXTRACT: note_off channel=9 note=35 velocity=95 time=0
EXTRACT: note_on channel=9 note=51 velocity=95 time=0
EXTRACT: note_off channel=2 note=68 velocity=95 time=0.24
EXTRACT: note_off channel=2 note=62 velocity=95 time=0
EXTRACT: note_off channel=2 note=59 velocity=95 time=0
EXTRACT: note_on channel=2 note=71 velocity=95 time=0
EXTRACT: note_on channel=2 note=68 velocity=95 time=0
EXTRACT: note_on channel=2 note=64 velocity=95 time=0
EXTRACT: note_on channel=4 note=59 velocity=95 time=0
EXTRACT: note_off channel=8 note=68 velocity=95 time=0
EXTRACT: note_on channel=8 note=71 velocity=95 time=0
EXTRACT: note_off channel=13 note=36 velocity=95 time=0
EXTRACT: note_on channel=13 note=37 velocity=95 time=0
EXTRACT: note_off channel=9 note=61 velocity=95 time=0
EXTRACT: note_on channel=9 note=60 velocity=95 time=0
EXTRACT: note_off channel=9 note=51 velocity=95 time=0
EXTRACT: note_on channel=9 note=51 velocity=95 time=0
EXTRACT: note_on channel=9 note=35 velocity=95 time=0
EXTRACT: note_off channel=4 note=59 velocity=95 time=0.24
EXTRACT: note_on channel=4 note=59 velocity=95 time=0
EXTRACT: note_off channel=11 note=71 velocity=95 time=0
EXTRACT: note_on channel=11 note=71 velocity=95 time=0
EXTRACT: note_off channel=10 note=83 velocity=95 time=0
EXTRACT: note_on channel=10 note=83 velocity=95 time=0
EXTRACT: note_off channel=13 note=37 velocity=95 time=0
EXTRACT: note_on channel=13 note=40 velocity=95 time=0
EXTRACT: note_off channel=9 note=60 velocity=95 time=0
EXTRACT: note_on channel=9 note=60 velocity=95 time=0
EXTRACT: note_off channel=9 note=51 velocity=95 time=0
EXTRACT: note_off channel=9 note=35 velocity=95 time=0
EXTRACT: note_on channel=9 note=51 velocity=95 time=0
EXTRACT: note_off channel=15 note=69 velocity=95 time=0.24
EXTRACT: note_on channel=15 note=71 velocity=95 time=0
EXTRACT: note_off channel=4 note=59 velocity=95 time=0
EXTRACT: note_on channel=4 note=59 velocity=95 time=0
EXTRACT: note_off channel=11 note=71 velocity=95 time=0
EXTRACT: note_on channel=11 note=71 velocity=95 time=0
EXTRACT: note_off channel=10 note=83 velocity=95 time=0
EXTRACT: note_on channel=10 note=83 velocity=95 time=0
EXTRACT: note_off channel=13 note=40 velocity=95 time=0
EXTRACT: note_on channel=13 note=41 velocity=95 time=0
EXTRACT: note_off channel=9 note=60 velocity=95 time=0
EXTRACT: note_on channel=9 note=61 velocity=95 time=0
EXTRACT: note_off channel=9 note=51 velocity=95 time=0
EXTRACT: note_on channel=9 note=51 velocity=95 time=0
EXTRACT: note_on channel=9 note=38 velocity=95 time=0
EXTRACT: note_on channel=9 note=35 velocity=95 time=0
EXTRACT: note_off channel=15 note=71 velocity=95 time=0.24
EXTRACT: note_on channel=15 note=66 velocity=95 time=0
EXTRACT: note_off channel=2 note=71 velocity=95 time=0
EXTRACT: note_off channel=2 note=68 velocity=95 time=0
EXTRACT: note_off channel=2 note=64 velocity=95 time=0
EXTRACT: note_on channel=2 note=69 velocity=95 time=0
EXTRACT: note_on channel=2 note=64 velocity=95 time=0
EXTRACT: note_on channel=2 note=61 velocity=95 time=0
EXTRACT: note_off channel=4 note=59 velocity=95 time=0
EXTRACT: note_on channel=4 note=56 velocity=95 time=0
EXTRACT: note_off channel=8 note=71 velocity=95 time=0
EXTRACT: note_on channel=8 note=69 velocity=95 time=0
EXTRACT: note_off channel=13 note=41 velocity=95 time=0
EXTRACT: note_on channel=13 note=42 velocity=95 time=0
EXTRACT: note_off channel=9 note=61 velocity=95 time=0
EXTRACT: note_on channel=9 note=60 velocity=95 time=0
EXTRACT: note_off channel=9 note=51 velocity=95 time=0
EXTRACT: note_off channel=9 note=38 velocity=95 time=0
EXTRACT: note_off channel=9 note=35 velocity=95 time=0
EXTRACT: note_on channel=9 note=51 velocity=95 time=0
EXTRACT: note_off channel=11 note=71 velocity=95 time=0.24
EXTRACT: note_on channel=11 note=69 velocity=95 time=0
EXTRACT: note_off channel=10 note=83 velocity=95 time=0
EXTRACT: note_on channel=10 note=81 velocity=95 time=0
EXTRACT: note_off channel=13 note=42 velocity=95 time=0
EXTRACT: note_off channel=9 note=60 velocity=95 time=0
EXTRACT: note_on channel=9 note=60 velocity=95 time=0
EXTRACT: note_off channel=9 note=51 velocity=95 time=0
EXTRACT: note_on channel=9 note=51 velocity=95 time=0
EXTRACT: note_on channel=9 note=35 velocity=95 time=0
EXTRACT: note_off channel=4 note=56 velocity=95 time=0.24
EXTRACT: note_on channel=4 note=57 velocity=95 time=0
EXTRACT: note_off channel=11 note=69 velocity=95 time=0
EXTRACT: note_on channel=11 note=69 velocity=95 time=0
EXTRACT: note_off channel=10 note=81 velocity=95 time=0
EXTRACT: note_on channel=10 note=81 velocity=95 time=0
EXTRACT: note_on channel=13 note=42 velocity=95 time=0
EXTRACT: note_off channel=9 note=60 velocity=95 time=0
EXTRACT: note_on channel=9 note=60 velocity=95 time=0
EXTRACT: note_off channel=9 note=51 velocity=95 time=0
EXTRACT: note_off channel=9 note=35 velocity=95 time=0
EXTRACT: note_on channel=9 note=51 velocity=95 time=0
EXTRACT: note_off channel=15 note=66 velocity=95 time=0.24
EXTRACT: note_off channel=4 note=57 velocity=95 time=0
EXTRACT: note_off channel=11 note=69 velocity=95 time=0
EXTRACT: note_on channel=11 note=69 velocity=95 time=0
EXTRACT: note_off channel=10 note=81 velocity=95 time=0
EXTRACT: note_on channel=10 note=81 velocity=95 time=0
EXTRACT: note_off channel=13 note=42 velocity=95 time=0
EXTRACT: note_on channel=13 note=37 velocity=95 time=0
EXTRACT: note_off channel=9 note=60 velocity=95 time=0
EXTRACT: note_on channel=9 note=60 velocity=95 time=0
EXTRACT: note_off channel=9 note=51 velocity=95 time=0
EXTRACT: note_on channel=9 note=51 velocity=95 time=0
EXTRACT: note_on channel=9 note=38 velocity=95 time=0
EXTRACT: note_on channel=9 note=35 velocity=95 time=0
EXTRACT: note_off channel=11 note=69 velocity=95 time=0.24
EXTRACT: note_off channel=10 note=81 velocity=95 time=0
EXTRACT: note_off channel=13 note=37 velocity=95 time=0
EXTRACT: note_on channel=13 note=33 velocity=95 time=0
EXTRACT: note_off channel=9 note=60 velocity=95 time=0
EXTRACT: note_on channel=9 note=61 velocity=95 time=0
EXTRACT: note_off channel=9 note=51 velocity=95 time=0
EXTRACT: note_off channel=9 note=38 velocity=95 time=0
EXTRACT: note_off channel=9 note=35 velocity=95 time=0
EXTRACT: note_on channel=9 note=51 velocity=95 time=0
EXTRACT: note_on channel=15 note=73 velocity=95 time=0.24
EXTRACT: note_off channel=2 note=69 velocity=95 time=0
EXTRACT: note_off channel=2 note=64 velocity=95 time=0
EXTRACT: note_off channel=2 note=61 velocity=95 time=0
EXTRACT: note_on channel=2 note=69 velocity=95 time=0
EXTRACT: note_on channel=2 note=66 velocity=95 time=0
EXTRACT: note_on channel=2 note=62 velocity=95 time=0
EXTRACT: note_off channel=8 note=69 velocity=95 time=0
EXTRACT: note_on channel=8 note=69 velocity=95 time=0
EXTRACT: note_on channel=11 note=73 velocity=95 time=0
EXTRACT: note_on channel=10 note=85 velocity=95 time=0
EXTRACT: note_off channel=13 note=33 velocity=95 time=0
EXTRACT: note_on channel=13 note=35 velocity=95 time=0
EXTRACT: note_off channel=9 note=61 velocity=95 time=0
EXTRACT: note_on channel=9 note=60 velocity=95 time=0
EXTRACT: note_off channel=9 note=51 velocity=95 time=0
EXTRACT: note_on channel=9 note=51 velocity=95 time=0
EXTRACT: note_on channel=9 note=35 velocity=95 time=0
EXTRACT: note_on channel=4 note=61 velocity=95 time=0.24
EXTRACT: note_off channel=11 note=73 velocity=95 time=0
EXTRACT: note_on channel=11 note=73 velocity=95 time=0
EXTRACT: note_off channel=10 note=85 velocity=95 time=0
EXTRACT: note_on channel=10 note=85 velocity=95 time=0
EXTRACT: note_off channel=13 note=35 velocity=95 time=0
EXTRACT: note_on channel=13 note=35 velocity=95 time=0
EXTRACT: note_off channel=9 note=60 velocity=95 time=0
EXTRACT: note_on channel=9 note=60 velocity=95 time=0
EXTRACT: note_off channel=9 note=51 velocity=95 time=0
EXTRACT: note_off channel=9 note=35 velocity=95 time=0
EXTRACT: note_on channel=9 note=51 velocity=95 time=0
EXTRACT: note_off channel=15 note=73 velocity=95 time=0.24
EXTRACT: note_on channel=15 note=74 velocity=95 time=0
EXTRACT: note_off channel=4 note=61 velocity=95 time=0
EXTRACT: note_off channel=13 note=35 velocity=95 time=0
EXTRACT: note_on channel=13 note=42 velocity=95 time=0
EXTRACT: note_off channel=9 note=60 velocity=95 time=0
EXTRACT: note_on channel=9 note=61 velocity=95 time=0
EXTRACT: note_off channel=9 note=51 velocity=95 time=0
EXTRACT: note_on channel=9 note=51 velocity=95 time=0
EXTRACT: note_on channel=9 note=38 velocity=95 time=0
EXTRACT: note_on channel=9 note=35 velocity=95 time=0
EXTRACT: note_off channel=15 note=74 velocity=95 time=0.24
EXTRACT: note_on channel=15 note=73 velocity=95 time=0
EXTRACT: note_off channel=2 note=69 velocity=95 time=0
EXTRACT: note_off channel=2 note=66 velocity=95 time=0
EXTRACT: note_off channel=2 note=62 velocity=95 time=0
EXTRACT: note_on channel=2 note=68 velocity=95 time=0
EXTRACT: note_on channel=2 note=62 velocity=95 time=0
EXTRACT: note_on channel=2 note=59 velocity=95 time=0
EXTRACT: note_on channel=4 note=59 velocity=95 time=0
EXTRACT: note_off channel=8 note=69 velocity=95 time=0
EXTRACT: note_on channel=8 note=68 velocity=95 time=0
EXTRACT: note_off channel=11 note=73 velocity=95 time=0
EXTRACT: note_on channel=11 note=71 velocity=95 time=0
EXTRACT: note_off channel=10 note=85 velocity=95 time=0
EXTRACT: note_on channel=10 note=83 velocity=95 time=0
EXTRACT: note_off channel=13 note=42 velocity=95 time=0
EXTRACT: note_on channel=13 note=40 velocity=95 time=0
EXTRACT: note_off channel=9 note=61 velocity=95 time=0
EXTRACT: note_on channel=9 note=60 velocity=95 time=0
EXTRACT: note_off channel=9 note=51 velocity=95 time=0
EXTRACT: note_off channel=9 note=38 velocity=95 time=0
EXTRACT: note_off channel=9 note=35 velocity=95 time=0
EXTRACT: note_on channel=9 note=51 velocity=95 time=0
EXTRACT: note_off channel=4 note=59 velocity=95 time=0.24
EXTRACT: note_off channel=11 note=71 velocity=95 time=0
EXTRACT: note_on channel=11 note=71 velocity=95 time=0
EXTRACT: note_off channel=10 note=83 velocity=95 time=0
EXTRACT: note_on channel=10 note=83 velocity=95 time=0
EXTRACT: note_off channel=13 note=40 velocity=95 time=0
EXTRACT: note_off channel=9 note=60 velocity=95 time=0
EXTRACT: note_on channel=9 note=60 velocity=95 time=0
EXTRACT: note_off channel=9 note=51 velocity=95 time=0
EXTRACT: note_on channel=9 note=51 velocity=95 time=0
EXTRACT: note_on channel=9 note=35 velocity=95 time=0
EXTRACT: note_on channel=4 note=57 velocity=95 time=0.24
EXTRACT: note_on channel=13 note=33 velocity=95 time=0
EXTRACT: note_off channel=9 note=60 velocity=95 time=0
EXTRACT: note_on channel=9 note=60 velocity=95 time=0
EXTRACT: note_off channel=9 note=51 velocity=95 time=0
EXTRACT: note_off channel=9 note=35 velocity=95 time=0
EXTRACT: note_on channel=9 note=51 velocity=95 time=0
EXTRACT: note_off channel=15 note=73 velocity=95 time=0.24
EXTRACT: note_on channel=15 note=71 velocity=95 time=0
EXTRACT: note_off channel=4 note=57 velocity=95 time=0
EXTRACT: note_off channel=11 note=71 velocity=95 time=0
EXTRACT: note_on channel=11 note=71 velocity=95 time=0
EXTRACT: note_off channel=10 note=83 velocity=95 time=0
EXTRACT: note_on channel=10 note=83 velocity=95 time=0
EXTRACT: note_off channel=13 note=33 velocity=95 time=0
EXTRACT: note_on channel=13 note=35 velocity=95 time=0
EXTRACT: note_off channel=9 note=60 velocity=95 time=0
EXTRACT: note_on channel=9 note=60 velocity=95 time=0
EXTRACT: note_off channel=9 note=51 velocity=95 time=0
EXTRACT: note_on channel=9 note=51 velocity=95 time=0
EXTRACT: note_on channel=9 note=38 velocity=95 time=0
EXTRACT: note_on channel=9 note=35 velocity=95 time=0
EXTRACT: note_off channel=15 note=71 velocity=95 time=0.24
EXTRACT: note_on channel=15 note=69 velocity=95 time=0
EXTRACT: note_on channel=4 note=45 velocity=95 time=0
EXTRACT: note_off channel=11 note=71 velocity=95 time=0
EXTRACT: note_on channel=11 note=71 velocity=95 time=0
EXTRACT: note_off channel=10 note=83 velocity=95 time=0
EXTRACT: note_on channel=10 note=83 velocity=95 time=0
EXTRACT: note_off channel=13 note=35 velocity=95 time=0
EXTRACT: note_on channel=13 note=36 velocity=95 time=0
EXTRACT: note_off channel=9 note=60 velocity=95 time=0
EXTRACT: note_on channel=9 note=61 velocity=95 time=0
EXTRACT: note_off channel=9 note=51 velocity=95 time=0
EXTRACT: note_off channel=9 note=38 velocity=95 time=0
EXTRACT: note_off channel=9 note=35 velocity=95 time=0
EXTRACT: note_on channel=9 note=51 velocity=95 time=0
EXTRACT: note_off channel=4 note=45 velocity=95 time=0.031
EXTRACT: note_off channel=2 note=68 velocity=95 time=0.209
EXTRACT: note_off channel=2 note=62 velocity=95 time=0
EXTRACT: note_off channel=2 note=59 velocity=95 time=0
EXTRACT: note_on channel=2 note=71 velocity=95 time=0
EXTRACT: note_on channel=2 note=68 velocity=95 time=0
EXTRACT: note_on channel=2 note=64 velocity=95 time=0
EXTRACT: note_on channel=5 note=59 velocity=95 time=0
EXTRACT: note_off channel=8 note=68 velocity=95 time=0
EXTRACT: note_on channel=8 note=71 velocity=95 time=0
EXTRACT: note_off channel=13 note=36 velocity=95 time=0
EXTRACT: note_on channel=13 note=37 velocity=95 time=0
EXTRACT: note_off channel=9 note=61 velocity=95 time=0
EXTRACT: note_on channel=9 note=60 velocity=95 time=0
EXTRACT: note_off channel=9 note=51 velocity=95 time=0
EXTRACT: note_on channel=9 note=51 velocity=95 time=0
EXTRACT: note_on channel=9 note=35 velocity=95 time=0
EXTRACT: pitchwheel channel=5 pitch=0 time=0.06
EXTRACT: pitchwheel channel=5 pitch=0 time=0.06
EXTRACT: pitchwheel channel=5 pitch=0 time=0.06
EXTRACT: pitchwheel channel=5 pitch=0 time=0.06
EXTRACT: pitchwheel channel=5 pitch=0 time=0
EXTRACT: note_off channel=5 note=59 velocity=95 time=0
EXTRACT: note_on channel=4 note=59 velocity=95 time=0
EXTRACT: note_off channel=11 note=71 velocity=95 time=0
EXTRACT: note_on channel=11 note=71 velocity=95 time=0
EXTRACT: note_off channel=10 note=83 velocity=95 time=0
EXTRACT: note_on channel=10 note=83 velocity=95 time=0
EXTRACT: note_off channel=13 note=37 velocity=95 time=0
EXTRACT: note_on channel=13 note=40 velocity=95 time=0
EXTRACT: note_off channel=9 note=60 velocity=95 time=0
EXTRACT: note_on channel=9 note=60 velocity=95 time=0
EXTRACT: note_off channel=9 note=51 velocity=95 time=0
EXTRACT: note_off channel=9 note=35 velocity=95 time=0
EXTRACT: note_on channel=9 note=51 velocity=95 time=0
EXTRACT: note_off channel=15 note=69 velocity=95 time=0.24
EXTRACT: note_on channel=15 note=71 velocity=95 time=0
EXTRACT: note_off channel=4 note=59 velocity=95 time=0
EXTRACT: note_on channel=4 note=59 velocity=95 time=0
EXTRACT: note_off channel=11 note=71 velocity=95 time=0
EXTRACT: note_on channel=11 note=71 velocity=95 time=0
EXTRACT: note_off channel=10 note=83 velocity=95 time=0
EXTRACT: note_on channel=10 note=83 velocity=95 time=0
EXTRACT: note_off channel=13 note=40 velocity=95 time=0
EXTRACT: note_on channel=13 note=41 velocity=95 time=0
EXTRACT: note_off channel=9 note=60 velocity=95 time=0
EXTRACT: note_on channel=9 note=61 velocity=95 time=0
EXTRACT: note_off channel=9 note=51 velocity=95 time=0
EXTRACT: note_on channel=9 note=51 velocity=95 time=0
EXTRACT: note_on channel=9 note=38 velocity=95 time=0
EXTRACT: note_on channel=9 note=35 velocity=95 time=0
EXTRACT: note_off channel=15 note=71 velocity=95 time=0.24
EXTRACT: note_on channel=15 note=66 velocity=95 time=0
EXTRACT: note_off channel=2 note=71 velocity=95 time=0
EXTRACT: note_off channel=2 note=68 velocity=95 time=0
EXTRACT: note_off channel=2 note=64 velocity=95 time=0
EXTRACT: note_on channel=2 note=69 velocity=95 time=0
EXTRACT: note_on channel=2 note=64 velocity=95 time=0
EXTRACT: note_on channel=2 note=61 velocity=95 time=0
EXTRACT: note_off channel=4 note=59 velocity=95 time=0
EXTRACT: note_on channel=4 note=56 velocity=95 time=0
EXTRACT: note_off channel=8 note=71 velocity=95 time=0
EXTRACT: note_on channel=8 note=69 velocity=95 time=0
EXTRACT: note_off channel=13 note=41 velocity=95 time=0
EXTRACT: note_on channel=13 note=42 velocity=95 time=0
EXTRACT: note_off channel=9 note=61 velocity=95 time=0
EXTRACT: note_on channel=9 note=60 velocity=95 time=0
EXTRACT: note_off channel=9 note=51 velocity=95 time=0
EXTRACT: note_off channel=9 note=38 velocity=95 time=0
EXTRACT: note_off channel=9 note=35 velocity=95 time=0
EXTRACT: note_on channel=9 note=51 velocity=95 time=0
EXTRACT: note_off channel=11 note=71 velocity=95 time=0.24
EXTRACT: note_on channel=11 note=69 velocity=95 time=0
EXTRACT: note_off channel=10 note=83 velocity=95 time=0
EXTRACT: note_on channel=10 note=81 velocity=95 time=0
EXTRACT: note_off channel=13 note=42 velocity=95 time=0
EXTRACT: note_off channel=9 note=60 velocity=95 time=0
EXTRACT: note_on channel=9 note=60 velocity=95 time=0
EXTRACT: note_off channel=9 note=51 velocity=95 time=0
EXTRACT: note_on channel=9 note=51 velocity=95 time=0
EXTRACT: note_on channel=9 note=35 velocity=95 time=0
EXTRACT: note_off channel=4 note=56 velocity=95 time=0.24
EXTRACT: note_on channel=4 note=57 velocity=95 time=0
EXTRACT: note_off channel=11 note=69 velocity=95 time=0
EXTRACT: note_on channel=11 note=69 velocity=95 time=0
EXTRACT: note_off channel=10 note=81 velocity=95 time=0
EXTRACT: note_on channel=10 note=81 velocity=95 time=0
EXTRACT: note_on channel=13 note=42 velocity=95 time=0
EXTRACT: note_off channel=9 note=60 velocity=95 time=0
EXTRACT: note_on channel=9 note=60 velocity=95 time=0
EXTRACT: note_off channel=9 note=51 velocity=95 time=0
EXTRACT: note_off channel=9 note=35 velocity=95 time=0
EXTRACT: note_on channel=9 note=51 velocity=95 time=0
EXTRACT: note_off channel=15 note=66 velocity=95 time=0.24
EXTRACT: note_on channel=15 note=71 velocity=95 time=0
EXTRACT: note_off channel=4 note=57 velocity=95 time=0
EXTRACT: note_off channel=11 note=69 velocity=95 time=0
EXTRACT: note_on channel=11 note=69 velocity=95 time=0
EXTRACT: note_off channel=10 note=81 velocity=95 time=0
EXTRACT: note_on channel=10 note=81 velocity=95 time=0
EXTRACT: note_off channel=13 note=42 velocity=95 time=0
EXTRACT: note_on channel=13 note=37 velocity=95 time=0
EXTRACT: note_off channel=9 note=60 velocity=95 time=0
EXTRACT: note_on channel=9 note=60 velocity=95 time=0
EXTRACT: note_off channel=9 note=51 velocity=95 time=0
EXTRACT: note_on channel=9 note=51 velocity=95 time=0
EXTRACT: note_on channel=9 note=38 velocity=95 time=0
EXTRACT: note_on channel=9 note=35 velocity=95 time=0
EXTRACT: note_off channel=15 note=71 velocity=95 time=0.24
EXTRACT: note_on channel=15 note=76 velocity=95 time=0
EXTRACT: note_on channel=15 note=69 velocity=95 time=0
EXTRACT: note_off channel=11 note=69 velocity=95 time=0
EXTRACT: note_off channel=10 note=81 velocity=95 time=0
EXTRACT: note_off channel=13 note=37 velocity=95 time=0
EXTRACT: note_on channel=13 note=35 velocity=95 time=0
EXTRACT: note_off channel=9 note=60 velocity=95 time=0
EXTRACT: note_on channel=9 note=61 velocity=95 time=0
EXTRACT: note_off channel=9 note=51 velocity=95 time=0
EXTRACT: note_off channel=9 note=38 velocity=95 time=0
EXTRACT: note_off channel=9 note=35 velocity=95 time=0
EXTRACT: note_on channel=9 note=51 velocity=95 time=0
EXTRACT: note_off channel=2 note=69 velocity=95 time=0.24
EXTRACT: note_off channel=2 note=64 velocity=95 time=0
EXTRACT: note_off channel=2 note=61 velocity=95 time=0
EXTRACT: note_on channel=2 note=69 velocity=95 time=0
EXTRACT: note_on channel=2 note=67 velocity=95 time=0
EXTRACT: note_on channel=2 note=62 velocity=95 time=0
EXTRACT: note_on channel=2 note=59 velocity=95 time=0
EXTRACT: note_off channel=8 note=69 velocity=95 time=0
EXTRACT: note_on channel=8 note=69 velocity=95 time=0
EXTRACT: note_on channel=11 note=69 velocity=95 time=0
EXTRACT: note_on channel=10 note=81 velocity=95 time=0
EXTRACT: note_on channel=10 note=76 velocity=95 time=0
EXTRACT: note_off channel=13 note=35 velocity=95 time=0
EXTRACT: note_on channel=13 note=33 velocity=95 time=0
EXTRACT: note_off channel=9 note=61 velocity=95 time=0
EXTRACT: note_on channel=9 note=60 velocity=95 time=0
EXTRACT: note_off channel=9 note=51 velocity=95 time=0
EXTRACT: note_on channel=9 note=51 velocity=95 time=0
EXTRACT: note_on channel=9 note=35 velocity=95 time=0
EXTRACT: note_off channel=8 note=69 velocity=95 time=0.12
EXTRACT: note_on channel=8 note=69 velocity=95 time=0
EXTRACT: note_off channel=13 note=33 velocity=95 time=0
EXTRACT: note_on channel=4 note=47 velocity=95 time=0.12
EXTRACT: note_off channel=8 note=69 velocity=95 time=0
EXTRACT: note_on channel=8 note=66 velocity=95 time=0
EXTRACT: note_off channel=11 note=69 velocity=95 time=0
EXTRACT: note_on channel=11 note=69 velocity=95 time=0
EXTRACT: note_off channel=10 note=81 velocity=95 time=0
EXTRACT: note_off channel=10 note=76 velocity=95 time=0
EXTRACT: note_on channel=10 note=81 velocity=95 time=0
EXTRACT: note_on channel=10 note=76 velocity=95 time=0
EXTRACT: note_on channel=13 note=33 velocity=95 time=0
EXTRACT: note_off channel=9 note=60 velocity=95 time=0
EXTRACT: note_on channel=9 note=60 velocity=95 time=0
EXTRACT: note_off channel=9 note=51 velocity=95 time=0
EXTRACT: note_off channel=9 note=35 velocity=95 time=0
EXTRACT: note_on channel=9 note=51 velocity=95 time=0
EXTRACT: note_off channel=4 note=47 velocity=95 time=0.12
EXTRACT: note_on channel=4 note=49 velocity=70 time=0
EXTRACT: note_off channel=8 note=66 velocity=95 time=0
EXTRACT: note_on channel=8 note=64 velocity=95 time=0
EXTRACT: note_off channel=4 note=49 velocity=70 time=0.12
EXTRACT: note_on channel=4 note=45 velocity=95 time=0
EXTRACT: note_off channel=8 note=64 velocity=95 time=0
EXTRACT: note_on channel=8 note=69 velocity=95 time=0
EXTRACT: note_off channel=13 note=33 velocity=95 time=0
EXTRACT: note_on channel=13 note=55 velocity=95 time=0
EXTRACT: note_off channel=9 note=60 velocity=95 time=0
EXTRACT: note_on channel=9 note=61 velocity=95 time=0
EXTRACT: note_off channel=9 note=51 velocity=95 time=0
EXTRACT: note_on channel=9 note=51 velocity=95 time=0
EXTRACT: note_on channel=9 note=38 velocity=95 time=0
EXTRACT: note_on channel=9 note=35 velocity=95 time=0
EXTRACT: note_off channel=4 note=45 velocity=95 time=0.031
EXTRACT: note_on channel=4 note=54 velocity=95 time=0.089
EXTRACT: note_off channel=8 note=69 velocity=95 time=0
EXTRACT: note_on channel=8 note=69 velocity=95 time=0
EXTRACT: note_off channel=4 note=54 velocity=95 time=0.12
EXTRACT: note_off channel=8 note=69 velocity=95 time=0
EXTRACT: note_on channel=8 note=66 velocity=95 time=0
EXTRACT: note_off channel=11 note=69 velocity=95 time=0
EXTRACT: note_on channel=11 note=69 velocity=95 time=0
EXTRACT: note_off channel=10 note=81 velocity=95 time=0
EXTRACT: note_off channel=10 note=76 velocity=95 time=0
EXTRACT: note_on channel=10 note=81 velocity=95 time=0
EXTRACT: note_on channel=10 note=76 velocity=95 time=0
EXTRACT: note_off channel=13 note=55 velocity=95 time=0
EXTRACT: note_on channel=13 note=57 velocity=95 time=0
EXTRACT: note_off channel=9 note=61 velocity=95 time=0
EXTRACT: note_on channel=9 note=60 velocity=95 time=0
EXTRACT: note_off channel=9 note=51 velocity=95 time=0
EXTRACT: note_off channel=9 note=38 velocity=95 time=0
EXTRACT: note_off channel=9 note=35 velocity=95 time=0
EXTRACT: note_on channel=9 note=51 velocity=95 time=0
EXTRACT: note_off channel=8 note=66 velocity=95 time=0.12
EXTRACT: note_on channel=8 note=64 velocity=95 time=0
EXTRACT: note_off channel=8 note=64 velocity=95 time=0.12
EXTRACT: note_on channel=8 note=69 velocity=95 time=0
EXTRACT: note_off channel=11 note=69 velocity=95 time=0
EXTRACT: note_on channel=11 note=69 velocity=95 time=0
EXTRACT: note_off channel=10 note=81 velocity=95 time=0
EXTRACT: note_off channel=10 note=76 velocity=95 time=0
EXTRACT: note_on channel=10 note=81 velocity=95 time=0
EXTRACT: note_on channel=10 note=76 velocity=95 time=0
EXTRACT: note_off channel=13 note=57 velocity=95 time=0
EXTRACT: note_on channel=13 note=33 velocity=95 time=0
EXTRACT: note_off channel=9 note=60 velocity=95 time=0
EXTRACT: note_on channel=9 note=60 velocity=95 time=0
EXTRACT: note_off channel=9 note=51 velocity=95 time=0
EXTRACT: note_on channel=9 note=51 velocity=95 time=0
EXTRACT: note_on channel=9 note=35 velocity=95 time=0
EXTRACT: note_off channel=8 note=69 velocity=95 time=0.12
EXTRACT: note_on channel=8 note=69 velocity=95 time=0
EXTRACT: note_off channel=13 note=33 velocity=95 time=0
EXTRACT: note_off channel=8 note=69 velocity=95 time=0.12
EXTRACT: note_on channel=8 note=66 velocity=95 time=0
EXTRACT: note_on channel=13 note=33 velocity=95 time=0
EXTRACT: note_off channel=9 note=60 velocity=95 time=0
EXTRACT: note_on channel=9 note=60 velocity=95 time=0
EXTRACT: note_off channel=9 note=51 velocity=95 time=0
EXTRACT: note_off channel=9 note=35 velocity=95 time=0
EXTRACT: note_on channel=9 note=51 velocity=95 time=0
EXTRACT: note_off channel=8 note=66 velocity=95 time=0.12
EXTRACT: note_on channel=8 note=64 velocity=95 time=0
EXTRACT: note_off channel=8 note=64 velocity=95 time=0.12
EXTRACT: note_on channel=8 note=69 velocity=95 time=0
EXTRACT: note_off channel=11 note=69 velocity=95 time=0
EXTRACT: note_on channel=11 note=69 velocity=95 time=0
EXTRACT: note_off channel=10 note=81 velocity=95 time=0
EXTRACT: note_off channel=10 note=76 velocity=95 time=0
EXTRACT: note_on channel=10 note=81 velocity=95 time=0
EXTRACT: note_on channel=10 note=76 velocity=95 time=0
EXTRACT: note_off channel=13 note=33 velocity=95 time=0
EXTRACT: note_on channel=13 note=55 velocity=95 time=0
EXTRACT: note_off channel=9 note=60 velocity=95 time=0
EXTRACT: note_on channel=9 note=60 velocity=95 time=0
EXTRACT: note_off channel=9 note=51 velocity=95 time=0
EXTRACT: note_on channel=9 note=51 velocity=95 time=0
EXTRACT: note_on channel=9 note=38 velocity=95 time=0
EXTRACT: note_on channel=9 note=35 velocity=95 time=0
EXTRACT: note_off channel=8 note=69 velocity=95 time=0.12
EXTRACT: note_on channel=8 note=69 velocity=95 time=0
EXTRACT: note_off channel=8 note=69 velocity=95 time=0.12
EXTRACT: note_on channel=8 note=66 velocity=95 time=0
EXTRACT: note_off channel=11 note=69 velocity=95 time=0
EXTRACT: note_on channel=11 note=69 velocity=95 time=0
EXTRACT: note_off channel=10 note=81 velocity=95 time=0
EXTRACT: note_off channel=10 note=76 velocity=95 time=0
EXTRACT: note_on channel=10 note=81 velocity=95 time=0
EXTRACT: note_on channel=10 note=76 velocity=95 time=0
EXTRACT: note_off channel=13 note=55 velocity=95 time=0
EXTRACT: note_on channel=13 note=57 velocity=95 time=0
EXTRACT: note_off channel=9 note=60 velocity=95 time=0
EXTRACT: note_on channel=9 note=61 velocity=95 time=0
EXTRACT: note_off channel=9 note=51 velocity=95 time=0
EXTRACT: note_off channel=9 note=38 velocity=95 time=0
EXTRACT: note_off channel=9 note=35 velocity=95 time=0
EXTRACT: note_on channel=9 note=51 velocity=95 time=0
EXTRACT: note_off channel=8 note=66 velocity=95 time=0.12
EXTRACT: note_on channel=8 note=64 velocity=95 time=0
EXTRACT: note_off channel=2 note=69 velocity=95 time=0.12
EXTRACT: note_off channel=2 note=67 velocity=95 time=0
EXTRACT: note_off channel=2 note=62 velocity=95 time=0
EXTRACT: note_off channel=2 note=59 velocity=95 time=0
EXTRACT: note_on channel=2 note=69 velocity=95 time=0
EXTRACT: note_on channel=2 note=67 velocity=95 time=0
EXTRACT: note_on channel=2 note=62 velocity=95 time=0
EXTRACT: note_on channel=2 note=59 velocity=95 time=0
EXTRACT: note_off channel=8 note=64 velocity=95 time=0
EXTRACT: note_on channel=8 note=69 velocity=95 time=0
EXTRACT: note_off channel=13 note=57 velocity=95 time=0
EXTRACT: note_on channel=13 note=33 velocity=95 time=0
EXTRACT: note_off channel=9 note=61 velocity=95 time=0
EXTRACT: note_on channel=9 note=60 velocity=95 time=0
EXTRACT: note_off channel=9 note=51 velocity=95 time=0
EXTRACT: note_on channel=9 note=38 velocity=95 time=0
EXTRACT: note_off channel=8 note=69 velocity=95 time=0.12
EXTRACT: note_on channel=8 note=69 velocity=95 time=0
EXTRACT: note_off channel=13 note=33 velocity=95 time=0
EXTRACT: note_on channel=4 note=47 velocity=95 time=0.12
EXTRACT: note_off channel=8 note=69 velocity=95 time=0
EXTRACT: note_on channel=8 note=66 velocity=95 time=0
EXTRACT: note_off channel=11 note=69 velocity=95 time=0
EXTRACT: note_on channel=11 note=69 velocity=95 time=0
EXTRACT: note_off channel=10 note=81 velocity=95 time=0
EXTRACT: note_off channel=10 note=76 velocity=95 time=0
EXTRACT: note_on channel=10 note=81 velocity=95 time=0
EXTRACT: note_on channel=10 note=76 velocity=95 time=0
EXTRACT: note_on channel=13 note=33 velocity=95 time=0
EXTRACT: note_off channel=9 note=60 velocity=95 time=0
EXTRACT: note_on channel=9 note=60 velocity=95 time=0
EXTRACT: note_off channel=9 note=38 velocity=95 time=0
EXTRACT: note_on channel=9 note=38 velocity=95 time=0
EXTRACT: note_off channel=4 note=47 velocity=95 time=0.12
EXTRACT: note_on channel=4 note=49 velocity=70 time=0
EXTRACT: note_off channel=8 note=66 velocity=95 time=0
EXTRACT: note_on channel=8 note=64 velocity=95 time=0
EXTRACT: note_off channel=4 note=49 velocity=70 time=0.12
EXTRACT: note_on channel=4 note=45 velocity=95 time=0
EXTRACT: note_off channel=8 note=64 velocity=95 time=0
EXTRACT: note_on channel=8 note=69 velocity=95 time=0
EXTRACT: note_off channel=11 note=69 velocity=95 time=0
EXTRACT: note_on channel=11 note=69 velocity=95 time=0
EXTRACT: note_off channel=10 note=81 velocity=95 time=0
EXTRACT: note_off channel=10 note=76 velocity=95 time=0
EXTRACT: note_on channel=10 note=81 velocity=95 time=0
EXTRACT: note_on channel=10 note=76 velocity=95 time=0
EXTRACT: note_off channel=13 note=33 velocity=95 time=0
EXTRACT: note_on channel=13 note=55 velocity=95 time=0
EXTRACT: note_off channel=9 note=60 velocity=95 time=0
EXTRACT: note_on channel=9 note=61 velocity=95 time=0
EXTRACT: note_off channel=9 note=38 velocity=95 time=0
EXTRACT: note_on channel=9 note=38 velocity=95 time=0
EXTRACT: note_off channel=4 note=45 velocity=95 time=0.031
EXTRACT: note_on channel=4 note=54 velocity=95 time=0.089
EXTRACT: note_off channel=8 note=69 velocity=95 time=0
EXTRACT: note_on channel=8 note=69 velocity=95 time=0
EXTRACT: note_off channel=4 note=54 velocity=95 time=0.12
EXTRACT: note_off channel=8 note=69 velocity=95 time=0
EXTRACT: note_on channel=8 note=66 velocity=95 time=0
EXTRACT: note_off channel=13 note=55 velocity=95 time=0
EXTRACT: note_on channel=13 note=57 velocity=95 time=0
EXTRACT: note_off channel=9 note=61 velocity=95 time=0
EXTRACT: note_on channel=9 note=60 velocity=95 time=0
EXTRACT: note_off channel=9 note=38 velocity=95 time=0
EXTRACT: note_on channel=9 note=38 velocity=95 time=0
EXTRACT: note_off channel=8 note=66 velocity=95 time=0.12
EXTRACT: note_on channel=8 note=64 velocity=95 time=0
EXTRACT: note_off channel=9 note=38 velocity=95 time=0
EXTRACT: note_on channel=9 note=38 velocity=95 time=0
EXTRACT: note_off channel=2 note=69 velocity=95 time=0.12
EXTRACT: note_off channel=2 note=67 velocity=95 time=0
EXTRACT: note_off channel=2 note=62 velocity=95 time=0
EXTRACT: note_off channel=2 note=59 velocity=95 time=0
EXTRACT: note_on channel=2 note=69 velocity=95 time=0
EXTRACT: note_on channel=2 note=67 velocity=95 time=0
EXTRACT: note_on channel=2 note=62 velocity=95 time=0
EXTRACT: note_on channel=2 note=59 velocity=95 time=0
EXTRACT: note_off channel=8 note=64 velocity=95 time=0
EXTRACT: note_on channel=8 note=69 velocity=95 time=0
EXTRACT: note_off channel=11 note=69 velocity=95 time=0
EXTRACT: note_on channel=11 note=69 velocity=95 time=0
EXTRACT: note_off channel=10 note=81 velocity=95 time=0
EXTRACT: note_off channel=10 note=76 velocity=95 time=0
EXTRACT: note_on channel=10 note=81 velocity=95 time=0
EXTRACT: note_on channel=10 note=76 velocity=95 time=0
EXTRACT: note_off channel=13 note=57 velocity=95 time=0
EXTRACT: note_on channel=13 note=33 velocity=95 time=0
EXTRACT: note_off channel=9 note=60 velocity=95 time=0
EXTRACT: note_on channel=9 note=60 velocity=95 time=0
EXTRACT: note_off channel=9 note=38 velocity=95 time=0
EXTRACT: note_on channel=9 note=38 velocity=95 time=0
EXTRACT: note_off channel=8 note=69 velocity=95 time=0.12
EXTRACT: note_on channel=8 note=69 velocity=95 time=0
EXTRACT: note_off channel=2 note=69 velocity=95 time=0.12
EXTRACT: note_off channel=2 note=67 velocity=95 time=0
EXTRACT: note_off channel=2 note=62 velocity=95 time=0
EXTRACT: note_off channel=2 note=59 velocity=95 time=0
EXTRACT: note_on channel=2 note=69 velocity=95 time=0
EXTRACT: note_on channel=2 note=67 velocity=95 time=0
EXTRACT: note_on channel=2 note=62 velocity=95 time=0
EXTRACT: note_on channel=2 note=59 velocity=95 time=0
EXTRACT: note_off channel=8 note=69 velocity=95 time=0
EXTRACT: note_on channel=8 note=66 velocity=95 time=0
EXTRACT: note_off channel=11 note=69 velocity=95 time=0
EXTRACT: note_on channel=11 note=69 velocity=95 time=0
EXTRACT: note_off channel=10 note=81 velocity=95 time=0
EXTRACT: note_off channel=10 note=76 velocity=95 time=0
EXTRACT: note_on channel=10 note=81 velocity=95 time=0
EXTRACT: note_on channel=10 note=76 velocity=95 time=0
EXTRACT: note_off channel=13 note=33 velocity=95 time=0
EXTRACT: note_off channel=9 note=60 velocity=95 time=0
EXTRACT: note_on channel=9 note=60 velocity=95 time=0
EXTRACT: note_off channel=9 note=38 velocity=95 time=0
EXTRACT: note_on channel=9 note=38 velocity=95 time=0
EXTRACT: note_off channel=8 note=66 velocity=95 time=0.12
EXTRACT: note_on channel=8 note=64 velocity=95 time=0
EXTRACT: note_off channel=15 note=76 velocity=95 time=0.12
EXTRACT: note_off channel=15 note=69 velocity=95 time=0
EXTRACT: note_off channel=2 note=69 velocity=95 time=0
EXTRACT: note_off channel=2 note=67 velocity=95 time=0
EXTRACT: note_off channel=2 note=62 velocity=95 time=0
EXTRACT: note_off channel=2 note=59 velocity=95 time=0
EXTRACT: note_on channel=2 note=69 velocity=95 time=0
EXTRACT: note_on channel=2 note=67 velocity=95 time=0
EXTRACT: note_on channel=2 note=62 velocity=95 time=0
EXTRACT: note_on channel=2 note=59 velocity=95 time=0
EXTRACT: note_off channel=8 note=64 velocity=95 time=0
EXTRACT: note_on channel=8 note=69 velocity=95 time=0
EXTRACT: note_off channel=11 note=69 velocity=95 time=0
EXTRACT: note_on channel=11 note=69 velocity=95 time=0
EXTRACT: note_off channel=10 note=81 velocity=95 time=0
EXTRACT: note_off channel=10 note=76 velocity=95 time=0
EXTRACT: note_on channel=10 note=81 velocity=95 time=0
EXTRACT: note_on channel=10 note=76 velocity=95 time=0
EXTRACT: note_on channel=13 note=34 velocity=95 time=0
EXTRACT: note_off channel=9 note=60 velocity=95 time=0
EXTRACT: note_on channel=9 note=60 velocity=95 time=0
EXTRACT: note_off channel=9 note=38 velocity=95 time=0
EXTRACT: note_on channel=9 note=38 velocity=95 time=0
EXTRACT: note_off channel=8 note=69 velocity=95 time=0.12
EXTRACT: note_on channel=8 note=69 velocity=95 time=0
EXTRACT: note_off channel=2 note=69 velocity=95 time=0.12
EXTRACT: note_off channel=2 note=67 velocity=95 time=0
EXTRACT: note_off channel=2 note=62 velocity=95 time=0
EXTRACT: note_off channel=2 note=59 velocity=95 time=0
EXTRACT: note_off channel=8 note=69 velocity=95 time=0
EXTRACT: note_on channel=8 note=66 velocity=95 time=0
EXTRACT: note_off channel=11 note=69 velocity=95 time=0
EXTRACT: note_off channel=10 note=81 velocity=95 time=0
EXTRACT: note_off channel=10 note=76 velocity=95 time=0
EXTRACT: note_off channel=13 note=34 velocity=95 time=0
EXTRACT: note_off channel=9 note=60 velocity=95 time=0
EXTRACT: note_on channel=9 note=61 velocity=95 time=0
EXTRACT: note_off channel=9 note=38 velocity=95 time=0
EXTRACT: note_on channel=9 note=43 velocity=95 time=0
EXTRACT: note_off channel=8 note=66 velocity=95 time=0.12
EXTRACT: note_on channel=8 note=64 velocity=95 time=0
EXTRACT: note_on channel=15 note=73 velocity=95 time=0.12
EXTRACT: note_on channel=2 note=69 velocity=95 time=0
EXTRACT: note_on channel=2 note=66 velocity=95 time=0
EXTRACT: note_on channel=2 note=62 velocity=95 time=0
EXTRACT: note_off channel=8 note=64 velocity=95 time=0
EXTRACT: note_on channel=8 note=69 velocity=95 time=0
EXTRACT: note_on channel=11 note=73 velocity=95 time=0
EXTRACT: note_on channel=10 note=85 velocity=95 time=0
EXTRACT: note_on channel=13 note=35 velocity=95 time=0
EXTRACT: note_off channel=9 note=61 velocity=95 time=0
EXTRACT: note_on channel=9 note=60 velocity=95 time=0
EXTRACT: note_off channel=9 note=43 velocity=95 time=0
EXTRACT: note_on channel=9 note=57 velocity=95 time=0
EXTRACT: note_on channel=9 note=35 velocity=95 time=0
EXTRACT: note_on channel=4 note=61 velocity=95 time=0.24
EXTRACT: note_off channel=11 note=73 velocity=95 time=0
EXTRACT: note_on channel=11 note=73 velocity=95 time=0
EXTRACT: note_off channel=10 note=85 velocity=95 time=0
EXTRACT: note_on channel=10 note=85 velocity=95 time=0
EXTRACT: note_off channel=13 note=35 velocity=95 time=0
EXTRACT: note_on channel=13 note=35 velocity=95 time=0
EXTRACT: note_off channel=9 note=60 velocity=95 time=0
EXTRACT: note_on channel=9 note=60 velocity=95 time=0
EXTRACT: note_off channel=9 note=57 velocity=95 time=0
EXTRACT: note_off channel=9 note=35 velocity=95 time=0
EXTRACT: note_on channel=9 note=51 velocity=95 time=0
EXTRACT: note_off channel=15 note=73 velocity=95 time=0.24
EXTRACT: note_on channel=15 note=74 velocity=95 time=0
EXTRACT: note_off channel=4 note=61 velocity=95 time=0
EXTRACT: note_off channel=13 note=35 velocity=95 time=0
EXTRACT: note_on channel=13 note=42 velocity=95 time=0
EXTRACT: note_off channel=9 note=60 velocity=95 time=0
EXTRACT: note_on channel=9 note=61 velocity=95 time=0
EXTRACT: note_off channel=9 note=51 velocity=95 time=0
EXTRACT: note_on channel=9 note=51 velocity=95 time=0
EXTRACT: note_on channel=9 note=38 velocity=95 time=0
EXTRACT: note_on channel=9 note=35 velocity=95 time=0
EXTRACT: note_off channel=15 note=74 velocity=95 time=0.24
EXTRACT: note_on channel=15 note=73 velocity=95 time=0
EXTRACT: note_off channel=2 note=69 velocity=95 time=0
EXTRACT: note_off channel=2 note=66 velocity=95 time=0
EXTRACT: note_off channel=2 note=62 velocity=95 time=0
EXTRACT: note_on channel=2 note=68 velocity=95 time=0
EXTRACT: note_on channel=2 note=62 velocity=95 time=0
EXTRACT: note_on channel=2 note=59 velocity=95 time=0
EXTRACT: note_on channel=4 note=59 velocity=95 time=0
EXTRACT: note_off channel=8 note=69 velocity=95 time=0
EXTRACT: note_on channel=8 note=68 velocity=95 time=0
EXTRACT: note_off channel=11 note=73 velocity=95 time=0
EXTRACT: note_on channel=11 note=71 velocity=95 time=0
EXTRACT: note_off channel=10 note=85 velocity=95 time=0
EXTRACT: note_on channel=10 note=83 velocity=95 time=0
EXTRACT: note_off channel=13 note=42 velocity=95 time=0
EXTRACT: note_on channel=13 note=40 velocity=95 time=0
EXTRACT: note_off channel=9 note=61 velocity=95 time=0
EXTRACT: note_on channel=9 note=60 velocity=95 time=0
EXTRACT: note_off channel=9 note=51 velocity=95 time=0
EXTRACT: note_off channel=9 note=38 velocity=95 time=0
EXTRACT: note_off channel=9 note=35 velocity=95 time=0
EXTRACT: note_on channel=9 note=51 velocity=95 time=0
EXTRACT: note_off channel=4 note=59 velocity=95 time=0.24
EXTRACT: note_off channel=11 note=71 velocity=95 time=0
EXTRACT: note_on channel=11 note=71 velocity=95 time=0
EXTRACT: note_off channel=10 note=83 velocity=95 time=0
EXTRACT: note_on channel=10 note=83 velocity=95 time=0
EXTRACT: note_off channel=13 note=40 velocity=95 time=0
EXTRACT: note_off channel=9 note=60 velocity=95 time=0
EXTRACT: note_on channel=9 note=60 velocity=95 time=0
EXTRACT: note_off channel=9 note=51 velocity=95 time=0
EXTRACT: note_on channel=9 note=51 velocity=95 time=0
EXTRACT: note_on channel=9 note=35 velocity=95 time=0
EXTRACT: note_on channel=4 note=57 velocity=95 time=0.24
EXTRACT: note_on channel=13 note=33 velocity=95 time=0
EXTRACT: note_off channel=9 note=60 velocity=95 time=0
EXTRACT: note_on channel=9 note=60 velocity=95 time=0
EXTRACT: note_off channel=9 note=51 velocity=95 time=0
EXTRACT: note_off channel=9 note=35 velocity=95 time=0
EXTRACT: note_on channel=9 note=51 velocity=95 time=0
EXTRACT: note_off channel=15 note=73 velocity=95 time=0.24
EXTRACT: note_on channel=15 note=71 velocity=95 time=0
EXTRACT: note_off channel=4 note=57 velocity=95 time=0
EXTRACT: note_off channel=11 note=71 velocity=95 time=0
EXTRACT: note_on channel=11 note=71 velocity=95 time=0
EXTRACT: note_off channel=10 note=83 velocity=95 time=0
EXTRACT: note_on channel=10 note=83 velocity=95 time=0
EXTRACT: note_off channel=13 note=33 velocity=95 time=0
EXTRACT: note_on channel=13 note=35 velocity=95 time=0
EXTRACT: note_off channel=9 note=60 velocity=95 time=0
EXTRACT: note_on channel=9 note=60 velocity=95 time=0
EXTRACT: note_off channel=9 note=51 velocity=95 time=0
EXTRACT: note_on channel=9 note=51 velocity=95 time=0
EXTRACT: note_on channel=9 note=38 velocity=95 time=0
EXTRACT: note_on channel=9 note=35 velocity=95 time=0
EXTRACT: note_off channel=15 note=71 velocity=95 time=0.24
EXTRACT: note_on channel=15 note=69 velocity=95 time=0
EXTRACT: note_on channel=4 note=45 velocity=95 time=0
EXTRACT: note_off channel=11 note=71 velocity=95 time=0
EXTRACT: note_on channel=11 note=71 velocity=95 time=0
EXTRACT: note_off channel=10 note=83 velocity=95 time=0
EXTRACT: note_on channel=10 note=83 velocity=95 time=0
EXTRACT: note_off channel=13 note=35 velocity=95 time=0
EXTRACT: note_on channel=13 note=36 velocity=95 time=0
EXTRACT: note_off channel=9 note=60 velocity=95 time=0
EXTRACT: note_on channel=9 note=61 velocity=95 time=0
EXTRACT: note_off channel=9 note=51 velocity=95 time=0
EXTRACT: note_off channel=9 note=38 velocity=95 time=0
EXTRACT: note_off channel=9 note=35 velocity=95 time=0
EXTRACT: note_on channel=9 note=51 velocity=95 time=0
EXTRACT: note_off channel=4 note=45 velocity=95 time=0.031
EXTRACT: note_off channel=2 note=68 velocity=95 time=0.209
EXTRACT: note_off channel=2 note=62 velocity=95 time=0
EXTRACT: note_off channel=2 note=59 velocity=95 time=0
EXTRACT: note_on channel=2 note=71 velocity=95 time=0
EXTRACT: note_on channel=2 note=68 velocity=95 time=0
EXTRACT: note_on channel=2 note=64 velocity=95 time=0
EXTRACT: note_on channel=5 note=59 velocity=95 time=0
EXTRACT: note_off channel=8 note=68 velocity=95 time=0
EXTRACT: note_on channel=8 note=71 velocity=95 time=0
EXTRACT: note_off channel=13 note=36 velocity=95 time=0
EXTRACT: note_on channel=13 note=37 velocity=95 time=0
EXTRACT: note_off channel=9 note=61 velocity=95 time=0
EXTRACT: note_on channel=9 note=60 velocity=95 time=0
EXTRACT: note_off channel=9 note=51 velocity=95 time=0
EXTRACT: note_on channel=9 note=51 velocity=95 time=0
EXTRACT: note_on channel=9 note=35 velocity=95 time=0
EXTRACT: pitchwheel channel=5 pitch=0 time=0.06
EXTRACT: pitchwheel channel=5 pitch=0 time=0.06
EXTRACT: pitchwheel channel=5 pitch=0 time=0.06
EXTRACT: pitchwheel channel=5 pitch=0 time=0.06
EXTRACT: pitchwheel channel=5 pitch=0 time=0
EXTRACT: note_off channel=5 note=59 velocity=95 time=0
EXTRACT: note_on channel=4 note=59 velocity=95 time=0
EXTRACT: note_off channel=11 note=71 velocity=95 time=0
EXTRACT: note_on channel=11 note=71 velocity=95 time=0
EXTRACT: note_off channel=10 note=83 velocity=95 time=0
EXTRACT: note_on channel=10 note=83 velocity=95 time=0
EXTRACT: note_off channel=13 note=37 velocity=95 time=0
EXTRACT: note_on channel=13 note=32 velocity=95 time=0
EXTRACT: note_off channel=9 note=60 velocity=95 time=0
EXTRACT: note_on channel=9 note=60 velocity=95 time=0
EXTRACT: note_off channel=9 note=51 velocity=95 time=0
EXTRACT: note_off channel=9 note=35 velocity=95 time=0
EXTRACT: note_on channel=9 note=51 velocity=95 time=0
EXTRACT: note_off channel=15 note=69 velocity=95 time=0.24
EXTRACT: note_on channel=15 note=71 velocity=95 time=0
EXTRACT: note_off channel=4 note=59 velocity=95 time=0
EXTRACT: note_on channel=4 note=59 velocity=95 time=0
EXTRACT: note_off channel=11 note=71 velocity=95 time=0
EXTRACT: note_on channel=11 note=71 velocity=95 time=0
EXTRACT: note_off channel=10 note=83 velocity=95 time=0
EXTRACT: note_on channel=10 note=83 velocity=95 time=0
EXTRACT: note_off channel=13 note=32 velocity=95 time=0
EXTRACT: note_on channel=13 note=28 velocity=95 time=0
EXTRACT: note_off channel=9 note=60 velocity=95 time=0
EXTRACT: note_on channel=9 note=61 velocity=95 time=0
EXTRACT: note_off channel=9 note=51 velocity=95 time=0
EXTRACT: note_on channel=9 note=51 velocity=95 time=0
EXTRACT: note_on channel=9 note=38 velocity=95 time=0
EXTRACT: note_on channel=9 note=35 velocity=95 time=0
EXTRACT: note_off channel=15 note=71 velocity=95 time=0.24
EXTRACT: note_on channel=15 note=66 velocity=95 time=0
EXTRACT: note_off channel=2 note=71 velocity=95 time=0
EXTRACT: note_off channel=2 note=68 velocity=95 time=0
EXTRACT: note_off channel=2 note=64 velocity=95 time=0
EXTRACT: note_on channel=2 note=69 velocity=95 time=0
EXTRACT: note_on channel=2 note=64 velocity=95 time=0
EXTRACT: note_on channel=2 note=61 velocity=95 time=0
EXTRACT: note_off channel=4 note=59 velocity=95 time=0
EXTRACT: note_on channel=4 note=56 velocity=95 time=0
EXTRACT: note_off channel=8 note=71 velocity=95 time=0
EXTRACT: note_on channel=8 note=69 velocity=95 time=0
EXTRACT: note_off channel=13 note=28 velocity=95 time=0
EXTRACT: note_on channel=13 note=28 velocity=95 time=0
EXTRACT: note_off channel=9 note=61 velocity=95 time=0
EXTRACT: note_on channel=9 note=60 velocity=95 time=0
EXTRACT: note_off channel=9 note=51 velocity=95 time=0
EXTRACT: note_off channel=9 note=38 velocity=95 time=0
EXTRACT: note_off channel=9 note=35 velocity=95 time=0
EXTRACT: note_on channel=9 note=51 velocity=95 time=0
EXTRACT: note_off channel=11 note=71 velocity=95 time=0.24
EXTRACT: note_on channel=11 note=69 velocity=95 time=0
EXTRACT: note_off channel=10 note=83 velocity=95 time=0
EXTRACT: note_on channel=10 note=81 velocity=95 time=0
EXTRACT: note_off channel=13 note=28 velocity=95 time=0
EXTRACT: note_on channel=13 note=30 velocity=95 time=0
EXTRACT: note_off channel=9 note=60 velocity=95 time=0
EXTRACT: note_on channel=9 note=60 velocity=95 time=0
EXTRACT: note_off channel=9 note=51 velocity=95 time=0
EXTRACT: note_on channel=9 note=51 velocity=95 time=0
EXTRACT: note_on channel=9 note=35 velocity=95 time=0
EXTRACT: note_off channel=4 note=56 velocity=95 time=0.24
EXTRACT: note_on channel=4 note=57 velocity=95 time=0
EXTRACT: note_off channel=11 note=69 velocity=95 time=0
EXTRACT: note_on channel=11 note=69 velocity=95 time=0
EXTRACT: note_off channel=10 note=81 velocity=95 time=0
EXTRACT: note_on channel=10 note=81 velocity=95 time=0
EXTRACT: note_off channel=13 note=30 velocity=95 time=0
EXTRACT: note_on channel=13 note=32 velocity=95 time=0
EXTRACT: note_off channel=9 note=60 velocity=95 time=0
EXTRACT: note_on channel=9 note=60 velocity=95 time=0
EXTRACT: note_off channel=9 note=51 velocity=95 time=0
EXTRACT: note_off channel=9 note=35 velocity=95 time=0
EXTRACT: note_on channel=9 note=51 velocity=95 time=0
EXTRACT: note_off channel=15 note=66 velocity=95 time=0.24
EXTRACT: note_off channel=4 note=57 velocity=95 time=0
EXTRACT: note_off channel=11 note=69 velocity=95 time=0
EXTRACT: note_on channel=11 note=69 velocity=95 time=0
EXTRACT: note_off channel=10 note=81 velocity=95 time=0
EXTRACT: note_on channel=10 note=81 velocity=95 time=0
EXTRACT: note_off channel=13 note=32 velocity=95 time=0
EXTRACT: note_on channel=13 note=33 velocity=95 time=0
EXTRACT: note_off channel=9 note=60 velocity=95 time=0
EXTRACT: note_on channel=9 note=60 velocity=95 time=0
EXTRACT: note_off channel=9 note=51 velocity=95 time=0
EXTRACT: note_on channel=9 note=51 velocity=95 time=0
EXTRACT: note_on channel=9 note=38 velocity=95 time=0
EXTRACT: note_on channel=9 note=35 velocity=95 time=0
EXTRACT: note_off channel=11 note=69 velocity=95 time=0.24
EXTRACT: note_off channel=10 note=81 velocity=95 time=0
EXTRACT: note_off channel=13 note=33 velocity=95 time=0
EXTRACT: note_on channel=13 note=37 velocity=95 time=0
EXTRACT: note_off channel=9 note=60 velocity=95 time=0
EXTRACT: note_on channel=9 note=61 velocity=95 time=0
EXTRACT: note_off channel=9 note=51 velocity=95 time=0
EXTRACT: note_off channel=9 note=38 velocity=95 time=0
EXTRACT: note_off channel=9 note=35 velocity=95 time=0
EXTRACT: note_on channel=9 note=51 velocity=95 time=0
EXTRACT: note_on channel=15 note=73 velocity=95 time=0.24
EXTRACT: note_off channel=2 note=69 velocity=95 time=0
EXTRACT: note_off channel=2 note=64 velocity=95 time=0
EXTRACT: note_off channel=2 note=61 velocity=95 time=0
EXTRACT: note_on channel=2 note=69 velocity=95 time=0
EXTRACT: note_on channel=2 note=66 velocity=95 time=0
EXTRACT: note_on channel=2 note=62 velocity=95 time=0
EXTRACT: note_off channel=8 note=69 velocity=95 time=0
EXTRACT: note_on channel=8 note=69 velocity=95 time=0
EXTRACT: note_on channel=11 note=73 velocity=95 time=0
EXTRACT: note_on channel=10 note=85 velocity=95 time=0
EXTRACT: note_off channel=13 note=37 velocity=95 time=0
EXTRACT: note_on channel=13 note=35 velocity=95 time=0
EXTRACT: note_off channel=9 note=61 velocity=95 time=0
EXTRACT: note_on channel=9 note=60 velocity=95 time=0
EXTRACT: note_off channel=9 note=51 velocity=95 time=0
EXTRACT: note_on channel=9 note=51 velocity=95 time=0
EXTRACT: note_on channel=9 note=35 velocity=95 time=0
EXTRACT: note_on channel=4 note=61 velocity=95 time=0.24
EXTRACT: note_off channel=11 note=73 velocity=95 time=0
EXTRACT: note_on channel=11 note=73 velocity=95 time=0
EXTRACT: note_off channel=10 note=85 velocity=95 time=0
EXTRACT: note_on channel=10 note=85 velocity=95 time=0
EXTRACT: note_off channel=13 note=35 velocity=95 time=0
EXTRACT: note_on channel=13 note=35 velocity=95 time=0
EXTRACT: note_off channel=9 note=60 velocity=95 time=0
EXTRACT: note_on channel=9 note=60 velocity=95 time=0
EXTRACT: note_off channel=9 note=51 velocity=95 time=0
EXTRACT: note_off channel=9 note=35 velocity=95 time=0
EXTRACT: note_on channel=9 note=51 velocity=95 time=0
EXTRACT: note_off channel=15 note=73 velocity=95 time=0.24
EXTRACT: note_on channel=15 note=74 velocity=95 time=0
EXTRACT: note_off channel=4 note=61 velocity=95 time=0
EXTRACT: note_off channel=13 note=35 velocity=95 time=0
EXTRACT: note_on channel=13 note=42 velocity=95 time=0
EXTRACT: note_off channel=9 note=60 velocity=95 time=0
EXTRACT: note_on channel=9 note=61 velocity=95 time=0
EXTRACT: note_off channel=9 note=51 velocity=95 time=0
EXTRACT: note_on channel=9 note=51 velocity=95 time=0
EXTRACT: note_on channel=9 note=38 velocity=95 time=0
EXTRACT: note_on channel=9 note=35 velocity=95 time=0
EXTRACT: note_off channel=15 note=74 velocity=95 time=0.24
EXTRACT: note_on channel=15 note=73 velocity=95 time=0
EXTRACT: note_off channel=2 note=69 velocity=95 time=0
EXTRACT: note_off channel=2 note=66 velocity=95 time=0
EXTRACT: note_off channel=2 note=62 velocity=95 time=0
EXTRACT: note_on channel=2 note=68 velocity=95 time=0
EXTRACT: note_on channel=2 note=62 velocity=95 time=0
EXTRACT: note_on channel=2 note=59 velocity=95 time=0
EXTRACT: note_on channel=4 note=59 velocity=95 time=0
EXTRACT: note_off channel=8 note=69 velocity=95 time=0
EXTRACT: note_on channel=8 note=68 velocity=95 time=0
EXTRACT: note_off channel=11 note=73 velocity=95 time=0
EXTRACT: note_on channel=11 note=71 velocity=95 time=0
EXTRACT: note_off channel=10 note=85 velocity=95 time=0
EXTRACT: note_on channel=10 note=83 velocity=95 time=0
EXTRACT: note_off channel=13 note=42 velocity=95 time=0
EXTRACT: note_on channel=13 note=40 velocity=95 time=0
EXTRACT: note_off channel=9 note=61 velocity=95 time=0
EXTRACT: note_on channel=9 note=60 velocity=95 time=0
EXTRACT: note_off channel=9 note=51 velocity=95 time=0
EXTRACT: note_off channel=9 note=38 velocity=95 time=0
EXTRACT: note_off channel=9 note=35 velocity=95 time=0
EXTRACT: note_on channel=9 note=51 velocity=95 time=0
EXTRACT: note_off channel=4 note=59 velocity=95 time=0.24
EXTRACT: note_off channel=11 note=71 velocity=95 time=0
EXTRACT: note_on channel=11 note=71 velocity=95 time=0
EXTRACT: note_off channel=10 note=83 velocity=95 time=0
EXTRACT: note_on channel=10 note=83 velocity=95 time=0
EXTRACT: note_off channel=13 note=40 velocity=95 time=0
EXTRACT: note_off channel=9 note=60 velocity=95 time=0
EXTRACT: note_on channel=9 note=60 velocity=95 time=0
EXTRACT: note_off channel=9 note=51 velocity=95 time=0
EXTRACT: note_on channel=9 note=51 velocity=95 time=0
EXTRACT: note_on channel=9 note=35 velocity=95 time=0
EXTRACT: note_on channel=4 note=57 velocity=95 time=0.24
EXTRACT: note_on channel=13 note=33 velocity=95 time=0
EXTRACT: note_off channel=9 note=60 velocity=95 time=0
EXTRACT: note_on channel=9 note=60 velocity=95 time=0
EXTRACT: note_off channel=9 note=51 velocity=95 time=0
EXTRACT: note_off channel=9 note=35 velocity=95 time=0
EXTRACT: note_on channel=9 note=51 velocity=95 time=0
EXTRACT: note_off channel=15 note=73 velocity=95 time=0.24
EXTRACT: note_on channel=15 note=71 velocity=95 time=0
EXTRACT: note_off channel=4 note=57 velocity=95 time=0
EXTRACT: note_off channel=11 note=71 velocity=95 time=0
EXTRACT: note_on channel=11 note=71 velocity=95 time=0
EXTRACT: note_off channel=10 note=83 velocity=95 time=0
EXTRACT: note_on channel=10 note=83 velocity=95 time=0
EXTRACT: note_off channel=13 note=33 velocity=95 time=0
EXTRACT: note_on channel=13 note=35 velocity=95 time=0
EXTRACT: note_off channel=9 note=60 velocity=95 time=0
EXTRACT: note_on channel=9 note=60 velocity=95 time=0
EXTRACT: note_off channel=9 note=51 velocity=95 time=0
EXTRACT: note_on channel=9 note=51 velocity=95 time=0
EXTRACT: note_on channel=9 note=38 velocity=95 time=0
EXTRACT: note_on channel=9 note=35 velocity=95 time=0
EXTRACT: note_off channel=15 note=71 velocity=95 time=0.24
EXTRACT: note_on channel=15 note=69 velocity=95 time=0
EXTRACT: note_off channel=11 note=71 velocity=95 time=0
EXTRACT: note_on channel=11 note=71 velocity=95 time=0
EXTRACT: note_off channel=10 note=83 velocity=95 time=0
EXTRACT: note_on channel=10 note=83 velocity=95 time=0
EXTRACT: note_off channel=13 note=35 velocity=95 time=0
EXTRACT: note_on channel=13 note=36 velocity=95 time=0
EXTRACT: note_off channel=9 note=60 velocity=95 time=0
EXTRACT: note_on channel=9 note=61 velocity=95 time=0
EXTRACT: note_off channel=9 note=51 velocity=95 time=0
EXTRACT: note_off channel=9 note=38 velocity=95 time=0
EXTRACT: note_off channel=9 note=35 velocity=95 time=0
EXTRACT: note_on channel=9 note=51 velocity=95 time=0
EXTRACT: note_off channel=2 note=68 velocity=95 time=0.24
EXTRACT: note_off channel=2 note=62 velocity=95 time=0
EXTRACT: note_off channel=2 note=59 velocity=95 time=0
EXTRACT: note_on channel=2 note=71 velocity=95 time=0
EXTRACT: note_on channel=2 note=68 velocity=95 time=0
EXTRACT: note_on channel=2 note=64 velocity=95 time=0
EXTRACT: note_on channel=4 note=59 velocity=95 time=0
EXTRACT: note_off channel=8 note=68 velocity=95 time=0
EXTRACT: note_on channel=8 note=71 velocity=95 time=0
EXTRACT: note_off channel=13 note=36 velocity=95 time=0
EXTRACT: note_on channel=13 note=37 velocity=95 time=0
EXTRACT: note_off channel=9 note=61 velocity=95 time=0
EXTRACT: note_on channel=9 note=60 velocity=95 time=0
EXTRACT: note_off channel=9 note=51 velocity=95 time=0
EXTRACT: note_on channel=9 note=51 velocity=95 time=0
EXTRACT: note_on channel=9 note=35 velocity=95 time=0
EXTRACT: note_off channel=4 note=59 velocity=95 time=0.24
EXTRACT: note_on channel=4 note=59 velocity=95 time=0
EXTRACT: note_off channel=11 note=71 velocity=95 time=0
EXTRACT: note_on channel=11 note=71 velocity=95 time=0
EXTRACT: note_off channel=10 note=83 velocity=95 time=0
EXTRACT: note_on channel=10 note=83 velocity=95 time=0
EXTRACT: note_off channel=13 note=37 velocity=95 time=0
EXTRACT: note_on channel=13 note=40 velocity=95 time=0
EXTRACT: note_off channel=9 note=60 velocity=95 time=0
EXTRACT: note_on channel=9 note=60 velocity=95 time=0
EXTRACT: note_off channel=9 note=51 velocity=95 time=0
EXTRACT: note_off channel=9 note=35 velocity=95 time=0
EXTRACT: note_on channel=9 note=51 velocity=95 time=0
EXTRACT: note_off channel=15 note=69 velocity=95 time=0.24
EXTRACT: note_on channel=15 note=71 velocity=95 time=0
EXTRACT: note_off channel=4 note=59 velocity=95 time=0
EXTRACT: note_on channel=4 note=59 velocity=95 time=0
EXTRACT: note_off channel=11 note=71 velocity=95 time=0
EXTRACT: note_on channel=11 note=71 velocity=95 time=0
EXTRACT: note_off channel=10 note=83 velocity=95 time=0
EXTRACT: note_on channel=10 note=83 velocity=95 time=0
EXTRACT: note_off channel=13 note=40 velocity=95 time=0
EXTRACT: note_on channel=13 note=41 velocity=95 time=0
EXTRACT: note_off channel=9 note=60 velocity=95 time=0
EXTRACT: note_on channel=9 note=61 velocity=95 time=0
EXTRACT: note_off channel=9 note=51 velocity=95 time=0
EXTRACT: note_on channel=9 note=51 velocity=95 time=0
EXTRACT: note_on channel=9 note=38 velocity=95 time=0
EXTRACT: note_on channel=9 note=35 velocity=95 time=0
EXTRACT: note_off channel=15 note=71 velocity=95 time=0.24
EXTRACT: note_on channel=15 note=66 velocity=95 time=0
EXTRACT: note_off channel=2 note=71 velocity=95 time=0
EXTRACT: note_off channel=2 note=68 velocity=95 time=0
EXTRACT: note_off channel=2 note=64 velocity=95 time=0
EXTRACT: note_on channel=2 note=69 velocity=95 time=0
EXTRACT: note_on channel=2 note=64 velocity=95 time=0
EXTRACT: note_on channel=2 note=61 velocity=95 time=0
EXTRACT: note_off channel=4 note=59 velocity=95 time=0
EXTRACT: note_on channel=4 note=56 velocity=95 time=0
EXTRACT: note_off channel=8 note=71 velocity=95 time=0
EXTRACT: note_on channel=8 note=69 velocity=95 time=0
EXTRACT: note_off channel=13 note=41 velocity=95 time=0
EXTRACT: note_on channel=13 note=42 velocity=95 time=0
EXTRACT: note_off channel=9 note=61 velocity=95 time=0
EXTRACT: note_on channel=9 note=60 velocity=95 time=0
EXTRACT: note_off channel=9 note=51 velocity=95 time=0
EXTRACT: note_off channel=9 note=38 velocity=95 time=0
EXTRACT: note_off channel=9 note=35 velocity=95 time=0
EXTRACT: note_on channel=9 note=51 velocity=95 time=0
EXTRACT: note_off channel=11 note=71 velocity=95 time=0.24
EXTRACT: note_on channel=11 note=69 velocity=95 time=0
EXTRACT: note_off channel=10 note=83 velocity=95 time=0
EXTRACT: note_on channel=10 note=81 velocity=95 time=0
EXTRACT: note_off channel=13 note=42 velocity=95 time=0
EXTRACT: note_off channel=9 note=60 velocity=95 time=0
EXTRACT: note_on channel=9 note=60 velocity=95 time=0
EXTRACT: note_off channel=9 note=51 velocity=95 time=0
EXTRACT: note_on channel=9 note=51 velocity=95 time=0
EXTRACT: note_on channel=9 note=35 velocity=95 time=0
EXTRACT: note_off channel=4 note=56 velocity=95 time=0.24
EXTRACT: note_on channel=4 note=57 velocity=95 time=0
EXTRACT: note_off channel=11 note=69 velocity=95 time=0
EXTRACT: note_on channel=11 note=69 velocity=95 time=0
EXTRACT: note_off channel=10 note=81 velocity=95 time=0
EXTRACT: note_on channel=10 note=81 velocity=95 time=0
EXTRACT: note_on channel=13 note=42 velocity=95 time=0
EXTRACT: note_off channel=9 note=60 velocity=95 time=0
EXTRACT: note_on channel=9 note=60 velocity=95 time=0
EXTRACT: note_off channel=9 note=51 velocity=95 time=0
EXTRACT: note_off channel=9 note=35 velocity=95 time=0
EXTRACT: note_on channel=9 note=51 velocity=95 time=0
EXTRACT: note_off channel=15 note=66 velocity=95 time=0.24
EXTRACT: note_off channel=4 note=57 velocity=95 time=0
EXTRACT: note_off channel=11 note=69 velocity=95 time=0
EXTRACT: note_on channel=11 note=69 velocity=95 time=0
EXTRACT: note_off channel=10 note=81 velocity=95 time=0
EXTRACT: note_on channel=10 note=81 velocity=95 time=0
EXTRACT: note_off channel=13 note=42 velocity=95 time=0
EXTRACT: note_on channel=13 note=37 velocity=95 time=0
EXTRACT: note_off channel=9 note=60 velocity=95 time=0
EXTRACT: note_on channel=9 note=60 velocity=95 time=0
EXTRACT: note_off channel=9 note=51 velocity=95 time=0
EXTRACT: note_on channel=9 note=51 velocity=95 time=0
EXTRACT: note_on channel=9 note=38 velocity=95 time=0
EXTRACT: note_on channel=9 note=35 velocity=95 time=0
EXTRACT: note_off channel=11 note=69 velocity=95 time=0.24
EXTRACT: note_off channel=10 note=81 velocity=95 time=0
EXTRACT: note_off channel=13 note=37 velocity=95 time=0
EXTRACT: note_on channel=13 note=33 velocity=95 time=0
EXTRACT: note_off channel=9 note=60 velocity=95 time=0
EXTRACT: note_on channel=9 note=61 velocity=95 time=0
EXTRACT: note_off channel=9 note=51 velocity=95 time=0
EXTRACT: note_off channel=9 note=38 velocity=95 time=0
EXTRACT: note_off channel=9 note=35 velocity=95 time=0
EXTRACT: note_on channel=9 note=51 velocity=95 time=0
EXTRACT: note_on channel=15 note=73 velocity=95 time=0.24
EXTRACT: note_off channel=2 note=69 velocity=95 time=0
EXTRACT: note_off channel=2 note=64 velocity=95 time=0
EXTRACT: note_off channel=2 note=61 velocity=95 time=0
EXTRACT: note_on channel=2 note=69 velocity=95 time=0
EXTRACT: note_on channel=2 note=66 velocity=95 time=0
EXTRACT: note_on channel=2 note=62 velocity=95 time=0
EXTRACT: note_off channel=8 note=69 velocity=95 time=0
EXTRACT: note_on channel=8 note=69 velocity=95 time=0
EXTRACT: note_on channel=11 note=73 velocity=95 time=0
EXTRACT: note_on channel=10 note=85 velocity=95 time=0
EXTRACT: note_off channel=13 note=33 velocity=95 time=0
EXTRACT: note_on channel=13 note=35 velocity=95 time=0
EXTRACT: note_off channel=9 note=61 velocity=95 time=0
EXTRACT: note_on channel=9 note=60 velocity=95 time=0
EXTRACT: note_off channel=9 note=51 velocity=95 time=0
EXTRACT: note_on channel=9 note=51 velocity=95 time=0
EXTRACT: note_on channel=9 note=35 velocity=95 time=0
EXTRACT: note_on channel=4 note=61 velocity=95 time=0.24
EXTRACT: note_off channel=11 note=73 velocity=95 time=0
EXTRACT: note_on channel=11 note=73 velocity=95 time=0
EXTRACT: note_off channel=10 note=85 velocity=95 time=0
EXTRACT: note_on channel=10 note=85 velocity=95 time=0
EXTRACT: note_off channel=13 note=35 velocity=95 time=0
EXTRACT: note_on channel=13 note=35 velocity=95 time=0
EXTRACT: note_off channel=9 note=60 velocity=95 time=0
EXTRACT: note_on channel=9 note=60 velocity=95 time=0
EXTRACT: note_off channel=9 note=51 velocity=95 time=0
EXTRACT: note_off channel=9 note=35 velocity=95 time=0
EXTRACT: note_on channel=9 note=51 velocity=95 time=0
EXTRACT: note_off channel=15 note=73 velocity=95 time=0.24
EXTRACT: note_on channel=15 note=74 velocity=95 time=0
EXTRACT: note_off channel=4 note=61 velocity=95 time=0
EXTRACT: note_off channel=13 note=35 velocity=95 time=0
EXTRACT: note_on channel=13 note=42 velocity=95 time=0
EXTRACT: note_off channel=9 note=60 velocity=95 time=0
EXTRACT: note_on channel=9 note=61 velocity=95 time=0
EXTRACT: note_off channel=9 note=51 velocity=95 time=0
EXTRACT: note_on channel=9 note=51 velocity=95 time=0
EXTRACT: note_on channel=9 note=38 velocity=95 time=0
EXTRACT: note_on channel=9 note=35 velocity=95 time=0
EXTRACT: note_off channel=15 note=74 velocity=95 time=0.24
EXTRACT: note_on channel=15 note=73 velocity=95 time=0
EXTRACT: note_off channel=2 note=69 velocity=95 time=0
EXTRACT: note_off channel=2 note=66 velocity=95 time=0
EXTRACT: note_off channel=2 note=62 velocity=95 time=0
EXTRACT: note_on channel=2 note=68 velocity=95 time=0
EXTRACT: note_on channel=2 note=62 velocity=95 time=0
EXTRACT: note_on channel=2 note=59 velocity=95 time=0
EXTRACT: note_on channel=4 note=59 velocity=95 time=0
EXTRACT: note_off channel=8 note=69 velocity=95 time=0
EXTRACT: note_on channel=8 note=68 velocity=95 time=0
EXTRACT: note_off channel=11 note=73 velocity=95 time=0
EXTRACT: note_on channel=11 note=71 velocity=95 time=0
EXTRACT: note_off channel=10 note=85 velocity=95 time=0
EXTRACT: note_on channel=10 note=83 velocity=95 time=0
EXTRACT: note_off channel=13 note=42 velocity=95 time=0
EXTRACT: note_on channel=13 note=40 velocity=95 time=0
EXTRACT: note_off channel=9 note=61 velocity=95 time=0
EXTRACT: note_on channel=9 note=60 velocity=95 time=0
EXTRACT: note_off channel=9 note=51 velocity=95 time=0
EXTRACT: note_off channel=9 note=38 velocity=95 time=0
EXTRACT: note_off channel=9 note=35 velocity=95 time=0
EXTRACT: note_on channel=9 note=51 velocity=95 time=0
EXTRACT: note_off channel=4 note=59 velocity=95 time=0.24
EXTRACT: note_off channel=11 note=71 velocity=95 time=0
EXTRACT: note_on channel=11 note=71 velocity=95 time=0
EXTRACT: note_off channel=10 note=83 velocity=95 time=0
EXTRACT: note_on channel=10 note=83 velocity=95 time=0
EXTRACT: note_off channel=13 note=40 velocity=95 time=0
EXTRACT: note_off channel=9 note=60 velocity=95 time=0
EXTRACT: note_on channel=9 note=60 velocity=95 time=0
EXTRACT: note_off channel=9 note=51 velocity=95 time=0
EXTRACT: note_on channel=9 note=51 velocity=95 time=0
EXTRACT: note_on channel=9 note=35 velocity=95 time=0
EXTRACT: note_on channel=4 note=57 velocity=95 time=0.24
EXTRACT: note_on channel=13 note=33 velocity=95 time=0
EXTRACT: note_off channel=9 note=60 velocity=95 time=0
EXTRACT: note_on channel=9 note=60 velocity=95 time=0
EXTRACT: note_off channel=9 note=51 velocity=95 time=0
EXTRACT: note_off channel=9 note=35 velocity=95 time=0
EXTRACT: note_on channel=9 note=51 velocity=95 time=0
EXTRACT: note_off channel=15 note=73 velocity=95 time=0.24
EXTRACT: note_on channel=15 note=71 velocity=95 time=0
EXTRACT: note_off channel=4 note=57 velocity=95 time=0
EXTRACT: note_off channel=11 note=71 velocity=95 time=0
EXTRACT: note_on channel=11 note=71 velocity=95 time=0
EXTRACT: note_off channel=10 note=83 velocity=95 time=0
EXTRACT: note_on channel=10 note=83 velocity=95 time=0
EXTRACT: note_off channel=13 note=33 velocity=95 time=0
EXTRACT: note_on channel=13 note=35 velocity=95 time=0
EXTRACT: note_off channel=9 note=60 velocity=95 time=0
EXTRACT: note_on channel=9 note=60 velocity=95 time=0
EXTRACT: note_off channel=9 note=51 velocity=95 time=0
EXTRACT: note_on channel=9 note=51 velocity=95 time=0
EXTRACT: note_on channel=9 note=38 velocity=95 time=0
EXTRACT: note_on channel=9 note=35 velocity=95 time=0
EXTRACT: note_off channel=15 note=71 velocity=95 time=0.24
EXTRACT: note_on channel=15 note=69 velocity=95 time=0
EXTRACT: note_on channel=4 note=45 velocity=95 time=0
EXTRACT: note_off channel=11 note=71 velocity=95 time=0
EXTRACT: note_on channel=11 note=71 velocity=95 time=0
EXTRACT: note_off channel=10 note=83 velocity=95 time=0
EXTRACT: note_on channel=10 note=83 velocity=95 time=0
EXTRACT: note_off channel=13 note=35 velocity=95 time=0
EXTRACT: note_on channel=13 note=36 velocity=95 time=0
EXTRACT: note_off channel=9 note=60 velocity=95 time=0
EXTRACT: note_on channel=9 note=61 velocity=95 time=0
EXTRACT: note_off channel=9 note=51 velocity=95 time=0
EXTRACT: note_off channel=9 note=38 velocity=95 time=0
EXTRACT: note_off channel=9 note=35 velocity=95 time=0
EXTRACT: note_on channel=9 note=51 velocity=95 time=0
EXTRACT: note_off channel=4 note=45 velocity=95 time=0.031
EXTRACT: note_off channel=2 note=68 velocity=95 time=0.209
EXTRACT: note_off channel=2 note=62 velocity=95 time=0
EXTRACT: note_off channel=2 note=59 velocity=95 time=0
EXTRACT: note_on channel=2 note=71 velocity=95 time=0
EXTRACT: note_on channel=2 note=68 velocity=95 time=0
EXTRACT: note_on channel=2 note=64 velocity=95 time=0
EXTRACT: note_on channel=5 note=59 velocity=95 time=0
EXTRACT: note_off channel=8 note=68 velocity=95 time=0
EXTRACT: note_on channel=8 note=71 velocity=95 time=0
EXTRACT: note_off channel=13 note=36 velocity=95 time=0
EXTRACT: note_on channel=13 note=37 velocity=95 time=0
EXTRACT: note_off channel=9 note=61 velocity=95 time=0
EXTRACT: note_on channel=9 note=60 velocity=95 time=0
EXTRACT: note_off channel=9 note=51 velocity=95 time=0
EXTRACT: note_on channel=9 note=51 velocity=95 time=0
EXTRACT: note_on channel=9 note=35 velocity=95 time=0
EXTRACT: pitchwheel channel=5 pitch=0 time=0.06
EXTRACT: pitchwheel channel=5 pitch=0 time=0.06
EXTRACT: pitchwheel channel=5 pitch=0 time=0.06
EXTRACT: pitchwheel channel=5 pitch=0 time=0.06
EXTRACT: pitchwheel channel=5 pitch=0 time=0
EXTRACT: note_off channel=5 note=59 velocity=95 time=0
EXTRACT: note_on channel=4 note=59 velocity=95 time=0
EXTRACT: note_off channel=11 note=71 velocity=95 time=0
EXTRACT: note_on channel=11 note=71 velocity=95 time=0
EXTRACT: note_off channel=10 note=83 velocity=95 time=0
EXTRACT: note_on channel=10 note=83 velocity=95 time=0
EXTRACT: note_off channel=13 note=37 velocity=95 time=0
EXTRACT: note_on channel=13 note=40 velocity=95 time=0
EXTRACT: note_off channel=9 note=60 velocity=95 time=0
EXTRACT: note_on channel=9 note=60 velocity=95 time=0
EXTRACT: note_off channel=9 note=51 velocity=95 time=0
EXTRACT: note_off channel=9 note=35 velocity=95 time=0
EXTRACT: note_on channel=9 note=51 velocity=95 time=0
EXTRACT: note_off channel=15 note=69 velocity=95 time=0.24
EXTRACT: note_on channel=15 note=71 velocity=95 time=0
EXTRACT: note_off channel=4 note=59 velocity=95 time=0
EXTRACT: note_on channel=4 note=59 velocity=95 time=0
EXTRACT: note_off channel=11 note=71 velocity=95 time=0
EXTRACT: note_on channel=11 note=71 velocity=95 time=0
EXTRACT: note_off channel=10 note=83 velocity=95 time=0
EXTRACT: note_on channel=10 note=83 velocity=95 time=0
EXTRACT: note_off channel=13 note=40 velocity=95 time=0
EXTRACT: note_on channel=13 note=41 velocity=95 time=0
EXTRACT: note_off channel=9 note=60 velocity=95 time=0
EXTRACT: note_on channel=9 note=61 velocity=95 time=0
EXTRACT: note_off channel=9 note=51 velocity=95 time=0
EXTRACT: note_on channel=9 note=51 velocity=95 time=0
EXTRACT: note_on channel=9 note=38 velocity=95 time=0
EXTRACT: note_on channel=9 note=35 velocity=95 time=0
EXTRACT: note_off channel=15 note=71 velocity=95 time=0.24
EXTRACT: note_on channel=15 note=66 velocity=95 time=0
EXTRACT: note_off channel=2 note=71 velocity=95 time=0
EXTRACT: note_off channel=2 note=68 velocity=95 time=0
EXTRACT: note_off channel=2 note=64 velocity=95 time=0
EXTRACT: note_on channel=2 note=69 velocity=95 time=0
EXTRACT: note_on channel=2 note=64 velocity=95 time=0
EXTRACT: note_on channel=2 note=61 velocity=95 time=0
EXTRACT: note_off channel=4 note=59 velocity=95 time=0
EXTRACT: note_on channel=4 note=56 velocity=95 time=0
EXTRACT: note_off channel=8 note=71 velocity=95 time=0
EXTRACT: note_on channel=8 note=69 velocity=95 time=0
EXTRACT: note_off channel=13 note=41 velocity=95 time=0
EXTRACT: note_on channel=13 note=42 velocity=95 time=0
EXTRACT: note_off channel=9 note=61 velocity=95 time=0
EXTRACT: note_on channel=9 note=60 velocity=95 time=0
EXTRACT: note_off channel=9 note=51 velocity=95 time=0
EXTRACT: note_off channel=9 note=38 velocity=95 time=0
EXTRACT: note_off channel=9 note=35 velocity=95 time=0
EXTRACT: note_on channel=9 note=51 velocity=95 time=0
EXTRACT: note_off channel=11 note=71 velocity=95 time=0.24
EXTRACT: note_on channel=11 note=69 velocity=95 time=0
EXTRACT: note_off channel=10 note=83 velocity=95 time=0
EXTRACT: note_on channel=10 note=81 velocity=95 time=0
EXTRACT: note_off channel=13 note=42 velocity=95 time=0
EXTRACT: note_off channel=9 note=60 velocity=95 time=0
EXTRACT: note_on channel=9 note=60 velocity=95 time=0
EXTRACT: note_off channel=9 note=51 velocity=95 time=0
EXTRACT: note_on channel=9 note=51 velocity=95 time=0
EXTRACT: note_on channel=9 note=35 velocity=95 time=0
EXTRACT: note_off channel=4 note=56 velocity=95 time=0.24
EXTRACT: note_on channel=4 note=57 velocity=95 time=0
EXTRACT: note_off channel=11 note=69 velocity=95 time=0
EXTRACT: note_on channel=11 note=69 velocity=95 time=0
EXTRACT: note_off channel=10 note=81 velocity=95 time=0
EXTRACT: note_on channel=10 note=81 velocity=95 time=0
EXTRACT: note_on channel=13 note=42 velocity=95 time=0
EXTRACT: note_off channel=9 note=60 velocity=95 time=0
EXTRACT: note_on channel=9 note=60 velocity=95 time=0
EXTRACT: note_off channel=9 note=51 velocity=95 time=0
EXTRACT: note_off channel=9 note=35 velocity=95 time=0
EXTRACT: note_on channel=9 note=51 velocity=95 time=0
EXTRACT: note_off channel=15 note=66 velocity=95 time=0.24
EXTRACT: note_on channel=15 note=71 velocity=95 time=0
EXTRACT: note_off channel=4 note=57 velocity=95 time=0
EXTRACT: note_off channel=11 note=69 velocity=95 time=0
EXTRACT: note_on channel=11 note=69 velocity=95 time=0
EXTRACT: note_off channel=10 note=81 velocity=95 time=0
EXTRACT: note_on channel=10 note=81 velocity=95 time=0
EXTRACT: note_off channel=13 note=42 velocity=95 time=0
EXTRACT: note_on channel=13 note=37 velocity=95 time=0
EXTRACT: note_off channel=9 note=60 velocity=95 time=0
EXTRACT: note_on channel=9 note=60 velocity=95 time=0
EXTRACT: note_off channel=9 note=51 velocity=95 time=0
EXTRACT: note_on channel=9 note=51 velocity=95 time=0
EXTRACT: note_on channel=9 note=38 velocity=95 time=0
EXTRACT: note_on channel=9 note=35 velocity=95 time=0
EXTRACT: note_off channel=15 note=71 velocity=95 time=0.24
EXTRACT: note_on channel=15 note=76 velocity=95 time=0
EXTRACT: note_on channel=15 note=69 velocity=95 time=0
EXTRACT: note_off channel=11 note=69 velocity=95 time=0
EXTRACT: note_off channel=10 note=81 velocity=95 time=0
EXTRACT: note_off channel=13 note=37 velocity=95 time=0
EXTRACT: note_on channel=13 note=35 velocity=95 time=0
EXTRACT: note_off channel=9 note=60 velocity=95 time=0
EXTRACT: note_on channel=9 note=61 velocity=95 time=0
EXTRACT: note_off channel=9 note=51 velocity=95 time=0
EXTRACT: note_off channel=9 note=38 velocity=95 time=0
EXTRACT: note_off channel=9 note=35 velocity=95 time=0
EXTRACT: note_on channel=9 note=51 velocity=95 time=0
EXTRACT: note_off channel=2 note=69 velocity=95 time=0.24
EXTRACT: note_off channel=2 note=64 velocity=95 time=0
EXTRACT: note_off channel=2 note=61 velocity=95 time=0
EXTRACT: note_on channel=2 note=69 velocity=95 time=0
EXTRACT: note_on channel=2 note=67 velocity=95 time=0
EXTRACT: note_on channel=2 note=62 velocity=95 time=0
EXTRACT: note_on channel=2 note=59 velocity=95 time=0
EXTRACT: note_off channel=8 note=69 velocity=95 time=0
EXTRACT: note_on channel=8 note=69 velocity=95 time=0
EXTRACT: note_on channel=11 note=69 velocity=95 time=0
EXTRACT: note_on channel=10 note=81 velocity=95 time=0
EXTRACT: note_on channel=10 note=76 velocity=95 time=0
EXTRACT: note_off channel=13 note=35 velocity=95 time=0
EXTRACT: note_on channel=13 note=33 velocity=95 time=0
EXTRACT: note_off channel=9 note=61 velocity=95 time=0
EXTRACT: note_on channel=9 note=60 velocity=95 time=0
EXTRACT: note_off channel=9 note=51 velocity=95 time=0
EXTRACT: note_on channel=9 note=51 velocity=95 time=0
EXTRACT: note_on channel=9 note=35 velocity=95 time=0
EXTRACT: note_off channel=8 note=69 velocity=95 time=0.12
EXTRACT: note_on channel=8 note=69 velocity=95 time=0
EXTRACT: note_off channel=13 note=33 velocity=95 time=0
EXTRACT: note_on channel=4 note=47 velocity=95 time=0.12
EXTRACT: note_off channel=8 note=69 velocity=95 time=0
EXTRACT: note_on channel=8 note=66 velocity=95 time=0
EXTRACT: note_off channel=11 note=69 velocity=95 time=0
EXTRACT: note_on channel=11 note=69 velocity=95 time=0
EXTRACT: note_off channel=10 note=81 velocity=95 time=0
EXTRACT: note_off channel=10 note=76 velocity=95 time=0
EXTRACT: note_on channel=10 note=81 velocity=95 time=0
EXTRACT: note_on channel=10 note=76 velocity=95 time=0
EXTRACT: note_on channel=13 note=33 velocity=95 time=0
EXTRACT: note_off channel=9 note=60 velocity=95 time=0
EXTRACT: note_on channel=9 note=60 velocity=95 time=0
EXTRACT: note_off channel=9 note=51 velocity=95 time=0
EXTRACT: note_off channel=9 note=35 velocity=95 time=0
EXTRACT: note_on channel=9 note=51 velocity=95 time=0
EXTRACT: note_off channel=4 note=47 velocity=95 time=0.12
EXTRACT: note_on channel=4 note=49 velocity=70 time=0
EXTRACT: note_off channel=8 note=66 velocity=95 time=0
EXTRACT: note_on channel=8 note=64 velocity=95 time=0
EXTRACT: note_off channel=4 note=49 velocity=70 time=0.12
EXTRACT: note_on channel=4 note=45 velocity=95 time=0
EXTRACT: note_off channel=8 note=64 velocity=95 time=0
EXTRACT: note_on channel=8 note=69 velocity=95 time=0
EXTRACT: note_off channel=13 note=33 velocity=95 time=0
EXTRACT: note_on channel=13 note=55 velocity=95 time=0
EXTRACT: note_off channel=9 note=60 velocity=95 time=0
EXTRACT: note_on channel=9 note=61 velocity=95 time=0
EXTRACT: note_off channel=9 note=51 velocity=95 time=0
EXTRACT: note_on channel=9 note=51 velocity=95 time=0
EXTRACT: note_on channel=9 note=38 velocity=95 time=0
EXTRACT: note_on channel=9 note=35 velocity=95 time=0
EXTRACT: note_off channel=4 note=45 velocity=95 time=0.031
EXTRACT: note_on channel=4 note=54 velocity=95 time=0.089
EXTRACT: note_off channel=8 note=69 velocity=95 time=0
EXTRACT: note_on channel=8 note=69 velocity=95 time=0
EXTRACT: note_off channel=4 note=54 velocity=95 time=0.12
EXTRACT: note_off channel=8 note=69 velocity=95 time=0
EXTRACT: note_on channel=8 note=66 velocity=95 time=0
EXTRACT: note_off channel=11 note=69 velocity=95 time=0
EXTRACT: note_on channel=11 note=69 velocity=95 time=0
EXTRACT: note_off channel=10 note=81 velocity=95 time=0
EXTRACT: note_off channel=10 note=76 velocity=95 time=0
EXTRACT: note_on channel=10 note=81 velocity=95 time=0
EXTRACT: note_on channel=10 note=76 velocity=95 time=0
EXTRACT: note_off channel=13 note=55 velocity=95 time=0
EXTRACT: note_on channel=13 note=57 velocity=95 time=0
EXTRACT: note_off channel=9 note=61 velocity=95 time=0
EXTRACT: note_on channel=9 note=60 velocity=95 time=0
EXTRACT: note_off channel=9 note=51 velocity=95 time=0
EXTRACT: note_off channel=9 note=38 velocity=95 time=0
EXTRACT: note_off channel=9 note=35 velocity=95 time=0
EXTRACT: note_on channel=9 note=51 velocity=95 time=0
EXTRACT: note_off channel=8 note=66 velocity=95 time=0.12
EXTRACT: note_on channel=8 note=64 velocity=95 time=0
EXTRACT: note_off channel=8 note=64 velocity=95 time=0.12
EXTRACT: note_on channel=8 note=69 velocity=95 time=0
EXTRACT: note_off channel=11 note=69 velocity=95 time=0
EXTRACT: note_on channel=11 note=69 velocity=95 time=0
EXTRACT: note_off channel=10 note=81 velocity=95 time=0
EXTRACT: note_off channel=10 note=76 velocity=95 time=0
EXTRACT: note_on channel=10 note=81 velocity=95 time=0
EXTRACT: note_on channel=10 note=76 velocity=95 time=0
EXTRACT: note_off channel=13 note=57 velocity=95 time=0
EXTRACT: note_on channel=13 note=33 velocity=95 time=0
EXTRACT: note_off channel=9 note=60 velocity=95 time=0
EXTRACT: note_on channel=9 note=60 velocity=95 time=0
EXTRACT: note_off channel=9 note=51 velocity=95 time=0
EXTRACT: note_on channel=9 note=51 velocity=95 time=0
EXTRACT: note_on channel=9 note=35 velocity=95 time=0
EXTRACT: note_off channel=8 note=69 velocity=95 time=0.12
EXTRACT: note_on channel=8 note=69 velocity=95 time=0
EXTRACT: note_off channel=13 note=33 velocity=95 time=0
EXTRACT: note_off channel=8 note=69 velocity=95 time=0.12
EXTRACT: note_on channel=8 note=66 velocity=95 time=0
EXTRACT: note_on channel=13 note=33 velocity=95 time=0
EXTRACT: note_off channel=9 note=60 velocity=95 time=0
EXTRACT: note_on channel=9 note=60 velocity=95 time=0
EXTRACT: note_off channel=9 note=51 velocity=95 time=0
EXTRACT: note_off channel=9 note=35 velocity=95 time=0
EXTRACT: note_on channel=9 note=51 velocity=95 time=0
EXTRACT: note_off channel=8 note=66 velocity=95 time=0.12
EXTRACT: note_on channel=8 note=64 velocity=95 time=0
EXTRACT: note_off channel=8 note=64 velocity=95 time=0.12
EXTRACT: note_on channel=8 note=69 velocity=95 time=0
EXTRACT: note_off channel=11 note=69 velocity=95 time=0
EXTRACT: note_on channel=11 note=69 velocity=95 time=0
EXTRACT: note_off channel=10 note=81 velocity=95 time=0
EXTRACT: note_off channel=10 note=76 velocity=95 time=0
EXTRACT: note_on channel=10 note=81 velocity=95 time=0
EXTRACT: note_on channel=10 note=76 velocity=95 time=0
EXTRACT: note_off channel=13 note=33 velocity=95 time=0
EXTRACT: note_on channel=13 note=55 velocity=95 time=0
EXTRACT: note_off channel=9 note=60 velocity=95 time=0
EXTRACT: note_on channel=9 note=60 velocity=95 time=0
EXTRACT: note_off channel=9 note=51 velocity=95 time=0
EXTRACT: note_on channel=9 note=51 velocity=95 time=0
EXTRACT: note_on channel=9 note=38 velocity=95 time=0
EXTRACT: note_on channel=9 note=35 velocity=95 time=0
EXTRACT: note_off channel=8 note=69 velocity=95 time=0.12
EXTRACT: note_on channel=8 note=69 velocity=95 time=0
EXTRACT: note_off channel=8 note=69 velocity=95 time=0.12
EXTRACT: note_on channel=8 note=66 velocity=95 time=0
EXTRACT: note_off channel=11 note=69 velocity=95 time=0
EXTRACT: note_on channel=11 note=69 velocity=95 time=0
EXTRACT: note_off channel=10 note=81 velocity=95 time=0
EXTRACT: note_off channel=10 note=76 velocity=95 time=0
EXTRACT: note_on channel=10 note=81 velocity=95 time=0
EXTRACT: note_on channel=10 note=76 velocity=95 time=0
EXTRACT: note_off channel=13 note=55 velocity=95 time=0
EXTRACT: note_on channel=13 note=57 velocity=95 time=0
EXTRACT: note_off channel=9 note=60 velocity=95 time=0
EXTRACT: note_on channel=9 note=61 velocity=95 time=0
EXTRACT: note_off channel=9 note=51 velocity=95 time=0
EXTRACT: note_off channel=9 note=38 velocity=95 time=0
EXTRACT: note_off channel=9 note=35 velocity=95 time=0
EXTRACT: note_on channel=9 note=51 velocity=95 time=0
EXTRACT: note_off channel=8 note=66 velocity=95 time=0.12
EXTRACT: note_on channel=8 note=64 velocity=95 time=0
EXTRACT: note_off channel=2 note=69 velocity=95 time=0.12
EXTRACT: note_off channel=2 note=67 velocity=95 time=0
EXTRACT: note_off channel=2 note=62 velocity=95 time=0
EXTRACT: note_off channel=2 note=59 velocity=95 time=0
EXTRACT: note_on channel=2 note=69 velocity=95 time=0
EXTRACT: note_on channel=2 note=67 velocity=95 time=0
EXTRACT: note_on channel=2 note=62 velocity=95 time=0
EXTRACT: note_on channel=2 note=59 velocity=95 time=0
EXTRACT: note_off channel=8 note=64 velocity=95 time=0
EXTRACT: note_on channel=8 note=69 velocity=95 time=0
EXTRACT: note_off channel=13 note=57 velocity=95 time=0
EXTRACT: note_on channel=13 note=33 velocity=95 time=0
EXTRACT: note_off channel=9 note=61 velocity=95 time=0
EXTRACT: note_on channel=9 note=60 velocity=95 time=0
EXTRACT: note_off channel=9 note=51 velocity=95 time=0
EXTRACT: note_on channel=9 note=38 velocity=95 time=0
EXTRACT: note_off channel=8 note=69 velocity=95 time=0.12
EXTRACT: note_on channel=8 note=69 velocity=95 time=0
EXTRACT: note_off channel=13 note=33 velocity=95 time=0
EXTRACT: note_on channel=4 note=47 velocity=95 time=0.12
EXTRACT: note_off channel=8 note=69 velocity=95 time=0
EXTRACT: note_on channel=8 note=66 velocity=95 time=0
EXTRACT: note_off channel=11 note=69 velocity=95 time=0
EXTRACT: note_on channel=11 note=69 velocity=95 time=0
EXTRACT: note_off channel=10 note=81 velocity=95 time=0
EXTRACT: note_off channel=10 note=76 velocity=95 time=0
EXTRACT: note_on channel=10 note=81 velocity=95 time=0
EXTRACT: note_on channel=10 note=76 velocity=95 time=0
EXTRACT: note_on channel=13 note=33 velocity=95 time=0
EXTRACT: note_off channel=9 note=60 velocity=95 time=0
EXTRACT: note_on channel=9 note=60 velocity=95 time=0
EXTRACT: note_off channel=9 note=38 velocity=95 time=0
EXTRACT: note_on channel=9 note=38 velocity=95 time=0
EXTRACT: note_off channel=4 note=47 velocity=95 time=0.12
EXTRACT: note_on channel=4 note=49 velocity=70 time=0
EXTRACT: note_off channel=8 note=66 velocity=95 time=0
EXTRACT: note_on channel=8 note=64 velocity=95 time=0
EXTRACT: note_off channel=4 note=49 velocity=70 time=0.12
EXTRACT: note_on channel=4 note=45 velocity=95 time=0
EXTRACT: note_off channel=8 note=64 velocity=95 time=0
EXTRACT: note_on channel=8 note=69 velocity=95 time=0
EXTRACT: note_off channel=11 note=69 velocity=95 time=0
EXTRACT: note_on channel=11 note=69 velocity=95 time=0
EXTRACT: note_off channel=10 note=81 velocity=95 time=0
EXTRACT: note_off channel=10 note=76 velocity=95 time=0
EXTRACT: note_on channel=10 note=81 velocity=95 time=0
EXTRACT: note_on channel=10 note=76 velocity=95 time=0
EXTRACT: note_off channel=13 note=33 velocity=95 time=0
EXTRACT: note_on channel=13 note=55 velocity=95 time=0
EXTRACT: note_off channel=9 note=60 velocity=95 time=0
EXTRACT: note_on channel=9 note=61 velocity=95 time=0
EXTRACT: note_off channel=9 note=38 velocity=95 time=0
EXTRACT: note_on channel=9 note=38 velocity=95 time=0
EXTRACT: note_off channel=4 note=45 velocity=95 time=0.031
EXTRACT: note_on channel=4 note=54 velocity=95 time=0.089
EXTRACT: note_off channel=8 note=69 velocity=95 time=0
EXTRACT: note_on channel=8 note=69 velocity=95 time=0
EXTRACT: note_off channel=4 note=54 velocity=95 time=0.12
EXTRACT: note_off channel=8 note=69 velocity=95 time=0
EXTRACT: note_on channel=8 note=66 velocity=95 time=0
EXTRACT: note_off channel=13 note=55 velocity=95 time=0
EXTRACT: note_on channel=13 note=57 velocity=95 time=0
EXTRACT: note_off channel=9 note=61 velocity=95 time=0
EXTRACT: note_on channel=9 note=60 velocity=95 time=0
EXTRACT: note_off channel=9 note=38 velocity=95 time=0
EXTRACT: note_on channel=9 note=38 velocity=95 time=0
EXTRACT: note_off channel=8 note=66 velocity=95 time=0.12
EXTRACT: note_on channel=8 note=64 velocity=95 time=0
EXTRACT: note_off channel=9 note=38 velocity=95 time=0
EXTRACT: note_on channel=9 note=38 velocity=95 time=0
EXTRACT: note_off channel=2 note=69 velocity=95 time=0.12
EXTRACT: note_off channel=2 note=67 velocity=95 time=0
EXTRACT: note_off channel=2 note=62 velocity=95 time=0
EXTRACT: note_off channel=2 note=59 velocity=95 time=0
EXTRACT: note_on channel=2 note=69 velocity=95 time=0
EXTRACT: note_on channel=2 note=67 velocity=95 time=0
EXTRACT: note_on channel=2 note=62 velocity=95 time=0
EXTRACT: note_on channel=2 note=59 velocity=95 time=0
EXTRACT: note_off channel=8 note=64 velocity=95 time=0
EXTRACT: note_on channel=8 note=69 velocity=95 time=0
EXTRACT: note_off channel=11 note=69 velocity=95 time=0
EXTRACT: note_on channel=11 note=69 velocity=95 time=0
EXTRACT: note_off channel=10 note=81 velocity=95 time=0
EXTRACT: note_off channel=10 note=76 velocity=95 time=0
EXTRACT: note_on channel=10 note=81 velocity=95 time=0
EXTRACT: note_on channel=10 note=76 velocity=95 time=0
EXTRACT: note_off channel=13 note=57 velocity=95 time=0
EXTRACT: note_on channel=13 note=33 velocity=95 time=0
EXTRACT: note_off channel=9 note=60 velocity=95 time=0
EXTRACT: note_on channel=9 note=60 velocity=95 time=0
EXTRACT: note_off channel=9 note=38 velocity=95 time=0
EXTRACT: note_on channel=9 note=38 velocity=95 time=0
EXTRACT: note_off channel=8 note=69 velocity=95 time=0.12
EXTRACT: note_on channel=8 note=69 velocity=95 time=0
EXTRACT: note_off channel=2 note=69 velocity=95 time=0.12
EXTRACT: note_off channel=2 note=67 velocity=95 time=0
EXTRACT: note_off channel=2 note=62 velocity=95 time=0
EXTRACT: note_off channel=2 note=59 velocity=95 time=0
EXTRACT: note_on channel=2 note=69 velocity=95 time=0
EXTRACT: note_on channel=2 note=67 velocity=95 time=0
EXTRACT: note_on channel=2 note=62 velocity=95 time=0
EXTRACT: note_on channel=2 note=59 velocity=95 time=0
EXTRACT: note_off channel=8 note=69 velocity=95 time=0
EXTRACT: note_on channel=8 note=66 velocity=95 time=0
EXTRACT: note_off channel=11 note=69 velocity=95 time=0
EXTRACT: note_on channel=11 note=69 velocity=95 time=0
EXTRACT: note_off channel=10 note=81 velocity=95 time=0
EXTRACT: note_off channel=10 note=76 velocity=95 time=0
EXTRACT: note_on channel=10 note=81 velocity=95 time=0
EXTRACT: note_on channel=10 note=76 velocity=95 time=0
EXTRACT: note_off channel=13 note=33 velocity=95 time=0
EXTRACT: note_off channel=9 note=60 velocity=95 time=0
EXTRACT: note_on channel=9 note=60 velocity=95 time=0
EXTRACT: note_off channel=9 note=38 velocity=95 time=0
EXTRACT: note_on channel=9 note=38 velocity=95 time=0
EXTRACT: note_off channel=8 note=66 velocity=95 time=0.12
EXTRACT: note_on channel=8 note=64 velocity=95 time=0
EXTRACT: note_off channel=15 note=76 velocity=95 time=0.12
EXTRACT: note_off channel=15 note=69 velocity=95 time=0
EXTRACT: note_off channel=2 note=69 velocity=95 time=0
EXTRACT: note_off channel=2 note=67 velocity=95 time=0
EXTRACT: note_off channel=2 note=62 velocity=95 time=0
EXTRACT: note_off channel=2 note=59 velocity=95 time=0
EXTRACT: note_on channel=2 note=69 velocity=95 time=0
EXTRACT: note_on channel=2 note=67 velocity=95 time=0
EXTRACT: note_on channel=2 note=62 velocity=95 time=0
EXTRACT: note_on channel=2 note=59 velocity=95 time=0
EXTRACT: note_off channel=8 note=64 velocity=95 time=0
EXTRACT: note_on channel=8 note=69 velocity=95 time=0
EXTRACT: note_off channel=11 note=69 velocity=95 time=0
EXTRACT: note_on channel=11 note=69 velocity=95 time=0
EXTRACT: note_off channel=10 note=81 velocity=95 time=0
EXTRACT: note_off channel=10 note=76 velocity=95 time=0
EXTRACT: note_on channel=10 note=81 velocity=95 time=0
EXTRACT: note_on channel=10 note=76 velocity=95 time=0
EXTRACT: note_on channel=13 note=34 velocity=95 time=0
EXTRACT: note_off channel=9 note=60 velocity=95 time=0
EXTRACT: note_on channel=9 note=60 velocity=95 time=0
EXTRACT: note_off channel=9 note=38 velocity=95 time=0
EXTRACT: note_on channel=9 note=38 velocity=95 time=0
EXTRACT: note_off channel=8 note=69 velocity=95 time=0.12
EXTRACT: note_on channel=8 note=69 velocity=95 time=0
EXTRACT: note_off channel=2 note=69 velocity=95 time=0.12
EXTRACT: note_off channel=2 note=67 velocity=95 time=0
EXTRACT: note_off channel=2 note=62 velocity=95 time=0
EXTRACT: note_off channel=2 note=59 velocity=95 time=0
EXTRACT: note_off channel=8 note=69 velocity=95 time=0
EXTRACT: note_on channel=8 note=66 velocity=95 time=0
EXTRACT: note_off channel=11 note=69 velocity=95 time=0
EXTRACT: note_off channel=10 note=81 velocity=95 time=0
EXTRACT: note_off channel=10 note=76 velocity=95 time=0
EXTRACT: note_off channel=13 note=34 velocity=95 time=0
EXTRACT: note_off channel=9 note=60 velocity=95 time=0
EXTRACT: note_on channel=9 note=61 velocity=95 time=0
EXTRACT: note_off channel=9 note=38 velocity=95 time=0
EXTRACT: note_on channel=9 note=43 velocity=95 time=0
EXTRACT: note_off channel=8 note=66 velocity=95 time=0.12
EXTRACT: note_on channel=8 note=64 velocity=95 time=0
EXTRACT: note_off channel=8 note=64 velocity=95 time=0.12
EXTRACT: note_off channel=9 note=61 velocity=95 time=0
EXTRACT: note_off channel=9 note=43 velocity=95 time=0
INTERVALS006 - Earth,_Wind,_And_Fire_-_September.mid
unison44
2m63
2M131
3m25
3M30
4m11
4M0
5m13
5M1
6m0
7m0
7M0