EXTRACT: control_change channel=0 control=101 value=0 time=0
EXTRACT: control_change channel=0 control=100 value=0 time=0
EXTRACT: control_change channel=0 control=6 value=12 time=0
EXTRACT: control_change channel=0 control=38 value=0 time=0
EXTRACT: control_change channel=1 control=101 value=0 time=0
EXTRACT: control_change channel=1 control=100 value=0 time=0
EXTRACT: control_change channel=1 control=6 value=12 time=0
EXTRACT: control_change channel=1 control=38 value=0 time=0
EXTRACT: control_change channel=2 control=101 value=0 time=0
EXTRACT: control_change channel=2 control=100 value=0 time=0
EXTRACT: control_change channel=2 control=6 value=12 time=0
EXTRACT: control_change channel=2 control=38 value=0 time=0
EXTRACT: control_change channel=3 control=101 value=0 time=0
EXTRACT: control_change channel=3 control=100 value=0 time=0
EXTRACT: control_change channel=3 control=6 value=12 time=0
EXTRACT: control_change channel=3 control=38 value=0 time=0
EXTRACT: control_change channel=4 control=101 value=0 time=0
EXTRACT: control_change channel=4 control=100 value=0 time=0
EXTRACT: control_change channel=4 control=6 value=12 time=0
EXTRACT: control_change channel=4 control=38 value=0 time=0
EXTRACT: control_change channel=5 control=101 value=0 time=0
EXTRACT: control_change channel=5 control=100 value=0 time=0
EXTRACT: control_change channel=5 control=6 value=12 time=0
EXTRACT: control_change channel=5 control=38 value=0 time=0
EXTRACT: control_change channel=6 control=101 value=0 time=0
EXTRACT: control_change channel=6 control=100 value=0 time=0
EXTRACT: control_change channel=6 control=6 value=12 time=0
EXTRACT: control_change channel=6 control=38 value=0 time=0
EXTRACT: control_change channel=7 control=101 value=0 time=0
EXTRACT: control_change channel=7 control=100 value=0 time=0
EXTRACT: control_change channel=7 control=6 value=12 time=0
EXTRACT: control_change channel=7 control=38 value=0 time=0
EXTRACT: control_change channel=8 control=101 value=0 time=0
EXTRACT: control_change channel=8 control=100 value=0 time=0
EXTRACT: control_change channel=8 control=6 value=12 time=0
EXTRACT: control_change channel=8 control=38 value=0 time=0
EXTRACT: control_change channel=9 control=101 value=0 time=0
EXTRACT: control_change channel=9 control=100 value=0 time=0
EXTRACT: control_change channel=9 control=6 value=12 time=0
EXTRACT: control_change channel=9 control=38 value=0 time=0
EXTRACT: control_change channel=10 control=101 value=0 time=0
EXTRACT: control_change channel=10 control=100 value=0 time=0
EXTRACT: control_change channel=10 control=6 value=12 time=0
EXTRACT: control_change channel=10 control=38 value=0 time=0
EXTRACT: control_change channel=11 control=101 value=0 time=0
EXTRACT: control_change channel=11 control=100 value=0 time=0
EXTRACT: control_change channel=11 control=6 value=12 time=0
EXTRACT: control_change channel=11 control=38 value=0 time=0
EXTRACT: control_change channel=12 control=101 value=0 time=0
EXTRACT: control_change channel=12 control=100 value=0 time=0
EXTRACT: control_change channel=12 control=6 value=12 time=0
EXTRACT: control_change channel=12 control=38 value=0 time=0
EXTRACT: control_change channel=13 control=101 value=0 time=0
EXTRACT: control_change channel=13 control=100 value=0 time=0
EXTRACT: control_change channel=13 control=6 value=12 time=0
EXTRACT: control_change channel=13 control=38 value=0 time=0
EXTRACT: control_change channel=14 control=101 value=0 time=0
EXTRACT: control_change channel=14 control=100 value=0 time=0
EXTRACT: control_change channel=14 control=6 value=12 time=0
EXTRACT: control_change channel=14 control=38 value=0 time=0
EXTRACT: control_change channel=15 control=101 value=0 time=0
EXTRACT: control_change channel=15 control=100 value=0 time=0
EXTRACT: control_change channel=15 control=6 value=12 time=0
EXTRACT: control_change channel=15 control=38 value=0 time=0
EXTRACT: pitchwheel channel=0 pitch=0 time=0
EXTRACT: control_change channel=0 control=7 value=103 time=0
EXTRACT: control_change channel=0 control=10 value=63 time=0
EXTRACT: control_change channel=0 control=93 value=0 time=0
EXTRACT: control_change channel=0 control=91 value=0 time=0
EXTRACT: control_change channel=0 control=95 value=0 time=0
EXTRACT: control_change channel=0 control=92 value=0 time=0
EXTRACT: control_change channel=0 control=11 value=127 time=0
EXTRACT: program_change channel=0 program=26 time=0
EXTRACT: pitchwheel channel=1 pitch=0 time=0
EXTRACT: control_change channel=1 control=7 value=71 time=0
EXTRACT: control_change channel=1 control=10 value=63 time=0
EXTRACT: control_change channel=1 control=93 value=0 time=0
EXTRACT: control_change channel=1 control=91 value=0 time=0
EXTRACT: control_change channel=1 control=95 value=0 time=0
EXTRACT: control_change channel=1 control=92 value=0 time=0
EXTRACT: control_change channel=1 control=11 value=127 time=0
EXTRACT: program_change channel=1 program=92 time=0
EXTRACT: pitchwheel channel=2 pitch=0 time=0
EXTRACT: control_change channel=2 control=7 value=127 time=0
EXTRACT: control_change channel=2 control=10 value=63 time=0
EXTRACT: control_change channel=2 control=93 value=0 time=0
EXTRACT: control_change channel=2 control=91 value=0 time=0
EXTRACT: control_change channel=2 control=95 value=0 time=0
EXTRACT: control_change channel=2 control=92 value=0 time=0
EXTRACT: control_change channel=2 control=11 value=127 time=0
EXTRACT: program_change channel=2 program=90 time=0
EXTRACT: pitchwheel channel=3 pitch=0 time=0
EXTRACT: control_change channel=3 control=7 value=103 time=0
EXTRACT: control_change channel=3 control=10 value=23 time=0
EXTRACT: control_change channel=3 control=93 value=0 time=0
EXTRACT: control_change channel=3 control=91 value=0 time=0
EXTRACT: control_change channel=3 control=95 value=0 time=0
EXTRACT: control_change channel=3 control=92 value=0 time=0
EXTRACT: control_change channel=3 control=11 value=127 time=0
EXTRACT: program_change channel=3 program=71 time=0
EXTRACT: pitchwheel channel=4 pitch=0 time=0
EXTRACT: control_change channel=4 control=7 value=103 time=0
EXTRACT: control_change channel=4 control=10 value=103 time=0
EXTRACT: control_change channel=4 control=93 value=0 time=0
EXTRACT: control_change channel=4 control=91 value=0 time=0
EXTRACT: control_change channel=4 control=95 value=0 time=0
EXTRACT: control_change channel=4 control=92 value=0 time=0
EXTRACT: control_change channel=4 control=11 value=127 time=0
EXTRACT: program_change channel=4 program=71 time=0
EXTRACT: pitchwheel channel=5 pitch=0 time=0
EXTRACT: control_change channel=5 control=7 value=103 time=0
EXTRACT: control_change channel=5 control=10 value=63 time=0
EXTRACT: control_change channel=5 control=93 value=0 time=0
EXTRACT: control_change channel=5 control=91 value=0 time=0
EXTRACT: control_change channel=5 control=95 value=0 time=0
EXTRACT: control_change channel=5 control=92 value=0 time=0
EXTRACT: control_change channel=5 control=11 value=127 time=0
EXTRACT: program_change channel=5 program=122 time=0
EXTRACT: pitchwheel channel=6 pitch=0 time=0
EXTRACT: control_change channel=6 control=7 value=127 time=0
EXTRACT: control_change channel=6 control=10 value=63 time=0
EXTRACT: control_change channel=6 control=93 value=0 time=0
EXTRACT: control_change channel=6 control=91 value=0 time=0
EXTRACT: control_change channel=6 control=95 value=0 time=0
EXTRACT: control_change channel=6 control=92 value=0 time=0
EXTRACT: control_change channel=6 control=11 value=127 time=0
EXTRACT: program_change channel=6 program=118 time=0
EXTRACT: pitchwheel channel=7 pitch=0 time=0
EXTRACT: control_change channel=7 control=7 value=103 time=0
EXTRACT: control_change channel=7 control=10 value=63 time=0
EXTRACT: control_change channel=7 control=93 value=0 time=0
EXTRACT: control_change channel=7 control=91 value=0 time=0
EXTRACT: control_change channel=7 control=95 value=0 time=0
EXTRACT: control_change channel=7 control=92 value=0 time=0
EXTRACT: control_change channel=7 control=11 value=127 time=0
EXTRACT: program_change channel=7 program=116 time=0
EXTRACT: note_on channel=7 note=33 velocity=95 time=0
EXTRACT: pitchwheel channel=8 pitch=0 time=0
EXTRACT: control_change channel=8 control=7 value=71 time=0
EXTRACT: control_change channel=8 control=10 value=63 time=0
EXTRACT: control_change channel=8 control=93 value=0 time=0
EXTRACT: control_change channel=8 control=91 value=0 time=0
EXTRACT: control_change channel=8 control=95 value=0 time=0
EXTRACT: control_change channel=8 control=92 value=0 time=0
EXTRACT: control_change channel=8 control=11 value=127 time=0
EXTRACT: program_change channel=8 program=47 time=0
EXTRACT: note_on channel=8 note=23 velocity=95 time=0
EXTRACT: pitchwheel channel=10 pitch=0 time=0
EXTRACT: control_change channel=10 control=7 value=71 time=0
EXTRACT: control_change channel=10 control=10 value=63 time=0
EXTRACT: control_change channel=10 control=93 value=0 time=0
EXTRACT: control_change channel=10 control=91 value=0 time=0
EXTRACT: control_change channel=10 control=95 value=0 time=0
EXTRACT: control_change channel=10 control=92 value=0 time=0
EXTRACT: control_change channel=10 control=11 value=127 time=0
EXTRACT: program_change channel=10 program=127 time=0
EXTRACT: note_on channel=10 note=40 velocity=95 time=0
EXTRACT: pitchwheel channel=9 pitch=0 time=0
EXTRACT: control_change channel=9 control=7 value=103 time=0
EXTRACT: control_change channel=9 control=10 value=63 time=0
EXTRACT: control_change channel=9 control=93 value=0 time=0
EXTRACT: control_change channel=9 control=91 value=0 time=0
EXTRACT: control_change channel=9 control=95 value=0 time=0
EXTRACT: control_change channel=9 control=92 value=0 time=0
EXTRACT: control_change channel=9 control=11 value=127 time=0
EXTRACT: program_change channel=9 program=0 time=0
EXTRACT: note_on channel=9 note=36 velocity=95 time=0
EXTRACT: note_off channel=10 note=40 velocity=95 time=0.06696425
EXTRACT: pitchwheel channel=3 pitch=256 time=0.20089275
EXTRACT: note_on channel=3 note=66 velocity=95 time=0
EXTRACT: pitchwheel channel=3 pitch=128 time=0.1339285
EXTRACT: pitchwheel channel=3 pitch=0 time=0.1339285
EXTRACT: pitchwheel channel=3 pitch=0 time=0
EXTRACT: pitchwheel channel=3 pitch=0 time=0
EXTRACT: note_off channel=3 note=66 velocity=95 time=0
EXTRACT: pitchwheel channel=3 pitch=0 time=0
EXTRACT: note_on channel=3 note=66 velocity=95 time=0
EXTRACT: note_off channel=7 note=33 velocity=95 time=0
EXTRACT: note_on channel=7 note=33 velocity=95 time=0
EXTRACT: note_off channel=8 note=23 velocity=95 time=0
EXTRACT: note_on channel=8 note=23 velocity=95 time=0
EXTRACT: note_on channel=10 note=40 velocity=95 time=0
EXTRACT: note_off channel=9 note=36 velocity=95 time=0
EXTRACT: note_on channel=9 note=36 velocity=95 time=0
EXTRACT: pitchwheel channel=3 pitch=128 time=0.03627230208333333
EXTRACT: note_off channel=10 note=40 velocity=95 time=0.030691947916666667
EXTRACT: pitchwheel channel=3 pitch=256 time=0.005580354166666667
EXTRACT: pitchwheel channel=3 pitch=384 time=0.03627230208333333
EXTRACT: pitchwheel channel=3 pitch=512 time=0.03627230208333333
EXTRACT: pitchwheel channel=3 pitch=640 time=0.03627230208333333
EXTRACT: pitchwheel channel=3 pitch=768 time=0.03627230208333333
EXTRACT: pitchwheel channel=3 pitch=896 time=0.03627230208333333
EXTRACT: pitchwheel channel=3 pitch=1024 time=0.03627230208333333
EXTRACT: pitchwheel channel=3 pitch=1152 time=0.03627230208333333
EXTRACT: pitchwheel channel=3 pitch=1280 time=0.03627230208333333
EXTRACT: pitchwheel channel=3 pitch=1408 time=0.03627230208333333
EXTRACT: pitchwheel channel=3 pitch=1408 time=0.0027901770833333333
EXTRACT: pitchwheel channel=3 pitch=0 time=0
EXTRACT: note_off channel=3 note=66 velocity=95 time=0
EXTRACT: pitchwheel channel=3 pitch=0 time=0.1339285
EXTRACT: note_on channel=3 note=66 velocity=95 time=0
EXTRACT: note_off channel=7 note=33 velocity=95 time=0
EXTRACT: note_on channel=7 note=33 velocity=95 time=0
EXTRACT: note_off channel=8 note=23 velocity=95 time=0
EXTRACT: note_on channel=8 note=23 velocity=95 time=0
EXTRACT: note_on channel=10 note=40 velocity=95 time=0
EXTRACT: note_off channel=9 note=36 velocity=95 time=0
EXTRACT: note_on channel=9 note=36 velocity=95 time=0
EXTRACT: pitchwheel channel=3 pitch=128 time=0.053571400000000005
EXTRACT: note_off channel=10 note=40 velocity=95 time=0.013392850000000001
EXTRACT: pitchwheel channel=3 pitch=256 time=0.04017855
EXTRACT: pitchwheel channel=3 pitch=384 time=0.053571400000000005
EXTRACT: pitchwheel channel=3 pitch=512 time=0.053571400000000005
EXTRACT: pitchwheel channel=3 pitch=640 time=0.053571400000000005
EXTRACT: pitchwheel channel=3 pitch=640 time=0
EXTRACT: pitchwheel channel=3 pitch=0 time=0
EXTRACT: note_off channel=3 note=66 velocity=95 time=0
EXTRACT: pitchwheel channel=3 pitch=0 time=0
EXTRACT: note_on channel=3 note=66 velocity=95 time=0
EXTRACT: pitchwheel channel=3 pitch=128 time=0.023995522916666668
EXTRACT: pitchwheel channel=3 pitch=256 time=0.023995522916666668
EXTRACT: pitchwheel channel=3 pitch=384 time=0.023995522916666668
EXTRACT: pitchwheel channel=3 pitch=512 time=0.023995522916666668
EXTRACT: pitchwheel channel=3 pitch=640 time=0.023995522916666668
EXTRACT: pitchwheel channel=3 pitch=768 time=0.023995522916666668
EXTRACT: pitchwheel channel=3 pitch=896 time=0.023995522916666668
EXTRACT: pitchwheel channel=3 pitch=1024 time=0.023995522916666668
EXTRACT: pitchwheel channel=3 pitch=1152 time=0.023995522916666668
EXTRACT: pitchwheel channel=3 pitch=1280 time=0.023995522916666668
EXTRACT: pitchwheel channel=3 pitch=1408 time=0.023995522916666668
EXTRACT: pitchwheel channel=3 pitch=1408 time=0.003906247916666667
EXTRACT: pitchwheel channel=3 pitch=0 time=0
EXTRACT: note_off channel=3 note=66 velocity=95 time=0
EXTRACT: pitchwheel channel=3 pitch=0 time=0
EXTRACT: note_on channel=3 note=68 velocity=95 time=0
EXTRACT: note_off channel=7 note=33 velocity=95 time=0
EXTRACT: note_on channel=7 note=33 velocity=95 time=0
EXTRACT: note_off channel=8 note=23 velocity=95 time=0
EXTRACT: note_on channel=8 note=23 velocity=95 time=0
EXTRACT: note_on channel=10 note=40 velocity=95 time=0
EXTRACT: note_off channel=9 note=36 velocity=95 time=0
EXTRACT: note_on channel=9 note=36 velocity=95 time=0
EXTRACT: pitchwheel channel=3 pitch=-128 time=0.017857133333333334
EXTRACT: pitchwheel channel=3 pitch=-256 time=0.017857133333333334
EXTRACT: pitchwheel channel=3 pitch=-384 time=0.017857133333333334
EXTRACT: note_off channel=10 note=40 velocity=95 time=0.013392850000000001
EXTRACT: pitchwheel channel=3 pitch=-512 time=0.0044642833333333335
EXTRACT: pitchwheel channel=3 pitch=-640 time=0.017857133333333334
EXTRACT: pitchwheel channel=3 pitch=-768 time=0.017857133333333334
EXTRACT: pitchwheel channel=3 pitch=-896 time=0.017857133333333334
EXTRACT: pitchwheel channel=3 pitch=-1024 time=0.017857133333333334
EXTRACT: pitchwheel channel=3 pitch=-1152 time=0.017857133333333334
EXTRACT: pitchwheel channel=3 pitch=-1280 time=0.017857133333333334
EXTRACT: pitchwheel channel=3 pitch=-1408 time=0.017857133333333334
EXTRACT: pitchwheel channel=3 pitch=-1408 time=0.0044642833333333335
EXTRACT: pitchwheel channel=3 pitch=0 time=0
EXTRACT: note_off channel=3 note=68 velocity=95 time=0
EXTRACT: pitchwheel channel=3 pitch=0 time=0.33482125
EXTRACT: note_on channel=3 note=69 velocity=95 time=0
EXTRACT: note_off channel=7 note=33 velocity=95 time=0
EXTRACT: note_on channel=7 note=33 velocity=95 time=0
EXTRACT: note_off channel=8 note=23 velocity=95 time=0
EXTRACT: note_on channel=8 note=23 velocity=95 time=0
EXTRACT: note_on channel=10 note=40 velocity=95 time=0
EXTRACT: note_off channel=9 note=36 velocity=95 time=0
EXTRACT: note_on channel=9 note=36 velocity=95 time=0
EXTRACT: note_off channel=10 note=40 velocity=95 time=0.06696425
EXTRACT: pitchwheel channel=3 pitch=0 time=0.06696425
EXTRACT: pitchwheel channel=3 pitch=-128 time=0.026785700000000003
EXTRACT: pitchwheel channel=3 pitch=-256 time=0.026785700000000003
EXTRACT: pitchwheel channel=3 pitch=-384 time=0.026785700000000003
EXTRACT: pitchwheel channel=3 pitch=-512 time=0.026785700000000003
EXTRACT: pitchwheel channel=3 pitch=-640 time=0.026785700000000003
EXTRACT: pitchwheel channel=3 pitch=-640 time=0
EXTRACT: pitchwheel channel=3 pitch=0 time=0
EXTRACT: note_off channel=3 note=69 velocity=95 time=0
EXTRACT: note_on channel=3 note=68 velocity=95 time=0
EXTRACT: note_off channel=3 note=68 velocity=95 time=0.1339285
EXTRACT: pitchwheel channel=3 pitch=0 time=0
EXTRACT: note_on channel=3 note=68 velocity=95 time=0
EXTRACT: pitchwheel channel=3 pitch=-128 time=0.03627230208333333
EXTRACT: pitchwheel channel=3 pitch=-256 time=0.03627230208333333
EXTRACT: pitchwheel channel=3 pitch=-384 time=0.03627230208333333
EXTRACT: note_off channel=7 note=33 velocity=95 time=0.02511159375
EXTRACT: note_on channel=7 note=33 velocity=95 time=0
EXTRACT: note_off channel=8 note=23 velocity=95 time=0
EXTRACT: note_on channel=8 note=23 velocity=95 time=0
EXTRACT: note_on channel=10 note=40 velocity=95 time=0
EXTRACT: note_off channel=9 note=36 velocity=95 time=0
EXTRACT: note_on channel=9 note=36 velocity=95 time=0
EXTRACT: pitchwheel channel=3 pitch=-512 time=0.011160708333333333
EXTRACT: pitchwheel channel=3 pitch=-640 time=0.03627230208333333
EXTRACT: note_off channel=10 note=40 velocity=95 time=0.019531239583333335
EXTRACT: pitchwheel channel=3 pitch=-768 time=0.0167410625
EXTRACT: pitchwheel channel=3 pitch=-896 time=0.03627230208333333
EXTRACT: pitchwheel channel=3 pitch=-1024 time=0.03627230208333333
EXTRACT: pitchwheel channel=3 pitch=-1152 time=0.03627230208333333
EXTRACT: pitchwheel channel=3 pitch=-1280 time=0.03627230208333333
EXTRACT: pitchwheel channel=3 pitch=-1408 time=0.03627230208333333
EXTRACT: pitchwheel channel=3 pitch=-1408 time=0.0027901770833333333
EXTRACT: pitchwheel channel=3 pitch=0 time=0
EXTRACT: note_off channel=3 note=68 velocity=95 time=0
EXTRACT: pitchwheel channel=3 pitch=0 time=0
EXTRACT: note_on channel=3 note=66 velocity=95 time=0
EXTRACT: pitchwheel channel=3 pitch=128 time=0.06696425
EXTRACT: pitchwheel channel=3 pitch=256 time=0.06696425
EXTRACT: pitchwheel channel=3 pitch=256 time=0
EXTRACT: pitchwheel channel=3 pitch=0 time=0
EXTRACT: note_off channel=3 note=66 velocity=95 time=0
EXTRACT: pitchwheel channel=3 pitch=256 time=0
EXTRACT: note_on channel=3 note=66 velocity=95 time=0
EXTRACT: pitchwheel channel=3 pitch=384 time=0.04464283333333333
EXTRACT: pitchwheel channel=3 pitch=512 time=0.04464283333333333
EXTRACT: pitchwheel channel=3 pitch=640 time=0.04464283333333333
EXTRACT: pitchwheel channel=3 pitch=640 time=0
EXTRACT: pitchwheel channel=3 pitch=0 time=0
EXTRACT: note_off channel=3 note=66 velocity=95 time=0
EXTRACT: pitchwheel channel=3 pitch=0 time=0
EXTRACT: note_on channel=3 note=66 velocity=95 time=0
EXTRACT: note_off channel=7 note=33 velocity=95 time=0
EXTRACT: note_on channel=7 note=33 velocity=95 time=0
EXTRACT: note_off channel=8 note=23 velocity=95 time=0
EXTRACT: note_on channel=8 note=23 velocity=95 time=0
EXTRACT: note_on channel=10 note=40 velocity=95 time=0
EXTRACT: note_off channel=9 note=36 velocity=95 time=0
EXTRACT: note_on channel=9 note=36 velocity=95 time=0
EXTRACT: pitchwheel channel=3 pitch=128 time=0.053571400000000005
EXTRACT: note_off channel=10 note=40 velocity=95 time=0.013392850000000001
EXTRACT: pitchwheel channel=3 pitch=256 time=0.04017855
EXTRACT: pitchwheel channel=3 pitch=384 time=0.053571400000000005
EXTRACT: pitchwheel channel=3 pitch=512 time=0.053571400000000005
EXTRACT: pitchwheel channel=3 pitch=640 time=0.053571400000000005
EXTRACT: pitchwheel channel=3 pitch=640 time=0
EXTRACT: pitchwheel channel=3 pitch=0 time=0
EXTRACT: note_off channel=3 note=66 velocity=95 time=0
EXTRACT: pitchwheel channel=3 pitch=0 time=0
EXTRACT: note_on channel=3 note=67 velocity=95 time=0
EXTRACT: pitchwheel channel=3 pitch=-128 time=0.053571400000000005
EXTRACT: pitchwheel channel=3 pitch=-256 time=0.053571400000000005
EXTRACT: pitchwheel channel=3 pitch=-384 time=0.053571400000000005
EXTRACT: pitchwheel channel=3 pitch=-512 time=0.053571400000000005
EXTRACT: pitchwheel channel=3 pitch=-640 time=0.053571400000000005
EXTRACT: pitchwheel channel=3 pitch=-640 time=0
EXTRACT: pitchwheel channel=3 pitch=0 time=0
EXTRACT: note_off channel=3 note=67 velocity=95 time=0
EXTRACT: pitchwheel channel=3 pitch=0 time=0
EXTRACT: note_on channel=3 note=67 velocity=95 time=0
EXTRACT: note_on channel=5 note=64 velocity=95 time=0
EXTRACT: note_on channel=5 note=59 velocity=95 time=0
EXTRACT: note_on channel=5 note=55 velocity=95 time=0
EXTRACT: note_on channel=5 note=50 velocity=95 time=0
EXTRACT: note_off channel=7 note=33 velocity=95 time=0
EXTRACT: note_on channel=7 note=33 velocity=95 time=0
EXTRACT: note_off channel=8 note=23 velocity=95 time=0
EXTRACT: note_on channel=8 note=23 velocity=95 time=0
EXTRACT: note_on channel=10 note=40 velocity=95 time=0
EXTRACT: note_off channel=9 note=36 velocity=95 time=0
EXTRACT: note_on channel=9 note=28 velocity=95 time=0
EXTRACT: note_on channel=9 note=39 velocity=127 time=0
EXTRACT: note_on channel=9 note=36 velocity=95 time=0
EXTRACT: pitchwheel channel=3 pitch=-128 time=0.023995522916666668
EXTRACT: pitchwheel channel=3 pitch=-256 time=0.023995522916666668
EXTRACT: note_off channel=10 note=40 velocity=95 time=0.018973204166666667
EXTRACT: pitchwheel channel=3 pitch=-384 time=0.00502231875
EXTRACT: pitchwheel channel=3 pitch=-512 time=0.023995522916666668
EXTRACT: pitchwheel channel=3 pitch=-640 time=0.023995522916666668
EXTRACT: pitchwheel channel=3 pitch=-768 time=0.023995522916666668
EXTRACT: pitchwheel channel=3 pitch=-896 time=0.023995522916666668
EXTRACT: pitchwheel channel=3 pitch=-1024 time=0.023995522916666668
EXTRACT: pitchwheel channel=3 pitch=-1152 time=0.023995522916666668
EXTRACT: pitchwheel channel=3 pitch=-1280 time=0.023995522916666668
EXTRACT: pitchwheel channel=3 pitch=-1408 time=0.023995522916666668
EXTRACT: pitchwheel channel=3 pitch=-1408 time=0.003906247916666667
EXTRACT: pitchwheel channel=3 pitch=0 time=0
EXTRACT: note_off channel=3 note=67 velocity=95 time=0
EXTRACT: pitchwheel channel=3 pitch=0 time=0.267857
EXTRACT: note_on channel=3 note=70 velocity=95 time=0
EXTRACT: note_off channel=7 note=33 velocity=95 time=0
EXTRACT: note_on channel=7 note=33 velocity=95 time=0
EXTRACT: note_off channel=8 note=23 velocity=95 time=0
EXTRACT: note_on channel=8 note=23 velocity=95 time=0
EXTRACT: note_on channel=10 note=40 velocity=95 time=0
EXTRACT: note_off channel=9 note=28 velocity=95 time=0
EXTRACT: note_off channel=9 note=39 velocity=127 time=0
EXTRACT: note_off channel=9 note=36 velocity=95 time=0
EXTRACT: note_on channel=9 note=36 velocity=95 time=0
EXTRACT: pitchwheel channel=4 pitch=0 time=0.033482125
EXTRACT: note_on channel=4 note=70 velocity=95 time=0
EXTRACT: pitchwheel channel=3 pitch=-128 time=0.0027901770833333333
EXTRACT: note_off channel=10 note=40 velocity=95 time=0.030691947916666667
EXTRACT: pitchwheel channel=4 pitch=-128 time=0.0027901770833333333
EXTRACT: pitchwheel channel=3 pitch=-256 time=0.0027901770833333333
EXTRACT: pitchwheel channel=4 pitch=-256 time=0.033482125
EXTRACT: pitchwheel channel=3 pitch=-384 time=0.0027901770833333333
EXTRACT: pitchwheel channel=4 pitch=-384 time=0.033482125
EXTRACT: pitchwheel channel=3 pitch=-512 time=0.0027901770833333333
EXTRACT: pitchwheel channel=4 pitch=-512 time=0.033482125
EXTRACT: pitchwheel channel=3 pitch=-640 time=0.0027901770833333333
EXTRACT: pitchwheel channel=4 pitch=-640 time=0.033482125
EXTRACT: pitchwheel channel=3 pitch=-768 time=0.0027901770833333333
EXTRACT: pitchwheel channel=4 pitch=-768 time=0.033482125
EXTRACT: pitchwheel channel=3 pitch=-896 time=0.0027901770833333333
EXTRACT: note_off channel=5 note=64 velocity=95 time=0.013950885416666668
EXTRACT: note_off channel=5 note=59 velocity=95 time=0
EXTRACT: note_off channel=5 note=55 velocity=95 time=0
EXTRACT: note_off channel=5 note=50 velocity=95 time=0
EXTRACT: pitchwheel channel=4 pitch=-896 time=0.019531239583333335
EXTRACT: pitchwheel channel=3 pitch=-1024 time=0.0027901770833333333
EXTRACT: pitchwheel channel=4 pitch=-1024 time=0.033482125
EXTRACT: pitchwheel channel=3 pitch=-1152 time=0.0027901770833333333
EXTRACT: pitchwheel channel=4 pitch=-1152 time=0.033482125
EXTRACT: pitchwheel channel=3 pitch=-1280 time=0.0027901770833333333
EXTRACT: pitchwheel channel=4 pitch=-1280 time=0.033482125
EXTRACT: pitchwheel channel=3 pitch=-1408 time=0.0027901770833333333
EXTRACT: pitchwheel channel=3 pitch=-1408 time=0.0027901770833333333
EXTRACT: pitchwheel channel=3 pitch=0 time=0
EXTRACT: note_off channel=3 note=70 velocity=95 time=0
EXTRACT: pitchwheel channel=3 pitch=0 time=0
EXTRACT: note_on channel=3 note=68 velocity=95 time=0
EXTRACT: pitchwheel channel=4 pitch=-1408 time=0.030691947916666667
EXTRACT: pitchwheel channel=4 pitch=-1408 time=0.0027901770833333333
EXTRACT: pitchwheel channel=4 pitch=0 time=0
EXTRACT: note_off channel=4 note=70 velocity=95 time=0
EXTRACT: pitchwheel channel=4 pitch=0 time=0
EXTRACT: note_on channel=4 note=68 velocity=95 time=0
EXTRACT: pitchwheel channel=3 pitch=-128 time=0.020089275
EXTRACT: pitchwheel channel=4 pitch=-128 time=0.033482125
EXTRACT: pitchwheel channel=3 pitch=-256 time=0.020089275
EXTRACT: note_on channel=5 note=64 velocity=95 time=0.026785700000000003
EXTRACT: note_on channel=5 note=59 velocity=95 time=0
EXTRACT: note_on channel=5 note=55 velocity=95 time=0
EXTRACT: note_on channel=5 note=50 velocity=95 time=0
EXTRACT: note_off channel=7 note=33 velocity=95 time=0
EXTRACT: note_off channel=8 note=23 velocity=95 time=0
EXTRACT: note_off channel=9 note=36 velocity=95 time=0
EXTRACT: note_on channel=9 note=28 velocity=95 time=0
EXTRACT: note_on channel=9 note=39 velocity=95 time=0
EXTRACT: pitchwheel channel=4 pitch=-256 time=0.006696425000000001
EXTRACT: pitchwheel channel=3 pitch=-384 time=0.020089275
EXTRACT: pitchwheel channel=4 pitch=-384 time=0.033482125
EXTRACT: pitchwheel channel=3 pitch=-512 time=0.020089275
EXTRACT: pitchwheel channel=4 pitch=-512 time=0.033482125
EXTRACT: pitchwheel channel=3 pitch=-640 time=0.020089275
EXTRACT: pitchwheel channel=3 pitch=-640 time=0
EXTRACT: pitchwheel channel=3 pitch=0 time=0
EXTRACT: note_off channel=3 note=68 velocity=95 time=0
EXTRACT: note_on channel=3 note=67 velocity=95 time=0
EXTRACT: pitchwheel channel=4 pitch=-640 time=0.033482125
EXTRACT: pitchwheel channel=4 pitch=-640 time=0
EXTRACT: pitchwheel channel=4 pitch=0 time=0
EXTRACT: note_off channel=4 note=68 velocity=95 time=0
EXTRACT: note_on channel=4 note=67 velocity=95 time=0
EXTRACT: note_off channel=3 note=67 velocity=95 time=0.100446375
EXTRACT: pitchwheel channel=3 pitch=0 time=0
EXTRACT: note_on channel=3 note=67 velocity=95 time=0
EXTRACT: note_on channel=7 note=33 velocity=95 time=0
EXTRACT: note_on channel=8 note=23 velocity=95 time=0
EXTRACT: note_on channel=10 note=40 velocity=95 time=0
EXTRACT: note_off channel=9 note=28 velocity=95 time=0
EXTRACT: note_off channel=9 note=39 velocity=95 time=0
EXTRACT: note_on channel=9 note=36 velocity=95 time=0
EXTRACT: note_off channel=4 note=67 velocity=95 time=0.033482125
EXTRACT: pitchwheel channel=4 pitch=0 time=0
EXTRACT: note_on channel=4 note=67 velocity=95 time=0
EXTRACT: pitchwheel channel=3 pitch=-128 time=0.020089275
EXTRACT: note_off channel=10 note=40 velocity=95 time=0.013392850000000001
EXTRACT: pitchwheel channel=4 pitch=-128 time=0.020089275
EXTRACT: pitchwheel channel=3 pitch=-256 time=0.020089275
EXTRACT: pitchwheel channel=4 pitch=-256 time=0.033482125
EXTRACT: pitchwheel channel=3 pitch=-384 time=0.020089275
EXTRACT: pitchwheel channel=4 pitch=-384 time=0.033482125
EXTRACT: pitchwheel channel=3 pitch=-512 time=0.020089275
EXTRACT: pitchwheel channel=4 pitch=-512 time=0.033482125
EXTRACT: pitchwheel channel=3 pitch=-640 time=0.020089275
EXTRACT: pitchwheel channel=3 pitch=-640 time=0
EXTRACT: pitchwheel channel=3 pitch=0 time=0
EXTRACT: note_off channel=3 note=67 velocity=95 time=0
EXTRACT: pitchwheel channel=3 pitch=256 time=0
EXTRACT: note_on channel=3 note=67 velocity=95 time=0
EXTRACT: note_off channel=9 note=36 velocity=95 time=0
EXTRACT: pitchwheel channel=4 pitch=-640 time=0.033482125
EXTRACT: pitchwheel channel=4 pitch=-640 time=0
EXTRACT: pitchwheel channel=4 pitch=0 time=0
EXTRACT: note_off channel=4 note=67 velocity=95 time=0
EXTRACT: pitchwheel channel=4 pitch=256 time=0
EXTRACT: note_on channel=4 note=67 velocity=95 time=0
EXTRACT: pitchwheel channel=3 pitch=128 time=0.100446375
EXTRACT: pitchwheel channel=4 pitch=128 time=0.033482125
EXTRACT: pitchwheel channel=3 pitch=0 time=0.100446375
EXTRACT: pitchwheel channel=3 pitch=0 time=0
EXTRACT: pitchwheel channel=3 pitch=0 time=0
EXTRACT: note_off channel=3 note=67 velocity=95 time=0
EXTRACT: pitchwheel channel=3 pitch=0 time=0
EXTRACT: note_on channel=3 note=68 velocity=95 time=0
EXTRACT: note_off channel=5 note=64 velocity=95 time=0
EXTRACT: note_off channel=5 note=59 velocity=95 time=0
EXTRACT: note_off channel=5 note=55 velocity=95 time=0
EXTRACT: note_off channel=5 note=50 velocity=95 time=0
EXTRACT: note_off channel=7 note=33 velocity=95 time=0
EXTRACT: note_on channel=7 note=33 velocity=95 time=0
EXTRACT: note_off channel=8 note=23 velocity=95 time=0
EXTRACT: note_on channel=8 note=23 velocity=95 time=0
EXTRACT: note_on channel=10 note=40 velocity=95 time=0
EXTRACT: note_on channel=9 note=36 velocity=95 time=0
EXTRACT: pitchwheel channel=4 pitch=0 time=0.033482125
EXTRACT: pitchwheel channel=4 pitch=0 time=0
EXTRACT: pitchwheel channel=4 pitch=0 time=0
EXTRACT: note_off channel=4 note=67 velocity=95 time=0
EXTRACT: pitchwheel channel=4 pitch=0 time=0
EXTRACT: note_on channel=4 note=68 velocity=95 time=0
EXTRACT: pitchwheel channel=3 pitch=-128 time=0.020089275
EXTRACT: note_off channel=10 note=40 velocity=95 time=0.013392850000000001
EXTRACT: pitchwheel channel=4 pitch=-128 time=0.020089275
EXTRACT: pitchwheel channel=3 pitch=-256 time=0.020089275
EXTRACT: pitchwheel channel=4 pitch=-256 time=0.033482125
EXTRACT: pitchwheel channel=3 pitch=-384 time=0.020089275
EXTRACT: pitchwheel channel=4 pitch=-384 time=0.033482125
EXTRACT: pitchwheel channel=3 pitch=-512 time=0.020089275
EXTRACT: pitchwheel channel=4 pitch=-512 time=0.033482125
EXTRACT: pitchwheel channel=3 pitch=-640 time=0.020089275
EXTRACT: pitchwheel channel=3 pitch=-640 time=0
EXTRACT: pitchwheel channel=3 pitch=0 time=0
EXTRACT: note_off channel=3 note=68 velocity=95 time=0
EXTRACT: pitchwheel channel=3 pitch=0 time=0
EXTRACT: note_on channel=3 note=68 velocity=95 time=0
EXTRACT: note_on channel=5 note=64 velocity=95 time=0
EXTRACT: note_on channel=5 note=59 velocity=95 time=0
EXTRACT: note_on channel=5 note=55 velocity=95 time=0
EXTRACT: note_on channel=5 note=50 velocity=95 time=0
EXTRACT: note_off channel=7 note=33 velocity=95 time=0
EXTRACT: note_off channel=9 note=36 velocity=95 time=0
EXTRACT: note_on channel=9 note=28 velocity=95 time=0
EXTRACT: note_on channel=9 note=39 velocity=95 time=0
EXTRACT: pitchwheel channel=3 pitch=-128 time=0.021205345833333333
EXTRACT: pitchwheel channel=4 pitch=-640 time=0.012276779166666666
EXTRACT: pitchwheel channel=4 pitch=-640 time=0
EXTRACT: pitchwheel channel=4 pitch=0 time=0
EXTRACT: note_off channel=4 note=68 velocity=95 time=0
EXTRACT: pitchwheel channel=4 pitch=0 time=0
EXTRACT: note_on channel=4 note=68 velocity=95 time=0
EXTRACT: pitchwheel channel=3 pitch=-256 time=0.008928566666666667
EXTRACT: pitchwheel channel=4 pitch=-128 time=0.012276779166666666
EXTRACT: pitchwheel channel=3 pitch=-384 time=0.008928566666666667
EXTRACT: pitchwheel channel=4 pitch=-256 time=0.012276779166666666
EXTRACT: pitchwheel channel=3 pitch=-512 time=0.008928566666666667
EXTRACT: pitchwheel channel=4 pitch=-384 time=0.012276779166666666
EXTRACT: pitchwheel channel=3 pitch=-640 time=0.008928566666666667
EXTRACT: pitchwheel channel=4 pitch=-512 time=0.012276779166666666
EXTRACT: pitchwheel channel=3 pitch=-768 time=0.008928566666666667
EXTRACT: pitchwheel channel=4 pitch=-640 time=0.012276779166666666
EXTRACT: pitchwheel channel=3 pitch=-896 time=0.008928566666666667
EXTRACT: pitchwheel channel=4 pitch=-768 time=0.012276779166666666
EXTRACT: pitchwheel channel=3 pitch=-1024 time=0.008928566666666667
EXTRACT: pitchwheel channel=4 pitch=-896 time=0.012276779166666666
EXTRACT: pitchwheel channel=3 pitch=-1152 time=0.008928566666666667
EXTRACT: pitchwheel channel=4 pitch=-1024 time=0.012276779166666666
EXTRACT: pitchwheel channel=3 pitch=-1280 time=0.008928566666666667
EXTRACT: pitchwheel channel=4 pitch=-1152 time=0.012276779166666666
EXTRACT: pitchwheel channel=3 pitch=-1408 time=0.008928566666666667
EXTRACT: pitchwheel channel=3 pitch=-1408 time=0.0011160708333333334
EXTRACT: pitchwheel channel=3 pitch=0 time=0
EXTRACT: note_off channel=3 note=68 velocity=95 time=0
EXTRACT: pitchwheel channel=4 pitch=-1280 time=0.011160708333333333
EXTRACT: pitchwheel channel=4 pitch=-1408 time=0.021205345833333333
EXTRACT: pitchwheel channel=3 pitch=0 time=0.0011160708333333334
EXTRACT: note_on channel=3 note=66 velocity=95 time=0
EXTRACT: pitchwheel channel=4 pitch=-1408 time=0
EXTRACT: pitchwheel channel=4 pitch=0 time=0
EXTRACT: note_off channel=4 note=68 velocity=95 time=0
EXTRACT: note_off channel=8 note=23 velocity=95 time=0
EXTRACT: pitchwheel channel=4 pitch=0 time=0.033482125
EXTRACT: note_on channel=4 note=66 velocity=95 time=0
EXTRACT: pitchwheel channel=3 pitch=128 time=0.033482125
EXTRACT: pitchwheel channel=4 pitch=128 time=0.033482125
EXTRACT: pitchwheel channel=3 pitch=256 time=0.033482125
EXTRACT: pitchwheel channel=3 pitch=256 time=0
EXTRACT: pitchwheel channel=3 pitch=0 time=0
EXTRACT: note_off channel=3 note=66 velocity=95 time=0
EXTRACT: pitchwheel channel=3 pitch=0 time=0
EXTRACT: note_on channel=3 note=66 velocity=95 time=0
EXTRACT: pitchwheel channel=4 pitch=256 time=0.033482125
EXTRACT: pitchwheel channel=4 pitch=256 time=0
EXTRACT: pitchwheel channel=4 pitch=0 time=0
EXTRACT: note_off channel=4 note=66 velocity=95 time=0
EXTRACT: pitchwheel channel=4 pitch=0 time=0
EXTRACT: note_on channel=4 note=66 velocity=95 time=0
EXTRACT: pitchwheel channel=3 pitch=128 time=0.033482125
EXTRACT: pitchwheel channel=4 pitch=128 time=0.033482125
EXTRACT: pitchwheel channel=3 pitch=256 time=0.033482125
EXTRACT: pitchwheel channel=3 pitch=256 time=0
EXTRACT: pitchwheel channel=3 pitch=0 time=0
EXTRACT: note_off channel=3 note=66 velocity=95 time=0
EXTRACT: pitchwheel channel=3 pitch=1024 time=0
EXTRACT: note_on channel=3 note=66 velocity=95 time=0
EXTRACT: note_on channel=7 note=33 velocity=95 time=0
EXTRACT: note_on channel=8 note=23 velocity=95 time=0
EXTRACT: note_on channel=10 note=40 velocity=95 time=0
EXTRACT: note_off channel=9 note=28 velocity=95 time=0
EXTRACT: note_off channel=9 note=39 velocity=95 time=0
EXTRACT: note_on channel=9 note=36 velocity=95 time=0
EXTRACT: pitchwheel channel=4 pitch=256 time=0.033482125
EXTRACT: pitchwheel channel=4 pitch=256 time=0
EXTRACT: pitchwheel channel=4 pitch=0 time=0
EXTRACT: note_off channel=4 note=66 velocity=95 time=0
EXTRACT: pitchwheel channel=4 pitch=1024 time=0
EXTRACT: note_on channel=4 note=66 velocity=95 time=0
EXTRACT: pitchwheel channel=3 pitch=896 time=0.005580354166666667
EXTRACT: note_off channel=10 note=40 velocity=95 time=0.027901770833333336
EXTRACT: pitchwheel channel=4 pitch=896 time=0.005580354166666667
EXTRACT: pitchwheel channel=3 pitch=768 time=0.005580354166666667
EXTRACT: pitchwheel channel=4 pitch=768 time=0.033482125
EXTRACT: pitchwheel channel=3 pitch=640 time=0.005580354166666667
EXTRACT: pitchwheel channel=4 pitch=640 time=0.033482125
EXTRACT: pitchwheel channel=3 pitch=512 time=0.005580354166666667
EXTRACT: pitchwheel channel=4 pitch=512 time=0.033482125
EXTRACT: pitchwheel channel=3 pitch=384 time=0.005580354166666667
EXTRACT: pitchwheel channel=4 pitch=384 time=0.033482125
EXTRACT: pitchwheel channel=3 pitch=256 time=0.005580354166666667
EXTRACT: pitchwheel channel=3 pitch=256 time=0
EXTRACT: pitchwheel channel=3 pitch=0 time=0
EXTRACT: note_off channel=3 note=66 velocity=95 time=0
EXTRACT: pitchwheel channel=3 pitch=1024 time=0.033482125
EXTRACT: note_on channel=3 note=66 velocity=95 time=0
EXTRACT: pitchwheel channel=4 pitch=256 time=0
EXTRACT: pitchwheel channel=4 pitch=256 time=0
EXTRACT: pitchwheel channel=4 pitch=0 time=0
EXTRACT: note_off channel=4 note=66 velocity=95 time=0
EXTRACT: note_off channel=5 note=64 velocity=95 time=0
EXTRACT: note_off channel=5 note=59 velocity=95 time=0
EXTRACT: note_off channel=5 note=55 velocity=95 time=0
EXTRACT: note_off channel=5 note=50 velocity=95 time=0
EXTRACT: pitchwheel channel=3 pitch=896 time=0.022321416666666666
EXTRACT: pitchwheel channel=4 pitch=1024 time=0.011160708333333333
EXTRACT: note_on channel=4 note=66 velocity=95 time=0
EXTRACT: pitchwheel channel=3 pitch=768 time=0.011160708333333333
EXTRACT: pitchwheel channel=4 pitch=896 time=0.011160708333333333
EXTRACT: pitchwheel channel=3 pitch=640 time=0.011160708333333333
EXTRACT: pitchwheel channel=4 pitch=768 time=0.011160708333333333
EXTRACT: pitchwheel channel=3 pitch=512 time=0.011160708333333333
EXTRACT: pitchwheel channel=4 pitch=640 time=0.011160708333333333
EXTRACT: pitchwheel channel=3 pitch=384 time=0.011160708333333333
EXTRACT: pitchwheel channel=4 pitch=512 time=0.011160708333333333
EXTRACT: pitchwheel channel=3 pitch=256 time=0.011160708333333333
EXTRACT: pitchwheel channel=3 pitch=256 time=0
EXTRACT: pitchwheel channel=3 pitch=0 time=0
EXTRACT: note_off channel=3 note=66 velocity=95 time=0
EXTRACT: pitchwheel channel=3 pitch=256 time=0
EXTRACT: note_on channel=3 note=67 velocity=95 time=0
EXTRACT: pitchwheel channel=4 pitch=384 time=0.011160708333333333
EXTRACT: pitchwheel channel=4 pitch=256 time=0.022321416666666666
EXTRACT: pitchwheel channel=4 pitch=256 time=0
EXTRACT: pitchwheel channel=4 pitch=0 time=0
EXTRACT: note_off channel=4 note=66 velocity=95 time=0
EXTRACT: pitchwheel channel=4 pitch=256 time=0
EXTRACT: note_on channel=4 note=67 velocity=95 time=0
EXTRACT: pitchwheel channel=3 pitch=128 time=0.100446375
EXTRACT: note_on channel=5 note=64 velocity=95 time=0
EXTRACT: note_on channel=5 note=59 velocity=95 time=0
EXTRACT: note_on channel=5 note=55 velocity=95 time=0
EXTRACT: note_on channel=5 note=50 velocity=95 time=0
EXTRACT: note_off channel=7 note=33 velocity=95 time=0
EXTRACT: note_off channel=8 note=23 velocity=95 time=0
EXTRACT: note_off channel=9 note=36 velocity=95 time=0
EXTRACT: note_on channel=9 note=28 velocity=95 time=0
EXTRACT: note_on channel=9 note=39 velocity=95 time=0
EXTRACT: pitchwheel channel=4 pitch=128 time=0.033482125
EXTRACT: pitchwheel channel=3 pitch=0 time=0.100446375
EXTRACT: pitchwheel channel=3 pitch=0 time=0
EXTRACT: pitchwheel channel=3 pitch=0 time=0
EXTRACT: note_off channel=3 note=67 velocity=95 time=0
EXTRACT: pitchwheel channel=3 pitch=0 time=0
EXTRACT: note_on channel=3 note=66 velocity=95 time=0
EXTRACT: note_on channel=7 note=33 velocity=95 time=0
EXTRACT: note_on channel=8 note=23 velocity=95 time=0
EXTRACT: note_on channel=10 note=40 velocity=95 time=0
EXTRACT: note_off channel=9 note=28 velocity=95 time=0
EXTRACT: note_off channel=9 note=39 velocity=95 time=0
EXTRACT: note_on channel=9 note=36 velocity=95 time=0
EXTRACT: pitchwheel channel=3 pitch=128 time=0.026785700000000003
EXTRACT: pitchwheel channel=4 pitch=0 time=0.006696425000000001
EXTRACT: pitchwheel channel=4 pitch=0 time=0
EXTRACT: pitchwheel channel=4 pitch=0 time=0
EXTRACT: note_off channel=4 note=67 velocity=95 time=0
EXTRACT: pitchwheel channel=4 pitch=0 time=0
EXTRACT: note_on channel=4 note=66 velocity=95 time=0
EXTRACT: pitchwheel channel=3 pitch=256 time=0.020089275
EXTRACT: pitchwheel channel=4 pitch=128 time=0.006696425000000001
EXTRACT: note_off channel=10 note=40 velocity=95 time=0.006696425000000001
EXTRACT: pitchwheel channel=3 pitch=384 time=0.013392850000000001
EXTRACT: pitchwheel channel=4 pitch=256 time=0.006696425000000001
EXTRACT: pitchwheel channel=3 pitch=512 time=0.020089275
EXTRACT: pitchwheel channel=4 pitch=384 time=0.006696425000000001
EXTRACT: pitchwheel channel=3 pitch=640 time=0.020089275
EXTRACT: pitchwheel channel=3 pitch=640 time=0
EXTRACT: pitchwheel channel=3 pitch=0 time=0
EXTRACT: note_off channel=3 note=66 velocity=95 time=0
EXTRACT: pitchwheel channel=3 pitch=0 time=0
EXTRACT: note_on channel=3 note=67 velocity=95 time=0
EXTRACT: note_off channel=7 note=33 velocity=95 time=0
EXTRACT: note_on channel=7 note=33 velocity=95 time=0
EXTRACT: note_off channel=8 note=23 velocity=95 time=0
EXTRACT: note_on channel=8 note=23 velocity=95 time=0
EXTRACT: note_on channel=10 note=40 velocity=95 time=0
EXTRACT: note_off channel=9 note=36 velocity=95 time=0
EXTRACT: note_on channel=9 note=36 velocity=95 time=0
EXTRACT: pitchwheel channel=4 pitch=512 time=0.006696425000000001
EXTRACT: pitchwheel channel=4 pitch=640 time=0.026785700000000003
EXTRACT: pitchwheel channel=4 pitch=640 time=0
EXTRACT: pitchwheel channel=4 pitch=0 time=0
EXTRACT: note_off channel=4 note=66 velocity=95 time=0
EXTRACT: pitchwheel channel=4 pitch=0 time=0
EXTRACT: note_on channel=4 note=67 velocity=95 time=0
EXTRACT: pitchwheel channel=3 pitch=-128 time=0.020089275
EXTRACT: note_off channel=10 note=40 velocity=95 time=0.013392850000000001
EXTRACT: pitchwheel channel=4 pitch=-128 time=0.020089275
EXTRACT: pitchwheel channel=3 pitch=-256 time=0.020089275
EXTRACT: pitchwheel channel=4 pitch=-256 time=0.033482125
EXTRACT: pitchwheel channel=3 pitch=-384 time=0.020089275
EXTRACT: pitchwheel channel=4 pitch=-384 time=0.033482125
EXTRACT: pitchwheel channel=3 pitch=-512 time=0.020089275
EXTRACT: pitchwheel channel=4 pitch=-512 time=0.033482125
EXTRACT: pitchwheel channel=3 pitch=-640 time=0.020089275
EXTRACT: pitchwheel channel=3 pitch=-640 time=0
EXTRACT: pitchwheel channel=3 pitch=0 time=0
EXTRACT: note_off channel=3 note=67 velocity=95 time=0
EXTRACT: pitchwheel channel=3 pitch=0 time=0
EXTRACT: note_on channel=3 note=67 velocity=95 time=0
EXTRACT: pitchwheel channel=6 pitch=0 time=0
EXTRACT: note_on channel=6 note=53 velocity=95 time=0
EXTRACT: pitchwheel channel=6 pitch=0 time=0
EXTRACT: note_on channel=6 note=53 velocity=95 time=0
EXTRACT: note_off channel=7 note=33 velocity=95 time=0
EXTRACT: note_off channel=9 note=36 velocity=95 time=0
EXTRACT: pitchwheel channel=6 pitch=-128 time=0.016183027083333332
EXTRACT: pitchwheel channel=6 pitch=-128 time=0
EXTRACT: pitchwheel channel=6 pitch=-256 time=0.016183027083333332
EXTRACT: pitchwheel channel=6 pitch=-256 time=0
EXTRACT: pitchwheel channel=4 pitch=-640 time=0.0011160708333333334
EXTRACT: pitchwheel channel=4 pitch=-640 time=0
EXTRACT: pitchwheel channel=4 pitch=0 time=0
EXTRACT: note_off channel=4 note=67 velocity=95 time=0
EXTRACT: pitchwheel channel=4 pitch=0 time=0
EXTRACT: note_on channel=4 note=67 velocity=95 time=0
EXTRACT: pitchwheel channel=6 pitch=-384 time=0.015066956250000001
EXTRACT: pitchwheel channel=6 pitch=-384 time=0
EXTRACT: pitchwheel channel=3 pitch=-128 time=0.00502231875
EXTRACT: pitchwheel channel=6 pitch=-512 time=0.011160708333333333
EXTRACT: pitchwheel channel=6 pitch=-512 time=0
EXTRACT: pitchwheel channel=6 pitch=-640 time=0.016183027083333332
EXTRACT: pitchwheel channel=6 pitch=-640 time=0
EXTRACT: pitchwheel channel=4 pitch=-128 time=0.006138389583333333
EXTRACT: pitchwheel channel=6 pitch=-768 time=0.0100446375
EXTRACT: pitchwheel channel=6 pitch=-768 time=0
EXTRACT: pitchwheel channel=3 pitch=-256 time=0.0100446375
EXTRACT: pitchwheel channel=6 pitch=-896 time=0.006138389583333333
EXTRACT: pitchwheel channel=6 pitch=-896 time=0
EXTRACT: pitchwheel channel=6 pitch=-1024 time=0.016183027083333332
EXTRACT: pitchwheel channel=6 pitch=-1024 time=0
EXTRACT: pitchwheel channel=4 pitch=-256 time=0.011160708333333333
EXTRACT: pitchwheel channel=6 pitch=-1152 time=0.00502231875
EXTRACT: pitchwheel channel=6 pitch=-1152 time=0
EXTRACT: pitchwheel channel=3 pitch=-384 time=0.015066956250000001
EXTRACT: pitchwheel channel=6 pitch=-1280 time=0.0011160708333333334
EXTRACT: pitchwheel channel=6 pitch=-1280 time=0
EXTRACT: pitchwheel channel=6 pitch=-1408 time=0.016183027083333332
EXTRACT: pitchwheel channel=6 pitch=-1408 time=0
EXTRACT: pitchwheel channel=4 pitch=-384 time=0.016183027083333332
EXTRACT: pitchwheel channel=6 pitch=-1536 time=0
EXTRACT: pitchwheel channel=6 pitch=-1536 time=0
EXTRACT: pitchwheel channel=6 pitch=-1664 time=0.016183027083333332
EXTRACT: pitchwheel channel=6 pitch=-1664 time=0
EXTRACT: pitchwheel channel=3 pitch=-512 time=0.003906247916666667
EXTRACT: pitchwheel channel=6 pitch=-1792 time=0.012276779166666666
EXTRACT: pitchwheel channel=6 pitch=-1792 time=0
EXTRACT: pitchwheel channel=6 pitch=-1920 time=0.016183027083333332
EXTRACT: pitchwheel channel=6 pitch=-1920 time=0
EXTRACT: pitchwheel channel=4 pitch=-512 time=0.00502231875
EXTRACT: pitchwheel channel=6 pitch=-2048 time=0.011160708333333333
EXTRACT: pitchwheel channel=6 pitch=-2048 time=0
EXTRACT: pitchwheel channel=3 pitch=-640 time=0.008928566666666667
EXTRACT: pitchwheel channel=3 pitch=-640 time=0
EXTRACT: pitchwheel channel=3 pitch=0 time=0
EXTRACT: note_off channel=3 note=67 velocity=95 time=0
EXTRACT: pitchwheel channel=3 pitch=0 time=0
EXTRACT: note_on channel=3 note=66 velocity=95 time=0
EXTRACT: note_off channel=5 note=64 velocity=95 time=0
EXTRACT: note_off channel=5 note=59 velocity=95 time=0
EXTRACT: note_off channel=5 note=55 velocity=95 time=0
EXTRACT: note_off channel=5 note=50 velocity=95 time=0
EXTRACT: note_on channel=7 note=33 velocity=95 time=0
EXTRACT: note_off channel=8 note=23 velocity=95 time=0
EXTRACT: note_on channel=8 note=23 velocity=95 time=0
EXTRACT: note_on channel=10 note=40 velocity=95 time=0
EXTRACT: note_on channel=9 note=36 velocity=95 time=0
EXTRACT: pitchwheel channel=6 pitch=-2176 time=0.007254460416666667
EXTRACT: pitchwheel channel=6 pitch=-2176 time=0
EXTRACT: pitchwheel channel=6 pitch=-2304 time=0.016183027083333332
EXTRACT: pitchwheel channel=6 pitch=-2304 time=0
EXTRACT: pitchwheel channel=4 pitch=-640 time=0.0100446375
EXTRACT: pitchwheel channel=4 pitch=-640 time=0
EXTRACT: pitchwheel channel=4 pitch=0 time=0
EXTRACT: note_off channel=4 note=67 velocity=95 time=0
EXTRACT: pitchwheel channel=4 pitch=0 time=0
EXTRACT: note_on channel=4 note=66 velocity=95 time=0
EXTRACT: pitchwheel channel=6 pitch=-2432 time=0.006138389583333333
EXTRACT: pitchwheel channel=6 pitch=-2432 time=0
EXTRACT: pitchwheel channel=6 pitch=-2560 time=0.016183027083333332
EXTRACT: pitchwheel channel=6 pitch=-2560 time=0
EXTRACT: note_off channel=10 note=40 velocity=95 time=0.011160708333333333
EXTRACT: pitchwheel channel=6 pitch=-2688 time=0.00502231875
EXTRACT: pitchwheel channel=6 pitch=-2688 time=0
EXTRACT: pitchwheel channel=6 pitch=-2816 time=0.016183027083333332
EXTRACT: pitchwheel channel=6 pitch=-2816 time=0
EXTRACT: pitchwheel channel=6 pitch=-2944 time=0.016183027083333332
EXTRACT: pitchwheel channel=6 pitch=-2944 time=0
EXTRACT: pitchwheel channel=6 pitch=-3072 time=0.016183027083333332
EXTRACT: pitchwheel channel=6 pitch=-3072 time=0
EXTRACT: pitchwheel channel=3 pitch=128 time=0.013392850000000001
EXTRACT: pitchwheel channel=6 pitch=-3200 time=0.0027901770833333333
EXTRACT: pitchwheel channel=6 pitch=-3200 time=0
EXTRACT: pitchwheel channel=6 pitch=-3328 time=0.016183027083333332
EXTRACT: pitchwheel channel=6 pitch=-3328 time=0
EXTRACT: pitchwheel channel=4 pitch=128 time=0.014508920833333334
EXTRACT: pitchwheel channel=6 pitch=-3456 time=0.0016741062500000002
EXTRACT: pitchwheel channel=6 pitch=-3456 time=0
EXTRACT: pitchwheel channel=6 pitch=-3584 time=0.016183027083333332
EXTRACT: pitchwheel channel=6 pitch=-3584 time=0
EXTRACT: pitchwheel channel=6 pitch=-3712 time=0.016183027083333332
EXTRACT: pitchwheel channel=6 pitch=-3712 time=0
EXTRACT: pitchwheel channel=6 pitch=-3840 time=0.016183027083333332
EXTRACT: pitchwheel channel=6 pitch=-3840 time=0
EXTRACT: pitchwheel channel=6 pitch=-3968 time=0.016183027083333332
EXTRACT: pitchwheel channel=6 pitch=-3968 time=0
EXTRACT: pitchwheel channel=6 pitch=-4096 time=0.016183027083333332
EXTRACT: pitchwheel channel=6 pitch=-4096 time=0
EXTRACT: pitchwheel channel=6 pitch=-4224 time=0.016183027083333332
EXTRACT: pitchwheel channel=6 pitch=-4224 time=0
EXTRACT: pitchwheel channel=3 pitch=256 time=0.0016741062500000002
EXTRACT: pitchwheel channel=3 pitch=256 time=0
EXTRACT: pitchwheel channel=3 pitch=0 time=0
EXTRACT: note_off channel=3 note=66 velocity=95 time=0
EXTRACT: pitchwheel channel=3 pitch=0 time=0
EXTRACT: note_on channel=3 note=67 velocity=95 time=0
EXTRACT: note_on channel=5 note=64 velocity=95 time=0
EXTRACT: note_on channel=5 note=59 velocity=95 time=0
EXTRACT: note_on channel=5 note=55 velocity=95 time=0
EXTRACT: note_on channel=5 note=50 velocity=95 time=0
EXTRACT: note_off channel=7 note=33 velocity=95 time=0
EXTRACT: note_off channel=9 note=36 velocity=95 time=0
EXTRACT: note_on channel=9 note=28 velocity=95 time=0
EXTRACT: note_on channel=9 note=39 velocity=95 time=0
EXTRACT: pitchwheel channel=6 pitch=-4352 time=0.014508920833333334
EXTRACT: pitchwheel channel=6 pitch=-4352 time=0
EXTRACT: pitchwheel channel=3 pitch=-128 time=0.0033482125000000003
EXTRACT: pitchwheel channel=6 pitch=-4480 time=0.012834814583333333
EXTRACT: pitchwheel channel=6 pitch=-4480 time=0
EXTRACT: pitchwheel channel=4 pitch=256 time=0.0027901770833333333
EXTRACT: pitchwheel channel=4 pitch=256 time=0
EXTRACT: pitchwheel channel=4 pitch=0 time=0
EXTRACT: note_off channel=4 note=66 velocity=95 time=0
EXTRACT: pitchwheel channel=4 pitch=0 time=0
EXTRACT: note_on channel=4 note=67 velocity=95 time=0
EXTRACT: pitchwheel channel=3 pitch=-256 time=0.0022321416666666667
EXTRACT: pitchwheel channel=6 pitch=-4608 time=0.011160708333333333
EXTRACT: pitchwheel channel=6 pitch=-4608 time=0
EXTRACT: pitchwheel channel=4 pitch=-128 time=0.0044642833333333335
EXTRACT: pitchwheel channel=3 pitch=-384 time=0.0022321416666666667
EXTRACT: pitchwheel channel=6 pitch=-4736 time=0.009486602083333334
EXTRACT: pitchwheel channel=6 pitch=-4736 time=0
EXTRACT: pitchwheel channel=4 pitch=-256 time=0.006138389583333333
EXTRACT: pitchwheel channel=3 pitch=-512 time=0.0022321416666666667
EXTRACT: pitchwheel channel=6 pitch=-4864 time=0.007812495833333334
EXTRACT: pitchwheel channel=6 pitch=-4864 time=0
EXTRACT: pitchwheel channel=4 pitch=-384 time=0.007812495833333334
EXTRACT: pitchwheel channel=3 pitch=-640 time=0.0022321416666666667
EXTRACT: pitchwheel channel=6 pitch=-4992 time=0.006138389583333333
EXTRACT: pitchwheel channel=6 pitch=-4992 time=0
EXTRACT: pitchwheel channel=4 pitch=-512 time=0.009486602083333334
EXTRACT: pitchwheel channel=3 pitch=-768 time=0.0022321416666666667
EXTRACT: pitchwheel channel=6 pitch=-5120 time=0.0044642833333333335
EXTRACT: pitchwheel channel=6 pitch=-5120 time=0
EXTRACT: pitchwheel channel=4 pitch=-640 time=0.011160708333333333
EXTRACT: pitchwheel channel=3 pitch=-896 time=0.0022321416666666667
EXTRACT: pitchwheel channel=6 pitch=-5248 time=0.0027901770833333333
EXTRACT: pitchwheel channel=6 pitch=-5248 time=0
EXTRACT: pitchwheel channel=4 pitch=-768 time=0.012834814583333333
EXTRACT: pitchwheel channel=3 pitch=-1024 time=0.0022321416666666667
EXTRACT: pitchwheel channel=6 pitch=-5376 time=0.0011160708333333334
EXTRACT: pitchwheel channel=6 pitch=-5376 time=0
EXTRACT: pitchwheel channel=4 pitch=-896 time=0.014508920833333334
EXTRACT: pitchwheel channel=6 pitch=-5504 time=0.0016741062500000002
EXTRACT: pitchwheel channel=6 pitch=-5504 time=0
EXTRACT: pitchwheel channel=3 pitch=-1152 time=0.0005580354166666667
EXTRACT: pitchwheel channel=4 pitch=-1024 time=0.015624991666666668
EXTRACT: pitchwheel channel=6 pitch=-5632 time=0
EXTRACT: pitchwheel channel=6 pitch=-5632 time=0
EXTRACT: pitchwheel channel=3 pitch=-1280 time=0.0022321416666666667
EXTRACT: pitchwheel channel=6 pitch=-5760 time=0.013950885416666668
EXTRACT: pitchwheel channel=6 pitch=-5760 time=0
EXTRACT: pitchwheel channel=4 pitch=-1152 time=0.0016741062500000002
EXTRACT: pitchwheel channel=3 pitch=-1408 time=0.0022321416666666667
EXTRACT: pitchwheel channel=3 pitch=-1408 time=0.0044642833333333335
EXTRACT: pitchwheel channel=3 pitch=0 time=0
EXTRACT: note_off channel=3 note=67 velocity=95 time=0
EXTRACT: pitchwheel channel=6 pitch=-5888 time=0.007812495833333334
EXTRACT: pitchwheel channel=6 pitch=-5888 time=0
EXTRACT: pitchwheel channel=4 pitch=-1280 time=0.0033482125000000003
EXTRACT: pitchwheel channel=6 pitch=-6016 time=0.012834814583333333
EXTRACT: pitchwheel channel=6 pitch=-6016 time=0
EXTRACT: pitchwheel channel=4 pitch=-1408 time=0.00502231875
EXTRACT: pitchwheel channel=4 pitch=-1408 time=0.0044642833333333335
EXTRACT: pitchwheel channel=4 pitch=0 time=0
EXTRACT: note_off channel=4 note=67 velocity=95 time=0
EXTRACT: pitchwheel channel=6 pitch=-6144 time=0.006696425000000001
EXTRACT: pitchwheel channel=6 pitch=-6144 time=0
EXTRACT: pitchwheel channel=6 pitch=-6272 time=0.016183027083333332
EXTRACT: pitchwheel channel=6 pitch=-6272 time=0
EXTRACT: pitchwheel channel=3 pitch=0 time=0.010602672916666667
EXTRACT: note_on channel=3 note=66 velocity=95 time=0
EXTRACT: note_off channel=8 note=23 velocity=95 time=0
EXTRACT: pitchwheel channel=6 pitch=-6400 time=0.005580354166666667
EXTRACT: pitchwheel channel=6 pitch=-6400 time=0
EXTRACT: pitchwheel channel=6 pitch=-6528 time=0.016183027083333332
EXTRACT: pitchwheel channel=6 pitch=-6528 time=0
EXTRACT: pitchwheel channel=4 pitch=0 time=0.01171874375
EXTRACT: note_on channel=4 note=66 velocity=95 time=0
EXTRACT: pitchwheel channel=6 pitch=-6656 time=0.0044642833333333335
EXTRACT: pitchwheel channel=6 pitch=-6656 time=0
EXTRACT: pitchwheel channel=6 pitch=-6784 time=0.016183027083333332
EXTRACT: pitchwheel channel=6 pitch=-6784 time=0
EXTRACT: pitchwheel channel=3 pitch=128 time=0.012834814583333333
EXTRACT: pitchwheel channel=6 pitch=-6912 time=0.0033482125000000003
EXTRACT: pitchwheel channel=6 pitch=-6912 time=0
EXTRACT: pitchwheel channel=6 pitch=-7040 time=0.016183027083333332
EXTRACT: pitchwheel channel=6 pitch=-7040 time=0
EXTRACT: pitchwheel channel=4 pitch=128 time=0.013950885416666668
EXTRACT: pitchwheel channel=6 pitch=-7168 time=0.0022321416666666667
EXTRACT: pitchwheel channel=6 pitch=-7168 time=0
EXTRACT: pitchwheel channel=6 pitch=-7296 time=0.016183027083333332
EXTRACT: pitchwheel channel=6 pitch=-7296 time=0
EXTRACT: pitchwheel channel=3 pitch=256 time=0.015066956250000001
EXTRACT: pitchwheel channel=3 pitch=256 time=0
EXTRACT: pitchwheel channel=3 pitch=0 time=0
EXTRACT: note_off channel=3 note=66 velocity=95 time=0
EXTRACT: pitchwheel channel=3 pitch=256 time=0
EXTRACT: note_on channel=3 note=66 velocity=95 time=0
EXTRACT: pitchwheel channel=6 pitch=-7424 time=0.0011160708333333334
EXTRACT: pitchwheel channel=6 pitch=-7424 time=0
EXTRACT: pitchwheel channel=6 pitch=-7552 time=0.016183027083333332
EXTRACT: pitchwheel channel=6 pitch=-7552 time=0
EXTRACT: pitchwheel channel=4 pitch=256 time=0.016183027083333332
EXTRACT: pitchwheel channel=4 pitch=256 time=0
EXTRACT: pitchwheel channel=4 pitch=0 time=0
EXTRACT: note_off channel=4 note=66 velocity=95 time=0
EXTRACT: pitchwheel channel=4 pitch=256 time=0
EXTRACT: note_on channel=4 note=66 velocity=95 time=0
EXTRACT: pitchwheel channel=6 pitch=-7680 time=0
EXTRACT: pitchwheel channel=6 pitch=-7680 time=0
EXTRACT: pitchwheel channel=6 pitch=-7808 time=0.016183027083333332
EXTRACT: pitchwheel channel=6 pitch=-7808 time=0
EXTRACT: pitchwheel channel=6 pitch=-7936 time=0.016183027083333332
EXTRACT: pitchwheel channel=6 pitch=-7936 time=0
EXTRACT: pitchwheel channel=6 pitch=-8064 time=0.016183027083333332
EXTRACT: pitchwheel channel=6 pitch=-8064 time=0
EXTRACT: pitchwheel channel=6 pitch=-8192 time=0.016183027083333332
EXTRACT: pitchwheel channel=6 pitch=-8192 time=0
EXTRACT: pitchwheel channel=6 pitch=-8192 time=0.016183027083333332
EXTRACT: pitchwheel channel=6 pitch=-8192 time=0
EXTRACT: pitchwheel channel=6 pitch=-8192 time=0.016183027083333332
EXTRACT: pitchwheel channel=6 pitch=-8192 time=0
EXTRACT: pitchwheel channel=3 pitch=256 time=0.0033482125000000003
EXTRACT: pitchwheel channel=3 pitch=0 time=0
EXTRACT: note_off channel=3 note=66 velocity=95 time=0
EXTRACT: pitchwheel channel=3 pitch=256 time=0
EXTRACT: note_on channel=3 note=67 velocity=95 time=0
EXTRACT: pitchwheel channel=6 pitch=-8192 time=0
EXTRACT: pitchwheel channel=6 pitch=0 time=0
EXTRACT: note_off channel=6 note=53 velocity=95 time=0
EXTRACT: pitchwheel channel=6 pitch=-8192 time=0
EXTRACT: pitchwheel channel=6 pitch=0 time=0
EXTRACT: note_off channel=6 note=53 velocity=95 time=0
EXTRACT: note_on channel=7 note=33 velocity=95 time=0
EXTRACT: note_on channel=8 note=23 velocity=95 time=0
EXTRACT: note_on channel=10 note=40 velocity=95 time=0
EXTRACT: note_off channel=9 note=28 velocity=95 time=0
EXTRACT: note_off channel=9 note=39 velocity=95 time=0
EXTRACT: note_on channel=9 note=36 velocity=95 time=0
EXTRACT: pitchwheel channel=4 pitch=256 time=0.033482125
EXTRACT: pitchwheel channel=4 pitch=0 time=0
EXTRACT: note_off channel=4 note=66 velocity=95 time=0
EXTRACT: pitchwheel channel=4 pitch=256 time=0
EXTRACT: note_on channel=4 note=67 velocity=95 time=0
EXTRACT: note_off channel=10 note=40 velocity=95 time=0.033482125
EXTRACT: pitchwheel channel=3 pitch=256 time=0.022321416666666666
EXTRACT: pitchwheel channel=4 pitch=256 time=0.033482125
EXTRACT: pitchwheel channel=3 pitch=128 time=0.011160708333333333
EXTRACT: pitchwheel channel=4 pitch=128 time=0.033482125
EXTRACT: pitchwheel channel=3 pitch=0 time=0.011160708333333333
EXTRACT: pitchwheel channel=3 pitch=0 time=0
EXTRACT: pitchwheel channel=4 pitch=0 time=0.033482125
EXTRACT: pitchwheel channel=4 pitch=0 time=0
EXTRACT: pitchwheel channel=3 pitch=0 time=0.05580354166666667
EXTRACT: pitchwheel channel=3 pitch=0 time=0
EXTRACT: note_off channel=3 note=67 velocity=95 time=0
EXTRACT: pitchwheel channel=3 pitch=256 time=0
EXTRACT: note_on channel=3 note=66 velocity=95 time=0
EXTRACT: note_off channel=5 note=64 velocity=95 time=0
EXTRACT: note_off channel=5 note=59 velocity=95 time=0
EXTRACT: note_off channel=5 note=55 velocity=95 time=0
EXTRACT: note_off channel=5 note=50 velocity=95 time=0
EXTRACT: note_off channel=8 note=23 velocity=95 time=0
EXTRACT: note_on channel=8 note=23 velocity=95 time=0
EXTRACT: note_on channel=10 note=40 velocity=95 time=0
EXTRACT: note_off channel=9 note=36 velocity=95 time=0
EXTRACT: note_on channel=9 note=36 velocity=95 time=0
EXTRACT: pitchwheel channel=4 pitch=0 time=0.033482125
EXTRACT: pitchwheel channel=4 pitch=0 time=0
EXTRACT: note_off channel=4 note=67 velocity=95 time=0
EXTRACT: pitchwheel channel=4 pitch=256 time=0
EXTRACT: note_on channel=4 note=66 velocity=95 time=0
EXTRACT: note_off channel=10 note=40 velocity=95 time=0.033482125
EXTRACT: pitchwheel channel=3 pitch=256 time=0.20089275
EXTRACT: pitchwheel channel=3 pitch=0 time=0
EXTRACT: note_off channel=3 note=66 velocity=95 time=0
EXTRACT: note_on channel=3 note=67 velocity=95 time=0
EXTRACT: note_on channel=5 note=64 velocity=95 time=0
EXTRACT: note_on channel=5 note=59 velocity=95 time=0
EXTRACT: note_on channel=5 note=55 velocity=95 time=0
EXTRACT: note_on channel=5 note=50 velocity=95 time=0
EXTRACT: note_off channel=7 note=33 velocity=95 time=0
EXTRACT: note_off channel=8 note=23 velocity=95 time=0
EXTRACT: note_off channel=9 note=36 velocity=95 time=0
EXTRACT: note_on channel=9 note=28 velocity=95 time=0
EXTRACT: note_on channel=9 note=39 velocity=95 time=0
EXTRACT: pitchwheel channel=4 pitch=256 time=0.033482125
EXTRACT: pitchwheel channel=4 pitch=0 time=0
EXTRACT: note_off channel=4 note=66 velocity=95 time=0
EXTRACT: note_on channel=4 note=67 velocity=95 time=0
EXTRACT: note_off channel=3 note=67 velocity=95 time=0.234374875
EXTRACT: pitchwheel channel=3 pitch=0 time=0
EXTRACT: note_on channel=3 note=67 velocity=95 time=0
EXTRACT: note_on channel=7 note=33 velocity=95 time=0
EXTRACT: note_on channel=8 note=23 velocity=95 time=0
EXTRACT: note_on channel=10 note=40 velocity=95 time=0
EXTRACT: note_off channel=9 note=28 velocity=95 time=0
EXTRACT: note_off channel=9 note=39 velocity=95 time=0
EXTRACT: note_on channel=9 note=36 velocity=95 time=0
EXTRACT: note_off channel=4 note=67 velocity=95 time=0.033482125
EXTRACT: pitchwheel channel=4 pitch=0 time=0
EXTRACT: note_on channel=4 note=67 velocity=95 time=0
EXTRACT: pitchwheel channel=3 pitch=128 time=0.033482125
EXTRACT: note_off channel=10 note=40 velocity=95 time=0
EXTRACT: pitchwheel channel=4 pitch=128 time=0.033482125
EXTRACT: pitchwheel channel=3 pitch=256 time=0.033482125
EXTRACT: pitchwheel channel=3 pitch=256 time=0
EXTRACT: pitchwheel channel=3 pitch=0 time=0
EXTRACT: note_off channel=3 note=67 velocity=95 time=0
EXTRACT: pitchwheel channel=3 pitch=0 time=0
EXTRACT: note_on channel=3 note=67 velocity=95 time=0
EXTRACT: pitchwheel channel=4 pitch=256 time=0.033482125
EXTRACT: pitchwheel channel=4 pitch=256 time=0
EXTRACT: pitchwheel channel=4 pitch=0 time=0
EXTRACT: note_off channel=4 note=67 velocity=95 time=0
EXTRACT: pitchwheel channel=4 pitch=0 time=0
EXTRACT: note_on channel=4 note=67 velocity=95 time=0
EXTRACT: pitchwheel channel=3 pitch=128 time=0.06696425
EXTRACT: pitchwheel channel=4 pitch=128 time=0.033482125
EXTRACT: note_off channel=9 note=36 velocity=95 time=0
EXTRACT: pitchwheel channel=3 pitch=256 time=0.06696425
EXTRACT: pitchwheel channel=3 pitch=256 time=0
EXTRACT: pitchwheel channel=3 pitch=0 time=0
EXTRACT: note_off channel=3 note=67 velocity=95 time=0
EXTRACT: pitchwheel channel=4 pitch=256 time=0.033482125
EXTRACT: pitchwheel channel=4 pitch=256 time=0
EXTRACT: pitchwheel channel=4 pitch=0 time=0
EXTRACT: note_off channel=4 note=67 velocity=95 time=0
EXTRACT: pitchwheel channel=3 pitch=0 time=0.167410625
EXTRACT: note_on channel=3 note=65 velocity=95 time=0
EXTRACT: note_off channel=5 note=64 velocity=95 time=0
EXTRACT: note_off channel=5 note=59 velocity=95 time=0
EXTRACT: note_off channel=5 note=55 velocity=95 time=0
EXTRACT: note_off channel=5 note=50 velocity=95 time=0
EXTRACT: note_off channel=7 note=33 velocity=95 time=0
EXTRACT: note_on channel=7 note=33 velocity=95 time=0
EXTRACT: note_off channel=8 note=23 velocity=95 time=0
EXTRACT: note_on channel=8 note=23 velocity=95 time=0
EXTRACT: note_on channel=10 note=40 velocity=95 time=0
EXTRACT: note_on channel=9 note=36 velocity=95 time=0
EXTRACT: pitchwheel channel=4 pitch=0 time=0.033482125
EXTRACT: note_on channel=4 note=65 velocity=95 time=0
EXTRACT: note_off channel=10 note=40 velocity=95 time=0.033482125
EXTRACT: pitchwheel channel=3 pitch=0 time=0.20089275
EXTRACT: note_on channel=5 note=64 velocity=95 time=0
EXTRACT: note_on channel=5 note=59 velocity=95 time=0
EXTRACT: note_on channel=5 note=55 velocity=95 time=0
EXTRACT: note_on channel=5 note=50 velocity=95 time=0
EXTRACT: note_off channel=7 note=33 velocity=95 time=0
EXTRACT: note_off channel=9 note=36 velocity=95 time=0
EXTRACT: note_on channel=9 note=28 velocity=95 time=0
EXTRACT: note_on channel=9 note=39 velocity=95 time=0
EXTRACT: pitchwheel channel=4 pitch=0 time=0.033482125
EXTRACT: pitchwheel channel=3 pitch=128 time=0.100446375
EXTRACT: pitchwheel channel=4 pitch=128 time=0.033482125
EXTRACT: pitchwheel channel=3 pitch=256 time=0.100446375
EXTRACT: pitchwheel channel=3 pitch=256 time=0
EXTRACT: pitchwheel channel=3 pitch=0 time=0
EXTRACT: note_off channel=3 note=65 velocity=95 time=0
EXTRACT: note_off channel=8 note=23 velocity=95 time=0
EXTRACT: pitchwheel channel=4 pitch=256 time=0.033482125
EXTRACT: pitchwheel channel=4 pitch=256 time=0
EXTRACT: pitchwheel channel=4 pitch=0 time=0
EXTRACT: note_off channel=4 note=65 velocity=95 time=0
EXTRACT: pitchwheel channel=3 pitch=0 time=0.100446375
EXTRACT: note_on channel=3 note=66 velocity=95 time=0
EXTRACT: pitchwheel channel=4 pitch=0 time=0.033482125
EXTRACT: note_on channel=4 note=66 velocity=95 time=0
EXTRACT: pitchwheel channel=3 pitch=128 time=0.033482125
EXTRACT: pitchwheel channel=4 pitch=128 time=0.033482125
EXTRACT: pitchwheel channel=3 pitch=256 time=0.033482125
EXTRACT: pitchwheel channel=3 pitch=256 time=0
EXTRACT: pitchwheel channel=3 pitch=0 time=0
EXTRACT: note_off channel=3 note=66 velocity=95 time=0
EXTRACT: pitchwheel channel=3 pitch=256 time=0
EXTRACT: note_on channel=3 note=67 velocity=95 time=0
EXTRACT: note_on channel=7 note=33 velocity=95 time=0
EXTRACT: note_on channel=8 note=23 velocity=95 time=0
EXTRACT: note_on channel=10 note=40 velocity=95 time=0
EXTRACT: note_off channel=9 note=28 velocity=95 time=0
EXTRACT: note_off channel=9 note=39 velocity=95 time=0
EXTRACT: note_on channel=9 note=36 velocity=95 time=0
EXTRACT: pitchwheel channel=4 pitch=256 time=0.033482125
EXTRACT: pitchwheel channel=4 pitch=256 time=0
EXTRACT: pitchwheel channel=4 pitch=0 time=0
EXTRACT: note_off channel=4 note=66 velocity=95 time=0
EXTRACT: pitchwheel channel=4 pitch=256 time=0
EXTRACT: note_on channel=4 note=67 velocity=95 time=0
EXTRACT: note_off channel=10 note=40 velocity=95 time=0.033482125
EXTRACT: pitchwheel channel=3 pitch=256 time=0.022321416666666666
EXTRACT: pitchwheel channel=4 pitch=256 time=0.033482125
EXTRACT: pitchwheel channel=3 pitch=128 time=0.011160708333333333
EXTRACT: pitchwheel channel=4 pitch=128 time=0.033482125
EXTRACT: pitchwheel channel=3 pitch=0 time=0.011160708333333333
EXTRACT: pitchwheel channel=3 pitch=0 time=0
EXTRACT: pitchwheel channel=4 pitch=0 time=0.033482125
EXTRACT: pitchwheel channel=4 pitch=0 time=0
EXTRACT: pitchwheel channel=3 pitch=0 time=0.05580354166666667
EXTRACT: pitchwheel channel=3 pitch=0 time=0
EXTRACT: note_off channel=3 note=67 velocity=95 time=0
EXTRACT: pitchwheel channel=3 pitch=256 time=0
EXTRACT: note_on channel=3 note=66 velocity=95 time=0
EXTRACT: note_off channel=5 note=64 velocity=95 time=0
EXTRACT: note_off channel=5 note=59 velocity=95 time=0
EXTRACT: note_off channel=5 note=55 velocity=95 time=0
EXTRACT: note_off channel=5 note=50 velocity=95 time=0
EXTRACT: pitchwheel channel=4 pitch=0 time=0.033482125
EXTRACT: pitchwheel channel=4 pitch=0 time=0
EXTRACT: note_off channel=4 note=67 velocity=95 time=0
EXTRACT: pitchwheel channel=4 pitch=256 time=0
EXTRACT: note_on channel=4 note=66 velocity=95 time=0
EXTRACT: pitchwheel channel=3 pitch=256 time=0.234374875
EXTRACT: pitchwheel channel=3 pitch=0 time=0
EXTRACT: note_off channel=3 note=66 velocity=95 time=0
EXTRACT: note_on channel=3 note=67 velocity=95 time=0
EXTRACT: note_on channel=5 note=64 velocity=95 time=0
EXTRACT: note_on channel=5 note=59 velocity=95 time=0
EXTRACT: note_on channel=5 note=55 velocity=95 time=0
EXTRACT: note_on channel=5 note=50 velocity=95 time=0
EXTRACT: note_off channel=7 note=33 velocity=95 time=0
EXTRACT: note_off channel=8 note=23 velocity=95 time=0
EXTRACT: note_off channel=9 note=36 velocity=95 time=0
EXTRACT: note_on channel=9 note=28 velocity=95 time=0
EXTRACT: note_on channel=9 note=39 velocity=95 time=0
EXTRACT: pitchwheel channel=4 pitch=256 time=0.033482125
EXTRACT: pitchwheel channel=4 pitch=0 time=0
EXTRACT: note_off channel=4 note=66 velocity=95 time=0
EXTRACT: note_on channel=4 note=67 velocity=95 time=0
EXTRACT: note_off channel=3 note=67 velocity=95 time=0.234374875
EXTRACT: pitchwheel channel=3 pitch=0 time=0
EXTRACT: note_on channel=3 note=67 velocity=95 time=0
EXTRACT: note_on channel=7 note=33 velocity=95 time=0
EXTRACT: note_on channel=8 note=23 velocity=95 time=0
EXTRACT: note_on channel=10 note=40 velocity=95 time=0
EXTRACT: note_off channel=9 note=28 velocity=95 time=0
EXTRACT: note_off channel=9 note=39 velocity=95 time=0
EXTRACT: note_on channel=9 note=36 velocity=95 time=0
EXTRACT: note_off channel=4 note=67 velocity=95 time=0.033482125
EXTRACT: pitchwheel channel=4 pitch=0 time=0
EXTRACT: note_on channel=4 note=67 velocity=95 time=0
EXTRACT: pitchwheel channel=3 pitch=128 time=0.033482125
EXTRACT: note_off channel=10 note=40 velocity=95 time=0
EXTRACT: pitchwheel channel=4 pitch=128 time=0.033482125
EXTRACT: pitchwheel channel=3 pitch=256 time=0.033482125
EXTRACT: pitchwheel channel=3 pitch=256 time=0
EXTRACT: pitchwheel channel=3 pitch=0 time=0
EXTRACT: note_off channel=3 note=67 velocity=95 time=0
EXTRACT: pitchwheel channel=3 pitch=0 time=0
EXTRACT: note_on channel=3 note=67 velocity=95 time=0
EXTRACT: pitchwheel channel=4 pitch=256 time=0.033482125
EXTRACT: pitchwheel channel=4 pitch=256 time=0
EXTRACT: pitchwheel channel=4 pitch=0 time=0
EXTRACT: note_off channel=4 note=67 velocity=95 time=0
EXTRACT: pitchwheel channel=4 pitch=0 time=0
EXTRACT: note_on channel=4 note=67 velocity=95 time=0
EXTRACT: pitchwheel channel=3 pitch=128 time=0.06696425
EXTRACT: pitchwheel channel=4 pitch=128 time=0.033482125
EXTRACT: pitchwheel channel=6 pitch=0 time=0
EXTRACT: note_on channel=6 note=53 velocity=95 time=0
EXTRACT: pitchwheel channel=6 pitch=0 time=0
EXTRACT: note_on channel=6 note=53 velocity=95 time=0
EXTRACT: note_off channel=9 note=36 velocity=95 time=0
EXTRACT: pitchwheel channel=6 pitch=-128 time=0.016183027083333332
EXTRACT: pitchwheel channel=6 pitch=-128 time=0
EXTRACT: pitchwheel channel=6 pitch=-256 time=0.016183027083333332
EXTRACT: pitchwheel channel=6 pitch=-256 time=0
EXTRACT: pitchwheel channel=6 pitch=-384 time=0.016183027083333332
EXTRACT: pitchwheel channel=6 pitch=-384 time=0
EXTRACT: pitchwheel channel=6 pitch=-512 time=0.016183027083333332
EXTRACT: pitchwheel channel=6 pitch=-512 time=0
EXTRACT: pitchwheel channel=3 pitch=256 time=0.0022321416666666667
EXTRACT: pitchwheel channel=3 pitch=256 time=0
EXTRACT: pitchwheel channel=3 pitch=0 time=0
EXTRACT: note_off channel=3 note=67 velocity=95 time=0
EXTRACT: pitchwheel channel=6 pitch=-640 time=0.013950885416666668
EXTRACT: pitchwheel channel=6 pitch=-640 time=0
EXTRACT: pitchwheel channel=6 pitch=-768 time=0.016183027083333332
EXTRACT: pitchwheel channel=6 pitch=-768 time=0
EXTRACT: pitchwheel channel=4 pitch=256 time=0.0033482125000000003
EXTRACT: pitchwheel channel=4 pitch=256 time=0
EXTRACT: pitchwheel channel=4 pitch=0 time=0
EXTRACT: note_off channel=4 note=67 velocity=95 time=0
EXTRACT: pitchwheel channel=6 pitch=-896 time=0.012834814583333333
EXTRACT: pitchwheel channel=6 pitch=-896 time=0
EXTRACT: pitchwheel channel=6 pitch=-1024 time=0.016183027083333332
EXTRACT: pitchwheel channel=6 pitch=-1024 time=0
EXTRACT: pitchwheel channel=6 pitch=-1152 time=0.016183027083333332
EXTRACT: pitchwheel channel=6 pitch=-1152 time=0
EXTRACT: pitchwheel channel=6 pitch=-1280 time=0.016183027083333332
EXTRACT: pitchwheel channel=6 pitch=-1280 time=0
EXTRACT: pitchwheel channel=6 pitch=-1408 time=0.016183027083333332
EXTRACT: pitchwheel channel=6 pitch=-1408 time=0
EXTRACT: pitchwheel channel=6 pitch=-1536 time=0.016183027083333332
EXTRACT: pitchwheel channel=6 pitch=-1536 time=0
EXTRACT: pitchwheel channel=6 pitch=-1664 time=0.016183027083333332
EXTRACT: pitchwheel channel=6 pitch=-1664 time=0
EXTRACT: pitchwheel channel=6 pitch=-1792 time=0.016183027083333332
EXTRACT: pitchwheel channel=6 pitch=-1792 time=0
EXTRACT: pitchwheel channel=6 pitch=-1920 time=0.016183027083333332
EXTRACT: pitchwheel channel=6 pitch=-1920 time=0
EXTRACT: pitchwheel channel=6 pitch=-2048 time=0.016183027083333332
EXTRACT: pitchwheel channel=6 pitch=-2048 time=0
EXTRACT: pitchwheel channel=3 pitch=0 time=0.008928566666666667
EXTRACT: note_on channel=3 note=65 velocity=95 time=0
EXTRACT: note_off channel=5 note=64 velocity=95 time=0
EXTRACT: note_off channel=5 note=59 velocity=95 time=0
EXTRACT: note_off channel=5 note=55 velocity=95 time=0
EXTRACT: note_off channel=5 note=50 velocity=95 time=0
EXTRACT: note_off channel=7 note=33 velocity=95 time=0
EXTRACT: note_on channel=7 note=33 velocity=95 time=0
EXTRACT: note_off channel=8 note=23 velocity=95 time=0
EXTRACT: note_on channel=8 note=23 velocity=95 time=0
EXTRACT: note_on channel=10 note=40 velocity=95 time=0
EXTRACT: note_on channel=9 note=36 velocity=95 time=0
EXTRACT: pitchwheel channel=6 pitch=-2176 time=0.007254460416666667
EXTRACT: pitchwheel channel=6 pitch=-2176 time=0
EXTRACT: pitchwheel channel=6 pitch=-2304 time=0.016183027083333332
EXTRACT: pitchwheel channel=6 pitch=-2304 time=0
EXTRACT: pitchwheel channel=4 pitch=0 time=0.0100446375
EXTRACT: note_on channel=4 note=65 velocity=95 time=0
EXTRACT: pitchwheel channel=6 pitch=-2432 time=0.006138389583333333
EXTRACT: pitchwheel channel=6 pitch=-2432 time=0
EXTRACT: pitchwheel channel=6 pitch=-2560 time=0.016183027083333332
EXTRACT: pitchwheel channel=6 pitch=-2560 time=0
EXTRACT: note_off channel=10 note=40 velocity=95 time=0.011160708333333333
EXTRACT: pitchwheel channel=6 pitch=-2688 time=0.00502231875
EXTRACT: pitchwheel channel=6 pitch=-2688 time=0
EXTRACT: pitchwheel channel=6 pitch=-2816 time=0.016183027083333332
EXTRACT: pitchwheel channel=6 pitch=-2816 time=0
EXTRACT: pitchwheel channel=6 pitch=-2944 time=0.016183027083333332
EXTRACT: pitchwheel channel=6 pitch=-2944 time=0
EXTRACT: pitchwheel channel=6 pitch=-3072 time=0.016183027083333332
EXTRACT: pitchwheel channel=6 pitch=-3072 time=0
EXTRACT: pitchwheel channel=6 pitch=-3200 time=0.016183027083333332
EXTRACT: pitchwheel channel=6 pitch=-3200 time=0
EXTRACT: pitchwheel channel=6 pitch=-3328 time=0.016183027083333332
EXTRACT: pitchwheel channel=6 pitch=-3328 time=0
EXTRACT: pitchwheel channel=6 pitch=-3456 time=0.016183027083333332
EXTRACT: pitchwheel channel=6 pitch=-3456 time=0
EXTRACT: pitchwheel channel=6 pitch=-3584 time=0.016183027083333332
EXTRACT: pitchwheel channel=6 pitch=-3584 time=0
EXTRACT: pitchwheel channel=6 pitch=-3712 time=0.016183027083333332
EXTRACT: pitchwheel channel=6 pitch=-3712 time=0
EXTRACT: pitchwheel channel=6 pitch=-3840 time=0.016183027083333332
EXTRACT: pitchwheel channel=6 pitch=-3840 time=0
EXTRACT: pitchwheel channel=6 pitch=-3968 time=0.016183027083333332
EXTRACT: pitchwheel channel=6 pitch=-3968 time=0
EXTRACT: pitchwheel channel=6 pitch=-4096 time=0.016183027083333332
EXTRACT: pitchwheel channel=6 pitch=-4096 time=0
EXTRACT: pitchwheel channel=6 pitch=-4224 time=0.016183027083333332
EXTRACT: pitchwheel channel=6 pitch=-4224 time=0
EXTRACT: pitchwheel channel=3 pitch=0 time=0.0016741062500000002
EXTRACT: note_on channel=5 note=64 velocity=95 time=0
EXTRACT: note_on channel=5 note=59 velocity=95 time=0
EXTRACT: note_on channel=5 note=55 velocity=95 time=0
EXTRACT: note_on channel=5 note=50 velocity=95 time=0
EXTRACT: note_off channel=7 note=33 velocity=95 time=0
EXTRACT: note_off channel=9 note=36 velocity=95 time=0
EXTRACT: note_on channel=9 note=28 velocity=95 time=0
EXTRACT: note_on channel=9 note=39 velocity=95 time=0
EXTRACT: pitchwheel channel=6 pitch=-4352 time=0.014508920833333334
EXTRACT: pitchwheel channel=6 pitch=-4352 time=0
EXTRACT: pitchwheel channel=6 pitch=-4480 time=0.016183027083333332
EXTRACT: pitchwheel channel=6 pitch=-4480 time=0
EXTRACT: pitchwheel channel=4 pitch=0 time=0.0027901770833333333
EXTRACT: pitchwheel channel=6 pitch=-4608 time=0.013392850000000001
EXTRACT: pitchwheel channel=6 pitch=-4608 time=0
EXTRACT: pitchwheel channel=6 pitch=-4736 time=0.016183027083333332
EXTRACT: pitchwheel channel=6 pitch=-4736 time=0
EXTRACT: pitchwheel channel=6 pitch=-4864 time=0.016183027083333332
EXTRACT: pitchwheel channel=6 pitch=-4864 time=0
EXTRACT: pitchwheel channel=6 pitch=-4992 time=0.016183027083333332
EXTRACT: pitchwheel channel=6 pitch=-4992 time=0
EXTRACT: pitchwheel channel=6 pitch=-5120 time=0.016183027083333332
EXTRACT: pitchwheel channel=6 pitch=-5120 time=0
EXTRACT: pitchwheel channel=6 pitch=-5248 time=0.016183027083333332
EXTRACT: pitchwheel channel=6 pitch=-5248 time=0
EXTRACT: pitchwheel channel=3 pitch=128 time=0.006138389583333333
EXTRACT: pitchwheel channel=6 pitch=-5376 time=0.0100446375
EXTRACT: pitchwheel channel=6 pitch=-5376 time=0
EXTRACT: pitchwheel channel=6 pitch=-5504 time=0.016183027083333332
EXTRACT: pitchwheel channel=6 pitch=-5504 time=0
EXTRACT: pitchwheel channel=4 pitch=128 time=0.007254460416666667
EXTRACT: pitchwheel channel=6 pitch=-5632 time=0.008928566666666667
EXTRACT: pitchwheel channel=6 pitch=-5632 time=0
EXTRACT: pitchwheel channel=6 pitch=-5760 time=0.016183027083333332
EXTRACT: pitchwheel channel=6 pitch=-5760 time=0
EXTRACT: pitchwheel channel=6 pitch=-5888 time=0.016183027083333332
EXTRACT: pitchwheel channel=6 pitch=-5888 time=0
EXTRACT: pitchwheel channel=6 pitch=-6016 time=0.016183027083333332
EXTRACT: pitchwheel channel=6 pitch=-6016 time=0
EXTRACT: pitchwheel channel=6 pitch=-6144 time=0.016183027083333332
EXTRACT: pitchwheel channel=6 pitch=-6144 time=0
EXTRACT: pitchwheel channel=6 pitch=-6272 time=0.016183027083333332
EXTRACT: pitchwheel channel=6 pitch=-6272 time=0
EXTRACT: pitchwheel channel=3 pitch=256 time=0.010602672916666667
EXTRACT: pitchwheel channel=3 pitch=256 time=0
EXTRACT: pitchwheel channel=3 pitch=0 time=0
EXTRACT: note_off channel=3 note=65 velocity=95 time=0
EXTRACT: note_off channel=8 note=23 velocity=95 time=0
EXTRACT: pitchwheel channel=6 pitch=-6400 time=0.005580354166666667
EXTRACT: pitchwheel channel=6 pitch=-6400 time=0
EXTRACT: pitchwheel channel=6 pitch=-6528 time=0.016183027083333332
EXTRACT: pitchwheel channel=6 pitch=-6528 time=0
EXTRACT: pitchwheel channel=4 pitch=256 time=0.01171874375
EXTRACT: pitchwheel channel=4 pitch=256 time=0
EXTRACT: pitchwheel channel=4 pitch=0 time=0
EXTRACT: note_off channel=4 note=65 velocity=95 time=0
EXTRACT: pitchwheel channel=6 pitch=-6656 time=0.0044642833333333335
EXTRACT: pitchwheel channel=6 pitch=-6656 time=0
EXTRACT: pitchwheel channel=6 pitch=-6784 time=0.016183027083333332
EXTRACT: pitchwheel channel=6 pitch=-6784 time=0
EXTRACT: pitchwheel channel=6 pitch=-6912 time=0.016183027083333332
EXTRACT: pitchwheel channel=6 pitch=-6912 time=0
EXTRACT: pitchwheel channel=6 pitch=-7040 time=0.016183027083333332
EXTRACT: pitchwheel channel=6 pitch=-7040 time=0
EXTRACT: pitchwheel channel=6 pitch=-7168 time=0.016183027083333332
EXTRACT: pitchwheel channel=6 pitch=-7168 time=0
EXTRACT: pitchwheel channel=6 pitch=-7296 time=0.016183027083333332
EXTRACT: pitchwheel channel=6 pitch=-7296 time=0
EXTRACT: pitchwheel channel=6 pitch=-7424 time=0.016183027083333332
EXTRACT: pitchwheel channel=6 pitch=-7424 time=0
EXTRACT: pitchwheel channel=6 pitch=-7552 time=0.016183027083333332
EXTRACT: pitchwheel channel=6 pitch=-7552 time=0
EXTRACT: pitchwheel channel=6 pitch=-7680 time=0.016183027083333332
EXTRACT: pitchwheel channel=6 pitch=-7680 time=0
EXTRACT: pitchwheel channel=6 pitch=-7808 time=0.016183027083333332
EXTRACT: pitchwheel channel=6 pitch=-7808 time=0
EXTRACT: pitchwheel channel=6 pitch=-7936 time=0.016183027083333332
EXTRACT: pitchwheel channel=6 pitch=-7936 time=0
EXTRACT: pitchwheel channel=6 pitch=-8064 time=0.016183027083333332
EXTRACT: pitchwheel channel=6 pitch=-8064 time=0
EXTRACT: pitchwheel channel=6 pitch=-8192 time=0.016183027083333332
EXTRACT: pitchwheel channel=6 pitch=-8192 time=0
EXTRACT: pitchwheel channel=6 pitch=-8192 time=0.016183027083333332
EXTRACT: pitchwheel channel=6 pitch=-8192 time=0
EXTRACT: pitchwheel channel=6 pitch=-8192 time=0.016183027083333332
EXTRACT: pitchwheel channel=6 pitch=-8192 time=0
EXTRACT: pitchwheel channel=3 pitch=0 time=0.0033482125000000003
EXTRACT: note_on channel=3 note=70 velocity=95 time=0
EXTRACT: pitchwheel channel=6 pitch=-8192 time=0
EXTRACT: pitchwheel channel=6 pitch=0 time=0
EXTRACT: note_off channel=6 note=53 velocity=95 time=0
EXTRACT: pitchwheel channel=6 pitch=-8192 time=0
EXTRACT: pitchwheel channel=6 pitch=0 time=0
EXTRACT: note_off channel=6 note=53 velocity=95 time=0
EXTRACT: note_on channel=7 note=33 velocity=95 time=0
EXTRACT: note_on channel=8 note=23 velocity=95 time=0
EXTRACT: note_on channel=10 note=40 velocity=95 time=0
EXTRACT: note_off channel=9 note=28 velocity=95 time=0
EXTRACT: note_off channel=9 note=39 velocity=95 time=0
EXTRACT: note_on channel=9 note=36 velocity=95 time=0
EXTRACT: pitchwheel channel=4 pitch=0 time=0.033482125
EXTRACT: note_on channel=4 note=70 velocity=95 time=0
EXTRACT: pitchwheel channel=3 pitch=-128 time=0.0027901770833333333
EXTRACT: note_off channel=10 note=40 velocity=95 time=0.030691947916666667
EXTRACT: pitchwheel channel=4 pitch=-128 time=0.0027901770833333333
EXTRACT: pitchwheel channel=3 pitch=-256 time=0.0027901770833333333
EXTRACT: pitchwheel channel=4 pitch=-256 time=0.033482125
EXTRACT: pitchwheel channel=3 pitch=-384 time=0.0027901770833333333
EXTRACT: pitchwheel channel=4 pitch=-384 time=0.033482125
EXTRACT: pitchwheel channel=3 pitch=-512 time=0.0027901770833333333
EXTRACT: pitchwheel channel=4 pitch=-512 time=0.033482125
EXTRACT: pitchwheel channel=3 pitch=-640 time=0.0027901770833333333
EXTRACT: pitchwheel channel=4 pitch=-640 time=0.033482125
EXTRACT: pitchwheel channel=3 pitch=-768 time=0.0027901770833333333
EXTRACT: pitchwheel channel=4 pitch=-768 time=0.033482125
EXTRACT: pitchwheel channel=3 pitch=-896 time=0.0027901770833333333
EXTRACT: note_off channel=5 note=64 velocity=95 time=0.013950885416666668
EXTRACT: note_off channel=5 note=59 velocity=95 time=0
EXTRACT: note_off channel=5 note=55 velocity=95 time=0
EXTRACT: note_off channel=5 note=50 velocity=95 time=0
EXTRACT: pitchwheel channel=4 pitch=-896 time=0.019531239583333335
EXTRACT: pitchwheel channel=3 pitch=-1024 time=0.0027901770833333333
EXTRACT: pitchwheel channel=4 pitch=-1024 time=0.033482125
EXTRACT: pitchwheel channel=3 pitch=-1152 time=0.0027901770833333333
EXTRACT: pitchwheel channel=4 pitch=-1152 time=0.033482125
EXTRACT: pitchwheel channel=3 pitch=-1280 time=0.0027901770833333333
EXTRACT: pitchwheel channel=4 pitch=-1280 time=0.033482125
EXTRACT: pitchwheel channel=3 pitch=-1408 time=0.0027901770833333333
EXTRACT: pitchwheel channel=3 pitch=-1408 time=0.0027901770833333333
EXTRACT: pitchwheel channel=3 pitch=0 time=0
EXTRACT: note_off channel=3 note=70 velocity=95 time=0
EXTRACT: pitchwheel channel=3 pitch=0 time=0
EXTRACT: note_on channel=3 note=68 velocity=95 time=0
EXTRACT: pitchwheel channel=4 pitch=-1408 time=0.030691947916666667
EXTRACT: pitchwheel channel=4 pitch=-1408 time=0.0027901770833333333
EXTRACT: pitchwheel channel=4 pitch=0 time=0
EXTRACT: note_off channel=4 note=70 velocity=95 time=0
EXTRACT: pitchwheel channel=4 pitch=0 time=0
EXTRACT: note_on channel=4 note=68 velocity=95 time=0
EXTRACT: pitchwheel channel=3 pitch=-128 time=0.020089275
EXTRACT: pitchwheel channel=4 pitch=-128 time=0.033482125
EXTRACT: pitchwheel channel=3 pitch=-256 time=0.020089275
EXTRACT: note_on channel=5 note=64 velocity=95 time=0.026785700000000003
EXTRACT: note_on channel=5 note=59 velocity=95 time=0
EXTRACT: note_on channel=5 note=55 velocity=95 time=0
EXTRACT: note_on channel=5 note=50 velocity=95 time=0
EXTRACT: note_off channel=7 note=33 velocity=95 time=0
EXTRACT: note_off channel=8 note=23 velocity=95 time=0
EXTRACT: note_off channel=9 note=36 velocity=95 time=0
EXTRACT: note_on channel=9 note=28 velocity=95 time=0
EXTRACT: note_on channel=9 note=39 velocity=95 time=0
EXTRACT: pitchwheel channel=4 pitch=-256 time=0.006696425000000001
EXTRACT: pitchwheel channel=3 pitch=-384 time=0.020089275
EXTRACT: pitchwheel channel=4 pitch=-384 time=0.033482125
EXTRACT: pitchwheel channel=3 pitch=-512 time=0.020089275
EXTRACT: pitchwheel channel=4 pitch=-512 time=0.033482125
EXTRACT: pitchwheel channel=3 pitch=-640 time=0.020089275
EXTRACT: pitchwheel channel=3 pitch=-640 time=0
EXTRACT: pitchwheel channel=3 pitch=0 time=0
EXTRACT: note_off channel=3 note=68 velocity=95 time=0
EXTRACT: note_on channel=3 note=67 velocity=95 time=0
EXTRACT: pitchwheel channel=4 pitch=-640 time=0.033482125
EXTRACT: pitchwheel channel=4 pitch=-640 time=0
EXTRACT: pitchwheel channel=4 pitch=0 time=0
EXTRACT: note_off channel=4 note=68 velocity=95 time=0
EXTRACT: note_on channel=4 note=67 velocity=95 time=0
EXTRACT: note_off channel=3 note=67 velocity=95 time=0.100446375
EXTRACT: pitchwheel channel=3 pitch=0 time=0
EXTRACT: note_on channel=3 note=67 velocity=95 time=0
EXTRACT: note_on channel=7 note=33 velocity=95 time=0
EXTRACT: note_on channel=8 note=23 velocity=95 time=0
EXTRACT: note_on channel=10 note=40 velocity=95 time=0
EXTRACT: note_off channel=9 note=28 velocity=95 time=0
EXTRACT: note_off channel=9 note=39 velocity=95 time=0
EXTRACT: note_on channel=9 note=36 velocity=95 time=0
EXTRACT: note_off channel=4 note=67 velocity=95 time=0.033482125
EXTRACT: pitchwheel channel=4 pitch=0 time=0
EXTRACT: note_on channel=4 note=67 velocity=95 time=0
EXTRACT: pitchwheel channel=3 pitch=-128 time=0.020089275
EXTRACT: note_off channel=10 note=40 velocity=95 time=0.013392850000000001
EXTRACT: pitchwheel channel=4 pitch=-128 time=0.020089275
EXTRACT: pitchwheel channel=3 pitch=-256 time=0.020089275
EXTRACT: pitchwheel channel=4 pitch=-256 time=0.033482125
EXTRACT: pitchwheel channel=3 pitch=-384 time=0.020089275
EXTRACT: pitchwheel channel=4 pitch=-384 time=0.033482125
EXTRACT: pitchwheel channel=3 pitch=-512 time=0.020089275
EXTRACT: pitchwheel channel=4 pitch=-512 time=0.033482125
EXTRACT: pitchwheel channel=3 pitch=-640 time=0.020089275
EXTRACT: pitchwheel channel=3 pitch=-640 time=0
EXTRACT: pitchwheel channel=3 pitch=0 time=0
EXTRACT: note_off channel=3 note=67 velocity=95 time=0
EXTRACT: pitchwheel channel=3 pitch=256 time=0
EXTRACT: note_on channel=3 note=67 velocity=95 time=0
EXTRACT: note_off channel=9 note=36 velocity=95 time=0
EXTRACT: pitchwheel channel=4 pitch=-640 time=0.033482125
EXTRACT: pitchwheel channel=4 pitch=-640 time=0
EXTRACT: pitchwheel channel=4 pitch=0 time=0
EXTRACT: note_off channel=4 note=67 velocity=95 time=0
EXTRACT: pitchwheel channel=4 pitch=256 time=0
EXTRACT: note_on channel=4 note=67 velocity=95 time=0
EXTRACT: pitchwheel channel=3 pitch=128 time=0.100446375
EXTRACT: pitchwheel channel=4 pitch=128 time=0.033482125
EXTRACT: pitchwheel channel=3 pitch=0 time=0.100446375
EXTRACT: pitchwheel channel=3 pitch=0 time=0
EXTRACT: pitchwheel channel=3 pitch=0 time=0
EXTRACT: note_off channel=3 note=67 velocity=95 time=0
EXTRACT: pitchwheel channel=3 pitch=0 time=0
EXTRACT: note_on channel=3 note=68 velocity=95 time=0
EXTRACT: note_off channel=5 note=64 velocity=95 time=0
EXTRACT: note_off channel=5 note=59 velocity=95 time=0
EXTRACT: note_off channel=5 note=55 velocity=95 time=0
EXTRACT: note_off channel=5 note=50 velocity=95 time=0
EXTRACT: note_off channel=7 note=33 velocity=95 time=0
EXTRACT: note_on channel=7 note=33 velocity=95 time=0
EXTRACT: note_off channel=8 note=23 velocity=95 time=0
EXTRACT: note_on channel=8 note=23 velocity=95 time=0
EXTRACT: note_on channel=10 note=40 velocity=95 time=0
EXTRACT: note_on channel=9 note=36 velocity=95 time=0
EXTRACT: pitchwheel channel=4 pitch=0 time=0.033482125
EXTRACT: pitchwheel channel=4 pitch=0 time=0
EXTRACT: pitchwheel channel=4 pitch=0 time=0
EXTRACT: note_off channel=4 note=67 velocity=95 time=0
EXTRACT: pitchwheel channel=4 pitch=0 time=0
EXTRACT: note_on channel=4 note=68 velocity=95 time=0
EXTRACT: pitchwheel channel=3 pitch=-128 time=0.020089275
EXTRACT: note_off channel=10 note=40 velocity=95 time=0.013392850000000001
EXTRACT: pitchwheel channel=4 pitch=-128 time=0.020089275
EXTRACT: pitchwheel channel=3 pitch=-256 time=0.020089275
EXTRACT: pitchwheel channel=4 pitch=-256 time=0.033482125
EXTRACT: pitchwheel channel=3 pitch=-384 time=0.020089275
EXTRACT: pitchwheel channel=4 pitch=-384 time=0.033482125
EXTRACT: pitchwheel channel=3 pitch=-512 time=0.020089275
EXTRACT: pitchwheel channel=4 pitch=-512 time=0.033482125
EXTRACT: pitchwheel channel=3 pitch=-640 time=0.020089275
EXTRACT: pitchwheel channel=3 pitch=-640 time=0
EXTRACT: pitchwheel channel=3 pitch=0 time=0
EXTRACT: note_off channel=3 note=68 velocity=95 time=0
EXTRACT: pitchwheel channel=3 pitch=0 time=0
EXTRACT: note_on channel=3 note=68 velocity=95 time=0
EXTRACT: note_on channel=5 note=64 velocity=95 time=0
EXTRACT: note_on channel=5 note=59 velocity=95 time=0
EXTRACT: note_on channel=5 note=55 velocity=95 time=0
EXTRACT: note_on channel=5 note=50 velocity=95 time=0
EXTRACT: note_off channel=7 note=33 velocity=95 time=0
EXTRACT: note_off channel=9 note=36 velocity=95 time=0
EXTRACT: note_on channel=9 note=28 velocity=95 time=0
EXTRACT: note_on channel=9 note=39 velocity=95 time=0
EXTRACT: pitchwheel channel=3 pitch=-128 time=0.021205345833333333
EXTRACT: pitchwheel channel=4 pitch=-640 time=0.012276779166666666
EXTRACT: pitchwheel channel=4 pitch=-640 time=0
EXTRACT: pitchwheel channel=4 pitch=0 time=0
EXTRACT: note_off channel=4 note=68 velocity=95 time=0
EXTRACT: pitchwheel channel=4 pitch=0 time=0
EXTRACT: note_on channel=4 note=68 velocity=95 time=0
EXTRACT: pitchwheel channel=3 pitch=-256 time=0.008928566666666667
EXTRACT: pitchwheel channel=4 pitch=-128 time=0.012276779166666666
EXTRACT: pitchwheel channel=3 pitch=-384 time=0.008928566666666667
EXTRACT: pitchwheel channel=4 pitch=-256 time=0.012276779166666666
EXTRACT: pitchwheel channel=3 pitch=-512 time=0.008928566666666667
EXTRACT: pitchwheel channel=4 pitch=-384 time=0.012276779166666666
EXTRACT: pitchwheel channel=3 pitch=-640 time=0.008928566666666667
EXTRACT: pitchwheel channel=4 pitch=-512 time=0.012276779166666666
EXTRACT: pitchwheel channel=3 pitch=-768 time=0.008928566666666667
EXTRACT: pitchwheel channel=4 pitch=-640 time=0.012276779166666666
EXTRACT: pitchwheel channel=3 pitch=-896 time=0.008928566666666667
EXTRACT: pitchwheel channel=4 pitch=-768 time=0.012276779166666666
EXTRACT: pitchwheel channel=3 pitch=-1024 time=0.008928566666666667
EXTRACT: pitchwheel channel=4 pitch=-896 time=0.012276779166666666
EXTRACT: pitchwheel channel=3 pitch=-1152 time=0.008928566666666667
EXTRACT: pitchwheel channel=4 pitch=-1024 time=0.012276779166666666
EXTRACT: pitchwheel channel=3 pitch=-1280 time=0.008928566666666667
EXTRACT: pitchwheel channel=4 pitch=-1152 time=0.012276779166666666
EXTRACT: pitchwheel channel=3 pitch=-1408 time=0.008928566666666667
EXTRACT: pitchwheel channel=3 pitch=-1408 time=0.0011160708333333334
EXTRACT: pitchwheel channel=3 pitch=0 time=0
EXTRACT: note_off channel=3 note=68 velocity=95 time=0
EXTRACT: pitchwheel channel=4 pitch=-1280 time=0.011160708333333333
EXTRACT: pitchwheel channel=4 pitch=-1408 time=0.021205345833333333
EXTRACT: pitchwheel channel=3 pitch=0 time=0.0011160708333333334
EXTRACT: note_on channel=3 note=66 velocity=95 time=0
EXTRACT: pitchwheel channel=4 pitch=-1408 time=0
EXTRACT: pitchwheel channel=4 pitch=0 time=0
EXTRACT: note_off channel=4 note=68 velocity=95 time=0
EXTRACT: note_off channel=8 note=23 velocity=95 time=0
EXTRACT: pitchwheel channel=4 pitch=0 time=0.033482125
EXTRACT: note_on channel=4 note=66 velocity=95 time=0
EXTRACT: pitchwheel channel=3 pitch=128 time=0.033482125
EXTRACT: pitchwheel channel=4 pitch=128 time=0.033482125
EXTRACT: pitchwheel channel=3 pitch=256 time=0.033482125
EXTRACT: pitchwheel channel=3 pitch=256 time=0
EXTRACT: pitchwheel channel=3 pitch=0 time=0
EXTRACT: note_off channel=3 note=66 velocity=95 time=0
EXTRACT: pitchwheel channel=3 pitch=0 time=0
EXTRACT: note_on channel=3 note=66 velocity=95 time=0
EXTRACT: pitchwheel channel=4 pitch=256 time=0.033482125
EXTRACT: pitchwheel channel=4 pitch=256 time=0
EXTRACT: pitchwheel channel=4 pitch=0 time=0
EXTRACT: note_off channel=4 note=66 velocity=95 time=0
EXTRACT: pitchwheel channel=4 pitch=0 time=0
EXTRACT: note_on channel=4 note=66 velocity=95 time=0
EXTRACT: pitchwheel channel=3 pitch=128 time=0.033482125
EXTRACT: pitchwheel channel=4 pitch=128 time=0.033482125
EXTRACT: pitchwheel channel=3 pitch=256 time=0.033482125
EXTRACT: pitchwheel channel=3 pitch=256 time=0
EXTRACT: pitchwheel channel=3 pitch=0 time=0
EXTRACT: note_off channel=3 note=66 velocity=95 time=0
EXTRACT: pitchwheel channel=3 pitch=1024 time=0
EXTRACT: note_on channel=3 note=66 velocity=95 time=0
EXTRACT: note_on channel=7 note=33 velocity=95 time=0
EXTRACT: note_on channel=8 note=23 velocity=95 time=0
EXTRACT: note_on channel=10 note=40 velocity=95 time=0
EXTRACT: note_off channel=9 note=28 velocity=95 time=0
EXTRACT: note_off channel=9 note=39 velocity=95 time=0
EXTRACT: note_on channel=9 note=36 velocity=95 time=0
EXTRACT: pitchwheel channel=4 pitch=256 time=0.033482125
EXTRACT: pitchwheel channel=4 pitch=256 time=0
EXTRACT: pitchwheel channel=4 pitch=0 time=0
EXTRACT: note_off channel=4 note=66 velocity=95 time=0
EXTRACT: pitchwheel channel=4 pitch=1024 time=0
EXTRACT: note_on channel=4 note=66 velocity=95 time=0
EXTRACT: pitchwheel channel=3 pitch=896 time=0.005580354166666667
EXTRACT: note_off channel=10 note=40 velocity=95 time=0.027901770833333336
EXTRACT: pitchwheel channel=4 pitch=896 time=0.005580354166666667
EXTRACT: pitchwheel channel=3 pitch=768 time=0.005580354166666667
EXTRACT: pitchwheel channel=4 pitch=768 time=0.033482125
EXTRACT: pitchwheel channel=3 pitch=640 time=0.005580354166666667
EXTRACT: pitchwheel channel=4 pitch=640 time=0.033482125
EXTRACT: pitchwheel channel=3 pitch=512 time=0.005580354166666667
EXTRACT: pitchwheel channel=4 pitch=512 time=0.033482125
EXTRACT: pitchwheel channel=3 pitch=384 time=0.005580354166666667
EXTRACT: pitchwheel channel=4 pitch=384 time=0.033482125
EXTRACT: pitchwheel channel=3 pitch=256 time=0.005580354166666667
EXTRACT: pitchwheel channel=3 pitch=256 time=0
EXTRACT: pitchwheel channel=3 pitch=0 time=0
EXTRACT: note_off channel=3 note=66 velocity=95 time=0
EXTRACT: pitchwheel channel=3 pitch=1024 time=0.033482125
EXTRACT: note_on channel=3 note=66 velocity=95 time=0
EXTRACT: pitchwheel channel=4 pitch=256 time=0
EXTRACT: pitchwheel channel=4 pitch=256 time=0
EXTRACT: pitchwheel channel=4 pitch=0 time=0
EXTRACT: note_off channel=4 note=66 velocity=95 time=0
EXTRACT: note_off channel=5 note=64 velocity=95 time=0
EXTRACT: note_off channel=5 note=59 velocity=95 time=0
EXTRACT: note_off channel=5 note=55 velocity=95 time=0
EXTRACT: note_off channel=5 note=50 velocity=95 time=0
EXTRACT: pitchwheel channel=3 pitch=896 time=0.022321416666666666
EXTRACT: pitchwheel channel=4 pitch=1024 time=0.011160708333333333
EXTRACT: note_on channel=4 note=66 velocity=95 time=0
EXTRACT: pitchwheel channel=3 pitch=768 time=0.011160708333333333
EXTRACT: pitchwheel channel=4 pitch=896 time=0.011160708333333333
EXTRACT: pitchwheel channel=3 pitch=640 time=0.011160708333333333
EXTRACT: pitchwheel channel=4 pitch=768 time=0.011160708333333333
EXTRACT: pitchwheel channel=3 pitch=512 time=0.011160708333333333
EXTRACT: pitchwheel channel=4 pitch=640 time=0.011160708333333333
EXTRACT: pitchwheel channel=3 pitch=384 time=0.011160708333333333
EXTRACT: pitchwheel channel=4 pitch=512 time=0.011160708333333333
EXTRACT: pitchwheel channel=3 pitch=256 time=0.011160708333333333
EXTRACT: pitchwheel channel=3 pitch=256 time=0
EXTRACT: pitchwheel channel=3 pitch=0 time=0
EXTRACT: note_off channel=3 note=66 velocity=95 time=0
EXTRACT: pitchwheel channel=3 pitch=256 time=0
EXTRACT: note_on channel=3 note=67 velocity=95 time=0
EXTRACT: pitchwheel channel=4 pitch=384 time=0.011160708333333333
EXTRACT: pitchwheel channel=4 pitch=256 time=0.022321416666666666
EXTRACT: pitchwheel channel=4 pitch=256 time=0
EXTRACT: pitchwheel channel=4 pitch=0 time=0
EXTRACT: note_off channel=4 note=66 velocity=95 time=0
EXTRACT: pitchwheel channel=4 pitch=256 time=0
EXTRACT: note_on channel=4 note=67 velocity=95 time=0
EXTRACT: pitchwheel channel=3 pitch=128 time=0.100446375
EXTRACT: note_on channel=5 note=64 velocity=95 time=0
EXTRACT: note_on channel=5 note=59 velocity=95 time=0
EXTRACT: note_on channel=5 note=55 velocity=95 time=0
EXTRACT: note_on channel=5 note=50 velocity=95 time=0
EXTRACT: note_off channel=7 note=33 velocity=95 time=0
EXTRACT: note_off channel=8 note=23 velocity=95 time=0
EXTRACT: note_off channel=9 note=36 velocity=95 time=0
EXTRACT: note_on channel=9 note=28 velocity=95 time=0
EXTRACT: note_on channel=9 note=39 velocity=95 time=0
EXTRACT: pitchwheel channel=4 pitch=128 time=0.033482125
EXTRACT: pitchwheel channel=3 pitch=0 time=0.100446375
EXTRACT: pitchwheel channel=3 pitch=0 time=0
EXTRACT: pitchwheel channel=3 pitch=0 time=0
EXTRACT: note_off channel=3 note=67 velocity=95 time=0
EXTRACT: pitchwheel channel=3 pitch=0 time=0
EXTRACT: note_on channel=3 note=66 velocity=95 time=0
EXTRACT: note_on channel=7 note=33 velocity=95 time=0
EXTRACT: note_on channel=8 note=23 velocity=95 time=0
EXTRACT: note_on channel=10 note=40 velocity=95 time=0
EXTRACT: note_off channel=9 note=28 velocity=95 time=0
EXTRACT: note_off channel=9 note=39 velocity=95 time=0
EXTRACT: note_on channel=9 note=36 velocity=95 time=0
EXTRACT: pitchwheel channel=3 pitch=128 time=0.026785700000000003
EXTRACT: pitchwheel channel=4 pitch=0 time=0.006696425000000001
EXTRACT: pitchwheel channel=4 pitch=0 time=0
EXTRACT: pitchwheel channel=4 pitch=0 time=0
EXTRACT: note_off channel=4 note=67 velocity=95 time=0
EXTRACT: pitchwheel channel=4 pitch=0 time=0
EXTRACT: note_on channel=4 note=66 velocity=95 time=0
EXTRACT: pitchwheel channel=3 pitch=256 time=0.020089275
EXTRACT: pitchwheel channel=4 pitch=128 time=0.006696425000000001
EXTRACT: note_off channel=10 note=40 velocity=95 time=0.006696425000000001
EXTRACT: pitchwheel channel=3 pitch=384 time=0.013392850000000001
EXTRACT: pitchwheel channel=4 pitch=256 time=0.006696425000000001
EXTRACT: pitchwheel channel=3 pitch=512 time=0.020089275
EXTRACT: pitchwheel channel=4 pitch=384 time=0.006696425000000001
EXTRACT: pitchwheel channel=3 pitch=640 time=0.020089275
EXTRACT: pitchwheel channel=3 pitch=640 time=0
EXTRACT: pitchwheel channel=3 pitch=0 time=0
EXTRACT: note_off channel=3 note=66 velocity=95 time=0
EXTRACT: pitchwheel channel=3 pitch=0 time=0
EXTRACT: note_on channel=3 note=67 velocity=95 time=0
EXTRACT: note_off channel=7 note=33 velocity=95 time=0
EXTRACT: note_on channel=7 note=33 velocity=95 time=0
EXTRACT: note_off channel=8 note=23 velocity=95 time=0
EXTRACT: note_on channel=8 note=23 velocity=95 time=0
EXTRACT: note_on channel=10 note=40 velocity=95 time=0
EXTRACT: note_off channel=9 note=36 velocity=95 time=0
EXTRACT: note_on channel=9 note=36 velocity=95 time=0
EXTRACT: pitchwheel channel=4 pitch=512 time=0.006696425000000001
EXTRACT: pitchwheel channel=4 pitch=640 time=0.026785700000000003
EXTRACT: pitchwheel channel=4 pitch=640 time=0
EXTRACT: pitchwheel channel=4 pitch=0 time=0
EXTRACT: note_off channel=4 note=66 velocity=95 time=0
EXTRACT: pitchwheel channel=4 pitch=0 time=0
EXTRACT: note_on channel=4 note=67 velocity=95 time=0
EXTRACT: pitchwheel channel=3 pitch=-128 time=0.020089275
EXTRACT: note_off channel=10 note=40 velocity=95 time=0.013392850000000001
EXTRACT: pitchwheel channel=4 pitch=-128 time=0.020089275
EXTRACT: pitchwheel channel=3 pitch=-256 time=0.020089275
EXTRACT: pitchwheel channel=4 pitch=-256 time=0.033482125
EXTRACT: pitchwheel channel=3 pitch=-384 time=0.020089275
EXTRACT: pitchwheel channel=4 pitch=-384 time=0.033482125
EXTRACT: pitchwheel channel=3 pitch=-512 time=0.020089275
EXTRACT: pitchwheel channel=4 pitch=-512 time=0.033482125
EXTRACT: pitchwheel channel=3 pitch=-640 time=0.020089275
EXTRACT: pitchwheel channel=3 pitch=-640 time=0
EXTRACT: pitchwheel channel=3 pitch=0 time=0
EXTRACT: note_off channel=3 note=67 velocity=95 time=0
EXTRACT: pitchwheel channel=3 pitch=0 time=0
EXTRACT: note_on channel=3 note=67 velocity=95 time=0
EXTRACT: pitchwheel channel=6 pitch=0 time=0
EXTRACT: note_on channel=6 note=53 velocity=95 time=0
EXTRACT: pitchwheel channel=6 pitch=0 time=0
EXTRACT: note_on channel=6 note=53 velocity=95 time=0
EXTRACT: note_off channel=7 note=33 velocity=95 time=0
EXTRACT: note_off channel=9 note=36 velocity=95 time=0
EXTRACT: pitchwheel channel=6 pitch=-128 time=0.016183027083333332
EXTRACT: pitchwheel channel=6 pitch=-128 time=0
EXTRACT: pitchwheel channel=6 pitch=-256 time=0.016183027083333332
EXTRACT: pitchwheel channel=6 pitch=-256 time=0
EXTRACT: pitchwheel channel=4 pitch=-640 time=0.0011160708333333334
EXTRACT: pitchwheel channel=4 pitch=-640 time=0
EXTRACT: pitchwheel channel=4 pitch=0 time=0
EXTRACT: note_off channel=4 note=67 velocity=95 time=0
EXTRACT: pitchwheel channel=4 pitch=0 time=0
EXTRACT: note_on channel=4 note=67 velocity=95 time=0
EXTRACT: pitchwheel channel=6 pitch=-384 time=0.015066956250000001
EXTRACT: pitchwheel channel=6 pitch=-384 time=0
EXTRACT: pitchwheel channel=3 pitch=-128 time=0.00502231875
EXTRACT: pitchwheel channel=6 pitch=-512 time=0.011160708333333333
EXTRACT: pitchwheel channel=6 pitch=-512 time=0
EXTRACT: pitchwheel channel=6 pitch=-640 time=0.016183027083333332
EXTRACT: pitchwheel channel=6 pitch=-640 time=0
EXTRACT: pitchwheel channel=4 pitch=-128 time=0.006138389583333333
EXTRACT: pitchwheel channel=6 pitch=-768 time=0.0100446375
EXTRACT: pitchwheel channel=6 pitch=-768 time=0
EXTRACT: pitchwheel channel=3 pitch=-256 time=0.0100446375
EXTRACT: pitchwheel channel=6 pitch=-896 time=0.006138389583333333
EXTRACT: pitchwheel channel=6 pitch=-896 time=0
EXTRACT: pitchwheel channel=6 pitch=-1024 time=0.016183027083333332
EXTRACT: pitchwheel channel=6 pitch=-1024 time=0
EXTRACT: pitchwheel channel=4 pitch=-256 time=0.011160708333333333
EXTRACT: pitchwheel channel=6 pitch=-1152 time=0.00502231875
EXTRACT: pitchwheel channel=6 pitch=-1152 time=0
EXTRACT: pitchwheel channel=3 pitch=-384 time=0.015066956250000001
EXTRACT: pitchwheel channel=6 pitch=-1280 time=0.0011160708333333334
EXTRACT: pitchwheel channel=6 pitch=-1280 time=0
EXTRACT: pitchwheel channel=6 pitch=-1408 time=0.016183027083333332
EXTRACT: pitchwheel channel=6 pitch=-1408 time=0
EXTRACT: pitchwheel channel=4 pitch=-384 time=0.016183027083333332
EXTRACT: pitchwheel channel=6 pitch=-1536 time=0
EXTRACT: pitchwheel channel=6 pitch=-1536 time=0
EXTRACT: pitchwheel channel=6 pitch=-1664 time=0.016183027083333332
EXTRACT: pitchwheel channel=6 pitch=-1664 time=0
EXTRACT: pitchwheel channel=3 pitch=-512 time=0.003906247916666667
EXTRACT: pitchwheel channel=6 pitch=-1792 time=0.012276779166666666
EXTRACT: pitchwheel channel=6 pitch=-1792 time=0
EXTRACT: pitchwheel channel=6 pitch=-1920 time=0.016183027083333332
EXTRACT: pitchwheel channel=6 pitch=-1920 time=0
EXTRACT: pitchwheel channel=4 pitch=-512 time=0.00502231875
EXTRACT: pitchwheel channel=6 pitch=-2048 time=0.011160708333333333
EXTRACT: pitchwheel channel=6 pitch=-2048 time=0
EXTRACT: pitchwheel channel=3 pitch=-640 time=0.008928566666666667
EXTRACT: pitchwheel channel=3 pitch=-640 time=0
EXTRACT: pitchwheel channel=3 pitch=0 time=0
EXTRACT: note_off channel=3 note=67 velocity=95 time=0
EXTRACT: pitchwheel channel=3 pitch=0 time=0
EXTRACT: note_on channel=3 note=66 velocity=95 time=0
EXTRACT: note_off channel=5 note=64 velocity=95 time=0
EXTRACT: note_off channel=5 note=59 velocity=95 time=0
EXTRACT: note_off channel=5 note=55 velocity=95 time=0
EXTRACT: note_off channel=5 note=50 velocity=95 time=0
EXTRACT: note_on channel=7 note=33 velocity=95 time=0
EXTRACT: note_off channel=8 note=23 velocity=95 time=0
EXTRACT: note_on channel=8 note=23 velocity=95 time=0
EXTRACT: note_on channel=10 note=40 velocity=95 time=0
EXTRACT: note_on channel=9 note=36 velocity=95 time=0
EXTRACT: pitchwheel channel=6 pitch=-2176 time=0.007254460416666667
EXTRACT: pitchwheel channel=6 pitch=-2176 time=0
EXTRACT: pitchwheel channel=6 pitch=-2304 time=0.016183027083333332
EXTRACT: pitchwheel channel=6 pitch=-2304 time=0
EXTRACT: pitchwheel channel=4 pitch=-640 time=0.0100446375
EXTRACT: pitchwheel channel=4 pitch=-640 time=0
EXTRACT: pitchwheel channel=4 pitch=0 time=0
EXTRACT: note_off channel=4 note=67 velocity=95 time=0
EXTRACT: pitchwheel channel=4 pitch=0 time=0
EXTRACT: note_on channel=4 note=66 velocity=95 time=0
EXTRACT: pitchwheel channel=6 pitch=-2432 time=0.006138389583333333
EXTRACT: pitchwheel channel=6 pitch=-2432 time=0
EXTRACT: pitchwheel channel=6 pitch=-2560 time=0.016183027083333332
EXTRACT: pitchwheel channel=6 pitch=-2560 time=0
EXTRACT: note_off channel=10 note=40 velocity=95 time=0.011160708333333333
EXTRACT: pitchwheel channel=6 pitch=-2688 time=0.00502231875
EXTRACT: pitchwheel channel=6 pitch=-2688 time=0
EXTRACT: pitchwheel channel=6 pitch=-2816 time=0.016183027083333332
EXTRACT: pitchwheel channel=6 pitch=-2816 time=0
EXTRACT: pitchwheel channel=6 pitch=-2944 time=0.016183027083333332
EXTRACT: pitchwheel channel=6 pitch=-2944 time=0
EXTRACT: pitchwheel channel=6 pitch=-3072 time=0.016183027083333332
EXTRACT: pitchwheel channel=6 pitch=-3072 time=0
EXTRACT: pitchwheel channel=3 pitch=128 time=0.013392850000000001
EXTRACT: pitchwheel channel=6 pitch=-3200 time=0.0027901770833333333
EXTRACT: pitchwheel channel=6 pitch=-3200 time=0
EXTRACT: pitchwheel channel=6 pitch=-3328 time=0.016183027083333332
EXTRACT: pitchwheel channel=6 pitch=-3328 time=0
EXTRACT: pitchwheel channel=4 pitch=128 time=0.014508920833333334
EXTRACT: pitchwheel channel=6 pitch=-3456 time=0.0016741062500000002
EXTRACT: pitchwheel channel=6 pitch=-3456 time=0
EXTRACT: pitchwheel channel=6 pitch=-3584 time=0.016183027083333332
EXTRACT: pitchwheel channel=6 pitch=-3584 time=0
EXTRACT: pitchwheel channel=6 pitch=-3712 time=0.016183027083333332
EXTRACT: pitchwheel channel=6 pitch=-3712 time=0
EXTRACT: pitchwheel channel=6 pitch=-3840 time=0.016183027083333332
EXTRACT: pitchwheel channel=6 pitch=-3840 time=0
EXTRACT: pitchwheel channel=6 pitch=-3968 time=0.016183027083333332
EXTRACT: pitchwheel channel=6 pitch=-3968 time=0
EXTRACT: pitchwheel channel=6 pitch=-4096 time=0.016183027083333332
EXTRACT: pitchwheel channel=6 pitch=-4096 time=0
EXTRACT: pitchwheel channel=6 pitch=-4224 time=0.016183027083333332
EXTRACT: pitchwheel channel=6 pitch=-4224 time=0
EXTRACT: pitchwheel channel=3 pitch=256 time=0.0016741062500000002
EXTRACT: pitchwheel channel=3 pitch=256 time=0
EXTRACT: pitchwheel channel=3 pitch=0 time=0
EXTRACT: note_off channel=3 note=66 velocity=95 time=0
EXTRACT: pitchwheel channel=3 pitch=0 time=0
EXTRACT: note_on channel=3 note=67 velocity=95 time=0
EXTRACT: note_on channel=5 note=64 velocity=95 time=0
EXTRACT: note_on channel=5 note=59 velocity=95 time=0
EXTRACT: note_on channel=5 note=55 velocity=95 time=0
EXTRACT: note_on channel=5 note=50 velocity=95 time=0
EXTRACT: note_off channel=7 note=33 velocity=95 time=0
EXTRACT: note_off channel=9 note=36 velocity=95 time=0
EXTRACT: note_on channel=9 note=28 velocity=95 time=0
EXTRACT: note_on channel=9 note=39 velocity=95 time=0
EXTRACT: pitchwheel channel=6 pitch=-4352 time=0.014508920833333334
EXTRACT: pitchwheel channel=6 pitch=-4352 time=0
EXTRACT: pitchwheel channel=3 pitch=-128 time=0.0033482125000000003
EXTRACT: pitchwheel channel=6 pitch=-4480 time=0.012834814583333333
EXTRACT: pitchwheel channel=6 pitch=-4480 time=0
EXTRACT: pitchwheel channel=4 pitch=256 time=0.0027901770833333333
EXTRACT: pitchwheel channel=4 pitch=256 time=0
EXTRACT: pitchwheel channel=4 pitch=0 time=0
EXTRACT: note_off channel=4 note=66 velocity=95 time=0
EXTRACT: pitchwheel channel=4 pitch=0 time=0
EXTRACT: note_on channel=4 note=67 velocity=95 time=0
EXTRACT: pitchwheel channel=3 pitch=-256 time=0.0022321416666666667
EXTRACT: pitchwheel channel=6 pitch=-4608 time=0.011160708333333333
EXTRACT: pitchwheel channel=6 pitch=-4608 time=0
EXTRACT: pitchwheel channel=4 pitch=-128 time=0.0044642833333333335
EXTRACT: pitchwheel channel=3 pitch=-384 time=0.0022321416666666667
EXTRACT: pitchwheel channel=6 pitch=-4736 time=0.009486602083333334
EXTRACT: pitchwheel channel=6 pitch=-4736 time=0
EXTRACT: pitchwheel channel=4 pitch=-256 time=0.006138389583333333
EXTRACT: pitchwheel channel=3 pitch=-512 time=0.0022321416666666667
EXTRACT: pitchwheel channel=6 pitch=-4864 time=0.007812495833333334
EXTRACT: pitchwheel channel=6 pitch=-4864 time=0
EXTRACT: pitchwheel channel=4 pitch=-384 time=0.007812495833333334
EXTRACT: pitchwheel channel=3 pitch=-640 time=0.0022321416666666667
EXTRACT: pitchwheel channel=6 pitch=-4992 time=0.006138389583333333
EXTRACT: pitchwheel channel=6 pitch=-4992 time=0
EXTRACT: pitchwheel channel=4 pitch=-512 time=0.009486602083333334
EXTRACT: pitchwheel channel=3 pitch=-768 time=0.0022321416666666667
EXTRACT: pitchwheel channel=6 pitch=-5120 time=0.0044642833333333335
EXTRACT: pitchwheel channel=6 pitch=-5120 time=0
EXTRACT: pitchwheel channel=4 pitch=-640 time=0.011160708333333333
EXTRACT: pitchwheel channel=3 pitch=-896 time=0.0022321416666666667
EXTRACT: pitchwheel channel=6 pitch=-5248 time=0.0027901770833333333
EXTRACT: pitchwheel channel=6 pitch=-5248 time=0
EXTRACT: pitchwheel channel=4 pitch=-768 time=0.012834814583333333
EXTRACT: pitchwheel channel=3 pitch=-1024 time=0.0022321416666666667
EXTRACT: pitchwheel channel=6 pitch=-5376 time=0.0011160708333333334
EXTRACT: pitchwheel channel=6 pitch=-5376 time=0
EXTRACT: pitchwheel channel=4 pitch=-896 time=0.014508920833333334
EXTRACT: pitchwheel channel=6 pitch=-5504 time=0.0016741062500000002
EXTRACT: pitchwheel channel=6 pitch=-5504 time=0
EXTRACT: pitchwheel channel=3 pitch=-1152 time=0.0005580354166666667
EXTRACT: pitchwheel channel=4 pitch=-1024 time=0.015624991666666668
EXTRACT: pitchwheel channel=6 pitch=-5632 time=0
EXTRACT: pitchwheel channel=6 pitch=-5632 time=0
EXTRACT: pitchwheel channel=3 pitch=-1280 time=0.0022321416666666667
EXTRACT: pitchwheel channel=6 pitch=-5760 time=0.013950885416666668
EXTRACT: pitchwheel channel=6 pitch=-5760 time=0
EXTRACT: pitchwheel channel=4 pitch=-1152 time=0.0016741062500000002
EXTRACT: pitchwheel channel=3 pitch=-1408 time=0.0022321416666666667
EXTRACT: pitchwheel channel=3 pitch=-1408 time=0.0044642833333333335
EXTRACT: pitchwheel channel=3 pitch=0 time=0
EXTRACT: note_off channel=3 note=67 velocity=95 time=0
EXTRACT: pitchwheel channel=6 pitch=-5888 time=0.007812495833333334
EXTRACT: pitchwheel channel=6 pitch=-5888 time=0
EXTRACT: pitchwheel channel=4 pitch=-1280 time=0.0033482125000000003
EXTRACT: pitchwheel channel=6 pitch=-6016 time=0.012834814583333333
EXTRACT: pitchwheel channel=6 pitch=-6016 time=0
EXTRACT: pitchwheel channel=4 pitch=-1408 time=0.00502231875
EXTRACT: pitchwheel channel=4 pitch=-1408 time=0.0044642833333333335
EXTRACT: pitchwheel channel=4 pitch=0 time=0
EXTRACT: note_off channel=4 note=67 velocity=95 time=0
EXTRACT: pitchwheel channel=6 pitch=-6144 time=0.006696425000000001
EXTRACT: pitchwheel channel=6 pitch=-6144 time=0
EXTRACT: pitchwheel channel=6 pitch=-6272 time=0.016183027083333332
EXTRACT: pitchwheel channel=6 pitch=-6272 time=0
EXTRACT: pitchwheel channel=3 pitch=0 time=0.010602672916666667
EXTRACT: note_on channel=3 note=66 velocity=95 time=0
EXTRACT: note_off channel=8 note=23 velocity=95 time=0
EXTRACT: pitchwheel channel=6 pitch=-6400 time=0.005580354166666667
EXTRACT: pitchwheel channel=6 pitch=-6400 time=0
EXTRACT: pitchwheel channel=6 pitch=-6528 time=0.016183027083333332
EXTRACT: pitchwheel channel=6 pitch=-6528 time=0
EXTRACT: pitchwheel channel=4 pitch=0 time=0.01171874375
EXTRACT: note_on channel=4 note=66 velocity=95 time=0
EXTRACT: pitchwheel channel=6 pitch=-6656 time=0.0044642833333333335
EXTRACT: pitchwheel channel=6 pitch=-6656 time=0
EXTRACT: pitchwheel channel=6 pitch=-6784 time=0.016183027083333332
EXTRACT: pitchwheel channel=6 pitch=-6784 time=0
EXTRACT: pitchwheel channel=3 pitch=128 time=0.012834814583333333
EXTRACT: pitchwheel channel=6 pitch=-6912 time=0.0033482125000000003
EXTRACT: pitchwheel channel=6 pitch=-6912 time=0
EXTRACT: pitchwheel channel=6 pitch=-7040 time=0.016183027083333332
EXTRACT: pitchwheel channel=6 pitch=-7040 time=0
EXTRACT: pitchwheel channel=4 pitch=128 time=0.013950885416666668
EXTRACT: pitchwheel channel=6 pitch=-7168 time=0.0022321416666666667
EXTRACT: pitchwheel channel=6 pitch=-7168 time=0
EXTRACT: pitchwheel channel=6 pitch=-7296 time=0.016183027083333332
EXTRACT: pitchwheel channel=6 pitch=-7296 time=0
EXTRACT: pitchwheel channel=3 pitch=256 time=0.015066956250000001
EXTRACT: pitchwheel channel=3 pitch=256 time=0
EXTRACT: pitchwheel channel=3 pitch=0 time=0
EXTRACT: note_off channel=3 note=66 velocity=95 time=0
EXTRACT: pitchwheel channel=3 pitch=256 time=0
EXTRACT: note_on channel=3 note=66 velocity=95 time=0
EXTRACT: pitchwheel channel=6 pitch=-7424 time=0.0011160708333333334
EXTRACT: pitchwheel channel=6 pitch=-7424 time=0
EXTRACT: pitchwheel channel=6 pitch=-7552 time=0.016183027083333332
EXTRACT: pitchwheel channel=6 pitch=-7552 time=0
EXTRACT: pitchwheel channel=4 pitch=256 time=0.016183027083333332
EXTRACT: pitchwheel channel=4 pitch=256 time=0
EXTRACT: pitchwheel channel=4 pitch=0 time=0
EXTRACT: note_off channel=4 note=66 velocity=95 time=0
EXTRACT: pitchwheel channel=4 pitch=256 time=0
EXTRACT: note_on channel=4 note=66 velocity=95 time=0
EXTRACT: pitchwheel channel=6 pitch=-7680 time=0
EXTRACT: pitchwheel channel=6 pitch=-7680 time=0
EXTRACT: pitchwheel channel=6 pitch=-7808 time=0.016183027083333332
EXTRACT: pitchwheel channel=6 pitch=-7808 time=0
EXTRACT: pitchwheel channel=6 pitch=-7936 time=0.016183027083333332
EXTRACT: pitchwheel channel=6 pitch=-7936 time=0
EXTRACT: pitchwheel channel=6 pitch=-8064 time=0.016183027083333332
EXTRACT: pitchwheel channel=6 pitch=-8064 time=0
EXTRACT: pitchwheel channel=6 pitch=-8192 time=0.016183027083333332
EXTRACT: pitchwheel channel=6 pitch=-8192 time=0
EXTRACT: pitchwheel channel=6 pitch=-8192 time=0.016183027083333332
EXTRACT: pitchwheel channel=6 pitch=-8192 time=0
EXTRACT: pitchwheel channel=6 pitch=-8192 time=0.016183027083333332
EXTRACT: pitchwheel channel=6 pitch=-8192 time=0
EXTRACT: pitchwheel channel=3 pitch=256 time=0.0033482125000000003
EXTRACT: pitchwheel channel=3 pitch=0 time=0
EXTRACT: note_off channel=3 note=66 velocity=95 time=0
EXTRACT: pitchwheel channel=3 pitch=256 time=0
EXTRACT: note_on channel=3 note=67 velocity=95 time=0
EXTRACT: pitchwheel channel=6 pitch=-8192 time=0
EXTRACT: pitchwheel channel=6 pitch=0 time=0
EXTRACT: note_off channel=6 note=53 velocity=95 time=0
EXTRACT: pitchwheel channel=6 pitch=-8192 time=0
EXTRACT: pitchwheel channel=6 pitch=0 time=0
EXTRACT: note_off channel=6 note=53 velocity=95 time=0
EXTRACT: note_on channel=7 note=33 velocity=95 time=0
EXTRACT: note_on channel=8 note=23 velocity=95 time=0
EXTRACT: note_on channel=10 note=40 velocity=95 time=0
EXTRACT: note_off channel=9 note=28 velocity=95 time=0
EXTRACT: note_off channel=9 note=39 velocity=95 time=0
EXTRACT: note_on channel=9 note=36 velocity=95 time=0
EXTRACT: pitchwheel channel=4 pitch=256 time=0.033482125
EXTRACT: pitchwheel channel=4 pitch=0 time=0
EXTRACT: note_off channel=4 note=66 velocity=95 time=0
EXTRACT: pitchwheel channel=4 pitch=256 time=0
EXTRACT: note_on channel=4 note=67 velocity=95 time=0
EXTRACT: note_off channel=10 note=40 velocity=95 time=0.033482125
EXTRACT: pitchwheel channel=3 pitch=256 time=0.022321416666666666
EXTRACT: pitchwheel channel=4 pitch=256 time=0.033482125
EXTRACT: pitchwheel channel=3 pitch=128 time=0.011160708333333333
EXTRACT: pitchwheel channel=4 pitch=128 time=0.033482125
EXTRACT: pitchwheel channel=3 pitch=0 time=0.011160708333333333
EXTRACT: pitchwheel channel=3 pitch=0 time=0
EXTRACT: pitchwheel channel=4 pitch=0 time=0.033482125
EXTRACT: pitchwheel channel=4 pitch=0 time=0
EXTRACT: pitchwheel channel=3 pitch=0 time=0.05580354166666667
EXTRACT: pitchwheel channel=3 pitch=0 time=0
EXTRACT: note_off channel=3 note=67 velocity=95 time=0
EXTRACT: pitchwheel channel=3 pitch=256 time=0
EXTRACT: note_on channel=3 note=66 velocity=95 time=0
EXTRACT: note_off channel=5 note=64 velocity=95 time=0
EXTRACT: note_off channel=5 note=59 velocity=95 time=0
EXTRACT: note_off channel=5 note=55 velocity=95 time=0
EXTRACT: note_off channel=5 note=50 velocity=95 time=0
EXTRACT: note_off channel=8 note=23 velocity=95 time=0
EXTRACT: note_on channel=8 note=23 velocity=95 time=0
EXTRACT: note_on channel=10 note=40 velocity=95 time=0
EXTRACT: note_off channel=9 note=36 velocity=95 time=0
EXTRACT: note_on channel=9 note=36 velocity=95 time=0
EXTRACT: pitchwheel channel=4 pitch=0 time=0.033482125
EXTRACT: pitchwheel channel=4 pitch=0 time=0
EXTRACT: note_off channel=4 note=67 velocity=95 time=0
EXTRACT: pitchwheel channel=4 pitch=256 time=0
EXTRACT: note_on channel=4 note=66 velocity=95 time=0
EXTRACT: note_off channel=10 note=40 velocity=95 time=0.033482125
EXTRACT: pitchwheel channel=3 pitch=256 time=0.20089275
EXTRACT: pitchwheel channel=3 pitch=0 time=0
EXTRACT: note_off channel=3 note=66 velocity=95 time=0
EXTRACT: note_on channel=3 note=67 velocity=95 time=0
EXTRACT: note_on channel=5 note=64 velocity=95 time=0
EXTRACT: note_on channel=5 note=59 velocity=95 time=0
EXTRACT: note_on channel=5 note=55 velocity=95 time=0
EXTRACT: note_on channel=5 note=50 velocity=95 time=0
EXTRACT: note_off channel=7 note=33 velocity=95 time=0
EXTRACT: note_off channel=8 note=23 velocity=95 time=0
EXTRACT: note_off channel=9 note=36 velocity=95 time=0
EXTRACT: note_on channel=9 note=28 velocity=95 time=0
EXTRACT: note_on channel=9 note=39 velocity=95 time=0
EXTRACT: pitchwheel channel=4 pitch=256 time=0.033482125
EXTRACT: pitchwheel channel=4 pitch=0 time=0
EXTRACT: note_off channel=4 note=66 velocity=95 time=0
EXTRACT: note_on channel=4 note=67 velocity=95 time=0
EXTRACT: note_off channel=3 note=67 velocity=95 time=0.234374875
EXTRACT: pitchwheel channel=3 pitch=0 time=0
EXTRACT: note_on channel=3 note=67 velocity=95 time=0
EXTRACT: note_on channel=7 note=33 velocity=95 time=0
EXTRACT: note_on channel=8 note=23 velocity=95 time=0
EXTRACT: note_on channel=10 note=40 velocity=95 time=0
EXTRACT: note_off channel=9 note=28 velocity=95 time=0
EXTRACT: note_off channel=9 note=39 velocity=95 time=0
EXTRACT: note_on channel=9 note=36 velocity=95 time=0
EXTRACT: note_off channel=4 note=67 velocity=95 time=0.033482125
EXTRACT: pitchwheel channel=4 pitch=0 time=0
EXTRACT: note_on channel=4 note=67 velocity=95 time=0
EXTRACT: pitchwheel channel=3 pitch=128 time=0.033482125
EXTRACT: note_off channel=10 note=40 velocity=95 time=0
EXTRACT: pitchwheel channel=4 pitch=128 time=0.033482125
EXTRACT: pitchwheel channel=3 pitch=256 time=0.033482125
EXTRACT: pitchwheel channel=3 pitch=256 time=0
EXTRACT: pitchwheel channel=3 pitch=0 time=0
EXTRACT: note_off channel=3 note=67 velocity=95 time=0
EXTRACT: pitchwheel channel=3 pitch=0 time=0
EXTRACT: note_on channel=3 note=67 velocity=95 time=0
EXTRACT: pitchwheel channel=4 pitch=256 time=0.033482125
EXTRACT: pitchwheel channel=4 pitch=256 time=0
EXTRACT: pitchwheel channel=4 pitch=0 time=0
EXTRACT: note_off channel=4 note=67 velocity=95 time=0
EXTRACT: pitchwheel channel=4 pitch=0 time=0
EXTRACT: note_on channel=4 note=67 velocity=95 time=0
EXTRACT: pitchwheel channel=3 pitch=128 time=0.06696425
EXTRACT: pitchwheel channel=4 pitch=128 time=0.033482125
EXTRACT: note_off channel=9 note=36 velocity=95 time=0
EXTRACT: pitchwheel channel=3 pitch=256 time=0.06696425
EXTRACT: pitchwheel channel=3 pitch=256 time=0
EXTRACT: pitchwheel channel=3 pitch=0 time=0
EXTRACT: note_off channel=3 note=67 velocity=95 time=0
EXTRACT: pitchwheel channel=4 pitch=256 time=0.033482125
EXTRACT: pitchwheel channel=4 pitch=256 time=0
EXTRACT: pitchwheel channel=4 pitch=0 time=0
EXTRACT: note_off channel=4 note=67 velocity=95 time=0
EXTRACT: pitchwheel channel=3 pitch=0 time=0.167410625
EXTRACT: note_on channel=3 note=65 velocity=95 time=0
EXTRACT: note_off channel=5 note=64 velocity=95 time=0
EXTRACT: note_off channel=5 note=59 velocity=95 time=0
EXTRACT: note_off channel=5 note=55 velocity=95 time=0
EXTRACT: note_off channel=5 note=50 velocity=95 time=0
EXTRACT: note_off channel=7 note=33 velocity=95 time=0
EXTRACT: note_on channel=7 note=33 velocity=95 time=0
EXTRACT: note_off channel=8 note=23 velocity=95 time=0
EXTRACT: note_on channel=8 note=23 velocity=95 time=0
EXTRACT: note_on channel=10 note=40 velocity=95 time=0
EXTRACT: note_on channel=9 note=36 velocity=95 time=0
EXTRACT: pitchwheel channel=4 pitch=0 time=0.033482125
EXTRACT: note_on channel=4 note=65 velocity=95 time=0
EXTRACT: note_off channel=10 note=40 velocity=95 time=0.033482125
EXTRACT: pitchwheel channel=3 pitch=0 time=0.20089275
EXTRACT: note_on channel=5 note=64 velocity=95 time=0
EXTRACT: note_on channel=5 note=59 velocity=95 time=0
EXTRACT: note_on channel=5 note=55 velocity=95 time=0
EXTRACT: note_on channel=5 note=50 velocity=95 time=0
EXTRACT: note_off channel=7 note=33 velocity=95 time=0
EXTRACT: note_off channel=9 note=36 velocity=95 time=0
EXTRACT: note_on channel=9 note=28 velocity=95 time=0
EXTRACT: note_on channel=9 note=39 velocity=95 time=0
EXTRACT: pitchwheel channel=4 pitch=0 time=0.033482125
EXTRACT: pitchwheel channel=3 pitch=128 time=0.100446375
EXTRACT: pitchwheel channel=4 pitch=128 time=0.033482125
EXTRACT: pitchwheel channel=3 pitch=256 time=0.100446375
EXTRACT: pitchwheel channel=3 pitch=256 time=0
EXTRACT: pitchwheel channel=3 pitch=0 time=0
EXTRACT: note_off channel=3 note=65 velocity=95 time=0
EXTRACT: note_off channel=8 note=23 velocity=95 time=0
EXTRACT: pitchwheel channel=4 pitch=256 time=0.033482125
EXTRACT: pitchwheel channel=4 pitch=256 time=0
EXTRACT: pitchwheel channel=4 pitch=0 time=0
EXTRACT: note_off channel=4 note=65 velocity=95 time=0
EXTRACT: pitchwheel channel=3 pitch=0 time=0.100446375
EXTRACT: note_on channel=3 note=66 velocity=95 time=0
EXTRACT: pitchwheel channel=4 pitch=0 time=0.033482125
EXTRACT: note_on channel=4 note=66 velocity=95 time=0
EXTRACT: pitchwheel channel=3 pitch=128 time=0.033482125
EXTRACT: pitchwheel channel=4 pitch=128 time=0.033482125
EXTRACT: pitchwheel channel=3 pitch=256 time=0.033482125
EXTRACT: pitchwheel channel=3 pitch=256 time=0
EXTRACT: pitchwheel channel=3 pitch=0 time=0
EXTRACT: note_off channel=3 note=66 velocity=95 time=0
EXTRACT: pitchwheel channel=3 pitch=256 time=0
EXTRACT: note_on channel=3 note=67 velocity=95 time=0
EXTRACT: note_on channel=7 note=33 velocity=95 time=0
EXTRACT: note_on channel=8 note=23 velocity=95 time=0
EXTRACT: note_on channel=10 note=40 velocity=95 time=0
EXTRACT: note_off channel=9 note=28 velocity=95 time=0
EXTRACT: note_off channel=9 note=39 velocity=95 time=0
EXTRACT: note_on channel=9 note=36 velocity=95 time=0
EXTRACT: pitchwheel channel=4 pitch=256 time=0.033482125
EXTRACT: pitchwheel channel=4 pitch=256 time=0
EXTRACT: pitchwheel channel=4 pitch=0 time=0
EXTRACT: note_off channel=4 note=66 velocity=95 time=0
EXTRACT: pitchwheel channel=4 pitch=256 time=0
EXTRACT: note_on channel=4 note=67 velocity=95 time=0
EXTRACT: note_off channel=10 note=40 velocity=95 time=0.033482125
EXTRACT: pitchwheel channel=3 pitch=256 time=0.022321416666666666
EXTRACT: pitchwheel channel=4 pitch=256 time=0.033482125
EXTRACT: pitchwheel channel=3 pitch=128 time=0.011160708333333333
EXTRACT: pitchwheel channel=4 pitch=128 time=0.033482125
EXTRACT: pitchwheel channel=3 pitch=0 time=0.011160708333333333
EXTRACT: pitchwheel channel=3 pitch=0 time=0
EXTRACT: pitchwheel channel=4 pitch=0 time=0.033482125
EXTRACT: pitchwheel channel=4 pitch=0 time=0
EXTRACT: pitchwheel channel=3 pitch=0 time=0.05580354166666667
EXTRACT: pitchwheel channel=3 pitch=0 time=0
EXTRACT: note_off channel=3 note=67 velocity=95 time=0
EXTRACT: pitchwheel channel=3 pitch=256 time=0
EXTRACT: note_on channel=3 note=66 velocity=95 time=0
EXTRACT: note_off channel=5 note=64 velocity=95 time=0
EXTRACT: note_off channel=5 note=59 velocity=95 time=0
EXTRACT: note_off channel=5 note=55 velocity=95 time=0
EXTRACT: note_off channel=5 note=50 velocity=95 time=0
EXTRACT: pitchwheel channel=4 pitch=0 time=0.033482125
EXTRACT: pitchwheel channel=4 pitch=0 time=0
EXTRACT: note_off channel=4 note=67 velocity=95 time=0
EXTRACT: pitchwheel channel=4 pitch=256 time=0
EXTRACT: note_on channel=4 note=66 velocity=95 time=0
EXTRACT: pitchwheel channel=3 pitch=256 time=0.234374875
EXTRACT: pitchwheel channel=3 pitch=0 time=0
EXTRACT: note_off channel=3 note=66 velocity=95 time=0
EXTRACT: note_on channel=3 note=67 velocity=95 time=0
EXTRACT: note_on channel=5 note=64 velocity=95 time=0
EXTRACT: note_on channel=5 note=59 velocity=95 time=0
EXTRACT: note_on channel=5 note=55 velocity=95 time=0
EXTRACT: note_on channel=5 note=50 velocity=95 time=0
EXTRACT: note_off channel=7 note=33 velocity=95 time=0
EXTRACT: note_off channel=8 note=23 velocity=95 time=0
EXTRACT: note_off channel=9 note=36 velocity=95 time=0
EXTRACT: note_on channel=9 note=28 velocity=95 time=0
EXTRACT: note_on channel=9 note=39 velocity=95 time=0
EXTRACT: pitchwheel channel=4 pitch=256 time=0.033482125
EXTRACT: pitchwheel channel=4 pitch=0 time=0
EXTRACT: note_off channel=4 note=66 velocity=95 time=0
EXTRACT: note_on channel=4 note=67 velocity=95 time=0
EXTRACT: note_off channel=3 note=67 velocity=95 time=0.234374875
EXTRACT: pitchwheel channel=3 pitch=0 time=0
EXTRACT: note_on channel=3 note=67 velocity=95 time=0
EXTRACT: note_on channel=7 note=33 velocity=95 time=0
EXTRACT: note_on channel=8 note=23 velocity=95 time=0
EXTRACT: note_on channel=10 note=40 velocity=95 time=0
EXTRACT: note_off channel=9 note=28 velocity=95 time=0
EXTRACT: note_off channel=9 note=39 velocity=95 time=0
EXTRACT: note_on channel=9 note=36 velocity=95 time=0
EXTRACT: note_off channel=4 note=67 velocity=95 time=0.033482125
EXTRACT: pitchwheel channel=4 pitch=0 time=0
EXTRACT: note_on channel=4 note=67 velocity=95 time=0
EXTRACT: pitchwheel channel=3 pitch=128 time=0.033482125
EXTRACT: note_off channel=10 note=40 velocity=95 time=0
EXTRACT: pitchwheel channel=4 pitch=128 time=0.033482125
EXTRACT: pitchwheel channel=3 pitch=256 time=0.033482125
EXTRACT: pitchwheel channel=3 pitch=256 time=0
EXTRACT: pitchwheel channel=3 pitch=0 time=0
EXTRACT: note_off channel=3 note=67 velocity=95 time=0
EXTRACT: pitchwheel channel=3 pitch=0 time=0
EXTRACT: note_on channel=3 note=67 velocity=95 time=0
EXTRACT: pitchwheel channel=4 pitch=256 time=0.033482125
EXTRACT: pitchwheel channel=4 pitch=256 time=0
EXTRACT: pitchwheel channel=4 pitch=0 time=0
EXTRACT: note_off channel=4 note=67 velocity=95 time=0
EXTRACT: pitchwheel channel=4 pitch=0 time=0
EXTRACT: note_on channel=4 note=67 velocity=95 time=0
EXTRACT: pitchwheel channel=3 pitch=128 time=0.06696425
EXTRACT: pitchwheel channel=4 pitch=128 time=0.033482125
EXTRACT: pitchwheel channel=6 pitch=0 time=0
EXTRACT: note_on channel=6 note=53 velocity=95 time=0
EXTRACT: pitchwheel channel=6 pitch=0 time=0
EXTRACT: note_on channel=6 note=53 velocity=95 time=0
EXTRACT: note_off channel=9 note=36 velocity=95 time=0
EXTRACT: pitchwheel channel=6 pitch=-128 time=0.016183027083333332
EXTRACT: pitchwheel channel=6 pitch=-128 time=0
EXTRACT: pitchwheel channel=6 pitch=-256 time=0.016183027083333332
EXTRACT: pitchwheel channel=6 pitch=-256 time=0
EXTRACT: pitchwheel channel=6 pitch=-384 time=0.016183027083333332
EXTRACT: pitchwheel channel=6 pitch=-384 time=0
EXTRACT: pitchwheel channel=6 pitch=-512 time=0.016183027083333332
EXTRACT: pitchwheel channel=6 pitch=-512 time=0
EXTRACT: pitchwheel channel=3 pitch=256 time=0.0022321416666666667
EXTRACT: pitchwheel channel=3 pitch=256 time=0
EXTRACT: pitchwheel channel=3 pitch=0 time=0
EXTRACT: note_off channel=3 note=67 velocity=95 time=0
EXTRACT: pitchwheel channel=6 pitch=-640 time=0.013950885416666668
EXTRACT: pitchwheel channel=6 pitch=-640 time=0
EXTRACT: pitchwheel channel=6 pitch=-768 time=0.016183027083333332
EXTRACT: pitchwheel channel=6 pitch=-768 time=0
EXTRACT: pitchwheel channel=4 pitch=256 time=0.0033482125000000003
EXTRACT: pitchwheel channel=4 pitch=256 time=0
EXTRACT: pitchwheel channel=4 pitch=0 time=0
EXTRACT: note_off channel=4 note=67 velocity=95 time=0
EXTRACT: pitchwheel channel=6 pitch=-896 time=0.012834814583333333
EXTRACT: pitchwheel channel=6 pitch=-896 time=0
EXTRACT: pitchwheel channel=6 pitch=-1024 time=0.016183027083333332
EXTRACT: pitchwheel channel=6 pitch=-1024 time=0
EXTRACT: pitchwheel channel=6 pitch=-1152 time=0.016183027083333332
EXTRACT: pitchwheel channel=6 pitch=-1152 time=0
EXTRACT: pitchwheel channel=6 pitch=-1280 time=0.016183027083333332
EXTRACT: pitchwheel channel=6 pitch=-1280 time=0
EXTRACT: pitchwheel channel=6 pitch=-1408 time=0.016183027083333332
EXTRACT: pitchwheel channel=6 pitch=-1408 time=0
EXTRACT: pitchwheel channel=6 pitch=-1536 time=0.016183027083333332
EXTRACT: pitchwheel channel=6 pitch=-1536 time=0
EXTRACT: pitchwheel channel=6 pitch=-1664 time=0.016183027083333332
EXTRACT: pitchwheel channel=6 pitch=-1664 time=0
EXTRACT: pitchwheel channel=6 pitch=-1792 time=0.016183027083333332
EXTRACT: pitchwheel channel=6 pitch=-1792 time=0
EXTRACT: pitchwheel channel=6 pitch=-1920 time=0.016183027083333332
EXTRACT: pitchwheel channel=6 pitch=-1920 time=0
EXTRACT: pitchwheel channel=6 pitch=-2048 time=0.016183027083333332
EXTRACT: pitchwheel channel=6 pitch=-2048 time=0
EXTRACT: pitchwheel channel=3 pitch=0 time=0.008928566666666667
EXTRACT: note_on channel=3 note=65 velocity=95 time=0
EXTRACT: note_off channel=5 note=64 velocity=95 time=0
EXTRACT: note_off channel=5 note=59 velocity=95 time=0
EXTRACT: note_off channel=5 note=55 velocity=95 time=0
EXTRACT: note_off channel=5 note=50 velocity=95 time=0
EXTRACT: note_off channel=7 note=33 velocity=95 time=0
EXTRACT: note_on channel=7 note=33 velocity=95 time=0
EXTRACT: note_off channel=8 note=23 velocity=95 time=0
EXTRACT: note_on channel=8 note=23 velocity=95 time=0
EXTRACT: note_on channel=10 note=40 velocity=95 time=0
EXTRACT: note_on channel=9 note=36 velocity=95 time=0
EXTRACT: pitchwheel channel=6 pitch=-2176 time=0.007254460416666667
EXTRACT: pitchwheel channel=6 pitch=-2176 time=0
EXTRACT: pitchwheel channel=6 pitch=-2304 time=0.016183027083333332
EXTRACT: pitchwheel channel=6 pitch=-2304 time=0
EXTRACT: pitchwheel channel=4 pitch=0 time=0.0100446375
EXTRACT: note_on channel=4 note=65 velocity=95 time=0
EXTRACT: pitchwheel channel=6 pitch=-2432 time=0.006138389583333333
EXTRACT: pitchwheel channel=6 pitch=-2432 time=0
EXTRACT: pitchwheel channel=6 pitch=-2560 time=0.016183027083333332
EXTRACT: pitchwheel channel=6 pitch=-2560 time=0
EXTRACT: note_off channel=10 note=40 velocity=95 time=0.011160708333333333
EXTRACT: pitchwheel channel=6 pitch=-2688 time=0.00502231875
EXTRACT: pitchwheel channel=6 pitch=-2688 time=0
EXTRACT: pitchwheel channel=6 pitch=-2816 time=0.016183027083333332
EXTRACT: pitchwheel channel=6 pitch=-2816 time=0
EXTRACT: pitchwheel channel=6 pitch=-2944 time=0.016183027083333332
EXTRACT: pitchwheel channel=6 pitch=-2944 time=0
EXTRACT: pitchwheel channel=6 pitch=-3072 time=0.016183027083333332
EXTRACT: pitchwheel channel=6 pitch=-3072 time=0
EXTRACT: pitchwheel channel=6 pitch=-3200 time=0.016183027083333332
EXTRACT: pitchwheel channel=6 pitch=-3200 time=0
EXTRACT: pitchwheel channel=6 pitch=-3328 time=0.016183027083333332
EXTRACT: pitchwheel channel=6 pitch=-3328 time=0
EXTRACT: pitchwheel channel=6 pitch=-3456 time=0.016183027083333332
EXTRACT: pitchwheel channel=6 pitch=-3456 time=0
EXTRACT: pitchwheel channel=6 pitch=-3584 time=0.016183027083333332
EXTRACT: pitchwheel channel=6 pitch=-3584 time=0
EXTRACT: pitchwheel channel=6 pitch=-3712 time=0.016183027083333332
EXTRACT: pitchwheel channel=6 pitch=-3712 time=0
EXTRACT: pitchwheel channel=6 pitch=-3840 time=0.016183027083333332
EXTRACT: pitchwheel channel=6 pitch=-3840 time=0
EXTRACT: pitchwheel channel=6 pitch=-3968 time=0.016183027083333332
EXTRACT: pitchwheel channel=6 pitch=-3968 time=0
EXTRACT: pitchwheel channel=6 pitch=-4096 time=0.016183027083333332
EXTRACT: pitchwheel channel=6 pitch=-4096 time=0
EXTRACT: pitchwheel channel=6 pitch=-4224 time=0.016183027083333332
EXTRACT: pitchwheel channel=6 pitch=-4224 time=0
EXTRACT: pitchwheel channel=3 pitch=0 time=0.0016741062500000002
EXTRACT: note_on channel=5 note=64 velocity=95 time=0
EXTRACT: note_on channel=5 note=59 velocity=95 time=0
EXTRACT: note_on channel=5 note=55 velocity=95 time=0
EXTRACT: note_on channel=5 note=50 velocity=95 time=0
EXTRACT: note_off channel=7 note=33 velocity=95 time=0
EXTRACT: note_off channel=9 note=36 velocity=95 time=0
EXTRACT: note_on channel=9 note=28 velocity=95 time=0
EXTRACT: note_on channel=9 note=39 velocity=95 time=0
EXTRACT: pitchwheel channel=6 pitch=-4352 time=0.014508920833333334
EXTRACT: pitchwheel channel=6 pitch=-4352 time=0
EXTRACT: pitchwheel channel=6 pitch=-4480 time=0.016183027083333332
EXTRACT: pitchwheel channel=6 pitch=-4480 time=0
EXTRACT: pitchwheel channel=4 pitch=0 time=0.0027901770833333333
EXTRACT: pitchwheel channel=6 pitch=-4608 time=0.013392850000000001
EXTRACT: pitchwheel channel=6 pitch=-4608 time=0
EXTRACT: pitchwheel channel=6 pitch=-4736 time=0.016183027083333332
EXTRACT: pitchwheel channel=6 pitch=-4736 time=0
EXTRACT: pitchwheel channel=6 pitch=-4864 time=0.016183027083333332
EXTRACT: pitchwheel channel=6 pitch=-4864 time=0
EXTRACT: pitchwheel channel=6 pitch=-4992 time=0.016183027083333332
EXTRACT: pitchwheel channel=6 pitch=-4992 time=0
EXTRACT: pitchwheel channel=6 pitch=-5120 time=0.016183027083333332
EXTRACT: pitchwheel channel=6 pitch=-5120 time=0
EXTRACT: pitchwheel channel=6 pitch=-5248 time=0.016183027083333332
EXTRACT: pitchwheel channel=6 pitch=-5248 time=0
EXTRACT: pitchwheel channel=3 pitch=128 time=0.006138389583333333
EXTRACT: pitchwheel channel=6 pitch=-5376 time=0.0100446375
EXTRACT: pitchwheel channel=6 pitch=-5376 time=0
EXTRACT: pitchwheel channel=6 pitch=-5504 time=0.016183027083333332
EXTRACT: pitchwheel channel=6 pitch=-5504 time=0
EXTRACT: pitchwheel channel=4 pitch=128 time=0.007254460416666667
EXTRACT: pitchwheel channel=6 pitch=-5632 time=0.008928566666666667
EXTRACT: pitchwheel channel=6 pitch=-5632 time=0
EXTRACT: pitchwheel channel=6 pitch=-5760 time=0.016183027083333332
EXTRACT: pitchwheel channel=6 pitch=-5760 time=0
EXTRACT: pitchwheel channel=6 pitch=-5888 time=0.016183027083333332
EXTRACT: pitchwheel channel=6 pitch=-5888 time=0
EXTRACT: pitchwheel channel=6 pitch=-6016 time=0.016183027083333332
EXTRACT: pitchwheel channel=6 pitch=-6016 time=0
EXTRACT: pitchwheel channel=6 pitch=-6144 time=0.016183027083333332
EXTRACT: pitchwheel channel=6 pitch=-6144 time=0
EXTRACT: pitchwheel channel=6 pitch=-6272 time=0.016183027083333332
EXTRACT: pitchwheel channel=6 pitch=-6272 time=0
EXTRACT: note_on channel=0 note=58 velocity=95 time=0.010602672916666667
EXTRACT: pitchwheel channel=3 pitch=256 time=0
EXTRACT: pitchwheel channel=3 pitch=256 time=0
EXTRACT: pitchwheel channel=3 pitch=0 time=0
EXTRACT: note_off channel=3 note=65 velocity=95 time=0
EXTRACT: note_off channel=8 note=23 velocity=95 time=0
EXTRACT: pitchwheel channel=6 pitch=-6400 time=0.005580354166666667
EXTRACT: pitchwheel channel=6 pitch=-6400 time=0
EXTRACT: pitchwheel channel=6 pitch=-6528 time=0.016183027083333332
EXTRACT: pitchwheel channel=6 pitch=-6528 time=0
EXTRACT: pitchwheel channel=4 pitch=256 time=0.01171874375
EXTRACT: pitchwheel channel=4 pitch=256 time=0
EXTRACT: pitchwheel channel=4 pitch=0 time=0
EXTRACT: note_off channel=4 note=65 velocity=95 time=0
EXTRACT: pitchwheel channel=6 pitch=-6656 time=0.0044642833333333335
EXTRACT: pitchwheel channel=6 pitch=-6656 time=0
EXTRACT: pitchwheel channel=6 pitch=-6784 time=0.016183027083333332
EXTRACT: pitchwheel channel=6 pitch=-6784 time=0
EXTRACT: pitchwheel channel=6 pitch=-6912 time=0.016183027083333332
EXTRACT: pitchwheel channel=6 pitch=-6912 time=0
EXTRACT: pitchwheel channel=6 pitch=-7040 time=0.016183027083333332
EXTRACT: pitchwheel channel=6 pitch=-7040 time=0
EXTRACT: pitchwheel channel=6 pitch=-7168 time=0.016183027083333332
EXTRACT: pitchwheel channel=6 pitch=-7168 time=0
EXTRACT: pitchwheel channel=6 pitch=-7296 time=0.016183027083333332
EXTRACT: pitchwheel channel=6 pitch=-7296 time=0
EXTRACT: pitchwheel channel=6 pitch=-7424 time=0.016183027083333332
EXTRACT: pitchwheel channel=6 pitch=-7424 time=0
EXTRACT: pitchwheel channel=6 pitch=-7552 time=0.016183027083333332
EXTRACT: pitchwheel channel=6 pitch=-7552 time=0
EXTRACT: pitchwheel channel=6 pitch=-7680 time=0.016183027083333332
EXTRACT: pitchwheel channel=6 pitch=-7680 time=0
EXTRACT: pitchwheel channel=6 pitch=-7808 time=0.016183027083333332
EXTRACT: pitchwheel channel=6 pitch=-7808 time=0
EXTRACT: pitchwheel channel=6 pitch=-7936 time=0.016183027083333332
EXTRACT: pitchwheel channel=6 pitch=-7936 time=0
EXTRACT: pitchwheel channel=6 pitch=-8064 time=0.016183027083333332
EXTRACT: pitchwheel channel=6 pitch=-8064 time=0
EXTRACT: pitchwheel channel=6 pitch=-8192 time=0.016183027083333332
EXTRACT: pitchwheel channel=6 pitch=-8192 time=0
EXTRACT: pitchwheel channel=6 pitch=-8192 time=0.016183027083333332
EXTRACT: pitchwheel channel=6 pitch=-8192 time=0
EXTRACT: pitchwheel channel=6 pitch=-8192 time=0.016183027083333332
EXTRACT: pitchwheel channel=6 pitch=-8192 time=0
EXTRACT: note_off channel=0 note=58 velocity=95 time=0.0033482125000000003
EXTRACT: note_on channel=0 note=59 velocity=70 time=0
EXTRACT: note_on channel=1 note=71 velocity=95 time=0
EXTRACT: note_on channel=1 note=66 velocity=95 time=0
EXTRACT: note_on channel=1 note=63 velocity=95 time=0
EXTRACT: note_on channel=1 note=59 velocity=95 time=0
EXTRACT: pitchwheel channel=6 pitch=-8192 time=0
EXTRACT: pitchwheel channel=6 pitch=0 time=0
EXTRACT: note_off channel=6 note=53 velocity=95 time=0
EXTRACT: pitchwheel channel=6 pitch=-8192 time=0
EXTRACT: pitchwheel channel=6 pitch=0 time=0
EXTRACT: note_off channel=6 note=53 velocity=95 time=0
EXTRACT: note_on channel=7 note=33 velocity=95 time=0
EXTRACT: note_on channel=8 note=23 velocity=95 time=0
EXTRACT: note_on channel=10 note=40 velocity=95 time=0
EXTRACT: note_off channel=9 note=28 velocity=95 time=0
EXTRACT: note_off channel=9 note=39 velocity=95 time=0
EXTRACT: note_on channel=9 note=36 velocity=95 time=0
EXTRACT: note_off channel=10 note=40 velocity=95 time=0.06696425
EXTRACT: note_off channel=0 note=59 velocity=70 time=0.20089275
EXTRACT: note_on channel=0 note=63 velocity=95 time=0
EXTRACT: note_off channel=5 note=64 velocity=95 time=0
EXTRACT: note_off channel=5 note=59 velocity=95 time=0
EXTRACT: note_off channel=5 note=55 velocity=95 time=0
EXTRACT: note_off channel=5 note=50 velocity=95 time=0
EXTRACT: note_off channel=0 note=63 velocity=95 time=0.267857
EXTRACT: note_on channel=0 note=66 velocity=95 time=0
EXTRACT: note_on channel=4 note=63 velocity=47 time=0
EXTRACT: note_on channel=4 note=59 velocity=95 time=0
EXTRACT: note_on channel=5 note=64 velocity=95 time=0
EXTRACT: note_on channel=5 note=59 velocity=95 time=0
EXTRACT: note_on channel=5 note=55 velocity=95 time=0
EXTRACT: note_on channel=5 note=50 velocity=95 time=0
EXTRACT: note_off channel=7 note=33 velocity=95 time=0
EXTRACT: note_off channel=8 note=23 velocity=95 time=0
EXTRACT: note_off channel=9 note=36 velocity=95 time=0
EXTRACT: note_on channel=9 note=28 velocity=95 time=0
EXTRACT: note_on channel=9 note=39 velocity=95 time=0
EXTRACT: note_on channel=3 note=63 velocity=47 time=0.033482125
EXTRACT: note_on channel=3 note=59 velocity=95 time=0
EXTRACT: note_off channel=0 note=66 velocity=95 time=0.234374875
EXTRACT: note_on channel=0 note=59 velocity=95 time=0
EXTRACT: note_on channel=7 note=33 velocity=95 time=0
EXTRACT: note_on channel=8 note=23 velocity=95 time=0
EXTRACT: note_on channel=10 note=40 velocity=95 time=0
EXTRACT: note_off channel=9 note=28 velocity=95 time=0
EXTRACT: note_off channel=9 note=39 velocity=95 time=0
EXTRACT: note_on channel=9 note=36 velocity=95 time=0
EXTRACT: note_off channel=10 note=40 velocity=95 time=0.06696425
EXTRACT: note_off channel=0 note=59 velocity=95 time=0.20089275
EXTRACT: note_on channel=0 note=58 velocity=70 time=0
EXTRACT: note_off channel=1 note=71 velocity=95 time=0
EXTRACT: note_off channel=1 note=66 velocity=95 time=0
EXTRACT: note_off channel=1 note=63 velocity=95 time=0
EXTRACT: note_off channel=1 note=59 velocity=95 time=0
EXTRACT: note_on channel=1 note=70 velocity=95 time=0
EXTRACT: note_on channel=1 note=66 velocity=95 time=0
EXTRACT: note_on channel=1 note=63 velocity=95 time=0
EXTRACT: note_on channel=1 note=58 velocity=95 time=0
EXTRACT: note_off channel=4 note=63 velocity=47 time=0
EXTRACT: note_off channel=4 note=59 velocity=95 time=0
EXTRACT: note_on channel=4 note=61 velocity=47 time=0
EXTRACT: note_on channel=4 note=58 velocity=95 time=0
EXTRACT: note_off channel=9 note=36 velocity=95 time=0
EXTRACT: note_off channel=3 note=63 velocity=47 time=0.033482125
EXTRACT: note_off channel=3 note=59 velocity=95 time=0
EXTRACT: note_on channel=3 note=61 velocity=47 time=0
EXTRACT: note_on channel=3 note=58 velocity=95 time=0
EXTRACT: note_off channel=0 note=58 velocity=70 time=0.234374875
EXTRACT: note_on channel=0 note=63 velocity=95 time=0
EXTRACT: note_off channel=5 note=64 velocity=95 time=0
EXTRACT: note_off channel=5 note=59 velocity=95 time=0
EXTRACT: note_off channel=5 note=55 velocity=95 time=0
EXTRACT: note_off channel=5 note=50 velocity=95 time=0
EXTRACT: note_off channel=7 note=33 velocity=95 time=0
EXTRACT: note_on channel=7 note=33 velocity=95 time=0
EXTRACT: note_off channel=8 note=23 velocity=95 time=0
EXTRACT: note_on channel=8 note=23 velocity=95 time=0
EXTRACT: note_on channel=10 note=40 velocity=95 time=0
EXTRACT: note_on channel=9 note=36 velocity=95 time=0
EXTRACT: note_off channel=10 note=40 velocity=95 time=0.06696425
EXTRACT: note_off channel=0 note=63 velocity=95 time=0.20089275
EXTRACT: note_off channel=4 note=61 velocity=47 time=0
EXTRACT: note_off channel=4 note=58 velocity=95 time=0
EXTRACT: pitchwheel channel=4 pitch=0 time=0
EXTRACT: note_on channel=4 note=62 velocity=95 time=0
EXTRACT: note_on channel=5 note=64 velocity=95 time=0
EXTRACT: note_on channel=5 note=59 velocity=95 time=0
EXTRACT: note_on channel=5 note=55 velocity=95 time=0
EXTRACT: note_on channel=5 note=50 velocity=95 time=0
EXTRACT: note_off channel=7 note=33 velocity=95 time=0
EXTRACT: note_off channel=9 note=36 velocity=95 time=0
EXTRACT: note_on channel=9 note=28 velocity=95 time=0
EXTRACT: note_on channel=9 note=39 velocity=95 time=0
EXTRACT: note_off channel=3 note=61 velocity=47 time=0.033482125
EXTRACT: note_off channel=3 note=58 velocity=95 time=0
EXTRACT: pitchwheel channel=3 pitch=0 time=0
EXTRACT: note_on channel=3 note=63 velocity=95 time=0
EXTRACT: pitchwheel channel=4 pitch=128 time=0.013392850000000001
EXTRACT: pitchwheel channel=3 pitch=128 time=0.033482125
EXTRACT: pitchwheel channel=4 pitch=256 time=0.013392850000000001
EXTRACT: pitchwheel channel=3 pitch=256 time=0.033482125
EXTRACT: pitchwheel channel=4 pitch=384 time=0.013392850000000001
EXTRACT: pitchwheel channel=3 pitch=384 time=0.033482125
EXTRACT: pitchwheel channel=4 pitch=512 time=0.013392850000000001
EXTRACT: pitchwheel channel=3 pitch=512 time=0.033482125
EXTRACT: pitchwheel channel=4 pitch=640 time=0.013392850000000001
EXTRACT: pitchwheel channel=4 pitch=640 time=0
EXTRACT: pitchwheel channel=4 pitch=0 time=0
EXTRACT: note_off channel=4 note=62 velocity=95 time=0
EXTRACT: note_on channel=0 note=58 velocity=95 time=0.033482125
EXTRACT: pitchwheel channel=3 pitch=640 time=0
EXTRACT: pitchwheel channel=3 pitch=640 time=0
EXTRACT: pitchwheel channel=3 pitch=0 time=0
EXTRACT: note_off channel=3 note=63 velocity=95 time=0
EXTRACT: pitchwheel channel=4 pitch=0 time=0
EXTRACT: note_on channel=4 note=63 velocity=95 time=0
EXTRACT: note_off channel=8 note=23 velocity=95 time=0
EXTRACT: pitchwheel channel=4 pitch=128 time=0.023995522916666668
EXTRACT: pitchwheel channel=3 pitch=0 time=0.009486602083333334
EXTRACT: note_on channel=3 note=64 velocity=95 time=0
EXTRACT: pitchwheel channel=4 pitch=256 time=0.014508920833333334
EXTRACT: pitchwheel channel=3 pitch=128 time=0.009486602083333334
EXTRACT: pitchwheel channel=4 pitch=384 time=0.014508920833333334
EXTRACT: pitchwheel channel=3 pitch=256 time=0.009486602083333334
EXTRACT: pitchwheel channel=4 pitch=512 time=0.014508920833333334
EXTRACT: pitchwheel channel=3 pitch=384 time=0.009486602083333334
EXTRACT: pitchwheel channel=4 pitch=640 time=0.014508920833333334
EXTRACT: pitchwheel channel=3 pitch=512 time=0.009486602083333334
EXTRACT: pitchwheel channel=4 pitch=768 time=0.014508920833333334
EXTRACT: pitchwheel channel=3 pitch=640 time=0.009486602083333334
EXTRACT: pitchwheel channel=4 pitch=896 time=0.014508920833333334
EXTRACT: pitchwheel channel=3 pitch=768 time=0.009486602083333334
EXTRACT: pitchwheel channel=4 pitch=1024 time=0.014508920833333334
EXTRACT: pitchwheel channel=3 pitch=896 time=0.009486602083333334
EXTRACT: pitchwheel channel=4 pitch=1152 time=0.014508920833333334
EXTRACT: pitchwheel channel=3 pitch=1024 time=0.009486602083333334
EXTRACT: pitchwheel channel=4 pitch=1280 time=0.014508920833333334
EXTRACT: pitchwheel channel=3 pitch=1152 time=0.009486602083333334
EXTRACT: pitchwheel channel=4 pitch=1408 time=0.014508920833333334
EXTRACT: note_off channel=0 note=58 velocity=95 time=0.003906247916666667
EXTRACT: note_on channel=0 note=59 velocity=70 time=0
EXTRACT: note_off channel=1 note=70 velocity=95 time=0
EXTRACT: note_off channel=1 note=66 velocity=95 time=0
EXTRACT: note_off channel=1 note=63 velocity=95 time=0
EXTRACT: note_off channel=1 note=58 velocity=95 time=0
EXTRACT: note_on channel=1 note=71 velocity=95 time=0
EXTRACT: note_on channel=1 note=66 velocity=95 time=0
EXTRACT: note_on channel=1 note=63 velocity=95 time=0
EXTRACT: note_on channel=1 note=59 velocity=95 time=0
EXTRACT: pitchwheel channel=4 pitch=1408 time=0
EXTRACT: pitchwheel channel=4 pitch=0 time=0
EXTRACT: note_off channel=4 note=63 velocity=95 time=0
EXTRACT: pitchwheel channel=4 pitch=0 time=0
EXTRACT: note_on channel=4 note=59 velocity=95 time=0
EXTRACT: note_on channel=7 note=33 velocity=95 time=0
EXTRACT: note_on channel=8 note=23 velocity=95 time=0
EXTRACT: note_on channel=10 note=40 velocity=95 time=0
EXTRACT: note_off channel=9 note=28 velocity=95 time=0
EXTRACT: note_off channel=9 note=39 velocity=95 time=0
EXTRACT: note_on channel=9 note=36 velocity=95 time=0
EXTRACT: pitchwheel channel=3 pitch=1280 time=0.005580354166666667
EXTRACT: pitchwheel channel=4 pitch=-128 time=0.012276779166666666
EXTRACT: pitchwheel channel=3 pitch=1408 time=0.01171874375
EXTRACT: pitchwheel channel=3 pitch=1408 time=0.003906247916666667
EXTRACT: pitchwheel channel=3 pitch=0 time=0
EXTRACT: note_off channel=3 note=64 velocity=95 time=0
EXTRACT: pitchwheel channel=3 pitch=0 time=0
EXTRACT: note_on channel=3 note=60 velocity=95 time=0
EXTRACT: pitchwheel channel=4 pitch=-256 time=0.0022321416666666667
EXTRACT: pitchwheel channel=3 pitch=-128 time=0.015624991666666668
EXTRACT: pitchwheel channel=4 pitch=-384 time=0.0022321416666666667
EXTRACT: note_off channel=10 note=40 velocity=95 time=0.013392850000000001
EXTRACT: pitchwheel channel=3 pitch=-256 time=0.0022321416666666667
EXTRACT: pitchwheel channel=4 pitch=-512 time=0.0022321416666666667
EXTRACT: pitchwheel channel=3 pitch=-384 time=0.015624991666666668
EXTRACT: pitchwheel channel=4 pitch=-640 time=0.0022321416666666667
EXTRACT: pitchwheel channel=3 pitch=-512 time=0.015624991666666668
EXTRACT: pitchwheel channel=4 pitch=-768 time=0.0022321416666666667
EXTRACT: pitchwheel channel=3 pitch=-640 time=0.015624991666666668
EXTRACT: pitchwheel channel=4 pitch=-896 time=0.0022321416666666667
EXTRACT: pitchwheel channel=3 pitch=-768 time=0.015624991666666668
EXTRACT: pitchwheel channel=4 pitch=-1024 time=0.0022321416666666667
EXTRACT: pitchwheel channel=3 pitch=-896 time=0.015624991666666668
EXTRACT: pitchwheel channel=4 pitch=-1152 time=0.0022321416666666667
EXTRACT: pitchwheel channel=3 pitch=-1024 time=0.015624991666666668
EXTRACT: pitchwheel channel=4 pitch=-1280 time=0.0022321416666666667
EXTRACT: pitchwheel channel=3 pitch=-1152 time=0.015624991666666668
EXTRACT: pitchwheel channel=4 pitch=-1408 time=0.0022321416666666667
EXTRACT: pitchwheel channel=4 pitch=-1408 time=0.0044642833333333335
EXTRACT: pitchwheel channel=4 pitch=0 time=0
EXTRACT: note_off channel=4 note=59 velocity=95 time=0
EXTRACT: pitchwheel channel=3 pitch=-1280 time=0.011160708333333333
EXTRACT: pitchwheel channel=3 pitch=-1408 time=0.017857133333333334
EXTRACT: pitchwheel channel=3 pitch=-1408 time=0.0044642833333333335
EXTRACT: pitchwheel channel=3 pitch=0 time=0
EXTRACT: note_off channel=3 note=60 velocity=95 time=0
EXTRACT: note_off channel=0 note=59 velocity=70 time=0.033482125
EXTRACT: note_on channel=0 note=63 velocity=95 time=0
EXTRACT: note_off channel=5 note=64 velocity=95 time=0
EXTRACT: note_off channel=5 note=59 velocity=95 time=0
EXTRACT: note_off channel=5 note=55 velocity=95 time=0
EXTRACT: note_off channel=5 note=50 velocity=95 time=0
EXTRACT: note_off channel=0 note=63 velocity=95 time=0.267857
EXTRACT: note_on channel=0 note=66 velocity=95 time=0
EXTRACT: pitchwheel channel=4 pitch=0 time=0
EXTRACT: note_on channel=4 note=62 velocity=95 time=0
EXTRACT: note_on channel=5 note=64 velocity=95 time=0
EXTRACT: note_on channel=5 note=59 velocity=95 time=0
EXTRACT: note_on channel=5 note=55 velocity=95 time=0
EXTRACT: note_on channel=5 note=50 velocity=95 time=0
EXTRACT: note_off channel=7 note=33 velocity=95 time=0
EXTRACT: note_off channel=8 note=23 velocity=95 time=0
EXTRACT: note_off channel=9 note=36 velocity=95 time=0
EXTRACT: note_on channel=9 note=28 velocity=95 time=0
EXTRACT: note_on channel=9 note=39 velocity=95 time=0
EXTRACT: pitchwheel channel=3 pitch=0 time=0.033482125
EXTRACT: note_on channel=3 note=63 velocity=95 time=0
EXTRACT: pitchwheel channel=4 pitch=128 time=0.013392850000000001
EXTRACT: pitchwheel channel=3 pitch=128 time=0.033482125
EXTRACT: pitchwheel channel=4 pitch=256 time=0.013392850000000001
EXTRACT: pitchwheel channel=3 pitch=256 time=0.033482125
EXTRACT: note_on channel=7 note=33 velocity=95 time=0.006696425000000001
EXTRACT: note_on channel=8 note=23 velocity=95 time=0
EXTRACT: note_on channel=10 note=40 velocity=95 time=0
EXTRACT: note_off channel=9 note=28 velocity=95 time=0
EXTRACT: note_off channel=9 note=39 velocity=95 time=0
EXTRACT: note_on channel=9 note=36 velocity=95 time=0
EXTRACT: pitchwheel channel=4 pitch=384 time=0.006696425000000001
EXTRACT: pitchwheel channel=3 pitch=384 time=0.033482125
EXTRACT: pitchwheel channel=4 pitch=512 time=0.013392850000000001
EXTRACT: note_off channel=10 note=40 velocity=95 time=0.013392850000000001
EXTRACT: pitchwheel channel=3 pitch=512 time=0.020089275
EXTRACT: pitchwheel channel=4 pitch=640 time=0.013392850000000001
EXTRACT: pitchwheel channel=4 pitch=640 time=0
EXTRACT: pitchwheel channel=4 pitch=0 time=0
EXTRACT: note_off channel=4 note=62 velocity=95 time=0
EXTRACT: note_off channel=0 note=66 velocity=95 time=0.033482125
EXTRACT: note_on channel=0 note=59 velocity=95 time=0
EXTRACT: pitchwheel channel=3 pitch=640 time=0
EXTRACT: pitchwheel channel=3 pitch=640 time=0
EXTRACT: pitchwheel channel=3 pitch=0 time=0
EXTRACT: note_off channel=3 note=63 velocity=95 time=0
EXTRACT: pitchwheel channel=4 pitch=0 time=0
EXTRACT: note_on channel=4 note=63 velocity=95 time=0
EXTRACT: note_off channel=7 note=33 velocity=95 time=0
EXTRACT: note_on channel=7 note=33 velocity=95 time=0
EXTRACT: note_off channel=8 note=23 velocity=95 time=0
EXTRACT: note_on channel=8 note=23 velocity=95 time=0
EXTRACT: note_on channel=10 note=40 velocity=95 time=0
EXTRACT: note_off channel=9 note=36 velocity=95 time=0
EXTRACT: note_on channel=9 note=36 velocity=95 time=0
EXTRACT: pitchwheel channel=4 pitch=128 time=0.023995522916666668
EXTRACT: pitchwheel channel=3 pitch=0 time=0.009486602083333334
EXTRACT: note_on channel=3 note=64 velocity=95 time=0
EXTRACT: pitchwheel channel=4 pitch=256 time=0.014508920833333334
EXTRACT: pitchwheel channel=3 pitch=128 time=0.009486602083333334
EXTRACT: note_off channel=10 note=40 velocity=95 time=0.009486602083333334
EXTRACT: pitchwheel channel=4 pitch=384 time=0.00502231875
EXTRACT: pitchwheel channel=3 pitch=256 time=0.009486602083333334
EXTRACT: pitchwheel channel=4 pitch=512 time=0.014508920833333334
EXTRACT: pitchwheel channel=3 pitch=384 time=0.009486602083333334
EXTRACT: pitchwheel channel=4 pitch=640 time=0.014508920833333334
EXTRACT: pitchwheel channel=3 pitch=512 time=0.009486602083333334
EXTRACT: pitchwheel channel=4 pitch=768 time=0.014508920833333334
EXTRACT: pitchwheel channel=3 pitch=640 time=0.009486602083333334
EXTRACT: pitchwheel channel=4 pitch=896 time=0.014508920833333334
EXTRACT: pitchwheel channel=3 pitch=768 time=0.009486602083333334
EXTRACT: pitchwheel channel=4 pitch=1024 time=0.014508920833333334
EXTRACT: pitchwheel channel=3 pitch=896 time=0.009486602083333334
EXTRACT: pitchwheel channel=4 pitch=1152 time=0.014508920833333334
EXTRACT: pitchwheel channel=3 pitch=1024 time=0.009486602083333334
EXTRACT: pitchwheel channel=4 pitch=1280 time=0.014508920833333334
EXTRACT: pitchwheel channel=3 pitch=1152 time=0.009486602083333334
EXTRACT: pitchwheel channel=4 pitch=1408 time=0.014508920833333334
EXTRACT: note_off channel=0 note=59 velocity=95 time=0.003906247916666667
EXTRACT: note_on channel=0 note=58 velocity=70 time=0
EXTRACT: note_off channel=1 note=71 velocity=95 time=0
EXTRACT: note_off channel=1 note=66 velocity=95 time=0
EXTRACT: note_off channel=1 note=63 velocity=95 time=0
EXTRACT: note_off channel=1 note=59 velocity=95 time=0
EXTRACT: note_on channel=1 note=70 velocity=95 time=0
EXTRACT: note_on channel=1 note=66 velocity=95 time=0
EXTRACT: note_on channel=1 note=63 velocity=95 time=0
EXTRACT: note_on channel=1 note=58 velocity=95 time=0
EXTRACT: pitchwheel channel=4 pitch=1408 time=0
EXTRACT: pitchwheel channel=4 pitch=0 time=0
EXTRACT: note_off channel=4 note=63 velocity=95 time=0
EXTRACT: pitchwheel channel=4 pitch=0 time=0
EXTRACT: note_on channel=4 note=59 velocity=95 time=0
EXTRACT: pitchwheel channel=6 pitch=0 time=0
EXTRACT: note_on channel=6 note=53 velocity=95 time=0
EXTRACT: pitchwheel channel=6 pitch=0 time=0
EXTRACT: note_on channel=6 note=53 velocity=95 time=0
EXTRACT: note_off channel=7 note=33 velocity=95 time=0
EXTRACT: note_off channel=9 note=36 velocity=95 time=0
EXTRACT: pitchwheel channel=3 pitch=1280 time=0.005580354166666667
EXTRACT: pitchwheel channel=6 pitch=-128 time=0.010602672916666667
EXTRACT: pitchwheel channel=6 pitch=-128 time=0
EXTRACT: pitchwheel channel=4 pitch=-128 time=0.0016741062500000002
EXTRACT: pitchwheel channel=3 pitch=1408 time=0.01171874375
EXTRACT: pitchwheel channel=6 pitch=-256 time=0.0027901770833333333
EXTRACT: pitchwheel channel=6 pitch=-256 time=0
EXTRACT: pitchwheel channel=3 pitch=1408 time=0.0011160708333333334
EXTRACT: pitchwheel channel=3 pitch=0 time=0
EXTRACT: note_off channel=3 note=64 velocity=95 time=0
EXTRACT: pitchwheel channel=3 pitch=0 time=0
EXTRACT: note_on channel=3 note=60 velocity=95 time=0
EXTRACT: pitchwheel channel=4 pitch=-256 time=0.0022321416666666667
EXTRACT: pitchwheel channel=6 pitch=-384 time=0.012834814583333333
EXTRACT: pitchwheel channel=6 pitch=-384 time=0
EXTRACT: pitchwheel channel=3 pitch=-128 time=0.0027901770833333333
EXTRACT: pitchwheel channel=4 pitch=-384 time=0.0022321416666666667
EXTRACT: pitchwheel channel=6 pitch=-512 time=0.011160708333333333
EXTRACT: pitchwheel channel=6 pitch=-512 time=0
EXTRACT: pitchwheel channel=3 pitch=-256 time=0.0044642833333333335
EXTRACT: pitchwheel channel=4 pitch=-512 time=0.0022321416666666667
EXTRACT: pitchwheel channel=6 pitch=-640 time=0.009486602083333334
EXTRACT: pitchwheel channel=6 pitch=-640 time=0
EXTRACT: pitchwheel channel=3 pitch=-384 time=0.006138389583333333
EXTRACT: pitchwheel channel=4 pitch=-640 time=0.0022321416666666667
EXTRACT: pitchwheel channel=6 pitch=-768 time=0.007812495833333334
EXTRACT: pitchwheel channel=6 pitch=-768 time=0
EXTRACT: pitchwheel channel=3 pitch=-512 time=0.007812495833333334
EXTRACT: pitchwheel channel=4 pitch=-768 time=0.0022321416666666667
EXTRACT: pitchwheel channel=6 pitch=-896 time=0.006138389583333333
EXTRACT: pitchwheel channel=6 pitch=-896 time=0
EXTRACT: pitchwheel channel=3 pitch=-640 time=0.009486602083333334
EXTRACT: pitchwheel channel=4 pitch=-896 time=0.0022321416666666667
EXTRACT: pitchwheel channel=6 pitch=-1024 time=0.0044642833333333335
EXTRACT: pitchwheel channel=6 pitch=-1024 time=0
EXTRACT: pitchwheel channel=3 pitch=-768 time=0.011160708333333333
EXTRACT: pitchwheel channel=4 pitch=-1024 time=0.0022321416666666667
EXTRACT: pitchwheel channel=6 pitch=-1152 time=0.0027901770833333333
EXTRACT: pitchwheel channel=6 pitch=-1152 time=0
EXTRACT: pitchwheel channel=3 pitch=-896 time=0.012834814583333333
EXTRACT: pitchwheel channel=4 pitch=-1152 time=0.0022321416666666667
EXTRACT: pitchwheel channel=6 pitch=-1280 time=0.0011160708333333334
EXTRACT: pitchwheel channel=6 pitch=-1280 time=0
EXTRACT: pitchwheel channel=3 pitch=-1024 time=0.014508920833333334
EXTRACT: pitchwheel channel=6 pitch=-1408 time=0.0016741062500000002
EXTRACT: pitchwheel channel=6 pitch=-1408 time=0
EXTRACT: pitchwheel channel=4 pitch=-1280 time=0.0005580354166666667
EXTRACT: pitchwheel channel=3 pitch=-1152 time=0.015624991666666668
EXTRACT: pitchwheel channel=6 pitch=-1536 time=0
EXTRACT: pitchwheel channel=6 pitch=-1536 time=0
EXTRACT: pitchwheel channel=4 pitch=-1408 time=0.0022321416666666667
EXTRACT: pitchwheel channel=4 pitch=-1408 time=0.0044642833333333335
EXTRACT: pitchwheel channel=4 pitch=0 time=0
EXTRACT: note_off channel=4 note=59 velocity=95 time=0
EXTRACT: pitchwheel channel=6 pitch=-1664 time=0.009486602083333334
EXTRACT: pitchwheel channel=6 pitch=-1664 time=0
EXTRACT: pitchwheel channel=3 pitch=-1280 time=0.0016741062500000002
EXTRACT: pitchwheel channel=6 pitch=-1792 time=0.014508920833333334
EXTRACT: pitchwheel channel=6 pitch=-1792 time=0
EXTRACT: pitchwheel channel=3 pitch=-1408 time=0.0033482125000000003
EXTRACT: pitchwheel channel=3 pitch=-1408 time=0.0044642833333333335
EXTRACT: pitchwheel channel=3 pitch=0 time=0
EXTRACT: note_off channel=3 note=60 velocity=95 time=0
EXTRACT: pitchwheel channel=6 pitch=-1920 time=0.00837053125
EXTRACT: pitchwheel channel=6 pitch=-1920 time=0
EXTRACT: pitchwheel channel=6 pitch=-2048 time=0.016183027083333332
EXTRACT: pitchwheel channel=6 pitch=-2048 time=0
EXTRACT: note_off channel=0 note=58 velocity=70 time=0.008928566666666667
EXTRACT: note_on channel=0 note=63 velocity=95 time=0
EXTRACT: note_off channel=5 note=64 velocity=95 time=0
EXTRACT: note_off channel=5 note=59 velocity=95 time=0
EXTRACT: note_off channel=5 note=55 velocity=95 time=0
EXTRACT: note_off channel=5 note=50 velocity=95 time=0
EXTRACT: note_on channel=7 note=33 velocity=95 time=0
EXTRACT: note_off channel=8 note=23 velocity=95 time=0
EXTRACT: note_on channel=8 note=23 velocity=95 time=0
EXTRACT: note_on channel=10 note=40 velocity=95 time=0
EXTRACT: note_on channel=9 note=36 velocity=95 time=0
EXTRACT: pitchwheel channel=6 pitch=-2176 time=0.007254460416666667
EXTRACT: pitchwheel channel=6 pitch=-2176 time=0
EXTRACT: pitchwheel channel=6 pitch=-2304 time=0.016183027083333332
EXTRACT: pitchwheel channel=6 pitch=-2304 time=0
EXTRACT: pitchwheel channel=6 pitch=-2432 time=0.016183027083333332
EXTRACT: pitchwheel channel=6 pitch=-2432 time=0
EXTRACT: pitchwheel channel=6 pitch=-2560 time=0.016183027083333332
EXTRACT: pitchwheel channel=6 pitch=-2560 time=0
EXTRACT: note_off channel=10 note=40 velocity=95 time=0.011160708333333333
EXTRACT: pitchwheel channel=6 pitch=-2688 time=0.00502231875
EXTRACT: pitchwheel channel=6 pitch=-2688 time=0
EXTRACT: pitchwheel channel=6 pitch=-2816 time=0.016183027083333332
EXTRACT: pitchwheel channel=6 pitch=-2816 time=0
EXTRACT: pitchwheel channel=6 pitch=-2944 time=0.016183027083333332
EXTRACT: pitchwheel channel=6 pitch=-2944 time=0
EXTRACT: pitchwheel channel=6 pitch=-3072 time=0.016183027083333332
EXTRACT: pitchwheel channel=6 pitch=-3072 time=0
EXTRACT: pitchwheel channel=6 pitch=-3200 time=0.016183027083333332
EXTRACT: pitchwheel channel=6 pitch=-3200 time=0
EXTRACT: pitchwheel channel=6 pitch=-3328 time=0.016183027083333332
EXTRACT: pitchwheel channel=6 pitch=-3328 time=0
EXTRACT: pitchwheel channel=6 pitch=-3456 time=0.016183027083333332
EXTRACT: pitchwheel channel=6 pitch=-3456 time=0
EXTRACT: pitchwheel channel=6 pitch=-3584 time=0.016183027083333332
EXTRACT: pitchwheel channel=6 pitch=-3584 time=0
EXTRACT: pitchwheel channel=6 pitch=-3712 time=0.016183027083333332
EXTRACT: pitchwheel channel=6 pitch=-3712 time=0
EXTRACT: pitchwheel channel=6 pitch=-3840 time=0.016183027083333332
EXTRACT: pitchwheel channel=6 pitch=-3840 time=0
EXTRACT: pitchwheel channel=6 pitch=-3968 time=0.016183027083333332
EXTRACT: pitchwheel channel=6 pitch=-3968 time=0
EXTRACT: pitchwheel channel=6 pitch=-4096 time=0.016183027083333332
EXTRACT: pitchwheel channel=6 pitch=-4096 time=0
EXTRACT: pitchwheel channel=6 pitch=-4224 time=0.016183027083333332
EXTRACT: pitchwheel channel=6 pitch=-4224 time=0
EXTRACT: note_off channel=0 note=63 velocity=95 time=0.0016741062500000002
EXTRACT: note_on channel=5 note=64 velocity=95 time=0
EXTRACT: note_on channel=5 note=59 velocity=95 time=0
EXTRACT: note_on channel=5 note=55 velocity=95 time=0
EXTRACT: note_on channel=5 note=50 velocity=95 time=0
EXTRACT: note_off channel=7 note=33 velocity=95 time=0
EXTRACT: note_off channel=9 note=36 velocity=95 time=0
EXTRACT: note_on channel=9 note=28 velocity=95 time=0
EXTRACT: note_on channel=9 note=39 velocity=95 time=0
EXTRACT: pitchwheel channel=6 pitch=-4352 time=0.014508920833333334
EXTRACT: pitchwheel channel=6 pitch=-4352 time=0
EXTRACT: pitchwheel channel=6 pitch=-4480 time=0.016183027083333332
EXTRACT: pitchwheel channel=6 pitch=-4480 time=0
EXTRACT: pitchwheel channel=6 pitch=-4608 time=0.016183027083333332
EXTRACT: pitchwheel channel=6 pitch=-4608 time=0
EXTRACT: pitchwheel channel=6 pitch=-4736 time=0.016183027083333332
EXTRACT: pitchwheel channel=6 pitch=-4736 time=0
EXTRACT: pitchwheel channel=6 pitch=-4864 time=0.016183027083333332
EXTRACT: pitchwheel channel=6 pitch=-4864 time=0
EXTRACT: pitchwheel channel=6 pitch=-4992 time=0.016183027083333332
EXTRACT: pitchwheel channel=6 pitch=-4992 time=0
EXTRACT: pitchwheel channel=6 pitch=-5120 time=0.016183027083333332
EXTRACT: pitchwheel channel=6 pitch=-5120 time=0
EXTRACT: pitchwheel channel=6 pitch=-5248 time=0.016183027083333332
EXTRACT: pitchwheel channel=6 pitch=-5248 time=0
EXTRACT: pitchwheel channel=6 pitch=-5376 time=0.016183027083333332
EXTRACT: pitchwheel channel=6 pitch=-5376 time=0
EXTRACT: pitchwheel channel=6 pitch=-5504 time=0.016183027083333332
EXTRACT: pitchwheel channel=6 pitch=-5504 time=0
EXTRACT: pitchwheel channel=6 pitch=-5632 time=0.016183027083333332
EXTRACT: pitchwheel channel=6 pitch=-5632 time=0
EXTRACT: pitchwheel channel=6 pitch=-5760 time=0.016183027083333332
EXTRACT: pitchwheel channel=6 pitch=-5760 time=0
EXTRACT: pitchwheel channel=6 pitch=-5888 time=0.016183027083333332
EXTRACT: pitchwheel channel=6 pitch=-5888 time=0
EXTRACT: pitchwheel channel=6 pitch=-6016 time=0.016183027083333332
EXTRACT: pitchwheel channel=6 pitch=-6016 time=0
EXTRACT: pitchwheel channel=6 pitch=-6144 time=0.016183027083333332
EXTRACT: pitchwheel channel=6 pitch=-6144 time=0
EXTRACT: pitchwheel channel=6 pitch=-6272 time=0.016183027083333332
EXTRACT: pitchwheel channel=6 pitch=-6272 time=0
EXTRACT: note_on channel=0 note=58 velocity=95 time=0.010602672916666667
EXTRACT: note_off channel=8 note=23 velocity=95 time=0
EXTRACT: pitchwheel channel=6 pitch=-6400 time=0.005580354166666667
EXTRACT: pitchwheel channel=6 pitch=-6400 time=0
EXTRACT: pitchwheel channel=6 pitch=-6528 time=0.016183027083333332
EXTRACT: pitchwheel channel=6 pitch=-6528 time=0
EXTRACT: pitchwheel channel=6 pitch=-6656 time=0.016183027083333332
EXTRACT: pitchwheel channel=6 pitch=-6656 time=0
EXTRACT: pitchwheel channel=6 pitch=-6784 time=0.016183027083333332
EXTRACT: pitchwheel channel=6 pitch=-6784 time=0
EXTRACT: pitchwheel channel=6 pitch=-6912 time=0.016183027083333332
EXTRACT: pitchwheel channel=6 pitch=-6912 time=0
EXTRACT: pitchwheel channel=6 pitch=-7040 time=0.016183027083333332
EXTRACT: pitchwheel channel=6 pitch=-7040 time=0
EXTRACT: pitchwheel channel=6 pitch=-7168 time=0.016183027083333332
EXTRACT: pitchwheel channel=6 pitch=-7168 time=0
EXTRACT: pitchwheel channel=6 pitch=-7296 time=0.016183027083333332
EXTRACT: pitchwheel channel=6 pitch=-7296 time=0
EXTRACT: pitchwheel channel=6 pitch=-7424 time=0.016183027083333332
EXTRACT: pitchwheel channel=6 pitch=-7424 time=0
EXTRACT: pitchwheel channel=6 pitch=-7552 time=0.016183027083333332
EXTRACT: pitchwheel channel=6 pitch=-7552 time=0
EXTRACT: pitchwheel channel=6 pitch=-7680 time=0.016183027083333332
EXTRACT: pitchwheel channel=6 pitch=-7680 time=0
EXTRACT: pitchwheel channel=6 pitch=-7808 time=0.016183027083333332
EXTRACT: pitchwheel channel=6 pitch=-7808 time=0
EXTRACT: pitchwheel channel=6 pitch=-7936 time=0.016183027083333332
EXTRACT: pitchwheel channel=6 pitch=-7936 time=0
EXTRACT: pitchwheel channel=6 pitch=-8064 time=0.016183027083333332
EXTRACT: pitchwheel channel=6 pitch=-8064 time=0
EXTRACT: pitchwheel channel=6 pitch=-8192 time=0.016183027083333332
EXTRACT: pitchwheel channel=6 pitch=-8192 time=0
EXTRACT: pitchwheel channel=6 pitch=-8192 time=0.016183027083333332
EXTRACT: pitchwheel channel=6 pitch=-8192 time=0
EXTRACT: pitchwheel channel=6 pitch=-8192 time=0.016183027083333332
EXTRACT: pitchwheel channel=6 pitch=-8192 time=0
EXTRACT: note_off channel=0 note=58 velocity=95 time=0.0033482125000000003
EXTRACT: note_on channel=0 note=59 velocity=70 time=0
EXTRACT: note_off channel=1 note=70 velocity=95 time=0
EXTRACT: note_off channel=1 note=66 velocity=95 time=0
EXTRACT: note_off channel=1 note=63 velocity=95 time=0
EXTRACT: note_off channel=1 note=58 velocity=95 time=0
EXTRACT: note_on channel=1 note=71 velocity=95 time=0
EXTRACT: note_on channel=1 note=66 velocity=95 time=0
EXTRACT: note_on channel=1 note=63 velocity=95 time=0
EXTRACT: note_on channel=1 note=59 velocity=95 time=0
EXTRACT: pitchwheel channel=6 pitch=-8192 time=0
EXTRACT: pitchwheel channel=6 pitch=0 time=0
EXTRACT: note_off channel=6 note=53 velocity=95 time=0
EXTRACT: pitchwheel channel=6 pitch=-8192 time=0
EXTRACT: pitchwheel channel=6 pitch=0 time=0
EXTRACT: note_off channel=6 note=53 velocity=95 time=0
EXTRACT: note_on channel=7 note=33 velocity=95 time=0
EXTRACT: note_on channel=8 note=23 velocity=95 time=0
EXTRACT: note_on channel=10 note=40 velocity=95 time=0
EXTRACT: note_off channel=9 note=28 velocity=95 time=0
EXTRACT: note_off channel=9 note=39 velocity=95 time=0
EXTRACT: note_on channel=9 note=36 velocity=95 time=0
EXTRACT: note_off channel=10 note=40 velocity=95 time=0.06696425
EXTRACT: note_off channel=0 note=59 velocity=70 time=0.20089275
EXTRACT: note_on channel=0 note=63 velocity=95 time=0
EXTRACT: note_off channel=5 note=64 velocity=95 time=0
EXTRACT: note_off channel=5 note=59 velocity=95 time=0
EXTRACT: note_off channel=5 note=55 velocity=95 time=0
EXTRACT: note_off channel=5 note=50 velocity=95 time=0
EXTRACT: note_off channel=8 note=23 velocity=95 time=0
EXTRACT: note_on channel=8 note=23 velocity=95 time=0
EXTRACT: note_on channel=10 note=40 velocity=95 time=0
EXTRACT: note_off channel=9 note=36 velocity=95 time=0
EXTRACT: note_on channel=9 note=36 velocity=95 time=0
EXTRACT: note_off channel=10 note=40 velocity=95 time=0.06696425
EXTRACT: note_off channel=0 note=63 velocity=95 time=0.20089275
EXTRACT: note_on channel=0 note=66 velocity=95 time=0
EXTRACT: note_on channel=4 note=63 velocity=47 time=0
EXTRACT: note_on channel=4 note=59 velocity=95 time=0
EXTRACT: note_on channel=5 note=64 velocity=95 time=0
EXTRACT: note_on channel=5 note=59 velocity=95 time=0
EXTRACT: note_on channel=5 note=55 velocity=95 time=0
EXTRACT: note_on channel=5 note=50 velocity=95 time=0
EXTRACT: note_off channel=7 note=33 velocity=95 time=0
EXTRACT: note_off channel=8 note=23 velocity=95 time=0
EXTRACT: note_off channel=9 note=36 velocity=95 time=0
EXTRACT: note_on channel=9 note=28 velocity=95 time=0
EXTRACT: note_on channel=9 note=39 velocity=95 time=0
EXTRACT: note_on channel=3 note=63 velocity=47 time=0.033482125
EXTRACT: note_on channel=3 note=59 velocity=95 time=0
EXTRACT: note_off channel=0 note=66 velocity=95 time=0.234374875
EXTRACT: note_on channel=0 note=59 velocity=95 time=0
EXTRACT: note_on channel=7 note=33 velocity=95 time=0
EXTRACT: note_on channel=8 note=23 velocity=95 time=0
EXTRACT: note_on channel=10 note=40 velocity=95 time=0
EXTRACT: note_off channel=9 note=28 velocity=95 time=0
EXTRACT: note_off channel=9 note=39 velocity=95 time=0
EXTRACT: note_on channel=9 note=36 velocity=95 time=0
EXTRACT: note_off channel=10 note=40 velocity=95 time=0.06696425
EXTRACT: note_off channel=0 note=59 velocity=95 time=0.20089275
EXTRACT: note_on channel=0 note=58 velocity=70 time=0
EXTRACT: note_off channel=1 note=71 velocity=95 time=0
EXTRACT: note_off channel=1 note=66 velocity=95 time=0
EXTRACT: note_off channel=1 note=63 velocity=95 time=0
EXTRACT: note_off channel=1 note=59 velocity=95 time=0
EXTRACT: note_on channel=1 note=70 velocity=95 time=0
EXTRACT: note_on channel=1 note=66 velocity=95 time=0
EXTRACT: note_on channel=1 note=63 velocity=95 time=0
EXTRACT: note_on channel=1 note=58 velocity=95 time=0
EXTRACT: note_off channel=4 note=63 velocity=47 time=0
EXTRACT: note_off channel=4 note=59 velocity=95 time=0
EXTRACT: note_on channel=4 note=61 velocity=47 time=0
EXTRACT: note_on channel=4 note=58 velocity=95 time=0
EXTRACT: note_off channel=9 note=36 velocity=95 time=0
EXTRACT: note_off channel=3 note=63 velocity=47 time=0.033482125
EXTRACT: note_off channel=3 note=59 velocity=95 time=0
EXTRACT: note_on channel=3 note=61 velocity=47 time=0
EXTRACT: note_on channel=3 note=58 velocity=95 time=0
EXTRACT: note_off channel=0 note=58 velocity=70 time=0.234374875
EXTRACT: note_on channel=0 note=63 velocity=95 time=0
EXTRACT: note_off channel=5 note=64 velocity=95 time=0
EXTRACT: note_off channel=5 note=59 velocity=95 time=0
EXTRACT: note_off channel=5 note=55 velocity=95 time=0
EXTRACT: note_off channel=5 note=50 velocity=95 time=0
EXTRACT: note_off channel=7 note=33 velocity=95 time=0
EXTRACT: note_on channel=7 note=33 velocity=95 time=0
EXTRACT: note_off channel=8 note=23 velocity=95 time=0
EXTRACT: note_on channel=8 note=23 velocity=95 time=0
EXTRACT: note_on channel=10 note=40 velocity=95 time=0
EXTRACT: note_on channel=9 note=36 velocity=95 time=0
EXTRACT: note_off channel=10 note=40 velocity=95 time=0.06696425
EXTRACT: note_off channel=0 note=63 velocity=95 time=0.20089275
EXTRACT: note_off channel=4 note=61 velocity=47 time=0
EXTRACT: note_off channel=4 note=58 velocity=95 time=0
EXTRACT: pitchwheel channel=4 pitch=0 time=0
EXTRACT: note_on channel=4 note=62 velocity=95 time=0
EXTRACT: note_on channel=5 note=64 velocity=95 time=0
EXTRACT: note_on channel=5 note=59 velocity=95 time=0
EXTRACT: note_on channel=5 note=55 velocity=95 time=0
EXTRACT: note_on channel=5 note=50 velocity=95 time=0
EXTRACT: note_off channel=7 note=33 velocity=95 time=0
EXTRACT: note_off channel=9 note=36 velocity=95 time=0
EXTRACT: note_on channel=9 note=28 velocity=95 time=0
EXTRACT: note_on channel=9 note=39 velocity=95 time=0
EXTRACT: note_off channel=3 note=61 velocity=47 time=0.033482125
EXTRACT: note_off channel=3 note=58 velocity=95 time=0
EXTRACT: pitchwheel channel=3 pitch=0 time=0
EXTRACT: note_on channel=3 note=63 velocity=95 time=0
EXTRACT: pitchwheel channel=4 pitch=128 time=0.013392850000000001
EXTRACT: pitchwheel channel=3 pitch=128 time=0.033482125
EXTRACT: pitchwheel channel=4 pitch=256 time=0.013392850000000001
EXTRACT: pitchwheel channel=3 pitch=256 time=0.033482125
EXTRACT: pitchwheel channel=4 pitch=384 time=0.013392850000000001
EXTRACT: pitchwheel channel=3 pitch=384 time=0.033482125
EXTRACT: pitchwheel channel=4 pitch=512 time=0.013392850000000001
EXTRACT: pitchwheel channel=3 pitch=512 time=0.033482125
EXTRACT: pitchwheel channel=4 pitch=640 time=0.013392850000000001
EXTRACT: pitchwheel channel=4 pitch=640 time=0
EXTRACT: pitchwheel channel=4 pitch=0 time=0
EXTRACT: note_off channel=4 note=62 velocity=95 time=0
EXTRACT: note_on channel=0 note=58 velocity=95 time=0.033482125
EXTRACT: pitchwheel channel=3 pitch=640 time=0
EXTRACT: pitchwheel channel=3 pitch=640 time=0
EXTRACT: pitchwheel channel=3 pitch=0 time=0
EXTRACT: note_off channel=3 note=63 velocity=95 time=0
EXTRACT: pitchwheel channel=4 pitch=0 time=0
EXTRACT: note_on channel=4 note=63 velocity=95 time=0
EXTRACT: note_off channel=8 note=23 velocity=95 time=0
EXTRACT: pitchwheel channel=4 pitch=128 time=0.023995522916666668
EXTRACT: pitchwheel channel=3 pitch=0 time=0.009486602083333334
EXTRACT: note_on channel=3 note=64 velocity=95 time=0
EXTRACT: pitchwheel channel=4 pitch=256 time=0.014508920833333334
EXTRACT: pitchwheel channel=3 pitch=128 time=0.009486602083333334
EXTRACT: pitchwheel channel=4 pitch=384 time=0.014508920833333334
EXTRACT: pitchwheel channel=3 pitch=256 time=0.009486602083333334
EXTRACT: pitchwheel channel=4 pitch=512 time=0.014508920833333334
EXTRACT: pitchwheel channel=3 pitch=384 time=0.009486602083333334
EXTRACT: pitchwheel channel=4 pitch=640 time=0.014508920833333334
EXTRACT: pitchwheel channel=3 pitch=512 time=0.009486602083333334
EXTRACT: pitchwheel channel=4 pitch=768 time=0.014508920833333334
EXTRACT: pitchwheel channel=3 pitch=640 time=0.009486602083333334
EXTRACT: pitchwheel channel=4 pitch=896 time=0.014508920833333334
EXTRACT: pitchwheel channel=3 pitch=768 time=0.009486602083333334
EXTRACT: pitchwheel channel=4 pitch=1024 time=0.014508920833333334
EXTRACT: pitchwheel channel=3 pitch=896 time=0.009486602083333334
EXTRACT: pitchwheel channel=4 pitch=1152 time=0.014508920833333334
EXTRACT: pitchwheel channel=3 pitch=1024 time=0.009486602083333334
EXTRACT: pitchwheel channel=4 pitch=1280 time=0.014508920833333334
EXTRACT: pitchwheel channel=3 pitch=1152 time=0.009486602083333334
EXTRACT: pitchwheel channel=4 pitch=1408 time=0.014508920833333334
EXTRACT: note_off channel=0 note=58 velocity=95 time=0.003906247916666667
EXTRACT: note_on channel=0 note=59 velocity=70 time=0
EXTRACT: note_off channel=1 note=70 velocity=95 time=0
EXTRACT: note_off channel=1 note=66 velocity=95 time=0
EXTRACT: note_off channel=1 note=63 velocity=95 time=0
EXTRACT: note_off channel=1 note=58 velocity=95 time=0
EXTRACT: note_on channel=1 note=71 velocity=95 time=0
EXTRACT: note_on channel=1 note=66 velocity=95 time=0
EXTRACT: note_on channel=1 note=63 velocity=95 time=0
EXTRACT: note_on channel=1 note=59 velocity=95 time=0
EXTRACT: pitchwheel channel=4 pitch=1408 time=0
EXTRACT: pitchwheel channel=4 pitch=0 time=0
EXTRACT: note_off channel=4 note=63 velocity=95 time=0
EXTRACT: pitchwheel channel=4 pitch=0 time=0
EXTRACT: note_on channel=4 note=59 velocity=95 time=0
EXTRACT: note_on channel=7 note=33 velocity=95 time=0
EXTRACT: note_on channel=8 note=23 velocity=95 time=0
EXTRACT: note_on channel=10 note=40 velocity=95 time=0
EXTRACT: note_off channel=9 note=28 velocity=95 time=0
EXTRACT: note_off channel=9 note=39 velocity=95 time=0
EXTRACT: note_on channel=9 note=36 velocity=95 time=0
EXTRACT: pitchwheel channel=3 pitch=1280 time=0.005580354166666667
EXTRACT: pitchwheel channel=4 pitch=-128 time=0.012276779166666666
EXTRACT: pitchwheel channel=3 pitch=1408 time=0.01171874375
EXTRACT: pitchwheel channel=3 pitch=1408 time=0.003906247916666667
EXTRACT: pitchwheel channel=3 pitch=0 time=0
EXTRACT: note_off channel=3 note=64 velocity=95 time=0
EXTRACT: pitchwheel channel=3 pitch=0 time=0
EXTRACT: note_on channel=3 note=60 velocity=95 time=0
EXTRACT: pitchwheel channel=4 pitch=-256 time=0.0022321416666666667
EXTRACT: pitchwheel channel=3 pitch=-128 time=0.015624991666666668
EXTRACT: pitchwheel channel=4 pitch=-384 time=0.0022321416666666667
EXTRACT: note_off channel=10 note=40 velocity=95 time=0.013392850000000001
EXTRACT: pitchwheel channel=3 pitch=-256 time=0.0022321416666666667
EXTRACT: pitchwheel channel=4 pitch=-512 time=0.0022321416666666667
EXTRACT: pitchwheel channel=3 pitch=-384 time=0.015624991666666668
EXTRACT: pitchwheel channel=4 pitch=-640 time=0.0022321416666666667
EXTRACT: pitchwheel channel=3 pitch=-512 time=0.015624991666666668
EXTRACT: pitchwheel channel=4 pitch=-768 time=0.0022321416666666667
EXTRACT: pitchwheel channel=3 pitch=-640 time=0.015624991666666668
EXTRACT: pitchwheel channel=4 pitch=-896 time=0.0022321416666666667
EXTRACT: pitchwheel channel=3 pitch=-768 time=0.015624991666666668
EXTRACT: pitchwheel channel=4 pitch=-1024 time=0.0022321416666666667
EXTRACT: pitchwheel channel=3 pitch=-896 time=0.015624991666666668
EXTRACT: pitchwheel channel=4 pitch=-1152 time=0.0022321416666666667
EXTRACT: pitchwheel channel=3 pitch=-1024 time=0.015624991666666668
EXTRACT: pitchwheel channel=4 pitch=-1280 time=0.0022321416666666667
EXTRACT: pitchwheel channel=3 pitch=-1152 time=0.015624991666666668
EXTRACT: pitchwheel channel=4 pitch=-1408 time=0.0022321416666666667
EXTRACT: pitchwheel channel=4 pitch=-1408 time=0.0044642833333333335
EXTRACT: pitchwheel channel=4 pitch=0 time=0
EXTRACT: note_off channel=4 note=59 velocity=95 time=0
EXTRACT: pitchwheel channel=3 pitch=-1280 time=0.011160708333333333
EXTRACT: pitchwheel channel=3 pitch=-1408 time=0.017857133333333334
EXTRACT: pitchwheel channel=3 pitch=-1408 time=0.0044642833333333335
EXTRACT: pitchwheel channel=3 pitch=0 time=0
EXTRACT: note_off channel=3 note=60 velocity=95 time=0
EXTRACT: note_off channel=0 note=59 velocity=70 time=0.033482125
EXTRACT: note_on channel=0 note=63 velocity=95 time=0
EXTRACT: note_off channel=5 note=64 velocity=95 time=0
EXTRACT: note_off channel=5 note=59 velocity=95 time=0
EXTRACT: note_off channel=5 note=55 velocity=95 time=0
EXTRACT: note_off channel=5 note=50 velocity=95 time=0
EXTRACT: note_off channel=0 note=63 velocity=95 time=0.267857
EXTRACT: note_on channel=0 note=66 velocity=95 time=0
EXTRACT: pitchwheel channel=4 pitch=0 time=0
EXTRACT: note_on channel=4 note=62 velocity=95 time=0
EXTRACT: note_on channel=5 note=64 velocity=95 time=0
EXTRACT: note_on channel=5 note=59 velocity=95 time=0
EXTRACT: note_on channel=5 note=55 velocity=95 time=0
EXTRACT: note_on channel=5 note=50 velocity=95 time=0
EXTRACT: note_off channel=7 note=33 velocity=95 time=0
EXTRACT: note_off channel=8 note=23 velocity=95 time=0
EXTRACT: note_off channel=9 note=36 velocity=95 time=0
EXTRACT: note_on channel=9 note=28 velocity=95 time=0
EXTRACT: note_on channel=9 note=39 velocity=95 time=0
EXTRACT: pitchwheel channel=3 pitch=0 time=0.033482125
EXTRACT: note_on channel=3 note=63 velocity=95 time=0
EXTRACT: pitchwheel channel=4 pitch=128 time=0.013392850000000001
EXTRACT: pitchwheel channel=3 pitch=128 time=0.033482125
EXTRACT: pitchwheel channel=4 pitch=256 time=0.013392850000000001
EXTRACT: pitchwheel channel=3 pitch=256 time=0.033482125
EXTRACT: pitchwheel channel=4 pitch=384 time=0.013392850000000001
EXTRACT: pitchwheel channel=3 pitch=384 time=0.033482125
EXTRACT: pitchwheel channel=4 pitch=512 time=0.013392850000000001
EXTRACT: pitchwheel channel=3 pitch=512 time=0.033482125
EXTRACT: pitchwheel channel=4 pitch=640 time=0.013392850000000001
EXTRACT: pitchwheel channel=4 pitch=640 time=0
EXTRACT: pitchwheel channel=4 pitch=0 time=0
EXTRACT: note_off channel=4 note=62 velocity=95 time=0
EXTRACT: note_off channel=0 note=66 velocity=95 time=0.033482125
EXTRACT: note_on channel=0 note=59 velocity=95 time=0
EXTRACT: pitchwheel channel=3 pitch=640 time=0
EXTRACT: pitchwheel channel=3 pitch=640 time=0
EXTRACT: pitchwheel channel=3 pitch=0 time=0
EXTRACT: note_off channel=3 note=63 velocity=95 time=0
EXTRACT: pitchwheel channel=4 pitch=0 time=0
EXTRACT: note_on channel=4 note=63 velocity=95 time=0
EXTRACT: note_on channel=7 note=33 velocity=95 time=0
EXTRACT: note_on channel=8 note=23 velocity=95 time=0
EXTRACT: note_on channel=10 note=40 velocity=95 time=0
EXTRACT: note_off channel=9 note=28 velocity=95 time=0
EXTRACT: note_off channel=9 note=39 velocity=95 time=0
EXTRACT: note_on channel=9 note=36 velocity=95 time=0
EXTRACT: pitchwheel channel=4 pitch=128 time=0.023995522916666668
EXTRACT: pitchwheel channel=3 pitch=0 time=0.009486602083333334
EXTRACT: note_on channel=3 note=64 velocity=95 time=0
EXTRACT: pitchwheel channel=4 pitch=256 time=0.014508920833333334
EXTRACT: pitchwheel channel=3 pitch=128 time=0.009486602083333334
EXTRACT: note_off channel=10 note=40 velocity=95 time=0.009486602083333334
EXTRACT: pitchwheel channel=4 pitch=384 time=0.00502231875
EXTRACT: pitchwheel channel=3 pitch=256 time=0.009486602083333334
EXTRACT: pitchwheel channel=4 pitch=512 time=0.014508920833333334
EXTRACT: pitchwheel channel=3 pitch=384 time=0.009486602083333334
EXTRACT: pitchwheel channel=4 pitch=640 time=0.014508920833333334
EXTRACT: pitchwheel channel=3 pitch=512 time=0.009486602083333334
EXTRACT: pitchwheel channel=4 pitch=768 time=0.014508920833333334
EXTRACT: pitchwheel channel=3 pitch=640 time=0.009486602083333334
EXTRACT: pitchwheel channel=4 pitch=896 time=0.014508920833333334
EXTRACT: pitchwheel channel=3 pitch=768 time=0.009486602083333334
EXTRACT: pitchwheel channel=4 pitch=1024 time=0.014508920833333334
EXTRACT: pitchwheel channel=3 pitch=896 time=0.009486602083333334
EXTRACT: pitchwheel channel=4 pitch=1152 time=0.014508920833333334
EXTRACT: pitchwheel channel=3 pitch=1024 time=0.009486602083333334
EXTRACT: pitchwheel channel=4 pitch=1280 time=0.014508920833333334
EXTRACT: pitchwheel channel=3 pitch=1152 time=0.009486602083333334
EXTRACT: pitchwheel channel=4 pitch=1408 time=0.014508920833333334
EXTRACT: note_off channel=0 note=59 velocity=95 time=0.003906247916666667
EXTRACT: note_on channel=0 note=58 velocity=70 time=0
EXTRACT: note_off channel=1 note=71 velocity=95 time=0
EXTRACT: note_off channel=1 note=66 velocity=95 time=0
EXTRACT: note_off channel=1 note=63 velocity=95 time=0
EXTRACT: note_off channel=1 note=59 velocity=95 time=0
EXTRACT: note_on channel=1 note=70 velocity=95 time=0
EXTRACT: note_on channel=1 note=66 velocity=95 time=0
EXTRACT: note_on channel=1 note=63 velocity=95 time=0
EXTRACT: note_on channel=1 note=58 velocity=95 time=0
EXTRACT: pitchwheel channel=4 pitch=1408 time=0
EXTRACT: pitchwheel channel=4 pitch=0 time=0
EXTRACT: note_off channel=4 note=63 velocity=95 time=0
EXTRACT: pitchwheel channel=4 pitch=0 time=0
EXTRACT: note_on channel=4 note=59 velocity=95 time=0
EXTRACT: pitchwheel channel=6 pitch=0 time=0
EXTRACT: note_on channel=6 note=53 velocity=95 time=0
EXTRACT: pitchwheel channel=6 pitch=0 time=0
EXTRACT: note_on channel=6 note=53 velocity=95 time=0
EXTRACT: note_off channel=9 note=36 velocity=95 time=0
EXTRACT: pitchwheel channel=3 pitch=1280 time=0.005580354166666667
EXTRACT: pitchwheel channel=6 pitch=-128 time=0.010602672916666667
EXTRACT: pitchwheel channel=6 pitch=-128 time=0
EXTRACT: pitchwheel channel=4 pitch=-128 time=0.0016741062500000002
EXTRACT: pitchwheel channel=3 pitch=1408 time=0.01171874375
EXTRACT: pitchwheel channel=6 pitch=-256 time=0.0027901770833333333
EXTRACT: pitchwheel channel=6 pitch=-256 time=0
EXTRACT: pitchwheel channel=3 pitch=1408 time=0.0011160708333333334
EXTRACT: pitchwheel channel=3 pitch=0 time=0
EXTRACT: note_off channel=3 note=64 velocity=95 time=0
EXTRACT: pitchwheel channel=3 pitch=0 time=0
EXTRACT: note_on channel=3 note=60 velocity=95 time=0
EXTRACT: pitchwheel channel=4 pitch=-256 time=0.0022321416666666667
EXTRACT: pitchwheel channel=6 pitch=-384 time=0.012834814583333333
EXTRACT: pitchwheel channel=6 pitch=-384 time=0
EXTRACT: pitchwheel channel=3 pitch=-128 time=0.0027901770833333333
EXTRACT: pitchwheel channel=4 pitch=-384 time=0.0022321416666666667
EXTRACT: pitchwheel channel=6 pitch=-512 time=0.011160708333333333
EXTRACT: pitchwheel channel=6 pitch=-512 time=0
EXTRACT: pitchwheel channel=3 pitch=-256 time=0.0044642833333333335
EXTRACT: pitchwheel channel=4 pitch=-512 time=0.0022321416666666667
EXTRACT: pitchwheel channel=6 pitch=-640 time=0.009486602083333334
EXTRACT: pitchwheel channel=6 pitch=-640 time=0
EXTRACT: pitchwheel channel=3 pitch=-384 time=0.006138389583333333
EXTRACT: pitchwheel channel=4 pitch=-640 time=0.0022321416666666667
EXTRACT: pitchwheel channel=6 pitch=-768 time=0.007812495833333334
EXTRACT: pitchwheel channel=6 pitch=-768 time=0
EXTRACT: pitchwheel channel=3 pitch=-512 time=0.007812495833333334
EXTRACT: pitchwheel channel=4 pitch=-768 time=0.0022321416666666667
EXTRACT: pitchwheel channel=6 pitch=-896 time=0.006138389583333333
EXTRACT: pitchwheel channel=6 pitch=-896 time=0
EXTRACT: pitchwheel channel=3 pitch=-640 time=0.009486602083333334
EXTRACT: pitchwheel channel=4 pitch=-896 time=0.0022321416666666667
EXTRACT: pitchwheel channel=6 pitch=-1024 time=0.0044642833333333335
EXTRACT: pitchwheel channel=6 pitch=-1024 time=0
EXTRACT: pitchwheel channel=3 pitch=-768 time=0.011160708333333333
EXTRACT: pitchwheel channel=4 pitch=-1024 time=0.0022321416666666667
EXTRACT: pitchwheel channel=6 pitch=-1152 time=0.0027901770833333333
EXTRACT: pitchwheel channel=6 pitch=-1152 time=0
EXTRACT: pitchwheel channel=3 pitch=-896 time=0.012834814583333333
EXTRACT: pitchwheel channel=4 pitch=-1152 time=0.0022321416666666667
EXTRACT: pitchwheel channel=6 pitch=-1280 time=0.0011160708333333334
EXTRACT: pitchwheel channel=6 pitch=-1280 time=0
EXTRACT: pitchwheel channel=3 pitch=-1024 time=0.014508920833333334
EXTRACT: pitchwheel channel=6 pitch=-1408 time=0.0016741062500000002
EXTRACT: pitchwheel channel=6 pitch=-1408 time=0
EXTRACT: pitchwheel channel=4 pitch=-1280 time=0.0005580354166666667
EXTRACT: pitchwheel channel=3 pitch=-1152 time=0.015624991666666668
EXTRACT: pitchwheel channel=6 pitch=-1536 time=0
EXTRACT: pitchwheel channel=6 pitch=-1536 time=0
EXTRACT: pitchwheel channel=4 pitch=-1408 time=0.0022321416666666667
EXTRACT: pitchwheel channel=4 pitch=-1408 time=0.0044642833333333335
EXTRACT: pitchwheel channel=4 pitch=0 time=0
EXTRACT: note_off channel=4 note=59 velocity=95 time=0
EXTRACT: pitchwheel channel=6 pitch=-1664 time=0.009486602083333334
EXTRACT: pitchwheel channel=6 pitch=-1664 time=0
EXTRACT: pitchwheel channel=3 pitch=-1280 time=0.0016741062500000002
EXTRACT: pitchwheel channel=6 pitch=-1792 time=0.014508920833333334
EXTRACT: pitchwheel channel=6 pitch=-1792 time=0
EXTRACT: pitchwheel channel=3 pitch=-1408 time=0.0033482125000000003
EXTRACT: pitchwheel channel=3 pitch=-1408 time=0.0044642833333333335
EXTRACT: pitchwheel channel=3 pitch=0 time=0
EXTRACT: note_off channel=3 note=60 velocity=95 time=0
EXTRACT: pitchwheel channel=6 pitch=-1920 time=0.00837053125
EXTRACT: pitchwheel channel=6 pitch=-1920 time=0
EXTRACT: pitchwheel channel=6 pitch=-2048 time=0.016183027083333332
EXTRACT: pitchwheel channel=6 pitch=-2048 time=0
EXTRACT: note_off channel=0 note=58 velocity=70 time=0.008928566666666667
EXTRACT: note_on channel=0 note=63 velocity=95 time=0
EXTRACT: note_off channel=5 note=64 velocity=95 time=0
EXTRACT: note_off channel=5 note=59 velocity=95 time=0
EXTRACT: note_off channel=5 note=55 velocity=95 time=0
EXTRACT: note_off channel=5 note=50 velocity=95 time=0
EXTRACT: note_off channel=7 note=33 velocity=95 time=0
EXTRACT: note_on channel=7 note=33 velocity=95 time=0
EXTRACT: note_off channel=8 note=23 velocity=95 time=0
EXTRACT: note_on channel=8 note=23 velocity=95 time=0
EXTRACT: note_on channel=10 note=40 velocity=95 time=0
EXTRACT: note_on channel=9 note=36 velocity=95 time=0
EXTRACT: pitchwheel channel=6 pitch=-2176 time=0.007254460416666667
EXTRACT: pitchwheel channel=6 pitch=-2176 time=0
EXTRACT: pitchwheel channel=6 pitch=-2304 time=0.016183027083333332
EXTRACT: pitchwheel channel=6 pitch=-2304 time=0
EXTRACT: pitchwheel channel=6 pitch=-2432 time=0.016183027083333332
EXTRACT: pitchwheel channel=6 pitch=-2432 time=0
EXTRACT: pitchwheel channel=6 pitch=-2560 time=0.016183027083333332
EXTRACT: pitchwheel channel=6 pitch=-2560 time=0
EXTRACT: note_off channel=10 note=40 velocity=95 time=0.011160708333333333
EXTRACT: pitchwheel channel=6 pitch=-2688 time=0.00502231875
EXTRACT: pitchwheel channel=6 pitch=-2688 time=0
EXTRACT: pitchwheel channel=6 pitch=-2816 time=0.016183027083333332
EXTRACT: pitchwheel channel=6 pitch=-2816 time=0
EXTRACT: pitchwheel channel=6 pitch=-2944 time=0.016183027083333332
EXTRACT: pitchwheel channel=6 pitch=-2944 time=0
EXTRACT: pitchwheel channel=6 pitch=-3072 time=0.016183027083333332
EXTRACT: pitchwheel channel=6 pitch=-3072 time=0
EXTRACT: pitchwheel channel=6 pitch=-3200 time=0.016183027083333332
EXTRACT: pitchwheel channel=6 pitch=-3200 time=0
EXTRACT: pitchwheel channel=6 pitch=-3328 time=0.016183027083333332
EXTRACT: pitchwheel channel=6 pitch=-3328 time=0
EXTRACT: pitchwheel channel=6 pitch=-3456 time=0.016183027083333332
EXTRACT: pitchwheel channel=6 pitch=-3456 time=0
EXTRACT: pitchwheel channel=6 pitch=-3584 time=0.016183027083333332
EXTRACT: pitchwheel channel=6 pitch=-3584 time=0
EXTRACT: pitchwheel channel=6 pitch=-3712 time=0.016183027083333332
EXTRACT: pitchwheel channel=6 pitch=-3712 time=0
EXTRACT: pitchwheel channel=6 pitch=-3840 time=0.016183027083333332
EXTRACT: pitchwheel channel=6 pitch=-3840 time=0
EXTRACT: pitchwheel channel=6 pitch=-3968 time=0.016183027083333332
EXTRACT: pitchwheel channel=6 pitch=-3968 time=0
EXTRACT: pitchwheel channel=6 pitch=-4096 time=0.016183027083333332
EXTRACT: pitchwheel channel=6 pitch=-4096 time=0
EXTRACT: pitchwheel channel=6 pitch=-4224 time=0.016183027083333332
EXTRACT: pitchwheel channel=6 pitch=-4224 time=0
EXTRACT: note_off channel=0 note=63 velocity=95 time=0.0016741062500000002
EXTRACT: note_on channel=5 note=64 velocity=95 time=0
EXTRACT: note_on channel=5 note=59 velocity=95 time=0
EXTRACT: note_on channel=5 note=55 velocity=95 time=0
EXTRACT: note_on channel=5 note=50 velocity=95 time=0
EXTRACT: note_off channel=7 note=33 velocity=95 time=0
EXTRACT: note_off channel=9 note=36 velocity=95 time=0
EXTRACT: note_on channel=9 note=28 velocity=95 time=0
EXTRACT: note_on channel=9 note=39 velocity=95 time=0
EXTRACT: pitchwheel channel=6 pitch=-4352 time=0.014508920833333334
EXTRACT: pitchwheel channel=6 pitch=-4352 time=0
EXTRACT: pitchwheel channel=6 pitch=-4480 time=0.016183027083333332
EXTRACT: pitchwheel channel=6 pitch=-4480 time=0
EXTRACT: pitchwheel channel=6 pitch=-4608 time=0.016183027083333332
EXTRACT: pitchwheel channel=6 pitch=-4608 time=0
EXTRACT: pitchwheel channel=6 pitch=-4736 time=0.016183027083333332
EXTRACT: pitchwheel channel=6 pitch=-4736 time=0
EXTRACT: pitchwheel channel=6 pitch=-4864 time=0.016183027083333332
EXTRACT: pitchwheel channel=6 pitch=-4864 time=0
EXTRACT: pitchwheel channel=6 pitch=-4992 time=0.016183027083333332
EXTRACT: pitchwheel channel=6 pitch=-4992 time=0
EXTRACT: pitchwheel channel=6 pitch=-5120 time=0.016183027083333332
EXTRACT: pitchwheel channel=6 pitch=-5120 time=0
EXTRACT: pitchwheel channel=6 pitch=-5248 time=0.016183027083333332
EXTRACT: pitchwheel channel=6 pitch=-5248 time=0
EXTRACT: pitchwheel channel=6 pitch=-5376 time=0.016183027083333332
EXTRACT: pitchwheel channel=6 pitch=-5376 time=0
EXTRACT: pitchwheel channel=6 pitch=-5504 time=0.016183027083333332
EXTRACT: pitchwheel channel=6 pitch=-5504 time=0
EXTRACT: pitchwheel channel=6 pitch=-5632 time=0.016183027083333332
EXTRACT: pitchwheel channel=6 pitch=-5632 time=0
EXTRACT: pitchwheel channel=6 pitch=-5760 time=0.016183027083333332
EXTRACT: pitchwheel channel=6 pitch=-5760 time=0
EXTRACT: pitchwheel channel=6 pitch=-5888 time=0.016183027083333332
EXTRACT: pitchwheel channel=6 pitch=-5888 time=0
EXTRACT: pitchwheel channel=6 pitch=-6016 time=0.016183027083333332
EXTRACT: pitchwheel channel=6 pitch=-6016 time=0
EXTRACT: pitchwheel channel=6 pitch=-6144 time=0.016183027083333332
EXTRACT: pitchwheel channel=6 pitch=-6144 time=0
EXTRACT: pitchwheel channel=6 pitch=-6272 time=0.016183027083333332
EXTRACT: pitchwheel channel=6 pitch=-6272 time=0
EXTRACT: note_on channel=0 note=58 velocity=95 time=0.010602672916666667
EXTRACT: note_off channel=8 note=23 velocity=95 time=0
EXTRACT: pitchwheel channel=6 pitch=-6400 time=0.005580354166666667
EXTRACT: pitchwheel channel=6 pitch=-6400 time=0
EXTRACT: pitchwheel channel=6 pitch=-6528 time=0.016183027083333332
EXTRACT: pitchwheel channel=6 pitch=-6528 time=0
EXTRACT: pitchwheel channel=6 pitch=-6656 time=0.016183027083333332
EXTRACT: pitchwheel channel=6 pitch=-6656 time=0
EXTRACT: pitchwheel channel=6 pitch=-6784 time=0.016183027083333332
EXTRACT: pitchwheel channel=6 pitch=-6784 time=0
EXTRACT: pitchwheel channel=6 pitch=-6912 time=0.016183027083333332
EXTRACT: pitchwheel channel=6 pitch=-6912 time=0
EXTRACT: pitchwheel channel=6 pitch=-7040 time=0.016183027083333332
EXTRACT: pitchwheel channel=6 pitch=-7040 time=0
EXTRACT: pitchwheel channel=6 pitch=-7168 time=0.016183027083333332
EXTRACT: pitchwheel channel=6 pitch=-7168 time=0
EXTRACT: pitchwheel channel=6 pitch=-7296 time=0.016183027083333332
EXTRACT: pitchwheel channel=6 pitch=-7296 time=0
EXTRACT: pitchwheel channel=6 pitch=-7424 time=0.016183027083333332
EXTRACT: pitchwheel channel=6 pitch=-7424 time=0
EXTRACT: pitchwheel channel=6 pitch=-7552 time=0.016183027083333332
EXTRACT: pitchwheel channel=6 pitch=-7552 time=0
EXTRACT: pitchwheel channel=6 pitch=-7680 time=0.016183027083333332
EXTRACT: pitchwheel channel=6 pitch=-7680 time=0
EXTRACT: pitchwheel channel=6 pitch=-7808 time=0.016183027083333332
EXTRACT: pitchwheel channel=6 pitch=-7808 time=0
EXTRACT: pitchwheel channel=6 pitch=-7936 time=0.016183027083333332
EXTRACT: pitchwheel channel=6 pitch=-7936 time=0
EXTRACT: pitchwheel channel=6 pitch=-8064 time=0.016183027083333332
EXTRACT: pitchwheel channel=6 pitch=-8064 time=0
EXTRACT: pitchwheel channel=6 pitch=-8192 time=0.016183027083333332
EXTRACT: pitchwheel channel=6 pitch=-8192 time=0
EXTRACT: pitchwheel channel=6 pitch=-8192 time=0.016183027083333332
EXTRACT: pitchwheel channel=6 pitch=-8192 time=0
EXTRACT: pitchwheel channel=6 pitch=-8192 time=0.016183027083333332
EXTRACT: pitchwheel channel=6 pitch=-8192 time=0
EXTRACT: note_off channel=0 note=58 velocity=95 time=0.0033482125000000003
EXTRACT: note_on channel=0 note=59 velocity=70 time=0
EXTRACT: note_off channel=1 note=70 velocity=95 time=0
EXTRACT: note_off channel=1 note=66 velocity=95 time=0
EXTRACT: note_off channel=1 note=63 velocity=95 time=0
EXTRACT: note_off channel=1 note=58 velocity=95 time=0
EXTRACT: note_on channel=1 note=71 velocity=95 time=0
EXTRACT: note_on channel=1 note=66 velocity=95 time=0
EXTRACT: note_on channel=1 note=63 velocity=95 time=0
EXTRACT: note_on channel=1 note=59 velocity=95 time=0
EXTRACT: pitchwheel channel=6 pitch=-8192 time=0
EXTRACT: pitchwheel channel=6 pitch=0 time=0
EXTRACT: note_off channel=6 note=53 velocity=95 time=0
EXTRACT: pitchwheel channel=6 pitch=-8192 time=0
EXTRACT: pitchwheel channel=6 pitch=0 time=0
EXTRACT: note_off channel=6 note=53 velocity=95 time=0
EXTRACT: note_on channel=7 note=33 velocity=95 time=0
EXTRACT: note_on channel=8 note=23 velocity=95 time=0
EXTRACT: note_on channel=10 note=40 velocity=95 time=0
EXTRACT: note_off channel=9 note=28 velocity=95 time=0
EXTRACT: note_off channel=9 note=39 velocity=95 time=0
EXTRACT: note_on channel=9 note=36 velocity=95 time=0
EXTRACT: note_off channel=10 note=40 velocity=95 time=0.06696425
EXTRACT: note_off channel=0 note=59 velocity=70 time=0.20089275
EXTRACT: note_on channel=0 note=63 velocity=95 time=0
EXTRACT: note_off channel=5 note=64 velocity=95 time=0
EXTRACT: note_off channel=5 note=59 velocity=95 time=0
EXTRACT: note_off channel=5 note=55 velocity=95 time=0
EXTRACT: note_off channel=5 note=50 velocity=95 time=0
EXTRACT: note_off channel=0 note=63 velocity=95 time=0.267857
EXTRACT: note_on channel=0 note=66 velocity=95 time=0
EXTRACT: note_on channel=4 note=63 velocity=47 time=0
EXTRACT: note_on channel=4 note=59 velocity=95 time=0
EXTRACT: note_on channel=5 note=64 velocity=95 time=0
EXTRACT: note_on channel=5 note=59 velocity=95 time=0
EXTRACT: note_on channel=5 note=55 velocity=95 time=0
EXTRACT: note_on channel=5 note=50 velocity=95 time=0
EXTRACT: note_off channel=7 note=33 velocity=95 time=0
EXTRACT: note_off channel=8 note=23 velocity=95 time=0
EXTRACT: note_off channel=9 note=36 velocity=95 time=0
EXTRACT: note_on channel=9 note=28 velocity=95 time=0
EXTRACT: note_on channel=9 note=39 velocity=95 time=0
EXTRACT: note_on channel=3 note=63 velocity=47 time=0.033482125
EXTRACT: note_on channel=3 note=59 velocity=95 time=0
EXTRACT: note_off channel=0 note=66 velocity=95 time=0.234374875
EXTRACT: note_on channel=0 note=59 velocity=95 time=0
EXTRACT: note_on channel=7 note=33 velocity=95 time=0
EXTRACT: note_on channel=8 note=23 velocity=95 time=0
EXTRACT: note_on channel=10 note=40 velocity=95 time=0
EXTRACT: note_off channel=9 note=28 velocity=95 time=0
EXTRACT: note_off channel=9 note=39 velocity=95 time=0
EXTRACT: note_on channel=9 note=36 velocity=95 time=0
EXTRACT: note_off channel=10 note=40 velocity=95 time=0.06696425
EXTRACT: note_off channel=0 note=59 velocity=95 time=0.20089275
EXTRACT: note_on channel=0 note=58 velocity=70 time=0
EXTRACT: note_off channel=1 note=71 velocity=95 time=0
EXTRACT: note_off channel=1 note=66 velocity=95 time=0
EXTRACT: note_off channel=1 note=63 velocity=95 time=0
EXTRACT: note_off channel=1 note=59 velocity=95 time=0
EXTRACT: note_on channel=1 note=70 velocity=95 time=0
EXTRACT: note_on channel=1 note=66 velocity=95 time=0
EXTRACT: note_on channel=1 note=63 velocity=95 time=0
EXTRACT: note_on channel=1 note=58 velocity=95 time=0
EXTRACT: note_off channel=4 note=63 velocity=47 time=0
EXTRACT: note_off channel=4 note=59 velocity=95 time=0
EXTRACT: note_on channel=4 note=61 velocity=47 time=0
EXTRACT: note_on channel=4 note=58 velocity=95 time=0
EXTRACT: note_off channel=9 note=36 velocity=95 time=0
EXTRACT: note_off channel=3 note=63 velocity=47 time=0.033482125
EXTRACT: note_off channel=3 note=59 velocity=95 time=0
EXTRACT: note_on channel=3 note=61 velocity=47 time=0
EXTRACT: note_on channel=3 note=58 velocity=95 time=0
EXTRACT: note_off channel=0 note=58 velocity=70 time=0.234374875
EXTRACT: note_on channel=0 note=63 velocity=95 time=0
EXTRACT: note_off channel=5 note=64 velocity=95 time=0
EXTRACT: note_off channel=5 note=59 velocity=95 time=0
EXTRACT: note_off channel=5 note=55 velocity=95 time=0
EXTRACT: note_off channel=5 note=50 velocity=95 time=0
EXTRACT: note_off channel=7 note=33 velocity=95 time=0
EXTRACT: note_on channel=7 note=33 velocity=95 time=0
EXTRACT: note_off channel=8 note=23 velocity=95 time=0
EXTRACT: note_on channel=8 note=23 velocity=95 time=0
EXTRACT: note_on channel=10 note=40 velocity=95 time=0
EXTRACT: note_on channel=9 note=36 velocity=95 time=0
EXTRACT: note_off channel=10 note=40 velocity=95 time=0.06696425
EXTRACT: note_off channel=0 note=63 velocity=95 time=0.20089275
EXTRACT: note_off channel=4 note=61 velocity=47 time=0
EXTRACT: note_off channel=4 note=58 velocity=95 time=0
EXTRACT: pitchwheel channel=4 pitch=0 time=0
EXTRACT: note_on channel=4 note=62 velocity=95 time=0
EXTRACT: note_on channel=5 note=64 velocity=95 time=0
EXTRACT: note_on channel=5 note=59 velocity=95 time=0
EXTRACT: note_on channel=5 note=55 velocity=95 time=0
EXTRACT: note_on channel=5 note=50 velocity=95 time=0
EXTRACT: note_off channel=7 note=33 velocity=95 time=0
EXTRACT: note_off channel=9 note=36 velocity=95 time=0
EXTRACT: note_on channel=9 note=28 velocity=95 time=0
EXTRACT: note_on channel=9 note=39 velocity=95 time=0
EXTRACT: note_off channel=3 note=61 velocity=47 time=0.033482125
EXTRACT: note_off channel=3 note=58 velocity=95 time=0
EXTRACT: pitchwheel channel=3 pitch=0 time=0
EXTRACT: note_on channel=3 note=63 velocity=95 time=0
EXTRACT: pitchwheel channel=4 pitch=128 time=0.013392850000000001
EXTRACT: pitchwheel channel=3 pitch=128 time=0.033482125
EXTRACT: pitchwheel channel=4 pitch=256 time=0.013392850000000001
EXTRACT: pitchwheel channel=3 pitch=256 time=0.033482125
EXTRACT: pitchwheel channel=4 pitch=384 time=0.013392850000000001
EXTRACT: pitchwheel channel=3 pitch=384 time=0.033482125
EXTRACT: pitchwheel channel=4 pitch=512 time=0.013392850000000001
EXTRACT: pitchwheel channel=3 pitch=512 time=0.033482125
EXTRACT: pitchwheel channel=4 pitch=640 time=0.013392850000000001
EXTRACT: pitchwheel channel=4 pitch=640 time=0
EXTRACT: pitchwheel channel=4 pitch=0 time=0
EXTRACT: note_off channel=4 note=62 velocity=95 time=0
EXTRACT: note_on channel=0 note=58 velocity=95 time=0.033482125
EXTRACT: pitchwheel channel=3 pitch=640 time=0
EXTRACT: pitchwheel channel=3 pitch=640 time=0
EXTRACT: pitchwheel channel=3 pitch=0 time=0
EXTRACT: note_off channel=3 note=63 velocity=95 time=0
EXTRACT: pitchwheel channel=4 pitch=0 time=0
EXTRACT: note_on channel=4 note=63 velocity=95 time=0
EXTRACT: note_off channel=8 note=23 velocity=95 time=0
EXTRACT: pitchwheel channel=4 pitch=128 time=0.023995522916666668
EXTRACT: pitchwheel channel=3 pitch=0 time=0.009486602083333334
EXTRACT: note_on channel=3 note=64 velocity=95 time=0
EXTRACT: pitchwheel channel=4 pitch=256 time=0.014508920833333334
EXTRACT: pitchwheel channel=3 pitch=128 time=0.009486602083333334
EXTRACT: pitchwheel channel=4 pitch=384 time=0.014508920833333334
EXTRACT: pitchwheel channel=3 pitch=256 time=0.009486602083333334
EXTRACT: pitchwheel channel=4 pitch=512 time=0.014508920833333334
EXTRACT: pitchwheel channel=3 pitch=384 time=0.009486602083333334
EXTRACT: pitchwheel channel=4 pitch=640 time=0.014508920833333334
EXTRACT: pitchwheel channel=3 pitch=512 time=0.009486602083333334
EXTRACT: pitchwheel channel=4 pitch=768 time=0.014508920833333334
EXTRACT: pitchwheel channel=3 pitch=640 time=0.009486602083333334
EXTRACT: pitchwheel channel=4 pitch=896 time=0.014508920833333334
EXTRACT: pitchwheel channel=3 pitch=768 time=0.009486602083333334
EXTRACT: pitchwheel channel=4 pitch=1024 time=0.014508920833333334
EXTRACT: pitchwheel channel=3 pitch=896 time=0.009486602083333334
EXTRACT: pitchwheel channel=4 pitch=1152 time=0.014508920833333334
EXTRACT: pitchwheel channel=3 pitch=1024 time=0.009486602083333334
EXTRACT: pitchwheel channel=4 pitch=1280 time=0.014508920833333334
EXTRACT: pitchwheel channel=3 pitch=1152 time=0.009486602083333334
EXTRACT: pitchwheel channel=4 pitch=1408 time=0.014508920833333334
EXTRACT: note_off channel=0 note=58 velocity=95 time=0.003906247916666667
EXTRACT: note_on channel=0 note=59 velocity=70 time=0
EXTRACT: note_off channel=1 note=70 velocity=95 time=0
EXTRACT: note_off channel=1 note=66 velocity=95 time=0
EXTRACT: note_off channel=1 note=63 velocity=95 time=0
EXTRACT: note_off channel=1 note=58 velocity=95 time=0
EXTRACT: note_on channel=1 note=71 velocity=95 time=0
EXTRACT: note_on channel=1 note=66 velocity=95 time=0
EXTRACT: note_on channel=1 note=63 velocity=95 time=0
EXTRACT: note_on channel=1 note=59 velocity=95 time=0
EXTRACT: pitchwheel channel=4 pitch=1408 time=0
EXTRACT: pitchwheel channel=4 pitch=0 time=0
EXTRACT: note_off channel=4 note=63 velocity=95 time=0
EXTRACT: pitchwheel channel=4 pitch=0 time=0
EXTRACT: note_on channel=4 note=59 velocity=95 time=0
EXTRACT: note_on channel=7 note=33 velocity=95 time=0
EXTRACT: note_on channel=8 note=23 velocity=95 time=0
EXTRACT: note_on channel=10 note=40 velocity=95 time=0
EXTRACT: note_off channel=9 note=28 velocity=95 time=0
EXTRACT: note_off channel=9 note=39 velocity=95 time=0
EXTRACT: note_on channel=9 note=36 velocity=95 time=0
EXTRACT: pitchwheel channel=3 pitch=1280 time=0.005580354166666667
EXTRACT: pitchwheel channel=4 pitch=-128 time=0.012276779166666666
EXTRACT: pitchwheel channel=3 pitch=1408 time=0.01171874375
EXTRACT: pitchwheel channel=3 pitch=1408 time=0.003906247916666667
EXTRACT: pitchwheel channel=3 pitch=0 time=0
EXTRACT: note_off channel=3 note=64 velocity=95 time=0
EXTRACT: pitchwheel channel=3 pitch=0 time=0
EXTRACT: note_on channel=3 note=60 velocity=95 time=0
EXTRACT: pitchwheel channel=4 pitch=-256 time=0.0022321416666666667
EXTRACT: pitchwheel channel=3 pitch=-128 time=0.015624991666666668
EXTRACT: pitchwheel channel=4 pitch=-384 time=0.0022321416666666667
EXTRACT: note_off channel=10 note=40 velocity=95 time=0.013392850000000001
EXTRACT: pitchwheel channel=3 pitch=-256 time=0.0022321416666666667
EXTRACT: pitchwheel channel=4 pitch=-512 time=0.0022321416666666667
EXTRACT: pitchwheel channel=3 pitch=-384 time=0.015624991666666668
EXTRACT: pitchwheel channel=4 pitch=-640 time=0.0022321416666666667
EXTRACT: pitchwheel channel=3 pitch=-512 time=0.015624991666666668
EXTRACT: pitchwheel channel=4 pitch=-768 time=0.0022321416666666667
EXTRACT: pitchwheel channel=3 pitch=-640 time=0.015624991666666668
EXTRACT: pitchwheel channel=4 pitch=-896 time=0.0022321416666666667
EXTRACT: pitchwheel channel=3 pitch=-768 time=0.015624991666666668
EXTRACT: pitchwheel channel=4 pitch=-1024 time=0.0022321416666666667
EXTRACT: pitchwheel channel=3 pitch=-896 time=0.015624991666666668
EXTRACT: pitchwheel channel=4 pitch=-1152 time=0.0022321416666666667
EXTRACT: pitchwheel channel=3 pitch=-1024 time=0.015624991666666668
EXTRACT: pitchwheel channel=4 pitch=-1280 time=0.0022321416666666667
EXTRACT: pitchwheel channel=3 pitch=-1152 time=0.015624991666666668
EXTRACT: pitchwheel channel=4 pitch=-1408 time=0.0022321416666666667
EXTRACT: pitchwheel channel=4 pitch=-1408 time=0.0044642833333333335
EXTRACT: pitchwheel channel=4 pitch=0 time=0
EXTRACT: note_off channel=4 note=59 velocity=95 time=0
EXTRACT: pitchwheel channel=3 pitch=-1280 time=0.011160708333333333
EXTRACT: pitchwheel channel=3 pitch=-1408 time=0.017857133333333334
EXTRACT: pitchwheel channel=3 pitch=-1408 time=0.0044642833333333335
EXTRACT: pitchwheel channel=3 pitch=0 time=0
EXTRACT: note_off channel=3 note=60 velocity=95 time=0
EXTRACT: note_off channel=0 note=59 velocity=70 time=0.033482125
EXTRACT: note_on channel=0 note=63 velocity=95 time=0
EXTRACT: note_off channel=5 note=64 velocity=95 time=0
EXTRACT: note_off channel=5 note=59 velocity=95 time=0
EXTRACT: note_off channel=5 note=55 velocity=95 time=0
EXTRACT: note_off channel=5 note=50 velocity=95 time=0
EXTRACT: note_off channel=0 note=63 velocity=95 time=0.267857
EXTRACT: note_on channel=0 note=66 velocity=95 time=0
EXTRACT: pitchwheel channel=4 pitch=0 time=0
EXTRACT: note_on channel=4 note=62 velocity=95 time=0
EXTRACT: note_on channel=5 note=64 velocity=95 time=0
EXTRACT: note_on channel=5 note=59 velocity=95 time=0
EXTRACT: note_on channel=5 note=55 velocity=95 time=0
EXTRACT: note_on channel=5 note=50 velocity=95 time=0
EXTRACT: note_off channel=7 note=33 velocity=95 time=0
EXTRACT: note_off channel=8 note=23 velocity=95 time=0
EXTRACT: note_off channel=9 note=36 velocity=95 time=0
EXTRACT: note_on channel=9 note=28 velocity=95 time=0
EXTRACT: note_on channel=9 note=39 velocity=95 time=0
EXTRACT: pitchwheel channel=3 pitch=0 time=0.033482125
EXTRACT: note_on channel=3 note=63 velocity=95 time=0
EXTRACT: pitchwheel channel=4 pitch=128 time=0.013392850000000001
EXTRACT: pitchwheel channel=3 pitch=128 time=0.033482125
EXTRACT: pitchwheel channel=4 pitch=256 time=0.013392850000000001
EXTRACT: pitchwheel channel=3 pitch=256 time=0.033482125
EXTRACT: note_on channel=7 note=33 velocity=95 time=0.006696425000000001
EXTRACT: note_on channel=8 note=23 velocity=95 time=0
EXTRACT: note_on channel=10 note=40 velocity=95 time=0
EXTRACT: note_off channel=9 note=28 velocity=95 time=0
EXTRACT: note_off channel=9 note=39 velocity=95 time=0
EXTRACT: note_on channel=9 note=36 velocity=95 time=0
EXTRACT: pitchwheel channel=4 pitch=384 time=0.006696425000000001
EXTRACT: pitchwheel channel=3 pitch=384 time=0.033482125
EXTRACT: pitchwheel channel=4 pitch=512 time=0.013392850000000001
EXTRACT: note_off channel=10 note=40 velocity=95 time=0.013392850000000001
EXTRACT: pitchwheel channel=3 pitch=512 time=0.020089275
EXTRACT: pitchwheel channel=4 pitch=640 time=0.013392850000000001
EXTRACT: pitchwheel channel=4 pitch=640 time=0
EXTRACT: pitchwheel channel=4 pitch=0 time=0
EXTRACT: note_off channel=4 note=62 velocity=95 time=0
EXTRACT: note_off channel=0 note=66 velocity=95 time=0.033482125
EXTRACT: note_on channel=0 note=59 velocity=95 time=0
EXTRACT: pitchwheel channel=3 pitch=640 time=0
EXTRACT: pitchwheel channel=3 pitch=640 time=0
EXTRACT: pitchwheel channel=3 pitch=0 time=0
EXTRACT: note_off channel=3 note=63 velocity=95 time=0
EXTRACT: pitchwheel channel=4 pitch=0 time=0
EXTRACT: note_on channel=4 note=63 velocity=95 time=0
EXTRACT: note_off channel=7 note=33 velocity=95 time=0
EXTRACT: note_on channel=7 note=33 velocity=95 time=0
EXTRACT: note_off channel=8 note=23 velocity=95 time=0
EXTRACT: note_on channel=8 note=23 velocity=95 time=0
EXTRACT: note_on channel=10 note=40 velocity=95 time=0
EXTRACT: note_off channel=9 note=36 velocity=95 time=0
EXTRACT: note_on channel=9 note=36 velocity=95 time=0
EXTRACT: pitchwheel channel=4 pitch=128 time=0.023995522916666668
EXTRACT: pitchwheel channel=3 pitch=0 time=0.009486602083333334
EXTRACT: note_on channel=3 note=64 velocity=95 time=0
EXTRACT: pitchwheel channel=4 pitch=256 time=0.014508920833333334
EXTRACT: pitchwheel channel=3 pitch=128 time=0.009486602083333334
EXTRACT: note_off channel=10 note=40 velocity=95 time=0.009486602083333334
EXTRACT: pitchwheel channel=4 pitch=384 time=0.00502231875
EXTRACT: pitchwheel channel=3 pitch=256 time=0.009486602083333334
EXTRACT: pitchwheel channel=4 pitch=512 time=0.014508920833333334
EXTRACT: pitchwheel channel=3 pitch=384 time=0.009486602083333334
EXTRACT: pitchwheel channel=4 pitch=640 time=0.014508920833333334
EXTRACT: pitchwheel channel=3 pitch=512 time=0.009486602083333334
EXTRACT: pitchwheel channel=4 pitch=768 time=0.014508920833333334
EXTRACT: pitchwheel channel=3 pitch=640 time=0.009486602083333334
EXTRACT: pitchwheel channel=4 pitch=896 time=0.014508920833333334
EXTRACT: pitchwheel channel=3 pitch=768 time=0.009486602083333334
EXTRACT: pitchwheel channel=4 pitch=1024 time=0.014508920833333334
EXTRACT: pitchwheel channel=3 pitch=896 time=0.009486602083333334
EXTRACT: pitchwheel channel=4 pitch=1152 time=0.014508920833333334
EXTRACT: pitchwheel channel=3 pitch=1024 time=0.009486602083333334
EXTRACT: pitchwheel channel=4 pitch=1280 time=0.014508920833333334
EXTRACT: pitchwheel channel=3 pitch=1152 time=0.009486602083333334
EXTRACT: pitchwheel channel=4 pitch=1408 time=0.014508920833333334
EXTRACT: note_off channel=0 note=59 velocity=95 time=0.003906247916666667
EXTRACT: note_on channel=0 note=58 velocity=70 time=0
EXTRACT: note_off channel=1 note=71 velocity=95 time=0
EXTRACT: note_off channel=1 note=66 velocity=95 time=0
EXTRACT: note_off channel=1 note=63 velocity=95 time=0
EXTRACT: note_off channel=1 note=59 velocity=95 time=0
EXTRACT: note_on channel=1 note=70 velocity=95 time=0
EXTRACT: note_on channel=1 note=66 velocity=95 time=0
EXTRACT: note_on channel=1 note=63 velocity=95 time=0
EXTRACT: note_on channel=1 note=58 velocity=95 time=0
EXTRACT: pitchwheel channel=4 pitch=1408 time=0
EXTRACT: pitchwheel channel=4 pitch=0 time=0
EXTRACT: note_off channel=4 note=63 velocity=95 time=0
EXTRACT: pitchwheel channel=4 pitch=0 time=0
EXTRACT: note_on channel=4 note=59 velocity=95 time=0
EXTRACT: pitchwheel channel=6 pitch=0 time=0
EXTRACT: note_on channel=6 note=53 velocity=95 time=0
EXTRACT: pitchwheel channel=6 pitch=0 time=0
EXTRACT: note_on channel=6 note=53 velocity=95 time=0
EXTRACT: note_off channel=7 note=33 velocity=95 time=0
EXTRACT: note_off channel=9 note=36 velocity=95 time=0
EXTRACT: pitchwheel channel=3 pitch=1280 time=0.005580354166666667
EXTRACT: pitchwheel channel=6 pitch=-128 time=0.010602672916666667
EXTRACT: pitchwheel channel=6 pitch=-128 time=0
EXTRACT: pitchwheel channel=4 pitch=-128 time=0.0016741062500000002
EXTRACT: pitchwheel channel=3 pitch=1408 time=0.01171874375
EXTRACT: pitchwheel channel=6 pitch=-256 time=0.0027901770833333333
EXTRACT: pitchwheel channel=6 pitch=-256 time=0
EXTRACT: pitchwheel channel=3 pitch=1408 time=0.0011160708333333334
EXTRACT: pitchwheel channel=3 pitch=0 time=0
EXTRACT: note_off channel=3 note=64 velocity=95 time=0
EXTRACT: pitchwheel channel=3 pitch=0 time=0
EXTRACT: note_on channel=3 note=60 velocity=95 time=0
EXTRACT: pitchwheel channel=4 pitch=-256 time=0.0022321416666666667
EXTRACT: pitchwheel channel=6 pitch=-384 time=0.012834814583333333
EXTRACT: pitchwheel channel=6 pitch=-384 time=0
EXTRACT: pitchwheel channel=3 pitch=-128 time=0.0027901770833333333
EXTRACT: pitchwheel channel=4 pitch=-384 time=0.0022321416666666667
EXTRACT: pitchwheel channel=6 pitch=-512 time=0.011160708333333333
EXTRACT: pitchwheel channel=6 pitch=-512 time=0
EXTRACT: pitchwheel channel=3 pitch=-256 time=0.0044642833333333335
EXTRACT: pitchwheel channel=4 pitch=-512 time=0.0022321416666666667
EXTRACT: pitchwheel channel=6 pitch=-640 time=0.009486602083333334
EXTRACT: pitchwheel channel=6 pitch=-640 time=0
EXTRACT: pitchwheel channel=3 pitch=-384 time=0.006138389583333333
EXTRACT: pitchwheel channel=4 pitch=-640 time=0.0022321416666666667
EXTRACT: pitchwheel channel=6 pitch=-768 time=0.007812495833333334
EXTRACT: pitchwheel channel=6 pitch=-768 time=0
EXTRACT: pitchwheel channel=3 pitch=-512 time=0.007812495833333334
EXTRACT: pitchwheel channel=4 pitch=-768 time=0.0022321416666666667
EXTRACT: pitchwheel channel=6 pitch=-896 time=0.006138389583333333
EXTRACT: pitchwheel channel=6 pitch=-896 time=0
EXTRACT: pitchwheel channel=3 pitch=-640 time=0.009486602083333334
EXTRACT: pitchwheel channel=4 pitch=-896 time=0.0022321416666666667
EXTRACT: pitchwheel channel=6 pitch=-1024 time=0.0044642833333333335
EXTRACT: pitchwheel channel=6 pitch=-1024 time=0
EXTRACT: pitchwheel channel=3 pitch=-768 time=0.011160708333333333
EXTRACT: pitchwheel channel=4 pitch=-1024 time=0.0022321416666666667
EXTRACT: pitchwheel channel=6 pitch=-1152 time=0.0027901770833333333
EXTRACT: pitchwheel channel=6 pitch=-1152 time=0
EXTRACT: pitchwheel channel=3 pitch=-896 time=0.012834814583333333
EXTRACT: pitchwheel channel=4 pitch=-1152 time=0.0022321416666666667
EXTRACT: pitchwheel channel=6 pitch=-1280 time=0.0011160708333333334
EXTRACT: pitchwheel channel=6 pitch=-1280 time=0
EXTRACT: pitchwheel channel=3 pitch=-1024 time=0.014508920833333334
EXTRACT: pitchwheel channel=6 pitch=-1408 time=0.0016741062500000002
EXTRACT: pitchwheel channel=6 pitch=-1408 time=0
EXTRACT: pitchwheel channel=4 pitch=-1280 time=0.0005580354166666667
EXTRACT: pitchwheel channel=3 pitch=-1152 time=0.015624991666666668
EXTRACT: pitchwheel channel=6 pitch=-1536 time=0
EXTRACT: pitchwheel channel=6 pitch=-1536 time=0
EXTRACT: pitchwheel channel=4 pitch=-1408 time=0.0022321416666666667
EXTRACT: pitchwheel channel=4 pitch=-1408 time=0.0044642833333333335
EXTRACT: pitchwheel channel=4 pitch=0 time=0
EXTRACT: note_off channel=4 note=59 velocity=95 time=0
EXTRACT: pitchwheel channel=6 pitch=-1664 time=0.009486602083333334
EXTRACT: pitchwheel channel=6 pitch=-1664 time=0
EXTRACT: pitchwheel channel=3 pitch=-1280 time=0.0016741062500000002
EXTRACT: pitchwheel channel=6 pitch=-1792 time=0.014508920833333334
EXTRACT: pitchwheel channel=6 pitch=-1792 time=0
EXTRACT: pitchwheel channel=3 pitch=-1408 time=0.0033482125000000003
EXTRACT: pitchwheel channel=3 pitch=-1408 time=0.0044642833333333335
EXTRACT: pitchwheel channel=3 pitch=0 time=0
EXTRACT: note_off channel=3 note=60 velocity=95 time=0
EXTRACT: pitchwheel channel=6 pitch=-1920 time=0.00837053125
EXTRACT: pitchwheel channel=6 pitch=-1920 time=0
EXTRACT: pitchwheel channel=6 pitch=-2048 time=0.016183027083333332
EXTRACT: pitchwheel channel=6 pitch=-2048 time=0
EXTRACT: note_off channel=0 note=58 velocity=70 time=0.008928566666666667
EXTRACT: note_on channel=0 note=63 velocity=95 time=0
EXTRACT: note_off channel=5 note=64 velocity=95 time=0
EXTRACT: note_off channel=5 note=59 velocity=95 time=0
EXTRACT: note_off channel=5 note=55 velocity=95 time=0
EXTRACT: note_off channel=5 note=50 velocity=95 time=0
EXTRACT: note_on channel=7 note=33 velocity=95 time=0
EXTRACT: note_off channel=8 note=23 velocity=95 time=0
EXTRACT: note_on channel=8 note=23 velocity=95 time=0
EXTRACT: note_on channel=10 note=40 velocity=95 time=0
EXTRACT: note_on channel=9 note=36 velocity=95 time=0
EXTRACT: pitchwheel channel=6 pitch=-2176 time=0.007254460416666667
EXTRACT: pitchwheel channel=6 pitch=-2176 time=0
EXTRACT: pitchwheel channel=6 pitch=-2304 time=0.016183027083333332
EXTRACT: pitchwheel channel=6 pitch=-2304 time=0
EXTRACT: pitchwheel channel=6 pitch=-2432 time=0.016183027083333332
EXTRACT: pitchwheel channel=6 pitch=-2432 time=0
EXTRACT: pitchwheel channel=6 pitch=-2560 time=0.016183027083333332
EXTRACT: pitchwheel channel=6 pitch=-2560 time=0
EXTRACT: note_off channel=10 note=40 velocity=95 time=0.011160708333333333
EXTRACT: pitchwheel channel=6 pitch=-2688 time=0.00502231875
EXTRACT: pitchwheel channel=6 pitch=-2688 time=0
EXTRACT: pitchwheel channel=6 pitch=-2816 time=0.016183027083333332
EXTRACT: pitchwheel channel=6 pitch=-2816 time=0
EXTRACT: pitchwheel channel=6 pitch=-2944 time=0.016183027083333332
EXTRACT: pitchwheel channel=6 pitch=-2944 time=0
EXTRACT: pitchwheel channel=6 pitch=-3072 time=0.016183027083333332
EXTRACT: pitchwheel channel=6 pitch=-3072 time=0
EXTRACT: pitchwheel channel=6 pitch=-3200 time=0.016183027083333332
EXTRACT: pitchwheel channel=6 pitch=-3200 time=0
EXTRACT: pitchwheel channel=6 pitch=-3328 time=0.016183027083333332
EXTRACT: pitchwheel channel=6 pitch=-3328 time=0
EXTRACT: pitchwheel channel=6 pitch=-3456 time=0.016183027083333332
EXTRACT: pitchwheel channel=6 pitch=-3456 time=0
EXTRACT: pitchwheel channel=6 pitch=-3584 time=0.016183027083333332
EXTRACT: pitchwheel channel=6 pitch=-3584 time=0
EXTRACT: pitchwheel channel=6 pitch=-3712 time=0.016183027083333332
EXTRACT: pitchwheel channel=6 pitch=-3712 time=0
EXTRACT: pitchwheel channel=6 pitch=-3840 time=0.016183027083333332
EXTRACT: pitchwheel channel=6 pitch=-3840 time=0
EXTRACT: pitchwheel channel=6 pitch=-3968 time=0.016183027083333332
EXTRACT: pitchwheel channel=6 pitch=-3968 time=0
EXTRACT: pitchwheel channel=6 pitch=-4096 time=0.016183027083333332
EXTRACT: pitchwheel channel=6 pitch=-4096 time=0
EXTRACT: pitchwheel channel=6 pitch=-4224 time=0.016183027083333332
EXTRACT: pitchwheel channel=6 pitch=-4224 time=0
EXTRACT: note_off channel=0 note=63 velocity=95 time=0.0016741062500000002
EXTRACT: note_on channel=5 note=64 velocity=95 time=0
EXTRACT: note_on channel=5 note=59 velocity=95 time=0
EXTRACT: note_on channel=5 note=55 velocity=95 time=0
EXTRACT: note_on channel=5 note=50 velocity=95 time=0
EXTRACT: note_off channel=7 note=33 velocity=95 time=0
EXTRACT: note_off channel=9 note=36 velocity=95 time=0
EXTRACT: note_on channel=9 note=28 velocity=95 time=0
EXTRACT: note_on channel=9 note=39 velocity=95 time=0
EXTRACT: pitchwheel channel=6 pitch=-4352 time=0.014508920833333334
EXTRACT: pitchwheel channel=6 pitch=-4352 time=0
EXTRACT: pitchwheel channel=6 pitch=-4480 time=0.016183027083333332
EXTRACT: pitchwheel channel=6 pitch=-4480 time=0
EXTRACT: pitchwheel channel=6 pitch=-4608 time=0.016183027083333332
EXTRACT: pitchwheel channel=6 pitch=-4608 time=0
EXTRACT: pitchwheel channel=6 pitch=-4736 time=0.016183027083333332
EXTRACT: pitchwheel channel=6 pitch=-4736 time=0
EXTRACT: pitchwheel channel=6 pitch=-4864 time=0.016183027083333332
EXTRACT: pitchwheel channel=6 pitch=-4864 time=0
EXTRACT: pitchwheel channel=6 pitch=-4992 time=0.016183027083333332
EXTRACT: pitchwheel channel=6 pitch=-4992 time=0
EXTRACT: pitchwheel channel=6 pitch=-5120 time=0.016183027083333332
EXTRACT: pitchwheel channel=6 pitch=-5120 time=0
EXTRACT: pitchwheel channel=6 pitch=-5248 time=0.016183027083333332
EXTRACT: pitchwheel channel=6 pitch=-5248 time=0
EXTRACT: pitchwheel channel=6 pitch=-5376 time=0.016183027083333332
EXTRACT: pitchwheel channel=6 pitch=-5376 time=0
EXTRACT: pitchwheel channel=6 pitch=-5504 time=0.016183027083333332
EXTRACT: pitchwheel channel=6 pitch=-5504 time=0
EXTRACT: pitchwheel channel=6 pitch=-5632 time=0.016183027083333332
EXTRACT: pitchwheel channel=6 pitch=-5632 time=0
EXTRACT: pitchwheel channel=6 pitch=-5760 time=0.016183027083333332
EXTRACT: pitchwheel channel=6 pitch=-5760 time=0
EXTRACT: pitchwheel channel=6 pitch=-5888 time=0.016183027083333332
EXTRACT: pitchwheel channel=6 pitch=-5888 time=0
EXTRACT: pitchwheel channel=6 pitch=-6016 time=0.016183027083333332
EXTRACT: pitchwheel channel=6 pitch=-6016 time=0
EXTRACT: pitchwheel channel=6 pitch=-6144 time=0.016183027083333332
EXTRACT: pitchwheel channel=6 pitch=-6144 time=0
EXTRACT: pitchwheel channel=6 pitch=-6272 time=0.016183027083333332
EXTRACT: pitchwheel channel=6 pitch=-6272 time=0
EXTRACT: note_on channel=0 note=58 velocity=95 time=0.010602672916666667
EXTRACT: note_off channel=8 note=23 velocity=95 time=0
EXTRACT: pitchwheel channel=6 pitch=-6400 time=0.005580354166666667
EXTRACT: pitchwheel channel=6 pitch=-6400 time=0
EXTRACT: pitchwheel channel=6 pitch=-6528 time=0.016183027083333332
EXTRACT: pitchwheel channel=6 pitch=-6528 time=0
EXTRACT: pitchwheel channel=6 pitch=-6656 time=0.016183027083333332
EXTRACT: pitchwheel channel=6 pitch=-6656 time=0
EXTRACT: pitchwheel channel=6 pitch=-6784 time=0.016183027083333332
EXTRACT: pitchwheel channel=6 pitch=-6784 time=0
EXTRACT: pitchwheel channel=6 pitch=-6912 time=0.016183027083333332
EXTRACT: pitchwheel channel=6 pitch=-6912 time=0
EXTRACT: pitchwheel channel=6 pitch=-7040 time=0.016183027083333332
EXTRACT: pitchwheel channel=6 pitch=-7040 time=0
EXTRACT: pitchwheel channel=6 pitch=-7168 time=0.016183027083333332
EXTRACT: pitchwheel channel=6 pitch=-7168 time=0
EXTRACT: pitchwheel channel=6 pitch=-7296 time=0.016183027083333332
EXTRACT: pitchwheel channel=6 pitch=-7296 time=0
EXTRACT: pitchwheel channel=6 pitch=-7424 time=0.016183027083333332
EXTRACT: pitchwheel channel=6 pitch=-7424 time=0
EXTRACT: pitchwheel channel=6 pitch=-7552 time=0.016183027083333332
EXTRACT: pitchwheel channel=6 pitch=-7552 time=0
EXTRACT: pitchwheel channel=6 pitch=-7680 time=0.016183027083333332
EXTRACT: pitchwheel channel=6 pitch=-7680 time=0
EXTRACT: pitchwheel channel=6 pitch=-7808 time=0.016183027083333332
EXTRACT: pitchwheel channel=6 pitch=-7808 time=0
EXTRACT: pitchwheel channel=6 pitch=-7936 time=0.016183027083333332
EXTRACT: pitchwheel channel=6 pitch=-7936 time=0
EXTRACT: pitchwheel channel=6 pitch=-8064 time=0.016183027083333332
EXTRACT: pitchwheel channel=6 pitch=-8064 time=0
EXTRACT: pitchwheel channel=6 pitch=-8192 time=0.016183027083333332
EXTRACT: pitchwheel channel=6 pitch=-8192 time=0
EXTRACT: pitchwheel channel=6 pitch=-8192 time=0.016183027083333332
EXTRACT: pitchwheel channel=6 pitch=-8192 time=0
EXTRACT: pitchwheel channel=6 pitch=-8192 time=0.016183027083333332
EXTRACT: pitchwheel channel=6 pitch=-8192 time=0
EXTRACT: note_off channel=0 note=58 velocity=95 time=0.0033482125000000003
EXTRACT: note_on channel=0 note=59 velocity=70 time=0
EXTRACT: note_off channel=1 note=70 velocity=95 time=0
EXTRACT: note_off channel=1 note=66 velocity=95 time=0
EXTRACT: note_off channel=1 note=63 velocity=95 time=0
EXTRACT: note_off channel=1 note=58 velocity=95 time=0
EXTRACT: note_on channel=1 note=71 velocity=95 time=0
EXTRACT: note_on channel=1 note=66 velocity=95 time=0
EXTRACT: note_on channel=1 note=63 velocity=95 time=0
EXTRACT: note_on channel=1 note=59 velocity=95 time=0
EXTRACT: pitchwheel channel=6 pitch=-8192 time=0
EXTRACT: pitchwheel channel=6 pitch=0 time=0
EXTRACT: note_off channel=6 note=53 velocity=95 time=0
EXTRACT: pitchwheel channel=6 pitch=-8192 time=0
EXTRACT: pitchwheel channel=6 pitch=0 time=0
EXTRACT: note_off channel=6 note=53 velocity=95 time=0
EXTRACT: note_on channel=7 note=33 velocity=95 time=0
EXTRACT: note_on channel=8 note=23 velocity=95 time=0
EXTRACT: note_on channel=10 note=40 velocity=95 time=0
EXTRACT: note_off channel=9 note=28 velocity=95 time=0
EXTRACT: note_off channel=9 note=39 velocity=95 time=0
EXTRACT: note_on channel=9 note=36 velocity=95 time=0
EXTRACT: note_off channel=10 note=40 velocity=95 time=0.06696425
EXTRACT: note_off channel=0 note=59 velocity=70 time=0.20089275
EXTRACT: note_on channel=0 note=63 velocity=95 time=0
EXTRACT: note_off channel=5 note=64 velocity=95 time=0
EXTRACT: note_off channel=5 note=59 velocity=95 time=0
EXTRACT: note_off channel=5 note=55 velocity=95 time=0
EXTRACT: note_off channel=5 note=50 velocity=95 time=0
EXTRACT: note_off channel=8 note=23 velocity=95 time=0
EXTRACT: note_on channel=8 note=23 velocity=95 time=0
EXTRACT: note_on channel=10 note=40 velocity=95 time=0
EXTRACT: note_off channel=9 note=36 velocity=95 time=0
EXTRACT: note_on channel=9 note=36 velocity=95 time=0
EXTRACT: note_off channel=10 note=40 velocity=95 time=0.06696425
EXTRACT: note_off channel=0 note=63 velocity=95 time=0.20089275
EXTRACT: note_on channel=0 note=66 velocity=95 time=0
EXTRACT: note_on channel=4 note=63 velocity=47 time=0
EXTRACT: note_on channel=4 note=59 velocity=95 time=0
EXTRACT: note_on channel=5 note=64 velocity=95 time=0
EXTRACT: note_on channel=5 note=59 velocity=95 time=0
EXTRACT: note_on channel=5 note=55 velocity=95 time=0
EXTRACT: note_on channel=5 note=50 velocity=95 time=0
EXTRACT: note_off channel=7 note=33 velocity=95 time=0
EXTRACT: note_off channel=8 note=23 velocity=95 time=0
EXTRACT: note_off channel=9 note=36 velocity=95 time=0
EXTRACT: note_on channel=9 note=28 velocity=95 time=0
EXTRACT: note_on channel=9 note=39 velocity=95 time=0
EXTRACT: note_on channel=3 note=63 velocity=47 time=0.033482125
EXTRACT: note_on channel=3 note=59 velocity=95 time=0
EXTRACT: note_off channel=0 note=66 velocity=95 time=0.234374875
EXTRACT: note_on channel=0 note=59 velocity=95 time=0
EXTRACT: note_on channel=7 note=33 velocity=95 time=0
EXTRACT: note_on channel=8 note=23 velocity=95 time=0
EXTRACT: note_on channel=10 note=40 velocity=95 time=0
EXTRACT: note_off channel=9 note=28 velocity=95 time=0
EXTRACT: note_off channel=9 note=39 velocity=95 time=0
EXTRACT: note_on channel=9 note=36 velocity=95 time=0
EXTRACT: note_off channel=10 note=40 velocity=95 time=0.06696425
EXTRACT: note_off channel=0 note=59 velocity=95 time=0.20089275
EXTRACT: note_on channel=0 note=58 velocity=70 time=0
EXTRACT: note_off channel=1 note=71 velocity=95 time=0
EXTRACT: note_off channel=1 note=66 velocity=95 time=0
EXTRACT: note_off channel=1 note=63 velocity=95 time=0
EXTRACT: note_off channel=1 note=59 velocity=95 time=0
EXTRACT: note_on channel=1 note=70 velocity=95 time=0
EXTRACT: note_on channel=1 note=66 velocity=95 time=0
EXTRACT: note_on channel=1 note=63 velocity=95 time=0
EXTRACT: note_on channel=1 note=58 velocity=95 time=0
EXTRACT: note_off channel=4 note=63 velocity=47 time=0
EXTRACT: note_off channel=4 note=59 velocity=95 time=0
EXTRACT: note_on channel=4 note=61 velocity=47 time=0
EXTRACT: note_on channel=4 note=58 velocity=95 time=0
EXTRACT: note_off channel=9 note=36 velocity=95 time=0
EXTRACT: note_off channel=3 note=63 velocity=47 time=0.033482125
EXTRACT: note_off channel=3 note=59 velocity=95 time=0
EXTRACT: note_on channel=3 note=61 velocity=47 time=0
EXTRACT: note_on channel=3 note=58 velocity=95 time=0
EXTRACT: note_off channel=0 note=58 velocity=70 time=0.234374875
EXTRACT: note_on channel=0 note=63 velocity=95 time=0
EXTRACT: note_off channel=5 note=64 velocity=95 time=0
EXTRACT: note_off channel=5 note=59 velocity=95 time=0
EXTRACT: note_off channel=5 note=55 velocity=95 time=0
EXTRACT: note_off channel=5 note=50 velocity=95 time=0
EXTRACT: note_off channel=7 note=33 velocity=95 time=0
EXTRACT: note_on channel=7 note=33 velocity=95 time=0
EXTRACT: note_off channel=8 note=23 velocity=95 time=0
EXTRACT: note_on channel=8 note=23 velocity=95 time=0
EXTRACT: note_on channel=10 note=40 velocity=95 time=0
EXTRACT: note_on channel=9 note=36 velocity=95 time=0
EXTRACT: note_off channel=10 note=40 velocity=95 time=0.06696425
EXTRACT: note_off channel=0 note=63 velocity=95 time=0.20089275
EXTRACT: note_off channel=4 note=61 velocity=47 time=0
EXTRACT: note_off channel=4 note=58 velocity=95 time=0
EXTRACT: pitchwheel channel=4 pitch=0 time=0
EXTRACT: note_on channel=4 note=62 velocity=95 time=0
EXTRACT: note_on channel=5 note=64 velocity=95 time=0
EXTRACT: note_on channel=5 note=59 velocity=95 time=0
EXTRACT: note_on channel=5 note=55 velocity=95 time=0
EXTRACT: note_on channel=5 note=50 velocity=95 time=0
EXTRACT: note_off channel=7 note=33 velocity=95 time=0
EXTRACT: note_off channel=9 note=36 velocity=95 time=0
EXTRACT: note_on channel=9 note=28 velocity=95 time=0
EXTRACT: note_on channel=9 note=39 velocity=95 time=0
EXTRACT: note_off channel=3 note=61 velocity=47 time=0.033482125
EXTRACT: note_off channel=3 note=58 velocity=95 time=0
EXTRACT: pitchwheel channel=3 pitch=0 time=0
EXTRACT: note_on channel=3 note=63 velocity=95 time=0
EXTRACT: pitchwheel channel=4 pitch=128 time=0.013392850000000001
EXTRACT: pitchwheel channel=3 pitch=128 time=0.033482125
EXTRACT: pitchwheel channel=4 pitch=256 time=0.013392850000000001
EXTRACT: pitchwheel channel=3 pitch=256 time=0.033482125
EXTRACT: pitchwheel channel=4 pitch=384 time=0.013392850000000001
EXTRACT: pitchwheel channel=3 pitch=384 time=0.033482125
EXTRACT: pitchwheel channel=4 pitch=512 time=0.013392850000000001
EXTRACT: pitchwheel channel=3 pitch=512 time=0.033482125
EXTRACT: pitchwheel channel=4 pitch=640 time=0.013392850000000001
EXTRACT: pitchwheel channel=4 pitch=640 time=0
EXTRACT: pitchwheel channel=4 pitch=0 time=0
EXTRACT: note_off channel=4 note=62 velocity=95 time=0
EXTRACT: note_on channel=0 note=58 velocity=95 time=0.033482125
EXTRACT: pitchwheel channel=3 pitch=640 time=0
EXTRACT: pitchwheel channel=3 pitch=640 time=0
EXTRACT: pitchwheel channel=3 pitch=0 time=0
EXTRACT: note_off channel=3 note=63 velocity=95 time=0
EXTRACT: pitchwheel channel=4 pitch=0 time=0
EXTRACT: note_on channel=4 note=63 velocity=95 time=0
EXTRACT: note_off channel=8 note=23 velocity=95 time=0
EXTRACT: pitchwheel channel=4 pitch=128 time=0.023995522916666668
EXTRACT: pitchwheel channel=3 pitch=0 time=0.009486602083333334
EXTRACT: note_on channel=3 note=64 velocity=95 time=0
EXTRACT: pitchwheel channel=4 pitch=256 time=0.014508920833333334
EXTRACT: pitchwheel channel=3 pitch=128 time=0.009486602083333334
EXTRACT: pitchwheel channel=4 pitch=384 time=0.014508920833333334
EXTRACT: pitchwheel channel=3 pitch=256 time=0.009486602083333334
EXTRACT: pitchwheel channel=4 pitch=512 time=0.014508920833333334
EXTRACT: pitchwheel channel=3 pitch=384 time=0.009486602083333334
EXTRACT: pitchwheel channel=4 pitch=640 time=0.014508920833333334
EXTRACT: pitchwheel channel=3 pitch=512 time=0.009486602083333334
EXTRACT: pitchwheel channel=4 pitch=768 time=0.014508920833333334
EXTRACT: pitchwheel channel=3 pitch=640 time=0.009486602083333334
EXTRACT: pitchwheel channel=4 pitch=896 time=0.014508920833333334
EXTRACT: pitchwheel channel=3 pitch=768 time=0.009486602083333334
EXTRACT: pitchwheel channel=4 pitch=1024 time=0.014508920833333334
EXTRACT: pitchwheel channel=3 pitch=896 time=0.009486602083333334
EXTRACT: pitchwheel channel=4 pitch=1152 time=0.014508920833333334
EXTRACT: pitchwheel channel=3 pitch=1024 time=0.009486602083333334
EXTRACT: pitchwheel channel=4 pitch=1280 time=0.014508920833333334
EXTRACT: pitchwheel channel=3 pitch=1152 time=0.009486602083333334
EXTRACT: pitchwheel channel=4 pitch=1408 time=0.014508920833333334
EXTRACT: note_off channel=0 note=58 velocity=95 time=0.003906247916666667
EXTRACT: note_on channel=0 note=59 velocity=70 time=0
EXTRACT: note_off channel=1 note=70 velocity=95 time=0
EXTRACT: note_off channel=1 note=66 velocity=95 time=0
EXTRACT: note_off channel=1 note=63 velocity=95 time=0
EXTRACT: note_off channel=1 note=58 velocity=95 time=0
EXTRACT: note_on channel=1 note=71 velocity=95 time=0
EXTRACT: note_on channel=1 note=66 velocity=95 time=0
EXTRACT: note_on channel=1 note=63 velocity=95 time=0
EXTRACT: note_on channel=1 note=59 velocity=95 time=0
EXTRACT: pitchwheel channel=4 pitch=1408 time=0
EXTRACT: pitchwheel channel=4 pitch=0 time=0
EXTRACT: note_off channel=4 note=63 velocity=95 time=0
EXTRACT: pitchwheel channel=4 pitch=0 time=0
EXTRACT: note_on channel=4 note=59 velocity=95 time=0
EXTRACT: note_on channel=7 note=33 velocity=95 time=0
EXTRACT: note_on channel=8 note=23 velocity=95 time=0
EXTRACT: note_on channel=10 note=40 velocity=95 time=0
EXTRACT: note_off channel=9 note=28 velocity=95 time=0
EXTRACT: note_off channel=9 note=39 velocity=95 time=0
EXTRACT: note_on channel=9 note=36 velocity=95 time=0
EXTRACT: pitchwheel channel=3 pitch=1280 time=0.005580354166666667
EXTRACT: pitchwheel channel=4 pitch=-128 time=0.012276779166666666
EXTRACT: pitchwheel channel=3 pitch=1408 time=0.01171874375
EXTRACT: pitchwheel channel=3 pitch=1408 time=0.003906247916666667
EXTRACT: pitchwheel channel=3 pitch=0 time=0
EXTRACT: note_off channel=3 note=64 velocity=95 time=0
EXTRACT: pitchwheel channel=3 pitch=0 time=0
EXTRACT: note_on channel=3 note=60 velocity=95 time=0
EXTRACT: pitchwheel channel=4 pitch=-256 time=0.0022321416666666667
EXTRACT: pitchwheel channel=3 pitch=-128 time=0.015624991666666668
EXTRACT: pitchwheel channel=4 pitch=-384 time=0.0022321416666666667
EXTRACT: note_off channel=10 note=40 velocity=95 time=0.013392850000000001
EXTRACT: pitchwheel channel=3 pitch=-256 time=0.0022321416666666667
EXTRACT: pitchwheel channel=4 pitch=-512 time=0.0022321416666666667
EXTRACT: pitchwheel channel=3 pitch=-384 time=0.015624991666666668
EXTRACT: pitchwheel channel=4 pitch=-640 time=0.0022321416666666667
EXTRACT: pitchwheel channel=3 pitch=-512 time=0.015624991666666668
EXTRACT: pitchwheel channel=4 pitch=-768 time=0.0022321416666666667
EXTRACT: pitchwheel channel=3 pitch=-640 time=0.015624991666666668
EXTRACT: pitchwheel channel=4 pitch=-896 time=0.0022321416666666667
EXTRACT: pitchwheel channel=3 pitch=-768 time=0.015624991666666668
EXTRACT: pitchwheel channel=4 pitch=-1024 time=0.0022321416666666667
EXTRACT: pitchwheel channel=3 pitch=-896 time=0.015624991666666668
EXTRACT: pitchwheel channel=4 pitch=-1152 time=0.0022321416666666667
EXTRACT: pitchwheel channel=3 pitch=-1024 time=0.015624991666666668
EXTRACT: pitchwheel channel=4 pitch=-1280 time=0.0022321416666666667
EXTRACT: pitchwheel channel=3 pitch=-1152 time=0.015624991666666668
EXTRACT: pitchwheel channel=4 pitch=-1408 time=0.0022321416666666667
EXTRACT: pitchwheel channel=4 pitch=-1408 time=0.0044642833333333335
EXTRACT: pitchwheel channel=4 pitch=0 time=0
EXTRACT: note_off channel=4 note=59 velocity=95 time=0
EXTRACT: pitchwheel channel=3 pitch=-1280 time=0.011160708333333333
EXTRACT: pitchwheel channel=3 pitch=-1408 time=0.017857133333333334
EXTRACT: pitchwheel channel=3 pitch=-1408 time=0.0044642833333333335
EXTRACT: pitchwheel channel=3 pitch=0 time=0
EXTRACT: note_off channel=3 note=60 velocity=95 time=0
EXTRACT: note_off channel=0 note=59 velocity=70 time=0.033482125
EXTRACT: note_on channel=0 note=63 velocity=95 time=0
EXTRACT: note_off channel=5 note=64 velocity=95 time=0
EXTRACT: note_off channel=5 note=59 velocity=95 time=0
EXTRACT: note_off channel=5 note=55 velocity=95 time=0
EXTRACT: note_off channel=5 note=50 velocity=95 time=0
EXTRACT: note_off channel=0 note=63 velocity=95 time=0.267857
EXTRACT: note_on channel=0 note=66 velocity=95 time=0
EXTRACT: pitchwheel channel=4 pitch=0 time=0
EXTRACT: note_on channel=4 note=62 velocity=95 time=0
EXTRACT: note_on channel=5 note=64 velocity=95 time=0
EXTRACT: note_on channel=5 note=59 velocity=95 time=0
EXTRACT: note_on channel=5 note=55 velocity=95 time=0
EXTRACT: note_on channel=5 note=50 velocity=95 time=0
EXTRACT: note_off channel=7 note=33 velocity=95 time=0
EXTRACT: note_off channel=8 note=23 velocity=95 time=0
EXTRACT: note_off channel=9 note=36 velocity=95 time=0
EXTRACT: note_on channel=9 note=28 velocity=95 time=0
EXTRACT: note_on channel=9 note=39 velocity=95 time=0
EXTRACT: pitchwheel channel=3 pitch=0 time=0.033482125
EXTRACT: note_on channel=3 note=63 velocity=95 time=0
EXTRACT: pitchwheel channel=4 pitch=128 time=0.013392850000000001
EXTRACT: pitchwheel channel=3 pitch=128 time=0.033482125
EXTRACT: pitchwheel channel=4 pitch=256 time=0.013392850000000001
EXTRACT: pitchwheel channel=3 pitch=256 time=0.033482125
EXTRACT: pitchwheel channel=4 pitch=384 time=0.013392850000000001
EXTRACT: pitchwheel channel=3 pitch=384 time=0.033482125
EXTRACT: pitchwheel channel=4 pitch=512 time=0.013392850000000001
EXTRACT: pitchwheel channel=3 pitch=512 time=0.033482125
EXTRACT: pitchwheel channel=4 pitch=640 time=0.013392850000000001
EXTRACT: pitchwheel channel=4 pitch=640 time=0
EXTRACT: pitchwheel channel=4 pitch=0 time=0
EXTRACT: note_off channel=4 note=62 velocity=95 time=0
EXTRACT: note_off channel=0 note=66 velocity=95 time=0.033482125
EXTRACT: note_on channel=0 note=59 velocity=95 time=0
EXTRACT: pitchwheel channel=3 pitch=640 time=0
EXTRACT: pitchwheel channel=3 pitch=640 time=0
EXTRACT: pitchwheel channel=3 pitch=0 time=0
EXTRACT: note_off channel=3 note=63 velocity=95 time=0
EXTRACT: pitchwheel channel=4 pitch=0 time=0
EXTRACT: note_on channel=4 note=63 velocity=95 time=0
EXTRACT: note_on channel=7 note=33 velocity=95 time=0
EXTRACT: note_on channel=8 note=23 velocity=95 time=0
EXTRACT: note_on channel=10 note=40 velocity=95 time=0
EXTRACT: note_off channel=9 note=28 velocity=95 time=0
EXTRACT: note_off channel=9 note=39 velocity=95 time=0
EXTRACT: note_on channel=9 note=36 velocity=95 time=0
EXTRACT: pitchwheel channel=4 pitch=128 time=0.023995522916666668
EXTRACT: pitchwheel channel=3 pitch=0 time=0.009486602083333334
EXTRACT: note_on channel=3 note=64 velocity=95 time=0
EXTRACT: pitchwheel channel=4 pitch=256 time=0.014508920833333334
EXTRACT: pitchwheel channel=3 pitch=128 time=0.009486602083333334
EXTRACT: note_off channel=10 note=40 velocity=95 time=0.009486602083333334
EXTRACT: pitchwheel channel=4 pitch=384 time=0.00502231875
EXTRACT: pitchwheel channel=3 pitch=256 time=0.009486602083333334
EXTRACT: pitchwheel channel=4 pitch=512 time=0.014508920833333334
EXTRACT: pitchwheel channel=3 pitch=384 time=0.009486602083333334
EXTRACT: pitchwheel channel=4 pitch=640 time=0.014508920833333334
EXTRACT: pitchwheel channel=3 pitch=512 time=0.009486602083333334
EXTRACT: pitchwheel channel=4 pitch=768 time=0.014508920833333334
EXTRACT: pitchwheel channel=3 pitch=640 time=0.009486602083333334
EXTRACT: pitchwheel channel=4 pitch=896 time=0.014508920833333334
EXTRACT: pitchwheel channel=3 pitch=768 time=0.009486602083333334
EXTRACT: pitchwheel channel=4 pitch=1024 time=0.014508920833333334
EXTRACT: pitchwheel channel=3 pitch=896 time=0.009486602083333334
EXTRACT: pitchwheel channel=4 pitch=1152 time=0.014508920833333334
EXTRACT: pitchwheel channel=3 pitch=1024 time=0.009486602083333334
EXTRACT: pitchwheel channel=4 pitch=1280 time=0.014508920833333334
EXTRACT: pitchwheel channel=3 pitch=1152 time=0.009486602083333334
EXTRACT: pitchwheel channel=4 pitch=1408 time=0.014508920833333334
EXTRACT: note_off channel=0 note=59 velocity=95 time=0.003906247916666667
EXTRACT: note_on channel=0 note=58 velocity=70 time=0
EXTRACT: note_off channel=1 note=71 velocity=95 time=0
EXTRACT: note_off channel=1 note=66 velocity=95 time=0
EXTRACT: note_off channel=1 note=63 velocity=95 time=0
EXTRACT: note_off channel=1 note=59 velocity=95 time=0
EXTRACT: note_on channel=1 note=70 velocity=95 time=0
EXTRACT: note_on channel=1 note=66 velocity=95 time=0
EXTRACT: note_on channel=1 note=63 velocity=95 time=0
EXTRACT: note_on channel=1 note=58 velocity=95 time=0
EXTRACT: pitchwheel channel=4 pitch=1408 time=0
EXTRACT: pitchwheel channel=4 pitch=0 time=0
EXTRACT: note_off channel=4 note=63 velocity=95 time=0
EXTRACT: pitchwheel channel=4 pitch=0 time=0
EXTRACT: note_on channel=4 note=59 velocity=95 time=0
EXTRACT: pitchwheel channel=6 pitch=0 time=0
EXTRACT: note_on channel=6 note=53 velocity=95 time=0
EXTRACT: pitchwheel channel=6 pitch=0 time=0
EXTRACT: note_on channel=6 note=53 velocity=95 time=0
EXTRACT: note_off channel=9 note=36 velocity=95 time=0
EXTRACT: pitchwheel channel=3 pitch=1280 time=0.005580354166666667
EXTRACT: pitchwheel channel=6 pitch=-128 time=0.010602672916666667
EXTRACT: pitchwheel channel=6 pitch=-128 time=0
EXTRACT: pitchwheel channel=4 pitch=-128 time=0.0016741062500000002
EXTRACT: pitchwheel channel=3 pitch=1408 time=0.01171874375
EXTRACT: pitchwheel channel=6 pitch=-256 time=0.0027901770833333333
EXTRACT: pitchwheel channel=6 pitch=-256 time=0
EXTRACT: pitchwheel channel=3 pitch=1408 time=0.0011160708333333334
EXTRACT: pitchwheel channel=3 pitch=0 time=0
EXTRACT: note_off channel=3 note=64 velocity=95 time=0
EXTRACT: pitchwheel channel=3 pitch=0 time=0
EXTRACT: note_on channel=3 note=60 velocity=95 time=0
EXTRACT: pitchwheel channel=4 pitch=-256 time=0.0022321416666666667
EXTRACT: pitchwheel channel=6 pitch=-384 time=0.012834814583333333
EXTRACT: pitchwheel channel=6 pitch=-384 time=0
EXTRACT: pitchwheel channel=3 pitch=-128 time=0.0027901770833333333
EXTRACT: pitchwheel channel=4 pitch=-384 time=0.0022321416666666667
EXTRACT: pitchwheel channel=6 pitch=-512 time=0.011160708333333333
EXTRACT: pitchwheel channel=6 pitch=-512 time=0
EXTRACT: pitchwheel channel=3 pitch=-256 time=0.0044642833333333335
EXTRACT: pitchwheel channel=4 pitch=-512 time=0.0022321416666666667
EXTRACT: pitchwheel channel=6 pitch=-640 time=0.009486602083333334
EXTRACT: pitchwheel channel=6 pitch=-640 time=0
EXTRACT: pitchwheel channel=3 pitch=-384 time=0.006138389583333333
EXTRACT: pitchwheel channel=4 pitch=-640 time=0.0022321416666666667
EXTRACT: pitchwheel channel=6 pitch=-768 time=0.007812495833333334
EXTRACT: pitchwheel channel=6 pitch=-768 time=0
EXTRACT: pitchwheel channel=3 pitch=-512 time=0.007812495833333334
EXTRACT: pitchwheel channel=4 pitch=-768 time=0.0022321416666666667
EXTRACT: pitchwheel channel=6 pitch=-896 time=0.006138389583333333
EXTRACT: pitchwheel channel=6 pitch=-896 time=0
EXTRACT: pitchwheel channel=3 pitch=-640 time=0.009486602083333334
EXTRACT: pitchwheel channel=4 pitch=-896 time=0.0022321416666666667
EXTRACT: pitchwheel channel=6 pitch=-1024 time=0.0044642833333333335
EXTRACT: pitchwheel channel=6 pitch=-1024 time=0
EXTRACT: pitchwheel channel=3 pitch=-768 time=0.011160708333333333
EXTRACT: pitchwheel channel=4 pitch=-1024 time=0.0022321416666666667
EXTRACT: pitchwheel channel=6 pitch=-1152 time=0.0027901770833333333
EXTRACT: pitchwheel channel=6 pitch=-1152 time=0
EXTRACT: pitchwheel channel=3 pitch=-896 time=0.012834814583333333
EXTRACT: pitchwheel channel=4 pitch=-1152 time=0.0022321416666666667
EXTRACT: pitchwheel channel=6 pitch=-1280 time=0.0011160708333333334
EXTRACT: pitchwheel channel=6 pitch=-1280 time=0
EXTRACT: pitchwheel channel=3 pitch=-1024 time=0.014508920833333334
EXTRACT: pitchwheel channel=6 pitch=-1408 time=0.0016741062500000002
EXTRACT: pitchwheel channel=6 pitch=-1408 time=0
EXTRACT: pitchwheel channel=4 pitch=-1280 time=0.0005580354166666667
EXTRACT: pitchwheel channel=3 pitch=-1152 time=0.015624991666666668
EXTRACT: pitchwheel channel=6 pitch=-1536 time=0
EXTRACT: pitchwheel channel=6 pitch=-1536 time=0
EXTRACT: pitchwheel channel=4 pitch=-1408 time=0.0022321416666666667
EXTRACT: pitchwheel channel=4 pitch=-1408 time=0.0044642833333333335
EXTRACT: pitchwheel channel=4 pitch=0 time=0
EXTRACT: note_off channel=4 note=59 velocity=95 time=0
EXTRACT: pitchwheel channel=6 pitch=-1664 time=0.009486602083333334
EXTRACT: pitchwheel channel=6 pitch=-1664 time=0
EXTRACT: pitchwheel channel=3 pitch=-1280 time=0.0016741062500000002
EXTRACT: pitchwheel channel=6 pitch=-1792 time=0.014508920833333334
EXTRACT: pitchwheel channel=6 pitch=-1792 time=0
EXTRACT: pitchwheel channel=3 pitch=-1408 time=0.0033482125000000003
EXTRACT: pitchwheel channel=3 pitch=-1408 time=0.0044642833333333335
EXTRACT: pitchwheel channel=3 pitch=0 time=0
EXTRACT: note_off channel=3 note=60 velocity=95 time=0
EXTRACT: pitchwheel channel=6 pitch=-1920 time=0.00837053125
EXTRACT: pitchwheel channel=6 pitch=-1920 time=0
EXTRACT: pitchwheel channel=6 pitch=-2048 time=0.016183027083333332
EXTRACT: pitchwheel channel=6 pitch=-2048 time=0
EXTRACT: note_off channel=0 note=58 velocity=70 time=0.008928566666666667
EXTRACT: note_on channel=0 note=63 velocity=95 time=0
EXTRACT: note_off channel=5 note=64 velocity=95 time=0
EXTRACT: note_off channel=5 note=59 velocity=95 time=0
EXTRACT: note_off channel=5 note=55 velocity=95 time=0
EXTRACT: note_off channel=5 note=50 velocity=95 time=0
EXTRACT: note_off channel=7 note=33 velocity=95 time=0
EXTRACT: note_on channel=7 note=33 velocity=95 time=0
EXTRACT: note_off channel=8 note=23 velocity=95 time=0
EXTRACT: note_on channel=8 note=23 velocity=95 time=0
EXTRACT: note_on channel=10 note=40 velocity=95 time=0
EXTRACT: note_on channel=9 note=36 velocity=95 time=0
EXTRACT: pitchwheel channel=6 pitch=-2176 time=0.007254460416666667
EXTRACT: pitchwheel channel=6 pitch=-2176 time=0
EXTRACT: pitchwheel channel=6 pitch=-2304 time=0.016183027083333332
EXTRACT: pitchwheel channel=6 pitch=-2304 time=0
EXTRACT: pitchwheel channel=6 pitch=-2432 time=0.016183027083333332
EXTRACT: pitchwheel channel=6 pitch=-2432 time=0
EXTRACT: pitchwheel channel=6 pitch=-2560 time=0.016183027083333332
EXTRACT: pitchwheel channel=6 pitch=-2560 time=0
EXTRACT: note_off channel=10 note=40 velocity=95 time=0.011160708333333333
EXTRACT: pitchwheel channel=6 pitch=-2688 time=0.00502231875
EXTRACT: pitchwheel channel=6 pitch=-2688 time=0
EXTRACT: pitchwheel channel=6 pitch=-2816 time=0.016183027083333332
EXTRACT: pitchwheel channel=6 pitch=-2816 time=0
EXTRACT: pitchwheel channel=6 pitch=-2944 time=0.016183027083333332
EXTRACT: pitchwheel channel=6 pitch=-2944 time=0
EXTRACT: pitchwheel channel=6 pitch=-3072 time=0.016183027083333332
EXTRACT: pitchwheel channel=6 pitch=-3072 time=0
EXTRACT: pitchwheel channel=6 pitch=-3200 time=0.016183027083333332
EXTRACT: pitchwheel channel=6 pitch=-3200 time=0
EXTRACT: pitchwheel channel=6 pitch=-3328 time=0.016183027083333332
EXTRACT: pitchwheel channel=6 pitch=-3328 time=0
EXTRACT: pitchwheel channel=6 pitch=-3456 time=0.016183027083333332
EXTRACT: pitchwheel channel=6 pitch=-3456 time=0
EXTRACT: pitchwheel channel=6 pitch=-3584 time=0.016183027083333332
EXTRACT: pitchwheel channel=6 pitch=-3584 time=0
EXTRACT: pitchwheel channel=6 pitch=-3712 time=0.016183027083333332
EXTRACT: pitchwheel channel=6 pitch=-3712 time=0
EXTRACT: pitchwheel channel=6 pitch=-3840 time=0.016183027083333332
EXTRACT: pitchwheel channel=6 pitch=-3840 time=0
EXTRACT: pitchwheel channel=6 pitch=-3968 time=0.016183027083333332
EXTRACT: pitchwheel channel=6 pitch=-3968 time=0
EXTRACT: pitchwheel channel=6 pitch=-4096 time=0.016183027083333332
EXTRACT: pitchwheel channel=6 pitch=-4096 time=0
EXTRACT: pitchwheel channel=6 pitch=-4224 time=0.016183027083333332
EXTRACT: pitchwheel channel=6 pitch=-4224 time=0
EXTRACT: note_off channel=0 note=63 velocity=95 time=0.0016741062500000002
EXTRACT: note_on channel=5 note=64 velocity=95 time=0
EXTRACT: note_on channel=5 note=59 velocity=95 time=0
EXTRACT: note_on channel=5 note=55 velocity=95 time=0
EXTRACT: note_on channel=5 note=50 velocity=95 time=0
EXTRACT: note_off channel=7 note=33 velocity=95 time=0
EXTRACT: note_off channel=9 note=36 velocity=95 time=0
EXTRACT: note_on channel=9 note=28 velocity=95 time=0
EXTRACT: note_on channel=9 note=39 velocity=95 time=0
EXTRACT: pitchwheel channel=6 pitch=-4352 time=0.014508920833333334
EXTRACT: pitchwheel channel=6 pitch=-4352 time=0
EXTRACT: pitchwheel channel=6 pitch=-4480 time=0.016183027083333332
EXTRACT: pitchwheel channel=6 pitch=-4480 time=0
EXTRACT: pitchwheel channel=6 pitch=-4608 time=0.016183027083333332
EXTRACT: pitchwheel channel=6 pitch=-4608 time=0
EXTRACT: pitchwheel channel=6 pitch=-4736 time=0.016183027083333332
EXTRACT: pitchwheel channel=6 pitch=-4736 time=0
EXTRACT: pitchwheel channel=6 pitch=-4864 time=0.016183027083333332
EXTRACT: pitchwheel channel=6 pitch=-4864 time=0
EXTRACT: pitchwheel channel=6 pitch=-4992 time=0.016183027083333332
EXTRACT: pitchwheel channel=6 pitch=-4992 time=0
EXTRACT: pitchwheel channel=6 pitch=-5120 time=0.016183027083333332
EXTRACT: pitchwheel channel=6 pitch=-5120 time=0
EXTRACT: pitchwheel channel=6 pitch=-5248 time=0.016183027083333332
EXTRACT: pitchwheel channel=6 pitch=-5248 time=0
EXTRACT: pitchwheel channel=6 pitch=-5376 time=0.016183027083333332
EXTRACT: pitchwheel channel=6 pitch=-5376 time=0
EXTRACT: pitchwheel channel=6 pitch=-5504 time=0.016183027083333332
EXTRACT: pitchwheel channel=6 pitch=-5504 time=0
EXTRACT: pitchwheel channel=6 pitch=-5632 time=0.016183027083333332
EXTRACT: pitchwheel channel=6 pitch=-5632 time=0
EXTRACT: pitchwheel channel=6 pitch=-5760 time=0.016183027083333332
EXTRACT: pitchwheel channel=6 pitch=-5760 time=0
EXTRACT: pitchwheel channel=6 pitch=-5888 time=0.016183027083333332
EXTRACT: pitchwheel channel=6 pitch=-5888 time=0
EXTRACT: pitchwheel channel=6 pitch=-6016 time=0.016183027083333332
EXTRACT: pitchwheel channel=6 pitch=-6016 time=0
EXTRACT: pitchwheel channel=6 pitch=-6144 time=0.016183027083333332
EXTRACT: pitchwheel channel=6 pitch=-6144 time=0
EXTRACT: pitchwheel channel=6 pitch=-6272 time=0.016183027083333332
EXTRACT: pitchwheel channel=6 pitch=-6272 time=0
EXTRACT: note_off channel=8 note=23 velocity=95 time=0.010602672916666667
EXTRACT: pitchwheel channel=6 pitch=-6400 time=0.005580354166666667
EXTRACT: pitchwheel channel=6 pitch=-6400 time=0
EXTRACT: pitchwheel channel=6 pitch=-6528 time=0.016183027083333332
EXTRACT: pitchwheel channel=6 pitch=-6528 time=0
EXTRACT: pitchwheel channel=6 pitch=-6656 time=0.016183027083333332
EXTRACT: pitchwheel channel=6 pitch=-6656 time=0
EXTRACT: pitchwheel channel=6 pitch=-6784 time=0.016183027083333332
EXTRACT: pitchwheel channel=6 pitch=-6784 time=0
EXTRACT: pitchwheel channel=6 pitch=-6912 time=0.016183027083333332
EXTRACT: pitchwheel channel=6 pitch=-6912 time=0
EXTRACT: pitchwheel channel=6 pitch=-7040 time=0.016183027083333332
EXTRACT: pitchwheel channel=6 pitch=-7040 time=0
EXTRACT: pitchwheel channel=6 pitch=-7168 time=0.016183027083333332
EXTRACT: pitchwheel channel=6 pitch=-7168 time=0
EXTRACT: pitchwheel channel=6 pitch=-7296 time=0.016183027083333332
EXTRACT: pitchwheel channel=6 pitch=-7296 time=0
EXTRACT: note_on channel=3 note=58 velocity=95 time=0.015066956250000001
EXTRACT: pitchwheel channel=6 pitch=-7424 time=0.0011160708333333334
EXTRACT: pitchwheel channel=6 pitch=-7424 time=0
EXTRACT: pitchwheel channel=6 pitch=-7552 time=0.016183027083333332
EXTRACT: pitchwheel channel=6 pitch=-7552 time=0
EXTRACT: pitchwheel channel=6 pitch=-7680 time=0.016183027083333332
EXTRACT: pitchwheel channel=6 pitch=-7680 time=0
EXTRACT: pitchwheel channel=6 pitch=-7808 time=0.016183027083333332
EXTRACT: pitchwheel channel=6 pitch=-7808 time=0
EXTRACT: pitchwheel channel=6 pitch=-7936 time=0.016183027083333332
EXTRACT: pitchwheel channel=6 pitch=-7936 time=0
EXTRACT: pitchwheel channel=6 pitch=-8064 time=0.016183027083333332
EXTRACT: pitchwheel channel=6 pitch=-8064 time=0
EXTRACT: pitchwheel channel=6 pitch=-8192 time=0.016183027083333332
EXTRACT: pitchwheel channel=6 pitch=-8192 time=0
EXTRACT: pitchwheel channel=6 pitch=-8192 time=0.016183027083333332
EXTRACT: pitchwheel channel=6 pitch=-8192 time=0
EXTRACT: pitchwheel channel=6 pitch=-8192 time=0.016183027083333332
EXTRACT: pitchwheel channel=6 pitch=-8192 time=0
EXTRACT: note_off channel=1 note=70 velocity=95 time=0.0033482125000000003
EXTRACT: note_off channel=1 note=66 velocity=95 time=0
EXTRACT: note_off channel=1 note=63 velocity=95 time=0
EXTRACT: note_off channel=1 note=58 velocity=95 time=0
EXTRACT: note_off channel=3 note=58 velocity=95 time=0
EXTRACT: note_on channel=3 note=61 velocity=95 time=0
EXTRACT: pitchwheel channel=6 pitch=-8192 time=0
EXTRACT: pitchwheel channel=6 pitch=0 time=0
EXTRACT: note_off channel=6 note=53 velocity=95 time=0
EXTRACT: pitchwheel channel=6 pitch=-8192 time=0
EXTRACT: pitchwheel channel=6 pitch=0 time=0
EXTRACT: note_off channel=6 note=53 velocity=95 time=0
EXTRACT: note_on channel=7 note=33 velocity=95 time=0
EXTRACT: note_on channel=8 note=23 velocity=95 time=0
EXTRACT: note_on channel=10 note=40 velocity=95 time=0
EXTRACT: note_off channel=9 note=28 velocity=95 time=0
EXTRACT: note_off channel=9 note=39 velocity=95 time=0
EXTRACT: note_on channel=9 note=36 velocity=95 time=0
EXTRACT: note_off channel=10 note=40 velocity=95 time=0.06696425
EXTRACT: note_off channel=3 note=61 velocity=95 time=0.20089275
EXTRACT: note_on channel=3 note=63 velocity=95 time=0
EXTRACT: note_off channel=5 note=64 velocity=95 time=0
EXTRACT: note_off channel=5 note=59 velocity=95 time=0
EXTRACT: note_off channel=5 note=55 velocity=95 time=0
EXTRACT: note_off channel=5 note=50 velocity=95 time=0
EXTRACT: note_off channel=3 note=63 velocity=95 time=0.267857
EXTRACT: note_on channel=3 note=63 velocity=95 time=0
EXTRACT: note_on channel=5 note=64 velocity=95 time=0
EXTRACT: note_on channel=5 note=59 velocity=95 time=0
EXTRACT: note_on channel=5 note=55 velocity=95 time=0
EXTRACT: note_on channel=5 note=50 velocity=95 time=0
EXTRACT: note_off channel=7 note=33 velocity=95 time=0
EXTRACT: note_off channel=8 note=23 velocity=95 time=0
EXTRACT: note_off channel=9 note=36 velocity=95 time=0
EXTRACT: note_on channel=9 note=28 velocity=95 time=0
EXTRACT: note_on channel=9 note=39 velocity=95 time=0
EXTRACT: note_off channel=3 note=63 velocity=95 time=0.267857
EXTRACT: note_on channel=3 note=63 velocity=95 time=0
EXTRACT: note_on channel=7 note=33 velocity=95 time=0
EXTRACT: note_on channel=8 note=23 velocity=95 time=0
EXTRACT: note_on channel=10 note=40 velocity=95 time=0
EXTRACT: note_off channel=9 note=28 velocity=95 time=0
EXTRACT: note_off channel=9 note=39 velocity=95 time=0
EXTRACT: note_on channel=9 note=36 velocity=95 time=0
EXTRACT: note_off channel=10 note=40 velocity=95 time=0.06696425
EXTRACT: note_off channel=3 note=63 velocity=95 time=0.20089275
EXTRACT: note_on channel=3 note=61 velocity=95 time=0
EXTRACT: note_off channel=9 note=36 velocity=95 time=0
EXTRACT: note_off channel=3 note=61 velocity=95 time=0.267857
EXTRACT: note_on channel=3 note=63 velocity=95 time=0
EXTRACT: note_off channel=5 note=64 velocity=95 time=0
EXTRACT: note_off channel=5 note=59 velocity=95 time=0
EXTRACT: note_off channel=5 note=55 velocity=95 time=0
EXTRACT: note_off channel=5 note=50 velocity=95 time=0
EXTRACT: note_off channel=7 note=33 velocity=95 time=0
EXTRACT: note_on channel=7 note=33 velocity=95 time=0
EXTRACT: note_off channel=8 note=23 velocity=95 time=0
EXTRACT: note_on channel=8 note=23 velocity=95 time=0
EXTRACT: note_on channel=10 note=40 velocity=95 time=0
EXTRACT: note_on channel=9 note=36 velocity=95 time=0
EXTRACT: note_off channel=10 note=40 velocity=95 time=0.06696425
EXTRACT: note_off channel=3 note=63 velocity=95 time=0.20089275
EXTRACT: note_on channel=3 note=63 velocity=95 time=0
EXTRACT: note_on channel=5 note=64 velocity=95 time=0
EXTRACT: note_on channel=5 note=59 velocity=95 time=0
EXTRACT: note_on channel=5 note=55 velocity=95 time=0
EXTRACT: note_on channel=5 note=50 velocity=95 time=0
EXTRACT: note_off channel=7 note=33 velocity=95 time=0
EXTRACT: note_off channel=9 note=36 velocity=95 time=0
EXTRACT: note_on channel=9 note=28 velocity=95 time=0
EXTRACT: note_on channel=9 note=39 velocity=95 time=0
EXTRACT: note_off channel=3 note=63 velocity=95 time=0.20089275
EXTRACT: note_on channel=3 note=63 velocity=95 time=0.06696425
EXTRACT: note_off channel=8 note=23 velocity=95 time=0
EXTRACT: note_off channel=3 note=63 velocity=95 time=0.1339285
EXTRACT: note_on channel=3 note=63 velocity=95 time=0
EXTRACT: note_off channel=3 note=63 velocity=95 time=0.1339285
EXTRACT: note_on channel=3 note=61 velocity=95 time=0
EXTRACT: note_on channel=7 note=33 velocity=95 time=0
EXTRACT: note_on channel=8 note=23 velocity=95 time=0
EXTRACT: note_on channel=10 note=40 velocity=95 time=0
EXTRACT: note_off channel=9 note=28 velocity=95 time=0
EXTRACT: note_off channel=9 note=39 velocity=95 time=0
EXTRACT: note_on channel=9 note=36 velocity=95 time=0
EXTRACT: note_off channel=10 note=40 velocity=95 time=0.06696425
EXTRACT: note_off channel=3 note=61 velocity=95 time=0.20089275
EXTRACT: note_on channel=3 note=63 velocity=95 time=0
EXTRACT: note_off channel=5 note=64 velocity=95 time=0
EXTRACT: note_off channel=5 note=59 velocity=95 time=0
EXTRACT: note_off channel=5 note=55 velocity=95 time=0
EXTRACT: note_off channel=5 note=50 velocity=95 time=0
EXTRACT: note_off channel=3 note=63 velocity=95 time=0.267857
EXTRACT: note_on channel=3 note=63 velocity=95 time=0
EXTRACT: note_on channel=5 note=64 velocity=95 time=0
EXTRACT: note_on channel=5 note=59 velocity=95 time=0
EXTRACT: note_on channel=5 note=55 velocity=95 time=0
EXTRACT: note_on channel=5 note=50 velocity=95 time=0
EXTRACT: note_off channel=7 note=33 velocity=95 time=0
EXTRACT: note_off channel=8 note=23 velocity=95 time=0
EXTRACT: note_off channel=9 note=36 velocity=95 time=0
EXTRACT: note_on channel=9 note=28 velocity=95 time=0
EXTRACT: note_on channel=9 note=39 velocity=95 time=0
EXTRACT: note_on channel=7 note=33 velocity=95 time=0.1339285
EXTRACT: note_on channel=8 note=23 velocity=95 time=0
EXTRACT: note_on channel=10 note=40 velocity=95 time=0
EXTRACT: note_off channel=9 note=28 velocity=95 time=0
EXTRACT: note_off channel=9 note=39 velocity=95 time=0
EXTRACT: note_on channel=9 note=36 velocity=95 time=0
EXTRACT: note_off channel=10 note=40 velocity=95 time=0.06696425
EXTRACT: note_off channel=3 note=63 velocity=95 time=0.06696425
EXTRACT: note_on channel=3 note=63 velocity=95 time=0
EXTRACT: note_off channel=7 note=33 velocity=95 time=0
EXTRACT: note_on channel=7 note=33 velocity=95 time=0
EXTRACT: note_off channel=8 note=23 velocity=95 time=0
EXTRACT: note_on channel=8 note=23 velocity=95 time=0
EXTRACT: note_on channel=10 note=40 velocity=95 time=0
EXTRACT: note_off channel=9 note=36 velocity=95 time=0
EXTRACT: note_on channel=9 note=36 velocity=95 time=0
EXTRACT: note_off channel=10 note=40 velocity=95 time=0.06696425
EXTRACT: note_off channel=3 note=63 velocity=95 time=0.20089275
EXTRACT: note_on channel=3 note=63 velocity=95 time=0
EXTRACT: pitchwheel channel=6 pitch=0 time=0
EXTRACT: note_on channel=6 note=53 velocity=95 time=0
EXTRACT: pitchwheel channel=6 pitch=0 time=0
EXTRACT: note_on channel=6 note=53 velocity=95 time=0
EXTRACT: note_off channel=7 note=33 velocity=95 time=0
EXTRACT: note_off channel=9 note=36 velocity=95 time=0
EXTRACT: pitchwheel channel=6 pitch=-128 time=0.016183027083333332
EXTRACT: pitchwheel channel=6 pitch=-128 time=0
EXTRACT: pitchwheel channel=6 pitch=-256 time=0.016183027083333332
EXTRACT: pitchwheel channel=6 pitch=-256 time=0
EXTRACT: pitchwheel channel=6 pitch=-384 time=0.016183027083333332
EXTRACT: pitchwheel channel=6 pitch=-384 time=0
EXTRACT: pitchwheel channel=6 pitch=-512 time=0.016183027083333332
EXTRACT: pitchwheel channel=6 pitch=-512 time=0
EXTRACT: pitchwheel channel=6 pitch=-640 time=0.016183027083333332
EXTRACT: pitchwheel channel=6 pitch=-640 time=0
EXTRACT: pitchwheel channel=6 pitch=-768 time=0.016183027083333332
EXTRACT: pitchwheel channel=6 pitch=-768 time=0
EXTRACT: pitchwheel channel=6 pitch=-896 time=0.016183027083333332
EXTRACT: pitchwheel channel=6 pitch=-896 time=0
EXTRACT: pitchwheel channel=6 pitch=-1024 time=0.016183027083333332
EXTRACT: pitchwheel channel=6 pitch=-1024 time=0
EXTRACT: pitchwheel channel=6 pitch=-1152 time=0.016183027083333332
EXTRACT: pitchwheel channel=6 pitch=-1152 time=0
EXTRACT: pitchwheel channel=6 pitch=-1280 time=0.016183027083333332
EXTRACT: pitchwheel channel=6 pitch=-1280 time=0
EXTRACT: pitchwheel channel=6 pitch=-1408 time=0.016183027083333332
EXTRACT: pitchwheel channel=6 pitch=-1408 time=0
EXTRACT: pitchwheel channel=6 pitch=-1536 time=0.016183027083333332
EXTRACT: pitchwheel channel=6 pitch=-1536 time=0
EXTRACT: pitchwheel channel=6 pitch=-1664 time=0.016183027083333332
EXTRACT: pitchwheel channel=6 pitch=-1664 time=0
EXTRACT: pitchwheel channel=6 pitch=-1792 time=0.016183027083333332
EXTRACT: pitchwheel channel=6 pitch=-1792 time=0
EXTRACT: pitchwheel channel=6 pitch=-1920 time=0.016183027083333332
EXTRACT: pitchwheel channel=6 pitch=-1920 time=0
EXTRACT: pitchwheel channel=6 pitch=-2048 time=0.016183027083333332
EXTRACT: pitchwheel channel=6 pitch=-2048 time=0
EXTRACT: note_off channel=3 note=63 velocity=95 time=0.008928566666666667
EXTRACT: note_on channel=3 note=63 velocity=95 time=0
EXTRACT: note_off channel=5 note=64 velocity=95 time=0
EXTRACT: note_off channel=5 note=59 velocity=95 time=0
EXTRACT: note_off channel=5 note=55 velocity=95 time=0
EXTRACT: note_off channel=5 note=50 velocity=95 time=0
EXTRACT: note_on channel=7 note=33 velocity=95 time=0
EXTRACT: note_off channel=8 note=23 velocity=95 time=0
EXTRACT: note_on channel=8 note=23 velocity=95 time=0
EXTRACT: note_on channel=10 note=40 velocity=95 time=0
EXTRACT: note_on channel=9 note=36 velocity=95 time=0
EXTRACT: pitchwheel channel=6 pitch=-2176 time=0.007254460416666667
EXTRACT: pitchwheel channel=6 pitch=-2176 time=0
EXTRACT: pitchwheel channel=6 pitch=-2304 time=0.016183027083333332
EXTRACT: pitchwheel channel=6 pitch=-2304 time=0
EXTRACT: pitchwheel channel=6 pitch=-2432 time=0.016183027083333332
EXTRACT: pitchwheel channel=6 pitch=-2432 time=0
EXTRACT: pitchwheel channel=6 pitch=-2560 time=0.016183027083333332
EXTRACT: pitchwheel channel=6 pitch=-2560 time=0
EXTRACT: note_off channel=10 note=40 velocity=95 time=0.011160708333333333
EXTRACT: pitchwheel channel=6 pitch=-2688 time=0.00502231875
EXTRACT: pitchwheel channel=6 pitch=-2688 time=0
EXTRACT: pitchwheel channel=6 pitch=-2816 time=0.016183027083333332
EXTRACT: pitchwheel channel=6 pitch=-2816 time=0
EXTRACT: pitchwheel channel=6 pitch=-2944 time=0.016183027083333332
EXTRACT: pitchwheel channel=6 pitch=-2944 time=0
EXTRACT: pitchwheel channel=6 pitch=-3072 time=0.016183027083333332
EXTRACT: pitchwheel channel=6 pitch=-3072 time=0
EXTRACT: pitchwheel channel=6 pitch=-3200 time=0.016183027083333332
EXTRACT: pitchwheel channel=6 pitch=-3200 time=0
EXTRACT: pitchwheel channel=6 pitch=-3328 time=0.016183027083333332
EXTRACT: pitchwheel channel=6 pitch=-3328 time=0
EXTRACT: pitchwheel channel=6 pitch=-3456 time=0.016183027083333332
EXTRACT: pitchwheel channel=6 pitch=-3456 time=0
EXTRACT: pitchwheel channel=6 pitch=-3584 time=0.016183027083333332
EXTRACT: pitchwheel channel=6 pitch=-3584 time=0
EXTRACT: pitchwheel channel=6 pitch=-3712 time=0.016183027083333332
EXTRACT: pitchwheel channel=6 pitch=-3712 time=0
EXTRACT: pitchwheel channel=6 pitch=-3840 time=0.016183027083333332
EXTRACT: pitchwheel channel=6 pitch=-3840 time=0
EXTRACT: pitchwheel channel=6 pitch=-3968 time=0.016183027083333332
EXTRACT: pitchwheel channel=6 pitch=-3968 time=0
EXTRACT: pitchwheel channel=6 pitch=-4096 time=0.016183027083333332
EXTRACT: pitchwheel channel=6 pitch=-4096 time=0
EXTRACT: pitchwheel channel=6 pitch=-4224 time=0.016183027083333332
EXTRACT: pitchwheel channel=6 pitch=-4224 time=0
EXTRACT: note_off channel=3 note=63 velocity=95 time=0.0016741062500000002
EXTRACT: note_on channel=3 note=68 velocity=95 time=0
EXTRACT: note_on channel=5 note=64 velocity=95 time=0
EXTRACT: note_on channel=5 note=59 velocity=95 time=0
EXTRACT: note_on channel=5 note=55 velocity=95 time=0
EXTRACT: note_on channel=5 note=50 velocity=95 time=0
EXTRACT: note_off channel=7 note=33 velocity=95 time=0
EXTRACT: note_off channel=9 note=36 velocity=95 time=0
EXTRACT: note_on channel=9 note=28 velocity=95 time=0
EXTRACT: note_on channel=9 note=39 velocity=95 time=0
EXTRACT: pitchwheel channel=6 pitch=-4352 time=0.014508920833333334
EXTRACT: pitchwheel channel=6 pitch=-4352 time=0
EXTRACT: pitchwheel channel=6 pitch=-4480 time=0.016183027083333332
EXTRACT: pitchwheel channel=6 pitch=-4480 time=0
EXTRACT: pitchwheel channel=6 pitch=-4608 time=0.016183027083333332
EXTRACT: pitchwheel channel=6 pitch=-4608 time=0
EXTRACT: pitchwheel channel=6 pitch=-4736 time=0.016183027083333332
EXTRACT: pitchwheel channel=6 pitch=-4736 time=0
EXTRACT: pitchwheel channel=6 pitch=-4864 time=0.016183027083333332
EXTRACT: pitchwheel channel=6 pitch=-4864 time=0
EXTRACT: pitchwheel channel=6 pitch=-4992 time=0.016183027083333332
EXTRACT: pitchwheel channel=6 pitch=-4992 time=0
EXTRACT: pitchwheel channel=6 pitch=-5120 time=0.016183027083333332
EXTRACT: pitchwheel channel=6 pitch=-5120 time=0
EXTRACT: pitchwheel channel=6 pitch=-5248 time=0.016183027083333332
EXTRACT: pitchwheel channel=6 pitch=-5248 time=0
EXTRACT: pitchwheel channel=6 pitch=-5376 time=0.016183027083333332
EXTRACT: pitchwheel channel=6 pitch=-5376 time=0
EXTRACT: pitchwheel channel=6 pitch=-5504 time=0.016183027083333332
EXTRACT: pitchwheel channel=6 pitch=-5504 time=0
EXTRACT: pitchwheel channel=6 pitch=-5632 time=0.016183027083333332
EXTRACT: pitchwheel channel=6 pitch=-5632 time=0
EXTRACT: pitchwheel channel=6 pitch=-5760 time=0.016183027083333332
EXTRACT: pitchwheel channel=6 pitch=-5760 time=0
EXTRACT: pitchwheel channel=6 pitch=-5888 time=0.016183027083333332
EXTRACT: pitchwheel channel=6 pitch=-5888 time=0
EXTRACT: pitchwheel channel=6 pitch=-6016 time=0.016183027083333332
EXTRACT: pitchwheel channel=6 pitch=-6016 time=0
EXTRACT: pitchwheel channel=6 pitch=-6144 time=0.016183027083333332
EXTRACT: pitchwheel channel=6 pitch=-6144 time=0
EXTRACT: pitchwheel channel=6 pitch=-6272 time=0.016183027083333332
EXTRACT: pitchwheel channel=6 pitch=-6272 time=0
EXTRACT: note_off channel=3 note=68 velocity=95 time=0.010602672916666667
EXTRACT: note_on channel=3 note=66 velocity=95 time=0
EXTRACT: note_off channel=8 note=23 velocity=95 time=0
EXTRACT: pitchwheel channel=6 pitch=-6400 time=0.005580354166666667
EXTRACT: pitchwheel channel=6 pitch=-6400 time=0
EXTRACT: pitchwheel channel=6 pitch=-6528 time=0.016183027083333332
EXTRACT: pitchwheel channel=6 pitch=-6528 time=0
EXTRACT: pitchwheel channel=6 pitch=-6656 time=0.016183027083333332
EXTRACT: pitchwheel channel=6 pitch=-6656 time=0
EXTRACT: pitchwheel channel=6 pitch=-6784 time=0.016183027083333332
EXTRACT: pitchwheel channel=6 pitch=-6784 time=0
EXTRACT: pitchwheel channel=6 pitch=-6912 time=0.016183027083333332
EXTRACT: pitchwheel channel=6 pitch=-6912 time=0
EXTRACT: pitchwheel channel=6 pitch=-7040 time=0.016183027083333332
EXTRACT: pitchwheel channel=6 pitch=-7040 time=0
EXTRACT: pitchwheel channel=6 pitch=-7168 time=0.016183027083333332
EXTRACT: pitchwheel channel=6 pitch=-7168 time=0
EXTRACT: pitchwheel channel=6 pitch=-7296 time=0.016183027083333332
EXTRACT: pitchwheel channel=6 pitch=-7296 time=0
EXTRACT: pitchwheel channel=6 pitch=-7424 time=0.016183027083333332
EXTRACT: pitchwheel channel=6 pitch=-7424 time=0
EXTRACT: pitchwheel channel=6 pitch=-7552 time=0.016183027083333332
EXTRACT: pitchwheel channel=6 pitch=-7552 time=0
EXTRACT: pitchwheel channel=6 pitch=-7680 time=0.016183027083333332
EXTRACT: pitchwheel channel=6 pitch=-7680 time=0
EXTRACT: pitchwheel channel=6 pitch=-7808 time=0.016183027083333332
EXTRACT: pitchwheel channel=6 pitch=-7808 time=0
EXTRACT: pitchwheel channel=6 pitch=-7936 time=0.016183027083333332
EXTRACT: pitchwheel channel=6 pitch=-7936 time=0
EXTRACT: pitchwheel channel=6 pitch=-8064 time=0.016183027083333332
EXTRACT: pitchwheel channel=6 pitch=-8064 time=0
EXTRACT: pitchwheel channel=6 pitch=-8192 time=0.016183027083333332
EXTRACT: pitchwheel channel=6 pitch=-8192 time=0
EXTRACT: pitchwheel channel=6 pitch=-8192 time=0.016183027083333332
EXTRACT: pitchwheel channel=6 pitch=-8192 time=0
EXTRACT: pitchwheel channel=6 pitch=-8192 time=0.016183027083333332
EXTRACT: pitchwheel channel=6 pitch=-8192 time=0
EXTRACT: note_off channel=3 note=66 velocity=95 time=0.0033482125000000003
EXTRACT: pitchwheel channel=6 pitch=-8192 time=0
EXTRACT: pitchwheel channel=6 pitch=0 time=0
EXTRACT: note_off channel=6 note=53 velocity=95 time=0
EXTRACT: pitchwheel channel=6 pitch=-8192 time=0
EXTRACT: pitchwheel channel=6 pitch=0 time=0
EXTRACT: note_off channel=6 note=53 velocity=95 time=0
EXTRACT: note_on channel=7 note=33 velocity=95 time=0
EXTRACT: note_on channel=8 note=23 velocity=95 time=0
EXTRACT: note_on channel=10 note=40 velocity=95 time=0
EXTRACT: note_off channel=9 note=28 velocity=95 time=0
EXTRACT: note_off channel=9 note=39 velocity=95 time=0
EXTRACT: note_on channel=9 note=36 velocity=95 time=0
EXTRACT: note_off channel=10 note=40 velocity=95 time=0.06696425
EXTRACT: note_on channel=3 note=63 velocity=95 time=0.20089275
EXTRACT: note_off channel=5 note=64 velocity=95 time=0
EXTRACT: note_off channel=5 note=59 velocity=95 time=0
EXTRACT: note_off channel=5 note=55 velocity=95 time=0
EXTRACT: note_off channel=5 note=50 velocity=95 time=0
EXTRACT: note_off channel=8 note=23 velocity=95 time=0
EXTRACT: note_on channel=8 note=23 velocity=95 time=0
EXTRACT: note_on channel=10 note=40 velocity=95 time=0
EXTRACT: note_off channel=9 note=36 velocity=95 time=0
EXTRACT: note_on channel=9 note=36 velocity=95 time=0
EXTRACT: note_off channel=10 note=40 velocity=95 time=0.06696425
EXTRACT: note_off channel=3 note=63 velocity=95 time=0.06696425
EXTRACT: note_on channel=3 note=63 velocity=95 time=0
EXTRACT: note_off channel=3 note=63 velocity=95 time=0.1339285
EXTRACT: note_on channel=3 note=63 velocity=95 time=0
EXTRACT: note_on channel=5 note=64 velocity=95 time=0
EXTRACT: note_on channel=5 note=59 velocity=95 time=0
EXTRACT: note_on channel=5 note=55 velocity=95 time=0
EXTRACT: note_on channel=5 note=50 velocity=95 time=0
EXTRACT: note_off channel=7 note=33 velocity=95 time=0
EXTRACT: note_off channel=8 note=23 velocity=95 time=0
EXTRACT: note_off channel=9 note=36 velocity=95 time=0
EXTRACT: note_on channel=9 note=28 velocity=95 time=0
EXTRACT: note_on channel=9 note=39 velocity=95 time=0
EXTRACT: note_off channel=3 note=63 velocity=95 time=0.267857
EXTRACT: note_on channel=3 note=63 velocity=95 time=0
EXTRACT: note_on channel=7 note=33 velocity=95 time=0
EXTRACT: note_on channel=8 note=23 velocity=95 time=0
EXTRACT: note_on channel=10 note=40 velocity=95 time=0
EXTRACT: note_off channel=9 note=28 velocity=95 time=0
EXTRACT: note_off channel=9 note=39 velocity=95 time=0
EXTRACT: note_on channel=9 note=36 velocity=95 time=0
EXTRACT: note_off channel=10 note=40 velocity=95 time=0.06696425
EXTRACT: note_off channel=3 note=63 velocity=95 time=0.20089275
EXTRACT: note_on channel=3 note=61 velocity=95 time=0
EXTRACT: note_off channel=9 note=36 velocity=95 time=0
EXTRACT: note_off channel=3 note=61 velocity=95 time=0.1339285
EXTRACT: note_on channel=3 note=63 velocity=95 time=0
EXTRACT: note_off channel=3 note=63 velocity=95 time=0.1339285
EXTRACT: note_on channel=3 note=63 velocity=95 time=0
EXTRACT: note_off channel=5 note=64 velocity=95 time=0
EXTRACT: note_off channel=5 note=59 velocity=95 time=0
EXTRACT: note_off channel=5 note=55 velocity=95 time=0
EXTRACT: note_off channel=5 note=50 velocity=95 time=0
EXTRACT: note_off channel=7 note=33 velocity=95 time=0
EXTRACT: note_on channel=7 note=33 velocity=95 time=0
EXTRACT: note_off channel=8 note=23 velocity=95 time=0
EXTRACT: note_on channel=8 note=23 velocity=95 time=0
EXTRACT: note_on channel=10 note=40 velocity=95 time=0
EXTRACT: note_on channel=9 note=36 velocity=95 time=0
EXTRACT: note_off channel=10 note=40 velocity=95 time=0.06696425
EXTRACT: note_off channel=3 note=63 velocity=95 time=0.20089275
EXTRACT: note_on channel=3 note=63 velocity=95 time=0
EXTRACT: note_on channel=5 note=64 velocity=95 time=0
EXTRACT: note_on channel=5 note=59 velocity=95 time=0
EXTRACT: note_on channel=5 note=55 velocity=95 time=0
EXTRACT: note_on channel=5 note=50 velocity=95 time=0
EXTRACT: note_off channel=7 note=33 velocity=95 time=0
EXTRACT: note_off channel=9 note=36 velocity=95 time=0
EXTRACT: note_on channel=9 note=28 velocity=95 time=0
EXTRACT: note_on channel=9 note=39 velocity=95 time=0
EXTRACT: note_off channel=3 note=63 velocity=95 time=0.267857
EXTRACT: note_on channel=3 note=63 velocity=95 time=0
EXTRACT: note_off channel=8 note=23 velocity=95 time=0
EXTRACT: note_off channel=3 note=63 velocity=95 time=0.1339285
EXTRACT: note_on channel=3 note=63 velocity=95 time=0
EXTRACT: note_off channel=3 note=63 velocity=95 time=0.1339285
EXTRACT: note_on channel=3 note=61 velocity=95 time=0
EXTRACT: note_on channel=7 note=33 velocity=95 time=0
EXTRACT: note_on channel=8 note=23 velocity=95 time=0
EXTRACT: note_on channel=10 note=40 velocity=95 time=0
EXTRACT: note_off channel=9 note=28 velocity=95 time=0
EXTRACT: note_off channel=9 note=39 velocity=95 time=0
EXTRACT: note_on channel=9 note=36 velocity=95 time=0
EXTRACT: note_off channel=10 note=40 velocity=95 time=0.06696425
EXTRACT: note_off channel=3 note=61 velocity=95 time=0.20089275
EXTRACT: note_on channel=3 note=63 velocity=95 time=0
EXTRACT: note_off channel=5 note=64 velocity=95 time=0
EXTRACT: note_off channel=5 note=59 velocity=95 time=0
EXTRACT: note_off channel=5 note=55 velocity=95 time=0
EXTRACT: note_off channel=5 note=50 velocity=95 time=0
EXTRACT: note_off channel=3 note=63 velocity=95 time=0.1339285
EXTRACT: note_on channel=3 note=63 velocity=95 time=0
EXTRACT: note_on channel=5 note=64 velocity=95 time=0.1339285
EXTRACT: note_on channel=5 note=59 velocity=95 time=0
EXTRACT: note_on channel=5 note=55 velocity=95 time=0
EXTRACT: note_on channel=5 note=50 velocity=95 time=0
EXTRACT: note_off channel=7 note=33 velocity=95 time=0
EXTRACT: note_off channel=8 note=23 velocity=95 time=0
EXTRACT: note_off channel=9 note=36 velocity=95 time=0
EXTRACT: note_on channel=9 note=28 velocity=95 time=0
EXTRACT: note_on channel=9 note=39 velocity=95 time=0
EXTRACT: note_off channel=3 note=63 velocity=95 time=0.1339285
EXTRACT: note_on channel=3 note=63 velocity=95 time=0
EXTRACT: note_off channel=3 note=63 velocity=95 time=0.1339285
EXTRACT: note_on channel=3 note=63 velocity=95 time=0
EXTRACT: note_on channel=7 note=33 velocity=95 time=0
EXTRACT: note_on channel=8 note=23 velocity=95 time=0
EXTRACT: note_on channel=10 note=40 velocity=95 time=0
EXTRACT: note_off channel=9 note=28 velocity=95 time=0
EXTRACT: note_off channel=9 note=39 velocity=95 time=0
EXTRACT: note_on channel=9 note=36 velocity=95 time=0
EXTRACT: note_off channel=10 note=40 velocity=95 time=0.06696425
EXTRACT: note_off channel=3 note=63 velocity=95 time=0.20089275
EXTRACT: note_on channel=3 note=63 velocity=95 time=0
EXTRACT: pitchwheel channel=6 pitch=0 time=0
EXTRACT: note_on channel=6 note=53 velocity=95 time=0
EXTRACT: pitchwheel channel=6 pitch=0 time=0
EXTRACT: note_on channel=6 note=53 velocity=95 time=0
EXTRACT: note_off channel=9 note=36 velocity=95 time=0
EXTRACT: pitchwheel channel=6 pitch=-128 time=0.016183027083333332
EXTRACT: pitchwheel channel=6 pitch=-128 time=0
EXTRACT: pitchwheel channel=6 pitch=-256 time=0.016183027083333332
EXTRACT: pitchwheel channel=6 pitch=-256 time=0
EXTRACT: pitchwheel channel=6 pitch=-384 time=0.016183027083333332
EXTRACT: pitchwheel channel=6 pitch=-384 time=0
EXTRACT: pitchwheel channel=6 pitch=-512 time=0.016183027083333332
EXTRACT: pitchwheel channel=6 pitch=-512 time=0
EXTRACT: pitchwheel channel=6 pitch=-640 time=0.016183027083333332
EXTRACT: pitchwheel channel=6 pitch=-640 time=0
EXTRACT: pitchwheel channel=6 pitch=-768 time=0.016183027083333332
EXTRACT: pitchwheel channel=6 pitch=-768 time=0
EXTRACT: pitchwheel channel=6 pitch=-896 time=0.016183027083333332
EXTRACT: pitchwheel channel=6 pitch=-896 time=0
EXTRACT: pitchwheel channel=6 pitch=-1024 time=0.016183027083333332
EXTRACT: pitchwheel channel=6 pitch=-1024 time=0
EXTRACT: pitchwheel channel=6 pitch=-1152 time=0.016183027083333332
EXTRACT: pitchwheel channel=6 pitch=-1152 time=0
EXTRACT: pitchwheel channel=6 pitch=-1280 time=0.016183027083333332
EXTRACT: pitchwheel channel=6 pitch=-1280 time=0
EXTRACT: pitchwheel channel=6 pitch=-1408 time=0.016183027083333332
EXTRACT: pitchwheel channel=6 pitch=-1408 time=0
EXTRACT: pitchwheel channel=6 pitch=-1536 time=0.016183027083333332
EXTRACT: pitchwheel channel=6 pitch=-1536 time=0
EXTRACT: pitchwheel channel=6 pitch=-1664 time=0.016183027083333332
EXTRACT: pitchwheel channel=6 pitch=-1664 time=0
EXTRACT: pitchwheel channel=6 pitch=-1792 time=0.016183027083333332
EXTRACT: pitchwheel channel=6 pitch=-1792 time=0
EXTRACT: pitchwheel channel=6 pitch=-1920 time=0.016183027083333332
EXTRACT: pitchwheel channel=6 pitch=-1920 time=0
EXTRACT: pitchwheel channel=6 pitch=-2048 time=0.016183027083333332
EXTRACT: pitchwheel channel=6 pitch=-2048 time=0
EXTRACT: note_off channel=5 note=64 velocity=95 time=0.008928566666666667
EXTRACT: note_off channel=5 note=59 velocity=95 time=0
EXTRACT: note_off channel=5 note=55 velocity=95 time=0
EXTRACT: note_off channel=5 note=50 velocity=95 time=0
EXTRACT: note_off channel=7 note=33 velocity=95 time=0
EXTRACT: note_on channel=7 note=33 velocity=95 time=0
EXTRACT: note_off channel=8 note=23 velocity=95 time=0
EXTRACT: note_on channel=8 note=23 velocity=95 time=0
EXTRACT: note_on channel=10 note=40 velocity=95 time=0
EXTRACT: note_on channel=9 note=36 velocity=95 time=0
EXTRACT: pitchwheel channel=6 pitch=-2176 time=0.007254460416666667
EXTRACT: pitchwheel channel=6 pitch=-2176 time=0
EXTRACT: pitchwheel channel=6 pitch=-2304 time=0.016183027083333332
EXTRACT: pitchwheel channel=6 pitch=-2304 time=0
EXTRACT: pitchwheel channel=6 pitch=-2432 time=0.016183027083333332
EXTRACT: pitchwheel channel=6 pitch=-2432 time=0
EXTRACT: pitchwheel channel=6 pitch=-2560 time=0.016183027083333332
EXTRACT: pitchwheel channel=6 pitch=-2560 time=0
EXTRACT: note_off channel=10 note=40 velocity=95 time=0.011160708333333333
EXTRACT: pitchwheel channel=6 pitch=-2688 time=0.00502231875
EXTRACT: pitchwheel channel=6 pitch=-2688 time=0
EXTRACT: pitchwheel channel=6 pitch=-2816 time=0.016183027083333332
EXTRACT: pitchwheel channel=6 pitch=-2816 time=0
EXTRACT: pitchwheel channel=6 pitch=-2944 time=0.016183027083333332
EXTRACT: pitchwheel channel=6 pitch=-2944 time=0
EXTRACT: pitchwheel channel=6 pitch=-3072 time=0.016183027083333332
EXTRACT: pitchwheel channel=6 pitch=-3072 time=0
EXTRACT: pitchwheel channel=6 pitch=-3200 time=0.016183027083333332
EXTRACT: pitchwheel channel=6 pitch=-3200 time=0
EXTRACT: pitchwheel channel=6 pitch=-3328 time=0.016183027083333332
EXTRACT: pitchwheel channel=6 pitch=-3328 time=0
EXTRACT: pitchwheel channel=6 pitch=-3456 time=0.016183027083333332
EXTRACT: pitchwheel channel=6 pitch=-3456 time=0
EXTRACT: pitchwheel channel=6 pitch=-3584 time=0.016183027083333332
EXTRACT: pitchwheel channel=6 pitch=-3584 time=0
EXTRACT: pitchwheel channel=6 pitch=-3712 time=0.016183027083333332
EXTRACT: pitchwheel channel=6 pitch=-3712 time=0
EXTRACT: pitchwheel channel=6 pitch=-3840 time=0.016183027083333332
EXTRACT: pitchwheel channel=6 pitch=-3840 time=0
EXTRACT: pitchwheel channel=6 pitch=-3968 time=0.016183027083333332
EXTRACT: pitchwheel channel=6 pitch=-3968 time=0
EXTRACT: pitchwheel channel=6 pitch=-4096 time=0.016183027083333332
EXTRACT: pitchwheel channel=6 pitch=-4096 time=0
EXTRACT: pitchwheel channel=6 pitch=-4224 time=0.016183027083333332
EXTRACT: pitchwheel channel=6 pitch=-4224 time=0
EXTRACT: note_off channel=3 note=63 velocity=95 time=0.0016741062500000002
EXTRACT: note_on channel=5 note=64 velocity=95 time=0
EXTRACT: note_on channel=5 note=59 velocity=95 time=0
EXTRACT: note_on channel=5 note=55 velocity=95 time=0
EXTRACT: note_on channel=5 note=50 velocity=95 time=0
EXTRACT: note_off channel=7 note=33 velocity=95 time=0
EXTRACT: note_off channel=9 note=36 velocity=95 time=0
EXTRACT: note_on channel=9 note=28 velocity=95 time=0
EXTRACT: note_on channel=9 note=39 velocity=95 time=0
EXTRACT: pitchwheel channel=6 pitch=-4352 time=0.014508920833333334
EXTRACT: pitchwheel channel=6 pitch=-4352 time=0
EXTRACT: pitchwheel channel=6 pitch=-4480 time=0.016183027083333332
EXTRACT: pitchwheel channel=6 pitch=-4480 time=0
EXTRACT: pitchwheel channel=6 pitch=-4608 time=0.016183027083333332
EXTRACT: pitchwheel channel=6 pitch=-4608 time=0
EXTRACT: pitchwheel channel=6 pitch=-4736 time=0.016183027083333332
EXTRACT: pitchwheel channel=6 pitch=-4736 time=0
EXTRACT: pitchwheel channel=6 pitch=-4864 time=0.016183027083333332
EXTRACT: pitchwheel channel=6 pitch=-4864 time=0
EXTRACT: pitchwheel channel=6 pitch=-4992 time=0.016183027083333332
EXTRACT: pitchwheel channel=6 pitch=-4992 time=0
EXTRACT: pitchwheel channel=6 pitch=-5120 time=0.016183027083333332
EXTRACT: pitchwheel channel=6 pitch=-5120 time=0
EXTRACT: pitchwheel channel=6 pitch=-5248 time=0.016183027083333332
EXTRACT: pitchwheel channel=6 pitch=-5248 time=0
EXTRACT: pitchwheel channel=6 pitch=-5376 time=0.016183027083333332
EXTRACT: pitchwheel channel=6 pitch=-5376 time=0
EXTRACT: pitchwheel channel=6 pitch=-5504 time=0.016183027083333332
EXTRACT: pitchwheel channel=6 pitch=-5504 time=0
EXTRACT: pitchwheel channel=6 pitch=-5632 time=0.016183027083333332
EXTRACT: pitchwheel channel=6 pitch=-5632 time=0
EXTRACT: pitchwheel channel=6 pitch=-5760 time=0.016183027083333332
EXTRACT: pitchwheel channel=6 pitch=-5760 time=0
EXTRACT: pitchwheel channel=6 pitch=-5888 time=0.016183027083333332
EXTRACT: pitchwheel channel=6 pitch=-5888 time=0
EXTRACT: pitchwheel channel=6 pitch=-6016 time=0.016183027083333332
EXTRACT: pitchwheel channel=6 pitch=-6016 time=0
EXTRACT: pitchwheel channel=6 pitch=-6144 time=0.016183027083333332
EXTRACT: pitchwheel channel=6 pitch=-6144 time=0
EXTRACT: pitchwheel channel=6 pitch=-6272 time=0.016183027083333332
EXTRACT: pitchwheel channel=6 pitch=-6272 time=0
EXTRACT: note_on channel=3 note=61 velocity=95 time=0.010602672916666667
EXTRACT: note_off channel=8 note=23 velocity=95 time=0
EXTRACT: pitchwheel channel=6 pitch=-6400 time=0.005580354166666667
EXTRACT: pitchwheel channel=6 pitch=-6400 time=0
EXTRACT: pitchwheel channel=6 pitch=-6528 time=0.016183027083333332
EXTRACT: pitchwheel channel=6 pitch=-6528 time=0
EXTRACT: pitchwheel channel=6 pitch=-6656 time=0.016183027083333332
EXTRACT: pitchwheel channel=6 pitch=-6656 time=0
EXTRACT: pitchwheel channel=6 pitch=-6784 time=0.016183027083333332
EXTRACT: pitchwheel channel=6 pitch=-6784 time=0
EXTRACT: pitchwheel channel=6 pitch=-6912 time=0.016183027083333332
EXTRACT: pitchwheel channel=6 pitch=-6912 time=0
EXTRACT: pitchwheel channel=6 pitch=-7040 time=0.016183027083333332
EXTRACT: pitchwheel channel=6 pitch=-7040 time=0
EXTRACT: pitchwheel channel=6 pitch=-7168 time=0.016183027083333332
EXTRACT: pitchwheel channel=6 pitch=-7168 time=0
EXTRACT: pitchwheel channel=6 pitch=-7296 time=0.016183027083333332
EXTRACT: pitchwheel channel=6 pitch=-7296 time=0
EXTRACT: note_off channel=3 note=61 velocity=95 time=0.015066956250000001
EXTRACT: note_on channel=3 note=61 velocity=95 time=0
EXTRACT: pitchwheel channel=6 pitch=-7424 time=0.0011160708333333334
EXTRACT: pitchwheel channel=6 pitch=-7424 time=0
EXTRACT: pitchwheel channel=6 pitch=-7552 time=0.016183027083333332
EXTRACT: pitchwheel channel=6 pitch=-7552 time=0
EXTRACT: pitchwheel channel=6 pitch=-7680 time=0.016183027083333332
EXTRACT: pitchwheel channel=6 pitch=-7680 time=0
EXTRACT: pitchwheel channel=6 pitch=-7808 time=0.016183027083333332
EXTRACT: pitchwheel channel=6 pitch=-7808 time=0
EXTRACT: pitchwheel channel=6 pitch=-7936 time=0.016183027083333332
EXTRACT: pitchwheel channel=6 pitch=-7936 time=0
EXTRACT: pitchwheel channel=6 pitch=-8064 time=0.016183027083333332
EXTRACT: pitchwheel channel=6 pitch=-8064 time=0
EXTRACT: pitchwheel channel=6 pitch=-8192 time=0.016183027083333332
EXTRACT: pitchwheel channel=6 pitch=-8192 time=0
EXTRACT: pitchwheel channel=6 pitch=-8192 time=0.016183027083333332
EXTRACT: pitchwheel channel=6 pitch=-8192 time=0
EXTRACT: pitchwheel channel=6 pitch=-8192 time=0.016183027083333332
EXTRACT: pitchwheel channel=6 pitch=-8192 time=0
EXTRACT: note_off channel=3 note=61 velocity=95 time=0.0033482125000000003
EXTRACT: note_on channel=3 note=61 velocity=95 time=0
EXTRACT: pitchwheel channel=6 pitch=-8192 time=0
EXTRACT: pitchwheel channel=6 pitch=0 time=0
EXTRACT: note_off channel=6 note=53 velocity=95 time=0
EXTRACT: pitchwheel channel=6 pitch=-8192 time=0
EXTRACT: pitchwheel channel=6 pitch=0 time=0
EXTRACT: note_off channel=6 note=53 velocity=95 time=0
EXTRACT: note_on channel=7 note=33 velocity=95 time=0
EXTRACT: note_on channel=8 note=23 velocity=95 time=0
EXTRACT: note_on channel=10 note=40 velocity=95 time=0
EXTRACT: note_off channel=9 note=28 velocity=95 time=0
EXTRACT: note_off channel=9 note=39 velocity=95 time=0
EXTRACT: note_on channel=9 note=36 velocity=95 time=0
EXTRACT: note_off channel=10 note=40 velocity=95 time=0.06696425
EXTRACT: note_off channel=3 note=61 velocity=95 time=0.06696425
EXTRACT: note_on channel=3 note=63 velocity=95 time=0
EXTRACT: note_off channel=3 note=63 velocity=95 time=0.1339285
EXTRACT: note_on channel=3 note=63 velocity=95 time=0
EXTRACT: note_off channel=5 note=64 velocity=95 time=0
EXTRACT: note_off channel=5 note=59 velocity=95 time=0
EXTRACT: note_off channel=5 note=55 velocity=95 time=0
EXTRACT: note_off channel=5 note=50 velocity=95 time=0
EXTRACT: note_off channel=3 note=63 velocity=95 time=0.1339285
EXTRACT: note_on channel=3 note=63 velocity=95 time=0
EXTRACT: note_off channel=3 note=63 velocity=95 time=0.1339285
EXTRACT: note_on channel=3 note=63 velocity=95 time=0
EXTRACT: note_on channel=5 note=64 velocity=95 time=0
EXTRACT: note_on channel=5 note=59 velocity=95 time=0
EXTRACT: note_on channel=5 note=55 velocity=95 time=0
EXTRACT: note_on channel=5 note=50 velocity=95 time=0
EXTRACT: note_off channel=7 note=33 velocity=95 time=0
EXTRACT: note_off channel=8 note=23 velocity=95 time=0
EXTRACT: note_off channel=9 note=36 velocity=95 time=0
EXTRACT: note_on channel=9 note=28 velocity=95 time=0
EXTRACT: note_on channel=9 note=39 velocity=95 time=0
EXTRACT: note_off channel=3 note=63 velocity=95 time=0.267857
EXTRACT: note_on channel=3 note=63 velocity=95 time=0
EXTRACT: note_on channel=7 note=33 velocity=95 time=0
EXTRACT: note_on channel=8 note=23 velocity=95 time=0
EXTRACT: note_on channel=10 note=40 velocity=95 time=0
EXTRACT: note_off channel=9 note=28 velocity=95 time=0
EXTRACT: note_off channel=9 note=39 velocity=95 time=0
EXTRACT: note_on channel=9 note=36 velocity=95 time=0
EXTRACT: note_off channel=10 note=40 velocity=95 time=0.06696425
EXTRACT: note_off channel=3 note=63 velocity=95 time=0.06696425
EXTRACT: note_on channel=3 note=63 velocity=95 time=0
EXTRACT: note_off channel=3 note=63 velocity=95 time=0.1339285
EXTRACT: note_on channel=3 note=61 velocity=95 time=0
EXTRACT: note_off channel=9 note=36 velocity=95 time=0
EXTRACT: note_off channel=3 note=61 velocity=95 time=0.267857
EXTRACT: note_on channel=3 note=63 velocity=95 time=0
EXTRACT: note_off channel=5 note=64 velocity=95 time=0
EXTRACT: note_off channel=5 note=59 velocity=95 time=0
EXTRACT: note_off channel=5 note=55 velocity=95 time=0
EXTRACT: note_off channel=5 note=50 velocity=95 time=0
EXTRACT: note_off channel=7 note=33 velocity=95 time=0
EXTRACT: note_on channel=7 note=33 velocity=95 time=0
EXTRACT: note_off channel=8 note=23 velocity=95 time=0
EXTRACT: note_on channel=8 note=23 velocity=95 time=0
EXTRACT: note_on channel=10 note=40 velocity=95 time=0
EXTRACT: note_on channel=9 note=36 velocity=95 time=0
EXTRACT: note_off channel=10 note=40 velocity=95 time=0.06696425
EXTRACT: note_off channel=3 note=63 velocity=95 time=0.20089275
EXTRACT: note_on channel=3 note=63 velocity=95 time=0
EXTRACT: note_on channel=5 note=64 velocity=95 time=0
EXTRACT: note_on channel=5 note=59 velocity=95 time=0
EXTRACT: note_on channel=5 note=55 velocity=95 time=0
EXTRACT: note_on channel=5 note=50 velocity=95 time=0
EXTRACT: note_off channel=7 note=33 velocity=95 time=0
EXTRACT: note_off channel=9 note=36 velocity=95 time=0
EXTRACT: note_on channel=9 note=28 velocity=95 time=0
EXTRACT: note_on channel=9 note=39 velocity=95 time=0
EXTRACT: note_off channel=3 note=63 velocity=95 time=0.267857
EXTRACT: note_on channel=3 note=63 velocity=95 time=0
EXTRACT: note_off channel=8 note=23 velocity=95 time=0
EXTRACT: note_off channel=3 note=63 velocity=95 time=0.1339285
EXTRACT: note_on channel=3 note=63 velocity=95 time=0
EXTRACT: note_off channel=3 note=63 velocity=95 time=0.1339285
EXTRACT: note_on channel=3 note=61 velocity=95 time=0
EXTRACT: note_on channel=7 note=33 velocity=95 time=0
EXTRACT: note_on channel=8 note=23 velocity=95 time=0
EXTRACT: note_on channel=10 note=40 velocity=95 time=0
EXTRACT: note_off channel=9 note=28 velocity=95 time=0
EXTRACT: note_off channel=9 note=39 velocity=95 time=0
EXTRACT: note_on channel=9 note=36 velocity=95 time=0
EXTRACT: note_off channel=10 note=40 velocity=95 time=0.06696425
EXTRACT: note_off channel=3 note=61 velocity=95 time=0.06696425
EXTRACT: note_on channel=3 note=63 velocity=95 time=0
EXTRACT: note_off channel=3 note=63 velocity=95 time=0.1339285
EXTRACT: note_on channel=3 note=63 velocity=95 time=0
EXTRACT: note_off channel=5 note=64 velocity=95 time=0
EXTRACT: note_off channel=5 note=59 velocity=95 time=0
EXTRACT: note_off channel=5 note=55 velocity=95 time=0
EXTRACT: note_off channel=5 note=50 velocity=95 time=0
EXTRACT: note_off channel=3 note=63 velocity=95 time=0.267857
EXTRACT: note_on channel=3 note=63 velocity=95 time=0
EXTRACT: note_on channel=5 note=64 velocity=95 time=0
EXTRACT: note_on channel=5 note=59 velocity=95 time=0
EXTRACT: note_on channel=5 note=55 velocity=95 time=0
EXTRACT: note_on channel=5 note=50 velocity=95 time=0
EXTRACT: note_off channel=7 note=33 velocity=95 time=0
EXTRACT: note_off channel=8 note=23 velocity=95 time=0
EXTRACT: note_off channel=9 note=36 velocity=95 time=0
EXTRACT: note_on channel=9 note=28 velocity=95 time=0
EXTRACT: note_on channel=9 note=39 velocity=95 time=0
EXTRACT: note_on channel=7 note=33 velocity=95 time=0.1339285
EXTRACT: note_on channel=8 note=23 velocity=95 time=0
EXTRACT: note_on channel=10 note=40 velocity=95 time=0
EXTRACT: note_off channel=9 note=28 velocity=95 time=0
EXTRACT: note_off channel=9 note=39 velocity=95 time=0
EXTRACT: note_on channel=9 note=36 velocity=95 time=0
EXTRACT: note_off channel=10 note=40 velocity=95 time=0.06696425
EXTRACT: note_off channel=3 note=63 velocity=95 time=0.06696425
EXTRACT: note_on channel=3 note=63 velocity=95 time=0
EXTRACT: note_off channel=7 note=33 velocity=95 time=0
EXTRACT: note_on channel=7 note=33 velocity=95 time=0
EXTRACT: note_off channel=8 note=23 velocity=95 time=0
EXTRACT: note_on channel=8 note=23 velocity=95 time=0
EXTRACT: note_on channel=10 note=40 velocity=95 time=0
EXTRACT: note_off channel=9 note=36 velocity=95 time=0
EXTRACT: note_on channel=9 note=36 velocity=95 time=0
EXTRACT: note_off channel=10 note=40 velocity=95 time=0.06696425
EXTRACT: note_off channel=3 note=63 velocity=95 time=0.06696425
EXTRACT: note_on channel=3 note=63 velocity=95 time=0
EXTRACT: note_off channel=3 note=63 velocity=95 time=0.1339285
EXTRACT: note_on channel=3 note=63 velocity=95 time=0
EXTRACT: pitchwheel channel=6 pitch=0 time=0
EXTRACT: note_on channel=6 note=53 velocity=95 time=0
EXTRACT: pitchwheel channel=6 pitch=0 time=0
EXTRACT: note_on channel=6 note=53 velocity=95 time=0
EXTRACT: note_off channel=7 note=33 velocity=95 time=0
EXTRACT: note_off channel=9 note=36 velocity=95 time=0
EXTRACT: pitchwheel channel=6 pitch=-128 time=0.016183027083333332
EXTRACT: pitchwheel channel=6 pitch=-128 time=0
EXTRACT: pitchwheel channel=6 pitch=-256 time=0.016183027083333332
EXTRACT: pitchwheel channel=6 pitch=-256 time=0
EXTRACT: pitchwheel channel=6 pitch=-384 time=0.016183027083333332
EXTRACT: pitchwheel channel=6 pitch=-384 time=0
EXTRACT: pitchwheel channel=6 pitch=-512 time=0.016183027083333332
EXTRACT: pitchwheel channel=6 pitch=-512 time=0
EXTRACT: pitchwheel channel=6 pitch=-640 time=0.016183027083333332
EXTRACT: pitchwheel channel=6 pitch=-640 time=0
EXTRACT: pitchwheel channel=6 pitch=-768 time=0.016183027083333332
EXTRACT: pitchwheel channel=6 pitch=-768 time=0
EXTRACT: pitchwheel channel=6 pitch=-896 time=0.016183027083333332
EXTRACT: pitchwheel channel=6 pitch=-896 time=0
EXTRACT: pitchwheel channel=6 pitch=-1024 time=0.016183027083333332
EXTRACT: pitchwheel channel=6 pitch=-1024 time=0
EXTRACT: pitchwheel channel=6 pitch=-1152 time=0.016183027083333332
EXTRACT: pitchwheel channel=6 pitch=-1152 time=0
EXTRACT: pitchwheel channel=6 pitch=-1280 time=0.016183027083333332
EXTRACT: pitchwheel channel=6 pitch=-1280 time=0
EXTRACT: pitchwheel channel=6 pitch=-1408 time=0.016183027083333332
EXTRACT: pitchwheel channel=6 pitch=-1408 time=0
EXTRACT: pitchwheel channel=6 pitch=-1536 time=0.016183027083333332
EXTRACT: pitchwheel channel=6 pitch=-1536 time=0
EXTRACT: pitchwheel channel=6 pitch=-1664 time=0.016183027083333332
EXTRACT: pitchwheel channel=6 pitch=-1664 time=0
EXTRACT: pitchwheel channel=6 pitch=-1792 time=0.016183027083333332
EXTRACT: pitchwheel channel=6 pitch=-1792 time=0
EXTRACT: pitchwheel channel=6 pitch=-1920 time=0.016183027083333332
EXTRACT: pitchwheel channel=6 pitch=-1920 time=0
EXTRACT: pitchwheel channel=6 pitch=-2048 time=0.016183027083333332
EXTRACT: pitchwheel channel=6 pitch=-2048 time=0
EXTRACT: note_off channel=3 note=63 velocity=95 time=0.008928566666666667
EXTRACT: note_on channel=3 note=63 velocity=95 time=0
EXTRACT: note_off channel=5 note=64 velocity=95 time=0
EXTRACT: note_off channel=5 note=59 velocity=95 time=0
EXTRACT: note_off channel=5 note=55 velocity=95 time=0
EXTRACT: note_off channel=5 note=50 velocity=95 time=0
EXTRACT: note_on channel=7 note=33 velocity=95 time=0
EXTRACT: note_off channel=8 note=23 velocity=95 time=0
EXTRACT: note_on channel=8 note=23 velocity=95 time=0
EXTRACT: note_on channel=10 note=40 velocity=95 time=0
EXTRACT: note_on channel=9 note=36 velocity=95 time=0
EXTRACT: pitchwheel channel=6 pitch=-2176 time=0.007254460416666667
EXTRACT: pitchwheel channel=6 pitch=-2176 time=0
EXTRACT: pitchwheel channel=6 pitch=-2304 time=0.016183027083333332
EXTRACT: pitchwheel channel=6 pitch=-2304 time=0
EXTRACT: pitchwheel channel=6 pitch=-2432 time=0.016183027083333332
EXTRACT: pitchwheel channel=6 pitch=-2432 time=0
EXTRACT: pitchwheel channel=6 pitch=-2560 time=0.016183027083333332
EXTRACT: pitchwheel channel=6 pitch=-2560 time=0
EXTRACT: note_off channel=10 note=40 velocity=95 time=0.011160708333333333
EXTRACT: pitchwheel channel=6 pitch=-2688 time=0.00502231875
EXTRACT: pitchwheel channel=6 pitch=-2688 time=0
EXTRACT: pitchwheel channel=6 pitch=-2816 time=0.016183027083333332
EXTRACT: pitchwheel channel=6 pitch=-2816 time=0
EXTRACT: pitchwheel channel=6 pitch=-2944 time=0.016183027083333332
EXTRACT: pitchwheel channel=6 pitch=-2944 time=0
EXTRACT: pitchwheel channel=6 pitch=-3072 time=0.016183027083333332
EXTRACT: pitchwheel channel=6 pitch=-3072 time=0
EXTRACT: pitchwheel channel=6 pitch=-3200 time=0.016183027083333332
EXTRACT: pitchwheel channel=6 pitch=-3200 time=0
EXTRACT: pitchwheel channel=6 pitch=-3328 time=0.016183027083333332
EXTRACT: pitchwheel channel=6 pitch=-3328 time=0
EXTRACT: pitchwheel channel=6 pitch=-3456 time=0.016183027083333332
EXTRACT: pitchwheel channel=6 pitch=-3456 time=0
EXTRACT: pitchwheel channel=6 pitch=-3584 time=0.016183027083333332
EXTRACT: pitchwheel channel=6 pitch=-3584 time=0
EXTRACT: pitchwheel channel=6 pitch=-3712 time=0.016183027083333332
EXTRACT: pitchwheel channel=6 pitch=-3712 time=0
EXTRACT: pitchwheel channel=6 pitch=-3840 time=0.016183027083333332
EXTRACT: pitchwheel channel=6 pitch=-3840 time=0
EXTRACT: pitchwheel channel=6 pitch=-3968 time=0.016183027083333332
EXTRACT: pitchwheel channel=6 pitch=-3968 time=0
EXTRACT: pitchwheel channel=6 pitch=-4096 time=0.016183027083333332
EXTRACT: pitchwheel channel=6 pitch=-4096 time=0
EXTRACT: pitchwheel channel=6 pitch=-4224 time=0.016183027083333332
EXTRACT: pitchwheel channel=6 pitch=-4224 time=0
EXTRACT: note_off channel=3 note=63 velocity=95 time=0.0016741062500000002
EXTRACT: note_on channel=3 note=68 velocity=95 time=0
EXTRACT: note_on channel=5 note=64 velocity=95 time=0
EXTRACT: note_on channel=5 note=59 velocity=95 time=0
EXTRACT: note_on channel=5 note=55 velocity=95 time=0
EXTRACT: note_on channel=5 note=50 velocity=95 time=0
EXTRACT: note_off channel=7 note=33 velocity=95 time=0
EXTRACT: note_off channel=9 note=36 velocity=95 time=0
EXTRACT: note_on channel=9 note=28 velocity=95 time=0
EXTRACT: note_on channel=9 note=39 velocity=95 time=0
EXTRACT: pitchwheel channel=6 pitch=-4352 time=0.014508920833333334
EXTRACT: pitchwheel channel=6 pitch=-4352 time=0
EXTRACT: pitchwheel channel=6 pitch=-4480 time=0.016183027083333332
EXTRACT: pitchwheel channel=6 pitch=-4480 time=0
EXTRACT: pitchwheel channel=6 pitch=-4608 time=0.016183027083333332
EXTRACT: pitchwheel channel=6 pitch=-4608 time=0
EXTRACT: pitchwheel channel=6 pitch=-4736 time=0.016183027083333332
EXTRACT: pitchwheel channel=6 pitch=-4736 time=0
EXTRACT: pitchwheel channel=6 pitch=-4864 time=0.016183027083333332
EXTRACT: pitchwheel channel=6 pitch=-4864 time=0
EXTRACT: pitchwheel channel=6 pitch=-4992 time=0.016183027083333332
EXTRACT: pitchwheel channel=6 pitch=-4992 time=0
EXTRACT: pitchwheel channel=6 pitch=-5120 time=0.016183027083333332
EXTRACT: pitchwheel channel=6 pitch=-5120 time=0
EXTRACT: pitchwheel channel=6 pitch=-5248 time=0.016183027083333332
EXTRACT: pitchwheel channel=6 pitch=-5248 time=0
EXTRACT: pitchwheel channel=6 pitch=-5376 time=0.016183027083333332
EXTRACT: pitchwheel channel=6 pitch=-5376 time=0
EXTRACT: pitchwheel channel=6 pitch=-5504 time=0.016183027083333332
EXTRACT: pitchwheel channel=6 pitch=-5504 time=0
EXTRACT: pitchwheel channel=6 pitch=-5632 time=0.016183027083333332
EXTRACT: pitchwheel channel=6 pitch=-5632 time=0
EXTRACT: pitchwheel channel=6 pitch=-5760 time=0.016183027083333332
EXTRACT: pitchwheel channel=6 pitch=-5760 time=0
EXTRACT: pitchwheel channel=6 pitch=-5888 time=0.016183027083333332
EXTRACT: pitchwheel channel=6 pitch=-5888 time=0
EXTRACT: pitchwheel channel=6 pitch=-6016 time=0.016183027083333332
EXTRACT: pitchwheel channel=6 pitch=-6016 time=0
EXTRACT: pitchwheel channel=6 pitch=-6144 time=0.016183027083333332
EXTRACT: pitchwheel channel=6 pitch=-6144 time=0
EXTRACT: pitchwheel channel=6 pitch=-6272 time=0.016183027083333332
EXTRACT: pitchwheel channel=6 pitch=-6272 time=0
EXTRACT: note_off channel=3 note=68 velocity=95 time=0.010602672916666667
EXTRACT: note_on channel=3 note=66 velocity=70 time=0
EXTRACT: note_off channel=8 note=23 velocity=95 time=0
EXTRACT: pitchwheel channel=6 pitch=-6400 time=0.005580354166666667
EXTRACT: pitchwheel channel=6 pitch=-6400 time=0
EXTRACT: pitchwheel channel=6 pitch=-6528 time=0.016183027083333332
EXTRACT: pitchwheel channel=6 pitch=-6528 time=0
EXTRACT: pitchwheel channel=6 pitch=-6656 time=0.016183027083333332
EXTRACT: pitchwheel channel=6 pitch=-6656 time=0
EXTRACT: pitchwheel channel=6 pitch=-6784 time=0.016183027083333332
EXTRACT: pitchwheel channel=6 pitch=-6784 time=0
EXTRACT: pitchwheel channel=6 pitch=-6912 time=0.016183027083333332
EXTRACT: pitchwheel channel=6 pitch=-6912 time=0
EXTRACT: pitchwheel channel=6 pitch=-7040 time=0.016183027083333332
EXTRACT: pitchwheel channel=6 pitch=-7040 time=0
EXTRACT: pitchwheel channel=6 pitch=-7168 time=0.016183027083333332
EXTRACT: pitchwheel channel=6 pitch=-7168 time=0
EXTRACT: pitchwheel channel=6 pitch=-7296 time=0.016183027083333332
EXTRACT: pitchwheel channel=6 pitch=-7296 time=0
EXTRACT: pitchwheel channel=6 pitch=-7424 time=0.016183027083333332
EXTRACT: pitchwheel channel=6 pitch=-7424 time=0
EXTRACT: pitchwheel channel=6 pitch=-7552 time=0.016183027083333332
EXTRACT: pitchwheel channel=6 pitch=-7552 time=0
EXTRACT: pitchwheel channel=6 pitch=-7680 time=0.016183027083333332
EXTRACT: pitchwheel channel=6 pitch=-7680 time=0
EXTRACT: pitchwheel channel=6 pitch=-7808 time=0.016183027083333332
EXTRACT: pitchwheel channel=6 pitch=-7808 time=0
EXTRACT: pitchwheel channel=6 pitch=-7936 time=0.016183027083333332
EXTRACT: pitchwheel channel=6 pitch=-7936 time=0
EXTRACT: pitchwheel channel=6 pitch=-8064 time=0.016183027083333332
EXTRACT: pitchwheel channel=6 pitch=-8064 time=0
EXTRACT: pitchwheel channel=6 pitch=-8192 time=0.016183027083333332
EXTRACT: pitchwheel channel=6 pitch=-8192 time=0
EXTRACT: pitchwheel channel=6 pitch=-8192 time=0.016183027083333332
EXTRACT: pitchwheel channel=6 pitch=-8192 time=0
EXTRACT: pitchwheel channel=6 pitch=-8192 time=0.016183027083333332
EXTRACT: pitchwheel channel=6 pitch=-8192 time=0
EXTRACT: note_off channel=3 note=66 velocity=70 time=0.0033482125000000003
EXTRACT: pitchwheel channel=6 pitch=-8192 time=0
EXTRACT: pitchwheel channel=6 pitch=0 time=0
EXTRACT: note_off channel=6 note=53 velocity=95 time=0
EXTRACT: pitchwheel channel=6 pitch=-8192 time=0
EXTRACT: pitchwheel channel=6 pitch=0 time=0
EXTRACT: note_off channel=6 note=53 velocity=95 time=0
EXTRACT: note_on channel=7 note=33 velocity=95 time=0
EXTRACT: note_on channel=8 note=23 velocity=95 time=0
EXTRACT: note_on channel=10 note=40 velocity=95 time=0
EXTRACT: note_off channel=9 note=28 velocity=95 time=0
EXTRACT: note_off channel=9 note=39 velocity=95 time=0
EXTRACT: note_on channel=9 note=36 velocity=95 time=0
EXTRACT: note_off channel=10 note=40 velocity=95 time=0.06696425
EXTRACT: note_on channel=3 note=63 velocity=95 time=0.20089275
EXTRACT: note_off channel=5 note=64 velocity=95 time=0
EXTRACT: note_off channel=5 note=59 velocity=95 time=0
EXTRACT: note_off channel=5 note=55 velocity=95 time=0
EXTRACT: note_off channel=5 note=50 velocity=95 time=0
EXTRACT: note_off channel=8 note=23 velocity=95 time=0
EXTRACT: note_on channel=8 note=23 velocity=95 time=0
EXTRACT: note_on channel=10 note=40 velocity=95 time=0
EXTRACT: note_off channel=9 note=36 velocity=95 time=0
EXTRACT: note_on channel=9 note=36 velocity=95 time=0
EXTRACT: note_off channel=10 note=40 velocity=95 time=0.06696425
EXTRACT: note_off channel=3 note=63 velocity=95 time=0.20089275
EXTRACT: note_on channel=3 note=63 velocity=95 time=0
EXTRACT: note_on channel=5 note=64 velocity=95 time=0
EXTRACT: note_on channel=5 note=59 velocity=95 time=0
EXTRACT: note_on channel=5 note=55 velocity=95 time=0
EXTRACT: note_on channel=5 note=50 velocity=95 time=0
EXTRACT: note_off channel=7 note=33 velocity=95 time=0
EXTRACT: note_off channel=8 note=23 velocity=95 time=0
EXTRACT: note_off channel=9 note=36 velocity=95 time=0
EXTRACT: note_on channel=9 note=28 velocity=95 time=0
EXTRACT: note_on channel=9 note=39 velocity=95 time=0
EXTRACT: note_off channel=3 note=63 velocity=95 time=0.267857
EXTRACT: note_on channel=3 note=63 velocity=95 time=0
EXTRACT: note_on channel=7 note=33 velocity=95 time=0
EXTRACT: note_on channel=8 note=23 velocity=95 time=0
EXTRACT: note_on channel=10 note=40 velocity=95 time=0
EXTRACT: note_off channel=9 note=28 velocity=95 time=0
EXTRACT: note_off channel=9 note=39 velocity=95 time=0
EXTRACT: note_on channel=9 note=36 velocity=95 time=0
EXTRACT: note_off channel=10 note=40 velocity=95 time=0.06696425
EXTRACT: note_off channel=3 note=63 velocity=95 time=0.06696425
EXTRACT: note_on channel=3 note=63 velocity=95 time=0
EXTRACT: note_off channel=3 note=63 velocity=95 time=0.1339285
EXTRACT: note_on channel=3 note=61 velocity=95 time=0
EXTRACT: note_off channel=9 note=36 velocity=95 time=0
EXTRACT: note_off channel=3 note=61 velocity=95 time=0.267857
EXTRACT: note_on channel=3 note=63 velocity=95 time=0
EXTRACT: note_off channel=5 note=64 velocity=95 time=0
EXTRACT: note_off channel=5 note=59 velocity=95 time=0
EXTRACT: note_off channel=5 note=55 velocity=95 time=0
EXTRACT: note_off channel=5 note=50 velocity=95 time=0
EXTRACT: note_off channel=7 note=33 velocity=95 time=0
EXTRACT: note_on channel=7 note=33 velocity=95 time=0
EXTRACT: note_off channel=8 note=23 velocity=95 time=0
EXTRACT: note_on channel=8 note=23 velocity=95 time=0
EXTRACT: note_on channel=10 note=40 velocity=95 time=0
EXTRACT: note_on channel=9 note=36 velocity=95 time=0
EXTRACT: note_off channel=10 note=40 velocity=95 time=0.06696425
EXTRACT: note_off channel=3 note=63 velocity=95 time=0.20089275
EXTRACT: note_on channel=3 note=63 velocity=95 time=0
EXTRACT: note_on channel=5 note=64 velocity=95 time=0
EXTRACT: note_on channel=5 note=59 velocity=95 time=0
EXTRACT: note_on channel=5 note=55 velocity=95 time=0
EXTRACT: note_on channel=5 note=50 velocity=95 time=0
EXTRACT: note_off channel=7 note=33 velocity=95 time=0
EXTRACT: note_off channel=9 note=36 velocity=95 time=0
EXTRACT: note_on channel=9 note=28 velocity=95 time=0
EXTRACT: note_on channel=9 note=39 velocity=95 time=0
EXTRACT: note_off channel=3 note=63 velocity=95 time=0.267857
EXTRACT: note_on channel=3 note=63 velocity=95 time=0
EXTRACT: note_off channel=8 note=23 velocity=95 time=0
EXTRACT: note_off channel=3 note=63 velocity=95 time=0.1339285
EXTRACT: note_on channel=3 note=63 velocity=95 time=0
EXTRACT: note_off channel=3 note=63 velocity=95 time=0.1339285
EXTRACT: note_on channel=3 note=61 velocity=95 time=0
EXTRACT: note_on channel=7 note=33 velocity=95 time=0
EXTRACT: note_on channel=8 note=23 velocity=95 time=0
EXTRACT: note_on channel=10 note=40 velocity=95 time=0
EXTRACT: note_off channel=9 note=28 velocity=95 time=0
EXTRACT: note_off channel=9 note=39 velocity=95 time=0
EXTRACT: note_on channel=9 note=36 velocity=95 time=0
EXTRACT: note_off channel=10 note=40 velocity=95 time=0.06696425
EXTRACT: note_off channel=3 note=61 velocity=95 time=0.20089275
EXTRACT: note_on channel=3 note=63 velocity=95 time=0
EXTRACT: note_off channel=5 note=64 velocity=95 time=0
EXTRACT: note_off channel=5 note=59 velocity=95 time=0
EXTRACT: note_off channel=5 note=55 velocity=95 time=0
EXTRACT: note_off channel=5 note=50 velocity=95 time=0
EXTRACT: note_off channel=3 note=63 velocity=95 time=0.1339285
EXTRACT: note_on channel=3 note=63 velocity=95 time=0
EXTRACT: note_on channel=5 note=64 velocity=95 time=0.1339285
EXTRACT: note_on channel=5 note=59 velocity=95 time=0
EXTRACT: note_on channel=5 note=55 velocity=95 time=0
EXTRACT: note_on channel=5 note=50 velocity=95 time=0
EXTRACT: note_off channel=7 note=33 velocity=95 time=0
EXTRACT: note_off channel=8 note=23 velocity=95 time=0
EXTRACT: note_off channel=9 note=36 velocity=95 time=0
EXTRACT: note_on channel=9 note=28 velocity=95 time=0
EXTRACT: note_on channel=9 note=39 velocity=95 time=0
EXTRACT: note_off channel=3 note=63 velocity=95 time=0.1339285
EXTRACT: note_on channel=3 note=63 velocity=95 time=0
EXTRACT: note_off channel=3 note=63 velocity=95 time=0.1339285
EXTRACT: note_on channel=3 note=63 velocity=95 time=0
EXTRACT: note_on channel=7 note=33 velocity=95 time=0
EXTRACT: note_on channel=8 note=23 velocity=95 time=0
EXTRACT: note_on channel=10 note=40 velocity=95 time=0
EXTRACT: note_off channel=9 note=28 velocity=95 time=0
EXTRACT: note_off channel=9 note=39 velocity=95 time=0
EXTRACT: note_on channel=9 note=36 velocity=95 time=0
EXTRACT: note_off channel=10 note=40 velocity=95 time=0.06696425
EXTRACT: note_off channel=3 note=63 velocity=95 time=0.20089275
EXTRACT: note_on channel=3 note=63 velocity=95 time=0
EXTRACT: pitchwheel channel=6 pitch=0 time=0
EXTRACT: note_on channel=6 note=53 velocity=95 time=0
EXTRACT: pitchwheel channel=6 pitch=0 time=0
EXTRACT: note_on channel=6 note=53 velocity=95 time=0
EXTRACT: note_off channel=9 note=36 velocity=95 time=0
EXTRACT: pitchwheel channel=6 pitch=-128 time=0.016183027083333332
EXTRACT: pitchwheel channel=6 pitch=-128 time=0
EXTRACT: pitchwheel channel=6 pitch=-256 time=0.016183027083333332
EXTRACT: pitchwheel channel=6 pitch=-256 time=0
EXTRACT: pitchwheel channel=6 pitch=-384 time=0.016183027083333332
EXTRACT: pitchwheel channel=6 pitch=-384 time=0
EXTRACT: pitchwheel channel=6 pitch=-512 time=0.016183027083333332
EXTRACT: pitchwheel channel=6 pitch=-512 time=0
EXTRACT: pitchwheel channel=6 pitch=-640 time=0.016183027083333332
EXTRACT: pitchwheel channel=6 pitch=-640 time=0
EXTRACT: pitchwheel channel=6 pitch=-768 time=0.016183027083333332
EXTRACT: pitchwheel channel=6 pitch=-768 time=0
EXTRACT: pitchwheel channel=6 pitch=-896 time=0.016183027083333332
EXTRACT: pitchwheel channel=6 pitch=-896 time=0
EXTRACT: pitchwheel channel=6 pitch=-1024 time=0.016183027083333332
EXTRACT: pitchwheel channel=6 pitch=-1024 time=0
EXTRACT: pitchwheel channel=6 pitch=-1152 time=0.016183027083333332
EXTRACT: pitchwheel channel=6 pitch=-1152 time=0
EXTRACT: pitchwheel channel=6 pitch=-1280 time=0.016183027083333332
EXTRACT: pitchwheel channel=6 pitch=-1280 time=0
EXTRACT: pitchwheel channel=6 pitch=-1408 time=0.016183027083333332
EXTRACT: pitchwheel channel=6 pitch=-1408 time=0
EXTRACT: pitchwheel channel=6 pitch=-1536 time=0.016183027083333332
EXTRACT: pitchwheel channel=6 pitch=-1536 time=0
EXTRACT: pitchwheel channel=6 pitch=-1664 time=0.016183027083333332
EXTRACT: pitchwheel channel=6 pitch=-1664 time=0
EXTRACT: pitchwheel channel=6 pitch=-1792 time=0.016183027083333332
EXTRACT: pitchwheel channel=6 pitch=-1792 time=0
EXTRACT: pitchwheel channel=6 pitch=-1920 time=0.016183027083333332
EXTRACT: pitchwheel channel=6 pitch=-1920 time=0
EXTRACT: pitchwheel channel=6 pitch=-2048 time=0.016183027083333332
EXTRACT: pitchwheel channel=6 pitch=-2048 time=0
EXTRACT: note_off channel=5 note=64 velocity=95 time=0.008928566666666667
EXTRACT: note_off channel=5 note=59 velocity=95 time=0
EXTRACT: note_off channel=5 note=55 velocity=95 time=0
EXTRACT: note_off channel=5 note=50 velocity=95 time=0
EXTRACT: note_off channel=7 note=33 velocity=95 time=0
EXTRACT: note_on channel=7 note=33 velocity=95 time=0
EXTRACT: note_off channel=8 note=23 velocity=95 time=0
EXTRACT: note_on channel=8 note=23 velocity=95 time=0
EXTRACT: note_on channel=10 note=40 velocity=95 time=0
EXTRACT: note_on channel=9 note=36 velocity=95 time=0
EXTRACT: pitchwheel channel=6 pitch=-2176 time=0.007254460416666667
EXTRACT: pitchwheel channel=6 pitch=-2176 time=0
EXTRACT: pitchwheel channel=6 pitch=-2304 time=0.016183027083333332
EXTRACT: pitchwheel channel=6 pitch=-2304 time=0
EXTRACT: pitchwheel channel=6 pitch=-2432 time=0.016183027083333332
EXTRACT: pitchwheel channel=6 pitch=-2432 time=0
EXTRACT: pitchwheel channel=6 pitch=-2560 time=0.016183027083333332
EXTRACT: pitchwheel channel=6 pitch=-2560 time=0
EXTRACT: note_off channel=10 note=40 velocity=95 time=0.011160708333333333
EXTRACT: pitchwheel channel=6 pitch=-2688 time=0.00502231875
EXTRACT: pitchwheel channel=6 pitch=-2688 time=0
EXTRACT: pitchwheel channel=6 pitch=-2816 time=0.016183027083333332
EXTRACT: pitchwheel channel=6 pitch=-2816 time=0
EXTRACT: pitchwheel channel=6 pitch=-2944 time=0.016183027083333332
EXTRACT: pitchwheel channel=6 pitch=-2944 time=0
EXTRACT: pitchwheel channel=6 pitch=-3072 time=0.016183027083333332
EXTRACT: pitchwheel channel=6 pitch=-3072 time=0
EXTRACT: pitchwheel channel=6 pitch=-3200 time=0.016183027083333332
EXTRACT: pitchwheel channel=6 pitch=-3200 time=0
EXTRACT: pitchwheel channel=6 pitch=-3328 time=0.016183027083333332
EXTRACT: pitchwheel channel=6 pitch=-3328 time=0
EXTRACT: pitchwheel channel=6 pitch=-3456 time=0.016183027083333332
EXTRACT: pitchwheel channel=6 pitch=-3456 time=0
EXTRACT: pitchwheel channel=6 pitch=-3584 time=0.016183027083333332
EXTRACT: pitchwheel channel=6 pitch=-3584 time=0
EXTRACT: pitchwheel channel=6 pitch=-3712 time=0.016183027083333332
EXTRACT: pitchwheel channel=6 pitch=-3712 time=0
EXTRACT: pitchwheel channel=6 pitch=-3840 time=0.016183027083333332
EXTRACT: pitchwheel channel=6 pitch=-3840 time=0
EXTRACT: pitchwheel channel=6 pitch=-3968 time=0.016183027083333332
EXTRACT: pitchwheel channel=6 pitch=-3968 time=0
EXTRACT: pitchwheel channel=6 pitch=-4096 time=0.016183027083333332
EXTRACT: pitchwheel channel=6 pitch=-4096 time=0
EXTRACT: pitchwheel channel=6 pitch=-4224 time=0.016183027083333332
EXTRACT: pitchwheel channel=6 pitch=-4224 time=0
EXTRACT: note_off channel=3 note=63 velocity=95 time=0.0016741062500000002
EXTRACT: note_on channel=5 note=64 velocity=95 time=0
EXTRACT: note_on channel=5 note=59 velocity=95 time=0
EXTRACT: note_on channel=5 note=55 velocity=95 time=0
EXTRACT: note_on channel=5 note=50 velocity=95 time=0
EXTRACT: note_off channel=7 note=33 velocity=95 time=0
EXTRACT: note_off channel=9 note=36 velocity=95 time=0
EXTRACT: note_on channel=9 note=28 velocity=95 time=0
EXTRACT: note_on channel=9 note=39 velocity=95 time=0
EXTRACT: pitchwheel channel=6 pitch=-4352 time=0.014508920833333334
EXTRACT: pitchwheel channel=6 pitch=-4352 time=0
EXTRACT: pitchwheel channel=6 pitch=-4480 time=0.016183027083333332
EXTRACT: pitchwheel channel=6 pitch=-4480 time=0
EXTRACT: pitchwheel channel=6 pitch=-4608 time=0.016183027083333332
EXTRACT: pitchwheel channel=6 pitch=-4608 time=0
EXTRACT: pitchwheel channel=6 pitch=-4736 time=0.016183027083333332
EXTRACT: pitchwheel channel=6 pitch=-4736 time=0
EXTRACT: pitchwheel channel=6 pitch=-4864 time=0.016183027083333332
EXTRACT: pitchwheel channel=6 pitch=-4864 time=0
EXTRACT: pitchwheel channel=6 pitch=-4992 time=0.016183027083333332
EXTRACT: pitchwheel channel=6 pitch=-4992 time=0
EXTRACT: pitchwheel channel=6 pitch=-5120 time=0.016183027083333332
EXTRACT: pitchwheel channel=6 pitch=-5120 time=0
EXTRACT: pitchwheel channel=6 pitch=-5248 time=0.016183027083333332
EXTRACT: pitchwheel channel=6 pitch=-5248 time=0
EXTRACT: pitchwheel channel=6 pitch=-5376 time=0.016183027083333332
EXTRACT: pitchwheel channel=6 pitch=-5376 time=0
EXTRACT: pitchwheel channel=6 pitch=-5504 time=0.016183027083333332
EXTRACT: pitchwheel channel=6 pitch=-5504 time=0
EXTRACT: pitchwheel channel=6 pitch=-5632 time=0.016183027083333332
EXTRACT: pitchwheel channel=6 pitch=-5632 time=0
EXTRACT: pitchwheel channel=6 pitch=-5760 time=0.016183027083333332
EXTRACT: pitchwheel channel=6 pitch=-5760 time=0
EXTRACT: pitchwheel channel=6 pitch=-5888 time=0.016183027083333332
EXTRACT: pitchwheel channel=6 pitch=-5888 time=0
EXTRACT: pitchwheel channel=6 pitch=-6016 time=0.016183027083333332
EXTRACT: pitchwheel channel=6 pitch=-6016 time=0
EXTRACT: pitchwheel channel=6 pitch=-6144 time=0.016183027083333332
EXTRACT: pitchwheel channel=6 pitch=-6144 time=0
EXTRACT: pitchwheel channel=6 pitch=-6272 time=0.016183027083333332
EXTRACT: pitchwheel channel=6 pitch=-6272 time=0
EXTRACT: note_off channel=8 note=23 velocity=95 time=0.010602672916666667
EXTRACT: pitchwheel channel=6 pitch=-6400 time=0.005580354166666667
EXTRACT: pitchwheel channel=6 pitch=-6400 time=0
EXTRACT: pitchwheel channel=6 pitch=-6528 time=0.016183027083333332
EXTRACT: pitchwheel channel=6 pitch=-6528 time=0
EXTRACT: pitchwheel channel=6 pitch=-6656 time=0.016183027083333332
EXTRACT: pitchwheel channel=6 pitch=-6656 time=0
EXTRACT: pitchwheel channel=6 pitch=-6784 time=0.016183027083333332
EXTRACT: pitchwheel channel=6 pitch=-6784 time=0
EXTRACT: pitchwheel channel=6 pitch=-6912 time=0.016183027083333332
EXTRACT: pitchwheel channel=6 pitch=-6912 time=0
EXTRACT: pitchwheel channel=6 pitch=-7040 time=0.016183027083333332
EXTRACT: pitchwheel channel=6 pitch=-7040 time=0
EXTRACT: pitchwheel channel=6 pitch=-7168 time=0.016183027083333332
EXTRACT: pitchwheel channel=6 pitch=-7168 time=0
EXTRACT: pitchwheel channel=6 pitch=-7296 time=0.016183027083333332
EXTRACT: pitchwheel channel=6 pitch=-7296 time=0
EXTRACT: pitchwheel channel=6 pitch=-7424 time=0.016183027083333332
EXTRACT: pitchwheel channel=6 pitch=-7424 time=0
EXTRACT: pitchwheel channel=6 pitch=-7552 time=0.016183027083333332
EXTRACT: pitchwheel channel=6 pitch=-7552 time=0
EXTRACT: pitchwheel channel=6 pitch=-7680 time=0.016183027083333332
EXTRACT: pitchwheel channel=6 pitch=-7680 time=0
EXTRACT: pitchwheel channel=6 pitch=-7808 time=0.016183027083333332
EXTRACT: pitchwheel channel=6 pitch=-7808 time=0
EXTRACT: pitchwheel channel=6 pitch=-7936 time=0.016183027083333332
EXTRACT: pitchwheel channel=6 pitch=-7936 time=0
EXTRACT: pitchwheel channel=6 pitch=-8064 time=0.016183027083333332
EXTRACT: pitchwheel channel=6 pitch=-8064 time=0
EXTRACT: pitchwheel channel=6 pitch=-8192 time=0.016183027083333332
EXTRACT: pitchwheel channel=6 pitch=-8192 time=0
EXTRACT: pitchwheel channel=6 pitch=-8192 time=0.016183027083333332
EXTRACT: pitchwheel channel=6 pitch=-8192 time=0
EXTRACT: pitchwheel channel=6 pitch=-8192 time=0.016183027083333332
EXTRACT: pitchwheel channel=6 pitch=-8192 time=0
EXTRACT: pitchwheel channel=3 pitch=0 time=0.0033482125000000003
EXTRACT: note_on channel=3 note=70 velocity=95 time=0
EXTRACT: pitchwheel channel=6 pitch=-8192 time=0
EXTRACT: pitchwheel channel=6 pitch=0 time=0
EXTRACT: note_off channel=6 note=53 velocity=95 time=0
EXTRACT: pitchwheel channel=6 pitch=-8192 time=0
EXTRACT: pitchwheel channel=6 pitch=0 time=0
EXTRACT: note_off channel=6 note=53 velocity=95 time=0
EXTRACT: note_on channel=7 note=33 velocity=95 time=0
EXTRACT: note_on channel=8 note=23 velocity=95 time=0
EXTRACT: note_on channel=10 note=40 velocity=95 time=0
EXTRACT: note_off channel=9 note=28 velocity=95 time=0
EXTRACT: note_off channel=9 note=39 velocity=95 time=0
EXTRACT: note_on channel=9 note=36 velocity=95 time=0
EXTRACT: pitchwheel channel=4 pitch=0 time=0.033482125
EXTRACT: note_on channel=4 note=70 velocity=95 time=0
EXTRACT: pitchwheel channel=3 pitch=-128 time=0.0027901770833333333
EXTRACT: note_off channel=10 note=40 velocity=95 time=0.030691947916666667
EXTRACT: pitchwheel channel=4 pitch=-128 time=0.0027901770833333333
EXTRACT: pitchwheel channel=3 pitch=-256 time=0.0027901770833333333
EXTRACT: pitchwheel channel=4 pitch=-256 time=0.033482125
EXTRACT: pitchwheel channel=3 pitch=-384 time=0.0027901770833333333
EXTRACT: pitchwheel channel=4 pitch=-384 time=0.033482125
EXTRACT: pitchwheel channel=3 pitch=-512 time=0.0027901770833333333
EXTRACT: pitchwheel channel=4 pitch=-512 time=0.033482125
EXTRACT: pitchwheel channel=3 pitch=-640 time=0.0027901770833333333
EXTRACT: pitchwheel channel=4 pitch=-640 time=0.033482125
EXTRACT: pitchwheel channel=3 pitch=-768 time=0.0027901770833333333
EXTRACT: pitchwheel channel=4 pitch=-768 time=0.033482125
EXTRACT: pitchwheel channel=3 pitch=-896 time=0.0027901770833333333
EXTRACT: note_off channel=5 note=64 velocity=95 time=0.013950885416666668
EXTRACT: note_off channel=5 note=59 velocity=95 time=0
EXTRACT: note_off channel=5 note=55 velocity=95 time=0
EXTRACT: note_off channel=5 note=50 velocity=95 time=0
EXTRACT: pitchwheel channel=4 pitch=-896 time=0.019531239583333335
EXTRACT: pitchwheel channel=3 pitch=-1024 time=0.0027901770833333333
EXTRACT: pitchwheel channel=4 pitch=-1024 time=0.033482125
EXTRACT: pitchwheel channel=3 pitch=-1152 time=0.0027901770833333333
EXTRACT: pitchwheel channel=4 pitch=-1152 time=0.033482125
EXTRACT: pitchwheel channel=3 pitch=-1280 time=0.0027901770833333333
EXTRACT: pitchwheel channel=4 pitch=-1280 time=0.033482125
EXTRACT: pitchwheel channel=3 pitch=-1408 time=0.0027901770833333333
EXTRACT: pitchwheel channel=3 pitch=-1408 time=0.0027901770833333333
EXTRACT: pitchwheel channel=3 pitch=0 time=0
EXTRACT: note_off channel=3 note=70 velocity=95 time=0
EXTRACT: pitchwheel channel=3 pitch=0 time=0
EXTRACT: note_on channel=3 note=68 velocity=95 time=0
EXTRACT: pitchwheel channel=4 pitch=-1408 time=0.030691947916666667
EXTRACT: pitchwheel channel=4 pitch=-1408 time=0.0027901770833333333
EXTRACT: pitchwheel channel=4 pitch=0 time=0
EXTRACT: note_off channel=4 note=70 velocity=95 time=0
EXTRACT: pitchwheel channel=4 pitch=0 time=0
EXTRACT: note_on channel=4 note=68 velocity=95 time=0
EXTRACT: pitchwheel channel=3 pitch=-128 time=0.020089275
EXTRACT: pitchwheel channel=4 pitch=-128 time=0.033482125
EXTRACT: pitchwheel channel=3 pitch=-256 time=0.020089275
EXTRACT: note_on channel=5 note=64 velocity=95 time=0.026785700000000003
EXTRACT: note_on channel=5 note=59 velocity=95 time=0
EXTRACT: note_on channel=5 note=55 velocity=95 time=0
EXTRACT: note_on channel=5 note=50 velocity=95 time=0
EXTRACT: note_off channel=7 note=33 velocity=95 time=0
EXTRACT: note_off channel=8 note=23 velocity=95 time=0
EXTRACT: note_off channel=9 note=36 velocity=95 time=0
EXTRACT: note_on channel=9 note=28 velocity=95 time=0
EXTRACT: note_on channel=9 note=39 velocity=95 time=0
EXTRACT: pitchwheel channel=4 pitch=-256 time=0.006696425000000001
EXTRACT: pitchwheel channel=3 pitch=-384 time=0.020089275
EXTRACT: pitchwheel channel=4 pitch=-384 time=0.033482125
EXTRACT: pitchwheel channel=3 pitch=-512 time=0.020089275
EXTRACT: pitchwheel channel=4 pitch=-512 time=0.033482125
EXTRACT: pitchwheel channel=3 pitch=-640 time=0.020089275
EXTRACT: pitchwheel channel=3 pitch=-640 time=0
EXTRACT: pitchwheel channel=3 pitch=0 time=0
EXTRACT: note_off channel=3 note=68 velocity=95 time=0
EXTRACT: note_on channel=3 note=67 velocity=95 time=0
EXTRACT: pitchwheel channel=4 pitch=-640 time=0.033482125
EXTRACT: pitchwheel channel=4 pitch=-640 time=0
EXTRACT: pitchwheel channel=4 pitch=0 time=0
EXTRACT: note_off channel=4 note=68 velocity=95 time=0
EXTRACT: note_on channel=4 note=67 velocity=95 time=0
EXTRACT: note_off channel=3 note=67 velocity=95 time=0.100446375
EXTRACT: pitchwheel channel=3 pitch=0 time=0
EXTRACT: note_on channel=3 note=67 velocity=95 time=0
EXTRACT: note_on channel=7 note=33 velocity=95 time=0
EXTRACT: note_on channel=8 note=23 velocity=95 time=0
EXTRACT: note_on channel=10 note=40 velocity=95 time=0
EXTRACT: note_off channel=9 note=28 velocity=95 time=0
EXTRACT: note_off channel=9 note=39 velocity=95 time=0
EXTRACT: note_on channel=9 note=36 velocity=95 time=0
EXTRACT: note_off channel=4 note=67 velocity=95 time=0.033482125
EXTRACT: pitchwheel channel=4 pitch=0 time=0
EXTRACT: note_on channel=4 note=67 velocity=95 time=0
EXTRACT: pitchwheel channel=3 pitch=-128 time=0.020089275
EXTRACT: note_off channel=10 note=40 velocity=95 time=0.013392850000000001
EXTRACT: pitchwheel channel=4 pitch=-128 time=0.020089275
EXTRACT: pitchwheel channel=3 pitch=-256 time=0.020089275
EXTRACT: pitchwheel channel=4 pitch=-256 time=0.033482125
EXTRACT: pitchwheel channel=3 pitch=-384 time=0.020089275
EXTRACT: pitchwheel channel=4 pitch=-384 time=0.033482125
EXTRACT: pitchwheel channel=3 pitch=-512 time=0.020089275
EXTRACT: pitchwheel channel=4 pitch=-512 time=0.033482125
EXTRACT: pitchwheel channel=3 pitch=-640 time=0.020089275
EXTRACT: pitchwheel channel=3 pitch=-640 time=0
EXTRACT: pitchwheel channel=3 pitch=0 time=0
EXTRACT: note_off channel=3 note=67 velocity=95 time=0
EXTRACT: pitchwheel channel=3 pitch=256 time=0
EXTRACT: note_on channel=3 note=67 velocity=95 time=0
EXTRACT: note_off channel=9 note=36 velocity=95 time=0
EXTRACT: pitchwheel channel=4 pitch=-640 time=0.033482125
EXTRACT: pitchwheel channel=4 pitch=-640 time=0
EXTRACT: pitchwheel channel=4 pitch=0 time=0
EXTRACT: note_off channel=4 note=67 velocity=95 time=0
EXTRACT: pitchwheel channel=4 pitch=256 time=0
EXTRACT: note_on channel=4 note=67 velocity=95 time=0
EXTRACT: pitchwheel channel=3 pitch=128 time=0.100446375
EXTRACT: pitchwheel channel=4 pitch=128 time=0.033482125
EXTRACT: pitchwheel channel=3 pitch=0 time=0.100446375
EXTRACT: pitchwheel channel=3 pitch=0 time=0
EXTRACT: pitchwheel channel=3 pitch=0 time=0
EXTRACT: note_off channel=3 note=67 velocity=95 time=0
EXTRACT: pitchwheel channel=3 pitch=0 time=0
EXTRACT: note_on channel=3 note=68 velocity=95 time=0
EXTRACT: note_off channel=5 note=64 velocity=95 time=0
EXTRACT: note_off channel=5 note=59 velocity=95 time=0
EXTRACT: note_off channel=5 note=55 velocity=95 time=0
EXTRACT: note_off channel=5 note=50 velocity=95 time=0
EXTRACT: note_off channel=7 note=33 velocity=95 time=0
EXTRACT: note_on channel=7 note=33 velocity=95 time=0
EXTRACT: note_off channel=8 note=23 velocity=95 time=0
EXTRACT: note_on channel=8 note=23 velocity=95 time=0
EXTRACT: note_on channel=10 note=40 velocity=95 time=0
EXTRACT: note_on channel=9 note=36 velocity=95 time=0
EXTRACT: pitchwheel channel=4 pitch=0 time=0.033482125
EXTRACT: pitchwheel channel=4 pitch=0 time=0
EXTRACT: pitchwheel channel=4 pitch=0 time=0
EXTRACT: note_off channel=4 note=67 velocity=95 time=0
EXTRACT: pitchwheel channel=4 pitch=0 time=0
EXTRACT: note_on channel=4 note=68 velocity=95 time=0
EXTRACT: pitchwheel channel=3 pitch=-128 time=0.020089275
EXTRACT: note_off channel=10 note=40 velocity=95 time=0.013392850000000001
EXTRACT: pitchwheel channel=4 pitch=-128 time=0.020089275
EXTRACT: pitchwheel channel=3 pitch=-256 time=0.020089275
EXTRACT: pitchwheel channel=4 pitch=-256 time=0.033482125
EXTRACT: pitchwheel channel=3 pitch=-384 time=0.020089275
EXTRACT: pitchwheel channel=4 pitch=-384 time=0.033482125
EXTRACT: pitchwheel channel=3 pitch=-512 time=0.020089275
EXTRACT: pitchwheel channel=4 pitch=-512 time=0.033482125
EXTRACT: pitchwheel channel=3 pitch=-640 time=0.020089275
EXTRACT: pitchwheel channel=3 pitch=-640 time=0
EXTRACT: pitchwheel channel=3 pitch=0 time=0
EXTRACT: note_off channel=3 note=68 velocity=95 time=0
EXTRACT: pitchwheel channel=3 pitch=0 time=0
EXTRACT: note_on channel=3 note=68 velocity=95 time=0
EXTRACT: note_on channel=5 note=64 velocity=95 time=0
EXTRACT: note_on channel=5 note=59 velocity=95 time=0
EXTRACT: note_on channel=5 note=55 velocity=95 time=0
EXTRACT: note_on channel=5 note=50 velocity=95 time=0
EXTRACT: note_off channel=7 note=33 velocity=95 time=0
EXTRACT: note_off channel=9 note=36 velocity=95 time=0
EXTRACT: note_on channel=9 note=28 velocity=95 time=0
EXTRACT: note_on channel=9 note=39 velocity=95 time=0
EXTRACT: pitchwheel channel=3 pitch=-128 time=0.021205345833333333
EXTRACT: pitchwheel channel=4 pitch=-640 time=0.012276779166666666
EXTRACT: pitchwheel channel=4 pitch=-640 time=0
EXTRACT: pitchwheel channel=4 pitch=0 time=0
EXTRACT: note_off channel=4 note=68 velocity=95 time=0
EXTRACT: pitchwheel channel=4 pitch=0 time=0
EXTRACT: note_on channel=4 note=68 velocity=95 time=0
EXTRACT: pitchwheel channel=3 pitch=-256 time=0.008928566666666667
EXTRACT: pitchwheel channel=4 pitch=-128 time=0.012276779166666666
EXTRACT: pitchwheel channel=3 pitch=-384 time=0.008928566666666667
EXTRACT: pitchwheel channel=4 pitch=-256 time=0.012276779166666666
EXTRACT: pitchwheel channel=3 pitch=-512 time=0.008928566666666667
EXTRACT: pitchwheel channel=4 pitch=-384 time=0.012276779166666666
EXTRACT: pitchwheel channel=3 pitch=-640 time=0.008928566666666667
EXTRACT: pitchwheel channel=4 pitch=-512 time=0.012276779166666666
EXTRACT: pitchwheel channel=3 pitch=-768 time=0.008928566666666667
EXTRACT: pitchwheel channel=4 pitch=-640 time=0.012276779166666666
EXTRACT: pitchwheel channel=3 pitch=-896 time=0.008928566666666667
EXTRACT: pitchwheel channel=4 pitch=-768 time=0.012276779166666666
EXTRACT: pitchwheel channel=3 pitch=-1024 time=0.008928566666666667
EXTRACT: pitchwheel channel=4 pitch=-896 time=0.012276779166666666
EXTRACT: pitchwheel channel=3 pitch=-1152 time=0.008928566666666667
EXTRACT: pitchwheel channel=4 pitch=-1024 time=0.012276779166666666
EXTRACT: pitchwheel channel=3 pitch=-1280 time=0.008928566666666667
EXTRACT: pitchwheel channel=4 pitch=-1152 time=0.012276779166666666
EXTRACT: pitchwheel channel=3 pitch=-1408 time=0.008928566666666667
EXTRACT: pitchwheel channel=3 pitch=-1408 time=0.0011160708333333334
EXTRACT: pitchwheel channel=3 pitch=0 time=0
EXTRACT: note_off channel=3 note=68 velocity=95 time=0
EXTRACT: pitchwheel channel=4 pitch=-1280 time=0.011160708333333333
EXTRACT: pitchwheel channel=4 pitch=-1408 time=0.021205345833333333
EXTRACT: pitchwheel channel=3 pitch=0 time=0.0011160708333333334
EXTRACT: note_on channel=3 note=66 velocity=95 time=0
EXTRACT: pitchwheel channel=4 pitch=-1408 time=0
EXTRACT: pitchwheel channel=4 pitch=0 time=0
EXTRACT: note_off channel=4 note=68 velocity=95 time=0
EXTRACT: note_off channel=8 note=23 velocity=95 time=0
EXTRACT: pitchwheel channel=4 pitch=0 time=0.033482125
EXTRACT: note_on channel=4 note=66 velocity=95 time=0
EXTRACT: pitchwheel channel=3 pitch=128 time=0.033482125
EXTRACT: pitchwheel channel=4 pitch=128 time=0.033482125
EXTRACT: pitchwheel channel=3 pitch=256 time=0.033482125
EXTRACT: pitchwheel channel=3 pitch=256 time=0
EXTRACT: pitchwheel channel=3 pitch=0 time=0
EXTRACT: note_off channel=3 note=66 velocity=95 time=0
EXTRACT: pitchwheel channel=3 pitch=0 time=0
EXTRACT: note_on channel=3 note=66 velocity=95 time=0
EXTRACT: pitchwheel channel=4 pitch=256 time=0.033482125
EXTRACT: pitchwheel channel=4 pitch=256 time=0
EXTRACT: pitchwheel channel=4 pitch=0 time=0
EXTRACT: note_off channel=4 note=66 velocity=95 time=0
EXTRACT: pitchwheel channel=4 pitch=0 time=0
EXTRACT: note_on channel=4 note=66 velocity=95 time=0
EXTRACT: pitchwheel channel=3 pitch=128 time=0.033482125
EXTRACT: pitchwheel channel=4 pitch=128 time=0.033482125
EXTRACT: pitchwheel channel=3 pitch=256 time=0.033482125
EXTRACT: pitchwheel channel=3 pitch=256 time=0
EXTRACT: pitchwheel channel=3 pitch=0 time=0
EXTRACT: note_off channel=3 note=66 velocity=95 time=0
EXTRACT: pitchwheel channel=3 pitch=1024 time=0
EXTRACT: note_on channel=3 note=66 velocity=95 time=0
EXTRACT: note_on channel=7 note=33 velocity=95 time=0
EXTRACT: note_on channel=8 note=23 velocity=95 time=0
EXTRACT: note_on channel=10 note=40 velocity=95 time=0
EXTRACT: note_off channel=9 note=28 velocity=95 time=0
EXTRACT: note_off channel=9 note=39 velocity=95 time=0
EXTRACT: note_on channel=9 note=36 velocity=95 time=0
EXTRACT: pitchwheel channel=4 pitch=256 time=0.033482125
EXTRACT: pitchwheel channel=4 pitch=256 time=0
EXTRACT: pitchwheel channel=4 pitch=0 time=0
EXTRACT: note_off channel=4 note=66 velocity=95 time=0
EXTRACT: pitchwheel channel=4 pitch=1024 time=0
EXTRACT: note_on channel=4 note=66 velocity=95 time=0
EXTRACT: pitchwheel channel=3 pitch=896 time=0.005580354166666667
EXTRACT: note_off channel=10 note=40 velocity=95 time=0.027901770833333336
EXTRACT: pitchwheel channel=4 pitch=896 time=0.005580354166666667
EXTRACT: pitchwheel channel=3 pitch=768 time=0.005580354166666667
EXTRACT: pitchwheel channel=4 pitch=768 time=0.033482125
EXTRACT: pitchwheel channel=3 pitch=640 time=0.005580354166666667
EXTRACT: pitchwheel channel=4 pitch=640 time=0.033482125
EXTRACT: pitchwheel channel=3 pitch=512 time=0.005580354166666667
EXTRACT: pitchwheel channel=4 pitch=512 time=0.033482125
EXTRACT: pitchwheel channel=3 pitch=384 time=0.005580354166666667
EXTRACT: pitchwheel channel=4 pitch=384 time=0.033482125
EXTRACT: pitchwheel channel=3 pitch=256 time=0.005580354166666667
EXTRACT: pitchwheel channel=3 pitch=256 time=0
EXTRACT: pitchwheel channel=3 pitch=0 time=0
EXTRACT: note_off channel=3 note=66 velocity=95 time=0
EXTRACT: pitchwheel channel=3 pitch=1024 time=0.033482125
EXTRACT: note_on channel=3 note=66 velocity=95 time=0
EXTRACT: pitchwheel channel=4 pitch=256 time=0
EXTRACT: pitchwheel channel=4 pitch=256 time=0
EXTRACT: pitchwheel channel=4 pitch=0 time=0
EXTRACT: note_off channel=4 note=66 velocity=95 time=0
EXTRACT: note_off channel=5 note=64 velocity=95 time=0
EXTRACT: note_off channel=5 note=59 velocity=95 time=0
EXTRACT: note_off channel=5 note=55 velocity=95 time=0
EXTRACT: note_off channel=5 note=50 velocity=95 time=0
EXTRACT: pitchwheel channel=3 pitch=896 time=0.022321416666666666
EXTRACT: pitchwheel channel=4 pitch=1024 time=0.011160708333333333
EXTRACT: note_on channel=4 note=66 velocity=95 time=0
EXTRACT: pitchwheel channel=3 pitch=768 time=0.011160708333333333
EXTRACT: pitchwheel channel=4 pitch=896 time=0.011160708333333333
EXTRACT: pitchwheel channel=3 pitch=640 time=0.011160708333333333
EXTRACT: pitchwheel channel=4 pitch=768 time=0.011160708333333333
EXTRACT: pitchwheel channel=3 pitch=512 time=0.011160708333333333
EXTRACT: pitchwheel channel=4 pitch=640 time=0.011160708333333333
EXTRACT: pitchwheel channel=3 pitch=384 time=0.011160708333333333
EXTRACT: pitchwheel channel=4 pitch=512 time=0.011160708333333333
EXTRACT: pitchwheel channel=3 pitch=256 time=0.011160708333333333
EXTRACT: pitchwheel channel=3 pitch=256 time=0
EXTRACT: pitchwheel channel=3 pitch=0 time=0
EXTRACT: note_off channel=3 note=66 velocity=95 time=0
EXTRACT: pitchwheel channel=3 pitch=256 time=0
EXTRACT: note_on channel=3 note=67 velocity=95 time=0
EXTRACT: pitchwheel channel=4 pitch=384 time=0.011160708333333333
EXTRACT: pitchwheel channel=4 pitch=256 time=0.022321416666666666
EXTRACT: pitchwheel channel=4 pitch=256 time=0
EXTRACT: pitchwheel channel=4 pitch=0 time=0
EXTRACT: note_off channel=4 note=66 velocity=95 time=0
EXTRACT: pitchwheel channel=4 pitch=256 time=0
EXTRACT: note_on channel=4 note=67 velocity=95 time=0
EXTRACT: pitchwheel channel=3 pitch=128 time=0.100446375
EXTRACT: note_on channel=5 note=64 velocity=95 time=0
EXTRACT: note_on channel=5 note=59 velocity=95 time=0
EXTRACT: note_on channel=5 note=55 velocity=95 time=0
EXTRACT: note_on channel=5 note=50 velocity=95 time=0
EXTRACT: note_off channel=7 note=33 velocity=95 time=0
EXTRACT: note_off channel=8 note=23 velocity=95 time=0
EXTRACT: note_off channel=9 note=36 velocity=95 time=0
EXTRACT: note_on channel=9 note=28 velocity=95 time=0
EXTRACT: note_on channel=9 note=39 velocity=95 time=0
EXTRACT: pitchwheel channel=4 pitch=128 time=0.033482125
EXTRACT: pitchwheel channel=3 pitch=0 time=0.100446375
EXTRACT: pitchwheel channel=3 pitch=0 time=0
EXTRACT: pitchwheel channel=3 pitch=0 time=0
EXTRACT: note_off channel=3 note=67 velocity=95 time=0
EXTRACT: pitchwheel channel=3 pitch=0 time=0
EXTRACT: note_on channel=3 note=66 velocity=95 time=0
EXTRACT: note_on channel=7 note=33 velocity=95 time=0
EXTRACT: note_on channel=8 note=23 velocity=95 time=0
EXTRACT: note_on channel=10 note=40 velocity=95 time=0
EXTRACT: note_off channel=9 note=28 velocity=95 time=0
EXTRACT: note_off channel=9 note=39 velocity=95 time=0
EXTRACT: note_on channel=9 note=36 velocity=95 time=0
EXTRACT: pitchwheel channel=3 pitch=128 time=0.026785700000000003
EXTRACT: pitchwheel channel=4 pitch=0 time=0.006696425000000001
EXTRACT: pitchwheel channel=4 pitch=0 time=0
EXTRACT: pitchwheel channel=4 pitch=0 time=0
EXTRACT: note_off channel=4 note=67 velocity=95 time=0
EXTRACT: pitchwheel channel=4 pitch=0 time=0
EXTRACT: note_on channel=4 note=66 velocity=95 time=0
EXTRACT: pitchwheel channel=3 pitch=256 time=0.020089275
EXTRACT: pitchwheel channel=4 pitch=128 time=0.006696425000000001
EXTRACT: note_off channel=10 note=40 velocity=95 time=0.006696425000000001
EXTRACT: pitchwheel channel=3 pitch=384 time=0.013392850000000001
EXTRACT: pitchwheel channel=4 pitch=256 time=0.006696425000000001
EXTRACT: pitchwheel channel=3 pitch=512 time=0.020089275
EXTRACT: pitchwheel channel=4 pitch=384 time=0.006696425000000001
EXTRACT: pitchwheel channel=3 pitch=640 time=0.020089275
EXTRACT: pitchwheel channel=3 pitch=640 time=0
EXTRACT: pitchwheel channel=3 pitch=0 time=0
EXTRACT: note_off channel=3 note=66 velocity=95 time=0
EXTRACT: pitchwheel channel=3 pitch=0 time=0
EXTRACT: note_on channel=3 note=67 velocity=95 time=0
EXTRACT: note_off channel=7 note=33 velocity=95 time=0
EXTRACT: note_on channel=7 note=33 velocity=95 time=0
EXTRACT: note_off channel=8 note=23 velocity=95 time=0
EXTRACT: note_on channel=8 note=23 velocity=95 time=0
EXTRACT: note_on channel=10 note=40 velocity=95 time=0
EXTRACT: note_off channel=9 note=36 velocity=95 time=0
EXTRACT: note_on channel=9 note=36 velocity=95 time=0
EXTRACT: pitchwheel channel=4 pitch=512 time=0.006696425000000001
EXTRACT: pitchwheel channel=4 pitch=640 time=0.026785700000000003
EXTRACT: pitchwheel channel=4 pitch=640 time=0
EXTRACT: pitchwheel channel=4 pitch=0 time=0
EXTRACT: note_off channel=4 note=66 velocity=95 time=0
EXTRACT: pitchwheel channel=4 pitch=0 time=0
EXTRACT: note_on channel=4 note=67 velocity=95 time=0
EXTRACT: pitchwheel channel=3 pitch=-128 time=0.020089275
EXTRACT: note_off channel=10 note=40 velocity=95 time=0.013392850000000001
EXTRACT: pitchwheel channel=4 pitch=-128 time=0.020089275
EXTRACT: pitchwheel channel=3 pitch=-256 time=0.020089275
EXTRACT: pitchwheel channel=4 pitch=-256 time=0.033482125
EXTRACT: pitchwheel channel=3 pitch=-384 time=0.020089275
EXTRACT: pitchwheel channel=4 pitch=-384 time=0.033482125
EXTRACT: pitchwheel channel=3 pitch=-512 time=0.020089275
EXTRACT: pitchwheel channel=4 pitch=-512 time=0.033482125
EXTRACT: pitchwheel channel=3 pitch=-640 time=0.020089275
EXTRACT: pitchwheel channel=3 pitch=-640 time=0
EXTRACT: pitchwheel channel=3 pitch=0 time=0
EXTRACT: note_off channel=3 note=67 velocity=95 time=0
EXTRACT: pitchwheel channel=3 pitch=0 time=0
EXTRACT: note_on channel=3 note=67 velocity=95 time=0
EXTRACT: pitchwheel channel=6 pitch=0 time=0
EXTRACT: note_on channel=6 note=53 velocity=95 time=0
EXTRACT: pitchwheel channel=6 pitch=0 time=0
EXTRACT: note_on channel=6 note=53 velocity=95 time=0
EXTRACT: note_off channel=7 note=33 velocity=95 time=0
EXTRACT: note_off channel=9 note=36 velocity=95 time=0
EXTRACT: pitchwheel channel=6 pitch=-128 time=0.016183027083333332
EXTRACT: pitchwheel channel=6 pitch=-128 time=0
EXTRACT: pitchwheel channel=6 pitch=-256 time=0.016183027083333332
EXTRACT: pitchwheel channel=6 pitch=-256 time=0
EXTRACT: pitchwheel channel=4 pitch=-640 time=0.0011160708333333334
EXTRACT: pitchwheel channel=4 pitch=-640 time=0
EXTRACT: pitchwheel channel=4 pitch=0 time=0
EXTRACT: note_off channel=4 note=67 velocity=95 time=0
EXTRACT: pitchwheel channel=4 pitch=0 time=0
EXTRACT: note_on channel=4 note=67 velocity=95 time=0
EXTRACT: pitchwheel channel=6 pitch=-384 time=0.015066956250000001
EXTRACT: pitchwheel channel=6 pitch=-384 time=0
EXTRACT: pitchwheel channel=3 pitch=-128 time=0.00502231875
EXTRACT: pitchwheel channel=6 pitch=-512 time=0.011160708333333333
EXTRACT: pitchwheel channel=6 pitch=-512 time=0
EXTRACT: pitchwheel channel=6 pitch=-640 time=0.016183027083333332
EXTRACT: pitchwheel channel=6 pitch=-640 time=0
EXTRACT: pitchwheel channel=4 pitch=-128 time=0.006138389583333333
EXTRACT: pitchwheel channel=6 pitch=-768 time=0.0100446375
EXTRACT: pitchwheel channel=6 pitch=-768 time=0
EXTRACT: pitchwheel channel=3 pitch=-256 time=0.0100446375
EXTRACT: pitchwheel channel=6 pitch=-896 time=0.006138389583333333
EXTRACT: pitchwheel channel=6 pitch=-896 time=0
EXTRACT: pitchwheel channel=6 pitch=-1024 time=0.016183027083333332
EXTRACT: pitchwheel channel=6 pitch=-1024 time=0
EXTRACT: pitchwheel channel=4 pitch=-256 time=0.011160708333333333
EXTRACT: pitchwheel channel=6 pitch=-1152 time=0.00502231875
EXTRACT: pitchwheel channel=6 pitch=-1152 time=0
EXTRACT: pitchwheel channel=3 pitch=-384 time=0.015066956250000001
EXTRACT: pitchwheel channel=6 pitch=-1280 time=0.0011160708333333334
EXTRACT: pitchwheel channel=6 pitch=-1280 time=0
EXTRACT: pitchwheel channel=6 pitch=-1408 time=0.016183027083333332
EXTRACT: pitchwheel channel=6 pitch=-1408 time=0
EXTRACT: pitchwheel channel=4 pitch=-384 time=0.016183027083333332
EXTRACT: pitchwheel channel=6 pitch=-1536 time=0
EXTRACT: pitchwheel channel=6 pitch=-1536 time=0
EXTRACT: pitchwheel channel=6 pitch=-1664 time=0.016183027083333332
EXTRACT: pitchwheel channel=6 pitch=-1664 time=0
EXTRACT: pitchwheel channel=3 pitch=-512 time=0.003906247916666667
EXTRACT: pitchwheel channel=6 pitch=-1792 time=0.012276779166666666
EXTRACT: pitchwheel channel=6 pitch=-1792 time=0
EXTRACT: pitchwheel channel=6 pitch=-1920 time=0.016183027083333332
EXTRACT: pitchwheel channel=6 pitch=-1920 time=0
EXTRACT: pitchwheel channel=4 pitch=-512 time=0.00502231875
EXTRACT: pitchwheel channel=6 pitch=-2048 time=0.011160708333333333
EXTRACT: pitchwheel channel=6 pitch=-2048 time=0
EXTRACT: pitchwheel channel=3 pitch=-640 time=0.008928566666666667
EXTRACT: pitchwheel channel=3 pitch=-640 time=0
EXTRACT: pitchwheel channel=3 pitch=0 time=0
EXTRACT: note_off channel=3 note=67 velocity=95 time=0
EXTRACT: pitchwheel channel=3 pitch=0 time=0
EXTRACT: note_on channel=3 note=66 velocity=95 time=0
EXTRACT: note_off channel=5 note=64 velocity=95 time=0
EXTRACT: note_off channel=5 note=59 velocity=95 time=0
EXTRACT: note_off channel=5 note=55 velocity=95 time=0
EXTRACT: note_off channel=5 note=50 velocity=95 time=0
EXTRACT: note_on channel=7 note=33 velocity=95 time=0
EXTRACT: note_off channel=8 note=23 velocity=95 time=0
EXTRACT: note_on channel=8 note=23 velocity=95 time=0
EXTRACT: note_on channel=10 note=40 velocity=95 time=0
EXTRACT: note_on channel=9 note=36 velocity=95 time=0
EXTRACT: pitchwheel channel=6 pitch=-2176 time=0.007254460416666667
EXTRACT: pitchwheel channel=6 pitch=-2176 time=0
EXTRACT: pitchwheel channel=6 pitch=-2304 time=0.016183027083333332
EXTRACT: pitchwheel channel=6 pitch=-2304 time=0
EXTRACT: pitchwheel channel=4 pitch=-640 time=0.0100446375
EXTRACT: pitchwheel channel=4 pitch=-640 time=0
EXTRACT: pitchwheel channel=4 pitch=0 time=0
EXTRACT: note_off channel=4 note=67 velocity=95 time=0
EXTRACT: pitchwheel channel=4 pitch=0 time=0
EXTRACT: note_on channel=4 note=66 velocity=95 time=0
EXTRACT: pitchwheel channel=6 pitch=-2432 time=0.006138389583333333
EXTRACT: pitchwheel channel=6 pitch=-2432 time=0
EXTRACT: pitchwheel channel=6 pitch=-2560 time=0.016183027083333332
EXTRACT: pitchwheel channel=6 pitch=-2560 time=0
EXTRACT: note_off channel=10 note=40 velocity=95 time=0.011160708333333333
EXTRACT: pitchwheel channel=6 pitch=-2688 time=0.00502231875
EXTRACT: pitchwheel channel=6 pitch=-2688 time=0
EXTRACT: pitchwheel channel=6 pitch=-2816 time=0.016183027083333332
EXTRACT: pitchwheel channel=6 pitch=-2816 time=0
EXTRACT: pitchwheel channel=6 pitch=-2944 time=0.016183027083333332
EXTRACT: pitchwheel channel=6 pitch=-2944 time=0
EXTRACT: pitchwheel channel=6 pitch=-3072 time=0.016183027083333332
EXTRACT: pitchwheel channel=6 pitch=-3072 time=0
EXTRACT: pitchwheel channel=3 pitch=128 time=0.013392850000000001
EXTRACT: pitchwheel channel=6 pitch=-3200 time=0.0027901770833333333
EXTRACT: pitchwheel channel=6 pitch=-3200 time=0
EXTRACT: pitchwheel channel=6 pitch=-3328 time=0.016183027083333332
EXTRACT: pitchwheel channel=6 pitch=-3328 time=0
EXTRACT: pitchwheel channel=4 pitch=128 time=0.014508920833333334
EXTRACT: pitchwheel channel=6 pitch=-3456 time=0.0016741062500000002
EXTRACT: pitchwheel channel=6 pitch=-3456 time=0
EXTRACT: pitchwheel channel=6 pitch=-3584 time=0.016183027083333332
EXTRACT: pitchwheel channel=6 pitch=-3584 time=0
EXTRACT: pitchwheel channel=6 pitch=-3712 time=0.016183027083333332
EXTRACT: pitchwheel channel=6 pitch=-3712 time=0
EXTRACT: pitchwheel channel=6 pitch=-3840 time=0.016183027083333332
EXTRACT: pitchwheel channel=6 pitch=-3840 time=0
EXTRACT: pitchwheel channel=6 pitch=-3968 time=0.016183027083333332
EXTRACT: pitchwheel channel=6 pitch=-3968 time=0
EXTRACT: pitchwheel channel=6 pitch=-4096 time=0.016183027083333332
EXTRACT: pitchwheel channel=6 pitch=-4096 time=0
EXTRACT: pitchwheel channel=6 pitch=-4224 time=0.016183027083333332
EXTRACT: pitchwheel channel=6 pitch=-4224 time=0
EXTRACT: pitchwheel channel=3 pitch=256 time=0.0016741062500000002
EXTRACT: pitchwheel channel=3 pitch=256 time=0
EXTRACT: pitchwheel channel=3 pitch=0 time=0
EXTRACT: note_off channel=3 note=66 velocity=95 time=0
EXTRACT: pitchwheel channel=3 pitch=0 time=0
EXTRACT: note_on channel=3 note=67 velocity=95 time=0
EXTRACT: note_on channel=5 note=64 velocity=95 time=0
EXTRACT: note_on channel=5 note=59 velocity=95 time=0
EXTRACT: note_on channel=5 note=55 velocity=95 time=0
EXTRACT: note_on channel=5 note=50 velocity=95 time=0
EXTRACT: note_off channel=7 note=33 velocity=95 time=0
EXTRACT: note_off channel=9 note=36 velocity=95 time=0
EXTRACT: note_on channel=9 note=28 velocity=95 time=0
EXTRACT: note_on channel=9 note=39 velocity=95 time=0
EXTRACT: pitchwheel channel=6 pitch=-4352 time=0.014508920833333334
EXTRACT: pitchwheel channel=6 pitch=-4352 time=0
EXTRACT: pitchwheel channel=3 pitch=-128 time=0.0033482125000000003
EXTRACT: pitchwheel channel=6 pitch=-4480 time=0.012834814583333333
EXTRACT: pitchwheel channel=6 pitch=-4480 time=0
EXTRACT: pitchwheel channel=4 pitch=256 time=0.0027901770833333333
EXTRACT: pitchwheel channel=4 pitch=256 time=0
EXTRACT: pitchwheel channel=4 pitch=0 time=0
EXTRACT: note_off channel=4 note=66 velocity=95 time=0
EXTRACT: pitchwheel channel=4 pitch=0 time=0
EXTRACT: note_on channel=4 note=67 velocity=95 time=0
EXTRACT: pitchwheel channel=3 pitch=-256 time=0.0022321416666666667
EXTRACT: pitchwheel channel=6 pitch=-4608 time=0.011160708333333333
EXTRACT: pitchwheel channel=6 pitch=-4608 time=0
EXTRACT: pitchwheel channel=4 pitch=-128 time=0.0044642833333333335
EXTRACT: pitchwheel channel=3 pitch=-384 time=0.0022321416666666667
EXTRACT: pitchwheel channel=6 pitch=-4736 time=0.009486602083333334
EXTRACT: pitchwheel channel=6 pitch=-4736 time=0
EXTRACT: pitchwheel channel=4 pitch=-256 time=0.006138389583333333
EXTRACT: pitchwheel channel=3 pitch=-512 time=0.0022321416666666667
EXTRACT: pitchwheel channel=6 pitch=-4864 time=0.007812495833333334
EXTRACT: pitchwheel channel=6 pitch=-4864 time=0
EXTRACT: pitchwheel channel=4 pitch=-384 time=0.007812495833333334
EXTRACT: pitchwheel channel=3 pitch=-640 time=0.0022321416666666667
EXTRACT: pitchwheel channel=6 pitch=-4992 time=0.006138389583333333
EXTRACT: pitchwheel channel=6 pitch=-4992 time=0
EXTRACT: pitchwheel channel=4 pitch=-512 time=0.009486602083333334
EXTRACT: pitchwheel channel=3 pitch=-768 time=0.0022321416666666667
EXTRACT: pitchwheel channel=6 pitch=-5120 time=0.0044642833333333335
EXTRACT: pitchwheel channel=6 pitch=-5120 time=0
EXTRACT: pitchwheel channel=4 pitch=-640 time=0.011160708333333333
EXTRACT: pitchwheel channel=3 pitch=-896 time=0.0022321416666666667
EXTRACT: pitchwheel channel=6 pitch=-5248 time=0.0027901770833333333
EXTRACT: pitchwheel channel=6 pitch=-5248 time=0
EXTRACT: pitchwheel channel=4 pitch=-768 time=0.012834814583333333
EXTRACT: pitchwheel channel=3 pitch=-1024 time=0.0022321416666666667
EXTRACT: pitchwheel channel=6 pitch=-5376 time=0.0011160708333333334
EXTRACT: pitchwheel channel=6 pitch=-5376 time=0
EXTRACT: pitchwheel channel=4 pitch=-896 time=0.014508920833333334
EXTRACT: pitchwheel channel=6 pitch=-5504 time=0.0016741062500000002
EXTRACT: pitchwheel channel=6 pitch=-5504 time=0
EXTRACT: pitchwheel channel=3 pitch=-1152 time=0.0005580354166666667
EXTRACT: pitchwheel channel=4 pitch=-1024 time=0.015624991666666668
EXTRACT: pitchwheel channel=6 pitch=-5632 time=0
EXTRACT: pitchwheel channel=6 pitch=-5632 time=0
EXTRACT: pitchwheel channel=3 pitch=-1280 time=0.0022321416666666667
EXTRACT: pitchwheel channel=6 pitch=-5760 time=0.013950885416666668
EXTRACT: pitchwheel channel=6 pitch=-5760 time=0
EXTRACT: pitchwheel channel=4 pitch=-1152 time=0.0016741062500000002
EXTRACT: pitchwheel channel=3 pitch=-1408 time=0.0022321416666666667
EXTRACT: pitchwheel channel=3 pitch=-1408 time=0.0044642833333333335
EXTRACT: pitchwheel channel=3 pitch=0 time=0
EXTRACT: note_off channel=3 note=67 velocity=95 time=0
EXTRACT: pitchwheel channel=6 pitch=-5888 time=0.007812495833333334
EXTRACT: pitchwheel channel=6 pitch=-5888 time=0
EXTRACT: pitchwheel channel=4 pitch=-1280 time=0.0033482125000000003
EXTRACT: pitchwheel channel=6 pitch=-6016 time=0.012834814583333333
EXTRACT: pitchwheel channel=6 pitch=-6016 time=0
EXTRACT: pitchwheel channel=4 pitch=-1408 time=0.00502231875
EXTRACT: pitchwheel channel=4 pitch=-1408 time=0.0044642833333333335
EXTRACT: pitchwheel channel=4 pitch=0 time=0
EXTRACT: note_off channel=4 note=67 velocity=95 time=0
EXTRACT: pitchwheel channel=6 pitch=-6144 time=0.006696425000000001
EXTRACT: pitchwheel channel=6 pitch=-6144 time=0
EXTRACT: pitchwheel channel=6 pitch=-6272 time=0.016183027083333332
EXTRACT: pitchwheel channel=6 pitch=-6272 time=0
EXTRACT: pitchwheel channel=3 pitch=0 time=0.010602672916666667
EXTRACT: note_on channel=3 note=66 velocity=95 time=0
EXTRACT: note_off channel=8 note=23 velocity=95 time=0
EXTRACT: pitchwheel channel=6 pitch=-6400 time=0.005580354166666667
EXTRACT: pitchwheel channel=6 pitch=-6400 time=0
EXTRACT: pitchwheel channel=6 pitch=-6528 time=0.016183027083333332
EXTRACT: pitchwheel channel=6 pitch=-6528 time=0
EXTRACT: pitchwheel channel=4 pitch=0 time=0.01171874375
EXTRACT: note_on channel=4 note=66 velocity=95 time=0
EXTRACT: pitchwheel channel=6 pitch=-6656 time=0.0044642833333333335
EXTRACT: pitchwheel channel=6 pitch=-6656 time=0
EXTRACT: pitchwheel channel=6 pitch=-6784 time=0.016183027083333332
EXTRACT: pitchwheel channel=6 pitch=-6784 time=0
EXTRACT: pitchwheel channel=3 pitch=128 time=0.012834814583333333
EXTRACT: pitchwheel channel=6 pitch=-6912 time=0.0033482125000000003
EXTRACT: pitchwheel channel=6 pitch=-6912 time=0
EXTRACT: pitchwheel channel=6 pitch=-7040 time=0.016183027083333332
EXTRACT: pitchwheel channel=6 pitch=-7040 time=0
EXTRACT: pitchwheel channel=4 pitch=128 time=0.013950885416666668
EXTRACT: pitchwheel channel=6 pitch=-7168 time=0.0022321416666666667
EXTRACT: pitchwheel channel=6 pitch=-7168 time=0
EXTRACT: pitchwheel channel=6 pitch=-7296 time=0.016183027083333332
EXTRACT: pitchwheel channel=6 pitch=-7296 time=0
EXTRACT: pitchwheel channel=3 pitch=256 time=0.015066956250000001
EXTRACT: pitchwheel channel=3 pitch=256 time=0
EXTRACT: pitchwheel channel=3 pitch=0 time=0
EXTRACT: note_off channel=3 note=66 velocity=95 time=0
EXTRACT: pitchwheel channel=3 pitch=256 time=0
EXTRACT: note_on channel=3 note=66 velocity=95 time=0
EXTRACT: pitchwheel channel=6 pitch=-7424 time=0.0011160708333333334
EXTRACT: pitchwheel channel=6 pitch=-7424 time=0
EXTRACT: pitchwheel channel=6 pitch=-7552 time=0.016183027083333332
EXTRACT: pitchwheel channel=6 pitch=-7552 time=0
EXTRACT: pitchwheel channel=4 pitch=256 time=0.016183027083333332
EXTRACT: pitchwheel channel=4 pitch=256 time=0
EXTRACT: pitchwheel channel=4 pitch=0 time=0
EXTRACT: note_off channel=4 note=66 velocity=95 time=0
EXTRACT: pitchwheel channel=4 pitch=256 time=0
EXTRACT: note_on channel=4 note=66 velocity=95 time=0
EXTRACT: pitchwheel channel=6 pitch=-7680 time=0
EXTRACT: pitchwheel channel=6 pitch=-7680 time=0
EXTRACT: pitchwheel channel=6 pitch=-7808 time=0.016183027083333332
EXTRACT: pitchwheel channel=6 pitch=-7808 time=0
EXTRACT: pitchwheel channel=6 pitch=-7936 time=0.016183027083333332
EXTRACT: pitchwheel channel=6 pitch=-7936 time=0
EXTRACT: pitchwheel channel=6 pitch=-8064 time=0.016183027083333332
EXTRACT: pitchwheel channel=6 pitch=-8064 time=0
EXTRACT: pitchwheel channel=6 pitch=-8192 time=0.016183027083333332
EXTRACT: pitchwheel channel=6 pitch=-8192 time=0
EXTRACT: pitchwheel channel=6 pitch=-8192 time=0.016183027083333332
EXTRACT: pitchwheel channel=6 pitch=-8192 time=0
EXTRACT: pitchwheel channel=6 pitch=-8192 time=0.016183027083333332
EXTRACT: pitchwheel channel=6 pitch=-8192 time=0
EXTRACT: pitchwheel channel=3 pitch=256 time=0.0033482125000000003
EXTRACT: pitchwheel channel=3 pitch=0 time=0
EXTRACT: note_off channel=3 note=66 velocity=95 time=0
EXTRACT: pitchwheel channel=3 pitch=256 time=0
EXTRACT: note_on channel=3 note=67 velocity=95 time=0
EXTRACT: pitchwheel channel=6 pitch=-8192 time=0
EXTRACT: pitchwheel channel=6 pitch=0 time=0
EXTRACT: note_off channel=6 note=53 velocity=95 time=0
EXTRACT: pitchwheel channel=6 pitch=-8192 time=0
EXTRACT: pitchwheel channel=6 pitch=0 time=0
EXTRACT: note_off channel=6 note=53 velocity=95 time=0
EXTRACT: note_on channel=7 note=33 velocity=95 time=0
EXTRACT: note_on channel=8 note=23 velocity=95 time=0
EXTRACT: note_on channel=10 note=40 velocity=95 time=0
EXTRACT: note_off channel=9 note=28 velocity=95 time=0
EXTRACT: note_off channel=9 note=39 velocity=95 time=0
EXTRACT: note_on channel=9 note=36 velocity=95 time=0
EXTRACT: pitchwheel channel=4 pitch=256 time=0.033482125
EXTRACT: pitchwheel channel=4 pitch=0 time=0
EXTRACT: note_off channel=4 note=66 velocity=95 time=0
EXTRACT: pitchwheel channel=4 pitch=256 time=0
EXTRACT: note_on channel=4 note=67 velocity=95 time=0
EXTRACT: note_off channel=10 note=40 velocity=95 time=0.033482125
EXTRACT: pitchwheel channel=3 pitch=256 time=0.022321416666666666
EXTRACT: pitchwheel channel=4 pitch=256 time=0.033482125
EXTRACT: pitchwheel channel=3 pitch=128 time=0.011160708333333333
EXTRACT: pitchwheel channel=4 pitch=128 time=0.033482125
EXTRACT: pitchwheel channel=3 pitch=0 time=0.011160708333333333
EXTRACT: pitchwheel channel=3 pitch=0 time=0
EXTRACT: pitchwheel channel=4 pitch=0 time=0.033482125
EXTRACT: pitchwheel channel=4 pitch=0 time=0
EXTRACT: pitchwheel channel=3 pitch=0 time=0.05580354166666667
EXTRACT: pitchwheel channel=3 pitch=0 time=0
EXTRACT: note_off channel=3 note=67 velocity=95 time=0
EXTRACT: pitchwheel channel=3 pitch=256 time=0
EXTRACT: note_on channel=3 note=66 velocity=95 time=0
EXTRACT: note_off channel=5 note=64 velocity=95 time=0
EXTRACT: note_off channel=5 note=59 velocity=95 time=0
EXTRACT: note_off channel=5 note=55 velocity=95 time=0
EXTRACT: note_off channel=5 note=50 velocity=95 time=0
EXTRACT: note_off channel=8 note=23 velocity=95 time=0
EXTRACT: note_on channel=8 note=23 velocity=95 time=0
EXTRACT: note_on channel=10 note=40 velocity=95 time=0
EXTRACT: note_off channel=9 note=36 velocity=95 time=0
EXTRACT: note_on channel=9 note=36 velocity=95 time=0
EXTRACT: pitchwheel channel=4 pitch=0 time=0.033482125
EXTRACT: pitchwheel channel=4 pitch=0 time=0
EXTRACT: note_off channel=4 note=67 velocity=95 time=0
EXTRACT: pitchwheel channel=4 pitch=256 time=0
EXTRACT: note_on channel=4 note=66 velocity=95 time=0
EXTRACT: note_off channel=10 note=40 velocity=95 time=0.033482125
EXTRACT: pitchwheel channel=3 pitch=256 time=0.20089275
EXTRACT: pitchwheel channel=3 pitch=0 time=0
EXTRACT: note_off channel=3 note=66 velocity=95 time=0
EXTRACT: note_on channel=3 note=67 velocity=95 time=0
EXTRACT: note_on channel=5 note=64 velocity=95 time=0
EXTRACT: note_on channel=5 note=59 velocity=95 time=0
EXTRACT: note_on channel=5 note=55 velocity=95 time=0
EXTRACT: note_on channel=5 note=50 velocity=95 time=0
EXTRACT: note_off channel=7 note=33 velocity=95 time=0
EXTRACT: note_off channel=8 note=23 velocity=95 time=0
EXTRACT: note_off channel=9 note=36 velocity=95 time=0
EXTRACT: note_on channel=9 note=28 velocity=95 time=0
EXTRACT: note_on channel=9 note=39 velocity=95 time=0
EXTRACT: pitchwheel channel=4 pitch=256 time=0.033482125
EXTRACT: pitchwheel channel=4 pitch=0 time=0
EXTRACT: note_off channel=4 note=66 velocity=95 time=0
EXTRACT: note_on channel=4 note=67 velocity=95 time=0
EXTRACT: note_off channel=3 note=67 velocity=95 time=0.234374875
EXTRACT: pitchwheel channel=3 pitch=0 time=0
EXTRACT: note_on channel=3 note=67 velocity=95 time=0
EXTRACT: note_on channel=7 note=33 velocity=95 time=0
EXTRACT: note_on channel=8 note=23 velocity=95 time=0
EXTRACT: note_on channel=10 note=40 velocity=95 time=0
EXTRACT: note_off channel=9 note=28 velocity=95 time=0
EXTRACT: note_off channel=9 note=39 velocity=95 time=0
EXTRACT: note_on channel=9 note=36 velocity=95 time=0
EXTRACT: note_off channel=4 note=67 velocity=95 time=0.033482125
EXTRACT: pitchwheel channel=4 pitch=0 time=0
EXTRACT: note_on channel=4 note=67 velocity=95 time=0
EXTRACT: pitchwheel channel=3 pitch=128 time=0.033482125
EXTRACT: note_off channel=10 note=40 velocity=95 time=0
EXTRACT: pitchwheel channel=4 pitch=128 time=0.033482125
EXTRACT: pitchwheel channel=3 pitch=256 time=0.033482125
EXTRACT: pitchwheel channel=3 pitch=256 time=0
EXTRACT: pitchwheel channel=3 pitch=0 time=0
EXTRACT: note_off channel=3 note=67 velocity=95 time=0
EXTRACT: pitchwheel channel=3 pitch=0 time=0
EXTRACT: note_on channel=3 note=67 velocity=95 time=0
EXTRACT: pitchwheel channel=4 pitch=256 time=0.033482125
EXTRACT: pitchwheel channel=4 pitch=256 time=0
EXTRACT: pitchwheel channel=4 pitch=0 time=0
EXTRACT: note_off channel=4 note=67 velocity=95 time=0
EXTRACT: pitchwheel channel=4 pitch=0 time=0
EXTRACT: note_on channel=4 note=67 velocity=95 time=0
EXTRACT: pitchwheel channel=3 pitch=128 time=0.06696425
EXTRACT: pitchwheel channel=4 pitch=128 time=0.033482125
EXTRACT: note_off channel=9 note=36 velocity=95 time=0
EXTRACT: pitchwheel channel=3 pitch=256 time=0.06696425
EXTRACT: pitchwheel channel=3 pitch=256 time=0
EXTRACT: pitchwheel channel=3 pitch=0 time=0
EXTRACT: note_off channel=3 note=67 velocity=95 time=0
EXTRACT: pitchwheel channel=4 pitch=256 time=0.033482125
EXTRACT: pitchwheel channel=4 pitch=256 time=0
EXTRACT: pitchwheel channel=4 pitch=0 time=0
EXTRACT: note_off channel=4 note=67 velocity=95 time=0
EXTRACT: pitchwheel channel=3 pitch=0 time=0.167410625
EXTRACT: note_on channel=3 note=65 velocity=95 time=0
EXTRACT: note_off channel=5 note=64 velocity=95 time=0
EXTRACT: note_off channel=5 note=59 velocity=95 time=0
EXTRACT: note_off channel=5 note=55 velocity=95 time=0
EXTRACT: note_off channel=5 note=50 velocity=95 time=0
EXTRACT: note_off channel=7 note=33 velocity=95 time=0
EXTRACT: note_on channel=7 note=33 velocity=95 time=0
EXTRACT: note_off channel=8 note=23 velocity=95 time=0
EXTRACT: note_on channel=8 note=23 velocity=95 time=0
EXTRACT: note_on channel=10 note=40 velocity=95 time=0
EXTRACT: note_on channel=9 note=36 velocity=95 time=0
EXTRACT: pitchwheel channel=4 pitch=0 time=0.033482125
EXTRACT: note_on channel=4 note=65 velocity=95 time=0
EXTRACT: note_off channel=10 note=40 velocity=95 time=0.033482125
EXTRACT: pitchwheel channel=3 pitch=0 time=0.20089275
EXTRACT: note_on channel=5 note=64 velocity=95 time=0
EXTRACT: note_on channel=5 note=59 velocity=95 time=0
EXTRACT: note_on channel=5 note=55 velocity=95 time=0
EXTRACT: note_on channel=5 note=50 velocity=95 time=0
EXTRACT: note_off channel=7 note=33 velocity=95 time=0
EXTRACT: note_off channel=9 note=36 velocity=95 time=0
EXTRACT: note_on channel=9 note=28 velocity=95 time=0
EXTRACT: note_on channel=9 note=39 velocity=95 time=0
EXTRACT: pitchwheel channel=4 pitch=0 time=0.033482125
EXTRACT: pitchwheel channel=3 pitch=128 time=0.100446375
EXTRACT: pitchwheel channel=4 pitch=128 time=0.033482125
EXTRACT: pitchwheel channel=3 pitch=256 time=0.100446375
EXTRACT: pitchwheel channel=3 pitch=256 time=0
EXTRACT: pitchwheel channel=3 pitch=0 time=0
EXTRACT: note_off channel=3 note=65 velocity=95 time=0
EXTRACT: note_off channel=8 note=23 velocity=95 time=0
EXTRACT: pitchwheel channel=4 pitch=256 time=0.033482125
EXTRACT: pitchwheel channel=4 pitch=256 time=0
EXTRACT: pitchwheel channel=4 pitch=0 time=0
EXTRACT: note_off channel=4 note=65 velocity=95 time=0
EXTRACT: pitchwheel channel=3 pitch=0 time=0.100446375
EXTRACT: note_on channel=3 note=66 velocity=95 time=0
EXTRACT: pitchwheel channel=4 pitch=0 time=0.033482125
EXTRACT: note_on channel=4 note=66 velocity=95 time=0
EXTRACT: pitchwheel channel=3 pitch=128 time=0.033482125
EXTRACT: pitchwheel channel=4 pitch=128 time=0.033482125
EXTRACT: pitchwheel channel=3 pitch=256 time=0.033482125
EXTRACT: pitchwheel channel=3 pitch=256 time=0
EXTRACT: pitchwheel channel=3 pitch=0 time=0
EXTRACT: note_off channel=3 note=66 velocity=95 time=0
EXTRACT: pitchwheel channel=3 pitch=256 time=0
EXTRACT: note_on channel=3 note=67 velocity=95 time=0
EXTRACT: note_on channel=7 note=33 velocity=95 time=0
EXTRACT: note_on channel=8 note=23 velocity=95 time=0
EXTRACT: note_on channel=10 note=40 velocity=95 time=0
EXTRACT: note_off channel=9 note=28 velocity=95 time=0
EXTRACT: note_off channel=9 note=39 velocity=95 time=0
EXTRACT: note_on channel=9 note=36 velocity=95 time=0
EXTRACT: pitchwheel channel=4 pitch=256 time=0.033482125
EXTRACT: pitchwheel channel=4 pitch=256 time=0
EXTRACT: pitchwheel channel=4 pitch=0 time=0
EXTRACT: note_off channel=4 note=66 velocity=95 time=0
EXTRACT: pitchwheel channel=4 pitch=256 time=0
EXTRACT: note_on channel=4 note=67 velocity=95 time=0
EXTRACT: note_off channel=10 note=40 velocity=95 time=0.033482125
EXTRACT: pitchwheel channel=3 pitch=256 time=0.022321416666666666
EXTRACT: pitchwheel channel=4 pitch=256 time=0.033482125
EXTRACT: pitchwheel channel=3 pitch=128 time=0.011160708333333333
EXTRACT: pitchwheel channel=4 pitch=128 time=0.033482125
EXTRACT: pitchwheel channel=3 pitch=0 time=0.011160708333333333
EXTRACT: pitchwheel channel=3 pitch=0 time=0
EXTRACT: pitchwheel channel=4 pitch=0 time=0.033482125
EXTRACT: pitchwheel channel=4 pitch=0 time=0
EXTRACT: pitchwheel channel=3 pitch=0 time=0.05580354166666667
EXTRACT: pitchwheel channel=3 pitch=0 time=0
EXTRACT: note_off channel=3 note=67 velocity=95 time=0
EXTRACT: pitchwheel channel=3 pitch=256 time=0
EXTRACT: note_on channel=3 note=66 velocity=95 time=0
EXTRACT: note_off channel=5 note=64 velocity=95 time=0
EXTRACT: note_off channel=5 note=59 velocity=95 time=0
EXTRACT: note_off channel=5 note=55 velocity=95 time=0
EXTRACT: note_off channel=5 note=50 velocity=95 time=0
EXTRACT: pitchwheel channel=4 pitch=0 time=0.033482125
EXTRACT: pitchwheel channel=4 pitch=0 time=0
EXTRACT: note_off channel=4 note=67 velocity=95 time=0
EXTRACT: pitchwheel channel=4 pitch=256 time=0
EXTRACT: note_on channel=4 note=66 velocity=95 time=0
EXTRACT: pitchwheel channel=3 pitch=256 time=0.234374875
EXTRACT: pitchwheel channel=3 pitch=0 time=0
EXTRACT: note_off channel=3 note=66 velocity=95 time=0
EXTRACT: note_on channel=3 note=67 velocity=95 time=0
EXTRACT: note_on channel=5 note=64 velocity=95 time=0
EXTRACT: note_on channel=5 note=59 velocity=95 time=0
EXTRACT: note_on channel=5 note=55 velocity=95 time=0
EXTRACT: note_on channel=5 note=50 velocity=95 time=0
EXTRACT: note_off channel=7 note=33 velocity=95 time=0
EXTRACT: note_off channel=8 note=23 velocity=95 time=0
EXTRACT: note_off channel=9 note=36 velocity=95 time=0
EXTRACT: note_on channel=9 note=28 velocity=95 time=0
EXTRACT: note_on channel=9 note=39 velocity=95 time=0
EXTRACT: pitchwheel channel=4 pitch=256 time=0.033482125
EXTRACT: pitchwheel channel=4 pitch=0 time=0
EXTRACT: note_off channel=4 note=66 velocity=95 time=0
EXTRACT: note_on channel=4 note=67 velocity=95 time=0
EXTRACT: note_off channel=3 note=67 velocity=95 time=0.234374875
EXTRACT: pitchwheel channel=3 pitch=0 time=0
EXTRACT: note_on channel=3 note=67 velocity=95 time=0
EXTRACT: note_on channel=7 note=33 velocity=95 time=0
EXTRACT: note_on channel=8 note=23 velocity=95 time=0
EXTRACT: note_on channel=10 note=40 velocity=95 time=0
EXTRACT: note_off channel=9 note=28 velocity=95 time=0
EXTRACT: note_off channel=9 note=39 velocity=95 time=0
EXTRACT: note_on channel=9 note=36 velocity=95 time=0
EXTRACT: note_off channel=4 note=67 velocity=95 time=0.033482125
EXTRACT: pitchwheel channel=4 pitch=0 time=0
EXTRACT: note_on channel=4 note=67 velocity=95 time=0
EXTRACT: pitchwheel channel=3 pitch=128 time=0.033482125
EXTRACT: note_off channel=10 note=40 velocity=95 time=0
EXTRACT: pitchwheel channel=4 pitch=128 time=0.033482125
EXTRACT: pitchwheel channel=3 pitch=256 time=0.033482125
EXTRACT: pitchwheel channel=3 pitch=256 time=0
EXTRACT: pitchwheel channel=3 pitch=0 time=0
EXTRACT: note_off channel=3 note=67 velocity=95 time=0
EXTRACT: pitchwheel channel=3 pitch=0 time=0
EXTRACT: note_on channel=3 note=67 velocity=95 time=0
EXTRACT: pitchwheel channel=4 pitch=256 time=0.033482125
EXTRACT: pitchwheel channel=4 pitch=256 time=0
EXTRACT: pitchwheel channel=4 pitch=0 time=0
EXTRACT: note_off channel=4 note=67 velocity=95 time=0
EXTRACT: pitchwheel channel=4 pitch=0 time=0
EXTRACT: note_on channel=4 note=67 velocity=95 time=0
EXTRACT: pitchwheel channel=3 pitch=128 time=0.06696425
EXTRACT: pitchwheel channel=4 pitch=128 time=0.033482125
EXTRACT: pitchwheel channel=6 pitch=0 time=0
EXTRACT: note_on channel=6 note=53 velocity=95 time=0
EXTRACT: pitchwheel channel=6 pitch=0 time=0
EXTRACT: note_on channel=6 note=53 velocity=95 time=0
EXTRACT: note_off channel=9 note=36 velocity=95 time=0
EXTRACT: pitchwheel channel=6 pitch=-128 time=0.016183027083333332
EXTRACT: pitchwheel channel=6 pitch=-128 time=0
EXTRACT: pitchwheel channel=6 pitch=-256 time=0.016183027083333332
EXTRACT: pitchwheel channel=6 pitch=-256 time=0
EXTRACT: pitchwheel channel=6 pitch=-384 time=0.016183027083333332
EXTRACT: pitchwheel channel=6 pitch=-384 time=0
EXTRACT: pitchwheel channel=6 pitch=-512 time=0.016183027083333332
EXTRACT: pitchwheel channel=6 pitch=-512 time=0
EXTRACT: pitchwheel channel=3 pitch=256 time=0.0022321416666666667
EXTRACT: pitchwheel channel=3 pitch=256 time=0
EXTRACT: pitchwheel channel=3 pitch=0 time=0
EXTRACT: note_off channel=3 note=67 velocity=95 time=0
EXTRACT: pitchwheel channel=6 pitch=-640 time=0.013950885416666668
EXTRACT: pitchwheel channel=6 pitch=-640 time=0
EXTRACT: pitchwheel channel=6 pitch=-768 time=0.016183027083333332
EXTRACT: pitchwheel channel=6 pitch=-768 time=0
EXTRACT: pitchwheel channel=4 pitch=256 time=0.0033482125000000003
EXTRACT: pitchwheel channel=4 pitch=256 time=0
EXTRACT: pitchwheel channel=4 pitch=0 time=0
EXTRACT: note_off channel=4 note=67 velocity=95 time=0
EXTRACT: pitchwheel channel=6 pitch=-896 time=0.012834814583333333
EXTRACT: pitchwheel channel=6 pitch=-896 time=0
EXTRACT: pitchwheel channel=6 pitch=-1024 time=0.016183027083333332
EXTRACT: pitchwheel channel=6 pitch=-1024 time=0
EXTRACT: pitchwheel channel=6 pitch=-1152 time=0.016183027083333332
EXTRACT: pitchwheel channel=6 pitch=-1152 time=0
EXTRACT: pitchwheel channel=6 pitch=-1280 time=0.016183027083333332
EXTRACT: pitchwheel channel=6 pitch=-1280 time=0
EXTRACT: pitchwheel channel=6 pitch=-1408 time=0.016183027083333332
EXTRACT: pitchwheel channel=6 pitch=-1408 time=0
EXTRACT: pitchwheel channel=6 pitch=-1536 time=0.016183027083333332
EXTRACT: pitchwheel channel=6 pitch=-1536 time=0
EXTRACT: pitchwheel channel=6 pitch=-1664 time=0.016183027083333332
EXTRACT: pitchwheel channel=6 pitch=-1664 time=0
EXTRACT: pitchwheel channel=6 pitch=-1792 time=0.016183027083333332
EXTRACT: pitchwheel channel=6 pitch=-1792 time=0
EXTRACT: pitchwheel channel=6 pitch=-1920 time=0.016183027083333332
EXTRACT: pitchwheel channel=6 pitch=-1920 time=0
EXTRACT: pitchwheel channel=6 pitch=-2048 time=0.016183027083333332
EXTRACT: pitchwheel channel=6 pitch=-2048 time=0
EXTRACT: pitchwheel channel=3 pitch=0 time=0.008928566666666667
EXTRACT: note_on channel=3 note=65 velocity=95 time=0
EXTRACT: note_off channel=5 note=64 velocity=95 time=0
EXTRACT: note_off channel=5 note=59 velocity=95 time=0
EXTRACT: note_off channel=5 note=55 velocity=95 time=0
EXTRACT: note_off channel=5 note=50 velocity=95 time=0
EXTRACT: note_off channel=7 note=33 velocity=95 time=0
EXTRACT: note_on channel=7 note=33 velocity=95 time=0
EXTRACT: note_off channel=8 note=23 velocity=95 time=0
EXTRACT: note_on channel=8 note=23 velocity=95 time=0
EXTRACT: note_on channel=10 note=40 velocity=95 time=0
EXTRACT: note_on channel=9 note=36 velocity=95 time=0
EXTRACT: pitchwheel channel=6 pitch=-2176 time=0.007254460416666667
EXTRACT: pitchwheel channel=6 pitch=-2176 time=0
EXTRACT: pitchwheel channel=6 pitch=-2304 time=0.016183027083333332
EXTRACT: pitchwheel channel=6 pitch=-2304 time=0
EXTRACT: pitchwheel channel=4 pitch=0 time=0.0100446375
EXTRACT: note_on channel=4 note=65 velocity=95 time=0
EXTRACT: pitchwheel channel=6 pitch=-2432 time=0.006138389583333333
EXTRACT: pitchwheel channel=6 pitch=-2432 time=0
EXTRACT: pitchwheel channel=6 pitch=-2560 time=0.016183027083333332
EXTRACT: pitchwheel channel=6 pitch=-2560 time=0
EXTRACT: note_off channel=10 note=40 velocity=95 time=0.011160708333333333
EXTRACT: pitchwheel channel=6 pitch=-2688 time=0.00502231875
EXTRACT: pitchwheel channel=6 pitch=-2688 time=0
EXTRACT: pitchwheel channel=6 pitch=-2816 time=0.016183027083333332
EXTRACT: pitchwheel channel=6 pitch=-2816 time=0
EXTRACT: pitchwheel channel=6 pitch=-2944 time=0.016183027083333332
EXTRACT: pitchwheel channel=6 pitch=-2944 time=0
EXTRACT: pitchwheel channel=6 pitch=-3072 time=0.016183027083333332
EXTRACT: pitchwheel channel=6 pitch=-3072 time=0
EXTRACT: pitchwheel channel=6 pitch=-3200 time=0.016183027083333332
EXTRACT: pitchwheel channel=6 pitch=-3200 time=0
EXTRACT: pitchwheel channel=6 pitch=-3328 time=0.016183027083333332
EXTRACT: pitchwheel channel=6 pitch=-3328 time=0
EXTRACT: pitchwheel channel=6 pitch=-3456 time=0.016183027083333332
EXTRACT: pitchwheel channel=6 pitch=-3456 time=0
EXTRACT: pitchwheel channel=6 pitch=-3584 time=0.016183027083333332
EXTRACT: pitchwheel channel=6 pitch=-3584 time=0
EXTRACT: pitchwheel channel=6 pitch=-3712 time=0.016183027083333332
EXTRACT: pitchwheel channel=6 pitch=-3712 time=0
EXTRACT: pitchwheel channel=6 pitch=-3840 time=0.016183027083333332
EXTRACT: pitchwheel channel=6 pitch=-3840 time=0
EXTRACT: pitchwheel channel=6 pitch=-3968 time=0.016183027083333332
EXTRACT: pitchwheel channel=6 pitch=-3968 time=0
EXTRACT: pitchwheel channel=6 pitch=-4096 time=0.016183027083333332
EXTRACT: pitchwheel channel=6 pitch=-4096 time=0
EXTRACT: pitchwheel channel=6 pitch=-4224 time=0.016183027083333332
EXTRACT: pitchwheel channel=6 pitch=-4224 time=0
EXTRACT: pitchwheel channel=3 pitch=0 time=0.0016741062500000002
EXTRACT: note_on channel=5 note=64 velocity=95 time=0
EXTRACT: note_on channel=5 note=59 velocity=95 time=0
EXTRACT: note_on channel=5 note=55 velocity=95 time=0
EXTRACT: note_on channel=5 note=50 velocity=95 time=0
EXTRACT: note_off channel=7 note=33 velocity=95 time=0
EXTRACT: note_off channel=9 note=36 velocity=95 time=0
EXTRACT: note_on channel=9 note=28 velocity=95 time=0
EXTRACT: note_on channel=9 note=39 velocity=95 time=0
EXTRACT: pitchwheel channel=6 pitch=-4352 time=0.014508920833333334
EXTRACT: pitchwheel channel=6 pitch=-4352 time=0
EXTRACT: pitchwheel channel=6 pitch=-4480 time=0.016183027083333332
EXTRACT: pitchwheel channel=6 pitch=-4480 time=0
EXTRACT: pitchwheel channel=4 pitch=0 time=0.0027901770833333333
EXTRACT: pitchwheel channel=6 pitch=-4608 time=0.013392850000000001
EXTRACT: pitchwheel channel=6 pitch=-4608 time=0
EXTRACT: pitchwheel channel=6 pitch=-4736 time=0.016183027083333332
EXTRACT: pitchwheel channel=6 pitch=-4736 time=0
EXTRACT: pitchwheel channel=6 pitch=-4864 time=0.016183027083333332
EXTRACT: pitchwheel channel=6 pitch=-4864 time=0
EXTRACT: pitchwheel channel=6 pitch=-4992 time=0.016183027083333332
EXTRACT: pitchwheel channel=6 pitch=-4992 time=0
EXTRACT: pitchwheel channel=6 pitch=-5120 time=0.016183027083333332
EXTRACT: pitchwheel channel=6 pitch=-5120 time=0
EXTRACT: pitchwheel channel=6 pitch=-5248 time=0.016183027083333332
EXTRACT: pitchwheel channel=6 pitch=-5248 time=0
EXTRACT: pitchwheel channel=3 pitch=128 time=0.006138389583333333
EXTRACT: pitchwheel channel=6 pitch=-5376 time=0.0100446375
EXTRACT: pitchwheel channel=6 pitch=-5376 time=0
EXTRACT: pitchwheel channel=6 pitch=-5504 time=0.016183027083333332
EXTRACT: pitchwheel channel=6 pitch=-5504 time=0
EXTRACT: pitchwheel channel=4 pitch=128 time=0.007254460416666667
EXTRACT: pitchwheel channel=6 pitch=-5632 time=0.008928566666666667
EXTRACT: pitchwheel channel=6 pitch=-5632 time=0
EXTRACT: pitchwheel channel=6 pitch=-5760 time=0.016183027083333332
EXTRACT: pitchwheel channel=6 pitch=-5760 time=0
EXTRACT: pitchwheel channel=6 pitch=-5888 time=0.016183027083333332
EXTRACT: pitchwheel channel=6 pitch=-5888 time=0
EXTRACT: pitchwheel channel=6 pitch=-6016 time=0.016183027083333332
EXTRACT: pitchwheel channel=6 pitch=-6016 time=0
EXTRACT: pitchwheel channel=6 pitch=-6144 time=0.016183027083333332
EXTRACT: pitchwheel channel=6 pitch=-6144 time=0
EXTRACT: pitchwheel channel=6 pitch=-6272 time=0.016183027083333332
EXTRACT: pitchwheel channel=6 pitch=-6272 time=0
EXTRACT: pitchwheel channel=3 pitch=256 time=0.010602672916666667
EXTRACT: pitchwheel channel=3 pitch=256 time=0
EXTRACT: pitchwheel channel=3 pitch=0 time=0
EXTRACT: note_off channel=3 note=65 velocity=95 time=0
EXTRACT: note_off channel=8 note=23 velocity=95 time=0
EXTRACT: pitchwheel channel=6 pitch=-6400 time=0.005580354166666667
EXTRACT: pitchwheel channel=6 pitch=-6400 time=0
EXTRACT: pitchwheel channel=6 pitch=-6528 time=0.016183027083333332
EXTRACT: pitchwheel channel=6 pitch=-6528 time=0
EXTRACT: pitchwheel channel=4 pitch=256 time=0.01171874375
EXTRACT: pitchwheel channel=4 pitch=256 time=0
EXTRACT: pitchwheel channel=4 pitch=0 time=0
EXTRACT: note_off channel=4 note=65 velocity=95 time=0
EXTRACT: pitchwheel channel=6 pitch=-6656 time=0.0044642833333333335
EXTRACT: pitchwheel channel=6 pitch=-6656 time=0
EXTRACT: pitchwheel channel=6 pitch=-6784 time=0.016183027083333332
EXTRACT: pitchwheel channel=6 pitch=-6784 time=0
EXTRACT: pitchwheel channel=6 pitch=-6912 time=0.016183027083333332
EXTRACT: pitchwheel channel=6 pitch=-6912 time=0
EXTRACT: pitchwheel channel=6 pitch=-7040 time=0.016183027083333332
EXTRACT: pitchwheel channel=6 pitch=-7040 time=0
EXTRACT: pitchwheel channel=6 pitch=-7168 time=0.016183027083333332
EXTRACT: pitchwheel channel=6 pitch=-7168 time=0
EXTRACT: pitchwheel channel=6 pitch=-7296 time=0.016183027083333332
EXTRACT: pitchwheel channel=6 pitch=-7296 time=0
EXTRACT: pitchwheel channel=6 pitch=-7424 time=0.016183027083333332
EXTRACT: pitchwheel channel=6 pitch=-7424 time=0
EXTRACT: pitchwheel channel=6 pitch=-7552 time=0.016183027083333332
EXTRACT: pitchwheel channel=6 pitch=-7552 time=0
EXTRACT: pitchwheel channel=6 pitch=-7680 time=0.016183027083333332
EXTRACT: pitchwheel channel=6 pitch=-7680 time=0
EXTRACT: pitchwheel channel=6 pitch=-7808 time=0.016183027083333332
EXTRACT: pitchwheel channel=6 pitch=-7808 time=0
EXTRACT: pitchwheel channel=6 pitch=-7936 time=0.016183027083333332
EXTRACT: pitchwheel channel=6 pitch=-7936 time=0
EXTRACT: pitchwheel channel=6 pitch=-8064 time=0.016183027083333332
EXTRACT: pitchwheel channel=6 pitch=-8064 time=0
EXTRACT: pitchwheel channel=6 pitch=-8192 time=0.016183027083333332
EXTRACT: pitchwheel channel=6 pitch=-8192 time=0
EXTRACT: pitchwheel channel=6 pitch=-8192 time=0.016183027083333332
EXTRACT: pitchwheel channel=6 pitch=-8192 time=0
EXTRACT: pitchwheel channel=6 pitch=-8192 time=0.016183027083333332
EXTRACT: pitchwheel channel=6 pitch=-8192 time=0
EXTRACT: note_on channel=1 note=71 velocity=95 time=0.0033482125000000003
EXTRACT: note_on channel=1 note=66 velocity=95 time=0
EXTRACT: note_on channel=1 note=63 velocity=95 time=0
EXTRACT: note_on channel=1 note=59 velocity=95 time=0
EXTRACT: note_on channel=1 note=47 velocity=95 time=0
EXTRACT: pitchwheel channel=3 pitch=0 time=0
EXTRACT: note_on channel=3 note=70 velocity=95 time=0
EXTRACT: pitchwheel channel=6 pitch=-8192 time=0
EXTRACT: pitchwheel channel=6 pitch=0 time=0
EXTRACT: note_off channel=6 note=53 velocity=95 time=0
EXTRACT: pitchwheel channel=6 pitch=-8192 time=0
EXTRACT: pitchwheel channel=6 pitch=0 time=0
EXTRACT: note_off channel=6 note=53 velocity=95 time=0
EXTRACT: note_on channel=7 note=33 velocity=95 time=0
EXTRACT: note_on channel=8 note=23 velocity=95 time=0
EXTRACT: note_on channel=10 note=40 velocity=95 time=0
EXTRACT: note_off channel=9 note=28 velocity=95 time=0
EXTRACT: note_off channel=9 note=39 velocity=95 time=0
EXTRACT: note_on channel=9 note=36 velocity=95 time=0
EXTRACT: pitchwheel channel=4 pitch=0 time=0.033482125
EXTRACT: note_on channel=4 note=70 velocity=95 time=0
EXTRACT: pitchwheel channel=3 pitch=-128 time=0.0027901770833333333
EXTRACT: note_off channel=10 note=40 velocity=95 time=0.030691947916666667
EXTRACT: pitchwheel channel=4 pitch=-128 time=0.0027901770833333333
EXTRACT: pitchwheel channel=3 pitch=-256 time=0.0027901770833333333
EXTRACT: pitchwheel channel=4 pitch=-256 time=0.033482125
EXTRACT: pitchwheel channel=3 pitch=-384 time=0.0027901770833333333
EXTRACT: pitchwheel channel=4 pitch=-384 time=0.033482125
EXTRACT: pitchwheel channel=3 pitch=-512 time=0.0027901770833333333
EXTRACT: pitchwheel channel=4 pitch=-512 time=0.033482125
EXTRACT: pitchwheel channel=3 pitch=-640 time=0.0027901770833333333
EXTRACT: pitchwheel channel=4 pitch=-640 time=0.033482125
EXTRACT: pitchwheel channel=3 pitch=-768 time=0.0027901770833333333
EXTRACT: pitchwheel channel=4 pitch=-768 time=0.033482125
EXTRACT: pitchwheel channel=3 pitch=-896 time=0.0027901770833333333
EXTRACT: note_off channel=5 note=64 velocity=95 time=0.013950885416666668
EXTRACT: note_off channel=5 note=59 velocity=95 time=0
EXTRACT: note_off channel=5 note=55 velocity=95 time=0
EXTRACT: note_off channel=5 note=50 velocity=95 time=0
EXTRACT: pitchwheel channel=4 pitch=-896 time=0.019531239583333335
EXTRACT: pitchwheel channel=3 pitch=-1024 time=0.0027901770833333333
EXTRACT: pitchwheel channel=4 pitch=-1024 time=0.033482125
EXTRACT: pitchwheel channel=3 pitch=-1152 time=0.0027901770833333333
EXTRACT: pitchwheel channel=4 pitch=-1152 time=0.033482125
EXTRACT: pitchwheel channel=3 pitch=-1280 time=0.0027901770833333333
EXTRACT: pitchwheel channel=4 pitch=-1280 time=0.033482125
EXTRACT: pitchwheel channel=3 pitch=-1408 time=0.0027901770833333333
EXTRACT: pitchwheel channel=3 pitch=-1408 time=0.0027901770833333333
EXTRACT: pitchwheel channel=3 pitch=0 time=0
EXTRACT: note_off channel=3 note=70 velocity=95 time=0
EXTRACT: pitchwheel channel=3 pitch=0 time=0
EXTRACT: note_on channel=3 note=68 velocity=95 time=0
EXTRACT: pitchwheel channel=4 pitch=-1408 time=0.030691947916666667
EXTRACT: pitchwheel channel=4 pitch=-1408 time=0.0027901770833333333
EXTRACT: pitchwheel channel=4 pitch=0 time=0
EXTRACT: note_off channel=4 note=70 velocity=95 time=0
EXTRACT: pitchwheel channel=4 pitch=0 time=0
EXTRACT: note_on channel=4 note=68 velocity=95 time=0
EXTRACT: pitchwheel channel=3 pitch=-128 time=0.020089275
EXTRACT: pitchwheel channel=4 pitch=-128 time=0.033482125
EXTRACT: pitchwheel channel=3 pitch=-256 time=0.020089275
EXTRACT: note_on channel=5 note=64 velocity=95 time=0.026785700000000003
EXTRACT: note_on channel=5 note=59 velocity=95 time=0
EXTRACT: note_on channel=5 note=55 velocity=95 time=0
EXTRACT: note_on channel=5 note=50 velocity=95 time=0
EXTRACT: note_off channel=7 note=33 velocity=95 time=0
EXTRACT: note_off channel=8 note=23 velocity=95 time=0
EXTRACT: note_off channel=9 note=36 velocity=95 time=0
EXTRACT: note_on channel=9 note=28 velocity=95 time=0
EXTRACT: note_on channel=9 note=39 velocity=95 time=0
EXTRACT: pitchwheel channel=4 pitch=-256 time=0.006696425000000001
EXTRACT: pitchwheel channel=3 pitch=-384 time=0.020089275
EXTRACT: pitchwheel channel=4 pitch=-384 time=0.033482125
EXTRACT: pitchwheel channel=3 pitch=-512 time=0.020089275
EXTRACT: pitchwheel channel=4 pitch=-512 time=0.033482125
EXTRACT: pitchwheel channel=3 pitch=-640 time=0.020089275
EXTRACT: pitchwheel channel=3 pitch=-640 time=0
EXTRACT: pitchwheel channel=3 pitch=0 time=0
EXTRACT: note_off channel=3 note=68 velocity=95 time=0
EXTRACT: note_on channel=3 note=67 velocity=95 time=0
EXTRACT: pitchwheel channel=4 pitch=-640 time=0.033482125
EXTRACT: pitchwheel channel=4 pitch=-640 time=0
EXTRACT: pitchwheel channel=4 pitch=0 time=0
EXTRACT: note_off channel=4 note=68 velocity=95 time=0
EXTRACT: note_on channel=4 note=67 velocity=95 time=0
EXTRACT: note_off channel=3 note=67 velocity=95 time=0.100446375
EXTRACT: pitchwheel channel=3 pitch=0 time=0
EXTRACT: note_on channel=3 note=67 velocity=95 time=0
EXTRACT: note_on channel=7 note=33 velocity=95 time=0
EXTRACT: note_on channel=8 note=23 velocity=95 time=0
EXTRACT: note_on channel=10 note=40 velocity=95 time=0
EXTRACT: note_off channel=9 note=28 velocity=95 time=0
EXTRACT: note_off channel=9 note=39 velocity=95 time=0
EXTRACT: note_on channel=9 note=36 velocity=95 time=0
EXTRACT: note_off channel=4 note=67 velocity=95 time=0.033482125
EXTRACT: pitchwheel channel=4 pitch=0 time=0
EXTRACT: note_on channel=4 note=67 velocity=95 time=0
EXTRACT: pitchwheel channel=3 pitch=-128 time=0.020089275
EXTRACT: note_off channel=10 note=40 velocity=95 time=0.013392850000000001
EXTRACT: pitchwheel channel=4 pitch=-128 time=0.020089275
EXTRACT: pitchwheel channel=3 pitch=-256 time=0.020089275
EXTRACT: pitchwheel channel=4 pitch=-256 time=0.033482125
EXTRACT: pitchwheel channel=3 pitch=-384 time=0.020089275
EXTRACT: pitchwheel channel=4 pitch=-384 time=0.033482125
EXTRACT: pitchwheel channel=3 pitch=-512 time=0.020089275
EXTRACT: pitchwheel channel=4 pitch=-512 time=0.033482125
EXTRACT: note_off channel=1 note=66 velocity=95 time=0.020089275
EXTRACT: note_off channel=1 note=59 velocity=95 time=0
EXTRACT: note_off channel=1 note=47 velocity=95 time=0
EXTRACT: note_on channel=1 note=70 velocity=95 time=0
EXTRACT: note_on channel=1 note=58 velocity=95 time=0
EXTRACT: note_on channel=1 note=46 velocity=95 time=0
EXTRACT: pitchwheel channel=3 pitch=-640 time=0
EXTRACT: pitchwheel channel=3 pitch=-640 time=0
EXTRACT: pitchwheel channel=3 pitch=0 time=0
EXTRACT: note_off channel=3 note=67 velocity=95 time=0
EXTRACT: pitchwheel channel=3 pitch=256 time=0
EXTRACT: note_on channel=3 note=67 velocity=95 time=0
EXTRACT: note_off channel=9 note=36 velocity=95 time=0
EXTRACT: pitchwheel channel=4 pitch=-640 time=0.033482125
EXTRACT: pitchwheel channel=4 pitch=-640 time=0
EXTRACT: pitchwheel channel=4 pitch=0 time=0
EXTRACT: note_off channel=4 note=67 velocity=95 time=0
EXTRACT: pitchwheel channel=4 pitch=256 time=0
EXTRACT: note_on channel=4 note=67 velocity=95 time=0
EXTRACT: pitchwheel channel=3 pitch=128 time=0.100446375
EXTRACT: pitchwheel channel=4 pitch=128 time=0.033482125
EXTRACT: pitchwheel channel=3 pitch=0 time=0.100446375
EXTRACT: pitchwheel channel=3 pitch=0 time=0
EXTRACT: pitchwheel channel=3 pitch=0 time=0
EXTRACT: note_off channel=3 note=67 velocity=95 time=0
EXTRACT: pitchwheel channel=3 pitch=0 time=0
EXTRACT: note_on channel=3 note=68 velocity=95 time=0
EXTRACT: note_off channel=5 note=64 velocity=95 time=0
EXTRACT: note_off channel=5 note=59 velocity=95 time=0
EXTRACT: note_off channel=5 note=55 velocity=95 time=0
EXTRACT: note_off channel=5 note=50 velocity=95 time=0
EXTRACT: note_off channel=7 note=33 velocity=95 time=0
EXTRACT: note_on channel=7 note=33 velocity=95 time=0
EXTRACT: note_off channel=8 note=23 velocity=95 time=0
EXTRACT: note_on channel=8 note=23 velocity=95 time=0
EXTRACT: note_on channel=10 note=40 velocity=95 time=0
EXTRACT: note_on channel=9 note=36 velocity=95 time=0
EXTRACT: pitchwheel channel=4 pitch=0 time=0.033482125
EXTRACT: pitchwheel channel=4 pitch=0 time=0
EXTRACT: pitchwheel channel=4 pitch=0 time=0
EXTRACT: note_off channel=4 note=67 velocity=95 time=0
EXTRACT: pitchwheel channel=4 pitch=0 time=0
EXTRACT: note_on channel=4 note=68 velocity=95 time=0
EXTRACT: pitchwheel channel=3 pitch=-128 time=0.020089275
EXTRACT: note_off channel=10 note=40 velocity=95 time=0.013392850000000001
EXTRACT: pitchwheel channel=4 pitch=-128 time=0.020089275
EXTRACT: pitchwheel channel=3 pitch=-256 time=0.020089275
EXTRACT: pitchwheel channel=4 pitch=-256 time=0.033482125
EXTRACT: pitchwheel channel=3 pitch=-384 time=0.020089275
EXTRACT: pitchwheel channel=4 pitch=-384 time=0.033482125
EXTRACT: pitchwheel channel=3 pitch=-512 time=0.020089275
EXTRACT: pitchwheel channel=4 pitch=-512 time=0.033482125
EXTRACT: pitchwheel channel=3 pitch=-640 time=0.020089275
EXTRACT: pitchwheel channel=3 pitch=-640 time=0
EXTRACT: pitchwheel channel=3 pitch=0 time=0
EXTRACT: note_off channel=3 note=68 velocity=95 time=0
EXTRACT: pitchwheel channel=3 pitch=0 time=0
EXTRACT: note_on channel=3 note=68 velocity=95 time=0
EXTRACT: note_on channel=5 note=64 velocity=95 time=0
EXTRACT: note_on channel=5 note=59 velocity=95 time=0
EXTRACT: note_on channel=5 note=55 velocity=95 time=0
EXTRACT: note_on channel=5 note=50 velocity=95 time=0
EXTRACT: note_off channel=7 note=33 velocity=95 time=0
EXTRACT: note_off channel=9 note=36 velocity=95 time=0
EXTRACT: note_on channel=9 note=28 velocity=95 time=0
EXTRACT: note_on channel=9 note=39 velocity=95 time=0
EXTRACT: pitchwheel channel=3 pitch=-128 time=0.021205345833333333
EXTRACT: pitchwheel channel=4 pitch=-640 time=0.012276779166666666
EXTRACT: pitchwheel channel=4 pitch=-640 time=0
EXTRACT: pitchwheel channel=4 pitch=0 time=0
EXTRACT: note_off channel=4 note=68 velocity=95 time=0
EXTRACT: pitchwheel channel=4 pitch=0 time=0
EXTRACT: note_on channel=4 note=68 velocity=95 time=0
EXTRACT: pitchwheel channel=3 pitch=-256 time=0.008928566666666667
EXTRACT: pitchwheel channel=4 pitch=-128 time=0.012276779166666666
EXTRACT: pitchwheel channel=3 pitch=-384 time=0.008928566666666667
EXTRACT: pitchwheel channel=4 pitch=-256 time=0.012276779166666666
EXTRACT: pitchwheel channel=3 pitch=-512 time=0.008928566666666667
EXTRACT: pitchwheel channel=4 pitch=-384 time=0.012276779166666666
EXTRACT: pitchwheel channel=3 pitch=-640 time=0.008928566666666667
EXTRACT: pitchwheel channel=4 pitch=-512 time=0.012276779166666666
EXTRACT: pitchwheel channel=3 pitch=-768 time=0.008928566666666667
EXTRACT: pitchwheel channel=4 pitch=-640 time=0.012276779166666666
EXTRACT: pitchwheel channel=3 pitch=-896 time=0.008928566666666667
EXTRACT: pitchwheel channel=4 pitch=-768 time=0.012276779166666666
EXTRACT: pitchwheel channel=3 pitch=-1024 time=0.008928566666666667
EXTRACT: pitchwheel channel=4 pitch=-896 time=0.012276779166666666
EXTRACT: pitchwheel channel=3 pitch=-1152 time=0.008928566666666667
EXTRACT: pitchwheel channel=4 pitch=-1024 time=0.012276779166666666
EXTRACT: pitchwheel channel=3 pitch=-1280 time=0.008928566666666667
EXTRACT: pitchwheel channel=4 pitch=-1152 time=0.012276779166666666
EXTRACT: pitchwheel channel=3 pitch=-1408 time=0.008928566666666667
EXTRACT: pitchwheel channel=3 pitch=-1408 time=0.0011160708333333334
EXTRACT: pitchwheel channel=3 pitch=0 time=0
EXTRACT: note_off channel=3 note=68 velocity=95 time=0
EXTRACT: pitchwheel channel=4 pitch=-1280 time=0.011160708333333333
EXTRACT: pitchwheel channel=4 pitch=-1408 time=0.021205345833333333
EXTRACT: pitchwheel channel=3 pitch=0 time=0.0011160708333333334
EXTRACT: note_on channel=3 note=66 velocity=95 time=0
EXTRACT: pitchwheel channel=4 pitch=-1408 time=0
EXTRACT: pitchwheel channel=4 pitch=0 time=0
EXTRACT: note_off channel=4 note=68 velocity=95 time=0
EXTRACT: note_off channel=8 note=23 velocity=95 time=0
EXTRACT: pitchwheel channel=4 pitch=0 time=0.033482125
EXTRACT: note_on channel=4 note=66 velocity=95 time=0
EXTRACT: pitchwheel channel=3 pitch=128 time=0.033482125
EXTRACT: pitchwheel channel=4 pitch=128 time=0.033482125
EXTRACT: pitchwheel channel=3 pitch=256 time=0.033482125
EXTRACT: pitchwheel channel=3 pitch=256 time=0
EXTRACT: pitchwheel channel=3 pitch=0 time=0
EXTRACT: note_off channel=3 note=66 velocity=95 time=0
EXTRACT: pitchwheel channel=3 pitch=0 time=0
EXTRACT: note_on channel=3 note=66 velocity=95 time=0
EXTRACT: pitchwheel channel=4 pitch=256 time=0.033482125
EXTRACT: pitchwheel channel=4 pitch=256 time=0
EXTRACT: pitchwheel channel=4 pitch=0 time=0
EXTRACT: note_off channel=4 note=66 velocity=95 time=0
EXTRACT: pitchwheel channel=4 pitch=0 time=0
EXTRACT: note_on channel=4 note=66 velocity=95 time=0
EXTRACT: pitchwheel channel=3 pitch=128 time=0.033482125
EXTRACT: pitchwheel channel=4 pitch=128 time=0.033482125
EXTRACT: note_off channel=1 note=71 velocity=95 time=0.033482125
EXTRACT: note_off channel=1 note=63 velocity=95 time=0
EXTRACT: note_off channel=1 note=70 velocity=95 time=0
EXTRACT: note_off channel=1 note=58 velocity=95 time=0
EXTRACT: note_off channel=1 note=46 velocity=95 time=0
EXTRACT: note_on channel=1 note=71 velocity=95 time=0
EXTRACT: note_on channel=1 note=66 velocity=95 time=0
EXTRACT: note_on channel=1 note=63 velocity=95 time=0
EXTRACT: note_on channel=1 note=59 velocity=95 time=0
EXTRACT: note_on channel=1 note=47 velocity=95 time=0
EXTRACT: pitchwheel channel=3 pitch=256 time=0
EXTRACT: pitchwheel channel=3 pitch=256 time=0
EXTRACT: pitchwheel channel=3 pitch=0 time=0
EXTRACT: note_off channel=3 note=66 velocity=95 time=0
EXTRACT: pitchwheel channel=3 pitch=1024 time=0
EXTRACT: note_on channel=3 note=66 velocity=95 time=0
EXTRACT: note_on channel=7 note=33 velocity=95 time=0
EXTRACT: note_on channel=8 note=23 velocity=95 time=0
EXTRACT: note_on channel=10 note=40 velocity=95 time=0
EXTRACT: note_off channel=9 note=28 velocity=95 time=0
EXTRACT: note_off channel=9 note=39 velocity=95 time=0
EXTRACT: note_on channel=9 note=36 velocity=95 time=0
EXTRACT: pitchwheel channel=4 pitch=256 time=0.033482125
EXTRACT: pitchwheel channel=4 pitch=256 time=0
EXTRACT: pitchwheel channel=4 pitch=0 time=0
EXTRACT: note_off channel=4 note=66 velocity=95 time=0
EXTRACT: pitchwheel channel=4 pitch=1024 time=0
EXTRACT: note_on channel=4 note=66 velocity=95 time=0
EXTRACT: pitchwheel channel=3 pitch=896 time=0.005580354166666667
EXTRACT: note_off channel=10 note=40 velocity=95 time=0.027901770833333336
EXTRACT: pitchwheel channel=4 pitch=896 time=0.005580354166666667
EXTRACT: pitchwheel channel=3 pitch=768 time=0.005580354166666667
EXTRACT: pitchwheel channel=4 pitch=768 time=0.033482125
EXTRACT: pitchwheel channel=3 pitch=640 time=0.005580354166666667
EXTRACT: pitchwheel channel=4 pitch=640 time=0.033482125
EXTRACT: pitchwheel channel=3 pitch=512 time=0.005580354166666667
EXTRACT: pitchwheel channel=4 pitch=512 time=0.033482125
EXTRACT: pitchwheel channel=3 pitch=384 time=0.005580354166666667
EXTRACT: pitchwheel channel=4 pitch=384 time=0.033482125
EXTRACT: pitchwheel channel=3 pitch=256 time=0.005580354166666667
EXTRACT: pitchwheel channel=3 pitch=256 time=0
EXTRACT: pitchwheel channel=3 pitch=0 time=0
EXTRACT: note_off channel=3 note=66 velocity=95 time=0
EXTRACT: pitchwheel channel=3 pitch=1024 time=0.033482125
EXTRACT: note_on channel=3 note=66 velocity=95 time=0
EXTRACT: pitchwheel channel=4 pitch=256 time=0
EXTRACT: pitchwheel channel=4 pitch=256 time=0
EXTRACT: pitchwheel channel=4 pitch=0 time=0
EXTRACT: note_off channel=4 note=66 velocity=95 time=0
EXTRACT: note_off channel=5 note=64 velocity=95 time=0
EXTRACT: note_off channel=5 note=59 velocity=95 time=0
EXTRACT: note_off channel=5 note=55 velocity=95 time=0
EXTRACT: note_off channel=5 note=50 velocity=95 time=0
EXTRACT: pitchwheel channel=3 pitch=896 time=0.022321416666666666
EXTRACT: pitchwheel channel=4 pitch=1024 time=0.011160708333333333
EXTRACT: note_on channel=4 note=66 velocity=95 time=0
EXTRACT: pitchwheel channel=3 pitch=768 time=0.011160708333333333
EXTRACT: pitchwheel channel=4 pitch=896 time=0.011160708333333333
EXTRACT: pitchwheel channel=3 pitch=640 time=0.011160708333333333
EXTRACT: pitchwheel channel=4 pitch=768 time=0.011160708333333333
EXTRACT: pitchwheel channel=3 pitch=512 time=0.011160708333333333
EXTRACT: pitchwheel channel=4 pitch=640 time=0.011160708333333333
EXTRACT: pitchwheel channel=3 pitch=384 time=0.011160708333333333
EXTRACT: pitchwheel channel=4 pitch=512 time=0.011160708333333333
EXTRACT: pitchwheel channel=3 pitch=256 time=0.011160708333333333
EXTRACT: pitchwheel channel=3 pitch=256 time=0
EXTRACT: pitchwheel channel=3 pitch=0 time=0
EXTRACT: note_off channel=3 note=66 velocity=95 time=0
EXTRACT: pitchwheel channel=3 pitch=256 time=0
EXTRACT: note_on channel=3 note=67 velocity=95 time=0
EXTRACT: pitchwheel channel=4 pitch=384 time=0.011160708333333333
EXTRACT: pitchwheel channel=4 pitch=256 time=0.022321416666666666
EXTRACT: pitchwheel channel=4 pitch=256 time=0
EXTRACT: pitchwheel channel=4 pitch=0 time=0
EXTRACT: note_off channel=4 note=66 velocity=95 time=0
EXTRACT: pitchwheel channel=4 pitch=256 time=0
EXTRACT: note_on channel=4 note=67 velocity=95 time=0
EXTRACT: pitchwheel channel=3 pitch=128 time=0.100446375
EXTRACT: note_on channel=5 note=64 velocity=95 time=0
EXTRACT: note_on channel=5 note=59 velocity=95 time=0
EXTRACT: note_on channel=5 note=55 velocity=95 time=0
EXTRACT: note_on channel=5 note=50 velocity=95 time=0
EXTRACT: note_off channel=7 note=33 velocity=95 time=0
EXTRACT: note_off channel=8 note=23 velocity=95 time=0
EXTRACT: note_off channel=9 note=36 velocity=95 time=0
EXTRACT: note_on channel=9 note=28 velocity=95 time=0
EXTRACT: note_on channel=9 note=39 velocity=95 time=0
EXTRACT: pitchwheel channel=4 pitch=128 time=0.033482125
EXTRACT: pitchwheel channel=3 pitch=0 time=0.100446375
EXTRACT: pitchwheel channel=3 pitch=0 time=0
EXTRACT: pitchwheel channel=3 pitch=0 time=0
EXTRACT: note_off channel=3 note=67 velocity=95 time=0
EXTRACT: pitchwheel channel=3 pitch=0 time=0
EXTRACT: note_on channel=3 note=66 velocity=95 time=0
EXTRACT: note_on channel=7 note=33 velocity=95 time=0
EXTRACT: note_on channel=8 note=23 velocity=95 time=0
EXTRACT: note_on channel=10 note=40 velocity=95 time=0
EXTRACT: note_off channel=9 note=28 velocity=95 time=0
EXTRACT: note_off channel=9 note=39 velocity=95 time=0
EXTRACT: note_on channel=9 note=36 velocity=95 time=0
EXTRACT: pitchwheel channel=3 pitch=128 time=0.026785700000000003
EXTRACT: pitchwheel channel=4 pitch=0 time=0.006696425000000001
EXTRACT: pitchwheel channel=4 pitch=0 time=0
EXTRACT: pitchwheel channel=4 pitch=0 time=0
EXTRACT: note_off channel=4 note=67 velocity=95 time=0
EXTRACT: pitchwheel channel=4 pitch=0 time=0
EXTRACT: note_on channel=4 note=66 velocity=95 time=0
EXTRACT: pitchwheel channel=3 pitch=256 time=0.020089275
EXTRACT: pitchwheel channel=4 pitch=128 time=0.006696425000000001
EXTRACT: note_off channel=10 note=40 velocity=95 time=0.006696425000000001
EXTRACT: pitchwheel channel=3 pitch=384 time=0.013392850000000001
EXTRACT: pitchwheel channel=4 pitch=256 time=0.006696425000000001
EXTRACT: pitchwheel channel=3 pitch=512 time=0.020089275
EXTRACT: pitchwheel channel=4 pitch=384 time=0.006696425000000001
EXTRACT: pitchwheel channel=3 pitch=640 time=0.020089275
EXTRACT: pitchwheel channel=3 pitch=640 time=0
EXTRACT: pitchwheel channel=3 pitch=0 time=0
EXTRACT: note_off channel=3 note=66 velocity=95 time=0
EXTRACT: pitchwheel channel=3 pitch=0 time=0
EXTRACT: note_on channel=3 note=67 velocity=95 time=0
EXTRACT: note_off channel=7 note=33 velocity=95 time=0
EXTRACT: note_on channel=7 note=33 velocity=95 time=0
EXTRACT: note_off channel=8 note=23 velocity=95 time=0
EXTRACT: note_on channel=8 note=23 velocity=95 time=0
EXTRACT: note_on channel=10 note=40 velocity=95 time=0
EXTRACT: note_off channel=9 note=36 velocity=95 time=0
EXTRACT: note_on channel=9 note=36 velocity=95 time=0
EXTRACT: pitchwheel channel=4 pitch=512 time=0.006696425000000001
EXTRACT: pitchwheel channel=4 pitch=640 time=0.026785700000000003
EXTRACT: pitchwheel channel=4 pitch=640 time=0
EXTRACT: pitchwheel channel=4 pitch=0 time=0
EXTRACT: note_off channel=4 note=66 velocity=95 time=0
EXTRACT: pitchwheel channel=4 pitch=0 time=0
EXTRACT: note_on channel=4 note=67 velocity=95 time=0
EXTRACT: pitchwheel channel=3 pitch=-128 time=0.020089275
EXTRACT: note_off channel=10 note=40 velocity=95 time=0.013392850000000001
EXTRACT: pitchwheel channel=4 pitch=-128 time=0.020089275
EXTRACT: pitchwheel channel=3 pitch=-256 time=0.020089275
EXTRACT: pitchwheel channel=4 pitch=-256 time=0.033482125
EXTRACT: pitchwheel channel=3 pitch=-384 time=0.020089275
EXTRACT: pitchwheel channel=4 pitch=-384 time=0.033482125
EXTRACT: pitchwheel channel=3 pitch=-512 time=0.020089275
EXTRACT: pitchwheel channel=4 pitch=-512 time=0.033482125
EXTRACT: note_off channel=1 note=71 velocity=95 time=0.020089275
EXTRACT: note_off channel=1 note=66 velocity=95 time=0
EXTRACT: note_off channel=1 note=63 velocity=95 time=0
EXTRACT: note_off channel=1 note=59 velocity=95 time=0
EXTRACT: note_off channel=1 note=47 velocity=95 time=0
EXTRACT: note_on channel=1 note=68 velocity=95 time=0
EXTRACT: note_on channel=1 note=65 velocity=95 time=0
EXTRACT: note_on channel=1 note=61 velocity=95 time=0
EXTRACT: note_on channel=1 note=46 velocity=95 time=0
EXTRACT: pitchwheel channel=2 pitch=0 time=0
EXTRACT: note_on channel=2 note=73 velocity=95 time=0
EXTRACT: pitchwheel channel=3 pitch=-640 time=0
EXTRACT: pitchwheel channel=3 pitch=-640 time=0
EXTRACT: pitchwheel channel=3 pitch=0 time=0
EXTRACT: note_off channel=3 note=67 velocity=95 time=0
EXTRACT: pitchwheel channel=3 pitch=0 time=0
EXTRACT: note_on channel=3 note=67 velocity=95 time=0
EXTRACT: pitchwheel channel=6 pitch=0 time=0
EXTRACT: note_on channel=6 note=53 velocity=95 time=0
EXTRACT: pitchwheel channel=6 pitch=0 time=0
EXTRACT: note_on channel=6 note=53 velocity=95 time=0
EXTRACT: note_off channel=7 note=33 velocity=95 time=0
EXTRACT: note_off channel=9 note=36 velocity=95 time=0
EXTRACT: pitchwheel channel=6 pitch=-128 time=0.016183027083333332
EXTRACT: pitchwheel channel=6 pitch=-128 time=0
EXTRACT: pitchwheel channel=6 pitch=-256 time=0.016183027083333332
EXTRACT: pitchwheel channel=6 pitch=-256 time=0
EXTRACT: pitchwheel channel=4 pitch=-640 time=0.0011160708333333334
EXTRACT: pitchwheel channel=4 pitch=-640 time=0
EXTRACT: pitchwheel channel=4 pitch=0 time=0
EXTRACT: note_off channel=4 note=67 velocity=95 time=0
EXTRACT: pitchwheel channel=4 pitch=0 time=0
EXTRACT: note_on channel=4 note=67 velocity=95 time=0
EXTRACT: pitchwheel channel=6 pitch=-384 time=0.015066956250000001
EXTRACT: pitchwheel channel=6 pitch=-384 time=0
EXTRACT: pitchwheel channel=3 pitch=-128 time=0.00502231875
EXTRACT: pitchwheel channel=6 pitch=-512 time=0.011160708333333333
EXTRACT: pitchwheel channel=6 pitch=-512 time=0
EXTRACT: pitchwheel channel=6 pitch=-640 time=0.016183027083333332
EXTRACT: pitchwheel channel=6 pitch=-640 time=0
EXTRACT: pitchwheel channel=4 pitch=-128 time=0.006138389583333333
EXTRACT: pitchwheel channel=6 pitch=-768 time=0.0100446375
EXTRACT: pitchwheel channel=6 pitch=-768 time=0
EXTRACT: pitchwheel channel=3 pitch=-256 time=0.0100446375
EXTRACT: pitchwheel channel=6 pitch=-896 time=0.006138389583333333
EXTRACT: pitchwheel channel=6 pitch=-896 time=0
EXTRACT: pitchwheel channel=6 pitch=-1024 time=0.016183027083333332
EXTRACT: pitchwheel channel=6 pitch=-1024 time=0
EXTRACT: pitchwheel channel=4 pitch=-256 time=0.011160708333333333
EXTRACT: pitchwheel channel=6 pitch=-1152 time=0.00502231875
EXTRACT: pitchwheel channel=6 pitch=-1152 time=0
EXTRACT: pitchwheel channel=3 pitch=-384 time=0.015066956250000001
EXTRACT: pitchwheel channel=6 pitch=-1280 time=0.0011160708333333334
EXTRACT: pitchwheel channel=6 pitch=-1280 time=0
EXTRACT: pitchwheel channel=6 pitch=-1408 time=0.016183027083333332
EXTRACT: pitchwheel channel=6 pitch=-1408 time=0
EXTRACT: pitchwheel channel=4 pitch=-384 time=0.016183027083333332
EXTRACT: pitchwheel channel=6 pitch=-1536 time=0
EXTRACT: pitchwheel channel=6 pitch=-1536 time=0
EXTRACT: pitchwheel channel=6 pitch=-1664 time=0.016183027083333332
EXTRACT: pitchwheel channel=6 pitch=-1664 time=0
EXTRACT: pitchwheel channel=3 pitch=-512 time=0.003906247916666667
EXTRACT: pitchwheel channel=6 pitch=-1792 time=0.012276779166666666
EXTRACT: pitchwheel channel=6 pitch=-1792 time=0
EXTRACT: pitchwheel channel=6 pitch=-1920 time=0.016183027083333332
EXTRACT: pitchwheel channel=6 pitch=-1920 time=0
EXTRACT: pitchwheel channel=4 pitch=-512 time=0.00502231875
EXTRACT: pitchwheel channel=6 pitch=-2048 time=0.011160708333333333
EXTRACT: pitchwheel channel=6 pitch=-2048 time=0
EXTRACT: pitchwheel channel=3 pitch=-640 time=0.008928566666666667
EXTRACT: pitchwheel channel=3 pitch=-640 time=0
EXTRACT: pitchwheel channel=3 pitch=0 time=0
EXTRACT: note_off channel=3 note=67 velocity=95 time=0
EXTRACT: pitchwheel channel=3 pitch=0 time=0
EXTRACT: note_on channel=3 note=66 velocity=95 time=0
EXTRACT: note_off channel=5 note=64 velocity=95 time=0
EXTRACT: note_off channel=5 note=59 velocity=95 time=0
EXTRACT: note_off channel=5 note=55 velocity=95 time=0
EXTRACT: note_off channel=5 note=50 velocity=95 time=0
EXTRACT: note_on channel=7 note=33 velocity=95 time=0
EXTRACT: note_off channel=8 note=23 velocity=95 time=0
EXTRACT: note_on channel=8 note=23 velocity=95 time=0
EXTRACT: note_on channel=10 note=40 velocity=95 time=0
EXTRACT: note_on channel=9 note=36 velocity=95 time=0
EXTRACT: pitchwheel channel=6 pitch=-2176 time=0.007254460416666667
EXTRACT: pitchwheel channel=6 pitch=-2176 time=0
EXTRACT: pitchwheel channel=6 pitch=-2304 time=0.016183027083333332
EXTRACT: pitchwheel channel=6 pitch=-2304 time=0
EXTRACT: pitchwheel channel=4 pitch=-640 time=0.0100446375
EXTRACT: pitchwheel channel=4 pitch=-640 time=0
EXTRACT: pitchwheel channel=4 pitch=0 time=0
EXTRACT: note_off channel=4 note=67 velocity=95 time=0
EXTRACT: pitchwheel channel=4 pitch=0 time=0
EXTRACT: note_on channel=4 note=66 velocity=95 time=0
EXTRACT: pitchwheel channel=6 pitch=-2432 time=0.006138389583333333
EXTRACT: pitchwheel channel=6 pitch=-2432 time=0
EXTRACT: pitchwheel channel=6 pitch=-2560 time=0.016183027083333332
EXTRACT: pitchwheel channel=6 pitch=-2560 time=0
EXTRACT: note_off channel=10 note=40 velocity=95 time=0.011160708333333333
EXTRACT: pitchwheel channel=6 pitch=-2688 time=0.00502231875
EXTRACT: pitchwheel channel=6 pitch=-2688 time=0
EXTRACT: pitchwheel channel=6 pitch=-2816 time=0.016183027083333332
EXTRACT: pitchwheel channel=6 pitch=-2816 time=0
EXTRACT: pitchwheel channel=6 pitch=-2944 time=0.016183027083333332
EXTRACT: pitchwheel channel=6 pitch=-2944 time=0
EXTRACT: pitchwheel channel=6 pitch=-3072 time=0.016183027083333332
EXTRACT: pitchwheel channel=6 pitch=-3072 time=0
EXTRACT: pitchwheel channel=3 pitch=128 time=0.013392850000000001
EXTRACT: pitchwheel channel=6 pitch=-3200 time=0.0027901770833333333
EXTRACT: pitchwheel channel=6 pitch=-3200 time=0
EXTRACT: pitchwheel channel=6 pitch=-3328 time=0.016183027083333332
EXTRACT: pitchwheel channel=6 pitch=-3328 time=0
EXTRACT: pitchwheel channel=4 pitch=128 time=0.014508920833333334
EXTRACT: pitchwheel channel=6 pitch=-3456 time=0.0016741062500000002
EXTRACT: pitchwheel channel=6 pitch=-3456 time=0
EXTRACT: pitchwheel channel=6 pitch=-3584 time=0.016183027083333332
EXTRACT: pitchwheel channel=6 pitch=-3584 time=0
EXTRACT: pitchwheel channel=6 pitch=-3712 time=0.016183027083333332
EXTRACT: pitchwheel channel=6 pitch=-3712 time=0
EXTRACT: pitchwheel channel=6 pitch=-3840 time=0.016183027083333332
EXTRACT: pitchwheel channel=6 pitch=-3840 time=0
EXTRACT: pitchwheel channel=6 pitch=-3968 time=0.016183027083333332
EXTRACT: pitchwheel channel=6 pitch=-3968 time=0
EXTRACT: pitchwheel channel=6 pitch=-4096 time=0.016183027083333332
EXTRACT: pitchwheel channel=6 pitch=-4096 time=0
EXTRACT: pitchwheel channel=6 pitch=-4224 time=0.016183027083333332
EXTRACT: pitchwheel channel=6 pitch=-4224 time=0
EXTRACT: pitchwheel channel=3 pitch=256 time=0.0016741062500000002
EXTRACT: pitchwheel channel=3 pitch=256 time=0
EXTRACT: pitchwheel channel=3 pitch=0 time=0
EXTRACT: note_off channel=3 note=66 velocity=95 time=0
EXTRACT: pitchwheel channel=3 pitch=0 time=0
EXTRACT: note_on channel=3 note=67 velocity=95 time=0
EXTRACT: note_on channel=5 note=64 velocity=95 time=0
EXTRACT: note_on channel=5 note=59 velocity=95 time=0
EXTRACT: note_on channel=5 note=55 velocity=95 time=0
EXTRACT: note_on channel=5 note=50 velocity=95 time=0
EXTRACT: note_off channel=7 note=33 velocity=95 time=0
EXTRACT: note_off channel=9 note=36 velocity=95 time=0
EXTRACT: note_on channel=9 note=28 velocity=95 time=0
EXTRACT: note_on channel=9 note=39 velocity=95 time=0
EXTRACT: pitchwheel channel=6 pitch=-4352 time=0.014508920833333334
EXTRACT: pitchwheel channel=6 pitch=-4352 time=0
EXTRACT: pitchwheel channel=3 pitch=-128 time=0.0033482125000000003
EXTRACT: pitchwheel channel=6 pitch=-4480 time=0.012834814583333333
EXTRACT: pitchwheel channel=6 pitch=-4480 time=0
EXTRACT: pitchwheel channel=4 pitch=256 time=0.0027901770833333333
EXTRACT: pitchwheel channel=4 pitch=256 time=0
EXTRACT: pitchwheel channel=4 pitch=0 time=0
EXTRACT: note_off channel=4 note=66 velocity=95 time=0
EXTRACT: pitchwheel channel=4 pitch=0 time=0
EXTRACT: note_on channel=4 note=67 velocity=95 time=0
EXTRACT: pitchwheel channel=3 pitch=-256 time=0.0022321416666666667
EXTRACT: pitchwheel channel=6 pitch=-4608 time=0.011160708333333333
EXTRACT: pitchwheel channel=6 pitch=-4608 time=0
EXTRACT: pitchwheel channel=4 pitch=-128 time=0.0044642833333333335
EXTRACT: pitchwheel channel=3 pitch=-384 time=0.0022321416666666667
EXTRACT: pitchwheel channel=6 pitch=-4736 time=0.009486602083333334
EXTRACT: pitchwheel channel=6 pitch=-4736 time=0
EXTRACT: pitchwheel channel=4 pitch=-256 time=0.006138389583333333
EXTRACT: pitchwheel channel=3 pitch=-512 time=0.0022321416666666667
EXTRACT: pitchwheel channel=6 pitch=-4864 time=0.007812495833333334
EXTRACT: pitchwheel channel=6 pitch=-4864 time=0
EXTRACT: pitchwheel channel=4 pitch=-384 time=0.007812495833333334
EXTRACT: pitchwheel channel=3 pitch=-640 time=0.0022321416666666667
EXTRACT: pitchwheel channel=6 pitch=-4992 time=0.006138389583333333
EXTRACT: pitchwheel channel=6 pitch=-4992 time=0
EXTRACT: pitchwheel channel=4 pitch=-512 time=0.009486602083333334
EXTRACT: pitchwheel channel=3 pitch=-768 time=0.0022321416666666667
EXTRACT: pitchwheel channel=6 pitch=-5120 time=0.0044642833333333335
EXTRACT: pitchwheel channel=6 pitch=-5120 time=0
EXTRACT: pitchwheel channel=4 pitch=-640 time=0.011160708333333333
EXTRACT: pitchwheel channel=3 pitch=-896 time=0.0022321416666666667
EXTRACT: pitchwheel channel=6 pitch=-5248 time=0.0027901770833333333
EXTRACT: pitchwheel channel=6 pitch=-5248 time=0
EXTRACT: pitchwheel channel=4 pitch=-768 time=0.012834814583333333
EXTRACT: pitchwheel channel=3 pitch=-1024 time=0.0022321416666666667
EXTRACT: pitchwheel channel=6 pitch=-5376 time=0.0011160708333333334
EXTRACT: pitchwheel channel=6 pitch=-5376 time=0
EXTRACT: pitchwheel channel=4 pitch=-896 time=0.014508920833333334
EXTRACT: pitchwheel channel=6 pitch=-5504 time=0.0016741062500000002
EXTRACT: pitchwheel channel=6 pitch=-5504 time=0
EXTRACT: pitchwheel channel=3 pitch=-1152 time=0.0005580354166666667
EXTRACT: pitchwheel channel=4 pitch=-1024 time=0.015624991666666668
EXTRACT: pitchwheel channel=6 pitch=-5632 time=0
EXTRACT: pitchwheel channel=6 pitch=-5632 time=0
EXTRACT: pitchwheel channel=3 pitch=-1280 time=0.0022321416666666667
EXTRACT: pitchwheel channel=6 pitch=-5760 time=0.013950885416666668
EXTRACT: pitchwheel channel=6 pitch=-5760 time=0
EXTRACT: pitchwheel channel=4 pitch=-1152 time=0.0016741062500000002
EXTRACT: pitchwheel channel=3 pitch=-1408 time=0.0022321416666666667
EXTRACT: pitchwheel channel=3 pitch=-1408 time=0.0044642833333333335
EXTRACT: pitchwheel channel=3 pitch=0 time=0
EXTRACT: note_off channel=3 note=67 velocity=95 time=0
EXTRACT: pitchwheel channel=6 pitch=-5888 time=0.007812495833333334
EXTRACT: pitchwheel channel=6 pitch=-5888 time=0
EXTRACT: pitchwheel channel=4 pitch=-1280 time=0.0033482125000000003
EXTRACT: pitchwheel channel=6 pitch=-6016 time=0.012834814583333333
EXTRACT: pitchwheel channel=6 pitch=-6016 time=0
EXTRACT: pitchwheel channel=4 pitch=-1408 time=0.00502231875
EXTRACT: pitchwheel channel=4 pitch=-1408 time=0.0044642833333333335
EXTRACT: pitchwheel channel=4 pitch=0 time=0
EXTRACT: note_off channel=4 note=67 velocity=95 time=0
EXTRACT: pitchwheel channel=6 pitch=-6144 time=0.006696425000000001
EXTRACT: pitchwheel channel=6 pitch=-6144 time=0
EXTRACT: pitchwheel channel=6 pitch=-6272 time=0.016183027083333332
EXTRACT: pitchwheel channel=6 pitch=-6272 time=0
EXTRACT: pitchwheel channel=3 pitch=0 time=0.010602672916666667
EXTRACT: note_on channel=3 note=66 velocity=95 time=0
EXTRACT: note_off channel=8 note=23 velocity=95 time=0
EXTRACT: pitchwheel channel=6 pitch=-6400 time=0.005580354166666667
EXTRACT: pitchwheel channel=6 pitch=-6400 time=0
EXTRACT: pitchwheel channel=6 pitch=-6528 time=0.016183027083333332
EXTRACT: pitchwheel channel=6 pitch=-6528 time=0
EXTRACT: pitchwheel channel=4 pitch=0 time=0.01171874375
EXTRACT: note_on channel=4 note=66 velocity=95 time=0
EXTRACT: pitchwheel channel=6 pitch=-6656 time=0.0044642833333333335
EXTRACT: pitchwheel channel=6 pitch=-6656 time=0
EXTRACT: pitchwheel channel=6 pitch=-6784 time=0.016183027083333332
EXTRACT: pitchwheel channel=6 pitch=-6784 time=0
EXTRACT: pitchwheel channel=3 pitch=128 time=0.012834814583333333
EXTRACT: pitchwheel channel=6 pitch=-6912 time=0.0033482125000000003
EXTRACT: pitchwheel channel=6 pitch=-6912 time=0
EXTRACT: pitchwheel channel=6 pitch=-7040 time=0.016183027083333332
EXTRACT: pitchwheel channel=6 pitch=-7040 time=0
EXTRACT: pitchwheel channel=2 pitch=0 time=0.0027901770833333333
EXTRACT: pitchwheel channel=4 pitch=128 time=0.011160708333333333
EXTRACT: pitchwheel channel=6 pitch=-7168 time=0.0022321416666666667
EXTRACT: pitchwheel channel=6 pitch=-7168 time=0
EXTRACT: pitchwheel channel=2 pitch=-128 time=0.0005580354166666667
EXTRACT: pitchwheel channel=2 pitch=-256 time=0.013950885416666668
EXTRACT: pitchwheel channel=6 pitch=-7296 time=0.0016741062500000002
EXTRACT: pitchwheel channel=6 pitch=-7296 time=0
EXTRACT: pitchwheel channel=2 pitch=-384 time=0.012276779166666666
EXTRACT: pitchwheel channel=3 pitch=256 time=0.0027901770833333333
EXTRACT: pitchwheel channel=3 pitch=256 time=0
EXTRACT: pitchwheel channel=3 pitch=0 time=0
EXTRACT: note_off channel=3 note=66 velocity=95 time=0
EXTRACT: pitchwheel channel=3 pitch=256 time=0
EXTRACT: note_on channel=3 note=66 velocity=95 time=0
EXTRACT: pitchwheel channel=6 pitch=-7424 time=0.0011160708333333334
EXTRACT: pitchwheel channel=6 pitch=-7424 time=0
EXTRACT: pitchwheel channel=2 pitch=-512 time=0.0100446375
EXTRACT: pitchwheel channel=6 pitch=-7552 time=0.006138389583333333
EXTRACT: pitchwheel channel=6 pitch=-7552 time=0
EXTRACT: pitchwheel channel=2 pitch=-640 time=0.007812495833333334
EXTRACT: pitchwheel channel=4 pitch=256 time=0.00837053125
EXTRACT: pitchwheel channel=4 pitch=256 time=0
EXTRACT: pitchwheel channel=4 pitch=0 time=0
EXTRACT: note_off channel=4 note=66 velocity=95 time=0
EXTRACT: pitchwheel channel=4 pitch=256 time=0
EXTRACT: note_on channel=4 note=66 velocity=95 time=0
EXTRACT: pitchwheel channel=6 pitch=-7680 time=0
EXTRACT: pitchwheel channel=6 pitch=-7680 time=0
EXTRACT: pitchwheel channel=2 pitch=-768 time=0.005580354166666667
EXTRACT: pitchwheel channel=6 pitch=-7808 time=0.010602672916666667
EXTRACT: pitchwheel channel=6 pitch=-7808 time=0
EXTRACT: pitchwheel channel=2 pitch=-896 time=0.0033482125000000003
EXTRACT: pitchwheel channel=6 pitch=-7936 time=0.012834814583333333
EXTRACT: pitchwheel channel=6 pitch=-7936 time=0
EXTRACT: pitchwheel channel=2 pitch=-1024 time=0.0011160708333333334
EXTRACT: pitchwheel channel=2 pitch=-1152 time=0.013950885416666668
EXTRACT: pitchwheel channel=6 pitch=-8064 time=0.0011160708333333334
EXTRACT: pitchwheel channel=6 pitch=-8064 time=0
EXTRACT: pitchwheel channel=2 pitch=-1280 time=0.012834814583333333
EXTRACT: pitchwheel channel=6 pitch=-8192 time=0.0033482125000000003
EXTRACT: pitchwheel channel=6 pitch=-8192 time=0
EXTRACT: pitchwheel channel=2 pitch=-1408 time=0.010602672916666667
EXTRACT: pitchwheel channel=6 pitch=-8192 time=0.005580354166666667
EXTRACT: pitchwheel channel=6 pitch=-8192 time=0
EXTRACT: pitchwheel channel=2 pitch=-1536 time=0.00837053125
EXTRACT: pitchwheel channel=6 pitch=-8192 time=0.007812495833333334
EXTRACT: pitchwheel channel=6 pitch=-8192 time=0
EXTRACT: note_off channel=1 note=68 velocity=95 time=0.0033482125000000003
EXTRACT: note_off channel=1 note=65 velocity=95 time=0
EXTRACT: note_off channel=1 note=61 velocity=95 time=0
EXTRACT: note_off channel=1 note=46 velocity=95 time=0
EXTRACT: note_on channel=1 note=66 velocity=95 time=0
EXTRACT: note_on channel=1 note=63 velocity=95 time=0
EXTRACT: note_on channel=1 note=51 velocity=95 time=0
EXTRACT: pitchwheel channel=3 pitch=256 time=0
EXTRACT: pitchwheel channel=3 pitch=0 time=0
EXTRACT: note_off channel=3 note=66 velocity=95 time=0
EXTRACT: pitchwheel channel=3 pitch=256 time=0
EXTRACT: note_on channel=3 note=67 velocity=95 time=0
EXTRACT: pitchwheel channel=6 pitch=-8192 time=0
EXTRACT: pitchwheel channel=6 pitch=0 time=0
EXTRACT: note_off channel=6 note=53 velocity=95 time=0
EXTRACT: pitchwheel channel=6 pitch=-8192 time=0
EXTRACT: pitchwheel channel=6 pitch=0 time=0
EXTRACT: note_off channel=6 note=53 velocity=95 time=0
EXTRACT: note_on channel=7 note=33 velocity=95 time=0
EXTRACT: note_on channel=8 note=23 velocity=95 time=0
EXTRACT: note_on channel=10 note=40 velocity=95 time=0
EXTRACT: note_off channel=9 note=28 velocity=95 time=0
EXTRACT: note_off channel=9 note=39 velocity=95 time=0
EXTRACT: note_on channel=9 note=36 velocity=95 time=0
EXTRACT: pitchwheel channel=2 pitch=-1664 time=0.0027901770833333333
EXTRACT: pitchwheel channel=2 pitch=-1792 time=0.013950885416666668
EXTRACT: pitchwheel channel=2 pitch=-1920 time=0.013950885416666668
EXTRACT: pitchwheel channel=4 pitch=256 time=0.0027901770833333333
EXTRACT: pitchwheel channel=4 pitch=0 time=0
EXTRACT: note_off channel=4 note=66 velocity=95 time=0
EXTRACT: pitchwheel channel=4 pitch=256 time=0
EXTRACT: note_on channel=4 note=67 velocity=95 time=0
EXTRACT: pitchwheel channel=2 pitch=-2048 time=0.011160708333333333
EXTRACT: pitchwheel channel=2 pitch=-2048 time=0
EXTRACT: note_off channel=10 note=40 velocity=95 time=0.022321416666666666
EXTRACT: pitchwheel channel=3 pitch=256 time=0.022321416666666666
EXTRACT: pitchwheel channel=4 pitch=256 time=0.033482125
EXTRACT: pitchwheel channel=3 pitch=128 time=0.011160708333333333
EXTRACT: pitchwheel channel=4 pitch=128 time=0.033482125
EXTRACT: pitchwheel channel=3 pitch=0 time=0.011160708333333333
EXTRACT: pitchwheel channel=3 pitch=0 time=0
EXTRACT: pitchwheel channel=4 pitch=0 time=0.033482125
EXTRACT: pitchwheel channel=4 pitch=0 time=0
EXTRACT: note_off channel=1 note=66 velocity=95 time=0.05580354166666667
EXTRACT: note_off channel=1 note=63 velocity=95 time=0
EXTRACT: note_off channel=1 note=51 velocity=95 time=0
EXTRACT: pitchwheel channel=2 pitch=-2048 time=0
EXTRACT: pitchwheel channel=2 pitch=0 time=0
EXTRACT: note_off channel=2 note=73 velocity=95 time=0
EXTRACT: pitchwheel channel=3 pitch=0 time=0
EXTRACT: pitchwheel channel=3 pitch=0 time=0
EXTRACT: note_off channel=3 note=67 velocity=95 time=0
EXTRACT: pitchwheel channel=3 pitch=256 time=0
EXTRACT: note_on channel=3 note=66 velocity=95 time=0
EXTRACT: note_off channel=5 note=64 velocity=95 time=0
EXTRACT: note_off channel=5 note=59 velocity=95 time=0
EXTRACT: note_off channel=5 note=55 velocity=95 time=0
EXTRACT: note_off channel=5 note=50 velocity=95 time=0
EXTRACT: note_off channel=8 note=23 velocity=95 time=0
EXTRACT: note_on channel=8 note=23 velocity=95 time=0
EXTRACT: note_on channel=10 note=40 velocity=95 time=0
EXTRACT: note_off channel=9 note=36 velocity=95 time=0
EXTRACT: note_on channel=9 note=36 velocity=95 time=0
EXTRACT: pitchwheel channel=4 pitch=0 time=0.033482125
EXTRACT: pitchwheel channel=4 pitch=0 time=0
EXTRACT: note_off channel=4 note=67 velocity=95 time=0
EXTRACT: pitchwheel channel=4 pitch=256 time=0
EXTRACT: note_on channel=4 note=66 velocity=95 time=0
EXTRACT: note_off channel=10 note=40 velocity=95 time=0.033482125
EXTRACT: pitchwheel channel=3 pitch=256 time=0.20089275
EXTRACT: pitchwheel channel=3 pitch=0 time=0
EXTRACT: note_off channel=3 note=66 velocity=95 time=0
EXTRACT: note_on channel=3 note=67 velocity=95 time=0
EXTRACT: note_on channel=5 note=64 velocity=95 time=0
EXTRACT: note_on channel=5 note=59 velocity=95 time=0
EXTRACT: note_on channel=5 note=55 velocity=95 time=0
EXTRACT: note_on channel=5 note=50 velocity=95 time=0
EXTRACT: note_off channel=7 note=33 velocity=95 time=0
EXTRACT: note_off channel=8 note=23 velocity=95 time=0
EXTRACT: note_off channel=9 note=36 velocity=95 time=0
EXTRACT: note_on channel=9 note=28 velocity=95 time=0
EXTRACT: note_on channel=9 note=39 velocity=95 time=0
EXTRACT: pitchwheel channel=4 pitch=256 time=0.033482125
EXTRACT: pitchwheel channel=4 pitch=0 time=0
EXTRACT: note_off channel=4 note=66 velocity=95 time=0
EXTRACT: note_on channel=4 note=67 velocity=95 time=0
EXTRACT: note_off channel=3 note=67 velocity=95 time=0.234374875
EXTRACT: pitchwheel channel=3 pitch=0 time=0
EXTRACT: note_on channel=3 note=67 velocity=95 time=0
EXTRACT: note_on channel=7 note=33 velocity=95 time=0
EXTRACT: note_on channel=8 note=23 velocity=95 time=0
EXTRACT: note_on channel=10 note=40 velocity=95 time=0
EXTRACT: note_off channel=9 note=28 velocity=95 time=0
EXTRACT: note_off channel=9 note=39 velocity=95 time=0
EXTRACT: note_on channel=9 note=36 velocity=95 time=0
EXTRACT: note_off channel=4 note=67 velocity=95 time=0.033482125
EXTRACT: pitchwheel channel=4 pitch=0 time=0
EXTRACT: note_on channel=4 note=67 velocity=95 time=0
EXTRACT: pitchwheel channel=3 pitch=128 time=0.033482125
EXTRACT: note_off channel=10 note=40 velocity=95 time=0
EXTRACT: pitchwheel channel=4 pitch=128 time=0.033482125
EXTRACT: pitchwheel channel=3 pitch=256 time=0.033482125
EXTRACT: pitchwheel channel=3 pitch=256 time=0
EXTRACT: pitchwheel channel=3 pitch=0 time=0
EXTRACT: note_off channel=3 note=67 velocity=95 time=0
EXTRACT: pitchwheel channel=3 pitch=0 time=0
EXTRACT: note_on channel=3 note=67 velocity=95 time=0
EXTRACT: pitchwheel channel=4 pitch=256 time=0.033482125
EXTRACT: pitchwheel channel=4 pitch=256 time=0
EXTRACT: pitchwheel channel=4 pitch=0 time=0
EXTRACT: note_off channel=4 note=67 velocity=95 time=0
EXTRACT: pitchwheel channel=4 pitch=0 time=0
EXTRACT: note_on channel=4 note=67 velocity=95 time=0
EXTRACT: pitchwheel channel=3 pitch=128 time=0.06696425
EXTRACT: pitchwheel channel=4 pitch=128 time=0.033482125
EXTRACT: note_off channel=9 note=36 velocity=95 time=0
EXTRACT: pitchwheel channel=3 pitch=256 time=0.06696425
EXTRACT: pitchwheel channel=3 pitch=256 time=0
EXTRACT: pitchwheel channel=3 pitch=0 time=0
EXTRACT: note_off channel=3 note=67 velocity=95 time=0
EXTRACT: pitchwheel channel=4 pitch=256 time=0.033482125
EXTRACT: pitchwheel channel=4 pitch=256 time=0
EXTRACT: pitchwheel channel=4 pitch=0 time=0
EXTRACT: note_off channel=4 note=67 velocity=95 time=0
EXTRACT: pitchwheel channel=3 pitch=0 time=0.167410625
EXTRACT: note_on channel=3 note=65 velocity=95 time=0
EXTRACT: note_off channel=5 note=64 velocity=95 time=0
EXTRACT: note_off channel=5 note=59 velocity=95 time=0
EXTRACT: note_off channel=5 note=55 velocity=95 time=0
EXTRACT: note_off channel=5 note=50 velocity=95 time=0
EXTRACT: note_off channel=7 note=33 velocity=95 time=0
EXTRACT: note_on channel=7 note=33 velocity=95 time=0
EXTRACT: note_off channel=8 note=23 velocity=95 time=0
EXTRACT: note_on channel=8 note=23 velocity=95 time=0
EXTRACT: note_on channel=10 note=40 velocity=95 time=0
EXTRACT: note_on channel=9 note=36 velocity=95 time=0
EXTRACT: pitchwheel channel=4 pitch=0 time=0.033482125
EXTRACT: note_on channel=4 note=65 velocity=95 time=0
EXTRACT: note_off channel=10 note=40 velocity=95 time=0.033482125
EXTRACT: pitchwheel channel=3 pitch=0 time=0.20089275
EXTRACT: note_on channel=5 note=64 velocity=95 time=0
EXTRACT: note_on channel=5 note=59 velocity=95 time=0
EXTRACT: note_on channel=5 note=55 velocity=95 time=0
EXTRACT: note_on channel=5 note=50 velocity=95 time=0
EXTRACT: note_off channel=7 note=33 velocity=95 time=0
EXTRACT: note_off channel=9 note=36 velocity=95 time=0
EXTRACT: note_on channel=9 note=28 velocity=95 time=0
EXTRACT: note_on channel=9 note=39 velocity=95 time=0
EXTRACT: pitchwheel channel=4 pitch=0 time=0.033482125
EXTRACT: pitchwheel channel=3 pitch=128 time=0.100446375
EXTRACT: pitchwheel channel=4 pitch=128 time=0.033482125
EXTRACT: pitchwheel channel=3 pitch=256 time=0.100446375
EXTRACT: pitchwheel channel=3 pitch=256 time=0
EXTRACT: pitchwheel channel=3 pitch=0 time=0
EXTRACT: note_off channel=3 note=65 velocity=95 time=0
EXTRACT: note_off channel=8 note=23 velocity=95 time=0
EXTRACT: pitchwheel channel=4 pitch=256 time=0.033482125
EXTRACT: pitchwheel channel=4 pitch=256 time=0
EXTRACT: pitchwheel channel=4 pitch=0 time=0
EXTRACT: note_off channel=4 note=65 velocity=95 time=0
EXTRACT: pitchwheel channel=3 pitch=0 time=0.100446375
EXTRACT: note_on channel=3 note=66 velocity=95 time=0
EXTRACT: pitchwheel channel=4 pitch=0 time=0.033482125
EXTRACT: note_on channel=4 note=66 velocity=95 time=0
EXTRACT: pitchwheel channel=3 pitch=128 time=0.033482125
EXTRACT: pitchwheel channel=4 pitch=128 time=0.033482125
EXTRACT: pitchwheel channel=3 pitch=256 time=0.033482125
EXTRACT: pitchwheel channel=3 pitch=256 time=0
EXTRACT: pitchwheel channel=3 pitch=0 time=0
EXTRACT: note_off channel=3 note=66 velocity=95 time=0
EXTRACT: pitchwheel channel=3 pitch=256 time=0
EXTRACT: note_on channel=3 note=67 velocity=95 time=0
EXTRACT: note_on channel=7 note=33 velocity=95 time=0
EXTRACT: note_on channel=8 note=23 velocity=95 time=0
EXTRACT: note_on channel=10 note=40 velocity=95 time=0
EXTRACT: note_off channel=9 note=28 velocity=95 time=0
EXTRACT: note_off channel=9 note=39 velocity=95 time=0
EXTRACT: note_on channel=9 note=36 velocity=95 time=0
EXTRACT: pitchwheel channel=4 pitch=256 time=0.033482125
EXTRACT: pitchwheel channel=4 pitch=256 time=0
EXTRACT: pitchwheel channel=4 pitch=0 time=0
EXTRACT: note_off channel=4 note=66 velocity=95 time=0
EXTRACT: pitchwheel channel=4 pitch=256 time=0
EXTRACT: note_on channel=4 note=67 velocity=95 time=0
EXTRACT: note_off channel=10 note=40 velocity=95 time=0.033482125
EXTRACT: pitchwheel channel=3 pitch=256 time=0.022321416666666666
EXTRACT: pitchwheel channel=4 pitch=256 time=0.033482125
EXTRACT: pitchwheel channel=3 pitch=128 time=0.011160708333333333
EXTRACT: pitchwheel channel=4 pitch=128 time=0.033482125
EXTRACT: pitchwheel channel=3 pitch=0 time=0.011160708333333333
EXTRACT: pitchwheel channel=3 pitch=0 time=0
EXTRACT: pitchwheel channel=4 pitch=0 time=0.033482125
EXTRACT: pitchwheel channel=4 pitch=0 time=0
EXTRACT: pitchwheel channel=3 pitch=0 time=0.05580354166666667
EXTRACT: pitchwheel channel=3 pitch=0 time=0
EXTRACT: note_off channel=3 note=67 velocity=95 time=0
EXTRACT: pitchwheel channel=3 pitch=256 time=0
EXTRACT: note_on channel=3 note=66 velocity=95 time=0
EXTRACT: note_off channel=5 note=64 velocity=95 time=0
EXTRACT: note_off channel=5 note=59 velocity=95 time=0
EXTRACT: note_off channel=5 note=55 velocity=95 time=0
EXTRACT: note_off channel=5 note=50 velocity=95 time=0
EXTRACT: pitchwheel channel=4 pitch=0 time=0.033482125
EXTRACT: pitchwheel channel=4 pitch=0 time=0
EXTRACT: note_off channel=4 note=67 velocity=95 time=0
EXTRACT: pitchwheel channel=4 pitch=256 time=0
EXTRACT: note_on channel=4 note=66 velocity=95 time=0
EXTRACT: pitchwheel channel=3 pitch=256 time=0.234374875
EXTRACT: pitchwheel channel=3 pitch=0 time=0
EXTRACT: note_off channel=3 note=66 velocity=95 time=0
EXTRACT: note_on channel=3 note=67 velocity=95 time=0
EXTRACT: note_on channel=5 note=64 velocity=95 time=0
EXTRACT: note_on channel=5 note=59 velocity=95 time=0
EXTRACT: note_on channel=5 note=55 velocity=95 time=0
EXTRACT: note_on channel=5 note=50 velocity=95 time=0
EXTRACT: note_off channel=7 note=33 velocity=95 time=0
EXTRACT: note_off channel=8 note=23 velocity=95 time=0
EXTRACT: note_off channel=9 note=36 velocity=95 time=0
EXTRACT: note_on channel=9 note=28 velocity=95 time=0
EXTRACT: note_on channel=9 note=39 velocity=95 time=0
EXTRACT: pitchwheel channel=4 pitch=256 time=0.033482125
EXTRACT: pitchwheel channel=4 pitch=0 time=0
EXTRACT: note_off channel=4 note=66 velocity=95 time=0
EXTRACT: note_on channel=4 note=67 velocity=95 time=0
EXTRACT: note_off channel=3 note=67 velocity=95 time=0.234374875
EXTRACT: pitchwheel channel=3 pitch=0 time=0
EXTRACT: note_on channel=3 note=67 velocity=95 time=0
EXTRACT: note_on channel=7 note=33 velocity=95 time=0
EXTRACT: note_on channel=8 note=23 velocity=95 time=0
EXTRACT: note_on channel=10 note=40 velocity=95 time=0
EXTRACT: note_off channel=9 note=28 velocity=95 time=0
EXTRACT: note_off channel=9 note=39 velocity=95 time=0
EXTRACT: note_on channel=9 note=36 velocity=95 time=0
EXTRACT: note_off channel=4 note=67 velocity=95 time=0.033482125
EXTRACT: pitchwheel channel=4 pitch=0 time=0
EXTRACT: note_on channel=4 note=67 velocity=95 time=0
EXTRACT: pitchwheel channel=3 pitch=128 time=0.033482125
EXTRACT: note_off channel=10 note=40 velocity=95 time=0
EXTRACT: pitchwheel channel=4 pitch=128 time=0.033482125
EXTRACT: pitchwheel channel=3 pitch=256 time=0.033482125
EXTRACT: pitchwheel channel=3 pitch=256 time=0
EXTRACT: pitchwheel channel=3 pitch=0 time=0
EXTRACT: note_off channel=3 note=67 velocity=95 time=0
EXTRACT: pitchwheel channel=3 pitch=0 time=0
EXTRACT: note_on channel=3 note=67 velocity=95 time=0
EXTRACT: pitchwheel channel=4 pitch=256 time=0.033482125
EXTRACT: pitchwheel channel=4 pitch=256 time=0
EXTRACT: pitchwheel channel=4 pitch=0 time=0
EXTRACT: note_off channel=4 note=67 velocity=95 time=0
EXTRACT: pitchwheel channel=4 pitch=0 time=0
EXTRACT: note_on channel=4 note=67 velocity=95 time=0
EXTRACT: pitchwheel channel=3 pitch=128 time=0.06696425
EXTRACT: pitchwheel channel=4 pitch=128 time=0.033482125
EXTRACT: pitchwheel channel=6 pitch=0 time=0
EXTRACT: note_on channel=6 note=53 velocity=95 time=0
EXTRACT: pitchwheel channel=6 pitch=0 time=0
EXTRACT: note_on channel=6 note=53 velocity=95 time=0
EXTRACT: note_off channel=9 note=36 velocity=95 time=0
EXTRACT: pitchwheel channel=6 pitch=-128 time=0.016183027083333332
EXTRACT: pitchwheel channel=6 pitch=-128 time=0
EXTRACT: pitchwheel channel=6 pitch=-256 time=0.016183027083333332
EXTRACT: pitchwheel channel=6 pitch=-256 time=0
EXTRACT: pitchwheel channel=6 pitch=-384 time=0.016183027083333332
EXTRACT: pitchwheel channel=6 pitch=-384 time=0
EXTRACT: pitchwheel channel=6 pitch=-512 time=0.016183027083333332
EXTRACT: pitchwheel channel=6 pitch=-512 time=0
EXTRACT: pitchwheel channel=3 pitch=256 time=0.0022321416666666667
EXTRACT: pitchwheel channel=3 pitch=256 time=0
EXTRACT: pitchwheel channel=3 pitch=0 time=0
EXTRACT: note_off channel=3 note=67 velocity=95 time=0
EXTRACT: pitchwheel channel=6 pitch=-640 time=0.013950885416666668
EXTRACT: pitchwheel channel=6 pitch=-640 time=0
EXTRACT: pitchwheel channel=6 pitch=-768 time=0.016183027083333332
EXTRACT: pitchwheel channel=6 pitch=-768 time=0
EXTRACT: pitchwheel channel=4 pitch=256 time=0.0033482125000000003
EXTRACT: pitchwheel channel=4 pitch=256 time=0
EXTRACT: pitchwheel channel=4 pitch=0 time=0
EXTRACT: note_off channel=4 note=67 velocity=95 time=0
EXTRACT: pitchwheel channel=6 pitch=-896 time=0.012834814583333333
EXTRACT: pitchwheel channel=6 pitch=-896 time=0
EXTRACT: pitchwheel channel=6 pitch=-1024 time=0.016183027083333332
EXTRACT: pitchwheel channel=6 pitch=-1024 time=0
EXTRACT: pitchwheel channel=6 pitch=-1152 time=0.016183027083333332
EXTRACT: pitchwheel channel=6 pitch=-1152 time=0
EXTRACT: pitchwheel channel=6 pitch=-1280 time=0.016183027083333332
EXTRACT: pitchwheel channel=6 pitch=-1280 time=0
EXTRACT: pitchwheel channel=6 pitch=-1408 time=0.016183027083333332
EXTRACT: pitchwheel channel=6 pitch=-1408 time=0
EXTRACT: pitchwheel channel=6 pitch=-1536 time=0.016183027083333332
EXTRACT: pitchwheel channel=6 pitch=-1536 time=0
EXTRACT: pitchwheel channel=6 pitch=-1664 time=0.016183027083333332
EXTRACT: pitchwheel channel=6 pitch=-1664 time=0
EXTRACT: pitchwheel channel=6 pitch=-1792 time=0.016183027083333332
EXTRACT: pitchwheel channel=6 pitch=-1792 time=0
EXTRACT: pitchwheel channel=6 pitch=-1920 time=0.016183027083333332
EXTRACT: pitchwheel channel=6 pitch=-1920 time=0
EXTRACT: pitchwheel channel=6 pitch=-2048 time=0.016183027083333332
EXTRACT: pitchwheel channel=6 pitch=-2048 time=0
EXTRACT: pitchwheel channel=3 pitch=0 time=0.008928566666666667
EXTRACT: note_on channel=3 note=65 velocity=95 time=0
EXTRACT: note_off channel=5 note=64 velocity=95 time=0
EXTRACT: note_off channel=5 note=59 velocity=95 time=0
EXTRACT: note_off channel=5 note=55 velocity=95 time=0
EXTRACT: note_off channel=5 note=50 velocity=95 time=0
EXTRACT: note_off channel=7 note=33 velocity=95 time=0
EXTRACT: note_on channel=7 note=33 velocity=95 time=0
EXTRACT: note_off channel=8 note=23 velocity=95 time=0
EXTRACT: note_on channel=8 note=23 velocity=95 time=0
EXTRACT: note_on channel=10 note=40 velocity=95 time=0
EXTRACT: note_on channel=9 note=36 velocity=95 time=0
EXTRACT: pitchwheel channel=6 pitch=-2176 time=0.007254460416666667
EXTRACT: pitchwheel channel=6 pitch=-2176 time=0
EXTRACT: pitchwheel channel=6 pitch=-2304 time=0.016183027083333332
EXTRACT: pitchwheel channel=6 pitch=-2304 time=0
EXTRACT: pitchwheel channel=4 pitch=0 time=0.0100446375
EXTRACT: note_on channel=4 note=65 velocity=95 time=0
EXTRACT: pitchwheel channel=6 pitch=-2432 time=0.006138389583333333
EXTRACT: pitchwheel channel=6 pitch=-2432 time=0
EXTRACT: pitchwheel channel=6 pitch=-2560 time=0.016183027083333332
EXTRACT: pitchwheel channel=6 pitch=-2560 time=0
EXTRACT: note_off channel=10 note=40 velocity=95 time=0.011160708333333333
EXTRACT: pitchwheel channel=6 pitch=-2688 time=0.00502231875
EXTRACT: pitchwheel channel=6 pitch=-2688 time=0
EXTRACT: pitchwheel channel=6 pitch=-2816 time=0.016183027083333332
EXTRACT: pitchwheel channel=6 pitch=-2816 time=0
EXTRACT: pitchwheel channel=6 pitch=-2944 time=0.016183027083333332
EXTRACT: pitchwheel channel=6 pitch=-2944 time=0
EXTRACT: pitchwheel channel=6 pitch=-3072 time=0.016183027083333332
EXTRACT: pitchwheel channel=6 pitch=-3072 time=0
EXTRACT: pitchwheel channel=6 pitch=-3200 time=0.016183027083333332
EXTRACT: pitchwheel channel=6 pitch=-3200 time=0
EXTRACT: pitchwheel channel=6 pitch=-3328 time=0.016183027083333332
EXTRACT: pitchwheel channel=6 pitch=-3328 time=0
EXTRACT: pitchwheel channel=6 pitch=-3456 time=0.016183027083333332
EXTRACT: pitchwheel channel=6 pitch=-3456 time=0
EXTRACT: pitchwheel channel=6 pitch=-3584 time=0.016183027083333332
EXTRACT: pitchwheel channel=6 pitch=-3584 time=0
EXTRACT: pitchwheel channel=6 pitch=-3712 time=0.016183027083333332
EXTRACT: pitchwheel channel=6 pitch=-3712 time=0
EXTRACT: pitchwheel channel=6 pitch=-3840 time=0.016183027083333332
EXTRACT: pitchwheel channel=6 pitch=-3840 time=0
EXTRACT: pitchwheel channel=6 pitch=-3968 time=0.016183027083333332
EXTRACT: pitchwheel channel=6 pitch=-3968 time=0
EXTRACT: pitchwheel channel=6 pitch=-4096 time=0.016183027083333332
EXTRACT: pitchwheel channel=6 pitch=-4096 time=0
EXTRACT: pitchwheel channel=6 pitch=-4224 time=0.016183027083333332
EXTRACT: pitchwheel channel=6 pitch=-4224 time=0
EXTRACT: pitchwheel channel=3 pitch=0 time=0.0016741062500000002
EXTRACT: note_on channel=5 note=64 velocity=95 time=0
EXTRACT: note_on channel=5 note=59 velocity=95 time=0
EXTRACT: note_on channel=5 note=55 velocity=95 time=0
EXTRACT: note_on channel=5 note=50 velocity=95 time=0
EXTRACT: note_off channel=7 note=33 velocity=95 time=0
EXTRACT: note_off channel=9 note=36 velocity=95 time=0
EXTRACT: note_on channel=9 note=28 velocity=95 time=0
EXTRACT: note_on channel=9 note=39 velocity=95 time=0
EXTRACT: pitchwheel channel=6 pitch=-4352 time=0.014508920833333334
EXTRACT: pitchwheel channel=6 pitch=-4352 time=0
EXTRACT: pitchwheel channel=6 pitch=-4480 time=0.016183027083333332
EXTRACT: pitchwheel channel=6 pitch=-4480 time=0
EXTRACT: pitchwheel channel=4 pitch=0 time=0.0027901770833333333
EXTRACT: pitchwheel channel=6 pitch=-4608 time=0.013392850000000001
EXTRACT: pitchwheel channel=6 pitch=-4608 time=0
EXTRACT: pitchwheel channel=6 pitch=-4736 time=0.016183027083333332
EXTRACT: pitchwheel channel=6 pitch=-4736 time=0
EXTRACT: pitchwheel channel=6 pitch=-4864 time=0.016183027083333332
EXTRACT: pitchwheel channel=6 pitch=-4864 time=0
EXTRACT: pitchwheel channel=6 pitch=-4992 time=0.016183027083333332
EXTRACT: pitchwheel channel=6 pitch=-4992 time=0
EXTRACT: pitchwheel channel=6 pitch=-5120 time=0.016183027083333332
EXTRACT: pitchwheel channel=6 pitch=-5120 time=0
EXTRACT: pitchwheel channel=6 pitch=-5248 time=0.016183027083333332
EXTRACT: pitchwheel channel=6 pitch=-5248 time=0
EXTRACT: pitchwheel channel=3 pitch=128 time=0.006138389583333333
EXTRACT: pitchwheel channel=6 pitch=-5376 time=0.0100446375
EXTRACT: pitchwheel channel=6 pitch=-5376 time=0
EXTRACT: pitchwheel channel=6 pitch=-5504 time=0.016183027083333332
EXTRACT: pitchwheel channel=6 pitch=-5504 time=0
EXTRACT: pitchwheel channel=4 pitch=128 time=0.007254460416666667
EXTRACT: pitchwheel channel=6 pitch=-5632 time=0.008928566666666667
EXTRACT: pitchwheel channel=6 pitch=-5632 time=0
EXTRACT: pitchwheel channel=6 pitch=-5760 time=0.016183027083333332
EXTRACT: pitchwheel channel=6 pitch=-5760 time=0
EXTRACT: pitchwheel channel=6 pitch=-5888 time=0.016183027083333332
EXTRACT: pitchwheel channel=6 pitch=-5888 time=0
EXTRACT: pitchwheel channel=6 pitch=-6016 time=0.016183027083333332
EXTRACT: pitchwheel channel=6 pitch=-6016 time=0
EXTRACT: pitchwheel channel=6 pitch=-6144 time=0.016183027083333332
EXTRACT: pitchwheel channel=6 pitch=-6144 time=0
EXTRACT: pitchwheel channel=6 pitch=-6272 time=0.016183027083333332
EXTRACT: pitchwheel channel=6 pitch=-6272 time=0
EXTRACT: note_on channel=0 note=58 velocity=95 time=0.010602672916666667
EXTRACT: note_on channel=2 note=58 velocity=95 time=0
EXTRACT: pitchwheel channel=3 pitch=256 time=0
EXTRACT: pitchwheel channel=3 pitch=256 time=0
EXTRACT: pitchwheel channel=3 pitch=0 time=0
EXTRACT: note_off channel=3 note=65 velocity=95 time=0
EXTRACT: note_off channel=8 note=23 velocity=95 time=0
EXTRACT: pitchwheel channel=6 pitch=-6400 time=0.005580354166666667
EXTRACT: pitchwheel channel=6 pitch=-6400 time=0
EXTRACT: pitchwheel channel=6 pitch=-6528 time=0.016183027083333332
EXTRACT: pitchwheel channel=6 pitch=-6528 time=0
EXTRACT: pitchwheel channel=4 pitch=256 time=0.01171874375
EXTRACT: pitchwheel channel=4 pitch=256 time=0
EXTRACT: pitchwheel channel=4 pitch=0 time=0
EXTRACT: note_off channel=4 note=65 velocity=95 time=0
EXTRACT: pitchwheel channel=6 pitch=-6656 time=0.0044642833333333335
EXTRACT: pitchwheel channel=6 pitch=-6656 time=0
EXTRACT: pitchwheel channel=6 pitch=-6784 time=0.016183027083333332
EXTRACT: pitchwheel channel=6 pitch=-6784 time=0
EXTRACT: pitchwheel channel=6 pitch=-6912 time=0.016183027083333332
EXTRACT: pitchwheel channel=6 pitch=-6912 time=0
EXTRACT: pitchwheel channel=6 pitch=-7040 time=0.016183027083333332
EXTRACT: pitchwheel channel=6 pitch=-7040 time=0
EXTRACT: pitchwheel channel=6 pitch=-7168 time=0.016183027083333332
EXTRACT: pitchwheel channel=6 pitch=-7168 time=0
EXTRACT: pitchwheel channel=6 pitch=-7296 time=0.016183027083333332
EXTRACT: pitchwheel channel=6 pitch=-7296 time=0
EXTRACT: pitchwheel channel=6 pitch=-7424 time=0.016183027083333332
EXTRACT: pitchwheel channel=6 pitch=-7424 time=0
EXTRACT: pitchwheel channel=6 pitch=-7552 time=0.016183027083333332
EXTRACT: pitchwheel channel=6 pitch=-7552 time=0
EXTRACT: pitchwheel channel=6 pitch=-7680 time=0.016183027083333332
EXTRACT: pitchwheel channel=6 pitch=-7680 time=0
EXTRACT: pitchwheel channel=6 pitch=-7808 time=0.016183027083333332
EXTRACT: pitchwheel channel=6 pitch=-7808 time=0
EXTRACT: pitchwheel channel=6 pitch=-7936 time=0.016183027083333332
EXTRACT: pitchwheel channel=6 pitch=-7936 time=0
EXTRACT: pitchwheel channel=6 pitch=-8064 time=0.016183027083333332
EXTRACT: pitchwheel channel=6 pitch=-8064 time=0
EXTRACT: pitchwheel channel=6 pitch=-8192 time=0.016183027083333332
EXTRACT: pitchwheel channel=6 pitch=-8192 time=0
EXTRACT: pitchwheel channel=6 pitch=-8192 time=0.016183027083333332
EXTRACT: pitchwheel channel=6 pitch=-8192 time=0
EXTRACT: pitchwheel channel=6 pitch=-8192 time=0.016183027083333332
EXTRACT: pitchwheel channel=6 pitch=-8192 time=0
EXTRACT: note_off channel=0 note=58 velocity=95 time=0.0033482125000000003
EXTRACT: note_on channel=0 note=59 velocity=70 time=0
EXTRACT: note_on channel=1 note=71 velocity=95 time=0
EXTRACT: note_on channel=1 note=66 velocity=95 time=0
EXTRACT: note_on channel=1 note=63 velocity=95 time=0
EXTRACT: note_on channel=1 note=59 velocity=95 time=0
EXTRACT: note_off channel=2 note=58 velocity=95 time=0
EXTRACT: note_on channel=2 note=59 velocity=70 time=0
EXTRACT: pitchwheel channel=6 pitch=-8192 time=0
EXTRACT: pitchwheel channel=6 pitch=0 time=0
EXTRACT: note_off channel=6 note=53 velocity=95 time=0
EXTRACT: pitchwheel channel=6 pitch=-8192 time=0
EXTRACT: pitchwheel channel=6 pitch=0 time=0
EXTRACT: note_off channel=6 note=53 velocity=95 time=0
EXTRACT: note_on channel=7 note=33 velocity=95 time=0
EXTRACT: note_on channel=8 note=23 velocity=95 time=0
EXTRACT: note_on channel=10 note=40 velocity=95 time=0
EXTRACT: note_off channel=9 note=28 velocity=95 time=0
EXTRACT: note_off channel=9 note=39 velocity=95 time=0
EXTRACT: note_on channel=9 note=36 velocity=95 time=0
EXTRACT: note_off channel=10 note=40 velocity=95 time=0.06696425
EXTRACT: note_off channel=0 note=59 velocity=70 time=0.20089275
EXTRACT: note_on channel=0 note=63 velocity=95 time=0
EXTRACT: note_off channel=2 note=59 velocity=70 time=0
EXTRACT: note_on channel=2 note=63 velocity=95 time=0
EXTRACT: note_off channel=5 note=64 velocity=95 time=0
EXTRACT: note_off channel=5 note=59 velocity=95 time=0
EXTRACT: note_off channel=5 note=55 velocity=95 time=0
EXTRACT: note_off channel=5 note=50 velocity=95 time=0
EXTRACT: note_off channel=0 note=63 velocity=95 time=0.267857
EXTRACT: note_on channel=0 note=66 velocity=95 time=0
EXTRACT: note_off channel=2 note=63 velocity=95 time=0
EXTRACT: note_on channel=2 note=66 velocity=95 time=0
EXTRACT: note_on channel=4 note=63 velocity=47 time=0
EXTRACT: note_on channel=4 note=59 velocity=95 time=0
EXTRACT: note_on channel=5 note=64 velocity=95 time=0
EXTRACT: note_on channel=5 note=59 velocity=95 time=0
EXTRACT: note_on channel=5 note=55 velocity=95 time=0
EXTRACT: note_on channel=5 note=50 velocity=95 time=0
EXTRACT: note_off channel=7 note=33 velocity=95 time=0
EXTRACT: note_off channel=8 note=23 velocity=95 time=0
EXTRACT: note_off channel=9 note=36 velocity=95 time=0
EXTRACT: note_on channel=9 note=28 velocity=95 time=0
EXTRACT: note_on channel=9 note=39 velocity=95 time=0
EXTRACT: note_on channel=3 note=63 velocity=47 time=0.033482125
EXTRACT: note_on channel=3 note=59 velocity=95 time=0
EXTRACT: note_off channel=0 note=66 velocity=95 time=0.234374875
EXTRACT: note_on channel=0 note=59 velocity=95 time=0
EXTRACT: note_off channel=2 note=66 velocity=95 time=0
EXTRACT: note_on channel=2 note=59 velocity=95 time=0
EXTRACT: note_on channel=7 note=33 velocity=95 time=0
EXTRACT: note_on channel=8 note=23 velocity=95 time=0
EXTRACT: note_on channel=10 note=40 velocity=95 time=0
EXTRACT: note_off channel=9 note=28 velocity=95 time=0
EXTRACT: note_off channel=9 note=39 velocity=95 time=0
EXTRACT: note_on channel=9 note=36 velocity=95 time=0
EXTRACT: note_off channel=10 note=40 velocity=95 time=0.06696425
EXTRACT: note_off channel=0 note=59 velocity=95 time=0.20089275
EXTRACT: note_on channel=0 note=58 velocity=70 time=0
EXTRACT: note_off channel=1 note=71 velocity=95 time=0
EXTRACT: note_off channel=1 note=66 velocity=95 time=0
EXTRACT: note_off channel=1 note=63 velocity=95 time=0
EXTRACT: note_off channel=1 note=59 velocity=95 time=0
EXTRACT: note_on channel=1 note=70 velocity=95 time=0
EXTRACT: note_on channel=1 note=66 velocity=95 time=0
EXTRACT: note_on channel=1 note=63 velocity=95 time=0
EXTRACT: note_on channel=1 note=58 velocity=95 time=0
EXTRACT: note_off channel=2 note=59 velocity=95 time=0
EXTRACT: note_on channel=2 note=58 velocity=70 time=0
EXTRACT: note_off channel=4 note=63 velocity=47 time=0
EXTRACT: note_off channel=4 note=59 velocity=95 time=0
EXTRACT: note_on channel=4 note=61 velocity=47 time=0
EXTRACT: note_on channel=4 note=58 velocity=95 time=0
EXTRACT: note_off channel=9 note=36 velocity=95 time=0
EXTRACT: note_off channel=3 note=63 velocity=47 time=0.033482125
EXTRACT: note_off channel=3 note=59 velocity=95 time=0
EXTRACT: note_on channel=3 note=61 velocity=47 time=0
EXTRACT: note_on channel=3 note=58 velocity=95 time=0
EXTRACT: note_off channel=0 note=58 velocity=70 time=0.234374875
EXTRACT: note_on channel=0 note=63 velocity=95 time=0
EXTRACT: note_off channel=2 note=58 velocity=70 time=0
EXTRACT: note_on channel=2 note=63 velocity=95 time=0
EXTRACT: note_off channel=5 note=64 velocity=95 time=0
EXTRACT: note_off channel=5 note=59 velocity=95 time=0
EXTRACT: note_off channel=5 note=55 velocity=95 time=0
EXTRACT: note_off channel=5 note=50 velocity=95 time=0
EXTRACT: note_off channel=7 note=33 velocity=95 time=0
EXTRACT: note_on channel=7 note=33 velocity=95 time=0
EXTRACT: note_off channel=8 note=23 velocity=95 time=0
EXTRACT: note_on channel=8 note=23 velocity=95 time=0
EXTRACT: note_on channel=10 note=40 velocity=95 time=0
EXTRACT: note_on channel=9 note=36 velocity=95 time=0
EXTRACT: note_off channel=10 note=40 velocity=95 time=0.06696425
EXTRACT: note_off channel=0 note=63 velocity=95 time=0.20089275
EXTRACT: note_off channel=2 note=63 velocity=95 time=0
EXTRACT: note_off channel=4 note=61 velocity=47 time=0
EXTRACT: note_off channel=4 note=58 velocity=95 time=0
EXTRACT: pitchwheel channel=4 pitch=0 time=0
EXTRACT: note_on channel=4 note=62 velocity=95 time=0
EXTRACT: note_on channel=5 note=64 velocity=95 time=0
EXTRACT: note_on channel=5 note=59 velocity=95 time=0
EXTRACT: note_on channel=5 note=55 velocity=95 time=0
EXTRACT: note_on channel=5 note=50 velocity=95 time=0
EXTRACT: note_off channel=7 note=33 velocity=95 time=0
EXTRACT: note_off channel=9 note=36 velocity=95 time=0
EXTRACT: note_on channel=9 note=28 velocity=95 time=0
EXTRACT: note_on channel=9 note=39 velocity=95 time=0
EXTRACT: note_off channel=3 note=61 velocity=47 time=0.033482125
EXTRACT: note_off channel=3 note=58 velocity=95 time=0
EXTRACT: pitchwheel channel=3 pitch=0 time=0
EXTRACT: note_on channel=3 note=63 velocity=95 time=0
EXTRACT: pitchwheel channel=4 pitch=128 time=0.013392850000000001
EXTRACT: pitchwheel channel=3 pitch=128 time=0.033482125
EXTRACT: pitchwheel channel=4 pitch=256 time=0.013392850000000001
EXTRACT: pitchwheel channel=3 pitch=256 time=0.033482125
EXTRACT: pitchwheel channel=4 pitch=384 time=0.013392850000000001
EXTRACT: pitchwheel channel=3 pitch=384 time=0.033482125
EXTRACT: pitchwheel channel=4 pitch=512 time=0.013392850000000001
EXTRACT: pitchwheel channel=3 pitch=512 time=0.033482125
EXTRACT: pitchwheel channel=4 pitch=640 time=0.013392850000000001
EXTRACT: pitchwheel channel=4 pitch=640 time=0
EXTRACT: pitchwheel channel=4 pitch=0 time=0
EXTRACT: note_off channel=4 note=62 velocity=95 time=0
EXTRACT: note_on channel=0 note=58 velocity=95 time=0.033482125
EXTRACT: note_on channel=2 note=58 velocity=95 time=0
EXTRACT: pitchwheel channel=3 pitch=640 time=0
EXTRACT: pitchwheel channel=3 pitch=640 time=0
EXTRACT: pitchwheel channel=3 pitch=0 time=0
EXTRACT: note_off channel=3 note=63 velocity=95 time=0
EXTRACT: pitchwheel channel=4 pitch=0 time=0
EXTRACT: note_on channel=4 note=63 velocity=95 time=0
EXTRACT: note_off channel=8 note=23 velocity=95 time=0
EXTRACT: pitchwheel channel=4 pitch=128 time=0.023995522916666668
EXTRACT: pitchwheel channel=3 pitch=0 time=0.009486602083333334
EXTRACT: note_on channel=3 note=64 velocity=95 time=0
EXTRACT: pitchwheel channel=4 pitch=256 time=0.014508920833333334
EXTRACT: pitchwheel channel=3 pitch=128 time=0.009486602083333334
EXTRACT: pitchwheel channel=4 pitch=384 time=0.014508920833333334
EXTRACT: pitchwheel channel=3 pitch=256 time=0.009486602083333334
EXTRACT: pitchwheel channel=4 pitch=512 time=0.014508920833333334
EXTRACT: pitchwheel channel=3 pitch=384 time=0.009486602083333334
EXTRACT: pitchwheel channel=4 pitch=640 time=0.014508920833333334
EXTRACT: pitchwheel channel=3 pitch=512 time=0.009486602083333334
EXTRACT: pitchwheel channel=4 pitch=768 time=0.014508920833333334
EXTRACT: pitchwheel channel=3 pitch=640 time=0.009486602083333334
EXTRACT: pitchwheel channel=4 pitch=896 time=0.014508920833333334
EXTRACT: pitchwheel channel=3 pitch=768 time=0.009486602083333334
EXTRACT: pitchwheel channel=4 pitch=1024 time=0.014508920833333334
EXTRACT: pitchwheel channel=3 pitch=896 time=0.009486602083333334
EXTRACT: pitchwheel channel=4 pitch=1152 time=0.014508920833333334
EXTRACT: pitchwheel channel=3 pitch=1024 time=0.009486602083333334
EXTRACT: pitchwheel channel=4 pitch=1280 time=0.014508920833333334
EXTRACT: pitchwheel channel=3 pitch=1152 time=0.009486602083333334
EXTRACT: pitchwheel channel=4 pitch=1408 time=0.014508920833333334
EXTRACT: note_off channel=0 note=58 velocity=95 time=0.003906247916666667
EXTRACT: note_on channel=0 note=59 velocity=70 time=0
EXTRACT: note_off channel=1 note=70 velocity=95 time=0
EXTRACT: note_off channel=1 note=66 velocity=95 time=0
EXTRACT: note_off channel=1 note=63 velocity=95 time=0
EXTRACT: note_off channel=1 note=58 velocity=95 time=0
EXTRACT: note_on channel=1 note=71 velocity=95 time=0
EXTRACT: note_on channel=1 note=66 velocity=95 time=0
EXTRACT: note_on channel=1 note=63 velocity=95 time=0
EXTRACT: note_on channel=1 note=59 velocity=95 time=0
EXTRACT: note_off channel=2 note=58 velocity=95 time=0
EXTRACT: note_on channel=2 note=59 velocity=70 time=0
EXTRACT: pitchwheel channel=4 pitch=1408 time=0
EXTRACT: pitchwheel channel=4 pitch=0 time=0
EXTRACT: note_off channel=4 note=63 velocity=95 time=0
EXTRACT: pitchwheel channel=4 pitch=0 time=0
EXTRACT: note_on channel=4 note=59 velocity=95 time=0
EXTRACT: note_on channel=7 note=33 velocity=95 time=0
EXTRACT: note_on channel=8 note=23 velocity=95 time=0
EXTRACT: note_on channel=10 note=40 velocity=95 time=0
EXTRACT: note_off channel=9 note=28 velocity=95 time=0
EXTRACT: note_off channel=9 note=39 velocity=95 time=0
EXTRACT: note_on channel=9 note=36 velocity=95 time=0
EXTRACT: pitchwheel channel=3 pitch=1280 time=0.005580354166666667
EXTRACT: pitchwheel channel=4 pitch=-128 time=0.012276779166666666
EXTRACT: pitchwheel channel=3 pitch=1408 time=0.01171874375
EXTRACT: pitchwheel channel=3 pitch=1408 time=0.003906247916666667
EXTRACT: pitchwheel channel=3 pitch=0 time=0
EXTRACT: note_off channel=3 note=64 velocity=95 time=0
EXTRACT: pitchwheel channel=3 pitch=0 time=0
EXTRACT: note_on channel=3 note=60 velocity=95 time=0
EXTRACT: pitchwheel channel=4 pitch=-256 time=0.0022321416666666667
EXTRACT: pitchwheel channel=3 pitch=-128 time=0.015624991666666668
EXTRACT: pitchwheel channel=4 pitch=-384 time=0.0022321416666666667
EXTRACT: note_off channel=10 note=40 velocity=95 time=0.013392850000000001
EXTRACT: pitchwheel channel=3 pitch=-256 time=0.0022321416666666667
EXTRACT: pitchwheel channel=4 pitch=-512 time=0.0022321416666666667
EXTRACT: pitchwheel channel=3 pitch=-384 time=0.015624991666666668
EXTRACT: pitchwheel channel=4 pitch=-640 time=0.0022321416666666667
EXTRACT: pitchwheel channel=3 pitch=-512 time=0.015624991666666668
EXTRACT: pitchwheel channel=4 pitch=-768 time=0.0022321416666666667
EXTRACT: pitchwheel channel=3 pitch=-640 time=0.015624991666666668
EXTRACT: pitchwheel channel=4 pitch=-896 time=0.0022321416666666667
EXTRACT: pitchwheel channel=3 pitch=-768 time=0.015624991666666668
EXTRACT: pitchwheel channel=4 pitch=-1024 time=0.0022321416666666667
EXTRACT: pitchwheel channel=3 pitch=-896 time=0.015624991666666668
EXTRACT: pitchwheel channel=4 pitch=-1152 time=0.0022321416666666667
EXTRACT: pitchwheel channel=3 pitch=-1024 time=0.015624991666666668
EXTRACT: pitchwheel channel=4 pitch=-1280 time=0.0022321416666666667
EXTRACT: pitchwheel channel=3 pitch=-1152 time=0.015624991666666668
EXTRACT: pitchwheel channel=4 pitch=-1408 time=0.0022321416666666667
EXTRACT: pitchwheel channel=4 pitch=-1408 time=0.0044642833333333335
EXTRACT: pitchwheel channel=4 pitch=0 time=0
EXTRACT: note_off channel=4 note=59 velocity=95 time=0
EXTRACT: pitchwheel channel=3 pitch=-1280 time=0.011160708333333333
EXTRACT: pitchwheel channel=3 pitch=-1408 time=0.017857133333333334
EXTRACT: pitchwheel channel=3 pitch=-1408 time=0.0044642833333333335
EXTRACT: pitchwheel channel=3 pitch=0 time=0
EXTRACT: note_off channel=3 note=60 velocity=95 time=0
EXTRACT: note_off channel=0 note=59 velocity=70 time=0.033482125
EXTRACT: note_on channel=0 note=63 velocity=95 time=0
EXTRACT: note_off channel=2 note=59 velocity=70 time=0
EXTRACT: note_on channel=2 note=63 velocity=95 time=0
EXTRACT: note_off channel=5 note=64 velocity=95 time=0
EXTRACT: note_off channel=5 note=59 velocity=95 time=0
EXTRACT: note_off channel=5 note=55 velocity=95 time=0
EXTRACT: note_off channel=5 note=50 velocity=95 time=0
EXTRACT: note_off channel=0 note=63 velocity=95 time=0.267857
EXTRACT: note_on channel=0 note=66 velocity=95 time=0
EXTRACT: note_off channel=2 note=63 velocity=95 time=0
EXTRACT: note_on channel=2 note=66 velocity=95 time=0
EXTRACT: pitchwheel channel=4 pitch=0 time=0
EXTRACT: note_on channel=4 note=62 velocity=95 time=0
EXTRACT: note_on channel=5 note=64 velocity=95 time=0
EXTRACT: note_on channel=5 note=59 velocity=95 time=0
EXTRACT: note_on channel=5 note=55 velocity=95 time=0
EXTRACT: note_on channel=5 note=50 velocity=95 time=0
EXTRACT: note_off channel=7 note=33 velocity=95 time=0
EXTRACT: note_off channel=8 note=23 velocity=95 time=0
EXTRACT: note_off channel=9 note=36 velocity=95 time=0
EXTRACT: note_on channel=9 note=28 velocity=95 time=0
EXTRACT: note_on channel=9 note=39 velocity=95 time=0
EXTRACT: pitchwheel channel=3 pitch=0 time=0.033482125
EXTRACT: note_on channel=3 note=63 velocity=95 time=0
EXTRACT: pitchwheel channel=4 pitch=128 time=0.013392850000000001
EXTRACT: pitchwheel channel=3 pitch=128 time=0.033482125
EXTRACT: pitchwheel channel=4 pitch=256 time=0.013392850000000001
EXTRACT: pitchwheel channel=3 pitch=256 time=0.033482125
EXTRACT: note_on channel=7 note=33 velocity=95 time=0.006696425000000001
EXTRACT: note_on channel=8 note=23 velocity=95 time=0
EXTRACT: note_on channel=10 note=40 velocity=95 time=0
EXTRACT: note_off channel=9 note=28 velocity=95 time=0
EXTRACT: note_off channel=9 note=39 velocity=95 time=0
EXTRACT: note_on channel=9 note=36 velocity=95 time=0
EXTRACT: pitchwheel channel=4 pitch=384 time=0.006696425000000001
EXTRACT: pitchwheel channel=3 pitch=384 time=0.033482125
EXTRACT: pitchwheel channel=4 pitch=512 time=0.013392850000000001
EXTRACT: note_off channel=10 note=40 velocity=95 time=0.013392850000000001
EXTRACT: pitchwheel channel=3 pitch=512 time=0.020089275
EXTRACT: pitchwheel channel=4 pitch=640 time=0.013392850000000001
EXTRACT: pitchwheel channel=4 pitch=640 time=0
EXTRACT: pitchwheel channel=4 pitch=0 time=0
EXTRACT: note_off channel=4 note=62 velocity=95 time=0
EXTRACT: note_off channel=0 note=66 velocity=95 time=0.033482125
EXTRACT: note_on channel=0 note=59 velocity=95 time=0
EXTRACT: note_off channel=2 note=66 velocity=95 time=0
EXTRACT: note_on channel=2 note=59 velocity=95 time=0
EXTRACT: pitchwheel channel=3 pitch=640 time=0
EXTRACT: pitchwheel channel=3 pitch=640 time=0
EXTRACT: pitchwheel channel=3 pitch=0 time=0
EXTRACT: note_off channel=3 note=63 velocity=95 time=0
EXTRACT: pitchwheel channel=4 pitch=0 time=0
EXTRACT: note_on channel=4 note=63 velocity=95 time=0
EXTRACT: note_off channel=7 note=33 velocity=95 time=0
EXTRACT: note_on channel=7 note=33 velocity=95 time=0
EXTRACT: note_off channel=8 note=23 velocity=95 time=0
EXTRACT: note_on channel=8 note=23 velocity=95 time=0
EXTRACT: note_on channel=10 note=40 velocity=95 time=0
EXTRACT: note_off channel=9 note=36 velocity=95 time=0
EXTRACT: note_on channel=9 note=36 velocity=95 time=0
EXTRACT: pitchwheel channel=4 pitch=128 time=0.023995522916666668
EXTRACT: pitchwheel channel=3 pitch=0 time=0.009486602083333334
EXTRACT: note_on channel=3 note=64 velocity=95 time=0
EXTRACT: pitchwheel channel=4 pitch=256 time=0.014508920833333334
EXTRACT: pitchwheel channel=3 pitch=128 time=0.009486602083333334
EXTRACT: note_off channel=10 note=40 velocity=95 time=0.009486602083333334
EXTRACT: pitchwheel channel=4 pitch=384 time=0.00502231875
EXTRACT: pitchwheel channel=3 pitch=256 time=0.009486602083333334
EXTRACT: pitchwheel channel=4 pitch=512 time=0.014508920833333334
EXTRACT: pitchwheel channel=3 pitch=384 time=0.009486602083333334
EXTRACT: pitchwheel channel=4 pitch=640 time=0.014508920833333334
EXTRACT: pitchwheel channel=3 pitch=512 time=0.009486602083333334
EXTRACT: pitchwheel channel=4 pitch=768 time=0.014508920833333334
EXTRACT: pitchwheel channel=3 pitch=640 time=0.009486602083333334
EXTRACT: pitchwheel channel=4 pitch=896 time=0.014508920833333334
EXTRACT: pitchwheel channel=3 pitch=768 time=0.009486602083333334
EXTRACT: pitchwheel channel=4 pitch=1024 time=0.014508920833333334
EXTRACT: pitchwheel channel=3 pitch=896 time=0.009486602083333334
EXTRACT: pitchwheel channel=4 pitch=1152 time=0.014508920833333334
EXTRACT: pitchwheel channel=3 pitch=1024 time=0.009486602083333334
EXTRACT: pitchwheel channel=4 pitch=1280 time=0.014508920833333334
EXTRACT: pitchwheel channel=3 pitch=1152 time=0.009486602083333334
EXTRACT: pitchwheel channel=4 pitch=1408 time=0.014508920833333334
EXTRACT: note_off channel=0 note=59 velocity=95 time=0.003906247916666667
EXTRACT: note_on channel=0 note=58 velocity=70 time=0
EXTRACT: note_off channel=1 note=71 velocity=95 time=0
EXTRACT: note_off channel=1 note=66 velocity=95 time=0
EXTRACT: note_off channel=1 note=63 velocity=95 time=0
EXTRACT: note_off channel=1 note=59 velocity=95 time=0
EXTRACT: note_on channel=1 note=70 velocity=95 time=0
EXTRACT: note_on channel=1 note=66 velocity=95 time=0
EXTRACT: note_on channel=1 note=63 velocity=95 time=0
EXTRACT: note_on channel=1 note=58 velocity=95 time=0
EXTRACT: note_off channel=2 note=59 velocity=95 time=0
EXTRACT: note_on channel=2 note=58 velocity=70 time=0
EXTRACT: pitchwheel channel=4 pitch=1408 time=0
EXTRACT: pitchwheel channel=4 pitch=0 time=0
EXTRACT: note_off channel=4 note=63 velocity=95 time=0
EXTRACT: pitchwheel channel=4 pitch=0 time=0
EXTRACT: note_on channel=4 note=59 velocity=95 time=0
EXTRACT: pitchwheel channel=6 pitch=0 time=0
EXTRACT: note_on channel=6 note=53 velocity=95 time=0
EXTRACT: pitchwheel channel=6 pitch=0 time=0
EXTRACT: note_on channel=6 note=53 velocity=95 time=0
EXTRACT: note_off channel=7 note=33 velocity=95 time=0
EXTRACT: note_off channel=9 note=36 velocity=95 time=0
EXTRACT: pitchwheel channel=3 pitch=1280 time=0.005580354166666667
EXTRACT: pitchwheel channel=6 pitch=-128 time=0.010602672916666667
EXTRACT: pitchwheel channel=6 pitch=-128 time=0
EXTRACT: pitchwheel channel=4 pitch=-128 time=0.0016741062500000002
EXTRACT: pitchwheel channel=3 pitch=1408 time=0.01171874375
EXTRACT: pitchwheel channel=6 pitch=-256 time=0.0027901770833333333
EXTRACT: pitchwheel channel=6 pitch=-256 time=0
EXTRACT: pitchwheel channel=3 pitch=1408 time=0.0011160708333333334
EXTRACT: pitchwheel channel=3 pitch=0 time=0
EXTRACT: note_off channel=3 note=64 velocity=95 time=0
EXTRACT: pitchwheel channel=3 pitch=0 time=0
EXTRACT: note_on channel=3 note=60 velocity=95 time=0
EXTRACT: pitchwheel channel=4 pitch=-256 time=0.0022321416666666667
EXTRACT: pitchwheel channel=6 pitch=-384 time=0.012834814583333333
EXTRACT: pitchwheel channel=6 pitch=-384 time=0
EXTRACT: pitchwheel channel=3 pitch=-128 time=0.0027901770833333333
EXTRACT: pitchwheel channel=4 pitch=-384 time=0.0022321416666666667
EXTRACT: pitchwheel channel=6 pitch=-512 time=0.011160708333333333
EXTRACT: pitchwheel channel=6 pitch=-512 time=0
EXTRACT: pitchwheel channel=3 pitch=-256 time=0.0044642833333333335
EXTRACT: pitchwheel channel=4 pitch=-512 time=0.0022321416666666667
EXTRACT: pitchwheel channel=6 pitch=-640 time=0.009486602083333334
EXTRACT: pitchwheel channel=6 pitch=-640 time=0
EXTRACT: pitchwheel channel=3 pitch=-384 time=0.006138389583333333
EXTRACT: pitchwheel channel=4 pitch=-640 time=0.0022321416666666667
EXTRACT: pitchwheel channel=6 pitch=-768 time=0.007812495833333334
EXTRACT: pitchwheel channel=6 pitch=-768 time=0
EXTRACT: pitchwheel channel=3 pitch=-512 time=0.007812495833333334
EXTRACT: pitchwheel channel=4 pitch=-768 time=0.0022321416666666667
EXTRACT: pitchwheel channel=6 pitch=-896 time=0.006138389583333333
EXTRACT: pitchwheel channel=6 pitch=-896 time=0
EXTRACT: pitchwheel channel=3 pitch=-640 time=0.009486602083333334
EXTRACT: pitchwheel channel=4 pitch=-896 time=0.0022321416666666667
EXTRACT: pitchwheel channel=6 pitch=-1024 time=0.0044642833333333335
EXTRACT: pitchwheel channel=6 pitch=-1024 time=0
EXTRACT: pitchwheel channel=3 pitch=-768 time=0.011160708333333333
EXTRACT: pitchwheel channel=4 pitch=-1024 time=0.0022321416666666667
EXTRACT: pitchwheel channel=6 pitch=-1152 time=0.0027901770833333333
EXTRACT: pitchwheel channel=6 pitch=-1152 time=0
EXTRACT: pitchwheel channel=3 pitch=-896 time=0.012834814583333333
EXTRACT: pitchwheel channel=4 pitch=-1152 time=0.0022321416666666667
EXTRACT: pitchwheel channel=6 pitch=-1280 time=0.0011160708333333334
EXTRACT: pitchwheel channel=6 pitch=-1280 time=0
EXTRACT: pitchwheel channel=3 pitch=-1024 time=0.014508920833333334
EXTRACT: pitchwheel channel=6 pitch=-1408 time=0.0016741062500000002
EXTRACT: pitchwheel channel=6 pitch=-1408 time=0
EXTRACT: pitchwheel channel=4 pitch=-1280 time=0.0005580354166666667
EXTRACT: pitchwheel channel=3 pitch=-1152 time=0.015624991666666668
EXTRACT: pitchwheel channel=6 pitch=-1536 time=0
EXTRACT: pitchwheel channel=6 pitch=-1536 time=0
EXTRACT: pitchwheel channel=4 pitch=-1408 time=0.0022321416666666667
EXTRACT: pitchwheel channel=4 pitch=-1408 time=0.0044642833333333335
EXTRACT: pitchwheel channel=4 pitch=0 time=0
EXTRACT: note_off channel=4 note=59 velocity=95 time=0
EXTRACT: pitchwheel channel=6 pitch=-1664 time=0.009486602083333334
EXTRACT: pitchwheel channel=6 pitch=-1664 time=0
EXTRACT: pitchwheel channel=3 pitch=-1280 time=0.0016741062500000002
EXTRACT: pitchwheel channel=6 pitch=-1792 time=0.014508920833333334
EXTRACT: pitchwheel channel=6 pitch=-1792 time=0
EXTRACT: pitchwheel channel=3 pitch=-1408 time=0.0033482125000000003
EXTRACT: pitchwheel channel=3 pitch=-1408 time=0.0044642833333333335
EXTRACT: pitchwheel channel=3 pitch=0 time=0
EXTRACT: note_off channel=3 note=60 velocity=95 time=0
EXTRACT: pitchwheel channel=6 pitch=-1920 time=0.00837053125
EXTRACT: pitchwheel channel=6 pitch=-1920 time=0
EXTRACT: pitchwheel channel=6 pitch=-2048 time=0.016183027083333332
EXTRACT: pitchwheel channel=6 pitch=-2048 time=0
EXTRACT: note_off channel=0 note=58 velocity=70 time=0.008928566666666667
EXTRACT: note_on channel=0 note=63 velocity=95 time=0
EXTRACT: note_off channel=2 note=58 velocity=70 time=0
EXTRACT: note_on channel=2 note=63 velocity=95 time=0
EXTRACT: note_off channel=5 note=64 velocity=95 time=0
EXTRACT: note_off channel=5 note=59 velocity=95 time=0
EXTRACT: note_off channel=5 note=55 velocity=95 time=0
EXTRACT: note_off channel=5 note=50 velocity=95 time=0
EXTRACT: note_on channel=7 note=33 velocity=95 time=0
EXTRACT: note_off channel=8 note=23 velocity=95 time=0
EXTRACT: note_on channel=8 note=23 velocity=95 time=0
EXTRACT: note_on channel=10 note=40 velocity=95 time=0
EXTRACT: note_on channel=9 note=36 velocity=95 time=0
EXTRACT: pitchwheel channel=6 pitch=-2176 time=0.007254460416666667
EXTRACT: pitchwheel channel=6 pitch=-2176 time=0
EXTRACT: pitchwheel channel=6 pitch=-2304 time=0.016183027083333332
EXTRACT: pitchwheel channel=6 pitch=-2304 time=0
EXTRACT: pitchwheel channel=6 pitch=-2432 time=0.016183027083333332
EXTRACT: pitchwheel channel=6 pitch=-2432 time=0
EXTRACT: pitchwheel channel=6 pitch=-2560 time=0.016183027083333332
EXTRACT: pitchwheel channel=6 pitch=-2560 time=0
EXTRACT: note_off channel=10 note=40 velocity=95 time=0.011160708333333333
EXTRACT: pitchwheel channel=6 pitch=-2688 time=0.00502231875
EXTRACT: pitchwheel channel=6 pitch=-2688 time=0
EXTRACT: pitchwheel channel=6 pitch=-2816 time=0.016183027083333332
EXTRACT: pitchwheel channel=6 pitch=-2816 time=0
EXTRACT: pitchwheel channel=6 pitch=-2944 time=0.016183027083333332
EXTRACT: pitchwheel channel=6 pitch=-2944 time=0
EXTRACT: pitchwheel channel=6 pitch=-3072 time=0.016183027083333332
EXTRACT: pitchwheel channel=6 pitch=-3072 time=0
EXTRACT: pitchwheel channel=6 pitch=-3200 time=0.016183027083333332
EXTRACT: pitchwheel channel=6 pitch=-3200 time=0
EXTRACT: pitchwheel channel=6 pitch=-3328 time=0.016183027083333332
EXTRACT: pitchwheel channel=6 pitch=-3328 time=0
EXTRACT: pitchwheel channel=6 pitch=-3456 time=0.016183027083333332
EXTRACT: pitchwheel channel=6 pitch=-3456 time=0
EXTRACT: pitchwheel channel=6 pitch=-3584 time=0.016183027083333332
EXTRACT: pitchwheel channel=6 pitch=-3584 time=0
EXTRACT: pitchwheel channel=6 pitch=-3712 time=0.016183027083333332
EXTRACT: pitchwheel channel=6 pitch=-3712 time=0
EXTRACT: pitchwheel channel=6 pitch=-3840 time=0.016183027083333332
EXTRACT: pitchwheel channel=6 pitch=-3840 time=0
EXTRACT: pitchwheel channel=6 pitch=-3968 time=0.016183027083333332
EXTRACT: pitchwheel channel=6 pitch=-3968 time=0
EXTRACT: pitchwheel channel=6 pitch=-4096 time=0.016183027083333332
EXTRACT: pitchwheel channel=6 pitch=-4096 time=0
EXTRACT: pitchwheel channel=6 pitch=-4224 time=0.016183027083333332
EXTRACT: pitchwheel channel=6 pitch=-4224 time=0
EXTRACT: note_off channel=0 note=63 velocity=95 time=0.0016741062500000002
EXTRACT: note_off channel=2 note=63 velocity=95 time=0
EXTRACT: note_on channel=2 note=46 velocity=127 time=0
EXTRACT: note_on channel=5 note=64 velocity=95 time=0
EXTRACT: note_on channel=5 note=59 velocity=95 time=0
EXTRACT: note_on channel=5 note=55 velocity=95 time=0
EXTRACT: note_on channel=5 note=50 velocity=95 time=0
EXTRACT: note_off channel=7 note=33 velocity=95 time=0
EXTRACT: note_off channel=9 note=36 velocity=95 time=0
EXTRACT: note_on channel=9 note=28 velocity=95 time=0
EXTRACT: note_on channel=9 note=39 velocity=95 time=0
EXTRACT: pitchwheel channel=6 pitch=-4352 time=0.014508920833333334
EXTRACT: pitchwheel channel=6 pitch=-4352 time=0
EXTRACT: pitchwheel channel=6 pitch=-4480 time=0.016183027083333332
EXTRACT: pitchwheel channel=6 pitch=-4480 time=0
EXTRACT: pitchwheel channel=6 pitch=-4608 time=0.016183027083333332
EXTRACT: pitchwheel channel=6 pitch=-4608 time=0
EXTRACT: pitchwheel channel=6 pitch=-4736 time=0.016183027083333332
EXTRACT: pitchwheel channel=6 pitch=-4736 time=0
EXTRACT: pitchwheel channel=6 pitch=-4864 time=0.016183027083333332
EXTRACT: pitchwheel channel=6 pitch=-4864 time=0
EXTRACT: pitchwheel channel=6 pitch=-4992 time=0.016183027083333332
EXTRACT: pitchwheel channel=6 pitch=-4992 time=0
EXTRACT: pitchwheel channel=6 pitch=-5120 time=0.016183027083333332
EXTRACT: pitchwheel channel=6 pitch=-5120 time=0
EXTRACT: pitchwheel channel=6 pitch=-5248 time=0.016183027083333332
EXTRACT: pitchwheel channel=6 pitch=-5248 time=0
EXTRACT: pitchwheel channel=6 pitch=-5376 time=0.016183027083333332
EXTRACT: pitchwheel channel=6 pitch=-5376 time=0
EXTRACT: pitchwheel channel=6 pitch=-5504 time=0.016183027083333332
EXTRACT: pitchwheel channel=6 pitch=-5504 time=0
EXTRACT: pitchwheel channel=6 pitch=-5632 time=0.016183027083333332
EXTRACT: pitchwheel channel=6 pitch=-5632 time=0
EXTRACT: pitchwheel channel=6 pitch=-5760 time=0.016183027083333332
EXTRACT: pitchwheel channel=6 pitch=-5760 time=0
EXTRACT: pitchwheel channel=6 pitch=-5888 time=0.016183027083333332
EXTRACT: pitchwheel channel=6 pitch=-5888 time=0
EXTRACT: pitchwheel channel=6 pitch=-6016 time=0.016183027083333332
EXTRACT: pitchwheel channel=6 pitch=-6016 time=0
EXTRACT: pitchwheel channel=6 pitch=-6144 time=0.016183027083333332
EXTRACT: pitchwheel channel=6 pitch=-6144 time=0
EXTRACT: pitchwheel channel=6 pitch=-6272 time=0.016183027083333332
EXTRACT: pitchwheel channel=6 pitch=-6272 time=0
EXTRACT: note_on channel=0 note=58 velocity=95 time=0.010602672916666667
EXTRACT: note_on channel=2 note=58 velocity=95 time=0
EXTRACT: note_off channel=8 note=23 velocity=95 time=0
EXTRACT: pitchwheel channel=6 pitch=-6400 time=0.005580354166666667
EXTRACT: pitchwheel channel=6 pitch=-6400 time=0
EXTRACT: pitchwheel channel=6 pitch=-6528 time=0.016183027083333332
EXTRACT: pitchwheel channel=6 pitch=-6528 time=0
EXTRACT: pitchwheel channel=6 pitch=-6656 time=0.016183027083333332
EXTRACT: pitchwheel channel=6 pitch=-6656 time=0
EXTRACT: pitchwheel channel=6 pitch=-6784 time=0.016183027083333332
EXTRACT: pitchwheel channel=6 pitch=-6784 time=0
EXTRACT: pitchwheel channel=6 pitch=-6912 time=0.016183027083333332
EXTRACT: pitchwheel channel=6 pitch=-6912 time=0
EXTRACT: pitchwheel channel=6 pitch=-7040 time=0.016183027083333332
EXTRACT: pitchwheel channel=6 pitch=-7040 time=0
EXTRACT: pitchwheel channel=6 pitch=-7168 time=0.016183027083333332
EXTRACT: pitchwheel channel=6 pitch=-7168 time=0
EXTRACT: pitchwheel channel=6 pitch=-7296 time=0.016183027083333332
EXTRACT: pitchwheel channel=6 pitch=-7296 time=0
EXTRACT: pitchwheel channel=6 pitch=-7424 time=0.016183027083333332
EXTRACT: pitchwheel channel=6 pitch=-7424 time=0
EXTRACT: pitchwheel channel=6 pitch=-7552 time=0.016183027083333332
EXTRACT: pitchwheel channel=6 pitch=-7552 time=0
EXTRACT: pitchwheel channel=6 pitch=-7680 time=0.016183027083333332
EXTRACT: pitchwheel channel=6 pitch=-7680 time=0
EXTRACT: pitchwheel channel=6 pitch=-7808 time=0.016183027083333332
EXTRACT: pitchwheel channel=6 pitch=-7808 time=0
EXTRACT: pitchwheel channel=6 pitch=-7936 time=0.016183027083333332
EXTRACT: pitchwheel channel=6 pitch=-7936 time=0
EXTRACT: pitchwheel channel=6 pitch=-8064 time=0.016183027083333332
EXTRACT: pitchwheel channel=6 pitch=-8064 time=0
EXTRACT: pitchwheel channel=6 pitch=-8192 time=0.016183027083333332
EXTRACT: pitchwheel channel=6 pitch=-8192 time=0
EXTRACT: pitchwheel channel=6 pitch=-8192 time=0.016183027083333332
EXTRACT: pitchwheel channel=6 pitch=-8192 time=0
EXTRACT: pitchwheel channel=6 pitch=-8192 time=0.016183027083333332
EXTRACT: pitchwheel channel=6 pitch=-8192 time=0
EXTRACT: note_off channel=0 note=58 velocity=95 time=0.0033482125000000003
EXTRACT: note_on channel=0 note=59 velocity=70 time=0
EXTRACT: note_off channel=1 note=70 velocity=95 time=0
EXTRACT: note_off channel=1 note=66 velocity=95 time=0
EXTRACT: note_off channel=1 note=63 velocity=95 time=0
EXTRACT: note_off channel=1 note=58 velocity=95 time=0
EXTRACT: note_on channel=1 note=71 velocity=95 time=0
EXTRACT: note_on channel=1 note=66 velocity=95 time=0
EXTRACT: note_on channel=1 note=63 velocity=95 time=0
EXTRACT: note_on channel=1 note=59 velocity=95 time=0
EXTRACT: note_off channel=2 note=46 velocity=127 time=0
EXTRACT: note_off channel=2 note=58 velocity=95 time=0
EXTRACT: note_on channel=2 note=59 velocity=70 time=0
EXTRACT: note_on channel=2 note=47 velocity=127 time=0
EXTRACT: pitchwheel channel=6 pitch=-8192 time=0
EXTRACT: pitchwheel channel=6 pitch=0 time=0
EXTRACT: note_off channel=6 note=53 velocity=95 time=0
EXTRACT: pitchwheel channel=6 pitch=-8192 time=0
EXTRACT: pitchwheel channel=6 pitch=0 time=0
EXTRACT: note_off channel=6 note=53 velocity=95 time=0
EXTRACT: note_on channel=7 note=33 velocity=95 time=0
EXTRACT: note_on channel=8 note=23 velocity=95 time=0
EXTRACT: note_on channel=10 note=40 velocity=95 time=0
EXTRACT: note_off channel=9 note=28 velocity=95 time=0
EXTRACT: note_off channel=9 note=39 velocity=95 time=0
EXTRACT: note_on channel=9 note=36 velocity=95 time=0
EXTRACT: note_off channel=10 note=40 velocity=95 time=0.06696425
EXTRACT: note_off channel=0 note=59 velocity=70 time=0.20089275
EXTRACT: note_on channel=0 note=63 velocity=95 time=0
EXTRACT: note_off channel=2 note=59 velocity=70 time=0
EXTRACT: note_off channel=2 note=47 velocity=127 time=0
EXTRACT: note_on channel=2 note=63 velocity=95 time=0
EXTRACT: note_off channel=5 note=64 velocity=95 time=0
EXTRACT: note_off channel=5 note=59 velocity=95 time=0
EXTRACT: note_off channel=5 note=55 velocity=95 time=0
EXTRACT: note_off channel=5 note=50 velocity=95 time=0
EXTRACT: note_off channel=8 note=23 velocity=95 time=0
EXTRACT: note_on channel=8 note=23 velocity=95 time=0
EXTRACT: note_on channel=10 note=40 velocity=95 time=0
EXTRACT: note_off channel=9 note=36 velocity=95 time=0
EXTRACT: note_on channel=9 note=36 velocity=95 time=0
EXTRACT: note_off channel=10 note=40 velocity=95 time=0.06696425
EXTRACT: note_off channel=0 note=63 velocity=95 time=0.20089275
EXTRACT: note_on channel=0 note=66 velocity=95 time=0
EXTRACT: note_off channel=2 note=63 velocity=95 time=0
EXTRACT: note_on channel=2 note=66 velocity=95 time=0
EXTRACT: note_on channel=4 note=63 velocity=47 time=0
EXTRACT: note_on channel=4 note=59 velocity=95 time=0
EXTRACT: note_on channel=5 note=64 velocity=95 time=0
EXTRACT: note_on channel=5 note=59 velocity=95 time=0
EXTRACT: note_on channel=5 note=55 velocity=95 time=0
EXTRACT: note_on channel=5 note=50 velocity=95 time=0
EXTRACT: note_off channel=7 note=33 velocity=95 time=0
EXTRACT: note_off channel=8 note=23 velocity=95 time=0
EXTRACT: note_off channel=9 note=36 velocity=95 time=0
EXTRACT: note_on channel=9 note=28 velocity=95 time=0
EXTRACT: note_on channel=9 note=39 velocity=95 time=0
EXTRACT: note_on channel=3 note=63 velocity=47 time=0.033482125
EXTRACT: note_on channel=3 note=59 velocity=95 time=0
EXTRACT: note_off channel=0 note=66 velocity=95 time=0.234374875
EXTRACT: note_on channel=0 note=59 velocity=95 time=0
EXTRACT: note_off channel=2 note=66 velocity=95 time=0
EXTRACT: note_on channel=2 note=59 velocity=95 time=0
EXTRACT: note_on channel=7 note=33 velocity=95 time=0
EXTRACT: note_on channel=8 note=23 velocity=95 time=0
EXTRACT: note_on channel=10 note=40 velocity=95 time=0
EXTRACT: note_off channel=9 note=28 velocity=95 time=0
EXTRACT: note_off channel=9 note=39 velocity=95 time=0
EXTRACT: note_on channel=9 note=36 velocity=95 time=0
EXTRACT: note_off channel=10 note=40 velocity=95 time=0.06696425
EXTRACT: note_off channel=0 note=59 velocity=95 time=0.20089275
EXTRACT: note_on channel=0 note=58 velocity=70 time=0
EXTRACT: note_off channel=1 note=71 velocity=95 time=0
EXTRACT: note_off channel=1 note=66 velocity=95 time=0
EXTRACT: note_off channel=1 note=63 velocity=95 time=0
EXTRACT: note_off channel=1 note=59 velocity=95 time=0
EXTRACT: note_on channel=1 note=70 velocity=95 time=0
EXTRACT: note_on channel=1 note=66 velocity=95 time=0
EXTRACT: note_on channel=1 note=63 velocity=95 time=0
EXTRACT: note_on channel=1 note=58 velocity=95 time=0
EXTRACT: note_off channel=2 note=59 velocity=95 time=0
EXTRACT: note_on channel=2 note=58 velocity=70 time=0
EXTRACT: note_off channel=4 note=63 velocity=47 time=0
EXTRACT: note_off channel=4 note=59 velocity=95 time=0
EXTRACT: note_on channel=4 note=61 velocity=47 time=0
EXTRACT: note_on channel=4 note=58 velocity=95 time=0
EXTRACT: note_off channel=9 note=36 velocity=95 time=0
EXTRACT: note_off channel=3 note=63 velocity=47 time=0.033482125
EXTRACT: note_off channel=3 note=59 velocity=95 time=0
EXTRACT: note_on channel=3 note=61 velocity=47 time=0
EXTRACT: note_on channel=3 note=58 velocity=95 time=0
EXTRACT: note_off channel=0 note=58 velocity=70 time=0.234374875
EXTRACT: note_on channel=0 note=63 velocity=95 time=0
EXTRACT: note_off channel=2 note=58 velocity=70 time=0
EXTRACT: note_on channel=2 note=63 velocity=95 time=0
EXTRACT: note_off channel=5 note=64 velocity=95 time=0
EXTRACT: note_off channel=5 note=59 velocity=95 time=0
EXTRACT: note_off channel=5 note=55 velocity=95 time=0
EXTRACT: note_off channel=5 note=50 velocity=95 time=0
EXTRACT: note_off channel=7 note=33 velocity=95 time=0
EXTRACT: note_on channel=7 note=33 velocity=95 time=0
EXTRACT: note_off channel=8 note=23 velocity=95 time=0
EXTRACT: note_on channel=8 note=23 velocity=95 time=0
EXTRACT: note_on channel=10 note=40 velocity=95 time=0
EXTRACT: note_on channel=9 note=36 velocity=95 time=0
EXTRACT: note_off channel=10 note=40 velocity=95 time=0.06696425
EXTRACT: note_off channel=0 note=63 velocity=95 time=0.20089275
EXTRACT: note_off channel=2 note=63 velocity=95 time=0
EXTRACT: note_off channel=4 note=61 velocity=47 time=0
EXTRACT: note_off channel=4 note=58 velocity=95 time=0
EXTRACT: pitchwheel channel=4 pitch=0 time=0
EXTRACT: note_on channel=4 note=62 velocity=95 time=0
EXTRACT: note_on channel=5 note=64 velocity=95 time=0
EXTRACT: note_on channel=5 note=59 velocity=95 time=0
EXTRACT: note_on channel=5 note=55 velocity=95 time=0
EXTRACT: note_on channel=5 note=50 velocity=95 time=0
EXTRACT: note_off channel=7 note=33 velocity=95 time=0
EXTRACT: note_off channel=9 note=36 velocity=95 time=0
EXTRACT: note_on channel=9 note=28 velocity=95 time=0
EXTRACT: note_on channel=9 note=39 velocity=95 time=0
EXTRACT: note_off channel=3 note=61 velocity=47 time=0.033482125
EXTRACT: note_off channel=3 note=58 velocity=95 time=0
EXTRACT: pitchwheel channel=3 pitch=0 time=0
EXTRACT: note_on channel=3 note=63 velocity=95 time=0
EXTRACT: pitchwheel channel=4 pitch=128 time=0.013392850000000001
EXTRACT: pitchwheel channel=3 pitch=128 time=0.033482125
EXTRACT: pitchwheel channel=4 pitch=256 time=0.013392850000000001
EXTRACT: pitchwheel channel=3 pitch=256 time=0.033482125
EXTRACT: pitchwheel channel=4 pitch=384 time=0.013392850000000001
EXTRACT: pitchwheel channel=3 pitch=384 time=0.033482125
EXTRACT: pitchwheel channel=4 pitch=512 time=0.013392850000000001
EXTRACT: pitchwheel channel=3 pitch=512 time=0.033482125
EXTRACT: pitchwheel channel=4 pitch=640 time=0.013392850000000001
EXTRACT: pitchwheel channel=4 pitch=640 time=0
EXTRACT: pitchwheel channel=4 pitch=0 time=0
EXTRACT: note_off channel=4 note=62 velocity=95 time=0
EXTRACT: note_on channel=0 note=58 velocity=95 time=0.033482125
EXTRACT: note_on channel=2 note=58 velocity=95 time=0
EXTRACT: pitchwheel channel=3 pitch=640 time=0
EXTRACT: pitchwheel channel=3 pitch=640 time=0
EXTRACT: pitchwheel channel=3 pitch=0 time=0
EXTRACT: note_off channel=3 note=63 velocity=95 time=0
EXTRACT: pitchwheel channel=4 pitch=0 time=0
EXTRACT: note_on channel=4 note=63 velocity=95 time=0
EXTRACT: note_off channel=8 note=23 velocity=95 time=0
EXTRACT: pitchwheel channel=4 pitch=128 time=0.023995522916666668
EXTRACT: pitchwheel channel=3 pitch=0 time=0.009486602083333334
EXTRACT: note_on channel=3 note=64 velocity=95 time=0
EXTRACT: pitchwheel channel=4 pitch=256 time=0.014508920833333334
EXTRACT: pitchwheel channel=3 pitch=128 time=0.009486602083333334
EXTRACT: pitchwheel channel=4 pitch=384 time=0.014508920833333334
EXTRACT: pitchwheel channel=3 pitch=256 time=0.009486602083333334
EXTRACT: pitchwheel channel=4 pitch=512 time=0.014508920833333334
EXTRACT: pitchwheel channel=3 pitch=384 time=0.009486602083333334
EXTRACT: pitchwheel channel=4 pitch=640 time=0.014508920833333334
EXTRACT: pitchwheel channel=3 pitch=512 time=0.009486602083333334
EXTRACT: pitchwheel channel=4 pitch=768 time=0.014508920833333334
EXTRACT: pitchwheel channel=3 pitch=640 time=0.009486602083333334
EXTRACT: pitchwheel channel=4 pitch=896 time=0.014508920833333334
EXTRACT: pitchwheel channel=3 pitch=768 time=0.009486602083333334
EXTRACT: pitchwheel channel=4 pitch=1024 time=0.014508920833333334
EXTRACT: pitchwheel channel=3 pitch=896 time=0.009486602083333334
EXTRACT: pitchwheel channel=4 pitch=1152 time=0.014508920833333334
EXTRACT: pitchwheel channel=3 pitch=1024 time=0.009486602083333334
EXTRACT: pitchwheel channel=4 pitch=1280 time=0.014508920833333334
EXTRACT: pitchwheel channel=3 pitch=1152 time=0.009486602083333334
EXTRACT: pitchwheel channel=4 pitch=1408 time=0.014508920833333334
EXTRACT: note_off channel=0 note=58 velocity=95 time=0.003906247916666667
EXTRACT: note_on channel=0 note=59 velocity=70 time=0
EXTRACT: note_off channel=1 note=70 velocity=95 time=0
EXTRACT: note_off channel=1 note=66 velocity=95 time=0
EXTRACT: note_off channel=1 note=63 velocity=95 time=0
EXTRACT: note_off channel=1 note=58 velocity=95 time=0
EXTRACT: note_on channel=1 note=71 velocity=95 time=0
EXTRACT: note_on channel=1 note=66 velocity=95 time=0
EXTRACT: note_on channel=1 note=63 velocity=95 time=0
EXTRACT: note_on channel=1 note=59 velocity=95 time=0
EXTRACT: note_off channel=2 note=58 velocity=95 time=0
EXTRACT: note_on channel=2 note=59 velocity=70 time=0
EXTRACT: pitchwheel channel=4 pitch=1408 time=0
EXTRACT: pitchwheel channel=4 pitch=0 time=0
EXTRACT: note_off channel=4 note=63 velocity=95 time=0
EXTRACT: pitchwheel channel=4 pitch=0 time=0
EXTRACT: note_on channel=4 note=59 velocity=95 time=0
EXTRACT: note_on channel=7 note=33 velocity=95 time=0
EXTRACT: note_on channel=8 note=23 velocity=95 time=0
EXTRACT: note_on channel=10 note=40 velocity=95 time=0
EXTRACT: note_off channel=9 note=28 velocity=95 time=0
EXTRACT: note_off channel=9 note=39 velocity=95 time=0
EXTRACT: note_on channel=9 note=36 velocity=95 time=0
EXTRACT: pitchwheel channel=3 pitch=1280 time=0.005580354166666667
EXTRACT: pitchwheel channel=4 pitch=-128 time=0.012276779166666666
EXTRACT: pitchwheel channel=3 pitch=1408 time=0.01171874375
EXTRACT: pitchwheel channel=3 pitch=1408 time=0.003906247916666667
EXTRACT: pitchwheel channel=3 pitch=0 time=0
EXTRACT: note_off channel=3 note=64 velocity=95 time=0
EXTRACT: pitchwheel channel=3 pitch=0 time=0
EXTRACT: note_on channel=3 note=60 velocity=95 time=0
EXTRACT: pitchwheel channel=4 pitch=-256 time=0.0022321416666666667
EXTRACT: pitchwheel channel=3 pitch=-128 time=0.015624991666666668
EXTRACT: pitchwheel channel=4 pitch=-384 time=0.0022321416666666667
EXTRACT: note_off channel=10 note=40 velocity=95 time=0.013392850000000001
EXTRACT: pitchwheel channel=3 pitch=-256 time=0.0022321416666666667
EXTRACT: pitchwheel channel=4 pitch=-512 time=0.0022321416666666667
EXTRACT: pitchwheel channel=3 pitch=-384 time=0.015624991666666668
EXTRACT: pitchwheel channel=4 pitch=-640 time=0.0022321416666666667
EXTRACT: pitchwheel channel=3 pitch=-512 time=0.015624991666666668
EXTRACT: pitchwheel channel=4 pitch=-768 time=0.0022321416666666667
EXTRACT: pitchwheel channel=3 pitch=-640 time=0.015624991666666668
EXTRACT: pitchwheel channel=4 pitch=-896 time=0.0022321416666666667
EXTRACT: pitchwheel channel=3 pitch=-768 time=0.015624991666666668
EXTRACT: pitchwheel channel=4 pitch=-1024 time=0.0022321416666666667
EXTRACT: pitchwheel channel=3 pitch=-896 time=0.015624991666666668
EXTRACT: pitchwheel channel=4 pitch=-1152 time=0.0022321416666666667
EXTRACT: pitchwheel channel=3 pitch=-1024 time=0.015624991666666668
EXTRACT: pitchwheel channel=4 pitch=-1280 time=0.0022321416666666667
EXTRACT: pitchwheel channel=3 pitch=-1152 time=0.015624991666666668
EXTRACT: pitchwheel channel=4 pitch=-1408 time=0.0022321416666666667
EXTRACT: pitchwheel channel=4 pitch=-1408 time=0.0044642833333333335
EXTRACT: pitchwheel channel=4 pitch=0 time=0
EXTRACT: note_off channel=4 note=59 velocity=95 time=0
EXTRACT: pitchwheel channel=3 pitch=-1280 time=0.011160708333333333
EXTRACT: pitchwheel channel=3 pitch=-1408 time=0.017857133333333334
EXTRACT: pitchwheel channel=3 pitch=-1408 time=0.0044642833333333335
EXTRACT: pitchwheel channel=3 pitch=0 time=0
EXTRACT: note_off channel=3 note=60 velocity=95 time=0
EXTRACT: note_off channel=0 note=59 velocity=70 time=0.033482125
EXTRACT: note_on channel=0 note=63 velocity=95 time=0
EXTRACT: note_off channel=2 note=59 velocity=70 time=0
EXTRACT: note_on channel=2 note=63 velocity=95 time=0
EXTRACT: note_off channel=5 note=64 velocity=95 time=0
EXTRACT: note_off channel=5 note=59 velocity=95 time=0
EXTRACT: note_off channel=5 note=55 velocity=95 time=0
EXTRACT: note_off channel=5 note=50 velocity=95 time=0
EXTRACT: note_off channel=0 note=63 velocity=95 time=0.267857
EXTRACT: note_on channel=0 note=66 velocity=95 time=0
EXTRACT: note_off channel=2 note=63 velocity=95 time=0
EXTRACT: note_on channel=2 note=66 velocity=95 time=0
EXTRACT: pitchwheel channel=4 pitch=0 time=0
EXTRACT: note_on channel=4 note=62 velocity=95 time=0
EXTRACT: note_on channel=5 note=64 velocity=95 time=0
EXTRACT: note_on channel=5 note=59 velocity=95 time=0
EXTRACT: note_on channel=5 note=55 velocity=95 time=0
EXTRACT: note_on channel=5 note=50 velocity=95 time=0
EXTRACT: note_off channel=7 note=33 velocity=95 time=0
EXTRACT: note_off channel=8 note=23 velocity=95 time=0
EXTRACT: note_off channel=9 note=36 velocity=95 time=0
EXTRACT: note_on channel=9 note=28 velocity=95 time=0
EXTRACT: note_on channel=9 note=39 velocity=95 time=0
EXTRACT: pitchwheel channel=3 pitch=0 time=0.033482125
EXTRACT: note_on channel=3 note=63 velocity=95 time=0
EXTRACT: pitchwheel channel=4 pitch=128 time=0.013392850000000001
EXTRACT: pitchwheel channel=3 pitch=128 time=0.033482125
EXTRACT: pitchwheel channel=4 pitch=256 time=0.013392850000000001
EXTRACT: pitchwheel channel=3 pitch=256 time=0.033482125
EXTRACT: pitchwheel channel=4 pitch=384 time=0.013392850000000001
EXTRACT: pitchwheel channel=3 pitch=384 time=0.033482125
EXTRACT: pitchwheel channel=4 pitch=512 time=0.013392850000000001
EXTRACT: pitchwheel channel=3 pitch=512 time=0.033482125
EXTRACT: pitchwheel channel=4 pitch=640 time=0.013392850000000001
EXTRACT: pitchwheel channel=4 pitch=640 time=0
EXTRACT: pitchwheel channel=4 pitch=0 time=0
EXTRACT: note_off channel=4 note=62 velocity=95 time=0
EXTRACT: note_off channel=0 note=66 velocity=95 time=0.033482125
EXTRACT: note_on channel=0 note=59 velocity=95 time=0
EXTRACT: note_off channel=2 note=66 velocity=95 time=0
EXTRACT: note_on channel=2 note=59 velocity=95 time=0
EXTRACT: pitchwheel channel=3 pitch=640 time=0
EXTRACT: pitchwheel channel=3 pitch=640 time=0
EXTRACT: pitchwheel channel=3 pitch=0 time=0
EXTRACT: note_off channel=3 note=63 velocity=95 time=0
EXTRACT: pitchwheel channel=4 pitch=0 time=0
EXTRACT: note_on channel=4 note=63 velocity=95 time=0
EXTRACT: note_on channel=7 note=33 velocity=95 time=0
EXTRACT: note_on channel=8 note=23 velocity=95 time=0
EXTRACT: note_on channel=10 note=40 velocity=95 time=0
EXTRACT: note_off channel=9 note=28 velocity=95 time=0
EXTRACT: note_off channel=9 note=39 velocity=95 time=0
EXTRACT: note_on channel=9 note=36 velocity=95 time=0
EXTRACT: pitchwheel channel=4 pitch=128 time=0.023995522916666668
EXTRACT: pitchwheel channel=3 pitch=0 time=0.009486602083333334
EXTRACT: note_on channel=3 note=64 velocity=95 time=0
EXTRACT: pitchwheel channel=4 pitch=256 time=0.014508920833333334
EXTRACT: pitchwheel channel=3 pitch=128 time=0.009486602083333334
EXTRACT: note_off channel=10 note=40 velocity=95 time=0.009486602083333334
EXTRACT: pitchwheel channel=4 pitch=384 time=0.00502231875
EXTRACT: pitchwheel channel=3 pitch=256 time=0.009486602083333334
EXTRACT: pitchwheel channel=4 pitch=512 time=0.014508920833333334
EXTRACT: pitchwheel channel=3 pitch=384 time=0.009486602083333334
EXTRACT: pitchwheel channel=4 pitch=640 time=0.014508920833333334
EXTRACT: pitchwheel channel=3 pitch=512 time=0.009486602083333334
EXTRACT: pitchwheel channel=4 pitch=768 time=0.014508920833333334
EXTRACT: pitchwheel channel=3 pitch=640 time=0.009486602083333334
EXTRACT: pitchwheel channel=4 pitch=896 time=0.014508920833333334
EXTRACT: pitchwheel channel=3 pitch=768 time=0.009486602083333334
EXTRACT: pitchwheel channel=4 pitch=1024 time=0.014508920833333334
EXTRACT: pitchwheel channel=3 pitch=896 time=0.009486602083333334
EXTRACT: pitchwheel channel=4 pitch=1152 time=0.014508920833333334
EXTRACT: pitchwheel channel=3 pitch=1024 time=0.009486602083333334
EXTRACT: pitchwheel channel=4 pitch=1280 time=0.014508920833333334
EXTRACT: pitchwheel channel=3 pitch=1152 time=0.009486602083333334
EXTRACT: pitchwheel channel=4 pitch=1408 time=0.014508920833333334
EXTRACT: note_off channel=0 note=59 velocity=95 time=0.003906247916666667
EXTRACT: note_on channel=0 note=58 velocity=70 time=0
EXTRACT: note_off channel=1 note=71 velocity=95 time=0
EXTRACT: note_off channel=1 note=66 velocity=95 time=0
EXTRACT: note_off channel=1 note=63 velocity=95 time=0
EXTRACT: note_off channel=1 note=59 velocity=95 time=0
EXTRACT: note_on channel=1 note=70 velocity=95 time=0
EXTRACT: note_on channel=1 note=66 velocity=95 time=0
EXTRACT: note_on channel=1 note=63 velocity=95 time=0
EXTRACT: note_on channel=1 note=58 velocity=95 time=0
EXTRACT: note_off channel=2 note=59 velocity=95 time=0
EXTRACT: note_on channel=2 note=58 velocity=70 time=0
EXTRACT: pitchwheel channel=4 pitch=1408 time=0
EXTRACT: pitchwheel channel=4 pitch=0 time=0
EXTRACT: note_off channel=4 note=63 velocity=95 time=0
EXTRACT: pitchwheel channel=4 pitch=0 time=0
EXTRACT: note_on channel=4 note=59 velocity=95 time=0
EXTRACT: pitchwheel channel=6 pitch=0 time=0
EXTRACT: note_on channel=6 note=53 velocity=95 time=0
EXTRACT: pitchwheel channel=6 pitch=0 time=0
EXTRACT: note_on channel=6 note=53 velocity=95 time=0
EXTRACT: note_off channel=9 note=36 velocity=95 time=0
EXTRACT: pitchwheel channel=3 pitch=1280 time=0.005580354166666667
EXTRACT: pitchwheel channel=6 pitch=-128 time=0.010602672916666667
EXTRACT: pitchwheel channel=6 pitch=-128 time=0
EXTRACT: pitchwheel channel=4 pitch=-128 time=0.0016741062500000002
EXTRACT: pitchwheel channel=3 pitch=1408 time=0.01171874375
EXTRACT: pitchwheel channel=6 pitch=-256 time=0.0027901770833333333
EXTRACT: pitchwheel channel=6 pitch=-256 time=0
EXTRACT: pitchwheel channel=3 pitch=1408 time=0.0011160708333333334
EXTRACT: pitchwheel channel=3 pitch=0 time=0
EXTRACT: note_off channel=3 note=64 velocity=95 time=0
EXTRACT: pitchwheel channel=3 pitch=0 time=0
EXTRACT: note_on channel=3 note=60 velocity=95 time=0
EXTRACT: pitchwheel channel=4 pitch=-256 time=0.0022321416666666667
EXTRACT: pitchwheel channel=6 pitch=-384 time=0.012834814583333333
EXTRACT: pitchwheel channel=6 pitch=-384 time=0
EXTRACT: pitchwheel channel=3 pitch=-128 time=0.0027901770833333333
EXTRACT: pitchwheel channel=4 pitch=-384 time=0.0022321416666666667
EXTRACT: pitchwheel channel=6 pitch=-512 time=0.011160708333333333
EXTRACT: pitchwheel channel=6 pitch=-512 time=0
EXTRACT: pitchwheel channel=3 pitch=-256 time=0.0044642833333333335
EXTRACT: pitchwheel channel=4 pitch=-512 time=0.0022321416666666667
EXTRACT: pitchwheel channel=6 pitch=-640 time=0.009486602083333334
EXTRACT: pitchwheel channel=6 pitch=-640 time=0
EXTRACT: pitchwheel channel=3 pitch=-384 time=0.006138389583333333
EXTRACT: pitchwheel channel=4 pitch=-640 time=0.0022321416666666667
EXTRACT: pitchwheel channel=6 pitch=-768 time=0.007812495833333334
EXTRACT: pitchwheel channel=6 pitch=-768 time=0
EXTRACT: pitchwheel channel=3 pitch=-512 time=0.007812495833333334
EXTRACT: pitchwheel channel=4 pitch=-768 time=0.0022321416666666667
EXTRACT: pitchwheel channel=6 pitch=-896 time=0.006138389583333333
EXTRACT: pitchwheel channel=6 pitch=-896 time=0
EXTRACT: pitchwheel channel=3 pitch=-640 time=0.009486602083333334
EXTRACT: pitchwheel channel=4 pitch=-896 time=0.0022321416666666667
EXTRACT: pitchwheel channel=6 pitch=-1024 time=0.0044642833333333335
EXTRACT: pitchwheel channel=6 pitch=-1024 time=0
EXTRACT: pitchwheel channel=3 pitch=-768 time=0.011160708333333333
EXTRACT: pitchwheel channel=4 pitch=-1024 time=0.0022321416666666667
EXTRACT: pitchwheel channel=6 pitch=-1152 time=0.0027901770833333333
EXTRACT: pitchwheel channel=6 pitch=-1152 time=0
EXTRACT: pitchwheel channel=3 pitch=-896 time=0.012834814583333333
EXTRACT: pitchwheel channel=4 pitch=-1152 time=0.0022321416666666667
EXTRACT: pitchwheel channel=6 pitch=-1280 time=0.0011160708333333334
EXTRACT: pitchwheel channel=6 pitch=-1280 time=0
EXTRACT: pitchwheel channel=3 pitch=-1024 time=0.014508920833333334
EXTRACT: pitchwheel channel=6 pitch=-1408 time=0.0016741062500000002
EXTRACT: pitchwheel channel=6 pitch=-1408 time=0
EXTRACT: pitchwheel channel=4 pitch=-1280 time=0.0005580354166666667
EXTRACT: pitchwheel channel=3 pitch=-1152 time=0.015624991666666668
EXTRACT: pitchwheel channel=6 pitch=-1536 time=0
EXTRACT: pitchwheel channel=6 pitch=-1536 time=0
EXTRACT: pitchwheel channel=4 pitch=-1408 time=0.0022321416666666667
EXTRACT: pitchwheel channel=4 pitch=-1408 time=0.0044642833333333335
EXTRACT: pitchwheel channel=4 pitch=0 time=0
EXTRACT: note_off channel=4 note=59 velocity=95 time=0
EXTRACT: pitchwheel channel=6 pitch=-1664 time=0.009486602083333334
EXTRACT: pitchwheel channel=6 pitch=-1664 time=0
EXTRACT: pitchwheel channel=3 pitch=-1280 time=0.0016741062500000002
EXTRACT: pitchwheel channel=6 pitch=-1792 time=0.014508920833333334
EXTRACT: pitchwheel channel=6 pitch=-1792 time=0
EXTRACT: pitchwheel channel=3 pitch=-1408 time=0.0033482125000000003
EXTRACT: pitchwheel channel=3 pitch=-1408 time=0.0044642833333333335
EXTRACT: pitchwheel channel=3 pitch=0 time=0
EXTRACT: note_off channel=3 note=60 velocity=95 time=0
EXTRACT: pitchwheel channel=6 pitch=-1920 time=0.00837053125
EXTRACT: pitchwheel channel=6 pitch=-1920 time=0
EXTRACT: pitchwheel channel=6 pitch=-2048 time=0.016183027083333332
EXTRACT: pitchwheel channel=6 pitch=-2048 time=0
EXTRACT: note_off channel=0 note=58 velocity=70 time=0.008928566666666667
EXTRACT: note_on channel=0 note=63 velocity=95 time=0
EXTRACT: note_off channel=2 note=58 velocity=70 time=0
EXTRACT: note_on channel=2 note=63 velocity=95 time=0
EXTRACT: note_off channel=5 note=64 velocity=95 time=0
EXTRACT: note_off channel=5 note=59 velocity=95 time=0
EXTRACT: note_off channel=5 note=55 velocity=95 time=0
EXTRACT: note_off channel=5 note=50 velocity=95 time=0
EXTRACT: note_off channel=7 note=33 velocity=95 time=0
EXTRACT: note_on channel=7 note=33 velocity=95 time=0
EXTRACT: note_off channel=8 note=23 velocity=95 time=0
EXTRACT: note_on channel=8 note=23 velocity=95 time=0
EXTRACT: note_on channel=10 note=40 velocity=95 time=0
EXTRACT: note_on channel=9 note=36 velocity=95 time=0
EXTRACT: pitchwheel channel=6 pitch=-2176 time=0.007254460416666667
EXTRACT: pitchwheel channel=6 pitch=-2176 time=0
EXTRACT: pitchwheel channel=6 pitch=-2304 time=0.016183027083333332
EXTRACT: pitchwheel channel=6 pitch=-2304 time=0
EXTRACT: pitchwheel channel=6 pitch=-2432 time=0.016183027083333332
EXTRACT: pitchwheel channel=6 pitch=-2432 time=0
EXTRACT: pitchwheel channel=6 pitch=-2560 time=0.016183027083333332
EXTRACT: pitchwheel channel=6 pitch=-2560 time=0
EXTRACT: note_off channel=10 note=40 velocity=95 time=0.011160708333333333
EXTRACT: pitchwheel channel=6 pitch=-2688 time=0.00502231875
EXTRACT: pitchwheel channel=6 pitch=-2688 time=0
EXTRACT: pitchwheel channel=6 pitch=-2816 time=0.016183027083333332
EXTRACT: pitchwheel channel=6 pitch=-2816 time=0
EXTRACT: pitchwheel channel=6 pitch=-2944 time=0.016183027083333332
EXTRACT: pitchwheel channel=6 pitch=-2944 time=0
EXTRACT: pitchwheel channel=6 pitch=-3072 time=0.016183027083333332
EXTRACT: pitchwheel channel=6 pitch=-3072 time=0
EXTRACT: pitchwheel channel=6 pitch=-3200 time=0.016183027083333332
EXTRACT: pitchwheel channel=6 pitch=-3200 time=0
EXTRACT: pitchwheel channel=6 pitch=-3328 time=0.016183027083333332
EXTRACT: pitchwheel channel=6 pitch=-3328 time=0
EXTRACT: pitchwheel channel=6 pitch=-3456 time=0.016183027083333332
EXTRACT: pitchwheel channel=6 pitch=-3456 time=0
EXTRACT: pitchwheel channel=6 pitch=-3584 time=0.016183027083333332
EXTRACT: pitchwheel channel=6 pitch=-3584 time=0
EXTRACT: pitchwheel channel=6 pitch=-3712 time=0.016183027083333332
EXTRACT: pitchwheel channel=6 pitch=-3712 time=0
EXTRACT: pitchwheel channel=6 pitch=-3840 time=0.016183027083333332
EXTRACT: pitchwheel channel=6 pitch=-3840 time=0
EXTRACT: pitchwheel channel=6 pitch=-3968 time=0.016183027083333332
EXTRACT: pitchwheel channel=6 pitch=-3968 time=0
EXTRACT: pitchwheel channel=6 pitch=-4096 time=0.016183027083333332
EXTRACT: pitchwheel channel=6 pitch=-4096 time=0
EXTRACT: pitchwheel channel=6 pitch=-4224 time=0.016183027083333332
EXTRACT: pitchwheel channel=6 pitch=-4224 time=0
EXTRACT: note_off channel=0 note=63 velocity=95 time=0.0016741062500000002
EXTRACT: note_off channel=2 note=63 velocity=95 time=0
EXTRACT: note_on channel=2 note=46 velocity=127 time=0
EXTRACT: note_on channel=5 note=64 velocity=95 time=0
EXTRACT: note_on channel=5 note=59 velocity=95 time=0
EXTRACT: note_on channel=5 note=55 velocity=95 time=0
EXTRACT: note_on channel=5 note=50 velocity=95 time=0
EXTRACT: note_off channel=7 note=33 velocity=95 time=0
EXTRACT: note_off channel=9 note=36 velocity=95 time=0
EXTRACT: note_on channel=9 note=28 velocity=95 time=0
EXTRACT: note_on channel=9 note=39 velocity=95 time=0
EXTRACT: pitchwheel channel=6 pitch=-4352 time=0.014508920833333334
EXTRACT: pitchwheel channel=6 pitch=-4352 time=0
EXTRACT: pitchwheel channel=6 pitch=-4480 time=0.016183027083333332
EXTRACT: pitchwheel channel=6 pitch=-4480 time=0
EXTRACT: pitchwheel channel=6 pitch=-4608 time=0.016183027083333332
EXTRACT: pitchwheel channel=6 pitch=-4608 time=0
EXTRACT: pitchwheel channel=6 pitch=-4736 time=0.016183027083333332
EXTRACT: pitchwheel channel=6 pitch=-4736 time=0
EXTRACT: pitchwheel channel=6 pitch=-4864 time=0.016183027083333332
EXTRACT: pitchwheel channel=6 pitch=-4864 time=0
EXTRACT: pitchwheel channel=6 pitch=-4992 time=0.016183027083333332
EXTRACT: pitchwheel channel=6 pitch=-4992 time=0
EXTRACT: pitchwheel channel=6 pitch=-5120 time=0.016183027083333332
EXTRACT: pitchwheel channel=6 pitch=-5120 time=0
EXTRACT: pitchwheel channel=6 pitch=-5248 time=0.016183027083333332
EXTRACT: pitchwheel channel=6 pitch=-5248 time=0
EXTRACT: pitchwheel channel=6 pitch=-5376 time=0.016183027083333332
EXTRACT: pitchwheel channel=6 pitch=-5376 time=0
EXTRACT: pitchwheel channel=6 pitch=-5504 time=0.016183027083333332
EXTRACT: pitchwheel channel=6 pitch=-5504 time=0
EXTRACT: pitchwheel channel=6 pitch=-5632 time=0.016183027083333332
EXTRACT: pitchwheel channel=6 pitch=-5632 time=0
EXTRACT: pitchwheel channel=6 pitch=-5760 time=0.016183027083333332
EXTRACT: pitchwheel channel=6 pitch=-5760 time=0
EXTRACT: pitchwheel channel=6 pitch=-5888 time=0.016183027083333332
EXTRACT: pitchwheel channel=6 pitch=-5888 time=0
EXTRACT: pitchwheel channel=6 pitch=-6016 time=0.016183027083333332
EXTRACT: pitchwheel channel=6 pitch=-6016 time=0
EXTRACT: pitchwheel channel=6 pitch=-6144 time=0.016183027083333332
EXTRACT: pitchwheel channel=6 pitch=-6144 time=0
EXTRACT: pitchwheel channel=6 pitch=-6272 time=0.016183027083333332
EXTRACT: pitchwheel channel=6 pitch=-6272 time=0
EXTRACT: note_on channel=0 note=58 velocity=95 time=0.010602672916666667
EXTRACT: note_on channel=2 note=58 velocity=95 time=0
EXTRACT: note_off channel=8 note=23 velocity=95 time=0
EXTRACT: pitchwheel channel=6 pitch=-6400 time=0.005580354166666667
EXTRACT: pitchwheel channel=6 pitch=-6400 time=0
EXTRACT: pitchwheel channel=6 pitch=-6528 time=0.016183027083333332
EXTRACT: pitchwheel channel=6 pitch=-6528 time=0
EXTRACT: pitchwheel channel=6 pitch=-6656 time=0.016183027083333332
EXTRACT: pitchwheel channel=6 pitch=-6656 time=0
EXTRACT: pitchwheel channel=6 pitch=-6784 time=0.016183027083333332
EXTRACT: pitchwheel channel=6 pitch=-6784 time=0
EXTRACT: pitchwheel channel=6 pitch=-6912 time=0.016183027083333332
EXTRACT: pitchwheel channel=6 pitch=-6912 time=0
EXTRACT: pitchwheel channel=6 pitch=-7040 time=0.016183027083333332
EXTRACT: pitchwheel channel=6 pitch=-7040 time=0
EXTRACT: pitchwheel channel=6 pitch=-7168 time=0.016183027083333332
EXTRACT: pitchwheel channel=6 pitch=-7168 time=0
EXTRACT: pitchwheel channel=6 pitch=-7296 time=0.016183027083333332
EXTRACT: pitchwheel channel=6 pitch=-7296 time=0
EXTRACT: pitchwheel channel=6 pitch=-7424 time=0.016183027083333332
EXTRACT: pitchwheel channel=6 pitch=-7424 time=0
EXTRACT: pitchwheel channel=6 pitch=-7552 time=0.016183027083333332
EXTRACT: pitchwheel channel=6 pitch=-7552 time=0
EXTRACT: pitchwheel channel=6 pitch=-7680 time=0.016183027083333332
EXTRACT: pitchwheel channel=6 pitch=-7680 time=0
EXTRACT: pitchwheel channel=6 pitch=-7808 time=0.016183027083333332
EXTRACT: pitchwheel channel=6 pitch=-7808 time=0
EXTRACT: pitchwheel channel=6 pitch=-7936 time=0.016183027083333332
EXTRACT: pitchwheel channel=6 pitch=-7936 time=0
EXTRACT: pitchwheel channel=6 pitch=-8064 time=0.016183027083333332
EXTRACT: pitchwheel channel=6 pitch=-8064 time=0
EXTRACT: pitchwheel channel=6 pitch=-8192 time=0.016183027083333332
EXTRACT: pitchwheel channel=6 pitch=-8192 time=0
EXTRACT: pitchwheel channel=6 pitch=-8192 time=0.016183027083333332
EXTRACT: pitchwheel channel=6 pitch=-8192 time=0
EXTRACT: pitchwheel channel=6 pitch=-8192 time=0.016183027083333332
EXTRACT: pitchwheel channel=6 pitch=-8192 time=0
EXTRACT: note_off channel=0 note=58 velocity=95 time=0.0033482125000000003
EXTRACT: note_on channel=0 note=59 velocity=70 time=0
EXTRACT: note_off channel=1 note=70 velocity=95 time=0
EXTRACT: note_off channel=1 note=66 velocity=95 time=0
EXTRACT: note_off channel=1 note=63 velocity=95 time=0
EXTRACT: note_off channel=1 note=58 velocity=95 time=0
EXTRACT: note_on channel=1 note=71 velocity=95 time=0
EXTRACT: note_on channel=1 note=66 velocity=95 time=0
EXTRACT: note_on channel=1 note=63 velocity=95 time=0
EXTRACT: note_on channel=1 note=59 velocity=95 time=0
EXTRACT: note_off channel=2 note=46 velocity=127 time=0
EXTRACT: note_off channel=2 note=58 velocity=95 time=0
EXTRACT: note_on channel=2 note=59 velocity=70 time=0
EXTRACT: note_on channel=2 note=47 velocity=127 time=0
EXTRACT: pitchwheel channel=6 pitch=-8192 time=0
EXTRACT: pitchwheel channel=6 pitch=0 time=0
EXTRACT: note_off channel=6 note=53 velocity=95 time=0
EXTRACT: pitchwheel channel=6 pitch=-8192 time=0
EXTRACT: pitchwheel channel=6 pitch=0 time=0
EXTRACT: note_off channel=6 note=53 velocity=95 time=0
EXTRACT: note_on channel=7 note=33 velocity=95 time=0
EXTRACT: note_on channel=8 note=23 velocity=95 time=0
EXTRACT: note_on channel=10 note=40 velocity=95 time=0
EXTRACT: note_off channel=9 note=28 velocity=95 time=0
EXTRACT: note_off channel=9 note=39 velocity=95 time=0
EXTRACT: note_on channel=9 note=36 velocity=95 time=0
EXTRACT: note_off channel=10 note=40 velocity=95 time=0.06696425
EXTRACT: note_off channel=0 note=59 velocity=70 time=0.20089275
EXTRACT: note_on channel=0 note=63 velocity=95 time=0
EXTRACT: note_off channel=2 note=59 velocity=70 time=0
EXTRACT: note_off channel=2 note=47 velocity=127 time=0
EXTRACT: note_on channel=2 note=63 velocity=95 time=0
EXTRACT: note_off channel=5 note=64 velocity=95 time=0
EXTRACT: note_off channel=5 note=59 velocity=95 time=0
EXTRACT: note_off channel=5 note=55 velocity=95 time=0
EXTRACT: note_off channel=5 note=50 velocity=95 time=0
EXTRACT: note_off channel=0 note=63 velocity=95 time=0.267857
EXTRACT: note_on channel=0 note=66 velocity=95 time=0
EXTRACT: note_off channel=2 note=63 velocity=95 time=0
EXTRACT: note_on channel=2 note=66 velocity=95 time=0
EXTRACT: note_on channel=4 note=63 velocity=47 time=0
EXTRACT: note_on channel=4 note=59 velocity=95 time=0
EXTRACT: note_on channel=5 note=64 velocity=95 time=0
EXTRACT: note_on channel=5 note=59 velocity=95 time=0
EXTRACT: note_on channel=5 note=55 velocity=95 time=0
EXTRACT: note_on channel=5 note=50 velocity=95 time=0
EXTRACT: note_off channel=7 note=33 velocity=95 time=0
EXTRACT: note_off channel=8 note=23 velocity=95 time=0
EXTRACT: note_off channel=9 note=36 velocity=95 time=0
EXTRACT: note_on channel=9 note=28 velocity=95 time=0
EXTRACT: note_on channel=9 note=39 velocity=95 time=0
EXTRACT: note_on channel=3 note=63 velocity=47 time=0.033482125
EXTRACT: note_on channel=3 note=59 velocity=95 time=0
EXTRACT: note_off channel=0 note=66 velocity=95 time=0.234374875
EXTRACT: note_on channel=0 note=59 velocity=95 time=0
EXTRACT: note_off channel=2 note=66 velocity=95 time=0
EXTRACT: note_on channel=2 note=59 velocity=95 time=0
EXTRACT: note_on channel=7 note=33 velocity=95 time=0
EXTRACT: note_on channel=8 note=23 velocity=95 time=0
EXTRACT: note_on channel=10 note=40 velocity=95 time=0
EXTRACT: note_off channel=9 note=28 velocity=95 time=0
EXTRACT: note_off channel=9 note=39 velocity=95 time=0
EXTRACT: note_on channel=9 note=36 velocity=95 time=0
EXTRACT: note_off channel=10 note=40 velocity=95 time=0.06696425
EXTRACT: note_off channel=0 note=59 velocity=95 time=0.20089275
EXTRACT: note_on channel=0 note=58 velocity=70 time=0
EXTRACT: note_off channel=1 note=71 velocity=95 time=0
EXTRACT: note_off channel=1 note=66 velocity=95 time=0
EXTRACT: note_off channel=1 note=63 velocity=95 time=0
EXTRACT: note_off channel=1 note=59 velocity=95 time=0
EXTRACT: note_on channel=1 note=70 velocity=95 time=0
EXTRACT: note_on channel=1 note=66 velocity=95 time=0
EXTRACT: note_on channel=1 note=63 velocity=95 time=0
EXTRACT: note_on channel=1 note=58 velocity=95 time=0
EXTRACT: note_off channel=2 note=59 velocity=95 time=0
EXTRACT: note_on channel=2 note=58 velocity=70 time=0
EXTRACT: note_off channel=4 note=63 velocity=47 time=0
EXTRACT: note_off channel=4 note=59 velocity=95 time=0
EXTRACT: note_on channel=4 note=61 velocity=47 time=0
EXTRACT: note_on channel=4 note=58 velocity=95 time=0
EXTRACT: note_off channel=9 note=36 velocity=95 time=0
EXTRACT: note_off channel=3 note=63 velocity=47 time=0.033482125
EXTRACT: note_off channel=3 note=59 velocity=95 time=0
EXTRACT: note_on channel=3 note=61 velocity=47 time=0
EXTRACT: note_on channel=3 note=58 velocity=95 time=0
EXTRACT: note_off channel=0 note=58 velocity=70 time=0.234374875
EXTRACT: note_on channel=0 note=63 velocity=95 time=0
EXTRACT: note_off channel=2 note=58 velocity=70 time=0
EXTRACT: note_on channel=2 note=63 velocity=95 time=0
EXTRACT: note_off channel=5 note=64 velocity=95 time=0
EXTRACT: note_off channel=5 note=59 velocity=95 time=0
EXTRACT: note_off channel=5 note=55 velocity=95 time=0
EXTRACT: note_off channel=5 note=50 velocity=95 time=0
EXTRACT: note_off channel=7 note=33 velocity=95 time=0
EXTRACT: note_on channel=7 note=33 velocity=95 time=0
EXTRACT: note_off channel=8 note=23 velocity=95 time=0
EXTRACT: note_on channel=8 note=23 velocity=95 time=0
EXTRACT: note_on channel=10 note=40 velocity=95 time=0
EXTRACT: note_on channel=9 note=36 velocity=95 time=0
EXTRACT: note_off channel=10 note=40 velocity=95 time=0.06696425
EXTRACT: note_off channel=0 note=63 velocity=95 time=0.20089275
EXTRACT: note_off channel=2 note=63 velocity=95 time=0
EXTRACT: note_off channel=4 note=61 velocity=47 time=0
EXTRACT: note_off channel=4 note=58 velocity=95 time=0
EXTRACT: pitchwheel channel=4 pitch=0 time=0
EXTRACT: note_on channel=4 note=62 velocity=95 time=0
EXTRACT: note_on channel=5 note=64 velocity=95 time=0
EXTRACT: note_on channel=5 note=59 velocity=95 time=0
EXTRACT: note_on channel=5 note=55 velocity=95 time=0
EXTRACT: note_on channel=5 note=50 velocity=95 time=0
EXTRACT: note_off channel=7 note=33 velocity=95 time=0
EXTRACT: note_off channel=9 note=36 velocity=95 time=0
EXTRACT: note_on channel=9 note=28 velocity=95 time=0
EXTRACT: note_on channel=9 note=39 velocity=95 time=0
EXTRACT: note_off channel=3 note=61 velocity=47 time=0.033482125
EXTRACT: note_off channel=3 note=58 velocity=95 time=0
EXTRACT: pitchwheel channel=3 pitch=0 time=0
EXTRACT: note_on channel=3 note=63 velocity=95 time=0
EXTRACT: pitchwheel channel=4 pitch=128 time=0.013392850000000001
EXTRACT: pitchwheel channel=3 pitch=128 time=0.033482125
EXTRACT: pitchwheel channel=4 pitch=256 time=0.013392850000000001
EXTRACT: pitchwheel channel=3 pitch=256 time=0.033482125
EXTRACT: pitchwheel channel=4 pitch=384 time=0.013392850000000001
EXTRACT: pitchwheel channel=3 pitch=384 time=0.033482125
EXTRACT: pitchwheel channel=4 pitch=512 time=0.013392850000000001
EXTRACT: pitchwheel channel=3 pitch=512 time=0.033482125
EXTRACT: pitchwheel channel=4 pitch=640 time=0.013392850000000001
EXTRACT: pitchwheel channel=4 pitch=640 time=0
EXTRACT: pitchwheel channel=4 pitch=0 time=0
EXTRACT: note_off channel=4 note=62 velocity=95 time=0
EXTRACT: note_on channel=0 note=58 velocity=95 time=0.033482125
EXTRACT: note_on channel=2 note=58 velocity=95 time=0
EXTRACT: pitchwheel channel=3 pitch=640 time=0
EXTRACT: pitchwheel channel=3 pitch=640 time=0
EXTRACT: pitchwheel channel=3 pitch=0 time=0
EXTRACT: note_off channel=3 note=63 velocity=95 time=0
EXTRACT: pitchwheel channel=4 pitch=0 time=0
EXTRACT: note_on channel=4 note=63 velocity=95 time=0
EXTRACT: note_off channel=8 note=23 velocity=95 time=0
EXTRACT: pitchwheel channel=4 pitch=128 time=0.023995522916666668
EXTRACT: pitchwheel channel=3 pitch=0 time=0.009486602083333334
EXTRACT: note_on channel=3 note=64 velocity=95 time=0
EXTRACT: pitchwheel channel=4 pitch=256 time=0.014508920833333334
EXTRACT: pitchwheel channel=3 pitch=128 time=0.009486602083333334
EXTRACT: pitchwheel channel=4 pitch=384 time=0.014508920833333334
EXTRACT: pitchwheel channel=3 pitch=256 time=0.009486602083333334
EXTRACT: pitchwheel channel=4 pitch=512 time=0.014508920833333334
EXTRACT: pitchwheel channel=3 pitch=384 time=0.009486602083333334
EXTRACT: pitchwheel channel=4 pitch=640 time=0.014508920833333334
EXTRACT: pitchwheel channel=3 pitch=512 time=0.009486602083333334
EXTRACT: pitchwheel channel=4 pitch=768 time=0.014508920833333334
EXTRACT: pitchwheel channel=3 pitch=640 time=0.009486602083333334
EXTRACT: pitchwheel channel=4 pitch=896 time=0.014508920833333334
EXTRACT: pitchwheel channel=3 pitch=768 time=0.009486602083333334
EXTRACT: pitchwheel channel=4 pitch=1024 time=0.014508920833333334
EXTRACT: pitchwheel channel=3 pitch=896 time=0.009486602083333334
EXTRACT: pitchwheel channel=4 pitch=1152 time=0.014508920833333334
EXTRACT: pitchwheel channel=3 pitch=1024 time=0.009486602083333334
EXTRACT: pitchwheel channel=4 pitch=1280 time=0.014508920833333334
EXTRACT: pitchwheel channel=3 pitch=1152 time=0.009486602083333334
EXTRACT: pitchwheel channel=4 pitch=1408 time=0.014508920833333334
EXTRACT: note_off channel=0 note=58 velocity=95 time=0.003906247916666667
EXTRACT: note_on channel=0 note=59 velocity=70 time=0
EXTRACT: note_off channel=1 note=70 velocity=95 time=0
EXTRACT: note_off channel=1 note=66 velocity=95 time=0
EXTRACT: note_off channel=1 note=63 velocity=95 time=0
EXTRACT: note_off channel=1 note=58 velocity=95 time=0
EXTRACT: note_on channel=1 note=71 velocity=95 time=0
EXTRACT: note_on channel=1 note=66 velocity=95 time=0
EXTRACT: note_on channel=1 note=63 velocity=95 time=0
EXTRACT: note_on channel=1 note=59 velocity=95 time=0
EXTRACT: note_off channel=2 note=58 velocity=95 time=0
EXTRACT: note_on channel=2 note=59 velocity=70 time=0
EXTRACT: pitchwheel channel=4 pitch=1408 time=0
EXTRACT: pitchwheel channel=4 pitch=0 time=0
EXTRACT: note_off channel=4 note=63 velocity=95 time=0
EXTRACT: pitchwheel channel=4 pitch=0 time=0
EXTRACT: note_on channel=4 note=59 velocity=95 time=0
EXTRACT: note_on channel=7 note=33 velocity=95 time=0
EXTRACT: note_on channel=8 note=23 velocity=95 time=0
EXTRACT: note_on channel=10 note=40 velocity=95 time=0
EXTRACT: note_off channel=9 note=28 velocity=95 time=0
EXTRACT: note_off channel=9 note=39 velocity=95 time=0
EXTRACT: note_on channel=9 note=36 velocity=95 time=0
EXTRACT: pitchwheel channel=3 pitch=1280 time=0.005580354166666667
EXTRACT: pitchwheel channel=4 pitch=-128 time=0.012276779166666666
EXTRACT: pitchwheel channel=3 pitch=1408 time=0.01171874375
EXTRACT: pitchwheel channel=3 pitch=1408 time=0.003906247916666667
EXTRACT: pitchwheel channel=3 pitch=0 time=0
EXTRACT: note_off channel=3 note=64 velocity=95 time=0
EXTRACT: pitchwheel channel=3 pitch=0 time=0
EXTRACT: note_on channel=3 note=60 velocity=95 time=0
EXTRACT: pitchwheel channel=4 pitch=-256 time=0.0022321416666666667
EXTRACT: pitchwheel channel=3 pitch=-128 time=0.015624991666666668
EXTRACT: pitchwheel channel=4 pitch=-384 time=0.0022321416666666667
EXTRACT: note_off channel=10 note=40 velocity=95 time=0.013392850000000001
EXTRACT: pitchwheel channel=3 pitch=-256 time=0.0022321416666666667
EXTRACT: pitchwheel channel=4 pitch=-512 time=0.0022321416666666667
EXTRACT: pitchwheel channel=3 pitch=-384 time=0.015624991666666668
EXTRACT: pitchwheel channel=4 pitch=-640 time=0.0022321416666666667
EXTRACT: pitchwheel channel=3 pitch=-512 time=0.015624991666666668
EXTRACT: pitchwheel channel=4 pitch=-768 time=0.0022321416666666667
EXTRACT: pitchwheel channel=3 pitch=-640 time=0.015624991666666668
EXTRACT: pitchwheel channel=4 pitch=-896 time=0.0022321416666666667
EXTRACT: pitchwheel channel=3 pitch=-768 time=0.015624991666666668
EXTRACT: pitchwheel channel=4 pitch=-1024 time=0.0022321416666666667
EXTRACT: pitchwheel channel=3 pitch=-896 time=0.015624991666666668
EXTRACT: pitchwheel channel=4 pitch=-1152 time=0.0022321416666666667
EXTRACT: pitchwheel channel=3 pitch=-1024 time=0.015624991666666668
EXTRACT: pitchwheel channel=4 pitch=-1280 time=0.0022321416666666667
EXTRACT: pitchwheel channel=3 pitch=-1152 time=0.015624991666666668
EXTRACT: pitchwheel channel=4 pitch=-1408 time=0.0022321416666666667
EXTRACT: pitchwheel channel=4 pitch=-1408 time=0.0044642833333333335
EXTRACT: pitchwheel channel=4 pitch=0 time=0
EXTRACT: note_off channel=4 note=59 velocity=95 time=0
EXTRACT: pitchwheel channel=3 pitch=-1280 time=0.011160708333333333
EXTRACT: pitchwheel channel=3 pitch=-1408 time=0.017857133333333334
EXTRACT: pitchwheel channel=3 pitch=-1408 time=0.0044642833333333335
EXTRACT: pitchwheel channel=3 pitch=0 time=0
EXTRACT: note_off channel=3 note=60 velocity=95 time=0
EXTRACT: note_off channel=0 note=59 velocity=70 time=0.033482125
EXTRACT: note_on channel=0 note=63 velocity=95 time=0
EXTRACT: note_off channel=2 note=59 velocity=70 time=0
EXTRACT: note_on channel=2 note=63 velocity=95 time=0
EXTRACT: note_off channel=5 note=64 velocity=95 time=0
EXTRACT: note_off channel=5 note=59 velocity=95 time=0
EXTRACT: note_off channel=5 note=55 velocity=95 time=0
EXTRACT: note_off channel=5 note=50 velocity=95 time=0
EXTRACT: note_off channel=0 note=63 velocity=95 time=0.267857
EXTRACT: note_on channel=0 note=66 velocity=95 time=0
EXTRACT: note_off channel=2 note=63 velocity=95 time=0
EXTRACT: note_on channel=2 note=66 velocity=95 time=0
EXTRACT: pitchwheel channel=4 pitch=0 time=0
EXTRACT: note_on channel=4 note=62 velocity=95 time=0
EXTRACT: note_on channel=5 note=64 velocity=95 time=0
EXTRACT: note_on channel=5 note=59 velocity=95 time=0
EXTRACT: note_on channel=5 note=55 velocity=95 time=0
EXTRACT: note_on channel=5 note=50 velocity=95 time=0
EXTRACT: note_off channel=7 note=33 velocity=95 time=0
EXTRACT: note_off channel=8 note=23 velocity=95 time=0
EXTRACT: note_off channel=9 note=36 velocity=95 time=0
EXTRACT: note_on channel=9 note=28 velocity=95 time=0
EXTRACT: note_on channel=9 note=39 velocity=95 time=0
EXTRACT: pitchwheel channel=3 pitch=0 time=0.033482125
EXTRACT: note_on channel=3 note=63 velocity=95 time=0
EXTRACT: pitchwheel channel=4 pitch=128 time=0.013392850000000001
EXTRACT: pitchwheel channel=3 pitch=128 time=0.033482125
EXTRACT: pitchwheel channel=4 pitch=256 time=0.013392850000000001
EXTRACT: pitchwheel channel=3 pitch=256 time=0.033482125
EXTRACT: note_on channel=7 note=33 velocity=95 time=0.006696425000000001
EXTRACT: note_on channel=8 note=23 velocity=95 time=0
EXTRACT: note_on channel=10 note=40 velocity=95 time=0
EXTRACT: note_off channel=9 note=28 velocity=95 time=0
EXTRACT: note_off channel=9 note=39 velocity=95 time=0
EXTRACT: note_on channel=9 note=36 velocity=95 time=0
EXTRACT: pitchwheel channel=4 pitch=384 time=0.006696425000000001
EXTRACT: pitchwheel channel=3 pitch=384 time=0.033482125
EXTRACT: pitchwheel channel=4 pitch=512 time=0.013392850000000001
EXTRACT: note_off channel=10 note=40 velocity=95 time=0.013392850000000001
EXTRACT: pitchwheel channel=3 pitch=512 time=0.020089275
EXTRACT: pitchwheel channel=4 pitch=640 time=0.013392850000000001
EXTRACT: pitchwheel channel=4 pitch=640 time=0
EXTRACT: pitchwheel channel=4 pitch=0 time=0
EXTRACT: note_off channel=4 note=62 velocity=95 time=0
EXTRACT: note_off channel=0 note=66 velocity=95 time=0.033482125
EXTRACT: note_on channel=0 note=59 velocity=95 time=0
EXTRACT: note_off channel=2 note=66 velocity=95 time=0
EXTRACT: note_on channel=2 note=59 velocity=95 time=0
EXTRACT: pitchwheel channel=3 pitch=640 time=0
EXTRACT: pitchwheel channel=3 pitch=640 time=0
EXTRACT: pitchwheel channel=3 pitch=0 time=0
EXTRACT: note_off channel=3 note=63 velocity=95 time=0
EXTRACT: pitchwheel channel=4 pitch=0 time=0
EXTRACT: note_on channel=4 note=63 velocity=95 time=0
EXTRACT: note_off channel=7 note=33 velocity=95 time=0
EXTRACT: note_on channel=7 note=33 velocity=95 time=0
EXTRACT: note_off channel=8 note=23 velocity=95 time=0
EXTRACT: note_on channel=8 note=23 velocity=95 time=0
EXTRACT: note_on channel=10 note=40 velocity=95 time=0
EXTRACT: note_off channel=9 note=36 velocity=95 time=0
EXTRACT: note_on channel=9 note=36 velocity=95 time=0
EXTRACT: pitchwheel channel=4 pitch=128 time=0.023995522916666668
EXTRACT: pitchwheel channel=3 pitch=0 time=0.009486602083333334
EXTRACT: note_on channel=3 note=64 velocity=95 time=0
EXTRACT: pitchwheel channel=4 pitch=256 time=0.014508920833333334
EXTRACT: pitchwheel channel=3 pitch=128 time=0.009486602083333334
EXTRACT: note_off channel=10 note=40 velocity=95 time=0.009486602083333334
EXTRACT: pitchwheel channel=4 pitch=384 time=0.00502231875
EXTRACT: pitchwheel channel=3 pitch=256 time=0.009486602083333334
EXTRACT: pitchwheel channel=4 pitch=512 time=0.014508920833333334
EXTRACT: pitchwheel channel=3 pitch=384 time=0.009486602083333334
EXTRACT: pitchwheel channel=4 pitch=640 time=0.014508920833333334
EXTRACT: pitchwheel channel=3 pitch=512 time=0.009486602083333334
EXTRACT: pitchwheel channel=4 pitch=768 time=0.014508920833333334
EXTRACT: pitchwheel channel=3 pitch=640 time=0.009486602083333334
EXTRACT: pitchwheel channel=4 pitch=896 time=0.014508920833333334
EXTRACT: pitchwheel channel=3 pitch=768 time=0.009486602083333334
EXTRACT: pitchwheel channel=4 pitch=1024 time=0.014508920833333334
EXTRACT: pitchwheel channel=3 pitch=896 time=0.009486602083333334
EXTRACT: pitchwheel channel=4 pitch=1152 time=0.014508920833333334
EXTRACT: pitchwheel channel=3 pitch=1024 time=0.009486602083333334
EXTRACT: pitchwheel channel=4 pitch=1280 time=0.014508920833333334
EXTRACT: pitchwheel channel=3 pitch=1152 time=0.009486602083333334
EXTRACT: pitchwheel channel=4 pitch=1408 time=0.014508920833333334
EXTRACT: note_off channel=0 note=59 velocity=95 time=0.003906247916666667
EXTRACT: note_on channel=0 note=58 velocity=70 time=0
EXTRACT: note_off channel=1 note=71 velocity=95 time=0
EXTRACT: note_off channel=1 note=66 velocity=95 time=0
EXTRACT: note_off channel=1 note=63 velocity=95 time=0
EXTRACT: note_off channel=1 note=59 velocity=95 time=0
EXTRACT: note_on channel=1 note=70 velocity=95 time=0
EXTRACT: note_on channel=1 note=66 velocity=95 time=0
EXTRACT: note_on channel=1 note=63 velocity=95 time=0
EXTRACT: note_on channel=1 note=58 velocity=95 time=0
EXTRACT: note_off channel=2 note=59 velocity=95 time=0
EXTRACT: note_on channel=2 note=58 velocity=70 time=0
EXTRACT: pitchwheel channel=4 pitch=1408 time=0
EXTRACT: pitchwheel channel=4 pitch=0 time=0
EXTRACT: note_off channel=4 note=63 velocity=95 time=0
EXTRACT: pitchwheel channel=4 pitch=0 time=0
EXTRACT: note_on channel=4 note=59 velocity=95 time=0
EXTRACT: pitchwheel channel=6 pitch=0 time=0
EXTRACT: note_on channel=6 note=53 velocity=95 time=0
EXTRACT: pitchwheel channel=6 pitch=0 time=0
EXTRACT: note_on channel=6 note=53 velocity=95 time=0
EXTRACT: note_off channel=7 note=33 velocity=95 time=0
EXTRACT: note_off channel=9 note=36 velocity=95 time=0
EXTRACT: pitchwheel channel=3 pitch=1280 time=0.005580354166666667
EXTRACT: pitchwheel channel=6 pitch=-128 time=0.010602672916666667
EXTRACT: pitchwheel channel=6 pitch=-128 time=0
EXTRACT: pitchwheel channel=4 pitch=-128 time=0.0016741062500000002
EXTRACT: pitchwheel channel=3 pitch=1408 time=0.01171874375
EXTRACT: pitchwheel channel=6 pitch=-256 time=0.0027901770833333333
EXTRACT: pitchwheel channel=6 pitch=-256 time=0
EXTRACT: pitchwheel channel=3 pitch=1408 time=0.0011160708333333334
EXTRACT: pitchwheel channel=3 pitch=0 time=0
EXTRACT: note_off channel=3 note=64 velocity=95 time=0
EXTRACT: pitchwheel channel=3 pitch=0 time=0
EXTRACT: note_on channel=3 note=60 velocity=95 time=0
EXTRACT: pitchwheel channel=4 pitch=-256 time=0.0022321416666666667
EXTRACT: pitchwheel channel=6 pitch=-384 time=0.012834814583333333
EXTRACT: pitchwheel channel=6 pitch=-384 time=0
EXTRACT: pitchwheel channel=3 pitch=-128 time=0.0027901770833333333
EXTRACT: pitchwheel channel=4 pitch=-384 time=0.0022321416666666667
EXTRACT: pitchwheel channel=6 pitch=-512 time=0.011160708333333333
EXTRACT: pitchwheel channel=6 pitch=-512 time=0
EXTRACT: pitchwheel channel=3 pitch=-256 time=0.0044642833333333335
EXTRACT: pitchwheel channel=4 pitch=-512 time=0.0022321416666666667
EXTRACT: pitchwheel channel=6 pitch=-640 time=0.009486602083333334
EXTRACT: pitchwheel channel=6 pitch=-640 time=0
EXTRACT: pitchwheel channel=3 pitch=-384 time=0.006138389583333333
EXTRACT: pitchwheel channel=4 pitch=-640 time=0.0022321416666666667
EXTRACT: pitchwheel channel=6 pitch=-768 time=0.007812495833333334
EXTRACT: pitchwheel channel=6 pitch=-768 time=0
EXTRACT: pitchwheel channel=3 pitch=-512 time=0.007812495833333334
EXTRACT: pitchwheel channel=4 pitch=-768 time=0.0022321416666666667
EXTRACT: pitchwheel channel=6 pitch=-896 time=0.006138389583333333
EXTRACT: pitchwheel channel=6 pitch=-896 time=0
EXTRACT: pitchwheel channel=3 pitch=-640 time=0.009486602083333334
EXTRACT: pitchwheel channel=4 pitch=-896 time=0.0022321416666666667
EXTRACT: pitchwheel channel=6 pitch=-1024 time=0.0044642833333333335
EXTRACT: pitchwheel channel=6 pitch=-1024 time=0
EXTRACT: pitchwheel channel=3 pitch=-768 time=0.011160708333333333
EXTRACT: pitchwheel channel=4 pitch=-1024 time=0.0022321416666666667
EXTRACT: pitchwheel channel=6 pitch=-1152 time=0.0027901770833333333
EXTRACT: pitchwheel channel=6 pitch=-1152 time=0
EXTRACT: pitchwheel channel=3 pitch=-896 time=0.012834814583333333
EXTRACT: pitchwheel channel=4 pitch=-1152 time=0.0022321416666666667
EXTRACT: pitchwheel channel=6 pitch=-1280 time=0.0011160708333333334
EXTRACT: pitchwheel channel=6 pitch=-1280 time=0
EXTRACT: pitchwheel channel=3 pitch=-1024 time=0.014508920833333334
EXTRACT: pitchwheel channel=6 pitch=-1408 time=0.0016741062500000002
EXTRACT: pitchwheel channel=6 pitch=-1408 time=0
EXTRACT: pitchwheel channel=4 pitch=-1280 time=0.0005580354166666667
EXTRACT: pitchwheel channel=3 pitch=-1152 time=0.015624991666666668
EXTRACT: pitchwheel channel=6 pitch=-1536 time=0
EXTRACT: pitchwheel channel=6 pitch=-1536 time=0
EXTRACT: pitchwheel channel=4 pitch=-1408 time=0.0022321416666666667
EXTRACT: pitchwheel channel=4 pitch=-1408 time=0.0044642833333333335
EXTRACT: pitchwheel channel=4 pitch=0 time=0
EXTRACT: note_off channel=4 note=59 velocity=95 time=0
EXTRACT: pitchwheel channel=6 pitch=-1664 time=0.009486602083333334
EXTRACT: pitchwheel channel=6 pitch=-1664 time=0
EXTRACT: pitchwheel channel=3 pitch=-1280 time=0.0016741062500000002
EXTRACT: pitchwheel channel=6 pitch=-1792 time=0.014508920833333334
EXTRACT: pitchwheel channel=6 pitch=-1792 time=0
EXTRACT: pitchwheel channel=3 pitch=-1408 time=0.0033482125000000003
EXTRACT: pitchwheel channel=3 pitch=-1408 time=0.0044642833333333335
EXTRACT: pitchwheel channel=3 pitch=0 time=0
EXTRACT: note_off channel=3 note=60 velocity=95 time=0
EXTRACT: pitchwheel channel=6 pitch=-1920 time=0.00837053125
EXTRACT: pitchwheel channel=6 pitch=-1920 time=0
EXTRACT: pitchwheel channel=6 pitch=-2048 time=0.016183027083333332
EXTRACT: pitchwheel channel=6 pitch=-2048 time=0
EXTRACT: note_off channel=0 note=58 velocity=70 time=0.008928566666666667
EXTRACT: note_on channel=0 note=63 velocity=95 time=0
EXTRACT: note_off channel=2 note=58 velocity=70 time=0
EXTRACT: note_on channel=2 note=63 velocity=95 time=0
EXTRACT: note_off channel=5 note=64 velocity=95 time=0
EXTRACT: note_off channel=5 note=59 velocity=95 time=0
EXTRACT: note_off channel=5 note=55 velocity=95 time=0
EXTRACT: note_off channel=5 note=50 velocity=95 time=0
EXTRACT: note_on channel=7 note=33 velocity=95 time=0
EXTRACT: note_off channel=8 note=23 velocity=95 time=0
EXTRACT: note_on channel=8 note=23 velocity=95 time=0
EXTRACT: note_on channel=10 note=40 velocity=95 time=0
EXTRACT: note_on channel=9 note=36 velocity=95 time=0
EXTRACT: pitchwheel channel=6 pitch=-2176 time=0.007254460416666667
EXTRACT: pitchwheel channel=6 pitch=-2176 time=0
EXTRACT: pitchwheel channel=6 pitch=-2304 time=0.016183027083333332
EXTRACT: pitchwheel channel=6 pitch=-2304 time=0
EXTRACT: pitchwheel channel=6 pitch=-2432 time=0.016183027083333332
EXTRACT: pitchwheel channel=6 pitch=-2432 time=0
EXTRACT: pitchwheel channel=6 pitch=-2560 time=0.016183027083333332
EXTRACT: pitchwheel channel=6 pitch=-2560 time=0
EXTRACT: note_off channel=10 note=40 velocity=95 time=0.011160708333333333
EXTRACT: pitchwheel channel=6 pitch=-2688 time=0.00502231875
EXTRACT: pitchwheel channel=6 pitch=-2688 time=0
EXTRACT: pitchwheel channel=6 pitch=-2816 time=0.016183027083333332
EXTRACT: pitchwheel channel=6 pitch=-2816 time=0
EXTRACT: pitchwheel channel=6 pitch=-2944 time=0.016183027083333332
EXTRACT: pitchwheel channel=6 pitch=-2944 time=0
EXTRACT: pitchwheel channel=6 pitch=-3072 time=0.016183027083333332
EXTRACT: pitchwheel channel=6 pitch=-3072 time=0
EXTRACT: pitchwheel channel=6 pitch=-3200 time=0.016183027083333332
EXTRACT: pitchwheel channel=6 pitch=-3200 time=0
EXTRACT: pitchwheel channel=6 pitch=-3328 time=0.016183027083333332
EXTRACT: pitchwheel channel=6 pitch=-3328 time=0
EXTRACT: pitchwheel channel=6 pitch=-3456 time=0.016183027083333332
EXTRACT: pitchwheel channel=6 pitch=-3456 time=0
EXTRACT: pitchwheel channel=6 pitch=-3584 time=0.016183027083333332
EXTRACT: pitchwheel channel=6 pitch=-3584 time=0
EXTRACT: pitchwheel channel=6 pitch=-3712 time=0.016183027083333332
EXTRACT: pitchwheel channel=6 pitch=-3712 time=0
EXTRACT: pitchwheel channel=6 pitch=-3840 time=0.016183027083333332
EXTRACT: pitchwheel channel=6 pitch=-3840 time=0
EXTRACT: pitchwheel channel=6 pitch=-3968 time=0.016183027083333332
EXTRACT: pitchwheel channel=6 pitch=-3968 time=0
EXTRACT: pitchwheel channel=6 pitch=-4096 time=0.016183027083333332
EXTRACT: pitchwheel channel=6 pitch=-4096 time=0
EXTRACT: pitchwheel channel=6 pitch=-4224 time=0.016183027083333332
EXTRACT: pitchwheel channel=6 pitch=-4224 time=0
EXTRACT: note_off channel=0 note=63 velocity=95 time=0.0016741062500000002
EXTRACT: note_off channel=2 note=63 velocity=95 time=0
EXTRACT: note_on channel=2 note=46 velocity=127 time=0
EXTRACT: note_on channel=5 note=64 velocity=95 time=0
EXTRACT: note_on channel=5 note=59 velocity=95 time=0
EXTRACT: note_on channel=5 note=55 velocity=95 time=0
EXTRACT: note_on channel=5 note=50 velocity=95 time=0
EXTRACT: note_off channel=7 note=33 velocity=95 time=0
EXTRACT: note_off channel=9 note=36 velocity=95 time=0
EXTRACT: note_on channel=9 note=28 velocity=95 time=0
EXTRACT: note_on channel=9 note=39 velocity=95 time=0
EXTRACT: pitchwheel channel=6 pitch=-4352 time=0.014508920833333334
EXTRACT: pitchwheel channel=6 pitch=-4352 time=0
EXTRACT: pitchwheel channel=6 pitch=-4480 time=0.016183027083333332
EXTRACT: pitchwheel channel=6 pitch=-4480 time=0
EXTRACT: pitchwheel channel=6 pitch=-4608 time=0.016183027083333332
EXTRACT: pitchwheel channel=6 pitch=-4608 time=0
EXTRACT: pitchwheel channel=6 pitch=-4736 time=0.016183027083333332
EXTRACT: pitchwheel channel=6 pitch=-4736 time=0
EXTRACT: pitchwheel channel=6 pitch=-4864 time=0.016183027083333332
EXTRACT: pitchwheel channel=6 pitch=-4864 time=0
EXTRACT: pitchwheel channel=6 pitch=-4992 time=0.016183027083333332
EXTRACT: pitchwheel channel=6 pitch=-4992 time=0
EXTRACT: pitchwheel channel=6 pitch=-5120 time=0.016183027083333332
EXTRACT: pitchwheel channel=6 pitch=-5120 time=0
EXTRACT: pitchwheel channel=6 pitch=-5248 time=0.016183027083333332
EXTRACT: pitchwheel channel=6 pitch=-5248 time=0
EXTRACT: pitchwheel channel=6 pitch=-5376 time=0.016183027083333332
EXTRACT: pitchwheel channel=6 pitch=-5376 time=0
EXTRACT: pitchwheel channel=6 pitch=-5504 time=0.016183027083333332
EXTRACT: pitchwheel channel=6 pitch=-5504 time=0
EXTRACT: pitchwheel channel=6 pitch=-5632 time=0.016183027083333332
EXTRACT: pitchwheel channel=6 pitch=-5632 time=0
EXTRACT: pitchwheel channel=6 pitch=-5760 time=0.016183027083333332
EXTRACT: pitchwheel channel=6 pitch=-5760 time=0
EXTRACT: pitchwheel channel=6 pitch=-5888 time=0.016183027083333332
EXTRACT: pitchwheel channel=6 pitch=-5888 time=0
EXTRACT: pitchwheel channel=6 pitch=-6016 time=0.016183027083333332
EXTRACT: pitchwheel channel=6 pitch=-6016 time=0
EXTRACT: pitchwheel channel=6 pitch=-6144 time=0.016183027083333332
EXTRACT: pitchwheel channel=6 pitch=-6144 time=0
EXTRACT: pitchwheel channel=6 pitch=-6272 time=0.016183027083333332
EXTRACT: pitchwheel channel=6 pitch=-6272 time=0
EXTRACT: note_on channel=0 note=58 velocity=95 time=0.010602672916666667
EXTRACT: note_on channel=2 note=58 velocity=95 time=0
EXTRACT: note_off channel=8 note=23 velocity=95 time=0
EXTRACT: pitchwheel channel=6 pitch=-6400 time=0.005580354166666667
EXTRACT: pitchwheel channel=6 pitch=-6400 time=0
EXTRACT: pitchwheel channel=6 pitch=-6528 time=0.016183027083333332
EXTRACT: pitchwheel channel=6 pitch=-6528 time=0
EXTRACT: pitchwheel channel=6 pitch=-6656 time=0.016183027083333332
EXTRACT: pitchwheel channel=6 pitch=-6656 time=0
EXTRACT: pitchwheel channel=6 pitch=-6784 time=0.016183027083333332
EXTRACT: pitchwheel channel=6 pitch=-6784 time=0
EXTRACT: pitchwheel channel=6 pitch=-6912 time=0.016183027083333332
EXTRACT: pitchwheel channel=6 pitch=-6912 time=0
EXTRACT: pitchwheel channel=6 pitch=-7040 time=0.016183027083333332
EXTRACT: pitchwheel channel=6 pitch=-7040 time=0
EXTRACT: pitchwheel channel=6 pitch=-7168 time=0.016183027083333332
EXTRACT: pitchwheel channel=6 pitch=-7168 time=0
EXTRACT: pitchwheel channel=6 pitch=-7296 time=0.016183027083333332
EXTRACT: pitchwheel channel=6 pitch=-7296 time=0
EXTRACT: pitchwheel channel=6 pitch=-7424 time=0.016183027083333332
EXTRACT: pitchwheel channel=6 pitch=-7424 time=0
EXTRACT: pitchwheel channel=6 pitch=-7552 time=0.016183027083333332
EXTRACT: pitchwheel channel=6 pitch=-7552 time=0
EXTRACT: pitchwheel channel=6 pitch=-7680 time=0.016183027083333332
EXTRACT: pitchwheel channel=6 pitch=-7680 time=0
EXTRACT: pitchwheel channel=6 pitch=-7808 time=0.016183027083333332
EXTRACT: pitchwheel channel=6 pitch=-7808 time=0
EXTRACT: pitchwheel channel=6 pitch=-7936 time=0.016183027083333332
EXTRACT: pitchwheel channel=6 pitch=-7936 time=0
EXTRACT: pitchwheel channel=6 pitch=-8064 time=0.016183027083333332
EXTRACT: pitchwheel channel=6 pitch=-8064 time=0
EXTRACT: pitchwheel channel=6 pitch=-8192 time=0.016183027083333332
EXTRACT: pitchwheel channel=6 pitch=-8192 time=0
EXTRACT: pitchwheel channel=6 pitch=-8192 time=0.016183027083333332
EXTRACT: pitchwheel channel=6 pitch=-8192 time=0
EXTRACT: pitchwheel channel=6 pitch=-8192 time=0.016183027083333332
EXTRACT: pitchwheel channel=6 pitch=-8192 time=0
EXTRACT: note_off channel=0 note=58 velocity=95 time=0.0033482125000000003
EXTRACT: note_on channel=0 note=59 velocity=70 time=0
EXTRACT: note_off channel=1 note=70 velocity=95 time=0
EXTRACT: note_off channel=1 note=66 velocity=95 time=0
EXTRACT: note_off channel=1 note=63 velocity=95 time=0
EXTRACT: note_off channel=1 note=58 velocity=95 time=0
EXTRACT: note_on channel=1 note=71 velocity=95 time=0
EXTRACT: note_on channel=1 note=66 velocity=95 time=0
EXTRACT: note_on channel=1 note=63 velocity=95 time=0
EXTRACT: note_on channel=1 note=59 velocity=95 time=0
EXTRACT: note_off channel=2 note=46 velocity=127 time=0
EXTRACT: note_off channel=2 note=58 velocity=95 time=0
EXTRACT: note_on channel=2 note=59 velocity=70 time=0
EXTRACT: note_on channel=2 note=47 velocity=127 time=0
EXTRACT: pitchwheel channel=6 pitch=-8192 time=0
EXTRACT: pitchwheel channel=6 pitch=0 time=0
EXTRACT: note_off channel=6 note=53 velocity=95 time=0
EXTRACT: pitchwheel channel=6 pitch=-8192 time=0
EXTRACT: pitchwheel channel=6 pitch=0 time=0
EXTRACT: note_off channel=6 note=53 velocity=95 time=0
EXTRACT: note_on channel=7 note=33 velocity=95 time=0
EXTRACT: note_on channel=8 note=23 velocity=95 time=0
EXTRACT: note_on channel=10 note=40 velocity=95 time=0
EXTRACT: note_off channel=9 note=28 velocity=95 time=0
EXTRACT: note_off channel=9 note=39 velocity=95 time=0
EXTRACT: note_on channel=9 note=36 velocity=95 time=0
EXTRACT: note_off channel=10 note=40 velocity=95 time=0.06696425
EXTRACT: note_off channel=0 note=59 velocity=70 time=0.20089275
EXTRACT: note_on channel=0 note=63 velocity=95 time=0
EXTRACT: note_off channel=2 note=59 velocity=70 time=0
EXTRACT: note_off channel=2 note=47 velocity=127 time=0
EXTRACT: note_on channel=2 note=63 velocity=95 time=0
EXTRACT: note_off channel=5 note=64 velocity=95 time=0
EXTRACT: note_off channel=5 note=59 velocity=95 time=0
EXTRACT: note_off channel=5 note=55 velocity=95 time=0
EXTRACT: note_off channel=5 note=50 velocity=95 time=0
EXTRACT: note_off channel=8 note=23 velocity=95 time=0
EXTRACT: note_on channel=8 note=23 velocity=95 time=0
EXTRACT: note_on channel=10 note=40 velocity=95 time=0
EXTRACT: note_off channel=9 note=36 velocity=95 time=0
EXTRACT: note_on channel=9 note=36 velocity=95 time=0
EXTRACT: note_off channel=10 note=40 velocity=95 time=0.06696425
EXTRACT: note_off channel=0 note=63 velocity=95 time=0.20089275
EXTRACT: note_on channel=0 note=66 velocity=95 time=0
EXTRACT: note_off channel=2 note=63 velocity=95 time=0
EXTRACT: note_on channel=2 note=66 velocity=95 time=0
EXTRACT: note_on channel=4 note=63 velocity=47 time=0
EXTRACT: note_on channel=4 note=59 velocity=95 time=0
EXTRACT: note_on channel=5 note=64 velocity=95 time=0
EXTRACT: note_on channel=5 note=59 velocity=95 time=0
EXTRACT: note_on channel=5 note=55 velocity=95 time=0
EXTRACT: note_on channel=5 note=50 velocity=95 time=0
EXTRACT: note_off channel=7 note=33 velocity=95 time=0
EXTRACT: note_off channel=8 note=23 velocity=95 time=0
EXTRACT: note_off channel=9 note=36 velocity=95 time=0
EXTRACT: note_on channel=9 note=28 velocity=95 time=0
EXTRACT: note_on channel=9 note=39 velocity=95 time=0
EXTRACT: note_on channel=3 note=63 velocity=47 time=0.033482125
EXTRACT: note_on channel=3 note=59 velocity=95 time=0
EXTRACT: note_off channel=0 note=66 velocity=95 time=0.234374875
EXTRACT: note_on channel=0 note=59 velocity=95 time=0
EXTRACT: note_off channel=2 note=66 velocity=95 time=0
EXTRACT: note_on channel=2 note=59 velocity=95 time=0
EXTRACT: note_on channel=7 note=33 velocity=95 time=0
EXTRACT: note_on channel=8 note=23 velocity=95 time=0
EXTRACT: note_on channel=10 note=40 velocity=95 time=0
EXTRACT: note_off channel=9 note=28 velocity=95 time=0
EXTRACT: note_off channel=9 note=39 velocity=95 time=0
EXTRACT: note_on channel=9 note=36 velocity=95 time=0
EXTRACT: note_off channel=10 note=40 velocity=95 time=0.06696425
EXTRACT: note_off channel=0 note=59 velocity=95 time=0.20089275
EXTRACT: note_on channel=0 note=58 velocity=70 time=0
EXTRACT: note_off channel=1 note=71 velocity=95 time=0
EXTRACT: note_off channel=1 note=66 velocity=95 time=0
EXTRACT: note_off channel=1 note=63 velocity=95 time=0
EXTRACT: note_off channel=1 note=59 velocity=95 time=0
EXTRACT: note_on channel=1 note=70 velocity=95 time=0
EXTRACT: note_on channel=1 note=66 velocity=95 time=0
EXTRACT: note_on channel=1 note=63 velocity=95 time=0
EXTRACT: note_on channel=1 note=58 velocity=95 time=0
EXTRACT: note_off channel=2 note=59 velocity=95 time=0
EXTRACT: note_on channel=2 note=58 velocity=70 time=0
EXTRACT: note_off channel=4 note=63 velocity=47 time=0
EXTRACT: note_off channel=4 note=59 velocity=95 time=0
EXTRACT: note_on channel=4 note=61 velocity=47 time=0
EXTRACT: note_on channel=4 note=58 velocity=95 time=0
EXTRACT: note_off channel=9 note=36 velocity=95 time=0
EXTRACT: note_off channel=3 note=63 velocity=47 time=0.033482125
EXTRACT: note_off channel=3 note=59 velocity=95 time=0
EXTRACT: note_on channel=3 note=61 velocity=47 time=0
EXTRACT: note_on channel=3 note=58 velocity=95 time=0
EXTRACT: note_off channel=0 note=58 velocity=70 time=0.234374875
EXTRACT: note_on channel=0 note=63 velocity=95 time=0
EXTRACT: note_off channel=2 note=58 velocity=70 time=0
EXTRACT: note_on channel=2 note=63 velocity=95 time=0
EXTRACT: note_off channel=5 note=64 velocity=95 time=0
EXTRACT: note_off channel=5 note=59 velocity=95 time=0
EXTRACT: note_off channel=5 note=55 velocity=95 time=0
EXTRACT: note_off channel=5 note=50 velocity=95 time=0
EXTRACT: note_off channel=7 note=33 velocity=95 time=0
EXTRACT: note_on channel=7 note=33 velocity=95 time=0
EXTRACT: note_off channel=8 note=23 velocity=95 time=0
EXTRACT: note_on channel=8 note=23 velocity=95 time=0
EXTRACT: note_on channel=10 note=40 velocity=95 time=0
EXTRACT: note_on channel=9 note=36 velocity=95 time=0
EXTRACT: note_off channel=10 note=40 velocity=95 time=0.06696425
EXTRACT: note_off channel=0 note=63 velocity=95 time=0.20089275
EXTRACT: note_off channel=2 note=63 velocity=95 time=0
EXTRACT: note_off channel=4 note=61 velocity=47 time=0
EXTRACT: note_off channel=4 note=58 velocity=95 time=0
EXTRACT: pitchwheel channel=4 pitch=0 time=0
EXTRACT: note_on channel=4 note=62 velocity=95 time=0
EXTRACT: note_on channel=5 note=64 velocity=95 time=0
EXTRACT: note_on channel=5 note=59 velocity=95 time=0
EXTRACT: note_on channel=5 note=55 velocity=95 time=0
EXTRACT: note_on channel=5 note=50 velocity=95 time=0
EXTRACT: note_off channel=7 note=33 velocity=95 time=0
EXTRACT: note_off channel=9 note=36 velocity=95 time=0
EXTRACT: note_on channel=9 note=28 velocity=95 time=0
EXTRACT: note_on channel=9 note=39 velocity=95 time=0
EXTRACT: note_off channel=3 note=61 velocity=47 time=0.033482125
EXTRACT: note_off channel=3 note=58 velocity=95 time=0
EXTRACT: pitchwheel channel=3 pitch=0 time=0
EXTRACT: note_on channel=3 note=63 velocity=95 time=0
EXTRACT: pitchwheel channel=4 pitch=128 time=0.013392850000000001
EXTRACT: pitchwheel channel=3 pitch=128 time=0.033482125
EXTRACT: pitchwheel channel=4 pitch=256 time=0.013392850000000001
EXTRACT: pitchwheel channel=3 pitch=256 time=0.033482125
EXTRACT: pitchwheel channel=4 pitch=384 time=0.013392850000000001
EXTRACT: pitchwheel channel=3 pitch=384 time=0.033482125
EXTRACT: pitchwheel channel=4 pitch=512 time=0.013392850000000001
EXTRACT: pitchwheel channel=3 pitch=512 time=0.033482125
EXTRACT: pitchwheel channel=4 pitch=640 time=0.013392850000000001
EXTRACT: pitchwheel channel=4 pitch=640 time=0
EXTRACT: pitchwheel channel=4 pitch=0 time=0
EXTRACT: note_off channel=4 note=62 velocity=95 time=0
EXTRACT: note_on channel=0 note=58 velocity=95 time=0.033482125
EXTRACT: note_on channel=2 note=58 velocity=95 time=0
EXTRACT: pitchwheel channel=3 pitch=640 time=0
EXTRACT: pitchwheel channel=3 pitch=640 time=0
EXTRACT: pitchwheel channel=3 pitch=0 time=0
EXTRACT: note_off channel=3 note=63 velocity=95 time=0
EXTRACT: pitchwheel channel=4 pitch=0 time=0
EXTRACT: note_on channel=4 note=63 velocity=95 time=0
EXTRACT: note_off channel=8 note=23 velocity=95 time=0
EXTRACT: pitchwheel channel=4 pitch=128 time=0.023995522916666668
EXTRACT: pitchwheel channel=3 pitch=0 time=0.009486602083333334
EXTRACT: note_on channel=3 note=64 velocity=95 time=0
EXTRACT: pitchwheel channel=4 pitch=256 time=0.014508920833333334
EXTRACT: pitchwheel channel=3 pitch=128 time=0.009486602083333334
EXTRACT: pitchwheel channel=4 pitch=384 time=0.014508920833333334
EXTRACT: pitchwheel channel=3 pitch=256 time=0.009486602083333334
EXTRACT: pitchwheel channel=4 pitch=512 time=0.014508920833333334
EXTRACT: pitchwheel channel=3 pitch=384 time=0.009486602083333334
EXTRACT: pitchwheel channel=4 pitch=640 time=0.014508920833333334
EXTRACT: pitchwheel channel=3 pitch=512 time=0.009486602083333334
EXTRACT: pitchwheel channel=4 pitch=768 time=0.014508920833333334
EXTRACT: pitchwheel channel=3 pitch=640 time=0.009486602083333334
EXTRACT: pitchwheel channel=4 pitch=896 time=0.014508920833333334
EXTRACT: pitchwheel channel=3 pitch=768 time=0.009486602083333334
EXTRACT: pitchwheel channel=4 pitch=1024 time=0.014508920833333334
EXTRACT: pitchwheel channel=3 pitch=896 time=0.009486602083333334
EXTRACT: pitchwheel channel=4 pitch=1152 time=0.014508920833333334
EXTRACT: pitchwheel channel=3 pitch=1024 time=0.009486602083333334
EXTRACT: pitchwheel channel=4 pitch=1280 time=0.014508920833333334
EXTRACT: pitchwheel channel=3 pitch=1152 time=0.009486602083333334
EXTRACT: pitchwheel channel=4 pitch=1408 time=0.014508920833333334
EXTRACT: note_off channel=0 note=58 velocity=95 time=0.003906247916666667
EXTRACT: note_on channel=0 note=59 velocity=70 time=0
EXTRACT: note_off channel=1 note=70 velocity=95 time=0
EXTRACT: note_off channel=1 note=66 velocity=95 time=0
EXTRACT: note_off channel=1 note=63 velocity=95 time=0
EXTRACT: note_off channel=1 note=58 velocity=95 time=0
EXTRACT: note_on channel=1 note=71 velocity=95 time=0
EXTRACT: note_on channel=1 note=66 velocity=95 time=0
EXTRACT: note_on channel=1 note=63 velocity=95 time=0
EXTRACT: note_on channel=1 note=59 velocity=95 time=0
EXTRACT: note_off channel=2 note=58 velocity=95 time=0
EXTRACT: note_on channel=2 note=59 velocity=70 time=0
EXTRACT: pitchwheel channel=4 pitch=1408 time=0
EXTRACT: pitchwheel channel=4 pitch=0 time=0
EXTRACT: note_off channel=4 note=63 velocity=95 time=0
EXTRACT: pitchwheel channel=4 pitch=0 time=0
EXTRACT: note_on channel=4 note=59 velocity=95 time=0
EXTRACT: note_on channel=7 note=33 velocity=95 time=0
EXTRACT: note_on channel=8 note=23 velocity=95 time=0
EXTRACT: note_on channel=10 note=40 velocity=95 time=0
EXTRACT: note_off channel=9 note=28 velocity=95 time=0
EXTRACT: note_off channel=9 note=39 velocity=95 time=0
EXTRACT: note_on channel=9 note=36 velocity=95 time=0
EXTRACT: pitchwheel channel=3 pitch=1280 time=0.005580354166666667
EXTRACT: pitchwheel channel=4 pitch=-128 time=0.012276779166666666
EXTRACT: pitchwheel channel=3 pitch=1408 time=0.01171874375
EXTRACT: pitchwheel channel=3 pitch=1408 time=0.003906247916666667
EXTRACT: pitchwheel channel=3 pitch=0 time=0
EXTRACT: note_off channel=3 note=64 velocity=95 time=0
EXTRACT: pitchwheel channel=3 pitch=0 time=0
EXTRACT: note_on channel=3 note=60 velocity=95 time=0
EXTRACT: pitchwheel channel=4 pitch=-256 time=0.0022321416666666667
EXTRACT: pitchwheel channel=3 pitch=-128 time=0.015624991666666668
EXTRACT: pitchwheel channel=4 pitch=-384 time=0.0022321416666666667
EXTRACT: note_off channel=10 note=40 velocity=95 time=0.013392850000000001
EXTRACT: pitchwheel channel=3 pitch=-256 time=0.0022321416666666667
EXTRACT: pitchwheel channel=4 pitch=-512 time=0.0022321416666666667
EXTRACT: pitchwheel channel=3 pitch=-384 time=0.015624991666666668
EXTRACT: pitchwheel channel=4 pitch=-640 time=0.0022321416666666667
EXTRACT: pitchwheel channel=3 pitch=-512 time=0.015624991666666668
EXTRACT: pitchwheel channel=4 pitch=-768 time=0.0022321416666666667
EXTRACT: pitchwheel channel=3 pitch=-640 time=0.015624991666666668
EXTRACT: pitchwheel channel=4 pitch=-896 time=0.0022321416666666667
EXTRACT: pitchwheel channel=3 pitch=-768 time=0.015624991666666668
EXTRACT: pitchwheel channel=4 pitch=-1024 time=0.0022321416666666667
EXTRACT: pitchwheel channel=3 pitch=-896 time=0.015624991666666668
EXTRACT: pitchwheel channel=4 pitch=-1152 time=0.0022321416666666667
EXTRACT: pitchwheel channel=3 pitch=-1024 time=0.015624991666666668
EXTRACT: pitchwheel channel=4 pitch=-1280 time=0.0022321416666666667
EXTRACT: pitchwheel channel=3 pitch=-1152 time=0.015624991666666668
EXTRACT: pitchwheel channel=4 pitch=-1408 time=0.0022321416666666667
EXTRACT: pitchwheel channel=4 pitch=-1408 time=0.0044642833333333335
EXTRACT: pitchwheel channel=4 pitch=0 time=0
EXTRACT: note_off channel=4 note=59 velocity=95 time=0
EXTRACT: pitchwheel channel=3 pitch=-1280 time=0.011160708333333333
EXTRACT: pitchwheel channel=3 pitch=-1408 time=0.017857133333333334
EXTRACT: pitchwheel channel=3 pitch=-1408 time=0.0044642833333333335
EXTRACT: pitchwheel channel=3 pitch=0 time=0
EXTRACT: note_off channel=3 note=60 velocity=95 time=0
EXTRACT: note_off channel=0 note=59 velocity=70 time=0.033482125
EXTRACT: note_on channel=0 note=63 velocity=95 time=0
EXTRACT: note_off channel=2 note=59 velocity=70 time=0
EXTRACT: note_on channel=2 note=63 velocity=95 time=0
EXTRACT: note_off channel=5 note=64 velocity=95 time=0
EXTRACT: note_off channel=5 note=59 velocity=95 time=0
EXTRACT: note_off channel=5 note=55 velocity=95 time=0
EXTRACT: note_off channel=5 note=50 velocity=95 time=0
EXTRACT: note_off channel=0 note=63 velocity=95 time=0.267857
EXTRACT: note_on channel=0 note=66 velocity=95 time=0
EXTRACT: note_off channel=2 note=63 velocity=95 time=0
EXTRACT: note_on channel=2 note=66 velocity=95 time=0
EXTRACT: pitchwheel channel=4 pitch=0 time=0
EXTRACT: note_on channel=4 note=62 velocity=95 time=0
EXTRACT: note_on channel=5 note=64 velocity=95 time=0
EXTRACT: note_on channel=5 note=59 velocity=95 time=0
EXTRACT: note_on channel=5 note=55 velocity=95 time=0
EXTRACT: note_on channel=5 note=50 velocity=95 time=0
EXTRACT: note_off channel=7 note=33 velocity=95 time=0
EXTRACT: note_off channel=8 note=23 velocity=95 time=0
EXTRACT: note_off channel=9 note=36 velocity=95 time=0
EXTRACT: note_on channel=9 note=28 velocity=95 time=0
EXTRACT: note_on channel=9 note=39 velocity=95 time=0
EXTRACT: pitchwheel channel=3 pitch=0 time=0.033482125
EXTRACT: note_on channel=3 note=63 velocity=95 time=0
EXTRACT: pitchwheel channel=4 pitch=128 time=0.013392850000000001
EXTRACT: pitchwheel channel=3 pitch=128 time=0.033482125
EXTRACT: pitchwheel channel=4 pitch=256 time=0.013392850000000001
EXTRACT: pitchwheel channel=3 pitch=256 time=0.033482125
EXTRACT: pitchwheel channel=4 pitch=384 time=0.013392850000000001
EXTRACT: pitchwheel channel=3 pitch=384 time=0.033482125
EXTRACT: pitchwheel channel=4 pitch=512 time=0.013392850000000001
EXTRACT: pitchwheel channel=3 pitch=512 time=0.033482125
EXTRACT: pitchwheel channel=4 pitch=640 time=0.013392850000000001
EXTRACT: pitchwheel channel=4 pitch=640 time=0
EXTRACT: pitchwheel channel=4 pitch=0 time=0
EXTRACT: note_off channel=4 note=62 velocity=95 time=0
EXTRACT: note_off channel=0 note=66 velocity=95 time=0.033482125
EXTRACT: note_on channel=0 note=59 velocity=95 time=0
EXTRACT: note_off channel=2 note=66 velocity=95 time=0
EXTRACT: note_on channel=2 note=59 velocity=95 time=0
EXTRACT: pitchwheel channel=3 pitch=640 time=0
EXTRACT: pitchwheel channel=3 pitch=640 time=0
EXTRACT: pitchwheel channel=3 pitch=0 time=0
EXTRACT: note_off channel=3 note=63 velocity=95 time=0
EXTRACT: pitchwheel channel=4 pitch=0 time=0
EXTRACT: note_on channel=4 note=63 velocity=95 time=0
EXTRACT: note_on channel=7 note=33 velocity=95 time=0
EXTRACT: note_on channel=8 note=23 velocity=95 time=0
EXTRACT: note_on channel=10 note=40 velocity=95 time=0
EXTRACT: note_off channel=9 note=28 velocity=95 time=0
EXTRACT: note_off channel=9 note=39 velocity=95 time=0
EXTRACT: note_on channel=9 note=36 velocity=95 time=0
EXTRACT: pitchwheel channel=4 pitch=128 time=0.023995522916666668
EXTRACT: pitchwheel channel=3 pitch=0 time=0.009486602083333334
EXTRACT: note_on channel=3 note=64 velocity=95 time=0
EXTRACT: pitchwheel channel=4 pitch=256 time=0.014508920833333334
EXTRACT: pitchwheel channel=3 pitch=128 time=0.009486602083333334
EXTRACT: note_off channel=10 note=40 velocity=95 time=0.009486602083333334
EXTRACT: pitchwheel channel=4 pitch=384 time=0.00502231875
EXTRACT: pitchwheel channel=3 pitch=256 time=0.009486602083333334
EXTRACT: pitchwheel channel=4 pitch=512 time=0.014508920833333334
EXTRACT: pitchwheel channel=3 pitch=384 time=0.009486602083333334
EXTRACT: pitchwheel channel=4 pitch=640 time=0.014508920833333334
EXTRACT: pitchwheel channel=3 pitch=512 time=0.009486602083333334
EXTRACT: pitchwheel channel=4 pitch=768 time=0.014508920833333334
EXTRACT: pitchwheel channel=3 pitch=640 time=0.009486602083333334
EXTRACT: pitchwheel channel=4 pitch=896 time=0.014508920833333334
EXTRACT: pitchwheel channel=3 pitch=768 time=0.009486602083333334
EXTRACT: pitchwheel channel=4 pitch=1024 time=0.014508920833333334
EXTRACT: pitchwheel channel=3 pitch=896 time=0.009486602083333334
EXTRACT: pitchwheel channel=4 pitch=1152 time=0.014508920833333334
EXTRACT: pitchwheel channel=3 pitch=1024 time=0.009486602083333334
EXTRACT: pitchwheel channel=4 pitch=1280 time=0.014508920833333334
EXTRACT: pitchwheel channel=3 pitch=1152 time=0.009486602083333334
EXTRACT: pitchwheel channel=4 pitch=1408 time=0.014508920833333334
EXTRACT: note_off channel=0 note=59 velocity=95 time=0.003906247916666667
EXTRACT: note_on channel=0 note=58 velocity=70 time=0
EXTRACT: note_off channel=1 note=71 velocity=95 time=0
EXTRACT: note_off channel=1 note=66 velocity=95 time=0
EXTRACT: note_off channel=1 note=63 velocity=95 time=0
EXTRACT: note_off channel=1 note=59 velocity=95 time=0
EXTRACT: note_on channel=1 note=70 velocity=95 time=0
EXTRACT: note_on channel=1 note=66 velocity=95 time=0
EXTRACT: note_on channel=1 note=63 velocity=95 time=0
EXTRACT: note_on channel=1 note=58 velocity=95 time=0
EXTRACT: note_off channel=2 note=59 velocity=95 time=0
EXTRACT: note_on channel=2 note=58 velocity=70 time=0
EXTRACT: pitchwheel channel=4 pitch=1408 time=0
EXTRACT: pitchwheel channel=4 pitch=0 time=0
EXTRACT: note_off channel=4 note=63 velocity=95 time=0
EXTRACT: pitchwheel channel=4 pitch=0 time=0
EXTRACT: note_on channel=4 note=59 velocity=95 time=0
EXTRACT: pitchwheel channel=6 pitch=0 time=0
EXTRACT: note_on channel=6 note=53 velocity=95 time=0
EXTRACT: pitchwheel channel=6 pitch=0 time=0
EXTRACT: note_on channel=6 note=53 velocity=95 time=0
EXTRACT: note_off channel=9 note=36 velocity=95 time=0
EXTRACT: pitchwheel channel=3 pitch=1280 time=0.005580354166666667
EXTRACT: pitchwheel channel=6 pitch=-128 time=0.010602672916666667
EXTRACT: pitchwheel channel=6 pitch=-128 time=0
EXTRACT: pitchwheel channel=4 pitch=-128 time=0.0016741062500000002
EXTRACT: pitchwheel channel=3 pitch=1408 time=0.01171874375
EXTRACT: pitchwheel channel=6 pitch=-256 time=0.0027901770833333333
EXTRACT: pitchwheel channel=6 pitch=-256 time=0
EXTRACT: pitchwheel channel=3 pitch=1408 time=0.0011160708333333334
EXTRACT: pitchwheel channel=3 pitch=0 time=0
EXTRACT: note_off channel=3 note=64 velocity=95 time=0
EXTRACT: pitchwheel channel=3 pitch=0 time=0
EXTRACT: note_on channel=3 note=60 velocity=95 time=0
EXTRACT: pitchwheel channel=4 pitch=-256 time=0.0022321416666666667
EXTRACT: pitchwheel channel=6 pitch=-384 time=0.012834814583333333
EXTRACT: pitchwheel channel=6 pitch=-384 time=0
EXTRACT: pitchwheel channel=3 pitch=-128 time=0.0027901770833333333
EXTRACT: pitchwheel channel=4 pitch=-384 time=0.0022321416666666667
EXTRACT: pitchwheel channel=6 pitch=-512 time=0.011160708333333333
EXTRACT: pitchwheel channel=6 pitch=-512 time=0
EXTRACT: pitchwheel channel=3 pitch=-256 time=0.0044642833333333335
EXTRACT: pitchwheel channel=4 pitch=-512 time=0.0022321416666666667
EXTRACT: pitchwheel channel=6 pitch=-640 time=0.009486602083333334
EXTRACT: pitchwheel channel=6 pitch=-640 time=0
EXTRACT: pitchwheel channel=3 pitch=-384 time=0.006138389583333333
EXTRACT: pitchwheel channel=4 pitch=-640 time=0.0022321416666666667
EXTRACT: pitchwheel channel=6 pitch=-768 time=0.007812495833333334
EXTRACT: pitchwheel channel=6 pitch=-768 time=0
EXTRACT: pitchwheel channel=3 pitch=-512 time=0.007812495833333334
EXTRACT: pitchwheel channel=4 pitch=-768 time=0.0022321416666666667
EXTRACT: pitchwheel channel=6 pitch=-896 time=0.006138389583333333
EXTRACT: pitchwheel channel=6 pitch=-896 time=0
EXTRACT: pitchwheel channel=3 pitch=-640 time=0.009486602083333334
EXTRACT: pitchwheel channel=4 pitch=-896 time=0.0022321416666666667
EXTRACT: pitchwheel channel=6 pitch=-1024 time=0.0044642833333333335
EXTRACT: pitchwheel channel=6 pitch=-1024 time=0
EXTRACT: pitchwheel channel=3 pitch=-768 time=0.011160708333333333
EXTRACT: pitchwheel channel=4 pitch=-1024 time=0.0022321416666666667
EXTRACT: pitchwheel channel=6 pitch=-1152 time=0.0027901770833333333
EXTRACT: pitchwheel channel=6 pitch=-1152 time=0
EXTRACT: pitchwheel channel=3 pitch=-896 time=0.012834814583333333
EXTRACT: pitchwheel channel=4 pitch=-1152 time=0.0022321416666666667
EXTRACT: pitchwheel channel=6 pitch=-1280 time=0.0011160708333333334
EXTRACT: pitchwheel channel=6 pitch=-1280 time=0
EXTRACT: pitchwheel channel=3 pitch=-1024 time=0.014508920833333334
EXTRACT: pitchwheel channel=6 pitch=-1408 time=0.0016741062500000002
EXTRACT: pitchwheel channel=6 pitch=-1408 time=0
EXTRACT: pitchwheel channel=4 pitch=-1280 time=0.0005580354166666667
EXTRACT: pitchwheel channel=3 pitch=-1152 time=0.015624991666666668
EXTRACT: pitchwheel channel=6 pitch=-1536 time=0
EXTRACT: pitchwheel channel=6 pitch=-1536 time=0
EXTRACT: pitchwheel channel=4 pitch=-1408 time=0.0022321416666666667
EXTRACT: pitchwheel channel=4 pitch=-1408 time=0.0044642833333333335
EXTRACT: pitchwheel channel=4 pitch=0 time=0
EXTRACT: note_off channel=4 note=59 velocity=95 time=0
EXTRACT: pitchwheel channel=6 pitch=-1664 time=0.009486602083333334
EXTRACT: pitchwheel channel=6 pitch=-1664 time=0
EXTRACT: pitchwheel channel=3 pitch=-1280 time=0.0016741062500000002
EXTRACT: pitchwheel channel=6 pitch=-1792 time=0.014508920833333334
EXTRACT: pitchwheel channel=6 pitch=-1792 time=0
EXTRACT: pitchwheel channel=3 pitch=-1408 time=0.0033482125000000003
EXTRACT: pitchwheel channel=3 pitch=-1408 time=0.0044642833333333335
EXTRACT: pitchwheel channel=3 pitch=0 time=0
EXTRACT: note_off channel=3 note=60 velocity=95 time=0
EXTRACT: pitchwheel channel=6 pitch=-1920 time=0.00837053125
EXTRACT: pitchwheel channel=6 pitch=-1920 time=0
EXTRACT: pitchwheel channel=6 pitch=-2048 time=0.016183027083333332
EXTRACT: pitchwheel channel=6 pitch=-2048 time=0
EXTRACT: note_off channel=0 note=58 velocity=70 time=0.008928566666666667
EXTRACT: note_on channel=0 note=63 velocity=95 time=0
EXTRACT: note_off channel=2 note=58 velocity=70 time=0
EXTRACT: note_on channel=2 note=63 velocity=95 time=0
EXTRACT: note_off channel=5 note=64 velocity=95 time=0
EXTRACT: note_off channel=5 note=59 velocity=95 time=0
EXTRACT: note_off channel=5 note=55 velocity=95 time=0
EXTRACT: note_off channel=5 note=50 velocity=95 time=0
EXTRACT: note_off channel=7 note=33 velocity=95 time=0
EXTRACT: note_on channel=7 note=33 velocity=95 time=0
EXTRACT: note_off channel=8 note=23 velocity=95 time=0
EXTRACT: note_on channel=8 note=23 velocity=95 time=0
EXTRACT: note_on channel=10 note=40 velocity=95 time=0
EXTRACT: note_on channel=9 note=36 velocity=95 time=0
EXTRACT: pitchwheel channel=6 pitch=-2176 time=0.007254460416666667
EXTRACT: pitchwheel channel=6 pitch=-2176 time=0
EXTRACT: pitchwheel channel=6 pitch=-2304 time=0.016183027083333332
EXTRACT: pitchwheel channel=6 pitch=-2304 time=0
EXTRACT: pitchwheel channel=6 pitch=-2432 time=0.016183027083333332
EXTRACT: pitchwheel channel=6 pitch=-2432 time=0
EXTRACT: pitchwheel channel=6 pitch=-2560 time=0.016183027083333332
EXTRACT: pitchwheel channel=6 pitch=-2560 time=0
EXTRACT: note_off channel=10 note=40 velocity=95 time=0.011160708333333333
EXTRACT: pitchwheel channel=6 pitch=-2688 time=0.00502231875
EXTRACT: pitchwheel channel=6 pitch=-2688 time=0
EXTRACT: pitchwheel channel=6 pitch=-2816 time=0.016183027083333332
EXTRACT: pitchwheel channel=6 pitch=-2816 time=0
EXTRACT: pitchwheel channel=6 pitch=-2944 time=0.016183027083333332
EXTRACT: pitchwheel channel=6 pitch=-2944 time=0
EXTRACT: pitchwheel channel=6 pitch=-3072 time=0.016183027083333332
EXTRACT: pitchwheel channel=6 pitch=-3072 time=0
EXTRACT: pitchwheel channel=6 pitch=-3200 time=0.016183027083333332
EXTRACT: pitchwheel channel=6 pitch=-3200 time=0
EXTRACT: pitchwheel channel=6 pitch=-3328 time=0.016183027083333332
EXTRACT: pitchwheel channel=6 pitch=-3328 time=0
EXTRACT: pitchwheel channel=6 pitch=-3456 time=0.016183027083333332
EXTRACT: pitchwheel channel=6 pitch=-3456 time=0
EXTRACT: pitchwheel channel=6 pitch=-3584 time=0.016183027083333332
EXTRACT: pitchwheel channel=6 pitch=-3584 time=0
EXTRACT: pitchwheel channel=6 pitch=-3712 time=0.016183027083333332
EXTRACT: pitchwheel channel=6 pitch=-3712 time=0
EXTRACT: pitchwheel channel=6 pitch=-3840 time=0.016183027083333332
EXTRACT: pitchwheel channel=6 pitch=-3840 time=0
EXTRACT: pitchwheel channel=6 pitch=-3968 time=0.016183027083333332
EXTRACT: pitchwheel channel=6 pitch=-3968 time=0
EXTRACT: pitchwheel channel=6 pitch=-4096 time=0.016183027083333332
EXTRACT: pitchwheel channel=6 pitch=-4096 time=0
EXTRACT: pitchwheel channel=6 pitch=-4224 time=0.016183027083333332
EXTRACT: pitchwheel channel=6 pitch=-4224 time=0
EXTRACT: note_off channel=0 note=63 velocity=95 time=0.0016741062500000002
EXTRACT: note_off channel=2 note=63 velocity=95 time=0
EXTRACT: note_on channel=2 note=46 velocity=127 time=0
EXTRACT: note_on channel=5 note=64 velocity=95 time=0
EXTRACT: note_on channel=5 note=59 velocity=95 time=0
EXTRACT: note_on channel=5 note=55 velocity=95 time=0
EXTRACT: note_on channel=5 note=50 velocity=95 time=0
EXTRACT: note_off channel=7 note=33 velocity=95 time=0
EXTRACT: note_off channel=9 note=36 velocity=95 time=0
EXTRACT: note_on channel=9 note=28 velocity=95 time=0
EXTRACT: note_on channel=9 note=39 velocity=95 time=0
EXTRACT: pitchwheel channel=6 pitch=-4352 time=0.014508920833333334
EXTRACT: pitchwheel channel=6 pitch=-4352 time=0
EXTRACT: pitchwheel channel=6 pitch=-4480 time=0.016183027083333332
EXTRACT: pitchwheel channel=6 pitch=-4480 time=0
EXTRACT: pitchwheel channel=6 pitch=-4608 time=0.016183027083333332
EXTRACT: pitchwheel channel=6 pitch=-4608 time=0
EXTRACT: pitchwheel channel=6 pitch=-4736 time=0.016183027083333332
EXTRACT: pitchwheel channel=6 pitch=-4736 time=0
EXTRACT: pitchwheel channel=6 pitch=-4864 time=0.016183027083333332
EXTRACT: pitchwheel channel=6 pitch=-4864 time=0
EXTRACT: pitchwheel channel=6 pitch=-4992 time=0.016183027083333332
EXTRACT: pitchwheel channel=6 pitch=-4992 time=0
EXTRACT: pitchwheel channel=6 pitch=-5120 time=0.016183027083333332
EXTRACT: pitchwheel channel=6 pitch=-5120 time=0
EXTRACT: pitchwheel channel=6 pitch=-5248 time=0.016183027083333332
EXTRACT: pitchwheel channel=6 pitch=-5248 time=0
EXTRACT: pitchwheel channel=6 pitch=-5376 time=0.016183027083333332
EXTRACT: pitchwheel channel=6 pitch=-5376 time=0
EXTRACT: pitchwheel channel=6 pitch=-5504 time=0.016183027083333332
EXTRACT: pitchwheel channel=6 pitch=-5504 time=0
EXTRACT: pitchwheel channel=6 pitch=-5632 time=0.016183027083333332
EXTRACT: pitchwheel channel=6 pitch=-5632 time=0
EXTRACT: pitchwheel channel=6 pitch=-5760 time=0.016183027083333332
EXTRACT: pitchwheel channel=6 pitch=-5760 time=0
EXTRACT: pitchwheel channel=6 pitch=-5888 time=0.016183027083333332
EXTRACT: pitchwheel channel=6 pitch=-5888 time=0
EXTRACT: pitchwheel channel=6 pitch=-6016 time=0.016183027083333332
EXTRACT: pitchwheel channel=6 pitch=-6016 time=0
EXTRACT: pitchwheel channel=6 pitch=-6144 time=0.016183027083333332
EXTRACT: pitchwheel channel=6 pitch=-6144 time=0
EXTRACT: pitchwheel channel=6 pitch=-6272 time=0.016183027083333332
EXTRACT: pitchwheel channel=6 pitch=-6272 time=0
EXTRACT: note_off channel=8 note=23 velocity=95 time=0.010602672916666667
EXTRACT: pitchwheel channel=6 pitch=-6400 time=0.005580354166666667
EXTRACT: pitchwheel channel=6 pitch=-6400 time=0
EXTRACT: pitchwheel channel=6 pitch=-6528 time=0.016183027083333332
EXTRACT: pitchwheel channel=6 pitch=-6528 time=0
EXTRACT: pitchwheel channel=6 pitch=-6656 time=0.016183027083333332
EXTRACT: pitchwheel channel=6 pitch=-6656 time=0
EXTRACT: pitchwheel channel=6 pitch=-6784 time=0.016183027083333332
EXTRACT: pitchwheel channel=6 pitch=-6784 time=0
EXTRACT: pitchwheel channel=6 pitch=-6912 time=0.016183027083333332
EXTRACT: pitchwheel channel=6 pitch=-6912 time=0
EXTRACT: pitchwheel channel=6 pitch=-7040 time=0.016183027083333332
EXTRACT: pitchwheel channel=6 pitch=-7040 time=0
EXTRACT: pitchwheel channel=6 pitch=-7168 time=0.016183027083333332
EXTRACT: pitchwheel channel=6 pitch=-7168 time=0
EXTRACT: pitchwheel channel=6 pitch=-7296 time=0.016183027083333332
EXTRACT: pitchwheel channel=6 pitch=-7296 time=0
EXTRACT: note_on channel=3 note=58 velocity=95 time=0.015066956250000001
EXTRACT: pitchwheel channel=6 pitch=-7424 time=0.0011160708333333334
EXTRACT: pitchwheel channel=6 pitch=-7424 time=0
EXTRACT: pitchwheel channel=6 pitch=-7552 time=0.016183027083333332
EXTRACT: pitchwheel channel=6 pitch=-7552 time=0
EXTRACT: pitchwheel channel=6 pitch=-7680 time=0.016183027083333332
EXTRACT: pitchwheel channel=6 pitch=-7680 time=0
EXTRACT: pitchwheel channel=6 pitch=-7808 time=0.016183027083333332
EXTRACT: pitchwheel channel=6 pitch=-7808 time=0
EXTRACT: pitchwheel channel=6 pitch=-7936 time=0.016183027083333332
EXTRACT: pitchwheel channel=6 pitch=-7936 time=0
EXTRACT: pitchwheel channel=6 pitch=-8064 time=0.016183027083333332
EXTRACT: pitchwheel channel=6 pitch=-8064 time=0
EXTRACT: pitchwheel channel=6 pitch=-8192 time=0.016183027083333332
EXTRACT: pitchwheel channel=6 pitch=-8192 time=0
EXTRACT: pitchwheel channel=6 pitch=-8192 time=0.016183027083333332
EXTRACT: pitchwheel channel=6 pitch=-8192 time=0
EXTRACT: pitchwheel channel=6 pitch=-8192 time=0.016183027083333332
EXTRACT: pitchwheel channel=6 pitch=-8192 time=0
EXTRACT: note_off channel=1 note=70 velocity=95 time=0.0033482125000000003
EXTRACT: note_off channel=1 note=66 velocity=95 time=0
EXTRACT: note_off channel=1 note=63 velocity=95 time=0
EXTRACT: note_off channel=1 note=58 velocity=95 time=0
EXTRACT: note_off channel=2 note=46 velocity=127 time=0
EXTRACT: note_on channel=2 note=47 velocity=127 time=0
EXTRACT: note_off channel=3 note=58 velocity=95 time=0
EXTRACT: note_on channel=3 note=61 velocity=95 time=0
EXTRACT: pitchwheel channel=6 pitch=-8192 time=0
EXTRACT: pitchwheel channel=6 pitch=0 time=0
EXTRACT: note_off channel=6 note=53 velocity=95 time=0
EXTRACT: pitchwheel channel=6 pitch=-8192 time=0
EXTRACT: pitchwheel channel=6 pitch=0 time=0
EXTRACT: note_off channel=6 note=53 velocity=95 time=0
EXTRACT: note_on channel=7 note=33 velocity=95 time=0
EXTRACT: note_on channel=8 note=23 velocity=95 time=0
EXTRACT: note_on channel=10 note=40 velocity=95 time=0
EXTRACT: note_off channel=9 note=28 velocity=95 time=0
EXTRACT: note_off channel=9 note=39 velocity=95 time=0
EXTRACT: note_on channel=9 note=36 velocity=95 time=0
EXTRACT: note_off channel=10 note=40 velocity=95 time=0.06696425
EXTRACT: note_off channel=2 note=47 velocity=127 time=0.20089275
EXTRACT: note_off channel=3 note=61 velocity=95 time=0
EXTRACT: note_on channel=3 note=63 velocity=95 time=0
EXTRACT: note_off channel=5 note=64 velocity=95 time=0
EXTRACT: note_off channel=5 note=59 velocity=95 time=0
EXTRACT: note_off channel=5 note=55 velocity=95 time=0
EXTRACT: note_off channel=5 note=50 velocity=95 time=0
EXTRACT: note_off channel=3 note=63 velocity=95 time=0.267857
EXTRACT: note_on channel=3 note=63 velocity=95 time=0
EXTRACT: note_on channel=5 note=64 velocity=95 time=0
EXTRACT: note_on channel=5 note=59 velocity=95 time=0
EXTRACT: note_on channel=5 note=55 velocity=95 time=0
EXTRACT: note_on channel=5 note=50 velocity=95 time=0
EXTRACT: note_off channel=7 note=33 velocity=95 time=0
EXTRACT: note_off channel=8 note=23 velocity=95 time=0
EXTRACT: note_off channel=9 note=36 velocity=95 time=0
EXTRACT: note_on channel=9 note=28 velocity=95 time=0
EXTRACT: note_on channel=9 note=39 velocity=95 time=0
EXTRACT: note_off channel=3 note=63 velocity=95 time=0.267857
EXTRACT: note_on channel=3 note=63 velocity=95 time=0
EXTRACT: note_on channel=7 note=33 velocity=95 time=0
EXTRACT: note_on channel=8 note=23 velocity=95 time=0
EXTRACT: note_on channel=10 note=40 velocity=95 time=0
EXTRACT: note_off channel=9 note=28 velocity=95 time=0
EXTRACT: note_off channel=9 note=39 velocity=95 time=0
EXTRACT: note_on channel=9 note=36 velocity=95 time=0
EXTRACT: note_off channel=10 note=40 velocity=95 time=0.06696425
EXTRACT: note_off channel=3 note=63 velocity=95 time=0.06696425
EXTRACT: note_on channel=3 note=63 velocity=95 time=0
EXTRACT: note_off channel=3 note=63 velocity=95 time=0.1339285
EXTRACT: note_on channel=3 note=61 velocity=95 time=0
EXTRACT: note_off channel=9 note=36 velocity=95 time=0
EXTRACT: note_off channel=3 note=61 velocity=95 time=0.267857
EXTRACT: note_on channel=3 note=63 velocity=95 time=0
EXTRACT: note_off channel=5 note=64 velocity=95 time=0
EXTRACT: note_off channel=5 note=59 velocity=95 time=0
EXTRACT: note_off channel=5 note=55 velocity=95 time=0
EXTRACT: note_off channel=5 note=50 velocity=95 time=0
EXTRACT: note_off channel=7 note=33 velocity=95 time=0
EXTRACT: note_on channel=7 note=33 velocity=95 time=0
EXTRACT: note_off channel=8 note=23 velocity=95 time=0
EXTRACT: note_on channel=8 note=23 velocity=95 time=0
EXTRACT: note_on channel=10 note=40 velocity=95 time=0
EXTRACT: note_on channel=9 note=36 velocity=95 time=0
EXTRACT: note_off channel=10 note=40 velocity=95 time=0.06696425
EXTRACT: note_off channel=3 note=63 velocity=95 time=0.20089275
EXTRACT: note_on channel=3 note=63 velocity=95 time=0
EXTRACT: note_on channel=5 note=64 velocity=95 time=0
EXTRACT: note_on channel=5 note=59 velocity=95 time=0
EXTRACT: note_on channel=5 note=55 velocity=95 time=0
EXTRACT: note_on channel=5 note=50 velocity=95 time=0
EXTRACT: note_off channel=7 note=33 velocity=95 time=0
EXTRACT: note_off channel=9 note=36 velocity=95 time=0
EXTRACT: note_on channel=9 note=28 velocity=95 time=0
EXTRACT: note_on channel=9 note=39 velocity=95 time=0
EXTRACT: note_off channel=3 note=63 velocity=95 time=0.267857
EXTRACT: note_on channel=3 note=63 velocity=95 time=0
EXTRACT: note_off channel=8 note=23 velocity=95 time=0
EXTRACT: note_off channel=3 note=63 velocity=95 time=0.1339285
EXTRACT: note_on channel=3 note=63 velocity=95 time=0
EXTRACT: note_off channel=3 note=63 velocity=95 time=0.1339285
EXTRACT: note_on channel=3 note=61 velocity=95 time=0
EXTRACT: note_on channel=7 note=33 velocity=95 time=0
EXTRACT: note_on channel=8 note=23 velocity=95 time=0
EXTRACT: note_on channel=10 note=40 velocity=95 time=0
EXTRACT: note_off channel=9 note=28 velocity=95 time=0
EXTRACT: note_off channel=9 note=39 velocity=95 time=0
EXTRACT: note_on channel=9 note=36 velocity=95 time=0
EXTRACT: note_off channel=10 note=40 velocity=95 time=0.06696425
EXTRACT: note_off channel=3 note=61 velocity=95 time=0.20089275
EXTRACT: note_on channel=3 note=63 velocity=95 time=0
EXTRACT: note_off channel=5 note=64 velocity=95 time=0
EXTRACT: note_off channel=5 note=59 velocity=95 time=0
EXTRACT: note_off channel=5 note=55 velocity=95 time=0
EXTRACT: note_off channel=5 note=50 velocity=95 time=0
EXTRACT: note_off channel=3 note=63 velocity=95 time=0.1339285
EXTRACT: note_on channel=3 note=63 velocity=95 time=0
EXTRACT: note_on channel=5 note=64 velocity=95 time=0.1339285
EXTRACT: note_on channel=5 note=59 velocity=95 time=0
EXTRACT: note_on channel=5 note=55 velocity=95 time=0
EXTRACT: note_on channel=5 note=50 velocity=95 time=0
EXTRACT: note_off channel=7 note=33 velocity=95 time=0
EXTRACT: note_off channel=8 note=23 velocity=95 time=0
EXTRACT: note_off channel=9 note=36 velocity=95 time=0
EXTRACT: note_on channel=9 note=28 velocity=95 time=0
EXTRACT: note_on channel=9 note=39 velocity=95 time=0
EXTRACT: note_on channel=7 note=33 velocity=95 time=0.1339285
EXTRACT: note_on channel=8 note=23 velocity=95 time=0
EXTRACT: note_on channel=10 note=40 velocity=95 time=0
EXTRACT: note_off channel=9 note=28 velocity=95 time=0
EXTRACT: note_off channel=9 note=39 velocity=95 time=0
EXTRACT: note_on channel=9 note=36 velocity=95 time=0
EXTRACT: note_off channel=10 note=40 velocity=95 time=0.06696425
EXTRACT: note_off channel=3 note=63 velocity=95 time=0.06696425
EXTRACT: note_on channel=3 note=63 velocity=95 time=0
EXTRACT: note_off channel=7 note=33 velocity=95 time=0
EXTRACT: note_on channel=7 note=33 velocity=95 time=0
EXTRACT: note_off channel=8 note=23 velocity=95 time=0
EXTRACT: note_on channel=8 note=23 velocity=95 time=0
EXTRACT: note_on channel=10 note=40 velocity=95 time=0
EXTRACT: note_off channel=9 note=36 velocity=95 time=0
EXTRACT: note_on channel=9 note=36 velocity=95 time=0
EXTRACT: note_off channel=10 note=40 velocity=95 time=0.06696425
EXTRACT: note_off channel=3 note=63 velocity=95 time=0.20089275
EXTRACT: note_on channel=3 note=63 velocity=95 time=0
EXTRACT: pitchwheel channel=6 pitch=0 time=0
EXTRACT: note_on channel=6 note=53 velocity=95 time=0
EXTRACT: pitchwheel channel=6 pitch=0 time=0
EXTRACT: note_on channel=6 note=53 velocity=95 time=0
EXTRACT: note_off channel=7 note=33 velocity=95 time=0
EXTRACT: note_off channel=9 note=36 velocity=95 time=0
EXTRACT: pitchwheel channel=6 pitch=-128 time=0.016183027083333332
EXTRACT: pitchwheel channel=6 pitch=-128 time=0
EXTRACT: pitchwheel channel=6 pitch=-256 time=0.016183027083333332
EXTRACT: pitchwheel channel=6 pitch=-256 time=0
EXTRACT: pitchwheel channel=6 pitch=-384 time=0.016183027083333332
EXTRACT: pitchwheel channel=6 pitch=-384 time=0
EXTRACT: pitchwheel channel=6 pitch=-512 time=0.016183027083333332
EXTRACT: pitchwheel channel=6 pitch=-512 time=0
EXTRACT: pitchwheel channel=6 pitch=-640 time=0.016183027083333332
EXTRACT: pitchwheel channel=6 pitch=-640 time=0
EXTRACT: pitchwheel channel=6 pitch=-768 time=0.016183027083333332
EXTRACT: pitchwheel channel=6 pitch=-768 time=0
EXTRACT: pitchwheel channel=6 pitch=-896 time=0.016183027083333332
EXTRACT: pitchwheel channel=6 pitch=-896 time=0
EXTRACT: pitchwheel channel=6 pitch=-1024 time=0.016183027083333332
EXTRACT: pitchwheel channel=6 pitch=-1024 time=0
EXTRACT: pitchwheel channel=6 pitch=-1152 time=0.016183027083333332
EXTRACT: pitchwheel channel=6 pitch=-1152 time=0
EXTRACT: pitchwheel channel=6 pitch=-1280 time=0.016183027083333332
EXTRACT: pitchwheel channel=6 pitch=-1280 time=0
EXTRACT: pitchwheel channel=6 pitch=-1408 time=0.016183027083333332
EXTRACT: pitchwheel channel=6 pitch=-1408 time=0
EXTRACT: pitchwheel channel=6 pitch=-1536 time=0.016183027083333332
EXTRACT: pitchwheel channel=6 pitch=-1536 time=0
EXTRACT: pitchwheel channel=6 pitch=-1664 time=0.016183027083333332
EXTRACT: pitchwheel channel=6 pitch=-1664 time=0
EXTRACT: pitchwheel channel=6 pitch=-1792 time=0.016183027083333332
EXTRACT: pitchwheel channel=6 pitch=-1792 time=0
EXTRACT: pitchwheel channel=6 pitch=-1920 time=0.016183027083333332
EXTRACT: pitchwheel channel=6 pitch=-1920 time=0
EXTRACT: pitchwheel channel=6 pitch=-2048 time=0.016183027083333332
EXTRACT: pitchwheel channel=6 pitch=-2048 time=0
EXTRACT: note_off channel=3 note=63 velocity=95 time=0.008928566666666667
EXTRACT: note_on channel=3 note=63 velocity=95 time=0
EXTRACT: note_off channel=5 note=64 velocity=95 time=0
EXTRACT: note_off channel=5 note=59 velocity=95 time=0
EXTRACT: note_off channel=5 note=55 velocity=95 time=0
EXTRACT: note_off channel=5 note=50 velocity=95 time=0
EXTRACT: note_on channel=7 note=33 velocity=95 time=0
EXTRACT: note_off channel=8 note=23 velocity=95 time=0
EXTRACT: note_on channel=8 note=23 velocity=95 time=0
EXTRACT: note_on channel=10 note=40 velocity=95 time=0
EXTRACT: note_on channel=9 note=36 velocity=95 time=0
EXTRACT: pitchwheel channel=6 pitch=-2176 time=0.007254460416666667
EXTRACT: pitchwheel channel=6 pitch=-2176 time=0
EXTRACT: pitchwheel channel=6 pitch=-2304 time=0.016183027083333332
EXTRACT: pitchwheel channel=6 pitch=-2304 time=0
EXTRACT: pitchwheel channel=6 pitch=-2432 time=0.016183027083333332
EXTRACT: pitchwheel channel=6 pitch=-2432 time=0
EXTRACT: pitchwheel channel=6 pitch=-2560 time=0.016183027083333332
EXTRACT: pitchwheel channel=6 pitch=-2560 time=0
EXTRACT: note_off channel=10 note=40 velocity=95 time=0.011160708333333333
EXTRACT: pitchwheel channel=6 pitch=-2688 time=0.00502231875
EXTRACT: pitchwheel channel=6 pitch=-2688 time=0
EXTRACT: pitchwheel channel=6 pitch=-2816 time=0.016183027083333332
EXTRACT: pitchwheel channel=6 pitch=-2816 time=0
EXTRACT: pitchwheel channel=6 pitch=-2944 time=0.016183027083333332
EXTRACT: pitchwheel channel=6 pitch=-2944 time=0
EXTRACT: pitchwheel channel=6 pitch=-3072 time=0.016183027083333332
EXTRACT: pitchwheel channel=6 pitch=-3072 time=0
EXTRACT: pitchwheel channel=6 pitch=-3200 time=0.016183027083333332
EXTRACT: pitchwheel channel=6 pitch=-3200 time=0
EXTRACT: pitchwheel channel=6 pitch=-3328 time=0.016183027083333332
EXTRACT: pitchwheel channel=6 pitch=-3328 time=0
EXTRACT: pitchwheel channel=6 pitch=-3456 time=0.016183027083333332
EXTRACT: pitchwheel channel=6 pitch=-3456 time=0
EXTRACT: pitchwheel channel=6 pitch=-3584 time=0.016183027083333332
EXTRACT: pitchwheel channel=6 pitch=-3584 time=0
EXTRACT: pitchwheel channel=6 pitch=-3712 time=0.016183027083333332
EXTRACT: pitchwheel channel=6 pitch=-3712 time=0
EXTRACT: pitchwheel channel=6 pitch=-3840 time=0.016183027083333332
EXTRACT: pitchwheel channel=6 pitch=-3840 time=0
EXTRACT: pitchwheel channel=6 pitch=-3968 time=0.016183027083333332
EXTRACT: pitchwheel channel=6 pitch=-3968 time=0
EXTRACT: pitchwheel channel=6 pitch=-4096 time=0.016183027083333332
EXTRACT: pitchwheel channel=6 pitch=-4096 time=0
EXTRACT: pitchwheel channel=6 pitch=-4224 time=0.016183027083333332
EXTRACT: pitchwheel channel=6 pitch=-4224 time=0
EXTRACT: note_off channel=3 note=63 velocity=95 time=0.0016741062500000002
EXTRACT: note_on channel=3 note=71 velocity=47 time=0
EXTRACT: note_on channel=3 note=68 velocity=95 time=0
EXTRACT: note_on channel=5 note=64 velocity=95 time=0
EXTRACT: note_on channel=5 note=59 velocity=95 time=0
EXTRACT: note_on channel=5 note=55 velocity=95 time=0
EXTRACT: note_on channel=5 note=50 velocity=95 time=0
EXTRACT: note_off channel=7 note=33 velocity=95 time=0
EXTRACT: note_off channel=9 note=36 velocity=95 time=0
EXTRACT: note_on channel=9 note=28 velocity=95 time=0
EXTRACT: note_on channel=9 note=39 velocity=95 time=0
EXTRACT: pitchwheel channel=6 pitch=-4352 time=0.014508920833333334
EXTRACT: pitchwheel channel=6 pitch=-4352 time=0
EXTRACT: pitchwheel channel=6 pitch=-4480 time=0.016183027083333332
EXTRACT: pitchwheel channel=6 pitch=-4480 time=0
EXTRACT: pitchwheel channel=6 pitch=-4608 time=0.016183027083333332
EXTRACT: pitchwheel channel=6 pitch=-4608 time=0
EXTRACT: pitchwheel channel=6 pitch=-4736 time=0.016183027083333332
EXTRACT: pitchwheel channel=6 pitch=-4736 time=0
EXTRACT: pitchwheel channel=6 pitch=-4864 time=0.016183027083333332
EXTRACT: pitchwheel channel=6 pitch=-4864 time=0
EXTRACT: pitchwheel channel=6 pitch=-4992 time=0.016183027083333332
EXTRACT: pitchwheel channel=6 pitch=-4992 time=0
EXTRACT: pitchwheel channel=6 pitch=-5120 time=0.016183027083333332
EXTRACT: pitchwheel channel=6 pitch=-5120 time=0
EXTRACT: pitchwheel channel=6 pitch=-5248 time=0.016183027083333332
EXTRACT: pitchwheel channel=6 pitch=-5248 time=0
EXTRACT: pitchwheel channel=6 pitch=-5376 time=0.016183027083333332
EXTRACT: pitchwheel channel=6 pitch=-5376 time=0
EXTRACT: pitchwheel channel=6 pitch=-5504 time=0.016183027083333332
EXTRACT: pitchwheel channel=6 pitch=-5504 time=0
EXTRACT: pitchwheel channel=6 pitch=-5632 time=0.016183027083333332
EXTRACT: pitchwheel channel=6 pitch=-5632 time=0
EXTRACT: pitchwheel channel=6 pitch=-5760 time=0.016183027083333332
EXTRACT: pitchwheel channel=6 pitch=-5760 time=0
EXTRACT: pitchwheel channel=6 pitch=-5888 time=0.016183027083333332
EXTRACT: pitchwheel channel=6 pitch=-5888 time=0
EXTRACT: pitchwheel channel=6 pitch=-6016 time=0.016183027083333332
EXTRACT: pitchwheel channel=6 pitch=-6016 time=0
EXTRACT: pitchwheel channel=6 pitch=-6144 time=0.016183027083333332
EXTRACT: pitchwheel channel=6 pitch=-6144 time=0
EXTRACT: pitchwheel channel=6 pitch=-6272 time=0.016183027083333332
EXTRACT: pitchwheel channel=6 pitch=-6272 time=0
EXTRACT: note_off channel=3 note=71 velocity=47 time=0.010602672916666667
EXTRACT: note_off channel=3 note=68 velocity=95 time=0
EXTRACT: note_on channel=3 note=70 velocity=47 time=0
EXTRACT: note_on channel=3 note=66 velocity=95 time=0
EXTRACT: note_off channel=8 note=23 velocity=95 time=0
EXTRACT: pitchwheel channel=6 pitch=-6400 time=0.005580354166666667
EXTRACT: pitchwheel channel=6 pitch=-6400 time=0
EXTRACT: pitchwheel channel=6 pitch=-6528 time=0.016183027083333332
EXTRACT: pitchwheel channel=6 pitch=-6528 time=0
EXTRACT: pitchwheel channel=6 pitch=-6656 time=0.016183027083333332
EXTRACT: pitchwheel channel=6 pitch=-6656 time=0
EXTRACT: pitchwheel channel=6 pitch=-6784 time=0.016183027083333332
EXTRACT: pitchwheel channel=6 pitch=-6784 time=0
EXTRACT: pitchwheel channel=6 pitch=-6912 time=0.016183027083333332
EXTRACT: pitchwheel channel=6 pitch=-6912 time=0
EXTRACT: pitchwheel channel=6 pitch=-7040 time=0.016183027083333332
EXTRACT: pitchwheel channel=6 pitch=-7040 time=0
EXTRACT: pitchwheel channel=6 pitch=-7168 time=0.016183027083333332
EXTRACT: pitchwheel channel=6 pitch=-7168 time=0
EXTRACT: pitchwheel channel=6 pitch=-7296 time=0.016183027083333332
EXTRACT: pitchwheel channel=6 pitch=-7296 time=0
EXTRACT: pitchwheel channel=6 pitch=-7424 time=0.016183027083333332
EXTRACT: pitchwheel channel=6 pitch=-7424 time=0
EXTRACT: pitchwheel channel=6 pitch=-7552 time=0.016183027083333332
EXTRACT: pitchwheel channel=6 pitch=-7552 time=0
EXTRACT: pitchwheel channel=6 pitch=-7680 time=0.016183027083333332
EXTRACT: pitchwheel channel=6 pitch=-7680 time=0
EXTRACT: pitchwheel channel=6 pitch=-7808 time=0.016183027083333332
EXTRACT: pitchwheel channel=6 pitch=-7808 time=0
EXTRACT: pitchwheel channel=6 pitch=-7936 time=0.016183027083333332
EXTRACT: pitchwheel channel=6 pitch=-7936 time=0
EXTRACT: pitchwheel channel=6 pitch=-8064 time=0.016183027083333332
EXTRACT: pitchwheel channel=6 pitch=-8064 time=0
EXTRACT: pitchwheel channel=6 pitch=-8192 time=0.016183027083333332
EXTRACT: pitchwheel channel=6 pitch=-8192 time=0
EXTRACT: pitchwheel channel=6 pitch=-8192 time=0.016183027083333332
EXTRACT: pitchwheel channel=6 pitch=-8192 time=0
EXTRACT: pitchwheel channel=6 pitch=-8192 time=0.016183027083333332
EXTRACT: pitchwheel channel=6 pitch=-8192 time=0
EXTRACT: note_off channel=3 note=70 velocity=47 time=0.0033482125000000003
EXTRACT: note_off channel=3 note=66 velocity=95 time=0
EXTRACT: pitchwheel channel=6 pitch=-8192 time=0
EXTRACT: pitchwheel channel=6 pitch=0 time=0
EXTRACT: note_off channel=6 note=53 velocity=95 time=0
EXTRACT: pitchwheel channel=6 pitch=-8192 time=0
EXTRACT: pitchwheel channel=6 pitch=0 time=0
EXTRACT: note_off channel=6 note=53 velocity=95 time=0
EXTRACT: note_on channel=7 note=33 velocity=95 time=0
EXTRACT: note_on channel=8 note=23 velocity=95 time=0
EXTRACT: note_on channel=10 note=40 velocity=95 time=0
EXTRACT: note_off channel=9 note=28 velocity=95 time=0
EXTRACT: note_off channel=9 note=39 velocity=95 time=0
EXTRACT: note_on channel=9 note=36 velocity=95 time=0
EXTRACT: note_off channel=10 note=40 velocity=95 time=0.06696425
EXTRACT: note_on channel=3 note=63 velocity=95 time=0.20089275
EXTRACT: note_off channel=5 note=64 velocity=95 time=0
EXTRACT: note_off channel=5 note=59 velocity=95 time=0
EXTRACT: note_off channel=5 note=55 velocity=95 time=0
EXTRACT: note_off channel=5 note=50 velocity=95 time=0
EXTRACT: note_off channel=8 note=23 velocity=95 time=0
EXTRACT: note_on channel=8 note=23 velocity=95 time=0
EXTRACT: note_on channel=10 note=40 velocity=95 time=0
EXTRACT: note_off channel=9 note=36 velocity=95 time=0
EXTRACT: note_on channel=9 note=36 velocity=95 time=0
EXTRACT: note_off channel=10 note=40 velocity=95 time=0.06696425
EXTRACT: note_off channel=3 note=63 velocity=95 time=0.06696425
EXTRACT: note_on channel=3 note=63 velocity=95 time=0
EXTRACT: note_off channel=3 note=63 velocity=95 time=0.1339285
EXTRACT: note_on channel=3 note=63 velocity=95 time=0
EXTRACT: note_on channel=5 note=64 velocity=95 time=0
EXTRACT: note_on channel=5 note=59 velocity=95 time=0
EXTRACT: note_on channel=5 note=55 velocity=95 time=0
EXTRACT: note_on channel=5 note=50 velocity=95 time=0
EXTRACT: note_off channel=7 note=33 velocity=95 time=0
EXTRACT: note_off channel=8 note=23 velocity=95 time=0
EXTRACT: note_off channel=9 note=36 velocity=95 time=0
EXTRACT: note_on channel=9 note=28 velocity=95 time=0
EXTRACT: note_on channel=9 note=39 velocity=95 time=0
EXTRACT: note_off channel=3 note=63 velocity=95 time=0.267857
EXTRACT: note_on channel=3 note=63 velocity=95 time=0
EXTRACT: note_on channel=7 note=33 velocity=95 time=0
EXTRACT: note_on channel=8 note=23 velocity=95 time=0
EXTRACT: note_on channel=10 note=40 velocity=95 time=0
EXTRACT: note_off channel=9 note=28 velocity=95 time=0
EXTRACT: note_off channel=9 note=39 velocity=95 time=0
EXTRACT: note_on channel=9 note=36 velocity=95 time=0
EXTRACT: note_off channel=10 note=40 velocity=95 time=0.06696425
EXTRACT: note_off channel=3 note=63 velocity=95 time=0.06696425
EXTRACT: note_on channel=3 note=63 velocity=95 time=0
EXTRACT: note_off channel=3 note=63 velocity=95 time=0.1339285
EXTRACT: note_on channel=3 note=61 velocity=95 time=0
EXTRACT: note_off channel=9 note=36 velocity=95 time=0
EXTRACT: note_off channel=3 note=61 velocity=95 time=0.267857
EXTRACT: note_on channel=3 note=63 velocity=95 time=0
EXTRACT: note_off channel=5 note=64 velocity=95 time=0
EXTRACT: note_off channel=5 note=59 velocity=95 time=0
EXTRACT: note_off channel=5 note=55 velocity=95 time=0
EXTRACT: note_off channel=5 note=50 velocity=95 time=0
EXTRACT: note_off channel=7 note=33 velocity=95 time=0
EXTRACT: note_on channel=7 note=33 velocity=95 time=0
EXTRACT: note_off channel=8 note=23 velocity=95 time=0
EXTRACT: note_on channel=8 note=23 velocity=95 time=0
EXTRACT: note_on channel=10 note=40 velocity=95 time=0
EXTRACT: note_on channel=9 note=36 velocity=95 time=0
EXTRACT: note_off channel=10 note=40 velocity=95 time=0.06696425
EXTRACT: note_off channel=3 note=63 velocity=95 time=0.20089275
EXTRACT: note_on channel=3 note=63 velocity=95 time=0
EXTRACT: note_on channel=5 note=64 velocity=95 time=0
EXTRACT: note_on channel=5 note=59 velocity=95 time=0
EXTRACT: note_on channel=5 note=55 velocity=95 time=0
EXTRACT: note_on channel=5 note=50 velocity=95 time=0
EXTRACT: note_off channel=7 note=33 velocity=95 time=0
EXTRACT: note_off channel=9 note=36 velocity=95 time=0
EXTRACT: note_on channel=9 note=28 velocity=95 time=0
EXTRACT: note_on channel=9 note=39 velocity=95 time=0
EXTRACT: note_off channel=3 note=63 velocity=95 time=0.1339285
EXTRACT: note_on channel=3 note=63 velocity=95 time=0
EXTRACT: note_off channel=3 note=63 velocity=95 time=0.1339285
EXTRACT: note_on channel=3 note=63 velocity=95 time=0
EXTRACT: note_off channel=8 note=23 velocity=95 time=0
EXTRACT: note_off channel=3 note=63 velocity=95 time=0.267857
EXTRACT: note_on channel=3 note=63 velocity=95 time=0
EXTRACT: note_on channel=7 note=33 velocity=95 time=0
EXTRACT: note_on channel=8 note=23 velocity=95 time=0
EXTRACT: note_on channel=10 note=40 velocity=95 time=0
EXTRACT: note_off channel=9 note=28 velocity=95 time=0
EXTRACT: note_off channel=9 note=39 velocity=95 time=0
EXTRACT: note_on channel=9 note=36 velocity=95 time=0
EXTRACT: note_off channel=10 note=40 velocity=95 time=0.06696425
EXTRACT: note_off channel=3 note=63 velocity=95 time=0.20089275
EXTRACT: note_on channel=3 note=63 velocity=95 time=0
EXTRACT: note_off channel=5 note=64 velocity=95 time=0
EXTRACT: note_off channel=5 note=59 velocity=95 time=0
EXTRACT: note_off channel=5 note=55 velocity=95 time=0
EXTRACT: note_off channel=5 note=50 velocity=95 time=0
EXTRACT: note_off channel=3 note=63 velocity=95 time=0.1339285
EXTRACT: note_on channel=3 note=63 velocity=95 time=0
EXTRACT: note_on channel=5 note=64 velocity=95 time=0.1339285
EXTRACT: note_on channel=5 note=59 velocity=95 time=0
EXTRACT: note_on channel=5 note=55 velocity=95 time=0
EXTRACT: note_on channel=5 note=50 velocity=95 time=0
EXTRACT: note_off channel=7 note=33 velocity=95 time=0
EXTRACT: note_off channel=8 note=23 velocity=95 time=0
EXTRACT: note_off channel=9 note=36 velocity=95 time=0
EXTRACT: note_on channel=9 note=28 velocity=95 time=0
EXTRACT: note_on channel=9 note=39 velocity=95 time=0
EXTRACT: note_off channel=3 note=63 velocity=95 time=0.1339285
EXTRACT: note_on channel=3 note=63 velocity=95 time=0
EXTRACT: note_off channel=3 note=63 velocity=95 time=0.1339285
EXTRACT: note_on channel=3 note=63 velocity=95 time=0
EXTRACT: note_on channel=7 note=33 velocity=95 time=0
EXTRACT: note_on channel=8 note=23 velocity=95 time=0
EXTRACT: note_on channel=10 note=40 velocity=95 time=0
EXTRACT: note_off channel=9 note=28 velocity=95 time=0
EXTRACT: note_off channel=9 note=39 velocity=95 time=0
EXTRACT: note_on channel=9 note=36 velocity=95 time=0
EXTRACT: note_off channel=10 note=40 velocity=95 time=0.06696425
EXTRACT: note_off channel=3 note=63 velocity=95 time=0.20089275
EXTRACT: note_on channel=3 note=63 velocity=95 time=0
EXTRACT: pitchwheel channel=6 pitch=0 time=0
EXTRACT: note_on channel=6 note=53 velocity=95 time=0
EXTRACT: pitchwheel channel=6 pitch=0 time=0
EXTRACT: note_on channel=6 note=53 velocity=95 time=0
EXTRACT: note_off channel=9 note=36 velocity=95 time=0
EXTRACT: pitchwheel channel=6 pitch=-128 time=0.016183027083333332
EXTRACT: pitchwheel channel=6 pitch=-128 time=0
EXTRACT: pitchwheel channel=6 pitch=-256 time=0.016183027083333332
EXTRACT: pitchwheel channel=6 pitch=-256 time=0
EXTRACT: pitchwheel channel=6 pitch=-384 time=0.016183027083333332
EXTRACT: pitchwheel channel=6 pitch=-384 time=0
EXTRACT: pitchwheel channel=6 pitch=-512 time=0.016183027083333332
EXTRACT: pitchwheel channel=6 pitch=-512 time=0
EXTRACT: pitchwheel channel=6 pitch=-640 time=0.016183027083333332
EXTRACT: pitchwheel channel=6 pitch=-640 time=0
EXTRACT: pitchwheel channel=6 pitch=-768 time=0.016183027083333332
EXTRACT: pitchwheel channel=6 pitch=-768 time=0
EXTRACT: pitchwheel channel=6 pitch=-896 time=0.016183027083333332
EXTRACT: pitchwheel channel=6 pitch=-896 time=0
EXTRACT: pitchwheel channel=6 pitch=-1024 time=0.016183027083333332
EXTRACT: pitchwheel channel=6 pitch=-1024 time=0
EXTRACT: pitchwheel channel=6 pitch=-1152 time=0.016183027083333332
EXTRACT: pitchwheel channel=6 pitch=-1152 time=0
EXTRACT: pitchwheel channel=6 pitch=-1280 time=0.016183027083333332
EXTRACT: pitchwheel channel=6 pitch=-1280 time=0
EXTRACT: pitchwheel channel=6 pitch=-1408 time=0.016183027083333332
EXTRACT: pitchwheel channel=6 pitch=-1408 time=0
EXTRACT: pitchwheel channel=6 pitch=-1536 time=0.016183027083333332
EXTRACT: pitchwheel channel=6 pitch=-1536 time=0
EXTRACT: pitchwheel channel=6 pitch=-1664 time=0.016183027083333332
EXTRACT: pitchwheel channel=6 pitch=-1664 time=0
EXTRACT: pitchwheel channel=6 pitch=-1792 time=0.016183027083333332
EXTRACT: pitchwheel channel=6 pitch=-1792 time=0
EXTRACT: pitchwheel channel=6 pitch=-1920 time=0.016183027083333332
EXTRACT: pitchwheel channel=6 pitch=-1920 time=0
EXTRACT: pitchwheel channel=6 pitch=-2048 time=0.016183027083333332
EXTRACT: pitchwheel channel=6 pitch=-2048 time=0
EXTRACT: note_off channel=5 note=64 velocity=95 time=0.008928566666666667
EXTRACT: note_off channel=5 note=59 velocity=95 time=0
EXTRACT: note_off channel=5 note=55 velocity=95 time=0
EXTRACT: note_off channel=5 note=50 velocity=95 time=0
EXTRACT: note_off channel=7 note=33 velocity=95 time=0
EXTRACT: note_on channel=7 note=33 velocity=95 time=0
EXTRACT: note_off channel=8 note=23 velocity=95 time=0
EXTRACT: note_on channel=8 note=23 velocity=95 time=0
EXTRACT: note_on channel=10 note=40 velocity=95 time=0
EXTRACT: note_on channel=9 note=36 velocity=95 time=0
EXTRACT: pitchwheel channel=6 pitch=-2176 time=0.007254460416666667
EXTRACT: pitchwheel channel=6 pitch=-2176 time=0
EXTRACT: pitchwheel channel=6 pitch=-2304 time=0.016183027083333332
EXTRACT: pitchwheel channel=6 pitch=-2304 time=0
EXTRACT: pitchwheel channel=6 pitch=-2432 time=0.016183027083333332
EXTRACT: pitchwheel channel=6 pitch=-2432 time=0
EXTRACT: pitchwheel channel=6 pitch=-2560 time=0.016183027083333332
EXTRACT: pitchwheel channel=6 pitch=-2560 time=0
EXTRACT: note_off channel=10 note=40 velocity=95 time=0.011160708333333333
EXTRACT: pitchwheel channel=6 pitch=-2688 time=0.00502231875
EXTRACT: pitchwheel channel=6 pitch=-2688 time=0
EXTRACT: pitchwheel channel=6 pitch=-2816 time=0.016183027083333332
EXTRACT: pitchwheel channel=6 pitch=-2816 time=0
EXTRACT: pitchwheel channel=6 pitch=-2944 time=0.016183027083333332
EXTRACT: pitchwheel channel=6 pitch=-2944 time=0
EXTRACT: pitchwheel channel=6 pitch=-3072 time=0.016183027083333332
EXTRACT: pitchwheel channel=6 pitch=-3072 time=0
EXTRACT: pitchwheel channel=6 pitch=-3200 time=0.016183027083333332
EXTRACT: pitchwheel channel=6 pitch=-3200 time=0
EXTRACT: pitchwheel channel=6 pitch=-3328 time=0.016183027083333332
EXTRACT: pitchwheel channel=6 pitch=-3328 time=0
EXTRACT: pitchwheel channel=6 pitch=-3456 time=0.016183027083333332
EXTRACT: pitchwheel channel=6 pitch=-3456 time=0
EXTRACT: pitchwheel channel=6 pitch=-3584 time=0.016183027083333332
EXTRACT: pitchwheel channel=6 pitch=-3584 time=0
EXTRACT: pitchwheel channel=6 pitch=-3712 time=0.016183027083333332
EXTRACT: pitchwheel channel=6 pitch=-3712 time=0
EXTRACT: pitchwheel channel=6 pitch=-3840 time=0.016183027083333332
EXTRACT: pitchwheel channel=6 pitch=-3840 time=0
EXTRACT: pitchwheel channel=6 pitch=-3968 time=0.016183027083333332
EXTRACT: pitchwheel channel=6 pitch=-3968 time=0
EXTRACT: pitchwheel channel=6 pitch=-4096 time=0.016183027083333332
EXTRACT: pitchwheel channel=6 pitch=-4096 time=0
EXTRACT: pitchwheel channel=6 pitch=-4224 time=0.016183027083333332
EXTRACT: pitchwheel channel=6 pitch=-4224 time=0
EXTRACT: note_off channel=3 note=63 velocity=95 time=0.0016741062500000002
EXTRACT: note_on channel=5 note=64 velocity=95 time=0
EXTRACT: note_on channel=5 note=59 velocity=95 time=0
EXTRACT: note_on channel=5 note=55 velocity=95 time=0
EXTRACT: note_on channel=5 note=50 velocity=95 time=0
EXTRACT: note_off channel=7 note=33 velocity=95 time=0
EXTRACT: note_off channel=9 note=36 velocity=95 time=0
EXTRACT: note_on channel=9 note=28 velocity=95 time=0
EXTRACT: note_on channel=9 note=39 velocity=95 time=0
EXTRACT: pitchwheel channel=6 pitch=-4352 time=0.014508920833333334
EXTRACT: pitchwheel channel=6 pitch=-4352 time=0
EXTRACT: pitchwheel channel=6 pitch=-4480 time=0.016183027083333332
EXTRACT: pitchwheel channel=6 pitch=-4480 time=0
EXTRACT: pitchwheel channel=6 pitch=-4608 time=0.016183027083333332
EXTRACT: pitchwheel channel=6 pitch=-4608 time=0
EXTRACT: pitchwheel channel=6 pitch=-4736 time=0.016183027083333332
EXTRACT: pitchwheel channel=6 pitch=-4736 time=0
EXTRACT: pitchwheel channel=6 pitch=-4864 time=0.016183027083333332
EXTRACT: pitchwheel channel=6 pitch=-4864 time=0
EXTRACT: pitchwheel channel=6 pitch=-4992 time=0.016183027083333332
EXTRACT: pitchwheel channel=6 pitch=-4992 time=0
EXTRACT: pitchwheel channel=6 pitch=-5120 time=0.016183027083333332
EXTRACT: pitchwheel channel=6 pitch=-5120 time=0
EXTRACT: pitchwheel channel=6 pitch=-5248 time=0.016183027083333332
EXTRACT: pitchwheel channel=6 pitch=-5248 time=0
EXTRACT: pitchwheel channel=6 pitch=-5376 time=0.016183027083333332
EXTRACT: pitchwheel channel=6 pitch=-5376 time=0
EXTRACT: pitchwheel channel=6 pitch=-5504 time=0.016183027083333332
EXTRACT: pitchwheel channel=6 pitch=-5504 time=0
EXTRACT: pitchwheel channel=6 pitch=-5632 time=0.016183027083333332
EXTRACT: pitchwheel channel=6 pitch=-5632 time=0
EXTRACT: pitchwheel channel=6 pitch=-5760 time=0.016183027083333332
EXTRACT: pitchwheel channel=6 pitch=-5760 time=0
EXTRACT: pitchwheel channel=6 pitch=-5888 time=0.016183027083333332
EXTRACT: pitchwheel channel=6 pitch=-5888 time=0
EXTRACT: pitchwheel channel=6 pitch=-6016 time=0.016183027083333332
EXTRACT: pitchwheel channel=6 pitch=-6016 time=0
EXTRACT: pitchwheel channel=6 pitch=-6144 time=0.016183027083333332
EXTRACT: pitchwheel channel=6 pitch=-6144 time=0
EXTRACT: pitchwheel channel=6 pitch=-6272 time=0.016183027083333332
EXTRACT: pitchwheel channel=6 pitch=-6272 time=0
EXTRACT: note_on channel=3 note=58 velocity=95 time=0.010602672916666667
EXTRACT: note_off channel=8 note=23 velocity=95 time=0
EXTRACT: pitchwheel channel=6 pitch=-6400 time=0.005580354166666667
EXTRACT: pitchwheel channel=6 pitch=-6400 time=0
EXTRACT: pitchwheel channel=6 pitch=-6528 time=0.016183027083333332
EXTRACT: pitchwheel channel=6 pitch=-6528 time=0
EXTRACT: pitchwheel channel=6 pitch=-6656 time=0.016183027083333332
EXTRACT: pitchwheel channel=6 pitch=-6656 time=0
EXTRACT: pitchwheel channel=6 pitch=-6784 time=0.016183027083333332
EXTRACT: pitchwheel channel=6 pitch=-6784 time=0
EXTRACT: pitchwheel channel=6 pitch=-6912 time=0.016183027083333332
EXTRACT: pitchwheel channel=6 pitch=-6912 time=0
EXTRACT: pitchwheel channel=6 pitch=-7040 time=0.016183027083333332
EXTRACT: pitchwheel channel=6 pitch=-7040 time=0
EXTRACT: pitchwheel channel=6 pitch=-7168 time=0.016183027083333332
EXTRACT: pitchwheel channel=6 pitch=-7168 time=0
EXTRACT: pitchwheel channel=6 pitch=-7296 time=0.016183027083333332
EXTRACT: pitchwheel channel=6 pitch=-7296 time=0
EXTRACT: pitchwheel channel=6 pitch=-7424 time=0.016183027083333332
EXTRACT: pitchwheel channel=6 pitch=-7424 time=0
EXTRACT: pitchwheel channel=6 pitch=-7552 time=0.016183027083333332
EXTRACT: pitchwheel channel=6 pitch=-7552 time=0
EXTRACT: pitchwheel channel=6 pitch=-7680 time=0.016183027083333332
EXTRACT: pitchwheel channel=6 pitch=-7680 time=0
EXTRACT: pitchwheel channel=6 pitch=-7808 time=0.016183027083333332
EXTRACT: pitchwheel channel=6 pitch=-7808 time=0
EXTRACT: pitchwheel channel=6 pitch=-7936 time=0.016183027083333332
EXTRACT: pitchwheel channel=6 pitch=-7936 time=0
EXTRACT: pitchwheel channel=6 pitch=-8064 time=0.016183027083333332
EXTRACT: pitchwheel channel=6 pitch=-8064 time=0
EXTRACT: pitchwheel channel=6 pitch=-8192 time=0.016183027083333332
EXTRACT: pitchwheel channel=6 pitch=-8192 time=0
EXTRACT: pitchwheel channel=6 pitch=-8192 time=0.016183027083333332
EXTRACT: pitchwheel channel=6 pitch=-8192 time=0
EXTRACT: pitchwheel channel=6 pitch=-8192 time=0.016183027083333332
EXTRACT: pitchwheel channel=6 pitch=-8192 time=0
EXTRACT: note_off channel=3 note=58 velocity=95 time=0.0033482125000000003
EXTRACT: note_on channel=3 note=61 velocity=95 time=0
EXTRACT: pitchwheel channel=6 pitch=-8192 time=0
EXTRACT: pitchwheel channel=6 pitch=0 time=0
EXTRACT: note_off channel=6 note=53 velocity=95 time=0
EXTRACT: pitchwheel channel=6 pitch=-8192 time=0
EXTRACT: pitchwheel channel=6 pitch=0 time=0
EXTRACT: note_off channel=6 note=53 velocity=95 time=0
EXTRACT: note_on channel=7 note=33 velocity=95 time=0
EXTRACT: note_on channel=8 note=23 velocity=95 time=0
EXTRACT: note_on channel=10 note=40 velocity=95 time=0
EXTRACT: note_off channel=9 note=28 velocity=95 time=0
EXTRACT: note_off channel=9 note=39 velocity=95 time=0
EXTRACT: note_on channel=9 note=36 velocity=95 time=0
EXTRACT: note_off channel=10 note=40 velocity=95 time=0.06696425
EXTRACT: note_off channel=3 note=61 velocity=95 time=0.20089275
EXTRACT: note_on channel=3 note=63 velocity=95 time=0
EXTRACT: note_off channel=5 note=64 velocity=95 time=0
EXTRACT: note_off channel=5 note=59 velocity=95 time=0
EXTRACT: note_off channel=5 note=55 velocity=95 time=0
EXTRACT: note_off channel=5 note=50 velocity=95 time=0
EXTRACT: note_off channel=3 note=63 velocity=95 time=0.1339285
EXTRACT: note_on channel=3 note=63 velocity=95 time=0
EXTRACT: note_off channel=3 note=63 velocity=95 time=0.1339285
EXTRACT: note_on channel=3 note=63 velocity=95 time=0
EXTRACT: note_on channel=5 note=64 velocity=95 time=0
EXTRACT: note_on channel=5 note=59 velocity=95 time=0
EXTRACT: note_on channel=5 note=55 velocity=95 time=0
EXTRACT: note_on channel=5 note=50 velocity=95 time=0
EXTRACT: note_off channel=7 note=33 velocity=95 time=0
EXTRACT: note_off channel=8 note=23 velocity=95 time=0
EXTRACT: note_off channel=9 note=36 velocity=95 time=0
EXTRACT: note_on channel=9 note=28 velocity=95 time=0
EXTRACT: note_on channel=9 note=39 velocity=95 time=0
EXTRACT: note_off channel=3 note=63 velocity=95 time=0.267857
EXTRACT: note_on channel=3 note=63 velocity=95 time=0
EXTRACT: note_on channel=7 note=33 velocity=95 time=0
EXTRACT: note_on channel=8 note=23 velocity=95 time=0
EXTRACT: note_on channel=10 note=40 velocity=95 time=0
EXTRACT: note_off channel=9 note=28 velocity=95 time=0
EXTRACT: note_off channel=9 note=39 velocity=95 time=0
EXTRACT: note_on channel=9 note=36 velocity=95 time=0
EXTRACT: note_off channel=10 note=40 velocity=95 time=0.06696425
EXTRACT: note_off channel=3 note=63 velocity=95 time=0.06696425
EXTRACT: note_on channel=3 note=63 velocity=95 time=0
EXTRACT: note_off channel=3 note=63 velocity=95 time=0.1339285
EXTRACT: note_on channel=3 note=61 velocity=95 time=0
EXTRACT: note_off channel=9 note=36 velocity=95 time=0
EXTRACT: note_off channel=3 note=61 velocity=95 time=0.1339285
EXTRACT: note_on channel=3 note=63 velocity=95 time=0
EXTRACT: note_off channel=3 note=63 velocity=95 time=0.1339285
EXTRACT: note_on channel=3 note=63 velocity=95 time=0
EXTRACT: note_off channel=5 note=64 velocity=95 time=0
EXTRACT: note_off channel=5 note=59 velocity=95 time=0
EXTRACT: note_off channel=5 note=55 velocity=95 time=0
EXTRACT: note_off channel=5 note=50 velocity=95 time=0
EXTRACT: note_off channel=7 note=33 velocity=95 time=0
EXTRACT: note_on channel=7 note=33 velocity=95 time=0
EXTRACT: note_off channel=8 note=23 velocity=95 time=0
EXTRACT: note_on channel=8 note=23 velocity=95 time=0
EXTRACT: note_on channel=10 note=40 velocity=95 time=0
EXTRACT: note_on channel=9 note=36 velocity=95 time=0
EXTRACT: note_off channel=10 note=40 velocity=95 time=0.06696425
EXTRACT: note_off channel=3 note=63 velocity=95 time=0.20089275
EXTRACT: note_on channel=3 note=63 velocity=95 time=0
EXTRACT: note_on channel=5 note=64 velocity=95 time=0
EXTRACT: note_on channel=5 note=59 velocity=95 time=0
EXTRACT: note_on channel=5 note=55 velocity=95 time=0
EXTRACT: note_on channel=5 note=50 velocity=95 time=0
EXTRACT: note_off channel=7 note=33 velocity=95 time=0
EXTRACT: note_off channel=9 note=36 velocity=95 time=0
EXTRACT: note_on channel=9 note=28 velocity=95 time=0
EXTRACT: note_on channel=9 note=39 velocity=95 time=0
EXTRACT: note_off channel=3 note=63 velocity=95 time=0.267857
EXTRACT: note_on channel=3 note=63 velocity=95 time=0
EXTRACT: note_off channel=8 note=23 velocity=95 time=0
EXTRACT: note_off channel=3 note=63 velocity=95 time=0.1339285
EXTRACT: note_on channel=3 note=63 velocity=95 time=0
EXTRACT: note_off channel=3 note=63 velocity=95 time=0.1339285
EXTRACT: note_on channel=3 note=61 velocity=95 time=0
EXTRACT: note_on channel=7 note=33 velocity=95 time=0
EXTRACT: note_on channel=8 note=23 velocity=95 time=0
EXTRACT: note_on channel=10 note=40 velocity=95 time=0
EXTRACT: note_off channel=9 note=28 velocity=95 time=0
EXTRACT: note_off channel=9 note=39 velocity=95 time=0
EXTRACT: note_on channel=9 note=36 velocity=95 time=0
EXTRACT: note_off channel=10 note=40 velocity=95 time=0.06696425
EXTRACT: note_off channel=3 note=61 velocity=95 time=0.20089275
EXTRACT: note_on channel=3 note=63 velocity=95 time=0
EXTRACT: note_off channel=5 note=64 velocity=95 time=0
EXTRACT: note_off channel=5 note=59 velocity=95 time=0
EXTRACT: note_off channel=5 note=55 velocity=95 time=0
EXTRACT: note_off channel=5 note=50 velocity=95 time=0
EXTRACT: note_off channel=3 note=63 velocity=95 time=0.267857
EXTRACT: note_on channel=3 note=63 velocity=95 time=0
EXTRACT: note_on channel=5 note=64 velocity=95 time=0
EXTRACT: note_on channel=5 note=59 velocity=95 time=0
EXTRACT: note_on channel=5 note=55 velocity=95 time=0
EXTRACT: note_on channel=5 note=50 velocity=95 time=0
EXTRACT: note_off channel=7 note=33 velocity=95 time=0
EXTRACT: note_off channel=8 note=23 velocity=95 time=0
EXTRACT: note_off channel=9 note=36 velocity=95 time=0
EXTRACT: note_on channel=9 note=28 velocity=95 time=0
EXTRACT: note_on channel=9 note=39 velocity=95 time=0
EXTRACT: note_on channel=7 note=33 velocity=95 time=0.1339285
EXTRACT: note_on channel=8 note=23 velocity=95 time=0
EXTRACT: note_on channel=10 note=40 velocity=95 time=0
EXTRACT: note_off channel=9 note=28 velocity=95 time=0
EXTRACT: note_off channel=9 note=39 velocity=95 time=0
EXTRACT: note_on channel=9 note=36 velocity=95 time=0
EXTRACT: note_off channel=10 note=40 velocity=95 time=0.06696425
EXTRACT: note_off channel=3 note=63 velocity=95 time=0.06696425
EXTRACT: note_on channel=3 note=63 velocity=95 time=0
EXTRACT: note_off channel=7 note=33 velocity=95 time=0
EXTRACT: note_on channel=7 note=33 velocity=95 time=0
EXTRACT: note_off channel=8 note=23 velocity=95 time=0
EXTRACT: note_on channel=8 note=23 velocity=95 time=0
EXTRACT: note_on channel=10 note=40 velocity=95 time=0
EXTRACT: note_off channel=9 note=36 velocity=95 time=0
EXTRACT: note_on channel=9 note=36 velocity=95 time=0
EXTRACT: note_off channel=10 note=40 velocity=95 time=0.06696425
EXTRACT: note_off channel=3 note=63 velocity=95 time=0.06696425
EXTRACT: note_on channel=3 note=63 velocity=95 time=0
EXTRACT: note_off channel=3 note=63 velocity=95 time=0.1339285
EXTRACT: note_on channel=3 note=63 velocity=95 time=0
EXTRACT: pitchwheel channel=6 pitch=0 time=0
EXTRACT: note_on channel=6 note=53 velocity=95 time=0
EXTRACT: pitchwheel channel=6 pitch=0 time=0
EXTRACT: note_on channel=6 note=53 velocity=95 time=0
EXTRACT: note_off channel=7 note=33 velocity=95 time=0
EXTRACT: note_off channel=9 note=36 velocity=95 time=0
EXTRACT: pitchwheel channel=6 pitch=-128 time=0.016183027083333332
EXTRACT: pitchwheel channel=6 pitch=-128 time=0
EXTRACT: pitchwheel channel=6 pitch=-256 time=0.016183027083333332
EXTRACT: pitchwheel channel=6 pitch=-256 time=0
EXTRACT: pitchwheel channel=6 pitch=-384 time=0.016183027083333332
EXTRACT: pitchwheel channel=6 pitch=-384 time=0
EXTRACT: pitchwheel channel=6 pitch=-512 time=0.016183027083333332
EXTRACT: pitchwheel channel=6 pitch=-512 time=0
EXTRACT: pitchwheel channel=6 pitch=-640 time=0.016183027083333332
EXTRACT: pitchwheel channel=6 pitch=-640 time=0
EXTRACT: pitchwheel channel=6 pitch=-768 time=0.016183027083333332
EXTRACT: pitchwheel channel=6 pitch=-768 time=0
EXTRACT: pitchwheel channel=6 pitch=-896 time=0.016183027083333332
EXTRACT: pitchwheel channel=6 pitch=-896 time=0
EXTRACT: pitchwheel channel=6 pitch=-1024 time=0.016183027083333332
EXTRACT: pitchwheel channel=6 pitch=-1024 time=0
EXTRACT: pitchwheel channel=6 pitch=-1152 time=0.016183027083333332
EXTRACT: pitchwheel channel=6 pitch=-1152 time=0
EXTRACT: pitchwheel channel=6 pitch=-1280 time=0.016183027083333332
EXTRACT: pitchwheel channel=6 pitch=-1280 time=0
EXTRACT: pitchwheel channel=6 pitch=-1408 time=0.016183027083333332
EXTRACT: pitchwheel channel=6 pitch=-1408 time=0
EXTRACT: pitchwheel channel=6 pitch=-1536 time=0.016183027083333332
EXTRACT: pitchwheel channel=6 pitch=-1536 time=0
EXTRACT: pitchwheel channel=6 pitch=-1664 time=0.016183027083333332
EXTRACT: pitchwheel channel=6 pitch=-1664 time=0
EXTRACT: pitchwheel channel=6 pitch=-1792 time=0.016183027083333332
EXTRACT: pitchwheel channel=6 pitch=-1792 time=0
EXTRACT: pitchwheel channel=6 pitch=-1920 time=0.016183027083333332
EXTRACT: pitchwheel channel=6 pitch=-1920 time=0
EXTRACT: pitchwheel channel=6 pitch=-2048 time=0.016183027083333332
EXTRACT: pitchwheel channel=6 pitch=-2048 time=0
EXTRACT: note_off channel=3 note=63 velocity=95 time=0.008928566666666667
EXTRACT: note_on channel=3 note=63 velocity=95 time=0
EXTRACT: note_off channel=5 note=64 velocity=95 time=0
EXTRACT: note_off channel=5 note=59 velocity=95 time=0
EXTRACT: note_off channel=5 note=55 velocity=95 time=0
EXTRACT: note_off channel=5 note=50 velocity=95 time=0
EXTRACT: note_on channel=7 note=33 velocity=95 time=0
EXTRACT: note_off channel=8 note=23 velocity=95 time=0
EXTRACT: note_on channel=8 note=23 velocity=95 time=0
EXTRACT: note_on channel=10 note=40 velocity=95 time=0
EXTRACT: note_on channel=9 note=36 velocity=95 time=0
EXTRACT: pitchwheel channel=6 pitch=-2176 time=0.007254460416666667
EXTRACT: pitchwheel channel=6 pitch=-2176 time=0
EXTRACT: pitchwheel channel=6 pitch=-2304 time=0.016183027083333332
EXTRACT: pitchwheel channel=6 pitch=-2304 time=0
EXTRACT: pitchwheel channel=6 pitch=-2432 time=0.016183027083333332
EXTRACT: pitchwheel channel=6 pitch=-2432 time=0
EXTRACT: pitchwheel channel=6 pitch=-2560 time=0.016183027083333332
EXTRACT: pitchwheel channel=6 pitch=-2560 time=0
EXTRACT: note_off channel=10 note=40 velocity=95 time=0.011160708333333333
EXTRACT: pitchwheel channel=6 pitch=-2688 time=0.00502231875
EXTRACT: pitchwheel channel=6 pitch=-2688 time=0
EXTRACT: pitchwheel channel=6 pitch=-2816 time=0.016183027083333332
EXTRACT: pitchwheel channel=6 pitch=-2816 time=0
EXTRACT: pitchwheel channel=6 pitch=-2944 time=0.016183027083333332
EXTRACT: pitchwheel channel=6 pitch=-2944 time=0
EXTRACT: pitchwheel channel=6 pitch=-3072 time=0.016183027083333332
EXTRACT: pitchwheel channel=6 pitch=-3072 time=0
EXTRACT: pitchwheel channel=6 pitch=-3200 time=0.016183027083333332
EXTRACT: pitchwheel channel=6 pitch=-3200 time=0
EXTRACT: pitchwheel channel=6 pitch=-3328 time=0.016183027083333332
EXTRACT: pitchwheel channel=6 pitch=-3328 time=0
EXTRACT: pitchwheel channel=6 pitch=-3456 time=0.016183027083333332
EXTRACT: pitchwheel channel=6 pitch=-3456 time=0
EXTRACT: pitchwheel channel=6 pitch=-3584 time=0.016183027083333332
EXTRACT: pitchwheel channel=6 pitch=-3584 time=0
EXTRACT: pitchwheel channel=6 pitch=-3712 time=0.016183027083333332
EXTRACT: pitchwheel channel=6 pitch=-3712 time=0
EXTRACT: pitchwheel channel=6 pitch=-3840 time=0.016183027083333332
EXTRACT: pitchwheel channel=6 pitch=-3840 time=0
EXTRACT: pitchwheel channel=6 pitch=-3968 time=0.016183027083333332
EXTRACT: pitchwheel channel=6 pitch=-3968 time=0
EXTRACT: pitchwheel channel=6 pitch=-4096 time=0.016183027083333332
EXTRACT: pitchwheel channel=6 pitch=-4096 time=0
EXTRACT: pitchwheel channel=6 pitch=-4224 time=0.016183027083333332
EXTRACT: pitchwheel channel=6 pitch=-4224 time=0
EXTRACT: note_off channel=3 note=63 velocity=95 time=0.0016741062500000002
EXTRACT: note_on channel=3 note=68 velocity=95 time=0
EXTRACT: note_on channel=5 note=64 velocity=95 time=0
EXTRACT: note_on channel=5 note=59 velocity=95 time=0
EXTRACT: note_on channel=5 note=55 velocity=95 time=0
EXTRACT: note_on channel=5 note=50 velocity=95 time=0
EXTRACT: note_off channel=7 note=33 velocity=95 time=0
EXTRACT: note_off channel=9 note=36 velocity=95 time=0
EXTRACT: note_on channel=9 note=28 velocity=95 time=0
EXTRACT: note_on channel=9 note=39 velocity=95 time=0
EXTRACT: pitchwheel channel=6 pitch=-4352 time=0.014508920833333334
EXTRACT: pitchwheel channel=6 pitch=-4352 time=0
EXTRACT: pitchwheel channel=6 pitch=-4480 time=0.016183027083333332
EXTRACT: pitchwheel channel=6 pitch=-4480 time=0
EXTRACT: pitchwheel channel=6 pitch=-4608 time=0.016183027083333332
EXTRACT: pitchwheel channel=6 pitch=-4608 time=0
EXTRACT: pitchwheel channel=6 pitch=-4736 time=0.016183027083333332
EXTRACT: pitchwheel channel=6 pitch=-4736 time=0
EXTRACT: pitchwheel channel=6 pitch=-4864 time=0.016183027083333332
EXTRACT: pitchwheel channel=6 pitch=-4864 time=0
EXTRACT: pitchwheel channel=6 pitch=-4992 time=0.016183027083333332
EXTRACT: pitchwheel channel=6 pitch=-4992 time=0
EXTRACT: pitchwheel channel=6 pitch=-5120 time=0.016183027083333332
EXTRACT: pitchwheel channel=6 pitch=-5120 time=0
EXTRACT: pitchwheel channel=6 pitch=-5248 time=0.016183027083333332
EXTRACT: pitchwheel channel=6 pitch=-5248 time=0
EXTRACT: pitchwheel channel=6 pitch=-5376 time=0.016183027083333332
EXTRACT: pitchwheel channel=6 pitch=-5376 time=0
EXTRACT: pitchwheel channel=6 pitch=-5504 time=0.016183027083333332
EXTRACT: pitchwheel channel=6 pitch=-5504 time=0
EXTRACT: pitchwheel channel=6 pitch=-5632 time=0.016183027083333332
EXTRACT: pitchwheel channel=6 pitch=-5632 time=0
EXTRACT: pitchwheel channel=6 pitch=-5760 time=0.016183027083333332
EXTRACT: pitchwheel channel=6 pitch=-5760 time=0
EXTRACT: pitchwheel channel=6 pitch=-5888 time=0.016183027083333332
EXTRACT: pitchwheel channel=6 pitch=-5888 time=0
EXTRACT: pitchwheel channel=6 pitch=-6016 time=0.016183027083333332
EXTRACT: pitchwheel channel=6 pitch=-6016 time=0
EXTRACT: pitchwheel channel=6 pitch=-6144 time=0.016183027083333332
EXTRACT: pitchwheel channel=6 pitch=-6144 time=0
EXTRACT: pitchwheel channel=6 pitch=-6272 time=0.016183027083333332
EXTRACT: pitchwheel channel=6 pitch=-6272 time=0
EXTRACT: note_off channel=3 note=68 velocity=95 time=0.010602672916666667
EXTRACT: note_on channel=3 note=66 velocity=95 time=0
EXTRACT: note_off channel=8 note=23 velocity=95 time=0
EXTRACT: pitchwheel channel=6 pitch=-6400 time=0.005580354166666667
EXTRACT: pitchwheel channel=6 pitch=-6400 time=0
EXTRACT: pitchwheel channel=6 pitch=-6528 time=0.016183027083333332
EXTRACT: pitchwheel channel=6 pitch=-6528 time=0
EXTRACT: pitchwheel channel=6 pitch=-6656 time=0.016183027083333332
EXTRACT: pitchwheel channel=6 pitch=-6656 time=0
EXTRACT: pitchwheel channel=6 pitch=-6784 time=0.016183027083333332
EXTRACT: pitchwheel channel=6 pitch=-6784 time=0
EXTRACT: pitchwheel channel=6 pitch=-6912 time=0.016183027083333332
EXTRACT: pitchwheel channel=6 pitch=-6912 time=0
EXTRACT: pitchwheel channel=6 pitch=-7040 time=0.016183027083333332
EXTRACT: pitchwheel channel=6 pitch=-7040 time=0
EXTRACT: pitchwheel channel=6 pitch=-7168 time=0.016183027083333332
EXTRACT: pitchwheel channel=6 pitch=-7168 time=0
EXTRACT: pitchwheel channel=6 pitch=-7296 time=0.016183027083333332
EXTRACT: pitchwheel channel=6 pitch=-7296 time=0
EXTRACT: pitchwheel channel=6 pitch=-7424 time=0.016183027083333332
EXTRACT: pitchwheel channel=6 pitch=-7424 time=0
EXTRACT: pitchwheel channel=6 pitch=-7552 time=0.016183027083333332
EXTRACT: pitchwheel channel=6 pitch=-7552 time=0
EXTRACT: pitchwheel channel=6 pitch=-7680 time=0.016183027083333332
EXTRACT: pitchwheel channel=6 pitch=-7680 time=0
EXTRACT: pitchwheel channel=6 pitch=-7808 time=0.016183027083333332
EXTRACT: pitchwheel channel=6 pitch=-7808 time=0
EXTRACT: pitchwheel channel=6 pitch=-7936 time=0.016183027083333332
EXTRACT: pitchwheel channel=6 pitch=-7936 time=0
EXTRACT: pitchwheel channel=6 pitch=-8064 time=0.016183027083333332
EXTRACT: pitchwheel channel=6 pitch=-8064 time=0
EXTRACT: pitchwheel channel=6 pitch=-8192 time=0.016183027083333332
EXTRACT: pitchwheel channel=6 pitch=-8192 time=0
EXTRACT: pitchwheel channel=6 pitch=-8192 time=0.016183027083333332
EXTRACT: pitchwheel channel=6 pitch=-8192 time=0
EXTRACT: pitchwheel channel=6 pitch=-8192 time=0.016183027083333332
EXTRACT: pitchwheel channel=6 pitch=-8192 time=0
EXTRACT: note_on channel=2 note=51 velocity=95 time=0.0033482125000000003
EXTRACT: note_off channel=3 note=66 velocity=95 time=0
EXTRACT: pitchwheel channel=6 pitch=-8192 time=0
EXTRACT: pitchwheel channel=6 pitch=0 time=0
EXTRACT: note_off channel=6 note=53 velocity=95 time=0
EXTRACT: pitchwheel channel=6 pitch=-8192 time=0
EXTRACT: pitchwheel channel=6 pitch=0 time=0
EXTRACT: note_off channel=6 note=53 velocity=95 time=0
EXTRACT: note_on channel=7 note=33 velocity=95 time=0
EXTRACT: note_on channel=8 note=23 velocity=95 time=0
EXTRACT: note_on channel=10 note=40 velocity=95 time=0
EXTRACT: note_off channel=9 note=28 velocity=95 time=0
EXTRACT: note_off channel=9 note=39 velocity=95 time=0
EXTRACT: note_on channel=9 note=36 velocity=95 time=0
EXTRACT: note_off channel=10 note=40 velocity=95 time=0.06696425
EXTRACT: note_off channel=2 note=51 velocity=95 time=0.06696425
EXTRACT: note_on channel=3 note=63 velocity=95 time=0.1339285
EXTRACT: note_off channel=5 note=64 velocity=95 time=0
EXTRACT: note_off channel=5 note=59 velocity=95 time=0
EXTRACT: note_off channel=5 note=55 velocity=95 time=0
EXTRACT: note_off channel=5 note=50 velocity=95 time=0
EXTRACT: note_off channel=8 note=23 velocity=95 time=0
EXTRACT: note_on channel=8 note=23 velocity=95 time=0
EXTRACT: note_on channel=10 note=40 velocity=95 time=0
EXTRACT: note_off channel=9 note=36 velocity=95 time=0
EXTRACT: note_on channel=9 note=36 velocity=95 time=0
EXTRACT: note_off channel=10 note=40 velocity=95 time=0.06696425
EXTRACT: note_on channel=2 note=51 velocity=95 time=0.20089275
EXTRACT: note_off channel=3 note=63 velocity=95 time=0
EXTRACT: note_on channel=3 note=63 velocity=95 time=0
EXTRACT: note_on channel=5 note=64 velocity=95 time=0
EXTRACT: note_on channel=5 note=59 velocity=95 time=0
EXTRACT: note_on channel=5 note=55 velocity=95 time=0
EXTRACT: note_on channel=5 note=50 velocity=95 time=0
EXTRACT: note_off channel=7 note=33 velocity=95 time=0
EXTRACT: note_off channel=8 note=23 velocity=95 time=0
EXTRACT: note_off channel=9 note=36 velocity=95 time=0
EXTRACT: note_on channel=9 note=28 velocity=95 time=0
EXTRACT: note_on channel=9 note=39 velocity=95 time=0
EXTRACT: note_off channel=2 note=51 velocity=95 time=0.1339285
EXTRACT: note_off channel=3 note=63 velocity=95 time=0.1339285
EXTRACT: note_on channel=3 note=63 velocity=95 time=0
EXTRACT: note_on channel=7 note=33 velocity=95 time=0
EXTRACT: note_on channel=8 note=23 velocity=95 time=0
EXTRACT: note_on channel=10 note=40 velocity=95 time=0
EXTRACT: note_off channel=9 note=28 velocity=95 time=0
EXTRACT: note_off channel=9 note=39 velocity=95 time=0
EXTRACT: note_on channel=9 note=36 velocity=95 time=0
EXTRACT: note_off channel=10 note=40 velocity=95 time=0.06696425
EXTRACT: note_off channel=3 note=63 velocity=95 time=0.06696425
EXTRACT: note_on channel=3 note=63 velocity=95 time=0
EXTRACT: note_on channel=2 note=51 velocity=95 time=0.1339285
EXTRACT: note_off channel=3 note=63 velocity=95 time=0
EXTRACT: note_on channel=3 note=61 velocity=95 time=0
EXTRACT: note_off channel=9 note=36 velocity=95 time=0
EXTRACT: note_off channel=2 note=51 velocity=95 time=0.1339285
EXTRACT: note_off channel=3 note=61 velocity=95 time=0.1339285
EXTRACT: note_on channel=3 note=63 velocity=95 time=0
EXTRACT: note_off channel=5 note=64 velocity=95 time=0
EXTRACT: note_off channel=5 note=59 velocity=95 time=0
EXTRACT: note_off channel=5 note=55 velocity=95 time=0
EXTRACT: note_off channel=5 note=50 velocity=95 time=0
EXTRACT: note_off channel=7 note=33 velocity=95 time=0
EXTRACT: note_on channel=7 note=33 velocity=95 time=0
EXTRACT: note_off channel=8 note=23 velocity=95 time=0
EXTRACT: note_on channel=8 note=23 velocity=95 time=0
EXTRACT: note_on channel=10 note=40 velocity=95 time=0
EXTRACT: note_on channel=9 note=36 velocity=95 time=0
EXTRACT: note_off channel=10 note=40 velocity=95 time=0.06696425
EXTRACT: note_off channel=3 note=63 velocity=95 time=0.20089275
EXTRACT: note_on channel=3 note=63 velocity=95 time=0
EXTRACT: note_on channel=5 note=64 velocity=95 time=0
EXTRACT: note_on channel=5 note=59 velocity=95 time=0
EXTRACT: note_on channel=5 note=55 velocity=95 time=0
EXTRACT: note_on channel=5 note=50 velocity=95 time=0
EXTRACT: note_off channel=7 note=33 velocity=95 time=0
EXTRACT: note_off channel=9 note=36 velocity=95 time=0
EXTRACT: note_on channel=9 note=28 velocity=95 time=0
EXTRACT: note_on channel=9 note=39 velocity=95 time=0
EXTRACT: note_off channel=3 note=63 velocity=95 time=0.267857
EXTRACT: note_on channel=3 note=63 velocity=95 time=0
EXTRACT: note_off channel=8 note=23 velocity=95 time=0
EXTRACT: note_on channel=2 note=51 velocity=95 time=0.1339285
EXTRACT: note_off channel=3 note=63 velocity=95 time=0
EXTRACT: note_on channel=3 note=63 velocity=95 time=0
EXTRACT: note_off channel=2 note=51 velocity=95 time=0.1339285
EXTRACT: note_on channel=2 note=51 velocity=95 time=0
EXTRACT: note_off channel=3 note=63 velocity=95 time=0
EXTRACT: note_on channel=3 note=61 velocity=95 time=0
EXTRACT: note_on channel=7 note=33 velocity=95 time=0
EXTRACT: note_on channel=8 note=23 velocity=95 time=0
EXTRACT: note_on channel=10 note=40 velocity=95 time=0
EXTRACT: note_off channel=9 note=28 velocity=95 time=0
EXTRACT: note_off channel=9 note=39 velocity=95 time=0
EXTRACT: note_on channel=9 note=36 velocity=95 time=0
EXTRACT: note_off channel=10 note=40 velocity=95 time=0.06696425
EXTRACT: note_off channel=2 note=51 velocity=95 time=0.06696425
EXTRACT: note_off channel=3 note=61 velocity=95 time=0
EXTRACT: note_on channel=3 note=63 velocity=95 time=0
EXTRACT: note_on channel=2 note=51 velocity=95 time=0.1339285
EXTRACT: note_off channel=3 note=63 velocity=95 time=0
EXTRACT: note_on channel=3 note=63 velocity=95 time=0
EXTRACT: note_off channel=5 note=64 velocity=95 time=0
EXTRACT: note_off channel=5 note=59 velocity=95 time=0
EXTRACT: note_off channel=5 note=55 velocity=95 time=0
EXTRACT: note_off channel=5 note=50 velocity=95 time=0
EXTRACT: note_off channel=2 note=51 velocity=95 time=0.1339285
EXTRACT: note_on channel=2 note=54 velocity=95 time=0.1339285
EXTRACT: note_off channel=3 note=63 velocity=95 time=0
EXTRACT: note_on channel=3 note=63 velocity=95 time=0
EXTRACT: note_on channel=5 note=64 velocity=95 time=0
EXTRACT: note_on channel=5 note=59 velocity=95 time=0
EXTRACT: note_on channel=5 note=55 velocity=95 time=0
EXTRACT: note_on channel=5 note=50 velocity=95 time=0
EXTRACT: note_off channel=7 note=33 velocity=95 time=0
EXTRACT: note_off channel=8 note=23 velocity=95 time=0
EXTRACT: note_off channel=9 note=36 velocity=95 time=0
EXTRACT: note_on channel=9 note=28 velocity=95 time=0
EXTRACT: note_on channel=9 note=39 velocity=95 time=0
EXTRACT: note_off channel=2 note=54 velocity=95 time=0.267857
EXTRACT: note_on channel=2 note=51 velocity=95 time=0
EXTRACT: note_off channel=3 note=63 velocity=95 time=0
EXTRACT: note_on channel=3 note=63 velocity=95 time=0
EXTRACT: note_on channel=7 note=33 velocity=95 time=0
EXTRACT: note_on channel=8 note=23 velocity=95 time=0
EXTRACT: note_on channel=10 note=40 velocity=95 time=0
EXTRACT: note_off channel=9 note=28 velocity=95 time=0
EXTRACT: note_off channel=9 note=39 velocity=95 time=0
EXTRACT: note_on channel=9 note=36 velocity=95 time=0
EXTRACT: note_off channel=10 note=40 velocity=95 time=0.06696425
EXTRACT: note_off channel=2 note=51 velocity=95 time=0.06696425
EXTRACT: note_on channel=2 note=56 velocity=95 time=0
EXTRACT: note_off channel=3 note=63 velocity=95 time=0
EXTRACT: note_on channel=3 note=63 velocity=95 time=0
EXTRACT: note_off channel=2 note=56 velocity=95 time=0.1339285
EXTRACT: pitchwheel channel=6 pitch=0 time=0
EXTRACT: note_on channel=6 note=53 velocity=95 time=0
EXTRACT: pitchwheel channel=6 pitch=0 time=0
EXTRACT: note_on channel=6 note=53 velocity=95 time=0
EXTRACT: note_off channel=9 note=36 velocity=95 time=0
EXTRACT: pitchwheel channel=6 pitch=-128 time=0.016183027083333332
EXTRACT: pitchwheel channel=6 pitch=-128 time=0
EXTRACT: pitchwheel channel=6 pitch=-256 time=0.016183027083333332
EXTRACT: pitchwheel channel=6 pitch=-256 time=0
EXTRACT: pitchwheel channel=6 pitch=-384 time=0.016183027083333332
EXTRACT: pitchwheel channel=6 pitch=-384 time=0
EXTRACT: pitchwheel channel=6 pitch=-512 time=0.016183027083333332
EXTRACT: pitchwheel channel=6 pitch=-512 time=0
EXTRACT: pitchwheel channel=6 pitch=-640 time=0.016183027083333332
EXTRACT: pitchwheel channel=6 pitch=-640 time=0
EXTRACT: pitchwheel channel=6 pitch=-768 time=0.016183027083333332
EXTRACT: pitchwheel channel=6 pitch=-768 time=0
EXTRACT: pitchwheel channel=6 pitch=-896 time=0.016183027083333332
EXTRACT: pitchwheel channel=6 pitch=-896 time=0
EXTRACT: pitchwheel channel=6 pitch=-1024 time=0.016183027083333332
EXTRACT: pitchwheel channel=6 pitch=-1024 time=0
EXTRACT: pitchwheel channel=6 pitch=-1152 time=0.016183027083333332
EXTRACT: pitchwheel channel=6 pitch=-1152 time=0
EXTRACT: pitchwheel channel=6 pitch=-1280 time=0.016183027083333332
EXTRACT: pitchwheel channel=6 pitch=-1280 time=0
EXTRACT: pitchwheel channel=6 pitch=-1408 time=0.016183027083333332
EXTRACT: pitchwheel channel=6 pitch=-1408 time=0
EXTRACT: pitchwheel channel=6 pitch=-1536 time=0.016183027083333332
EXTRACT: pitchwheel channel=6 pitch=-1536 time=0
EXTRACT: pitchwheel channel=6 pitch=-1664 time=0.016183027083333332
EXTRACT: pitchwheel channel=6 pitch=-1664 time=0
EXTRACT: pitchwheel channel=6 pitch=-1792 time=0.016183027083333332
EXTRACT: pitchwheel channel=6 pitch=-1792 time=0
EXTRACT: pitchwheel channel=6 pitch=-1920 time=0.016183027083333332
EXTRACT: pitchwheel channel=6 pitch=-1920 time=0
EXTRACT: pitchwheel channel=6 pitch=-2048 time=0.016183027083333332
EXTRACT: pitchwheel channel=6 pitch=-2048 time=0
EXTRACT: note_off channel=5 note=64 velocity=95 time=0.008928566666666667
EXTRACT: note_off channel=5 note=59 velocity=95 time=0
EXTRACT: note_off channel=5 note=55 velocity=95 time=0
EXTRACT: note_off channel=5 note=50 velocity=95 time=0
EXTRACT: note_off channel=7 note=33 velocity=95 time=0
EXTRACT: note_on channel=7 note=33 velocity=95 time=0
EXTRACT: note_off channel=8 note=23 velocity=95 time=0
EXTRACT: note_on channel=8 note=23 velocity=95 time=0
EXTRACT: note_on channel=10 note=40 velocity=95 time=0
EXTRACT: note_on channel=9 note=36 velocity=95 time=0
EXTRACT: pitchwheel channel=6 pitch=-2176 time=0.007254460416666667
EXTRACT: pitchwheel channel=6 pitch=-2176 time=0
EXTRACT: pitchwheel channel=6 pitch=-2304 time=0.016183027083333332
EXTRACT: pitchwheel channel=6 pitch=-2304 time=0
EXTRACT: pitchwheel channel=6 pitch=-2432 time=0.016183027083333332
EXTRACT: pitchwheel channel=6 pitch=-2432 time=0
EXTRACT: pitchwheel channel=6 pitch=-2560 time=0.016183027083333332
EXTRACT: pitchwheel channel=6 pitch=-2560 time=0
EXTRACT: note_off channel=10 note=40 velocity=95 time=0.011160708333333333
EXTRACT: pitchwheel channel=6 pitch=-2688 time=0.00502231875
EXTRACT: pitchwheel channel=6 pitch=-2688 time=0
EXTRACT: pitchwheel channel=6 pitch=-2816 time=0.016183027083333332
EXTRACT: pitchwheel channel=6 pitch=-2816 time=0
EXTRACT: pitchwheel channel=6 pitch=-2944 time=0.016183027083333332
EXTRACT: pitchwheel channel=6 pitch=-2944 time=0
EXTRACT: pitchwheel channel=6 pitch=-3072 time=0.016183027083333332
EXTRACT: pitchwheel channel=6 pitch=-3072 time=0
EXTRACT: pitchwheel channel=6 pitch=-3200 time=0.016183027083333332
EXTRACT: pitchwheel channel=6 pitch=-3200 time=0
EXTRACT: pitchwheel channel=6 pitch=-3328 time=0.016183027083333332
EXTRACT: pitchwheel channel=6 pitch=-3328 time=0
EXTRACT: pitchwheel channel=6 pitch=-3456 time=0.016183027083333332
EXTRACT: pitchwheel channel=6 pitch=-3456 time=0
EXTRACT: pitchwheel channel=6 pitch=-3584 time=0.016183027083333332
EXTRACT: pitchwheel channel=6 pitch=-3584 time=0
EXTRACT: pitchwheel channel=6 pitch=-3712 time=0.016183027083333332
EXTRACT: pitchwheel channel=6 pitch=-3712 time=0
EXTRACT: pitchwheel channel=6 pitch=-3840 time=0.016183027083333332
EXTRACT: pitchwheel channel=6 pitch=-3840 time=0
EXTRACT: pitchwheel channel=6 pitch=-3968 time=0.016183027083333332
EXTRACT: pitchwheel channel=6 pitch=-3968 time=0
EXTRACT: pitchwheel channel=6 pitch=-4096 time=0.016183027083333332
EXTRACT: pitchwheel channel=6 pitch=-4096 time=0
EXTRACT: pitchwheel channel=6 pitch=-4224 time=0.016183027083333332
EXTRACT: pitchwheel channel=6 pitch=-4224 time=0
EXTRACT: note_off channel=3 note=63 velocity=95 time=0.0016741062500000002
EXTRACT: note_on channel=5 note=64 velocity=95 time=0
EXTRACT: note_on channel=5 note=59 velocity=95 time=0
EXTRACT: note_on channel=5 note=55 velocity=95 time=0
EXTRACT: note_on channel=5 note=50 velocity=95 time=0
EXTRACT: note_off channel=7 note=33 velocity=95 time=0
EXTRACT: note_off channel=9 note=36 velocity=95 time=0
EXTRACT: note_on channel=9 note=28 velocity=95 time=0
EXTRACT: note_on channel=9 note=39 velocity=95 time=0
EXTRACT: pitchwheel channel=6 pitch=-4352 time=0.014508920833333334
EXTRACT: pitchwheel channel=6 pitch=-4352 time=0
EXTRACT: pitchwheel channel=6 pitch=-4480 time=0.016183027083333332
EXTRACT: pitchwheel channel=6 pitch=-4480 time=0
EXTRACT: pitchwheel channel=6 pitch=-4608 time=0.016183027083333332
EXTRACT: pitchwheel channel=6 pitch=-4608 time=0
EXTRACT: pitchwheel channel=6 pitch=-4736 time=0.016183027083333332
EXTRACT: pitchwheel channel=6 pitch=-4736 time=0
EXTRACT: pitchwheel channel=6 pitch=-4864 time=0.016183027083333332
EXTRACT: pitchwheel channel=6 pitch=-4864 time=0
EXTRACT: pitchwheel channel=6 pitch=-4992 time=0.016183027083333332
EXTRACT: pitchwheel channel=6 pitch=-4992 time=0
EXTRACT: pitchwheel channel=6 pitch=-5120 time=0.016183027083333332
EXTRACT: pitchwheel channel=6 pitch=-5120 time=0
EXTRACT: pitchwheel channel=6 pitch=-5248 time=0.016183027083333332
EXTRACT: pitchwheel channel=6 pitch=-5248 time=0
EXTRACT: pitchwheel channel=6 pitch=-5376 time=0.016183027083333332
EXTRACT: pitchwheel channel=6 pitch=-5376 time=0
EXTRACT: pitchwheel channel=6 pitch=-5504 time=0.016183027083333332
EXTRACT: pitchwheel channel=6 pitch=-5504 time=0
EXTRACT: pitchwheel channel=6 pitch=-5632 time=0.016183027083333332
EXTRACT: pitchwheel channel=6 pitch=-5632 time=0
EXTRACT: pitchwheel channel=6 pitch=-5760 time=0.016183027083333332
EXTRACT: pitchwheel channel=6 pitch=-5760 time=0
EXTRACT: pitchwheel channel=6 pitch=-5888 time=0.016183027083333332
EXTRACT: pitchwheel channel=6 pitch=-5888 time=0
EXTRACT: pitchwheel channel=6 pitch=-6016 time=0.016183027083333332
EXTRACT: pitchwheel channel=6 pitch=-6016 time=0
EXTRACT: pitchwheel channel=6 pitch=-6144 time=0.016183027083333332
EXTRACT: pitchwheel channel=6 pitch=-6144 time=0
EXTRACT: pitchwheel channel=6 pitch=-6272 time=0.016183027083333332
EXTRACT: pitchwheel channel=6 pitch=-6272 time=0
EXTRACT: note_off channel=8 note=23 velocity=95 time=0.010602672916666667
EXTRACT: pitchwheel channel=6 pitch=-6400 time=0.005580354166666667
EXTRACT: pitchwheel channel=6 pitch=-6400 time=0
EXTRACT: pitchwheel channel=6 pitch=-6528 time=0.016183027083333332
EXTRACT: pitchwheel channel=6 pitch=-6528 time=0
EXTRACT: pitchwheel channel=6 pitch=-6656 time=0.016183027083333332
EXTRACT: pitchwheel channel=6 pitch=-6656 time=0
EXTRACT: pitchwheel channel=6 pitch=-6784 time=0.016183027083333332
EXTRACT: pitchwheel channel=6 pitch=-6784 time=0
EXTRACT: pitchwheel channel=6 pitch=-6912 time=0.016183027083333332
EXTRACT: pitchwheel channel=6 pitch=-6912 time=0
EXTRACT: pitchwheel channel=6 pitch=-7040 time=0.016183027083333332
EXTRACT: pitchwheel channel=6 pitch=-7040 time=0
EXTRACT: pitchwheel channel=6 pitch=-7168 time=0.016183027083333332
EXTRACT: pitchwheel channel=6 pitch=-7168 time=0
EXTRACT: pitchwheel channel=6 pitch=-7296 time=0.016183027083333332
EXTRACT: pitchwheel channel=6 pitch=-7296 time=0
EXTRACT: pitchwheel channel=6 pitch=-7424 time=0.016183027083333332
EXTRACT: pitchwheel channel=6 pitch=-7424 time=0
EXTRACT: pitchwheel channel=6 pitch=-7552 time=0.016183027083333332
EXTRACT: pitchwheel channel=6 pitch=-7552 time=0
EXTRACT: pitchwheel channel=6 pitch=-7680 time=0.016183027083333332
EXTRACT: pitchwheel channel=6 pitch=-7680 time=0
EXTRACT: pitchwheel channel=6 pitch=-7808 time=0.016183027083333332
EXTRACT: pitchwheel channel=6 pitch=-7808 time=0
EXTRACT: pitchwheel channel=6 pitch=-7936 time=0.016183027083333332
EXTRACT: pitchwheel channel=6 pitch=-7936 time=0
EXTRACT: pitchwheel channel=6 pitch=-8064 time=0.016183027083333332
EXTRACT: pitchwheel channel=6 pitch=-8064 time=0
EXTRACT: pitchwheel channel=6 pitch=-8192 time=0.016183027083333332
EXTRACT: pitchwheel channel=6 pitch=-8192 time=0
EXTRACT: pitchwheel channel=6 pitch=-8192 time=0.016183027083333332
EXTRACT: pitchwheel channel=6 pitch=-8192 time=0
EXTRACT: pitchwheel channel=6 pitch=-8192 time=0.016183027083333332
EXTRACT: pitchwheel channel=6 pitch=-8192 time=0
EXTRACT: note_on channel=1 note=71 velocity=95 time=0.0033482125000000003
EXTRACT: note_on channel=1 note=66 velocity=95 time=0
EXTRACT: note_on channel=1 note=63 velocity=95 time=0
EXTRACT: note_on channel=1 note=59 velocity=95 time=0
EXTRACT: note_on channel=1 note=47 velocity=95 time=0
EXTRACT: pitchwheel channel=3 pitch=0 time=0
EXTRACT: note_on channel=3 note=70 velocity=95 time=0
EXTRACT: pitchwheel channel=6 pitch=-8192 time=0
EXTRACT: pitchwheel channel=6 pitch=0 time=0
EXTRACT: note_off channel=6 note=53 velocity=95 time=0
EXTRACT: pitchwheel channel=6 pitch=-8192 time=0
EXTRACT: pitchwheel channel=6 pitch=0 time=0
EXTRACT: note_off channel=6 note=53 velocity=95 time=0
EXTRACT: note_on channel=7 note=33 velocity=95 time=0
EXTRACT: note_on channel=8 note=23 velocity=95 time=0
EXTRACT: note_on channel=10 note=40 velocity=95 time=0
EXTRACT: note_off channel=9 note=28 velocity=95 time=0
EXTRACT: note_off channel=9 note=39 velocity=95 time=0
EXTRACT: note_on channel=9 note=36 velocity=95 time=0
EXTRACT: pitchwheel channel=4 pitch=0 time=0.033482125
EXTRACT: note_on channel=4 note=70 velocity=95 time=0
EXTRACT: pitchwheel channel=3 pitch=-128 time=0.0027901770833333333
EXTRACT: note_off channel=10 note=40 velocity=95 time=0.030691947916666667
EXTRACT: pitchwheel channel=4 pitch=-128 time=0.0027901770833333333
EXTRACT: pitchwheel channel=3 pitch=-256 time=0.0027901770833333333
EXTRACT: pitchwheel channel=4 pitch=-256 time=0.033482125
EXTRACT: pitchwheel channel=3 pitch=-384 time=0.0027901770833333333
EXTRACT: pitchwheel channel=4 pitch=-384 time=0.033482125
EXTRACT: pitchwheel channel=3 pitch=-512 time=0.0027901770833333333
EXTRACT: pitchwheel channel=4 pitch=-512 time=0.033482125
EXTRACT: pitchwheel channel=3 pitch=-640 time=0.0027901770833333333
EXTRACT: pitchwheel channel=4 pitch=-640 time=0.033482125
EXTRACT: pitchwheel channel=3 pitch=-768 time=0.0027901770833333333
EXTRACT: pitchwheel channel=4 pitch=-768 time=0.033482125
EXTRACT: pitchwheel channel=3 pitch=-896 time=0.0027901770833333333
EXTRACT: note_off channel=5 note=64 velocity=95 time=0.013950885416666668
EXTRACT: note_off channel=5 note=59 velocity=95 time=0
EXTRACT: note_off channel=5 note=55 velocity=95 time=0
EXTRACT: note_off channel=5 note=50 velocity=95 time=0
EXTRACT: pitchwheel channel=4 pitch=-896 time=0.019531239583333335
EXTRACT: pitchwheel channel=3 pitch=-1024 time=0.0027901770833333333
EXTRACT: pitchwheel channel=4 pitch=-1024 time=0.033482125
EXTRACT: pitchwheel channel=3 pitch=-1152 time=0.0027901770833333333
EXTRACT: pitchwheel channel=4 pitch=-1152 time=0.033482125
EXTRACT: pitchwheel channel=3 pitch=-1280 time=0.0027901770833333333
EXTRACT: pitchwheel channel=4 pitch=-1280 time=0.033482125
EXTRACT: pitchwheel channel=3 pitch=-1408 time=0.0027901770833333333
EXTRACT: pitchwheel channel=3 pitch=-1408 time=0.0027901770833333333
EXTRACT: pitchwheel channel=3 pitch=0 time=0
EXTRACT: note_off channel=3 note=70 velocity=95 time=0
EXTRACT: pitchwheel channel=3 pitch=0 time=0
EXTRACT: note_on channel=3 note=68 velocity=95 time=0
EXTRACT: pitchwheel channel=4 pitch=-1408 time=0.030691947916666667
EXTRACT: pitchwheel channel=4 pitch=-1408 time=0.0027901770833333333
EXTRACT: pitchwheel channel=4 pitch=0 time=0
EXTRACT: note_off channel=4 note=70 velocity=95 time=0
EXTRACT: pitchwheel channel=4 pitch=0 time=0
EXTRACT: note_on channel=4 note=68 velocity=95 time=0
EXTRACT: pitchwheel channel=3 pitch=-128 time=0.020089275
EXTRACT: pitchwheel channel=4 pitch=-128 time=0.033482125
EXTRACT: pitchwheel channel=3 pitch=-256 time=0.020089275
EXTRACT: note_on channel=5 note=64 velocity=95 time=0.026785700000000003
EXTRACT: note_on channel=5 note=59 velocity=95 time=0
EXTRACT: note_on channel=5 note=55 velocity=95 time=0
EXTRACT: note_on channel=5 note=50 velocity=95 time=0
EXTRACT: note_off channel=7 note=33 velocity=95 time=0
EXTRACT: note_off channel=8 note=23 velocity=95 time=0
EXTRACT: note_off channel=9 note=36 velocity=95 time=0
EXTRACT: note_on channel=9 note=28 velocity=95 time=0
EXTRACT: note_on channel=9 note=39 velocity=95 time=0
EXTRACT: pitchwheel channel=4 pitch=-256 time=0.006696425000000001
EXTRACT: pitchwheel channel=3 pitch=-384 time=0.020089275
EXTRACT: pitchwheel channel=4 pitch=-384 time=0.033482125
EXTRACT: pitchwheel channel=3 pitch=-512 time=0.020089275
EXTRACT: pitchwheel channel=4 pitch=-512 time=0.033482125
EXTRACT: pitchwheel channel=3 pitch=-640 time=0.020089275
EXTRACT: pitchwheel channel=3 pitch=-640 time=0
EXTRACT: pitchwheel channel=3 pitch=0 time=0
EXTRACT: note_off channel=3 note=68 velocity=95 time=0
EXTRACT: note_on channel=3 note=67 velocity=95 time=0
EXTRACT: pitchwheel channel=4 pitch=-640 time=0.033482125
EXTRACT: pitchwheel channel=4 pitch=-640 time=0
EXTRACT: pitchwheel channel=4 pitch=0 time=0
EXTRACT: note_off channel=4 note=68 velocity=95 time=0
EXTRACT: note_on channel=4 note=67 velocity=95 time=0
EXTRACT: note_off channel=3 note=67 velocity=95 time=0.100446375
EXTRACT: pitchwheel channel=3 pitch=0 time=0
EXTRACT: note_on channel=3 note=67 velocity=95 time=0
EXTRACT: note_on channel=7 note=33 velocity=95 time=0
EXTRACT: note_on channel=8 note=23 velocity=95 time=0
EXTRACT: note_on channel=10 note=40 velocity=95 time=0
EXTRACT: note_off channel=9 note=28 velocity=95 time=0
EXTRACT: note_off channel=9 note=39 velocity=95 time=0
EXTRACT: note_on channel=9 note=36 velocity=95 time=0
EXTRACT: note_off channel=4 note=67 velocity=95 time=0.033482125
EXTRACT: pitchwheel channel=4 pitch=0 time=0
EXTRACT: note_on channel=4 note=67 velocity=95 time=0
EXTRACT: pitchwheel channel=3 pitch=-128 time=0.020089275
EXTRACT: note_off channel=10 note=40 velocity=95 time=0.013392850000000001
EXTRACT: pitchwheel channel=4 pitch=-128 time=0.020089275
EXTRACT: pitchwheel channel=3 pitch=-256 time=0.020089275
EXTRACT: pitchwheel channel=4 pitch=-256 time=0.033482125
EXTRACT: pitchwheel channel=3 pitch=-384 time=0.020089275
EXTRACT: pitchwheel channel=4 pitch=-384 time=0.033482125
EXTRACT: pitchwheel channel=3 pitch=-512 time=0.020089275
EXTRACT: pitchwheel channel=4 pitch=-512 time=0.033482125
EXTRACT: note_off channel=1 note=66 velocity=95 time=0.020089275
EXTRACT: note_off channel=1 note=59 velocity=95 time=0
EXTRACT: note_off channel=1 note=47 velocity=95 time=0
EXTRACT: note_on channel=1 note=70 velocity=95 time=0
EXTRACT: note_on channel=1 note=58 velocity=95 time=0
EXTRACT: note_on channel=1 note=46 velocity=95 time=0
EXTRACT: pitchwheel channel=3 pitch=-640 time=0
EXTRACT: pitchwheel channel=3 pitch=-640 time=0
EXTRACT: pitchwheel channel=3 pitch=0 time=0
EXTRACT: note_off channel=3 note=67 velocity=95 time=0
EXTRACT: pitchwheel channel=3 pitch=256 time=0
EXTRACT: note_on channel=3 note=67 velocity=95 time=0
EXTRACT: note_off channel=9 note=36 velocity=95 time=0
EXTRACT: pitchwheel channel=4 pitch=-640 time=0.033482125
EXTRACT: pitchwheel channel=4 pitch=-640 time=0
EXTRACT: pitchwheel channel=4 pitch=0 time=0
EXTRACT: note_off channel=4 note=67 velocity=95 time=0
EXTRACT: pitchwheel channel=4 pitch=256 time=0
EXTRACT: note_on channel=4 note=67 velocity=95 time=0
EXTRACT: pitchwheel channel=3 pitch=128 time=0.100446375
EXTRACT: pitchwheel channel=4 pitch=128 time=0.033482125
EXTRACT: pitchwheel channel=3 pitch=0 time=0.100446375
EXTRACT: pitchwheel channel=3 pitch=0 time=0
EXTRACT: pitchwheel channel=3 pitch=0 time=0
EXTRACT: note_off channel=3 note=67 velocity=95 time=0
EXTRACT: pitchwheel channel=3 pitch=0 time=0
EXTRACT: note_on channel=3 note=68 velocity=95 time=0
EXTRACT: note_off channel=5 note=64 velocity=95 time=0
EXTRACT: note_off channel=5 note=59 velocity=95 time=0
EXTRACT: note_off channel=5 note=55 velocity=95 time=0
EXTRACT: note_off channel=5 note=50 velocity=95 time=0
EXTRACT: note_off channel=7 note=33 velocity=95 time=0
EXTRACT: note_on channel=7 note=33 velocity=95 time=0
EXTRACT: note_off channel=8 note=23 velocity=95 time=0
EXTRACT: note_on channel=8 note=23 velocity=95 time=0
EXTRACT: note_on channel=10 note=40 velocity=95 time=0
EXTRACT: note_on channel=9 note=36 velocity=95 time=0
EXTRACT: pitchwheel channel=4 pitch=0 time=0.033482125
EXTRACT: pitchwheel channel=4 pitch=0 time=0
EXTRACT: pitchwheel channel=4 pitch=0 time=0
EXTRACT: note_off channel=4 note=67 velocity=95 time=0
EXTRACT: pitchwheel channel=4 pitch=0 time=0
EXTRACT: note_on channel=4 note=68 velocity=95 time=0
EXTRACT: pitchwheel channel=3 pitch=-128 time=0.020089275
EXTRACT: note_off channel=10 note=40 velocity=95 time=0.013392850000000001
EXTRACT: pitchwheel channel=4 pitch=-128 time=0.020089275
EXTRACT: pitchwheel channel=3 pitch=-256 time=0.020089275
EXTRACT: pitchwheel channel=4 pitch=-256 time=0.033482125
EXTRACT: pitchwheel channel=3 pitch=-384 time=0.020089275
EXTRACT: pitchwheel channel=4 pitch=-384 time=0.033482125
EXTRACT: pitchwheel channel=3 pitch=-512 time=0.020089275
EXTRACT: pitchwheel channel=4 pitch=-512 time=0.033482125
EXTRACT: pitchwheel channel=3 pitch=-640 time=0.020089275
EXTRACT: pitchwheel channel=3 pitch=-640 time=0
EXTRACT: pitchwheel channel=3 pitch=0 time=0
EXTRACT: note_off channel=3 note=68 velocity=95 time=0
EXTRACT: pitchwheel channel=3 pitch=0 time=0
EXTRACT: note_on channel=3 note=68 velocity=95 time=0
EXTRACT: note_on channel=5 note=64 velocity=95 time=0
EXTRACT: note_on channel=5 note=59 velocity=95 time=0
EXTRACT: note_on channel=5 note=55 velocity=95 time=0
EXTRACT: note_on channel=5 note=50 velocity=95 time=0
EXTRACT: note_off channel=7 note=33 velocity=95 time=0
EXTRACT: note_off channel=9 note=36 velocity=95 time=0
EXTRACT: note_on channel=9 note=28 velocity=95 time=0
EXTRACT: note_on channel=9 note=39 velocity=95 time=0
EXTRACT: pitchwheel channel=3 pitch=-128 time=0.021205345833333333
EXTRACT: pitchwheel channel=4 pitch=-640 time=0.012276779166666666
EXTRACT: pitchwheel channel=4 pitch=-640 time=0
EXTRACT: pitchwheel channel=4 pitch=0 time=0
EXTRACT: note_off channel=4 note=68 velocity=95 time=0
EXTRACT: pitchwheel channel=4 pitch=0 time=0
EXTRACT: note_on channel=4 note=68 velocity=95 time=0
EXTRACT: pitchwheel channel=3 pitch=-256 time=0.008928566666666667
EXTRACT: pitchwheel channel=4 pitch=-128 time=0.012276779166666666
EXTRACT: pitchwheel channel=3 pitch=-384 time=0.008928566666666667
EXTRACT: pitchwheel channel=4 pitch=-256 time=0.012276779166666666
EXTRACT: pitchwheel channel=3 pitch=-512 time=0.008928566666666667
EXTRACT: pitchwheel channel=4 pitch=-384 time=0.012276779166666666
EXTRACT: pitchwheel channel=3 pitch=-640 time=0.008928566666666667
EXTRACT: pitchwheel channel=4 pitch=-512 time=0.012276779166666666
EXTRACT: pitchwheel channel=3 pitch=-768 time=0.008928566666666667
EXTRACT: pitchwheel channel=4 pitch=-640 time=0.012276779166666666
EXTRACT: pitchwheel channel=3 pitch=-896 time=0.008928566666666667
EXTRACT: pitchwheel channel=4 pitch=-768 time=0.012276779166666666
EXTRACT: pitchwheel channel=3 pitch=-1024 time=0.008928566666666667
EXTRACT: pitchwheel channel=4 pitch=-896 time=0.012276779166666666
EXTRACT: pitchwheel channel=3 pitch=-1152 time=0.008928566666666667
EXTRACT: pitchwheel channel=4 pitch=-1024 time=0.012276779166666666
EXTRACT: pitchwheel channel=3 pitch=-1280 time=0.008928566666666667
EXTRACT: pitchwheel channel=4 pitch=-1152 time=0.012276779166666666
EXTRACT: pitchwheel channel=3 pitch=-1408 time=0.008928566666666667
EXTRACT: pitchwheel channel=3 pitch=-1408 time=0.0011160708333333334
EXTRACT: pitchwheel channel=3 pitch=0 time=0
EXTRACT: note_off channel=3 note=68 velocity=95 time=0
EXTRACT: pitchwheel channel=4 pitch=-1280 time=0.011160708333333333
EXTRACT: pitchwheel channel=4 pitch=-1408 time=0.021205345833333333
EXTRACT: pitchwheel channel=3 pitch=0 time=0.0011160708333333334
EXTRACT: note_on channel=3 note=66 velocity=95 time=0
EXTRACT: pitchwheel channel=4 pitch=-1408 time=0
EXTRACT: pitchwheel channel=4 pitch=0 time=0
EXTRACT: note_off channel=4 note=68 velocity=95 time=0
EXTRACT: note_off channel=8 note=23 velocity=95 time=0
EXTRACT: pitchwheel channel=4 pitch=0 time=0.033482125
EXTRACT: note_on channel=4 note=66 velocity=95 time=0
EXTRACT: pitchwheel channel=3 pitch=128 time=0.033482125
EXTRACT: pitchwheel channel=4 pitch=128 time=0.033482125
EXTRACT: pitchwheel channel=3 pitch=256 time=0.033482125
EXTRACT: pitchwheel channel=3 pitch=256 time=0
EXTRACT: pitchwheel channel=3 pitch=0 time=0
EXTRACT: note_off channel=3 note=66 velocity=95 time=0
EXTRACT: pitchwheel channel=3 pitch=0 time=0
EXTRACT: note_on channel=3 note=66 velocity=95 time=0
EXTRACT: pitchwheel channel=4 pitch=256 time=0.033482125
EXTRACT: pitchwheel channel=4 pitch=256 time=0
EXTRACT: pitchwheel channel=4 pitch=0 time=0
EXTRACT: note_off channel=4 note=66 velocity=95 time=0
EXTRACT: pitchwheel channel=4 pitch=0 time=0
EXTRACT: note_on channel=4 note=66 velocity=95 time=0
EXTRACT: pitchwheel channel=3 pitch=128 time=0.033482125
EXTRACT: pitchwheel channel=4 pitch=128 time=0.033482125
EXTRACT: note_off channel=1 note=71 velocity=95 time=0.033482125
EXTRACT: note_off channel=1 note=63 velocity=95 time=0
EXTRACT: note_off channel=1 note=70 velocity=95 time=0
EXTRACT: note_off channel=1 note=58 velocity=95 time=0
EXTRACT: note_off channel=1 note=46 velocity=95 time=0
EXTRACT: note_on channel=1 note=71 velocity=95 time=0
EXTRACT: note_on channel=1 note=66 velocity=95 time=0
EXTRACT: note_on channel=1 note=63 velocity=95 time=0
EXTRACT: note_on channel=1 note=59 velocity=95 time=0
EXTRACT: note_on channel=1 note=47 velocity=95 time=0
EXTRACT: pitchwheel channel=3 pitch=256 time=0
EXTRACT: pitchwheel channel=3 pitch=256 time=0
EXTRACT: pitchwheel channel=3 pitch=0 time=0
EXTRACT: note_off channel=3 note=66 velocity=95 time=0
EXTRACT: pitchwheel channel=3 pitch=1024 time=0
EXTRACT: note_on channel=3 note=66 velocity=95 time=0
EXTRACT: note_on channel=7 note=33 velocity=95 time=0
EXTRACT: note_on channel=8 note=23 velocity=95 time=0
EXTRACT: note_on channel=10 note=40 velocity=95 time=0
EXTRACT: note_off channel=9 note=28 velocity=95 time=0
EXTRACT: note_off channel=9 note=39 velocity=95 time=0
EXTRACT: note_on channel=9 note=36 velocity=95 time=0
EXTRACT: pitchwheel channel=4 pitch=256 time=0.033482125
EXTRACT: pitchwheel channel=4 pitch=256 time=0
EXTRACT: pitchwheel channel=4 pitch=0 time=0
EXTRACT: note_off channel=4 note=66 velocity=95 time=0
EXTRACT: pitchwheel channel=4 pitch=1024 time=0
EXTRACT: note_on channel=4 note=66 velocity=95 time=0
EXTRACT: pitchwheel channel=3 pitch=896 time=0.005580354166666667
EXTRACT: note_off channel=10 note=40 velocity=95 time=0.027901770833333336
EXTRACT: pitchwheel channel=4 pitch=896 time=0.005580354166666667
EXTRACT: pitchwheel channel=3 pitch=768 time=0.005580354166666667
EXTRACT: pitchwheel channel=4 pitch=768 time=0.033482125
EXTRACT: pitchwheel channel=3 pitch=640 time=0.005580354166666667
EXTRACT: pitchwheel channel=4 pitch=640 time=0.033482125
EXTRACT: pitchwheel channel=3 pitch=512 time=0.005580354166666667
EXTRACT: pitchwheel channel=4 pitch=512 time=0.033482125
EXTRACT: pitchwheel channel=3 pitch=384 time=0.005580354166666667
EXTRACT: pitchwheel channel=4 pitch=384 time=0.033482125
EXTRACT: pitchwheel channel=3 pitch=256 time=0.005580354166666667
EXTRACT: pitchwheel channel=3 pitch=256 time=0
EXTRACT: pitchwheel channel=3 pitch=0 time=0
EXTRACT: note_off channel=3 note=66 velocity=95 time=0
EXTRACT: pitchwheel channel=3 pitch=1024 time=0.033482125
EXTRACT: note_on channel=3 note=66 velocity=95 time=0
EXTRACT: pitchwheel channel=4 pitch=256 time=0
EXTRACT: pitchwheel channel=4 pitch=256 time=0
EXTRACT: pitchwheel channel=4 pitch=0 time=0
EXTRACT: note_off channel=4 note=66 velocity=95 time=0
EXTRACT: note_off channel=5 note=64 velocity=95 time=0
EXTRACT: note_off channel=5 note=59 velocity=95 time=0
EXTRACT: note_off channel=5 note=55 velocity=95 time=0
EXTRACT: note_off channel=5 note=50 velocity=95 time=0
EXTRACT: pitchwheel channel=3 pitch=896 time=0.022321416666666666
EXTRACT: pitchwheel channel=4 pitch=1024 time=0.011160708333333333
EXTRACT: note_on channel=4 note=66 velocity=95 time=0
EXTRACT: pitchwheel channel=3 pitch=768 time=0.011160708333333333
EXTRACT: pitchwheel channel=4 pitch=896 time=0.011160708333333333
EXTRACT: pitchwheel channel=3 pitch=640 time=0.011160708333333333
EXTRACT: pitchwheel channel=4 pitch=768 time=0.011160708333333333
EXTRACT: pitchwheel channel=3 pitch=512 time=0.011160708333333333
EXTRACT: pitchwheel channel=4 pitch=640 time=0.011160708333333333
EXTRACT: pitchwheel channel=3 pitch=384 time=0.011160708333333333
EXTRACT: pitchwheel channel=4 pitch=512 time=0.011160708333333333
EXTRACT: pitchwheel channel=3 pitch=256 time=0.011160708333333333
EXTRACT: pitchwheel channel=3 pitch=256 time=0
EXTRACT: pitchwheel channel=3 pitch=0 time=0
EXTRACT: note_off channel=3 note=66 velocity=95 time=0
EXTRACT: pitchwheel channel=3 pitch=256 time=0
EXTRACT: note_on channel=3 note=67 velocity=95 time=0
EXTRACT: pitchwheel channel=4 pitch=384 time=0.011160708333333333
EXTRACT: pitchwheel channel=4 pitch=256 time=0.022321416666666666
EXTRACT: pitchwheel channel=4 pitch=256 time=0
EXTRACT: pitchwheel channel=4 pitch=0 time=0
EXTRACT: note_off channel=4 note=66 velocity=95 time=0
EXTRACT: pitchwheel channel=4 pitch=256 time=0
EXTRACT: note_on channel=4 note=67 velocity=95 time=0
EXTRACT: pitchwheel channel=3 pitch=128 time=0.100446375
EXTRACT: note_on channel=5 note=64 velocity=95 time=0
EXTRACT: note_on channel=5 note=59 velocity=95 time=0
EXTRACT: note_on channel=5 note=55 velocity=95 time=0
EXTRACT: note_on channel=5 note=50 velocity=95 time=0
EXTRACT: note_off channel=7 note=33 velocity=95 time=0
EXTRACT: note_off channel=8 note=23 velocity=95 time=0
EXTRACT: note_off channel=9 note=36 velocity=95 time=0
EXTRACT: note_on channel=9 note=28 velocity=95 time=0
EXTRACT: note_on channel=9 note=39 velocity=95 time=0
EXTRACT: pitchwheel channel=4 pitch=128 time=0.033482125
EXTRACT: pitchwheel channel=3 pitch=0 time=0.100446375
EXTRACT: pitchwheel channel=3 pitch=0 time=0
EXTRACT: pitchwheel channel=3 pitch=0 time=0
EXTRACT: note_off channel=3 note=67 velocity=95 time=0
EXTRACT: pitchwheel channel=3 pitch=0 time=0
EXTRACT: note_on channel=3 note=66 velocity=95 time=0
EXTRACT: note_on channel=7 note=33 velocity=95 time=0
EXTRACT: note_on channel=8 note=23 velocity=95 time=0
EXTRACT: note_on channel=10 note=40 velocity=95 time=0
EXTRACT: note_off channel=9 note=28 velocity=95 time=0
EXTRACT: note_off channel=9 note=39 velocity=95 time=0
EXTRACT: note_on channel=9 note=36 velocity=95 time=0
EXTRACT: pitchwheel channel=3 pitch=128 time=0.026785700000000003
EXTRACT: pitchwheel channel=4 pitch=0 time=0.006696425000000001
EXTRACT: pitchwheel channel=4 pitch=0 time=0
EXTRACT: pitchwheel channel=4 pitch=0 time=0
EXTRACT: note_off channel=4 note=67 velocity=95 time=0
EXTRACT: pitchwheel channel=4 pitch=0 time=0
EXTRACT: note_on channel=4 note=66 velocity=95 time=0
EXTRACT: pitchwheel channel=3 pitch=256 time=0.020089275
EXTRACT: pitchwheel channel=4 pitch=128 time=0.006696425000000001
EXTRACT: note_off channel=10 note=40 velocity=95 time=0.006696425000000001
EXTRACT: pitchwheel channel=3 pitch=384 time=0.013392850000000001
EXTRACT: pitchwheel channel=4 pitch=256 time=0.006696425000000001
EXTRACT: pitchwheel channel=3 pitch=512 time=0.020089275
EXTRACT: pitchwheel channel=4 pitch=384 time=0.006696425000000001
EXTRACT: pitchwheel channel=3 pitch=640 time=0.020089275
EXTRACT: pitchwheel channel=3 pitch=640 time=0
EXTRACT: pitchwheel channel=3 pitch=0 time=0
EXTRACT: note_off channel=3 note=66 velocity=95 time=0
EXTRACT: pitchwheel channel=3 pitch=0 time=0
EXTRACT: note_on channel=3 note=67 velocity=95 time=0
EXTRACT: note_off channel=7 note=33 velocity=95 time=0
EXTRACT: note_on channel=7 note=33 velocity=95 time=0
EXTRACT: note_off channel=8 note=23 velocity=95 time=0
EXTRACT: note_on channel=8 note=23 velocity=95 time=0
EXTRACT: note_on channel=10 note=40 velocity=95 time=0
EXTRACT: note_off channel=9 note=36 velocity=95 time=0
EXTRACT: note_on channel=9 note=36 velocity=95 time=0
EXTRACT: pitchwheel channel=4 pitch=512 time=0.006696425000000001
EXTRACT: pitchwheel channel=4 pitch=640 time=0.026785700000000003
EXTRACT: pitchwheel channel=4 pitch=640 time=0
EXTRACT: pitchwheel channel=4 pitch=0 time=0
EXTRACT: note_off channel=4 note=66 velocity=95 time=0
EXTRACT: pitchwheel channel=4 pitch=0 time=0
EXTRACT: note_on channel=4 note=67 velocity=95 time=0
EXTRACT: pitchwheel channel=3 pitch=-128 time=0.020089275
EXTRACT: note_off channel=10 note=40 velocity=95 time=0.013392850000000001
EXTRACT: pitchwheel channel=4 pitch=-128 time=0.020089275
EXTRACT: pitchwheel channel=3 pitch=-256 time=0.020089275
EXTRACT: pitchwheel channel=4 pitch=-256 time=0.033482125
EXTRACT: pitchwheel channel=3 pitch=-384 time=0.020089275
EXTRACT: pitchwheel channel=4 pitch=-384 time=0.033482125
EXTRACT: pitchwheel channel=3 pitch=-512 time=0.020089275
EXTRACT: pitchwheel channel=4 pitch=-512 time=0.033482125
EXTRACT: note_off channel=1 note=71 velocity=95 time=0.020089275
EXTRACT: note_off channel=1 note=66 velocity=95 time=0
EXTRACT: note_off channel=1 note=63 velocity=95 time=0
EXTRACT: note_off channel=1 note=59 velocity=95 time=0
EXTRACT: note_off channel=1 note=47 velocity=95 time=0
EXTRACT: note_on channel=1 note=68 velocity=95 time=0
EXTRACT: note_on channel=1 note=65 velocity=95 time=0
EXTRACT: note_on channel=1 note=61 velocity=95 time=0
EXTRACT: note_on channel=1 note=46 velocity=95 time=0
EXTRACT: pitchwheel channel=2 pitch=0 time=0
EXTRACT: note_on channel=2 note=73 velocity=95 time=0
EXTRACT: pitchwheel channel=3 pitch=-640 time=0
EXTRACT: pitchwheel channel=3 pitch=-640 time=0
EXTRACT: pitchwheel channel=3 pitch=0 time=0
EXTRACT: note_off channel=3 note=67 velocity=95 time=0
EXTRACT: pitchwheel channel=3 pitch=0 time=0
EXTRACT: note_on channel=3 note=67 velocity=95 time=0
EXTRACT: pitchwheel channel=6 pitch=0 time=0
EXTRACT: note_on channel=6 note=53 velocity=95 time=0
EXTRACT: pitchwheel channel=6 pitch=0 time=0
EXTRACT: note_on channel=6 note=53 velocity=95 time=0
EXTRACT: note_off channel=7 note=33 velocity=95 time=0
EXTRACT: note_off channel=9 note=36 velocity=95 time=0
EXTRACT: pitchwheel channel=6 pitch=-128 time=0.016183027083333332
EXTRACT: pitchwheel channel=6 pitch=-128 time=0
EXTRACT: pitchwheel channel=6 pitch=-256 time=0.016183027083333332
EXTRACT: pitchwheel channel=6 pitch=-256 time=0
EXTRACT: pitchwheel channel=4 pitch=-640 time=0.0011160708333333334
EXTRACT: pitchwheel channel=4 pitch=-640 time=0
EXTRACT: pitchwheel channel=4 pitch=0 time=0
EXTRACT: note_off channel=4 note=67 velocity=95 time=0
EXTRACT: pitchwheel channel=4 pitch=0 time=0
EXTRACT: note_on channel=4 note=67 velocity=95 time=0
EXTRACT: pitchwheel channel=6 pitch=-384 time=0.015066956250000001
EXTRACT: pitchwheel channel=6 pitch=-384 time=0
EXTRACT: pitchwheel channel=3 pitch=-128 time=0.00502231875
EXTRACT: pitchwheel channel=6 pitch=-512 time=0.011160708333333333
EXTRACT: pitchwheel channel=6 pitch=-512 time=0
EXTRACT: pitchwheel channel=6 pitch=-640 time=0.016183027083333332
EXTRACT: pitchwheel channel=6 pitch=-640 time=0
EXTRACT: pitchwheel channel=4 pitch=-128 time=0.006138389583333333
EXTRACT: pitchwheel channel=6 pitch=-768 time=0.0100446375
EXTRACT: pitchwheel channel=6 pitch=-768 time=0
EXTRACT: pitchwheel channel=3 pitch=-256 time=0.0100446375
EXTRACT: pitchwheel channel=6 pitch=-896 time=0.006138389583333333
EXTRACT: pitchwheel channel=6 pitch=-896 time=0
EXTRACT: pitchwheel channel=6 pitch=-1024 time=0.016183027083333332
EXTRACT: pitchwheel channel=6 pitch=-1024 time=0
EXTRACT: pitchwheel channel=4 pitch=-256 time=0.011160708333333333
EXTRACT: pitchwheel channel=6 pitch=-1152 time=0.00502231875
EXTRACT: pitchwheel channel=6 pitch=-1152 time=0
EXTRACT: pitchwheel channel=3 pitch=-384 time=0.015066956250000001
EXTRACT: pitchwheel channel=6 pitch=-1280 time=0.0011160708333333334
EXTRACT: pitchwheel channel=6 pitch=-1280 time=0
EXTRACT: pitchwheel channel=6 pitch=-1408 time=0.016183027083333332
EXTRACT: pitchwheel channel=6 pitch=-1408 time=0
EXTRACT: pitchwheel channel=4 pitch=-384 time=0.016183027083333332
EXTRACT: pitchwheel channel=6 pitch=-1536 time=0
EXTRACT: pitchwheel channel=6 pitch=-1536 time=0
EXTRACT: pitchwheel channel=6 pitch=-1664 time=0.016183027083333332
EXTRACT: pitchwheel channel=6 pitch=-1664 time=0
EXTRACT: pitchwheel channel=3 pitch=-512 time=0.003906247916666667
EXTRACT: pitchwheel channel=6 pitch=-1792 time=0.012276779166666666
EXTRACT: pitchwheel channel=6 pitch=-1792 time=0
EXTRACT: pitchwheel channel=6 pitch=-1920 time=0.016183027083333332
EXTRACT: pitchwheel channel=6 pitch=-1920 time=0
EXTRACT: pitchwheel channel=4 pitch=-512 time=0.00502231875
EXTRACT: pitchwheel channel=6 pitch=-2048 time=0.011160708333333333
EXTRACT: pitchwheel channel=6 pitch=-2048 time=0
EXTRACT: pitchwheel channel=3 pitch=-640 time=0.008928566666666667
EXTRACT: pitchwheel channel=3 pitch=-640 time=0
EXTRACT: pitchwheel channel=3 pitch=0 time=0
EXTRACT: note_off channel=3 note=67 velocity=95 time=0
EXTRACT: pitchwheel channel=3 pitch=0 time=0
EXTRACT: note_on channel=3 note=66 velocity=95 time=0
EXTRACT: note_off channel=5 note=64 velocity=95 time=0
EXTRACT: note_off channel=5 note=59 velocity=95 time=0
EXTRACT: note_off channel=5 note=55 velocity=95 time=0
EXTRACT: note_off channel=5 note=50 velocity=95 time=0
EXTRACT: note_on channel=7 note=33 velocity=95 time=0
EXTRACT: note_off channel=8 note=23 velocity=95 time=0
EXTRACT: note_on channel=8 note=23 velocity=95 time=0
EXTRACT: note_on channel=10 note=40 velocity=95 time=0
EXTRACT: note_on channel=9 note=36 velocity=95 time=0
EXTRACT: pitchwheel channel=6 pitch=-2176 time=0.007254460416666667
EXTRACT: pitchwheel channel=6 pitch=-2176 time=0
EXTRACT: pitchwheel channel=6 pitch=-2304 time=0.016183027083333332
EXTRACT: pitchwheel channel=6 pitch=-2304 time=0
EXTRACT: pitchwheel channel=4 pitch=-640 time=0.0100446375
EXTRACT: pitchwheel channel=4 pitch=-640 time=0
EXTRACT: pitchwheel channel=4 pitch=0 time=0
EXTRACT: note_off channel=4 note=67 velocity=95 time=0
EXTRACT: pitchwheel channel=4 pitch=0 time=0
EXTRACT: note_on channel=4 note=66 velocity=95 time=0
EXTRACT: pitchwheel channel=6 pitch=-2432 time=0.006138389583333333
EXTRACT: pitchwheel channel=6 pitch=-2432 time=0
EXTRACT: pitchwheel channel=6 pitch=-2560 time=0.016183027083333332
EXTRACT: pitchwheel channel=6 pitch=-2560 time=0
EXTRACT: note_off channel=10 note=40 velocity=95 time=0.011160708333333333
EXTRACT: pitchwheel channel=6 pitch=-2688 time=0.00502231875
EXTRACT: pitchwheel channel=6 pitch=-2688 time=0
EXTRACT: pitchwheel channel=6 pitch=-2816 time=0.016183027083333332
EXTRACT: pitchwheel channel=6 pitch=-2816 time=0
EXTRACT: pitchwheel channel=6 pitch=-2944 time=0.016183027083333332
EXTRACT: pitchwheel channel=6 pitch=-2944 time=0
EXTRACT: pitchwheel channel=6 pitch=-3072 time=0.016183027083333332
EXTRACT: pitchwheel channel=6 pitch=-3072 time=0
EXTRACT: pitchwheel channel=3 pitch=128 time=0.013392850000000001
EXTRACT: pitchwheel channel=6 pitch=-3200 time=0.0027901770833333333
EXTRACT: pitchwheel channel=6 pitch=-3200 time=0
EXTRACT: pitchwheel channel=6 pitch=-3328 time=0.016183027083333332
EXTRACT: pitchwheel channel=6 pitch=-3328 time=0
EXTRACT: pitchwheel channel=4 pitch=128 time=0.014508920833333334
EXTRACT: pitchwheel channel=6 pitch=-3456 time=0.0016741062500000002
EXTRACT: pitchwheel channel=6 pitch=-3456 time=0
EXTRACT: pitchwheel channel=6 pitch=-3584 time=0.016183027083333332
EXTRACT: pitchwheel channel=6 pitch=-3584 time=0
EXTRACT: pitchwheel channel=6 pitch=-3712 time=0.016183027083333332
EXTRACT: pitchwheel channel=6 pitch=-3712 time=0
EXTRACT: pitchwheel channel=6 pitch=-3840 time=0.016183027083333332
EXTRACT: pitchwheel channel=6 pitch=-3840 time=0
EXTRACT: pitchwheel channel=6 pitch=-3968 time=0.016183027083333332
EXTRACT: pitchwheel channel=6 pitch=-3968 time=0
EXTRACT: pitchwheel channel=6 pitch=-4096 time=0.016183027083333332
EXTRACT: pitchwheel channel=6 pitch=-4096 time=0
EXTRACT: pitchwheel channel=6 pitch=-4224 time=0.016183027083333332
EXTRACT: pitchwheel channel=6 pitch=-4224 time=0
EXTRACT: pitchwheel channel=3 pitch=256 time=0.0016741062500000002
EXTRACT: pitchwheel channel=3 pitch=256 time=0
EXTRACT: pitchwheel channel=3 pitch=0 time=0
EXTRACT: note_off channel=3 note=66 velocity=95 time=0
EXTRACT: pitchwheel channel=3 pitch=0 time=0
EXTRACT: note_on channel=3 note=67 velocity=95 time=0
EXTRACT: note_on channel=5 note=64 velocity=95 time=0
EXTRACT: note_on channel=5 note=59 velocity=95 time=0
EXTRACT: note_on channel=5 note=55 velocity=95 time=0
EXTRACT: note_on channel=5 note=50 velocity=95 time=0
EXTRACT: note_off channel=7 note=33 velocity=95 time=0
EXTRACT: note_off channel=9 note=36 velocity=95 time=0
EXTRACT: note_on channel=9 note=28 velocity=95 time=0
EXTRACT: note_on channel=9 note=39 velocity=95 time=0
EXTRACT: pitchwheel channel=6 pitch=-4352 time=0.014508920833333334
EXTRACT: pitchwheel channel=6 pitch=-4352 time=0
EXTRACT: pitchwheel channel=3 pitch=-128 time=0.0033482125000000003
EXTRACT: pitchwheel channel=6 pitch=-4480 time=0.012834814583333333
EXTRACT: pitchwheel channel=6 pitch=-4480 time=0
EXTRACT: pitchwheel channel=4 pitch=256 time=0.0027901770833333333
EXTRACT: pitchwheel channel=4 pitch=256 time=0
EXTRACT: pitchwheel channel=4 pitch=0 time=0
EXTRACT: note_off channel=4 note=66 velocity=95 time=0
EXTRACT: pitchwheel channel=4 pitch=0 time=0
EXTRACT: note_on channel=4 note=67 velocity=95 time=0
EXTRACT: pitchwheel channel=3 pitch=-256 time=0.0022321416666666667
EXTRACT: pitchwheel channel=6 pitch=-4608 time=0.011160708333333333
EXTRACT: pitchwheel channel=6 pitch=-4608 time=0
EXTRACT: pitchwheel channel=4 pitch=-128 time=0.0044642833333333335
EXTRACT: pitchwheel channel=3 pitch=-384 time=0.0022321416666666667
EXTRACT: pitchwheel channel=6 pitch=-4736 time=0.009486602083333334
EXTRACT: pitchwheel channel=6 pitch=-4736 time=0
EXTRACT: pitchwheel channel=4 pitch=-256 time=0.006138389583333333
EXTRACT: pitchwheel channel=3 pitch=-512 time=0.0022321416666666667
EXTRACT: pitchwheel channel=6 pitch=-4864 time=0.007812495833333334
EXTRACT: pitchwheel channel=6 pitch=-4864 time=0
EXTRACT: pitchwheel channel=4 pitch=-384 time=0.007812495833333334
EXTRACT: pitchwheel channel=3 pitch=-640 time=0.0022321416666666667
EXTRACT: pitchwheel channel=6 pitch=-4992 time=0.006138389583333333
EXTRACT: pitchwheel channel=6 pitch=-4992 time=0
EXTRACT: pitchwheel channel=4 pitch=-512 time=0.009486602083333334
EXTRACT: pitchwheel channel=3 pitch=-768 time=0.0022321416666666667
EXTRACT: pitchwheel channel=6 pitch=-5120 time=0.0044642833333333335
EXTRACT: pitchwheel channel=6 pitch=-5120 time=0
EXTRACT: pitchwheel channel=4 pitch=-640 time=0.011160708333333333
EXTRACT: pitchwheel channel=3 pitch=-896 time=0.0022321416666666667
EXTRACT: pitchwheel channel=6 pitch=-5248 time=0.0027901770833333333
EXTRACT: pitchwheel channel=6 pitch=-5248 time=0
EXTRACT: pitchwheel channel=4 pitch=-768 time=0.012834814583333333
EXTRACT: pitchwheel channel=3 pitch=-1024 time=0.0022321416666666667
EXTRACT: pitchwheel channel=6 pitch=-5376 time=0.0011160708333333334
EXTRACT: pitchwheel channel=6 pitch=-5376 time=0
EXTRACT: pitchwheel channel=4 pitch=-896 time=0.014508920833333334
EXTRACT: pitchwheel channel=6 pitch=-5504 time=0.0016741062500000002
EXTRACT: pitchwheel channel=6 pitch=-5504 time=0
EXTRACT: pitchwheel channel=3 pitch=-1152 time=0.0005580354166666667
EXTRACT: pitchwheel channel=4 pitch=-1024 time=0.015624991666666668
EXTRACT: pitchwheel channel=6 pitch=-5632 time=0
EXTRACT: pitchwheel channel=6 pitch=-5632 time=0
EXTRACT: pitchwheel channel=3 pitch=-1280 time=0.0022321416666666667
EXTRACT: pitchwheel channel=6 pitch=-5760 time=0.013950885416666668
EXTRACT: pitchwheel channel=6 pitch=-5760 time=0
EXTRACT: pitchwheel channel=4 pitch=-1152 time=0.0016741062500000002
EXTRACT: pitchwheel channel=3 pitch=-1408 time=0.0022321416666666667
EXTRACT: pitchwheel channel=3 pitch=-1408 time=0.0044642833333333335
EXTRACT: pitchwheel channel=3 pitch=0 time=0
EXTRACT: note_off channel=3 note=67 velocity=95 time=0
EXTRACT: pitchwheel channel=6 pitch=-5888 time=0.007812495833333334
EXTRACT: pitchwheel channel=6 pitch=-5888 time=0
EXTRACT: pitchwheel channel=4 pitch=-1280 time=0.0033482125000000003
EXTRACT: pitchwheel channel=6 pitch=-6016 time=0.012834814583333333
EXTRACT: pitchwheel channel=6 pitch=-6016 time=0
EXTRACT: pitchwheel channel=4 pitch=-1408 time=0.00502231875
EXTRACT: pitchwheel channel=4 pitch=-1408 time=0.0044642833333333335
EXTRACT: pitchwheel channel=4 pitch=0 time=0
EXTRACT: note_off channel=4 note=67 velocity=95 time=0
EXTRACT: pitchwheel channel=6 pitch=-6144 time=0.006696425000000001
EXTRACT: pitchwheel channel=6 pitch=-6144 time=0
EXTRACT: pitchwheel channel=6 pitch=-6272 time=0.016183027083333332
EXTRACT: pitchwheel channel=6 pitch=-6272 time=0
EXTRACT: pitchwheel channel=3 pitch=0 time=0.010602672916666667
EXTRACT: note_on channel=3 note=66 velocity=95 time=0
EXTRACT: note_off channel=8 note=23 velocity=95 time=0
EXTRACT: pitchwheel channel=6 pitch=-6400 time=0.005580354166666667
EXTRACT: pitchwheel channel=6 pitch=-6400 time=0
EXTRACT: pitchwheel channel=6 pitch=-6528 time=0.016183027083333332
EXTRACT: pitchwheel channel=6 pitch=-6528 time=0
EXTRACT: pitchwheel channel=4 pitch=0 time=0.01171874375
EXTRACT: note_on channel=4 note=66 velocity=95 time=0
EXTRACT: pitchwheel channel=6 pitch=-6656 time=0.0044642833333333335
EXTRACT: pitchwheel channel=6 pitch=-6656 time=0
EXTRACT: pitchwheel channel=6 pitch=-6784 time=0.016183027083333332
EXTRACT: pitchwheel channel=6 pitch=-6784 time=0
EXTRACT: pitchwheel channel=3 pitch=128 time=0.012834814583333333
EXTRACT: pitchwheel channel=6 pitch=-6912 time=0.0033482125000000003
EXTRACT: pitchwheel channel=6 pitch=-6912 time=0
EXTRACT: pitchwheel channel=6 pitch=-7040 time=0.016183027083333332
EXTRACT: pitchwheel channel=6 pitch=-7040 time=0
EXTRACT: pitchwheel channel=2 pitch=0 time=0.0027901770833333333
EXTRACT: pitchwheel channel=4 pitch=128 time=0.011160708333333333
EXTRACT: pitchwheel channel=6 pitch=-7168 time=0.0022321416666666667
EXTRACT: pitchwheel channel=6 pitch=-7168 time=0
EXTRACT: pitchwheel channel=2 pitch=-128 time=0.0005580354166666667
EXTRACT: pitchwheel channel=2 pitch=-256 time=0.013950885416666668
EXTRACT: pitchwheel channel=6 pitch=-7296 time=0.0016741062500000002
EXTRACT: pitchwheel channel=6 pitch=-7296 time=0
EXTRACT: pitchwheel channel=2 pitch=-384 time=0.012276779166666666
EXTRACT: pitchwheel channel=3 pitch=256 time=0.0027901770833333333
EXTRACT: pitchwheel channel=3 pitch=256 time=0
EXTRACT: pitchwheel channel=3 pitch=0 time=0
EXTRACT: note_off channel=3 note=66 velocity=95 time=0
EXTRACT: pitchwheel channel=3 pitch=256 time=0
EXTRACT: note_on channel=3 note=66 velocity=95 time=0
EXTRACT: pitchwheel channel=6 pitch=-7424 time=0.0011160708333333334
EXTRACT: pitchwheel channel=6 pitch=-7424 time=0
EXTRACT: pitchwheel channel=2 pitch=-512 time=0.0100446375
EXTRACT: pitchwheel channel=6 pitch=-7552 time=0.006138389583333333
EXTRACT: pitchwheel channel=6 pitch=-7552 time=0
EXTRACT: pitchwheel channel=2 pitch=-640 time=0.007812495833333334
EXTRACT: pitchwheel channel=4 pitch=256 time=0.00837053125
EXTRACT: pitchwheel channel=4 pitch=256 time=0
EXTRACT: pitchwheel channel=4 pitch=0 time=0
EXTRACT: note_off channel=4 note=66 velocity=95 time=0
EXTRACT: pitchwheel channel=4 pitch=256 time=0
EXTRACT: note_on channel=4 note=66 velocity=95 time=0
EXTRACT: pitchwheel channel=6 pitch=-7680 time=0
EXTRACT: pitchwheel channel=6 pitch=-7680 time=0
EXTRACT: pitchwheel channel=2 pitch=-768 time=0.005580354166666667
EXTRACT: pitchwheel channel=6 pitch=-7808 time=0.010602672916666667
EXTRACT: pitchwheel channel=6 pitch=-7808 time=0
EXTRACT: pitchwheel channel=2 pitch=-896 time=0.0033482125000000003
EXTRACT: pitchwheel channel=6 pitch=-7936 time=0.012834814583333333
EXTRACT: pitchwheel channel=6 pitch=-7936 time=0
EXTRACT: pitchwheel channel=2 pitch=-1024 time=0.0011160708333333334
EXTRACT: pitchwheel channel=2 pitch=-1152 time=0.013950885416666668
EXTRACT: pitchwheel channel=6 pitch=-8064 time=0.0011160708333333334
EXTRACT: pitchwheel channel=6 pitch=-8064 time=0
EXTRACT: pitchwheel channel=2 pitch=-1280 time=0.012834814583333333
EXTRACT: pitchwheel channel=6 pitch=-8192 time=0.0033482125000000003
EXTRACT: pitchwheel channel=6 pitch=-8192 time=0
EXTRACT: pitchwheel channel=2 pitch=-1408 time=0.010602672916666667
EXTRACT: pitchwheel channel=6 pitch=-8192 time=0.005580354166666667
EXTRACT: pitchwheel channel=6 pitch=-8192 time=0
EXTRACT: pitchwheel channel=2 pitch=-1536 time=0.00837053125
EXTRACT: pitchwheel channel=6 pitch=-8192 time=0.007812495833333334
EXTRACT: pitchwheel channel=6 pitch=-8192 time=0
EXTRACT: note_off channel=1 note=68 velocity=95 time=0.0033482125000000003
EXTRACT: note_off channel=1 note=65 velocity=95 time=0
EXTRACT: note_off channel=1 note=61 velocity=95 time=0
EXTRACT: note_off channel=1 note=46 velocity=95 time=0
EXTRACT: note_on channel=1 note=66 velocity=95 time=0
EXTRACT: note_on channel=1 note=63 velocity=95 time=0
EXTRACT: note_on channel=1 note=51 velocity=95 time=0
EXTRACT: pitchwheel channel=3 pitch=256 time=0
EXTRACT: pitchwheel channel=3 pitch=0 time=0
EXTRACT: note_off channel=3 note=66 velocity=95 time=0
EXTRACT: pitchwheel channel=3 pitch=256 time=0
EXTRACT: note_on channel=3 note=67 velocity=95 time=0
EXTRACT: pitchwheel channel=6 pitch=-8192 time=0
EXTRACT: pitchwheel channel=6 pitch=0 time=0
EXTRACT: note_off channel=6 note=53 velocity=95 time=0
EXTRACT: pitchwheel channel=6 pitch=-8192 time=0
EXTRACT: pitchwheel channel=6 pitch=0 time=0
EXTRACT: note_off channel=6 note=53 velocity=95 time=0
EXTRACT: note_on channel=7 note=33 velocity=95 time=0
EXTRACT: note_on channel=8 note=23 velocity=95 time=0
EXTRACT: note_on channel=10 note=40 velocity=95 time=0
EXTRACT: note_off channel=9 note=28 velocity=95 time=0
EXTRACT: note_off channel=9 note=39 velocity=95 time=0
EXTRACT: note_on channel=9 note=36 velocity=95 time=0
EXTRACT: pitchwheel channel=2 pitch=-1664 time=0.0027901770833333333
EXTRACT: pitchwheel channel=2 pitch=-1792 time=0.013950885416666668
EXTRACT: pitchwheel channel=2 pitch=-1920 time=0.013950885416666668
EXTRACT: pitchwheel channel=4 pitch=256 time=0.0027901770833333333
EXTRACT: pitchwheel channel=4 pitch=0 time=0
EXTRACT: note_off channel=4 note=66 velocity=95 time=0
EXTRACT: pitchwheel channel=4 pitch=256 time=0
EXTRACT: note_on channel=4 note=67 velocity=95 time=0
EXTRACT: pitchwheel channel=2 pitch=-2048 time=0.011160708333333333
EXTRACT: pitchwheel channel=2 pitch=-2048 time=0
EXTRACT: note_off channel=10 note=40 velocity=95 time=0.022321416666666666
EXTRACT: pitchwheel channel=3 pitch=256 time=0.022321416666666666
EXTRACT: pitchwheel channel=4 pitch=256 time=0.033482125
EXTRACT: pitchwheel channel=3 pitch=128 time=0.011160708333333333
EXTRACT: pitchwheel channel=4 pitch=128 time=0.033482125
EXTRACT: pitchwheel channel=3 pitch=0 time=0.011160708333333333
EXTRACT: pitchwheel channel=3 pitch=0 time=0
EXTRACT: pitchwheel channel=4 pitch=0 time=0.033482125
EXTRACT: pitchwheel channel=4 pitch=0 time=0
EXTRACT: note_off channel=1 note=66 velocity=95 time=0.05580354166666667
EXTRACT: note_off channel=1 note=63 velocity=95 time=0
EXTRACT: note_off channel=1 note=51 velocity=95 time=0
EXTRACT: pitchwheel channel=2 pitch=-2048 time=0
EXTRACT: pitchwheel channel=2 pitch=0 time=0
EXTRACT: note_off channel=2 note=73 velocity=95 time=0
EXTRACT: pitchwheel channel=3 pitch=0 time=0
EXTRACT: pitchwheel channel=3 pitch=0 time=0
EXTRACT: note_off channel=3 note=67 velocity=95 time=0
EXTRACT: pitchwheel channel=3 pitch=256 time=0
EXTRACT: note_on channel=3 note=66 velocity=95 time=0
EXTRACT: note_off channel=5 note=64 velocity=95 time=0
EXTRACT: note_off channel=5 note=59 velocity=95 time=0
EXTRACT: note_off channel=5 note=55 velocity=95 time=0
EXTRACT: note_off channel=5 note=50 velocity=95 time=0
EXTRACT: note_off channel=8 note=23 velocity=95 time=0
EXTRACT: note_on channel=8 note=23 velocity=95 time=0
EXTRACT: note_on channel=10 note=40 velocity=95 time=0
EXTRACT: note_off channel=9 note=36 velocity=95 time=0
EXTRACT: note_on channel=9 note=36 velocity=95 time=0
EXTRACT: pitchwheel channel=4 pitch=0 time=0.033482125
EXTRACT: pitchwheel channel=4 pitch=0 time=0
EXTRACT: note_off channel=4 note=67 velocity=95 time=0
EXTRACT: pitchwheel channel=4 pitch=256 time=0
EXTRACT: note_on channel=4 note=66 velocity=95 time=0
EXTRACT: note_off channel=10 note=40 velocity=95 time=0.033482125
EXTRACT: pitchwheel channel=3 pitch=256 time=0.20089275
EXTRACT: pitchwheel channel=3 pitch=0 time=0
EXTRACT: note_off channel=3 note=66 velocity=95 time=0
EXTRACT: note_on channel=3 note=67 velocity=95 time=0
EXTRACT: note_on channel=5 note=64 velocity=95 time=0
EXTRACT: note_on channel=5 note=59 velocity=95 time=0
EXTRACT: note_on channel=5 note=55 velocity=95 time=0
EXTRACT: note_on channel=5 note=50 velocity=95 time=0
EXTRACT: note_off channel=7 note=33 velocity=95 time=0
EXTRACT: note_off channel=8 note=23 velocity=95 time=0
EXTRACT: note_off channel=9 note=36 velocity=95 time=0
EXTRACT: note_on channel=9 note=28 velocity=95 time=0
EXTRACT: note_on channel=9 note=39 velocity=95 time=0
EXTRACT: pitchwheel channel=4 pitch=256 time=0.033482125
EXTRACT: pitchwheel channel=4 pitch=0 time=0
EXTRACT: note_off channel=4 note=66 velocity=95 time=0
EXTRACT: note_on channel=4 note=67 velocity=95 time=0
EXTRACT: note_off channel=3 note=67 velocity=95 time=0.234374875
EXTRACT: pitchwheel channel=3 pitch=0 time=0
EXTRACT: note_on channel=3 note=67 velocity=95 time=0
EXTRACT: note_on channel=7 note=33 velocity=95 time=0
EXTRACT: note_on channel=8 note=23 velocity=95 time=0
EXTRACT: note_on channel=10 note=40 velocity=95 time=0
EXTRACT: note_off channel=9 note=28 velocity=95 time=0
EXTRACT: note_off channel=9 note=39 velocity=95 time=0
EXTRACT: note_on channel=9 note=36 velocity=95 time=0
EXTRACT: note_off channel=4 note=67 velocity=95 time=0.033482125
EXTRACT: pitchwheel channel=4 pitch=0 time=0
EXTRACT: note_on channel=4 note=67 velocity=95 time=0
EXTRACT: pitchwheel channel=3 pitch=128 time=0.033482125
EXTRACT: note_off channel=10 note=40 velocity=95 time=0
EXTRACT: pitchwheel channel=4 pitch=128 time=0.033482125
EXTRACT: pitchwheel channel=3 pitch=256 time=0.033482125
EXTRACT: pitchwheel channel=3 pitch=256 time=0
EXTRACT: pitchwheel channel=3 pitch=0 time=0
EXTRACT: note_off channel=3 note=67 velocity=95 time=0
EXTRACT: pitchwheel channel=3 pitch=0 time=0
EXTRACT: note_on channel=3 note=67 velocity=95 time=0
EXTRACT: pitchwheel channel=4 pitch=256 time=0.033482125
EXTRACT: pitchwheel channel=4 pitch=256 time=0
EXTRACT: pitchwheel channel=4 pitch=0 time=0
EXTRACT: note_off channel=4 note=67 velocity=95 time=0
EXTRACT: pitchwheel channel=4 pitch=0 time=0
EXTRACT: note_on channel=4 note=67 velocity=95 time=0
EXTRACT: pitchwheel channel=3 pitch=128 time=0.06696425
EXTRACT: pitchwheel channel=4 pitch=128 time=0.033482125
EXTRACT: note_off channel=9 note=36 velocity=95 time=0
EXTRACT: pitchwheel channel=3 pitch=256 time=0.06696425
EXTRACT: pitchwheel channel=3 pitch=256 time=0
EXTRACT: pitchwheel channel=3 pitch=0 time=0
EXTRACT: note_off channel=3 note=67 velocity=95 time=0
EXTRACT: pitchwheel channel=4 pitch=256 time=0.033482125
EXTRACT: pitchwheel channel=4 pitch=256 time=0
EXTRACT: pitchwheel channel=4 pitch=0 time=0
EXTRACT: note_off channel=4 note=67 velocity=95 time=0
EXTRACT: pitchwheel channel=3 pitch=0 time=0.167410625
EXTRACT: note_on channel=3 note=65 velocity=95 time=0
EXTRACT: note_off channel=5 note=64 velocity=95 time=0
EXTRACT: note_off channel=5 note=59 velocity=95 time=0
EXTRACT: note_off channel=5 note=55 velocity=95 time=0
EXTRACT: note_off channel=5 note=50 velocity=95 time=0
EXTRACT: note_off channel=7 note=33 velocity=95 time=0
EXTRACT: note_on channel=7 note=33 velocity=95 time=0
EXTRACT: note_off channel=8 note=23 velocity=95 time=0
EXTRACT: note_on channel=8 note=23 velocity=95 time=0
EXTRACT: note_on channel=10 note=40 velocity=95 time=0
EXTRACT: note_on channel=9 note=36 velocity=95 time=0
EXTRACT: pitchwheel channel=4 pitch=0 time=0.033482125
EXTRACT: note_on channel=4 note=65 velocity=95 time=0
EXTRACT: note_off channel=10 note=40 velocity=95 time=0.033482125
EXTRACT: pitchwheel channel=3 pitch=0 time=0.20089275
EXTRACT: note_on channel=5 note=64 velocity=95 time=0
EXTRACT: note_on channel=5 note=59 velocity=95 time=0
EXTRACT: note_on channel=5 note=55 velocity=95 time=0
EXTRACT: note_on channel=5 note=50 velocity=95 time=0
EXTRACT: note_off channel=7 note=33 velocity=95 time=0
EXTRACT: note_off channel=9 note=36 velocity=95 time=0
EXTRACT: note_on channel=9 note=28 velocity=95 time=0
EXTRACT: note_on channel=9 note=39 velocity=95 time=0
EXTRACT: pitchwheel channel=4 pitch=0 time=0.033482125
EXTRACT: pitchwheel channel=3 pitch=128 time=0.100446375
EXTRACT: pitchwheel channel=4 pitch=128 time=0.033482125
EXTRACT: pitchwheel channel=3 pitch=256 time=0.100446375
EXTRACT: pitchwheel channel=3 pitch=256 time=0
EXTRACT: pitchwheel channel=3 pitch=0 time=0
EXTRACT: note_off channel=3 note=65 velocity=95 time=0
EXTRACT: note_off channel=8 note=23 velocity=95 time=0
EXTRACT: pitchwheel channel=4 pitch=256 time=0.033482125
EXTRACT: pitchwheel channel=4 pitch=256 time=0
EXTRACT: pitchwheel channel=4 pitch=0 time=0
EXTRACT: note_off channel=4 note=65 velocity=95 time=0
EXTRACT: pitchwheel channel=3 pitch=0 time=0.100446375
EXTRACT: note_on channel=3 note=66 velocity=95 time=0
EXTRACT: pitchwheel channel=4 pitch=0 time=0.033482125
EXTRACT: note_on channel=4 note=66 velocity=95 time=0
EXTRACT: pitchwheel channel=3 pitch=128 time=0.033482125
EXTRACT: pitchwheel channel=4 pitch=128 time=0.033482125
EXTRACT: pitchwheel channel=3 pitch=256 time=0.033482125
EXTRACT: pitchwheel channel=3 pitch=256 time=0
EXTRACT: pitchwheel channel=3 pitch=0 time=0
EXTRACT: note_off channel=3 note=66 velocity=95 time=0
EXTRACT: pitchwheel channel=3 pitch=256 time=0
EXTRACT: note_on channel=3 note=67 velocity=95 time=0
EXTRACT: note_on channel=7 note=33 velocity=95 time=0
EXTRACT: note_on channel=8 note=23 velocity=95 time=0
EXTRACT: note_on channel=10 note=40 velocity=95 time=0
EXTRACT: note_off channel=9 note=28 velocity=95 time=0
EXTRACT: note_off channel=9 note=39 velocity=95 time=0
EXTRACT: note_on channel=9 note=36 velocity=95 time=0
EXTRACT: pitchwheel channel=4 pitch=256 time=0.033482125
EXTRACT: pitchwheel channel=4 pitch=256 time=0
EXTRACT: pitchwheel channel=4 pitch=0 time=0
EXTRACT: note_off channel=4 note=66 velocity=95 time=0
EXTRACT: pitchwheel channel=4 pitch=256 time=0
EXTRACT: note_on channel=4 note=67 velocity=95 time=0
EXTRACT: note_off channel=10 note=40 velocity=95 time=0.033482125
EXTRACT: pitchwheel channel=3 pitch=256 time=0.022321416666666666
EXTRACT: pitchwheel channel=4 pitch=256 time=0.033482125
EXTRACT: pitchwheel channel=3 pitch=128 time=0.011160708333333333
EXTRACT: pitchwheel channel=4 pitch=128 time=0.033482125
EXTRACT: pitchwheel channel=3 pitch=0 time=0.011160708333333333
EXTRACT: pitchwheel channel=3 pitch=0 time=0
EXTRACT: pitchwheel channel=4 pitch=0 time=0.033482125
EXTRACT: pitchwheel channel=4 pitch=0 time=0
EXTRACT: pitchwheel channel=3 pitch=0 time=0.05580354166666667
EXTRACT: pitchwheel channel=3 pitch=0 time=0
EXTRACT: note_off channel=3 note=67 velocity=95 time=0
EXTRACT: pitchwheel channel=3 pitch=256 time=0
EXTRACT: note_on channel=3 note=66 velocity=95 time=0
EXTRACT: note_off channel=5 note=64 velocity=95 time=0
EXTRACT: note_off channel=5 note=59 velocity=95 time=0
EXTRACT: note_off channel=5 note=55 velocity=95 time=0
EXTRACT: note_off channel=5 note=50 velocity=95 time=0
EXTRACT: pitchwheel channel=4 pitch=0 time=0.033482125
EXTRACT: pitchwheel channel=4 pitch=0 time=0
EXTRACT: note_off channel=4 note=67 velocity=95 time=0
EXTRACT: pitchwheel channel=4 pitch=256 time=0
EXTRACT: note_on channel=4 note=66 velocity=95 time=0
EXTRACT: pitchwheel channel=3 pitch=256 time=0.234374875
EXTRACT: pitchwheel channel=3 pitch=0 time=0
EXTRACT: note_off channel=3 note=66 velocity=95 time=0
EXTRACT: note_on channel=3 note=67 velocity=95 time=0
EXTRACT: note_on channel=5 note=64 velocity=95 time=0
EXTRACT: note_on channel=5 note=59 velocity=95 time=0
EXTRACT: note_on channel=5 note=55 velocity=95 time=0
EXTRACT: note_on channel=5 note=50 velocity=95 time=0
EXTRACT: note_off channel=7 note=33 velocity=95 time=0
EXTRACT: note_off channel=8 note=23 velocity=95 time=0
EXTRACT: note_off channel=9 note=36 velocity=95 time=0
EXTRACT: note_on channel=9 note=28 velocity=95 time=0
EXTRACT: note_on channel=9 note=39 velocity=95 time=0
EXTRACT: pitchwheel channel=4 pitch=256 time=0.033482125
EXTRACT: pitchwheel channel=4 pitch=0 time=0
EXTRACT: note_off channel=4 note=66 velocity=95 time=0
EXTRACT: note_on channel=4 note=67 velocity=95 time=0
EXTRACT: note_off channel=3 note=67 velocity=95 time=0.234374875
EXTRACT: pitchwheel channel=3 pitch=0 time=0
EXTRACT: note_on channel=3 note=67 velocity=95 time=0
EXTRACT: note_on channel=7 note=33 velocity=95 time=0
EXTRACT: note_on channel=8 note=23 velocity=95 time=0
EXTRACT: note_on channel=10 note=40 velocity=95 time=0
EXTRACT: note_off channel=9 note=28 velocity=95 time=0
EXTRACT: note_off channel=9 note=39 velocity=95 time=0
EXTRACT: note_on channel=9 note=36 velocity=95 time=0
EXTRACT: note_off channel=4 note=67 velocity=95 time=0.033482125
EXTRACT: pitchwheel channel=4 pitch=0 time=0
EXTRACT: note_on channel=4 note=67 velocity=95 time=0
EXTRACT: pitchwheel channel=3 pitch=128 time=0.033482125
EXTRACT: note_off channel=10 note=40 velocity=95 time=0
EXTRACT: pitchwheel channel=4 pitch=128 time=0.033482125
EXTRACT: pitchwheel channel=3 pitch=256 time=0.033482125
EXTRACT: pitchwheel channel=3 pitch=256 time=0
EXTRACT: pitchwheel channel=3 pitch=0 time=0
EXTRACT: note_off channel=3 note=67 velocity=95 time=0
EXTRACT: pitchwheel channel=3 pitch=0 time=0
EXTRACT: note_on channel=3 note=67 velocity=95 time=0
EXTRACT: pitchwheel channel=4 pitch=256 time=0.033482125
EXTRACT: pitchwheel channel=4 pitch=256 time=0
EXTRACT: pitchwheel channel=4 pitch=0 time=0
EXTRACT: note_off channel=4 note=67 velocity=95 time=0
EXTRACT: pitchwheel channel=4 pitch=0 time=0
EXTRACT: note_on channel=4 note=67 velocity=95 time=0
EXTRACT: pitchwheel channel=3 pitch=128 time=0.06696425
EXTRACT: pitchwheel channel=4 pitch=128 time=0.033482125
EXTRACT: pitchwheel channel=6 pitch=0 time=0
EXTRACT: note_on channel=6 note=53 velocity=95 time=0
EXTRACT: pitchwheel channel=6 pitch=0 time=0
EXTRACT: note_on channel=6 note=53 velocity=95 time=0
EXTRACT: note_off channel=9 note=36 velocity=95 time=0
EXTRACT: pitchwheel channel=6 pitch=-128 time=0.016183027083333332
EXTRACT: pitchwheel channel=6 pitch=-128 time=0
EXTRACT: pitchwheel channel=6 pitch=-256 time=0.016183027083333332
EXTRACT: pitchwheel channel=6 pitch=-256 time=0
EXTRACT: pitchwheel channel=6 pitch=-384 time=0.016183027083333332
EXTRACT: pitchwheel channel=6 pitch=-384 time=0
EXTRACT: pitchwheel channel=6 pitch=-512 time=0.016183027083333332
EXTRACT: pitchwheel channel=6 pitch=-512 time=0
EXTRACT: pitchwheel channel=3 pitch=256 time=0.0022321416666666667
EXTRACT: pitchwheel channel=3 pitch=256 time=0
EXTRACT: pitchwheel channel=3 pitch=0 time=0
EXTRACT: note_off channel=3 note=67 velocity=95 time=0
EXTRACT: pitchwheel channel=6 pitch=-640 time=0.013950885416666668
EXTRACT: pitchwheel channel=6 pitch=-640 time=0
EXTRACT: pitchwheel channel=6 pitch=-768 time=0.016183027083333332
EXTRACT: pitchwheel channel=6 pitch=-768 time=0
EXTRACT: pitchwheel channel=4 pitch=256 time=0.0033482125000000003
EXTRACT: pitchwheel channel=4 pitch=256 time=0
EXTRACT: pitchwheel channel=4 pitch=0 time=0
EXTRACT: note_off channel=4 note=67 velocity=95 time=0
EXTRACT: pitchwheel channel=6 pitch=-896 time=0.012834814583333333
EXTRACT: pitchwheel channel=6 pitch=-896 time=0
EXTRACT: pitchwheel channel=6 pitch=-1024 time=0.016183027083333332
EXTRACT: pitchwheel channel=6 pitch=-1024 time=0
EXTRACT: pitchwheel channel=6 pitch=-1152 time=0.016183027083333332
EXTRACT: pitchwheel channel=6 pitch=-1152 time=0
EXTRACT: pitchwheel channel=6 pitch=-1280 time=0.016183027083333332
EXTRACT: pitchwheel channel=6 pitch=-1280 time=0
EXTRACT: pitchwheel channel=6 pitch=-1408 time=0.016183027083333332
EXTRACT: pitchwheel channel=6 pitch=-1408 time=0
EXTRACT: pitchwheel channel=6 pitch=-1536 time=0.016183027083333332
EXTRACT: pitchwheel channel=6 pitch=-1536 time=0
EXTRACT: pitchwheel channel=6 pitch=-1664 time=0.016183027083333332
EXTRACT: pitchwheel channel=6 pitch=-1664 time=0
EXTRACT: pitchwheel channel=6 pitch=-1792 time=0.016183027083333332
EXTRACT: pitchwheel channel=6 pitch=-1792 time=0
EXTRACT: pitchwheel channel=6 pitch=-1920 time=0.016183027083333332
EXTRACT: pitchwheel channel=6 pitch=-1920 time=0
EXTRACT: pitchwheel channel=6 pitch=-2048 time=0.016183027083333332
EXTRACT: pitchwheel channel=6 pitch=-2048 time=0
EXTRACT: pitchwheel channel=3 pitch=0 time=0.008928566666666667
EXTRACT: note_on channel=3 note=65 velocity=95 time=0
EXTRACT: note_off channel=5 note=64 velocity=95 time=0
EXTRACT: note_off channel=5 note=59 velocity=95 time=0
EXTRACT: note_off channel=5 note=55 velocity=95 time=0
EXTRACT: note_off channel=5 note=50 velocity=95 time=0
EXTRACT: note_off channel=7 note=33 velocity=95 time=0
EXTRACT: note_on channel=7 note=33 velocity=95 time=0
EXTRACT: note_off channel=8 note=23 velocity=95 time=0
EXTRACT: note_on channel=8 note=23 velocity=95 time=0
EXTRACT: note_on channel=10 note=40 velocity=95 time=0
EXTRACT: note_on channel=9 note=36 velocity=95 time=0
EXTRACT: pitchwheel channel=6 pitch=-2176 time=0.007254460416666667
EXTRACT: pitchwheel channel=6 pitch=-2176 time=0
EXTRACT: pitchwheel channel=6 pitch=-2304 time=0.016183027083333332
EXTRACT: pitchwheel channel=6 pitch=-2304 time=0
EXTRACT: pitchwheel channel=4 pitch=0 time=0.0100446375
EXTRACT: note_on channel=4 note=65 velocity=95 time=0
EXTRACT: pitchwheel channel=6 pitch=-2432 time=0.006138389583333333
EXTRACT: pitchwheel channel=6 pitch=-2432 time=0
EXTRACT: pitchwheel channel=6 pitch=-2560 time=0.016183027083333332
EXTRACT: pitchwheel channel=6 pitch=-2560 time=0
EXTRACT: note_off channel=10 note=40 velocity=95 time=0.011160708333333333
EXTRACT: pitchwheel channel=6 pitch=-2688 time=0.00502231875
EXTRACT: pitchwheel channel=6 pitch=-2688 time=0
EXTRACT: pitchwheel channel=6 pitch=-2816 time=0.016183027083333332
EXTRACT: pitchwheel channel=6 pitch=-2816 time=0
EXTRACT: pitchwheel channel=6 pitch=-2944 time=0.016183027083333332
EXTRACT: pitchwheel channel=6 pitch=-2944 time=0
EXTRACT: pitchwheel channel=6 pitch=-3072 time=0.016183027083333332
EXTRACT: pitchwheel channel=6 pitch=-3072 time=0
EXTRACT: pitchwheel channel=6 pitch=-3200 time=0.016183027083333332
EXTRACT: pitchwheel channel=6 pitch=-3200 time=0
EXTRACT: pitchwheel channel=6 pitch=-3328 time=0.016183027083333332
EXTRACT: pitchwheel channel=6 pitch=-3328 time=0
EXTRACT: pitchwheel channel=6 pitch=-3456 time=0.016183027083333332
EXTRACT: pitchwheel channel=6 pitch=-3456 time=0
EXTRACT: pitchwheel channel=6 pitch=-3584 time=0.016183027083333332
EXTRACT: pitchwheel channel=6 pitch=-3584 time=0
EXTRACT: pitchwheel channel=6 pitch=-3712 time=0.016183027083333332
EXTRACT: pitchwheel channel=6 pitch=-3712 time=0
EXTRACT: pitchwheel channel=6 pitch=-3840 time=0.016183027083333332
EXTRACT: pitchwheel channel=6 pitch=-3840 time=0
EXTRACT: pitchwheel channel=6 pitch=-3968 time=0.016183027083333332
EXTRACT: pitchwheel channel=6 pitch=-3968 time=0
EXTRACT: pitchwheel channel=6 pitch=-4096 time=0.016183027083333332
EXTRACT: pitchwheel channel=6 pitch=-4096 time=0
EXTRACT: pitchwheel channel=6 pitch=-4224 time=0.016183027083333332
EXTRACT: pitchwheel channel=6 pitch=-4224 time=0
EXTRACT: pitchwheel channel=3 pitch=0 time=0.0016741062500000002
EXTRACT: note_on channel=5 note=64 velocity=95 time=0
EXTRACT: note_on channel=5 note=59 velocity=95 time=0
EXTRACT: note_on channel=5 note=55 velocity=95 time=0
EXTRACT: note_on channel=5 note=50 velocity=95 time=0
EXTRACT: note_off channel=7 note=33 velocity=95 time=0
EXTRACT: note_off channel=9 note=36 velocity=95 time=0
EXTRACT: note_on channel=9 note=28 velocity=95 time=0
EXTRACT: note_on channel=9 note=39 velocity=95 time=0
EXTRACT: pitchwheel channel=6 pitch=-4352 time=0.014508920833333334
EXTRACT: pitchwheel channel=6 pitch=-4352 time=0
EXTRACT: pitchwheel channel=6 pitch=-4480 time=0.016183027083333332
EXTRACT: pitchwheel channel=6 pitch=-4480 time=0
EXTRACT: pitchwheel channel=4 pitch=0 time=0.0027901770833333333
EXTRACT: pitchwheel channel=6 pitch=-4608 time=0.013392850000000001
EXTRACT: pitchwheel channel=6 pitch=-4608 time=0
EXTRACT: pitchwheel channel=6 pitch=-4736 time=0.016183027083333332
EXTRACT: pitchwheel channel=6 pitch=-4736 time=0
EXTRACT: pitchwheel channel=6 pitch=-4864 time=0.016183027083333332
EXTRACT: pitchwheel channel=6 pitch=-4864 time=0
EXTRACT: pitchwheel channel=6 pitch=-4992 time=0.016183027083333332
EXTRACT: pitchwheel channel=6 pitch=-4992 time=0
EXTRACT: pitchwheel channel=6 pitch=-5120 time=0.016183027083333332
EXTRACT: pitchwheel channel=6 pitch=-5120 time=0
EXTRACT: pitchwheel channel=6 pitch=-5248 time=0.016183027083333332
EXTRACT: pitchwheel channel=6 pitch=-5248 time=0
EXTRACT: pitchwheel channel=3 pitch=128 time=0.006138389583333333
EXTRACT: pitchwheel channel=6 pitch=-5376 time=0.0100446375
EXTRACT: pitchwheel channel=6 pitch=-5376 time=0
EXTRACT: pitchwheel channel=6 pitch=-5504 time=0.016183027083333332
EXTRACT: pitchwheel channel=6 pitch=-5504 time=0
EXTRACT: pitchwheel channel=4 pitch=128 time=0.007254460416666667
EXTRACT: pitchwheel channel=6 pitch=-5632 time=0.008928566666666667
EXTRACT: pitchwheel channel=6 pitch=-5632 time=0
EXTRACT: pitchwheel channel=6 pitch=-5760 time=0.016183027083333332
EXTRACT: pitchwheel channel=6 pitch=-5760 time=0
EXTRACT: pitchwheel channel=6 pitch=-5888 time=0.016183027083333332
EXTRACT: pitchwheel channel=6 pitch=-5888 time=0
EXTRACT: pitchwheel channel=6 pitch=-6016 time=0.016183027083333332
EXTRACT: pitchwheel channel=6 pitch=-6016 time=0
EXTRACT: pitchwheel channel=6 pitch=-6144 time=0.016183027083333332
EXTRACT: pitchwheel channel=6 pitch=-6144 time=0
EXTRACT: pitchwheel channel=6 pitch=-6272 time=0.016183027083333332
EXTRACT: pitchwheel channel=6 pitch=-6272 time=0
EXTRACT: pitchwheel channel=3 pitch=256 time=0.010602672916666667
EXTRACT: pitchwheel channel=3 pitch=256 time=0
EXTRACT: pitchwheel channel=3 pitch=0 time=0
EXTRACT: note_off channel=3 note=65 velocity=95 time=0
EXTRACT: note_off channel=8 note=23 velocity=95 time=0
EXTRACT: pitchwheel channel=6 pitch=-6400 time=0.005580354166666667
EXTRACT: pitchwheel channel=6 pitch=-6400 time=0
EXTRACT: pitchwheel channel=6 pitch=-6528 time=0.016183027083333332
EXTRACT: pitchwheel channel=6 pitch=-6528 time=0
EXTRACT: pitchwheel channel=4 pitch=256 time=0.01171874375
EXTRACT: pitchwheel channel=4 pitch=256 time=0
EXTRACT: pitchwheel channel=4 pitch=0 time=0
EXTRACT: note_off channel=4 note=65 velocity=95 time=0
EXTRACT: pitchwheel channel=6 pitch=-6656 time=0.0044642833333333335
EXTRACT: pitchwheel channel=6 pitch=-6656 time=0
EXTRACT: pitchwheel channel=6 pitch=-6784 time=0.016183027083333332
EXTRACT: pitchwheel channel=6 pitch=-6784 time=0
EXTRACT: pitchwheel channel=6 pitch=-6912 time=0.016183027083333332
EXTRACT: pitchwheel channel=6 pitch=-6912 time=0
EXTRACT: pitchwheel channel=6 pitch=-7040 time=0.016183027083333332
EXTRACT: pitchwheel channel=6 pitch=-7040 time=0
EXTRACT: pitchwheel channel=6 pitch=-7168 time=0.016183027083333332
EXTRACT: pitchwheel channel=6 pitch=-7168 time=0
EXTRACT: pitchwheel channel=6 pitch=-7296 time=0.016183027083333332
EXTRACT: pitchwheel channel=6 pitch=-7296 time=0
EXTRACT: pitchwheel channel=6 pitch=-7424 time=0.016183027083333332
EXTRACT: pitchwheel channel=6 pitch=-7424 time=0
EXTRACT: pitchwheel channel=6 pitch=-7552 time=0.016183027083333332
EXTRACT: pitchwheel channel=6 pitch=-7552 time=0
EXTRACT: pitchwheel channel=6 pitch=-7680 time=0.016183027083333332
EXTRACT: pitchwheel channel=6 pitch=-7680 time=0
EXTRACT: pitchwheel channel=6 pitch=-7808 time=0.016183027083333332
EXTRACT: pitchwheel channel=6 pitch=-7808 time=0
EXTRACT: pitchwheel channel=6 pitch=-7936 time=0.016183027083333332
EXTRACT: pitchwheel channel=6 pitch=-7936 time=0
EXTRACT: pitchwheel channel=6 pitch=-8064 time=0.016183027083333332
EXTRACT: pitchwheel channel=6 pitch=-8064 time=0
EXTRACT: pitchwheel channel=6 pitch=-8192 time=0.016183027083333332
EXTRACT: pitchwheel channel=6 pitch=-8192 time=0
EXTRACT: pitchwheel channel=6 pitch=-8192 time=0.016183027083333332
EXTRACT: pitchwheel channel=6 pitch=-8192 time=0
EXTRACT: pitchwheel channel=6 pitch=-8192 time=0.016183027083333332
EXTRACT: pitchwheel channel=6 pitch=-8192 time=0
EXTRACT: note_on channel=1 note=71 velocity=95 time=0.0033482125000000003
EXTRACT: note_on channel=1 note=66 velocity=95 time=0
EXTRACT: note_on channel=1 note=63 velocity=95 time=0
EXTRACT: note_on channel=1 note=59 velocity=95 time=0
EXTRACT: note_on channel=1 note=47 velocity=95 time=0
EXTRACT: pitchwheel channel=3 pitch=0 time=0
EXTRACT: note_on channel=3 note=70 velocity=95 time=0
EXTRACT: pitchwheel channel=6 pitch=-8192 time=0
EXTRACT: pitchwheel channel=6 pitch=0 time=0
EXTRACT: note_off channel=6 note=53 velocity=95 time=0
EXTRACT: pitchwheel channel=6 pitch=-8192 time=0
EXTRACT: pitchwheel channel=6 pitch=0 time=0
EXTRACT: note_off channel=6 note=53 velocity=95 time=0
EXTRACT: note_on channel=7 note=33 velocity=95 time=0
EXTRACT: note_on channel=8 note=23 velocity=95 time=0
EXTRACT: note_on channel=10 note=40 velocity=95 time=0
EXTRACT: note_off channel=9 note=28 velocity=95 time=0
EXTRACT: note_off channel=9 note=39 velocity=95 time=0
EXTRACT: note_on channel=9 note=36 velocity=95 time=0
EXTRACT: pitchwheel channel=4 pitch=0 time=0.033482125
EXTRACT: note_on channel=4 note=70 velocity=95 time=0
EXTRACT: pitchwheel channel=3 pitch=-128 time=0.0027901770833333333
EXTRACT: note_off channel=10 note=40 velocity=95 time=0.030691947916666667
EXTRACT: pitchwheel channel=4 pitch=-128 time=0.0027901770833333333
EXTRACT: pitchwheel channel=3 pitch=-256 time=0.0027901770833333333
EXTRACT: pitchwheel channel=4 pitch=-256 time=0.033482125
EXTRACT: pitchwheel channel=3 pitch=-384 time=0.0027901770833333333
EXTRACT: pitchwheel channel=4 pitch=-384 time=0.033482125
EXTRACT: pitchwheel channel=3 pitch=-512 time=0.0027901770833333333
EXTRACT: pitchwheel channel=4 pitch=-512 time=0.033482125
EXTRACT: pitchwheel channel=3 pitch=-640 time=0.0027901770833333333
EXTRACT: pitchwheel channel=4 pitch=-640 time=0.033482125
EXTRACT: pitchwheel channel=3 pitch=-768 time=0.0027901770833333333
EXTRACT: pitchwheel channel=4 pitch=-768 time=0.033482125
EXTRACT: pitchwheel channel=3 pitch=-896 time=0.0027901770833333333
EXTRACT: note_off channel=5 note=64 velocity=95 time=0.013950885416666668
EXTRACT: note_off channel=5 note=59 velocity=95 time=0
EXTRACT: note_off channel=5 note=55 velocity=95 time=0
EXTRACT: note_off channel=5 note=50 velocity=95 time=0
EXTRACT: pitchwheel channel=4 pitch=-896 time=0.019531239583333335
EXTRACT: pitchwheel channel=3 pitch=-1024 time=0.0027901770833333333
EXTRACT: pitchwheel channel=4 pitch=-1024 time=0.033482125
EXTRACT: pitchwheel channel=3 pitch=-1152 time=0.0027901770833333333
EXTRACT: pitchwheel channel=4 pitch=-1152 time=0.033482125
EXTRACT: pitchwheel channel=3 pitch=-1280 time=0.0027901770833333333
EXTRACT: pitchwheel channel=4 pitch=-1280 time=0.033482125
EXTRACT: pitchwheel channel=3 pitch=-1408 time=0.0027901770833333333
EXTRACT: pitchwheel channel=3 pitch=-1408 time=0.0027901770833333333
EXTRACT: pitchwheel channel=3 pitch=0 time=0
EXTRACT: note_off channel=3 note=70 velocity=95 time=0
EXTRACT: pitchwheel channel=3 pitch=0 time=0
EXTRACT: note_on channel=3 note=68 velocity=95 time=0
EXTRACT: pitchwheel channel=4 pitch=-1408 time=0.030691947916666667
EXTRACT: pitchwheel channel=4 pitch=-1408 time=0.0027901770833333333
EXTRACT: pitchwheel channel=4 pitch=0 time=0
EXTRACT: note_off channel=4 note=70 velocity=95 time=0
EXTRACT: pitchwheel channel=4 pitch=0 time=0
EXTRACT: note_on channel=4 note=68 velocity=95 time=0
EXTRACT: pitchwheel channel=3 pitch=-128 time=0.020089275
EXTRACT: pitchwheel channel=4 pitch=-128 time=0.033482125
EXTRACT: pitchwheel channel=3 pitch=-256 time=0.020089275
EXTRACT: note_on channel=5 note=64 velocity=95 time=0.026785700000000003
EXTRACT: note_on channel=5 note=59 velocity=95 time=0
EXTRACT: note_on channel=5 note=55 velocity=95 time=0
EXTRACT: note_on channel=5 note=50 velocity=95 time=0
EXTRACT: note_off channel=7 note=33 velocity=95 time=0
EXTRACT: note_off channel=8 note=23 velocity=95 time=0
EXTRACT: note_off channel=9 note=36 velocity=95 time=0
EXTRACT: note_on channel=9 note=28 velocity=95 time=0
EXTRACT: note_on channel=9 note=39 velocity=95 time=0
EXTRACT: pitchwheel channel=4 pitch=-256 time=0.006696425000000001
EXTRACT: pitchwheel channel=3 pitch=-384 time=0.020089275
EXTRACT: pitchwheel channel=4 pitch=-384 time=0.033482125
EXTRACT: pitchwheel channel=3 pitch=-512 time=0.020089275
EXTRACT: pitchwheel channel=4 pitch=-512 time=0.033482125
EXTRACT: pitchwheel channel=3 pitch=-640 time=0.020089275
EXTRACT: pitchwheel channel=3 pitch=-640 time=0
EXTRACT: pitchwheel channel=3 pitch=0 time=0
EXTRACT: note_off channel=3 note=68 velocity=95 time=0
EXTRACT: note_on channel=3 note=67 velocity=95 time=0
EXTRACT: pitchwheel channel=4 pitch=-640 time=0.033482125
EXTRACT: pitchwheel channel=4 pitch=-640 time=0
EXTRACT: pitchwheel channel=4 pitch=0 time=0
EXTRACT: note_off channel=4 note=68 velocity=95 time=0
EXTRACT: note_on channel=4 note=67 velocity=95 time=0
EXTRACT: note_off channel=3 note=67 velocity=95 time=0.100446375
EXTRACT: pitchwheel channel=3 pitch=0 time=0
EXTRACT: note_on channel=3 note=67 velocity=95 time=0
EXTRACT: note_on channel=7 note=33 velocity=95 time=0
EXTRACT: note_on channel=8 note=23 velocity=95 time=0
EXTRACT: note_on channel=10 note=40 velocity=95 time=0
EXTRACT: note_off channel=9 note=28 velocity=95 time=0
EXTRACT: note_off channel=9 note=39 velocity=95 time=0
EXTRACT: note_on channel=9 note=36 velocity=95 time=0
EXTRACT: note_off channel=4 note=67 velocity=95 time=0.033482125
EXTRACT: pitchwheel channel=4 pitch=0 time=0
EXTRACT: note_on channel=4 note=67 velocity=95 time=0
EXTRACT: pitchwheel channel=3 pitch=-128 time=0.020089275
EXTRACT: note_off channel=10 note=40 velocity=95 time=0.013392850000000001
EXTRACT: pitchwheel channel=4 pitch=-128 time=0.020089275
EXTRACT: pitchwheel channel=3 pitch=-256 time=0.020089275
EXTRACT: pitchwheel channel=4 pitch=-256 time=0.033482125
EXTRACT: pitchwheel channel=3 pitch=-384 time=0.020089275
EXTRACT: pitchwheel channel=4 pitch=-384 time=0.033482125
EXTRACT: pitchwheel channel=3 pitch=-512 time=0.020089275
EXTRACT: pitchwheel channel=4 pitch=-512 time=0.033482125
EXTRACT: note_off channel=1 note=66 velocity=95 time=0.020089275
EXTRACT: note_off channel=1 note=59 velocity=95 time=0
EXTRACT: note_off channel=1 note=47 velocity=95 time=0
EXTRACT: note_on channel=1 note=70 velocity=95 time=0
EXTRACT: note_on channel=1 note=58 velocity=95 time=0
EXTRACT: note_on channel=1 note=46 velocity=95 time=0
EXTRACT: pitchwheel channel=3 pitch=-640 time=0
EXTRACT: pitchwheel channel=3 pitch=-640 time=0
EXTRACT: pitchwheel channel=3 pitch=0 time=0
EXTRACT: note_off channel=3 note=67 velocity=95 time=0
EXTRACT: pitchwheel channel=3 pitch=256 time=0
EXTRACT: note_on channel=3 note=67 velocity=95 time=0
EXTRACT: note_off channel=9 note=36 velocity=95 time=0
EXTRACT: pitchwheel channel=4 pitch=-640 time=0.033482125
EXTRACT: pitchwheel channel=4 pitch=-640 time=0
EXTRACT: pitchwheel channel=4 pitch=0 time=0
EXTRACT: note_off channel=4 note=67 velocity=95 time=0
EXTRACT: pitchwheel channel=4 pitch=256 time=0
EXTRACT: note_on channel=4 note=67 velocity=95 time=0
EXTRACT: pitchwheel channel=3 pitch=128 time=0.100446375
EXTRACT: pitchwheel channel=4 pitch=128 time=0.033482125
EXTRACT: pitchwheel channel=3 pitch=0 time=0.100446375
EXTRACT: pitchwheel channel=3 pitch=0 time=0
EXTRACT: pitchwheel channel=3 pitch=0 time=0
EXTRACT: note_off channel=3 note=67 velocity=95 time=0
EXTRACT: pitchwheel channel=3 pitch=0 time=0
EXTRACT: note_on channel=3 note=68 velocity=95 time=0
EXTRACT: note_off channel=5 note=64 velocity=95 time=0
EXTRACT: note_off channel=5 note=59 velocity=95 time=0
EXTRACT: note_off channel=5 note=55 velocity=95 time=0
EXTRACT: note_off channel=5 note=50 velocity=95 time=0
EXTRACT: note_off channel=7 note=33 velocity=95 time=0
EXTRACT: note_on channel=7 note=33 velocity=95 time=0
EXTRACT: note_off channel=8 note=23 velocity=95 time=0
EXTRACT: note_on channel=8 note=23 velocity=95 time=0
EXTRACT: note_on channel=10 note=40 velocity=95 time=0
EXTRACT: note_on channel=9 note=36 velocity=95 time=0
EXTRACT: pitchwheel channel=4 pitch=0 time=0.033482125
EXTRACT: pitchwheel channel=4 pitch=0 time=0
EXTRACT: pitchwheel channel=4 pitch=0 time=0
EXTRACT: note_off channel=4 note=67 velocity=95 time=0
EXTRACT: pitchwheel channel=4 pitch=0 time=0
EXTRACT: note_on channel=4 note=68 velocity=95 time=0
EXTRACT: pitchwheel channel=3 pitch=-128 time=0.020089275
EXTRACT: note_off channel=10 note=40 velocity=95 time=0.013392850000000001
EXTRACT: pitchwheel channel=4 pitch=-128 time=0.020089275
EXTRACT: pitchwheel channel=3 pitch=-256 time=0.020089275
EXTRACT: pitchwheel channel=4 pitch=-256 time=0.033482125
EXTRACT: pitchwheel channel=3 pitch=-384 time=0.020089275
EXTRACT: pitchwheel channel=4 pitch=-384 time=0.033482125
EXTRACT: pitchwheel channel=3 pitch=-512 time=0.020089275
EXTRACT: pitchwheel channel=4 pitch=-512 time=0.033482125
EXTRACT: pitchwheel channel=3 pitch=-640 time=0.020089275
EXTRACT: pitchwheel channel=3 pitch=-640 time=0
EXTRACT: pitchwheel channel=3 pitch=0 time=0
EXTRACT: note_off channel=3 note=68 velocity=95 time=0
EXTRACT: pitchwheel channel=3 pitch=0 time=0
EXTRACT: note_on channel=3 note=68 velocity=95 time=0
EXTRACT: note_on channel=5 note=64 velocity=95 time=0
EXTRACT: note_on channel=5 note=59 velocity=95 time=0
EXTRACT: note_on channel=5 note=55 velocity=95 time=0
EXTRACT: note_on channel=5 note=50 velocity=95 time=0
EXTRACT: note_off channel=7 note=33 velocity=95 time=0
EXTRACT: note_off channel=9 note=36 velocity=95 time=0
EXTRACT: note_on channel=9 note=28 velocity=95 time=0
EXTRACT: note_on channel=9 note=39 velocity=95 time=0
EXTRACT: pitchwheel channel=3 pitch=-128 time=0.021205345833333333
EXTRACT: pitchwheel channel=4 pitch=-640 time=0.012276779166666666
EXTRACT: pitchwheel channel=4 pitch=-640 time=0
EXTRACT: pitchwheel channel=4 pitch=0 time=0
EXTRACT: note_off channel=4 note=68 velocity=95 time=0
EXTRACT: pitchwheel channel=4 pitch=0 time=0
EXTRACT: note_on channel=4 note=68 velocity=95 time=0
EXTRACT: pitchwheel channel=3 pitch=-256 time=0.008928566666666667
EXTRACT: pitchwheel channel=4 pitch=-128 time=0.012276779166666666
EXTRACT: pitchwheel channel=3 pitch=-384 time=0.008928566666666667
EXTRACT: pitchwheel channel=4 pitch=-256 time=0.012276779166666666
EXTRACT: pitchwheel channel=3 pitch=-512 time=0.008928566666666667
EXTRACT: pitchwheel channel=4 pitch=-384 time=0.012276779166666666
EXTRACT: pitchwheel channel=3 pitch=-640 time=0.008928566666666667
EXTRACT: pitchwheel channel=4 pitch=-512 time=0.012276779166666666
EXTRACT: pitchwheel channel=3 pitch=-768 time=0.008928566666666667
EXTRACT: pitchwheel channel=4 pitch=-640 time=0.012276779166666666
EXTRACT: pitchwheel channel=3 pitch=-896 time=0.008928566666666667
EXTRACT: pitchwheel channel=4 pitch=-768 time=0.012276779166666666
EXTRACT: pitchwheel channel=3 pitch=-1024 time=0.008928566666666667
EXTRACT: pitchwheel channel=4 pitch=-896 time=0.012276779166666666
EXTRACT: pitchwheel channel=3 pitch=-1152 time=0.008928566666666667
EXTRACT: pitchwheel channel=4 pitch=-1024 time=0.012276779166666666
EXTRACT: pitchwheel channel=3 pitch=-1280 time=0.008928566666666667
EXTRACT: pitchwheel channel=4 pitch=-1152 time=0.012276779166666666
EXTRACT: pitchwheel channel=3 pitch=-1408 time=0.008928566666666667
EXTRACT: pitchwheel channel=3 pitch=-1408 time=0.0011160708333333334
EXTRACT: pitchwheel channel=3 pitch=0 time=0
EXTRACT: note_off channel=3 note=68 velocity=95 time=0
EXTRACT: pitchwheel channel=4 pitch=-1280 time=0.011160708333333333
EXTRACT: pitchwheel channel=4 pitch=-1408 time=0.021205345833333333
EXTRACT: pitchwheel channel=3 pitch=0 time=0.0011160708333333334
EXTRACT: note_on channel=3 note=66 velocity=95 time=0
EXTRACT: pitchwheel channel=4 pitch=-1408 time=0
EXTRACT: pitchwheel channel=4 pitch=0 time=0
EXTRACT: note_off channel=4 note=68 velocity=95 time=0
EXTRACT: note_off channel=8 note=23 velocity=95 time=0
EXTRACT: pitchwheel channel=4 pitch=0 time=0.033482125
EXTRACT: note_on channel=4 note=66 velocity=95 time=0
EXTRACT: pitchwheel channel=3 pitch=128 time=0.033482125
EXTRACT: pitchwheel channel=4 pitch=128 time=0.033482125
EXTRACT: pitchwheel channel=3 pitch=256 time=0.033482125
EXTRACT: pitchwheel channel=3 pitch=256 time=0
EXTRACT: pitchwheel channel=3 pitch=0 time=0
EXTRACT: note_off channel=3 note=66 velocity=95 time=0
EXTRACT: pitchwheel channel=3 pitch=0 time=0
EXTRACT: note_on channel=3 note=66 velocity=95 time=0
EXTRACT: pitchwheel channel=4 pitch=256 time=0.033482125
EXTRACT: pitchwheel channel=4 pitch=256 time=0
EXTRACT: pitchwheel channel=4 pitch=0 time=0
EXTRACT: note_off channel=4 note=66 velocity=95 time=0
EXTRACT: pitchwheel channel=4 pitch=0 time=0
EXTRACT: note_on channel=4 note=66 velocity=95 time=0
EXTRACT: pitchwheel channel=3 pitch=128 time=0.033482125
EXTRACT: pitchwheel channel=4 pitch=128 time=0.033482125
EXTRACT: note_off channel=1 note=71 velocity=95 time=0.033482125
EXTRACT: note_off channel=1 note=63 velocity=95 time=0
EXTRACT: note_off channel=1 note=70 velocity=95 time=0
EXTRACT: note_off channel=1 note=58 velocity=95 time=0
EXTRACT: note_off channel=1 note=46 velocity=95 time=0
EXTRACT: note_on channel=1 note=71 velocity=95 time=0
EXTRACT: note_on channel=1 note=66 velocity=95 time=0
EXTRACT: note_on channel=1 note=63 velocity=95 time=0
EXTRACT: note_on channel=1 note=59 velocity=95 time=0
EXTRACT: note_on channel=1 note=47 velocity=95 time=0
EXTRACT: pitchwheel channel=3 pitch=256 time=0
EXTRACT: pitchwheel channel=3 pitch=256 time=0
EXTRACT: pitchwheel channel=3 pitch=0 time=0
EXTRACT: note_off channel=3 note=66 velocity=95 time=0
EXTRACT: pitchwheel channel=3 pitch=1024 time=0
EXTRACT: note_on channel=3 note=66 velocity=95 time=0
EXTRACT: note_on channel=7 note=33 velocity=95 time=0
EXTRACT: note_on channel=8 note=23 velocity=95 time=0
EXTRACT: note_on channel=10 note=40 velocity=95 time=0
EXTRACT: note_off channel=9 note=28 velocity=95 time=0
EXTRACT: note_off channel=9 note=39 velocity=95 time=0
EXTRACT: note_on channel=9 note=36 velocity=95 time=0
EXTRACT: pitchwheel channel=4 pitch=256 time=0.033482125
EXTRACT: pitchwheel channel=4 pitch=256 time=0
EXTRACT: pitchwheel channel=4 pitch=0 time=0
EXTRACT: note_off channel=4 note=66 velocity=95 time=0
EXTRACT: pitchwheel channel=4 pitch=1024 time=0
EXTRACT: note_on channel=4 note=66 velocity=95 time=0
EXTRACT: pitchwheel channel=3 pitch=896 time=0.005580354166666667
EXTRACT: note_off channel=10 note=40 velocity=95 time=0.027901770833333336
EXTRACT: pitchwheel channel=4 pitch=896 time=0.005580354166666667
EXTRACT: pitchwheel channel=3 pitch=768 time=0.005580354166666667
EXTRACT: pitchwheel channel=4 pitch=768 time=0.033482125
EXTRACT: pitchwheel channel=3 pitch=640 time=0.005580354166666667
EXTRACT: pitchwheel channel=4 pitch=640 time=0.033482125
EXTRACT: pitchwheel channel=3 pitch=512 time=0.005580354166666667
EXTRACT: pitchwheel channel=4 pitch=512 time=0.033482125
EXTRACT: pitchwheel channel=3 pitch=384 time=0.005580354166666667
EXTRACT: pitchwheel channel=4 pitch=384 time=0.033482125
EXTRACT: pitchwheel channel=3 pitch=256 time=0.005580354166666667
EXTRACT: pitchwheel channel=3 pitch=256 time=0
EXTRACT: pitchwheel channel=3 pitch=0 time=0
EXTRACT: note_off channel=3 note=66 velocity=95 time=0
EXTRACT: pitchwheel channel=3 pitch=1024 time=0.033482125
EXTRACT: note_on channel=3 note=66 velocity=95 time=0
EXTRACT: pitchwheel channel=4 pitch=256 time=0
EXTRACT: pitchwheel channel=4 pitch=256 time=0
EXTRACT: pitchwheel channel=4 pitch=0 time=0
EXTRACT: note_off channel=4 note=66 velocity=95 time=0
EXTRACT: note_off channel=5 note=64 velocity=95 time=0
EXTRACT: note_off channel=5 note=59 velocity=95 time=0
EXTRACT: note_off channel=5 note=55 velocity=95 time=0
EXTRACT: note_off channel=5 note=50 velocity=95 time=0
EXTRACT: pitchwheel channel=3 pitch=896 time=0.022321416666666666
EXTRACT: pitchwheel channel=4 pitch=1024 time=0.011160708333333333
EXTRACT: note_on channel=4 note=66 velocity=95 time=0
EXTRACT: pitchwheel channel=3 pitch=768 time=0.011160708333333333
EXTRACT: pitchwheel channel=4 pitch=896 time=0.011160708333333333
EXTRACT: pitchwheel channel=3 pitch=640 time=0.011160708333333333
EXTRACT: pitchwheel channel=4 pitch=768 time=0.011160708333333333
EXTRACT: pitchwheel channel=3 pitch=512 time=0.011160708333333333
EXTRACT: pitchwheel channel=4 pitch=640 time=0.011160708333333333
EXTRACT: pitchwheel channel=3 pitch=384 time=0.011160708333333333
EXTRACT: pitchwheel channel=4 pitch=512 time=0.011160708333333333
EXTRACT: pitchwheel channel=3 pitch=256 time=0.011160708333333333
EXTRACT: pitchwheel channel=3 pitch=256 time=0
EXTRACT: pitchwheel channel=3 pitch=0 time=0
EXTRACT: note_off channel=3 note=66 velocity=95 time=0
EXTRACT: pitchwheel channel=3 pitch=256 time=0
EXTRACT: note_on channel=3 note=67 velocity=95 time=0
EXTRACT: pitchwheel channel=4 pitch=384 time=0.011160708333333333
EXTRACT: pitchwheel channel=4 pitch=256 time=0.022321416666666666
EXTRACT: pitchwheel channel=4 pitch=256 time=0
EXTRACT: pitchwheel channel=4 pitch=0 time=0
EXTRACT: note_off channel=4 note=66 velocity=95 time=0
EXTRACT: pitchwheel channel=4 pitch=256 time=0
EXTRACT: note_on channel=4 note=67 velocity=95 time=0
EXTRACT: pitchwheel channel=3 pitch=128 time=0.100446375
EXTRACT: note_on channel=5 note=64 velocity=95 time=0
EXTRACT: note_on channel=5 note=59 velocity=95 time=0
EXTRACT: note_on channel=5 note=55 velocity=95 time=0
EXTRACT: note_on channel=5 note=50 velocity=95 time=0
EXTRACT: note_off channel=7 note=33 velocity=95 time=0
EXTRACT: note_off channel=8 note=23 velocity=95 time=0
EXTRACT: note_off channel=9 note=36 velocity=95 time=0
EXTRACT: note_on channel=9 note=28 velocity=95 time=0
EXTRACT: note_on channel=9 note=39 velocity=95 time=0
EXTRACT: pitchwheel channel=4 pitch=128 time=0.033482125
EXTRACT: pitchwheel channel=3 pitch=0 time=0.100446375
EXTRACT: pitchwheel channel=3 pitch=0 time=0
EXTRACT: pitchwheel channel=3 pitch=0 time=0
EXTRACT: note_off channel=3 note=67 velocity=95 time=0
EXTRACT: pitchwheel channel=3 pitch=0 time=0
EXTRACT: note_on channel=3 note=66 velocity=95 time=0
EXTRACT: note_on channel=7 note=33 velocity=95 time=0
EXTRACT: note_on channel=8 note=23 velocity=95 time=0
EXTRACT: note_on channel=10 note=40 velocity=95 time=0
EXTRACT: note_off channel=9 note=28 velocity=95 time=0
EXTRACT: note_off channel=9 note=39 velocity=95 time=0
EXTRACT: note_on channel=9 note=36 velocity=95 time=0
EXTRACT: pitchwheel channel=3 pitch=128 time=0.026785700000000003
EXTRACT: pitchwheel channel=4 pitch=0 time=0.006696425000000001
EXTRACT: pitchwheel channel=4 pitch=0 time=0
EXTRACT: pitchwheel channel=4 pitch=0 time=0
EXTRACT: note_off channel=4 note=67 velocity=95 time=0
EXTRACT: pitchwheel channel=4 pitch=0 time=0
EXTRACT: note_on channel=4 note=66 velocity=95 time=0
EXTRACT: pitchwheel channel=3 pitch=256 time=0.020089275
EXTRACT: pitchwheel channel=4 pitch=128 time=0.006696425000000001
EXTRACT: note_off channel=10 note=40 velocity=95 time=0.006696425000000001
EXTRACT: pitchwheel channel=3 pitch=384 time=0.013392850000000001
EXTRACT: pitchwheel channel=4 pitch=256 time=0.006696425000000001
EXTRACT: pitchwheel channel=3 pitch=512 time=0.020089275
EXTRACT: pitchwheel channel=4 pitch=384 time=0.006696425000000001
EXTRACT: pitchwheel channel=3 pitch=640 time=0.020089275
EXTRACT: pitchwheel channel=3 pitch=640 time=0
EXTRACT: pitchwheel channel=3 pitch=0 time=0
EXTRACT: note_off channel=3 note=66 velocity=95 time=0
EXTRACT: pitchwheel channel=3 pitch=0 time=0
EXTRACT: note_on channel=3 note=67 velocity=95 time=0
EXTRACT: note_off channel=7 note=33 velocity=95 time=0
EXTRACT: note_on channel=7 note=33 velocity=95 time=0
EXTRACT: note_off channel=8 note=23 velocity=95 time=0
EXTRACT: note_on channel=8 note=23 velocity=95 time=0
EXTRACT: note_on channel=10 note=40 velocity=95 time=0
EXTRACT: note_off channel=9 note=36 velocity=95 time=0
EXTRACT: note_on channel=9 note=36 velocity=95 time=0
EXTRACT: pitchwheel channel=4 pitch=512 time=0.006696425000000001
EXTRACT: pitchwheel channel=4 pitch=640 time=0.026785700000000003
EXTRACT: pitchwheel channel=4 pitch=640 time=0
EXTRACT: pitchwheel channel=4 pitch=0 time=0
EXTRACT: note_off channel=4 note=66 velocity=95 time=0
EXTRACT: pitchwheel channel=4 pitch=0 time=0
EXTRACT: note_on channel=4 note=67 velocity=95 time=0
EXTRACT: pitchwheel channel=3 pitch=-128 time=0.020089275
EXTRACT: note_off channel=10 note=40 velocity=95 time=0.013392850000000001
EXTRACT: pitchwheel channel=4 pitch=-128 time=0.020089275
EXTRACT: pitchwheel channel=3 pitch=-256 time=0.020089275
EXTRACT: pitchwheel channel=4 pitch=-256 time=0.033482125
EXTRACT: pitchwheel channel=3 pitch=-384 time=0.020089275
EXTRACT: pitchwheel channel=4 pitch=-384 time=0.033482125
EXTRACT: pitchwheel channel=3 pitch=-512 time=0.020089275
EXTRACT: pitchwheel channel=4 pitch=-512 time=0.033482125
EXTRACT: note_off channel=1 note=71 velocity=95 time=0.020089275
EXTRACT: note_off channel=1 note=66 velocity=95 time=0
EXTRACT: note_off channel=1 note=63 velocity=95 time=0
EXTRACT: note_off channel=1 note=59 velocity=95 time=0
EXTRACT: note_off channel=1 note=47 velocity=95 time=0
EXTRACT: note_on channel=1 note=68 velocity=95 time=0
EXTRACT: note_on channel=1 note=65 velocity=95 time=0
EXTRACT: note_on channel=1 note=61 velocity=95 time=0
EXTRACT: note_on channel=1 note=46 velocity=95 time=0
EXTRACT: pitchwheel channel=2 pitch=0 time=0
EXTRACT: note_on channel=2 note=73 velocity=95 time=0
EXTRACT: pitchwheel channel=3 pitch=-640 time=0
EXTRACT: pitchwheel channel=3 pitch=-640 time=0
EXTRACT: pitchwheel channel=3 pitch=0 time=0
EXTRACT: note_off channel=3 note=67 velocity=95 time=0
EXTRACT: pitchwheel channel=3 pitch=0 time=0
EXTRACT: note_on channel=3 note=67 velocity=95 time=0
EXTRACT: pitchwheel channel=6 pitch=0 time=0
EXTRACT: note_on channel=6 note=53 velocity=95 time=0
EXTRACT: pitchwheel channel=6 pitch=0 time=0
EXTRACT: note_on channel=6 note=53 velocity=95 time=0
EXTRACT: note_off channel=7 note=33 velocity=95 time=0
EXTRACT: note_off channel=9 note=36 velocity=95 time=0
EXTRACT: pitchwheel channel=6 pitch=-128 time=0.016183027083333332
EXTRACT: pitchwheel channel=6 pitch=-128 time=0
EXTRACT: pitchwheel channel=6 pitch=-256 time=0.016183027083333332
EXTRACT: pitchwheel channel=6 pitch=-256 time=0
EXTRACT: pitchwheel channel=4 pitch=-640 time=0.0011160708333333334
EXTRACT: pitchwheel channel=4 pitch=-640 time=0
EXTRACT: pitchwheel channel=4 pitch=0 time=0
EXTRACT: note_off channel=4 note=67 velocity=95 time=0
EXTRACT: pitchwheel channel=4 pitch=0 time=0
EXTRACT: note_on channel=4 note=67 velocity=95 time=0
EXTRACT: pitchwheel channel=6 pitch=-384 time=0.015066956250000001
EXTRACT: pitchwheel channel=6 pitch=-384 time=0
EXTRACT: pitchwheel channel=3 pitch=-128 time=0.00502231875
EXTRACT: pitchwheel channel=6 pitch=-512 time=0.011160708333333333
EXTRACT: pitchwheel channel=6 pitch=-512 time=0
EXTRACT: pitchwheel channel=6 pitch=-640 time=0.016183027083333332
EXTRACT: pitchwheel channel=6 pitch=-640 time=0
EXTRACT: pitchwheel channel=4 pitch=-128 time=0.006138389583333333
EXTRACT: pitchwheel channel=6 pitch=-768 time=0.0100446375
EXTRACT: pitchwheel channel=6 pitch=-768 time=0
EXTRACT: pitchwheel channel=3 pitch=-256 time=0.0100446375
EXTRACT: pitchwheel channel=6 pitch=-896 time=0.006138389583333333
EXTRACT: pitchwheel channel=6 pitch=-896 time=0
EXTRACT: pitchwheel channel=6 pitch=-1024 time=0.016183027083333332
EXTRACT: pitchwheel channel=6 pitch=-1024 time=0
EXTRACT: pitchwheel channel=4 pitch=-256 time=0.011160708333333333
EXTRACT: pitchwheel channel=6 pitch=-1152 time=0.00502231875
EXTRACT: pitchwheel channel=6 pitch=-1152 time=0
EXTRACT: pitchwheel channel=3 pitch=-384 time=0.015066956250000001
EXTRACT: pitchwheel channel=6 pitch=-1280 time=0.0011160708333333334
EXTRACT: pitchwheel channel=6 pitch=-1280 time=0
EXTRACT: pitchwheel channel=6 pitch=-1408 time=0.016183027083333332
EXTRACT: pitchwheel channel=6 pitch=-1408 time=0
EXTRACT: pitchwheel channel=4 pitch=-384 time=0.016183027083333332
EXTRACT: pitchwheel channel=6 pitch=-1536 time=0
EXTRACT: pitchwheel channel=6 pitch=-1536 time=0
EXTRACT: pitchwheel channel=6 pitch=-1664 time=0.016183027083333332
EXTRACT: pitchwheel channel=6 pitch=-1664 time=0
EXTRACT: pitchwheel channel=3 pitch=-512 time=0.003906247916666667
EXTRACT: pitchwheel channel=6 pitch=-1792 time=0.012276779166666666
EXTRACT: pitchwheel channel=6 pitch=-1792 time=0
EXTRACT: pitchwheel channel=6 pitch=-1920 time=0.016183027083333332
EXTRACT: pitchwheel channel=6 pitch=-1920 time=0
EXTRACT: pitchwheel channel=4 pitch=-512 time=0.00502231875
EXTRACT: pitchwheel channel=6 pitch=-2048 time=0.011160708333333333
EXTRACT: pitchwheel channel=6 pitch=-2048 time=0
EXTRACT: pitchwheel channel=3 pitch=-640 time=0.008928566666666667
EXTRACT: pitchwheel channel=3 pitch=-640 time=0
EXTRACT: pitchwheel channel=3 pitch=0 time=0
EXTRACT: note_off channel=3 note=67 velocity=95 time=0
EXTRACT: pitchwheel channel=3 pitch=0 time=0
EXTRACT: note_on channel=3 note=66 velocity=95 time=0
EXTRACT: note_off channel=5 note=64 velocity=95 time=0
EXTRACT: note_off channel=5 note=59 velocity=95 time=0
EXTRACT: note_off channel=5 note=55 velocity=95 time=0
EXTRACT: note_off channel=5 note=50 velocity=95 time=0
EXTRACT: note_on channel=7 note=33 velocity=95 time=0
EXTRACT: note_off channel=8 note=23 velocity=95 time=0
EXTRACT: note_on channel=8 note=23 velocity=95 time=0
EXTRACT: note_on channel=10 note=40 velocity=95 time=0
EXTRACT: note_on channel=9 note=36 velocity=95 time=0
EXTRACT: pitchwheel channel=6 pitch=-2176 time=0.007254460416666667
EXTRACT: pitchwheel channel=6 pitch=-2176 time=0
EXTRACT: pitchwheel channel=6 pitch=-2304 time=0.016183027083333332
EXTRACT: pitchwheel channel=6 pitch=-2304 time=0
EXTRACT: pitchwheel channel=4 pitch=-640 time=0.0100446375
EXTRACT: pitchwheel channel=4 pitch=-640 time=0
EXTRACT: pitchwheel channel=4 pitch=0 time=0
EXTRACT: note_off channel=4 note=67 velocity=95 time=0
EXTRACT: pitchwheel channel=4 pitch=0 time=0
EXTRACT: note_on channel=4 note=66 velocity=95 time=0
EXTRACT: pitchwheel channel=6 pitch=-2432 time=0.006138389583333333
EXTRACT: pitchwheel channel=6 pitch=-2432 time=0
EXTRACT: pitchwheel channel=6 pitch=-2560 time=0.016183027083333332
EXTRACT: pitchwheel channel=6 pitch=-2560 time=0
EXTRACT: note_off channel=10 note=40 velocity=95 time=0.011160708333333333
EXTRACT: pitchwheel channel=6 pitch=-2688 time=0.00502231875
EXTRACT: pitchwheel channel=6 pitch=-2688 time=0
EXTRACT: pitchwheel channel=6 pitch=-2816 time=0.016183027083333332
EXTRACT: pitchwheel channel=6 pitch=-2816 time=0
EXTRACT: pitchwheel channel=6 pitch=-2944 time=0.016183027083333332
EXTRACT: pitchwheel channel=6 pitch=-2944 time=0
EXTRACT: pitchwheel channel=6 pitch=-3072 time=0.016183027083333332
EXTRACT: pitchwheel channel=6 pitch=-3072 time=0
EXTRACT: pitchwheel channel=3 pitch=128 time=0.013392850000000001
EXTRACT: pitchwheel channel=6 pitch=-3200 time=0.0027901770833333333
EXTRACT: pitchwheel channel=6 pitch=-3200 time=0
EXTRACT: pitchwheel channel=6 pitch=-3328 time=0.016183027083333332
EXTRACT: pitchwheel channel=6 pitch=-3328 time=0
EXTRACT: pitchwheel channel=4 pitch=128 time=0.014508920833333334
EXTRACT: pitchwheel channel=6 pitch=-3456 time=0.0016741062500000002
EXTRACT: pitchwheel channel=6 pitch=-3456 time=0
EXTRACT: pitchwheel channel=6 pitch=-3584 time=0.016183027083333332
EXTRACT: pitchwheel channel=6 pitch=-3584 time=0
EXTRACT: pitchwheel channel=6 pitch=-3712 time=0.016183027083333332
EXTRACT: pitchwheel channel=6 pitch=-3712 time=0
EXTRACT: pitchwheel channel=6 pitch=-3840 time=0.016183027083333332
EXTRACT: pitchwheel channel=6 pitch=-3840 time=0
EXTRACT: pitchwheel channel=6 pitch=-3968 time=0.016183027083333332
EXTRACT: pitchwheel channel=6 pitch=-3968 time=0
EXTRACT: pitchwheel channel=6 pitch=-4096 time=0.016183027083333332
EXTRACT: pitchwheel channel=6 pitch=-4096 time=0
EXTRACT: pitchwheel channel=6 pitch=-4224 time=0.016183027083333332
EXTRACT: pitchwheel channel=6 pitch=-4224 time=0
EXTRACT: pitchwheel channel=3 pitch=256 time=0.0016741062500000002
EXTRACT: pitchwheel channel=3 pitch=256 time=0
EXTRACT: pitchwheel channel=3 pitch=0 time=0
EXTRACT: note_off channel=3 note=66 velocity=95 time=0
EXTRACT: pitchwheel channel=3 pitch=0 time=0
EXTRACT: note_on channel=3 note=67 velocity=95 time=0
EXTRACT: note_on channel=5 note=64 velocity=95 time=0
EXTRACT: note_on channel=5 note=59 velocity=95 time=0
EXTRACT: note_on channel=5 note=55 velocity=95 time=0
EXTRACT: note_on channel=5 note=50 velocity=95 time=0
EXTRACT: note_off channel=7 note=33 velocity=95 time=0
EXTRACT: note_off channel=9 note=36 velocity=95 time=0
EXTRACT: note_on channel=9 note=28 velocity=95 time=0
EXTRACT: note_on channel=9 note=39 velocity=95 time=0
EXTRACT: pitchwheel channel=6 pitch=-4352 time=0.014508920833333334
EXTRACT: pitchwheel channel=6 pitch=-4352 time=0
EXTRACT: pitchwheel channel=3 pitch=-128 time=0.0033482125000000003
EXTRACT: pitchwheel channel=6 pitch=-4480 time=0.012834814583333333
EXTRACT: pitchwheel channel=6 pitch=-4480 time=0
EXTRACT: pitchwheel channel=4 pitch=256 time=0.0027901770833333333
EXTRACT: pitchwheel channel=4 pitch=256 time=0
EXTRACT: pitchwheel channel=4 pitch=0 time=0
EXTRACT: note_off channel=4 note=66 velocity=95 time=0
EXTRACT: pitchwheel channel=4 pitch=0 time=0
EXTRACT: note_on channel=4 note=67 velocity=95 time=0
EXTRACT: pitchwheel channel=3 pitch=-256 time=0.0022321416666666667
EXTRACT: pitchwheel channel=6 pitch=-4608 time=0.011160708333333333
EXTRACT: pitchwheel channel=6 pitch=-4608 time=0
EXTRACT: pitchwheel channel=4 pitch=-128 time=0.0044642833333333335
EXTRACT: pitchwheel channel=3 pitch=-384 time=0.0022321416666666667
EXTRACT: pitchwheel channel=6 pitch=-4736 time=0.009486602083333334
EXTRACT: pitchwheel channel=6 pitch=-4736 time=0
EXTRACT: pitchwheel channel=4 pitch=-256 time=0.006138389583333333
EXTRACT: pitchwheel channel=3 pitch=-512 time=0.0022321416666666667
EXTRACT: pitchwheel channel=6 pitch=-4864 time=0.007812495833333334
EXTRACT: pitchwheel channel=6 pitch=-4864 time=0
EXTRACT: pitchwheel channel=4 pitch=-384 time=0.007812495833333334
EXTRACT: pitchwheel channel=3 pitch=-640 time=0.0022321416666666667
EXTRACT: pitchwheel channel=6 pitch=-4992 time=0.006138389583333333
EXTRACT: pitchwheel channel=6 pitch=-4992 time=0
EXTRACT: pitchwheel channel=4 pitch=-512 time=0.009486602083333334
EXTRACT: pitchwheel channel=3 pitch=-768 time=0.0022321416666666667
EXTRACT: pitchwheel channel=6 pitch=-5120 time=0.0044642833333333335
EXTRACT: pitchwheel channel=6 pitch=-5120 time=0
EXTRACT: pitchwheel channel=4 pitch=-640 time=0.011160708333333333
EXTRACT: pitchwheel channel=3 pitch=-896 time=0.0022321416666666667
EXTRACT: pitchwheel channel=6 pitch=-5248 time=0.0027901770833333333
EXTRACT: pitchwheel channel=6 pitch=-5248 time=0
EXTRACT: pitchwheel channel=4 pitch=-768 time=0.012834814583333333
EXTRACT: pitchwheel channel=3 pitch=-1024 time=0.0022321416666666667
EXTRACT: pitchwheel channel=6 pitch=-5376 time=0.0011160708333333334
EXTRACT: pitchwheel channel=6 pitch=-5376 time=0
EXTRACT: pitchwheel channel=4 pitch=-896 time=0.014508920833333334
EXTRACT: pitchwheel channel=6 pitch=-5504 time=0.0016741062500000002
EXTRACT: pitchwheel channel=6 pitch=-5504 time=0
EXTRACT: pitchwheel channel=3 pitch=-1152 time=0.0005580354166666667
EXTRACT: pitchwheel channel=4 pitch=-1024 time=0.015624991666666668
EXTRACT: pitchwheel channel=6 pitch=-5632 time=0
EXTRACT: pitchwheel channel=6 pitch=-5632 time=0
EXTRACT: pitchwheel channel=3 pitch=-1280 time=0.0022321416666666667
EXTRACT: pitchwheel channel=6 pitch=-5760 time=0.013950885416666668
EXTRACT: pitchwheel channel=6 pitch=-5760 time=0
EXTRACT: pitchwheel channel=4 pitch=-1152 time=0.0016741062500000002
EXTRACT: pitchwheel channel=3 pitch=-1408 time=0.0022321416666666667
EXTRACT: pitchwheel channel=3 pitch=-1408 time=0.0044642833333333335
EXTRACT: pitchwheel channel=3 pitch=0 time=0
EXTRACT: note_off channel=3 note=67 velocity=95 time=0
EXTRACT: pitchwheel channel=6 pitch=-5888 time=0.007812495833333334
EXTRACT: pitchwheel channel=6 pitch=-5888 time=0
EXTRACT: pitchwheel channel=4 pitch=-1280 time=0.0033482125000000003
EXTRACT: pitchwheel channel=6 pitch=-6016 time=0.012834814583333333
EXTRACT: pitchwheel channel=6 pitch=-6016 time=0
EXTRACT: pitchwheel channel=4 pitch=-1408 time=0.00502231875
EXTRACT: pitchwheel channel=4 pitch=-1408 time=0.0044642833333333335
EXTRACT: pitchwheel channel=4 pitch=0 time=0
EXTRACT: note_off channel=4 note=67 velocity=95 time=0
EXTRACT: pitchwheel channel=6 pitch=-6144 time=0.006696425000000001
EXTRACT: pitchwheel channel=6 pitch=-6144 time=0
EXTRACT: pitchwheel channel=6 pitch=-6272 time=0.016183027083333332
EXTRACT: pitchwheel channel=6 pitch=-6272 time=0
EXTRACT: pitchwheel channel=3 pitch=0 time=0.010602672916666667
EXTRACT: note_on channel=3 note=66 velocity=95 time=0
EXTRACT: note_off channel=8 note=23 velocity=95 time=0
EXTRACT: pitchwheel channel=6 pitch=-6400 time=0.005580354166666667
EXTRACT: pitchwheel channel=6 pitch=-6400 time=0
EXTRACT: pitchwheel channel=6 pitch=-6528 time=0.016183027083333332
EXTRACT: pitchwheel channel=6 pitch=-6528 time=0
EXTRACT: pitchwheel channel=4 pitch=0 time=0.01171874375
EXTRACT: note_on channel=4 note=66 velocity=95 time=0
EXTRACT: pitchwheel channel=6 pitch=-6656 time=0.0044642833333333335
EXTRACT: pitchwheel channel=6 pitch=-6656 time=0
EXTRACT: pitchwheel channel=6 pitch=-6784 time=0.016183027083333332
EXTRACT: pitchwheel channel=6 pitch=-6784 time=0
EXTRACT: pitchwheel channel=3 pitch=128 time=0.012834814583333333
EXTRACT: pitchwheel channel=6 pitch=-6912 time=0.0033482125000000003
EXTRACT: pitchwheel channel=6 pitch=-6912 time=0
EXTRACT: pitchwheel channel=6 pitch=-7040 time=0.016183027083333332
EXTRACT: pitchwheel channel=6 pitch=-7040 time=0
EXTRACT: pitchwheel channel=2 pitch=0 time=0.0027901770833333333
EXTRACT: pitchwheel channel=4 pitch=128 time=0.011160708333333333
EXTRACT: pitchwheel channel=6 pitch=-7168 time=0.0022321416666666667
EXTRACT: pitchwheel channel=6 pitch=-7168 time=0
EXTRACT: pitchwheel channel=2 pitch=-128 time=0.0005580354166666667
EXTRACT: pitchwheel channel=2 pitch=-256 time=0.013950885416666668
EXTRACT: pitchwheel channel=6 pitch=-7296 time=0.0016741062500000002
EXTRACT: pitchwheel channel=6 pitch=-7296 time=0
EXTRACT: pitchwheel channel=2 pitch=-384 time=0.012276779166666666
EXTRACT: pitchwheel channel=3 pitch=256 time=0.0027901770833333333
EXTRACT: pitchwheel channel=3 pitch=256 time=0
EXTRACT: pitchwheel channel=3 pitch=0 time=0
EXTRACT: note_off channel=3 note=66 velocity=95 time=0
EXTRACT: pitchwheel channel=3 pitch=256 time=0
EXTRACT: note_on channel=3 note=66 velocity=95 time=0
EXTRACT: pitchwheel channel=6 pitch=-7424 time=0.0011160708333333334
EXTRACT: pitchwheel channel=6 pitch=-7424 time=0
EXTRACT: pitchwheel channel=2 pitch=-512 time=0.0100446375
EXTRACT: pitchwheel channel=6 pitch=-7552 time=0.006138389583333333
EXTRACT: pitchwheel channel=6 pitch=-7552 time=0
EXTRACT: pitchwheel channel=2 pitch=-640 time=0.007812495833333334
EXTRACT: pitchwheel channel=4 pitch=256 time=0.00837053125
EXTRACT: pitchwheel channel=4 pitch=256 time=0
EXTRACT: pitchwheel channel=4 pitch=0 time=0
EXTRACT: note_off channel=4 note=66 velocity=95 time=0
EXTRACT: pitchwheel channel=4 pitch=256 time=0
EXTRACT: note_on channel=4 note=66 velocity=95 time=0
EXTRACT: pitchwheel channel=6 pitch=-7680 time=0
EXTRACT: pitchwheel channel=6 pitch=-7680 time=0
EXTRACT: pitchwheel channel=2 pitch=-768 time=0.005580354166666667
EXTRACT: pitchwheel channel=6 pitch=-7808 time=0.010602672916666667
EXTRACT: pitchwheel channel=6 pitch=-7808 time=0
EXTRACT: pitchwheel channel=2 pitch=-896 time=0.0033482125000000003
EXTRACT: pitchwheel channel=6 pitch=-7936 time=0.012834814583333333
EXTRACT: pitchwheel channel=6 pitch=-7936 time=0
EXTRACT: pitchwheel channel=2 pitch=-1024 time=0.0011160708333333334
EXTRACT: pitchwheel channel=2 pitch=-1152 time=0.013950885416666668
EXTRACT: pitchwheel channel=6 pitch=-8064 time=0.0011160708333333334
EXTRACT: pitchwheel channel=6 pitch=-8064 time=0
EXTRACT: pitchwheel channel=2 pitch=-1280 time=0.012834814583333333
EXTRACT: pitchwheel channel=6 pitch=-8192 time=0.0033482125000000003
EXTRACT: pitchwheel channel=6 pitch=-8192 time=0
EXTRACT: pitchwheel channel=2 pitch=-1408 time=0.010602672916666667
EXTRACT: pitchwheel channel=6 pitch=-8192 time=0.005580354166666667
EXTRACT: pitchwheel channel=6 pitch=-8192 time=0
EXTRACT: pitchwheel channel=2 pitch=-1536 time=0.00837053125
EXTRACT: pitchwheel channel=6 pitch=-8192 time=0.007812495833333334
EXTRACT: pitchwheel channel=6 pitch=-8192 time=0
EXTRACT: note_off channel=1 note=68 velocity=95 time=0.0033482125000000003
EXTRACT: note_off channel=1 note=65 velocity=95 time=0
EXTRACT: note_off channel=1 note=61 velocity=95 time=0
EXTRACT: note_off channel=1 note=46 velocity=95 time=0
EXTRACT: note_on channel=1 note=66 velocity=95 time=0
EXTRACT: note_on channel=1 note=63 velocity=95 time=0
EXTRACT: note_on channel=1 note=51 velocity=95 time=0
EXTRACT: pitchwheel channel=3 pitch=256 time=0
EXTRACT: pitchwheel channel=3 pitch=0 time=0
EXTRACT: note_off channel=3 note=66 velocity=95 time=0
EXTRACT: pitchwheel channel=3 pitch=256 time=0
EXTRACT: note_on channel=3 note=67 velocity=95 time=0
EXTRACT: pitchwheel channel=6 pitch=-8192 time=0
EXTRACT: pitchwheel channel=6 pitch=0 time=0
EXTRACT: note_off channel=6 note=53 velocity=95 time=0
EXTRACT: pitchwheel channel=6 pitch=-8192 time=0
EXTRACT: pitchwheel channel=6 pitch=0 time=0
EXTRACT: note_off channel=6 note=53 velocity=95 time=0
EXTRACT: note_on channel=7 note=33 velocity=95 time=0
EXTRACT: note_on channel=8 note=23 velocity=95 time=0
EXTRACT: note_on channel=10 note=40 velocity=95 time=0
EXTRACT: note_off channel=9 note=28 velocity=95 time=0
EXTRACT: note_off channel=9 note=39 velocity=95 time=0
EXTRACT: note_on channel=9 note=36 velocity=95 time=0
EXTRACT: pitchwheel channel=2 pitch=-1664 time=0.0027901770833333333
EXTRACT: pitchwheel channel=2 pitch=-1792 time=0.013950885416666668
EXTRACT: pitchwheel channel=2 pitch=-1920 time=0.013950885416666668
EXTRACT: pitchwheel channel=4 pitch=256 time=0.0027901770833333333
EXTRACT: pitchwheel channel=4 pitch=0 time=0
EXTRACT: note_off channel=4 note=66 velocity=95 time=0
EXTRACT: pitchwheel channel=4 pitch=256 time=0
EXTRACT: note_on channel=4 note=67 velocity=95 time=0
EXTRACT: pitchwheel channel=2 pitch=-2048 time=0.011160708333333333
EXTRACT: pitchwheel channel=2 pitch=-2048 time=0
EXTRACT: note_off channel=10 note=40 velocity=95 time=0.022321416666666666
EXTRACT: pitchwheel channel=3 pitch=256 time=0.022321416666666666
EXTRACT: pitchwheel channel=4 pitch=256 time=0.033482125
EXTRACT: pitchwheel channel=3 pitch=128 time=0.011160708333333333
EXTRACT: pitchwheel channel=4 pitch=128 time=0.033482125
EXTRACT: pitchwheel channel=3 pitch=0 time=0.011160708333333333
EXTRACT: pitchwheel channel=3 pitch=0 time=0
EXTRACT: pitchwheel channel=4 pitch=0 time=0.033482125
EXTRACT: pitchwheel channel=4 pitch=0 time=0
EXTRACT: note_off channel=1 note=66 velocity=95 time=0.05580354166666667
EXTRACT: note_off channel=1 note=63 velocity=95 time=0
EXTRACT: note_off channel=1 note=51 velocity=95 time=0
EXTRACT: pitchwheel channel=2 pitch=-2048 time=0
EXTRACT: pitchwheel channel=2 pitch=0 time=0
EXTRACT: note_off channel=2 note=73 velocity=95 time=0
EXTRACT: pitchwheel channel=3 pitch=0 time=0
EXTRACT: pitchwheel channel=3 pitch=0 time=0
EXTRACT: note_off channel=3 note=67 velocity=95 time=0
EXTRACT: pitchwheel channel=3 pitch=256 time=0
EXTRACT: note_on channel=3 note=66 velocity=95 time=0
EXTRACT: note_off channel=5 note=64 velocity=95 time=0
EXTRACT: note_off channel=5 note=59 velocity=95 time=0
EXTRACT: note_off channel=5 note=55 velocity=95 time=0
EXTRACT: note_off channel=5 note=50 velocity=95 time=0
EXTRACT: note_off channel=8 note=23 velocity=95 time=0
EXTRACT: note_on channel=8 note=23 velocity=95 time=0
EXTRACT: note_on channel=10 note=40 velocity=95 time=0
EXTRACT: note_off channel=9 note=36 velocity=95 time=0
EXTRACT: note_on channel=9 note=36 velocity=95 time=0
EXTRACT: pitchwheel channel=4 pitch=0 time=0.033482125
EXTRACT: pitchwheel channel=4 pitch=0 time=0
EXTRACT: note_off channel=4 note=67 velocity=95 time=0
EXTRACT: pitchwheel channel=4 pitch=256 time=0
EXTRACT: note_on channel=4 note=66 velocity=95 time=0
EXTRACT: note_off channel=10 note=40 velocity=95 time=0.033482125
EXTRACT: pitchwheel channel=3 pitch=256 time=0.20089275
EXTRACT: pitchwheel channel=3 pitch=0 time=0
EXTRACT: note_off channel=3 note=66 velocity=95 time=0
EXTRACT: note_on channel=3 note=67 velocity=95 time=0
EXTRACT: note_on channel=5 note=64 velocity=95 time=0
EXTRACT: note_on channel=5 note=59 velocity=95 time=0
EXTRACT: note_on channel=5 note=55 velocity=95 time=0
EXTRACT: note_on channel=5 note=50 velocity=95 time=0
EXTRACT: note_off channel=7 note=33 velocity=95 time=0
EXTRACT: note_off channel=8 note=23 velocity=95 time=0
EXTRACT: note_off channel=9 note=36 velocity=95 time=0
EXTRACT: note_on channel=9 note=28 velocity=95 time=0
EXTRACT: note_on channel=9 note=39 velocity=95 time=0
EXTRACT: pitchwheel channel=4 pitch=256 time=0.033482125
EXTRACT: pitchwheel channel=4 pitch=0 time=0
EXTRACT: note_off channel=4 note=66 velocity=95 time=0
EXTRACT: note_on channel=4 note=67 velocity=95 time=0
EXTRACT: note_off channel=3 note=67 velocity=95 time=0.234374875
EXTRACT: pitchwheel channel=3 pitch=0 time=0
EXTRACT: note_on channel=3 note=67 velocity=95 time=0
EXTRACT: note_on channel=7 note=33 velocity=95 time=0
EXTRACT: note_on channel=8 note=23 velocity=95 time=0
EXTRACT: note_on channel=10 note=40 velocity=95 time=0
EXTRACT: note_off channel=9 note=28 velocity=95 time=0
EXTRACT: note_off channel=9 note=39 velocity=95 time=0
EXTRACT: note_on channel=9 note=36 velocity=95 time=0
EXTRACT: note_off channel=4 note=67 velocity=95 time=0.033482125
EXTRACT: pitchwheel channel=4 pitch=0 time=0
EXTRACT: note_on channel=4 note=67 velocity=95 time=0
EXTRACT: pitchwheel channel=3 pitch=128 time=0.033482125
EXTRACT: note_off channel=10 note=40 velocity=95 time=0
EXTRACT: pitchwheel channel=4 pitch=128 time=0.033482125
EXTRACT: pitchwheel channel=3 pitch=256 time=0.033482125
EXTRACT: pitchwheel channel=3 pitch=256 time=0
EXTRACT: pitchwheel channel=3 pitch=0 time=0
EXTRACT: note_off channel=3 note=67 velocity=95 time=0
EXTRACT: pitchwheel channel=3 pitch=0 time=0
EXTRACT: note_on channel=3 note=67 velocity=95 time=0
EXTRACT: pitchwheel channel=4 pitch=256 time=0.033482125
EXTRACT: pitchwheel channel=4 pitch=256 time=0
EXTRACT: pitchwheel channel=4 pitch=0 time=0
EXTRACT: note_off channel=4 note=67 velocity=95 time=0
EXTRACT: pitchwheel channel=4 pitch=0 time=0
EXTRACT: note_on channel=4 note=67 velocity=95 time=0
EXTRACT: pitchwheel channel=3 pitch=128 time=0.06696425
EXTRACT: pitchwheel channel=4 pitch=128 time=0.033482125
EXTRACT: note_off channel=9 note=36 velocity=95 time=0
EXTRACT: pitchwheel channel=3 pitch=256 time=0.06696425
EXTRACT: pitchwheel channel=3 pitch=256 time=0
EXTRACT: pitchwheel channel=3 pitch=0 time=0
EXTRACT: note_off channel=3 note=67 velocity=95 time=0
EXTRACT: pitchwheel channel=4 pitch=256 time=0.033482125
EXTRACT: pitchwheel channel=4 pitch=256 time=0
EXTRACT: pitchwheel channel=4 pitch=0 time=0
EXTRACT: note_off channel=4 note=67 velocity=95 time=0
EXTRACT: pitchwheel channel=3 pitch=0 time=0.167410625
EXTRACT: note_on channel=3 note=65 velocity=95 time=0
EXTRACT: note_off channel=5 note=64 velocity=95 time=0
EXTRACT: note_off channel=5 note=59 velocity=95 time=0
EXTRACT: note_off channel=5 note=55 velocity=95 time=0
EXTRACT: note_off channel=5 note=50 velocity=95 time=0
EXTRACT: note_off channel=7 note=33 velocity=95 time=0
EXTRACT: note_on channel=7 note=33 velocity=95 time=0
EXTRACT: note_off channel=8 note=23 velocity=95 time=0
EXTRACT: note_on channel=8 note=23 velocity=95 time=0
EXTRACT: note_on channel=10 note=40 velocity=95 time=0
EXTRACT: note_on channel=9 note=36 velocity=95 time=0
EXTRACT: pitchwheel channel=4 pitch=0 time=0.033482125
EXTRACT: note_on channel=4 note=65 velocity=95 time=0
EXTRACT: note_off channel=10 note=40 velocity=95 time=0.033482125
EXTRACT: pitchwheel channel=3 pitch=0 time=0.20089275
EXTRACT: note_on channel=5 note=64 velocity=95 time=0
EXTRACT: note_on channel=5 note=59 velocity=95 time=0
EXTRACT: note_on channel=5 note=55 velocity=95 time=0
EXTRACT: note_on channel=5 note=50 velocity=95 time=0
EXTRACT: note_off channel=7 note=33 velocity=95 time=0
EXTRACT: note_off channel=9 note=36 velocity=95 time=0
EXTRACT: note_on channel=9 note=28 velocity=95 time=0
EXTRACT: note_on channel=9 note=39 velocity=95 time=0
EXTRACT: pitchwheel channel=4 pitch=0 time=0.033482125
EXTRACT: pitchwheel channel=3 pitch=128 time=0.100446375
EXTRACT: pitchwheel channel=4 pitch=128 time=0.033482125
EXTRACT: pitchwheel channel=3 pitch=256 time=0.100446375
EXTRACT: pitchwheel channel=3 pitch=256 time=0
EXTRACT: pitchwheel channel=3 pitch=0 time=0
EXTRACT: note_off channel=3 note=65 velocity=95 time=0
EXTRACT: note_off channel=8 note=23 velocity=95 time=0
EXTRACT: pitchwheel channel=4 pitch=256 time=0.033482125
EXTRACT: pitchwheel channel=4 pitch=256 time=0
EXTRACT: pitchwheel channel=4 pitch=0 time=0
EXTRACT: note_off channel=4 note=65 velocity=95 time=0
EXTRACT: pitchwheel channel=3 pitch=0 time=0.100446375
EXTRACT: note_on channel=3 note=66 velocity=95 time=0
EXTRACT: pitchwheel channel=4 pitch=0 time=0.033482125
EXTRACT: note_on channel=4 note=66 velocity=95 time=0
EXTRACT: pitchwheel channel=3 pitch=128 time=0.033482125
EXTRACT: pitchwheel channel=4 pitch=128 time=0.033482125
EXTRACT: pitchwheel channel=3 pitch=256 time=0.033482125
EXTRACT: pitchwheel channel=3 pitch=256 time=0
EXTRACT: pitchwheel channel=3 pitch=0 time=0
EXTRACT: note_off channel=3 note=66 velocity=95 time=0
EXTRACT: pitchwheel channel=3 pitch=256 time=0
EXTRACT: note_on channel=3 note=67 velocity=95 time=0
EXTRACT: note_on channel=7 note=33 velocity=95 time=0
EXTRACT: note_on channel=8 note=23 velocity=95 time=0
EXTRACT: note_on channel=10 note=40 velocity=95 time=0
EXTRACT: note_off channel=9 note=28 velocity=95 time=0
EXTRACT: note_off channel=9 note=39 velocity=95 time=0
EXTRACT: note_on channel=9 note=36 velocity=95 time=0
EXTRACT: pitchwheel channel=4 pitch=256 time=0.033482125
EXTRACT: pitchwheel channel=4 pitch=256 time=0
EXTRACT: pitchwheel channel=4 pitch=0 time=0
EXTRACT: note_off channel=4 note=66 velocity=95 time=0
EXTRACT: pitchwheel channel=4 pitch=256 time=0
EXTRACT: note_on channel=4 note=67 velocity=95 time=0
EXTRACT: note_off channel=10 note=40 velocity=95 time=0.033482125
EXTRACT: pitchwheel channel=3 pitch=256 time=0.022321416666666666
EXTRACT: pitchwheel channel=4 pitch=256 time=0.033482125
EXTRACT: pitchwheel channel=3 pitch=128 time=0.011160708333333333
EXTRACT: pitchwheel channel=4 pitch=128 time=0.033482125
EXTRACT: pitchwheel channel=3 pitch=0 time=0.011160708333333333
EXTRACT: pitchwheel channel=3 pitch=0 time=0
EXTRACT: pitchwheel channel=4 pitch=0 time=0.033482125
EXTRACT: pitchwheel channel=4 pitch=0 time=0
EXTRACT: pitchwheel channel=3 pitch=0 time=0.05580354166666667
EXTRACT: pitchwheel channel=3 pitch=0 time=0
EXTRACT: note_off channel=3 note=67 velocity=95 time=0
EXTRACT: pitchwheel channel=3 pitch=256 time=0
EXTRACT: note_on channel=3 note=66 velocity=95 time=0
EXTRACT: note_off channel=5 note=64 velocity=95 time=0
EXTRACT: note_off channel=5 note=59 velocity=95 time=0
EXTRACT: note_off channel=5 note=55 velocity=95 time=0
EXTRACT: note_off channel=5 note=50 velocity=95 time=0
EXTRACT: pitchwheel channel=4 pitch=0 time=0.033482125
EXTRACT: pitchwheel channel=4 pitch=0 time=0
EXTRACT: note_off channel=4 note=67 velocity=95 time=0
EXTRACT: pitchwheel channel=4 pitch=256 time=0
EXTRACT: note_on channel=4 note=66 velocity=95 time=0
EXTRACT: pitchwheel channel=3 pitch=256 time=0.234374875
EXTRACT: pitchwheel channel=3 pitch=0 time=0
EXTRACT: note_off channel=3 note=66 velocity=95 time=0
EXTRACT: note_on channel=3 note=67 velocity=95 time=0
EXTRACT: note_on channel=5 note=64 velocity=95 time=0
EXTRACT: note_on channel=5 note=59 velocity=95 time=0
EXTRACT: note_on channel=5 note=55 velocity=95 time=0
EXTRACT: note_on channel=5 note=50 velocity=95 time=0
EXTRACT: note_off channel=7 note=33 velocity=95 time=0
EXTRACT: note_off channel=8 note=23 velocity=95 time=0
EXTRACT: note_off channel=9 note=36 velocity=95 time=0
EXTRACT: note_on channel=9 note=28 velocity=95 time=0
EXTRACT: note_on channel=9 note=39 velocity=95 time=0
EXTRACT: pitchwheel channel=4 pitch=256 time=0.033482125
EXTRACT: pitchwheel channel=4 pitch=0 time=0
EXTRACT: note_off channel=4 note=66 velocity=95 time=0
EXTRACT: note_on channel=4 note=67 velocity=95 time=0
EXTRACT: note_off channel=3 note=67 velocity=95 time=0.234374875
EXTRACT: pitchwheel channel=3 pitch=0 time=0
EXTRACT: note_on channel=3 note=67 velocity=95 time=0
EXTRACT: note_on channel=7 note=33 velocity=95 time=0
EXTRACT: note_on channel=8 note=23 velocity=95 time=0
EXTRACT: note_on channel=10 note=40 velocity=95 time=0
EXTRACT: note_off channel=9 note=28 velocity=95 time=0
EXTRACT: note_off channel=9 note=39 velocity=95 time=0
EXTRACT: note_on channel=9 note=36 velocity=95 time=0
EXTRACT: note_off channel=4 note=67 velocity=95 time=0.033482125
EXTRACT: pitchwheel channel=4 pitch=0 time=0
EXTRACT: note_on channel=4 note=67 velocity=95 time=0
EXTRACT: pitchwheel channel=3 pitch=128 time=0.033482125
EXTRACT: note_off channel=10 note=40 velocity=95 time=0
EXTRACT: pitchwheel channel=4 pitch=128 time=0.033482125
EXTRACT: pitchwheel channel=3 pitch=256 time=0.033482125
EXTRACT: pitchwheel channel=3 pitch=256 time=0
EXTRACT: pitchwheel channel=3 pitch=0 time=0
EXTRACT: note_off channel=3 note=67 velocity=95 time=0
EXTRACT: pitchwheel channel=3 pitch=0 time=0
EXTRACT: note_on channel=3 note=67 velocity=95 time=0
EXTRACT: pitchwheel channel=4 pitch=256 time=0.033482125
EXTRACT: pitchwheel channel=4 pitch=256 time=0
EXTRACT: pitchwheel channel=4 pitch=0 time=0
EXTRACT: note_off channel=4 note=67 velocity=95 time=0
EXTRACT: pitchwheel channel=4 pitch=0 time=0
EXTRACT: note_on channel=4 note=67 velocity=95 time=0
EXTRACT: pitchwheel channel=3 pitch=128 time=0.06696425
EXTRACT: pitchwheel channel=4 pitch=128 time=0.033482125
EXTRACT: pitchwheel channel=6 pitch=0 time=0
EXTRACT: note_on channel=6 note=53 velocity=95 time=0
EXTRACT: pitchwheel channel=6 pitch=0 time=0
EXTRACT: note_on channel=6 note=53 velocity=95 time=0
EXTRACT: note_off channel=9 note=36 velocity=95 time=0
EXTRACT: pitchwheel channel=6 pitch=-128 time=0.016183027083333332
EXTRACT: pitchwheel channel=6 pitch=-128 time=0
EXTRACT: pitchwheel channel=6 pitch=-256 time=0.016183027083333332
EXTRACT: pitchwheel channel=6 pitch=-256 time=0
EXTRACT: pitchwheel channel=6 pitch=-384 time=0.016183027083333332
EXTRACT: pitchwheel channel=6 pitch=-384 time=0
EXTRACT: pitchwheel channel=6 pitch=-512 time=0.016183027083333332
EXTRACT: pitchwheel channel=6 pitch=-512 time=0
EXTRACT: pitchwheel channel=3 pitch=256 time=0.0022321416666666667
EXTRACT: pitchwheel channel=3 pitch=256 time=0
EXTRACT: pitchwheel channel=3 pitch=0 time=0
EXTRACT: note_off channel=3 note=67 velocity=95 time=0
EXTRACT: pitchwheel channel=6 pitch=-640 time=0.013950885416666668
EXTRACT: pitchwheel channel=6 pitch=-640 time=0
EXTRACT: pitchwheel channel=6 pitch=-768 time=0.016183027083333332
EXTRACT: pitchwheel channel=6 pitch=-768 time=0
EXTRACT: pitchwheel channel=4 pitch=256 time=0.0033482125000000003
EXTRACT: pitchwheel channel=4 pitch=256 time=0
EXTRACT: pitchwheel channel=4 pitch=0 time=0
EXTRACT: note_off channel=4 note=67 velocity=95 time=0
EXTRACT: pitchwheel channel=6 pitch=-896 time=0.012834814583333333
EXTRACT: pitchwheel channel=6 pitch=-896 time=0
EXTRACT: pitchwheel channel=6 pitch=-1024 time=0.016183027083333332
EXTRACT: pitchwheel channel=6 pitch=-1024 time=0
EXTRACT: pitchwheel channel=6 pitch=-1152 time=0.016183027083333332
EXTRACT: pitchwheel channel=6 pitch=-1152 time=0
EXTRACT: pitchwheel channel=6 pitch=-1280 time=0.016183027083333332
EXTRACT: pitchwheel channel=6 pitch=-1280 time=0
EXTRACT: pitchwheel channel=6 pitch=-1408 time=0.016183027083333332
EXTRACT: pitchwheel channel=6 pitch=-1408 time=0
EXTRACT: pitchwheel channel=6 pitch=-1536 time=0.016183027083333332
EXTRACT: pitchwheel channel=6 pitch=-1536 time=0
EXTRACT: pitchwheel channel=6 pitch=-1664 time=0.016183027083333332
EXTRACT: pitchwheel channel=6 pitch=-1664 time=0
EXTRACT: pitchwheel channel=6 pitch=-1792 time=0.016183027083333332
EXTRACT: pitchwheel channel=6 pitch=-1792 time=0
EXTRACT: pitchwheel channel=6 pitch=-1920 time=0.016183027083333332
EXTRACT: pitchwheel channel=6 pitch=-1920 time=0
EXTRACT: pitchwheel channel=6 pitch=-2048 time=0.016183027083333332
EXTRACT: pitchwheel channel=6 pitch=-2048 time=0
EXTRACT: pitchwheel channel=3 pitch=0 time=0.008928566666666667
EXTRACT: note_on channel=3 note=65 velocity=95 time=0
EXTRACT: note_off channel=5 note=64 velocity=95 time=0
EXTRACT: note_off channel=5 note=59 velocity=95 time=0
EXTRACT: note_off channel=5 note=55 velocity=95 time=0
EXTRACT: note_off channel=5 note=50 velocity=95 time=0
EXTRACT: note_off channel=7 note=33 velocity=95 time=0
EXTRACT: note_on channel=7 note=33 velocity=95 time=0
EXTRACT: note_off channel=8 note=23 velocity=95 time=0
EXTRACT: note_on channel=8 note=23 velocity=95 time=0
EXTRACT: note_on channel=10 note=40 velocity=95 time=0
EXTRACT: note_on channel=9 note=36 velocity=95 time=0
EXTRACT: pitchwheel channel=6 pitch=-2176 time=0.007254460416666667
EXTRACT: pitchwheel channel=6 pitch=-2176 time=0
EXTRACT: pitchwheel channel=6 pitch=-2304 time=0.016183027083333332
EXTRACT: pitchwheel channel=6 pitch=-2304 time=0
EXTRACT: pitchwheel channel=4 pitch=0 time=0.0100446375
EXTRACT: note_on channel=4 note=65 velocity=95 time=0
EXTRACT: pitchwheel channel=6 pitch=-2432 time=0.006138389583333333
EXTRACT: pitchwheel channel=6 pitch=-2432 time=0
EXTRACT: pitchwheel channel=6 pitch=-2560 time=0.016183027083333332
EXTRACT: pitchwheel channel=6 pitch=-2560 time=0
EXTRACT: note_off channel=10 note=40 velocity=95 time=0.011160708333333333
EXTRACT: pitchwheel channel=6 pitch=-2688 time=0.00502231875
EXTRACT: pitchwheel channel=6 pitch=-2688 time=0
EXTRACT: pitchwheel channel=6 pitch=-2816 time=0.016183027083333332
EXTRACT: pitchwheel channel=6 pitch=-2816 time=0
EXTRACT: pitchwheel channel=6 pitch=-2944 time=0.016183027083333332
EXTRACT: pitchwheel channel=6 pitch=-2944 time=0
EXTRACT: pitchwheel channel=6 pitch=-3072 time=0.016183027083333332
EXTRACT: pitchwheel channel=6 pitch=-3072 time=0
EXTRACT: pitchwheel channel=6 pitch=-3200 time=0.016183027083333332
EXTRACT: pitchwheel channel=6 pitch=-3200 time=0
EXTRACT: pitchwheel channel=6 pitch=-3328 time=0.016183027083333332
EXTRACT: pitchwheel channel=6 pitch=-3328 time=0
EXTRACT: pitchwheel channel=6 pitch=-3456 time=0.016183027083333332
EXTRACT: pitchwheel channel=6 pitch=-3456 time=0
EXTRACT: pitchwheel channel=6 pitch=-3584 time=0.016183027083333332
EXTRACT: pitchwheel channel=6 pitch=-3584 time=0
EXTRACT: pitchwheel channel=6 pitch=-3712 time=0.016183027083333332
EXTRACT: pitchwheel channel=6 pitch=-3712 time=0
EXTRACT: pitchwheel channel=6 pitch=-3840 time=0.016183027083333332
EXTRACT: pitchwheel channel=6 pitch=-3840 time=0
EXTRACT: pitchwheel channel=6 pitch=-3968 time=0.016183027083333332
EXTRACT: pitchwheel channel=6 pitch=-3968 time=0
EXTRACT: pitchwheel channel=6 pitch=-4096 time=0.016183027083333332
EXTRACT: pitchwheel channel=6 pitch=-4096 time=0
EXTRACT: pitchwheel channel=6 pitch=-4224 time=0.016183027083333332
EXTRACT: pitchwheel channel=6 pitch=-4224 time=0
EXTRACT: pitchwheel channel=3 pitch=0 time=0.0016741062500000002
EXTRACT: note_on channel=5 note=64 velocity=95 time=0
EXTRACT: note_on channel=5 note=59 velocity=95 time=0
EXTRACT: note_on channel=5 note=55 velocity=95 time=0
EXTRACT: note_on channel=5 note=50 velocity=95 time=0
EXTRACT: note_off channel=7 note=33 velocity=95 time=0
EXTRACT: note_off channel=9 note=36 velocity=95 time=0
EXTRACT: note_on channel=9 note=28 velocity=95 time=0
EXTRACT: note_on channel=9 note=39 velocity=95 time=0
EXTRACT: pitchwheel channel=6 pitch=-4352 time=0.014508920833333334
EXTRACT: pitchwheel channel=6 pitch=-4352 time=0
EXTRACT: pitchwheel channel=6 pitch=-4480 time=0.016183027083333332
EXTRACT: pitchwheel channel=6 pitch=-4480 time=0
EXTRACT: pitchwheel channel=4 pitch=0 time=0.0027901770833333333
EXTRACT: pitchwheel channel=6 pitch=-4608 time=0.013392850000000001
EXTRACT: pitchwheel channel=6 pitch=-4608 time=0
EXTRACT: pitchwheel channel=6 pitch=-4736 time=0.016183027083333332
EXTRACT: pitchwheel channel=6 pitch=-4736 time=0
EXTRACT: pitchwheel channel=6 pitch=-4864 time=0.016183027083333332
EXTRACT: pitchwheel channel=6 pitch=-4864 time=0
EXTRACT: pitchwheel channel=6 pitch=-4992 time=0.016183027083333332
EXTRACT: pitchwheel channel=6 pitch=-4992 time=0
EXTRACT: pitchwheel channel=6 pitch=-5120 time=0.016183027083333332
EXTRACT: pitchwheel channel=6 pitch=-5120 time=0
EXTRACT: pitchwheel channel=6 pitch=-5248 time=0.016183027083333332
EXTRACT: pitchwheel channel=6 pitch=-5248 time=0
EXTRACT: pitchwheel channel=3 pitch=128 time=0.006138389583333333
EXTRACT: pitchwheel channel=6 pitch=-5376 time=0.0100446375
EXTRACT: pitchwheel channel=6 pitch=-5376 time=0
EXTRACT: pitchwheel channel=6 pitch=-5504 time=0.016183027083333332
EXTRACT: pitchwheel channel=6 pitch=-5504 time=0
EXTRACT: pitchwheel channel=4 pitch=128 time=0.007254460416666667
EXTRACT: pitchwheel channel=6 pitch=-5632 time=0.008928566666666667
EXTRACT: pitchwheel channel=6 pitch=-5632 time=0
EXTRACT: pitchwheel channel=6 pitch=-5760 time=0.016183027083333332
EXTRACT: pitchwheel channel=6 pitch=-5760 time=0
EXTRACT: pitchwheel channel=6 pitch=-5888 time=0.016183027083333332
EXTRACT: pitchwheel channel=6 pitch=-5888 time=0
EXTRACT: pitchwheel channel=6 pitch=-6016 time=0.016183027083333332
EXTRACT: pitchwheel channel=6 pitch=-6016 time=0
EXTRACT: pitchwheel channel=6 pitch=-6144 time=0.016183027083333332
EXTRACT: pitchwheel channel=6 pitch=-6144 time=0
EXTRACT: pitchwheel channel=6 pitch=-6272 time=0.016183027083333332
EXTRACT: pitchwheel channel=6 pitch=-6272 time=0
EXTRACT: note_on channel=2 note=58 velocity=95 time=0.010602672916666667
EXTRACT: pitchwheel channel=3 pitch=256 time=0
EXTRACT: pitchwheel channel=3 pitch=256 time=0
EXTRACT: pitchwheel channel=3 pitch=0 time=0
EXTRACT: note_off channel=3 note=65 velocity=95 time=0
EXTRACT: note_off channel=8 note=23 velocity=95 time=0
EXTRACT: pitchwheel channel=6 pitch=-6400 time=0.005580354166666667
EXTRACT: pitchwheel channel=6 pitch=-6400 time=0
EXTRACT: pitchwheel channel=6 pitch=-6528 time=0.016183027083333332
EXTRACT: pitchwheel channel=6 pitch=-6528 time=0
EXTRACT: pitchwheel channel=4 pitch=256 time=0.01171874375
EXTRACT: pitchwheel channel=4 pitch=256 time=0
EXTRACT: pitchwheel channel=4 pitch=0 time=0
EXTRACT: note_off channel=4 note=65 velocity=95 time=0
EXTRACT: pitchwheel channel=6 pitch=-6656 time=0.0044642833333333335
EXTRACT: pitchwheel channel=6 pitch=-6656 time=0
EXTRACT: pitchwheel channel=6 pitch=-6784 time=0.016183027083333332
EXTRACT: pitchwheel channel=6 pitch=-6784 time=0
EXTRACT: pitchwheel channel=6 pitch=-6912 time=0.016183027083333332
EXTRACT: pitchwheel channel=6 pitch=-6912 time=0
EXTRACT: pitchwheel channel=6 pitch=-7040 time=0.016183027083333332
EXTRACT: pitchwheel channel=6 pitch=-7040 time=0
EXTRACT: pitchwheel channel=6 pitch=-7168 time=0.016183027083333332
EXTRACT: pitchwheel channel=6 pitch=-7168 time=0
EXTRACT: pitchwheel channel=6 pitch=-7296 time=0.016183027083333332
EXTRACT: pitchwheel channel=6 pitch=-7296 time=0
EXTRACT: pitchwheel channel=6 pitch=-7424 time=0.016183027083333332
EXTRACT: pitchwheel channel=6 pitch=-7424 time=0
EXTRACT: pitchwheel channel=6 pitch=-7552 time=0.016183027083333332
EXTRACT: pitchwheel channel=6 pitch=-7552 time=0
EXTRACT: pitchwheel channel=6 pitch=-7680 time=0.016183027083333332
EXTRACT: pitchwheel channel=6 pitch=-7680 time=0
EXTRACT: pitchwheel channel=6 pitch=-7808 time=0.016183027083333332
EXTRACT: pitchwheel channel=6 pitch=-7808 time=0
EXTRACT: pitchwheel channel=6 pitch=-7936 time=0.016183027083333332
EXTRACT: pitchwheel channel=6 pitch=-7936 time=0
EXTRACT: pitchwheel channel=6 pitch=-8064 time=0.016183027083333332
EXTRACT: pitchwheel channel=6 pitch=-8064 time=0
EXTRACT: pitchwheel channel=6 pitch=-8192 time=0.016183027083333332
EXTRACT: pitchwheel channel=6 pitch=-8192 time=0
EXTRACT: pitchwheel channel=6 pitch=-8192 time=0.016183027083333332
EXTRACT: pitchwheel channel=6 pitch=-8192 time=0
EXTRACT: pitchwheel channel=6 pitch=-8192 time=0.016183027083333332
EXTRACT: pitchwheel channel=6 pitch=-8192 time=0
EXTRACT: note_on channel=1 note=71 velocity=95 time=0.0033482125000000003
EXTRACT: note_on channel=1 note=66 velocity=95 time=0
EXTRACT: note_on channel=1 note=63 velocity=95 time=0
EXTRACT: note_on channel=1 note=59 velocity=95 time=0
EXTRACT: note_off channel=2 note=58 velocity=95 time=0
EXTRACT: note_on channel=2 note=59 velocity=70 time=0
EXTRACT: pitchwheel channel=6 pitch=-8192 time=0
EXTRACT: pitchwheel channel=6 pitch=0 time=0
EXTRACT: note_off channel=6 note=53 velocity=95 time=0
EXTRACT: pitchwheel channel=6 pitch=-8192 time=0
EXTRACT: pitchwheel channel=6 pitch=0 time=0
EXTRACT: note_off channel=6 note=53 velocity=95 time=0
EXTRACT: note_on channel=7 note=33 velocity=95 time=0
EXTRACT: note_on channel=8 note=23 velocity=95 time=0
EXTRACT: note_on channel=10 note=40 velocity=95 time=0
EXTRACT: note_off channel=9 note=28 velocity=95 time=0
EXTRACT: note_off channel=9 note=39 velocity=95 time=0
EXTRACT: note_on channel=9 note=36 velocity=95 time=0
EXTRACT: note_off channel=10 note=40 velocity=95 time=0.06696425
EXTRACT: note_off channel=2 note=59 velocity=70 time=0.20089275
EXTRACT: note_on channel=2 note=63 velocity=95 time=0
EXTRACT: note_off channel=5 note=64 velocity=95 time=0
EXTRACT: note_off channel=5 note=59 velocity=95 time=0
EXTRACT: note_off channel=5 note=55 velocity=95 time=0
EXTRACT: note_off channel=5 note=50 velocity=95 time=0
EXTRACT: note_off channel=2 note=63 velocity=95 time=0.267857
EXTRACT: note_on channel=2 note=66 velocity=95 time=0
EXTRACT: note_on channel=4 note=63 velocity=47 time=0
EXTRACT: note_on channel=4 note=59 velocity=95 time=0
EXTRACT: note_on channel=5 note=64 velocity=95 time=0
EXTRACT: note_on channel=5 note=59 velocity=95 time=0
EXTRACT: note_on channel=5 note=55 velocity=95 time=0
EXTRACT: note_on channel=5 note=50 velocity=95 time=0
EXTRACT: note_off channel=7 note=33 velocity=95 time=0
EXTRACT: note_off channel=8 note=23 velocity=95 time=0
EXTRACT: note_off channel=9 note=36 velocity=95 time=0
EXTRACT: note_on channel=9 note=28 velocity=95 time=0
EXTRACT: note_on channel=9 note=39 velocity=95 time=0
EXTRACT: note_on channel=3 note=63 velocity=47 time=0.033482125
EXTRACT: note_on channel=3 note=59 velocity=95 time=0
EXTRACT: note_off channel=2 note=66 velocity=95 time=0.234374875
EXTRACT: note_on channel=2 note=59 velocity=95 time=0
EXTRACT: note_on channel=7 note=33 velocity=95 time=0
EXTRACT: note_on channel=8 note=23 velocity=95 time=0
EXTRACT: note_on channel=10 note=40 velocity=95 time=0
EXTRACT: note_off channel=9 note=28 velocity=95 time=0
EXTRACT: note_off channel=9 note=39 velocity=95 time=0
EXTRACT: note_on channel=9 note=36 velocity=95 time=0
EXTRACT: note_off channel=10 note=40 velocity=95 time=0.06696425
EXTRACT: note_off channel=1 note=71 velocity=95 time=0.20089275
EXTRACT: note_off channel=1 note=66 velocity=95 time=0
EXTRACT: note_off channel=1 note=63 velocity=95 time=0
EXTRACT: note_off channel=1 note=59 velocity=95 time=0
EXTRACT: note_on channel=1 note=70 velocity=95 time=0
EXTRACT: note_on channel=1 note=66 velocity=95 time=0
EXTRACT: note_on channel=1 note=63 velocity=95 time=0
EXTRACT: note_on channel=1 note=58 velocity=95 time=0
EXTRACT: note_off channel=2 note=59 velocity=95 time=0
EXTRACT: note_on channel=2 note=58 velocity=70 time=0
EXTRACT: note_off channel=4 note=63 velocity=47 time=0
EXTRACT: note_off channel=4 note=59 velocity=95 time=0
EXTRACT: note_on channel=4 note=61 velocity=47 time=0
EXTRACT: note_on channel=4 note=58 velocity=95 time=0
EXTRACT: note_off channel=9 note=36 velocity=95 time=0
EXTRACT: note_off channel=3 note=63 velocity=47 time=0.033482125
EXTRACT: note_off channel=3 note=59 velocity=95 time=0
EXTRACT: note_on channel=3 note=61 velocity=47 time=0
EXTRACT: note_on channel=3 note=58 velocity=95 time=0
EXTRACT: note_off channel=2 note=58 velocity=70 time=0.234374875
EXTRACT: note_on channel=2 note=63 velocity=95 time=0
EXTRACT: note_off channel=5 note=64 velocity=95 time=0
EXTRACT: note_off channel=5 note=59 velocity=95 time=0
EXTRACT: note_off channel=5 note=55 velocity=95 time=0
EXTRACT: note_off channel=5 note=50 velocity=95 time=0
EXTRACT: note_off channel=7 note=33 velocity=95 time=0
EXTRACT: note_on channel=7 note=33 velocity=95 time=0
EXTRACT: note_off channel=8 note=23 velocity=95 time=0
EXTRACT: note_on channel=8 note=23 velocity=95 time=0
EXTRACT: note_on channel=10 note=40 velocity=95 time=0
EXTRACT: note_on channel=9 note=36 velocity=95 time=0
EXTRACT: note_off channel=10 note=40 velocity=95 time=0.06696425
EXTRACT: note_off channel=2 note=63 velocity=95 time=0.20089275
EXTRACT: note_off channel=4 note=61 velocity=47 time=0
EXTRACT: note_off channel=4 note=58 velocity=95 time=0
EXTRACT: pitchwheel channel=4 pitch=0 time=0
EXTRACT: note_on channel=4 note=62 velocity=95 time=0
EXTRACT: note_on channel=5 note=64 velocity=95 time=0
EXTRACT: note_on channel=5 note=59 velocity=95 time=0
EXTRACT: note_on channel=5 note=55 velocity=95 time=0
EXTRACT: note_on channel=5 note=50 velocity=95 time=0
EXTRACT: note_off channel=7 note=33 velocity=95 time=0
EXTRACT: note_off channel=9 note=36 velocity=95 time=0
EXTRACT: note_on channel=9 note=28 velocity=95 time=0
EXTRACT: note_on channel=9 note=39 velocity=95 time=0
EXTRACT: note_off channel=3 note=61 velocity=47 time=0.033482125
EXTRACT: note_off channel=3 note=58 velocity=95 time=0
EXTRACT: pitchwheel channel=3 pitch=0 time=0
EXTRACT: note_on channel=3 note=63 velocity=95 time=0
EXTRACT: pitchwheel channel=4 pitch=128 time=0.013392850000000001
EXTRACT: pitchwheel channel=3 pitch=128 time=0.033482125
EXTRACT: pitchwheel channel=4 pitch=256 time=0.013392850000000001
EXTRACT: pitchwheel channel=3 pitch=256 time=0.033482125
EXTRACT: pitchwheel channel=4 pitch=384 time=0.013392850000000001
EXTRACT: pitchwheel channel=3 pitch=384 time=0.033482125
EXTRACT: pitchwheel channel=4 pitch=512 time=0.013392850000000001
EXTRACT: pitchwheel channel=3 pitch=512 time=0.033482125
EXTRACT: pitchwheel channel=4 pitch=640 time=0.013392850000000001
EXTRACT: pitchwheel channel=4 pitch=640 time=0
EXTRACT: pitchwheel channel=4 pitch=0 time=0
EXTRACT: note_off channel=4 note=62 velocity=95 time=0
EXTRACT: note_on channel=2 note=58 velocity=95 time=0.033482125
EXTRACT: pitchwheel channel=3 pitch=640 time=0
EXTRACT: pitchwheel channel=3 pitch=640 time=0
EXTRACT: pitchwheel channel=3 pitch=0 time=0
EXTRACT: note_off channel=3 note=63 velocity=95 time=0
EXTRACT: pitchwheel channel=4 pitch=0 time=0
EXTRACT: note_on channel=4 note=63 velocity=95 time=0
EXTRACT: note_off channel=8 note=23 velocity=95 time=0
EXTRACT: pitchwheel channel=4 pitch=128 time=0.023995522916666668
EXTRACT: pitchwheel channel=3 pitch=0 time=0.009486602083333334
EXTRACT: note_on channel=3 note=64 velocity=95 time=0
EXTRACT: pitchwheel channel=4 pitch=256 time=0.014508920833333334
EXTRACT: pitchwheel channel=3 pitch=128 time=0.009486602083333334
EXTRACT: pitchwheel channel=4 pitch=384 time=0.014508920833333334
EXTRACT: pitchwheel channel=3 pitch=256 time=0.009486602083333334
EXTRACT: pitchwheel channel=4 pitch=512 time=0.014508920833333334
EXTRACT: pitchwheel channel=3 pitch=384 time=0.009486602083333334
EXTRACT: pitchwheel channel=4 pitch=640 time=0.014508920833333334
EXTRACT: pitchwheel channel=3 pitch=512 time=0.009486602083333334
EXTRACT: pitchwheel channel=4 pitch=768 time=0.014508920833333334
EXTRACT: pitchwheel channel=3 pitch=640 time=0.009486602083333334
EXTRACT: pitchwheel channel=4 pitch=896 time=0.014508920833333334
EXTRACT: pitchwheel channel=3 pitch=768 time=0.009486602083333334
EXTRACT: pitchwheel channel=4 pitch=1024 time=0.014508920833333334
EXTRACT: pitchwheel channel=3 pitch=896 time=0.009486602083333334
EXTRACT: pitchwheel channel=4 pitch=1152 time=0.014508920833333334
EXTRACT: pitchwheel channel=3 pitch=1024 time=0.009486602083333334
EXTRACT: pitchwheel channel=4 pitch=1280 time=0.014508920833333334
EXTRACT: pitchwheel channel=3 pitch=1152 time=0.009486602083333334
EXTRACT: pitchwheel channel=4 pitch=1408 time=0.014508920833333334
EXTRACT: note_off channel=1 note=70 velocity=95 time=0.003906247916666667
EXTRACT: note_off channel=1 note=66 velocity=95 time=0
EXTRACT: note_off channel=1 note=63 velocity=95 time=0
EXTRACT: note_off channel=1 note=58 velocity=95 time=0
EXTRACT: note_on channel=1 note=71 velocity=95 time=0
EXTRACT: note_on channel=1 note=66 velocity=95 time=0
EXTRACT: note_on channel=1 note=63 velocity=95 time=0
EXTRACT: note_on channel=1 note=59 velocity=95 time=0
EXTRACT: note_off channel=2 note=58 velocity=95 time=0
EXTRACT: note_on channel=2 note=59 velocity=70 time=0
EXTRACT: pitchwheel channel=4 pitch=1408 time=0
EXTRACT: pitchwheel channel=4 pitch=0 time=0
EXTRACT: note_off channel=4 note=63 velocity=95 time=0
EXTRACT: pitchwheel channel=4 pitch=0 time=0
EXTRACT: note_on channel=4 note=59 velocity=95 time=0
EXTRACT: note_on channel=7 note=33 velocity=95 time=0
EXTRACT: note_on channel=8 note=23 velocity=95 time=0
EXTRACT: note_on channel=10 note=40 velocity=95 time=0
EXTRACT: note_off channel=9 note=28 velocity=95 time=0
EXTRACT: note_off channel=9 note=39 velocity=95 time=0
EXTRACT: note_on channel=9 note=36 velocity=95 time=0
EXTRACT: pitchwheel channel=3 pitch=1280 time=0.005580354166666667
EXTRACT: pitchwheel channel=4 pitch=-128 time=0.012276779166666666
EXTRACT: pitchwheel channel=3 pitch=1408 time=0.01171874375
EXTRACT: pitchwheel channel=3 pitch=1408 time=0.003906247916666667
EXTRACT: pitchwheel channel=3 pitch=0 time=0
EXTRACT: note_off channel=3 note=64 velocity=95 time=0
EXTRACT: pitchwheel channel=3 pitch=0 time=0
EXTRACT: note_on channel=3 note=60 velocity=95 time=0
EXTRACT: pitchwheel channel=4 pitch=-256 time=0.0022321416666666667
EXTRACT: pitchwheel channel=3 pitch=-128 time=0.015624991666666668
EXTRACT: pitchwheel channel=4 pitch=-384 time=0.0022321416666666667
EXTRACT: note_off channel=10 note=40 velocity=95 time=0.013392850000000001
EXTRACT: pitchwheel channel=3 pitch=-256 time=0.0022321416666666667
EXTRACT: pitchwheel channel=4 pitch=-512 time=0.0022321416666666667
EXTRACT: pitchwheel channel=3 pitch=-384 time=0.015624991666666668
EXTRACT: pitchwheel channel=4 pitch=-640 time=0.0022321416666666667
EXTRACT: pitchwheel channel=3 pitch=-512 time=0.015624991666666668
EXTRACT: pitchwheel channel=4 pitch=-768 time=0.0022321416666666667
EXTRACT: pitchwheel channel=3 pitch=-640 time=0.015624991666666668
EXTRACT: pitchwheel channel=4 pitch=-896 time=0.0022321416666666667
EXTRACT: pitchwheel channel=3 pitch=-768 time=0.015624991666666668
EXTRACT: pitchwheel channel=4 pitch=-1024 time=0.0022321416666666667
EXTRACT: pitchwheel channel=3 pitch=-896 time=0.015624991666666668
EXTRACT: pitchwheel channel=4 pitch=-1152 time=0.0022321416666666667
EXTRACT: pitchwheel channel=3 pitch=-1024 time=0.015624991666666668
EXTRACT: pitchwheel channel=4 pitch=-1280 time=0.0022321416666666667
EXTRACT: pitchwheel channel=3 pitch=-1152 time=0.015624991666666668
EXTRACT: pitchwheel channel=4 pitch=-1408 time=0.0022321416666666667
EXTRACT: pitchwheel channel=4 pitch=-1408 time=0.0044642833333333335
EXTRACT: pitchwheel channel=4 pitch=0 time=0
EXTRACT: note_off channel=4 note=59 velocity=95 time=0
EXTRACT: pitchwheel channel=3 pitch=-1280 time=0.011160708333333333
EXTRACT: pitchwheel channel=3 pitch=-1408 time=0.017857133333333334
EXTRACT: pitchwheel channel=3 pitch=-1408 time=0.0044642833333333335
EXTRACT: pitchwheel channel=3 pitch=0 time=0
EXTRACT: note_off channel=3 note=60 velocity=95 time=0
EXTRACT: note_off channel=2 note=59 velocity=70 time=0.033482125
EXTRACT: note_on channel=2 note=63 velocity=95 time=0
EXTRACT: note_off channel=5 note=64 velocity=95 time=0
EXTRACT: note_off channel=5 note=59 velocity=95 time=0
EXTRACT: note_off channel=5 note=55 velocity=95 time=0
EXTRACT: note_off channel=5 note=50 velocity=95 time=0
EXTRACT: note_off channel=2 note=63 velocity=95 time=0.267857
EXTRACT: note_on channel=2 note=66 velocity=95 time=0
EXTRACT: pitchwheel channel=4 pitch=0 time=0
EXTRACT: note_on channel=4 note=62 velocity=95 time=0
EXTRACT: note_on channel=5 note=64 velocity=95 time=0
EXTRACT: note_on channel=5 note=59 velocity=95 time=0
EXTRACT: note_on channel=5 note=55 velocity=95 time=0
EXTRACT: note_on channel=5 note=50 velocity=95 time=0
EXTRACT: note_off channel=7 note=33 velocity=95 time=0
EXTRACT: note_off channel=8 note=23 velocity=95 time=0
EXTRACT: note_off channel=9 note=36 velocity=95 time=0
EXTRACT: note_on channel=9 note=28 velocity=95 time=0
EXTRACT: note_on channel=9 note=39 velocity=95 time=0
EXTRACT: pitchwheel channel=3 pitch=0 time=0.033482125
EXTRACT: note_on channel=3 note=63 velocity=95 time=0
EXTRACT: pitchwheel channel=4 pitch=128 time=0.013392850000000001
EXTRACT: pitchwheel channel=3 pitch=128 time=0.033482125
EXTRACT: pitchwheel channel=4 pitch=256 time=0.013392850000000001
EXTRACT: pitchwheel channel=3 pitch=256 time=0.033482125
EXTRACT: note_on channel=7 note=33 velocity=95 time=0.006696425000000001
EXTRACT: note_on channel=8 note=23 velocity=95 time=0
EXTRACT: note_on channel=10 note=40 velocity=95 time=0
EXTRACT: note_off channel=9 note=28 velocity=95 time=0
EXTRACT: note_off channel=9 note=39 velocity=95 time=0
EXTRACT: note_on channel=9 note=36 velocity=95 time=0
EXTRACT: pitchwheel channel=4 pitch=384 time=0.006696425000000001
EXTRACT: pitchwheel channel=3 pitch=384 time=0.033482125
EXTRACT: pitchwheel channel=4 pitch=512 time=0.013392850000000001
EXTRACT: note_off channel=10 note=40 velocity=95 time=0.013392850000000001
EXTRACT: pitchwheel channel=3 pitch=512 time=0.020089275
EXTRACT: pitchwheel channel=4 pitch=640 time=0.013392850000000001
EXTRACT: pitchwheel channel=4 pitch=640 time=0
EXTRACT: pitchwheel channel=4 pitch=0 time=0
EXTRACT: note_off channel=4 note=62 velocity=95 time=0
EXTRACT: note_off channel=2 note=66 velocity=95 time=0.033482125
EXTRACT: note_on channel=2 note=59 velocity=95 time=0
EXTRACT: pitchwheel channel=3 pitch=640 time=0
EXTRACT: pitchwheel channel=3 pitch=640 time=0
EXTRACT: pitchwheel channel=3 pitch=0 time=0
EXTRACT: note_off channel=3 note=63 velocity=95 time=0
EXTRACT: pitchwheel channel=4 pitch=0 time=0
EXTRACT: note_on channel=4 note=63 velocity=95 time=0
EXTRACT: note_off channel=7 note=33 velocity=95 time=0
EXTRACT: note_on channel=7 note=33 velocity=95 time=0
EXTRACT: note_off channel=8 note=23 velocity=95 time=0
EXTRACT: note_on channel=8 note=23 velocity=95 time=0
EXTRACT: note_on channel=10 note=40 velocity=95 time=0
EXTRACT: note_off channel=9 note=36 velocity=95 time=0
EXTRACT: note_on channel=9 note=36 velocity=95 time=0
EXTRACT: pitchwheel channel=4 pitch=128 time=0.023995522916666668
EXTRACT: pitchwheel channel=3 pitch=0 time=0.009486602083333334
EXTRACT: note_on channel=3 note=64 velocity=95 time=0
EXTRACT: pitchwheel channel=4 pitch=256 time=0.014508920833333334
EXTRACT: pitchwheel channel=3 pitch=128 time=0.009486602083333334
EXTRACT: note_off channel=10 note=40 velocity=95 time=0.009486602083333334
EXTRACT: pitchwheel channel=4 pitch=384 time=0.00502231875
EXTRACT: pitchwheel channel=3 pitch=256 time=0.009486602083333334
EXTRACT: pitchwheel channel=4 pitch=512 time=0.014508920833333334
EXTRACT: pitchwheel channel=3 pitch=384 time=0.009486602083333334
EXTRACT: pitchwheel channel=4 pitch=640 time=0.014508920833333334
EXTRACT: pitchwheel channel=3 pitch=512 time=0.009486602083333334
EXTRACT: pitchwheel channel=4 pitch=768 time=0.014508920833333334
EXTRACT: pitchwheel channel=3 pitch=640 time=0.009486602083333334
EXTRACT: pitchwheel channel=4 pitch=896 time=0.014508920833333334
EXTRACT: pitchwheel channel=3 pitch=768 time=0.009486602083333334
EXTRACT: pitchwheel channel=4 pitch=1024 time=0.014508920833333334
EXTRACT: pitchwheel channel=3 pitch=896 time=0.009486602083333334
EXTRACT: pitchwheel channel=4 pitch=1152 time=0.014508920833333334
EXTRACT: pitchwheel channel=3 pitch=1024 time=0.009486602083333334
EXTRACT: pitchwheel channel=4 pitch=1280 time=0.014508920833333334
EXTRACT: pitchwheel channel=3 pitch=1152 time=0.009486602083333334
EXTRACT: pitchwheel channel=4 pitch=1408 time=0.014508920833333334
EXTRACT: note_off channel=1 note=71 velocity=95 time=0.003906247916666667
EXTRACT: note_off channel=1 note=66 velocity=95 time=0
EXTRACT: note_off channel=1 note=63 velocity=95 time=0
EXTRACT: note_off channel=1 note=59 velocity=95 time=0
EXTRACT: note_on channel=1 note=70 velocity=95 time=0
EXTRACT: note_on channel=1 note=66 velocity=95 time=0
EXTRACT: note_on channel=1 note=63 velocity=95 time=0
EXTRACT: note_on channel=1 note=58 velocity=95 time=0
EXTRACT: note_off channel=2 note=59 velocity=95 time=0
EXTRACT: note_on channel=2 note=58 velocity=70 time=0
EXTRACT: pitchwheel channel=4 pitch=1408 time=0
EXTRACT: pitchwheel channel=4 pitch=0 time=0
EXTRACT: note_off channel=4 note=63 velocity=95 time=0
EXTRACT: pitchwheel channel=4 pitch=0 time=0
EXTRACT: note_on channel=4 note=59 velocity=95 time=0
EXTRACT: pitchwheel channel=6 pitch=0 time=0
EXTRACT: note_on channel=6 note=53 velocity=95 time=0
EXTRACT: pitchwheel channel=6 pitch=0 time=0
EXTRACT: note_on channel=6 note=53 velocity=95 time=0
EXTRACT: note_off channel=7 note=33 velocity=95 time=0
EXTRACT: note_off channel=9 note=36 velocity=95 time=0
EXTRACT: pitchwheel channel=3 pitch=1280 time=0.005580354166666667
EXTRACT: pitchwheel channel=6 pitch=-128 time=0.010602672916666667
EXTRACT: pitchwheel channel=6 pitch=-128 time=0
EXTRACT: pitchwheel channel=4 pitch=-128 time=0.0016741062500000002
EXTRACT: pitchwheel channel=3 pitch=1408 time=0.01171874375
EXTRACT: pitchwheel channel=6 pitch=-256 time=0.0027901770833333333
EXTRACT: pitchwheel channel=6 pitch=-256 time=0
EXTRACT: pitchwheel channel=3 pitch=1408 time=0.0011160708333333334
EXTRACT: pitchwheel channel=3 pitch=0 time=0
EXTRACT: note_off channel=3 note=64 velocity=95 time=0
EXTRACT: pitchwheel channel=3 pitch=0 time=0
EXTRACT: note_on channel=3 note=60 velocity=95 time=0
EXTRACT: pitchwheel channel=4 pitch=-256 time=0.0022321416666666667
EXTRACT: pitchwheel channel=6 pitch=-384 time=0.012834814583333333
EXTRACT: pitchwheel channel=6 pitch=-384 time=0
EXTRACT: pitchwheel channel=3 pitch=-128 time=0.0027901770833333333
EXTRACT: pitchwheel channel=4 pitch=-384 time=0.0022321416666666667
EXTRACT: pitchwheel channel=6 pitch=-512 time=0.011160708333333333
EXTRACT: pitchwheel channel=6 pitch=-512 time=0
EXTRACT: pitchwheel channel=3 pitch=-256 time=0.0044642833333333335
EXTRACT: pitchwheel channel=4 pitch=-512 time=0.0022321416666666667
EXTRACT: pitchwheel channel=6 pitch=-640 time=0.009486602083333334
EXTRACT: pitchwheel channel=6 pitch=-640 time=0
EXTRACT: pitchwheel channel=3 pitch=-384 time=0.006138389583333333
EXTRACT: pitchwheel channel=4 pitch=-640 time=0.0022321416666666667
EXTRACT: pitchwheel channel=6 pitch=-768 time=0.007812495833333334
EXTRACT: pitchwheel channel=6 pitch=-768 time=0
EXTRACT: pitchwheel channel=3 pitch=-512 time=0.007812495833333334
EXTRACT: pitchwheel channel=4 pitch=-768 time=0.0022321416666666667
EXTRACT: pitchwheel channel=6 pitch=-896 time=0.006138389583333333
EXTRACT: pitchwheel channel=6 pitch=-896 time=0
EXTRACT: pitchwheel channel=3 pitch=-640 time=0.009486602083333334
EXTRACT: pitchwheel channel=4 pitch=-896 time=0.0022321416666666667
EXTRACT: pitchwheel channel=6 pitch=-1024 time=0.0044642833333333335
EXTRACT: pitchwheel channel=6 pitch=-1024 time=0
EXTRACT: pitchwheel channel=3 pitch=-768 time=0.011160708333333333
EXTRACT: pitchwheel channel=4 pitch=-1024 time=0.0022321416666666667
EXTRACT: pitchwheel channel=6 pitch=-1152 time=0.0027901770833333333
EXTRACT: pitchwheel channel=6 pitch=-1152 time=0
EXTRACT: pitchwheel channel=3 pitch=-896 time=0.012834814583333333
EXTRACT: pitchwheel channel=4 pitch=-1152 time=0.0022321416666666667
EXTRACT: pitchwheel channel=6 pitch=-1280 time=0.0011160708333333334
EXTRACT: pitchwheel channel=6 pitch=-1280 time=0
EXTRACT: pitchwheel channel=3 pitch=-1024 time=0.014508920833333334
EXTRACT: pitchwheel channel=6 pitch=-1408 time=0.0016741062500000002
EXTRACT: pitchwheel channel=6 pitch=-1408 time=0
EXTRACT: pitchwheel channel=4 pitch=-1280 time=0.0005580354166666667
EXTRACT: pitchwheel channel=3 pitch=-1152 time=0.015624991666666668
EXTRACT: pitchwheel channel=6 pitch=-1536 time=0
EXTRACT: pitchwheel channel=6 pitch=-1536 time=0
EXTRACT: pitchwheel channel=4 pitch=-1408 time=0.0022321416666666667
EXTRACT: pitchwheel channel=4 pitch=-1408 time=0.0044642833333333335
EXTRACT: pitchwheel channel=4 pitch=0 time=0
EXTRACT: note_off channel=4 note=59 velocity=95 time=0
EXTRACT: pitchwheel channel=6 pitch=-1664 time=0.009486602083333334
EXTRACT: pitchwheel channel=6 pitch=-1664 time=0
EXTRACT: pitchwheel channel=3 pitch=-1280 time=0.0016741062500000002
EXTRACT: pitchwheel channel=6 pitch=-1792 time=0.014508920833333334
EXTRACT: pitchwheel channel=6 pitch=-1792 time=0
EXTRACT: pitchwheel channel=3 pitch=-1408 time=0.0033482125000000003
EXTRACT: pitchwheel channel=3 pitch=-1408 time=0.0044642833333333335
EXTRACT: pitchwheel channel=3 pitch=0 time=0
EXTRACT: note_off channel=3 note=60 velocity=95 time=0
EXTRACT: pitchwheel channel=6 pitch=-1920 time=0.00837053125
EXTRACT: pitchwheel channel=6 pitch=-1920 time=0
EXTRACT: pitchwheel channel=6 pitch=-2048 time=0.016183027083333332
EXTRACT: pitchwheel channel=6 pitch=-2048 time=0
EXTRACT: note_off channel=2 note=58 velocity=70 time=0.008928566666666667
EXTRACT: note_on channel=2 note=63 velocity=95 time=0
EXTRACT: note_off channel=5 note=64 velocity=95 time=0
EXTRACT: note_off channel=5 note=59 velocity=95 time=0
EXTRACT: note_off channel=5 note=55 velocity=95 time=0
EXTRACT: note_off channel=5 note=50 velocity=95 time=0
EXTRACT: note_on channel=7 note=33 velocity=95 time=0
EXTRACT: note_off channel=8 note=23 velocity=95 time=0
EXTRACT: note_on channel=8 note=23 velocity=95 time=0
EXTRACT: note_on channel=10 note=40 velocity=95 time=0
EXTRACT: note_on channel=9 note=36 velocity=95 time=0
EXTRACT: pitchwheel channel=6 pitch=-2176 time=0.007254460416666667
EXTRACT: pitchwheel channel=6 pitch=-2176 time=0
EXTRACT: pitchwheel channel=6 pitch=-2304 time=0.016183027083333332
EXTRACT: pitchwheel channel=6 pitch=-2304 time=0
EXTRACT: pitchwheel channel=6 pitch=-2432 time=0.016183027083333332
EXTRACT: pitchwheel channel=6 pitch=-2432 time=0
EXTRACT: pitchwheel channel=6 pitch=-2560 time=0.016183027083333332
EXTRACT: pitchwheel channel=6 pitch=-2560 time=0
EXTRACT: note_off channel=10 note=40 velocity=95 time=0.011160708333333333
EXTRACT: pitchwheel channel=6 pitch=-2688 time=0.00502231875
EXTRACT: pitchwheel channel=6 pitch=-2688 time=0
EXTRACT: pitchwheel channel=6 pitch=-2816 time=0.016183027083333332
EXTRACT: pitchwheel channel=6 pitch=-2816 time=0
EXTRACT: pitchwheel channel=6 pitch=-2944 time=0.016183027083333332
EXTRACT: pitchwheel channel=6 pitch=-2944 time=0
EXTRACT: pitchwheel channel=6 pitch=-3072 time=0.016183027083333332
EXTRACT: pitchwheel channel=6 pitch=-3072 time=0
EXTRACT: pitchwheel channel=6 pitch=-3200 time=0.016183027083333332
EXTRACT: pitchwheel channel=6 pitch=-3200 time=0
EXTRACT: pitchwheel channel=6 pitch=-3328 time=0.016183027083333332
EXTRACT: pitchwheel channel=6 pitch=-3328 time=0
EXTRACT: pitchwheel channel=6 pitch=-3456 time=0.016183027083333332
EXTRACT: pitchwheel channel=6 pitch=-3456 time=0
EXTRACT: pitchwheel channel=6 pitch=-3584 time=0.016183027083333332
EXTRACT: pitchwheel channel=6 pitch=-3584 time=0
EXTRACT: pitchwheel channel=6 pitch=-3712 time=0.016183027083333332
EXTRACT: pitchwheel channel=6 pitch=-3712 time=0
EXTRACT: pitchwheel channel=6 pitch=-3840 time=0.016183027083333332
EXTRACT: pitchwheel channel=6 pitch=-3840 time=0
EXTRACT: pitchwheel channel=6 pitch=-3968 time=0.016183027083333332
EXTRACT: pitchwheel channel=6 pitch=-3968 time=0
EXTRACT: pitchwheel channel=6 pitch=-4096 time=0.016183027083333332
EXTRACT: pitchwheel channel=6 pitch=-4096 time=0
EXTRACT: pitchwheel channel=6 pitch=-4224 time=0.016183027083333332
EXTRACT: pitchwheel channel=6 pitch=-4224 time=0
EXTRACT: note_off channel=2 note=63 velocity=95 time=0.0016741062500000002
EXTRACT: note_on channel=2 note=46 velocity=127 time=0
EXTRACT: note_on channel=5 note=64 velocity=95 time=0
EXTRACT: note_on channel=5 note=59 velocity=95 time=0
EXTRACT: note_on channel=5 note=55 velocity=95 time=0
EXTRACT: note_on channel=5 note=50 velocity=95 time=0
EXTRACT: note_off channel=7 note=33 velocity=95 time=0
EXTRACT: note_off channel=9 note=36 velocity=95 time=0
EXTRACT: note_on channel=9 note=28 velocity=95 time=0
EXTRACT: note_on channel=9 note=39 velocity=95 time=0
EXTRACT: pitchwheel channel=6 pitch=-4352 time=0.014508920833333334
EXTRACT: pitchwheel channel=6 pitch=-4352 time=0
EXTRACT: pitchwheel channel=6 pitch=-4480 time=0.016183027083333332
EXTRACT: pitchwheel channel=6 pitch=-4480 time=0
EXTRACT: pitchwheel channel=6 pitch=-4608 time=0.016183027083333332
EXTRACT: pitchwheel channel=6 pitch=-4608 time=0
EXTRACT: pitchwheel channel=6 pitch=-4736 time=0.016183027083333332
EXTRACT: pitchwheel channel=6 pitch=-4736 time=0
EXTRACT: pitchwheel channel=6 pitch=-4864 time=0.016183027083333332
EXTRACT: pitchwheel channel=6 pitch=-4864 time=0
EXTRACT: pitchwheel channel=6 pitch=-4992 time=0.016183027083333332
EXTRACT: pitchwheel channel=6 pitch=-4992 time=0
EXTRACT: pitchwheel channel=6 pitch=-5120 time=0.016183027083333332
EXTRACT: pitchwheel channel=6 pitch=-5120 time=0
EXTRACT: pitchwheel channel=6 pitch=-5248 time=0.016183027083333332
EXTRACT: pitchwheel channel=6 pitch=-5248 time=0
EXTRACT: pitchwheel channel=6 pitch=-5376 time=0.016183027083333332
EXTRACT: pitchwheel channel=6 pitch=-5376 time=0
EXTRACT: pitchwheel channel=6 pitch=-5504 time=0.016183027083333332
EXTRACT: pitchwheel channel=6 pitch=-5504 time=0
EXTRACT: pitchwheel channel=6 pitch=-5632 time=0.016183027083333332
EXTRACT: pitchwheel channel=6 pitch=-5632 time=0
EXTRACT: pitchwheel channel=6 pitch=-5760 time=0.016183027083333332
EXTRACT: pitchwheel channel=6 pitch=-5760 time=0
EXTRACT: pitchwheel channel=6 pitch=-5888 time=0.016183027083333332
EXTRACT: pitchwheel channel=6 pitch=-5888 time=0
EXTRACT: pitchwheel channel=6 pitch=-6016 time=0.016183027083333332
EXTRACT: pitchwheel channel=6 pitch=-6016 time=0
EXTRACT: pitchwheel channel=6 pitch=-6144 time=0.016183027083333332
EXTRACT: pitchwheel channel=6 pitch=-6144 time=0
EXTRACT: pitchwheel channel=6 pitch=-6272 time=0.016183027083333332
EXTRACT: pitchwheel channel=6 pitch=-6272 time=0
EXTRACT: note_on channel=2 note=58 velocity=95 time=0.010602672916666667
EXTRACT: note_off channel=8 note=23 velocity=95 time=0
EXTRACT: pitchwheel channel=6 pitch=-6400 time=0.005580354166666667
EXTRACT: pitchwheel channel=6 pitch=-6400 time=0
EXTRACT: pitchwheel channel=6 pitch=-6528 time=0.016183027083333332
EXTRACT: pitchwheel channel=6 pitch=-6528 time=0
EXTRACT: pitchwheel channel=6 pitch=-6656 time=0.016183027083333332
EXTRACT: pitchwheel channel=6 pitch=-6656 time=0
EXTRACT: pitchwheel channel=6 pitch=-6784 time=0.016183027083333332
EXTRACT: pitchwheel channel=6 pitch=-6784 time=0
EXTRACT: pitchwheel channel=6 pitch=-6912 time=0.016183027083333332
EXTRACT: pitchwheel channel=6 pitch=-6912 time=0
EXTRACT: pitchwheel channel=6 pitch=-7040 time=0.016183027083333332
EXTRACT: pitchwheel channel=6 pitch=-7040 time=0
EXTRACT: pitchwheel channel=6 pitch=-7168 time=0.016183027083333332
EXTRACT: pitchwheel channel=6 pitch=-7168 time=0
EXTRACT: pitchwheel channel=6 pitch=-7296 time=0.016183027083333332
EXTRACT: pitchwheel channel=6 pitch=-7296 time=0
EXTRACT: pitchwheel channel=6 pitch=-7424 time=0.016183027083333332
EXTRACT: pitchwheel channel=6 pitch=-7424 time=0
EXTRACT: pitchwheel channel=6 pitch=-7552 time=0.016183027083333332
EXTRACT: pitchwheel channel=6 pitch=-7552 time=0
EXTRACT: pitchwheel channel=6 pitch=-7680 time=0.016183027083333332
EXTRACT: pitchwheel channel=6 pitch=-7680 time=0
EXTRACT: pitchwheel channel=6 pitch=-7808 time=0.016183027083333332
EXTRACT: pitchwheel channel=6 pitch=-7808 time=0
EXTRACT: pitchwheel channel=6 pitch=-7936 time=0.016183027083333332
EXTRACT: pitchwheel channel=6 pitch=-7936 time=0
EXTRACT: pitchwheel channel=6 pitch=-8064 time=0.016183027083333332
EXTRACT: pitchwheel channel=6 pitch=-8064 time=0
EXTRACT: pitchwheel channel=6 pitch=-8192 time=0.016183027083333332
EXTRACT: pitchwheel channel=6 pitch=-8192 time=0
EXTRACT: pitchwheel channel=6 pitch=-8192 time=0.016183027083333332
EXTRACT: pitchwheel channel=6 pitch=-8192 time=0
EXTRACT: pitchwheel channel=6 pitch=-8192 time=0.016183027083333332
EXTRACT: pitchwheel channel=6 pitch=-8192 time=0
EXTRACT: note_off channel=1 note=70 velocity=95 time=0.0033482125000000003
EXTRACT: note_off channel=1 note=66 velocity=95 time=0
EXTRACT: note_off channel=1 note=63 velocity=95 time=0
EXTRACT: note_off channel=1 note=58 velocity=95 time=0
EXTRACT: note_on channel=1 note=71 velocity=95 time=0
EXTRACT: note_on channel=1 note=66 velocity=95 time=0
EXTRACT: note_on channel=1 note=63 velocity=95 time=0
EXTRACT: note_on channel=1 note=59 velocity=95 time=0
EXTRACT: note_off channel=2 note=46 velocity=127 time=0
EXTRACT: note_off channel=2 note=58 velocity=95 time=0
EXTRACT: note_on channel=2 note=59 velocity=70 time=0
EXTRACT: note_on channel=2 note=47 velocity=127 time=0
EXTRACT: pitchwheel channel=6 pitch=-8192 time=0
EXTRACT: pitchwheel channel=6 pitch=0 time=0
EXTRACT: note_off channel=6 note=53 velocity=95 time=0
EXTRACT: pitchwheel channel=6 pitch=-8192 time=0
EXTRACT: pitchwheel channel=6 pitch=0 time=0
EXTRACT: note_off channel=6 note=53 velocity=95 time=0
EXTRACT: note_on channel=7 note=33 velocity=95 time=0
EXTRACT: note_on channel=8 note=23 velocity=95 time=0
EXTRACT: note_on channel=10 note=40 velocity=95 time=0
EXTRACT: note_off channel=9 note=28 velocity=95 time=0
EXTRACT: note_off channel=9 note=39 velocity=95 time=0
EXTRACT: note_on channel=9 note=36 velocity=95 time=0
EXTRACT: note_off channel=10 note=40 velocity=95 time=0.06696425
EXTRACT: note_off channel=2 note=59 velocity=70 time=0.20089275
EXTRACT: note_off channel=2 note=47 velocity=127 time=0
EXTRACT: note_on channel=2 note=63 velocity=95 time=0
EXTRACT: note_off channel=5 note=64 velocity=95 time=0
EXTRACT: note_off channel=5 note=59 velocity=95 time=0
EXTRACT: note_off channel=5 note=55 velocity=95 time=0
EXTRACT: note_off channel=5 note=50 velocity=95 time=0
EXTRACT: note_off channel=8 note=23 velocity=95 time=0
EXTRACT: note_on channel=8 note=23 velocity=95 time=0
EXTRACT: note_on channel=10 note=40 velocity=95 time=0
EXTRACT: note_off channel=9 note=36 velocity=95 time=0
EXTRACT: note_on channel=9 note=36 velocity=95 time=0
EXTRACT: note_off channel=10 note=40 velocity=95 time=0.06696425
EXTRACT: note_off channel=2 note=63 velocity=95 time=0.20089275
EXTRACT: note_on channel=2 note=66 velocity=95 time=0
EXTRACT: note_on channel=4 note=63 velocity=47 time=0
EXTRACT: note_on channel=4 note=59 velocity=95 time=0
EXTRACT: note_on channel=5 note=64 velocity=95 time=0
EXTRACT: note_on channel=5 note=59 velocity=95 time=0
EXTRACT: note_on channel=5 note=55 velocity=95 time=0
EXTRACT: note_on channel=5 note=50 velocity=95 time=0
EXTRACT: note_off channel=7 note=33 velocity=95 time=0
EXTRACT: note_off channel=8 note=23 velocity=95 time=0
EXTRACT: note_off channel=9 note=36 velocity=95 time=0
EXTRACT: note_on channel=9 note=28 velocity=95 time=0
EXTRACT: note_on channel=9 note=39 velocity=95 time=0
EXTRACT: note_on channel=3 note=63 velocity=47 time=0.033482125
EXTRACT: note_on channel=3 note=59 velocity=95 time=0
EXTRACT: note_off channel=2 note=66 velocity=95 time=0.234374875
EXTRACT: note_on channel=2 note=59 velocity=95 time=0
EXTRACT: note_on channel=7 note=33 velocity=95 time=0
EXTRACT: note_on channel=8 note=23 velocity=95 time=0
EXTRACT: note_on channel=10 note=40 velocity=95 time=0
EXTRACT: note_off channel=9 note=28 velocity=95 time=0
EXTRACT: note_off channel=9 note=39 velocity=95 time=0
EXTRACT: note_on channel=9 note=36 velocity=95 time=0
EXTRACT: note_off channel=10 note=40 velocity=95 time=0.06696425
EXTRACT: note_off channel=1 note=71 velocity=95 time=0.20089275
EXTRACT: note_off channel=1 note=66 velocity=95 time=0
EXTRACT: note_off channel=1 note=63 velocity=95 time=0
EXTRACT: note_off channel=1 note=59 velocity=95 time=0
EXTRACT: note_on channel=1 note=70 velocity=95 time=0
EXTRACT: note_on channel=1 note=66 velocity=95 time=0
EXTRACT: note_on channel=1 note=63 velocity=95 time=0
EXTRACT: note_on channel=1 note=58 velocity=95 time=0
EXTRACT: note_off channel=2 note=59 velocity=95 time=0
EXTRACT: note_on channel=2 note=58 velocity=70 time=0
EXTRACT: note_off channel=4 note=63 velocity=47 time=0
EXTRACT: note_off channel=4 note=59 velocity=95 time=0
EXTRACT: note_on channel=4 note=61 velocity=47 time=0
EXTRACT: note_on channel=4 note=58 velocity=95 time=0
EXTRACT: note_off channel=9 note=36 velocity=95 time=0
EXTRACT: note_off channel=3 note=63 velocity=47 time=0.033482125
EXTRACT: note_off channel=3 note=59 velocity=95 time=0
EXTRACT: note_on channel=3 note=61 velocity=47 time=0
EXTRACT: note_on channel=3 note=58 velocity=95 time=0
EXTRACT: note_off channel=2 note=58 velocity=70 time=0.234374875
EXTRACT: note_on channel=2 note=63 velocity=95 time=0
EXTRACT: note_off channel=5 note=64 velocity=95 time=0
EXTRACT: note_off channel=5 note=59 velocity=95 time=0
EXTRACT: note_off channel=5 note=55 velocity=95 time=0
EXTRACT: note_off channel=5 note=50 velocity=95 time=0
EXTRACT: note_off channel=7 note=33 velocity=95 time=0
EXTRACT: note_on channel=7 note=33 velocity=95 time=0
EXTRACT: note_off channel=8 note=23 velocity=95 time=0
EXTRACT: note_on channel=8 note=23 velocity=95 time=0
EXTRACT: note_on channel=10 note=40 velocity=95 time=0
EXTRACT: note_on channel=9 note=36 velocity=95 time=0
EXTRACT: note_off channel=10 note=40 velocity=95 time=0.06696425
EXTRACT: note_off channel=2 note=63 velocity=95 time=0.20089275
EXTRACT: note_off channel=4 note=61 velocity=47 time=0
EXTRACT: note_off channel=4 note=58 velocity=95 time=0
EXTRACT: pitchwheel channel=4 pitch=0 time=0
EXTRACT: note_on channel=4 note=62 velocity=95 time=0
EXTRACT: note_on channel=5 note=64 velocity=95 time=0
EXTRACT: note_on channel=5 note=59 velocity=95 time=0
EXTRACT: note_on channel=5 note=55 velocity=95 time=0
EXTRACT: note_on channel=5 note=50 velocity=95 time=0
EXTRACT: note_off channel=7 note=33 velocity=95 time=0
EXTRACT: note_off channel=9 note=36 velocity=95 time=0
EXTRACT: note_on channel=9 note=28 velocity=95 time=0
EXTRACT: note_on channel=9 note=39 velocity=95 time=0
EXTRACT: note_off channel=3 note=61 velocity=47 time=0.033482125
EXTRACT: note_off channel=3 note=58 velocity=95 time=0
EXTRACT: pitchwheel channel=3 pitch=0 time=0
EXTRACT: note_on channel=3 note=63 velocity=95 time=0
EXTRACT: pitchwheel channel=4 pitch=128 time=0.013392850000000001
EXTRACT: pitchwheel channel=3 pitch=128 time=0.033482125
EXTRACT: pitchwheel channel=4 pitch=256 time=0.013392850000000001
EXTRACT: pitchwheel channel=3 pitch=256 time=0.033482125
EXTRACT: pitchwheel channel=4 pitch=384 time=0.013392850000000001
EXTRACT: pitchwheel channel=3 pitch=384 time=0.033482125
EXTRACT: pitchwheel channel=4 pitch=512 time=0.013392850000000001
EXTRACT: pitchwheel channel=3 pitch=512 time=0.033482125
EXTRACT: pitchwheel channel=4 pitch=640 time=0.013392850000000001
EXTRACT: pitchwheel channel=4 pitch=640 time=0
EXTRACT: pitchwheel channel=4 pitch=0 time=0
EXTRACT: note_off channel=4 note=62 velocity=95 time=0
EXTRACT: note_on channel=2 note=58 velocity=95 time=0.033482125
EXTRACT: pitchwheel channel=3 pitch=640 time=0
EXTRACT: pitchwheel channel=3 pitch=640 time=0
EXTRACT: pitchwheel channel=3 pitch=0 time=0
EXTRACT: note_off channel=3 note=63 velocity=95 time=0
EXTRACT: pitchwheel channel=4 pitch=0 time=0
EXTRACT: note_on channel=4 note=63 velocity=95 time=0
EXTRACT: note_off channel=8 note=23 velocity=95 time=0
EXTRACT: pitchwheel channel=4 pitch=128 time=0.023995522916666668
EXTRACT: pitchwheel channel=3 pitch=0 time=0.009486602083333334
EXTRACT: note_on channel=3 note=64 velocity=95 time=0
EXTRACT: pitchwheel channel=4 pitch=256 time=0.014508920833333334
EXTRACT: pitchwheel channel=3 pitch=128 time=0.009486602083333334
EXTRACT: pitchwheel channel=4 pitch=384 time=0.014508920833333334
EXTRACT: pitchwheel channel=3 pitch=256 time=0.009486602083333334
EXTRACT: pitchwheel channel=4 pitch=512 time=0.014508920833333334
EXTRACT: pitchwheel channel=3 pitch=384 time=0.009486602083333334
EXTRACT: pitchwheel channel=4 pitch=640 time=0.014508920833333334
EXTRACT: pitchwheel channel=3 pitch=512 time=0.009486602083333334
EXTRACT: pitchwheel channel=4 pitch=768 time=0.014508920833333334
EXTRACT: pitchwheel channel=3 pitch=640 time=0.009486602083333334
EXTRACT: pitchwheel channel=4 pitch=896 time=0.014508920833333334
EXTRACT: pitchwheel channel=3 pitch=768 time=0.009486602083333334
EXTRACT: pitchwheel channel=4 pitch=1024 time=0.014508920833333334
EXTRACT: pitchwheel channel=3 pitch=896 time=0.009486602083333334
EXTRACT: pitchwheel channel=4 pitch=1152 time=0.014508920833333334
EXTRACT: pitchwheel channel=3 pitch=1024 time=0.009486602083333334
EXTRACT: pitchwheel channel=4 pitch=1280 time=0.014508920833333334
EXTRACT: pitchwheel channel=3 pitch=1152 time=0.009486602083333334
EXTRACT: pitchwheel channel=4 pitch=1408 time=0.014508920833333334
EXTRACT: note_off channel=1 note=70 velocity=95 time=0.003906247916666667
EXTRACT: note_off channel=1 note=66 velocity=95 time=0
EXTRACT: note_off channel=1 note=63 velocity=95 time=0
EXTRACT: note_off channel=1 note=58 velocity=95 time=0
EXTRACT: note_on channel=1 note=71 velocity=95 time=0
EXTRACT: note_on channel=1 note=66 velocity=95 time=0
EXTRACT: note_on channel=1 note=63 velocity=95 time=0
EXTRACT: note_on channel=1 note=59 velocity=95 time=0
EXTRACT: note_off channel=2 note=58 velocity=95 time=0
EXTRACT: note_on channel=2 note=59 velocity=70 time=0
EXTRACT: pitchwheel channel=4 pitch=1408 time=0
EXTRACT: pitchwheel channel=4 pitch=0 time=0
EXTRACT: note_off channel=4 note=63 velocity=95 time=0
EXTRACT: pitchwheel channel=4 pitch=0 time=0
EXTRACT: note_on channel=4 note=59 velocity=95 time=0
EXTRACT: note_on channel=7 note=33 velocity=95 time=0
EXTRACT: note_on channel=8 note=23 velocity=95 time=0
EXTRACT: note_on channel=10 note=40 velocity=95 time=0
EXTRACT: note_off channel=9 note=28 velocity=95 time=0
EXTRACT: note_off channel=9 note=39 velocity=95 time=0
EXTRACT: note_on channel=9 note=36 velocity=95 time=0
EXTRACT: pitchwheel channel=3 pitch=1280 time=0.005580354166666667
EXTRACT: pitchwheel channel=4 pitch=-128 time=0.012276779166666666
EXTRACT: pitchwheel channel=3 pitch=1408 time=0.01171874375
EXTRACT: pitchwheel channel=3 pitch=1408 time=0.003906247916666667
EXTRACT: pitchwheel channel=3 pitch=0 time=0
EXTRACT: note_off channel=3 note=64 velocity=95 time=0
EXTRACT: pitchwheel channel=3 pitch=0 time=0
EXTRACT: note_on channel=3 note=60 velocity=95 time=0
EXTRACT: pitchwheel channel=4 pitch=-256 time=0.0022321416666666667
EXTRACT: pitchwheel channel=3 pitch=-128 time=0.015624991666666668
EXTRACT: pitchwheel channel=4 pitch=-384 time=0.0022321416666666667
EXTRACT: note_off channel=10 note=40 velocity=95 time=0.013392850000000001
EXTRACT: pitchwheel channel=3 pitch=-256 time=0.0022321416666666667
EXTRACT: pitchwheel channel=4 pitch=-512 time=0.0022321416666666667
EXTRACT: pitchwheel channel=3 pitch=-384 time=0.015624991666666668
EXTRACT: pitchwheel channel=4 pitch=-640 time=0.0022321416666666667
EXTRACT: pitchwheel channel=3 pitch=-512 time=0.015624991666666668
EXTRACT: pitchwheel channel=4 pitch=-768 time=0.0022321416666666667
EXTRACT: pitchwheel channel=3 pitch=-640 time=0.015624991666666668
EXTRACT: pitchwheel channel=4 pitch=-896 time=0.0022321416666666667
EXTRACT: pitchwheel channel=3 pitch=-768 time=0.015624991666666668
EXTRACT: pitchwheel channel=4 pitch=-1024 time=0.0022321416666666667
EXTRACT: pitchwheel channel=3 pitch=-896 time=0.015624991666666668
EXTRACT: pitchwheel channel=4 pitch=-1152 time=0.0022321416666666667
EXTRACT: pitchwheel channel=3 pitch=-1024 time=0.015624991666666668
EXTRACT: pitchwheel channel=4 pitch=-1280 time=0.0022321416666666667
EXTRACT: pitchwheel channel=3 pitch=-1152 time=0.015624991666666668
EXTRACT: pitchwheel channel=4 pitch=-1408 time=0.0022321416666666667
EXTRACT: pitchwheel channel=4 pitch=-1408 time=0.0044642833333333335
EXTRACT: pitchwheel channel=4 pitch=0 time=0
EXTRACT: note_off channel=4 note=59 velocity=95 time=0
EXTRACT: pitchwheel channel=3 pitch=-1280 time=0.011160708333333333
EXTRACT: pitchwheel channel=3 pitch=-1408 time=0.017857133333333334
EXTRACT: pitchwheel channel=3 pitch=-1408 time=0.0044642833333333335
EXTRACT: pitchwheel channel=3 pitch=0 time=0
EXTRACT: note_off channel=3 note=60 velocity=95 time=0
EXTRACT: note_off channel=2 note=59 velocity=70 time=0.033482125
EXTRACT: note_on channel=2 note=63 velocity=95 time=0
EXTRACT: note_off channel=5 note=64 velocity=95 time=0
EXTRACT: note_off channel=5 note=59 velocity=95 time=0
EXTRACT: note_off channel=5 note=55 velocity=95 time=0
EXTRACT: note_off channel=5 note=50 velocity=95 time=0
EXTRACT: note_off channel=2 note=63 velocity=95 time=0.267857
EXTRACT: note_on channel=2 note=66 velocity=95 time=0
EXTRACT: pitchwheel channel=4 pitch=0 time=0
EXTRACT: note_on channel=4 note=62 velocity=95 time=0
EXTRACT: note_on channel=5 note=64 velocity=95 time=0
EXTRACT: note_on channel=5 note=59 velocity=95 time=0
EXTRACT: note_on channel=5 note=55 velocity=95 time=0
EXTRACT: note_on channel=5 note=50 velocity=95 time=0
EXTRACT: note_off channel=7 note=33 velocity=95 time=0
EXTRACT: note_off channel=8 note=23 velocity=95 time=0
EXTRACT: note_off channel=9 note=36 velocity=95 time=0
EXTRACT: note_on channel=9 note=28 velocity=95 time=0
EXTRACT: note_on channel=9 note=39 velocity=95 time=0
EXTRACT: pitchwheel channel=3 pitch=0 time=0.033482125
EXTRACT: note_on channel=3 note=63 velocity=95 time=0
EXTRACT: pitchwheel channel=4 pitch=128 time=0.013392850000000001
EXTRACT: pitchwheel channel=3 pitch=128 time=0.033482125
EXTRACT: pitchwheel channel=4 pitch=256 time=0.013392850000000001
EXTRACT: pitchwheel channel=3 pitch=256 time=0.033482125
EXTRACT: pitchwheel channel=4 pitch=384 time=0.013392850000000001
EXTRACT: pitchwheel channel=3 pitch=384 time=0.033482125
EXTRACT: pitchwheel channel=4 pitch=512 time=0.013392850000000001
EXTRACT: pitchwheel channel=3 pitch=512 time=0.033482125
EXTRACT: pitchwheel channel=4 pitch=640 time=0.013392850000000001
EXTRACT: pitchwheel channel=4 pitch=640 time=0
EXTRACT: pitchwheel channel=4 pitch=0 time=0
EXTRACT: note_off channel=4 note=62 velocity=95 time=0
EXTRACT: note_off channel=2 note=66 velocity=95 time=0.033482125
EXTRACT: note_on channel=2 note=59 velocity=95 time=0
EXTRACT: pitchwheel channel=3 pitch=640 time=0
EXTRACT: pitchwheel channel=3 pitch=640 time=0
EXTRACT: pitchwheel channel=3 pitch=0 time=0
EXTRACT: note_off channel=3 note=63 velocity=95 time=0
EXTRACT: pitchwheel channel=4 pitch=0 time=0
EXTRACT: note_on channel=4 note=63 velocity=95 time=0
EXTRACT: note_on channel=7 note=33 velocity=95 time=0
EXTRACT: note_on channel=8 note=23 velocity=95 time=0
EXTRACT: note_on channel=10 note=40 velocity=95 time=0
EXTRACT: note_off channel=9 note=28 velocity=95 time=0
EXTRACT: note_off channel=9 note=39 velocity=95 time=0
EXTRACT: note_on channel=9 note=36 velocity=95 time=0
EXTRACT: pitchwheel channel=4 pitch=128 time=0.023995522916666668
EXTRACT: pitchwheel channel=3 pitch=0 time=0.009486602083333334
EXTRACT: note_on channel=3 note=64 velocity=95 time=0
EXTRACT: pitchwheel channel=4 pitch=256 time=0.014508920833333334
EXTRACT: pitchwheel channel=3 pitch=128 time=0.009486602083333334
EXTRACT: note_off channel=10 note=40 velocity=95 time=0.009486602083333334
EXTRACT: pitchwheel channel=4 pitch=384 time=0.00502231875
EXTRACT: pitchwheel channel=3 pitch=256 time=0.009486602083333334
EXTRACT: pitchwheel channel=4 pitch=512 time=0.014508920833333334
EXTRACT: pitchwheel channel=3 pitch=384 time=0.009486602083333334
EXTRACT: pitchwheel channel=4 pitch=640 time=0.014508920833333334
EXTRACT: pitchwheel channel=3 pitch=512 time=0.009486602083333334
EXTRACT: pitchwheel channel=4 pitch=768 time=0.014508920833333334
EXTRACT: pitchwheel channel=3 pitch=640 time=0.009486602083333334
EXTRACT: pitchwheel channel=4 pitch=896 time=0.014508920833333334
EXTRACT: pitchwheel channel=3 pitch=768 time=0.009486602083333334
EXTRACT: pitchwheel channel=4 pitch=1024 time=0.014508920833333334
EXTRACT: pitchwheel channel=3 pitch=896 time=0.009486602083333334
EXTRACT: pitchwheel channel=4 pitch=1152 time=0.014508920833333334
EXTRACT: pitchwheel channel=3 pitch=1024 time=0.009486602083333334
EXTRACT: pitchwheel channel=4 pitch=1280 time=0.014508920833333334
EXTRACT: pitchwheel channel=3 pitch=1152 time=0.009486602083333334
EXTRACT: pitchwheel channel=4 pitch=1408 time=0.014508920833333334
EXTRACT: note_off channel=1 note=71 velocity=95 time=0.003906247916666667
EXTRACT: note_off channel=1 note=66 velocity=95 time=0
EXTRACT: note_off channel=1 note=63 velocity=95 time=0
EXTRACT: note_off channel=1 note=59 velocity=95 time=0
EXTRACT: note_on channel=1 note=70 velocity=95 time=0
EXTRACT: note_on channel=1 note=66 velocity=95 time=0
EXTRACT: note_on channel=1 note=63 velocity=95 time=0
EXTRACT: note_on channel=1 note=58 velocity=95 time=0
EXTRACT: note_off channel=2 note=59 velocity=95 time=0
EXTRACT: note_on channel=2 note=58 velocity=70 time=0
EXTRACT: pitchwheel channel=4 pitch=1408 time=0
EXTRACT: pitchwheel channel=4 pitch=0 time=0
EXTRACT: note_off channel=4 note=63 velocity=95 time=0
EXTRACT: pitchwheel channel=4 pitch=0 time=0
EXTRACT: note_on channel=4 note=59 velocity=95 time=0
EXTRACT: pitchwheel channel=6 pitch=0 time=0
EXTRACT: note_on channel=6 note=53 velocity=95 time=0
EXTRACT: pitchwheel channel=6 pitch=0 time=0
EXTRACT: note_on channel=6 note=53 velocity=95 time=0
EXTRACT: note_off channel=9 note=36 velocity=95 time=0
EXTRACT: pitchwheel channel=3 pitch=1280 time=0.005580354166666667
EXTRACT: pitchwheel channel=6 pitch=-128 time=0.010602672916666667
EXTRACT: pitchwheel channel=6 pitch=-128 time=0
EXTRACT: pitchwheel channel=4 pitch=-128 time=0.0016741062500000002
EXTRACT: pitchwheel channel=3 pitch=1408 time=0.01171874375
EXTRACT: pitchwheel channel=6 pitch=-256 time=0.0027901770833333333
EXTRACT: pitchwheel channel=6 pitch=-256 time=0
EXTRACT: pitchwheel channel=3 pitch=1408 time=0.0011160708333333334
EXTRACT: pitchwheel channel=3 pitch=0 time=0
EXTRACT: note_off channel=3 note=64 velocity=95 time=0
EXTRACT: pitchwheel channel=3 pitch=0 time=0
EXTRACT: note_on channel=3 note=60 velocity=95 time=0
EXTRACT: pitchwheel channel=4 pitch=-256 time=0.0022321416666666667
EXTRACT: pitchwheel channel=6 pitch=-384 time=0.012834814583333333
EXTRACT: pitchwheel channel=6 pitch=-384 time=0
EXTRACT: pitchwheel channel=3 pitch=-128 time=0.0027901770833333333
EXTRACT: pitchwheel channel=4 pitch=-384 time=0.0022321416666666667
EXTRACT: pitchwheel channel=6 pitch=-512 time=0.011160708333333333
EXTRACT: pitchwheel channel=6 pitch=-512 time=0
EXTRACT: pitchwheel channel=3 pitch=-256 time=0.0044642833333333335
EXTRACT: pitchwheel channel=4 pitch=-512 time=0.0022321416666666667
EXTRACT: pitchwheel channel=6 pitch=-640 time=0.009486602083333334
EXTRACT: pitchwheel channel=6 pitch=-640 time=0
EXTRACT: pitchwheel channel=3 pitch=-384 time=0.006138389583333333
EXTRACT: pitchwheel channel=4 pitch=-640 time=0.0022321416666666667
EXTRACT: pitchwheel channel=6 pitch=-768 time=0.007812495833333334
EXTRACT: pitchwheel channel=6 pitch=-768 time=0
EXTRACT: pitchwheel channel=3 pitch=-512 time=0.007812495833333334
EXTRACT: pitchwheel channel=4 pitch=-768 time=0.0022321416666666667
EXTRACT: pitchwheel channel=6 pitch=-896 time=0.006138389583333333
EXTRACT: pitchwheel channel=6 pitch=-896 time=0
EXTRACT: pitchwheel channel=3 pitch=-640 time=0.009486602083333334
EXTRACT: pitchwheel channel=4 pitch=-896 time=0.0022321416666666667
EXTRACT: pitchwheel channel=6 pitch=-1024 time=0.0044642833333333335
EXTRACT: pitchwheel channel=6 pitch=-1024 time=0
EXTRACT: pitchwheel channel=3 pitch=-768 time=0.011160708333333333
EXTRACT: pitchwheel channel=4 pitch=-1024 time=0.0022321416666666667
EXTRACT: pitchwheel channel=6 pitch=-1152 time=0.0027901770833333333
EXTRACT: pitchwheel channel=6 pitch=-1152 time=0
EXTRACT: pitchwheel channel=3 pitch=-896 time=0.012834814583333333
EXTRACT: pitchwheel channel=4 pitch=-1152 time=0.0022321416666666667
EXTRACT: pitchwheel channel=6 pitch=-1280 time=0.0011160708333333334
EXTRACT: pitchwheel channel=6 pitch=-1280 time=0
EXTRACT: pitchwheel channel=3 pitch=-1024 time=0.014508920833333334
EXTRACT: pitchwheel channel=6 pitch=-1408 time=0.0016741062500000002
EXTRACT: pitchwheel channel=6 pitch=-1408 time=0
EXTRACT: pitchwheel channel=4 pitch=-1280 time=0.0005580354166666667
EXTRACT: pitchwheel channel=3 pitch=-1152 time=0.015624991666666668
EXTRACT: pitchwheel channel=6 pitch=-1536 time=0
EXTRACT: pitchwheel channel=6 pitch=-1536 time=0
EXTRACT: pitchwheel channel=4 pitch=-1408 time=0.0022321416666666667
EXTRACT: pitchwheel channel=4 pitch=-1408 time=0.0044642833333333335
EXTRACT: pitchwheel channel=4 pitch=0 time=0
EXTRACT: note_off channel=4 note=59 velocity=95 time=0
EXTRACT: pitchwheel channel=6 pitch=-1664 time=0.009486602083333334
EXTRACT: pitchwheel channel=6 pitch=-1664 time=0
EXTRACT: pitchwheel channel=3 pitch=-1280 time=0.0016741062500000002
EXTRACT: pitchwheel channel=6 pitch=-1792 time=0.014508920833333334
EXTRACT: pitchwheel channel=6 pitch=-1792 time=0
EXTRACT: pitchwheel channel=3 pitch=-1408 time=0.0033482125000000003
EXTRACT: pitchwheel channel=3 pitch=-1408 time=0.0044642833333333335
EXTRACT: pitchwheel channel=3 pitch=0 time=0
EXTRACT: note_off channel=3 note=60 velocity=95 time=0
EXTRACT: pitchwheel channel=6 pitch=-1920 time=0.00837053125
EXTRACT: pitchwheel channel=6 pitch=-1920 time=0
EXTRACT: pitchwheel channel=6 pitch=-2048 time=0.016183027083333332
EXTRACT: pitchwheel channel=6 pitch=-2048 time=0
EXTRACT: note_off channel=2 note=58 velocity=70 time=0.008928566666666667
EXTRACT: note_on channel=2 note=63 velocity=95 time=0
EXTRACT: note_off channel=5 note=64 velocity=95 time=0
EXTRACT: note_off channel=5 note=59 velocity=95 time=0
EXTRACT: note_off channel=5 note=55 velocity=95 time=0
EXTRACT: note_off channel=5 note=50 velocity=95 time=0
EXTRACT: note_off channel=7 note=33 velocity=95 time=0
EXTRACT: note_on channel=7 note=33 velocity=95 time=0
EXTRACT: note_off channel=8 note=23 velocity=95 time=0
EXTRACT: note_on channel=8 note=23 velocity=95 time=0
EXTRACT: note_on channel=10 note=40 velocity=95 time=0
EXTRACT: note_on channel=9 note=36 velocity=95 time=0
EXTRACT: pitchwheel channel=6 pitch=-2176 time=0.007254460416666667
EXTRACT: pitchwheel channel=6 pitch=-2176 time=0
EXTRACT: pitchwheel channel=6 pitch=-2304 time=0.016183027083333332
EXTRACT: pitchwheel channel=6 pitch=-2304 time=0
EXTRACT: pitchwheel channel=6 pitch=-2432 time=0.016183027083333332
EXTRACT: pitchwheel channel=6 pitch=-2432 time=0
EXTRACT: pitchwheel channel=6 pitch=-2560 time=0.016183027083333332
EXTRACT: pitchwheel channel=6 pitch=-2560 time=0
EXTRACT: note_off channel=10 note=40 velocity=95 time=0.011160708333333333
EXTRACT: pitchwheel channel=6 pitch=-2688 time=0.00502231875
EXTRACT: pitchwheel channel=6 pitch=-2688 time=0
EXTRACT: pitchwheel channel=6 pitch=-2816 time=0.016183027083333332
EXTRACT: pitchwheel channel=6 pitch=-2816 time=0
EXTRACT: pitchwheel channel=6 pitch=-2944 time=0.016183027083333332
EXTRACT: pitchwheel channel=6 pitch=-2944 time=0
EXTRACT: pitchwheel channel=6 pitch=-3072 time=0.016183027083333332
EXTRACT: pitchwheel channel=6 pitch=-3072 time=0
EXTRACT: pitchwheel channel=6 pitch=-3200 time=0.016183027083333332
EXTRACT: pitchwheel channel=6 pitch=-3200 time=0
EXTRACT: pitchwheel channel=6 pitch=-3328 time=0.016183027083333332
EXTRACT: pitchwheel channel=6 pitch=-3328 time=0
EXTRACT: pitchwheel channel=6 pitch=-3456 time=0.016183027083333332
EXTRACT: pitchwheel channel=6 pitch=-3456 time=0
EXTRACT: pitchwheel channel=6 pitch=-3584 time=0.016183027083333332
EXTRACT: pitchwheel channel=6 pitch=-3584 time=0
EXTRACT: pitchwheel channel=6 pitch=-3712 time=0.016183027083333332
EXTRACT: pitchwheel channel=6 pitch=-3712 time=0
EXTRACT: pitchwheel channel=6 pitch=-3840 time=0.016183027083333332
EXTRACT: pitchwheel channel=6 pitch=-3840 time=0
EXTRACT: pitchwheel channel=6 pitch=-3968 time=0.016183027083333332
EXTRACT: pitchwheel channel=6 pitch=-3968 time=0
EXTRACT: pitchwheel channel=6 pitch=-4096 time=0.016183027083333332
EXTRACT: pitchwheel channel=6 pitch=-4096 time=0
EXTRACT: pitchwheel channel=6 pitch=-4224 time=0.016183027083333332
EXTRACT: pitchwheel channel=6 pitch=-4224 time=0
EXTRACT: note_off channel=2 note=63 velocity=95 time=0.0016741062500000002
EXTRACT: note_on channel=2 note=46 velocity=127 time=0
EXTRACT: note_on channel=5 note=64 velocity=95 time=0
EXTRACT: note_on channel=5 note=59 velocity=95 time=0
EXTRACT: note_on channel=5 note=55 velocity=95 time=0
EXTRACT: note_on channel=5 note=50 velocity=95 time=0
EXTRACT: note_off channel=7 note=33 velocity=95 time=0
EXTRACT: note_off channel=9 note=36 velocity=95 time=0
EXTRACT: note_on channel=9 note=28 velocity=95 time=0
EXTRACT: note_on channel=9 note=39 velocity=95 time=0
EXTRACT: pitchwheel channel=6 pitch=-4352 time=0.014508920833333334
EXTRACT: pitchwheel channel=6 pitch=-4352 time=0
EXTRACT: pitchwheel channel=6 pitch=-4480 time=0.016183027083333332
EXTRACT: pitchwheel channel=6 pitch=-4480 time=0
EXTRACT: pitchwheel channel=6 pitch=-4608 time=0.016183027083333332
EXTRACT: pitchwheel channel=6 pitch=-4608 time=0
EXTRACT: pitchwheel channel=6 pitch=-4736 time=0.016183027083333332
EXTRACT: pitchwheel channel=6 pitch=-4736 time=0
EXTRACT: pitchwheel channel=6 pitch=-4864 time=0.016183027083333332
EXTRACT: pitchwheel channel=6 pitch=-4864 time=0
EXTRACT: pitchwheel channel=6 pitch=-4992 time=0.016183027083333332
EXTRACT: pitchwheel channel=6 pitch=-4992 time=0
EXTRACT: pitchwheel channel=6 pitch=-5120 time=0.016183027083333332
EXTRACT: pitchwheel channel=6 pitch=-5120 time=0
EXTRACT: pitchwheel channel=6 pitch=-5248 time=0.016183027083333332
EXTRACT: pitchwheel channel=6 pitch=-5248 time=0
EXTRACT: pitchwheel channel=6 pitch=-5376 time=0.016183027083333332
EXTRACT: pitchwheel channel=6 pitch=-5376 time=0
EXTRACT: pitchwheel channel=6 pitch=-5504 time=0.016183027083333332
EXTRACT: pitchwheel channel=6 pitch=-5504 time=0
EXTRACT: pitchwheel channel=6 pitch=-5632 time=0.016183027083333332
EXTRACT: pitchwheel channel=6 pitch=-5632 time=0
EXTRACT: pitchwheel channel=6 pitch=-5760 time=0.016183027083333332
EXTRACT: pitchwheel channel=6 pitch=-5760 time=0
EXTRACT: pitchwheel channel=6 pitch=-5888 time=0.016183027083333332
EXTRACT: pitchwheel channel=6 pitch=-5888 time=0
EXTRACT: pitchwheel channel=6 pitch=-6016 time=0.016183027083333332
EXTRACT: pitchwheel channel=6 pitch=-6016 time=0
EXTRACT: pitchwheel channel=6 pitch=-6144 time=0.016183027083333332
EXTRACT: pitchwheel channel=6 pitch=-6144 time=0
EXTRACT: pitchwheel channel=6 pitch=-6272 time=0.016183027083333332
EXTRACT: pitchwheel channel=6 pitch=-6272 time=0
EXTRACT: note_on channel=2 note=58 velocity=95 time=0.010602672916666667
EXTRACT: note_off channel=8 note=23 velocity=95 time=0
EXTRACT: pitchwheel channel=6 pitch=-6400 time=0.005580354166666667
EXTRACT: pitchwheel channel=6 pitch=-6400 time=0
EXTRACT: pitchwheel channel=6 pitch=-6528 time=0.016183027083333332
EXTRACT: pitchwheel channel=6 pitch=-6528 time=0
EXTRACT: pitchwheel channel=6 pitch=-6656 time=0.016183027083333332
EXTRACT: pitchwheel channel=6 pitch=-6656 time=0
EXTRACT: pitchwheel channel=6 pitch=-6784 time=0.016183027083333332
EXTRACT: pitchwheel channel=6 pitch=-6784 time=0
EXTRACT: pitchwheel channel=6 pitch=-6912 time=0.016183027083333332
EXTRACT: pitchwheel channel=6 pitch=-6912 time=0
EXTRACT: pitchwheel channel=6 pitch=-7040 time=0.016183027083333332
EXTRACT: pitchwheel channel=6 pitch=-7040 time=0
EXTRACT: pitchwheel channel=6 pitch=-7168 time=0.016183027083333332
EXTRACT: pitchwheel channel=6 pitch=-7168 time=0
EXTRACT: pitchwheel channel=6 pitch=-7296 time=0.016183027083333332
EXTRACT: pitchwheel channel=6 pitch=-7296 time=0
EXTRACT: pitchwheel channel=6 pitch=-7424 time=0.016183027083333332
EXTRACT: pitchwheel channel=6 pitch=-7424 time=0
EXTRACT: pitchwheel channel=6 pitch=-7552 time=0.016183027083333332
EXTRACT: pitchwheel channel=6 pitch=-7552 time=0
EXTRACT: pitchwheel channel=6 pitch=-7680 time=0.016183027083333332
EXTRACT: pitchwheel channel=6 pitch=-7680 time=0
EXTRACT: pitchwheel channel=6 pitch=-7808 time=0.016183027083333332
EXTRACT: pitchwheel channel=6 pitch=-7808 time=0
EXTRACT: pitchwheel channel=6 pitch=-7936 time=0.016183027083333332
EXTRACT: pitchwheel channel=6 pitch=-7936 time=0
EXTRACT: pitchwheel channel=6 pitch=-8064 time=0.016183027083333332
EXTRACT: pitchwheel channel=6 pitch=-8064 time=0
EXTRACT: pitchwheel channel=6 pitch=-8192 time=0.016183027083333332
EXTRACT: pitchwheel channel=6 pitch=-8192 time=0
EXTRACT: pitchwheel channel=6 pitch=-8192 time=0.016183027083333332
EXTRACT: pitchwheel channel=6 pitch=-8192 time=0
EXTRACT: pitchwheel channel=6 pitch=-8192 time=0.016183027083333332
EXTRACT: pitchwheel channel=6 pitch=-8192 time=0
EXTRACT: note_on channel=0 note=59 velocity=95 time=0.0033482125000000003
EXTRACT: note_off channel=1 note=70 velocity=95 time=0
EXTRACT: note_off channel=1 note=66 velocity=95 time=0
EXTRACT: note_off channel=1 note=63 velocity=95 time=0
EXTRACT: note_off channel=1 note=58 velocity=95 time=0
EXTRACT: note_on channel=1 note=71 velocity=95 time=0
EXTRACT: note_on channel=1 note=66 velocity=95 time=0
EXTRACT: note_on channel=1 note=63 velocity=95 time=0
EXTRACT: note_on channel=1 note=59 velocity=95 time=0
EXTRACT: note_off channel=2 note=46 velocity=127 time=0
EXTRACT: note_off channel=2 note=58 velocity=95 time=0
EXTRACT: note_on channel=2 note=59 velocity=70 time=0
EXTRACT: note_on channel=2 note=47 velocity=127 time=0
EXTRACT: pitchwheel channel=6 pitch=-8192 time=0
EXTRACT: pitchwheel channel=6 pitch=0 time=0
EXTRACT: note_off channel=6 note=53 velocity=95 time=0
EXTRACT: pitchwheel channel=6 pitch=-8192 time=0
EXTRACT: pitchwheel channel=6 pitch=0 time=0
EXTRACT: note_off channel=6 note=53 velocity=95 time=0
EXTRACT: note_on channel=7 note=33 velocity=95 time=0
EXTRACT: note_on channel=8 note=23 velocity=95 time=0
EXTRACT: note_on channel=10 note=40 velocity=95 time=0
EXTRACT: note_off channel=9 note=28 velocity=95 time=0
EXTRACT: note_off channel=9 note=39 velocity=95 time=0
EXTRACT: note_on channel=9 note=36 velocity=95 time=0
EXTRACT: note_off channel=10 note=40 velocity=95 time=0.06696425
EXTRACT: note_off channel=0 note=59 velocity=95 time=0.20089275
EXTRACT: note_on channel=0 note=63 velocity=95 time=0
EXTRACT: note_off channel=2 note=59 velocity=70 time=0
EXTRACT: note_off channel=2 note=47 velocity=127 time=0
EXTRACT: note_on channel=2 note=63 velocity=95 time=0
EXTRACT: note_off channel=5 note=64 velocity=95 time=0
EXTRACT: note_off channel=5 note=59 velocity=95 time=0
EXTRACT: note_off channel=5 note=55 velocity=95 time=0
EXTRACT: note_off channel=5 note=50 velocity=95 time=0
EXTRACT: note_off channel=0 note=63 velocity=95 time=0.267857
EXTRACT: note_on channel=0 note=66 velocity=95 time=0
EXTRACT: note_off channel=2 note=63 velocity=95 time=0
EXTRACT: note_on channel=2 note=66 velocity=95 time=0
EXTRACT: note_on channel=4 note=63 velocity=47 time=0
EXTRACT: note_on channel=4 note=59 velocity=95 time=0
EXTRACT: note_on channel=5 note=64 velocity=95 time=0
EXTRACT: note_on channel=5 note=59 velocity=95 time=0
EXTRACT: note_on channel=5 note=55 velocity=95 time=0
EXTRACT: note_on channel=5 note=50 velocity=95 time=0
EXTRACT: note_off channel=7 note=33 velocity=95 time=0
EXTRACT: note_off channel=8 note=23 velocity=95 time=0
EXTRACT: note_off channel=9 note=36 velocity=95 time=0
EXTRACT: note_on channel=9 note=28 velocity=95 time=0
EXTRACT: note_on channel=9 note=39 velocity=95 time=0
EXTRACT: note_on channel=3 note=63 velocity=47 time=0.033482125
EXTRACT: note_on channel=3 note=59 velocity=95 time=0
EXTRACT: note_off channel=0 note=66 velocity=95 time=0.234374875
EXTRACT: note_on channel=0 note=59 velocity=95 time=0
EXTRACT: note_off channel=2 note=66 velocity=95 time=0
EXTRACT: note_on channel=2 note=59 velocity=95 time=0
EXTRACT: note_on channel=7 note=33 velocity=95 time=0
EXTRACT: note_on channel=8 note=23 velocity=95 time=0
EXTRACT: note_on channel=10 note=40 velocity=95 time=0
EXTRACT: note_off channel=9 note=28 velocity=95 time=0
EXTRACT: note_off channel=9 note=39 velocity=95 time=0
EXTRACT: note_on channel=9 note=36 velocity=95 time=0
EXTRACT: note_off channel=10 note=40 velocity=95 time=0.06696425
EXTRACT: note_off channel=0 note=59 velocity=95 time=0.20089275
EXTRACT: note_on channel=0 note=58 velocity=70 time=0
EXTRACT: note_off channel=1 note=71 velocity=95 time=0
EXTRACT: note_off channel=1 note=66 velocity=95 time=0
EXTRACT: note_off channel=1 note=63 velocity=95 time=0
EXTRACT: note_off channel=1 note=59 velocity=95 time=0
EXTRACT: note_on channel=1 note=70 velocity=95 time=0
EXTRACT: note_on channel=1 note=66 velocity=95 time=0
EXTRACT: note_on channel=1 note=63 velocity=95 time=0
EXTRACT: note_on channel=1 note=58 velocity=95 time=0
EXTRACT: note_off channel=2 note=59 velocity=95 time=0
EXTRACT: note_on channel=2 note=58 velocity=70 time=0
EXTRACT: note_off channel=4 note=63 velocity=47 time=0
EXTRACT: note_off channel=4 note=59 velocity=95 time=0
EXTRACT: note_on channel=4 note=61 velocity=47 time=0
EXTRACT: note_on channel=4 note=58 velocity=95 time=0
EXTRACT: note_off channel=9 note=36 velocity=95 time=0
EXTRACT: note_off channel=3 note=63 velocity=47 time=0.033482125
EXTRACT: note_off channel=3 note=59 velocity=95 time=0
EXTRACT: note_on channel=3 note=61 velocity=47 time=0
EXTRACT: note_on channel=3 note=58 velocity=95 time=0
EXTRACT: note_off channel=0 note=58 velocity=70 time=0.234374875
EXTRACT: note_on channel=0 note=63 velocity=95 time=0
EXTRACT: note_off channel=2 note=58 velocity=70 time=0
EXTRACT: note_on channel=2 note=63 velocity=95 time=0
EXTRACT: note_off channel=5 note=64 velocity=95 time=0
EXTRACT: note_off channel=5 note=59 velocity=95 time=0
EXTRACT: note_off channel=5 note=55 velocity=95 time=0
EXTRACT: note_off channel=5 note=50 velocity=95 time=0
EXTRACT: note_off channel=7 note=33 velocity=95 time=0
EXTRACT: note_on channel=7 note=33 velocity=95 time=0
EXTRACT: note_off channel=8 note=23 velocity=95 time=0
EXTRACT: note_on channel=8 note=23 velocity=95 time=0
EXTRACT: note_on channel=10 note=40 velocity=95 time=0
EXTRACT: note_on channel=9 note=36 velocity=95 time=0
EXTRACT: note_off channel=10 note=40 velocity=95 time=0.06696425
EXTRACT: note_off channel=0 note=63 velocity=95 time=0.20089275
EXTRACT: note_off channel=2 note=63 velocity=95 time=0
EXTRACT: note_off channel=4 note=61 velocity=47 time=0
EXTRACT: note_off channel=4 note=58 velocity=95 time=0
EXTRACT: pitchwheel channel=4 pitch=0 time=0
EXTRACT: note_on channel=4 note=62 velocity=95 time=0
EXTRACT: note_on channel=5 note=64 velocity=95 time=0
EXTRACT: note_on channel=5 note=59 velocity=95 time=0
EXTRACT: note_on channel=5 note=55 velocity=95 time=0
EXTRACT: note_on channel=5 note=50 velocity=95 time=0
EXTRACT: note_off channel=7 note=33 velocity=95 time=0
EXTRACT: note_off channel=9 note=36 velocity=95 time=0
EXTRACT: note_on channel=9 note=28 velocity=95 time=0
EXTRACT: note_on channel=9 note=39 velocity=95 time=0
EXTRACT: note_off channel=3 note=61 velocity=47 time=0.033482125
EXTRACT: note_off channel=3 note=58 velocity=95 time=0
EXTRACT: pitchwheel channel=3 pitch=0 time=0
EXTRACT: note_on channel=3 note=63 velocity=95 time=0
EXTRACT: pitchwheel channel=4 pitch=128 time=0.013392850000000001
EXTRACT: pitchwheel channel=3 pitch=128 time=0.033482125
EXTRACT: pitchwheel channel=4 pitch=256 time=0.013392850000000001
EXTRACT: pitchwheel channel=3 pitch=256 time=0.033482125
EXTRACT: pitchwheel channel=4 pitch=384 time=0.013392850000000001
EXTRACT: pitchwheel channel=3 pitch=384 time=0.033482125
EXTRACT: pitchwheel channel=4 pitch=512 time=0.013392850000000001
EXTRACT: pitchwheel channel=3 pitch=512 time=0.033482125
EXTRACT: pitchwheel channel=4 pitch=640 time=0.013392850000000001
EXTRACT: pitchwheel channel=4 pitch=640 time=0
EXTRACT: pitchwheel channel=4 pitch=0 time=0
EXTRACT: note_off channel=4 note=62 velocity=95 time=0
EXTRACT: note_on channel=0 note=58 velocity=95 time=0.033482125
EXTRACT: note_on channel=2 note=58 velocity=95 time=0
EXTRACT: pitchwheel channel=3 pitch=640 time=0
EXTRACT: pitchwheel channel=3 pitch=640 time=0
EXTRACT: pitchwheel channel=3 pitch=0 time=0
EXTRACT: note_off channel=3 note=63 velocity=95 time=0
EXTRACT: pitchwheel channel=4 pitch=0 time=0
EXTRACT: note_on channel=4 note=63 velocity=95 time=0
EXTRACT: note_off channel=8 note=23 velocity=95 time=0
EXTRACT: pitchwheel channel=4 pitch=128 time=0.023995522916666668
EXTRACT: pitchwheel channel=3 pitch=0 time=0.009486602083333334
EXTRACT: note_on channel=3 note=64 velocity=95 time=0
EXTRACT: pitchwheel channel=4 pitch=256 time=0.014508920833333334
EXTRACT: pitchwheel channel=3 pitch=128 time=0.009486602083333334
EXTRACT: pitchwheel channel=4 pitch=384 time=0.014508920833333334
EXTRACT: pitchwheel channel=3 pitch=256 time=0.009486602083333334
EXTRACT: pitchwheel channel=4 pitch=512 time=0.014508920833333334
EXTRACT: pitchwheel channel=3 pitch=384 time=0.009486602083333334
EXTRACT: pitchwheel channel=4 pitch=640 time=0.014508920833333334
EXTRACT: pitchwheel channel=3 pitch=512 time=0.009486602083333334
EXTRACT: pitchwheel channel=4 pitch=768 time=0.014508920833333334
EXTRACT: pitchwheel channel=3 pitch=640 time=0.009486602083333334
EXTRACT: pitchwheel channel=4 pitch=896 time=0.014508920833333334
EXTRACT: pitchwheel channel=3 pitch=768 time=0.009486602083333334
EXTRACT: pitchwheel channel=4 pitch=1024 time=0.014508920833333334
EXTRACT: pitchwheel channel=3 pitch=896 time=0.009486602083333334
EXTRACT: pitchwheel channel=4 pitch=1152 time=0.014508920833333334
EXTRACT: pitchwheel channel=3 pitch=1024 time=0.009486602083333334
EXTRACT: pitchwheel channel=4 pitch=1280 time=0.014508920833333334
EXTRACT: pitchwheel channel=3 pitch=1152 time=0.009486602083333334
EXTRACT: pitchwheel channel=4 pitch=1408 time=0.014508920833333334
EXTRACT: note_off channel=0 note=58 velocity=95 time=0.003906247916666667
EXTRACT: note_on channel=0 note=59 velocity=70 time=0
EXTRACT: note_off channel=1 note=70 velocity=95 time=0
EXTRACT: note_off channel=1 note=66 velocity=95 time=0
EXTRACT: note_off channel=1 note=63 velocity=95 time=0
EXTRACT: note_off channel=1 note=58 velocity=95 time=0
EXTRACT: note_on channel=1 note=71 velocity=95 time=0
EXTRACT: note_on channel=1 note=66 velocity=95 time=0
EXTRACT: note_on channel=1 note=63 velocity=95 time=0
EXTRACT: note_on channel=1 note=59 velocity=95 time=0
EXTRACT: note_off channel=2 note=58 velocity=95 time=0
EXTRACT: note_on channel=2 note=59 velocity=70 time=0
EXTRACT: pitchwheel channel=4 pitch=1408 time=0
EXTRACT: pitchwheel channel=4 pitch=0 time=0
EXTRACT: note_off channel=4 note=63 velocity=95 time=0
EXTRACT: pitchwheel channel=4 pitch=0 time=0
EXTRACT: note_on channel=4 note=59 velocity=95 time=0
EXTRACT: note_on channel=7 note=33 velocity=95 time=0
EXTRACT: note_on channel=8 note=23 velocity=95 time=0
EXTRACT: note_on channel=10 note=40 velocity=95 time=0
EXTRACT: note_off channel=9 note=28 velocity=95 time=0
EXTRACT: note_off channel=9 note=39 velocity=95 time=0
EXTRACT: note_on channel=9 note=36 velocity=95 time=0
EXTRACT: pitchwheel channel=3 pitch=1280 time=0.005580354166666667
EXTRACT: pitchwheel channel=4 pitch=-128 time=0.012276779166666666
EXTRACT: pitchwheel channel=3 pitch=1408 time=0.01171874375
EXTRACT: pitchwheel channel=3 pitch=1408 time=0.003906247916666667
EXTRACT: pitchwheel channel=3 pitch=0 time=0
EXTRACT: note_off channel=3 note=64 velocity=95 time=0
EXTRACT: pitchwheel channel=3 pitch=0 time=0
EXTRACT: note_on channel=3 note=60 velocity=95 time=0
EXTRACT: pitchwheel channel=4 pitch=-256 time=0.0022321416666666667
EXTRACT: pitchwheel channel=3 pitch=-128 time=0.015624991666666668
EXTRACT: pitchwheel channel=4 pitch=-384 time=0.0022321416666666667
EXTRACT: note_off channel=10 note=40 velocity=95 time=0.013392850000000001
EXTRACT: pitchwheel channel=3 pitch=-256 time=0.0022321416666666667
EXTRACT: pitchwheel channel=4 pitch=-512 time=0.0022321416666666667
EXTRACT: pitchwheel channel=3 pitch=-384 time=0.015624991666666668
EXTRACT: pitchwheel channel=4 pitch=-640 time=0.0022321416666666667
EXTRACT: pitchwheel channel=3 pitch=-512 time=0.015624991666666668
EXTRACT: pitchwheel channel=4 pitch=-768 time=0.0022321416666666667
EXTRACT: pitchwheel channel=3 pitch=-640 time=0.015624991666666668
EXTRACT: pitchwheel channel=4 pitch=-896 time=0.0022321416666666667
EXTRACT: pitchwheel channel=3 pitch=-768 time=0.015624991666666668
EXTRACT: pitchwheel channel=4 pitch=-1024 time=0.0022321416666666667
EXTRACT: pitchwheel channel=3 pitch=-896 time=0.015624991666666668
EXTRACT: pitchwheel channel=4 pitch=-1152 time=0.0022321416666666667
EXTRACT: pitchwheel channel=3 pitch=-1024 time=0.015624991666666668
EXTRACT: pitchwheel channel=4 pitch=-1280 time=0.0022321416666666667
EXTRACT: pitchwheel channel=3 pitch=-1152 time=0.015624991666666668
EXTRACT: pitchwheel channel=4 pitch=-1408 time=0.0022321416666666667
EXTRACT: pitchwheel channel=4 pitch=-1408 time=0.0044642833333333335
EXTRACT: pitchwheel channel=4 pitch=0 time=0
EXTRACT: note_off channel=4 note=59 velocity=95 time=0
EXTRACT: pitchwheel channel=3 pitch=-1280 time=0.011160708333333333
EXTRACT: pitchwheel channel=3 pitch=-1408 time=0.017857133333333334
EXTRACT: pitchwheel channel=3 pitch=-1408 time=0.0044642833333333335
EXTRACT: pitchwheel channel=3 pitch=0 time=0
EXTRACT: note_off channel=3 note=60 velocity=95 time=0
EXTRACT: note_off channel=0 note=59 velocity=70 time=0.033482125
EXTRACT: note_on channel=0 note=63 velocity=95 time=0
EXTRACT: note_off channel=2 note=59 velocity=70 time=0
EXTRACT: note_on channel=2 note=63 velocity=95 time=0
EXTRACT: note_off channel=5 note=64 velocity=95 time=0
EXTRACT: note_off channel=5 note=59 velocity=95 time=0
EXTRACT: note_off channel=5 note=55 velocity=95 time=0
EXTRACT: note_off channel=5 note=50 velocity=95 time=0
EXTRACT: note_off channel=0 note=63 velocity=95 time=0.267857
EXTRACT: note_on channel=0 note=66 velocity=95 time=0
EXTRACT: note_off channel=2 note=63 velocity=95 time=0
EXTRACT: note_on channel=2 note=66 velocity=95 time=0
EXTRACT: pitchwheel channel=4 pitch=0 time=0
EXTRACT: note_on channel=4 note=62 velocity=95 time=0
EXTRACT: note_on channel=5 note=64 velocity=95 time=0
EXTRACT: note_on channel=5 note=59 velocity=95 time=0
EXTRACT: note_on channel=5 note=55 velocity=95 time=0
EXTRACT: note_on channel=5 note=50 velocity=95 time=0
EXTRACT: note_off channel=7 note=33 velocity=95 time=0
EXTRACT: note_off channel=8 note=23 velocity=95 time=0
EXTRACT: note_off channel=9 note=36 velocity=95 time=0
EXTRACT: note_on channel=9 note=28 velocity=95 time=0
EXTRACT: note_on channel=9 note=39 velocity=95 time=0
EXTRACT: pitchwheel channel=3 pitch=0 time=0.033482125
EXTRACT: note_on channel=3 note=63 velocity=95 time=0
EXTRACT: pitchwheel channel=4 pitch=128 time=0.013392850000000001
EXTRACT: pitchwheel channel=3 pitch=128 time=0.033482125
EXTRACT: pitchwheel channel=4 pitch=256 time=0.013392850000000001
EXTRACT: pitchwheel channel=3 pitch=256 time=0.033482125
EXTRACT: note_on channel=7 note=33 velocity=95 time=0.006696425000000001
EXTRACT: note_on channel=8 note=23 velocity=95 time=0
EXTRACT: note_on channel=10 note=40 velocity=95 time=0
EXTRACT: note_off channel=9 note=28 velocity=95 time=0
EXTRACT: note_off channel=9 note=39 velocity=95 time=0
EXTRACT: note_on channel=9 note=36 velocity=95 time=0
EXTRACT: pitchwheel channel=4 pitch=384 time=0.006696425000000001
EXTRACT: pitchwheel channel=3 pitch=384 time=0.033482125
EXTRACT: pitchwheel channel=4 pitch=512 time=0.013392850000000001
EXTRACT: note_off channel=10 note=40 velocity=95 time=0.013392850000000001
EXTRACT: pitchwheel channel=3 pitch=512 time=0.020089275
EXTRACT: pitchwheel channel=4 pitch=640 time=0.013392850000000001
EXTRACT: pitchwheel channel=4 pitch=640 time=0
EXTRACT: pitchwheel channel=4 pitch=0 time=0
EXTRACT: note_off channel=4 note=62 velocity=95 time=0
EXTRACT: note_off channel=0 note=66 velocity=95 time=0.033482125
EXTRACT: note_on channel=0 note=59 velocity=95 time=0
EXTRACT: note_off channel=2 note=66 velocity=95 time=0
EXTRACT: note_on channel=2 note=59 velocity=95 time=0
EXTRACT: pitchwheel channel=3 pitch=640 time=0
EXTRACT: pitchwheel channel=3 pitch=640 time=0
EXTRACT: pitchwheel channel=3 pitch=0 time=0
EXTRACT: note_off channel=3 note=63 velocity=95 time=0
EXTRACT: pitchwheel channel=4 pitch=0 time=0
EXTRACT: note_on channel=4 note=63 velocity=95 time=0
EXTRACT: note_off channel=7 note=33 velocity=95 time=0
EXTRACT: note_on channel=7 note=33 velocity=95 time=0
EXTRACT: note_off channel=8 note=23 velocity=95 time=0
EXTRACT: note_on channel=8 note=23 velocity=95 time=0
EXTRACT: note_on channel=10 note=40 velocity=95 time=0
EXTRACT: note_off channel=9 note=36 velocity=95 time=0
EXTRACT: note_on channel=9 note=36 velocity=95 time=0
EXTRACT: pitchwheel channel=4 pitch=128 time=0.023995522916666668
EXTRACT: pitchwheel channel=3 pitch=0 time=0.009486602083333334
EXTRACT: note_on channel=3 note=64 velocity=95 time=0
EXTRACT: pitchwheel channel=4 pitch=256 time=0.014508920833333334
EXTRACT: pitchwheel channel=3 pitch=128 time=0.009486602083333334
EXTRACT: note_off channel=10 note=40 velocity=95 time=0.009486602083333334
EXTRACT: pitchwheel channel=4 pitch=384 time=0.00502231875
EXTRACT: pitchwheel channel=3 pitch=256 time=0.009486602083333334
EXTRACT: pitchwheel channel=4 pitch=512 time=0.014508920833333334
EXTRACT: pitchwheel channel=3 pitch=384 time=0.009486602083333334
EXTRACT: pitchwheel channel=4 pitch=640 time=0.014508920833333334
EXTRACT: pitchwheel channel=3 pitch=512 time=0.009486602083333334
EXTRACT: pitchwheel channel=4 pitch=768 time=0.014508920833333334
EXTRACT: pitchwheel channel=3 pitch=640 time=0.009486602083333334
EXTRACT: pitchwheel channel=4 pitch=896 time=0.014508920833333334
EXTRACT: pitchwheel channel=3 pitch=768 time=0.009486602083333334
EXTRACT: pitchwheel channel=4 pitch=1024 time=0.014508920833333334
EXTRACT: pitchwheel channel=3 pitch=896 time=0.009486602083333334
EXTRACT: pitchwheel channel=4 pitch=1152 time=0.014508920833333334
EXTRACT: pitchwheel channel=3 pitch=1024 time=0.009486602083333334
EXTRACT: pitchwheel channel=4 pitch=1280 time=0.014508920833333334
EXTRACT: pitchwheel channel=3 pitch=1152 time=0.009486602083333334
EXTRACT: pitchwheel channel=4 pitch=1408 time=0.014508920833333334
EXTRACT: note_off channel=0 note=59 velocity=95 time=0.003906247916666667
EXTRACT: note_on channel=0 note=58 velocity=70 time=0
EXTRACT: note_off channel=1 note=71 velocity=95 time=0
EXTRACT: note_off channel=1 note=66 velocity=95 time=0
EXTRACT: note_off channel=1 note=63 velocity=95 time=0
EXTRACT: note_off channel=1 note=59 velocity=95 time=0
EXTRACT: note_on channel=1 note=70 velocity=95 time=0
EXTRACT: note_on channel=1 note=66 velocity=95 time=0
EXTRACT: note_on channel=1 note=63 velocity=95 time=0
EXTRACT: note_on channel=1 note=58 velocity=95 time=0
EXTRACT: note_off channel=2 note=59 velocity=95 time=0
EXTRACT: note_on channel=2 note=58 velocity=70 time=0
EXTRACT: pitchwheel channel=4 pitch=1408 time=0
EXTRACT: pitchwheel channel=4 pitch=0 time=0
EXTRACT: note_off channel=4 note=63 velocity=95 time=0
EXTRACT: pitchwheel channel=4 pitch=0 time=0
EXTRACT: note_on channel=4 note=59 velocity=95 time=0
EXTRACT: pitchwheel channel=6 pitch=0 time=0
EXTRACT: note_on channel=6 note=53 velocity=95 time=0
EXTRACT: pitchwheel channel=6 pitch=0 time=0
EXTRACT: note_on channel=6 note=53 velocity=95 time=0
EXTRACT: note_off channel=7 note=33 velocity=95 time=0
EXTRACT: note_off channel=9 note=36 velocity=95 time=0
EXTRACT: pitchwheel channel=3 pitch=1280 time=0.005580354166666667
EXTRACT: pitchwheel channel=6 pitch=-128 time=0.010602672916666667
EXTRACT: pitchwheel channel=6 pitch=-128 time=0
EXTRACT: pitchwheel channel=4 pitch=-128 time=0.0016741062500000002
EXTRACT: pitchwheel channel=3 pitch=1408 time=0.01171874375
EXTRACT: pitchwheel channel=6 pitch=-256 time=0.0027901770833333333
EXTRACT: pitchwheel channel=6 pitch=-256 time=0
EXTRACT: pitchwheel channel=3 pitch=1408 time=0.0011160708333333334
EXTRACT: pitchwheel channel=3 pitch=0 time=0
EXTRACT: note_off channel=3 note=64 velocity=95 time=0
EXTRACT: pitchwheel channel=3 pitch=0 time=0
EXTRACT: note_on channel=3 note=60 velocity=95 time=0
EXTRACT: pitchwheel channel=4 pitch=-256 time=0.0022321416666666667
EXTRACT: pitchwheel channel=6 pitch=-384 time=0.012834814583333333
EXTRACT: pitchwheel channel=6 pitch=-384 time=0
EXTRACT: pitchwheel channel=3 pitch=-128 time=0.0027901770833333333
EXTRACT: pitchwheel channel=4 pitch=-384 time=0.0022321416666666667
EXTRACT: pitchwheel channel=6 pitch=-512 time=0.011160708333333333
EXTRACT: pitchwheel channel=6 pitch=-512 time=0
EXTRACT: pitchwheel channel=3 pitch=-256 time=0.0044642833333333335
EXTRACT: pitchwheel channel=4 pitch=-512 time=0.0022321416666666667
EXTRACT: pitchwheel channel=6 pitch=-640 time=0.009486602083333334
EXTRACT: pitchwheel channel=6 pitch=-640 time=0
EXTRACT: pitchwheel channel=3 pitch=-384 time=0.006138389583333333
EXTRACT: pitchwheel channel=4 pitch=-640 time=0.0022321416666666667
EXTRACT: pitchwheel channel=6 pitch=-768 time=0.007812495833333334
EXTRACT: pitchwheel channel=6 pitch=-768 time=0
EXTRACT: pitchwheel channel=3 pitch=-512 time=0.007812495833333334
EXTRACT: pitchwheel channel=4 pitch=-768 time=0.0022321416666666667
EXTRACT: pitchwheel channel=6 pitch=-896 time=0.006138389583333333
EXTRACT: pitchwheel channel=6 pitch=-896 time=0
EXTRACT: pitchwheel channel=3 pitch=-640 time=0.009486602083333334
EXTRACT: pitchwheel channel=4 pitch=-896 time=0.0022321416666666667
EXTRACT: pitchwheel channel=6 pitch=-1024 time=0.0044642833333333335
EXTRACT: pitchwheel channel=6 pitch=-1024 time=0
EXTRACT: pitchwheel channel=3 pitch=-768 time=0.011160708333333333
EXTRACT: pitchwheel channel=4 pitch=-1024 time=0.0022321416666666667
EXTRACT: pitchwheel channel=6 pitch=-1152 time=0.0027901770833333333
EXTRACT: pitchwheel channel=6 pitch=-1152 time=0
EXTRACT: pitchwheel channel=3 pitch=-896 time=0.012834814583333333
EXTRACT: pitchwheel channel=4 pitch=-1152 time=0.0022321416666666667
EXTRACT: pitchwheel channel=6 pitch=-1280 time=0.0011160708333333334
EXTRACT: pitchwheel channel=6 pitch=-1280 time=0
EXTRACT: pitchwheel channel=3 pitch=-1024 time=0.014508920833333334
EXTRACT: pitchwheel channel=6 pitch=-1408 time=0.0016741062500000002
EXTRACT: pitchwheel channel=6 pitch=-1408 time=0
EXTRACT: pitchwheel channel=4 pitch=-1280 time=0.0005580354166666667
EXTRACT: pitchwheel channel=3 pitch=-1152 time=0.015624991666666668
EXTRACT: pitchwheel channel=6 pitch=-1536 time=0
EXTRACT: pitchwheel channel=6 pitch=-1536 time=0
EXTRACT: pitchwheel channel=4 pitch=-1408 time=0.0022321416666666667
EXTRACT: pitchwheel channel=4 pitch=-1408 time=0.0044642833333333335
EXTRACT: pitchwheel channel=4 pitch=0 time=0
EXTRACT: note_off channel=4 note=59 velocity=95 time=0
EXTRACT: pitchwheel channel=6 pitch=-1664 time=0.009486602083333334
EXTRACT: pitchwheel channel=6 pitch=-1664 time=0
EXTRACT: pitchwheel channel=3 pitch=-1280 time=0.0016741062500000002
EXTRACT: pitchwheel channel=6 pitch=-1792 time=0.014508920833333334
EXTRACT: pitchwheel channel=6 pitch=-1792 time=0
EXTRACT: pitchwheel channel=3 pitch=-1408 time=0.0033482125000000003
EXTRACT: pitchwheel channel=3 pitch=-1408 time=0.0044642833333333335
EXTRACT: pitchwheel channel=3 pitch=0 time=0
EXTRACT: note_off channel=3 note=60 velocity=95 time=0
EXTRACT: pitchwheel channel=6 pitch=-1920 time=0.00837053125
EXTRACT: pitchwheel channel=6 pitch=-1920 time=0
EXTRACT: pitchwheel channel=6 pitch=-2048 time=0.016183027083333332
EXTRACT: pitchwheel channel=6 pitch=-2048 time=0
EXTRACT: note_off channel=0 note=58 velocity=70 time=0.008928566666666667
EXTRACT: note_on channel=0 note=63 velocity=95 time=0
EXTRACT: note_off channel=2 note=58 velocity=70 time=0
EXTRACT: note_on channel=2 note=63 velocity=95 time=0
EXTRACT: note_off channel=5 note=64 velocity=95 time=0
EXTRACT: note_off channel=5 note=59 velocity=95 time=0
EXTRACT: note_off channel=5 note=55 velocity=95 time=0
EXTRACT: note_off channel=5 note=50 velocity=95 time=0
EXTRACT: note_on channel=7 note=33 velocity=95 time=0
EXTRACT: note_off channel=8 note=23 velocity=95 time=0
EXTRACT: note_on channel=8 note=23 velocity=95 time=0
EXTRACT: note_on channel=10 note=40 velocity=95 time=0
EXTRACT: note_on channel=9 note=36 velocity=95 time=0
EXTRACT: pitchwheel channel=6 pitch=-2176 time=0.007254460416666667
EXTRACT: pitchwheel channel=6 pitch=-2176 time=0
EXTRACT: pitchwheel channel=6 pitch=-2304 time=0.016183027083333332
EXTRACT: pitchwheel channel=6 pitch=-2304 time=0
EXTRACT: pitchwheel channel=6 pitch=-2432 time=0.016183027083333332
EXTRACT: pitchwheel channel=6 pitch=-2432 time=0
EXTRACT: pitchwheel channel=6 pitch=-2560 time=0.016183027083333332
EXTRACT: pitchwheel channel=6 pitch=-2560 time=0
EXTRACT: note_off channel=10 note=40 velocity=95 time=0.011160708333333333
EXTRACT: pitchwheel channel=6 pitch=-2688 time=0.00502231875
EXTRACT: pitchwheel channel=6 pitch=-2688 time=0
EXTRACT: pitchwheel channel=6 pitch=-2816 time=0.016183027083333332
EXTRACT: pitchwheel channel=6 pitch=-2816 time=0
EXTRACT: pitchwheel channel=6 pitch=-2944 time=0.016183027083333332
EXTRACT: pitchwheel channel=6 pitch=-2944 time=0
EXTRACT: pitchwheel channel=6 pitch=-3072 time=0.016183027083333332
EXTRACT: pitchwheel channel=6 pitch=-3072 time=0
EXTRACT: pitchwheel channel=6 pitch=-3200 time=0.016183027083333332
EXTRACT: pitchwheel channel=6 pitch=-3200 time=0
EXTRACT: pitchwheel channel=6 pitch=-3328 time=0.016183027083333332
EXTRACT: pitchwheel channel=6 pitch=-3328 time=0
EXTRACT: pitchwheel channel=6 pitch=-3456 time=0.016183027083333332
EXTRACT: pitchwheel channel=6 pitch=-3456 time=0
EXTRACT: pitchwheel channel=6 pitch=-3584 time=0.016183027083333332
EXTRACT: pitchwheel channel=6 pitch=-3584 time=0
EXTRACT: pitchwheel channel=6 pitch=-3712 time=0.016183027083333332
EXTRACT: pitchwheel channel=6 pitch=-3712 time=0
EXTRACT: pitchwheel channel=6 pitch=-3840 time=0.016183027083333332
EXTRACT: pitchwheel channel=6 pitch=-3840 time=0
EXTRACT: pitchwheel channel=6 pitch=-3968 time=0.016183027083333332
EXTRACT: pitchwheel channel=6 pitch=-3968 time=0
EXTRACT: pitchwheel channel=6 pitch=-4096 time=0.016183027083333332
EXTRACT: pitchwheel channel=6 pitch=-4096 time=0
EXTRACT: pitchwheel channel=6 pitch=-4224 time=0.016183027083333332
EXTRACT: pitchwheel channel=6 pitch=-4224 time=0
EXTRACT: note_off channel=0 note=63 velocity=95 time=0.0016741062500000002
EXTRACT: note_off channel=2 note=63 velocity=95 time=0
EXTRACT: note_on channel=2 note=46 velocity=127 time=0
EXTRACT: note_on channel=5 note=64 velocity=95 time=0
EXTRACT: note_on channel=5 note=59 velocity=95 time=0
EXTRACT: note_on channel=5 note=55 velocity=95 time=0
EXTRACT: note_on channel=5 note=50 velocity=95 time=0
EXTRACT: note_off channel=7 note=33 velocity=95 time=0
EXTRACT: note_off channel=9 note=36 velocity=95 time=0
EXTRACT: note_on channel=9 note=28 velocity=95 time=0
EXTRACT: note_on channel=9 note=39 velocity=95 time=0
EXTRACT: pitchwheel channel=6 pitch=-4352 time=0.014508920833333334
EXTRACT: pitchwheel channel=6 pitch=-4352 time=0
EXTRACT: pitchwheel channel=6 pitch=-4480 time=0.016183027083333332
EXTRACT: pitchwheel channel=6 pitch=-4480 time=0
EXTRACT: pitchwheel channel=6 pitch=-4608 time=0.016183027083333332
EXTRACT: pitchwheel channel=6 pitch=-4608 time=0
EXTRACT: pitchwheel channel=6 pitch=-4736 time=0.016183027083333332
EXTRACT: pitchwheel channel=6 pitch=-4736 time=0
EXTRACT: pitchwheel channel=6 pitch=-4864 time=0.016183027083333332
EXTRACT: pitchwheel channel=6 pitch=-4864 time=0
EXTRACT: pitchwheel channel=6 pitch=-4992 time=0.016183027083333332
EXTRACT: pitchwheel channel=6 pitch=-4992 time=0
EXTRACT: pitchwheel channel=6 pitch=-5120 time=0.016183027083333332
EXTRACT: pitchwheel channel=6 pitch=-5120 time=0
EXTRACT: pitchwheel channel=6 pitch=-5248 time=0.016183027083333332
EXTRACT: pitchwheel channel=6 pitch=-5248 time=0
EXTRACT: pitchwheel channel=6 pitch=-5376 time=0.016183027083333332
EXTRACT: pitchwheel channel=6 pitch=-5376 time=0
EXTRACT: pitchwheel channel=6 pitch=-5504 time=0.016183027083333332
EXTRACT: pitchwheel channel=6 pitch=-5504 time=0
EXTRACT: pitchwheel channel=6 pitch=-5632 time=0.016183027083333332
EXTRACT: pitchwheel channel=6 pitch=-5632 time=0
EXTRACT: pitchwheel channel=6 pitch=-5760 time=0.016183027083333332
EXTRACT: pitchwheel channel=6 pitch=-5760 time=0
EXTRACT: pitchwheel channel=6 pitch=-5888 time=0.016183027083333332
EXTRACT: pitchwheel channel=6 pitch=-5888 time=0
EXTRACT: pitchwheel channel=6 pitch=-6016 time=0.016183027083333332
EXTRACT: pitchwheel channel=6 pitch=-6016 time=0
EXTRACT: pitchwheel channel=6 pitch=-6144 time=0.016183027083333332
EXTRACT: pitchwheel channel=6 pitch=-6144 time=0
EXTRACT: pitchwheel channel=6 pitch=-6272 time=0.016183027083333332
EXTRACT: pitchwheel channel=6 pitch=-6272 time=0
EXTRACT: note_on channel=0 note=58 velocity=95 time=0.010602672916666667
EXTRACT: note_on channel=2 note=58 velocity=95 time=0
EXTRACT: note_off channel=8 note=23 velocity=95 time=0
EXTRACT: pitchwheel channel=6 pitch=-6400 time=0.005580354166666667
EXTRACT: pitchwheel channel=6 pitch=-6400 time=0
EXTRACT: pitchwheel channel=6 pitch=-6528 time=0.016183027083333332
EXTRACT: pitchwheel channel=6 pitch=-6528 time=0
EXTRACT: pitchwheel channel=6 pitch=-6656 time=0.016183027083333332
EXTRACT: pitchwheel channel=6 pitch=-6656 time=0
EXTRACT: pitchwheel channel=6 pitch=-6784 time=0.016183027083333332
EXTRACT: pitchwheel channel=6 pitch=-6784 time=0
EXTRACT: pitchwheel channel=6 pitch=-6912 time=0.016183027083333332
EXTRACT: pitchwheel channel=6 pitch=-6912 time=0
EXTRACT: pitchwheel channel=6 pitch=-7040 time=0.016183027083333332
EXTRACT: pitchwheel channel=6 pitch=-7040 time=0
EXTRACT: pitchwheel channel=6 pitch=-7168 time=0.016183027083333332
EXTRACT: pitchwheel channel=6 pitch=-7168 time=0
EXTRACT: pitchwheel channel=6 pitch=-7296 time=0.016183027083333332
EXTRACT: pitchwheel channel=6 pitch=-7296 time=0
EXTRACT: pitchwheel channel=6 pitch=-7424 time=0.016183027083333332
EXTRACT: pitchwheel channel=6 pitch=-7424 time=0
EXTRACT: pitchwheel channel=6 pitch=-7552 time=0.016183027083333332
EXTRACT: pitchwheel channel=6 pitch=-7552 time=0
EXTRACT: pitchwheel channel=6 pitch=-7680 time=0.016183027083333332
EXTRACT: pitchwheel channel=6 pitch=-7680 time=0
EXTRACT: pitchwheel channel=6 pitch=-7808 time=0.016183027083333332
EXTRACT: pitchwheel channel=6 pitch=-7808 time=0
EXTRACT: pitchwheel channel=6 pitch=-7936 time=0.016183027083333332
EXTRACT: pitchwheel channel=6 pitch=-7936 time=0
EXTRACT: pitchwheel channel=6 pitch=-8064 time=0.016183027083333332
EXTRACT: pitchwheel channel=6 pitch=-8064 time=0
EXTRACT: pitchwheel channel=6 pitch=-8192 time=0.016183027083333332
EXTRACT: pitchwheel channel=6 pitch=-8192 time=0
EXTRACT: pitchwheel channel=6 pitch=-8192 time=0.016183027083333332
EXTRACT: pitchwheel channel=6 pitch=-8192 time=0
EXTRACT: pitchwheel channel=6 pitch=-8192 time=0.016183027083333332
EXTRACT: pitchwheel channel=6 pitch=-8192 time=0
EXTRACT: note_off channel=0 note=58 velocity=95 time=0.0033482125000000003
EXTRACT: note_on channel=0 note=59 velocity=70 time=0
EXTRACT: note_off channel=1 note=70 velocity=95 time=0
EXTRACT: note_off channel=1 note=66 velocity=95 time=0
EXTRACT: note_off channel=1 note=63 velocity=95 time=0
EXTRACT: note_off channel=1 note=58 velocity=95 time=0
EXTRACT: note_on channel=1 note=71 velocity=95 time=0
EXTRACT: note_on channel=1 note=66 velocity=95 time=0
EXTRACT: note_on channel=1 note=63 velocity=95 time=0
EXTRACT: note_on channel=1 note=59 velocity=95 time=0
EXTRACT: note_off channel=2 note=46 velocity=127 time=0
EXTRACT: note_off channel=2 note=58 velocity=95 time=0
EXTRACT: note_on channel=2 note=59 velocity=70 time=0
EXTRACT: note_on channel=2 note=47 velocity=127 time=0
EXTRACT: pitchwheel channel=6 pitch=-8192 time=0
EXTRACT: pitchwheel channel=6 pitch=0 time=0
EXTRACT: note_off channel=6 note=53 velocity=95 time=0
EXTRACT: pitchwheel channel=6 pitch=-8192 time=0
EXTRACT: pitchwheel channel=6 pitch=0 time=0
EXTRACT: note_off channel=6 note=53 velocity=95 time=0
EXTRACT: note_on channel=7 note=33 velocity=95 time=0
EXTRACT: note_on channel=8 note=23 velocity=95 time=0
EXTRACT: note_on channel=10 note=40 velocity=95 time=0
EXTRACT: note_off channel=9 note=28 velocity=95 time=0
EXTRACT: note_off channel=9 note=39 velocity=95 time=0
EXTRACT: note_on channel=9 note=36 velocity=95 time=0
EXTRACT: note_off channel=10 note=40 velocity=95 time=0.06696425
EXTRACT: note_off channel=0 note=59 velocity=70 time=0.20089275
EXTRACT: note_on channel=0 note=63 velocity=95 time=0
EXTRACT: note_off channel=2 note=59 velocity=70 time=0
EXTRACT: note_off channel=2 note=47 velocity=127 time=0
EXTRACT: note_on channel=2 note=63 velocity=95 time=0
EXTRACT: note_off channel=5 note=64 velocity=95 time=0
EXTRACT: note_off channel=5 note=59 velocity=95 time=0
EXTRACT: note_off channel=5 note=55 velocity=95 time=0
EXTRACT: note_off channel=5 note=50 velocity=95 time=0
EXTRACT: note_off channel=8 note=23 velocity=95 time=0
EXTRACT: note_on channel=8 note=23 velocity=95 time=0
EXTRACT: note_on channel=10 note=40 velocity=95 time=0
EXTRACT: note_off channel=9 note=36 velocity=95 time=0
EXTRACT: note_on channel=9 note=36 velocity=95 time=0
EXTRACT: note_off channel=10 note=40 velocity=95 time=0.06696425
EXTRACT: note_off channel=0 note=63 velocity=95 time=0.20089275
EXTRACT: note_on channel=0 note=66 velocity=95 time=0
EXTRACT: note_off channel=2 note=63 velocity=95 time=0
EXTRACT: note_on channel=2 note=66 velocity=95 time=0
EXTRACT: note_on channel=4 note=63 velocity=47 time=0
EXTRACT: note_on channel=4 note=59 velocity=95 time=0
EXTRACT: note_on channel=5 note=64 velocity=95 time=0
EXTRACT: note_on channel=5 note=59 velocity=95 time=0
EXTRACT: note_on channel=5 note=55 velocity=95 time=0
EXTRACT: note_on channel=5 note=50 velocity=95 time=0
EXTRACT: note_off channel=7 note=33 velocity=95 time=0
EXTRACT: note_off channel=8 note=23 velocity=95 time=0
EXTRACT: note_off channel=9 note=36 velocity=95 time=0
EXTRACT: note_on channel=9 note=28 velocity=95 time=0
EXTRACT: note_on channel=9 note=39 velocity=95 time=0
EXTRACT: note_on channel=3 note=63 velocity=47 time=0.033482125
EXTRACT: note_on channel=3 note=59 velocity=95 time=0
EXTRACT: note_off channel=0 note=66 velocity=95 time=0.234374875
EXTRACT: note_on channel=0 note=59 velocity=95 time=0
EXTRACT: note_off channel=2 note=66 velocity=95 time=0
EXTRACT: note_on channel=2 note=59 velocity=95 time=0
EXTRACT: note_on channel=7 note=33 velocity=95 time=0
EXTRACT: note_on channel=8 note=23 velocity=95 time=0
EXTRACT: note_on channel=10 note=40 velocity=95 time=0
EXTRACT: note_off channel=9 note=28 velocity=95 time=0
EXTRACT: note_off channel=9 note=39 velocity=95 time=0
EXTRACT: note_on channel=9 note=36 velocity=95 time=0
EXTRACT: note_off channel=10 note=40 velocity=95 time=0.06696425
EXTRACT: note_off channel=0 note=59 velocity=95 time=0.20089275
EXTRACT: note_on channel=0 note=58 velocity=70 time=0
EXTRACT: note_off channel=1 note=71 velocity=95 time=0
EXTRACT: note_off channel=1 note=66 velocity=95 time=0
EXTRACT: note_off channel=1 note=63 velocity=95 time=0
EXTRACT: note_off channel=1 note=59 velocity=95 time=0
EXTRACT: note_on channel=1 note=70 velocity=95 time=0
EXTRACT: note_on channel=1 note=66 velocity=95 time=0
EXTRACT: note_on channel=1 note=63 velocity=95 time=0
EXTRACT: note_on channel=1 note=58 velocity=95 time=0
EXTRACT: note_off channel=2 note=59 velocity=95 time=0
EXTRACT: note_on channel=2 note=58 velocity=70 time=0
EXTRACT: note_off channel=4 note=63 velocity=47 time=0
EXTRACT: note_off channel=4 note=59 velocity=95 time=0
EXTRACT: note_on channel=4 note=61 velocity=47 time=0
EXTRACT: note_on channel=4 note=58 velocity=95 time=0
EXTRACT: note_off channel=9 note=36 velocity=95 time=0
EXTRACT: note_off channel=3 note=63 velocity=47 time=0.033482125
EXTRACT: note_off channel=3 note=59 velocity=95 time=0
EXTRACT: note_on channel=3 note=61 velocity=47 time=0
EXTRACT: note_on channel=3 note=58 velocity=95 time=0
EXTRACT: note_off channel=0 note=58 velocity=70 time=0.234374875
EXTRACT: note_on channel=0 note=63 velocity=95 time=0
EXTRACT: note_off channel=2 note=58 velocity=70 time=0
EXTRACT: note_on channel=2 note=63 velocity=95 time=0
EXTRACT: note_off channel=5 note=64 velocity=95 time=0
EXTRACT: note_off channel=5 note=59 velocity=95 time=0
EXTRACT: note_off channel=5 note=55 velocity=95 time=0
EXTRACT: note_off channel=5 note=50 velocity=95 time=0
EXTRACT: note_off channel=7 note=33 velocity=95 time=0
EXTRACT: note_on channel=7 note=33 velocity=95 time=0
EXTRACT: note_off channel=8 note=23 velocity=95 time=0
EXTRACT: note_on channel=8 note=23 velocity=95 time=0
EXTRACT: note_on channel=10 note=40 velocity=95 time=0
EXTRACT: note_on channel=9 note=36 velocity=95 time=0
EXTRACT: note_off channel=10 note=40 velocity=95 time=0.06696425
EXTRACT: note_off channel=0 note=63 velocity=95 time=0.20089275
EXTRACT: note_off channel=2 note=63 velocity=95 time=0
EXTRACT: note_off channel=4 note=61 velocity=47 time=0
EXTRACT: note_off channel=4 note=58 velocity=95 time=0
EXTRACT: pitchwheel channel=4 pitch=0 time=0
EXTRACT: note_on channel=4 note=62 velocity=95 time=0
EXTRACT: note_on channel=5 note=64 velocity=95 time=0
EXTRACT: note_on channel=5 note=59 velocity=95 time=0
EXTRACT: note_on channel=5 note=55 velocity=95 time=0
EXTRACT: note_on channel=5 note=50 velocity=95 time=0
EXTRACT: note_off channel=7 note=33 velocity=95 time=0
EXTRACT: note_off channel=9 note=36 velocity=95 time=0
EXTRACT: note_on channel=9 note=28 velocity=95 time=0
EXTRACT: note_on channel=9 note=39 velocity=95 time=0
EXTRACT: note_off channel=3 note=61 velocity=47 time=0.033482125
EXTRACT: note_off channel=3 note=58 velocity=95 time=0
EXTRACT: pitchwheel channel=3 pitch=0 time=0
EXTRACT: note_on channel=3 note=63 velocity=95 time=0
EXTRACT: pitchwheel channel=4 pitch=128 time=0.013392850000000001
EXTRACT: pitchwheel channel=3 pitch=128 time=0.033482125
EXTRACT: pitchwheel channel=4 pitch=256 time=0.013392850000000001
EXTRACT: pitchwheel channel=3 pitch=256 time=0.033482125
EXTRACT: pitchwheel channel=4 pitch=384 time=0.013392850000000001
EXTRACT: pitchwheel channel=3 pitch=384 time=0.033482125
EXTRACT: pitchwheel channel=4 pitch=512 time=0.013392850000000001
EXTRACT: pitchwheel channel=3 pitch=512 time=0.033482125
EXTRACT: pitchwheel channel=4 pitch=640 time=0.013392850000000001
EXTRACT: pitchwheel channel=4 pitch=640 time=0
EXTRACT: pitchwheel channel=4 pitch=0 time=0
EXTRACT: note_off channel=4 note=62 velocity=95 time=0
EXTRACT: note_on channel=0 note=58 velocity=95 time=0.033482125
EXTRACT: note_on channel=2 note=58 velocity=95 time=0
EXTRACT: pitchwheel channel=3 pitch=640 time=0
EXTRACT: pitchwheel channel=3 pitch=640 time=0
EXTRACT: pitchwheel channel=3 pitch=0 time=0
EXTRACT: note_off channel=3 note=63 velocity=95 time=0
EXTRACT: pitchwheel channel=4 pitch=0 time=0
EXTRACT: note_on channel=4 note=63 velocity=95 time=0
EXTRACT: note_off channel=8 note=23 velocity=95 time=0
EXTRACT: pitchwheel channel=4 pitch=128 time=0.023995522916666668
EXTRACT: pitchwheel channel=3 pitch=0 time=0.009486602083333334
EXTRACT: note_on channel=3 note=64 velocity=95 time=0
EXTRACT: pitchwheel channel=4 pitch=256 time=0.014508920833333334
EXTRACT: pitchwheel channel=3 pitch=128 time=0.009486602083333334
EXTRACT: pitchwheel channel=4 pitch=384 time=0.014508920833333334
EXTRACT: pitchwheel channel=3 pitch=256 time=0.009486602083333334
EXTRACT: pitchwheel channel=4 pitch=512 time=0.014508920833333334
EXTRACT: pitchwheel channel=3 pitch=384 time=0.009486602083333334
EXTRACT: pitchwheel channel=4 pitch=640 time=0.014508920833333334
EXTRACT: pitchwheel channel=3 pitch=512 time=0.009486602083333334
EXTRACT: pitchwheel channel=4 pitch=768 time=0.014508920833333334
EXTRACT: pitchwheel channel=3 pitch=640 time=0.009486602083333334
EXTRACT: pitchwheel channel=4 pitch=896 time=0.014508920833333334
EXTRACT: pitchwheel channel=3 pitch=768 time=0.009486602083333334
EXTRACT: pitchwheel channel=4 pitch=1024 time=0.014508920833333334
EXTRACT: pitchwheel channel=3 pitch=896 time=0.009486602083333334
EXTRACT: pitchwheel channel=4 pitch=1152 time=0.014508920833333334
EXTRACT: pitchwheel channel=3 pitch=1024 time=0.009486602083333334
EXTRACT: pitchwheel channel=4 pitch=1280 time=0.014508920833333334
EXTRACT: pitchwheel channel=3 pitch=1152 time=0.009486602083333334
EXTRACT: pitchwheel channel=4 pitch=1408 time=0.014508920833333334
EXTRACT: note_off channel=0 note=58 velocity=95 time=0.003906247916666667
EXTRACT: note_on channel=0 note=59 velocity=70 time=0
EXTRACT: note_off channel=1 note=70 velocity=95 time=0
EXTRACT: note_off channel=1 note=66 velocity=95 time=0
EXTRACT: note_off channel=1 note=63 velocity=95 time=0
EXTRACT: note_off channel=1 note=58 velocity=95 time=0
EXTRACT: note_on channel=1 note=71 velocity=95 time=0
EXTRACT: note_on channel=1 note=66 velocity=95 time=0
EXTRACT: note_on channel=1 note=63 velocity=95 time=0
EXTRACT: note_on channel=1 note=59 velocity=95 time=0
EXTRACT: note_off channel=2 note=58 velocity=95 time=0
EXTRACT: note_on channel=2 note=59 velocity=70 time=0
EXTRACT: pitchwheel channel=4 pitch=1408 time=0
EXTRACT: pitchwheel channel=4 pitch=0 time=0
EXTRACT: note_off channel=4 note=63 velocity=95 time=0
EXTRACT: pitchwheel channel=4 pitch=0 time=0
EXTRACT: note_on channel=4 note=59 velocity=95 time=0
EXTRACT: note_on channel=7 note=33 velocity=95 time=0
EXTRACT: note_on channel=8 note=23 velocity=95 time=0
EXTRACT: note_on channel=10 note=40 velocity=95 time=0
EXTRACT: note_off channel=9 note=28 velocity=95 time=0
EXTRACT: note_off channel=9 note=39 velocity=95 time=0
EXTRACT: note_on channel=9 note=36 velocity=95 time=0
EXTRACT: pitchwheel channel=3 pitch=1280 time=0.005580354166666667
EXTRACT: pitchwheel channel=4 pitch=-128 time=0.012276779166666666
EXTRACT: pitchwheel channel=3 pitch=1408 time=0.01171874375
EXTRACT: pitchwheel channel=3 pitch=1408 time=0.003906247916666667
EXTRACT: pitchwheel channel=3 pitch=0 time=0
EXTRACT: note_off channel=3 note=64 velocity=95 time=0
EXTRACT: pitchwheel channel=3 pitch=0 time=0
EXTRACT: note_on channel=3 note=60 velocity=95 time=0
EXTRACT: pitchwheel channel=4 pitch=-256 time=0.0022321416666666667
EXTRACT: pitchwheel channel=3 pitch=-128 time=0.015624991666666668
EXTRACT: pitchwheel channel=4 pitch=-384 time=0.0022321416666666667
EXTRACT: note_off channel=10 note=40 velocity=95 time=0.013392850000000001
EXTRACT: pitchwheel channel=3 pitch=-256 time=0.0022321416666666667
EXTRACT: pitchwheel channel=4 pitch=-512 time=0.0022321416666666667
EXTRACT: pitchwheel channel=3 pitch=-384 time=0.015624991666666668
EXTRACT: pitchwheel channel=4 pitch=-640 time=0.0022321416666666667
EXTRACT: pitchwheel channel=3 pitch=-512 time=0.015624991666666668
EXTRACT: pitchwheel channel=4 pitch=-768 time=0.0022321416666666667
EXTRACT: pitchwheel channel=3 pitch=-640 time=0.015624991666666668
EXTRACT: pitchwheel channel=4 pitch=-896 time=0.0022321416666666667
EXTRACT: pitchwheel channel=3 pitch=-768 time=0.015624991666666668
EXTRACT: pitchwheel channel=4 pitch=-1024 time=0.0022321416666666667
EXTRACT: pitchwheel channel=3 pitch=-896 time=0.015624991666666668
EXTRACT: pitchwheel channel=4 pitch=-1152 time=0.0022321416666666667
EXTRACT: pitchwheel channel=3 pitch=-1024 time=0.015624991666666668
EXTRACT: pitchwheel channel=4 pitch=-1280 time=0.0022321416666666667
EXTRACT: pitchwheel channel=3 pitch=-1152 time=0.015624991666666668
EXTRACT: pitchwheel channel=4 pitch=-1408 time=0.0022321416666666667
EXTRACT: pitchwheel channel=4 pitch=-1408 time=0.0044642833333333335
EXTRACT: pitchwheel channel=4 pitch=0 time=0
EXTRACT: note_off channel=4 note=59 velocity=95 time=0
EXTRACT: pitchwheel channel=3 pitch=-1280 time=0.011160708333333333
EXTRACT: pitchwheel channel=3 pitch=-1408 time=0.017857133333333334
EXTRACT: pitchwheel channel=3 pitch=-1408 time=0.0044642833333333335
EXTRACT: pitchwheel channel=3 pitch=0 time=0
EXTRACT: note_off channel=3 note=60 velocity=95 time=0
EXTRACT: note_off channel=0 note=59 velocity=70 time=0.033482125
EXTRACT: note_on channel=0 note=63 velocity=95 time=0
EXTRACT: note_off channel=2 note=59 velocity=70 time=0
EXTRACT: note_on channel=2 note=63 velocity=95 time=0
EXTRACT: note_off channel=5 note=64 velocity=95 time=0
EXTRACT: note_off channel=5 note=59 velocity=95 time=0
EXTRACT: note_off channel=5 note=55 velocity=95 time=0
EXTRACT: note_off channel=5 note=50 velocity=95 time=0
EXTRACT: note_off channel=0 note=63 velocity=95 time=0.267857
EXTRACT: note_on channel=0 note=66 velocity=95 time=0
EXTRACT: note_off channel=2 note=63 velocity=95 time=0
EXTRACT: note_on channel=2 note=66 velocity=95 time=0
EXTRACT: pitchwheel channel=4 pitch=0 time=0
EXTRACT: note_on channel=4 note=62 velocity=95 time=0
EXTRACT: note_on channel=5 note=64 velocity=95 time=0
EXTRACT: note_on channel=5 note=59 velocity=95 time=0
EXTRACT: note_on channel=5 note=55 velocity=95 time=0
EXTRACT: note_on channel=5 note=50 velocity=95 time=0
EXTRACT: note_off channel=7 note=33 velocity=95 time=0
EXTRACT: note_off channel=8 note=23 velocity=95 time=0
EXTRACT: note_off channel=9 note=36 velocity=95 time=0
EXTRACT: note_on channel=9 note=28 velocity=95 time=0
EXTRACT: note_on channel=9 note=39 velocity=95 time=0
EXTRACT: pitchwheel channel=3 pitch=0 time=0.033482125
EXTRACT: note_on channel=3 note=63 velocity=95 time=0
EXTRACT: pitchwheel channel=4 pitch=128 time=0.013392850000000001
EXTRACT: pitchwheel channel=3 pitch=128 time=0.033482125
EXTRACT: pitchwheel channel=4 pitch=256 time=0.013392850000000001
EXTRACT: pitchwheel channel=3 pitch=256 time=0.033482125
EXTRACT: pitchwheel channel=4 pitch=384 time=0.013392850000000001
EXTRACT: pitchwheel channel=3 pitch=384 time=0.033482125
EXTRACT: pitchwheel channel=4 pitch=512 time=0.013392850000000001
EXTRACT: pitchwheel channel=3 pitch=512 time=0.033482125
EXTRACT: pitchwheel channel=4 pitch=640 time=0.013392850000000001
EXTRACT: pitchwheel channel=4 pitch=640 time=0
EXTRACT: pitchwheel channel=4 pitch=0 time=0
EXTRACT: note_off channel=4 note=62 velocity=95 time=0
EXTRACT: note_off channel=0 note=66 velocity=95 time=0.033482125
EXTRACT: note_on channel=0 note=59 velocity=95 time=0
EXTRACT: note_off channel=2 note=66 velocity=95 time=0
EXTRACT: note_on channel=2 note=59 velocity=95 time=0
EXTRACT: pitchwheel channel=3 pitch=640 time=0
EXTRACT: pitchwheel channel=3 pitch=640 time=0
EXTRACT: pitchwheel channel=3 pitch=0 time=0
EXTRACT: note_off channel=3 note=63 velocity=95 time=0
EXTRACT: pitchwheel channel=4 pitch=0 time=0
EXTRACT: note_on channel=4 note=63 velocity=95 time=0
EXTRACT: note_on channel=7 note=33 velocity=95 time=0
EXTRACT: note_on channel=8 note=23 velocity=95 time=0
EXTRACT: note_on channel=10 note=40 velocity=95 time=0
EXTRACT: note_off channel=9 note=28 velocity=95 time=0
EXTRACT: note_off channel=9 note=39 velocity=95 time=0
EXTRACT: note_on channel=9 note=36 velocity=95 time=0
EXTRACT: pitchwheel channel=4 pitch=128 time=0.023995522916666668
EXTRACT: pitchwheel channel=3 pitch=0 time=0.009486602083333334
EXTRACT: note_on channel=3 note=64 velocity=95 time=0
EXTRACT: pitchwheel channel=4 pitch=256 time=0.014508920833333334
EXTRACT: pitchwheel channel=3 pitch=128 time=0.009486602083333334
EXTRACT: note_off channel=10 note=40 velocity=95 time=0.009486602083333334
EXTRACT: pitchwheel channel=4 pitch=384 time=0.00502231875
EXTRACT: pitchwheel channel=3 pitch=256 time=0.009486602083333334
EXTRACT: pitchwheel channel=4 pitch=512 time=0.014508920833333334
EXTRACT: pitchwheel channel=3 pitch=384 time=0.009486602083333334
EXTRACT: pitchwheel channel=4 pitch=640 time=0.014508920833333334
EXTRACT: pitchwheel channel=3 pitch=512 time=0.009486602083333334
EXTRACT: pitchwheel channel=4 pitch=768 time=0.014508920833333334
EXTRACT: pitchwheel channel=3 pitch=640 time=0.009486602083333334
EXTRACT: pitchwheel channel=4 pitch=896 time=0.014508920833333334
EXTRACT: pitchwheel channel=3 pitch=768 time=0.009486602083333334
EXTRACT: pitchwheel channel=4 pitch=1024 time=0.014508920833333334
EXTRACT: pitchwheel channel=3 pitch=896 time=0.009486602083333334
EXTRACT: pitchwheel channel=4 pitch=1152 time=0.014508920833333334
EXTRACT: pitchwheel channel=3 pitch=1024 time=0.009486602083333334
EXTRACT: pitchwheel channel=4 pitch=1280 time=0.014508920833333334
EXTRACT: pitchwheel channel=3 pitch=1152 time=0.009486602083333334
EXTRACT: pitchwheel channel=4 pitch=1408 time=0.014508920833333334
EXTRACT: note_off channel=0 note=59 velocity=95 time=0.003906247916666667
EXTRACT: note_on channel=0 note=58 velocity=70 time=0
EXTRACT: note_off channel=1 note=71 velocity=95 time=0
EXTRACT: note_off channel=1 note=66 velocity=95 time=0
EXTRACT: note_off channel=1 note=63 velocity=95 time=0
EXTRACT: note_off channel=1 note=59 velocity=95 time=0
EXTRACT: note_on channel=1 note=70 velocity=95 time=0
EXTRACT: note_on channel=1 note=66 velocity=95 time=0
EXTRACT: note_on channel=1 note=63 velocity=95 time=0
EXTRACT: note_on channel=1 note=58 velocity=95 time=0
EXTRACT: note_off channel=2 note=59 velocity=95 time=0
EXTRACT: note_on channel=2 note=58 velocity=70 time=0
EXTRACT: pitchwheel channel=4 pitch=1408 time=0
EXTRACT: pitchwheel channel=4 pitch=0 time=0
EXTRACT: note_off channel=4 note=63 velocity=95 time=0
EXTRACT: pitchwheel channel=4 pitch=0 time=0
EXTRACT: note_on channel=4 note=59 velocity=95 time=0
EXTRACT: pitchwheel channel=6 pitch=0 time=0
EXTRACT: note_on channel=6 note=53 velocity=95 time=0
EXTRACT: pitchwheel channel=6 pitch=0 time=0
EXTRACT: note_on channel=6 note=53 velocity=95 time=0
EXTRACT: note_off channel=9 note=36 velocity=95 time=0
EXTRACT: pitchwheel channel=3 pitch=1280 time=0.005580354166666667
EXTRACT: pitchwheel channel=6 pitch=-128 time=0.010602672916666667
EXTRACT: pitchwheel channel=6 pitch=-128 time=0
EXTRACT: pitchwheel channel=4 pitch=-128 time=0.0016741062500000002
EXTRACT: pitchwheel channel=3 pitch=1408 time=0.01171874375
EXTRACT: pitchwheel channel=6 pitch=-256 time=0.0027901770833333333
EXTRACT: pitchwheel channel=6 pitch=-256 time=0
EXTRACT: pitchwheel channel=3 pitch=1408 time=0.0011160708333333334
EXTRACT: pitchwheel channel=3 pitch=0 time=0
EXTRACT: note_off channel=3 note=64 velocity=95 time=0
EXTRACT: pitchwheel channel=3 pitch=0 time=0
EXTRACT: note_on channel=3 note=60 velocity=95 time=0
EXTRACT: pitchwheel channel=4 pitch=-256 time=0.0022321416666666667
EXTRACT: pitchwheel channel=6 pitch=-384 time=0.012834814583333333
EXTRACT: pitchwheel channel=6 pitch=-384 time=0
EXTRACT: pitchwheel channel=3 pitch=-128 time=0.0027901770833333333
EXTRACT: pitchwheel channel=4 pitch=-384 time=0.0022321416666666667
EXTRACT: pitchwheel channel=6 pitch=-512 time=0.011160708333333333
EXTRACT: pitchwheel channel=6 pitch=-512 time=0
EXTRACT: pitchwheel channel=3 pitch=-256 time=0.0044642833333333335
EXTRACT: pitchwheel channel=4 pitch=-512 time=0.0022321416666666667
EXTRACT: pitchwheel channel=6 pitch=-640 time=0.009486602083333334
EXTRACT: pitchwheel channel=6 pitch=-640 time=0
EXTRACT: pitchwheel channel=3 pitch=-384 time=0.006138389583333333
EXTRACT: pitchwheel channel=4 pitch=-640 time=0.0022321416666666667
EXTRACT: pitchwheel channel=6 pitch=-768 time=0.007812495833333334
EXTRACT: pitchwheel channel=6 pitch=-768 time=0
EXTRACT: pitchwheel channel=3 pitch=-512 time=0.007812495833333334
EXTRACT: pitchwheel channel=4 pitch=-768 time=0.0022321416666666667
EXTRACT: pitchwheel channel=6 pitch=-896 time=0.006138389583333333
EXTRACT: pitchwheel channel=6 pitch=-896 time=0
EXTRACT: pitchwheel channel=3 pitch=-640 time=0.009486602083333334
EXTRACT: pitchwheel channel=4 pitch=-896 time=0.0022321416666666667
EXTRACT: pitchwheel channel=6 pitch=-1024 time=0.0044642833333333335
EXTRACT: pitchwheel channel=6 pitch=-1024 time=0
EXTRACT: pitchwheel channel=3 pitch=-768 time=0.011160708333333333
EXTRACT: pitchwheel channel=4 pitch=-1024 time=0.0022321416666666667
EXTRACT: pitchwheel channel=6 pitch=-1152 time=0.0027901770833333333
EXTRACT: pitchwheel channel=6 pitch=-1152 time=0
EXTRACT: pitchwheel channel=3 pitch=-896 time=0.012834814583333333
EXTRACT: pitchwheel channel=4 pitch=-1152 time=0.0022321416666666667
EXTRACT: pitchwheel channel=6 pitch=-1280 time=0.0011160708333333334
EXTRACT: pitchwheel channel=6 pitch=-1280 time=0
EXTRACT: pitchwheel channel=3 pitch=-1024 time=0.014508920833333334
EXTRACT: pitchwheel channel=6 pitch=-1408 time=0.0016741062500000002
EXTRACT: pitchwheel channel=6 pitch=-1408 time=0
EXTRACT: pitchwheel channel=4 pitch=-1280 time=0.0005580354166666667
EXTRACT: pitchwheel channel=3 pitch=-1152 time=0.015624991666666668
EXTRACT: pitchwheel channel=6 pitch=-1536 time=0
EXTRACT: pitchwheel channel=6 pitch=-1536 time=0
EXTRACT: pitchwheel channel=4 pitch=-1408 time=0.0022321416666666667
EXTRACT: pitchwheel channel=4 pitch=-1408 time=0.0044642833333333335
EXTRACT: pitchwheel channel=4 pitch=0 time=0
EXTRACT: note_off channel=4 note=59 velocity=95 time=0
EXTRACT: pitchwheel channel=6 pitch=-1664 time=0.009486602083333334
EXTRACT: pitchwheel channel=6 pitch=-1664 time=0
EXTRACT: pitchwheel channel=3 pitch=-1280 time=0.0016741062500000002
EXTRACT: pitchwheel channel=6 pitch=-1792 time=0.014508920833333334
EXTRACT: pitchwheel channel=6 pitch=-1792 time=0
EXTRACT: pitchwheel channel=3 pitch=-1408 time=0.0033482125000000003
EXTRACT: pitchwheel channel=3 pitch=-1408 time=0.0044642833333333335
EXTRACT: pitchwheel channel=3 pitch=0 time=0
EXTRACT: note_off channel=3 note=60 velocity=95 time=0
EXTRACT: pitchwheel channel=6 pitch=-1920 time=0.00837053125
EXTRACT: pitchwheel channel=6 pitch=-1920 time=0
EXTRACT: pitchwheel channel=6 pitch=-2048 time=0.016183027083333332
EXTRACT: pitchwheel channel=6 pitch=-2048 time=0
EXTRACT: note_off channel=0 note=58 velocity=70 time=0.008928566666666667
EXTRACT: note_on channel=0 note=63 velocity=95 time=0
EXTRACT: note_off channel=2 note=58 velocity=70 time=0
EXTRACT: note_on channel=2 note=63 velocity=95 time=0
EXTRACT: note_off channel=5 note=64 velocity=95 time=0
EXTRACT: note_off channel=5 note=59 velocity=95 time=0
EXTRACT: note_off channel=5 note=55 velocity=95 time=0
EXTRACT: note_off channel=5 note=50 velocity=95 time=0
EXTRACT: note_off channel=7 note=33 velocity=95 time=0
EXTRACT: note_on channel=7 note=33 velocity=95 time=0
EXTRACT: note_off channel=8 note=23 velocity=95 time=0
EXTRACT: note_on channel=8 note=23 velocity=95 time=0
EXTRACT: note_on channel=10 note=40 velocity=95 time=0
EXTRACT: note_on channel=9 note=36 velocity=95 time=0
EXTRACT: pitchwheel channel=6 pitch=-2176 time=0.007254460416666667
EXTRACT: pitchwheel channel=6 pitch=-2176 time=0
EXTRACT: pitchwheel channel=6 pitch=-2304 time=0.016183027083333332
EXTRACT: pitchwheel channel=6 pitch=-2304 time=0
EXTRACT: pitchwheel channel=6 pitch=-2432 time=0.016183027083333332
EXTRACT: pitchwheel channel=6 pitch=-2432 time=0
EXTRACT: pitchwheel channel=6 pitch=-2560 time=0.016183027083333332
EXTRACT: pitchwheel channel=6 pitch=-2560 time=0
EXTRACT: note_off channel=10 note=40 velocity=95 time=0.011160708333333333
EXTRACT: pitchwheel channel=6 pitch=-2688 time=0.00502231875
EXTRACT: pitchwheel channel=6 pitch=-2688 time=0
EXTRACT: pitchwheel channel=6 pitch=-2816 time=0.016183027083333332
EXTRACT: pitchwheel channel=6 pitch=-2816 time=0
EXTRACT: pitchwheel channel=6 pitch=-2944 time=0.016183027083333332
EXTRACT: pitchwheel channel=6 pitch=-2944 time=0
EXTRACT: pitchwheel channel=6 pitch=-3072 time=0.016183027083333332
EXTRACT: pitchwheel channel=6 pitch=-3072 time=0
EXTRACT: pitchwheel channel=6 pitch=-3200 time=0.016183027083333332
EXTRACT: pitchwheel channel=6 pitch=-3200 time=0
EXTRACT: pitchwheel channel=6 pitch=-3328 time=0.016183027083333332
EXTRACT: pitchwheel channel=6 pitch=-3328 time=0
EXTRACT: pitchwheel channel=6 pitch=-3456 time=0.016183027083333332
EXTRACT: pitchwheel channel=6 pitch=-3456 time=0
EXTRACT: pitchwheel channel=6 pitch=-3584 time=0.016183027083333332
EXTRACT: pitchwheel channel=6 pitch=-3584 time=0
EXTRACT: pitchwheel channel=6 pitch=-3712 time=0.016183027083333332
EXTRACT: pitchwheel channel=6 pitch=-3712 time=0
EXTRACT: pitchwheel channel=6 pitch=-3840 time=0.016183027083333332
EXTRACT: pitchwheel channel=6 pitch=-3840 time=0
EXTRACT: pitchwheel channel=6 pitch=-3968 time=0.016183027083333332
EXTRACT: pitchwheel channel=6 pitch=-3968 time=0
EXTRACT: pitchwheel channel=6 pitch=-4096 time=0.016183027083333332
EXTRACT: pitchwheel channel=6 pitch=-4096 time=0
EXTRACT: pitchwheel channel=6 pitch=-4224 time=0.016183027083333332
EXTRACT: pitchwheel channel=6 pitch=-4224 time=0
EXTRACT: note_off channel=0 note=63 velocity=95 time=0.0016741062500000002
EXTRACT: note_off channel=2 note=63 velocity=95 time=0
EXTRACT: note_on channel=2 note=46 velocity=127 time=0
EXTRACT: note_on channel=5 note=64 velocity=95 time=0
EXTRACT: note_on channel=5 note=59 velocity=95 time=0
EXTRACT: note_on channel=5 note=55 velocity=95 time=0
EXTRACT: note_on channel=5 note=50 velocity=95 time=0
EXTRACT: note_off channel=7 note=33 velocity=95 time=0
EXTRACT: note_off channel=9 note=36 velocity=95 time=0
EXTRACT: note_on channel=9 note=28 velocity=95 time=0
EXTRACT: note_on channel=9 note=39 velocity=95 time=0
EXTRACT: pitchwheel channel=6 pitch=-4352 time=0.014508920833333334
EXTRACT: pitchwheel channel=6 pitch=-4352 time=0
EXTRACT: pitchwheel channel=6 pitch=-4480 time=0.016183027083333332
EXTRACT: pitchwheel channel=6 pitch=-4480 time=0
EXTRACT: pitchwheel channel=6 pitch=-4608 time=0.016183027083333332
EXTRACT: pitchwheel channel=6 pitch=-4608 time=0
EXTRACT: pitchwheel channel=6 pitch=-4736 time=0.016183027083333332
EXTRACT: pitchwheel channel=6 pitch=-4736 time=0
EXTRACT: pitchwheel channel=6 pitch=-4864 time=0.016183027083333332
EXTRACT: pitchwheel channel=6 pitch=-4864 time=0
EXTRACT: pitchwheel channel=6 pitch=-4992 time=0.016183027083333332
EXTRACT: pitchwheel channel=6 pitch=-4992 time=0
EXTRACT: pitchwheel channel=6 pitch=-5120 time=0.016183027083333332
EXTRACT: pitchwheel channel=6 pitch=-5120 time=0
EXTRACT: pitchwheel channel=6 pitch=-5248 time=0.016183027083333332
EXTRACT: pitchwheel channel=6 pitch=-5248 time=0
EXTRACT: pitchwheel channel=6 pitch=-5376 time=0.016183027083333332
EXTRACT: pitchwheel channel=6 pitch=-5376 time=0
EXTRACT: pitchwheel channel=6 pitch=-5504 time=0.016183027083333332
EXTRACT: pitchwheel channel=6 pitch=-5504 time=0
EXTRACT: pitchwheel channel=6 pitch=-5632 time=0.016183027083333332
EXTRACT: pitchwheel channel=6 pitch=-5632 time=0
EXTRACT: pitchwheel channel=6 pitch=-5760 time=0.016183027083333332
EXTRACT: pitchwheel channel=6 pitch=-5760 time=0
EXTRACT: pitchwheel channel=6 pitch=-5888 time=0.016183027083333332
EXTRACT: pitchwheel channel=6 pitch=-5888 time=0
EXTRACT: pitchwheel channel=6 pitch=-6016 time=0.016183027083333332
EXTRACT: pitchwheel channel=6 pitch=-6016 time=0
EXTRACT: pitchwheel channel=6 pitch=-6144 time=0.016183027083333332
EXTRACT: pitchwheel channel=6 pitch=-6144 time=0
EXTRACT: pitchwheel channel=6 pitch=-6272 time=0.016183027083333332
EXTRACT: pitchwheel channel=6 pitch=-6272 time=0
EXTRACT: note_off channel=8 note=23 velocity=95 time=0.010602672916666667
EXTRACT: pitchwheel channel=6 pitch=-6400 time=0.005580354166666667
EXTRACT: pitchwheel channel=6 pitch=-6400 time=0
EXTRACT: pitchwheel channel=6 pitch=-6528 time=0.016183027083333332
EXTRACT: pitchwheel channel=6 pitch=-6528 time=0
EXTRACT: pitchwheel channel=6 pitch=-6656 time=0.016183027083333332
EXTRACT: pitchwheel channel=6 pitch=-6656 time=0
EXTRACT: pitchwheel channel=6 pitch=-6784 time=0.016183027083333332
EXTRACT: pitchwheel channel=6 pitch=-6784 time=0
EXTRACT: pitchwheel channel=6 pitch=-6912 time=0.016183027083333332
EXTRACT: pitchwheel channel=6 pitch=-6912 time=0
EXTRACT: pitchwheel channel=6 pitch=-7040 time=0.016183027083333332
EXTRACT: pitchwheel channel=6 pitch=-7040 time=0
EXTRACT: pitchwheel channel=6 pitch=-7168 time=0.016183027083333332
EXTRACT: pitchwheel channel=6 pitch=-7168 time=0
EXTRACT: pitchwheel channel=6 pitch=-7296 time=0.016183027083333332
EXTRACT: pitchwheel channel=6 pitch=-7296 time=0
EXTRACT: pitchwheel channel=6 pitch=-7424 time=0.016183027083333332
EXTRACT: pitchwheel channel=6 pitch=-7424 time=0
EXTRACT: pitchwheel channel=6 pitch=-7552 time=0.016183027083333332
EXTRACT: pitchwheel channel=6 pitch=-7552 time=0
EXTRACT: pitchwheel channel=6 pitch=-7680 time=0.016183027083333332
EXTRACT: pitchwheel channel=6 pitch=-7680 time=0
EXTRACT: pitchwheel channel=6 pitch=-7808 time=0.016183027083333332
EXTRACT: pitchwheel channel=6 pitch=-7808 time=0
EXTRACT: pitchwheel channel=6 pitch=-7936 time=0.016183027083333332
EXTRACT: pitchwheel channel=6 pitch=-7936 time=0
EXTRACT: pitchwheel channel=6 pitch=-8064 time=0.016183027083333332
EXTRACT: pitchwheel channel=6 pitch=-8064 time=0
EXTRACT: pitchwheel channel=6 pitch=-8192 time=0.016183027083333332
EXTRACT: pitchwheel channel=6 pitch=-8192 time=0
EXTRACT: pitchwheel channel=6 pitch=-8192 time=0.016183027083333332
EXTRACT: pitchwheel channel=6 pitch=-8192 time=0
EXTRACT: pitchwheel channel=6 pitch=-8192 time=0.016183027083333332
EXTRACT: pitchwheel channel=6 pitch=-8192 time=0
EXTRACT: note_off channel=1 note=70 velocity=95 time=0.0033482125000000003
EXTRACT: note_off channel=1 note=66 velocity=95 time=0
EXTRACT: note_off channel=1 note=63 velocity=95 time=0
EXTRACT: note_off channel=1 note=58 velocity=95 time=0
EXTRACT: note_off channel=2 note=46 velocity=127 time=0
EXTRACT: note_on channel=2 note=47 velocity=127 time=0
EXTRACT: pitchwheel channel=6 pitch=-8192 time=0
EXTRACT: pitchwheel channel=6 pitch=0 time=0
EXTRACT: note_off channel=6 note=53 velocity=95 time=0
EXTRACT: pitchwheel channel=6 pitch=-8192 time=0
EXTRACT: pitchwheel channel=6 pitch=0 time=0
EXTRACT: note_off channel=6 note=53 velocity=95 time=0
EXTRACT: note_on channel=7 note=33 velocity=95 time=0
EXTRACT: note_on channel=8 note=23 velocity=95 time=0
EXTRACT: note_on channel=10 note=40 velocity=95 time=0
EXTRACT: note_off channel=9 note=28 velocity=95 time=0
EXTRACT: note_off channel=9 note=39 velocity=95 time=0
EXTRACT: note_on channel=9 note=36 velocity=95 time=0
EXTRACT: note_off channel=10 note=40 velocity=95 time=0.06696425
EXTRACT: note_off channel=2 note=47 velocity=127 time=0.20089275
EXTRACT: note_off channel=5 note=64 velocity=95 time=0
EXTRACT: note_off channel=5 note=59 velocity=95 time=0
EXTRACT: note_off channel=5 note=55 velocity=95 time=0
EXTRACT: note_off channel=5 note=50 velocity=95 time=0
EXTRACT: note_on channel=5 note=64 velocity=95 time=0.267857
EXTRACT: note_on channel=5 note=59 velocity=95 time=0
EXTRACT: note_on channel=5 note=55 velocity=95 time=0
EXTRACT: note_on channel=5 note=50 velocity=95 time=0
EXTRACT: note_off channel=7 note=33 velocity=95 time=0
EXTRACT: note_off channel=8 note=23 velocity=95 time=0
EXTRACT: note_off channel=9 note=36 velocity=95 time=0
EXTRACT: note_on channel=9 note=28 velocity=95 time=0
EXTRACT: note_on channel=9 note=39 velocity=95 time=0
EXTRACT: note_on channel=7 note=33 velocity=95 time=0.267857
EXTRACT: note_on channel=8 note=23 velocity=95 time=0
EXTRACT: note_on channel=10 note=40 velocity=95 time=0
EXTRACT: note_off channel=9 note=28 velocity=95 time=0
EXTRACT: note_off channel=9 note=39 velocity=95 time=0
EXTRACT: note_on channel=9 note=36 velocity=95 time=0
EXTRACT: note_off channel=10 note=40 velocity=95 time=0.06696425
EXTRACT: note_off channel=9 note=36 velocity=95 time=0.20089275
EXTRACT: note_off channel=5 note=64 velocity=95 time=0.267857
EXTRACT: note_off channel=5 note=59 velocity=95 time=0
EXTRACT: note_off channel=5 note=55 velocity=95 time=0
EXTRACT: note_off channel=5 note=50 velocity=95 time=0
EXTRACT: note_off channel=7 note=33 velocity=95 time=0
EXTRACT: note_on channel=7 note=33 velocity=95 time=0
EXTRACT: note_off channel=8 note=23 velocity=95 time=0
EXTRACT: note_on channel=8 note=23 velocity=95 time=0
EXTRACT: note_on channel=10 note=40 velocity=95 time=0
EXTRACT: note_on channel=9 note=36 velocity=95 time=0
EXTRACT: note_off channel=10 note=40 velocity=95 time=0.06696425
EXTRACT: note_on channel=5 note=64 velocity=95 time=0.20089275
EXTRACT: note_on channel=5 note=59 velocity=95 time=0
EXTRACT: note_on channel=5 note=55 velocity=95 time=0
EXTRACT: note_on channel=5 note=50 velocity=95 time=0
EXTRACT: note_off channel=7 note=33 velocity=95 time=0
EXTRACT: note_off channel=9 note=36 velocity=95 time=0
EXTRACT: note_on channel=9 note=28 velocity=95 time=0
EXTRACT: note_on channel=9 note=39 velocity=95 time=0
EXTRACT: note_off channel=8 note=23 velocity=95 time=0.267857
EXTRACT: note_on channel=7 note=33 velocity=95 time=0.267857
EXTRACT: note_on channel=8 note=23 velocity=95 time=0
EXTRACT: note_on channel=10 note=40 velocity=95 time=0
EXTRACT: note_off channel=9 note=28 velocity=95 time=0
EXTRACT: note_off channel=9 note=39 velocity=95 time=0
EXTRACT: note_on channel=9 note=36 velocity=95 time=0
EXTRACT: note_off channel=10 note=40 velocity=95 time=0.06696425
EXTRACT: note_off channel=5 note=64 velocity=95 time=0.20089275
EXTRACT: note_off channel=5 note=59 velocity=95 time=0
EXTRACT: note_off channel=5 note=55 velocity=95 time=0
EXTRACT: note_off channel=5 note=50 velocity=95 time=0
EXTRACT: note_on channel=5 note=64 velocity=95 time=0.267857
EXTRACT: note_on channel=5 note=59 velocity=95 time=0
EXTRACT: note_on channel=5 note=55 velocity=95 time=0
EXTRACT: note_on channel=5 note=50 velocity=95 time=0
EXTRACT: note_off channel=7 note=33 velocity=95 time=0
EXTRACT: note_off channel=8 note=23 velocity=95 time=0
EXTRACT: note_off channel=9 note=36 velocity=95 time=0
EXTRACT: note_on channel=9 note=28 velocity=95 time=0
EXTRACT: note_on channel=9 note=39 velocity=95 time=0
EXTRACT: note_on channel=7 note=33 velocity=95 time=0.1339285
EXTRACT: note_on channel=8 note=23 velocity=95 time=0
EXTRACT: note_on channel=10 note=40 velocity=95 time=0
EXTRACT: note_off channel=9 note=28 velocity=95 time=0
EXTRACT: note_off channel=9 note=39 velocity=95 time=0
EXTRACT: note_on channel=9 note=36 velocity=95 time=0
EXTRACT: note_off channel=10 note=40 velocity=95 time=0.06696425
EXTRACT: note_off channel=7 note=33 velocity=95 time=0.06696425
EXTRACT: note_on channel=7 note=33 velocity=95 time=0
EXTRACT: note_off channel=8 note=23 velocity=95 time=0
EXTRACT: note_on channel=8 note=23 velocity=95 time=0
EXTRACT: note_on channel=10 note=40 velocity=95 time=0
EXTRACT: note_off channel=9 note=36 velocity=95 time=0
EXTRACT: note_on channel=9 note=36 velocity=95 time=0
EXTRACT: note_off channel=10 note=40 velocity=95 time=0.06696425
EXTRACT: pitchwheel channel=6 pitch=0 time=0.20089275
EXTRACT: note_on channel=6 note=53 velocity=95 time=0
EXTRACT: pitchwheel channel=6 pitch=0 time=0
EXTRACT: note_on channel=6 note=53 velocity=95 time=0
EXTRACT: note_off channel=7 note=33 velocity=95 time=0
EXTRACT: note_off channel=9 note=36 velocity=95 time=0
EXTRACT: pitchwheel channel=6 pitch=-128 time=0.016183027083333332
EXTRACT: pitchwheel channel=6 pitch=-128 time=0
EXTRACT: pitchwheel channel=6 pitch=-256 time=0.016183027083333332
EXTRACT: pitchwheel channel=6 pitch=-256 time=0
EXTRACT: pitchwheel channel=6 pitch=-384 time=0.016183027083333332
EXTRACT: pitchwheel channel=6 pitch=-384 time=0
EXTRACT: pitchwheel channel=6 pitch=-512 time=0.016183027083333332
EXTRACT: pitchwheel channel=6 pitch=-512 time=0
EXTRACT: pitchwheel channel=6 pitch=-640 time=0.016183027083333332
EXTRACT: pitchwheel channel=6 pitch=-640 time=0
EXTRACT: pitchwheel channel=6 pitch=-768 time=0.016183027083333332
EXTRACT: pitchwheel channel=6 pitch=-768 time=0
EXTRACT: pitchwheel channel=6 pitch=-896 time=0.016183027083333332
EXTRACT: pitchwheel channel=6 pitch=-896 time=0
EXTRACT: pitchwheel channel=6 pitch=-1024 time=0.016183027083333332
EXTRACT: pitchwheel channel=6 pitch=-1024 time=0
EXTRACT: pitchwheel channel=6 pitch=-1152 time=0.016183027083333332
EXTRACT: pitchwheel channel=6 pitch=-1152 time=0
EXTRACT: pitchwheel channel=6 pitch=-1280 time=0.016183027083333332
EXTRACT: pitchwheel channel=6 pitch=-1280 time=0
EXTRACT: pitchwheel channel=6 pitch=-1408 time=0.016183027083333332
EXTRACT: pitchwheel channel=6 pitch=-1408 time=0
EXTRACT: pitchwheel channel=6 pitch=-1536 time=0.016183027083333332
EXTRACT: pitchwheel channel=6 pitch=-1536 time=0
EXTRACT: pitchwheel channel=6 pitch=-1664 time=0.016183027083333332
EXTRACT: pitchwheel channel=6 pitch=-1664 time=0
EXTRACT: pitchwheel channel=6 pitch=-1792 time=0.016183027083333332
EXTRACT: pitchwheel channel=6 pitch=-1792 time=0
EXTRACT: pitchwheel channel=6 pitch=-1920 time=0.016183027083333332
EXTRACT: pitchwheel channel=6 pitch=-1920 time=0
EXTRACT: pitchwheel channel=6 pitch=-2048 time=0.016183027083333332
EXTRACT: pitchwheel channel=6 pitch=-2048 time=0
EXTRACT: note_off channel=5 note=64 velocity=95 time=0.008928566666666667
EXTRACT: note_off channel=5 note=59 velocity=95 time=0
EXTRACT: note_off channel=5 note=55 velocity=95 time=0
EXTRACT: note_off channel=5 note=50 velocity=95 time=0
EXTRACT: note_on channel=7 note=33 velocity=95 time=0
EXTRACT: note_off channel=8 note=23 velocity=95 time=0
EXTRACT: note_on channel=8 note=23 velocity=95 time=0
EXTRACT: note_on channel=10 note=40 velocity=95 time=0
EXTRACT: note_on channel=9 note=36 velocity=95 time=0
EXTRACT: pitchwheel channel=6 pitch=-2176 time=0.007254460416666667
EXTRACT: pitchwheel channel=6 pitch=-2176 time=0
EXTRACT: pitchwheel channel=6 pitch=-2304 time=0.016183027083333332
EXTRACT: pitchwheel channel=6 pitch=-2304 time=0
EXTRACT: pitchwheel channel=6 pitch=-2432 time=0.016183027083333332
EXTRACT: pitchwheel channel=6 pitch=-2432 time=0
EXTRACT: pitchwheel channel=6 pitch=-2560 time=0.016183027083333332
EXTRACT: pitchwheel channel=6 pitch=-2560 time=0
EXTRACT: note_off channel=10 note=40 velocity=95 time=0.011160708333333333
EXTRACT: pitchwheel channel=6 pitch=-2688 time=0.00502231875
EXTRACT: pitchwheel channel=6 pitch=-2688 time=0
EXTRACT: pitchwheel channel=6 pitch=-2816 time=0.016183027083333332
EXTRACT: pitchwheel channel=6 pitch=-2816 time=0
EXTRACT: pitchwheel channel=6 pitch=-2944 time=0.016183027083333332
EXTRACT: pitchwheel channel=6 pitch=-2944 time=0
EXTRACT: pitchwheel channel=6 pitch=-3072 time=0.016183027083333332
EXTRACT: pitchwheel channel=6 pitch=-3072 time=0
EXTRACT: pitchwheel channel=6 pitch=-3200 time=0.016183027083333332
EXTRACT: pitchwheel channel=6 pitch=-3200 time=0
EXTRACT: pitchwheel channel=6 pitch=-3328 time=0.016183027083333332
EXTRACT: pitchwheel channel=6 pitch=-3328 time=0
EXTRACT: pitchwheel channel=6 pitch=-3456 time=0.016183027083333332
EXTRACT: pitchwheel channel=6 pitch=-3456 time=0
EXTRACT: pitchwheel channel=6 pitch=-3584 time=0.016183027083333332
EXTRACT: pitchwheel channel=6 pitch=-3584 time=0
EXTRACT: pitchwheel channel=6 pitch=-3712 time=0.016183027083333332
EXTRACT: pitchwheel channel=6 pitch=-3712 time=0
EXTRACT: pitchwheel channel=6 pitch=-3840 time=0.016183027083333332
EXTRACT: pitchwheel channel=6 pitch=-3840 time=0
EXTRACT: pitchwheel channel=6 pitch=-3968 time=0.016183027083333332
EXTRACT: pitchwheel channel=6 pitch=-3968 time=0
EXTRACT: pitchwheel channel=6 pitch=-4096 time=0.016183027083333332
EXTRACT: pitchwheel channel=6 pitch=-4096 time=0
EXTRACT: pitchwheel channel=6 pitch=-4224 time=0.016183027083333332
EXTRACT: pitchwheel channel=6 pitch=-4224 time=0
EXTRACT: note_on channel=2 note=46 velocity=127 time=0.0016741062500000002
EXTRACT: note_on channel=5 note=64 velocity=95 time=0
EXTRACT: note_on channel=5 note=59 velocity=95 time=0
EXTRACT: note_on channel=5 note=55 velocity=95 time=0
EXTRACT: note_on channel=5 note=50 velocity=95 time=0
EXTRACT: note_off channel=7 note=33 velocity=95 time=0
EXTRACT: note_off channel=9 note=36 velocity=95 time=0
EXTRACT: note_on channel=9 note=28 velocity=95 time=0
EXTRACT: note_on channel=9 note=39 velocity=95 time=0
EXTRACT: pitchwheel channel=6 pitch=-4352 time=0.014508920833333334
EXTRACT: pitchwheel channel=6 pitch=-4352 time=0
EXTRACT: pitchwheel channel=6 pitch=-4480 time=0.016183027083333332
EXTRACT: pitchwheel channel=6 pitch=-4480 time=0
EXTRACT: pitchwheel channel=6 pitch=-4608 time=0.016183027083333332
EXTRACT: pitchwheel channel=6 pitch=-4608 time=0
EXTRACT: pitchwheel channel=6 pitch=-4736 time=0.016183027083333332
EXTRACT: pitchwheel channel=6 pitch=-4736 time=0
EXTRACT: pitchwheel channel=6 pitch=-4864 time=0.016183027083333332
EXTRACT: pitchwheel channel=6 pitch=-4864 time=0
EXTRACT: pitchwheel channel=6 pitch=-4992 time=0.016183027083333332
EXTRACT: pitchwheel channel=6 pitch=-4992 time=0
EXTRACT: pitchwheel channel=6 pitch=-5120 time=0.016183027083333332
EXTRACT: pitchwheel channel=6 pitch=-5120 time=0
EXTRACT: pitchwheel channel=6 pitch=-5248 time=0.016183027083333332
EXTRACT: pitchwheel channel=6 pitch=-5248 time=0
EXTRACT: pitchwheel channel=6 pitch=-5376 time=0.016183027083333332
EXTRACT: pitchwheel channel=6 pitch=-5376 time=0
EXTRACT: pitchwheel channel=6 pitch=-5504 time=0.016183027083333332
EXTRACT: pitchwheel channel=6 pitch=-5504 time=0
EXTRACT: pitchwheel channel=6 pitch=-5632 time=0.016183027083333332
EXTRACT: pitchwheel channel=6 pitch=-5632 time=0
EXTRACT: pitchwheel channel=6 pitch=-5760 time=0.016183027083333332
EXTRACT: pitchwheel channel=6 pitch=-5760 time=0
EXTRACT: pitchwheel channel=6 pitch=-5888 time=0.016183027083333332
EXTRACT: pitchwheel channel=6 pitch=-5888 time=0
EXTRACT: pitchwheel channel=6 pitch=-6016 time=0.016183027083333332
EXTRACT: pitchwheel channel=6 pitch=-6016 time=0
EXTRACT: pitchwheel channel=6 pitch=-6144 time=0.016183027083333332
EXTRACT: pitchwheel channel=6 pitch=-6144 time=0
EXTRACT: pitchwheel channel=6 pitch=-6272 time=0.016183027083333332
EXTRACT: pitchwheel channel=6 pitch=-6272 time=0
EXTRACT: note_off channel=8 note=23 velocity=95 time=0.010602672916666667
EXTRACT: pitchwheel channel=6 pitch=-6400 time=0.005580354166666667
EXTRACT: pitchwheel channel=6 pitch=-6400 time=0
EXTRACT: pitchwheel channel=6 pitch=-6528 time=0.016183027083333332
EXTRACT: pitchwheel channel=6 pitch=-6528 time=0
EXTRACT: pitchwheel channel=6 pitch=-6656 time=0.016183027083333332
EXTRACT: pitchwheel channel=6 pitch=-6656 time=0
EXTRACT: pitchwheel channel=6 pitch=-6784 time=0.016183027083333332
EXTRACT: pitchwheel channel=6 pitch=-6784 time=0
EXTRACT: pitchwheel channel=6 pitch=-6912 time=0.016183027083333332
EXTRACT: pitchwheel channel=6 pitch=-6912 time=0
EXTRACT: pitchwheel channel=6 pitch=-7040 time=0.016183027083333332
EXTRACT: pitchwheel channel=6 pitch=-7040 time=0
EXTRACT: pitchwheel channel=6 pitch=-7168 time=0.016183027083333332
EXTRACT: pitchwheel channel=6 pitch=-7168 time=0
EXTRACT: pitchwheel channel=6 pitch=-7296 time=0.016183027083333332
EXTRACT: pitchwheel channel=6 pitch=-7296 time=0
EXTRACT: pitchwheel channel=6 pitch=-7424 time=0.016183027083333332
EXTRACT: pitchwheel channel=6 pitch=-7424 time=0
EXTRACT: pitchwheel channel=6 pitch=-7552 time=0.016183027083333332
EXTRACT: pitchwheel channel=6 pitch=-7552 time=0
EXTRACT: pitchwheel channel=6 pitch=-7680 time=0.016183027083333332
EXTRACT: pitchwheel channel=6 pitch=-7680 time=0
EXTRACT: pitchwheel channel=6 pitch=-7808 time=0.016183027083333332
EXTRACT: pitchwheel channel=6 pitch=-7808 time=0
EXTRACT: pitchwheel channel=6 pitch=-7936 time=0.016183027083333332
EXTRACT: pitchwheel channel=6 pitch=-7936 time=0
EXTRACT: pitchwheel channel=6 pitch=-8064 time=0.016183027083333332
EXTRACT: pitchwheel channel=6 pitch=-8064 time=0
EXTRACT: pitchwheel channel=6 pitch=-8192 time=0.016183027083333332
EXTRACT: pitchwheel channel=6 pitch=-8192 time=0
EXTRACT: pitchwheel channel=6 pitch=-8192 time=0.016183027083333332
EXTRACT: pitchwheel channel=6 pitch=-8192 time=0
EXTRACT: pitchwheel channel=6 pitch=-8192 time=0.016183027083333332
EXTRACT: pitchwheel channel=6 pitch=-8192 time=0
EXTRACT: note_off channel=2 note=46 velocity=127 time=0.0033482125000000003
EXTRACT: note_on channel=2 note=47 velocity=127 time=0
EXTRACT: pitchwheel channel=6 pitch=-8192 time=0
EXTRACT: pitchwheel channel=6 pitch=0 time=0
EXTRACT: note_off channel=6 note=53 velocity=95 time=0
EXTRACT: pitchwheel channel=6 pitch=-8192 time=0
EXTRACT: pitchwheel channel=6 pitch=0 time=0
EXTRACT: note_off channel=6 note=53 velocity=95 time=0
EXTRACT: note_on channel=7 note=33 velocity=95 time=0
EXTRACT: note_on channel=8 note=23 velocity=95 time=0
EXTRACT: note_on channel=10 note=40 velocity=95 time=0
EXTRACT: note_off channel=9 note=28 velocity=95 time=0
EXTRACT: note_off channel=9 note=39 velocity=95 time=0
EXTRACT: note_on channel=9 note=36 velocity=95 time=0
EXTRACT: note_off channel=10 note=40 velocity=95 time=0.06696425
EXTRACT: note_off channel=2 note=47 velocity=127 time=0.20089275
EXTRACT: note_off channel=5 note=64 velocity=95 time=0
EXTRACT: note_off channel=5 note=59 velocity=95 time=0
EXTRACT: note_off channel=5 note=55 velocity=95 time=0
EXTRACT: note_off channel=5 note=50 velocity=95 time=0
EXTRACT: note_off channel=8 note=23 velocity=95 time=0
EXTRACT: note_on channel=8 note=23 velocity=95 time=0
EXTRACT: note_on channel=10 note=40 velocity=95 time=0
EXTRACT: note_off channel=9 note=36 velocity=95 time=0
EXTRACT: note_on channel=9 note=36 velocity=95 time=0
EXTRACT: note_off channel=10 note=40 velocity=95 time=0.06696425
EXTRACT: note_on channel=5 note=64 velocity=95 time=0.20089275
EXTRACT: note_on channel=5 note=59 velocity=95 time=0
EXTRACT: note_on channel=5 note=55 velocity=95 time=0
EXTRACT: note_on channel=5 note=50 velocity=95 time=0
EXTRACT: note_off channel=7 note=33 velocity=95 time=0
EXTRACT: note_off channel=8 note=23 velocity=95 time=0
EXTRACT: note_off channel=9 note=36 velocity=95 time=0
EXTRACT: note_on channel=9 note=28 velocity=95 time=0
EXTRACT: note_on channel=9 note=39 velocity=95 time=0
EXTRACT: note_on channel=7 note=33 velocity=95 time=0.267857
EXTRACT: note_on channel=8 note=23 velocity=95 time=0
EXTRACT: note_on channel=10 note=40 velocity=95 time=0
EXTRACT: note_off channel=9 note=28 velocity=95 time=0
EXTRACT: note_off channel=9 note=39 velocity=95 time=0
EXTRACT: note_on channel=9 note=36 velocity=95 time=0
EXTRACT: note_off channel=10 note=40 velocity=95 time=0.06696425
EXTRACT: note_off channel=9 note=36 velocity=95 time=0.20089275
EXTRACT: note_off channel=5 note=64 velocity=95 time=0.267857
EXTRACT: note_off channel=5 note=59 velocity=95 time=0
EXTRACT: note_off channel=5 note=55 velocity=95 time=0
EXTRACT: note_off channel=5 note=50 velocity=95 time=0
EXTRACT: note_off channel=7 note=33 velocity=95 time=0
EXTRACT: note_on channel=7 note=33 velocity=95 time=0
EXTRACT: note_off channel=8 note=23 velocity=95 time=0
EXTRACT: note_on channel=8 note=23 velocity=95 time=0
EXTRACT: note_on channel=10 note=40 velocity=95 time=0
EXTRACT: note_on channel=9 note=36 velocity=95 time=0
EXTRACT: note_off channel=10 note=40 velocity=95 time=0.06696425
EXTRACT: note_on channel=5 note=64 velocity=95 time=0.20089275
EXTRACT: note_on channel=5 note=59 velocity=95 time=0
EXTRACT: note_on channel=5 note=55 velocity=95 time=0
EXTRACT: note_on channel=5 note=50 velocity=95 time=0
EXTRACT: note_off channel=7 note=33 velocity=95 time=0
EXTRACT: note_off channel=9 note=36 velocity=95 time=0
EXTRACT: note_on channel=9 note=28 velocity=95 time=0
EXTRACT: note_on channel=9 note=39 velocity=95 time=0
EXTRACT: note_off channel=8 note=23 velocity=95 time=0.267857
EXTRACT: note_on channel=7 note=33 velocity=95 time=0.267857
EXTRACT: note_on channel=8 note=23 velocity=95 time=0
EXTRACT: note_on channel=10 note=40 velocity=95 time=0
EXTRACT: note_off channel=9 note=28 velocity=95 time=0
EXTRACT: note_off channel=9 note=39 velocity=95 time=0
EXTRACT: note_on channel=9 note=36 velocity=95 time=0
EXTRACT: note_off channel=10 note=40 velocity=95 time=0.06696425
EXTRACT: note_off channel=5 note=64 velocity=95 time=0.20089275
EXTRACT: note_off channel=5 note=59 velocity=95 time=0
EXTRACT: note_off channel=5 note=55 velocity=95 time=0
EXTRACT: note_off channel=5 note=50 velocity=95 time=0
EXTRACT: note_on channel=5 note=64 velocity=95 time=0.267857
EXTRACT: note_on channel=5 note=59 velocity=95 time=0
EXTRACT: note_on channel=5 note=55 velocity=95 time=0
EXTRACT: note_on channel=5 note=50 velocity=95 time=0
EXTRACT: note_off channel=7 note=33 velocity=95 time=0
EXTRACT: note_off channel=8 note=23 velocity=95 time=0
EXTRACT: note_off channel=9 note=36 velocity=95 time=0
EXTRACT: note_on channel=9 note=28 velocity=95 time=0
EXTRACT: note_on channel=9 note=39 velocity=95 time=0
EXTRACT: note_on channel=7 note=33 velocity=95 time=0.267857
EXTRACT: note_on channel=8 note=23 velocity=95 time=0
EXTRACT: note_on channel=10 note=40 velocity=95 time=0
EXTRACT: note_off channel=9 note=28 velocity=95 time=0
EXTRACT: note_off channel=9 note=39 velocity=95 time=0
EXTRACT: note_on channel=9 note=36 velocity=95 time=0
EXTRACT: note_off channel=10 note=40 velocity=95 time=0.06696425
EXTRACT: pitchwheel channel=6 pitch=0 time=0.20089275
EXTRACT: note_on channel=6 note=53 velocity=95 time=0
EXTRACT: pitchwheel channel=6 pitch=0 time=0
EXTRACT: note_on channel=6 note=53 velocity=95 time=0
EXTRACT: note_off channel=9 note=36 velocity=95 time=0
EXTRACT: pitchwheel channel=6 pitch=-128 time=0.016183027083333332
EXTRACT: pitchwheel channel=6 pitch=-128 time=0
EXTRACT: pitchwheel channel=6 pitch=-256 time=0.016183027083333332
EXTRACT: pitchwheel channel=6 pitch=-256 time=0
EXTRACT: pitchwheel channel=6 pitch=-384 time=0.016183027083333332
EXTRACT: pitchwheel channel=6 pitch=-384 time=0
EXTRACT: pitchwheel channel=6 pitch=-512 time=0.016183027083333332
EXTRACT: pitchwheel channel=6 pitch=-512 time=0
EXTRACT: pitchwheel channel=6 pitch=-640 time=0.016183027083333332
EXTRACT: pitchwheel channel=6 pitch=-640 time=0
EXTRACT: pitchwheel channel=6 pitch=-768 time=0.016183027083333332
EXTRACT: pitchwheel channel=6 pitch=-768 time=0
EXTRACT: pitchwheel channel=6 pitch=-896 time=0.016183027083333332
EXTRACT: pitchwheel channel=6 pitch=-896 time=0
EXTRACT: pitchwheel channel=6 pitch=-1024 time=0.016183027083333332
EXTRACT: pitchwheel channel=6 pitch=-1024 time=0
EXTRACT: pitchwheel channel=6 pitch=-1152 time=0.016183027083333332
EXTRACT: pitchwheel channel=6 pitch=-1152 time=0
EXTRACT: pitchwheel channel=6 pitch=-1280 time=0.016183027083333332
EXTRACT: pitchwheel channel=6 pitch=-1280 time=0
EXTRACT: pitchwheel channel=6 pitch=-1408 time=0.016183027083333332
EXTRACT: pitchwheel channel=6 pitch=-1408 time=0
EXTRACT: pitchwheel channel=6 pitch=-1536 time=0.016183027083333332
EXTRACT: pitchwheel channel=6 pitch=-1536 time=0
EXTRACT: pitchwheel channel=6 pitch=-1664 time=0.016183027083333332
EXTRACT: pitchwheel channel=6 pitch=-1664 time=0
EXTRACT: pitchwheel channel=6 pitch=-1792 time=0.016183027083333332
EXTRACT: pitchwheel channel=6 pitch=-1792 time=0
EXTRACT: pitchwheel channel=6 pitch=-1920 time=0.016183027083333332
EXTRACT: pitchwheel channel=6 pitch=-1920 time=0
EXTRACT: pitchwheel channel=6 pitch=-2048 time=0.016183027083333332
EXTRACT: pitchwheel channel=6 pitch=-2048 time=0
EXTRACT: note_off channel=5 note=64 velocity=95 time=0.008928566666666667
EXTRACT: note_off channel=5 note=59 velocity=95 time=0
EXTRACT: note_off channel=5 note=55 velocity=95 time=0
EXTRACT: note_off channel=5 note=50 velocity=95 time=0
EXTRACT: note_off channel=7 note=33 velocity=95 time=0
EXTRACT: note_on channel=7 note=33 velocity=95 time=0
EXTRACT: note_off channel=8 note=23 velocity=95 time=0
EXTRACT: note_on channel=8 note=23 velocity=95 time=0
EXTRACT: note_on channel=10 note=40 velocity=95 time=0
EXTRACT: note_on channel=9 note=36 velocity=95 time=0
EXTRACT: pitchwheel channel=6 pitch=-2176 time=0.007254460416666667
EXTRACT: pitchwheel channel=6 pitch=-2176 time=0
EXTRACT: pitchwheel channel=6 pitch=-2304 time=0.016183027083333332
EXTRACT: pitchwheel channel=6 pitch=-2304 time=0
EXTRACT: pitchwheel channel=6 pitch=-2432 time=0.016183027083333332
EXTRACT: pitchwheel channel=6 pitch=-2432 time=0
EXTRACT: pitchwheel channel=6 pitch=-2560 time=0.016183027083333332
EXTRACT: pitchwheel channel=6 pitch=-2560 time=0
EXTRACT: note_off channel=10 note=40 velocity=95 time=0.011160708333333333
EXTRACT: pitchwheel channel=6 pitch=-2688 time=0.00502231875
EXTRACT: pitchwheel channel=6 pitch=-2688 time=0
EXTRACT: pitchwheel channel=6 pitch=-2816 time=0.016183027083333332
EXTRACT: pitchwheel channel=6 pitch=-2816 time=0
EXTRACT: pitchwheel channel=6 pitch=-2944 time=0.016183027083333332
EXTRACT: pitchwheel channel=6 pitch=-2944 time=0
EXTRACT: pitchwheel channel=6 pitch=-3072 time=0.016183027083333332
EXTRACT: pitchwheel channel=6 pitch=-3072 time=0
EXTRACT: pitchwheel channel=6 pitch=-3200 time=0.016183027083333332
EXTRACT: pitchwheel channel=6 pitch=-3200 time=0
EXTRACT: pitchwheel channel=6 pitch=-3328 time=0.016183027083333332
EXTRACT: pitchwheel channel=6 pitch=-3328 time=0
EXTRACT: pitchwheel channel=6 pitch=-3456 time=0.016183027083333332
EXTRACT: pitchwheel channel=6 pitch=-3456 time=0
EXTRACT: pitchwheel channel=6 pitch=-3584 time=0.016183027083333332
EXTRACT: pitchwheel channel=6 pitch=-3584 time=0
EXTRACT: pitchwheel channel=6 pitch=-3712 time=0.016183027083333332
EXTRACT: pitchwheel channel=6 pitch=-3712 time=0
EXTRACT: pitchwheel channel=6 pitch=-3840 time=0.016183027083333332
EXTRACT: pitchwheel channel=6 pitch=-3840 time=0
EXTRACT: pitchwheel channel=6 pitch=-3968 time=0.016183027083333332
EXTRACT: pitchwheel channel=6 pitch=-3968 time=0
EXTRACT: pitchwheel channel=6 pitch=-4096 time=0.016183027083333332
EXTRACT: pitchwheel channel=6 pitch=-4096 time=0
EXTRACT: pitchwheel channel=6 pitch=-4224 time=0.016183027083333332
EXTRACT: pitchwheel channel=6 pitch=-4224 time=0
EXTRACT: note_on channel=2 note=46 velocity=127 time=0.0016741062500000002
EXTRACT: note_on channel=5 note=64 velocity=95 time=0
EXTRACT: note_on channel=5 note=59 velocity=95 time=0
EXTRACT: note_on channel=5 note=55 velocity=95 time=0
EXTRACT: note_on channel=5 note=50 velocity=95 time=0
EXTRACT: note_off channel=7 note=33 velocity=95 time=0
EXTRACT: note_off channel=9 note=36 velocity=95 time=0
EXTRACT: note_on channel=9 note=28 velocity=95 time=0
EXTRACT: note_on channel=9 note=39 velocity=95 time=0
EXTRACT: pitchwheel channel=6 pitch=-4352 time=0.014508920833333334
EXTRACT: pitchwheel channel=6 pitch=-4352 time=0
EXTRACT: pitchwheel channel=6 pitch=-4480 time=0.016183027083333332
EXTRACT: pitchwheel channel=6 pitch=-4480 time=0
EXTRACT: pitchwheel channel=6 pitch=-4608 time=0.016183027083333332
EXTRACT: pitchwheel channel=6 pitch=-4608 time=0
EXTRACT: pitchwheel channel=6 pitch=-4736 time=0.016183027083333332
EXTRACT: pitchwheel channel=6 pitch=-4736 time=0
EXTRACT: pitchwheel channel=6 pitch=-4864 time=0.016183027083333332
EXTRACT: pitchwheel channel=6 pitch=-4864 time=0
EXTRACT: pitchwheel channel=6 pitch=-4992 time=0.016183027083333332
EXTRACT: pitchwheel channel=6 pitch=-4992 time=0
EXTRACT: pitchwheel channel=6 pitch=-5120 time=0.016183027083333332
EXTRACT: pitchwheel channel=6 pitch=-5120 time=0
EXTRACT: pitchwheel channel=6 pitch=-5248 time=0.016183027083333332
EXTRACT: pitchwheel channel=6 pitch=-5248 time=0
EXTRACT: pitchwheel channel=6 pitch=-5376 time=0.016183027083333332
EXTRACT: pitchwheel channel=6 pitch=-5376 time=0
EXTRACT: pitchwheel channel=6 pitch=-5504 time=0.016183027083333332
EXTRACT: pitchwheel channel=6 pitch=-5504 time=0
EXTRACT: pitchwheel channel=6 pitch=-5632 time=0.016183027083333332
EXTRACT: pitchwheel channel=6 pitch=-5632 time=0
EXTRACT: pitchwheel channel=6 pitch=-5760 time=0.016183027083333332
EXTRACT: pitchwheel channel=6 pitch=-5760 time=0
EXTRACT: pitchwheel channel=6 pitch=-5888 time=0.016183027083333332
EXTRACT: pitchwheel channel=6 pitch=-5888 time=0
EXTRACT: pitchwheel channel=6 pitch=-6016 time=0.016183027083333332
EXTRACT: pitchwheel channel=6 pitch=-6016 time=0
EXTRACT: pitchwheel channel=6 pitch=-6144 time=0.016183027083333332
EXTRACT: pitchwheel channel=6 pitch=-6144 time=0
EXTRACT: pitchwheel channel=6 pitch=-6272 time=0.016183027083333332
EXTRACT: pitchwheel channel=6 pitch=-6272 time=0
EXTRACT: note_off channel=8 note=23 velocity=95 time=0.010602672916666667
EXTRACT: pitchwheel channel=6 pitch=-6400 time=0.005580354166666667
EXTRACT: pitchwheel channel=6 pitch=-6400 time=0
EXTRACT: pitchwheel channel=6 pitch=-6528 time=0.016183027083333332
EXTRACT: pitchwheel channel=6 pitch=-6528 time=0
EXTRACT: pitchwheel channel=6 pitch=-6656 time=0.016183027083333332
EXTRACT: pitchwheel channel=6 pitch=-6656 time=0
EXTRACT: pitchwheel channel=6 pitch=-6784 time=0.016183027083333332
EXTRACT: pitchwheel channel=6 pitch=-6784 time=0
EXTRACT: pitchwheel channel=6 pitch=-6912 time=0.016183027083333332
EXTRACT: pitchwheel channel=6 pitch=-6912 time=0
EXTRACT: pitchwheel channel=6 pitch=-7040 time=0.016183027083333332
EXTRACT: pitchwheel channel=6 pitch=-7040 time=0
EXTRACT: pitchwheel channel=6 pitch=-7168 time=0.016183027083333332
EXTRACT: pitchwheel channel=6 pitch=-7168 time=0
EXTRACT: pitchwheel channel=6 pitch=-7296 time=0.016183027083333332
EXTRACT: pitchwheel channel=6 pitch=-7296 time=0
EXTRACT: pitchwheel channel=6 pitch=-7424 time=0.016183027083333332
EXTRACT: pitchwheel channel=6 pitch=-7424 time=0
EXTRACT: pitchwheel channel=6 pitch=-7552 time=0.016183027083333332
EXTRACT: pitchwheel channel=6 pitch=-7552 time=0
EXTRACT: pitchwheel channel=6 pitch=-7680 time=0.016183027083333332
EXTRACT: pitchwheel channel=6 pitch=-7680 time=0
EXTRACT: pitchwheel channel=6 pitch=-7808 time=0.016183027083333332
EXTRACT: pitchwheel channel=6 pitch=-7808 time=0
EXTRACT: pitchwheel channel=6 pitch=-7936 time=0.016183027083333332
EXTRACT: pitchwheel channel=6 pitch=-7936 time=0
EXTRACT: pitchwheel channel=6 pitch=-8064 time=0.016183027083333332
EXTRACT: pitchwheel channel=6 pitch=-8064 time=0
EXTRACT: pitchwheel channel=6 pitch=-8192 time=0.016183027083333332
EXTRACT: pitchwheel channel=6 pitch=-8192 time=0
EXTRACT: pitchwheel channel=6 pitch=-8192 time=0.016183027083333332
EXTRACT: pitchwheel channel=6 pitch=-8192 time=0
EXTRACT: pitchwheel channel=6 pitch=-8192 time=0.016183027083333332
EXTRACT: pitchwheel channel=6 pitch=-8192 time=0
EXTRACT: note_off channel=2 note=46 velocity=127 time=0.0033482125000000003
EXTRACT: note_on channel=2 note=47 velocity=127 time=0
EXTRACT: pitchwheel channel=6 pitch=-8192 time=0
EXTRACT: pitchwheel channel=6 pitch=0 time=0
EXTRACT: note_off channel=6 note=53 velocity=95 time=0
EXTRACT: pitchwheel channel=6 pitch=-8192 time=0
EXTRACT: pitchwheel channel=6 pitch=0 time=0
EXTRACT: note_off channel=6 note=53 velocity=95 time=0
EXTRACT: note_on channel=7 note=33 velocity=95 time=0
EXTRACT: note_on channel=8 note=23 velocity=95 time=0
EXTRACT: note_on channel=10 note=40 velocity=95 time=0
EXTRACT: note_off channel=9 note=28 velocity=95 time=0
EXTRACT: note_off channel=9 note=39 velocity=95 time=0
EXTRACT: note_on channel=9 note=36 velocity=95 time=0
EXTRACT: note_off channel=10 note=40 velocity=95 time=0.06696425
EXTRACT: note_off channel=2 note=47 velocity=127 time=0.20089275
EXTRACT: note_off channel=5 note=64 velocity=95 time=0
EXTRACT: note_off channel=5 note=59 velocity=95 time=0
EXTRACT: note_off channel=5 note=55 velocity=95 time=0
EXTRACT: note_off channel=5 note=50 velocity=95 time=0
EXTRACT: note_on channel=5 note=64 velocity=95 time=0.267857
EXTRACT: note_on channel=5 note=59 velocity=95 time=0
EXTRACT: note_on channel=5 note=55 velocity=95 time=0
EXTRACT: note_on channel=5 note=50 velocity=95 time=0
EXTRACT: note_off channel=7 note=33 velocity=95 time=0
EXTRACT: note_off channel=8 note=23 velocity=95 time=0
EXTRACT: note_off channel=9 note=36 velocity=95 time=0
EXTRACT: note_on channel=9 note=28 velocity=95 time=0
EXTRACT: note_on channel=9 note=39 velocity=95 time=0
EXTRACT: note_on channel=7 note=33 velocity=95 time=0.267857
EXTRACT: note_on channel=8 note=23 velocity=95 time=0
EXTRACT: note_on channel=10 note=40 velocity=95 time=0
EXTRACT: note_off channel=9 note=28 velocity=95 time=0
EXTRACT: note_off channel=9 note=39 velocity=95 time=0
EXTRACT: note_on channel=9 note=36 velocity=95 time=0
EXTRACT: note_off channel=10 note=40 velocity=95 time=0.06696425
EXTRACT: note_off channel=9 note=36 velocity=95 time=0.20089275
EXTRACT: note_off channel=5 note=64 velocity=95 time=0.267857
EXTRACT: note_off channel=5 note=59 velocity=95 time=0
EXTRACT: note_off channel=5 note=55 velocity=95 time=0
EXTRACT: note_off channel=5 note=50 velocity=95 time=0
EXTRACT: note_off channel=7 note=33 velocity=95 time=0
EXTRACT: note_on channel=7 note=33 velocity=95 time=0
EXTRACT: note_off channel=8 note=23 velocity=95 time=0
EXTRACT: note_on channel=8 note=23 velocity=95 time=0
EXTRACT: note_on channel=10 note=40 velocity=95 time=0
EXTRACT: note_on channel=9 note=36 velocity=95 time=0
EXTRACT: note_off channel=10 note=40 velocity=95 time=0.06696425
EXTRACT: note_on channel=5 note=64 velocity=95 time=0.20089275
EXTRACT: note_on channel=5 note=59 velocity=95 time=0
EXTRACT: note_on channel=5 note=55 velocity=95 time=0
EXTRACT: note_on channel=5 note=50 velocity=95 time=0
EXTRACT: note_off channel=7 note=33 velocity=95 time=0
EXTRACT: note_off channel=9 note=36 velocity=95 time=0
EXTRACT: note_on channel=9 note=28 velocity=95 time=0
EXTRACT: note_on channel=9 note=39 velocity=95 time=0
EXTRACT: note_off channel=8 note=23 velocity=95 time=0.267857
EXTRACT: note_on channel=7 note=33 velocity=95 time=0.267857
EXTRACT: note_on channel=8 note=23 velocity=95 time=0
EXTRACT: note_on channel=10 note=40 velocity=95 time=0
EXTRACT: note_off channel=9 note=28 velocity=95 time=0
EXTRACT: note_off channel=9 note=39 velocity=95 time=0
EXTRACT: note_on channel=9 note=36 velocity=95 time=0
EXTRACT: note_off channel=10 note=40 velocity=95 time=0.06696425
EXTRACT: note_off channel=5 note=64 velocity=95 time=0.20089275
EXTRACT: note_off channel=5 note=59 velocity=95 time=0
EXTRACT: note_off channel=5 note=55 velocity=95 time=0
EXTRACT: note_off channel=5 note=50 velocity=95 time=0
EXTRACT: note_on channel=5 note=64 velocity=95 time=0.267857
EXTRACT: note_on channel=5 note=59 velocity=95 time=0
EXTRACT: note_on channel=5 note=55 velocity=95 time=0
EXTRACT: note_on channel=5 note=50 velocity=95 time=0
EXTRACT: note_off channel=7 note=33 velocity=95 time=0
EXTRACT: note_off channel=8 note=23 velocity=95 time=0
EXTRACT: note_off channel=9 note=36 velocity=95 time=0
EXTRACT: note_on channel=9 note=28 velocity=95 time=0
EXTRACT: note_on channel=9 note=39 velocity=95 time=0
EXTRACT: note_on channel=7 note=33 velocity=95 time=0.1339285
EXTRACT: note_on channel=8 note=23 velocity=95 time=0
EXTRACT: note_on channel=10 note=40 velocity=95 time=0
EXTRACT: note_off channel=9 note=28 velocity=95 time=0
EXTRACT: note_off channel=9 note=39 velocity=95 time=0
EXTRACT: note_on channel=9 note=36 velocity=95 time=0
EXTRACT: note_off channel=10 note=40 velocity=95 time=0.06696425
EXTRACT: note_off channel=7 note=33 velocity=95 time=0.06696425
EXTRACT: note_on channel=7 note=33 velocity=95 time=0
EXTRACT: note_off channel=8 note=23 velocity=95 time=0
EXTRACT: note_on channel=8 note=23 velocity=95 time=0
EXTRACT: note_on channel=10 note=40 velocity=95 time=0
EXTRACT: note_off channel=9 note=36 velocity=95 time=0
EXTRACT: note_on channel=9 note=36 velocity=95 time=0
EXTRACT: note_off channel=10 note=40 velocity=95 time=0.06696425
EXTRACT: pitchwheel channel=6 pitch=0 time=0.20089275
EXTRACT: note_on channel=6 note=53 velocity=95 time=0
EXTRACT: pitchwheel channel=6 pitch=0 time=0
EXTRACT: note_on channel=6 note=53 velocity=95 time=0
EXTRACT: note_off channel=7 note=33 velocity=95 time=0
EXTRACT: note_off channel=9 note=36 velocity=95 time=0
EXTRACT: pitchwheel channel=6 pitch=-128 time=0.016183027083333332
EXTRACT: pitchwheel channel=6 pitch=-128 time=0
EXTRACT: pitchwheel channel=6 pitch=-256 time=0.016183027083333332
EXTRACT: pitchwheel channel=6 pitch=-256 time=0
EXTRACT: pitchwheel channel=6 pitch=-384 time=0.016183027083333332
EXTRACT: pitchwheel channel=6 pitch=-384 time=0
EXTRACT: pitchwheel channel=6 pitch=-512 time=0.016183027083333332
EXTRACT: pitchwheel channel=6 pitch=-512 time=0
EXTRACT: pitchwheel channel=6 pitch=-640 time=0.016183027083333332
EXTRACT: pitchwheel channel=6 pitch=-640 time=0
EXTRACT: pitchwheel channel=6 pitch=-768 time=0.016183027083333332
EXTRACT: pitchwheel channel=6 pitch=-768 time=0
EXTRACT: pitchwheel channel=6 pitch=-896 time=0.016183027083333332
EXTRACT: pitchwheel channel=6 pitch=-896 time=0
EXTRACT: pitchwheel channel=6 pitch=-1024 time=0.016183027083333332
EXTRACT: pitchwheel channel=6 pitch=-1024 time=0
EXTRACT: pitchwheel channel=6 pitch=-1152 time=0.016183027083333332
EXTRACT: pitchwheel channel=6 pitch=-1152 time=0
EXTRACT: pitchwheel channel=6 pitch=-1280 time=0.016183027083333332
EXTRACT: pitchwheel channel=6 pitch=-1280 time=0
EXTRACT: pitchwheel channel=6 pitch=-1408 time=0.016183027083333332
EXTRACT: pitchwheel channel=6 pitch=-1408 time=0
EXTRACT: pitchwheel channel=6 pitch=-1536 time=0.016183027083333332
EXTRACT: pitchwheel channel=6 pitch=-1536 time=0
EXTRACT: pitchwheel channel=6 pitch=-1664 time=0.016183027083333332
EXTRACT: pitchwheel channel=6 pitch=-1664 time=0
EXTRACT: pitchwheel channel=6 pitch=-1792 time=0.016183027083333332
EXTRACT: pitchwheel channel=6 pitch=-1792 time=0
EXTRACT: pitchwheel channel=6 pitch=-1920 time=0.016183027083333332
EXTRACT: pitchwheel channel=6 pitch=-1920 time=0
EXTRACT: pitchwheel channel=6 pitch=-2048 time=0.016183027083333332
EXTRACT: pitchwheel channel=6 pitch=-2048 time=0
EXTRACT: note_off channel=5 note=64 velocity=95 time=0.008928566666666667
EXTRACT: note_off channel=5 note=59 velocity=95 time=0
EXTRACT: note_off channel=5 note=55 velocity=95 time=0
EXTRACT: note_off channel=5 note=50 velocity=95 time=0
EXTRACT: note_on channel=7 note=33 velocity=95 time=0
EXTRACT: note_off channel=8 note=23 velocity=95 time=0
EXTRACT: note_on channel=8 note=23 velocity=95 time=0
EXTRACT: note_on channel=10 note=40 velocity=95 time=0
EXTRACT: note_on channel=9 note=36 velocity=95 time=0
EXTRACT: pitchwheel channel=6 pitch=-2176 time=0.007254460416666667
EXTRACT: pitchwheel channel=6 pitch=-2176 time=0
EXTRACT: pitchwheel channel=6 pitch=-2304 time=0.016183027083333332
EXTRACT: pitchwheel channel=6 pitch=-2304 time=0
EXTRACT: pitchwheel channel=6 pitch=-2432 time=0.016183027083333332
EXTRACT: pitchwheel channel=6 pitch=-2432 time=0
EXTRACT: pitchwheel channel=6 pitch=-2560 time=0.016183027083333332
EXTRACT: pitchwheel channel=6 pitch=-2560 time=0
EXTRACT: note_off channel=10 note=40 velocity=95 time=0.011160708333333333
EXTRACT: pitchwheel channel=6 pitch=-2688 time=0.00502231875
EXTRACT: pitchwheel channel=6 pitch=-2688 time=0
EXTRACT: pitchwheel channel=6 pitch=-2816 time=0.016183027083333332
EXTRACT: pitchwheel channel=6 pitch=-2816 time=0
EXTRACT: pitchwheel channel=6 pitch=-2944 time=0.016183027083333332
EXTRACT: pitchwheel channel=6 pitch=-2944 time=0
EXTRACT: pitchwheel channel=6 pitch=-3072 time=0.016183027083333332
EXTRACT: pitchwheel channel=6 pitch=-3072 time=0
EXTRACT: pitchwheel channel=6 pitch=-3200 time=0.016183027083333332
EXTRACT: pitchwheel channel=6 pitch=-3200 time=0
EXTRACT: pitchwheel channel=6 pitch=-3328 time=0.016183027083333332
EXTRACT: pitchwheel channel=6 pitch=-3328 time=0
EXTRACT: pitchwheel channel=6 pitch=-3456 time=0.016183027083333332
EXTRACT: pitchwheel channel=6 pitch=-3456 time=0
EXTRACT: pitchwheel channel=6 pitch=-3584 time=0.016183027083333332
EXTRACT: pitchwheel channel=6 pitch=-3584 time=0
EXTRACT: pitchwheel channel=6 pitch=-3712 time=0.016183027083333332
EXTRACT: pitchwheel channel=6 pitch=-3712 time=0
EXTRACT: pitchwheel channel=6 pitch=-3840 time=0.016183027083333332
EXTRACT: pitchwheel channel=6 pitch=-3840 time=0
EXTRACT: pitchwheel channel=6 pitch=-3968 time=0.016183027083333332
EXTRACT: pitchwheel channel=6 pitch=-3968 time=0
EXTRACT: pitchwheel channel=6 pitch=-4096 time=0.016183027083333332
EXTRACT: pitchwheel channel=6 pitch=-4096 time=0
EXTRACT: pitchwheel channel=6 pitch=-4224 time=0.016183027083333332
EXTRACT: pitchwheel channel=6 pitch=-4224 time=0
EXTRACT: note_on channel=2 note=46 velocity=127 time=0.0016741062500000002
EXTRACT: note_on channel=5 note=64 velocity=95 time=0
EXTRACT: note_on channel=5 note=59 velocity=95 time=0
EXTRACT: note_on channel=5 note=55 velocity=95 time=0
EXTRACT: note_on channel=5 note=50 velocity=95 time=0
EXTRACT: note_off channel=7 note=33 velocity=95 time=0
EXTRACT: note_off channel=9 note=36 velocity=95 time=0
EXTRACT: note_on channel=9 note=28 velocity=95 time=0
EXTRACT: note_on channel=9 note=39 velocity=95 time=0
EXTRACT: pitchwheel channel=6 pitch=-4352 time=0.014508920833333334
EXTRACT: pitchwheel channel=6 pitch=-4352 time=0
EXTRACT: pitchwheel channel=6 pitch=-4480 time=0.016183027083333332
EXTRACT: pitchwheel channel=6 pitch=-4480 time=0
EXTRACT: pitchwheel channel=6 pitch=-4608 time=0.016183027083333332
EXTRACT: pitchwheel channel=6 pitch=-4608 time=0
EXTRACT: pitchwheel channel=6 pitch=-4736 time=0.016183027083333332
EXTRACT: pitchwheel channel=6 pitch=-4736 time=0
EXTRACT: pitchwheel channel=6 pitch=-4864 time=0.016183027083333332
EXTRACT: pitchwheel channel=6 pitch=-4864 time=0
EXTRACT: pitchwheel channel=6 pitch=-4992 time=0.016183027083333332
EXTRACT: pitchwheel channel=6 pitch=-4992 time=0
EXTRACT: pitchwheel channel=6 pitch=-5120 time=0.016183027083333332
EXTRACT: pitchwheel channel=6 pitch=-5120 time=0
EXTRACT: pitchwheel channel=6 pitch=-5248 time=0.016183027083333332
EXTRACT: pitchwheel channel=6 pitch=-5248 time=0
EXTRACT: pitchwheel channel=6 pitch=-5376 time=0.016183027083333332
EXTRACT: pitchwheel channel=6 pitch=-5376 time=0
EXTRACT: pitchwheel channel=6 pitch=-5504 time=0.016183027083333332
EXTRACT: pitchwheel channel=6 pitch=-5504 time=0
EXTRACT: pitchwheel channel=6 pitch=-5632 time=0.016183027083333332
EXTRACT: pitchwheel channel=6 pitch=-5632 time=0
EXTRACT: pitchwheel channel=6 pitch=-5760 time=0.016183027083333332
EXTRACT: pitchwheel channel=6 pitch=-5760 time=0
EXTRACT: pitchwheel channel=6 pitch=-5888 time=0.016183027083333332
EXTRACT: pitchwheel channel=6 pitch=-5888 time=0
EXTRACT: pitchwheel channel=6 pitch=-6016 time=0.016183027083333332
EXTRACT: pitchwheel channel=6 pitch=-6016 time=0
EXTRACT: pitchwheel channel=6 pitch=-6144 time=0.016183027083333332
EXTRACT: pitchwheel channel=6 pitch=-6144 time=0
EXTRACT: pitchwheel channel=6 pitch=-6272 time=0.016183027083333332
EXTRACT: pitchwheel channel=6 pitch=-6272 time=0
EXTRACT: note_off channel=8 note=23 velocity=95 time=0.010602672916666667
EXTRACT: pitchwheel channel=6 pitch=-6400 time=0.005580354166666667
EXTRACT: pitchwheel channel=6 pitch=-6400 time=0
EXTRACT: pitchwheel channel=6 pitch=-6528 time=0.016183027083333332
EXTRACT: pitchwheel channel=6 pitch=-6528 time=0
EXTRACT: pitchwheel channel=6 pitch=-6656 time=0.016183027083333332
EXTRACT: pitchwheel channel=6 pitch=-6656 time=0
EXTRACT: pitchwheel channel=6 pitch=-6784 time=0.016183027083333332
EXTRACT: pitchwheel channel=6 pitch=-6784 time=0
EXTRACT: pitchwheel channel=6 pitch=-6912 time=0.016183027083333332
EXTRACT: pitchwheel channel=6 pitch=-6912 time=0
EXTRACT: pitchwheel channel=6 pitch=-7040 time=0.016183027083333332
EXTRACT: pitchwheel channel=6 pitch=-7040 time=0
EXTRACT: pitchwheel channel=6 pitch=-7168 time=0.016183027083333332
EXTRACT: pitchwheel channel=6 pitch=-7168 time=0
EXTRACT: pitchwheel channel=6 pitch=-7296 time=0.016183027083333332
EXTRACT: pitchwheel channel=6 pitch=-7296 time=0
EXTRACT: pitchwheel channel=6 pitch=-7424 time=0.016183027083333332
EXTRACT: pitchwheel channel=6 pitch=-7424 time=0
EXTRACT: pitchwheel channel=6 pitch=-7552 time=0.016183027083333332
EXTRACT: pitchwheel channel=6 pitch=-7552 time=0
EXTRACT: pitchwheel channel=6 pitch=-7680 time=0.016183027083333332
EXTRACT: pitchwheel channel=6 pitch=-7680 time=0
EXTRACT: pitchwheel channel=6 pitch=-7808 time=0.016183027083333332
EXTRACT: pitchwheel channel=6 pitch=-7808 time=0
EXTRACT: pitchwheel channel=6 pitch=-7936 time=0.016183027083333332
EXTRACT: pitchwheel channel=6 pitch=-7936 time=0
EXTRACT: pitchwheel channel=6 pitch=-8064 time=0.016183027083333332
EXTRACT: pitchwheel channel=6 pitch=-8064 time=0
EXTRACT: pitchwheel channel=6 pitch=-8192 time=0.016183027083333332
EXTRACT: pitchwheel channel=6 pitch=-8192 time=0
EXTRACT: pitchwheel channel=6 pitch=-8192 time=0.016183027083333332
EXTRACT: pitchwheel channel=6 pitch=-8192 time=0
EXTRACT: pitchwheel channel=6 pitch=-8192 time=0.016183027083333332
EXTRACT: pitchwheel channel=6 pitch=-8192 time=0
EXTRACT: note_off channel=2 note=46 velocity=127 time=0.0033482125000000003
EXTRACT: note_on channel=2 note=47 velocity=127 time=0
EXTRACT: pitchwheel channel=6 pitch=-8192 time=0
EXTRACT: pitchwheel channel=6 pitch=0 time=0
EXTRACT: note_off channel=6 note=53 velocity=95 time=0
EXTRACT: pitchwheel channel=6 pitch=-8192 time=0
EXTRACT: pitchwheel channel=6 pitch=0 time=0
EXTRACT: note_off channel=6 note=53 velocity=95 time=0
EXTRACT: note_on channel=7 note=33 velocity=95 time=0
EXTRACT: note_on channel=8 note=23 velocity=95 time=0
EXTRACT: note_on channel=10 note=40 velocity=95 time=0
EXTRACT: note_off channel=9 note=28 velocity=95 time=0
EXTRACT: note_off channel=9 note=39 velocity=95 time=0
EXTRACT: note_on channel=9 note=36 velocity=95 time=0
EXTRACT: note_off channel=10 note=40 velocity=95 time=0.06696425
EXTRACT: note_off channel=2 note=47 velocity=127 time=0.20089275
EXTRACT: note_off channel=5 note=64 velocity=95 time=0
EXTRACT: note_off channel=5 note=59 velocity=95 time=0
EXTRACT: note_off channel=5 note=55 velocity=95 time=0
EXTRACT: note_off channel=5 note=50 velocity=95 time=0
EXTRACT: note_off channel=8 note=23 velocity=95 time=0
EXTRACT: note_on channel=8 note=23 velocity=95 time=0
EXTRACT: note_on channel=10 note=40 velocity=95 time=0
EXTRACT: note_off channel=9 note=36 velocity=95 time=0
EXTRACT: note_on channel=9 note=36 velocity=95 time=0
EXTRACT: note_off channel=10 note=40 velocity=95 time=0.06696425
EXTRACT: note_on channel=5 note=64 velocity=95 time=0.20089275
EXTRACT: note_on channel=5 note=59 velocity=95 time=0
EXTRACT: note_on channel=5 note=55 velocity=95 time=0
EXTRACT: note_on channel=5 note=50 velocity=95 time=0
EXTRACT: note_off channel=7 note=33 velocity=95 time=0
EXTRACT: note_off channel=8 note=23 velocity=95 time=0
EXTRACT: note_off channel=9 note=36 velocity=95 time=0
EXTRACT: note_on channel=9 note=28 velocity=95 time=0
EXTRACT: note_on channel=9 note=39 velocity=95 time=0
EXTRACT: note_on channel=7 note=33 velocity=95 time=0.267857
EXTRACT: note_on channel=8 note=23 velocity=95 time=0
EXTRACT: note_on channel=10 note=40 velocity=95 time=0
EXTRACT: note_off channel=9 note=28 velocity=95 time=0
EXTRACT: note_off channel=9 note=39 velocity=95 time=0
EXTRACT: note_on channel=9 note=36 velocity=95 time=0
EXTRACT: note_off channel=10 note=40 velocity=95 time=0.06696425
EXTRACT: note_off channel=9 note=36 velocity=95 time=0.20089275
EXTRACT: note_off channel=5 note=64 velocity=95 time=0.267857
EXTRACT: note_off channel=5 note=59 velocity=95 time=0
EXTRACT: note_off channel=5 note=55 velocity=95 time=0
EXTRACT: note_off channel=5 note=50 velocity=95 time=0
EXTRACT: note_off channel=7 note=33 velocity=95 time=0
EXTRACT: note_on channel=7 note=33 velocity=95 time=0
EXTRACT: note_off channel=8 note=23 velocity=95 time=0
EXTRACT: note_on channel=8 note=23 velocity=95 time=0
EXTRACT: note_on channel=10 note=40 velocity=95 time=0
EXTRACT: note_on channel=9 note=36 velocity=95 time=0
EXTRACT: note_off channel=10 note=40 velocity=95 time=0.06696425
EXTRACT: note_on channel=5 note=64 velocity=95 time=0.20089275
EXTRACT: note_on channel=5 note=59 velocity=95 time=0
EXTRACT: note_on channel=5 note=55 velocity=95 time=0
EXTRACT: note_on channel=5 note=50 velocity=95 time=0
EXTRACT: note_off channel=7 note=33 velocity=95 time=0
EXTRACT: note_off channel=9 note=36 velocity=95 time=0
EXTRACT: note_on channel=9 note=28 velocity=95 time=0
EXTRACT: note_on channel=9 note=39 velocity=95 time=0
EXTRACT: note_off channel=8 note=23 velocity=95 time=0.267857
EXTRACT: note_on channel=7 note=33 velocity=95 time=0.267857
EXTRACT: note_on channel=8 note=23 velocity=95 time=0
EXTRACT: note_on channel=10 note=40 velocity=95 time=0
EXTRACT: note_off channel=9 note=28 velocity=95 time=0
EXTRACT: note_off channel=9 note=39 velocity=95 time=0
EXTRACT: note_on channel=9 note=36 velocity=95 time=0
EXTRACT: note_off channel=10 note=40 velocity=95 time=0.06696425
EXTRACT: note_off channel=5 note=64 velocity=95 time=0.20089275
EXTRACT: note_off channel=5 note=59 velocity=95 time=0
EXTRACT: note_off channel=5 note=55 velocity=95 time=0
EXTRACT: note_off channel=5 note=50 velocity=95 time=0
EXTRACT: note_on channel=5 note=64 velocity=95 time=0.267857
EXTRACT: note_on channel=5 note=59 velocity=95 time=0
EXTRACT: note_on channel=5 note=55 velocity=95 time=0
EXTRACT: note_on channel=5 note=50 velocity=95 time=0
EXTRACT: note_off channel=7 note=33 velocity=95 time=0
EXTRACT: note_off channel=8 note=23 velocity=95 time=0
EXTRACT: note_off channel=9 note=36 velocity=95 time=0
EXTRACT: note_on channel=9 note=28 velocity=95 time=0
EXTRACT: note_on channel=9 note=39 velocity=95 time=0
EXTRACT: note_on channel=7 note=33 velocity=95 time=0.267857
EXTRACT: note_on channel=8 note=23 velocity=95 time=0
EXTRACT: note_on channel=10 note=40 velocity=95 time=0
EXTRACT: note_off channel=9 note=28 velocity=95 time=0
EXTRACT: note_off channel=9 note=39 velocity=95 time=0
EXTRACT: note_on channel=9 note=36 velocity=95 time=0
EXTRACT: note_off channel=10 note=40 velocity=95 time=0.06696425
EXTRACT: pitchwheel channel=6 pitch=0 time=0.20089275
EXTRACT: note_on channel=6 note=53 velocity=95 time=0
EXTRACT: pitchwheel channel=6 pitch=0 time=0
EXTRACT: note_on channel=6 note=53 velocity=95 time=0
EXTRACT: note_off channel=9 note=36 velocity=95 time=0
EXTRACT: pitchwheel channel=6 pitch=-128 time=0.016183027083333332
EXTRACT: pitchwheel channel=6 pitch=-128 time=0
EXTRACT: pitchwheel channel=6 pitch=-256 time=0.016183027083333332
EXTRACT: pitchwheel channel=6 pitch=-256 time=0
EXTRACT: pitchwheel channel=6 pitch=-384 time=0.016183027083333332
EXTRACT: pitchwheel channel=6 pitch=-384 time=0
EXTRACT: pitchwheel channel=6 pitch=-512 time=0.016183027083333332
EXTRACT: pitchwheel channel=6 pitch=-512 time=0
EXTRACT: pitchwheel channel=6 pitch=-640 time=0.016183027083333332
EXTRACT: pitchwheel channel=6 pitch=-640 time=0
EXTRACT: pitchwheel channel=6 pitch=-768 time=0.016183027083333332
EXTRACT: pitchwheel channel=6 pitch=-768 time=0
EXTRACT: pitchwheel channel=6 pitch=-896 time=0.016183027083333332
EXTRACT: pitchwheel channel=6 pitch=-896 time=0
EXTRACT: pitchwheel channel=6 pitch=-1024 time=0.016183027083333332
EXTRACT: pitchwheel channel=6 pitch=-1024 time=0
EXTRACT: pitchwheel channel=6 pitch=-1152 time=0.016183027083333332
EXTRACT: pitchwheel channel=6 pitch=-1152 time=0
EXTRACT: pitchwheel channel=6 pitch=-1280 time=0.016183027083333332
EXTRACT: pitchwheel channel=6 pitch=-1280 time=0
EXTRACT: pitchwheel channel=6 pitch=-1408 time=0.016183027083333332
EXTRACT: pitchwheel channel=6 pitch=-1408 time=0
EXTRACT: pitchwheel channel=6 pitch=-1536 time=0.016183027083333332
EXTRACT: pitchwheel channel=6 pitch=-1536 time=0
EXTRACT: pitchwheel channel=6 pitch=-1664 time=0.016183027083333332
EXTRACT: pitchwheel channel=6 pitch=-1664 time=0
EXTRACT: pitchwheel channel=6 pitch=-1792 time=0.016183027083333332
EXTRACT: pitchwheel channel=6 pitch=-1792 time=0
EXTRACT: pitchwheel channel=6 pitch=-1920 time=0.016183027083333332
EXTRACT: pitchwheel channel=6 pitch=-1920 time=0
EXTRACT: pitchwheel channel=6 pitch=-2048 time=0.016183027083333332
EXTRACT: pitchwheel channel=6 pitch=-2048 time=0
EXTRACT: note_off channel=5 note=64 velocity=95 time=0.008928566666666667
EXTRACT: note_off channel=5 note=59 velocity=95 time=0
EXTRACT: note_off channel=5 note=55 velocity=95 time=0
EXTRACT: note_off channel=5 note=50 velocity=95 time=0
EXTRACT: note_off channel=7 note=33 velocity=95 time=0
EXTRACT: note_on channel=7 note=33 velocity=95 time=0
EXTRACT: note_off channel=8 note=23 velocity=95 time=0
EXTRACT: note_on channel=8 note=23 velocity=95 time=0
EXTRACT: note_on channel=10 note=40 velocity=95 time=0
EXTRACT: note_on channel=9 note=36 velocity=95 time=0
EXTRACT: pitchwheel channel=6 pitch=-2176 time=0.007254460416666667
EXTRACT: pitchwheel channel=6 pitch=-2176 time=0
EXTRACT: pitchwheel channel=6 pitch=-2304 time=0.016183027083333332
EXTRACT: pitchwheel channel=6 pitch=-2304 time=0
EXTRACT: pitchwheel channel=6 pitch=-2432 time=0.016183027083333332
EXTRACT: pitchwheel channel=6 pitch=-2432 time=0
EXTRACT: pitchwheel channel=6 pitch=-2560 time=0.016183027083333332
EXTRACT: pitchwheel channel=6 pitch=-2560 time=0
EXTRACT: note_off channel=10 note=40 velocity=95 time=0.011160708333333333
EXTRACT: pitchwheel channel=6 pitch=-2688 time=0.00502231875
EXTRACT: pitchwheel channel=6 pitch=-2688 time=0
EXTRACT: pitchwheel channel=6 pitch=-2816 time=0.016183027083333332
EXTRACT: pitchwheel channel=6 pitch=-2816 time=0
EXTRACT: pitchwheel channel=6 pitch=-2944 time=0.016183027083333332
EXTRACT: pitchwheel channel=6 pitch=-2944 time=0
EXTRACT: pitchwheel channel=6 pitch=-3072 time=0.016183027083333332
EXTRACT: pitchwheel channel=6 pitch=-3072 time=0
EXTRACT: pitchwheel channel=6 pitch=-3200 time=0.016183027083333332
EXTRACT: pitchwheel channel=6 pitch=-3200 time=0
EXTRACT: pitchwheel channel=6 pitch=-3328 time=0.016183027083333332
EXTRACT: pitchwheel channel=6 pitch=-3328 time=0
EXTRACT: pitchwheel channel=6 pitch=-3456 time=0.016183027083333332
EXTRACT: pitchwheel channel=6 pitch=-3456 time=0
EXTRACT: pitchwheel channel=6 pitch=-3584 time=0.016183027083333332
EXTRACT: pitchwheel channel=6 pitch=-3584 time=0
EXTRACT: pitchwheel channel=6 pitch=-3712 time=0.016183027083333332
EXTRACT: pitchwheel channel=6 pitch=-3712 time=0
EXTRACT: pitchwheel channel=6 pitch=-3840 time=0.016183027083333332
EXTRACT: pitchwheel channel=6 pitch=-3840 time=0
EXTRACT: pitchwheel channel=6 pitch=-3968 time=0.016183027083333332
EXTRACT: pitchwheel channel=6 pitch=-3968 time=0
EXTRACT: pitchwheel channel=6 pitch=-4096 time=0.016183027083333332
EXTRACT: pitchwheel channel=6 pitch=-4096 time=0
EXTRACT: pitchwheel channel=6 pitch=-4224 time=0.016183027083333332
EXTRACT: pitchwheel channel=6 pitch=-4224 time=0
EXTRACT: note_on channel=2 note=46 velocity=127 time=0.0016741062500000002
EXTRACT: note_on channel=5 note=64 velocity=95 time=0
EXTRACT: note_on channel=5 note=59 velocity=95 time=0
EXTRACT: note_on channel=5 note=55 velocity=95 time=0
EXTRACT: note_on channel=5 note=50 velocity=95 time=0
EXTRACT: note_off channel=7 note=33 velocity=95 time=0
EXTRACT: note_off channel=9 note=36 velocity=95 time=0
EXTRACT: note_on channel=9 note=28 velocity=95 time=0
EXTRACT: note_on channel=9 note=39 velocity=95 time=0
EXTRACT: pitchwheel channel=6 pitch=-4352 time=0.014508920833333334
EXTRACT: pitchwheel channel=6 pitch=-4352 time=0
EXTRACT: pitchwheel channel=6 pitch=-4480 time=0.016183027083333332
EXTRACT: pitchwheel channel=6 pitch=-4480 time=0
EXTRACT: pitchwheel channel=6 pitch=-4608 time=0.016183027083333332
EXTRACT: pitchwheel channel=6 pitch=-4608 time=0
EXTRACT: pitchwheel channel=6 pitch=-4736 time=0.016183027083333332
EXTRACT: pitchwheel channel=6 pitch=-4736 time=0
EXTRACT: pitchwheel channel=6 pitch=-4864 time=0.016183027083333332
EXTRACT: pitchwheel channel=6 pitch=-4864 time=0
EXTRACT: pitchwheel channel=6 pitch=-4992 time=0.016183027083333332
EXTRACT: pitchwheel channel=6 pitch=-4992 time=0
EXTRACT: pitchwheel channel=6 pitch=-5120 time=0.016183027083333332
EXTRACT: pitchwheel channel=6 pitch=-5120 time=0
EXTRACT: pitchwheel channel=6 pitch=-5248 time=0.016183027083333332
EXTRACT: pitchwheel channel=6 pitch=-5248 time=0
EXTRACT: pitchwheel channel=6 pitch=-5376 time=0.016183027083333332
EXTRACT: pitchwheel channel=6 pitch=-5376 time=0
EXTRACT: pitchwheel channel=6 pitch=-5504 time=0.016183027083333332
EXTRACT: pitchwheel channel=6 pitch=-5504 time=0
EXTRACT: pitchwheel channel=6 pitch=-5632 time=0.016183027083333332
EXTRACT: pitchwheel channel=6 pitch=-5632 time=0
EXTRACT: pitchwheel channel=6 pitch=-5760 time=0.016183027083333332
EXTRACT: pitchwheel channel=6 pitch=-5760 time=0
EXTRACT: pitchwheel channel=6 pitch=-5888 time=0.016183027083333332
EXTRACT: pitchwheel channel=6 pitch=-5888 time=0
EXTRACT: pitchwheel channel=6 pitch=-6016 time=0.016183027083333332
EXTRACT: pitchwheel channel=6 pitch=-6016 time=0
EXTRACT: pitchwheel channel=6 pitch=-6144 time=0.016183027083333332
EXTRACT: pitchwheel channel=6 pitch=-6144 time=0
EXTRACT: pitchwheel channel=6 pitch=-6272 time=0.016183027083333332
EXTRACT: pitchwheel channel=6 pitch=-6272 time=0
EXTRACT: note_off channel=8 note=23 velocity=95 time=0.010602672916666667
EXTRACT: pitchwheel channel=6 pitch=-6400 time=0.005580354166666667
EXTRACT: pitchwheel channel=6 pitch=-6400 time=0
EXTRACT: pitchwheel channel=6 pitch=-6528 time=0.016183027083333332
EXTRACT: pitchwheel channel=6 pitch=-6528 time=0
EXTRACT: pitchwheel channel=6 pitch=-6656 time=0.016183027083333332
EXTRACT: pitchwheel channel=6 pitch=-6656 time=0
EXTRACT: pitchwheel channel=6 pitch=-6784 time=0.016183027083333332
EXTRACT: pitchwheel channel=6 pitch=-6784 time=0
EXTRACT: pitchwheel channel=6 pitch=-6912 time=0.016183027083333332
EXTRACT: pitchwheel channel=6 pitch=-6912 time=0
EXTRACT: pitchwheel channel=6 pitch=-7040 time=0.016183027083333332
EXTRACT: pitchwheel channel=6 pitch=-7040 time=0
EXTRACT: pitchwheel channel=6 pitch=-7168 time=0.016183027083333332
EXTRACT: pitchwheel channel=6 pitch=-7168 time=0
EXTRACT: pitchwheel channel=6 pitch=-7296 time=0.016183027083333332
EXTRACT: pitchwheel channel=6 pitch=-7296 time=0
EXTRACT: pitchwheel channel=6 pitch=-7424 time=0.016183027083333332
EXTRACT: pitchwheel channel=6 pitch=-7424 time=0
EXTRACT: pitchwheel channel=6 pitch=-7552 time=0.016183027083333332
EXTRACT: pitchwheel channel=6 pitch=-7552 time=0
EXTRACT: pitchwheel channel=6 pitch=-7680 time=0.016183027083333332
EXTRACT: pitchwheel channel=6 pitch=-7680 time=0
EXTRACT: pitchwheel channel=6 pitch=-7808 time=0.016183027083333332
EXTRACT: pitchwheel channel=6 pitch=-7808 time=0
EXTRACT: pitchwheel channel=6 pitch=-7936 time=0.016183027083333332
EXTRACT: pitchwheel channel=6 pitch=-7936 time=0
EXTRACT: pitchwheel channel=6 pitch=-8064 time=0.016183027083333332
EXTRACT: pitchwheel channel=6 pitch=-8064 time=0
EXTRACT: pitchwheel channel=6 pitch=-8192 time=0.016183027083333332
EXTRACT: pitchwheel channel=6 pitch=-8192 time=0
EXTRACT: pitchwheel channel=6 pitch=-8192 time=0.016183027083333332
EXTRACT: pitchwheel channel=6 pitch=-8192 time=0
EXTRACT: pitchwheel channel=6 pitch=-8192 time=0.016183027083333332
EXTRACT: pitchwheel channel=6 pitch=-8192 time=0
EXTRACT: note_on channel=1 note=71 velocity=95 time=0.0033482125000000003
EXTRACT: note_on channel=1 note=66 velocity=95 time=0
EXTRACT: note_on channel=1 note=63 velocity=95 time=0
EXTRACT: note_on channel=1 note=59 velocity=95 time=0
EXTRACT: note_on channel=1 note=47 velocity=95 time=0
EXTRACT: note_off channel=2 note=46 velocity=127 time=0
EXTRACT: note_on channel=2 note=47 velocity=127 time=0
EXTRACT: pitchwheel channel=3 pitch=0 time=0
EXTRACT: note_on channel=3 note=70 velocity=95 time=0
EXTRACT: pitchwheel channel=6 pitch=-8192 time=0
EXTRACT: pitchwheel channel=6 pitch=0 time=0
EXTRACT: note_off channel=6 note=53 velocity=95 time=0
EXTRACT: pitchwheel channel=6 pitch=-8192 time=0
EXTRACT: pitchwheel channel=6 pitch=0 time=0
EXTRACT: note_off channel=6 note=53 velocity=95 time=0
EXTRACT: note_on channel=7 note=33 velocity=95 time=0
EXTRACT: note_on channel=8 note=23 velocity=95 time=0
EXTRACT: note_on channel=10 note=40 velocity=95 time=0
EXTRACT: note_off channel=9 note=28 velocity=95 time=0
EXTRACT: note_off channel=9 note=39 velocity=95 time=0
EXTRACT: note_on channel=9 note=36 velocity=95 time=0
EXTRACT: pitchwheel channel=4 pitch=0 time=0.033482125
EXTRACT: note_on channel=4 note=70 velocity=95 time=0
EXTRACT: pitchwheel channel=3 pitch=-128 time=0.0027901770833333333
EXTRACT: note_off channel=10 note=40 velocity=95 time=0.030691947916666667
EXTRACT: pitchwheel channel=4 pitch=-128 time=0.0027901770833333333
EXTRACT: pitchwheel channel=3 pitch=-256 time=0.0027901770833333333
EXTRACT: pitchwheel channel=4 pitch=-256 time=0.033482125
EXTRACT: pitchwheel channel=3 pitch=-384 time=0.0027901770833333333
EXTRACT: pitchwheel channel=4 pitch=-384 time=0.033482125
EXTRACT: pitchwheel channel=3 pitch=-512 time=0.0027901770833333333
EXTRACT: pitchwheel channel=4 pitch=-512 time=0.033482125
EXTRACT: pitchwheel channel=3 pitch=-640 time=0.0027901770833333333
EXTRACT: pitchwheel channel=4 pitch=-640 time=0.033482125
EXTRACT: pitchwheel channel=3 pitch=-768 time=0.0027901770833333333
EXTRACT: pitchwheel channel=4 pitch=-768 time=0.033482125
EXTRACT: pitchwheel channel=3 pitch=-896 time=0.0027901770833333333
EXTRACT: note_off channel=2 note=47 velocity=127 time=0.013950885416666668
EXTRACT: note_off channel=5 note=64 velocity=95 time=0
EXTRACT: note_off channel=5 note=59 velocity=95 time=0
EXTRACT: note_off channel=5 note=55 velocity=95 time=0
EXTRACT: note_off channel=5 note=50 velocity=95 time=0
EXTRACT: pitchwheel channel=4 pitch=-896 time=0.019531239583333335
EXTRACT: pitchwheel channel=3 pitch=-1024 time=0.0027901770833333333
EXTRACT: pitchwheel channel=4 pitch=-1024 time=0.033482125
EXTRACT: pitchwheel channel=3 pitch=-1152 time=0.0027901770833333333
EXTRACT: pitchwheel channel=4 pitch=-1152 time=0.033482125
EXTRACT: pitchwheel channel=3 pitch=-1280 time=0.0027901770833333333
EXTRACT: pitchwheel channel=4 pitch=-1280 time=0.033482125
EXTRACT: pitchwheel channel=3 pitch=-1408 time=0.0027901770833333333
EXTRACT: pitchwheel channel=3 pitch=-1408 time=0.0027901770833333333
EXTRACT: pitchwheel channel=3 pitch=0 time=0
EXTRACT: note_off channel=3 note=70 velocity=95 time=0
EXTRACT: pitchwheel channel=3 pitch=0 time=0
EXTRACT: note_on channel=3 note=68 velocity=95 time=0
EXTRACT: pitchwheel channel=4 pitch=-1408 time=0.030691947916666667
EXTRACT: pitchwheel channel=4 pitch=-1408 time=0.0027901770833333333
EXTRACT: pitchwheel channel=4 pitch=0 time=0
EXTRACT: note_off channel=4 note=70 velocity=95 time=0
EXTRACT: pitchwheel channel=4 pitch=0 time=0
EXTRACT: note_on channel=4 note=68 velocity=95 time=0
EXTRACT: pitchwheel channel=3 pitch=-128 time=0.020089275
EXTRACT: pitchwheel channel=4 pitch=-128 time=0.033482125
EXTRACT: pitchwheel channel=3 pitch=-256 time=0.020089275
EXTRACT: note_on channel=5 note=64 velocity=95 time=0.026785700000000003
EXTRACT: note_on channel=5 note=59 velocity=95 time=0
EXTRACT: note_on channel=5 note=55 velocity=95 time=0
EXTRACT: note_on channel=5 note=50 velocity=95 time=0
EXTRACT: note_off channel=7 note=33 velocity=95 time=0
EXTRACT: note_off channel=8 note=23 velocity=95 time=0
EXTRACT: note_off channel=9 note=36 velocity=95 time=0
EXTRACT: note_on channel=9 note=28 velocity=95 time=0
EXTRACT: note_on channel=9 note=39 velocity=95 time=0
EXTRACT: pitchwheel channel=4 pitch=-256 time=0.006696425000000001
EXTRACT: pitchwheel channel=3 pitch=-384 time=0.020089275
EXTRACT: pitchwheel channel=4 pitch=-384 time=0.033482125
EXTRACT: pitchwheel channel=3 pitch=-512 time=0.020089275
EXTRACT: pitchwheel channel=4 pitch=-512 time=0.033482125
EXTRACT: pitchwheel channel=3 pitch=-640 time=0.020089275
EXTRACT: pitchwheel channel=3 pitch=-640 time=0
EXTRACT: pitchwheel channel=3 pitch=0 time=0
EXTRACT: note_off channel=3 note=68 velocity=95 time=0
EXTRACT: note_on channel=3 note=67 velocity=95 time=0
EXTRACT: pitchwheel channel=4 pitch=-640 time=0.033482125
EXTRACT: pitchwheel channel=4 pitch=-640 time=0
EXTRACT: pitchwheel channel=4 pitch=0 time=0
EXTRACT: note_off channel=4 note=68 velocity=95 time=0
EXTRACT: note_on channel=4 note=67 velocity=95 time=0
EXTRACT: note_off channel=3 note=67 velocity=95 time=0.100446375
EXTRACT: pitchwheel channel=3 pitch=0 time=0
EXTRACT: note_on channel=3 note=67 velocity=95 time=0
EXTRACT: note_on channel=7 note=33 velocity=95 time=0
EXTRACT: note_on channel=8 note=23 velocity=95 time=0
EXTRACT: note_on channel=10 note=40 velocity=95 time=0
EXTRACT: note_off channel=9 note=28 velocity=95 time=0
EXTRACT: note_off channel=9 note=39 velocity=95 time=0
EXTRACT: note_on channel=9 note=36 velocity=95 time=0
EXTRACT: note_off channel=4 note=67 velocity=95 time=0.033482125
EXTRACT: pitchwheel channel=4 pitch=0 time=0
EXTRACT: note_on channel=4 note=67 velocity=95 time=0
EXTRACT: pitchwheel channel=3 pitch=-128 time=0.020089275
EXTRACT: note_off channel=10 note=40 velocity=95 time=0.013392850000000001
EXTRACT: pitchwheel channel=4 pitch=-128 time=0.020089275
EXTRACT: pitchwheel channel=3 pitch=-256 time=0.020089275
EXTRACT: pitchwheel channel=4 pitch=-256 time=0.033482125
EXTRACT: pitchwheel channel=3 pitch=-384 time=0.020089275
EXTRACT: pitchwheel channel=4 pitch=-384 time=0.033482125
EXTRACT: pitchwheel channel=3 pitch=-512 time=0.020089275
EXTRACT: pitchwheel channel=4 pitch=-512 time=0.033482125
EXTRACT: note_off channel=1 note=66 velocity=95 time=0.020089275
EXTRACT: note_off channel=1 note=59 velocity=95 time=0
EXTRACT: note_off channel=1 note=47 velocity=95 time=0
EXTRACT: note_on channel=1 note=70 velocity=95 time=0
EXTRACT: note_on channel=1 note=58 velocity=95 time=0
EXTRACT: note_on channel=1 note=46 velocity=95 time=0
EXTRACT: pitchwheel channel=3 pitch=-640 time=0
EXTRACT: pitchwheel channel=3 pitch=-640 time=0
EXTRACT: pitchwheel channel=3 pitch=0 time=0
EXTRACT: note_off channel=3 note=67 velocity=95 time=0
EXTRACT: pitchwheel channel=3 pitch=256 time=0
EXTRACT: note_on channel=3 note=67 velocity=95 time=0
EXTRACT: note_off channel=9 note=36 velocity=95 time=0
EXTRACT: pitchwheel channel=4 pitch=-640 time=0.033482125
EXTRACT: pitchwheel channel=4 pitch=-640 time=0
EXTRACT: pitchwheel channel=4 pitch=0 time=0
EXTRACT: note_off channel=4 note=67 velocity=95 time=0
EXTRACT: pitchwheel channel=4 pitch=256 time=0
EXTRACT: note_on channel=4 note=67 velocity=95 time=0
EXTRACT: pitchwheel channel=3 pitch=128 time=0.100446375
EXTRACT: pitchwheel channel=4 pitch=128 time=0.033482125
EXTRACT: pitchwheel channel=3 pitch=0 time=0.100446375
EXTRACT: pitchwheel channel=3 pitch=0 time=0
EXTRACT: pitchwheel channel=3 pitch=0 time=0
EXTRACT: note_off channel=3 note=67 velocity=95 time=0
EXTRACT: pitchwheel channel=3 pitch=0 time=0
EXTRACT: note_on channel=3 note=68 velocity=95 time=0
EXTRACT: note_off channel=5 note=64 velocity=95 time=0
EXTRACT: note_off channel=5 note=59 velocity=95 time=0
EXTRACT: note_off channel=5 note=55 velocity=95 time=0
EXTRACT: note_off channel=5 note=50 velocity=95 time=0
EXTRACT: note_off channel=7 note=33 velocity=95 time=0
EXTRACT: note_on channel=7 note=33 velocity=95 time=0
EXTRACT: note_off channel=8 note=23 velocity=95 time=0
EXTRACT: note_on channel=8 note=23 velocity=95 time=0
EXTRACT: note_on channel=10 note=40 velocity=95 time=0
EXTRACT: note_on channel=9 note=36 velocity=95 time=0
EXTRACT: pitchwheel channel=4 pitch=0 time=0.033482125
EXTRACT: pitchwheel channel=4 pitch=0 time=0
EXTRACT: pitchwheel channel=4 pitch=0 time=0
EXTRACT: note_off channel=4 note=67 velocity=95 time=0
EXTRACT: pitchwheel channel=4 pitch=0 time=0
EXTRACT: note_on channel=4 note=68 velocity=95 time=0
EXTRACT: pitchwheel channel=3 pitch=-128 time=0.020089275
EXTRACT: note_off channel=10 note=40 velocity=95 time=0.013392850000000001
EXTRACT: pitchwheel channel=4 pitch=-128 time=0.020089275
EXTRACT: pitchwheel channel=3 pitch=-256 time=0.020089275
EXTRACT: pitchwheel channel=4 pitch=-256 time=0.033482125
EXTRACT: pitchwheel channel=3 pitch=-384 time=0.020089275
EXTRACT: pitchwheel channel=4 pitch=-384 time=0.033482125
EXTRACT: pitchwheel channel=3 pitch=-512 time=0.020089275
EXTRACT: pitchwheel channel=4 pitch=-512 time=0.033482125
EXTRACT: pitchwheel channel=3 pitch=-640 time=0.020089275
EXTRACT: pitchwheel channel=3 pitch=-640 time=0
EXTRACT: pitchwheel channel=3 pitch=0 time=0
EXTRACT: note_off channel=3 note=68 velocity=95 time=0
EXTRACT: pitchwheel channel=3 pitch=0 time=0
EXTRACT: note_on channel=3 note=68 velocity=95 time=0
EXTRACT: note_on channel=5 note=64 velocity=95 time=0
EXTRACT: note_on channel=5 note=59 velocity=95 time=0
EXTRACT: note_on channel=5 note=55 velocity=95 time=0
EXTRACT: note_on channel=5 note=50 velocity=95 time=0
EXTRACT: note_off channel=7 note=33 velocity=95 time=0
EXTRACT: note_off channel=9 note=36 velocity=95 time=0
EXTRACT: note_on channel=9 note=28 velocity=95 time=0
EXTRACT: note_on channel=9 note=39 velocity=95 time=0
EXTRACT: pitchwheel channel=3 pitch=-128 time=0.021205345833333333
EXTRACT: pitchwheel channel=4 pitch=-640 time=0.012276779166666666
EXTRACT: pitchwheel channel=4 pitch=-640 time=0
EXTRACT: pitchwheel channel=4 pitch=0 time=0
EXTRACT: note_off channel=4 note=68 velocity=95 time=0
EXTRACT: pitchwheel channel=4 pitch=0 time=0
EXTRACT: note_on channel=4 note=68 velocity=95 time=0
EXTRACT: pitchwheel channel=3 pitch=-256 time=0.008928566666666667
EXTRACT: pitchwheel channel=4 pitch=-128 time=0.012276779166666666
EXTRACT: pitchwheel channel=3 pitch=-384 time=0.008928566666666667
EXTRACT: pitchwheel channel=4 pitch=-256 time=0.012276779166666666
EXTRACT: pitchwheel channel=3 pitch=-512 time=0.008928566666666667
EXTRACT: pitchwheel channel=4 pitch=-384 time=0.012276779166666666
EXTRACT: pitchwheel channel=3 pitch=-640 time=0.008928566666666667
EXTRACT: pitchwheel channel=4 pitch=-512 time=0.012276779166666666
EXTRACT: pitchwheel channel=3 pitch=-768 time=0.008928566666666667
EXTRACT: pitchwheel channel=4 pitch=-640 time=0.012276779166666666
EXTRACT: pitchwheel channel=3 pitch=-896 time=0.008928566666666667
EXTRACT: pitchwheel channel=4 pitch=-768 time=0.012276779166666666
EXTRACT: pitchwheel channel=3 pitch=-1024 time=0.008928566666666667
EXTRACT: pitchwheel channel=4 pitch=-896 time=0.012276779166666666
EXTRACT: pitchwheel channel=3 pitch=-1152 time=0.008928566666666667
EXTRACT: pitchwheel channel=4 pitch=-1024 time=0.012276779166666666
EXTRACT: pitchwheel channel=3 pitch=-1280 time=0.008928566666666667
EXTRACT: pitchwheel channel=4 pitch=-1152 time=0.012276779166666666
EXTRACT: pitchwheel channel=3 pitch=-1408 time=0.008928566666666667
EXTRACT: pitchwheel channel=3 pitch=-1408 time=0.0011160708333333334
EXTRACT: pitchwheel channel=3 pitch=0 time=0
EXTRACT: note_off channel=3 note=68 velocity=95 time=0
EXTRACT: pitchwheel channel=4 pitch=-1280 time=0.011160708333333333
EXTRACT: pitchwheel channel=4 pitch=-1408 time=0.021205345833333333
EXTRACT: pitchwheel channel=3 pitch=0 time=0.0011160708333333334
EXTRACT: note_on channel=3 note=66 velocity=95 time=0
EXTRACT: pitchwheel channel=4 pitch=-1408 time=0
EXTRACT: pitchwheel channel=4 pitch=0 time=0
EXTRACT: note_off channel=4 note=68 velocity=95 time=0
EXTRACT: note_off channel=8 note=23 velocity=95 time=0
EXTRACT: pitchwheel channel=4 pitch=0 time=0.033482125
EXTRACT: note_on channel=4 note=66 velocity=95 time=0
EXTRACT: pitchwheel channel=3 pitch=128 time=0.033482125
EXTRACT: pitchwheel channel=4 pitch=128 time=0.033482125
EXTRACT: pitchwheel channel=3 pitch=256 time=0.033482125
EXTRACT: pitchwheel channel=3 pitch=256 time=0
EXTRACT: pitchwheel channel=3 pitch=0 time=0
EXTRACT: note_off channel=3 note=66 velocity=95 time=0
EXTRACT: pitchwheel channel=3 pitch=0 time=0
EXTRACT: note_on channel=3 note=66 velocity=95 time=0
EXTRACT: pitchwheel channel=4 pitch=256 time=0.033482125
EXTRACT: pitchwheel channel=4 pitch=256 time=0
EXTRACT: pitchwheel channel=4 pitch=0 time=0
EXTRACT: note_off channel=4 note=66 velocity=95 time=0
EXTRACT: pitchwheel channel=4 pitch=0 time=0
EXTRACT: note_on channel=4 note=66 velocity=95 time=0
EXTRACT: pitchwheel channel=3 pitch=128 time=0.033482125
EXTRACT: pitchwheel channel=4 pitch=128 time=0.033482125
EXTRACT: note_off channel=1 note=71 velocity=95 time=0.033482125
EXTRACT: note_off channel=1 note=63 velocity=95 time=0
EXTRACT: note_off channel=1 note=70 velocity=95 time=0
EXTRACT: note_off channel=1 note=58 velocity=95 time=0
EXTRACT: note_off channel=1 note=46 velocity=95 time=0
EXTRACT: note_on channel=1 note=71 velocity=95 time=0
EXTRACT: note_on channel=1 note=66 velocity=95 time=0
EXTRACT: note_on channel=1 note=63 velocity=95 time=0
EXTRACT: note_on channel=1 note=59 velocity=95 time=0
EXTRACT: note_on channel=1 note=47 velocity=95 time=0
EXTRACT: pitchwheel channel=3 pitch=256 time=0
EXTRACT: pitchwheel channel=3 pitch=256 time=0
EXTRACT: pitchwheel channel=3 pitch=0 time=0
EXTRACT: note_off channel=3 note=66 velocity=95 time=0
EXTRACT: pitchwheel channel=3 pitch=1024 time=0
EXTRACT: note_on channel=3 note=66 velocity=95 time=0
EXTRACT: note_on channel=7 note=33 velocity=95 time=0
EXTRACT: note_on channel=8 note=23 velocity=95 time=0
EXTRACT: note_on channel=10 note=40 velocity=95 time=0
EXTRACT: note_off channel=9 note=28 velocity=95 time=0
EXTRACT: note_off channel=9 note=39 velocity=95 time=0
EXTRACT: note_on channel=9 note=36 velocity=95 time=0
EXTRACT: pitchwheel channel=4 pitch=256 time=0.033482125
EXTRACT: pitchwheel channel=4 pitch=256 time=0
EXTRACT: pitchwheel channel=4 pitch=0 time=0
EXTRACT: note_off channel=4 note=66 velocity=95 time=0
EXTRACT: pitchwheel channel=4 pitch=1024 time=0
EXTRACT: note_on channel=4 note=66 velocity=95 time=0
EXTRACT: pitchwheel channel=3 pitch=896 time=0.005580354166666667
EXTRACT: note_off channel=10 note=40 velocity=95 time=0.027901770833333336
EXTRACT: pitchwheel channel=4 pitch=896 time=0.005580354166666667
EXTRACT: pitchwheel channel=3 pitch=768 time=0.005580354166666667
EXTRACT: pitchwheel channel=4 pitch=768 time=0.033482125
EXTRACT: pitchwheel channel=3 pitch=640 time=0.005580354166666667
EXTRACT: pitchwheel channel=4 pitch=640 time=0.033482125
EXTRACT: pitchwheel channel=3 pitch=512 time=0.005580354166666667
EXTRACT: pitchwheel channel=4 pitch=512 time=0.033482125
EXTRACT: pitchwheel channel=3 pitch=384 time=0.005580354166666667
EXTRACT: pitchwheel channel=4 pitch=384 time=0.033482125
EXTRACT: pitchwheel channel=3 pitch=256 time=0.005580354166666667
EXTRACT: pitchwheel channel=3 pitch=256 time=0
EXTRACT: pitchwheel channel=3 pitch=0 time=0
EXTRACT: note_off channel=3 note=66 velocity=95 time=0
EXTRACT: pitchwheel channel=3 pitch=1024 time=0.033482125
EXTRACT: note_on channel=3 note=66 velocity=95 time=0
EXTRACT: pitchwheel channel=4 pitch=256 time=0
EXTRACT: pitchwheel channel=4 pitch=256 time=0
EXTRACT: pitchwheel channel=4 pitch=0 time=0
EXTRACT: note_off channel=4 note=66 velocity=95 time=0
EXTRACT: note_off channel=5 note=64 velocity=95 time=0
EXTRACT: note_off channel=5 note=59 velocity=95 time=0
EXTRACT: note_off channel=5 note=55 velocity=95 time=0
EXTRACT: note_off channel=5 note=50 velocity=95 time=0
EXTRACT: pitchwheel channel=3 pitch=896 time=0.022321416666666666
EXTRACT: pitchwheel channel=4 pitch=1024 time=0.011160708333333333
EXTRACT: note_on channel=4 note=66 velocity=95 time=0
EXTRACT: pitchwheel channel=3 pitch=768 time=0.011160708333333333
EXTRACT: pitchwheel channel=4 pitch=896 time=0.011160708333333333
EXTRACT: pitchwheel channel=3 pitch=640 time=0.011160708333333333
EXTRACT: pitchwheel channel=4 pitch=768 time=0.011160708333333333
EXTRACT: pitchwheel channel=3 pitch=512 time=0.011160708333333333
EXTRACT: pitchwheel channel=4 pitch=640 time=0.011160708333333333
EXTRACT: pitchwheel channel=3 pitch=384 time=0.011160708333333333
EXTRACT: pitchwheel channel=4 pitch=512 time=0.011160708333333333
EXTRACT: pitchwheel channel=3 pitch=256 time=0.011160708333333333
EXTRACT: pitchwheel channel=3 pitch=256 time=0
EXTRACT: pitchwheel channel=3 pitch=0 time=0
EXTRACT: note_off channel=3 note=66 velocity=95 time=0
EXTRACT: pitchwheel channel=3 pitch=256 time=0
EXTRACT: note_on channel=3 note=67 velocity=95 time=0
EXTRACT: pitchwheel channel=4 pitch=384 time=0.011160708333333333
EXTRACT: pitchwheel channel=4 pitch=256 time=0.022321416666666666
EXTRACT: pitchwheel channel=4 pitch=256 time=0
EXTRACT: pitchwheel channel=4 pitch=0 time=0
EXTRACT: note_off channel=4 note=66 velocity=95 time=0
EXTRACT: pitchwheel channel=4 pitch=256 time=0
EXTRACT: note_on channel=4 note=67 velocity=95 time=0
EXTRACT: pitchwheel channel=3 pitch=128 time=0.100446375
EXTRACT: note_on channel=5 note=64 velocity=95 time=0
EXTRACT: note_on channel=5 note=59 velocity=95 time=0
EXTRACT: note_on channel=5 note=55 velocity=95 time=0
EXTRACT: note_on channel=5 note=50 velocity=95 time=0
EXTRACT: note_off channel=7 note=33 velocity=95 time=0
EXTRACT: note_off channel=8 note=23 velocity=95 time=0
EXTRACT: note_off channel=9 note=36 velocity=95 time=0
EXTRACT: note_on channel=9 note=28 velocity=95 time=0
EXTRACT: note_on channel=9 note=39 velocity=95 time=0
EXTRACT: pitchwheel channel=4 pitch=128 time=0.033482125
EXTRACT: pitchwheel channel=3 pitch=0 time=0.100446375
EXTRACT: pitchwheel channel=3 pitch=0 time=0
EXTRACT: pitchwheel channel=3 pitch=0 time=0
EXTRACT: note_off channel=3 note=67 velocity=95 time=0
EXTRACT: pitchwheel channel=3 pitch=0 time=0
EXTRACT: note_on channel=3 note=66 velocity=95 time=0
EXTRACT: note_on channel=7 note=33 velocity=95 time=0
EXTRACT: note_on channel=8 note=23 velocity=95 time=0
EXTRACT: note_on channel=10 note=40 velocity=95 time=0
EXTRACT: note_off channel=9 note=28 velocity=95 time=0
EXTRACT: note_off channel=9 note=39 velocity=95 time=0
EXTRACT: note_on channel=9 note=36 velocity=95 time=0
EXTRACT: pitchwheel channel=3 pitch=128 time=0.026785700000000003
EXTRACT: pitchwheel channel=4 pitch=0 time=0.006696425000000001
EXTRACT: pitchwheel channel=4 pitch=0 time=0
EXTRACT: pitchwheel channel=4 pitch=0 time=0
EXTRACT: note_off channel=4 note=67 velocity=95 time=0
EXTRACT: pitchwheel channel=4 pitch=0 time=0
EXTRACT: note_on channel=4 note=66 velocity=95 time=0
EXTRACT: pitchwheel channel=3 pitch=256 time=0.020089275
EXTRACT: pitchwheel channel=4 pitch=128 time=0.006696425000000001
EXTRACT: note_off channel=10 note=40 velocity=95 time=0.006696425000000001
EXTRACT: pitchwheel channel=3 pitch=384 time=0.013392850000000001
EXTRACT: pitchwheel channel=4 pitch=256 time=0.006696425000000001
EXTRACT: pitchwheel channel=3 pitch=512 time=0.020089275
EXTRACT: pitchwheel channel=4 pitch=384 time=0.006696425000000001
EXTRACT: pitchwheel channel=3 pitch=640 time=0.020089275
EXTRACT: pitchwheel channel=3 pitch=640 time=0
EXTRACT: pitchwheel channel=3 pitch=0 time=0
EXTRACT: note_off channel=3 note=66 velocity=95 time=0
EXTRACT: pitchwheel channel=3 pitch=0 time=0
EXTRACT: note_on channel=3 note=67 velocity=95 time=0
EXTRACT: note_off channel=7 note=33 velocity=95 time=0
EXTRACT: note_on channel=7 note=33 velocity=95 time=0
EXTRACT: note_off channel=8 note=23 velocity=95 time=0
EXTRACT: note_on channel=8 note=23 velocity=95 time=0
EXTRACT: note_on channel=10 note=40 velocity=95 time=0
EXTRACT: note_off channel=9 note=36 velocity=95 time=0
EXTRACT: note_on channel=9 note=36 velocity=95 time=0
EXTRACT: pitchwheel channel=4 pitch=512 time=0.006696425000000001
EXTRACT: pitchwheel channel=4 pitch=640 time=0.026785700000000003
EXTRACT: pitchwheel channel=4 pitch=640 time=0
EXTRACT: pitchwheel channel=4 pitch=0 time=0
EXTRACT: note_off channel=4 note=66 velocity=95 time=0
EXTRACT: pitchwheel channel=4 pitch=0 time=0
EXTRACT: note_on channel=4 note=67 velocity=95 time=0
EXTRACT: pitchwheel channel=3 pitch=-128 time=0.020089275
EXTRACT: note_off channel=10 note=40 velocity=95 time=0.013392850000000001
EXTRACT: pitchwheel channel=4 pitch=-128 time=0.020089275
EXTRACT: pitchwheel channel=3 pitch=-256 time=0.020089275
EXTRACT: pitchwheel channel=4 pitch=-256 time=0.033482125
EXTRACT: pitchwheel channel=3 pitch=-384 time=0.020089275
EXTRACT: pitchwheel channel=4 pitch=-384 time=0.033482125
EXTRACT: pitchwheel channel=3 pitch=-512 time=0.020089275
EXTRACT: pitchwheel channel=4 pitch=-512 time=0.033482125
EXTRACT: note_off channel=1 note=71 velocity=95 time=0.020089275
EXTRACT: note_off channel=1 note=66 velocity=95 time=0
EXTRACT: note_off channel=1 note=63 velocity=95 time=0
EXTRACT: note_off channel=1 note=59 velocity=95 time=0
EXTRACT: note_off channel=1 note=47 velocity=95 time=0
EXTRACT: note_on channel=1 note=68 velocity=95 time=0
EXTRACT: note_on channel=1 note=65 velocity=95 time=0
EXTRACT: note_on channel=1 note=61 velocity=95 time=0
EXTRACT: note_on channel=1 note=46 velocity=95 time=0
EXTRACT: pitchwheel channel=2 pitch=0 time=0
EXTRACT: note_on channel=2 note=73 velocity=95 time=0
EXTRACT: pitchwheel channel=3 pitch=-640 time=0
EXTRACT: pitchwheel channel=3 pitch=-640 time=0
EXTRACT: pitchwheel channel=3 pitch=0 time=0
EXTRACT: note_off channel=3 note=67 velocity=95 time=0
EXTRACT: pitchwheel channel=3 pitch=0 time=0
EXTRACT: note_on channel=3 note=67 velocity=95 time=0
EXTRACT: pitchwheel channel=6 pitch=0 time=0
EXTRACT: note_on channel=6 note=53 velocity=95 time=0
EXTRACT: pitchwheel channel=6 pitch=0 time=0
EXTRACT: note_on channel=6 note=53 velocity=95 time=0
EXTRACT: note_off channel=7 note=33 velocity=95 time=0
EXTRACT: note_off channel=9 note=36 velocity=95 time=0
EXTRACT: pitchwheel channel=6 pitch=-128 time=0.016183027083333332
EXTRACT: pitchwheel channel=6 pitch=-128 time=0
EXTRACT: pitchwheel channel=6 pitch=-256 time=0.016183027083333332
EXTRACT: pitchwheel channel=6 pitch=-256 time=0
EXTRACT: pitchwheel channel=4 pitch=-640 time=0.0011160708333333334
EXTRACT: pitchwheel channel=4 pitch=-640 time=0
EXTRACT: pitchwheel channel=4 pitch=0 time=0
EXTRACT: note_off channel=4 note=67 velocity=95 time=0
EXTRACT: pitchwheel channel=4 pitch=0 time=0
EXTRACT: note_on channel=4 note=67 velocity=95 time=0
EXTRACT: pitchwheel channel=6 pitch=-384 time=0.015066956250000001
EXTRACT: pitchwheel channel=6 pitch=-384 time=0
EXTRACT: pitchwheel channel=3 pitch=-128 time=0.00502231875
EXTRACT: pitchwheel channel=6 pitch=-512 time=0.011160708333333333
EXTRACT: pitchwheel channel=6 pitch=-512 time=0
EXTRACT: pitchwheel channel=6 pitch=-640 time=0.016183027083333332
EXTRACT: pitchwheel channel=6 pitch=-640 time=0
EXTRACT: pitchwheel channel=4 pitch=-128 time=0.006138389583333333
EXTRACT: pitchwheel channel=6 pitch=-768 time=0.0100446375
EXTRACT: pitchwheel channel=6 pitch=-768 time=0
EXTRACT: pitchwheel channel=3 pitch=-256 time=0.0100446375
EXTRACT: pitchwheel channel=6 pitch=-896 time=0.006138389583333333
EXTRACT: pitchwheel channel=6 pitch=-896 time=0
EXTRACT: pitchwheel channel=6 pitch=-1024 time=0.016183027083333332
EXTRACT: pitchwheel channel=6 pitch=-1024 time=0
EXTRACT: pitchwheel channel=4 pitch=-256 time=0.011160708333333333
EXTRACT: pitchwheel channel=6 pitch=-1152 time=0.00502231875
EXTRACT: pitchwheel channel=6 pitch=-1152 time=0
EXTRACT: pitchwheel channel=3 pitch=-384 time=0.015066956250000001
EXTRACT: pitchwheel channel=6 pitch=-1280 time=0.0011160708333333334
EXTRACT: pitchwheel channel=6 pitch=-1280 time=0
EXTRACT: pitchwheel channel=6 pitch=-1408 time=0.016183027083333332
EXTRACT: pitchwheel channel=6 pitch=-1408 time=0
EXTRACT: pitchwheel channel=4 pitch=-384 time=0.016183027083333332
EXTRACT: pitchwheel channel=6 pitch=-1536 time=0
EXTRACT: pitchwheel channel=6 pitch=-1536 time=0
EXTRACT: pitchwheel channel=6 pitch=-1664 time=0.016183027083333332
EXTRACT: pitchwheel channel=6 pitch=-1664 time=0
EXTRACT: pitchwheel channel=3 pitch=-512 time=0.003906247916666667
EXTRACT: pitchwheel channel=6 pitch=-1792 time=0.012276779166666666
EXTRACT: pitchwheel channel=6 pitch=-1792 time=0
EXTRACT: pitchwheel channel=6 pitch=-1920 time=0.016183027083333332
EXTRACT: pitchwheel channel=6 pitch=-1920 time=0
EXTRACT: pitchwheel channel=4 pitch=-512 time=0.00502231875
EXTRACT: pitchwheel channel=6 pitch=-2048 time=0.011160708333333333
EXTRACT: pitchwheel channel=6 pitch=-2048 time=0
EXTRACT: pitchwheel channel=3 pitch=-640 time=0.008928566666666667
EXTRACT: pitchwheel channel=3 pitch=-640 time=0
EXTRACT: pitchwheel channel=3 pitch=0 time=0
EXTRACT: note_off channel=3 note=67 velocity=95 time=0
EXTRACT: pitchwheel channel=3 pitch=0 time=0
EXTRACT: note_on channel=3 note=66 velocity=95 time=0
EXTRACT: note_off channel=5 note=64 velocity=95 time=0
EXTRACT: note_off channel=5 note=59 velocity=95 time=0
EXTRACT: note_off channel=5 note=55 velocity=95 time=0
EXTRACT: note_off channel=5 note=50 velocity=95 time=0
EXTRACT: note_on channel=7 note=33 velocity=95 time=0
EXTRACT: note_off channel=8 note=23 velocity=95 time=0
EXTRACT: note_on channel=8 note=23 velocity=95 time=0
EXTRACT: note_on channel=10 note=40 velocity=95 time=0
EXTRACT: note_on channel=9 note=36 velocity=95 time=0
EXTRACT: pitchwheel channel=6 pitch=-2176 time=0.007254460416666667
EXTRACT: pitchwheel channel=6 pitch=-2176 time=0
EXTRACT: pitchwheel channel=6 pitch=-2304 time=0.016183027083333332
EXTRACT: pitchwheel channel=6 pitch=-2304 time=0
EXTRACT: pitchwheel channel=4 pitch=-640 time=0.0100446375
EXTRACT: pitchwheel channel=4 pitch=-640 time=0
EXTRACT: pitchwheel channel=4 pitch=0 time=0
EXTRACT: note_off channel=4 note=67 velocity=95 time=0
EXTRACT: pitchwheel channel=4 pitch=0 time=0
EXTRACT: note_on channel=4 note=66 velocity=95 time=0
EXTRACT: pitchwheel channel=6 pitch=-2432 time=0.006138389583333333
EXTRACT: pitchwheel channel=6 pitch=-2432 time=0
EXTRACT: pitchwheel channel=6 pitch=-2560 time=0.016183027083333332
EXTRACT: pitchwheel channel=6 pitch=-2560 time=0
EXTRACT: note_off channel=10 note=40 velocity=95 time=0.011160708333333333
EXTRACT: pitchwheel channel=6 pitch=-2688 time=0.00502231875
EXTRACT: pitchwheel channel=6 pitch=-2688 time=0
EXTRACT: pitchwheel channel=6 pitch=-2816 time=0.016183027083333332
EXTRACT: pitchwheel channel=6 pitch=-2816 time=0
EXTRACT: pitchwheel channel=6 pitch=-2944 time=0.016183027083333332
EXTRACT: pitchwheel channel=6 pitch=-2944 time=0
EXTRACT: pitchwheel channel=6 pitch=-3072 time=0.016183027083333332
EXTRACT: pitchwheel channel=6 pitch=-3072 time=0
EXTRACT: pitchwheel channel=3 pitch=128 time=0.013392850000000001
EXTRACT: pitchwheel channel=6 pitch=-3200 time=0.0027901770833333333
EXTRACT: pitchwheel channel=6 pitch=-3200 time=0
EXTRACT: pitchwheel channel=6 pitch=-3328 time=0.016183027083333332
EXTRACT: pitchwheel channel=6 pitch=-3328 time=0
EXTRACT: pitchwheel channel=4 pitch=128 time=0.014508920833333334
EXTRACT: pitchwheel channel=6 pitch=-3456 time=0.0016741062500000002
EXTRACT: pitchwheel channel=6 pitch=-3456 time=0
EXTRACT: pitchwheel channel=6 pitch=-3584 time=0.016183027083333332
EXTRACT: pitchwheel channel=6 pitch=-3584 time=0
EXTRACT: pitchwheel channel=6 pitch=-3712 time=0.016183027083333332
EXTRACT: pitchwheel channel=6 pitch=-3712 time=0
EXTRACT: pitchwheel channel=6 pitch=-3840 time=0.016183027083333332
EXTRACT: pitchwheel channel=6 pitch=-3840 time=0
EXTRACT: pitchwheel channel=6 pitch=-3968 time=0.016183027083333332
EXTRACT: pitchwheel channel=6 pitch=-3968 time=0
EXTRACT: pitchwheel channel=6 pitch=-4096 time=0.016183027083333332
EXTRACT: pitchwheel channel=6 pitch=-4096 time=0
EXTRACT: pitchwheel channel=6 pitch=-4224 time=0.016183027083333332
EXTRACT: pitchwheel channel=6 pitch=-4224 time=0
EXTRACT: pitchwheel channel=3 pitch=256 time=0.0016741062500000002
EXTRACT: pitchwheel channel=3 pitch=256 time=0
EXTRACT: pitchwheel channel=3 pitch=0 time=0
EXTRACT: note_off channel=3 note=66 velocity=95 time=0
EXTRACT: pitchwheel channel=3 pitch=0 time=0
EXTRACT: note_on channel=3 note=67 velocity=95 time=0
EXTRACT: note_on channel=5 note=64 velocity=95 time=0
EXTRACT: note_on channel=5 note=59 velocity=95 time=0
EXTRACT: note_on channel=5 note=55 velocity=95 time=0
EXTRACT: note_on channel=5 note=50 velocity=95 time=0
EXTRACT: note_off channel=7 note=33 velocity=95 time=0
EXTRACT: note_off channel=9 note=36 velocity=95 time=0
EXTRACT: note_on channel=9 note=28 velocity=95 time=0
EXTRACT: note_on channel=9 note=39 velocity=95 time=0
EXTRACT: pitchwheel channel=6 pitch=-4352 time=0.014508920833333334
EXTRACT: pitchwheel channel=6 pitch=-4352 time=0
EXTRACT: pitchwheel channel=3 pitch=-128 time=0.0033482125000000003
EXTRACT: pitchwheel channel=6 pitch=-4480 time=0.012834814583333333
EXTRACT: pitchwheel channel=6 pitch=-4480 time=0
EXTRACT: pitchwheel channel=4 pitch=256 time=0.0027901770833333333
EXTRACT: pitchwheel channel=4 pitch=256 time=0
EXTRACT: pitchwheel channel=4 pitch=0 time=0
EXTRACT: note_off channel=4 note=66 velocity=95 time=0
EXTRACT: pitchwheel channel=4 pitch=0 time=0
EXTRACT: note_on channel=4 note=67 velocity=95 time=0
EXTRACT: pitchwheel channel=3 pitch=-256 time=0.0022321416666666667
EXTRACT: pitchwheel channel=6 pitch=-4608 time=0.011160708333333333
EXTRACT: pitchwheel channel=6 pitch=-4608 time=0
EXTRACT: pitchwheel channel=4 pitch=-128 time=0.0044642833333333335
EXTRACT: pitchwheel channel=3 pitch=-384 time=0.0022321416666666667
EXTRACT: pitchwheel channel=6 pitch=-4736 time=0.009486602083333334
EXTRACT: pitchwheel channel=6 pitch=-4736 time=0
EXTRACT: pitchwheel channel=4 pitch=-256 time=0.006138389583333333
EXTRACT: pitchwheel channel=3 pitch=-512 time=0.0022321416666666667
EXTRACT: pitchwheel channel=6 pitch=-4864 time=0.007812495833333334
EXTRACT: pitchwheel channel=6 pitch=-4864 time=0
EXTRACT: pitchwheel channel=4 pitch=-384 time=0.007812495833333334
EXTRACT: pitchwheel channel=3 pitch=-640 time=0.0022321416666666667
EXTRACT: pitchwheel channel=6 pitch=-4992 time=0.006138389583333333
EXTRACT: pitchwheel channel=6 pitch=-4992 time=0
EXTRACT: pitchwheel channel=4 pitch=-512 time=0.009486602083333334
EXTRACT: pitchwheel channel=3 pitch=-768 time=0.0022321416666666667
EXTRACT: pitchwheel channel=6 pitch=-5120 time=0.0044642833333333335
EXTRACT: pitchwheel channel=6 pitch=-5120 time=0
EXTRACT: pitchwheel channel=4 pitch=-640 time=0.011160708333333333
EXTRACT: pitchwheel channel=3 pitch=-896 time=0.0022321416666666667
EXTRACT: pitchwheel channel=6 pitch=-5248 time=0.0027901770833333333
EXTRACT: pitchwheel channel=6 pitch=-5248 time=0
EXTRACT: pitchwheel channel=4 pitch=-768 time=0.012834814583333333
EXTRACT: pitchwheel channel=3 pitch=-1024 time=0.0022321416666666667
EXTRACT: pitchwheel channel=6 pitch=-5376 time=0.0011160708333333334
EXTRACT: pitchwheel channel=6 pitch=-5376 time=0
EXTRACT: pitchwheel channel=4 pitch=-896 time=0.014508920833333334
EXTRACT: pitchwheel channel=6 pitch=-5504 time=0.0016741062500000002
EXTRACT: pitchwheel channel=6 pitch=-5504 time=0
EXTRACT: pitchwheel channel=3 pitch=-1152 time=0.0005580354166666667
EXTRACT: pitchwheel channel=4 pitch=-1024 time=0.015624991666666668
EXTRACT: pitchwheel channel=6 pitch=-5632 time=0
EXTRACT: pitchwheel channel=6 pitch=-5632 time=0
EXTRACT: pitchwheel channel=3 pitch=-1280 time=0.0022321416666666667
EXTRACT: pitchwheel channel=6 pitch=-5760 time=0.013950885416666668
EXTRACT: pitchwheel channel=6 pitch=-5760 time=0
EXTRACT: pitchwheel channel=4 pitch=-1152 time=0.0016741062500000002
EXTRACT: pitchwheel channel=3 pitch=-1408 time=0.0022321416666666667
EXTRACT: pitchwheel channel=3 pitch=-1408 time=0.0044642833333333335
EXTRACT: pitchwheel channel=3 pitch=0 time=0
EXTRACT: note_off channel=3 note=67 velocity=95 time=0
EXTRACT: pitchwheel channel=6 pitch=-5888 time=0.007812495833333334
EXTRACT: pitchwheel channel=6 pitch=-5888 time=0
EXTRACT: pitchwheel channel=4 pitch=-1280 time=0.0033482125000000003
EXTRACT: pitchwheel channel=6 pitch=-6016 time=0.012834814583333333
EXTRACT: pitchwheel channel=6 pitch=-6016 time=0
EXTRACT: pitchwheel channel=4 pitch=-1408 time=0.00502231875
EXTRACT: pitchwheel channel=4 pitch=-1408 time=0.0044642833333333335
EXTRACT: pitchwheel channel=4 pitch=0 time=0
EXTRACT: note_off channel=4 note=67 velocity=95 time=0
EXTRACT: pitchwheel channel=6 pitch=-6144 time=0.006696425000000001
EXTRACT: pitchwheel channel=6 pitch=-6144 time=0
EXTRACT: pitchwheel channel=6 pitch=-6272 time=0.016183027083333332
EXTRACT: pitchwheel channel=6 pitch=-6272 time=0
EXTRACT: pitchwheel channel=3 pitch=0 time=0.010602672916666667
EXTRACT: note_on channel=3 note=66 velocity=95 time=0
EXTRACT: note_off channel=8 note=23 velocity=95 time=0
EXTRACT: pitchwheel channel=6 pitch=-6400 time=0.005580354166666667
EXTRACT: pitchwheel channel=6 pitch=-6400 time=0
EXTRACT: pitchwheel channel=6 pitch=-6528 time=0.016183027083333332
EXTRACT: pitchwheel channel=6 pitch=-6528 time=0
EXTRACT: pitchwheel channel=4 pitch=0 time=0.01171874375
EXTRACT: note_on channel=4 note=66 velocity=95 time=0
EXTRACT: pitchwheel channel=6 pitch=-6656 time=0.0044642833333333335
EXTRACT: pitchwheel channel=6 pitch=-6656 time=0
EXTRACT: pitchwheel channel=6 pitch=-6784 time=0.016183027083333332
EXTRACT: pitchwheel channel=6 pitch=-6784 time=0
EXTRACT: pitchwheel channel=3 pitch=128 time=0.012834814583333333
EXTRACT: pitchwheel channel=6 pitch=-6912 time=0.0033482125000000003
EXTRACT: pitchwheel channel=6 pitch=-6912 time=0
EXTRACT: pitchwheel channel=6 pitch=-7040 time=0.016183027083333332
EXTRACT: pitchwheel channel=6 pitch=-7040 time=0
EXTRACT: pitchwheel channel=2 pitch=0 time=0.0027901770833333333
EXTRACT: pitchwheel channel=4 pitch=128 time=0.011160708333333333
EXTRACT: pitchwheel channel=6 pitch=-7168 time=0.0022321416666666667
EXTRACT: pitchwheel channel=6 pitch=-7168 time=0
EXTRACT: pitchwheel channel=2 pitch=-128 time=0.0005580354166666667
EXTRACT: pitchwheel channel=2 pitch=-256 time=0.013950885416666668
EXTRACT: pitchwheel channel=6 pitch=-7296 time=0.0016741062500000002
EXTRACT: pitchwheel channel=6 pitch=-7296 time=0
EXTRACT: pitchwheel channel=2 pitch=-384 time=0.012276779166666666
EXTRACT: pitchwheel channel=3 pitch=256 time=0.0027901770833333333
EXTRACT: pitchwheel channel=3 pitch=256 time=0
EXTRACT: pitchwheel channel=3 pitch=0 time=0
EXTRACT: note_off channel=3 note=66 velocity=95 time=0
EXTRACT: pitchwheel channel=3 pitch=256 time=0
EXTRACT: note_on channel=3 note=66 velocity=95 time=0
EXTRACT: pitchwheel channel=6 pitch=-7424 time=0.0011160708333333334
EXTRACT: pitchwheel channel=6 pitch=-7424 time=0
EXTRACT: pitchwheel channel=2 pitch=-512 time=0.0100446375
EXTRACT: pitchwheel channel=6 pitch=-7552 time=0.006138389583333333
EXTRACT: pitchwheel channel=6 pitch=-7552 time=0
EXTRACT: pitchwheel channel=2 pitch=-640 time=0.007812495833333334
EXTRACT: pitchwheel channel=4 pitch=256 time=0.00837053125
EXTRACT: pitchwheel channel=4 pitch=256 time=0
EXTRACT: pitchwheel channel=4 pitch=0 time=0
EXTRACT: note_off channel=4 note=66 velocity=95 time=0
EXTRACT: pitchwheel channel=4 pitch=256 time=0
EXTRACT: note_on channel=4 note=66 velocity=95 time=0
EXTRACT: pitchwheel channel=6 pitch=-7680 time=0
EXTRACT: pitchwheel channel=6 pitch=-7680 time=0
EXTRACT: pitchwheel channel=2 pitch=-768 time=0.005580354166666667
EXTRACT: pitchwheel channel=6 pitch=-7808 time=0.010602672916666667
EXTRACT: pitchwheel channel=6 pitch=-7808 time=0
EXTRACT: pitchwheel channel=2 pitch=-896 time=0.0033482125000000003
EXTRACT: pitchwheel channel=6 pitch=-7936 time=0.012834814583333333
EXTRACT: pitchwheel channel=6 pitch=-7936 time=0
EXTRACT: pitchwheel channel=2 pitch=-1024 time=0.0011160708333333334
EXTRACT: pitchwheel channel=2 pitch=-1152 time=0.013950885416666668
EXTRACT: pitchwheel channel=6 pitch=-8064 time=0.0011160708333333334
EXTRACT: pitchwheel channel=6 pitch=-8064 time=0
EXTRACT: pitchwheel channel=2 pitch=-1280 time=0.012834814583333333
EXTRACT: pitchwheel channel=6 pitch=-8192 time=0.0033482125000000003
EXTRACT: pitchwheel channel=6 pitch=-8192 time=0
EXTRACT: pitchwheel channel=2 pitch=-1408 time=0.010602672916666667
EXTRACT: pitchwheel channel=6 pitch=-8192 time=0.005580354166666667
EXTRACT: pitchwheel channel=6 pitch=-8192 time=0
EXTRACT: pitchwheel channel=2 pitch=-1536 time=0.00837053125
EXTRACT: pitchwheel channel=6 pitch=-8192 time=0.007812495833333334
EXTRACT: pitchwheel channel=6 pitch=-8192 time=0
EXTRACT: note_off channel=1 note=68 velocity=95 time=0.0033482125000000003
EXTRACT: note_off channel=1 note=65 velocity=95 time=0
EXTRACT: note_off channel=1 note=61 velocity=95 time=0
EXTRACT: note_off channel=1 note=46 velocity=95 time=0
EXTRACT: note_on channel=1 note=66 velocity=95 time=0
EXTRACT: note_on channel=1 note=63 velocity=95 time=0
EXTRACT: note_on channel=1 note=51 velocity=95 time=0
EXTRACT: pitchwheel channel=3 pitch=256 time=0
EXTRACT: pitchwheel channel=3 pitch=0 time=0
EXTRACT: note_off channel=3 note=66 velocity=95 time=0
EXTRACT: pitchwheel channel=3 pitch=256 time=0
EXTRACT: note_on channel=3 note=67 velocity=95 time=0
EXTRACT: pitchwheel channel=6 pitch=-8192 time=0
EXTRACT: pitchwheel channel=6 pitch=0 time=0
EXTRACT: note_off channel=6 note=53 velocity=95 time=0
EXTRACT: pitchwheel channel=6 pitch=-8192 time=0
EXTRACT: pitchwheel channel=6 pitch=0 time=0
EXTRACT: note_off channel=6 note=53 velocity=95 time=0
EXTRACT: note_on channel=7 note=33 velocity=95 time=0
EXTRACT: note_on channel=8 note=23 velocity=95 time=0
EXTRACT: note_on channel=10 note=40 velocity=95 time=0
EXTRACT: note_off channel=9 note=28 velocity=95 time=0
EXTRACT: note_off channel=9 note=39 velocity=95 time=0
EXTRACT: note_on channel=9 note=36 velocity=95 time=0
EXTRACT: pitchwheel channel=2 pitch=-1664 time=0.0027901770833333333
EXTRACT: pitchwheel channel=2 pitch=-1792 time=0.013950885416666668
EXTRACT: pitchwheel channel=2 pitch=-1920 time=0.013950885416666668
EXTRACT: pitchwheel channel=4 pitch=256 time=0.0027901770833333333
EXTRACT: pitchwheel channel=4 pitch=0 time=0
EXTRACT: note_off channel=4 note=66 velocity=95 time=0
EXTRACT: pitchwheel channel=4 pitch=256 time=0
EXTRACT: note_on channel=4 note=67 velocity=95 time=0
EXTRACT: pitchwheel channel=2 pitch=-2048 time=0.011160708333333333
EXTRACT: pitchwheel channel=2 pitch=-2048 time=0
EXTRACT: note_off channel=10 note=40 velocity=95 time=0.022321416666666666
EXTRACT: pitchwheel channel=3 pitch=256 time=0.022321416666666666
EXTRACT: pitchwheel channel=4 pitch=256 time=0.033482125
EXTRACT: pitchwheel channel=3 pitch=128 time=0.011160708333333333
EXTRACT: pitchwheel channel=4 pitch=128 time=0.033482125
EXTRACT: pitchwheel channel=3 pitch=0 time=0.011160708333333333
EXTRACT: pitchwheel channel=3 pitch=0 time=0
EXTRACT: pitchwheel channel=4 pitch=0 time=0.033482125
EXTRACT: pitchwheel channel=4 pitch=0 time=0
EXTRACT: note_off channel=1 note=66 velocity=95 time=0.05580354166666667
EXTRACT: note_off channel=1 note=63 velocity=95 time=0
EXTRACT: note_off channel=1 note=51 velocity=95 time=0
EXTRACT: pitchwheel channel=2 pitch=-2048 time=0
EXTRACT: pitchwheel channel=2 pitch=0 time=0
EXTRACT: note_off channel=2 note=73 velocity=95 time=0
EXTRACT: pitchwheel channel=3 pitch=0 time=0
EXTRACT: pitchwheel channel=3 pitch=0 time=0
EXTRACT: note_off channel=3 note=67 velocity=95 time=0
EXTRACT: pitchwheel channel=3 pitch=256 time=0
EXTRACT: note_on channel=3 note=66 velocity=95 time=0
EXTRACT: note_off channel=5 note=64 velocity=95 time=0
EXTRACT: note_off channel=5 note=59 velocity=95 time=0
EXTRACT: note_off channel=5 note=55 velocity=95 time=0
EXTRACT: note_off channel=5 note=50 velocity=95 time=0
EXTRACT: note_off channel=8 note=23 velocity=95 time=0
EXTRACT: note_on channel=8 note=23 velocity=95 time=0
EXTRACT: note_on channel=10 note=40 velocity=95 time=0
EXTRACT: note_off channel=9 note=36 velocity=95 time=0
EXTRACT: note_on channel=9 note=36 velocity=95 time=0
EXTRACT: pitchwheel channel=4 pitch=0 time=0.033482125
EXTRACT: pitchwheel channel=4 pitch=0 time=0
EXTRACT: note_off channel=4 note=67 velocity=95 time=0
EXTRACT: pitchwheel channel=4 pitch=256 time=0
EXTRACT: note_on channel=4 note=66 velocity=95 time=0
EXTRACT: note_off channel=10 note=40 velocity=95 time=0.033482125
EXTRACT: pitchwheel channel=3 pitch=256 time=0.20089275
EXTRACT: pitchwheel channel=3 pitch=0 time=0
EXTRACT: note_off channel=3 note=66 velocity=95 time=0
EXTRACT: note_on channel=3 note=67 velocity=95 time=0
EXTRACT: note_on channel=5 note=64 velocity=95 time=0
EXTRACT: note_on channel=5 note=59 velocity=95 time=0
EXTRACT: note_on channel=5 note=55 velocity=95 time=0
EXTRACT: note_on channel=5 note=50 velocity=95 time=0
EXTRACT: note_off channel=7 note=33 velocity=95 time=0
EXTRACT: note_off channel=8 note=23 velocity=95 time=0
EXTRACT: note_off channel=9 note=36 velocity=95 time=0
EXTRACT: note_on channel=9 note=28 velocity=95 time=0
EXTRACT: note_on channel=9 note=39 velocity=95 time=0
EXTRACT: pitchwheel channel=4 pitch=256 time=0.033482125
EXTRACT: pitchwheel channel=4 pitch=0 time=0
EXTRACT: note_off channel=4 note=66 velocity=95 time=0
EXTRACT: note_on channel=4 note=67 velocity=95 time=0
EXTRACT: note_off channel=3 note=67 velocity=95 time=0.234374875
EXTRACT: pitchwheel channel=3 pitch=0 time=0
EXTRACT: note_on channel=3 note=67 velocity=95 time=0
EXTRACT: note_on channel=7 note=33 velocity=95 time=0
EXTRACT: note_on channel=8 note=23 velocity=95 time=0
EXTRACT: note_on channel=10 note=40 velocity=95 time=0
EXTRACT: note_off channel=9 note=28 velocity=95 time=0
EXTRACT: note_off channel=9 note=39 velocity=95 time=0
EXTRACT: note_on channel=9 note=36 velocity=95 time=0
EXTRACT: note_off channel=4 note=67 velocity=95 time=0.033482125
EXTRACT: pitchwheel channel=4 pitch=0 time=0
EXTRACT: note_on channel=4 note=67 velocity=95 time=0
EXTRACT: pitchwheel channel=3 pitch=128 time=0.033482125
EXTRACT: note_off channel=10 note=40 velocity=95 time=0
EXTRACT: pitchwheel channel=4 pitch=128 time=0.033482125
EXTRACT: pitchwheel channel=3 pitch=256 time=0.033482125
EXTRACT: pitchwheel channel=3 pitch=256 time=0
EXTRACT: pitchwheel channel=3 pitch=0 time=0
EXTRACT: note_off channel=3 note=67 velocity=95 time=0
EXTRACT: pitchwheel channel=3 pitch=0 time=0
EXTRACT: note_on channel=3 note=67 velocity=95 time=0
EXTRACT: pitchwheel channel=4 pitch=256 time=0.033482125
EXTRACT: pitchwheel channel=4 pitch=256 time=0
EXTRACT: pitchwheel channel=4 pitch=0 time=0
EXTRACT: note_off channel=4 note=67 velocity=95 time=0
EXTRACT: pitchwheel channel=4 pitch=0 time=0
EXTRACT: note_on channel=4 note=67 velocity=95 time=0
EXTRACT: pitchwheel channel=3 pitch=128 time=0.06696425
EXTRACT: pitchwheel channel=4 pitch=128 time=0.033482125
EXTRACT: note_off channel=9 note=36 velocity=95 time=0
EXTRACT: pitchwheel channel=3 pitch=256 time=0.06696425
EXTRACT: pitchwheel channel=3 pitch=256 time=0
EXTRACT: pitchwheel channel=3 pitch=0 time=0
EXTRACT: note_off channel=3 note=67 velocity=95 time=0
EXTRACT: pitchwheel channel=4 pitch=256 time=0.033482125
EXTRACT: pitchwheel channel=4 pitch=256 time=0
EXTRACT: pitchwheel channel=4 pitch=0 time=0
EXTRACT: note_off channel=4 note=67 velocity=95 time=0
EXTRACT: pitchwheel channel=3 pitch=0 time=0.167410625
EXTRACT: note_on channel=3 note=65 velocity=95 time=0
EXTRACT: note_off channel=5 note=64 velocity=95 time=0
EXTRACT: note_off channel=5 note=59 velocity=95 time=0
EXTRACT: note_off channel=5 note=55 velocity=95 time=0
EXTRACT: note_off channel=5 note=50 velocity=95 time=0
EXTRACT: note_off channel=7 note=33 velocity=95 time=0
EXTRACT: note_on channel=7 note=33 velocity=95 time=0
EXTRACT: note_off channel=8 note=23 velocity=95 time=0
EXTRACT: note_on channel=8 note=23 velocity=95 time=0
EXTRACT: note_on channel=10 note=40 velocity=95 time=0
EXTRACT: note_on channel=9 note=36 velocity=95 time=0
EXTRACT: pitchwheel channel=4 pitch=0 time=0.033482125
EXTRACT: note_on channel=4 note=65 velocity=95 time=0
EXTRACT: note_off channel=10 note=40 velocity=95 time=0.033482125
EXTRACT: pitchwheel channel=3 pitch=0 time=0.20089275
EXTRACT: note_on channel=5 note=64 velocity=95 time=0
EXTRACT: note_on channel=5 note=59 velocity=95 time=0
EXTRACT: note_on channel=5 note=55 velocity=95 time=0
EXTRACT: note_on channel=5 note=50 velocity=95 time=0
EXTRACT: note_off channel=7 note=33 velocity=95 time=0
EXTRACT: note_off channel=9 note=36 velocity=95 time=0
EXTRACT: note_on channel=9 note=28 velocity=95 time=0
EXTRACT: note_on channel=9 note=39 velocity=95 time=0
EXTRACT: pitchwheel channel=4 pitch=0 time=0.033482125
EXTRACT: pitchwheel channel=3 pitch=128 time=0.100446375
EXTRACT: pitchwheel channel=4 pitch=128 time=0.033482125
EXTRACT: pitchwheel channel=3 pitch=256 time=0.100446375
EXTRACT: pitchwheel channel=3 pitch=256 time=0
EXTRACT: pitchwheel channel=3 pitch=0 time=0
EXTRACT: note_off channel=3 note=65 velocity=95 time=0
EXTRACT: note_off channel=8 note=23 velocity=95 time=0
EXTRACT: pitchwheel channel=4 pitch=256 time=0.033482125
EXTRACT: pitchwheel channel=4 pitch=256 time=0
EXTRACT: pitchwheel channel=4 pitch=0 time=0
EXTRACT: note_off channel=4 note=65 velocity=95 time=0
EXTRACT: pitchwheel channel=3 pitch=0 time=0.100446375
EXTRACT: note_on channel=3 note=66 velocity=95 time=0
EXTRACT: pitchwheel channel=4 pitch=0 time=0.033482125
EXTRACT: note_on channel=4 note=66 velocity=95 time=0
EXTRACT: pitchwheel channel=3 pitch=128 time=0.033482125
EXTRACT: pitchwheel channel=4 pitch=128 time=0.033482125
EXTRACT: pitchwheel channel=3 pitch=256 time=0.033482125
EXTRACT: pitchwheel channel=3 pitch=256 time=0
EXTRACT: pitchwheel channel=3 pitch=0 time=0
EXTRACT: note_off channel=3 note=66 velocity=95 time=0
EXTRACT: pitchwheel channel=3 pitch=256 time=0
EXTRACT: note_on channel=3 note=67 velocity=95 time=0
EXTRACT: note_on channel=7 note=33 velocity=95 time=0
EXTRACT: note_on channel=8 note=23 velocity=95 time=0
EXTRACT: note_on channel=10 note=40 velocity=95 time=0
EXTRACT: note_off channel=9 note=28 velocity=95 time=0
EXTRACT: note_off channel=9 note=39 velocity=95 time=0
EXTRACT: note_on channel=9 note=36 velocity=95 time=0
EXTRACT: pitchwheel channel=4 pitch=256 time=0.033482125
EXTRACT: pitchwheel channel=4 pitch=256 time=0
EXTRACT: pitchwheel channel=4 pitch=0 time=0
EXTRACT: note_off channel=4 note=66 velocity=95 time=0
EXTRACT: pitchwheel channel=4 pitch=256 time=0
EXTRACT: note_on channel=4 note=67 velocity=95 time=0
EXTRACT: note_off channel=10 note=40 velocity=95 time=0.033482125
EXTRACT: pitchwheel channel=3 pitch=256 time=0.022321416666666666
EXTRACT: pitchwheel channel=4 pitch=256 time=0.033482125
EXTRACT: pitchwheel channel=3 pitch=128 time=0.011160708333333333
EXTRACT: pitchwheel channel=4 pitch=128 time=0.033482125
EXTRACT: pitchwheel channel=3 pitch=0 time=0.011160708333333333
EXTRACT: pitchwheel channel=3 pitch=0 time=0
EXTRACT: pitchwheel channel=4 pitch=0 time=0.033482125
EXTRACT: pitchwheel channel=4 pitch=0 time=0
EXTRACT: pitchwheel channel=3 pitch=0 time=0.05580354166666667
EXTRACT: pitchwheel channel=3 pitch=0 time=0
EXTRACT: note_off channel=3 note=67 velocity=95 time=0
EXTRACT: pitchwheel channel=3 pitch=256 time=0
EXTRACT: note_on channel=3 note=66 velocity=95 time=0
EXTRACT: note_off channel=5 note=64 velocity=95 time=0
EXTRACT: note_off channel=5 note=59 velocity=95 time=0
EXTRACT: note_off channel=5 note=55 velocity=95 time=0
EXTRACT: note_off channel=5 note=50 velocity=95 time=0
EXTRACT: pitchwheel channel=4 pitch=0 time=0.033482125
EXTRACT: pitchwheel channel=4 pitch=0 time=0
EXTRACT: note_off channel=4 note=67 velocity=95 time=0
EXTRACT: pitchwheel channel=4 pitch=256 time=0
EXTRACT: note_on channel=4 note=66 velocity=95 time=0
EXTRACT: pitchwheel channel=3 pitch=256 time=0.234374875
EXTRACT: pitchwheel channel=3 pitch=0 time=0
EXTRACT: note_off channel=3 note=66 velocity=95 time=0
EXTRACT: note_on channel=3 note=67 velocity=95 time=0
EXTRACT: note_on channel=5 note=64 velocity=95 time=0
EXTRACT: note_on channel=5 note=59 velocity=95 time=0
EXTRACT: note_on channel=5 note=55 velocity=95 time=0
EXTRACT: note_on channel=5 note=50 velocity=95 time=0
EXTRACT: note_off channel=7 note=33 velocity=95 time=0
EXTRACT: note_off channel=8 note=23 velocity=95 time=0
EXTRACT: note_off channel=9 note=36 velocity=95 time=0
EXTRACT: note_on channel=9 note=28 velocity=95 time=0
EXTRACT: note_on channel=9 note=39 velocity=95 time=0
EXTRACT: pitchwheel channel=4 pitch=256 time=0.033482125
EXTRACT: pitchwheel channel=4 pitch=0 time=0
EXTRACT: note_off channel=4 note=66 velocity=95 time=0
EXTRACT: note_on channel=4 note=67 velocity=95 time=0
EXTRACT: note_off channel=3 note=67 velocity=95 time=0.234374875
EXTRACT: pitchwheel channel=3 pitch=0 time=0
EXTRACT: note_on channel=3 note=67 velocity=95 time=0
EXTRACT: note_on channel=7 note=33 velocity=95 time=0
EXTRACT: note_on channel=8 note=23 velocity=95 time=0
EXTRACT: note_on channel=10 note=40 velocity=95 time=0
EXTRACT: note_off channel=9 note=28 velocity=95 time=0
EXTRACT: note_off channel=9 note=39 velocity=95 time=0
EXTRACT: note_on channel=9 note=36 velocity=95 time=0
EXTRACT: note_off channel=4 note=67 velocity=95 time=0.033482125
EXTRACT: pitchwheel channel=4 pitch=0 time=0
EXTRACT: note_on channel=4 note=67 velocity=95 time=0
EXTRACT: pitchwheel channel=3 pitch=128 time=0.033482125
EXTRACT: note_off channel=10 note=40 velocity=95 time=0
EXTRACT: pitchwheel channel=4 pitch=128 time=0.033482125
EXTRACT: pitchwheel channel=3 pitch=256 time=0.033482125
EXTRACT: pitchwheel channel=3 pitch=256 time=0
EXTRACT: pitchwheel channel=3 pitch=0 time=0
EXTRACT: note_off channel=3 note=67 velocity=95 time=0
EXTRACT: pitchwheel channel=3 pitch=0 time=0
EXTRACT: note_on channel=3 note=67 velocity=95 time=0
EXTRACT: pitchwheel channel=4 pitch=256 time=0.033482125
EXTRACT: pitchwheel channel=4 pitch=256 time=0
EXTRACT: pitchwheel channel=4 pitch=0 time=0
EXTRACT: note_off channel=4 note=67 velocity=95 time=0
EXTRACT: pitchwheel channel=4 pitch=0 time=0
EXTRACT: note_on channel=4 note=67 velocity=95 time=0
EXTRACT: pitchwheel channel=3 pitch=128 time=0.06696425
EXTRACT: pitchwheel channel=4 pitch=128 time=0.033482125
EXTRACT: pitchwheel channel=6 pitch=0 time=0
EXTRACT: note_on channel=6 note=53 velocity=95 time=0
EXTRACT: pitchwheel channel=6 pitch=0 time=0
EXTRACT: note_on channel=6 note=53 velocity=95 time=0
EXTRACT: note_off channel=9 note=36 velocity=95 time=0
EXTRACT: pitchwheel channel=6 pitch=-128 time=0.016183027083333332
EXTRACT: pitchwheel channel=6 pitch=-128 time=0
EXTRACT: pitchwheel channel=6 pitch=-256 time=0.016183027083333332
EXTRACT: pitchwheel channel=6 pitch=-256 time=0
EXTRACT: pitchwheel channel=6 pitch=-384 time=0.016183027083333332
EXTRACT: pitchwheel channel=6 pitch=-384 time=0
EXTRACT: pitchwheel channel=6 pitch=-512 time=0.016183027083333332
EXTRACT: pitchwheel channel=6 pitch=-512 time=0
EXTRACT: pitchwheel channel=3 pitch=256 time=0.0022321416666666667
EXTRACT: pitchwheel channel=3 pitch=256 time=0
EXTRACT: pitchwheel channel=3 pitch=0 time=0
EXTRACT: note_off channel=3 note=67 velocity=95 time=0
EXTRACT: pitchwheel channel=6 pitch=-640 time=0.013950885416666668
EXTRACT: pitchwheel channel=6 pitch=-640 time=0
EXTRACT: pitchwheel channel=6 pitch=-768 time=0.016183027083333332
EXTRACT: pitchwheel channel=6 pitch=-768 time=0
EXTRACT: pitchwheel channel=4 pitch=256 time=0.0033482125000000003
EXTRACT: pitchwheel channel=4 pitch=256 time=0
EXTRACT: pitchwheel channel=4 pitch=0 time=0
EXTRACT: note_off channel=4 note=67 velocity=95 time=0
EXTRACT: pitchwheel channel=6 pitch=-896 time=0.012834814583333333
EXTRACT: pitchwheel channel=6 pitch=-896 time=0
EXTRACT: pitchwheel channel=6 pitch=-1024 time=0.016183027083333332
EXTRACT: pitchwheel channel=6 pitch=-1024 time=0
EXTRACT: pitchwheel channel=6 pitch=-1152 time=0.016183027083333332
EXTRACT: pitchwheel channel=6 pitch=-1152 time=0
EXTRACT: pitchwheel channel=6 pitch=-1280 time=0.016183027083333332
EXTRACT: pitchwheel channel=6 pitch=-1280 time=0
EXTRACT: pitchwheel channel=6 pitch=-1408 time=0.016183027083333332
EXTRACT: pitchwheel channel=6 pitch=-1408 time=0
EXTRACT: pitchwheel channel=6 pitch=-1536 time=0.016183027083333332
EXTRACT: pitchwheel channel=6 pitch=-1536 time=0
EXTRACT: pitchwheel channel=6 pitch=-1664 time=0.016183027083333332
EXTRACT: pitchwheel channel=6 pitch=-1664 time=0
EXTRACT: pitchwheel channel=6 pitch=-1792 time=0.016183027083333332
EXTRACT: pitchwheel channel=6 pitch=-1792 time=0
EXTRACT: pitchwheel channel=6 pitch=-1920 time=0.016183027083333332
EXTRACT: pitchwheel channel=6 pitch=-1920 time=0
EXTRACT: pitchwheel channel=6 pitch=-2048 time=0.016183027083333332
EXTRACT: pitchwheel channel=6 pitch=-2048 time=0
EXTRACT: pitchwheel channel=3 pitch=0 time=0.008928566666666667
EXTRACT: note_on channel=3 note=65 velocity=95 time=0
EXTRACT: note_off channel=5 note=64 velocity=95 time=0
EXTRACT: note_off channel=5 note=59 velocity=95 time=0
EXTRACT: note_off channel=5 note=55 velocity=95 time=0
EXTRACT: note_off channel=5 note=50 velocity=95 time=0
EXTRACT: note_off channel=7 note=33 velocity=95 time=0
EXTRACT: note_on channel=7 note=33 velocity=95 time=0
EXTRACT: note_off channel=8 note=23 velocity=95 time=0
EXTRACT: note_on channel=8 note=23 velocity=95 time=0
EXTRACT: note_on channel=10 note=40 velocity=95 time=0
EXTRACT: note_on channel=9 note=36 velocity=95 time=0
EXTRACT: pitchwheel channel=6 pitch=-2176 time=0.007254460416666667
EXTRACT: pitchwheel channel=6 pitch=-2176 time=0
EXTRACT: pitchwheel channel=6 pitch=-2304 time=0.016183027083333332
EXTRACT: pitchwheel channel=6 pitch=-2304 time=0
EXTRACT: pitchwheel channel=4 pitch=0 time=0.0100446375
EXTRACT: note_on channel=4 note=65 velocity=95 time=0
EXTRACT: pitchwheel channel=6 pitch=-2432 time=0.006138389583333333
EXTRACT: pitchwheel channel=6 pitch=-2432 time=0
EXTRACT: pitchwheel channel=6 pitch=-2560 time=0.016183027083333332
EXTRACT: pitchwheel channel=6 pitch=-2560 time=0
EXTRACT: note_off channel=10 note=40 velocity=95 time=0.011160708333333333
EXTRACT: pitchwheel channel=6 pitch=-2688 time=0.00502231875
EXTRACT: pitchwheel channel=6 pitch=-2688 time=0
EXTRACT: pitchwheel channel=6 pitch=-2816 time=0.016183027083333332
EXTRACT: pitchwheel channel=6 pitch=-2816 time=0
EXTRACT: pitchwheel channel=6 pitch=-2944 time=0.016183027083333332
EXTRACT: pitchwheel channel=6 pitch=-2944 time=0
EXTRACT: pitchwheel channel=6 pitch=-3072 time=0.016183027083333332
EXTRACT: pitchwheel channel=6 pitch=-3072 time=0
EXTRACT: pitchwheel channel=6 pitch=-3200 time=0.016183027083333332
EXTRACT: pitchwheel channel=6 pitch=-3200 time=0
EXTRACT: pitchwheel channel=6 pitch=-3328 time=0.016183027083333332
EXTRACT: pitchwheel channel=6 pitch=-3328 time=0
EXTRACT: pitchwheel channel=6 pitch=-3456 time=0.016183027083333332
EXTRACT: pitchwheel channel=6 pitch=-3456 time=0
EXTRACT: pitchwheel channel=6 pitch=-3584 time=0.016183027083333332
EXTRACT: pitchwheel channel=6 pitch=-3584 time=0
EXTRACT: pitchwheel channel=6 pitch=-3712 time=0.016183027083333332
EXTRACT: pitchwheel channel=6 pitch=-3712 time=0
EXTRACT: pitchwheel channel=6 pitch=-3840 time=0.016183027083333332
EXTRACT: pitchwheel channel=6 pitch=-3840 time=0
EXTRACT: pitchwheel channel=6 pitch=-3968 time=0.016183027083333332
EXTRACT: pitchwheel channel=6 pitch=-3968 time=0
EXTRACT: pitchwheel channel=6 pitch=-4096 time=0.016183027083333332
EXTRACT: pitchwheel channel=6 pitch=-4096 time=0
EXTRACT: pitchwheel channel=6 pitch=-4224 time=0.016183027083333332
EXTRACT: pitchwheel channel=6 pitch=-4224 time=0
EXTRACT: pitchwheel channel=3 pitch=0 time=0.0016741062500000002
EXTRACT: note_on channel=5 note=64 velocity=95 time=0
EXTRACT: note_on channel=5 note=59 velocity=95 time=0
EXTRACT: note_on channel=5 note=55 velocity=95 time=0
EXTRACT: note_on channel=5 note=50 velocity=95 time=0
EXTRACT: note_off channel=7 note=33 velocity=95 time=0
EXTRACT: note_off channel=9 note=36 velocity=95 time=0
EXTRACT: note_on channel=9 note=28 velocity=95 time=0
EXTRACT: note_on channel=9 note=39 velocity=95 time=0
EXTRACT: pitchwheel channel=6 pitch=-4352 time=0.014508920833333334
EXTRACT: pitchwheel channel=6 pitch=-4352 time=0
EXTRACT: pitchwheel channel=6 pitch=-4480 time=0.016183027083333332
EXTRACT: pitchwheel channel=6 pitch=-4480 time=0
EXTRACT: pitchwheel channel=4 pitch=0 time=0.0027901770833333333
EXTRACT: pitchwheel channel=6 pitch=-4608 time=0.013392850000000001
EXTRACT: pitchwheel channel=6 pitch=-4608 time=0
EXTRACT: pitchwheel channel=6 pitch=-4736 time=0.016183027083333332
EXTRACT: pitchwheel channel=6 pitch=-4736 time=0
EXTRACT: pitchwheel channel=6 pitch=-4864 time=0.016183027083333332
EXTRACT: pitchwheel channel=6 pitch=-4864 time=0
EXTRACT: pitchwheel channel=6 pitch=-4992 time=0.016183027083333332
EXTRACT: pitchwheel channel=6 pitch=-4992 time=0
EXTRACT: pitchwheel channel=6 pitch=-5120 time=0.016183027083333332
EXTRACT: pitchwheel channel=6 pitch=-5120 time=0
EXTRACT: pitchwheel channel=6 pitch=-5248 time=0.016183027083333332
EXTRACT: pitchwheel channel=6 pitch=-5248 time=0
EXTRACT: pitchwheel channel=3 pitch=128 time=0.006138389583333333
EXTRACT: pitchwheel channel=6 pitch=-5376 time=0.0100446375
EXTRACT: pitchwheel channel=6 pitch=-5376 time=0
EXTRACT: pitchwheel channel=6 pitch=-5504 time=0.016183027083333332
EXTRACT: pitchwheel channel=6 pitch=-5504 time=0
EXTRACT: pitchwheel channel=4 pitch=128 time=0.007254460416666667
EXTRACT: pitchwheel channel=6 pitch=-5632 time=0.008928566666666667
EXTRACT: pitchwheel channel=6 pitch=-5632 time=0
EXTRACT: pitchwheel channel=6 pitch=-5760 time=0.016183027083333332
EXTRACT: pitchwheel channel=6 pitch=-5760 time=0
EXTRACT: pitchwheel channel=6 pitch=-5888 time=0.016183027083333332
EXTRACT: pitchwheel channel=6 pitch=-5888 time=0
EXTRACT: pitchwheel channel=6 pitch=-6016 time=0.016183027083333332
EXTRACT: pitchwheel channel=6 pitch=-6016 time=0
EXTRACT: pitchwheel channel=6 pitch=-6144 time=0.016183027083333332
EXTRACT: pitchwheel channel=6 pitch=-6144 time=0
EXTRACT: pitchwheel channel=6 pitch=-6272 time=0.016183027083333332
EXTRACT: pitchwheel channel=6 pitch=-6272 time=0
EXTRACT: pitchwheel channel=3 pitch=256 time=0.010602672916666667
EXTRACT: pitchwheel channel=3 pitch=256 time=0
EXTRACT: pitchwheel channel=3 pitch=0 time=0
EXTRACT: note_off channel=3 note=65 velocity=95 time=0
EXTRACT: note_off channel=8 note=23 velocity=95 time=0
EXTRACT: pitchwheel channel=6 pitch=-6400 time=0.005580354166666667
EXTRACT: pitchwheel channel=6 pitch=-6400 time=0
EXTRACT: pitchwheel channel=6 pitch=-6528 time=0.016183027083333332
EXTRACT: pitchwheel channel=6 pitch=-6528 time=0
EXTRACT: pitchwheel channel=4 pitch=256 time=0.01171874375
EXTRACT: pitchwheel channel=4 pitch=256 time=0
EXTRACT: pitchwheel channel=4 pitch=0 time=0
EXTRACT: note_off channel=4 note=65 velocity=95 time=0
EXTRACT: pitchwheel channel=6 pitch=-6656 time=0.0044642833333333335
EXTRACT: pitchwheel channel=6 pitch=-6656 time=0
EXTRACT: pitchwheel channel=6 pitch=-6784 time=0.016183027083333332
EXTRACT: pitchwheel channel=6 pitch=-6784 time=0
EXTRACT: pitchwheel channel=6 pitch=-6912 time=0.016183027083333332
EXTRACT: pitchwheel channel=6 pitch=-6912 time=0
EXTRACT: pitchwheel channel=6 pitch=-7040 time=0.016183027083333332
EXTRACT: pitchwheel channel=6 pitch=-7040 time=0
EXTRACT: pitchwheel channel=6 pitch=-7168 time=0.016183027083333332
EXTRACT: pitchwheel channel=6 pitch=-7168 time=0
EXTRACT: pitchwheel channel=6 pitch=-7296 time=0.016183027083333332
EXTRACT: pitchwheel channel=6 pitch=-7296 time=0
EXTRACT: pitchwheel channel=6 pitch=-7424 time=0.016183027083333332
EXTRACT: pitchwheel channel=6 pitch=-7424 time=0
EXTRACT: pitchwheel channel=6 pitch=-7552 time=0.016183027083333332
EXTRACT: pitchwheel channel=6 pitch=-7552 time=0
EXTRACT: pitchwheel channel=6 pitch=-7680 time=0.016183027083333332
EXTRACT: pitchwheel channel=6 pitch=-7680 time=0
EXTRACT: pitchwheel channel=6 pitch=-7808 time=0.016183027083333332
EXTRACT: pitchwheel channel=6 pitch=-7808 time=0
EXTRACT: pitchwheel channel=6 pitch=-7936 time=0.016183027083333332
EXTRACT: pitchwheel channel=6 pitch=-7936 time=0
EXTRACT: pitchwheel channel=6 pitch=-8064 time=0.016183027083333332
EXTRACT: pitchwheel channel=6 pitch=-8064 time=0
EXTRACT: pitchwheel channel=6 pitch=-8192 time=0.016183027083333332
EXTRACT: pitchwheel channel=6 pitch=-8192 time=0
EXTRACT: pitchwheel channel=6 pitch=-8192 time=0.016183027083333332
EXTRACT: pitchwheel channel=6 pitch=-8192 time=0
EXTRACT: pitchwheel channel=6 pitch=-8192 time=0.016183027083333332
EXTRACT: pitchwheel channel=6 pitch=-8192 time=0
EXTRACT: note_on channel=1 note=71 velocity=95 time=0.0033482125000000003
EXTRACT: note_on channel=1 note=66 velocity=95 time=0
EXTRACT: note_on channel=1 note=63 velocity=95 time=0
EXTRACT: note_on channel=1 note=59 velocity=95 time=0
EXTRACT: note_on channel=1 note=47 velocity=95 time=0
EXTRACT: pitchwheel channel=3 pitch=0 time=0
EXTRACT: note_on channel=3 note=70 velocity=95 time=0
EXTRACT: pitchwheel channel=6 pitch=-8192 time=0
EXTRACT: pitchwheel channel=6 pitch=0 time=0
EXTRACT: note_off channel=6 note=53 velocity=95 time=0
EXTRACT: pitchwheel channel=6 pitch=-8192 time=0
EXTRACT: pitchwheel channel=6 pitch=0 time=0
EXTRACT: note_off channel=6 note=53 velocity=95 time=0
EXTRACT: note_on channel=7 note=33 velocity=95 time=0
EXTRACT: note_on channel=8 note=23 velocity=95 time=0
EXTRACT: note_on channel=10 note=40 velocity=95 time=0
EXTRACT: note_off channel=9 note=28 velocity=95 time=0
EXTRACT: note_off channel=9 note=39 velocity=95 time=0
EXTRACT: note_on channel=9 note=36 velocity=95 time=0
EXTRACT: pitchwheel channel=4 pitch=0 time=0.033482125
EXTRACT: note_on channel=4 note=70 velocity=95 time=0
EXTRACT: pitchwheel channel=3 pitch=-128 time=0.0027901770833333333
EXTRACT: note_off channel=10 note=40 velocity=95 time=0.030691947916666667
EXTRACT: pitchwheel channel=4 pitch=-128 time=0.0027901770833333333
EXTRACT: pitchwheel channel=3 pitch=-256 time=0.0027901770833333333
EXTRACT: pitchwheel channel=4 pitch=-256 time=0.033482125
EXTRACT: pitchwheel channel=3 pitch=-384 time=0.0027901770833333333
EXTRACT: pitchwheel channel=4 pitch=-384 time=0.033482125
EXTRACT: pitchwheel channel=3 pitch=-512 time=0.0027901770833333333
EXTRACT: pitchwheel channel=4 pitch=-512 time=0.033482125
EXTRACT: pitchwheel channel=3 pitch=-640 time=0.0027901770833333333
EXTRACT: pitchwheel channel=4 pitch=-640 time=0.033482125
EXTRACT: pitchwheel channel=3 pitch=-768 time=0.0027901770833333333
EXTRACT: pitchwheel channel=4 pitch=-768 time=0.033482125
EXTRACT: pitchwheel channel=3 pitch=-896 time=0.0027901770833333333
EXTRACT: note_off channel=5 note=64 velocity=95 time=0.013950885416666668
EXTRACT: note_off channel=5 note=59 velocity=95 time=0
EXTRACT: note_off channel=5 note=55 velocity=95 time=0
EXTRACT: note_off channel=5 note=50 velocity=95 time=0
EXTRACT: pitchwheel channel=4 pitch=-896 time=0.019531239583333335
EXTRACT: pitchwheel channel=3 pitch=-1024 time=0.0027901770833333333
EXTRACT: pitchwheel channel=4 pitch=-1024 time=0.033482125
EXTRACT: pitchwheel channel=3 pitch=-1152 time=0.0027901770833333333
EXTRACT: pitchwheel channel=4 pitch=-1152 time=0.033482125
EXTRACT: pitchwheel channel=3 pitch=-1280 time=0.0027901770833333333
EXTRACT: pitchwheel channel=4 pitch=-1280 time=0.033482125
EXTRACT: pitchwheel channel=3 pitch=-1408 time=0.0027901770833333333
EXTRACT: pitchwheel channel=3 pitch=-1408 time=0.0027901770833333333
EXTRACT: pitchwheel channel=3 pitch=0 time=0
EXTRACT: note_off channel=3 note=70 velocity=95 time=0
EXTRACT: pitchwheel channel=3 pitch=0 time=0
EXTRACT: note_on channel=3 note=68 velocity=95 time=0
EXTRACT: pitchwheel channel=4 pitch=-1408 time=0.030691947916666667
EXTRACT: pitchwheel channel=4 pitch=-1408 time=0.0027901770833333333
EXTRACT: pitchwheel channel=4 pitch=0 time=0
EXTRACT: note_off channel=4 note=70 velocity=95 time=0
EXTRACT: pitchwheel channel=4 pitch=0 time=0
EXTRACT: note_on channel=4 note=68 velocity=95 time=0
EXTRACT: pitchwheel channel=3 pitch=-128 time=0.020089275
EXTRACT: pitchwheel channel=4 pitch=-128 time=0.033482125
EXTRACT: pitchwheel channel=3 pitch=-256 time=0.020089275
EXTRACT: note_on channel=5 note=64 velocity=95 time=0.026785700000000003
EXTRACT: note_on channel=5 note=59 velocity=95 time=0
EXTRACT: note_on channel=5 note=55 velocity=95 time=0
EXTRACT: note_on channel=5 note=50 velocity=95 time=0
EXTRACT: note_off channel=7 note=33 velocity=95 time=0
EXTRACT: note_off channel=8 note=23 velocity=95 time=0
EXTRACT: note_off channel=9 note=36 velocity=95 time=0
EXTRACT: note_on channel=9 note=28 velocity=95 time=0
EXTRACT: note_on channel=9 note=39 velocity=95 time=0
EXTRACT: pitchwheel channel=4 pitch=-256 time=0.006696425000000001
EXTRACT: pitchwheel channel=3 pitch=-384 time=0.020089275
EXTRACT: pitchwheel channel=4 pitch=-384 time=0.033482125
EXTRACT: pitchwheel channel=3 pitch=-512 time=0.020089275
EXTRACT: pitchwheel channel=4 pitch=-512 time=0.033482125
EXTRACT: pitchwheel channel=3 pitch=-640 time=0.020089275
EXTRACT: pitchwheel channel=3 pitch=-640 time=0
EXTRACT: pitchwheel channel=3 pitch=0 time=0
EXTRACT: note_off channel=3 note=68 velocity=95 time=0
EXTRACT: note_on channel=3 note=67 velocity=95 time=0
EXTRACT: pitchwheel channel=4 pitch=-640 time=0.033482125
EXTRACT: pitchwheel channel=4 pitch=-640 time=0
EXTRACT: pitchwheel channel=4 pitch=0 time=0
EXTRACT: note_off channel=4 note=68 velocity=95 time=0
EXTRACT: note_on channel=4 note=67 velocity=95 time=0
EXTRACT: note_off channel=3 note=67 velocity=95 time=0.100446375
EXTRACT: pitchwheel channel=3 pitch=0 time=0
EXTRACT: note_on channel=3 note=67 velocity=95 time=0
EXTRACT: note_on channel=7 note=33 velocity=95 time=0
EXTRACT: note_on channel=8 note=23 velocity=95 time=0
EXTRACT: note_on channel=10 note=40 velocity=95 time=0
EXTRACT: note_off channel=9 note=28 velocity=95 time=0
EXTRACT: note_off channel=9 note=39 velocity=95 time=0
EXTRACT: note_on channel=9 note=36 velocity=95 time=0
EXTRACT: note_off channel=4 note=67 velocity=95 time=0.033482125
EXTRACT: pitchwheel channel=4 pitch=0 time=0
EXTRACT: note_on channel=4 note=67 velocity=95 time=0
EXTRACT: pitchwheel channel=3 pitch=-128 time=0.020089275
EXTRACT: note_off channel=10 note=40 velocity=95 time=0.013392850000000001
EXTRACT: pitchwheel channel=4 pitch=-128 time=0.020089275
EXTRACT: pitchwheel channel=3 pitch=-256 time=0.020089275
EXTRACT: pitchwheel channel=4 pitch=-256 time=0.033482125
EXTRACT: pitchwheel channel=3 pitch=-384 time=0.020089275
EXTRACT: pitchwheel channel=4 pitch=-384 time=0.033482125
EXTRACT: pitchwheel channel=3 pitch=-512 time=0.020089275
EXTRACT: pitchwheel channel=4 pitch=-512 time=0.033482125
EXTRACT: note_off channel=1 note=66 velocity=95 time=0.020089275
EXTRACT: note_off channel=1 note=59 velocity=95 time=0
EXTRACT: note_off channel=1 note=47 velocity=95 time=0
EXTRACT: note_on channel=1 note=70 velocity=95 time=0
EXTRACT: note_on channel=1 note=58 velocity=95 time=0
EXTRACT: note_on channel=1 note=46 velocity=95 time=0
EXTRACT: pitchwheel channel=3 pitch=-640 time=0
EXTRACT: pitchwheel channel=3 pitch=-640 time=0
EXTRACT: pitchwheel channel=3 pitch=0 time=0
EXTRACT: note_off channel=3 note=67 velocity=95 time=0
EXTRACT: pitchwheel channel=3 pitch=256 time=0
EXTRACT: note_on channel=3 note=67 velocity=95 time=0
EXTRACT: note_off channel=9 note=36 velocity=95 time=0
EXTRACT: pitchwheel channel=4 pitch=-640 time=0.033482125
EXTRACT: pitchwheel channel=4 pitch=-640 time=0
EXTRACT: pitchwheel channel=4 pitch=0 time=0
EXTRACT: note_off channel=4 note=67 velocity=95 time=0
EXTRACT: pitchwheel channel=4 pitch=256 time=0
EXTRACT: note_on channel=4 note=67 velocity=95 time=0
EXTRACT: pitchwheel channel=3 pitch=128 time=0.100446375
EXTRACT: pitchwheel channel=4 pitch=128 time=0.033482125
EXTRACT: pitchwheel channel=3 pitch=0 time=0.100446375
EXTRACT: pitchwheel channel=3 pitch=0 time=0
EXTRACT: pitchwheel channel=3 pitch=0 time=0
EXTRACT: note_off channel=3 note=67 velocity=95 time=0
EXTRACT: pitchwheel channel=3 pitch=0 time=0
EXTRACT: note_on channel=3 note=68 velocity=95 time=0
EXTRACT: note_off channel=5 note=64 velocity=95 time=0
EXTRACT: note_off channel=5 note=59 velocity=95 time=0
EXTRACT: note_off channel=5 note=55 velocity=95 time=0
EXTRACT: note_off channel=5 note=50 velocity=95 time=0
EXTRACT: note_off channel=7 note=33 velocity=95 time=0
EXTRACT: note_on channel=7 note=33 velocity=95 time=0
EXTRACT: note_off channel=8 note=23 velocity=95 time=0
EXTRACT: note_on channel=8 note=23 velocity=95 time=0
EXTRACT: note_on channel=10 note=40 velocity=95 time=0
EXTRACT: note_on channel=9 note=36 velocity=95 time=0
EXTRACT: pitchwheel channel=4 pitch=0 time=0.033482125
EXTRACT: pitchwheel channel=4 pitch=0 time=0
EXTRACT: pitchwheel channel=4 pitch=0 time=0
EXTRACT: note_off channel=4 note=67 velocity=95 time=0
EXTRACT: pitchwheel channel=4 pitch=0 time=0
EXTRACT: note_on channel=4 note=68 velocity=95 time=0
EXTRACT: pitchwheel channel=3 pitch=-128 time=0.020089275
EXTRACT: note_off channel=10 note=40 velocity=95 time=0.013392850000000001
EXTRACT: pitchwheel channel=4 pitch=-128 time=0.020089275
EXTRACT: pitchwheel channel=3 pitch=-256 time=0.020089275
EXTRACT: pitchwheel channel=4 pitch=-256 time=0.033482125
EXTRACT: pitchwheel channel=3 pitch=-384 time=0.020089275
EXTRACT: pitchwheel channel=4 pitch=-384 time=0.033482125
EXTRACT: pitchwheel channel=3 pitch=-512 time=0.020089275
EXTRACT: pitchwheel channel=4 pitch=-512 time=0.033482125
EXTRACT: pitchwheel channel=3 pitch=-640 time=0.020089275
EXTRACT: pitchwheel channel=3 pitch=-640 time=0
EXTRACT: pitchwheel channel=3 pitch=0 time=0
EXTRACT: note_off channel=3 note=68 velocity=95 time=0
EXTRACT: pitchwheel channel=3 pitch=0 time=0
EXTRACT: note_on channel=3 note=68 velocity=95 time=0
EXTRACT: note_on channel=5 note=64 velocity=95 time=0
EXTRACT: note_on channel=5 note=59 velocity=95 time=0
EXTRACT: note_on channel=5 note=55 velocity=95 time=0
EXTRACT: note_on channel=5 note=50 velocity=95 time=0
EXTRACT: note_off channel=7 note=33 velocity=95 time=0
EXTRACT: note_off channel=9 note=36 velocity=95 time=0
EXTRACT: note_on channel=9 note=28 velocity=95 time=0
EXTRACT: note_on channel=9 note=39 velocity=95 time=0
EXTRACT: pitchwheel channel=3 pitch=-128 time=0.021205345833333333
EXTRACT: pitchwheel channel=4 pitch=-640 time=0.012276779166666666
EXTRACT: pitchwheel channel=4 pitch=-640 time=0
EXTRACT: pitchwheel channel=4 pitch=0 time=0
EXTRACT: note_off channel=4 note=68 velocity=95 time=0
EXTRACT: pitchwheel channel=4 pitch=0 time=0
EXTRACT: note_on channel=4 note=68 velocity=95 time=0
EXTRACT: pitchwheel channel=3 pitch=-256 time=0.008928566666666667
EXTRACT: pitchwheel channel=4 pitch=-128 time=0.012276779166666666
EXTRACT: pitchwheel channel=3 pitch=-384 time=0.008928566666666667
EXTRACT: pitchwheel channel=4 pitch=-256 time=0.012276779166666666
EXTRACT: pitchwheel channel=3 pitch=-512 time=0.008928566666666667
EXTRACT: pitchwheel channel=4 pitch=-384 time=0.012276779166666666
EXTRACT: pitchwheel channel=3 pitch=-640 time=0.008928566666666667
EXTRACT: pitchwheel channel=4 pitch=-512 time=0.012276779166666666
EXTRACT: pitchwheel channel=3 pitch=-768 time=0.008928566666666667
EXTRACT: pitchwheel channel=4 pitch=-640 time=0.012276779166666666
EXTRACT: pitchwheel channel=3 pitch=-896 time=0.008928566666666667
EXTRACT: pitchwheel channel=4 pitch=-768 time=0.012276779166666666
EXTRACT: pitchwheel channel=3 pitch=-1024 time=0.008928566666666667
EXTRACT: pitchwheel channel=4 pitch=-896 time=0.012276779166666666
EXTRACT: pitchwheel channel=3 pitch=-1152 time=0.008928566666666667
EXTRACT: pitchwheel channel=4 pitch=-1024 time=0.012276779166666666
EXTRACT: pitchwheel channel=3 pitch=-1280 time=0.008928566666666667
EXTRACT: pitchwheel channel=4 pitch=-1152 time=0.012276779166666666
EXTRACT: pitchwheel channel=3 pitch=-1408 time=0.008928566666666667
EXTRACT: pitchwheel channel=3 pitch=-1408 time=0.0011160708333333334
EXTRACT: pitchwheel channel=3 pitch=0 time=0
EXTRACT: note_off channel=3 note=68 velocity=95 time=0
EXTRACT: pitchwheel channel=4 pitch=-1280 time=0.011160708333333333
EXTRACT: pitchwheel channel=4 pitch=-1408 time=0.021205345833333333
EXTRACT: pitchwheel channel=3 pitch=0 time=0.0011160708333333334
EXTRACT: note_on channel=3 note=66 velocity=95 time=0
EXTRACT: pitchwheel channel=4 pitch=-1408 time=0
EXTRACT: pitchwheel channel=4 pitch=0 time=0
EXTRACT: note_off channel=4 note=68 velocity=95 time=0
EXTRACT: note_off channel=8 note=23 velocity=95 time=0
EXTRACT: pitchwheel channel=4 pitch=0 time=0.033482125
EXTRACT: note_on channel=4 note=66 velocity=95 time=0
EXTRACT: pitchwheel channel=3 pitch=128 time=0.033482125
EXTRACT: pitchwheel channel=4 pitch=128 time=0.033482125
EXTRACT: pitchwheel channel=3 pitch=256 time=0.033482125
EXTRACT: pitchwheel channel=3 pitch=256 time=0
EXTRACT: pitchwheel channel=3 pitch=0 time=0
EXTRACT: note_off channel=3 note=66 velocity=95 time=0
EXTRACT: pitchwheel channel=3 pitch=0 time=0
EXTRACT: note_on channel=3 note=66 velocity=95 time=0
EXTRACT: pitchwheel channel=4 pitch=256 time=0.033482125
EXTRACT: pitchwheel channel=4 pitch=256 time=0
EXTRACT: pitchwheel channel=4 pitch=0 time=0
EXTRACT: note_off channel=4 note=66 velocity=95 time=0
EXTRACT: pitchwheel channel=4 pitch=0 time=0
EXTRACT: note_on channel=4 note=66 velocity=95 time=0
EXTRACT: pitchwheel channel=3 pitch=128 time=0.033482125
EXTRACT: pitchwheel channel=4 pitch=128 time=0.033482125
EXTRACT: note_off channel=1 note=71 velocity=95 time=0.033482125
EXTRACT: note_off channel=1 note=63 velocity=95 time=0
EXTRACT: note_off channel=1 note=70 velocity=95 time=0
EXTRACT: note_off channel=1 note=58 velocity=95 time=0
EXTRACT: note_off channel=1 note=46 velocity=95 time=0
EXTRACT: note_on channel=1 note=71 velocity=95 time=0
EXTRACT: note_on channel=1 note=66 velocity=95 time=0
EXTRACT: note_on channel=1 note=63 velocity=95 time=0
EXTRACT: note_on channel=1 note=59 velocity=95 time=0
EXTRACT: note_on channel=1 note=47 velocity=95 time=0
EXTRACT: pitchwheel channel=3 pitch=256 time=0
EXTRACT: pitchwheel channel=3 pitch=256 time=0
EXTRACT: pitchwheel channel=3 pitch=0 time=0
EXTRACT: note_off channel=3 note=66 velocity=95 time=0
EXTRACT: pitchwheel channel=3 pitch=1024 time=0
EXTRACT: note_on channel=3 note=66 velocity=95 time=0
EXTRACT: note_on channel=7 note=33 velocity=95 time=0
EXTRACT: note_on channel=8 note=23 velocity=95 time=0
EXTRACT: note_on channel=10 note=40 velocity=95 time=0
EXTRACT: note_off channel=9 note=28 velocity=95 time=0
EXTRACT: note_off channel=9 note=39 velocity=95 time=0
EXTRACT: note_on channel=9 note=36 velocity=95 time=0
EXTRACT: pitchwheel channel=4 pitch=256 time=0.033482125
EXTRACT: pitchwheel channel=4 pitch=256 time=0
EXTRACT: pitchwheel channel=4 pitch=0 time=0
EXTRACT: note_off channel=4 note=66 velocity=95 time=0
EXTRACT: pitchwheel channel=4 pitch=1024 time=0
EXTRACT: note_on channel=4 note=66 velocity=95 time=0
EXTRACT: pitchwheel channel=3 pitch=896 time=0.005580354166666667
EXTRACT: note_off channel=10 note=40 velocity=95 time=0.027901770833333336
EXTRACT: pitchwheel channel=4 pitch=896 time=0.005580354166666667
EXTRACT: pitchwheel channel=3 pitch=768 time=0.005580354166666667
EXTRACT: pitchwheel channel=4 pitch=768 time=0.033482125
EXTRACT: pitchwheel channel=3 pitch=640 time=0.005580354166666667
EXTRACT: pitchwheel channel=4 pitch=640 time=0.033482125
EXTRACT: pitchwheel channel=3 pitch=512 time=0.005580354166666667
EXTRACT: pitchwheel channel=4 pitch=512 time=0.033482125
EXTRACT: pitchwheel channel=3 pitch=384 time=0.005580354166666667
EXTRACT: pitchwheel channel=4 pitch=384 time=0.033482125
EXTRACT: pitchwheel channel=3 pitch=256 time=0.005580354166666667
EXTRACT: pitchwheel channel=3 pitch=256 time=0
EXTRACT: pitchwheel channel=3 pitch=0 time=0
EXTRACT: note_off channel=3 note=66 velocity=95 time=0
EXTRACT: pitchwheel channel=3 pitch=1024 time=0.033482125
EXTRACT: note_on channel=3 note=66 velocity=95 time=0
EXTRACT: pitchwheel channel=4 pitch=256 time=0
EXTRACT: pitchwheel channel=4 pitch=256 time=0
EXTRACT: pitchwheel channel=4 pitch=0 time=0
EXTRACT: note_off channel=4 note=66 velocity=95 time=0
EXTRACT: note_off channel=5 note=64 velocity=95 time=0
EXTRACT: note_off channel=5 note=59 velocity=95 time=0
EXTRACT: note_off channel=5 note=55 velocity=95 time=0
EXTRACT: note_off channel=5 note=50 velocity=95 time=0
EXTRACT: pitchwheel channel=3 pitch=896 time=0.022321416666666666
EXTRACT: pitchwheel channel=4 pitch=1024 time=0.011160708333333333
EXTRACT: note_on channel=4 note=66 velocity=95 time=0
EXTRACT: pitchwheel channel=3 pitch=768 time=0.011160708333333333
EXTRACT: pitchwheel channel=4 pitch=896 time=0.011160708333333333
EXTRACT: pitchwheel channel=3 pitch=640 time=0.011160708333333333
EXTRACT: pitchwheel channel=4 pitch=768 time=0.011160708333333333
EXTRACT: pitchwheel channel=3 pitch=512 time=0.011160708333333333
EXTRACT: pitchwheel channel=4 pitch=640 time=0.011160708333333333
EXTRACT: pitchwheel channel=3 pitch=384 time=0.011160708333333333
EXTRACT: pitchwheel channel=4 pitch=512 time=0.011160708333333333
EXTRACT: pitchwheel channel=3 pitch=256 time=0.011160708333333333
EXTRACT: pitchwheel channel=3 pitch=256 time=0
EXTRACT: pitchwheel channel=3 pitch=0 time=0
EXTRACT: note_off channel=3 note=66 velocity=95 time=0
EXTRACT: pitchwheel channel=3 pitch=256 time=0
EXTRACT: note_on channel=3 note=67 velocity=95 time=0
EXTRACT: pitchwheel channel=4 pitch=384 time=0.011160708333333333
EXTRACT: pitchwheel channel=4 pitch=256 time=0.022321416666666666
EXTRACT: pitchwheel channel=4 pitch=256 time=0
EXTRACT: pitchwheel channel=4 pitch=0 time=0
EXTRACT: note_off channel=4 note=66 velocity=95 time=0
EXTRACT: pitchwheel channel=4 pitch=256 time=0
EXTRACT: note_on channel=4 note=67 velocity=95 time=0
EXTRACT: pitchwheel channel=3 pitch=128 time=0.100446375
EXTRACT: note_on channel=5 note=64 velocity=95 time=0
EXTRACT: note_on channel=5 note=59 velocity=95 time=0
EXTRACT: note_on channel=5 note=55 velocity=95 time=0
EXTRACT: note_on channel=5 note=50 velocity=95 time=0
EXTRACT: note_off channel=7 note=33 velocity=95 time=0
EXTRACT: note_off channel=8 note=23 velocity=95 time=0
EXTRACT: note_off channel=9 note=36 velocity=95 time=0
EXTRACT: note_on channel=9 note=28 velocity=95 time=0
EXTRACT: note_on channel=9 note=39 velocity=95 time=0
EXTRACT: pitchwheel channel=4 pitch=128 time=0.033482125
EXTRACT: pitchwheel channel=3 pitch=0 time=0.100446375
EXTRACT: pitchwheel channel=3 pitch=0 time=0
EXTRACT: pitchwheel channel=3 pitch=0 time=0
EXTRACT: note_off channel=3 note=67 velocity=95 time=0
EXTRACT: pitchwheel channel=3 pitch=0 time=0
EXTRACT: note_on channel=3 note=66 velocity=95 time=0
EXTRACT: note_on channel=7 note=33 velocity=95 time=0
EXTRACT: note_on channel=8 note=23 velocity=95 time=0
EXTRACT: note_on channel=10 note=40 velocity=95 time=0
EXTRACT: note_off channel=9 note=28 velocity=95 time=0
EXTRACT: note_off channel=9 note=39 velocity=95 time=0
EXTRACT: note_on channel=9 note=36 velocity=95 time=0
EXTRACT: pitchwheel channel=3 pitch=128 time=0.026785700000000003
EXTRACT: pitchwheel channel=4 pitch=0 time=0.006696425000000001
EXTRACT: pitchwheel channel=4 pitch=0 time=0
EXTRACT: pitchwheel channel=4 pitch=0 time=0
EXTRACT: note_off channel=4 note=67 velocity=95 time=0
EXTRACT: pitchwheel channel=4 pitch=0 time=0
EXTRACT: note_on channel=4 note=66 velocity=95 time=0
EXTRACT: pitchwheel channel=3 pitch=256 time=0.020089275
EXTRACT: pitchwheel channel=4 pitch=128 time=0.006696425000000001
EXTRACT: note_off channel=10 note=40 velocity=95 time=0.006696425000000001
EXTRACT: pitchwheel channel=3 pitch=384 time=0.013392850000000001
EXTRACT: pitchwheel channel=4 pitch=256 time=0.006696425000000001
EXTRACT: pitchwheel channel=3 pitch=512 time=0.020089275
EXTRACT: pitchwheel channel=4 pitch=384 time=0.006696425000000001
EXTRACT: pitchwheel channel=3 pitch=640 time=0.020089275
EXTRACT: pitchwheel channel=3 pitch=640 time=0
EXTRACT: pitchwheel channel=3 pitch=0 time=0
EXTRACT: note_off channel=3 note=66 velocity=95 time=0
EXTRACT: pitchwheel channel=3 pitch=0 time=0
EXTRACT: note_on channel=3 note=67 velocity=95 time=0
EXTRACT: note_off channel=7 note=33 velocity=95 time=0
EXTRACT: note_on channel=7 note=33 velocity=95 time=0
EXTRACT: note_off channel=8 note=23 velocity=95 time=0
EXTRACT: note_on channel=8 note=23 velocity=95 time=0
EXTRACT: note_on channel=10 note=40 velocity=95 time=0
EXTRACT: note_off channel=9 note=36 velocity=95 time=0
EXTRACT: note_on channel=9 note=36 velocity=95 time=0
EXTRACT: pitchwheel channel=4 pitch=512 time=0.006696425000000001
EXTRACT: pitchwheel channel=4 pitch=640 time=0.026785700000000003
EXTRACT: pitchwheel channel=4 pitch=640 time=0
EXTRACT: pitchwheel channel=4 pitch=0 time=0
EXTRACT: note_off channel=4 note=66 velocity=95 time=0
EXTRACT: pitchwheel channel=4 pitch=0 time=0
EXTRACT: note_on channel=4 note=67 velocity=95 time=0
EXTRACT: pitchwheel channel=3 pitch=-128 time=0.020089275
EXTRACT: note_off channel=10 note=40 velocity=95 time=0.013392850000000001
EXTRACT: pitchwheel channel=4 pitch=-128 time=0.020089275
EXTRACT: pitchwheel channel=3 pitch=-256 time=0.020089275
EXTRACT: pitchwheel channel=4 pitch=-256 time=0.033482125
EXTRACT: pitchwheel channel=3 pitch=-384 time=0.020089275
EXTRACT: pitchwheel channel=4 pitch=-384 time=0.033482125
EXTRACT: pitchwheel channel=3 pitch=-512 time=0.020089275
EXTRACT: pitchwheel channel=4 pitch=-512 time=0.033482125
EXTRACT: note_off channel=1 note=71 velocity=95 time=0.020089275
EXTRACT: note_off channel=1 note=66 velocity=95 time=0
EXTRACT: note_off channel=1 note=63 velocity=95 time=0
EXTRACT: note_off channel=1 note=59 velocity=95 time=0
EXTRACT: note_off channel=1 note=47 velocity=95 time=0
EXTRACT: note_on channel=1 note=68 velocity=95 time=0
EXTRACT: note_on channel=1 note=65 velocity=95 time=0
EXTRACT: note_on channel=1 note=61 velocity=95 time=0
EXTRACT: note_on channel=1 note=46 velocity=95 time=0
EXTRACT: pitchwheel channel=2 pitch=0 time=0
EXTRACT: note_on channel=2 note=73 velocity=95 time=0
EXTRACT: pitchwheel channel=3 pitch=-640 time=0
EXTRACT: pitchwheel channel=3 pitch=-640 time=0
EXTRACT: pitchwheel channel=3 pitch=0 time=0
EXTRACT: note_off channel=3 note=67 velocity=95 time=0
EXTRACT: pitchwheel channel=3 pitch=0 time=0
EXTRACT: note_on channel=3 note=67 velocity=95 time=0
EXTRACT: pitchwheel channel=6 pitch=0 time=0
EXTRACT: note_on channel=6 note=53 velocity=95 time=0
EXTRACT: pitchwheel channel=6 pitch=0 time=0
EXTRACT: note_on channel=6 note=53 velocity=95 time=0
EXTRACT: note_off channel=7 note=33 velocity=95 time=0
EXTRACT: note_off channel=9 note=36 velocity=95 time=0
EXTRACT: pitchwheel channel=6 pitch=-128 time=0.016183027083333332
EXTRACT: pitchwheel channel=6 pitch=-128 time=0
EXTRACT: pitchwheel channel=6 pitch=-256 time=0.016183027083333332
EXTRACT: pitchwheel channel=6 pitch=-256 time=0
EXTRACT: pitchwheel channel=4 pitch=-640 time=0.0011160708333333334
EXTRACT: pitchwheel channel=4 pitch=-640 time=0
EXTRACT: pitchwheel channel=4 pitch=0 time=0
EXTRACT: note_off channel=4 note=67 velocity=95 time=0
EXTRACT: pitchwheel channel=4 pitch=0 time=0
EXTRACT: note_on channel=4 note=67 velocity=95 time=0
EXTRACT: pitchwheel channel=6 pitch=-384 time=0.015066956250000001
EXTRACT: pitchwheel channel=6 pitch=-384 time=0
EXTRACT: pitchwheel channel=3 pitch=-128 time=0.00502231875
EXTRACT: pitchwheel channel=6 pitch=-512 time=0.011160708333333333
EXTRACT: pitchwheel channel=6 pitch=-512 time=0
EXTRACT: pitchwheel channel=6 pitch=-640 time=0.016183027083333332
EXTRACT: pitchwheel channel=6 pitch=-640 time=0
EXTRACT: pitchwheel channel=4 pitch=-128 time=0.006138389583333333
EXTRACT: pitchwheel channel=6 pitch=-768 time=0.0100446375
EXTRACT: pitchwheel channel=6 pitch=-768 time=0
EXTRACT: pitchwheel channel=3 pitch=-256 time=0.0100446375
EXTRACT: pitchwheel channel=6 pitch=-896 time=0.006138389583333333
EXTRACT: pitchwheel channel=6 pitch=-896 time=0
EXTRACT: pitchwheel channel=6 pitch=-1024 time=0.016183027083333332
EXTRACT: pitchwheel channel=6 pitch=-1024 time=0
EXTRACT: pitchwheel channel=4 pitch=-256 time=0.011160708333333333
EXTRACT: pitchwheel channel=6 pitch=-1152 time=0.00502231875
EXTRACT: pitchwheel channel=6 pitch=-1152 time=0
EXTRACT: pitchwheel channel=3 pitch=-384 time=0.015066956250000001
EXTRACT: pitchwheel channel=6 pitch=-1280 time=0.0011160708333333334
EXTRACT: pitchwheel channel=6 pitch=-1280 time=0
EXTRACT: pitchwheel channel=6 pitch=-1408 time=0.016183027083333332
EXTRACT: pitchwheel channel=6 pitch=-1408 time=0
EXTRACT: pitchwheel channel=4 pitch=-384 time=0.016183027083333332
EXTRACT: pitchwheel channel=6 pitch=-1536 time=0
EXTRACT: pitchwheel channel=6 pitch=-1536 time=0
EXTRACT: pitchwheel channel=6 pitch=-1664 time=0.016183027083333332
EXTRACT: pitchwheel channel=6 pitch=-1664 time=0
EXTRACT: pitchwheel channel=3 pitch=-512 time=0.003906247916666667
EXTRACT: pitchwheel channel=6 pitch=-1792 time=0.012276779166666666
EXTRACT: pitchwheel channel=6 pitch=-1792 time=0
EXTRACT: pitchwheel channel=6 pitch=-1920 time=0.016183027083333332
EXTRACT: pitchwheel channel=6 pitch=-1920 time=0
EXTRACT: pitchwheel channel=4 pitch=-512 time=0.00502231875
EXTRACT: pitchwheel channel=6 pitch=-2048 time=0.011160708333333333
EXTRACT: pitchwheel channel=6 pitch=-2048 time=0
EXTRACT: pitchwheel channel=3 pitch=-640 time=0.008928566666666667
EXTRACT: pitchwheel channel=3 pitch=-640 time=0
EXTRACT: pitchwheel channel=3 pitch=0 time=0
EXTRACT: note_off channel=3 note=67 velocity=95 time=0
EXTRACT: pitchwheel channel=3 pitch=0 time=0
EXTRACT: note_on channel=3 note=66 velocity=95 time=0
EXTRACT: note_off channel=5 note=64 velocity=95 time=0
EXTRACT: note_off channel=5 note=59 velocity=95 time=0
EXTRACT: note_off channel=5 note=55 velocity=95 time=0
EXTRACT: note_off channel=5 note=50 velocity=95 time=0
EXTRACT: note_on channel=7 note=33 velocity=95 time=0
EXTRACT: note_off channel=8 note=23 velocity=95 time=0
EXTRACT: note_on channel=8 note=23 velocity=95 time=0
EXTRACT: note_on channel=10 note=40 velocity=95 time=0
EXTRACT: note_on channel=9 note=36 velocity=95 time=0
EXTRACT: pitchwheel channel=6 pitch=-2176 time=0.007254460416666667
EXTRACT: pitchwheel channel=6 pitch=-2176 time=0
EXTRACT: pitchwheel channel=6 pitch=-2304 time=0.016183027083333332
EXTRACT: pitchwheel channel=6 pitch=-2304 time=0
EXTRACT: pitchwheel channel=4 pitch=-640 time=0.0100446375
EXTRACT: pitchwheel channel=4 pitch=-640 time=0
EXTRACT: pitchwheel channel=4 pitch=0 time=0
EXTRACT: note_off channel=4 note=67 velocity=95 time=0
EXTRACT: pitchwheel channel=4 pitch=0 time=0
EXTRACT: note_on channel=4 note=66 velocity=95 time=0
EXTRACT: pitchwheel channel=6 pitch=-2432 time=0.006138389583333333
EXTRACT: pitchwheel channel=6 pitch=-2432 time=0
EXTRACT: pitchwheel channel=6 pitch=-2560 time=0.016183027083333332
EXTRACT: pitchwheel channel=6 pitch=-2560 time=0
EXTRACT: note_off channel=10 note=40 velocity=95 time=0.011160708333333333
EXTRACT: pitchwheel channel=6 pitch=-2688 time=0.00502231875
EXTRACT: pitchwheel channel=6 pitch=-2688 time=0
EXTRACT: pitchwheel channel=6 pitch=-2816 time=0.016183027083333332
EXTRACT: pitchwheel channel=6 pitch=-2816 time=0
EXTRACT: pitchwheel channel=6 pitch=-2944 time=0.016183027083333332
EXTRACT: pitchwheel channel=6 pitch=-2944 time=0
EXTRACT: pitchwheel channel=6 pitch=-3072 time=0.016183027083333332
EXTRACT: pitchwheel channel=6 pitch=-3072 time=0
EXTRACT: pitchwheel channel=3 pitch=128 time=0.013392850000000001
EXTRACT: pitchwheel channel=6 pitch=-3200 time=0.0027901770833333333
EXTRACT: pitchwheel channel=6 pitch=-3200 time=0
EXTRACT: pitchwheel channel=6 pitch=-3328 time=0.016183027083333332
EXTRACT: pitchwheel channel=6 pitch=-3328 time=0
EXTRACT: pitchwheel channel=4 pitch=128 time=0.014508920833333334
EXTRACT: pitchwheel channel=6 pitch=-3456 time=0.0016741062500000002
EXTRACT: pitchwheel channel=6 pitch=-3456 time=0
EXTRACT: pitchwheel channel=6 pitch=-3584 time=0.016183027083333332
EXTRACT: pitchwheel channel=6 pitch=-3584 time=0
EXTRACT: pitchwheel channel=6 pitch=-3712 time=0.016183027083333332
EXTRACT: pitchwheel channel=6 pitch=-3712 time=0
EXTRACT: pitchwheel channel=6 pitch=-3840 time=0.016183027083333332
EXTRACT: pitchwheel channel=6 pitch=-3840 time=0
EXTRACT: pitchwheel channel=6 pitch=-3968 time=0.016183027083333332
EXTRACT: pitchwheel channel=6 pitch=-3968 time=0
EXTRACT: pitchwheel channel=6 pitch=-4096 time=0.016183027083333332
EXTRACT: pitchwheel channel=6 pitch=-4096 time=0
EXTRACT: pitchwheel channel=6 pitch=-4224 time=0.016183027083333332
EXTRACT: pitchwheel channel=6 pitch=-4224 time=0
EXTRACT: pitchwheel channel=3 pitch=256 time=0.0016741062500000002
EXTRACT: pitchwheel channel=3 pitch=256 time=0
EXTRACT: pitchwheel channel=3 pitch=0 time=0
EXTRACT: note_off channel=3 note=66 velocity=95 time=0
EXTRACT: pitchwheel channel=3 pitch=0 time=0
EXTRACT: note_on channel=3 note=67 velocity=95 time=0
EXTRACT: note_on channel=5 note=64 velocity=95 time=0
EXTRACT: note_on channel=5 note=59 velocity=95 time=0
EXTRACT: note_on channel=5 note=55 velocity=95 time=0
EXTRACT: note_on channel=5 note=50 velocity=95 time=0
EXTRACT: note_off channel=7 note=33 velocity=95 time=0
EXTRACT: note_off channel=9 note=36 velocity=95 time=0
EXTRACT: note_on channel=9 note=28 velocity=95 time=0
EXTRACT: note_on channel=9 note=39 velocity=95 time=0
EXTRACT: pitchwheel channel=6 pitch=-4352 time=0.014508920833333334
EXTRACT: pitchwheel channel=6 pitch=-4352 time=0
EXTRACT: pitchwheel channel=3 pitch=-128 time=0.0033482125000000003
EXTRACT: pitchwheel channel=6 pitch=-4480 time=0.012834814583333333
EXTRACT: pitchwheel channel=6 pitch=-4480 time=0
EXTRACT: pitchwheel channel=4 pitch=256 time=0.0027901770833333333
EXTRACT: pitchwheel channel=4 pitch=256 time=0
EXTRACT: pitchwheel channel=4 pitch=0 time=0
EXTRACT: note_off channel=4 note=66 velocity=95 time=0
EXTRACT: pitchwheel channel=4 pitch=0 time=0
EXTRACT: note_on channel=4 note=67 velocity=95 time=0
EXTRACT: pitchwheel channel=3 pitch=-256 time=0.0022321416666666667
EXTRACT: pitchwheel channel=6 pitch=-4608 time=0.011160708333333333
EXTRACT: pitchwheel channel=6 pitch=-4608 time=0
EXTRACT: pitchwheel channel=4 pitch=-128 time=0.0044642833333333335
EXTRACT: pitchwheel channel=3 pitch=-384 time=0.0022321416666666667
EXTRACT: pitchwheel channel=6 pitch=-4736 time=0.009486602083333334
EXTRACT: pitchwheel channel=6 pitch=-4736 time=0
EXTRACT: pitchwheel channel=4 pitch=-256 time=0.006138389583333333
EXTRACT: pitchwheel channel=3 pitch=-512 time=0.0022321416666666667
EXTRACT: pitchwheel channel=6 pitch=-4864 time=0.007812495833333334
EXTRACT: pitchwheel channel=6 pitch=-4864 time=0
EXTRACT: pitchwheel channel=4 pitch=-384 time=0.007812495833333334
EXTRACT: pitchwheel channel=3 pitch=-640 time=0.0022321416666666667
EXTRACT: pitchwheel channel=6 pitch=-4992 time=0.006138389583333333
EXTRACT: pitchwheel channel=6 pitch=-4992 time=0
EXTRACT: pitchwheel channel=4 pitch=-512 time=0.009486602083333334
EXTRACT: pitchwheel channel=3 pitch=-768 time=0.0022321416666666667
EXTRACT: pitchwheel channel=6 pitch=-5120 time=0.0044642833333333335
EXTRACT: pitchwheel channel=6 pitch=-5120 time=0
EXTRACT: pitchwheel channel=4 pitch=-640 time=0.011160708333333333
EXTRACT: pitchwheel channel=3 pitch=-896 time=0.0022321416666666667
EXTRACT: pitchwheel channel=6 pitch=-5248 time=0.0027901770833333333
EXTRACT: pitchwheel channel=6 pitch=-5248 time=0
EXTRACT: pitchwheel channel=4 pitch=-768 time=0.012834814583333333
EXTRACT: pitchwheel channel=3 pitch=-1024 time=0.0022321416666666667
EXTRACT: pitchwheel channel=6 pitch=-5376 time=0.0011160708333333334
EXTRACT: pitchwheel channel=6 pitch=-5376 time=0
EXTRACT: pitchwheel channel=4 pitch=-896 time=0.014508920833333334
EXTRACT: pitchwheel channel=6 pitch=-5504 time=0.0016741062500000002
EXTRACT: pitchwheel channel=6 pitch=-5504 time=0
EXTRACT: pitchwheel channel=3 pitch=-1152 time=0.0005580354166666667
EXTRACT: pitchwheel channel=4 pitch=-1024 time=0.015624991666666668
EXTRACT: pitchwheel channel=6 pitch=-5632 time=0
EXTRACT: pitchwheel channel=6 pitch=-5632 time=0
EXTRACT: pitchwheel channel=3 pitch=-1280 time=0.0022321416666666667
EXTRACT: pitchwheel channel=6 pitch=-5760 time=0.013950885416666668
EXTRACT: pitchwheel channel=6 pitch=-5760 time=0
EXTRACT: pitchwheel channel=4 pitch=-1152 time=0.0016741062500000002
EXTRACT: pitchwheel channel=3 pitch=-1408 time=0.0022321416666666667
EXTRACT: pitchwheel channel=3 pitch=-1408 time=0.0044642833333333335
EXTRACT: pitchwheel channel=3 pitch=0 time=0
EXTRACT: note_off channel=3 note=67 velocity=95 time=0
EXTRACT: pitchwheel channel=6 pitch=-5888 time=0.007812495833333334
EXTRACT: pitchwheel channel=6 pitch=-5888 time=0
EXTRACT: pitchwheel channel=4 pitch=-1280 time=0.0033482125000000003
EXTRACT: pitchwheel channel=6 pitch=-6016 time=0.012834814583333333
EXTRACT: pitchwheel channel=6 pitch=-6016 time=0
EXTRACT: pitchwheel channel=4 pitch=-1408 time=0.00502231875
EXTRACT: pitchwheel channel=4 pitch=-1408 time=0.0044642833333333335
EXTRACT: pitchwheel channel=4 pitch=0 time=0
EXTRACT: note_off channel=4 note=67 velocity=95 time=0
EXTRACT: pitchwheel channel=6 pitch=-6144 time=0.006696425000000001
EXTRACT: pitchwheel channel=6 pitch=-6144 time=0
EXTRACT: pitchwheel channel=6 pitch=-6272 time=0.016183027083333332
EXTRACT: pitchwheel channel=6 pitch=-6272 time=0
EXTRACT: pitchwheel channel=3 pitch=0 time=0.010602672916666667
EXTRACT: note_on channel=3 note=66 velocity=95 time=0
EXTRACT: note_off channel=8 note=23 velocity=95 time=0
EXTRACT: pitchwheel channel=6 pitch=-6400 time=0.005580354166666667
EXTRACT: pitchwheel channel=6 pitch=-6400 time=0
EXTRACT: pitchwheel channel=6 pitch=-6528 time=0.016183027083333332
EXTRACT: pitchwheel channel=6 pitch=-6528 time=0
EXTRACT: pitchwheel channel=4 pitch=0 time=0.01171874375
EXTRACT: note_on channel=4 note=66 velocity=95 time=0
EXTRACT: pitchwheel channel=6 pitch=-6656 time=0.0044642833333333335
EXTRACT: pitchwheel channel=6 pitch=-6656 time=0
EXTRACT: pitchwheel channel=6 pitch=-6784 time=0.016183027083333332
EXTRACT: pitchwheel channel=6 pitch=-6784 time=0
EXTRACT: pitchwheel channel=3 pitch=128 time=0.012834814583333333
EXTRACT: pitchwheel channel=6 pitch=-6912 time=0.0033482125000000003
EXTRACT: pitchwheel channel=6 pitch=-6912 time=0
EXTRACT: pitchwheel channel=6 pitch=-7040 time=0.016183027083333332
EXTRACT: pitchwheel channel=6 pitch=-7040 time=0
EXTRACT: pitchwheel channel=2 pitch=0 time=0.0027901770833333333
EXTRACT: pitchwheel channel=4 pitch=128 time=0.011160708333333333
EXTRACT: pitchwheel channel=6 pitch=-7168 time=0.0022321416666666667
EXTRACT: pitchwheel channel=6 pitch=-7168 time=0
EXTRACT: pitchwheel channel=2 pitch=-128 time=0.0005580354166666667
EXTRACT: pitchwheel channel=2 pitch=-256 time=0.013950885416666668
EXTRACT: pitchwheel channel=6 pitch=-7296 time=0.0016741062500000002
EXTRACT: pitchwheel channel=6 pitch=-7296 time=0
EXTRACT: pitchwheel channel=2 pitch=-384 time=0.012276779166666666
EXTRACT: pitchwheel channel=3 pitch=256 time=0.0027901770833333333
EXTRACT: pitchwheel channel=3 pitch=256 time=0
EXTRACT: pitchwheel channel=3 pitch=0 time=0
EXTRACT: note_off channel=3 note=66 velocity=95 time=0
EXTRACT: pitchwheel channel=3 pitch=256 time=0
EXTRACT: note_on channel=3 note=66 velocity=95 time=0
EXTRACT: pitchwheel channel=6 pitch=-7424 time=0.0011160708333333334
EXTRACT: pitchwheel channel=6 pitch=-7424 time=0
EXTRACT: pitchwheel channel=2 pitch=-512 time=0.0100446375
EXTRACT: pitchwheel channel=6 pitch=-7552 time=0.006138389583333333
EXTRACT: pitchwheel channel=6 pitch=-7552 time=0
EXTRACT: pitchwheel channel=2 pitch=-640 time=0.007812495833333334
EXTRACT: pitchwheel channel=4 pitch=256 time=0.00837053125
EXTRACT: pitchwheel channel=4 pitch=256 time=0
EXTRACT: pitchwheel channel=4 pitch=0 time=0
EXTRACT: note_off channel=4 note=66 velocity=95 time=0
EXTRACT: pitchwheel channel=4 pitch=256 time=0
EXTRACT: note_on channel=4 note=66 velocity=95 time=0
EXTRACT: pitchwheel channel=6 pitch=-7680 time=0
EXTRACT: pitchwheel channel=6 pitch=-7680 time=0
EXTRACT: pitchwheel channel=2 pitch=-768 time=0.005580354166666667
EXTRACT: pitchwheel channel=6 pitch=-7808 time=0.010602672916666667
EXTRACT: pitchwheel channel=6 pitch=-7808 time=0
EXTRACT: pitchwheel channel=2 pitch=-896 time=0.0033482125000000003
EXTRACT: pitchwheel channel=6 pitch=-7936 time=0.012834814583333333
EXTRACT: pitchwheel channel=6 pitch=-7936 time=0
EXTRACT: pitchwheel channel=2 pitch=-1024 time=0.0011160708333333334
EXTRACT: pitchwheel channel=2 pitch=-1152 time=0.013950885416666668
EXTRACT: pitchwheel channel=6 pitch=-8064 time=0.0011160708333333334
EXTRACT: pitchwheel channel=6 pitch=-8064 time=0
EXTRACT: pitchwheel channel=2 pitch=-1280 time=0.012834814583333333
EXTRACT: pitchwheel channel=6 pitch=-8192 time=0.0033482125000000003
EXTRACT: pitchwheel channel=6 pitch=-8192 time=0
EXTRACT: pitchwheel channel=2 pitch=-1408 time=0.010602672916666667
EXTRACT: pitchwheel channel=6 pitch=-8192 time=0.005580354166666667
EXTRACT: pitchwheel channel=6 pitch=-8192 time=0
EXTRACT: pitchwheel channel=2 pitch=-1536 time=0.00837053125
EXTRACT: pitchwheel channel=6 pitch=-8192 time=0.007812495833333334
EXTRACT: pitchwheel channel=6 pitch=-8192 time=0
EXTRACT: note_off channel=1 note=68 velocity=95 time=0.0033482125000000003
EXTRACT: note_off channel=1 note=65 velocity=95 time=0
EXTRACT: note_off channel=1 note=61 velocity=95 time=0
EXTRACT: note_off channel=1 note=46 velocity=95 time=0
EXTRACT: note_on channel=1 note=66 velocity=95 time=0
EXTRACT: note_on channel=1 note=63 velocity=95 time=0
EXTRACT: note_on channel=1 note=51 velocity=95 time=0
EXTRACT: pitchwheel channel=3 pitch=256 time=0
EXTRACT: pitchwheel channel=3 pitch=0 time=0
EXTRACT: note_off channel=3 note=66 velocity=95 time=0
EXTRACT: pitchwheel channel=3 pitch=256 time=0
EXTRACT: note_on channel=3 note=67 velocity=95 time=0
EXTRACT: pitchwheel channel=6 pitch=-8192 time=0
EXTRACT: pitchwheel channel=6 pitch=0 time=0
EXTRACT: note_off channel=6 note=53 velocity=95 time=0
EXTRACT: pitchwheel channel=6 pitch=-8192 time=0
EXTRACT: pitchwheel channel=6 pitch=0 time=0
EXTRACT: note_off channel=6 note=53 velocity=95 time=0
EXTRACT: note_on channel=7 note=33 velocity=95 time=0
EXTRACT: note_on channel=8 note=23 velocity=95 time=0
EXTRACT: note_on channel=10 note=40 velocity=95 time=0
EXTRACT: note_off channel=9 note=28 velocity=95 time=0
EXTRACT: note_off channel=9 note=39 velocity=95 time=0
EXTRACT: note_on channel=9 note=36 velocity=95 time=0
EXTRACT: pitchwheel channel=2 pitch=-1664 time=0.0027901770833333333
EXTRACT: pitchwheel channel=2 pitch=-1792 time=0.013950885416666668
EXTRACT: pitchwheel channel=2 pitch=-1920 time=0.013950885416666668
EXTRACT: pitchwheel channel=4 pitch=256 time=0.0027901770833333333
EXTRACT: pitchwheel channel=4 pitch=0 time=0
EXTRACT: note_off channel=4 note=66 velocity=95 time=0
EXTRACT: pitchwheel channel=4 pitch=256 time=0
EXTRACT: note_on channel=4 note=67 velocity=95 time=0
EXTRACT: pitchwheel channel=2 pitch=-2048 time=0.011160708333333333
EXTRACT: pitchwheel channel=2 pitch=-2048 time=0
EXTRACT: note_off channel=10 note=40 velocity=95 time=0.022321416666666666
EXTRACT: pitchwheel channel=3 pitch=256 time=0.022321416666666666
EXTRACT: pitchwheel channel=4 pitch=256 time=0.033482125
EXTRACT: pitchwheel channel=3 pitch=128 time=0.011160708333333333
EXTRACT: pitchwheel channel=4 pitch=128 time=0.033482125
EXTRACT: pitchwheel channel=3 pitch=0 time=0.011160708333333333
EXTRACT: pitchwheel channel=3 pitch=0 time=0
EXTRACT: pitchwheel channel=4 pitch=0 time=0.033482125
EXTRACT: pitchwheel channel=4 pitch=0 time=0
EXTRACT: note_off channel=1 note=66 velocity=95 time=0.05580354166666667
EXTRACT: note_off channel=1 note=63 velocity=95 time=0
EXTRACT: note_off channel=1 note=51 velocity=95 time=0
EXTRACT: pitchwheel channel=2 pitch=-2048 time=0
EXTRACT: pitchwheel channel=2 pitch=0 time=0
EXTRACT: note_off channel=2 note=73 velocity=95 time=0
EXTRACT: pitchwheel channel=3 pitch=0 time=0
EXTRACT: pitchwheel channel=3 pitch=0 time=0
EXTRACT: note_off channel=3 note=67 velocity=95 time=0
EXTRACT: pitchwheel channel=3 pitch=256 time=0
EXTRACT: note_on channel=3 note=66 velocity=95 time=0
EXTRACT: note_off channel=5 note=64 velocity=95 time=0
EXTRACT: note_off channel=5 note=59 velocity=95 time=0
EXTRACT: note_off channel=5 note=55 velocity=95 time=0
EXTRACT: note_off channel=5 note=50 velocity=95 time=0
EXTRACT: note_off channel=8 note=23 velocity=95 time=0
EXTRACT: note_on channel=8 note=23 velocity=95 time=0
EXTRACT: note_on channel=10 note=40 velocity=95 time=0
EXTRACT: note_off channel=9 note=36 velocity=95 time=0
EXTRACT: note_on channel=9 note=36 velocity=95 time=0
EXTRACT: pitchwheel channel=4 pitch=0 time=0.033482125
EXTRACT: pitchwheel channel=4 pitch=0 time=0
EXTRACT: note_off channel=4 note=67 velocity=95 time=0
EXTRACT: pitchwheel channel=4 pitch=256 time=0
EXTRACT: note_on channel=4 note=66 velocity=95 time=0
EXTRACT: note_off channel=10 note=40 velocity=95 time=0.033482125
EXTRACT: pitchwheel channel=3 pitch=256 time=0.20089275
EXTRACT: pitchwheel channel=3 pitch=0 time=0
EXTRACT: note_off channel=3 note=66 velocity=95 time=0
EXTRACT: note_on channel=3 note=67 velocity=95 time=0
EXTRACT: note_on channel=5 note=64 velocity=95 time=0
EXTRACT: note_on channel=5 note=59 velocity=95 time=0
EXTRACT: note_on channel=5 note=55 velocity=95 time=0
EXTRACT: note_on channel=5 note=50 velocity=95 time=0
EXTRACT: note_off channel=7 note=33 velocity=95 time=0
EXTRACT: note_off channel=8 note=23 velocity=95 time=0
EXTRACT: note_off channel=9 note=36 velocity=95 time=0
EXTRACT: note_on channel=9 note=28 velocity=95 time=0
EXTRACT: note_on channel=9 note=39 velocity=95 time=0
EXTRACT: pitchwheel channel=4 pitch=256 time=0.033482125
EXTRACT: pitchwheel channel=4 pitch=0 time=0
EXTRACT: note_off channel=4 note=66 velocity=95 time=0
EXTRACT: note_on channel=4 note=67 velocity=95 time=0
EXTRACT: note_off channel=3 note=67 velocity=95 time=0.234374875
EXTRACT: pitchwheel channel=3 pitch=0 time=0
EXTRACT: note_on channel=3 note=67 velocity=95 time=0
EXTRACT: note_on channel=7 note=33 velocity=95 time=0
EXTRACT: note_on channel=8 note=23 velocity=95 time=0
EXTRACT: note_on channel=10 note=40 velocity=95 time=0
EXTRACT: note_off channel=9 note=28 velocity=95 time=0
EXTRACT: note_off channel=9 note=39 velocity=95 time=0
EXTRACT: note_on channel=9 note=36 velocity=95 time=0
EXTRACT: note_off channel=4 note=67 velocity=95 time=0.033482125
EXTRACT: pitchwheel channel=4 pitch=0 time=0
EXTRACT: note_on channel=4 note=67 velocity=95 time=0
EXTRACT: pitchwheel channel=3 pitch=128 time=0.033482125
EXTRACT: note_off channel=10 note=40 velocity=95 time=0
EXTRACT: pitchwheel channel=4 pitch=128 time=0.033482125
EXTRACT: pitchwheel channel=3 pitch=256 time=0.033482125
EXTRACT: pitchwheel channel=3 pitch=256 time=0
EXTRACT: pitchwheel channel=3 pitch=0 time=0
EXTRACT: note_off channel=3 note=67 velocity=95 time=0
EXTRACT: pitchwheel channel=3 pitch=0 time=0
EXTRACT: note_on channel=3 note=67 velocity=95 time=0
EXTRACT: pitchwheel channel=4 pitch=256 time=0.033482125
EXTRACT: pitchwheel channel=4 pitch=256 time=0
EXTRACT: pitchwheel channel=4 pitch=0 time=0
EXTRACT: note_off channel=4 note=67 velocity=95 time=0
EXTRACT: pitchwheel channel=4 pitch=0 time=0
EXTRACT: note_on channel=4 note=67 velocity=95 time=0
EXTRACT: pitchwheel channel=3 pitch=128 time=0.06696425
EXTRACT: pitchwheel channel=4 pitch=128 time=0.033482125
EXTRACT: note_off channel=9 note=36 velocity=95 time=0
EXTRACT: pitchwheel channel=3 pitch=256 time=0.06696425
EXTRACT: pitchwheel channel=3 pitch=256 time=0
EXTRACT: pitchwheel channel=3 pitch=0 time=0
EXTRACT: note_off channel=3 note=67 velocity=95 time=0
EXTRACT: pitchwheel channel=4 pitch=256 time=0.033482125
EXTRACT: pitchwheel channel=4 pitch=256 time=0
EXTRACT: pitchwheel channel=4 pitch=0 time=0
EXTRACT: note_off channel=4 note=67 velocity=95 time=0
EXTRACT: pitchwheel channel=3 pitch=0 time=0.167410625
EXTRACT: note_on channel=3 note=65 velocity=95 time=0
EXTRACT: note_off channel=5 note=64 velocity=95 time=0
EXTRACT: note_off channel=5 note=59 velocity=95 time=0
EXTRACT: note_off channel=5 note=55 velocity=95 time=0
EXTRACT: note_off channel=5 note=50 velocity=95 time=0
EXTRACT: note_off channel=7 note=33 velocity=95 time=0
EXTRACT: note_on channel=7 note=33 velocity=95 time=0
EXTRACT: note_off channel=8 note=23 velocity=95 time=0
EXTRACT: note_on channel=8 note=23 velocity=95 time=0
EXTRACT: note_on channel=10 note=40 velocity=95 time=0
EXTRACT: note_on channel=9 note=36 velocity=95 time=0
EXTRACT: pitchwheel channel=4 pitch=0 time=0.033482125
EXTRACT: note_on channel=4 note=65 velocity=95 time=0
EXTRACT: note_off channel=10 note=40 velocity=95 time=0.033482125
EXTRACT: pitchwheel channel=3 pitch=0 time=0.20089275
EXTRACT: note_on channel=5 note=64 velocity=95 time=0
EXTRACT: note_on channel=5 note=59 velocity=95 time=0
EXTRACT: note_on channel=5 note=55 velocity=95 time=0
EXTRACT: note_on channel=5 note=50 velocity=95 time=0
EXTRACT: note_off channel=7 note=33 velocity=95 time=0
EXTRACT: note_off channel=9 note=36 velocity=95 time=0
EXTRACT: note_on channel=9 note=28 velocity=95 time=0
EXTRACT: note_on channel=9 note=39 velocity=95 time=0
EXTRACT: pitchwheel channel=4 pitch=0 time=0.033482125
EXTRACT: pitchwheel channel=3 pitch=128 time=0.100446375
EXTRACT: pitchwheel channel=4 pitch=128 time=0.033482125
EXTRACT: pitchwheel channel=3 pitch=256 time=0.100446375
EXTRACT: pitchwheel channel=3 pitch=256 time=0
EXTRACT: pitchwheel channel=3 pitch=0 time=0
EXTRACT: note_off channel=3 note=65 velocity=95 time=0
EXTRACT: note_off channel=8 note=23 velocity=95 time=0
EXTRACT: pitchwheel channel=4 pitch=256 time=0.033482125
EXTRACT: pitchwheel channel=4 pitch=256 time=0
EXTRACT: pitchwheel channel=4 pitch=0 time=0
EXTRACT: note_off channel=4 note=65 velocity=95 time=0
EXTRACT: pitchwheel channel=3 pitch=0 time=0.100446375
EXTRACT: note_on channel=3 note=66 velocity=95 time=0
EXTRACT: pitchwheel channel=4 pitch=0 time=0.033482125
EXTRACT: note_on channel=4 note=66 velocity=95 time=0
EXTRACT: pitchwheel channel=3 pitch=128 time=0.033482125
EXTRACT: pitchwheel channel=4 pitch=128 time=0.033482125
EXTRACT: pitchwheel channel=3 pitch=256 time=0.033482125
EXTRACT: pitchwheel channel=3 pitch=256 time=0
EXTRACT: pitchwheel channel=3 pitch=0 time=0
EXTRACT: note_off channel=3 note=66 velocity=95 time=0
EXTRACT: pitchwheel channel=3 pitch=256 time=0
EXTRACT: note_on channel=3 note=67 velocity=95 time=0
EXTRACT: note_on channel=7 note=33 velocity=95 time=0
EXTRACT: note_on channel=8 note=23 velocity=95 time=0
EXTRACT: note_on channel=10 note=40 velocity=95 time=0
EXTRACT: note_off channel=9 note=28 velocity=95 time=0
EXTRACT: note_off channel=9 note=39 velocity=95 time=0
EXTRACT: note_on channel=9 note=36 velocity=95 time=0
EXTRACT: pitchwheel channel=4 pitch=256 time=0.033482125
EXTRACT: pitchwheel channel=4 pitch=256 time=0
EXTRACT: pitchwheel channel=4 pitch=0 time=0
EXTRACT: note_off channel=4 note=66 velocity=95 time=0
EXTRACT: pitchwheel channel=4 pitch=256 time=0
EXTRACT: note_on channel=4 note=67 velocity=95 time=0
EXTRACT: note_off channel=10 note=40 velocity=95 time=0.033482125
EXTRACT: pitchwheel channel=3 pitch=256 time=0.022321416666666666
EXTRACT: pitchwheel channel=4 pitch=256 time=0.033482125
EXTRACT: pitchwheel channel=3 pitch=128 time=0.011160708333333333
EXTRACT: pitchwheel channel=4 pitch=128 time=0.033482125
EXTRACT: pitchwheel channel=3 pitch=0 time=0.011160708333333333
EXTRACT: pitchwheel channel=3 pitch=0 time=0
EXTRACT: pitchwheel channel=4 pitch=0 time=0.033482125
EXTRACT: pitchwheel channel=4 pitch=0 time=0
EXTRACT: pitchwheel channel=3 pitch=0 time=0.05580354166666667
EXTRACT: pitchwheel channel=3 pitch=0 time=0
EXTRACT: note_off channel=3 note=67 velocity=95 time=0
EXTRACT: pitchwheel channel=3 pitch=256 time=0
EXTRACT: note_on channel=3 note=66 velocity=95 time=0
EXTRACT: note_off channel=5 note=64 velocity=95 time=0
EXTRACT: note_off channel=5 note=59 velocity=95 time=0
EXTRACT: note_off channel=5 note=55 velocity=95 time=0
EXTRACT: note_off channel=5 note=50 velocity=95 time=0
EXTRACT: pitchwheel channel=4 pitch=0 time=0.033482125
EXTRACT: pitchwheel channel=4 pitch=0 time=0
EXTRACT: note_off channel=4 note=67 velocity=95 time=0
EXTRACT: pitchwheel channel=4 pitch=256 time=0
EXTRACT: note_on channel=4 note=66 velocity=95 time=0
EXTRACT: pitchwheel channel=3 pitch=256 time=0.234374875
EXTRACT: pitchwheel channel=3 pitch=0 time=0
EXTRACT: note_off channel=3 note=66 velocity=95 time=0
EXTRACT: note_on channel=3 note=67 velocity=95 time=0
EXTRACT: note_on channel=5 note=64 velocity=95 time=0
EXTRACT: note_on channel=5 note=59 velocity=95 time=0
EXTRACT: note_on channel=5 note=55 velocity=95 time=0
EXTRACT: note_on channel=5 note=50 velocity=95 time=0
EXTRACT: note_off channel=7 note=33 velocity=95 time=0
EXTRACT: note_off channel=8 note=23 velocity=95 time=0
EXTRACT: note_off channel=9 note=36 velocity=95 time=0
EXTRACT: note_on channel=9 note=28 velocity=95 time=0
EXTRACT: note_on channel=9 note=39 velocity=95 time=0
EXTRACT: pitchwheel channel=4 pitch=256 time=0.033482125
EXTRACT: pitchwheel channel=4 pitch=0 time=0
EXTRACT: note_off channel=4 note=66 velocity=95 time=0
EXTRACT: note_on channel=4 note=67 velocity=95 time=0
EXTRACT: note_off channel=3 note=67 velocity=95 time=0.234374875
EXTRACT: pitchwheel channel=3 pitch=0 time=0
EXTRACT: note_on channel=3 note=67 velocity=95 time=0
EXTRACT: note_on channel=7 note=33 velocity=95 time=0
EXTRACT: note_on channel=8 note=23 velocity=95 time=0
EXTRACT: note_on channel=10 note=40 velocity=95 time=0
EXTRACT: note_off channel=9 note=28 velocity=95 time=0
EXTRACT: note_off channel=9 note=39 velocity=95 time=0
EXTRACT: note_on channel=9 note=36 velocity=95 time=0
EXTRACT: note_off channel=4 note=67 velocity=95 time=0.033482125
EXTRACT: pitchwheel channel=4 pitch=0 time=0
EXTRACT: note_on channel=4 note=67 velocity=95 time=0
EXTRACT: pitchwheel channel=3 pitch=128 time=0.033482125
EXTRACT: note_off channel=10 note=40 velocity=95 time=0
EXTRACT: pitchwheel channel=4 pitch=128 time=0.033482125
EXTRACT: pitchwheel channel=3 pitch=256 time=0.033482125
EXTRACT: pitchwheel channel=3 pitch=256 time=0
EXTRACT: pitchwheel channel=3 pitch=0 time=0
EXTRACT: note_off channel=3 note=67 velocity=95 time=0
EXTRACT: pitchwheel channel=3 pitch=0 time=0
EXTRACT: note_on channel=3 note=67 velocity=95 time=0
EXTRACT: pitchwheel channel=4 pitch=256 time=0.033482125
EXTRACT: pitchwheel channel=4 pitch=256 time=0
EXTRACT: pitchwheel channel=4 pitch=0 time=0
EXTRACT: note_off channel=4 note=67 velocity=95 time=0
EXTRACT: pitchwheel channel=4 pitch=0 time=0
EXTRACT: note_on channel=4 note=67 velocity=95 time=0
EXTRACT: pitchwheel channel=3 pitch=128 time=0.06696425
EXTRACT: pitchwheel channel=4 pitch=128 time=0.033482125
EXTRACT: note_off channel=5 note=64 velocity=95 time=0
EXTRACT: note_off channel=5 note=59 velocity=95 time=0
EXTRACT: note_off channel=5 note=55 velocity=95 time=0
EXTRACT: note_off channel=5 note=50 velocity=95 time=0
EXTRACT: pitchwheel channel=6 pitch=0 time=0
EXTRACT: note_on channel=6 note=53 velocity=95 time=0
EXTRACT: pitchwheel channel=6 pitch=0 time=0
EXTRACT: note_on channel=6 note=53 velocity=95 time=0
EXTRACT: note_off channel=7 note=33 velocity=95 time=0
EXTRACT: note_off channel=8 note=23 velocity=95 time=0
EXTRACT: note_off channel=9 note=36 velocity=95 time=0
EXTRACT: pitchwheel channel=6 pitch=-128 time=0.016183027083333332
EXTRACT: pitchwheel channel=6 pitch=-128 time=0
EXTRACT: pitchwheel channel=6 pitch=-256 time=0.016183027083333332
EXTRACT: pitchwheel channel=6 pitch=-256 time=0
EXTRACT: pitchwheel channel=6 pitch=-384 time=0.016183027083333332
EXTRACT: pitchwheel channel=6 pitch=-384 time=0
EXTRACT: pitchwheel channel=6 pitch=-512 time=0.016183027083333332
EXTRACT: pitchwheel channel=6 pitch=-512 time=0
EXTRACT: pitchwheel channel=3 pitch=256 time=0.0022321416666666667
EXTRACT: pitchwheel channel=3 pitch=256 time=0
EXTRACT: pitchwheel channel=3 pitch=0 time=0
EXTRACT: note_off channel=3 note=67 velocity=95 time=0
EXTRACT: pitchwheel channel=6 pitch=-640 time=0.013950885416666668
EXTRACT: pitchwheel channel=6 pitch=-640 time=0
EXTRACT: pitchwheel channel=6 pitch=-768 time=0.016183027083333332
EXTRACT: pitchwheel channel=6 pitch=-768 time=0
EXTRACT: pitchwheel channel=4 pitch=256 time=0.0033482125000000003
EXTRACT: pitchwheel channel=4 pitch=256 time=0
EXTRACT: pitchwheel channel=4 pitch=0 time=0
EXTRACT: note_off channel=4 note=67 velocity=95 time=0
EXTRACT: pitchwheel channel=6 pitch=-896 time=0.012834814583333333
EXTRACT: pitchwheel channel=6 pitch=-896 time=0
EXTRACT: pitchwheel channel=6 pitch=-1024 time=0.016183027083333332
EXTRACT: pitchwheel channel=6 pitch=-1024 time=0
EXTRACT: pitchwheel channel=6 pitch=-1152 time=0.016183027083333332
EXTRACT: pitchwheel channel=6 pitch=-1152 time=0
EXTRACT: pitchwheel channel=6 pitch=-1280 time=0.016183027083333332
EXTRACT: pitchwheel channel=6 pitch=-1280 time=0
EXTRACT: pitchwheel channel=6 pitch=-1408 time=0.016183027083333332
EXTRACT: pitchwheel channel=6 pitch=-1408 time=0
EXTRACT: pitchwheel channel=6 pitch=-1536 time=0.016183027083333332
EXTRACT: pitchwheel channel=6 pitch=-1536 time=0
EXTRACT: pitchwheel channel=6 pitch=-1664 time=0.016183027083333332
EXTRACT: pitchwheel channel=6 pitch=-1664 time=0
EXTRACT: pitchwheel channel=6 pitch=-1792 time=0.016183027083333332
EXTRACT: pitchwheel channel=6 pitch=-1792 time=0
EXTRACT: pitchwheel channel=6 pitch=-1920 time=0.016183027083333332
EXTRACT: pitchwheel channel=6 pitch=-1920 time=0
EXTRACT: pitchwheel channel=6 pitch=-2048 time=0.016183027083333332
EXTRACT: pitchwheel channel=6 pitch=-2048 time=0
EXTRACT: pitchwheel channel=3 pitch=0 time=0.008928566666666667
EXTRACT: note_on channel=3 note=65 velocity=95 time=0
EXTRACT: pitchwheel channel=6 pitch=-2176 time=0.007254460416666667
EXTRACT: pitchwheel channel=6 pitch=-2176 time=0
EXTRACT: pitchwheel channel=6 pitch=-2304 time=0.016183027083333332
EXTRACT: pitchwheel channel=6 pitch=-2304 time=0
EXTRACT: pitchwheel channel=4 pitch=0 time=0.0100446375
EXTRACT: note_on channel=4 note=65 velocity=95 time=0
EXTRACT: pitchwheel channel=6 pitch=-2432 time=0.006138389583333333
EXTRACT: pitchwheel channel=6 pitch=-2432 time=0
EXTRACT: pitchwheel channel=6 pitch=-2560 time=0.016183027083333332
EXTRACT: pitchwheel channel=6 pitch=-2560 time=0
EXTRACT: pitchwheel channel=6 pitch=-2688 time=0.016183027083333332
EXTRACT: pitchwheel channel=6 pitch=-2688 time=0
EXTRACT: pitchwheel channel=6 pitch=-2816 time=0.016183027083333332
EXTRACT: pitchwheel channel=6 pitch=-2816 time=0
EXTRACT: pitchwheel channel=6 pitch=-2944 time=0.016183027083333332
EXTRACT: pitchwheel channel=6 pitch=-2944 time=0
EXTRACT: pitchwheel channel=6 pitch=-3072 time=0.016183027083333332
EXTRACT: pitchwheel channel=6 pitch=-3072 time=0
EXTRACT: pitchwheel channel=6 pitch=-3200 time=0.016183027083333332
EXTRACT: pitchwheel channel=6 pitch=-3200 time=0
EXTRACT: pitchwheel channel=6 pitch=-3328 time=0.016183027083333332
EXTRACT: pitchwheel channel=6 pitch=-3328 time=0
EXTRACT: pitchwheel channel=6 pitch=-3456 time=0.016183027083333332
EXTRACT: pitchwheel channel=6 pitch=-3456 time=0
EXTRACT: pitchwheel channel=6 pitch=-3584 time=0.016183027083333332
EXTRACT: pitchwheel channel=6 pitch=-3584 time=0
EXTRACT: pitchwheel channel=6 pitch=-3712 time=0.016183027083333332
EXTRACT: pitchwheel channel=6 pitch=-3712 time=0
EXTRACT: pitchwheel channel=6 pitch=-3840 time=0.016183027083333332
EXTRACT: pitchwheel channel=6 pitch=-3840 time=0
EXTRACT: pitchwheel channel=6 pitch=-3968 time=0.016183027083333332
EXTRACT: pitchwheel channel=6 pitch=-3968 time=0
EXTRACT: pitchwheel channel=6 pitch=-4096 time=0.016183027083333332
EXTRACT: pitchwheel channel=6 pitch=-4096 time=0
EXTRACT: pitchwheel channel=6 pitch=-4224 time=0.016183027083333332
EXTRACT: pitchwheel channel=6 pitch=-4224 time=0
EXTRACT: pitchwheel channel=3 pitch=0 time=0.0016741062500000002
EXTRACT: pitchwheel channel=6 pitch=-4352 time=0.014508920833333334
EXTRACT: pitchwheel channel=6 pitch=-4352 time=0
EXTRACT: pitchwheel channel=6 pitch=-4480 time=0.016183027083333332
EXTRACT: pitchwheel channel=6 pitch=-4480 time=0
EXTRACT: pitchwheel channel=4 pitch=0 time=0.0027901770833333333
EXTRACT: pitchwheel channel=6 pitch=-4608 time=0.013392850000000001
EXTRACT: pitchwheel channel=6 pitch=-4608 time=0
EXTRACT: pitchwheel channel=6 pitch=-4736 time=0.016183027083333332
EXTRACT: pitchwheel channel=6 pitch=-4736 time=0
EXTRACT: pitchwheel channel=6 pitch=-4864 time=0.016183027083333332
EXTRACT: pitchwheel channel=6 pitch=-4864 time=0
EXTRACT: pitchwheel channel=6 pitch=-4992 time=0.016183027083333332
EXTRACT: pitchwheel channel=6 pitch=-4992 time=0
EXTRACT: pitchwheel channel=6 pitch=-5120 time=0.016183027083333332
EXTRACT: pitchwheel channel=6 pitch=-5120 time=0
EXTRACT: pitchwheel channel=6 pitch=-5248 time=0.016183027083333332
EXTRACT: pitchwheel channel=6 pitch=-5248 time=0
EXTRACT: pitchwheel channel=3 pitch=128 time=0.006138389583333333
EXTRACT: pitchwheel channel=6 pitch=-5376 time=0.0100446375
EXTRACT: pitchwheel channel=6 pitch=-5376 time=0
EXTRACT: pitchwheel channel=6 pitch=-5504 time=0.016183027083333332
EXTRACT: pitchwheel channel=6 pitch=-5504 time=0
EXTRACT: pitchwheel channel=4 pitch=128 time=0.007254460416666667
EXTRACT: pitchwheel channel=6 pitch=-5632 time=0.008928566666666667
EXTRACT: pitchwheel channel=6 pitch=-5632 time=0
EXTRACT: pitchwheel channel=6 pitch=-5760 time=0.016183027083333332
EXTRACT: pitchwheel channel=6 pitch=-5760 time=0
EXTRACT: pitchwheel channel=6 pitch=-5888 time=0.016183027083333332
EXTRACT: pitchwheel channel=6 pitch=-5888 time=0
EXTRACT: pitchwheel channel=6 pitch=-6016 time=0.016183027083333332
EXTRACT: pitchwheel channel=6 pitch=-6016 time=0
EXTRACT: pitchwheel channel=6 pitch=-6144 time=0.016183027083333332
EXTRACT: pitchwheel channel=6 pitch=-6144 time=0
EXTRACT: pitchwheel channel=6 pitch=-6272 time=0.016183027083333332
EXTRACT: pitchwheel channel=6 pitch=-6272 time=0
EXTRACT: note_on channel=0 note=58 velocity=95 time=0.010602672916666667
EXTRACT: note_on channel=2 note=58 velocity=95 time=0
EXTRACT: pitchwheel channel=3 pitch=256 time=0
EXTRACT: pitchwheel channel=3 pitch=256 time=0
EXTRACT: pitchwheel channel=3 pitch=0 time=0
EXTRACT: note_off channel=3 note=65 velocity=95 time=0
EXTRACT: pitchwheel channel=6 pitch=-6400 time=0.005580354166666667
EXTRACT: pitchwheel channel=6 pitch=-6400 time=0
EXTRACT: pitchwheel channel=6 pitch=-6528 time=0.016183027083333332
EXTRACT: pitchwheel channel=6 pitch=-6528 time=0
EXTRACT: pitchwheel channel=4 pitch=256 time=0.01171874375
EXTRACT: pitchwheel channel=4 pitch=256 time=0
EXTRACT: pitchwheel channel=4 pitch=0 time=0
EXTRACT: note_off channel=4 note=65 velocity=95 time=0
EXTRACT: pitchwheel channel=6 pitch=-6656 time=0.0044642833333333335
EXTRACT: pitchwheel channel=6 pitch=-6656 time=0
EXTRACT: pitchwheel channel=6 pitch=-6784 time=0.016183027083333332
EXTRACT: pitchwheel channel=6 pitch=-6784 time=0
EXTRACT: pitchwheel channel=6 pitch=-6912 time=0.016183027083333332
EXTRACT: pitchwheel channel=6 pitch=-6912 time=0
EXTRACT: pitchwheel channel=6 pitch=-7040 time=0.016183027083333332
EXTRACT: pitchwheel channel=6 pitch=-7040 time=0
EXTRACT: pitchwheel channel=6 pitch=-7168 time=0.016183027083333332
EXTRACT: pitchwheel channel=6 pitch=-7168 time=0
EXTRACT: pitchwheel channel=6 pitch=-7296 time=0.016183027083333332
EXTRACT: pitchwheel channel=6 pitch=-7296 time=0
EXTRACT: pitchwheel channel=6 pitch=-7424 time=0.016183027083333332
EXTRACT: pitchwheel channel=6 pitch=-7424 time=0
EXTRACT: pitchwheel channel=6 pitch=-7552 time=0.016183027083333332
EXTRACT: pitchwheel channel=6 pitch=-7552 time=0
EXTRACT: pitchwheel channel=6 pitch=-7680 time=0.016183027083333332
EXTRACT: pitchwheel channel=6 pitch=-7680 time=0
EXTRACT: pitchwheel channel=6 pitch=-7808 time=0.016183027083333332
EXTRACT: pitchwheel channel=6 pitch=-7808 time=0
EXTRACT: pitchwheel channel=6 pitch=-7936 time=0.016183027083333332
EXTRACT: pitchwheel channel=6 pitch=-7936 time=0
EXTRACT: pitchwheel channel=6 pitch=-8064 time=0.016183027083333332
EXTRACT: pitchwheel channel=6 pitch=-8064 time=0
EXTRACT: pitchwheel channel=6 pitch=-8192 time=0.016183027083333332
EXTRACT: pitchwheel channel=6 pitch=-8192 time=0
EXTRACT: pitchwheel channel=6 pitch=-8192 time=0.016183027083333332
EXTRACT: pitchwheel channel=6 pitch=-8192 time=0
EXTRACT: pitchwheel channel=6 pitch=-8192 time=0.016183027083333332
EXTRACT: pitchwheel channel=6 pitch=-8192 time=0
EXTRACT: note_off channel=0 note=58 velocity=95 time=0.0033482125000000003
EXTRACT: note_on channel=0 note=59 velocity=70 time=0
EXTRACT: note_on channel=1 note=71 velocity=95 time=0
EXTRACT: note_on channel=1 note=66 velocity=95 time=0
EXTRACT: note_on channel=1 note=63 velocity=95 time=0
EXTRACT: note_on channel=1 note=59 velocity=95 time=0
EXTRACT: note_off channel=2 note=58 velocity=95 time=0
EXTRACT: note_on channel=2 note=59 velocity=70 time=0
EXTRACT: pitchwheel channel=6 pitch=-8192 time=0
EXTRACT: pitchwheel channel=6 pitch=0 time=0
EXTRACT: note_off channel=6 note=53 velocity=95 time=0
EXTRACT: pitchwheel channel=6 pitch=-8192 time=0
EXTRACT: pitchwheel channel=6 pitch=0 time=0
EXTRACT: note_off channel=6 note=53 velocity=95 time=0
EXTRACT: note_on channel=7 note=33 velocity=95 time=0
EXTRACT: note_on channel=8 note=23 velocity=95 time=0
EXTRACT: note_on channel=10 note=40 velocity=95 time=0
EXTRACT: note_on channel=9 note=36 velocity=95 time=0
EXTRACT: note_off channel=10 note=40 velocity=95 time=0.06696425
EXTRACT: note_off channel=0 note=59 velocity=70 time=0.20089275
EXTRACT: note_on channel=0 note=63 velocity=95 time=0
EXTRACT: note_off channel=2 note=59 velocity=70 time=0
EXTRACT: note_on channel=2 note=63 velocity=95 time=0
EXTRACT: note_off channel=0 note=63 velocity=95 time=0.267857
EXTRACT: note_on channel=0 note=66 velocity=95 time=0
EXTRACT: note_off channel=2 note=63 velocity=95 time=0
EXTRACT: note_on channel=2 note=66 velocity=95 time=0
EXTRACT: note_on channel=4 note=63 velocity=47 time=0
EXTRACT: note_on channel=4 note=59 velocity=95 time=0
EXTRACT: note_on channel=5 note=64 velocity=95 time=0
EXTRACT: note_on channel=5 note=59 velocity=95 time=0
EXTRACT: note_on channel=5 note=55 velocity=95 time=0
EXTRACT: note_on channel=5 note=50 velocity=95 time=0
EXTRACT: note_off channel=7 note=33 velocity=95 time=0
EXTRACT: note_off channel=8 note=23 velocity=95 time=0
EXTRACT: note_off channel=9 note=36 velocity=95 time=0
EXTRACT: note_on channel=9 note=28 velocity=95 time=0
EXTRACT: note_on channel=9 note=39 velocity=95 time=0
EXTRACT: note_on channel=3 note=63 velocity=47 time=0.033482125
EXTRACT: note_on channel=3 note=59 velocity=95 time=0
EXTRACT: note_off channel=0 note=66 velocity=95 time=0.234374875
EXTRACT: note_on channel=0 note=59 velocity=95 time=0
EXTRACT: note_off channel=2 note=66 velocity=95 time=0
EXTRACT: note_on channel=2 note=59 velocity=95 time=0
EXTRACT: note_on channel=7 note=33 velocity=95 time=0
EXTRACT: note_on channel=8 note=23 velocity=95 time=0
EXTRACT: note_on channel=10 note=40 velocity=95 time=0
EXTRACT: note_off channel=9 note=28 velocity=95 time=0
EXTRACT: note_off channel=9 note=39 velocity=95 time=0
EXTRACT: note_on channel=9 note=36 velocity=95 time=0
EXTRACT: note_off channel=10 note=40 velocity=95 time=0.06696425
EXTRACT: note_off channel=0 note=59 velocity=95 time=0.20089275
EXTRACT: note_on channel=0 note=58 velocity=70 time=0
EXTRACT: note_off channel=1 note=71 velocity=95 time=0
EXTRACT: note_off channel=1 note=66 velocity=95 time=0
EXTRACT: note_off channel=1 note=63 velocity=95 time=0
EXTRACT: note_off channel=1 note=59 velocity=95 time=0
EXTRACT: note_on channel=1 note=70 velocity=95 time=0
EXTRACT: note_on channel=1 note=66 velocity=95 time=0
EXTRACT: note_on channel=1 note=63 velocity=95 time=0
EXTRACT: note_on channel=1 note=58 velocity=95 time=0
EXTRACT: note_off channel=2 note=59 velocity=95 time=0
EXTRACT: note_on channel=2 note=58 velocity=70 time=0
EXTRACT: note_off channel=4 note=63 velocity=47 time=0
EXTRACT: note_off channel=4 note=59 velocity=95 time=0
EXTRACT: note_on channel=4 note=61 velocity=47 time=0
EXTRACT: note_on channel=4 note=58 velocity=95 time=0
EXTRACT: note_off channel=9 note=36 velocity=95 time=0
EXTRACT: note_off channel=3 note=63 velocity=47 time=0.033482125
EXTRACT: note_off channel=3 note=59 velocity=95 time=0
EXTRACT: note_on channel=3 note=61 velocity=47 time=0
EXTRACT: note_on channel=3 note=58 velocity=95 time=0
EXTRACT: note_off channel=0 note=58 velocity=70 time=0.234374875
EXTRACT: note_on channel=0 note=63 velocity=95 time=0
EXTRACT: note_off channel=2 note=58 velocity=70 time=0
EXTRACT: note_on channel=2 note=63 velocity=95 time=0
EXTRACT: note_off channel=5 note=64 velocity=95 time=0
EXTRACT: note_off channel=5 note=59 velocity=95 time=0
EXTRACT: note_off channel=5 note=55 velocity=95 time=0
EXTRACT: note_off channel=5 note=50 velocity=95 time=0
EXTRACT: note_off channel=7 note=33 velocity=95 time=0
EXTRACT: note_on channel=7 note=33 velocity=95 time=0
EXTRACT: note_off channel=8 note=23 velocity=95 time=0
EXTRACT: note_on channel=8 note=23 velocity=95 time=0
EXTRACT: note_on channel=10 note=40 velocity=95 time=0
EXTRACT: note_on channel=9 note=36 velocity=95 time=0
EXTRACT: note_off channel=10 note=40 velocity=95 time=0.06696425
EXTRACT: note_off channel=0 note=63 velocity=95 time=0.20089275
EXTRACT: note_off channel=2 note=63 velocity=95 time=0
EXTRACT: note_off channel=4 note=61 velocity=47 time=0
EXTRACT: note_off channel=4 note=58 velocity=95 time=0
EXTRACT: pitchwheel channel=4 pitch=0 time=0
EXTRACT: note_on channel=4 note=62 velocity=95 time=0
EXTRACT: note_on channel=5 note=64 velocity=95 time=0
EXTRACT: note_on channel=5 note=59 velocity=95 time=0
EXTRACT: note_on channel=5 note=55 velocity=95 time=0
EXTRACT: note_on channel=5 note=50 velocity=95 time=0
EXTRACT: note_off channel=7 note=33 velocity=95 time=0
EXTRACT: note_off channel=9 note=36 velocity=95 time=0
EXTRACT: note_on channel=9 note=28 velocity=95 time=0
EXTRACT: note_on channel=9 note=39 velocity=95 time=0
EXTRACT: note_off channel=3 note=61 velocity=47 time=0.033482125
EXTRACT: note_off channel=3 note=58 velocity=95 time=0
EXTRACT: pitchwheel channel=3 pitch=0 time=0
EXTRACT: note_on channel=3 note=63 velocity=95 time=0
EXTRACT: pitchwheel channel=4 pitch=128 time=0.013392850000000001
EXTRACT: pitchwheel channel=3 pitch=128 time=0.033482125
EXTRACT: pitchwheel channel=4 pitch=256 time=0.013392850000000001
EXTRACT: pitchwheel channel=3 pitch=256 time=0.033482125
EXTRACT: pitchwheel channel=4 pitch=384 time=0.013392850000000001
EXTRACT: pitchwheel channel=3 pitch=384 time=0.033482125
EXTRACT: pitchwheel channel=4 pitch=512 time=0.013392850000000001
EXTRACT: pitchwheel channel=3 pitch=512 time=0.033482125
EXTRACT: pitchwheel channel=4 pitch=640 time=0.013392850000000001
EXTRACT: pitchwheel channel=4 pitch=640 time=0
EXTRACT: pitchwheel channel=4 pitch=0 time=0
EXTRACT: note_off channel=4 note=62 velocity=95 time=0
EXTRACT: note_on channel=0 note=58 velocity=95 time=0.033482125
EXTRACT: note_on channel=2 note=58 velocity=95 time=0
EXTRACT: pitchwheel channel=3 pitch=640 time=0
EXTRACT: pitchwheel channel=3 pitch=640 time=0
EXTRACT: pitchwheel channel=3 pitch=0 time=0
EXTRACT: note_off channel=3 note=63 velocity=95 time=0
EXTRACT: pitchwheel channel=4 pitch=0 time=0
EXTRACT: note_on channel=4 note=63 velocity=95 time=0
EXTRACT: note_off channel=8 note=23 velocity=95 time=0
EXTRACT: pitchwheel channel=4 pitch=128 time=0.023995522916666668
EXTRACT: pitchwheel channel=3 pitch=0 time=0.009486602083333334
EXTRACT: note_on channel=3 note=64 velocity=95 time=0
EXTRACT: pitchwheel channel=4 pitch=256 time=0.014508920833333334
EXTRACT: pitchwheel channel=3 pitch=128 time=0.009486602083333334
EXTRACT: pitchwheel channel=4 pitch=384 time=0.014508920833333334
EXTRACT: pitchwheel channel=3 pitch=256 time=0.009486602083333334
EXTRACT: pitchwheel channel=4 pitch=512 time=0.014508920833333334
EXTRACT: pitchwheel channel=3 pitch=384 time=0.009486602083333334
EXTRACT: pitchwheel channel=4 pitch=640 time=0.014508920833333334
EXTRACT: pitchwheel channel=3 pitch=512 time=0.009486602083333334
EXTRACT: pitchwheel channel=4 pitch=768 time=0.014508920833333334
EXTRACT: pitchwheel channel=3 pitch=640 time=0.009486602083333334
EXTRACT: pitchwheel channel=4 pitch=896 time=0.014508920833333334
EXTRACT: pitchwheel channel=3 pitch=768 time=0.009486602083333334
EXTRACT: pitchwheel channel=4 pitch=1024 time=0.014508920833333334
EXTRACT: pitchwheel channel=3 pitch=896 time=0.009486602083333334
EXTRACT: pitchwheel channel=4 pitch=1152 time=0.014508920833333334
EXTRACT: pitchwheel channel=3 pitch=1024 time=0.009486602083333334
EXTRACT: pitchwheel channel=4 pitch=1280 time=0.014508920833333334
EXTRACT: pitchwheel channel=3 pitch=1152 time=0.009486602083333334
EXTRACT: pitchwheel channel=4 pitch=1408 time=0.014508920833333334
EXTRACT: note_off channel=0 note=58 velocity=95 time=0.003906247916666667
EXTRACT: note_on channel=0 note=59 velocity=70 time=0
EXTRACT: note_off channel=1 note=70 velocity=95 time=0
EXTRACT: note_off channel=1 note=66 velocity=95 time=0
EXTRACT: note_off channel=1 note=63 velocity=95 time=0
EXTRACT: note_off channel=1 note=58 velocity=95 time=0
EXTRACT: note_on channel=1 note=71 velocity=95 time=0
EXTRACT: note_on channel=1 note=66 velocity=95 time=0
EXTRACT: note_on channel=1 note=63 velocity=95 time=0
EXTRACT: note_on channel=1 note=59 velocity=95 time=0
EXTRACT: note_off channel=2 note=58 velocity=95 time=0
EXTRACT: note_on channel=2 note=59 velocity=70 time=0
EXTRACT: pitchwheel channel=4 pitch=1408 time=0
EXTRACT: pitchwheel channel=4 pitch=0 time=0
EXTRACT: note_off channel=4 note=63 velocity=95 time=0
EXTRACT: pitchwheel channel=4 pitch=0 time=0
EXTRACT: note_on channel=4 note=59 velocity=95 time=0
EXTRACT: note_on channel=7 note=33 velocity=95 time=0
EXTRACT: note_on channel=8 note=23 velocity=95 time=0
EXTRACT: note_on channel=10 note=40 velocity=95 time=0
EXTRACT: note_off channel=9 note=28 velocity=95 time=0
EXTRACT: note_off channel=9 note=39 velocity=95 time=0
EXTRACT: note_on channel=9 note=36 velocity=95 time=0
EXTRACT: pitchwheel channel=3 pitch=1280 time=0.005580354166666667
EXTRACT: pitchwheel channel=4 pitch=-128 time=0.012276779166666666
EXTRACT: pitchwheel channel=3 pitch=1408 time=0.01171874375
EXTRACT: pitchwheel channel=3 pitch=1408 time=0.003906247916666667
EXTRACT: pitchwheel channel=3 pitch=0 time=0
EXTRACT: note_off channel=3 note=64 velocity=95 time=0
EXTRACT: pitchwheel channel=3 pitch=0 time=0
EXTRACT: note_on channel=3 note=60 velocity=95 time=0
EXTRACT: pitchwheel channel=4 pitch=-256 time=0.0022321416666666667
EXTRACT: pitchwheel channel=3 pitch=-128 time=0.015624991666666668
EXTRACT: pitchwheel channel=4 pitch=-384 time=0.0022321416666666667
EXTRACT: note_off channel=10 note=40 velocity=95 time=0.013392850000000001
EXTRACT: pitchwheel channel=3 pitch=-256 time=0.0022321416666666667
EXTRACT: pitchwheel channel=4 pitch=-512 time=0.0022321416666666667
EXTRACT: pitchwheel channel=3 pitch=-384 time=0.015624991666666668
EXTRACT: pitchwheel channel=4 pitch=-640 time=0.0022321416666666667
EXTRACT: pitchwheel channel=3 pitch=-512 time=0.015624991666666668
EXTRACT: pitchwheel channel=4 pitch=-768 time=0.0022321416666666667
EXTRACT: pitchwheel channel=3 pitch=-640 time=0.015624991666666668
EXTRACT: pitchwheel channel=4 pitch=-896 time=0.0022321416666666667
EXTRACT: pitchwheel channel=3 pitch=-768 time=0.015624991666666668
EXTRACT: pitchwheel channel=4 pitch=-1024 time=0.0022321416666666667
EXTRACT: pitchwheel channel=3 pitch=-896 time=0.015624991666666668
EXTRACT: pitchwheel channel=4 pitch=-1152 time=0.0022321416666666667
EXTRACT: pitchwheel channel=3 pitch=-1024 time=0.015624991666666668
EXTRACT: pitchwheel channel=4 pitch=-1280 time=0.0022321416666666667
EXTRACT: pitchwheel channel=3 pitch=-1152 time=0.015624991666666668
EXTRACT: pitchwheel channel=4 pitch=-1408 time=0.0022321416666666667
EXTRACT: pitchwheel channel=4 pitch=-1408 time=0.0044642833333333335
EXTRACT: pitchwheel channel=4 pitch=0 time=0
EXTRACT: note_off channel=4 note=59 velocity=95 time=0
EXTRACT: pitchwheel channel=3 pitch=-1280 time=0.011160708333333333
EXTRACT: pitchwheel channel=3 pitch=-1408 time=0.017857133333333334
EXTRACT: pitchwheel channel=3 pitch=-1408 time=0.0044642833333333335
EXTRACT: pitchwheel channel=3 pitch=0 time=0
EXTRACT: note_off channel=3 note=60 velocity=95 time=0
EXTRACT: note_off channel=0 note=59 velocity=70 time=0.033482125
EXTRACT: note_on channel=0 note=63 velocity=95 time=0
EXTRACT: note_off channel=2 note=59 velocity=70 time=0
EXTRACT: note_on channel=2 note=63 velocity=95 time=0
EXTRACT: note_off channel=5 note=64 velocity=95 time=0
EXTRACT: note_off channel=5 note=59 velocity=95 time=0
EXTRACT: note_off channel=5 note=55 velocity=95 time=0
EXTRACT: note_off channel=5 note=50 velocity=95 time=0
EXTRACT: note_off channel=0 note=63 velocity=95 time=0.267857
EXTRACT: note_on channel=0 note=66 velocity=95 time=0
EXTRACT: note_off channel=2 note=63 velocity=95 time=0
EXTRACT: note_on channel=2 note=66 velocity=95 time=0
EXTRACT: pitchwheel channel=4 pitch=0 time=0
EXTRACT: note_on channel=4 note=62 velocity=95 time=0
EXTRACT: note_on channel=5 note=64 velocity=95 time=0
EXTRACT: note_on channel=5 note=59 velocity=95 time=0
EXTRACT: note_on channel=5 note=55 velocity=95 time=0
EXTRACT: note_on channel=5 note=50 velocity=95 time=0
EXTRACT: note_off channel=7 note=33 velocity=95 time=0
EXTRACT: note_off channel=8 note=23 velocity=95 time=0
EXTRACT: note_off channel=9 note=36 velocity=95 time=0
EXTRACT: note_on channel=9 note=28 velocity=95 time=0
EXTRACT: note_on channel=9 note=39 velocity=95 time=0
EXTRACT: pitchwheel channel=3 pitch=0 time=0.033482125
EXTRACT: note_on channel=3 note=63 velocity=95 time=0
EXTRACT: pitchwheel channel=4 pitch=128 time=0.013392850000000001
EXTRACT: pitchwheel channel=3 pitch=128 time=0.033482125
EXTRACT: pitchwheel channel=4 pitch=256 time=0.013392850000000001
EXTRACT: pitchwheel channel=3 pitch=256 time=0.033482125
EXTRACT: note_on channel=7 note=33 velocity=95 time=0.006696425000000001
EXTRACT: note_on channel=8 note=23 velocity=95 time=0
EXTRACT: note_on channel=10 note=40 velocity=95 time=0
EXTRACT: note_off channel=9 note=28 velocity=95 time=0
EXTRACT: note_off channel=9 note=39 velocity=95 time=0
EXTRACT: note_on channel=9 note=36 velocity=95 time=0
EXTRACT: pitchwheel channel=4 pitch=384 time=0.006696425000000001
EXTRACT: pitchwheel channel=3 pitch=384 time=0.033482125
EXTRACT: pitchwheel channel=4 pitch=512 time=0.013392850000000001
EXTRACT: note_off channel=10 note=40 velocity=95 time=0.013392850000000001
EXTRACT: pitchwheel channel=3 pitch=512 time=0.020089275
EXTRACT: pitchwheel channel=4 pitch=640 time=0.013392850000000001
EXTRACT: pitchwheel channel=4 pitch=640 time=0
EXTRACT: pitchwheel channel=4 pitch=0 time=0
EXTRACT: note_off channel=4 note=62 velocity=95 time=0
EXTRACT: note_off channel=0 note=66 velocity=95 time=0.033482125
EXTRACT: note_on channel=0 note=59 velocity=95 time=0
EXTRACT: note_off channel=2 note=66 velocity=95 time=0
EXTRACT: note_on channel=2 note=59 velocity=95 time=0
EXTRACT: pitchwheel channel=3 pitch=640 time=0
EXTRACT: pitchwheel channel=3 pitch=640 time=0
EXTRACT: pitchwheel channel=3 pitch=0 time=0
EXTRACT: note_off channel=3 note=63 velocity=95 time=0
EXTRACT: pitchwheel channel=4 pitch=0 time=0
EXTRACT: note_on channel=4 note=63 velocity=95 time=0
EXTRACT: note_off channel=7 note=33 velocity=95 time=0
EXTRACT: note_on channel=7 note=33 velocity=95 time=0
EXTRACT: note_off channel=8 note=23 velocity=95 time=0
EXTRACT: note_on channel=8 note=23 velocity=95 time=0
EXTRACT: note_on channel=10 note=40 velocity=95 time=0
EXTRACT: note_off channel=9 note=36 velocity=95 time=0
EXTRACT: note_on channel=9 note=36 velocity=95 time=0
EXTRACT: pitchwheel channel=4 pitch=128 time=0.023995522916666668
EXTRACT: pitchwheel channel=3 pitch=0 time=0.009486602083333334
EXTRACT: note_on channel=3 note=64 velocity=95 time=0
EXTRACT: pitchwheel channel=4 pitch=256 time=0.014508920833333334
EXTRACT: pitchwheel channel=3 pitch=128 time=0.009486602083333334
EXTRACT: note_off channel=10 note=40 velocity=95 time=0.009486602083333334
EXTRACT: pitchwheel channel=4 pitch=384 time=0.00502231875
EXTRACT: pitchwheel channel=3 pitch=256 time=0.009486602083333334
EXTRACT: pitchwheel channel=4 pitch=512 time=0.014508920833333334
EXTRACT: pitchwheel channel=3 pitch=384 time=0.009486602083333334
EXTRACT: pitchwheel channel=4 pitch=640 time=0.014508920833333334
EXTRACT: pitchwheel channel=3 pitch=512 time=0.009486602083333334
EXTRACT: pitchwheel channel=4 pitch=768 time=0.014508920833333334
EXTRACT: pitchwheel channel=3 pitch=640 time=0.009486602083333334
EXTRACT: pitchwheel channel=4 pitch=896 time=0.014508920833333334
EXTRACT: pitchwheel channel=3 pitch=768 time=0.009486602083333334
EXTRACT: pitchwheel channel=4 pitch=1024 time=0.014508920833333334
EXTRACT: pitchwheel channel=3 pitch=896 time=0.009486602083333334
EXTRACT: pitchwheel channel=4 pitch=1152 time=0.014508920833333334
EXTRACT: pitchwheel channel=3 pitch=1024 time=0.009486602083333334
EXTRACT: pitchwheel channel=4 pitch=1280 time=0.014508920833333334
EXTRACT: pitchwheel channel=3 pitch=1152 time=0.009486602083333334
EXTRACT: pitchwheel channel=4 pitch=1408 time=0.014508920833333334
EXTRACT: note_off channel=0 note=59 velocity=95 time=0.003906247916666667
EXTRACT: note_on channel=0 note=58 velocity=70 time=0
EXTRACT: note_off channel=1 note=71 velocity=95 time=0
EXTRACT: note_off channel=1 note=66 velocity=95 time=0
EXTRACT: note_off channel=1 note=63 velocity=95 time=0
EXTRACT: note_off channel=1 note=59 velocity=95 time=0
EXTRACT: note_on channel=1 note=70 velocity=95 time=0
EXTRACT: note_on channel=1 note=66 velocity=95 time=0
EXTRACT: note_on channel=1 note=63 velocity=95 time=0
EXTRACT: note_on channel=1 note=58 velocity=95 time=0
EXTRACT: note_off channel=2 note=59 velocity=95 time=0
EXTRACT: note_on channel=2 note=58 velocity=70 time=0
EXTRACT: pitchwheel channel=4 pitch=1408 time=0
EXTRACT: pitchwheel channel=4 pitch=0 time=0
EXTRACT: note_off channel=4 note=63 velocity=95 time=0
EXTRACT: pitchwheel channel=4 pitch=0 time=0
EXTRACT: note_on channel=4 note=59 velocity=95 time=0
EXTRACT: pitchwheel channel=6 pitch=0 time=0
EXTRACT: note_on channel=6 note=53 velocity=95 time=0
EXTRACT: pitchwheel channel=6 pitch=0 time=0
EXTRACT: note_on channel=6 note=53 velocity=95 time=0
EXTRACT: note_off channel=7 note=33 velocity=95 time=0
EXTRACT: note_off channel=9 note=36 velocity=95 time=0
EXTRACT: pitchwheel channel=3 pitch=1280 time=0.005580354166666667
EXTRACT: pitchwheel channel=6 pitch=-128 time=0.010602672916666667
EXTRACT: pitchwheel channel=6 pitch=-128 time=0
EXTRACT: pitchwheel channel=4 pitch=-128 time=0.0016741062500000002
EXTRACT: pitchwheel channel=3 pitch=1408 time=0.01171874375
EXTRACT: pitchwheel channel=6 pitch=-256 time=0.0027901770833333333
EXTRACT: pitchwheel channel=6 pitch=-256 time=0
EXTRACT: pitchwheel channel=3 pitch=1408 time=0.0011160708333333334
EXTRACT: pitchwheel channel=3 pitch=0 time=0
EXTRACT: note_off channel=3 note=64 velocity=95 time=0
EXTRACT: pitchwheel channel=3 pitch=0 time=0
EXTRACT: note_on channel=3 note=60 velocity=95 time=0
EXTRACT: pitchwheel channel=4 pitch=-256 time=0.0022321416666666667
EXTRACT: pitchwheel channel=6 pitch=-384 time=0.012834814583333333
EXTRACT: pitchwheel channel=6 pitch=-384 time=0
EXTRACT: pitchwheel channel=3 pitch=-128 time=0.0027901770833333333
EXTRACT: pitchwheel channel=4 pitch=-384 time=0.0022321416666666667
EXTRACT: pitchwheel channel=6 pitch=-512 time=0.011160708333333333
EXTRACT: pitchwheel channel=6 pitch=-512 time=0
EXTRACT: pitchwheel channel=3 pitch=-256 time=0.0044642833333333335
EXTRACT: pitchwheel channel=4 pitch=-512 time=0.0022321416666666667
EXTRACT: pitchwheel channel=6 pitch=-640 time=0.009486602083333334
EXTRACT: pitchwheel channel=6 pitch=-640 time=0
EXTRACT: pitchwheel channel=3 pitch=-384 time=0.006138389583333333
EXTRACT: pitchwheel channel=4 pitch=-640 time=0.0022321416666666667
EXTRACT: pitchwheel channel=6 pitch=-768 time=0.007812495833333334
EXTRACT: pitchwheel channel=6 pitch=-768 time=0
EXTRACT: pitchwheel channel=3 pitch=-512 time=0.007812495833333334
EXTRACT: pitchwheel channel=4 pitch=-768 time=0.0022321416666666667
EXTRACT: pitchwheel channel=6 pitch=-896 time=0.006138389583333333
EXTRACT: pitchwheel channel=6 pitch=-896 time=0
EXTRACT: pitchwheel channel=3 pitch=-640 time=0.009486602083333334
EXTRACT: pitchwheel channel=4 pitch=-896 time=0.0022321416666666667
EXTRACT: pitchwheel channel=6 pitch=-1024 time=0.0044642833333333335
EXTRACT: pitchwheel channel=6 pitch=-1024 time=0
EXTRACT: pitchwheel channel=3 pitch=-768 time=0.011160708333333333
EXTRACT: pitchwheel channel=4 pitch=-1024 time=0.0022321416666666667
EXTRACT: pitchwheel channel=6 pitch=-1152 time=0.0027901770833333333
EXTRACT: pitchwheel channel=6 pitch=-1152 time=0
EXTRACT: pitchwheel channel=3 pitch=-896 time=0.012834814583333333
EXTRACT: pitchwheel channel=4 pitch=-1152 time=0.0022321416666666667
EXTRACT: pitchwheel channel=6 pitch=-1280 time=0.0011160708333333334
EXTRACT: pitchwheel channel=6 pitch=-1280 time=0
EXTRACT: pitchwheel channel=3 pitch=-1024 time=0.014508920833333334
EXTRACT: pitchwheel channel=6 pitch=-1408 time=0.0016741062500000002
EXTRACT: pitchwheel channel=6 pitch=-1408 time=0
EXTRACT: pitchwheel channel=4 pitch=-1280 time=0.0005580354166666667
EXTRACT: pitchwheel channel=3 pitch=-1152 time=0.015624991666666668
EXTRACT: pitchwheel channel=6 pitch=-1536 time=0
EXTRACT: pitchwheel channel=6 pitch=-1536 time=0
EXTRACT: pitchwheel channel=4 pitch=-1408 time=0.0022321416666666667
EXTRACT: pitchwheel channel=4 pitch=-1408 time=0.0044642833333333335
EXTRACT: pitchwheel channel=4 pitch=0 time=0
EXTRACT: note_off channel=4 note=59 velocity=95 time=0
EXTRACT: pitchwheel channel=6 pitch=-1664 time=0.009486602083333334
EXTRACT: pitchwheel channel=6 pitch=-1664 time=0
EXTRACT: pitchwheel channel=3 pitch=-1280 time=0.0016741062500000002
EXTRACT: pitchwheel channel=6 pitch=-1792 time=0.014508920833333334
EXTRACT: pitchwheel channel=6 pitch=-1792 time=0
EXTRACT: pitchwheel channel=3 pitch=-1408 time=0.0033482125000000003
EXTRACT: pitchwheel channel=3 pitch=-1408 time=0.0044642833333333335
EXTRACT: pitchwheel channel=3 pitch=0 time=0
EXTRACT: note_off channel=3 note=60 velocity=95 time=0
EXTRACT: pitchwheel channel=6 pitch=-1920 time=0.00837053125
EXTRACT: pitchwheel channel=6 pitch=-1920 time=0
EXTRACT: pitchwheel channel=6 pitch=-2048 time=0.016183027083333332
EXTRACT: pitchwheel channel=6 pitch=-2048 time=0
EXTRACT: note_off channel=0 note=58 velocity=70 time=0.008928566666666667
EXTRACT: note_on channel=0 note=63 velocity=95 time=0
EXTRACT: note_off channel=2 note=58 velocity=70 time=0
EXTRACT: note_on channel=2 note=63 velocity=95 time=0
EXTRACT: note_off channel=5 note=64 velocity=95 time=0
EXTRACT: note_off channel=5 note=59 velocity=95 time=0
EXTRACT: note_off channel=5 note=55 velocity=95 time=0
EXTRACT: note_off channel=5 note=50 velocity=95 time=0
EXTRACT: note_on channel=7 note=33 velocity=95 time=0
EXTRACT: note_off channel=8 note=23 velocity=95 time=0
EXTRACT: note_on channel=8 note=23 velocity=95 time=0
EXTRACT: note_on channel=10 note=40 velocity=95 time=0
EXTRACT: note_on channel=9 note=36 velocity=95 time=0
EXTRACT: pitchwheel channel=6 pitch=-2176 time=0.007254460416666667
EXTRACT: pitchwheel channel=6 pitch=-2176 time=0
EXTRACT: pitchwheel channel=6 pitch=-2304 time=0.016183027083333332
EXTRACT: pitchwheel channel=6 pitch=-2304 time=0
EXTRACT: pitchwheel channel=6 pitch=-2432 time=0.016183027083333332
EXTRACT: pitchwheel channel=6 pitch=-2432 time=0
EXTRACT: pitchwheel channel=6 pitch=-2560 time=0.016183027083333332
EXTRACT: pitchwheel channel=6 pitch=-2560 time=0
EXTRACT: note_off channel=10 note=40 velocity=95 time=0.011160708333333333
EXTRACT: pitchwheel channel=6 pitch=-2688 time=0.00502231875
EXTRACT: pitchwheel channel=6 pitch=-2688 time=0
EXTRACT: pitchwheel channel=6 pitch=-2816 time=0.016183027083333332
EXTRACT: pitchwheel channel=6 pitch=-2816 time=0
EXTRACT: pitchwheel channel=6 pitch=-2944 time=0.016183027083333332
EXTRACT: pitchwheel channel=6 pitch=-2944 time=0
EXTRACT: pitchwheel channel=6 pitch=-3072 time=0.016183027083333332
EXTRACT: pitchwheel channel=6 pitch=-3072 time=0
EXTRACT: pitchwheel channel=6 pitch=-3200 time=0.016183027083333332
EXTRACT: pitchwheel channel=6 pitch=-3200 time=0
EXTRACT: pitchwheel channel=6 pitch=-3328 time=0.016183027083333332
EXTRACT: pitchwheel channel=6 pitch=-3328 time=0
EXTRACT: pitchwheel channel=6 pitch=-3456 time=0.016183027083333332
EXTRACT: pitchwheel channel=6 pitch=-3456 time=0
EXTRACT: pitchwheel channel=6 pitch=-3584 time=0.016183027083333332
EXTRACT: pitchwheel channel=6 pitch=-3584 time=0
EXTRACT: pitchwheel channel=6 pitch=-3712 time=0.016183027083333332
EXTRACT: pitchwheel channel=6 pitch=-3712 time=0
EXTRACT: pitchwheel channel=6 pitch=-3840 time=0.016183027083333332
EXTRACT: pitchwheel channel=6 pitch=-3840 time=0
EXTRACT: pitchwheel channel=6 pitch=-3968 time=0.016183027083333332
EXTRACT: pitchwheel channel=6 pitch=-3968 time=0
EXTRACT: pitchwheel channel=6 pitch=-4096 time=0.016183027083333332
EXTRACT: pitchwheel channel=6 pitch=-4096 time=0
EXTRACT: pitchwheel channel=6 pitch=-4224 time=0.016183027083333332
EXTRACT: pitchwheel channel=6 pitch=-4224 time=0
EXTRACT: note_off channel=0 note=63 velocity=95 time=0.0016741062500000002
EXTRACT: note_off channel=2 note=63 velocity=95 time=0
EXTRACT: note_on channel=2 note=46 velocity=127 time=0
EXTRACT: note_on channel=5 note=64 velocity=95 time=0
EXTRACT: note_on channel=5 note=59 velocity=95 time=0
EXTRACT: note_on channel=5 note=55 velocity=95 time=0
EXTRACT: note_on channel=5 note=50 velocity=95 time=0
EXTRACT: note_off channel=7 note=33 velocity=95 time=0
EXTRACT: note_off channel=9 note=36 velocity=95 time=0
EXTRACT: note_on channel=9 note=28 velocity=95 time=0
EXTRACT: note_on channel=9 note=39 velocity=95 time=0
EXTRACT: pitchwheel channel=6 pitch=-4352 time=0.014508920833333334
EXTRACT: pitchwheel channel=6 pitch=-4352 time=0
EXTRACT: pitchwheel channel=6 pitch=-4480 time=0.016183027083333332
EXTRACT: pitchwheel channel=6 pitch=-4480 time=0
EXTRACT: pitchwheel channel=6 pitch=-4608 time=0.016183027083333332
EXTRACT: pitchwheel channel=6 pitch=-4608 time=0
EXTRACT: pitchwheel channel=6 pitch=-4736 time=0.016183027083333332
EXTRACT: pitchwheel channel=6 pitch=-4736 time=0
EXTRACT: pitchwheel channel=6 pitch=-4864 time=0.016183027083333332
EXTRACT: pitchwheel channel=6 pitch=-4864 time=0
EXTRACT: pitchwheel channel=6 pitch=-4992 time=0.016183027083333332
EXTRACT: pitchwheel channel=6 pitch=-4992 time=0
EXTRACT: pitchwheel channel=6 pitch=-5120 time=0.016183027083333332
EXTRACT: pitchwheel channel=6 pitch=-5120 time=0
EXTRACT: pitchwheel channel=6 pitch=-5248 time=0.016183027083333332
EXTRACT: pitchwheel channel=6 pitch=-5248 time=0
EXTRACT: pitchwheel channel=6 pitch=-5376 time=0.016183027083333332
EXTRACT: pitchwheel channel=6 pitch=-5376 time=0
EXTRACT: pitchwheel channel=6 pitch=-5504 time=0.016183027083333332
EXTRACT: pitchwheel channel=6 pitch=-5504 time=0
EXTRACT: pitchwheel channel=6 pitch=-5632 time=0.016183027083333332
EXTRACT: pitchwheel channel=6 pitch=-5632 time=0
EXTRACT: pitchwheel channel=6 pitch=-5760 time=0.016183027083333332
EXTRACT: pitchwheel channel=6 pitch=-5760 time=0
EXTRACT: pitchwheel channel=6 pitch=-5888 time=0.016183027083333332
EXTRACT: pitchwheel channel=6 pitch=-5888 time=0
EXTRACT: pitchwheel channel=6 pitch=-6016 time=0.016183027083333332
EXTRACT: pitchwheel channel=6 pitch=-6016 time=0
EXTRACT: pitchwheel channel=6 pitch=-6144 time=0.016183027083333332
EXTRACT: pitchwheel channel=6 pitch=-6144 time=0
EXTRACT: pitchwheel channel=6 pitch=-6272 time=0.016183027083333332
EXTRACT: pitchwheel channel=6 pitch=-6272 time=0
EXTRACT: note_on channel=0 note=58 velocity=95 time=0.010602672916666667
EXTRACT: note_on channel=2 note=58 velocity=95 time=0
EXTRACT: note_off channel=8 note=23 velocity=95 time=0
EXTRACT: pitchwheel channel=6 pitch=-6400 time=0.005580354166666667
EXTRACT: pitchwheel channel=6 pitch=-6400 time=0
EXTRACT: pitchwheel channel=6 pitch=-6528 time=0.016183027083333332
EXTRACT: pitchwheel channel=6 pitch=-6528 time=0
EXTRACT: pitchwheel channel=6 pitch=-6656 time=0.016183027083333332
EXTRACT: pitchwheel channel=6 pitch=-6656 time=0
EXTRACT: pitchwheel channel=6 pitch=-6784 time=0.016183027083333332
EXTRACT: pitchwheel channel=6 pitch=-6784 time=0
EXTRACT: pitchwheel channel=6 pitch=-6912 time=0.016183027083333332
EXTRACT: pitchwheel channel=6 pitch=-6912 time=0
EXTRACT: pitchwheel channel=6 pitch=-7040 time=0.016183027083333332
EXTRACT: pitchwheel channel=6 pitch=-7040 time=0
EXTRACT: pitchwheel channel=6 pitch=-7168 time=0.016183027083333332
EXTRACT: pitchwheel channel=6 pitch=-7168 time=0
EXTRACT: pitchwheel channel=6 pitch=-7296 time=0.016183027083333332
EXTRACT: pitchwheel channel=6 pitch=-7296 time=0
EXTRACT: pitchwheel channel=6 pitch=-7424 time=0.016183027083333332
EXTRACT: pitchwheel channel=6 pitch=-7424 time=0
EXTRACT: pitchwheel channel=6 pitch=-7552 time=0.016183027083333332
EXTRACT: pitchwheel channel=6 pitch=-7552 time=0
EXTRACT: pitchwheel channel=6 pitch=-7680 time=0.016183027083333332
EXTRACT: pitchwheel channel=6 pitch=-7680 time=0
EXTRACT: pitchwheel channel=6 pitch=-7808 time=0.016183027083333332
EXTRACT: pitchwheel channel=6 pitch=-7808 time=0
EXTRACT: pitchwheel channel=6 pitch=-7936 time=0.016183027083333332
EXTRACT: pitchwheel channel=6 pitch=-7936 time=0
EXTRACT: pitchwheel channel=6 pitch=-8064 time=0.016183027083333332
EXTRACT: pitchwheel channel=6 pitch=-8064 time=0
EXTRACT: pitchwheel channel=6 pitch=-8192 time=0.016183027083333332
EXTRACT: pitchwheel channel=6 pitch=-8192 time=0
EXTRACT: pitchwheel channel=6 pitch=-8192 time=0.016183027083333332
EXTRACT: pitchwheel channel=6 pitch=-8192 time=0
EXTRACT: pitchwheel channel=6 pitch=-8192 time=0.016183027083333332
EXTRACT: pitchwheel channel=6 pitch=-8192 time=0
EXTRACT: note_off channel=0 note=58 velocity=95 time=0.0033482125000000003
EXTRACT: note_on channel=0 note=59 velocity=70 time=0
EXTRACT: note_off channel=1 note=70 velocity=95 time=0
EXTRACT: note_off channel=1 note=66 velocity=95 time=0
EXTRACT: note_off channel=1 note=63 velocity=95 time=0
EXTRACT: note_off channel=1 note=58 velocity=95 time=0
EXTRACT: note_on channel=1 note=71 velocity=95 time=0
EXTRACT: note_on channel=1 note=66 velocity=95 time=0
EXTRACT: note_on channel=1 note=63 velocity=95 time=0
EXTRACT: note_on channel=1 note=59 velocity=95 time=0
EXTRACT: note_off channel=2 note=46 velocity=127 time=0
EXTRACT: note_off channel=2 note=58 velocity=95 time=0
EXTRACT: note_on channel=2 note=59 velocity=70 time=0
EXTRACT: note_on channel=2 note=47 velocity=127 time=0
EXTRACT: pitchwheel channel=6 pitch=-8192 time=0
EXTRACT: pitchwheel channel=6 pitch=0 time=0
EXTRACT: note_off channel=6 note=53 velocity=95 time=0
EXTRACT: pitchwheel channel=6 pitch=-8192 time=0
EXTRACT: pitchwheel channel=6 pitch=0 time=0
EXTRACT: note_off channel=6 note=53 velocity=95 time=0
EXTRACT: note_on channel=7 note=33 velocity=95 time=0
EXTRACT: note_on channel=8 note=23 velocity=95 time=0
EXTRACT: note_on channel=10 note=40 velocity=95 time=0
EXTRACT: note_off channel=9 note=28 velocity=95 time=0
EXTRACT: note_off channel=9 note=39 velocity=95 time=0
EXTRACT: note_on channel=9 note=36 velocity=95 time=0
EXTRACT: note_off channel=10 note=40 velocity=95 time=0.06696425
EXTRACT: note_off channel=0 note=59 velocity=70 time=0.20089275
EXTRACT: note_on channel=0 note=63 velocity=95 time=0
EXTRACT: note_off channel=2 note=59 velocity=70 time=0
EXTRACT: note_off channel=2 note=47 velocity=127 time=0
EXTRACT: note_on channel=2 note=63 velocity=95 time=0
EXTRACT: note_off channel=5 note=64 velocity=95 time=0
EXTRACT: note_off channel=5 note=59 velocity=95 time=0
EXTRACT: note_off channel=5 note=55 velocity=95 time=0
EXTRACT: note_off channel=5 note=50 velocity=95 time=0
EXTRACT: note_off channel=8 note=23 velocity=95 time=0
EXTRACT: note_on channel=8 note=23 velocity=95 time=0
EXTRACT: note_on channel=10 note=40 velocity=95 time=0
EXTRACT: note_off channel=9 note=36 velocity=95 time=0
EXTRACT: note_on channel=9 note=36 velocity=95 time=0
EXTRACT: note_off channel=10 note=40 velocity=95 time=0.06696425
EXTRACT: note_off channel=0 note=63 velocity=95 time=0.20089275
EXTRACT: note_on channel=0 note=66 velocity=95 time=0
EXTRACT: note_off channel=2 note=63 velocity=95 time=0
EXTRACT: note_on channel=2 note=66 velocity=95 time=0
EXTRACT: note_on channel=4 note=63 velocity=47 time=0
EXTRACT: note_on channel=4 note=59 velocity=95 time=0
EXTRACT: note_on channel=5 note=64 velocity=95 time=0
EXTRACT: note_on channel=5 note=59 velocity=95 time=0
EXTRACT: note_on channel=5 note=55 velocity=95 time=0
EXTRACT: note_on channel=5 note=50 velocity=95 time=0
EXTRACT: note_off channel=7 note=33 velocity=95 time=0
EXTRACT: note_off channel=8 note=23 velocity=95 time=0
EXTRACT: note_off channel=9 note=36 velocity=95 time=0
EXTRACT: note_on channel=9 note=28 velocity=95 time=0
EXTRACT: note_on channel=9 note=39 velocity=95 time=0
EXTRACT: note_on channel=3 note=63 velocity=47 time=0.033482125
EXTRACT: note_on channel=3 note=59 velocity=95 time=0
EXTRACT: note_off channel=0 note=66 velocity=95 time=0.234374875
EXTRACT: note_on channel=0 note=59 velocity=95 time=0
EXTRACT: note_off channel=2 note=66 velocity=95 time=0
EXTRACT: note_on channel=2 note=59 velocity=95 time=0
EXTRACT: note_on channel=7 note=33 velocity=95 time=0
EXTRACT: note_on channel=8 note=23 velocity=95 time=0
EXTRACT: note_on channel=10 note=40 velocity=95 time=0
EXTRACT: note_off channel=9 note=28 velocity=95 time=0
EXTRACT: note_off channel=9 note=39 velocity=95 time=0
EXTRACT: note_on channel=9 note=36 velocity=95 time=0
EXTRACT: note_off channel=10 note=40 velocity=95 time=0.06696425
EXTRACT: note_off channel=0 note=59 velocity=95 time=0.20089275
EXTRACT: note_on channel=0 note=58 velocity=70 time=0
EXTRACT: note_off channel=1 note=71 velocity=95 time=0
EXTRACT: note_off channel=1 note=66 velocity=95 time=0
EXTRACT: note_off channel=1 note=63 velocity=95 time=0
EXTRACT: note_off channel=1 note=59 velocity=95 time=0
EXTRACT: note_on channel=1 note=70 velocity=95 time=0
EXTRACT: note_on channel=1 note=66 velocity=95 time=0
EXTRACT: note_on channel=1 note=63 velocity=95 time=0
EXTRACT: note_on channel=1 note=58 velocity=95 time=0
EXTRACT: note_off channel=2 note=59 velocity=95 time=0
EXTRACT: note_on channel=2 note=58 velocity=70 time=0
EXTRACT: note_off channel=4 note=63 velocity=47 time=0
EXTRACT: note_off channel=4 note=59 velocity=95 time=0
EXTRACT: note_on channel=4 note=61 velocity=47 time=0
EXTRACT: note_on channel=4 note=58 velocity=95 time=0
EXTRACT: note_off channel=9 note=36 velocity=95 time=0
EXTRACT: note_off channel=3 note=63 velocity=47 time=0.033482125
EXTRACT: note_off channel=3 note=59 velocity=95 time=0
EXTRACT: note_on channel=3 note=61 velocity=47 time=0
EXTRACT: note_on channel=3 note=58 velocity=95 time=0
EXTRACT: note_off channel=0 note=58 velocity=70 time=0.234374875
EXTRACT: note_on channel=0 note=63 velocity=95 time=0
EXTRACT: note_off channel=2 note=58 velocity=70 time=0
EXTRACT: note_on channel=2 note=63 velocity=95 time=0
EXTRACT: note_off channel=5 note=64 velocity=95 time=0
EXTRACT: note_off channel=5 note=59 velocity=95 time=0
EXTRACT: note_off channel=5 note=55 velocity=95 time=0
EXTRACT: note_off channel=5 note=50 velocity=95 time=0
EXTRACT: note_off channel=7 note=33 velocity=95 time=0
EXTRACT: note_on channel=7 note=33 velocity=95 time=0
EXTRACT: note_off channel=8 note=23 velocity=95 time=0
EXTRACT: note_on channel=8 note=23 velocity=95 time=0
EXTRACT: note_on channel=10 note=40 velocity=95 time=0
EXTRACT: note_on channel=9 note=36 velocity=95 time=0
EXTRACT: note_off channel=10 note=40 velocity=95 time=0.06696425
EXTRACT: note_off channel=0 note=63 velocity=95 time=0.20089275
EXTRACT: note_off channel=2 note=63 velocity=95 time=0
EXTRACT: note_off channel=4 note=61 velocity=47 time=0
EXTRACT: note_off channel=4 note=58 velocity=95 time=0
EXTRACT: pitchwheel channel=4 pitch=0 time=0
EXTRACT: note_on channel=4 note=62 velocity=95 time=0
EXTRACT: note_on channel=5 note=64 velocity=95 time=0
EXTRACT: note_on channel=5 note=59 velocity=95 time=0
EXTRACT: note_on channel=5 note=55 velocity=95 time=0
EXTRACT: note_on channel=5 note=50 velocity=95 time=0
EXTRACT: note_off channel=7 note=33 velocity=95 time=0
EXTRACT: note_off channel=9 note=36 velocity=95 time=0
EXTRACT: note_on channel=9 note=28 velocity=95 time=0
EXTRACT: note_on channel=9 note=39 velocity=95 time=0
EXTRACT: note_off channel=3 note=61 velocity=47 time=0.033482125
EXTRACT: note_off channel=3 note=58 velocity=95 time=0
EXTRACT: pitchwheel channel=3 pitch=0 time=0
EXTRACT: note_on channel=3 note=63 velocity=95 time=0
EXTRACT: pitchwheel channel=4 pitch=128 time=0.013392850000000001
EXTRACT: pitchwheel channel=3 pitch=128 time=0.033482125
EXTRACT: pitchwheel channel=4 pitch=256 time=0.013392850000000001
EXTRACT: pitchwheel channel=3 pitch=256 time=0.033482125
EXTRACT: pitchwheel channel=4 pitch=384 time=0.013392850000000001
EXTRACT: pitchwheel channel=3 pitch=384 time=0.033482125
EXTRACT: pitchwheel channel=4 pitch=512 time=0.013392850000000001
EXTRACT: pitchwheel channel=3 pitch=512 time=0.033482125
EXTRACT: pitchwheel channel=4 pitch=640 time=0.013392850000000001
EXTRACT: pitchwheel channel=4 pitch=640 time=0
EXTRACT: pitchwheel channel=4 pitch=0 time=0
EXTRACT: note_off channel=4 note=62 velocity=95 time=0
EXTRACT: note_on channel=0 note=58 velocity=95 time=0.033482125
EXTRACT: note_on channel=2 note=58 velocity=95 time=0
EXTRACT: pitchwheel channel=3 pitch=640 time=0
EXTRACT: pitchwheel channel=3 pitch=640 time=0
EXTRACT: pitchwheel channel=3 pitch=0 time=0
EXTRACT: note_off channel=3 note=63 velocity=95 time=0
EXTRACT: pitchwheel channel=4 pitch=0 time=0
EXTRACT: note_on channel=4 note=63 velocity=95 time=0
EXTRACT: note_off channel=8 note=23 velocity=95 time=0
EXTRACT: pitchwheel channel=4 pitch=128 time=0.023995522916666668
EXTRACT: pitchwheel channel=3 pitch=0 time=0.009486602083333334
EXTRACT: note_on channel=3 note=64 velocity=95 time=0
EXTRACT: pitchwheel channel=4 pitch=256 time=0.014508920833333334
EXTRACT: pitchwheel channel=3 pitch=128 time=0.009486602083333334
EXTRACT: pitchwheel channel=4 pitch=384 time=0.014508920833333334
EXTRACT: pitchwheel channel=3 pitch=256 time=0.009486602083333334
EXTRACT: pitchwheel channel=4 pitch=512 time=0.014508920833333334
EXTRACT: pitchwheel channel=3 pitch=384 time=0.009486602083333334
EXTRACT: pitchwheel channel=4 pitch=640 time=0.014508920833333334
EXTRACT: pitchwheel channel=3 pitch=512 time=0.009486602083333334
EXTRACT: pitchwheel channel=4 pitch=768 time=0.014508920833333334
EXTRACT: pitchwheel channel=3 pitch=640 time=0.009486602083333334
EXTRACT: pitchwheel channel=4 pitch=896 time=0.014508920833333334
EXTRACT: pitchwheel channel=3 pitch=768 time=0.009486602083333334
EXTRACT: pitchwheel channel=4 pitch=1024 time=0.014508920833333334
EXTRACT: pitchwheel channel=3 pitch=896 time=0.009486602083333334
EXTRACT: pitchwheel channel=4 pitch=1152 time=0.014508920833333334
EXTRACT: pitchwheel channel=3 pitch=1024 time=0.009486602083333334
EXTRACT: pitchwheel channel=4 pitch=1280 time=0.014508920833333334
EXTRACT: pitchwheel channel=3 pitch=1152 time=0.009486602083333334
EXTRACT: pitchwheel channel=4 pitch=1408 time=0.014508920833333334
EXTRACT: note_off channel=0 note=58 velocity=95 time=0.003906247916666667
EXTRACT: note_on channel=0 note=59 velocity=70 time=0
EXTRACT: note_off channel=1 note=70 velocity=95 time=0
EXTRACT: note_off channel=1 note=66 velocity=95 time=0
EXTRACT: note_off channel=1 note=63 velocity=95 time=0
EXTRACT: note_off channel=1 note=58 velocity=95 time=0
EXTRACT: note_on channel=1 note=71 velocity=95 time=0
EXTRACT: note_on channel=1 note=66 velocity=95 time=0
EXTRACT: note_on channel=1 note=63 velocity=95 time=0
EXTRACT: note_on channel=1 note=59 velocity=95 time=0
EXTRACT: note_off channel=2 note=58 velocity=95 time=0
EXTRACT: note_on channel=2 note=59 velocity=70 time=0
EXTRACT: pitchwheel channel=4 pitch=1408 time=0
EXTRACT: pitchwheel channel=4 pitch=0 time=0
EXTRACT: note_off channel=4 note=63 velocity=95 time=0
EXTRACT: pitchwheel channel=4 pitch=0 time=0
EXTRACT: note_on channel=4 note=59 velocity=95 time=0
EXTRACT: note_on channel=7 note=33 velocity=95 time=0
EXTRACT: note_on channel=8 note=23 velocity=95 time=0
EXTRACT: note_on channel=10 note=40 velocity=95 time=0
EXTRACT: note_off channel=9 note=28 velocity=95 time=0
EXTRACT: note_off channel=9 note=39 velocity=95 time=0
EXTRACT: note_on channel=9 note=36 velocity=95 time=0
EXTRACT: pitchwheel channel=3 pitch=1280 time=0.005580354166666667
EXTRACT: pitchwheel channel=4 pitch=-128 time=0.012276779166666666
EXTRACT: pitchwheel channel=3 pitch=1408 time=0.01171874375
EXTRACT: pitchwheel channel=3 pitch=1408 time=0.003906247916666667
EXTRACT: pitchwheel channel=3 pitch=0 time=0
EXTRACT: note_off channel=3 note=64 velocity=95 time=0
EXTRACT: pitchwheel channel=3 pitch=0 time=0
EXTRACT: note_on channel=3 note=60 velocity=95 time=0
EXTRACT: pitchwheel channel=4 pitch=-256 time=0.0022321416666666667
EXTRACT: pitchwheel channel=3 pitch=-128 time=0.015624991666666668
EXTRACT: pitchwheel channel=4 pitch=-384 time=0.0022321416666666667
EXTRACT: note_off channel=10 note=40 velocity=95 time=0.013392850000000001
EXTRACT: pitchwheel channel=3 pitch=-256 time=0.0022321416666666667
EXTRACT: pitchwheel channel=4 pitch=-512 time=0.0022321416666666667
EXTRACT: pitchwheel channel=3 pitch=-384 time=0.015624991666666668
EXTRACT: pitchwheel channel=4 pitch=-640 time=0.0022321416666666667
EXTRACT: pitchwheel channel=3 pitch=-512 time=0.015624991666666668
EXTRACT: pitchwheel channel=4 pitch=-768 time=0.0022321416666666667
EXTRACT: pitchwheel channel=3 pitch=-640 time=0.015624991666666668
EXTRACT: pitchwheel channel=4 pitch=-896 time=0.0022321416666666667
EXTRACT: pitchwheel channel=3 pitch=-768 time=0.015624991666666668
EXTRACT: pitchwheel channel=4 pitch=-1024 time=0.0022321416666666667
EXTRACT: pitchwheel channel=3 pitch=-896 time=0.015624991666666668
EXTRACT: pitchwheel channel=4 pitch=-1152 time=0.0022321416666666667
EXTRACT: pitchwheel channel=3 pitch=-1024 time=0.015624991666666668
EXTRACT: pitchwheel channel=4 pitch=-1280 time=0.0022321416666666667
EXTRACT: pitchwheel channel=3 pitch=-1152 time=0.015624991666666668
EXTRACT: pitchwheel channel=4 pitch=-1408 time=0.0022321416666666667
EXTRACT: pitchwheel channel=4 pitch=-1408 time=0.0044642833333333335
EXTRACT: pitchwheel channel=4 pitch=0 time=0
EXTRACT: note_off channel=4 note=59 velocity=95 time=0
EXTRACT: pitchwheel channel=3 pitch=-1280 time=0.011160708333333333
EXTRACT: pitchwheel channel=3 pitch=-1408 time=0.017857133333333334
EXTRACT: pitchwheel channel=3 pitch=-1408 time=0.0044642833333333335
EXTRACT: pitchwheel channel=3 pitch=0 time=0
EXTRACT: note_off channel=3 note=60 velocity=95 time=0
EXTRACT: note_off channel=0 note=59 velocity=70 time=0.033482125
EXTRACT: note_on channel=0 note=63 velocity=95 time=0
EXTRACT: note_off channel=2 note=59 velocity=70 time=0
EXTRACT: note_on channel=2 note=63 velocity=95 time=0
EXTRACT: note_off channel=5 note=64 velocity=95 time=0
EXTRACT: note_off channel=5 note=59 velocity=95 time=0
EXTRACT: note_off channel=5 note=55 velocity=95 time=0
EXTRACT: note_off channel=5 note=50 velocity=95 time=0
EXTRACT: note_off channel=0 note=63 velocity=95 time=0.267857
EXTRACT: note_on channel=0 note=66 velocity=95 time=0
EXTRACT: note_off channel=2 note=63 velocity=95 time=0
EXTRACT: note_on channel=2 note=66 velocity=95 time=0
EXTRACT: pitchwheel channel=4 pitch=0 time=0
EXTRACT: note_on channel=4 note=62 velocity=95 time=0
EXTRACT: note_on channel=5 note=64 velocity=95 time=0
EXTRACT: note_on channel=5 note=59 velocity=95 time=0
EXTRACT: note_on channel=5 note=55 velocity=95 time=0
EXTRACT: note_on channel=5 note=50 velocity=95 time=0
EXTRACT: note_off channel=7 note=33 velocity=95 time=0
EXTRACT: note_off channel=8 note=23 velocity=95 time=0
EXTRACT: note_off channel=9 note=36 velocity=95 time=0
EXTRACT: note_on channel=9 note=28 velocity=95 time=0
EXTRACT: note_on channel=9 note=39 velocity=95 time=0
EXTRACT: pitchwheel channel=3 pitch=0 time=0.033482125
EXTRACT: note_on channel=3 note=63 velocity=95 time=0
EXTRACT: pitchwheel channel=4 pitch=128 time=0.013392850000000001
EXTRACT: pitchwheel channel=3 pitch=128 time=0.033482125
EXTRACT: pitchwheel channel=4 pitch=256 time=0.013392850000000001
EXTRACT: pitchwheel channel=3 pitch=256 time=0.033482125
EXTRACT: pitchwheel channel=4 pitch=384 time=0.013392850000000001
EXTRACT: pitchwheel channel=3 pitch=384 time=0.033482125
EXTRACT: pitchwheel channel=4 pitch=512 time=0.013392850000000001
EXTRACT: pitchwheel channel=3 pitch=512 time=0.033482125
EXTRACT: pitchwheel channel=4 pitch=640 time=0.013392850000000001
EXTRACT: pitchwheel channel=4 pitch=640 time=0
EXTRACT: pitchwheel channel=4 pitch=0 time=0
EXTRACT: note_off channel=4 note=62 velocity=95 time=0
EXTRACT: note_off channel=0 note=66 velocity=95 time=0.033482125
EXTRACT: note_on channel=0 note=59 velocity=95 time=0
EXTRACT: note_off channel=2 note=66 velocity=95 time=0
EXTRACT: note_on channel=2 note=59 velocity=95 time=0
EXTRACT: pitchwheel channel=3 pitch=640 time=0
EXTRACT: pitchwheel channel=3 pitch=640 time=0
EXTRACT: pitchwheel channel=3 pitch=0 time=0
EXTRACT: note_off channel=3 note=63 velocity=95 time=0
EXTRACT: pitchwheel channel=4 pitch=0 time=0
EXTRACT: note_on channel=4 note=63 velocity=95 time=0
EXTRACT: note_on channel=7 note=33 velocity=95 time=0
EXTRACT: note_on channel=8 note=23 velocity=95 time=0
EXTRACT: note_on channel=10 note=40 velocity=95 time=0
EXTRACT: note_off channel=9 note=28 velocity=95 time=0
EXTRACT: note_off channel=9 note=39 velocity=95 time=0
EXTRACT: note_on channel=9 note=36 velocity=95 time=0
EXTRACT: pitchwheel channel=4 pitch=128 time=0.023995522916666668
EXTRACT: pitchwheel channel=3 pitch=0 time=0.009486602083333334
EXTRACT: note_on channel=3 note=64 velocity=95 time=0
EXTRACT: pitchwheel channel=4 pitch=256 time=0.014508920833333334
EXTRACT: pitchwheel channel=3 pitch=128 time=0.009486602083333334
EXTRACT: note_off channel=10 note=40 velocity=95 time=0.009486602083333334
EXTRACT: pitchwheel channel=4 pitch=384 time=0.00502231875
EXTRACT: pitchwheel channel=3 pitch=256 time=0.009486602083333334
EXTRACT: pitchwheel channel=4 pitch=512 time=0.014508920833333334
EXTRACT: pitchwheel channel=3 pitch=384 time=0.009486602083333334
EXTRACT: pitchwheel channel=4 pitch=640 time=0.014508920833333334
EXTRACT: pitchwheel channel=3 pitch=512 time=0.009486602083333334
EXTRACT: pitchwheel channel=4 pitch=768 time=0.014508920833333334
EXTRACT: pitchwheel channel=3 pitch=640 time=0.009486602083333334
EXTRACT: pitchwheel channel=4 pitch=896 time=0.014508920833333334
EXTRACT: pitchwheel channel=3 pitch=768 time=0.009486602083333334
EXTRACT: pitchwheel channel=4 pitch=1024 time=0.014508920833333334
EXTRACT: pitchwheel channel=3 pitch=896 time=0.009486602083333334
EXTRACT: pitchwheel channel=4 pitch=1152 time=0.014508920833333334
EXTRACT: pitchwheel channel=3 pitch=1024 time=0.009486602083333334
EXTRACT: pitchwheel channel=4 pitch=1280 time=0.014508920833333334
EXTRACT: pitchwheel channel=3 pitch=1152 time=0.009486602083333334
EXTRACT: pitchwheel channel=4 pitch=1408 time=0.014508920833333334
EXTRACT: note_off channel=0 note=59 velocity=95 time=0.003906247916666667
EXTRACT: note_on channel=0 note=58 velocity=70 time=0
EXTRACT: note_off channel=1 note=71 velocity=95 time=0
EXTRACT: note_off channel=1 note=66 velocity=95 time=0
EXTRACT: note_off channel=1 note=63 velocity=95 time=0
EXTRACT: note_off channel=1 note=59 velocity=95 time=0
EXTRACT: note_on channel=1 note=70 velocity=95 time=0
EXTRACT: note_on channel=1 note=66 velocity=95 time=0
EXTRACT: note_on channel=1 note=63 velocity=95 time=0
EXTRACT: note_on channel=1 note=58 velocity=95 time=0
EXTRACT: note_off channel=2 note=59 velocity=95 time=0
EXTRACT: note_on channel=2 note=58 velocity=70 time=0
EXTRACT: pitchwheel channel=4 pitch=1408 time=0
EXTRACT: pitchwheel channel=4 pitch=0 time=0
EXTRACT: note_off channel=4 note=63 velocity=95 time=0
EXTRACT: pitchwheel channel=4 pitch=0 time=0
EXTRACT: note_on channel=4 note=59 velocity=95 time=0
EXTRACT: pitchwheel channel=6 pitch=0 time=0
EXTRACT: note_on channel=6 note=53 velocity=95 time=0
EXTRACT: pitchwheel channel=6 pitch=0 time=0
EXTRACT: note_on channel=6 note=53 velocity=95 time=0
EXTRACT: note_off channel=9 note=36 velocity=95 time=0
EXTRACT: pitchwheel channel=3 pitch=1280 time=0.005580354166666667
EXTRACT: pitchwheel channel=6 pitch=-128 time=0.010602672916666667
EXTRACT: pitchwheel channel=6 pitch=-128 time=0
EXTRACT: pitchwheel channel=4 pitch=-128 time=0.0016741062500000002
EXTRACT: pitchwheel channel=3 pitch=1408 time=0.01171874375
EXTRACT: pitchwheel channel=6 pitch=-256 time=0.0027901770833333333
EXTRACT: pitchwheel channel=6 pitch=-256 time=0
EXTRACT: pitchwheel channel=3 pitch=1408 time=0.0011160708333333334
EXTRACT: pitchwheel channel=3 pitch=0 time=0
EXTRACT: note_off channel=3 note=64 velocity=95 time=0
EXTRACT: pitchwheel channel=3 pitch=0 time=0
EXTRACT: note_on channel=3 note=60 velocity=95 time=0
EXTRACT: pitchwheel channel=4 pitch=-256 time=0.0022321416666666667
EXTRACT: pitchwheel channel=6 pitch=-384 time=0.012834814583333333
EXTRACT: pitchwheel channel=6 pitch=-384 time=0
EXTRACT: pitchwheel channel=3 pitch=-128 time=0.0027901770833333333
EXTRACT: pitchwheel channel=4 pitch=-384 time=0.0022321416666666667
EXTRACT: pitchwheel channel=6 pitch=-512 time=0.011160708333333333
EXTRACT: pitchwheel channel=6 pitch=-512 time=0
EXTRACT: pitchwheel channel=3 pitch=-256 time=0.0044642833333333335
EXTRACT: pitchwheel channel=4 pitch=-512 time=0.0022321416666666667
EXTRACT: pitchwheel channel=6 pitch=-640 time=0.009486602083333334
EXTRACT: pitchwheel channel=6 pitch=-640 time=0
EXTRACT: pitchwheel channel=3 pitch=-384 time=0.006138389583333333
EXTRACT: pitchwheel channel=4 pitch=-640 time=0.0022321416666666667
EXTRACT: pitchwheel channel=6 pitch=-768 time=0.007812495833333334
EXTRACT: pitchwheel channel=6 pitch=-768 time=0
EXTRACT: pitchwheel channel=3 pitch=-512 time=0.007812495833333334
EXTRACT: pitchwheel channel=4 pitch=-768 time=0.0022321416666666667
EXTRACT: pitchwheel channel=6 pitch=-896 time=0.006138389583333333
EXTRACT: pitchwheel channel=6 pitch=-896 time=0
EXTRACT: pitchwheel channel=3 pitch=-640 time=0.009486602083333334
EXTRACT: pitchwheel channel=4 pitch=-896 time=0.0022321416666666667
EXTRACT: pitchwheel channel=6 pitch=-1024 time=0.0044642833333333335
EXTRACT: pitchwheel channel=6 pitch=-1024 time=0
EXTRACT: pitchwheel channel=3 pitch=-768 time=0.011160708333333333
EXTRACT: pitchwheel channel=4 pitch=-1024 time=0.0022321416666666667
EXTRACT: pitchwheel channel=6 pitch=-1152 time=0.0027901770833333333
EXTRACT: pitchwheel channel=6 pitch=-1152 time=0
EXTRACT: pitchwheel channel=3 pitch=-896 time=0.012834814583333333
EXTRACT: pitchwheel channel=4 pitch=-1152 time=0.0022321416666666667
EXTRACT: pitchwheel channel=6 pitch=-1280 time=0.0011160708333333334
EXTRACT: pitchwheel channel=6 pitch=-1280 time=0
EXTRACT: pitchwheel channel=3 pitch=-1024 time=0.014508920833333334
EXTRACT: pitchwheel channel=6 pitch=-1408 time=0.0016741062500000002
EXTRACT: pitchwheel channel=6 pitch=-1408 time=0
EXTRACT: pitchwheel channel=4 pitch=-1280 time=0.0005580354166666667
EXTRACT: pitchwheel channel=3 pitch=-1152 time=0.015624991666666668
EXTRACT: pitchwheel channel=6 pitch=-1536 time=0
EXTRACT: pitchwheel channel=6 pitch=-1536 time=0
EXTRACT: pitchwheel channel=4 pitch=-1408 time=0.0022321416666666667
EXTRACT: pitchwheel channel=4 pitch=-1408 time=0.0044642833333333335
EXTRACT: pitchwheel channel=4 pitch=0 time=0
EXTRACT: note_off channel=4 note=59 velocity=95 time=0
EXTRACT: pitchwheel channel=6 pitch=-1664 time=0.009486602083333334
EXTRACT: pitchwheel channel=6 pitch=-1664 time=0
EXTRACT: pitchwheel channel=3 pitch=-1280 time=0.0016741062500000002
EXTRACT: pitchwheel channel=6 pitch=-1792 time=0.014508920833333334
EXTRACT: pitchwheel channel=6 pitch=-1792 time=0
EXTRACT: pitchwheel channel=3 pitch=-1408 time=0.0033482125000000003
EXTRACT: pitchwheel channel=3 pitch=-1408 time=0.0044642833333333335
EXTRACT: pitchwheel channel=3 pitch=0 time=0
EXTRACT: note_off channel=3 note=60 velocity=95 time=0
EXTRACT: pitchwheel channel=6 pitch=-1920 time=0.00837053125
EXTRACT: pitchwheel channel=6 pitch=-1920 time=0
EXTRACT: pitchwheel channel=6 pitch=-2048 time=0.016183027083333332
EXTRACT: pitchwheel channel=6 pitch=-2048 time=0
EXTRACT: note_off channel=0 note=58 velocity=70 time=0.008928566666666667
EXTRACT: note_on channel=0 note=63 velocity=95 time=0
EXTRACT: note_off channel=2 note=58 velocity=70 time=0
EXTRACT: note_on channel=2 note=63 velocity=95 time=0
EXTRACT: note_off channel=5 note=64 velocity=95 time=0
EXTRACT: note_off channel=5 note=59 velocity=95 time=0
EXTRACT: note_off channel=5 note=55 velocity=95 time=0
EXTRACT: note_off channel=5 note=50 velocity=95 time=0
EXTRACT: note_off channel=7 note=33 velocity=95 time=0
EXTRACT: note_on channel=7 note=33 velocity=95 time=0
EXTRACT: note_off channel=8 note=23 velocity=95 time=0
EXTRACT: note_on channel=8 note=23 velocity=95 time=0
EXTRACT: note_on channel=10 note=40 velocity=95 time=0
EXTRACT: note_on channel=9 note=36 velocity=95 time=0
EXTRACT: pitchwheel channel=6 pitch=-2176 time=0.007254460416666667
EXTRACT: pitchwheel channel=6 pitch=-2176 time=0
EXTRACT: pitchwheel channel=6 pitch=-2304 time=0.016183027083333332
EXTRACT: pitchwheel channel=6 pitch=-2304 time=0
EXTRACT: pitchwheel channel=6 pitch=-2432 time=0.016183027083333332
EXTRACT: pitchwheel channel=6 pitch=-2432 time=0
EXTRACT: pitchwheel channel=6 pitch=-2560 time=0.016183027083333332
EXTRACT: pitchwheel channel=6 pitch=-2560 time=0
EXTRACT: note_off channel=10 note=40 velocity=95 time=0.011160708333333333
EXTRACT: pitchwheel channel=6 pitch=-2688 time=0.00502231875
EXTRACT: pitchwheel channel=6 pitch=-2688 time=0
EXTRACT: pitchwheel channel=6 pitch=-2816 time=0.016183027083333332
EXTRACT: pitchwheel channel=6 pitch=-2816 time=0
EXTRACT: pitchwheel channel=6 pitch=-2944 time=0.016183027083333332
EXTRACT: pitchwheel channel=6 pitch=-2944 time=0
EXTRACT: pitchwheel channel=6 pitch=-3072 time=0.016183027083333332
EXTRACT: pitchwheel channel=6 pitch=-3072 time=0
EXTRACT: pitchwheel channel=6 pitch=-3200 time=0.016183027083333332
EXTRACT: pitchwheel channel=6 pitch=-3200 time=0
EXTRACT: pitchwheel channel=6 pitch=-3328 time=0.016183027083333332
EXTRACT: pitchwheel channel=6 pitch=-3328 time=0
EXTRACT: pitchwheel channel=6 pitch=-3456 time=0.016183027083333332
EXTRACT: pitchwheel channel=6 pitch=-3456 time=0
EXTRACT: pitchwheel channel=6 pitch=-3584 time=0.016183027083333332
EXTRACT: pitchwheel channel=6 pitch=-3584 time=0
EXTRACT: pitchwheel channel=6 pitch=-3712 time=0.016183027083333332
EXTRACT: pitchwheel channel=6 pitch=-3712 time=0
EXTRACT: pitchwheel channel=6 pitch=-3840 time=0.016183027083333332
EXTRACT: pitchwheel channel=6 pitch=-3840 time=0
EXTRACT: pitchwheel channel=6 pitch=-3968 time=0.016183027083333332
EXTRACT: pitchwheel channel=6 pitch=-3968 time=0
EXTRACT: pitchwheel channel=6 pitch=-4096 time=0.016183027083333332
EXTRACT: pitchwheel channel=6 pitch=-4096 time=0
EXTRACT: pitchwheel channel=6 pitch=-4224 time=0.016183027083333332
EXTRACT: pitchwheel channel=6 pitch=-4224 time=0
EXTRACT: note_off channel=0 note=63 velocity=95 time=0.0016741062500000002
EXTRACT: note_off channel=2 note=63 velocity=95 time=0
EXTRACT: note_on channel=2 note=46 velocity=127 time=0
EXTRACT: note_on channel=5 note=64 velocity=95 time=0
EXTRACT: note_on channel=5 note=59 velocity=95 time=0
EXTRACT: note_on channel=5 note=55 velocity=95 time=0
EXTRACT: note_on channel=5 note=50 velocity=95 time=0
EXTRACT: note_off channel=7 note=33 velocity=95 time=0
EXTRACT: note_off channel=9 note=36 velocity=95 time=0
EXTRACT: note_on channel=9 note=28 velocity=95 time=0
EXTRACT: note_on channel=9 note=39 velocity=95 time=0
EXTRACT: pitchwheel channel=6 pitch=-4352 time=0.014508920833333334
EXTRACT: pitchwheel channel=6 pitch=-4352 time=0
EXTRACT: pitchwheel channel=6 pitch=-4480 time=0.016183027083333332
EXTRACT: pitchwheel channel=6 pitch=-4480 time=0
EXTRACT: pitchwheel channel=6 pitch=-4608 time=0.016183027083333332
EXTRACT: pitchwheel channel=6 pitch=-4608 time=0
EXTRACT: pitchwheel channel=6 pitch=-4736 time=0.016183027083333332
EXTRACT: pitchwheel channel=6 pitch=-4736 time=0
EXTRACT: pitchwheel channel=6 pitch=-4864 time=0.016183027083333332
EXTRACT: pitchwheel channel=6 pitch=-4864 time=0
EXTRACT: pitchwheel channel=6 pitch=-4992 time=0.016183027083333332
EXTRACT: pitchwheel channel=6 pitch=-4992 time=0
EXTRACT: pitchwheel channel=6 pitch=-5120 time=0.016183027083333332
EXTRACT: pitchwheel channel=6 pitch=-5120 time=0
EXTRACT: pitchwheel channel=6 pitch=-5248 time=0.016183027083333332
EXTRACT: pitchwheel channel=6 pitch=-5248 time=0
EXTRACT: pitchwheel channel=6 pitch=-5376 time=0.016183027083333332
EXTRACT: pitchwheel channel=6 pitch=-5376 time=0
EXTRACT: pitchwheel channel=6 pitch=-5504 time=0.016183027083333332
EXTRACT: pitchwheel channel=6 pitch=-5504 time=0
EXTRACT: pitchwheel channel=6 pitch=-5632 time=0.016183027083333332
EXTRACT: pitchwheel channel=6 pitch=-5632 time=0
EXTRACT: pitchwheel channel=6 pitch=-5760 time=0.016183027083333332
EXTRACT: pitchwheel channel=6 pitch=-5760 time=0
EXTRACT: pitchwheel channel=6 pitch=-5888 time=0.016183027083333332
EXTRACT: pitchwheel channel=6 pitch=-5888 time=0
EXTRACT: pitchwheel channel=6 pitch=-6016 time=0.016183027083333332
EXTRACT: pitchwheel channel=6 pitch=-6016 time=0
EXTRACT: pitchwheel channel=6 pitch=-6144 time=0.016183027083333332
EXTRACT: pitchwheel channel=6 pitch=-6144 time=0
EXTRACT: pitchwheel channel=6 pitch=-6272 time=0.016183027083333332
EXTRACT: pitchwheel channel=6 pitch=-6272 time=0
EXTRACT: note_on channel=0 note=58 velocity=95 time=0.010602672916666667
EXTRACT: note_on channel=2 note=58 velocity=95 time=0
EXTRACT: note_off channel=8 note=23 velocity=95 time=0
EXTRACT: pitchwheel channel=6 pitch=-6400 time=0.005580354166666667
EXTRACT: pitchwheel channel=6 pitch=-6400 time=0
EXTRACT: pitchwheel channel=6 pitch=-6528 time=0.016183027083333332
EXTRACT: pitchwheel channel=6 pitch=-6528 time=0
EXTRACT: pitchwheel channel=6 pitch=-6656 time=0.016183027083333332
EXTRACT: pitchwheel channel=6 pitch=-6656 time=0
EXTRACT: pitchwheel channel=6 pitch=-6784 time=0.016183027083333332
EXTRACT: pitchwheel channel=6 pitch=-6784 time=0
EXTRACT: pitchwheel channel=6 pitch=-6912 time=0.016183027083333332
EXTRACT: pitchwheel channel=6 pitch=-6912 time=0
EXTRACT: pitchwheel channel=6 pitch=-7040 time=0.016183027083333332
EXTRACT: pitchwheel channel=6 pitch=-7040 time=0
EXTRACT: pitchwheel channel=6 pitch=-7168 time=0.016183027083333332
EXTRACT: pitchwheel channel=6 pitch=-7168 time=0
EXTRACT: pitchwheel channel=6 pitch=-7296 time=0.016183027083333332
EXTRACT: pitchwheel channel=6 pitch=-7296 time=0
EXTRACT: pitchwheel channel=6 pitch=-7424 time=0.016183027083333332
EXTRACT: pitchwheel channel=6 pitch=-7424 time=0
EXTRACT: pitchwheel channel=6 pitch=-7552 time=0.016183027083333332
EXTRACT: pitchwheel channel=6 pitch=-7552 time=0
EXTRACT: pitchwheel channel=6 pitch=-7680 time=0.016183027083333332
EXTRACT: pitchwheel channel=6 pitch=-7680 time=0
EXTRACT: pitchwheel channel=6 pitch=-7808 time=0.016183027083333332
EXTRACT: pitchwheel channel=6 pitch=-7808 time=0
EXTRACT: pitchwheel channel=6 pitch=-7936 time=0.016183027083333332
EXTRACT: pitchwheel channel=6 pitch=-7936 time=0
EXTRACT: pitchwheel channel=6 pitch=-8064 time=0.016183027083333332
EXTRACT: pitchwheel channel=6 pitch=-8064 time=0
EXTRACT: pitchwheel channel=6 pitch=-8192 time=0.016183027083333332
EXTRACT: pitchwheel channel=6 pitch=-8192 time=0
EXTRACT: pitchwheel channel=6 pitch=-8192 time=0.016183027083333332
EXTRACT: pitchwheel channel=6 pitch=-8192 time=0
EXTRACT: pitchwheel channel=6 pitch=-8192 time=0.016183027083333332
EXTRACT: pitchwheel channel=6 pitch=-8192 time=0
EXTRACT: note_off channel=0 note=58 velocity=95 time=0.0033482125000000003
EXTRACT: note_on channel=0 note=59 velocity=70 time=0
EXTRACT: note_off channel=1 note=70 velocity=95 time=0
EXTRACT: note_off channel=1 note=66 velocity=95 time=0
EXTRACT: note_off channel=1 note=63 velocity=95 time=0
EXTRACT: note_off channel=1 note=58 velocity=95 time=0
EXTRACT: note_on channel=1 note=71 velocity=95 time=0
EXTRACT: note_on channel=1 note=66 velocity=95 time=0
EXTRACT: note_on channel=1 note=63 velocity=95 time=0
EXTRACT: note_on channel=1 note=59 velocity=95 time=0
EXTRACT: note_off channel=2 note=46 velocity=127 time=0
EXTRACT: note_off channel=2 note=58 velocity=95 time=0
EXTRACT: note_on channel=2 note=59 velocity=70 time=0
EXTRACT: note_on channel=2 note=47 velocity=127 time=0
EXTRACT: pitchwheel channel=6 pitch=-8192 time=0
EXTRACT: pitchwheel channel=6 pitch=0 time=0
EXTRACT: note_off channel=6 note=53 velocity=95 time=0
EXTRACT: pitchwheel channel=6 pitch=-8192 time=0
EXTRACT: pitchwheel channel=6 pitch=0 time=0
EXTRACT: note_off channel=6 note=53 velocity=95 time=0
EXTRACT: note_on channel=7 note=33 velocity=95 time=0
EXTRACT: note_on channel=8 note=23 velocity=95 time=0
EXTRACT: note_on channel=10 note=40 velocity=95 time=0
EXTRACT: note_off channel=9 note=28 velocity=95 time=0
EXTRACT: note_off channel=9 note=39 velocity=95 time=0
EXTRACT: note_on channel=9 note=36 velocity=95 time=0
EXTRACT: note_off channel=10 note=40 velocity=95 time=0.06696425
EXTRACT: note_off channel=0 note=59 velocity=70 time=0.20089275
EXTRACT: note_on channel=0 note=63 velocity=95 time=0
EXTRACT: note_off channel=2 note=59 velocity=70 time=0
EXTRACT: note_off channel=2 note=47 velocity=127 time=0
EXTRACT: note_on channel=2 note=63 velocity=95 time=0
EXTRACT: note_off channel=5 note=64 velocity=95 time=0
EXTRACT: note_off channel=5 note=59 velocity=95 time=0
EXTRACT: note_off channel=5 note=55 velocity=95 time=0
EXTRACT: note_off channel=5 note=50 velocity=95 time=0
EXTRACT: note_off channel=0 note=63 velocity=95 time=0.267857
EXTRACT: note_on channel=0 note=66 velocity=95 time=0
EXTRACT: note_off channel=2 note=63 velocity=95 time=0
EXTRACT: note_on channel=2 note=66 velocity=95 time=0
EXTRACT: note_on channel=4 note=63 velocity=47 time=0
EXTRACT: note_on channel=4 note=59 velocity=95 time=0
EXTRACT: note_on channel=5 note=64 velocity=95 time=0
EXTRACT: note_on channel=5 note=59 velocity=95 time=0
EXTRACT: note_on channel=5 note=55 velocity=95 time=0
EXTRACT: note_on channel=5 note=50 velocity=95 time=0
EXTRACT: note_off channel=7 note=33 velocity=95 time=0
EXTRACT: note_off channel=8 note=23 velocity=95 time=0
EXTRACT: note_off channel=9 note=36 velocity=95 time=0
EXTRACT: note_on channel=9 note=28 velocity=95 time=0
EXTRACT: note_on channel=9 note=39 velocity=95 time=0
EXTRACT: note_on channel=3 note=63 velocity=47 time=0.033482125
EXTRACT: note_on channel=3 note=59 velocity=95 time=0
EXTRACT: note_off channel=0 note=66 velocity=95 time=0.234374875
EXTRACT: note_on channel=0 note=59 velocity=95 time=0
EXTRACT: note_off channel=2 note=66 velocity=95 time=0
EXTRACT: note_on channel=2 note=59 velocity=95 time=0
EXTRACT: note_on channel=7 note=33 velocity=95 time=0
EXTRACT: note_on channel=8 note=23 velocity=95 time=0
EXTRACT: note_on channel=10 note=40 velocity=95 time=0
EXTRACT: note_off channel=9 note=28 velocity=95 time=0
EXTRACT: note_off channel=9 note=39 velocity=95 time=0
EXTRACT: note_on channel=9 note=36 velocity=95 time=0
EXTRACT: note_off channel=10 note=40 velocity=95 time=0.06696425
EXTRACT: note_off channel=0 note=59 velocity=95 time=0.20089275
EXTRACT: note_on channel=0 note=58 velocity=70 time=0
EXTRACT: note_off channel=1 note=71 velocity=95 time=0
EXTRACT: note_off channel=1 note=66 velocity=95 time=0
EXTRACT: note_off channel=1 note=63 velocity=95 time=0
EXTRACT: note_off channel=1 note=59 velocity=95 time=0
EXTRACT: note_on channel=1 note=70 velocity=95 time=0
EXTRACT: note_on channel=1 note=66 velocity=95 time=0
EXTRACT: note_on channel=1 note=63 velocity=95 time=0
EXTRACT: note_on channel=1 note=58 velocity=95 time=0
EXTRACT: note_off channel=2 note=59 velocity=95 time=0
EXTRACT: note_on channel=2 note=58 velocity=70 time=0
EXTRACT: note_off channel=4 note=63 velocity=47 time=0
EXTRACT: note_off channel=4 note=59 velocity=95 time=0
EXTRACT: note_on channel=4 note=61 velocity=47 time=0
EXTRACT: note_on channel=4 note=58 velocity=95 time=0
EXTRACT: note_off channel=9 note=36 velocity=95 time=0
EXTRACT: note_off channel=3 note=63 velocity=47 time=0.033482125
EXTRACT: note_off channel=3 note=59 velocity=95 time=0
EXTRACT: note_on channel=3 note=61 velocity=47 time=0
EXTRACT: note_on channel=3 note=58 velocity=95 time=0
EXTRACT: note_off channel=0 note=58 velocity=70 time=0.234374875
EXTRACT: note_on channel=0 note=63 velocity=95 time=0
EXTRACT: note_off channel=2 note=58 velocity=70 time=0
EXTRACT: note_on channel=2 note=63 velocity=95 time=0
EXTRACT: note_off channel=5 note=64 velocity=95 time=0
EXTRACT: note_off channel=5 note=59 velocity=95 time=0
EXTRACT: note_off channel=5 note=55 velocity=95 time=0
EXTRACT: note_off channel=5 note=50 velocity=95 time=0
EXTRACT: note_off channel=7 note=33 velocity=95 time=0
EXTRACT: note_on channel=7 note=33 velocity=95 time=0
EXTRACT: note_off channel=8 note=23 velocity=95 time=0
EXTRACT: note_on channel=8 note=23 velocity=95 time=0
EXTRACT: note_on channel=10 note=40 velocity=95 time=0
EXTRACT: note_on channel=9 note=36 velocity=95 time=0
EXTRACT: note_off channel=10 note=40 velocity=95 time=0.06696425
EXTRACT: note_off channel=0 note=63 velocity=95 time=0.20089275
EXTRACT: note_off channel=2 note=63 velocity=95 time=0
EXTRACT: note_off channel=4 note=61 velocity=47 time=0
EXTRACT: note_off channel=4 note=58 velocity=95 time=0
EXTRACT: pitchwheel channel=4 pitch=0 time=0
EXTRACT: note_on channel=4 note=62 velocity=95 time=0
EXTRACT: note_on channel=5 note=64 velocity=95 time=0
EXTRACT: note_on channel=5 note=59 velocity=95 time=0
EXTRACT: note_on channel=5 note=55 velocity=95 time=0
EXTRACT: note_on channel=5 note=50 velocity=95 time=0
EXTRACT: note_off channel=7 note=33 velocity=95 time=0
EXTRACT: note_off channel=9 note=36 velocity=95 time=0
EXTRACT: note_on channel=9 note=28 velocity=95 time=0
EXTRACT: note_on channel=9 note=39 velocity=95 time=0
EXTRACT: note_off channel=3 note=61 velocity=47 time=0.033482125
EXTRACT: note_off channel=3 note=58 velocity=95 time=0
EXTRACT: pitchwheel channel=3 pitch=0 time=0
EXTRACT: note_on channel=3 note=63 velocity=95 time=0
EXTRACT: pitchwheel channel=4 pitch=128 time=0.013392850000000001
EXTRACT: pitchwheel channel=3 pitch=128 time=0.033482125
EXTRACT: pitchwheel channel=4 pitch=256 time=0.013392850000000001
EXTRACT: pitchwheel channel=3 pitch=256 time=0.033482125
EXTRACT: pitchwheel channel=4 pitch=384 time=0.013392850000000001
EXTRACT: pitchwheel channel=3 pitch=384 time=0.033482125
EXTRACT: pitchwheel channel=4 pitch=512 time=0.013392850000000001
EXTRACT: pitchwheel channel=3 pitch=512 time=0.033482125
EXTRACT: pitchwheel channel=4 pitch=640 time=0.013392850000000001
EXTRACT: pitchwheel channel=4 pitch=640 time=0
EXTRACT: pitchwheel channel=4 pitch=0 time=0
EXTRACT: note_off channel=4 note=62 velocity=95 time=0
EXTRACT: note_on channel=0 note=58 velocity=95 time=0.033482125
EXTRACT: note_on channel=2 note=58 velocity=95 time=0
EXTRACT: pitchwheel channel=3 pitch=640 time=0
EXTRACT: pitchwheel channel=3 pitch=640 time=0
EXTRACT: pitchwheel channel=3 pitch=0 time=0
EXTRACT: note_off channel=3 note=63 velocity=95 time=0
EXTRACT: pitchwheel channel=4 pitch=0 time=0
EXTRACT: note_on channel=4 note=63 velocity=95 time=0
EXTRACT: note_off channel=8 note=23 velocity=95 time=0
EXTRACT: pitchwheel channel=4 pitch=128 time=0.023995522916666668
EXTRACT: pitchwheel channel=3 pitch=0 time=0.009486602083333334
EXTRACT: note_on channel=3 note=64 velocity=95 time=0
EXTRACT: pitchwheel channel=4 pitch=256 time=0.014508920833333334
EXTRACT: pitchwheel channel=3 pitch=128 time=0.009486602083333334
EXTRACT: pitchwheel channel=4 pitch=384 time=0.014508920833333334
EXTRACT: pitchwheel channel=3 pitch=256 time=0.009486602083333334
EXTRACT: pitchwheel channel=4 pitch=512 time=0.014508920833333334
EXTRACT: pitchwheel channel=3 pitch=384 time=0.009486602083333334
EXTRACT: pitchwheel channel=4 pitch=640 time=0.014508920833333334
EXTRACT: pitchwheel channel=3 pitch=512 time=0.009486602083333334
EXTRACT: pitchwheel channel=4 pitch=768 time=0.014508920833333334
EXTRACT: pitchwheel channel=3 pitch=640 time=0.009486602083333334
EXTRACT: pitchwheel channel=4 pitch=896 time=0.014508920833333334
EXTRACT: pitchwheel channel=3 pitch=768 time=0.009486602083333334
EXTRACT: pitchwheel channel=4 pitch=1024 time=0.014508920833333334
EXTRACT: pitchwheel channel=3 pitch=896 time=0.009486602083333334
EXTRACT: pitchwheel channel=4 pitch=1152 time=0.014508920833333334
EXTRACT: pitchwheel channel=3 pitch=1024 time=0.009486602083333334
EXTRACT: pitchwheel channel=4 pitch=1280 time=0.014508920833333334
EXTRACT: pitchwheel channel=3 pitch=1152 time=0.009486602083333334
EXTRACT: pitchwheel channel=4 pitch=1408 time=0.014508920833333334
EXTRACT: note_off channel=0 note=58 velocity=95 time=0.003906247916666667
EXTRACT: note_on channel=0 note=59 velocity=70 time=0
EXTRACT: note_off channel=1 note=70 velocity=95 time=0
EXTRACT: note_off channel=1 note=66 velocity=95 time=0
EXTRACT: note_off channel=1 note=63 velocity=95 time=0
EXTRACT: note_off channel=1 note=58 velocity=95 time=0
EXTRACT: note_on channel=1 note=71 velocity=95 time=0
EXTRACT: note_on channel=1 note=66 velocity=95 time=0
EXTRACT: note_on channel=1 note=63 velocity=95 time=0
EXTRACT: note_on channel=1 note=59 velocity=95 time=0
EXTRACT: note_off channel=2 note=58 velocity=95 time=0
EXTRACT: note_on channel=2 note=59 velocity=70 time=0
EXTRACT: pitchwheel channel=4 pitch=1408 time=0
EXTRACT: pitchwheel channel=4 pitch=0 time=0
EXTRACT: note_off channel=4 note=63 velocity=95 time=0
EXTRACT: pitchwheel channel=4 pitch=0 time=0
EXTRACT: note_on channel=4 note=59 velocity=95 time=0
EXTRACT: note_on channel=7 note=33 velocity=95 time=0
EXTRACT: note_on channel=8 note=23 velocity=95 time=0
EXTRACT: note_on channel=10 note=40 velocity=95 time=0
EXTRACT: note_off channel=9 note=28 velocity=95 time=0
EXTRACT: note_off channel=9 note=39 velocity=95 time=0
EXTRACT: note_on channel=9 note=36 velocity=95 time=0
EXTRACT: pitchwheel channel=3 pitch=1280 time=0.005580354166666667
EXTRACT: pitchwheel channel=4 pitch=-128 time=0.012276779166666666
EXTRACT: pitchwheel channel=3 pitch=1408 time=0.01171874375
EXTRACT: pitchwheel channel=3 pitch=1408 time=0.003906247916666667
EXTRACT: pitchwheel channel=3 pitch=0 time=0
EXTRACT: note_off channel=3 note=64 velocity=95 time=0
EXTRACT: pitchwheel channel=3 pitch=0 time=0
EXTRACT: note_on channel=3 note=60 velocity=95 time=0
EXTRACT: pitchwheel channel=4 pitch=-256 time=0.0022321416666666667
EXTRACT: pitchwheel channel=3 pitch=-128 time=0.015624991666666668
EXTRACT: pitchwheel channel=4 pitch=-384 time=0.0022321416666666667
EXTRACT: note_off channel=10 note=40 velocity=95 time=0.013392850000000001
EXTRACT: pitchwheel channel=3 pitch=-256 time=0.0022321416666666667
EXTRACT: pitchwheel channel=4 pitch=-512 time=0.0022321416666666667
EXTRACT: pitchwheel channel=3 pitch=-384 time=0.015624991666666668
EXTRACT: pitchwheel channel=4 pitch=-640 time=0.0022321416666666667
EXTRACT: pitchwheel channel=3 pitch=-512 time=0.015624991666666668
EXTRACT: pitchwheel channel=4 pitch=-768 time=0.0022321416666666667
EXTRACT: pitchwheel channel=3 pitch=-640 time=0.015624991666666668
EXTRACT: pitchwheel channel=4 pitch=-896 time=0.0022321416666666667
EXTRACT: pitchwheel channel=3 pitch=-768 time=0.015624991666666668
EXTRACT: pitchwheel channel=4 pitch=-1024 time=0.0022321416666666667
EXTRACT: pitchwheel channel=3 pitch=-896 time=0.015624991666666668
EXTRACT: pitchwheel channel=4 pitch=-1152 time=0.0022321416666666667
EXTRACT: pitchwheel channel=3 pitch=-1024 time=0.015624991666666668
EXTRACT: pitchwheel channel=4 pitch=-1280 time=0.0022321416666666667
EXTRACT: pitchwheel channel=3 pitch=-1152 time=0.015624991666666668
EXTRACT: pitchwheel channel=4 pitch=-1408 time=0.0022321416666666667
EXTRACT: pitchwheel channel=4 pitch=-1408 time=0.0044642833333333335
EXTRACT: pitchwheel channel=4 pitch=0 time=0
EXTRACT: note_off channel=4 note=59 velocity=95 time=0
EXTRACT: pitchwheel channel=3 pitch=-1280 time=0.011160708333333333
EXTRACT: pitchwheel channel=3 pitch=-1408 time=0.017857133333333334
EXTRACT: pitchwheel channel=3 pitch=-1408 time=0.0044642833333333335
EXTRACT: pitchwheel channel=3 pitch=0 time=0
EXTRACT: note_off channel=3 note=60 velocity=95 time=0
EXTRACT: note_off channel=0 note=59 velocity=70 time=0.033482125
EXTRACT: note_on channel=0 note=63 velocity=95 time=0
EXTRACT: note_off channel=2 note=59 velocity=70 time=0
EXTRACT: note_on channel=2 note=63 velocity=95 time=0
EXTRACT: note_off channel=5 note=64 velocity=95 time=0
EXTRACT: note_off channel=5 note=59 velocity=95 time=0
EXTRACT: note_off channel=5 note=55 velocity=95 time=0
EXTRACT: note_off channel=5 note=50 velocity=95 time=0
EXTRACT: note_off channel=0 note=63 velocity=95 time=0.267857
EXTRACT: note_on channel=0 note=66 velocity=95 time=0
EXTRACT: note_off channel=2 note=63 velocity=95 time=0
EXTRACT: note_on channel=2 note=66 velocity=95 time=0
EXTRACT: pitchwheel channel=4 pitch=0 time=0
EXTRACT: note_on channel=4 note=62 velocity=95 time=0
EXTRACT: note_on channel=5 note=64 velocity=95 time=0
EXTRACT: note_on channel=5 note=59 velocity=95 time=0
EXTRACT: note_on channel=5 note=55 velocity=95 time=0
EXTRACT: note_on channel=5 note=50 velocity=95 time=0
EXTRACT: note_off channel=7 note=33 velocity=95 time=0
EXTRACT: note_off channel=8 note=23 velocity=95 time=0
EXTRACT: note_off channel=9 note=36 velocity=95 time=0
EXTRACT: note_on channel=9 note=28 velocity=95 time=0
EXTRACT: note_on channel=9 note=39 velocity=95 time=0
EXTRACT: pitchwheel channel=3 pitch=0 time=0.033482125
EXTRACT: note_on channel=3 note=63 velocity=95 time=0
EXTRACT: pitchwheel channel=4 pitch=128 time=0.013392850000000001
EXTRACT: pitchwheel channel=3 pitch=128 time=0.033482125
EXTRACT: pitchwheel channel=4 pitch=256 time=0.013392850000000001
EXTRACT: pitchwheel channel=3 pitch=256 time=0.033482125
EXTRACT: note_on channel=7 note=33 velocity=95 time=0.006696425000000001
EXTRACT: note_on channel=8 note=23 velocity=95 time=0
EXTRACT: note_on channel=10 note=40 velocity=95 time=0
EXTRACT: note_off channel=9 note=28 velocity=95 time=0
EXTRACT: note_off channel=9 note=39 velocity=95 time=0
EXTRACT: note_on channel=9 note=36 velocity=95 time=0
EXTRACT: pitchwheel channel=4 pitch=384 time=0.006696425000000001
EXTRACT: pitchwheel channel=3 pitch=384 time=0.033482125
EXTRACT: pitchwheel channel=4 pitch=512 time=0.013392850000000001
EXTRACT: note_off channel=10 note=40 velocity=95 time=0.013392850000000001
EXTRACT: pitchwheel channel=3 pitch=512 time=0.020089275
EXTRACT: pitchwheel channel=4 pitch=640 time=0.013392850000000001
EXTRACT: pitchwheel channel=4 pitch=640 time=0
EXTRACT: pitchwheel channel=4 pitch=0 time=0
EXTRACT: note_off channel=4 note=62 velocity=95 time=0
EXTRACT: note_off channel=0 note=66 velocity=95 time=0.033482125
EXTRACT: note_on channel=0 note=59 velocity=95 time=0
EXTRACT: note_off channel=2 note=66 velocity=95 time=0
EXTRACT: note_on channel=2 note=59 velocity=95 time=0
EXTRACT: pitchwheel channel=3 pitch=640 time=0
EXTRACT: pitchwheel channel=3 pitch=640 time=0
EXTRACT: pitchwheel channel=3 pitch=0 time=0
EXTRACT: note_off channel=3 note=63 velocity=95 time=0
EXTRACT: pitchwheel channel=4 pitch=0 time=0
EXTRACT: note_on channel=4 note=63 velocity=95 time=0
EXTRACT: note_off channel=7 note=33 velocity=95 time=0
EXTRACT: note_on channel=7 note=33 velocity=95 time=0
EXTRACT: note_off channel=8 note=23 velocity=95 time=0
EXTRACT: note_on channel=8 note=23 velocity=95 time=0
EXTRACT: note_on channel=10 note=40 velocity=95 time=0
EXTRACT: note_off channel=9 note=36 velocity=95 time=0
EXTRACT: note_on channel=9 note=36 velocity=95 time=0
EXTRACT: pitchwheel channel=4 pitch=128 time=0.023995522916666668
EXTRACT: pitchwheel channel=3 pitch=0 time=0.009486602083333334
EXTRACT: note_on channel=3 note=64 velocity=95 time=0
EXTRACT: pitchwheel channel=4 pitch=256 time=0.014508920833333334
EXTRACT: pitchwheel channel=3 pitch=128 time=0.009486602083333334
EXTRACT: note_off channel=10 note=40 velocity=95 time=0.009486602083333334
EXTRACT: pitchwheel channel=4 pitch=384 time=0.00502231875
EXTRACT: pitchwheel channel=3 pitch=256 time=0.009486602083333334
EXTRACT: pitchwheel channel=4 pitch=512 time=0.014508920833333334
EXTRACT: pitchwheel channel=3 pitch=384 time=0.009486602083333334
EXTRACT: pitchwheel channel=4 pitch=640 time=0.014508920833333334
EXTRACT: pitchwheel channel=3 pitch=512 time=0.009486602083333334
EXTRACT: pitchwheel channel=4 pitch=768 time=0.014508920833333334
EXTRACT: pitchwheel channel=3 pitch=640 time=0.009486602083333334
EXTRACT: pitchwheel channel=4 pitch=896 time=0.014508920833333334
EXTRACT: pitchwheel channel=3 pitch=768 time=0.009486602083333334
EXTRACT: pitchwheel channel=4 pitch=1024 time=0.014508920833333334
EXTRACT: pitchwheel channel=3 pitch=896 time=0.009486602083333334
EXTRACT: pitchwheel channel=4 pitch=1152 time=0.014508920833333334
EXTRACT: pitchwheel channel=3 pitch=1024 time=0.009486602083333334
EXTRACT: pitchwheel channel=4 pitch=1280 time=0.014508920833333334
EXTRACT: pitchwheel channel=3 pitch=1152 time=0.009486602083333334
EXTRACT: pitchwheel channel=4 pitch=1408 time=0.014508920833333334
EXTRACT: note_off channel=0 note=59 velocity=95 time=0.003906247916666667
EXTRACT: note_on channel=0 note=58 velocity=70 time=0
EXTRACT: note_off channel=1 note=71 velocity=95 time=0
EXTRACT: note_off channel=1 note=66 velocity=95 time=0
EXTRACT: note_off channel=1 note=63 velocity=95 time=0
EXTRACT: note_off channel=1 note=59 velocity=95 time=0
EXTRACT: note_on channel=1 note=70 velocity=95 time=0
EXTRACT: note_on channel=1 note=66 velocity=95 time=0
EXTRACT: note_on channel=1 note=63 velocity=95 time=0
EXTRACT: note_on channel=1 note=58 velocity=95 time=0
EXTRACT: note_off channel=2 note=59 velocity=95 time=0
EXTRACT: note_on channel=2 note=58 velocity=70 time=0
EXTRACT: pitchwheel channel=4 pitch=1408 time=0
EXTRACT: pitchwheel channel=4 pitch=0 time=0
EXTRACT: note_off channel=4 note=63 velocity=95 time=0
EXTRACT: pitchwheel channel=4 pitch=0 time=0
EXTRACT: note_on channel=4 note=59 velocity=95 time=0
EXTRACT: pitchwheel channel=6 pitch=0 time=0
EXTRACT: note_on channel=6 note=53 velocity=95 time=0
EXTRACT: pitchwheel channel=6 pitch=0 time=0
EXTRACT: note_on channel=6 note=53 velocity=95 time=0
EXTRACT: note_off channel=7 note=33 velocity=95 time=0
EXTRACT: note_off channel=9 note=36 velocity=95 time=0
EXTRACT: pitchwheel channel=3 pitch=1280 time=0.005580354166666667
EXTRACT: pitchwheel channel=6 pitch=-128 time=0.010602672916666667
EXTRACT: pitchwheel channel=6 pitch=-128 time=0
EXTRACT: pitchwheel channel=4 pitch=-128 time=0.0016741062500000002
EXTRACT: pitchwheel channel=3 pitch=1408 time=0.01171874375
EXTRACT: pitchwheel channel=6 pitch=-256 time=0.0027901770833333333
EXTRACT: pitchwheel channel=6 pitch=-256 time=0
EXTRACT: pitchwheel channel=3 pitch=1408 time=0.0011160708333333334
EXTRACT: pitchwheel channel=3 pitch=0 time=0
EXTRACT: note_off channel=3 note=64 velocity=95 time=0
EXTRACT: pitchwheel channel=3 pitch=0 time=0
EXTRACT: note_on channel=3 note=60 velocity=95 time=0
EXTRACT: pitchwheel channel=4 pitch=-256 time=0.0022321416666666667
EXTRACT: pitchwheel channel=6 pitch=-384 time=0.012834814583333333
EXTRACT: pitchwheel channel=6 pitch=-384 time=0
EXTRACT: pitchwheel channel=3 pitch=-128 time=0.0027901770833333333
EXTRACT: pitchwheel channel=4 pitch=-384 time=0.0022321416666666667
EXTRACT: pitchwheel channel=6 pitch=-512 time=0.011160708333333333
EXTRACT: pitchwheel channel=6 pitch=-512 time=0
EXTRACT: pitchwheel channel=3 pitch=-256 time=0.0044642833333333335
EXTRACT: pitchwheel channel=4 pitch=-512 time=0.0022321416666666667
EXTRACT: pitchwheel channel=6 pitch=-640 time=0.009486602083333334
EXTRACT: pitchwheel channel=6 pitch=-640 time=0
EXTRACT: pitchwheel channel=3 pitch=-384 time=0.006138389583333333
EXTRACT: pitchwheel channel=4 pitch=-640 time=0.0022321416666666667
EXTRACT: pitchwheel channel=6 pitch=-768 time=0.007812495833333334
EXTRACT: pitchwheel channel=6 pitch=-768 time=0
EXTRACT: pitchwheel channel=3 pitch=-512 time=0.007812495833333334
EXTRACT: pitchwheel channel=4 pitch=-768 time=0.0022321416666666667
EXTRACT: pitchwheel channel=6 pitch=-896 time=0.006138389583333333
EXTRACT: pitchwheel channel=6 pitch=-896 time=0
EXTRACT: pitchwheel channel=3 pitch=-640 time=0.009486602083333334
EXTRACT: pitchwheel channel=4 pitch=-896 time=0.0022321416666666667
EXTRACT: pitchwheel channel=6 pitch=-1024 time=0.0044642833333333335
EXTRACT: pitchwheel channel=6 pitch=-1024 time=0
EXTRACT: pitchwheel channel=3 pitch=-768 time=0.011160708333333333
EXTRACT: pitchwheel channel=4 pitch=-1024 time=0.0022321416666666667
EXTRACT: pitchwheel channel=6 pitch=-1152 time=0.0027901770833333333
EXTRACT: pitchwheel channel=6 pitch=-1152 time=0
EXTRACT: pitchwheel channel=3 pitch=-896 time=0.012834814583333333
EXTRACT: pitchwheel channel=4 pitch=-1152 time=0.0022321416666666667
EXTRACT: pitchwheel channel=6 pitch=-1280 time=0.0011160708333333334
EXTRACT: pitchwheel channel=6 pitch=-1280 time=0
EXTRACT: pitchwheel channel=3 pitch=-1024 time=0.014508920833333334
EXTRACT: pitchwheel channel=6 pitch=-1408 time=0.0016741062500000002
EXTRACT: pitchwheel channel=6 pitch=-1408 time=0
EXTRACT: pitchwheel channel=4 pitch=-1280 time=0.0005580354166666667
EXTRACT: pitchwheel channel=3 pitch=-1152 time=0.015624991666666668
EXTRACT: pitchwheel channel=6 pitch=-1536 time=0
EXTRACT: pitchwheel channel=6 pitch=-1536 time=0
EXTRACT: pitchwheel channel=4 pitch=-1408 time=0.0022321416666666667
EXTRACT: pitchwheel channel=4 pitch=-1408 time=0.0044642833333333335
EXTRACT: pitchwheel channel=4 pitch=0 time=0
EXTRACT: note_off channel=4 note=59 velocity=95 time=0
EXTRACT: pitchwheel channel=6 pitch=-1664 time=0.009486602083333334
EXTRACT: pitchwheel channel=6 pitch=-1664 time=0
EXTRACT: pitchwheel channel=3 pitch=-1280 time=0.0016741062500000002
EXTRACT: pitchwheel channel=6 pitch=-1792 time=0.014508920833333334
EXTRACT: pitchwheel channel=6 pitch=-1792 time=0
EXTRACT: pitchwheel channel=3 pitch=-1408 time=0.0033482125000000003
EXTRACT: pitchwheel channel=3 pitch=-1408 time=0.0044642833333333335
EXTRACT: pitchwheel channel=3 pitch=0 time=0
EXTRACT: note_off channel=3 note=60 velocity=95 time=0
EXTRACT: pitchwheel channel=6 pitch=-1920 time=0.00837053125
EXTRACT: pitchwheel channel=6 pitch=-1920 time=0
EXTRACT: pitchwheel channel=6 pitch=-2048 time=0.016183027083333332
EXTRACT: pitchwheel channel=6 pitch=-2048 time=0
EXTRACT: note_off channel=0 note=58 velocity=70 time=0.008928566666666667
EXTRACT: note_on channel=0 note=63 velocity=95 time=0
EXTRACT: note_off channel=2 note=58 velocity=70 time=0
EXTRACT: note_on channel=2 note=63 velocity=95 time=0
EXTRACT: note_off channel=5 note=64 velocity=95 time=0
EXTRACT: note_off channel=5 note=59 velocity=95 time=0
EXTRACT: note_off channel=5 note=55 velocity=95 time=0
EXTRACT: note_off channel=5 note=50 velocity=95 time=0
EXTRACT: note_on channel=7 note=33 velocity=95 time=0
EXTRACT: note_off channel=8 note=23 velocity=95 time=0
EXTRACT: note_on channel=8 note=23 velocity=95 time=0
EXTRACT: note_on channel=10 note=40 velocity=95 time=0
EXTRACT: note_on channel=9 note=36 velocity=95 time=0
EXTRACT: pitchwheel channel=6 pitch=-2176 time=0.007254460416666667
EXTRACT: pitchwheel channel=6 pitch=-2176 time=0
EXTRACT: pitchwheel channel=6 pitch=-2304 time=0.016183027083333332
EXTRACT: pitchwheel channel=6 pitch=-2304 time=0
EXTRACT: pitchwheel channel=6 pitch=-2432 time=0.016183027083333332
EXTRACT: pitchwheel channel=6 pitch=-2432 time=0
EXTRACT: pitchwheel channel=6 pitch=-2560 time=0.016183027083333332
EXTRACT: pitchwheel channel=6 pitch=-2560 time=0
EXTRACT: note_off channel=10 note=40 velocity=95 time=0.011160708333333333
EXTRACT: pitchwheel channel=6 pitch=-2688 time=0.00502231875
EXTRACT: pitchwheel channel=6 pitch=-2688 time=0
EXTRACT: pitchwheel channel=6 pitch=-2816 time=0.016183027083333332
EXTRACT: pitchwheel channel=6 pitch=-2816 time=0
EXTRACT: pitchwheel channel=6 pitch=-2944 time=0.016183027083333332
EXTRACT: pitchwheel channel=6 pitch=-2944 time=0
EXTRACT: pitchwheel channel=6 pitch=-3072 time=0.016183027083333332
EXTRACT: pitchwheel channel=6 pitch=-3072 time=0
EXTRACT: pitchwheel channel=6 pitch=-3200 time=0.016183027083333332
EXTRACT: pitchwheel channel=6 pitch=-3200 time=0
EXTRACT: pitchwheel channel=6 pitch=-3328 time=0.016183027083333332
EXTRACT: pitchwheel channel=6 pitch=-3328 time=0
EXTRACT: pitchwheel channel=6 pitch=-3456 time=0.016183027083333332
EXTRACT: pitchwheel channel=6 pitch=-3456 time=0
EXTRACT: pitchwheel channel=6 pitch=-3584 time=0.016183027083333332
EXTRACT: pitchwheel channel=6 pitch=-3584 time=0
EXTRACT: pitchwheel channel=6 pitch=-3712 time=0.016183027083333332
EXTRACT: pitchwheel channel=6 pitch=-3712 time=0
EXTRACT: pitchwheel channel=6 pitch=-3840 time=0.016183027083333332
EXTRACT: pitchwheel channel=6 pitch=-3840 time=0
EXTRACT: pitchwheel channel=6 pitch=-3968 time=0.016183027083333332
EXTRACT: pitchwheel channel=6 pitch=-3968 time=0
EXTRACT: pitchwheel channel=6 pitch=-4096 time=0.016183027083333332
EXTRACT: pitchwheel channel=6 pitch=-4096 time=0
EXTRACT: pitchwheel channel=6 pitch=-4224 time=0.016183027083333332
EXTRACT: pitchwheel channel=6 pitch=-4224 time=0
EXTRACT: note_off channel=0 note=63 velocity=95 time=0.0016741062500000002
EXTRACT: note_off channel=2 note=63 velocity=95 time=0
EXTRACT: note_on channel=2 note=46 velocity=127 time=0
EXTRACT: note_on channel=5 note=64 velocity=95 time=0
EXTRACT: note_on channel=5 note=59 velocity=95 time=0
EXTRACT: note_on channel=5 note=55 velocity=95 time=0
EXTRACT: note_on channel=5 note=50 velocity=95 time=0
EXTRACT: note_off channel=7 note=33 velocity=95 time=0
EXTRACT: note_off channel=9 note=36 velocity=95 time=0
EXTRACT: note_on channel=9 note=28 velocity=95 time=0
EXTRACT: note_on channel=9 note=39 velocity=95 time=0
EXTRACT: pitchwheel channel=6 pitch=-4352 time=0.014508920833333334
EXTRACT: pitchwheel channel=6 pitch=-4352 time=0
EXTRACT: pitchwheel channel=6 pitch=-4480 time=0.016183027083333332
EXTRACT: pitchwheel channel=6 pitch=-4480 time=0
EXTRACT: pitchwheel channel=6 pitch=-4608 time=0.016183027083333332
EXTRACT: pitchwheel channel=6 pitch=-4608 time=0
EXTRACT: pitchwheel channel=6 pitch=-4736 time=0.016183027083333332
EXTRACT: pitchwheel channel=6 pitch=-4736 time=0
EXTRACT: pitchwheel channel=6 pitch=-4864 time=0.016183027083333332
EXTRACT: pitchwheel channel=6 pitch=-4864 time=0
EXTRACT: pitchwheel channel=6 pitch=-4992 time=0.016183027083333332
EXTRACT: pitchwheel channel=6 pitch=-4992 time=0
EXTRACT: pitchwheel channel=6 pitch=-5120 time=0.016183027083333332
EXTRACT: pitchwheel channel=6 pitch=-5120 time=0
EXTRACT: pitchwheel channel=6 pitch=-5248 time=0.016183027083333332
EXTRACT: pitchwheel channel=6 pitch=-5248 time=0
EXTRACT: pitchwheel channel=6 pitch=-5376 time=0.016183027083333332
EXTRACT: pitchwheel channel=6 pitch=-5376 time=0
EXTRACT: pitchwheel channel=6 pitch=-5504 time=0.016183027083333332
EXTRACT: pitchwheel channel=6 pitch=-5504 time=0
EXTRACT: pitchwheel channel=6 pitch=-5632 time=0.016183027083333332
EXTRACT: pitchwheel channel=6 pitch=-5632 time=0
EXTRACT: pitchwheel channel=6 pitch=-5760 time=0.016183027083333332
EXTRACT: pitchwheel channel=6 pitch=-5760 time=0
EXTRACT: pitchwheel channel=6 pitch=-5888 time=0.016183027083333332
EXTRACT: pitchwheel channel=6 pitch=-5888 time=0
EXTRACT: pitchwheel channel=6 pitch=-6016 time=0.016183027083333332
EXTRACT: pitchwheel channel=6 pitch=-6016 time=0
EXTRACT: pitchwheel channel=6 pitch=-6144 time=0.016183027083333332
EXTRACT: pitchwheel channel=6 pitch=-6144 time=0
EXTRACT: pitchwheel channel=6 pitch=-6272 time=0.016183027083333332
EXTRACT: pitchwheel channel=6 pitch=-6272 time=0
EXTRACT: note_on channel=0 note=58 velocity=95 time=0.010602672916666667
EXTRACT: note_on channel=2 note=58 velocity=95 time=0
EXTRACT: note_off channel=8 note=23 velocity=95 time=0
EXTRACT: pitchwheel channel=6 pitch=-6400 time=0.005580354166666667
EXTRACT: pitchwheel channel=6 pitch=-6400 time=0
EXTRACT: pitchwheel channel=6 pitch=-6528 time=0.016183027083333332
EXTRACT: pitchwheel channel=6 pitch=-6528 time=0
EXTRACT: pitchwheel channel=6 pitch=-6656 time=0.016183027083333332
EXTRACT: pitchwheel channel=6 pitch=-6656 time=0
EXTRACT: pitchwheel channel=6 pitch=-6784 time=0.016183027083333332
EXTRACT: pitchwheel channel=6 pitch=-6784 time=0
EXTRACT: pitchwheel channel=6 pitch=-6912 time=0.016183027083333332
EXTRACT: pitchwheel channel=6 pitch=-6912 time=0
EXTRACT: pitchwheel channel=6 pitch=-7040 time=0.016183027083333332
EXTRACT: pitchwheel channel=6 pitch=-7040 time=0
EXTRACT: pitchwheel channel=6 pitch=-7168 time=0.016183027083333332
EXTRACT: pitchwheel channel=6 pitch=-7168 time=0
EXTRACT: pitchwheel channel=6 pitch=-7296 time=0.016183027083333332
EXTRACT: pitchwheel channel=6 pitch=-7296 time=0
EXTRACT: pitchwheel channel=6 pitch=-7424 time=0.016183027083333332
EXTRACT: pitchwheel channel=6 pitch=-7424 time=0
EXTRACT: pitchwheel channel=6 pitch=-7552 time=0.016183027083333332
EXTRACT: pitchwheel channel=6 pitch=-7552 time=0
EXTRACT: pitchwheel channel=6 pitch=-7680 time=0.016183027083333332
EXTRACT: pitchwheel channel=6 pitch=-7680 time=0
EXTRACT: pitchwheel channel=6 pitch=-7808 time=0.016183027083333332
EXTRACT: pitchwheel channel=6 pitch=-7808 time=0
EXTRACT: pitchwheel channel=6 pitch=-7936 time=0.016183027083333332
EXTRACT: pitchwheel channel=6 pitch=-7936 time=0
EXTRACT: pitchwheel channel=6 pitch=-8064 time=0.016183027083333332
EXTRACT: pitchwheel channel=6 pitch=-8064 time=0
EXTRACT: pitchwheel channel=6 pitch=-8192 time=0.016183027083333332
EXTRACT: pitchwheel channel=6 pitch=-8192 time=0
EXTRACT: pitchwheel channel=6 pitch=-8192 time=0.016183027083333332
EXTRACT: pitchwheel channel=6 pitch=-8192 time=0
EXTRACT: pitchwheel channel=6 pitch=-8192 time=0.016183027083333332
EXTRACT: pitchwheel channel=6 pitch=-8192 time=0
EXTRACT: note_off channel=0 note=58 velocity=95 time=0.0033482125000000003
EXTRACT: note_on channel=0 note=59 velocity=70 time=0
EXTRACT: note_off channel=1 note=70 velocity=95 time=0
EXTRACT: note_off channel=1 note=66 velocity=95 time=0
EXTRACT: note_off channel=1 note=63 velocity=95 time=0
EXTRACT: note_off channel=1 note=58 velocity=95 time=0
EXTRACT: note_on channel=1 note=71 velocity=95 time=0
EXTRACT: note_on channel=1 note=66 velocity=95 time=0
EXTRACT: note_on channel=1 note=63 velocity=95 time=0
EXTRACT: note_on channel=1 note=59 velocity=95 time=0
EXTRACT: note_off channel=2 note=46 velocity=127 time=0
EXTRACT: note_off channel=2 note=58 velocity=95 time=0
EXTRACT: note_on channel=2 note=59 velocity=70 time=0
EXTRACT: note_on channel=2 note=47 velocity=127 time=0
EXTRACT: pitchwheel channel=6 pitch=-8192 time=0
EXTRACT: pitchwheel channel=6 pitch=0 time=0
EXTRACT: note_off channel=6 note=53 velocity=95 time=0
EXTRACT: pitchwheel channel=6 pitch=-8192 time=0
EXTRACT: pitchwheel channel=6 pitch=0 time=0
EXTRACT: note_off channel=6 note=53 velocity=95 time=0
EXTRACT: note_on channel=7 note=33 velocity=95 time=0
EXTRACT: note_on channel=8 note=23 velocity=95 time=0
EXTRACT: note_on channel=10 note=40 velocity=95 time=0
EXTRACT: note_off channel=9 note=28 velocity=95 time=0
EXTRACT: note_off channel=9 note=39 velocity=95 time=0
EXTRACT: note_on channel=9 note=36 velocity=95 time=0
EXTRACT: note_off channel=10 note=40 velocity=95 time=0.06696425
EXTRACT: note_off channel=0 note=59 velocity=70 time=0.20089275
EXTRACT: note_on channel=0 note=63 velocity=95 time=0
EXTRACT: note_off channel=2 note=59 velocity=70 time=0
EXTRACT: note_off channel=2 note=47 velocity=127 time=0
EXTRACT: note_on channel=2 note=63 velocity=95 time=0
EXTRACT: note_off channel=5 note=64 velocity=95 time=0
EXTRACT: note_off channel=5 note=59 velocity=95 time=0
EXTRACT: note_off channel=5 note=55 velocity=95 time=0
EXTRACT: note_off channel=5 note=50 velocity=95 time=0
EXTRACT: note_off channel=8 note=23 velocity=95 time=0
EXTRACT: note_on channel=8 note=23 velocity=95 time=0
EXTRACT: note_on channel=10 note=40 velocity=95 time=0
EXTRACT: note_off channel=9 note=36 velocity=95 time=0
EXTRACT: note_on channel=9 note=36 velocity=95 time=0
EXTRACT: note_off channel=10 note=40 velocity=95 time=0.06696425
EXTRACT: note_off channel=0 note=63 velocity=95 time=0.20089275
EXTRACT: note_on channel=0 note=66 velocity=95 time=0
EXTRACT: note_off channel=2 note=63 velocity=95 time=0
EXTRACT: note_on channel=2 note=66 velocity=95 time=0
EXTRACT: note_on channel=4 note=63 velocity=47 time=0
EXTRACT: note_on channel=4 note=59 velocity=95 time=0
EXTRACT: note_on channel=5 note=64 velocity=95 time=0
EXTRACT: note_on channel=5 note=59 velocity=95 time=0
EXTRACT: note_on channel=5 note=55 velocity=95 time=0
EXTRACT: note_on channel=5 note=50 velocity=95 time=0
EXTRACT: note_off channel=7 note=33 velocity=95 time=0
EXTRACT: note_off channel=8 note=23 velocity=95 time=0
EXTRACT: note_off channel=9 note=36 velocity=95 time=0
EXTRACT: note_on channel=9 note=28 velocity=95 time=0
EXTRACT: note_on channel=9 note=39 velocity=95 time=0
EXTRACT: note_on channel=3 note=63 velocity=47 time=0.033482125
EXTRACT: note_on channel=3 note=59 velocity=95 time=0
EXTRACT: note_off channel=0 note=66 velocity=95 time=0.234374875
EXTRACT: note_on channel=0 note=59 velocity=95 time=0
EXTRACT: note_off channel=2 note=66 velocity=95 time=0
EXTRACT: note_on channel=2 note=59 velocity=95 time=0
EXTRACT: note_on channel=7 note=33 velocity=95 time=0
EXTRACT: note_on channel=8 note=23 velocity=95 time=0
EXTRACT: note_on channel=10 note=40 velocity=95 time=0
EXTRACT: note_off channel=9 note=28 velocity=95 time=0
EXTRACT: note_off channel=9 note=39 velocity=95 time=0
EXTRACT: note_on channel=9 note=36 velocity=95 time=0
EXTRACT: note_off channel=10 note=40 velocity=95 time=0.06696425
EXTRACT: note_off channel=0 note=59 velocity=95 time=0.20089275
EXTRACT: note_on channel=0 note=58 velocity=70 time=0
EXTRACT: note_off channel=1 note=71 velocity=95 time=0
EXTRACT: note_off channel=1 note=66 velocity=95 time=0
EXTRACT: note_off channel=1 note=63 velocity=95 time=0
EXTRACT: note_off channel=1 note=59 velocity=95 time=0
EXTRACT: note_on channel=1 note=70 velocity=95 time=0
EXTRACT: note_on channel=1 note=66 velocity=95 time=0
EXTRACT: note_on channel=1 note=63 velocity=95 time=0
EXTRACT: note_on channel=1 note=58 velocity=95 time=0
EXTRACT: note_off channel=2 note=59 velocity=95 time=0
EXTRACT: note_on channel=2 note=58 velocity=70 time=0
EXTRACT: note_off channel=4 note=63 velocity=47 time=0
EXTRACT: note_off channel=4 note=59 velocity=95 time=0
EXTRACT: note_on channel=4 note=61 velocity=47 time=0
EXTRACT: note_on channel=4 note=58 velocity=95 time=0
EXTRACT: note_off channel=9 note=36 velocity=95 time=0
EXTRACT: note_off channel=3 note=63 velocity=47 time=0.033482125
EXTRACT: note_off channel=3 note=59 velocity=95 time=0
EXTRACT: note_on channel=3 note=61 velocity=47 time=0
EXTRACT: note_on channel=3 note=58 velocity=95 time=0
EXTRACT: note_off channel=0 note=58 velocity=70 time=0.234374875
EXTRACT: note_on channel=0 note=63 velocity=95 time=0
EXTRACT: note_off channel=2 note=58 velocity=70 time=0
EXTRACT: note_on channel=2 note=63 velocity=95 time=0
EXTRACT: note_off channel=5 note=64 velocity=95 time=0
EXTRACT: note_off channel=5 note=59 velocity=95 time=0
EXTRACT: note_off channel=5 note=55 velocity=95 time=0
EXTRACT: note_off channel=5 note=50 velocity=95 time=0
EXTRACT: note_off channel=7 note=33 velocity=95 time=0
EXTRACT: note_on channel=7 note=33 velocity=95 time=0
EXTRACT: note_off channel=8 note=23 velocity=95 time=0
EXTRACT: note_on channel=8 note=23 velocity=95 time=0
EXTRACT: note_on channel=10 note=40 velocity=95 time=0
EXTRACT: note_on channel=9 note=36 velocity=95 time=0
EXTRACT: note_off channel=10 note=40 velocity=95 time=0.06696425
EXTRACT: note_off channel=0 note=63 velocity=95 time=0.20089275
EXTRACT: note_off channel=2 note=63 velocity=95 time=0
EXTRACT: note_off channel=4 note=61 velocity=47 time=0
EXTRACT: note_off channel=4 note=58 velocity=95 time=0
EXTRACT: pitchwheel channel=4 pitch=0 time=0
EXTRACT: note_on channel=4 note=62 velocity=95 time=0
EXTRACT: note_on channel=5 note=64 velocity=95 time=0
EXTRACT: note_on channel=5 note=59 velocity=95 time=0
EXTRACT: note_on channel=5 note=55 velocity=95 time=0
EXTRACT: note_on channel=5 note=50 velocity=95 time=0
EXTRACT: note_off channel=7 note=33 velocity=95 time=0
EXTRACT: note_off channel=9 note=36 velocity=95 time=0
EXTRACT: note_on channel=9 note=28 velocity=95 time=0
EXTRACT: note_on channel=9 note=39 velocity=95 time=0
EXTRACT: note_off channel=3 note=61 velocity=47 time=0.033482125
EXTRACT: note_off channel=3 note=58 velocity=95 time=0
EXTRACT: pitchwheel channel=3 pitch=0 time=0
EXTRACT: note_on channel=3 note=63 velocity=95 time=0
EXTRACT: pitchwheel channel=4 pitch=128 time=0.013392850000000001
EXTRACT: pitchwheel channel=3 pitch=128 time=0.033482125
EXTRACT: pitchwheel channel=4 pitch=256 time=0.013392850000000001
EXTRACT: pitchwheel channel=3 pitch=256 time=0.033482125
EXTRACT: pitchwheel channel=4 pitch=384 time=0.013392850000000001
EXTRACT: pitchwheel channel=3 pitch=384 time=0.033482125
EXTRACT: pitchwheel channel=4 pitch=512 time=0.013392850000000001
EXTRACT: pitchwheel channel=3 pitch=512 time=0.033482125
EXTRACT: pitchwheel channel=4 pitch=640 time=0.013392850000000001
EXTRACT: pitchwheel channel=4 pitch=640 time=0
EXTRACT: pitchwheel channel=4 pitch=0 time=0
EXTRACT: note_off channel=4 note=62 velocity=95 time=0
EXTRACT: note_on channel=0 note=58 velocity=95 time=0.033482125
EXTRACT: note_on channel=2 note=58 velocity=95 time=0
EXTRACT: pitchwheel channel=3 pitch=640 time=0
EXTRACT: pitchwheel channel=3 pitch=640 time=0
EXTRACT: pitchwheel channel=3 pitch=0 time=0
EXTRACT: note_off channel=3 note=63 velocity=95 time=0
EXTRACT: pitchwheel channel=4 pitch=0 time=0
EXTRACT: note_on channel=4 note=63 velocity=95 time=0
EXTRACT: note_off channel=8 note=23 velocity=95 time=0
EXTRACT: pitchwheel channel=4 pitch=128 time=0.023995522916666668
EXTRACT: pitchwheel channel=3 pitch=0 time=0.009486602083333334
EXTRACT: note_on channel=3 note=64 velocity=95 time=0
EXTRACT: pitchwheel channel=4 pitch=256 time=0.014508920833333334
EXTRACT: pitchwheel channel=3 pitch=128 time=0.009486602083333334
EXTRACT: pitchwheel channel=4 pitch=384 time=0.014508920833333334
EXTRACT: pitchwheel channel=3 pitch=256 time=0.009486602083333334
EXTRACT: pitchwheel channel=4 pitch=512 time=0.014508920833333334
EXTRACT: pitchwheel channel=3 pitch=384 time=0.009486602083333334
EXTRACT: pitchwheel channel=4 pitch=640 time=0.014508920833333334
EXTRACT: pitchwheel channel=3 pitch=512 time=0.009486602083333334
EXTRACT: pitchwheel channel=4 pitch=768 time=0.014508920833333334
EXTRACT: pitchwheel channel=3 pitch=640 time=0.009486602083333334
EXTRACT: pitchwheel channel=4 pitch=896 time=0.014508920833333334
EXTRACT: pitchwheel channel=3 pitch=768 time=0.009486602083333334
EXTRACT: pitchwheel channel=4 pitch=1024 time=0.014508920833333334
EXTRACT: pitchwheel channel=3 pitch=896 time=0.009486602083333334
EXTRACT: pitchwheel channel=4 pitch=1152 time=0.014508920833333334
EXTRACT: pitchwheel channel=3 pitch=1024 time=0.009486602083333334
EXTRACT: pitchwheel channel=4 pitch=1280 time=0.014508920833333334
EXTRACT: pitchwheel channel=3 pitch=1152 time=0.009486602083333334
EXTRACT: pitchwheel channel=4 pitch=1408 time=0.014508920833333334
EXTRACT: note_off channel=0 note=58 velocity=95 time=0.003906247916666667
EXTRACT: note_on channel=0 note=59 velocity=70 time=0
EXTRACT: note_off channel=1 note=70 velocity=95 time=0
EXTRACT: note_off channel=1 note=66 velocity=95 time=0
EXTRACT: note_off channel=1 note=63 velocity=95 time=0
EXTRACT: note_off channel=1 note=58 velocity=95 time=0
EXTRACT: note_on channel=1 note=71 velocity=95 time=0
EXTRACT: note_on channel=1 note=66 velocity=95 time=0
EXTRACT: note_on channel=1 note=63 velocity=95 time=0
EXTRACT: note_on channel=1 note=59 velocity=95 time=0
EXTRACT: note_off channel=2 note=58 velocity=95 time=0
EXTRACT: note_on channel=2 note=59 velocity=70 time=0
EXTRACT: pitchwheel channel=4 pitch=1408 time=0
EXTRACT: pitchwheel channel=4 pitch=0 time=0
EXTRACT: note_off channel=4 note=63 velocity=95 time=0
EXTRACT: pitchwheel channel=4 pitch=0 time=0
EXTRACT: note_on channel=4 note=59 velocity=95 time=0
EXTRACT: note_on channel=7 note=33 velocity=95 time=0
EXTRACT: note_on channel=8 note=23 velocity=95 time=0
EXTRACT: note_on channel=10 note=40 velocity=95 time=0
EXTRACT: note_off channel=9 note=28 velocity=95 time=0
EXTRACT: note_off channel=9 note=39 velocity=95 time=0
EXTRACT: note_on channel=9 note=36 velocity=95 time=0
EXTRACT: pitchwheel channel=3 pitch=1280 time=0.005580354166666667
EXTRACT: pitchwheel channel=4 pitch=-128 time=0.012276779166666666
EXTRACT: pitchwheel channel=3 pitch=1408 time=0.01171874375
EXTRACT: pitchwheel channel=3 pitch=1408 time=0.003906247916666667
EXTRACT: pitchwheel channel=3 pitch=0 time=0
EXTRACT: note_off channel=3 note=64 velocity=95 time=0
EXTRACT: pitchwheel channel=3 pitch=0 time=0
EXTRACT: note_on channel=3 note=60 velocity=95 time=0
EXTRACT: pitchwheel channel=4 pitch=-256 time=0.0022321416666666667
EXTRACT: pitchwheel channel=3 pitch=-128 time=0.015624991666666668
EXTRACT: pitchwheel channel=4 pitch=-384 time=0.0022321416666666667
EXTRACT: note_off channel=10 note=40 velocity=95 time=0.013392850000000001
EXTRACT: pitchwheel channel=3 pitch=-256 time=0.0022321416666666667
EXTRACT: pitchwheel channel=4 pitch=-512 time=0.0022321416666666667
EXTRACT: pitchwheel channel=3 pitch=-384 time=0.015624991666666668
EXTRACT: pitchwheel channel=4 pitch=-640 time=0.0022321416666666667
EXTRACT: pitchwheel channel=3 pitch=-512 time=0.015624991666666668
EXTRACT: pitchwheel channel=4 pitch=-768 time=0.0022321416666666667
EXTRACT: pitchwheel channel=3 pitch=-640 time=0.015624991666666668
EXTRACT: pitchwheel channel=4 pitch=-896 time=0.0022321416666666667
EXTRACT: pitchwheel channel=3 pitch=-768 time=0.015624991666666668
EXTRACT: pitchwheel channel=4 pitch=-1024 time=0.0022321416666666667
EXTRACT: pitchwheel channel=3 pitch=-896 time=0.015624991666666668
EXTRACT: pitchwheel channel=4 pitch=-1152 time=0.0022321416666666667
EXTRACT: pitchwheel channel=3 pitch=-1024 time=0.015624991666666668
EXTRACT: pitchwheel channel=4 pitch=-1280 time=0.0022321416666666667
EXTRACT: pitchwheel channel=3 pitch=-1152 time=0.015624991666666668
EXTRACT: pitchwheel channel=4 pitch=-1408 time=0.0022321416666666667
EXTRACT: pitchwheel channel=4 pitch=-1408 time=0.0044642833333333335
EXTRACT: pitchwheel channel=4 pitch=0 time=0
EXTRACT: note_off channel=4 note=59 velocity=95 time=0
EXTRACT: pitchwheel channel=3 pitch=-1280 time=0.011160708333333333
EXTRACT: pitchwheel channel=3 pitch=-1408 time=0.017857133333333334
EXTRACT: pitchwheel channel=3 pitch=-1408 time=0.0044642833333333335
EXTRACT: pitchwheel channel=3 pitch=0 time=0
EXTRACT: note_off channel=3 note=60 velocity=95 time=0
EXTRACT: note_off channel=0 note=59 velocity=70 time=0.033482125
EXTRACT: note_on channel=0 note=63 velocity=95 time=0
EXTRACT: note_off channel=2 note=59 velocity=70 time=0
EXTRACT: note_on channel=2 note=63 velocity=95 time=0
EXTRACT: note_off channel=5 note=64 velocity=95 time=0
EXTRACT: note_off channel=5 note=59 velocity=95 time=0
EXTRACT: note_off channel=5 note=55 velocity=95 time=0
EXTRACT: note_off channel=5 note=50 velocity=95 time=0
EXTRACT: note_off channel=0 note=63 velocity=95 time=0.267857
EXTRACT: note_on channel=0 note=66 velocity=95 time=0
EXTRACT: note_off channel=2 note=63 velocity=95 time=0
EXTRACT: note_on channel=2 note=66 velocity=95 time=0
EXTRACT: pitchwheel channel=4 pitch=0 time=0
EXTRACT: note_on channel=4 note=62 velocity=95 time=0
EXTRACT: note_on channel=5 note=64 velocity=95 time=0
EXTRACT: note_on channel=5 note=59 velocity=95 time=0
EXTRACT: note_on channel=5 note=55 velocity=95 time=0
EXTRACT: note_on channel=5 note=50 velocity=95 time=0
EXTRACT: note_off channel=7 note=33 velocity=95 time=0
EXTRACT: note_off channel=8 note=23 velocity=95 time=0
EXTRACT: note_off channel=9 note=36 velocity=95 time=0
EXTRACT: note_on channel=9 note=28 velocity=95 time=0
EXTRACT: note_on channel=9 note=39 velocity=95 time=0
EXTRACT: pitchwheel channel=3 pitch=0 time=0.033482125
EXTRACT: note_on channel=3 note=63 velocity=95 time=0
EXTRACT: pitchwheel channel=4 pitch=128 time=0.013392850000000001
EXTRACT: pitchwheel channel=3 pitch=128 time=0.033482125
EXTRACT: pitchwheel channel=4 pitch=256 time=0.013392850000000001
EXTRACT: pitchwheel channel=3 pitch=256 time=0.033482125
EXTRACT: pitchwheel channel=4 pitch=384 time=0.013392850000000001
EXTRACT: pitchwheel channel=3 pitch=384 time=0.033482125
EXTRACT: pitchwheel channel=4 pitch=512 time=0.013392850000000001
EXTRACT: pitchwheel channel=3 pitch=512 time=0.033482125
EXTRACT: pitchwheel channel=4 pitch=640 time=0.013392850000000001
EXTRACT: pitchwheel channel=4 pitch=640 time=0
EXTRACT: pitchwheel channel=4 pitch=0 time=0
EXTRACT: note_off channel=4 note=62 velocity=95 time=0
EXTRACT: note_off channel=0 note=66 velocity=95 time=0.033482125
EXTRACT: note_on channel=0 note=59 velocity=95 time=0
EXTRACT: note_off channel=2 note=66 velocity=95 time=0
EXTRACT: note_on channel=2 note=59 velocity=95 time=0
EXTRACT: pitchwheel channel=3 pitch=640 time=0
EXTRACT: pitchwheel channel=3 pitch=640 time=0
EXTRACT: pitchwheel channel=3 pitch=0 time=0
EXTRACT: note_off channel=3 note=63 velocity=95 time=0
EXTRACT: pitchwheel channel=4 pitch=0 time=0
EXTRACT: note_on channel=4 note=63 velocity=95 time=0
EXTRACT: note_on channel=7 note=33 velocity=95 time=0
EXTRACT: note_on channel=8 note=23 velocity=95 time=0
EXTRACT: note_on channel=10 note=40 velocity=95 time=0
EXTRACT: note_off channel=9 note=28 velocity=95 time=0
EXTRACT: note_off channel=9 note=39 velocity=95 time=0
EXTRACT: note_on channel=9 note=36 velocity=95 time=0
EXTRACT: pitchwheel channel=4 pitch=128 time=0.023995522916666668
EXTRACT: pitchwheel channel=3 pitch=0 time=0.009486602083333334
EXTRACT: note_on channel=3 note=64 velocity=95 time=0
EXTRACT: pitchwheel channel=4 pitch=256 time=0.014508920833333334
EXTRACT: pitchwheel channel=3 pitch=128 time=0.009486602083333334
EXTRACT: note_off channel=10 note=40 velocity=95 time=0.009486602083333334
EXTRACT: pitchwheel channel=4 pitch=384 time=0.00502231875
EXTRACT: pitchwheel channel=3 pitch=256 time=0.009486602083333334
EXTRACT: pitchwheel channel=4 pitch=512 time=0.014508920833333334
EXTRACT: pitchwheel channel=3 pitch=384 time=0.009486602083333334
EXTRACT: pitchwheel channel=4 pitch=640 time=0.014508920833333334
EXTRACT: pitchwheel channel=3 pitch=512 time=0.009486602083333334
EXTRACT: pitchwheel channel=4 pitch=768 time=0.014508920833333334
EXTRACT: pitchwheel channel=3 pitch=640 time=0.009486602083333334
EXTRACT: pitchwheel channel=4 pitch=896 time=0.014508920833333334
EXTRACT: pitchwheel channel=3 pitch=768 time=0.009486602083333334
EXTRACT: pitchwheel channel=4 pitch=1024 time=0.014508920833333334
EXTRACT: pitchwheel channel=3 pitch=896 time=0.009486602083333334
EXTRACT: pitchwheel channel=4 pitch=1152 time=0.014508920833333334
EXTRACT: pitchwheel channel=3 pitch=1024 time=0.009486602083333334
EXTRACT: pitchwheel channel=4 pitch=1280 time=0.014508920833333334
EXTRACT: pitchwheel channel=3 pitch=1152 time=0.009486602083333334
EXTRACT: pitchwheel channel=4 pitch=1408 time=0.014508920833333334
EXTRACT: note_off channel=0 note=59 velocity=95 time=0.003906247916666667
EXTRACT: note_on channel=0 note=58 velocity=70 time=0
EXTRACT: note_off channel=1 note=71 velocity=95 time=0
EXTRACT: note_off channel=1 note=66 velocity=95 time=0
EXTRACT: note_off channel=1 note=63 velocity=95 time=0
EXTRACT: note_off channel=1 note=59 velocity=95 time=0
EXTRACT: note_on channel=1 note=70 velocity=95 time=0
EXTRACT: note_on channel=1 note=66 velocity=95 time=0
EXTRACT: note_on channel=1 note=63 velocity=95 time=0
EXTRACT: note_on channel=1 note=58 velocity=95 time=0
EXTRACT: note_off channel=2 note=59 velocity=95 time=0
EXTRACT: note_on channel=2 note=58 velocity=70 time=0
EXTRACT: pitchwheel channel=4 pitch=1408 time=0
EXTRACT: pitchwheel channel=4 pitch=0 time=0
EXTRACT: note_off channel=4 note=63 velocity=95 time=0
EXTRACT: pitchwheel channel=4 pitch=0 time=0
EXTRACT: note_on channel=4 note=59 velocity=95 time=0
EXTRACT: pitchwheel channel=6 pitch=0 time=0
EXTRACT: note_on channel=6 note=53 velocity=95 time=0
EXTRACT: pitchwheel channel=6 pitch=0 time=0
EXTRACT: note_on channel=6 note=53 velocity=95 time=0
EXTRACT: note_off channel=9 note=36 velocity=95 time=0
EXTRACT: pitchwheel channel=3 pitch=1280 time=0.005580354166666667
EXTRACT: pitchwheel channel=6 pitch=-128 time=0.010602672916666667
EXTRACT: pitchwheel channel=6 pitch=-128 time=0
EXTRACT: pitchwheel channel=4 pitch=-128 time=0.0016741062500000002
EXTRACT: pitchwheel channel=3 pitch=1408 time=0.01171874375
EXTRACT: pitchwheel channel=6 pitch=-256 time=0.0027901770833333333
EXTRACT: pitchwheel channel=6 pitch=-256 time=0
EXTRACT: pitchwheel channel=3 pitch=1408 time=0.0011160708333333334
EXTRACT: pitchwheel channel=3 pitch=0 time=0
EXTRACT: note_off channel=3 note=64 velocity=95 time=0
EXTRACT: pitchwheel channel=3 pitch=0 time=0
EXTRACT: note_on channel=3 note=60 velocity=95 time=0
EXTRACT: pitchwheel channel=4 pitch=-256 time=0.0022321416666666667
EXTRACT: pitchwheel channel=6 pitch=-384 time=0.012834814583333333
EXTRACT: pitchwheel channel=6 pitch=-384 time=0
EXTRACT: pitchwheel channel=3 pitch=-128 time=0.0027901770833333333
EXTRACT: pitchwheel channel=4 pitch=-384 time=0.0022321416666666667
EXTRACT: pitchwheel channel=6 pitch=-512 time=0.011160708333333333
EXTRACT: pitchwheel channel=6 pitch=-512 time=0
EXTRACT: pitchwheel channel=3 pitch=-256 time=0.0044642833333333335
EXTRACT: pitchwheel channel=4 pitch=-512 time=0.0022321416666666667
EXTRACT: pitchwheel channel=6 pitch=-640 time=0.009486602083333334
EXTRACT: pitchwheel channel=6 pitch=-640 time=0
EXTRACT: pitchwheel channel=3 pitch=-384 time=0.006138389583333333
EXTRACT: pitchwheel channel=4 pitch=-640 time=0.0022321416666666667
EXTRACT: pitchwheel channel=6 pitch=-768 time=0.007812495833333334
EXTRACT: pitchwheel channel=6 pitch=-768 time=0
EXTRACT: pitchwheel channel=3 pitch=-512 time=0.007812495833333334
EXTRACT: pitchwheel channel=4 pitch=-768 time=0.0022321416666666667
EXTRACT: pitchwheel channel=6 pitch=-896 time=0.006138389583333333
EXTRACT: pitchwheel channel=6 pitch=-896 time=0
EXTRACT: pitchwheel channel=3 pitch=-640 time=0.009486602083333334
EXTRACT: pitchwheel channel=4 pitch=-896 time=0.0022321416666666667
EXTRACT: pitchwheel channel=6 pitch=-1024 time=0.0044642833333333335
EXTRACT: pitchwheel channel=6 pitch=-1024 time=0
EXTRACT: pitchwheel channel=3 pitch=-768 time=0.011160708333333333
EXTRACT: pitchwheel channel=4 pitch=-1024 time=0.0022321416666666667
EXTRACT: pitchwheel channel=6 pitch=-1152 time=0.0027901770833333333
EXTRACT: pitchwheel channel=6 pitch=-1152 time=0
EXTRACT: pitchwheel channel=3 pitch=-896 time=0.012834814583333333
EXTRACT: pitchwheel channel=4 pitch=-1152 time=0.0022321416666666667
EXTRACT: pitchwheel channel=6 pitch=-1280 time=0.0011160708333333334
EXTRACT: pitchwheel channel=6 pitch=-1280 time=0
EXTRACT: pitchwheel channel=3 pitch=-1024 time=0.014508920833333334
EXTRACT: pitchwheel channel=6 pitch=-1408 time=0.0016741062500000002
EXTRACT: pitchwheel channel=6 pitch=-1408 time=0
EXTRACT: pitchwheel channel=4 pitch=-1280 time=0.0005580354166666667
EXTRACT: pitchwheel channel=3 pitch=-1152 time=0.015624991666666668
EXTRACT: pitchwheel channel=6 pitch=-1536 time=0
EXTRACT: pitchwheel channel=6 pitch=-1536 time=0
EXTRACT: pitchwheel channel=4 pitch=-1408 time=0.0022321416666666667
EXTRACT: pitchwheel channel=4 pitch=-1408 time=0.0044642833333333335
EXTRACT: pitchwheel channel=4 pitch=0 time=0
EXTRACT: note_off channel=4 note=59 velocity=95 time=0
EXTRACT: pitchwheel channel=6 pitch=-1664 time=0.009486602083333334
EXTRACT: pitchwheel channel=6 pitch=-1664 time=0
EXTRACT: pitchwheel channel=3 pitch=-1280 time=0.0016741062500000002
EXTRACT: pitchwheel channel=6 pitch=-1792 time=0.014508920833333334
EXTRACT: pitchwheel channel=6 pitch=-1792 time=0
EXTRACT: pitchwheel channel=3 pitch=-1408 time=0.0033482125000000003
EXTRACT: pitchwheel channel=3 pitch=-1408 time=0.0044642833333333335
EXTRACT: pitchwheel channel=3 pitch=0 time=0
EXTRACT: note_off channel=3 note=60 velocity=95 time=0
EXTRACT: pitchwheel channel=6 pitch=-1920 time=0.00837053125
EXTRACT: pitchwheel channel=6 pitch=-1920 time=0
EXTRACT: pitchwheel channel=6 pitch=-2048 time=0.016183027083333332
EXTRACT: pitchwheel channel=6 pitch=-2048 time=0
EXTRACT: note_off channel=0 note=58 velocity=70 time=0.008928566666666667
EXTRACT: note_on channel=0 note=63 velocity=95 time=0
EXTRACT: note_off channel=2 note=58 velocity=70 time=0
EXTRACT: note_on channel=2 note=63 velocity=95 time=0
EXTRACT: note_off channel=5 note=64 velocity=95 time=0
EXTRACT: note_off channel=5 note=59 velocity=95 time=0
EXTRACT: note_off channel=5 note=55 velocity=95 time=0
EXTRACT: note_off channel=5 note=50 velocity=95 time=0
EXTRACT: note_off channel=7 note=33 velocity=95 time=0
EXTRACT: note_on channel=7 note=33 velocity=95 time=0
EXTRACT: note_off channel=8 note=23 velocity=95 time=0
EXTRACT: note_on channel=8 note=23 velocity=95 time=0
EXTRACT: note_on channel=10 note=40 velocity=95 time=0
EXTRACT: note_on channel=9 note=36 velocity=95 time=0
EXTRACT: pitchwheel channel=6 pitch=-2176 time=0.007254460416666667
EXTRACT: pitchwheel channel=6 pitch=-2176 time=0
EXTRACT: pitchwheel channel=6 pitch=-2304 time=0.016183027083333332
EXTRACT: pitchwheel channel=6 pitch=-2304 time=0
EXTRACT: pitchwheel channel=6 pitch=-2432 time=0.016183027083333332
EXTRACT: pitchwheel channel=6 pitch=-2432 time=0
EXTRACT: pitchwheel channel=6 pitch=-2560 time=0.016183027083333332
EXTRACT: pitchwheel channel=6 pitch=-2560 time=0
EXTRACT: note_off channel=10 note=40 velocity=95 time=0.011160708333333333
EXTRACT: pitchwheel channel=6 pitch=-2688 time=0.00502231875
EXTRACT: pitchwheel channel=6 pitch=-2688 time=0
EXTRACT: pitchwheel channel=6 pitch=-2816 time=0.016183027083333332
EXTRACT: pitchwheel channel=6 pitch=-2816 time=0
EXTRACT: pitchwheel channel=6 pitch=-2944 time=0.016183027083333332
EXTRACT: pitchwheel channel=6 pitch=-2944 time=0
EXTRACT: pitchwheel channel=6 pitch=-3072 time=0.016183027083333332
EXTRACT: pitchwheel channel=6 pitch=-3072 time=0
EXTRACT: pitchwheel channel=6 pitch=-3200 time=0.016183027083333332
EXTRACT: pitchwheel channel=6 pitch=-3200 time=0
EXTRACT: pitchwheel channel=6 pitch=-3328 time=0.016183027083333332
EXTRACT: pitchwheel channel=6 pitch=-3328 time=0
EXTRACT: pitchwheel channel=6 pitch=-3456 time=0.016183027083333332
EXTRACT: pitchwheel channel=6 pitch=-3456 time=0
EXTRACT: pitchwheel channel=6 pitch=-3584 time=0.016183027083333332
EXTRACT: pitchwheel channel=6 pitch=-3584 time=0
EXTRACT: pitchwheel channel=6 pitch=-3712 time=0.016183027083333332
EXTRACT: pitchwheel channel=6 pitch=-3712 time=0
EXTRACT: pitchwheel channel=6 pitch=-3840 time=0.016183027083333332
EXTRACT: pitchwheel channel=6 pitch=-3840 time=0
EXTRACT: pitchwheel channel=6 pitch=-3968 time=0.016183027083333332
EXTRACT: pitchwheel channel=6 pitch=-3968 time=0
EXTRACT: pitchwheel channel=6 pitch=-4096 time=0.016183027083333332
EXTRACT: pitchwheel channel=6 pitch=-4096 time=0
EXTRACT: pitchwheel channel=6 pitch=-4224 time=0.016183027083333332
EXTRACT: pitchwheel channel=6 pitch=-4224 time=0
EXTRACT: note_off channel=0 note=63 velocity=95 time=0.0016741062500000002
EXTRACT: note_off channel=2 note=63 velocity=95 time=0
EXTRACT: note_on channel=2 note=46 velocity=127 time=0
EXTRACT: note_on channel=5 note=64 velocity=95 time=0
EXTRACT: note_on channel=5 note=59 velocity=95 time=0
EXTRACT: note_on channel=5 note=55 velocity=95 time=0
EXTRACT: note_on channel=5 note=50 velocity=95 time=0
EXTRACT: note_off channel=7 note=33 velocity=95 time=0
EXTRACT: note_off channel=9 note=36 velocity=95 time=0
EXTRACT: note_on channel=9 note=28 velocity=95 time=0
EXTRACT: note_on channel=9 note=39 velocity=95 time=0
EXTRACT: pitchwheel channel=6 pitch=-4352 time=0.014508920833333334
EXTRACT: pitchwheel channel=6 pitch=-4352 time=0
EXTRACT: pitchwheel channel=6 pitch=-4480 time=0.016183027083333332
EXTRACT: pitchwheel channel=6 pitch=-4480 time=0
EXTRACT: pitchwheel channel=6 pitch=-4608 time=0.016183027083333332
EXTRACT: pitchwheel channel=6 pitch=-4608 time=0
EXTRACT: pitchwheel channel=6 pitch=-4736 time=0.016183027083333332
EXTRACT: pitchwheel channel=6 pitch=-4736 time=0
EXTRACT: pitchwheel channel=6 pitch=-4864 time=0.016183027083333332
EXTRACT: pitchwheel channel=6 pitch=-4864 time=0
EXTRACT: pitchwheel channel=6 pitch=-4992 time=0.016183027083333332
EXTRACT: pitchwheel channel=6 pitch=-4992 time=0
EXTRACT: pitchwheel channel=6 pitch=-5120 time=0.016183027083333332
EXTRACT: pitchwheel channel=6 pitch=-5120 time=0
EXTRACT: pitchwheel channel=6 pitch=-5248 time=0.016183027083333332
EXTRACT: pitchwheel channel=6 pitch=-5248 time=0
EXTRACT: pitchwheel channel=6 pitch=-5376 time=0.016183027083333332
EXTRACT: pitchwheel channel=6 pitch=-5376 time=0
EXTRACT: pitchwheel channel=6 pitch=-5504 time=0.016183027083333332
EXTRACT: pitchwheel channel=6 pitch=-5504 time=0
EXTRACT: pitchwheel channel=6 pitch=-5632 time=0.016183027083333332
EXTRACT: pitchwheel channel=6 pitch=-5632 time=0
EXTRACT: pitchwheel channel=6 pitch=-5760 time=0.016183027083333332
EXTRACT: pitchwheel channel=6 pitch=-5760 time=0
EXTRACT: pitchwheel channel=6 pitch=-5888 time=0.016183027083333332
EXTRACT: pitchwheel channel=6 pitch=-5888 time=0
EXTRACT: pitchwheel channel=6 pitch=-6016 time=0.016183027083333332
EXTRACT: pitchwheel channel=6 pitch=-6016 time=0
EXTRACT: pitchwheel channel=6 pitch=-6144 time=0.016183027083333332
EXTRACT: pitchwheel channel=6 pitch=-6144 time=0
EXTRACT: pitchwheel channel=6 pitch=-6272 time=0.016183027083333332
EXTRACT: pitchwheel channel=6 pitch=-6272 time=0
EXTRACT: note_off channel=8 note=23 velocity=95 time=0.010602672916666667
EXTRACT: pitchwheel channel=6 pitch=-6400 time=0.005580354166666667
EXTRACT: pitchwheel channel=6 pitch=-6400 time=0
EXTRACT: pitchwheel channel=6 pitch=-6528 time=0.016183027083333332
EXTRACT: pitchwheel channel=6 pitch=-6528 time=0
EXTRACT: pitchwheel channel=6 pitch=-6656 time=0.016183027083333332
EXTRACT: pitchwheel channel=6 pitch=-6656 time=0
EXTRACT: pitchwheel channel=6 pitch=-6784 time=0.016183027083333332
EXTRACT: pitchwheel channel=6 pitch=-6784 time=0
EXTRACT: pitchwheel channel=6 pitch=-6912 time=0.016183027083333332
EXTRACT: pitchwheel channel=6 pitch=-6912 time=0
EXTRACT: pitchwheel channel=6 pitch=-7040 time=0.016183027083333332
EXTRACT: pitchwheel channel=6 pitch=-7040 time=0
EXTRACT: pitchwheel channel=6 pitch=-7168 time=0.016183027083333332
EXTRACT: pitchwheel channel=6 pitch=-7168 time=0
EXTRACT: pitchwheel channel=6 pitch=-7296 time=0.016183027083333332
EXTRACT: pitchwheel channel=6 pitch=-7296 time=0
EXTRACT: pitchwheel channel=6 pitch=-7424 time=0.016183027083333332
EXTRACT: pitchwheel channel=6 pitch=-7424 time=0
EXTRACT: pitchwheel channel=6 pitch=-7552 time=0.016183027083333332
EXTRACT: pitchwheel channel=6 pitch=-7552 time=0
EXTRACT: pitchwheel channel=6 pitch=-7680 time=0.016183027083333332
EXTRACT: pitchwheel channel=6 pitch=-7680 time=0
EXTRACT: pitchwheel channel=6 pitch=-7808 time=0.016183027083333332
EXTRACT: pitchwheel channel=6 pitch=-7808 time=0
EXTRACT: pitchwheel channel=6 pitch=-7936 time=0.016183027083333332
EXTRACT: pitchwheel channel=6 pitch=-7936 time=0
EXTRACT: pitchwheel channel=6 pitch=-8064 time=0.016183027083333332
EXTRACT: pitchwheel channel=6 pitch=-8064 time=0
EXTRACT: pitchwheel channel=6 pitch=-8192 time=0.016183027083333332
EXTRACT: pitchwheel channel=6 pitch=-8192 time=0
EXTRACT: pitchwheel channel=6 pitch=-8192 time=0.016183027083333332
EXTRACT: pitchwheel channel=6 pitch=-8192 time=0
EXTRACT: pitchwheel channel=6 pitch=-8192 time=0.016183027083333332
EXTRACT: pitchwheel channel=6 pitch=-8192 time=0
EXTRACT: note_off channel=1 note=70 velocity=95 time=0.0033482125000000003
EXTRACT: note_off channel=1 note=66 velocity=95 time=0
EXTRACT: note_off channel=1 note=63 velocity=95 time=0
EXTRACT: note_off channel=1 note=58 velocity=95 time=0
EXTRACT: note_off channel=2 note=46 velocity=127 time=0
EXTRACT: note_on channel=2 note=47 velocity=127 time=0
EXTRACT: note_off channel=5 note=64 velocity=95 time=0
EXTRACT: note_off channel=5 note=59 velocity=95 time=0
EXTRACT: note_off channel=5 note=55 velocity=95 time=0
EXTRACT: note_off channel=5 note=50 velocity=95 time=0
EXTRACT: pitchwheel channel=6 pitch=-8192 time=0
EXTRACT: pitchwheel channel=6 pitch=0 time=0
EXTRACT: note_off channel=6 note=53 velocity=95 time=0
EXTRACT: pitchwheel channel=6 pitch=-8192 time=0
EXTRACT: pitchwheel channel=6 pitch=0 time=0
EXTRACT: note_off channel=6 note=53 velocity=95 time=0
EXTRACT: note_off channel=9 note=28 velocity=95 time=0
EXTRACT: note_off channel=9 note=39 velocity=95 time=0
EXTRACT: note_off channel=2 note=47 velocity=127 time=0.267857
INTERVALS17 - Stefani,_Gwen_-_Hollaback_Girl.mid
unison0
2m55
2M0
3m29
3M28
4m54
4M0
5m28
5M0
6m0
7m0
7M0